0, 0, Header, 1, 8, 480
1, 0, Start_track
1, 0, Title_t, "Chopin Mazurka Opus 7 No. 1"
1, 0, Copyright_t, "Copyright © 2003 by Bernd Krueger "
1, 0, Text_t, "Frederic Chopin"
1, 0, Text_t, "Vivace"
1, 0, Text_t, "Fertiggestellt am 3.7.2003\012"
1, 0, Text_t, "Update am 4.7.2010\012"
1, 0, Text_t, "Update am 11.2.2014\012"
1, 0, Text_t, "Dauer: 2:17 Minuten\012"
1, 0, SMPTE_offset, 96, 0, 3, 0, 0
1, 0, Time_signature, 3, 2, 24, 8
1, 0, Key_signature, -2, "major"
1, 0, Tempo, 416667
1, 480, Tempo, 401338
1, 1200, Tempo, 413793
1, 1480, Tempo, 400000
1, 2640, Tempo, 419580
1, 2880, Tempo, 406780
1, 3240, Tempo, 459770
1, 3360, Tempo, 421053
1, 3400, Tempo, 419580
1, 3440, Tempo, 416667
1, 3480, Tempo, 413793
1, 3520, Tempo, 410959
1, 3840, Tempo, 412371
1, 3880, Tempo, 413793
1, 3960, Tempo, 415225
1, 4040, Tempo, 416667
1, 4080, Tempo, 443787
1, 4280, Tempo, 422535
1, 4320, Tempo, 528169
1, 4680, Tempo, 324675
1, 4800, Tempo, 421053
1, 5280, Tempo, 419580
1, 5640, Tempo, 413793
1, 5760, Tempo, 493421
1, 6120, Tempo, 340909
1, 6280, Tempo, 424028
1, 6720, Tempo, 421053
1, 7120, Tempo, 413793
1, 7200, Tempo, 434783
1, 7240, Tempo, 434783
1, 7560, Tempo, 364078
1, 7680, Tempo, 422535
1, 8160, Tempo, 419580
1, 8400, Tempo, 428571
1, 8640, Tempo, 416667
1, 8680, Tempo, 418118
1, 8920, Tempo, 416667
1, 9160, Tempo, 415225
1, 9400, Tempo, 413793
1, 9640, Tempo, 412371
1, 9840, Tempo, 517241
1, 10080, Tempo, 431655
1, 10320, Tempo, 418118
1, 11040, Tempo, 431655
1, 11280, Tempo, 468750
1, 11520, Tempo, 559701
1, 11880, Tempo, 345622
1, 12040, Tempo, 424028
1, 12480, Tempo, 421053
1, 12880, Tempo, 413793
1, 12960, Tempo, 483871
1, 13320, Tempo, 362319
1, 13440, Tempo, 422535
1, 13920, Tempo, 419580
1, 14400, Tempo, 416667
1, 14440, Tempo, 418118
1, 14680, Tempo, 416667
1, 14920, Tempo, 415225
1, 15160, Tempo, 413793
1, 15400, Tempo, 412371
1, 15600, Tempo, 425532
1, 15840, Tempo, 419580
1, 16360, Tempo, 434783
1, 16800, Tempo, 442804
1, 17040, Tempo, 461538
1, 17280, Tempo, 425532
1, 17760, Tempo, 405405
1, 18480, Tempo, 413793
1, 18760, Tempo, 400000
1, 19920, Tempo, 419580
1, 20160, Tempo, 406780
1, 20520, Tempo, 459770
1, 20640, Tempo, 421053
1, 20680, Tempo, 419580
1, 20720, Tempo, 416667
1, 20760, Tempo, 413793
1, 20800, Tempo, 410959
1, 21120, Tempo, 412371
1, 21160, Tempo, 413793
1, 21240, Tempo, 415225
1, 21320, Tempo, 416667
1, 21360, Tempo, 563910
1, 21600, Tempo, 520833
1, 21960, Tempo, 352113
1, 22080, Tempo, 421053
1, 22560, Tempo, 419580
1, 22920, Tempo, 413793
1, 23040, Tempo, 490196
1, 23400, Tempo, 355450
1, 23560, Tempo, 424028
1, 24000, Tempo, 421053
1, 24240, Tempo, 442804
1, 24480, Tempo, 471698
1, 24840, Tempo, 358852
1, 24960, Tempo, 422535
1, 25440, Tempo, 419580
1, 25680, Tempo, 428571
1, 25920, Tempo, 416667
1, 25960, Tempo, 418118
1, 26200, Tempo, 416667
1, 26440, Tempo, 415225
1, 26680, Tempo, 413793
1, 26920, Tempo, 412371
1, 27120, Tempo, 530973
1, 27360, Tempo, 439560
1, 27600, Tempo, 419580
1, 27640, Tempo, 424028
1, 28320, Tempo, 431655
1, 28560, Tempo, 500000
1, 28800, Tempo, 524476
1, 29160, Tempo, 373134
1, 29320, Tempo, 424028
1, 29760, Tempo, 421053
1, 30160, Tempo, 413793
1, 30240, Tempo, 517241
1, 30600, Tempo, 373134
1, 30720, Tempo, 422535
1, 31200, Tempo, 419580
1, 31220, Tempo, 430108
1, 31240, Tempo, 442804
1, 31680, Tempo, 439560
1, 31840, Tempo, 437956
1, 32000, Tempo, 436364
1, 32160, Tempo, 434783
1, 32320, Tempo, 433213
1, 32480, Tempo, 431655
1, 32640, Tempo, 433213
1, 32880, Tempo, 465116
1, 33120, Tempo, 437956
1, 33160, Tempo, 447761
1, 34080, Tempo, 431655
1, 34120, Tempo, 430108
1, 34160, Tempo, 431655
1, 34200, Tempo, 433213
1, 34240, Tempo, 434783
1, 34280, Tempo, 436364
1, 34320, Tempo, 437956
1, 34360, Tempo, 439560
1, 34400, Tempo, 441176
1, 34440, Tempo, 442804
1, 34480, Tempo, 444444
1, 34520, Tempo, 446097
1, 34560, Tempo, 456274
1, 34800, Tempo, 436364
1, 35520, Tempo, 419580
1, 36000, Tempo, 452830
1, 36240, Tempo, 436364
1, 36960, Tempo, 421053
1, 37200, Tempo, 418118
1, 37440, Tempo, 408163
1, 37680, Tempo, 430108
1, 38400, Tempo, 424028
1, 38640, Tempo, 449438
1, 38880, Tempo, 424028
1, 39120, Tempo, 437956
1, 40080, Tempo, 427046
1, 40320, Tempo, 413793
1, 40560, Tempo, 436364
1, 41280, Tempo, 419580
1, 41520, Tempo, 430108
1, 41760, Tempo, 436364
1, 42000, Tempo, 444444
1, 42200, Tempo, 433213
1, 42220, Tempo, 431655
1, 42240, Tempo, 430108
1, 42260, Tempo, 428571
1, 42280, Tempo, 425532
1, 42300, Tempo, 424028
1, 42320, Tempo, 422535
1, 42340, Tempo, 419580
1, 42360, Tempo, 418118
1, 42380, Tempo, 416667
1, 42400, Tempo, 413793
1, 42420, Tempo, 412371
1, 42440, Tempo, 410959
1, 42460, Tempo, 408163
1, 42500, Tempo, 409556
1, 42540, Tempo, 410959
1, 42580, Tempo, 412371
1, 42620, Tempo, 413793
1, 42660, Tempo, 415225
1, 42720, Tempo, 421053
1, 42960, Tempo, 431655
1, 43200, Tempo, 410959
1, 43440, Tempo, 430108
1, 44160, Tempo, 424028
1, 44400, Tempo, 449438
1, 44640, Tempo, 427046
1, 44880, Tempo, 437956
1, 45120, Tempo, 470588
1, 45360, Tempo, 483871
1, 45560, Tempo, 452830
1, 45565, Tempo, 471698
1, 45587, Tempo, 474684
1, 45609, Tempo, 477707
1, 45631, Tempo, 480769
1, 45653, Tempo, 483871
1, 45674, Tempo, 487013
1, 45696, Tempo, 490196
1, 45718, Tempo, 493421
1, 45740, Tempo, 496689
1, 45762, Tempo, 500000
1, 45783, Tempo, 503356
1, 45805, Tempo, 506757
1, 45827, Tempo, 510204
1, 45849, Tempo, 513699
1, 45871, Tempo, 517241
1, 45893, Tempo, 520833
1, 45914, Tempo, 524476
1, 45936, Tempo, 528169
1, 45960, Tempo, 585938
1, 46080, Tempo, 425532
1, 46560, Tempo, 405405
1, 47280, Tempo, 413793
1, 47560, Tempo, 400000
1, 48720, Tempo, 419580
1, 48960, Tempo, 406780
1, 49320, Tempo, 459770
1, 49440, Tempo, 421053
1, 49480, Tempo, 419580
1, 49520, Tempo, 416667
1, 49560, Tempo, 413793
1, 49600, Tempo, 410959
1, 49920, Tempo, 412371
1, 49960, Tempo, 413793
1, 50040, Tempo, 415225
1, 50120, Tempo, 416667
1, 50160, Tempo, 441176
1, 50400, Tempo, 543478
1, 50760, Tempo, 337838
1, 50880, Tempo, 421053
1, 51360, Tempo, 419580
1, 51720, Tempo, 413793
1, 51840, Tempo, 524476
1, 52200, Tempo, 353774
1, 52360, Tempo, 424028
1, 52800, Tempo, 421053
1, 53200, Tempo, 413793
1, 53280, Tempo, 503356
1, 53640, Tempo, 355450
1, 53760, Tempo, 422535
1, 54240, Tempo, 419580
1, 54480, Tempo, 428571
1, 54720, Tempo, 416667
1, 54760, Tempo, 418118
1, 55000, Tempo, 416667
1, 55240, Tempo, 415225
1, 55480, Tempo, 413793
1, 55720, Tempo, 412371
1, 55920, Tempo, 451128
1, 56160, Tempo, 439560
1, 56400, Tempo, 419580
1, 57120, Tempo, 431655
1, 57600, Tempo, 543478
1, 57960, Tempo, 352113
1, 58120, Tempo, 424028
1, 58560, Tempo, 421053
1, 58960, Tempo, 413793
1, 59040, Tempo, 531915
1, 59400, Tempo, 356083
1, 59520, Tempo, 422535
1, 60000, Tempo, 419580
1, 60480, Tempo, 416667
1, 60520, Tempo, 418118
1, 60760, Tempo, 416667
1, 61000, Tempo, 415225
1, 61240, Tempo, 413793
1, 61480, Tempo, 412371
1, 61680, Tempo, 425532
1, 61920, Tempo, 419580
1, 62880, Tempo, 431655
1, 62920, Tempo, 430108
1, 62960, Tempo, 431655
1, 63000, Tempo, 433213
1, 63040, Tempo, 434783
1, 63080, Tempo, 436364
1, 63120, Tempo, 437956
1, 63160, Tempo, 439560
1, 63200, Tempo, 441176
1, 63240, Tempo, 442804
1, 63280, Tempo, 444444
1, 63320, Tempo, 446097
1, 63360, Tempo, 456274
1, 63600, Tempo, 436364
1, 64320, Tempo, 419580
1, 64800, Tempo, 452830
1, 65040, Tempo, 436364
1, 65760, Tempo, 421053
1, 66000, Tempo, 418118
1, 66240, Tempo, 409556
1, 66480, Tempo, 430108
1, 67200, Tempo, 424028
1, 67440, Tempo, 449438
1, 67680, Tempo, 424028
1, 67920, Tempo, 437956
1, 68880, Tempo, 427046
1, 69120, Tempo, 424028
1, 69160, Tempo, 413793
1, 69360, Tempo, 436364
1, 70080, Tempo, 419580
1, 70320, Tempo, 430108
1, 70560, Tempo, 436364
1, 70800, Tempo, 436364
1, 71040, Tempo, 436364
1, 71060, Tempo, 434783
1, 71080, Tempo, 433213
1, 71100, Tempo, 430108
1, 71120, Tempo, 428571
1, 71140, Tempo, 425532
1, 71160, Tempo, 424028
1, 71180, Tempo, 421053
1, 71200, Tempo, 419580
1, 71220, Tempo, 416667
1, 71240, Tempo, 415225
1, 71260, Tempo, 412371
1, 71320, Tempo, 409556
1, 71360, Tempo, 410959
1, 71380, Tempo, 412371
1, 71400, Tempo, 413793
1, 71420, Tempo, 415225
1, 71440, Tempo, 416667
1, 71460, Tempo, 418118
1, 71480, Tempo, 419580
1, 71520, Tempo, 421053
1, 71760, Tempo, 431655
1, 72000, Tempo, 412371
1, 72240, Tempo, 430108
1, 72960, Tempo, 424028
1, 73200, Tempo, 449438
1, 73440, Tempo, 427046
1, 73680, Tempo, 437956
1, 73920, Tempo, 465116
1, 74160, Tempo, 497925
1, 74400, Tempo, 485830
1, 74431, Tempo, 480769
1, 74453, Tempo, 483871
1, 74474, Tempo, 487013
1, 74496, Tempo, 490196
1, 74518, Tempo, 493421
1, 74540, Tempo, 500000
1, 74562, Tempo, 503356
1, 74583, Tempo, 506757
1, 74605, Tempo, 510204
1, 74627, Tempo, 517241
1, 74649, Tempo, 520833
1, 74671, Tempo, 524476
1, 74693, Tempo, 528169
1, 74714, Tempo, 535714
1, 74736, Tempo, 539568
1, 74758, Tempo, 543478
1, 74760, Tempo, 625000
1, 74880, Tempo, 425532
1, 75360, Tempo, 405405
1, 76080, Tempo, 413793
1, 76360, Tempo, 400000
1, 77520, Tempo, 419580
1, 77760, Tempo, 406780
1, 78120, Tempo, 459770
1, 78240, Tempo, 421053
1, 78280, Tempo, 419580
1, 78320, Tempo, 416667
1, 78360, Tempo, 413793
1, 78400, Tempo, 410959
1, 78720, Tempo, 412371
1, 78760, Tempo, 413793
1, 78840, Tempo, 415225
1, 78920, Tempo, 416667
1, 78960, Tempo, 487013
1, 79200, Tempo, 513699
1, 79560, Tempo, 371517
1, 79680, Tempo, 421053
1, 80160, Tempo, 419580
1, 80520, Tempo, 413793
1, 80640, Tempo, 496689
1, 81000, Tempo, 357143
1, 81160, Tempo, 424028
1, 81600, Tempo, 421053
1, 82000, Tempo, 413793
1, 82080, Tempo, 520833
1, 82440, Tempo, 362538
1, 82560, Tempo, 422535
1, 83040, Tempo, 419580
1, 83280, Tempo, 428571
1, 83520, Tempo, 416667
1, 83560, Tempo, 418118
1, 83800, Tempo, 416667
1, 84040, Tempo, 415225
1, 84280, Tempo, 413793
1, 84520, Tempo, 412371
1, 84720, Tempo, 524017
1, 84960, Tempo, 439560
1, 85200, Tempo, 419580
1, 85920, Tempo, 431655
1, 86160, Tempo, 496689
1, 86400, Tempo, 524476
1, 86760, Tempo, 353982
1, 86920, Tempo, 424028
1, 87360, Tempo, 421053
1, 87760, Tempo, 413793
1, 87840, Tempo, 503356
1, 88200, Tempo, 355450
1, 88320, Tempo, 422535
1, 88800, Tempo, 419580
1, 89280, Tempo, 416667
1, 89320, Tempo, 418118
1, 89560, Tempo, 416667
1, 89800, Tempo, 415225
1, 90040, Tempo, 413793
1, 90280, Tempo, 412371
1, 90480, Tempo, 442804
1, 90720, Tempo, 430108
1, 91180, Tempo, 442804
1, 92160, Tempo, 444444
1, 93600, Tempo, 451128
1, 94080, Tempo, 441176
1, 94560, Tempo, 451128
1, 94800, Tempo, 476190
1, 95040, Tempo, 451128
1, 95520, Tempo, 444444
1, 96000, Tempo, 452830
1, 96480, Tempo, 465116
1, 97920, Tempo, 444444
1, 99360, Tempo, 451128
1, 99840, Tempo, 451128
1, 99880, Tempo, 449438
1, 99920, Tempo, 447761
1, 99960, Tempo, 444444
1, 100000, Tempo, 442804
1, 100040, Tempo, 439560
1, 100120, Tempo, 437956
1, 100160, Tempo, 439560
1, 100200, Tempo, 442804
1, 100240, Tempo, 444444
1, 100280, Tempo, 447761
1, 100320, Tempo, 451128
1, 100560, Tempo, 476190
1, 100800, Tempo, 451128
1, 101280, Tempo, 444444
1, 101760, Tempo, 452830
1, 102240, Tempo, 465116
1, 103680, Tempo, 425532
1, 104160, Tempo, 405405
1, 104880, Tempo, 413793
1, 105160, Tempo, 400000
1, 106320, Tempo, 419580
1, 106560, Tempo, 406780
1, 106920, Tempo, 459770
1, 107040, Tempo, 421053
1, 107080, Tempo, 419580
1, 107120, Tempo, 416667
1, 107160, Tempo, 413793
1, 107200, Tempo, 410959
1, 107520, Tempo, 412371
1, 107560, Tempo, 413793
1, 107640, Tempo, 415225
1, 107720, Tempo, 416667
1, 107760, Tempo, 468750
1, 108000, Tempo, 551471
1, 108360, Tempo, 334821
1, 108480, Tempo, 421053
1, 108960, Tempo, 419580
1, 109200, Tempo, 444444
1, 109440, Tempo, 531915
1, 109800, Tempo, 352113
1, 109960, Tempo, 424028
1, 110400, Tempo, 421053
1, 110800, Tempo, 413793
1, 110880, Tempo, 506757
1, 111240, Tempo, 345622
1, 111360, Tempo, 422535
1, 111840, Tempo, 419580
1, 112080, Tempo, 428571
1, 112320, Tempo, 416667
1, 112360, Tempo, 418118
1, 112600, Tempo, 416667
1, 112840, Tempo, 415225
1, 113080, Tempo, 413793
1, 113320, Tempo, 412371
1, 113520, Tempo, 515021
1, 113760, Tempo, 439560
1, 114000, Tempo, 419580
1, 114720, Tempo, 431655
1, 114960, Tempo, 462963
1, 115200, Tempo, 510204
1, 115560, Tempo, 348837
1, 115720, Tempo, 424028
1, 116160, Tempo, 421053
1, 116560, Tempo, 413793
1, 116640, Tempo, 506757
1, 117000, Tempo, 362319
1, 117120, Tempo, 422535
1, 117600, Tempo, 419580
1, 118080, Tempo, 416667
1, 118120, Tempo, 418118
1, 118360, Tempo, 416667
1, 118600, Tempo, 415225
1, 118840, Tempo, 413793
1, 119080, Tempo, 412371
1, 119280, Tempo, 425532
1, 119520, Tempo, 419580
1, 120000, Tempo, 439560
1, 120480, Tempo, 442804
1, 120960, Tempo, 444444
1, 122400, Tempo, 451128
1, 122880, Tempo, 441176
1, 123360, Tempo, 451128
1, 123600, Tempo, 476190
1, 123840, Tempo, 451128
1, 124320, Tempo, 444444
1, 124800, Tempo, 452830
1, 125280, Tempo, 465116
1, 126720, Tempo, 444444
1, 128160, Tempo, 451128
1, 128640, Tempo, 451128
1, 128680, Tempo, 449438
1, 128720, Tempo, 447761
1, 128760, Tempo, 444444
1, 128800, Tempo, 442804
1, 128840, Tempo, 439560
1, 128920, Tempo, 437956
1, 128960, Tempo, 439560
1, 129000, Tempo, 442804
1, 129040, Tempo, 444444
1, 130560, Tempo, 452830
1, 131040, Tempo, 465116
1, 132480, Tempo, 425532
1, 132960, Tempo, 405405
1, 133680, Tempo, 413793
1, 133960, Tempo, 400000
1, 135120, Tempo, 419580
1, 135360, Tempo, 406780
1, 135720, Tempo, 459770
1, 135840, Tempo, 421053
1, 135880, Tempo, 419580
1, 135920, Tempo, 416667
1, 135960, Tempo, 413793
1, 136000, Tempo, 410959
1, 136320, Tempo, 412371
1, 136360, Tempo, 413793
1, 136440, Tempo, 415225
1, 136560, Tempo, 576923
1, 136800, Tempo, 510204
1, 137160, Tempo, 344037
1, 137280, Tempo, 421053
1, 137760, Tempo, 419580
1, 138120, Tempo, 413793
1, 138240, Tempo, 493421
1, 138600, Tempo, 355450
1, 138760, Tempo, 424028
1, 139200, Tempo, 421053
1, 139600, Tempo, 413793
1, 139680, Tempo, 493421
1, 140040, Tempo, 353774
1, 140160, Tempo, 434783
1, 140640, Tempo, 419580
1, 140880, Tempo, 428571
1, 141120, Tempo, 416667
1, 141160, Tempo, 418118
1, 141400, Tempo, 416667
1, 141640, Tempo, 415225
1, 141880, Tempo, 413793
1, 142120, Tempo, 412371
1, 142320, Tempo, 550459
1, 142560, Tempo, 451128
1, 142800, Tempo, 419580
1, 143520, Tempo, 431655
1, 143760, Tempo, 480769
1, 144000, Tempo, 531915
1, 144360, Tempo, 358852
1, 144520, Tempo, 424028
1, 144960, Tempo, 421053
1, 145360, Tempo, 413793
1, 145440, Tempo, 539568
1, 145800, Tempo, 375000
1, 145920, Tempo, 422535
1, 146400, Tempo, 458015
1, 146880, Tempo, 425532
1, 147080, Tempo, 424028
1, 147280, Tempo, 422535
1, 147480, Tempo, 421053
1, 147680, Tempo, 419580
1, 147840, Tempo, 415225
1, 148080, Tempo, 444444
1, 148320, Tempo, 470588
1, 148560, Tempo, 502092
1, 151200, Tempo, 600000
1, 151200, End_track
2, 0, Start_track
2, 0, Title_t, "Piano right"
2, 0, Program_c, 0, 0
2, 0, Control_c, 0, 7, 100
2, 0, Control_c, 0, 10, 64
2, 0, Control_c, 0, 91, 127
2, 0, Text_t, "bdca426d104a26ac9dcb070447587523"
2, 0, Note_on_c, 0, 65, 70
2, 240, Note_on_c, 0, 65, 0
2, 360, Note_on_c, 0, 65, 66
2, 480, Note_on_c, 0, 65, 0
2, 480, Note_on_c, 0, 67, 70
2, 960, Note_on_c, 0, 67, 0
2, 960, Note_on_c, 0, 69, 70
2, 1440, Note_on_c, 0, 69, 0
2, 1440, Note_on_c, 0, 70, 71
2, 1680, Note_on_c, 0, 70, 0
2, 1800, Note_on_c, 0, 72, 66
2, 1920, Note_on_c, 0, 72, 0
2, 1920, Note_on_c, 0, 74, 70
2, 2400, Note_on_c, 0, 74, 0
2, 2400, Note_on_c, 0, 75, 75
2, 2640, Note_on_c, 0, 75, 0
2, 2640, Note_on_c, 0, 77, 79
2, 2880, Note_on_c, 0, 77, 0
2, 2880, Note_on_c, 0, 79, 83
2, 3000, Note_on_c, 0, 79, 0
2, 3240, Note_on_c, 0, 81, 75
2, 3360, Note_on_c, 0, 81, 0
2, 3360, Note_on_c, 0, 82, 76
2, 3420, Note_on_c, 0, 82, 0
2, 3420, Note_on_c, 0, 84, 67
2, 3480, Note_on_c, 0, 84, 0
2, 3480, Note_on_c, 0, 82, 73
2, 3540, Note_on_c, 0, 82, 0
2, 3540, Note_on_c, 0, 84, 66
2, 3600, Note_on_c, 0, 84, 0
2, 3600, Note_on_c, 0, 82, 70
2, 3660, Note_on_c, 0, 82, 0
2, 3660, Note_on_c, 0, 84, 64
2, 3720, Note_on_c, 0, 84, 0
2, 3720, Note_on_c, 0, 82, 70
2, 3780, Note_on_c, 0, 82, 0
2, 3780, Note_on_c, 0, 84, 64
2, 3840, Note_on_c, 0, 84, 0
2, 3840, Note_on_c, 0, 81, 70
2, 4080, Note_on_c, 0, 81, 0
2, 4080, Note_on_c, 0, 79, 56
2, 4260, Note_on_c, 0, 79, 0
2, 4260, Note_on_c, 0, 77, 46
2, 4320, Note_on_c, 0, 77, 0
2, 4320, Note_on_c, 0, 82, 53
2, 4440, Note_on_c, 0, 82, 0
2, 4680, Note_on_c, 0, 82, 49
2, 4800, Note_on_c, 0, 82, 0
2, 4800, Note_on_c, 0, 74, 44
2, 5700, Note_on_c, 0, 74, 0
2, 5700, Note_on_c, 0, 75, 45
2, 5760, Note_on_c, 0, 75, 0
2, 5760, Note_on_c, 0, 79, 51
2, 5880, Note_on_c, 0, 79, 0
2, 6120, Note_on_c, 0, 79, 46
2, 6240, Note_on_c, 0, 79, 0
2, 6240, Note_on_c, 0, 69, 44
2, 7140, Note_on_c, 0, 69, 0
2, 7140, Note_on_c, 0, 70, 45
2, 7200, Note_on_c, 0, 70, 0
2, 7200, Note_on_c, 0, 74, 49
2, 7320, Note_on_c, 0, 74, 0
2, 7560, Note_on_c, 0, 74, 47
2, 7680, Note_on_c, 0, 74, 0
2, 7680, Note_on_c, 0, 64, 44
2, 8640, Note_on_c, 0, 64, 0
2, 8640, Note_on_c, 0, 65, 55
2, 8760, Note_on_c, 0, 65, 0
2, 9000, Note_on_c, 0, 69, 58
2, 9120, Note_on_c, 0, 69, 0
2, 9120, Note_on_c, 0, 72, 59
2, 9360, Note_on_c, 0, 72, 0
2, 9360, Note_on_c, 0, 75, 60
2, 9600, Note_on_c, 0, 75, 0
2, 9600, Note_on_c, 0, 79, 67
2, 9960, Note_on_c, 0, 79, 0
2, 9960, Note_on_c, 0, 77, 63
2, 10018, Note_on_c, 0, 77, 0
2, 10020, Note_on_c, 0, 77, 55
2, 10080, Note_on_c, 0, 77, 0
2, 10080, Note_on_c, 0, 86, 75
2, 10200, Note_on_c, 0, 86, 0
2, 10440, Note_on_c, 0, 84, 64
2, 10560, Note_on_c, 0, 84, 0
2, 10560, Note_on_c, 0, 82, 55
2, 10620, Note_on_c, 0, 82, 0
2, 10620, Note_on_c, 0, 84, 54
2, 10680, Note_on_c, 0, 84, 0
2, 10680, Note_on_c, 0, 82, 60
2, 10800, Note_on_c, 0, 82, 0
2, 10800, Note_on_c, 0, 79, 58
2, 11040, Note_on_c, 0, 79, 0
2, 11040, Note_on_c, 0, 77, 55
2, 11460, Note_on_c, 0, 79, 45
2, 11520, Note_on_c, 0, 79, 0
2, 11520, Note_on_c, 0, 77, 0
2, 11520, Note_on_c, 0, 82, 51
2, 11640, Note_on_c, 0, 82, 0
2, 11880, Note_on_c, 0, 82, 46
2, 12000, Note_on_c, 0, 82, 0
2, 12000, Note_on_c, 0, 69, 44
2, 12840, Note_on_c, 0, 69, 0
2, 12840, Note_on_c, 0, 70, 42
2, 12900, Note_on_c, 0, 70, 0
2, 12900, Note_on_c, 0, 74, 41
2, 12960, Note_on_c, 0, 74, 0
2, 12960, Note_on_c, 0, 77, 49
2, 13080, Note_on_c, 0, 77, 0
2, 13320, Note_on_c, 0, 77, 47
2, 13440, Note_on_c, 0, 77, 0
2, 13440, Note_on_c, 0, 64, 44
2, 14400, Note_on_c, 0, 64, 0
2, 14400, Note_on_c, 0, 65, 55
2, 14520, Note_on_c, 0, 65, 0
2, 14760, Note_on_c, 0, 69, 58
2, 14880, Note_on_c, 0, 69, 0
2, 14880, Note_on_c, 0, 72, 59
2, 15120, Note_on_c, 0, 72, 0
2, 15120, Note_on_c, 0, 75, 60
2, 15360, Note_on_c, 0, 75, 0
2, 15360, Note_on_c, 0, 74, 56
2, 15420, Note_on_c, 0, 74, 0
2, 15420, Note_on_c, 0, 75, 56
2, 15480, Note_on_c, 0, 75, 0
2, 15480, Note_on_c, 0, 74, 61
2, 15600, Note_on_c, 0, 74, 0
2, 15600, Note_on_c, 0, 72, 56
2, 15840, Note_on_c, 0, 72, 0
2, 15840, Note_on_c, 0, 74, 64
2, 15960, Note_on_c, 0, 74, 0
2, 16200, Note_on_c, 0, 65, 57
2, 16320, Note_on_c, 0, 65, 0
2, 16320, Note_on_c, 0, 70, 59
2, 16800, Note_on_c, 0, 70, 0
2, 16800, Note_on_c, 0, 69, 64
2, 17040, Note_on_c, 0, 69, 0
2, 17040, Note_on_c, 0, 67, 61
2, 17280, Note_on_c, 0, 67, 0
2, 17280, Control_c, 0, 91, 127
2, 17280, Text_t, "bdca426d104a26ac9dcb070447587523"
2, 17280, Note_on_c, 0, 65, 70
2, 17520, Note_on_c, 0, 65, 0
2, 17640, Note_on_c, 0, 65, 66
2, 17760, Note_on_c, 0, 65, 0
2, 17760, Note_on_c, 0, 67, 70
2, 18240, Note_on_c, 0, 67, 0
2, 18240, Note_on_c, 0, 69, 70
2, 18720, Note_on_c, 0, 69, 0
2, 18720, Note_on_c, 0, 70, 71
2, 18960, Note_on_c, 0, 70, 0
2, 19080, Note_on_c, 0, 72, 66
2, 19200, Note_on_c, 0, 72, 0
2, 19200, Note_on_c, 0, 74, 70
2, 19680, Note_on_c, 0, 74, 0
2, 19680, Note_on_c, 0, 75, 75
2, 19920, Note_on_c, 0, 75, 0
2, 19920, Note_on_c, 0, 77, 79
2, 20160, Note_on_c, 0, 77, 0
2, 20160, Note_on_c, 0, 79, 83
2, 20280, Note_on_c, 0, 79, 0
2, 20520, Note_on_c, 0, 81, 75
2, 20640, Note_on_c, 0, 81, 0
2, 20640, Note_on_c, 0, 82, 76
2, 20700, Note_on_c, 0, 82, 0
2, 20700, Note_on_c, 0, 84, 67
2, 20760, Note_on_c, 0, 84, 0
2, 20760, Note_on_c, 0, 82, 73
2, 20820, Note_on_c, 0, 82, 0
2, 20820, Note_on_c, 0, 84, 66
2, 20880, Note_on_c, 0, 84, 0
2, 20880, Note_on_c, 0, 82, 70
2, 20940, Note_on_c, 0, 82, 0
2, 20940, Note_on_c, 0, 84, 64
2, 21000, Note_on_c, 0, 84, 0
2, 21000, Note_on_c, 0, 82, 70
2, 21060, Note_on_c, 0, 82, 0
2, 21060, Note_on_c, 0, 84, 64
2, 21120, Note_on_c, 0, 84, 0
2, 21120, Note_on_c, 0, 81, 70
2, 21360, Note_on_c, 0, 81, 0
2, 21360, Note_on_c, 0, 79, 56
2, 21540, Note_on_c, 0, 79, 0
2, 21540, Note_on_c, 0, 77, 46
2, 21600, Note_on_c, 0, 77, 0
2, 21600, Note_on_c, 0, 82, 53
2, 21720, Note_on_c, 0, 82, 0
2, 21960, Note_on_c, 0, 82, 49
2, 22080, Note_on_c, 0, 82, 0
2, 22080, Note_on_c, 0, 74, 44
2, 22980, Note_on_c, 0, 74, 0
2, 22980, Note_on_c, 0, 75, 45
2, 23040, Note_on_c, 0, 75, 0
2, 23040, Note_on_c, 0, 79, 51
2, 23160, Note_on_c, 0, 79, 0
2, 23400, Note_on_c, 0, 79, 46
2, 23520, Note_on_c, 0, 79, 0
2, 23520, Note_on_c, 0, 69, 44
2, 24420, Note_on_c, 0, 69, 0
2, 24420, Note_on_c, 0, 70, 45
2, 24480, Note_on_c, 0, 70, 0
2, 24480, Note_on_c, 0, 74, 49
2, 24600, Note_on_c, 0, 74, 0
2, 24840, Note_on_c, 0, 74, 47
2, 24960, Note_on_c, 0, 74, 0
2, 24960, Note_on_c, 0, 64, 44
2, 25920, Note_on_c, 0, 64, 0
2, 25920, Note_on_c, 0, 65, 55
2, 26040, Note_on_c, 0, 65, 0
2, 26280, Note_on_c, 0, 69, 58
2, 26400, Note_on_c, 0, 69, 0
2, 26400, Note_on_c, 0, 72, 59
2, 26640, Note_on_c, 0, 72, 0
2, 26640, Note_on_c, 0, 75, 60
2, 26880, Note_on_c, 0, 75, 0
2, 26880, Note_on_c, 0, 79, 67
2, 27240, Note_on_c, 0, 79, 0
2, 27240, Note_on_c, 0, 77, 63
2, 27297, Note_on_c, 0, 77, 0
2, 27300, Note_on_c, 0, 77, 49
2, 27360, Note_on_c, 0, 77, 0
2, 27360, Note_on_c, 0, 86, 67
2, 27480, Note_on_c, 0, 86, 0
2, 27720, Note_on_c, 0, 84, 61
2, 27840, Note_on_c, 0, 84, 0
2, 27840, Note_on_c, 0, 82, 50
2, 27900, Note_on_c, 0, 82, 0
2, 27900, Note_on_c, 0, 84, 49
2, 27960, Note_on_c, 0, 84, 0
2, 27960, Note_on_c, 0, 82, 57
2, 28080, Note_on_c, 0, 82, 0
2, 28080, Note_on_c, 0, 79, 52
2, 28320, Note_on_c, 0, 79, 0
2, 28320, Note_on_c, 0, 77, 49
2, 28740, Note_on_c, 0, 79, 45
2, 28800, Note_on_c, 0, 79, 0
2, 28800, Note_on_c, 0, 77, 0
2, 28800, Note_on_c, 0, 82, 51
2, 28920, Note_on_c, 0, 82, 0
2, 29160, Note_on_c, 0, 82, 46
2, 29280, Note_on_c, 0, 82, 0
2, 29280, Note_on_c, 0, 69, 44
2, 30120, Note_on_c, 0, 69, 0
2, 30120, Note_on_c, 0, 70, 42
2, 30180, Note_on_c, 0, 70, 0
2, 30180, Note_on_c, 0, 74, 41
2, 30240, Note_on_c, 0, 74, 0
2, 30240, Note_on_c, 0, 77, 49
2, 30360, Note_on_c, 0, 77, 0
2, 30600, Note_on_c, 0, 77, 47
2, 30720, Note_on_c, 0, 77, 0
2, 30720, Note_on_c, 0, 64, 44
2, 31680, Note_on_c, 0, 64, 0
2, 31680, Note_on_c, 0, 65, 55
2, 31800, Note_on_c, 0, 65, 0
2, 32040, Note_on_c, 0, 69, 58
2, 32160, Note_on_c, 0, 69, 0
2, 32160, Note_on_c, 0, 72, 59
2, 32400, Note_on_c, 0, 72, 0
2, 32400, Note_on_c, 0, 75, 60
2, 32640, Note_on_c, 0, 75, 0
2, 32640, Note_on_c, 0, 74, 56
2, 32700, Note_on_c, 0, 74, 0
2, 32700, Note_on_c, 0, 75, 56
2, 32760, Note_on_c, 0, 75, 0
2, 32760, Note_on_c, 0, 74, 61
2, 32880, Note_on_c, 0, 74, 0
2, 32880, Note_on_c, 0, 72, 56
2, 33120, Note_on_c, 0, 72, 0
2, 33120, Note_on_c, 0, 74, 64
2, 33240, Note_on_c, 0, 74, 0
2, 33480, Note_on_c, 0, 65, 57
2, 33600, Note_on_c, 0, 65, 0
2, 33600, Note_on_c, 0, 70, 59
2, 34080, Note_on_c, 0, 70, 0
2, 34080, Note_on_c, 0, 69, 44
2, 34320, Note_on_c, 0, 69, 0
2, 34320, Note_on_c, 0, 70, 44
2, 34560, Note_on_c, 0, 70, 0
2, 34560, Note_on_c, 0, 72, 46
2, 34920, Note_on_c, 0, 72, 0
2, 34920, Note_on_c, 0, 74, 42
2, 35040, Note_on_c, 0, 74, 0
2, 35040, Note_on_c, 0, 72, 46
2, 35520, Note_on_c, 0, 72, 0
2, 35520, Note_on_c, 0, 76, 49
2, 35760, Note_on_c, 0, 76, 0
2, 35760, Note_on_c, 0, 77, 51
2, 36000, Note_on_c, 0, 77, 0
2, 36000, Note_on_c, 0, 79, 55
2, 36360, Note_on_c, 0, 79, 0
2, 36360, Note_on_c, 0, 81, 52
2, 36480, Note_on_c, 0, 81, 0
2, 36480, Note_on_c, 0, 79, 56
2, 36960, Note_on_c, 0, 79, 0
2, 36960, Note_on_c, 0, 77, 52
2, 37200, Note_on_c, 0, 77, 0
2, 37200, Note_on_c, 0, 74, 49
2, 37440, Note_on_c, 0, 74, 0
2, 37440, Note_on_c, 0, 72, 56
2, 37680, Note_on_c, 0, 72, 0
2, 37680, Note_on_c, 0, 74, 51
2, 37920, Note_on_c, 0, 74, 0
2, 37920, Note_on_c, 0, 72, 56
2, 38400, Note_on_c, 0, 72, 0
2, 38400, Note_on_c, 0, 76, 50
2, 38640, Note_on_c, 0, 76, 0
2, 38760, Note_on_c, 0, 77, 55
2, 38880, Note_on_c, 0, 77, 0
2, 38880, Note_on_c, 0, 79, 59
2, 39040, Note_on_c, 0, 79, 0
2, 39040, Note_on_c, 0, 81, 56
2, 39200, Note_on_c, 0, 81, 0
2, 39200, Note_on_c, 0, 79, 56
2, 39360, Note_on_c, 0, 79, 0
2, 39360, Note_on_c, 0, 77, 53
2, 40080, Note_on_c, 0, 77, 0
2, 40080, Note_on_c, 0, 74, 50
2, 40320, Note_on_c, 0, 74, 0
2, 40320, Note_on_c, 0, 72, 51
2, 40560, Note_on_c, 0, 72, 0
2, 40560, Note_on_c, 0, 74, 49
2, 40800, Note_on_c, 0, 74, 0
2, 40800, Note_on_c, 0, 72, 51
2, 41280, Note_on_c, 0, 72, 0
2, 41280, Note_on_c, 0, 76, 49
2, 41520, Note_on_c, 0, 76, 0
2, 41520, Note_on_c, 0, 77, 51
2, 41760, Note_on_c, 0, 77, 0
2, 41760, Note_on_c, 0, 79, 55
2, 42000, Note_on_c, 0, 79, 0
2, 42000, Note_on_c, 0, 81, 52
2, 42240, Note_on_c, 0, 81, 0
2, 42240, Note_on_c, 0, 79, 50
2, 42300, Note_on_c, 0, 79, 0
2, 42300, Note_on_c, 0, 81, 47
2, 42360, Note_on_c, 0, 81, 0
2, 42360, Note_on_c, 0, 79, 52
2, 42420, Note_on_c, 0, 79, 0
2, 42420, Note_on_c, 0, 81, 49
2, 42480, Note_on_c, 0, 81, 0
2, 42480, Note_on_c, 0, 79, 56
2, 42540, Note_on_c, 0, 79, 0
2, 42540, Note_on_c, 0, 81, 49
2, 42600, Note_on_c, 0, 81, 0
2, 42600, Note_on_c, 0, 79, 51
2, 42660, Note_on_c, 0, 79, 0
2, 42660, Note_on_c, 0, 81, 49
2, 42720, Note_on_c, 0, 81, 0
2, 42720, Note_on_c, 0, 77, 52
2, 42960, Note_on_c, 0, 77, 0
2, 42960, Note_on_c, 0, 74, 49
2, 43200, Note_on_c, 0, 74, 0
2, 43200, Note_on_c, 0, 72, 56
2, 43440, Note_on_c, 0, 72, 0
2, 43440, Note_on_c, 0, 74, 51
2, 43680, Note_on_c, 0, 74, 0
2, 43680, Note_on_c, 0, 72, 56
2, 44160, Note_on_c, 0, 72, 0
2, 44160, Note_on_c, 0, 76, 55
2, 44400, Note_on_c, 0, 76, 0
2, 44400, Note_on_c, 0, 77, 59
2, 44640, Note_on_c, 0, 77, 0
2, 44640, Note_on_c, 0, 79, 64
2, 44800, Note_on_c, 0, 79, 0
2, 44800, Note_on_c, 0, 81, 61
2, 44960, Note_on_c, 0, 81, 0
2, 44960, Note_on_c, 0, 79, 61
2, 45120, Note_on_c, 0, 79, 0
2, 45120, Note_on_c, 0, 77, 66
2, 45480, Note_on_c, 0, 77, 0
2, 45480, Note_on_c, 0, 67, 62
2, 45600, Note_on_c, 0, 67, 0
2, 45600, Note_on_c, 0, 77, 68
2, 45760, Note_on_c, 0, 77, 0
2, 45760, Note_on_c, 0, 66, 62
2, 45920, Note_on_c, 0, 66, 0
2, 45920, Note_on_c, 0, 77, 69
2, 46017, Note_on_c, 0, 77, 0
2, 46020, Note_on_c, 0, 77, 66
2, 46080, Note_on_c, 0, 77, 0
2, 46080, Control_c, 0, 91, 127
2, 46080, Text_t, "bdca426d104a26ac9dcb070447587523"
2, 46080, Note_on_c, 0, 65, 70
2, 46320, Note_on_c, 0, 65, 0
2, 46440, Note_on_c, 0, 65, 66
2, 46560, Note_on_c, 0, 65, 0
2, 46560, Note_on_c, 0, 67, 70
2, 47040, Note_on_c, 0, 67, 0
2, 47040, Note_on_c, 0, 69, 70
2, 47520, Note_on_c, 0, 69, 0
2, 47520, Note_on_c, 0, 70, 71
2, 47760, Note_on_c, 0, 70, 0
2, 47880, Note_on_c, 0, 72, 66
2, 48000, Note_on_c, 0, 72, 0
2, 48000, Note_on_c, 0, 74, 70
2, 48480, Note_on_c, 0, 74, 0
2, 48480, Note_on_c, 0, 75, 75
2, 48720, Note_on_c, 0, 75, 0
2, 48720, Note_on_c, 0, 77, 79
2, 48960, Note_on_c, 0, 77, 0
2, 48960, Note_on_c, 0, 79, 83
2, 49080, Note_on_c, 0, 79, 0
2, 49320, Note_on_c, 0, 81, 75
2, 49440, Note_on_c, 0, 81, 0
2, 49440, Note_on_c, 0, 82, 76
2, 49500, Note_on_c, 0, 82, 0
2, 49500, Note_on_c, 0, 84, 67
2, 49560, Note_on_c, 0, 84, 0
2, 49560, Note_on_c, 0, 82, 73
2, 49620, Note_on_c, 0, 82, 0
2, 49620, Note_on_c, 0, 84, 66
2, 49680, Note_on_c, 0, 84, 0
2, 49680, Note_on_c, 0, 82, 70
2, 49740, Note_on_c, 0, 82, 0
2, 49740, Note_on_c, 0, 84, 64
2, 49800, Note_on_c, 0, 84, 0
2, 49800, Note_on_c, 0, 82, 70
2, 49860, Note_on_c, 0, 82, 0
2, 49860, Note_on_c, 0, 84, 64
2, 49920, Note_on_c, 0, 84, 0
2, 49920, Note_on_c, 0, 81, 70
2, 50160, Note_on_c, 0, 81, 0
2, 50160, Note_on_c, 0, 79, 56
2, 50340, Note_on_c, 0, 79, 0
2, 50340, Note_on_c, 0, 77, 51
2, 50400, Note_on_c, 0, 77, 0
2, 50400, Note_on_c, 0, 82, 60
2, 50520, Note_on_c, 0, 82, 0
2, 50760, Note_on_c, 0, 82, 55
2, 50880, Note_on_c, 0, 82, 0
2, 50880, Note_on_c, 0, 74, 49
2, 51780, Note_on_c, 0, 74, 0
2, 51780, Note_on_c, 0, 75, 50
2, 51840, Note_on_c, 0, 75, 0
2, 51840, Note_on_c, 0, 79, 58
2, 51960, Note_on_c, 0, 79, 0
2, 52200, Note_on_c, 0, 79, 51
2, 52320, Note_on_c, 0, 79, 0
2, 52320, Note_on_c, 0, 69, 49
2, 53220, Note_on_c, 0, 69, 0
2, 53220, Note_on_c, 0, 70, 50
2, 53280, Note_on_c, 0, 70, 0
2, 53280, Note_on_c, 0, 74, 56
2, 53400, Note_on_c, 0, 74, 0
2, 53640, Note_on_c, 0, 74, 52
2, 53760, Note_on_c, 0, 74, 0
2, 53760, Note_on_c, 0, 64, 49
2, 54720, Note_on_c, 0, 64, 0
2, 54720, Note_on_c, 0, 65, 55
2, 54840, Note_on_c, 0, 65, 0
2, 55080, Note_on_c, 0, 69, 58
2, 55200, Note_on_c, 0, 69, 0
2, 55200, Note_on_c, 0, 72, 59
2, 55440, Note_on_c, 0, 72, 0
2, 55440, Note_on_c, 0, 75, 60
2, 55680, Note_on_c, 0, 75, 0
2, 55680, Note_on_c, 0, 79, 67
2, 56040, Note_on_c, 0, 79, 0
2, 56040, Note_on_c, 0, 77, 63
2, 56097, Note_on_c, 0, 77, 0
2, 56100, Note_on_c, 0, 77, 55
2, 56160, Note_on_c, 0, 77, 0
2, 56160, Note_on_c, 0, 86, 75
2, 56280, Note_on_c, 0, 86, 0
2, 56520, Note_on_c, 0, 84, 68
2, 56640, Note_on_c, 0, 84, 0
2, 56640, Note_on_c, 0, 82, 56
2, 56700, Note_on_c, 0, 82, 0
2, 56700, Note_on_c, 0, 84, 55
2, 56760, Note_on_c, 0, 84, 0
2, 56760, Note_on_c, 0, 82, 64
2, 56880, Note_on_c, 0, 82, 0
2, 56880, Note_on_c, 0, 79, 58
2, 57120, Note_on_c, 0, 79, 0
2, 57120, Note_on_c, 0, 77, 55
2, 57540, Note_on_c, 0, 79, 45
2, 57600, Note_on_c, 0, 79, 0
2, 57600, Note_on_c, 0, 77, 0
2, 57600, Note_on_c, 0, 82, 51
2, 57720, Note_on_c, 0, 82, 0
2, 57960, Note_on_c, 0, 82, 46
2, 58080, Note_on_c, 0, 82, 0
2, 58080, Note_on_c, 0, 69, 44
2, 58920, Note_on_c, 0, 69, 0
2, 58920, Note_on_c, 0, 70, 42
2, 58980, Note_on_c, 0, 70, 0
2, 58980, Note_on_c, 0, 74, 41
2, 59040, Note_on_c, 0, 74, 0
2, 59040, Note_on_c, 0, 77, 49
2, 59160, Note_on_c, 0, 77, 0
2, 59400, Note_on_c, 0, 77, 47
2, 59520, Note_on_c, 0, 77, 0
2, 59520, Note_on_c, 0, 64, 44
2, 60480, Note_on_c, 0, 64, 0
2, 60480, Note_on_c, 0, 65, 55
2, 60600, Note_on_c, 0, 65, 0
2, 60840, Note_on_c, 0, 69, 58
2, 60960, Note_on_c, 0, 69, 0
2, 60960, Note_on_c, 0, 72, 59
2, 61200, Note_on_c, 0, 72, 0
2, 61200, Note_on_c, 0, 75, 60
2, 61440, Note_on_c, 0, 75, 0
2, 61440, Note_on_c, 0, 74, 56
2, 61500, Note_on_c, 0, 74, 0
2, 61500, Note_on_c, 0, 75, 56
2, 61560, Note_on_c, 0, 75, 0
2, 61560, Note_on_c, 0, 74, 61
2, 61680, Note_on_c, 0, 74, 0
2, 61680, Note_on_c, 0, 72, 56
2, 61920, Note_on_c, 0, 72, 0
2, 61920, Note_on_c, 0, 74, 64
2, 62040, Note_on_c, 0, 74, 0
2, 62280, Note_on_c, 0, 65, 57
2, 62400, Note_on_c, 0, 65, 0
2, 62400, Note_on_c, 0, 70, 59
2, 62880, Note_on_c, 0, 70, 0
2, 62880, Note_on_c, 0, 69, 44
2, 63120, Note_on_c, 0, 69, 0
2, 63120, Note_on_c, 0, 70, 44
2, 63360, Note_on_c, 0, 70, 0
2, 63360, Note_on_c, 0, 72, 46
2, 63720, Note_on_c, 0, 72, 0
2, 63720, Note_on_c, 0, 74, 42
2, 63840, Note_on_c, 0, 74, 0
2, 63840, Note_on_c, 0, 72, 46
2, 64320, Note_on_c, 0, 72, 0
2, 64320, Note_on_c, 0, 76, 49
2, 64560, Note_on_c, 0, 76, 0
2, 64560, Note_on_c, 0, 77, 51
2, 64800, Note_on_c, 0, 77, 0
2, 64800, Note_on_c, 0, 79, 55
2, 65160, Note_on_c, 0, 79, 0
2, 65160, Note_on_c, 0, 81, 52
2, 65280, Note_on_c, 0, 81, 0
2, 65280, Note_on_c, 0, 79, 56
2, 65760, Note_on_c, 0, 79, 0
2, 65760, Note_on_c, 0, 77, 52
2, 66000, Note_on_c, 0, 77, 0
2, 66000, Note_on_c, 0, 74, 49
2, 66240, Note_on_c, 0, 74, 0
2, 66240, Note_on_c, 0, 72, 56
2, 66480, Note_on_c, 0, 72, 0
2, 66480, Note_on_c, 0, 74, 51
2, 66720, Note_on_c, 0, 74, 0
2, 66720, Note_on_c, 0, 72, 56
2, 67200, Note_on_c, 0, 72, 0
2, 67200, Note_on_c, 0, 76, 50
2, 67440, Note_on_c, 0, 76, 0
2, 67560, Note_on_c, 0, 77, 55
2, 67680, Note_on_c, 0, 77, 0
2, 67680, Note_on_c, 0, 79, 59
2, 67840, Note_on_c, 0, 79, 0
2, 67840, Note_on_c, 0, 81, 56
2, 68000, Note_on_c, 0, 81, 0
2, 68000, Note_on_c, 0, 79, 56
2, 68160, Note_on_c, 0, 79, 0
2, 68160, Note_on_c, 0, 77, 53
2, 68880, Note_on_c, 0, 77, 0
2, 68880, Note_on_c, 0, 74, 50
2, 69120, Note_on_c, 0, 74, 0
2, 69120, Note_on_c, 0, 72, 51
2, 69360, Note_on_c, 0, 72, 0
2, 69360, Note_on_c, 0, 74, 49
2, 69600, Note_on_c, 0, 74, 0
2, 69600, Note_on_c, 0, 72, 51
2, 70080, Note_on_c, 0, 72, 0
2, 70080, Note_on_c, 0, 76, 49
2, 70320, Note_on_c, 0, 76, 0
2, 70320, Note_on_c, 0, 77, 51
2, 70560, Note_on_c, 0, 77, 0
2, 70560, Note_on_c, 0, 79, 55
2, 70800, Note_on_c, 0, 79, 0
2, 70800, Note_on_c, 0, 81, 52
2, 71040, Note_on_c, 0, 81, 0
2, 71040, Note_on_c, 0, 79, 50
2, 71100, Note_on_c, 0, 79, 0
2, 71100, Note_on_c, 0, 81, 47
2, 71160, Note_on_c, 0, 81, 0
2, 71160, Note_on_c, 0, 79, 52
2, 71220, Note_on_c, 0, 79, 0
2, 71220, Note_on_c, 0, 81, 49
2, 71280, Note_on_c, 0, 81, 0
2, 71280, Note_on_c, 0, 79, 56
2, 71340, Note_on_c, 0, 79, 0
2, 71340, Note_on_c, 0, 81, 49
2, 71400, Note_on_c, 0, 81, 0
2, 71400, Note_on_c, 0, 79, 51
2, 71460, Note_on_c, 0, 79, 0
2, 71460, Note_on_c, 0, 81, 49
2, 71520, Note_on_c, 0, 81, 0
2, 71520, Note_on_c, 0, 77, 52
2, 71760, Note_on_c, 0, 77, 0
2, 71760, Note_on_c, 0, 74, 49
2, 72000, Note_on_c, 0, 74, 0
2, 72000, Note_on_c, 0, 72, 56
2, 72240, Note_on_c, 0, 72, 0
2, 72240, Note_on_c, 0, 74, 51
2, 72480, Note_on_c, 0, 74, 0
2, 72480, Note_on_c, 0, 72, 56
2, 72960, Note_on_c, 0, 72, 0
2, 72960, Note_on_c, 0, 76, 55
2, 73200, Note_on_c, 0, 76, 0
2, 73200, Note_on_c, 0, 77, 59
2, 73440, Note_on_c, 0, 77, 0
2, 73440, Note_on_c, 0, 79, 64
2, 73600, Note_on_c, 0, 79, 0
2, 73600, Note_on_c, 0, 81, 61
2, 73760, Note_on_c, 0, 81, 0
2, 73760, Note_on_c, 0, 79, 61
2, 73920, Note_on_c, 0, 79, 0
2, 73920, Note_on_c, 0, 77, 66
2, 74280, Note_on_c, 0, 77, 0
2, 74280, Note_on_c, 0, 67, 62
2, 74400, Note_on_c, 0, 67, 0
2, 74400, Note_on_c, 0, 77, 68
2, 74560, Note_on_c, 0, 77, 0
2, 74560, Note_on_c, 0, 66, 62
2, 74720, Note_on_c, 0, 66, 0
2, 74720, Note_on_c, 0, 77, 69
2, 74816, Note_on_c, 0, 77, 0
2, 74820, Note_on_c, 0, 77, 66
2, 74880, Note_on_c, 0, 77, 0
2, 74880, Control_c, 0, 91, 127
2, 74880, Text_t, "bdca426d104a26ac9dcb070447587523"
2, 74880, Note_on_c, 0, 65, 70
2, 75120, Note_on_c, 0, 65, 0
2, 75240, Note_on_c, 0, 65, 66
2, 75360, Note_on_c, 0, 65, 0
2, 75360, Note_on_c, 0, 67, 70
2, 75840, Note_on_c, 0, 67, 0
2, 75840, Note_on_c, 0, 69, 70
2, 76320, Note_on_c, 0, 69, 0
2, 76320, Note_on_c, 0, 70, 71
2, 76560, Note_on_c, 0, 70, 0
2, 76680, Note_on_c, 0, 72, 66
2, 76800, Note_on_c, 0, 72, 0
2, 76800, Note_on_c, 0, 74, 70
2, 77280, Note_on_c, 0, 74, 0
2, 77280, Note_on_c, 0, 75, 75
2, 77520, Note_on_c, 0, 75, 0
2, 77520, Note_on_c, 0, 77, 79
2, 77760, Note_on_c, 0, 77, 0
2, 77760, Note_on_c, 0, 79, 83
2, 77880, Note_on_c, 0, 79, 0
2, 78120, Note_on_c, 0, 81, 75
2, 78240, Note_on_c, 0, 81, 0
2, 78240, Note_on_c, 0, 82, 76
2, 78300, Note_on_c, 0, 82, 0
2, 78300, Note_on_c, 0, 84, 67
2, 78360, Note_on_c, 0, 84, 0
2, 78360, Note_on_c, 0, 82, 73
2, 78420, Note_on_c, 0, 82, 0
2, 78420, Note_on_c, 0, 84, 66
2, 78480, Note_on_c, 0, 84, 0
2, 78480, Note_on_c, 0, 82, 70
2, 78540, Note_on_c, 0, 82, 0
2, 78540, Note_on_c, 0, 84, 64
2, 78600, Note_on_c, 0, 84, 0
2, 78600, Note_on_c, 0, 82, 70
2, 78660, Note_on_c, 0, 82, 0
2, 78660, Note_on_c, 0, 84, 64
2, 78720, Note_on_c, 0, 84, 0
2, 78720, Note_on_c, 0, 81, 70
2, 78960, Note_on_c, 0, 81, 0
2, 78960, Note_on_c, 0, 79, 56
2, 79140, Note_on_c, 0, 79, 0
2, 79140, Note_on_c, 0, 77, 51
2, 79200, Note_on_c, 0, 77, 0
2, 79200, Note_on_c, 0, 82, 60
2, 79320, Note_on_c, 0, 82, 0
2, 79560, Note_on_c, 0, 82, 55
2, 79680, Note_on_c, 0, 82, 0
2, 79680, Note_on_c, 0, 74, 49
2, 80580, Note_on_c, 0, 74, 0
2, 80580, Note_on_c, 0, 75, 50
2, 80640, Note_on_c, 0, 75, 0
2, 80640, Note_on_c, 0, 79, 58
2, 80760, Note_on_c, 0, 79, 0
2, 81000, Note_on_c, 0, 79, 51
2, 81120, Note_on_c, 0, 79, 0
2, 81120, Note_on_c, 0, 69, 49
2, 82020, Note_on_c, 0, 69, 0
2, 82020, Note_on_c, 0, 70, 50
2, 82080, Note_on_c, 0, 70, 0
2, 82080, Note_on_c, 0, 74, 56
2, 82200, Note_on_c, 0, 74, 0
2, 82440, Note_on_c, 0, 74, 52
2, 82560, Note_on_c, 0, 74, 0
2, 82560, Note_on_c, 0, 64, 49
2, 83520, Note_on_c, 0, 64, 0
2, 83520, Note_on_c, 0, 65, 55
2, 83640, Note_on_c, 0, 65, 0
2, 83880, Note_on_c, 0, 69, 58
2, 84000, Note_on_c, 0, 69, 0
2, 84000, Note_on_c, 0, 72, 59
2, 84240, Note_on_c, 0, 72, 0
2, 84240, Note_on_c, 0, 75, 60
2, 84480, Note_on_c, 0, 75, 0
2, 84480, Note_on_c, 0, 79, 67
2, 84840, Note_on_c, 0, 79, 0
2, 84840, Note_on_c, 0, 77, 63
2, 84897, Note_on_c, 0, 77, 0
2, 84900, Note_on_c, 0, 77, 49
2, 84960, Note_on_c, 0, 77, 0
2, 84960, Note_on_c, 0, 86, 67
2, 85080, Note_on_c, 0, 86, 0
2, 85320, Note_on_c, 0, 84, 61
2, 85440, Note_on_c, 0, 84, 0
2, 85440, Note_on_c, 0, 82, 50
2, 85500, Note_on_c, 0, 82, 0
2, 85500, Note_on_c, 0, 84, 49
2, 85560, Note_on_c, 0, 84, 0
2, 85560, Note_on_c, 0, 82, 57
2, 85680, Note_on_c, 0, 82, 0
2, 85680, Note_on_c, 0, 79, 52
2, 85920, Note_on_c, 0, 79, 0
2, 85920, Note_on_c, 0, 77, 49
2, 86340, Note_on_c, 0, 79, 45
2, 86400, Note_on_c, 0, 79, 0
2, 86400, Note_on_c, 0, 77, 0
2, 86400, Note_on_c, 0, 82, 51
2, 86520, Note_on_c, 0, 82, 0
2, 86760, Note_on_c, 0, 82, 46
2, 86880, Note_on_c, 0, 82, 0
2, 86880, Note_on_c, 0, 69, 44
2, 87720, Note_on_c, 0, 69, 0
2, 87720, Note_on_c, 0, 70, 42
2, 87780, Note_on_c, 0, 70, 0
2, 87780, Note_on_c, 0, 74, 41
2, 87840, Note_on_c, 0, 74, 0
2, 87840, Note_on_c, 0, 77, 49
2, 87960, Note_on_c, 0, 77, 0
2, 88200, Note_on_c, 0, 77, 47
2, 88320, Note_on_c, 0, 77, 0
2, 88320, Note_on_c, 0, 64, 44
2, 89280, Note_on_c, 0, 64, 0
2, 89280, Note_on_c, 0, 65, 55
2, 89400, Note_on_c, 0, 65, 0
2, 89640, Note_on_c, 0, 69, 58
2, 89760, Note_on_c, 0, 69, 0
2, 89760, Note_on_c, 0, 72, 59
2, 90000, Note_on_c, 0, 72, 0
2, 90000, Note_on_c, 0, 75, 60
2, 90240, Note_on_c, 0, 75, 0
2, 90240, Note_on_c, 0, 74, 56
2, 90300, Note_on_c, 0, 74, 0
2, 90300, Note_on_c, 0, 75, 56
2, 90360, Note_on_c, 0, 75, 0
2, 90360, Note_on_c, 0, 74, 61
2, 90480, Note_on_c, 0, 74, 0
2, 90480, Note_on_c, 0, 72, 56
2, 90720, Note_on_c, 0, 72, 0
2, 90720, Note_on_c, 0, 74, 64
2, 90840, Note_on_c, 0, 74, 0
2, 91080, Note_on_c, 0, 65, 57
2, 91200, Note_on_c, 0, 65, 0
2, 91200, Note_on_c, 0, 70, 59
2, 91680, Note_on_c, 0, 70, 0
2, 92160, Note_on_c, 0, 77, 46
2, 92280, Note_on_c, 0, 77, 0
2, 92520, Note_on_c, 0, 77, 37
2, 92640, Note_on_c, 0, 77, 0
2, 92640, Note_on_c, 0, 76, 41
2, 93120, Note_on_c, 0, 76, 0
2, 93120, Note_on_c, 0, 73, 37
2, 93360, Note_on_c, 0, 73, 0
2, 93360, Note_on_c, 0, 72, 37
2, 93600, Note_on_c, 0, 72, 0
2, 93600, Note_on_c, 0, 70, 42
2, 93840, Note_on_c, 0, 70, 0
2, 93960, Note_on_c, 0, 73, 37
2, 94080, Note_on_c, 0, 73, 0
2, 94080, Note_on_c, 0, 72, 37
2, 94140, Note_on_c, 0, 72, 0
2, 94140, Note_on_c, 0, 73, 37
2, 94200, Note_on_c, 0, 73, 0
2, 94200, Note_on_c, 0, 72, 40
2, 94560, Note_on_c, 0, 72, 0
2, 94560, Note_on_c, 0, 70, 37
2, 94800, Note_on_c, 0, 70, 0
2, 94920, Note_on_c, 0, 64, 41
2, 95040, Note_on_c, 0, 64, 0
2, 95040, Note_on_c, 0, 77, 46
2, 95160, Note_on_c, 0, 77, 0
2, 95400, Note_on_c, 0, 77, 37
2, 95520, Note_on_c, 0, 77, 0
2, 95520, Note_on_c, 0, 76, 41
2, 96000, Note_on_c, 0, 76, 0
2, 96000, Note_on_c, 0, 73, 37
2, 96240, Note_on_c, 0, 73, 0
2, 96240, Note_on_c, 0, 72, 37
2, 96480, Note_on_c, 0, 72, 0
2, 96480, Note_on_c, 0, 70, 45
2, 96640, Note_on_c, 0, 70, 0
2, 96640, Note_on_c, 0, 72, 40
2, 96800, Note_on_c, 0, 72, 0
2, 96800, Note_on_c, 0, 70, 39
2, 96960, Note_on_c, 0, 70, 0
2, 96960, Note_on_c, 0, 64, 42
2, 97920, Note_on_c, 0, 64, 0
2, 97920, Note_on_c, 0, 77, 46
2, 98040, Note_on_c, 0, 77, 0
2, 98280, Note_on_c, 0, 77, 37
2, 98400, Note_on_c, 0, 77, 0
2, 98400, Note_on_c, 0, 76, 41
2, 98880, Note_on_c, 0, 76, 0
2, 98880, Note_on_c, 0, 73, 37
2, 99120, Note_on_c, 0, 73, 0
2, 99120, Note_on_c, 0, 72, 37
2, 99360, Note_on_c, 0, 72, 0
2, 99360, Note_on_c, 0, 70, 42
2, 99600, Note_on_c, 0, 70, 0
2, 99720, Note_on_c, 0, 73, 37
2, 99840, Note_on_c, 0, 73, 0
2, 99840, Note_on_c, 0, 72, 37
2, 99900, Note_on_c, 0, 72, 0
2, 99900, Note_on_c, 0, 73, 33
2, 99960, Note_on_c, 0, 73, 0
2, 99960, Note_on_c, 0, 72, 37
2, 100020, Note_on_c, 0, 72, 0
2, 100020, Note_on_c, 0, 73, 35
2, 100080, Note_on_c, 0, 73, 0
2, 100080, Note_on_c, 0, 72, 37
2, 100140, Note_on_c, 0, 72, 0
2, 100140, Note_on_c, 0, 73, 34
2, 100200, Note_on_c, 0, 73, 0
2, 100200, Note_on_c, 0, 72, 37
2, 100260, Note_on_c, 0, 72, 0
2, 100260, Note_on_c, 0, 73, 37
2, 100320, Note_on_c, 0, 73, 0
2, 100320, Note_on_c, 0, 70, 37
2, 100560, Note_on_c, 0, 70, 0
2, 100680, Note_on_c, 0, 64, 41
2, 100800, Note_on_c, 0, 64, 0
2, 100800, Note_on_c, 0, 77, 46
2, 100920, Note_on_c, 0, 77, 0
2, 101160, Note_on_c, 0, 77, 37
2, 101280, Note_on_c, 0, 77, 0
2, 101280, Note_on_c, 0, 76, 41
2, 101760, Note_on_c, 0, 76, 0
2, 101760, Note_on_c, 0, 73, 37
2, 102120, Note_on_c, 0, 73, 0
2, 102120, Note_on_c, 0, 72, 37
2, 102240, Note_on_c, 0, 72, 0
2, 102240, Note_on_c, 0, 70, 45
2, 102400, Note_on_c, 0, 70, 0
2, 102400, Note_on_c, 0, 72, 40
2, 102560, Note_on_c, 0, 72, 0
2, 102560, Note_on_c, 0, 70, 39
2, 102720, Note_on_c, 0, 70, 0
2, 102720, Note_on_c, 0, 69, 42
2, 103440, Note_on_c, 0, 69, 0
2, 103440, Note_on_c, 0, 67, 53
2, 103680, Note_on_c, 0, 67, 0
2, 103680, Control_c, 0, 91, 127
2, 103680, Text_t, "bdca426d104a26ac9dcb070447587523"
2, 103680, Note_on_c, 0, 65, 70
2, 103920, Note_on_c, 0, 65, 0
2, 104040, Note_on_c, 0, 65, 66
2, 104160, Note_on_c, 0, 65, 0
2, 104160, Note_on_c, 0, 67, 70
2, 104640, Note_on_c, 0, 67, 0
2, 104640, Note_on_c, 0, 69, 70
2, 105120, Note_on_c, 0, 69, 0
2, 105120, Note_on_c, 0, 70, 71
2, 105360, Note_on_c, 0, 70, 0
2, 105480, Note_on_c, 0, 72, 66
2, 105600, Note_on_c, 0, 72, 0
2, 105600, Note_on_c, 0, 74, 70
2, 106080, Note_on_c, 0, 74, 0
2, 106080, Note_on_c, 0, 75, 75
2, 106320, Note_on_c, 0, 75, 0
2, 106320, Note_on_c, 0, 77, 79
2, 106560, Note_on_c, 0, 77, 0
2, 106560, Note_on_c, 0, 79, 83
2, 106680, Note_on_c, 0, 79, 0
2, 106920, Note_on_c, 0, 81, 75
2, 107040, Note_on_c, 0, 81, 0
2, 107040, Note_on_c, 0, 82, 76
2, 107100, Note_on_c, 0, 82, 0
2, 107100, Note_on_c, 0, 84, 67
2, 107160, Note_on_c, 0, 84, 0
2, 107160, Note_on_c, 0, 82, 73
2, 107220, Note_on_c, 0, 82, 0
2, 107220, Note_on_c, 0, 84, 66
2, 107280, Note_on_c, 0, 84, 0
2, 107280, Note_on_c, 0, 82, 70
2, 107340, Note_on_c, 0, 82, 0
2, 107340, Note_on_c, 0, 84, 64
2, 107400, Note_on_c, 0, 84, 0
2, 107400, Note_on_c, 0, 82, 70
2, 107460, Note_on_c, 0, 82, 0
2, 107460, Note_on_c, 0, 84, 64
2, 107520, Note_on_c, 0, 84, 0
2, 107520, Note_on_c, 0, 81, 70
2, 107760, Note_on_c, 0, 81, 0
2, 107760, Note_on_c, 0, 79, 56
2, 107940, Note_on_c, 0, 79, 0
2, 107940, Note_on_c, 0, 77, 51
2, 108000, Note_on_c, 0, 77, 0
2, 108000, Note_on_c, 0, 82, 60
2, 108120, Note_on_c, 0, 82, 0
2, 108360, Note_on_c, 0, 82, 55
2, 108480, Note_on_c, 0, 82, 0
2, 108480, Note_on_c, 0, 74, 49
2, 109380, Note_on_c, 0, 74, 0
2, 109380, Note_on_c, 0, 75, 50
2, 109440, Note_on_c, 0, 75, 0
2, 109440, Note_on_c, 0, 79, 58
2, 109560, Note_on_c, 0, 79, 0
2, 109800, Note_on_c, 0, 79, 51
2, 109920, Note_on_c, 0, 79, 0
2, 109920, Note_on_c, 0, 69, 49
2, 110820, Note_on_c, 0, 69, 0
2, 110820, Note_on_c, 0, 70, 50
2, 110880, Note_on_c, 0, 70, 0
2, 110880, Note_on_c, 0, 74, 56
2, 111000, Note_on_c, 0, 74, 0
2, 111240, Note_on_c, 0, 74, 52
2, 111360, Note_on_c, 0, 74, 0
2, 111360, Note_on_c, 0, 64, 49
2, 112320, Note_on_c, 0, 64, 0
2, 112320, Note_on_c, 0, 65, 55
2, 112440, Note_on_c, 0, 65, 0
2, 112680, Note_on_c, 0, 69, 58
2, 112800, Note_on_c, 0, 69, 0
2, 112800, Note_on_c, 0, 72, 59
2, 113040, Note_on_c, 0, 72, 0
2, 113040, Note_on_c, 0, 75, 60
2, 113280, Note_on_c, 0, 75, 0
2, 113280, Note_on_c, 0, 79, 67
2, 113640, Note_on_c, 0, 79, 0
2, 113640, Note_on_c, 0, 77, 63
2, 113698, Note_on_c, 0, 77, 0
2, 113700, Note_on_c, 0, 77, 55
2, 113760, Note_on_c, 0, 77, 0
2, 113760, Note_on_c, 0, 86, 75
2, 113880, Note_on_c, 0, 86, 0
2, 114120, Note_on_c, 0, 84, 68
2, 114240, Note_on_c, 0, 84, 0
2, 114240, Note_on_c, 0, 82, 56
2, 114300, Note_on_c, 0, 82, 0
2, 114300, Note_on_c, 0, 84, 55
2, 114360, Note_on_c, 0, 84, 0
2, 114360, Note_on_c, 0, 82, 64
2, 114480, Note_on_c, 0, 82, 0
2, 114480, Note_on_c, 0, 79, 58
2, 114720, Note_on_c, 0, 79, 0
2, 114720, Note_on_c, 0, 77, 55
2, 115140, Note_on_c, 0, 79, 45
2, 115200, Note_on_c, 0, 79, 0
2, 115200, Note_on_c, 0, 77, 0
2, 115200, Note_on_c, 0, 82, 51
2, 115320, Note_on_c, 0, 82, 0
2, 115560, Note_on_c, 0, 82, 46
2, 115680, Note_on_c, 0, 82, 0
2, 115680, Note_on_c, 0, 69, 44
2, 116520, Note_on_c, 0, 69, 0
2, 116520, Note_on_c, 0, 70, 42
2, 116580, Note_on_c, 0, 70, 0
2, 116580, Note_on_c, 0, 74, 41
2, 116640, Note_on_c, 0, 74, 0
2, 116640, Note_on_c, 0, 77, 49
2, 116760, Note_on_c, 0, 77, 0
2, 117000, Note_on_c, 0, 77, 47
2, 117120, Note_on_c, 0, 77, 0
2, 117120, Note_on_c, 0, 64, 44
2, 118080, Note_on_c, 0, 64, 0
2, 118080, Note_on_c, 0, 65, 55
2, 118200, Note_on_c, 0, 65, 0
2, 118440, Note_on_c, 0, 69, 58
2, 118560, Note_on_c, 0, 69, 0
2, 118560, Note_on_c, 0, 72, 59
2, 118800, Note_on_c, 0, 72, 0
2, 118800, Note_on_c, 0, 75, 60
2, 119040, Note_on_c, 0, 75, 0
2, 119040, Note_on_c, 0, 74, 56
2, 119100, Note_on_c, 0, 74, 0
2, 119100, Note_on_c, 0, 75, 56
2, 119160, Note_on_c, 0, 75, 0
2, 119160, Note_on_c, 0, 74, 61
2, 119400, Note_on_c, 0, 74, 0
2, 119400, Note_on_c, 0, 72, 56
2, 119520, Note_on_c, 0, 72, 0
2, 119520, Note_on_c, 0, 74, 64
2, 119640, Note_on_c, 0, 74, 0
2, 119880, Note_on_c, 0, 65, 57
2, 120000, Note_on_c, 0, 65, 0
2, 120000, Note_on_c, 0, 70, 59
2, 120480, Note_on_c, 0, 70, 0
2, 120960, Note_on_c, 0, 77, 46
2, 121080, Note_on_c, 0, 77, 0
2, 121320, Note_on_c, 0, 77, 37
2, 121440, Note_on_c, 0, 77, 0
2, 121440, Note_on_c, 0, 76, 41
2, 121920, Note_on_c, 0, 76, 0
2, 121920, Note_on_c, 0, 73, 37
2, 122160, Note_on_c, 0, 73, 0
2, 122160, Note_on_c, 0, 72, 37
2, 122400, Note_on_c, 0, 72, 0
2, 122400, Note_on_c, 0, 70, 42
2, 122640, Note_on_c, 0, 70, 0
2, 122760, Note_on_c, 0, 73, 37
2, 122880, Note_on_c, 0, 73, 0
2, 122880, Note_on_c, 0, 72, 37
2, 122940, Note_on_c, 0, 72, 0
2, 122940, Note_on_c, 0, 73, 37
2, 123000, Note_on_c, 0, 73, 0
2, 123000, Note_on_c, 0, 72, 40
2, 123360, Note_on_c, 0, 72, 0
2, 123360, Note_on_c, 0, 70, 37
2, 123600, Note_on_c, 0, 70, 0
2, 123720, Note_on_c, 0, 64, 41
2, 123840, Note_on_c, 0, 64, 0
2, 123840, Note_on_c, 0, 77, 46
2, 123960, Note_on_c, 0, 77, 0
2, 124200, Note_on_c, 0, 77, 37
2, 124320, Note_on_c, 0, 77, 0
2, 124320, Note_on_c, 0, 76, 41
2, 124800, Note_on_c, 0, 76, 0
2, 124800, Note_on_c, 0, 73, 37
2, 125040, Note_on_c, 0, 73, 0
2, 125040, Note_on_c, 0, 72, 37
2, 125280, Note_on_c, 0, 72, 0
2, 125280, Note_on_c, 0, 70, 45
2, 125440, Note_on_c, 0, 70, 0
2, 125440, Note_on_c, 0, 72, 40
2, 125600, Note_on_c, 0, 72, 0
2, 125600, Note_on_c, 0, 70, 39
2, 125760, Note_on_c, 0, 70, 0
2, 125760, Note_on_c, 0, 64, 42
2, 126720, Note_on_c, 0, 64, 0
2, 126720, Note_on_c, 0, 77, 46
2, 126840, Note_on_c, 0, 77, 0
2, 127080, Note_on_c, 0, 77, 37
2, 127200, Note_on_c, 0, 77, 0
2, 127200, Note_on_c, 0, 76, 41
2, 127680, Note_on_c, 0, 76, 0
2, 127680, Note_on_c, 0, 73, 37
2, 127920, Note_on_c, 0, 73, 0
2, 127920, Note_on_c, 0, 72, 37
2, 128160, Note_on_c, 0, 72, 0
2, 128160, Note_on_c, 0, 70, 42
2, 128400, Note_on_c, 0, 70, 0
2, 128520, Note_on_c, 0, 73, 37
2, 128640, Note_on_c, 0, 73, 0
2, 128640, Note_on_c, 0, 72, 37
2, 128700, Note_on_c, 0, 72, 0
2, 128700, Note_on_c, 0, 73, 33
2, 128760, Note_on_c, 0, 73, 0
2, 128760, Note_on_c, 0, 72, 37
2, 128820, Note_on_c, 0, 72, 0
2, 128820, Note_on_c, 0, 73, 35
2, 128880, Note_on_c, 0, 73, 0
2, 128880, Note_on_c, 0, 72, 37
2, 128940, Note_on_c, 0, 72, 0
2, 128940, Note_on_c, 0, 73, 34
2, 129000, Note_on_c, 0, 73, 0
2, 129000, Note_on_c, 0, 72, 37
2, 129060, Note_on_c, 0, 72, 0
2, 129060, Note_on_c, 0, 73, 37
2, 129120, Note_on_c, 0, 73, 0
2, 129120, Note_on_c, 0, 70, 37
2, 129360, Note_on_c, 0, 70, 0
2, 129480, Note_on_c, 0, 64, 41
2, 129600, Note_on_c, 0, 64, 0
2, 129600, Note_on_c, 0, 77, 46
2, 129720, Note_on_c, 0, 77, 0
2, 129960, Note_on_c, 0, 77, 37
2, 130080, Note_on_c, 0, 77, 0
2, 130080, Note_on_c, 0, 76, 41
2, 130560, Note_on_c, 0, 76, 0
2, 130560, Note_on_c, 0, 73, 37
2, 130920, Note_on_c, 0, 73, 0
2, 130920, Note_on_c, 0, 72, 37
2, 131040, Note_on_c, 0, 72, 0
2, 131040, Note_on_c, 0, 70, 45
2, 131200, Note_on_c, 0, 70, 0
2, 131200, Note_on_c, 0, 72, 40
2, 131360, Note_on_c, 0, 72, 0
2, 131360, Note_on_c, 0, 70, 39
2, 131520, Note_on_c, 0, 70, 0
2, 131520, Note_on_c, 0, 69, 42
2, 132240, Note_on_c, 0, 69, 0
2, 132240, Note_on_c, 0, 67, 53
2, 132480, Note_on_c, 0, 67, 0
2, 132480, Control_c, 0, 91, 127
2, 132480, Note_on_c, 0, 65, 70
2, 132480, Text_t, "bdca426d104a26ac9dcb070447587523"
2, 132720, Note_on_c, 0, 65, 0
2, 132840, Note_on_c, 0, 65, 66
2, 132960, Note_on_c, 0, 65, 0
2, 132960, Note_on_c, 0, 67, 70
2, 133440, Note_on_c, 0, 67, 0
2, 133440, Note_on_c, 0, 69, 70
2, 133920, Note_on_c, 0, 69, 0
2, 133920, Note_on_c, 0, 70, 71
2, 134160, Note_on_c, 0, 70, 0
2, 134280, Note_on_c, 0, 72, 66
2, 134400, Note_on_c, 0, 72, 0
2, 134400, Note_on_c, 0, 74, 70
2, 134880, Note_on_c, 0, 74, 0
2, 134880, Note_on_c, 0, 75, 75
2, 135120, Note_on_c, 0, 75, 0
2, 135120, Note_on_c, 0, 77, 79
2, 135360, Note_on_c, 0, 77, 0
2, 135360, Note_on_c, 0, 79, 83
2, 135480, Note_on_c, 0, 79, 0
2, 135720, Note_on_c, 0, 81, 75
2, 135840, Note_on_c, 0, 81, 0
2, 135840, Note_on_c, 0, 82, 76
2, 135900, Note_on_c, 0, 82, 0
2, 135900, Note_on_c, 0, 84, 67
2, 135960, Note_on_c, 0, 84, 0
2, 135960, Note_on_c, 0, 82, 73
2, 136020, Note_on_c, 0, 82, 0
2, 136020, Note_on_c, 0, 84, 66
2, 136080, Note_on_c, 0, 84, 0
2, 136080, Note_on_c, 0, 82, 70
2, 136140, Note_on_c, 0, 82, 0
2, 136140, Note_on_c, 0, 84, 64
2, 136200, Note_on_c, 0, 84, 0
2, 136200, Note_on_c, 0, 82, 70
2, 136260, Note_on_c, 0, 82, 0
2, 136260, Note_on_c, 0, 84, 64
2, 136320, Note_on_c, 0, 84, 0
2, 136320, Note_on_c, 0, 81, 70
2, 136560, Note_on_c, 0, 81, 0
2, 136560, Note_on_c, 0, 79, 56
2, 136740, Note_on_c, 0, 79, 0
2, 136740, Note_on_c, 0, 77, 51
2, 136800, Note_on_c, 0, 77, 0
2, 136800, Note_on_c, 0, 82, 60
2, 136920, Note_on_c, 0, 82, 0
2, 137160, Note_on_c, 0, 82, 55
2, 137280, Note_on_c, 0, 82, 0
2, 137280, Note_on_c, 0, 74, 49
2, 138180, Note_on_c, 0, 74, 0
2, 138180, Note_on_c, 0, 75, 50
2, 138240, Note_on_c, 0, 75, 0
2, 138240, Note_on_c, 0, 79, 58
2, 138360, Note_on_c, 0, 79, 0
2, 138600, Note_on_c, 0, 79, 51
2, 138720, Note_on_c, 0, 79, 0
2, 138720, Note_on_c, 0, 69, 49
2, 139620, Note_on_c, 0, 69, 0
2, 139620, Note_on_c, 0, 70, 50
2, 139680, Note_on_c, 0, 70, 0
2, 139680, Note_on_c, 0, 74, 56
2, 139800, Note_on_c, 0, 74, 0
2, 140040, Note_on_c, 0, 74, 52
2, 140160, Note_on_c, 0, 74, 0
2, 140160, Note_on_c, 0, 64, 49
2, 141120, Note_on_c, 0, 64, 0
2, 141120, Note_on_c, 0, 65, 55
2, 141240, Note_on_c, 0, 65, 0
2, 141480, Note_on_c, 0, 69, 58
2, 141600, Note_on_c, 0, 69, 0
2, 141600, Note_on_c, 0, 72, 59
2, 141840, Note_on_c, 0, 72, 0
2, 141840, Note_on_c, 0, 75, 60
2, 142080, Note_on_c, 0, 75, 0
2, 142080, Note_on_c, 0, 79, 67
2, 142440, Note_on_c, 0, 79, 0
2, 142440, Note_on_c, 0, 77, 63
2, 142500, Note_on_c, 0, 77, 0
2, 142500, Note_on_c, 0, 77, 49
2, 142560, Note_on_c, 0, 77, 0
2, 142560, Note_on_c, 0, 86, 67
2, 142680, Note_on_c, 0, 86, 0
2, 142920, Note_on_c, 0, 84, 61
2, 143040, Note_on_c, 0, 84, 0
2, 143040, Note_on_c, 0, 82, 50
2, 143100, Note_on_c, 0, 82, 0
2, 143100, Note_on_c, 0, 84, 49
2, 143160, Note_on_c, 0, 84, 0
2, 143160, Note_on_c, 0, 82, 57
2, 143280, Note_on_c, 0, 82, 0
2, 143280, Note_on_c, 0, 79, 52
2, 143520, Note_on_c, 0, 79, 0
2, 143520, Note_on_c, 0, 77, 49
2, 143940, Note_on_c, 0, 79, 45
2, 144000, Note_on_c, 0, 79, 0
2, 144000, Note_on_c, 0, 77, 0
2, 144000, Note_on_c, 0, 82, 51
2, 144120, Note_on_c, 0, 82, 0
2, 144360, Note_on_c, 0, 82, 46
2, 144480, Note_on_c, 0, 82, 0
2, 144480, Note_on_c, 0, 69, 44
2, 145320, Note_on_c, 0, 69, 0
2, 145320, Note_on_c, 0, 70, 42
2, 145380, Note_on_c, 0, 70, 0
2, 145380, Note_on_c, 0, 74, 41
2, 145440, Note_on_c, 0, 74, 0
2, 145440, Note_on_c, 0, 77, 49
2, 145560, Note_on_c, 0, 77, 0
2, 145800, Note_on_c, 0, 77, 47
2, 145920, Note_on_c, 0, 77, 0
2, 145920, Note_on_c, 0, 64, 44
2, 146880, Note_on_c, 0, 64, 0
2, 146880, Note_on_c, 0, 65, 55
2, 147000, Note_on_c, 0, 65, 0
2, 147240, Note_on_c, 0, 69, 60
2, 147360, Note_on_c, 0, 69, 0
2, 147360, Note_on_c, 0, 72, 62
2, 147600, Note_on_c, 0, 72, 0
2, 147600, Note_on_c, 0, 75, 66
2, 147840, Note_on_c, 0, 75, 0
2, 147840, Note_on_c, 0, 74, 63
2, 147900, Note_on_c, 0, 74, 0
2, 147900, Note_on_c, 0, 75, 63
2, 147960, Note_on_c, 0, 75, 0
2, 147960, Note_on_c, 0, 74, 70
2, 148200, Note_on_c, 0, 74, 0
2, 148200, Note_on_c, 0, 72, 64
2, 148320, Note_on_c, 0, 72, 0
2, 148320, Note_on_c, 0, 74, 76
2, 148560, Note_on_c, 0, 74, 0
2, 148560, Note_on_c, 0, 65, 68
2, 148800, Note_on_c, 0, 65, 0
2, 148800, Note_on_c, 0, 70, 68
2, 148800, Note_on_c, 0, 82, 70
2, 149760, Note_on_c, 0, 82, 0
2, 149760, Note_on_c, 0, 70, 0
2, 149760, End_track
3, 0, Start_track
3, 0, Title_t, "Piano left"
3, 0, Program_c, 0, 0
3, 0, Control_c, 0, 7, 100
3, 0, Control_c, 0, 10, 64
3, 0, Note_on_c, 0, 41, 70
3, 42, Control_c, 0, 64, 127
3, 240, Note_on_c, 0, 41, 0
3, 480, Note_on_c, 0, 63, 59
3, 480, Note_on_c, 0, 60, 50
3, 480, Note_on_c, 0, 53, 50
3, 960, Note_on_c, 0, 53, 0
3, 960, Note_on_c, 0, 60, 0
3, 960, Note_on_c, 0, 63, 0
3, 960, Note_on_c, 0, 63, 60
3, 960, Note_on_c, 0, 60, 51
3, 960, Note_on_c, 0, 53, 51
3, 967, Control_c, 0, 64, 0
3, 1440, Note_on_c, 0, 53, 0
3, 1440, Note_on_c, 0, 60, 0
3, 1440, Note_on_c, 0, 63, 0
3, 1440, Note_on_c, 0, 46, 70
3, 1581, Control_c, 0, 64, 127
3, 1680, Note_on_c, 0, 46, 0
3, 1920, Note_on_c, 0, 62, 52
3, 1920, Note_on_c, 0, 58, 52
3, 1920, Note_on_c, 0, 53, 52
3, 2400, Note_on_c, 0, 53, 0
3, 2400, Note_on_c, 0, 58, 0
3, 2400, Note_on_c, 0, 62, 0
3, 2400, Note_on_c, 0, 46, 62
3, 2414, Control_c, 0, 64, 0
3, 2640, Note_on_c, 0, 46, 0
3, 2880, Note_on_c, 0, 39, 68
3, 2880, Note_on_c, 0, 51, 80
3, 2958, Control_c, 0, 64, 127
3, 3270, Note_on_c, 0, 51, 0
3, 3270, Note_on_c, 0, 39, 0
3, 3270, Note_on_c, 0, 55, 59
3, 3300, Note_on_c, 0, 58, 59
3, 3330, Note_on_c, 0, 63, 59
3, 3360, Note_on_c, 0, 67, 70
3, 3840, Note_on_c, 0, 67, 0
3, 3840, Note_on_c, 0, 55, 0
3, 3840, Note_on_c, 0, 58, 0
3, 3840, Note_on_c, 0, 63, 0
3, 3849, Control_c, 0, 64, 0
3, 4320, Note_on_c, 0, 46, 43
3, 4338, Control_c, 0, 64, 127
3, 4560, Note_on_c, 0, 46, 0
3, 4800, Note_on_c, 0, 62, 28
3, 4800, Note_on_c, 0, 58, 23
3, 4800, Note_on_c, 0, 53, 23
3, 5280, Note_on_c, 0, 53, 0
3, 5280, Note_on_c, 0, 58, 0
3, 5280, Note_on_c, 0, 62, 0
3, 5280, Note_on_c, 0, 62, 26
3, 5280, Note_on_c, 0, 58, 22
3, 5280, Note_on_c, 0, 53, 22
3, 5287, Control_c, 0, 64, 0
3, 5760, Note_on_c, 0, 53, 0
3, 5760, Note_on_c, 0, 58, 0
3, 5760, Note_on_c, 0, 62, 0
3, 5760, Note_on_c, 0, 41, 40
3, 5806, Control_c, 0, 64, 127
3, 6000, Note_on_c, 0, 41, 0
3, 6240, Note_on_c, 0, 63, 27
3, 6240, Note_on_c, 0, 60, 22
3, 6240, Note_on_c, 0, 53, 22
3, 6720, Note_on_c, 0, 53, 0
3, 6720, Note_on_c, 0, 60, 0
3, 6720, Note_on_c, 0, 63, 0
3, 6720, Note_on_c, 0, 63, 25
3, 6720, Note_on_c, 0, 60, 21
3, 6720, Note_on_c, 0, 53, 21
3, 6728, Control_c, 0, 64, 0
3, 7200, Note_on_c, 0, 53, 0
3, 7200, Note_on_c, 0, 60, 0
3, 7200, Note_on_c, 0, 63, 0
3, 7200, Note_on_c, 0, 46, 43
3, 7285, Control_c, 0, 64, 127
3, 7440, Note_on_c, 0, 46, 0
3, 7680, Note_on_c, 0, 62, 28
3, 7680, Note_on_c, 0, 58, 23
3, 7680, Note_on_c, 0, 53, 23
3, 8160, Note_on_c, 0, 53, 0
3, 8160, Note_on_c, 0, 58, 0
3, 8160, Note_on_c, 0, 62, 0
3, 8160, Note_on_c, 0, 62, 26
3, 8160, Note_on_c, 0, 58, 22
3, 8160, Note_on_c, 0, 53, 22
3, 8170, Control_c, 0, 64, 0
3, 8640, Note_on_c, 0, 53, 0
3, 8640, Note_on_c, 0, 58, 0
3, 8640, Note_on_c, 0, 62, 0
3, 8640, Note_on_c, 0, 41, 57
3, 8714, Control_c, 0, 64, 127
3, 8880, Note_on_c, 0, 41, 0
3, 9120, Note_on_c, 0, 53, 39
3, 9120, Note_on_c, 0, 63, 47
3, 9600, Note_on_c, 0, 63, 0
3, 9600, Note_on_c, 0, 53, 0
3, 9600, Note_on_c, 0, 53, 39
3, 9600, Note_on_c, 0, 57, 39
3, 9600, Note_on_c, 0, 63, 46
3, 9612, Control_c, 0, 64, 0
3, 10080, Note_on_c, 0, 63, 0
3, 10080, Note_on_c, 0, 57, 0
3, 10080, Note_on_c, 0, 53, 0
3, 10080, Note_on_c, 0, 46, 57
3, 10144, Control_c, 0, 64, 127
3, 10320, Note_on_c, 0, 46, 0
3, 10560, Note_on_c, 0, 53, 39
3, 10560, Note_on_c, 0, 58, 39
3, 10560, Note_on_c, 0, 62, 47
3, 11040, Note_on_c, 0, 62, 0
3, 11040, Note_on_c, 0, 58, 0
3, 11040, Note_on_c, 0, 53, 0
3, 11040, Note_on_c, 0, 53, 39
3, 11040, Note_on_c, 0, 58, 39
3, 11040, Note_on_c, 0, 62, 46
3, 11052, Control_c, 0, 64, 0
3, 11520, Note_on_c, 0, 62, 0
3, 11520, Note_on_c, 0, 58, 0
3, 11520, Note_on_c, 0, 53, 0
3, 11520, Note_on_c, 0, 46, 36
3, 11566, Control_c, 0, 64, 127
3, 11760, Note_on_c, 0, 46, 0
3, 12000, Note_on_c, 0, 63, 27
3, 12000, Note_on_c, 0, 60, 22
3, 12000, Note_on_c, 0, 53, 22
3, 12480, Note_on_c, 0, 53, 0
3, 12480, Note_on_c, 0, 60, 0
3, 12480, Note_on_c, 0, 63, 0
3, 12480, Note_on_c, 0, 63, 25
3, 12480, Note_on_c, 0, 60, 21
3, 12480, Note_on_c, 0, 53, 21
3, 12484, Control_c, 0, 64, 0
3, 12960, Note_on_c, 0, 53, 0
3, 12960, Note_on_c, 0, 60, 0
3, 12960, Note_on_c, 0, 63, 0
3, 12960, Note_on_c, 0, 46, 38
3, 13045, Control_c, 0, 64, 127
3, 13200, Note_on_c, 0, 46, 0
3, 13440, Note_on_c, 0, 62, 28
3, 13440, Note_on_c, 0, 58, 23
3, 13440, Note_on_c, 0, 53, 23
3, 13920, Note_on_c, 0, 53, 0
3, 13920, Note_on_c, 0, 58, 0
3, 13920, Note_on_c, 0, 62, 0
3, 13920, Note_on_c, 0, 62, 26
3, 13920, Note_on_c, 0, 58, 22
3, 13920, Note_on_c, 0, 53, 22
3, 14400, Note_on_c, 0, 53, 0
3, 14400, Note_on_c, 0, 58, 0
3, 14400, Note_on_c, 0, 62, 0
3, 14400, Note_on_c, 0, 41, 57
3, 14412, Control_c, 0, 64, 0
3, 14474, Control_c, 0, 64, 127
3, 14640, Note_on_c, 0, 41, 0
3, 14880, Note_on_c, 0, 53, 39
3, 14880, Note_on_c, 0, 63, 47
3, 15360, Note_on_c, 0, 63, 0
3, 15360, Note_on_c, 0, 53, 0
3, 15360, Note_on_c, 0, 53, 39
3, 15360, Note_on_c, 0, 57, 39
3, 15360, Note_on_c, 0, 63, 46
3, 15364, Control_c, 0, 64, 0
3, 15413, Control_c, 0, 64, 127
3, 15840, Note_on_c, 0, 63, 0
3, 15840, Note_on_c, 0, 57, 0
3, 15840, Note_on_c, 0, 53, 0
3, 15840, Control_c, 0, 64, 0
3, 15840, Note_on_c, 0, 46, 57
3, 15981, Control_c, 0, 64, 127
3, 16080, Note_on_c, 0, 46, 0
3, 16320, Note_on_c, 0, 53, 39
3, 16320, Note_on_c, 0, 58, 39
3, 16320, Note_on_c, 0, 62, 47
3, 16800, Note_on_c, 0, 62, 0
3, 16800, Note_on_c, 0, 58, 0
3, 16800, Note_on_c, 0, 53, 0
3, 16808, Control_c, 0, 64, 0
3, 17280, Note_on_c, 0, 41, 70
3, 17400, Control_c, 0, 64, 127
3, 17520, Note_on_c, 0, 41, 0
3, 17760, Note_on_c, 0, 63, 59
3, 17760, Note_on_c, 0, 60, 50
3, 17760, Note_on_c, 0, 53, 50
3, 18240, Note_on_c, 0, 53, 0
3, 18240, Note_on_c, 0, 60, 0
3, 18240, Note_on_c, 0, 63, 0
3, 18240, Note_on_c, 0, 63, 60
3, 18240, Note_on_c, 0, 60, 51
3, 18240, Note_on_c, 0, 53, 51
3, 18247, Control_c, 0, 64, 0
3, 18720, Note_on_c, 0, 53, 0
3, 18720, Note_on_c, 0, 60, 0
3, 18720, Note_on_c, 0, 63, 0
3, 18720, Note_on_c, 0, 46, 70
3, 18861, Control_c, 0, 64, 127
3, 18960, Note_on_c, 0, 46, 0
3, 19200, Note_on_c, 0, 62, 52
3, 19200, Note_on_c, 0, 58, 52
3, 19200, Note_on_c, 0, 53, 52
3, 19680, Note_on_c, 0, 53, 0
3, 19680, Note_on_c, 0, 58, 0
3, 19680, Note_on_c, 0, 62, 0
3, 19680, Note_on_c, 0, 46, 62
3, 19698, Control_c, 0, 64, 0
3, 19920, Note_on_c, 0, 46, 0
3, 20160, Note_on_c, 0, 39, 68
3, 20160, Note_on_c, 0, 51, 80
3, 20238, Control_c, 0, 64, 127
3, 20550, Note_on_c, 0, 51, 0
3, 20550, Note_on_c, 0, 39, 0
3, 20550, Note_on_c, 0, 55, 59
3, 20580, Note_on_c, 0, 58, 59
3, 20610, Note_on_c, 0, 63, 59
3, 20640, Note_on_c, 0, 67, 70
3, 21120, Note_on_c, 0, 67, 0
3, 21120, Note_on_c, 0, 55, 0
3, 21120, Note_on_c, 0, 58, 0
3, 21120, Note_on_c, 0, 63, 0
3, 21132, Control_c, 0, 64, 0
3, 21600, Note_on_c, 0, 46, 43
3, 21667, Control_c, 0, 64, 127
3, 21840, Note_on_c, 0, 46, 0
3, 22080, Note_on_c, 0, 62, 28
3, 22080, Note_on_c, 0, 58, 23
3, 22080, Note_on_c, 0, 53, 23
3, 22560, Note_on_c, 0, 53, 0
3, 22560, Note_on_c, 0, 58, 0
3, 22560, Note_on_c, 0, 62, 0
3, 22560, Note_on_c, 0, 62, 26
3, 22560, Note_on_c, 0, 58, 22
3, 22560, Note_on_c, 0, 53, 22
3, 22570, Control_c, 0, 64, 0
3, 23040, Note_on_c, 0, 53, 0
3, 23040, Note_on_c, 0, 58, 0
3, 23040, Note_on_c, 0, 62, 0
3, 23040, Note_on_c, 0, 41, 40
3, 23086, Control_c, 0, 64, 127
3, 23280, Note_on_c, 0, 41, 0
3, 23520, Note_on_c, 0, 63, 27
3, 23520, Note_on_c, 0, 60, 22
3, 23520, Note_on_c, 0, 53, 22
3, 24000, Note_on_c, 0, 53, 0
3, 24000, Note_on_c, 0, 60, 0
3, 24000, Note_on_c, 0, 63, 0
3, 24000, Note_on_c, 0, 63, 25
3, 24000, Note_on_c, 0, 60, 21
3, 24000, Note_on_c, 0, 53, 21
3, 24011, Control_c, 0, 64, 0
3, 24480, Note_on_c, 0, 53, 0
3, 24480, Note_on_c, 0, 60, 0
3, 24480, Note_on_c, 0, 63, 0
3, 24480, Note_on_c, 0, 46, 43
3, 24565, Control_c, 0, 64, 127
3, 24720, Note_on_c, 0, 46, 0
3, 24960, Note_on_c, 0, 62, 28
3, 24960, Note_on_c, 0, 58, 23
3, 24960, Note_on_c, 0, 53, 23
3, 25440, Note_on_c, 0, 53, 0
3, 25440, Note_on_c, 0, 58, 0
3, 25440, Note_on_c, 0, 62, 0
3, 25440, Note_on_c, 0, 62, 26
3, 25440, Note_on_c, 0, 58, 22
3, 25440, Note_on_c, 0, 53, 22
3, 25920, Note_on_c, 0, 53, 0
3, 25920, Note_on_c, 0, 58, 0
3, 25920, Note_on_c, 0, 62, 0
3, 25920, Note_on_c, 0, 41, 57
3, 25926, Control_c, 0, 64, 0
3, 25994, Control_c, 0, 64, 127
3, 26160, Note_on_c, 0, 41, 0
3, 26400, Note_on_c, 0, 53, 39
3, 26400, Note_on_c, 0, 63, 47
3, 26880, Note_on_c, 0, 63, 0
3, 26880, Note_on_c, 0, 53, 0
3, 26880, Note_on_c, 0, 53, 39
3, 26880, Note_on_c, 0, 57, 39
3, 26880, Note_on_c, 0, 63, 46
3, 26892, Control_c, 0, 64, 0
3, 27360, Note_on_c, 0, 63, 0
3, 27360, Note_on_c, 0, 57, 0
3, 27360, Note_on_c, 0, 53, 0
3, 27360, Note_on_c, 0, 46, 51
3, 27424, Control_c, 0, 64, 127
3, 27600, Note_on_c, 0, 46, 0
3, 27840, Note_on_c, 0, 53, 31
3, 27840, Note_on_c, 0, 58, 31
3, 27840, Note_on_c, 0, 62, 37
3, 28320, Note_on_c, 0, 62, 0
3, 28320, Note_on_c, 0, 58, 0
3, 28320, Note_on_c, 0, 53, 0
3, 28320, Note_on_c, 0, 53, 31
3, 28320, Note_on_c, 0, 58, 31
3, 28320, Note_on_c, 0, 62, 36
3, 28330, Control_c, 0, 64, 0
3, 28800, Note_on_c, 0, 62, 0
3, 28800, Note_on_c, 0, 58, 0
3, 28800, Note_on_c, 0, 53, 0
3, 28800, Note_on_c, 0, 46, 40
3, 28846, Control_c, 0, 64, 127
3, 29040, Note_on_c, 0, 46, 0
3, 29280, Note_on_c, 0, 63, 27
3, 29280, Note_on_c, 0, 60, 22
3, 29280, Note_on_c, 0, 53, 22
3, 29760, Note_on_c, 0, 53, 0
3, 29760, Note_on_c, 0, 60, 0
3, 29760, Note_on_c, 0, 63, 0
3, 29760, Note_on_c, 0, 63, 25
3, 29760, Note_on_c, 0, 60, 21
3, 29760, Note_on_c, 0, 53, 21
3, 29772, Control_c, 0, 64, 0
3, 30240, Note_on_c, 0, 53, 0
3, 30240, Note_on_c, 0, 60, 0
3, 30240, Note_on_c, 0, 63, 0
3, 30240, Note_on_c, 0, 46, 43
3, 30325, Control_c, 0, 64, 127
3, 30480, Note_on_c, 0, 46, 0
3, 30720, Note_on_c, 0, 62, 28
3, 30720, Note_on_c, 0, 58, 23
3, 30720, Note_on_c, 0, 53, 23
3, 31200, Note_on_c, 0, 53, 0
3, 31200, Note_on_c, 0, 58, 0
3, 31200, Note_on_c, 0, 62, 0
3, 31200, Note_on_c, 0, 62, 26
3, 31200, Note_on_c, 0, 58, 22
3, 31200, Note_on_c, 0, 53, 22
3, 31680, Note_on_c, 0, 53, 0
3, 31680, Note_on_c, 0, 58, 0
3, 31680, Note_on_c, 0, 62, 0
3, 31680, Note_on_c, 0, 41, 57
3, 31688, Control_c, 0, 64, 0
3, 31754, Control_c, 0, 64, 127
3, 31920, Note_on_c, 0, 41, 0
3, 32160, Note_on_c, 0, 53, 39
3, 32160, Note_on_c, 0, 63, 47
3, 32640, Note_on_c, 0, 63, 0
3, 32640, Note_on_c, 0, 53, 0
3, 32640, Note_on_c, 0, 53, 39
3, 32640, Note_on_c, 0, 57, 39
3, 32640, Note_on_c, 0, 63, 46
3, 32654, Control_c, 0, 64, 0
3, 32704, Control_c, 0, 64, 127
3, 33120, Note_on_c, 0, 63, 0
3, 33120, Note_on_c, 0, 57, 0
3, 33120, Note_on_c, 0, 53, 0
3, 33120, Note_on_c, 0, 46, 57
3, 33124, Control_c, 0, 64, 0
3, 33233, Control_c, 0, 64, 127
3, 33360, Note_on_c, 0, 46, 0
3, 33600, Note_on_c, 0, 53, 39
3, 33600, Note_on_c, 0, 58, 39
3, 33600, Note_on_c, 0, 62, 47
3, 34080, Note_on_c, 0, 62, 0
3, 34080, Note_on_c, 0, 58, 0
3, 34080, Note_on_c, 0, 53, 0
3, 34091, Control_c, 0, 64, 0
3, 34560, Note_on_c, 0, 41, 37
3, 35040, Note_on_c, 0, 41, 0
3, 35040, Note_on_c, 0, 48, 25
3, 35040, Note_on_c, 0, 57, 30
3, 35520, Note_on_c, 0, 57, 0
3, 35520, Note_on_c, 0, 48, 0
3, 35520, Note_on_c, 0, 48, 28
3, 35520, Note_on_c, 0, 57, 34
3, 36000, Note_on_c, 0, 57, 0
3, 36000, Note_on_c, 0, 48, 0
3, 36000, Note_on_c, 0, 41, 42
3, 36480, Note_on_c, 0, 41, 0
3, 36480, Note_on_c, 0, 50, 32
3, 36480, Note_on_c, 0, 58, 38
3, 36960, Note_on_c, 0, 58, 0
3, 36960, Note_on_c, 0, 50, 0
3, 36960, Note_on_c, 0, 50, 33
3, 36960, Note_on_c, 0, 58, 39
3, 37440, Note_on_c, 0, 58, 0
3, 37440, Note_on_c, 0, 50, 0
3, 37440, Note_on_c, 0, 41, 42
3, 37920, Note_on_c, 0, 41, 0
3, 37920, Note_on_c, 0, 48, 32
3, 37920, Note_on_c, 0, 57, 38
3, 38400, Note_on_c, 0, 57, 0
3, 38400, Note_on_c, 0, 48, 0
3, 38400, Note_on_c, 0, 48, 32
3, 38400, Note_on_c, 0, 57, 38
3, 38880, Note_on_c, 0, 57, 0
3, 38880, Note_on_c, 0, 48, 0
3, 38880, Note_on_c, 0, 41, 39
3, 39120, Note_on_c, 0, 41, 0
3, 39360, Note_on_c, 0, 50, 28
3, 39360, Note_on_c, 0, 58, 34
3, 39600, Note_on_c, 0, 58, 0
3, 39600, Note_on_c, 0, 50, 0
3, 39840, Note_on_c, 0, 41, 34
3, 40080, Note_on_c, 0, 41, 0
3, 40320, Note_on_c, 0, 48, 31
3, 40320, Note_on_c, 0, 57, 37
3, 40560, Note_on_c, 0, 57, 0
3, 40560, Note_on_c, 0, 48, 0
3, 40800, Note_on_c, 0, 41, 34
3, 41040, Note_on_c, 0, 41, 0
3, 41280, Note_on_c, 0, 48, 28
3, 41280, Note_on_c, 0, 57, 34
3, 41520, Note_on_c, 0, 57, 0
3, 41520, Note_on_c, 0, 48, 0
3, 41760, Note_on_c, 0, 41, 42
3, 42000, Note_on_c, 0, 41, 0
3, 42240, Note_on_c, 0, 50, 32
3, 42240, Note_on_c, 0, 58, 38
3, 42268, Control_c, 0, 64, 127
3, 42480, Note_on_c, 0, 58, 0
3, 42480, Note_on_c, 0, 50, 0
3, 42720, Note_on_c, 0, 41, 34
3, 42724, Control_c, 0, 64, 0
3, 42960, Note_on_c, 0, 41, 0
3, 43200, Note_on_c, 0, 48, 32
3, 43200, Note_on_c, 0, 57, 38
3, 43440, Note_on_c, 0, 57, 0
3, 43440, Note_on_c, 0, 48, 0
3, 43680, Note_on_c, 0, 41, 34
3, 43920, Note_on_c, 0, 41, 0
3, 44160, Note_on_c, 0, 48, 38
3, 44160, Note_on_c, 0, 57, 45
3, 44640, Note_on_c, 0, 57, 0
3, 44640, Note_on_c, 0, 52, 38
3, 44640, Note_on_c, 0, 58, 45
3, 45120, Note_on_c, 0, 58, 0
3, 45120, Note_on_c, 0, 52, 0
3, 45120, Note_on_c, 0, 48, 0
3, 45120, Note_on_c, 0, 53, 38
3, 45120, Note_on_c, 0, 57, 45
3, 45279, Control_c, 0, 64, 127
3, 45600, Note_on_c, 0, 57, 0
3, 45600, Note_on_c, 0, 53, 0
3, 46080, Control_c, 0, 64, 0
3, 46080, Note_on_c, 0, 41, 70
3, 46200, Control_c, 0, 64, 127
3, 46320, Note_on_c, 0, 41, 0
3, 46560, Note_on_c, 0, 63, 59
3, 46560, Note_on_c, 0, 60, 50
3, 46560, Note_on_c, 0, 53, 50
3, 47040, Note_on_c, 0, 53, 0
3, 47040, Note_on_c, 0, 60, 0
3, 47040, Note_on_c, 0, 63, 0
3, 47040, Note_on_c, 0, 63, 60
3, 47040, Note_on_c, 0, 60, 51
3, 47040, Note_on_c, 0, 53, 51
3, 47047, Control_c, 0, 64, 0
3, 47520, Note_on_c, 0, 53, 0
3, 47520, Note_on_c, 0, 60, 0
3, 47520, Note_on_c, 0, 63, 0
3, 47520, Note_on_c, 0, 46, 70
3, 47661, Control_c, 0, 64, 127
3, 47760, Note_on_c, 0, 46, 0
3, 48000, Note_on_c, 0, 62, 52
3, 48000, Note_on_c, 0, 58, 52
3, 48000, Note_on_c, 0, 53, 52
3, 48480, Note_on_c, 0, 53, 0
3, 48480, Note_on_c, 0, 58, 0
3, 48480, Note_on_c, 0, 62, 0
3, 48480, Note_on_c, 0, 46, 62
3, 48499, Control_c, 0, 64, 0
3, 48720, Note_on_c, 0, 46, 0
3, 48960, Note_on_c, 0, 39, 68
3, 48960, Note_on_c, 0, 51, 80
3, 49038, Control_c, 0, 64, 127
3, 49350, Note_on_c, 0, 51, 0
3, 49350, Note_on_c, 0, 39, 0
3, 49350, Note_on_c, 0, 55, 59
3, 49380, Note_on_c, 0, 58, 59
3, 49410, Note_on_c, 0, 63, 59
3, 49440, Note_on_c, 0, 67, 70
3, 49920, Note_on_c, 0, 67, 0
3, 49920, Note_on_c, 0, 55, 0
3, 49920, Note_on_c, 0, 58, 0
3, 49920, Note_on_c, 0, 63, 0
3, 49932, Control_c, 0, 64, 0
3, 50400, Note_on_c, 0, 46, 48
3, 50474, Control_c, 0, 64, 127
3, 50640, Note_on_c, 0, 46, 0
3, 50880, Note_on_c, 0, 62, 31
3, 50880, Note_on_c, 0, 58, 27
3, 50880, Note_on_c, 0, 53, 27
3, 51360, Note_on_c, 0, 53, 0
3, 51360, Note_on_c, 0, 58, 0
3, 51360, Note_on_c, 0, 62, 0
3, 51360, Note_on_c, 0, 62, 29
3, 51360, Note_on_c, 0, 58, 24
3, 51360, Note_on_c, 0, 53, 24
3, 51369, Control_c, 0, 64, 0
3, 51840, Note_on_c, 0, 53, 0
3, 51840, Note_on_c, 0, 58, 0
3, 51840, Note_on_c, 0, 62, 0
3, 51840, Note_on_c, 0, 41, 45
3, 51886, Control_c, 0, 64, 127
3, 52080, Note_on_c, 0, 41, 0
3, 52320, Note_on_c, 0, 63, 30
3, 52320, Note_on_c, 0, 60, 26
3, 52320, Note_on_c, 0, 53, 26
3, 52800, Note_on_c, 0, 53, 0
3, 52800, Note_on_c, 0, 60, 0
3, 52800, Note_on_c, 0, 63, 0
3, 52800, Note_on_c, 0, 63, 28
3, 52800, Note_on_c, 0, 60, 23
3, 52800, Note_on_c, 0, 53, 23
3, 52810, Control_c, 0, 64, 0
3, 53280, Note_on_c, 0, 53, 0
3, 53280, Note_on_c, 0, 60, 0
3, 53280, Note_on_c, 0, 63, 0
3, 53280, Note_on_c, 0, 46, 48
3, 53365, Control_c, 0, 64, 127
3, 53520, Note_on_c, 0, 46, 0
3, 53760, Note_on_c, 0, 62, 31
3, 53760, Note_on_c, 0, 58, 27
3, 53760, Note_on_c, 0, 53, 27
3, 54240, Note_on_c, 0, 53, 0
3, 54240, Note_on_c, 0, 58, 0
3, 54240, Note_on_c, 0, 62, 0
3, 54240, Note_on_c, 0, 62, 29
3, 54240, Note_on_c, 0, 58, 24
3, 54240, Note_on_c, 0, 53, 24
3, 54720, Note_on_c, 0, 53, 0
3, 54720, Note_on_c, 0, 58, 0
3, 54720, Note_on_c, 0, 62, 0
3, 54720, Note_on_c, 0, 41, 57
3, 54725, Control_c, 0, 64, 0
3, 54794, Control_c, 0, 64, 127
3, 54960, Note_on_c, 0, 41, 0
3, 55200, Note_on_c, 0, 53, 39
3, 55200, Note_on_c, 0, 63, 47
3, 55680, Note_on_c, 0, 63, 0
3, 55680, Note_on_c, 0, 53, 0
3, 55680, Note_on_c, 0, 53, 39
3, 55680, Note_on_c, 0, 57, 39
3, 55680, Note_on_c, 0, 63, 46
3, 55693, Control_c, 0, 64, 0
3, 56160, Note_on_c, 0, 63, 0
3, 56160, Note_on_c, 0, 57, 0
3, 56160, Note_on_c, 0, 53, 0
3, 56160, Note_on_c, 0, 46, 57
3, 56224, Control_c, 0, 64, 127
3, 56400, Note_on_c, 0, 46, 0
3, 56640, Note_on_c, 0, 53, 39
3, 56640, Note_on_c, 0, 58, 39
3, 56640, Note_on_c, 0, 62, 47
3, 57120, Note_on_c, 0, 62, 0
3, 57120, Note_on_c, 0, 58, 0
3, 57120, Note_on_c, 0, 53, 0
3, 57120, Note_on_c, 0, 53, 39
3, 57120, Note_on_c, 0, 58, 39
3, 57120, Note_on_c, 0, 62, 46
3, 57133, Control_c, 0, 64, 0
3, 57600, Note_on_c, 0, 62, 0
3, 57600, Note_on_c, 0, 58, 0
3, 57600, Note_on_c, 0, 53, 0
3, 57600, Note_on_c, 0, 46, 40
3, 57646, Control_c, 0, 64, 127
3, 57840, Note_on_c, 0, 46, 0
3, 58080, Note_on_c, 0, 63, 27
3, 58080, Note_on_c, 0, 60, 22
3, 58080, Note_on_c, 0, 53, 22
3, 58560, Note_on_c, 0, 53, 0
3, 58560, Note_on_c, 0, 60, 0
3, 58560, Note_on_c, 0, 63, 0
3, 58560, Note_on_c, 0, 63, 25
3, 58560, Note_on_c, 0, 60, 21
3, 58560, Note_on_c, 0, 53, 21
3, 58566, Control_c, 0, 64, 0
3, 59040, Note_on_c, 0, 53, 0
3, 59040, Note_on_c, 0, 60, 0
3, 59040, Note_on_c, 0, 63, 0
3, 59040, Note_on_c, 0, 46, 43
3, 59125, Control_c, 0, 64, 127
3, 59280, Note_on_c, 0, 46, 0
3, 59520, Note_on_c, 0, 62, 28
3, 59520, Note_on_c, 0, 58, 23
3, 59520, Note_on_c, 0, 53, 23
3, 60000, Note_on_c, 0, 53, 0
3, 60000, Note_on_c, 0, 58, 0
3, 60000, Note_on_c, 0, 62, 0
3, 60000, Note_on_c, 0, 62, 26
3, 60000, Note_on_c, 0, 58, 22
3, 60000, Note_on_c, 0, 53, 22
3, 60480, Note_on_c, 0, 53, 0
3, 60480, Note_on_c, 0, 58, 0
3, 60480, Note_on_c, 0, 62, 0
3, 60480, Note_on_c, 0, 41, 57
3, 60483, Control_c, 0, 64, 0
3, 60554, Control_c, 0, 64, 127
3, 60720, Note_on_c, 0, 41, 0
3, 60960, Note_on_c, 0, 53, 39
3, 60960, Note_on_c, 0, 63, 47
3, 61440, Note_on_c, 0, 63, 0
3, 61440, Note_on_c, 0, 53, 0
3, 61440, Note_on_c, 0, 53, 39
3, 61440, Note_on_c, 0, 57, 39
3, 61440, Note_on_c, 0, 63, 46
3, 61451, Control_c, 0, 64, 0
3, 61497, Control_c, 0, 64, 127
3, 61920, Note_on_c, 0, 63, 0
3, 61920, Note_on_c, 0, 57, 0
3, 61920, Note_on_c, 0, 53, 0
3, 61920, Note_on_c, 0, 46, 57
3, 61927, Control_c, 0, 64, 0
3, 61991, Control_c, 0, 64, 127
3, 62160, Note_on_c, 0, 46, 0
3, 62400, Note_on_c, 0, 53, 39
3, 62400, Note_on_c, 0, 58, 39
3, 62400, Note_on_c, 0, 62, 47
3, 62880, Note_on_c, 0, 62, 0
3, 62880, Note_on_c, 0, 58, 0
3, 62880, Note_on_c, 0, 53, 0
3, 62887, Control_c, 0, 64, 0
3, 63360, Note_on_c, 0, 41, 37
3, 63840, Note_on_c, 0, 41, 0
3, 63840, Note_on_c, 0, 48, 25
3, 63840, Note_on_c, 0, 57, 30
3, 64320, Note_on_c, 0, 57, 0
3, 64320, Note_on_c, 0, 48, 0
3, 64320, Note_on_c, 0, 48, 28
3, 64320, Note_on_c, 0, 57, 34
3, 64800, Note_on_c, 0, 57, 0
3, 64800, Note_on_c, 0, 48, 0
3, 64800, Note_on_c, 0, 41, 42
3, 65280, Note_on_c, 0, 41, 0
3, 65280, Note_on_c, 0, 50, 32
3, 65280, Note_on_c, 0, 58, 38
3, 65760, Note_on_c, 0, 58, 0
3, 65760, Note_on_c, 0, 50, 0
3, 65760, Note_on_c, 0, 50, 33
3, 65760, Note_on_c, 0, 58, 39
3, 66240, Note_on_c, 0, 58, 0
3, 66240, Note_on_c, 0, 50, 0
3, 66240, Note_on_c, 0, 41, 42
3, 66720, Note_on_c, 0, 41, 0
3, 66720, Note_on_c, 0, 48, 32
3, 66720, Note_on_c, 0, 57, 38
3, 67200, Note_on_c, 0, 57, 0
3, 67200, Note_on_c, 0, 48, 0
3, 67200, Note_on_c, 0, 48, 32
3, 67200, Note_on_c, 0, 57, 38
3, 67680, Note_on_c, 0, 57, 0
3, 67680, Note_on_c, 0, 48, 0
3, 67680, Note_on_c, 0, 41, 39
3, 67920, Note_on_c, 0, 41, 0
3, 68160, Note_on_c, 0, 50, 28
3, 68160, Note_on_c, 0, 58, 34
3, 68400, Note_on_c, 0, 58, 0
3, 68400, Note_on_c, 0, 50, 0
3, 68640, Note_on_c, 0, 41, 34
3, 68880, Note_on_c, 0, 41, 0
3, 69120, Note_on_c, 0, 48, 31
3, 69120, Note_on_c, 0, 57, 37
3, 69360, Note_on_c, 0, 57, 0
3, 69360, Note_on_c, 0, 48, 0
3, 69600, Note_on_c, 0, 41, 34
3, 69840, Note_on_c, 0, 41, 0
3, 70080, Note_on_c, 0, 48, 28
3, 70080, Note_on_c, 0, 57, 34
3, 70320, Note_on_c, 0, 57, 0
3, 70320, Note_on_c, 0, 48, 0
3, 70560, Note_on_c, 0, 41, 42
3, 70800, Note_on_c, 0, 41, 0
3, 71040, Note_on_c, 0, 50, 32
3, 71040, Note_on_c, 0, 58, 38
3, 71061, Control_c, 0, 64, 127
3, 71280, Note_on_c, 0, 58, 0
3, 71280, Note_on_c, 0, 50, 0
3, 71520, Note_on_c, 0, 41, 34
3, 71529, Control_c, 0, 64, 0
3, 71760, Note_on_c, 0, 41, 0
3, 72000, Note_on_c, 0, 48, 32
3, 72000, Note_on_c, 0, 57, 38
3, 72240, Note_on_c, 0, 57, 0
3, 72240, Note_on_c, 0, 48, 0
3, 72480, Note_on_c, 0, 41, 34
3, 72720, Note_on_c, 0, 41, 0
3, 72960, Note_on_c, 0, 48, 38
3, 72960, Note_on_c, 0, 57, 45
3, 73440, Note_on_c, 0, 57, 0
3, 73440, Note_on_c, 0, 52, 38
3, 73440, Note_on_c, 0, 58, 45
3, 73920, Note_on_c, 0, 58, 0
3, 73920, Note_on_c, 0, 52, 0
3, 73920, Note_on_c, 0, 48, 0
3, 73920, Note_on_c, 0, 53, 38
3, 73920, Note_on_c, 0, 57, 45
3, 74090, Control_c, 0, 64, 127
3, 74400, Note_on_c, 0, 57, 0
3, 74400, Note_on_c, 0, 53, 0
3, 74880, Note_on_c, 0, 41, 70
3, 74884, Control_c, 0, 64, 0
3, 75000, Control_c, 0, 64, 127
3, 75120, Note_on_c, 0, 41, 0
3, 75360, Note_on_c, 0, 63, 59
3, 75360, Note_on_c, 0, 60, 50
3, 75360, Note_on_c, 0, 53, 50
3, 75840, Note_on_c, 0, 53, 0
3, 75840, Note_on_c, 0, 60, 0
3, 75840, Note_on_c, 0, 63, 0
3, 75840, Note_on_c, 0, 63, 60
3, 75840, Note_on_c, 0, 60, 51
3, 75840, Note_on_c, 0, 53, 51
3, 75851, Control_c, 0, 64, 0
3, 76320, Note_on_c, 0, 53, 0
3, 76320, Note_on_c, 0, 60, 0
3, 76320, Note_on_c, 0, 63, 0
3, 76320, Note_on_c, 0, 46, 70
3, 76461, Control_c, 0, 64, 127
3, 76560, Note_on_c, 0, 46, 0
3, 76800, Note_on_c, 0, 62, 52
3, 76800, Note_on_c, 0, 58, 52
3, 76800, Note_on_c, 0, 53, 52
3, 77280, Note_on_c, 0, 53, 0
3, 77280, Note_on_c, 0, 58, 0
3, 77280, Note_on_c, 0, 62, 0
3, 77280, Note_on_c, 0, 46, 62
3, 77296, Control_c, 0, 64, 0
3, 77520, Note_on_c, 0, 46, 0
3, 77760, Note_on_c, 0, 39, 68
3, 77760, Note_on_c, 0, 51, 80
3, 77838, Control_c, 0, 64, 127
3, 78150, Note_on_c, 0, 51, 0
3, 78150, Note_on_c, 0, 39, 0
3, 78150, Note_on_c, 0, 55, 59
3, 78180, Note_on_c, 0, 58, 59
3, 78210, Note_on_c, 0, 63, 59
3, 78240, Note_on_c, 0, 67, 70
3, 78720, Note_on_c, 0, 67, 0
3, 78720, Note_on_c, 0, 55, 0
3, 78720, Note_on_c, 0, 58, 0
3, 78720, Note_on_c, 0, 63, 0
3, 78730, Control_c, 0, 64, 0
3, 79200, Note_on_c, 0, 46, 48
3, 79271, Control_c, 0, 64, 127
3, 79440, Note_on_c, 0, 46, 0
3, 79680, Note_on_c, 0, 62, 31
3, 79680, Note_on_c, 0, 58, 27
3, 79680, Note_on_c, 0, 53, 27
3, 80160, Note_on_c, 0, 53, 0
3, 80160, Note_on_c, 0, 58, 0
3, 80160, Note_on_c, 0, 62, 0
3, 80160, Note_on_c, 0, 62, 29
3, 80160, Note_on_c, 0, 58, 24
3, 80160, Note_on_c, 0, 53, 24
3, 80170, Control_c, 0, 64, 0
3, 80640, Note_on_c, 0, 53, 0
3, 80640, Note_on_c, 0, 58, 0
3, 80640, Note_on_c, 0, 62, 0
3, 80640, Note_on_c, 0, 41, 45
3, 80686, Control_c, 0, 64, 127
3, 80880, Note_on_c, 0, 41, 0
3, 81120, Note_on_c, 0, 63, 30
3, 81120, Note_on_c, 0, 60, 26
3, 81120, Note_on_c, 0, 53, 26
3, 81600, Note_on_c, 0, 53, 0
3, 81600, Note_on_c, 0, 60, 0
3, 81600, Note_on_c, 0, 63, 0
3, 81600, Note_on_c, 0, 63, 28
3, 81600, Note_on_c, 0, 60, 23
3, 81600, Note_on_c, 0, 53, 23
3, 81611, Control_c, 0, 64, 0
3, 82080, Note_on_c, 0, 53, 0
3, 82080, Note_on_c, 0, 60, 0
3, 82080, Note_on_c, 0, 63, 0
3, 82080, Note_on_c, 0, 46, 48
3, 82165, Control_c, 0, 64, 127
3, 82320, Note_on_c, 0, 46, 0
3, 82560, Note_on_c, 0, 62, 31
3, 82560, Note_on_c, 0, 58, 27
3, 82560, Note_on_c, 0, 53, 27
3, 83040, Note_on_c, 0, 53, 0
3, 83040, Note_on_c, 0, 58, 0
3, 83040, Note_on_c, 0, 62, 0
3, 83040, Note_on_c, 0, 62, 29
3, 83040, Note_on_c, 0, 58, 24
3, 83040, Note_on_c, 0, 53, 24
3, 83520, Note_on_c, 0, 53, 0
3, 83520, Note_on_c, 0, 58, 0
3, 83520, Note_on_c, 0, 62, 0
3, 83520, Note_on_c, 0, 41, 57
3, 83524, Control_c, 0, 64, 0
3, 83594, Control_c, 0, 64, 127
3, 83760, Note_on_c, 0, 41, 0
3, 84000, Note_on_c, 0, 53, 39
3, 84000, Note_on_c, 0, 63, 47
3, 84480, Note_on_c, 0, 63, 0
3, 84480, Note_on_c, 0, 53, 0
3, 84480, Note_on_c, 0, 53, 39
3, 84480, Note_on_c, 0, 57, 39
3, 84480, Note_on_c, 0, 63, 46
3, 84486, Control_c, 0, 64, 0
3, 84960, Note_on_c, 0, 63, 0
3, 84960, Note_on_c, 0, 57, 0
3, 84960, Note_on_c, 0, 53, 0
3, 84960, Note_on_c, 0, 46, 51
3, 85024, Control_c, 0, 64, 127
3, 85200, Note_on_c, 0, 46, 0
3, 85440, Note_on_c, 0, 53, 31
3, 85440, Note_on_c, 0, 58, 31
3, 85440, Note_on_c, 0, 62, 37
3, 85920, Note_on_c, 0, 62, 0
3, 85920, Note_on_c, 0, 58, 0
3, 85920, Note_on_c, 0, 53, 0
3, 85920, Note_on_c, 0, 53, 31
3, 85920, Note_on_c, 0, 58, 31
3, 85920, Note_on_c, 0, 62, 36
3, 85933, Control_c, 0, 64, 0
3, 86400, Note_on_c, 0, 62, 0
3, 86400, Note_on_c, 0, 58, 0
3, 86400, Note_on_c, 0, 53, 0
3, 86400, Note_on_c, 0, 46, 40
3, 86446, Control_c, 0, 64, 127
3, 86640, Note_on_c, 0, 46, 0
3, 86880, Note_on_c, 0, 63, 27
3, 86880, Note_on_c, 0, 60, 22
3, 86880, Note_on_c, 0, 53, 22
3, 87360, Note_on_c, 0, 53, 0
3, 87360, Note_on_c, 0, 60, 0
3, 87360, Note_on_c, 0, 63, 0
3, 87360, Note_on_c, 0, 63, 25
3, 87360, Note_on_c, 0, 60, 21
3, 87360, Note_on_c, 0, 53, 21
3, 87369, Control_c, 0, 64, 0
3, 87840, Note_on_c, 0, 53, 0
3, 87840, Note_on_c, 0, 60, 0
3, 87840, Note_on_c, 0, 63, 0
3, 87840, Note_on_c, 0, 46, 43
3, 87925, Control_c, 0, 64, 127
3, 88080, Note_on_c, 0, 46, 0
3, 88320, Note_on_c, 0, 62, 28
3, 88320, Note_on_c, 0, 58, 23
3, 88320, Note_on_c, 0, 53, 23
3, 88800, Note_on_c, 0, 53, 0
3, 88800, Note_on_c, 0, 58, 0
3, 88800, Note_on_c, 0, 62, 0
3, 88800, Note_on_c, 0, 62, 26
3, 88800, Note_on_c, 0, 58, 22
3, 88800, Note_on_c, 0, 53, 22
3, 89280, Note_on_c, 0, 53, 0
3, 89280, Note_on_c, 0, 58, 0
3, 89280, Note_on_c, 0, 62, 0
3, 89280, Note_on_c, 0, 41, 57
3, 89280, Control_c, 0, 64, 0
3, 89354, Control_c, 0, 64, 127
3, 89520, Note_on_c, 0, 41, 0
3, 89760, Note_on_c, 0, 53, 39
3, 89760, Note_on_c, 0, 63, 47
3, 90240, Note_on_c, 0, 63, 0
3, 90240, Note_on_c, 0, 53, 0
3, 90240, Note_on_c, 0, 53, 39
3, 90240, Note_on_c, 0, 57, 39
3, 90240, Note_on_c, 0, 63, 46
3, 90249, Control_c, 0, 64, 0
3, 90300, Control_c, 0, 64, 127
3, 90720, Note_on_c, 0, 63, 0
3, 90720, Note_on_c, 0, 57, 0
3, 90720, Note_on_c, 0, 53, 0
3, 90720, Note_on_c, 0, 46, 57
3, 90734, Control_c, 0, 64, 0
3, 90847, Control_c, 0, 64, 127
3, 90960, Note_on_c, 0, 46, 0
3, 91200, Note_on_c, 0, 53, 39
3, 91200, Note_on_c, 0, 58, 39
3, 91200, Note_on_c, 0, 62, 47
3, 91680, Note_on_c, 0, 62, 0
3, 91680, Note_on_c, 0, 58, 0
3, 91680, Note_on_c, 0, 53, 0
3, 91680, Note_on_c, 0, 46, 49
3, 91698, Control_c, 0, 64, 0
3, 92160, Note_on_c, 0, 46, 0
3, 92160, Note_on_c, 0, 42, 22
3, 92160, Note_on_c, 0, 49, 26
3, 92259, Control_c, 0, 64, 127
3, 92640, Note_on_c, 0, 49, 0
3, 92640, Note_on_c, 0, 42, 0
3, 92640, Note_on_c, 0, 42, 20
3, 92640, Note_on_c, 0, 49, 23
3, 93120, Note_on_c, 0, 49, 0
3, 93120, Note_on_c, 0, 42, 0
3, 93120, Note_on_c, 0, 42, 20
3, 93120, Note_on_c, 0, 49, 23
3, 93600, Note_on_c, 0, 49, 0
3, 93600, Note_on_c, 0, 42, 0
3, 93600, Note_on_c, 0, 42, 22
3, 93600, Note_on_c, 0, 49, 26
3, 93617, Control_c, 0, 64, 0
3, 93664, Control_c, 0, 64, 127
3, 94080, Note_on_c, 0, 49, 0
3, 94080, Note_on_c, 0, 42, 0
3, 94080, Note_on_c, 0, 42, 20
3, 94080, Note_on_c, 0, 49, 23
3, 94560, Note_on_c, 0, 49, 0
3, 94560, Note_on_c, 0, 42, 0
3, 94560, Note_on_c, 0, 42, 20
3, 94560, Note_on_c, 0, 49, 23
3, 95040, Note_on_c, 0, 49, 0
3, 95040, Note_on_c, 0, 42, 0
3, 95040, Note_on_c, 0, 42, 22
3, 95040, Note_on_c, 0, 49, 26
3, 95043, Control_c, 0, 64, 0
3, 95188, Control_c, 0, 64, 127
3, 95520, Note_on_c, 0, 49, 0
3, 95520, Note_on_c, 0, 42, 0
3, 95520, Note_on_c, 0, 42, 20
3, 95520, Note_on_c, 0, 49, 23
3, 96000, Note_on_c, 0, 49, 0
3, 96000, Note_on_c, 0, 42, 0
3, 96000, Note_on_c, 0, 42, 20
3, 96000, Note_on_c, 0, 49, 23
3, 96480, Note_on_c, 0, 49, 0
3, 96480, Note_on_c, 0, 42, 0
3, 96480, Note_on_c, 0, 42, 22
3, 96480, Note_on_c, 0, 49, 26
3, 96483, Control_c, 0, 64, 0
3, 96614, Control_c, 0, 64, 127
3, 96960, Note_on_c, 0, 49, 0
3, 96960, Note_on_c, 0, 42, 0
3, 96960, Note_on_c, 0, 42, 20
3, 96960, Note_on_c, 0, 49, 23
3, 97440, Note_on_c, 0, 49, 0
3, 97440, Note_on_c, 0, 42, 0
3, 97440, Note_on_c, 0, 42, 20
3, 97440, Note_on_c, 0, 49, 23
3, 97920, Note_on_c, 0, 49, 0
3, 97920, Note_on_c, 0, 42, 0
3, 97920, Note_on_c, 0, 42, 22
3, 97920, Note_on_c, 0, 49, 26
3, 97924, Control_c, 0, 64, 0
3, 98019, Control_c, 0, 64, 127
3, 98400, Note_on_c, 0, 49, 0
3, 98400, Note_on_c, 0, 42, 0
3, 98400, Note_on_c, 0, 42, 20
3, 98400, Note_on_c, 0, 49, 23
3, 98880, Note_on_c, 0, 49, 0
3, 98880, Note_on_c, 0, 42, 0
3, 98880, Note_on_c, 0, 42, 20
3, 98880, Note_on_c, 0, 49, 23
3, 99360, Note_on_c, 0, 49, 0
3, 99360, Note_on_c, 0, 42, 0
3, 99360, Note_on_c, 0, 42, 22
3, 99360, Note_on_c, 0, 49, 26
3, 99377, Control_c, 0, 64, 0
3, 99424, Control_c, 0, 64, 127
3, 99840, Note_on_c, 0, 49, 0
3, 99840, Note_on_c, 0, 42, 0
3, 99840, Note_on_c, 0, 42, 20
3, 99840, Note_on_c, 0, 49, 23
3, 100320, Note_on_c, 0, 49, 0
3, 100320, Note_on_c, 0, 42, 0
3, 100320, Note_on_c, 0, 42, 20
3, 100320, Note_on_c, 0, 49, 23
3, 100800, Note_on_c, 0, 49, 0
3, 100800, Note_on_c, 0, 42, 0
3, 100800, Note_on_c, 0, 42, 22
3, 100800, Note_on_c, 0, 49, 26
3, 100807, Control_c, 0, 64, 0
3, 100927, Control_c, 0, 64, 127
3, 101280, Note_on_c, 0, 49, 0
3, 101280, Note_on_c, 0, 42, 0
3, 101280, Note_on_c, 0, 42, 20
3, 101280, Note_on_c, 0, 49, 23
3, 101760, Note_on_c, 0, 49, 0
3, 101760, Note_on_c, 0, 42, 0
3, 101760, Note_on_c, 0, 42, 20
3, 101760, Note_on_c, 0, 49, 23
3, 102240, Note_on_c, 0, 49, 0
3, 102240, Note_on_c, 0, 42, 0
3, 102240, Note_on_c, 0, 41, 22
3, 102240, Note_on_c, 0, 49, 26
3, 102244, Control_c, 0, 64, 0
3, 102720, Note_on_c, 0, 49, 0
3, 102720, Note_on_c, 0, 48, 23
3, 103680, Note_on_c, 0, 48, 0
3, 103680, Note_on_c, 0, 41, 0
3, 103680, Control_c, 0, 64, 0
3, 103680, Note_on_c, 0, 41, 70
3, 103800, Control_c, 0, 64, 127
3, 103920, Note_on_c, 0, 41, 0
3, 104160, Note_on_c, 0, 63, 59
3, 104160, Note_on_c, 0, 60, 50
3, 104160, Note_on_c, 0, 53, 50
3, 104640, Note_on_c, 0, 53, 0
3, 104640, Note_on_c, 0, 60, 0
3, 104640, Note_on_c, 0, 63, 0
3, 104640, Note_on_c, 0, 63, 60
3, 104640, Note_on_c, 0, 60, 51
3, 104640, Note_on_c, 0, 53, 51
3, 105120, Note_on_c, 0, 53, 0
3, 105120, Note_on_c, 0, 60, 0
3, 105120, Note_on_c, 0, 63, 0
3, 105120, Note_on_c, 0, 46, 70
3, 105129, Control_c, 0, 64, 0
3, 105261, Control_c, 0, 64, 127
3, 105360, Note_on_c, 0, 46, 0
3, 105600, Note_on_c, 0, 62, 52
3, 105600, Note_on_c, 0, 58, 52
3, 105600, Note_on_c, 0, 53, 52
3, 106080, Note_on_c, 0, 53, 0
3, 106080, Note_on_c, 0, 58, 0
3, 106080, Note_on_c, 0, 62, 0
3, 106080, Note_on_c, 0, 46, 62
3, 106320, Note_on_c, 0, 46, 0
3, 106560, Note_on_c, 0, 39, 68
3, 106560, Note_on_c, 0, 51, 80
3, 106566, Control_c, 0, 64, 0
3, 106638, Control_c, 0, 64, 127
3, 106950, Note_on_c, 0, 51, 0
3, 106950, Note_on_c, 0, 39, 0
3, 106950, Note_on_c, 0, 55, 59
3, 106980, Note_on_c, 0, 58, 59
3, 107010, Note_on_c, 0, 63, 59
3, 107040, Note_on_c, 0, 67, 70
3, 107520, Note_on_c, 0, 67, 0
3, 107520, Note_on_c, 0, 55, 0
3, 107520, Note_on_c, 0, 58, 0
3, 107520, Note_on_c, 0, 63, 0
3, 107532, Control_c, 0, 64, 0
3, 108000, Note_on_c, 0, 46, 48
3, 108088, Control_c, 0, 64, 127
3, 108240, Note_on_c, 0, 46, 0
3, 108480, Note_on_c, 0, 62, 31
3, 108480, Note_on_c, 0, 58, 27
3, 108480, Note_on_c, 0, 53, 27
3, 108960, Note_on_c, 0, 53, 0
3, 108960, Note_on_c, 0, 58, 0
3, 108960, Note_on_c, 0, 62, 0
3, 108960, Note_on_c, 0, 62, 29
3, 108960, Note_on_c, 0, 58, 24
3, 108960, Note_on_c, 0, 53, 24
3, 109440, Note_on_c, 0, 53, 0
3, 109440, Note_on_c, 0, 58, 0
3, 109440, Note_on_c, 0, 62, 0
3, 109440, Note_on_c, 0, 41, 45
3, 109457, Control_c, 0, 64, 0
3, 109560, Control_c, 0, 64, 127
3, 109680, Note_on_c, 0, 41, 0
3, 109920, Note_on_c, 0, 63, 30
3, 109920, Note_on_c, 0, 60, 26
3, 109920, Note_on_c, 0, 53, 26
3, 110400, Note_on_c, 0, 53, 0
3, 110400, Note_on_c, 0, 60, 0
3, 110400, Note_on_c, 0, 63, 0
3, 110400, Note_on_c, 0, 63, 28
3, 110400, Note_on_c, 0, 60, 23
3, 110400, Note_on_c, 0, 53, 23
3, 110880, Note_on_c, 0, 53, 0
3, 110880, Note_on_c, 0, 60, 0
3, 110880, Note_on_c, 0, 63, 0
3, 110880, Note_on_c, 0, 46, 48
3, 110885, Control_c, 0, 64, 0
3, 111014, Control_c, 0, 64, 127
3, 111120, Note_on_c, 0, 46, 0
3, 111360, Note_on_c, 0, 62, 31
3, 111360, Note_on_c, 0, 58, 27
3, 111360, Note_on_c, 0, 53, 27
3, 111840, Note_on_c, 0, 53, 0
3, 111840, Note_on_c, 0, 58, 0
3, 111840, Note_on_c, 0, 62, 0
3, 111840, Note_on_c, 0, 62, 29
3, 111840, Note_on_c, 0, 58, 24
3, 111840, Note_on_c, 0, 53, 24
3, 112320, Note_on_c, 0, 53, 0
3, 112320, Note_on_c, 0, 58, 0
3, 112320, Note_on_c, 0, 62, 0
3, 112320, Note_on_c, 0, 41, 57
3, 112328, Control_c, 0, 64, 0
3, 112394, Control_c, 0, 64, 127
3, 112560, Note_on_c, 0, 41, 0
3, 112800, Note_on_c, 0, 53, 39
3, 112800, Note_on_c, 0, 63, 47
3, 113280, Note_on_c, 0, 63, 0
3, 113280, Note_on_c, 0, 53, 0
3, 113280, Note_on_c, 0, 53, 39
3, 113280, Note_on_c, 0, 57, 39
3, 113280, Note_on_c, 0, 63, 46
3, 113760, Note_on_c, 0, 63, 0
3, 113760, Note_on_c, 0, 57, 0
3, 113760, Note_on_c, 0, 53, 0
3, 113760, Note_on_c, 0, 46, 57
3, 113767, Control_c, 0, 64, 0
3, 113852, Control_c, 0, 64, 127
3, 114000, Note_on_c, 0, 46, 0
3, 114240, Note_on_c, 0, 53, 39
3, 114240, Note_on_c, 0, 58, 39
3, 114240, Note_on_c, 0, 62, 47
3, 114720, Note_on_c, 0, 62, 0
3, 114720, Note_on_c, 0, 58, 0
3, 114720, Note_on_c, 0, 53, 0
3, 114720, Note_on_c, 0, 53, 39
3, 114720, Note_on_c, 0, 58, 39
3, 114720, Note_on_c, 0, 62, 46
3, 115200, Note_on_c, 0, 62, 0
3, 115200, Note_on_c, 0, 58, 0
3, 115200, Note_on_c, 0, 53, 0
3, 115200, Note_on_c, 0, 46, 40
3, 115216, Control_c, 0, 64, 0
3, 115288, Control_c, 0, 64, 127
3, 115440, Note_on_c, 0, 46, 0
3, 115680, Note_on_c, 0, 63, 27
3, 115680, Note_on_c, 0, 60, 22
3, 115680, Note_on_c, 0, 53, 22
3, 116160, Note_on_c, 0, 53, 0
3, 116160, Note_on_c, 0, 60, 0
3, 116160, Note_on_c, 0, 63, 0
3, 116160, Note_on_c, 0, 63, 25
3, 116160, Note_on_c, 0, 60, 21
3, 116160, Note_on_c, 0, 53, 21
3, 116640, Note_on_c, 0, 53, 0
3, 116640, Note_on_c, 0, 60, 0
3, 116640, Note_on_c, 0, 63, 0
3, 116640, Note_on_c, 0, 46, 43
3, 116643, Control_c, 0, 64, 0
3, 116781, Control_c, 0, 64, 127
3, 116880, Note_on_c, 0, 46, 0
3, 117120, Note_on_c, 0, 62, 28
3, 117120, Note_on_c, 0, 58, 23
3, 117120, Note_on_c, 0, 53, 23
3, 117600, Note_on_c, 0, 53, 0
3, 117600, Note_on_c, 0, 58, 0
3, 117600, Note_on_c, 0, 62, 0
3, 117600, Note_on_c, 0, 62, 26
3, 117600, Note_on_c, 0, 58, 22
3, 117600, Note_on_c, 0, 53, 22
3, 118080, Note_on_c, 0, 53, 0
3, 118080, Note_on_c, 0, 58, 0
3, 118080, Note_on_c, 0, 62, 0
3, 118080, Note_on_c, 0, 41, 57
3, 118083, Control_c, 0, 64, 0
3, 118154, Control_c, 0, 64, 127
3, 118320, Note_on_c, 0, 41, 0
3, 118560, Note_on_c, 0, 53, 39
3, 118560, Note_on_c, 0, 63, 47
3, 119040, Note_on_c, 0, 63, 0
3, 119040, Note_on_c, 0, 53, 0
3, 119040, Note_on_c, 0, 53, 39
3, 119040, Note_on_c, 0, 57, 39
3, 119040, Note_on_c, 0, 63, 46
3, 119520, Note_on_c, 0, 63, 0
3, 119520, Note_on_c, 0, 57, 0
3, 119520, Note_on_c, 0, 53, 0
3, 119520, Note_on_c, 0, 46, 57
3, 119524, Control_c, 0, 64, 0
3, 119647, Control_c, 0, 64, 127
3, 119760, Note_on_c, 0, 46, 0
3, 120000, Note_on_c, 0, 53, 39
3, 120000, Note_on_c, 0, 58, 39
3, 120000, Note_on_c, 0, 62, 47
3, 120480, Note_on_c, 0, 62, 0
3, 120480, Note_on_c, 0, 58, 0
3, 120480, Note_on_c, 0, 53, 0
3, 120480, Note_on_c, 0, 46, 48
3, 120493, Control_c, 0, 64, 0
3, 120960, Note_on_c, 0, 46, 0
3, 120960, Note_on_c, 0, 42, 22
3, 120960, Note_on_c, 0, 49, 26
3, 121059, Control_c, 0, 64, 127
3, 121440, Note_on_c, 0, 49, 0
3, 121440, Note_on_c, 0, 42, 0
3, 121440, Note_on_c, 0, 42, 20
3, 121440, Note_on_c, 0, 49, 23
3, 121920, Note_on_c, 0, 49, 0
3, 121920, Note_on_c, 0, 42, 0
3, 121920, Note_on_c, 0, 42, 20
3, 121920, Note_on_c, 0, 49, 23
3, 122400, Note_on_c, 0, 49, 0
3, 122400, Note_on_c, 0, 42, 0
3, 122400, Note_on_c, 0, 42, 22
3, 122400, Note_on_c, 0, 49, 26
3, 122417, Control_c, 0, 64, 0
3, 122464, Control_c, 0, 64, 127
3, 122880, Note_on_c, 0, 49, 0
3, 122880, Note_on_c, 0, 42, 0
3, 122880, Note_on_c, 0, 42, 20
3, 122880, Note_on_c, 0, 49, 23
3, 123360, Note_on_c, 0, 49, 0
3, 123360, Note_on_c, 0, 42, 0
3, 123360, Note_on_c, 0, 42, 20
3, 123360, Note_on_c, 0, 49, 23
3, 123840, Note_on_c, 0, 49, 0
3, 123840, Note_on_c, 0, 42, 0
3, 123840, Note_on_c, 0, 42, 22
3, 123840, Note_on_c, 0, 49, 26
3, 123847, Control_c, 0, 64, 0
3, 123925, Control_c, 0, 64, 127
3, 124320, Note_on_c, 0, 49, 0
3, 124320, Note_on_c, 0, 42, 0
3, 124320, Note_on_c, 0, 42, 20
3, 124320, Note_on_c, 0, 49, 23
3, 124800, Note_on_c, 0, 49, 0
3, 124800, Note_on_c, 0, 42, 0
3, 124800, Note_on_c, 0, 42, 20
3, 124800, Note_on_c, 0, 49, 23
3, 125280, Note_on_c, 0, 49, 0
3, 125280, Note_on_c, 0, 42, 0
3, 125280, Note_on_c, 0, 42, 22
3, 125280, Note_on_c, 0, 49, 26
3, 125287, Control_c, 0, 64, 0
3, 125400, Control_c, 0, 64, 127
3, 125760, Note_on_c, 0, 49, 0
3, 125760, Note_on_c, 0, 42, 0
3, 125760, Note_on_c, 0, 42, 20
3, 125760, Note_on_c, 0, 49, 23
3, 126240, Note_on_c, 0, 49, 0
3, 126240, Note_on_c, 0, 42, 0
3, 126240, Note_on_c, 0, 42, 20
3, 126240, Note_on_c, 0, 49, 23
3, 126720, Note_on_c, 0, 49, 0
3, 126720, Note_on_c, 0, 42, 0
3, 126720, Note_on_c, 0, 42, 22
3, 126720, Note_on_c, 0, 49, 26
3, 126727, Control_c, 0, 64, 0
3, 126819, Control_c, 0, 64, 127
3, 127200, Note_on_c, 0, 49, 0
3, 127200, Note_on_c, 0, 42, 0
3, 127200, Note_on_c, 0, 42, 20
3, 127200, Note_on_c, 0, 49, 23
3, 127680, Note_on_c, 0, 49, 0
3, 127680, Note_on_c, 0, 42, 0
3, 127680, Note_on_c, 0, 42, 20
3, 127680, Note_on_c, 0, 49, 23
3, 128160, Note_on_c, 0, 49, 0
3, 128160, Note_on_c, 0, 42, 0
3, 128160, Note_on_c, 0, 42, 22
3, 128160, Note_on_c, 0, 49, 26
3, 128177, Control_c, 0, 64, 0
3, 128284, Control_c, 0, 64, 127
3, 128640, Note_on_c, 0, 49, 0
3, 128640, Note_on_c, 0, 42, 0
3, 128640, Note_on_c, 0, 42, 20
3, 128640, Note_on_c, 0, 49, 23
3, 129120, Note_on_c, 0, 49, 0
3, 129120, Note_on_c, 0, 42, 0
3, 129120, Note_on_c, 0, 42, 20
3, 129120, Note_on_c, 0, 49, 23
3, 129600, Note_on_c, 0, 49, 0
3, 129600, Note_on_c, 0, 42, 0
3, 129600, Note_on_c, 0, 42, 22
3, 129600, Note_on_c, 0, 49, 26
3, 129607, Control_c, 0, 64, 0
3, 129741, Control_c, 0, 64, 127
3, 130080, Note_on_c, 0, 49, 0
3, 130080, Note_on_c, 0, 42, 0
3, 130080, Note_on_c, 0, 42, 20
3, 130080, Note_on_c, 0, 49, 23
3, 130560, Note_on_c, 0, 49, 0
3, 130560, Note_on_c, 0, 42, 0
3, 130560, Note_on_c, 0, 42, 20
3, 130560, Note_on_c, 0, 49, 23
3, 131040, Note_on_c, 0, 49, 0
3, 131040, Note_on_c, 0, 42, 0
3, 131040, Note_on_c, 0, 41, 22
3, 131040, Note_on_c, 0, 49, 26
3, 131046, Control_c, 0, 64, 0
3, 131520, Note_on_c, 0, 49, 0
3, 131520, Note_on_c, 0, 48, 23
3, 132480, Note_on_c, 0, 48, 0
3, 132480, Note_on_c, 0, 41, 0
3, 132480, Note_on_c, 0, 41, 70
3, 132488, Control_c, 0, 64, 0
3, 132600, Control_c, 0, 64, 127
3, 132720, Note_on_c, 0, 41, 0
3, 132960, Note_on_c, 0, 63, 59
3, 132960, Note_on_c, 0, 60, 50
3, 132960, Note_on_c, 0, 53, 50
3, 133440, Note_on_c, 0, 53, 0
3, 133440, Note_on_c, 0, 60, 0
3, 133440, Note_on_c, 0, 63, 0
3, 133440, Note_on_c, 0, 63, 60
3, 133440, Note_on_c, 0, 60, 51
3, 133440, Note_on_c, 0, 53, 51
3, 133920, Note_on_c, 0, 53, 0
3, 133920, Note_on_c, 0, 60, 0
3, 133920, Note_on_c, 0, 63, 0
3, 133920, Note_on_c, 0, 46, 70
3, 133927, Control_c, 0, 64, 0
3, 134061, Control_c, 0, 64, 127
3, 134160, Note_on_c, 0, 46, 0
3, 134400, Note_on_c, 0, 62, 52
3, 134400, Note_on_c, 0, 58, 52
3, 134400, Note_on_c, 0, 53, 52
3, 134880, Note_on_c, 0, 53, 0
3, 134880, Note_on_c, 0, 58, 0
3, 134880, Note_on_c, 0, 62, 0
3, 134880, Note_on_c, 0, 46, 62
3, 135120, Note_on_c, 0, 46, 0
3, 135360, Note_on_c, 0, 39, 68
3, 135360, Note_on_c, 0, 51, 80
3, 135367, Control_c, 0, 64, 0
3, 135438, Control_c, 0, 64, 127
3, 135750, Note_on_c, 0, 51, 0
3, 135750, Note_on_c, 0, 39, 0
3, 135750, Note_on_c, 0, 55, 59
3, 135780, Note_on_c, 0, 58, 59
3, 135810, Note_on_c, 0, 63, 59
3, 135840, Note_on_c, 0, 67, 70
3, 136320, Note_on_c, 0, 67, 0
3, 136320, Note_on_c, 0, 55, 0
3, 136320, Note_on_c, 0, 58, 0
3, 136320, Note_on_c, 0, 63, 0
3, 136332, Control_c, 0, 64, 0
3, 136800, Note_on_c, 0, 46, 48
3, 136857, Control_c, 0, 64, 127
3, 137040, Note_on_c, 0, 46, 0
3, 137280, Note_on_c, 0, 62, 31
3, 137280, Note_on_c, 0, 58, 27
3, 137280, Note_on_c, 0, 53, 27
3, 137760, Note_on_c, 0, 53, 0
3, 137760, Note_on_c, 0, 58, 0
3, 137760, Note_on_c, 0, 62, 0
3, 137760, Note_on_c, 0, 62, 29
3, 137760, Note_on_c, 0, 58, 24
3, 137760, Note_on_c, 0, 53, 24
3, 138240, Note_on_c, 0, 53, 0
3, 138240, Note_on_c, 0, 58, 0
3, 138240, Note_on_c, 0, 62, 0
3, 138240, Note_on_c, 0, 41, 45
3, 138261, Control_c, 0, 64, 0
3, 138339, Control_c, 0, 64, 127
3, 138480, Note_on_c, 0, 41, 0
3, 138720, Note_on_c, 0, 63, 30
3, 138720, Note_on_c, 0, 60, 26
3, 138720, Note_on_c, 0, 53, 26
3, 139200, Note_on_c, 0, 53, 0
3, 139200, Note_on_c, 0, 60, 0
3, 139200, Note_on_c, 0, 63, 0
3, 139200, Note_on_c, 0, 63, 28
3, 139200, Note_on_c, 0, 60, 23
3, 139200, Note_on_c, 0, 53, 23
3, 139680, Note_on_c, 0, 53, 0
3, 139680, Note_on_c, 0, 60, 0
3, 139680, Note_on_c, 0, 63, 0
3, 139680, Note_on_c, 0, 46, 48
3, 139686, Control_c, 0, 64, 0
3, 139828, Control_c, 0, 64, 127
3, 139920, Note_on_c, 0, 46, 0
3, 140160, Note_on_c, 0, 62, 31
3, 140160, Note_on_c, 0, 58, 27
3, 140160, Note_on_c, 0, 53, 27
3, 140640, Note_on_c, 0, 53, 0
3, 140640, Note_on_c, 0, 58, 0
3, 140640, Note_on_c, 0, 62, 0
3, 140640, Note_on_c, 0, 62, 29
3, 140640, Note_on_c, 0, 58, 24
3, 140640, Note_on_c, 0, 53, 24
3, 141120, Note_on_c, 0, 53, 0
3, 141120, Note_on_c, 0, 58, 0
3, 141120, Note_on_c, 0, 62, 0
3, 141120, Note_on_c, 0, 41, 57
3, 141128, Control_c, 0, 64, 0
3, 141194, Control_c, 0, 64, 127
3, 141360, Note_on_c, 0, 41, 0
3, 141600, Note_on_c, 0, 53, 39
3, 141600, Note_on_c, 0, 63, 47
3, 142080, Note_on_c, 0, 63, 0
3, 142080, Note_on_c, 0, 53, 0
3, 142080, Note_on_c, 0, 53, 39
3, 142080, Note_on_c, 0, 57, 39
3, 142080, Note_on_c, 0, 63, 46
3, 142560, Note_on_c, 0, 63, 0
3, 142560, Note_on_c, 0, 57, 0
3, 142560, Note_on_c, 0, 53, 0
3, 142560, Note_on_c, 0, 46, 51
3, 142569, Control_c, 0, 64, 0
3, 142624, Control_c, 0, 64, 127
3, 142800, Note_on_c, 0, 46, 0
3, 143040, Note_on_c, 0, 53, 31
3, 143040, Note_on_c, 0, 58, 31
3, 143040, Note_on_c, 0, 62, 37
3, 143520, Note_on_c, 0, 62, 0
3, 143520, Note_on_c, 0, 58, 0
3, 143520, Note_on_c, 0, 53, 0
3, 143520, Note_on_c, 0, 53, 31
3, 143520, Note_on_c, 0, 58, 31
3, 143520, Note_on_c, 0, 62, 36
3, 144000, Note_on_c, 0, 62, 0
3, 144000, Note_on_c, 0, 58, 0
3, 144000, Note_on_c, 0, 53, 0
3, 144000, Note_on_c, 0, 46, 40
3, 144019, Control_c, 0, 64, 0
3, 144092, Control_c, 0, 64, 127
3, 144240, Note_on_c, 0, 46, 0
3, 144480, Note_on_c, 0, 63, 27
3, 144480, Note_on_c, 0, 60, 22
3, 144480, Note_on_c, 0, 53, 22
3, 144960, Note_on_c, 0, 53, 0
3, 144960, Note_on_c, 0, 60, 0
3, 144960, Note_on_c, 0, 63, 0
3, 144960, Note_on_c, 0, 63, 25
3, 144960, Note_on_c, 0, 60, 21
3, 144960, Note_on_c, 0, 53, 21
3, 145440, Note_on_c, 0, 53, 0
3, 145440, Note_on_c, 0, 60, 0
3, 145440, Note_on_c, 0, 63, 0
3, 145440, Note_on_c, 0, 46, 43
3, 145445, Control_c, 0, 64, 0
3, 145617, Control_c, 0, 64, 127
3, 145680, Note_on_c, 0, 46, 0
3, 145920, Note_on_c, 0, 62, 28
3, 145920, Note_on_c, 0, 58, 23
3, 145920, Note_on_c, 0, 53, 23
3, 146400, Note_on_c, 0, 53, 0
3, 146400, Note_on_c, 0, 58, 0
3, 146400, Note_on_c, 0, 62, 0
3, 146400, Note_on_c, 0, 62, 26
3, 146400, Note_on_c, 0, 58, 22
3, 146400, Note_on_c, 0, 53, 22
3, 146880, Note_on_c, 0, 53, 0
3, 146880, Note_on_c, 0, 58, 0
3, 146880, Note_on_c, 0, 62, 0
3, 146880, Note_on_c, 0, 41, 57
3, 146883, Control_c, 0, 64, 0
3, 146954, Control_c, 0, 64, 127
3, 147120, Note_on_c, 0, 41, 0
3, 147360, Note_on_c, 0, 53, 41
3, 147360, Note_on_c, 0, 63, 49
3, 147840, Note_on_c, 0, 63, 0
3, 147840, Note_on_c, 0, 53, 0
3, 147840, Note_on_c, 0, 53, 44
3, 147840, Note_on_c, 0, 57, 44
3, 147840, Note_on_c, 0, 63, 51
3, 148320, Note_on_c, 0, 63, 0
3, 148320, Note_on_c, 0, 57, 0
3, 148320, Note_on_c, 0, 53, 0
3, 148320, Control_c, 0, 64, 0
3, 148320, Note_on_c, 0, 46, 68
3, 148490, Control_c, 0, 64, 127
3, 148800, Note_on_c, 0, 46, 0
3, 148800, Note_on_c, 0, 46, 46
3, 148800, Note_on_c, 0, 53, 46
3, 148800, Note_on_c, 0, 62, 56
3, 149760, Note_on_c, 0, 62, 0
3, 149760, Note_on_c, 0, 53, 0
3, 149760, Note_on_c, 0, 46, 0
3, 150134, Control_c, 0, 64, 0
3, 150134, End_track
4, 0, Start_track
4, 0, Title_t, "Chopin: Mazurka Opus 7 No 1"
4, 0, End_track
5, 0, Start_track
5, 0, Title_t, "Copyright © 2003 by Bernd Krueger"
5, 0, End_track
6, 0, Start_track
6, 0, Title_t, "http://www.piano-midi.de"
6, 0, End_track
7, 0, Start_track
7, 0, Title_t, "Edition: 2014-02-11"
7, 0, End_track
8, 0, Start_track
8, 0, Title_t, "Spur 7"
8, 0, End_track
0, 0, End_of_file
