0, 0, Header, 1, 8, 480
1, 0, Start_track
1, 0, Title_t, "Etüde Opus 25, No. 11"
1, 0, Title_t, "Sturmetüde"
1, 0, Copyright_t, "Copyright © 1999 von Bernd Krüger. http://www.piano-midi.de"
1, 0, Text_t, "Chopin"
1, 0, Text_t, "Allecro con brio"
1, 0, Text_t, "Fertiggestellt am 8.3.99\012"
1, 0, Text_t, "Update am 9.3.99\012"
1, 0, Text_t, "Update am 15.3.99\012"
1, 0, Text_t, "Update am 16.3.99\012"
1, 0, Text_t, "Normierung: 23.12.2002\012"
1, 0, Text_t, "Update am 18.2.2014\012"
1, 0, Text_t, "Dauer3:06  Minuten\012"
1, 0, Time_signature, 4, 2, 24, 8
1, 0, Key_signature, 0, "major"
1, 0, Tempo, 813449
1, 0, Marker_t, "Lento"
1, 1440, Tempo, 813449
1, 2880, Tempo, 841043
1, 3840, Tempo, 813890
1, 5280, Tempo, 838809
1, 5760, Tempo, 914216
1, 6240, Tempo, 986031
1, 6720, Tempo, 1233299
1, 7200, Tempo, 1336898
1, 7680, Tempo, 482703
1, 7680, Marker_t, "Allegro con brio"
1, 8160, Tempo, 464936
1, 8640, Tempo, 470146
1, 9120, Tempo, 456586
1, 9600, Tempo, 471884
1, 10080, Tempo, 497801
1, 10560, Tempo, 459946
1, 11520, Tempo, 473672
1, 12000, Tempo, 464936
1, 12480, Tempo, 473672
1, 12960, Tempo, 455028
1, 13440, Tempo, 471884
1, 13920, Tempo, 492005
1, 14400, Tempo, 466672
1, 15360, Tempo, 484457
1, 15840, Tempo, 463285
1, 16800, Tempo, 473672
1, 17760, Tempo, 463285
1, 18720, Tempo, 470146
1, 19680, Tempo, 466672
1, 20640, Tempo, 477213
1, 23040, Tempo, 482703
1, 23520, Tempo, 464936
1, 24000, Tempo, 470146
1, 24480, Tempo, 464936
1, 24960, Tempo, 471884
1, 25440, Tempo, 497801
1, 25920, Tempo, 459946
1, 26880, Tempo, 473672
1, 27360, Tempo, 464936
1, 27840, Tempo, 473672
1, 28320, Tempo, 464936
1, 28800, Tempo, 471884
1, 29280, Tempo, 492005
1, 29760, Tempo, 466672
1, 30720, Tempo, 473672
1, 31200, Tempo, 463285
1, 32160, Tempo, 470146
1, 33120, Tempo, 463285
1, 34080, Tempo, 471884
1, 36960, Tempo, 464936
1, 38400, Tempo, 473672
1, 38880, Tempo, 466672
1, 39840, Tempo, 475436
1, 42240, Tempo, 482703
1, 42720, Tempo, 464936
1, 43200, Tempo, 470146
1, 43680, Tempo, 456586
1, 44160, Tempo, 471884
1, 44640, Tempo, 497801
1, 45120, Tempo, 459946
1, 46080, Tempo, 473672
1, 46560, Tempo, 464936
1, 47040, Tempo, 473672
1, 47520, Tempo, 455028
1, 48000, Tempo, 471884
1, 48480, Tempo, 492005
1, 48960, Tempo, 466672
1, 49920, Tempo, 484457
1, 50400, Tempo, 468384
1, 51360, Tempo, 473672
1, 51840, Tempo, 480808
1, 52320, Tempo, 501672
1, 52560, Tempo, 480808
1, 53280, Tempo, 470146
1, 54240, Tempo, 466672
1, 55200, Tempo, 477213
1, 57600, Tempo, 482703
1, 58080, Tempo, 464936
1, 58560, Tempo, 470146
1, 59040, Tempo, 461574
1, 59520, Tempo, 471884
1, 60000, Tempo, 497801
1, 60480, Tempo, 459946
1, 61440, Tempo, 473672
1, 61920, Tempo, 464936
1, 62400, Tempo, 473672
1, 62880, Tempo, 464936
1, 63360, Tempo, 471884
1, 63840, Tempo, 492005
1, 64320, Tempo, 466672
1, 65280, Tempo, 473672
1, 65760, Tempo, 463285
1, 66720, Tempo, 470146
1, 67680, Tempo, 463285
1, 68640, Tempo, 471884
1, 71520, Tempo, 464936
1, 72960, Tempo, 473672
1, 73440, Tempo, 466672
1, 74400, Tempo, 475436
1, 75840, Tempo, 475436
1, 75920, Tempo, 477213
1, 75960, Tempo, 478965
1, 76040, Tempo, 480808
1, 76080, Tempo, 482703
1, 76160, Tempo, 484457
1, 76200, Tempo, 486381
1, 76280, Tempo, 488242
1, 76320, Tempo, 490076
1, 76560, Tempo, 564175
1, 76800, Tempo, 482703
1, 77266, Tempo, 464936
1, 77746, Tempo, 470146
1, 78226, Tempo, 456586
1, 78706, Tempo, 471884
1, 79186, Tempo, 497801
1, 79666, Tempo, 459946
1, 80640, Tempo, 482703
1, 81106, Tempo, 464936
1, 81586, Tempo, 470146
1, 82066, Tempo, 456586
1, 82546, Tempo, 471884
1, 83026, Tempo, 497801
1, 83506, Tempo, 459946
1, 84000, Tempo, 473672
1, 84240, Tempo, 527287
1, 84480, Tempo, 475436
1, 84960, Tempo, 463285
1, 86400, Tempo, 471884
1, 86880, Tempo, 459946
1, 87840, Tempo, 475436
1, 88320, Tempo, 475436
1, 88800, Tempo, 466672
1, 90240, Tempo, 475436
1, 90720, Tempo, 471884
1, 91680, Tempo, 490076
1, 92160, Tempo, 477213
1, 92640, Tempo, 470146
1, 93120, Tempo, 480808
1, 93600, Tempo, 470146
1, 94080, Tempo, 475436
1, 95040, Tempo, 480808
1, 95520, Tempo, 470146
1, 96000, Tempo, 477213
1, 96480, Tempo, 470146
1, 96960, Tempo, 480808
1, 97440, Tempo, 470146
1, 97920, Tempo, 475436
1, 98880, Tempo, 480808
1, 99360, Tempo, 470146
1, 99840, Tempo, 478660
1, 100320, Tempo, 484614
1, 100800, Tempo, 478660
1, 101280, Tempo, 482664
1, 101760, Tempo, 478660
1, 102720, Tempo, 478660
1, 103680, Tempo, 484457
1, 104160, Tempo, 468384
1, 105120, Tempo, 478965
1, 105600, Tempo, 484457
1, 106080, Tempo, 468384
1, 107520, Tempo, 478965
1, 108000, Tempo, 473672
1, 108480, Tempo, 473672
1, 109440, Tempo, 478965
1, 109920, Tempo, 473672
1, 111360, Tempo, 488242
1, 111840, Tempo, 478965
1, 112320, Tempo, 484457
1, 112800, Tempo, 473672
1, 113280, Tempo, 480808
1, 113760, Tempo, 497801
1, 114240, Tempo, 466672
1, 115200, Tempo, 468384
1, 119040, Tempo, 468384
1, 129600, Tempo, 466672
1, 129760, Tempo, 468384
1, 129880, Tempo, 470146
1, 130000, Tempo, 471884
1, 130120, Tempo, 473672
1, 130240, Tempo, 475436
1, 130360, Tempo, 477213
1, 130480, Tempo, 478965
1, 130560, Tempo, 482703
1, 131040, Tempo, 464936
1, 131520, Tempo, 470146
1, 132000, Tempo, 456586
1, 132480, Tempo, 471884
1, 132960, Tempo, 497801
1, 133440, Tempo, 459946
1, 134400, Tempo, 473672
1, 134880, Tempo, 464936
1, 135360, Tempo, 473672
1, 135840, Tempo, 455028
1, 136320, Tempo, 471884
1, 136800, Tempo, 492005
1, 137280, Tempo, 466672
1, 138240, Tempo, 484457
1, 138720, Tempo, 463285
1, 139680, Tempo, 473672
1, 140640, Tempo, 463285
1, 141600, Tempo, 470146
1, 142560, Tempo, 466672
1, 143520, Tempo, 477213
1, 145920, Tempo, 482703
1, 146400, Tempo, 464936
1, 146880, Tempo, 470146
1, 147360, Tempo, 456586
1, 147840, Tempo, 471884
1, 148320, Tempo, 497801
1, 148800, Tempo, 459946
1, 149760, Tempo, 473672
1, 150240, Tempo, 464936
1, 150720, Tempo, 473672
1, 151200, Tempo, 463464
1, 151680, Tempo, 471884
1, 152160, Tempo, 492005
1, 152640, Tempo, 466672
1, 153600, Tempo, 473672
1, 154080, Tempo, 463285
1, 155040, Tempo, 478965
1, 155520, Tempo, 471884
1, 156000, Tempo, 463285
1, 156960, Tempo, 478965
1, 157440, Tempo, 482703
1, 157920, Tempo, 470146
1, 158400, Tempo, 477213
1, 158880, Tempo, 466672
1, 159360, Tempo, 471884
1, 159840, Tempo, 497801
1, 160320, Tempo, 459946
1, 166080, Tempo, 458260
1, 166120, Tempo, 456586
1, 166440, Tempo, 458260
1, 166760, Tempo, 459946
1, 167040, Tempo, 461574
1, 167360, Tempo, 463285
1, 167680, Tempo, 464936
1, 167960, Tempo, 466672
1, 168000, Tempo, 524521
1, 168480, Tempo, 564175
1, 168960, Tempo, 459946
1, 174720, Tempo, 466672
1, 175200, Tempo, 466672
1, 175320, Tempo, 468384
1, 175400, Tempo, 470146
1, 175480, Tempo, 471884
1, 175600, Tempo, 473672
1, 175680, Tempo, 475436
1, 175760, Tempo, 477213
1, 175880, Tempo, 478965
1, 175960, Tempo, 480808
1, 176040, Tempo, 482703
1, 176160, Tempo, 484457
1, 176240, Tempo, 486381
1, 176320, Tempo, 488242
1, 176440, Tempo, 490076
1, 176520, Tempo, 492005
1, 176600, Tempo, 493949
1, 176640, Tempo, 480808
1, 180480, Time_signature, 9, 2, 24, 8
1, 180480, Tempo, 352589
1, 181440, Tempo, 308817
1, 181480, Tempo, 308071
1, 181520, Tempo, 307314
1, 181560, Tempo, 305842
1, 181600, Tempo, 305095
1, 181640, Tempo, 304383
1, 181680, Tempo, 302939
1, 181720, Tempo, 302191
1, 181760, Tempo, 301492
1, 181800, Tempo, 300030
1, 181840, Tempo, 299371
1, 181880, Tempo, 297929
1, 181920, Tempo, 288462
1, 182080, Tempo, 287811
1, 182200, Tempo, 287164
1, 182320, Tempo, 286506
1, 182440, Tempo, 285864
1, 182560, Tempo, 285212
1, 182680, Tempo, 284589
1, 182800, Tempo, 283943
1, 182960, Tempo, 283313
1, 183080, Tempo, 282699
1, 183200, Tempo, 282034
1, 183320, Tempo, 281439
1, 183440, Tempo, 280807
1, 183560, Tempo, 280177
1, 183680, Tempo, 279577
1, 183800, Tempo, 278953
1, 183960, Tempo, 278332
1, 184080, Tempo, 277726
1, 184200, Tempo, 277136
1, 184320, Tempo, 276523
1, 184440, Tempo, 275913
1, 184560, Tempo, 275318
1, 184680, Tempo, 274738
1, 184800, Time_signature, 4, 2, 24, 8
1, 184800, Tempo, 274135
1, 184840, Tempo, 310334
1, 185041, Tempo, 293399
1, 185041, Marker_t, "Fine"
1, 185041, End_track
2, 0, Start_track
2, 0, Title_t, "Piano right"
2, 0, Program_c, 0, 0
2, 0, Control_c, 0, 7, 100
2, 0, Control_c, 0, 10, 64
2, 0, Control_c, 0, 91, 127
2, 0, Note_on_c, 0, 64, 60
2, 0, Control_c, 0, 91, 127
2, 0, Text_t, "bdca426d104a26ac9dcb070447587523"
2, 480, Note_on_c, 0, 64, 0
2, 480, Note_on_c, 0, 64, 60
2, 840, Note_on_c, 0, 64, 0
2, 840, Note_on_c, 0, 64, 57
2, 960, Note_on_c, 0, 64, 0
2, 960, Note_on_c, 0, 64, 60
2, 1440, Note_on_c, 0, 64, 0
2, 1440, Note_on_c, 0, 65, 58
2, 1920, Note_on_c, 0, 65, 0
2, 1920, Note_on_c, 0, 64, 60
2, 2400, Note_on_c, 0, 64, 0
2, 2400, Note_on_c, 0, 60, 58
2, 2880, Note_on_c, 0, 60, 0
2, 2880, Note_on_c, 0, 64, 60
2, 3840, Note_on_c, 0, 64, 0
2, 3840, Note_on_c, 0, 64, 38
2, 3840, Note_on_c, 0, 55, 28
2, 3840, Note_on_c, 0, 60, 28
2, 4320, Note_on_c, 0, 60, 0
2, 4320, Note_on_c, 0, 55, 0
2, 4320, Note_on_c, 0, 64, 0
2, 4320, Note_on_c, 0, 64, 38
2, 4320, Note_on_c, 0, 55, 28
2, 4320, Note_on_c, 0, 60, 28
2, 4680, Note_on_c, 0, 60, 0
2, 4680, Note_on_c, 0, 55, 0
2, 4680, Note_on_c, 0, 64, 0
2, 4680, Note_on_c, 0, 55, 26
2, 4680, Note_on_c, 0, 64, 36
2, 4680, Note_on_c, 0, 60, 26
2, 4800, Note_on_c, 0, 60, 0
2, 4800, Note_on_c, 0, 64, 0
2, 4800, Note_on_c, 0, 55, 0
2, 4800, Note_on_c, 0, 60, 28
2, 4800, Note_on_c, 0, 55, 28
2, 4800, Note_on_c, 0, 64, 38
2, 5280, Note_on_c, 0, 64, 0
2, 5280, Note_on_c, 0, 55, 0
2, 5280, Note_on_c, 0, 60, 0
2, 5280, Note_on_c, 0, 65, 36
2, 5280, Note_on_c, 0, 57, 26
2, 5280, Note_on_c, 0, 60, 26
2, 5760, Note_on_c, 0, 60, 0
2, 5760, Note_on_c, 0, 57, 0
2, 5760, Note_on_c, 0, 65, 0
2, 5760, Note_on_c, 0, 60, 26
2, 5760, Note_on_c, 0, 55, 26
2, 5760, Note_on_c, 0, 64, 36
2, 6240, Note_on_c, 0, 64, 0
2, 6240, Note_on_c, 0, 55, 0
2, 6240, Note_on_c, 0, 60, 0
2, 6240, Note_on_c, 0, 57, 25
2, 6240, Note_on_c, 0, 60, 34
2, 6720, Note_on_c, 0, 60, 0
2, 6720, Note_on_c, 0, 57, 0
2, 6720, Note_on_c, 0, 60, 22
2, 6720, Note_on_c, 0, 64, 31
2, 6720, Note_on_c, 0, 55, 22
2, 7200, Note_on_c, 0, 55, 0
2, 7200, Note_on_c, 0, 60, 0
2, 7200, Note_on_c, 0, 62, 19
2, 7200, Note_on_c, 0, 56, 19
2, 7678, Note_on_c, 0, 101, 96
2, 7680, Note_on_c, 0, 56, 0
2, 7680, Note_on_c, 0, 64, 0
2, 7680, Note_on_c, 0, 62, 0
2, 7758, Note_on_c, 0, 101, 0
2, 7761, Note_on_c, 0, 96, 71
2, 7839, Note_on_c, 0, 100, 91
2, 7841, Note_on_c, 0, 96, 0
2, 7919, Note_on_c, 0, 100, 0
2, 7922, Note_on_c, 0, 93, 71
2, 8001, Note_on_c, 0, 99, 84
2, 8002, Note_on_c, 0, 93, 0
2, 8080, Note_on_c, 0, 96, 71
2, 8081, Note_on_c, 0, 99, 0
2, 8160, Note_on_c, 0, 96, 0
2, 8160, Note_on_c, 0, 98, 82
2, 8240, Note_on_c, 0, 98, 0
2, 8243, Note_on_c, 0, 93, 69
2, 8322, Note_on_c, 0, 97, 79
2, 8323, Note_on_c, 0, 93, 0
2, 8402, Note_on_c, 0, 97, 0
2, 8402, Note_on_c, 0, 93, 69
2, 8479, Note_on_c, 0, 96, 79
2, 8482, Note_on_c, 0, 93, 0
2, 8559, Note_on_c, 0, 96, 0
2, 8563, Note_on_c, 0, 88, 69
2, 8642, Note_on_c, 0, 95, 78
2, 8643, Note_on_c, 0, 88, 0
2, 8721, Note_on_c, 0, 88, 71
2, 8722, Note_on_c, 0, 95, 0
2, 8799, Note_on_c, 0, 94, 78
2, 8801, Note_on_c, 0, 88, 0
2, 8878, Note_on_c, 0, 84, 71
2, 8879, Note_on_c, 0, 94, 0
2, 8958, Note_on_c, 0, 84, 0
2, 8958, Note_on_c, 0, 93, 78
2, 9038, Note_on_c, 0, 93, 0
2, 9040, Note_on_c, 0, 88, 71
2, 9118, Note_on_c, 0, 92, 78
2, 9120, Note_on_c, 0, 88, 0
2, 9198, Note_on_c, 0, 92, 0
2, 9198, Note_on_c, 0, 84, 69
2, 9278, Note_on_c, 0, 84, 0
2, 9283, Note_on_c, 0, 91, 71
2, 9360, Note_on_c, 0, 84, 69
2, 9363, Note_on_c, 0, 91, 0
2, 9438, Note_on_c, 0, 90, 71
2, 9440, Note_on_c, 0, 84, 0
2, 9518, Note_on_c, 0, 90, 0
2, 9518, Note_on_c, 0, 81, 69
2, 9598, Note_on_c, 0, 81, 0
2, 9598, Note_on_c, 0, 89, 78
2, 9678, Note_on_c, 0, 89, 0
2, 9680, Note_on_c, 0, 84, 71
2, 9760, Note_on_c, 0, 84, 0
2, 9761, Note_on_c, 0, 88, 78
2, 9841, Note_on_c, 0, 88, 0
2, 9841, Note_on_c, 0, 81, 71
2, 9921, Note_on_c, 0, 81, 0
2, 9921, Note_on_c, 0, 87, 78
2, 10001, Note_on_c, 0, 87, 0
2, 10001, Note_on_c, 0, 84, 71
2, 10078, Note_on_c, 0, 86, 78
2, 10081, Note_on_c, 0, 84, 0
2, 10158, Note_on_c, 0, 86, 0
2, 10161, Note_on_c, 0, 81, 69
2, 10240, Note_on_c, 0, 85, 71
2, 10241, Note_on_c, 0, 81, 0
2, 10320, Note_on_c, 0, 85, 0
2, 10320, Note_on_c, 0, 81, 69
2, 10398, Note_on_c, 0, 84, 71
2, 10400, Note_on_c, 0, 81, 0
2, 10478, Note_on_c, 0, 84, 0
2, 10481, Note_on_c, 0, 76, 69
2, 10561, Note_on_c, 0, 76, 0
2, 10562, Note_on_c, 0, 83, 71
2, 10642, Note_on_c, 0, 83, 0
2, 10642, Note_on_c, 0, 76, 69
2, 10721, Note_on_c, 0, 82, 71
2, 10722, Note_on_c, 0, 76, 0
2, 10799, Note_on_c, 0, 72, 69
2, 10801, Note_on_c, 0, 82, 0
2, 10879, Note_on_c, 0, 72, 0
2, 10883, Note_on_c, 0, 81, 71
2, 10962, Note_on_c, 0, 76, 69
2, 10963, Note_on_c, 0, 81, 0
2, 11042, Note_on_c, 0, 76, 0
2, 11043, Note_on_c, 0, 80, 71
2, 11123, Note_on_c, 0, 80, 0
2, 11123, Note_on_c, 0, 72, 69
2, 11201, Note_on_c, 0, 79, 71
2, 11203, Note_on_c, 0, 72, 0
2, 11278, Note_on_c, 0, 72, 69
2, 11281, Note_on_c, 0, 79, 0
2, 11358, Note_on_c, 0, 72, 0
2, 11360, Note_on_c, 0, 78, 71
2, 11439, Note_on_c, 0, 69, 69
2, 11440, Note_on_c, 0, 78, 0
2, 11519, Note_on_c, 0, 69, 0
2, 11523, Note_on_c, 0, 77, 56
2, 11599, Note_on_c, 0, 72, 51
2, 11603, Note_on_c, 0, 77, 0
2, 11679, Note_on_c, 0, 72, 0
2, 11682, Note_on_c, 0, 76, 56
2, 11762, Note_on_c, 0, 76, 0
2, 11763, Note_on_c, 0, 69, 56
2, 11843, Note_on_c, 0, 69, 0
2, 11843, Note_on_c, 0, 75, 56
2, 11923, Note_on_c, 0, 75, 0
2, 11923, Note_on_c, 0, 72, 51
2, 12001, Note_on_c, 0, 74, 56
2, 12003, Note_on_c, 0, 72, 0
2, 12080, Note_on_c, 0, 69, 51
2, 12081, Note_on_c, 0, 74, 0
2, 12159, Note_on_c, 0, 73, 56
2, 12160, Note_on_c, 0, 69, 0
2, 12239, Note_on_c, 0, 73, 0
2, 12239, Note_on_c, 0, 69, 51
2, 12319, Note_on_c, 0, 69, 0
2, 12323, Note_on_c, 0, 72, 56
2, 12398, Note_on_c, 0, 64, 51
2, 12403, Note_on_c, 0, 72, 0
2, 12478, Note_on_c, 0, 64, 0
2, 12480, Note_on_c, 0, 71, 56
2, 12558, Note_on_c, 0, 64, 50
2, 12560, Note_on_c, 0, 71, 0
2, 12638, Note_on_c, 0, 64, 0
2, 12642, Note_on_c, 0, 70, 55
2, 12718, Note_on_c, 0, 60, 49
2, 12722, Note_on_c, 0, 70, 0
2, 12798, Note_on_c, 0, 60, 0
2, 12798, Note_on_c, 0, 69, 53
2, 12878, Note_on_c, 0, 69, 0
2, 12883, Note_on_c, 0, 64, 47
2, 12959, Note_on_c, 0, 68, 50
2, 12963, Note_on_c, 0, 64, 0
2, 13039, Note_on_c, 0, 68, 0
2, 13039, Note_on_c, 0, 60, 46
2, 13119, Note_on_c, 0, 60, 0
2, 13121, Note_on_c, 0, 67, 49
2, 13201, Note_on_c, 0, 67, 0
2, 13202, Note_on_c, 0, 60, 46
2, 13282, Note_on_c, 0, 60, 0
2, 13283, Note_on_c, 0, 66, 47
2, 13362, Note_on_c, 0, 57, 45
2, 13363, Note_on_c, 0, 66, 0
2, 13440, Note_on_c, 0, 65, 47
2, 13442, Note_on_c, 0, 57, 0
2, 13519, Note_on_c, 0, 60, 45
2, 13520, Note_on_c, 0, 65, 0
2, 13599, Note_on_c, 0, 60, 0
2, 13602, Note_on_c, 0, 64, 47
2, 13680, Note_on_c, 0, 57, 45
2, 13682, Note_on_c, 0, 64, 0
2, 13760, Note_on_c, 0, 57, 0
2, 13760, Note_on_c, 0, 63, 46
2, 13840, Note_on_c, 0, 63, 0
2, 13843, Note_on_c, 0, 60, 44
2, 13922, Note_on_c, 0, 62, 45
2, 13923, Note_on_c, 0, 60, 0
2, 13998, Note_on_c, 0, 57, 42
2, 14002, Note_on_c, 0, 62, 0
2, 14078, Note_on_c, 0, 57, 0
2, 14081, Note_on_c, 0, 61, 45
2, 14160, Note_on_c, 0, 57, 40
2, 14161, Note_on_c, 0, 61, 0
2, 14240, Note_on_c, 0, 57, 0
2, 14242, Note_on_c, 0, 60, 44
2, 14321, Note_on_c, 0, 52, 42
2, 14322, Note_on_c, 0, 60, 0
2, 14401, Note_on_c, 0, 52, 0
2, 14401, Note_on_c, 0, 59, 44
2, 14480, Note_on_c, 0, 52, 42
2, 14481, Note_on_c, 0, 59, 0
2, 14558, Note_on_c, 0, 58, 47
2, 14560, Note_on_c, 0, 52, 0
2, 14638, Note_on_c, 0, 58, 0
2, 14639, Note_on_c, 0, 48, 45
2, 14719, Note_on_c, 0, 48, 0
2, 14720, Note_on_c, 0, 57, 49
2, 14800, Note_on_c, 0, 57, 0
2, 14802, Note_on_c, 0, 52, 47
2, 14881, Note_on_c, 0, 56, 53
2, 14882, Note_on_c, 0, 52, 0
2, 14961, Note_on_c, 0, 56, 0
2, 14963, Note_on_c, 0, 48, 49
2, 15042, Note_on_c, 0, 57, 56
2, 15043, Note_on_c, 0, 48, 0
2, 15120, Note_on_c, 0, 52, 53
2, 15122, Note_on_c, 0, 57, 0
2, 15199, Note_on_c, 0, 60, 59
2, 15200, Note_on_c, 0, 52, 0
2, 15279, Note_on_c, 0, 60, 0
2, 15281, Note_on_c, 0, 53, 59
2, 15360, Note_on_c, 0, 64, 59
2, 15361, Note_on_c, 0, 53, 0
2, 15438, Note_on_c, 0, 59, 59
2, 15440, Note_on_c, 0, 64, 0
2, 15518, Note_on_c, 0, 59, 0
2, 15522, Note_on_c, 0, 62, 59
2, 15601, Note_on_c, 0, 65, 59
2, 15602, Note_on_c, 0, 62, 0
2, 15678, Note_on_c, 0, 76, 59
2, 15681, Note_on_c, 0, 65, 0
2, 15758, Note_on_c, 0, 76, 0
2, 15763, Note_on_c, 0, 71, 59
2, 15838, Note_on_c, 0, 74, 62
2, 15843, Note_on_c, 0, 71, 0
2, 15918, Note_on_c, 0, 74, 0
2, 15923, Note_on_c, 0, 77, 64
2, 16002, Note_on_c, 0, 88, 67
2, 16003, Note_on_c, 0, 77, 0
2, 16079, Note_on_c, 0, 83, 68
2, 16082, Note_on_c, 0, 88, 0
2, 16159, Note_on_c, 0, 83, 0
2, 16160, Note_on_c, 0, 86, 69
2, 16238, Note_on_c, 0, 77, 70
2, 16240, Note_on_c, 0, 86, 0
2, 16318, Note_on_c, 0, 77, 0
2, 16323, Note_on_c, 0, 86, 69
2, 16402, Note_on_c, 0, 81, 68
2, 16403, Note_on_c, 0, 86, 0
2, 16478, Note_on_c, 0, 84, 67
2, 16482, Note_on_c, 0, 81, 0
2, 16558, Note_on_c, 0, 84, 0
2, 16563, Note_on_c, 0, 77, 66
2, 16642, Note_on_c, 0, 74, 64
2, 16643, Note_on_c, 0, 77, 0
2, 16721, Note_on_c, 0, 69, 62
2, 16722, Note_on_c, 0, 74, 0
2, 16799, Note_on_c, 0, 72, 58
2, 16801, Note_on_c, 0, 69, 0
2, 16879, Note_on_c, 0, 72, 0
2, 16879, Note_on_c, 0, 65, 58
2, 16959, Note_on_c, 0, 65, 0
2, 16962, Note_on_c, 0, 62, 58
2, 17040, Note_on_c, 0, 57, 58
2, 17042, Note_on_c, 0, 62, 0
2, 17118, Note_on_c, 0, 60, 58
2, 17120, Note_on_c, 0, 57, 0
2, 17198, Note_on_c, 0, 60, 0
2, 17201, Note_on_c, 0, 53, 58
2, 17281, Note_on_c, 0, 53, 0
2, 17282, Note_on_c, 0, 64, 59
2, 17360, Note_on_c, 0, 59, 59
2, 17362, Note_on_c, 0, 64, 0
2, 17439, Note_on_c, 0, 62, 59
2, 17440, Note_on_c, 0, 59, 0
2, 17519, Note_on_c, 0, 62, 0
2, 17521, Note_on_c, 0, 65, 59
2, 17601, Note_on_c, 0, 65, 0
2, 17602, Note_on_c, 0, 76, 59
2, 17682, Note_on_c, 0, 76, 0
2, 17682, Note_on_c, 0, 71, 59
2, 17762, Note_on_c, 0, 71, 0
2, 17762, Note_on_c, 0, 74, 64
2, 17840, Note_on_c, 0, 77, 64
2, 17842, Note_on_c, 0, 74, 0
2, 17918, Note_on_c, 0, 88, 66
2, 17920, Note_on_c, 0, 77, 0
2, 17998, Note_on_c, 0, 88, 0
2, 18000, Note_on_c, 0, 83, 67
2, 18080, Note_on_c, 0, 83, 0
2, 18083, Note_on_c, 0, 86, 69
2, 18158, Note_on_c, 0, 76, 69
2, 18163, Note_on_c, 0, 86, 0
2, 18238, Note_on_c, 0, 76, 0
2, 18241, Note_on_c, 0, 86, 67
2, 18321, Note_on_c, 0, 86, 0
2, 18321, Note_on_c, 0, 81, 66
2, 18400, Note_on_c, 0, 84, 64
2, 18401, Note_on_c, 0, 81, 0
2, 18478, Note_on_c, 0, 76, 62
2, 18480, Note_on_c, 0, 84, 0
2, 18558, Note_on_c, 0, 76, 0
2, 18563, Note_on_c, 0, 74, 61
2, 18643, Note_on_c, 0, 74, 0
2, 18643, Note_on_c, 0, 69, 60
2, 18721, Note_on_c, 0, 72, 59
2, 18723, Note_on_c, 0, 69, 0
2, 18800, Note_on_c, 0, 64, 59
2, 18801, Note_on_c, 0, 72, 0
2, 18880, Note_on_c, 0, 64, 0
2, 18880, Note_on_c, 0, 62, 59
2, 18960, Note_on_c, 0, 62, 0
2, 18960, Note_on_c, 0, 57, 59
2, 19040, Note_on_c, 0, 57, 0
2, 19043, Note_on_c, 0, 60, 59
2, 19119, Note_on_c, 0, 59, 59
2, 19123, Note_on_c, 0, 60, 0
2, 19199, Note_on_c, 0, 59, 0
2, 19200, Note_on_c, 0, 69, 59
2, 19279, Note_on_c, 0, 64, 58
2, 19280, Note_on_c, 0, 69, 0
2, 19359, Note_on_c, 0, 64, 0
2, 19363, Note_on_c, 0, 68, 58
2, 19439, Note_on_c, 0, 71, 58
2, 19443, Note_on_c, 0, 68, 0
2, 19519, Note_on_c, 0, 71, 0
2, 19522, Note_on_c, 0, 81, 58
2, 19601, Note_on_c, 0, 76, 58
2, 19602, Note_on_c, 0, 81, 0
2, 19679, Note_on_c, 0, 80, 58
2, 19681, Note_on_c, 0, 76, 0
2, 19759, Note_on_c, 0, 80, 0
2, 19762, Note_on_c, 0, 83, 57
2, 19842, Note_on_c, 0, 83, 0
2, 19843, Note_on_c, 0, 93, 58
2, 19920, Note_on_c, 0, 88, 59
2, 19923, Note_on_c, 0, 93, 0
2, 20000, Note_on_c, 0, 88, 0
2, 20001, Note_on_c, 0, 92, 59
2, 20081, Note_on_c, 0, 92, 0
2, 20083, Note_on_c, 0, 83, 59
2, 20158, Note_on_c, 0, 92, 60
2, 20163, Note_on_c, 0, 83, 0
2, 20238, Note_on_c, 0, 92, 0
2, 20243, Note_on_c, 0, 87, 60
2, 20321, Note_on_c, 0, 90, 59
2, 20323, Note_on_c, 0, 87, 0
2, 20398, Note_on_c, 0, 83, 59
2, 20401, Note_on_c, 0, 90, 0
2, 20478, Note_on_c, 0, 83, 0
2, 20481, Note_on_c, 0, 80, 59
2, 20559, Note_on_c, 0, 75, 58
2, 20561, Note_on_c, 0, 80, 0
2, 20639, Note_on_c, 0, 75, 0
2, 20643, Note_on_c, 0, 78, 55
2, 20721, Note_on_c, 0, 71, 55
2, 20723, Note_on_c, 0, 78, 0
2, 20801, Note_on_c, 0, 71, 0
2, 20801, Note_on_c, 0, 68, 55
2, 20879, Note_on_c, 0, 63, 55
2, 20881, Note_on_c, 0, 68, 0
2, 20959, Note_on_c, 0, 63, 0
2, 20963, Note_on_c, 0, 66, 55
2, 21038, Note_on_c, 0, 59, 55
2, 21043, Note_on_c, 0, 66, 0
2, 21118, Note_on_c, 0, 59, 0
2, 21118, Note_on_c, 0, 69, 55
2, 21198, Note_on_c, 0, 69, 0
2, 21202, Note_on_c, 0, 64, 55
2, 21279, Note_on_c, 0, 68, 55
2, 21282, Note_on_c, 0, 64, 0
2, 21359, Note_on_c, 0, 68, 0
2, 21363, Note_on_c, 0, 71, 55
2, 21439, Note_on_c, 0, 81, 55
2, 21443, Note_on_c, 0, 71, 0
2, 21519, Note_on_c, 0, 81, 0
2, 21520, Note_on_c, 0, 76, 55
2, 21598, Note_on_c, 0, 80, 55
2, 21600, Note_on_c, 0, 76, 0
2, 21678, Note_on_c, 0, 80, 0
2, 21682, Note_on_c, 0, 83, 59
2, 21762, Note_on_c, 0, 83, 0
2, 21763, Note_on_c, 0, 93, 59
2, 21842, Note_on_c, 0, 88, 59
2, 21843, Note_on_c, 0, 93, 0
2, 21921, Note_on_c, 0, 92, 59
2, 21922, Note_on_c, 0, 88, 0
2, 22001, Note_on_c, 0, 92, 0
2, 22002, Note_on_c, 0, 83, 59
2, 22080, Note_on_c, 0, 100, 81
2, 22082, Note_on_c, 0, 83, 0
2, 22320, Note_on_c, 0, 100, 0
2, 23039, Note_on_c, 0, 101, 94
2, 23118, Note_on_c, 0, 96, 69
2, 23119, Note_on_c, 0, 101, 0
2, 23198, Note_on_c, 0, 96, 0
2, 23198, Note_on_c, 0, 100, 90
2, 23278, Note_on_c, 0, 100, 0
2, 23278, Note_on_c, 0, 93, 69
2, 23358, Note_on_c, 0, 93, 0
2, 23362, Note_on_c, 0, 99, 84
2, 23442, Note_on_c, 0, 99, 0
2, 23443, Note_on_c, 0, 96, 69
2, 23519, Note_on_c, 0, 98, 82
2, 23523, Note_on_c, 0, 96, 0
2, 23598, Note_on_c, 0, 93, 67
2, 23599, Note_on_c, 0, 98, 0
2, 23678, Note_on_c, 0, 93, 0
2, 23681, Note_on_c, 0, 97, 79
2, 23758, Note_on_c, 0, 93, 67
2, 23761, Note_on_c, 0, 97, 0
2, 23838, Note_on_c, 0, 93, 0
2, 23838, Note_on_c, 0, 96, 78
2, 23918, Note_on_c, 0, 96, 0
2, 23920, Note_on_c, 0, 88, 67
2, 24000, Note_on_c, 0, 88, 0
2, 24002, Note_on_c, 0, 95, 77
2, 24082, Note_on_c, 0, 95, 0
2, 24082, Note_on_c, 0, 88, 69
2, 24161, Note_on_c, 0, 94, 75
2, 24162, Note_on_c, 0, 88, 0
2, 24238, Note_on_c, 0, 84, 69
2, 24241, Note_on_c, 0, 94, 0
2, 24318, Note_on_c, 0, 84, 0
2, 24320, Note_on_c, 0, 93, 73
2, 24399, Note_on_c, 0, 88, 69
2, 24400, Note_on_c, 0, 93, 0
2, 24479, Note_on_c, 0, 88, 0
2, 24482, Note_on_c, 0, 92, 73
2, 24559, Note_on_c, 0, 84, 67
2, 24562, Note_on_c, 0, 92, 0
2, 24639, Note_on_c, 0, 84, 0
2, 24640, Note_on_c, 0, 91, 69
2, 24719, Note_on_c, 0, 84, 67
2, 24720, Note_on_c, 0, 91, 0
2, 24799, Note_on_c, 0, 84, 0
2, 24801, Note_on_c, 0, 90, 69
2, 24881, Note_on_c, 0, 90, 0
2, 24881, Note_on_c, 0, 81, 67
2, 24961, Note_on_c, 0, 81, 0
2, 24961, Note_on_c, 0, 89, 73
2, 25038, Note_on_c, 0, 84, 69
2, 25041, Note_on_c, 0, 89, 0
2, 25118, Note_on_c, 0, 84, 0
2, 25121, Note_on_c, 0, 88, 73
2, 25201, Note_on_c, 0, 88, 0
2, 25203, Note_on_c, 0, 81, 69
2, 25282, Note_on_c, 0, 87, 73
2, 25283, Note_on_c, 0, 81, 0
2, 25362, Note_on_c, 0, 87, 0
2, 25363, Note_on_c, 0, 84, 69
2, 25439, Note_on_c, 0, 86, 73
2, 25443, Note_on_c, 0, 84, 0
2, 25519, Note_on_c, 0, 86, 0
2, 25520, Note_on_c, 0, 81, 67
2, 25599, Note_on_c, 0, 85, 69
2, 25600, Note_on_c, 0, 81, 0
2, 25679, Note_on_c, 0, 85, 0
2, 25683, Note_on_c, 0, 81, 67
2, 25760, Note_on_c, 0, 84, 69
2, 25763, Note_on_c, 0, 81, 0
2, 25840, Note_on_c, 0, 84, 0
2, 25843, Note_on_c, 0, 76, 67
2, 25918, Note_on_c, 0, 83, 69
2, 25923, Note_on_c, 0, 76, 0
2, 25998, Note_on_c, 0, 83, 0
2, 26001, Note_on_c, 0, 76, 67
2, 26078, Note_on_c, 0, 82, 69
2, 26081, Note_on_c, 0, 76, 0
2, 26158, Note_on_c, 0, 82, 0
2, 26160, Note_on_c, 0, 72, 67
2, 26240, Note_on_c, 0, 72, 0
2, 26243, Note_on_c, 0, 81, 69
2, 26318, Note_on_c, 0, 76, 67
2, 26323, Note_on_c, 0, 81, 0
2, 26398, Note_on_c, 0, 76, 0
2, 26403, Note_on_c, 0, 80, 69
2, 26479, Note_on_c, 0, 72, 67
2, 26483, Note_on_c, 0, 80, 0
2, 26559, Note_on_c, 0, 72, 0
2, 26559, Note_on_c, 0, 79, 69
2, 26639, Note_on_c, 0, 79, 0
2, 26642, Note_on_c, 0, 72, 67
2, 26720, Note_on_c, 0, 78, 69
2, 26722, Note_on_c, 0, 72, 0
2, 26799, Note_on_c, 0, 69, 67
2, 26800, Note_on_c, 0, 78, 0
2, 26879, Note_on_c, 0, 69, 0
2, 26881, Note_on_c, 0, 77, 56
2, 26961, Note_on_c, 0, 77, 0
2, 26961, Note_on_c, 0, 70, 56
2, 27040, Note_on_c, 0, 76, 56
2, 27041, Note_on_c, 0, 70, 0
2, 27120, Note_on_c, 0, 76, 0
2, 27120, Note_on_c, 0, 67, 51
2, 27200, Note_on_c, 0, 67, 0
2, 27201, Note_on_c, 0, 75, 56
2, 27281, Note_on_c, 0, 75, 0
2, 27281, Note_on_c, 0, 70, 51
2, 27361, Note_on_c, 0, 70, 0
2, 27363, Note_on_c, 0, 74, 56
2, 27442, Note_on_c, 0, 67, 51
2, 27443, Note_on_c, 0, 74, 0
2, 27521, Note_on_c, 0, 73, 56
2, 27522, Note_on_c, 0, 67, 0
2, 27601, Note_on_c, 0, 73, 0
2, 27602, Note_on_c, 0, 70, 51
2, 27681, Note_on_c, 0, 72, 56
2, 27682, Note_on_c, 0, 70, 0
2, 27760, Note_on_c, 0, 67, 51
2, 27761, Note_on_c, 0, 72, 0
2, 27839, Note_on_c, 0, 71, 56
2, 27840, Note_on_c, 0, 67, 0
2, 27919, Note_on_c, 0, 71, 0
2, 27922, Note_on_c, 0, 67, 50
2, 28001, Note_on_c, 0, 70, 55
2, 28002, Note_on_c, 0, 67, 0
2, 28081, Note_on_c, 0, 70, 0
2, 28083, Note_on_c, 0, 64, 49
2, 28159, Note_on_c, 0, 69, 53
2, 28163, Note_on_c, 0, 64, 0
2, 28239, Note_on_c, 0, 69, 0
2, 28239, Note_on_c, 0, 60, 47
2, 28319, Note_on_c, 0, 60, 0
2, 28321, Note_on_c, 0, 68, 50
2, 28401, Note_on_c, 0, 68, 0
2, 28402, Note_on_c, 0, 58, 46
2, 28481, Note_on_c, 0, 67, 49
2, 28482, Note_on_c, 0, 58, 0
2, 28560, Note_on_c, 0, 60, 46
2, 28561, Note_on_c, 0, 67, 0
2, 28640, Note_on_c, 0, 60, 0
2, 28640, Note_on_c, 0, 66, 47
2, 28718, Note_on_c, 0, 58, 45
2, 28720, Note_on_c, 0, 66, 0
2, 28798, Note_on_c, 0, 58, 0
2, 28802, Note_on_c, 0, 65, 47
2, 28881, Note_on_c, 0, 60, 45
2, 28882, Note_on_c, 0, 65, 0
2, 28961, Note_on_c, 0, 60, 0
2, 28961, Note_on_c, 0, 64, 47
2, 29041, Note_on_c, 0, 64, 0
2, 29042, Note_on_c, 0, 58, 45
2, 29122, Note_on_c, 0, 58, 0
2, 29122, Note_on_c, 0, 63, 46
2, 29198, Note_on_c, 0, 60, 44
2, 29202, Note_on_c, 0, 63, 0
2, 29278, Note_on_c, 0, 60, 0
2, 29281, Note_on_c, 0, 62, 45
2, 29361, Note_on_c, 0, 62, 0
2, 29363, Note_on_c, 0, 55, 42
2, 29443, Note_on_c, 0, 55, 0
2, 29443, Note_on_c, 0, 61, 45
2, 29521, Note_on_c, 0, 58, 40
2, 29523, Note_on_c, 0, 61, 0
2, 29601, Note_on_c, 0, 58, 0
2, 29602, Note_on_c, 0, 60, 44
2, 29678, Note_on_c, 0, 55, 39
2, 29682, Note_on_c, 0, 60, 0
2, 29758, Note_on_c, 0, 55, 0
2, 29762, Note_on_c, 0, 59, 44
2, 29842, Note_on_c, 0, 59, 0
2, 29843, Note_on_c, 0, 55, 42
2, 29919, Note_on_c, 0, 60, 47
2, 29923, Note_on_c, 0, 55, 0
2, 29999, Note_on_c, 0, 60, 0
2, 30001, Note_on_c, 0, 58, 45
2, 30079, Note_on_c, 0, 61, 49
2, 30081, Note_on_c, 0, 58, 0
2, 30159, Note_on_c, 0, 61, 0
2, 30159, Note_on_c, 0, 55, 47
2, 30238, Note_on_c, 0, 62, 53
2, 30239, Note_on_c, 0, 55, 0
2, 30318, Note_on_c, 0, 62, 0
2, 30323, Note_on_c, 0, 58, 49
2, 30403, Note_on_c, 0, 58, 0
2, 30403, Note_on_c, 0, 63, 56
2, 30482, Note_on_c, 0, 55, 53
2, 30483, Note_on_c, 0, 63, 0
2, 30558, Note_on_c, 0, 64, 59
2, 30562, Note_on_c, 0, 55, 0
2, 30638, Note_on_c, 0, 64, 0
2, 30639, Note_on_c, 0, 58, 56
2, 30718, Note_on_c, 0, 69, 59
2, 30719, Note_on_c, 0, 58, 0
2, 30798, Note_on_c, 0, 69, 0
2, 30798, Note_on_c, 0, 64, 59
2, 30878, Note_on_c, 0, 64, 0
2, 30881, Note_on_c, 0, 67, 59
2, 30961, Note_on_c, 0, 67, 0
2, 30962, Note_on_c, 0, 70, 59
2, 31041, Note_on_c, 0, 81, 59
2, 31042, Note_on_c, 0, 70, 0
2, 31120, Note_on_c, 0, 76, 59
2, 31121, Note_on_c, 0, 81, 0
2, 31200, Note_on_c, 0, 76, 0
2, 31200, Note_on_c, 0, 79, 59
2, 31279, Note_on_c, 0, 82, 59
2, 31280, Note_on_c, 0, 79, 0
2, 31359, Note_on_c, 0, 82, 0
2, 31360, Note_on_c, 0, 93, 60
2, 31440, Note_on_c, 0, 93, 0
2, 31441, Note_on_c, 0, 88, 62
2, 31518, Note_on_c, 0, 91, 64
2, 31521, Note_on_c, 0, 88, 0
2, 31598, Note_on_c, 0, 91, 0
2, 31599, Note_on_c, 0, 82, 66
2, 31679, Note_on_c, 0, 82, 0
2, 31682, Note_on_c, 0, 93, 67
2, 31759, Note_on_c, 0, 87, 67
2, 31762, Note_on_c, 0, 93, 0
2, 31839, Note_on_c, 0, 87, 0
2, 31842, Note_on_c, 0, 91, 66
2, 31922, Note_on_c, 0, 91, 0
2, 31923, Note_on_c, 0, 82, 64
2, 32003, Note_on_c, 0, 82, 0
2, 32003, Note_on_c, 0, 81, 64
2, 32082, Note_on_c, 0, 75, 62
2, 32083, Note_on_c, 0, 81, 0
2, 32159, Note_on_c, 0, 79, 62
2, 32162, Note_on_c, 0, 75, 0
2, 32239, Note_on_c, 0, 79, 0
2, 32243, Note_on_c, 0, 70, 59
2, 32318, Note_on_c, 0, 69, 59
2, 32323, Note_on_c, 0, 70, 0
2, 32398, Note_on_c, 0, 69, 0
2, 32398, Note_on_c, 0, 63, 59
2, 32478, Note_on_c, 0, 63, 0
2, 32482, Note_on_c, 0, 67, 59
2, 32561, Note_on_c, 0, 58, 59
2, 32562, Note_on_c, 0, 67, 0
2, 32641, Note_on_c, 0, 58, 0
2, 32641, Note_on_c, 0, 69, 59
2, 32721, Note_on_c, 0, 69, 0
2, 32723, Note_on_c, 0, 62, 59
2, 32798, Note_on_c, 0, 67, 59
2, 32803, Note_on_c, 0, 62, 0
2, 32878, Note_on_c, 0, 67, 0
2, 32883, Note_on_c, 0, 70, 59
2, 32961, Note_on_c, 0, 81, 59
2, 32963, Note_on_c, 0, 70, 0
2, 33039, Note_on_c, 0, 74, 59
2, 33041, Note_on_c, 0, 81, 0
2, 33118, Note_on_c, 0, 79, 59
2, 33119, Note_on_c, 0, 74, 0
2, 33198, Note_on_c, 0, 79, 0
2, 33201, Note_on_c, 0, 82, 59
2, 33279, Note_on_c, 0, 93, 60
2, 33281, Note_on_c, 0, 82, 0
2, 33359, Note_on_c, 0, 93, 0
2, 33359, Note_on_c, 0, 86, 62
2, 33439, Note_on_c, 0, 86, 0
2, 33443, Note_on_c, 0, 91, 66
2, 33521, Note_on_c, 0, 82, 68
2, 33523, Note_on_c, 0, 91, 0
2, 33601, Note_on_c, 0, 82, 0
2, 33601, Note_on_c, 0, 93, 69
2, 33678, Note_on_c, 0, 85, 69
2, 33681, Note_on_c, 0, 93, 0
2, 33758, Note_on_c, 0, 85, 0
2, 33760, Note_on_c, 0, 91, 68
2, 33840, Note_on_c, 0, 91, 0
2, 33840, Note_on_c, 0, 82, 67
2, 33920, Note_on_c, 0, 82, 0
2, 33920, Note_on_c, 0, 81, 66
2, 34000, Note_on_c, 0, 81, 0
2, 34002, Note_on_c, 0, 73, 64
2, 34081, Note_on_c, 0, 79, 59
2, 34082, Note_on_c, 0, 73, 0
2, 34160, Note_on_c, 0, 70, 59
2, 34161, Note_on_c, 0, 79, 0
2, 34240, Note_on_c, 0, 70, 0
2, 34242, Note_on_c, 0, 69, 59
2, 34321, Note_on_c, 0, 61, 59
2, 34322, Note_on_c, 0, 69, 0
2, 34401, Note_on_c, 0, 61, 0
2, 34401, Note_on_c, 0, 67, 59
2, 34480, Note_on_c, 0, 58, 59
2, 34481, Note_on_c, 0, 67, 0
2, 34558, Note_on_c, 0, 69, 59
2, 34560, Note_on_c, 0, 58, 0
2, 34638, Note_on_c, 0, 69, 0
2, 34642, Note_on_c, 0, 60, 59
2, 34718, Note_on_c, 0, 67, 59
2, 34722, Note_on_c, 0, 60, 0
2, 34798, Note_on_c, 0, 67, 0
2, 34801, Note_on_c, 0, 58, 59
2, 34881, Note_on_c, 0, 58, 0
2, 34883, Note_on_c, 0, 72, 59
2, 34960, Note_on_c, 0, 69, 59
2, 34963, Note_on_c, 0, 72, 0
2, 35040, Note_on_c, 0, 69, 0
2, 35042, Note_on_c, 0, 70, 61
2, 35120, Note_on_c, 0, 67, 62
2, 35122, Note_on_c, 0, 70, 0
2, 35200, Note_on_c, 0, 67, 0
2, 35200, Note_on_c, 0, 81, 64
2, 35280, Note_on_c, 0, 81, 0
2, 35282, Note_on_c, 0, 72, 64
2, 35361, Note_on_c, 0, 79, 64
2, 35362, Note_on_c, 0, 72, 0
2, 35440, Note_on_c, 0, 70, 64
2, 35441, Note_on_c, 0, 79, 0
2, 35520, Note_on_c, 0, 70, 0
2, 35523, Note_on_c, 0, 84, 64
2, 35601, Note_on_c, 0, 81, 64
2, 35603, Note_on_c, 0, 84, 0
2, 35679, Note_on_c, 0, 82, 62
2, 35681, Note_on_c, 0, 81, 0
2, 35759, Note_on_c, 0, 82, 0
2, 35760, Note_on_c, 0, 79, 61
2, 35838, Note_on_c, 0, 93, 61
2, 35840, Note_on_c, 0, 79, 0
2, 35918, Note_on_c, 0, 93, 0
2, 35922, Note_on_c, 0, 84, 60
2, 36002, Note_on_c, 0, 84, 0
2, 36003, Note_on_c, 0, 91, 59
2, 36081, Note_on_c, 0, 82, 59
2, 36083, Note_on_c, 0, 91, 0
2, 36158, Note_on_c, 0, 96, 59
2, 36161, Note_on_c, 0, 82, 0
2, 36238, Note_on_c, 0, 96, 0
2, 36239, Note_on_c, 0, 93, 59
2, 36318, Note_on_c, 0, 94, 59
2, 36319, Note_on_c, 0, 93, 0
2, 36398, Note_on_c, 0, 94, 0
2, 36401, Note_on_c, 0, 91, 59
2, 36478, Note_on_c, 0, 98, 59
2, 36481, Note_on_c, 0, 91, 0
2, 36558, Note_on_c, 0, 98, 0
2, 36563, Note_on_c, 0, 93, 59
2, 36643, Note_on_c, 0, 93, 0
2, 36643, Note_on_c, 0, 96, 59
2, 36721, Note_on_c, 0, 89, 59
2, 36723, Note_on_c, 0, 96, 0
2, 36801, Note_on_c, 0, 89, 0
2, 36802, Note_on_c, 0, 92, 59
2, 36882, Note_on_c, 0, 92, 0
2, 36883, Note_on_c, 0, 89, 59
2, 36958, Note_on_c, 0, 93, 59
2, 36963, Note_on_c, 0, 89, 0
2, 37038, Note_on_c, 0, 93, 0
2, 37038, Note_on_c, 0, 84, 59
2, 37118, Note_on_c, 0, 84, 0
2, 37122, Note_on_c, 0, 88, 59
2, 37201, Note_on_c, 0, 84, 59
2, 37202, Note_on_c, 0, 88, 0
2, 37279, Note_on_c, 0, 89, 59
2, 37281, Note_on_c, 0, 84, 0
2, 37358, Note_on_c, 0, 81, 59
2, 37359, Note_on_c, 0, 89, 0
2, 37438, Note_on_c, 0, 81, 0
2, 37439, Note_on_c, 0, 85, 59
2, 37519, Note_on_c, 0, 85, 0
2, 37521, Note_on_c, 0, 81, 59
2, 37600, Note_on_c, 0, 86, 59
2, 37601, Note_on_c, 0, 81, 0
2, 37679, Note_on_c, 0, 77, 59
2, 37680, Note_on_c, 0, 86, 0
2, 37759, Note_on_c, 0, 77, 0
2, 37760, Note_on_c, 0, 80, 59
2, 37840, Note_on_c, 0, 80, 0
2, 37841, Note_on_c, 0, 77, 59
2, 37921, Note_on_c, 0, 77, 0
2, 37922, Note_on_c, 0, 81, 59
2, 38002, Note_on_c, 0, 81, 0
2, 38002, Note_on_c, 0, 74, 59
2, 38081, Note_on_c, 0, 76, 59
2, 38082, Note_on_c, 0, 74, 0
2, 38161, Note_on_c, 0, 76, 0
2, 38161, Note_on_c, 0, 74, 59
2, 38241, Note_on_c, 0, 74, 0
2, 38242, Note_on_c, 0, 77, 59
2, 38322, Note_on_c, 0, 77, 0
2, 38323, Note_on_c, 0, 69, 59
2, 38398, Note_on_c, 0, 76, 59
2, 38403, Note_on_c, 0, 69, 0
2, 38478, Note_on_c, 0, 76, 0
2, 38481, Note_on_c, 0, 71, 59
2, 38560, Note_on_c, 0, 74, 59
2, 38561, Note_on_c, 0, 71, 0
2, 38639, Note_on_c, 0, 77, 59
2, 38640, Note_on_c, 0, 74, 0
2, 38718, Note_on_c, 0, 88, 59
2, 38719, Note_on_c, 0, 77, 0
2, 38798, Note_on_c, 0, 88, 0
2, 38803, Note_on_c, 0, 83, 59
2, 38878, Note_on_c, 0, 86, 55
2, 38883, Note_on_c, 0, 83, 0
2, 38958, Note_on_c, 0, 86, 0
2, 38960, Note_on_c, 0, 89, 53
2, 39040, Note_on_c, 0, 89, 0
2, 39041, Note_on_c, 0, 100, 55
2, 39119, Note_on_c, 0, 95, 56
2, 39121, Note_on_c, 0, 100, 0
2, 39199, Note_on_c, 0, 95, 0
2, 39201, Note_on_c, 0, 98, 57
2, 39279, Note_on_c, 0, 89, 58
2, 39281, Note_on_c, 0, 98, 0
2, 39359, Note_on_c, 0, 89, 0
2, 39359, Note_on_c, 0, 93, 57
2, 39438, Note_on_c, 0, 89, 57
2, 39439, Note_on_c, 0, 93, 0
2, 39518, Note_on_c, 0, 89, 0
2, 39522, Note_on_c, 0, 91, 56
2, 39598, Note_on_c, 0, 83, 56
2, 39602, Note_on_c, 0, 91, 0
2, 39678, Note_on_c, 0, 83, 0
2, 39679, Note_on_c, 0, 81, 55
2, 39759, Note_on_c, 0, 81, 0
2, 39762, Note_on_c, 0, 77, 55
2, 39842, Note_on_c, 0, 77, 0
2, 39843, Note_on_c, 0, 79, 55
2, 39922, Note_on_c, 0, 71, 59
2, 39923, Note_on_c, 0, 79, 0
2, 40002, Note_on_c, 0, 71, 0
2, 40002, Note_on_c, 0, 88, 59
2, 40081, Note_on_c, 0, 79, 59
2, 40082, Note_on_c, 0, 88, 0
2, 40160, Note_on_c, 0, 86, 59
2, 40161, Note_on_c, 0, 79, 0
2, 40240, Note_on_c, 0, 86, 0
2, 40243, Note_on_c, 0, 77, 59
2, 40319, Note_on_c, 0, 83, 59
2, 40323, Note_on_c, 0, 77, 0
2, 40399, Note_on_c, 0, 83, 0
2, 40403, Note_on_c, 0, 79, 59
2, 40479, Note_on_c, 0, 84, 59
2, 40483, Note_on_c, 0, 79, 0
2, 40559, Note_on_c, 0, 84, 0
2, 40559, Note_on_c, 0, 76, 59
2, 40639, Note_on_c, 0, 76, 0
2, 40641, Note_on_c, 0, 87, 59
2, 40721, Note_on_c, 0, 87, 0
2, 40723, Note_on_c, 0, 84, 59
2, 40798, Note_on_c, 0, 88, 59
2, 40803, Note_on_c, 0, 84, 0
2, 40878, Note_on_c, 0, 88, 0
2, 40878, Note_on_c, 0, 79, 59
2, 40958, Note_on_c, 0, 79, 0
2, 40961, Note_on_c, 0, 90, 59
2, 41040, Note_on_c, 0, 88, 55
2, 41041, Note_on_c, 0, 90, 0
2, 41118, Note_on_c, 0, 91, 59
2, 41120, Note_on_c, 0, 88, 0
2, 41198, Note_on_c, 0, 91, 0
2, 41199, Note_on_c, 0, 84, 55
2, 41279, Note_on_c, 0, 84, 0
2, 41283, Note_on_c, 0, 94, 59
2, 41359, Note_on_c, 0, 91, 51
2, 41363, Note_on_c, 0, 94, 0
2, 41438, Note_on_c, 0, 95, 58
2, 41439, Note_on_c, 0, 91, 0
2, 41518, Note_on_c, 0, 95, 0
2, 41518, Note_on_c, 0, 88, 55
2, 41598, Note_on_c, 0, 88, 0
2, 41603, Note_on_c, 0, 96, 59
2, 41678, Note_on_c, 0, 91, 58
2, 41683, Note_on_c, 0, 96, 0
2, 41758, Note_on_c, 0, 91, 0
2, 41758, Note_on_c, 0, 97, 61
2, 41838, Note_on_c, 0, 97, 0
2, 41838, Note_on_c, 0, 88, 59
2, 41918, Note_on_c, 0, 88, 0
2, 41920, Note_on_c, 0, 98, 64
2, 42000, Note_on_c, 0, 98, 0
2, 42003, Note_on_c, 0, 91, 62
2, 42080, Note_on_c, 0, 99, 69
2, 42083, Note_on_c, 0, 91, 0
2, 42160, Note_on_c, 0, 99, 0
2, 42160, Note_on_c, 0, 88, 67
2, 42240, Note_on_c, 0, 88, 0
2, 42243, Note_on_c, 0, 100, 89
2, 42323, Note_on_c, 0, 100, 0
2, 42323, Note_on_c, 0, 95, 64
2, 42401, Note_on_c, 0, 99, 75
2, 42403, Note_on_c, 0, 95, 0
2, 42481, Note_on_c, 0, 99, 0
2, 42483, Note_on_c, 0, 91, 64
2, 42562, Note_on_c, 0, 98, 73
2, 42563, Note_on_c, 0, 91, 0
2, 42640, Note_on_c, 0, 95, 64
2, 42642, Note_on_c, 0, 98, 0
2, 42719, Note_on_c, 0, 97, 61
2, 42720, Note_on_c, 0, 95, 0
2, 42798, Note_on_c, 0, 91, 59
2, 42799, Note_on_c, 0, 97, 0
2, 42878, Note_on_c, 0, 91, 0
2, 42881, Note_on_c, 0, 96, 61
2, 42961, Note_on_c, 0, 96, 0
2, 42963, Note_on_c, 0, 91, 59
2, 43040, Note_on_c, 0, 95, 61
2, 43043, Note_on_c, 0, 91, 0
2, 43119, Note_on_c, 0, 88, 59
2, 43120, Note_on_c, 0, 95, 0
2, 43199, Note_on_c, 0, 88, 0
2, 43201, Note_on_c, 0, 94, 69
2, 43279, Note_on_c, 0, 91, 64
2, 43281, Note_on_c, 0, 94, 0
2, 43359, Note_on_c, 0, 91, 0
2, 43362, Note_on_c, 0, 93, 69
2, 43442, Note_on_c, 0, 93, 0
2, 43443, Note_on_c, 0, 88, 64
2, 43520, Note_on_c, 0, 92, 69
2, 43523, Note_on_c, 0, 88, 0
2, 43600, Note_on_c, 0, 92, 0
2, 43603, Note_on_c, 0, 88, 64
2, 43678, Note_on_c, 0, 91, 69
2, 43683, Note_on_c, 0, 88, 0
2, 43758, Note_on_c, 0, 91, 0
2, 43763, Note_on_c, 0, 84, 59
2, 43841, Note_on_c, 0, 90, 61
2, 43843, Note_on_c, 0, 84, 0
2, 43921, Note_on_c, 0, 90, 0
2, 43922, Note_on_c, 0, 84, 59
2, 44001, Note_on_c, 0, 89, 61
2, 44002, Note_on_c, 0, 84, 0
2, 44078, Note_on_c, 0, 79, 59
2, 44081, Note_on_c, 0, 89, 0
2, 44158, Note_on_c, 0, 79, 0
2, 44159, Note_on_c, 0, 88, 69
2, 44239, Note_on_c, 0, 88, 0
2, 44240, Note_on_c, 0, 83, 64
2, 44318, Note_on_c, 0, 87, 69
2, 44320, Note_on_c, 0, 83, 0
2, 44398, Note_on_c, 0, 87, 0
2, 44400, Note_on_c, 0, 79, 64
2, 44478, Note_on_c, 0, 86, 69
2, 44480, Note_on_c, 0, 79, 0
2, 44558, Note_on_c, 0, 86, 0
2, 44561, Note_on_c, 0, 83, 64
2, 44641, Note_on_c, 0, 83, 0
2, 44643, Note_on_c, 0, 85, 61
2, 44718, Note_on_c, 0, 79, 59
2, 44723, Note_on_c, 0, 85, 0
2, 44798, Note_on_c, 0, 79, 0
2, 44802, Note_on_c, 0, 84, 61
2, 44881, Note_on_c, 0, 79, 59
2, 44882, Note_on_c, 0, 84, 0
2, 44961, Note_on_c, 0, 79, 0
2, 44962, Note_on_c, 0, 83, 61
2, 45042, Note_on_c, 0, 83, 0
2, 45042, Note_on_c, 0, 76, 59
2, 45121, Note_on_c, 0, 82, 69
2, 45122, Note_on_c, 0, 76, 0
2, 45201, Note_on_c, 0, 82, 0
2, 45202, Note_on_c, 0, 79, 64
2, 45278, Note_on_c, 0, 81, 69
2, 45282, Note_on_c, 0, 79, 0
2, 45358, Note_on_c, 0, 81, 0
2, 45362, Note_on_c, 0, 76, 64
2, 45442, Note_on_c, 0, 76, 0
2, 45442, Note_on_c, 0, 80, 69
2, 45522, Note_on_c, 0, 80, 0
2, 45522, Note_on_c, 0, 76, 64
2, 45598, Note_on_c, 0, 79, 69
2, 45602, Note_on_c, 0, 76, 0
2, 45678, Note_on_c, 0, 79, 0
2, 45683, Note_on_c, 0, 71, 59
2, 45761, Note_on_c, 0, 78, 61
2, 45763, Note_on_c, 0, 71, 0
2, 45841, Note_on_c, 0, 78, 0
2, 45842, Note_on_c, 0, 71, 59
2, 45918, Note_on_c, 0, 77, 61
2, 45922, Note_on_c, 0, 71, 0
2, 45998, Note_on_c, 0, 77, 0
2, 46001, Note_on_c, 0, 67, 59
2, 46081, Note_on_c, 0, 67, 0
2, 46083, Note_on_c, 0, 76, 59
2, 46158, Note_on_c, 0, 71, 55
2, 46163, Note_on_c, 0, 76, 0
2, 46238, Note_on_c, 0, 71, 0
2, 46239, Note_on_c, 0, 75, 59
2, 46318, Note_on_c, 0, 67, 55
2, 46319, Note_on_c, 0, 75, 0
2, 46398, Note_on_c, 0, 67, 0
2, 46403, Note_on_c, 0, 74, 59
2, 46481, Note_on_c, 0, 71, 55
2, 46483, Note_on_c, 0, 74, 0
2, 46559, Note_on_c, 0, 73, 59
2, 46561, Note_on_c, 0, 71, 0
2, 46639, Note_on_c, 0, 73, 0
2, 46643, Note_on_c, 0, 67, 55
2, 46720, Note_on_c, 0, 72, 59
2, 46723, Note_on_c, 0, 67, 0
2, 46800, Note_on_c, 0, 72, 0
2, 46802, Note_on_c, 0, 67, 55
2, 46879, Note_on_c, 0, 71, 59
2, 46882, Note_on_c, 0, 67, 0
2, 46958, Note_on_c, 0, 64, 55
2, 46959, Note_on_c, 0, 71, 0
2, 47038, Note_on_c, 0, 64, 0
2, 47039, Note_on_c, 0, 70, 59
2, 47119, Note_on_c, 0, 70, 0
2, 47121, Note_on_c, 0, 67, 55
2, 47201, Note_on_c, 0, 67, 0
2, 47203, Note_on_c, 0, 69, 59
2, 47278, Note_on_c, 0, 64, 55
2, 47283, Note_on_c, 0, 69, 0
2, 47358, Note_on_c, 0, 64, 0
2, 47363, Note_on_c, 0, 68, 59
2, 47440, Note_on_c, 0, 64, 55
2, 47443, Note_on_c, 0, 68, 0
2, 47518, Note_on_c, 0, 67, 59
2, 47520, Note_on_c, 0, 64, 0
2, 47598, Note_on_c, 0, 67, 0
2, 47602, Note_on_c, 0, 60, 55
2, 47679, Note_on_c, 0, 66, 59
2, 47682, Note_on_c, 0, 60, 0
2, 47759, Note_on_c, 0, 66, 0
2, 47763, Note_on_c, 0, 60, 55
2, 47842, Note_on_c, 0, 65, 59
2, 47843, Note_on_c, 0, 60, 0
2, 47922, Note_on_c, 0, 65, 0
2, 47923, Note_on_c, 0, 55, 55
2, 47999, Note_on_c, 0, 64, 55
2, 48003, Note_on_c, 0, 55, 0
2, 48079, Note_on_c, 0, 64, 0
2, 48080, Note_on_c, 0, 59, 50
2, 48158, Note_on_c, 0, 63, 53
2, 48160, Note_on_c, 0, 59, 0
2, 48238, Note_on_c, 0, 63, 0
2, 48242, Note_on_c, 0, 55, 47
2, 48318, Note_on_c, 0, 62, 50
2, 48322, Note_on_c, 0, 55, 0
2, 48398, Note_on_c, 0, 62, 0
2, 48400, Note_on_c, 0, 59, 46
2, 48479, Note_on_c, 0, 61, 49
2, 48480, Note_on_c, 0, 59, 0
2, 48559, Note_on_c, 0, 61, 0
2, 48563, Note_on_c, 0, 55, 45
2, 48638, Note_on_c, 0, 60, 47
2, 48643, Note_on_c, 0, 55, 0
2, 48718, Note_on_c, 0, 60, 0
2, 48719, Note_on_c, 0, 55, 45
2, 48799, Note_on_c, 0, 55, 0
2, 48799, Note_on_c, 0, 59, 46
2, 48879, Note_on_c, 0, 59, 0
2, 48879, Note_on_c, 0, 52, 42
2, 48958, Note_on_c, 0, 58, 45
2, 48959, Note_on_c, 0, 52, 0
2, 49038, Note_on_c, 0, 58, 0
2, 49041, Note_on_c, 0, 55, 45
2, 49121, Note_on_c, 0, 55, 0
2, 49123, Note_on_c, 0, 57, 47
2, 49203, Note_on_c, 0, 57, 0
2, 49203, Note_on_c, 0, 47, 45
2, 49279, Note_on_c, 0, 56, 47
2, 49283, Note_on_c, 0, 47, 0
2, 49359, Note_on_c, 0, 56, 0
2, 49362, Note_on_c, 0, 52, 46
2, 49441, Note_on_c, 0, 55, 49
2, 49442, Note_on_c, 0, 52, 0
2, 49521, Note_on_c, 0, 55, 0
2, 49521, Note_on_c, 0, 47, 46
2, 49601, Note_on_c, 0, 47, 0
2, 49603, Note_on_c, 0, 54, 49
2, 49680, Note_on_c, 0, 52, 46
2, 49683, Note_on_c, 0, 54, 0
2, 49760, Note_on_c, 0, 52, 0
2, 49763, Note_on_c, 0, 55, 50
2, 49841, Note_on_c, 0, 48, 50
2, 49843, Note_on_c, 0, 55, 0
2, 49918, Note_on_c, 0, 59, 59
2, 49921, Note_on_c, 0, 48, 0
2, 49998, Note_on_c, 0, 59, 0
2, 50001, Note_on_c, 0, 54, 59
2, 50081, Note_on_c, 0, 54, 0
2, 50081, Note_on_c, 0, 57, 59
2, 50160, Note_on_c, 0, 60, 59
2, 50161, Note_on_c, 0, 57, 0
2, 50240, Note_on_c, 0, 60, 0
2, 50243, Note_on_c, 0, 71, 59
2, 50321, Note_on_c, 0, 66, 59
2, 50323, Note_on_c, 0, 71, 0
2, 50401, Note_on_c, 0, 66, 0
2, 50401, Note_on_c, 0, 69, 62
2, 50481, Note_on_c, 0, 69, 0
2, 50481, Note_on_c, 0, 72, 66
2, 50559, Note_on_c, 0, 83, 67
2, 50561, Note_on_c, 0, 72, 0
2, 50639, Note_on_c, 0, 83, 0
2, 50640, Note_on_c, 0, 78, 69
2, 50720, Note_on_c, 0, 78, 0
2, 50720, Note_on_c, 0, 81, 69
2, 50798, Note_on_c, 0, 72, 69
2, 50800, Note_on_c, 0, 81, 0
2, 50878, Note_on_c, 0, 72, 0
2, 50882, Note_on_c, 0, 81, 68
2, 50959, Note_on_c, 0, 76, 67
2, 50962, Note_on_c, 0, 81, 0
2, 51038, Note_on_c, 0, 79, 66
2, 51039, Note_on_c, 0, 76, 0
2, 51118, Note_on_c, 0, 79, 0
2, 51120, Note_on_c, 0, 72, 62
2, 51200, Note_on_c, 0, 72, 0
2, 51201, Note_on_c, 0, 69, 61
2, 51278, Note_on_c, 0, 64, 60
2, 51281, Note_on_c, 0, 69, 0
2, 51358, Note_on_c, 0, 64, 0
2, 51359, Note_on_c, 0, 67, 58
2, 51438, Note_on_c, 0, 60, 58
2, 51439, Note_on_c, 0, 67, 0
2, 51518, Note_on_c, 0, 60, 0
2, 51521, Note_on_c, 0, 57, 58
2, 51600, Note_on_c, 0, 52, 58
2, 51601, Note_on_c, 0, 57, 0
2, 51680, Note_on_c, 0, 52, 0
2, 51681, Note_on_c, 0, 55, 58
2, 51761, Note_on_c, 0, 55, 0
2, 51762, Note_on_c, 0, 48, 58
2, 51840, Note_on_c, 0, 59, 59
2, 51842, Note_on_c, 0, 48, 0
2, 51920, Note_on_c, 0, 59, 0
2, 51922, Note_on_c, 0, 54, 59
2, 52000, Note_on_c, 0, 57, 59
2, 52002, Note_on_c, 0, 54, 0
2, 52080, Note_on_c, 0, 57, 0
2, 52083, Note_on_c, 0, 60, 59
2, 52161, Note_on_c, 0, 71, 59
2, 52163, Note_on_c, 0, 60, 0
2, 52239, Note_on_c, 0, 66, 59
2, 52241, Note_on_c, 0, 71, 0
2, 52319, Note_on_c, 0, 66, 0
2, 52323, Note_on_c, 0, 69, 64
2, 52403, Note_on_c, 0, 69, 0
2, 52403, Note_on_c, 0, 72, 66
2, 52480, Note_on_c, 0, 83, 67
2, 52483, Note_on_c, 0, 72, 0
2, 52560, Note_on_c, 0, 83, 0
2, 52563, Note_on_c, 0, 78, 68
2, 52639, Note_on_c, 0, 81, 69
2, 52643, Note_on_c, 0, 78, 0
2, 52719, Note_on_c, 0, 81, 0
2, 52723, Note_on_c, 0, 71, 70
2, 52801, Note_on_c, 0, 81, 70
2, 52803, Note_on_c, 0, 71, 0
2, 52880, Note_on_c, 0, 76, 69
2, 52881, Note_on_c, 0, 81, 0
2, 52960, Note_on_c, 0, 76, 0
2, 52961, Note_on_c, 0, 79, 68
2, 53041, Note_on_c, 0, 79, 0
2, 53042, Note_on_c, 0, 71, 67
2, 53118, Note_on_c, 0, 69, 66
2, 53122, Note_on_c, 0, 71, 0
2, 53198, Note_on_c, 0, 69, 0
2, 53199, Note_on_c, 0, 64, 64
2, 53279, Note_on_c, 0, 64, 0
2, 53279, Note_on_c, 0, 67, 59
2, 53359, Note_on_c, 0, 67, 0
2, 53360, Note_on_c, 0, 59, 59
2, 53440, Note_on_c, 0, 59, 0
2, 53443, Note_on_c, 0, 57, 59
2, 53522, Note_on_c, 0, 52, 59
2, 53523, Note_on_c, 0, 57, 0
2, 53602, Note_on_c, 0, 52, 0
2, 53602, Note_on_c, 0, 55, 59
2, 53682, Note_on_c, 0, 55, 0
2, 53683, Note_on_c, 0, 54, 59
2, 53760, Note_on_c, 0, 64, 59
2, 53763, Note_on_c, 0, 54, 0
2, 53840, Note_on_c, 0, 64, 0
2, 53840, Note_on_c, 0, 59, 58
2, 53920, Note_on_c, 0, 59, 0
2, 53923, Note_on_c, 0, 63, 58
2, 53999, Note_on_c, 0, 66, 58
2, 54003, Note_on_c, 0, 63, 0
2, 54079, Note_on_c, 0, 66, 0
2, 54080, Note_on_c, 0, 76, 58
2, 54160, Note_on_c, 0, 76, 0
2, 54161, Note_on_c, 0, 71, 58
2, 54240, Note_on_c, 0, 75, 58
2, 54241, Note_on_c, 0, 71, 0
2, 54320, Note_on_c, 0, 75, 0
2, 54322, Note_on_c, 0, 78, 58
2, 54402, Note_on_c, 0, 78, 0
2, 54402, Note_on_c, 0, 88, 59
2, 54482, Note_on_c, 0, 88, 0
2, 54482, Note_on_c, 0, 83, 59
2, 54562, Note_on_c, 0, 83, 0
2, 54562, Note_on_c, 0, 87, 61
2, 54638, Note_on_c, 0, 78, 62
2, 54642, Note_on_c, 0, 87, 0
2, 54718, Note_on_c, 0, 78, 0
2, 54719, Note_on_c, 0, 87, 64
2, 54799, Note_on_c, 0, 87, 0
2, 54799, Note_on_c, 0, 82, 64
2, 54879, Note_on_c, 0, 82, 0
2, 54882, Note_on_c, 0, 85, 61
2, 54962, Note_on_c, 0, 85, 0
2, 54963, Note_on_c, 0, 78, 60
2, 55040, Note_on_c, 0, 75, 59
2, 55043, Note_on_c, 0, 78, 0
2, 55120, Note_on_c, 0, 75, 0
2, 55121, Note_on_c, 0, 70, 59
2, 55198, Note_on_c, 0, 73, 55
2, 55201, Note_on_c, 0, 70, 0
2, 55278, Note_on_c, 0, 73, 0
2, 55283, Note_on_c, 0, 66, 55
2, 55359, Note_on_c, 0, 63, 55
2, 55363, Note_on_c, 0, 66, 0
2, 55439, Note_on_c, 0, 63, 0
2, 55441, Note_on_c, 0, 58, 55
2, 55521, Note_on_c, 0, 58, 0
2, 55521, Note_on_c, 0, 61, 55
2, 55600, Note_on_c, 0, 54, 55
2, 55601, Note_on_c, 0, 61, 0
2, 55680, Note_on_c, 0, 54, 0
2, 55682, Note_on_c, 0, 63, 55
2, 55758, Note_on_c, 0, 59, 55
2, 55762, Note_on_c, 0, 63, 0
2, 55838, Note_on_c, 0, 59, 0
2, 55838, Note_on_c, 0, 63, 55
2, 55918, Note_on_c, 0, 63, 0
2, 55918, Note_on_c, 0, 66, 55
2, 55998, Note_on_c, 0, 66, 0
2, 55998, Note_on_c, 0, 76, 55
2, 56078, Note_on_c, 0, 76, 0
2, 56080, Note_on_c, 0, 71, 55
2, 56159, Note_on_c, 0, 75, 55
2, 56160, Note_on_c, 0, 71, 0
2, 56239, Note_on_c, 0, 75, 0
2, 56242, Note_on_c, 0, 78, 59
2, 56318, Note_on_c, 0, 88, 59
2, 56322, Note_on_c, 0, 78, 0
2, 56398, Note_on_c, 0, 88, 0
2, 56400, Note_on_c, 0, 83, 59
2, 56478, Note_on_c, 0, 87, 59
2, 56480, Note_on_c, 0, 83, 0
2, 56558, Note_on_c, 0, 87, 0
2, 56562, Note_on_c, 0, 78, 59
2, 56640, Note_on_c, 0, 95, 83
2, 56642, Note_on_c, 0, 78, 0
2, 56880, Note_on_c, 0, 95, 0
2, 57602, Note_on_c, 0, 96, 94
2, 57679, Note_on_c, 0, 91, 70
2, 57682, Note_on_c, 0, 96, 0
2, 57759, Note_on_c, 0, 91, 0
2, 57762, Note_on_c, 0, 95, 90
2, 57841, Note_on_c, 0, 88, 70
2, 57842, Note_on_c, 0, 95, 0
2, 57921, Note_on_c, 0, 88, 0
2, 57921, Note_on_c, 0, 94, 88
2, 58001, Note_on_c, 0, 94, 0
2, 58001, Note_on_c, 0, 91, 70
2, 58078, Note_on_c, 0, 93, 85
2, 58081, Note_on_c, 0, 91, 0
2, 58158, Note_on_c, 0, 93, 0
2, 58161, Note_on_c, 0, 88, 68
2, 58238, Note_on_c, 0, 92, 84
2, 58241, Note_on_c, 0, 88, 0
2, 58318, Note_on_c, 0, 92, 0
2, 58323, Note_on_c, 0, 88, 68
2, 58400, Note_on_c, 0, 91, 80
2, 58403, Note_on_c, 0, 88, 0
2, 58480, Note_on_c, 0, 91, 0
2, 58483, Note_on_c, 0, 83, 68
2, 58562, Note_on_c, 0, 90, 81
2, 58563, Note_on_c, 0, 83, 0
2, 58641, Note_on_c, 0, 83, 70
2, 58642, Note_on_c, 0, 90, 0
2, 58721, Note_on_c, 0, 83, 0
2, 58722, Note_on_c, 0, 89, 77
2, 58802, Note_on_c, 0, 89, 0
2, 58802, Note_on_c, 0, 79, 70
2, 58880, Note_on_c, 0, 88, 77
2, 58882, Note_on_c, 0, 79, 0
2, 58960, Note_on_c, 0, 88, 0
2, 58960, Note_on_c, 0, 83, 70
2, 59038, Note_on_c, 0, 87, 77
2, 59040, Note_on_c, 0, 83, 0
2, 59118, Note_on_c, 0, 87, 0
2, 59122, Note_on_c, 0, 79, 68
2, 59199, Note_on_c, 0, 86, 73
2, 59202, Note_on_c, 0, 79, 0
2, 59278, Note_on_c, 0, 79, 68
2, 59279, Note_on_c, 0, 86, 0
2, 59358, Note_on_c, 0, 79, 0
2, 59359, Note_on_c, 0, 85, 70
2, 59439, Note_on_c, 0, 85, 0
2, 59442, Note_on_c, 0, 76, 68
2, 59519, Note_on_c, 0, 84, 77
2, 59522, Note_on_c, 0, 76, 0
2, 59599, Note_on_c, 0, 84, 0
2, 59599, Note_on_c, 0, 79, 70
2, 59679, Note_on_c, 0, 79, 0
2, 59680, Note_on_c, 0, 83, 77
2, 59758, Note_on_c, 0, 76, 70
2, 59760, Note_on_c, 0, 83, 0
2, 59838, Note_on_c, 0, 76, 0
2, 59840, Note_on_c, 0, 82, 77
2, 59920, Note_on_c, 0, 82, 0
2, 59921, Note_on_c, 0, 79, 70
2, 60001, Note_on_c, 0, 79, 0
2, 60001, Note_on_c, 0, 81, 77
2, 60081, Note_on_c, 0, 81, 0
2, 60082, Note_on_c, 0, 76, 68
2, 60160, Note_on_c, 0, 80, 70
2, 60162, Note_on_c, 0, 76, 0
2, 60240, Note_on_c, 0, 80, 0
2, 60240, Note_on_c, 0, 76, 68
2, 60320, Note_on_c, 0, 76, 0
2, 60323, Note_on_c, 0, 79, 70
2, 60403, Note_on_c, 0, 79, 0
2, 60403, Note_on_c, 0, 71, 70
2, 60481, Note_on_c, 0, 78, 70
2, 60483, Note_on_c, 0, 71, 0
2, 60561, Note_on_c, 0, 78, 0
2, 60563, Note_on_c, 0, 71, 68
2, 60638, Note_on_c, 0, 77, 70
2, 60643, Note_on_c, 0, 71, 0
2, 60718, Note_on_c, 0, 77, 0
2, 60721, Note_on_c, 0, 67, 68
2, 60801, Note_on_c, 0, 67, 0
2, 60803, Note_on_c, 0, 76, 70
2, 60880, Note_on_c, 0, 71, 68
2, 60883, Note_on_c, 0, 76, 0
2, 60959, Note_on_c, 0, 75, 70
2, 60960, Note_on_c, 0, 71, 0
2, 61039, Note_on_c, 0, 75, 0
2, 61039, Note_on_c, 0, 67, 68
2, 61118, Note_on_c, 0, 74, 70
2, 61119, Note_on_c, 0, 67, 0
2, 61198, Note_on_c, 0, 74, 0
2, 61201, Note_on_c, 0, 67, 68
2, 61280, Note_on_c, 0, 73, 70
2, 61281, Note_on_c, 0, 67, 0
2, 61358, Note_on_c, 0, 64, 68
2, 61360, Note_on_c, 0, 73, 0
2, 61438, Note_on_c, 0, 64, 0
2, 61438, Note_on_c, 0, 72, 61
2, 61518, Note_on_c, 0, 72, 0
2, 61520, Note_on_c, 0, 67, 59
2, 61600, Note_on_c, 0, 67, 0
2, 61603, Note_on_c, 0, 71, 61
2, 61683, Note_on_c, 0, 71, 0
2, 61683, Note_on_c, 0, 64, 59
2, 61760, Note_on_c, 0, 70, 61
2, 61763, Note_on_c, 0, 64, 0
2, 61840, Note_on_c, 0, 70, 0
2, 61842, Note_on_c, 0, 67, 59
2, 61921, Note_on_c, 0, 69, 61
2, 61922, Note_on_c, 0, 67, 0
2, 62001, Note_on_c, 0, 69, 0
2, 62002, Note_on_c, 0, 64, 59
2, 62082, Note_on_c, 0, 64, 0
2, 62083, Note_on_c, 0, 68, 61
2, 62161, Note_on_c, 0, 64, 59
2, 62163, Note_on_c, 0, 68, 0
2, 62241, Note_on_c, 0, 64, 0
2, 62241, Note_on_c, 0, 67, 61
2, 62318, Note_on_c, 0, 59, 59
2, 62321, Note_on_c, 0, 67, 0
2, 62398, Note_on_c, 0, 59, 0
2, 62402, Note_on_c, 0, 66, 61
2, 62480, Note_on_c, 0, 59, 58
2, 62482, Note_on_c, 0, 66, 0
2, 62560, Note_on_c, 0, 59, 0
2, 62561, Note_on_c, 0, 65, 60
2, 62641, Note_on_c, 0, 65, 0
2, 62641, Note_on_c, 0, 55, 56
2, 62721, Note_on_c, 0, 55, 0
2, 62721, Note_on_c, 0, 64, 59
2, 62801, Note_on_c, 0, 64, 0
2, 62802, Note_on_c, 0, 59, 55
2, 62882, Note_on_c, 0, 59, 0
2, 62882, Note_on_c, 0, 63, 59
2, 62960, Note_on_c, 0, 54, 53
2, 62962, Note_on_c, 0, 63, 0
2, 63038, Note_on_c, 0, 62, 56
2, 63040, Note_on_c, 0, 54, 0
2, 63118, Note_on_c, 0, 62, 0
2, 63119, Note_on_c, 0, 55, 51
2, 63199, Note_on_c, 0, 55, 0
2, 63200, Note_on_c, 0, 61, 55
2, 63279, Note_on_c, 0, 53, 49
2, 63280, Note_on_c, 0, 61, 0
2, 63359, Note_on_c, 0, 53, 0
2, 63362, Note_on_c, 0, 60, 55
2, 63440, Note_on_c, 0, 55, 50
2, 63442, Note_on_c, 0, 60, 0
2, 63520, Note_on_c, 0, 55, 0
2, 63523, Note_on_c, 0, 59, 53
2, 63598, Note_on_c, 0, 53, 49
2, 63603, Note_on_c, 0, 59, 0
2, 63678, Note_on_c, 0, 53, 0
2, 63682, Note_on_c, 0, 58, 50
2, 63761, Note_on_c, 0, 55, 47
2, 63762, Note_on_c, 0, 58, 0
2, 63841, Note_on_c, 0, 55, 0
2, 63843, Note_on_c, 0, 57, 49
2, 63919, Note_on_c, 0, 50, 46
2, 63923, Note_on_c, 0, 57, 0
2, 63999, Note_on_c, 0, 50, 0
2, 64001, Note_on_c, 0, 56, 49
2, 64081, Note_on_c, 0, 56, 0
2, 64083, Note_on_c, 0, 53, 46
2, 64162, Note_on_c, 0, 55, 49
2, 64163, Note_on_c, 0, 53, 0
2, 64242, Note_on_c, 0, 55, 0
2, 64243, Note_on_c, 0, 47, 45
2, 64319, Note_on_c, 0, 54, 49
2, 64323, Note_on_c, 0, 47, 0
2, 64399, Note_on_c, 0, 54, 0
2, 64403, Note_on_c, 0, 53, 46
2, 64482, Note_on_c, 0, 55, 53
2, 64483, Note_on_c, 0, 53, 0
2, 64562, Note_on_c, 0, 55, 0
2, 64563, Note_on_c, 0, 47, 50
2, 64643, Note_on_c, 0, 47, 0
2, 64643, Note_on_c, 0, 56, 56
2, 64723, Note_on_c, 0, 56, 0
2, 64723, Note_on_c, 0, 53, 55
2, 64801, Note_on_c, 0, 57, 59
2, 64803, Note_on_c, 0, 53, 0
2, 64879, Note_on_c, 0, 50, 56
2, 64881, Note_on_c, 0, 57, 0
2, 64959, Note_on_c, 0, 50, 0
2, 64961, Note_on_c, 0, 58, 61
2, 65039, Note_on_c, 0, 55, 59
2, 65041, Note_on_c, 0, 58, 0
2, 65119, Note_on_c, 0, 55, 0
2, 65119, Note_on_c, 0, 59, 64
2, 65199, Note_on_c, 0, 59, 0
2, 65202, Note_on_c, 0, 53, 64
2, 65282, Note_on_c, 0, 53, 0
2, 65282, Note_on_c, 0, 64, 69
2, 65359, Note_on_c, 0, 59, 69
2, 65362, Note_on_c, 0, 64, 0
2, 65439, Note_on_c, 0, 59, 0
2, 65442, Note_on_c, 0, 62, 69
2, 65520, Note_on_c, 0, 65, 69
2, 65522, Note_on_c, 0, 62, 0
2, 65598, Note_on_c, 0, 76, 69
2, 65600, Note_on_c, 0, 65, 0
2, 65678, Note_on_c, 0, 76, 0
2, 65682, Note_on_c, 0, 71, 69
2, 65762, Note_on_c, 0, 71, 0
2, 65763, Note_on_c, 0, 74, 66
2, 65838, Note_on_c, 0, 77, 67
2, 65843, Note_on_c, 0, 74, 0
2, 65918, Note_on_c, 0, 77, 0
2, 65919, Note_on_c, 0, 88, 69
2, 65999, Note_on_c, 0, 88, 0
2, 66001, Note_on_c, 0, 83, 70
2, 66080, Note_on_c, 0, 86, 72
2, 66081, Note_on_c, 0, 83, 0
2, 66160, Note_on_c, 0, 86, 0
2, 66162, Note_on_c, 0, 77, 73
2, 66239, Note_on_c, 0, 88, 77
2, 66242, Note_on_c, 0, 77, 0
2, 66319, Note_on_c, 0, 88, 0
2, 66322, Note_on_c, 0, 82, 73
2, 66402, Note_on_c, 0, 82, 0
2, 66403, Note_on_c, 0, 86, 72
2, 66478, Note_on_c, 0, 77, 71
2, 66483, Note_on_c, 0, 86, 0
2, 66558, Note_on_c, 0, 77, 0
2, 66561, Note_on_c, 0, 76, 69
2, 66641, Note_on_c, 0, 76, 0
2, 66642, Note_on_c, 0, 70, 69
2, 66719, Note_on_c, 0, 74, 64
2, 66722, Note_on_c, 0, 70, 0
2, 66798, Note_on_c, 0, 65, 64
2, 66799, Note_on_c, 0, 74, 0
2, 66878, Note_on_c, 0, 65, 0
2, 66879, Note_on_c, 0, 64, 64
2, 66959, Note_on_c, 0, 64, 0
2, 66962, Note_on_c, 0, 58, 64
2, 67042, Note_on_c, 0, 58, 0
2, 67043, Note_on_c, 0, 62, 64
2, 67121, Note_on_c, 0, 53, 64
2, 67123, Note_on_c, 0, 62, 0
2, 67200, Note_on_c, 0, 64, 69
2, 67201, Note_on_c, 0, 53, 0
2, 67280, Note_on_c, 0, 64, 0
2, 67282, Note_on_c, 0, 57, 69
2, 67359, Note_on_c, 0, 62, 69
2, 67362, Note_on_c, 0, 57, 0
2, 67439, Note_on_c, 0, 62, 0
2, 67441, Note_on_c, 0, 65, 69
2, 67519, Note_on_c, 0, 76, 69
2, 67521, Note_on_c, 0, 65, 0
2, 67599, Note_on_c, 0, 76, 0
2, 67599, Note_on_c, 0, 69, 69
2, 67679, Note_on_c, 0, 69, 0
2, 67683, Note_on_c, 0, 74, 68
2, 67759, Note_on_c, 0, 77, 68
2, 67763, Note_on_c, 0, 74, 0
2, 67838, Note_on_c, 0, 88, 69
2, 67839, Note_on_c, 0, 77, 0
2, 67918, Note_on_c, 0, 88, 0
2, 67922, Note_on_c, 0, 81, 70
2, 67998, Note_on_c, 0, 86, 71
2, 68002, Note_on_c, 0, 81, 0
2, 68078, Note_on_c, 0, 86, 0
2, 68078, Note_on_c, 0, 77, 72
2, 68158, Note_on_c, 0, 77, 0
2, 68158, Note_on_c, 0, 88, 73
2, 68238, Note_on_c, 0, 88, 0
2, 68240, Note_on_c, 0, 80, 72
2, 68320, Note_on_c, 0, 80, 0
2, 68321, Note_on_c, 0, 86, 71
2, 68400, Note_on_c, 0, 77, 70
2, 68401, Note_on_c, 0, 86, 0
2, 68480, Note_on_c, 0, 77, 0
2, 68480, Note_on_c, 0, 76, 69
2, 68560, Note_on_c, 0, 76, 0
2, 68560, Note_on_c, 0, 68, 69
2, 68638, Note_on_c, 0, 74, 64
2, 68640, Note_on_c, 0, 68, 0
2, 68718, Note_on_c, 0, 74, 0
2, 68721, Note_on_c, 0, 65, 64
2, 68801, Note_on_c, 0, 65, 0
2, 68802, Note_on_c, 0, 64, 64
2, 68880, Note_on_c, 0, 56, 64
2, 68882, Note_on_c, 0, 64, 0
2, 68960, Note_on_c, 0, 56, 0
2, 68961, Note_on_c, 0, 62, 64
2, 69041, Note_on_c, 0, 62, 0
2, 69043, Note_on_c, 0, 53, 64
2, 69121, Note_on_c, 0, 64, 69
2, 69123, Note_on_c, 0, 53, 0
2, 69201, Note_on_c, 0, 64, 0
2, 69201, Note_on_c, 0, 55, 69
2, 69278, Note_on_c, 0, 62, 69
2, 69281, Note_on_c, 0, 55, 0
2, 69358, Note_on_c, 0, 62, 0
2, 69360, Note_on_c, 0, 53, 69
2, 69439, Note_on_c, 0, 67, 69
2, 69440, Note_on_c, 0, 53, 0
2, 69519, Note_on_c, 0, 67, 0
2, 69520, Note_on_c, 0, 64, 69
2, 69600, Note_on_c, 0, 64, 0
2, 69603, Note_on_c, 0, 65, 70
2, 69680, Note_on_c, 0, 62, 70
2, 69683, Note_on_c, 0, 65, 0
2, 69758, Note_on_c, 0, 76, 70
2, 69760, Note_on_c, 0, 62, 0
2, 69838, Note_on_c, 0, 76, 0
2, 69841, Note_on_c, 0, 67, 70
2, 69921, Note_on_c, 0, 67, 0
2, 69922, Note_on_c, 0, 74, 70
2, 70002, Note_on_c, 0, 74, 0
2, 70002, Note_on_c, 0, 65, 70
2, 70082, Note_on_c, 0, 65, 0
2, 70083, Note_on_c, 0, 79, 69
2, 70163, Note_on_c, 0, 79, 0
2, 70163, Note_on_c, 0, 76, 69
2, 70239, Note_on_c, 0, 77, 69
2, 70243, Note_on_c, 0, 76, 0
2, 70319, Note_on_c, 0, 77, 0
2, 70323, Note_on_c, 0, 74, 69
2, 70401, Note_on_c, 0, 88, 69
2, 70403, Note_on_c, 0, 74, 0
2, 70481, Note_on_c, 0, 88, 0
2, 70482, Note_on_c, 0, 79, 69
2, 70562, Note_on_c, 0, 79, 0
2, 70562, Note_on_c, 0, 86, 64
2, 70642, Note_on_c, 0, 86, 0
2, 70642, Note_on_c, 0, 77, 59
2, 70722, Note_on_c, 0, 77, 0
2, 70723, Note_on_c, 0, 91, 59
2, 70803, Note_on_c, 0, 91, 0
2, 70803, Note_on_c, 0, 88, 59
2, 70883, Note_on_c, 0, 88, 0
2, 70883, Note_on_c, 0, 89, 59
2, 70961, Note_on_c, 0, 86, 59
2, 70963, Note_on_c, 0, 89, 0
2, 71040, Note_on_c, 0, 93, 62
2, 71041, Note_on_c, 0, 86, 0
2, 71118, Note_on_c, 0, 88, 62
2, 71120, Note_on_c, 0, 93, 0
2, 71198, Note_on_c, 0, 88, 0
2, 71200, Note_on_c, 0, 91, 62
2, 71280, Note_on_c, 0, 91, 0
2, 71282, Note_on_c, 0, 84, 62
2, 71360, Note_on_c, 0, 100, 68
2, 71362, Note_on_c, 0, 84, 0
2, 71439, Note_on_c, 0, 91, 62
2, 71440, Note_on_c, 0, 100, 0
2, 71518, Note_on_c, 0, 98, 66
2, 71519, Note_on_c, 0, 91, 0
2, 71598, Note_on_c, 0, 98, 0
2, 71601, Note_on_c, 0, 88, 59
2, 71681, Note_on_c, 0, 88, 0
2, 71682, Note_on_c, 0, 96, 63
2, 71758, Note_on_c, 0, 92, 59
2, 71762, Note_on_c, 0, 96, 0
2, 71838, Note_on_c, 0, 92, 0
2, 71838, Note_on_c, 0, 95, 63
2, 71918, Note_on_c, 0, 95, 0
2, 71920, Note_on_c, 0, 88, 59
2, 72000, Note_on_c, 0, 88, 0
2, 72002, Note_on_c, 0, 94, 62
2, 72082, Note_on_c, 0, 94, 0
2, 72082, Note_on_c, 0, 89, 59
2, 72158, Note_on_c, 0, 92, 62
2, 72162, Note_on_c, 0, 89, 0
2, 72238, Note_on_c, 0, 92, 0
2, 72238, Note_on_c, 0, 85, 59
2, 72318, Note_on_c, 0, 85, 0
2, 72318, Note_on_c, 0, 90, 62
2, 72398, Note_on_c, 0, 90, 0
2, 72400, Note_on_c, 0, 85, 59
2, 72478, Note_on_c, 0, 89, 62
2, 72480, Note_on_c, 0, 85, 0
2, 72558, Note_on_c, 0, 89, 0
2, 72563, Note_on_c, 0, 80, 59
2, 72641, Note_on_c, 0, 87, 62
2, 72643, Note_on_c, 0, 80, 0
2, 72718, Note_on_c, 0, 80, 59
2, 72721, Note_on_c, 0, 87, 0
2, 72798, Note_on_c, 0, 80, 0
2, 72803, Note_on_c, 0, 85, 62
2, 72881, Note_on_c, 0, 77, 59
2, 72883, Note_on_c, 0, 85, 0
2, 72960, Note_on_c, 0, 85, 59
2, 72961, Note_on_c, 0, 77, 0
2, 73038, Note_on_c, 0, 78, 59
2, 73040, Note_on_c, 0, 85, 0
2, 73118, Note_on_c, 0, 78, 0
2, 73119, Note_on_c, 0, 84, 59
2, 73199, Note_on_c, 0, 84, 0
2, 73200, Note_on_c, 0, 76, 59
2, 73280, Note_on_c, 0, 76, 0
2, 73281, Note_on_c, 0, 79, 59
2, 73361, Note_on_c, 0, 79, 0
2, 73362, Note_on_c, 0, 72, 59
2, 73438, Note_on_c, 0, 80, 55
2, 73442, Note_on_c, 0, 72, 0
2, 73518, Note_on_c, 0, 80, 0
2, 73522, Note_on_c, 0, 76, 55
2, 73598, Note_on_c, 0, 78, 55
2, 73602, Note_on_c, 0, 76, 0
2, 73678, Note_on_c, 0, 78, 0
2, 73681, Note_on_c, 0, 72, 55
2, 73761, Note_on_c, 0, 72, 0
2, 73761, Note_on_c, 0, 79, 55
2, 73841, Note_on_c, 0, 79, 0
2, 73843, Note_on_c, 0, 76, 55
2, 73920, Note_on_c, 0, 81, 55
2, 73923, Note_on_c, 0, 76, 0
2, 73999, Note_on_c, 0, 71, 55
2, 74000, Note_on_c, 0, 81, 0
2, 74079, Note_on_c, 0, 71, 0
2, 74079, Note_on_c, 0, 78, 55
2, 74159, Note_on_c, 0, 78, 0
2, 74162, Note_on_c, 0, 77, 55
2, 74240, Note_on_c, 0, 79, 55
2, 74242, Note_on_c, 0, 77, 0
2, 74320, Note_on_c, 0, 79, 0
2, 74320, Note_on_c, 0, 71, 55
2, 74400, Note_on_c, 0, 71, 0
2, 74401, Note_on_c, 0, 83, 55
2, 74478, Note_on_c, 0, 77, 53
2, 74481, Note_on_c, 0, 83, 0
2, 74558, Note_on_c, 0, 77, 0
2, 74563, Note_on_c, 0, 88, 53
2, 74642, Note_on_c, 0, 79, 53
2, 74643, Note_on_c, 0, 88, 0
2, 74718, Note_on_c, 0, 86, 53
2, 74722, Note_on_c, 0, 79, 0
2, 74798, Note_on_c, 0, 86, 0
2, 74800, Note_on_c, 0, 77, 53
2, 74880, Note_on_c, 0, 77, 0
2, 74882, Note_on_c, 0, 86, 55
2, 74962, Note_on_c, 0, 86, 0
2, 74963, Note_on_c, 0, 79, 46
2, 75042, Note_on_c, 0, 84, 55
2, 75043, Note_on_c, 0, 79, 0
2, 75121, Note_on_c, 0, 76, 46
2, 75122, Note_on_c, 0, 84, 0
2, 75201, Note_on_c, 0, 76, 0
2, 75201, Note_on_c, 0, 81, 55
2, 75281, Note_on_c, 0, 81, 0
2, 75283, Note_on_c, 0, 76, 47
2, 75362, Note_on_c, 0, 79, 55
2, 75363, Note_on_c, 0, 76, 0
2, 75439, Note_on_c, 0, 72, 47
2, 75442, Note_on_c, 0, 79, 0
2, 75519, Note_on_c, 0, 72, 0
2, 75521, Note_on_c, 0, 77, 55
2, 75599, Note_on_c, 0, 72, 47
2, 75601, Note_on_c, 0, 77, 0
2, 75679, Note_on_c, 0, 72, 0
2, 75681, Note_on_c, 0, 76, 55
2, 75761, Note_on_c, 0, 76, 0
2, 75762, Note_on_c, 0, 67, 47
2, 75839, Note_on_c, 0, 81, 55
2, 75842, Note_on_c, 0, 67, 0
2, 75919, Note_on_c, 0, 81, 0
2, 75921, Note_on_c, 0, 76, 49
2, 76000, Note_on_c, 0, 79, 55
2, 76001, Note_on_c, 0, 76, 0
2, 76080, Note_on_c, 0, 79, 0
2, 76083, Note_on_c, 0, 72, 49
2, 76162, Note_on_c, 0, 77, 55
2, 76163, Note_on_c, 0, 72, 0
2, 76242, Note_on_c, 0, 77, 0
2, 76242, Note_on_c, 0, 72, 47
2, 76321, Note_on_c, 0, 76, 55
2, 76322, Note_on_c, 0, 72, 0
2, 76400, Note_on_c, 0, 67, 49
2, 76401, Note_on_c, 0, 76, 0
2, 76480, Note_on_c, 0, 67, 0
2, 76482, Note_on_c, 0, 81, 55
2, 76562, Note_on_c, 0, 81, 0
2, 76562, Note_on_c, 0, 76, 47
2, 76642, Note_on_c, 0, 76, 0
2, 76643, Note_on_c, 0, 79, 55
2, 76719, Note_on_c, 0, 72, 47
2, 76723, Note_on_c, 0, 79, 0
2, 76799, Note_on_c, 0, 72, 0
2, 76800, Note_on_c, 0, 76, 69
2, 76800, Note_on_c, 0, 79, 82
2, 77280, Note_on_c, 0, 79, 0
2, 77280, Note_on_c, 0, 76, 0
2, 77280, Note_on_c, 0, 76, 69
2, 77280, Note_on_c, 0, 79, 82
2, 77280, Note_on_c, 0, 67, 69
2, 77640, Note_on_c, 0, 67, 0
2, 77640, Note_on_c, 0, 79, 0
2, 77640, Note_on_c, 0, 76, 0
2, 77640, Note_on_c, 0, 76, 63
2, 77640, Note_on_c, 0, 67, 63
2, 77640, Note_on_c, 0, 79, 77
2, 77760, Note_on_c, 0, 79, 0
2, 77760, Note_on_c, 0, 67, 0
2, 77760, Note_on_c, 0, 76, 0
2, 77760, Note_on_c, 0, 67, 69
2, 77760, Note_on_c, 0, 79, 82
2, 77760, Note_on_c, 0, 76, 69
2, 78240, Note_on_c, 0, 76, 0
2, 78240, Note_on_c, 0, 79, 0
2, 78240, Note_on_c, 0, 67, 0
2, 78240, Note_on_c, 0, 76, 72
2, 78240, Note_on_c, 0, 69, 72
2, 78240, Note_on_c, 0, 81, 85
2, 78720, Note_on_c, 0, 81, 0
2, 78720, Note_on_c, 0, 69, 0
2, 78720, Note_on_c, 0, 76, 0
2, 78720, Note_on_c, 0, 79, 82
2, 78720, Note_on_c, 0, 67, 69
2, 78720, Note_on_c, 0, 76, 69
2, 79200, Note_on_c, 0, 76, 0
2, 79200, Note_on_c, 0, 67, 0
2, 79200, Note_on_c, 0, 79, 0
2, 79200, Note_on_c, 0, 73, 63
2, 79200, Note_on_c, 0, 67, 63
2, 79200, Note_on_c, 0, 76, 77
2, 79680, Note_on_c, 0, 76, 0
2, 79680, Note_on_c, 0, 67, 0
2, 79680, Note_on_c, 0, 73, 0
2, 79680, Note_on_c, 0, 67, 63
2, 79680, Note_on_c, 0, 79, 77
2, 79680, Note_on_c, 0, 76, 63
2, 80640, Note_on_c, 0, 76, 0
2, 80640, Note_on_c, 0, 79, 0
2, 80640, Note_on_c, 0, 67, 0
2, 80640, Note_on_c, 0, 79, 69
2, 80640, Note_on_c, 0, 82, 82
2, 81120, Note_on_c, 0, 82, 0
2, 81120, Note_on_c, 0, 79, 0
2, 81120, Note_on_c, 0, 70, 69
2, 81120, Note_on_c, 0, 79, 69
2, 81120, Note_on_c, 0, 82, 82
2, 81480, Note_on_c, 0, 82, 0
2, 81480, Note_on_c, 0, 79, 0
2, 81480, Note_on_c, 0, 70, 0
2, 81480, Note_on_c, 0, 70, 63
2, 81480, Note_on_c, 0, 79, 63
2, 81480, Note_on_c, 0, 82, 77
2, 81600, Note_on_c, 0, 82, 0
2, 81600, Note_on_c, 0, 79, 0
2, 81600, Note_on_c, 0, 70, 0
2, 81600, Note_on_c, 0, 82, 82
2, 81600, Note_on_c, 0, 70, 69
2, 81600, Note_on_c, 0, 79, 69
2, 82080, Note_on_c, 0, 79, 0
2, 82080, Note_on_c, 0, 70, 0
2, 82080, Note_on_c, 0, 82, 0
2, 82080, Note_on_c, 0, 72, 72
2, 82080, Note_on_c, 0, 84, 85
2, 82080, Note_on_c, 0, 79, 72
2, 82560, Note_on_c, 0, 79, 0
2, 82560, Note_on_c, 0, 84, 0
2, 82560, Note_on_c, 0, 72, 0
2, 82560, Note_on_c, 0, 70, 69
2, 82560, Note_on_c, 0, 79, 69
2, 82560, Note_on_c, 0, 82, 82
2, 83040, Note_on_c, 0, 82, 0
2, 83040, Note_on_c, 0, 79, 0
2, 83040, Note_on_c, 0, 70, 0
2, 83040, Note_on_c, 0, 79, 81
2, 83040, Note_on_c, 0, 70, 68
2, 83040, Note_on_c, 0, 76, 68
2, 83520, Note_on_c, 0, 76, 0
2, 83520, Note_on_c, 0, 70, 0
2, 83520, Note_on_c, 0, 79, 0
2, 83520, Note_on_c, 0, 79, 70
2, 83520, Note_on_c, 0, 70, 70
2, 83520, Note_on_c, 0, 82, 84
2, 84480, Note_on_c, 0, 82, 0
2, 84480, Note_on_c, 0, 70, 0
2, 84480, Note_on_c, 0, 79, 0
2, 84482, Note_on_c, 0, 96, 67
2, 84562, Note_on_c, 0, 96, 0
2, 84563, Note_on_c, 0, 87, 58
2, 84638, Note_on_c, 0, 94, 61
2, 84643, Note_on_c, 0, 87, 0
2, 84718, Note_on_c, 0, 94, 0
2, 84720, Note_on_c, 0, 85, 58
2, 84800, Note_on_c, 0, 85, 0
2, 84800, Note_on_c, 0, 92, 61
2, 84880, Note_on_c, 0, 92, 0
2, 84882, Note_on_c, 0, 87, 58
2, 84960, Note_on_c, 0, 91, 56
2, 84962, Note_on_c, 0, 87, 0
2, 85040, Note_on_c, 0, 91, 0
2, 85040, Note_on_c, 0, 85, 52
2, 85120, Note_on_c, 0, 85, 0
2, 85122, Note_on_c, 0, 89, 56
2, 85199, Note_on_c, 0, 85, 52
2, 85202, Note_on_c, 0, 89, 0
2, 85279, Note_on_c, 0, 85, 0
2, 85281, Note_on_c, 0, 87, 56
2, 85358, Note_on_c, 0, 79, 52
2, 85361, Note_on_c, 0, 87, 0
2, 85438, Note_on_c, 0, 79, 0
2, 85443, Note_on_c, 0, 89, 61
2, 85523, Note_on_c, 0, 89, 0
2, 85523, Note_on_c, 0, 84, 58
2, 85603, Note_on_c, 0, 84, 0
2, 85603, Note_on_c, 0, 87, 61
2, 85678, Note_on_c, 0, 80, 58
2, 85683, Note_on_c, 0, 87, 0
2, 85758, Note_on_c, 0, 80, 0
2, 85760, Note_on_c, 0, 85, 61
2, 85840, Note_on_c, 0, 85, 0
2, 85841, Note_on_c, 0, 80, 58
2, 85921, Note_on_c, 0, 80, 0
2, 85922, Note_on_c, 0, 84, 61
2, 86002, Note_on_c, 0, 84, 0
2, 86002, Note_on_c, 0, 75, 52
2, 86079, Note_on_c, 0, 82, 56
2, 86082, Note_on_c, 0, 75, 0
2, 86159, Note_on_c, 0, 82, 0
2, 86163, Note_on_c, 0, 75, 52
2, 86242, Note_on_c, 0, 80, 56
2, 86243, Note_on_c, 0, 75, 0
2, 86319, Note_on_c, 0, 72, 52
2, 86322, Note_on_c, 0, 80, 0
2, 86399, Note_on_c, 0, 72, 0
2, 86401, Note_on_c, 0, 84, 61
2, 86478, Note_on_c, 0, 75, 58
2, 86481, Note_on_c, 0, 84, 0
2, 86558, Note_on_c, 0, 75, 0
2, 86561, Note_on_c, 0, 82, 61
2, 86641, Note_on_c, 0, 82, 0
2, 86642, Note_on_c, 0, 73, 58
2, 86722, Note_on_c, 0, 73, 0
2, 86722, Note_on_c, 0, 81, 61
2, 86798, Note_on_c, 0, 75, 58
2, 86802, Note_on_c, 0, 81, 0
2, 86878, Note_on_c, 0, 75, 0
2, 86882, Note_on_c, 0, 82, 56
2, 86961, Note_on_c, 0, 73, 52
2, 86962, Note_on_c, 0, 82, 0
2, 87041, Note_on_c, 0, 73, 0
2, 87043, Note_on_c, 0, 85, 56
2, 87123, Note_on_c, 0, 85, 0
2, 87123, Note_on_c, 0, 75, 52
2, 87202, Note_on_c, 0, 79, 56
2, 87203, Note_on_c, 0, 75, 0
2, 87279, Note_on_c, 0, 73, 52
2, 87282, Note_on_c, 0, 79, 0
2, 87359, Note_on_c, 0, 73, 0
2, 87360, Note_on_c, 0, 82, 61
2, 87440, Note_on_c, 0, 82, 0
2, 87440, Note_on_c, 0, 75, 58
2, 87518, Note_on_c, 0, 80, 61
2, 87520, Note_on_c, 0, 75, 0
2, 87598, Note_on_c, 0, 80, 0
2, 87601, Note_on_c, 0, 72, 58
2, 87678, Note_on_c, 0, 79, 61
2, 87681, Note_on_c, 0, 72, 0
2, 87758, Note_on_c, 0, 79, 0
2, 87762, Note_on_c, 0, 75, 58
2, 87842, Note_on_c, 0, 75, 0
2, 87842, Note_on_c, 0, 80, 61
2, 87919, Note_on_c, 0, 72, 52
2, 87922, Note_on_c, 0, 80, 0
2, 87998, Note_on_c, 0, 82, 56
2, 87999, Note_on_c, 0, 72, 0
2, 88078, Note_on_c, 0, 82, 0
2, 88078, Note_on_c, 0, 75, 52
2, 88158, Note_on_c, 0, 75, 0
2, 88162, Note_on_c, 0, 80, 56
2, 88238, Note_on_c, 0, 72, 52
2, 88242, Note_on_c, 0, 80, 0
2, 88318, Note_on_c, 0, 72, 0
2, 88320, Note_on_c, 0, 92, 50
2, 88400, Note_on_c, 0, 92, 0
2, 88402, Note_on_c, 0, 83, 48
2, 88482, Note_on_c, 0, 83, 0
2, 88482, Note_on_c, 0, 90, 50
2, 88560, Note_on_c, 0, 81, 48
2, 88562, Note_on_c, 0, 90, 0
2, 88640, Note_on_c, 0, 81, 0
2, 88643, Note_on_c, 0, 88, 50
2, 88721, Note_on_c, 0, 83, 48
2, 88723, Note_on_c, 0, 88, 0
2, 88799, Note_on_c, 0, 87, 48
2, 88801, Note_on_c, 0, 83, 0
2, 88879, Note_on_c, 0, 87, 0
2, 88880, Note_on_c, 0, 81, 44
2, 88960, Note_on_c, 0, 81, 0
2, 88963, Note_on_c, 0, 85, 48
2, 89038, Note_on_c, 0, 81, 44
2, 89043, Note_on_c, 0, 85, 0
2, 89118, Note_on_c, 0, 81, 0
2, 89118, Note_on_c, 0, 83, 48
2, 89198, Note_on_c, 0, 83, 0
2, 89198, Note_on_c, 0, 78, 44
2, 89278, Note_on_c, 0, 78, 0
2, 89278, Note_on_c, 0, 88, 50
2, 89358, Note_on_c, 0, 88, 0
2, 89363, Note_on_c, 0, 80, 48
2, 89439, Note_on_c, 0, 87, 50
2, 89443, Note_on_c, 0, 80, 0
2, 89519, Note_on_c, 0, 87, 0
2, 89520, Note_on_c, 0, 76, 48
2, 89600, Note_on_c, 0, 76, 0
2, 89602, Note_on_c, 0, 85, 50
2, 89678, Note_on_c, 0, 80, 48
2, 89682, Note_on_c, 0, 85, 0
2, 89758, Note_on_c, 0, 80, 0
2, 89762, Note_on_c, 0, 83, 50
2, 89839, Note_on_c, 0, 76, 44
2, 89842, Note_on_c, 0, 83, 0
2, 89919, Note_on_c, 0, 76, 0
2, 89923, Note_on_c, 0, 81, 48
2, 89999, Note_on_c, 0, 76, 44
2, 90003, Note_on_c, 0, 81, 0
2, 90079, Note_on_c, 0, 76, 0
2, 90079, Note_on_c, 0, 80, 48
2, 90159, Note_on_c, 0, 80, 0
2, 90159, Note_on_c, 0, 71, 44
2, 90239, Note_on_c, 0, 71, 0
2, 90239, Note_on_c, 0, 80, 50
2, 90319, Note_on_c, 0, 80, 0
2, 90323, Note_on_c, 0, 75, 48
2, 90403, Note_on_c, 0, 75, 0
2, 90403, Note_on_c, 0, 78, 50
2, 90483, Note_on_c, 0, 78, 0
2, 90483, Note_on_c, 0, 69, 48
2, 90563, Note_on_c, 0, 69, 0
2, 90563, Note_on_c, 0, 77, 50
2, 90641, Note_on_c, 0, 75, 48
2, 90643, Note_on_c, 0, 77, 0
2, 90718, Note_on_c, 0, 78, 48
2, 90721, Note_on_c, 0, 75, 0
2, 90798, Note_on_c, 0, 78, 0
2, 90799, Note_on_c, 0, 69, 44
2, 90879, Note_on_c, 0, 69, 0
2, 90879, Note_on_c, 0, 81, 48
2, 90959, Note_on_c, 0, 81, 0
2, 90960, Note_on_c, 0, 71, 44
2, 91040, Note_on_c, 0, 71, 0
2, 91040, Note_on_c, 0, 75, 48
2, 91119, Note_on_c, 0, 69, 44
2, 91120, Note_on_c, 0, 75, 0
2, 91199, Note_on_c, 0, 69, 0
2, 91203, Note_on_c, 0, 78, 48
2, 91281, Note_on_c, 0, 71, 44
2, 91283, Note_on_c, 0, 78, 0
2, 91361, Note_on_c, 0, 71, 0
2, 91361, Note_on_c, 0, 77, 45
2, 91441, Note_on_c, 0, 77, 0
2, 91443, Note_on_c, 0, 68, 42
2, 91521, Note_on_c, 0, 76, 44
2, 91523, Note_on_c, 0, 68, 0
2, 91601, Note_on_c, 0, 76, 0
2, 91602, Note_on_c, 0, 71, 41
2, 91682, Note_on_c, 0, 71, 0
2, 91683, Note_on_c, 0, 75, 44
2, 91763, Note_on_c, 0, 75, 0
2, 91763, Note_on_c, 0, 68, 41
2, 91843, Note_on_c, 0, 68, 0
2, 91843, Note_on_c, 0, 74, 42
2, 91923, Note_on_c, 0, 74, 0
2, 91923, Note_on_c, 0, 71, 40
2, 91998, Note_on_c, 0, 73, 42
2, 92003, Note_on_c, 0, 71, 0
2, 92078, Note_on_c, 0, 73, 0
2, 92080, Note_on_c, 0, 68, 40
2, 92159, Note_on_c, 0, 73, 62
2, 92160, Note_on_c, 0, 68, 0
2, 92239, Note_on_c, 0, 73, 0
2, 92239, Note_on_c, 0, 68, 59
2, 92319, Note_on_c, 0, 68, 0
2, 92323, Note_on_c, 0, 71, 59
2, 92402, Note_on_c, 0, 62, 59
2, 92403, Note_on_c, 0, 71, 0
2, 92482, Note_on_c, 0, 62, 0
2, 92482, Note_on_c, 0, 73, 60
2, 92558, Note_on_c, 0, 68, 61
2, 92562, Note_on_c, 0, 73, 0
2, 92638, Note_on_c, 0, 68, 0
2, 92641, Note_on_c, 0, 71, 62
2, 92721, Note_on_c, 0, 71, 0
2, 92722, Note_on_c, 0, 74, 64
2, 92802, Note_on_c, 0, 74, 0
2, 92802, Note_on_c, 0, 85, 67
2, 92882, Note_on_c, 0, 85, 0
2, 92882, Note_on_c, 0, 80, 68
2, 92958, Note_on_c, 0, 83, 69
2, 92962, Note_on_c, 0, 80, 0
2, 93038, Note_on_c, 0, 83, 0
2, 93042, Note_on_c, 0, 86, 70
2, 93120, Note_on_c, 0, 97, 72
2, 93122, Note_on_c, 0, 86, 0
2, 93200, Note_on_c, 0, 97, 0
2, 93201, Note_on_c, 0, 92, 73
2, 93281, Note_on_c, 0, 92, 0
2, 93283, Note_on_c, 0, 95, 71
2, 93363, Note_on_c, 0, 95, 0
2, 93363, Note_on_c, 0, 86, 71
2, 93438, Note_on_c, 0, 85, 71
2, 93443, Note_on_c, 0, 86, 0
2, 93518, Note_on_c, 0, 85, 0
2, 93522, Note_on_c, 0, 80, 71
2, 93600, Note_on_c, 0, 83, 71
2, 93602, Note_on_c, 0, 80, 0
2, 93678, Note_on_c, 0, 74, 69
2, 93680, Note_on_c, 0, 83, 0
2, 93758, Note_on_c, 0, 74, 0
2, 93759, Note_on_c, 0, 73, 69
2, 93839, Note_on_c, 0, 73, 0
2, 93840, Note_on_c, 0, 68, 69
2, 93918, Note_on_c, 0, 71, 69
2, 93920, Note_on_c, 0, 68, 0
2, 93998, Note_on_c, 0, 71, 0
2, 94003, Note_on_c, 0, 62, 69
2, 94081, Note_on_c, 0, 74, 69
2, 94083, Note_on_c, 0, 62, 0
2, 94159, Note_on_c, 0, 67, 69
2, 94161, Note_on_c, 0, 74, 0
2, 94239, Note_on_c, 0, 67, 0
2, 94242, Note_on_c, 0, 72, 69
2, 94322, Note_on_c, 0, 72, 0
2, 94323, Note_on_c, 0, 60, 69
2, 94399, Note_on_c, 0, 77, 69
2, 94403, Note_on_c, 0, 60, 0
2, 94478, Note_on_c, 0, 72, 69
2, 94479, Note_on_c, 0, 77, 0
2, 94558, Note_on_c, 0, 72, 0
2, 94562, Note_on_c, 0, 75, 69
2, 94639, Note_on_c, 0, 67, 61
2, 94642, Note_on_c, 0, 75, 0
2, 94719, Note_on_c, 0, 67, 0
2, 94721, Note_on_c, 0, 80, 61
2, 94801, Note_on_c, 0, 80, 0
2, 94802, Note_on_c, 0, 75, 61
2, 94882, Note_on_c, 0, 75, 0
2, 94883, Note_on_c, 0, 79, 61
2, 94959, Note_on_c, 0, 72, 61
2, 94963, Note_on_c, 0, 79, 0
2, 95039, Note_on_c, 0, 72, 0
2, 95041, Note_on_c, 0, 84, 61
2, 95121, Note_on_c, 0, 84, 0
2, 95123, Note_on_c, 0, 79, 61
2, 95203, Note_on_c, 0, 79, 0
2, 95203, Note_on_c, 0, 83, 61
2, 95281, Note_on_c, 0, 75, 61
2, 95283, Note_on_c, 0, 83, 0
2, 95359, Note_on_c, 0, 82, 61
2, 95361, Note_on_c, 0, 75, 0
2, 95439, Note_on_c, 0, 82, 0
2, 95442, Note_on_c, 0, 79, 61
2, 95520, Note_on_c, 0, 81, 61
2, 95522, Note_on_c, 0, 79, 0
2, 95600, Note_on_c, 0, 81, 0
2, 95600, Note_on_c, 0, 76, 62
2, 95678, Note_on_c, 0, 80, 64
2, 95680, Note_on_c, 0, 76, 0
2, 95758, Note_on_c, 0, 80, 0
2, 95761, Note_on_c, 0, 76, 67
2, 95840, Note_on_c, 0, 79, 68
2, 95841, Note_on_c, 0, 76, 0
2, 95918, Note_on_c, 0, 72, 69
2, 95920, Note_on_c, 0, 79, 0
2, 95998, Note_on_c, 0, 72, 0
2, 95999, Note_on_c, 0, 77, 66
2, 96079, Note_on_c, 0, 77, 0
2, 96083, Note_on_c, 0, 72, 59
2, 96159, Note_on_c, 0, 75, 59
2, 96163, Note_on_c, 0, 72, 0
2, 96239, Note_on_c, 0, 75, 0
2, 96243, Note_on_c, 0, 66, 59
2, 96318, Note_on_c, 0, 77, 60
2, 96323, Note_on_c, 0, 66, 0
2, 96398, Note_on_c, 0, 77, 0
2, 96403, Note_on_c, 0, 72, 61
2, 96483, Note_on_c, 0, 72, 0
2, 96483, Note_on_c, 0, 75, 62
2, 96560, Note_on_c, 0, 78, 64
2, 96563, Note_on_c, 0, 75, 0
2, 96639, Note_on_c, 0, 89, 67
2, 96640, Note_on_c, 0, 78, 0
2, 96719, Note_on_c, 0, 89, 0
2, 96721, Note_on_c, 0, 84, 69
2, 96801, Note_on_c, 0, 84, 0
2, 96801, Note_on_c, 0, 87, 70
2, 96881, Note_on_c, 0, 87, 0
2, 96881, Note_on_c, 0, 90, 72
2, 96960, Note_on_c, 0, 101, 70
2, 96961, Note_on_c, 0, 90, 0
2, 97038, Note_on_c, 0, 96, 61
2, 97040, Note_on_c, 0, 101, 0
2, 97118, Note_on_c, 0, 96, 0
2, 97123, Note_on_c, 0, 99, 69
2, 97198, Note_on_c, 0, 90, 69
2, 97203, Note_on_c, 0, 99, 0
2, 97278, Note_on_c, 0, 90, 0
2, 97279, Note_on_c, 0, 89, 69
2, 97359, Note_on_c, 0, 89, 0
2, 97359, Note_on_c, 0, 84, 69
2, 97439, Note_on_c, 0, 84, 0
2, 97442, Note_on_c, 0, 87, 69
2, 97521, Note_on_c, 0, 78, 69
2, 97522, Note_on_c, 0, 87, 0
2, 97601, Note_on_c, 0, 78, 0
2, 97603, Note_on_c, 0, 77, 69
2, 97681, Note_on_c, 0, 72, 69
2, 97683, Note_on_c, 0, 77, 0
2, 97761, Note_on_c, 0, 72, 0
2, 97762, Note_on_c, 0, 75, 69
2, 97840, Note_on_c, 0, 66, 69
2, 97842, Note_on_c, 0, 75, 0
2, 97920, Note_on_c, 0, 66, 0
2, 97922, Note_on_c, 0, 78, 69
2, 98002, Note_on_c, 0, 78, 0
2, 98002, Note_on_c, 0, 71, 69
2, 98078, Note_on_c, 0, 76, 69
2, 98082, Note_on_c, 0, 71, 0
2, 98158, Note_on_c, 0, 76, 0
2, 98161, Note_on_c, 0, 64, 69
2, 98238, Note_on_c, 0, 81, 69
2, 98241, Note_on_c, 0, 64, 0
2, 98318, Note_on_c, 0, 81, 0
2, 98318, Note_on_c, 0, 76, 69
2, 98398, Note_on_c, 0, 76, 0
2, 98402, Note_on_c, 0, 79, 69
2, 98480, Note_on_c, 0, 71, 61
2, 98482, Note_on_c, 0, 79, 0
2, 98560, Note_on_c, 0, 71, 0
2, 98563, Note_on_c, 0, 84, 61
2, 98640, Note_on_c, 0, 79, 61
2, 98643, Note_on_c, 0, 84, 0
2, 98720, Note_on_c, 0, 79, 0
2, 98722, Note_on_c, 0, 83, 61
2, 98798, Note_on_c, 0, 76, 61
2, 98802, Note_on_c, 0, 83, 0
2, 98878, Note_on_c, 0, 76, 0
2, 98881, Note_on_c, 0, 88, 66
2, 98958, Note_on_c, 0, 83, 66
2, 98961, Note_on_c, 0, 88, 0
2, 99038, Note_on_c, 0, 83, 0
2, 99042, Note_on_c, 0, 87, 67
2, 99122, Note_on_c, 0, 87, 0
2, 99123, Note_on_c, 0, 79, 68
2, 99201, Note_on_c, 0, 86, 69
2, 99203, Note_on_c, 0, 79, 0
2, 99281, Note_on_c, 0, 86, 0
2, 99282, Note_on_c, 0, 83, 69
2, 99359, Note_on_c, 0, 85, 70
2, 99362, Note_on_c, 0, 83, 0
2, 99439, Note_on_c, 0, 85, 0
2, 99442, Note_on_c, 0, 79, 71
2, 99521, Note_on_c, 0, 84, 72
2, 99522, Note_on_c, 0, 79, 0
2, 99601, Note_on_c, 0, 84, 0
2, 99601, Note_on_c, 0, 79, 73
2, 99679, Note_on_c, 0, 83, 73
2, 99681, Note_on_c, 0, 79, 0
2, 99759, Note_on_c, 0, 83, 0
2, 99763, Note_on_c, 0, 76, 75
2, 99840, Note_on_c, 0, 82, 68
2, 99843, Note_on_c, 0, 76, 0
2, 99920, Note_on_c, 0, 82, 0
2, 99922, Note_on_c, 0, 76, 64
2, 100000, Note_on_c, 0, 81, 69
2, 100002, Note_on_c, 0, 76, 0
2, 100078, Note_on_c, 0, 70, 64
2, 100080, Note_on_c, 0, 81, 0
2, 100158, Note_on_c, 0, 70, 0
2, 100160, Note_on_c, 0, 80, 69
2, 100240, Note_on_c, 0, 80, 0
2, 100241, Note_on_c, 0, 76, 64
2, 100320, Note_on_c, 0, 79, 69
2, 100321, Note_on_c, 0, 76, 0
2, 100400, Note_on_c, 0, 79, 0
2, 100400, Note_on_c, 0, 70, 64
2, 100478, Note_on_c, 0, 81, 69
2, 100480, Note_on_c, 0, 70, 0
2, 100558, Note_on_c, 0, 81, 0
2, 100559, Note_on_c, 0, 76, 64
2, 100639, Note_on_c, 0, 76, 0
2, 100641, Note_on_c, 0, 79, 69
2, 100721, Note_on_c, 0, 79, 0
2, 100723, Note_on_c, 0, 70, 64
2, 100800, Note_on_c, 0, 79, 69
2, 100803, Note_on_c, 0, 70, 0
2, 100880, Note_on_c, 0, 79, 0
2, 100883, Note_on_c, 0, 72, 64
2, 100960, Note_on_c, 0, 78, 69
2, 100963, Note_on_c, 0, 72, 0
2, 101040, Note_on_c, 0, 78, 0
2, 101041, Note_on_c, 0, 69, 64
2, 101118, Note_on_c, 0, 77, 69
2, 101121, Note_on_c, 0, 69, 0
2, 101198, Note_on_c, 0, 77, 0
2, 101203, Note_on_c, 0, 72, 64
2, 101283, Note_on_c, 0, 72, 0
2, 101283, Note_on_c, 0, 78, 69
2, 101360, Note_on_c, 0, 69, 64
2, 101363, Note_on_c, 0, 78, 0
2, 101440, Note_on_c, 0, 69, 0
2, 101442, Note_on_c, 0, 79, 69
2, 101519, Note_on_c, 0, 71, 64
2, 101522, Note_on_c, 0, 79, 0
2, 101599, Note_on_c, 0, 71, 0
2, 101601, Note_on_c, 0, 78, 69
2, 101680, Note_on_c, 0, 69, 64
2, 101681, Note_on_c, 0, 78, 0
2, 101760, Note_on_c, 0, 69, 0
2, 101761, Note_on_c, 0, 78, 69
2, 101838, Note_on_c, 0, 71, 64
2, 101841, Note_on_c, 0, 78, 0
2, 101918, Note_on_c, 0, 71, 0
2, 101920, Note_on_c, 0, 77, 69
2, 101999, Note_on_c, 0, 67, 64
2, 102000, Note_on_c, 0, 77, 0
2, 102079, Note_on_c, 0, 67, 0
2, 102083, Note_on_c, 0, 76, 69
2, 102163, Note_on_c, 0, 76, 0
2, 102163, Note_on_c, 0, 71, 64
2, 102243, Note_on_c, 0, 71, 0
2, 102243, Note_on_c, 0, 76, 69
2, 102321, Note_on_c, 0, 67, 64
2, 102323, Note_on_c, 0, 76, 0
2, 102401, Note_on_c, 0, 67, 0
2, 102401, Note_on_c, 0, 77, 69
2, 102478, Note_on_c, 0, 69, 64
2, 102481, Note_on_c, 0, 77, 0
2, 102558, Note_on_c, 0, 69, 0
2, 102560, Note_on_c, 0, 76, 69
2, 102639, Note_on_c, 0, 67, 64
2, 102640, Note_on_c, 0, 76, 0
2, 102719, Note_on_c, 0, 67, 0
2, 102720, Note_on_c, 0, 76, 69
2, 102798, Note_on_c, 0, 69, 64
2, 102800, Note_on_c, 0, 76, 0
2, 102878, Note_on_c, 0, 69, 0
2, 102883, Note_on_c, 0, 73, 69
2, 102959, Note_on_c, 0, 65, 64
2, 102963, Note_on_c, 0, 73, 0
2, 103039, Note_on_c, 0, 65, 0
2, 103042, Note_on_c, 0, 74, 69
2, 103122, Note_on_c, 0, 74, 0
2, 103123, Note_on_c, 0, 69, 64
2, 103201, Note_on_c, 0, 74, 69
2, 103203, Note_on_c, 0, 69, 0
2, 103279, Note_on_c, 0, 64, 64
2, 103281, Note_on_c, 0, 74, 0
2, 103359, Note_on_c, 0, 64, 0
2, 103359, Note_on_c, 0, 71, 69
2, 103439, Note_on_c, 0, 71, 0
2, 103441, Note_on_c, 0, 69, 64
2, 103521, Note_on_c, 0, 69, 0
2, 103523, Note_on_c, 0, 72, 69
2, 103599, Note_on_c, 0, 64, 64
2, 103603, Note_on_c, 0, 72, 0
2, 103679, Note_on_c, 0, 64, 0
2, 103679, Note_on_c, 0, 72, 70
2, 103759, Note_on_c, 0, 72, 0
2, 103762, Note_on_c, 0, 69, 70
2, 103842, Note_on_c, 0, 69, 0
2, 103843, Note_on_c, 0, 71, 70
2, 103919, Note_on_c, 0, 65, 70
2, 103923, Note_on_c, 0, 71, 0
2, 103999, Note_on_c, 0, 65, 0
2, 103999, Note_on_c, 0, 72, 70
2, 104079, Note_on_c, 0, 72, 0
2, 104080, Note_on_c, 0, 69, 70
2, 104160, Note_on_c, 0, 69, 0
2, 104163, Note_on_c, 0, 71, 70
2, 104241, Note_on_c, 0, 77, 71
2, 104243, Note_on_c, 0, 71, 0
2, 104318, Note_on_c, 0, 84, 72
2, 104321, Note_on_c, 0, 77, 0
2, 104398, Note_on_c, 0, 84, 0
2, 104403, Note_on_c, 0, 81, 73
2, 104478, Note_on_c, 0, 83, 75
2, 104483, Note_on_c, 0, 81, 0
2, 104558, Note_on_c, 0, 83, 0
2, 104561, Note_on_c, 0, 89, 77
2, 104639, Note_on_c, 0, 96, 77
2, 104641, Note_on_c, 0, 89, 0
2, 104719, Note_on_c, 0, 96, 0
2, 104719, Note_on_c, 0, 93, 77
2, 104798, Note_on_c, 0, 95, 75
2, 104799, Note_on_c, 0, 93, 0
2, 104878, Note_on_c, 0, 95, 0
2, 104879, Note_on_c, 0, 89, 73
2, 104959, Note_on_c, 0, 89, 0
2, 104960, Note_on_c, 0, 84, 73
2, 105040, Note_on_c, 0, 84, 0
2, 105043, Note_on_c, 0, 81, 72
2, 105118, Note_on_c, 0, 83, 70
2, 105123, Note_on_c, 0, 81, 0
2, 105198, Note_on_c, 0, 83, 0
2, 105198, Note_on_c, 0, 77, 70
2, 105278, Note_on_c, 0, 77, 0
2, 105280, Note_on_c, 0, 72, 70
2, 105359, Note_on_c, 0, 69, 70
2, 105360, Note_on_c, 0, 72, 0
2, 105439, Note_on_c, 0, 69, 0
2, 105441, Note_on_c, 0, 71, 70
2, 105520, Note_on_c, 0, 65, 70
2, 105521, Note_on_c, 0, 71, 0
2, 105600, Note_on_c, 0, 65, 0
2, 105600, Note_on_c, 0, 71, 70
2, 105680, Note_on_c, 0, 71, 0
2, 105683, Note_on_c, 0, 66, 70
2, 105761, Note_on_c, 0, 69, 70
2, 105763, Note_on_c, 0, 66, 0
2, 105839, Note_on_c, 0, 60, 70
2, 105841, Note_on_c, 0, 69, 0
2, 105919, Note_on_c, 0, 60, 0
2, 105920, Note_on_c, 0, 71, 70
2, 106000, Note_on_c, 0, 71, 0
2, 106000, Note_on_c, 0, 66, 70
2, 106080, Note_on_c, 0, 66, 0
2, 106083, Note_on_c, 0, 69, 70
2, 106161, Note_on_c, 0, 72, 71
2, 106163, Note_on_c, 0, 69, 0
2, 106241, Note_on_c, 0, 72, 0
2, 106243, Note_on_c, 0, 83, 72
2, 106322, Note_on_c, 0, 78, 73
2, 106323, Note_on_c, 0, 83, 0
2, 106402, Note_on_c, 0, 78, 0
2, 106402, Note_on_c, 0, 81, 75
2, 106481, Note_on_c, 0, 84, 77
2, 106482, Note_on_c, 0, 81, 0
2, 106561, Note_on_c, 0, 84, 0
2, 106563, Note_on_c, 0, 95, 79
2, 106639, Note_on_c, 0, 90, 78
2, 106643, Note_on_c, 0, 95, 0
2, 106719, Note_on_c, 0, 90, 0
2, 106723, Note_on_c, 0, 93, 77
2, 106799, Note_on_c, 0, 84, 75
2, 106803, Note_on_c, 0, 93, 0
2, 106879, Note_on_c, 0, 84, 0
2, 106883, Note_on_c, 0, 83, 72
2, 106962, Note_on_c, 0, 78, 71
2, 106963, Note_on_c, 0, 83, 0
2, 107038, Note_on_c, 0, 81, 70
2, 107042, Note_on_c, 0, 78, 0
2, 107118, Note_on_c, 0, 81, 0
2, 107122, Note_on_c, 0, 72, 70
2, 107200, Note_on_c, 0, 71, 70
2, 107202, Note_on_c, 0, 72, 0
2, 107279, Note_on_c, 0, 66, 70
2, 107280, Note_on_c, 0, 71, 0
2, 107358, Note_on_c, 0, 69, 70
2, 107359, Note_on_c, 0, 66, 0
2, 107438, Note_on_c, 0, 69, 0
2, 107438, Note_on_c, 0, 60, 70
2, 107518, Note_on_c, 0, 60, 0
2, 107520, Note_on_c, 0, 69, 59
2, 107600, Note_on_c, 0, 69, 0
2, 107603, Note_on_c, 0, 64, 59
2, 107678, Note_on_c, 0, 68, 59
2, 107683, Note_on_c, 0, 64, 0
2, 107758, Note_on_c, 0, 68, 0
2, 107758, Note_on_c, 0, 71, 60
2, 107838, Note_on_c, 0, 71, 0
2, 107839, Note_on_c, 0, 81, 60
2, 107919, Note_on_c, 0, 81, 0
2, 107922, Note_on_c, 0, 76, 61
2, 108002, Note_on_c, 0, 76, 0
2, 108002, Note_on_c, 0, 80, 62
2, 108082, Note_on_c, 0, 80, 0
2, 108082, Note_on_c, 0, 83, 62
2, 108161, Note_on_c, 0, 93, 63
2, 108162, Note_on_c, 0, 83, 0
2, 108239, Note_on_c, 0, 88, 63
2, 108241, Note_on_c, 0, 93, 0
2, 108319, Note_on_c, 0, 88, 0
2, 108322, Note_on_c, 0, 92, 64
2, 108402, Note_on_c, 0, 92, 0
2, 108403, Note_on_c, 0, 83, 63
2, 108483, Note_on_c, 0, 83, 0
2, 108483, Note_on_c, 0, 92, 63
2, 108559, Note_on_c, 0, 86, 63
2, 108563, Note_on_c, 0, 92, 0
2, 108639, Note_on_c, 0, 86, 0
2, 108640, Note_on_c, 0, 90, 63
2, 108718, Note_on_c, 0, 83, 63
2, 108720, Note_on_c, 0, 90, 0
2, 108798, Note_on_c, 0, 83, 0
2, 108798, Note_on_c, 0, 80, 62
2, 108878, Note_on_c, 0, 80, 0
2, 108878, Note_on_c, 0, 74, 62
2, 108958, Note_on_c, 0, 74, 0
2, 108960, Note_on_c, 0, 78, 62
2, 109040, Note_on_c, 0, 78, 0
2, 109042, Note_on_c, 0, 71, 61
2, 109120, Note_on_c, 0, 68, 61
2, 109122, Note_on_c, 0, 71, 0
2, 109199, Note_on_c, 0, 62, 61
2, 109200, Note_on_c, 0, 68, 0
2, 109279, Note_on_c, 0, 62, 0
2, 109279, Note_on_c, 0, 66, 61
2, 109359, Note_on_c, 0, 66, 0
2, 109359, Note_on_c, 0, 59, 61
2, 109439, Note_on_c, 0, 59, 0
2, 109442, Note_on_c, 0, 66, 60
2, 109518, Note_on_c, 0, 61, 59
2, 109522, Note_on_c, 0, 66, 0
2, 109598, Note_on_c, 0, 61, 0
2, 109598, Note_on_c, 0, 64, 59
2, 109678, Note_on_c, 0, 64, 0
2, 109681, Note_on_c, 0, 68, 60
2, 109760, Note_on_c, 0, 78, 60
2, 109761, Note_on_c, 0, 68, 0
2, 109840, Note_on_c, 0, 78, 0
2, 109842, Note_on_c, 0, 73, 61
2, 109918, Note_on_c, 0, 76, 62
2, 109922, Note_on_c, 0, 73, 0
2, 109998, Note_on_c, 0, 76, 0
2, 110003, Note_on_c, 0, 80, 66
2, 110078, Note_on_c, 0, 90, 66
2, 110083, Note_on_c, 0, 80, 0
2, 110158, Note_on_c, 0, 90, 0
2, 110158, Note_on_c, 0, 85, 66
2, 110238, Note_on_c, 0, 85, 0
2, 110239, Note_on_c, 0, 88, 66
2, 110319, Note_on_c, 0, 88, 0
2, 110322, Note_on_c, 0, 80, 66
2, 110399, Note_on_c, 0, 88, 66
2, 110402, Note_on_c, 0, 80, 0
2, 110479, Note_on_c, 0, 88, 0
2, 110481, Note_on_c, 0, 83, 64
2, 110560, Note_on_c, 0, 86, 64
2, 110561, Note_on_c, 0, 83, 0
2, 110640, Note_on_c, 0, 86, 0
2, 110641, Note_on_c, 0, 78, 63
2, 110721, Note_on_c, 0, 78, 0
2, 110721, Note_on_c, 0, 76, 63
2, 110801, Note_on_c, 0, 76, 0
2, 110803, Note_on_c, 0, 71, 62
2, 110883, Note_on_c, 0, 71, 0
2, 110883, Note_on_c, 0, 74, 62
2, 110963, Note_on_c, 0, 74, 0
2, 110963, Note_on_c, 0, 66, 67
2, 111038, Note_on_c, 0, 64, 64
2, 111043, Note_on_c, 0, 66, 0
2, 111118, Note_on_c, 0, 64, 0
2, 111118, Note_on_c, 0, 59, 62
2, 111198, Note_on_c, 0, 59, 0
2, 111201, Note_on_c, 0, 62, 62
2, 111281, Note_on_c, 0, 62, 0
2, 111282, Note_on_c, 0, 54, 61
2, 111362, Note_on_c, 0, 54, 0
2, 111363, Note_on_c, 0, 61, 71
2, 111438, Note_on_c, 0, 56, 66
2, 111443, Note_on_c, 0, 61, 0
2, 111518, Note_on_c, 0, 56, 0
2, 111523, Note_on_c, 0, 59, 71
2, 111602, Note_on_c, 0, 53, 67
2, 111603, Note_on_c, 0, 59, 0
2, 111680, Note_on_c, 0, 64, 71
2, 111682, Note_on_c, 0, 53, 0
2, 111760, Note_on_c, 0, 64, 0
2, 111761, Note_on_c, 0, 59, 68
2, 111841, Note_on_c, 0, 59, 0
2, 111842, Note_on_c, 0, 62, 71
2, 111920, Note_on_c, 0, 56, 66
2, 111922, Note_on_c, 0, 62, 0
2, 111999, Note_on_c, 0, 67, 71
2, 112000, Note_on_c, 0, 56, 0
2, 112079, Note_on_c, 0, 67, 0
2, 112083, Note_on_c, 0, 62, 68
2, 112163, Note_on_c, 0, 62, 0
2, 112163, Note_on_c, 0, 65, 71
2, 112242, Note_on_c, 0, 59, 68
2, 112243, Note_on_c, 0, 65, 0
2, 112321, Note_on_c, 0, 69, 71
2, 112322, Note_on_c, 0, 59, 0
2, 112399, Note_on_c, 0, 65, 71
2, 112401, Note_on_c, 0, 69, 0
2, 112478, Note_on_c, 0, 68, 71
2, 112479, Note_on_c, 0, 65, 0
2, 112558, Note_on_c, 0, 68, 0
2, 112559, Note_on_c, 0, 62, 71
2, 112639, Note_on_c, 0, 62, 0
2, 112641, Note_on_c, 0, 72, 71
2, 112720, Note_on_c, 0, 68, 71
2, 112721, Note_on_c, 0, 72, 0
2, 112800, Note_on_c, 0, 68, 0
2, 112800, Note_on_c, 0, 71, 71
2, 112879, Note_on_c, 0, 65, 71
2, 112880, Note_on_c, 0, 71, 0
2, 112959, Note_on_c, 0, 65, 0
2, 112960, Note_on_c, 0, 76, 71
2, 113040, Note_on_c, 0, 76, 0
2, 113042, Note_on_c, 0, 71, 71
2, 113122, Note_on_c, 0, 71, 0
2, 113123, Note_on_c, 0, 74, 71
2, 113202, Note_on_c, 0, 68, 71
2, 113203, Note_on_c, 0, 74, 0
2, 113282, Note_on_c, 0, 68, 0
2, 113283, Note_on_c, 0, 79, 71
2, 113359, Note_on_c, 0, 74, 71
2, 113363, Note_on_c, 0, 79, 0
2, 113439, Note_on_c, 0, 74, 0
2, 113441, Note_on_c, 0, 77, 73
2, 113519, Note_on_c, 0, 71, 75
2, 113521, Note_on_c, 0, 77, 0
2, 113599, Note_on_c, 0, 71, 0
2, 113603, Note_on_c, 0, 81, 77
2, 113680, Note_on_c, 0, 77, 77
2, 113683, Note_on_c, 0, 81, 0
2, 113759, Note_on_c, 0, 80, 77
2, 113760, Note_on_c, 0, 77, 0
2, 113839, Note_on_c, 0, 80, 0
2, 113841, Note_on_c, 0, 74, 78
2, 113921, Note_on_c, 0, 74, 0
2, 113921, Note_on_c, 0, 84, 78
2, 114000, Note_on_c, 0, 80, 78
2, 114001, Note_on_c, 0, 84, 0
2, 114080, Note_on_c, 0, 80, 0
2, 114080, Note_on_c, 0, 83, 79
2, 114159, Note_on_c, 0, 77, 79
2, 114160, Note_on_c, 0, 83, 0
2, 114239, Note_on_c, 0, 77, 0
2, 114239, Note_on_c, 0, 88, 77
2, 114319, Note_on_c, 0, 88, 0
2, 114319, Note_on_c, 0, 83, 77
2, 114399, Note_on_c, 0, 83, 0
2, 114403, Note_on_c, 0, 86, 77
2, 114482, Note_on_c, 0, 80, 77
2, 114483, Note_on_c, 0, 86, 0
2, 114562, Note_on_c, 0, 80, 0
2, 114562, Note_on_c, 0, 91, 77
2, 114641, Note_on_c, 0, 86, 77
2, 114642, Note_on_c, 0, 91, 0
2, 114721, Note_on_c, 0, 86, 0
2, 114722, Note_on_c, 0, 89, 75
2, 114799, Note_on_c, 0, 83, 77
2, 114802, Note_on_c, 0, 89, 0
2, 114879, Note_on_c, 0, 83, 0
2, 114882, Note_on_c, 0, 93, 79
2, 114958, Note_on_c, 0, 89, 80
2, 114962, Note_on_c, 0, 93, 0
2, 115038, Note_on_c, 0, 89, 0
2, 115042, Note_on_c, 0, 92, 82
2, 115122, Note_on_c, 0, 92, 0
2, 115123, Note_on_c, 0, 86, 84
2, 115200, Note_on_c, 0, 101, 97
2, 115203, Note_on_c, 0, 86, 0
2, 115278, Note_on_c, 0, 95, 88
2, 115296, Note_on_c, 0, 101, 0
2, 115360, Note_on_c, 0, 100, 94
2, 115374, Note_on_c, 0, 95, 0
2, 115438, Note_on_c, 0, 92, 85
2, 115456, Note_on_c, 0, 100, 0
2, 115523, Note_on_c, 0, 99, 94
2, 115534, Note_on_c, 0, 92, 0
2, 115601, Note_on_c, 0, 95, 85
2, 115619, Note_on_c, 0, 99, 0
2, 115681, Note_on_c, 0, 98, 90
2, 115697, Note_on_c, 0, 95, 0
2, 115761, Note_on_c, 0, 92, 85
2, 115777, Note_on_c, 0, 98, 0
2, 115841, Note_on_c, 0, 97, 89
2, 115857, Note_on_c, 0, 92, 0
2, 115922, Note_on_c, 0, 92, 84
2, 115937, Note_on_c, 0, 97, 0
2, 116001, Note_on_c, 0, 96, 89
2, 116018, Note_on_c, 0, 92, 0
2, 116082, Note_on_c, 0, 89, 84
2, 116097, Note_on_c, 0, 96, 0
2, 116162, Note_on_c, 0, 95, 89
2, 116178, Note_on_c, 0, 89, 0
2, 116243, Note_on_c, 0, 89, 84
2, 116258, Note_on_c, 0, 95, 0
2, 116318, Note_on_c, 0, 94, 89
2, 116339, Note_on_c, 0, 89, 0
2, 116400, Note_on_c, 0, 86, 84
2, 116414, Note_on_c, 0, 94, 0
2, 116482, Note_on_c, 0, 93, 89
2, 116496, Note_on_c, 0, 86, 0
2, 116558, Note_on_c, 0, 89, 82
2, 116578, Note_on_c, 0, 93, 0
2, 116640, Note_on_c, 0, 92, 88
2, 116654, Note_on_c, 0, 89, 0
2, 116718, Note_on_c, 0, 83, 82
2, 116736, Note_on_c, 0, 92, 0
2, 116801, Note_on_c, 0, 91, 88
2, 116814, Note_on_c, 0, 83, 0
2, 116879, Note_on_c, 0, 86, 82
2, 116897, Note_on_c, 0, 91, 0
2, 116958, Note_on_c, 0, 90, 88
2, 116975, Note_on_c, 0, 86, 0
2, 117039, Note_on_c, 0, 80, 82
2, 117054, Note_on_c, 0, 90, 0
2, 117123, Note_on_c, 0, 89, 88
2, 117135, Note_on_c, 0, 80, 0
2, 117201, Note_on_c, 0, 83, 82
2, 117219, Note_on_c, 0, 89, 0
2, 117281, Note_on_c, 0, 88, 88
2, 117297, Note_on_c, 0, 83, 0
2, 117358, Note_on_c, 0, 80, 82
2, 117377, Note_on_c, 0, 88, 0
2, 117440, Note_on_c, 0, 87, 88
2, 117454, Note_on_c, 0, 80, 0
2, 117523, Note_on_c, 0, 83, 82
2, 117536, Note_on_c, 0, 87, 0
2, 117603, Note_on_c, 0, 86, 88
2, 117619, Note_on_c, 0, 83, 0
2, 117680, Note_on_c, 0, 79, 82
2, 117699, Note_on_c, 0, 86, 0
2, 117759, Note_on_c, 0, 85, 88
2, 117776, Note_on_c, 0, 79, 0
2, 117839, Note_on_c, 0, 79, 82
2, 117855, Note_on_c, 0, 85, 0
2, 117918, Note_on_c, 0, 84, 88
2, 117935, Note_on_c, 0, 79, 0
2, 118003, Note_on_c, 0, 77, 81
2, 118014, Note_on_c, 0, 84, 0
2, 118080, Note_on_c, 0, 83, 103
2, 118200, Note_on_c, 0, 83, 0
2, 118243, Note_on_c, 0, 77, 0
2, 119042, Note_on_c, 0, 95, 103
2, 119123, Note_on_c, 0, 89, 85
2, 119138, Note_on_c, 0, 95, 0
2, 119199, Note_on_c, 0, 94, 99
2, 119219, Note_on_c, 0, 89, 0
2, 119283, Note_on_c, 0, 86, 85
2, 119295, Note_on_c, 0, 94, 0
2, 119360, Note_on_c, 0, 93, 90
2, 119379, Note_on_c, 0, 86, 0
2, 119443, Note_on_c, 0, 89, 85
2, 119456, Note_on_c, 0, 93, 0
2, 119521, Note_on_c, 0, 92, 90
2, 119539, Note_on_c, 0, 89, 0
2, 119599, Note_on_c, 0, 86, 85
2, 119617, Note_on_c, 0, 92, 0
2, 119679, Note_on_c, 0, 91, 89
2, 119695, Note_on_c, 0, 86, 0
2, 119760, Note_on_c, 0, 86, 85
2, 119775, Note_on_c, 0, 91, 0
2, 119841, Note_on_c, 0, 90, 89
2, 119856, Note_on_c, 0, 86, 0
2, 119919, Note_on_c, 0, 83, 84
2, 119937, Note_on_c, 0, 90, 0
2, 119999, Note_on_c, 0, 89, 89
2, 120015, Note_on_c, 0, 83, 0
2, 120078, Note_on_c, 0, 83, 84
2, 120095, Note_on_c, 0, 89, 0
2, 120158, Note_on_c, 0, 88, 89
2, 120174, Note_on_c, 0, 83, 0
2, 120242, Note_on_c, 0, 80, 84
2, 120254, Note_on_c, 0, 88, 0
2, 120323, Note_on_c, 0, 87, 89
2, 120338, Note_on_c, 0, 80, 0
2, 120402, Note_on_c, 0, 83, 82
2, 120419, Note_on_c, 0, 87, 0
2, 120482, Note_on_c, 0, 86, 88
2, 120498, Note_on_c, 0, 83, 0
2, 120558, Note_on_c, 0, 77, 82
2, 120578, Note_on_c, 0, 86, 0
2, 120640, Note_on_c, 0, 85, 88
2, 120654, Note_on_c, 0, 77, 0
2, 120721, Note_on_c, 0, 80, 82
2, 120736, Note_on_c, 0, 85, 0
2, 120803, Note_on_c, 0, 84, 88
2, 120817, Note_on_c, 0, 80, 0
2, 120879, Note_on_c, 0, 74, 84
2, 120899, Note_on_c, 0, 84, 0
2, 120961, Note_on_c, 0, 83, 88
2, 120975, Note_on_c, 0, 74, 0
2, 121042, Note_on_c, 0, 77, 84
2, 121057, Note_on_c, 0, 83, 0
2, 121123, Note_on_c, 0, 82, 88
2, 121138, Note_on_c, 0, 77, 0
2, 121203, Note_on_c, 0, 74, 82
2, 121219, Note_on_c, 0, 82, 0
2, 121282, Note_on_c, 0, 81, 88
2, 121299, Note_on_c, 0, 74, 0
2, 121361, Note_on_c, 0, 77, 84
2, 121378, Note_on_c, 0, 81, 0
2, 121439, Note_on_c, 0, 80, 86
2, 121457, Note_on_c, 0, 77, 0
2, 121522, Note_on_c, 0, 74, 82
2, 121535, Note_on_c, 0, 80, 0
2, 121598, Note_on_c, 0, 79, 85
2, 121618, Note_on_c, 0, 74, 0
2, 121681, Note_on_c, 0, 74, 81
2, 121694, Note_on_c, 0, 79, 0
2, 121762, Note_on_c, 0, 78, 85
2, 121777, Note_on_c, 0, 74, 0
2, 121840, Note_on_c, 0, 71, 81
2, 121858, Note_on_c, 0, 78, 0
2, 121918, Note_on_c, 0, 71, 0
2, 121918, Note_on_c, 0, 77, 100
2, 121920, Note_on_c, 0, 74, 90
2, 121923, Note_on_c, 0, 68, 90
2, 122040, Note_on_c, 0, 74, 0
2, 122043, Note_on_c, 0, 68, 0
2, 122062, Note_on_c, 0, 77, 0
2, 122880, Note_on_c, 0, 77, 60
2, 122960, Note_on_c, 0, 77, 0
2, 122960, Note_on_c, 0, 74, 55
2, 123040, Note_on_c, 0, 74, 0
2, 123040, Note_on_c, 0, 76, 60
2, 123120, Note_on_c, 0, 76, 0
2, 123120, Note_on_c, 0, 68, 60
2, 123360, Note_on_c, 0, 68, 0
2, 123840, Note_on_c, 0, 77, 60
2, 123920, Note_on_c, 0, 77, 0
2, 123920, Note_on_c, 0, 74, 53
2, 124000, Note_on_c, 0, 74, 0
2, 124000, Note_on_c, 0, 76, 60
2, 124080, Note_on_c, 0, 76, 0
2, 124080, Note_on_c, 0, 68, 60
2, 124320, Note_on_c, 0, 68, 0
2, 124800, Note_on_c, 0, 77, 51
2, 124880, Note_on_c, 0, 77, 0
2, 124880, Note_on_c, 0, 74, 51
2, 124960, Note_on_c, 0, 74, 0
2, 124960, Note_on_c, 0, 76, 51
2, 125040, Note_on_c, 0, 76, 0
2, 125041, Note_on_c, 0, 68, 52
2, 125121, Note_on_c, 0, 68, 0
2, 125123, Note_on_c, 0, 77, 52
2, 125200, Note_on_c, 0, 74, 53
2, 125203, Note_on_c, 0, 77, 0
2, 125280, Note_on_c, 0, 74, 0
2, 125280, Note_on_c, 0, 76, 53
2, 125360, Note_on_c, 0, 76, 0
2, 125363, Note_on_c, 0, 68, 53
2, 125441, Note_on_c, 0, 77, 55
2, 125443, Note_on_c, 0, 68, 0
2, 125520, Note_on_c, 0, 74, 55
2, 125521, Note_on_c, 0, 77, 0
2, 125600, Note_on_c, 0, 74, 0
2, 125601, Note_on_c, 0, 76, 56
2, 125681, Note_on_c, 0, 76, 0
2, 125682, Note_on_c, 0, 68, 56
2, 125758, Note_on_c, 0, 77, 57
2, 125762, Note_on_c, 0, 68, 0
2, 125838, Note_on_c, 0, 77, 0
2, 125838, Note_on_c, 0, 74, 57
2, 125918, Note_on_c, 0, 74, 0
2, 125919, Note_on_c, 0, 76, 57
2, 125998, Note_on_c, 0, 68, 58
2, 125999, Note_on_c, 0, 76, 0
2, 126078, Note_on_c, 0, 68, 0
2, 126079, Note_on_c, 0, 77, 58
2, 126159, Note_on_c, 0, 77, 0
2, 126160, Note_on_c, 0, 74, 59
2, 126240, Note_on_c, 0, 74, 0
2, 126241, Note_on_c, 0, 76, 59
2, 126319, Note_on_c, 0, 68, 60
2, 126321, Note_on_c, 0, 76, 0
2, 126398, Note_on_c, 0, 77, 60
2, 126399, Note_on_c, 0, 68, 0
2, 126478, Note_on_c, 0, 77, 0
2, 126481, Note_on_c, 0, 74, 60
2, 126558, Note_on_c, 0, 76, 61
2, 126561, Note_on_c, 0, 74, 0
2, 126638, Note_on_c, 0, 76, 0
2, 126639, Note_on_c, 0, 68, 61
2, 126719, Note_on_c, 0, 68, 0
2, 126722, Note_on_c, 0, 77, 62
2, 126800, Note_on_c, 0, 74, 62
2, 126802, Note_on_c, 0, 77, 0
2, 126880, Note_on_c, 0, 74, 0
2, 126883, Note_on_c, 0, 76, 62
2, 126959, Note_on_c, 0, 68, 63
2, 126963, Note_on_c, 0, 76, 0
2, 127038, Note_on_c, 0, 77, 63
2, 127039, Note_on_c, 0, 68, 0
2, 127118, Note_on_c, 0, 77, 0
2, 127121, Note_on_c, 0, 74, 64
2, 127199, Note_on_c, 0, 76, 64
2, 127201, Note_on_c, 0, 74, 0
2, 127278, Note_on_c, 0, 68, 66
2, 127279, Note_on_c, 0, 76, 0
2, 127358, Note_on_c, 0, 68, 0
2, 127361, Note_on_c, 0, 77, 66
2, 127441, Note_on_c, 0, 77, 0
2, 127442, Note_on_c, 0, 74, 66
2, 127518, Note_on_c, 0, 76, 67
2, 127522, Note_on_c, 0, 74, 0
2, 127598, Note_on_c, 0, 76, 0
2, 127603, Note_on_c, 0, 68, 67
2, 127680, Note_on_c, 0, 77, 68
2, 127683, Note_on_c, 0, 68, 0
2, 127760, Note_on_c, 0, 77, 0
2, 127763, Note_on_c, 0, 74, 68
2, 127841, Note_on_c, 0, 76, 69
2, 127843, Note_on_c, 0, 74, 0
2, 127919, Note_on_c, 0, 68, 69
2, 127921, Note_on_c, 0, 76, 0
2, 127999, Note_on_c, 0, 68, 0
2, 127999, Note_on_c, 0, 77, 69
2, 128079, Note_on_c, 0, 77, 0
2, 128080, Note_on_c, 0, 74, 70
2, 128159, Note_on_c, 0, 76, 70
2, 128160, Note_on_c, 0, 74, 0
2, 128239, Note_on_c, 0, 76, 0
2, 128240, Note_on_c, 0, 68, 71
2, 128320, Note_on_c, 0, 68, 0
2, 128322, Note_on_c, 0, 77, 71
2, 128402, Note_on_c, 0, 77, 0
2, 128403, Note_on_c, 0, 74, 72
2, 128480, Note_on_c, 0, 76, 72
2, 128483, Note_on_c, 0, 74, 0
2, 128560, Note_on_c, 0, 76, 0
2, 128560, Note_on_c, 0, 68, 72
2, 128640, Note_on_c, 0, 68, 0
2, 128642, Note_on_c, 0, 77, 73
2, 128722, Note_on_c, 0, 77, 0
2, 128722, Note_on_c, 0, 74, 73
2, 128798, Note_on_c, 0, 76, 74
2, 128802, Note_on_c, 0, 74, 0
2, 128878, Note_on_c, 0, 76, 0
2, 128878, Note_on_c, 0, 68, 74
2, 128958, Note_on_c, 0, 68, 0
2, 128962, Note_on_c, 0, 77, 74
2, 129042, Note_on_c, 0, 77, 0
2, 129043, Note_on_c, 0, 74, 75
2, 129121, Note_on_c, 0, 76, 75
2, 129123, Note_on_c, 0, 74, 0
2, 129200, Note_on_c, 0, 80, 77
2, 129201, Note_on_c, 0, 76, 0
2, 129280, Note_on_c, 0, 80, 0
2, 129280, Note_on_c, 0, 89, 77
2, 129358, Note_on_c, 0, 86, 78
2, 129360, Note_on_c, 0, 89, 0
2, 129438, Note_on_c, 0, 86, 0
2, 129440, Note_on_c, 0, 88, 78
2, 129519, Note_on_c, 0, 92, 78
2, 129520, Note_on_c, 0, 88, 0
2, 129599, Note_on_c, 0, 92, 0
2, 129600, Note_on_c, 0, 101, 79
2, 129680, Note_on_c, 0, 101, 0
2, 129683, Note_on_c, 0, 98, 79
2, 129759, Note_on_c, 0, 100, 80
2, 129763, Note_on_c, 0, 98, 0
2, 129839, Note_on_c, 0, 100, 0
2, 129839, Note_on_c, 0, 92, 80
2, 129918, Note_on_c, 0, 101, 81
2, 129919, Note_on_c, 0, 92, 0
2, 129998, Note_on_c, 0, 101, 0
2, 130000, Note_on_c, 0, 98, 81
2, 130079, Note_on_c, 0, 100, 81
2, 130080, Note_on_c, 0, 98, 0
2, 130159, Note_on_c, 0, 100, 0
2, 130159, Note_on_c, 0, 92, 82
2, 130239, Note_on_c, 0, 92, 0
2, 130239, Note_on_c, 0, 101, 82
2, 130319, Note_on_c, 0, 101, 0
2, 130319, Note_on_c, 0, 98, 83
2, 130399, Note_on_c, 0, 98, 0
2, 130400, Note_on_c, 0, 100, 83
2, 130478, Note_on_c, 0, 92, 84
2, 130480, Note_on_c, 0, 100, 0
2, 130558, Note_on_c, 0, 92, 0
2, 130558, Note_on_c, 0, 101, 97
2, 130638, Note_on_c, 0, 101, 0
2, 130643, Note_on_c, 0, 96, 81
2, 130718, Note_on_c, 0, 100, 90
2, 130723, Note_on_c, 0, 96, 0
2, 130798, Note_on_c, 0, 100, 0
2, 130803, Note_on_c, 0, 93, 73
2, 130880, Note_on_c, 0, 99, 93
2, 130883, Note_on_c, 0, 93, 0
2, 130960, Note_on_c, 0, 99, 0
2, 130963, Note_on_c, 0, 96, 73
2, 131040, Note_on_c, 0, 98, 83
2, 131043, Note_on_c, 0, 96, 0
2, 131119, Note_on_c, 0, 93, 67
2, 131120, Note_on_c, 0, 98, 0
2, 131199, Note_on_c, 0, 93, 0
2, 131202, Note_on_c, 0, 97, 79
2, 131282, Note_on_c, 0, 97, 0
2, 131283, Note_on_c, 0, 93, 67
2, 131360, Note_on_c, 0, 96, 78
2, 131363, Note_on_c, 0, 93, 0
2, 131440, Note_on_c, 0, 96, 0
2, 131440, Note_on_c, 0, 88, 67
2, 131520, Note_on_c, 0, 88, 0
2, 131522, Note_on_c, 0, 95, 79
2, 131599, Note_on_c, 0, 88, 73
2, 131602, Note_on_c, 0, 95, 0
2, 131679, Note_on_c, 0, 88, 0
2, 131680, Note_on_c, 0, 94, 79
2, 131760, Note_on_c, 0, 94, 0
2, 131761, Note_on_c, 0, 84, 73
2, 131841, Note_on_c, 0, 84, 0
2, 131842, Note_on_c, 0, 93, 79
2, 131922, Note_on_c, 0, 93, 0
2, 131922, Note_on_c, 0, 88, 73
2, 132002, Note_on_c, 0, 88, 0
2, 132002, Note_on_c, 0, 92, 79
2, 132080, Note_on_c, 0, 84, 67
2, 132082, Note_on_c, 0, 92, 0
2, 132160, Note_on_c, 0, 84, 0
2, 132162, Note_on_c, 0, 91, 71
2, 132241, Note_on_c, 0, 84, 67
2, 132242, Note_on_c, 0, 91, 0
2, 132319, Note_on_c, 0, 90, 71
2, 132321, Note_on_c, 0, 84, 0
2, 132399, Note_on_c, 0, 90, 0
2, 132400, Note_on_c, 0, 81, 67
2, 132478, Note_on_c, 0, 89, 79
2, 132480, Note_on_c, 0, 81, 0
2, 132558, Note_on_c, 0, 89, 0
2, 132563, Note_on_c, 0, 84, 73
2, 132642, Note_on_c, 0, 88, 79
2, 132643, Note_on_c, 0, 84, 0
2, 132720, Note_on_c, 0, 81, 73
2, 132722, Note_on_c, 0, 88, 0
2, 132799, Note_on_c, 0, 87, 79
2, 132800, Note_on_c, 0, 81, 0
2, 132879, Note_on_c, 0, 87, 0
2, 132879, Note_on_c, 0, 84, 73
2, 132959, Note_on_c, 0, 84, 0
2, 132959, Note_on_c, 0, 86, 79
2, 133038, Note_on_c, 0, 81, 67
2, 133039, Note_on_c, 0, 86, 0
2, 133118, Note_on_c, 0, 81, 0
2, 133123, Note_on_c, 0, 85, 71
2, 133199, Note_on_c, 0, 81, 67
2, 133203, Note_on_c, 0, 85, 0
2, 133279, Note_on_c, 0, 81, 0
2, 133280, Note_on_c, 0, 84, 71
2, 133358, Note_on_c, 0, 76, 67
2, 133360, Note_on_c, 0, 84, 0
2, 133438, Note_on_c, 0, 76, 0
2, 133443, Note_on_c, 0, 83, 71
2, 133521, Note_on_c, 0, 76, 67
2, 133523, Note_on_c, 0, 83, 0
2, 133601, Note_on_c, 0, 76, 0
2, 133602, Note_on_c, 0, 82, 71
2, 133679, Note_on_c, 0, 72, 67
2, 133682, Note_on_c, 0, 82, 0
2, 133759, Note_on_c, 0, 72, 0
2, 133760, Note_on_c, 0, 81, 71
2, 133840, Note_on_c, 0, 81, 0
2, 133842, Note_on_c, 0, 76, 67
2, 133920, Note_on_c, 0, 80, 71
2, 133922, Note_on_c, 0, 76, 0
2, 134000, Note_on_c, 0, 80, 0
2, 134001, Note_on_c, 0, 72, 67
2, 134081, Note_on_c, 0, 72, 0
2, 134082, Note_on_c, 0, 79, 71
2, 134159, Note_on_c, 0, 72, 67
2, 134162, Note_on_c, 0, 79, 0
2, 134239, Note_on_c, 0, 72, 0
2, 134239, Note_on_c, 0, 78, 71
2, 134319, Note_on_c, 0, 78, 0
2, 134323, Note_on_c, 0, 69, 67
2, 134402, Note_on_c, 0, 77, 53
2, 134403, Note_on_c, 0, 69, 0
2, 134479, Note_on_c, 0, 72, 49
2, 134482, Note_on_c, 0, 77, 0
2, 134559, Note_on_c, 0, 72, 0
2, 134563, Note_on_c, 0, 76, 53
2, 134638, Note_on_c, 0, 69, 49
2, 134643, Note_on_c, 0, 76, 0
2, 134718, Note_on_c, 0, 69, 0
2, 134722, Note_on_c, 0, 75, 53
2, 134798, Note_on_c, 0, 72, 49
2, 134802, Note_on_c, 0, 75, 0
2, 134878, Note_on_c, 0, 72, 0
2, 134878, Note_on_c, 0, 74, 53
2, 134958, Note_on_c, 0, 74, 0
2, 134958, Note_on_c, 0, 69, 49
2, 135038, Note_on_c, 0, 69, 0
2, 135041, Note_on_c, 0, 73, 53
2, 135121, Note_on_c, 0, 73, 0
2, 135121, Note_on_c, 0, 69, 49
2, 135201, Note_on_c, 0, 69, 0
2, 135201, Note_on_c, 0, 72, 53
2, 135279, Note_on_c, 0, 64, 49
2, 135281, Note_on_c, 0, 72, 0
2, 135358, Note_on_c, 0, 71, 53
2, 135359, Note_on_c, 0, 64, 0
2, 135438, Note_on_c, 0, 71, 0
2, 135439, Note_on_c, 0, 64, 49
2, 135518, Note_on_c, 0, 70, 51
2, 135519, Note_on_c, 0, 64, 0
2, 135598, Note_on_c, 0, 70, 0
2, 135600, Note_on_c, 0, 60, 48
2, 135678, Note_on_c, 0, 69, 50
2, 135680, Note_on_c, 0, 60, 0
2, 135758, Note_on_c, 0, 69, 0
2, 135759, Note_on_c, 0, 64, 45
2, 135839, Note_on_c, 0, 64, 0
2, 135842, Note_on_c, 0, 68, 49
2, 135921, Note_on_c, 0, 60, 44
2, 135922, Note_on_c, 0, 68, 0
2, 135999, Note_on_c, 0, 67, 47
2, 136001, Note_on_c, 0, 60, 0
2, 136079, Note_on_c, 0, 67, 0
2, 136083, Note_on_c, 0, 60, 44
2, 136163, Note_on_c, 0, 60, 0
2, 136163, Note_on_c, 0, 66, 45
2, 136238, Note_on_c, 0, 57, 45
2, 136243, Note_on_c, 0, 66, 0
2, 136318, Note_on_c, 0, 57, 0
2, 136319, Note_on_c, 0, 65, 45
2, 136399, Note_on_c, 0, 65, 0
2, 136402, Note_on_c, 0, 60, 42
2, 136480, Note_on_c, 0, 64, 45
2, 136482, Note_on_c, 0, 60, 0
2, 136559, Note_on_c, 0, 57, 42
2, 136560, Note_on_c, 0, 64, 0
2, 136639, Note_on_c, 0, 57, 0
2, 136640, Note_on_c, 0, 63, 44
2, 136720, Note_on_c, 0, 63, 0
2, 136721, Note_on_c, 0, 60, 40
2, 136801, Note_on_c, 0, 60, 0
2, 136802, Note_on_c, 0, 62, 42
2, 136881, Note_on_c, 0, 57, 39
2, 136882, Note_on_c, 0, 62, 0
2, 136958, Note_on_c, 0, 61, 42
2, 136961, Note_on_c, 0, 57, 0
2, 137038, Note_on_c, 0, 61, 0
2, 137042, Note_on_c, 0, 57, 39
2, 137121, Note_on_c, 0, 60, 40
2, 137122, Note_on_c, 0, 57, 0
2, 137198, Note_on_c, 0, 52, 38
2, 137201, Note_on_c, 0, 60, 0
2, 137278, Note_on_c, 0, 52, 0
2, 137281, Note_on_c, 0, 59, 40
2, 137361, Note_on_c, 0, 59, 0
2, 137363, Note_on_c, 0, 52, 39
2, 137442, Note_on_c, 0, 58, 45
2, 137443, Note_on_c, 0, 52, 0
2, 137520, Note_on_c, 0, 48, 42
2, 137522, Note_on_c, 0, 58, 0
2, 137600, Note_on_c, 0, 48, 0
2, 137600, Note_on_c, 0, 57, 47
2, 137680, Note_on_c, 0, 57, 0
2, 137683, Note_on_c, 0, 52, 45
2, 137761, Note_on_c, 0, 56, 50
2, 137763, Note_on_c, 0, 52, 0
2, 137840, Note_on_c, 0, 48, 48
2, 137841, Note_on_c, 0, 56, 0
2, 137920, Note_on_c, 0, 48, 0
2, 137923, Note_on_c, 0, 57, 53
2, 138001, Note_on_c, 0, 52, 50
2, 138003, Note_on_c, 0, 57, 0
2, 138078, Note_on_c, 0, 60, 56
2, 138081, Note_on_c, 0, 52, 0
2, 138158, Note_on_c, 0, 60, 0
2, 138161, Note_on_c, 0, 53, 53
2, 138238, Note_on_c, 0, 64, 57
2, 138241, Note_on_c, 0, 53, 0
2, 138318, Note_on_c, 0, 64, 0
2, 138319, Note_on_c, 0, 59, 57
2, 138399, Note_on_c, 0, 59, 0
2, 138401, Note_on_c, 0, 62, 57
2, 138481, Note_on_c, 0, 62, 0
2, 138482, Note_on_c, 0, 65, 57
2, 138560, Note_on_c, 0, 76, 57
2, 138562, Note_on_c, 0, 65, 0
2, 138640, Note_on_c, 0, 76, 0
2, 138643, Note_on_c, 0, 71, 57
2, 138722, Note_on_c, 0, 74, 59
2, 138723, Note_on_c, 0, 71, 0
2, 138800, Note_on_c, 0, 77, 60
2, 138802, Note_on_c, 0, 74, 0
2, 138880, Note_on_c, 0, 77, 0
2, 138880, Note_on_c, 0, 88, 61
2, 138960, Note_on_c, 0, 88, 0
2, 138960, Note_on_c, 0, 83, 62
2, 139040, Note_on_c, 0, 83, 0
2, 139041, Note_on_c, 0, 86, 64
2, 139120, Note_on_c, 0, 77, 66
2, 139121, Note_on_c, 0, 86, 0
2, 139200, Note_on_c, 0, 77, 0
2, 139201, Note_on_c, 0, 86, 67
2, 139281, Note_on_c, 0, 86, 0
2, 139281, Note_on_c, 0, 81, 64
2, 139360, Note_on_c, 0, 84, 61
2, 139361, Note_on_c, 0, 81, 0
2, 139440, Note_on_c, 0, 84, 0
2, 139443, Note_on_c, 0, 77, 59
2, 139519, Note_on_c, 0, 74, 59
2, 139523, Note_on_c, 0, 77, 0
2, 139598, Note_on_c, 0, 69, 57
2, 139599, Note_on_c, 0, 74, 0
2, 139678, Note_on_c, 0, 69, 0
2, 139678, Note_on_c, 0, 72, 55
2, 139758, Note_on_c, 0, 72, 0
2, 139758, Note_on_c, 0, 65, 55
2, 139838, Note_on_c, 0, 65, 0
2, 139839, Note_on_c, 0, 62, 55
2, 139919, Note_on_c, 0, 62, 0
2, 139919, Note_on_c, 0, 57, 55
2, 139999, Note_on_c, 0, 57, 0
2, 140000, Note_on_c, 0, 60, 55
2, 140080, Note_on_c, 0, 60, 0
2, 140082, Note_on_c, 0, 53, 55
2, 140160, Note_on_c, 0, 64, 57
2, 140162, Note_on_c, 0, 53, 0
2, 140238, Note_on_c, 0, 59, 57
2, 140240, Note_on_c, 0, 64, 0
2, 140318, Note_on_c, 0, 59, 0
2, 140321, Note_on_c, 0, 62, 57
2, 140401, Note_on_c, 0, 62, 0
2, 140403, Note_on_c, 0, 65, 57
2, 140482, Note_on_c, 0, 76, 57
2, 140483, Note_on_c, 0, 65, 0
2, 140559, Note_on_c, 0, 71, 57
2, 140562, Note_on_c, 0, 76, 0
2, 140639, Note_on_c, 0, 71, 0
2, 140643, Note_on_c, 0, 74, 60
2, 140719, Note_on_c, 0, 77, 60
2, 140723, Note_on_c, 0, 74, 0
2, 140798, Note_on_c, 0, 88, 61
2, 140799, Note_on_c, 0, 77, 0
2, 140878, Note_on_c, 0, 88, 0
2, 140881, Note_on_c, 0, 83, 64
2, 140958, Note_on_c, 0, 86, 64
2, 140961, Note_on_c, 0, 83, 0
2, 141038, Note_on_c, 0, 86, 0
2, 141043, Note_on_c, 0, 76, 66
2, 141121, Note_on_c, 0, 86, 66
2, 141123, Note_on_c, 0, 76, 0
2, 141200, Note_on_c, 0, 81, 64
2, 141201, Note_on_c, 0, 86, 0
2, 141278, Note_on_c, 0, 84, 61
2, 141280, Note_on_c, 0, 81, 0
2, 141358, Note_on_c, 0, 84, 0
2, 141359, Note_on_c, 0, 76, 59
2, 141439, Note_on_c, 0, 76, 0
2, 141443, Note_on_c, 0, 74, 58
2, 141521, Note_on_c, 0, 69, 56
2, 141523, Note_on_c, 0, 74, 0
2, 141598, Note_on_c, 0, 72, 56
2, 141601, Note_on_c, 0, 69, 0
2, 141678, Note_on_c, 0, 72, 0
2, 141678, Note_on_c, 0, 64, 56
2, 141758, Note_on_c, 0, 64, 0
2, 141761, Note_on_c, 0, 62, 56
2, 141841, Note_on_c, 0, 62, 0
2, 141843, Note_on_c, 0, 57, 56
2, 141921, Note_on_c, 0, 60, 56
2, 141923, Note_on_c, 0, 57, 0
2, 141999, Note_on_c, 0, 59, 56
2, 142001, Note_on_c, 0, 60, 0
2, 142079, Note_on_c, 0, 59, 0
2, 142080, Note_on_c, 0, 69, 57
2, 142160, Note_on_c, 0, 69, 0
2, 142163, Note_on_c, 0, 64, 55
2, 142238, Note_on_c, 0, 68, 55
2, 142243, Note_on_c, 0, 64, 0
2, 142318, Note_on_c, 0, 68, 0
2, 142320, Note_on_c, 0, 71, 55
2, 142400, Note_on_c, 0, 71, 0
2, 142401, Note_on_c, 0, 81, 55
2, 142480, Note_on_c, 0, 76, 55
2, 142481, Note_on_c, 0, 81, 0
2, 142559, Note_on_c, 0, 80, 55
2, 142560, Note_on_c, 0, 76, 0
2, 142639, Note_on_c, 0, 80, 0
2, 142641, Note_on_c, 0, 83, 55
2, 142719, Note_on_c, 0, 93, 56
2, 142721, Note_on_c, 0, 83, 0
2, 142799, Note_on_c, 0, 93, 0
2, 142799, Note_on_c, 0, 88, 57
2, 142879, Note_on_c, 0, 88, 0
2, 142881, Note_on_c, 0, 92, 59
2, 142961, Note_on_c, 0, 92, 0
2, 142963, Note_on_c, 0, 83, 59
2, 143040, Note_on_c, 0, 92, 59
2, 143043, Note_on_c, 0, 83, 0
2, 143119, Note_on_c, 0, 87, 59
2, 143120, Note_on_c, 0, 92, 0
2, 143199, Note_on_c, 0, 87, 0
2, 143202, Note_on_c, 0, 90, 59
2, 143280, Note_on_c, 0, 83, 58
2, 143282, Note_on_c, 0, 90, 0
2, 143360, Note_on_c, 0, 83, 0
2, 143361, Note_on_c, 0, 80, 57
2, 143440, Note_on_c, 0, 75, 56
2, 143441, Note_on_c, 0, 80, 0
2, 143520, Note_on_c, 0, 75, 0
2, 143523, Note_on_c, 0, 78, 51
2, 143598, Note_on_c, 0, 71, 51
2, 143603, Note_on_c, 0, 78, 0
2, 143678, Note_on_c, 0, 71, 0
2, 143681, Note_on_c, 0, 68, 51
2, 143758, Note_on_c, 0, 63, 51
2, 143761, Note_on_c, 0, 68, 0
2, 143838, Note_on_c, 0, 63, 0
2, 143839, Note_on_c, 0, 66, 51
2, 143918, Note_on_c, 0, 59, 51
2, 143919, Note_on_c, 0, 66, 0
2, 143998, Note_on_c, 0, 59, 0
2, 143998, Note_on_c, 0, 69, 51
2, 144078, Note_on_c, 0, 69, 0
2, 144082, Note_on_c, 0, 64, 51
2, 144162, Note_on_c, 0, 64, 0
2, 144162, Note_on_c, 0, 68, 51
2, 144240, Note_on_c, 0, 71, 51
2, 144242, Note_on_c, 0, 68, 0
2, 144320, Note_on_c, 0, 71, 0
2, 144320, Note_on_c, 0, 81, 51
2, 144400, Note_on_c, 0, 81, 0
2, 144401, Note_on_c, 0, 76, 51
2, 144480, Note_on_c, 0, 80, 51
2, 144481, Note_on_c, 0, 76, 0
2, 144560, Note_on_c, 0, 80, 0
2, 144561, Note_on_c, 0, 83, 57
2, 144638, Note_on_c, 0, 93, 57
2, 144641, Note_on_c, 0, 83, 0
2, 144718, Note_on_c, 0, 93, 0
2, 144722, Note_on_c, 0, 88, 57
2, 144800, Note_on_c, 0, 92, 57
2, 144802, Note_on_c, 0, 88, 0
2, 144880, Note_on_c, 0, 92, 0
2, 144883, Note_on_c, 0, 83, 57
2, 144960, Note_on_c, 0, 100, 76
2, 144963, Note_on_c, 0, 83, 0
2, 145200, Note_on_c, 0, 100, 0
2, 145921, Note_on_c, 0, 101, 99
2, 146001, Note_on_c, 0, 101, 0
2, 146003, Note_on_c, 0, 96, 67
2, 146080, Note_on_c, 0, 100, 89
2, 146083, Note_on_c, 0, 96, 0
2, 146160, Note_on_c, 0, 100, 0
2, 146162, Note_on_c, 0, 93, 67
2, 146241, Note_on_c, 0, 99, 82
2, 146242, Note_on_c, 0, 93, 0
2, 146320, Note_on_c, 0, 96, 67
2, 146321, Note_on_c, 0, 99, 0
2, 146400, Note_on_c, 0, 96, 0
2, 146402, Note_on_c, 0, 98, 79
2, 146482, Note_on_c, 0, 98, 0
2, 146483, Note_on_c, 0, 93, 62
2, 146558, Note_on_c, 0, 97, 77
2, 146563, Note_on_c, 0, 93, 0
2, 146638, Note_on_c, 0, 97, 0
2, 146642, Note_on_c, 0, 93, 62
2, 146720, Note_on_c, 0, 96, 77
2, 146722, Note_on_c, 0, 93, 0
2, 146799, Note_on_c, 0, 88, 62
2, 146800, Note_on_c, 0, 96, 0
2, 146879, Note_on_c, 0, 88, 0
2, 146882, Note_on_c, 0, 95, 74
2, 146962, Note_on_c, 0, 95, 0
2, 146962, Note_on_c, 0, 88, 67
2, 147039, Note_on_c, 0, 94, 75
2, 147042, Note_on_c, 0, 88, 0
2, 147119, Note_on_c, 0, 94, 0
2, 147121, Note_on_c, 0, 84, 67
2, 147199, Note_on_c, 0, 93, 75
2, 147201, Note_on_c, 0, 84, 0
2, 147278, Note_on_c, 0, 88, 67
2, 147279, Note_on_c, 0, 93, 0
2, 147358, Note_on_c, 0, 88, 0
2, 147362, Note_on_c, 0, 92, 73
2, 147440, Note_on_c, 0, 84, 62
2, 147442, Note_on_c, 0, 92, 0
2, 147519, Note_on_c, 0, 91, 70
2, 147520, Note_on_c, 0, 84, 0
2, 147599, Note_on_c, 0, 91, 0
2, 147599, Note_on_c, 0, 84, 62
2, 147679, Note_on_c, 0, 84, 0
2, 147681, Note_on_c, 0, 90, 67
2, 147759, Note_on_c, 0, 81, 62
2, 147761, Note_on_c, 0, 90, 0
2, 147839, Note_on_c, 0, 81, 0
2, 147839, Note_on_c, 0, 89, 70
2, 147919, Note_on_c, 0, 89, 0
2, 147919, Note_on_c, 0, 84, 67
2, 147999, Note_on_c, 0, 84, 0
2, 148001, Note_on_c, 0, 88, 70
2, 148081, Note_on_c, 0, 88, 0
2, 148082, Note_on_c, 0, 81, 67
2, 148162, Note_on_c, 0, 81, 0
2, 148162, Note_on_c, 0, 87, 70
2, 148241, Note_on_c, 0, 84, 67
2, 148242, Note_on_c, 0, 87, 0
2, 148318, Note_on_c, 0, 86, 70
2, 148321, Note_on_c, 0, 84, 0
2, 148398, Note_on_c, 0, 86, 0
2, 148399, Note_on_c, 0, 81, 62
2, 148479, Note_on_c, 0, 81, 0
2, 148483, Note_on_c, 0, 85, 67
2, 148559, Note_on_c, 0, 81, 62
2, 148563, Note_on_c, 0, 85, 0
2, 148639, Note_on_c, 0, 81, 0
2, 148639, Note_on_c, 0, 84, 67
2, 148718, Note_on_c, 0, 76, 62
2, 148719, Note_on_c, 0, 84, 0
2, 148798, Note_on_c, 0, 76, 0
2, 148800, Note_on_c, 0, 83, 67
2, 148879, Note_on_c, 0, 76, 62
2, 148880, Note_on_c, 0, 83, 0
2, 148959, Note_on_c, 0, 76, 0
2, 148963, Note_on_c, 0, 82, 67
2, 149039, Note_on_c, 0, 72, 62
2, 149043, Note_on_c, 0, 82, 0
2, 149119, Note_on_c, 0, 72, 0
2, 149119, Note_on_c, 0, 81, 67
2, 149199, Note_on_c, 0, 81, 0
2, 149201, Note_on_c, 0, 76, 62
2, 149281, Note_on_c, 0, 76, 0
2, 149282, Note_on_c, 0, 80, 67
2, 149361, Note_on_c, 0, 72, 62
2, 149362, Note_on_c, 0, 80, 0
2, 149439, Note_on_c, 0, 79, 67
2, 149441, Note_on_c, 0, 72, 0
2, 149519, Note_on_c, 0, 79, 0
2, 149522, Note_on_c, 0, 72, 62
2, 149600, Note_on_c, 0, 78, 67
2, 149602, Note_on_c, 0, 72, 0
2, 149680, Note_on_c, 0, 78, 0
2, 149682, Note_on_c, 0, 69, 62
2, 149758, Note_on_c, 0, 77, 53
2, 149762, Note_on_c, 0, 69, 0
2, 149838, Note_on_c, 0, 77, 0
2, 149842, Note_on_c, 0, 72, 49
2, 149921, Note_on_c, 0, 76, 53
2, 149922, Note_on_c, 0, 72, 0
2, 149998, Note_on_c, 0, 69, 49
2, 150001, Note_on_c, 0, 76, 0
2, 150078, Note_on_c, 0, 69, 0
2, 150082, Note_on_c, 0, 75, 53
2, 150160, Note_on_c, 0, 72, 49
2, 150162, Note_on_c, 0, 75, 0
2, 150240, Note_on_c, 0, 72, 0
2, 150241, Note_on_c, 0, 74, 53
2, 150321, Note_on_c, 0, 74, 0
2, 150323, Note_on_c, 0, 69, 49
2, 150401, Note_on_c, 0, 73, 53
2, 150403, Note_on_c, 0, 69, 0
2, 150480, Note_on_c, 0, 69, 49
2, 150481, Note_on_c, 0, 73, 0
2, 150558, Note_on_c, 0, 72, 53
2, 150560, Note_on_c, 0, 69, 0
2, 150638, Note_on_c, 0, 72, 0
2, 150642, Note_on_c, 0, 64, 49
2, 150721, Note_on_c, 0, 71, 53
2, 150722, Note_on_c, 0, 64, 0
2, 150800, Note_on_c, 0, 64, 49
2, 150801, Note_on_c, 0, 71, 0
2, 150880, Note_on_c, 0, 64, 0
2, 150881, Note_on_c, 0, 70, 51
2, 150961, Note_on_c, 0, 70, 0
2, 150962, Note_on_c, 0, 60, 48
2, 151038, Note_on_c, 0, 69, 50
2, 151042, Note_on_c, 0, 60, 0
2, 151118, Note_on_c, 0, 69, 0
2, 151118, Note_on_c, 0, 64, 45
2, 151198, Note_on_c, 0, 64, 0
2, 151201, Note_on_c, 0, 68, 49
2, 151281, Note_on_c, 0, 68, 0
2, 151282, Note_on_c, 0, 60, 44
2, 151359, Note_on_c, 0, 67, 47
2, 151362, Note_on_c, 0, 60, 0
2, 151439, Note_on_c, 0, 67, 0
2, 151442, Note_on_c, 0, 60, 44
2, 151522, Note_on_c, 0, 60, 0
2, 151523, Note_on_c, 0, 66, 45
2, 151602, Note_on_c, 0, 57, 42
2, 151603, Note_on_c, 0, 66, 0
2, 151679, Note_on_c, 0, 65, 45
2, 151682, Note_on_c, 0, 57, 0
2, 151759, Note_on_c, 0, 65, 0
2, 151761, Note_on_c, 0, 60, 42
2, 151840, Note_on_c, 0, 64, 45
2, 151841, Note_on_c, 0, 60, 0
2, 151918, Note_on_c, 0, 57, 42
2, 151920, Note_on_c, 0, 64, 0
2, 151998, Note_on_c, 0, 57, 0
2, 152000, Note_on_c, 0, 63, 44
2, 152078, Note_on_c, 0, 60, 40
2, 152080, Note_on_c, 0, 63, 0
2, 152158, Note_on_c, 0, 60, 0
2, 152162, Note_on_c, 0, 62, 42
2, 152238, Note_on_c, 0, 57, 39
2, 152242, Note_on_c, 0, 62, 0
2, 152318, Note_on_c, 0, 57, 0
2, 152322, Note_on_c, 0, 61, 42
2, 152402, Note_on_c, 0, 61, 0
2, 152402, Note_on_c, 0, 57, 39
2, 152482, Note_on_c, 0, 57, 0
2, 152482, Note_on_c, 0, 60, 40
2, 152562, Note_on_c, 0, 60, 0
2, 152563, Note_on_c, 0, 52, 38
2, 152642, Note_on_c, 0, 59, 40
2, 152643, Note_on_c, 0, 52, 0
2, 152721, Note_on_c, 0, 53, 39
2, 152722, Note_on_c, 0, 59, 0
2, 152799, Note_on_c, 0, 57, 45
2, 152801, Note_on_c, 0, 53, 0
2, 152878, Note_on_c, 0, 48, 42
2, 152879, Note_on_c, 0, 57, 0
2, 152958, Note_on_c, 0, 48, 0
2, 152959, Note_on_c, 0, 56, 47
2, 153039, Note_on_c, 0, 56, 0
2, 153042, Note_on_c, 0, 53, 45
2, 153122, Note_on_c, 0, 53, 0
2, 153123, Note_on_c, 0, 57, 50
2, 153200, Note_on_c, 0, 48, 48
2, 153203, Note_on_c, 0, 57, 0
2, 153279, Note_on_c, 0, 59, 53
2, 153280, Note_on_c, 0, 48, 0
2, 153359, Note_on_c, 0, 59, 0
2, 153362, Note_on_c, 0, 52, 50
2, 153441, Note_on_c, 0, 60, 56
2, 153442, Note_on_c, 0, 52, 0
2, 153520, Note_on_c, 0, 48, 53
2, 153521, Note_on_c, 0, 60, 0
2, 153600, Note_on_c, 0, 48, 0
2, 153600, Note_on_c, 0, 60, 57
2, 153680, Note_on_c, 0, 60, 0
2, 153683, Note_on_c, 0, 53, 57
2, 153760, Note_on_c, 0, 59, 57
2, 153763, Note_on_c, 0, 53, 0
2, 153836, Note_on_c, 0, 59, 0
2, 153843, Note_on_c, 0, 59, 57
2, 153919, Note_on_c, 0, 72, 57
2, 153923, Note_on_c, 0, 59, 0
2, 153999, Note_on_c, 0, 72, 0
2, 154001, Note_on_c, 0, 65, 57
2, 154080, Note_on_c, 0, 71, 56
2, 154081, Note_on_c, 0, 65, 0
2, 154155, Note_on_c, 0, 71, 0
2, 154160, Note_on_c, 0, 71, 57
2, 154240, Note_on_c, 0, 71, 0
2, 154243, Note_on_c, 0, 84, 58
2, 154320, Note_on_c, 0, 77, 59
2, 154323, Note_on_c, 0, 84, 0
2, 154400, Note_on_c, 0, 77, 0
2, 154400, Note_on_c, 0, 83, 59
2, 154475, Note_on_c, 0, 83, 0
2, 154480, Note_on_c, 0, 83, 60
2, 154560, Note_on_c, 0, 83, 0
2, 154561, Note_on_c, 0, 96, 61
2, 154641, Note_on_c, 0, 96, 0
2, 154642, Note_on_c, 0, 90, 61
2, 154718, Note_on_c, 0, 95, 60
2, 154722, Note_on_c, 0, 90, 0
2, 154798, Note_on_c, 0, 95, 0
2, 154801, Note_on_c, 0, 83, 59
2, 154879, Note_on_c, 0, 84, 59
2, 154881, Note_on_c, 0, 83, 0
2, 154959, Note_on_c, 0, 84, 0
2, 154959, Note_on_c, 0, 78, 58
2, 155039, Note_on_c, 0, 78, 0
2, 155042, Note_on_c, 0, 83, 56
2, 155122, Note_on_c, 0, 83, 0
2, 155123, Note_on_c, 0, 71, 56
2, 155202, Note_on_c, 0, 72, 56
2, 155203, Note_on_c, 0, 71, 0
2, 155282, Note_on_c, 0, 72, 0
2, 155283, Note_on_c, 0, 66, 56
2, 155361, Note_on_c, 0, 71, 56
2, 155363, Note_on_c, 0, 66, 0
2, 155441, Note_on_c, 0, 71, 0
2, 155443, Note_on_c, 0, 59, 56
2, 155523, Note_on_c, 0, 59, 0
2, 155523, Note_on_c, 0, 74, 59
2, 155601, Note_on_c, 0, 67, 59
2, 155603, Note_on_c, 0, 74, 0
2, 155680, Note_on_c, 0, 73, 60
2, 155681, Note_on_c, 0, 67, 0
2, 155755, Note_on_c, 0, 73, 0
2, 155760, Note_on_c, 0, 73, 61
2, 155838, Note_on_c, 0, 86, 61
2, 155840, Note_on_c, 0, 73, 0
2, 155918, Note_on_c, 0, 86, 0
2, 155922, Note_on_c, 0, 77, 64
2, 156000, Note_on_c, 0, 85, 66
2, 156002, Note_on_c, 0, 77, 0
2, 156075, Note_on_c, 0, 85, 0
2, 156080, Note_on_c, 0, 85, 66
2, 156160, Note_on_c, 0, 85, 0
2, 156161, Note_on_c, 0, 98, 67
2, 156241, Note_on_c, 0, 98, 0
2, 156242, Note_on_c, 0, 91, 68
2, 156322, Note_on_c, 0, 91, 0
2, 156322, Note_on_c, 0, 97, 68
2, 156402, Note_on_c, 0, 97, 0
2, 156403, Note_on_c, 0, 85, 69
2, 156478, Note_on_c, 0, 99, 69
2, 156483, Note_on_c, 0, 85, 0
2, 156558, Note_on_c, 0, 99, 0
2, 156560, Note_on_c, 0, 94, 69
2, 156640, Note_on_c, 0, 94, 0
2, 156641, Note_on_c, 0, 98, 70
2, 156720, Note_on_c, 0, 86, 71
2, 156721, Note_on_c, 0, 98, 0
2, 156800, Note_on_c, 0, 86, 0
2, 156800, Note_on_c, 0, 87, 71
2, 156880, Note_on_c, 0, 87, 0
2, 156882, Note_on_c, 0, 82, 72
2, 156961, Note_on_c, 0, 86, 73
2, 156962, Note_on_c, 0, 82, 0
2, 157040, Note_on_c, 0, 74, 73
2, 157041, Note_on_c, 0, 86, 0
2, 157120, Note_on_c, 0, 74, 0
2, 157121, Note_on_c, 0, 75, 75
2, 157200, Note_on_c, 0, 70, 78
2, 157201, Note_on_c, 0, 75, 0
2, 157280, Note_on_c, 0, 70, 0
2, 157282, Note_on_c, 0, 74, 78
2, 157358, Note_on_c, 0, 62, 79
2, 157362, Note_on_c, 0, 74, 0
2, 157438, Note_on_c, 0, 62, 0
2, 157438, Note_on_c, 0, 76, 78
2, 157518, Note_on_c, 0, 76, 0
2, 157523, Note_on_c, 0, 69, 72
2, 157598, Note_on_c, 0, 75, 78
2, 157603, Note_on_c, 0, 69, 0
2, 157678, Note_on_c, 0, 75, 0
2, 157680, Note_on_c, 0, 63, 72
2, 157758, Note_on_c, 0, 76, 78
2, 157760, Note_on_c, 0, 63, 0
2, 157838, Note_on_c, 0, 76, 0
2, 157840, Note_on_c, 0, 69, 72
2, 157920, Note_on_c, 0, 69, 0
2, 157920, Note_on_c, 0, 75, 81
2, 158000, Note_on_c, 0, 75, 0
2, 158000, Note_on_c, 0, 75, 75
2, 158080, Note_on_c, 0, 75, 0
2, 158080, Note_on_c, 0, 88, 86
2, 158159, Note_on_c, 0, 81, 79
2, 158160, Note_on_c, 0, 88, 0
2, 158239, Note_on_c, 0, 81, 0
2, 158240, Note_on_c, 0, 87, 86
2, 158320, Note_on_c, 0, 87, 0
2, 158320, Note_on_c, 0, 87, 80
2, 158400, Note_on_c, 0, 87, 0
2, 158403, Note_on_c, 0, 100, 86
2, 158483, Note_on_c, 0, 100, 0
2, 158483, Note_on_c, 0, 93, 80
2, 158560, Note_on_c, 0, 99, 86
2, 158563, Note_on_c, 0, 93, 0
2, 158640, Note_on_c, 0, 99, 0
2, 158640, Note_on_c, 0, 87, 81
2, 158719, Note_on_c, 0, 88, 86
2, 158720, Note_on_c, 0, 87, 0
2, 158799, Note_on_c, 0, 88, 0
2, 158803, Note_on_c, 0, 81, 81
2, 158882, Note_on_c, 0, 87, 86
2, 158883, Note_on_c, 0, 81, 0
2, 158960, Note_on_c, 0, 75, 80
2, 158962, Note_on_c, 0, 87, 0
2, 159040, Note_on_c, 0, 75, 0
2, 159042, Note_on_c, 0, 88, 86
2, 159121, Note_on_c, 0, 81, 86
2, 159122, Note_on_c, 0, 88, 0
2, 159200, Note_on_c, 0, 87, 86
2, 159201, Note_on_c, 0, 81, 0
2, 159273, Note_on_c, 0, 87, 0
2, 159280, Note_on_c, 0, 87, 80
2, 159360, Note_on_c, 0, 87, 0
2, 159362, Note_on_c, 0, 100, 86
2, 159439, Note_on_c, 0, 93, 80
2, 159442, Note_on_c, 0, 100, 0
2, 159518, Note_on_c, 0, 99, 86
2, 159519, Note_on_c, 0, 93, 0
2, 159598, Note_on_c, 0, 99, 0
2, 159601, Note_on_c, 0, 87, 86
2, 159681, Note_on_c, 0, 87, 0
2, 159682, Note_on_c, 0, 88, 86
2, 159761, Note_on_c, 0, 81, 80
2, 159762, Note_on_c, 0, 88, 0
2, 159838, Note_on_c, 0, 87, 82
2, 159841, Note_on_c, 0, 81, 0
2, 159918, Note_on_c, 0, 87, 0
2, 159921, Note_on_c, 0, 75, 78
2, 160000, Note_on_c, 0, 88, 82
2, 160001, Note_on_c, 0, 75, 0
2, 160080, Note_on_c, 0, 88, 0
2, 160083, Note_on_c, 0, 81, 82
2, 160160, Note_on_c, 0, 87, 82
2, 160163, Note_on_c, 0, 81, 0
2, 160234, Note_on_c, 0, 87, 0
2, 160240, Note_on_c, 0, 87, 78
2, 160319, Note_on_c, 0, 100, 80
2, 160320, Note_on_c, 0, 87, 0
2, 160398, Note_on_c, 0, 93, 68
2, 160399, Note_on_c, 0, 100, 0
2, 160478, Note_on_c, 0, 93, 0
2, 160479, Note_on_c, 0, 99, 70
2, 160559, Note_on_c, 0, 99, 0
2, 160560, Note_on_c, 0, 87, 62
2, 160640, Note_on_c, 0, 87, 0
2, 160641, Note_on_c, 0, 100, 66
2, 160718, Note_on_c, 0, 93, 60
2, 160721, Note_on_c, 0, 100, 0
2, 160798, Note_on_c, 0, 93, 0
2, 160800, Note_on_c, 0, 99, 62
2, 160878, Note_on_c, 0, 87, 58
2, 160880, Note_on_c, 0, 99, 0
2, 160958, Note_on_c, 0, 87, 0
2, 160963, Note_on_c, 0, 100, 59
2, 161042, Note_on_c, 0, 93, 53
2, 161043, Note_on_c, 0, 100, 0
2, 161118, Note_on_c, 0, 99, 55
2, 161122, Note_on_c, 0, 93, 0
2, 161198, Note_on_c, 0, 99, 0
2, 161198, Note_on_c, 0, 87, 49
2, 161278, Note_on_c, 0, 87, 0
2, 161282, Note_on_c, 0, 100, 60
2, 161362, Note_on_c, 0, 100, 0
2, 161363, Note_on_c, 0, 95, 55
2, 161442, Note_on_c, 0, 99, 61
2, 161443, Note_on_c, 0, 95, 0
2, 161522, Note_on_c, 0, 99, 0
2, 161522, Note_on_c, 0, 93, 56
2, 161598, Note_on_c, 0, 100, 62
2, 161602, Note_on_c, 0, 93, 0
2, 161678, Note_on_c, 0, 100, 0
2, 161682, Note_on_c, 0, 95, 56
2, 161761, Note_on_c, 0, 99, 63
2, 161762, Note_on_c, 0, 95, 0
2, 161841, Note_on_c, 0, 99, 0
2, 161841, Note_on_c, 0, 93, 57
2, 161921, Note_on_c, 0, 93, 0
2, 161923, Note_on_c, 0, 100, 64
2, 161998, Note_on_c, 0, 95, 60
2, 162003, Note_on_c, 0, 100, 0
2, 162078, Note_on_c, 0, 95, 0
2, 162083, Note_on_c, 0, 99, 66
2, 162163, Note_on_c, 0, 99, 0
2, 162163, Note_on_c, 0, 93, 60
2, 162241, Note_on_c, 0, 100, 67
2, 162243, Note_on_c, 0, 93, 0
2, 162321, Note_on_c, 0, 100, 0
2, 162323, Note_on_c, 0, 95, 60
2, 162401, Note_on_c, 0, 99, 68
2, 162403, Note_on_c, 0, 95, 0
2, 162478, Note_on_c, 0, 93, 62
2, 162481, Note_on_c, 0, 99, 0
2, 162558, Note_on_c, 0, 93, 0
2, 162563, Note_on_c, 0, 100, 69
2, 162641, Note_on_c, 0, 95, 63
2, 162643, Note_on_c, 0, 100, 0
2, 162719, Note_on_c, 0, 99, 70
2, 162721, Note_on_c, 0, 95, 0
2, 162799, Note_on_c, 0, 99, 0
2, 162799, Note_on_c, 0, 93, 64
2, 162879, Note_on_c, 0, 93, 0
2, 162881, Note_on_c, 0, 100, 72
2, 162961, Note_on_c, 0, 100, 0
2, 162963, Note_on_c, 0, 95, 66
2, 163042, Note_on_c, 0, 99, 73
2, 163043, Note_on_c, 0, 95, 0
2, 163122, Note_on_c, 0, 99, 0
2, 163123, Note_on_c, 0, 93, 67
2, 163200, Note_on_c, 0, 100, 74
2, 163203, Note_on_c, 0, 93, 0
2, 163280, Note_on_c, 0, 100, 0
2, 163283, Note_on_c, 0, 95, 67
2, 163361, Note_on_c, 0, 99, 75
2, 163363, Note_on_c, 0, 95, 0
2, 163441, Note_on_c, 0, 99, 0
2, 163442, Note_on_c, 0, 93, 67
2, 163518, Note_on_c, 0, 100, 77
2, 163522, Note_on_c, 0, 93, 0
2, 163598, Note_on_c, 0, 100, 0
2, 163602, Note_on_c, 0, 95, 69
2, 163682, Note_on_c, 0, 95, 0
2, 163682, Note_on_c, 0, 99, 78
2, 163762, Note_on_c, 0, 99, 0
2, 163763, Note_on_c, 0, 93, 69
2, 163843, Note_on_c, 0, 93, 0
2, 163843, Note_on_c, 0, 100, 79
2, 163919, Note_on_c, 0, 95, 69
2, 163923, Note_on_c, 0, 100, 0
2, 163998, Note_on_c, 0, 99, 80
2, 163999, Note_on_c, 0, 95, 0
2, 164078, Note_on_c, 0, 99, 0
2, 164079, Note_on_c, 0, 93, 69
2, 164159, Note_on_c, 0, 93, 0
2, 164159, Note_on_c, 0, 100, 81
2, 164239, Note_on_c, 0, 100, 0
2, 164243, Note_on_c, 0, 95, 70
2, 164323, Note_on_c, 0, 95, 0
2, 164323, Note_on_c, 0, 99, 82
2, 164399, Note_on_c, 0, 93, 74
2, 164403, Note_on_c, 0, 99, 0
2, 164479, Note_on_c, 0, 93, 0
2, 164479, Note_on_c, 0, 100, 84
2, 164559, Note_on_c, 0, 100, 0
2, 164563, Note_on_c, 0, 95, 78
2, 164640, Note_on_c, 0, 99, 86
2, 164643, Note_on_c, 0, 95, 0
2, 164719, Note_on_c, 0, 93, 78
2, 164720, Note_on_c, 0, 99, 0
2, 164799, Note_on_c, 0, 93, 0
2, 164803, Note_on_c, 0, 100, 88
2, 164882, Note_on_c, 0, 95, 80
2, 164883, Note_on_c, 0, 100, 0
2, 164960, Note_on_c, 0, 99, 89
2, 164962, Note_on_c, 0, 95, 0
2, 165040, Note_on_c, 0, 99, 0
2, 165040, Note_on_c, 0, 93, 81
2, 165120, Note_on_c, 0, 93, 0
2, 165121, Note_on_c, 0, 101, 89
2, 165201, Note_on_c, 0, 101, 0
2, 165201, Note_on_c, 0, 96, 82
2, 165281, Note_on_c, 0, 96, 0
2, 165283, Note_on_c, 0, 100, 89
2, 165362, Note_on_c, 0, 93, 82
2, 165363, Note_on_c, 0, 100, 0
2, 165442, Note_on_c, 0, 93, 0
2, 165442, Note_on_c, 0, 98, 79
2, 165520, Note_on_c, 0, 93, 72
2, 165522, Note_on_c, 0, 98, 0
2, 165600, Note_on_c, 0, 93, 0
2, 165601, Note_on_c, 0, 96, 79
2, 165681, Note_on_c, 0, 96, 0
2, 165683, Note_on_c, 0, 88, 75
2, 165761, Note_on_c, 0, 95, 79
2, 165763, Note_on_c, 0, 88, 0
2, 165839, Note_on_c, 0, 88, 75
2, 165841, Note_on_c, 0, 95, 0
2, 165919, Note_on_c, 0, 88, 0
2, 165920, Note_on_c, 0, 93, 79
2, 166000, Note_on_c, 0, 93, 0
2, 166001, Note_on_c, 0, 84, 72
2, 166081, Note_on_c, 0, 84, 0
2, 166082, Note_on_c, 0, 89, 79
2, 166160, Note_on_c, 0, 84, 73
2, 166162, Note_on_c, 0, 89, 0
2, 166240, Note_on_c, 0, 84, 0
2, 166242, Note_on_c, 0, 88, 79
2, 166319, Note_on_c, 0, 81, 72
2, 166322, Note_on_c, 0, 88, 0
2, 166398, Note_on_c, 0, 86, 79
2, 166399, Note_on_c, 0, 81, 0
2, 166478, Note_on_c, 0, 86, 0
2, 166478, Note_on_c, 0, 81, 73
2, 166558, Note_on_c, 0, 81, 0
2, 166558, Note_on_c, 0, 84, 79
2, 166638, Note_on_c, 0, 84, 0
2, 166640, Note_on_c, 0, 76, 72
2, 166719, Note_on_c, 0, 83, 79
2, 166720, Note_on_c, 0, 76, 0
2, 166799, Note_on_c, 0, 83, 0
2, 166801, Note_on_c, 0, 76, 72
2, 166881, Note_on_c, 0, 76, 0
2, 166883, Note_on_c, 0, 81, 79
2, 166959, Note_on_c, 0, 72, 72
2, 166963, Note_on_c, 0, 81, 0
2, 167039, Note_on_c, 0, 72, 0
2, 167042, Note_on_c, 0, 77, 79
2, 167121, Note_on_c, 0, 72, 72
2, 167122, Note_on_c, 0, 77, 0
2, 167201, Note_on_c, 0, 72, 0
2, 167203, Note_on_c, 0, 76, 79
2, 167278, Note_on_c, 0, 69, 72
2, 167283, Note_on_c, 0, 76, 0
2, 167358, Note_on_c, 0, 69, 0
2, 167359, Note_on_c, 0, 74, 79
2, 167439, Note_on_c, 0, 74, 0
2, 167440, Note_on_c, 0, 69, 72
2, 167520, Note_on_c, 0, 69, 0
2, 167522, Note_on_c, 0, 72, 79
2, 167602, Note_on_c, 0, 72, 0
2, 167602, Note_on_c, 0, 64, 73
2, 167678, Note_on_c, 0, 71, 79
2, 167682, Note_on_c, 0, 64, 0
2, 167758, Note_on_c, 0, 71, 0
2, 167760, Note_on_c, 0, 64, 72
2, 167840, Note_on_c, 0, 64, 0
2, 167840, Note_on_c, 0, 69, 79
2, 167920, Note_on_c, 0, 69, 0
2, 167923, Note_on_c, 0, 60, 72
2, 168000, Note_on_c, 0, 59, 81
2, 168000, Note_on_c, 0, 71, 96
2, 168000, Note_on_c, 0, 64, 81
2, 168000, Note_on_c, 0, 69, 96
2, 168003, Note_on_c, 0, 60, 0
2, 168480, Note_on_c, 0, 64, 0
2, 168480, Note_on_c, 0, 59, 0
2, 168480, Note_on_c, 0, 71, 0
2, 168480, Note_on_c, 0, 69, 0
2, 168480, Note_on_c, 0, 64, 81
2, 168480, Note_on_c, 0, 76, 96
2, 168480, Note_on_c, 0, 62, 81
2, 168480, Note_on_c, 0, 68, 96
2, 168480, Note_on_c, 0, 71, 96
2, 168958, Note_on_c, 0, 93, 100
2, 168960, Note_on_c, 0, 71, 0
2, 168960, Note_on_c, 0, 68, 0
2, 168960, Note_on_c, 0, 62, 0
2, 168960, Note_on_c, 0, 64, 0
2, 168960, Note_on_c, 0, 76, 0
2, 169032, Note_on_c, 0, 93, 0
2, 169042, Note_on_c, 0, 88, 82
2, 169122, Note_on_c, 0, 88, 0
2, 169122, Note_on_c, 0, 92, 93
2, 169201, Note_on_c, 0, 84, 84
2, 169202, Note_on_c, 0, 92, 0
2, 169281, Note_on_c, 0, 84, 0
2, 169281, Note_on_c, 0, 91, 93
2, 169360, Note_on_c, 0, 88, 82
2, 169361, Note_on_c, 0, 91, 0
2, 169438, Note_on_c, 0, 90, 93
2, 169440, Note_on_c, 0, 88, 0
2, 169518, Note_on_c, 0, 90, 0
2, 169518, Note_on_c, 0, 84, 83
2, 169598, Note_on_c, 0, 84, 0
2, 169602, Note_on_c, 0, 89, 93
2, 169678, Note_on_c, 0, 84, 83
2, 169682, Note_on_c, 0, 89, 0
2, 169758, Note_on_c, 0, 84, 0
2, 169759, Note_on_c, 0, 88, 93
2, 169839, Note_on_c, 0, 88, 0
2, 169839, Note_on_c, 0, 81, 83
2, 169918, Note_on_c, 0, 87, 93
2, 169919, Note_on_c, 0, 81, 0
2, 169998, Note_on_c, 0, 87, 0
2, 170001, Note_on_c, 0, 84, 82
2, 170079, Note_on_c, 0, 86, 93
2, 170081, Note_on_c, 0, 84, 0
2, 170159, Note_on_c, 0, 86, 0
2, 170162, Note_on_c, 0, 81, 82
2, 170241, Note_on_c, 0, 85, 93
2, 170242, Note_on_c, 0, 81, 0
2, 170321, Note_on_c, 0, 85, 0
2, 170321, Note_on_c, 0, 81, 82
2, 170401, Note_on_c, 0, 81, 0
2, 170403, Note_on_c, 0, 84, 93
2, 170481, Note_on_c, 0, 76, 82
2, 170483, Note_on_c, 0, 84, 0
2, 170561, Note_on_c, 0, 76, 0
2, 170562, Note_on_c, 0, 83, 93
2, 170641, Note_on_c, 0, 76, 82
2, 170642, Note_on_c, 0, 83, 0
2, 170718, Note_on_c, 0, 82, 93
2, 170721, Note_on_c, 0, 76, 0
2, 170798, Note_on_c, 0, 82, 0
2, 170799, Note_on_c, 0, 72, 82
2, 170878, Note_on_c, 0, 81, 93
2, 170879, Note_on_c, 0, 72, 0
2, 170958, Note_on_c, 0, 81, 0
2, 170962, Note_on_c, 0, 76, 81
2, 171042, Note_on_c, 0, 76, 0
2, 171043, Note_on_c, 0, 80, 93
2, 171121, Note_on_c, 0, 72, 82
2, 171123, Note_on_c, 0, 80, 0
2, 171199, Note_on_c, 0, 79, 93
2, 171201, Note_on_c, 0, 72, 0
2, 171279, Note_on_c, 0, 79, 0
2, 171280, Note_on_c, 0, 76, 82
2, 171358, Note_on_c, 0, 78, 93
2, 171360, Note_on_c, 0, 76, 0
2, 171438, Note_on_c, 0, 78, 0
2, 171441, Note_on_c, 0, 72, 82
2, 171519, Note_on_c, 0, 77, 93
2, 171521, Note_on_c, 0, 72, 0
2, 171599, Note_on_c, 0, 77, 0
2, 171601, Note_on_c, 0, 72, 82
2, 171680, Note_on_c, 0, 76, 93
2, 171681, Note_on_c, 0, 72, 0
2, 171760, Note_on_c, 0, 76, 0
2, 171761, Note_on_c, 0, 69, 82
2, 171841, Note_on_c, 0, 69, 0
2, 171842, Note_on_c, 0, 75, 93
2, 171922, Note_on_c, 0, 75, 0
2, 171922, Note_on_c, 0, 72, 82
2, 172002, Note_on_c, 0, 72, 0
2, 172002, Note_on_c, 0, 74, 93
2, 172081, Note_on_c, 0, 69, 82
2, 172082, Note_on_c, 0, 74, 0
2, 172158, Note_on_c, 0, 73, 93
2, 172161, Note_on_c, 0, 69, 0
2, 172238, Note_on_c, 0, 73, 0
2, 172243, Note_on_c, 0, 69, 82
2, 172322, Note_on_c, 0, 72, 93
2, 172323, Note_on_c, 0, 69, 0
2, 172398, Note_on_c, 0, 64, 80
2, 172402, Note_on_c, 0, 72, 0
2, 172478, Note_on_c, 0, 64, 0
2, 172479, Note_on_c, 0, 71, 92
2, 172559, Note_on_c, 0, 71, 0
2, 172560, Note_on_c, 0, 64, 79
2, 172638, Note_on_c, 0, 70, 90
2, 172640, Note_on_c, 0, 64, 0
2, 172718, Note_on_c, 0, 70, 0
2, 172723, Note_on_c, 0, 60, 79
2, 172800, Note_on_c, 0, 69, 89
2, 172803, Note_on_c, 0, 60, 0
2, 172880, Note_on_c, 0, 69, 0
2, 172882, Note_on_c, 0, 64, 77
2, 172961, Note_on_c, 0, 68, 88
2, 172962, Note_on_c, 0, 64, 0
2, 173041, Note_on_c, 0, 68, 0
2, 173042, Note_on_c, 0, 60, 77
2, 173121, Note_on_c, 0, 67, 86
2, 173122, Note_on_c, 0, 60, 0
2, 173201, Note_on_c, 0, 67, 0
2, 173203, Note_on_c, 0, 64, 75
2, 173279, Note_on_c, 0, 66, 85
2, 173283, Note_on_c, 0, 64, 0
2, 173359, Note_on_c, 0, 66, 0
2, 173363, Note_on_c, 0, 60, 74
2, 173443, Note_on_c, 0, 60, 0
2, 173443, Note_on_c, 0, 65, 84
2, 173520, Note_on_c, 0, 60, 73
2, 173523, Note_on_c, 0, 65, 0
2, 173598, Note_on_c, 0, 64, 81
2, 173600, Note_on_c, 0, 60, 0
2, 173678, Note_on_c, 0, 64, 0
2, 173678, Note_on_c, 0, 57, 72
2, 173758, Note_on_c, 0, 57, 0
2, 173763, Note_on_c, 0, 63, 79
2, 173843, Note_on_c, 0, 63, 0
2, 173843, Note_on_c, 0, 60, 70
2, 173921, Note_on_c, 0, 62, 78
2, 173923, Note_on_c, 0, 60, 0
2, 173998, Note_on_c, 0, 57, 68
2, 174001, Note_on_c, 0, 62, 0
2, 174078, Note_on_c, 0, 57, 0
2, 174078, Note_on_c, 0, 61, 75
2, 174158, Note_on_c, 0, 61, 0
2, 174159, Note_on_c, 0, 57, 67
2, 174239, Note_on_c, 0, 57, 0
2, 174240, Note_on_c, 0, 60, 74
2, 174320, Note_on_c, 0, 60, 0
2, 174320, Note_on_c, 0, 52, 63
2, 174400, Note_on_c, 0, 52, 0
2, 174402, Note_on_c, 0, 59, 72
2, 174482, Note_on_c, 0, 59, 0
2, 174482, Note_on_c, 0, 52, 60
2, 174561, Note_on_c, 0, 58, 68
2, 174562, Note_on_c, 0, 52, 0
2, 174641, Note_on_c, 0, 58, 0
2, 174643, Note_on_c, 0, 48, 58
2, 174721, Note_on_c, 0, 57, 100
2, 174723, Note_on_c, 0, 48, 0
2, 174801, Note_on_c, 0, 57, 0
2, 174803, Note_on_c, 0, 52, 89
2, 174879, Note_on_c, 0, 56, 100
2, 174883, Note_on_c, 0, 52, 0
2, 174959, Note_on_c, 0, 56, 0
2, 174959, Note_on_c, 0, 48, 91
2, 175039, Note_on_c, 0, 48, 0
2, 175039, Note_on_c, 0, 55, 100
2, 175119, Note_on_c, 0, 55, 0
2, 175120, Note_on_c, 0, 52, 89
2, 175199, Note_on_c, 0, 54, 100
2, 175200, Note_on_c, 0, 52, 0
2, 175279, Note_on_c, 0, 54, 0
2, 175279, Note_on_c, 0, 48, 90
2, 175359, Note_on_c, 0, 48, 0
2, 175363, Note_on_c, 0, 53, 100
2, 175442, Note_on_c, 0, 48, 90
2, 175443, Note_on_c, 0, 53, 0
2, 175522, Note_on_c, 0, 48, 0
2, 175523, Note_on_c, 0, 52, 100
2, 175600, Note_on_c, 0, 45, 90
2, 175603, Note_on_c, 0, 52, 0
2, 175680, Note_on_c, 0, 45, 0
2, 175680, Note_on_c, 0, 51, 100
2, 175760, Note_on_c, 0, 51, 0
2, 175763, Note_on_c, 0, 48, 88
2, 175838, Note_on_c, 0, 50, 100
2, 175843, Note_on_c, 0, 48, 0
2, 175918, Note_on_c, 0, 50, 0
2, 175922, Note_on_c, 0, 45, 88
2, 175999, Note_on_c, 0, 49, 100
2, 176002, Note_on_c, 0, 45, 0
2, 176079, Note_on_c, 0, 49, 0
2, 176081, Note_on_c, 0, 45, 88
2, 176159, Note_on_c, 0, 48, 100
2, 176161, Note_on_c, 0, 45, 0
2, 176239, Note_on_c, 0, 48, 0
2, 176242, Note_on_c, 0, 40, 88
2, 176319, Note_on_c, 0, 47, 100
2, 176322, Note_on_c, 0, 40, 0
2, 176399, Note_on_c, 0, 47, 0
2, 176399, Note_on_c, 0, 40, 88
2, 176479, Note_on_c, 0, 40, 0
2, 176483, Note_on_c, 0, 46, 100
2, 176560, Note_on_c, 0, 40, 88
2, 176563, Note_on_c, 0, 46, 0
2, 176640, Note_on_c, 0, 40, 0
2, 176640, Note_on_c, 0, 45, 121
2, 177120, Note_on_c, 0, 45, 0
2, 177120, Note_on_c, 0, 57, 85
2, 177120, Note_on_c, 0, 60, 85
2, 177120, Note_on_c, 0, 69, 101
2, 177120, Note_on_c, 0, 64, 101
2, 177480, Note_on_c, 0, 64, 0
2, 177480, Note_on_c, 0, 57, 0
2, 177480, Note_on_c, 0, 60, 0
2, 177480, Note_on_c, 0, 69, 0
2, 177480, Note_on_c, 0, 57, 81
2, 177480, Note_on_c, 0, 64, 96
2, 177480, Note_on_c, 0, 60, 81
2, 177480, Note_on_c, 0, 69, 96
2, 177600, Note_on_c, 0, 69, 0
2, 177600, Note_on_c, 0, 57, 0
2, 177600, Note_on_c, 0, 64, 0
2, 177600, Note_on_c, 0, 60, 0
2, 177600, Note_on_c, 0, 57, 85
2, 177600, Note_on_c, 0, 64, 101
2, 177600, Note_on_c, 0, 60, 85
2, 177600, Note_on_c, 0, 69, 101
2, 178080, Note_on_c, 0, 69, 0
2, 178080, Note_on_c, 0, 57, 0
2, 178080, Note_on_c, 0, 64, 0
2, 178080, Note_on_c, 0, 60, 0
2, 178080, Note_on_c, 0, 57, 82
2, 178080, Note_on_c, 0, 65, 97
2, 178080, Note_on_c, 0, 62, 82
2, 178080, Note_on_c, 0, 69, 97
2, 178560, Note_on_c, 0, 69, 0
2, 178560, Note_on_c, 0, 57, 0
2, 178560, Note_on_c, 0, 65, 0
2, 178560, Note_on_c, 0, 62, 0
2, 178560, Note_on_c, 0, 57, 85
2, 178560, Note_on_c, 0, 64, 101
2, 178560, Note_on_c, 0, 60, 85
2, 178560, Note_on_c, 0, 69, 101
2, 179520, Note_on_c, 0, 69, 0
2, 179520, Note_on_c, 0, 57, 0
2, 179520, Note_on_c, 0, 64, 0
2, 179520, Note_on_c, 0, 60, 0
2, 179520, Note_on_c, 0, 57, 84
2, 179520, Note_on_c, 0, 62, 99
2, 179520, Note_on_c, 0, 59, 84
2, 179520, Note_on_c, 0, 69, 99
2, 180480, Note_on_c, 0, 69, 0
2, 180480, Note_on_c, 0, 57, 0
2, 180480, Note_on_c, 0, 62, 0
2, 180480, Note_on_c, 0, 59, 0
2, 180480, Note_on_c, 0, 57, 85
2, 180480, Note_on_c, 0, 64, 101
2, 180480, Note_on_c, 0, 60, 85
2, 180480, Note_on_c, 0, 69, 101
2, 181439, Note_on_c, 0, 45, 70
2, 181558, Note_on_c, 0, 47, 72
2, 181583, Note_on_c, 0, 45, 0
2, 181682, Note_on_c, 0, 48, 72
2, 181702, Note_on_c, 0, 47, 0
2, 181802, Note_on_c, 0, 50, 73
2, 181826, Note_on_c, 0, 48, 0
2, 181921, Note_on_c, 0, 52, 74
2, 181946, Note_on_c, 0, 50, 0
2, 182041, Note_on_c, 0, 54, 74
2, 182065, Note_on_c, 0, 52, 0
2, 182163, Note_on_c, 0, 56, 74
2, 182185, Note_on_c, 0, 54, 0
2, 182283, Note_on_c, 0, 57, 74
2, 182307, Note_on_c, 0, 56, 0
2, 182401, Note_on_c, 0, 59, 75
2, 182427, Note_on_c, 0, 57, 0
2, 182521, Note_on_c, 0, 60, 78
2, 182545, Note_on_c, 0, 59, 0
2, 182641, Note_on_c, 0, 62, 78
2, 182665, Note_on_c, 0, 60, 0
2, 182758, Note_on_c, 0, 64, 79
2, 182785, Note_on_c, 0, 62, 0
2, 182882, Note_on_c, 0, 66, 80
2, 182902, Note_on_c, 0, 64, 0
2, 183003, Note_on_c, 0, 68, 80
2, 183026, Note_on_c, 0, 66, 0
2, 183121, Note_on_c, 0, 69, 81
2, 183147, Note_on_c, 0, 68, 0
2, 183239, Note_on_c, 0, 71, 81
2, 183265, Note_on_c, 0, 69, 0
2, 183358, Note_on_c, 0, 72, 81
2, 183383, Note_on_c, 0, 71, 0
2, 183483, Note_on_c, 0, 74, 82
2, 183502, Note_on_c, 0, 72, 0
2, 183602, Note_on_c, 0, 76, 84
2, 183627, Note_on_c, 0, 74, 0
2, 183718, Note_on_c, 0, 78, 84
2, 183746, Note_on_c, 0, 76, 0
2, 183838, Note_on_c, 0, 80, 85
2, 183862, Note_on_c, 0, 78, 0
2, 183963, Note_on_c, 0, 81, 85
2, 183982, Note_on_c, 0, 80, 0
2, 184080, Note_on_c, 0, 83, 86
2, 184107, Note_on_c, 0, 81, 0
2, 184202, Note_on_c, 0, 84, 88
2, 184224, Note_on_c, 0, 83, 0
2, 184318, Note_on_c, 0, 86, 88
2, 184346, Note_on_c, 0, 84, 0
2, 184439, Note_on_c, 0, 88, 89
2, 184462, Note_on_c, 0, 86, 0
2, 184558, Note_on_c, 0, 90, 90
2, 184583, Note_on_c, 0, 88, 0
2, 184678, Note_on_c, 0, 92, 90
2, 184702, Note_on_c, 0, 90, 0
2, 184800, Note_on_c, 0, 69, 0
2, 184800, Note_on_c, 0, 60, 0
2, 184800, Note_on_c, 0, 57, 0
2, 184800, Note_on_c, 0, 64, 0
2, 184800, Note_on_c, 0, 93, 97
2, 184822, Note_on_c, 0, 92, 0
2, 185040, Note_on_c, 0, 93, 0
2, 185040, End_track
3, 0, Start_track
3, 0, Title_t, "Piano left"
3, 0, Program_c, 0, 0
3, 0, Control_c, 0, 7, 100
3, 0, Control_c, 0, 10, 64
3, 0, Control_c, 0, 64, 0
3, 0, Control_c, 0, 91, 127
3, 3840, Note_on_c, 0, 48, 24
3, 4320, Note_on_c, 0, 48, 0
3, 4320, Note_on_c, 0, 48, 24
3, 4680, Note_on_c, 0, 48, 0
3, 4680, Note_on_c, 0, 48, 22
3, 4800, Note_on_c, 0, 48, 0
3, 4800, Note_on_c, 0, 48, 25
3, 5280, Note_on_c, 0, 48, 0
3, 5280, Note_on_c, 0, 41, 24
3, 5760, Note_on_c, 0, 41, 0
3, 5760, Note_on_c, 0, 36, 24
3, 6240, Note_on_c, 0, 36, 0
3, 6240, Note_on_c, 0, 41, 22
3, 6720, Note_on_c, 0, 41, 0
3, 6720, Note_on_c, 0, 36, 20
3, 7200, Note_on_c, 0, 36, 0
3, 7200, Note_on_c, 0, 35, 18
3, 7680, Note_on_c, 0, 35, 0
3, 7680, Note_on_c, 0, 33, 112
3, 7726, Control_c, 0, 64, 127
3, 7920, Note_on_c, 0, 33, 0
3, 8160, Note_on_c, 0, 64, 88
3, 8160, Note_on_c, 0, 60, 74
3, 8160, Note_on_c, 0, 57, 74
3, 8520, Note_on_c, 0, 57, 0
3, 8520, Note_on_c, 0, 60, 0
3, 8520, Note_on_c, 0, 64, 0
3, 8520, Note_on_c, 0, 57, 70
3, 8520, Note_on_c, 0, 60, 70
3, 8520, Note_on_c, 0, 64, 82
3, 8640, Note_on_c, 0, 64, 0
3, 8640, Note_on_c, 0, 60, 0
3, 8640, Note_on_c, 0, 57, 0
3, 8640, Note_on_c, 0, 64, 88
3, 8640, Note_on_c, 0, 60, 74
3, 8640, Note_on_c, 0, 57, 74
3, 9120, Note_on_c, 0, 57, 0
3, 9120, Note_on_c, 0, 60, 0
3, 9120, Note_on_c, 0, 64, 0
3, 9120, Note_on_c, 0, 57, 77
3, 9120, Note_on_c, 0, 60, 77
3, 9120, Note_on_c, 0, 65, 92
3, 9128, Control_c, 0, 64, 0
3, 9600, Note_on_c, 0, 65, 0
3, 9600, Note_on_c, 0, 60, 0
3, 9600, Note_on_c, 0, 57, 0
3, 9600, Note_on_c, 0, 57, 74
3, 9600, Note_on_c, 0, 60, 74
3, 9600, Note_on_c, 0, 64, 88
3, 10080, Note_on_c, 0, 64, 0
3, 10080, Note_on_c, 0, 60, 0
3, 10080, Note_on_c, 0, 57, 0
3, 10080, Note_on_c, 0, 52, 70
3, 10080, Note_on_c, 0, 57, 70
3, 10080, Note_on_c, 0, 60, 82
3, 10560, Note_on_c, 0, 60, 0
3, 10560, Note_on_c, 0, 57, 0
3, 10560, Note_on_c, 0, 52, 0
3, 10560, Note_on_c, 0, 57, 70
3, 10560, Note_on_c, 0, 60, 70
3, 10560, Note_on_c, 0, 64, 82
3, 11520, Note_on_c, 0, 64, 0
3, 11520, Note_on_c, 0, 60, 0
3, 11520, Note_on_c, 0, 57, 0
3, 11520, Note_on_c, 0, 33, 99
3, 11557, Control_c, 0, 64, 127
3, 11760, Note_on_c, 0, 33, 0
3, 12000, Note_on_c, 0, 45, 58
3, 12000, Note_on_c, 0, 52, 69
3, 12360, Note_on_c, 0, 52, 0
3, 12360, Note_on_c, 0, 45, 0
3, 12360, Note_on_c, 0, 45, 50
3, 12360, Note_on_c, 0, 52, 61
3, 12480, Note_on_c, 0, 52, 0
3, 12480, Note_on_c, 0, 45, 0
3, 12480, Note_on_c, 0, 45, 60
3, 12480, Note_on_c, 0, 52, 70
3, 12960, Note_on_c, 0, 52, 0
3, 12960, Note_on_c, 0, 45, 0
3, 12960, Note_on_c, 0, 45, 52
3, 12960, Note_on_c, 0, 53, 62
3, 12969, Control_c, 0, 64, 0
3, 13440, Note_on_c, 0, 53, 0
3, 13440, Note_on_c, 0, 45, 0
3, 13440, Note_on_c, 0, 45, 55
3, 13440, Note_on_c, 0, 52, 63
3, 13920, Note_on_c, 0, 52, 0
3, 13920, Note_on_c, 0, 45, 0
3, 13920, Note_on_c, 0, 33, 60
3, 14400, Note_on_c, 0, 40, 68
3, 15360, Note_on_c, 0, 40, 0
3, 15360, Note_on_c, 0, 33, 0
3, 15360, Note_on_c, 0, 32, 99
3, 15392, Control_c, 0, 64, 127
3, 15600, Note_on_c, 0, 32, 0
3, 15840, Note_on_c, 0, 53, 66
3, 15840, Note_on_c, 0, 62, 77
3, 15851, Control_c, 0, 64, 0
3, 15897, Control_c, 0, 64, 127
3, 16200, Note_on_c, 0, 62, 0
3, 16200, Note_on_c, 0, 53, 0
3, 16200, Note_on_c, 0, 53, 61
3, 16200, Note_on_c, 0, 62, 73
3, 16320, Note_on_c, 0, 62, 0
3, 16320, Note_on_c, 0, 53, 0
3, 16320, Note_on_c, 0, 53, 66
3, 16320, Note_on_c, 0, 60, 77
3, 16331, Control_c, 0, 64, 0
3, 16800, Note_on_c, 0, 60, 0
3, 16800, Note_on_c, 0, 53, 0
3, 16800, Note_on_c, 0, 33, 70
3, 16800, Note_on_c, 0, 45, 84
3, 17280, Note_on_c, 0, 45, 0
3, 17280, Note_on_c, 0, 33, 0
3, 17280, Note_on_c, 0, 32, 73
3, 17280, Note_on_c, 0, 44, 86
3, 17315, Control_c, 0, 64, 127
3, 17520, Note_on_c, 0, 44, 0
3, 17520, Note_on_c, 0, 32, 0
3, 17760, Note_on_c, 0, 55, 77
3, 17760, Note_on_c, 0, 62, 66
3, 17778, Control_c, 0, 64, 0
3, 17831, Control_c, 0, 64, 127
3, 17920, Note_on_c, 0, 62, 0
3, 17920, Note_on_c, 0, 55, 0
3, 17920, Note_on_c, 0, 53, 72
3, 17920, Note_on_c, 0, 62, 60
3, 18080, Note_on_c, 0, 62, 0
3, 18080, Note_on_c, 0, 53, 0
3, 18080, Note_on_c, 0, 52, 73
3, 18080, Note_on_c, 0, 62, 61
3, 18240, Note_on_c, 0, 62, 0
3, 18240, Note_on_c, 0, 52, 0
3, 18240, Note_on_c, 0, 52, 77
3, 18240, Note_on_c, 0, 60, 66
3, 18259, Control_c, 0, 64, 0
3, 18720, Note_on_c, 0, 60, 0
3, 18720, Note_on_c, 0, 52, 0
3, 18720, Note_on_c, 0, 33, 68
3, 18720, Note_on_c, 0, 45, 81
3, 19200, Note_on_c, 0, 45, 0
3, 19200, Note_on_c, 0, 33, 0
3, 19200, Note_on_c, 0, 35, 66
3, 19200, Note_on_c, 0, 47, 77
3, 19231, Control_c, 0, 64, 127
3, 19440, Note_on_c, 0, 47, 0
3, 19440, Note_on_c, 0, 35, 0
3, 19680, Note_on_c, 0, 56, 60
3, 19680, Note_on_c, 0, 59, 60
3, 19680, Note_on_c, 0, 64, 70
3, 19690, Control_c, 0, 64, 0
3, 19735, Control_c, 0, 64, 127
3, 19840, Note_on_c, 0, 64, 0
3, 19840, Note_on_c, 0, 68, 66
3, 20000, Note_on_c, 0, 68, 0
3, 20000, Note_on_c, 0, 73, 70
3, 20160, Note_on_c, 0, 73, 0
3, 20160, Note_on_c, 0, 59, 0
3, 20160, Note_on_c, 0, 56, 0
3, 20160, Note_on_c, 0, 59, 60
3, 20160, Note_on_c, 0, 63, 60
3, 20160, Note_on_c, 0, 71, 70
3, 20160, Note_on_c, 0, 69, 70
3, 20166, Control_c, 0, 64, 0
3, 20235, Control_c, 0, 64, 127
3, 20640, Note_on_c, 0, 69, 0
3, 20640, Note_on_c, 0, 59, 0
3, 20640, Note_on_c, 0, 63, 0
3, 20640, Note_on_c, 0, 71, 0
3, 20640, Note_on_c, 0, 47, 66
3, 20640, Note_on_c, 0, 59, 77
3, 21120, Note_on_c, 0, 59, 0
3, 21120, Note_on_c, 0, 47, 0
3, 21120, Note_on_c, 0, 40, 66
3, 21120, Note_on_c, 0, 52, 77
3, 21129, Control_c, 0, 64, 0
3, 21192, Control_c, 0, 64, 127
3, 21360, Note_on_c, 0, 52, 0
3, 21360, Note_on_c, 0, 40, 0
3, 21600, Note_on_c, 0, 68, 67
3, 21600, Note_on_c, 0, 59, 56
3, 21760, Note_on_c, 0, 59, 0
3, 21760, Note_on_c, 0, 68, 0
3, 21760, Note_on_c, 0, 67, 58
3, 21760, Note_on_c, 0, 58, 49
3, 21920, Note_on_c, 0, 58, 0
3, 21920, Note_on_c, 0, 67, 0
3, 21920, Note_on_c, 0, 68, 63
3, 21920, Note_on_c, 0, 59, 55
3, 22080, Note_on_c, 0, 59, 0
3, 22080, Note_on_c, 0, 68, 0
3, 22080, Note_on_c, 0, 52, 63
3, 22080, Note_on_c, 0, 56, 63
3, 22080, Note_on_c, 0, 64, 72
3, 22088, Control_c, 0, 64, 0
3, 22140, Control_c, 0, 64, 127
3, 22320, Note_on_c, 0, 64, 0
3, 22320, Note_on_c, 0, 56, 0
3, 22320, Note_on_c, 0, 52, 0
3, 22374, Control_c, 0, 64, 0
3, 23040, Note_on_c, 0, 33, 100
3, 23086, Control_c, 0, 64, 127
3, 23280, Note_on_c, 0, 33, 0
3, 23520, Note_on_c, 0, 64, 84
3, 23520, Note_on_c, 0, 60, 70
3, 23520, Note_on_c, 0, 57, 70
3, 23880, Note_on_c, 0, 57, 0
3, 23880, Note_on_c, 0, 60, 0
3, 23880, Note_on_c, 0, 64, 0
3, 23880, Note_on_c, 0, 57, 67
3, 23880, Note_on_c, 0, 60, 67
3, 23880, Note_on_c, 0, 64, 79
3, 24000, Note_on_c, 0, 64, 0
3, 24000, Note_on_c, 0, 60, 0
3, 24000, Note_on_c, 0, 57, 0
3, 24000, Note_on_c, 0, 64, 84
3, 24000, Note_on_c, 0, 60, 70
3, 24000, Note_on_c, 0, 57, 70
3, 24480, Note_on_c, 0, 57, 0
3, 24480, Note_on_c, 0, 60, 0
3, 24480, Note_on_c, 0, 64, 0
3, 24480, Note_on_c, 0, 57, 74
3, 24480, Note_on_c, 0, 60, 74
3, 24480, Note_on_c, 0, 65, 88
3, 24489, Control_c, 0, 64, 0
3, 24960, Note_on_c, 0, 65, 0
3, 24960, Note_on_c, 0, 60, 0
3, 24960, Note_on_c, 0, 57, 0
3, 24960, Note_on_c, 0, 57, 70
3, 24960, Note_on_c, 0, 60, 70
3, 24960, Note_on_c, 0, 64, 84
3, 25440, Note_on_c, 0, 64, 0
3, 25440, Note_on_c, 0, 60, 0
3, 25440, Note_on_c, 0, 57, 0
3, 25440, Note_on_c, 0, 52, 67
3, 25440, Note_on_c, 0, 57, 67
3, 25440, Note_on_c, 0, 60, 79
3, 25920, Note_on_c, 0, 60, 0
3, 25920, Note_on_c, 0, 57, 0
3, 25920, Note_on_c, 0, 52, 0
3, 25920, Note_on_c, 0, 57, 67
3, 25920, Note_on_c, 0, 60, 67
3, 25920, Note_on_c, 0, 64, 79
3, 26880, Note_on_c, 0, 64, 0
3, 26880, Note_on_c, 0, 60, 0
3, 26880, Note_on_c, 0, 57, 0
3, 26880, Note_on_c, 0, 24, 70
3, 26880, Note_on_c, 0, 36, 80
3, 26926, Control_c, 0, 64, 127
3, 27120, Note_on_c, 0, 36, 0
3, 27120, Note_on_c, 0, 24, 0
3, 27360, Note_on_c, 0, 43, 58
3, 27360, Note_on_c, 0, 52, 69
3, 27720, Note_on_c, 0, 52, 0
3, 27720, Note_on_c, 0, 43, 0
3, 27720, Note_on_c, 0, 43, 50
3, 27720, Note_on_c, 0, 52, 61
3, 27840, Note_on_c, 0, 52, 0
3, 27840, Note_on_c, 0, 43, 0
3, 27840, Note_on_c, 0, 43, 60
3, 27840, Note_on_c, 0, 52, 70
3, 28320, Note_on_c, 0, 52, 0
3, 28320, Note_on_c, 0, 43, 0
3, 28320, Note_on_c, 0, 43, 52
3, 28320, Note_on_c, 0, 53, 62
3, 28332, Control_c, 0, 64, 0
3, 28800, Note_on_c, 0, 53, 0
3, 28800, Note_on_c, 0, 43, 0
3, 28800, Note_on_c, 0, 43, 49
3, 28800, Note_on_c, 0, 52, 58
3, 29280, Note_on_c, 0, 52, 0
3, 29280, Note_on_c, 0, 43, 0
3, 29280, Note_on_c, 0, 48, 58
3, 29280, Note_on_c, 0, 36, 55
3, 29760, Note_on_c, 0, 48, 0
3, 29760, Note_on_c, 0, 52, 58
3, 29760, Note_on_c, 0, 43, 49
3, 30720, Note_on_c, 0, 43, 0
3, 30720, Note_on_c, 0, 52, 0
3, 30720, Note_on_c, 0, 36, 0
3, 30720, Note_on_c, 0, 36, 74
3, 30746, Control_c, 0, 64, 127
3, 30960, Note_on_c, 0, 36, 0
3, 31200, Note_on_c, 0, 64, 55
3, 31200, Note_on_c, 0, 58, 55
3, 31200, Note_on_c, 0, 55, 61
3, 31208, Control_c, 0, 64, 0
3, 31243, Control_c, 0, 64, 127
3, 31360, Note_on_c, 0, 55, 0
3, 31360, Note_on_c, 0, 58, 0
3, 31360, Note_on_c, 0, 64, 0
3, 31360, Note_on_c, 0, 47, 62
3, 31520, Note_on_c, 0, 47, 0
3, 31520, Note_on_c, 0, 48, 63
3, 31680, Note_on_c, 0, 48, 0
3, 31680, Control_c, 0, 64, 0
3, 31680, Note_on_c, 0, 49, 69
3, 31680, Note_on_c, 0, 63, 58
3, 31680, Note_on_c, 0, 58, 58
3, 31680, Note_on_c, 0, 55, 58
3, 31749, Control_c, 0, 64, 127
3, 32160, Note_on_c, 0, 55, 0
3, 32160, Note_on_c, 0, 49, 0
3, 32160, Note_on_c, 0, 63, 0
3, 32160, Note_on_c, 0, 58, 0
3, 32160, Note_on_c, 0, 37, 60
3, 32160, Note_on_c, 0, 49, 72
3, 32175, Control_c, 0, 64, 0
3, 32226, Control_c, 0, 64, 127
3, 32640, Note_on_c, 0, 49, 0
3, 32640, Note_on_c, 0, 37, 0
3, 32640, Note_on_c, 0, 38, 66
3, 32640, Note_on_c, 0, 50, 77
3, 32646, Control_c, 0, 64, 0
3, 32729, Control_c, 0, 64, 127
3, 32880, Note_on_c, 0, 50, 0
3, 32880, Note_on_c, 0, 38, 0
3, 33120, Note_on_c, 0, 64, 55
3, 33120, Note_on_c, 0, 58, 55
3, 33120, Note_on_c, 0, 55, 63
3, 33132, Control_c, 0, 64, 0
3, 33177, Control_c, 0, 64, 127
3, 33280, Note_on_c, 0, 55, 0
3, 33280, Note_on_c, 0, 58, 0
3, 33280, Note_on_c, 0, 64, 0
3, 33280, Note_on_c, 0, 47, 63
3, 33440, Note_on_c, 0, 47, 0
3, 33440, Note_on_c, 0, 49, 63
3, 33555, Note_on_c, 0, 51, 70
3, 33560, Note_on_c, 0, 49, 0
3, 33570, Note_on_c, 0, 55, 70
3, 33585, Note_on_c, 0, 58, 58
3, 33600, Note_on_c, 0, 63, 58
3, 33609, Control_c, 0, 64, 0
3, 33672, Control_c, 0, 64, 127
3, 34080, Note_on_c, 0, 63, 0
3, 34080, Note_on_c, 0, 51, 0
3, 34080, Note_on_c, 0, 55, 0
3, 34080, Note_on_c, 0, 58, 0
3, 34080, Note_on_c, 0, 39, 60
3, 34080, Note_on_c, 0, 51, 72
3, 34097, Control_c, 0, 64, 0
3, 34160, Control_c, 0, 64, 127
3, 34560, Note_on_c, 0, 51, 0
3, 34560, Note_on_c, 0, 39, 0
3, 34560, Note_on_c, 0, 40, 80
3, 34560, Note_on_c, 0, 52, 80
3, 34570, Control_c, 0, 64, 0
3, 34632, Control_c, 0, 64, 127
3, 34800, Note_on_c, 0, 52, 0
3, 34800, Note_on_c, 0, 40, 0
3, 35040, Note_on_c, 0, 60, 88
3, 35046, Control_c, 0, 64, 0
3, 35109, Control_c, 0, 64, 127
3, 35400, Note_on_c, 0, 60, 0
3, 35400, Note_on_c, 0, 60, 79
3, 35520, Note_on_c, 0, 60, 0
3, 35520, Note_on_c, 0, 60, 88
3, 36000, Note_on_c, 0, 60, 0
3, 36000, Note_on_c, 0, 36, 55
3, 36000, Note_on_c, 0, 48, 63
3, 36480, Note_on_c, 0, 48, 0
3, 36480, Note_on_c, 0, 36, 0
3, 36480, Note_on_c, 0, 41, 58
3, 36480, Note_on_c, 0, 53, 70
3, 36483, Control_c, 0, 64, 0
3, 36557, Control_c, 0, 64, 127
3, 36720, Note_on_c, 0, 53, 0
3, 36720, Note_on_c, 0, 41, 0
3, 36960, Note_on_c, 0, 69, 74
3, 37320, Note_on_c, 0, 69, 0
3, 37320, Note_on_c, 0, 57, 67
3, 37440, Note_on_c, 0, 62, 70
3, 37440, Note_on_c, 0, 53, 70
3, 37455, Control_c, 0, 64, 0
3, 37800, Note_on_c, 0, 62, 0
3, 37800, Note_on_c, 0, 64, 67
3, 37920, Note_on_c, 0, 64, 0
3, 37920, Note_on_c, 0, 65, 70
3, 38400, Note_on_c, 0, 65, 0
3, 38400, Note_on_c, 0, 53, 0
3, 38400, Note_on_c, 0, 57, 0
3, 38400, Note_on_c, 0, 31, 77
3, 38400, Note_on_c, 0, 43, 77
3, 38450, Control_c, 0, 64, 127
3, 38640, Note_on_c, 0, 43, 0
3, 38640, Note_on_c, 0, 31, 0
3, 38880, Note_on_c, 0, 55, 70
3, 38880, Note_on_c, 0, 59, 70
3, 39040, Note_on_c, 0, 59, 0
3, 39040, Note_on_c, 0, 65, 63
3, 39200, Note_on_c, 0, 65, 0
3, 39200, Note_on_c, 0, 69, 63
3, 39360, Note_on_c, 0, 69, 0
3, 39360, Note_on_c, 0, 55, 0
3, 39360, Note_on_c, 0, 67, 70
3, 39840, Note_on_c, 0, 67, 0
3, 39840, Note_on_c, 0, 55, 68
3, 39840, Note_on_c, 0, 59, 68
3, 39840, Note_on_c, 0, 65, 68
3, 40320, Note_on_c, 0, 65, 0
3, 40320, Note_on_c, 0, 59, 0
3, 40320, Note_on_c, 0, 55, 0
3, 40320, Note_on_c, 0, 36, 72
3, 40320, Note_on_c, 0, 48, 72
3, 40335, Control_c, 0, 64, 0
3, 40369, Control_c, 0, 64, 127
3, 40560, Note_on_c, 0, 48, 0
3, 40560, Note_on_c, 0, 36, 0
3, 40680, Note_on_c, 0, 48, 55
3, 40740, Note_on_c, 0, 55, 55
3, 40800, Note_on_c, 0, 64, 63
3, 41280, Note_on_c, 0, 64, 0
3, 41280, Note_on_c, 0, 55, 0
3, 41280, Note_on_c, 0, 48, 0
3, 42240, Note_on_c, 0, 40, 90
3, 42240, Note_on_c, 0, 28, 90
3, 42247, Control_c, 0, 64, 0
3, 42306, Control_c, 0, 64, 127
3, 42480, Note_on_c, 0, 28, 0
3, 42480, Note_on_c, 0, 40, 0
3, 42720, Note_on_c, 0, 59, 77
3, 42720, Note_on_c, 0, 55, 66
3, 42720, Note_on_c, 0, 52, 66
3, 43080, Note_on_c, 0, 52, 0
3, 43080, Note_on_c, 0, 55, 0
3, 43080, Note_on_c, 0, 59, 0
3, 43080, Note_on_c, 0, 52, 60
3, 43080, Note_on_c, 0, 55, 60
3, 43080, Note_on_c, 0, 59, 72
3, 43200, Note_on_c, 0, 59, 0
3, 43200, Note_on_c, 0, 55, 0
3, 43200, Note_on_c, 0, 52, 0
3, 43200, Note_on_c, 0, 59, 77
3, 43200, Note_on_c, 0, 55, 66
3, 43200, Note_on_c, 0, 52, 66
3, 43680, Note_on_c, 0, 52, 0
3, 43680, Note_on_c, 0, 55, 0
3, 43680, Note_on_c, 0, 59, 0
3, 43680, Note_on_c, 0, 52, 67
3, 43680, Note_on_c, 0, 55, 67
3, 43680, Note_on_c, 0, 60, 80
3, 43692, Control_c, 0, 64, 0
3, 44160, Note_on_c, 0, 60, 0
3, 44160, Note_on_c, 0, 55, 0
3, 44160, Note_on_c, 0, 52, 0
3, 44160, Note_on_c, 0, 52, 66
3, 44160, Note_on_c, 0, 55, 66
3, 44160, Note_on_c, 0, 59, 77
3, 44640, Note_on_c, 0, 59, 0
3, 44640, Note_on_c, 0, 55, 0
3, 44640, Note_on_c, 0, 52, 0
3, 44640, Note_on_c, 0, 52, 60
3, 44640, Note_on_c, 0, 55, 72
3, 44640, Note_on_c, 0, 47, 60
3, 45120, Note_on_c, 0, 47, 0
3, 45120, Note_on_c, 0, 55, 0
3, 45120, Note_on_c, 0, 52, 0
3, 45120, Note_on_c, 0, 52, 60
3, 45120, Note_on_c, 0, 59, 72
3, 45120, Note_on_c, 0, 55, 60
3, 46080, Note_on_c, 0, 55, 0
3, 46080, Note_on_c, 0, 59, 0
3, 46080, Note_on_c, 0, 52, 0
3, 46080, Note_on_c, 0, 28, 74
3, 46120, Control_c, 0, 64, 127
3, 46320, Note_on_c, 0, 28, 0
3, 46560, Note_on_c, 0, 40, 58
3, 46560, Note_on_c, 0, 47, 69
3, 46920, Note_on_c, 0, 47, 0
3, 46920, Note_on_c, 0, 40, 0
3, 46920, Note_on_c, 0, 47, 61
3, 46920, Note_on_c, 0, 40, 50
3, 47040, Note_on_c, 0, 40, 0
3, 47040, Note_on_c, 0, 47, 0
3, 47040, Note_on_c, 0, 40, 60
3, 47040, Note_on_c, 0, 47, 70
3, 47520, Note_on_c, 0, 47, 0
3, 47520, Note_on_c, 0, 40, 0
3, 47520, Note_on_c, 0, 40, 52
3, 47520, Note_on_c, 0, 48, 62
3, 47535, Control_c, 0, 64, 0
3, 48000, Note_on_c, 0, 48, 0
3, 48000, Note_on_c, 0, 40, 0
3, 48000, Note_on_c, 0, 40, 55
3, 48000, Note_on_c, 0, 47, 63
3, 48480, Note_on_c, 0, 47, 0
3, 48480, Note_on_c, 0, 40, 0
3, 48480, Note_on_c, 0, 28, 55
3, 48960, Note_on_c, 0, 35, 58
3, 49920, Note_on_c, 0, 35, 0
3, 49920, Note_on_c, 0, 28, 0
3, 49920, Note_on_c, 0, 27, 70
3, 49977, Control_c, 0, 64, 127
3, 50160, Note_on_c, 0, 27, 0
3, 50400, Note_on_c, 0, 60, 77
3, 50400, Note_on_c, 0, 51, 77
3, 50412, Control_c, 0, 64, 0
3, 50443, Control_c, 0, 64, 127
3, 50760, Note_on_c, 0, 51, 0
3, 50760, Note_on_c, 0, 60, 0
3, 50760, Note_on_c, 0, 60, 73
3, 50760, Note_on_c, 0, 51, 73
3, 50880, Note_on_c, 0, 51, 0
3, 50880, Note_on_c, 0, 60, 0
3, 50880, Note_on_c, 0, 52, 77
3, 50880, Note_on_c, 0, 60, 77
3, 50889, Control_c, 0, 64, 0
3, 50955, Control_c, 0, 64, 127
3, 51360, Note_on_c, 0, 60, 0
3, 51360, Note_on_c, 0, 52, 0
3, 51360, Note_on_c, 0, 28, 66
3, 51360, Note_on_c, 0, 40, 77
3, 51383, Control_c, 0, 64, 0
3, 51435, Control_c, 0, 64, 127
3, 51840, Note_on_c, 0, 40, 0
3, 51840, Note_on_c, 0, 28, 0
3, 51840, Note_on_c, 0, 27, 67
3, 51840, Note_on_c, 0, 39, 67
3, 51850, Control_c, 0, 64, 0
3, 51917, Control_c, 0, 64, 127
3, 52080, Note_on_c, 0, 39, 0
3, 52080, Note_on_c, 0, 27, 0
3, 52320, Note_on_c, 0, 62, 77
3, 52320, Note_on_c, 0, 51, 77
3, 52326, Control_c, 0, 64, 0
3, 52369, Control_c, 0, 64, 127
3, 52480, Note_on_c, 0, 51, 0
3, 52480, Note_on_c, 0, 62, 0
3, 52480, Note_on_c, 0, 60, 72
3, 52480, Note_on_c, 0, 51, 72
3, 52720, Note_on_c, 0, 51, 0
3, 52720, Note_on_c, 0, 60, 0
3, 52720, Note_on_c, 0, 51, 73
3, 52720, Note_on_c, 0, 59, 73
3, 52800, Note_on_c, 0, 59, 0
3, 52800, Note_on_c, 0, 51, 0
3, 52800, Note_on_c, 0, 59, 77
3, 52800, Note_on_c, 0, 52, 77
3, 52815, Control_c, 0, 64, 0
3, 52880, Control_c, 0, 64, 127
3, 53280, Note_on_c, 0, 52, 0
3, 53280, Note_on_c, 0, 59, 0
3, 53280, Note_on_c, 0, 28, 67
3, 53280, Note_on_c, 0, 40, 79
3, 53300, Control_c, 0, 64, 0
3, 53352, Control_c, 0, 64, 127
3, 53760, Note_on_c, 0, 40, 0
3, 53760, Note_on_c, 0, 28, 0
3, 53760, Note_on_c, 0, 42, 69
3, 53760, Note_on_c, 0, 30, 69
3, 53768, Control_c, 0, 64, 0
3, 53820, Control_c, 0, 64, 127
3, 54000, Note_on_c, 0, 30, 0
3, 54000, Note_on_c, 0, 42, 0
3, 54240, Note_on_c, 0, 59, 70
3, 54240, Note_on_c, 0, 54, 60
3, 54246, Control_c, 0, 64, 1
3, 54286, Control_c, 0, 64, 127
3, 54400, Note_on_c, 0, 59, 0
3, 54400, Note_on_c, 0, 63, 66
3, 54560, Note_on_c, 0, 63, 0
3, 54560, Note_on_c, 0, 68, 70
3, 54720, Note_on_c, 0, 68, 0
3, 54720, Note_on_c, 0, 54, 0
3, 54720, Note_on_c, 0, 58, 60
3, 54720, Note_on_c, 0, 66, 70
3, 54720, Note_on_c, 0, 64, 70
3, 54720, Note_on_c, 0, 54, 60
3, 54723, Control_c, 0, 64, 0
3, 54777, Control_c, 0, 64, 127
3, 55200, Note_on_c, 0, 54, 0
3, 55200, Note_on_c, 0, 58, 0
3, 55200, Note_on_c, 0, 66, 0
3, 55200, Note_on_c, 0, 64, 0
3, 55200, Note_on_c, 0, 42, 77
3, 55200, Note_on_c, 0, 30, 66
3, 55206, Control_c, 0, 64, 0
3, 55257, Control_c, 0, 64, 127
3, 55680, Note_on_c, 0, 30, 0
3, 55680, Note_on_c, 0, 42, 0
3, 55680, Note_on_c, 0, 35, 66
3, 55680, Note_on_c, 0, 47, 77
3, 55690, Control_c, 0, 64, 0
3, 55735, Control_c, 0, 64, 127
3, 55920, Note_on_c, 0, 47, 0
3, 55920, Note_on_c, 0, 35, 0
3, 56160, Note_on_c, 0, 54, 56
3, 56160, Note_on_c, 0, 63, 67
3, 56166, Control_c, 0, 64, 0
3, 56220, Control_c, 0, 64, 127
3, 56320, Note_on_c, 0, 63, 0
3, 56320, Note_on_c, 0, 54, 0
3, 56320, Note_on_c, 0, 53, 49
3, 56320, Note_on_c, 0, 62, 58
3, 56480, Note_on_c, 0, 62, 0
3, 56480, Note_on_c, 0, 53, 0
3, 56480, Note_on_c, 0, 63, 63
3, 56480, Note_on_c, 0, 54, 55
3, 56640, Note_on_c, 0, 54, 0
3, 56640, Note_on_c, 0, 63, 0
3, 56640, Note_on_c, 0, 51, 65
3, 56640, Note_on_c, 0, 59, 76
3, 56640, Note_on_c, 0, 47, 65
3, 56647, Control_c, 0, 64, 0
3, 56715, Control_c, 0, 64, 127
3, 56880, Note_on_c, 0, 47, 0
3, 56880, Note_on_c, 0, 59, 0
3, 56880, Note_on_c, 0, 51, 0
3, 56989, Control_c, 0, 64, 0
3, 57600, Note_on_c, 0, 40, 90
3, 57660, Control_c, 0, 64, 127
3, 57840, Note_on_c, 0, 40, 0
3, 58080, Note_on_c, 0, 59, 77
3, 58080, Note_on_c, 0, 55, 66
3, 58080, Note_on_c, 0, 52, 66
3, 58440, Note_on_c, 0, 52, 0
3, 58440, Note_on_c, 0, 55, 0
3, 58440, Note_on_c, 0, 59, 0
3, 58440, Note_on_c, 0, 52, 60
3, 58440, Note_on_c, 0, 55, 60
3, 58440, Note_on_c, 0, 59, 72
3, 58560, Note_on_c, 0, 59, 0
3, 58560, Note_on_c, 0, 55, 0
3, 58560, Note_on_c, 0, 52, 0
3, 58560, Note_on_c, 0, 59, 77
3, 58560, Note_on_c, 0, 55, 66
3, 58560, Note_on_c, 0, 52, 66
3, 59040, Note_on_c, 0, 52, 0
3, 59040, Note_on_c, 0, 55, 0
3, 59040, Note_on_c, 0, 59, 0
3, 59040, Note_on_c, 0, 52, 67
3, 59040, Note_on_c, 0, 55, 67
3, 59040, Note_on_c, 0, 60, 80
3, 59055, Control_c, 0, 64, 0
3, 59520, Note_on_c, 0, 60, 0
3, 59520, Note_on_c, 0, 55, 0
3, 59520, Note_on_c, 0, 52, 0
3, 59520, Note_on_c, 0, 52, 66
3, 59520, Note_on_c, 0, 55, 66
3, 59520, Note_on_c, 0, 59, 77
3, 60000, Note_on_c, 0, 59, 0
3, 60000, Note_on_c, 0, 55, 0
3, 60000, Note_on_c, 0, 52, 0
3, 60000, Note_on_c, 0, 47, 60
3, 60000, Note_on_c, 0, 52, 60
3, 60000, Note_on_c, 0, 55, 72
3, 60480, Note_on_c, 0, 55, 0
3, 60480, Note_on_c, 0, 52, 0
3, 60480, Note_on_c, 0, 47, 0
3, 60480, Note_on_c, 0, 52, 60
3, 60480, Note_on_c, 0, 55, 60
3, 60480, Note_on_c, 0, 59, 72
3, 61440, Note_on_c, 0, 59, 0
3, 61440, Note_on_c, 0, 55, 0
3, 61440, Note_on_c, 0, 52, 0
3, 61440, Note_on_c, 0, 31, 62
3, 61471, Control_c, 0, 64, 127
3, 61680, Note_on_c, 0, 31, 0
3, 61920, Note_on_c, 0, 38, 58
3, 61920, Note_on_c, 0, 47, 69
3, 62280, Note_on_c, 0, 47, 0
3, 62280, Note_on_c, 0, 47, 61
3, 62400, Note_on_c, 0, 47, 0
3, 62400, Note_on_c, 0, 47, 70
3, 62880, Note_on_c, 0, 47, 0
3, 62880, Note_on_c, 0, 48, 62
3, 62899, Control_c, 0, 64, 0
3, 63360, Note_on_c, 0, 48, 0
3, 63360, Note_on_c, 0, 47, 73
3, 63840, Note_on_c, 0, 47, 0
3, 63840, Note_on_c, 0, 38, 0
3, 63840, Note_on_c, 0, 31, 69
3, 64320, Note_on_c, 0, 38, 66
3, 65280, Note_on_c, 0, 38, 0
3, 65280, Note_on_c, 0, 31, 0
3, 65280, Note_on_c, 0, 31, 75
3, 65320, Control_c, 0, 64, 127
3, 65520, Note_on_c, 0, 31, 0
3, 65760, Note_on_c, 0, 59, 82
3, 65760, Note_on_c, 0, 50, 70
3, 65775, Control_c, 0, 64, 0
3, 65817, Control_c, 0, 64, 127
3, 65920, Note_on_c, 0, 50, 0
3, 65920, Note_on_c, 0, 59, 0
3, 65920, Note_on_c, 0, 42, 73
3, 66080, Note_on_c, 0, 42, 0
3, 66080, Note_on_c, 0, 43, 79
3, 66240, Note_on_c, 0, 43, 0
3, 66240, Note_on_c, 0, 44, 82
3, 66240, Note_on_c, 0, 58, 82
3, 66240, Note_on_c, 0, 50, 70
3, 66252, Control_c, 0, 64, 0
3, 66309, Control_c, 0, 64, 127
3, 66720, Note_on_c, 0, 50, 0
3, 66720, Note_on_c, 0, 58, 0
3, 66720, Note_on_c, 0, 44, 0
3, 66720, Note_on_c, 0, 32, 86
3, 66729, Control_c, 0, 64, 0
3, 66795, Control_c, 0, 64, 127
3, 67200, Note_on_c, 0, 32, 0
3, 67200, Note_on_c, 0, 33, 81
3, 67208, Control_c, 0, 64, 1
3, 67275, Control_c, 0, 64, 127
3, 67440, Note_on_c, 0, 33, 0
3, 67680, Note_on_c, 0, 62, 80
3, 67680, Note_on_c, 0, 53, 67
3, 67695, Control_c, 0, 64, 0
3, 67732, Control_c, 0, 64, 127
3, 67840, Note_on_c, 0, 53, 0
3, 67840, Note_on_c, 0, 62, 0
3, 67840, Note_on_c, 0, 44, 73
3, 68000, Note_on_c, 0, 44, 0
3, 68000, Note_on_c, 0, 45, 79
3, 68160, Note_on_c, 0, 45, 0
3, 68160, Note_on_c, 0, 46, 82
3, 68160, Note_on_c, 0, 62, 82
3, 68160, Note_on_c, 0, 56, 70
3, 68160, Note_on_c, 0, 53, 70
3, 68169, Control_c, 0, 64, 0
3, 68226, Control_c, 0, 64, 127
3, 68640, Note_on_c, 0, 53, 0
3, 68640, Note_on_c, 0, 46, 0
3, 68640, Note_on_c, 0, 62, 0
3, 68640, Note_on_c, 0, 56, 0
3, 68640, Note_on_c, 0, 34, 94
3, 68655, Control_c, 0, 64, 0
3, 68706, Control_c, 0, 64, 127
3, 69120, Note_on_c, 0, 34, 0
3, 69120, Note_on_c, 0, 35, 90
3, 69129, Control_c, 0, 64, 0
3, 69208, Control_c, 0, 64, 127
3, 69360, Note_on_c, 0, 35, 0
3, 69600, Note_on_c, 0, 55, 96
3, 69619, Control_c, 0, 64, 0
3, 69664, Control_c, 0, 64, 127
3, 69960, Note_on_c, 0, 55, 0
3, 69960, Note_on_c, 0, 55, 86
3, 70080, Note_on_c, 0, 55, 0
3, 70080, Note_on_c, 0, 55, 96
3, 70560, Note_on_c, 0, 55, 0
3, 70560, Note_on_c, 0, 31, 55
3, 70560, Note_on_c, 0, 43, 55
3, 71040, Note_on_c, 0, 43, 0
3, 71040, Note_on_c, 0, 31, 0
3, 71040, Note_on_c, 0, 36, 60
3, 71040, Note_on_c, 0, 48, 60
3, 71049, Control_c, 0, 64, 0
3, 71097, Control_c, 0, 64, 127
3, 71280, Note_on_c, 0, 48, 0
3, 71280, Note_on_c, 0, 36, 0
3, 71520, Note_on_c, 0, 52, 57
3, 71680, Note_on_c, 0, 52, 0
3, 71680, Note_on_c, 0, 60, 57
3, 71840, Note_on_c, 0, 60, 0
3, 71840, Note_on_c, 0, 68, 57
3, 72000, Note_on_c, 0, 68, 0
3, 72000, Note_on_c, 0, 41, 57
3, 72015, Control_c, 0, 64, 0
3, 72069, Control_c, 0, 64, 127
3, 72240, Note_on_c, 0, 41, 0
3, 72480, Note_on_c, 0, 53, 48
3, 72480, Note_on_c, 0, 56, 57
3, 72640, Note_on_c, 0, 56, 0
3, 72640, Note_on_c, 0, 53, 0
3, 72640, Note_on_c, 0, 61, 57
3, 72800, Note_on_c, 0, 61, 0
3, 72800, Note_on_c, 0, 68, 57
3, 72960, Note_on_c, 0, 68, 0
3, 72960, Note_on_c, 0, 43, 68
3, 72972, Control_c, 0, 64, 0
3, 73017, Control_c, 0, 64, 127
3, 73200, Note_on_c, 0, 43, 0
3, 73440, Note_on_c, 0, 55, 52
3, 73440, Note_on_c, 0, 60, 62
3, 73452, Control_c, 0, 64, 0
3, 73503, Control_c, 0, 64, 127
3, 73600, Note_on_c, 0, 60, 0
3, 73600, Note_on_c, 0, 55, 0
3, 73600, Note_on_c, 0, 64, 57
3, 73760, Note_on_c, 0, 64, 0
3, 73760, Note_on_c, 0, 67, 57
3, 73920, Note_on_c, 0, 67, 0
3, 73920, Note_on_c, 0, 43, 62
3, 73935, Control_c, 0, 64, 0
3, 73980, Control_c, 0, 64, 127
3, 74160, Note_on_c, 0, 43, 0
3, 74400, Note_on_c, 0, 65, 57
3, 74400, Note_on_c, 0, 55, 57
3, 74400, Note_on_c, 0, 62, 57
3, 74400, Note_on_c, 0, 67, 57
3, 74850, Note_on_c, 0, 48, 60
3, 74865, Note_on_c, 0, 55, 60
3, 74880, Note_on_c, 0, 67, 0
3, 74880, Note_on_c, 0, 62, 0
3, 74880, Note_on_c, 0, 65, 0
3, 74880, Note_on_c, 0, 55, 0
3, 74880, Note_on_c, 0, 64, 60
3, 74886, Control_c, 0, 64, 0
3, 74951, Control_c, 0, 64, 127
3, 75360, Note_on_c, 0, 64, 0
3, 75360, Note_on_c, 0, 55, 0
3, 75360, Note_on_c, 0, 48, 0
3, 75378, Control_c, 0, 64, 0
3, 76801, Note_on_c, 0, 69, 66
3, 76881, Note_on_c, 0, 69, 0
3, 76883, Note_on_c, 0, 64, 61
3, 76961, Note_on_c, 0, 67, 66
3, 76963, Note_on_c, 0, 64, 0
3, 77041, Note_on_c, 0, 67, 0
3, 77043, Note_on_c, 0, 61, 61
3, 77121, Note_on_c, 0, 65, 66
3, 77123, Note_on_c, 0, 61, 0
3, 77200, Note_on_c, 0, 61, 61
3, 77201, Note_on_c, 0, 65, 0
3, 77280, Note_on_c, 0, 61, 0
3, 77280, Note_on_c, 0, 64, 66
3, 77360, Note_on_c, 0, 64, 0
3, 77363, Note_on_c, 0, 58, 61
3, 77443, Note_on_c, 0, 58, 0
3, 77443, Note_on_c, 0, 62, 66
3, 77519, Note_on_c, 0, 58, 61
3, 77523, Note_on_c, 0, 62, 0
3, 77599, Note_on_c, 0, 58, 0
3, 77599, Note_on_c, 0, 61, 66
3, 77679, Note_on_c, 0, 61, 0
3, 77679, Note_on_c, 0, 55, 61
3, 77759, Note_on_c, 0, 55, 0
3, 77762, Note_on_c, 0, 60, 66
3, 77842, Note_on_c, 0, 60, 0
3, 77843, Note_on_c, 0, 55, 61
3, 77921, Note_on_c, 0, 58, 66
3, 77923, Note_on_c, 0, 55, 0
3, 77998, Note_on_c, 0, 52, 61
3, 78001, Note_on_c, 0, 58, 0
3, 78078, Note_on_c, 0, 52, 0
3, 78081, Note_on_c, 0, 57, 66
3, 78158, Note_on_c, 0, 52, 61
3, 78161, Note_on_c, 0, 57, 0
3, 78238, Note_on_c, 0, 52, 0
3, 78241, Note_on_c, 0, 55, 66
3, 78321, Note_on_c, 0, 55, 0
3, 78321, Note_on_c, 0, 49, 61
3, 78400, Note_on_c, 0, 53, 61
3, 78401, Note_on_c, 0, 49, 0
3, 78478, Note_on_c, 0, 49, 57
3, 78480, Note_on_c, 0, 53, 0
3, 78558, Note_on_c, 0, 49, 0
3, 78563, Note_on_c, 0, 52, 61
3, 78638, Note_on_c, 0, 46, 57
3, 78643, Note_on_c, 0, 52, 0
3, 78718, Note_on_c, 0, 46, 0
3, 78721, Note_on_c, 0, 50, 61
3, 78798, Note_on_c, 0, 46, 61
3, 78801, Note_on_c, 0, 50, 0
3, 78878, Note_on_c, 0, 46, 0
3, 78879, Note_on_c, 0, 49, 66
3, 78959, Note_on_c, 0, 49, 0
3, 78961, Note_on_c, 0, 43, 61
3, 79039, Note_on_c, 0, 48, 66
3, 79041, Note_on_c, 0, 43, 0
3, 79119, Note_on_c, 0, 48, 0
3, 79119, Note_on_c, 0, 43, 61
3, 79199, Note_on_c, 0, 43, 0
3, 79201, Note_on_c, 0, 46, 66
3, 79280, Note_on_c, 0, 40, 57
3, 79281, Note_on_c, 0, 46, 0
3, 79360, Note_on_c, 0, 40, 0
3, 79360, Note_on_c, 0, 45, 61
3, 79439, Note_on_c, 0, 40, 57
3, 79440, Note_on_c, 0, 45, 0
3, 79519, Note_on_c, 0, 40, 0
3, 79522, Note_on_c, 0, 43, 61
3, 79598, Note_on_c, 0, 37, 57
3, 79602, Note_on_c, 0, 43, 0
3, 79678, Note_on_c, 0, 37, 0
3, 79680, Note_on_c, 0, 41, 61
3, 79760, Note_on_c, 0, 41, 0
3, 79761, Note_on_c, 0, 37, 57
3, 79841, Note_on_c, 0, 37, 0
3, 79842, Note_on_c, 0, 40, 61
3, 79920, Note_on_c, 0, 34, 57
3, 79922, Note_on_c, 0, 40, 0
3, 79998, Note_on_c, 0, 38, 61
3, 80000, Note_on_c, 0, 34, 0
3, 80078, Note_on_c, 0, 38, 0
3, 80080, Note_on_c, 0, 34, 57
3, 80160, Note_on_c, 0, 34, 0
3, 80160, Note_on_c, 0, 37, 61
3, 80238, Note_on_c, 0, 31, 57
3, 80240, Note_on_c, 0, 37, 0
3, 80318, Note_on_c, 0, 31, 0
3, 80322, Note_on_c, 0, 36, 61
3, 80402, Note_on_c, 0, 36, 0
3, 80402, Note_on_c, 0, 31, 57
3, 80482, Note_on_c, 0, 31, 0
3, 80483, Note_on_c, 0, 34, 61
3, 80561, Note_on_c, 0, 28, 57
3, 80563, Note_on_c, 0, 34, 0
3, 80641, Note_on_c, 0, 28, 0
3, 80641, Note_on_c, 0, 72, 66
3, 80721, Note_on_c, 0, 72, 0
3, 80721, Note_on_c, 0, 67, 61
3, 80801, Note_on_c, 0, 67, 0
3, 80802, Note_on_c, 0, 70, 66
3, 80882, Note_on_c, 0, 70, 0
3, 80882, Note_on_c, 0, 64, 61
3, 80962, Note_on_c, 0, 64, 0
3, 80963, Note_on_c, 0, 69, 66
3, 81040, Note_on_c, 0, 64, 61
3, 81043, Note_on_c, 0, 69, 0
3, 81120, Note_on_c, 0, 64, 0
3, 81120, Note_on_c, 0, 67, 66
3, 81198, Note_on_c, 0, 61, 61
3, 81200, Note_on_c, 0, 67, 0
3, 81278, Note_on_c, 0, 61, 0
3, 81283, Note_on_c, 0, 65, 66
3, 81362, Note_on_c, 0, 61, 61
3, 81363, Note_on_c, 0, 65, 0
3, 81440, Note_on_c, 0, 64, 66
3, 81442, Note_on_c, 0, 61, 0
3, 81518, Note_on_c, 0, 58, 61
3, 81520, Note_on_c, 0, 64, 0
3, 81598, Note_on_c, 0, 58, 0
3, 81603, Note_on_c, 0, 62, 66
3, 81682, Note_on_c, 0, 58, 61
3, 81683, Note_on_c, 0, 62, 0
3, 81758, Note_on_c, 0, 61, 66
3, 81762, Note_on_c, 0, 58, 0
3, 81838, Note_on_c, 0, 61, 0
3, 81840, Note_on_c, 0, 55, 61
3, 81920, Note_on_c, 0, 55, 0
3, 81923, Note_on_c, 0, 60, 66
3, 81998, Note_on_c, 0, 55, 61
3, 82003, Note_on_c, 0, 60, 0
3, 82078, Note_on_c, 0, 55, 0
3, 82078, Note_on_c, 0, 58, 66
3, 82158, Note_on_c, 0, 58, 0
3, 82159, Note_on_c, 0, 52, 57
3, 82238, Note_on_c, 0, 57, 61
3, 82239, Note_on_c, 0, 52, 0
3, 82318, Note_on_c, 0, 57, 0
3, 82321, Note_on_c, 0, 52, 57
3, 82398, Note_on_c, 0, 55, 61
3, 82401, Note_on_c, 0, 52, 0
3, 82478, Note_on_c, 0, 55, 0
3, 82481, Note_on_c, 0, 49, 57
3, 82561, Note_on_c, 0, 49, 0
3, 82561, Note_on_c, 0, 53, 61
3, 82641, Note_on_c, 0, 53, 0
3, 82642, Note_on_c, 0, 49, 61
3, 82722, Note_on_c, 0, 49, 0
3, 82722, Note_on_c, 0, 52, 66
3, 82802, Note_on_c, 0, 52, 0
3, 82803, Note_on_c, 0, 46, 61
3, 82882, Note_on_c, 0, 50, 66
3, 82883, Note_on_c, 0, 46, 0
3, 82959, Note_on_c, 0, 46, 61
3, 82962, Note_on_c, 0, 50, 0
3, 83039, Note_on_c, 0, 46, 0
3, 83042, Note_on_c, 0, 49, 66
3, 83120, Note_on_c, 0, 43, 57
3, 83122, Note_on_c, 0, 49, 0
3, 83200, Note_on_c, 0, 43, 0
3, 83203, Note_on_c, 0, 48, 61
3, 83282, Note_on_c, 0, 43, 57
3, 83283, Note_on_c, 0, 48, 0
3, 83359, Note_on_c, 0, 46, 61
3, 83362, Note_on_c, 0, 43, 0
3, 83439, Note_on_c, 0, 46, 0
3, 83439, Note_on_c, 0, 40, 57
3, 83519, Note_on_c, 0, 40, 0
3, 83520, Note_on_c, 0, 45, 61
3, 83599, Note_on_c, 0, 40, 57
3, 83600, Note_on_c, 0, 45, 0
3, 83679, Note_on_c, 0, 40, 0
3, 83681, Note_on_c, 0, 43, 61
3, 83759, Note_on_c, 0, 37, 57
3, 83761, Note_on_c, 0, 43, 0
3, 83839, Note_on_c, 0, 37, 0
3, 83843, Note_on_c, 0, 41, 61
3, 83919, Note_on_c, 0, 37, 57
3, 83923, Note_on_c, 0, 41, 0
3, 83999, Note_on_c, 0, 37, 0
3, 84000, Note_on_c, 0, 40, 61
3, 84079, Note_on_c, 0, 34, 57
3, 84080, Note_on_c, 0, 40, 0
3, 84158, Note_on_c, 0, 38, 61
3, 84159, Note_on_c, 0, 34, 0
3, 84238, Note_on_c, 0, 38, 0
3, 84239, Note_on_c, 0, 34, 57
3, 84318, Note_on_c, 0, 37, 61
3, 84319, Note_on_c, 0, 34, 0
3, 84398, Note_on_c, 0, 37, 0
3, 84402, Note_on_c, 0, 31, 57
3, 84480, Note_on_c, 0, 39, 74
3, 84482, Note_on_c, 0, 31, 0
3, 84487, Note_on_c, 0, 27, 74
3, 84511, Control_c, 0, 64, 127
3, 84720, Note_on_c, 0, 39, 0
3, 84727, Note_on_c, 0, 27, 0
3, 84960, Note_on_c, 0, 63, 64
3, 85320, Note_on_c, 0, 63, 0
3, 85320, Note_on_c, 0, 63, 61
3, 85440, Note_on_c, 0, 63, 0
3, 85440, Note_on_c, 0, 51, 55
3, 85440, Note_on_c, 0, 60, 55
3, 85440, Note_on_c, 0, 63, 66
3, 85920, Note_on_c, 0, 63, 0
3, 85920, Note_on_c, 0, 60, 0
3, 85920, Note_on_c, 0, 51, 0
3, 85920, Note_on_c, 0, 68, 64
3, 85932, Control_c, 0, 64, 0
3, 85977, Control_c, 0, 64, 127
3, 86280, Note_on_c, 0, 68, 0
3, 86280, Note_on_c, 0, 60, 61
3, 86400, Note_on_c, 0, 60, 0
3, 86400, Note_on_c, 0, 51, 50
3, 86400, Note_on_c, 0, 63, 61
3, 86406, Control_c, 0, 64, 0
3, 86880, Note_on_c, 0, 63, 0
3, 86880, Note_on_c, 0, 58, 64
3, 87240, Note_on_c, 0, 58, 0
3, 87240, Note_on_c, 0, 63, 61
3, 87360, Note_on_c, 0, 63, 0
3, 87360, Note_on_c, 0, 44, 50
3, 87360, Note_on_c, 0, 60, 61
3, 87840, Note_on_c, 0, 60, 0
3, 87840, Note_on_c, 0, 44, 0
3, 87840, Note_on_c, 0, 51, 0
3, 88320, Note_on_c, 0, 35, 48
3, 88320, Note_on_c, 0, 47, 48
3, 88351, Control_c, 0, 64, 127
3, 88560, Note_on_c, 0, 47, 0
3, 88560, Note_on_c, 0, 35, 0
3, 88800, Note_on_c, 0, 59, 53
3, 89160, Note_on_c, 0, 59, 0
3, 89160, Note_on_c, 0, 59, 50
3, 89280, Note_on_c, 0, 59, 0
3, 89280, Note_on_c, 0, 47, 46
3, 89280, Note_on_c, 0, 56, 46
3, 89280, Note_on_c, 0, 59, 55
3, 89760, Note_on_c, 0, 59, 0
3, 89760, Note_on_c, 0, 56, 0
3, 89760, Note_on_c, 0, 47, 0
3, 89760, Note_on_c, 0, 64, 53
3, 89775, Control_c, 0, 64, 0
3, 90000, Note_on_c, 0, 64, 0
3, 90120, Note_on_c, 0, 56, 50
3, 90240, Note_on_c, 0, 56, 0
3, 90240, Note_on_c, 0, 47, 42
3, 90240, Note_on_c, 0, 59, 50
3, 90720, Note_on_c, 0, 59, 0
3, 90720, Note_on_c, 0, 54, 50
3, 90880, Note_on_c, 0, 54, 0
3, 90880, Note_on_c, 0, 56, 42
3, 91040, Note_on_c, 0, 56, 0
3, 91040, Note_on_c, 0, 57, 48
3, 91170, Note_on_c, 0, 57, 0
3, 91170, Note_on_c, 0, 40, 38
3, 91185, Note_on_c, 0, 47, 38
3, 91200, Note_on_c, 0, 47, 0
3, 91200, Note_on_c, 0, 56, 45
3, 91680, Note_on_c, 0, 56, 0
3, 91680, Note_on_c, 0, 47, 0
3, 91680, Note_on_c, 0, 40, 0
3, 92160, Note_on_c, 0, 40, 70
3, 92160, Note_on_c, 0, 52, 70
3, 92217, Control_c, 0, 64, 127
3, 92640, Note_on_c, 0, 52, 0
3, 92640, Note_on_c, 0, 40, 0
3, 92640, Note_on_c, 0, 35, 58
3, 92640, Note_on_c, 0, 47, 70
3, 92800, Note_on_c, 0, 47, 0
3, 92800, Note_on_c, 0, 35, 0
3, 92800, Note_on_c, 0, 32, 55
3, 92800, Note_on_c, 0, 44, 66
3, 92960, Note_on_c, 0, 44, 0
3, 92960, Note_on_c, 0, 32, 0
3, 92960, Note_on_c, 0, 35, 62
3, 92960, Note_on_c, 0, 47, 74
3, 93120, Note_on_c, 0, 47, 0
3, 93120, Note_on_c, 0, 35, 0
3, 93120, Note_on_c, 0, 28, 67
3, 93120, Note_on_c, 0, 40, 79
3, 93138, Control_c, 0, 64, 0
3, 93192, Control_c, 0, 64, 127
3, 93300, Note_on_c, 0, 40, 0
3, 93300, Note_on_c, 0, 28, 0
3, 93480, Note_on_c, 0, 40, 66
3, 93480, Note_on_c, 0, 52, 77
3, 93600, Note_on_c, 0, 52, 0
3, 93600, Note_on_c, 0, 40, 0
3, 93600, Note_on_c, 0, 42, 70
3, 93600, Note_on_c, 0, 54, 84
3, 93618, Control_c, 0, 64, 0
3, 93960, Note_on_c, 0, 54, 0
3, 93960, Note_on_c, 0, 42, 0
3, 93960, Note_on_c, 0, 40, 67
3, 93960, Note_on_c, 0, 52, 79
3, 94080, Note_on_c, 0, 52, 0
3, 94080, Note_on_c, 0, 40, 0
3, 94080, Note_on_c, 0, 39, 73
3, 94080, Note_on_c, 0, 51, 86
3, 94560, Note_on_c, 0, 51, 0
3, 94560, Note_on_c, 0, 39, 0
3, 94560, Note_on_c, 0, 36, 62
3, 94560, Note_on_c, 0, 48, 74
3, 95040, Note_on_c, 0, 48, 0
3, 95040, Note_on_c, 0, 36, 0
3, 95040, Note_on_c, 0, 39, 69
3, 95040, Note_on_c, 0, 51, 82
3, 95520, Note_on_c, 0, 51, 0
3, 95520, Note_on_c, 0, 39, 0
3, 95520, Note_on_c, 0, 41, 66
3, 95520, Note_on_c, 0, 53, 77
3, 95680, Note_on_c, 0, 53, 0
3, 95680, Note_on_c, 0, 41, 0
3, 95680, Note_on_c, 0, 42, 58
3, 95680, Note_on_c, 0, 54, 70
3, 95840, Note_on_c, 0, 54, 0
3, 95840, Note_on_c, 0, 42, 0
3, 95840, Note_on_c, 0, 43, 62
3, 95840, Note_on_c, 0, 55, 74
3, 96000, Note_on_c, 0, 55, 0
3, 96000, Note_on_c, 0, 43, 0
3, 96000, Note_on_c, 0, 44, 66
3, 96000, Note_on_c, 0, 56, 77
3, 96032, Control_c, 0, 64, 127
3, 96480, Note_on_c, 0, 56, 0
3, 96480, Note_on_c, 0, 44, 0
3, 96480, Note_on_c, 0, 39, 67
3, 96480, Note_on_c, 0, 51, 79
3, 96640, Note_on_c, 0, 51, 0
3, 96640, Note_on_c, 0, 39, 0
3, 96640, Note_on_c, 0, 36, 58
3, 96640, Note_on_c, 0, 48, 70
3, 96800, Note_on_c, 0, 48, 0
3, 96800, Note_on_c, 0, 36, 0
3, 96800, Note_on_c, 0, 39, 62
3, 96800, Note_on_c, 0, 51, 74
3, 96960, Note_on_c, 0, 51, 0
3, 96960, Note_on_c, 0, 39, 0
3, 96960, Note_on_c, 0, 32, 67
3, 96960, Note_on_c, 0, 44, 79
3, 96972, Control_c, 0, 64, 0
3, 97020, Control_c, 0, 64, 127
3, 97140, Note_on_c, 0, 44, 0
3, 97140, Note_on_c, 0, 32, 0
3, 97143, Control_c, 0, 64, 0
3, 97320, Note_on_c, 0, 44, 66
3, 97320, Note_on_c, 0, 56, 77
3, 97440, Note_on_c, 0, 56, 0
3, 97440, Note_on_c, 0, 44, 0
3, 97440, Note_on_c, 0, 46, 70
3, 97440, Note_on_c, 0, 58, 84
3, 97800, Note_on_c, 0, 58, 0
3, 97800, Note_on_c, 0, 46, 0
3, 97800, Note_on_c, 0, 44, 67
3, 97800, Note_on_c, 0, 56, 79
3, 97920, Note_on_c, 0, 56, 0
3, 97920, Note_on_c, 0, 44, 0
3, 97920, Note_on_c, 0, 43, 73
3, 97920, Note_on_c, 0, 55, 86
3, 98400, Note_on_c, 0, 55, 0
3, 98400, Note_on_c, 0, 43, 0
3, 98400, Note_on_c, 0, 40, 62
3, 98400, Note_on_c, 0, 52, 74
3, 98880, Note_on_c, 0, 52, 0
3, 98880, Note_on_c, 0, 40, 0
3, 98880, Note_on_c, 0, 43, 69
3, 98880, Note_on_c, 0, 55, 82
3, 99360, Note_on_c, 0, 55, 0
3, 99360, Note_on_c, 0, 43, 0
3, 99360, Note_on_c, 0, 45, 66
3, 99360, Note_on_c, 0, 57, 77
3, 99520, Note_on_c, 0, 57, 0
3, 99520, Note_on_c, 0, 45, 0
3, 99520, Note_on_c, 0, 46, 67
3, 99520, Note_on_c, 0, 58, 79
3, 99680, Note_on_c, 0, 58, 0
3, 99680, Note_on_c, 0, 46, 0
3, 99680, Note_on_c, 0, 47, 69
3, 99680, Note_on_c, 0, 59, 82
3, 99840, Note_on_c, 0, 59, 0
3, 99840, Note_on_c, 0, 47, 0
3, 99840, Note_on_c, 0, 48, 75
3, 99840, Note_on_c, 0, 60, 90
3, 100290, Note_on_c, 0, 36, 63
3, 100305, Note_on_c, 0, 43, 63
3, 100320, Note_on_c, 0, 60, 0
3, 100320, Note_on_c, 0, 48, 0
3, 100320, Note_on_c, 0, 52, 82
3, 100770, Note_on_c, 0, 41, 67
3, 100785, Note_on_c, 0, 48, 68
3, 100800, Note_on_c, 0, 52, 0
3, 100800, Note_on_c, 0, 43, 0
3, 100800, Note_on_c, 0, 36, 0
3, 100800, Note_on_c, 0, 57, 89
3, 101265, Note_on_c, 0, 35, 60
3, 101280, Note_on_c, 0, 57, 0
3, 101280, Note_on_c, 0, 48, 0
3, 101280, Note_on_c, 0, 41, 0
3, 101280, Note_on_c, 0, 54, 82
3, 101730, Note_on_c, 0, 40, 62
3, 101745, Note_on_c, 0, 47, 63
3, 101760, Note_on_c, 0, 54, 0
3, 101760, Note_on_c, 0, 35, 0
3, 101760, Note_on_c, 0, 55, 90
3, 102210, Note_on_c, 0, 45, 55
3, 102225, Note_on_c, 0, 52, 56
3, 102240, Note_on_c, 0, 55, 0
3, 102240, Note_on_c, 0, 47, 0
3, 102240, Note_on_c, 0, 40, 0
3, 102240, Note_on_c, 0, 61, 82
3, 102690, Note_on_c, 0, 50, 62
3, 102705, Note_on_c, 0, 57, 66
3, 102720, Note_on_c, 0, 61, 0
3, 102720, Note_on_c, 0, 52, 0
3, 102720, Note_on_c, 0, 45, 0
3, 102720, Note_on_c, 0, 62, 89
3, 103170, Note_on_c, 0, 45, 55
3, 103185, Note_on_c, 0, 52, 55
3, 103200, Note_on_c, 0, 62, 0
3, 103200, Note_on_c, 0, 57, 0
3, 103200, Note_on_c, 0, 50, 0
3, 103200, Note_on_c, 0, 60, 82
3, 103680, Note_on_c, 0, 60, 0
3, 103680, Note_on_c, 0, 45, 0
3, 103680, Note_on_c, 0, 52, 0
3, 103680, Note_on_c, 0, 38, 80
3, 103680, Note_on_c, 0, 50, 94
3, 103751, Control_c, 0, 64, 127
3, 103920, Note_on_c, 0, 50, 0
3, 103920, Note_on_c, 0, 38, 0
3, 104160, Note_on_c, 0, 53, 77
3, 104160, Note_on_c, 0, 65, 90
3, 104640, Note_on_c, 0, 65, 0
3, 104640, Note_on_c, 0, 53, 0
3, 104640, Note_on_c, 0, 46, 74
3, 104640, Note_on_c, 0, 58, 88
3, 104880, Note_on_c, 0, 58, 0
3, 104880, Note_on_c, 0, 46, 0
3, 105000, Note_on_c, 0, 48, 79
3, 105000, Note_on_c, 0, 60, 93
3, 105004, Control_c, 0, 64, 0
3, 105120, Note_on_c, 0, 60, 0
3, 105120, Note_on_c, 0, 48, 0
3, 105120, Note_on_c, 0, 47, 74
3, 105120, Note_on_c, 0, 59, 89
3, 105600, Note_on_c, 0, 59, 0
3, 105600, Note_on_c, 0, 47, 0
3, 105600, Note_on_c, 0, 39, 80
3, 105600, Note_on_c, 0, 51, 94
3, 105646, Control_c, 0, 64, 127
3, 105840, Note_on_c, 0, 51, 0
3, 105840, Note_on_c, 0, 39, 0
3, 106080, Note_on_c, 0, 54, 77
3, 106080, Note_on_c, 0, 66, 90
3, 106560, Note_on_c, 0, 66, 0
3, 106560, Note_on_c, 0, 54, 0
3, 106560, Note_on_c, 0, 45, 74
3, 106560, Note_on_c, 0, 57, 88
3, 106800, Note_on_c, 0, 57, 0
3, 106800, Note_on_c, 0, 45, 0
3, 106920, Note_on_c, 0, 50, 79
3, 106920, Note_on_c, 0, 62, 93
3, 106935, Control_c, 0, 64, 0
3, 107040, Note_on_c, 0, 62, 0
3, 107040, Note_on_c, 0, 50, 0
3, 107040, Note_on_c, 0, 48, 74
3, 107040, Note_on_c, 0, 60, 89
3, 107520, Note_on_c, 0, 60, 0
3, 107520, Note_on_c, 0, 48, 0
3, 107520, Note_on_c, 0, 52, 62
3, 107520, Note_on_c, 0, 40, 62
3, 107575, Control_c, 0, 64, 127
3, 107760, Note_on_c, 0, 40, 0
3, 108000, Note_on_c, 0, 59, 80
3, 108360, Note_on_c, 0, 59, 0
3, 108360, Note_on_c, 0, 64, 77
3, 108480, Note_on_c, 0, 64, 0
3, 108480, Note_on_c, 0, 62, 77
3, 108500, Control_c, 0, 64, 0
3, 109440, Note_on_c, 0, 62, 0
3, 109440, Note_on_c, 0, 52, 0
3, 109440, Note_on_c, 0, 28, 61
3, 109440, Note_on_c, 0, 40, 61
3, 109489, Control_c, 0, 64, 127
3, 109680, Note_on_c, 0, 40, 0
3, 109680, Note_on_c, 0, 28, 0
3, 109920, Note_on_c, 0, 56, 80
3, 110280, Note_on_c, 0, 56, 0
3, 110280, Note_on_c, 0, 61, 77
3, 110400, Note_on_c, 0, 61, 0
3, 110400, Note_on_c, 0, 59, 77
3, 110420, Control_c, 0, 64, 0
3, 111360, Note_on_c, 0, 59, 0
3, 111360, Note_on_c, 0, 40, 74
3, 111840, Note_on_c, 0, 53, 79
3, 112200, Note_on_c, 0, 53, 0
3, 112200, Note_on_c, 0, 53, 77
3, 112320, Note_on_c, 0, 53, 0
3, 112320, Note_on_c, 0, 53, 77
3, 112800, Note_on_c, 0, 53, 0
3, 112800, Note_on_c, 0, 55, 80
3, 113280, Note_on_c, 0, 55, 0
3, 113280, Note_on_c, 0, 53, 79
3, 113760, Note_on_c, 0, 53, 0
3, 113760, Note_on_c, 0, 50, 79
3, 114240, Note_on_c, 0, 50, 0
3, 114240, Note_on_c, 0, 53, 77
3, 115199, Note_on_c, 0, 40, 82
3, 115200, Note_on_c, 0, 53, 0
3, 115200, Note_on_c, 0, 40, 0
3, 115235, Control_c, 0, 64, 127
3, 115279, Note_on_c, 0, 40, 0
3, 115279, Note_on_c, 0, 47, 70
3, 115359, Note_on_c, 0, 44, 79
3, 115375, Note_on_c, 0, 47, 0
3, 115442, Note_on_c, 0, 50, 68
3, 115455, Note_on_c, 0, 44, 0
3, 115521, Note_on_c, 0, 44, 74
3, 115538, Note_on_c, 0, 50, 0
3, 115598, Note_on_c, 0, 50, 68
3, 115617, Note_on_c, 0, 44, 0
3, 115679, Note_on_c, 0, 47, 74
3, 115686, Control_c, 0, 64, 0
3, 115694, Note_on_c, 0, 50, 0
3, 115732, Control_c, 0, 64, 127
3, 115761, Note_on_c, 0, 53, 66
3, 115775, Note_on_c, 0, 47, 0
3, 115839, Note_on_c, 0, 47, 74
3, 115857, Note_on_c, 0, 53, 0
3, 115921, Note_on_c, 0, 53, 67
3, 115935, Note_on_c, 0, 47, 0
3, 115998, Note_on_c, 0, 50, 74
3, 116017, Note_on_c, 0, 53, 0
3, 116080, Note_on_c, 0, 56, 66
3, 116094, Note_on_c, 0, 50, 0
3, 116160, Note_on_c, 0, 50, 74
3, 116169, Control_c, 0, 64, 0
3, 116176, Note_on_c, 0, 56, 0
3, 116212, Control_c, 0, 64, 127
3, 116239, Note_on_c, 0, 56, 66
3, 116256, Note_on_c, 0, 50, 0
3, 116322, Note_on_c, 0, 53, 74
3, 116335, Note_on_c, 0, 56, 0
3, 116403, Note_on_c, 0, 59, 66
3, 116418, Note_on_c, 0, 53, 0
3, 116481, Note_on_c, 0, 53, 73
3, 116499, Note_on_c, 0, 59, 0
3, 116563, Note_on_c, 0, 59, 63
3, 116577, Note_on_c, 0, 53, 0
3, 116642, Note_on_c, 0, 56, 73
3, 116643, Control_c, 0, 64, 0
3, 116659, Note_on_c, 0, 59, 0
3, 116686, Control_c, 0, 64, 127
3, 116721, Note_on_c, 0, 62, 63
3, 116738, Note_on_c, 0, 56, 0
3, 116801, Note_on_c, 0, 56, 72
3, 116817, Note_on_c, 0, 62, 0
3, 116881, Note_on_c, 0, 62, 63
3, 116897, Note_on_c, 0, 56, 0
3, 116961, Note_on_c, 0, 59, 72
3, 116977, Note_on_c, 0, 62, 0
3, 117039, Note_on_c, 0, 65, 63
3, 117057, Note_on_c, 0, 59, 0
3, 117119, Note_on_c, 0, 59, 72
3, 117131, Control_c, 0, 64, 0
3, 117135, Note_on_c, 0, 65, 0
3, 117177, Control_c, 0, 64, 127
3, 117199, Note_on_c, 0, 65, 64
3, 117215, Note_on_c, 0, 59, 0
3, 117279, Note_on_c, 0, 62, 72
3, 117295, Note_on_c, 0, 65, 0
3, 117360, Note_on_c, 0, 68, 63
3, 117375, Note_on_c, 0, 62, 0
3, 117442, Note_on_c, 0, 62, 72
3, 117456, Note_on_c, 0, 68, 0
3, 117519, Note_on_c, 0, 68, 63
3, 117538, Note_on_c, 0, 62, 0
3, 117602, Note_on_c, 0, 65, 72
3, 117612, Control_c, 0, 64, 0
3, 117615, Note_on_c, 0, 68, 0
3, 117657, Control_c, 0, 64, 127
3, 117679, Note_on_c, 0, 71, 63
3, 117698, Note_on_c, 0, 65, 0
3, 117758, Note_on_c, 0, 65, 72
3, 117775, Note_on_c, 0, 71, 0
3, 117841, Note_on_c, 0, 71, 63
3, 117854, Note_on_c, 0, 65, 0
3, 117920, Note_on_c, 0, 68, 72
3, 117937, Note_on_c, 0, 71, 0
3, 118000, Note_on_c, 0, 74, 63
3, 118016, Note_on_c, 0, 68, 0
3, 118080, Note_on_c, 0, 80, 88
3, 118100, Control_c, 0, 64, 0
3, 118200, Note_on_c, 0, 80, 0
3, 118240, Note_on_c, 0, 74, 0
3, 119040, Note_on_c, 0, 35, 82
3, 119086, Control_c, 0, 64, 127
3, 119122, Note_on_c, 0, 41, 67
3, 119136, Note_on_c, 0, 35, 0
3, 119199, Note_on_c, 0, 38, 79
3, 119218, Note_on_c, 0, 41, 0
3, 119279, Note_on_c, 0, 44, 67
3, 119295, Note_on_c, 0, 38, 0
3, 119359, Note_on_c, 0, 38, 79
3, 119375, Note_on_c, 0, 44, 0
3, 119439, Note_on_c, 0, 44, 67
3, 119455, Note_on_c, 0, 38, 0
3, 119522, Note_on_c, 0, 41, 74
3, 119532, Control_c, 0, 64, 0
3, 119535, Note_on_c, 0, 44, 0
3, 119569, Control_c, 0, 64, 127
3, 119600, Note_on_c, 0, 47, 67
3, 119618, Note_on_c, 0, 41, 0
3, 119678, Note_on_c, 0, 41, 74
3, 119696, Note_on_c, 0, 47, 0
3, 119763, Note_on_c, 0, 47, 68
3, 119774, Note_on_c, 0, 41, 0
3, 119838, Note_on_c, 0, 44, 74
3, 119859, Note_on_c, 0, 47, 0
3, 119921, Note_on_c, 0, 50, 67
3, 119934, Note_on_c, 0, 44, 0
3, 120001, Note_on_c, 0, 44, 74
3, 120015, Control_c, 0, 64, 0
3, 120017, Note_on_c, 0, 50, 0
3, 120060, Control_c, 0, 64, 127
3, 120080, Note_on_c, 0, 50, 66
3, 120097, Note_on_c, 0, 44, 0
3, 120160, Note_on_c, 0, 47, 74
3, 120176, Note_on_c, 0, 50, 0
3, 120240, Note_on_c, 0, 53, 64
3, 120256, Note_on_c, 0, 47, 0
3, 120321, Note_on_c, 0, 47, 73
3, 120336, Note_on_c, 0, 53, 0
3, 120402, Note_on_c, 0, 53, 66
3, 120417, Note_on_c, 0, 47, 0
3, 120452, Control_c, 0, 64, 0
3, 120479, Note_on_c, 0, 50, 73
3, 120487, Control_c, 0, 64, 127
3, 120498, Note_on_c, 0, 53, 0
3, 120561, Note_on_c, 0, 56, 64
3, 120575, Note_on_c, 0, 50, 0
3, 120638, Note_on_c, 0, 50, 72
3, 120657, Note_on_c, 0, 56, 0
3, 120721, Note_on_c, 0, 56, 64
3, 120734, Note_on_c, 0, 50, 0
3, 120800, Note_on_c, 0, 53, 72
3, 120817, Note_on_c, 0, 56, 0
3, 120883, Note_on_c, 0, 59, 64
3, 120896, Note_on_c, 0, 53, 0
3, 120960, Note_on_c, 0, 53, 73
3, 120968, Control_c, 0, 64, 0
3, 120979, Note_on_c, 0, 59, 0
3, 121012, Control_c, 0, 64, 127
3, 121040, Note_on_c, 0, 59, 64
3, 121056, Note_on_c, 0, 53, 0
3, 121121, Note_on_c, 0, 56, 72
3, 121136, Note_on_c, 0, 59, 0
3, 121202, Note_on_c, 0, 62, 64
3, 121217, Note_on_c, 0, 56, 0
3, 121278, Note_on_c, 0, 56, 72
3, 121298, Note_on_c, 0, 62, 0
3, 121358, Note_on_c, 0, 62, 63
3, 121374, Note_on_c, 0, 56, 0
3, 121439, Note_on_c, 0, 59, 72
3, 121452, Control_c, 0, 64, 0
3, 121454, Note_on_c, 0, 62, 0
3, 121495, Control_c, 0, 64, 127
3, 121522, Note_on_c, 0, 65, 63
3, 121535, Note_on_c, 0, 59, 0
3, 121603, Note_on_c, 0, 59, 72
3, 121618, Note_on_c, 0, 65, 0
3, 121679, Note_on_c, 0, 65, 63
3, 121699, Note_on_c, 0, 59, 0
3, 121759, Note_on_c, 0, 62, 72
3, 121775, Note_on_c, 0, 65, 0
3, 121841, Note_on_c, 0, 68, 63
3, 121920, Note_on_c, 0, 65, 71
3, 121920, Note_on_c, 0, 71, 81
3, 121921, Note_on_c, 0, 68, 0
3, 121946, Control_c, 0, 64, 0
3, 122040, Note_on_c, 0, 71, 0
3, 122040, Note_on_c, 0, 65, 0
3, 122095, Note_on_c, 0, 62, 0
3, 122880, Note_on_c, 0, 65, 60
3, 122960, Note_on_c, 0, 65, 0
3, 122960, Note_on_c, 0, 62, 53
3, 123040, Note_on_c, 0, 62, 0
3, 123040, Note_on_c, 0, 64, 60
3, 123120, Note_on_c, 0, 64, 0
3, 123120, Note_on_c, 0, 59, 60
3, 123360, Note_on_c, 0, 59, 0
3, 123840, Note_on_c, 0, 65, 60
3, 123920, Note_on_c, 0, 65, 0
3, 123920, Note_on_c, 0, 62, 52
3, 124000, Note_on_c, 0, 62, 0
3, 124000, Note_on_c, 0, 64, 60
3, 124080, Note_on_c, 0, 64, 0
3, 124080, Note_on_c, 0, 59, 60
3, 124320, Note_on_c, 0, 59, 0
3, 124801, Note_on_c, 0, 65, 48
3, 124881, Note_on_c, 0, 65, 0
3, 124883, Note_on_c, 0, 62, 48
3, 124962, Note_on_c, 0, 64, 48
3, 124963, Note_on_c, 0, 62, 0
3, 125040, Note_on_c, 0, 59, 49
3, 125042, Note_on_c, 0, 64, 0
3, 125120, Note_on_c, 0, 59, 0
3, 125123, Note_on_c, 0, 65, 49
3, 125199, Note_on_c, 0, 62, 50
3, 125203, Note_on_c, 0, 65, 0
3, 125279, Note_on_c, 0, 62, 0
3, 125280, Note_on_c, 0, 64, 50
3, 125360, Note_on_c, 0, 64, 0
3, 125360, Note_on_c, 0, 59, 50
3, 125440, Note_on_c, 0, 59, 0
3, 125442, Note_on_c, 0, 65, 51
3, 125519, Note_on_c, 0, 62, 51
3, 125522, Note_on_c, 0, 65, 0
3, 125599, Note_on_c, 0, 62, 0
3, 125603, Note_on_c, 0, 64, 52
3, 125679, Note_on_c, 0, 59, 52
3, 125683, Note_on_c, 0, 64, 0
3, 125759, Note_on_c, 0, 59, 0
3, 125759, Note_on_c, 0, 65, 53
3, 125839, Note_on_c, 0, 65, 0
3, 125842, Note_on_c, 0, 62, 53
3, 125922, Note_on_c, 0, 62, 0
3, 125922, Note_on_c, 0, 64, 53
3, 126001, Note_on_c, 0, 59, 55
3, 126002, Note_on_c, 0, 64, 0
3, 126081, Note_on_c, 0, 59, 0
3, 126082, Note_on_c, 0, 65, 55
3, 126158, Note_on_c, 0, 62, 56
3, 126162, Note_on_c, 0, 65, 0
3, 126238, Note_on_c, 0, 62, 0
3, 126239, Note_on_c, 0, 64, 56
3, 126319, Note_on_c, 0, 64, 0
3, 126319, Note_on_c, 0, 59, 56
3, 126399, Note_on_c, 0, 59, 0
3, 126403, Note_on_c, 0, 65, 57
3, 126483, Note_on_c, 0, 65, 0
3, 126483, Note_on_c, 0, 62, 57
3, 126561, Note_on_c, 0, 64, 58
3, 126563, Note_on_c, 0, 62, 0
3, 126641, Note_on_c, 0, 64, 0
3, 126642, Note_on_c, 0, 59, 58
3, 126719, Note_on_c, 0, 65, 59
3, 126722, Note_on_c, 0, 59, 0
3, 126757, Control_c, 0, 64, 127
3, 126803, Note_on_c, 0, 64, 59
3, 126815, Note_on_c, 0, 65, 0
3, 126880, Note_on_c, 0, 63, 59
3, 126899, Note_on_c, 0, 64, 0
3, 126958, Note_on_c, 0, 62, 60
3, 126976, Note_on_c, 0, 63, 0
3, 127042, Note_on_c, 0, 61, 60
3, 127054, Note_on_c, 0, 62, 0
3, 127118, Note_on_c, 0, 60, 61
3, 127138, Note_on_c, 0, 61, 0
3, 127199, Note_on_c, 0, 59, 61
3, 127214, Note_on_c, 0, 60, 0
3, 127280, Note_on_c, 0, 58, 62
3, 127295, Note_on_c, 0, 59, 0
3, 127361, Note_on_c, 0, 57, 62
3, 127376, Note_on_c, 0, 58, 0
3, 127441, Note_on_c, 0, 56, 62
3, 127457, Note_on_c, 0, 57, 0
3, 127520, Note_on_c, 0, 55, 63
3, 127537, Note_on_c, 0, 56, 0
3, 127598, Note_on_c, 0, 54, 63
3, 127616, Note_on_c, 0, 55, 0
3, 127683, Note_on_c, 0, 53, 64
3, 127694, Note_on_c, 0, 54, 0
3, 127758, Note_on_c, 0, 52, 64
3, 127779, Note_on_c, 0, 53, 0
3, 127838, Note_on_c, 0, 51, 64
3, 127854, Note_on_c, 0, 52, 0
3, 127923, Note_on_c, 0, 50, 66
3, 127934, Note_on_c, 0, 51, 0
3, 128000, Note_on_c, 0, 49, 66
3, 128019, Note_on_c, 0, 50, 0
3, 128082, Note_on_c, 0, 48, 67
3, 128096, Note_on_c, 0, 49, 0
3, 128159, Note_on_c, 0, 47, 67
3, 128178, Note_on_c, 0, 48, 0
3, 128238, Note_on_c, 0, 46, 68
3, 128255, Note_on_c, 0, 47, 0
3, 128320, Note_on_c, 0, 45, 68
3, 128334, Note_on_c, 0, 46, 0
3, 128402, Note_on_c, 0, 44, 68
3, 128416, Note_on_c, 0, 45, 0
3, 128481, Note_on_c, 0, 43, 69
3, 128498, Note_on_c, 0, 44, 0
3, 128562, Note_on_c, 0, 42, 69
3, 128577, Note_on_c, 0, 43, 0
3, 128643, Note_on_c, 0, 41, 70
3, 128648, Control_c, 0, 64, 0
3, 128658, Note_on_c, 0, 42, 0
3, 128686, Control_c, 0, 64, 127
3, 128719, Note_on_c, 0, 40, 70
3, 128723, Note_on_c, 0, 41, 0
3, 128799, Note_on_c, 0, 40, 0
3, 128800, Note_on_c, 0, 39, 70
3, 128880, Note_on_c, 0, 39, 0
3, 128883, Note_on_c, 0, 40, 71
3, 128958, Note_on_c, 0, 41, 71
3, 128963, Note_on_c, 0, 40, 0
3, 129038, Note_on_c, 0, 41, 0
3, 129043, Note_on_c, 0, 40, 72
3, 129121, Note_on_c, 0, 39, 72
3, 129123, Note_on_c, 0, 40, 0
3, 129199, Note_on_c, 0, 40, 73
3, 129201, Note_on_c, 0, 39, 0
3, 129278, Note_on_c, 0, 41, 73
3, 129279, Note_on_c, 0, 40, 0
3, 129358, Note_on_c, 0, 41, 0
3, 129359, Note_on_c, 0, 40, 73
3, 129439, Note_on_c, 0, 40, 0
3, 129439, Note_on_c, 0, 39, 74
3, 129519, Note_on_c, 0, 39, 0
3, 129519, Note_on_c, 0, 40, 74
3, 129599, Note_on_c, 0, 40, 0
3, 129599, Note_on_c, 0, 41, 75
3, 129612, Control_c, 0, 64, 0
3, 129649, Control_c, 0, 64, 127
3, 129679, Note_on_c, 0, 41, 0
3, 129683, Note_on_c, 0, 40, 75
3, 129761, Note_on_c, 0, 39, 77
3, 129763, Note_on_c, 0, 40, 0
3, 129841, Note_on_c, 0, 39, 0
3, 129842, Note_on_c, 0, 40, 77
3, 129919, Note_on_c, 0, 41, 77
3, 129922, Note_on_c, 0, 40, 0
3, 129999, Note_on_c, 0, 41, 0
3, 130002, Note_on_c, 0, 40, 78
3, 130082, Note_on_c, 0, 40, 0
3, 130082, Note_on_c, 0, 39, 78
3, 130162, Note_on_c, 0, 39, 0
3, 130163, Note_on_c, 0, 40, 79
3, 130243, Note_on_c, 0, 40, 0
3, 130243, Note_on_c, 0, 41, 79
3, 130323, Note_on_c, 0, 41, 0
3, 130323, Note_on_c, 0, 40, 79
3, 130399, Note_on_c, 0, 39, 80
3, 130403, Note_on_c, 0, 40, 0
3, 130478, Note_on_c, 0, 40, 80
3, 130479, Note_on_c, 0, 39, 0
3, 130558, Note_on_c, 0, 40, 0
3, 130560, Note_on_c, 0, 33, 119
3, 130564, Control_c, 0, 64, 0
3, 130629, Control_c, 0, 64, 127
3, 130800, Note_on_c, 0, 33, 0
3, 131040, Note_on_c, 0, 64, 92
3, 131040, Note_on_c, 0, 60, 77
3, 131040, Note_on_c, 0, 57, 77
3, 131400, Note_on_c, 0, 57, 0
3, 131400, Note_on_c, 0, 60, 0
3, 131400, Note_on_c, 0, 64, 0
3, 131400, Note_on_c, 0, 57, 73
3, 131400, Note_on_c, 0, 60, 73
3, 131400, Note_on_c, 0, 64, 86
3, 131520, Note_on_c, 0, 64, 0
3, 131520, Note_on_c, 0, 60, 0
3, 131520, Note_on_c, 0, 57, 0
3, 131520, Note_on_c, 0, 64, 92
3, 131520, Note_on_c, 0, 60, 77
3, 131520, Note_on_c, 0, 57, 77
3, 132000, Note_on_c, 0, 57, 0
3, 132000, Note_on_c, 0, 60, 0
3, 132000, Note_on_c, 0, 64, 0
3, 132000, Note_on_c, 0, 57, 82
3, 132000, Note_on_c, 0, 60, 82
3, 132000, Note_on_c, 0, 65, 97
3, 132017, Control_c, 0, 64, 0
3, 132480, Note_on_c, 0, 65, 0
3, 132480, Note_on_c, 0, 60, 0
3, 132480, Note_on_c, 0, 57, 0
3, 132480, Note_on_c, 0, 57, 77
3, 132480, Note_on_c, 0, 60, 77
3, 132480, Note_on_c, 0, 64, 92
3, 132960, Note_on_c, 0, 64, 0
3, 132960, Note_on_c, 0, 60, 0
3, 132960, Note_on_c, 0, 57, 0
3, 132960, Note_on_c, 0, 52, 73
3, 132960, Note_on_c, 0, 57, 73
3, 132960, Note_on_c, 0, 60, 86
3, 133440, Note_on_c, 0, 60, 0
3, 133440, Note_on_c, 0, 57, 0
3, 133440, Note_on_c, 0, 52, 0
3, 133440, Note_on_c, 0, 57, 73
3, 133440, Note_on_c, 0, 60, 73
3, 133440, Note_on_c, 0, 64, 86
3, 134400, Note_on_c, 0, 64, 0
3, 134400, Note_on_c, 0, 60, 0
3, 134400, Note_on_c, 0, 57, 0
3, 134400, Note_on_c, 0, 33, 72
3, 134455, Control_c, 0, 64, 127
3, 134640, Note_on_c, 0, 33, 0
3, 134880, Note_on_c, 0, 45, 49
3, 134880, Note_on_c, 0, 52, 69
3, 135240, Note_on_c, 0, 52, 0
3, 135240, Note_on_c, 0, 45, 0
3, 135240, Note_on_c, 0, 45, 42
3, 135240, Note_on_c, 0, 52, 61
3, 135360, Note_on_c, 0, 52, 0
3, 135360, Note_on_c, 0, 45, 0
3, 135360, Note_on_c, 0, 45, 50
3, 135360, Note_on_c, 0, 52, 70
3, 135840, Note_on_c, 0, 52, 0
3, 135840, Note_on_c, 0, 45, 0
3, 135840, Note_on_c, 0, 45, 42
3, 135840, Note_on_c, 0, 53, 62
3, 135860, Control_c, 0, 64, 0
3, 136320, Note_on_c, 0, 53, 0
3, 136320, Note_on_c, 0, 45, 0
3, 136320, Note_on_c, 0, 45, 41
3, 136320, Note_on_c, 0, 52, 58
3, 136800, Note_on_c, 0, 52, 0
3, 136800, Note_on_c, 0, 45, 0
3, 136800, Note_on_c, 0, 33, 55
3, 137280, Note_on_c, 0, 40, 58
3, 138240, Note_on_c, 0, 40, 0
3, 138240, Note_on_c, 0, 33, 0
3, 138240, Note_on_c, 0, 32, 69
3, 138279, Control_c, 0, 64, 127
3, 138480, Note_on_c, 0, 32, 0
3, 138720, Note_on_c, 0, 53, 66
3, 138720, Note_on_c, 0, 62, 77
3, 138738, Control_c, 0, 64, 0
3, 138808, Control_c, 0, 64, 127
3, 139080, Note_on_c, 0, 62, 0
3, 139080, Note_on_c, 0, 53, 0
3, 139080, Note_on_c, 0, 53, 61
3, 139080, Note_on_c, 0, 62, 73
3, 139200, Note_on_c, 0, 62, 0
3, 139200, Note_on_c, 0, 53, 0
3, 139200, Note_on_c, 0, 53, 66
3, 139200, Note_on_c, 0, 60, 77
3, 139218, Control_c, 0, 64, 0
3, 139680, Note_on_c, 0, 60, 0
3, 139680, Note_on_c, 0, 53, 0
3, 139680, Note_on_c, 0, 33, 77
3, 139680, Note_on_c, 0, 45, 77
3, 140160, Note_on_c, 0, 45, 0
3, 140160, Note_on_c, 0, 33, 0
3, 140160, Note_on_c, 0, 32, 66
3, 140160, Note_on_c, 0, 44, 66
3, 140217, Control_c, 0, 64, 127
3, 140400, Note_on_c, 0, 44, 0
3, 140400, Note_on_c, 0, 32, 0
3, 140640, Note_on_c, 0, 55, 73
3, 140640, Note_on_c, 0, 62, 66
3, 140644, Control_c, 0, 64, 0
3, 140704, Control_c, 0, 64, 127
3, 140800, Note_on_c, 0, 62, 0
3, 140800, Note_on_c, 0, 55, 0
3, 140800, Note_on_c, 0, 53, 72
3, 140800, Note_on_c, 0, 62, 60
3, 140960, Note_on_c, 0, 62, 0
3, 140960, Note_on_c, 0, 53, 0
3, 140960, Note_on_c, 0, 52, 73
3, 140960, Note_on_c, 0, 62, 61
3, 141120, Note_on_c, 0, 62, 0
3, 141120, Note_on_c, 0, 52, 0
3, 141120, Note_on_c, 0, 52, 77
3, 141120, Note_on_c, 0, 60, 66
3, 141138, Control_c, 0, 64, 0
3, 141600, Note_on_c, 0, 60, 0
3, 141600, Note_on_c, 0, 52, 0
3, 141600, Note_on_c, 0, 33, 67
3, 141600, Note_on_c, 0, 45, 79
3, 142080, Note_on_c, 0, 45, 0
3, 142080, Note_on_c, 0, 33, 0
3, 142080, Note_on_c, 0, 35, 68
3, 142080, Note_on_c, 0, 47, 68
3, 142117, Control_c, 0, 64, 127
3, 142320, Note_on_c, 0, 47, 0
3, 142320, Note_on_c, 0, 35, 0
3, 142560, Note_on_c, 0, 56, 60
3, 142560, Note_on_c, 0, 59, 60
3, 142560, Note_on_c, 0, 64, 70
3, 142570, Control_c, 0, 64, 0
3, 142603, Control_c, 0, 64, 127
3, 142720, Note_on_c, 0, 64, 0
3, 142720, Note_on_c, 0, 68, 66
3, 142880, Note_on_c, 0, 68, 0
3, 142880, Note_on_c, 0, 73, 70
3, 143040, Note_on_c, 0, 73, 0
3, 143040, Note_on_c, 0, 59, 0
3, 143040, Note_on_c, 0, 56, 0
3, 143040, Note_on_c, 0, 59, 60
3, 143040, Note_on_c, 0, 63, 60
3, 143040, Note_on_c, 0, 71, 70
3, 143040, Note_on_c, 0, 69, 70
3, 143052, Control_c, 0, 64, 0
3, 143109, Control_c, 0, 64, 127
3, 143520, Note_on_c, 0, 69, 0
3, 143520, Note_on_c, 0, 59, 0
3, 143520, Note_on_c, 0, 63, 0
3, 143520, Note_on_c, 0, 71, 0
3, 143520, Note_on_c, 0, 47, 66
3, 143520, Note_on_c, 0, 59, 77
3, 144000, Note_on_c, 0, 59, 0
3, 144000, Note_on_c, 0, 47, 0
3, 144000, Note_on_c, 0, 40, 66
3, 144000, Note_on_c, 0, 52, 77
3, 144007, Control_c, 0, 64, 0
3, 144052, Control_c, 0, 64, 127
3, 144240, Note_on_c, 0, 52, 0
3, 144240, Note_on_c, 0, 40, 0
3, 144480, Note_on_c, 0, 68, 67
3, 144480, Note_on_c, 0, 59, 56
3, 144492, Control_c, 0, 64, 0
3, 144529, Control_c, 0, 64, 127
3, 144640, Note_on_c, 0, 59, 0
3, 144640, Note_on_c, 0, 68, 0
3, 144640, Note_on_c, 0, 67, 58
3, 144640, Note_on_c, 0, 58, 49
3, 144800, Note_on_c, 0, 58, 0
3, 144800, Note_on_c, 0, 67, 0
3, 144800, Note_on_c, 0, 68, 63
3, 144800, Note_on_c, 0, 59, 55
3, 144960, Note_on_c, 0, 59, 0
3, 144960, Note_on_c, 0, 68, 0
3, 144960, Note_on_c, 0, 52, 65
3, 144960, Note_on_c, 0, 56, 65
3, 144960, Note_on_c, 0, 64, 74
3, 144968, Control_c, 0, 64, 0
3, 145017, Control_c, 0, 64, 127
3, 145171, Control_c, 0, 64, 0
3, 145200, Note_on_c, 0, 64, 0
3, 145200, Note_on_c, 0, 56, 0
3, 145200, Note_on_c, 0, 52, 0
3, 145920, Note_on_c, 0, 33, 99
3, 145946, Control_c, 0, 64, 127
3, 146160, Note_on_c, 0, 33, 0
3, 146400, Note_on_c, 0, 64, 84
3, 146400, Note_on_c, 0, 60, 70
3, 146400, Note_on_c, 0, 57, 70
3, 146760, Note_on_c, 0, 57, 0
3, 146760, Note_on_c, 0, 60, 0
3, 146760, Note_on_c, 0, 64, 0
3, 146760, Note_on_c, 0, 57, 67
3, 146760, Note_on_c, 0, 60, 67
3, 146760, Note_on_c, 0, 64, 79
3, 146880, Note_on_c, 0, 64, 0
3, 146880, Note_on_c, 0, 60, 0
3, 146880, Note_on_c, 0, 57, 0
3, 146880, Note_on_c, 0, 64, 84
3, 146880, Note_on_c, 0, 60, 70
3, 146880, Note_on_c, 0, 57, 70
3, 147360, Note_on_c, 0, 57, 0
3, 147360, Note_on_c, 0, 60, 0
3, 147360, Note_on_c, 0, 64, 0
3, 147360, Note_on_c, 0, 57, 74
3, 147360, Note_on_c, 0, 60, 74
3, 147360, Note_on_c, 0, 65, 88
3, 147372, Control_c, 0, 64, 0
3, 147840, Note_on_c, 0, 65, 0
3, 147840, Note_on_c, 0, 60, 0
3, 147840, Note_on_c, 0, 57, 0
3, 147840, Note_on_c, 0, 57, 70
3, 147840, Note_on_c, 0, 60, 70
3, 147840, Note_on_c, 0, 64, 84
3, 148320, Note_on_c, 0, 64, 0
3, 148320, Note_on_c, 0, 60, 0
3, 148320, Note_on_c, 0, 57, 0
3, 148320, Note_on_c, 0, 52, 67
3, 148320, Note_on_c, 0, 57, 67
3, 148320, Note_on_c, 0, 60, 79
3, 148800, Note_on_c, 0, 60, 0
3, 148800, Note_on_c, 0, 57, 0
3, 148800, Note_on_c, 0, 52, 0
3, 148800, Note_on_c, 0, 57, 67
3, 148800, Note_on_c, 0, 60, 67
3, 148800, Note_on_c, 0, 64, 79
3, 149760, Note_on_c, 0, 64, 0
3, 149760, Note_on_c, 0, 60, 0
3, 149760, Note_on_c, 0, 57, 0
3, 149760, Note_on_c, 0, 31, 69
3, 149803, Control_c, 0, 64, 127
3, 150000, Note_on_c, 0, 31, 0
3, 150240, Note_on_c, 0, 43, 58
3, 150240, Note_on_c, 0, 52, 69
3, 150255, Control_c, 0, 64, 0
3, 150300, Control_c, 0, 64, 127
3, 150600, Note_on_c, 0, 52, 0
3, 150600, Note_on_c, 0, 43, 0
3, 150600, Note_on_c, 0, 43, 50
3, 150600, Note_on_c, 0, 52, 61
3, 150720, Note_on_c, 0, 52, 0
3, 150720, Note_on_c, 0, 43, 0
3, 150720, Note_on_c, 0, 43, 60
3, 150720, Note_on_c, 0, 52, 70
3, 151200, Note_on_c, 0, 52, 0
3, 151200, Note_on_c, 0, 53, 62
3, 151217, Control_c, 0, 64, 0
3, 151680, Note_on_c, 0, 53, 0
3, 151680, Note_on_c, 0, 43, 58
3, 151680, Note_on_c, 0, 52, 58
3, 152160, Note_on_c, 0, 52, 0
3, 152160, Note_on_c, 0, 43, 0
3, 152160, Note_on_c, 0, 48, 58
3, 152640, Note_on_c, 0, 48, 0
3, 152640, Note_on_c, 0, 43, 0
3, 152640, Note_on_c, 0, 41, 58
3, 153120, Note_on_c, 0, 41, 0
3, 153120, Note_on_c, 0, 40, 58
3, 153600, Note_on_c, 0, 40, 0
3, 153600, Note_on_c, 0, 38, 63
3, 153646, Control_c, 0, 64, 127
3, 153840, Note_on_c, 0, 38, 0
3, 154080, Note_on_c, 0, 65, 63
3, 154080, Note_on_c, 0, 57, 63
3, 154097, Control_c, 0, 64, 0
3, 154140, Control_c, 0, 64, 127
3, 154240, Note_on_c, 0, 57, 0
3, 154240, Note_on_c, 0, 65, 0
3, 154240, Note_on_c, 0, 49, 62
3, 154400, Note_on_c, 0, 49, 0
3, 154400, Note_on_c, 0, 50, 63
3, 154560, Note_on_c, 0, 50, 0
3, 154560, Note_on_c, 0, 51, 69
3, 154560, Note_on_c, 0, 66, 58
3, 154560, Note_on_c, 0, 57, 58
3, 154566, Control_c, 0, 64, 0
3, 154606, Control_c, 0, 64, 127
3, 155040, Note_on_c, 0, 57, 0
3, 155040, Note_on_c, 0, 66, 0
3, 155040, Note_on_c, 0, 51, 0
3, 155040, Note_on_c, 0, 39, 72
3, 155520, Note_on_c, 0, 39, 0
3, 155520, Note_on_c, 0, 40, 73
3, 155527, Control_c, 0, 64, 0
3, 155592, Control_c, 0, 64, 127
3, 155760, Note_on_c, 0, 40, 0
3, 156000, Note_on_c, 0, 67, 67
3, 156000, Note_on_c, 0, 58, 79
3, 156012, Control_c, 0, 64, 0
3, 156052, Control_c, 0, 64, 127
3, 156160, Note_on_c, 0, 58, 0
3, 156160, Note_on_c, 0, 67, 0
3, 156160, Note_on_c, 0, 51, 79
3, 156320, Note_on_c, 0, 51, 0
3, 156320, Note_on_c, 0, 52, 79
3, 156480, Note_on_c, 0, 52, 0
3, 156480, Note_on_c, 0, 53, 81
3, 156480, Note_on_c, 0, 70, 68
3, 156480, Note_on_c, 0, 58, 68
3, 156480, Note_on_c, 0, 62, 68
3, 156483, Control_c, 0, 64, 0
3, 156537, Control_c, 0, 64, 127
3, 156960, Note_on_c, 0, 62, 0
3, 156960, Note_on_c, 0, 53, 0
3, 156960, Note_on_c, 0, 70, 0
3, 156960, Note_on_c, 0, 58, 0
3, 156960, Note_on_c, 0, 41, 70
3, 156960, Note_on_c, 0, 53, 82
3, 157440, Note_on_c, 0, 53, 0
3, 157440, Note_on_c, 0, 41, 0
3, 157440, Note_on_c, 0, 29, 80
3, 157440, Note_on_c, 0, 41, 96
3, 157449, Control_c, 0, 64, 0
3, 157512, Control_c, 0, 64, 127
3, 157680, Note_on_c, 0, 41, 0
3, 157680, Note_on_c, 0, 29, 0
3, 157920, Note_on_c, 0, 53, 89
3, 157920, Note_on_c, 0, 65, 89
3, 158280, Note_on_c, 0, 65, 0
3, 158280, Note_on_c, 0, 53, 0
3, 158280, Note_on_c, 0, 53, 89
3, 158280, Note_on_c, 0, 65, 89
3, 158400, Note_on_c, 0, 65, 0
3, 158400, Note_on_c, 0, 53, 0
3, 158400, Note_on_c, 0, 53, 89
3, 158400, Note_on_c, 0, 65, 89
3, 158880, Note_on_c, 0, 65, 0
3, 158880, Note_on_c, 0, 53, 0
3, 158880, Note_on_c, 0, 53, 75
3, 158880, Note_on_c, 0, 60, 75
3, 158880, Note_on_c, 0, 67, 90
3, 158897, Control_c, 0, 64, 0
3, 159360, Note_on_c, 0, 67, 0
3, 159360, Note_on_c, 0, 60, 0
3, 159360, Note_on_c, 0, 53, 0
3, 159360, Note_on_c, 0, 53, 94
3, 159360, Note_on_c, 0, 65, 94
3, 159840, Note_on_c, 0, 65, 0
3, 159840, Note_on_c, 0, 53, 0
3, 159840, Note_on_c, 0, 48, 90
3, 159840, Note_on_c, 0, 60, 90
3, 160320, Note_on_c, 0, 60, 0
3, 160320, Note_on_c, 0, 48, 0
3, 160320, Note_on_c, 0, 53, 92
3, 160320, Note_on_c, 0, 65, 92
3, 161278, Note_on_c, 0, 41, 58
3, 161280, Note_on_c, 0, 65, 0
3, 161280, Note_on_c, 0, 53, 0
3, 161317, Control_c, 0, 64, 127
3, 161358, Note_on_c, 0, 41, 0
3, 161358, Note_on_c, 0, 47, 45
3, 161438, Note_on_c, 0, 47, 0
3, 161441, Note_on_c, 0, 45, 53
3, 161519, Note_on_c, 0, 51, 46
3, 161521, Note_on_c, 0, 45, 0
3, 161599, Note_on_c, 0, 51, 0
3, 161602, Note_on_c, 0, 45, 55
3, 161682, Note_on_c, 0, 45, 0
3, 161682, Note_on_c, 0, 51, 49
3, 161762, Note_on_c, 0, 51, 0
3, 161762, Note_on_c, 0, 47, 56
3, 161841, Note_on_c, 0, 53, 49
3, 161842, Note_on_c, 0, 47, 0
3, 161918, Note_on_c, 0, 47, 56
3, 161921, Note_on_c, 0, 53, 0
3, 161998, Note_on_c, 0, 47, 0
3, 161999, Note_on_c, 0, 53, 50
3, 162079, Note_on_c, 0, 53, 0
3, 162083, Note_on_c, 0, 51, 57
3, 162160, Note_on_c, 0, 57, 50
3, 162163, Note_on_c, 0, 51, 0
3, 162240, Note_on_c, 0, 57, 0
3, 162242, Note_on_c, 0, 51, 58
3, 162249, Control_c, 0, 64, 0
3, 162292, Control_c, 0, 64, 127
3, 162322, Note_on_c, 0, 51, 0
3, 162323, Note_on_c, 0, 57, 50
3, 162403, Note_on_c, 0, 57, 0
3, 162403, Note_on_c, 0, 53, 58
3, 162480, Note_on_c, 0, 59, 51
3, 162483, Note_on_c, 0, 53, 0
3, 162560, Note_on_c, 0, 59, 0
3, 162560, Note_on_c, 0, 53, 60
3, 162640, Note_on_c, 0, 53, 0
3, 162642, Note_on_c, 0, 59, 51
3, 162722, Note_on_c, 0, 59, 0
3, 162722, Note_on_c, 0, 57, 61
3, 162800, Note_on_c, 0, 63, 52
3, 162802, Note_on_c, 0, 57, 0
3, 162880, Note_on_c, 0, 63, 0
3, 162882, Note_on_c, 0, 57, 61
3, 162959, Note_on_c, 0, 63, 55
3, 162962, Note_on_c, 0, 57, 0
3, 163039, Note_on_c, 0, 63, 0
3, 163040, Note_on_c, 0, 59, 62
3, 163118, Note_on_c, 0, 65, 53
3, 163120, Note_on_c, 0, 59, 0
3, 163198, Note_on_c, 0, 65, 0
3, 163202, Note_on_c, 0, 59, 62
3, 163213, Control_c, 0, 64, 0
3, 163257, Control_c, 0, 64, 127
3, 163279, Note_on_c, 0, 65, 56
3, 163282, Note_on_c, 0, 59, 0
3, 163358, Note_on_c, 0, 63, 63
3, 163359, Note_on_c, 0, 65, 0
3, 163438, Note_on_c, 0, 63, 0
3, 163439, Note_on_c, 0, 69, 56
3, 163519, Note_on_c, 0, 69, 0
3, 163521, Note_on_c, 0, 63, 64
3, 163601, Note_on_c, 0, 63, 0
3, 163602, Note_on_c, 0, 69, 57
3, 163679, Note_on_c, 0, 65, 64
3, 163682, Note_on_c, 0, 69, 0
3, 163759, Note_on_c, 0, 65, 0
3, 163759, Note_on_c, 0, 71, 58
3, 163839, Note_on_c, 0, 71, 0
3, 163840, Note_on_c, 0, 65, 66
3, 163920, Note_on_c, 0, 65, 0
3, 163922, Note_on_c, 0, 71, 58
3, 164001, Note_on_c, 0, 69, 67
3, 164002, Note_on_c, 0, 71, 0
3, 164080, Note_on_c, 0, 75, 58
3, 164081, Note_on_c, 0, 69, 0
3, 164160, Note_on_c, 0, 75, 0
3, 164163, Note_on_c, 0, 69, 67
3, 164169, Control_c, 0, 64, 0
3, 164220, Control_c, 0, 64, 127
3, 164239, Note_on_c, 0, 75, 58
3, 164243, Note_on_c, 0, 69, 0
3, 164319, Note_on_c, 0, 75, 0
3, 164323, Note_on_c, 0, 71, 68
3, 164401, Note_on_c, 0, 77, 60
3, 164403, Note_on_c, 0, 71, 0
3, 164481, Note_on_c, 0, 77, 0
3, 164481, Note_on_c, 0, 71, 69
3, 164560, Note_on_c, 0, 77, 62
3, 164561, Note_on_c, 0, 71, 0
3, 164640, Note_on_c, 0, 77, 0
3, 164642, Note_on_c, 0, 75, 69
3, 164722, Note_on_c, 0, 75, 0
3, 164722, Note_on_c, 0, 81, 62
3, 164802, Note_on_c, 0, 81, 0
3, 164802, Note_on_c, 0, 75, 70
3, 164880, Note_on_c, 0, 81, 63
3, 164882, Note_on_c, 0, 75, 0
3, 164958, Note_on_c, 0, 77, 72
3, 164960, Note_on_c, 0, 81, 0
3, 165038, Note_on_c, 0, 77, 0
3, 165041, Note_on_c, 0, 83, 63
3, 165119, Note_on_c, 0, 69, 89
3, 165119, Note_on_c, 0, 76, 89
3, 165120, Note_on_c, 0, 64, 89
3, 165121, Note_on_c, 0, 83, 0
3, 165121, Note_on_c, 0, 72, 89
3, 165123, Control_c, 0, 64, 0
3, 165180, Control_c, 0, 64, 127
3, 165359, Note_on_c, 0, 69, 0
3, 165359, Note_on_c, 0, 76, 0
3, 165359, Control_c, 0, 64, 0
3, 165360, Note_on_c, 0, 64, 0
3, 165361, Note_on_c, 0, 72, 0
3, 165443, Note_on_c, 0, 86, 79
3, 165470, Control_c, 0, 64, 127
3, 165522, Note_on_c, 0, 81, 69
3, 165523, Note_on_c, 0, 86, 0
3, 165600, Note_on_c, 0, 84, 79
3, 165602, Note_on_c, 0, 81, 0
3, 165679, Note_on_c, 0, 76, 70
3, 165680, Note_on_c, 0, 84, 0
3, 165759, Note_on_c, 0, 76, 0
3, 165760, Note_on_c, 0, 83, 79
3, 165840, Note_on_c, 0, 83, 0
3, 165841, Note_on_c, 0, 76, 71
3, 165921, Note_on_c, 0, 76, 0
3, 165923, Note_on_c, 0, 81, 79
3, 166003, Note_on_c, 0, 81, 0
3, 166003, Note_on_c, 0, 72, 70
3, 166082, Note_on_c, 0, 77, 79
3, 166083, Note_on_c, 0, 72, 0
3, 166087, Control_c, 0, 64, 0
3, 166123, Control_c, 0, 64, 127
3, 166162, Note_on_c, 0, 77, 0
3, 166163, Note_on_c, 0, 72, 70
3, 166243, Note_on_c, 0, 72, 0
3, 166243, Note_on_c, 0, 76, 79
3, 166321, Note_on_c, 0, 69, 70
3, 166323, Note_on_c, 0, 76, 0
3, 166398, Note_on_c, 0, 74, 79
3, 166401, Note_on_c, 0, 69, 0
3, 166478, Note_on_c, 0, 74, 0
3, 166479, Note_on_c, 0, 69, 72
3, 166559, Note_on_c, 0, 69, 0
3, 166559, Note_on_c, 0, 72, 79
3, 166639, Note_on_c, 0, 72, 0
3, 166642, Note_on_c, 0, 64, 70
3, 166719, Note_on_c, 0, 71, 79
3, 166722, Note_on_c, 0, 64, 0
3, 166799, Note_on_c, 0, 71, 0
3, 166799, Note_on_c, 0, 64, 71
3, 166879, Note_on_c, 0, 64, 0
3, 166880, Note_on_c, 0, 69, 79
3, 166960, Note_on_c, 0, 69, 0
3, 166963, Note_on_c, 0, 60, 71
3, 167039, Note_on_c, 0, 65, 79
3, 167043, Note_on_c, 0, 60, 0
3, 167119, Note_on_c, 0, 65, 0
3, 167119, Note_on_c, 0, 60, 71
3, 167199, Note_on_c, 0, 60, 0
3, 167203, Note_on_c, 0, 64, 79
3, 167279, Note_on_c, 0, 57, 71
3, 167283, Note_on_c, 0, 64, 0
3, 167359, Note_on_c, 0, 57, 0
3, 167363, Note_on_c, 0, 62, 79
3, 167442, Note_on_c, 0, 57, 71
3, 167443, Note_on_c, 0, 62, 0
3, 167518, Note_on_c, 0, 60, 79
3, 167522, Note_on_c, 0, 57, 0
3, 167598, Note_on_c, 0, 60, 0
3, 167601, Note_on_c, 0, 52, 71
3, 167679, Note_on_c, 0, 59, 79
3, 167681, Note_on_c, 0, 52, 0
3, 167759, Note_on_c, 0, 59, 0
3, 167760, Note_on_c, 0, 52, 70
3, 167839, Note_on_c, 0, 57, 79
3, 167840, Note_on_c, 0, 52, 0
3, 167919, Note_on_c, 0, 57, 0
3, 167922, Note_on_c, 0, 48, 70
3, 168000, Note_on_c, 0, 40, 73
3, 168000, Note_on_c, 0, 52, 86
3, 168002, Note_on_c, 0, 48, 0
3, 168014, Control_c, 0, 64, 0
3, 168060, Control_c, 0, 64, 127
3, 168480, Note_on_c, 0, 52, 0
3, 168480, Note_on_c, 0, 40, 0
3, 168480, Note_on_c, 0, 28, 73
3, 168480, Note_on_c, 0, 40, 86
3, 168499, Control_c, 0, 64, 0
3, 168568, Control_c, 0, 64, 127
3, 168960, Note_on_c, 0, 40, 0
3, 168960, Note_on_c, 0, 28, 0
3, 168963, Note_on_c, 0, 33, 101
3, 168969, Control_c, 0, 64, 0
3, 169026, Control_c, 0, 64, 127
3, 169081, Note_on_c, 0, 40, 77
3, 169083, Note_on_c, 0, 33, 0
3, 169198, Note_on_c, 0, 48, 77
3, 169201, Note_on_c, 0, 40, 0
3, 169318, Note_on_c, 0, 48, 0
3, 169320, Note_on_c, 0, 40, 77
3, 169440, Note_on_c, 0, 40, 0
3, 169442, Note_on_c, 0, 33, 88
3, 169457, Control_c, 0, 64, 0
3, 169503, Control_c, 0, 64, 127
3, 169562, Note_on_c, 0, 33, 0
3, 169562, Note_on_c, 0, 40, 77
3, 169682, Note_on_c, 0, 40, 0
3, 169683, Note_on_c, 0, 48, 77
3, 169803, Note_on_c, 0, 48, 0
3, 169803, Note_on_c, 0, 40, 77
3, 169918, Note_on_c, 0, 33, 97
3, 169923, Note_on_c, 0, 40, 0
3, 169937, Control_c, 0, 64, 0
3, 169986, Control_c, 0, 64, 127
3, 170038, Note_on_c, 0, 33, 0
3, 170041, Note_on_c, 0, 40, 77
3, 170161, Note_on_c, 0, 40, 0
3, 170163, Note_on_c, 0, 48, 77
3, 170281, Note_on_c, 0, 40, 77
3, 170283, Note_on_c, 0, 48, 0
3, 170401, Note_on_c, 0, 40, 0
3, 170401, Note_on_c, 0, 33, 89
3, 170417, Control_c, 0, 64, 0
3, 170463, Control_c, 0, 64, 127
3, 170521, Note_on_c, 0, 33, 0
3, 170521, Note_on_c, 0, 40, 77
3, 170639, Note_on_c, 0, 48, 77
3, 170641, Note_on_c, 0, 40, 0
3, 170759, Note_on_c, 0, 48, 0
3, 170762, Note_on_c, 0, 40, 77
3, 170882, Note_on_c, 0, 40, 0
3, 170883, Control_c, 0, 64, 0
3, 170883, Note_on_c, 0, 33, 101
3, 170940, Control_c, 0, 64, 127
3, 171003, Note_on_c, 0, 33, 0
3, 171003, Note_on_c, 0, 40, 77
3, 171118, Note_on_c, 0, 48, 77
3, 171123, Note_on_c, 0, 40, 0
3, 171238, Note_on_c, 0, 48, 0
3, 171240, Note_on_c, 0, 40, 77
3, 171360, Note_on_c, 0, 40, 0
3, 171360, Note_on_c, 0, 28, 101
3, 171369, Control_c, 0, 64, 0
3, 171423, Control_c, 0, 64, 127
3, 171480, Note_on_c, 0, 28, 0
3, 171480, Note_on_c, 0, 40, 77
3, 171598, Note_on_c, 0, 48, 77
3, 171600, Note_on_c, 0, 40, 0
3, 171718, Note_on_c, 0, 48, 0
3, 171719, Note_on_c, 0, 40, 77
3, 171839, Note_on_c, 0, 40, 0
3, 171842, Note_on_c, 0, 33, 96
3, 171852, Control_c, 0, 64, 0
3, 171915, Control_c, 0, 64, 127
3, 171958, Note_on_c, 0, 40, 77
3, 171962, Note_on_c, 0, 33, 0
3, 172078, Note_on_c, 0, 40, 0
3, 172083, Note_on_c, 0, 48, 77
3, 172200, Note_on_c, 0, 40, 77
3, 172203, Note_on_c, 0, 48, 0
3, 172320, Note_on_c, 0, 40, 0
3, 172321, Note_on_c, 0, 48, 83
3, 172329, Control_c, 0, 64, 0
3, 172375, Control_c, 0, 64, 127
3, 172440, Note_on_c, 0, 40, 73
3, 172441, Note_on_c, 0, 48, 0
3, 172560, Note_on_c, 0, 40, 0
3, 172562, Note_on_c, 0, 48, 71
3, 172681, Note_on_c, 0, 40, 70
3, 172682, Note_on_c, 0, 48, 0
3, 172801, Note_on_c, 0, 40, 0
3, 172801, Note_on_c, 0, 33, 78
3, 172810, Control_c, 0, 64, 0
3, 172863, Control_c, 0, 64, 127
3, 172920, Note_on_c, 0, 40, 68
3, 172921, Note_on_c, 0, 33, 0
3, 173040, Note_on_c, 0, 40, 0
3, 173042, Note_on_c, 0, 48, 67
3, 173162, Note_on_c, 0, 48, 0
3, 173163, Note_on_c, 0, 40, 66
3, 173281, Note_on_c, 0, 33, 72
3, 173283, Note_on_c, 0, 40, 0
3, 173289, Control_c, 0, 64, 0
3, 173346, Control_c, 0, 64, 127
3, 173401, Note_on_c, 0, 33, 0
3, 173402, Note_on_c, 0, 40, 63
3, 173522, Note_on_c, 0, 40, 0
3, 173522, Note_on_c, 0, 48, 62
3, 173642, Note_on_c, 0, 48, 0
3, 173643, Note_on_c, 0, 40, 61
3, 173759, Note_on_c, 0, 33, 69
3, 173763, Note_on_c, 0, 40, 0
3, 173778, Control_c, 0, 64, 0
3, 173820, Control_c, 0, 64, 127
3, 173879, Note_on_c, 0, 33, 0
3, 173881, Note_on_c, 0, 40, 60
3, 174001, Note_on_c, 0, 40, 0
3, 174003, Note_on_c, 0, 48, 59
3, 174122, Note_on_c, 0, 40, 58
3, 174123, Note_on_c, 0, 48, 0
3, 174240, Note_on_c, 0, 33, 63
3, 174242, Note_on_c, 0, 40, 0
3, 174257, Control_c, 0, 64, 0
3, 174317, Control_c, 0, 64, 127
3, 174360, Note_on_c, 0, 33, 0
3, 174362, Note_on_c, 0, 40, 52
3, 174481, Note_on_c, 0, 48, 51
3, 174482, Note_on_c, 0, 40, 0
3, 174600, Note_on_c, 0, 40, 50
3, 174601, Note_on_c, 0, 48, 0
3, 174720, Note_on_c, 0, 40, 0
3, 174722, Control_c, 0, 64, 0
3, 174723, Note_on_c, 0, 45, 89
3, 174835, Note_on_c, 0, 45, 0
3, 174881, Note_on_c, 0, 44, 84
3, 174993, Note_on_c, 0, 44, 0
3, 175039, Note_on_c, 0, 43, 88
3, 175151, Note_on_c, 0, 43, 0
3, 175201, Note_on_c, 0, 42, 89
3, 175313, Note_on_c, 0, 42, 0
3, 175362, Note_on_c, 0, 41, 83
3, 175474, Note_on_c, 0, 41, 0
3, 175521, Note_on_c, 0, 40, 84
3, 175633, Note_on_c, 0, 40, 0
3, 175683, Note_on_c, 0, 39, 89
3, 175795, Note_on_c, 0, 39, 0
3, 175841, Note_on_c, 0, 38, 84
3, 175953, Note_on_c, 0, 38, 0
3, 175999, Note_on_c, 0, 37, 84
3, 176111, Note_on_c, 0, 37, 0
3, 176161, Note_on_c, 0, 36, 89
3, 176273, Note_on_c, 0, 36, 0
3, 176319, Note_on_c, 0, 35, 83
3, 176431, Note_on_c, 0, 35, 0
3, 176483, Note_on_c, 0, 34, 83
3, 176595, Note_on_c, 0, 34, 0
3, 176640, Note_on_c, 0, 33, 104
3, 176732, Control_c, 0, 64, 127
3, 177120, Note_on_c, 0, 33, 0
3, 177120, Note_on_c, 0, 33, 76
3, 177120, Note_on_c, 0, 40, 90
3, 177120, Note_on_c, 0, 45, 90
3, 177480, Note_on_c, 0, 45, 0
3, 177480, Note_on_c, 0, 40, 0
3, 177480, Note_on_c, 0, 33, 0
3, 177480, Note_on_c, 0, 33, 73
3, 177480, Note_on_c, 0, 40, 86
3, 177480, Note_on_c, 0, 45, 86
3, 177600, Note_on_c, 0, 45, 0
3, 177600, Note_on_c, 0, 40, 0
3, 177600, Note_on_c, 0, 33, 0
3, 177600, Note_on_c, 0, 33, 76
3, 177600, Note_on_c, 0, 40, 90
3, 177600, Note_on_c, 0, 45, 90
3, 178080, Note_on_c, 0, 45, 0
3, 178080, Note_on_c, 0, 40, 0
3, 178080, Note_on_c, 0, 33, 0
3, 178080, Note_on_c, 0, 33, 74
3, 178080, Note_on_c, 0, 38, 88
3, 178080, Note_on_c, 0, 45, 88
3, 178097, Control_c, 0, 64, 0
3, 178186, Control_c, 0, 64, 127
3, 178560, Note_on_c, 0, 45, 0
3, 178560, Note_on_c, 0, 38, 0
3, 178560, Note_on_c, 0, 33, 0
3, 178560, Note_on_c, 0, 33, 76
3, 178560, Note_on_c, 0, 40, 90
3, 178560, Note_on_c, 0, 45, 90
3, 178577, Control_c, 0, 64, 0
3, 178880, Control_c, 0, 64, 127
3, 179520, Note_on_c, 0, 45, 0
3, 179520, Note_on_c, 0, 40, 0
3, 179520, Note_on_c, 0, 33, 0
3, 179520, Note_on_c, 0, 33, 74
3, 179520, Note_on_c, 0, 41, 88
3, 179520, Note_on_c, 0, 45, 88
3, 179534, Control_c, 0, 64, 0
3, 179947, Control_c, 0, 64, 127
3, 180480, Note_on_c, 0, 45, 0
3, 180480, Note_on_c, 0, 41, 0
3, 180480, Note_on_c, 0, 33, 0
3, 180480, Note_on_c, 0, 33, 76
3, 180480, Note_on_c, 0, 40, 90
3, 180480, Note_on_c, 0, 45, 90
3, 180497, Control_c, 0, 64, 0
3, 180675, Control_c, 0, 64, 127
3, 181440, Note_on_c, 0, 33, 68
3, 181458, Control_c, 0, 64, 0
3, 181558, Note_on_c, 0, 35, 68
3, 181584, Note_on_c, 0, 33, 0
3, 181679, Note_on_c, 0, 36, 69
3, 181702, Note_on_c, 0, 35, 0
3, 181801, Note_on_c, 0, 38, 69
3, 181823, Note_on_c, 0, 36, 0
3, 181922, Note_on_c, 0, 40, 70
3, 181945, Note_on_c, 0, 38, 0
3, 182040, Note_on_c, 0, 42, 72
3, 182066, Note_on_c, 0, 40, 0
3, 182160, Note_on_c, 0, 44, 72
3, 182184, Note_on_c, 0, 42, 0
3, 182278, Note_on_c, 0, 45, 73
3, 182304, Note_on_c, 0, 44, 0
3, 182402, Note_on_c, 0, 47, 73
3, 182422, Note_on_c, 0, 45, 0
3, 182520, Note_on_c, 0, 48, 74
3, 182546, Note_on_c, 0, 47, 0
3, 182639, Note_on_c, 0, 50, 74
3, 182664, Note_on_c, 0, 48, 0
3, 182763, Note_on_c, 0, 52, 74
3, 182783, Note_on_c, 0, 50, 0
3, 182881, Note_on_c, 0, 54, 75
3, 182907, Note_on_c, 0, 52, 0
3, 183001, Note_on_c, 0, 56, 75
3, 183025, Note_on_c, 0, 54, 0
3, 183123, Note_on_c, 0, 57, 78
3, 183145, Note_on_c, 0, 56, 0
3, 183241, Note_on_c, 0, 59, 78
3, 183267, Note_on_c, 0, 57, 0
3, 183359, Note_on_c, 0, 60, 79
3, 183385, Note_on_c, 0, 59, 0
3, 183479, Note_on_c, 0, 62, 80
3, 183503, Note_on_c, 0, 60, 0
3, 183599, Note_on_c, 0, 64, 80
3, 183623, Note_on_c, 0, 62, 0
3, 183721, Note_on_c, 0, 66, 81
3, 183743, Note_on_c, 0, 64, 0
3, 183841, Note_on_c, 0, 68, 81
3, 183865, Note_on_c, 0, 66, 0
3, 183961, Note_on_c, 0, 69, 81
3, 183985, Note_on_c, 0, 68, 0
3, 184082, Note_on_c, 0, 71, 81
3, 184105, Note_on_c, 0, 69, 0
3, 184200, Note_on_c, 0, 72, 82
3, 184226, Note_on_c, 0, 71, 0
3, 184321, Note_on_c, 0, 74, 84
3, 184344, Note_on_c, 0, 72, 0
3, 184439, Note_on_c, 0, 76, 84
3, 184465, Note_on_c, 0, 74, 0
3, 184560, Note_on_c, 0, 78, 85
3, 184583, Note_on_c, 0, 76, 0
3, 184680, Note_on_c, 0, 80, 85
3, 184704, Note_on_c, 0, 78, 0
3, 184800, Note_on_c, 0, 45, 0
3, 184800, Note_on_c, 0, 33, 0
3, 184800, Note_on_c, 0, 40, 0
3, 184800, Note_on_c, 0, 81, 93
3, 184824, Note_on_c, 0, 80, 0
3, 185040, Note_on_c, 0, 81, 0
3, 185040, End_track
4, 0, Start_track
4, 0, Title_t, "Chopin: Etude Op, 25, No. 11"
4, 0, End_track
5, 0, Start_track
5, 0, Title_t, "Copyright © 1999 by Bernd Krüger"
5, 0, End_track
6, 0, Start_track
6, 0, Title_t, "http://www.piano-midi.de"
6, 0, End_track
7, 0, Start_track
7, 0, Title_t, "Edition: 2014-02-18"
7, 0, End_track
8, 0, Start_track
8, 0, Title_t, "Spur 7"
8, 0, End_track
0, 0, End_of_file
