0, 0, Header, 1, 8, 480
1, 0, Start_track
1, 0, Title_t, "Chopin Prelude  No. 23, Opus 28"
1, 0, Copyright_t, "Copyright © 2002 by Bernd Krueger "
1, 0, Text_t, "Frederic Chopin"
1, 0, Text_t, "Moderato"
1, 0, Text_t, "Fertiggestellt am  15.12.2002\012"
1, 0, Text_t, "Normierung: 23.12.2002\012"
1, 0, Text_t, "Update am 29.6.2010\012"
1, 0, Text_t, "Update am 23.2.2014\012"
1, 0, Text_t, "Dauer: 0:54 Minuten\012"
1, 0, SMPTE_offset, 96, 0, 3, 0, 0
1, 0, Time_signature, 4, 2, 24, 8
1, 0, Key_signature, -1, "major"
1, 0, Tempo, 400000
1, 1680, Tempo, 576923
1, 1920, Tempo, 542986
1, 2400, Tempo, 537201
1, 3840, Tempo, 530879
1, 4300, Tempo, 558140
1, 4320, Tempo, 563380
1, 4340, Tempo, 560748
1, 4360, Tempo, 558140
1, 4380, Tempo, 555556
1, 4400, Tempo, 552995
1, 4420, Tempo, 550459
1, 4440, Tempo, 547945
1, 4460, Tempo, 545455
1, 4480, Tempo, 542986
1, 4500, Tempo, 540541
1, 4540, Tempo, 542986
1, 4560, Tempo, 545455
1, 4580, Tempo, 547945
1, 4600, Tempo, 550459
1, 4620, Tempo, 552995
1, 4640, Tempo, 555556
1, 4660, Tempo, 558140
1, 4680, Tempo, 560748
1, 4720, Tempo, 563910
1, 4800, Tempo, 543626
1, 6240, Tempo, 535045
1, 6480, Tempo, 547995
1, 6720, Tempo, 535045
1, 7680, Tempo, 535045
1, 7720, Tempo, 543626
1, 8160, Tempo, 530879
1, 8440, Tempo, 545802
1, 8640, Tempo, 535045
1, 8760, Tempo, 555556
1, 9480, Tempo, 574163
1, 9600, Tempo, 543626
1, 10080, Tempo, 537201
1, 11520, Tempo, 530879
1, 12000, Tempo, 566038
1, 12040, Tempo, 563380
1, 12060, Tempo, 560748
1, 12080, Tempo, 558140
1, 12100, Tempo, 555556
1, 12120, Tempo, 552995
1, 12140, Tempo, 550459
1, 12160, Tempo, 547945
1, 12180, Tempo, 545455
1, 12200, Tempo, 542986
1, 12240, Tempo, 552486
1, 12280, Tempo, 554734
1, 12320, Tempo, 557000
1, 12360, Tempo, 559284
1, 12400, Tempo, 563910
1, 12480, Tempo, 543626
1, 13920, Tempo, 535045
1, 14160, Tempo, 547995
1, 14400, Tempo, 535045
1, 15360, Tempo, 535045
1, 15400, Tempo, 543626
1, 15840, Tempo, 530879
1, 16120, Tempo, 545802
1, 16320, Tempo, 535045
1, 16440, Tempo, 552995
1, 17280, Tempo, 543626
1, 17760, Tempo, 537201
1, 19200, Tempo, 530879
1, 19680, Tempo, 563380
1, 19720, Tempo, 560748
1, 19740, Tempo, 558140
1, 19760, Tempo, 555556
1, 19780, Tempo, 552995
1, 19800, Tempo, 550459
1, 19820, Tempo, 547945
1, 19840, Tempo, 545455
1, 19860, Tempo, 542986
1, 19880, Tempo, 540541
1, 19900, Tempo, 538117
1, 19920, Tempo, 535714
1, 19960, Tempo, 554734
1, 20000, Tempo, 557000
1, 20040, Tempo, 559284
1, 20080, Tempo, 563910
1, 20160, Tempo, 543626
1, 21600, Tempo, 535045
1, 21840, Tempo, 547995
1, 22080, Tempo, 535045
1, 23040, Tempo, 535045
1, 23080, Tempo, 543626
1, 23520, Tempo, 530879
1, 23800, Tempo, 545802
1, 24000, Tempo, 547945
1, 24720, Tempo, 558140
1, 24960, Tempo, 535045
1, 25000, Tempo, 543626
1, 25440, Tempo, 530879
1, 25720, Tempo, 545802
1, 25920, Tempo, 535045
1, 26880, Tempo, 535045
1, 26920, Tempo, 543626
1, 27360, Tempo, 530879
1, 27640, Tempo, 545802
1, 27840, Tempo, 535045
1, 28800, Tempo, 535045
1, 28840, Tempo, 543626
1, 29280, Tempo, 530879
1, 29560, Tempo, 545802
1, 29760, Tempo, 535045
1, 30600, Tempo, 745342
1, 30720, Tempo, 535045
1, 30760, Tempo, 543626
1, 31200, Tempo, 530879
1, 31480, Tempo, 545802
1, 31680, Tempo, 552995
1, 32400, Tempo, 568720
1, 32640, Tempo, 543626
1, 33120, Tempo, 537201
1, 34560, Tempo, 530879
1, 35040, Tempo, 558140
1, 35060, Tempo, 555556
1, 35080, Tempo, 552995
1, 35100, Tempo, 550459
1, 35120, Tempo, 547945
1, 35140, Tempo, 545455
1, 35160, Tempo, 542986
1, 35180, Tempo, 540541
1, 35200, Tempo, 538117
1, 35220, Tempo, 535714
1, 35240, Tempo, 533333
1, 35260, Tempo, 533333
1, 35280, Tempo, 535714
1, 35300, Tempo, 538117
1, 35320, Tempo, 540541
1, 35340, Tempo, 542986
1, 35360, Tempo, 545455
1, 35380, Tempo, 547945
1, 35400, Tempo, 550459
1, 35420, Tempo, 555556
1, 35440, Tempo, 563910
1, 35520, Tempo, 543626
1, 36960, Tempo, 535045
1, 37200, Tempo, 547995
1, 37440, Tempo, 535045
1, 37920, Tempo, 528634
1, 38160, Tempo, 545455
1, 38400, Tempo, 542986
1, 38880, Tempo, 533333
1, 39120, Tempo, 560748
1, 39360, Tempo, 540541
1, 39840, Tempo, 530973
1, 40080, Tempo, 558140
1, 40320, Tempo, 550459
1, 40400, Tempo, 547945
1, 40600, Tempo, 550459
1, 40760, Tempo, 547945
1, 40800, Tempo, 547945
1, 40880, Tempo, 550459
1, 40960, Tempo, 552995
1, 41040, Tempo, 555556
1, 41120, Tempo, 558140
1, 41160, Tempo, 560748
1, 41240, Tempo, 563380
1, 41267, Tempo, 558140
1, 41311, Tempo, 562324
1, 41354, Tempo, 566572
1, 41398, Tempo, 570885
1, 41420, Tempo, 575264
1, 41463, Tempo, 579710
1, 41507, Tempo, 584226
1, 41551, Tempo, 588813
1, 41572, Tempo, 593472
1, 41616, Tempo, 598205
1, 41660, Tempo, 603015
1, 41703, Tempo, 607903
1, 41725, Tempo, 612870
1, 41760, Tempo, 615385
1, 41800, Tempo, 625000
1, 41840, Tempo, 631579
1, 41880, Tempo, 641711
1, 41920, Tempo, 648649
1, 41960, Tempo, 659341
1, 42000, Tempo, 829876
1, 42120, Tempo, 1330377
1, 42240, Tempo, 1008403
1, 42240, End_track
2, 0, Start_track
2, 0, Title_t, "Piano right"
2, 0, Program_c, 0, 0
2, 0, Control_c, 0, 7, 100
2, 0, Control_c, 0, 10, 64
2, 0, Control_c, 0, 64, 0
2, 0, Control_c, 0, 91, 127
2, 0, Text_t, "bdca426d104a26ac9dcb070447587523"
2, 1920, Note_on_c, 0, 72, 40
2, 2040, Note_on_c, 0, 72, 0
2, 2040, Note_on_c, 0, 69, 32
2, 2160, Note_on_c, 0, 69, 0
2, 2160, Note_on_c, 0, 65, 32
2, 2280, Note_on_c, 0, 65, 0
2, 2280, Note_on_c, 0, 62, 33
2, 2400, Note_on_c, 0, 62, 0
2, 2400, Note_on_c, 0, 60, 40
2, 2520, Note_on_c, 0, 60, 0
2, 2520, Note_on_c, 0, 65, 36
2, 2640, Note_on_c, 0, 65, 0
2, 2640, Note_on_c, 0, 77, 40
2, 2760, Note_on_c, 0, 77, 0
2, 2760, Note_on_c, 0, 74, 36
2, 2880, Note_on_c, 0, 74, 0
2, 2880, Note_on_c, 0, 72, 40
2, 3000, Note_on_c, 0, 72, 0
2, 3000, Note_on_c, 0, 69, 32
2, 3120, Note_on_c, 0, 69, 0
2, 3120, Note_on_c, 0, 65, 32
2, 3240, Note_on_c, 0, 65, 0
2, 3240, Note_on_c, 0, 62, 32
2, 3360, Note_on_c, 0, 62, 0
2, 3360, Note_on_c, 0, 60, 40
2, 3480, Note_on_c, 0, 60, 0
2, 3480, Note_on_c, 0, 65, 37
2, 3600, Note_on_c, 0, 65, 0
2, 3600, Note_on_c, 0, 77, 40
2, 3720, Note_on_c, 0, 77, 0
2, 3720, Note_on_c, 0, 74, 36
2, 3840, Note_on_c, 0, 74, 0
2, 3840, Note_on_c, 0, 72, 40
2, 3960, Note_on_c, 0, 72, 0
2, 3960, Note_on_c, 0, 69, 35
2, 4080, Note_on_c, 0, 69, 0
2, 4080, Note_on_c, 0, 65, 34
2, 4200, Note_on_c, 0, 65, 0
2, 4200, Note_on_c, 0, 62, 34
2, 4320, Note_on_c, 0, 62, 0
2, 4320, Note_on_c, 0, 60, 40
2, 4440, Note_on_c, 0, 60, 0
2, 4440, Note_on_c, 0, 65, 35
2, 4560, Note_on_c, 0, 65, 0
2, 4560, Note_on_c, 0, 77, 40
2, 4680, Note_on_c, 0, 77, 0
2, 4680, Note_on_c, 0, 74, 36
2, 4800, Note_on_c, 0, 74, 0
2, 4800, Note_on_c, 0, 72, 40
2, 4920, Note_on_c, 0, 72, 0
2, 4920, Note_on_c, 0, 69, 35
2, 5040, Note_on_c, 0, 69, 0
2, 5040, Note_on_c, 0, 65, 35
2, 5160, Note_on_c, 0, 65, 0
2, 5160, Note_on_c, 0, 62, 35
2, 5280, Note_on_c, 0, 62, 0
2, 5280, Note_on_c, 0, 60, 40
2, 5400, Note_on_c, 0, 60, 0
2, 5400, Note_on_c, 0, 64, 38
2, 5520, Note_on_c, 0, 64, 0
2, 5520, Note_on_c, 0, 70, 40
2, 5640, Note_on_c, 0, 70, 0
2, 5640, Note_on_c, 0, 67, 37
2, 5760, Note_on_c, 0, 67, 0
2, 5760, Note_on_c, 0, 69, 40
2, 5880, Note_on_c, 0, 69, 0
2, 5880, Note_on_c, 0, 65, 37
2, 6000, Note_on_c, 0, 65, 0
2, 6000, Note_on_c, 0, 60, 33
2, 6120, Note_on_c, 0, 60, 0
2, 6120, Note_on_c, 0, 57, 33
2, 6237, Note_on_c, 0, 57, 0
2, 6240, Note_on_c, 0, 60, 37
2, 6360, Note_on_c, 0, 60, 0
2, 6360, Note_on_c, 0, 65, 34
2, 6480, Note_on_c, 0, 65, 0
2, 6480, Note_on_c, 0, 64, 31
2, 6480, Note_on_c, 0, 70, 37
2, 6600, Note_on_c, 0, 70, 0
2, 6600, Note_on_c, 0, 64, 0
2, 6600, Note_on_c, 0, 67, 37
2, 6720, Note_on_c, 0, 67, 0
2, 6720, Note_on_c, 0, 69, 40
2, 6840, Note_on_c, 0, 69, 0
2, 6840, Note_on_c, 0, 65, 38
2, 6960, Note_on_c, 0, 65, 0
2, 6960, Note_on_c, 0, 60, 35
2, 7080, Note_on_c, 0, 60, 0
2, 7080, Note_on_c, 0, 57, 35
2, 7197, Note_on_c, 0, 57, 0
2, 7200, Note_on_c, 0, 60, 37
2, 7320, Note_on_c, 0, 60, 0
2, 7320, Note_on_c, 0, 65, 34
2, 7440, Note_on_c, 0, 65, 0
2, 7440, Note_on_c, 0, 70, 37
2, 7440, Note_on_c, 0, 64, 31
2, 7560, Note_on_c, 0, 64, 0
2, 7560, Note_on_c, 0, 70, 0
2, 7560, Note_on_c, 0, 67, 36
2, 7680, Note_on_c, 0, 67, 0
2, 7680, Note_on_c, 0, 69, 40
2, 7800, Note_on_c, 0, 69, 0
2, 7800, Note_on_c, 0, 65, 37
2, 7920, Note_on_c, 0, 65, 0
2, 7920, Note_on_c, 0, 60, 33
2, 8040, Note_on_c, 0, 60, 0
2, 8040, Note_on_c, 0, 57, 33
2, 8154, Note_on_c, 0, 57, 0
2, 8160, Note_on_c, 0, 60, 37
2, 8280, Note_on_c, 0, 60, 0
2, 8280, Note_on_c, 0, 65, 32
2, 8400, Note_on_c, 0, 65, 0
2, 8400, Note_on_c, 0, 70, 45
2, 8520, Note_on_c, 0, 70, 0
2, 8520, Note_on_c, 0, 68, 41
2, 8640, Note_on_c, 0, 68, 0
2, 8640, Note_on_c, 0, 69, 45
2, 8760, Note_on_c, 0, 69, 0
2, 8760, Note_on_c, 0, 70, 40
2, 8880, Note_on_c, 0, 70, 0
2, 8880, Note_on_c, 0, 74, 45
2, 9000, Note_on_c, 0, 74, 0
2, 9000, Note_on_c, 0, 71, 41
2, 9120, Note_on_c, 0, 71, 0
2, 9120, Note_on_c, 0, 72, 48
2, 9240, Note_on_c, 0, 72, 0
2, 9240, Note_on_c, 0, 76, 46
2, 9360, Note_on_c, 0, 76, 0
2, 9360, Note_on_c, 0, 77, 50
2, 9480, Note_on_c, 0, 77, 0
2, 9480, Note_on_c, 0, 81, 52
2, 9600, Note_on_c, 0, 81, 0
2, 9600, Note_on_c, 0, 79, 52
2, 9720, Note_on_c, 0, 79, 0
2, 9720, Note_on_c, 0, 76, 40
2, 9840, Note_on_c, 0, 76, 0
2, 9840, Note_on_c, 0, 72, 45
2, 9960, Note_on_c, 0, 72, 0
2, 9960, Note_on_c, 0, 69, 41
2, 10080, Note_on_c, 0, 69, 0
2, 10080, Note_on_c, 0, 67, 45
2, 10200, Note_on_c, 0, 67, 0
2, 10200, Note_on_c, 0, 72, 40
2, 10320, Note_on_c, 0, 72, 0
2, 10320, Note_on_c, 0, 84, 48
2, 10440, Note_on_c, 0, 84, 0
2, 10440, Note_on_c, 0, 81, 42
2, 10560, Note_on_c, 0, 81, 0
2, 10560, Note_on_c, 0, 79, 45
2, 10680, Note_on_c, 0, 79, 0
2, 10680, Note_on_c, 0, 76, 41
2, 10800, Note_on_c, 0, 76, 0
2, 10800, Note_on_c, 0, 72, 41
2, 10920, Note_on_c, 0, 72, 0
2, 10920, Note_on_c, 0, 69, 41
2, 11040, Note_on_c, 0, 69, 0
2, 11040, Note_on_c, 0, 67, 45
2, 11160, Note_on_c, 0, 67, 0
2, 11160, Note_on_c, 0, 72, 42
2, 11280, Note_on_c, 0, 72, 0
2, 11280, Note_on_c, 0, 84, 48
2, 11400, Note_on_c, 0, 84, 0
2, 11400, Note_on_c, 0, 81, 41
2, 11520, Note_on_c, 0, 81, 0
2, 11520, Note_on_c, 0, 79, 45
2, 11640, Note_on_c, 0, 79, 0
2, 11640, Note_on_c, 0, 76, 42
2, 11760, Note_on_c, 0, 76, 0
2, 11760, Note_on_c, 0, 72, 42
2, 11880, Note_on_c, 0, 72, 0
2, 11880, Note_on_c, 0, 69, 42
2, 12000, Note_on_c, 0, 69, 0
2, 12000, Note_on_c, 0, 67, 45
2, 12120, Note_on_c, 0, 67, 0
2, 12120, Note_on_c, 0, 72, 41
2, 12240, Note_on_c, 0, 72, 0
2, 12240, Note_on_c, 0, 84, 49
2, 12360, Note_on_c, 0, 84, 0
2, 12360, Note_on_c, 0, 81, 42
2, 12480, Note_on_c, 0, 81, 0
2, 12480, Note_on_c, 0, 79, 45
2, 12600, Note_on_c, 0, 79, 0
2, 12600, Note_on_c, 0, 76, 41
2, 12720, Note_on_c, 0, 76, 0
2, 12720, Note_on_c, 0, 72, 41
2, 12840, Note_on_c, 0, 72, 0
2, 12840, Note_on_c, 0, 69, 41
2, 12960, Note_on_c, 0, 69, 0
2, 12960, Note_on_c, 0, 67, 45
2, 13080, Note_on_c, 0, 67, 0
2, 13080, Note_on_c, 0, 71, 43
2, 13200, Note_on_c, 0, 71, 0
2, 13200, Note_on_c, 0, 77, 45
2, 13320, Note_on_c, 0, 77, 0
2, 13320, Note_on_c, 0, 74, 42
2, 13440, Note_on_c, 0, 74, 0
2, 13440, Note_on_c, 0, 76, 45
2, 13560, Note_on_c, 0, 76, 0
2, 13560, Note_on_c, 0, 72, 42
2, 13680, Note_on_c, 0, 72, 0
2, 13680, Note_on_c, 0, 67, 37
2, 13800, Note_on_c, 0, 67, 0
2, 13800, Note_on_c, 0, 64, 37
2, 13916, Note_on_c, 0, 64, 0
2, 13920, Note_on_c, 0, 67, 42
2, 14040, Note_on_c, 0, 67, 0
2, 14040, Note_on_c, 0, 72, 38
2, 14160, Note_on_c, 0, 72, 0
2, 14160, Note_on_c, 0, 71, 44
2, 14160, Note_on_c, 0, 77, 44
2, 14280, Note_on_c, 0, 77, 0
2, 14280, Note_on_c, 0, 71, 0
2, 14280, Note_on_c, 0, 74, 42
2, 14400, Note_on_c, 0, 74, 0
2, 14400, Note_on_c, 0, 76, 45
2, 14520, Note_on_c, 0, 76, 0
2, 14520, Note_on_c, 0, 72, 43
2, 14640, Note_on_c, 0, 72, 0
2, 14640, Note_on_c, 0, 67, 39
2, 14760, Note_on_c, 0, 67, 0
2, 14760, Note_on_c, 0, 64, 39
2, 14876, Note_on_c, 0, 64, 0
2, 14880, Note_on_c, 0, 67, 42
2, 15000, Note_on_c, 0, 67, 0
2, 15000, Note_on_c, 0, 72, 38
2, 15120, Note_on_c, 0, 72, 0
2, 15120, Note_on_c, 0, 71, 29
2, 15120, Note_on_c, 0, 77, 42
2, 15240, Note_on_c, 0, 77, 0
2, 15240, Note_on_c, 0, 71, 0
2, 15240, Note_on_c, 0, 74, 41
2, 15360, Note_on_c, 0, 74, 0
2, 15360, Note_on_c, 0, 76, 45
2, 15480, Note_on_c, 0, 76, 0
2, 15480, Note_on_c, 0, 72, 42
2, 15600, Note_on_c, 0, 72, 0
2, 15600, Note_on_c, 0, 67, 37
2, 15720, Note_on_c, 0, 67, 0
2, 15720, Note_on_c, 0, 64, 37
2, 15834, Note_on_c, 0, 64, 0
2, 15840, Note_on_c, 0, 67, 42
2, 15960, Note_on_c, 0, 67, 0
2, 15960, Note_on_c, 0, 72, 36
2, 16080, Note_on_c, 0, 72, 0
2, 16080, Note_on_c, 0, 76, 51
2, 16200, Note_on_c, 0, 76, 0
2, 16200, Note_on_c, 0, 79, 49
2, 16320, Note_on_c, 0, 79, 0
2, 16320, Note_on_c, 0, 84, 51
2, 16440, Note_on_c, 0, 84, 0
2, 16440, Note_on_c, 0, 88, 49
2, 16560, Note_on_c, 0, 88, 0
2, 16560, Note_on_c, 0, 86, 51
2, 16680, Note_on_c, 0, 86, 0
2, 16680, Note_on_c, 0, 79, 47
2, 16800, Note_on_c, 0, 79, 0
2, 16800, Note_on_c, 0, 74, 51
2, 16920, Note_on_c, 0, 74, 0
2, 16920, Note_on_c, 0, 79, 47
2, 17040, Note_on_c, 0, 79, 0
2, 17040, Note_on_c, 0, 74, 49
2, 17160, Note_on_c, 0, 74, 0
2, 17160, Note_on_c, 0, 76, 48
2, 17280, Note_on_c, 0, 76, 0
2, 17280, Note_on_c, 0, 84, 52
2, 17400, Note_on_c, 0, 84, 0
2, 17400, Note_on_c, 0, 81, 42
2, 17520, Note_on_c, 0, 81, 0
2, 17520, Note_on_c, 0, 77, 42
2, 17640, Note_on_c, 0, 77, 0
2, 17640, Note_on_c, 0, 74, 43
2, 17760, Note_on_c, 0, 74, 0
2, 17760, Note_on_c, 0, 72, 46
2, 17880, Note_on_c, 0, 72, 0
2, 17880, Note_on_c, 0, 77, 42
2, 18000, Note_on_c, 0, 77, 0
2, 18000, Note_on_c, 0, 89, 51
2, 18120, Note_on_c, 0, 89, 0
2, 18120, Note_on_c, 0, 86, 46
2, 18240, Note_on_c, 0, 86, 0
2, 18240, Note_on_c, 0, 84, 51
2, 18360, Note_on_c, 0, 84, 0
2, 18360, Note_on_c, 0, 81, 46
2, 18480, Note_on_c, 0, 81, 0
2, 18480, Note_on_c, 0, 77, 46
2, 18600, Note_on_c, 0, 77, 0
2, 18600, Note_on_c, 0, 74, 46
2, 18720, Note_on_c, 0, 74, 0
2, 18720, Note_on_c, 0, 72, 51
2, 18840, Note_on_c, 0, 72, 0
2, 18840, Note_on_c, 0, 77, 47
2, 18960, Note_on_c, 0, 77, 0
2, 18960, Note_on_c, 0, 89, 51
2, 19080, Note_on_c, 0, 89, 0
2, 19080, Note_on_c, 0, 86, 46
2, 19200, Note_on_c, 0, 86, 0
2, 19200, Note_on_c, 0, 84, 53
2, 19320, Note_on_c, 0, 84, 0
2, 19320, Note_on_c, 0, 81, 44
2, 19440, Note_on_c, 0, 81, 0
2, 19440, Note_on_c, 0, 77, 44
2, 19560, Note_on_c, 0, 77, 0
2, 19560, Note_on_c, 0, 74, 44
2, 19680, Note_on_c, 0, 74, 0
2, 19680, Note_on_c, 0, 72, 46
2, 19800, Note_on_c, 0, 72, 0
2, 19800, Note_on_c, 0, 77, 43
2, 19920, Note_on_c, 0, 77, 0
2, 19920, Note_on_c, 0, 89, 51
2, 20040, Note_on_c, 0, 89, 0
2, 20040, Note_on_c, 0, 86, 47
2, 20160, Note_on_c, 0, 86, 0
2, 20160, Note_on_c, 0, 84, 51
2, 20280, Note_on_c, 0, 84, 0
2, 20280, Note_on_c, 0, 81, 46
2, 20400, Note_on_c, 0, 81, 0
2, 20400, Note_on_c, 0, 77, 46
2, 20520, Note_on_c, 0, 77, 0
2, 20520, Note_on_c, 0, 74, 46
2, 20640, Note_on_c, 0, 74, 0
2, 20640, Note_on_c, 0, 72, 51
2, 20760, Note_on_c, 0, 72, 0
2, 20760, Note_on_c, 0, 76, 49
2, 20880, Note_on_c, 0, 76, 0
2, 20880, Note_on_c, 0, 82, 51
2, 21000, Note_on_c, 0, 82, 0
2, 21000, Note_on_c, 0, 79, 47
2, 21120, Note_on_c, 0, 79, 0
2, 21120, Note_on_c, 0, 81, 51
2, 21240, Note_on_c, 0, 81, 0
2, 21240, Note_on_c, 0, 77, 44
2, 21360, Note_on_c, 0, 77, 0
2, 21360, Note_on_c, 0, 72, 39
2, 21480, Note_on_c, 0, 72, 0
2, 21480, Note_on_c, 0, 69, 39
2, 21597, Note_on_c, 0, 69, 0
2, 21600, Note_on_c, 0, 72, 44
2, 21720, Note_on_c, 0, 72, 0
2, 21720, Note_on_c, 0, 77, 40
2, 21840, Note_on_c, 0, 77, 0
2, 21840, Note_on_c, 0, 82, 44
2, 21840, Note_on_c, 0, 76, 34
2, 21960, Note_on_c, 0, 76, 0
2, 21960, Note_on_c, 0, 82, 0
2, 21960, Note_on_c, 0, 79, 44
2, 22080, Note_on_c, 0, 79, 0
2, 22080, Note_on_c, 0, 81, 46
2, 22200, Note_on_c, 0, 81, 0
2, 22200, Note_on_c, 0, 77, 45
2, 22320, Note_on_c, 0, 77, 0
2, 22320, Note_on_c, 0, 72, 41
2, 22440, Note_on_c, 0, 72, 0
2, 22440, Note_on_c, 0, 69, 41
2, 22557, Note_on_c, 0, 69, 0
2, 22560, Note_on_c, 0, 72, 44
2, 22680, Note_on_c, 0, 72, 0
2, 22680, Note_on_c, 0, 77, 40
2, 22800, Note_on_c, 0, 77, 0
2, 22800, Note_on_c, 0, 82, 44
2, 22800, Note_on_c, 0, 76, 34
2, 22920, Note_on_c, 0, 76, 0
2, 22920, Note_on_c, 0, 82, 0
2, 22920, Note_on_c, 0, 79, 43
2, 23040, Note_on_c, 0, 79, 0
2, 23040, Note_on_c, 0, 81, 46
2, 23160, Note_on_c, 0, 81, 0
2, 23160, Note_on_c, 0, 77, 44
2, 23280, Note_on_c, 0, 77, 0
2, 23280, Note_on_c, 0, 72, 39
2, 23400, Note_on_c, 0, 72, 0
2, 23400, Note_on_c, 0, 69, 39
2, 23513, Note_on_c, 0, 69, 0
2, 23520, Note_on_c, 0, 72, 47
2, 23640, Note_on_c, 0, 72, 0
2, 23640, Note_on_c, 0, 77, 41
2, 23760, Note_on_c, 0, 77, 0
2, 23760, Note_on_c, 0, 81, 48
2, 23880, Note_on_c, 0, 81, 0
2, 23880, Note_on_c, 0, 84, 46
2, 24000, Note_on_c, 0, 84, 0
2, 24000, Note_on_c, 0, 89, 51
2, 24120, Note_on_c, 0, 89, 0
2, 24120, Note_on_c, 0, 93, 46
2, 24240, Note_on_c, 0, 93, 0
2, 24240, Note_on_c, 0, 91, 48
2, 24360, Note_on_c, 0, 91, 0
2, 24360, Note_on_c, 0, 84, 45
2, 24480, Note_on_c, 0, 84, 0
2, 24480, Note_on_c, 0, 79, 52
2, 24600, Note_on_c, 0, 79, 0
2, 24600, Note_on_c, 0, 84, 46
2, 24720, Note_on_c, 0, 84, 0
2, 24720, Note_on_c, 0, 79, 51
2, 24840, Note_on_c, 0, 79, 0
2, 24840, Note_on_c, 0, 81, 48
2, 24960, Note_on_c, 0, 81, 0
2, 24960, Note_on_c, 0, 89, 48
2, 25080, Note_on_c, 0, 89, 0
2, 25080, Note_on_c, 0, 86, 45
2, 25200, Note_on_c, 0, 86, 0
2, 25200, Note_on_c, 0, 82, 42
2, 25320, Note_on_c, 0, 82, 0
2, 25320, Note_on_c, 0, 79, 42
2, 25440, Note_on_c, 0, 79, 0
2, 25440, Note_on_c, 0, 77, 46
2, 25560, Note_on_c, 0, 77, 0
2, 25560, Note_on_c, 0, 82, 42
2, 25680, Note_on_c, 0, 82, 0
2, 25680, Note_on_c, 0, 94, 48
2, 25800, Note_on_c, 0, 94, 0
2, 25800, Note_on_c, 0, 91, 46
2, 25920, Note_on_c, 0, 91, 0
2, 25920, Note_on_c, 0, 89, 51
2, 26040, Note_on_c, 0, 89, 0
2, 26040, Note_on_c, 0, 86, 46
2, 26160, Note_on_c, 0, 86, 0
2, 26160, Note_on_c, 0, 82, 48
2, 26280, Note_on_c, 0, 82, 0
2, 26280, Note_on_c, 0, 79, 44
2, 26400, Note_on_c, 0, 79, 0
2, 26400, Note_on_c, 0, 77, 47
2, 26520, Note_on_c, 0, 77, 0
2, 26520, Note_on_c, 0, 82, 44
2, 26640, Note_on_c, 0, 82, 0
2, 26640, Note_on_c, 0, 94, 51
2, 26760, Note_on_c, 0, 94, 0
2, 26760, Note_on_c, 0, 91, 48
2, 26880, Note_on_c, 0, 91, 0
2, 26880, Note_on_c, 0, 89, 48
2, 27000, Note_on_c, 0, 89, 0
2, 27000, Note_on_c, 0, 86, 46
2, 27120, Note_on_c, 0, 86, 0
2, 27120, Note_on_c, 0, 83, 43
2, 27240, Note_on_c, 0, 83, 0
2, 27240, Note_on_c, 0, 79, 43
2, 27360, Note_on_c, 0, 79, 0
2, 27360, Note_on_c, 0, 77, 48
2, 27480, Note_on_c, 0, 77, 0
2, 27480, Note_on_c, 0, 79, 43
2, 27600, Note_on_c, 0, 79, 0
2, 27600, Note_on_c, 0, 95, 48
2, 27720, Note_on_c, 0, 95, 0
2, 27720, Note_on_c, 0, 91, 46
2, 27840, Note_on_c, 0, 91, 0
2, 27840, Note_on_c, 0, 89, 51
2, 27960, Note_on_c, 0, 89, 0
2, 27960, Note_on_c, 0, 86, 46
2, 28080, Note_on_c, 0, 86, 0
2, 28080, Note_on_c, 0, 83, 48
2, 28200, Note_on_c, 0, 83, 0
2, 28200, Note_on_c, 0, 79, 45
2, 28320, Note_on_c, 0, 79, 0
2, 28320, Note_on_c, 0, 77, 48
2, 28440, Note_on_c, 0, 77, 0
2, 28440, Note_on_c, 0, 79, 44
2, 28560, Note_on_c, 0, 79, 0
2, 28560, Note_on_c, 0, 95, 51
2, 28680, Note_on_c, 0, 95, 0
2, 28680, Note_on_c, 0, 91, 48
2, 28800, Note_on_c, 0, 91, 0
2, 28800, Note_on_c, 0, 89, 48
2, 28920, Note_on_c, 0, 89, 0
2, 28920, Note_on_c, 0, 86, 46
2, 29040, Note_on_c, 0, 86, 0
2, 29040, Note_on_c, 0, 84, 42
2, 29160, Note_on_c, 0, 84, 0
2, 29160, Note_on_c, 0, 81, 43
2, 29280, Note_on_c, 0, 81, 0
2, 29280, Note_on_c, 0, 79, 48
2, 29400, Note_on_c, 0, 79, 0
2, 29400, Note_on_c, 0, 84, 45
2, 29520, Note_on_c, 0, 84, 0
2, 29520, Note_on_c, 0, 96, 48
2, 29640, Note_on_c, 0, 96, 0
2, 29640, Note_on_c, 0, 93, 46
2, 29760, Note_on_c, 0, 93, 0
2, 29760, Note_on_c, 0, 89, 51
2, 29880, Note_on_c, 0, 89, 0
2, 29880, Note_on_c, 0, 86, 46
2, 30000, Note_on_c, 0, 86, 0
2, 30000, Note_on_c, 0, 84, 48
2, 30120, Note_on_c, 0, 84, 0
2, 30120, Note_on_c, 0, 81, 48
2, 30240, Note_on_c, 0, 81, 0
2, 30240, Note_on_c, 0, 79, 52
2, 30360, Note_on_c, 0, 79, 0
2, 30360, Note_on_c, 0, 84, 46
2, 30480, Note_on_c, 0, 84, 0
2, 30480, Note_on_c, 0, 96, 51
2, 30600, Note_on_c, 0, 96, 0
2, 30600, Note_on_c, 0, 93, 48
2, 30720, Note_on_c, 0, 93, 0
2, 30720, Note_on_c, 0, 89, 51
2, 30840, Note_on_c, 0, 89, 0
2, 30840, Note_on_c, 0, 86, 47
2, 30960, Note_on_c, 0, 86, 0
2, 30960, Note_on_c, 0, 84, 44
2, 31080, Note_on_c, 0, 84, 0
2, 31080, Note_on_c, 0, 81, 44
2, 31197, Note_on_c, 0, 81, 0
2, 31200, Note_on_c, 0, 79, 47
2, 31320, Note_on_c, 0, 79, 0
2, 31320, Note_on_c, 0, 84, 42
2, 31440, Note_on_c, 0, 84, 0
2, 31440, Note_on_c, 0, 96, 51
2, 31560, Note_on_c, 0, 96, 0
2, 31560, Note_on_c, 0, 93, 45
2, 31680, Note_on_c, 0, 93, 0
2, 31680, Note_on_c, 0, 91, 53
2, 31800, Note_on_c, 0, 91, 0
2, 31800, Note_on_c, 0, 88, 45
2, 31920, Note_on_c, 0, 88, 0
2, 31920, Note_on_c, 0, 84, 45
2, 32040, Note_on_c, 0, 84, 0
2, 32040, Note_on_c, 0, 81, 45
2, 32160, Note_on_c, 0, 81, 0
2, 32160, Note_on_c, 0, 79, 51
2, 32280, Note_on_c, 0, 79, 0
2, 32280, Note_on_c, 0, 84, 40
2, 32400, Note_on_c, 0, 84, 0
2, 32400, Note_on_c, 0, 96, 45
2, 32520, Note_on_c, 0, 96, 0
2, 32520, Note_on_c, 0, 91, 37
2, 32640, Note_on_c, 0, 91, 0
2, 32640, Note_on_c, 0, 96, 45
2, 32760, Note_on_c, 0, 96, 0
2, 32760, Note_on_c, 0, 93, 41
2, 32880, Note_on_c, 0, 93, 0
2, 32880, Note_on_c, 0, 89, 41
2, 33000, Note_on_c, 0, 89, 0
2, 33000, Note_on_c, 0, 86, 42
2, 33120, Note_on_c, 0, 86, 0
2, 33120, Note_on_c, 0, 84, 45
2, 33240, Note_on_c, 0, 84, 0
2, 33240, Note_on_c, 0, 89, 41
2, 33360, Note_on_c, 0, 89, 0
2, 33360, Note_on_c, 0, 101, 45
2, 33480, Note_on_c, 0, 101, 0
2, 33480, Note_on_c, 0, 98, 42
2, 33600, Note_on_c, 0, 98, 0
2, 33600, Note_on_c, 0, 96, 45
2, 33720, Note_on_c, 0, 96, 0
2, 33720, Note_on_c, 0, 93, 42
2, 33840, Note_on_c, 0, 93, 0
2, 33840, Note_on_c, 0, 89, 42
2, 33960, Note_on_c, 0, 89, 0
2, 33960, Note_on_c, 0, 86, 42
2, 34080, Note_on_c, 0, 86, 0
2, 34080, Note_on_c, 0, 84, 45
2, 34200, Note_on_c, 0, 84, 0
2, 34200, Note_on_c, 0, 89, 43
2, 34320, Note_on_c, 0, 89, 0
2, 34320, Note_on_c, 0, 101, 45
2, 34440, Note_on_c, 0, 101, 0
2, 34440, Note_on_c, 0, 98, 42
2, 34560, Note_on_c, 0, 98, 0
2, 34560, Note_on_c, 0, 96, 46
2, 34680, Note_on_c, 0, 96, 0
2, 34680, Note_on_c, 0, 93, 43
2, 34800, Note_on_c, 0, 93, 0
2, 34800, Note_on_c, 0, 89, 43
2, 34920, Note_on_c, 0, 89, 0
2, 34920, Note_on_c, 0, 86, 43
2, 35040, Note_on_c, 0, 86, 0
2, 35040, Note_on_c, 0, 84, 45
2, 35160, Note_on_c, 0, 84, 0
2, 35160, Note_on_c, 0, 89, 42
2, 35280, Note_on_c, 0, 89, 0
2, 35280, Note_on_c, 0, 101, 45
2, 35400, Note_on_c, 0, 101, 0
2, 35400, Note_on_c, 0, 98, 43
2, 35520, Note_on_c, 0, 98, 0
2, 35520, Note_on_c, 0, 96, 45
2, 35640, Note_on_c, 0, 96, 0
2, 35640, Note_on_c, 0, 93, 42
2, 35760, Note_on_c, 0, 93, 0
2, 35760, Note_on_c, 0, 89, 42
2, 35880, Note_on_c, 0, 89, 0
2, 35880, Note_on_c, 0, 86, 42
2, 36000, Note_on_c, 0, 86, 0
2, 36000, Note_on_c, 0, 84, 45
2, 36120, Note_on_c, 0, 84, 0
2, 36120, Note_on_c, 0, 88, 44
2, 36240, Note_on_c, 0, 88, 0
2, 36240, Note_on_c, 0, 94, 45
2, 36360, Note_on_c, 0, 94, 0
2, 36360, Note_on_c, 0, 91, 43
2, 36480, Note_on_c, 0, 91, 0
2, 36480, Note_on_c, 0, 93, 45
2, 36600, Note_on_c, 0, 93, 0
2, 36600, Note_on_c, 0, 89, 43
2, 36720, Note_on_c, 0, 89, 0
2, 36720, Note_on_c, 0, 84, 37
2, 36840, Note_on_c, 0, 84, 0
2, 36840, Note_on_c, 0, 81, 37
2, 36960, Note_on_c, 0, 81, 0
2, 36960, Note_on_c, 0, 77, 43
2, 37080, Note_on_c, 0, 77, 0
2, 37080, Note_on_c, 0, 72, 39
2, 37200, Note_on_c, 0, 72, 0
2, 37200, Note_on_c, 0, 76, 33
2, 37200, Note_on_c, 0, 82, 42
2, 37320, Note_on_c, 0, 82, 0
2, 37320, Note_on_c, 0, 76, 0
2, 37320, Note_on_c, 0, 79, 43
2, 37440, Note_on_c, 0, 79, 0
2, 37440, Note_on_c, 0, 81, 45
2, 37560, Note_on_c, 0, 81, 0
2, 37560, Note_on_c, 0, 77, 44
2, 37680, Note_on_c, 0, 77, 0
2, 37680, Note_on_c, 0, 72, 40
2, 37800, Note_on_c, 0, 72, 0
2, 37800, Note_on_c, 0, 69, 40
2, 37920, Note_on_c, 0, 69, 0
2, 37920, Note_on_c, 0, 65, 43
2, 38040, Note_on_c, 0, 65, 0
2, 38040, Note_on_c, 0, 60, 39
2, 38160, Note_on_c, 0, 60, 0
2, 38160, Note_on_c, 0, 70, 42
2, 38160, Note_on_c, 0, 64, 33
2, 38280, Note_on_c, 0, 64, 0
2, 38280, Note_on_c, 0, 70, 0
2, 38280, Note_on_c, 0, 67, 42
2, 38400, Note_on_c, 0, 67, 0
2, 38400, Note_on_c, 0, 69, 45
2, 38520, Note_on_c, 0, 69, 0
2, 38520, Note_on_c, 0, 65, 44
2, 38640, Note_on_c, 0, 65, 0
2, 38640, Note_on_c, 0, 60, 39
2, 38760, Note_on_c, 0, 60, 0
2, 38760, Note_on_c, 0, 57, 39
2, 38877, Note_on_c, 0, 57, 0
2, 38880, Note_on_c, 0, 60, 41
2, 39000, Note_on_c, 0, 60, 0
2, 39000, Note_on_c, 0, 65, 36
2, 39120, Note_on_c, 0, 65, 0
2, 39120, Note_on_c, 0, 70, 39
2, 39120, Note_on_c, 0, 64, 30
2, 39240, Note_on_c, 0, 64, 0
2, 39240, Note_on_c, 0, 70, 0
2, 39240, Note_on_c, 0, 67, 39
2, 39360, Note_on_c, 0, 67, 0
2, 39360, Note_on_c, 0, 69, 42
2, 39480, Note_on_c, 0, 69, 0
2, 39480, Note_on_c, 0, 65, 41
2, 39600, Note_on_c, 0, 65, 0
2, 39600, Note_on_c, 0, 60, 34
2, 39720, Note_on_c, 0, 60, 0
2, 39720, Note_on_c, 0, 57, 34
2, 39837, Note_on_c, 0, 57, 0
2, 39840, Note_on_c, 0, 60, 38
2, 39960, Note_on_c, 0, 60, 0
2, 39960, Note_on_c, 0, 65, 34
2, 40080, Note_on_c, 0, 65, 0
2, 40080, Note_on_c, 0, 70, 35
2, 40080, Note_on_c, 0, 64, 28
2, 40200, Note_on_c, 0, 64, 0
2, 40200, Note_on_c, 0, 70, 0
2, 40200, Note_on_c, 0, 67, 35
2, 40320, Note_on_c, 0, 67, 0
2, 40320, Note_on_c, 0, 69, 38
2, 40440, Note_on_c, 0, 69, 0
2, 40440, Note_on_c, 0, 65, 38
2, 40560, Note_on_c, 0, 65, 0
2, 40560, Note_on_c, 0, 60, 34
2, 40680, Note_on_c, 0, 60, 0
2, 40680, Note_on_c, 0, 57, 34
2, 40800, Note_on_c, 0, 57, 0
2, 40800, Note_on_c, 0, 60, 34
2, 40920, Note_on_c, 0, 60, 0
2, 40920, Note_on_c, 0, 65, 32
2, 41040, Note_on_c, 0, 65, 0
2, 41040, Note_on_c, 0, 69, 36
2, 41160, Note_on_c, 0, 69, 0
2, 41160, Note_on_c, 0, 72, 33
2, 41280, Note_on_c, 0, 72, 0
2, 41280, Note_on_c, 0, 77, 39
2, 41400, Note_on_c, 0, 77, 0
2, 41400, Note_on_c, 0, 81, 34
2, 41520, Note_on_c, 0, 81, 0
2, 41520, Note_on_c, 0, 84, 30
2, 41640, Note_on_c, 0, 84, 0
2, 41640, Note_on_c, 0, 89, 26
2, 41760, Note_on_c, 0, 89, 0
2, 41760, Note_on_c, 0, 93, 33
2, 41880, Note_on_c, 0, 93, 0
2, 41880, Note_on_c, 0, 84, 31
2, 42000, Note_on_c, 0, 84, 0
2, 42000, Note_on_c, 0, 89, 29
2, 42120, Note_on_c, 0, 89, 0
2, 42120, Note_on_c, 0, 81, 26
2, 42240, Note_on_c, 0, 81, 0
2, 42240, Note_on_c, 0, 101, 42
2, 42720, Note_on_c, 0, 101, 0
2, 42720, End_track
3, 0, Start_track
3, 0, Title_t, "Piano left"
3, 0, Program_c, 0, 0
3, 0, Control_c, 0, 7, 100
3, 0, Control_c, 0, 10, 64
3, 1761, Control_c, 0, 64, 127
3, 1800, Note_on_c, 0, 41, 30
3, 1860, Note_on_c, 0, 48, 37
3, 1920, Note_on_c, 0, 57, 44
3, 2880, Note_on_c, 0, 57, 0
3, 2880, Note_on_c, 0, 48, 0
3, 2880, Note_on_c, 0, 41, 0
3, 3840, Note_on_c, 0, 36, 47
3, 3847, Control_c, 0, 64, 0
3, 3886, Control_c, 0, 64, 127
3, 4200, Note_on_c, 0, 47, 33
3, 4260, Note_on_c, 0, 47, 0
3, 4260, Note_on_c, 0, 48, 33
3, 4320, Note_on_c, 0, 48, 0
3, 4320, Note_on_c, 0, 36, 0
3, 4320, Note_on_c, 0, 50, 38
3, 4380, Note_on_c, 0, 50, 0
3, 4380, Note_on_c, 0, 48, 38
3, 4440, Note_on_c, 0, 48, 0
3, 4440, Note_on_c, 0, 50, 39
3, 4500, Note_on_c, 0, 50, 0
3, 4500, Note_on_c, 0, 48, 40
3, 4560, Note_on_c, 0, 48, 0
3, 4560, Note_on_c, 0, 50, 40
3, 4620, Note_on_c, 0, 50, 0
3, 4620, Note_on_c, 0, 48, 41
3, 4680, Note_on_c, 0, 48, 0
3, 4680, Note_on_c, 0, 47, 42
3, 4740, Note_on_c, 0, 47, 0
3, 4740, Note_on_c, 0, 48, 42
3, 4800, Note_on_c, 0, 48, 0
3, 4800, Note_on_c, 0, 48, 36
3, 4800, Note_on_c, 0, 57, 47
3, 4811, Control_c, 0, 64, 0
3, 4894, Control_c, 0, 64, 127
3, 5280, Note_on_c, 0, 57, 0
3, 5280, Note_on_c, 0, 55, 45
3, 5294, Control_c, 0, 64, 0
3, 5349, Control_c, 0, 64, 127
3, 5760, Note_on_c, 0, 55, 0
3, 5760, Note_on_c, 0, 48, 0
3, 5760, Note_on_c, 0, 41, 47
3, 5768, Control_c, 0, 64, 0
3, 5824, Control_c, 0, 64, 127
3, 6000, Note_on_c, 0, 41, 0
3, 6000, Note_on_c, 0, 48, 37
3, 6120, Note_on_c, 0, 48, 0
3, 6120, Note_on_c, 0, 53, 33
3, 6240, Note_on_c, 0, 53, 0
3, 6240, Note_on_c, 0, 57, 41
3, 6480, Note_on_c, 0, 57, 0
3, 6480, Note_on_c, 0, 48, 35
3, 6480, Note_on_c, 0, 55, 41
3, 6495, Control_c, 0, 64, 0
3, 6572, Control_c, 0, 64, 127
3, 6720, Note_on_c, 0, 55, 0
3, 6720, Note_on_c, 0, 48, 0
3, 6720, Note_on_c, 0, 41, 48
3, 6735, Control_c, 0, 64, 0
3, 6819, Control_c, 0, 64, 127
3, 6960, Note_on_c, 0, 41, 0
3, 6960, Note_on_c, 0, 48, 41
3, 7080, Note_on_c, 0, 48, 0
3, 7080, Note_on_c, 0, 53, 36
3, 7200, Note_on_c, 0, 53, 0
3, 7200, Note_on_c, 0, 57, 42
3, 7440, Note_on_c, 0, 57, 0
3, 7440, Note_on_c, 0, 48, 40
3, 7440, Note_on_c, 0, 55, 40
3, 7455, Control_c, 0, 64, 0
3, 7539, Control_c, 0, 64, 127
3, 7680, Note_on_c, 0, 55, 0
3, 7680, Note_on_c, 0, 48, 0
3, 7680, Note_on_c, 0, 41, 47
3, 7689, Control_c, 0, 64, 0
3, 7749, Control_c, 0, 64, 127
3, 7920, Note_on_c, 0, 41, 0
3, 7920, Note_on_c, 0, 48, 45
3, 8040, Note_on_c, 0, 48, 0
3, 8040, Note_on_c, 0, 53, 39
3, 8160, Note_on_c, 0, 53, 0
3, 8160, Note_on_c, 0, 57, 45
3, 8280, Note_on_c, 0, 57, 0
3, 8280, Note_on_c, 0, 53, 40
3, 8400, Note_on_c, 0, 53, 0
3, 8400, Note_on_c, 0, 62, 40
3, 8411, Control_c, 0, 64, 0
3, 8520, Note_on_c, 0, 62, 0
3, 8520, Note_on_c, 0, 59, 35
3, 8640, Note_on_c, 0, 59, 0
3, 8640, Note_on_c, 0, 60, 43
3, 8880, Note_on_c, 0, 60, 0
3, 8880, Note_on_c, 0, 70, 39
3, 9000, Note_on_c, 0, 70, 0
3, 9000, Note_on_c, 0, 68, 36
3, 9120, Note_on_c, 0, 68, 0
3, 9120, Note_on_c, 0, 69, 39
3, 9360, Note_on_c, 0, 69, 0
3, 9480, Note_on_c, 0, 48, 30
3, 9540, Note_on_c, 0, 55, 37
3, 9600, Note_on_c, 0, 64, 45
3, 9646, Control_c, 0, 64, 127
3, 10560, Note_on_c, 0, 64, 0
3, 10560, Note_on_c, 0, 55, 0
3, 10560, Note_on_c, 0, 48, 0
3, 11520, Note_on_c, 0, 43, 47
3, 11528, Control_c, 0, 64, 0
3, 11566, Control_c, 0, 64, 127
3, 11880, Note_on_c, 0, 54, 33
3, 11940, Note_on_c, 0, 54, 0
3, 11940, Note_on_c, 0, 55, 33
3, 12000, Note_on_c, 0, 55, 0
3, 12000, Note_on_c, 0, 43, 0
3, 12000, Note_on_c, 0, 57, 38
3, 12060, Note_on_c, 0, 57, 0
3, 12060, Note_on_c, 0, 55, 38
3, 12120, Note_on_c, 0, 55, 0
3, 12120, Note_on_c, 0, 57, 39
3, 12180, Note_on_c, 0, 57, 0
3, 12180, Note_on_c, 0, 55, 40
3, 12240, Note_on_c, 0, 55, 0
3, 12240, Note_on_c, 0, 57, 40
3, 12300, Note_on_c, 0, 57, 0
3, 12300, Note_on_c, 0, 55, 41
3, 12360, Note_on_c, 0, 55, 0
3, 12360, Note_on_c, 0, 54, 42
3, 12420, Note_on_c, 0, 54, 0
3, 12420, Note_on_c, 0, 55, 42
3, 12480, Note_on_c, 0, 55, 0
3, 12480, Note_on_c, 0, 55, 36
3, 12480, Note_on_c, 0, 64, 47
3, 12494, Control_c, 0, 64, 0
3, 12560, Control_c, 0, 64, 127
3, 12960, Note_on_c, 0, 64, 0
3, 12960, Note_on_c, 0, 62, 45
3, 12975, Control_c, 0, 64, 0
3, 13029, Control_c, 0, 64, 127
3, 13440, Note_on_c, 0, 62, 0
3, 13440, Note_on_c, 0, 55, 0
3, 13440, Note_on_c, 0, 48, 47
3, 13448, Control_c, 0, 64, 0
3, 13504, Control_c, 0, 64, 127
3, 13680, Note_on_c, 0, 48, 0
3, 13680, Note_on_c, 0, 55, 43
3, 13800, Note_on_c, 0, 55, 0
3, 13800, Note_on_c, 0, 60, 39
3, 13920, Note_on_c, 0, 60, 0
3, 13920, Note_on_c, 0, 64, 44
3, 14160, Note_on_c, 0, 64, 0
3, 14160, Note_on_c, 0, 55, 30
3, 14160, Note_on_c, 0, 62, 41
3, 14170, Control_c, 0, 64, 0
3, 14257, Control_c, 0, 64, 127
3, 14400, Note_on_c, 0, 62, 0
3, 14400, Note_on_c, 0, 55, 0
3, 14400, Note_on_c, 0, 48, 48
3, 14416, Control_c, 0, 64, 0
3, 14480, Control_c, 0, 64, 127
3, 14640, Note_on_c, 0, 48, 0
3, 14640, Note_on_c, 0, 55, 42
3, 14760, Note_on_c, 0, 55, 0
3, 14760, Note_on_c, 0, 60, 37
3, 14880, Note_on_c, 0, 60, 0
3, 14880, Note_on_c, 0, 64, 45
3, 15120, Note_on_c, 0, 64, 0
3, 15120, Note_on_c, 0, 55, 29
3, 15120, Note_on_c, 0, 62, 42
3, 15134, Control_c, 0, 64, 0
3, 15211, Control_c, 0, 64, 127
3, 15360, Note_on_c, 0, 62, 0
3, 15360, Note_on_c, 0, 55, 0
3, 15360, Note_on_c, 0, 48, 47
3, 15371, Control_c, 0, 64, 0
3, 15434, Control_c, 0, 64, 127
3, 15520, Note_on_c, 0, 48, 0
3, 15520, Note_on_c, 0, 55, 45
3, 15680, Note_on_c, 0, 55, 0
3, 15680, Note_on_c, 0, 60, 39
3, 15840, Note_on_c, 0, 60, 0
3, 15840, Note_on_c, 0, 64, 47
3, 16000, Note_on_c, 0, 64, 0
3, 16000, Note_on_c, 0, 70, 44
3, 16160, Note_on_c, 0, 70, 0
3, 17160, Note_on_c, 0, 53, 30
3, 17220, Note_on_c, 0, 60, 37
3, 17280, Note_on_c, 0, 69, 46
3, 17280, Control_c, 0, 64, 0
3, 17365, Control_c, 0, 64, 127
3, 18240, Note_on_c, 0, 69, 0
3, 18240, Note_on_c, 0, 60, 0
3, 18240, Note_on_c, 0, 53, 0
3, 19200, Note_on_c, 0, 48, 47
3, 19210, Control_c, 0, 64, 0
3, 19246, Control_c, 0, 64, 127
3, 19560, Note_on_c, 0, 59, 33
3, 19620, Note_on_c, 0, 59, 0
3, 19620, Note_on_c, 0, 60, 33
3, 19680, Note_on_c, 0, 60, 0
3, 19680, Note_on_c, 0, 48, 0
3, 19680, Note_on_c, 0, 62, 38
3, 19740, Note_on_c, 0, 62, 0
3, 19740, Note_on_c, 0, 60, 38
3, 19800, Note_on_c, 0, 60, 0
3, 19800, Note_on_c, 0, 62, 39
3, 19860, Note_on_c, 0, 62, 0
3, 19860, Note_on_c, 0, 60, 40
3, 19920, Note_on_c, 0, 60, 0
3, 19920, Note_on_c, 0, 62, 40
3, 19980, Note_on_c, 0, 62, 0
3, 19980, Note_on_c, 0, 60, 41
3, 20040, Note_on_c, 0, 60, 0
3, 20040, Note_on_c, 0, 59, 42
3, 20100, Note_on_c, 0, 59, 0
3, 20100, Note_on_c, 0, 60, 42
3, 20160, Note_on_c, 0, 60, 0
3, 20160, Note_on_c, 0, 60, 36
3, 20160, Note_on_c, 0, 69, 47
3, 20174, Control_c, 0, 64, 0
3, 20240, Control_c, 0, 64, 127
3, 20640, Note_on_c, 0, 69, 0
3, 20640, Note_on_c, 0, 67, 45
3, 20654, Control_c, 0, 64, 0
3, 20709, Control_c, 0, 64, 127
3, 21120, Note_on_c, 0, 67, 0
3, 21120, Note_on_c, 0, 60, 0
3, 21120, Note_on_c, 0, 53, 47
3, 21131, Control_c, 0, 64, 0
3, 21184, Control_c, 0, 64, 127
3, 21360, Note_on_c, 0, 53, 0
3, 21360, Note_on_c, 0, 60, 44
3, 21480, Note_on_c, 0, 60, 0
3, 21480, Note_on_c, 0, 65, 40
3, 21600, Note_on_c, 0, 65, 0
3, 21600, Note_on_c, 0, 69, 46
3, 21840, Note_on_c, 0, 69, 0
3, 21840, Note_on_c, 0, 60, 32
3, 21840, Note_on_c, 0, 67, 41
3, 21856, Control_c, 0, 64, 0
3, 21932, Control_c, 0, 64, 127
3, 22080, Note_on_c, 0, 67, 0
3, 22080, Note_on_c, 0, 60, 0
3, 22080, Note_on_c, 0, 53, 48
3, 22094, Control_c, 0, 64, 0
3, 22221, Control_c, 0, 64, 127
3, 22320, Note_on_c, 0, 53, 0
3, 22320, Note_on_c, 0, 60, 43
3, 22440, Note_on_c, 0, 60, 0
3, 22440, Note_on_c, 0, 65, 41
3, 22560, Note_on_c, 0, 65, 0
3, 22560, Note_on_c, 0, 69, 45
3, 22800, Note_on_c, 0, 69, 0
3, 22800, Note_on_c, 0, 60, 32
3, 22800, Note_on_c, 0, 67, 42
3, 22811, Control_c, 0, 64, 0
3, 22878, Control_c, 0, 64, 127
3, 23040, Note_on_c, 0, 67, 0
3, 23040, Note_on_c, 0, 60, 0
3, 23040, Note_on_c, 0, 53, 47
3, 23049, Control_c, 0, 64, 0
3, 23143, Control_c, 0, 64, 127
3, 23200, Note_on_c, 0, 53, 0
3, 23200, Note_on_c, 0, 60, 45
3, 23360, Note_on_c, 0, 60, 0
3, 23360, Note_on_c, 0, 65, 39
3, 23520, Note_on_c, 0, 65, 0
3, 23520, Note_on_c, 0, 69, 47
3, 23680, Note_on_c, 0, 69, 0
3, 23680, Note_on_c, 0, 75, 50
3, 23840, Note_on_c, 0, 75, 0
3, 24960, Note_on_c, 0, 58, 55
3, 24970, Control_c, 0, 64, 0
3, 25063, Control_c, 0, 64, 127
3, 25120, Note_on_c, 0, 58, 0
3, 25120, Note_on_c, 0, 65, 20
3, 25280, Note_on_c, 0, 65, 0
3, 25280, Note_on_c, 0, 74, 45
3, 25440, Note_on_c, 0, 74, 0
3, 26880, Note_on_c, 0, 55, 54
3, 26890, Control_c, 0, 64, 0
3, 26983, Control_c, 0, 64, 127
3, 27040, Note_on_c, 0, 55, 0
3, 27040, Note_on_c, 0, 65, 47
3, 27200, Note_on_c, 0, 65, 0
3, 27200, Note_on_c, 0, 74, 43
3, 27360, Note_on_c, 0, 74, 0
3, 28800, Note_on_c, 0, 60, 57
3, 28812, Control_c, 0, 64, 0
3, 28903, Control_c, 0, 64, 127
3, 28960, Note_on_c, 0, 60, 0
3, 28960, Note_on_c, 0, 67, 47
3, 29120, Note_on_c, 0, 72, 43
3, 29280, Note_on_c, 0, 72, 0
3, 29280, Note_on_c, 0, 77, 52
3, 30600, Note_on_c, 0, 60, 42
3, 30660, Note_on_c, 0, 67, 48
3, 30720, Note_on_c, 0, 77, 0
3, 30720, Note_on_c, 0, 67, 0
3, 30720, Note_on_c, 0, 70, 61
3, 30731, Control_c, 0, 64, 0
3, 30823, Control_c, 0, 64, 127
3, 31200, Note_on_c, 0, 60, 0
3, 31200, Note_on_c, 0, 76, 49
3, 31680, Note_on_c, 0, 67, 0
3, 31680, Note_on_c, 0, 81, 52
3, 31920, Note_on_c, 0, 81, 0
3, 32520, Note_on_c, 0, 53, 35
3, 32580, Note_on_c, 0, 60, 40
3, 32640, Note_on_c, 0, 76, 0
3, 32640, Note_on_c, 0, 70, 0
3, 32640, Note_on_c, 0, 69, 44
3, 32650, Control_c, 0, 64, 0
3, 32739, Control_c, 0, 64, 127
3, 33600, Note_on_c, 0, 69, 0
3, 33600, Note_on_c, 0, 53, 0
3, 33600, Note_on_c, 0, 60, 0
3, 34560, Note_on_c, 0, 48, 38
3, 34566, Control_c, 0, 64, 0
3, 34606, Control_c, 0, 64, 127
3, 34920, Note_on_c, 0, 59, 29
3, 34980, Note_on_c, 0, 59, 0
3, 34980, Note_on_c, 0, 60, 29
3, 35040, Note_on_c, 0, 60, 0
3, 35040, Note_on_c, 0, 48, 0
3, 35040, Note_on_c, 0, 62, 34
3, 35100, Note_on_c, 0, 62, 0
3, 35100, Note_on_c, 0, 60, 34
3, 35160, Note_on_c, 0, 60, 0
3, 35160, Note_on_c, 0, 62, 35
3, 35220, Note_on_c, 0, 62, 0
3, 35220, Note_on_c, 0, 60, 36
3, 35280, Note_on_c, 0, 60, 0
3, 35280, Note_on_c, 0, 62, 36
3, 35340, Note_on_c, 0, 62, 0
3, 35340, Note_on_c, 0, 60, 36
3, 35400, Note_on_c, 0, 60, 0
3, 35400, Note_on_c, 0, 59, 37
3, 35460, Note_on_c, 0, 59, 0
3, 35460, Note_on_c, 0, 60, 37
3, 35520, Note_on_c, 0, 60, 0
3, 35520, Note_on_c, 0, 60, 32
3, 35520, Note_on_c, 0, 69, 42
3, 35535, Control_c, 0, 64, 0
3, 35575, Control_c, 0, 64, 127
3, 36000, Note_on_c, 0, 69, 0
3, 36000, Note_on_c, 0, 67, 40
3, 36015, Control_c, 0, 64, 0
3, 36052, Control_c, 0, 64, 127
3, 36480, Note_on_c, 0, 67, 0
3, 36480, Note_on_c, 0, 60, 0
3, 36480, Note_on_c, 0, 53, 42
3, 36488, Control_c, 0, 64, 0
3, 36544, Control_c, 0, 64, 127
3, 36720, Note_on_c, 0, 53, 0
3, 36720, Note_on_c, 0, 60, 40
3, 36840, Note_on_c, 0, 60, 0
3, 36840, Note_on_c, 0, 65, 38
3, 36960, Note_on_c, 0, 65, 0
3, 36960, Note_on_c, 0, 69, 42
3, 37200, Note_on_c, 0, 69, 0
3, 37200, Note_on_c, 0, 60, 28
3, 37200, Note_on_c, 0, 67, 36
3, 37214, Control_c, 0, 64, 0
3, 37292, Control_c, 0, 64, 127
3, 37440, Note_on_c, 0, 67, 0
3, 37440, Note_on_c, 0, 60, 0
3, 37440, Note_on_c, 0, 41, 43
3, 37447, Control_c, 0, 64, 0
3, 37511, Control_c, 0, 64, 127
3, 37680, Note_on_c, 0, 41, 0
3, 37680, Note_on_c, 0, 48, 40
3, 37800, Note_on_c, 0, 48, 0
3, 37800, Note_on_c, 0, 53, 36
3, 37920, Note_on_c, 0, 53, 0
3, 37920, Note_on_c, 0, 57, 40
3, 38160, Note_on_c, 0, 57, 0
3, 38160, Note_on_c, 0, 48, 28
3, 38160, Note_on_c, 0, 55, 37
3, 38174, Control_c, 0, 64, 0
3, 38238, Control_c, 0, 64, 127
3, 38400, Note_on_c, 0, 55, 0
3, 38400, Note_on_c, 0, 48, 0
3, 38400, Note_on_c, 0, 41, 43
3, 38414, Control_c, 0, 64, 0
3, 38471, Control_c, 0, 64, 127
3, 38640, Note_on_c, 0, 41, 0
3, 38640, Note_on_c, 0, 48, 39
3, 38760, Note_on_c, 0, 48, 0
3, 38760, Note_on_c, 0, 53, 36
3, 38880, Note_on_c, 0, 53, 0
3, 38880, Note_on_c, 0, 57, 40
3, 39120, Note_on_c, 0, 57, 0
3, 39120, Note_on_c, 0, 48, 26
3, 39120, Note_on_c, 0, 55, 35
3, 39131, Control_c, 0, 64, 0
3, 39198, Control_c, 0, 64, 127
3, 39360, Note_on_c, 0, 55, 0
3, 39360, Note_on_c, 0, 48, 0
3, 39360, Note_on_c, 0, 41, 40
3, 39375, Control_c, 0, 64, 0
3, 39452, Control_c, 0, 64, 127
3, 39600, Note_on_c, 0, 41, 0
3, 39600, Note_on_c, 0, 48, 35
3, 39720, Note_on_c, 0, 48, 0
3, 39720, Note_on_c, 0, 53, 32
3, 39840, Note_on_c, 0, 53, 0
3, 39840, Note_on_c, 0, 57, 37
3, 40080, Note_on_c, 0, 57, 0
3, 40080, Note_on_c, 0, 48, 24
3, 40080, Note_on_c, 0, 55, 33
3, 40094, Control_c, 0, 64, 0
3, 40158, Control_c, 0, 64, 127
3, 40320, Note_on_c, 0, 55, 0
3, 40320, Note_on_c, 0, 48, 0
3, 40320, Note_on_c, 0, 41, 37
3, 40336, Control_c, 0, 64, 0
3, 40383, Control_c, 0, 64, 127
3, 40680, Note_on_c, 0, 41, 0
3, 40680, Note_on_c, 0, 48, 31
3, 40800, Note_on_c, 0, 48, 0
3, 40800, Note_on_c, 0, 53, 31
3, 40920, Note_on_c, 0, 53, 0
3, 40920, Note_on_c, 0, 57, 28
3, 41040, Note_on_c, 0, 57, 0
3, 41040, Note_on_c, 0, 60, 28
3, 41160, Note_on_c, 0, 60, 0
3, 41160, Note_on_c, 0, 65, 27
3, 41280, Note_on_c, 0, 65, 0
3, 41280, Note_on_c, 0, 69, 29
3, 41400, Note_on_c, 0, 69, 0
3, 41400, Note_on_c, 0, 75, 32
3, 41520, Note_on_c, 0, 75, 0
3, 41520, Note_on_c, 0, 69, 29
3, 41640, Note_on_c, 0, 69, 0
3, 41640, Note_on_c, 0, 65, 23
3, 41760, Note_on_c, 0, 65, 0
3, 41760, Note_on_c, 0, 60, 27
3, 41880, Note_on_c, 0, 60, 0
3, 41880, Note_on_c, 0, 57, 24
3, 42000, Note_on_c, 0, 57, 0
3, 42000, Note_on_c, 0, 53, 22
3, 42120, Note_on_c, 0, 53, 0
3, 42120, Note_on_c, 0, 48, 20
3, 42240, Note_on_c, 0, 48, 0
3, 42240, Note_on_c, 0, 41, 21
3, 42720, Note_on_c, 0, 41, 0
3, 43947, Control_c, 0, 64, 0
3, 43947, End_track
4, 0, Start_track
4, 0, Title_t, "Chopin: Prelude No.23 in F Major Op. 28"
4, 0, End_track
5, 0, Start_track
5, 0, Title_t, "Copyright © 2002 by Bernd Krueger"
5, 0, End_track
6, 0, Start_track
6, 0, Title_t, "http://www.piano-midi.de"
6, 0, End_track
7, 0, Start_track
7, 0, Title_t, "Edition: 2014-02-23"
7, 0, End_track
8, 0, Start_track
8, 0, Title_t, "Spur 7"
8, 0, End_track
0, 0, End_of_file
