0, 0, Header, 1, 17, 480
1, 0, Start_track
1, 0, Title_t, "Clementi: Sonatine Opus 36 Nr. 5, 1. Satz"
1, 0, Copyright_t, "Copyright © 2010 by Bernd Krueger"
1, 0, Text_t, "Muzio Clementi"
1, 0, Text_t, "Presto"
1, 0, Text_t, "Erstellt: 28.12.2010\012"
1, 0, Text_t, "Dauer: 4:55 Minuten\012"
1, 0, Time_signature, 4, 2, 24, 8
1, 0, Key_signature, 1, "major"
1, 0, Tempo, 427686
1, 1380, Marker_t, "Teil 1"
1, 3680, Tempo, 476985
1, 3840, Tempo, 427686
1, 5280, Tempo, 437031
1, 5760, Tempo, 427686
1, 7520, Tempo, 496730
1, 7680, Tempo, 437031
1, 9060, Tempo, 427686
1, 11360, Tempo, 476985
1, 11520, Tempo, 427686
1, 12960, Tempo, 437031
1, 13440, Tempo, 429215
1, 14880, Tempo, 438629
1, 15200, Tempo, 467690
1, 15360, Tempo, 441859
1, 15840, Tempo, 453549
1, 16160, Tempo, 480808
1, 16320, Tempo, 441859
1, 16740, Tempo, 427686
1, 19040, Tempo, 476985
1, 19200, Tempo, 427686
1, 20640, Tempo, 437031
1, 21120, Tempo, 427686
1, 22880, Tempo, 496730
1, 23040, Tempo, 437031
1, 24420, Tempo, 427686
1, 26720, Tempo, 476985
1, 26880, Tempo, 427686
1, 28320, Tempo, 437031
1, 28800, Tempo, 429215
1, 30240, Tempo, 438629
1, 30560, Tempo, 467690
1, 30720, Tempo, 438629
1, 31200, Tempo, 426167
1, 32480, Tempo, 460511
1, 32640, Tempo, 430756
1, 33440, Tempo, 453549
1, 33600, Tempo, 430756
1, 34400, Tempo, 451841
1, 34560, Tempo, 438629
1, 35040, Tempo, 426167
1, 36320, Tempo, 460511
1, 36480, Tempo, 430756
1, 37280, Tempo, 453549
1, 37440, Tempo, 430756
1, 38240, Tempo, 451841
1, 38400, Tempo, 437031
1, 39360, Tempo, 441859
1, 39480, Tempo, 438629
1, 40320, Tempo, 443492
1, 41280, Tempo, 465875
1, 41291, Tempo, 443492
1, 41342, Tempo, 445137
1, 41392, Tempo, 446794
1, 41443, Tempo, 448464
1, 41493, Tempo, 450146
1, 41544, Tempo, 451841
1, 41594, Tempo, 453549
1, 41645, Tempo, 455270
1, 41695, Tempo, 457004
1, 41746, Tempo, 458751
1, 41797, Tempo, 460511
1, 41847, Tempo, 462285
1, 41898, Tempo, 464073
1, 41948, Tempo, 465875
1, 42080, Tempo, 518179
1, 42240, Tempo, 458751
1, 42560, Tempo, 440238
1, 42720, Tempo, 443492
1, 44000, Tempo, 515952
1, 44160, Tempo, 465875
1, 44163, Tempo, 488639
1, 44213, Tempo, 486657
1, 44264, Tempo, 484692
1, 44314, Tempo, 482742
1, 44365, Tempo, 480808
1, 44415, Tempo, 478889
1, 44466, Tempo, 476985
1, 44516, Tempo, 475097
1, 44567, Tempo, 473223
1, 44617, Tempo, 471365
1, 44668, Tempo, 469520
1, 44718, Tempo, 467690
1, 44769, Tempo, 465875
1, 44819, Tempo, 464073
1, 44870, Tempo, 462285
1, 44920, Tempo, 460511
1, 44971, Tempo, 458751
1, 45224, Tempo, 460511
1, 45476, Tempo, 462285
1, 45729, Tempo, 464073
1, 45779, Tempo, 465875
1, 45805, Tempo, 467690
1, 45830, Tempo, 469520
1, 45855, Tempo, 471365
1, 45880, Tempo, 473223
1, 45906, Tempo, 475097
1, 45931, Tempo, 476985
1, 45956, Tempo, 478889
1, 45982, Tempo, 480808
1, 46007, Tempo, 482742
1, 46032, Tempo, 484692
1, 46057, Tempo, 486657
1, 46080, Tempo, 429215
1, 47360, Tempo, 458751
1, 47520, Tempo, 427686
1, 48800, Tempo, 455270
1, 48960, Tempo, 427686
1, 49760, Tempo, 488639
1, 49920, Tempo, 427686
1, 50720, Tempo, 458751
1, 50880, Tempo, 427686
1, 51680, Tempo, 476985
1, 51840, Tempo, 426167
1, 52640, Tempo, 471365
1, 52800, Tempo, 427686
1, 53600, Tempo, 484692
1, 53760, Tempo, 429215
1, 55040, Tempo, 458751
1, 55200, Tempo, 427686
1, 56480, Tempo, 455270
1, 56640, Tempo, 427686
1, 57440, Tempo, 488639
1, 57600, Tempo, 427686
1, 58400, Tempo, 458751
1, 58560, Tempo, 427686
1, 59360, Tempo, 476985
1, 59520, Tempo, 426167
1, 60320, Tempo, 471365
1, 60480, Tempo, 427686
1, 61280, Tempo, 484692
1, 61440, Tempo, 427686
1, 62880, Tempo, 438629
1, 63200, Tempo, 482742
1, 63360, Tempo, 427686
1, 64800, Tempo, 435445
1, 65120, Tempo, 490637
1, 65280, Tempo, 460511
1, 65760, Tempo, 476985
1, 66080, Tempo, 534331
1, 66240, Tempo, 551521
1, 66600, Tempo, 427686
1, 66660, Tempo, 427686
1, 66660, Marker_t, "Teil 1 Wiederholung"
1, 68960, Tempo, 476985
1, 69120, Tempo, 427686
1, 70560, Tempo, 437031
1, 71040, Tempo, 427686
1, 72800, Tempo, 496730
1, 72960, Tempo, 437031
1, 74340, Tempo, 427686
1, 76640, Tempo, 476985
1, 76800, Tempo, 427686
1, 78240, Tempo, 437031
1, 78720, Tempo, 429215
1, 80160, Tempo, 438629
1, 80480, Tempo, 467690
1, 80640, Tempo, 441859
1, 81120, Tempo, 453549
1, 81440, Tempo, 480808
1, 81600, Tempo, 441859
1, 82020, Tempo, 427686
1, 84320, Tempo, 476985
1, 84480, Tempo, 427686
1, 85920, Tempo, 437031
1, 86400, Tempo, 427686
1, 88160, Tempo, 496730
1, 88320, Tempo, 437031
1, 89700, Tempo, 427686
1, 92000, Tempo, 476985
1, 92160, Tempo, 427686
1, 93600, Tempo, 437031
1, 94080, Tempo, 429215
1, 95520, Tempo, 438629
1, 95840, Tempo, 467690
1, 96000, Tempo, 438629
1, 96480, Tempo, 426167
1, 97760, Tempo, 460511
1, 97920, Tempo, 430756
1, 98720, Tempo, 453549
1, 98880, Tempo, 430756
1, 99680, Tempo, 451841
1, 99840, Tempo, 438629
1, 100320, Tempo, 426167
1, 101600, Tempo, 460511
1, 101760, Tempo, 430756
1, 102560, Tempo, 453549
1, 102720, Tempo, 430756
1, 103520, Tempo, 451841
1, 103680, Tempo, 437031
1, 104640, Tempo, 441859
1, 104760, Tempo, 438629
1, 105600, Tempo, 443492
1, 106560, Tempo, 465875
1, 106571, Tempo, 443492
1, 106622, Tempo, 445137
1, 106672, Tempo, 446794
1, 106723, Tempo, 448464
1, 106773, Tempo, 450146
1, 106824, Tempo, 451841
1, 106874, Tempo, 453549
1, 106925, Tempo, 455270
1, 106975, Tempo, 457004
1, 107026, Tempo, 458751
1, 107077, Tempo, 460511
1, 107127, Tempo, 462285
1, 107178, Tempo, 464073
1, 107228, Tempo, 465875
1, 107360, Tempo, 518179
1, 107520, Tempo, 458751
1, 107840, Tempo, 440238
1, 108000, Tempo, 443492
1, 109280, Tempo, 515952
1, 109440, Tempo, 465875
1, 109443, Tempo, 488639
1, 109493, Tempo, 486657
1, 109544, Tempo, 484692
1, 109594, Tempo, 482742
1, 109645, Tempo, 480808
1, 109695, Tempo, 478889
1, 109746, Tempo, 476985
1, 109796, Tempo, 475097
1, 109847, Tempo, 473223
1, 109897, Tempo, 471365
1, 109948, Tempo, 469520
1, 109998, Tempo, 467690
1, 110049, Tempo, 465875
1, 110099, Tempo, 464073
1, 110150, Tempo, 462285
1, 110200, Tempo, 460511
1, 110251, Tempo, 458751
1, 110504, Tempo, 460511
1, 110756, Tempo, 462285
1, 111009, Tempo, 464073
1, 111059, Tempo, 465875
1, 111085, Tempo, 467690
1, 111110, Tempo, 469520
1, 111135, Tempo, 471365
1, 111160, Tempo, 473223
1, 111186, Tempo, 475097
1, 111211, Tempo, 476985
1, 111236, Tempo, 478889
1, 111262, Tempo, 480808
1, 111287, Tempo, 482742
1, 111312, Tempo, 484692
1, 111337, Tempo, 486657
1, 111360, Tempo, 429215
1, 112640, Tempo, 458751
1, 112800, Tempo, 427686
1, 114080, Tempo, 455270
1, 114240, Tempo, 427686
1, 115040, Tempo, 488639
1, 115200, Tempo, 427686
1, 116000, Tempo, 458751
1, 116160, Tempo, 427686
1, 116960, Tempo, 476985
1, 117120, Tempo, 426167
1, 117920, Tempo, 471365
1, 118080, Tempo, 427686
1, 118880, Tempo, 484692
1, 119040, Tempo, 429215
1, 120320, Tempo, 458751
1, 120480, Tempo, 427686
1, 121760, Tempo, 455270
1, 121920, Tempo, 427686
1, 122720, Tempo, 488639
1, 122880, Tempo, 427686
1, 123680, Tempo, 458751
1, 123840, Tempo, 427686
1, 124640, Tempo, 476985
1, 124800, Tempo, 426167
1, 125600, Tempo, 471365
1, 125760, Tempo, 427686
1, 126560, Tempo, 484692
1, 126720, Tempo, 427686
1, 128160, Tempo, 438629
1, 128480, Tempo, 482742
1, 128640, Tempo, 427686
1, 130080, Tempo, 435445
1, 130400, Tempo, 490637
1, 130560, Tempo, 460511
1, 131040, Tempo, 476985
1, 131360, Tempo, 534331
1, 131520, Tempo, 469520
1, 131580, Tempo, 527287
1, 131940, Tempo, 427686
1, 131940, Marker_t, "Teil 2"
1, 134240, Tempo, 476985
1, 134400, Tempo, 427686
1, 135840, Tempo, 437031
1, 136320, Tempo, 427686
1, 138080, Tempo, 496730
1, 138240, Tempo, 448464
1, 138720, Tempo, 435445
1, 139620, Tempo, 427686
1, 141600, Tempo, 430756
1, 141920, Tempo, 476985
1, 142080, Tempo, 427686
1, 143520, Tempo, 437031
1, 144000, Tempo, 429215
1, 145440, Tempo, 438629
1, 145760, Tempo, 467690
1, 145920, Tempo, 429215
1, 147200, Tempo, 458751
1, 147360, Tempo, 427686
1, 148640, Tempo, 455270
1, 148800, Tempo, 427686
1, 149600, Tempo, 488639
1, 149760, Tempo, 427686
1, 150560, Tempo, 458751
1, 150720, Tempo, 427686
1, 151200, Tempo, 427686
1, 152480, Tempo, 455270
1, 152640, Tempo, 427686
1, 153440, Tempo, 488639
1, 153600, Tempo, 427686
1, 154400, Tempo, 458751
1, 154560, Tempo, 427686
1, 155360, Tempo, 478889
1, 155520, Tempo, 427686
1, 156320, Tempo, 458751
1, 156480, Tempo, 427686
1, 157280, Tempo, 478889
1, 157452, Tempo, 438629
1, 157477, Tempo, 438629
1, 157704, Tempo, 437031
1, 157906, Tempo, 435445
1, 158108, Tempo, 433871
1, 158336, Tempo, 432308
1, 158538, Tempo, 430756
1, 158740, Tempo, 429215
1, 158967, Tempo, 427686
1, 159170, Tempo, 426167
1, 159372, Tempo, 424659
1, 159680, Tempo, 462285
1, 159840, Tempo, 423161
1, 160256, Tempo, 421674
1, 160281, Tempo, 426167
1, 160332, Tempo, 427686
1, 160382, Tempo, 429215
1, 160433, Tempo, 430756
1, 160483, Tempo, 432308
1, 160534, Tempo, 433871
1, 160584, Tempo, 435445
1, 160635, Tempo, 437031
1, 160685, Tempo, 438629
1, 160736, Tempo, 440238
1, 160786, Tempo, 446794
1, 160812, Tempo, 471365
1, 160837, Tempo, 473223
1, 160862, Tempo, 476985
1, 160887, Tempo, 478889
1, 160913, Tempo, 482742
1, 160938, Tempo, 486657
1, 160963, Tempo, 488639
1, 160988, Tempo, 492651
1, 161014, Tempo, 496730
1, 161039, Tempo, 498795
1, 161064, Tempo, 502976
1, 161090, Tempo, 507228
1, 161115, Tempo, 509381
1, 161140, Tempo, 513743
1, 161165, Tempo, 518179
1, 161191, Tempo, 520427
1, 161216, Tempo, 524980
1, 161241, Tempo, 529614
1, 161266, Tempo, 531962
1, 161292, Tempo, 536721
1, 161317, Tempo, 541565
1, 162660, Tempo, 427686
1, 164960, Tempo, 476985
1, 165120, Tempo, 427686
1, 166560, Tempo, 437031
1, 167040, Tempo, 427686
1, 168800, Tempo, 496730
1, 168960, Tempo, 437031
1, 170340, Tempo, 427686
1, 172640, Tempo, 476985
1, 172800, Tempo, 427686
1, 174240, Tempo, 437031
1, 174720, Tempo, 429215
1, 176160, Tempo, 438629
1, 176480, Tempo, 467690
1, 176640, Tempo, 441859
1, 177120, Tempo, 453549
1, 177440, Tempo, 480808
1, 177600, Tempo, 441859
1, 178020, Tempo, 427686
1, 180320, Tempo, 476985
1, 180480, Tempo, 427686
1, 181920, Tempo, 437031
1, 182400, Tempo, 427686
1, 184160, Tempo, 496730
1, 184320, Tempo, 437031
1, 185700, Tempo, 427686
1, 188000, Tempo, 476985
1, 188160, Tempo, 427686
1, 189600, Tempo, 437031
1, 190080, Tempo, 429215
1, 191520, Tempo, 438629
1, 191840, Tempo, 467690
1, 192000, Tempo, 438629
1, 192480, Tempo, 426167
1, 193760, Tempo, 460511
1, 193920, Tempo, 430756
1, 194720, Tempo, 453549
1, 194880, Tempo, 430756
1, 195680, Tempo, 451841
1, 195840, Tempo, 438629
1, 196320, Tempo, 426167
1, 197600, Tempo, 460511
1, 197760, Tempo, 430756
1, 198560, Tempo, 453549
1, 198720, Tempo, 430756
1, 199520, Tempo, 451841
1, 199680, Tempo, 437031
1, 200640, Tempo, 441859
1, 200760, Tempo, 438629
1, 201600, Tempo, 443492
1, 202560, Tempo, 465875
1, 202571, Tempo, 443492
1, 202622, Tempo, 445137
1, 202672, Tempo, 446794
1, 202723, Tempo, 448464
1, 202773, Tempo, 450146
1, 202824, Tempo, 451841
1, 202874, Tempo, 453549
1, 202925, Tempo, 455270
1, 202975, Tempo, 457004
1, 203026, Tempo, 458751
1, 203077, Tempo, 460511
1, 203127, Tempo, 462285
1, 203178, Tempo, 464073
1, 203228, Tempo, 465875
1, 203360, Tempo, 518179
1, 203520, Tempo, 458751
1, 203840, Tempo, 440238
1, 204000, Tempo, 443492
1, 205280, Tempo, 515952
1, 205440, Tempo, 465875
1, 205443, Tempo, 488639
1, 205493, Tempo, 486657
1, 205544, Tempo, 484692
1, 205594, Tempo, 482742
1, 205645, Tempo, 480808
1, 205695, Tempo, 478889
1, 205746, Tempo, 476985
1, 205796, Tempo, 475097
1, 205847, Tempo, 473223
1, 205897, Tempo, 471365
1, 205948, Tempo, 469520
1, 205998, Tempo, 467690
1, 206049, Tempo, 465875
1, 206099, Tempo, 464073
1, 206150, Tempo, 462285
1, 206200, Tempo, 460511
1, 206251, Tempo, 458751
1, 206504, Tempo, 460511
1, 206756, Tempo, 462285
1, 207009, Tempo, 464073
1, 207059, Tempo, 465875
1, 207085, Tempo, 467690
1, 207110, Tempo, 469520
1, 207135, Tempo, 471365
1, 207160, Tempo, 473223
1, 207186, Tempo, 475097
1, 207211, Tempo, 476985
1, 207236, Tempo, 478889
1, 207262, Tempo, 480808
1, 207287, Tempo, 482742
1, 207312, Tempo, 484692
1, 207337, Tempo, 486657
1, 207360, Tempo, 429215
1, 208640, Tempo, 458751
1, 208800, Tempo, 427686
1, 210080, Tempo, 455270
1, 210240, Tempo, 427686
1, 211040, Tempo, 488639
1, 211200, Tempo, 427686
1, 212000, Tempo, 458751
1, 212160, Tempo, 427686
1, 212960, Tempo, 476985
1, 213120, Tempo, 426167
1, 213920, Tempo, 471365
1, 214080, Tempo, 427686
1, 214880, Tempo, 484692
1, 215040, Tempo, 429215
1, 216320, Tempo, 458751
1, 216480, Tempo, 427686
1, 217760, Tempo, 455270
1, 217920, Tempo, 427686
1, 218720, Tempo, 488639
1, 218880, Tempo, 427686
1, 219680, Tempo, 458751
1, 219840, Tempo, 427686
1, 220640, Tempo, 476985
1, 220800, Tempo, 426167
1, 221600, Tempo, 471365
1, 221760, Tempo, 427686
1, 222560, Tempo, 484692
1, 222720, Tempo, 427686
1, 224160, Tempo, 438629
1, 224480, Tempo, 482742
1, 224640, Tempo, 427686
1, 226080, Tempo, 435445
1, 226400, Tempo, 490637
1, 226560, Tempo, 460511
1, 227040, Tempo, 476985
1, 227360, Tempo, 534331
1, 227520, Tempo, 551521
1, 227940, Tempo, 427686
1, 227940, Marker_t, "Teil 2 Wiederholung"
1, 230240, Tempo, 476985
1, 230400, Tempo, 427686
1, 231840, Tempo, 437031
1, 232320, Tempo, 427686
1, 234080, Tempo, 496730
1, 234240, Tempo, 448464
1, 234720, Tempo, 435445
1, 235620, Tempo, 427686
1, 237600, Tempo, 430756
1, 237920, Tempo, 476985
1, 238080, Tempo, 427686
1, 239520, Tempo, 437031
1, 240000, Tempo, 429215
1, 241440, Tempo, 438629
1, 241760, Tempo, 467690
1, 241920, Tempo, 429215
1, 243200, Tempo, 458751
1, 243360, Tempo, 423460
1, 243840, Tempo, 423460
1, 244640, Tempo, 455270
1, 244800, Tempo, 427686
1, 245600, Tempo, 488639
1, 245760, Tempo, 427686
1, 246560, Tempo, 458751
1, 246720, Tempo, 427686
1, 247200, Tempo, 427686
1, 247680, Tempo, 423460
1, 248480, Tempo, 440561
1, 248640, Tempo, 423460
1, 249440, Tempo, 488639
1, 249600, Tempo, 424959
1, 250400, Tempo, 458751
1, 250560, Tempo, 427686
1, 250720, Tempo, 424959
1, 251360, Tempo, 478889
1, 251520, Tempo, 427686
1, 252320, Tempo, 458751
1, 252480, Tempo, 427686
1, 253280, Tempo, 478889
1, 253452, Tempo, 438629
1, 253477, Tempo, 438629
1, 253704, Tempo, 437031
1, 253906, Tempo, 435445
1, 254108, Tempo, 433871
1, 254336, Tempo, 432308
1, 254538, Tempo, 430756
1, 254740, Tempo, 429215
1, 254967, Tempo, 427686
1, 255170, Tempo, 426167
1, 255372, Tempo, 424659
1, 255680, Tempo, 462285
1, 255840, Tempo, 423161
1, 256256, Tempo, 421674
1, 256281, Tempo, 426167
1, 256332, Tempo, 427686
1, 256382, Tempo, 429215
1, 256433, Tempo, 430756
1, 256483, Tempo, 432308
1, 256534, Tempo, 433871
1, 256584, Tempo, 435445
1, 256635, Tempo, 437031
1, 256685, Tempo, 438629
1, 256736, Tempo, 440238
1, 256786, Tempo, 446794
1, 256812, Tempo, 471365
1, 256837, Tempo, 473223
1, 256862, Tempo, 476985
1, 256887, Tempo, 478889
1, 256913, Tempo, 482742
1, 256938, Tempo, 486657
1, 256963, Tempo, 488639
1, 256988, Tempo, 492651
1, 257014, Tempo, 496730
1, 257039, Tempo, 498795
1, 257064, Tempo, 502976
1, 257090, Tempo, 507228
1, 257115, Tempo, 509381
1, 257140, Tempo, 513743
1, 257165, Tempo, 518179
1, 257191, Tempo, 520427
1, 257216, Tempo, 524980
1, 257241, Tempo, 529614
1, 257266, Tempo, 531962
1, 257292, Tempo, 536721
1, 257317, Tempo, 541565
1, 258660, Tempo, 427686
1, 260960, Tempo, 476985
1, 261120, Tempo, 427686
1, 262560, Tempo, 437031
1, 263040, Tempo, 427686
1, 264800, Tempo, 496730
1, 264960, Tempo, 437031
1, 266340, Tempo, 427686
1, 268640, Tempo, 476985
1, 268800, Tempo, 427686
1, 270240, Tempo, 437031
1, 270720, Tempo, 429215
1, 272160, Tempo, 438629
1, 272480, Tempo, 467690
1, 272640, Tempo, 441859
1, 273120, Tempo, 453549
1, 273440, Tempo, 480808
1, 273600, Tempo, 441859
1, 274020, Tempo, 427686
1, 276320, Tempo, 476985
1, 276480, Tempo, 427686
1, 277920, Tempo, 437031
1, 278400, Tempo, 427686
1, 280160, Tempo, 496730
1, 280320, Tempo, 437031
1, 281700, Tempo, 427686
1, 284000, Tempo, 476985
1, 284160, Tempo, 427686
1, 285600, Tempo, 437031
1, 286080, Tempo, 429215
1, 287520, Tempo, 438629
1, 287840, Tempo, 467690
1, 288000, Tempo, 438629
1, 288480, Tempo, 426167
1, 288960, Tempo, 419024
1, 289760, Tempo, 460511
1, 289920, Tempo, 430756
1, 290720, Tempo, 453549
1, 290880, Tempo, 430756
1, 291680, Tempo, 451841
1, 291840, Tempo, 438629
1, 292320, Tempo, 426167
1, 292800, Tempo, 421971
1, 293600, Tempo, 460511
1, 293760, Tempo, 430756
1, 294560, Tempo, 453549
1, 294720, Tempo, 430756
1, 295520, Tempo, 451841
1, 295680, Tempo, 437031
1, 296640, Tempo, 441859
1, 296760, Tempo, 438629
1, 297600, Tempo, 443820
1, 298560, Tempo, 452182
1, 298571, Tempo, 443492
1, 298622, Tempo, 445137
1, 298672, Tempo, 446794
1, 298723, Tempo, 448464
1, 298773, Tempo, 450146
1, 298824, Tempo, 451841
1, 298874, Tempo, 453549
1, 298925, Tempo, 455270
1, 298975, Tempo, 457004
1, 299026, Tempo, 458751
1, 299077, Tempo, 460511
1, 299127, Tempo, 462285
1, 299178, Tempo, 464073
1, 299228, Tempo, 465875
1, 299360, Tempo, 525440
1, 299520, Tempo, 458751
1, 299840, Tempo, 440238
1, 300000, Tempo, 443492
1, 301280, Tempo, 515952
1, 301440, Tempo, 465875
1, 301443, Tempo, 488639
1, 301493, Tempo, 486657
1, 301544, Tempo, 484692
1, 301594, Tempo, 482742
1, 301645, Tempo, 480808
1, 301695, Tempo, 478889
1, 301746, Tempo, 476985
1, 301796, Tempo, 475097
1, 301847, Tempo, 473223
1, 301897, Tempo, 471365
1, 301948, Tempo, 469520
1, 301998, Tempo, 467690
1, 302049, Tempo, 465875
1, 302099, Tempo, 464073
1, 302150, Tempo, 462285
1, 302200, Tempo, 460511
1, 302251, Tempo, 458751
1, 302504, Tempo, 460511
1, 302756, Tempo, 462285
1, 303009, Tempo, 464073
1, 303059, Tempo, 465875
1, 303085, Tempo, 467690
1, 303110, Tempo, 469520
1, 303135, Tempo, 471365
1, 303160, Tempo, 473223
1, 303186, Tempo, 475097
1, 303211, Tempo, 476985
1, 303236, Tempo, 478889
1, 303262, Tempo, 480808
1, 303287, Tempo, 482742
1, 303312, Tempo, 484692
1, 303337, Tempo, 486657
1, 303360, Tempo, 429215
1, 304640, Tempo, 458751
1, 304800, Tempo, 427686
1, 306080, Tempo, 455270
1, 306240, Tempo, 427686
1, 307040, Tempo, 488639
1, 307200, Tempo, 427686
1, 308000, Tempo, 458751
1, 308160, Tempo, 427686
1, 308960, Tempo, 476985
1, 309120, Tempo, 426167
1, 309920, Tempo, 460865
1, 310080, Tempo, 427686
1, 310880, Tempo, 484692
1, 311040, Tempo, 429215
1, 312320, Tempo, 458751
1, 312480, Tempo, 427686
1, 313760, Tempo, 455270
1, 313920, Tempo, 427686
1, 314720, Tempo, 488639
1, 314880, Tempo, 427686
1, 315680, Tempo, 458751
1, 315840, Tempo, 427686
1, 316640, Tempo, 476985
1, 316800, Tempo, 426167
1, 317600, Tempo, 471365
1, 317760, Tempo, 427686
1, 318560, Tempo, 484692
1, 318720, Tempo, 427686
1, 320160, Tempo, 438629
1, 320480, Tempo, 482742
1, 320640, Tempo, 427686
1, 322080, Tempo, 455615
1, 322400, Tempo, 516396
1, 322560, Tempo, 550005
1, 323040, Tempo, 673476
1, 323200, Tempo, 705136
1, 323360, Tempo, 892990
1, 323520, Tempo, 614188
1, 323520, End_track
2, 0, Start_track
2, 0, Title_t, "Piano right"
2, 0, Program_c, 0, 0
2, 1380, Note_on_c, 0, 81, 43
2, 1440, Note_on_c, 0, 81, 0
2, 1440, Note_on_c, 0, 79, 50
2, 1600, Note_on_c, 0, 79, 0
2, 1600, Note_on_c, 0, 78, 45
2, 1760, Note_on_c, 0, 78, 0
2, 1760, Note_on_c, 0, 79, 45
2, 1920, Note_on_c, 0, 79, 0
2, 1920, Note_on_c, 0, 83, 50
2, 2040, Note_on_c, 0, 83, 0
2, 2400, Note_on_c, 0, 83, 46
2, 2520, Note_on_c, 0, 83, 0
2, 2880, Note_on_c, 0, 79, 50
2, 3120, Note_on_c, 0, 79, 0
2, 3300, Note_on_c, 0, 81, 41
2, 3360, Note_on_c, 0, 81, 0
2, 3360, Note_on_c, 0, 79, 50
2, 3520, Note_on_c, 0, 79, 0
2, 3520, Note_on_c, 0, 78, 44
2, 3680, Note_on_c, 0, 78, 0
2, 3680, Note_on_c, 0, 79, 53
2, 3840, Note_on_c, 0, 79, 0
2, 3840, Note_on_c, 0, 86, 62
2, 4800, Note_on_c, 0, 86, 0
2, 4800, Note_on_c, 0, 83, 50
2, 5280, Note_on_c, 0, 83, 0
2, 5280, Note_on_c, 0, 79, 47
2, 5760, Note_on_c, 0, 79, 0
2, 5760, Note_on_c, 0, 84, 62
2, 6000, Note_on_c, 0, 84, 0
2, 6180, Note_on_c, 0, 86, 54
2, 6240, Note_on_c, 0, 86, 0
2, 6240, Note_on_c, 0, 84, 62
2, 6400, Note_on_c, 0, 84, 0
2, 6400, Note_on_c, 0, 83, 50
2, 6560, Note_on_c, 0, 83, 0
2, 6560, Note_on_c, 0, 84, 50
2, 6720, Note_on_c, 0, 84, 0
2, 6720, Note_on_c, 0, 88, 64
2, 6960, Note_on_c, 0, 88, 0
2, 7200, Note_on_c, 0, 88, 61
2, 7440, Note_on_c, 0, 88, 0
2, 7680, Note_on_c, 0, 85, 65
2, 8160, Note_on_c, 0, 85, 0
2, 8160, Note_on_c, 0, 86, 63
2, 8400, Note_on_c, 0, 86, 0
2, 9060, Note_on_c, 0, 81, 43
2, 9120, Note_on_c, 0, 81, 0
2, 9120, Note_on_c, 0, 79, 50
2, 9280, Note_on_c, 0, 79, 0
2, 9280, Note_on_c, 0, 78, 45
2, 9440, Note_on_c, 0, 78, 0
2, 9440, Note_on_c, 0, 79, 45
2, 9600, Note_on_c, 0, 79, 0
2, 9600, Note_on_c, 0, 81, 50
2, 9720, Note_on_c, 0, 81, 0
2, 10080, Note_on_c, 0, 81, 46
2, 10560, Note_on_c, 0, 81, 0
2, 10560, Note_on_c, 0, 76, 50
2, 11040, Note_on_c, 0, 76, 0
2, 11040, Note_on_c, 0, 81, 50
2, 11520, Note_on_c, 0, 81, 0
2, 11520, Note_on_c, 0, 74, 62
2, 12480, Note_on_c, 0, 74, 0
2, 12480, Note_on_c, 0, 79, 50
2, 12960, Note_on_c, 0, 79, 0
2, 12960, Note_on_c, 0, 74, 47
2, 13440, Note_on_c, 0, 74, 0
2, 13440, Note_on_c, 0, 72, 50
2, 13680, Note_on_c, 0, 72, 0
2, 13920, Note_on_c, 0, 72, 46
2, 14160, Note_on_c, 0, 72, 0
2, 14400, Note_on_c, 0, 71, 50
2, 14640, Note_on_c, 0, 71, 0
2, 14880, Note_on_c, 0, 74, 50
2, 15120, Note_on_c, 0, 74, 0
2, 15360, Note_on_c, 0, 74, 64
2, 15840, Note_on_c, 0, 74, 0
2, 15840, Note_on_c, 0, 69, 48
2, 16080, Note_on_c, 0, 69, 0
2, 16740, Note_on_c, 0, 69, 43
2, 16800, Note_on_c, 0, 69, 0
2, 16800, Note_on_c, 0, 67, 50
2, 16960, Note_on_c, 0, 67, 0
2, 16960, Note_on_c, 0, 66, 45
2, 17120, Note_on_c, 0, 66, 0
2, 17120, Note_on_c, 0, 67, 45
2, 17280, Note_on_c, 0, 67, 0
2, 17280, Note_on_c, 0, 71, 50
2, 17400, Note_on_c, 0, 71, 0
2, 17760, Note_on_c, 0, 71, 46
2, 17880, Note_on_c, 0, 71, 0
2, 18240, Note_on_c, 0, 67, 50
2, 18480, Note_on_c, 0, 67, 0
2, 18660, Note_on_c, 0, 69, 41
2, 18720, Note_on_c, 0, 69, 0
2, 18720, Note_on_c, 0, 67, 50
2, 18880, Note_on_c, 0, 67, 0
2, 18880, Note_on_c, 0, 66, 44
2, 19040, Note_on_c, 0, 66, 0
2, 19040, Note_on_c, 0, 67, 53
2, 19200, Note_on_c, 0, 67, 0
2, 19200, Note_on_c, 0, 74, 62
2, 20160, Note_on_c, 0, 74, 0
2, 20160, Note_on_c, 0, 71, 50
2, 20640, Note_on_c, 0, 71, 0
2, 20640, Note_on_c, 0, 67, 47
2, 21120, Note_on_c, 0, 67, 0
2, 21120, Note_on_c, 0, 72, 62
2, 21360, Note_on_c, 0, 72, 0
2, 21540, Note_on_c, 0, 74, 54
2, 21600, Note_on_c, 0, 74, 0
2, 21600, Note_on_c, 0, 72, 62
2, 21760, Note_on_c, 0, 72, 0
2, 21760, Note_on_c, 0, 71, 50
2, 21920, Note_on_c, 0, 71, 0
2, 21920, Note_on_c, 0, 72, 50
2, 22080, Note_on_c, 0, 72, 0
2, 22080, Note_on_c, 0, 76, 64
2, 22320, Note_on_c, 0, 76, 0
2, 22560, Note_on_c, 0, 76, 61
2, 22800, Note_on_c, 0, 76, 0
2, 23040, Note_on_c, 0, 73, 65
2, 23520, Note_on_c, 0, 73, 0
2, 23520, Note_on_c, 0, 74, 63
2, 23760, Note_on_c, 0, 74, 0
2, 24420, Note_on_c, 0, 81, 49
2, 24480, Note_on_c, 0, 81, 0
2, 24480, Note_on_c, 0, 79, 57
2, 24640, Note_on_c, 0, 79, 0
2, 24640, Note_on_c, 0, 78, 51
2, 24800, Note_on_c, 0, 78, 0
2, 24800, Note_on_c, 0, 79, 51
2, 24960, Note_on_c, 0, 79, 0
2, 24960, Note_on_c, 0, 83, 64
2, 25080, Note_on_c, 0, 83, 0
2, 25440, Note_on_c, 0, 83, 52
2, 25680, Note_on_c, 0, 83, 0
2, 25920, Note_on_c, 0, 76, 57
2, 26160, Note_on_c, 0, 76, 0
2, 26400, Note_on_c, 0, 76, 57
2, 26640, Note_on_c, 0, 76, 0
2, 26880, Note_on_c, 0, 81, 69
2, 27840, Note_on_c, 0, 81, 0
2, 27840, Note_on_c, 0, 78, 62
2, 28320, Note_on_c, 0, 78, 0
2, 28320, Note_on_c, 0, 74, 54
2, 28800, Note_on_c, 0, 74, 0
2, 28800, Note_on_c, 0, 71, 50
2, 29040, Note_on_c, 0, 71, 0
2, 29280, Note_on_c, 0, 71, 46
2, 29520, Note_on_c, 0, 71, 0
2, 29760, Note_on_c, 0, 73, 50
2, 30000, Note_on_c, 0, 73, 0
2, 30180, Note_on_c, 0, 74, 46
2, 30240, Note_on_c, 0, 74, 0
2, 30240, Note_on_c, 0, 73, 51
2, 30400, Note_on_c, 0, 73, 0
2, 30400, Note_on_c, 0, 71, 46
2, 30560, Note_on_c, 0, 71, 0
2, 30560, Note_on_c, 0, 73, 46
2, 30720, Note_on_c, 0, 73, 0
2, 30720, Note_on_c, 0, 74, 47
2, 30880, Note_on_c, 0, 74, 0
2, 30880, Note_on_c, 0, 78, 50
2, 31040, Note_on_c, 0, 78, 0
2, 31040, Note_on_c, 0, 81, 52
2, 31200, Note_on_c, 0, 81, 0
2, 31200, Note_on_c, 0, 86, 54
2, 31360, Note_on_c, 0, 86, 0
2, 31360, Note_on_c, 0, 85, 49
2, 31520, Note_on_c, 0, 85, 0
2, 31520, Note_on_c, 0, 83, 49
2, 31680, Note_on_c, 0, 83, 0
2, 31680, Note_on_c, 0, 81, 51
2, 31840, Note_on_c, 0, 81, 0
2, 31840, Note_on_c, 0, 79, 48
2, 32000, Note_on_c, 0, 79, 0
2, 32000, Note_on_c, 0, 78, 48
2, 32160, Note_on_c, 0, 78, 0
2, 32160, Note_on_c, 0, 76, 51
2, 32320, Note_on_c, 0, 76, 0
2, 32320, Note_on_c, 0, 74, 46
2, 32480, Note_on_c, 0, 74, 0
2, 32480, Note_on_c, 0, 73, 46
2, 32640, Note_on_c, 0, 73, 0
2, 32640, Note_on_c, 0, 71, 46
2, 32800, Note_on_c, 0, 71, 0
2, 32800, Note_on_c, 0, 83, 51
2, 32960, Note_on_c, 0, 83, 0
2, 32960, Note_on_c, 0, 81, 46
2, 33120, Note_on_c, 0, 81, 0
2, 33120, Note_on_c, 0, 79, 50
2, 33280, Note_on_c, 0, 79, 0
2, 33280, Note_on_c, 0, 78, 48
2, 33440, Note_on_c, 0, 78, 0
2, 33440, Note_on_c, 0, 76, 48
2, 33600, Note_on_c, 0, 76, 0
2, 33600, Note_on_c, 0, 74, 49
2, 33760, Note_on_c, 0, 74, 0
2, 33760, Note_on_c, 0, 73, 46
2, 33920, Note_on_c, 0, 73, 0
2, 33920, Note_on_c, 0, 71, 46
2, 34080, Note_on_c, 0, 71, 0
2, 34080, Note_on_c, 0, 69, 47
2, 34240, Note_on_c, 0, 69, 0
2, 34240, Note_on_c, 0, 71, 45
2, 34400, Note_on_c, 0, 71, 0
2, 34400, Note_on_c, 0, 73, 45
2, 34560, Note_on_c, 0, 73, 0
2, 34560, Note_on_c, 0, 74, 47
2, 34720, Note_on_c, 0, 74, 0
2, 34720, Note_on_c, 0, 78, 50
2, 34880, Note_on_c, 0, 78, 0
2, 34880, Note_on_c, 0, 81, 52
2, 35040, Note_on_c, 0, 81, 0
2, 35040, Note_on_c, 0, 86, 54
2, 35200, Note_on_c, 0, 86, 0
2, 35200, Note_on_c, 0, 85, 49
2, 35360, Note_on_c, 0, 85, 0
2, 35360, Note_on_c, 0, 83, 49
2, 35520, Note_on_c, 0, 83, 0
2, 35520, Note_on_c, 0, 81, 51
2, 35680, Note_on_c, 0, 81, 0
2, 35680, Note_on_c, 0, 79, 48
2, 35840, Note_on_c, 0, 79, 0
2, 35840, Note_on_c, 0, 78, 48
2, 36000, Note_on_c, 0, 78, 0
2, 36000, Note_on_c, 0, 76, 51
2, 36160, Note_on_c, 0, 76, 0
2, 36160, Note_on_c, 0, 74, 46
2, 36320, Note_on_c, 0, 74, 0
2, 36320, Note_on_c, 0, 73, 46
2, 36480, Note_on_c, 0, 73, 0
2, 36480, Note_on_c, 0, 71, 46
2, 36640, Note_on_c, 0, 71, 0
2, 36640, Note_on_c, 0, 83, 51
2, 36800, Note_on_c, 0, 83, 0
2, 36800, Note_on_c, 0, 81, 46
2, 36960, Note_on_c, 0, 81, 0
2, 36960, Note_on_c, 0, 79, 50
2, 37120, Note_on_c, 0, 79, 0
2, 37120, Note_on_c, 0, 78, 48
2, 37280, Note_on_c, 0, 78, 0
2, 37280, Note_on_c, 0, 76, 48
2, 37440, Note_on_c, 0, 76, 0
2, 37440, Note_on_c, 0, 74, 49
2, 37600, Note_on_c, 0, 74, 0
2, 37600, Note_on_c, 0, 73, 46
2, 37760, Note_on_c, 0, 73, 0
2, 37760, Note_on_c, 0, 71, 46
2, 37920, Note_on_c, 0, 71, 0
2, 37920, Note_on_c, 0, 69, 47
2, 38080, Note_on_c, 0, 69, 0
2, 38080, Note_on_c, 0, 71, 45
2, 38240, Note_on_c, 0, 71, 0
2, 38240, Note_on_c, 0, 73, 45
2, 38400, Note_on_c, 0, 73, 0
2, 38400, Note_on_c, 0, 74, 47
2, 38560, Note_on_c, 0, 74, 0
2, 38560, Note_on_c, 0, 76, 42
2, 38720, Note_on_c, 0, 76, 0
2, 38720, Note_on_c, 0, 78, 42
2, 38880, Note_on_c, 0, 78, 0
2, 38880, Note_on_c, 0, 74, 47
2, 39040, Note_on_c, 0, 74, 0
2, 39040, Note_on_c, 0, 76, 43
2, 39200, Note_on_c, 0, 76, 0
2, 39200, Note_on_c, 0, 78, 47
2, 39360, Note_on_c, 0, 78, 0
2, 39360, Note_on_c, 0, 74, 54
2, 39520, Note_on_c, 0, 74, 0
2, 39520, Note_on_c, 0, 76, 48
2, 39680, Note_on_c, 0, 76, 0
2, 39680, Note_on_c, 0, 78, 48
2, 39840, Note_on_c, 0, 78, 0
2, 39840, Note_on_c, 0, 74, 56
2, 40000, Note_on_c, 0, 74, 0
2, 40000, Note_on_c, 0, 76, 52
2, 40160, Note_on_c, 0, 76, 0
2, 40160, Note_on_c, 0, 78, 52
2, 40320, Note_on_c, 0, 78, 0
2, 40320, Note_on_c, 0, 74, 60
2, 40480, Note_on_c, 0, 74, 0
2, 40480, Note_on_c, 0, 76, 52
2, 40640, Note_on_c, 0, 76, 0
2, 40640, Note_on_c, 0, 78, 57
2, 40800, Note_on_c, 0, 78, 0
2, 40800, Note_on_c, 0, 74, 64
2, 40960, Note_on_c, 0, 74, 0
2, 40960, Note_on_c, 0, 76, 58
2, 41120, Note_on_c, 0, 76, 0
2, 41120, Note_on_c, 0, 78, 61
2, 41280, Note_on_c, 0, 78, 0
2, 41280, Note_on_c, 0, 74, 68
2, 41440, Note_on_c, 0, 74, 0
2, 41440, Note_on_c, 0, 76, 63
2, 41600, Note_on_c, 0, 76, 0
2, 41600, Note_on_c, 0, 78, 65
2, 41760, Note_on_c, 0, 78, 0
2, 41760, Note_on_c, 0, 74, 73
2, 41920, Note_on_c, 0, 74, 0
2, 41920, Note_on_c, 0, 76, 69
2, 42080, Note_on_c, 0, 76, 0
2, 42080, Note_on_c, 0, 78, 70
2, 42240, Note_on_c, 0, 78, 0
2, 42240, Note_on_c, 0, 74, 75
2, 42400, Note_on_c, 0, 74, 0
2, 42400, Note_on_c, 0, 78, 71
2, 42560, Note_on_c, 0, 78, 0
2, 42560, Note_on_c, 0, 81, 68
2, 42720, Note_on_c, 0, 81, 0
2, 42720, Note_on_c, 0, 79, 74
2, 42880, Note_on_c, 0, 79, 0
2, 42880, Note_on_c, 0, 78, 68
2, 43040, Note_on_c, 0, 78, 0
2, 43040, Note_on_c, 0, 76, 64
2, 43200, Note_on_c, 0, 76, 0
2, 43200, Note_on_c, 0, 74, 71
2, 43360, Note_on_c, 0, 74, 0
2, 43360, Note_on_c, 0, 73, 64
2, 43520, Note_on_c, 0, 73, 0
2, 43520, Note_on_c, 0, 71, 62
2, 43680, Note_on_c, 0, 71, 0
2, 43680, Note_on_c, 0, 69, 72
2, 43840, Note_on_c, 0, 69, 0
2, 43840, Note_on_c, 0, 67, 67
2, 44000, Note_on_c, 0, 67, 0
2, 44000, Note_on_c, 0, 66, 67
2, 44160, Note_on_c, 0, 66, 0
2, 44160, Note_on_c, 0, 64, 41
2, 44240, Note_on_c, 0, 64, 0
2, 44240, Note_on_c, 0, 66, 39
2, 44320, Note_on_c, 0, 66, 0
2, 44320, Note_on_c, 0, 64, 46
2, 44400, Note_on_c, 0, 64, 0
2, 44400, Note_on_c, 0, 66, 44
2, 44480, Note_on_c, 0, 66, 0
2, 44480, Note_on_c, 0, 64, 49
2, 44560, Note_on_c, 0, 64, 0
2, 44560, Note_on_c, 0, 66, 46
2, 44640, Note_on_c, 0, 66, 0
2, 44640, Note_on_c, 0, 64, 51
2, 44720, Note_on_c, 0, 64, 0
2, 44720, Note_on_c, 0, 66, 48
2, 44800, Note_on_c, 0, 66, 0
2, 44800, Note_on_c, 0, 64, 54
2, 44880, Note_on_c, 0, 64, 0
2, 44880, Note_on_c, 0, 66, 49
2, 44960, Note_on_c, 0, 66, 0
2, 44960, Note_on_c, 0, 64, 57
2, 45040, Note_on_c, 0, 64, 0
2, 45040, Note_on_c, 0, 66, 53
2, 45120, Note_on_c, 0, 66, 0
2, 45120, Note_on_c, 0, 64, 56
2, 45200, Note_on_c, 0, 64, 0
2, 45200, Note_on_c, 0, 66, 51
2, 45280, Note_on_c, 0, 66, 0
2, 45280, Note_on_c, 0, 64, 56
2, 45360, Note_on_c, 0, 64, 0
2, 45360, Note_on_c, 0, 66, 50
2, 45440, Note_on_c, 0, 66, 0
2, 45440, Note_on_c, 0, 64, 56
2, 45520, Note_on_c, 0, 64, 0
2, 45520, Note_on_c, 0, 66, 51
2, 45600, Note_on_c, 0, 66, 0
2, 45600, Note_on_c, 0, 64, 54
2, 45680, Note_on_c, 0, 64, 0
2, 45680, Note_on_c, 0, 66, 49
2, 45760, Note_on_c, 0, 66, 0
2, 45760, Note_on_c, 0, 64, 53
2, 45840, Note_on_c, 0, 64, 0
2, 45840, Note_on_c, 0, 66, 49
2, 45900, Note_on_c, 0, 66, 0
2, 45900, Note_on_c, 0, 64, 53
2, 45960, Note_on_c, 0, 64, 0
2, 45960, Note_on_c, 0, 62, 49
2, 46020, Note_on_c, 0, 62, 0
2, 46020, Note_on_c, 0, 64, 49
2, 46080, Note_on_c, 0, 64, 0
2, 46080, Note_on_c, 0, 62, 49
2, 46240, Note_on_c, 0, 62, 0
2, 46240, Note_on_c, 0, 66, 32
2, 46400, Note_on_c, 0, 66, 0
2, 46400, Note_on_c, 0, 69, 32
2, 46560, Note_on_c, 0, 69, 0
2, 46560, Note_on_c, 0, 66, 48
2, 46720, Note_on_c, 0, 66, 0
2, 46720, Note_on_c, 0, 69, 32
2, 46880, Note_on_c, 0, 69, 0
2, 46880, Note_on_c, 0, 74, 29
2, 47040, Note_on_c, 0, 74, 0
2, 47040, Note_on_c, 0, 66, 41
2, 47200, Note_on_c, 0, 66, 0
2, 47200, Note_on_c, 0, 69, 28
2, 47360, Note_on_c, 0, 69, 0
2, 47360, Note_on_c, 0, 74, 28
2, 47520, Note_on_c, 0, 74, 0
2, 47520, Note_on_c, 0, 66, 41
2, 47680, Note_on_c, 0, 66, 0
2, 47680, Note_on_c, 0, 69, 29
2, 47840, Note_on_c, 0, 69, 0
2, 47840, Note_on_c, 0, 74, 29
2, 48000, Note_on_c, 0, 74, 0
2, 48000, Note_on_c, 0, 68, 41
2, 48160, Note_on_c, 0, 68, 0
2, 48160, Note_on_c, 0, 71, 29
2, 48320, Note_on_c, 0, 71, 0
2, 48320, Note_on_c, 0, 74, 29
2, 48480, Note_on_c, 0, 74, 0
2, 48480, Note_on_c, 0, 68, 41
2, 48640, Note_on_c, 0, 68, 0
2, 48640, Note_on_c, 0, 71, 29
2, 48800, Note_on_c, 0, 71, 0
2, 48800, Note_on_c, 0, 74, 29
2, 48960, Note_on_c, 0, 74, 0
2, 48960, Note_on_c, 0, 68, 41
2, 49120, Note_on_c, 0, 68, 0
2, 49120, Note_on_c, 0, 71, 29
2, 49280, Note_on_c, 0, 71, 0
2, 49280, Note_on_c, 0, 74, 29
2, 49440, Note_on_c, 0, 74, 0
2, 49440, Note_on_c, 0, 68, 41
2, 49600, Note_on_c, 0, 68, 0
2, 49600, Note_on_c, 0, 71, 30
2, 49760, Note_on_c, 0, 71, 0
2, 49760, Note_on_c, 0, 74, 30
2, 49920, Note_on_c, 0, 74, 0
2, 49920, Note_on_c, 0, 67, 41
2, 50080, Note_on_c, 0, 67, 0
2, 50080, Note_on_c, 0, 69, 29
2, 50240, Note_on_c, 0, 69, 0
2, 50240, Note_on_c, 0, 73, 29
2, 50400, Note_on_c, 0, 73, 0
2, 50400, Note_on_c, 0, 67, 41
2, 50560, Note_on_c, 0, 67, 0
2, 50560, Note_on_c, 0, 69, 29
2, 50720, Note_on_c, 0, 69, 0
2, 50720, Note_on_c, 0, 73, 29
2, 50880, Note_on_c, 0, 73, 0
2, 50880, Note_on_c, 0, 66, 41
2, 51040, Note_on_c, 0, 66, 0
2, 51040, Note_on_c, 0, 69, 29
2, 51200, Note_on_c, 0, 69, 0
2, 51200, Note_on_c, 0, 74, 29
2, 51360, Note_on_c, 0, 74, 0
2, 51360, Note_on_c, 0, 66, 41
2, 51520, Note_on_c, 0, 66, 0
2, 51520, Note_on_c, 0, 69, 30
2, 51680, Note_on_c, 0, 69, 0
2, 51680, Note_on_c, 0, 74, 30
2, 51840, Note_on_c, 0, 74, 0
2, 51840, Note_on_c, 0, 64, 41
2, 52000, Note_on_c, 0, 64, 0
2, 52000, Note_on_c, 0, 67, 29
2, 52160, Note_on_c, 0, 67, 0
2, 52160, Note_on_c, 0, 71, 29
2, 52320, Note_on_c, 0, 71, 0
2, 52320, Note_on_c, 0, 64, 41
2, 52480, Note_on_c, 0, 64, 0
2, 52480, Note_on_c, 0, 67, 29
2, 52640, Note_on_c, 0, 67, 0
2, 52640, Note_on_c, 0, 71, 29
2, 52800, Note_on_c, 0, 71, 0
2, 52800, Note_on_c, 0, 61, 41
2, 52960, Note_on_c, 0, 61, 0
2, 52960, Note_on_c, 0, 64, 29
2, 53120, Note_on_c, 0, 64, 0
2, 53120, Note_on_c, 0, 69, 29
2, 53280, Note_on_c, 0, 69, 0
2, 53280, Note_on_c, 0, 61, 41
2, 53440, Note_on_c, 0, 61, 0
2, 53440, Note_on_c, 0, 64, 30
2, 53600, Note_on_c, 0, 64, 0
2, 53600, Note_on_c, 0, 69, 30
2, 53760, Note_on_c, 0, 69, 0
2, 53760, Note_on_c, 0, 62, 49
2, 53920, Note_on_c, 0, 62, 0
2, 53920, Note_on_c, 0, 66, 30
2, 54080, Note_on_c, 0, 66, 0
2, 54080, Note_on_c, 0, 69, 30
2, 54240, Note_on_c, 0, 69, 0
2, 54240, Note_on_c, 0, 66, 46
2, 54400, Note_on_c, 0, 66, 0
2, 54400, Note_on_c, 0, 69, 30
2, 54560, Note_on_c, 0, 69, 0
2, 54560, Note_on_c, 0, 74, 30
2, 54720, Note_on_c, 0, 74, 0
2, 54720, Note_on_c, 0, 66, 41
2, 54880, Note_on_c, 0, 66, 0
2, 54880, Note_on_c, 0, 69, 28
2, 55040, Note_on_c, 0, 69, 0
2, 55040, Note_on_c, 0, 74, 28
2, 55200, Note_on_c, 0, 74, 0
2, 55200, Note_on_c, 0, 66, 45
2, 55360, Note_on_c, 0, 66, 0
2, 55360, Note_on_c, 0, 69, 32
2, 55520, Note_on_c, 0, 69, 0
2, 55520, Note_on_c, 0, 74, 32
2, 55680, Note_on_c, 0, 74, 0
2, 55680, Note_on_c, 0, 68, 46
2, 55840, Note_on_c, 0, 68, 0
2, 55840, Note_on_c, 0, 71, 33
2, 56000, Note_on_c, 0, 71, 0
2, 56000, Note_on_c, 0, 74, 33
2, 56160, Note_on_c, 0, 74, 0
2, 56160, Note_on_c, 0, 68, 47
2, 56320, Note_on_c, 0, 68, 0
2, 56320, Note_on_c, 0, 71, 34
2, 56480, Note_on_c, 0, 71, 0
2, 56480, Note_on_c, 0, 74, 34
2, 56640, Note_on_c, 0, 74, 0
2, 56640, Note_on_c, 0, 68, 49
2, 56800, Note_on_c, 0, 68, 0
2, 56800, Note_on_c, 0, 71, 36
2, 56960, Note_on_c, 0, 71, 0
2, 56960, Note_on_c, 0, 74, 36
2, 57120, Note_on_c, 0, 74, 0
2, 57120, Note_on_c, 0, 68, 52
2, 57280, Note_on_c, 0, 68, 0
2, 57280, Note_on_c, 0, 71, 38
2, 57440, Note_on_c, 0, 71, 0
2, 57440, Note_on_c, 0, 74, 39
2, 57600, Note_on_c, 0, 74, 0
2, 57600, Note_on_c, 0, 67, 54
2, 57760, Note_on_c, 0, 67, 0
2, 57760, Note_on_c, 0, 69, 39
2, 57920, Note_on_c, 0, 69, 0
2, 57920, Note_on_c, 0, 73, 39
2, 58080, Note_on_c, 0, 73, 0
2, 58080, Note_on_c, 0, 67, 55
2, 58240, Note_on_c, 0, 67, 0
2, 58240, Note_on_c, 0, 69, 39
2, 58400, Note_on_c, 0, 69, 0
2, 58400, Note_on_c, 0, 73, 40
2, 58560, Note_on_c, 0, 73, 0
2, 58560, Note_on_c, 0, 66, 56
2, 58720, Note_on_c, 0, 66, 0
2, 58720, Note_on_c, 0, 69, 40
2, 58880, Note_on_c, 0, 69, 0
2, 58880, Note_on_c, 0, 74, 41
2, 59040, Note_on_c, 0, 74, 0
2, 59040, Note_on_c, 0, 66, 58
2, 59200, Note_on_c, 0, 66, 0
2, 59200, Note_on_c, 0, 69, 43
2, 59360, Note_on_c, 0, 69, 0
2, 59360, Note_on_c, 0, 74, 44
2, 59520, Note_on_c, 0, 74, 0
2, 59520, Note_on_c, 0, 64, 63
2, 59680, Note_on_c, 0, 64, 0
2, 59680, Note_on_c, 0, 67, 44
2, 59840, Note_on_c, 0, 67, 0
2, 59840, Note_on_c, 0, 71, 45
2, 60000, Note_on_c, 0, 71, 0
2, 60000, Note_on_c, 0, 64, 64
2, 60160, Note_on_c, 0, 64, 0
2, 60160, Note_on_c, 0, 67, 45
2, 60320, Note_on_c, 0, 67, 0
2, 60320, Note_on_c, 0, 71, 46
2, 60480, Note_on_c, 0, 71, 0
2, 60480, Note_on_c, 0, 61, 64
2, 60640, Note_on_c, 0, 61, 0
2, 60640, Note_on_c, 0, 64, 46
2, 60800, Note_on_c, 0, 64, 0
2, 60800, Note_on_c, 0, 69, 46
2, 60960, Note_on_c, 0, 69, 0
2, 60960, Note_on_c, 0, 61, 66
2, 61120, Note_on_c, 0, 61, 0
2, 61120, Note_on_c, 0, 64, 48
2, 61280, Note_on_c, 0, 64, 0
2, 61280, Note_on_c, 0, 69, 48
2, 61440, Note_on_c, 0, 69, 0
2, 61440, Note_on_c, 0, 62, 70
2, 61920, Note_on_c, 0, 62, 0
2, 62820, Note_on_c, 0, 71, 65
2, 62880, Note_on_c, 0, 71, 0
2, 62880, Note_on_c, 0, 69, 70
2, 63040, Note_on_c, 0, 69, 0
2, 63040, Note_on_c, 0, 68, 66
2, 63200, Note_on_c, 0, 68, 0
2, 63200, Note_on_c, 0, 69, 66
2, 63360, Note_on_c, 0, 69, 0
2, 63360, Note_on_c, 0, 66, 70
2, 63360, Note_on_c, 0, 74, 76
2, 63600, Note_on_c, 0, 74, 0
2, 63600, Note_on_c, 0, 66, 0
2, 64740, Note_on_c, 0, 71, 65
2, 64800, Note_on_c, 0, 71, 0
2, 64800, Note_on_c, 0, 69, 70
2, 64960, Note_on_c, 0, 69, 0
2, 64960, Note_on_c, 0, 68, 66
2, 65120, Note_on_c, 0, 68, 0
2, 65120, Note_on_c, 0, 69, 66
2, 65280, Note_on_c, 0, 69, 0
2, 65280, Note_on_c, 0, 66, 70
2, 65280, Note_on_c, 0, 74, 76
2, 65520, Note_on_c, 0, 74, 0
2, 65520, Note_on_c, 0, 66, 0
2, 66660, Note_on_c, 0, 81, 43
2, 66720, Note_on_c, 0, 81, 0
2, 66720, Note_on_c, 0, 79, 50
2, 66880, Note_on_c, 0, 79, 0
2, 66880, Note_on_c, 0, 78, 45
2, 67040, Note_on_c, 0, 78, 0
2, 67040, Note_on_c, 0, 79, 45
2, 67200, Note_on_c, 0, 79, 0
2, 67200, Note_on_c, 0, 83, 50
2, 67320, Note_on_c, 0, 83, 0
2, 67680, Note_on_c, 0, 83, 46
2, 67800, Note_on_c, 0, 83, 0
2, 68160, Note_on_c, 0, 79, 50
2, 68400, Note_on_c, 0, 79, 0
2, 68580, Note_on_c, 0, 81, 41
2, 68640, Note_on_c, 0, 81, 0
2, 68640, Note_on_c, 0, 79, 50
2, 68800, Note_on_c, 0, 79, 0
2, 68800, Note_on_c, 0, 78, 44
2, 68960, Note_on_c, 0, 78, 0
2, 68960, Note_on_c, 0, 79, 53
2, 69120, Note_on_c, 0, 79, 0
2, 69120, Note_on_c, 0, 86, 62
2, 70080, Note_on_c, 0, 86, 0
2, 70080, Note_on_c, 0, 83, 50
2, 70560, Note_on_c, 0, 83, 0
2, 70560, Note_on_c, 0, 79, 47
2, 71040, Note_on_c, 0, 79, 0
2, 71040, Note_on_c, 0, 84, 62
2, 71280, Note_on_c, 0, 84, 0
2, 71460, Note_on_c, 0, 86, 54
2, 71520, Note_on_c, 0, 86, 0
2, 71520, Note_on_c, 0, 84, 62
2, 71680, Note_on_c, 0, 84, 0
2, 71680, Note_on_c, 0, 83, 50
2, 71840, Note_on_c, 0, 83, 0
2, 71840, Note_on_c, 0, 84, 50
2, 72000, Note_on_c, 0, 84, 0
2, 72000, Note_on_c, 0, 88, 64
2, 72240, Note_on_c, 0, 88, 0
2, 72480, Note_on_c, 0, 88, 61
2, 72720, Note_on_c, 0, 88, 0
2, 72960, Note_on_c, 0, 85, 65
2, 73440, Note_on_c, 0, 85, 0
2, 73440, Note_on_c, 0, 86, 63
2, 73680, Note_on_c, 0, 86, 0
2, 74340, Note_on_c, 0, 81, 43
2, 74400, Note_on_c, 0, 81, 0
2, 74400, Note_on_c, 0, 79, 50
2, 74560, Note_on_c, 0, 79, 0
2, 74560, Note_on_c, 0, 78, 45
2, 74720, Note_on_c, 0, 78, 0
2, 74720, Note_on_c, 0, 79, 45
2, 74880, Note_on_c, 0, 79, 0
2, 74880, Note_on_c, 0, 81, 50
2, 75000, Note_on_c, 0, 81, 0
2, 75360, Note_on_c, 0, 81, 46
2, 75840, Note_on_c, 0, 81, 0
2, 75840, Note_on_c, 0, 76, 50
2, 76320, Note_on_c, 0, 76, 0
2, 76320, Note_on_c, 0, 81, 50
2, 76800, Note_on_c, 0, 81, 0
2, 76800, Note_on_c, 0, 74, 62
2, 77760, Note_on_c, 0, 74, 0
2, 77760, Note_on_c, 0, 79, 50
2, 78240, Note_on_c, 0, 79, 0
2, 78240, Note_on_c, 0, 74, 47
2, 78720, Note_on_c, 0, 74, 0
2, 78720, Note_on_c, 0, 72, 50
2, 78960, Note_on_c, 0, 72, 0
2, 79200, Note_on_c, 0, 72, 46
2, 79440, Note_on_c, 0, 72, 0
2, 79680, Note_on_c, 0, 71, 50
2, 79920, Note_on_c, 0, 71, 0
2, 80160, Note_on_c, 0, 74, 50
2, 80400, Note_on_c, 0, 74, 0
2, 80640, Note_on_c, 0, 74, 64
2, 81120, Note_on_c, 0, 74, 0
2, 81120, Note_on_c, 0, 69, 48
2, 81360, Note_on_c, 0, 69, 0
2, 82020, Note_on_c, 0, 69, 43
2, 82080, Note_on_c, 0, 69, 0
2, 82080, Note_on_c, 0, 67, 50
2, 82240, Note_on_c, 0, 67, 0
2, 82240, Note_on_c, 0, 66, 45
2, 82400, Note_on_c, 0, 66, 0
2, 82400, Note_on_c, 0, 67, 45
2, 82560, Note_on_c, 0, 67, 0
2, 82560, Note_on_c, 0, 71, 50
2, 82680, Note_on_c, 0, 71, 0
2, 83040, Note_on_c, 0, 71, 46
2, 83160, Note_on_c, 0, 71, 0
2, 83520, Note_on_c, 0, 67, 50
2, 83760, Note_on_c, 0, 67, 0
2, 83940, Note_on_c, 0, 69, 41
2, 84000, Note_on_c, 0, 69, 0
2, 84000, Note_on_c, 0, 67, 50
2, 84160, Note_on_c, 0, 67, 0
2, 84160, Note_on_c, 0, 66, 44
2, 84320, Note_on_c, 0, 66, 0
2, 84320, Note_on_c, 0, 67, 53
2, 84480, Note_on_c, 0, 67, 0
2, 84480, Note_on_c, 0, 74, 62
2, 85440, Note_on_c, 0, 74, 0
2, 85440, Note_on_c, 0, 71, 50
2, 85920, Note_on_c, 0, 71, 0
2, 85920, Note_on_c, 0, 67, 47
2, 86400, Note_on_c, 0, 67, 0
2, 86400, Note_on_c, 0, 72, 62
2, 86640, Note_on_c, 0, 72, 0
2, 86820, Note_on_c, 0, 74, 54
2, 86880, Note_on_c, 0, 74, 0
2, 86880, Note_on_c, 0, 72, 62
2, 87040, Note_on_c, 0, 72, 0
2, 87040, Note_on_c, 0, 71, 50
2, 87200, Note_on_c, 0, 71, 0
2, 87200, Note_on_c, 0, 72, 50
2, 87360, Note_on_c, 0, 72, 0
2, 87360, Note_on_c, 0, 76, 64
2, 87600, Note_on_c, 0, 76, 0
2, 87840, Note_on_c, 0, 76, 61
2, 88080, Note_on_c, 0, 76, 0
2, 88320, Note_on_c, 0, 73, 65
2, 88800, Note_on_c, 0, 73, 0
2, 88800, Note_on_c, 0, 74, 63
2, 89040, Note_on_c, 0, 74, 0
2, 89700, Note_on_c, 0, 81, 49
2, 89760, Note_on_c, 0, 81, 0
2, 89760, Note_on_c, 0, 79, 57
2, 89920, Note_on_c, 0, 79, 0
2, 89920, Note_on_c, 0, 78, 51
2, 90080, Note_on_c, 0, 78, 0
2, 90080, Note_on_c, 0, 79, 51
2, 90240, Note_on_c, 0, 79, 0
2, 90240, Note_on_c, 0, 83, 64
2, 90360, Note_on_c, 0, 83, 0
2, 90720, Note_on_c, 0, 83, 52
2, 90960, Note_on_c, 0, 83, 0
2, 91200, Note_on_c, 0, 76, 57
2, 91440, Note_on_c, 0, 76, 0
2, 91680, Note_on_c, 0, 76, 57
2, 91920, Note_on_c, 0, 76, 0
2, 92160, Note_on_c, 0, 81, 69
2, 93120, Note_on_c, 0, 81, 0
2, 93120, Note_on_c, 0, 78, 62
2, 93600, Note_on_c, 0, 78, 0
2, 93600, Note_on_c, 0, 74, 54
2, 94080, Note_on_c, 0, 74, 0
2, 94080, Note_on_c, 0, 71, 50
2, 94320, Note_on_c, 0, 71, 0
2, 94560, Note_on_c, 0, 71, 46
2, 94800, Note_on_c, 0, 71, 0
2, 95040, Note_on_c, 0, 73, 50
2, 95280, Note_on_c, 0, 73, 0
2, 95460, Note_on_c, 0, 74, 46
2, 95520, Note_on_c, 0, 74, 0
2, 95520, Note_on_c, 0, 73, 51
2, 95680, Note_on_c, 0, 73, 0
2, 95680, Note_on_c, 0, 71, 46
2, 95840, Note_on_c, 0, 71, 0
2, 95840, Note_on_c, 0, 73, 46
2, 96000, Note_on_c, 0, 73, 0
2, 96000, Note_on_c, 0, 74, 47
2, 96160, Note_on_c, 0, 74, 0
2, 96160, Note_on_c, 0, 78, 50
2, 96320, Note_on_c, 0, 78, 0
2, 96320, Note_on_c, 0, 81, 52
2, 96480, Note_on_c, 0, 81, 0
2, 96480, Note_on_c, 0, 86, 54
2, 96640, Note_on_c, 0, 86, 0
2, 96640, Note_on_c, 0, 85, 49
2, 96800, Note_on_c, 0, 85, 0
2, 96800, Note_on_c, 0, 83, 49
2, 96960, Note_on_c, 0, 83, 0
2, 96960, Note_on_c, 0, 81, 51
2, 97120, Note_on_c, 0, 81, 0
2, 97120, Note_on_c, 0, 79, 48
2, 97280, Note_on_c, 0, 79, 0
2, 97280, Note_on_c, 0, 78, 48
2, 97440, Note_on_c, 0, 78, 0
2, 97440, Note_on_c, 0, 76, 51
2, 97600, Note_on_c, 0, 76, 0
2, 97600, Note_on_c, 0, 74, 46
2, 97760, Note_on_c, 0, 74, 0
2, 97760, Note_on_c, 0, 73, 46
2, 97920, Note_on_c, 0, 73, 0
2, 97920, Note_on_c, 0, 71, 46
2, 98080, Note_on_c, 0, 71, 0
2, 98080, Note_on_c, 0, 83, 51
2, 98240, Note_on_c, 0, 83, 0
2, 98240, Note_on_c, 0, 81, 46
2, 98400, Note_on_c, 0, 81, 0
2, 98400, Note_on_c, 0, 79, 50
2, 98560, Note_on_c, 0, 79, 0
2, 98560, Note_on_c, 0, 78, 48
2, 98720, Note_on_c, 0, 78, 0
2, 98720, Note_on_c, 0, 76, 48
2, 98880, Note_on_c, 0, 76, 0
2, 98880, Note_on_c, 0, 74, 49
2, 99040, Note_on_c, 0, 74, 0
2, 99040, Note_on_c, 0, 73, 46
2, 99200, Note_on_c, 0, 73, 0
2, 99200, Note_on_c, 0, 71, 46
2, 99360, Note_on_c, 0, 71, 0
2, 99360, Note_on_c, 0, 69, 47
2, 99520, Note_on_c, 0, 69, 0
2, 99520, Note_on_c, 0, 71, 45
2, 99680, Note_on_c, 0, 71, 0
2, 99680, Note_on_c, 0, 73, 45
2, 99840, Note_on_c, 0, 73, 0
2, 99840, Note_on_c, 0, 74, 47
2, 100000, Note_on_c, 0, 74, 0
2, 100000, Note_on_c, 0, 78, 50
2, 100160, Note_on_c, 0, 78, 0
2, 100160, Note_on_c, 0, 81, 52
2, 100320, Note_on_c, 0, 81, 0
2, 100320, Note_on_c, 0, 86, 54
2, 100480, Note_on_c, 0, 86, 0
2, 100480, Note_on_c, 0, 85, 49
2, 100640, Note_on_c, 0, 85, 0
2, 100640, Note_on_c, 0, 83, 49
2, 100800, Note_on_c, 0, 83, 0
2, 100800, Note_on_c, 0, 81, 51
2, 100960, Note_on_c, 0, 81, 0
2, 100960, Note_on_c, 0, 79, 48
2, 101120, Note_on_c, 0, 79, 0
2, 101120, Note_on_c, 0, 78, 48
2, 101280, Note_on_c, 0, 78, 0
2, 101280, Note_on_c, 0, 76, 51
2, 101440, Note_on_c, 0, 76, 0
2, 101440, Note_on_c, 0, 74, 46
2, 101600, Note_on_c, 0, 74, 0
2, 101600, Note_on_c, 0, 73, 46
2, 101760, Note_on_c, 0, 73, 0
2, 101760, Note_on_c, 0, 71, 46
2, 101920, Note_on_c, 0, 71, 0
2, 101920, Note_on_c, 0, 83, 51
2, 102080, Note_on_c, 0, 83, 0
2, 102080, Note_on_c, 0, 81, 46
2, 102240, Note_on_c, 0, 81, 0
2, 102240, Note_on_c, 0, 79, 50
2, 102400, Note_on_c, 0, 79, 0
2, 102400, Note_on_c, 0, 78, 48
2, 102560, Note_on_c, 0, 78, 0
2, 102560, Note_on_c, 0, 76, 48
2, 102720, Note_on_c, 0, 76, 0
2, 102720, Note_on_c, 0, 74, 49
2, 102880, Note_on_c, 0, 74, 0
2, 102880, Note_on_c, 0, 73, 46
2, 103040, Note_on_c, 0, 73, 0
2, 103040, Note_on_c, 0, 71, 46
2, 103200, Note_on_c, 0, 71, 0
2, 103200, Note_on_c, 0, 69, 47
2, 103360, Note_on_c, 0, 69, 0
2, 103360, Note_on_c, 0, 71, 45
2, 103520, Note_on_c, 0, 71, 0
2, 103520, Note_on_c, 0, 73, 45
2, 103680, Note_on_c, 0, 73, 0
2, 103680, Note_on_c, 0, 74, 47
2, 103840, Note_on_c, 0, 74, 0
2, 103840, Note_on_c, 0, 76, 42
2, 104000, Note_on_c, 0, 76, 0
2, 104000, Note_on_c, 0, 78, 42
2, 104160, Note_on_c, 0, 78, 0
2, 104160, Note_on_c, 0, 74, 47
2, 104320, Note_on_c, 0, 74, 0
2, 104320, Note_on_c, 0, 76, 43
2, 104480, Note_on_c, 0, 76, 0
2, 104480, Note_on_c, 0, 78, 47
2, 104640, Note_on_c, 0, 78, 0
2, 104640, Note_on_c, 0, 74, 54
2, 104800, Note_on_c, 0, 74, 0
2, 104800, Note_on_c, 0, 76, 48
2, 104960, Note_on_c, 0, 76, 0
2, 104960, Note_on_c, 0, 78, 48
2, 105120, Note_on_c, 0, 78, 0
2, 105120, Note_on_c, 0, 74, 56
2, 105280, Note_on_c, 0, 74, 0
2, 105280, Note_on_c, 0, 76, 52
2, 105440, Note_on_c, 0, 76, 0
2, 105440, Note_on_c, 0, 78, 52
2, 105600, Note_on_c, 0, 78, 0
2, 105600, Note_on_c, 0, 74, 60
2, 105760, Note_on_c, 0, 74, 0
2, 105760, Note_on_c, 0, 76, 52
2, 105920, Note_on_c, 0, 76, 0
2, 105920, Note_on_c, 0, 78, 57
2, 106080, Note_on_c, 0, 78, 0
2, 106080, Note_on_c, 0, 74, 64
2, 106240, Note_on_c, 0, 74, 0
2, 106240, Note_on_c, 0, 76, 58
2, 106400, Note_on_c, 0, 76, 0
2, 106400, Note_on_c, 0, 78, 61
2, 106560, Note_on_c, 0, 78, 0
2, 106560, Note_on_c, 0, 74, 68
2, 106720, Note_on_c, 0, 74, 0
2, 106720, Note_on_c, 0, 76, 63
2, 106880, Note_on_c, 0, 76, 0
2, 106880, Note_on_c, 0, 78, 65
2, 107040, Note_on_c, 0, 78, 0
2, 107040, Note_on_c, 0, 74, 73
2, 107200, Note_on_c, 0, 74, 0
2, 107200, Note_on_c, 0, 76, 69
2, 107360, Note_on_c, 0, 76, 0
2, 107360, Note_on_c, 0, 78, 70
2, 107520, Note_on_c, 0, 78, 0
2, 107520, Note_on_c, 0, 74, 75
2, 107680, Note_on_c, 0, 74, 0
2, 107680, Note_on_c, 0, 78, 71
2, 107840, Note_on_c, 0, 78, 0
2, 107840, Note_on_c, 0, 81, 68
2, 108000, Note_on_c, 0, 81, 0
2, 108000, Note_on_c, 0, 79, 74
2, 108160, Note_on_c, 0, 79, 0
2, 108160, Note_on_c, 0, 78, 68
2, 108320, Note_on_c, 0, 78, 0
2, 108320, Note_on_c, 0, 76, 64
2, 108480, Note_on_c, 0, 76, 0
2, 108480, Note_on_c, 0, 74, 71
2, 108640, Note_on_c, 0, 74, 0
2, 108640, Note_on_c, 0, 73, 64
2, 108800, Note_on_c, 0, 73, 0
2, 108800, Note_on_c, 0, 71, 62
2, 108960, Note_on_c, 0, 71, 0
2, 108960, Note_on_c, 0, 69, 72
2, 109120, Note_on_c, 0, 69, 0
2, 109120, Note_on_c, 0, 67, 67
2, 109280, Note_on_c, 0, 67, 0
2, 109280, Note_on_c, 0, 66, 67
2, 109440, Note_on_c, 0, 66, 0
2, 109440, Note_on_c, 0, 64, 41
2, 109520, Note_on_c, 0, 64, 0
2, 109520, Note_on_c, 0, 66, 39
2, 109600, Note_on_c, 0, 66, 0
2, 109600, Note_on_c, 0, 64, 46
2, 109680, Note_on_c, 0, 64, 0
2, 109680, Note_on_c, 0, 66, 44
2, 109760, Note_on_c, 0, 66, 0
2, 109760, Note_on_c, 0, 64, 49
2, 109840, Note_on_c, 0, 64, 0
2, 109840, Note_on_c, 0, 66, 46
2, 109920, Note_on_c, 0, 66, 0
2, 109920, Note_on_c, 0, 64, 51
2, 110000, Note_on_c, 0, 64, 0
2, 110000, Note_on_c, 0, 66, 48
2, 110080, Note_on_c, 0, 66, 0
2, 110080, Note_on_c, 0, 64, 54
2, 110160, Note_on_c, 0, 64, 0
2, 110160, Note_on_c, 0, 66, 49
2, 110240, Note_on_c, 0, 66, 0
2, 110240, Note_on_c, 0, 64, 57
2, 110320, Note_on_c, 0, 64, 0
2, 110320, Note_on_c, 0, 66, 53
2, 110400, Note_on_c, 0, 66, 0
2, 110400, Note_on_c, 0, 64, 56
2, 110480, Note_on_c, 0, 64, 0
2, 110480, Note_on_c, 0, 66, 51
2, 110560, Note_on_c, 0, 66, 0
2, 110560, Note_on_c, 0, 64, 56
2, 110640, Note_on_c, 0, 64, 0
2, 110640, Note_on_c, 0, 66, 50
2, 110720, Note_on_c, 0, 66, 0
2, 110720, Note_on_c, 0, 64, 56
2, 110800, Note_on_c, 0, 64, 0
2, 110800, Note_on_c, 0, 66, 51
2, 110880, Note_on_c, 0, 66, 0
2, 110880, Note_on_c, 0, 64, 54
2, 110960, Note_on_c, 0, 64, 0
2, 110960, Note_on_c, 0, 66, 49
2, 111040, Note_on_c, 0, 66, 0
2, 111040, Note_on_c, 0, 64, 53
2, 111120, Note_on_c, 0, 64, 0
2, 111120, Note_on_c, 0, 66, 49
2, 111180, Note_on_c, 0, 66, 0
2, 111180, Note_on_c, 0, 64, 53
2, 111240, Note_on_c, 0, 64, 0
2, 111240, Note_on_c, 0, 62, 49
2, 111300, Note_on_c, 0, 62, 0
2, 111300, Note_on_c, 0, 64, 49
2, 111360, Note_on_c, 0, 64, 0
2, 111360, Note_on_c, 0, 62, 49
2, 111520, Note_on_c, 0, 62, 0
2, 111520, Note_on_c, 0, 66, 32
2, 111680, Note_on_c, 0, 66, 0
2, 111680, Note_on_c, 0, 69, 32
2, 111840, Note_on_c, 0, 69, 0
2, 111840, Note_on_c, 0, 66, 48
2, 112000, Note_on_c, 0, 66, 0
2, 112000, Note_on_c, 0, 69, 32
2, 112160, Note_on_c, 0, 69, 0
2, 112160, Note_on_c, 0, 74, 29
2, 112320, Note_on_c, 0, 74, 0
2, 112320, Note_on_c, 0, 66, 41
2, 112480, Note_on_c, 0, 66, 0
2, 112480, Note_on_c, 0, 69, 28
2, 112640, Note_on_c, 0, 69, 0
2, 112640, Note_on_c, 0, 74, 28
2, 112800, Note_on_c, 0, 74, 0
2, 112800, Note_on_c, 0, 66, 41
2, 112960, Note_on_c, 0, 66, 0
2, 112960, Note_on_c, 0, 69, 29
2, 113120, Note_on_c, 0, 69, 0
2, 113120, Note_on_c, 0, 74, 29
2, 113280, Note_on_c, 0, 74, 0
2, 113280, Note_on_c, 0, 68, 41
2, 113440, Note_on_c, 0, 68, 0
2, 113440, Note_on_c, 0, 71, 29
2, 113600, Note_on_c, 0, 71, 0
2, 113600, Note_on_c, 0, 74, 29
2, 113760, Note_on_c, 0, 74, 0
2, 113760, Note_on_c, 0, 68, 41
2, 113920, Note_on_c, 0, 68, 0
2, 113920, Note_on_c, 0, 71, 29
2, 114080, Note_on_c, 0, 71, 0
2, 114080, Note_on_c, 0, 74, 29
2, 114240, Note_on_c, 0, 74, 0
2, 114240, Note_on_c, 0, 68, 41
2, 114400, Note_on_c, 0, 68, 0
2, 114400, Note_on_c, 0, 71, 29
2, 114560, Note_on_c, 0, 71, 0
2, 114560, Note_on_c, 0, 74, 29
2, 114720, Note_on_c, 0, 74, 0
2, 114720, Note_on_c, 0, 68, 41
2, 114880, Note_on_c, 0, 68, 0
2, 114880, Note_on_c, 0, 71, 30
2, 115040, Note_on_c, 0, 71, 0
2, 115040, Note_on_c, 0, 74, 30
2, 115200, Note_on_c, 0, 74, 0
2, 115200, Note_on_c, 0, 67, 41
2, 115360, Note_on_c, 0, 67, 0
2, 115360, Note_on_c, 0, 69, 29
2, 115520, Note_on_c, 0, 69, 0
2, 115520, Note_on_c, 0, 73, 29
2, 115680, Note_on_c, 0, 73, 0
2, 115680, Note_on_c, 0, 67, 41
2, 115840, Note_on_c, 0, 67, 0
2, 115840, Note_on_c, 0, 69, 29
2, 116000, Note_on_c, 0, 69, 0
2, 116000, Note_on_c, 0, 73, 29
2, 116160, Note_on_c, 0, 73, 0
2, 116160, Note_on_c, 0, 66, 41
2, 116320, Note_on_c, 0, 66, 0
2, 116320, Note_on_c, 0, 69, 29
2, 116480, Note_on_c, 0, 69, 0
2, 116480, Note_on_c, 0, 74, 29
2, 116640, Note_on_c, 0, 74, 0
2, 116640, Note_on_c, 0, 66, 41
2, 116800, Note_on_c, 0, 66, 0
2, 116800, Note_on_c, 0, 69, 30
2, 116960, Note_on_c, 0, 69, 0
2, 116960, Note_on_c, 0, 74, 30
2, 117120, Note_on_c, 0, 74, 0
2, 117120, Note_on_c, 0, 64, 41
2, 117280, Note_on_c, 0, 64, 0
2, 117280, Note_on_c, 0, 67, 29
2, 117440, Note_on_c, 0, 67, 0
2, 117440, Note_on_c, 0, 71, 29
2, 117600, Note_on_c, 0, 71, 0
2, 117600, Note_on_c, 0, 64, 41
2, 117760, Note_on_c, 0, 64, 0
2, 117760, Note_on_c, 0, 67, 29
2, 117920, Note_on_c, 0, 67, 0
2, 117920, Note_on_c, 0, 71, 29
2, 118080, Note_on_c, 0, 71, 0
2, 118080, Note_on_c, 0, 61, 41
2, 118240, Note_on_c, 0, 61, 0
2, 118240, Note_on_c, 0, 64, 29
2, 118400, Note_on_c, 0, 64, 0
2, 118400, Note_on_c, 0, 69, 29
2, 118560, Note_on_c, 0, 69, 0
2, 118560, Note_on_c, 0, 61, 41
2, 118720, Note_on_c, 0, 61, 0
2, 118720, Note_on_c, 0, 64, 30
2, 118880, Note_on_c, 0, 64, 0
2, 118880, Note_on_c, 0, 69, 30
2, 119040, Note_on_c, 0, 69, 0
2, 119040, Note_on_c, 0, 62, 49
2, 119200, Note_on_c, 0, 62, 0
2, 119200, Note_on_c, 0, 66, 30
2, 119360, Note_on_c, 0, 66, 0
2, 119360, Note_on_c, 0, 69, 30
2, 119520, Note_on_c, 0, 69, 0
2, 119520, Note_on_c, 0, 66, 46
2, 119680, Note_on_c, 0, 66, 0
2, 119680, Note_on_c, 0, 69, 30
2, 119840, Note_on_c, 0, 69, 0
2, 119840, Note_on_c, 0, 74, 30
2, 120000, Note_on_c, 0, 74, 0
2, 120000, Note_on_c, 0, 66, 41
2, 120160, Note_on_c, 0, 66, 0
2, 120160, Note_on_c, 0, 69, 28
2, 120320, Note_on_c, 0, 69, 0
2, 120320, Note_on_c, 0, 74, 28
2, 120480, Note_on_c, 0, 74, 0
2, 120480, Note_on_c, 0, 66, 45
2, 120640, Note_on_c, 0, 66, 0
2, 120640, Note_on_c, 0, 69, 32
2, 120800, Note_on_c, 0, 69, 0
2, 120800, Note_on_c, 0, 74, 32
2, 120960, Note_on_c, 0, 74, 0
2, 120960, Note_on_c, 0, 68, 46
2, 121120, Note_on_c, 0, 68, 0
2, 121120, Note_on_c, 0, 71, 33
2, 121280, Note_on_c, 0, 71, 0
2, 121280, Note_on_c, 0, 74, 33
2, 121440, Note_on_c, 0, 74, 0
2, 121440, Note_on_c, 0, 68, 47
2, 121600, Note_on_c, 0, 68, 0
2, 121600, Note_on_c, 0, 71, 34
2, 121760, Note_on_c, 0, 71, 0
2, 121760, Note_on_c, 0, 74, 34
2, 121920, Note_on_c, 0, 74, 0
2, 121920, Note_on_c, 0, 68, 49
2, 122080, Note_on_c, 0, 68, 0
2, 122080, Note_on_c, 0, 71, 36
2, 122240, Note_on_c, 0, 71, 0
2, 122240, Note_on_c, 0, 74, 36
2, 122400, Note_on_c, 0, 74, 0
2, 122400, Note_on_c, 0, 68, 52
2, 122560, Note_on_c, 0, 68, 0
2, 122560, Note_on_c, 0, 71, 38
2, 122720, Note_on_c, 0, 71, 0
2, 122720, Note_on_c, 0, 74, 39
2, 122880, Note_on_c, 0, 74, 0
2, 122880, Note_on_c, 0, 67, 54
2, 123040, Note_on_c, 0, 67, 0
2, 123040, Note_on_c, 0, 69, 39
2, 123200, Note_on_c, 0, 69, 0
2, 123200, Note_on_c, 0, 73, 39
2, 123360, Note_on_c, 0, 73, 0
2, 123360, Note_on_c, 0, 67, 55
2, 123520, Note_on_c, 0, 67, 0
2, 123520, Note_on_c, 0, 69, 39
2, 123680, Note_on_c, 0, 69, 0
2, 123680, Note_on_c, 0, 73, 40
2, 123840, Note_on_c, 0, 73, 0
2, 123840, Note_on_c, 0, 66, 56
2, 124000, Note_on_c, 0, 66, 0
2, 124000, Note_on_c, 0, 69, 40
2, 124160, Note_on_c, 0, 69, 0
2, 124160, Note_on_c, 0, 74, 41
2, 124320, Note_on_c, 0, 74, 0
2, 124320, Note_on_c, 0, 66, 58
2, 124480, Note_on_c, 0, 66, 0
2, 124480, Note_on_c, 0, 69, 43
2, 124640, Note_on_c, 0, 69, 0
2, 124640, Note_on_c, 0, 74, 44
2, 124800, Note_on_c, 0, 74, 0
2, 124800, Note_on_c, 0, 64, 63
2, 124960, Note_on_c, 0, 64, 0
2, 124960, Note_on_c, 0, 67, 44
2, 125120, Note_on_c, 0, 67, 0
2, 125120, Note_on_c, 0, 71, 45
2, 125280, Note_on_c, 0, 71, 0
2, 125280, Note_on_c, 0, 64, 64
2, 125440, Note_on_c, 0, 64, 0
2, 125440, Note_on_c, 0, 67, 45
2, 125600, Note_on_c, 0, 67, 0
2, 125600, Note_on_c, 0, 71, 46
2, 125760, Note_on_c, 0, 71, 0
2, 125760, Note_on_c, 0, 61, 64
2, 125920, Note_on_c, 0, 61, 0
2, 125920, Note_on_c, 0, 64, 46
2, 126080, Note_on_c, 0, 64, 0
2, 126080, Note_on_c, 0, 69, 46
2, 126240, Note_on_c, 0, 69, 0
2, 126240, Note_on_c, 0, 61, 66
2, 126400, Note_on_c, 0, 61, 0
2, 126400, Note_on_c, 0, 64, 48
2, 126560, Note_on_c, 0, 64, 0
2, 126560, Note_on_c, 0, 69, 48
2, 126720, Note_on_c, 0, 69, 0
2, 126720, Note_on_c, 0, 62, 70
2, 127200, Note_on_c, 0, 62, 0
2, 128100, Note_on_c, 0, 71, 65
2, 128160, Note_on_c, 0, 71, 0
2, 128160, Note_on_c, 0, 69, 70
2, 128320, Note_on_c, 0, 69, 0
2, 128320, Note_on_c, 0, 68, 66
2, 128480, Note_on_c, 0, 68, 0
2, 128480, Note_on_c, 0, 69, 66
2, 128640, Note_on_c, 0, 69, 0
2, 128640, Note_on_c, 0, 66, 70
2, 128640, Note_on_c, 0, 74, 76
2, 128880, Note_on_c, 0, 74, 0
2, 128880, Note_on_c, 0, 66, 0
2, 130020, Note_on_c, 0, 71, 65
2, 130080, Note_on_c, 0, 71, 0
2, 130080, Note_on_c, 0, 69, 70
2, 130240, Note_on_c, 0, 69, 0
2, 130240, Note_on_c, 0, 68, 66
2, 130400, Note_on_c, 0, 68, 0
2, 130400, Note_on_c, 0, 69, 66
2, 130560, Note_on_c, 0, 69, 0
2, 130560, Note_on_c, 0, 66, 70
2, 130560, Note_on_c, 0, 74, 76
2, 130800, Note_on_c, 0, 74, 0
2, 130800, Note_on_c, 0, 66, 0
2, 131940, Note_on_c, 0, 76, 43
2, 132000, Note_on_c, 0, 76, 0
2, 132000, Note_on_c, 0, 74, 50
2, 132160, Note_on_c, 0, 74, 0
2, 132160, Note_on_c, 0, 73, 45
2, 132320, Note_on_c, 0, 73, 0
2, 132320, Note_on_c, 0, 74, 45
2, 132480, Note_on_c, 0, 74, 0
2, 132480, Note_on_c, 0, 81, 50
2, 132600, Note_on_c, 0, 81, 0
2, 132960, Note_on_c, 0, 81, 46
2, 133440, Note_on_c, 0, 81, 0
2, 133440, Note_on_c, 0, 78, 50
2, 133920, Note_on_c, 0, 78, 0
2, 133920, Note_on_c, 0, 74, 50
2, 134400, Note_on_c, 0, 74, 0
2, 134400, Note_on_c, 0, 86, 62
2, 135360, Note_on_c, 0, 86, 0
2, 135360, Note_on_c, 0, 82, 50
2, 135600, Note_on_c, 0, 82, 0
2, 135840, Note_on_c, 0, 79, 47
2, 136080, Note_on_c, 0, 79, 0
2, 136320, Note_on_c, 0, 78, 62
2, 136560, Note_on_c, 0, 78, 0
2, 136740, Note_on_c, 0, 79, 54
2, 136800, Note_on_c, 0, 79, 0
2, 136800, Note_on_c, 0, 78, 62
2, 136960, Note_on_c, 0, 78, 0
2, 136960, Note_on_c, 0, 76, 50
2, 137120, Note_on_c, 0, 76, 0
2, 137120, Note_on_c, 0, 78, 50
2, 137280, Note_on_c, 0, 78, 0
2, 137280, Note_on_c, 0, 79, 64
2, 137520, Note_on_c, 0, 79, 0
2, 137760, Note_on_c, 0, 75, 61
2, 138000, Note_on_c, 0, 75, 0
2, 138240, Note_on_c, 0, 73, 65
2, 138720, Note_on_c, 0, 73, 0
2, 138720, Note_on_c, 0, 74, 63
2, 139440, Note_on_c, 0, 74, 0
2, 139620, Note_on_c, 0, 75, 43
2, 139680, Note_on_c, 0, 75, 0
2, 139680, Note_on_c, 0, 74, 50
2, 139840, Note_on_c, 0, 74, 0
2, 139840, Note_on_c, 0, 73, 45
2, 140000, Note_on_c, 0, 73, 0
2, 140000, Note_on_c, 0, 74, 45
2, 140160, Note_on_c, 0, 74, 0
2, 140160, Note_on_c, 0, 75, 50
2, 140400, Note_on_c, 0, 75, 0
2, 140640, Note_on_c, 0, 75, 46
2, 141120, Note_on_c, 0, 75, 0
2, 141120, Note_on_c, 0, 72, 50
2, 141600, Note_on_c, 0, 72, 0
2, 141600, Note_on_c, 0, 69, 50
2, 142080, Note_on_c, 0, 69, 0
2, 142080, Note_on_c, 0, 79, 62
2, 142560, Note_on_c, 0, 79, 0
2, 142560, Note_on_c, 0, 77, 50
2, 143040, Note_on_c, 0, 77, 0
2, 143040, Note_on_c, 0, 74, 56
2, 143520, Note_on_c, 0, 74, 0
2, 143520, Note_on_c, 0, 70, 50
2, 144000, Note_on_c, 0, 70, 0
2, 144000, Note_on_c, 0, 67, 63
2, 144480, Note_on_c, 0, 67, 0
2, 144480, Note_on_c, 0, 72, 48
2, 144960, Note_on_c, 0, 72, 0
2, 144960, Note_on_c, 0, 69, 61
2, 145440, Note_on_c, 0, 69, 0
2, 145440, Note_on_c, 0, 65, 55
2, 145920, Note_on_c, 0, 65, 0
2, 145920, Note_on_c, 0, 70, 56
2, 146080, Note_on_c, 0, 70, 0
2, 146080, Note_on_c, 0, 65, 34
2, 146240, Note_on_c, 0, 65, 0
2, 146240, Note_on_c, 0, 62, 34
2, 146400, Note_on_c, 0, 62, 0
2, 146400, Note_on_c, 0, 70, 52
2, 146560, Note_on_c, 0, 70, 0
2, 146560, Note_on_c, 0, 65, 34
2, 146720, Note_on_c, 0, 65, 0
2, 146720, Note_on_c, 0, 62, 34
2, 146880, Note_on_c, 0, 62, 0
2, 146880, Note_on_c, 0, 70, 47
2, 147040, Note_on_c, 0, 70, 0
2, 147040, Note_on_c, 0, 65, 32
2, 147200, Note_on_c, 0, 65, 0
2, 147200, Note_on_c, 0, 62, 32
2, 147360, Note_on_c, 0, 62, 0
2, 147360, Note_on_c, 0, 70, 51
2, 147520, Note_on_c, 0, 70, 0
2, 147520, Note_on_c, 0, 65, 36
2, 147680, Note_on_c, 0, 65, 0
2, 147680, Note_on_c, 0, 62, 36
2, 147840, Note_on_c, 0, 62, 0
2, 147840, Note_on_c, 0, 71, 52
2, 148000, Note_on_c, 0, 71, 0
2, 148000, Note_on_c, 0, 65, 38
2, 148160, Note_on_c, 0, 65, 0
2, 148160, Note_on_c, 0, 62, 38
2, 148320, Note_on_c, 0, 62, 0
2, 148320, Note_on_c, 0, 71, 54
2, 148480, Note_on_c, 0, 71, 0
2, 148480, Note_on_c, 0, 65, 39
2, 148640, Note_on_c, 0, 65, 0
2, 148640, Note_on_c, 0, 62, 39
2, 148800, Note_on_c, 0, 62, 0
2, 148800, Note_on_c, 0, 71, 55
2, 148960, Note_on_c, 0, 71, 0
2, 148960, Note_on_c, 0, 65, 40
2, 149120, Note_on_c, 0, 65, 0
2, 149120, Note_on_c, 0, 62, 40
2, 149280, Note_on_c, 0, 62, 0
2, 149280, Note_on_c, 0, 71, 57
2, 149440, Note_on_c, 0, 71, 0
2, 149440, Note_on_c, 0, 65, 41
2, 149600, Note_on_c, 0, 65, 0
2, 149600, Note_on_c, 0, 62, 42
2, 149760, Note_on_c, 0, 62, 0
2, 149920, Note_on_c, 0, 60, 52
2, 150080, Note_on_c, 0, 60, 0
2, 150080, Note_on_c, 0, 63, 52
2, 150240, Note_on_c, 0, 63, 0
2, 150240, Note_on_c, 0, 67, 58
2, 150400, Note_on_c, 0, 67, 0
2, 150400, Note_on_c, 0, 63, 52
2, 150560, Note_on_c, 0, 63, 0
2, 150560, Note_on_c, 0, 67, 52
2, 150720, Note_on_c, 0, 67, 0
2, 150720, Note_on_c, 0, 72, 58
2, 150880, Note_on_c, 0, 72, 0
2, 150880, Note_on_c, 0, 67, 52
2, 151040, Note_on_c, 0, 67, 0
2, 151040, Note_on_c, 0, 63, 54
2, 151200, Note_on_c, 0, 63, 0
2, 151200, Note_on_c, 0, 72, 51
2, 151360, Note_on_c, 0, 72, 0
2, 151360, Note_on_c, 0, 67, 46
2, 151520, Note_on_c, 0, 67, 0
2, 151520, Note_on_c, 0, 63, 46
2, 151680, Note_on_c, 0, 63, 0
2, 151680, Note_on_c, 0, 73, 52
2, 151840, Note_on_c, 0, 73, 0
2, 151840, Note_on_c, 0, 67, 38
2, 152000, Note_on_c, 0, 67, 0
2, 152000, Note_on_c, 0, 64, 38
2, 152160, Note_on_c, 0, 64, 0
2, 152160, Note_on_c, 0, 73, 54
2, 152320, Note_on_c, 0, 73, 0
2, 152320, Note_on_c, 0, 67, 39
2, 152480, Note_on_c, 0, 67, 0
2, 152480, Note_on_c, 0, 64, 39
2, 152640, Note_on_c, 0, 64, 0
2, 152640, Note_on_c, 0, 73, 55
2, 152800, Note_on_c, 0, 73, 0
2, 152800, Note_on_c, 0, 67, 40
2, 152960, Note_on_c, 0, 67, 0
2, 152960, Note_on_c, 0, 64, 40
2, 153120, Note_on_c, 0, 64, 0
2, 153120, Note_on_c, 0, 73, 57
2, 153280, Note_on_c, 0, 73, 0
2, 153280, Note_on_c, 0, 67, 41
2, 153440, Note_on_c, 0, 67, 0
2, 153440, Note_on_c, 0, 64, 42
2, 153600, Note_on_c, 0, 64, 0
2, 153760, Note_on_c, 0, 62, 52
2, 153920, Note_on_c, 0, 62, 0
2, 153920, Note_on_c, 0, 66, 52
2, 154080, Note_on_c, 0, 66, 0
2, 154080, Note_on_c, 0, 69, 58
2, 154240, Note_on_c, 0, 69, 0
2, 154240, Note_on_c, 0, 66, 52
2, 154400, Note_on_c, 0, 66, 0
2, 154400, Note_on_c, 0, 69, 52
2, 154560, Note_on_c, 0, 69, 0
2, 154560, Note_on_c, 0, 74, 58
2, 154720, Note_on_c, 0, 74, 0
2, 154720, Note_on_c, 0, 69, 52
2, 154880, Note_on_c, 0, 69, 0
2, 154880, Note_on_c, 0, 66, 54
2, 155040, Note_on_c, 0, 66, 0
2, 155040, Note_on_c, 0, 69, 58
2, 155200, Note_on_c, 0, 69, 0
2, 155200, Note_on_c, 0, 66, 53
2, 155360, Note_on_c, 0, 66, 0
2, 155360, Note_on_c, 0, 62, 53
2, 155520, Note_on_c, 0, 62, 0
2, 155680, Note_on_c, 0, 62, 52
2, 155840, Note_on_c, 0, 62, 0
2, 155840, Note_on_c, 0, 67, 52
2, 156000, Note_on_c, 0, 67, 0
2, 156000, Note_on_c, 0, 70, 58
2, 156160, Note_on_c, 0, 70, 0
2, 156160, Note_on_c, 0, 67, 52
2, 156320, Note_on_c, 0, 67, 0
2, 156320, Note_on_c, 0, 70, 52
2, 156480, Note_on_c, 0, 70, 0
2, 156480, Note_on_c, 0, 74, 58
2, 156640, Note_on_c, 0, 74, 0
2, 156640, Note_on_c, 0, 70, 52
2, 156800, Note_on_c, 0, 70, 0
2, 156800, Note_on_c, 0, 67, 54
2, 156960, Note_on_c, 0, 67, 0
2, 156960, Note_on_c, 0, 70, 58
2, 157120, Note_on_c, 0, 70, 0
2, 157120, Note_on_c, 0, 67, 53
2, 157280, Note_on_c, 0, 67, 0
2, 157280, Note_on_c, 0, 62, 53
2, 157440, Note_on_c, 0, 62, 0
2, 157600, Note_on_c, 0, 62, 50
2, 157760, Note_on_c, 0, 62, 0
2, 157760, Note_on_c, 0, 64, 50
2, 157920, Note_on_c, 0, 64, 0
2, 157920, Note_on_c, 0, 66, 50
2, 158080, Note_on_c, 0, 66, 0
2, 158080, Note_on_c, 0, 67, 50
2, 158240, Note_on_c, 0, 67, 0
2, 158240, Note_on_c, 0, 69, 50
2, 158400, Note_on_c, 0, 69, 0
2, 158400, Note_on_c, 0, 71, 50
2, 158560, Note_on_c, 0, 71, 0
2, 158560, Note_on_c, 0, 73, 50
2, 158720, Note_on_c, 0, 73, 0
2, 158720, Note_on_c, 0, 74, 50
2, 158880, Note_on_c, 0, 74, 0
2, 158880, Note_on_c, 0, 76, 52
2, 159040, Note_on_c, 0, 76, 0
2, 159040, Note_on_c, 0, 78, 53
2, 159200, Note_on_c, 0, 78, 0
2, 159200, Note_on_c, 0, 79, 54
2, 159360, Note_on_c, 0, 79, 0
2, 159360, Note_on_c, 0, 81, 55
2, 159520, Note_on_c, 0, 81, 0
2, 159520, Note_on_c, 0, 83, 56
2, 159680, Note_on_c, 0, 83, 0
2, 159680, Note_on_c, 0, 85, 60
2, 159840, Note_on_c, 0, 85, 0
2, 159840, Note_on_c, 0, 86, 66
2, 160000, Note_on_c, 0, 86, 0
2, 160000, Note_on_c, 0, 81, 59
2, 160160, Note_on_c, 0, 81, 0
2, 160160, Note_on_c, 0, 78, 53
2, 160320, Note_on_c, 0, 78, 0
2, 160320, Note_on_c, 0, 74, 58
2, 160480, Note_on_c, 0, 74, 0
2, 160480, Note_on_c, 0, 69, 54
2, 160640, Note_on_c, 0, 69, 0
2, 160640, Note_on_c, 0, 66, 54
2, 160800, Note_on_c, 0, 66, 0
2, 162660, Note_on_c, 0, 81, 43
2, 162720, Note_on_c, 0, 81, 0
2, 162720, Note_on_c, 0, 79, 50
2, 162880, Note_on_c, 0, 79, 0
2, 162880, Note_on_c, 0, 78, 45
2, 163040, Note_on_c, 0, 78, 0
2, 163040, Note_on_c, 0, 79, 45
2, 163200, Note_on_c, 0, 79, 0
2, 163200, Note_on_c, 0, 83, 50
2, 163320, Note_on_c, 0, 83, 0
2, 163680, Note_on_c, 0, 83, 46
2, 163800, Note_on_c, 0, 83, 0
2, 164160, Note_on_c, 0, 79, 50
2, 164400, Note_on_c, 0, 79, 0
2, 164580, Note_on_c, 0, 81, 41
2, 164640, Note_on_c, 0, 81, 0
2, 164640, Note_on_c, 0, 79, 50
2, 164800, Note_on_c, 0, 79, 0
2, 164800, Note_on_c, 0, 78, 44
2, 164960, Note_on_c, 0, 78, 0
2, 164960, Note_on_c, 0, 79, 53
2, 165120, Note_on_c, 0, 79, 0
2, 165120, Note_on_c, 0, 86, 62
2, 166080, Note_on_c, 0, 86, 0
2, 166080, Note_on_c, 0, 83, 50
2, 166560, Note_on_c, 0, 83, 0
2, 166560, Note_on_c, 0, 79, 47
2, 167040, Note_on_c, 0, 79, 0
2, 167040, Note_on_c, 0, 84, 62
2, 167280, Note_on_c, 0, 84, 0
2, 167460, Note_on_c, 0, 86, 54
2, 167520, Note_on_c, 0, 86, 0
2, 167520, Note_on_c, 0, 84, 62
2, 167680, Note_on_c, 0, 84, 0
2, 167680, Note_on_c, 0, 83, 50
2, 167840, Note_on_c, 0, 83, 0
2, 167840, Note_on_c, 0, 84, 50
2, 168000, Note_on_c, 0, 84, 0
2, 168000, Note_on_c, 0, 88, 64
2, 168240, Note_on_c, 0, 88, 0
2, 168480, Note_on_c, 0, 88, 61
2, 168720, Note_on_c, 0, 88, 0
2, 168960, Note_on_c, 0, 85, 65
2, 169440, Note_on_c, 0, 85, 0
2, 169440, Note_on_c, 0, 86, 63
2, 169680, Note_on_c, 0, 86, 0
2, 170340, Note_on_c, 0, 81, 43
2, 170400, Note_on_c, 0, 81, 0
2, 170400, Note_on_c, 0, 79, 50
2, 170560, Note_on_c, 0, 79, 0
2, 170560, Note_on_c, 0, 78, 45
2, 170720, Note_on_c, 0, 78, 0
2, 170720, Note_on_c, 0, 79, 45
2, 170880, Note_on_c, 0, 79, 0
2, 170880, Note_on_c, 0, 81, 50
2, 171000, Note_on_c, 0, 81, 0
2, 171360, Note_on_c, 0, 81, 46
2, 171840, Note_on_c, 0, 81, 0
2, 171840, Note_on_c, 0, 76, 50
2, 172320, Note_on_c, 0, 76, 0
2, 172320, Note_on_c, 0, 81, 50
2, 172800, Note_on_c, 0, 81, 0
2, 172800, Note_on_c, 0, 74, 62
2, 173760, Note_on_c, 0, 74, 0
2, 173760, Note_on_c, 0, 79, 50
2, 174240, Note_on_c, 0, 79, 0
2, 174240, Note_on_c, 0, 74, 47
2, 174720, Note_on_c, 0, 74, 0
2, 174720, Note_on_c, 0, 72, 50
2, 174960, Note_on_c, 0, 72, 0
2, 175200, Note_on_c, 0, 72, 46
2, 175440, Note_on_c, 0, 72, 0
2, 175680, Note_on_c, 0, 71, 50
2, 175920, Note_on_c, 0, 71, 0
2, 176160, Note_on_c, 0, 74, 50
2, 176400, Note_on_c, 0, 74, 0
2, 176640, Note_on_c, 0, 74, 64
2, 177120, Note_on_c, 0, 74, 0
2, 177120, Note_on_c, 0, 69, 48
2, 177360, Note_on_c, 0, 69, 0
2, 178020, Note_on_c, 0, 69, 43
2, 178080, Note_on_c, 0, 69, 0
2, 178080, Note_on_c, 0, 67, 50
2, 178240, Note_on_c, 0, 67, 0
2, 178240, Note_on_c, 0, 66, 45
2, 178400, Note_on_c, 0, 66, 0
2, 178400, Note_on_c, 0, 67, 45
2, 178560, Note_on_c, 0, 67, 0
2, 178560, Note_on_c, 0, 71, 50
2, 178680, Note_on_c, 0, 71, 0
2, 179040, Note_on_c, 0, 71, 46
2, 179160, Note_on_c, 0, 71, 0
2, 179520, Note_on_c, 0, 67, 50
2, 179760, Note_on_c, 0, 67, 0
2, 179940, Note_on_c, 0, 69, 41
2, 180000, Note_on_c, 0, 69, 0
2, 180000, Note_on_c, 0, 67, 50
2, 180160, Note_on_c, 0, 67, 0
2, 180160, Note_on_c, 0, 66, 44
2, 180320, Note_on_c, 0, 66, 0
2, 180320, Note_on_c, 0, 67, 53
2, 180480, Note_on_c, 0, 67, 0
2, 180480, Note_on_c, 0, 74, 62
2, 181440, Note_on_c, 0, 74, 0
2, 181440, Note_on_c, 0, 71, 50
2, 181920, Note_on_c, 0, 71, 0
2, 181920, Note_on_c, 0, 67, 47
2, 182400, Note_on_c, 0, 67, 0
2, 182400, Note_on_c, 0, 72, 62
2, 182640, Note_on_c, 0, 72, 0
2, 182820, Note_on_c, 0, 74, 54
2, 182880, Note_on_c, 0, 74, 0
2, 182880, Note_on_c, 0, 72, 62
2, 183040, Note_on_c, 0, 72, 0
2, 183040, Note_on_c, 0, 71, 50
2, 183200, Note_on_c, 0, 71, 0
2, 183200, Note_on_c, 0, 72, 50
2, 183360, Note_on_c, 0, 72, 0
2, 183360, Note_on_c, 0, 76, 64
2, 183600, Note_on_c, 0, 76, 0
2, 183840, Note_on_c, 0, 76, 61
2, 184080, Note_on_c, 0, 76, 0
2, 184320, Note_on_c, 0, 73, 65
2, 184800, Note_on_c, 0, 73, 0
2, 184800, Note_on_c, 0, 74, 63
2, 185040, Note_on_c, 0, 74, 0
2, 185700, Note_on_c, 0, 79, 49
2, 185760, Note_on_c, 0, 79, 0
2, 185760, Note_on_c, 0, 77, 57
2, 185920, Note_on_c, 0, 77, 0
2, 185920, Note_on_c, 0, 76, 51
2, 186080, Note_on_c, 0, 76, 0
2, 186080, Note_on_c, 0, 77, 51
2, 186240, Note_on_c, 0, 77, 0
2, 186240, Note_on_c, 0, 81, 64
2, 186360, Note_on_c, 0, 81, 0
2, 186720, Note_on_c, 0, 81, 52
2, 186960, Note_on_c, 0, 81, 0
2, 187200, Note_on_c, 0, 74, 57
2, 187440, Note_on_c, 0, 74, 0
2, 187680, Note_on_c, 0, 74, 57
2, 187920, Note_on_c, 0, 74, 0
2, 188160, Note_on_c, 0, 79, 69
2, 189120, Note_on_c, 0, 79, 0
2, 189120, Note_on_c, 0, 76, 62
2, 189600, Note_on_c, 0, 76, 0
2, 189600, Note_on_c, 0, 73, 54
2, 190080, Note_on_c, 0, 73, 0
2, 190080, Note_on_c, 0, 74, 50
2, 190320, Note_on_c, 0, 74, 0
2, 190560, Note_on_c, 0, 74, 46
2, 190800, Note_on_c, 0, 74, 0
2, 191040, Note_on_c, 0, 66, 50
2, 191280, Note_on_c, 0, 66, 0
2, 191460, Note_on_c, 0, 67, 46
2, 191520, Note_on_c, 0, 67, 0
2, 191520, Note_on_c, 0, 66, 51
2, 191680, Note_on_c, 0, 66, 0
2, 191680, Note_on_c, 0, 64, 46
2, 191840, Note_on_c, 0, 64, 0
2, 191840, Note_on_c, 0, 66, 46
2, 192000, Note_on_c, 0, 66, 0
2, 192000, Note_on_c, 0, 67, 47
2, 192160, Note_on_c, 0, 67, 0
2, 192160, Note_on_c, 0, 71, 50
2, 192320, Note_on_c, 0, 71, 0
2, 192320, Note_on_c, 0, 74, 52
2, 192480, Note_on_c, 0, 74, 0
2, 192480, Note_on_c, 0, 79, 54
2, 192640, Note_on_c, 0, 79, 0
2, 192640, Note_on_c, 0, 78, 49
2, 192800, Note_on_c, 0, 78, 0
2, 192800, Note_on_c, 0, 76, 49
2, 192960, Note_on_c, 0, 76, 0
2, 192960, Note_on_c, 0, 74, 51
2, 193120, Note_on_c, 0, 74, 0
2, 193120, Note_on_c, 0, 72, 48
2, 193280, Note_on_c, 0, 72, 0
2, 193280, Note_on_c, 0, 71, 48
2, 193440, Note_on_c, 0, 71, 0
2, 193440, Note_on_c, 0, 69, 51
2, 193600, Note_on_c, 0, 69, 0
2, 193600, Note_on_c, 0, 67, 46
2, 193760, Note_on_c, 0, 67, 0
2, 193760, Note_on_c, 0, 66, 46
2, 193920, Note_on_c, 0, 66, 0
2, 193920, Note_on_c, 0, 64, 46
2, 194080, Note_on_c, 0, 64, 0
2, 194080, Note_on_c, 0, 76, 51
2, 194240, Note_on_c, 0, 76, 0
2, 194240, Note_on_c, 0, 74, 46
2, 194400, Note_on_c, 0, 74, 0
2, 194400, Note_on_c, 0, 72, 50
2, 194560, Note_on_c, 0, 72, 0
2, 194560, Note_on_c, 0, 71, 48
2, 194720, Note_on_c, 0, 71, 0
2, 194720, Note_on_c, 0, 69, 48
2, 194880, Note_on_c, 0, 69, 0
2, 194880, Note_on_c, 0, 67, 49
2, 195040, Note_on_c, 0, 67, 0
2, 195040, Note_on_c, 0, 66, 46
2, 195200, Note_on_c, 0, 66, 0
2, 195200, Note_on_c, 0, 64, 46
2, 195360, Note_on_c, 0, 64, 0
2, 195360, Note_on_c, 0, 62, 47
2, 195520, Note_on_c, 0, 62, 0
2, 195520, Note_on_c, 0, 64, 45
2, 195680, Note_on_c, 0, 64, 0
2, 195680, Note_on_c, 0, 66, 45
2, 195840, Note_on_c, 0, 66, 0
2, 195840, Note_on_c, 0, 67, 47
2, 196000, Note_on_c, 0, 67, 0
2, 196000, Note_on_c, 0, 71, 50
2, 196160, Note_on_c, 0, 71, 0
2, 196160, Note_on_c, 0, 74, 52
2, 196320, Note_on_c, 0, 74, 0
2, 196320, Note_on_c, 0, 79, 54
2, 196480, Note_on_c, 0, 79, 0
2, 196480, Note_on_c, 0, 78, 49
2, 196640, Note_on_c, 0, 78, 0
2, 196640, Note_on_c, 0, 76, 49
2, 196800, Note_on_c, 0, 76, 0
2, 196800, Note_on_c, 0, 74, 51
2, 196960, Note_on_c, 0, 74, 0
2, 196960, Note_on_c, 0, 72, 48
2, 197120, Note_on_c, 0, 72, 0
2, 197120, Note_on_c, 0, 71, 48
2, 197280, Note_on_c, 0, 71, 0
2, 197280, Note_on_c, 0, 69, 51
2, 197440, Note_on_c, 0, 69, 0
2, 197440, Note_on_c, 0, 67, 46
2, 197600, Note_on_c, 0, 67, 0
2, 197600, Note_on_c, 0, 66, 46
2, 197760, Note_on_c, 0, 66, 0
2, 197760, Note_on_c, 0, 64, 46
2, 197920, Note_on_c, 0, 64, 0
2, 197920, Note_on_c, 0, 76, 51
2, 198080, Note_on_c, 0, 76, 0
2, 198080, Note_on_c, 0, 74, 46
2, 198240, Note_on_c, 0, 74, 0
2, 198240, Note_on_c, 0, 72, 50
2, 198400, Note_on_c, 0, 72, 0
2, 198400, Note_on_c, 0, 71, 48
2, 198560, Note_on_c, 0, 71, 0
2, 198560, Note_on_c, 0, 69, 48
2, 198720, Note_on_c, 0, 69, 0
2, 198720, Note_on_c, 0, 67, 49
2, 198880, Note_on_c, 0, 67, 0
2, 198880, Note_on_c, 0, 66, 46
2, 199040, Note_on_c, 0, 66, 0
2, 199040, Note_on_c, 0, 64, 46
2, 199200, Note_on_c, 0, 64, 0
2, 199200, Note_on_c, 0, 62, 47
2, 199360, Note_on_c, 0, 62, 0
2, 199360, Note_on_c, 0, 64, 45
2, 199520, Note_on_c, 0, 64, 0
2, 199520, Note_on_c, 0, 66, 45
2, 199680, Note_on_c, 0, 66, 0
2, 199680, Note_on_c, 0, 67, 47
2, 199840, Note_on_c, 0, 67, 0
2, 199840, Note_on_c, 0, 69, 42
2, 200000, Note_on_c, 0, 69, 0
2, 200000, Note_on_c, 0, 71, 42
2, 200160, Note_on_c, 0, 71, 0
2, 200160, Note_on_c, 0, 67, 47
2, 200320, Note_on_c, 0, 67, 0
2, 200320, Note_on_c, 0, 69, 43
2, 200480, Note_on_c, 0, 69, 0
2, 200480, Note_on_c, 0, 71, 47
2, 200640, Note_on_c, 0, 71, 0
2, 200640, Note_on_c, 0, 67, 54
2, 200800, Note_on_c, 0, 67, 0
2, 200800, Note_on_c, 0, 69, 48
2, 200960, Note_on_c, 0, 69, 0
2, 200960, Note_on_c, 0, 71, 48
2, 201120, Note_on_c, 0, 71, 0
2, 201120, Note_on_c, 0, 67, 56
2, 201280, Note_on_c, 0, 67, 0
2, 201280, Note_on_c, 0, 69, 52
2, 201440, Note_on_c, 0, 69, 0
2, 201440, Note_on_c, 0, 71, 52
2, 201600, Note_on_c, 0, 71, 0
2, 201600, Note_on_c, 0, 67, 60
2, 201760, Note_on_c, 0, 67, 0
2, 201760, Note_on_c, 0, 69, 52
2, 201920, Note_on_c, 0, 69, 0
2, 201920, Note_on_c, 0, 71, 57
2, 202080, Note_on_c, 0, 71, 0
2, 202080, Note_on_c, 0, 67, 64
2, 202240, Note_on_c, 0, 67, 0
2, 202240, Note_on_c, 0, 69, 58
2, 202400, Note_on_c, 0, 69, 0
2, 202400, Note_on_c, 0, 71, 61
2, 202560, Note_on_c, 0, 71, 0
2, 202560, Note_on_c, 0, 67, 68
2, 202720, Note_on_c, 0, 67, 0
2, 202720, Note_on_c, 0, 69, 63
2, 202880, Note_on_c, 0, 69, 0
2, 202880, Note_on_c, 0, 71, 65
2, 203040, Note_on_c, 0, 71, 0
2, 203040, Note_on_c, 0, 67, 73
2, 203200, Note_on_c, 0, 67, 0
2, 203200, Note_on_c, 0, 69, 69
2, 203360, Note_on_c, 0, 69, 0
2, 203360, Note_on_c, 0, 71, 70
2, 203520, Note_on_c, 0, 71, 0
2, 203680, Note_on_c, 0, 83, 71
2, 203840, Note_on_c, 0, 83, 0
2, 203840, Note_on_c, 0, 86, 68
2, 204000, Note_on_c, 0, 86, 0
2, 204000, Note_on_c, 0, 84, 74
2, 204160, Note_on_c, 0, 84, 0
2, 204160, Note_on_c, 0, 83, 68
2, 204320, Note_on_c, 0, 83, 0
2, 204320, Note_on_c, 0, 81, 64
2, 204480, Note_on_c, 0, 81, 0
2, 204480, Note_on_c, 0, 79, 71
2, 204640, Note_on_c, 0, 79, 0
2, 204640, Note_on_c, 0, 78, 64
2, 204800, Note_on_c, 0, 78, 0
2, 204800, Note_on_c, 0, 76, 62
2, 204960, Note_on_c, 0, 76, 0
2, 204960, Note_on_c, 0, 74, 72
2, 205120, Note_on_c, 0, 74, 0
2, 205120, Note_on_c, 0, 72, 67
2, 205280, Note_on_c, 0, 72, 0
2, 205280, Note_on_c, 0, 71, 67
2, 205440, Note_on_c, 0, 71, 0
2, 205440, Note_on_c, 0, 69, 41
2, 205520, Note_on_c, 0, 69, 0
2, 205520, Note_on_c, 0, 71, 39
2, 205600, Note_on_c, 0, 71, 0
2, 205600, Note_on_c, 0, 69, 46
2, 205680, Note_on_c, 0, 69, 0
2, 205680, Note_on_c, 0, 71, 44
2, 205760, Note_on_c, 0, 71, 0
2, 205760, Note_on_c, 0, 69, 49
2, 205840, Note_on_c, 0, 69, 0
2, 205840, Note_on_c, 0, 71, 46
2, 205920, Note_on_c, 0, 71, 0
2, 205920, Note_on_c, 0, 69, 51
2, 206000, Note_on_c, 0, 69, 0
2, 206000, Note_on_c, 0, 71, 48
2, 206080, Note_on_c, 0, 71, 0
2, 206080, Note_on_c, 0, 69, 54
2, 206160, Note_on_c, 0, 69, 0
2, 206160, Note_on_c, 0, 71, 49
2, 206240, Note_on_c, 0, 71, 0
2, 206240, Note_on_c, 0, 69, 57
2, 206320, Note_on_c, 0, 69, 0
2, 206320, Note_on_c, 0, 71, 53
2, 206400, Note_on_c, 0, 71, 0
2, 206400, Note_on_c, 0, 69, 56
2, 206480, Note_on_c, 0, 69, 0
2, 206480, Note_on_c, 0, 71, 51
2, 206560, Note_on_c, 0, 71, 0
2, 206560, Note_on_c, 0, 69, 56
2, 206640, Note_on_c, 0, 69, 0
2, 206640, Note_on_c, 0, 71, 50
2, 206720, Note_on_c, 0, 71, 0
2, 206720, Note_on_c, 0, 69, 56
2, 206800, Note_on_c, 0, 69, 0
2, 206800, Note_on_c, 0, 71, 51
2, 206880, Note_on_c, 0, 71, 0
2, 206880, Note_on_c, 0, 69, 54
2, 206960, Note_on_c, 0, 69, 0
2, 206960, Note_on_c, 0, 71, 49
2, 207040, Note_on_c, 0, 71, 0
2, 207040, Note_on_c, 0, 69, 53
2, 207120, Note_on_c, 0, 69, 0
2, 207120, Note_on_c, 0, 71, 49
2, 207180, Note_on_c, 0, 71, 0
2, 207180, Note_on_c, 0, 69, 53
2, 207240, Note_on_c, 0, 69, 0
2, 207240, Note_on_c, 0, 67, 49
2, 207300, Note_on_c, 0, 67, 0
2, 207300, Note_on_c, 0, 69, 49
2, 207360, Note_on_c, 0, 69, 0
2, 207360, Note_on_c, 0, 67, 49
2, 207520, Note_on_c, 0, 67, 0
2, 207520, Note_on_c, 0, 71, 32
2, 207680, Note_on_c, 0, 71, 0
2, 207680, Note_on_c, 0, 74, 32
2, 207840, Note_on_c, 0, 74, 0
2, 207840, Note_on_c, 0, 71, 48
2, 208000, Note_on_c, 0, 71, 0
2, 208000, Note_on_c, 0, 74, 32
2, 208160, Note_on_c, 0, 74, 0
2, 208160, Note_on_c, 0, 79, 29
2, 208320, Note_on_c, 0, 79, 0
2, 208320, Note_on_c, 0, 71, 41
2, 208480, Note_on_c, 0, 71, 0
2, 208480, Note_on_c, 0, 74, 28
2, 208640, Note_on_c, 0, 74, 0
2, 208640, Note_on_c, 0, 79, 28
2, 208800, Note_on_c, 0, 79, 0
2, 208800, Note_on_c, 0, 71, 41
2, 208960, Note_on_c, 0, 71, 0
2, 208960, Note_on_c, 0, 74, 29
2, 209120, Note_on_c, 0, 74, 0
2, 209120, Note_on_c, 0, 79, 29
2, 209280, Note_on_c, 0, 79, 0
2, 209280, Note_on_c, 0, 73, 41
2, 209440, Note_on_c, 0, 73, 0
2, 209440, Note_on_c, 0, 76, 29
2, 209600, Note_on_c, 0, 76, 0
2, 209600, Note_on_c, 0, 79, 29
2, 209760, Note_on_c, 0, 79, 0
2, 209760, Note_on_c, 0, 73, 41
2, 209920, Note_on_c, 0, 73, 0
2, 209920, Note_on_c, 0, 76, 29
2, 210080, Note_on_c, 0, 76, 0
2, 210080, Note_on_c, 0, 79, 29
2, 210240, Note_on_c, 0, 79, 0
2, 210240, Note_on_c, 0, 73, 41
2, 210400, Note_on_c, 0, 73, 0
2, 210400, Note_on_c, 0, 76, 29
2, 210560, Note_on_c, 0, 76, 0
2, 210560, Note_on_c, 0, 79, 29
2, 210720, Note_on_c, 0, 79, 0
2, 210720, Note_on_c, 0, 73, 41
2, 210880, Note_on_c, 0, 73, 0
2, 210880, Note_on_c, 0, 76, 30
2, 211040, Note_on_c, 0, 76, 0
2, 211040, Note_on_c, 0, 79, 30
2, 211200, Note_on_c, 0, 79, 0
2, 211200, Note_on_c, 0, 72, 41
2, 211360, Note_on_c, 0, 72, 0
2, 211360, Note_on_c, 0, 74, 29
2, 211520, Note_on_c, 0, 74, 0
2, 211520, Note_on_c, 0, 78, 29
2, 211680, Note_on_c, 0, 78, 0
2, 211680, Note_on_c, 0, 72, 41
2, 211840, Note_on_c, 0, 72, 0
2, 211840, Note_on_c, 0, 74, 29
2, 212000, Note_on_c, 0, 74, 0
2, 212000, Note_on_c, 0, 78, 29
2, 212160, Note_on_c, 0, 78, 0
2, 212160, Note_on_c, 0, 71, 41
2, 212320, Note_on_c, 0, 71, 0
2, 212320, Note_on_c, 0, 74, 29
2, 212480, Note_on_c, 0, 74, 0
2, 212480, Note_on_c, 0, 79, 29
2, 212640, Note_on_c, 0, 79, 0
2, 212640, Note_on_c, 0, 71, 41
2, 212800, Note_on_c, 0, 71, 0
2, 212800, Note_on_c, 0, 74, 30
2, 212960, Note_on_c, 0, 74, 0
2, 212960, Note_on_c, 0, 79, 30
2, 213120, Note_on_c, 0, 79, 0
2, 213120, Note_on_c, 0, 69, 41
2, 213280, Note_on_c, 0, 69, 0
2, 213280, Note_on_c, 0, 72, 29
2, 213440, Note_on_c, 0, 72, 0
2, 213440, Note_on_c, 0, 76, 29
2, 213600, Note_on_c, 0, 76, 0
2, 213600, Note_on_c, 0, 69, 41
2, 213760, Note_on_c, 0, 69, 0
2, 213760, Note_on_c, 0, 72, 29
2, 213920, Note_on_c, 0, 72, 0
2, 213920, Note_on_c, 0, 76, 37
2, 214080, Note_on_c, 0, 76, 0
2, 214080, Note_on_c, 0, 66, 41
2, 214240, Note_on_c, 0, 66, 0
2, 214240, Note_on_c, 0, 69, 29
2, 214400, Note_on_c, 0, 69, 0
2, 214400, Note_on_c, 0, 74, 29
2, 214560, Note_on_c, 0, 74, 0
2, 214560, Note_on_c, 0, 66, 41
2, 214720, Note_on_c, 0, 66, 0
2, 214720, Note_on_c, 0, 69, 30
2, 214880, Note_on_c, 0, 69, 0
2, 214880, Note_on_c, 0, 74, 30
2, 215040, Note_on_c, 0, 74, 0
2, 215040, Note_on_c, 0, 67, 49
2, 215200, Note_on_c, 0, 67, 0
2, 215200, Note_on_c, 0, 71, 30
2, 215360, Note_on_c, 0, 71, 0
2, 215360, Note_on_c, 0, 74, 30
2, 215520, Note_on_c, 0, 74, 0
2, 215520, Note_on_c, 0, 71, 46
2, 215680, Note_on_c, 0, 71, 0
2, 215680, Note_on_c, 0, 74, 30
2, 215840, Note_on_c, 0, 74, 0
2, 215840, Note_on_c, 0, 79, 30
2, 216000, Note_on_c, 0, 79, 0
2, 216000, Note_on_c, 0, 71, 41
2, 216160, Note_on_c, 0, 71, 0
2, 216160, Note_on_c, 0, 74, 28
2, 216320, Note_on_c, 0, 74, 0
2, 216320, Note_on_c, 0, 79, 28
2, 216480, Note_on_c, 0, 79, 0
2, 216480, Note_on_c, 0, 71, 45
2, 216640, Note_on_c, 0, 71, 0
2, 216640, Note_on_c, 0, 74, 32
2, 216800, Note_on_c, 0, 74, 0
2, 216800, Note_on_c, 0, 79, 32
2, 216960, Note_on_c, 0, 79, 0
2, 216960, Note_on_c, 0, 73, 46
2, 217120, Note_on_c, 0, 73, 0
2, 217120, Note_on_c, 0, 76, 33
2, 217280, Note_on_c, 0, 76, 0
2, 217280, Note_on_c, 0, 79, 33
2, 217440, Note_on_c, 0, 79, 0
2, 217440, Note_on_c, 0, 73, 47
2, 217600, Note_on_c, 0, 73, 0
2, 217600, Note_on_c, 0, 76, 34
2, 217760, Note_on_c, 0, 76, 0
2, 217760, Note_on_c, 0, 79, 34
2, 217920, Note_on_c, 0, 79, 0
2, 217920, Note_on_c, 0, 73, 49
2, 218080, Note_on_c, 0, 73, 0
2, 218080, Note_on_c, 0, 76, 36
2, 218240, Note_on_c, 0, 76, 0
2, 218240, Note_on_c, 0, 79, 36
2, 218400, Note_on_c, 0, 79, 0
2, 218400, Note_on_c, 0, 73, 52
2, 218560, Note_on_c, 0, 73, 0
2, 218560, Note_on_c, 0, 76, 38
2, 218720, Note_on_c, 0, 76, 0
2, 218720, Note_on_c, 0, 79, 39
2, 218880, Note_on_c, 0, 79, 0
2, 218880, Note_on_c, 0, 72, 43
2, 219040, Note_on_c, 0, 72, 0
2, 219040, Note_on_c, 0, 74, 39
2, 219200, Note_on_c, 0, 74, 0
2, 219200, Note_on_c, 0, 78, 39
2, 219360, Note_on_c, 0, 78, 0
2, 219360, Note_on_c, 0, 72, 55
2, 219520, Note_on_c, 0, 72, 0
2, 219520, Note_on_c, 0, 74, 39
2, 219680, Note_on_c, 0, 74, 0
2, 219680, Note_on_c, 0, 78, 40
2, 219840, Note_on_c, 0, 78, 0
2, 219840, Note_on_c, 0, 71, 56
2, 220000, Note_on_c, 0, 71, 0
2, 220000, Note_on_c, 0, 74, 40
2, 220160, Note_on_c, 0, 74, 0
2, 220160, Note_on_c, 0, 79, 41
2, 220320, Note_on_c, 0, 79, 0
2, 220320, Note_on_c, 0, 71, 58
2, 220480, Note_on_c, 0, 71, 0
2, 220480, Note_on_c, 0, 74, 43
2, 220640, Note_on_c, 0, 74, 0
2, 220640, Note_on_c, 0, 79, 44
2, 220800, Note_on_c, 0, 79, 0
2, 220800, Note_on_c, 0, 69, 63
2, 220960, Note_on_c, 0, 69, 0
2, 220960, Note_on_c, 0, 72, 44
2, 221120, Note_on_c, 0, 72, 0
2, 221120, Note_on_c, 0, 76, 45
2, 221280, Note_on_c, 0, 76, 0
2, 221280, Note_on_c, 0, 69, 64
2, 221440, Note_on_c, 0, 69, 0
2, 221440, Note_on_c, 0, 72, 45
2, 221600, Note_on_c, 0, 72, 0
2, 221600, Note_on_c, 0, 76, 46
2, 221760, Note_on_c, 0, 76, 0
2, 221760, Note_on_c, 0, 66, 64
2, 221920, Note_on_c, 0, 66, 0
2, 221920, Note_on_c, 0, 69, 46
2, 222080, Note_on_c, 0, 69, 0
2, 222080, Note_on_c, 0, 74, 46
2, 222240, Note_on_c, 0, 74, 0
2, 222240, Note_on_c, 0, 66, 66
2, 222400, Note_on_c, 0, 66, 0
2, 222400, Note_on_c, 0, 69, 48
2, 222560, Note_on_c, 0, 69, 0
2, 222560, Note_on_c, 0, 74, 48
2, 222720, Note_on_c, 0, 74, 0
2, 222720, Note_on_c, 0, 67, 73
2, 223200, Note_on_c, 0, 67, 0
2, 224100, Note_on_c, 0, 76, 65
2, 224160, Note_on_c, 0, 76, 0
2, 224160, Note_on_c, 0, 74, 70
2, 224320, Note_on_c, 0, 74, 0
2, 224320, Note_on_c, 0, 73, 66
2, 224480, Note_on_c, 0, 73, 0
2, 224480, Note_on_c, 0, 74, 66
2, 224640, Note_on_c, 0, 74, 0
2, 224640, Note_on_c, 0, 71, 70
2, 224640, Note_on_c, 0, 79, 76
2, 224880, Note_on_c, 0, 79, 0
2, 224880, Note_on_c, 0, 71, 0
2, 226020, Note_on_c, 0, 76, 65
2, 226080, Note_on_c, 0, 76, 0
2, 226080, Note_on_c, 0, 74, 70
2, 226240, Note_on_c, 0, 74, 0
2, 226240, Note_on_c, 0, 73, 66
2, 226400, Note_on_c, 0, 73, 0
2, 226400, Note_on_c, 0, 74, 66
2, 226560, Note_on_c, 0, 74, 0
2, 226560, Note_on_c, 0, 71, 70
2, 226560, Note_on_c, 0, 79, 76
2, 226800, Note_on_c, 0, 79, 0
2, 226800, Note_on_c, 0, 71, 0
2, 227940, Note_on_c, 0, 76, 43
2, 228000, Note_on_c, 0, 76, 0
2, 228000, Note_on_c, 0, 74, 50
2, 228160, Note_on_c, 0, 74, 0
2, 228160, Note_on_c, 0, 73, 45
2, 228320, Note_on_c, 0, 73, 0
2, 228320, Note_on_c, 0, 74, 45
2, 228480, Note_on_c, 0, 74, 0
2, 228480, Note_on_c, 0, 81, 50
2, 228600, Note_on_c, 0, 81, 0
2, 228960, Note_on_c, 0, 81, 46
2, 229440, Note_on_c, 0, 81, 0
2, 229440, Note_on_c, 0, 78, 50
2, 229920, Note_on_c, 0, 78, 0
2, 229920, Note_on_c, 0, 74, 50
2, 230400, Note_on_c, 0, 74, 0
2, 230400, Note_on_c, 0, 86, 62
2, 231360, Note_on_c, 0, 86, 0
2, 231360, Note_on_c, 0, 82, 50
2, 231600, Note_on_c, 0, 82, 0
2, 231840, Note_on_c, 0, 79, 47
2, 232080, Note_on_c, 0, 79, 0
2, 232320, Note_on_c, 0, 78, 62
2, 232560, Note_on_c, 0, 78, 0
2, 232740, Note_on_c, 0, 79, 54
2, 232800, Note_on_c, 0, 79, 0
2, 232800, Note_on_c, 0, 78, 62
2, 232960, Note_on_c, 0, 78, 0
2, 232960, Note_on_c, 0, 76, 50
2, 233120, Note_on_c, 0, 76, 0
2, 233120, Note_on_c, 0, 78, 50
2, 233280, Note_on_c, 0, 78, 0
2, 233280, Note_on_c, 0, 79, 64
2, 233520, Note_on_c, 0, 79, 0
2, 233760, Note_on_c, 0, 75, 61
2, 234000, Note_on_c, 0, 75, 0
2, 234240, Note_on_c, 0, 73, 65
2, 234720, Note_on_c, 0, 73, 0
2, 234720, Note_on_c, 0, 74, 63
2, 235440, Note_on_c, 0, 74, 0
2, 235620, Note_on_c, 0, 75, 43
2, 235680, Note_on_c, 0, 75, 0
2, 235680, Note_on_c, 0, 74, 50
2, 235840, Note_on_c, 0, 74, 0
2, 235840, Note_on_c, 0, 73, 45
2, 236000, Note_on_c, 0, 73, 0
2, 236000, Note_on_c, 0, 74, 45
2, 236160, Note_on_c, 0, 74, 0
2, 236160, Note_on_c, 0, 75, 50
2, 236400, Note_on_c, 0, 75, 0
2, 236640, Note_on_c, 0, 75, 46
2, 237120, Note_on_c, 0, 75, 0
2, 237120, Note_on_c, 0, 72, 50
2, 237600, Note_on_c, 0, 72, 0
2, 237600, Note_on_c, 0, 69, 50
2, 238080, Note_on_c, 0, 69, 0
2, 238080, Note_on_c, 0, 79, 62
2, 238560, Note_on_c, 0, 79, 0
2, 238560, Note_on_c, 0, 77, 50
2, 239040, Note_on_c, 0, 77, 0
2, 239040, Note_on_c, 0, 74, 56
2, 239520, Note_on_c, 0, 74, 0
2, 239520, Note_on_c, 0, 70, 50
2, 240000, Note_on_c, 0, 70, 0
2, 240000, Note_on_c, 0, 67, 63
2, 240480, Note_on_c, 0, 67, 0
2, 240480, Note_on_c, 0, 72, 48
2, 240960, Note_on_c, 0, 72, 0
2, 240960, Note_on_c, 0, 69, 61
2, 241440, Note_on_c, 0, 69, 0
2, 241440, Note_on_c, 0, 65, 55
2, 241920, Note_on_c, 0, 65, 0
2, 241920, Note_on_c, 0, 70, 56
2, 242080, Note_on_c, 0, 70, 0
2, 242080, Note_on_c, 0, 65, 34
2, 242240, Note_on_c, 0, 65, 0
2, 242240, Note_on_c, 0, 62, 34
2, 242400, Note_on_c, 0, 62, 0
2, 242400, Note_on_c, 0, 70, 52
2, 242560, Note_on_c, 0, 70, 0
2, 242560, Note_on_c, 0, 65, 34
2, 242720, Note_on_c, 0, 65, 0
2, 242720, Note_on_c, 0, 62, 34
2, 242880, Note_on_c, 0, 62, 0
2, 242880, Note_on_c, 0, 70, 47
2, 243040, Note_on_c, 0, 70, 0
2, 243040, Note_on_c, 0, 65, 32
2, 243200, Note_on_c, 0, 65, 0
2, 243200, Note_on_c, 0, 62, 32
2, 243360, Note_on_c, 0, 62, 0
2, 243360, Note_on_c, 0, 70, 51
2, 243520, Note_on_c, 0, 70, 0
2, 243520, Note_on_c, 0, 65, 36
2, 243680, Note_on_c, 0, 65, 0
2, 243680, Note_on_c, 0, 62, 36
2, 243840, Note_on_c, 0, 62, 0
2, 243840, Note_on_c, 0, 71, 52
2, 244000, Note_on_c, 0, 71, 0
2, 244000, Note_on_c, 0, 65, 38
2, 244160, Note_on_c, 0, 65, 0
2, 244160, Note_on_c, 0, 62, 38
2, 244320, Note_on_c, 0, 62, 0
2, 244320, Note_on_c, 0, 71, 54
2, 244480, Note_on_c, 0, 71, 0
2, 244480, Note_on_c, 0, 65, 39
2, 244640, Note_on_c, 0, 65, 0
2, 244640, Note_on_c, 0, 62, 39
2, 244800, Note_on_c, 0, 62, 0
2, 244800, Note_on_c, 0, 71, 55
2, 244960, Note_on_c, 0, 71, 0
2, 244960, Note_on_c, 0, 65, 40
2, 245120, Note_on_c, 0, 65, 0
2, 245120, Note_on_c, 0, 62, 40
2, 245280, Note_on_c, 0, 62, 0
2, 245280, Note_on_c, 0, 71, 57
2, 245440, Note_on_c, 0, 71, 0
2, 245440, Note_on_c, 0, 65, 41
2, 245600, Note_on_c, 0, 65, 0
2, 245600, Note_on_c, 0, 62, 42
2, 245760, Note_on_c, 0, 62, 0
2, 245920, Note_on_c, 0, 60, 52
2, 246080, Note_on_c, 0, 60, 0
2, 246080, Note_on_c, 0, 63, 52
2, 246240, Note_on_c, 0, 63, 0
2, 246240, Note_on_c, 0, 67, 58
2, 246400, Note_on_c, 0, 67, 0
2, 246400, Note_on_c, 0, 63, 52
2, 246560, Note_on_c, 0, 63, 0
2, 246560, Note_on_c, 0, 67, 52
2, 246720, Note_on_c, 0, 67, 0
2, 246720, Note_on_c, 0, 72, 58
2, 246880, Note_on_c, 0, 72, 0
2, 246880, Note_on_c, 0, 67, 52
2, 247040, Note_on_c, 0, 67, 0
2, 247040, Note_on_c, 0, 63, 54
2, 247200, Note_on_c, 0, 63, 0
2, 247200, Note_on_c, 0, 72, 51
2, 247360, Note_on_c, 0, 72, 0
2, 247360, Note_on_c, 0, 67, 46
2, 247520, Note_on_c, 0, 67, 0
2, 247520, Note_on_c, 0, 63, 46
2, 247680, Note_on_c, 0, 63, 0
2, 247680, Note_on_c, 0, 73, 52
2, 247840, Note_on_c, 0, 73, 0
2, 247840, Note_on_c, 0, 67, 38
2, 248000, Note_on_c, 0, 67, 0
2, 248000, Note_on_c, 0, 64, 38
2, 248160, Note_on_c, 0, 64, 0
2, 248160, Note_on_c, 0, 73, 54
2, 248320, Note_on_c, 0, 73, 0
2, 248320, Note_on_c, 0, 67, 39
2, 248480, Note_on_c, 0, 67, 0
2, 248480, Note_on_c, 0, 64, 39
2, 248640, Note_on_c, 0, 64, 0
2, 248640, Note_on_c, 0, 73, 55
2, 248800, Note_on_c, 0, 73, 0
2, 248800, Note_on_c, 0, 67, 40
2, 248960, Note_on_c, 0, 67, 0
2, 248960, Note_on_c, 0, 64, 40
2, 249120, Note_on_c, 0, 64, 0
2, 249120, Note_on_c, 0, 73, 57
2, 249280, Note_on_c, 0, 73, 0
2, 249280, Note_on_c, 0, 67, 41
2, 249440, Note_on_c, 0, 67, 0
2, 249440, Note_on_c, 0, 64, 42
2, 249600, Note_on_c, 0, 64, 0
2, 249760, Note_on_c, 0, 62, 52
2, 249920, Note_on_c, 0, 62, 0
2, 249920, Note_on_c, 0, 66, 52
2, 250080, Note_on_c, 0, 66, 0
2, 250080, Note_on_c, 0, 69, 58
2, 250240, Note_on_c, 0, 69, 0
2, 250240, Note_on_c, 0, 66, 52
2, 250400, Note_on_c, 0, 66, 0
2, 250400, Note_on_c, 0, 69, 52
2, 250560, Note_on_c, 0, 69, 0
2, 250560, Note_on_c, 0, 74, 58
2, 250720, Note_on_c, 0, 74, 0
2, 250720, Note_on_c, 0, 69, 52
2, 250880, Note_on_c, 0, 69, 0
2, 250880, Note_on_c, 0, 66, 54
2, 251040, Note_on_c, 0, 66, 0
2, 251040, Note_on_c, 0, 69, 58
2, 251200, Note_on_c, 0, 69, 0
2, 251200, Note_on_c, 0, 66, 53
2, 251360, Note_on_c, 0, 66, 0
2, 251360, Note_on_c, 0, 62, 53
2, 251520, Note_on_c, 0, 62, 0
2, 251680, Note_on_c, 0, 62, 52
2, 251840, Note_on_c, 0, 62, 0
2, 251840, Note_on_c, 0, 67, 52
2, 252000, Note_on_c, 0, 67, 0
2, 252000, Note_on_c, 0, 70, 58
2, 252160, Note_on_c, 0, 70, 0
2, 252160, Note_on_c, 0, 67, 52
2, 252320, Note_on_c, 0, 67, 0
2, 252320, Note_on_c, 0, 70, 52
2, 252480, Note_on_c, 0, 70, 0
2, 252480, Note_on_c, 0, 74, 58
2, 252640, Note_on_c, 0, 74, 0
2, 252640, Note_on_c, 0, 70, 52
2, 252800, Note_on_c, 0, 70, 0
2, 252800, Note_on_c, 0, 67, 54
2, 252960, Note_on_c, 0, 67, 0
2, 252960, Note_on_c, 0, 70, 58
2, 253120, Note_on_c, 0, 70, 0
2, 253120, Note_on_c, 0, 67, 53
2, 253280, Note_on_c, 0, 67, 0
2, 253280, Note_on_c, 0, 62, 53
2, 253440, Note_on_c, 0, 62, 0
2, 253600, Note_on_c, 0, 62, 50
2, 253760, Note_on_c, 0, 62, 0
2, 253760, Note_on_c, 0, 64, 50
2, 253920, Note_on_c, 0, 64, 0
2, 253920, Note_on_c, 0, 66, 50
2, 254080, Note_on_c, 0, 66, 0
2, 254080, Note_on_c, 0, 67, 50
2, 254240, Note_on_c, 0, 67, 0
2, 254240, Note_on_c, 0, 69, 50
2, 254400, Note_on_c, 0, 69, 0
2, 254400, Note_on_c, 0, 71, 50
2, 254560, Note_on_c, 0, 71, 0
2, 254560, Note_on_c, 0, 73, 50
2, 254720, Note_on_c, 0, 73, 0
2, 254720, Note_on_c, 0, 74, 50
2, 254880, Note_on_c, 0, 74, 0
2, 254880, Note_on_c, 0, 76, 52
2, 255040, Note_on_c, 0, 76, 0
2, 255040, Note_on_c, 0, 78, 53
2, 255200, Note_on_c, 0, 78, 0
2, 255200, Note_on_c, 0, 79, 54
2, 255360, Note_on_c, 0, 79, 0
2, 255360, Note_on_c, 0, 81, 55
2, 255520, Note_on_c, 0, 81, 0
2, 255520, Note_on_c, 0, 83, 56
2, 255680, Note_on_c, 0, 83, 0
2, 255680, Note_on_c, 0, 85, 60
2, 255840, Note_on_c, 0, 85, 0
2, 255840, Note_on_c, 0, 86, 66
2, 256000, Note_on_c, 0, 86, 0
2, 256000, Note_on_c, 0, 81, 59
2, 256160, Note_on_c, 0, 81, 0
2, 256160, Note_on_c, 0, 78, 53
2, 256320, Note_on_c, 0, 78, 0
2, 256320, Note_on_c, 0, 74, 58
2, 256480, Note_on_c, 0, 74, 0
2, 256480, Note_on_c, 0, 69, 54
2, 256640, Note_on_c, 0, 69, 0
2, 256640, Note_on_c, 0, 66, 54
2, 256800, Note_on_c, 0, 66, 0
2, 258660, Note_on_c, 0, 81, 43
2, 258720, Note_on_c, 0, 81, 0
2, 258720, Note_on_c, 0, 79, 50
2, 258880, Note_on_c, 0, 79, 0
2, 258880, Note_on_c, 0, 78, 45
2, 259040, Note_on_c, 0, 78, 0
2, 259040, Note_on_c, 0, 79, 45
2, 259200, Note_on_c, 0, 79, 0
2, 259200, Note_on_c, 0, 83, 50
2, 259320, Note_on_c, 0, 83, 0
2, 259680, Note_on_c, 0, 83, 46
2, 259800, Note_on_c, 0, 83, 0
2, 260160, Note_on_c, 0, 79, 50
2, 260400, Note_on_c, 0, 79, 0
2, 260580, Note_on_c, 0, 81, 41
2, 260640, Note_on_c, 0, 81, 0
2, 260640, Note_on_c, 0, 79, 50
2, 260800, Note_on_c, 0, 79, 0
2, 260800, Note_on_c, 0, 78, 44
2, 260960, Note_on_c, 0, 78, 0
2, 260960, Note_on_c, 0, 79, 53
2, 261120, Note_on_c, 0, 79, 0
2, 261120, Note_on_c, 0, 86, 62
2, 262080, Note_on_c, 0, 86, 0
2, 262080, Note_on_c, 0, 83, 50
2, 262560, Note_on_c, 0, 83, 0
2, 262560, Note_on_c, 0, 79, 47
2, 263040, Note_on_c, 0, 79, 0
2, 263040, Note_on_c, 0, 84, 62
2, 263280, Note_on_c, 0, 84, 0
2, 263460, Note_on_c, 0, 86, 54
2, 263520, Note_on_c, 0, 86, 0
2, 263520, Note_on_c, 0, 84, 62
2, 263680, Note_on_c, 0, 84, 0
2, 263680, Note_on_c, 0, 83, 50
2, 263840, Note_on_c, 0, 83, 0
2, 263840, Note_on_c, 0, 84, 50
2, 264000, Note_on_c, 0, 84, 0
2, 264000, Note_on_c, 0, 88, 64
2, 264240, Note_on_c, 0, 88, 0
2, 264480, Note_on_c, 0, 88, 61
2, 264720, Note_on_c, 0, 88, 0
2, 264960, Note_on_c, 0, 85, 65
2, 265440, Note_on_c, 0, 85, 0
2, 265440, Note_on_c, 0, 86, 63
2, 265680, Note_on_c, 0, 86, 0
2, 266340, Note_on_c, 0, 81, 43
2, 266400, Note_on_c, 0, 81, 0
2, 266400, Note_on_c, 0, 79, 50
2, 266560, Note_on_c, 0, 79, 0
2, 266560, Note_on_c, 0, 78, 45
2, 266720, Note_on_c, 0, 78, 0
2, 266720, Note_on_c, 0, 79, 45
2, 266880, Note_on_c, 0, 79, 0
2, 266880, Note_on_c, 0, 81, 50
2, 267000, Note_on_c, 0, 81, 0
2, 267360, Note_on_c, 0, 81, 46
2, 267840, Note_on_c, 0, 81, 0
2, 267840, Note_on_c, 0, 76, 50
2, 268320, Note_on_c, 0, 76, 0
2, 268320, Note_on_c, 0, 81, 50
2, 268800, Note_on_c, 0, 81, 0
2, 268800, Note_on_c, 0, 74, 62
2, 269760, Note_on_c, 0, 74, 0
2, 269760, Note_on_c, 0, 79, 50
2, 270240, Note_on_c, 0, 79, 0
2, 270240, Note_on_c, 0, 74, 47
2, 270720, Note_on_c, 0, 74, 0
2, 270720, Note_on_c, 0, 72, 50
2, 270960, Note_on_c, 0, 72, 0
2, 271200, Note_on_c, 0, 72, 46
2, 271440, Note_on_c, 0, 72, 0
2, 271680, Note_on_c, 0, 71, 50
2, 271920, Note_on_c, 0, 71, 0
2, 272160, Note_on_c, 0, 74, 50
2, 272400, Note_on_c, 0, 74, 0
2, 272640, Note_on_c, 0, 74, 64
2, 273120, Note_on_c, 0, 74, 0
2, 273120, Note_on_c, 0, 69, 48
2, 273360, Note_on_c, 0, 69, 0
2, 274020, Note_on_c, 0, 69, 43
2, 274080, Note_on_c, 0, 69, 0
2, 274080, Note_on_c, 0, 67, 50
2, 274240, Note_on_c, 0, 67, 0
2, 274240, Note_on_c, 0, 66, 45
2, 274400, Note_on_c, 0, 66, 0
2, 274400, Note_on_c, 0, 67, 45
2, 274560, Note_on_c, 0, 67, 0
2, 274560, Note_on_c, 0, 71, 50
2, 274680, Note_on_c, 0, 71, 0
2, 275040, Note_on_c, 0, 71, 46
2, 275160, Note_on_c, 0, 71, 0
2, 275520, Note_on_c, 0, 67, 50
2, 275760, Note_on_c, 0, 67, 0
2, 275940, Note_on_c, 0, 69, 41
2, 276000, Note_on_c, 0, 69, 0
2, 276000, Note_on_c, 0, 67, 50
2, 276160, Note_on_c, 0, 67, 0
2, 276160, Note_on_c, 0, 66, 44
2, 276320, Note_on_c, 0, 66, 0
2, 276320, Note_on_c, 0, 67, 53
2, 276480, Note_on_c, 0, 67, 0
2, 276480, Note_on_c, 0, 74, 62
2, 277440, Note_on_c, 0, 74, 0
2, 277440, Note_on_c, 0, 71, 50
2, 277920, Note_on_c, 0, 71, 0
2, 277920, Note_on_c, 0, 67, 47
2, 278400, Note_on_c, 0, 67, 0
2, 278400, Note_on_c, 0, 72, 62
2, 278640, Note_on_c, 0, 72, 0
2, 278820, Note_on_c, 0, 74, 54
2, 278880, Note_on_c, 0, 74, 0
2, 278880, Note_on_c, 0, 72, 62
2, 279040, Note_on_c, 0, 72, 0
2, 279040, Note_on_c, 0, 71, 50
2, 279200, Note_on_c, 0, 71, 0
2, 279200, Note_on_c, 0, 72, 50
2, 279360, Note_on_c, 0, 72, 0
2, 279360, Note_on_c, 0, 76, 64
2, 279600, Note_on_c, 0, 76, 0
2, 279840, Note_on_c, 0, 76, 61
2, 280080, Note_on_c, 0, 76, 0
2, 280320, Note_on_c, 0, 73, 65
2, 280800, Note_on_c, 0, 73, 0
2, 280800, Note_on_c, 0, 74, 63
2, 281040, Note_on_c, 0, 74, 0
2, 281700, Note_on_c, 0, 79, 49
2, 281760, Note_on_c, 0, 79, 0
2, 281760, Note_on_c, 0, 77, 57
2, 281920, Note_on_c, 0, 77, 0
2, 281920, Note_on_c, 0, 76, 51
2, 282080, Note_on_c, 0, 76, 0
2, 282080, Note_on_c, 0, 77, 51
2, 282240, Note_on_c, 0, 77, 0
2, 282240, Note_on_c, 0, 81, 64
2, 282360, Note_on_c, 0, 81, 0
2, 282720, Note_on_c, 0, 81, 52
2, 282960, Note_on_c, 0, 81, 0
2, 283200, Note_on_c, 0, 74, 57
2, 283440, Note_on_c, 0, 74, 0
2, 283680, Note_on_c, 0, 74, 57
2, 283920, Note_on_c, 0, 74, 0
2, 284160, Note_on_c, 0, 79, 69
2, 285120, Note_on_c, 0, 79, 0
2, 285120, Note_on_c, 0, 76, 62
2, 285600, Note_on_c, 0, 76, 0
2, 285600, Note_on_c, 0, 73, 54
2, 286080, Note_on_c, 0, 73, 0
2, 286080, Note_on_c, 0, 74, 50
2, 286320, Note_on_c, 0, 74, 0
2, 286560, Note_on_c, 0, 74, 46
2, 286800, Note_on_c, 0, 74, 0
2, 287040, Note_on_c, 0, 66, 50
2, 287280, Note_on_c, 0, 66, 0
2, 287460, Note_on_c, 0, 67, 46
2, 287520, Note_on_c, 0, 67, 0
2, 287520, Note_on_c, 0, 66, 51
2, 287680, Note_on_c, 0, 66, 0
2, 287680, Note_on_c, 0, 64, 46
2, 287840, Note_on_c, 0, 64, 0
2, 287840, Note_on_c, 0, 66, 46
2, 288000, Note_on_c, 0, 66, 0
2, 288000, Note_on_c, 0, 67, 47
2, 288160, Note_on_c, 0, 67, 0
2, 288160, Note_on_c, 0, 71, 50
2, 288320, Note_on_c, 0, 71, 0
2, 288320, Note_on_c, 0, 74, 52
2, 288480, Note_on_c, 0, 74, 0
2, 288480, Note_on_c, 0, 79, 54
2, 288640, Note_on_c, 0, 79, 0
2, 288640, Note_on_c, 0, 78, 49
2, 288800, Note_on_c, 0, 78, 0
2, 288800, Note_on_c, 0, 76, 49
2, 288960, Note_on_c, 0, 76, 0
2, 288960, Note_on_c, 0, 74, 51
2, 289120, Note_on_c, 0, 74, 0
2, 289120, Note_on_c, 0, 72, 48
2, 289280, Note_on_c, 0, 72, 0
2, 289280, Note_on_c, 0, 71, 48
2, 289440, Note_on_c, 0, 71, 0
2, 289440, Note_on_c, 0, 69, 51
2, 289600, Note_on_c, 0, 69, 0
2, 289600, Note_on_c, 0, 67, 46
2, 289760, Note_on_c, 0, 67, 0
2, 289760, Note_on_c, 0, 66, 46
2, 289920, Note_on_c, 0, 66, 0
2, 289920, Note_on_c, 0, 64, 46
2, 290080, Note_on_c, 0, 64, 0
2, 290080, Note_on_c, 0, 76, 51
2, 290240, Note_on_c, 0, 76, 0
2, 290240, Note_on_c, 0, 74, 46
2, 290400, Note_on_c, 0, 74, 0
2, 290400, Note_on_c, 0, 72, 50
2, 290560, Note_on_c, 0, 72, 0
2, 290560, Note_on_c, 0, 71, 48
2, 290720, Note_on_c, 0, 71, 0
2, 290720, Note_on_c, 0, 69, 48
2, 290880, Note_on_c, 0, 69, 0
2, 290880, Note_on_c, 0, 67, 49
2, 291040, Note_on_c, 0, 67, 0
2, 291040, Note_on_c, 0, 66, 46
2, 291200, Note_on_c, 0, 66, 0
2, 291200, Note_on_c, 0, 64, 46
2, 291360, Note_on_c, 0, 64, 0
2, 291360, Note_on_c, 0, 62, 47
2, 291520, Note_on_c, 0, 62, 0
2, 291520, Note_on_c, 0, 64, 45
2, 291680, Note_on_c, 0, 64, 0
2, 291680, Note_on_c, 0, 66, 45
2, 291840, Note_on_c, 0, 66, 0
2, 291840, Note_on_c, 0, 67, 47
2, 292000, Note_on_c, 0, 67, 0
2, 292000, Note_on_c, 0, 71, 50
2, 292160, Note_on_c, 0, 71, 0
2, 292160, Note_on_c, 0, 74, 52
2, 292320, Note_on_c, 0, 74, 0
2, 292320, Note_on_c, 0, 79, 54
2, 292480, Note_on_c, 0, 79, 0
2, 292480, Note_on_c, 0, 78, 49
2, 292640, Note_on_c, 0, 78, 0
2, 292640, Note_on_c, 0, 76, 49
2, 292800, Note_on_c, 0, 76, 0
2, 292800, Note_on_c, 0, 74, 51
2, 292960, Note_on_c, 0, 74, 0
2, 292960, Note_on_c, 0, 72, 48
2, 293120, Note_on_c, 0, 72, 0
2, 293120, Note_on_c, 0, 71, 48
2, 293280, Note_on_c, 0, 71, 0
2, 293280, Note_on_c, 0, 69, 51
2, 293440, Note_on_c, 0, 69, 0
2, 293440, Note_on_c, 0, 67, 46
2, 293600, Note_on_c, 0, 67, 0
2, 293600, Note_on_c, 0, 66, 46
2, 293760, Note_on_c, 0, 66, 0
2, 293760, Note_on_c, 0, 64, 46
2, 293920, Note_on_c, 0, 64, 0
2, 293920, Note_on_c, 0, 76, 51
2, 294080, Note_on_c, 0, 76, 0
2, 294080, Note_on_c, 0, 74, 46
2, 294240, Note_on_c, 0, 74, 0
2, 294240, Note_on_c, 0, 72, 50
2, 294400, Note_on_c, 0, 72, 0
2, 294400, Note_on_c, 0, 71, 48
2, 294560, Note_on_c, 0, 71, 0
2, 294560, Note_on_c, 0, 69, 48
2, 294720, Note_on_c, 0, 69, 0
2, 294720, Note_on_c, 0, 67, 49
2, 294880, Note_on_c, 0, 67, 0
2, 294880, Note_on_c, 0, 66, 46
2, 295040, Note_on_c, 0, 66, 0
2, 295040, Note_on_c, 0, 64, 46
2, 295200, Note_on_c, 0, 64, 0
2, 295200, Note_on_c, 0, 62, 47
2, 295360, Note_on_c, 0, 62, 0
2, 295360, Note_on_c, 0, 64, 45
2, 295520, Note_on_c, 0, 64, 0
2, 295520, Note_on_c, 0, 66, 45
2, 295680, Note_on_c, 0, 66, 0
2, 295680, Note_on_c, 0, 67, 47
2, 295840, Note_on_c, 0, 67, 0
2, 295840, Note_on_c, 0, 69, 42
2, 296000, Note_on_c, 0, 69, 0
2, 296000, Note_on_c, 0, 71, 42
2, 296160, Note_on_c, 0, 71, 0
2, 296160, Note_on_c, 0, 67, 47
2, 296320, Note_on_c, 0, 67, 0
2, 296320, Note_on_c, 0, 69, 43
2, 296480, Note_on_c, 0, 69, 0
2, 296480, Note_on_c, 0, 71, 47
2, 296640, Note_on_c, 0, 71, 0
2, 296640, Note_on_c, 0, 67, 54
2, 296800, Note_on_c, 0, 67, 0
2, 296800, Note_on_c, 0, 69, 48
2, 296960, Note_on_c, 0, 69, 0
2, 296960, Note_on_c, 0, 71, 48
2, 297120, Note_on_c, 0, 71, 0
2, 297120, Note_on_c, 0, 67, 56
2, 297280, Note_on_c, 0, 67, 0
2, 297280, Note_on_c, 0, 69, 52
2, 297440, Note_on_c, 0, 69, 0
2, 297440, Note_on_c, 0, 71, 52
2, 297600, Note_on_c, 0, 71, 0
2, 297600, Note_on_c, 0, 67, 60
2, 297760, Note_on_c, 0, 67, 0
2, 297760, Note_on_c, 0, 69, 52
2, 297920, Note_on_c, 0, 69, 0
2, 297920, Note_on_c, 0, 71, 57
2, 298080, Note_on_c, 0, 71, 0
2, 298080, Note_on_c, 0, 67, 64
2, 298240, Note_on_c, 0, 67, 0
2, 298240, Note_on_c, 0, 69, 58
2, 298400, Note_on_c, 0, 69, 0
2, 298400, Note_on_c, 0, 71, 61
2, 298560, Note_on_c, 0, 71, 0
2, 298560, Note_on_c, 0, 67, 68
2, 298720, Note_on_c, 0, 67, 0
2, 298720, Note_on_c, 0, 69, 63
2, 298880, Note_on_c, 0, 69, 0
2, 298880, Note_on_c, 0, 71, 65
2, 299040, Note_on_c, 0, 71, 0
2, 299040, Note_on_c, 0, 67, 73
2, 299200, Note_on_c, 0, 67, 0
2, 299200, Note_on_c, 0, 69, 69
2, 299360, Note_on_c, 0, 69, 0
2, 299360, Note_on_c, 0, 71, 70
2, 299520, Note_on_c, 0, 71, 0
2, 299680, Note_on_c, 0, 83, 71
2, 299840, Note_on_c, 0, 83, 0
2, 299840, Note_on_c, 0, 86, 68
2, 300000, Note_on_c, 0, 86, 0
2, 300000, Note_on_c, 0, 84, 74
2, 300160, Note_on_c, 0, 84, 0
2, 300160, Note_on_c, 0, 83, 68
2, 300320, Note_on_c, 0, 83, 0
2, 300320, Note_on_c, 0, 81, 64
2, 300480, Note_on_c, 0, 81, 0
2, 300480, Note_on_c, 0, 79, 71
2, 300640, Note_on_c, 0, 79, 0
2, 300640, Note_on_c, 0, 78, 64
2, 300800, Note_on_c, 0, 78, 0
2, 300800, Note_on_c, 0, 76, 62
2, 300960, Note_on_c, 0, 76, 0
2, 300960, Note_on_c, 0, 74, 72
2, 301120, Note_on_c, 0, 74, 0
2, 301120, Note_on_c, 0, 72, 67
2, 301280, Note_on_c, 0, 72, 0
2, 301280, Note_on_c, 0, 71, 67
2, 301440, Note_on_c, 0, 71, 0
2, 301440, Note_on_c, 0, 69, 41
2, 301520, Note_on_c, 0, 69, 0
2, 301520, Note_on_c, 0, 71, 39
2, 301600, Note_on_c, 0, 71, 0
2, 301600, Note_on_c, 0, 69, 46
2, 301680, Note_on_c, 0, 69, 0
2, 301680, Note_on_c, 0, 71, 44
2, 301760, Note_on_c, 0, 71, 0
2, 301760, Note_on_c, 0, 69, 49
2, 301840, Note_on_c, 0, 69, 0
2, 301840, Note_on_c, 0, 71, 46
2, 301920, Note_on_c, 0, 71, 0
2, 301920, Note_on_c, 0, 69, 51
2, 302000, Note_on_c, 0, 69, 0
2, 302000, Note_on_c, 0, 71, 48
2, 302080, Note_on_c, 0, 71, 0
2, 302080, Note_on_c, 0, 69, 54
2, 302160, Note_on_c, 0, 69, 0
2, 302160, Note_on_c, 0, 71, 49
2, 302240, Note_on_c, 0, 71, 0
2, 302240, Note_on_c, 0, 69, 57
2, 302320, Note_on_c, 0, 69, 0
2, 302320, Note_on_c, 0, 71, 53
2, 302400, Note_on_c, 0, 71, 0
2, 302400, Note_on_c, 0, 69, 56
2, 302480, Note_on_c, 0, 69, 0
2, 302480, Note_on_c, 0, 71, 51
2, 302560, Note_on_c, 0, 71, 0
2, 302560, Note_on_c, 0, 69, 56
2, 302640, Note_on_c, 0, 69, 0
2, 302640, Note_on_c, 0, 71, 50
2, 302720, Note_on_c, 0, 71, 0
2, 302720, Note_on_c, 0, 69, 56
2, 302800, Note_on_c, 0, 69, 0
2, 302800, Note_on_c, 0, 71, 51
2, 302880, Note_on_c, 0, 71, 0
2, 302880, Note_on_c, 0, 69, 54
2, 302960, Note_on_c, 0, 69, 0
2, 302960, Note_on_c, 0, 71, 49
2, 303040, Note_on_c, 0, 71, 0
2, 303040, Note_on_c, 0, 69, 53
2, 303120, Note_on_c, 0, 69, 0
2, 303120, Note_on_c, 0, 71, 49
2, 303180, Note_on_c, 0, 71, 0
2, 303180, Note_on_c, 0, 69, 53
2, 303240, Note_on_c, 0, 69, 0
2, 303240, Note_on_c, 0, 67, 49
2, 303300, Note_on_c, 0, 67, 0
2, 303300, Note_on_c, 0, 69, 49
2, 303360, Note_on_c, 0, 69, 0
2, 303360, Note_on_c, 0, 67, 49
2, 303520, Note_on_c, 0, 67, 0
2, 303520, Note_on_c, 0, 71, 32
2, 303680, Note_on_c, 0, 71, 0
2, 303680, Note_on_c, 0, 74, 32
2, 303840, Note_on_c, 0, 74, 0
2, 303840, Note_on_c, 0, 71, 48
2, 304000, Note_on_c, 0, 71, 0
2, 304000, Note_on_c, 0, 74, 32
2, 304160, Note_on_c, 0, 74, 0
2, 304160, Note_on_c, 0, 79, 29
2, 304320, Note_on_c, 0, 79, 0
2, 304320, Note_on_c, 0, 71, 41
2, 304480, Note_on_c, 0, 71, 0
2, 304480, Note_on_c, 0, 74, 28
2, 304640, Note_on_c, 0, 74, 0
2, 304640, Note_on_c, 0, 79, 28
2, 304800, Note_on_c, 0, 79, 0
2, 304800, Note_on_c, 0, 71, 41
2, 304960, Note_on_c, 0, 71, 0
2, 304960, Note_on_c, 0, 74, 29
2, 305120, Note_on_c, 0, 74, 0
2, 305120, Note_on_c, 0, 79, 29
2, 305280, Note_on_c, 0, 79, 0
2, 305280, Note_on_c, 0, 73, 41
2, 305440, Note_on_c, 0, 73, 0
2, 305440, Note_on_c, 0, 76, 29
2, 305600, Note_on_c, 0, 76, 0
2, 305600, Note_on_c, 0, 79, 29
2, 305760, Note_on_c, 0, 79, 0
2, 305760, Note_on_c, 0, 73, 41
2, 305920, Note_on_c, 0, 73, 0
2, 305920, Note_on_c, 0, 76, 29
2, 306080, Note_on_c, 0, 76, 0
2, 306080, Note_on_c, 0, 79, 29
2, 306240, Note_on_c, 0, 79, 0
2, 306240, Note_on_c, 0, 73, 41
2, 306400, Note_on_c, 0, 73, 0
2, 306400, Note_on_c, 0, 76, 29
2, 306560, Note_on_c, 0, 76, 0
2, 306560, Note_on_c, 0, 79, 29
2, 306720, Note_on_c, 0, 79, 0
2, 306720, Note_on_c, 0, 73, 41
2, 306880, Note_on_c, 0, 73, 0
2, 306880, Note_on_c, 0, 76, 30
2, 307040, Note_on_c, 0, 76, 0
2, 307040, Note_on_c, 0, 79, 30
2, 307200, Note_on_c, 0, 79, 0
2, 307200, Note_on_c, 0, 72, 41
2, 307360, Note_on_c, 0, 72, 0
2, 307360, Note_on_c, 0, 74, 29
2, 307520, Note_on_c, 0, 74, 0
2, 307520, Note_on_c, 0, 78, 29
2, 307680, Note_on_c, 0, 78, 0
2, 307680, Note_on_c, 0, 72, 41
2, 307840, Note_on_c, 0, 72, 0
2, 307840, Note_on_c, 0, 74, 29
2, 308000, Note_on_c, 0, 74, 0
2, 308000, Note_on_c, 0, 78, 29
2, 308160, Note_on_c, 0, 78, 0
2, 308160, Note_on_c, 0, 71, 41
2, 308320, Note_on_c, 0, 71, 0
2, 308320, Note_on_c, 0, 74, 29
2, 308480, Note_on_c, 0, 74, 0
2, 308480, Note_on_c, 0, 79, 29
2, 308640, Note_on_c, 0, 79, 0
2, 308640, Note_on_c, 0, 71, 41
2, 308800, Note_on_c, 0, 71, 0
2, 308800, Note_on_c, 0, 74, 30
2, 308960, Note_on_c, 0, 74, 0
2, 308960, Note_on_c, 0, 79, 30
2, 309120, Note_on_c, 0, 79, 0
2, 309120, Note_on_c, 0, 69, 41
2, 309280, Note_on_c, 0, 69, 0
2, 309280, Note_on_c, 0, 72, 29
2, 309440, Note_on_c, 0, 72, 0
2, 309440, Note_on_c, 0, 76, 29
2, 309600, Note_on_c, 0, 76, 0
2, 309600, Note_on_c, 0, 69, 41
2, 309760, Note_on_c, 0, 69, 0
2, 309760, Note_on_c, 0, 72, 29
2, 309920, Note_on_c, 0, 72, 0
2, 309920, Note_on_c, 0, 76, 37
2, 310080, Note_on_c, 0, 76, 0
2, 310080, Note_on_c, 0, 66, 41
2, 310240, Note_on_c, 0, 66, 0
2, 310240, Note_on_c, 0, 69, 29
2, 310400, Note_on_c, 0, 69, 0
2, 310400, Note_on_c, 0, 74, 29
2, 310560, Note_on_c, 0, 74, 0
2, 310560, Note_on_c, 0, 66, 41
2, 310720, Note_on_c, 0, 66, 0
2, 310720, Note_on_c, 0, 69, 30
2, 310880, Note_on_c, 0, 69, 0
2, 310880, Note_on_c, 0, 74, 30
2, 311040, Note_on_c, 0, 74, 0
2, 311040, Note_on_c, 0, 67, 49
2, 311200, Note_on_c, 0, 67, 0
2, 311200, Note_on_c, 0, 71, 30
2, 311360, Note_on_c, 0, 71, 0
2, 311360, Note_on_c, 0, 74, 30
2, 311520, Note_on_c, 0, 74, 0
2, 311520, Note_on_c, 0, 71, 46
2, 311680, Note_on_c, 0, 71, 0
2, 311680, Note_on_c, 0, 74, 30
2, 311840, Note_on_c, 0, 74, 0
2, 311840, Note_on_c, 0, 79, 30
2, 312000, Note_on_c, 0, 79, 0
2, 312000, Note_on_c, 0, 71, 41
2, 312160, Note_on_c, 0, 71, 0
2, 312160, Note_on_c, 0, 74, 28
2, 312320, Note_on_c, 0, 74, 0
2, 312320, Note_on_c, 0, 79, 28
2, 312480, Note_on_c, 0, 79, 0
2, 312480, Note_on_c, 0, 71, 45
2, 312640, Note_on_c, 0, 71, 0
2, 312640, Note_on_c, 0, 74, 32
2, 312800, Note_on_c, 0, 74, 0
2, 312800, Note_on_c, 0, 79, 32
2, 312960, Note_on_c, 0, 79, 0
2, 312960, Note_on_c, 0, 73, 46
2, 313120, Note_on_c, 0, 73, 0
2, 313120, Note_on_c, 0, 76, 33
2, 313280, Note_on_c, 0, 76, 0
2, 313280, Note_on_c, 0, 79, 33
2, 313440, Note_on_c, 0, 79, 0
2, 313440, Note_on_c, 0, 73, 47
2, 313600, Note_on_c, 0, 73, 0
2, 313600, Note_on_c, 0, 76, 34
2, 313760, Note_on_c, 0, 76, 0
2, 313760, Note_on_c, 0, 79, 34
2, 313920, Note_on_c, 0, 79, 0
2, 313920, Note_on_c, 0, 73, 49
2, 314080, Note_on_c, 0, 73, 0
2, 314080, Note_on_c, 0, 76, 36
2, 314240, Note_on_c, 0, 76, 0
2, 314240, Note_on_c, 0, 79, 36
2, 314400, Note_on_c, 0, 79, 0
2, 314400, Note_on_c, 0, 73, 52
2, 314560, Note_on_c, 0, 73, 0
2, 314560, Note_on_c, 0, 76, 38
2, 314720, Note_on_c, 0, 76, 0
2, 314720, Note_on_c, 0, 79, 39
2, 314880, Note_on_c, 0, 79, 0
2, 314880, Note_on_c, 0, 72, 43
2, 315040, Note_on_c, 0, 72, 0
2, 315040, Note_on_c, 0, 74, 39
2, 315200, Note_on_c, 0, 74, 0
2, 315200, Note_on_c, 0, 78, 39
2, 315360, Note_on_c, 0, 78, 0
2, 315360, Note_on_c, 0, 72, 55
2, 315520, Note_on_c, 0, 72, 0
2, 315520, Note_on_c, 0, 74, 39
2, 315680, Note_on_c, 0, 74, 0
2, 315680, Note_on_c, 0, 78, 40
2, 315840, Note_on_c, 0, 78, 0
2, 315840, Note_on_c, 0, 71, 56
2, 316000, Note_on_c, 0, 71, 0
2, 316000, Note_on_c, 0, 74, 40
2, 316160, Note_on_c, 0, 74, 0
2, 316160, Note_on_c, 0, 79, 41
2, 316320, Note_on_c, 0, 79, 0
2, 316320, Note_on_c, 0, 71, 58
2, 316480, Note_on_c, 0, 71, 0
2, 316480, Note_on_c, 0, 74, 43
2, 316640, Note_on_c, 0, 74, 0
2, 316640, Note_on_c, 0, 79, 44
2, 316800, Note_on_c, 0, 79, 0
2, 316800, Note_on_c, 0, 69, 63
2, 316960, Note_on_c, 0, 69, 0
2, 316960, Note_on_c, 0, 72, 44
2, 317120, Note_on_c, 0, 72, 0
2, 317120, Note_on_c, 0, 76, 45
2, 317280, Note_on_c, 0, 76, 0
2, 317280, Note_on_c, 0, 69, 64
2, 317440, Note_on_c, 0, 69, 0
2, 317440, Note_on_c, 0, 72, 45
2, 317600, Note_on_c, 0, 72, 0
2, 317600, Note_on_c, 0, 76, 46
2, 317760, Note_on_c, 0, 76, 0
2, 317760, Note_on_c, 0, 66, 64
2, 317920, Note_on_c, 0, 66, 0
2, 317920, Note_on_c, 0, 69, 46
2, 318080, Note_on_c, 0, 69, 0
2, 318080, Note_on_c, 0, 74, 46
2, 318240, Note_on_c, 0, 74, 0
2, 318240, Note_on_c, 0, 66, 66
2, 318400, Note_on_c, 0, 66, 0
2, 318400, Note_on_c, 0, 69, 48
2, 318560, Note_on_c, 0, 69, 0
2, 318560, Note_on_c, 0, 74, 48
2, 318720, Note_on_c, 0, 74, 0
2, 318720, Note_on_c, 0, 67, 73
2, 319200, Note_on_c, 0, 67, 0
2, 320100, Note_on_c, 0, 76, 65
2, 320160, Note_on_c, 0, 76, 0
2, 320160, Note_on_c, 0, 74, 70
2, 320320, Note_on_c, 0, 74, 0
2, 320320, Note_on_c, 0, 73, 66
2, 320480, Note_on_c, 0, 73, 0
2, 320480, Note_on_c, 0, 74, 66
2, 320640, Note_on_c, 0, 74, 0
2, 320640, Note_on_c, 0, 71, 70
2, 320640, Note_on_c, 0, 79, 76
2, 320880, Note_on_c, 0, 79, 0
2, 320880, Note_on_c, 0, 71, 0
2, 322020, Note_on_c, 0, 76, 65
2, 322080, Note_on_c, 0, 76, 0
2, 322080, Note_on_c, 0, 74, 70
2, 322240, Note_on_c, 0, 74, 0
2, 322240, Note_on_c, 0, 73, 66
2, 322400, Note_on_c, 0, 73, 0
2, 322400, Note_on_c, 0, 74, 66
2, 322560, Note_on_c, 0, 74, 0
2, 322560, Note_on_c, 0, 71, 70
2, 322560, Note_on_c, 0, 79, 76
2, 322800, Note_on_c, 0, 79, 0
2, 322800, Note_on_c, 0, 71, 0
2, 322800, End_track
3, 0, Start_track
3, 0, Title_t, "Piano left"
3, 0, Program_c, 0, 0
3, 1920, Note_on_c, 0, 55, 29
3, 2080, Note_on_c, 0, 55, 0
3, 2080, Note_on_c, 0, 59, 20
3, 2240, Note_on_c, 0, 59, 0
3, 2240, Note_on_c, 0, 62, 20
3, 2400, Note_on_c, 0, 62, 0
3, 2400, Note_on_c, 0, 55, 29
3, 2560, Note_on_c, 0, 55, 0
3, 2560, Note_on_c, 0, 59, 20
3, 2720, Note_on_c, 0, 59, 0
3, 2720, Note_on_c, 0, 62, 20
3, 2880, Note_on_c, 0, 62, 0
3, 2880, Note_on_c, 0, 55, 29
3, 3040, Note_on_c, 0, 55, 0
3, 3040, Note_on_c, 0, 59, 21
3, 3200, Note_on_c, 0, 59, 0
3, 3200, Note_on_c, 0, 62, 20
3, 3360, Note_on_c, 0, 62, 0
3, 3360, Note_on_c, 0, 55, 29
3, 3520, Note_on_c, 0, 55, 0
3, 3520, Note_on_c, 0, 59, 21
3, 3680, Note_on_c, 0, 59, 0
3, 3680, Note_on_c, 0, 62, 21
3, 3840, Note_on_c, 0, 62, 0
3, 3840, Note_on_c, 0, 55, 29
3, 4000, Note_on_c, 0, 55, 0
3, 4000, Note_on_c, 0, 59, 20
3, 4160, Note_on_c, 0, 59, 0
3, 4160, Note_on_c, 0, 62, 20
3, 4320, Note_on_c, 0, 62, 0
3, 4320, Note_on_c, 0, 55, 29
3, 4480, Note_on_c, 0, 55, 0
3, 4480, Note_on_c, 0, 59, 20
3, 4640, Note_on_c, 0, 59, 0
3, 4640, Note_on_c, 0, 62, 20
3, 4800, Note_on_c, 0, 62, 0
3, 4800, Note_on_c, 0, 55, 29
3, 4960, Note_on_c, 0, 55, 0
3, 4960, Note_on_c, 0, 59, 21
3, 5120, Note_on_c, 0, 59, 0
3, 5120, Note_on_c, 0, 62, 20
3, 5280, Note_on_c, 0, 62, 0
3, 5280, Note_on_c, 0, 55, 29
3, 5440, Note_on_c, 0, 55, 0
3, 5440, Note_on_c, 0, 59, 21
3, 5600, Note_on_c, 0, 59, 0
3, 5600, Note_on_c, 0, 62, 21
3, 5760, Note_on_c, 0, 62, 0
3, 5760, Note_on_c, 0, 55, 33
3, 5920, Note_on_c, 0, 55, 0
3, 5920, Note_on_c, 0, 60, 23
3, 6080, Note_on_c, 0, 60, 0
3, 6080, Note_on_c, 0, 64, 23
3, 6240, Note_on_c, 0, 64, 0
3, 6240, Note_on_c, 0, 55, 32
3, 6400, Note_on_c, 0, 55, 0
3, 6400, Note_on_c, 0, 60, 20
3, 6560, Note_on_c, 0, 60, 0
3, 6560, Note_on_c, 0, 64, 21
3, 6720, Note_on_c, 0, 64, 0
3, 6720, Note_on_c, 0, 55, 35
3, 6880, Note_on_c, 0, 55, 0
3, 6880, Note_on_c, 0, 60, 25
3, 7040, Note_on_c, 0, 60, 0
3, 7040, Note_on_c, 0, 64, 24
3, 7200, Note_on_c, 0, 64, 0
3, 7200, Note_on_c, 0, 55, 35
3, 7360, Note_on_c, 0, 55, 0
3, 7360, Note_on_c, 0, 60, 25
3, 7520, Note_on_c, 0, 60, 0
3, 7520, Note_on_c, 0, 64, 25
3, 7680, Note_on_c, 0, 64, 0
3, 7680, Note_on_c, 0, 55, 35
3, 7840, Note_on_c, 0, 55, 0
3, 7840, Note_on_c, 0, 59, 24
3, 8000, Note_on_c, 0, 59, 0
3, 8000, Note_on_c, 0, 62, 24
3, 8160, Note_on_c, 0, 62, 0
3, 8160, Note_on_c, 0, 55, 35
3, 8320, Note_on_c, 0, 55, 0
3, 8320, Note_on_c, 0, 59, 23
3, 8480, Note_on_c, 0, 59, 0
3, 8480, Note_on_c, 0, 62, 23
3, 8640, Note_on_c, 0, 62, 0
3, 8640, Note_on_c, 0, 55, 33
3, 8800, Note_on_c, 0, 55, 0
3, 8800, Note_on_c, 0, 59, 20
3, 8960, Note_on_c, 0, 59, 0
3, 8960, Note_on_c, 0, 62, 20
3, 9120, Note_on_c, 0, 62, 0
3, 9120, Note_on_c, 0, 55, 29
3, 9280, Note_on_c, 0, 55, 0
3, 9280, Note_on_c, 0, 59, 21
3, 9440, Note_on_c, 0, 59, 0
3, 9440, Note_on_c, 0, 62, 21
3, 9600, Note_on_c, 0, 62, 0
3, 9600, Note_on_c, 0, 60, 26
3, 9760, Note_on_c, 0, 60, 0
3, 9760, Note_on_c, 0, 64, 20
3, 9920, Note_on_c, 0, 64, 0
3, 9920, Note_on_c, 0, 69, 20
3, 10080, Note_on_c, 0, 69, 0
3, 10080, Note_on_c, 0, 60, 29
3, 10240, Note_on_c, 0, 60, 0
3, 10240, Note_on_c, 0, 64, 20
3, 10400, Note_on_c, 0, 64, 0
3, 10400, Note_on_c, 0, 69, 20
3, 10560, Note_on_c, 0, 69, 0
3, 10560, Note_on_c, 0, 60, 29
3, 10720, Note_on_c, 0, 60, 0
3, 10720, Note_on_c, 0, 64, 21
3, 10880, Note_on_c, 0, 64, 0
3, 10880, Note_on_c, 0, 69, 20
3, 11040, Note_on_c, 0, 69, 0
3, 11040, Note_on_c, 0, 60, 29
3, 11200, Note_on_c, 0, 60, 0
3, 11200, Note_on_c, 0, 64, 21
3, 11360, Note_on_c, 0, 64, 0
3, 11360, Note_on_c, 0, 69, 21
3, 11520, Note_on_c, 0, 69, 0
3, 11520, Note_on_c, 0, 59, 29
3, 11680, Note_on_c, 0, 59, 0
3, 11680, Note_on_c, 0, 62, 20
3, 11840, Note_on_c, 0, 62, 0
3, 11840, Note_on_c, 0, 67, 20
3, 12000, Note_on_c, 0, 67, 0
3, 12000, Note_on_c, 0, 59, 29
3, 12160, Note_on_c, 0, 59, 0
3, 12160, Note_on_c, 0, 62, 20
3, 12320, Note_on_c, 0, 62, 0
3, 12320, Note_on_c, 0, 67, 20
3, 12480, Note_on_c, 0, 67, 0
3, 12480, Note_on_c, 0, 59, 29
3, 12640, Note_on_c, 0, 59, 0
3, 12640, Note_on_c, 0, 62, 21
3, 12800, Note_on_c, 0, 62, 0
3, 12800, Note_on_c, 0, 67, 20
3, 12960, Note_on_c, 0, 67, 0
3, 12960, Note_on_c, 0, 59, 29
3, 13120, Note_on_c, 0, 59, 0
3, 13120, Note_on_c, 0, 62, 21
3, 13280, Note_on_c, 0, 62, 0
3, 13280, Note_on_c, 0, 67, 21
3, 13440, Note_on_c, 0, 67, 0
3, 13440, Note_on_c, 0, 54, 29
3, 13600, Note_on_c, 0, 54, 0
3, 13600, Note_on_c, 0, 57, 20
3, 13760, Note_on_c, 0, 57, 0
3, 13760, Note_on_c, 0, 62, 20
3, 13920, Note_on_c, 0, 62, 0
3, 13920, Note_on_c, 0, 54, 29
3, 14080, Note_on_c, 0, 54, 0
3, 14080, Note_on_c, 0, 57, 20
3, 14240, Note_on_c, 0, 57, 0
3, 14240, Note_on_c, 0, 62, 20
3, 14400, Note_on_c, 0, 62, 0
3, 14400, Note_on_c, 0, 55, 31
3, 14560, Note_on_c, 0, 55, 0
3, 14560, Note_on_c, 0, 59, 21
3, 14720, Note_on_c, 0, 59, 0
3, 14720, Note_on_c, 0, 62, 20
3, 14880, Note_on_c, 0, 62, 0
3, 14880, Note_on_c, 0, 55, 33
3, 15040, Note_on_c, 0, 55, 0
3, 15040, Note_on_c, 0, 59, 24
3, 15200, Note_on_c, 0, 59, 0
3, 15200, Note_on_c, 0, 62, 24
3, 15360, Note_on_c, 0, 62, 0
3, 15360, Note_on_c, 0, 50, 34
3, 15520, Note_on_c, 0, 50, 0
3, 15520, Note_on_c, 0, 54, 37
3, 15680, Note_on_c, 0, 54, 0
3, 15680, Note_on_c, 0, 57, 40
3, 15840, Note_on_c, 0, 57, 0
3, 15840, Note_on_c, 0, 62, 42
3, 16000, Note_on_c, 0, 62, 0
3, 16000, Note_on_c, 0, 57, 35
3, 16160, Note_on_c, 0, 57, 0
3, 16160, Note_on_c, 0, 54, 38
3, 16320, Note_on_c, 0, 54, 0
3, 16320, Note_on_c, 0, 50, 43
3, 16800, Note_on_c, 0, 50, 0
3, 17280, Note_on_c, 0, 55, 29
3, 17440, Note_on_c, 0, 55, 0
3, 17440, Note_on_c, 0, 59, 20
3, 17600, Note_on_c, 0, 59, 0
3, 17600, Note_on_c, 0, 62, 20
3, 17760, Note_on_c, 0, 62, 0
3, 17760, Note_on_c, 0, 55, 29
3, 17920, Note_on_c, 0, 55, 0
3, 17920, Note_on_c, 0, 59, 20
3, 18080, Note_on_c, 0, 59, 0
3, 18080, Note_on_c, 0, 62, 20
3, 18240, Note_on_c, 0, 62, 0
3, 18240, Note_on_c, 0, 55, 29
3, 18400, Note_on_c, 0, 55, 0
3, 18400, Note_on_c, 0, 59, 21
3, 18560, Note_on_c, 0, 59, 0
3, 18560, Note_on_c, 0, 62, 20
3, 18720, Note_on_c, 0, 62, 0
3, 18720, Note_on_c, 0, 55, 29
3, 18880, Note_on_c, 0, 55, 0
3, 18880, Note_on_c, 0, 59, 21
3, 19040, Note_on_c, 0, 59, 0
3, 19040, Note_on_c, 0, 62, 21
3, 19200, Note_on_c, 0, 62, 0
3, 19200, Note_on_c, 0, 55, 29
3, 19360, Note_on_c, 0, 55, 0
3, 19360, Note_on_c, 0, 59, 20
3, 19520, Note_on_c, 0, 59, 0
3, 19520, Note_on_c, 0, 62, 20
3, 19680, Note_on_c, 0, 62, 0
3, 19680, Note_on_c, 0, 55, 29
3, 19840, Note_on_c, 0, 55, 0
3, 19840, Note_on_c, 0, 59, 20
3, 20000, Note_on_c, 0, 59, 0
3, 20000, Note_on_c, 0, 62, 20
3, 20160, Note_on_c, 0, 62, 0
3, 20160, Note_on_c, 0, 55, 29
3, 20320, Note_on_c, 0, 55, 0
3, 20320, Note_on_c, 0, 59, 21
3, 20480, Note_on_c, 0, 59, 0
3, 20480, Note_on_c, 0, 62, 20
3, 20640, Note_on_c, 0, 62, 0
3, 20640, Note_on_c, 0, 55, 29
3, 20800, Note_on_c, 0, 55, 0
3, 20800, Note_on_c, 0, 59, 21
3, 20960, Note_on_c, 0, 59, 0
3, 20960, Note_on_c, 0, 62, 21
3, 21120, Note_on_c, 0, 62, 0
3, 21120, Note_on_c, 0, 55, 33
3, 21280, Note_on_c, 0, 55, 0
3, 21280, Note_on_c, 0, 60, 23
3, 21440, Note_on_c, 0, 60, 0
3, 21440, Note_on_c, 0, 64, 23
3, 21600, Note_on_c, 0, 64, 0
3, 21600, Note_on_c, 0, 55, 32
3, 21760, Note_on_c, 0, 55, 0
3, 21760, Note_on_c, 0, 60, 20
3, 21920, Note_on_c, 0, 60, 0
3, 21920, Note_on_c, 0, 64, 21
3, 22080, Note_on_c, 0, 64, 0
3, 22080, Note_on_c, 0, 55, 35
3, 22240, Note_on_c, 0, 55, 0
3, 22240, Note_on_c, 0, 60, 25
3, 22400, Note_on_c, 0, 60, 0
3, 22400, Note_on_c, 0, 64, 31
3, 22560, Note_on_c, 0, 64, 0
3, 22560, Note_on_c, 0, 55, 35
3, 22720, Note_on_c, 0, 55, 0
3, 22720, Note_on_c, 0, 60, 25
3, 22880, Note_on_c, 0, 60, 0
3, 22880, Note_on_c, 0, 64, 25
3, 23040, Note_on_c, 0, 64, 0
3, 23040, Note_on_c, 0, 55, 35
3, 23200, Note_on_c, 0, 55, 0
3, 23200, Note_on_c, 0, 59, 24
3, 23360, Note_on_c, 0, 59, 0
3, 23360, Note_on_c, 0, 62, 24
3, 23520, Note_on_c, 0, 62, 0
3, 23520, Note_on_c, 0, 55, 35
3, 23680, Note_on_c, 0, 55, 0
3, 23680, Note_on_c, 0, 59, 23
3, 23840, Note_on_c, 0, 59, 0
3, 23840, Note_on_c, 0, 62, 23
3, 24000, Note_on_c, 0, 62, 0
3, 24000, Note_on_c, 0, 55, 29
3, 24160, Note_on_c, 0, 55, 0
3, 24160, Note_on_c, 0, 59, 20
3, 24320, Note_on_c, 0, 59, 0
3, 24320, Note_on_c, 0, 62, 20
3, 24480, Note_on_c, 0, 62, 0
3, 24480, Note_on_c, 0, 55, 29
3, 24640, Note_on_c, 0, 55, 0
3, 24640, Note_on_c, 0, 59, 21
3, 24800, Note_on_c, 0, 59, 0
3, 24800, Note_on_c, 0, 62, 21
3, 24960, Note_on_c, 0, 62, 0
3, 24960, Note_on_c, 0, 55, 29
3, 25120, Note_on_c, 0, 55, 0
3, 25120, Note_on_c, 0, 61, 20
3, 25280, Note_on_c, 0, 61, 0
3, 25280, Note_on_c, 0, 64, 20
3, 25440, Note_on_c, 0, 64, 0
3, 25440, Note_on_c, 0, 55, 29
3, 25600, Note_on_c, 0, 55, 0
3, 25600, Note_on_c, 0, 61, 20
3, 25760, Note_on_c, 0, 61, 0
3, 25760, Note_on_c, 0, 64, 23
3, 25920, Note_on_c, 0, 64, 0
3, 25920, Note_on_c, 0, 55, 38
3, 26080, Note_on_c, 0, 55, 0
3, 26080, Note_on_c, 0, 61, 25
3, 26240, Note_on_c, 0, 61, 0
3, 26240, Note_on_c, 0, 64, 25
3, 26400, Note_on_c, 0, 64, 0
3, 26400, Note_on_c, 0, 55, 39
3, 26560, Note_on_c, 0, 55, 0
3, 26560, Note_on_c, 0, 61, 25
3, 26720, Note_on_c, 0, 61, 0
3, 26720, Note_on_c, 0, 64, 25
3, 26880, Note_on_c, 0, 64, 0
3, 26880, Note_on_c, 0, 54, 48
3, 27040, Note_on_c, 0, 54, 0
3, 27040, Note_on_c, 0, 57, 26
3, 27200, Note_on_c, 0, 57, 0
3, 27200, Note_on_c, 0, 62, 26
3, 27360, Note_on_c, 0, 62, 0
3, 27360, Note_on_c, 0, 54, 38
3, 27520, Note_on_c, 0, 54, 0
3, 27520, Note_on_c, 0, 57, 20
3, 27680, Note_on_c, 0, 57, 0
3, 27680, Note_on_c, 0, 62, 20
3, 27840, Note_on_c, 0, 62, 0
3, 27840, Note_on_c, 0, 54, 29
3, 28000, Note_on_c, 0, 54, 0
3, 28000, Note_on_c, 0, 57, 21
3, 28160, Note_on_c, 0, 57, 0
3, 28160, Note_on_c, 0, 62, 20
3, 28320, Note_on_c, 0, 62, 0
3, 28320, Note_on_c, 0, 54, 29
3, 28480, Note_on_c, 0, 54, 0
3, 28480, Note_on_c, 0, 57, 21
3, 28640, Note_on_c, 0, 57, 0
3, 28640, Note_on_c, 0, 62, 21
3, 28800, Note_on_c, 0, 62, 0
3, 28800, Note_on_c, 0, 55, 29
3, 28960, Note_on_c, 0, 55, 0
3, 28960, Note_on_c, 0, 59, 20
3, 29120, Note_on_c, 0, 59, 0
3, 29120, Note_on_c, 0, 64, 20
3, 29280, Note_on_c, 0, 64, 0
3, 29280, Note_on_c, 0, 55, 29
3, 29440, Note_on_c, 0, 55, 0
3, 29440, Note_on_c, 0, 59, 20
3, 29600, Note_on_c, 0, 59, 0
3, 29600, Note_on_c, 0, 64, 20
3, 29760, Note_on_c, 0, 64, 0
3, 29760, Note_on_c, 0, 57, 31
3, 29920, Note_on_c, 0, 57, 0
3, 29920, Note_on_c, 0, 64, 21
3, 30080, Note_on_c, 0, 64, 0
3, 30080, Note_on_c, 0, 67, 26
3, 30240, Note_on_c, 0, 67, 0
3, 30240, Note_on_c, 0, 57, 33
3, 30400, Note_on_c, 0, 57, 0
3, 30400, Note_on_c, 0, 64, 24
3, 30560, Note_on_c, 0, 64, 0
3, 30560, Note_on_c, 0, 67, 24
3, 30720, Note_on_c, 0, 67, 0
3, 30720, Note_on_c, 0, 66, 33
3, 30720, Note_on_c, 0, 62, 28
3, 30840, Note_on_c, 0, 62, 0
3, 30840, Note_on_c, 0, 66, 0
3, 32640, Note_on_c, 0, 62, 28
3, 32640, Note_on_c, 0, 67, 33
3, 32760, Note_on_c, 0, 67, 0
3, 32760, Note_on_c, 0, 62, 0
3, 33120, Note_on_c, 0, 67, 29
3, 33120, Note_on_c, 0, 62, 24
3, 33240, Note_on_c, 0, 62, 0
3, 33240, Note_on_c, 0, 67, 0
3, 33600, Note_on_c, 0, 64, 30
3, 33600, Note_on_c, 0, 62, 25
3, 33720, Note_on_c, 0, 62, 0
3, 33720, Note_on_c, 0, 64, 0
3, 34080, Note_on_c, 0, 64, 30
3, 34080, Note_on_c, 0, 62, 25
3, 34200, Note_on_c, 0, 62, 0
3, 34200, Note_on_c, 0, 64, 0
3, 34560, Note_on_c, 0, 66, 33
3, 34560, Note_on_c, 0, 62, 28
3, 34680, Note_on_c, 0, 62, 0
3, 34680, Note_on_c, 0, 66, 0
3, 36480, Note_on_c, 0, 62, 28
3, 36480, Note_on_c, 0, 67, 33
3, 36600, Note_on_c, 0, 67, 0
3, 36600, Note_on_c, 0, 62, 0
3, 36960, Note_on_c, 0, 67, 29
3, 36960, Note_on_c, 0, 62, 24
3, 37080, Note_on_c, 0, 62, 0
3, 37080, Note_on_c, 0, 67, 0
3, 37440, Note_on_c, 0, 64, 30
3, 37440, Note_on_c, 0, 62, 25
3, 37560, Note_on_c, 0, 62, 0
3, 37560, Note_on_c, 0, 64, 0
3, 37920, Note_on_c, 0, 64, 30
3, 37920, Note_on_c, 0, 62, 25
3, 38040, Note_on_c, 0, 62, 0
3, 38040, Note_on_c, 0, 64, 0
3, 38400, Note_on_c, 0, 62, 28
3, 38400, Note_on_c, 0, 66, 33
3, 38520, Note_on_c, 0, 66, 0
3, 38520, Note_on_c, 0, 62, 0
3, 39360, Note_on_c, 0, 42, 32
3, 39360, Note_on_c, 0, 54, 36
3, 39600, Note_on_c, 0, 54, 0
3, 39600, Note_on_c, 0, 42, 0
3, 39840, Note_on_c, 0, 42, 33
3, 39840, Note_on_c, 0, 54, 38
3, 40080, Note_on_c, 0, 54, 0
3, 40080, Note_on_c, 0, 42, 0
3, 40320, Note_on_c, 0, 43, 36
3, 40320, Note_on_c, 0, 55, 41
3, 40560, Note_on_c, 0, 55, 0
3, 40560, Note_on_c, 0, 43, 0
3, 40800, Note_on_c, 0, 43, 38
3, 40800, Note_on_c, 0, 55, 44
3, 41040, Note_on_c, 0, 55, 0
3, 41040, Note_on_c, 0, 43, 0
3, 41280, Note_on_c, 0, 44, 40
3, 41280, Note_on_c, 0, 56, 46
3, 41520, Note_on_c, 0, 56, 0
3, 41520, Note_on_c, 0, 44, 0
3, 41760, Note_on_c, 0, 44, 42
3, 41760, Note_on_c, 0, 56, 48
3, 42000, Note_on_c, 0, 56, 0
3, 42000, Note_on_c, 0, 44, 0
3, 42240, Note_on_c, 0, 45, 42
3, 42240, Note_on_c, 0, 57, 48
3, 44160, Note_on_c, 0, 57, 0
3, 44160, Note_on_c, 0, 45, 0
3, 44160, Note_on_c, 0, 45, 50
3, 44320, Note_on_c, 0, 45, 0
3, 44320, Note_on_c, 0, 49, 45
3, 44480, Note_on_c, 0, 49, 0
3, 44480, Note_on_c, 0, 55, 45
3, 44640, Note_on_c, 0, 55, 0
3, 44640, Note_on_c, 0, 45, 51
3, 44800, Note_on_c, 0, 45, 0
3, 44800, Note_on_c, 0, 49, 46
3, 44960, Note_on_c, 0, 49, 0
3, 44960, Note_on_c, 0, 55, 47
3, 45120, Note_on_c, 0, 55, 0
3, 45120, Note_on_c, 0, 45, 52
3, 45280, Note_on_c, 0, 45, 0
3, 45280, Note_on_c, 0, 49, 48
3, 45440, Note_on_c, 0, 49, 0
3, 45440, Note_on_c, 0, 55, 49
3, 45600, Note_on_c, 0, 55, 0
3, 45600, Note_on_c, 0, 45, 54
3, 45760, Note_on_c, 0, 45, 0
3, 45760, Note_on_c, 0, 49, 49
3, 45920, Note_on_c, 0, 49, 0
3, 45920, Note_on_c, 0, 55, 50
3, 46080, Note_on_c, 0, 55, 0
3, 46080, Note_on_c, 0, 54, 59
3, 46080, Note_on_c, 0, 50, 50
3, 46560, Note_on_c, 0, 50, 0
3, 46560, Note_on_c, 0, 54, 0
3, 47520, Note_on_c, 0, 62, 40
3, 47760, Note_on_c, 0, 62, 0
3, 48000, Note_on_c, 0, 59, 45
3, 48240, Note_on_c, 0, 59, 0
3, 48480, Note_on_c, 0, 59, 40
3, 48720, Note_on_c, 0, 59, 0
3, 48960, Note_on_c, 0, 64, 37
3, 49200, Note_on_c, 0, 64, 0
3, 49440, Note_on_c, 0, 64, 40
3, 49680, Note_on_c, 0, 64, 0
3, 49920, Note_on_c, 0, 57, 45
3, 50880, Note_on_c, 0, 57, 0
3, 50880, Note_on_c, 0, 62, 37
3, 51120, Note_on_c, 0, 62, 0
3, 51360, Note_on_c, 0, 62, 40
3, 51600, Note_on_c, 0, 62, 0
3, 51840, Note_on_c, 0, 55, 45
3, 52080, Note_on_c, 0, 55, 0
3, 52320, Note_on_c, 0, 55, 40
3, 52560, Note_on_c, 0, 55, 0
3, 52800, Note_on_c, 0, 57, 37
3, 53040, Note_on_c, 0, 57, 0
3, 53280, Note_on_c, 0, 57, 40
3, 53520, Note_on_c, 0, 57, 0
3, 53760, Note_on_c, 0, 54, 50
3, 53760, Note_on_c, 0, 50, 42
3, 54240, Note_on_c, 0, 50, 0
3, 54240, Note_on_c, 0, 54, 0
3, 55200, Note_on_c, 0, 50, 44
3, 55440, Note_on_c, 0, 50, 0
3, 55680, Note_on_c, 0, 47, 50
3, 55920, Note_on_c, 0, 47, 0
3, 56160, Note_on_c, 0, 47, 46
3, 56400, Note_on_c, 0, 47, 0
3, 56640, Note_on_c, 0, 52, 45
3, 56880, Note_on_c, 0, 52, 0
3, 57120, Note_on_c, 0, 52, 50
3, 57360, Note_on_c, 0, 52, 0
3, 57600, Note_on_c, 0, 45, 59
3, 58560, Note_on_c, 0, 45, 0
3, 58560, Note_on_c, 0, 50, 50
3, 58800, Note_on_c, 0, 50, 0
3, 59040, Note_on_c, 0, 50, 57
3, 59280, Note_on_c, 0, 50, 0
3, 59520, Note_on_c, 0, 55, 68
3, 59520, Note_on_c, 0, 43, 57
3, 59760, Note_on_c, 0, 43, 0
3, 59760, Note_on_c, 0, 55, 0
3, 60000, Note_on_c, 0, 55, 63
3, 60000, Note_on_c, 0, 43, 52
3, 60240, Note_on_c, 0, 43, 0
3, 60240, Note_on_c, 0, 55, 0
3, 60480, Note_on_c, 0, 57, 58
3, 60480, Note_on_c, 0, 45, 48
3, 60720, Note_on_c, 0, 45, 0
3, 60720, Note_on_c, 0, 57, 0
3, 60960, Note_on_c, 0, 57, 64
3, 60960, Note_on_c, 0, 45, 54
3, 61200, Note_on_c, 0, 45, 0
3, 61200, Note_on_c, 0, 57, 0
3, 61440, Note_on_c, 0, 50, 56
3, 61600, Note_on_c, 0, 50, 0
3, 61600, Note_on_c, 0, 54, 48
3, 61760, Note_on_c, 0, 54, 0
3, 61760, Note_on_c, 0, 57, 47
3, 61920, Note_on_c, 0, 57, 0
3, 61920, Note_on_c, 0, 50, 56
3, 62080, Note_on_c, 0, 50, 0
3, 62080, Note_on_c, 0, 54, 48
3, 62240, Note_on_c, 0, 54, 0
3, 62240, Note_on_c, 0, 57, 48
3, 62400, Note_on_c, 0, 57, 0
3, 62400, Note_on_c, 0, 50, 56
3, 62560, Note_on_c, 0, 50, 0
3, 62560, Note_on_c, 0, 54, 49
3, 62720, Note_on_c, 0, 54, 0
3, 62720, Note_on_c, 0, 57, 49
3, 62880, Note_on_c, 0, 57, 0
3, 62880, Note_on_c, 0, 49, 56
3, 63040, Note_on_c, 0, 49, 0
3, 63040, Note_on_c, 0, 52, 48
3, 63200, Note_on_c, 0, 52, 0
3, 63200, Note_on_c, 0, 57, 49
3, 63360, Note_on_c, 0, 57, 0
3, 63360, Note_on_c, 0, 50, 56
3, 63520, Note_on_c, 0, 50, 0
3, 63520, Note_on_c, 0, 54, 49
3, 63680, Note_on_c, 0, 54, 0
3, 63680, Note_on_c, 0, 57, 49
3, 63840, Note_on_c, 0, 57, 0
3, 63840, Note_on_c, 0, 50, 56
3, 64000, Note_on_c, 0, 50, 0
3, 64000, Note_on_c, 0, 54, 49
3, 64160, Note_on_c, 0, 54, 0
3, 64160, Note_on_c, 0, 57, 49
3, 64320, Note_on_c, 0, 57, 0
3, 64320, Note_on_c, 0, 50, 56
3, 64480, Note_on_c, 0, 50, 0
3, 64480, Note_on_c, 0, 54, 50
3, 64640, Note_on_c, 0, 54, 0
3, 64640, Note_on_c, 0, 57, 50
3, 64800, Note_on_c, 0, 57, 0
3, 64800, Note_on_c, 0, 49, 56
3, 64960, Note_on_c, 0, 49, 0
3, 64960, Note_on_c, 0, 52, 49
3, 65120, Note_on_c, 0, 52, 0
3, 65120, Note_on_c, 0, 57, 49
3, 65280, Note_on_c, 0, 57, 0
3, 65280, Note_on_c, 0, 50, 56
3, 65440, Note_on_c, 0, 50, 0
3, 65440, Note_on_c, 0, 54, 50
3, 65600, Note_on_c, 0, 54, 0
3, 65600, Note_on_c, 0, 57, 50
3, 65760, Note_on_c, 0, 57, 0
3, 65760, Note_on_c, 0, 50, 56
3, 65920, Note_on_c, 0, 50, 0
3, 65920, Note_on_c, 0, 54, 49
3, 66080, Note_on_c, 0, 54, 0
3, 66080, Note_on_c, 0, 57, 49
3, 66240, Note_on_c, 0, 57, 0
3, 66240, Note_on_c, 0, 50, 56
3, 66720, Note_on_c, 0, 50, 0
3, 67200, Note_on_c, 0, 55, 29
3, 67360, Note_on_c, 0, 55, 0
3, 67360, Note_on_c, 0, 59, 20
3, 67520, Note_on_c, 0, 59, 0
3, 67520, Note_on_c, 0, 62, 20
3, 67680, Note_on_c, 0, 62, 0
3, 67680, Note_on_c, 0, 55, 29
3, 67840, Note_on_c, 0, 55, 0
3, 67840, Note_on_c, 0, 59, 20
3, 68000, Note_on_c, 0, 59, 0
3, 68000, Note_on_c, 0, 62, 20
3, 68160, Note_on_c, 0, 62, 0
3, 68160, Note_on_c, 0, 55, 29
3, 68320, Note_on_c, 0, 55, 0
3, 68320, Note_on_c, 0, 59, 21
3, 68480, Note_on_c, 0, 59, 0
3, 68480, Note_on_c, 0, 62, 20
3, 68640, Note_on_c, 0, 62, 0
3, 68640, Note_on_c, 0, 55, 29
3, 68800, Note_on_c, 0, 55, 0
3, 68800, Note_on_c, 0, 59, 21
3, 68960, Note_on_c, 0, 59, 0
3, 68960, Note_on_c, 0, 62, 21
3, 69120, Note_on_c, 0, 62, 0
3, 69120, Note_on_c, 0, 55, 29
3, 69280, Note_on_c, 0, 55, 0
3, 69280, Note_on_c, 0, 59, 20
3, 69440, Note_on_c, 0, 59, 0
3, 69440, Note_on_c, 0, 62, 20
3, 69600, Note_on_c, 0, 62, 0
3, 69600, Note_on_c, 0, 55, 29
3, 69760, Note_on_c, 0, 55, 0
3, 69760, Note_on_c, 0, 59, 20
3, 69920, Note_on_c, 0, 59, 0
3, 69920, Note_on_c, 0, 62, 20
3, 70080, Note_on_c, 0, 62, 0
3, 70080, Note_on_c, 0, 55, 29
3, 70240, Note_on_c, 0, 55, 0
3, 70240, Note_on_c, 0, 59, 21
3, 70400, Note_on_c, 0, 59, 0
3, 70400, Note_on_c, 0, 62, 20
3, 70560, Note_on_c, 0, 62, 0
3, 70560, Note_on_c, 0, 55, 29
3, 70720, Note_on_c, 0, 55, 0
3, 70720, Note_on_c, 0, 59, 21
3, 70880, Note_on_c, 0, 59, 0
3, 70880, Note_on_c, 0, 62, 21
3, 71040, Note_on_c, 0, 62, 0
3, 71040, Note_on_c, 0, 55, 33
3, 71200, Note_on_c, 0, 55, 0
3, 71200, Note_on_c, 0, 60, 23
3, 71360, Note_on_c, 0, 60, 0
3, 71360, Note_on_c, 0, 64, 23
3, 71520, Note_on_c, 0, 64, 0
3, 71520, Note_on_c, 0, 55, 32
3, 71680, Note_on_c, 0, 55, 0
3, 71680, Note_on_c, 0, 60, 20
3, 71840, Note_on_c, 0, 60, 0
3, 71840, Note_on_c, 0, 64, 21
3, 72000, Note_on_c, 0, 64, 0
3, 72000, Note_on_c, 0, 55, 35
3, 72160, Note_on_c, 0, 55, 0
3, 72160, Note_on_c, 0, 60, 25
3, 72320, Note_on_c, 0, 60, 0
3, 72320, Note_on_c, 0, 64, 24
3, 72480, Note_on_c, 0, 64, 0
3, 72480, Note_on_c, 0, 55, 35
3, 72640, Note_on_c, 0, 55, 0
3, 72640, Note_on_c, 0, 60, 25
3, 72800, Note_on_c, 0, 60, 0
3, 72800, Note_on_c, 0, 64, 25
3, 72960, Note_on_c, 0, 64, 0
3, 72960, Note_on_c, 0, 55, 35
3, 73120, Note_on_c, 0, 55, 0
3, 73120, Note_on_c, 0, 59, 24
3, 73280, Note_on_c, 0, 59, 0
3, 73280, Note_on_c, 0, 62, 24
3, 73440, Note_on_c, 0, 62, 0
3, 73440, Note_on_c, 0, 55, 35
3, 73600, Note_on_c, 0, 55, 0
3, 73600, Note_on_c, 0, 59, 23
3, 73760, Note_on_c, 0, 59, 0
3, 73760, Note_on_c, 0, 62, 23
3, 73920, Note_on_c, 0, 62, 0
3, 73920, Note_on_c, 0, 55, 33
3, 74080, Note_on_c, 0, 55, 0
3, 74080, Note_on_c, 0, 59, 20
3, 74240, Note_on_c, 0, 59, 0
3, 74240, Note_on_c, 0, 62, 20
3, 74400, Note_on_c, 0, 62, 0
3, 74400, Note_on_c, 0, 55, 29
3, 74560, Note_on_c, 0, 55, 0
3, 74560, Note_on_c, 0, 59, 21
3, 74720, Note_on_c, 0, 59, 0
3, 74720, Note_on_c, 0, 62, 21
3, 74880, Note_on_c, 0, 62, 0
3, 74880, Note_on_c, 0, 60, 26
3, 75040, Note_on_c, 0, 60, 0
3, 75040, Note_on_c, 0, 64, 16
3, 75200, Note_on_c, 0, 64, 0
3, 75200, Note_on_c, 0, 69, 16
3, 75360, Note_on_c, 0, 69, 0
3, 75360, Note_on_c, 0, 60, 29
3, 75520, Note_on_c, 0, 60, 0
3, 75520, Note_on_c, 0, 64, 16
3, 75680, Note_on_c, 0, 64, 0
3, 75680, Note_on_c, 0, 69, 16
3, 75840, Note_on_c, 0, 69, 0
3, 75840, Note_on_c, 0, 60, 29
3, 76000, Note_on_c, 0, 60, 0
3, 76000, Note_on_c, 0, 64, 16
3, 76160, Note_on_c, 0, 64, 0
3, 76160, Note_on_c, 0, 69, 16
3, 76320, Note_on_c, 0, 69, 0
3, 76320, Note_on_c, 0, 60, 29
3, 76480, Note_on_c, 0, 60, 0
3, 76480, Note_on_c, 0, 64, 16
3, 76640, Note_on_c, 0, 64, 0
3, 76640, Note_on_c, 0, 69, 16
3, 76800, Note_on_c, 0, 69, 0
3, 76800, Note_on_c, 0, 59, 29
3, 76960, Note_on_c, 0, 59, 0
3, 76960, Note_on_c, 0, 62, 16
3, 77120, Note_on_c, 0, 62, 0
3, 77120, Note_on_c, 0, 67, 16
3, 77280, Note_on_c, 0, 67, 0
3, 77280, Note_on_c, 0, 59, 29
3, 77440, Note_on_c, 0, 59, 0
3, 77440, Note_on_c, 0, 62, 16
3, 77600, Note_on_c, 0, 62, 0
3, 77600, Note_on_c, 0, 67, 16
3, 77760, Note_on_c, 0, 67, 0
3, 77760, Note_on_c, 0, 59, 29
3, 77920, Note_on_c, 0, 59, 0
3, 77920, Note_on_c, 0, 62, 16
3, 78080, Note_on_c, 0, 62, 0
3, 78080, Note_on_c, 0, 67, 16
3, 78240, Note_on_c, 0, 67, 0
3, 78240, Note_on_c, 0, 59, 29
3, 78400, Note_on_c, 0, 59, 0
3, 78400, Note_on_c, 0, 62, 16
3, 78560, Note_on_c, 0, 62, 0
3, 78560, Note_on_c, 0, 67, 16
3, 78720, Note_on_c, 0, 67, 0
3, 78720, Note_on_c, 0, 54, 29
3, 78880, Note_on_c, 0, 54, 0
3, 78880, Note_on_c, 0, 57, 16
3, 79040, Note_on_c, 0, 57, 0
3, 79040, Note_on_c, 0, 62, 16
3, 79200, Note_on_c, 0, 62, 0
3, 79200, Note_on_c, 0, 54, 29
3, 79360, Note_on_c, 0, 54, 0
3, 79360, Note_on_c, 0, 57, 16
3, 79520, Note_on_c, 0, 57, 0
3, 79520, Note_on_c, 0, 62, 16
3, 79680, Note_on_c, 0, 62, 0
3, 79680, Note_on_c, 0, 55, 31
3, 79840, Note_on_c, 0, 55, 0
3, 79840, Note_on_c, 0, 59, 16
3, 80000, Note_on_c, 0, 59, 0
3, 80000, Note_on_c, 0, 62, 16
3, 80160, Note_on_c, 0, 62, 0
3, 80160, Note_on_c, 0, 55, 33
3, 80320, Note_on_c, 0, 55, 0
3, 80320, Note_on_c, 0, 59, 19
3, 80480, Note_on_c, 0, 59, 0
3, 80480, Note_on_c, 0, 62, 19
3, 80640, Note_on_c, 0, 62, 0
3, 80640, Note_on_c, 0, 50, 34
3, 80800, Note_on_c, 0, 50, 0
3, 80800, Note_on_c, 0, 54, 37
3, 80960, Note_on_c, 0, 54, 0
3, 80960, Note_on_c, 0, 57, 40
3, 81120, Note_on_c, 0, 57, 0
3, 81120, Note_on_c, 0, 62, 42
3, 81280, Note_on_c, 0, 62, 0
3, 81280, Note_on_c, 0, 57, 35
3, 81440, Note_on_c, 0, 57, 0
3, 81440, Note_on_c, 0, 54, 38
3, 81600, Note_on_c, 0, 54, 0
3, 81600, Note_on_c, 0, 50, 43
3, 82080, Note_on_c, 0, 50, 0
3, 82560, Note_on_c, 0, 55, 29
3, 82720, Note_on_c, 0, 55, 0
3, 82720, Note_on_c, 0, 59, 20
3, 82880, Note_on_c, 0, 59, 0
3, 82880, Note_on_c, 0, 62, 20
3, 83040, Note_on_c, 0, 62, 0
3, 83040, Note_on_c, 0, 55, 29
3, 83200, Note_on_c, 0, 55, 0
3, 83200, Note_on_c, 0, 59, 20
3, 83360, Note_on_c, 0, 59, 0
3, 83360, Note_on_c, 0, 62, 20
3, 83520, Note_on_c, 0, 62, 0
3, 83520, Note_on_c, 0, 55, 29
3, 83680, Note_on_c, 0, 55, 0
3, 83680, Note_on_c, 0, 59, 21
3, 83840, Note_on_c, 0, 59, 0
3, 83840, Note_on_c, 0, 62, 20
3, 84000, Note_on_c, 0, 62, 0
3, 84000, Note_on_c, 0, 55, 29
3, 84160, Note_on_c, 0, 55, 0
3, 84160, Note_on_c, 0, 59, 21
3, 84320, Note_on_c, 0, 59, 0
3, 84320, Note_on_c, 0, 62, 21
3, 84480, Note_on_c, 0, 62, 0
3, 84480, Note_on_c, 0, 55, 29
3, 84640, Note_on_c, 0, 55, 0
3, 84640, Note_on_c, 0, 59, 20
3, 84800, Note_on_c, 0, 59, 0
3, 84800, Note_on_c, 0, 62, 20
3, 84960, Note_on_c, 0, 62, 0
3, 84960, Note_on_c, 0, 55, 29
3, 85120, Note_on_c, 0, 55, 0
3, 85120, Note_on_c, 0, 59, 20
3, 85280, Note_on_c, 0, 59, 0
3, 85280, Note_on_c, 0, 62, 20
3, 85440, Note_on_c, 0, 62, 0
3, 85440, Note_on_c, 0, 55, 29
3, 85600, Note_on_c, 0, 55, 0
3, 85600, Note_on_c, 0, 59, 21
3, 85760, Note_on_c, 0, 59, 0
3, 85760, Note_on_c, 0, 62, 20
3, 85920, Note_on_c, 0, 62, 0
3, 85920, Note_on_c, 0, 55, 29
3, 86080, Note_on_c, 0, 55, 0
3, 86080, Note_on_c, 0, 59, 21
3, 86240, Note_on_c, 0, 59, 0
3, 86240, Note_on_c, 0, 62, 21
3, 86400, Note_on_c, 0, 62, 0
3, 86400, Note_on_c, 0, 55, 33
3, 86560, Note_on_c, 0, 55, 0
3, 86560, Note_on_c, 0, 60, 18
3, 86720, Note_on_c, 0, 60, 0
3, 86720, Note_on_c, 0, 64, 18
3, 86880, Note_on_c, 0, 64, 0
3, 86880, Note_on_c, 0, 55, 32
3, 87040, Note_on_c, 0, 55, 0
3, 87040, Note_on_c, 0, 60, 16
3, 87200, Note_on_c, 0, 60, 0
3, 87200, Note_on_c, 0, 64, 16
3, 87360, Note_on_c, 0, 64, 0
3, 87360, Note_on_c, 0, 55, 35
3, 87520, Note_on_c, 0, 55, 0
3, 87520, Note_on_c, 0, 60, 20
3, 87680, Note_on_c, 0, 60, 0
3, 87680, Note_on_c, 0, 64, 19
3, 87840, Note_on_c, 0, 64, 0
3, 87840, Note_on_c, 0, 55, 35
3, 88000, Note_on_c, 0, 55, 0
3, 88000, Note_on_c, 0, 60, 20
3, 88160, Note_on_c, 0, 60, 0
3, 88160, Note_on_c, 0, 64, 20
3, 88320, Note_on_c, 0, 64, 0
3, 88320, Note_on_c, 0, 55, 35
3, 88480, Note_on_c, 0, 55, 0
3, 88480, Note_on_c, 0, 59, 19
3, 88640, Note_on_c, 0, 59, 0
3, 88640, Note_on_c, 0, 62, 19
3, 88800, Note_on_c, 0, 62, 0
3, 88800, Note_on_c, 0, 55, 35
3, 88960, Note_on_c, 0, 55, 0
3, 88960, Note_on_c, 0, 59, 18
3, 89120, Note_on_c, 0, 59, 0
3, 89120, Note_on_c, 0, 62, 18
3, 89280, Note_on_c, 0, 62, 0
3, 89280, Note_on_c, 0, 55, 29
3, 89440, Note_on_c, 0, 55, 0
3, 89440, Note_on_c, 0, 59, 16
3, 89600, Note_on_c, 0, 59, 0
3, 89600, Note_on_c, 0, 62, 16
3, 89760, Note_on_c, 0, 62, 0
3, 89760, Note_on_c, 0, 55, 29
3, 89920, Note_on_c, 0, 55, 0
3, 89920, Note_on_c, 0, 59, 16
3, 90080, Note_on_c, 0, 59, 0
3, 90080, Note_on_c, 0, 62, 16
3, 90240, Note_on_c, 0, 62, 0
3, 90240, Note_on_c, 0, 55, 29
3, 90400, Note_on_c, 0, 55, 0
3, 90400, Note_on_c, 0, 61, 20
3, 90560, Note_on_c, 0, 61, 0
3, 90560, Note_on_c, 0, 64, 20
3, 90720, Note_on_c, 0, 64, 0
3, 90720, Note_on_c, 0, 55, 29
3, 90880, Note_on_c, 0, 55, 0
3, 90880, Note_on_c, 0, 61, 20
3, 91040, Note_on_c, 0, 61, 0
3, 91040, Note_on_c, 0, 64, 23
3, 91200, Note_on_c, 0, 64, 0
3, 91200, Note_on_c, 0, 55, 38
3, 91360, Note_on_c, 0, 55, 0
3, 91360, Note_on_c, 0, 61, 25
3, 91520, Note_on_c, 0, 61, 0
3, 91520, Note_on_c, 0, 64, 25
3, 91680, Note_on_c, 0, 64, 0
3, 91680, Note_on_c, 0, 55, 39
3, 91840, Note_on_c, 0, 55, 0
3, 91840, Note_on_c, 0, 61, 25
3, 92000, Note_on_c, 0, 61, 0
3, 92000, Note_on_c, 0, 64, 25
3, 92160, Note_on_c, 0, 64, 0
3, 92160, Note_on_c, 0, 54, 48
3, 92320, Note_on_c, 0, 54, 0
3, 92320, Note_on_c, 0, 57, 26
3, 92480, Note_on_c, 0, 57, 0
3, 92480, Note_on_c, 0, 62, 26
3, 92640, Note_on_c, 0, 62, 0
3, 92640, Note_on_c, 0, 54, 38
3, 92800, Note_on_c, 0, 54, 0
3, 92800, Note_on_c, 0, 57, 20
3, 92960, Note_on_c, 0, 57, 0
3, 92960, Note_on_c, 0, 62, 20
3, 93120, Note_on_c, 0, 62, 0
3, 93120, Note_on_c, 0, 54, 29
3, 93280, Note_on_c, 0, 54, 0
3, 93280, Note_on_c, 0, 57, 21
3, 93440, Note_on_c, 0, 57, 0
3, 93440, Note_on_c, 0, 62, 20
3, 93600, Note_on_c, 0, 62, 0
3, 93600, Note_on_c, 0, 54, 29
3, 93760, Note_on_c, 0, 54, 0
3, 93760, Note_on_c, 0, 57, 21
3, 93920, Note_on_c, 0, 57, 0
3, 93920, Note_on_c, 0, 62, 21
3, 94080, Note_on_c, 0, 62, 0
3, 94080, Note_on_c, 0, 55, 29
3, 94240, Note_on_c, 0, 55, 0
3, 94240, Note_on_c, 0, 59, 20
3, 94400, Note_on_c, 0, 59, 0
3, 94400, Note_on_c, 0, 64, 20
3, 94560, Note_on_c, 0, 64, 0
3, 94560, Note_on_c, 0, 55, 29
3, 94720, Note_on_c, 0, 55, 0
3, 94720, Note_on_c, 0, 59, 20
3, 94880, Note_on_c, 0, 59, 0
3, 94880, Note_on_c, 0, 64, 20
3, 95040, Note_on_c, 0, 64, 0
3, 95040, Note_on_c, 0, 57, 31
3, 95200, Note_on_c, 0, 57, 0
3, 95200, Note_on_c, 0, 64, 21
3, 95360, Note_on_c, 0, 64, 0
3, 95360, Note_on_c, 0, 67, 20
3, 95520, Note_on_c, 0, 67, 0
3, 95520, Note_on_c, 0, 57, 33
3, 95680, Note_on_c, 0, 57, 0
3, 95680, Note_on_c, 0, 64, 24
3, 95840, Note_on_c, 0, 64, 0
3, 95840, Note_on_c, 0, 67, 24
3, 96000, Note_on_c, 0, 67, 0
3, 96000, Note_on_c, 0, 66, 33
3, 96000, Note_on_c, 0, 62, 28
3, 96120, Note_on_c, 0, 62, 0
3, 96120, Note_on_c, 0, 66, 0
3, 97920, Note_on_c, 0, 62, 28
3, 97920, Note_on_c, 0, 67, 33
3, 98040, Note_on_c, 0, 67, 0
3, 98040, Note_on_c, 0, 62, 0
3, 98400, Note_on_c, 0, 67, 29
3, 98400, Note_on_c, 0, 62, 24
3, 98520, Note_on_c, 0, 62, 0
3, 98520, Note_on_c, 0, 67, 0
3, 98880, Note_on_c, 0, 64, 30
3, 98880, Note_on_c, 0, 62, 25
3, 99000, Note_on_c, 0, 62, 0
3, 99000, Note_on_c, 0, 64, 0
3, 99360, Note_on_c, 0, 64, 30
3, 99360, Note_on_c, 0, 62, 25
3, 99480, Note_on_c, 0, 62, 0
3, 99480, Note_on_c, 0, 64, 0
3, 99840, Note_on_c, 0, 66, 33
3, 99840, Note_on_c, 0, 62, 28
3, 99960, Note_on_c, 0, 62, 0
3, 99960, Note_on_c, 0, 66, 0
3, 101760, Note_on_c, 0, 62, 28
3, 101760, Note_on_c, 0, 67, 33
3, 101880, Note_on_c, 0, 67, 0
3, 101880, Note_on_c, 0, 62, 0
3, 102240, Note_on_c, 0, 67, 29
3, 102240, Note_on_c, 0, 62, 24
3, 102360, Note_on_c, 0, 62, 0
3, 102360, Note_on_c, 0, 67, 0
3, 102720, Note_on_c, 0, 64, 30
3, 102720, Note_on_c, 0, 62, 25
3, 102840, Note_on_c, 0, 62, 0
3, 102840, Note_on_c, 0, 64, 0
3, 103200, Note_on_c, 0, 64, 30
3, 103200, Note_on_c, 0, 62, 25
3, 103320, Note_on_c, 0, 62, 0
3, 103320, Note_on_c, 0, 64, 0
3, 103680, Note_on_c, 0, 62, 28
3, 103680, Note_on_c, 0, 66, 33
3, 103800, Note_on_c, 0, 66, 0
3, 103800, Note_on_c, 0, 62, 0
3, 104640, Note_on_c, 0, 42, 32
3, 104640, Note_on_c, 0, 54, 36
3, 104880, Note_on_c, 0, 54, 0
3, 104880, Note_on_c, 0, 42, 0
3, 105120, Note_on_c, 0, 42, 33
3, 105120, Note_on_c, 0, 54, 38
3, 105360, Note_on_c, 0, 54, 0
3, 105360, Note_on_c, 0, 42, 0
3, 105600, Note_on_c, 0, 43, 36
3, 105600, Note_on_c, 0, 55, 41
3, 105840, Note_on_c, 0, 55, 0
3, 105840, Note_on_c, 0, 43, 0
3, 106080, Note_on_c, 0, 43, 38
3, 106080, Note_on_c, 0, 55, 44
3, 106320, Note_on_c, 0, 55, 0
3, 106320, Note_on_c, 0, 43, 0
3, 106560, Note_on_c, 0, 44, 40
3, 106560, Note_on_c, 0, 56, 46
3, 106800, Note_on_c, 0, 56, 0
3, 106800, Note_on_c, 0, 44, 0
3, 107040, Note_on_c, 0, 44, 42
3, 107040, Note_on_c, 0, 56, 48
3, 107280, Note_on_c, 0, 56, 0
3, 107280, Note_on_c, 0, 44, 0
3, 107520, Note_on_c, 0, 45, 42
3, 107520, Note_on_c, 0, 57, 48
3, 109440, Note_on_c, 0, 57, 0
3, 109440, Note_on_c, 0, 45, 0
3, 109440, Note_on_c, 0, 45, 50
3, 109600, Note_on_c, 0, 45, 0
3, 109600, Note_on_c, 0, 49, 45
3, 109760, Note_on_c, 0, 49, 0
3, 109760, Note_on_c, 0, 55, 45
3, 109920, Note_on_c, 0, 55, 0
3, 109920, Note_on_c, 0, 45, 51
3, 110080, Note_on_c, 0, 45, 0
3, 110080, Note_on_c, 0, 49, 46
3, 110240, Note_on_c, 0, 49, 0
3, 110240, Note_on_c, 0, 55, 47
3, 110400, Note_on_c, 0, 55, 0
3, 110400, Note_on_c, 0, 45, 52
3, 110560, Note_on_c, 0, 45, 0
3, 110560, Note_on_c, 0, 49, 48
3, 110720, Note_on_c, 0, 49, 0
3, 110720, Note_on_c, 0, 55, 49
3, 110880, Note_on_c, 0, 55, 0
3, 110880, Note_on_c, 0, 45, 54
3, 111040, Note_on_c, 0, 45, 0
3, 111040, Note_on_c, 0, 49, 49
3, 111200, Note_on_c, 0, 49, 0
3, 111200, Note_on_c, 0, 55, 50
3, 111360, Note_on_c, 0, 55, 0
3, 111360, Note_on_c, 0, 54, 59
3, 111360, Note_on_c, 0, 50, 50
3, 111840, Note_on_c, 0, 50, 0
3, 111840, Note_on_c, 0, 54, 0
3, 112800, Note_on_c, 0, 62, 40
3, 113040, Note_on_c, 0, 62, 0
3, 113280, Note_on_c, 0, 59, 45
3, 113520, Note_on_c, 0, 59, 0
3, 113760, Note_on_c, 0, 59, 40
3, 114000, Note_on_c, 0, 59, 0
3, 114240, Note_on_c, 0, 64, 37
3, 114480, Note_on_c, 0, 64, 0
3, 114720, Note_on_c, 0, 64, 40
3, 114960, Note_on_c, 0, 64, 0
3, 115200, Note_on_c, 0, 57, 45
3, 116160, Note_on_c, 0, 57, 0
3, 116160, Note_on_c, 0, 62, 37
3, 116400, Note_on_c, 0, 62, 0
3, 116640, Note_on_c, 0, 62, 40
3, 116880, Note_on_c, 0, 62, 0
3, 117120, Note_on_c, 0, 55, 45
3, 117360, Note_on_c, 0, 55, 0
3, 117600, Note_on_c, 0, 55, 40
3, 117840, Note_on_c, 0, 55, 0
3, 118080, Note_on_c, 0, 57, 37
3, 118320, Note_on_c, 0, 57, 0
3, 118560, Note_on_c, 0, 57, 40
3, 118800, Note_on_c, 0, 57, 0
3, 119040, Note_on_c, 0, 54, 50
3, 119040, Note_on_c, 0, 50, 42
3, 119520, Note_on_c, 0, 50, 0
3, 119520, Note_on_c, 0, 54, 0
3, 120480, Note_on_c, 0, 50, 44
3, 120720, Note_on_c, 0, 50, 0
3, 120960, Note_on_c, 0, 47, 50
3, 121200, Note_on_c, 0, 47, 0
3, 121440, Note_on_c, 0, 47, 46
3, 121680, Note_on_c, 0, 47, 0
3, 121920, Note_on_c, 0, 52, 45
3, 122160, Note_on_c, 0, 52, 0
3, 122400, Note_on_c, 0, 52, 50
3, 122640, Note_on_c, 0, 52, 0
3, 122880, Note_on_c, 0, 45, 59
3, 123840, Note_on_c, 0, 45, 0
3, 123840, Note_on_c, 0, 50, 50
3, 124080, Note_on_c, 0, 50, 0
3, 124320, Note_on_c, 0, 50, 57
3, 124560, Note_on_c, 0, 50, 0
3, 124800, Note_on_c, 0, 55, 68
3, 124800, Note_on_c, 0, 43, 57
3, 125040, Note_on_c, 0, 43, 0
3, 125040, Note_on_c, 0, 55, 0
3, 125280, Note_on_c, 0, 55, 63
3, 125280, Note_on_c, 0, 43, 52
3, 125520, Note_on_c, 0, 43, 0
3, 125520, Note_on_c, 0, 55, 0
3, 125760, Note_on_c, 0, 57, 58
3, 125760, Note_on_c, 0, 45, 48
3, 126000, Note_on_c, 0, 45, 0
3, 126000, Note_on_c, 0, 57, 0
3, 126240, Note_on_c, 0, 57, 64
3, 126240, Note_on_c, 0, 45, 54
3, 126480, Note_on_c, 0, 45, 0
3, 126480, Note_on_c, 0, 57, 0
3, 126720, Note_on_c, 0, 50, 56
3, 126880, Note_on_c, 0, 50, 0
3, 126880, Note_on_c, 0, 54, 48
3, 127040, Note_on_c, 0, 54, 0
3, 127040, Note_on_c, 0, 57, 47
3, 127200, Note_on_c, 0, 57, 0
3, 127200, Note_on_c, 0, 50, 56
3, 127360, Note_on_c, 0, 50, 0
3, 127360, Note_on_c, 0, 54, 48
3, 127520, Note_on_c, 0, 54, 0
3, 127520, Note_on_c, 0, 57, 48
3, 127680, Note_on_c, 0, 57, 0
3, 127680, Note_on_c, 0, 50, 56
3, 127840, Note_on_c, 0, 50, 0
3, 127840, Note_on_c, 0, 54, 49
3, 128000, Note_on_c, 0, 54, 0
3, 128000, Note_on_c, 0, 57, 49
3, 128160, Note_on_c, 0, 57, 0
3, 128160, Note_on_c, 0, 49, 56
3, 128320, Note_on_c, 0, 49, 0
3, 128320, Note_on_c, 0, 52, 48
3, 128480, Note_on_c, 0, 52, 0
3, 128480, Note_on_c, 0, 57, 49
3, 128640, Note_on_c, 0, 57, 0
3, 128640, Note_on_c, 0, 50, 56
3, 128800, Note_on_c, 0, 50, 0
3, 128800, Note_on_c, 0, 54, 49
3, 128960, Note_on_c, 0, 54, 0
3, 128960, Note_on_c, 0, 57, 49
3, 129120, Note_on_c, 0, 57, 0
3, 129120, Note_on_c, 0, 50, 56
3, 129280, Note_on_c, 0, 50, 0
3, 129280, Note_on_c, 0, 54, 49
3, 129440, Note_on_c, 0, 54, 0
3, 129440, Note_on_c, 0, 57, 49
3, 129600, Note_on_c, 0, 57, 0
3, 129600, Note_on_c, 0, 50, 56
3, 129760, Note_on_c, 0, 50, 0
3, 129760, Note_on_c, 0, 54, 50
3, 129920, Note_on_c, 0, 54, 0
3, 129920, Note_on_c, 0, 57, 50
3, 130080, Note_on_c, 0, 57, 0
3, 130080, Note_on_c, 0, 49, 56
3, 130240, Note_on_c, 0, 49, 0
3, 130240, Note_on_c, 0, 52, 49
3, 130400, Note_on_c, 0, 52, 0
3, 130400, Note_on_c, 0, 57, 49
3, 130560, Note_on_c, 0, 57, 0
3, 130560, Note_on_c, 0, 50, 56
3, 130720, Note_on_c, 0, 50, 0
3, 130720, Note_on_c, 0, 54, 50
3, 130880, Note_on_c, 0, 54, 0
3, 130880, Note_on_c, 0, 57, 50
3, 131040, Note_on_c, 0, 57, 0
3, 131040, Note_on_c, 0, 50, 56
3, 131200, Note_on_c, 0, 50, 0
3, 131200, Note_on_c, 0, 54, 49
3, 131360, Note_on_c, 0, 54, 0
3, 131360, Note_on_c, 0, 57, 49
3, 131520, Note_on_c, 0, 57, 0
3, 131520, Note_on_c, 0, 50, 56
3, 132000, Note_on_c, 0, 50, 0
3, 132480, Note_on_c, 0, 60, 29
3, 132640, Note_on_c, 0, 60, 0
3, 132640, Note_on_c, 0, 66, 20
3, 132800, Note_on_c, 0, 66, 0
3, 132800, Note_on_c, 0, 69, 20
3, 132960, Note_on_c, 0, 69, 0
3, 132960, Note_on_c, 0, 60, 29
3, 133120, Note_on_c, 0, 60, 0
3, 133120, Note_on_c, 0, 66, 20
3, 133280, Note_on_c, 0, 66, 0
3, 133280, Note_on_c, 0, 69, 20
3, 133440, Note_on_c, 0, 69, 0
3, 133440, Note_on_c, 0, 60, 29
3, 133600, Note_on_c, 0, 60, 0
3, 133600, Note_on_c, 0, 66, 21
3, 133760, Note_on_c, 0, 66, 0
3, 133760, Note_on_c, 0, 69, 26
3, 133920, Note_on_c, 0, 69, 0
3, 133920, Note_on_c, 0, 60, 29
3, 134080, Note_on_c, 0, 60, 0
3, 134080, Note_on_c, 0, 66, 21
3, 134240, Note_on_c, 0, 66, 0
3, 134240, Note_on_c, 0, 69, 21
3, 134400, Note_on_c, 0, 69, 0
3, 134400, Note_on_c, 0, 58, 29
3, 134560, Note_on_c, 0, 58, 0
3, 134560, Note_on_c, 0, 62, 20
3, 134720, Note_on_c, 0, 62, 0
3, 134720, Note_on_c, 0, 67, 20
3, 134880, Note_on_c, 0, 67, 0
3, 134880, Note_on_c, 0, 58, 29
3, 135040, Note_on_c, 0, 58, 0
3, 135040, Note_on_c, 0, 62, 20
3, 135200, Note_on_c, 0, 62, 0
3, 135200, Note_on_c, 0, 67, 20
3, 135360, Note_on_c, 0, 67, 0
3, 135360, Note_on_c, 0, 58, 29
3, 135520, Note_on_c, 0, 58, 0
3, 135520, Note_on_c, 0, 62, 21
3, 135680, Note_on_c, 0, 62, 0
3, 135680, Note_on_c, 0, 67, 20
3, 135840, Note_on_c, 0, 67, 0
3, 135840, Note_on_c, 0, 58, 29
3, 136000, Note_on_c, 0, 58, 0
3, 136000, Note_on_c, 0, 62, 21
3, 136160, Note_on_c, 0, 62, 0
3, 136160, Note_on_c, 0, 67, 21
3, 136320, Note_on_c, 0, 67, 0
3, 136320, Note_on_c, 0, 57, 33
3, 136480, Note_on_c, 0, 57, 0
3, 136480, Note_on_c, 0, 60, 23
3, 136640, Note_on_c, 0, 60, 0
3, 136640, Note_on_c, 0, 62, 23
3, 136800, Note_on_c, 0, 62, 0
3, 136800, Note_on_c, 0, 57, 32
3, 136960, Note_on_c, 0, 57, 0
3, 136960, Note_on_c, 0, 60, 20
3, 137120, Note_on_c, 0, 60, 0
3, 137120, Note_on_c, 0, 62, 21
3, 137280, Note_on_c, 0, 62, 0
3, 137280, Note_on_c, 0, 55, 35
3, 137440, Note_on_c, 0, 55, 0
3, 137440, Note_on_c, 0, 58, 25
3, 137600, Note_on_c, 0, 58, 0
3, 137600, Note_on_c, 0, 62, 24
3, 137760, Note_on_c, 0, 62, 0
3, 137760, Note_on_c, 0, 55, 35
3, 137920, Note_on_c, 0, 55, 0
3, 137920, Note_on_c, 0, 58, 25
3, 138080, Note_on_c, 0, 58, 0
3, 138080, Note_on_c, 0, 62, 25
3, 138240, Note_on_c, 0, 62, 0
3, 138240, Note_on_c, 0, 54, 35
3, 138400, Note_on_c, 0, 54, 0
3, 138400, Note_on_c, 0, 57, 24
3, 138560, Note_on_c, 0, 57, 0
3, 138560, Note_on_c, 0, 62, 24
3, 138720, Note_on_c, 0, 62, 0
3, 138720, Note_on_c, 0, 54, 35
3, 138880, Note_on_c, 0, 54, 0
3, 138880, Note_on_c, 0, 57, 23
3, 139040, Note_on_c, 0, 57, 0
3, 139040, Note_on_c, 0, 62, 23
3, 139200, Note_on_c, 0, 62, 0
3, 139200, Note_on_c, 0, 54, 29
3, 139360, Note_on_c, 0, 54, 0
3, 139360, Note_on_c, 0, 57, 20
3, 139520, Note_on_c, 0, 57, 0
3, 139520, Note_on_c, 0, 62, 20
3, 139680, Note_on_c, 0, 62, 0
3, 139680, Note_on_c, 0, 54, 29
3, 139840, Note_on_c, 0, 54, 0
3, 139840, Note_on_c, 0, 57, 21
3, 140000, Note_on_c, 0, 57, 0
3, 140000, Note_on_c, 0, 62, 21
3, 140160, Note_on_c, 0, 62, 0
3, 140160, Note_on_c, 0, 53, 36
3, 140320, Note_on_c, 0, 53, 0
3, 140320, Note_on_c, 0, 57, 24
3, 140480, Note_on_c, 0, 57, 0
3, 140480, Note_on_c, 0, 60, 24
3, 140640, Note_on_c, 0, 60, 0
3, 140640, Note_on_c, 0, 53, 36
3, 140800, Note_on_c, 0, 53, 0
3, 140800, Note_on_c, 0, 57, 25
3, 140960, Note_on_c, 0, 57, 0
3, 140960, Note_on_c, 0, 60, 25
3, 141120, Note_on_c, 0, 60, 0
3, 141120, Note_on_c, 0, 53, 41
3, 141280, Note_on_c, 0, 53, 0
3, 141280, Note_on_c, 0, 57, 26
3, 141440, Note_on_c, 0, 57, 0
3, 141440, Note_on_c, 0, 60, 25
3, 141600, Note_on_c, 0, 60, 0
3, 141600, Note_on_c, 0, 53, 44
3, 141760, Note_on_c, 0, 53, 0
3, 141760, Note_on_c, 0, 57, 30
3, 141920, Note_on_c, 0, 57, 0
3, 141920, Note_on_c, 0, 60, 33
3, 142080, Note_on_c, 0, 60, 0
3, 142080, Note_on_c, 0, 53, 52
3, 142240, Note_on_c, 0, 53, 0
3, 142240, Note_on_c, 0, 58, 31
3, 142400, Note_on_c, 0, 58, 0
3, 142400, Note_on_c, 0, 62, 31
3, 142560, Note_on_c, 0, 62, 0
3, 142560, Note_on_c, 0, 53, 41
3, 142720, Note_on_c, 0, 53, 0
3, 142720, Note_on_c, 0, 58, 28
3, 142880, Note_on_c, 0, 58, 0
3, 142880, Note_on_c, 0, 62, 28
3, 143040, Note_on_c, 0, 62, 0
3, 143040, Note_on_c, 0, 53, 41
3, 143200, Note_on_c, 0, 53, 0
3, 143200, Note_on_c, 0, 58, 29
3, 143360, Note_on_c, 0, 58, 0
3, 143360, Note_on_c, 0, 62, 28
3, 143520, Note_on_c, 0, 62, 0
3, 143520, Note_on_c, 0, 53, 41
3, 143680, Note_on_c, 0, 53, 0
3, 143680, Note_on_c, 0, 58, 29
3, 143840, Note_on_c, 0, 58, 0
3, 143840, Note_on_c, 0, 62, 29
3, 144000, Note_on_c, 0, 62, 0
3, 144000, Note_on_c, 0, 53, 41
3, 144160, Note_on_c, 0, 53, 0
3, 144160, Note_on_c, 0, 60, 28
3, 144320, Note_on_c, 0, 60, 0
3, 144320, Note_on_c, 0, 63, 28
3, 144480, Note_on_c, 0, 63, 0
3, 144480, Note_on_c, 0, 53, 41
3, 144640, Note_on_c, 0, 53, 0
3, 144640, Note_on_c, 0, 60, 28
3, 144800, Note_on_c, 0, 60, 0
3, 144800, Note_on_c, 0, 63, 28
3, 144960, Note_on_c, 0, 63, 0
3, 144960, Note_on_c, 0, 53, 43
3, 145120, Note_on_c, 0, 53, 0
3, 145120, Note_on_c, 0, 60, 29
3, 145280, Note_on_c, 0, 60, 0
3, 145280, Note_on_c, 0, 63, 28
3, 145440, Note_on_c, 0, 63, 0
3, 145440, Note_on_c, 0, 53, 47
3, 145600, Note_on_c, 0, 53, 0
3, 145600, Note_on_c, 0, 60, 33
3, 145760, Note_on_c, 0, 60, 0
3, 145760, Note_on_c, 0, 63, 33
3, 145920, Note_on_c, 0, 63, 0
3, 145920, Note_on_c, 0, 58, 61
3, 146400, Note_on_c, 0, 58, 0
3, 147360, Note_on_c, 0, 56, 54
3, 147600, Note_on_c, 0, 56, 0
3, 147840, Note_on_c, 0, 55, 65
3, 148080, Note_on_c, 0, 55, 0
3, 148320, Note_on_c, 0, 55, 57
3, 148560, Note_on_c, 0, 55, 0
3, 148800, Note_on_c, 0, 43, 65
3, 149040, Note_on_c, 0, 43, 0
3, 149280, Note_on_c, 0, 43, 57
3, 149520, Note_on_c, 0, 43, 0
3, 149760, Note_on_c, 0, 48, 67
3, 149760, Note_on_c, 0, 36, 67
3, 150720, Note_on_c, 0, 36, 0
3, 150720, Note_on_c, 0, 48, 0
3, 151200, Note_on_c, 0, 58, 54
3, 151440, Note_on_c, 0, 58, 0
3, 151680, Note_on_c, 0, 57, 65
3, 151920, Note_on_c, 0, 57, 0
3, 152160, Note_on_c, 0, 57, 57
3, 152400, Note_on_c, 0, 57, 0
3, 152640, Note_on_c, 0, 45, 65
3, 152880, Note_on_c, 0, 45, 0
3, 153120, Note_on_c, 0, 45, 57
3, 153360, Note_on_c, 0, 45, 0
3, 153600, Note_on_c, 0, 50, 67
3, 153600, Note_on_c, 0, 38, 67
3, 155520, Note_on_c, 0, 38, 0
3, 155520, Note_on_c, 0, 50, 0
3, 155520, Note_on_c, 0, 50, 67
3, 155520, Note_on_c, 0, 38, 67
3, 157440, Note_on_c, 0, 38, 0
3, 157440, Note_on_c, 0, 50, 0
3, 157440, Note_on_c, 0, 38, 67
3, 157440, Note_on_c, 0, 50, 67
3, 159360, Note_on_c, 0, 50, 0
3, 159360, Note_on_c, 0, 38, 0
3, 160800, Note_on_c, 0, 62, 56
3, 160960, Note_on_c, 0, 62, 0
3, 160960, Note_on_c, 0, 57, 54
3, 161120, Note_on_c, 0, 57, 0
3, 161120, Note_on_c, 0, 54, 54
3, 161280, Note_on_c, 0, 54, 0
3, 161280, Note_on_c, 0, 50, 65
3, 162720, Note_on_c, 0, 50, 0
3, 163200, Note_on_c, 0, 55, 29
3, 163360, Note_on_c, 0, 55, 0
3, 163360, Note_on_c, 0, 59, 20
3, 163520, Note_on_c, 0, 59, 0
3, 163520, Note_on_c, 0, 62, 20
3, 163680, Note_on_c, 0, 62, 0
3, 163680, Note_on_c, 0, 55, 29
3, 163840, Note_on_c, 0, 55, 0
3, 163840, Note_on_c, 0, 59, 20
3, 164000, Note_on_c, 0, 59, 0
3, 164000, Note_on_c, 0, 62, 20
3, 164160, Note_on_c, 0, 62, 0
3, 164160, Note_on_c, 0, 55, 29
3, 164320, Note_on_c, 0, 55, 0
3, 164320, Note_on_c, 0, 59, 21
3, 164480, Note_on_c, 0, 59, 0
3, 164480, Note_on_c, 0, 62, 20
3, 164640, Note_on_c, 0, 62, 0
3, 164640, Note_on_c, 0, 55, 29
3, 164800, Note_on_c, 0, 55, 0
3, 164800, Note_on_c, 0, 59, 21
3, 164960, Note_on_c, 0, 59, 0
3, 164960, Note_on_c, 0, 62, 21
3, 165120, Note_on_c, 0, 62, 0
3, 165120, Note_on_c, 0, 55, 29
3, 165280, Note_on_c, 0, 55, 0
3, 165280, Note_on_c, 0, 59, 20
3, 165440, Note_on_c, 0, 59, 0
3, 165440, Note_on_c, 0, 62, 20
3, 165600, Note_on_c, 0, 62, 0
3, 165600, Note_on_c, 0, 55, 29
3, 165760, Note_on_c, 0, 55, 0
3, 165760, Note_on_c, 0, 59, 20
3, 165920, Note_on_c, 0, 59, 0
3, 165920, Note_on_c, 0, 62, 20
3, 166080, Note_on_c, 0, 62, 0
3, 166080, Note_on_c, 0, 55, 29
3, 166240, Note_on_c, 0, 55, 0
3, 166240, Note_on_c, 0, 59, 21
3, 166400, Note_on_c, 0, 59, 0
3, 166400, Note_on_c, 0, 62, 20
3, 166560, Note_on_c, 0, 62, 0
3, 166560, Note_on_c, 0, 55, 29
3, 166720, Note_on_c, 0, 55, 0
3, 166720, Note_on_c, 0, 59, 21
3, 166880, Note_on_c, 0, 59, 0
3, 166880, Note_on_c, 0, 62, 21
3, 167040, Note_on_c, 0, 62, 0
3, 167040, Note_on_c, 0, 55, 33
3, 167200, Note_on_c, 0, 55, 0
3, 167200, Note_on_c, 0, 60, 23
3, 167360, Note_on_c, 0, 60, 0
3, 167360, Note_on_c, 0, 64, 23
3, 167520, Note_on_c, 0, 64, 0
3, 167520, Note_on_c, 0, 55, 32
3, 167680, Note_on_c, 0, 55, 0
3, 167680, Note_on_c, 0, 60, 20
3, 167840, Note_on_c, 0, 60, 0
3, 167840, Note_on_c, 0, 64, 21
3, 168000, Note_on_c, 0, 64, 0
3, 168000, Note_on_c, 0, 55, 35
3, 168160, Note_on_c, 0, 55, 0
3, 168160, Note_on_c, 0, 60, 25
3, 168320, Note_on_c, 0, 60, 0
3, 168320, Note_on_c, 0, 64, 24
3, 168480, Note_on_c, 0, 64, 0
3, 168480, Note_on_c, 0, 55, 35
3, 168640, Note_on_c, 0, 55, 0
3, 168640, Note_on_c, 0, 60, 25
3, 168800, Note_on_c, 0, 60, 0
3, 168800, Note_on_c, 0, 64, 25
3, 168960, Note_on_c, 0, 64, 0
3, 168960, Note_on_c, 0, 55, 35
3, 169120, Note_on_c, 0, 55, 0
3, 169120, Note_on_c, 0, 59, 24
3, 169280, Note_on_c, 0, 59, 0
3, 169280, Note_on_c, 0, 62, 24
3, 169440, Note_on_c, 0, 62, 0
3, 169440, Note_on_c, 0, 55, 35
3, 169600, Note_on_c, 0, 55, 0
3, 169600, Note_on_c, 0, 59, 23
3, 169760, Note_on_c, 0, 59, 0
3, 169760, Note_on_c, 0, 62, 23
3, 169920, Note_on_c, 0, 62, 0
3, 169920, Note_on_c, 0, 55, 29
3, 170080, Note_on_c, 0, 55, 0
3, 170080, Note_on_c, 0, 59, 20
3, 170240, Note_on_c, 0, 59, 0
3, 170240, Note_on_c, 0, 62, 20
3, 170400, Note_on_c, 0, 62, 0
3, 170400, Note_on_c, 0, 55, 29
3, 170560, Note_on_c, 0, 55, 0
3, 170560, Note_on_c, 0, 59, 21
3, 170720, Note_on_c, 0, 59, 0
3, 170720, Note_on_c, 0, 62, 21
3, 170880, Note_on_c, 0, 62, 0
3, 170880, Note_on_c, 0, 60, 29
3, 171040, Note_on_c, 0, 60, 0
3, 171040, Note_on_c, 0, 64, 20
3, 171200, Note_on_c, 0, 64, 0
3, 171200, Note_on_c, 0, 69, 20
3, 171360, Note_on_c, 0, 69, 0
3, 171360, Note_on_c, 0, 60, 29
3, 171520, Note_on_c, 0, 60, 0
3, 171520, Note_on_c, 0, 64, 20
3, 171680, Note_on_c, 0, 64, 0
3, 171680, Note_on_c, 0, 69, 20
3, 171840, Note_on_c, 0, 69, 0
3, 171840, Note_on_c, 0, 60, 29
3, 172000, Note_on_c, 0, 60, 0
3, 172000, Note_on_c, 0, 64, 21
3, 172160, Note_on_c, 0, 64, 0
3, 172160, Note_on_c, 0, 69, 20
3, 172320, Note_on_c, 0, 69, 0
3, 172320, Note_on_c, 0, 60, 29
3, 172480, Note_on_c, 0, 60, 0
3, 172480, Note_on_c, 0, 64, 21
3, 172640, Note_on_c, 0, 64, 0
3, 172640, Note_on_c, 0, 69, 21
3, 172800, Note_on_c, 0, 69, 0
3, 172800, Note_on_c, 0, 59, 29
3, 172960, Note_on_c, 0, 59, 0
3, 172960, Note_on_c, 0, 62, 20
3, 173120, Note_on_c, 0, 62, 0
3, 173120, Note_on_c, 0, 67, 20
3, 173280, Note_on_c, 0, 67, 0
3, 173280, Note_on_c, 0, 59, 29
3, 173440, Note_on_c, 0, 59, 0
3, 173440, Note_on_c, 0, 62, 20
3, 173600, Note_on_c, 0, 62, 0
3, 173600, Note_on_c, 0, 67, 20
3, 173760, Note_on_c, 0, 67, 0
3, 173760, Note_on_c, 0, 59, 29
3, 173920, Note_on_c, 0, 59, 0
3, 173920, Note_on_c, 0, 62, 21
3, 174080, Note_on_c, 0, 62, 0
3, 174080, Note_on_c, 0, 67, 20
3, 174240, Note_on_c, 0, 67, 0
3, 174240, Note_on_c, 0, 59, 29
3, 174400, Note_on_c, 0, 59, 0
3, 174400, Note_on_c, 0, 62, 21
3, 174560, Note_on_c, 0, 62, 0
3, 174560, Note_on_c, 0, 67, 21
3, 174720, Note_on_c, 0, 67, 0
3, 174720, Note_on_c, 0, 54, 29
3, 174880, Note_on_c, 0, 54, 0
3, 174880, Note_on_c, 0, 57, 20
3, 175040, Note_on_c, 0, 57, 0
3, 175040, Note_on_c, 0, 62, 20
3, 175200, Note_on_c, 0, 62, 0
3, 175200, Note_on_c, 0, 54, 29
3, 175360, Note_on_c, 0, 54, 0
3, 175360, Note_on_c, 0, 57, 20
3, 175520, Note_on_c, 0, 57, 0
3, 175520, Note_on_c, 0, 62, 20
3, 175680, Note_on_c, 0, 62, 0
3, 175680, Note_on_c, 0, 55, 31
3, 175840, Note_on_c, 0, 55, 0
3, 175840, Note_on_c, 0, 59, 21
3, 176000, Note_on_c, 0, 59, 0
3, 176000, Note_on_c, 0, 62, 20
3, 176160, Note_on_c, 0, 62, 0
3, 176160, Note_on_c, 0, 55, 33
3, 176320, Note_on_c, 0, 55, 0
3, 176320, Note_on_c, 0, 59, 24
3, 176480, Note_on_c, 0, 59, 0
3, 176480, Note_on_c, 0, 62, 24
3, 176640, Note_on_c, 0, 62, 0
3, 176640, Note_on_c, 0, 50, 34
3, 176800, Note_on_c, 0, 50, 0
3, 176800, Note_on_c, 0, 54, 37
3, 176960, Note_on_c, 0, 54, 0
3, 176960, Note_on_c, 0, 57, 40
3, 177120, Note_on_c, 0, 57, 0
3, 177120, Note_on_c, 0, 62, 42
3, 177280, Note_on_c, 0, 62, 0
3, 177280, Note_on_c, 0, 57, 35
3, 177440, Note_on_c, 0, 57, 0
3, 177440, Note_on_c, 0, 54, 38
3, 177600, Note_on_c, 0, 54, 0
3, 177600, Note_on_c, 0, 50, 43
3, 178080, Note_on_c, 0, 50, 0
3, 178560, Note_on_c, 0, 55, 29
3, 178720, Note_on_c, 0, 55, 0
3, 178720, Note_on_c, 0, 59, 20
3, 178880, Note_on_c, 0, 59, 0
3, 178880, Note_on_c, 0, 62, 20
3, 179040, Note_on_c, 0, 62, 0
3, 179040, Note_on_c, 0, 55, 29
3, 179200, Note_on_c, 0, 55, 0
3, 179200, Note_on_c, 0, 59, 20
3, 179360, Note_on_c, 0, 59, 0
3, 179360, Note_on_c, 0, 62, 20
3, 179520, Note_on_c, 0, 62, 0
3, 179520, Note_on_c, 0, 55, 29
3, 179680, Note_on_c, 0, 55, 0
3, 179680, Note_on_c, 0, 59, 21
3, 179840, Note_on_c, 0, 59, 0
3, 179840, Note_on_c, 0, 62, 20
3, 180000, Note_on_c, 0, 62, 0
3, 180000, Note_on_c, 0, 55, 29
3, 180160, Note_on_c, 0, 55, 0
3, 180160, Note_on_c, 0, 59, 21
3, 180320, Note_on_c, 0, 59, 0
3, 180320, Note_on_c, 0, 62, 21
3, 180480, Note_on_c, 0, 62, 0
3, 180480, Note_on_c, 0, 55, 29
3, 180640, Note_on_c, 0, 55, 0
3, 180640, Note_on_c, 0, 59, 20
3, 180800, Note_on_c, 0, 59, 0
3, 180800, Note_on_c, 0, 62, 20
3, 180960, Note_on_c, 0, 62, 0
3, 180960, Note_on_c, 0, 55, 29
3, 181120, Note_on_c, 0, 55, 0
3, 181120, Note_on_c, 0, 59, 20
3, 181280, Note_on_c, 0, 59, 0
3, 181280, Note_on_c, 0, 62, 26
3, 181440, Note_on_c, 0, 62, 0
3, 181440, Note_on_c, 0, 55, 29
3, 181600, Note_on_c, 0, 55, 0
3, 181600, Note_on_c, 0, 59, 21
3, 181760, Note_on_c, 0, 59, 0
3, 181760, Note_on_c, 0, 62, 20
3, 181920, Note_on_c, 0, 62, 0
3, 181920, Note_on_c, 0, 55, 29
3, 182080, Note_on_c, 0, 55, 0
3, 182080, Note_on_c, 0, 59, 21
3, 182240, Note_on_c, 0, 59, 0
3, 182240, Note_on_c, 0, 62, 21
3, 182400, Note_on_c, 0, 62, 0
3, 182400, Note_on_c, 0, 55, 33
3, 182560, Note_on_c, 0, 55, 0
3, 182560, Note_on_c, 0, 60, 23
3, 182720, Note_on_c, 0, 60, 0
3, 182720, Note_on_c, 0, 64, 23
3, 182880, Note_on_c, 0, 64, 0
3, 182880, Note_on_c, 0, 55, 32
3, 183040, Note_on_c, 0, 55, 0
3, 183040, Note_on_c, 0, 60, 20
3, 183200, Note_on_c, 0, 60, 0
3, 183200, Note_on_c, 0, 64, 21
3, 183360, Note_on_c, 0, 64, 0
3, 183360, Note_on_c, 0, 55, 35
3, 183520, Note_on_c, 0, 55, 0
3, 183520, Note_on_c, 0, 60, 25
3, 183680, Note_on_c, 0, 60, 0
3, 183680, Note_on_c, 0, 64, 24
3, 183840, Note_on_c, 0, 64, 0
3, 183840, Note_on_c, 0, 55, 35
3, 184000, Note_on_c, 0, 55, 0
3, 184000, Note_on_c, 0, 60, 25
3, 184160, Note_on_c, 0, 60, 0
3, 184160, Note_on_c, 0, 64, 25
3, 184320, Note_on_c, 0, 64, 0
3, 184320, Note_on_c, 0, 55, 35
3, 184480, Note_on_c, 0, 55, 0
3, 184480, Note_on_c, 0, 59, 24
3, 184640, Note_on_c, 0, 59, 0
3, 184640, Note_on_c, 0, 62, 24
3, 184800, Note_on_c, 0, 62, 0
3, 184800, Note_on_c, 0, 55, 35
3, 184960, Note_on_c, 0, 55, 0
3, 184960, Note_on_c, 0, 59, 23
3, 185120, Note_on_c, 0, 59, 0
3, 185120, Note_on_c, 0, 62, 29
3, 185280, Note_on_c, 0, 62, 0
3, 185280, Note_on_c, 0, 55, 33
3, 185440, Note_on_c, 0, 55, 0
3, 185440, Note_on_c, 0, 59, 22
3, 185600, Note_on_c, 0, 59, 0
3, 185600, Note_on_c, 0, 62, 22
3, 185760, Note_on_c, 0, 62, 0
3, 185760, Note_on_c, 0, 55, 33
3, 185920, Note_on_c, 0, 55, 0
3, 185920, Note_on_c, 0, 59, 24
3, 186080, Note_on_c, 0, 59, 0
3, 186080, Note_on_c, 0, 62, 24
3, 186240, Note_on_c, 0, 62, 0
3, 186240, Note_on_c, 0, 53, 29
3, 186400, Note_on_c, 0, 53, 0
3, 186400, Note_on_c, 0, 59, 20
3, 186560, Note_on_c, 0, 59, 0
3, 186560, Note_on_c, 0, 62, 20
3, 186720, Note_on_c, 0, 62, 0
3, 186720, Note_on_c, 0, 53, 23
3, 186880, Note_on_c, 0, 53, 0
3, 186880, Note_on_c, 0, 59, 20
3, 187040, Note_on_c, 0, 59, 0
3, 187040, Note_on_c, 0, 62, 23
3, 187200, Note_on_c, 0, 62, 0
3, 187200, Note_on_c, 0, 53, 38
3, 187360, Note_on_c, 0, 53, 0
3, 187360, Note_on_c, 0, 59, 25
3, 187520, Note_on_c, 0, 59, 0
3, 187520, Note_on_c, 0, 62, 25
3, 187680, Note_on_c, 0, 62, 0
3, 187680, Note_on_c, 0, 53, 39
3, 187840, Note_on_c, 0, 53, 0
3, 187840, Note_on_c, 0, 59, 25
3, 188000, Note_on_c, 0, 59, 0
3, 188000, Note_on_c, 0, 62, 25
3, 188160, Note_on_c, 0, 62, 0
3, 188160, Note_on_c, 0, 52, 48
3, 188320, Note_on_c, 0, 52, 0
3, 188320, Note_on_c, 0, 55, 26
3, 188480, Note_on_c, 0, 55, 0
3, 188480, Note_on_c, 0, 60, 26
3, 188640, Note_on_c, 0, 60, 0
3, 188640, Note_on_c, 0, 52, 38
3, 188800, Note_on_c, 0, 52, 0
3, 188800, Note_on_c, 0, 55, 20
3, 188960, Note_on_c, 0, 55, 0
3, 188960, Note_on_c, 0, 60, 20
3, 189120, Note_on_c, 0, 60, 0
3, 189120, Note_on_c, 0, 52, 29
3, 189280, Note_on_c, 0, 52, 0
3, 189280, Note_on_c, 0, 55, 21
3, 189440, Note_on_c, 0, 55, 0
3, 189440, Note_on_c, 0, 58, 20
3, 189600, Note_on_c, 0, 58, 0
3, 189600, Note_on_c, 0, 52, 29
3, 189760, Note_on_c, 0, 52, 0
3, 189760, Note_on_c, 0, 55, 21
3, 189920, Note_on_c, 0, 55, 0
3, 189920, Note_on_c, 0, 58, 21
3, 190080, Note_on_c, 0, 58, 0
3, 190080, Note_on_c, 0, 50, 29
3, 190240, Note_on_c, 0, 50, 0
3, 190240, Note_on_c, 0, 55, 20
3, 190400, Note_on_c, 0, 55, 0
3, 190400, Note_on_c, 0, 59, 20
3, 190560, Note_on_c, 0, 59, 0
3, 190560, Note_on_c, 0, 50, 29
3, 190720, Note_on_c, 0, 50, 0
3, 190720, Note_on_c, 0, 55, 20
3, 190880, Note_on_c, 0, 55, 0
3, 190880, Note_on_c, 0, 59, 20
3, 191040, Note_on_c, 0, 59, 0
3, 191040, Note_on_c, 0, 50, 31
3, 191200, Note_on_c, 0, 50, 0
3, 191200, Note_on_c, 0, 57, 21
3, 191360, Note_on_c, 0, 57, 0
3, 191360, Note_on_c, 0, 60, 20
3, 191520, Note_on_c, 0, 60, 0
3, 191520, Note_on_c, 0, 50, 33
3, 191680, Note_on_c, 0, 50, 0
3, 191680, Note_on_c, 0, 57, 24
3, 191840, Note_on_c, 0, 57, 0
3, 191840, Note_on_c, 0, 60, 24
3, 192000, Note_on_c, 0, 60, 0
3, 192000, Note_on_c, 0, 59, 33
3, 192000, Note_on_c, 0, 55, 28
3, 192240, Note_on_c, 0, 55, 0
3, 192240, Note_on_c, 0, 59, 0
3, 193920, Note_on_c, 0, 55, 28
3, 193920, Note_on_c, 0, 60, 33
3, 194040, Note_on_c, 0, 60, 0
3, 194040, Note_on_c, 0, 55, 0
3, 194400, Note_on_c, 0, 60, 29
3, 194400, Note_on_c, 0, 55, 24
3, 194520, Note_on_c, 0, 55, 0
3, 194520, Note_on_c, 0, 60, 0
3, 194880, Note_on_c, 0, 57, 30
3, 194880, Note_on_c, 0, 55, 25
3, 195000, Note_on_c, 0, 55, 0
3, 195000, Note_on_c, 0, 57, 0
3, 195360, Note_on_c, 0, 57, 30
3, 195360, Note_on_c, 0, 55, 25
3, 195480, Note_on_c, 0, 55, 0
3, 195480, Note_on_c, 0, 57, 0
3, 195840, Note_on_c, 0, 59, 33
3, 195840, Note_on_c, 0, 55, 28
3, 196080, Note_on_c, 0, 55, 0
3, 196080, Note_on_c, 0, 59, 0
3, 197760, Note_on_c, 0, 55, 28
3, 197760, Note_on_c, 0, 60, 33
3, 197880, Note_on_c, 0, 60, 0
3, 197880, Note_on_c, 0, 55, 0
3, 198240, Note_on_c, 0, 60, 29
3, 198240, Note_on_c, 0, 55, 24
3, 198360, Note_on_c, 0, 55, 0
3, 198360, Note_on_c, 0, 60, 0
3, 198720, Note_on_c, 0, 57, 30
3, 198720, Note_on_c, 0, 55, 25
3, 198840, Note_on_c, 0, 55, 0
3, 198840, Note_on_c, 0, 57, 0
3, 199200, Note_on_c, 0, 57, 30
3, 199200, Note_on_c, 0, 55, 25
3, 199320, Note_on_c, 0, 55, 0
3, 199320, Note_on_c, 0, 57, 0
3, 199680, Note_on_c, 0, 55, 28
3, 199680, Note_on_c, 0, 59, 33
3, 199920, Note_on_c, 0, 59, 0
3, 199920, Note_on_c, 0, 55, 0
3, 200640, Note_on_c, 0, 35, 32
3, 200640, Note_on_c, 0, 47, 36
3, 200880, Note_on_c, 0, 47, 0
3, 200880, Note_on_c, 0, 35, 0
3, 201120, Note_on_c, 0, 35, 33
3, 201120, Note_on_c, 0, 47, 38
3, 201360, Note_on_c, 0, 47, 0
3, 201360, Note_on_c, 0, 35, 0
3, 201600, Note_on_c, 0, 36, 36
3, 201600, Note_on_c, 0, 48, 41
3, 201840, Note_on_c, 0, 48, 0
3, 201840, Note_on_c, 0, 36, 0
3, 202080, Note_on_c, 0, 36, 38
3, 202080, Note_on_c, 0, 48, 44
3, 202320, Note_on_c, 0, 48, 0
3, 202320, Note_on_c, 0, 36, 0
3, 202560, Note_on_c, 0, 37, 40
3, 202560, Note_on_c, 0, 49, 46
3, 202800, Note_on_c, 0, 49, 0
3, 202800, Note_on_c, 0, 37, 0
3, 203040, Note_on_c, 0, 37, 43
3, 203040, Note_on_c, 0, 49, 49
3, 203280, Note_on_c, 0, 49, 0
3, 203280, Note_on_c, 0, 37, 0
3, 203520, Note_on_c, 0, 38, 55
3, 203520, Note_on_c, 0, 50, 68
3, 205440, Note_on_c, 0, 50, 0
3, 205440, Note_on_c, 0, 38, 0
3, 205440, Note_on_c, 0, 50, 50
3, 205600, Note_on_c, 0, 50, 0
3, 205600, Note_on_c, 0, 54, 45
3, 205760, Note_on_c, 0, 54, 0
3, 205760, Note_on_c, 0, 60, 45
3, 205920, Note_on_c, 0, 60, 0
3, 205920, Note_on_c, 0, 50, 51
3, 206080, Note_on_c, 0, 50, 0
3, 206080, Note_on_c, 0, 54, 46
3, 206240, Note_on_c, 0, 54, 0
3, 206240, Note_on_c, 0, 60, 47
3, 206400, Note_on_c, 0, 60, 0
3, 206400, Note_on_c, 0, 50, 52
3, 206560, Note_on_c, 0, 50, 0
3, 206560, Note_on_c, 0, 54, 48
3, 206720, Note_on_c, 0, 54, 0
3, 206720, Note_on_c, 0, 60, 49
3, 206880, Note_on_c, 0, 60, 0
3, 206880, Note_on_c, 0, 50, 54
3, 207040, Note_on_c, 0, 50, 0
3, 207040, Note_on_c, 0, 54, 49
3, 207200, Note_on_c, 0, 54, 0
3, 207200, Note_on_c, 0, 60, 50
3, 207360, Note_on_c, 0, 60, 0
3, 207360, Note_on_c, 0, 59, 59
3, 207360, Note_on_c, 0, 55, 50
3, 207840, Note_on_c, 0, 55, 0
3, 207840, Note_on_c, 0, 59, 0
3, 208800, Note_on_c, 0, 67, 40
3, 209040, Note_on_c, 0, 67, 0
3, 209280, Note_on_c, 0, 64, 45
3, 209520, Note_on_c, 0, 64, 0
3, 209760, Note_on_c, 0, 64, 40
3, 210000, Note_on_c, 0, 64, 0
3, 210240, Note_on_c, 0, 69, 37
3, 210480, Note_on_c, 0, 69, 0
3, 210720, Note_on_c, 0, 69, 40
3, 210960, Note_on_c, 0, 69, 0
3, 211200, Note_on_c, 0, 62, 45
3, 212160, Note_on_c, 0, 62, 0
3, 212160, Note_on_c, 0, 67, 37
3, 212400, Note_on_c, 0, 67, 0
3, 212640, Note_on_c, 0, 67, 40
3, 212880, Note_on_c, 0, 67, 0
3, 213120, Note_on_c, 0, 60, 45
3, 213360, Note_on_c, 0, 60, 0
3, 213600, Note_on_c, 0, 60, 40
3, 213840, Note_on_c, 0, 60, 0
3, 214080, Note_on_c, 0, 62, 37
3, 214320, Note_on_c, 0, 62, 0
3, 214560, Note_on_c, 0, 62, 40
3, 214800, Note_on_c, 0, 62, 0
3, 215040, Note_on_c, 0, 59, 50
3, 215040, Note_on_c, 0, 55, 42
3, 215520, Note_on_c, 0, 55, 0
3, 215520, Note_on_c, 0, 59, 0
3, 216480, Note_on_c, 0, 55, 44
3, 216720, Note_on_c, 0, 55, 0
3, 216960, Note_on_c, 0, 52, 50
3, 217200, Note_on_c, 0, 52, 0
3, 217440, Note_on_c, 0, 52, 46
3, 217680, Note_on_c, 0, 52, 0
3, 217920, Note_on_c, 0, 57, 45
3, 218160, Note_on_c, 0, 57, 0
3, 218400, Note_on_c, 0, 57, 50
3, 218640, Note_on_c, 0, 57, 0
3, 218880, Note_on_c, 0, 50, 59
3, 219840, Note_on_c, 0, 50, 0
3, 219840, Note_on_c, 0, 55, 50
3, 220080, Note_on_c, 0, 55, 0
3, 220320, Note_on_c, 0, 55, 57
3, 220560, Note_on_c, 0, 55, 0
3, 220800, Note_on_c, 0, 60, 68
3, 220800, Note_on_c, 0, 48, 57
3, 221040, Note_on_c, 0, 48, 0
3, 221040, Note_on_c, 0, 60, 0
3, 221280, Note_on_c, 0, 60, 63
3, 221280, Note_on_c, 0, 48, 52
3, 221520, Note_on_c, 0, 48, 0
3, 221520, Note_on_c, 0, 60, 0
3, 221760, Note_on_c, 0, 62, 58
3, 221760, Note_on_c, 0, 50, 48
3, 222000, Note_on_c, 0, 50, 0
3, 222000, Note_on_c, 0, 62, 0
3, 222240, Note_on_c, 0, 62, 64
3, 222240, Note_on_c, 0, 50, 54
3, 222480, Note_on_c, 0, 50, 0
3, 222480, Note_on_c, 0, 62, 0
3, 222720, Note_on_c, 0, 55, 56
3, 222880, Note_on_c, 0, 55, 0
3, 222880, Note_on_c, 0, 59, 48
3, 223040, Note_on_c, 0, 59, 0
3, 223040, Note_on_c, 0, 62, 47
3, 223200, Note_on_c, 0, 62, 0
3, 223200, Note_on_c, 0, 55, 56
3, 223360, Note_on_c, 0, 55, 0
3, 223360, Note_on_c, 0, 59, 48
3, 223520, Note_on_c, 0, 59, 0
3, 223520, Note_on_c, 0, 62, 48
3, 223680, Note_on_c, 0, 62, 0
3, 223680, Note_on_c, 0, 55, 56
3, 223840, Note_on_c, 0, 55, 0
3, 223840, Note_on_c, 0, 59, 49
3, 224000, Note_on_c, 0, 59, 0
3, 224000, Note_on_c, 0, 62, 49
3, 224160, Note_on_c, 0, 62, 0
3, 224160, Note_on_c, 0, 54, 56
3, 224320, Note_on_c, 0, 54, 0
3, 224320, Note_on_c, 0, 57, 48
3, 224480, Note_on_c, 0, 57, 0
3, 224480, Note_on_c, 0, 62, 49
3, 224640, Note_on_c, 0, 62, 0
3, 224640, Note_on_c, 0, 55, 56
3, 224800, Note_on_c, 0, 55, 0
3, 224800, Note_on_c, 0, 59, 49
3, 224960, Note_on_c, 0, 59, 0
3, 224960, Note_on_c, 0, 62, 49
3, 225120, Note_on_c, 0, 62, 0
3, 225120, Note_on_c, 0, 55, 56
3, 225280, Note_on_c, 0, 55, 0
3, 225280, Note_on_c, 0, 59, 49
3, 225440, Note_on_c, 0, 59, 0
3, 225440, Note_on_c, 0, 62, 49
3, 225600, Note_on_c, 0, 62, 0
3, 225600, Note_on_c, 0, 55, 56
3, 225760, Note_on_c, 0, 55, 0
3, 225760, Note_on_c, 0, 59, 50
3, 225920, Note_on_c, 0, 59, 0
3, 225920, Note_on_c, 0, 62, 50
3, 226080, Note_on_c, 0, 62, 0
3, 226080, Note_on_c, 0, 54, 56
3, 226240, Note_on_c, 0, 54, 0
3, 226240, Note_on_c, 0, 57, 49
3, 226400, Note_on_c, 0, 57, 0
3, 226400, Note_on_c, 0, 62, 49
3, 226560, Note_on_c, 0, 62, 0
3, 226560, Note_on_c, 0, 55, 56
3, 226720, Note_on_c, 0, 55, 0
3, 226720, Note_on_c, 0, 59, 50
3, 226880, Note_on_c, 0, 59, 0
3, 226880, Note_on_c, 0, 62, 50
3, 227040, Note_on_c, 0, 62, 0
3, 227040, Note_on_c, 0, 55, 56
3, 227200, Note_on_c, 0, 55, 0
3, 227200, Note_on_c, 0, 59, 49
3, 227360, Note_on_c, 0, 59, 0
3, 227360, Note_on_c, 0, 62, 49
3, 227520, Note_on_c, 0, 62, 0
3, 227520, Note_on_c, 0, 55, 56
3, 228000, Note_on_c, 0, 55, 0
3, 228480, Note_on_c, 0, 60, 29
3, 228640, Note_on_c, 0, 60, 0
3, 228640, Note_on_c, 0, 66, 20
3, 228800, Note_on_c, 0, 66, 0
3, 228800, Note_on_c, 0, 69, 20
3, 228960, Note_on_c, 0, 69, 0
3, 228960, Note_on_c, 0, 60, 29
3, 229120, Note_on_c, 0, 60, 0
3, 229120, Note_on_c, 0, 66, 20
3, 229280, Note_on_c, 0, 66, 0
3, 229280, Note_on_c, 0, 69, 20
3, 229440, Note_on_c, 0, 69, 0
3, 229440, Note_on_c, 0, 60, 29
3, 229600, Note_on_c, 0, 60, 0
3, 229600, Note_on_c, 0, 66, 21
3, 229760, Note_on_c, 0, 66, 0
3, 229760, Note_on_c, 0, 69, 26
3, 229920, Note_on_c, 0, 69, 0
3, 229920, Note_on_c, 0, 60, 29
3, 230080, Note_on_c, 0, 60, 0
3, 230080, Note_on_c, 0, 66, 21
3, 230240, Note_on_c, 0, 66, 0
3, 230240, Note_on_c, 0, 69, 21
3, 230400, Note_on_c, 0, 69, 0
3, 230400, Note_on_c, 0, 58, 29
3, 230560, Note_on_c, 0, 58, 0
3, 230560, Note_on_c, 0, 62, 20
3, 230720, Note_on_c, 0, 62, 0
3, 230720, Note_on_c, 0, 67, 20
3, 230880, Note_on_c, 0, 67, 0
3, 230880, Note_on_c, 0, 58, 29
3, 231040, Note_on_c, 0, 58, 0
3, 231040, Note_on_c, 0, 62, 20
3, 231200, Note_on_c, 0, 62, 0
3, 231200, Note_on_c, 0, 67, 20
3, 231360, Note_on_c, 0, 67, 0
3, 231360, Note_on_c, 0, 58, 29
3, 231520, Note_on_c, 0, 58, 0
3, 231520, Note_on_c, 0, 62, 21
3, 231680, Note_on_c, 0, 62, 0
3, 231680, Note_on_c, 0, 67, 20
3, 231840, Note_on_c, 0, 67, 0
3, 231840, Note_on_c, 0, 58, 29
3, 232000, Note_on_c, 0, 58, 0
3, 232000, Note_on_c, 0, 62, 21
3, 232160, Note_on_c, 0, 62, 0
3, 232160, Note_on_c, 0, 67, 21
3, 232320, Note_on_c, 0, 67, 0
3, 232320, Note_on_c, 0, 57, 33
3, 232480, Note_on_c, 0, 57, 0
3, 232480, Note_on_c, 0, 60, 23
3, 232640, Note_on_c, 0, 60, 0
3, 232640, Note_on_c, 0, 62, 23
3, 232800, Note_on_c, 0, 62, 0
3, 232800, Note_on_c, 0, 57, 32
3, 232960, Note_on_c, 0, 57, 0
3, 232960, Note_on_c, 0, 60, 20
3, 233120, Note_on_c, 0, 60, 0
3, 233120, Note_on_c, 0, 62, 21
3, 233280, Note_on_c, 0, 62, 0
3, 233280, Note_on_c, 0, 55, 35
3, 233440, Note_on_c, 0, 55, 0
3, 233440, Note_on_c, 0, 58, 25
3, 233600, Note_on_c, 0, 58, 0
3, 233600, Note_on_c, 0, 62, 24
3, 233760, Note_on_c, 0, 62, 0
3, 233760, Note_on_c, 0, 55, 35
3, 233920, Note_on_c, 0, 55, 0
3, 233920, Note_on_c, 0, 58, 25
3, 234080, Note_on_c, 0, 58, 0
3, 234080, Note_on_c, 0, 62, 25
3, 234240, Note_on_c, 0, 62, 0
3, 234240, Note_on_c, 0, 54, 35
3, 234400, Note_on_c, 0, 54, 0
3, 234400, Note_on_c, 0, 57, 24
3, 234560, Note_on_c, 0, 57, 0
3, 234560, Note_on_c, 0, 62, 24
3, 234720, Note_on_c, 0, 62, 0
3, 234720, Note_on_c, 0, 54, 35
3, 234880, Note_on_c, 0, 54, 0
3, 234880, Note_on_c, 0, 57, 23
3, 235040, Note_on_c, 0, 57, 0
3, 235040, Note_on_c, 0, 62, 23
3, 235200, Note_on_c, 0, 62, 0
3, 235200, Note_on_c, 0, 54, 29
3, 235360, Note_on_c, 0, 54, 0
3, 235360, Note_on_c, 0, 57, 20
3, 235520, Note_on_c, 0, 57, 0
3, 235520, Note_on_c, 0, 62, 20
3, 235680, Note_on_c, 0, 62, 0
3, 235680, Note_on_c, 0, 54, 29
3, 235840, Note_on_c, 0, 54, 0
3, 235840, Note_on_c, 0, 57, 21
3, 236000, Note_on_c, 0, 57, 0
3, 236000, Note_on_c, 0, 62, 21
3, 236160, Note_on_c, 0, 62, 0
3, 236160, Note_on_c, 0, 53, 36
3, 236320, Note_on_c, 0, 53, 0
3, 236320, Note_on_c, 0, 57, 24
3, 236480, Note_on_c, 0, 57, 0
3, 236480, Note_on_c, 0, 60, 24
3, 236640, Note_on_c, 0, 60, 0
3, 236640, Note_on_c, 0, 53, 36
3, 236800, Note_on_c, 0, 53, 0
3, 236800, Note_on_c, 0, 57, 25
3, 236960, Note_on_c, 0, 57, 0
3, 236960, Note_on_c, 0, 60, 25
3, 237120, Note_on_c, 0, 60, 0
3, 237120, Note_on_c, 0, 53, 41
3, 237280, Note_on_c, 0, 53, 0
3, 237280, Note_on_c, 0, 57, 26
3, 237440, Note_on_c, 0, 57, 0
3, 237440, Note_on_c, 0, 60, 25
3, 237600, Note_on_c, 0, 60, 0
3, 237600, Note_on_c, 0, 53, 44
3, 237760, Note_on_c, 0, 53, 0
3, 237760, Note_on_c, 0, 57, 30
3, 237920, Note_on_c, 0, 57, 0
3, 237920, Note_on_c, 0, 60, 33
3, 238080, Note_on_c, 0, 60, 0
3, 238080, Note_on_c, 0, 53, 52
3, 238240, Note_on_c, 0, 53, 0
3, 238240, Note_on_c, 0, 58, 31
3, 238400, Note_on_c, 0, 58, 0
3, 238400, Note_on_c, 0, 62, 31
3, 238560, Note_on_c, 0, 62, 0
3, 238560, Note_on_c, 0, 53, 41
3, 238720, Note_on_c, 0, 53, 0
3, 238720, Note_on_c, 0, 58, 28
3, 238880, Note_on_c, 0, 58, 0
3, 238880, Note_on_c, 0, 62, 28
3, 239040, Note_on_c, 0, 62, 0
3, 239040, Note_on_c, 0, 53, 41
3, 239200, Note_on_c, 0, 53, 0
3, 239200, Note_on_c, 0, 58, 29
3, 239360, Note_on_c, 0, 58, 0
3, 239360, Note_on_c, 0, 62, 28
3, 239520, Note_on_c, 0, 62, 0
3, 239520, Note_on_c, 0, 53, 41
3, 239680, Note_on_c, 0, 53, 0
3, 239680, Note_on_c, 0, 58, 29
3, 239840, Note_on_c, 0, 58, 0
3, 239840, Note_on_c, 0, 62, 29
3, 240000, Note_on_c, 0, 62, 0
3, 240000, Note_on_c, 0, 53, 41
3, 240160, Note_on_c, 0, 53, 0
3, 240160, Note_on_c, 0, 60, 28
3, 240320, Note_on_c, 0, 60, 0
3, 240320, Note_on_c, 0, 63, 28
3, 240480, Note_on_c, 0, 63, 0
3, 240480, Note_on_c, 0, 53, 41
3, 240640, Note_on_c, 0, 53, 0
3, 240640, Note_on_c, 0, 60, 28
3, 240800, Note_on_c, 0, 60, 0
3, 240800, Note_on_c, 0, 63, 28
3, 240960, Note_on_c, 0, 63, 0
3, 240960, Note_on_c, 0, 53, 43
3, 241120, Note_on_c, 0, 53, 0
3, 241120, Note_on_c, 0, 60, 29
3, 241280, Note_on_c, 0, 60, 0
3, 241280, Note_on_c, 0, 63, 28
3, 241440, Note_on_c, 0, 63, 0
3, 241440, Note_on_c, 0, 53, 47
3, 241600, Note_on_c, 0, 53, 0
3, 241600, Note_on_c, 0, 60, 33
3, 241760, Note_on_c, 0, 60, 0
3, 241760, Note_on_c, 0, 63, 33
3, 241920, Note_on_c, 0, 63, 0
3, 241920, Note_on_c, 0, 58, 61
3, 242400, Note_on_c, 0, 58, 0
3, 243360, Note_on_c, 0, 56, 54
3, 243600, Note_on_c, 0, 56, 0
3, 243840, Note_on_c, 0, 55, 65
3, 244080, Note_on_c, 0, 55, 0
3, 244320, Note_on_c, 0, 55, 57
3, 244560, Note_on_c, 0, 55, 0
3, 244800, Note_on_c, 0, 43, 65
3, 245040, Note_on_c, 0, 43, 0
3, 245280, Note_on_c, 0, 43, 57
3, 245520, Note_on_c, 0, 43, 0
3, 245760, Note_on_c, 0, 48, 67
3, 245760, Note_on_c, 0, 36, 67
3, 246720, Note_on_c, 0, 36, 0
3, 246720, Note_on_c, 0, 48, 0
3, 247200, Note_on_c, 0, 58, 54
3, 247440, Note_on_c, 0, 58, 0
3, 247680, Note_on_c, 0, 57, 65
3, 247920, Note_on_c, 0, 57, 0
3, 248160, Note_on_c, 0, 57, 57
3, 248400, Note_on_c, 0, 57, 0
3, 248640, Note_on_c, 0, 45, 65
3, 248880, Note_on_c, 0, 45, 0
3, 249120, Note_on_c, 0, 45, 57
3, 249360, Note_on_c, 0, 45, 0
3, 249600, Note_on_c, 0, 50, 67
3, 249600, Note_on_c, 0, 38, 67
3, 251520, Note_on_c, 0, 38, 0
3, 251520, Note_on_c, 0, 50, 0
3, 251520, Note_on_c, 0, 50, 67
3, 251520, Note_on_c, 0, 38, 67
3, 253440, Note_on_c, 0, 38, 0
3, 253440, Note_on_c, 0, 50, 0
3, 253440, Note_on_c, 0, 38, 67
3, 253440, Note_on_c, 0, 50, 67
3, 255360, Note_on_c, 0, 50, 0
3, 255360, Note_on_c, 0, 38, 0
3, 256800, Note_on_c, 0, 62, 56
3, 256960, Note_on_c, 0, 62, 0
3, 256960, Note_on_c, 0, 57, 54
3, 257120, Note_on_c, 0, 57, 0
3, 257120, Note_on_c, 0, 54, 54
3, 257280, Note_on_c, 0, 54, 0
3, 257280, Note_on_c, 0, 50, 65
3, 258720, Note_on_c, 0, 50, 0
3, 259200, Note_on_c, 0, 55, 29
3, 259360, Note_on_c, 0, 55, 0
3, 259360, Note_on_c, 0, 59, 20
3, 259520, Note_on_c, 0, 59, 0
3, 259520, Note_on_c, 0, 62, 20
3, 259680, Note_on_c, 0, 62, 0
3, 259680, Note_on_c, 0, 55, 29
3, 259840, Note_on_c, 0, 55, 0
3, 259840, Note_on_c, 0, 59, 20
3, 260000, Note_on_c, 0, 59, 0
3, 260000, Note_on_c, 0, 62, 20
3, 260160, Note_on_c, 0, 62, 0
3, 260160, Note_on_c, 0, 55, 29
3, 260320, Note_on_c, 0, 55, 0
3, 260320, Note_on_c, 0, 59, 21
3, 260480, Note_on_c, 0, 59, 0
3, 260480, Note_on_c, 0, 62, 20
3, 260640, Note_on_c, 0, 62, 0
3, 260640, Note_on_c, 0, 55, 29
3, 260800, Note_on_c, 0, 55, 0
3, 260800, Note_on_c, 0, 59, 21
3, 260960, Note_on_c, 0, 59, 0
3, 260960, Note_on_c, 0, 62, 21
3, 261120, Note_on_c, 0, 62, 0
3, 261120, Note_on_c, 0, 55, 29
3, 261280, Note_on_c, 0, 55, 0
3, 261280, Note_on_c, 0, 59, 20
3, 261440, Note_on_c, 0, 59, 0
3, 261440, Note_on_c, 0, 62, 20
3, 261600, Note_on_c, 0, 62, 0
3, 261600, Note_on_c, 0, 55, 29
3, 261760, Note_on_c, 0, 55, 0
3, 261760, Note_on_c, 0, 59, 20
3, 261920, Note_on_c, 0, 59, 0
3, 261920, Note_on_c, 0, 62, 20
3, 262080, Note_on_c, 0, 62, 0
3, 262080, Note_on_c, 0, 55, 29
3, 262240, Note_on_c, 0, 55, 0
3, 262240, Note_on_c, 0, 59, 21
3, 262400, Note_on_c, 0, 59, 0
3, 262400, Note_on_c, 0, 62, 20
3, 262560, Note_on_c, 0, 62, 0
3, 262560, Note_on_c, 0, 55, 29
3, 262720, Note_on_c, 0, 55, 0
3, 262720, Note_on_c, 0, 59, 21
3, 262880, Note_on_c, 0, 59, 0
3, 262880, Note_on_c, 0, 62, 21
3, 263040, Note_on_c, 0, 62, 0
3, 263040, Note_on_c, 0, 55, 33
3, 263200, Note_on_c, 0, 55, 0
3, 263200, Note_on_c, 0, 60, 23
3, 263360, Note_on_c, 0, 60, 0
3, 263360, Note_on_c, 0, 64, 23
3, 263520, Note_on_c, 0, 64, 0
3, 263520, Note_on_c, 0, 55, 32
3, 263680, Note_on_c, 0, 55, 0
3, 263680, Note_on_c, 0, 60, 20
3, 263840, Note_on_c, 0, 60, 0
3, 263840, Note_on_c, 0, 64, 21
3, 264000, Note_on_c, 0, 64, 0
3, 264000, Note_on_c, 0, 55, 35
3, 264160, Note_on_c, 0, 55, 0
3, 264160, Note_on_c, 0, 60, 25
3, 264320, Note_on_c, 0, 60, 0
3, 264320, Note_on_c, 0, 64, 24
3, 264480, Note_on_c, 0, 64, 0
3, 264480, Note_on_c, 0, 55, 35
3, 264640, Note_on_c, 0, 55, 0
3, 264640, Note_on_c, 0, 60, 25
3, 264800, Note_on_c, 0, 60, 0
3, 264800, Note_on_c, 0, 64, 25
3, 264960, Note_on_c, 0, 64, 0
3, 264960, Note_on_c, 0, 55, 35
3, 265120, Note_on_c, 0, 55, 0
3, 265120, Note_on_c, 0, 59, 24
3, 265280, Note_on_c, 0, 59, 0
3, 265280, Note_on_c, 0, 62, 24
3, 265440, Note_on_c, 0, 62, 0
3, 265440, Note_on_c, 0, 55, 35
3, 265600, Note_on_c, 0, 55, 0
3, 265600, Note_on_c, 0, 59, 23
3, 265760, Note_on_c, 0, 59, 0
3, 265760, Note_on_c, 0, 62, 23
3, 265920, Note_on_c, 0, 62, 0
3, 265920, Note_on_c, 0, 55, 29
3, 266080, Note_on_c, 0, 55, 0
3, 266080, Note_on_c, 0, 59, 20
3, 266240, Note_on_c, 0, 59, 0
3, 266240, Note_on_c, 0, 62, 20
3, 266400, Note_on_c, 0, 62, 0
3, 266400, Note_on_c, 0, 55, 29
3, 266560, Note_on_c, 0, 55, 0
3, 266560, Note_on_c, 0, 59, 21
3, 266720, Note_on_c, 0, 59, 0
3, 266720, Note_on_c, 0, 62, 21
3, 266880, Note_on_c, 0, 62, 0
3, 266880, Note_on_c, 0, 60, 29
3, 267040, Note_on_c, 0, 60, 0
3, 267040, Note_on_c, 0, 64, 20
3, 267200, Note_on_c, 0, 64, 0
3, 267200, Note_on_c, 0, 69, 20
3, 267360, Note_on_c, 0, 69, 0
3, 267360, Note_on_c, 0, 60, 29
3, 267520, Note_on_c, 0, 60, 0
3, 267520, Note_on_c, 0, 64, 20
3, 267680, Note_on_c, 0, 64, 0
3, 267680, Note_on_c, 0, 69, 20
3, 267840, Note_on_c, 0, 69, 0
3, 267840, Note_on_c, 0, 60, 29
3, 268000, Note_on_c, 0, 60, 0
3, 268000, Note_on_c, 0, 64, 21
3, 268160, Note_on_c, 0, 64, 0
3, 268160, Note_on_c, 0, 69, 20
3, 268320, Note_on_c, 0, 69, 0
3, 268320, Note_on_c, 0, 60, 29
3, 268480, Note_on_c, 0, 60, 0
3, 268480, Note_on_c, 0, 64, 21
3, 268640, Note_on_c, 0, 64, 0
3, 268640, Note_on_c, 0, 69, 21
3, 268800, Note_on_c, 0, 69, 0
3, 268800, Note_on_c, 0, 59, 29
3, 268960, Note_on_c, 0, 59, 0
3, 268960, Note_on_c, 0, 62, 20
3, 269120, Note_on_c, 0, 62, 0
3, 269120, Note_on_c, 0, 67, 20
3, 269280, Note_on_c, 0, 67, 0
3, 269280, Note_on_c, 0, 59, 29
3, 269440, Note_on_c, 0, 59, 0
3, 269440, Note_on_c, 0, 62, 20
3, 269600, Note_on_c, 0, 62, 0
3, 269600, Note_on_c, 0, 67, 20
3, 269760, Note_on_c, 0, 67, 0
3, 269760, Note_on_c, 0, 59, 29
3, 269920, Note_on_c, 0, 59, 0
3, 269920, Note_on_c, 0, 62, 21
3, 270080, Note_on_c, 0, 62, 0
3, 270080, Note_on_c, 0, 67, 20
3, 270240, Note_on_c, 0, 67, 0
3, 270240, Note_on_c, 0, 59, 29
3, 270400, Note_on_c, 0, 59, 0
3, 270400, Note_on_c, 0, 62, 21
3, 270560, Note_on_c, 0, 62, 0
3, 270560, Note_on_c, 0, 67, 21
3, 270720, Note_on_c, 0, 67, 0
3, 270720, Note_on_c, 0, 54, 29
3, 270880, Note_on_c, 0, 54, 0
3, 270880, Note_on_c, 0, 57, 20
3, 271040, Note_on_c, 0, 57, 0
3, 271040, Note_on_c, 0, 62, 20
3, 271200, Note_on_c, 0, 62, 0
3, 271200, Note_on_c, 0, 54, 29
3, 271360, Note_on_c, 0, 54, 0
3, 271360, Note_on_c, 0, 57, 20
3, 271520, Note_on_c, 0, 57, 0
3, 271520, Note_on_c, 0, 62, 20
3, 271680, Note_on_c, 0, 62, 0
3, 271680, Note_on_c, 0, 55, 31
3, 271840, Note_on_c, 0, 55, 0
3, 271840, Note_on_c, 0, 59, 21
3, 272000, Note_on_c, 0, 59, 0
3, 272000, Note_on_c, 0, 62, 20
3, 272160, Note_on_c, 0, 62, 0
3, 272160, Note_on_c, 0, 55, 33
3, 272320, Note_on_c, 0, 55, 0
3, 272320, Note_on_c, 0, 59, 24
3, 272480, Note_on_c, 0, 59, 0
3, 272480, Note_on_c, 0, 62, 24
3, 272640, Note_on_c, 0, 62, 0
3, 272640, Note_on_c, 0, 50, 34
3, 272800, Note_on_c, 0, 50, 0
3, 272800, Note_on_c, 0, 54, 37
3, 272960, Note_on_c, 0, 54, 0
3, 272960, Note_on_c, 0, 57, 40
3, 273120, Note_on_c, 0, 57, 0
3, 273120, Note_on_c, 0, 62, 42
3, 273280, Note_on_c, 0, 62, 0
3, 273280, Note_on_c, 0, 57, 35
3, 273440, Note_on_c, 0, 57, 0
3, 273440, Note_on_c, 0, 54, 38
3, 273600, Note_on_c, 0, 54, 0
3, 273600, Note_on_c, 0, 50, 43
3, 274080, Note_on_c, 0, 50, 0
3, 274560, Note_on_c, 0, 55, 29
3, 274720, Note_on_c, 0, 55, 0
3, 274720, Note_on_c, 0, 59, 20
3, 274880, Note_on_c, 0, 59, 0
3, 274880, Note_on_c, 0, 62, 20
3, 275040, Note_on_c, 0, 62, 0
3, 275040, Note_on_c, 0, 55, 29
3, 275200, Note_on_c, 0, 55, 0
3, 275200, Note_on_c, 0, 59, 20
3, 275360, Note_on_c, 0, 59, 0
3, 275360, Note_on_c, 0, 62, 20
3, 275520, Note_on_c, 0, 62, 0
3, 275520, Note_on_c, 0, 55, 29
3, 275680, Note_on_c, 0, 55, 0
3, 275680, Note_on_c, 0, 59, 21
3, 275840, Note_on_c, 0, 59, 0
3, 275840, Note_on_c, 0, 62, 20
3, 276000, Note_on_c, 0, 62, 0
3, 276000, Note_on_c, 0, 55, 29
3, 276160, Note_on_c, 0, 55, 0
3, 276160, Note_on_c, 0, 59, 21
3, 276320, Note_on_c, 0, 59, 0
3, 276320, Note_on_c, 0, 62, 21
3, 276480, Note_on_c, 0, 62, 0
3, 276480, Note_on_c, 0, 55, 29
3, 276640, Note_on_c, 0, 55, 0
3, 276640, Note_on_c, 0, 59, 20
3, 276800, Note_on_c, 0, 59, 0
3, 276800, Note_on_c, 0, 62, 20
3, 276960, Note_on_c, 0, 62, 0
3, 276960, Note_on_c, 0, 55, 29
3, 277120, Note_on_c, 0, 55, 0
3, 277120, Note_on_c, 0, 59, 20
3, 277280, Note_on_c, 0, 59, 0
3, 277280, Note_on_c, 0, 62, 26
3, 277440, Note_on_c, 0, 62, 0
3, 277440, Note_on_c, 0, 55, 29
3, 277600, Note_on_c, 0, 55, 0
3, 277600, Note_on_c, 0, 59, 21
3, 277760, Note_on_c, 0, 59, 0
3, 277760, Note_on_c, 0, 62, 20
3, 277920, Note_on_c, 0, 62, 0
3, 277920, Note_on_c, 0, 55, 29
3, 278080, Note_on_c, 0, 55, 0
3, 278080, Note_on_c, 0, 59, 21
3, 278240, Note_on_c, 0, 59, 0
3, 278240, Note_on_c, 0, 62, 21
3, 278400, Note_on_c, 0, 62, 0
3, 278400, Note_on_c, 0, 55, 33
3, 278560, Note_on_c, 0, 55, 0
3, 278560, Note_on_c, 0, 60, 23
3, 278720, Note_on_c, 0, 60, 0
3, 278720, Note_on_c, 0, 64, 23
3, 278880, Note_on_c, 0, 64, 0
3, 278880, Note_on_c, 0, 55, 32
3, 279040, Note_on_c, 0, 55, 0
3, 279040, Note_on_c, 0, 60, 20
3, 279200, Note_on_c, 0, 60, 0
3, 279200, Note_on_c, 0, 64, 21
3, 279360, Note_on_c, 0, 64, 0
3, 279360, Note_on_c, 0, 55, 35
3, 279520, Note_on_c, 0, 55, 0
3, 279520, Note_on_c, 0, 60, 25
3, 279680, Note_on_c, 0, 60, 0
3, 279680, Note_on_c, 0, 64, 24
3, 279840, Note_on_c, 0, 64, 0
3, 279840, Note_on_c, 0, 55, 35
3, 280000, Note_on_c, 0, 55, 0
3, 280000, Note_on_c, 0, 60, 25
3, 280160, Note_on_c, 0, 60, 0
3, 280160, Note_on_c, 0, 64, 25
3, 280320, Note_on_c, 0, 64, 0
3, 280320, Note_on_c, 0, 55, 35
3, 280480, Note_on_c, 0, 55, 0
3, 280480, Note_on_c, 0, 59, 24
3, 280640, Note_on_c, 0, 59, 0
3, 280640, Note_on_c, 0, 62, 24
3, 280800, Note_on_c, 0, 62, 0
3, 280800, Note_on_c, 0, 55, 35
3, 280960, Note_on_c, 0, 55, 0
3, 280960, Note_on_c, 0, 59, 23
3, 281120, Note_on_c, 0, 59, 0
3, 281120, Note_on_c, 0, 62, 29
3, 281280, Note_on_c, 0, 62, 0
3, 281280, Note_on_c, 0, 55, 33
3, 281440, Note_on_c, 0, 55, 0
3, 281440, Note_on_c, 0, 59, 22
3, 281600, Note_on_c, 0, 59, 0
3, 281600, Note_on_c, 0, 62, 22
3, 281760, Note_on_c, 0, 62, 0
3, 281760, Note_on_c, 0, 55, 33
3, 281920, Note_on_c, 0, 55, 0
3, 281920, Note_on_c, 0, 59, 24
3, 282080, Note_on_c, 0, 59, 0
3, 282080, Note_on_c, 0, 62, 24
3, 282240, Note_on_c, 0, 62, 0
3, 282240, Note_on_c, 0, 53, 29
3, 282400, Note_on_c, 0, 53, 0
3, 282400, Note_on_c, 0, 59, 20
3, 282560, Note_on_c, 0, 59, 0
3, 282560, Note_on_c, 0, 62, 20
3, 282720, Note_on_c, 0, 62, 0
3, 282720, Note_on_c, 0, 53, 23
3, 282880, Note_on_c, 0, 53, 0
3, 282880, Note_on_c, 0, 59, 20
3, 283040, Note_on_c, 0, 59, 0
3, 283040, Note_on_c, 0, 62, 23
3, 283200, Note_on_c, 0, 62, 0
3, 283200, Note_on_c, 0, 53, 38
3, 283360, Note_on_c, 0, 53, 0
3, 283360, Note_on_c, 0, 59, 25
3, 283520, Note_on_c, 0, 59, 0
3, 283520, Note_on_c, 0, 62, 25
3, 283680, Note_on_c, 0, 62, 0
3, 283680, Note_on_c, 0, 53, 39
3, 283840, Note_on_c, 0, 53, 0
3, 283840, Note_on_c, 0, 59, 25
3, 284000, Note_on_c, 0, 59, 0
3, 284000, Note_on_c, 0, 62, 25
3, 284160, Note_on_c, 0, 62, 0
3, 284160, Note_on_c, 0, 52, 48
3, 284320, Note_on_c, 0, 52, 0
3, 284320, Note_on_c, 0, 55, 26
3, 284480, Note_on_c, 0, 55, 0
3, 284480, Note_on_c, 0, 60, 26
3, 284640, Note_on_c, 0, 60, 0
3, 284640, Note_on_c, 0, 52, 38
3, 284800, Note_on_c, 0, 52, 0
3, 284800, Note_on_c, 0, 55, 20
3, 284960, Note_on_c, 0, 55, 0
3, 284960, Note_on_c, 0, 60, 20
3, 285120, Note_on_c, 0, 60, 0
3, 285120, Note_on_c, 0, 52, 29
3, 285280, Note_on_c, 0, 52, 0
3, 285280, Note_on_c, 0, 55, 21
3, 285440, Note_on_c, 0, 55, 0
3, 285440, Note_on_c, 0, 58, 20
3, 285600, Note_on_c, 0, 58, 0
3, 285600, Note_on_c, 0, 52, 29
3, 285760, Note_on_c, 0, 52, 0
3, 285760, Note_on_c, 0, 55, 21
3, 285920, Note_on_c, 0, 55, 0
3, 285920, Note_on_c, 0, 58, 21
3, 286080, Note_on_c, 0, 58, 0
3, 286080, Note_on_c, 0, 50, 29
3, 286240, Note_on_c, 0, 50, 0
3, 286240, Note_on_c, 0, 55, 20
3, 286400, Note_on_c, 0, 55, 0
3, 286400, Note_on_c, 0, 59, 20
3, 286560, Note_on_c, 0, 59, 0
3, 286560, Note_on_c, 0, 50, 29
3, 286720, Note_on_c, 0, 50, 0
3, 286720, Note_on_c, 0, 55, 20
3, 286880, Note_on_c, 0, 55, 0
3, 286880, Note_on_c, 0, 59, 20
3, 287040, Note_on_c, 0, 59, 0
3, 287040, Note_on_c, 0, 50, 31
3, 287200, Note_on_c, 0, 50, 0
3, 287200, Note_on_c, 0, 57, 21
3, 287360, Note_on_c, 0, 57, 0
3, 287360, Note_on_c, 0, 60, 20
3, 287520, Note_on_c, 0, 60, 0
3, 287520, Note_on_c, 0, 50, 33
3, 287680, Note_on_c, 0, 50, 0
3, 287680, Note_on_c, 0, 57, 24
3, 287840, Note_on_c, 0, 57, 0
3, 287840, Note_on_c, 0, 60, 24
3, 288000, Note_on_c, 0, 60, 0
3, 288000, Note_on_c, 0, 59, 33
3, 288000, Note_on_c, 0, 55, 28
3, 288240, Note_on_c, 0, 55, 0
3, 288240, Note_on_c, 0, 59, 0
3, 289920, Note_on_c, 0, 55, 28
3, 289920, Note_on_c, 0, 60, 33
3, 290040, Note_on_c, 0, 60, 0
3, 290040, Note_on_c, 0, 55, 0
3, 290400, Note_on_c, 0, 60, 29
3, 290400, Note_on_c, 0, 55, 24
3, 290520, Note_on_c, 0, 55, 0
3, 290520, Note_on_c, 0, 60, 0
3, 290880, Note_on_c, 0, 57, 30
3, 290880, Note_on_c, 0, 55, 25
3, 291000, Note_on_c, 0, 55, 0
3, 291000, Note_on_c, 0, 57, 0
3, 291360, Note_on_c, 0, 57, 30
3, 291360, Note_on_c, 0, 55, 25
3, 291480, Note_on_c, 0, 55, 0
3, 291480, Note_on_c, 0, 57, 0
3, 291840, Note_on_c, 0, 59, 33
3, 291840, Note_on_c, 0, 55, 28
3, 292080, Note_on_c, 0, 55, 0
3, 292080, Note_on_c, 0, 59, 0
3, 293760, Note_on_c, 0, 55, 28
3, 293760, Note_on_c, 0, 60, 33
3, 293880, Note_on_c, 0, 60, 0
3, 293880, Note_on_c, 0, 55, 0
3, 294240, Note_on_c, 0, 60, 29
3, 294240, Note_on_c, 0, 55, 24
3, 294360, Note_on_c, 0, 55, 0
3, 294360, Note_on_c, 0, 60, 0
3, 294720, Note_on_c, 0, 57, 30
3, 294720, Note_on_c, 0, 55, 25
3, 294840, Note_on_c, 0, 55, 0
3, 294840, Note_on_c, 0, 57, 0
3, 295200, Note_on_c, 0, 57, 30
3, 295200, Note_on_c, 0, 55, 25
3, 295320, Note_on_c, 0, 55, 0
3, 295320, Note_on_c, 0, 57, 0
3, 295680, Note_on_c, 0, 55, 28
3, 295680, Note_on_c, 0, 59, 33
3, 295920, Note_on_c, 0, 59, 0
3, 295920, Note_on_c, 0, 55, 0
3, 296640, Note_on_c, 0, 35, 32
3, 296640, Note_on_c, 0, 47, 36
3, 296880, Note_on_c, 0, 47, 0
3, 296880, Note_on_c, 0, 35, 0
3, 297120, Note_on_c, 0, 35, 33
3, 297120, Note_on_c, 0, 47, 38
3, 297360, Note_on_c, 0, 47, 0
3, 297360, Note_on_c, 0, 35, 0
3, 297600, Note_on_c, 0, 36, 36
3, 297600, Note_on_c, 0, 48, 41
3, 297840, Note_on_c, 0, 48, 0
3, 297840, Note_on_c, 0, 36, 0
3, 298080, Note_on_c, 0, 36, 38
3, 298080, Note_on_c, 0, 48, 44
3, 298320, Note_on_c, 0, 48, 0
3, 298320, Note_on_c, 0, 36, 0
3, 298560, Note_on_c, 0, 37, 40
3, 298560, Note_on_c, 0, 49, 46
3, 298800, Note_on_c, 0, 49, 0
3, 298800, Note_on_c, 0, 37, 0
3, 299040, Note_on_c, 0, 37, 43
3, 299040, Note_on_c, 0, 49, 49
3, 299280, Note_on_c, 0, 49, 0
3, 299280, Note_on_c, 0, 37, 0
3, 299520, Note_on_c, 0, 38, 55
3, 299520, Note_on_c, 0, 50, 68
3, 301440, Note_on_c, 0, 50, 0
3, 301440, Note_on_c, 0, 38, 0
3, 301440, Note_on_c, 0, 50, 50
3, 301600, Note_on_c, 0, 50, 0
3, 301600, Note_on_c, 0, 54, 45
3, 301760, Note_on_c, 0, 54, 0
3, 301760, Note_on_c, 0, 60, 45
3, 301920, Note_on_c, 0, 60, 0
3, 301920, Note_on_c, 0, 50, 51
3, 302080, Note_on_c, 0, 50, 0
3, 302080, Note_on_c, 0, 54, 46
3, 302240, Note_on_c, 0, 54, 0
3, 302240, Note_on_c, 0, 60, 47
3, 302400, Note_on_c, 0, 60, 0
3, 302400, Note_on_c, 0, 50, 52
3, 302560, Note_on_c, 0, 50, 0
3, 302560, Note_on_c, 0, 54, 48
3, 302720, Note_on_c, 0, 54, 0
3, 302720, Note_on_c, 0, 60, 49
3, 302880, Note_on_c, 0, 60, 0
3, 302880, Note_on_c, 0, 50, 54
3, 303040, Note_on_c, 0, 50, 0
3, 303040, Note_on_c, 0, 54, 49
3, 303200, Note_on_c, 0, 54, 0
3, 303200, Note_on_c, 0, 60, 50
3, 303360, Note_on_c, 0, 60, 0
3, 303360, Note_on_c, 0, 59, 59
3, 303360, Note_on_c, 0, 55, 50
3, 303840, Note_on_c, 0, 55, 0
3, 303840, Note_on_c, 0, 59, 0
3, 304800, Note_on_c, 0, 67, 40
3, 305040, Note_on_c, 0, 67, 0
3, 305280, Note_on_c, 0, 64, 45
3, 305520, Note_on_c, 0, 64, 0
3, 305760, Note_on_c, 0, 64, 40
3, 306000, Note_on_c, 0, 64, 0
3, 306240, Note_on_c, 0, 69, 37
3, 306480, Note_on_c, 0, 69, 0
3, 306720, Note_on_c, 0, 69, 40
3, 306960, Note_on_c, 0, 69, 0
3, 307200, Note_on_c, 0, 62, 45
3, 308160, Note_on_c, 0, 62, 0
3, 308160, Note_on_c, 0, 67, 37
3, 308400, Note_on_c, 0, 67, 0
3, 308640, Note_on_c, 0, 67, 40
3, 308880, Note_on_c, 0, 67, 0
3, 309120, Note_on_c, 0, 60, 45
3, 309360, Note_on_c, 0, 60, 0
3, 309600, Note_on_c, 0, 60, 40
3, 309840, Note_on_c, 0, 60, 0
3, 310080, Note_on_c, 0, 62, 37
3, 310320, Note_on_c, 0, 62, 0
3, 310560, Note_on_c, 0, 62, 40
3, 310800, Note_on_c, 0, 62, 0
3, 311040, Note_on_c, 0, 59, 50
3, 311040, Note_on_c, 0, 55, 42
3, 311520, Note_on_c, 0, 55, 0
3, 311520, Note_on_c, 0, 59, 0
3, 312480, Note_on_c, 0, 55, 44
3, 312720, Note_on_c, 0, 55, 0
3, 312960, Note_on_c, 0, 52, 50
3, 313200, Note_on_c, 0, 52, 0
3, 313440, Note_on_c, 0, 52, 46
3, 313680, Note_on_c, 0, 52, 0
3, 313920, Note_on_c, 0, 57, 45
3, 314160, Note_on_c, 0, 57, 0
3, 314400, Note_on_c, 0, 57, 50
3, 314640, Note_on_c, 0, 57, 0
3, 314880, Note_on_c, 0, 50, 59
3, 315840, Note_on_c, 0, 50, 0
3, 315840, Note_on_c, 0, 55, 50
3, 316080, Note_on_c, 0, 55, 0
3, 316320, Note_on_c, 0, 55, 57
3, 316560, Note_on_c, 0, 55, 0
3, 316800, Note_on_c, 0, 60, 68
3, 316800, Note_on_c, 0, 48, 57
3, 317040, Note_on_c, 0, 48, 0
3, 317040, Note_on_c, 0, 60, 0
3, 317280, Note_on_c, 0, 60, 63
3, 317280, Note_on_c, 0, 48, 52
3, 317520, Note_on_c, 0, 48, 0
3, 317520, Note_on_c, 0, 60, 0
3, 317760, Note_on_c, 0, 62, 58
3, 317760, Note_on_c, 0, 50, 48
3, 318000, Note_on_c, 0, 50, 0
3, 318000, Note_on_c, 0, 62, 0
3, 318240, Note_on_c, 0, 62, 64
3, 318240, Note_on_c, 0, 50, 54
3, 318480, Note_on_c, 0, 50, 0
3, 318480, Note_on_c, 0, 62, 0
3, 318720, Note_on_c, 0, 55, 56
3, 318880, Note_on_c, 0, 55, 0
3, 318880, Note_on_c, 0, 59, 48
3, 319040, Note_on_c, 0, 59, 0
3, 319040, Note_on_c, 0, 62, 47
3, 319200, Note_on_c, 0, 62, 0
3, 319200, Note_on_c, 0, 55, 56
3, 319360, Note_on_c, 0, 55, 0
3, 319360, Note_on_c, 0, 59, 48
3, 319520, Note_on_c, 0, 59, 0
3, 319520, Note_on_c, 0, 62, 48
3, 319680, Note_on_c, 0, 62, 0
3, 319680, Note_on_c, 0, 55, 56
3, 319840, Note_on_c, 0, 55, 0
3, 319840, Note_on_c, 0, 59, 49
3, 320000, Note_on_c, 0, 59, 0
3, 320000, Note_on_c, 0, 62, 49
3, 320160, Note_on_c, 0, 62, 0
3, 320160, Note_on_c, 0, 54, 56
3, 320320, Note_on_c, 0, 54, 0
3, 320320, Note_on_c, 0, 57, 48
3, 320480, Note_on_c, 0, 57, 0
3, 320480, Note_on_c, 0, 62, 49
3, 320640, Note_on_c, 0, 62, 0
3, 320640, Note_on_c, 0, 55, 56
3, 320800, Note_on_c, 0, 55, 0
3, 320800, Note_on_c, 0, 59, 49
3, 320960, Note_on_c, 0, 59, 0
3, 320960, Note_on_c, 0, 62, 49
3, 321120, Note_on_c, 0, 62, 0
3, 321120, Note_on_c, 0, 55, 56
3, 321280, Note_on_c, 0, 55, 0
3, 321280, Note_on_c, 0, 59, 49
3, 321440, Note_on_c, 0, 59, 0
3, 321440, Note_on_c, 0, 62, 49
3, 321600, Note_on_c, 0, 62, 0
3, 321600, Note_on_c, 0, 55, 56
3, 321760, Note_on_c, 0, 55, 0
3, 321760, Note_on_c, 0, 59, 50
3, 321920, Note_on_c, 0, 59, 0
3, 321920, Note_on_c, 0, 62, 50
3, 322080, Note_on_c, 0, 62, 0
3, 322080, Note_on_c, 0, 54, 56
3, 322240, Note_on_c, 0, 54, 0
3, 322240, Note_on_c, 0, 57, 49
3, 322400, Note_on_c, 0, 57, 0
3, 322400, Note_on_c, 0, 62, 49
3, 322560, Note_on_c, 0, 62, 0
3, 322560, Note_on_c, 0, 55, 56
3, 322720, Note_on_c, 0, 55, 0
3, 322720, Note_on_c, 0, 59, 50
3, 322880, Note_on_c, 0, 59, 0
3, 322880, Note_on_c, 0, 62, 50
3, 323040, Note_on_c, 0, 62, 0
3, 323040, Note_on_c, 0, 55, 56
3, 323200, Note_on_c, 0, 55, 0
3, 323200, Note_on_c, 0, 59, 49
3, 323360, Note_on_c, 0, 59, 0
3, 323360, Note_on_c, 0, 62, 49
3, 323520, Note_on_c, 0, 62, 0
3, 323520, Note_on_c, 0, 55, 56
3, 324000, Note_on_c, 0, 55, 0
3, 324000, End_track
4, 0, Start_track
4, 0, Title_t, "Pedale"
4, 0, Program_c, 0, 0
4, 13454, Control_c, 0, 64, 0
4, 15424, Control_c, 0, 64, 127
4, 16684, Control_c, 0, 64, 0
4, 44241, Control_c, 0, 64, 127
4, 46080, Control_c, 0, 64, 0
4, 55680, Control_c, 0, 64, 0
4, 61514, Control_c, 0, 64, 127
4, 62888, Control_c, 0, 64, 0
4, 63399, Control_c, 0, 64, 127
4, 64810, Control_c, 0, 64, 0
4, 65323, Control_c, 0, 64, 127
4, 66259, Control_c, 0, 64, 0
4, 80704, Control_c, 0, 64, 127
4, 81964, Control_c, 0, 64, 0
4, 109521, Control_c, 0, 64, 127
4, 111360, Control_c, 0, 64, 0
4, 120960, Control_c, 0, 64, 0
4, 126794, Control_c, 0, 64, 127
4, 128168, Control_c, 0, 64, 0
4, 128679, Control_c, 0, 64, 127
4, 130090, Control_c, 0, 64, 0
4, 130603, Control_c, 0, 64, 127
4, 131539, Control_c, 0, 64, 0
4, 149863, Control_c, 0, 64, 127
4, 151205, Control_c, 0, 64, 0
4, 153703, Control_c, 0, 64, 127
4, 155538, Control_c, 0, 64, 0
4, 155623, Control_c, 0, 64, 127
4, 157520, Control_c, 0, 64, 0
4, 159915, Control_c, 0, 64, 127
4, 162427, Control_c, 0, 64, 0
4, 176704, Control_c, 0, 64, 127
4, 177964, Control_c, 0, 64, 0
4, 205521, Control_c, 0, 64, 127
4, 207360, Control_c, 0, 64, 0
4, 222794, Control_c, 0, 64, 127
4, 224168, Control_c, 0, 64, 0
4, 224679, Control_c, 0, 64, 127
4, 226090, Control_c, 0, 64, 0
4, 226603, Control_c, 0, 64, 127
4, 227767, Control_c, 0, 64, 0
4, 245863, Control_c, 0, 64, 127
4, 247205, Control_c, 0, 64, 0
4, 249703, Control_c, 0, 64, 127
4, 251538, Control_c, 0, 64, 0
4, 251623, Control_c, 0, 64, 127
4, 253520, Control_c, 0, 64, 0
4, 255915, Control_c, 0, 64, 127
4, 258427, Control_c, 0, 64, 0
4, 272704, Control_c, 0, 64, 127
4, 273964, Control_c, 0, 64, 0
4, 301521, Control_c, 0, 64, 127
4, 303360, Control_c, 0, 64, 0
4, 318794, Control_c, 0, 64, 127
4, 320168, Control_c, 0, 64, 0
4, 320679, Control_c, 0, 64, 127
4, 322090, Control_c, 0, 64, 0
4, 322603, Control_c, 0, 64, 127
4, 323767, Control_c, 0, 64, 0
4, 323767, End_track
5, 0, Start_track
5, 0, Title_t, "Clementi: Sonatatina Opus 26, No. 5, 1. movement"
5, 0, End_track
6, 0, Start_track
6, 0, Title_t, "Copyright © 2010 by Bernd Krueger"
6, 0, End_track
7, 0, Start_track
7, 0, Title_t, "http://www.piano-midi.de/"
7, 0, End_track
8, 0, Start_track
8, 0, Title_t, "Edition: 2010-12-28"
8, 0, End_track
9, 0, Start_track
9, 0, Title_t, "Spur 8"
9, 0, End_track
10, 0, Start_track
10, 0, Title_t, "Spur 9"
10, 0, End_track
11, 0, Start_track
11, 0, Title_t, "Spur 10"
11, 0, End_track
12, 0, Start_track
12, 0, Title_t, "Spur 11"
12, 0, End_track
13, 0, Start_track
13, 0, Title_t, "Spur 12"
13, 0, End_track
14, 0, Start_track
14, 0, Title_t, "Spur 13"
14, 0, End_track
15, 0, Start_track
15, 0, Title_t, "Spur 14"
15, 0, End_track
16, 0, Start_track
16, 0, Title_t, "Spur 15"
16, 0, End_track
17, 0, Start_track
17, 0, Title_t, "Spur 16"
17, 0, End_track
0, 0, End_of_file
