0, 0, Header, 1, 17, 480
1, 0, Start_track
1, 0, Title_t, "Debussy: Childrens Corner 4"
1, 0, Title_t, "The snow is dancing"
1, 0, Copyright_t, "Copyright © 2011 by Bernd Krueger"
1, 0, Text_t, "Bernd Krueger"
1, 0, Text_t, "Erstellt:  25.6.2011\012"
1, 0, Text_t, "Dauer: 2:23 Minuten\012"
1, 0, Time_signature, 4, 2, 24, 8
1, 0, Key_signature, -1, "major"
1, 0, Tempo, 498504
1, 2160, Tempo, 487527
1, 2880, Tempo, 498504
1, 3120, Tempo, 485751
1, 3600, Tempo, 530316
1, 3840, Tempo, 498504
1, 4080, Tempo, 485751
1, 4800, Tempo, 498504
1, 5040, Tempo, 482199
1, 5760, Tempo, 492935
1, 6120, Tempo, 485751
1, 6720, Tempo, 489317
1, 6960, Tempo, 485751
1, 7680, Tempo, 487329
1, 7920, Tempo, 485751
1, 8040, Tempo, 487527
1, 8640, Tempo, 479540
1, 8880, Tempo, 483949
1, 9600, Tempo, 487329
1, 9840, Tempo, 485751
1, 10560, Tempo, 489317
1, 10800, Tempo, 483949
1, 11280, Tempo, 517911
1, 11520, Tempo, 489317
1, 11760, Tempo, 483949
1, 12000, Tempo, 473859
1, 12240, Tempo, 483403
1, 12480, Tempo, 485751
1, 12960, Tempo, 480461
1, 13200, Tempo, 487329
1, 13440, Tempo, 482199
1, 13920, Tempo, 478736
1, 14160, Tempo, 477023
1, 14400, Tempo, 480461
1, 15120, Tempo, 494764
1, 15360, Tempo, 480461
1, 16320, Tempo, 477631
1, 16680, Tempo, 470146
1, 17040, Tempo, 483949
1, 17280, Tempo, 478736
1, 18240, Tempo, 489317
1, 18720, Tempo, 500375
1, 18960, Tempo, 537538
1, 19200, Tempo, 485751
1, 19440, Tempo, 473634
1, 19920, Tempo, 485751
1, 20160, Tempo, 475323
1, 21120, Tempo, 485751
1, 21360, Tempo, 473634
1, 21840, Tempo, 485751
1, 22080, Tempo, 475323
1, 23040, Tempo, 485751
1, 23280, Tempo, 473634
1, 23760, Tempo, 485751
1, 24000, Tempo, 475323
1, 24960, Tempo, 485751
1, 25200, Tempo, 473634
1, 25680, Tempo, 494764
1, 25800, Tempo, 594413
1, 25920, Tempo, 492935
1, 25947, Tempo, 475323
1, 26043, Tempo, 477023
1, 26139, Tempo, 478736
1, 26235, Tempo, 480461
1, 26331, Tempo, 482199
1, 26403, Tempo, 483949
1, 26499, Tempo, 485751
1, 26640, Tempo, 506073
1, 26760, Tempo, 591716
1, 26880, Tempo, 485751
1, 27120, Tempo, 473634
1, 27600, Tempo, 494764
1, 27720, Tempo, 594413
1, 27840, Tempo, 492935
1, 27867, Tempo, 475323
1, 27963, Tempo, 477023
1, 28059, Tempo, 478736
1, 28155, Tempo, 480461
1, 28251, Tempo, 482199
1, 28323, Tempo, 483949
1, 28419, Tempo, 485751
1, 28560, Tempo, 508044
1, 28680, Tempo, 589102
1, 28800, Tempo, 485751
1, 29040, Tempo, 473634
1, 29520, Tempo, 485751
1, 29760, Tempo, 475323
1, 30000, Tempo, 467435
1, 30720, Tempo, 485751
1, 30960, Tempo, 473634
1, 31440, Tempo, 494764
1, 31560, Tempo, 594413
1, 31680, Tempo, 492935
1, 31707, Tempo, 475323
1, 31803, Tempo, 477023
1, 31899, Tempo, 478736
1, 31995, Tempo, 480461
1, 32091, Tempo, 482199
1, 32163, Tempo, 483949
1, 32259, Tempo, 485751
1, 32640, Tempo, 485751
1, 32880, Tempo, 473634
1, 33600, Tempo, 492935
1, 33627, Tempo, 475323
1, 33723, Tempo, 477023
1, 33819, Tempo, 478736
1, 33915, Tempo, 480461
1, 34011, Tempo, 482199
1, 34083, Tempo, 483949
1, 34179, Tempo, 485751
1, 34320, Tempo, 508044
1, 34440, Tempo, 589102
1, 34560, Tempo, 485751
1, 34800, Tempo, 473634
1, 35280, Tempo, 494764
1, 35400, Tempo, 594413
1, 35520, Tempo, 492935
1, 35547, Tempo, 475323
1, 35643, Tempo, 477023
1, 35739, Tempo, 478736
1, 35835, Tempo, 480461
1, 35931, Tempo, 482199
1, 36003, Tempo, 483949
1, 36099, Tempo, 485751
1, 36240, Tempo, 506073
1, 36360, Tempo, 591716
1, 36480, Tempo, 485751
1, 36720, Tempo, 473634
1, 37200, Tempo, 494764
1, 37320, Tempo, 594413
1, 37440, Tempo, 492935
1, 37467, Tempo, 475323
1, 37563, Tempo, 477023
1, 37659, Tempo, 478736
1, 37755, Tempo, 480461
1, 37851, Tempo, 482199
1, 37923, Tempo, 483949
1, 38019, Tempo, 485751
1, 38160, Tempo, 508044
1, 38280, Tempo, 652813
1, 38400, Tempo, 485751
1, 38640, Tempo, 473634
1, 39120, Tempo, 494764
1, 39240, Tempo, 594413
1, 39360, Tempo, 492935
1, 39387, Tempo, 475323
1, 39483, Tempo, 477023
1, 39579, Tempo, 478736
1, 39675, Tempo, 480461
1, 39771, Tempo, 482199
1, 39843, Tempo, 483949
1, 39939, Tempo, 485751
1, 40080, Tempo, 508044
1, 40200, Tempo, 634115
1, 40320, Tempo, 485751
1, 40560, Tempo, 473634
1, 41040, Tempo, 485751
1, 41280, Tempo, 475323
1, 42240, Tempo, 485751
1, 42480, Tempo, 473634
1, 42960, Tempo, 485751
1, 43200, Tempo, 475323
1, 43560, Tempo, 549853
1, 43680, Tempo, 473859
1, 44160, Tempo, 485751
1, 44400, Tempo, 473634
1, 44880, Tempo, 485751
1, 45120, Tempo, 475323
1, 45960, Tempo, 547345
1, 46080, Tempo, 485751
1, 46320, Tempo, 473634
1, 46800, Tempo, 485751
1, 47040, Tempo, 475323
1, 48000, Tempo, 485751
1, 48240, Tempo, 473634
1, 48720, Tempo, 485751
1, 48960, Tempo, 475323
1, 49920, Tempo, 485751
1, 50160, Tempo, 473634
1, 50640, Tempo, 485751
1, 50880, Tempo, 475323
1, 51840, Tempo, 485751
1, 52080, Tempo, 473634
1, 52560, Tempo, 485751
1, 52800, Tempo, 475323
1, 53760, Tempo, 485751
1, 54000, Tempo, 473634
1, 54480, Tempo, 485751
1, 54720, Tempo, 475323
1, 55680, Tempo, 498504
1, 55920, Tempo, 485751
1, 56640, Tempo, 498504
1, 56880, Tempo, 482199
1, 57600, Tempo, 498504
1, 57840, Tempo, 485751
1, 58560, Tempo, 498504
1, 58800, Tempo, 482199
1, 59520, Tempo, 496648
1, 59760, Tempo, 482199
1, 61200, Tempo, 496648
1, 61320, Tempo, 498504
1, 61440, Tempo, 496648
1, 61680, Tempo, 482199
1, 63120, Tempo, 496648
1, 63240, Tempo, 498504
1, 63360, Tempo, 496648
1, 65040, Tempo, 519931
1, 65280, Tempo, 496648
1, 66960, Tempo, 519931
1, 67200, Tempo, 496648
1, 67920, Tempo, 541126
1, 68160, Tempo, 504159
1, 68880, Tempo, 519931
1, 69120, Tempo, 496648
1, 69840, Tempo, 541126
1, 70080, Tempo, 504159
1, 70800, Tempo, 519931
1, 70920, Tempo, 704887
1, 71040, Tempo, 513919
1, 71520, Tempo, 515907
1, 72900, Tempo, 619323
1, 72960, Tempo, 513919
1, 73440, Tempo, 515907
1, 74880, Tempo, 513919
1, 75120, Tempo, 496648
1, 75360, Tempo, 511945
1, 75600, Tempo, 496648
1, 75840, Tempo, 509987
1, 76320, Tempo, 504159
1, 76800, Tempo, 515907
1, 77520, Tempo, 506073
1, 78720, Tempo, 513919
1, 78960, Tempo, 496648
1, 79200, Tempo, 511945
1, 79440, Tempo, 496648
1, 79680, Tempo, 509987
1, 80160, Tempo, 504159
1, 80640, Tempo, 515907
1, 81360, Tempo, 506073
1, 82560, Tempo, 496648
1, 84240, Tempo, 519931
1, 84480, Tempo, 496648
1, 86160, Tempo, 519931
1, 86400, Tempo, 496648
1, 87120, Tempo, 541126
1, 87360, Tempo, 504159
1, 88080, Tempo, 519931
1, 88320, Tempo, 504159
1, 89040, Tempo, 541126
1, 89280, Tempo, 513919
1, 90000, Tempo, 543331
1, 90120, Tempo, 581395
1, 90240, Time_signature, 2, 2, 24, 8
1, 90240, Tempo, 526131
1, 90840, Tempo, 564122
1, 91080, Tempo, 619323
1, 91200, Time_signature, 4, 2, 24, 8
1, 91200, Tempo, 488918
1, 92040, Tempo, 556741
1, 92160, Tempo, 486973
1, 93000, Tempo, 551775
1, 93120, Tempo, 488918
1, 93960, Tempo, 502765
1, 94080, Tempo, 486973
1, 94920, Tempo, 551775
1, 95040, Tempo, 488918
1, 95880, Tempo, 556741
1, 96000, Tempo, 486973
1, 96840, Tempo, 551775
1, 96960, Time_signature, 2, 2, 24, 8
1, 96960, Tempo, 488918
1, 97800, Tempo, 502765
1, 97920, Time_signature, 4, 2, 24, 8
1, 97920, Tempo, 486973
1, 98400, Tempo, 486973
1, 98640, Tempo, 475851
1, 98760, Tempo, 532860
1, 98880, Tempo, 485084
1, 99600, Tempo, 472218
1, 99720, Tempo, 526131
1, 99840, Tempo, 486973
1, 100320, Tempo, 486973
1, 100560, Tempo, 475851
1, 100680, Tempo, 532860
1, 100800, Tempo, 485084
1, 101520, Tempo, 472218
1, 101640, Tempo, 526131
1, 101760, Tempo, 486973
1, 102240, Tempo, 486973
1, 102480, Tempo, 475851
1, 102600, Tempo, 532860
1, 102720, Tempo, 485084
1, 103440, Tempo, 472218
1, 103560, Tempo, 526131
1, 103680, Tempo, 490838
1, 103800, Tempo, 481348
1, 105480, Tempo, 526131
1, 105600, Tempo, 458295
1, 105840, Tempo, 483949
1, 106080, Tempo, 475323
1, 106320, Tempo, 478736
1, 106560, Tempo, 485751
1, 107040, Tempo, 480461
1, 107280, Tempo, 498504
1, 107520, Tempo, 482199
1, 108000, Tempo, 478736
1, 108240, Tempo, 477023
1, 108480, Tempo, 480461
1, 109200, Tempo, 494764
1, 109440, Tempo, 480461
1, 110400, Tempo, 470146
1, 110520, Tempo, 473859
1, 110640, Tempo, 466490
1, 111120, Tempo, 483949
1, 111360, Tempo, 478736
1, 112320, Tempo, 489317
1, 112800, Tempo, 500375
1, 113040, Tempo, 522011
1, 113280, Tempo, 485751
1, 113520, Tempo, 473634
1, 114000, Tempo, 485751
1, 114240, Tempo, 475323
1, 115200, Tempo, 485751
1, 115440, Tempo, 473634
1, 115920, Tempo, 485751
1, 116160, Tempo, 475323
1, 117120, Tempo, 485751
1, 117360, Tempo, 473634
1, 117840, Tempo, 485751
1, 118080, Tempo, 475323
1, 119040, Tempo, 485751
1, 119280, Tempo, 473634
1, 119760, Tempo, 494764
1, 119880, Tempo, 594413
1, 120000, Tempo, 492935
1, 120027, Tempo, 475323
1, 120123, Tempo, 477023
1, 120219, Tempo, 478736
1, 120315, Tempo, 480461
1, 120411, Tempo, 482199
1, 120483, Tempo, 483949
1, 120579, Tempo, 485751
1, 120720, Tempo, 506073
1, 120840, Tempo, 591716
1, 120960, Tempo, 485751
1, 121200, Tempo, 473634
1, 121680, Tempo, 494764
1, 121800, Tempo, 594413
1, 121920, Tempo, 492935
1, 121947, Tempo, 475323
1, 122043, Tempo, 477023
1, 122139, Tempo, 478736
1, 122235, Tempo, 480461
1, 122331, Tempo, 482199
1, 122403, Tempo, 483949
1, 122499, Tempo, 485751
1, 122640, Tempo, 508044
1, 122760, Tempo, 589102
1, 122880, Tempo, 485751
1, 123120, Tempo, 473634
1, 123600, Tempo, 485751
1, 123840, Tempo, 477023
1, 124320, Tempo, 487527
1, 124800, Tempo, 473634
1, 124801, Tempo, 478736
1, 125041, Tempo, 477023
1, 125281, Tempo, 475323
1, 125521, Tempo, 473634
1, 125761, Tempo, 471921
1, 126960, Tempo, 478965
1, 127200, Tempo, 494764
1, 127560, Tempo, 492732
1, 127680, Tempo, 490717
1, 128160, Tempo, 484770
1, 128640, Tempo, 500960
1, 129360, Tempo, 492732
1, 129840, Tempo, 500960
1, 130080, Tempo, 518269
1, 130440, Tempo, 659268
1, 130560, Tempo, 498504
1, 130680, Tempo, 488719
1, 130800, Tempo, 502260
1, 130920, Tempo, 488719
1, 131040, Tempo, 496648
1, 131160, Tempo, 487527
1, 131280, Tempo, 494764
1, 131400, Tempo, 480885
1, 131520, Tempo, 500375
1, 131640, Tempo, 480885
1, 131760, Tempo, 496648
1, 131880, Tempo, 483949
1, 132000, Tempo, 492732
1, 132120, Tempo, 480885
1, 132240, Tempo, 486736
1, 132360, Tempo, 491119
1, 132480, Tempo, 492935
1, 132600, Tempo, 478736
1, 132720, Tempo, 491119
1, 132840, Tempo, 482199
1, 132960, Tempo, 494764
1, 133080, Tempo, 478736
1, 133200, Tempo, 477023
1, 133320, Tempo, 491119
1, 133440, Tempo, 494764
1, 133560, Tempo, 480461
1, 133680, Tempo, 489317
1, 133800, Tempo, 480461
1, 133920, Tempo, 489317
1, 134040, Tempo, 480461
1, 134160, Tempo, 492935
1, 134400, Tempo, 480461
1, 134520, Tempo, 478736
1, 134640, Tempo, 489317
1, 134760, Tempo, 489317
1, 134880, Tempo, 478736
1, 135000, Tempo, 471921
1, 135120, Tempo, 491119
1, 135240, Tempo, 471921
1, 135360, Tempo, 491119
1, 135480, Tempo, 478736
1, 135600, Tempo, 487527
1, 135720, Tempo, 477023
1, 135840, Tempo, 496648
1, 135960, Tempo, 487527
1, 136080, Tempo, 489317
1, 136200, Tempo, 492935
1, 136320, Tempo, 482199
1, 136440, Tempo, 483949
1, 136560, Tempo, 494764
1, 136680, Tempo, 482199
1, 136800, Tempo, 489317
1, 136920, Tempo, 480461
1, 137040, Tempo, 489317
1, 137160, Tempo, 478736
1, 137280, Tempo, 491119
1, 137400, Tempo, 482199
1, 137520, Tempo, 496648
1, 137640, Tempo, 492935
1, 137760, Tempo, 485751
1, 137880, Tempo, 500375
1, 138000, Tempo, 485751
1, 138120, Tempo, 545554
1, 138240, Tempo, 489317
1, 140160, Tempo, 489317
1, 140160, End_track
2, 0, Start_track
2, 0, Title_t, "Piano right"
2, 0, Program_c, 0, 0
2, 0, Note_on_c, 0, 76, 32
2, 120, Note_on_c, 0, 76, 0
2, 240, Note_on_c, 0, 77, 26
2, 360, Note_on_c, 0, 77, 0
2, 480, Note_on_c, 0, 79, 26
2, 600, Note_on_c, 0, 79, 0
2, 720, Note_on_c, 0, 81, 26
2, 840, Note_on_c, 0, 81, 0
2, 960, Note_on_c, 0, 76, 32
2, 1080, Note_on_c, 0, 76, 0
2, 1200, Note_on_c, 0, 77, 28
2, 1320, Note_on_c, 0, 77, 0
2, 1440, Note_on_c, 0, 79, 28
2, 1560, Note_on_c, 0, 79, 0
2, 1680, Note_on_c, 0, 81, 28
2, 1800, Note_on_c, 0, 81, 0
2, 2040, Note_on_c, 0, 76, 36
2, 2130, Note_on_c, 0, 76, 0
2, 2280, Note_on_c, 0, 77, 30
2, 2370, Note_on_c, 0, 77, 0
2, 2520, Note_on_c, 0, 79, 30
2, 2610, Note_on_c, 0, 79, 0
2, 2760, Note_on_c, 0, 81, 30
2, 2850, Note_on_c, 0, 81, 0
2, 3000, Note_on_c, 0, 76, 36
2, 3090, Note_on_c, 0, 76, 0
2, 3240, Note_on_c, 0, 77, 29
2, 3330, Note_on_c, 0, 77, 0
2, 3480, Note_on_c, 0, 79, 29
2, 3570, Note_on_c, 0, 79, 0
2, 3720, Note_on_c, 0, 81, 29
2, 3810, Note_on_c, 0, 81, 0
2, 3960, Note_on_c, 0, 76, 40
2, 4050, Note_on_c, 0, 76, 0
2, 4200, Note_on_c, 0, 77, 34
2, 4290, Note_on_c, 0, 77, 0
2, 4440, Note_on_c, 0, 79, 34
2, 4530, Note_on_c, 0, 79, 0
2, 4680, Note_on_c, 0, 81, 34
2, 4770, Note_on_c, 0, 81, 0
2, 4920, Note_on_c, 0, 76, 40
2, 5010, Note_on_c, 0, 76, 0
2, 5160, Note_on_c, 0, 77, 33
2, 5250, Note_on_c, 0, 77, 0
2, 5400, Note_on_c, 0, 79, 33
2, 5490, Note_on_c, 0, 79, 0
2, 5640, Note_on_c, 0, 81, 33
2, 5730, Note_on_c, 0, 81, 0
2, 5880, Note_on_c, 0, 76, 40
2, 5970, Note_on_c, 0, 76, 0
2, 6120, Note_on_c, 0, 77, 34
2, 6210, Note_on_c, 0, 77, 0
2, 6360, Note_on_c, 0, 79, 34
2, 6450, Note_on_c, 0, 79, 0
2, 6600, Note_on_c, 0, 81, 34
2, 6690, Note_on_c, 0, 81, 0
2, 6840, Note_on_c, 0, 76, 40
2, 6930, Note_on_c, 0, 76, 0
2, 7080, Note_on_c, 0, 77, 33
2, 7170, Note_on_c, 0, 77, 0
2, 7320, Note_on_c, 0, 79, 33
2, 7410, Note_on_c, 0, 79, 0
2, 7560, Note_on_c, 0, 81, 33
2, 7650, Note_on_c, 0, 81, 0
2, 7800, Note_on_c, 0, 76, 40
2, 7890, Note_on_c, 0, 76, 0
2, 8040, Note_on_c, 0, 77, 34
2, 8130, Note_on_c, 0, 77, 0
2, 8280, Note_on_c, 0, 79, 34
2, 8370, Note_on_c, 0, 79, 0
2, 8520, Note_on_c, 0, 81, 34
2, 8610, Note_on_c, 0, 81, 0
2, 8760, Note_on_c, 0, 76, 40
2, 8850, Note_on_c, 0, 76, 0
2, 9000, Note_on_c, 0, 77, 33
2, 9090, Note_on_c, 0, 77, 0
2, 9240, Note_on_c, 0, 79, 33
2, 9330, Note_on_c, 0, 79, 0
2, 9480, Note_on_c, 0, 81, 33
2, 9570, Note_on_c, 0, 81, 0
2, 9720, Note_on_c, 0, 76, 40
2, 9810, Note_on_c, 0, 76, 0
2, 9960, Note_on_c, 0, 77, 34
2, 10050, Note_on_c, 0, 77, 0
2, 10200, Note_on_c, 0, 79, 34
2, 10290, Note_on_c, 0, 79, 0
2, 10440, Note_on_c, 0, 81, 34
2, 10530, Note_on_c, 0, 81, 0
2, 10680, Note_on_c, 0, 76, 40
2, 10770, Note_on_c, 0, 76, 0
2, 10920, Note_on_c, 0, 77, 33
2, 11010, Note_on_c, 0, 77, 0
2, 11160, Note_on_c, 0, 79, 33
2, 11250, Note_on_c, 0, 79, 0
2, 11400, Note_on_c, 0, 81, 33
2, 11490, Note_on_c, 0, 81, 0
2, 11640, Note_on_c, 0, 76, 36
2, 11730, Note_on_c, 0, 76, 0
2, 11880, Note_on_c, 0, 77, 30
2, 11970, Note_on_c, 0, 77, 0
2, 12120, Note_on_c, 0, 79, 30
2, 12210, Note_on_c, 0, 79, 0
2, 12360, Note_on_c, 0, 81, 30
2, 12450, Note_on_c, 0, 81, 0
2, 12600, Note_on_c, 0, 74, 36
2, 12690, Note_on_c, 0, 74, 0
2, 12840, Note_on_c, 0, 76, 29
2, 12930, Note_on_c, 0, 76, 0
2, 13080, Note_on_c, 0, 77, 29
2, 13170, Note_on_c, 0, 77, 0
2, 13320, Note_on_c, 0, 79, 29
2, 13410, Note_on_c, 0, 79, 0
2, 13560, Note_on_c, 0, 76, 36
2, 13650, Note_on_c, 0, 76, 0
2, 13800, Note_on_c, 0, 77, 30
2, 13890, Note_on_c, 0, 77, 0
2, 14040, Note_on_c, 0, 79, 30
2, 14130, Note_on_c, 0, 79, 0
2, 14280, Note_on_c, 0, 81, 30
2, 14370, Note_on_c, 0, 81, 0
2, 14520, Note_on_c, 0, 74, 36
2, 14610, Note_on_c, 0, 74, 0
2, 14760, Note_on_c, 0, 76, 29
2, 14850, Note_on_c, 0, 76, 0
2, 15000, Note_on_c, 0, 77, 29
2, 15090, Note_on_c, 0, 77, 0
2, 15240, Note_on_c, 0, 79, 29
2, 15330, Note_on_c, 0, 79, 0
2, 15480, Note_on_c, 0, 76, 36
2, 15570, Note_on_c, 0, 76, 0
2, 15720, Note_on_c, 0, 77, 30
2, 15810, Note_on_c, 0, 77, 0
2, 15960, Note_on_c, 0, 74, 30
2, 16050, Note_on_c, 0, 74, 0
2, 16200, Note_on_c, 0, 76, 30
2, 16290, Note_on_c, 0, 76, 0
2, 16440, Note_on_c, 0, 72, 36
2, 16530, Note_on_c, 0, 72, 0
2, 16680, Note_on_c, 0, 74, 29
2, 16770, Note_on_c, 0, 74, 0
2, 16920, Note_on_c, 0, 70, 29
2, 17010, Note_on_c, 0, 70, 0
2, 17160, Note_on_c, 0, 72, 29
2, 17250, Note_on_c, 0, 72, 0
2, 17400, Note_on_c, 0, 76, 36
2, 17490, Note_on_c, 0, 76, 0
2, 17640, Note_on_c, 0, 77, 30
2, 17730, Note_on_c, 0, 77, 0
2, 17880, Note_on_c, 0, 74, 30
2, 17970, Note_on_c, 0, 74, 0
2, 18120, Note_on_c, 0, 76, 30
2, 18210, Note_on_c, 0, 76, 0
2, 18360, Note_on_c, 0, 72, 36
2, 18450, Note_on_c, 0, 72, 0
2, 18600, Note_on_c, 0, 74, 29
2, 18690, Note_on_c, 0, 74, 0
2, 18840, Note_on_c, 0, 76, 29
2, 18930, Note_on_c, 0, 76, 0
2, 19080, Note_on_c, 0, 77, 29
2, 19170, Note_on_c, 0, 77, 0
2, 19320, Note_on_c, 0, 77, 40
2, 19440, Note_on_c, 0, 77, 0
2, 19560, Note_on_c, 0, 76, 38
2, 19680, Note_on_c, 0, 76, 0
2, 19800, Note_on_c, 0, 77, 43
2, 19920, Note_on_c, 0, 77, 0
2, 20040, Note_on_c, 0, 76, 41
2, 20160, Note_on_c, 0, 76, 0
2, 20280, Note_on_c, 0, 77, 46
2, 20400, Note_on_c, 0, 77, 0
2, 20520, Note_on_c, 0, 76, 44
2, 20640, Note_on_c, 0, 76, 0
2, 20760, Note_on_c, 0, 77, 50
2, 20880, Note_on_c, 0, 77, 0
2, 21000, Note_on_c, 0, 76, 47
2, 21120, Note_on_c, 0, 76, 0
2, 21240, Note_on_c, 0, 77, 42
2, 21360, Note_on_c, 0, 77, 0
2, 21480, Note_on_c, 0, 76, 38
2, 21600, Note_on_c, 0, 76, 0
2, 21720, Note_on_c, 0, 77, 41
2, 21840, Note_on_c, 0, 77, 0
2, 21960, Note_on_c, 0, 76, 37
2, 22080, Note_on_c, 0, 76, 0
2, 22200, Note_on_c, 0, 77, 40
2, 22320, Note_on_c, 0, 77, 0
2, 22440, Note_on_c, 0, 76, 37
2, 22560, Note_on_c, 0, 76, 0
2, 22680, Note_on_c, 0, 77, 39
2, 22800, Note_on_c, 0, 77, 0
2, 22920, Note_on_c, 0, 76, 36
2, 23040, Note_on_c, 0, 76, 0
2, 23160, Note_on_c, 0, 77, 40
2, 23280, Note_on_c, 0, 77, 0
2, 23400, Note_on_c, 0, 76, 38
2, 23520, Note_on_c, 0, 76, 0
2, 23640, Note_on_c, 0, 77, 42
2, 23760, Note_on_c, 0, 77, 0
2, 23880, Note_on_c, 0, 76, 39
2, 24000, Note_on_c, 0, 76, 0
2, 24120, Note_on_c, 0, 77, 43
2, 24240, Note_on_c, 0, 77, 0
2, 24360, Note_on_c, 0, 76, 40
2, 24480, Note_on_c, 0, 76, 0
2, 24600, Note_on_c, 0, 77, 45
2, 24720, Note_on_c, 0, 77, 0
2, 24840, Note_on_c, 0, 76, 42
2, 24960, Note_on_c, 0, 76, 0
2, 25080, Note_on_c, 0, 75, 42
2, 25200, Note_on_c, 0, 75, 0
2, 25320, Note_on_c, 0, 77, 38
2, 25440, Note_on_c, 0, 77, 0
2, 25560, Note_on_c, 0, 75, 41
2, 25680, Note_on_c, 0, 75, 0
2, 25800, Note_on_c, 0, 77, 37
2, 25920, Note_on_c, 0, 77, 0
2, 26040, Note_on_c, 0, 71, 39
2, 26160, Note_on_c, 0, 71, 0
2, 26280, Note_on_c, 0, 73, 35
2, 26400, Note_on_c, 0, 73, 0
2, 26520, Note_on_c, 0, 71, 38
2, 26640, Note_on_c, 0, 71, 0
2, 26760, Note_on_c, 0, 73, 34
2, 26880, Note_on_c, 0, 73, 0
2, 27000, Note_on_c, 0, 75, 42
2, 27120, Note_on_c, 0, 75, 0
2, 27240, Note_on_c, 0, 77, 38
2, 27360, Note_on_c, 0, 77, 0
2, 27480, Note_on_c, 0, 75, 41
2, 27600, Note_on_c, 0, 75, 0
2, 27720, Note_on_c, 0, 77, 37
2, 27840, Note_on_c, 0, 77, 0
2, 27960, Note_on_c, 0, 71, 39
2, 28080, Note_on_c, 0, 71, 0
2, 28200, Note_on_c, 0, 73, 35
2, 28320, Note_on_c, 0, 73, 0
2, 28440, Note_on_c, 0, 71, 38
2, 28560, Note_on_c, 0, 71, 0
2, 28680, Note_on_c, 0, 73, 34
2, 28800, Note_on_c, 0, 73, 0
2, 28920, Note_on_c, 0, 68, 37
2, 29040, Note_on_c, 0, 68, 0
2, 29160, Note_on_c, 0, 70, 34
2, 29280, Note_on_c, 0, 70, 0
2, 29400, Note_on_c, 0, 68, 37
2, 29520, Note_on_c, 0, 68, 0
2, 29640, Note_on_c, 0, 70, 34
2, 29760, Note_on_c, 0, 70, 0
2, 29880, Note_on_c, 0, 68, 37
2, 30000, Note_on_c, 0, 68, 0
2, 30120, Note_on_c, 0, 70, 34
2, 30240, Note_on_c, 0, 70, 0
2, 30360, Note_on_c, 0, 68, 37
2, 30480, Note_on_c, 0, 68, 0
2, 30600, Note_on_c, 0, 70, 34
2, 30720, Note_on_c, 0, 70, 0
2, 30840, Note_on_c, 0, 68, 41
2, 30960, Note_on_c, 0, 68, 0
2, 31080, Note_on_c, 0, 70, 36
2, 31200, Note_on_c, 0, 70, 0
2, 31320, Note_on_c, 0, 68, 37
2, 31440, Note_on_c, 0, 68, 0
2, 31560, Note_on_c, 0, 70, 32
2, 31680, Note_on_c, 0, 70, 0
2, 31800, Note_on_c, 0, 68, 33
2, 31920, Note_on_c, 0, 68, 0
2, 32040, Note_on_c, 0, 70, 29
2, 32160, Note_on_c, 0, 70, 0
2, 32280, Note_on_c, 0, 68, 32
2, 32400, Note_on_c, 0, 68, 0
2, 32520, Note_on_c, 0, 70, 28
2, 32640, Note_on_c, 0, 70, 0
2, 32760, Note_on_c, 0, 68, 35
2, 32880, Note_on_c, 0, 68, 0
2, 33000, Note_on_c, 0, 70, 32
2, 33120, Note_on_c, 0, 70, 0
2, 33240, Note_on_c, 0, 68, 34
2, 33360, Note_on_c, 0, 68, 0
2, 33480, Note_on_c, 0, 70, 31
2, 33600, Note_on_c, 0, 70, 0
2, 33720, Note_on_c, 0, 68, 33
2, 33840, Note_on_c, 0, 68, 0
2, 33960, Note_on_c, 0, 70, 29
2, 34080, Note_on_c, 0, 70, 0
2, 34200, Note_on_c, 0, 68, 32
2, 34320, Note_on_c, 0, 68, 0
2, 34440, Note_on_c, 0, 70, 28
2, 34560, Note_on_c, 0, 70, 0
2, 34680, Note_on_c, 0, 68, 41
2, 34800, Note_on_c, 0, 68, 0
2, 34920, Note_on_c, 0, 70, 36
2, 35040, Note_on_c, 0, 70, 0
2, 35160, Note_on_c, 0, 68, 37
2, 35280, Note_on_c, 0, 68, 0
2, 35400, Note_on_c, 0, 70, 32
2, 35520, Note_on_c, 0, 70, 0
2, 35640, Note_on_c, 0, 68, 33
2, 35760, Note_on_c, 0, 68, 0
2, 35880, Note_on_c, 0, 70, 29
2, 36000, Note_on_c, 0, 70, 0
2, 36120, Note_on_c, 0, 68, 32
2, 36240, Note_on_c, 0, 68, 0
2, 36360, Note_on_c, 0, 70, 28
2, 36480, Note_on_c, 0, 70, 0
2, 36600, Note_on_c, 0, 68, 36
2, 36720, Note_on_c, 0, 68, 0
2, 36840, Note_on_c, 0, 70, 37
2, 36960, Note_on_c, 0, 70, 0
2, 37080, Note_on_c, 0, 68, 43
2, 37200, Note_on_c, 0, 68, 0
2, 37320, Note_on_c, 0, 70, 43
2, 37440, Note_on_c, 0, 70, 0
2, 37560, Note_on_c, 0, 68, 38
2, 37680, Note_on_c, 0, 68, 0
2, 37800, Note_on_c, 0, 70, 32
2, 37920, Note_on_c, 0, 70, 0
2, 38040, Note_on_c, 0, 68, 34
2, 38160, Note_on_c, 0, 68, 0
2, 38280, Note_on_c, 0, 70, 28
2, 38400, Note_on_c, 0, 70, 0
2, 38520, Note_on_c, 0, 68, 36
2, 38640, Note_on_c, 0, 68, 0
2, 38760, Note_on_c, 0, 70, 37
2, 38880, Note_on_c, 0, 70, 0
2, 39000, Note_on_c, 0, 68, 43
2, 39120, Note_on_c, 0, 68, 0
2, 39240, Note_on_c, 0, 70, 43
2, 39360, Note_on_c, 0, 70, 0
2, 39480, Note_on_c, 0, 68, 38
2, 39600, Note_on_c, 0, 68, 0
2, 39720, Note_on_c, 0, 70, 32
2, 39840, Note_on_c, 0, 70, 0
2, 39960, Note_on_c, 0, 68, 34
2, 40080, Note_on_c, 0, 68, 0
2, 40200, Note_on_c, 0, 70, 28
2, 40320, Note_on_c, 0, 70, 0
2, 40320, Note_on_c, 0, 78, 39
2, 40440, Note_on_c, 0, 66, 37
2, 40560, Note_on_c, 0, 66, 0
2, 40680, Note_on_c, 0, 68, 34
2, 40800, Note_on_c, 0, 68, 0
2, 40920, Note_on_c, 0, 66, 37
2, 41040, Note_on_c, 0, 66, 0
2, 41160, Note_on_c, 0, 68, 34
2, 41280, Note_on_c, 0, 68, 0
2, 41280, Note_on_c, 0, 78, 0
2, 41280, Note_on_c, 0, 74, 39
2, 41400, Note_on_c, 0, 66, 37
2, 41520, Note_on_c, 0, 66, 0
2, 41640, Note_on_c, 0, 68, 34
2, 41760, Note_on_c, 0, 68, 0
2, 41880, Note_on_c, 0, 66, 37
2, 42000, Note_on_c, 0, 66, 0
2, 42120, Note_on_c, 0, 68, 34
2, 42240, Note_on_c, 0, 68, 0
2, 42240, Note_on_c, 0, 74, 0
2, 42240, Note_on_c, 0, 76, 39
2, 42360, Note_on_c, 0, 66, 37
2, 42480, Note_on_c, 0, 66, 0
2, 42600, Note_on_c, 0, 68, 34
2, 42720, Note_on_c, 0, 68, 0
2, 42840, Note_on_c, 0, 66, 37
2, 42960, Note_on_c, 0, 66, 0
2, 43080, Note_on_c, 0, 68, 34
2, 43200, Note_on_c, 0, 68, 0
2, 43320, Note_on_c, 0, 66, 37
2, 43440, Note_on_c, 0, 66, 0
2, 43560, Note_on_c, 0, 68, 34
2, 43680, Note_on_c, 0, 68, 0
2, 43680, Note_on_c, 0, 76, 0
2, 43680, Note_on_c, 0, 76, 39
2, 43800, Note_on_c, 0, 66, 37
2, 43920, Note_on_c, 0, 66, 0
2, 44040, Note_on_c, 0, 68, 34
2, 44160, Note_on_c, 0, 68, 0
2, 44160, Note_on_c, 0, 76, 0
2, 44160, Note_on_c, 0, 78, 39
2, 44280, Note_on_c, 0, 66, 37
2, 44400, Note_on_c, 0, 66, 0
2, 44520, Note_on_c, 0, 68, 34
2, 44640, Note_on_c, 0, 68, 0
2, 44640, Note_on_c, 0, 78, 0
2, 44640, Note_on_c, 0, 78, 39
2, 44760, Note_on_c, 0, 66, 37
2, 44880, Note_on_c, 0, 66, 0
2, 45000, Note_on_c, 0, 68, 34
2, 45120, Note_on_c, 0, 68, 0
2, 45120, Note_on_c, 0, 78, 0
2, 45120, Note_on_c, 0, 74, 39
2, 45240, Note_on_c, 0, 66, 37
2, 45360, Note_on_c, 0, 66, 0
2, 45480, Note_on_c, 0, 68, 34
2, 45600, Note_on_c, 0, 68, 0
2, 45600, Note_on_c, 0, 74, 0
2, 45600, Note_on_c, 0, 74, 39
2, 45720, Note_on_c, 0, 66, 37
2, 45840, Note_on_c, 0, 66, 0
2, 45960, Note_on_c, 0, 68, 34
2, 46080, Note_on_c, 0, 68, 0
2, 46080, Note_on_c, 0, 74, 0
2, 46080, Note_on_c, 0, 76, 39
2, 46200, Note_on_c, 0, 66, 36
2, 46320, Note_on_c, 0, 66, 0
2, 46440, Note_on_c, 0, 68, 32
2, 46560, Note_on_c, 0, 68, 0
2, 46680, Note_on_c, 0, 66, 34
2, 46800, Note_on_c, 0, 66, 0
2, 46920, Note_on_c, 0, 68, 31
2, 47040, Note_on_c, 0, 68, 0
2, 47160, Note_on_c, 0, 66, 32
2, 47280, Note_on_c, 0, 66, 0
2, 47400, Note_on_c, 0, 68, 29
2, 47520, Note_on_c, 0, 68, 0
2, 47640, Note_on_c, 0, 66, 31
2, 47760, Note_on_c, 0, 66, 0
2, 47880, Note_on_c, 0, 68, 27
2, 48000, Note_on_c, 0, 68, 0
2, 48000, Note_on_c, 0, 76, 0
2, 48000, Note_on_c, 0, 76, 39
2, 48120, Note_on_c, 0, 66, 37
2, 48240, Note_on_c, 0, 66, 0
2, 48360, Note_on_c, 0, 68, 34
2, 48480, Note_on_c, 0, 68, 0
2, 48600, Note_on_c, 0, 66, 37
2, 48720, Note_on_c, 0, 66, 0
2, 48840, Note_on_c, 0, 68, 34
2, 48960, Note_on_c, 0, 68, 0
2, 48960, Note_on_c, 0, 76, 0
2, 48960, Note_on_c, 0, 72, 39
2, 49080, Note_on_c, 0, 66, 37
2, 49200, Note_on_c, 0, 66, 0
2, 49320, Note_on_c, 0, 68, 34
2, 49440, Note_on_c, 0, 68, 0
2, 49560, Note_on_c, 0, 66, 37
2, 49680, Note_on_c, 0, 66, 0
2, 49800, Note_on_c, 0, 68, 34
2, 49920, Note_on_c, 0, 68, 0
2, 49920, Note_on_c, 0, 72, 0
2, 49920, Note_on_c, 0, 74, 39
2, 50040, Note_on_c, 0, 65, 37
2, 50160, Note_on_c, 0, 65, 0
2, 50280, Note_on_c, 0, 67, 34
2, 50400, Note_on_c, 0, 67, 0
2, 50520, Note_on_c, 0, 65, 37
2, 50640, Note_on_c, 0, 65, 0
2, 50760, Note_on_c, 0, 67, 34
2, 50880, Note_on_c, 0, 67, 0
2, 51000, Note_on_c, 0, 65, 37
2, 51120, Note_on_c, 0, 65, 0
2, 51240, Note_on_c, 0, 67, 34
2, 51360, Note_on_c, 0, 67, 0
2, 51360, Note_on_c, 0, 74, 0
2, 51360, Note_on_c, 0, 74, 39
2, 51480, Note_on_c, 0, 65, 37
2, 51600, Note_on_c, 0, 65, 0
2, 51720, Note_on_c, 0, 67, 34
2, 51840, Note_on_c, 0, 67, 0
2, 51840, Note_on_c, 0, 74, 0
2, 51840, Note_on_c, 0, 76, 39
2, 51960, Note_on_c, 0, 66, 37
2, 52080, Note_on_c, 0, 66, 0
2, 52200, Note_on_c, 0, 68, 34
2, 52320, Note_on_c, 0, 68, 0
2, 52320, Note_on_c, 0, 76, 0
2, 52320, Note_on_c, 0, 76, 39
2, 52440, Note_on_c, 0, 66, 37
2, 52560, Note_on_c, 0, 66, 0
2, 52680, Note_on_c, 0, 68, 34
2, 52800, Note_on_c, 0, 68, 0
2, 52800, Note_on_c, 0, 76, 0
2, 52800, Note_on_c, 0, 72, 39
2, 52920, Note_on_c, 0, 66, 37
2, 53040, Note_on_c, 0, 66, 0
2, 53160, Note_on_c, 0, 68, 34
2, 53280, Note_on_c, 0, 68, 0
2, 53280, Note_on_c, 0, 72, 0
2, 53280, Note_on_c, 0, 72, 39
2, 53400, Note_on_c, 0, 66, 37
2, 53520, Note_on_c, 0, 66, 0
2, 53640, Note_on_c, 0, 68, 34
2, 53760, Note_on_c, 0, 68, 0
2, 53760, Note_on_c, 0, 72, 0
2, 53760, Note_on_c, 0, 74, 39
2, 53880, Note_on_c, 0, 65, 36
2, 54000, Note_on_c, 0, 65, 0
2, 54120, Note_on_c, 0, 67, 32
2, 54240, Note_on_c, 0, 67, 0
2, 54360, Note_on_c, 0, 65, 34
2, 54480, Note_on_c, 0, 65, 0
2, 54600, Note_on_c, 0, 67, 31
2, 54720, Note_on_c, 0, 67, 0
2, 54840, Note_on_c, 0, 65, 32
2, 54960, Note_on_c, 0, 65, 0
2, 55080, Note_on_c, 0, 67, 29
2, 55200, Note_on_c, 0, 67, 0
2, 55320, Note_on_c, 0, 65, 31
2, 55440, Note_on_c, 0, 65, 0
2, 55560, Note_on_c, 0, 67, 27
2, 55680, Note_on_c, 0, 67, 0
2, 55680, Note_on_c, 0, 74, 0
2, 55800, Note_on_c, 0, 64, 40
2, 55890, Note_on_c, 0, 64, 0
2, 56040, Note_on_c, 0, 65, 34
2, 56130, Note_on_c, 0, 65, 0
2, 56280, Note_on_c, 0, 67, 34
2, 56370, Note_on_c, 0, 67, 0
2, 56520, Note_on_c, 0, 69, 34
2, 56610, Note_on_c, 0, 69, 0
2, 56760, Note_on_c, 0, 62, 44
2, 56850, Note_on_c, 0, 62, 0
2, 57000, Note_on_c, 0, 64, 33
2, 57090, Note_on_c, 0, 64, 0
2, 57240, Note_on_c, 0, 65, 33
2, 57330, Note_on_c, 0, 65, 0
2, 57480, Note_on_c, 0, 67, 33
2, 57570, Note_on_c, 0, 67, 0
2, 57720, Note_on_c, 0, 64, 40
2, 57810, Note_on_c, 0, 64, 0
2, 57960, Note_on_c, 0, 65, 34
2, 58050, Note_on_c, 0, 65, 0
2, 58200, Note_on_c, 0, 67, 34
2, 58290, Note_on_c, 0, 67, 0
2, 58440, Note_on_c, 0, 69, 34
2, 58530, Note_on_c, 0, 69, 0
2, 58680, Note_on_c, 0, 62, 44
2, 58770, Note_on_c, 0, 62, 0
2, 58920, Note_on_c, 0, 64, 33
2, 59010, Note_on_c, 0, 64, 0
2, 59160, Note_on_c, 0, 65, 33
2, 59250, Note_on_c, 0, 65, 0
2, 59400, Note_on_c, 0, 67, 33
2, 59490, Note_on_c, 0, 67, 0
2, 59520, Note_on_c, 0, 60, 45
2, 59640, Note_on_c, 0, 62, 40
2, 59730, Note_on_c, 0, 62, 0
2, 59880, Note_on_c, 0, 63, 34
2, 59970, Note_on_c, 0, 63, 0
2, 60120, Note_on_c, 0, 65, 34
2, 60210, Note_on_c, 0, 65, 0
2, 60360, Note_on_c, 0, 67, 34
2, 60450, Note_on_c, 0, 67, 0
2, 60600, Note_on_c, 0, 62, 43
2, 60690, Note_on_c, 0, 62, 0
2, 60840, Note_on_c, 0, 63, 35
2, 60930, Note_on_c, 0, 63, 0
2, 61080, Note_on_c, 0, 65, 39
2, 61170, Note_on_c, 0, 65, 0
2, 61320, Note_on_c, 0, 67, 41
2, 61410, Note_on_c, 0, 67, 0
2, 61440, Note_on_c, 0, 60, 0
2, 61440, Note_on_c, 0, 60, 45
2, 61560, Note_on_c, 0, 62, 40
2, 61650, Note_on_c, 0, 62, 0
2, 61800, Note_on_c, 0, 63, 34
2, 61890, Note_on_c, 0, 63, 0
2, 62040, Note_on_c, 0, 65, 34
2, 62130, Note_on_c, 0, 65, 0
2, 62280, Note_on_c, 0, 67, 34
2, 62370, Note_on_c, 0, 67, 0
2, 62520, Note_on_c, 0, 62, 43
2, 62610, Note_on_c, 0, 62, 0
2, 62760, Note_on_c, 0, 63, 35
2, 62850, Note_on_c, 0, 63, 0
2, 63000, Note_on_c, 0, 65, 39
2, 63090, Note_on_c, 0, 65, 0
2, 63240, Note_on_c, 0, 67, 41
2, 63330, Note_on_c, 0, 67, 0
2, 63360, Note_on_c, 0, 60, 0
2, 63840, Note_on_c, 0, 82, 53
2, 63960, Note_on_c, 0, 82, 0
2, 64000, Note_on_c, 0, 82, 47
2, 64120, Note_on_c, 0, 82, 0
2, 64160, Note_on_c, 0, 82, 47
2, 64280, Note_on_c, 0, 82, 0
2, 64320, Note_on_c, 0, 82, 54
2, 64440, Note_on_c, 0, 82, 0
2, 64480, Note_on_c, 0, 82, 46
2, 64600, Note_on_c, 0, 82, 0
2, 64640, Note_on_c, 0, 82, 46
2, 64760, Note_on_c, 0, 82, 0
2, 64800, Note_on_c, 0, 82, 54
2, 64920, Note_on_c, 0, 82, 0
2, 64960, Note_on_c, 0, 82, 47
2, 65080, Note_on_c, 0, 82, 0
2, 65120, Note_on_c, 0, 82, 47
2, 65240, Note_on_c, 0, 82, 0
2, 65280, Note_on_c, 0, 82, 54
2, 65520, Note_on_c, 0, 82, 0
2, 65520, Note_on_c, 0, 81, 50
2, 65760, Note_on_c, 0, 81, 0
2, 65760, Note_on_c, 0, 79, 48
2, 66720, Note_on_c, 0, 79, 0
2, 66720, Note_on_c, 0, 82, 58
2, 66880, Note_on_c, 0, 82, 0
2, 66880, Note_on_c, 0, 81, 63
2, 67040, Note_on_c, 0, 81, 0
2, 67040, Note_on_c, 0, 79, 67
2, 67200, Note_on_c, 0, 79, 0
2, 67200, Note_on_c, 0, 79, 70
2, 67680, Note_on_c, 0, 79, 0
2, 67680, Note_on_c, 0, 77, 71
2, 67840, Note_on_c, 0, 77, 0
2, 67840, Note_on_c, 0, 76, 67
2, 68000, Note_on_c, 0, 76, 0
2, 68000, Note_on_c, 0, 74, 62
2, 68160, Note_on_c, 0, 74, 0
2, 68160, Note_on_c, 0, 73, 64
2, 68340, Note_on_c, 0, 73, 0
2, 68400, Note_on_c, 0, 70, 49
2, 69120, Note_on_c, 0, 70, 0
2, 69600, Note_on_c, 0, 77, 68
2, 69760, Note_on_c, 0, 77, 0
2, 69760, Note_on_c, 0, 76, 61
2, 69920, Note_on_c, 0, 76, 0
2, 69920, Note_on_c, 0, 74, 57
2, 70080, Note_on_c, 0, 74, 0
2, 70080, Note_on_c, 0, 73, 61
2, 70260, Note_on_c, 0, 73, 0
2, 70320, Note_on_c, 0, 70, 49
2, 70560, Note_on_c, 0, 70, 0
2, 70560, Note_on_c, 0, 77, 63
2, 70720, Note_on_c, 0, 77, 0
2, 70720, Note_on_c, 0, 76, 54
2, 70880, Note_on_c, 0, 76, 0
2, 70880, Note_on_c, 0, 74, 50
2, 70980, Note_on_c, 0, 74, 0
2, 70980, Note_on_c, 0, 73, 50
2, 71000, Note_on_c, 0, 76, 54
2, 71020, Note_on_c, 0, 78, 57
2, 71040, Note_on_c, 0, 85, 74
2, 71280, Note_on_c, 0, 85, 0
2, 71280, Note_on_c, 0, 82, 54
2, 71520, Note_on_c, 0, 82, 0
2, 72860, Note_on_c, 0, 73, 0
2, 72880, Note_on_c, 0, 76, 0
2, 72900, Note_on_c, 0, 78, 0
2, 72900, Note_on_c, 0, 61, 39
2, 72920, Note_on_c, 0, 64, 39
2, 72940, Note_on_c, 0, 66, 45
2, 72960, Note_on_c, 0, 73, 62
2, 73200, Note_on_c, 0, 73, 0
2, 73200, Note_on_c, 0, 70, 46
2, 73420, Note_on_c, 0, 66, 0
2, 73440, Note_on_c, 0, 61, 0
2, 73440, Note_on_c, 0, 64, 0
2, 73440, Note_on_c, 0, 70, 0
2, 74400, Note_on_c, 0, 58, 32
2, 74520, Note_on_c, 0, 58, 0
2, 74520, Note_on_c, 0, 60, 25
2, 74640, Note_on_c, 0, 60, 0
2, 74640, Note_on_c, 0, 58, 31
2, 74760, Note_on_c, 0, 58, 0
2, 74760, Note_on_c, 0, 60, 26
2, 74880, Note_on_c, 0, 60, 0
2, 74880, Note_on_c, 0, 58, 29
2, 75000, Note_on_c, 0, 58, 0
2, 75000, Note_on_c, 0, 60, 25
2, 75120, Note_on_c, 0, 60, 0
2, 75120, Note_on_c, 0, 58, 29
2, 75240, Note_on_c, 0, 58, 0
2, 75240, Note_on_c, 0, 60, 24
2, 75360, Note_on_c, 0, 60, 0
2, 75360, Note_on_c, 0, 58, 29
2, 75480, Note_on_c, 0, 58, 0
2, 75480, Note_on_c, 0, 60, 24
2, 75600, Note_on_c, 0, 60, 0
2, 75600, Note_on_c, 0, 58, 29
2, 75720, Note_on_c, 0, 58, 0
2, 75720, Note_on_c, 0, 60, 24
2, 75840, Note_on_c, 0, 60, 0
2, 75840, Note_on_c, 0, 58, 30
2, 75960, Note_on_c, 0, 58, 0
2, 75960, Note_on_c, 0, 60, 24
2, 76080, Note_on_c, 0, 60, 0
2, 76080, Note_on_c, 0, 58, 30
2, 76200, Note_on_c, 0, 58, 0
2, 76200, Note_on_c, 0, 60, 24
2, 76320, Note_on_c, 0, 60, 0
2, 76320, Note_on_c, 0, 58, 33
2, 76440, Note_on_c, 0, 58, 0
2, 76440, Note_on_c, 0, 60, 24
2, 76560, Note_on_c, 0, 60, 0
2, 76560, Note_on_c, 0, 58, 30
2, 76680, Note_on_c, 0, 58, 0
2, 76680, Note_on_c, 0, 60, 25
2, 76800, Note_on_c, 0, 60, 0
2, 76800, Note_on_c, 0, 58, 35
2, 76920, Note_on_c, 0, 58, 0
2, 76920, Note_on_c, 0, 60, 26
2, 77040, Note_on_c, 0, 60, 0
2, 77040, Note_on_c, 0, 58, 26
2, 77160, Note_on_c, 0, 58, 0
2, 77160, Note_on_c, 0, 60, 36
2, 77280, Note_on_c, 0, 60, 0
2, 77280, Note_on_c, 0, 58, 27
2, 77400, Note_on_c, 0, 58, 0
2, 77400, Note_on_c, 0, 61, 32
2, 77520, Note_on_c, 0, 61, 0
2, 77520, Note_on_c, 0, 58, 34
2, 77640, Note_on_c, 0, 58, 0
2, 77640, Note_on_c, 0, 61, 39
2, 77760, Note_on_c, 0, 61, 0
2, 78000, Note_on_c, 0, 70, 55
2, 78120, Note_on_c, 0, 70, 0
2, 78120, Note_on_c, 0, 73, 48
2, 78240, Note_on_c, 0, 73, 0
2, 78480, Note_on_c, 0, 58, 45
2, 78600, Note_on_c, 0, 58, 0
2, 78600, Note_on_c, 0, 61, 40
2, 78720, Note_on_c, 0, 61, 0
2, 78720, Note_on_c, 0, 58, 29
2, 78840, Note_on_c, 0, 58, 0
2, 78840, Note_on_c, 0, 60, 25
2, 78960, Note_on_c, 0, 60, 0
2, 78960, Note_on_c, 0, 58, 29
2, 79080, Note_on_c, 0, 58, 0
2, 79080, Note_on_c, 0, 60, 24
2, 79200, Note_on_c, 0, 60, 0
2, 79200, Note_on_c, 0, 58, 29
2, 79320, Note_on_c, 0, 58, 0
2, 79320, Note_on_c, 0, 60, 24
2, 79440, Note_on_c, 0, 60, 0
2, 79440, Note_on_c, 0, 58, 29
2, 79560, Note_on_c, 0, 58, 0
2, 79560, Note_on_c, 0, 60, 24
2, 79680, Note_on_c, 0, 60, 0
2, 79680, Note_on_c, 0, 58, 30
2, 79800, Note_on_c, 0, 58, 0
2, 79800, Note_on_c, 0, 60, 24
2, 79920, Note_on_c, 0, 60, 0
2, 79920, Note_on_c, 0, 58, 30
2, 80040, Note_on_c, 0, 58, 0
2, 80040, Note_on_c, 0, 60, 24
2, 80160, Note_on_c, 0, 60, 0
2, 80160, Note_on_c, 0, 58, 33
2, 80280, Note_on_c, 0, 58, 0
2, 80280, Note_on_c, 0, 60, 24
2, 80400, Note_on_c, 0, 60, 0
2, 80400, Note_on_c, 0, 58, 30
2, 80520, Note_on_c, 0, 58, 0
2, 80520, Note_on_c, 0, 60, 25
2, 80640, Note_on_c, 0, 60, 0
2, 80640, Note_on_c, 0, 58, 35
2, 80760, Note_on_c, 0, 58, 0
2, 80760, Note_on_c, 0, 60, 26
2, 80880, Note_on_c, 0, 60, 0
2, 80880, Note_on_c, 0, 58, 26
2, 81000, Note_on_c, 0, 58, 0
2, 81000, Note_on_c, 0, 60, 36
2, 81120, Note_on_c, 0, 60, 0
2, 81120, Note_on_c, 0, 58, 27
2, 81240, Note_on_c, 0, 58, 0
2, 81240, Note_on_c, 0, 61, 32
2, 81360, Note_on_c, 0, 61, 0
2, 81360, Note_on_c, 0, 58, 34
2, 81480, Note_on_c, 0, 58, 0
2, 81480, Note_on_c, 0, 61, 39
2, 81600, Note_on_c, 0, 61, 0
2, 81840, Note_on_c, 0, 70, 55
2, 81960, Note_on_c, 0, 70, 0
2, 81960, Note_on_c, 0, 73, 48
2, 82080, Note_on_c, 0, 73, 0
2, 82080, Note_on_c, 0, 70, 54
2, 82200, Note_on_c, 0, 70, 0
2, 82200, Note_on_c, 0, 73, 49
2, 82320, Note_on_c, 0, 73, 0
2, 83040, Note_on_c, 0, 82, 53
2, 83160, Note_on_c, 0, 82, 0
2, 83200, Note_on_c, 0, 82, 47
2, 83320, Note_on_c, 0, 82, 0
2, 83360, Note_on_c, 0, 82, 47
2, 83480, Note_on_c, 0, 82, 0
2, 83520, Note_on_c, 0, 82, 54
2, 83640, Note_on_c, 0, 82, 0
2, 83680, Note_on_c, 0, 82, 46
2, 83800, Note_on_c, 0, 82, 0
2, 83840, Note_on_c, 0, 82, 46
2, 83960, Note_on_c, 0, 82, 0
2, 84000, Note_on_c, 0, 82, 54
2, 84120, Note_on_c, 0, 82, 0
2, 84160, Note_on_c, 0, 82, 47
2, 84280, Note_on_c, 0, 82, 0
2, 84320, Note_on_c, 0, 82, 47
2, 84440, Note_on_c, 0, 82, 0
2, 84480, Note_on_c, 0, 82, 54
2, 84720, Note_on_c, 0, 82, 0
2, 84720, Note_on_c, 0, 81, 50
2, 84960, Note_on_c, 0, 81, 0
2, 84960, Note_on_c, 0, 79, 48
2, 85920, Note_on_c, 0, 79, 0
2, 85920, Note_on_c, 0, 82, 69
2, 86080, Note_on_c, 0, 82, 0
2, 86080, Note_on_c, 0, 81, 65
2, 86240, Note_on_c, 0, 81, 0
2, 86240, Note_on_c, 0, 79, 57
2, 86400, Note_on_c, 0, 79, 0
2, 86400, Note_on_c, 0, 79, 64
2, 86880, Note_on_c, 0, 79, 0
2, 86880, Note_on_c, 0, 77, 66
2, 87040, Note_on_c, 0, 77, 0
2, 87040, Note_on_c, 0, 76, 59
2, 87200, Note_on_c, 0, 76, 0
2, 87200, Note_on_c, 0, 74, 55
2, 87360, Note_on_c, 0, 74, 0
2, 87360, Note_on_c, 0, 73, 61
2, 87540, Note_on_c, 0, 73, 0
2, 87600, Note_on_c, 0, 70, 49
2, 88320, Note_on_c, 0, 70, 0
2, 88800, Note_on_c, 0, 77, 66
2, 88800, Note_on_c, 0, 68, 66
2, 88960, Note_on_c, 0, 77, 0
2, 88960, Note_on_c, 0, 76, 59
2, 89120, Note_on_c, 0, 76, 0
2, 89120, Note_on_c, 0, 74, 56
2, 89280, Note_on_c, 0, 74, 0
2, 89280, Note_on_c, 0, 68, 0
2, 89280, Note_on_c, 0, 67, 44
2, 89280, Note_on_c, 0, 73, 61
2, 89460, Note_on_c, 0, 73, 0
2, 89520, Note_on_c, 0, 70, 49
2, 89700, Note_on_c, 0, 70, 0
2, 89760, Note_on_c, 0, 67, 0
2, 89760, Note_on_c, 0, 77, 63
2, 89760, Note_on_c, 0, 68, 63
2, 89920, Note_on_c, 0, 77, 0
2, 89920, Note_on_c, 0, 76, 54
2, 90080, Note_on_c, 0, 76, 0
2, 90080, Note_on_c, 0, 74, 50
2, 90240, Note_on_c, 0, 74, 0
2, 90240, Note_on_c, 0, 68, 0
2, 90240, Note_on_c, 0, 67, 44
2, 90240, Note_on_c, 0, 73, 61
2, 90420, Note_on_c, 0, 73, 0
2, 90480, Note_on_c, 0, 70, 49
2, 90660, Note_on_c, 0, 70, 0
2, 90720, Note_on_c, 0, 67, 0
2, 90720, Note_on_c, 0, 68, 51
2, 90720, Note_on_c, 0, 77, 63
2, 90880, Note_on_c, 0, 77, 0
2, 90880, Note_on_c, 0, 76, 54
2, 91040, Note_on_c, 0, 76, 0
2, 91040, Note_on_c, 0, 74, 50
2, 91200, Note_on_c, 0, 74, 0
2, 91200, Note_on_c, 0, 68, 0
2, 91200, Note_on_c, 0, 70, 75
2, 91200, Note_on_c, 0, 73, 75
2, 91320, Note_on_c, 0, 73, 0
2, 91320, Note_on_c, 0, 70, 0
2, 91320, Note_on_c, 0, 66, 69
2, 91440, Note_on_c, 0, 66, 0
2, 92160, Note_on_c, 0, 70, 75
2, 92160, Note_on_c, 0, 73, 75
2, 92280, Note_on_c, 0, 73, 0
2, 92280, Note_on_c, 0, 70, 0
2, 92280, Note_on_c, 0, 65, 68
2, 92400, Note_on_c, 0, 65, 0
2, 93120, Note_on_c, 0, 70, 75
2, 93120, Note_on_c, 0, 73, 75
2, 93240, Note_on_c, 0, 73, 0
2, 93240, Note_on_c, 0, 70, 0
2, 93240, Note_on_c, 0, 63, 69
2, 93330, Note_on_c, 0, 63, 0
2, 95040, Note_on_c, 0, 70, 75
2, 95040, Note_on_c, 0, 73, 75
2, 95160, Note_on_c, 0, 73, 0
2, 95160, Note_on_c, 0, 70, 0
2, 95160, Note_on_c, 0, 66, 69
2, 95280, Note_on_c, 0, 66, 0
2, 96000, Note_on_c, 0, 70, 75
2, 96000, Note_on_c, 0, 73, 75
2, 96120, Note_on_c, 0, 73, 0
2, 96120, Note_on_c, 0, 70, 0
2, 96120, Note_on_c, 0, 65, 68
2, 96240, Note_on_c, 0, 65, 0
2, 96960, Note_on_c, 0, 70, 75
2, 96960, Note_on_c, 0, 73, 75
2, 97080, Note_on_c, 0, 73, 0
2, 97080, Note_on_c, 0, 70, 0
2, 97080, Note_on_c, 0, 63, 69
2, 97170, Note_on_c, 0, 63, 0
2, 97920, Note_on_c, 0, 63, 42
2, 98010, Note_on_c, 0, 63, 0
2, 98040, Note_on_c, 0, 62, 35
2, 98130, Note_on_c, 0, 62, 0
2, 98160, Note_on_c, 0, 66, 42
2, 98250, Note_on_c, 0, 66, 0
2, 98280, Note_on_c, 0, 65, 37
2, 98370, Note_on_c, 0, 65, 0
2, 98400, Note_on_c, 0, 63, 42
2, 98490, Note_on_c, 0, 63, 0
2, 98520, Note_on_c, 0, 65, 37
2, 98610, Note_on_c, 0, 65, 0
2, 98640, Note_on_c, 0, 66, 37
2, 98730, Note_on_c, 0, 66, 0
2, 98760, Note_on_c, 0, 67, 37
2, 98850, Note_on_c, 0, 67, 0
2, 98880, Note_on_c, 0, 63, 42
2, 98970, Note_on_c, 0, 63, 0
2, 99000, Note_on_c, 0, 62, 35
2, 99090, Note_on_c, 0, 62, 0
2, 99120, Note_on_c, 0, 66, 42
2, 99210, Note_on_c, 0, 66, 0
2, 99240, Note_on_c, 0, 65, 36
2, 99330, Note_on_c, 0, 65, 0
2, 99360, Note_on_c, 0, 63, 42
2, 99450, Note_on_c, 0, 63, 0
2, 99480, Note_on_c, 0, 65, 37
2, 99570, Note_on_c, 0, 65, 0
2, 99600, Note_on_c, 0, 66, 37
2, 99690, Note_on_c, 0, 66, 0
2, 99720, Note_on_c, 0, 67, 37
2, 99810, Note_on_c, 0, 67, 0
2, 99840, Note_on_c, 0, 66, 42
2, 99930, Note_on_c, 0, 66, 0
2, 99960, Note_on_c, 0, 65, 35
2, 100050, Note_on_c, 0, 65, 0
2, 100080, Note_on_c, 0, 70, 42
2, 100170, Note_on_c, 0, 70, 0
2, 100200, Note_on_c, 0, 69, 37
2, 100290, Note_on_c, 0, 69, 0
2, 100320, Note_on_c, 0, 66, 42
2, 100410, Note_on_c, 0, 66, 0
2, 100440, Note_on_c, 0, 68, 37
2, 100530, Note_on_c, 0, 68, 0
2, 100560, Note_on_c, 0, 70, 37
2, 100650, Note_on_c, 0, 70, 0
2, 100680, Note_on_c, 0, 71, 37
2, 100770, Note_on_c, 0, 71, 0
2, 100800, Note_on_c, 0, 66, 42
2, 100890, Note_on_c, 0, 66, 0
2, 100920, Note_on_c, 0, 65, 35
2, 101010, Note_on_c, 0, 65, 0
2, 101040, Note_on_c, 0, 70, 42
2, 101130, Note_on_c, 0, 70, 0
2, 101160, Note_on_c, 0, 69, 36
2, 101250, Note_on_c, 0, 69, 0
2, 101280, Note_on_c, 0, 66, 42
2, 101370, Note_on_c, 0, 66, 0
2, 101400, Note_on_c, 0, 69, 37
2, 101490, Note_on_c, 0, 69, 0
2, 101520, Note_on_c, 0, 70, 37
2, 101610, Note_on_c, 0, 70, 0
2, 101640, Note_on_c, 0, 71, 37
2, 101730, Note_on_c, 0, 71, 0
2, 101760, Note_on_c, 0, 70, 42
2, 101850, Note_on_c, 0, 70, 0
2, 101880, Note_on_c, 0, 69, 35
2, 101970, Note_on_c, 0, 69, 0
2, 102000, Note_on_c, 0, 73, 42
2, 102090, Note_on_c, 0, 73, 0
2, 102120, Note_on_c, 0, 72, 37
2, 102210, Note_on_c, 0, 72, 0
2, 102240, Note_on_c, 0, 70, 42
2, 102330, Note_on_c, 0, 70, 0
2, 102360, Note_on_c, 0, 71, 37
2, 102450, Note_on_c, 0, 71, 0
2, 102480, Note_on_c, 0, 73, 37
2, 102570, Note_on_c, 0, 73, 0
2, 102600, Note_on_c, 0, 74, 37
2, 102690, Note_on_c, 0, 74, 0
2, 102720, Note_on_c, 0, 70, 42
2, 102810, Note_on_c, 0, 70, 0
2, 102840, Note_on_c, 0, 69, 35
2, 102930, Note_on_c, 0, 69, 0
2, 102960, Note_on_c, 0, 73, 42
2, 103050, Note_on_c, 0, 73, 0
2, 103080, Note_on_c, 0, 72, 36
2, 103170, Note_on_c, 0, 72, 0
2, 103200, Note_on_c, 0, 70, 42
2, 103290, Note_on_c, 0, 70, 0
2, 103320, Note_on_c, 0, 71, 37
2, 103410, Note_on_c, 0, 71, 0
2, 103440, Note_on_c, 0, 73, 37
2, 103530, Note_on_c, 0, 73, 0
2, 103560, Note_on_c, 0, 74, 37
2, 103650, Note_on_c, 0, 74, 0
2, 103680, Note_on_c, 0, 70, 42
2, 103800, Note_on_c, 0, 70, 0
2, 103800, Note_on_c, 0, 71, 41
2, 103920, Note_on_c, 0, 71, 0
2, 103920, Note_on_c, 0, 73, 41
2, 104040, Note_on_c, 0, 73, 0
2, 104040, Note_on_c, 0, 74, 40
2, 104160, Note_on_c, 0, 74, 0
2, 104160, Note_on_c, 0, 70, 39
2, 104280, Note_on_c, 0, 70, 0
2, 104280, Note_on_c, 0, 71, 39
2, 104400, Note_on_c, 0, 71, 0
2, 104400, Note_on_c, 0, 73, 39
2, 104520, Note_on_c, 0, 73, 0
2, 104520, Note_on_c, 0, 74, 38
2, 104640, Note_on_c, 0, 74, 0
2, 104640, Note_on_c, 0, 70, 37
2, 104760, Note_on_c, 0, 70, 0
2, 104760, Note_on_c, 0, 71, 37
2, 104880, Note_on_c, 0, 71, 0
2, 104880, Note_on_c, 0, 73, 36
2, 105000, Note_on_c, 0, 73, 0
2, 105000, Note_on_c, 0, 74, 36
2, 105120, Note_on_c, 0, 74, 0
2, 105120, Note_on_c, 0, 70, 35
2, 105240, Note_on_c, 0, 70, 0
2, 105240, Note_on_c, 0, 71, 35
2, 105360, Note_on_c, 0, 71, 0
2, 105360, Note_on_c, 0, 73, 34
2, 105480, Note_on_c, 0, 73, 0
2, 105480, Note_on_c, 0, 74, 34
2, 105600, Note_on_c, 0, 74, 0
2, 105720, Note_on_c, 0, 76, 36
2, 105810, Note_on_c, 0, 76, 0
2, 105960, Note_on_c, 0, 77, 30
2, 106050, Note_on_c, 0, 77, 0
2, 106200, Note_on_c, 0, 79, 30
2, 106290, Note_on_c, 0, 79, 0
2, 106440, Note_on_c, 0, 81, 30
2, 106530, Note_on_c, 0, 81, 0
2, 106680, Note_on_c, 0, 74, 36
2, 106770, Note_on_c, 0, 74, 0
2, 106920, Note_on_c, 0, 76, 29
2, 107010, Note_on_c, 0, 76, 0
2, 107160, Note_on_c, 0, 77, 29
2, 107250, Note_on_c, 0, 77, 0
2, 107400, Note_on_c, 0, 79, 29
2, 107490, Note_on_c, 0, 79, 0
2, 107640, Note_on_c, 0, 76, 36
2, 107730, Note_on_c, 0, 76, 0
2, 107880, Note_on_c, 0, 77, 30
2, 107970, Note_on_c, 0, 77, 0
2, 108120, Note_on_c, 0, 79, 30
2, 108210, Note_on_c, 0, 79, 0
2, 108360, Note_on_c, 0, 81, 30
2, 108450, Note_on_c, 0, 81, 0
2, 108600, Note_on_c, 0, 74, 36
2, 108690, Note_on_c, 0, 74, 0
2, 108840, Note_on_c, 0, 76, 29
2, 108930, Note_on_c, 0, 76, 0
2, 109080, Note_on_c, 0, 77, 29
2, 109170, Note_on_c, 0, 77, 0
2, 109320, Note_on_c, 0, 79, 29
2, 109410, Note_on_c, 0, 79, 0
2, 109560, Note_on_c, 0, 76, 36
2, 109650, Note_on_c, 0, 76, 0
2, 109800, Note_on_c, 0, 77, 30
2, 109890, Note_on_c, 0, 77, 0
2, 110040, Note_on_c, 0, 74, 30
2, 110130, Note_on_c, 0, 74, 0
2, 110280, Note_on_c, 0, 76, 30
2, 110370, Note_on_c, 0, 76, 0
2, 110520, Note_on_c, 0, 72, 36
2, 110610, Note_on_c, 0, 72, 0
2, 110760, Note_on_c, 0, 74, 29
2, 110850, Note_on_c, 0, 74, 0
2, 111000, Note_on_c, 0, 70, 29
2, 111090, Note_on_c, 0, 70, 0
2, 111240, Note_on_c, 0, 72, 29
2, 111330, Note_on_c, 0, 72, 0
2, 111480, Note_on_c, 0, 76, 36
2, 111570, Note_on_c, 0, 76, 0
2, 111720, Note_on_c, 0, 77, 30
2, 111810, Note_on_c, 0, 77, 0
2, 111960, Note_on_c, 0, 74, 30
2, 112050, Note_on_c, 0, 74, 0
2, 112200, Note_on_c, 0, 76, 30
2, 112290, Note_on_c, 0, 76, 0
2, 112440, Note_on_c, 0, 72, 36
2, 112530, Note_on_c, 0, 72, 0
2, 112680, Note_on_c, 0, 74, 29
2, 112770, Note_on_c, 0, 74, 0
2, 112920, Note_on_c, 0, 76, 29
2, 113010, Note_on_c, 0, 76, 0
2, 113160, Note_on_c, 0, 77, 29
2, 113250, Note_on_c, 0, 77, 0
2, 113400, Note_on_c, 0, 77, 37
2, 113520, Note_on_c, 0, 77, 0
2, 113640, Note_on_c, 0, 76, 34
2, 113760, Note_on_c, 0, 76, 0
2, 113880, Note_on_c, 0, 77, 38
2, 114000, Note_on_c, 0, 77, 0
2, 114120, Note_on_c, 0, 76, 36
2, 114240, Note_on_c, 0, 76, 0
2, 114360, Note_on_c, 0, 77, 39
2, 114480, Note_on_c, 0, 77, 0
2, 114600, Note_on_c, 0, 76, 37
2, 114720, Note_on_c, 0, 76, 0
2, 114840, Note_on_c, 0, 77, 41
2, 114960, Note_on_c, 0, 77, 0
2, 115080, Note_on_c, 0, 76, 38
2, 115200, Note_on_c, 0, 76, 0
2, 115320, Note_on_c, 0, 77, 42
2, 115440, Note_on_c, 0, 77, 0
2, 115560, Note_on_c, 0, 76, 38
2, 115680, Note_on_c, 0, 76, 0
2, 115800, Note_on_c, 0, 77, 41
2, 115920, Note_on_c, 0, 77, 0
2, 116040, Note_on_c, 0, 76, 37
2, 116160, Note_on_c, 0, 76, 0
2, 116280, Note_on_c, 0, 77, 40
2, 116400, Note_on_c, 0, 77, 0
2, 116520, Note_on_c, 0, 76, 37
2, 116640, Note_on_c, 0, 76, 0
2, 116760, Note_on_c, 0, 77, 39
2, 116880, Note_on_c, 0, 77, 0
2, 117000, Note_on_c, 0, 76, 36
2, 117120, Note_on_c, 0, 76, 0
2, 117240, Note_on_c, 0, 77, 37
2, 117360, Note_on_c, 0, 77, 0
2, 117480, Note_on_c, 0, 76, 34
2, 117600, Note_on_c, 0, 76, 0
2, 117720, Note_on_c, 0, 77, 37
2, 117840, Note_on_c, 0, 77, 0
2, 117960, Note_on_c, 0, 76, 34
2, 118080, Note_on_c, 0, 76, 0
2, 118200, Note_on_c, 0, 77, 37
2, 118320, Note_on_c, 0, 77, 0
2, 118440, Note_on_c, 0, 76, 34
2, 118560, Note_on_c, 0, 76, 0
2, 118680, Note_on_c, 0, 77, 37
2, 118800, Note_on_c, 0, 77, 0
2, 118920, Note_on_c, 0, 76, 34
2, 119040, Note_on_c, 0, 76, 0
2, 119160, Note_on_c, 0, 77, 42
2, 119280, Note_on_c, 0, 77, 0
2, 119400, Note_on_c, 0, 76, 38
2, 119520, Note_on_c, 0, 76, 0
2, 119640, Note_on_c, 0, 77, 41
2, 119760, Note_on_c, 0, 77, 0
2, 119880, Note_on_c, 0, 76, 37
2, 120000, Note_on_c, 0, 76, 0
2, 120120, Note_on_c, 0, 75, 39
2, 120240, Note_on_c, 0, 75, 0
2, 120360, Note_on_c, 0, 73, 35
2, 120480, Note_on_c, 0, 73, 0
2, 120600, Note_on_c, 0, 75, 38
2, 120720, Note_on_c, 0, 75, 0
2, 120840, Note_on_c, 0, 73, 34
2, 120960, Note_on_c, 0, 73, 0
2, 121080, Note_on_c, 0, 72, 42
2, 121200, Note_on_c, 0, 72, 0
2, 121320, Note_on_c, 0, 70, 38
2, 121440, Note_on_c, 0, 70, 0
2, 121560, Note_on_c, 0, 72, 41
2, 121680, Note_on_c, 0, 72, 0
2, 121800, Note_on_c, 0, 70, 37
2, 121920, Note_on_c, 0, 70, 0
2, 122040, Note_on_c, 0, 69, 39
2, 122160, Note_on_c, 0, 69, 0
2, 122280, Note_on_c, 0, 67, 35
2, 122400, Note_on_c, 0, 67, 0
2, 122520, Note_on_c, 0, 69, 38
2, 122640, Note_on_c, 0, 69, 0
2, 122760, Note_on_c, 0, 67, 34
2, 122880, Note_on_c, 0, 67, 0
2, 123000, Note_on_c, 0, 63, 37
2, 123120, Note_on_c, 0, 63, 0
2, 123240, Note_on_c, 0, 63, 34
2, 123360, Note_on_c, 0, 63, 0
2, 123480, Note_on_c, 0, 63, 37
2, 123600, Note_on_c, 0, 63, 0
2, 123720, Note_on_c, 0, 63, 34
2, 123840, Note_on_c, 0, 63, 0
2, 123960, Note_on_c, 0, 63, 37
2, 124080, Note_on_c, 0, 63, 0
2, 124200, Note_on_c, 0, 63, 34
2, 124320, Note_on_c, 0, 63, 0
2, 124440, Note_on_c, 0, 64, 37
2, 124560, Note_on_c, 0, 64, 0
2, 124680, Note_on_c, 0, 64, 34
2, 124800, Note_on_c, 0, 64, 0
2, 126960, Note_on_c, 0, 82, 35
2, 127080, Note_on_c, 0, 82, 0
2, 127080, Note_on_c, 0, 81, 35
2, 127200, Note_on_c, 0, 81, 0
2, 127200, Note_on_c, 0, 82, 40
2, 127320, Note_on_c, 0, 82, 0
2, 127440, Note_on_c, 0, 78, 37
2, 127560, Note_on_c, 0, 78, 0
2, 127560, Note_on_c, 0, 82, 31
2, 127680, Note_on_c, 0, 82, 0
2, 127680, Note_on_c, 0, 81, 38
2, 127800, Note_on_c, 0, 81, 0
2, 127800, Note_on_c, 0, 82, 41
2, 127920, Note_on_c, 0, 82, 0
2, 127920, Note_on_c, 0, 84, 46
2, 128520, Note_on_c, 0, 84, 0
2, 128520, Note_on_c, 0, 85, 42
2, 128640, Note_on_c, 0, 85, 0
2, 128640, Note_on_c, 0, 86, 51
2, 129000, Note_on_c, 0, 86, 0
2, 129000, Note_on_c, 0, 87, 51
2, 129120, Note_on_c, 0, 87, 0
2, 129120, Note_on_c, 0, 88, 57
2, 129960, Note_on_c, 0, 88, 0
2, 129960, Note_on_c, 0, 89, 49
2, 130080, Note_on_c, 0, 89, 0
2, 130080, Note_on_c, 0, 90, 57
2, 130440, Note_on_c, 0, 90, 0
2, 130440, Note_on_c, 0, 92, 46
2, 130560, Note_on_c, 0, 92, 0
2, 130560, Note_on_c, 0, 93, 32
2, 130680, Note_on_c, 0, 93, 0
2, 130680, Note_on_c, 0, 94, 27
2, 130800, Note_on_c, 0, 94, 0
2, 130800, Note_on_c, 0, 93, 32
2, 130920, Note_on_c, 0, 93, 0
2, 130920, Note_on_c, 0, 94, 28
2, 131040, Note_on_c, 0, 94, 0
2, 131040, Note_on_c, 0, 93, 32
2, 131160, Note_on_c, 0, 93, 0
2, 131160, Note_on_c, 0, 94, 29
2, 131280, Note_on_c, 0, 94, 0
2, 131280, Note_on_c, 0, 93, 32
2, 131400, Note_on_c, 0, 93, 0
2, 131400, Note_on_c, 0, 94, 28
2, 131520, Note_on_c, 0, 94, 0
2, 131520, Note_on_c, 0, 93, 32
2, 131640, Note_on_c, 0, 93, 0
2, 131640, Note_on_c, 0, 95, 29
2, 131760, Note_on_c, 0, 95, 0
2, 131760, Note_on_c, 0, 93, 32
2, 131880, Note_on_c, 0, 93, 0
2, 131880, Note_on_c, 0, 95, 28
2, 132000, Note_on_c, 0, 95, 0
2, 132000, Note_on_c, 0, 93, 32
2, 132120, Note_on_c, 0, 93, 0
2, 132120, Note_on_c, 0, 95, 28
2, 132240, Note_on_c, 0, 95, 0
2, 132240, Note_on_c, 0, 93, 32
2, 132360, Note_on_c, 0, 93, 0
2, 132360, Note_on_c, 0, 95, 28
2, 132480, Note_on_c, 0, 95, 0
2, 132480, Note_on_c, 0, 93, 32
2, 132600, Note_on_c, 0, 93, 0
2, 132600, Note_on_c, 0, 94, 27
2, 132720, Note_on_c, 0, 94, 0
2, 132720, Note_on_c, 0, 93, 32
2, 132840, Note_on_c, 0, 93, 0
2, 132840, Note_on_c, 0, 94, 28
2, 132960, Note_on_c, 0, 94, 0
2, 132960, Note_on_c, 0, 93, 32
2, 133080, Note_on_c, 0, 93, 0
2, 133080, Note_on_c, 0, 94, 29
2, 133200, Note_on_c, 0, 94, 0
2, 133200, Note_on_c, 0, 93, 32
2, 133320, Note_on_c, 0, 93, 0
2, 133320, Note_on_c, 0, 94, 28
2, 133440, Note_on_c, 0, 94, 0
2, 133440, Note_on_c, 0, 93, 32
2, 133560, Note_on_c, 0, 93, 0
2, 133560, Note_on_c, 0, 95, 29
2, 133680, Note_on_c, 0, 95, 0
2, 133680, Note_on_c, 0, 93, 32
2, 133800, Note_on_c, 0, 93, 0
2, 133800, Note_on_c, 0, 95, 28
2, 133920, Note_on_c, 0, 95, 0
2, 133920, Note_on_c, 0, 93, 32
2, 134040, Note_on_c, 0, 93, 0
2, 134040, Note_on_c, 0, 95, 28
2, 134160, Note_on_c, 0, 95, 0
2, 134160, Note_on_c, 0, 93, 32
2, 134280, Note_on_c, 0, 93, 0
2, 134280, Note_on_c, 0, 95, 28
2, 134400, Note_on_c, 0, 95, 0
2, 134400, Note_on_c, 0, 93, 32
2, 134520, Note_on_c, 0, 93, 0
2, 134520, Note_on_c, 0, 94, 27
2, 134640, Note_on_c, 0, 94, 0
2, 134640, Note_on_c, 0, 93, 32
2, 134760, Note_on_c, 0, 93, 0
2, 134760, Note_on_c, 0, 95, 28
2, 134880, Note_on_c, 0, 95, 0
2, 134880, Note_on_c, 0, 93, 32
2, 135000, Note_on_c, 0, 93, 0
2, 135000, Note_on_c, 0, 94, 29
2, 135120, Note_on_c, 0, 94, 0
2, 135120, Note_on_c, 0, 93, 32
2, 135240, Note_on_c, 0, 93, 0
2, 135240, Note_on_c, 0, 95, 28
2, 135360, Note_on_c, 0, 95, 0
2, 135360, Note_on_c, 0, 93, 32
2, 135480, Note_on_c, 0, 93, 0
2, 135480, Note_on_c, 0, 94, 29
2, 135600, Note_on_c, 0, 94, 0
2, 135600, Note_on_c, 0, 93, 32
2, 135720, Note_on_c, 0, 93, 0
2, 135720, Note_on_c, 0, 95, 28
2, 135840, Note_on_c, 0, 95, 0
2, 135840, Note_on_c, 0, 93, 32
2, 135960, Note_on_c, 0, 93, 0
2, 135960, Note_on_c, 0, 94, 28
2, 136080, Note_on_c, 0, 94, 0
2, 136080, Note_on_c, 0, 93, 32
2, 136200, Note_on_c, 0, 93, 0
2, 136200, Note_on_c, 0, 95, 28
2, 136320, Note_on_c, 0, 95, 0
2, 136320, Note_on_c, 0, 93, 32
2, 136440, Note_on_c, 0, 93, 0
2, 136440, Note_on_c, 0, 94, 27
2, 136560, Note_on_c, 0, 94, 0
2, 136560, Note_on_c, 0, 93, 32
2, 136680, Note_on_c, 0, 93, 0
2, 136680, Note_on_c, 0, 95, 28
2, 136800, Note_on_c, 0, 95, 0
2, 136800, Note_on_c, 0, 93, 32
2, 136920, Note_on_c, 0, 93, 0
2, 136920, Note_on_c, 0, 94, 29
2, 137040, Note_on_c, 0, 94, 0
2, 137040, Note_on_c, 0, 93, 32
2, 137160, Note_on_c, 0, 93, 0
2, 137160, Note_on_c, 0, 95, 28
2, 137280, Note_on_c, 0, 95, 0
2, 137280, Note_on_c, 0, 93, 32
2, 137400, Note_on_c, 0, 93, 0
2, 137400, Note_on_c, 0, 94, 29
2, 137520, Note_on_c, 0, 94, 0
2, 137520, Note_on_c, 0, 93, 32
2, 137640, Note_on_c, 0, 93, 0
2, 137640, Note_on_c, 0, 95, 28
2, 137760, Note_on_c, 0, 95, 0
2, 137760, Note_on_c, 0, 93, 32
2, 137880, Note_on_c, 0, 93, 0
2, 137880, Note_on_c, 0, 94, 28
2, 138000, Note_on_c, 0, 94, 0
2, 138000, Note_on_c, 0, 93, 32
2, 138120, Note_on_c, 0, 93, 0
2, 138120, Note_on_c, 0, 95, 28
2, 138240, Note_on_c, 0, 95, 0
2, 138300, Note_on_c, 0, 93, 30
2, 138360, Note_on_c, 0, 98, 36
2, 138420, Note_on_c, 0, 105, 40
2, 140160, Note_on_c, 0, 105, 0
2, 140160, Note_on_c, 0, 98, 0
2, 140160, Note_on_c, 0, 93, 0
2, 140160, End_track
3, 0, Start_track
3, 0, Title_t, "Piano left"
3, 0, Program_c, 0, 0
3, 1920, Note_on_c, 0, 64, 33
3, 2010, Note_on_c, 0, 64, 0
3, 2160, Note_on_c, 0, 65, 29
3, 2250, Note_on_c, 0, 65, 0
3, 2400, Note_on_c, 0, 67, 29
3, 2490, Note_on_c, 0, 67, 0
3, 2640, Note_on_c, 0, 69, 29
3, 2730, Note_on_c, 0, 69, 0
3, 2880, Note_on_c, 0, 64, 33
3, 2970, Note_on_c, 0, 64, 0
3, 3120, Note_on_c, 0, 65, 30
3, 3210, Note_on_c, 0, 65, 0
3, 3360, Note_on_c, 0, 67, 30
3, 3450, Note_on_c, 0, 67, 0
3, 3600, Note_on_c, 0, 69, 30
3, 3690, Note_on_c, 0, 69, 0
3, 3840, Note_on_c, 0, 70, 45
3, 3840, Note_on_c, 0, 64, 37
3, 3930, Note_on_c, 0, 64, 0
3, 4080, Note_on_c, 0, 65, 33
3, 4170, Note_on_c, 0, 65, 0
3, 4320, Note_on_c, 0, 67, 33
3, 4410, Note_on_c, 0, 67, 0
3, 4560, Note_on_c, 0, 69, 33
3, 4650, Note_on_c, 0, 69, 0
3, 4800, Note_on_c, 0, 64, 37
3, 4890, Note_on_c, 0, 64, 0
3, 5040, Note_on_c, 0, 65, 34
3, 5130, Note_on_c, 0, 65, 0
3, 5280, Note_on_c, 0, 67, 34
3, 5370, Note_on_c, 0, 67, 0
3, 5520, Note_on_c, 0, 69, 34
3, 5610, Note_on_c, 0, 69, 0
3, 5760, Note_on_c, 0, 70, 0
3, 5760, Note_on_c, 0, 72, 45
3, 5760, Note_on_c, 0, 64, 37
3, 5850, Note_on_c, 0, 64, 0
3, 6000, Note_on_c, 0, 65, 33
3, 6090, Note_on_c, 0, 65, 0
3, 6240, Note_on_c, 0, 67, 33
3, 6330, Note_on_c, 0, 67, 0
3, 6480, Note_on_c, 0, 69, 33
3, 6570, Note_on_c, 0, 69, 0
3, 6720, Note_on_c, 0, 64, 37
3, 6810, Note_on_c, 0, 64, 0
3, 6960, Note_on_c, 0, 65, 34
3, 7050, Note_on_c, 0, 65, 0
3, 7200, Note_on_c, 0, 67, 34
3, 7290, Note_on_c, 0, 67, 0
3, 7440, Note_on_c, 0, 69, 34
3, 7530, Note_on_c, 0, 69, 0
3, 7680, Note_on_c, 0, 72, 0
3, 7680, Note_on_c, 0, 70, 45
3, 7680, Note_on_c, 0, 64, 37
3, 7770, Note_on_c, 0, 64, 0
3, 7920, Note_on_c, 0, 65, 33
3, 8010, Note_on_c, 0, 65, 0
3, 8160, Note_on_c, 0, 67, 33
3, 8250, Note_on_c, 0, 67, 0
3, 8400, Note_on_c, 0, 69, 33
3, 8490, Note_on_c, 0, 69, 0
3, 8640, Note_on_c, 0, 64, 37
3, 8730, Note_on_c, 0, 64, 0
3, 8880, Note_on_c, 0, 65, 34
3, 8970, Note_on_c, 0, 65, 0
3, 9120, Note_on_c, 0, 67, 34
3, 9210, Note_on_c, 0, 67, 0
3, 9360, Note_on_c, 0, 69, 34
3, 9450, Note_on_c, 0, 69, 0
3, 9600, Note_on_c, 0, 70, 0
3, 9600, Note_on_c, 0, 73, 45
3, 9600, Note_on_c, 0, 64, 37
3, 9690, Note_on_c, 0, 64, 0
3, 9840, Note_on_c, 0, 65, 33
3, 9930, Note_on_c, 0, 65, 0
3, 10080, Note_on_c, 0, 67, 33
3, 10170, Note_on_c, 0, 67, 0
3, 10320, Note_on_c, 0, 69, 33
3, 10410, Note_on_c, 0, 69, 0
3, 10560, Note_on_c, 0, 64, 37
3, 10650, Note_on_c, 0, 64, 0
3, 10800, Note_on_c, 0, 65, 34
3, 10890, Note_on_c, 0, 65, 0
3, 11040, Note_on_c, 0, 67, 34
3, 11130, Note_on_c, 0, 67, 0
3, 11280, Note_on_c, 0, 69, 34
3, 11370, Note_on_c, 0, 69, 0
3, 11520, Note_on_c, 0, 73, 0
3, 11520, Note_on_c, 0, 74, 39
3, 11520, Note_on_c, 0, 62, 39
3, 11610, Note_on_c, 0, 74, 0
3, 11760, Note_on_c, 0, 72, 29
3, 11850, Note_on_c, 0, 72, 0
3, 12000, Note_on_c, 0, 70, 29
3, 12090, Note_on_c, 0, 70, 0
3, 12240, Note_on_c, 0, 69, 29
3, 12330, Note_on_c, 0, 69, 0
3, 12480, Note_on_c, 0, 72, 36
3, 12570, Note_on_c, 0, 72, 0
3, 12720, Note_on_c, 0, 70, 30
3, 12810, Note_on_c, 0, 70, 0
3, 12960, Note_on_c, 0, 69, 30
3, 13050, Note_on_c, 0, 69, 0
3, 13200, Note_on_c, 0, 67, 30
3, 13290, Note_on_c, 0, 67, 0
3, 13440, Note_on_c, 0, 62, 0
3, 13440, Note_on_c, 0, 62, 40
3, 13440, Note_on_c, 0, 74, 33
3, 13530, Note_on_c, 0, 74, 0
3, 13680, Note_on_c, 0, 72, 29
3, 13770, Note_on_c, 0, 72, 0
3, 13920, Note_on_c, 0, 70, 29
3, 14010, Note_on_c, 0, 70, 0
3, 14160, Note_on_c, 0, 69, 29
3, 14250, Note_on_c, 0, 69, 0
3, 14400, Note_on_c, 0, 72, 33
3, 14490, Note_on_c, 0, 72, 0
3, 14640, Note_on_c, 0, 70, 30
3, 14730, Note_on_c, 0, 70, 0
3, 14880, Note_on_c, 0, 69, 30
3, 14970, Note_on_c, 0, 69, 0
3, 15120, Note_on_c, 0, 67, 30
3, 15210, Note_on_c, 0, 67, 0
3, 15360, Note_on_c, 0, 62, 0
3, 15360, Note_on_c, 0, 62, 40
3, 15360, Note_on_c, 0, 69, 33
3, 15450, Note_on_c, 0, 69, 0
3, 15600, Note_on_c, 0, 72, 29
3, 15690, Note_on_c, 0, 72, 0
3, 15840, Note_on_c, 0, 70, 29
3, 15930, Note_on_c, 0, 70, 0
3, 16080, Note_on_c, 0, 67, 29
3, 16170, Note_on_c, 0, 67, 0
3, 16320, Note_on_c, 0, 69, 33
3, 16410, Note_on_c, 0, 69, 0
3, 16560, Note_on_c, 0, 65, 30
3, 16650, Note_on_c, 0, 65, 0
3, 16800, Note_on_c, 0, 67, 30
3, 16890, Note_on_c, 0, 67, 0
3, 17040, Note_on_c, 0, 64, 30
3, 17130, Note_on_c, 0, 64, 0
3, 17280, Note_on_c, 0, 62, 0
3, 17280, Note_on_c, 0, 62, 40
3, 17280, Note_on_c, 0, 69, 33
3, 17370, Note_on_c, 0, 69, 0
3, 17520, Note_on_c, 0, 72, 29
3, 17610, Note_on_c, 0, 72, 0
3, 17760, Note_on_c, 0, 70, 29
3, 17850, Note_on_c, 0, 70, 0
3, 18000, Note_on_c, 0, 67, 29
3, 18090, Note_on_c, 0, 67, 0
3, 18240, Note_on_c, 0, 69, 33
3, 18330, Note_on_c, 0, 69, 0
3, 18480, Note_on_c, 0, 65, 30
3, 18570, Note_on_c, 0, 65, 0
3, 18720, Note_on_c, 0, 69, 32
3, 18810, Note_on_c, 0, 69, 0
3, 18960, Note_on_c, 0, 74, 33
3, 19050, Note_on_c, 0, 74, 0
3, 19200, Note_on_c, 0, 62, 0
3, 19200, Note_on_c, 0, 73, 51
3, 19320, Note_on_c, 0, 73, 0
3, 19440, Note_on_c, 0, 81, 43
3, 19560, Note_on_c, 0, 81, 0
3, 19680, Note_on_c, 0, 73, 37
3, 19800, Note_on_c, 0, 73, 0
3, 19920, Note_on_c, 0, 81, 39
3, 20040, Note_on_c, 0, 81, 0
3, 20160, Note_on_c, 0, 73, 49
3, 20280, Note_on_c, 0, 73, 0
3, 20400, Note_on_c, 0, 79, 48
3, 20520, Note_on_c, 0, 79, 0
3, 20640, Note_on_c, 0, 73, 43
3, 20760, Note_on_c, 0, 73, 0
3, 20880, Note_on_c, 0, 79, 45
3, 21000, Note_on_c, 0, 79, 0
3, 21120, Note_on_c, 0, 70, 46
3, 21120, Note_on_c, 0, 73, 54
3, 21240, Note_on_c, 0, 73, 0
3, 21360, Note_on_c, 0, 82, 44
3, 21480, Note_on_c, 0, 82, 0
3, 21600, Note_on_c, 0, 73, 37
3, 21720, Note_on_c, 0, 73, 0
3, 21840, Note_on_c, 0, 82, 36
3, 21960, Note_on_c, 0, 82, 0
3, 22080, Note_on_c, 0, 73, 44
3, 22200, Note_on_c, 0, 73, 0
3, 22320, Note_on_c, 0, 82, 41
3, 22440, Note_on_c, 0, 82, 0
3, 22560, Note_on_c, 0, 73, 35
3, 22680, Note_on_c, 0, 73, 0
3, 22800, Note_on_c, 0, 82, 35
3, 22920, Note_on_c, 0, 82, 0
3, 23040, Note_on_c, 0, 70, 0
3, 23040, Note_on_c, 0, 73, 51
3, 23160, Note_on_c, 0, 73, 0
3, 23280, Note_on_c, 0, 81, 43
3, 23400, Note_on_c, 0, 81, 0
3, 23520, Note_on_c, 0, 73, 37
3, 23640, Note_on_c, 0, 73, 0
3, 23760, Note_on_c, 0, 81, 37
3, 23880, Note_on_c, 0, 81, 0
3, 24000, Note_on_c, 0, 73, 46
3, 24120, Note_on_c, 0, 73, 0
3, 24240, Note_on_c, 0, 79, 45
3, 24360, Note_on_c, 0, 79, 0
3, 24480, Note_on_c, 0, 73, 39
3, 24600, Note_on_c, 0, 73, 0
3, 24720, Note_on_c, 0, 79, 40
3, 24840, Note_on_c, 0, 79, 0
3, 24960, Note_on_c, 0, 66, 39
3, 24960, Note_on_c, 0, 70, 46
3, 24960, Note_on_c, 0, 73, 54
3, 25080, Note_on_c, 0, 73, 0
3, 25200, Note_on_c, 0, 82, 44
3, 25320, Note_on_c, 0, 82, 0
3, 25440, Note_on_c, 0, 73, 36
3, 25560, Note_on_c, 0, 73, 0
3, 25680, Note_on_c, 0, 82, 36
3, 25800, Note_on_c, 0, 82, 0
3, 25920, Note_on_c, 0, 70, 0
3, 25920, Note_on_c, 0, 66, 0
3, 25920, Note_on_c, 0, 63, 36
3, 25920, Note_on_c, 0, 66, 43
3, 25920, Note_on_c, 0, 70, 43
3, 26040, Note_on_c, 0, 70, 0
3, 26160, Note_on_c, 0, 78, 40
3, 26280, Note_on_c, 0, 78, 0
3, 26400, Note_on_c, 0, 70, 34
3, 26520, Note_on_c, 0, 70, 0
3, 26640, Note_on_c, 0, 78, 33
3, 26760, Note_on_c, 0, 78, 0
3, 26880, Note_on_c, 0, 66, 0
3, 26880, Note_on_c, 0, 63, 0
3, 26880, Note_on_c, 0, 66, 39
3, 26880, Note_on_c, 0, 70, 46
3, 26880, Note_on_c, 0, 73, 54
3, 27000, Note_on_c, 0, 73, 0
3, 27120, Note_on_c, 0, 82, 44
3, 27240, Note_on_c, 0, 82, 0
3, 27360, Note_on_c, 0, 73, 36
3, 27480, Note_on_c, 0, 73, 0
3, 27600, Note_on_c, 0, 82, 36
3, 27720, Note_on_c, 0, 82, 0
3, 27840, Note_on_c, 0, 70, 0
3, 27840, Note_on_c, 0, 66, 0
3, 27840, Note_on_c, 0, 63, 36
3, 27840, Note_on_c, 0, 66, 43
3, 27840, Note_on_c, 0, 70, 43
3, 27960, Note_on_c, 0, 70, 0
3, 28080, Note_on_c, 0, 78, 40
3, 28200, Note_on_c, 0, 78, 0
3, 28320, Note_on_c, 0, 70, 34
3, 28440, Note_on_c, 0, 70, 0
3, 28560, Note_on_c, 0, 78, 33
3, 28680, Note_on_c, 0, 78, 0
3, 28800, Note_on_c, 0, 66, 0
3, 28800, Note_on_c, 0, 63, 0
3, 28800, Note_on_c, 0, 59, 36
3, 28800, Note_on_c, 0, 63, 43
3, 28800, Note_on_c, 0, 66, 47
3, 28920, Note_on_c, 0, 66, 0
3, 29040, Note_on_c, 0, 75, 39
3, 29160, Note_on_c, 0, 75, 0
3, 29280, Note_on_c, 0, 66, 33
3, 29400, Note_on_c, 0, 66, 0
3, 29520, Note_on_c, 0, 75, 33
3, 29640, Note_on_c, 0, 75, 0
3, 29760, Note_on_c, 0, 66, 40
3, 29880, Note_on_c, 0, 66, 0
3, 30000, Note_on_c, 0, 75, 38
3, 30120, Note_on_c, 0, 75, 0
3, 30240, Note_on_c, 0, 66, 33
3, 30360, Note_on_c, 0, 66, 0
3, 30480, Note_on_c, 0, 75, 33
3, 30600, Note_on_c, 0, 75, 0
3, 30720, Note_on_c, 0, 63, 0
3, 30720, Note_on_c, 0, 59, 0
3, 30720, Note_on_c, 0, 63, 46
3, 30720, Note_on_c, 0, 66, 54
3, 30840, Note_on_c, 0, 66, 0
3, 30960, Note_on_c, 0, 75, 42
3, 31080, Note_on_c, 0, 75, 0
3, 31200, Note_on_c, 0, 66, 33
3, 31320, Note_on_c, 0, 66, 0
3, 31440, Note_on_c, 0, 75, 32
3, 31560, Note_on_c, 0, 75, 0
3, 31680, Note_on_c, 0, 63, 0
3, 31680, Note_on_c, 0, 61, 30
3, 31680, Note_on_c, 0, 63, 36
3, 31680, Note_on_c, 0, 66, 36
3, 31800, Note_on_c, 0, 66, 0
3, 31920, Note_on_c, 0, 75, 34
3, 32040, Note_on_c, 0, 75, 0
3, 32160, Note_on_c, 0, 66, 28
3, 32280, Note_on_c, 0, 66, 0
3, 32400, Note_on_c, 0, 75, 28
3, 32520, Note_on_c, 0, 75, 0
3, 32640, Note_on_c, 0, 63, 0
3, 32640, Note_on_c, 0, 61, 0
3, 32640, Note_on_c, 0, 59, 33
3, 32640, Note_on_c, 0, 63, 39
3, 32640, Note_on_c, 0, 66, 45
3, 32760, Note_on_c, 0, 66, 0
3, 32880, Note_on_c, 0, 75, 33
3, 33000, Note_on_c, 0, 75, 0
3, 33120, Note_on_c, 0, 66, 27
3, 33240, Note_on_c, 0, 66, 0
3, 33360, Note_on_c, 0, 75, 27
3, 33480, Note_on_c, 0, 75, 0
3, 33600, Note_on_c, 0, 66, 32
3, 33720, Note_on_c, 0, 66, 0
3, 33840, Note_on_c, 0, 75, 30
3, 33960, Note_on_c, 0, 75, 0
3, 34080, Note_on_c, 0, 66, 25
3, 34200, Note_on_c, 0, 66, 0
3, 34320, Note_on_c, 0, 75, 25
3, 34440, Note_on_c, 0, 75, 0
3, 34560, Note_on_c, 0, 63, 0
3, 34560, Note_on_c, 0, 59, 0
3, 34560, Note_on_c, 0, 63, 46
3, 34560, Note_on_c, 0, 66, 54
3, 34680, Note_on_c, 0, 66, 0
3, 34800, Note_on_c, 0, 75, 42
3, 34920, Note_on_c, 0, 75, 0
3, 35040, Note_on_c, 0, 66, 33
3, 35160, Note_on_c, 0, 66, 0
3, 35280, Note_on_c, 0, 75, 32
3, 35400, Note_on_c, 0, 75, 0
3, 35520, Note_on_c, 0, 63, 0
3, 35520, Note_on_c, 0, 61, 30
3, 35520, Note_on_c, 0, 63, 36
3, 35520, Note_on_c, 0, 66, 36
3, 35640, Note_on_c, 0, 66, 0
3, 35760, Note_on_c, 0, 75, 34
3, 35880, Note_on_c, 0, 75, 0
3, 36000, Note_on_c, 0, 66, 28
3, 36120, Note_on_c, 0, 66, 0
3, 36240, Note_on_c, 0, 75, 28
3, 36360, Note_on_c, 0, 75, 0
3, 36480, Note_on_c, 0, 63, 0
3, 36480, Note_on_c, 0, 61, 0
3, 36480, Note_on_c, 0, 60, 28
3, 36480, Note_on_c, 0, 63, 33
3, 36480, Note_on_c, 0, 66, 38
3, 36600, Note_on_c, 0, 66, 0
3, 36720, Note_on_c, 0, 75, 36
3, 36840, Note_on_c, 0, 75, 0
3, 36960, Note_on_c, 0, 66, 41
3, 37080, Note_on_c, 0, 66, 0
3, 37200, Note_on_c, 0, 75, 44
3, 37320, Note_on_c, 0, 75, 0
3, 37440, Note_on_c, 0, 63, 0
3, 37440, Note_on_c, 0, 60, 0
3, 37440, Note_on_c, 0, 61, 39
3, 37440, Note_on_c, 0, 63, 39
3, 37440, Note_on_c, 0, 66, 43
3, 37560, Note_on_c, 0, 66, 0
3, 37680, Note_on_c, 0, 77, 39
3, 37800, Note_on_c, 0, 77, 0
3, 37920, Note_on_c, 0, 63, 0
3, 37920, Note_on_c, 0, 61, 0
3, 37920, Note_on_c, 0, 58, 36
3, 37920, Note_on_c, 0, 66, 30
3, 38040, Note_on_c, 0, 66, 0
3, 38160, Note_on_c, 0, 77, 29
3, 38280, Note_on_c, 0, 77, 0
3, 38400, Note_on_c, 0, 58, 0
3, 38400, Note_on_c, 0, 60, 29
3, 38400, Note_on_c, 0, 63, 35
3, 38400, Note_on_c, 0, 66, 40
3, 38520, Note_on_c, 0, 66, 0
3, 38640, Note_on_c, 0, 75, 40
3, 38760, Note_on_c, 0, 75, 0
3, 38880, Note_on_c, 0, 66, 36
3, 39000, Note_on_c, 0, 66, 0
3, 39120, Note_on_c, 0, 75, 40
3, 39240, Note_on_c, 0, 75, 0
3, 39360, Note_on_c, 0, 63, 0
3, 39360, Note_on_c, 0, 60, 0
3, 39360, Note_on_c, 0, 61, 39
3, 39360, Note_on_c, 0, 63, 39
3, 39360, Note_on_c, 0, 66, 43
3, 39480, Note_on_c, 0, 66, 0
3, 39600, Note_on_c, 0, 77, 39
3, 39720, Note_on_c, 0, 77, 0
3, 39840, Note_on_c, 0, 63, 0
3, 39840, Note_on_c, 0, 61, 0
3, 39840, Note_on_c, 0, 58, 36
3, 39840, Note_on_c, 0, 66, 30
3, 39960, Note_on_c, 0, 66, 0
3, 40080, Note_on_c, 0, 77, 29
3, 40200, Note_on_c, 0, 77, 0
3, 40320, Note_on_c, 0, 58, 0
3, 40320, Note_on_c, 0, 54, 34
3, 40320, Note_on_c, 0, 60, 47
3, 40440, Note_on_c, 0, 60, 0
3, 40560, Note_on_c, 0, 62, 35
3, 40680, Note_on_c, 0, 62, 0
3, 40800, Note_on_c, 0, 54, 0
3, 40800, Note_on_c, 0, 60, 33
3, 40920, Note_on_c, 0, 60, 0
3, 41040, Note_on_c, 0, 62, 33
3, 41160, Note_on_c, 0, 62, 0
3, 41280, Note_on_c, 0, 50, 34
3, 41280, Note_on_c, 0, 60, 40
3, 41400, Note_on_c, 0, 60, 0
3, 41520, Note_on_c, 0, 62, 37
3, 41640, Note_on_c, 0, 62, 0
3, 41760, Note_on_c, 0, 50, 0
3, 41760, Note_on_c, 0, 60, 33
3, 41880, Note_on_c, 0, 60, 0
3, 42000, Note_on_c, 0, 62, 33
3, 42120, Note_on_c, 0, 62, 0
3, 42240, Note_on_c, 0, 52, 34
3, 42240, Note_on_c, 0, 60, 47
3, 42360, Note_on_c, 0, 60, 0
3, 42480, Note_on_c, 0, 62, 35
3, 42600, Note_on_c, 0, 62, 0
3, 42720, Note_on_c, 0, 52, 0
3, 42720, Note_on_c, 0, 60, 33
3, 42840, Note_on_c, 0, 60, 0
3, 42960, Note_on_c, 0, 62, 33
3, 43080, Note_on_c, 0, 62, 0
3, 43200, Note_on_c, 0, 60, 40
3, 43320, Note_on_c, 0, 60, 0
3, 43440, Note_on_c, 0, 62, 37
3, 43560, Note_on_c, 0, 62, 0
3, 43680, Note_on_c, 0, 52, 34
3, 43680, Note_on_c, 0, 60, 33
3, 43800, Note_on_c, 0, 60, 0
3, 43920, Note_on_c, 0, 62, 33
3, 44040, Note_on_c, 0, 62, 0
3, 44160, Note_on_c, 0, 52, 0
3, 44160, Note_on_c, 0, 54, 34
3, 44160, Note_on_c, 0, 60, 47
3, 44280, Note_on_c, 0, 60, 0
3, 44400, Note_on_c, 0, 62, 35
3, 44520, Note_on_c, 0, 62, 0
3, 44640, Note_on_c, 0, 54, 0
3, 44640, Note_on_c, 0, 60, 33
3, 44760, Note_on_c, 0, 60, 0
3, 44880, Note_on_c, 0, 62, 33
3, 45000, Note_on_c, 0, 62, 0
3, 45120, Note_on_c, 0, 50, 34
3, 45120, Note_on_c, 0, 60, 40
3, 45240, Note_on_c, 0, 60, 0
3, 45360, Note_on_c, 0, 62, 37
3, 45480, Note_on_c, 0, 62, 0
3, 45600, Note_on_c, 0, 50, 0
3, 45600, Note_on_c, 0, 60, 33
3, 45720, Note_on_c, 0, 60, 0
3, 45840, Note_on_c, 0, 62, 33
3, 45960, Note_on_c, 0, 62, 0
3, 46080, Note_on_c, 0, 52, 34
3, 46080, Note_on_c, 0, 60, 47
3, 46200, Note_on_c, 0, 60, 0
3, 46320, Note_on_c, 0, 62, 34
3, 46440, Note_on_c, 0, 62, 0
3, 46560, Note_on_c, 0, 52, 0
3, 46560, Note_on_c, 0, 60, 31
3, 46680, Note_on_c, 0, 60, 0
3, 46800, Note_on_c, 0, 62, 30
3, 46920, Note_on_c, 0, 62, 0
3, 47040, Note_on_c, 0, 60, 36
3, 47160, Note_on_c, 0, 60, 0
3, 47280, Note_on_c, 0, 62, 32
3, 47400, Note_on_c, 0, 62, 0
3, 47520, Note_on_c, 0, 60, 28
3, 47640, Note_on_c, 0, 60, 0
3, 47760, Note_on_c, 0, 62, 27
3, 47880, Note_on_c, 0, 62, 0
3, 48000, Note_on_c, 0, 52, 34
3, 48000, Note_on_c, 0, 60, 47
3, 48120, Note_on_c, 0, 60, 0
3, 48240, Note_on_c, 0, 62, 35
3, 48360, Note_on_c, 0, 62, 0
3, 48480, Note_on_c, 0, 52, 0
3, 48480, Note_on_c, 0, 60, 33
3, 48600, Note_on_c, 0, 60, 0
3, 48720, Note_on_c, 0, 62, 33
3, 48840, Note_on_c, 0, 62, 0
3, 48960, Note_on_c, 0, 48, 34
3, 48960, Note_on_c, 0, 60, 40
3, 49080, Note_on_c, 0, 60, 0
3, 49200, Note_on_c, 0, 62, 37
3, 49320, Note_on_c, 0, 62, 0
3, 49440, Note_on_c, 0, 48, 0
3, 49440, Note_on_c, 0, 60, 33
3, 49560, Note_on_c, 0, 60, 0
3, 49680, Note_on_c, 0, 62, 33
3, 49800, Note_on_c, 0, 62, 0
3, 49920, Note_on_c, 0, 50, 34
3, 49920, Note_on_c, 0, 58, 47
3, 50040, Note_on_c, 0, 58, 0
3, 50160, Note_on_c, 0, 60, 33
3, 50280, Note_on_c, 0, 60, 0
3, 50400, Note_on_c, 0, 50, 0
3, 50400, Note_on_c, 0, 58, 38
3, 50520, Note_on_c, 0, 58, 0
3, 50640, Note_on_c, 0, 60, 33
3, 50760, Note_on_c, 0, 60, 0
3, 50880, Note_on_c, 0, 58, 43
3, 51000, Note_on_c, 0, 58, 0
3, 51120, Note_on_c, 0, 60, 32
3, 51240, Note_on_c, 0, 60, 0
3, 51360, Note_on_c, 0, 58, 40
3, 51360, Note_on_c, 0, 50, 40
3, 51480, Note_on_c, 0, 58, 0
3, 51600, Note_on_c, 0, 60, 33
3, 51720, Note_on_c, 0, 60, 0
3, 51840, Note_on_c, 0, 50, 0
3, 51840, Note_on_c, 0, 52, 34
3, 51840, Note_on_c, 0, 60, 47
3, 51960, Note_on_c, 0, 60, 0
3, 52080, Note_on_c, 0, 62, 35
3, 52200, Note_on_c, 0, 62, 0
3, 52320, Note_on_c, 0, 52, 0
3, 52320, Note_on_c, 0, 60, 33
3, 52440, Note_on_c, 0, 60, 0
3, 52560, Note_on_c, 0, 62, 33
3, 52680, Note_on_c, 0, 62, 0
3, 52800, Note_on_c, 0, 48, 34
3, 52800, Note_on_c, 0, 60, 40
3, 52920, Note_on_c, 0, 60, 0
3, 53040, Note_on_c, 0, 62, 37
3, 53160, Note_on_c, 0, 62, 0
3, 53280, Note_on_c, 0, 48, 0
3, 53280, Note_on_c, 0, 60, 33
3, 53400, Note_on_c, 0, 60, 0
3, 53520, Note_on_c, 0, 62, 33
3, 53640, Note_on_c, 0, 62, 0
3, 53760, Note_on_c, 0, 50, 34
3, 53760, Note_on_c, 0, 58, 47
3, 53880, Note_on_c, 0, 58, 0
3, 54000, Note_on_c, 0, 60, 34
3, 54120, Note_on_c, 0, 60, 0
3, 54240, Note_on_c, 0, 58, 31
3, 54360, Note_on_c, 0, 58, 0
3, 54480, Note_on_c, 0, 60, 30
3, 54600, Note_on_c, 0, 60, 0
3, 54720, Note_on_c, 0, 58, 36
3, 54840, Note_on_c, 0, 58, 0
3, 54960, Note_on_c, 0, 60, 32
3, 55080, Note_on_c, 0, 60, 0
3, 55200, Note_on_c, 0, 58, 28
3, 55320, Note_on_c, 0, 58, 0
3, 55440, Note_on_c, 0, 60, 27
3, 55560, Note_on_c, 0, 60, 0
3, 55680, Note_on_c, 0, 50, 0
3, 55680, Note_on_c, 0, 50, 28
3, 55680, Note_on_c, 0, 62, 42
3, 55770, Note_on_c, 0, 62, 0
3, 55920, Note_on_c, 0, 60, 33
3, 56010, Note_on_c, 0, 60, 0
3, 56160, Note_on_c, 0, 58, 33
3, 56250, Note_on_c, 0, 58, 0
3, 56400, Note_on_c, 0, 57, 33
3, 56490, Note_on_c, 0, 57, 0
3, 56640, Note_on_c, 0, 60, 37
3, 56730, Note_on_c, 0, 60, 0
3, 56880, Note_on_c, 0, 58, 34
3, 56970, Note_on_c, 0, 58, 0
3, 57120, Note_on_c, 0, 57, 34
3, 57210, Note_on_c, 0, 57, 0
3, 57360, Note_on_c, 0, 55, 34
3, 57450, Note_on_c, 0, 55, 0
3, 57600, Note_on_c, 0, 50, 0
3, 57600, Note_on_c, 0, 50, 35
3, 57600, Note_on_c, 0, 62, 42
3, 57690, Note_on_c, 0, 62, 0
3, 57840, Note_on_c, 0, 60, 33
3, 57930, Note_on_c, 0, 60, 0
3, 58080, Note_on_c, 0, 58, 33
3, 58170, Note_on_c, 0, 58, 0
3, 58320, Note_on_c, 0, 57, 33
3, 58410, Note_on_c, 0, 57, 0
3, 58560, Note_on_c, 0, 60, 37
3, 58650, Note_on_c, 0, 60, 0
3, 58800, Note_on_c, 0, 58, 34
3, 58890, Note_on_c, 0, 58, 0
3, 59040, Note_on_c, 0, 57, 34
3, 59130, Note_on_c, 0, 57, 0
3, 59280, Note_on_c, 0, 55, 34
3, 59370, Note_on_c, 0, 55, 0
3, 59520, Note_on_c, 0, 50, 0
3, 59520, Note_on_c, 0, 55, 37
3, 59640, Note_on_c, 0, 55, 0
3, 59760, Note_on_c, 0, 48, 32
3, 59880, Note_on_c, 0, 48, 0
3, 60000, Note_on_c, 0, 43, 32
3, 60120, Note_on_c, 0, 43, 0
3, 60240, Note_on_c, 0, 36, 32
3, 60360, Note_on_c, 0, 36, 0
3, 60480, Note_on_c, 0, 43, 32
3, 60600, Note_on_c, 0, 43, 0
3, 60720, Note_on_c, 0, 48, 32
3, 60840, Note_on_c, 0, 48, 0
3, 60960, Note_on_c, 0, 57, 33
3, 61080, Note_on_c, 0, 57, 0
3, 61200, Note_on_c, 0, 53, 36
3, 61320, Note_on_c, 0, 53, 0
3, 61440, Note_on_c, 0, 55, 37
3, 61560, Note_on_c, 0, 55, 0
3, 61680, Note_on_c, 0, 48, 32
3, 61800, Note_on_c, 0, 48, 0
3, 61920, Note_on_c, 0, 43, 32
3, 62040, Note_on_c, 0, 43, 0
3, 62160, Note_on_c, 0, 36, 32
3, 62280, Note_on_c, 0, 36, 0
3, 62400, Note_on_c, 0, 43, 32
3, 62520, Note_on_c, 0, 43, 0
3, 62640, Note_on_c, 0, 48, 32
3, 62760, Note_on_c, 0, 48, 0
3, 62880, Note_on_c, 0, 57, 33
3, 63000, Note_on_c, 0, 57, 0
3, 63120, Note_on_c, 0, 53, 36
3, 63240, Note_on_c, 0, 53, 0
3, 63360, Note_on_c, 0, 62, 36
3, 63450, Note_on_c, 0, 62, 0
3, 63480, Note_on_c, 0, 60, 27
3, 63600, Note_on_c, 0, 60, 0
3, 63600, Note_on_c, 0, 63, 30
3, 63690, Note_on_c, 0, 63, 0
3, 63720, Note_on_c, 0, 60, 27
3, 63840, Note_on_c, 0, 60, 0
3, 63840, Note_on_c, 0, 65, 30
3, 63930, Note_on_c, 0, 65, 0
3, 63960, Note_on_c, 0, 60, 27
3, 64080, Note_on_c, 0, 60, 0
3, 64080, Note_on_c, 0, 67, 30
3, 64170, Note_on_c, 0, 67, 0
3, 64200, Note_on_c, 0, 60, 27
3, 64320, Note_on_c, 0, 60, 0
3, 64320, Note_on_c, 0, 62, 38
3, 64410, Note_on_c, 0, 62, 0
3, 64440, Note_on_c, 0, 60, 27
3, 64560, Note_on_c, 0, 60, 0
3, 64560, Note_on_c, 0, 63, 31
3, 64650, Note_on_c, 0, 63, 0
3, 64680, Note_on_c, 0, 60, 27
3, 64800, Note_on_c, 0, 60, 0
3, 64800, Note_on_c, 0, 65, 35
3, 64890, Note_on_c, 0, 65, 0
3, 64920, Note_on_c, 0, 60, 27
3, 65040, Note_on_c, 0, 60, 0
3, 65040, Note_on_c, 0, 67, 36
3, 65130, Note_on_c, 0, 67, 0
3, 65160, Note_on_c, 0, 60, 27
3, 65280, Note_on_c, 0, 60, 0
3, 65280, Note_on_c, 0, 62, 40
3, 65370, Note_on_c, 0, 62, 0
3, 65400, Note_on_c, 0, 60, 30
3, 65520, Note_on_c, 0, 60, 0
3, 65520, Note_on_c, 0, 63, 34
3, 65610, Note_on_c, 0, 63, 0
3, 65640, Note_on_c, 0, 60, 30
3, 65760, Note_on_c, 0, 60, 0
3, 65760, Note_on_c, 0, 65, 34
3, 65850, Note_on_c, 0, 65, 0
3, 65880, Note_on_c, 0, 60, 30
3, 66000, Note_on_c, 0, 60, 0
3, 66000, Note_on_c, 0, 67, 36
3, 66090, Note_on_c, 0, 67, 0
3, 66120, Note_on_c, 0, 60, 32
3, 66240, Note_on_c, 0, 60, 0
3, 66240, Note_on_c, 0, 62, 48
3, 66330, Note_on_c, 0, 62, 0
3, 66360, Note_on_c, 0, 60, 34
3, 66480, Note_on_c, 0, 60, 0
3, 66480, Note_on_c, 0, 63, 41
3, 66570, Note_on_c, 0, 63, 0
3, 66600, Note_on_c, 0, 60, 36
3, 66720, Note_on_c, 0, 60, 0
3, 66720, Note_on_c, 0, 65, 48
3, 66810, Note_on_c, 0, 65, 0
3, 66840, Note_on_c, 0, 60, 37
3, 66960, Note_on_c, 0, 60, 0
3, 66960, Note_on_c, 0, 67, 51
3, 67050, Note_on_c, 0, 67, 0
3, 67080, Note_on_c, 0, 60, 37
3, 67200, Note_on_c, 0, 60, 0
3, 67200, Note_on_c, 0, 62, 50
3, 67290, Note_on_c, 0, 62, 0
3, 67320, Note_on_c, 0, 60, 37
3, 67440, Note_on_c, 0, 60, 0
3, 67440, Note_on_c, 0, 63, 42
3, 67530, Note_on_c, 0, 63, 0
3, 67560, Note_on_c, 0, 60, 37
3, 67680, Note_on_c, 0, 60, 0
3, 67680, Note_on_c, 0, 65, 50
3, 67770, Note_on_c, 0, 65, 0
3, 67800, Note_on_c, 0, 60, 46
3, 67920, Note_on_c, 0, 60, 0
3, 67920, Note_on_c, 0, 67, 46
3, 68010, Note_on_c, 0, 67, 0
3, 68040, Note_on_c, 0, 60, 45
3, 68160, Note_on_c, 0, 60, 0
3, 68160, Note_on_c, 0, 67, 49
3, 68250, Note_on_c, 0, 67, 0
3, 68280, Note_on_c, 0, 58, 37
3, 68400, Note_on_c, 0, 58, 0
3, 68400, Note_on_c, 0, 67, 43
3, 68490, Note_on_c, 0, 67, 0
3, 68520, Note_on_c, 0, 58, 35
3, 68640, Note_on_c, 0, 58, 0
3, 68640, Note_on_c, 0, 67, 39
3, 68730, Note_on_c, 0, 67, 0
3, 68760, Note_on_c, 0, 58, 30
3, 68880, Note_on_c, 0, 58, 0
3, 68880, Note_on_c, 0, 67, 41
3, 68970, Note_on_c, 0, 67, 0
3, 69000, Note_on_c, 0, 58, 30
3, 69120, Note_on_c, 0, 58, 0
3, 69120, Note_on_c, 0, 67, 40
3, 69210, Note_on_c, 0, 67, 0
3, 69240, Note_on_c, 0, 58, 30
3, 69360, Note_on_c, 0, 58, 0
3, 69360, Note_on_c, 0, 67, 34
3, 69450, Note_on_c, 0, 67, 0
3, 69480, Note_on_c, 0, 58, 30
3, 69600, Note_on_c, 0, 58, 0
3, 69600, Note_on_c, 0, 65, 48
3, 69720, Note_on_c, 0, 58, 43
3, 69840, Note_on_c, 0, 58, 0
3, 69840, Note_on_c, 0, 65, 0
3, 69840, Note_on_c, 0, 65, 37
3, 69930, Note_on_c, 0, 65, 0
3, 69960, Note_on_c, 0, 58, 40
3, 70080, Note_on_c, 0, 58, 0
3, 70080, Note_on_c, 0, 64, 49
3, 70200, Note_on_c, 0, 58, 32
3, 70320, Note_on_c, 0, 58, 0
3, 70320, Note_on_c, 0, 64, 0
3, 70320, Note_on_c, 0, 64, 38
3, 70410, Note_on_c, 0, 64, 0
3, 70440, Note_on_c, 0, 58, 35
3, 70560, Note_on_c, 0, 58, 0
3, 70560, Note_on_c, 0, 65, 39
3, 70680, Note_on_c, 0, 58, 30
3, 70800, Note_on_c, 0, 58, 0
3, 70800, Note_on_c, 0, 65, 0
3, 70800, Note_on_c, 0, 65, 41
3, 70890, Note_on_c, 0, 65, 0
3, 70920, Note_on_c, 0, 58, 30
3, 70980, Note_on_c, 0, 58, 0
3, 70980, Note_on_c, 0, 61, 37
3, 71010, Note_on_c, 0, 64, 37
3, 71040, Note_on_c, 0, 58, 39
3, 71040, Note_on_c, 0, 66, 44
3, 71160, Note_on_c, 0, 58, 0
3, 71160, Note_on_c, 0, 60, 37
3, 71280, Note_on_c, 0, 60, 0
3, 71280, Note_on_c, 0, 58, 34
3, 71400, Note_on_c, 0, 58, 0
3, 71400, Note_on_c, 0, 60, 32
3, 71520, Note_on_c, 0, 60, 0
3, 71520, Note_on_c, 0, 58, 34
3, 71640, Note_on_c, 0, 58, 0
3, 71640, Note_on_c, 0, 60, 30
3, 71760, Note_on_c, 0, 60, 0
3, 71760, Note_on_c, 0, 58, 33
3, 71880, Note_on_c, 0, 58, 0
3, 71880, Note_on_c, 0, 60, 30
3, 72000, Note_on_c, 0, 60, 0
3, 72000, Note_on_c, 0, 58, 33
3, 72120, Note_on_c, 0, 58, 0
3, 72120, Note_on_c, 0, 60, 30
3, 72240, Note_on_c, 0, 60, 0
3, 72240, Note_on_c, 0, 58, 33
3, 72360, Note_on_c, 0, 58, 0
3, 72360, Note_on_c, 0, 60, 31
3, 72480, Note_on_c, 0, 60, 0
3, 72480, Note_on_c, 0, 58, 32
3, 72600, Note_on_c, 0, 58, 0
3, 72600, Note_on_c, 0, 60, 31
3, 72720, Note_on_c, 0, 60, 0
3, 72720, Note_on_c, 0, 58, 35
3, 72840, Note_on_c, 0, 58, 0
3, 72840, Note_on_c, 0, 60, 31
3, 72960, Note_on_c, 0, 60, 0
3, 72960, Note_on_c, 0, 66, 0
3, 72960, Note_on_c, 0, 64, 0
3, 72960, Note_on_c, 0, 61, 0
3, 72960, Note_on_c, 0, 58, 37
3, 73080, Note_on_c, 0, 58, 0
3, 73080, Note_on_c, 0, 60, 31
3, 73200, Note_on_c, 0, 60, 0
3, 73200, Note_on_c, 0, 58, 31
3, 73320, Note_on_c, 0, 58, 0
3, 73320, Note_on_c, 0, 60, 32
3, 73440, Note_on_c, 0, 60, 0
3, 73440, Note_on_c, 0, 58, 34
3, 73560, Note_on_c, 0, 58, 0
3, 73560, Note_on_c, 0, 60, 30
3, 73680, Note_on_c, 0, 60, 0
3, 73680, Note_on_c, 0, 58, 32
3, 73800, Note_on_c, 0, 58, 0
3, 73800, Note_on_c, 0, 60, 31
3, 73920, Note_on_c, 0, 60, 0
3, 73920, Note_on_c, 0, 58, 33
3, 74040, Note_on_c, 0, 58, 0
3, 74040, Note_on_c, 0, 60, 30
3, 74160, Note_on_c, 0, 60, 0
3, 74160, Note_on_c, 0, 58, 33
3, 74280, Note_on_c, 0, 58, 0
3, 74280, Note_on_c, 0, 60, 31
3, 74400, Note_on_c, 0, 60, 0
3, 75120, Note_on_c, 0, 46, 35
3, 75240, Note_on_c, 0, 46, 0
3, 75240, Note_on_c, 0, 45, 35
3, 75360, Note_on_c, 0, 45, 0
3, 75360, Note_on_c, 0, 46, 40
3, 75480, Note_on_c, 0, 46, 0
3, 75600, Note_on_c, 0, 42, 37
3, 75720, Note_on_c, 0, 42, 0
3, 75720, Note_on_c, 0, 46, 31
3, 75840, Note_on_c, 0, 46, 0
3, 75840, Note_on_c, 0, 45, 38
3, 75960, Note_on_c, 0, 45, 0
3, 75960, Note_on_c, 0, 46, 41
3, 76080, Note_on_c, 0, 46, 0
3, 76080, Note_on_c, 0, 48, 46
3, 76680, Note_on_c, 0, 48, 0
3, 76680, Note_on_c, 0, 49, 41
3, 76800, Note_on_c, 0, 49, 0
3, 76800, Note_on_c, 0, 50, 48
3, 77160, Note_on_c, 0, 50, 0
3, 77160, Note_on_c, 0, 51, 44
3, 77280, Note_on_c, 0, 51, 0
3, 77280, Note_on_c, 0, 52, 56
3, 77737, Note_on_c, 0, 58, 63
3, 77857, Note_on_c, 0, 58, 0
3, 77880, Note_on_c, 0, 61, 51
3, 78000, Note_on_c, 0, 61, 0
3, 78240, Note_on_c, 0, 58, 52
3, 78360, Note_on_c, 0, 58, 0
3, 78360, Note_on_c, 0, 61, 46
3, 78480, Note_on_c, 0, 61, 0
3, 78720, Note_on_c, 0, 52, 0
3, 78960, Note_on_c, 0, 46, 35
3, 79080, Note_on_c, 0, 46, 0
3, 79080, Note_on_c, 0, 45, 35
3, 79200, Note_on_c, 0, 45, 0
3, 79200, Note_on_c, 0, 46, 40
3, 79320, Note_on_c, 0, 46, 0
3, 79440, Note_on_c, 0, 42, 37
3, 79560, Note_on_c, 0, 42, 0
3, 79560, Note_on_c, 0, 46, 31
3, 79680, Note_on_c, 0, 46, 0
3, 79680, Note_on_c, 0, 45, 38
3, 79800, Note_on_c, 0, 45, 0
3, 79800, Note_on_c, 0, 46, 41
3, 79920, Note_on_c, 0, 46, 0
3, 79920, Note_on_c, 0, 48, 46
3, 80520, Note_on_c, 0, 48, 0
3, 80520, Note_on_c, 0, 49, 41
3, 80640, Note_on_c, 0, 49, 0
3, 80640, Note_on_c, 0, 51, 48
3, 81000, Note_on_c, 0, 51, 0
3, 81000, Note_on_c, 0, 53, 44
3, 81120, Note_on_c, 0, 53, 0
3, 81120, Note_on_c, 0, 54, 56
3, 81577, Note_on_c, 0, 58, 63
3, 81697, Note_on_c, 0, 58, 0
3, 81720, Note_on_c, 0, 61, 51
3, 81840, Note_on_c, 0, 61, 0
3, 82320, Note_on_c, 0, 70, 55
3, 82440, Note_on_c, 0, 70, 0
3, 82440, Note_on_c, 0, 73, 44
3, 82560, Note_on_c, 0, 73, 0
3, 82560, Note_on_c, 0, 54, 0
3, 82560, Note_on_c, 0, 70, 48
3, 82680, Note_on_c, 0, 73, 37
3, 82800, Note_on_c, 0, 73, 0
3, 82800, Note_on_c, 0, 70, 0
3, 82800, Note_on_c, 0, 70, 41
3, 82920, Note_on_c, 0, 73, 35
3, 83040, Note_on_c, 0, 73, 0
3, 83040, Note_on_c, 0, 70, 0
3, 83040, Note_on_c, 0, 68, 36
3, 83040, Note_on_c, 0, 70, 30
3, 83160, Note_on_c, 0, 70, 0
3, 83160, Note_on_c, 0, 73, 27
3, 83280, Note_on_c, 0, 73, 0
3, 83280, Note_on_c, 0, 70, 30
3, 83400, Note_on_c, 0, 70, 0
3, 83400, Note_on_c, 0, 73, 27
3, 83520, Note_on_c, 0, 73, 0
3, 83520, Note_on_c, 0, 68, 0
3, 83520, Note_on_c, 0, 66, 36
3, 83520, Note_on_c, 0, 70, 38
3, 83640, Note_on_c, 0, 70, 0
3, 83640, Note_on_c, 0, 73, 27
3, 83760, Note_on_c, 0, 73, 0
3, 83760, Note_on_c, 0, 70, 31
3, 83880, Note_on_c, 0, 70, 0
3, 83880, Note_on_c, 0, 73, 27
3, 84000, Note_on_c, 0, 73, 0
3, 84000, Note_on_c, 0, 66, 0
3, 84000, Note_on_c, 0, 65, 36
3, 84000, Note_on_c, 0, 70, 35
3, 84120, Note_on_c, 0, 70, 0
3, 84120, Note_on_c, 0, 73, 27
3, 84240, Note_on_c, 0, 73, 0
3, 84240, Note_on_c, 0, 70, 36
3, 84360, Note_on_c, 0, 70, 0
3, 84360, Note_on_c, 0, 73, 27
3, 84480, Note_on_c, 0, 73, 0
3, 84480, Note_on_c, 0, 65, 0
3, 84480, Note_on_c, 0, 70, 34
3, 84480, Note_on_c, 0, 64, 32
3, 84600, Note_on_c, 0, 70, 0
3, 84600, Note_on_c, 0, 73, 30
3, 84720, Note_on_c, 0, 73, 0
3, 84720, Note_on_c, 0, 70, 34
3, 84840, Note_on_c, 0, 70, 0
3, 84840, Note_on_c, 0, 73, 30
3, 84960, Note_on_c, 0, 73, 0
3, 84960, Note_on_c, 0, 70, 40
3, 85080, Note_on_c, 0, 70, 0
3, 85080, Note_on_c, 0, 73, 34
3, 85200, Note_on_c, 0, 73, 0
3, 85200, Note_on_c, 0, 70, 40
3, 85320, Note_on_c, 0, 70, 0
3, 85320, Note_on_c, 0, 73, 35
3, 85440, Note_on_c, 0, 73, 0
3, 85440, Note_on_c, 0, 64, 0
3, 85440, Note_on_c, 0, 65, 40
3, 85440, Note_on_c, 0, 70, 43
3, 85560, Note_on_c, 0, 70, 0
3, 85560, Note_on_c, 0, 73, 35
3, 85680, Note_on_c, 0, 73, 0
3, 85680, Note_on_c, 0, 70, 41
3, 85800, Note_on_c, 0, 70, 0
3, 85800, Note_on_c, 0, 73, 30
3, 85920, Note_on_c, 0, 73, 0
3, 85920, Note_on_c, 0, 70, 49
3, 86040, Note_on_c, 0, 70, 0
3, 86040, Note_on_c, 0, 73, 40
3, 86160, Note_on_c, 0, 73, 0
3, 86160, Note_on_c, 0, 70, 46
3, 86280, Note_on_c, 0, 70, 0
3, 86280, Note_on_c, 0, 73, 39
3, 86400, Note_on_c, 0, 73, 0
3, 86400, Note_on_c, 0, 65, 0
3, 86400, Note_on_c, 0, 70, 40
3, 86520, Note_on_c, 0, 73, 35
3, 86640, Note_on_c, 0, 73, 0
3, 86640, Note_on_c, 0, 70, 0
3, 86640, Note_on_c, 0, 70, 39
3, 86760, Note_on_c, 0, 73, 35
3, 86880, Note_on_c, 0, 73, 0
3, 86880, Note_on_c, 0, 70, 0
3, 86880, Note_on_c, 0, 67, 40
3, 87000, Note_on_c, 0, 70, 30
3, 87120, Note_on_c, 0, 70, 0
3, 87120, Note_on_c, 0, 67, 0
3, 87120, Note_on_c, 0, 67, 34
3, 87240, Note_on_c, 0, 70, 30
3, 87360, Note_on_c, 0, 70, 0
3, 87360, Note_on_c, 0, 67, 0
3, 87360, Note_on_c, 0, 64, 38
3, 87480, Note_on_c, 0, 67, 30
3, 87600, Note_on_c, 0, 67, 0
3, 87600, Note_on_c, 0, 64, 0
3, 87600, Note_on_c, 0, 64, 35
3, 87720, Note_on_c, 0, 67, 30
3, 87840, Note_on_c, 0, 67, 0
3, 87840, Note_on_c, 0, 64, 0
3, 87840, Note_on_c, 0, 61, 40
3, 87960, Note_on_c, 0, 65, 30
3, 88080, Note_on_c, 0, 65, 0
3, 88080, Note_on_c, 0, 61, 0
3, 88080, Note_on_c, 0, 61, 41
3, 88200, Note_on_c, 0, 61, 0
3, 88200, Note_on_c, 0, 65, 30
3, 88320, Note_on_c, 0, 65, 0
3, 88320, Note_on_c, 0, 58, 40
3, 88440, Note_on_c, 0, 61, 30
3, 88560, Note_on_c, 0, 61, 0
3, 88560, Note_on_c, 0, 58, 0
3, 88560, Note_on_c, 0, 58, 34
3, 88680, Note_on_c, 0, 61, 30
3, 88800, Note_on_c, 0, 61, 0
3, 88800, Note_on_c, 0, 58, 0
3, 88800, Note_on_c, 0, 51, 40
3, 88800, Note_on_c, 0, 59, 40
3, 88920, Note_on_c, 0, 59, 0
3, 88920, Note_on_c, 0, 62, 40
3, 89040, Note_on_c, 0, 62, 0
3, 89040, Note_on_c, 0, 59, 37
3, 89160, Note_on_c, 0, 59, 0
3, 89160, Note_on_c, 0, 62, 40
3, 89280, Note_on_c, 0, 62, 0
3, 89280, Note_on_c, 0, 58, 49
3, 89400, Note_on_c, 0, 58, 0
3, 89400, Note_on_c, 0, 63, 32
3, 89520, Note_on_c, 0, 63, 0
3, 89520, Note_on_c, 0, 58, 38
3, 89640, Note_on_c, 0, 58, 0
3, 89640, Note_on_c, 0, 63, 35
3, 89760, Note_on_c, 0, 63, 0
3, 89760, Note_on_c, 0, 51, 0
3, 89760, Note_on_c, 0, 51, 40
3, 89760, Note_on_c, 0, 59, 39
3, 89850, Note_on_c, 0, 59, 0
3, 89880, Note_on_c, 0, 62, 30
3, 90000, Note_on_c, 0, 62, 0
3, 90000, Note_on_c, 0, 59, 41
3, 90120, Note_on_c, 0, 59, 0
3, 90120, Note_on_c, 0, 62, 30
3, 90240, Note_on_c, 0, 62, 0
3, 90240, Note_on_c, 0, 58, 49
3, 90360, Note_on_c, 0, 58, 0
3, 90360, Note_on_c, 0, 63, 32
3, 90480, Note_on_c, 0, 63, 0
3, 90480, Note_on_c, 0, 58, 38
3, 90600, Note_on_c, 0, 58, 0
3, 90600, Note_on_c, 0, 63, 35
3, 90720, Note_on_c, 0, 63, 0
3, 90720, Note_on_c, 0, 51, 0
3, 90720, Note_on_c, 0, 59, 39
3, 90810, Note_on_c, 0, 59, 0
3, 90840, Note_on_c, 0, 62, 44
3, 90960, Note_on_c, 0, 62, 0
3, 90960, Note_on_c, 0, 64, 48
3, 91080, Note_on_c, 0, 64, 0
3, 91080, Note_on_c, 0, 65, 50
3, 91200, Note_on_c, 0, 65, 0
3, 91200, Note_on_c, 0, 54, 75
3, 91200, Note_on_c, 0, 61, 75
3, 91320, Note_on_c, 0, 61, 0
3, 91320, Note_on_c, 0, 54, 0
3, 91440, Note_on_c, 0, 63, 58
3, 91500, Note_on_c, 0, 63, 0
3, 91560, Note_on_c, 0, 63, 63
3, 91620, Note_on_c, 0, 63, 0
3, 91680, Note_on_c, 0, 63, 63
3, 91740, Note_on_c, 0, 63, 0
3, 91800, Note_on_c, 0, 63, 66
3, 91860, Note_on_c, 0, 63, 0
3, 91920, Note_on_c, 0, 63, 68
3, 91980, Note_on_c, 0, 63, 0
3, 92040, Note_on_c, 0, 63, 72
3, 92100, Note_on_c, 0, 63, 0
3, 92160, Note_on_c, 0, 61, 74
3, 92160, Note_on_c, 0, 58, 74
3, 92280, Note_on_c, 0, 58, 0
3, 92280, Note_on_c, 0, 61, 0
3, 92400, Note_on_c, 0, 63, 66
3, 92460, Note_on_c, 0, 63, 0
3, 92520, Note_on_c, 0, 63, 68
3, 92580, Note_on_c, 0, 63, 0
3, 92640, Note_on_c, 0, 63, 73
3, 92700, Note_on_c, 0, 63, 0
3, 92760, Note_on_c, 0, 63, 75
3, 92820, Note_on_c, 0, 63, 0
3, 92880, Note_on_c, 0, 63, 78
3, 92940, Note_on_c, 0, 63, 0
3, 93000, Note_on_c, 0, 63, 78
3, 93060, Note_on_c, 0, 63, 0
3, 93120, Note_on_c, 0, 55, 75
3, 93120, Note_on_c, 0, 61, 75
3, 93240, Note_on_c, 0, 61, 0
3, 93240, Note_on_c, 0, 55, 0
3, 93360, Note_on_c, 0, 63, 69
3, 93420, Note_on_c, 0, 63, 0
3, 93480, Note_on_c, 0, 63, 67
3, 93540, Note_on_c, 0, 63, 0
3, 93600, Note_on_c, 0, 63, 67
3, 93660, Note_on_c, 0, 63, 0
3, 93720, Note_on_c, 0, 63, 67
3, 93780, Note_on_c, 0, 63, 0
3, 93840, Note_on_c, 0, 63, 67
3, 93900, Note_on_c, 0, 63, 0
3, 93960, Note_on_c, 0, 63, 64
3, 94020, Note_on_c, 0, 63, 0
3, 94080, Note_on_c, 0, 63, 61
3, 94140, Note_on_c, 0, 63, 0
3, 94200, Note_on_c, 0, 63, 61
3, 94260, Note_on_c, 0, 63, 0
3, 94320, Note_on_c, 0, 63, 61
3, 94380, Note_on_c, 0, 63, 0
3, 94440, Note_on_c, 0, 63, 61
3, 94500, Note_on_c, 0, 63, 0
3, 94560, Note_on_c, 0, 63, 61
3, 94620, Note_on_c, 0, 63, 0
3, 94680, Note_on_c, 0, 63, 60
3, 94740, Note_on_c, 0, 63, 0
3, 94800, Note_on_c, 0, 63, 57
3, 94860, Note_on_c, 0, 63, 0
3, 94920, Note_on_c, 0, 63, 57
3, 94980, Note_on_c, 0, 63, 0
3, 95040, Note_on_c, 0, 54, 75
3, 95040, Note_on_c, 0, 61, 75
3, 95160, Note_on_c, 0, 61, 0
3, 95160, Note_on_c, 0, 54, 0
3, 95280, Note_on_c, 0, 63, 58
3, 95340, Note_on_c, 0, 63, 0
3, 95400, Note_on_c, 0, 63, 63
3, 95460, Note_on_c, 0, 63, 0
3, 95520, Note_on_c, 0, 63, 63
3, 95580, Note_on_c, 0, 63, 0
3, 95640, Note_on_c, 0, 63, 66
3, 95700, Note_on_c, 0, 63, 0
3, 95760, Note_on_c, 0, 63, 68
3, 95820, Note_on_c, 0, 63, 0
3, 95880, Note_on_c, 0, 63, 72
3, 95940, Note_on_c, 0, 63, 0
3, 96000, Note_on_c, 0, 61, 74
3, 96000, Note_on_c, 0, 58, 74
3, 96120, Note_on_c, 0, 58, 0
3, 96120, Note_on_c, 0, 61, 0
3, 96240, Note_on_c, 0, 63, 66
3, 96300, Note_on_c, 0, 63, 0
3, 96360, Note_on_c, 0, 63, 68
3, 96420, Note_on_c, 0, 63, 0
3, 96480, Note_on_c, 0, 63, 73
3, 96540, Note_on_c, 0, 63, 0
3, 96600, Note_on_c, 0, 63, 75
3, 96660, Note_on_c, 0, 63, 0
3, 96720, Note_on_c, 0, 63, 78
3, 96780, Note_on_c, 0, 63, 0
3, 96840, Note_on_c, 0, 63, 78
3, 96900, Note_on_c, 0, 63, 0
3, 96960, Note_on_c, 0, 55, 75
3, 96960, Note_on_c, 0, 61, 75
3, 97080, Note_on_c, 0, 61, 0
3, 97080, Note_on_c, 0, 55, 0
3, 97200, Note_on_c, 0, 63, 64
3, 97260, Note_on_c, 0, 63, 0
3, 97320, Note_on_c, 0, 63, 61
3, 97380, Note_on_c, 0, 63, 0
3, 97440, Note_on_c, 0, 63, 57
3, 97500, Note_on_c, 0, 63, 0
3, 97560, Note_on_c, 0, 63, 55
3, 97620, Note_on_c, 0, 63, 0
3, 97680, Note_on_c, 0, 63, 51
3, 97740, Note_on_c, 0, 63, 0
3, 97800, Note_on_c, 0, 63, 50
3, 97860, Note_on_c, 0, 63, 0
3, 105600, Note_on_c, 0, 62, 40
3, 105600, Note_on_c, 0, 74, 33
3, 105690, Note_on_c, 0, 74, 0
3, 105840, Note_on_c, 0, 72, 29
3, 105930, Note_on_c, 0, 72, 0
3, 106080, Note_on_c, 0, 70, 29
3, 106170, Note_on_c, 0, 70, 0
3, 106320, Note_on_c, 0, 69, 29
3, 106410, Note_on_c, 0, 69, 0
3, 106560, Note_on_c, 0, 72, 33
3, 106650, Note_on_c, 0, 72, 0
3, 106800, Note_on_c, 0, 70, 30
3, 106890, Note_on_c, 0, 70, 0
3, 107040, Note_on_c, 0, 69, 30
3, 107130, Note_on_c, 0, 69, 0
3, 107280, Note_on_c, 0, 67, 30
3, 107370, Note_on_c, 0, 67, 0
3, 107520, Note_on_c, 0, 62, 0
3, 107520, Note_on_c, 0, 62, 40
3, 107520, Note_on_c, 0, 74, 33
3, 107610, Note_on_c, 0, 74, 0
3, 107760, Note_on_c, 0, 72, 29
3, 107850, Note_on_c, 0, 72, 0
3, 108000, Note_on_c, 0, 70, 29
3, 108090, Note_on_c, 0, 70, 0
3, 108240, Note_on_c, 0, 69, 29
3, 108330, Note_on_c, 0, 69, 0
3, 108480, Note_on_c, 0, 72, 33
3, 108570, Note_on_c, 0, 72, 0
3, 108720, Note_on_c, 0, 70, 30
3, 108810, Note_on_c, 0, 70, 0
3, 108960, Note_on_c, 0, 69, 30
3, 109050, Note_on_c, 0, 69, 0
3, 109200, Note_on_c, 0, 67, 30
3, 109290, Note_on_c, 0, 67, 0
3, 109440, Note_on_c, 0, 62, 0
3, 109440, Note_on_c, 0, 62, 40
3, 109440, Note_on_c, 0, 69, 33
3, 109530, Note_on_c, 0, 69, 0
3, 109680, Note_on_c, 0, 72, 29
3, 109770, Note_on_c, 0, 72, 0
3, 109920, Note_on_c, 0, 70, 29
3, 110010, Note_on_c, 0, 70, 0
3, 110160, Note_on_c, 0, 67, 29
3, 110250, Note_on_c, 0, 67, 0
3, 110400, Note_on_c, 0, 69, 33
3, 110490, Note_on_c, 0, 69, 0
3, 110640, Note_on_c, 0, 65, 30
3, 110730, Note_on_c, 0, 65, 0
3, 110880, Note_on_c, 0, 67, 30
3, 110970, Note_on_c, 0, 67, 0
3, 111120, Note_on_c, 0, 64, 30
3, 111210, Note_on_c, 0, 64, 0
3, 111360, Note_on_c, 0, 62, 0
3, 111360, Note_on_c, 0, 62, 40
3, 111360, Note_on_c, 0, 69, 33
3, 111450, Note_on_c, 0, 69, 0
3, 111600, Note_on_c, 0, 72, 29
3, 111690, Note_on_c, 0, 72, 0
3, 111840, Note_on_c, 0, 70, 29
3, 111930, Note_on_c, 0, 70, 0
3, 112080, Note_on_c, 0, 67, 29
3, 112170, Note_on_c, 0, 67, 0
3, 112320, Note_on_c, 0, 69, 33
3, 112410, Note_on_c, 0, 69, 0
3, 112560, Note_on_c, 0, 65, 30
3, 112650, Note_on_c, 0, 65, 0
3, 112800, Note_on_c, 0, 69, 30
3, 112890, Note_on_c, 0, 69, 0
3, 113040, Note_on_c, 0, 74, 30
3, 113130, Note_on_c, 0, 74, 0
3, 113280, Note_on_c, 0, 62, 0
3, 113280, Note_on_c, 0, 73, 47
3, 113400, Note_on_c, 0, 73, 0
3, 113520, Note_on_c, 0, 81, 39
3, 113640, Note_on_c, 0, 81, 0
3, 113760, Note_on_c, 0, 73, 33
3, 113880, Note_on_c, 0, 73, 0
3, 114000, Note_on_c, 0, 81, 34
3, 114120, Note_on_c, 0, 81, 0
3, 114240, Note_on_c, 0, 73, 42
3, 114360, Note_on_c, 0, 73, 0
3, 114480, Note_on_c, 0, 79, 41
3, 114600, Note_on_c, 0, 79, 0
3, 114720, Note_on_c, 0, 73, 36
3, 114840, Note_on_c, 0, 73, 0
3, 114960, Note_on_c, 0, 79, 37
3, 115080, Note_on_c, 0, 79, 0
3, 115200, Note_on_c, 0, 70, 46
3, 115200, Note_on_c, 0, 73, 54
3, 115320, Note_on_c, 0, 73, 0
3, 115440, Note_on_c, 0, 82, 44
3, 115560, Note_on_c, 0, 82, 0
3, 115680, Note_on_c, 0, 73, 37
3, 115800, Note_on_c, 0, 73, 0
3, 115920, Note_on_c, 0, 82, 36
3, 116040, Note_on_c, 0, 82, 0
3, 116160, Note_on_c, 0, 73, 44
3, 116280, Note_on_c, 0, 73, 0
3, 116400, Note_on_c, 0, 82, 41
3, 116520, Note_on_c, 0, 82, 0
3, 116640, Note_on_c, 0, 73, 35
3, 116760, Note_on_c, 0, 73, 0
3, 116880, Note_on_c, 0, 82, 35
3, 117000, Note_on_c, 0, 82, 0
3, 117120, Note_on_c, 0, 70, 0
3, 117120, Note_on_c, 0, 73, 47
3, 117240, Note_on_c, 0, 73, 0
3, 117360, Note_on_c, 0, 81, 39
3, 117480, Note_on_c, 0, 81, 0
3, 117600, Note_on_c, 0, 73, 33
3, 117720, Note_on_c, 0, 73, 0
3, 117840, Note_on_c, 0, 81, 33
3, 117960, Note_on_c, 0, 81, 0
3, 118080, Note_on_c, 0, 73, 40
3, 118200, Note_on_c, 0, 73, 0
3, 118320, Note_on_c, 0, 79, 38
3, 118440, Note_on_c, 0, 79, 0
3, 118560, Note_on_c, 0, 73, 33
3, 118680, Note_on_c, 0, 73, 0
3, 118800, Note_on_c, 0, 79, 33
3, 118920, Note_on_c, 0, 79, 0
3, 119040, Note_on_c, 0, 70, 46
3, 119040, Note_on_c, 0, 73, 54
3, 119160, Note_on_c, 0, 73, 0
3, 119280, Note_on_c, 0, 82, 44
3, 119400, Note_on_c, 0, 82, 0
3, 119520, Note_on_c, 0, 73, 36
3, 119640, Note_on_c, 0, 73, 0
3, 119760, Note_on_c, 0, 82, 36
3, 119880, Note_on_c, 0, 82, 0
3, 120000, Note_on_c, 0, 70, 0
3, 120000, Note_on_c, 0, 67, 43
3, 120000, Note_on_c, 0, 70, 43
3, 120120, Note_on_c, 0, 70, 0
3, 120240, Note_on_c, 0, 79, 40
3, 120360, Note_on_c, 0, 79, 0
3, 120480, Note_on_c, 0, 70, 34
3, 120600, Note_on_c, 0, 70, 0
3, 120720, Note_on_c, 0, 79, 33
3, 120840, Note_on_c, 0, 79, 0
3, 120960, Note_on_c, 0, 67, 0
3, 120960, Note_on_c, 0, 64, 46
3, 120960, Note_on_c, 0, 67, 54
3, 121080, Note_on_c, 0, 67, 0
3, 121200, Note_on_c, 0, 76, 44
3, 121320, Note_on_c, 0, 76, 0
3, 121440, Note_on_c, 0, 67, 36
3, 121560, Note_on_c, 0, 67, 0
3, 121680, Note_on_c, 0, 76, 36
3, 121800, Note_on_c, 0, 76, 0
3, 121920, Note_on_c, 0, 64, 0
3, 121920, Note_on_c, 0, 61, 43
3, 121920, Note_on_c, 0, 64, 43
3, 122040, Note_on_c, 0, 64, 0
3, 122160, Note_on_c, 0, 73, 40
3, 122280, Note_on_c, 0, 73, 0
3, 122400, Note_on_c, 0, 64, 34
3, 122520, Note_on_c, 0, 64, 0
3, 122640, Note_on_c, 0, 73, 33
3, 122760, Note_on_c, 0, 73, 0
3, 122880, Note_on_c, 0, 61, 0
3, 122880, Note_on_c, 0, 55, 43
3, 123120, Note_on_c, 0, 61, 39
3, 123240, Note_on_c, 0, 61, 0
3, 123360, Note_on_c, 0, 61, 33
3, 123480, Note_on_c, 0, 61, 0
3, 123600, Note_on_c, 0, 61, 33
3, 123720, Note_on_c, 0, 61, 0
3, 123840, Note_on_c, 0, 69, 46
3, 123960, Note_on_c, 0, 69, 0
3, 124080, Note_on_c, 0, 61, 38
3, 124200, Note_on_c, 0, 61, 0
3, 124320, Note_on_c, 0, 67, 41
3, 124440, Note_on_c, 0, 67, 0
3, 124560, Note_on_c, 0, 61, 33
3, 124680, Note_on_c, 0, 61, 0
3, 124800, Note_on_c, 0, 55, 0
3, 124800, Note_on_c, 0, 61, 40
3, 124920, Note_on_c, 0, 61, 0
3, 124920, Note_on_c, 0, 55, 39
3, 125040, Note_on_c, 0, 55, 0
3, 125040, Note_on_c, 0, 61, 35
3, 125160, Note_on_c, 0, 61, 0
3, 125160, Note_on_c, 0, 55, 34
3, 125280, Note_on_c, 0, 55, 0
3, 125280, Note_on_c, 0, 61, 34
3, 125400, Note_on_c, 0, 61, 0
3, 125400, Note_on_c, 0, 55, 33
3, 125520, Note_on_c, 0, 55, 0
3, 125520, Note_on_c, 0, 61, 33
3, 125640, Note_on_c, 0, 61, 0
3, 125640, Note_on_c, 0, 55, 33
3, 125760, Note_on_c, 0, 55, 0
3, 125760, Note_on_c, 0, 61, 33
3, 125880, Note_on_c, 0, 61, 0
3, 125880, Note_on_c, 0, 55, 32
3, 126000, Note_on_c, 0, 55, 0
3, 126000, Note_on_c, 0, 61, 31
3, 126120, Note_on_c, 0, 61, 0
3, 126120, Note_on_c, 0, 55, 30
3, 126240, Note_on_c, 0, 55, 0
3, 126240, Note_on_c, 0, 61, 30
3, 126360, Note_on_c, 0, 61, 0
3, 126360, Note_on_c, 0, 55, 30
3, 126480, Note_on_c, 0, 55, 0
3, 126480, Note_on_c, 0, 61, 30
3, 126600, Note_on_c, 0, 61, 0
3, 126600, Note_on_c, 0, 55, 30
3, 126690, Note_on_c, 0, 55, 0
3, 126720, Note_on_c, 0, 54, 29
3, 126840, Note_on_c, 0, 54, 0
3, 126840, Note_on_c, 0, 61, 23
3, 126960, Note_on_c, 0, 61, 0
3, 126960, Note_on_c, 0, 54, 25
3, 127080, Note_on_c, 0, 54, 0
3, 127080, Note_on_c, 0, 61, 23
3, 127200, Note_on_c, 0, 61, 0
3, 127200, Note_on_c, 0, 54, 29
3, 127320, Note_on_c, 0, 54, 0
3, 127320, Note_on_c, 0, 61, 23
3, 127440, Note_on_c, 0, 61, 0
3, 127440, Note_on_c, 0, 54, 25
3, 127560, Note_on_c, 0, 54, 0
3, 127560, Note_on_c, 0, 61, 23
3, 127680, Note_on_c, 0, 61, 0
3, 127680, Note_on_c, 0, 54, 29
3, 127800, Note_on_c, 0, 54, 0
3, 127800, Note_on_c, 0, 61, 23
3, 127920, Note_on_c, 0, 61, 0
3, 127920, Note_on_c, 0, 54, 25
3, 128040, Note_on_c, 0, 54, 0
3, 128040, Note_on_c, 0, 61, 23
3, 128160, Note_on_c, 0, 61, 0
3, 128160, Note_on_c, 0, 54, 29
3, 128280, Note_on_c, 0, 54, 0
3, 128280, Note_on_c, 0, 61, 23
3, 128400, Note_on_c, 0, 61, 0
3, 128400, Note_on_c, 0, 54, 25
3, 128520, Note_on_c, 0, 54, 0
3, 128520, Note_on_c, 0, 61, 23
3, 128640, Note_on_c, 0, 61, 0
3, 128640, Note_on_c, 0, 54, 29
3, 128760, Note_on_c, 0, 54, 0
3, 128760, Note_on_c, 0, 61, 23
3, 128880, Note_on_c, 0, 61, 0
3, 128880, Note_on_c, 0, 54, 25
3, 129000, Note_on_c, 0, 54, 0
3, 129000, Note_on_c, 0, 61, 23
3, 129120, Note_on_c, 0, 61, 0
3, 129120, Note_on_c, 0, 66, 29
3, 129240, Note_on_c, 0, 66, 0
3, 129240, Note_on_c, 0, 73, 23
3, 129360, Note_on_c, 0, 73, 0
3, 129360, Note_on_c, 0, 66, 25
3, 129480, Note_on_c, 0, 66, 0
3, 129480, Note_on_c, 0, 73, 23
3, 129600, Note_on_c, 0, 73, 0
3, 129600, Note_on_c, 0, 66, 36
3, 129840, Note_on_c, 0, 66, 0
3, 131520, Note_on_c, 0, 64, 26
3, 131520, Note_on_c, 0, 62, 26
3, 131760, Note_on_c, 0, 64, 0
3, 131760, Note_on_c, 0, 65, 23
3, 132000, Note_on_c, 0, 65, 0
3, 132000, Note_on_c, 0, 67, 20
3, 132240, Note_on_c, 0, 67, 0
3, 132240, Note_on_c, 0, 69, 20
3, 132480, Note_on_c, 0, 69, 0
3, 132480, Note_on_c, 0, 62, 0
3, 133440, Note_on_c, 0, 76, 26
3, 133440, Note_on_c, 0, 74, 26
3, 133680, Note_on_c, 0, 76, 0
3, 133680, Note_on_c, 0, 77, 23
3, 133920, Note_on_c, 0, 77, 0
3, 133920, Note_on_c, 0, 79, 20
3, 134160, Note_on_c, 0, 79, 0
3, 134160, Note_on_c, 0, 81, 20
3, 134400, Note_on_c, 0, 81, 0
3, 134400, Note_on_c, 0, 74, 0
3, 134880, Note_on_c, 0, 81, 23
3, 134880, Note_on_c, 0, 74, 23
3, 135120, Note_on_c, 0, 74, 0
3, 135120, Note_on_c, 0, 81, 0
3, 135360, Note_on_c, 0, 86, 23
3, 135600, Note_on_c, 0, 86, 0
3, 135840, Note_on_c, 0, 74, 23
3, 135840, Note_on_c, 0, 81, 23
3, 136080, Note_on_c, 0, 81, 0
3, 136080, Note_on_c, 0, 74, 0
3, 136320, Note_on_c, 0, 86, 23
3, 136560, Note_on_c, 0, 86, 0
3, 136800, Note_on_c, 0, 81, 23
3, 136800, Note_on_c, 0, 74, 23
3, 137040, Note_on_c, 0, 74, 0
3, 137040, Note_on_c, 0, 81, 0
3, 137280, Note_on_c, 0, 86, 23
3, 137520, Note_on_c, 0, 86, 0
3, 137760, Note_on_c, 0, 74, 23
3, 137760, Note_on_c, 0, 81, 23
3, 138000, Note_on_c, 0, 81, 0
3, 138000, Note_on_c, 0, 74, 0
3, 138240, Note_on_c, 0, 86, 23
3, 140160, Note_on_c, 0, 86, 0
3, 140160, End_track
4, 0, Start_track
4, 0, Title_t, "Pedale"
4, 0, Program_c, 0, 0
4, 3897, Control_c, 0, 64, 127
4, 4088, Control_c, 0, 64, 0
4, 4158, Control_c, 0, 64, 127
4, 4333, Control_c, 0, 64, 0
4, 4433, Control_c, 0, 64, 127
4, 4573, Control_c, 0, 64, 0
4, 4638, Control_c, 0, 64, 127
4, 4815, Control_c, 0, 64, 0
4, 4913, Control_c, 0, 64, 127
4, 5054, Control_c, 0, 64, 0
4, 5125, Control_c, 0, 64, 127
4, 5293, Control_c, 0, 64, 0
4, 5365, Control_c, 0, 64, 127
4, 5524, Control_c, 0, 64, 0
4, 5577, Control_c, 0, 64, 127
4, 5697, Control_c, 0, 64, 0
4, 5824, Control_c, 0, 64, 127
4, 6008, Control_c, 0, 64, 0
4, 6078, Control_c, 0, 64, 127
4, 6253, Control_c, 0, 64, 0
4, 6304, Control_c, 0, 64, 127
4, 6493, Control_c, 0, 64, 0
4, 6558, Control_c, 0, 64, 127
4, 6735, Control_c, 0, 64, 0
4, 6798, Control_c, 0, 64, 127
4, 6974, Control_c, 0, 64, 0
4, 7045, Control_c, 0, 64, 127
4, 7213, Control_c, 0, 64, 0
4, 7285, Control_c, 0, 64, 127
4, 7444, Control_c, 0, 64, 0
4, 7497, Control_c, 0, 64, 127
4, 7617, Control_c, 0, 64, 0
4, 7758, Control_c, 0, 64, 127
4, 7928, Control_c, 0, 64, 0
4, 7998, Control_c, 0, 64, 127
4, 8173, Control_c, 0, 64, 0
4, 8238, Control_c, 0, 64, 127
4, 8413, Control_c, 0, 64, 0
4, 8478, Control_c, 0, 64, 127
4, 8655, Control_c, 0, 64, 0
4, 8704, Control_c, 0, 64, 127
4, 8894, Control_c, 0, 64, 0
4, 8965, Control_c, 0, 64, 127
4, 9133, Control_c, 0, 64, 0
4, 9205, Control_c, 0, 64, 127
4, 9364, Control_c, 0, 64, 0
4, 9417, Control_c, 0, 64, 127
4, 9537, Control_c, 0, 64, 0
4, 9678, Control_c, 0, 64, 127
4, 9848, Control_c, 0, 64, 0
4, 9918, Control_c, 0, 64, 127
4, 10093, Control_c, 0, 64, 0
4, 10158, Control_c, 0, 64, 127
4, 10333, Control_c, 0, 64, 0
4, 10398, Control_c, 0, 64, 127
4, 10575, Control_c, 0, 64, 0
4, 10645, Control_c, 0, 64, 127
4, 10814, Control_c, 0, 64, 0
4, 10885, Control_c, 0, 64, 127
4, 11053, Control_c, 0, 64, 0
4, 11125, Control_c, 0, 64, 127
4, 11284, Control_c, 0, 64, 0
4, 11337, Control_c, 0, 64, 127
4, 11457, Control_c, 0, 64, 0
4, 11577, Control_c, 0, 64, 127
4, 11768, Control_c, 0, 64, 0
4, 11838, Control_c, 0, 64, 127
4, 12013, Control_c, 0, 64, 0
4, 12071, Control_c, 0, 64, 127
4, 12253, Control_c, 0, 64, 0
4, 12318, Control_c, 0, 64, 127
4, 12495, Control_c, 0, 64, 0
4, 12558, Control_c, 0, 64, 127
4, 12734, Control_c, 0, 64, 0
4, 12805, Control_c, 0, 64, 127
4, 12973, Control_c, 0, 64, 0
4, 13045, Control_c, 0, 64, 127
4, 13204, Control_c, 0, 64, 0
4, 13257, Control_c, 0, 64, 127
4, 13377, Control_c, 0, 64, 0
4, 13532, Control_c, 0, 64, 127
4, 13688, Control_c, 0, 64, 0
4, 13758, Control_c, 0, 64, 127
4, 13933, Control_c, 0, 64, 0
4, 13991, Control_c, 0, 64, 127
4, 14173, Control_c, 0, 64, 0
4, 14238, Control_c, 0, 64, 127
4, 14415, Control_c, 0, 64, 0
4, 14513, Control_c, 0, 64, 127
4, 14654, Control_c, 0, 64, 0
4, 14725, Control_c, 0, 64, 127
4, 14893, Control_c, 0, 64, 0
4, 14965, Control_c, 0, 64, 127
4, 15124, Control_c, 0, 64, 0
4, 15177, Control_c, 0, 64, 127
4, 15297, Control_c, 0, 64, 0
4, 15431, Control_c, 0, 64, 127
4, 15608, Control_c, 0, 64, 0
4, 15678, Control_c, 0, 64, 127
4, 15853, Control_c, 0, 64, 0
4, 15918, Control_c, 0, 64, 127
4, 16093, Control_c, 0, 64, 0
4, 16158, Control_c, 0, 64, 127
4, 16335, Control_c, 0, 64, 0
4, 16384, Control_c, 0, 64, 127
4, 16574, Control_c, 0, 64, 0
4, 16645, Control_c, 0, 64, 127
4, 16813, Control_c, 0, 64, 0
4, 16885, Control_c, 0, 64, 127
4, 17044, Control_c, 0, 64, 0
4, 17097, Control_c, 0, 64, 127
4, 17217, Control_c, 0, 64, 0
4, 17358, Control_c, 0, 64, 127
4, 17528, Control_c, 0, 64, 0
4, 17563, Control_c, 0, 64, 127
4, 17773, Control_c, 0, 64, 0
4, 17838, Control_c, 0, 64, 127
4, 18013, Control_c, 0, 64, 0
4, 18053, Control_c, 0, 64, 127
4, 18255, Control_c, 0, 64, 0
4, 18318, Control_c, 0, 64, 127
4, 18494, Control_c, 0, 64, 0
4, 18533, Control_c, 0, 64, 127
4, 18733, Control_c, 0, 64, 0
4, 18780, Control_c, 0, 64, 127
4, 18964, Control_c, 0, 64, 0
4, 19017, Control_c, 0, 64, 127
4, 19137, Control_c, 0, 64, 0
4, 19235, Control_c, 0, 64, 127
4, 20178, Control_c, 0, 64, 0
4, 20240, Control_c, 0, 64, 127
4, 21120, Control_c, 0, 64, 0
4, 21206, Control_c, 0, 64, 127
4, 23040, Control_c, 0, 64, 0
4, 23132, Control_c, 0, 64, 127
4, 24018, Control_c, 0, 64, 0
4, 24080, Control_c, 0, 64, 127
4, 24960, Control_c, 0, 64, 0
4, 25046, Control_c, 0, 64, 127
4, 25931, Control_c, 0, 64, 0
4, 26052, Control_c, 0, 64, 127
4, 26880, Control_c, 0, 64, 0
4, 26966, Control_c, 0, 64, 127
4, 27851, Control_c, 0, 64, 0
4, 27972, Control_c, 0, 64, 127
4, 28800, Control_c, 0, 64, 0
4, 28892, Control_c, 0, 64, 127
4, 30720, Control_c, 0, 64, 0
4, 30806, Control_c, 0, 64, 127
4, 31691, Control_c, 0, 64, 0
4, 31812, Control_c, 0, 64, 127
4, 32640, Control_c, 0, 64, 0
4, 32726, Control_c, 0, 64, 127
4, 34560, Control_c, 0, 64, 0
4, 34646, Control_c, 0, 64, 127
4, 35531, Control_c, 0, 64, 0
4, 35652, Control_c, 0, 64, 127
4, 36480, Control_c, 0, 64, 0
4, 36566, Control_c, 0, 64, 127
4, 37452, Control_c, 0, 64, 0
4, 37500, Control_c, 0, 64, 127
4, 38400, Control_c, 0, 64, 0
4, 38486, Control_c, 0, 64, 127
4, 39372, Control_c, 0, 64, 0
4, 39446, Control_c, 0, 64, 127
4, 40320, Control_c, 0, 64, 0
4, 40412, Control_c, 0, 64, 127
4, 41298, Control_c, 0, 64, 0
4, 41360, Control_c, 0, 64, 127
4, 42240, Control_c, 0, 64, 0
4, 42332, Control_c, 0, 64, 127
4, 44160, Control_c, 0, 64, 0
4, 44252, Control_c, 0, 64, 127
4, 45138, Control_c, 0, 64, 0
4, 45200, Control_c, 0, 64, 127
4, 46080, Control_c, 0, 64, 0
4, 46172, Control_c, 0, 64, 127
4, 48000, Control_c, 0, 64, 0
4, 48092, Control_c, 0, 64, 127
4, 48978, Control_c, 0, 64, 0
4, 49040, Control_c, 0, 64, 127
4, 49920, Control_c, 0, 64, 0
4, 50012, Control_c, 0, 64, 127
4, 51840, Control_c, 0, 64, 0
4, 51932, Control_c, 0, 64, 127
4, 52818, Control_c, 0, 64, 0
4, 52880, Control_c, 0, 64, 127
4, 53760, Control_c, 0, 64, 0
4, 53852, Control_c, 0, 64, 127
4, 55680, Control_c, 0, 64, 0
4, 55737, Control_c, 0, 64, 127
4, 55928, Control_c, 0, 64, 0
4, 55998, Control_c, 0, 64, 127
4, 56173, Control_c, 0, 64, 0
4, 56220, Control_c, 0, 64, 127
4, 56413, Control_c, 0, 64, 0
4, 56478, Control_c, 0, 64, 127
4, 56655, Control_c, 0, 64, 0
4, 56718, Control_c, 0, 64, 127
4, 56894, Control_c, 0, 64, 0
4, 56965, Control_c, 0, 64, 127
4, 57133, Control_c, 0, 64, 0
4, 57205, Control_c, 0, 64, 127
4, 57364, Control_c, 0, 64, 0
4, 57417, Control_c, 0, 64, 127
4, 57537, Control_c, 0, 64, 0
4, 57600, Control_c, 0, 64, 0
4, 57657, Control_c, 0, 64, 127
4, 57848, Control_c, 0, 64, 0
4, 57918, Control_c, 0, 64, 127
4, 58093, Control_c, 0, 64, 0
4, 58158, Control_c, 0, 64, 127
4, 58333, Control_c, 0, 64, 0
4, 58398, Control_c, 0, 64, 127
4, 58575, Control_c, 0, 64, 0
4, 58624, Control_c, 0, 64, 127
4, 58814, Control_c, 0, 64, 0
4, 58885, Control_c, 0, 64, 127
4, 59053, Control_c, 0, 64, 0
4, 59125, Control_c, 0, 64, 127
4, 59284, Control_c, 0, 64, 0
4, 59337, Control_c, 0, 64, 127
4, 59457, Control_c, 0, 64, 0
4, 59520, Control_c, 0, 64, 127
4, 61450, Control_c, 0, 64, 0
4, 61509, Control_c, 0, 64, 127
4, 63360, Control_c, 0, 64, 0
4, 63423, Control_c, 0, 64, 127
4, 64342, Control_c, 0, 64, 0
4, 64417, Control_c, 0, 64, 127
4, 65280, Control_c, 0, 64, 0
4, 65343, Control_c, 0, 64, 127
4, 65776, Control_c, 0, 64, 0
4, 65857, Control_c, 0, 64, 127
4, 66738, Control_c, 0, 64, 0
4, 66817, Control_c, 0, 64, 127
4, 67200, Control_c, 0, 64, 0
4, 67275, Control_c, 0, 64, 127
4, 68175, Control_c, 0, 64, 0
4, 68217, Control_c, 0, 64, 127
4, 69120, Control_c, 0, 64, 0
4, 69163, Control_c, 0, 64, 127
4, 70095, Control_c, 0, 64, 0
4, 70146, Control_c, 0, 64, 127
4, 70980, Control_c, 0, 64, 0
4, 71040, Control_c, 0, 64, 127
4, 72900, Control_c, 0, 64, 0
4, 72960, Control_c, 0, 64, 127
4, 75132, Control_c, 0, 64, 0
4, 76875, Control_c, 0, 64, 127
4, 77170, Control_c, 0, 64, 0
4, 77372, Control_c, 0, 64, 127
4, 78972, Control_c, 0, 64, 0
4, 80715, Control_c, 0, 64, 127
4, 81010, Control_c, 0, 64, 0
4, 81212, Control_c, 0, 64, 127
4, 82560, Control_c, 0, 64, 0
4, 82663, Control_c, 0, 64, 127
4, 83542, Control_c, 0, 64, 0
4, 83617, Control_c, 0, 64, 127
4, 84480, Control_c, 0, 64, 0
4, 84543, Control_c, 0, 64, 127
4, 85447, Control_c, 0, 64, 0
4, 85572, Control_c, 0, 64, 127
4, 86400, Control_c, 0, 64, 0
4, 86475, Control_c, 0, 64, 127
4, 87375, Control_c, 0, 64, 0
4, 87457, Control_c, 0, 64, 127
4, 88320, Control_c, 0, 64, 0
4, 88395, Control_c, 0, 64, 127
4, 88808, Control_c, 0, 64, 0
4, 88869, Control_c, 0, 64, 127
4, 89295, Control_c, 0, 64, 0
4, 89377, Control_c, 0, 64, 127
4, 89777, Control_c, 0, 64, 0
4, 89869, Control_c, 0, 64, 127
4, 90255, Control_c, 0, 64, 0
4, 90293, Control_c, 0, 64, 127
4, 90737, Control_c, 0, 64, 0
4, 90787, Control_c, 0, 64, 127
4, 91200, Control_c, 0, 64, 0
4, 91263, Control_c, 0, 64, 127
4, 91450, Control_c, 0, 64, 0
4, 92206, Control_c, 0, 64, 127
4, 92410, Control_c, 0, 64, 0
4, 93183, Control_c, 0, 64, 127
4, 93370, Control_c, 0, 64, 0
4, 95103, Control_c, 0, 64, 127
4, 95290, Control_c, 0, 64, 0
4, 96046, Control_c, 0, 64, 127
4, 96250, Control_c, 0, 64, 0
4, 97023, Control_c, 0, 64, 127
4, 97210, Control_c, 0, 64, 0
4, 103760, Control_c, 0, 64, 127
4, 105600, Control_c, 0, 64, 0
4, 105657, Control_c, 0, 64, 127
4, 105848, Control_c, 0, 64, 0
4, 105918, Control_c, 0, 64, 127
4, 106093, Control_c, 0, 64, 0
4, 106144, Control_c, 0, 64, 127
4, 106333, Control_c, 0, 64, 0
4, 106398, Control_c, 0, 64, 127
4, 106575, Control_c, 0, 64, 0
4, 106638, Control_c, 0, 64, 127
4, 106814, Control_c, 0, 64, 0
4, 106885, Control_c, 0, 64, 127
4, 107053, Control_c, 0, 64, 0
4, 107125, Control_c, 0, 64, 127
4, 107284, Control_c, 0, 64, 0
4, 107337, Control_c, 0, 64, 127
4, 107457, Control_c, 0, 64, 0
4, 107612, Control_c, 0, 64, 127
4, 107768, Control_c, 0, 64, 0
4, 107838, Control_c, 0, 64, 127
4, 108013, Control_c, 0, 64, 0
4, 108092, Control_c, 0, 64, 127
4, 108253, Control_c, 0, 64, 0
4, 108318, Control_c, 0, 64, 127
4, 108495, Control_c, 0, 64, 0
4, 108544, Control_c, 0, 64, 127
4, 108734, Control_c, 0, 64, 0
4, 108805, Control_c, 0, 64, 127
4, 108973, Control_c, 0, 64, 0
4, 109045, Control_c, 0, 64, 127
4, 109204, Control_c, 0, 64, 0
4, 109257, Control_c, 0, 64, 127
4, 109377, Control_c, 0, 64, 0
4, 109511, Control_c, 0, 64, 127
4, 109688, Control_c, 0, 64, 0
4, 109758, Control_c, 0, 64, 127
4, 109933, Control_c, 0, 64, 0
4, 109984, Control_c, 0, 64, 127
4, 110173, Control_c, 0, 64, 0
4, 110238, Control_c, 0, 64, 127
4, 110415, Control_c, 0, 64, 0
4, 110492, Control_c, 0, 64, 127
4, 110654, Control_c, 0, 64, 0
4, 110725, Control_c, 0, 64, 127
4, 110893, Control_c, 0, 64, 0
4, 110965, Control_c, 0, 64, 127
4, 111124, Control_c, 0, 64, 0
4, 111177, Control_c, 0, 64, 127
4, 111297, Control_c, 0, 64, 0
4, 111438, Control_c, 0, 64, 127
4, 111608, Control_c, 0, 64, 0
4, 111678, Control_c, 0, 64, 127
4, 111853, Control_c, 0, 64, 0
4, 111918, Control_c, 0, 64, 127
4, 112093, Control_c, 0, 64, 0
4, 112158, Control_c, 0, 64, 127
4, 112335, Control_c, 0, 64, 0
4, 112405, Control_c, 0, 64, 127
4, 112574, Control_c, 0, 64, 0
4, 112645, Control_c, 0, 64, 127
4, 112813, Control_c, 0, 64, 0
4, 112885, Control_c, 0, 64, 127
4, 113044, Control_c, 0, 64, 0
4, 113097, Control_c, 0, 64, 127
4, 113217, Control_c, 0, 64, 0
4, 113315, Control_c, 0, 64, 127
4, 114258, Control_c, 0, 64, 0
4, 114320, Control_c, 0, 64, 127
4, 115200, Control_c, 0, 64, 0
4, 115286, Control_c, 0, 64, 127
4, 117120, Control_c, 0, 64, 0
4, 117212, Control_c, 0, 64, 127
4, 118098, Control_c, 0, 64, 0
4, 118160, Control_c, 0, 64, 127
4, 119040, Control_c, 0, 64, 0
4, 119126, Control_c, 0, 64, 127
4, 120011, Control_c, 0, 64, 0
4, 120132, Control_c, 0, 64, 127
4, 120960, Control_c, 0, 64, 0
4, 121046, Control_c, 0, 64, 127
4, 121931, Control_c, 0, 64, 0
4, 122052, Control_c, 0, 64, 127
4, 122880, Control_c, 0, 64, 0
4, 122972, Control_c, 0, 64, 127
4, 124337, Control_c, 0, 64, 0
4, 124417, Control_c, 0, 64, 127
4, 124800, Control_c, 0, 64, 0
4, 124850, Control_c, 0, 64, 127
4, 126968, Control_c, 0, 64, 0
4, 127989, Control_c, 0, 64, 127
4, 128640, Control_c, 0, 64, 0
4, 128732, Control_c, 0, 64, 127
4, 129132, Control_c, 0, 64, 0
4, 129189, Control_c, 0, 64, 127
4, 129629, Control_c, 0, 64, 0
4, 130623, Control_c, 0, 64, 127
4, 131533, Control_c, 0, 64, 0
4, 131623, Control_c, 0, 64, 127
4, 132480, Control_c, 0, 64, 0
4, 132543, Control_c, 0, 64, 127
4, 133453, Control_c, 0, 64, 0
4, 133543, Control_c, 0, 64, 127
4, 134400, Control_c, 0, 64, 0
4, 134463, Control_c, 0, 64, 127
4, 140160, Control_c, 0, 64, 0
4, 140160, End_track
5, 0, Start_track
5, 0, Title_t, "Debussy: Childrens Corner 4"
5, 0, End_track
6, 0, Start_track
6, 0, Title_t, "Copyright © 2010 by Bernd Krueger"
6, 0, End_track
7, 0, Start_track
7, 0, Title_t, "http://www.piano-midi.de/"
7, 0, End_track
8, 0, Start_track
8, 0, Title_t, "Edition:  2011-05-25"
8, 0, End_track
9, 0, Start_track
9, 0, Title_t, "Spur 8"
9, 0, End_track
10, 0, Start_track
10, 0, Title_t, "Spur 9"
10, 0, End_track
11, 0, Start_track
11, 0, Title_t, "Spur 10"
11, 0, End_track
12, 0, Start_track
12, 0, Title_t, "Spur 11"
12, 0, End_track
13, 0, Start_track
13, 0, Title_t, "Spur 12"
13, 0, End_track
14, 0, Start_track
14, 0, Title_t, "Spur 13"
14, 0, End_track
15, 0, Start_track
15, 0, Title_t, "Spur 14"
15, 0, End_track
16, 0, Start_track
16, 0, Title_t, "Spur 15"
16, 0, End_track
17, 0, Start_track
17, 0, Title_t, "Spur 16"
17, 0, End_track
0, 0, End_of_file
