0, 0, Header, 1, 17, 480
1, 0, Start_track
1, 0, Title_t, "Grieg: Lyrische Stücke, Norwegischer Bauernmarsch, Opus 54 Nr. 2"
1, 0, Copyright_t, "Copyright © 2012 by Bernd Krueger"
1, 0, Text_t, "Bernd Krueger"
1, 0, Text_t, "Allegretto marcato"
1, 0, Text_t, "Erstellt:  4.10.2012\012"
1, 0, Text_t, "Dauer: 3:01 Minuten\012"
1, 0, Time_signature, 6, 3, 12, 8
1, 0, Key_signature, 0, "major"
1, 0, Tempo, 383142
1, 720, Tempo, 374766
1, 2160, Tempo, 370142
1, 2640, Tempo, 380711
1, 2880, Tempo, 391901
1, 3120, Tempo, 374766
1, 3840, Tempo, 369004
1, 4320, Tempo, 369004
1, 4800, Tempo, 378310
1, 5040, Tempo, 370142
1, 5520, Tempo, 379507
1, 5760, Tempo, 391901
1, 6000, Tempo, 372439
1, 6720, Tempo, 365631
1, 6960, Tempo, 379507
1, 7200, Tempo, 369004
1, 7680, Tempo, 385604
1, 7920, Tempo, 374766
1, 8400, Tempo, 390625
1, 8640, Tempo, 372439
1, 9120, Tempo, 391901
1, 9360, Tempo, 378310
1, 9600, Tempo, 380711
1, 9840, Tempo, 390625
1, 10080, Tempo, 405132
1, 10560, Tempo, 431344
1, 10800, Tempo, 405132
1, 11520, Tempo, 383142
1, 12240, Tempo, 374766
1, 13680, Tempo, 370142
1, 14160, Tempo, 380711
1, 14400, Tempo, 391901
1, 14640, Tempo, 374766
1, 15360, Tempo, 369004
1, 15840, Tempo, 369004
1, 16320, Tempo, 378310
1, 16560, Tempo, 370142
1, 17040, Tempo, 379507
1, 17280, Tempo, 391901
1, 17520, Tempo, 372439
1, 18240, Tempo, 365631
1, 18480, Tempo, 379507
1, 18720, Tempo, 369004
1, 19200, Tempo, 385604
1, 19440, Tempo, 374766
1, 19920, Tempo, 390625
1, 20160, Tempo, 372439
1, 20640, Tempo, 391901
1, 20880, Tempo, 378310
1, 21120, Tempo, 380711
1, 21360, Tempo, 390625
1, 21600, Tempo, 405132
1, 22080, Tempo, 431344
1, 22320, Tempo, 405132
1, 23520, Tempo, 428266
1, 24000, Tempo, 374766
1, 24480, Tempo, 369004
1, 24960, Tempo, 379507
1, 25200, Tempo, 370142
1, 25680, Tempo, 380711
1, 25920, Tempo, 391901
1, 26400, Tempo, 379507
1, 26880, Tempo, 374766
1, 28080, Tempo, 370142
1, 28560, Tempo, 380711
1, 28800, Tempo, 391901
1, 29040, Tempo, 374766
1, 29760, Tempo, 370142
1, 30240, Tempo, 366748
1, 30720, Tempo, 379507
1, 30960, Tempo, 370142
1, 31440, Tempo, 380711
1, 31680, Tempo, 391901
1, 32160, Tempo, 379507
1, 32640, Tempo, 374766
1, 33840, Tempo, 370142
1, 34320, Tempo, 380711
1, 34560, Tempo, 391901
1, 34800, Tempo, 374766
1, 35280, Tempo, 385604
1, 35520, Tempo, 362319
1, 35774, Tempo, 380711
1, 36014, Tempo, 391901
1, 36254, Tempo, 374766
1, 36960, Tempo, 362319
1, 37214, Tempo, 380711
1, 37440, Tempo, 381922
1, 37680, Tempo, 362319
1, 37934, Tempo, 380711
1, 38400, Tempo, 362319
1, 38654, Tempo, 380711
1, 38880, Tempo, 381922
1, 39120, Tempo, 362319
1, 39374, Tempo, 380711
1, 39840, Tempo, 362319
1, 40094, Tempo, 380711
1, 40320, Tempo, 381922
1, 40560, Tempo, 362319
1, 40800, Tempo, 375940
1, 40814, Tempo, 380711
1, 41280, Tempo, 362319
1, 41520, Tempo, 374766
1, 41760, Tempo, 381922
1, 42000, Tempo, 362319
1, 42240, Tempo, 372439
1, 42720, Tempo, 362319
1, 42974, Tempo, 380711
1, 43200, Tempo, 381922
1, 43440, Tempo, 362319
1, 43694, Tempo, 380711
1, 44160, Tempo, 362319
1, 44400, Tempo, 401070
1, 44640, Tempo, 381922
1, 44880, Tempo, 362319
1, 45134, Tempo, 380711
1, 45600, Tempo, 362319
1, 45854, Tempo, 380711
1, 46080, Tempo, 374766
1, 46320, Tempo, 362319
1, 46560, Tempo, 370142
1, 47040, Tempo, 362319
1, 47294, Tempo, 380711
1, 47520, Tempo, 381922
1, 47760, Tempo, 362319
1, 48000, Tempo, 367872
1, 48480, Tempo, 362319
1, 48734, Tempo, 380711
1, 48960, Tempo, 371287
1, 49200, Tempo, 362319
1, 49440, Tempo, 371287
1, 49920, Tempo, 362319
1, 50174, Tempo, 380711
1, 50400, Tempo, 381922
1, 50640, Tempo, 362319
1, 50894, Tempo, 380711
1, 51360, Tempo, 362319
1, 51614, Tempo, 380711
1, 51840, Tempo, 381922
1, 52080, Tempo, 362319
1, 52334, Tempo, 380711
1, 52800, Tempo, 362319
1, 53054, Tempo, 380711
1, 53280, Tempo, 381922
1, 53520, Tempo, 362319
1, 53774, Tempo, 380711
1, 54240, Tempo, 362319
1, 54494, Tempo, 380711
1, 54720, Tempo, 381922
1, 54960, Tempo, 362319
1, 55214, Tempo, 380711
1, 55680, Tempo, 362319
1, 55934, Tempo, 380711
1, 56160, Tempo, 381922
1, 56400, Tempo, 362319
1, 56654, Tempo, 380711
1, 57120, Tempo, 374766
1, 58320, Tempo, 370142
1, 58800, Tempo, 380711
1, 59040, Tempo, 391901
1, 59280, Tempo, 374766
1, 60000, Tempo, 370142
1, 60240, Tempo, 381922
1, 60480, Tempo, 375940
1, 61200, Tempo, 370142
1, 61680, Tempo, 380711
1, 61920, Tempo, 391901
1, 62160, Tempo, 374766
1, 62880, Tempo, 374766
1, 63360, Tempo, 370142
1, 63600, Tempo, 375940
1, 64080, Tempo, 370142
1, 64560, Tempo, 380711
1, 64800, Tempo, 391901
1, 65040, Tempo, 374766
1, 65760, Tempo, 369004
1, 66000, Tempo, 377121
1, 66240, Tempo, 374766
1, 66960, Tempo, 370142
1, 67440, Tempo, 380711
1, 67680, Tempo, 391901
1, 67920, Tempo, 374766
1, 68640, Tempo, 374766
1, 69120, Tempo, 366748
1, 69360, Tempo, 378310
1, 69840, Tempo, 370142
1, 70320, Tempo, 380711
1, 70560, Tempo, 374766
1, 71280, Tempo, 370142
1, 71760, Tempo, 380711
1, 72000, Tempo, 364520
1, 72240, Tempo, 374766
1, 72720, Tempo, 370142
1, 73200, Tempo, 380711
1, 73440, Tempo, 391901
1, 73680, Tempo, 374766
1, 74400, Tempo, 370142
1, 74640, Tempo, 380711
1, 74880, Tempo, 374766
1, 75600, Tempo, 370142
1, 76080, Tempo, 380711
1, 76320, Tempo, 391901
1, 76560, Tempo, 374766
1, 77280, Tempo, 370142
1, 77520, Tempo, 380711
1, 77760, Tempo, 366748
1, 78000, Tempo, 377121
1, 78480, Tempo, 370142
1, 78960, Tempo, 380711
1, 79200, Tempo, 391901
1, 79440, Tempo, 374766
1, 80160, Tempo, 370142
1, 80400, Tempo, 383142
1, 80640, Tempo, 369004
1, 80880, Tempo, 375940
1, 81360, Tempo, 370142
1, 81840, Tempo, 380711
1, 82080, Tempo, 374766
1, 82800, Tempo, 370142
1, 83280, Tempo, 380711
1, 83520, Tempo, 374766
1, 84240, Tempo, 370142
1, 84720, Tempo, 380711
1, 84960, Tempo, 391901
1, 85200, Tempo, 374766
1, 85680, Tempo, 397088
1, 85920, Tempo, 383142
1, 86160, Tempo, 398406
1, 86400, Tempo, 379507
1, 87120, Tempo, 370142
1, 87600, Tempo, 380711
1, 87840, Tempo, 391901
1, 88080, Tempo, 374766
1, 88800, Tempo, 383142
1, 89040, Tempo, 398406
1, 89280, Tempo, 375940
1, 90000, Tempo, 370142
1, 90480, Tempo, 380711
1, 90720, Tempo, 391901
1, 90960, Tempo, 374766
1, 91680, Tempo, 383142
1, 91920, Tempo, 398406
1, 92160, Tempo, 375940
1, 92880, Tempo, 370142
1, 93360, Tempo, 380711
1, 93600, Tempo, 367872
1, 93840, Tempo, 377121
1, 94320, Tempo, 370142
1, 94800, Tempo, 380711
1, 95040, Tempo, 375940
1, 95760, Tempo, 370142
1, 96240, Tempo, 380711
1, 96480, Tempo, 391901
1, 96720, Tempo, 374766
1, 97200, Tempo, 391901
1, 97440, Tempo, 401070
1, 97680, Tempo, 409277
1, 97920, Tempo, 388098
1, 98160, Tempo, 375940
1, 98640, Tempo, 370142
1, 99120, Tempo, 380711
1, 99360, Tempo, 391901
1, 99600, Tempo, 374766
1, 100320, Tempo, 384369
1, 100560, Tempo, 394477
1, 100800, Tempo, 388098
1, 101040, Tempo, 375940
1, 101520, Tempo, 370142
1, 102000, Tempo, 380711
1, 102240, Tempo, 391901
1, 102480, Tempo, 374766
1, 102960, Tempo, 386847
1, 103200, Tempo, 401070
1, 103440, Tempo, 425230
1, 103680, Tempo, 388098
1, 103920, Tempo, 375940
1, 104400, Tempo, 370142
1, 104880, Tempo, 380711
1, 105120, Tempo, 405132
1, 105360, Tempo, 374766
1, 106080, Tempo, 384369
1, 106320, Tempo, 394477
1, 106560, Tempo, 388098
1, 106800, Tempo, 375940
1, 107280, Tempo, 370142
1, 107760, Tempo, 380711
1, 108000, Tempo, 406504
1, 108240, Tempo, 374766
1, 109200, Tempo, 406504
1, 109440, Tempo, 406504
1, 109680, Tempo, 374766
1, 109920, Tempo, 375940
1, 110160, Tempo, 370142
1, 110640, Tempo, 380711
1, 110880, Tempo, 406504
1, 111120, Tempo, 374766
1, 111360, Tempo, 375940
1, 111600, Tempo, 370142
1, 111840, Tempo, 383142
1, 112080, Tempo, 399734
1, 112320, Tempo, 420757
1, 112560, Tempo, 409277
1, 113760, Tempo, 383142
1, 114480, Tempo, 374766
1, 115920, Tempo, 370142
1, 116400, Tempo, 380711
1, 116640, Tempo, 391901
1, 116880, Tempo, 374766
1, 117600, Tempo, 374766
1, 118800, Tempo, 370142
1, 119280, Tempo, 380711
1, 119520, Tempo, 391901
1, 119760, Tempo, 374766
1, 120480, Tempo, 374766
1, 120960, Tempo, 369004
1, 121440, Tempo, 379507
1, 121680, Tempo, 370142
1, 122160, Tempo, 380711
1, 122400, Tempo, 391901
1, 122880, Tempo, 379507
1, 123360, Tempo, 374766
1, 124560, Tempo, 370142
1, 125040, Tempo, 380711
1, 125280, Tempo, 391901
1, 125520, Tempo, 374766
1, 126240, Tempo, 371287
1, 126480, Tempo, 365631
1, 126720, Tempo, 369004
1, 127200, Tempo, 385604
1, 127440, Tempo, 370142
1, 127920, Tempo, 380711
1, 128160, Tempo, 391901
1, 128640, Tempo, 379507
1, 129120, Tempo, 374766
1, 130320, Tempo, 370142
1, 130800, Tempo, 380711
1, 131040, Tempo, 391901
1, 131280, Tempo, 374766
1, 131760, Tempo, 385604
1, 132000, Tempo, 362319
1, 132254, Tempo, 380711
1, 132494, Tempo, 391901
1, 132734, Tempo, 374766
1, 133440, Tempo, 362319
1, 133694, Tempo, 380711
1, 133920, Tempo, 381922
1, 134160, Tempo, 362319
1, 134414, Tempo, 380711
1, 134880, Tempo, 362319
1, 135134, Tempo, 380711
1, 135360, Tempo, 381922
1, 135600, Tempo, 362319
1, 135840, Tempo, 370142
1, 136320, Tempo, 362319
1, 136574, Tempo, 380711
1, 136800, Tempo, 381922
1, 137040, Tempo, 362319
1, 137280, Tempo, 367872
1, 137760, Tempo, 362319
1, 138014, Tempo, 380711
1, 138240, Tempo, 381922
1, 138480, Tempo, 362319
1, 138720, Tempo, 369004
1, 139200, Tempo, 362319
1, 139454, Tempo, 380711
1, 139680, Tempo, 381922
1, 139920, Tempo, 362319
1, 140160, Tempo, 370142
1, 140640, Tempo, 362319
1, 140880, Tempo, 390625
1, 141120, Tempo, 381922
1, 141360, Tempo, 362319
1, 141614, Tempo, 380711
1, 142080, Tempo, 362319
1, 142334, Tempo, 380711
1, 142560, Tempo, 381922
1, 142800, Tempo, 362319
1, 143040, Tempo, 371287
1, 143520, Tempo, 362319
1, 143774, Tempo, 380711
1, 144000, Tempo, 381922
1, 144240, Tempo, 362319
1, 144480, Tempo, 370142
1, 144960, Tempo, 362319
1, 145214, Tempo, 380711
1, 145440, Tempo, 381922
1, 145680, Tempo, 362319
1, 145920, Tempo, 370142
1, 146400, Tempo, 362319
1, 146654, Tempo, 380711
1, 146880, Tempo, 381922
1, 147120, Tempo, 362319
1, 147374, Tempo, 380711
1, 147840, Tempo, 362319
1, 148094, Tempo, 380711
1, 148320, Tempo, 381922
1, 148560, Tempo, 362319
1, 148814, Tempo, 380711
1, 149280, Tempo, 362319
1, 149534, Tempo, 380711
1, 149760, Tempo, 381922
1, 150000, Tempo, 362319
1, 150254, Tempo, 380711
1, 150720, Tempo, 362319
1, 150974, Tempo, 380711
1, 151200, Tempo, 381922
1, 151440, Tempo, 362319
1, 151694, Tempo, 380711
1, 152160, Tempo, 362319
1, 152414, Tempo, 380711
1, 152640, Tempo, 381922
1, 152880, Tempo, 362319
1, 153134, Tempo, 380711
1, 153600, Tempo, 374766
1, 154800, Tempo, 370142
1, 155280, Tempo, 380711
1, 155520, Tempo, 391901
1, 155760, Tempo, 374766
1, 156480, Tempo, 374766
1, 157680, Tempo, 370142
1, 158160, Tempo, 380711
1, 158400, Tempo, 391901
1, 158640, Tempo, 374766
1, 159360, Tempo, 369004
1, 159840, Tempo, 374766
1, 160560, Tempo, 370142
1, 161040, Tempo, 380711
1, 161280, Tempo, 391901
1, 161520, Tempo, 374766
1, 162240, Tempo, 374766
1, 162720, Tempo, 363416
1, 162960, Tempo, 383142
1, 163200, Tempo, 374766
1, 163440, Tempo, 370142
1, 163920, Tempo, 380711
1, 164160, Tempo, 391901
1, 164400, Tempo, 374766
1, 165120, Tempo, 366748
1, 165360, Tempo, 380711
1, 165600, Tempo, 375940
1, 166320, Tempo, 370142
1, 166800, Tempo, 380711
1, 167040, Tempo, 374766
1, 167760, Tempo, 362319
1, 168000, Tempo, 371287
1, 168240, Tempo, 380711
1, 168480, Tempo, 374766
1, 169200, Tempo, 370142
1, 169680, Tempo, 380711
1, 169920, Tempo, 391901
1, 170160, Tempo, 374766
1, 170880, Tempo, 370142
1, 171120, Tempo, 380711
1, 171360, Tempo, 374766
1, 172080, Tempo, 370142
1, 172320, Tempo, 364520
1, 172560, Tempo, 380711
1, 172800, Tempo, 391901
1, 173040, Tempo, 374766
1, 173760, Tempo, 370142
1, 174000, Tempo, 380711
1, 174240, Tempo, 374766
1, 174960, Tempo, 363416
1, 175200, Tempo, 371287
1, 175440, Tempo, 380711
1, 175680, Tempo, 391901
1, 175920, Tempo, 374766
1, 176640, Tempo, 363416
1, 176880, Tempo, 380711
1, 177120, Tempo, 374766
1, 177840, Tempo, 370142
1, 178320, Tempo, 380711
1, 178560, Tempo, 374766
1, 179280, Tempo, 370142
1, 179760, Tempo, 380711
1, 180000, Tempo, 374766
1, 180720, Tempo, 370142
1, 181200, Tempo, 380711
1, 181440, Tempo, 391901
1, 181680, Tempo, 374766
1, 182160, Tempo, 397088
1, 182400, Tempo, 383142
1, 182640, Tempo, 398406
1, 182880, Tempo, 375940
1, 183600, Tempo, 370142
1, 184080, Tempo, 380711
1, 184320, Tempo, 391901
1, 184560, Tempo, 374766
1, 185280, Tempo, 383142
1, 185520, Tempo, 398406
1, 185760, Tempo, 375940
1, 186480, Tempo, 370142
1, 186960, Tempo, 380711
1, 187200, Tempo, 391901
1, 187440, Tempo, 374766
1, 188160, Tempo, 383142
1, 188400, Tempo, 398406
1, 188640, Tempo, 375940
1, 189360, Tempo, 370142
1, 189840, Tempo, 380711
1, 190080, Tempo, 375940
1, 190800, Tempo, 364520
1, 191280, Tempo, 389358
1, 191520, Tempo, 375940
1, 192240, Tempo, 370142
1, 192720, Tempo, 380711
1, 192960, Tempo, 391901
1, 193200, Tempo, 374766
1, 193680, Tempo, 391901
1, 193920, Tempo, 401070
1, 194160, Tempo, 409277
1, 194400, Tempo, 388098
1, 194640, Tempo, 375940
1, 195120, Tempo, 370142
1, 195600, Tempo, 380711
1, 195840, Tempo, 391901
1, 196080, Tempo, 374766
1, 196800, Tempo, 384369
1, 197040, Tempo, 394477
1, 197280, Tempo, 388098
1, 197520, Tempo, 375940
1, 198000, Tempo, 370142
1, 198480, Tempo, 380711
1, 198720, Tempo, 391901
1, 198960, Tempo, 374766
1, 199440, Tempo, 386847
1, 199680, Tempo, 401070
1, 199920, Tempo, 425230
1, 200160, Tempo, 388098
1, 200400, Tempo, 375940
1, 200880, Tempo, 370142
1, 201360, Tempo, 380711
1, 201600, Tempo, 405132
1, 201840, Tempo, 374766
1, 202560, Tempo, 384369
1, 202800, Tempo, 394477
1, 203040, Tempo, 388098
1, 203280, Tempo, 375940
1, 203760, Tempo, 370142
1, 204240, Tempo, 380711
1, 204480, Tempo, 406504
1, 204720, Tempo, 374766
1, 205440, Tempo, 386847
1, 205680, Tempo, 406504
1, 205920, Tempo, 406504
1, 206160, Tempo, 374766
1, 206400, Tempo, 375940
1, 206640, Tempo, 370142
1, 207120, Tempo, 380711
1, 207360, Tempo, 406504
1, 207600, Tempo, 374766
1, 207840, Tempo, 375940
1, 208080, Tempo, 370142
1, 208320, Tempo, 383142
1, 208560, Tempo, 399734
1, 208800, Tempo, 420757
1, 209040, Tempo, 409277
1, 210240, Tempo, 383142
1, 210960, Tempo, 374766
1, 212400, Tempo, 370142
1, 212880, Tempo, 380711
1, 213120, Tempo, 391901
1, 213360, Tempo, 374766
1, 214080, Tempo, 374766
1, 214560, Tempo, 371287
1, 214800, Tempo, 379507
1, 215040, Tempo, 374766
1, 215280, Tempo, 370142
1, 215760, Tempo, 380711
1, 216000, Tempo, 391901
1, 216240, Tempo, 374766
1, 216960, Tempo, 370142
1, 217200, Tempo, 380711
1, 217440, Tempo, 391901
1, 217680, Tempo, 374766
1, 217920, Tempo, 374766
1, 218400, Tempo, 370142
1, 218640, Tempo, 380711
1, 218880, Tempo, 391901
1, 219360, Tempo, 374766
1, 219840, Tempo, 370142
1, 220080, Tempo, 380711
1, 220320, Tempo, 391901
1, 220560, Tempo, 374766
1, 220800, Tempo, 374766
1, 221280, Tempo, 370142
1, 221520, Tempo, 380711
1, 221760, Tempo, 391901
1, 222000, Tempo, 381922
1, 223200, Tempo, 410678
1, 223440, Tempo, 399734
1, 224400, Tempo, 439239
1, 224640, Tempo, 489396
1, 224880, Tempo, 532860
1, 224880, End_track
2, 0, Start_track
2, 0, Title_t, "Piano right"
2, 0, Program_c, 0, 0
2, 960, Note_on_c, 0, 72, 40
2, 1200, Note_on_c, 0, 72, 0
2, 1200, Note_on_c, 0, 74, 37
2, 1440, Note_on_c, 0, 74, 0
2, 1440, Note_on_c, 0, 65, 34
2, 1440, Note_on_c, 0, 76, 45
2, 1680, Note_on_c, 0, 76, 0
2, 1680, Note_on_c, 0, 72, 38
2, 1920, Note_on_c, 0, 72, 0
2, 1920, Note_on_c, 0, 76, 38
2, 2160, Note_on_c, 0, 65, 0
2, 2160, Note_on_c, 0, 67, 34
2, 2280, Note_on_c, 0, 76, 0
2, 2280, Note_on_c, 0, 74, 34
2, 2340, Note_on_c, 0, 74, 0
2, 2340, Note_on_c, 0, 76, 34
2, 2400, Note_on_c, 0, 76, 0
2, 2400, Note_on_c, 0, 74, 43
2, 2640, Note_on_c, 0, 74, 0
2, 2640, Note_on_c, 0, 71, 38
2, 2880, Note_on_c, 0, 71, 0
2, 2880, Note_on_c, 0, 67, 0
2, 2880, Note_on_c, 0, 64, 34
2, 2880, Note_on_c, 0, 74, 40
2, 3000, Note_on_c, 0, 74, 0
2, 3360, Note_on_c, 0, 74, 49
2, 3600, Note_on_c, 0, 64, 0
2, 3600, Note_on_c, 0, 65, 34
2, 3840, Note_on_c, 0, 74, 0
2, 3840, Note_on_c, 0, 72, 40
2, 4080, Note_on_c, 0, 72, 0
2, 4080, Note_on_c, 0, 69, 37
2, 4320, Note_on_c, 0, 69, 0
2, 4320, Note_on_c, 0, 65, 0
2, 4320, Note_on_c, 0, 62, 34
2, 4320, Note_on_c, 0, 72, 45
2, 4560, Note_on_c, 0, 72, 0
2, 4560, Note_on_c, 0, 69, 38
2, 4800, Note_on_c, 0, 69, 0
2, 4800, Note_on_c, 0, 72, 38
2, 5040, Note_on_c, 0, 72, 0
2, 5040, Note_on_c, 0, 62, 0
2, 5040, Note_on_c, 0, 71, 45
2, 5040, Note_on_c, 0, 60, 34
2, 5280, Note_on_c, 0, 71, 0
2, 5280, Note_on_c, 0, 67, 43
2, 5520, Note_on_c, 0, 67, 0
2, 5520, Note_on_c, 0, 71, 38
2, 5760, Note_on_c, 0, 71, 0
2, 5760, Note_on_c, 0, 60, 0
2, 5760, Note_on_c, 0, 59, 34
2, 5760, Note_on_c, 0, 69, 40
2, 5880, Note_on_c, 0, 69, 0
2, 6240, Note_on_c, 0, 69, 46
2, 6480, Note_on_c, 0, 59, 0
2, 6480, Note_on_c, 0, 60, 34
2, 6720, Note_on_c, 0, 69, 0
2, 6720, Note_on_c, 0, 67, 40
2, 6960, Note_on_c, 0, 67, 0
2, 6960, Note_on_c, 0, 64, 37
2, 7200, Note_on_c, 0, 64, 0
2, 7200, Note_on_c, 0, 60, 0
2, 7200, Note_on_c, 0, 59, 34
2, 7200, Note_on_c, 0, 67, 45
2, 7440, Note_on_c, 0, 67, 0
2, 7440, Note_on_c, 0, 62, 38
2, 7680, Note_on_c, 0, 62, 0
2, 7680, Note_on_c, 0, 67, 38
2, 7920, Note_on_c, 0, 59, 0
2, 7920, Note_on_c, 0, 57, 34
2, 8040, Note_on_c, 0, 67, 0
2, 8040, Note_on_c, 0, 64, 34
2, 8100, Note_on_c, 0, 64, 0
2, 8100, Note_on_c, 0, 66, 34
2, 8160, Note_on_c, 0, 66, 0
2, 8160, Note_on_c, 0, 64, 43
2, 8400, Note_on_c, 0, 64, 0
2, 8400, Note_on_c, 0, 62, 38
2, 8640, Note_on_c, 0, 62, 0
2, 8640, Note_on_c, 0, 57, 0
2, 8640, Note_on_c, 0, 59, 30
2, 8640, Note_on_c, 0, 67, 40
2, 8880, Note_on_c, 0, 67, 0
2, 8880, Note_on_c, 0, 62, 33
2, 9120, Note_on_c, 0, 62, 0
2, 9120, Note_on_c, 0, 67, 32
2, 9360, Note_on_c, 0, 59, 0
2, 9360, Note_on_c, 0, 57, 28
2, 9480, Note_on_c, 0, 67, 0
2, 9480, Note_on_c, 0, 64, 27
2, 9540, Note_on_c, 0, 64, 0
2, 9540, Note_on_c, 0, 66, 27
2, 9600, Note_on_c, 0, 66, 0
2, 9600, Note_on_c, 0, 64, 34
2, 9840, Note_on_c, 0, 64, 0
2, 9840, Note_on_c, 0, 62, 29
2, 10080, Note_on_c, 0, 62, 0
2, 10080, Note_on_c, 0, 57, 0
2, 10080, Note_on_c, 0, 59, 25
2, 10080, Note_on_c, 0, 67, 30
2, 10200, Note_on_c, 0, 67, 0
2, 10200, Note_on_c, 0, 59, 0
2, 10560, Note_on_c, 0, 59, 24
2, 10560, Note_on_c, 0, 67, 29
2, 11520, Note_on_c, 0, 67, 0
2, 11520, Note_on_c, 0, 59, 0
2, 12480, Note_on_c, 0, 72, 40
2, 12720, Note_on_c, 0, 72, 0
2, 12720, Note_on_c, 0, 74, 37
2, 12960, Note_on_c, 0, 74, 0
2, 12960, Note_on_c, 0, 65, 34
2, 12960, Note_on_c, 0, 76, 45
2, 13200, Note_on_c, 0, 76, 0
2, 13200, Note_on_c, 0, 72, 38
2, 13440, Note_on_c, 0, 72, 0
2, 13440, Note_on_c, 0, 76, 38
2, 13680, Note_on_c, 0, 65, 0
2, 13680, Note_on_c, 0, 67, 34
2, 13800, Note_on_c, 0, 76, 0
2, 13800, Note_on_c, 0, 74, 34
2, 13860, Note_on_c, 0, 74, 0
2, 13860, Note_on_c, 0, 76, 34
2, 13920, Note_on_c, 0, 76, 0
2, 13920, Note_on_c, 0, 74, 43
2, 14160, Note_on_c, 0, 74, 0
2, 14160, Note_on_c, 0, 71, 38
2, 14400, Note_on_c, 0, 71, 0
2, 14400, Note_on_c, 0, 67, 0
2, 14400, Note_on_c, 0, 64, 34
2, 14400, Note_on_c, 0, 74, 40
2, 14520, Note_on_c, 0, 74, 0
2, 14880, Note_on_c, 0, 74, 49
2, 15120, Note_on_c, 0, 64, 0
2, 15120, Note_on_c, 0, 65, 34
2, 15360, Note_on_c, 0, 74, 0
2, 15360, Note_on_c, 0, 72, 40
2, 15600, Note_on_c, 0, 72, 0
2, 15600, Note_on_c, 0, 69, 37
2, 15840, Note_on_c, 0, 69, 0
2, 15840, Note_on_c, 0, 65, 0
2, 15840, Note_on_c, 0, 62, 34
2, 15840, Note_on_c, 0, 72, 45
2, 16080, Note_on_c, 0, 72, 0
2, 16080, Note_on_c, 0, 69, 38
2, 16320, Note_on_c, 0, 69, 0
2, 16320, Note_on_c, 0, 72, 38
2, 16560, Note_on_c, 0, 72, 0
2, 16560, Note_on_c, 0, 62, 0
2, 16560, Note_on_c, 0, 71, 45
2, 16560, Note_on_c, 0, 60, 34
2, 16800, Note_on_c, 0, 71, 0
2, 16800, Note_on_c, 0, 67, 43
2, 17040, Note_on_c, 0, 67, 0
2, 17040, Note_on_c, 0, 71, 38
2, 17280, Note_on_c, 0, 71, 0
2, 17280, Note_on_c, 0, 60, 0
2, 17280, Note_on_c, 0, 59, 34
2, 17280, Note_on_c, 0, 69, 40
2, 17400, Note_on_c, 0, 69, 0
2, 17760, Note_on_c, 0, 69, 46
2, 18000, Note_on_c, 0, 59, 0
2, 18000, Note_on_c, 0, 60, 34
2, 18240, Note_on_c, 0, 69, 0
2, 18240, Note_on_c, 0, 67, 40
2, 18480, Note_on_c, 0, 67, 0
2, 18480, Note_on_c, 0, 64, 37
2, 18720, Note_on_c, 0, 64, 0
2, 18720, Note_on_c, 0, 60, 0
2, 18720, Note_on_c, 0, 59, 34
2, 18720, Note_on_c, 0, 67, 45
2, 18960, Note_on_c, 0, 67, 0
2, 18960, Note_on_c, 0, 62, 38
2, 19200, Note_on_c, 0, 62, 0
2, 19200, Note_on_c, 0, 67, 38
2, 19440, Note_on_c, 0, 59, 0
2, 19440, Note_on_c, 0, 57, 34
2, 19560, Note_on_c, 0, 67, 0
2, 19560, Note_on_c, 0, 64, 34
2, 19620, Note_on_c, 0, 64, 0
2, 19620, Note_on_c, 0, 66, 34
2, 19680, Note_on_c, 0, 66, 0
2, 19680, Note_on_c, 0, 64, 43
2, 19920, Note_on_c, 0, 64, 0
2, 19920, Note_on_c, 0, 62, 38
2, 20160, Note_on_c, 0, 62, 0
2, 20160, Note_on_c, 0, 57, 0
2, 20160, Note_on_c, 0, 59, 30
2, 20160, Note_on_c, 0, 67, 40
2, 20400, Note_on_c, 0, 67, 0
2, 20400, Note_on_c, 0, 62, 33
2, 20640, Note_on_c, 0, 62, 0
2, 20640, Note_on_c, 0, 67, 32
2, 20880, Note_on_c, 0, 59, 0
2, 20880, Note_on_c, 0, 57, 28
2, 21000, Note_on_c, 0, 67, 0
2, 21000, Note_on_c, 0, 64, 27
2, 21060, Note_on_c, 0, 64, 0
2, 21060, Note_on_c, 0, 66, 27
2, 21120, Note_on_c, 0, 66, 0
2, 21120, Note_on_c, 0, 64, 34
2, 21360, Note_on_c, 0, 64, 0
2, 21360, Note_on_c, 0, 62, 29
2, 21600, Note_on_c, 0, 62, 0
2, 21600, Note_on_c, 0, 57, 0
2, 21600, Note_on_c, 0, 59, 25
2, 21600, Note_on_c, 0, 67, 30
2, 21720, Note_on_c, 0, 67, 0
2, 21720, Note_on_c, 0, 59, 0
2, 22080, Note_on_c, 0, 59, 24
2, 22080, Note_on_c, 0, 67, 29
2, 23520, Note_on_c, 0, 67, 0
2, 23520, Note_on_c, 0, 59, 0
2, 23520, Note_on_c, 0, 59, 17
2, 23520, Note_on_c, 0, 67, 20
2, 24000, Note_on_c, 0, 67, 0
2, 24000, Note_on_c, 0, 59, 0
2, 24480, Note_on_c, 0, 68, 73
2, 24480, Note_on_c, 0, 71, 75
2, 25200, Note_on_c, 0, 71, 0
2, 25200, Note_on_c, 0, 68, 0
2, 25200, Note_on_c, 0, 69, 62
2, 25200, Note_on_c, 0, 72, 75
2, 25920, Note_on_c, 0, 72, 0
2, 25920, Note_on_c, 0, 69, 0
2, 25920, Note_on_c, 0, 68, 72
2, 25920, Note_on_c, 0, 71, 75
2, 26040, Note_on_c, 0, 71, 0
2, 26040, Note_on_c, 0, 68, 0
2, 26400, Note_on_c, 0, 68, 48
2, 26400, Note_on_c, 0, 71, 75
2, 26880, Note_on_c, 0, 71, 0
2, 26880, Note_on_c, 0, 68, 0
2, 26880, Note_on_c, 0, 71, 40
2, 27120, Note_on_c, 0, 71, 0
2, 27120, Note_on_c, 0, 73, 37
2, 27360, Note_on_c, 0, 73, 0
2, 27360, Note_on_c, 0, 64, 34
2, 27360, Note_on_c, 0, 75, 45
2, 27600, Note_on_c, 0, 75, 0
2, 27600, Note_on_c, 0, 71, 38
2, 27840, Note_on_c, 0, 71, 0
2, 27840, Note_on_c, 0, 75, 38
2, 28080, Note_on_c, 0, 64, 0
2, 28080, Note_on_c, 0, 63, 34
2, 28200, Note_on_c, 0, 75, 0
2, 28200, Note_on_c, 0, 73, 34
2, 28260, Note_on_c, 0, 73, 0
2, 28260, Note_on_c, 0, 75, 34
2, 28320, Note_on_c, 0, 75, 0
2, 28320, Note_on_c, 0, 73, 43
2, 28560, Note_on_c, 0, 73, 0
2, 28560, Note_on_c, 0, 69, 38
2, 28800, Note_on_c, 0, 69, 0
2, 28800, Note_on_c, 0, 63, 0
2, 28800, Note_on_c, 0, 64, 27
2, 28800, Note_on_c, 0, 68, 27
2, 28800, Note_on_c, 0, 71, 34
2, 28920, Note_on_c, 0, 71, 0
2, 28920, Note_on_c, 0, 68, 0
2, 28920, Note_on_c, 0, 64, 0
2, 29280, Note_on_c, 0, 64, 33
2, 29280, Note_on_c, 0, 68, 33
2, 29280, Note_on_c, 0, 71, 41
2, 29760, Note_on_c, 0, 71, 0
2, 29760, Note_on_c, 0, 68, 0
2, 29760, Note_on_c, 0, 64, 0
2, 30240, Note_on_c, 0, 71, 73
2, 30240, Note_on_c, 0, 74, 75
2, 30960, Note_on_c, 0, 74, 0
2, 30960, Note_on_c, 0, 71, 0
2, 30960, Note_on_c, 0, 72, 62
2, 30960, Note_on_c, 0, 75, 75
2, 31680, Note_on_c, 0, 75, 0
2, 31680, Note_on_c, 0, 72, 0
2, 31680, Note_on_c, 0, 71, 72
2, 31680, Note_on_c, 0, 74, 75
2, 31800, Note_on_c, 0, 74, 0
2, 31800, Note_on_c, 0, 71, 0
2, 32160, Note_on_c, 0, 71, 48
2, 32160, Note_on_c, 0, 74, 75
2, 32640, Note_on_c, 0, 74, 0
2, 32640, Note_on_c, 0, 71, 0
2, 32640, Note_on_c, 0, 74, 40
2, 32880, Note_on_c, 0, 74, 0
2, 32880, Note_on_c, 0, 76, 37
2, 33120, Note_on_c, 0, 76, 0
2, 33120, Note_on_c, 0, 67, 34
2, 33120, Note_on_c, 0, 78, 45
2, 33360, Note_on_c, 0, 78, 0
2, 33360, Note_on_c, 0, 74, 38
2, 33600, Note_on_c, 0, 74, 0
2, 33600, Note_on_c, 0, 78, 38
2, 33840, Note_on_c, 0, 67, 0
2, 33840, Note_on_c, 0, 66, 34
2, 33960, Note_on_c, 0, 78, 0
2, 33960, Note_on_c, 0, 76, 34
2, 34020, Note_on_c, 0, 76, 0
2, 34020, Note_on_c, 0, 78, 34
2, 34080, Note_on_c, 0, 78, 0
2, 34080, Note_on_c, 0, 76, 43
2, 34320, Note_on_c, 0, 76, 0
2, 34320, Note_on_c, 0, 72, 38
2, 34560, Note_on_c, 0, 72, 0
2, 34560, Note_on_c, 0, 66, 0
2, 34560, Note_on_c, 0, 67, 27
2, 34560, Note_on_c, 0, 71, 27
2, 34560, Note_on_c, 0, 74, 34
2, 34680, Note_on_c, 0, 74, 0
2, 34680, Note_on_c, 0, 71, 0
2, 34680, Note_on_c, 0, 67, 0
2, 35040, Note_on_c, 0, 67, 33
2, 35040, Note_on_c, 0, 71, 33
2, 35040, Note_on_c, 0, 74, 41
2, 35520, Note_on_c, 0, 74, 0
2, 35520, Note_on_c, 0, 71, 0
2, 35520, Note_on_c, 0, 67, 0
2, 35520, Note_on_c, 0, 74, 43
2, 35640, Note_on_c, 0, 74, 0
2, 35640, Note_on_c, 0, 76, 43
2, 35760, Note_on_c, 0, 76, 0
2, 35760, Note_on_c, 0, 69, 30
2, 35760, Note_on_c, 0, 72, 30
2, 35760, Note_on_c, 0, 78, 38
2, 36000, Note_on_c, 0, 78, 0
2, 36000, Note_on_c, 0, 72, 0
2, 36000, Note_on_c, 0, 69, 0
2, 36014, Note_on_c, 0, 67, 27
2, 36014, Note_on_c, 0, 71, 27
2, 36014, Note_on_c, 0, 74, 34
2, 36134, Note_on_c, 0, 74, 0
2, 36134, Note_on_c, 0, 71, 0
2, 36134, Note_on_c, 0, 67, 0
2, 36480, Note_on_c, 0, 67, 33
2, 36480, Note_on_c, 0, 71, 33
2, 36480, Note_on_c, 0, 74, 41
2, 36960, Note_on_c, 0, 74, 0
2, 36960, Note_on_c, 0, 71, 0
2, 36960, Note_on_c, 0, 67, 0
2, 36960, Note_on_c, 0, 74, 43
2, 37080, Note_on_c, 0, 74, 0
2, 37080, Note_on_c, 0, 76, 43
2, 37200, Note_on_c, 0, 76, 0
2, 37200, Note_on_c, 0, 69, 30
2, 37200, Note_on_c, 0, 72, 30
2, 37200, Note_on_c, 0, 77, 38
2, 37440, Note_on_c, 0, 77, 0
2, 37440, Note_on_c, 0, 72, 0
2, 37440, Note_on_c, 0, 69, 0
2, 37680, Note_on_c, 0, 74, 43
2, 37800, Note_on_c, 0, 74, 0
2, 37800, Note_on_c, 0, 76, 43
2, 37920, Note_on_c, 0, 76, 0
2, 37920, Note_on_c, 0, 69, 30
2, 37920, Note_on_c, 0, 72, 30
2, 37920, Note_on_c, 0, 78, 38
2, 38040, Note_on_c, 0, 78, 0
2, 38040, Note_on_c, 0, 72, 0
2, 38040, Note_on_c, 0, 69, 0
2, 38400, Note_on_c, 0, 74, 43
2, 38520, Note_on_c, 0, 74, 0
2, 38520, Note_on_c, 0, 76, 43
2, 38640, Note_on_c, 0, 76, 0
2, 38640, Note_on_c, 0, 69, 30
2, 38640, Note_on_c, 0, 72, 30
2, 38640, Note_on_c, 0, 77, 38
2, 38760, Note_on_c, 0, 77, 0
2, 38760, Note_on_c, 0, 72, 0
2, 38760, Note_on_c, 0, 69, 0
2, 39120, Note_on_c, 0, 74, 43
2, 39240, Note_on_c, 0, 74, 0
2, 39240, Note_on_c, 0, 76, 43
2, 39360, Note_on_c, 0, 76, 0
2, 39360, Note_on_c, 0, 69, 30
2, 39360, Note_on_c, 0, 72, 30
2, 39360, Note_on_c, 0, 78, 38
2, 39480, Note_on_c, 0, 78, 0
2, 39480, Note_on_c, 0, 72, 0
2, 39480, Note_on_c, 0, 69, 0
2, 39840, Note_on_c, 0, 74, 43
2, 39960, Note_on_c, 0, 74, 0
2, 39960, Note_on_c, 0, 76, 43
2, 40080, Note_on_c, 0, 76, 0
2, 40080, Note_on_c, 0, 69, 30
2, 40080, Note_on_c, 0, 72, 30
2, 40080, Note_on_c, 0, 77, 38
2, 40200, Note_on_c, 0, 77, 0
2, 40200, Note_on_c, 0, 72, 0
2, 40200, Note_on_c, 0, 69, 0
2, 40560, Note_on_c, 0, 77, 43
2, 40680, Note_on_c, 0, 77, 0
2, 40680, Note_on_c, 0, 79, 43
2, 40800, Note_on_c, 0, 79, 0
2, 40800, Note_on_c, 0, 72, 30
2, 40800, Note_on_c, 0, 74, 30
2, 40800, Note_on_c, 0, 81, 38
2, 40920, Note_on_c, 0, 81, 0
2, 40920, Note_on_c, 0, 74, 0
2, 40920, Note_on_c, 0, 72, 0
2, 41280, Note_on_c, 0, 77, 43
2, 41400, Note_on_c, 0, 77, 0
2, 41400, Note_on_c, 0, 79, 43
2, 41520, Note_on_c, 0, 79, 0
2, 41520, Note_on_c, 0, 71, 30
2, 41520, Note_on_c, 0, 74, 30
2, 41520, Note_on_c, 0, 81, 38
2, 41640, Note_on_c, 0, 81, 0
2, 41640, Note_on_c, 0, 74, 0
2, 41640, Note_on_c, 0, 71, 0
2, 42000, Note_on_c, 0, 76, 43
2, 42120, Note_on_c, 0, 76, 0
2, 42120, Note_on_c, 0, 77, 43
2, 42240, Note_on_c, 0, 77, 0
2, 42240, Note_on_c, 0, 71, 30
2, 42240, Note_on_c, 0, 72, 30
2, 42240, Note_on_c, 0, 79, 38
2, 42360, Note_on_c, 0, 79, 0
2, 42360, Note_on_c, 0, 72, 0
2, 42360, Note_on_c, 0, 71, 0
2, 42720, Note_on_c, 0, 76, 43
2, 42840, Note_on_c, 0, 76, 0
2, 42840, Note_on_c, 0, 77, 43
2, 42960, Note_on_c, 0, 77, 0
2, 42960, Note_on_c, 0, 71, 29
2, 42960, Note_on_c, 0, 72, 29
2, 42960, Note_on_c, 0, 79, 37
2, 43080, Note_on_c, 0, 79, 0
2, 43080, Note_on_c, 0, 72, 0
2, 43080, Note_on_c, 0, 71, 0
2, 43440, Note_on_c, 0, 76, 41
2, 43560, Note_on_c, 0, 76, 0
2, 43560, Note_on_c, 0, 77, 41
2, 43680, Note_on_c, 0, 77, 0
2, 43680, Note_on_c, 0, 69, 28
2, 43680, Note_on_c, 0, 72, 28
2, 43680, Note_on_c, 0, 79, 36
2, 43800, Note_on_c, 0, 79, 0
2, 43800, Note_on_c, 0, 72, 0
2, 43800, Note_on_c, 0, 69, 0
2, 44160, Note_on_c, 0, 76, 39
2, 44280, Note_on_c, 0, 76, 0
2, 44280, Note_on_c, 0, 77, 39
2, 44400, Note_on_c, 0, 77, 0
2, 44400, Note_on_c, 0, 69, 27
2, 44400, Note_on_c, 0, 72, 27
2, 44400, Note_on_c, 0, 79, 34
2, 44520, Note_on_c, 0, 79, 0
2, 44520, Note_on_c, 0, 72, 0
2, 44520, Note_on_c, 0, 69, 0
2, 44880, Note_on_c, 0, 74, 37
2, 45000, Note_on_c, 0, 74, 0
2, 45000, Note_on_c, 0, 76, 37
2, 45120, Note_on_c, 0, 76, 0
2, 45120, Note_on_c, 0, 69, 26
2, 45120, Note_on_c, 0, 71, 26
2, 45120, Note_on_c, 0, 77, 33
2, 45240, Note_on_c, 0, 77, 0
2, 45240, Note_on_c, 0, 71, 0
2, 45240, Note_on_c, 0, 69, 0
2, 45600, Note_on_c, 0, 74, 36
2, 45720, Note_on_c, 0, 74, 0
2, 45720, Note_on_c, 0, 76, 36
2, 45840, Note_on_c, 0, 76, 0
2, 45840, Note_on_c, 0, 69, 24
2, 45840, Note_on_c, 0, 71, 24
2, 45840, Note_on_c, 0, 77, 31
2, 45960, Note_on_c, 0, 77, 0
2, 45960, Note_on_c, 0, 71, 0
2, 45960, Note_on_c, 0, 69, 0
2, 46320, Note_on_c, 0, 74, 34
2, 46440, Note_on_c, 0, 74, 0
2, 46440, Note_on_c, 0, 76, 34
2, 46560, Note_on_c, 0, 76, 0
2, 46560, Note_on_c, 0, 67, 23
2, 46560, Note_on_c, 0, 71, 23
2, 46560, Note_on_c, 0, 77, 30
2, 46680, Note_on_c, 0, 77, 0
2, 46680, Note_on_c, 0, 71, 0
2, 46680, Note_on_c, 0, 67, 0
2, 47040, Note_on_c, 0, 74, 32
2, 47160, Note_on_c, 0, 74, 0
2, 47160, Note_on_c, 0, 76, 32
2, 47280, Note_on_c, 0, 76, 0
2, 47280, Note_on_c, 0, 67, 22
2, 47280, Note_on_c, 0, 71, 22
2, 47280, Note_on_c, 0, 77, 28
2, 47400, Note_on_c, 0, 77, 0
2, 47400, Note_on_c, 0, 71, 0
2, 47400, Note_on_c, 0, 67, 0
2, 47760, Note_on_c, 0, 72, 30
2, 47880, Note_on_c, 0, 72, 0
2, 47880, Note_on_c, 0, 74, 30
2, 48000, Note_on_c, 0, 74, 0
2, 48000, Note_on_c, 0, 67, 21
2, 48000, Note_on_c, 0, 69, 21
2, 48000, Note_on_c, 0, 76, 26
2, 48120, Note_on_c, 0, 76, 0
2, 48120, Note_on_c, 0, 69, 0
2, 48120, Note_on_c, 0, 67, 0
2, 48480, Note_on_c, 0, 72, 29
2, 48600, Note_on_c, 0, 72, 0
2, 48600, Note_on_c, 0, 74, 29
2, 48720, Note_on_c, 0, 74, 0
2, 48720, Note_on_c, 0, 67, 20
2, 48720, Note_on_c, 0, 69, 20
2, 48720, Note_on_c, 0, 76, 25
2, 48840, Note_on_c, 0, 76, 0
2, 48840, Note_on_c, 0, 69, 0
2, 48840, Note_on_c, 0, 67, 0
2, 49200, Note_on_c, 0, 72, 27
2, 49320, Note_on_c, 0, 72, 0
2, 49320, Note_on_c, 0, 74, 27
2, 49440, Note_on_c, 0, 74, 0
2, 49440, Note_on_c, 0, 65, 19
2, 49440, Note_on_c, 0, 69, 19
2, 49440, Note_on_c, 0, 76, 24
2, 49560, Note_on_c, 0, 76, 0
2, 49560, Note_on_c, 0, 69, 0
2, 49560, Note_on_c, 0, 65, 0
2, 52080, Note_on_c, 0, 71, 27
2, 52200, Note_on_c, 0, 71, 0
2, 52200, Note_on_c, 0, 72, 27
2, 52320, Note_on_c, 0, 72, 0
2, 52320, Note_on_c, 0, 65, 19
2, 52320, Note_on_c, 0, 69, 19
2, 52320, Note_on_c, 0, 74, 24
2, 52440, Note_on_c, 0, 74, 0
2, 52440, Note_on_c, 0, 69, 0
2, 52440, Note_on_c, 0, 65, 0
2, 56160, Note_on_c, 0, 67, 14
2, 56160, Note_on_c, 0, 74, 16
2, 56400, Note_on_c, 0, 74, 0
2, 56400, Note_on_c, 0, 67, 0
2, 57120, Note_on_c, 0, 84, 32
2, 57360, Note_on_c, 0, 84, 0
2, 57360, Note_on_c, 0, 86, 29
2, 57600, Note_on_c, 0, 86, 0
2, 57600, Note_on_c, 0, 88, 36
2, 57840, Note_on_c, 0, 88, 0
2, 57840, Note_on_c, 0, 84, 30
2, 58080, Note_on_c, 0, 84, 0
2, 58080, Note_on_c, 0, 88, 30
2, 58440, Note_on_c, 0, 88, 0
2, 58440, Note_on_c, 0, 86, 27
2, 58500, Note_on_c, 0, 86, 0
2, 58500, Note_on_c, 0, 88, 27
2, 58560, Note_on_c, 0, 88, 0
2, 58560, Note_on_c, 0, 86, 34
2, 58800, Note_on_c, 0, 86, 0
2, 58800, Note_on_c, 0, 84, 30
2, 59040, Note_on_c, 0, 84, 0
2, 59040, Note_on_c, 0, 88, 32
2, 59160, Note_on_c, 0, 88, 0
2, 59520, Note_on_c, 0, 88, 39
2, 60000, Note_on_c, 0, 88, 0
2, 60000, Note_on_c, 0, 84, 32
2, 60240, Note_on_c, 0, 84, 0
2, 60240, Note_on_c, 0, 86, 29
2, 60480, Note_on_c, 0, 86, 0
2, 60480, Note_on_c, 0, 88, 36
2, 60720, Note_on_c, 0, 88, 0
2, 60720, Note_on_c, 0, 84, 30
2, 60960, Note_on_c, 0, 84, 0
2, 60960, Note_on_c, 0, 88, 30
2, 61320, Note_on_c, 0, 88, 0
2, 61320, Note_on_c, 0, 86, 27
2, 61380, Note_on_c, 0, 86, 0
2, 61380, Note_on_c, 0, 88, 27
2, 61440, Note_on_c, 0, 88, 0
2, 61440, Note_on_c, 0, 86, 34
2, 61680, Note_on_c, 0, 86, 0
2, 61680, Note_on_c, 0, 84, 30
2, 61920, Note_on_c, 0, 84, 0
2, 61920, Note_on_c, 0, 88, 32
2, 62040, Note_on_c, 0, 88, 0
2, 62400, Note_on_c, 0, 88, 39
2, 62880, Note_on_c, 0, 88, 0
2, 63360, Note_on_c, 0, 96, 28
2, 63360, Note_on_c, 0, 93, 24
2, 63360, Note_on_c, 0, 89, 24
2, 63600, Note_on_c, 0, 89, 0
2, 63600, Note_on_c, 0, 93, 0
2, 63600, Note_on_c, 0, 96, 0
2, 64080, Note_on_c, 0, 89, 24
2, 64080, Note_on_c, 0, 95, 28
2, 64080, Note_on_c, 0, 91, 24
2, 64320, Note_on_c, 0, 91, 0
2, 64320, Note_on_c, 0, 95, 0
2, 64320, Note_on_c, 0, 89, 0
2, 64800, Note_on_c, 0, 95, 28
2, 64800, Note_on_c, 0, 91, 24
2, 64800, Note_on_c, 0, 88, 24
2, 65040, Note_on_c, 0, 88, 0
2, 65040, Note_on_c, 0, 91, 0
2, 65040, Note_on_c, 0, 95, 0
2, 65520, Note_on_c, 0, 93, 28
2, 65520, Note_on_c, 0, 89, 24
2, 65520, Note_on_c, 0, 88, 24
2, 65760, Note_on_c, 0, 88, 0
2, 65760, Note_on_c, 0, 89, 0
2, 65760, Note_on_c, 0, 93, 0
2, 66240, Note_on_c, 0, 93, 28
2, 66240, Note_on_c, 0, 89, 24
2, 66240, Note_on_c, 0, 86, 24
2, 66480, Note_on_c, 0, 86, 0
2, 66480, Note_on_c, 0, 89, 0
2, 66480, Note_on_c, 0, 93, 0
2, 66960, Note_on_c, 0, 86, 24
2, 66960, Note_on_c, 0, 91, 28
2, 66960, Note_on_c, 0, 88, 24
2, 67200, Note_on_c, 0, 88, 0
2, 67200, Note_on_c, 0, 91, 0
2, 67200, Note_on_c, 0, 86, 0
2, 67680, Note_on_c, 0, 91, 28
2, 67680, Note_on_c, 0, 88, 24
2, 67680, Note_on_c, 0, 84, 24
2, 67920, Note_on_c, 0, 84, 0
2, 67920, Note_on_c, 0, 88, 0
2, 67920, Note_on_c, 0, 91, 0
2, 68400, Note_on_c, 0, 89, 28
2, 68400, Note_on_c, 0, 86, 24
2, 68400, Note_on_c, 0, 84, 24
2, 68640, Note_on_c, 0, 84, 0
2, 68640, Note_on_c, 0, 86, 0
2, 68640, Note_on_c, 0, 89, 0
2, 69120, Note_on_c, 0, 89, 28
2, 69120, Note_on_c, 0, 86, 24
2, 69120, Note_on_c, 0, 83, 24
2, 69360, Note_on_c, 0, 83, 0
2, 69360, Note_on_c, 0, 86, 0
2, 69360, Note_on_c, 0, 89, 0
2, 69840, Note_on_c, 0, 83, 24
2, 69840, Note_on_c, 0, 88, 28
2, 69840, Note_on_c, 0, 84, 24
2, 70080, Note_on_c, 0, 84, 0
2, 70080, Note_on_c, 0, 88, 0
2, 70080, Note_on_c, 0, 83, 0
2, 70560, Note_on_c, 0, 88, 28
2, 70560, Note_on_c, 0, 84, 24
2, 70560, Note_on_c, 0, 81, 24
2, 70800, Note_on_c, 0, 81, 0
2, 70800, Note_on_c, 0, 84, 0
2, 70800, Note_on_c, 0, 88, 0
2, 71280, Note_on_c, 0, 81, 24
2, 71280, Note_on_c, 0, 86, 28
2, 71280, Note_on_c, 0, 83, 24
2, 71520, Note_on_c, 0, 83, 0
2, 71520, Note_on_c, 0, 86, 0
2, 71520, Note_on_c, 0, 81, 0
2, 72000, Note_on_c, 0, 86, 28
2, 72000, Note_on_c, 0, 83, 24
2, 72000, Note_on_c, 0, 79, 24
2, 72240, Note_on_c, 0, 79, 0
2, 72240, Note_on_c, 0, 83, 0
2, 72240, Note_on_c, 0, 86, 0
2, 72720, Note_on_c, 0, 79, 24
2, 72720, Note_on_c, 0, 84, 28
2, 72720, Note_on_c, 0, 81, 24
2, 72960, Note_on_c, 0, 81, 0
2, 72960, Note_on_c, 0, 84, 0
2, 72960, Note_on_c, 0, 79, 0
2, 73440, Note_on_c, 0, 84, 28
2, 73440, Note_on_c, 0, 81, 24
2, 73440, Note_on_c, 0, 77, 24
2, 73680, Note_on_c, 0, 77, 0
2, 73680, Note_on_c, 0, 81, 0
2, 73680, Note_on_c, 0, 84, 0
2, 74160, Note_on_c, 0, 77, 24
2, 74160, Note_on_c, 0, 83, 28
2, 74160, Note_on_c, 0, 79, 24
2, 74400, Note_on_c, 0, 79, 0
2, 74400, Note_on_c, 0, 83, 0
2, 74400, Note_on_c, 0, 77, 0
2, 74880, Note_on_c, 0, 84, 29
2, 74880, Note_on_c, 0, 81, 25
2, 74880, Note_on_c, 0, 77, 25
2, 75120, Note_on_c, 0, 77, 0
2, 75120, Note_on_c, 0, 81, 0
2, 75120, Note_on_c, 0, 84, 0
2, 75600, Note_on_c, 0, 77, 25
2, 75600, Note_on_c, 0, 83, 30
2, 75600, Note_on_c, 0, 79, 25
2, 75840, Note_on_c, 0, 79, 0
2, 75840, Note_on_c, 0, 83, 0
2, 75840, Note_on_c, 0, 77, 0
2, 76320, Note_on_c, 0, 83, 30
2, 76320, Note_on_c, 0, 79, 25
2, 76320, Note_on_c, 0, 76, 25
2, 76560, Note_on_c, 0, 76, 0
2, 76560, Note_on_c, 0, 79, 0
2, 76560, Note_on_c, 0, 83, 0
2, 77040, Note_on_c, 0, 76, 26
2, 77040, Note_on_c, 0, 81, 31
2, 77040, Note_on_c, 0, 77, 26
2, 77280, Note_on_c, 0, 77, 0
2, 77280, Note_on_c, 0, 81, 0
2, 77280, Note_on_c, 0, 76, 0
2, 77760, Note_on_c, 0, 81, 31
2, 77760, Note_on_c, 0, 77, 27
2, 77760, Note_on_c, 0, 74, 27
2, 78000, Note_on_c, 0, 74, 0
2, 78000, Note_on_c, 0, 77, 0
2, 78000, Note_on_c, 0, 81, 0
2, 78480, Note_on_c, 0, 74, 28
2, 78480, Note_on_c, 0, 79, 33
2, 78480, Note_on_c, 0, 76, 28
2, 78720, Note_on_c, 0, 76, 0
2, 78720, Note_on_c, 0, 79, 0
2, 78720, Note_on_c, 0, 74, 0
2, 79200, Note_on_c, 0, 79, 33
2, 79200, Note_on_c, 0, 76, 28
2, 79200, Note_on_c, 0, 72, 28
2, 79440, Note_on_c, 0, 72, 0
2, 79440, Note_on_c, 0, 76, 0
2, 79440, Note_on_c, 0, 79, 0
2, 79920, Note_on_c, 0, 72, 28
2, 79920, Note_on_c, 0, 77, 34
2, 79920, Note_on_c, 0, 74, 28
2, 80160, Note_on_c, 0, 74, 0
2, 80160, Note_on_c, 0, 77, 0
2, 80160, Note_on_c, 0, 72, 0
2, 80640, Note_on_c, 0, 77, 35
2, 80640, Note_on_c, 0, 74, 30
2, 80640, Note_on_c, 0, 71, 30
2, 80880, Note_on_c, 0, 71, 0
2, 80880, Note_on_c, 0, 74, 0
2, 80880, Note_on_c, 0, 77, 0
2, 81360, Note_on_c, 0, 71, 30
2, 81360, Note_on_c, 0, 76, 36
2, 81360, Note_on_c, 0, 72, 30
2, 81600, Note_on_c, 0, 72, 0
2, 81600, Note_on_c, 0, 76, 0
2, 81600, Note_on_c, 0, 71, 0
2, 82080, Note_on_c, 0, 76, 37
2, 82080, Note_on_c, 0, 72, 31
2, 82080, Note_on_c, 0, 69, 31
2, 82320, Note_on_c, 0, 69, 0
2, 82320, Note_on_c, 0, 72, 0
2, 82320, Note_on_c, 0, 76, 0
2, 82800, Note_on_c, 0, 69, 33
2, 82800, Note_on_c, 0, 74, 40
2, 82800, Note_on_c, 0, 71, 33
2, 83040, Note_on_c, 0, 71, 0
2, 83040, Note_on_c, 0, 74, 0
2, 83040, Note_on_c, 0, 69, 0
2, 83520, Note_on_c, 0, 76, 41
2, 83520, Note_on_c, 0, 72, 35
2, 83520, Note_on_c, 0, 69, 35
2, 83760, Note_on_c, 0, 69, 0
2, 83760, Note_on_c, 0, 72, 0
2, 83760, Note_on_c, 0, 76, 0
2, 84240, Note_on_c, 0, 69, 37
2, 84240, Note_on_c, 0, 74, 44
2, 84240, Note_on_c, 0, 71, 37
2, 84480, Note_on_c, 0, 71, 0
2, 84480, Note_on_c, 0, 74, 0
2, 84480, Note_on_c, 0, 69, 0
2, 84960, Note_on_c, 0, 72, 47
2, 84960, Note_on_c, 0, 69, 40
2, 84960, Note_on_c, 0, 65, 40
2, 85200, Note_on_c, 0, 65, 0
2, 85200, Note_on_c, 0, 69, 0
2, 85200, Note_on_c, 0, 72, 0
2, 85680, Note_on_c, 0, 65, 42
2, 85680, Note_on_c, 0, 71, 50
2, 85680, Note_on_c, 0, 67, 42
2, 85920, Note_on_c, 0, 67, 0
2, 85920, Note_on_c, 0, 71, 0
2, 85920, Note_on_c, 0, 65, 0
2, 86400, Note_on_c, 0, 72, 52
2, 86400, Note_on_c, 0, 69, 44
2, 86400, Note_on_c, 0, 65, 44
2, 86640, Note_on_c, 0, 65, 0
2, 86640, Note_on_c, 0, 69, 0
2, 86640, Note_on_c, 0, 72, 0
2, 87120, Note_on_c, 0, 65, 44
2, 87120, Note_on_c, 0, 71, 52
2, 87120, Note_on_c, 0, 67, 44
2, 87360, Note_on_c, 0, 67, 0
2, 87360, Note_on_c, 0, 71, 0
2, 87360, Note_on_c, 0, 65, 0
2, 87840, Note_on_c, 0, 71, 52
2, 87840, Note_on_c, 0, 67, 44
2, 87840, Note_on_c, 0, 64, 44
2, 88080, Note_on_c, 0, 64, 0
2, 88080, Note_on_c, 0, 67, 0
2, 88080, Note_on_c, 0, 71, 0
2, 88560, Note_on_c, 0, 64, 44
2, 88560, Note_on_c, 0, 69, 52
2, 88560, Note_on_c, 0, 65, 44
2, 88800, Note_on_c, 0, 65, 0
2, 88800, Note_on_c, 0, 69, 0
2, 88800, Note_on_c, 0, 64, 0
2, 89280, Note_on_c, 0, 69, 52
2, 89280, Note_on_c, 0, 65, 44
2, 89280, Note_on_c, 0, 62, 44
2, 89520, Note_on_c, 0, 62, 0
2, 89520, Note_on_c, 0, 65, 0
2, 89520, Note_on_c, 0, 69, 0
2, 90000, Note_on_c, 0, 62, 44
2, 90000, Note_on_c, 0, 67, 52
2, 90000, Note_on_c, 0, 64, 44
2, 90240, Note_on_c, 0, 64, 0
2, 90240, Note_on_c, 0, 67, 0
2, 90240, Note_on_c, 0, 62, 0
2, 90720, Note_on_c, 0, 67, 52
2, 90720, Note_on_c, 0, 64, 44
2, 90720, Note_on_c, 0, 60, 44
2, 90960, Note_on_c, 0, 60, 0
2, 90960, Note_on_c, 0, 64, 0
2, 90960, Note_on_c, 0, 67, 0
2, 91440, Note_on_c, 0, 60, 44
2, 91440, Note_on_c, 0, 65, 52
2, 91440, Note_on_c, 0, 62, 44
2, 91680, Note_on_c, 0, 62, 0
2, 91680, Note_on_c, 0, 65, 0
2, 91680, Note_on_c, 0, 60, 0
2, 92160, Note_on_c, 0, 65, 52
2, 92160, Note_on_c, 0, 62, 44
2, 92160, Note_on_c, 0, 59, 44
2, 92400, Note_on_c, 0, 59, 0
2, 92400, Note_on_c, 0, 62, 0
2, 92400, Note_on_c, 0, 65, 0
2, 92880, Note_on_c, 0, 59, 44
2, 92880, Note_on_c, 0, 64, 52
2, 92880, Note_on_c, 0, 60, 44
2, 93120, Note_on_c, 0, 60, 0
2, 93120, Note_on_c, 0, 64, 0
2, 93120, Note_on_c, 0, 59, 0
2, 93600, Note_on_c, 0, 64, 52
2, 93600, Note_on_c, 0, 60, 44
2, 93600, Note_on_c, 0, 57, 44
2, 93840, Note_on_c, 0, 57, 0
2, 93840, Note_on_c, 0, 60, 0
2, 93840, Note_on_c, 0, 64, 0
2, 94320, Note_on_c, 0, 57, 44
2, 94320, Note_on_c, 0, 62, 52
2, 94320, Note_on_c, 0, 59, 44
2, 94560, Note_on_c, 0, 59, 0
2, 94560, Note_on_c, 0, 62, 0
2, 94560, Note_on_c, 0, 57, 0
2, 95040, Note_on_c, 0, 62, 52
2, 95040, Note_on_c, 0, 59, 44
2, 95040, Note_on_c, 0, 55, 44
2, 95280, Note_on_c, 0, 55, 0
2, 95280, Note_on_c, 0, 59, 0
2, 95280, Note_on_c, 0, 62, 0
2, 95760, Note_on_c, 0, 55, 44
2, 95760, Note_on_c, 0, 60, 52
2, 95760, Note_on_c, 0, 57, 44
2, 96000, Note_on_c, 0, 57, 0
2, 96000, Note_on_c, 0, 60, 0
2, 96000, Note_on_c, 0, 55, 0
2, 96480, Note_on_c, 0, 64, 52
2, 96480, Note_on_c, 0, 60, 44
2, 96480, Note_on_c, 0, 57, 44
2, 96720, Note_on_c, 0, 57, 0
2, 96720, Note_on_c, 0, 60, 0
2, 96720, Note_on_c, 0, 64, 0
2, 97200, Note_on_c, 0, 57, 44
2, 97200, Note_on_c, 0, 62, 52
2, 97200, Note_on_c, 0, 59, 44
2, 97440, Note_on_c, 0, 59, 0
2, 97440, Note_on_c, 0, 62, 0
2, 97440, Note_on_c, 0, 57, 0
2, 97440, Note_on_c, 0, 48, 68
2, 97440, Note_on_c, 0, 60, 81
2, 97524, Note_on_c, 0, 60, 0
2, 97524, Note_on_c, 0, 48, 0
2, 97680, Note_on_c, 0, 49, 61
2, 97680, Note_on_c, 0, 61, 72
2, 97764, Note_on_c, 0, 61, 0
2, 97764, Note_on_c, 0, 49, 0
2, 97920, Note_on_c, 0, 60, 73
2, 97920, Note_on_c, 0, 56, 73
2, 97920, Note_on_c, 0, 51, 73
2, 97920, Note_on_c, 0, 63, 86
2, 97980, Note_on_c, 0, 56, 0
2, 97980, Note_on_c, 0, 60, 0
2, 98004, Note_on_c, 0, 51, 0
2, 98004, Note_on_c, 0, 63, 0
2, 98160, Note_on_c, 0, 48, 67
2, 98160, Note_on_c, 0, 60, 79
2, 98244, Note_on_c, 0, 60, 0
2, 98244, Note_on_c, 0, 48, 0
2, 98400, Note_on_c, 0, 51, 63
2, 98400, Note_on_c, 0, 63, 76
2, 98640, Note_on_c, 0, 53, 61
2, 98640, Note_on_c, 0, 56, 61
2, 98880, Note_on_c, 0, 56, 0
2, 98880, Note_on_c, 0, 51, 0
2, 98880, Note_on_c, 0, 63, 0
2, 98880, Note_on_c, 0, 53, 0
2, 98880, Note_on_c, 0, 49, 68
2, 98880, Note_on_c, 0, 61, 81
2, 98964, Note_on_c, 0, 61, 0
2, 98964, Note_on_c, 0, 49, 0
2, 99120, Note_on_c, 0, 48, 61
2, 99120, Note_on_c, 0, 60, 72
2, 99204, Note_on_c, 0, 60, 0
2, 99204, Note_on_c, 0, 48, 0
2, 99360, Note_on_c, 0, 60, 64
2, 99360, Note_on_c, 0, 56, 64
2, 99360, Note_on_c, 0, 51, 64
2, 99360, Note_on_c, 0, 63, 77
2, 99480, Note_on_c, 0, 63, 0
2, 99480, Note_on_c, 0, 60, 0
2, 99480, Note_on_c, 0, 56, 0
2, 99480, Note_on_c, 0, 51, 0
2, 99840, Note_on_c, 0, 51, 79
2, 99840, Note_on_c, 0, 63, 93
2, 100080, Note_on_c, 0, 53, 61
2, 100080, Note_on_c, 0, 56, 61
2, 100320, Note_on_c, 0, 56, 0
2, 100320, Note_on_c, 0, 51, 0
2, 100320, Note_on_c, 0, 63, 0
2, 100320, Note_on_c, 0, 53, 0
2, 100320, Note_on_c, 0, 48, 68
2, 100320, Note_on_c, 0, 60, 81
2, 100404, Note_on_c, 0, 60, 0
2, 100404, Note_on_c, 0, 48, 0
2, 100560, Note_on_c, 0, 49, 61
2, 100560, Note_on_c, 0, 61, 72
2, 100644, Note_on_c, 0, 61, 0
2, 100644, Note_on_c, 0, 49, 0
2, 100800, Note_on_c, 0, 60, 73
2, 100800, Note_on_c, 0, 56, 73
2, 100800, Note_on_c, 0, 51, 73
2, 100800, Note_on_c, 0, 63, 86
2, 100860, Note_on_c, 0, 56, 0
2, 100860, Note_on_c, 0, 60, 0
2, 100884, Note_on_c, 0, 51, 0
2, 100884, Note_on_c, 0, 63, 0
2, 101040, Note_on_c, 0, 48, 67
2, 101040, Note_on_c, 0, 60, 79
2, 101124, Note_on_c, 0, 60, 0
2, 101124, Note_on_c, 0, 48, 0
2, 101280, Note_on_c, 0, 51, 63
2, 101280, Note_on_c, 0, 63, 76
2, 101520, Note_on_c, 0, 53, 61
2, 101520, Note_on_c, 0, 56, 61
2, 101760, Note_on_c, 0, 56, 0
2, 101760, Note_on_c, 0, 51, 0
2, 101760, Note_on_c, 0, 63, 0
2, 101760, Note_on_c, 0, 53, 0
2, 101760, Note_on_c, 0, 49, 68
2, 101760, Note_on_c, 0, 61, 81
2, 101844, Note_on_c, 0, 61, 0
2, 101844, Note_on_c, 0, 49, 0
2, 102000, Note_on_c, 0, 48, 61
2, 102000, Note_on_c, 0, 60, 72
2, 102084, Note_on_c, 0, 60, 0
2, 102084, Note_on_c, 0, 48, 0
2, 102240, Note_on_c, 0, 60, 64
2, 102240, Note_on_c, 0, 56, 64
2, 102240, Note_on_c, 0, 51, 64
2, 102240, Note_on_c, 0, 63, 77
2, 102360, Note_on_c, 0, 63, 0
2, 102360, Note_on_c, 0, 60, 0
2, 102360, Note_on_c, 0, 56, 0
2, 102360, Note_on_c, 0, 51, 0
2, 102720, Note_on_c, 0, 51, 79
2, 102720, Note_on_c, 0, 63, 93
2, 102960, Note_on_c, 0, 53, 61
2, 102960, Note_on_c, 0, 56, 61
2, 103200, Note_on_c, 0, 56, 0
2, 103200, Note_on_c, 0, 51, 0
2, 103200, Note_on_c, 0, 63, 0
2, 103200, Note_on_c, 0, 53, 0
2, 103200, Note_on_c, 0, 48, 74
2, 103200, Note_on_c, 0, 60, 89
2, 103284, Note_on_c, 0, 60, 0
2, 103284, Note_on_c, 0, 48, 0
2, 103440, Note_on_c, 0, 50, 67
2, 103440, Note_on_c, 0, 62, 79
2, 103524, Note_on_c, 0, 62, 0
2, 103524, Note_on_c, 0, 50, 0
2, 103680, Note_on_c, 0, 60, 80
2, 103680, Note_on_c, 0, 55, 68
2, 103680, Note_on_c, 0, 52, 68
2, 103680, Note_on_c, 0, 64, 94
2, 103740, Note_on_c, 0, 55, 0
2, 103740, Note_on_c, 0, 60, 0
2, 103764, Note_on_c, 0, 52, 0
2, 103764, Note_on_c, 0, 64, 0
2, 103920, Note_on_c, 0, 48, 73
2, 103920, Note_on_c, 0, 60, 86
2, 104004, Note_on_c, 0, 60, 0
2, 104004, Note_on_c, 0, 48, 0
2, 104160, Note_on_c, 0, 52, 69
2, 104160, Note_on_c, 0, 64, 83
2, 104400, Note_on_c, 0, 53, 67
2, 104400, Note_on_c, 0, 57, 67
2, 104640, Note_on_c, 0, 57, 0
2, 104640, Note_on_c, 0, 52, 0
2, 104640, Note_on_c, 0, 64, 0
2, 104640, Note_on_c, 0, 53, 0
2, 104640, Note_on_c, 0, 50, 74
2, 104640, Note_on_c, 0, 62, 89
2, 104724, Note_on_c, 0, 62, 0
2, 104724, Note_on_c, 0, 50, 0
2, 104880, Note_on_c, 0, 48, 67
2, 104880, Note_on_c, 0, 60, 79
2, 104964, Note_on_c, 0, 60, 0
2, 104964, Note_on_c, 0, 48, 0
2, 105120, Note_on_c, 0, 60, 70
2, 105120, Note_on_c, 0, 55, 70
2, 105120, Note_on_c, 0, 52, 70
2, 105120, Note_on_c, 0, 64, 84
2, 105240, Note_on_c, 0, 64, 0
2, 105240, Note_on_c, 0, 60, 0
2, 105240, Note_on_c, 0, 55, 0
2, 105240, Note_on_c, 0, 52, 0
2, 105600, Note_on_c, 0, 52, 83
2, 105600, Note_on_c, 0, 64, 98
2, 105840, Note_on_c, 0, 53, 67
2, 105840, Note_on_c, 0, 57, 67
2, 106080, Note_on_c, 0, 57, 0
2, 106080, Note_on_c, 0, 52, 0
2, 106080, Note_on_c, 0, 64, 0
2, 106080, Note_on_c, 0, 53, 0
2, 106080, Note_on_c, 0, 48, 74
2, 106080, Note_on_c, 0, 60, 89
2, 106164, Note_on_c, 0, 60, 0
2, 106164, Note_on_c, 0, 48, 0
2, 106320, Note_on_c, 0, 50, 67
2, 106320, Note_on_c, 0, 62, 79
2, 106404, Note_on_c, 0, 62, 0
2, 106404, Note_on_c, 0, 50, 0
2, 106560, Note_on_c, 0, 60, 80
2, 106560, Note_on_c, 0, 55, 80
2, 106560, Note_on_c, 0, 52, 80
2, 106560, Note_on_c, 0, 64, 94
2, 106620, Note_on_c, 0, 55, 0
2, 106620, Note_on_c, 0, 60, 0
2, 106644, Note_on_c, 0, 52, 0
2, 106644, Note_on_c, 0, 64, 0
2, 106800, Note_on_c, 0, 48, 73
2, 106800, Note_on_c, 0, 60, 86
2, 106884, Note_on_c, 0, 60, 0
2, 106884, Note_on_c, 0, 48, 0
2, 107040, Note_on_c, 0, 52, 69
2, 107040, Note_on_c, 0, 64, 83
2, 107280, Note_on_c, 0, 53, 67
2, 107280, Note_on_c, 0, 57, 67
2, 107520, Note_on_c, 0, 57, 0
2, 107520, Note_on_c, 0, 52, 0
2, 107520, Note_on_c, 0, 64, 0
2, 107520, Note_on_c, 0, 53, 0
2, 107520, Note_on_c, 0, 50, 74
2, 107520, Note_on_c, 0, 62, 89
2, 107604, Note_on_c, 0, 62, 0
2, 107604, Note_on_c, 0, 50, 0
2, 107760, Note_on_c, 0, 48, 67
2, 107760, Note_on_c, 0, 60, 79
2, 107844, Note_on_c, 0, 60, 0
2, 107844, Note_on_c, 0, 48, 0
2, 108000, Note_on_c, 0, 60, 70
2, 108000, Note_on_c, 0, 55, 70
2, 108000, Note_on_c, 0, 52, 70
2, 108000, Note_on_c, 0, 64, 84
2, 108120, Note_on_c, 0, 64, 0
2, 108120, Note_on_c, 0, 60, 0
2, 108120, Note_on_c, 0, 55, 0
2, 108120, Note_on_c, 0, 52, 0
2, 108480, Note_on_c, 0, 52, 83
2, 108480, Note_on_c, 0, 64, 98
2, 108720, Note_on_c, 0, 53, 67
2, 108720, Note_on_c, 0, 57, 67
2, 108960, Note_on_c, 0, 57, 0
2, 108960, Note_on_c, 0, 52, 0
2, 108960, Note_on_c, 0, 64, 0
2, 108960, Note_on_c, 0, 53, 0
2, 108960, Note_on_c, 0, 48, 70
2, 108967, Note_on_c, 0, 60, 70
2, 109020, Note_on_c, 0, 48, 0
2, 109027, Note_on_c, 0, 60, 0
2, 109200, Note_on_c, 0, 50, 70
2, 109200, Note_on_c, 0, 62, 70
2, 109260, Note_on_c, 0, 62, 0
2, 109260, Note_on_c, 0, 50, 0
2, 111360, Note_on_c, 0, 52, 58
2, 111840, Note_on_c, 0, 52, 0
2, 111840, Note_on_c, 0, 48, 62
2, 111924, Note_on_c, 0, 48, 0
2, 112080, Note_on_c, 0, 50, 55
2, 112164, Note_on_c, 0, 50, 0
2, 114720, Note_on_c, 0, 60, 40
2, 114960, Note_on_c, 0, 60, 0
2, 114960, Note_on_c, 0, 62, 37
2, 115200, Note_on_c, 0, 62, 0
2, 115200, Note_on_c, 0, 53, 34
2, 115200, Note_on_c, 0, 64, 45
2, 115440, Note_on_c, 0, 64, 0
2, 115440, Note_on_c, 0, 60, 38
2, 115680, Note_on_c, 0, 60, 0
2, 115680, Note_on_c, 0, 64, 38
2, 115920, Note_on_c, 0, 53, 0
2, 115920, Note_on_c, 0, 55, 34
2, 116040, Note_on_c, 0, 64, 0
2, 116040, Note_on_c, 0, 62, 34
2, 116100, Note_on_c, 0, 62, 0
2, 116100, Note_on_c, 0, 64, 34
2, 116160, Note_on_c, 0, 64, 0
2, 116160, Note_on_c, 0, 62, 43
2, 116400, Note_on_c, 0, 62, 0
2, 116400, Note_on_c, 0, 59, 42
2, 116640, Note_on_c, 0, 59, 0
2, 116640, Note_on_c, 0, 55, 0
2, 116640, Note_on_c, 0, 60, 47
2, 116760, Note_on_c, 0, 60, 0
2, 117120, Note_on_c, 0, 60, 49
2, 117540, Note_on_c, 0, 60, 0
2, 117600, Note_on_c, 0, 60, 40
2, 117840, Note_on_c, 0, 60, 0
2, 117840, Note_on_c, 0, 62, 37
2, 118080, Note_on_c, 0, 62, 0
2, 118080, Note_on_c, 0, 53, 34
2, 118080, Note_on_c, 0, 64, 45
2, 118320, Note_on_c, 0, 64, 0
2, 118320, Note_on_c, 0, 60, 38
2, 118560, Note_on_c, 0, 60, 0
2, 118560, Note_on_c, 0, 64, 38
2, 118800, Note_on_c, 0, 53, 0
2, 118800, Note_on_c, 0, 55, 34
2, 118920, Note_on_c, 0, 64, 0
2, 118920, Note_on_c, 0, 62, 34
2, 118980, Note_on_c, 0, 62, 0
2, 118980, Note_on_c, 0, 64, 34
2, 119040, Note_on_c, 0, 64, 0
2, 119040, Note_on_c, 0, 62, 43
2, 119280, Note_on_c, 0, 62, 0
2, 119280, Note_on_c, 0, 59, 42
2, 119520, Note_on_c, 0, 59, 0
2, 119520, Note_on_c, 0, 55, 0
2, 119520, Note_on_c, 0, 60, 47
2, 119640, Note_on_c, 0, 60, 0
2, 120000, Note_on_c, 0, 60, 49
2, 120480, Note_on_c, 0, 60, 0
2, 120960, Note_on_c, 0, 68, 73
2, 120960, Note_on_c, 0, 71, 75
2, 121680, Note_on_c, 0, 71, 0
2, 121680, Note_on_c, 0, 68, 0
2, 121680, Note_on_c, 0, 69, 62
2, 121680, Note_on_c, 0, 72, 75
2, 122400, Note_on_c, 0, 72, 0
2, 122400, Note_on_c, 0, 69, 0
2, 122400, Note_on_c, 0, 68, 72
2, 122400, Note_on_c, 0, 71, 75
2, 122520, Note_on_c, 0, 71, 0
2, 122520, Note_on_c, 0, 68, 0
2, 122880, Note_on_c, 0, 68, 48
2, 122880, Note_on_c, 0, 71, 75
2, 123360, Note_on_c, 0, 71, 0
2, 123360, Note_on_c, 0, 68, 0
2, 123360, Note_on_c, 0, 71, 40
2, 123600, Note_on_c, 0, 71, 0
2, 123600, Note_on_c, 0, 73, 37
2, 123840, Note_on_c, 0, 73, 0
2, 123840, Note_on_c, 0, 64, 34
2, 123840, Note_on_c, 0, 75, 45
2, 124080, Note_on_c, 0, 75, 0
2, 124080, Note_on_c, 0, 71, 38
2, 124320, Note_on_c, 0, 71, 0
2, 124320, Note_on_c, 0, 75, 38
2, 124560, Note_on_c, 0, 64, 0
2, 124560, Note_on_c, 0, 63, 34
2, 124680, Note_on_c, 0, 75, 0
2, 124680, Note_on_c, 0, 73, 34
2, 124740, Note_on_c, 0, 73, 0
2, 124740, Note_on_c, 0, 75, 34
2, 124800, Note_on_c, 0, 75, 0
2, 124800, Note_on_c, 0, 73, 43
2, 125040, Note_on_c, 0, 73, 0
2, 125040, Note_on_c, 0, 69, 38
2, 125280, Note_on_c, 0, 69, 0
2, 125280, Note_on_c, 0, 63, 0
2, 125280, Note_on_c, 0, 64, 27
2, 125280, Note_on_c, 0, 68, 27
2, 125280, Note_on_c, 0, 71, 34
2, 125400, Note_on_c, 0, 71, 0
2, 125400, Note_on_c, 0, 68, 0
2, 125400, Note_on_c, 0, 64, 0
2, 125760, Note_on_c, 0, 64, 33
2, 125760, Note_on_c, 0, 68, 33
2, 125760, Note_on_c, 0, 71, 41
2, 126240, Note_on_c, 0, 71, 0
2, 126240, Note_on_c, 0, 68, 0
2, 126240, Note_on_c, 0, 64, 0
2, 126720, Note_on_c, 0, 71, 73
2, 126720, Note_on_c, 0, 74, 75
2, 127440, Note_on_c, 0, 74, 0
2, 127440, Note_on_c, 0, 71, 0
2, 127440, Note_on_c, 0, 72, 62
2, 127440, Note_on_c, 0, 75, 75
2, 128160, Note_on_c, 0, 75, 0
2, 128160, Note_on_c, 0, 72, 0
2, 128160, Note_on_c, 0, 71, 72
2, 128160, Note_on_c, 0, 74, 75
2, 128280, Note_on_c, 0, 74, 0
2, 128280, Note_on_c, 0, 71, 0
2, 128640, Note_on_c, 0, 71, 48
2, 128640, Note_on_c, 0, 74, 75
2, 129120, Note_on_c, 0, 74, 0
2, 129120, Note_on_c, 0, 71, 0
2, 129120, Note_on_c, 0, 74, 40
2, 129360, Note_on_c, 0, 74, 0
2, 129360, Note_on_c, 0, 76, 37
2, 129600, Note_on_c, 0, 76, 0
2, 129600, Note_on_c, 0, 67, 34
2, 129600, Note_on_c, 0, 78, 45
2, 129840, Note_on_c, 0, 78, 0
2, 129840, Note_on_c, 0, 74, 38
2, 130080, Note_on_c, 0, 74, 0
2, 130080, Note_on_c, 0, 78, 38
2, 130320, Note_on_c, 0, 67, 0
2, 130320, Note_on_c, 0, 66, 34
2, 130440, Note_on_c, 0, 78, 0
2, 130440, Note_on_c, 0, 76, 34
2, 130500, Note_on_c, 0, 76, 0
2, 130500, Note_on_c, 0, 78, 34
2, 130560, Note_on_c, 0, 78, 0
2, 130560, Note_on_c, 0, 76, 43
2, 130800, Note_on_c, 0, 76, 0
2, 130800, Note_on_c, 0, 72, 38
2, 131040, Note_on_c, 0, 72, 0
2, 131040, Note_on_c, 0, 66, 0
2, 131040, Note_on_c, 0, 67, 27
2, 131040, Note_on_c, 0, 71, 27
2, 131040, Note_on_c, 0, 74, 34
2, 131160, Note_on_c, 0, 74, 0
2, 131160, Note_on_c, 0, 71, 0
2, 131160, Note_on_c, 0, 67, 0
2, 131520, Note_on_c, 0, 67, 33
2, 131520, Note_on_c, 0, 71, 33
2, 131520, Note_on_c, 0, 74, 41
2, 132000, Note_on_c, 0, 74, 0
2, 132000, Note_on_c, 0, 71, 0
2, 132000, Note_on_c, 0, 67, 0
2, 132000, Note_on_c, 0, 74, 43
2, 132120, Note_on_c, 0, 74, 0
2, 132120, Note_on_c, 0, 76, 43
2, 132240, Note_on_c, 0, 76, 0
2, 132240, Note_on_c, 0, 69, 30
2, 132240, Note_on_c, 0, 72, 30
2, 132240, Note_on_c, 0, 78, 38
2, 132480, Note_on_c, 0, 78, 0
2, 132480, Note_on_c, 0, 72, 0
2, 132480, Note_on_c, 0, 69, 0
2, 132494, Note_on_c, 0, 67, 27
2, 132494, Note_on_c, 0, 71, 27
2, 132494, Note_on_c, 0, 74, 34
2, 132614, Note_on_c, 0, 74, 0
2, 132614, Note_on_c, 0, 71, 0
2, 132614, Note_on_c, 0, 67, 0
2, 132960, Note_on_c, 0, 74, 41
2, 132960, Note_on_c, 0, 67, 33
2, 132960, Note_on_c, 0, 71, 33
2, 133440, Note_on_c, 0, 71, 0
2, 133440, Note_on_c, 0, 67, 0
2, 133440, Note_on_c, 0, 74, 0
2, 133440, Note_on_c, 0, 74, 43
2, 133560, Note_on_c, 0, 74, 0
2, 133560, Note_on_c, 0, 76, 43
2, 133680, Note_on_c, 0, 76, 0
2, 133680, Note_on_c, 0, 69, 30
2, 133680, Note_on_c, 0, 72, 30
2, 133680, Note_on_c, 0, 77, 38
2, 133920, Note_on_c, 0, 77, 0
2, 133920, Note_on_c, 0, 72, 0
2, 133920, Note_on_c, 0, 69, 0
2, 134160, Note_on_c, 0, 74, 43
2, 134280, Note_on_c, 0, 74, 0
2, 134280, Note_on_c, 0, 76, 43
2, 134400, Note_on_c, 0, 76, 0
2, 134400, Note_on_c, 0, 69, 30
2, 134400, Note_on_c, 0, 72, 30
2, 134400, Note_on_c, 0, 78, 38
2, 134520, Note_on_c, 0, 78, 0
2, 134520, Note_on_c, 0, 72, 0
2, 134520, Note_on_c, 0, 69, 0
2, 134880, Note_on_c, 0, 74, 43
2, 135000, Note_on_c, 0, 74, 0
2, 135000, Note_on_c, 0, 76, 43
2, 135120, Note_on_c, 0, 76, 0
2, 135120, Note_on_c, 0, 69, 30
2, 135120, Note_on_c, 0, 72, 30
2, 135120, Note_on_c, 0, 77, 38
2, 135240, Note_on_c, 0, 77, 0
2, 135240, Note_on_c, 0, 72, 0
2, 135240, Note_on_c, 0, 69, 0
2, 135600, Note_on_c, 0, 74, 43
2, 135720, Note_on_c, 0, 74, 0
2, 135720, Note_on_c, 0, 76, 43
2, 135840, Note_on_c, 0, 76, 0
2, 135840, Note_on_c, 0, 69, 30
2, 135840, Note_on_c, 0, 72, 30
2, 135840, Note_on_c, 0, 78, 38
2, 135960, Note_on_c, 0, 78, 0
2, 135960, Note_on_c, 0, 72, 0
2, 135960, Note_on_c, 0, 69, 0
2, 136320, Note_on_c, 0, 74, 43
2, 136440, Note_on_c, 0, 74, 0
2, 136440, Note_on_c, 0, 76, 43
2, 136560, Note_on_c, 0, 76, 0
2, 136560, Note_on_c, 0, 69, 30
2, 136560, Note_on_c, 0, 72, 30
2, 136560, Note_on_c, 0, 77, 38
2, 136680, Note_on_c, 0, 77, 0
2, 136680, Note_on_c, 0, 72, 0
2, 136680, Note_on_c, 0, 69, 0
2, 137040, Note_on_c, 0, 77, 43
2, 137160, Note_on_c, 0, 77, 0
2, 137160, Note_on_c, 0, 79, 43
2, 137280, Note_on_c, 0, 79, 0
2, 137280, Note_on_c, 0, 72, 30
2, 137280, Note_on_c, 0, 74, 30
2, 137280, Note_on_c, 0, 81, 38
2, 137400, Note_on_c, 0, 81, 0
2, 137400, Note_on_c, 0, 74, 0
2, 137400, Note_on_c, 0, 72, 0
2, 137760, Note_on_c, 0, 77, 43
2, 137880, Note_on_c, 0, 77, 0
2, 137880, Note_on_c, 0, 79, 43
2, 138000, Note_on_c, 0, 79, 0
2, 138000, Note_on_c, 0, 71, 30
2, 138000, Note_on_c, 0, 74, 30
2, 138000, Note_on_c, 0, 81, 38
2, 138120, Note_on_c, 0, 81, 0
2, 138120, Note_on_c, 0, 74, 0
2, 138120, Note_on_c, 0, 71, 0
2, 138480, Note_on_c, 0, 76, 43
2, 138600, Note_on_c, 0, 76, 0
2, 138600, Note_on_c, 0, 77, 43
2, 138720, Note_on_c, 0, 77, 0
2, 138720, Note_on_c, 0, 71, 30
2, 138720, Note_on_c, 0, 72, 30
2, 138720, Note_on_c, 0, 79, 38
2, 138840, Note_on_c, 0, 79, 0
2, 138840, Note_on_c, 0, 72, 0
2, 138840, Note_on_c, 0, 71, 0
2, 139200, Note_on_c, 0, 76, 43
2, 139320, Note_on_c, 0, 76, 0
2, 139320, Note_on_c, 0, 77, 43
2, 139440, Note_on_c, 0, 77, 0
2, 139440, Note_on_c, 0, 71, 29
2, 139440, Note_on_c, 0, 72, 29
2, 139440, Note_on_c, 0, 79, 37
2, 139560, Note_on_c, 0, 79, 0
2, 139560, Note_on_c, 0, 72, 0
2, 139560, Note_on_c, 0, 71, 0
2, 139920, Note_on_c, 0, 76, 41
2, 140040, Note_on_c, 0, 76, 0
2, 140040, Note_on_c, 0, 77, 41
2, 140160, Note_on_c, 0, 77, 0
2, 140160, Note_on_c, 0, 69, 28
2, 140160, Note_on_c, 0, 72, 28
2, 140160, Note_on_c, 0, 79, 36
2, 140280, Note_on_c, 0, 79, 0
2, 140280, Note_on_c, 0, 72, 0
2, 140280, Note_on_c, 0, 69, 0
2, 140640, Note_on_c, 0, 76, 39
2, 140760, Note_on_c, 0, 76, 0
2, 140760, Note_on_c, 0, 77, 39
2, 140880, Note_on_c, 0, 77, 0
2, 140880, Note_on_c, 0, 69, 27
2, 140880, Note_on_c, 0, 72, 27
2, 140880, Note_on_c, 0, 79, 34
2, 141000, Note_on_c, 0, 79, 0
2, 141000, Note_on_c, 0, 72, 0
2, 141000, Note_on_c, 0, 69, 0
2, 141360, Note_on_c, 0, 74, 37
2, 141480, Note_on_c, 0, 74, 0
2, 141480, Note_on_c, 0, 76, 37
2, 141600, Note_on_c, 0, 76, 0
2, 141600, Note_on_c, 0, 69, 26
2, 141600, Note_on_c, 0, 71, 26
2, 141600, Note_on_c, 0, 77, 33
2, 141720, Note_on_c, 0, 77, 0
2, 141720, Note_on_c, 0, 71, 0
2, 141720, Note_on_c, 0, 69, 0
2, 142080, Note_on_c, 0, 74, 36
2, 142200, Note_on_c, 0, 74, 0
2, 142200, Note_on_c, 0, 76, 36
2, 142320, Note_on_c, 0, 76, 0
2, 142320, Note_on_c, 0, 69, 24
2, 142320, Note_on_c, 0, 71, 24
2, 142320, Note_on_c, 0, 77, 31
2, 142440, Note_on_c, 0, 77, 0
2, 142440, Note_on_c, 0, 71, 0
2, 142440, Note_on_c, 0, 69, 0
2, 142800, Note_on_c, 0, 74, 34
2, 142920, Note_on_c, 0, 74, 0
2, 142920, Note_on_c, 0, 76, 34
2, 143040, Note_on_c, 0, 76, 0
2, 143040, Note_on_c, 0, 67, 23
2, 143040, Note_on_c, 0, 71, 23
2, 143040, Note_on_c, 0, 77, 30
2, 143160, Note_on_c, 0, 77, 0
2, 143160, Note_on_c, 0, 71, 0
2, 143160, Note_on_c, 0, 67, 0
2, 143520, Note_on_c, 0, 74, 32
2, 143640, Note_on_c, 0, 74, 0
2, 143640, Note_on_c, 0, 76, 32
2, 143760, Note_on_c, 0, 76, 0
2, 143760, Note_on_c, 0, 67, 22
2, 143760, Note_on_c, 0, 71, 22
2, 143760, Note_on_c, 0, 77, 28
2, 143880, Note_on_c, 0, 77, 0
2, 143880, Note_on_c, 0, 71, 0
2, 143880, Note_on_c, 0, 67, 0
2, 144240, Note_on_c, 0, 72, 30
2, 144360, Note_on_c, 0, 72, 0
2, 144360, Note_on_c, 0, 74, 30
2, 144480, Note_on_c, 0, 74, 0
2, 144480, Note_on_c, 0, 67, 21
2, 144480, Note_on_c, 0, 69, 21
2, 144480, Note_on_c, 0, 76, 26
2, 144600, Note_on_c, 0, 76, 0
2, 144600, Note_on_c, 0, 69, 0
2, 144600, Note_on_c, 0, 67, 0
2, 144960, Note_on_c, 0, 72, 29
2, 145080, Note_on_c, 0, 72, 0
2, 145080, Note_on_c, 0, 74, 29
2, 145200, Note_on_c, 0, 74, 0
2, 145200, Note_on_c, 0, 67, 20
2, 145200, Note_on_c, 0, 69, 20
2, 145200, Note_on_c, 0, 76, 25
2, 145320, Note_on_c, 0, 76, 0
2, 145320, Note_on_c, 0, 69, 0
2, 145320, Note_on_c, 0, 67, 0
2, 145680, Note_on_c, 0, 72, 27
2, 145800, Note_on_c, 0, 72, 0
2, 145800, Note_on_c, 0, 74, 27
2, 145920, Note_on_c, 0, 74, 0
2, 145920, Note_on_c, 0, 65, 19
2, 145920, Note_on_c, 0, 69, 19
2, 145920, Note_on_c, 0, 76, 24
2, 146040, Note_on_c, 0, 76, 0
2, 146040, Note_on_c, 0, 69, 0
2, 146040, Note_on_c, 0, 65, 0
2, 148560, Note_on_c, 0, 71, 27
2, 148680, Note_on_c, 0, 71, 0
2, 148680, Note_on_c, 0, 72, 27
2, 148800, Note_on_c, 0, 72, 0
2, 148800, Note_on_c, 0, 65, 19
2, 148800, Note_on_c, 0, 69, 19
2, 148800, Note_on_c, 0, 74, 24
2, 148920, Note_on_c, 0, 74, 0
2, 148920, Note_on_c, 0, 69, 0
2, 148920, Note_on_c, 0, 65, 0
2, 152640, Note_on_c, 0, 67, 14
2, 152640, Note_on_c, 0, 74, 16
2, 152880, Note_on_c, 0, 74, 0
2, 152880, Note_on_c, 0, 67, 0
2, 153600, Note_on_c, 0, 84, 32
2, 153840, Note_on_c, 0, 84, 0
2, 153840, Note_on_c, 0, 86, 29
2, 154080, Note_on_c, 0, 86, 0
2, 154080, Note_on_c, 0, 88, 36
2, 154320, Note_on_c, 0, 88, 0
2, 154320, Note_on_c, 0, 84, 30
2, 154560, Note_on_c, 0, 84, 0
2, 154560, Note_on_c, 0, 88, 30
2, 154920, Note_on_c, 0, 88, 0
2, 154920, Note_on_c, 0, 86, 27
2, 154980, Note_on_c, 0, 86, 0
2, 154980, Note_on_c, 0, 88, 27
2, 155040, Note_on_c, 0, 88, 0
2, 155040, Note_on_c, 0, 86, 34
2, 155280, Note_on_c, 0, 86, 0
2, 155280, Note_on_c, 0, 84, 30
2, 155520, Note_on_c, 0, 84, 0
2, 155520, Note_on_c, 0, 88, 32
2, 155640, Note_on_c, 0, 88, 0
2, 156000, Note_on_c, 0, 88, 39
2, 156480, Note_on_c, 0, 88, 0
2, 156480, Note_on_c, 0, 84, 32
2, 156720, Note_on_c, 0, 84, 0
2, 156720, Note_on_c, 0, 86, 29
2, 156960, Note_on_c, 0, 86, 0
2, 156960, Note_on_c, 0, 88, 36
2, 157200, Note_on_c, 0, 88, 0
2, 157200, Note_on_c, 0, 84, 30
2, 157440, Note_on_c, 0, 84, 0
2, 157440, Note_on_c, 0, 88, 30
2, 157800, Note_on_c, 0, 88, 0
2, 157800, Note_on_c, 0, 86, 27
2, 157860, Note_on_c, 0, 86, 0
2, 157860, Note_on_c, 0, 88, 27
2, 157920, Note_on_c, 0, 88, 0
2, 157920, Note_on_c, 0, 86, 34
2, 158160, Note_on_c, 0, 86, 0
2, 158160, Note_on_c, 0, 84, 30
2, 158400, Note_on_c, 0, 84, 0
2, 158400, Note_on_c, 0, 88, 32
2, 158520, Note_on_c, 0, 88, 0
2, 158880, Note_on_c, 0, 88, 39
2, 159360, Note_on_c, 0, 88, 0
2, 159840, Note_on_c, 0, 96, 28
2, 159840, Note_on_c, 0, 93, 24
2, 159840, Note_on_c, 0, 89, 24
2, 160080, Note_on_c, 0, 89, 0
2, 160080, Note_on_c, 0, 93, 0
2, 160080, Note_on_c, 0, 96, 0
2, 160560, Note_on_c, 0, 89, 24
2, 160560, Note_on_c, 0, 95, 28
2, 160560, Note_on_c, 0, 91, 24
2, 160800, Note_on_c, 0, 91, 0
2, 160800, Note_on_c, 0, 95, 0
2, 160800, Note_on_c, 0, 89, 0
2, 161280, Note_on_c, 0, 95, 28
2, 161280, Note_on_c, 0, 91, 24
2, 161280, Note_on_c, 0, 88, 24
2, 161520, Note_on_c, 0, 88, 0
2, 161520, Note_on_c, 0, 91, 0
2, 161520, Note_on_c, 0, 95, 0
2, 162000, Note_on_c, 0, 93, 28
2, 162000, Note_on_c, 0, 89, 24
2, 162000, Note_on_c, 0, 88, 24
2, 162240, Note_on_c, 0, 88, 0
2, 162240, Note_on_c, 0, 89, 0
2, 162240, Note_on_c, 0, 93, 0
2, 162720, Note_on_c, 0, 93, 28
2, 162720, Note_on_c, 0, 89, 24
2, 162720, Note_on_c, 0, 86, 24
2, 162960, Note_on_c, 0, 86, 0
2, 162960, Note_on_c, 0, 89, 0
2, 162960, Note_on_c, 0, 93, 0
2, 163440, Note_on_c, 0, 86, 24
2, 163440, Note_on_c, 0, 91, 28
2, 163440, Note_on_c, 0, 88, 24
2, 163680, Note_on_c, 0, 88, 0
2, 163680, Note_on_c, 0, 91, 0
2, 163680, Note_on_c, 0, 86, 0
2, 164160, Note_on_c, 0, 91, 28
2, 164160, Note_on_c, 0, 88, 24
2, 164160, Note_on_c, 0, 84, 24
2, 164400, Note_on_c, 0, 84, 0
2, 164400, Note_on_c, 0, 88, 0
2, 164400, Note_on_c, 0, 91, 0
2, 164880, Note_on_c, 0, 89, 28
2, 164880, Note_on_c, 0, 86, 24
2, 164880, Note_on_c, 0, 84, 24
2, 165120, Note_on_c, 0, 84, 0
2, 165120, Note_on_c, 0, 86, 0
2, 165120, Note_on_c, 0, 89, 0
2, 165600, Note_on_c, 0, 89, 28
2, 165600, Note_on_c, 0, 86, 24
2, 165600, Note_on_c, 0, 83, 24
2, 165840, Note_on_c, 0, 83, 0
2, 165840, Note_on_c, 0, 86, 0
2, 165840, Note_on_c, 0, 89, 0
2, 166320, Note_on_c, 0, 83, 24
2, 166320, Note_on_c, 0, 88, 28
2, 166320, Note_on_c, 0, 84, 24
2, 166560, Note_on_c, 0, 84, 0
2, 166560, Note_on_c, 0, 88, 0
2, 166560, Note_on_c, 0, 83, 0
2, 167040, Note_on_c, 0, 88, 28
2, 167040, Note_on_c, 0, 84, 24
2, 167040, Note_on_c, 0, 81, 24
2, 167280, Note_on_c, 0, 81, 0
2, 167280, Note_on_c, 0, 84, 0
2, 167280, Note_on_c, 0, 88, 0
2, 167760, Note_on_c, 0, 81, 24
2, 167760, Note_on_c, 0, 86, 28
2, 167760, Note_on_c, 0, 83, 24
2, 168000, Note_on_c, 0, 83, 0
2, 168000, Note_on_c, 0, 86, 0
2, 168000, Note_on_c, 0, 81, 0
2, 168480, Note_on_c, 0, 86, 28
2, 168480, Note_on_c, 0, 83, 24
2, 168480, Note_on_c, 0, 79, 24
2, 168720, Note_on_c, 0, 79, 0
2, 168720, Note_on_c, 0, 83, 0
2, 168720, Note_on_c, 0, 86, 0
2, 169200, Note_on_c, 0, 79, 24
2, 169200, Note_on_c, 0, 84, 28
2, 169200, Note_on_c, 0, 81, 24
2, 169440, Note_on_c, 0, 81, 0
2, 169440, Note_on_c, 0, 84, 0
2, 169440, Note_on_c, 0, 79, 0
2, 169920, Note_on_c, 0, 84, 28
2, 169920, Note_on_c, 0, 81, 24
2, 169920, Note_on_c, 0, 77, 24
2, 170160, Note_on_c, 0, 77, 0
2, 170160, Note_on_c, 0, 81, 0
2, 170160, Note_on_c, 0, 84, 0
2, 170640, Note_on_c, 0, 77, 24
2, 170640, Note_on_c, 0, 83, 28
2, 170640, Note_on_c, 0, 79, 24
2, 170880, Note_on_c, 0, 79, 0
2, 170880, Note_on_c, 0, 83, 0
2, 170880, Note_on_c, 0, 77, 0
2, 171360, Note_on_c, 0, 84, 29
2, 171360, Note_on_c, 0, 81, 25
2, 171360, Note_on_c, 0, 77, 25
2, 171600, Note_on_c, 0, 77, 0
2, 171600, Note_on_c, 0, 81, 0
2, 171600, Note_on_c, 0, 84, 0
2, 172080, Note_on_c, 0, 77, 25
2, 172080, Note_on_c, 0, 83, 30
2, 172080, Note_on_c, 0, 79, 25
2, 172320, Note_on_c, 0, 79, 0
2, 172320, Note_on_c, 0, 83, 0
2, 172320, Note_on_c, 0, 77, 0
2, 172800, Note_on_c, 0, 83, 30
2, 172800, Note_on_c, 0, 79, 25
2, 172800, Note_on_c, 0, 76, 25
2, 173040, Note_on_c, 0, 76, 0
2, 173040, Note_on_c, 0, 79, 0
2, 173040, Note_on_c, 0, 83, 0
2, 173520, Note_on_c, 0, 76, 26
2, 173520, Note_on_c, 0, 81, 31
2, 173520, Note_on_c, 0, 77, 26
2, 173760, Note_on_c, 0, 77, 0
2, 173760, Note_on_c, 0, 81, 0
2, 173760, Note_on_c, 0, 76, 0
2, 174240, Note_on_c, 0, 81, 31
2, 174240, Note_on_c, 0, 77, 27
2, 174240, Note_on_c, 0, 74, 27
2, 174480, Note_on_c, 0, 74, 0
2, 174480, Note_on_c, 0, 77, 0
2, 174480, Note_on_c, 0, 81, 0
2, 174960, Note_on_c, 0, 74, 28
2, 174960, Note_on_c, 0, 79, 33
2, 174960, Note_on_c, 0, 76, 28
2, 175200, Note_on_c, 0, 76, 0
2, 175200, Note_on_c, 0, 79, 0
2, 175200, Note_on_c, 0, 74, 0
2, 175680, Note_on_c, 0, 79, 33
2, 175680, Note_on_c, 0, 76, 28
2, 175680, Note_on_c, 0, 72, 28
2, 175920, Note_on_c, 0, 72, 0
2, 175920, Note_on_c, 0, 76, 0
2, 175920, Note_on_c, 0, 79, 0
2, 176400, Note_on_c, 0, 72, 28
2, 176400, Note_on_c, 0, 77, 34
2, 176400, Note_on_c, 0, 74, 28
2, 176640, Note_on_c, 0, 74, 0
2, 176640, Note_on_c, 0, 77, 0
2, 176640, Note_on_c, 0, 72, 0
2, 177120, Note_on_c, 0, 77, 35
2, 177120, Note_on_c, 0, 74, 30
2, 177120, Note_on_c, 0, 71, 30
2, 177360, Note_on_c, 0, 71, 0
2, 177360, Note_on_c, 0, 74, 0
2, 177360, Note_on_c, 0, 77, 0
2, 177840, Note_on_c, 0, 71, 30
2, 177840, Note_on_c, 0, 76, 36
2, 177840, Note_on_c, 0, 72, 30
2, 178080, Note_on_c, 0, 72, 0
2, 178080, Note_on_c, 0, 76, 0
2, 178080, Note_on_c, 0, 71, 0
2, 178560, Note_on_c, 0, 76, 37
2, 178560, Note_on_c, 0, 72, 31
2, 178560, Note_on_c, 0, 69, 31
2, 178800, Note_on_c, 0, 69, 0
2, 178800, Note_on_c, 0, 72, 0
2, 178800, Note_on_c, 0, 76, 0
2, 179280, Note_on_c, 0, 69, 33
2, 179280, Note_on_c, 0, 74, 40
2, 179280, Note_on_c, 0, 71, 33
2, 179520, Note_on_c, 0, 71, 0
2, 179520, Note_on_c, 0, 74, 0
2, 179520, Note_on_c, 0, 69, 0
2, 180000, Note_on_c, 0, 76, 41
2, 180000, Note_on_c, 0, 72, 35
2, 180000, Note_on_c, 0, 69, 35
2, 180240, Note_on_c, 0, 69, 0
2, 180240, Note_on_c, 0, 72, 0
2, 180240, Note_on_c, 0, 76, 0
2, 180720, Note_on_c, 0, 69, 37
2, 180720, Note_on_c, 0, 74, 44
2, 180720, Note_on_c, 0, 71, 37
2, 180960, Note_on_c, 0, 71, 0
2, 180960, Note_on_c, 0, 74, 0
2, 180960, Note_on_c, 0, 69, 0
2, 181440, Note_on_c, 0, 72, 47
2, 181440, Note_on_c, 0, 69, 40
2, 181440, Note_on_c, 0, 65, 40
2, 181680, Note_on_c, 0, 65, 0
2, 181680, Note_on_c, 0, 69, 0
2, 181680, Note_on_c, 0, 72, 0
2, 182160, Note_on_c, 0, 65, 42
2, 182160, Note_on_c, 0, 71, 50
2, 182160, Note_on_c, 0, 67, 42
2, 182400, Note_on_c, 0, 67, 0
2, 182400, Note_on_c, 0, 71, 0
2, 182400, Note_on_c, 0, 65, 0
2, 182880, Note_on_c, 0, 72, 52
2, 182880, Note_on_c, 0, 69, 44
2, 182880, Note_on_c, 0, 65, 44
2, 183120, Note_on_c, 0, 65, 0
2, 183120, Note_on_c, 0, 69, 0
2, 183120, Note_on_c, 0, 72, 0
2, 183600, Note_on_c, 0, 65, 44
2, 183600, Note_on_c, 0, 71, 52
2, 183600, Note_on_c, 0, 67, 44
2, 183840, Note_on_c, 0, 67, 0
2, 183840, Note_on_c, 0, 71, 0
2, 183840, Note_on_c, 0, 65, 0
2, 184320, Note_on_c, 0, 71, 52
2, 184320, Note_on_c, 0, 67, 44
2, 184320, Note_on_c, 0, 64, 44
2, 184560, Note_on_c, 0, 64, 0
2, 184560, Note_on_c, 0, 67, 0
2, 184560, Note_on_c, 0, 71, 0
2, 185040, Note_on_c, 0, 64, 44
2, 185040, Note_on_c, 0, 69, 52
2, 185040, Note_on_c, 0, 65, 44
2, 185280, Note_on_c, 0, 65, 0
2, 185280, Note_on_c, 0, 69, 0
2, 185280, Note_on_c, 0, 64, 0
2, 185760, Note_on_c, 0, 69, 52
2, 185760, Note_on_c, 0, 65, 44
2, 185760, Note_on_c, 0, 62, 44
2, 186000, Note_on_c, 0, 62, 0
2, 186000, Note_on_c, 0, 65, 0
2, 186000, Note_on_c, 0, 69, 0
2, 186480, Note_on_c, 0, 62, 44
2, 186480, Note_on_c, 0, 67, 52
2, 186480, Note_on_c, 0, 64, 44
2, 186720, Note_on_c, 0, 64, 0
2, 186720, Note_on_c, 0, 67, 0
2, 186720, Note_on_c, 0, 62, 0
2, 187200, Note_on_c, 0, 67, 52
2, 187200, Note_on_c, 0, 64, 44
2, 187200, Note_on_c, 0, 60, 44
2, 187440, Note_on_c, 0, 60, 0
2, 187440, Note_on_c, 0, 64, 0
2, 187440, Note_on_c, 0, 67, 0
2, 187920, Note_on_c, 0, 60, 44
2, 187920, Note_on_c, 0, 65, 52
2, 187920, Note_on_c, 0, 62, 44
2, 188160, Note_on_c, 0, 62, 0
2, 188160, Note_on_c, 0, 65, 0
2, 188160, Note_on_c, 0, 60, 0
2, 188640, Note_on_c, 0, 65, 52
2, 188640, Note_on_c, 0, 62, 44
2, 188640, Note_on_c, 0, 59, 44
2, 188880, Note_on_c, 0, 59, 0
2, 188880, Note_on_c, 0, 62, 0
2, 188880, Note_on_c, 0, 65, 0
2, 189360, Note_on_c, 0, 59, 44
2, 189360, Note_on_c, 0, 64, 52
2, 189360, Note_on_c, 0, 60, 44
2, 189600, Note_on_c, 0, 60, 0
2, 189600, Note_on_c, 0, 64, 0
2, 189600, Note_on_c, 0, 59, 0
2, 190080, Note_on_c, 0, 64, 52
2, 190080, Note_on_c, 0, 60, 44
2, 190080, Note_on_c, 0, 57, 44
2, 190320, Note_on_c, 0, 57, 0
2, 190320, Note_on_c, 0, 60, 0
2, 190320, Note_on_c, 0, 64, 0
2, 190800, Note_on_c, 0, 57, 44
2, 190800, Note_on_c, 0, 62, 52
2, 190800, Note_on_c, 0, 59, 44
2, 191040, Note_on_c, 0, 59, 0
2, 191040, Note_on_c, 0, 62, 0
2, 191040, Note_on_c, 0, 57, 0
2, 191520, Note_on_c, 0, 62, 52
2, 191520, Note_on_c, 0, 59, 44
2, 191520, Note_on_c, 0, 55, 44
2, 191760, Note_on_c, 0, 55, 0
2, 191760, Note_on_c, 0, 59, 0
2, 191760, Note_on_c, 0, 62, 0
2, 192240, Note_on_c, 0, 55, 44
2, 192240, Note_on_c, 0, 60, 52
2, 192240, Note_on_c, 0, 57, 44
2, 192480, Note_on_c, 0, 57, 0
2, 192480, Note_on_c, 0, 60, 0
2, 192480, Note_on_c, 0, 55, 0
2, 192960, Note_on_c, 0, 64, 52
2, 192960, Note_on_c, 0, 60, 44
2, 192960, Note_on_c, 0, 57, 44
2, 193200, Note_on_c, 0, 57, 0
2, 193200, Note_on_c, 0, 60, 0
2, 193200, Note_on_c, 0, 64, 0
2, 193680, Note_on_c, 0, 57, 44
2, 193680, Note_on_c, 0, 62, 52
2, 193680, Note_on_c, 0, 59, 44
2, 193920, Note_on_c, 0, 59, 0
2, 193920, Note_on_c, 0, 62, 0
2, 193920, Note_on_c, 0, 57, 0
2, 193920, Note_on_c, 0, 48, 68
2, 193920, Note_on_c, 0, 60, 81
2, 194004, Note_on_c, 0, 60, 0
2, 194004, Note_on_c, 0, 48, 0
2, 194160, Note_on_c, 0, 49, 61
2, 194160, Note_on_c, 0, 61, 72
2, 194244, Note_on_c, 0, 61, 0
2, 194244, Note_on_c, 0, 49, 0
2, 194400, Note_on_c, 0, 60, 73
2, 194400, Note_on_c, 0, 56, 73
2, 194400, Note_on_c, 0, 51, 73
2, 194400, Note_on_c, 0, 63, 86
2, 194460, Note_on_c, 0, 56, 0
2, 194460, Note_on_c, 0, 60, 0
2, 194484, Note_on_c, 0, 51, 0
2, 194484, Note_on_c, 0, 63, 0
2, 194640, Note_on_c, 0, 48, 67
2, 194640, Note_on_c, 0, 60, 79
2, 194724, Note_on_c, 0, 60, 0
2, 194724, Note_on_c, 0, 48, 0
2, 194880, Note_on_c, 0, 51, 63
2, 194880, Note_on_c, 0, 63, 76
2, 195120, Note_on_c, 0, 53, 61
2, 195120, Note_on_c, 0, 56, 61
2, 195360, Note_on_c, 0, 56, 0
2, 195360, Note_on_c, 0, 51, 0
2, 195360, Note_on_c, 0, 63, 0
2, 195360, Note_on_c, 0, 53, 0
2, 195360, Note_on_c, 0, 49, 68
2, 195360, Note_on_c, 0, 61, 81
2, 195444, Note_on_c, 0, 61, 0
2, 195444, Note_on_c, 0, 49, 0
2, 195600, Note_on_c, 0, 48, 61
2, 195600, Note_on_c, 0, 60, 72
2, 195684, Note_on_c, 0, 60, 0
2, 195684, Note_on_c, 0, 48, 0
2, 195840, Note_on_c, 0, 60, 64
2, 195840, Note_on_c, 0, 56, 64
2, 195840, Note_on_c, 0, 51, 64
2, 195840, Note_on_c, 0, 63, 77
2, 195960, Note_on_c, 0, 63, 0
2, 195960, Note_on_c, 0, 60, 0
2, 195960, Note_on_c, 0, 56, 0
2, 195960, Note_on_c, 0, 51, 0
2, 196320, Note_on_c, 0, 51, 79
2, 196320, Note_on_c, 0, 63, 93
2, 196560, Note_on_c, 0, 53, 61
2, 196560, Note_on_c, 0, 56, 61
2, 196800, Note_on_c, 0, 56, 0
2, 196800, Note_on_c, 0, 51, 0
2, 196800, Note_on_c, 0, 63, 0
2, 196800, Note_on_c, 0, 53, 0
2, 196800, Note_on_c, 0, 48, 68
2, 196800, Note_on_c, 0, 60, 81
2, 196884, Note_on_c, 0, 60, 0
2, 196884, Note_on_c, 0, 48, 0
2, 197040, Note_on_c, 0, 49, 61
2, 197040, Note_on_c, 0, 61, 72
2, 197124, Note_on_c, 0, 61, 0
2, 197124, Note_on_c, 0, 49, 0
2, 197280, Note_on_c, 0, 60, 73
2, 197280, Note_on_c, 0, 56, 73
2, 197280, Note_on_c, 0, 51, 73
2, 197280, Note_on_c, 0, 63, 86
2, 197340, Note_on_c, 0, 56, 0
2, 197340, Note_on_c, 0, 60, 0
2, 197364, Note_on_c, 0, 51, 0
2, 197364, Note_on_c, 0, 63, 0
2, 197520, Note_on_c, 0, 48, 67
2, 197520, Note_on_c, 0, 60, 79
2, 197604, Note_on_c, 0, 60, 0
2, 197604, Note_on_c, 0, 48, 0
2, 197760, Note_on_c, 0, 51, 63
2, 197760, Note_on_c, 0, 63, 76
2, 198000, Note_on_c, 0, 53, 61
2, 198000, Note_on_c, 0, 56, 61
2, 198240, Note_on_c, 0, 56, 0
2, 198240, Note_on_c, 0, 51, 0
2, 198240, Note_on_c, 0, 63, 0
2, 198240, Note_on_c, 0, 53, 0
2, 198240, Note_on_c, 0, 49, 68
2, 198240, Note_on_c, 0, 61, 81
2, 198324, Note_on_c, 0, 61, 0
2, 198324, Note_on_c, 0, 49, 0
2, 198480, Note_on_c, 0, 48, 61
2, 198480, Note_on_c, 0, 60, 72
2, 198564, Note_on_c, 0, 60, 0
2, 198564, Note_on_c, 0, 48, 0
2, 198720, Note_on_c, 0, 60, 64
2, 198720, Note_on_c, 0, 56, 64
2, 198720, Note_on_c, 0, 51, 64
2, 198720, Note_on_c, 0, 63, 77
2, 198840, Note_on_c, 0, 63, 0
2, 198840, Note_on_c, 0, 60, 0
2, 198840, Note_on_c, 0, 56, 0
2, 198840, Note_on_c, 0, 51, 0
2, 199200, Note_on_c, 0, 51, 79
2, 199200, Note_on_c, 0, 63, 93
2, 199440, Note_on_c, 0, 53, 61
2, 199440, Note_on_c, 0, 56, 61
2, 199680, Note_on_c, 0, 56, 0
2, 199680, Note_on_c, 0, 51, 0
2, 199680, Note_on_c, 0, 63, 0
2, 199680, Note_on_c, 0, 53, 0
2, 199680, Note_on_c, 0, 48, 74
2, 199680, Note_on_c, 0, 60, 89
2, 199764, Note_on_c, 0, 60, 0
2, 199764, Note_on_c, 0, 48, 0
2, 199920, Note_on_c, 0, 50, 67
2, 199920, Note_on_c, 0, 62, 79
2, 200004, Note_on_c, 0, 62, 0
2, 200004, Note_on_c, 0, 50, 0
2, 200160, Note_on_c, 0, 60, 80
2, 200160, Note_on_c, 0, 55, 68
2, 200160, Note_on_c, 0, 52, 68
2, 200160, Note_on_c, 0, 64, 94
2, 200220, Note_on_c, 0, 55, 0
2, 200220, Note_on_c, 0, 60, 0
2, 200244, Note_on_c, 0, 52, 0
2, 200244, Note_on_c, 0, 64, 0
2, 200400, Note_on_c, 0, 48, 73
2, 200400, Note_on_c, 0, 60, 86
2, 200484, Note_on_c, 0, 60, 0
2, 200484, Note_on_c, 0, 48, 0
2, 200640, Note_on_c, 0, 52, 69
2, 200640, Note_on_c, 0, 64, 83
2, 200880, Note_on_c, 0, 53, 67
2, 200880, Note_on_c, 0, 57, 67
2, 201120, Note_on_c, 0, 57, 0
2, 201120, Note_on_c, 0, 52, 0
2, 201120, Note_on_c, 0, 64, 0
2, 201120, Note_on_c, 0, 53, 0
2, 201120, Note_on_c, 0, 50, 74
2, 201120, Note_on_c, 0, 62, 89
2, 201204, Note_on_c, 0, 62, 0
2, 201204, Note_on_c, 0, 50, 0
2, 201360, Note_on_c, 0, 48, 67
2, 201360, Note_on_c, 0, 60, 79
2, 201444, Note_on_c, 0, 60, 0
2, 201444, Note_on_c, 0, 48, 0
2, 201600, Note_on_c, 0, 60, 70
2, 201600, Note_on_c, 0, 55, 70
2, 201600, Note_on_c, 0, 52, 70
2, 201600, Note_on_c, 0, 64, 84
2, 201720, Note_on_c, 0, 64, 0
2, 201720, Note_on_c, 0, 60, 0
2, 201720, Note_on_c, 0, 55, 0
2, 201720, Note_on_c, 0, 52, 0
2, 202080, Note_on_c, 0, 52, 83
2, 202080, Note_on_c, 0, 64, 98
2, 202320, Note_on_c, 0, 53, 67
2, 202320, Note_on_c, 0, 57, 67
2, 202560, Note_on_c, 0, 57, 0
2, 202560, Note_on_c, 0, 52, 0
2, 202560, Note_on_c, 0, 64, 0
2, 202560, Note_on_c, 0, 53, 0
2, 202560, Note_on_c, 0, 48, 74
2, 202560, Note_on_c, 0, 60, 89
2, 202644, Note_on_c, 0, 60, 0
2, 202644, Note_on_c, 0, 48, 0
2, 202800, Note_on_c, 0, 50, 67
2, 202800, Note_on_c, 0, 62, 79
2, 202884, Note_on_c, 0, 62, 0
2, 202884, Note_on_c, 0, 50, 0
2, 203040, Note_on_c, 0, 60, 80
2, 203040, Note_on_c, 0, 55, 80
2, 203040, Note_on_c, 0, 52, 80
2, 203040, Note_on_c, 0, 64, 94
2, 203100, Note_on_c, 0, 55, 0
2, 203100, Note_on_c, 0, 60, 0
2, 203124, Note_on_c, 0, 52, 0
2, 203124, Note_on_c, 0, 64, 0
2, 203280, Note_on_c, 0, 48, 73
2, 203280, Note_on_c, 0, 60, 86
2, 203364, Note_on_c, 0, 60, 0
2, 203364, Note_on_c, 0, 48, 0
2, 203520, Note_on_c, 0, 52, 69
2, 203520, Note_on_c, 0, 64, 83
2, 203760, Note_on_c, 0, 53, 67
2, 203760, Note_on_c, 0, 57, 67
2, 204000, Note_on_c, 0, 57, 0
2, 204000, Note_on_c, 0, 52, 0
2, 204000, Note_on_c, 0, 64, 0
2, 204000, Note_on_c, 0, 53, 0
2, 204000, Note_on_c, 0, 50, 74
2, 204000, Note_on_c, 0, 62, 89
2, 204084, Note_on_c, 0, 62, 0
2, 204084, Note_on_c, 0, 50, 0
2, 204240, Note_on_c, 0, 48, 67
2, 204240, Note_on_c, 0, 60, 79
2, 204324, Note_on_c, 0, 60, 0
2, 204324, Note_on_c, 0, 48, 0
2, 204480, Note_on_c, 0, 60, 70
2, 204480, Note_on_c, 0, 55, 70
2, 204480, Note_on_c, 0, 52, 70
2, 204480, Note_on_c, 0, 64, 84
2, 204600, Note_on_c, 0, 64, 0
2, 204600, Note_on_c, 0, 60, 0
2, 204600, Note_on_c, 0, 55, 0
2, 204600, Note_on_c, 0, 52, 0
2, 204960, Note_on_c, 0, 52, 83
2, 204960, Note_on_c, 0, 64, 98
2, 205200, Note_on_c, 0, 53, 67
2, 205200, Note_on_c, 0, 57, 67
2, 205440, Note_on_c, 0, 57, 0
2, 205440, Note_on_c, 0, 52, 0
2, 205440, Note_on_c, 0, 64, 0
2, 205440, Note_on_c, 0, 53, 0
2, 205440, Note_on_c, 0, 48, 70
2, 205440, Note_on_c, 0, 60, 70
2, 205500, Note_on_c, 0, 60, 0
2, 205500, Note_on_c, 0, 48, 0
2, 205680, Note_on_c, 0, 50, 70
2, 205680, Note_on_c, 0, 62, 70
2, 205740, Note_on_c, 0, 62, 0
2, 205740, Note_on_c, 0, 50, 0
2, 207840, Note_on_c, 0, 52, 58
2, 208320, Note_on_c, 0, 52, 0
2, 208320, Note_on_c, 0, 48, 62
2, 208404, Note_on_c, 0, 48, 0
2, 208560, Note_on_c, 0, 50, 55
2, 208644, Note_on_c, 0, 50, 0
2, 211200, Note_on_c, 0, 60, 40
2, 211440, Note_on_c, 0, 60, 0
2, 211440, Note_on_c, 0, 62, 37
2, 211680, Note_on_c, 0, 62, 0
2, 211680, Note_on_c, 0, 53, 34
2, 211680, Note_on_c, 0, 64, 45
2, 211920, Note_on_c, 0, 64, 0
2, 211920, Note_on_c, 0, 60, 38
2, 212160, Note_on_c, 0, 60, 0
2, 212160, Note_on_c, 0, 64, 38
2, 212400, Note_on_c, 0, 53, 0
2, 212400, Note_on_c, 0, 55, 34
2, 212520, Note_on_c, 0, 64, 0
2, 212520, Note_on_c, 0, 62, 34
2, 212580, Note_on_c, 0, 62, 0
2, 212580, Note_on_c, 0, 64, 34
2, 212640, Note_on_c, 0, 64, 0
2, 212640, Note_on_c, 0, 62, 43
2, 212880, Note_on_c, 0, 62, 0
2, 212880, Note_on_c, 0, 59, 42
2, 213120, Note_on_c, 0, 59, 0
2, 213120, Note_on_c, 0, 55, 0
2, 213120, Note_on_c, 0, 60, 47
2, 213240, Note_on_c, 0, 60, 0
2, 213600, Note_on_c, 0, 60, 49
2, 214020, Note_on_c, 0, 60, 0
2, 214080, Note_on_c, 0, 60, 40
2, 214320, Note_on_c, 0, 60, 0
2, 214320, Note_on_c, 0, 62, 37
2, 214560, Note_on_c, 0, 62, 0
2, 214560, Note_on_c, 0, 53, 34
2, 214560, Note_on_c, 0, 64, 45
2, 214800, Note_on_c, 0, 64, 0
2, 214800, Note_on_c, 0, 60, 38
2, 215040, Note_on_c, 0, 60, 0
2, 215040, Note_on_c, 0, 64, 38
2, 215280, Note_on_c, 0, 53, 0
2, 215280, Note_on_c, 0, 55, 34
2, 215400, Note_on_c, 0, 64, 0
2, 215400, Note_on_c, 0, 62, 34
2, 215460, Note_on_c, 0, 62, 0
2, 215460, Note_on_c, 0, 64, 34
2, 215520, Note_on_c, 0, 64, 0
2, 215520, Note_on_c, 0, 62, 43
2, 215760, Note_on_c, 0, 62, 0
2, 215760, Note_on_c, 0, 59, 42
2, 216000, Note_on_c, 0, 59, 0
2, 216000, Note_on_c, 0, 55, 0
2, 216000, Note_on_c, 0, 60, 47
2, 216120, Note_on_c, 0, 60, 0
2, 216480, Note_on_c, 0, 60, 49
2, 216960, Note_on_c, 0, 60, 0
2, 216960, Note_on_c, 0, 62, 43
2, 217200, Note_on_c, 0, 62, 0
2, 217200, Note_on_c, 0, 64, 42
2, 217440, Note_on_c, 0, 64, 0
2, 217440, Note_on_c, 0, 60, 47
2, 217560, Note_on_c, 0, 60, 0
2, 217920, Note_on_c, 0, 60, 49
2, 218400, Note_on_c, 0, 60, 0
2, 218400, Note_on_c, 0, 59, 43
2, 218640, Note_on_c, 0, 59, 0
2, 218640, Note_on_c, 0, 55, 42
2, 218880, Note_on_c, 0, 55, 0
2, 218880, Note_on_c, 0, 60, 47
2, 219000, Note_on_c, 0, 60, 0
2, 219360, Note_on_c, 0, 60, 41
2, 219600, Note_on_c, 0, 53, 34
2, 219840, Note_on_c, 0, 60, 0
2, 219840, Note_on_c, 0, 62, 36
2, 220080, Note_on_c, 0, 62, 0
2, 220080, Note_on_c, 0, 64, 35
2, 220320, Note_on_c, 0, 64, 0
2, 220320, Note_on_c, 0, 53, 0
2, 220320, Note_on_c, 0, 52, 34
2, 220320, Note_on_c, 0, 60, 39
2, 220440, Note_on_c, 0, 60, 0
2, 220800, Note_on_c, 0, 60, 34
2, 221040, Note_on_c, 0, 52, 0
2, 221040, Note_on_c, 0, 50, 28
2, 221280, Note_on_c, 0, 60, 0
2, 221280, Note_on_c, 0, 59, 30
2, 221520, Note_on_c, 0, 59, 0
2, 221520, Note_on_c, 0, 55, 29
2, 221760, Note_on_c, 0, 55, 0
2, 221760, Note_on_c, 0, 50, 0
2, 221760, Note_on_c, 0, 52, 28
2, 221760, Note_on_c, 0, 60, 33
2, 221880, Note_on_c, 0, 60, 0
2, 221880, Note_on_c, 0, 52, 0
2, 222240, Note_on_c, 0, 52, 28
2, 222240, Note_on_c, 0, 60, 33
2, 223200, Note_on_c, 0, 60, 0
2, 223200, Note_on_c, 0, 52, 0
2, 223200, Note_on_c, 0, 72, 28
2, 223200, Note_on_c, 0, 64, 23
2, 223320, Note_on_c, 0, 64, 0
2, 223320, Note_on_c, 0, 72, 0
2, 223680, Note_on_c, 0, 72, 28
2, 223680, Note_on_c, 0, 64, 23
2, 224640, Note_on_c, 0, 64, 0
2, 224640, Note_on_c, 0, 72, 0
2, 224640, Note_on_c, 0, 76, 19
2, 224640, Note_on_c, 0, 84, 23
2, 224760, Note_on_c, 0, 84, 0
2, 224760, Note_on_c, 0, 76, 0
2, 225120, Note_on_c, 0, 76, 19
2, 225120, Note_on_c, 0, 84, 23
2, 228000, Note_on_c, 0, 84, 0
2, 228000, Note_on_c, 0, 76, 0
2, 228000, End_track
3, 0, Start_track
3, 0, Title_t, "Piano left"
3, 0, Program_c, 0, 0
3, 0, Note_on_c, 0, 48, 40
3, 0, Note_on_c, 0, 60, 96
3, 720, Note_on_c, 0, 60, 0
3, 720, Note_on_c, 0, 59, 32
3, 1440, Note_on_c, 0, 59, 0
3, 1440, Note_on_c, 0, 57, 33
3, 2160, Note_on_c, 0, 57, 0
3, 2160, Note_on_c, 0, 59, 27
3, 2880, Note_on_c, 0, 59, 0
3, 2880, Note_on_c, 0, 55, 31
3, 3600, Note_on_c, 0, 55, 0
3, 3600, Note_on_c, 0, 57, 29
3, 4320, Note_on_c, 0, 57, 0
3, 4320, Note_on_c, 0, 53, 33
3, 5040, Note_on_c, 0, 53, 0
3, 5040, Note_on_c, 0, 52, 27
3, 5760, Note_on_c, 0, 52, 0
3, 5760, Note_on_c, 0, 50, 31
3, 6480, Note_on_c, 0, 50, 0
3, 6480, Note_on_c, 0, 52, 27
3, 7200, Note_on_c, 0, 52, 0
3, 7200, Note_on_c, 0, 48, 0
3, 7200, Note_on_c, 0, 43, 28
3, 7200, Note_on_c, 0, 50, 33
3, 7920, Note_on_c, 0, 50, 0
3, 7920, Note_on_c, 0, 48, 27
3, 8640, Note_on_c, 0, 48, 0
3, 8640, Note_on_c, 0, 50, 29
3, 9360, Note_on_c, 0, 50, 0
3, 9360, Note_on_c, 0, 48, 22
3, 10080, Note_on_c, 0, 48, 0
3, 10080, Note_on_c, 0, 43, 0
3, 10080, Note_on_c, 0, 43, 19
3, 10080, Note_on_c, 0, 50, 23
3, 10800, Note_on_c, 0, 50, 0
3, 10800, Note_on_c, 0, 43, 0
3, 10800, Note_on_c, 0, 31, 19
3, 10800, Note_on_c, 0, 38, 23
3, 11520, Note_on_c, 0, 38, 0
3, 11520, Note_on_c, 0, 31, 0
3, 11520, Note_on_c, 0, 48, 40
3, 11520, Note_on_c, 0, 60, 96
3, 12240, Note_on_c, 0, 60, 0
3, 12240, Note_on_c, 0, 59, 32
3, 12960, Note_on_c, 0, 59, 0
3, 12960, Note_on_c, 0, 57, 33
3, 13680, Note_on_c, 0, 57, 0
3, 13680, Note_on_c, 0, 59, 27
3, 14400, Note_on_c, 0, 59, 0
3, 14400, Note_on_c, 0, 55, 31
3, 15120, Note_on_c, 0, 55, 0
3, 15120, Note_on_c, 0, 57, 29
3, 15840, Note_on_c, 0, 57, 0
3, 15840, Note_on_c, 0, 53, 33
3, 16560, Note_on_c, 0, 53, 0
3, 16560, Note_on_c, 0, 52, 27
3, 17280, Note_on_c, 0, 52, 0
3, 17280, Note_on_c, 0, 50, 31
3, 18000, Note_on_c, 0, 50, 0
3, 18000, Note_on_c, 0, 52, 27
3, 18720, Note_on_c, 0, 52, 0
3, 18720, Note_on_c, 0, 48, 0
3, 18720, Note_on_c, 0, 43, 28
3, 18720, Note_on_c, 0, 50, 33
3, 19440, Note_on_c, 0, 50, 0
3, 19440, Note_on_c, 0, 48, 27
3, 20160, Note_on_c, 0, 48, 0
3, 20160, Note_on_c, 0, 50, 29
3, 20880, Note_on_c, 0, 50, 0
3, 20880, Note_on_c, 0, 48, 22
3, 21600, Note_on_c, 0, 48, 0
3, 21600, Note_on_c, 0, 43, 0
3, 21600, Note_on_c, 0, 43, 19
3, 21600, Note_on_c, 0, 50, 23
3, 22320, Note_on_c, 0, 50, 0
3, 22320, Note_on_c, 0, 43, 0
3, 22320, Note_on_c, 0, 31, 19
3, 22320, Note_on_c, 0, 38, 23
3, 23040, Note_on_c, 0, 38, 0
3, 23040, Note_on_c, 0, 31, 0
3, 23040, Note_on_c, 0, 43, 22
3, 23040, Note_on_c, 0, 50, 26
3, 24000, Note_on_c, 0, 50, 0
3, 24000, Note_on_c, 0, 43, 0
3, 24000, Note_on_c, 0, 62, 79
3, 24120, Note_on_c, 0, 62, 0
3, 24240, Note_on_c, 0, 64, 73
3, 24360, Note_on_c, 0, 64, 0
3, 24480, Note_on_c, 0, 65, 89
3, 24600, Note_on_c, 0, 65, 0
3, 24720, Note_on_c, 0, 62, 74
3, 24840, Note_on_c, 0, 62, 0
3, 24960, Note_on_c, 0, 65, 74
3, 25320, Note_on_c, 0, 65, 0
3, 25320, Note_on_c, 0, 64, 67
3, 25380, Note_on_c, 0, 64, 0
3, 25380, Note_on_c, 0, 65, 67
3, 25440, Note_on_c, 0, 65, 0
3, 25440, Note_on_c, 0, 64, 84
3, 25560, Note_on_c, 0, 64, 0
3, 25680, Note_on_c, 0, 63, 74
3, 25800, Note_on_c, 0, 63, 0
3, 25920, Note_on_c, 0, 64, 74
3, 26640, Note_on_c, 0, 64, 0
3, 26640, Note_on_c, 0, 59, 54
3, 26640, Note_on_c, 0, 52, 50
3, 26880, Note_on_c, 0, 52, 0
3, 26880, Note_on_c, 0, 59, 0
3, 27360, Note_on_c, 0, 47, 28
3, 27360, Note_on_c, 0, 56, 33
3, 28080, Note_on_c, 0, 56, 0
3, 28080, Note_on_c, 0, 57, 27
3, 28800, Note_on_c, 0, 57, 0
3, 28800, Note_on_c, 0, 47, 0
3, 28800, Note_on_c, 0, 52, 22
3, 28800, Note_on_c, 0, 59, 26
3, 29520, Note_on_c, 0, 59, 0
3, 29520, Note_on_c, 0, 52, 0
3, 29520, Note_on_c, 0, 40, 22
3, 29520, Note_on_c, 0, 47, 26
3, 29760, Note_on_c, 0, 47, 0
3, 29760, Note_on_c, 0, 40, 0
3, 29760, Note_on_c, 0, 65, 79
3, 29880, Note_on_c, 0, 65, 0
3, 30000, Note_on_c, 0, 67, 73
3, 30120, Note_on_c, 0, 67, 0
3, 30240, Note_on_c, 0, 68, 89
3, 30360, Note_on_c, 0, 68, 0
3, 30480, Note_on_c, 0, 65, 74
3, 30600, Note_on_c, 0, 65, 0
3, 30720, Note_on_c, 0, 68, 74
3, 31080, Note_on_c, 0, 68, 0
3, 31080, Note_on_c, 0, 67, 67
3, 31140, Note_on_c, 0, 67, 0
3, 31140, Note_on_c, 0, 68, 67
3, 31200, Note_on_c, 0, 68, 0
3, 31200, Note_on_c, 0, 67, 84
3, 31320, Note_on_c, 0, 67, 0
3, 31440, Note_on_c, 0, 66, 74
3, 31560, Note_on_c, 0, 66, 0
3, 31680, Note_on_c, 0, 67, 74
3, 32400, Note_on_c, 0, 67, 0
3, 32400, Note_on_c, 0, 62, 54
3, 32400, Note_on_c, 0, 55, 50
3, 32640, Note_on_c, 0, 55, 0
3, 32640, Note_on_c, 0, 62, 0
3, 33120, Note_on_c, 0, 50, 28
3, 33120, Note_on_c, 0, 59, 33
3, 33840, Note_on_c, 0, 59, 0
3, 33840, Note_on_c, 0, 60, 27
3, 34560, Note_on_c, 0, 60, 0
3, 34560, Note_on_c, 0, 50, 0
3, 34560, Note_on_c, 0, 55, 22
3, 34560, Note_on_c, 0, 62, 26
3, 35280, Note_on_c, 0, 62, 0
3, 35280, Note_on_c, 0, 55, 0
3, 35280, Note_on_c, 0, 43, 22
3, 35280, Note_on_c, 0, 50, 26
3, 35760, Note_on_c, 0, 50, 0
3, 35760, Note_on_c, 0, 43, 0
3, 36014, Note_on_c, 0, 55, 22
3, 36014, Note_on_c, 0, 62, 26
3, 36734, Note_on_c, 0, 62, 0
3, 36734, Note_on_c, 0, 55, 0
3, 36734, Note_on_c, 0, 43, 22
3, 36734, Note_on_c, 0, 50, 26
3, 37214, Note_on_c, 0, 50, 0
3, 37214, Note_on_c, 0, 43, 0
3, 37454, Note_on_c, 0, 55, 22
3, 37454, Note_on_c, 0, 62, 26
3, 37934, Note_on_c, 0, 62, 0
3, 37934, Note_on_c, 0, 55, 0
3, 38174, Note_on_c, 0, 43, 22
3, 38174, Note_on_c, 0, 50, 26
3, 38654, Note_on_c, 0, 50, 0
3, 38654, Note_on_c, 0, 43, 0
3, 38894, Note_on_c, 0, 55, 22
3, 38894, Note_on_c, 0, 62, 26
3, 39374, Note_on_c, 0, 62, 0
3, 39374, Note_on_c, 0, 55, 0
3, 39614, Note_on_c, 0, 43, 22
3, 39614, Note_on_c, 0, 50, 26
3, 40094, Note_on_c, 0, 50, 0
3, 40094, Note_on_c, 0, 43, 0
3, 40334, Note_on_c, 0, 55, 22
3, 40334, Note_on_c, 0, 62, 26
3, 40814, Note_on_c, 0, 62, 0
3, 40814, Note_on_c, 0, 55, 0
3, 41054, Note_on_c, 0, 43, 22
3, 41054, Note_on_c, 0, 50, 26
3, 41534, Note_on_c, 0, 50, 0
3, 41534, Note_on_c, 0, 43, 0
3, 41760, Note_on_c, 0, 55, 26
3, 41760, Note_on_c, 0, 48, 22
3, 42240, Note_on_c, 0, 48, 0
3, 42240, Note_on_c, 0, 55, 0
3, 42480, Note_on_c, 0, 43, 26
3, 42480, Note_on_c, 0, 36, 22
3, 42960, Note_on_c, 0, 36, 0
3, 42960, Note_on_c, 0, 43, 0
3, 43200, Note_on_c, 0, 60, 25
3, 43200, Note_on_c, 0, 53, 21
3, 43680, Note_on_c, 0, 53, 0
3, 43680, Note_on_c, 0, 60, 0
3, 43920, Note_on_c, 0, 48, 24
3, 43920, Note_on_c, 0, 41, 20
3, 44400, Note_on_c, 0, 41, 0
3, 44400, Note_on_c, 0, 48, 0
3, 44640, Note_on_c, 0, 53, 23
3, 44640, Note_on_c, 0, 47, 19
3, 45120, Note_on_c, 0, 47, 0
3, 45120, Note_on_c, 0, 53, 0
3, 45360, Note_on_c, 0, 41, 22
3, 45360, Note_on_c, 0, 35, 18
3, 45840, Note_on_c, 0, 35, 0
3, 45840, Note_on_c, 0, 41, 0
3, 46080, Note_on_c, 0, 59, 21
3, 46080, Note_on_c, 0, 52, 18
3, 46560, Note_on_c, 0, 52, 0
3, 46560, Note_on_c, 0, 59, 0
3, 46800, Note_on_c, 0, 47, 20
3, 46800, Note_on_c, 0, 40, 17
3, 47280, Note_on_c, 0, 40, 0
3, 47280, Note_on_c, 0, 47, 0
3, 47520, Note_on_c, 0, 52, 19
3, 47520, Note_on_c, 0, 45, 16
3, 48000, Note_on_c, 0, 45, 0
3, 48000, Note_on_c, 0, 52, 0
3, 48240, Note_on_c, 0, 40, 18
3, 48240, Note_on_c, 0, 33, 15
3, 48720, Note_on_c, 0, 33, 0
3, 48720, Note_on_c, 0, 40, 0
3, 48960, Note_on_c, 0, 57, 16
3, 48960, Note_on_c, 0, 50, 14
3, 49440, Note_on_c, 0, 50, 0
3, 49440, Note_on_c, 0, 57, 0
3, 49680, Note_on_c, 0, 45, 16
3, 49680, Note_on_c, 0, 38, 14
3, 50160, Note_on_c, 0, 38, 0
3, 50160, Note_on_c, 0, 45, 0
3, 50400, Note_on_c, 0, 57, 16
3, 50400, Note_on_c, 0, 50, 14
3, 50880, Note_on_c, 0, 50, 0
3, 50880, Note_on_c, 0, 57, 0
3, 51120, Note_on_c, 0, 45, 16
3, 51120, Note_on_c, 0, 38, 14
3, 51600, Note_on_c, 0, 38, 0
3, 51600, Note_on_c, 0, 45, 0
3, 51840, Note_on_c, 0, 50, 16
3, 51840, Note_on_c, 0, 43, 14
3, 52320, Note_on_c, 0, 43, 0
3, 52320, Note_on_c, 0, 50, 0
3, 52560, Note_on_c, 0, 38, 16
3, 52560, Note_on_c, 0, 31, 14
3, 52800, Note_on_c, 0, 31, 0
3, 52800, Note_on_c, 0, 38, 0
3, 53280, Note_on_c, 0, 50, 16
3, 53280, Note_on_c, 0, 43, 14
3, 53520, Note_on_c, 0, 43, 0
3, 53520, Note_on_c, 0, 50, 0
3, 54000, Note_on_c, 0, 38, 16
3, 54000, Note_on_c, 0, 31, 14
3, 54240, Note_on_c, 0, 31, 0
3, 54240, Note_on_c, 0, 38, 0
3, 54720, Note_on_c, 0, 50, 16
3, 54720, Note_on_c, 0, 43, 14
3, 54960, Note_on_c, 0, 43, 0
3, 54960, Note_on_c, 0, 50, 0
3, 55440, Note_on_c, 0, 62, 16
3, 55440, Note_on_c, 0, 55, 14
3, 55680, Note_on_c, 0, 55, 0
3, 55680, Note_on_c, 0, 62, 0
3, 56880, Note_on_c, 0, 86, 16
3, 56880, Note_on_c, 0, 79, 14
3, 57120, Note_on_c, 0, 79, 0
3, 57120, Note_on_c, 0, 86, 0
3, 57600, Note_on_c, 0, 79, 26
3, 57720, Note_on_c, 0, 79, 0
3, 58320, Note_on_c, 0, 79, 21
3, 58440, Note_on_c, 0, 79, 0
3, 59040, Note_on_c, 0, 79, 24
3, 59160, Note_on_c, 0, 79, 0
3, 59760, Note_on_c, 0, 79, 24
3, 59880, Note_on_c, 0, 79, 0
3, 60480, Note_on_c, 0, 91, 26
3, 60600, Note_on_c, 0, 91, 0
3, 61200, Note_on_c, 0, 91, 21
3, 61320, Note_on_c, 0, 91, 0
3, 61920, Note_on_c, 0, 91, 24
3, 62040, Note_on_c, 0, 91, 0
3, 62640, Note_on_c, 0, 91, 24
3, 62760, Note_on_c, 0, 91, 0
3, 62880, Note_on_c, 0, 84, 35
3, 63120, Note_on_c, 0, 84, 0
3, 63120, Note_on_c, 0, 86, 31
3, 63360, Note_on_c, 0, 86, 0
3, 63360, Note_on_c, 0, 88, 39
3, 63600, Note_on_c, 0, 88, 0
3, 63600, Note_on_c, 0, 84, 33
3, 63840, Note_on_c, 0, 84, 0
3, 63840, Note_on_c, 0, 88, 33
3, 64200, Note_on_c, 0, 88, 0
3, 64200, Note_on_c, 0, 86, 29
3, 64260, Note_on_c, 0, 86, 0
3, 64260, Note_on_c, 0, 88, 29
3, 64320, Note_on_c, 0, 88, 0
3, 64320, Note_on_c, 0, 86, 37
3, 64560, Note_on_c, 0, 86, 0
3, 64560, Note_on_c, 0, 83, 33
3, 64800, Note_on_c, 0, 83, 0
3, 64800, Note_on_c, 0, 86, 35
3, 64920, Note_on_c, 0, 86, 0
3, 65280, Note_on_c, 0, 84, 42
3, 65760, Note_on_c, 0, 84, 0
3, 65760, Note_on_c, 0, 81, 35
3, 66000, Note_on_c, 0, 81, 0
3, 66000, Note_on_c, 0, 83, 31
3, 66240, Note_on_c, 0, 83, 0
3, 66240, Note_on_c, 0, 84, 39
3, 66480, Note_on_c, 0, 84, 0
3, 66480, Note_on_c, 0, 81, 33
3, 66720, Note_on_c, 0, 81, 0
3, 66720, Note_on_c, 0, 84, 33
3, 67080, Note_on_c, 0, 84, 0
3, 67080, Note_on_c, 0, 83, 29
3, 67140, Note_on_c, 0, 83, 0
3, 67140, Note_on_c, 0, 84, 29
3, 67200, Note_on_c, 0, 84, 0
3, 67200, Note_on_c, 0, 83, 37
3, 67440, Note_on_c, 0, 83, 0
3, 67440, Note_on_c, 0, 79, 33
3, 67680, Note_on_c, 0, 79, 0
3, 67680, Note_on_c, 0, 83, 35
3, 67800, Note_on_c, 0, 83, 0
3, 68160, Note_on_c, 0, 81, 42
3, 68640, Note_on_c, 0, 81, 0
3, 68640, Note_on_c, 0, 77, 35
3, 68880, Note_on_c, 0, 77, 0
3, 68880, Note_on_c, 0, 79, 31
3, 69120, Note_on_c, 0, 79, 0
3, 69120, Note_on_c, 0, 81, 39
3, 69360, Note_on_c, 0, 81, 0
3, 69360, Note_on_c, 0, 77, 33
3, 69600, Note_on_c, 0, 77, 0
3, 69600, Note_on_c, 0, 81, 33
3, 69960, Note_on_c, 0, 81, 0
3, 69960, Note_on_c, 0, 79, 29
3, 70020, Note_on_c, 0, 79, 0
3, 70020, Note_on_c, 0, 81, 29
3, 70080, Note_on_c, 0, 81, 0
3, 70080, Note_on_c, 0, 79, 37
3, 70320, Note_on_c, 0, 79, 0
3, 70320, Note_on_c, 0, 76, 33
3, 70560, Note_on_c, 0, 76, 0
3, 70560, Note_on_c, 0, 79, 39
3, 70800, Note_on_c, 0, 79, 0
3, 70800, Note_on_c, 0, 76, 33
3, 71040, Note_on_c, 0, 76, 0
3, 71040, Note_on_c, 0, 79, 33
3, 71400, Note_on_c, 0, 79, 0
3, 71400, Note_on_c, 0, 77, 29
3, 71460, Note_on_c, 0, 77, 0
3, 71460, Note_on_c, 0, 79, 29
3, 71520, Note_on_c, 0, 79, 0
3, 71520, Note_on_c, 0, 77, 37
3, 71760, Note_on_c, 0, 77, 0
3, 71760, Note_on_c, 0, 74, 33
3, 72000, Note_on_c, 0, 74, 0
3, 72000, Note_on_c, 0, 77, 39
3, 72240, Note_on_c, 0, 77, 0
3, 72240, Note_on_c, 0, 74, 33
3, 72480, Note_on_c, 0, 74, 0
3, 72480, Note_on_c, 0, 77, 33
3, 72840, Note_on_c, 0, 77, 0
3, 72840, Note_on_c, 0, 76, 29
3, 72900, Note_on_c, 0, 76, 0
3, 72900, Note_on_c, 0, 77, 29
3, 72960, Note_on_c, 0, 77, 0
3, 72960, Note_on_c, 0, 76, 37
3, 73200, Note_on_c, 0, 76, 0
3, 73200, Note_on_c, 0, 72, 33
3, 73440, Note_on_c, 0, 72, 0
3, 73440, Note_on_c, 0, 76, 35
3, 73560, Note_on_c, 0, 76, 0
3, 73920, Note_on_c, 0, 74, 42
3, 74400, Note_on_c, 0, 74, 0
3, 74400, Note_on_c, 0, 72, 37
3, 74640, Note_on_c, 0, 72, 0
3, 74640, Note_on_c, 0, 74, 33
3, 74880, Note_on_c, 0, 74, 0
3, 74880, Note_on_c, 0, 76, 41
3, 75120, Note_on_c, 0, 76, 0
3, 75120, Note_on_c, 0, 72, 34
3, 75360, Note_on_c, 0, 72, 0
3, 75360, Note_on_c, 0, 76, 34
3, 75720, Note_on_c, 0, 76, 0
3, 75720, Note_on_c, 0, 74, 31
3, 75780, Note_on_c, 0, 74, 0
3, 75780, Note_on_c, 0, 76, 31
3, 75840, Note_on_c, 0, 76, 0
3, 75840, Note_on_c, 0, 74, 39
3, 76080, Note_on_c, 0, 74, 0
3, 76080, Note_on_c, 0, 71, 34
3, 76320, Note_on_c, 0, 71, 0
3, 76320, Note_on_c, 0, 74, 38
3, 76440, Note_on_c, 0, 74, 0
3, 76800, Note_on_c, 0, 72, 46
3, 77280, Note_on_c, 0, 72, 0
3, 77280, Note_on_c, 0, 69, 42
3, 77520, Note_on_c, 0, 69, 0
3, 77520, Note_on_c, 0, 71, 37
3, 77760, Note_on_c, 0, 71, 0
3, 77760, Note_on_c, 0, 72, 44
3, 78000, Note_on_c, 0, 72, 0
3, 78000, Note_on_c, 0, 69, 37
3, 78240, Note_on_c, 0, 69, 0
3, 78240, Note_on_c, 0, 72, 37
3, 78600, Note_on_c, 0, 72, 0
3, 78600, Note_on_c, 0, 71, 34
3, 78660, Note_on_c, 0, 71, 0
3, 78660, Note_on_c, 0, 72, 34
3, 78720, Note_on_c, 0, 72, 0
3, 78720, Note_on_c, 0, 71, 43
3, 78960, Note_on_c, 0, 71, 0
3, 78960, Note_on_c, 0, 67, 39
3, 79200, Note_on_c, 0, 67, 0
3, 79200, Note_on_c, 0, 71, 41
3, 79320, Note_on_c, 0, 71, 0
3, 79680, Note_on_c, 0, 69, 51
3, 80160, Note_on_c, 0, 69, 0
3, 80160, Note_on_c, 0, 65, 45
3, 80400, Note_on_c, 0, 65, 0
3, 80400, Note_on_c, 0, 67, 40
3, 80640, Note_on_c, 0, 67, 0
3, 80640, Note_on_c, 0, 69, 49
3, 80880, Note_on_c, 0, 69, 0
3, 80880, Note_on_c, 0, 65, 40
3, 81120, Note_on_c, 0, 65, 0
3, 81120, Note_on_c, 0, 69, 41
3, 81480, Note_on_c, 0, 69, 0
3, 81480, Note_on_c, 0, 67, 37
3, 81540, Note_on_c, 0, 67, 0
3, 81540, Note_on_c, 0, 69, 37
3, 81600, Note_on_c, 0, 69, 0
3, 81600, Note_on_c, 0, 67, 48
3, 81840, Note_on_c, 0, 67, 0
3, 81840, Note_on_c, 0, 64, 42
3, 82080, Note_on_c, 0, 64, 0
3, 82080, Note_on_c, 0, 67, 52
3, 82320, Note_on_c, 0, 67, 0
3, 82320, Note_on_c, 0, 64, 44
3, 82560, Note_on_c, 0, 64, 0
3, 82560, Note_on_c, 0, 67, 44
3, 82920, Note_on_c, 0, 67, 0
3, 82920, Note_on_c, 0, 65, 41
3, 82980, Note_on_c, 0, 65, 0
3, 82980, Note_on_c, 0, 67, 41
3, 83040, Note_on_c, 0, 67, 0
3, 83040, Note_on_c, 0, 65, 53
3, 83280, Note_on_c, 0, 65, 0
3, 83280, Note_on_c, 0, 62, 47
3, 83520, Note_on_c, 0, 62, 0
3, 83520, Note_on_c, 0, 65, 58
3, 83760, Note_on_c, 0, 65, 0
3, 83760, Note_on_c, 0, 62, 50
3, 84000, Note_on_c, 0, 62, 0
3, 84000, Note_on_c, 0, 65, 50
3, 84360, Note_on_c, 0, 65, 0
3, 84360, Note_on_c, 0, 64, 47
3, 84420, Note_on_c, 0, 64, 0
3, 84420, Note_on_c, 0, 65, 47
3, 84480, Note_on_c, 0, 65, 0
3, 84480, Note_on_c, 0, 64, 59
3, 84720, Note_on_c, 0, 64, 0
3, 84720, Note_on_c, 0, 60, 54
3, 84960, Note_on_c, 0, 60, 0
3, 84960, Note_on_c, 0, 64, 58
3, 85080, Note_on_c, 0, 64, 0
3, 85440, Note_on_c, 0, 62, 75
3, 85920, Note_on_c, 0, 62, 0
3, 85920, Note_on_c, 0, 48, 62
3, 85920, Note_on_c, 0, 60, 74
3, 86004, Note_on_c, 0, 60, 0
3, 86004, Note_on_c, 0, 48, 0
3, 86160, Note_on_c, 0, 50, 56
3, 86160, Note_on_c, 0, 62, 66
3, 86244, Note_on_c, 0, 62, 0
3, 86244, Note_on_c, 0, 50, 0
3, 86400, Note_on_c, 0, 52, 67
3, 86400, Note_on_c, 0, 64, 79
3, 86484, Note_on_c, 0, 64, 0
3, 86484, Note_on_c, 0, 52, 0
3, 86640, Note_on_c, 0, 48, 56
3, 86640, Note_on_c, 0, 60, 66
3, 86724, Note_on_c, 0, 60, 0
3, 86724, Note_on_c, 0, 48, 0
3, 86880, Note_on_c, 0, 52, 56
3, 86880, Note_on_c, 0, 64, 66
3, 87360, Note_on_c, 0, 64, 0
3, 87360, Note_on_c, 0, 52, 0
3, 87360, Note_on_c, 0, 50, 62
3, 87360, Note_on_c, 0, 62, 74
3, 87444, Note_on_c, 0, 62, 0
3, 87444, Note_on_c, 0, 50, 0
3, 87600, Note_on_c, 0, 47, 56
3, 87600, Note_on_c, 0, 59, 66
3, 87684, Note_on_c, 0, 59, 0
3, 87684, Note_on_c, 0, 47, 0
3, 87840, Note_on_c, 0, 50, 59
3, 87840, Note_on_c, 0, 62, 70
3, 87960, Note_on_c, 0, 62, 0
3, 87960, Note_on_c, 0, 50, 0
3, 88320, Note_on_c, 0, 48, 72
3, 88320, Note_on_c, 0, 60, 85
3, 88800, Note_on_c, 0, 60, 0
3, 88800, Note_on_c, 0, 48, 0
3, 88800, Note_on_c, 0, 45, 62
3, 88800, Note_on_c, 0, 57, 74
3, 88884, Note_on_c, 0, 57, 0
3, 88884, Note_on_c, 0, 45, 0
3, 89040, Note_on_c, 0, 47, 56
3, 89040, Note_on_c, 0, 59, 66
3, 89124, Note_on_c, 0, 59, 0
3, 89124, Note_on_c, 0, 47, 0
3, 89280, Note_on_c, 0, 48, 67
3, 89280, Note_on_c, 0, 60, 79
3, 89364, Note_on_c, 0, 60, 0
3, 89364, Note_on_c, 0, 48, 0
3, 89520, Note_on_c, 0, 45, 56
3, 89520, Note_on_c, 0, 57, 66
3, 89604, Note_on_c, 0, 57, 0
3, 89604, Note_on_c, 0, 45, 0
3, 89760, Note_on_c, 0, 48, 56
3, 89760, Note_on_c, 0, 60, 66
3, 90240, Note_on_c, 0, 60, 0
3, 90240, Note_on_c, 0, 48, 0
3, 90240, Note_on_c, 0, 47, 62
3, 90240, Note_on_c, 0, 59, 74
3, 90324, Note_on_c, 0, 59, 0
3, 90324, Note_on_c, 0, 47, 0
3, 90480, Note_on_c, 0, 43, 56
3, 90480, Note_on_c, 0, 55, 66
3, 90564, Note_on_c, 0, 55, 0
3, 90564, Note_on_c, 0, 43, 0
3, 90720, Note_on_c, 0, 47, 59
3, 90720, Note_on_c, 0, 59, 70
3, 90840, Note_on_c, 0, 59, 0
3, 90840, Note_on_c, 0, 47, 0
3, 91200, Note_on_c, 0, 45, 69
3, 91200, Note_on_c, 0, 57, 82
3, 91680, Note_on_c, 0, 57, 0
3, 91680, Note_on_c, 0, 45, 0
3, 91680, Note_on_c, 0, 41, 62
3, 91680, Note_on_c, 0, 53, 74
3, 91764, Note_on_c, 0, 53, 0
3, 91764, Note_on_c, 0, 41, 0
3, 91920, Note_on_c, 0, 43, 56
3, 91920, Note_on_c, 0, 55, 66
3, 92004, Note_on_c, 0, 55, 0
3, 92004, Note_on_c, 0, 43, 0
3, 92160, Note_on_c, 0, 45, 67
3, 92160, Note_on_c, 0, 57, 79
3, 92244, Note_on_c, 0, 57, 0
3, 92244, Note_on_c, 0, 45, 0
3, 92400, Note_on_c, 0, 41, 56
3, 92400, Note_on_c, 0, 53, 66
3, 92484, Note_on_c, 0, 53, 0
3, 92484, Note_on_c, 0, 41, 0
3, 92640, Note_on_c, 0, 45, 56
3, 92640, Note_on_c, 0, 57, 66
3, 93120, Note_on_c, 0, 57, 0
3, 93120, Note_on_c, 0, 45, 0
3, 93120, Note_on_c, 0, 43, 62
3, 93120, Note_on_c, 0, 55, 74
3, 93204, Note_on_c, 0, 55, 0
3, 93204, Note_on_c, 0, 43, 0
3, 93360, Note_on_c, 0, 40, 56
3, 93360, Note_on_c, 0, 52, 66
3, 93444, Note_on_c, 0, 52, 0
3, 93444, Note_on_c, 0, 40, 0
3, 93600, Note_on_c, 0, 43, 67
3, 93600, Note_on_c, 0, 55, 79
3, 93684, Note_on_c, 0, 55, 0
3, 93684, Note_on_c, 0, 43, 0
3, 93840, Note_on_c, 0, 40, 56
3, 93840, Note_on_c, 0, 52, 66
3, 93924, Note_on_c, 0, 52, 0
3, 93924, Note_on_c, 0, 40, 0
3, 94080, Note_on_c, 0, 43, 56
3, 94080, Note_on_c, 0, 55, 66
3, 94560, Note_on_c, 0, 55, 0
3, 94560, Note_on_c, 0, 43, 0
3, 94560, Note_on_c, 0, 41, 62
3, 94560, Note_on_c, 0, 53, 74
3, 94644, Note_on_c, 0, 53, 0
3, 94644, Note_on_c, 0, 41, 0
3, 94800, Note_on_c, 0, 38, 56
3, 94800, Note_on_c, 0, 50, 66
3, 94884, Note_on_c, 0, 50, 0
3, 94884, Note_on_c, 0, 38, 0
3, 95040, Note_on_c, 0, 41, 67
3, 95040, Note_on_c, 0, 53, 79
3, 95124, Note_on_c, 0, 53, 0
3, 95124, Note_on_c, 0, 41, 0
3, 95280, Note_on_c, 0, 38, 56
3, 95280, Note_on_c, 0, 50, 66
3, 95364, Note_on_c, 0, 50, 0
3, 95364, Note_on_c, 0, 38, 0
3, 95520, Note_on_c, 0, 41, 56
3, 95520, Note_on_c, 0, 53, 66
3, 96000, Note_on_c, 0, 53, 0
3, 96000, Note_on_c, 0, 41, 0
3, 96000, Note_on_c, 0, 40, 62
3, 96000, Note_on_c, 0, 52, 74
3, 96084, Note_on_c, 0, 52, 0
3, 96084, Note_on_c, 0, 40, 0
3, 96240, Note_on_c, 0, 36, 56
3, 96240, Note_on_c, 0, 48, 66
3, 96324, Note_on_c, 0, 48, 0
3, 96324, Note_on_c, 0, 36, 0
3, 96480, Note_on_c, 0, 40, 59
3, 96480, Note_on_c, 0, 52, 70
3, 96600, Note_on_c, 0, 52, 0
3, 96600, Note_on_c, 0, 40, 0
3, 96960, Note_on_c, 0, 38, 72
3, 96960, Note_on_c, 0, 50, 85
3, 97440, Note_on_c, 0, 50, 0
3, 97440, Note_on_c, 0, 38, 0
3, 97920, Note_on_c, 0, 32, 49
3, 97920, Note_on_c, 0, 39, 49
3, 97920, Note_on_c, 0, 44, 62
3, 98160, Note_on_c, 0, 44, 0
3, 98160, Note_on_c, 0, 39, 0
3, 98160, Note_on_c, 0, 32, 0
3, 98640, Note_on_c, 0, 41, 55
3, 98640, Note_on_c, 0, 32, 44
3, 98640, Note_on_c, 0, 29, 44
3, 98880, Note_on_c, 0, 29, 0
3, 98880, Note_on_c, 0, 32, 0
3, 98880, Note_on_c, 0, 41, 0
3, 99360, Note_on_c, 0, 32, 49
3, 99360, Note_on_c, 0, 39, 49
3, 99360, Note_on_c, 0, 44, 62
3, 99600, Note_on_c, 0, 44, 0
3, 99600, Note_on_c, 0, 39, 0
3, 99600, Note_on_c, 0, 32, 0
3, 100080, Note_on_c, 0, 41, 57
3, 100080, Note_on_c, 0, 32, 45
3, 100080, Note_on_c, 0, 29, 45
3, 100320, Note_on_c, 0, 29, 0
3, 100320, Note_on_c, 0, 32, 0
3, 100320, Note_on_c, 0, 41, 0
3, 100800, Note_on_c, 0, 32, 49
3, 100800, Note_on_c, 0, 39, 49
3, 100800, Note_on_c, 0, 44, 62
3, 101040, Note_on_c, 0, 44, 0
3, 101040, Note_on_c, 0, 39, 0
3, 101040, Note_on_c, 0, 32, 0
3, 101520, Note_on_c, 0, 41, 55
3, 101520, Note_on_c, 0, 32, 44
3, 101520, Note_on_c, 0, 29, 44
3, 101760, Note_on_c, 0, 29, 0
3, 101760, Note_on_c, 0, 32, 0
3, 101760, Note_on_c, 0, 41, 0
3, 102240, Note_on_c, 0, 32, 49
3, 102240, Note_on_c, 0, 39, 49
3, 102240, Note_on_c, 0, 44, 62
3, 102480, Note_on_c, 0, 44, 0
3, 102480, Note_on_c, 0, 39, 0
3, 102480, Note_on_c, 0, 32, 0
3, 102960, Note_on_c, 0, 41, 57
3, 102960, Note_on_c, 0, 32, 45
3, 102960, Note_on_c, 0, 29, 45
3, 103200, Note_on_c, 0, 29, 0
3, 103200, Note_on_c, 0, 32, 0
3, 103200, Note_on_c, 0, 41, 0
3, 103680, Note_on_c, 0, 36, 53
3, 103680, Note_on_c, 0, 43, 53
3, 103680, Note_on_c, 0, 48, 68
3, 103920, Note_on_c, 0, 48, 0
3, 103920, Note_on_c, 0, 43, 0
3, 103920, Note_on_c, 0, 36, 0
3, 104400, Note_on_c, 0, 41, 60
3, 104400, Note_on_c, 0, 36, 48
3, 104400, Note_on_c, 0, 29, 48
3, 104640, Note_on_c, 0, 29, 0
3, 104640, Note_on_c, 0, 36, 0
3, 104640, Note_on_c, 0, 41, 0
3, 105120, Note_on_c, 0, 36, 53
3, 105120, Note_on_c, 0, 43, 53
3, 105120, Note_on_c, 0, 48, 68
3, 105360, Note_on_c, 0, 48, 0
3, 105360, Note_on_c, 0, 43, 0
3, 105360, Note_on_c, 0, 36, 0
3, 105840, Note_on_c, 0, 41, 62
3, 105840, Note_on_c, 0, 36, 49
3, 105840, Note_on_c, 0, 29, 49
3, 106080, Note_on_c, 0, 29, 0
3, 106080, Note_on_c, 0, 36, 0
3, 106080, Note_on_c, 0, 41, 0
3, 106560, Note_on_c, 0, 36, 53
3, 106560, Note_on_c, 0, 43, 53
3, 106560, Note_on_c, 0, 48, 68
3, 106800, Note_on_c, 0, 48, 0
3, 106800, Note_on_c, 0, 43, 0
3, 106800, Note_on_c, 0, 36, 0
3, 107280, Note_on_c, 0, 41, 60
3, 107280, Note_on_c, 0, 36, 48
3, 107280, Note_on_c, 0, 29, 48
3, 107520, Note_on_c, 0, 29, 0
3, 107520, Note_on_c, 0, 36, 0
3, 107520, Note_on_c, 0, 41, 0
3, 108000, Note_on_c, 0, 36, 53
3, 108000, Note_on_c, 0, 43, 53
3, 108000, Note_on_c, 0, 48, 68
3, 108240, Note_on_c, 0, 48, 0
3, 108240, Note_on_c, 0, 43, 0
3, 108240, Note_on_c, 0, 36, 0
3, 108720, Note_on_c, 0, 41, 62
3, 108720, Note_on_c, 0, 36, 49
3, 108720, Note_on_c, 0, 29, 49
3, 108960, Note_on_c, 0, 29, 0
3, 108960, Note_on_c, 0, 36, 0
3, 108960, Note_on_c, 0, 41, 0
3, 109440, Note_on_c, 0, 36, 45
3, 109440, Note_on_c, 0, 43, 45
3, 109440, Note_on_c, 0, 48, 57
3, 109680, Note_on_c, 0, 48, 0
3, 109680, Note_on_c, 0, 43, 0
3, 109680, Note_on_c, 0, 36, 0
3, 110160, Note_on_c, 0, 41, 52
3, 110160, Note_on_c, 0, 36, 41
3, 110160, Note_on_c, 0, 29, 41
3, 110400, Note_on_c, 0, 29, 0
3, 110400, Note_on_c, 0, 36, 0
3, 110400, Note_on_c, 0, 41, 0
3, 110880, Note_on_c, 0, 36, 37
3, 110880, Note_on_c, 0, 43, 37
3, 110880, Note_on_c, 0, 48, 47
3, 111120, Note_on_c, 0, 48, 0
3, 111120, Note_on_c, 0, 43, 0
3, 111120, Note_on_c, 0, 36, 0
3, 111600, Note_on_c, 0, 41, 43
3, 111600, Note_on_c, 0, 36, 34
3, 111600, Note_on_c, 0, 29, 34
3, 111840, Note_on_c, 0, 29, 0
3, 111840, Note_on_c, 0, 36, 0
3, 111840, Note_on_c, 0, 41, 0
3, 112320, Note_on_c, 0, 36, 26
3, 112320, Note_on_c, 0, 43, 26
3, 112320, Note_on_c, 0, 48, 34
3, 112560, Note_on_c, 0, 48, 0
3, 112560, Note_on_c, 0, 43, 0
3, 112560, Note_on_c, 0, 36, 0
3, 113040, Note_on_c, 0, 41, 31
3, 113040, Note_on_c, 0, 36, 24
3, 113040, Note_on_c, 0, 29, 24
3, 113280, Note_on_c, 0, 29, 0
3, 113280, Note_on_c, 0, 36, 0
3, 113280, Note_on_c, 0, 41, 0
3, 113760, Note_on_c, 0, 36, 40
3, 113760, Note_on_c, 0, 48, 35
3, 114480, Note_on_c, 0, 48, 0
3, 114480, Note_on_c, 0, 47, 32
3, 115200, Note_on_c, 0, 47, 0
3, 115200, Note_on_c, 0, 45, 33
3, 115920, Note_on_c, 0, 45, 0
3, 115920, Note_on_c, 0, 47, 27
3, 116640, Note_on_c, 0, 47, 0
3, 116640, Note_on_c, 0, 36, 0
3, 116640, Note_on_c, 0, 36, 40
3, 116640, Note_on_c, 0, 48, 31
3, 117360, Note_on_c, 0, 48, 0
3, 117360, Note_on_c, 0, 47, 27
3, 118080, Note_on_c, 0, 47, 0
3, 118080, Note_on_c, 0, 45, 33
3, 118800, Note_on_c, 0, 45, 0
3, 118800, Note_on_c, 0, 47, 27
3, 119520, Note_on_c, 0, 47, 0
3, 119520, Note_on_c, 0, 36, 0
3, 119520, Note_on_c, 0, 36, 40
3, 119520, Note_on_c, 0, 48, 31
3, 120480, Note_on_c, 0, 48, 0
3, 120480, Note_on_c, 0, 36, 0
3, 120480, Note_on_c, 0, 62, 79
3, 120600, Note_on_c, 0, 62, 0
3, 120720, Note_on_c, 0, 64, 73
3, 120840, Note_on_c, 0, 64, 0
3, 120960, Note_on_c, 0, 65, 89
3, 121080, Note_on_c, 0, 65, 0
3, 121200, Note_on_c, 0, 62, 74
3, 121320, Note_on_c, 0, 62, 0
3, 121440, Note_on_c, 0, 65, 74
3, 121800, Note_on_c, 0, 65, 0
3, 121800, Note_on_c, 0, 64, 67
3, 121860, Note_on_c, 0, 64, 0
3, 121860, Note_on_c, 0, 65, 67
3, 121920, Note_on_c, 0, 65, 0
3, 121920, Note_on_c, 0, 64, 84
3, 122040, Note_on_c, 0, 64, 0
3, 122160, Note_on_c, 0, 63, 74
3, 122280, Note_on_c, 0, 63, 0
3, 122400, Note_on_c, 0, 64, 74
3, 123120, Note_on_c, 0, 64, 0
3, 123120, Note_on_c, 0, 59, 54
3, 123120, Note_on_c, 0, 52, 50
3, 123360, Note_on_c, 0, 52, 0
3, 123360, Note_on_c, 0, 59, 0
3, 123840, Note_on_c, 0, 47, 28
3, 123840, Note_on_c, 0, 56, 33
3, 124560, Note_on_c, 0, 56, 0
3, 124560, Note_on_c, 0, 57, 27
3, 125280, Note_on_c, 0, 57, 0
3, 125280, Note_on_c, 0, 47, 0
3, 125280, Note_on_c, 0, 52, 22
3, 125280, Note_on_c, 0, 59, 26
3, 126000, Note_on_c, 0, 59, 0
3, 126000, Note_on_c, 0, 52, 0
3, 126000, Note_on_c, 0, 40, 22
3, 126000, Note_on_c, 0, 47, 26
3, 126240, Note_on_c, 0, 47, 0
3, 126240, Note_on_c, 0, 40, 0
3, 126240, Note_on_c, 0, 65, 79
3, 126360, Note_on_c, 0, 65, 0
3, 126480, Note_on_c, 0, 67, 73
3, 126600, Note_on_c, 0, 67, 0
3, 126720, Note_on_c, 0, 68, 89
3, 126840, Note_on_c, 0, 68, 0
3, 126960, Note_on_c, 0, 65, 74
3, 127080, Note_on_c, 0, 65, 0
3, 127200, Note_on_c, 0, 68, 74
3, 127560, Note_on_c, 0, 68, 0
3, 127560, Note_on_c, 0, 67, 67
3, 127620, Note_on_c, 0, 67, 0
3, 127620, Note_on_c, 0, 68, 67
3, 127680, Note_on_c, 0, 68, 0
3, 127680, Note_on_c, 0, 67, 84
3, 127800, Note_on_c, 0, 67, 0
3, 127920, Note_on_c, 0, 66, 74
3, 128040, Note_on_c, 0, 66, 0
3, 128160, Note_on_c, 0, 67, 74
3, 128880, Note_on_c, 0, 67, 0
3, 128880, Note_on_c, 0, 62, 54
3, 128880, Note_on_c, 0, 55, 50
3, 129120, Note_on_c, 0, 55, 0
3, 129120, Note_on_c, 0, 62, 0
3, 129600, Note_on_c, 0, 50, 28
3, 129600, Note_on_c, 0, 59, 33
3, 130320, Note_on_c, 0, 59, 0
3, 130320, Note_on_c, 0, 60, 27
3, 131040, Note_on_c, 0, 60, 0
3, 131040, Note_on_c, 0, 50, 0
3, 131040, Note_on_c, 0, 55, 22
3, 131040, Note_on_c, 0, 62, 26
3, 131760, Note_on_c, 0, 62, 0
3, 131760, Note_on_c, 0, 55, 0
3, 131760, Note_on_c, 0, 43, 22
3, 131760, Note_on_c, 0, 50, 26
3, 132240, Note_on_c, 0, 50, 0
3, 132240, Note_on_c, 0, 43, 0
3, 132494, Note_on_c, 0, 55, 22
3, 132494, Note_on_c, 0, 62, 26
3, 133214, Note_on_c, 0, 62, 0
3, 133214, Note_on_c, 0, 55, 0
3, 133214, Note_on_c, 0, 43, 22
3, 133214, Note_on_c, 0, 50, 26
3, 133694, Note_on_c, 0, 50, 0
3, 133694, Note_on_c, 0, 43, 0
3, 133934, Note_on_c, 0, 55, 22
3, 133934, Note_on_c, 0, 62, 26
3, 134414, Note_on_c, 0, 62, 0
3, 134414, Note_on_c, 0, 55, 0
3, 134654, Note_on_c, 0, 43, 22
3, 134654, Note_on_c, 0, 50, 26
3, 135134, Note_on_c, 0, 50, 0
3, 135134, Note_on_c, 0, 43, 0
3, 135374, Note_on_c, 0, 55, 22
3, 135374, Note_on_c, 0, 62, 26
3, 135854, Note_on_c, 0, 62, 0
3, 135854, Note_on_c, 0, 55, 0
3, 136094, Note_on_c, 0, 43, 22
3, 136094, Note_on_c, 0, 50, 26
3, 136574, Note_on_c, 0, 50, 0
3, 136574, Note_on_c, 0, 43, 0
3, 136814, Note_on_c, 0, 55, 22
3, 136814, Note_on_c, 0, 62, 26
3, 137294, Note_on_c, 0, 62, 0
3, 137294, Note_on_c, 0, 55, 0
3, 137534, Note_on_c, 0, 43, 22
3, 137534, Note_on_c, 0, 50, 26
3, 138014, Note_on_c, 0, 50, 0
3, 138014, Note_on_c, 0, 43, 0
3, 138240, Note_on_c, 0, 55, 26
3, 138240, Note_on_c, 0, 48, 22
3, 138720, Note_on_c, 0, 48, 0
3, 138720, Note_on_c, 0, 55, 0
3, 138960, Note_on_c, 0, 43, 26
3, 138960, Note_on_c, 0, 36, 22
3, 139440, Note_on_c, 0, 36, 0
3, 139440, Note_on_c, 0, 43, 0
3, 139680, Note_on_c, 0, 60, 25
3, 139680, Note_on_c, 0, 53, 21
3, 140160, Note_on_c, 0, 53, 0
3, 140160, Note_on_c, 0, 60, 0
3, 140400, Note_on_c, 0, 48, 24
3, 140400, Note_on_c, 0, 41, 20
3, 140880, Note_on_c, 0, 41, 0
3, 140880, Note_on_c, 0, 48, 0
3, 141120, Note_on_c, 0, 53, 23
3, 141120, Note_on_c, 0, 47, 19
3, 141600, Note_on_c, 0, 47, 0
3, 141600, Note_on_c, 0, 53, 0
3, 141840, Note_on_c, 0, 41, 22
3, 141840, Note_on_c, 0, 35, 18
3, 142320, Note_on_c, 0, 35, 0
3, 142320, Note_on_c, 0, 41, 0
3, 142560, Note_on_c, 0, 59, 21
3, 142560, Note_on_c, 0, 52, 18
3, 143040, Note_on_c, 0, 52, 0
3, 143040, Note_on_c, 0, 59, 0
3, 143280, Note_on_c, 0, 47, 20
3, 143280, Note_on_c, 0, 40, 17
3, 143760, Note_on_c, 0, 40, 0
3, 143760, Note_on_c, 0, 47, 0
3, 144000, Note_on_c, 0, 52, 19
3, 144000, Note_on_c, 0, 45, 16
3, 144480, Note_on_c, 0, 45, 0
3, 144480, Note_on_c, 0, 52, 0
3, 144720, Note_on_c, 0, 40, 18
3, 144720, Note_on_c, 0, 33, 15
3, 145200, Note_on_c, 0, 33, 0
3, 145200, Note_on_c, 0, 40, 0
3, 145440, Note_on_c, 0, 57, 16
3, 145440, Note_on_c, 0, 50, 14
3, 145920, Note_on_c, 0, 50, 0
3, 145920, Note_on_c, 0, 57, 0
3, 146160, Note_on_c, 0, 45, 16
3, 146160, Note_on_c, 0, 38, 14
3, 146640, Note_on_c, 0, 38, 0
3, 146640, Note_on_c, 0, 45, 0
3, 146880, Note_on_c, 0, 57, 16
3, 146880, Note_on_c, 0, 50, 14
3, 147360, Note_on_c, 0, 50, 0
3, 147360, Note_on_c, 0, 57, 0
3, 147600, Note_on_c, 0, 45, 16
3, 147600, Note_on_c, 0, 38, 14
3, 148080, Note_on_c, 0, 38, 0
3, 148080, Note_on_c, 0, 45, 0
3, 148320, Note_on_c, 0, 50, 16
3, 148320, Note_on_c, 0, 43, 14
3, 148800, Note_on_c, 0, 43, 0
3, 148800, Note_on_c, 0, 50, 0
3, 149040, Note_on_c, 0, 38, 16
3, 149040, Note_on_c, 0, 31, 14
3, 149280, Note_on_c, 0, 31, 0
3, 149280, Note_on_c, 0, 38, 0
3, 149760, Note_on_c, 0, 50, 16
3, 149760, Note_on_c, 0, 43, 14
3, 150000, Note_on_c, 0, 43, 0
3, 150000, Note_on_c, 0, 50, 0
3, 150480, Note_on_c, 0, 38, 16
3, 150480, Note_on_c, 0, 31, 14
3, 150720, Note_on_c, 0, 31, 0
3, 150720, Note_on_c, 0, 38, 0
3, 151200, Note_on_c, 0, 50, 16
3, 151200, Note_on_c, 0, 43, 14
3, 151440, Note_on_c, 0, 43, 0
3, 151440, Note_on_c, 0, 50, 0
3, 151920, Note_on_c, 0, 62, 16
3, 151920, Note_on_c, 0, 55, 14
3, 152160, Note_on_c, 0, 55, 0
3, 152160, Note_on_c, 0, 62, 0
3, 153360, Note_on_c, 0, 86, 16
3, 153360, Note_on_c, 0, 79, 14
3, 153600, Note_on_c, 0, 79, 0
3, 153600, Note_on_c, 0, 86, 0
3, 154080, Note_on_c, 0, 79, 26
3, 154200, Note_on_c, 0, 79, 0
3, 154800, Note_on_c, 0, 79, 21
3, 154920, Note_on_c, 0, 79, 0
3, 155520, Note_on_c, 0, 79, 24
3, 155640, Note_on_c, 0, 79, 0
3, 156240, Note_on_c, 0, 79, 24
3, 156360, Note_on_c, 0, 79, 0
3, 156960, Note_on_c, 0, 91, 26
3, 157080, Note_on_c, 0, 91, 0
3, 157680, Note_on_c, 0, 91, 21
3, 157800, Note_on_c, 0, 91, 0
3, 158400, Note_on_c, 0, 91, 24
3, 158520, Note_on_c, 0, 91, 0
3, 159120, Note_on_c, 0, 91, 24
3, 159240, Note_on_c, 0, 91, 0
3, 159360, Note_on_c, 0, 84, 35
3, 159600, Note_on_c, 0, 84, 0
3, 159600, Note_on_c, 0, 86, 31
3, 159840, Note_on_c, 0, 86, 0
3, 159840, Note_on_c, 0, 88, 39
3, 160080, Note_on_c, 0, 88, 0
3, 160080, Note_on_c, 0, 84, 33
3, 160320, Note_on_c, 0, 84, 0
3, 160320, Note_on_c, 0, 88, 33
3, 160680, Note_on_c, 0, 88, 0
3, 160680, Note_on_c, 0, 86, 29
3, 160740, Note_on_c, 0, 86, 0
3, 160740, Note_on_c, 0, 88, 29
3, 160800, Note_on_c, 0, 88, 0
3, 160800, Note_on_c, 0, 86, 37
3, 161040, Note_on_c, 0, 86, 0
3, 161040, Note_on_c, 0, 83, 33
3, 161280, Note_on_c, 0, 83, 0
3, 161280, Note_on_c, 0, 86, 35
3, 161400, Note_on_c, 0, 86, 0
3, 161760, Note_on_c, 0, 84, 42
3, 162240, Note_on_c, 0, 84, 0
3, 162240, Note_on_c, 0, 81, 35
3, 162480, Note_on_c, 0, 81, 0
3, 162480, Note_on_c, 0, 83, 31
3, 162720, Note_on_c, 0, 83, 0
3, 162720, Note_on_c, 0, 84, 39
3, 162960, Note_on_c, 0, 84, 0
3, 162960, Note_on_c, 0, 81, 33
3, 163200, Note_on_c, 0, 81, 0
3, 163200, Note_on_c, 0, 84, 33
3, 163560, Note_on_c, 0, 84, 0
3, 163560, Note_on_c, 0, 83, 29
3, 163620, Note_on_c, 0, 83, 0
3, 163620, Note_on_c, 0, 84, 29
3, 163680, Note_on_c, 0, 84, 0
3, 163680, Note_on_c, 0, 83, 37
3, 163920, Note_on_c, 0, 83, 0
3, 163920, Note_on_c, 0, 79, 33
3, 164160, Note_on_c, 0, 79, 0
3, 164160, Note_on_c, 0, 83, 35
3, 164280, Note_on_c, 0, 83, 0
3, 164640, Note_on_c, 0, 81, 42
3, 165120, Note_on_c, 0, 81, 0
3, 165120, Note_on_c, 0, 77, 35
3, 165360, Note_on_c, 0, 77, 0
3, 165360, Note_on_c, 0, 79, 31
3, 165600, Note_on_c, 0, 79, 0
3, 165600, Note_on_c, 0, 81, 39
3, 165840, Note_on_c, 0, 81, 0
3, 165840, Note_on_c, 0, 77, 33
3, 166080, Note_on_c, 0, 77, 0
3, 166080, Note_on_c, 0, 81, 33
3, 166440, Note_on_c, 0, 81, 0
3, 166440, Note_on_c, 0, 79, 29
3, 166500, Note_on_c, 0, 79, 0
3, 166500, Note_on_c, 0, 81, 29
3, 166560, Note_on_c, 0, 81, 0
3, 166560, Note_on_c, 0, 79, 37
3, 166800, Note_on_c, 0, 79, 0
3, 166800, Note_on_c, 0, 76, 33
3, 167040, Note_on_c, 0, 76, 0
3, 167040, Note_on_c, 0, 79, 39
3, 167280, Note_on_c, 0, 79, 0
3, 167280, Note_on_c, 0, 76, 33
3, 167520, Note_on_c, 0, 76, 0
3, 167520, Note_on_c, 0, 79, 33
3, 167880, Note_on_c, 0, 79, 0
3, 167880, Note_on_c, 0, 77, 29
3, 167940, Note_on_c, 0, 77, 0
3, 167940, Note_on_c, 0, 79, 29
3, 168000, Note_on_c, 0, 79, 0
3, 168000, Note_on_c, 0, 77, 37
3, 168240, Note_on_c, 0, 77, 0
3, 168240, Note_on_c, 0, 74, 33
3, 168480, Note_on_c, 0, 74, 0
3, 168480, Note_on_c, 0, 77, 39
3, 168720, Note_on_c, 0, 77, 0
3, 168720, Note_on_c, 0, 74, 33
3, 168960, Note_on_c, 0, 74, 0
3, 168960, Note_on_c, 0, 77, 33
3, 169320, Note_on_c, 0, 77, 0
3, 169320, Note_on_c, 0, 76, 29
3, 169380, Note_on_c, 0, 76, 0
3, 169380, Note_on_c, 0, 77, 29
3, 169440, Note_on_c, 0, 77, 0
3, 169440, Note_on_c, 0, 76, 37
3, 169680, Note_on_c, 0, 76, 0
3, 169680, Note_on_c, 0, 72, 33
3, 169920, Note_on_c, 0, 72, 0
3, 169920, Note_on_c, 0, 76, 35
3, 170040, Note_on_c, 0, 76, 0
3, 170400, Note_on_c, 0, 74, 42
3, 170880, Note_on_c, 0, 74, 0
3, 170880, Note_on_c, 0, 72, 37
3, 171120, Note_on_c, 0, 72, 0
3, 171120, Note_on_c, 0, 74, 33
3, 171360, Note_on_c, 0, 74, 0
3, 171360, Note_on_c, 0, 76, 41
3, 171600, Note_on_c, 0, 76, 0
3, 171600, Note_on_c, 0, 72, 34
3, 171840, Note_on_c, 0, 72, 0
3, 171840, Note_on_c, 0, 76, 34
3, 172200, Note_on_c, 0, 76, 0
3, 172200, Note_on_c, 0, 74, 31
3, 172260, Note_on_c, 0, 74, 0
3, 172260, Note_on_c, 0, 76, 31
3, 172320, Note_on_c, 0, 76, 0
3, 172320, Note_on_c, 0, 74, 39
3, 172560, Note_on_c, 0, 74, 0
3, 172560, Note_on_c, 0, 71, 34
3, 172800, Note_on_c, 0, 71, 0
3, 172800, Note_on_c, 0, 74, 38
3, 172920, Note_on_c, 0, 74, 0
3, 173280, Note_on_c, 0, 72, 46
3, 173760, Note_on_c, 0, 72, 0
3, 173760, Note_on_c, 0, 69, 42
3, 174000, Note_on_c, 0, 69, 0
3, 174000, Note_on_c, 0, 71, 37
3, 174240, Note_on_c, 0, 71, 0
3, 174240, Note_on_c, 0, 72, 44
3, 174480, Note_on_c, 0, 72, 0
3, 174480, Note_on_c, 0, 69, 37
3, 174720, Note_on_c, 0, 69, 0
3, 174720, Note_on_c, 0, 72, 37
3, 175080, Note_on_c, 0, 72, 0
3, 175080, Note_on_c, 0, 71, 34
3, 175140, Note_on_c, 0, 71, 0
3, 175140, Note_on_c, 0, 72, 34
3, 175200, Note_on_c, 0, 72, 0
3, 175200, Note_on_c, 0, 71, 43
3, 175440, Note_on_c, 0, 71, 0
3, 175440, Note_on_c, 0, 67, 39
3, 175680, Note_on_c, 0, 67, 0
3, 175680, Note_on_c, 0, 71, 41
3, 175800, Note_on_c, 0, 71, 0
3, 176160, Note_on_c, 0, 69, 51
3, 176640, Note_on_c, 0, 69, 0
3, 176640, Note_on_c, 0, 65, 45
3, 176880, Note_on_c, 0, 65, 0
3, 176880, Note_on_c, 0, 67, 40
3, 177120, Note_on_c, 0, 67, 0
3, 177120, Note_on_c, 0, 69, 49
3, 177360, Note_on_c, 0, 69, 0
3, 177360, Note_on_c, 0, 65, 40
3, 177600, Note_on_c, 0, 65, 0
3, 177600, Note_on_c, 0, 69, 41
3, 177960, Note_on_c, 0, 69, 0
3, 177960, Note_on_c, 0, 67, 37
3, 178020, Note_on_c, 0, 67, 0
3, 178020, Note_on_c, 0, 69, 37
3, 178080, Note_on_c, 0, 69, 0
3, 178080, Note_on_c, 0, 67, 48
3, 178320, Note_on_c, 0, 67, 0
3, 178320, Note_on_c, 0, 64, 42
3, 178560, Note_on_c, 0, 64, 0
3, 178560, Note_on_c, 0, 67, 52
3, 178800, Note_on_c, 0, 67, 0
3, 178800, Note_on_c, 0, 64, 44
3, 179040, Note_on_c, 0, 64, 0
3, 179040, Note_on_c, 0, 67, 44
3, 179400, Note_on_c, 0, 67, 0
3, 179400, Note_on_c, 0, 65, 41
3, 179460, Note_on_c, 0, 65, 0
3, 179460, Note_on_c, 0, 67, 41
3, 179520, Note_on_c, 0, 67, 0
3, 179520, Note_on_c, 0, 65, 53
3, 179760, Note_on_c, 0, 65, 0
3, 179760, Note_on_c, 0, 62, 47
3, 180000, Note_on_c, 0, 62, 0
3, 180000, Note_on_c, 0, 65, 58
3, 180240, Note_on_c, 0, 65, 0
3, 180240, Note_on_c, 0, 62, 50
3, 180480, Note_on_c, 0, 62, 0
3, 180480, Note_on_c, 0, 65, 50
3, 180840, Note_on_c, 0, 65, 0
3, 180840, Note_on_c, 0, 64, 47
3, 180900, Note_on_c, 0, 64, 0
3, 180900, Note_on_c, 0, 65, 47
3, 180960, Note_on_c, 0, 65, 0
3, 180960, Note_on_c, 0, 64, 59
3, 181200, Note_on_c, 0, 64, 0
3, 181200, Note_on_c, 0, 60, 54
3, 181440, Note_on_c, 0, 60, 0
3, 181440, Note_on_c, 0, 64, 58
3, 181560, Note_on_c, 0, 64, 0
3, 181920, Note_on_c, 0, 62, 75
3, 182400, Note_on_c, 0, 62, 0
3, 182400, Note_on_c, 0, 48, 62
3, 182400, Note_on_c, 0, 60, 74
3, 182484, Note_on_c, 0, 60, 0
3, 182484, Note_on_c, 0, 48, 0
3, 182640, Note_on_c, 0, 50, 56
3, 182640, Note_on_c, 0, 62, 66
3, 182724, Note_on_c, 0, 62, 0
3, 182724, Note_on_c, 0, 50, 0
3, 182880, Note_on_c, 0, 52, 67
3, 182880, Note_on_c, 0, 64, 79
3, 182964, Note_on_c, 0, 64, 0
3, 182964, Note_on_c, 0, 52, 0
3, 183120, Note_on_c, 0, 48, 56
3, 183120, Note_on_c, 0, 60, 66
3, 183204, Note_on_c, 0, 60, 0
3, 183204, Note_on_c, 0, 48, 0
3, 183360, Note_on_c, 0, 52, 56
3, 183360, Note_on_c, 0, 64, 66
3, 183840, Note_on_c, 0, 64, 0
3, 183840, Note_on_c, 0, 52, 0
3, 183840, Note_on_c, 0, 50, 62
3, 183840, Note_on_c, 0, 62, 74
3, 183924, Note_on_c, 0, 62, 0
3, 183924, Note_on_c, 0, 50, 0
3, 184080, Note_on_c, 0, 47, 56
3, 184080, Note_on_c, 0, 59, 66
3, 184164, Note_on_c, 0, 59, 0
3, 184164, Note_on_c, 0, 47, 0
3, 184320, Note_on_c, 0, 50, 59
3, 184320, Note_on_c, 0, 62, 70
3, 184440, Note_on_c, 0, 62, 0
3, 184440, Note_on_c, 0, 50, 0
3, 184800, Note_on_c, 0, 48, 72
3, 184800, Note_on_c, 0, 60, 85
3, 185280, Note_on_c, 0, 60, 0
3, 185280, Note_on_c, 0, 48, 0
3, 185280, Note_on_c, 0, 45, 62
3, 185280, Note_on_c, 0, 57, 74
3, 185364, Note_on_c, 0, 57, 0
3, 185364, Note_on_c, 0, 45, 0
3, 185520, Note_on_c, 0, 47, 56
3, 185520, Note_on_c, 0, 59, 66
3, 185604, Note_on_c, 0, 59, 0
3, 185604, Note_on_c, 0, 47, 0
3, 185760, Note_on_c, 0, 48, 67
3, 185760, Note_on_c, 0, 60, 79
3, 185844, Note_on_c, 0, 60, 0
3, 185844, Note_on_c, 0, 48, 0
3, 186000, Note_on_c, 0, 45, 56
3, 186000, Note_on_c, 0, 57, 66
3, 186084, Note_on_c, 0, 57, 0
3, 186084, Note_on_c, 0, 45, 0
3, 186240, Note_on_c, 0, 48, 56
3, 186240, Note_on_c, 0, 60, 66
3, 186720, Note_on_c, 0, 60, 0
3, 186720, Note_on_c, 0, 48, 0
3, 186720, Note_on_c, 0, 47, 62
3, 186720, Note_on_c, 0, 59, 74
3, 186804, Note_on_c, 0, 59, 0
3, 186804, Note_on_c, 0, 47, 0
3, 186960, Note_on_c, 0, 43, 56
3, 186960, Note_on_c, 0, 55, 66
3, 187044, Note_on_c, 0, 55, 0
3, 187044, Note_on_c, 0, 43, 0
3, 187200, Note_on_c, 0, 47, 59
3, 187200, Note_on_c, 0, 59, 70
3, 187320, Note_on_c, 0, 59, 0
3, 187320, Note_on_c, 0, 47, 0
3, 187680, Note_on_c, 0, 45, 69
3, 187680, Note_on_c, 0, 57, 82
3, 188160, Note_on_c, 0, 57, 0
3, 188160, Note_on_c, 0, 45, 0
3, 188160, Note_on_c, 0, 41, 62
3, 188160, Note_on_c, 0, 53, 74
3, 188244, Note_on_c, 0, 53, 0
3, 188244, Note_on_c, 0, 41, 0
3, 188400, Note_on_c, 0, 43, 56
3, 188400, Note_on_c, 0, 55, 66
3, 188484, Note_on_c, 0, 55, 0
3, 188484, Note_on_c, 0, 43, 0
3, 188640, Note_on_c, 0, 45, 67
3, 188640, Note_on_c, 0, 57, 79
3, 188724, Note_on_c, 0, 57, 0
3, 188724, Note_on_c, 0, 45, 0
3, 188880, Note_on_c, 0, 41, 56
3, 188880, Note_on_c, 0, 53, 66
3, 188964, Note_on_c, 0, 53, 0
3, 188964, Note_on_c, 0, 41, 0
3, 189120, Note_on_c, 0, 45, 56
3, 189120, Note_on_c, 0, 57, 66
3, 189600, Note_on_c, 0, 57, 0
3, 189600, Note_on_c, 0, 45, 0
3, 189600, Note_on_c, 0, 43, 62
3, 189600, Note_on_c, 0, 55, 74
3, 189684, Note_on_c, 0, 55, 0
3, 189684, Note_on_c, 0, 43, 0
3, 189840, Note_on_c, 0, 40, 56
3, 189840, Note_on_c, 0, 52, 66
3, 189924, Note_on_c, 0, 52, 0
3, 189924, Note_on_c, 0, 40, 0
3, 190080, Note_on_c, 0, 43, 67
3, 190080, Note_on_c, 0, 55, 79
3, 190164, Note_on_c, 0, 55, 0
3, 190164, Note_on_c, 0, 43, 0
3, 190320, Note_on_c, 0, 40, 56
3, 190320, Note_on_c, 0, 52, 66
3, 190404, Note_on_c, 0, 52, 0
3, 190404, Note_on_c, 0, 40, 0
3, 190560, Note_on_c, 0, 43, 56
3, 190560, Note_on_c, 0, 55, 66
3, 191040, Note_on_c, 0, 55, 0
3, 191040, Note_on_c, 0, 43, 0
3, 191040, Note_on_c, 0, 41, 62
3, 191040, Note_on_c, 0, 53, 74
3, 191124, Note_on_c, 0, 53, 0
3, 191124, Note_on_c, 0, 41, 0
3, 191280, Note_on_c, 0, 38, 56
3, 191280, Note_on_c, 0, 50, 66
3, 191364, Note_on_c, 0, 50, 0
3, 191364, Note_on_c, 0, 38, 0
3, 191520, Note_on_c, 0, 41, 67
3, 191520, Note_on_c, 0, 53, 79
3, 191604, Note_on_c, 0, 53, 0
3, 191604, Note_on_c, 0, 41, 0
3, 191760, Note_on_c, 0, 38, 56
3, 191760, Note_on_c, 0, 50, 66
3, 191844, Note_on_c, 0, 50, 0
3, 191844, Note_on_c, 0, 38, 0
3, 192000, Note_on_c, 0, 41, 56
3, 192000, Note_on_c, 0, 53, 66
3, 192480, Note_on_c, 0, 53, 0
3, 192480, Note_on_c, 0, 41, 0
3, 192480, Note_on_c, 0, 40, 62
3, 192480, Note_on_c, 0, 52, 74
3, 192564, Note_on_c, 0, 52, 0
3, 192564, Note_on_c, 0, 40, 0
3, 192720, Note_on_c, 0, 36, 56
3, 192720, Note_on_c, 0, 48, 66
3, 192804, Note_on_c, 0, 48, 0
3, 192804, Note_on_c, 0, 36, 0
3, 192960, Note_on_c, 0, 40, 59
3, 192960, Note_on_c, 0, 52, 70
3, 193080, Note_on_c, 0, 52, 0
3, 193080, Note_on_c, 0, 40, 0
3, 193440, Note_on_c, 0, 38, 72
3, 193440, Note_on_c, 0, 50, 85
3, 193920, Note_on_c, 0, 50, 0
3, 193920, Note_on_c, 0, 38, 0
3, 194400, Note_on_c, 0, 32, 49
3, 194400, Note_on_c, 0, 39, 49
3, 194400, Note_on_c, 0, 44, 62
3, 194640, Note_on_c, 0, 44, 0
3, 194640, Note_on_c, 0, 39, 0
3, 194640, Note_on_c, 0, 32, 0
3, 195120, Note_on_c, 0, 41, 55
3, 195120, Note_on_c, 0, 32, 44
3, 195120, Note_on_c, 0, 29, 44
3, 195360, Note_on_c, 0, 29, 0
3, 195360, Note_on_c, 0, 32, 0
3, 195360, Note_on_c, 0, 41, 0
3, 195840, Note_on_c, 0, 32, 49
3, 195840, Note_on_c, 0, 39, 49
3, 195840, Note_on_c, 0, 44, 62
3, 196080, Note_on_c, 0, 44, 0
3, 196080, Note_on_c, 0, 39, 0
3, 196080, Note_on_c, 0, 32, 0
3, 196560, Note_on_c, 0, 41, 57
3, 196560, Note_on_c, 0, 32, 45
3, 196560, Note_on_c, 0, 29, 45
3, 196800, Note_on_c, 0, 29, 0
3, 196800, Note_on_c, 0, 32, 0
3, 196800, Note_on_c, 0, 41, 0
3, 197280, Note_on_c, 0, 32, 49
3, 197280, Note_on_c, 0, 39, 49
3, 197280, Note_on_c, 0, 44, 62
3, 197520, Note_on_c, 0, 44, 0
3, 197520, Note_on_c, 0, 39, 0
3, 197520, Note_on_c, 0, 32, 0
3, 198000, Note_on_c, 0, 41, 55
3, 198000, Note_on_c, 0, 32, 44
3, 198000, Note_on_c, 0, 29, 44
3, 198240, Note_on_c, 0, 29, 0
3, 198240, Note_on_c, 0, 32, 0
3, 198240, Note_on_c, 0, 41, 0
3, 198720, Note_on_c, 0, 32, 49
3, 198720, Note_on_c, 0, 39, 49
3, 198720, Note_on_c, 0, 44, 62
3, 198960, Note_on_c, 0, 44, 0
3, 198960, Note_on_c, 0, 39, 0
3, 198960, Note_on_c, 0, 32, 0
3, 199440, Note_on_c, 0, 41, 57
3, 199440, Note_on_c, 0, 32, 45
3, 199440, Note_on_c, 0, 29, 45
3, 199680, Note_on_c, 0, 29, 0
3, 199680, Note_on_c, 0, 32, 0
3, 199680, Note_on_c, 0, 41, 0
3, 200160, Note_on_c, 0, 36, 53
3, 200160, Note_on_c, 0, 43, 53
3, 200160, Note_on_c, 0, 48, 68
3, 200400, Note_on_c, 0, 48, 0
3, 200400, Note_on_c, 0, 43, 0
3, 200400, Note_on_c, 0, 36, 0
3, 200880, Note_on_c, 0, 41, 60
3, 200880, Note_on_c, 0, 36, 48
3, 200880, Note_on_c, 0, 29, 48
3, 201120, Note_on_c, 0, 29, 0
3, 201120, Note_on_c, 0, 36, 0
3, 201120, Note_on_c, 0, 41, 0
3, 201600, Note_on_c, 0, 36, 53
3, 201600, Note_on_c, 0, 43, 53
3, 201600, Note_on_c, 0, 48, 68
3, 201840, Note_on_c, 0, 48, 0
3, 201840, Note_on_c, 0, 43, 0
3, 201840, Note_on_c, 0, 36, 0
3, 202320, Note_on_c, 0, 41, 62
3, 202320, Note_on_c, 0, 36, 49
3, 202320, Note_on_c, 0, 29, 49
3, 202560, Note_on_c, 0, 29, 0
3, 202560, Note_on_c, 0, 36, 0
3, 202560, Note_on_c, 0, 41, 0
3, 203040, Note_on_c, 0, 36, 53
3, 203040, Note_on_c, 0, 43, 53
3, 203040, Note_on_c, 0, 48, 68
3, 203280, Note_on_c, 0, 48, 0
3, 203280, Note_on_c, 0, 43, 0
3, 203280, Note_on_c, 0, 36, 0
3, 203760, Note_on_c, 0, 41, 60
3, 203760, Note_on_c, 0, 36, 48
3, 203760, Note_on_c, 0, 29, 48
3, 204000, Note_on_c, 0, 29, 0
3, 204000, Note_on_c, 0, 36, 0
3, 204000, Note_on_c, 0, 41, 0
3, 204480, Note_on_c, 0, 36, 53
3, 204480, Note_on_c, 0, 43, 53
3, 204480, Note_on_c, 0, 48, 68
3, 204720, Note_on_c, 0, 48, 0
3, 204720, Note_on_c, 0, 43, 0
3, 204720, Note_on_c, 0, 36, 0
3, 205200, Note_on_c, 0, 41, 62
3, 205200, Note_on_c, 0, 36, 49
3, 205200, Note_on_c, 0, 29, 49
3, 205440, Note_on_c, 0, 29, 0
3, 205440, Note_on_c, 0, 36, 0
3, 205440, Note_on_c, 0, 41, 0
3, 205920, Note_on_c, 0, 36, 45
3, 205920, Note_on_c, 0, 43, 45
3, 205920, Note_on_c, 0, 48, 57
3, 206160, Note_on_c, 0, 48, 0
3, 206160, Note_on_c, 0, 43, 0
3, 206160, Note_on_c, 0, 36, 0
3, 206640, Note_on_c, 0, 41, 52
3, 206640, Note_on_c, 0, 36, 41
3, 206640, Note_on_c, 0, 29, 41
3, 206880, Note_on_c, 0, 29, 0
3, 206880, Note_on_c, 0, 36, 0
3, 206880, Note_on_c, 0, 41, 0
3, 207360, Note_on_c, 0, 36, 37
3, 207360, Note_on_c, 0, 43, 37
3, 207360, Note_on_c, 0, 48, 47
3, 207600, Note_on_c, 0, 48, 0
3, 207600, Note_on_c, 0, 43, 0
3, 207600, Note_on_c, 0, 36, 0
3, 208080, Note_on_c, 0, 41, 43
3, 208080, Note_on_c, 0, 36, 34
3, 208080, Note_on_c, 0, 29, 34
3, 208320, Note_on_c, 0, 29, 0
3, 208320, Note_on_c, 0, 36, 0
3, 208320, Note_on_c, 0, 41, 0
3, 208800, Note_on_c, 0, 36, 26
3, 208800, Note_on_c, 0, 43, 26
3, 208800, Note_on_c, 0, 48, 34
3, 209040, Note_on_c, 0, 48, 0
3, 209040, Note_on_c, 0, 43, 0
3, 209040, Note_on_c, 0, 36, 0
3, 209520, Note_on_c, 0, 41, 31
3, 209520, Note_on_c, 0, 36, 24
3, 209520, Note_on_c, 0, 29, 24
3, 209760, Note_on_c, 0, 29, 0
3, 209760, Note_on_c, 0, 36, 0
3, 209760, Note_on_c, 0, 41, 0
3, 210240, Note_on_c, 0, 36, 40
3, 210240, Note_on_c, 0, 48, 35
3, 210960, Note_on_c, 0, 48, 0
3, 210960, Note_on_c, 0, 47, 32
3, 211680, Note_on_c, 0, 47, 0
3, 211680, Note_on_c, 0, 45, 33
3, 212400, Note_on_c, 0, 45, 0
3, 212400, Note_on_c, 0, 47, 27
3, 213120, Note_on_c, 0, 47, 0
3, 213120, Note_on_c, 0, 36, 0
3, 213120, Note_on_c, 0, 36, 40
3, 213120, Note_on_c, 0, 48, 31
3, 213840, Note_on_c, 0, 48, 0
3, 213840, Note_on_c, 0, 47, 27
3, 214560, Note_on_c, 0, 47, 0
3, 214560, Note_on_c, 0, 45, 33
3, 215280, Note_on_c, 0, 45, 0
3, 215280, Note_on_c, 0, 47, 27
3, 216000, Note_on_c, 0, 47, 0
3, 216000, Note_on_c, 0, 36, 0
3, 216000, Note_on_c, 0, 36, 40
3, 216000, Note_on_c, 0, 48, 31
3, 216720, Note_on_c, 0, 48, 0
3, 216720, Note_on_c, 0, 36, 0
3, 216720, Note_on_c, 0, 69, 27
3, 216720, Note_on_c, 0, 72, 27
3, 216720, Note_on_c, 0, 77, 36
3, 217440, Note_on_c, 0, 77, 0
3, 217440, Note_on_c, 0, 72, 0
3, 217440, Note_on_c, 0, 69, 0
3, 217440, Note_on_c, 0, 67, 31
3, 217440, Note_on_c, 0, 72, 31
3, 217440, Note_on_c, 0, 76, 40
3, 218160, Note_on_c, 0, 76, 0
3, 218160, Note_on_c, 0, 72, 0
3, 218160, Note_on_c, 0, 67, 0
3, 218160, Note_on_c, 0, 65, 27
3, 218160, Note_on_c, 0, 72, 27
3, 218160, Note_on_c, 0, 74, 36
3, 218880, Note_on_c, 0, 74, 0
3, 218880, Note_on_c, 0, 72, 0
3, 218880, Note_on_c, 0, 65, 0
3, 218880, Note_on_c, 0, 64, 31
3, 218880, Note_on_c, 0, 72, 40
3, 219600, Note_on_c, 0, 72, 0
3, 219600, Note_on_c, 0, 64, 0
3, 219600, Note_on_c, 0, 36, 22
3, 219600, Note_on_c, 0, 45, 30
3, 220320, Note_on_c, 0, 45, 0
3, 220320, Note_on_c, 0, 43, 34
3, 221040, Note_on_c, 0, 43, 0
3, 221040, Note_on_c, 0, 41, 25
3, 221760, Note_on_c, 0, 41, 0
3, 221760, Note_on_c, 0, 43, 28
3, 222480, Note_on_c, 0, 43, 0
3, 222480, Note_on_c, 0, 36, 0
3, 222480, Note_on_c, 0, 36, 22
3, 222480, Note_on_c, 0, 43, 22
3, 223920, Note_on_c, 0, 43, 0
3, 223920, Note_on_c, 0, 36, 0
3, 223920, Note_on_c, 0, 48, 18
3, 223920, Note_on_c, 0, 55, 18
3, 225360, Note_on_c, 0, 55, 0
3, 225360, Note_on_c, 0, 48, 0
3, 225360, Note_on_c, 0, 60, 15
3, 225360, Note_on_c, 0, 67, 15
3, 228000, Note_on_c, 0, 67, 0
3, 228000, Note_on_c, 0, 60, 0
3, 228000, End_track
4, 0, Start_track
4, 0, Title_t, "Pedale"
4, 0, Program_c, 0, 0
4, 10497, Control_c, 0, 64, 127
4, 11537, Control_c, 0, 64, 0
4, 22017, Control_c, 0, 64, 127
4, 24000, Control_c, 0, 64, 0
4, 26332, Control_c, 0, 64, 127
4, 26886, Control_c, 0, 64, 0
4, 29126, Control_c, 0, 64, 127
4, 29760, Control_c, 0, 64, 0
4, 29760, Control_c, 0, 64, 0
4, 32092, Control_c, 0, 64, 127
4, 32646, Control_c, 0, 64, 0
4, 34886, Control_c, 0, 64, 127
4, 35540, Control_c, 0, 64, 0
4, 36340, Control_c, 0, 64, 127
4, 36980, Control_c, 0, 64, 0
4, 37560, Control_c, 0, 64, 127
4, 37927, Control_c, 0, 64, 0
4, 38000, Control_c, 0, 64, 127
4, 38177, Control_c, 0, 64, 0
4, 38252, Control_c, 0, 64, 127
4, 38658, Control_c, 0, 64, 0
4, 38720, Control_c, 0, 64, 127
4, 38902, Control_c, 0, 64, 0
4, 39000, Control_c, 0, 64, 127
4, 39367, Control_c, 0, 64, 0
4, 39440, Control_c, 0, 64, 127
4, 39617, Control_c, 0, 64, 0
4, 39692, Control_c, 0, 64, 127
4, 40098, Control_c, 0, 64, 0
4, 40160, Control_c, 0, 64, 127
4, 40332, Control_c, 0, 64, 0
4, 40440, Control_c, 0, 64, 127
4, 40807, Control_c, 0, 64, 0
4, 40880, Control_c, 0, 64, 127
4, 41057, Control_c, 0, 64, 0
4, 41132, Control_c, 0, 64, 127
4, 41538, Control_c, 0, 64, 0
4, 41600, Control_c, 0, 64, 127
4, 41772, Control_c, 0, 64, 0
4, 41880, Control_c, 0, 64, 127
4, 42247, Control_c, 0, 64, 0
4, 42320, Control_c, 0, 64, 127
4, 42497, Control_c, 0, 64, 0
4, 42572, Control_c, 0, 64, 127
4, 42978, Control_c, 0, 64, 0
4, 43040, Control_c, 0, 64, 127
4, 43216, Control_c, 0, 64, 0
4, 43320, Control_c, 0, 64, 127
4, 43687, Control_c, 0, 64, 0
4, 43760, Control_c, 0, 64, 127
4, 43937, Control_c, 0, 64, 0
4, 44012, Control_c, 0, 64, 127
4, 44418, Control_c, 0, 64, 0
4, 44480, Control_c, 0, 64, 127
4, 44656, Control_c, 0, 64, 0
4, 44760, Control_c, 0, 64, 127
4, 45127, Control_c, 0, 64, 0
4, 45200, Control_c, 0, 64, 127
4, 45377, Control_c, 0, 64, 0
4, 45452, Control_c, 0, 64, 127
4, 45858, Control_c, 0, 64, 0
4, 45920, Control_c, 0, 64, 127
4, 46096, Control_c, 0, 64, 0
4, 46200, Control_c, 0, 64, 127
4, 46567, Control_c, 0, 64, 0
4, 46640, Control_c, 0, 64, 127
4, 46817, Control_c, 0, 64, 0
4, 46892, Control_c, 0, 64, 127
4, 47298, Control_c, 0, 64, 0
4, 47360, Control_c, 0, 64, 127
4, 47536, Control_c, 0, 64, 0
4, 47640, Control_c, 0, 64, 127
4, 48007, Control_c, 0, 64, 0
4, 48080, Control_c, 0, 64, 127
4, 48257, Control_c, 0, 64, 0
4, 48332, Control_c, 0, 64, 127
4, 48738, Control_c, 0, 64, 0
4, 48800, Control_c, 0, 64, 127
4, 48976, Control_c, 0, 64, 0
4, 49080, Control_c, 0, 64, 127
4, 49447, Control_c, 0, 64, 0
4, 49520, Control_c, 0, 64, 127
4, 49697, Control_c, 0, 64, 0
4, 49772, Control_c, 0, 64, 127
4, 51856, Control_c, 0, 64, 0
4, 51960, Control_c, 0, 64, 127
4, 52327, Control_c, 0, 64, 0
4, 52400, Control_c, 0, 64, 127
4, 52577, Control_c, 0, 64, 0
4, 52652, Control_c, 0, 64, 127
4, 57120, Control_c, 0, 64, 0
4, 60000, Control_c, 0, 64, 0
4, 120480, Control_c, 0, 64, 0
4, 122812, Control_c, 0, 64, 127
4, 123366, Control_c, 0, 64, 0
4, 125606, Control_c, 0, 64, 127
4, 126240, Control_c, 0, 64, 0
4, 126240, Control_c, 0, 64, 0
4, 128572, Control_c, 0, 64, 127
4, 129126, Control_c, 0, 64, 0
4, 131366, Control_c, 0, 64, 127
4, 132020, Control_c, 0, 64, 0
4, 132820, Control_c, 0, 64, 127
4, 133460, Control_c, 0, 64, 0
4, 134040, Control_c, 0, 64, 127
4, 134407, Control_c, 0, 64, 0
4, 134480, Control_c, 0, 64, 127
4, 134657, Control_c, 0, 64, 0
4, 134732, Control_c, 0, 64, 127
4, 135138, Control_c, 0, 64, 0
4, 135200, Control_c, 0, 64, 127
4, 135382, Control_c, 0, 64, 0
4, 135480, Control_c, 0, 64, 127
4, 135847, Control_c, 0, 64, 0
4, 135920, Control_c, 0, 64, 127
4, 136097, Control_c, 0, 64, 0
4, 136172, Control_c, 0, 64, 127
4, 136578, Control_c, 0, 64, 0
4, 136640, Control_c, 0, 64, 127
4, 136812, Control_c, 0, 64, 0
4, 136920, Control_c, 0, 64, 127
4, 137287, Control_c, 0, 64, 0
4, 137360, Control_c, 0, 64, 127
4, 137537, Control_c, 0, 64, 0
4, 137612, Control_c, 0, 64, 127
4, 138018, Control_c, 0, 64, 0
4, 138080, Control_c, 0, 64, 127
4, 138252, Control_c, 0, 64, 0
4, 138360, Control_c, 0, 64, 127
4, 138727, Control_c, 0, 64, 0
4, 138800, Control_c, 0, 64, 127
4, 138977, Control_c, 0, 64, 0
4, 139052, Control_c, 0, 64, 127
4, 139458, Control_c, 0, 64, 0
4, 139520, Control_c, 0, 64, 127
4, 139696, Control_c, 0, 64, 0
4, 139800, Control_c, 0, 64, 127
4, 140167, Control_c, 0, 64, 0
4, 140240, Control_c, 0, 64, 127
4, 140417, Control_c, 0, 64, 0
4, 140492, Control_c, 0, 64, 127
4, 140898, Control_c, 0, 64, 0
4, 140960, Control_c, 0, 64, 127
4, 141136, Control_c, 0, 64, 0
4, 141240, Control_c, 0, 64, 127
4, 141607, Control_c, 0, 64, 0
4, 141680, Control_c, 0, 64, 127
4, 141857, Control_c, 0, 64, 0
4, 141932, Control_c, 0, 64, 127
4, 142338, Control_c, 0, 64, 0
4, 142400, Control_c, 0, 64, 127
4, 142576, Control_c, 0, 64, 0
4, 142680, Control_c, 0, 64, 127
4, 143047, Control_c, 0, 64, 0
4, 143120, Control_c, 0, 64, 127
4, 143297, Control_c, 0, 64, 0
4, 143372, Control_c, 0, 64, 127
4, 143778, Control_c, 0, 64, 0
4, 143840, Control_c, 0, 64, 127
4, 144016, Control_c, 0, 64, 0
4, 144120, Control_c, 0, 64, 127
4, 144487, Control_c, 0, 64, 0
4, 144560, Control_c, 0, 64, 127
4, 144737, Control_c, 0, 64, 0
4, 144812, Control_c, 0, 64, 127
4, 145218, Control_c, 0, 64, 0
4, 145280, Control_c, 0, 64, 127
4, 145456, Control_c, 0, 64, 0
4, 145560, Control_c, 0, 64, 127
4, 145927, Control_c, 0, 64, 0
4, 146000, Control_c, 0, 64, 127
4, 146177, Control_c, 0, 64, 0
4, 146252, Control_c, 0, 64, 127
4, 148336, Control_c, 0, 64, 0
4, 148440, Control_c, 0, 64, 127
4, 148807, Control_c, 0, 64, 0
4, 148880, Control_c, 0, 64, 127
4, 149057, Control_c, 0, 64, 0
4, 149132, Control_c, 0, 64, 127
4, 153600, Control_c, 0, 64, 0
4, 156480, Control_c, 0, 64, 0
4, 222565, Control_c, 0, 64, 127
4, 228960, Control_c, 0, 64, 0
4, 228960, End_track
5, 0, Start_track
5, 0, Title_t, "Grieg: Lyric Pieces - Norwegian March"
5, 0, End_track
6, 0, Start_track
6, 0, Title_t, "Copyright © 2010 by Bernd Krueger"
6, 0, End_track
7, 0, Start_track
7, 0, Title_t, "http://www.piano-midi.de/"
7, 0, End_track
8, 0, Start_track
8, 0, Title_t, "Edition:  2012-10-04"
8, 0, End_track
9, 0, Start_track
9, 0, Title_t, "Spur 8"
9, 0, End_track
10, 0, Start_track
10, 0, Title_t, "Spur 9"
10, 0, End_track
11, 0, Start_track
11, 0, Title_t, "Spur 10"
11, 0, End_track
12, 0, Start_track
12, 0, Title_t, "Spur 11"
12, 0, End_track
13, 0, Start_track
13, 0, Title_t, "Spur 12"
13, 0, End_track
14, 0, Start_track
14, 0, Title_t, "Spur 13"
14, 0, End_track
15, 0, Start_track
15, 0, Title_t, "Spur 14"
15, 0, End_track
16, 0, Start_track
16, 0, Title_t, "Spur 15"
16, 0, End_track
17, 0, Start_track
17, 0, Title_t, "Spur 16"
17, 0, End_track
0, 0, End_of_file
