0, 0, Header, 1, 17, 480
1, 0, Start_track
1, 0, Title_t, "Grieg: Lyrische Stücke Op. 43 Nr. 2 - Einsamer Wanderer"
1, 0, Copyright_t, "Copyright © 2007 by Bernd Krueger"
1, 0, Text_t, "Edvard Grieg"
1, 0, Text_t, "Allegretto semplice"
1, 0, Text_t, "Erstellt: 16.5.2007\012"
1, 0, Text_t, "Update: 5.11.2012\012"
1, 0, Text_t, "Dauer: 1:41 Minuten\012"
1, 0, Time_signature, 6, 3, 12, 8
1, 0, Key_signature, 2, "major"
1, 0, Tempo, 600000
1, 1200, Tempo, 1100917
1, 1440, Tempo, 1071429
1, 1680, Tempo, 1016949
1, 1920, Tempo, 1142857
1, 2160, Tempo, 1043478
1, 2640, Tempo, 1348315
1, 2760, Tempo, 902256
1, 2880, Tempo, 1061947
1, 3120, Tempo, 991736
1, 3360, Tempo, 1153846
1, 3600, Tempo, 1034483
1, 4080, Tempo, 1061947
1, 4200, Tempo, 1200000
1, 4320, Tempo, 1034483
1, 4560, Tempo, 1071429
1, 4800, Tempo, 1100917
1, 5040, Tempo, 1043478
1, 5400, Tempo, 1090909
1, 5640, Tempo, 1142857
1, 5760, Tempo, 1081081
1, 6120, Tempo, 1224490
1, 6240, Tempo, 1348315
1, 6960, Tempo, 1034483
1, 7200, Tempo, 1071429
1, 7440, Tempo, 1016949
1, 7680, Tempo, 1142857
1, 7920, Tempo, 1043478
1, 8400, Tempo, 1348315
1, 8520, Tempo, 902256
1, 8640, Tempo, 1061947
1, 8880, Tempo, 991736
1, 9120, Tempo, 1153846
1, 9360, Tempo, 1034483
1, 9840, Tempo, 1061947
1, 9960, Tempo, 1200000
1, 10080, Tempo, 1034483
1, 10320, Tempo, 1071429
1, 10560, Tempo, 1100917
1, 10800, Tempo, 1043478
1, 11160, Tempo, 1090909
1, 11400, Tempo, 1142857
1, 11520, Tempo, 1081081
1, 11880, Tempo, 1224490
1, 12000, Tempo, 1348315
1, 12240, Tempo, 1263158
1, 12720, Tempo, 1061947
1, 13320, Tempo, 1034483
1, 13560, Tempo, 1132075
1, 13680, Tempo, 1061947
1, 14040, Tempo, 1052632
1, 14280, Tempo, 1176471
1, 14400, Tempo, 1111111
1, 14880, Tempo, 1237113
1, 15600, Tempo, 1061947
1, 16200, Tempo, 1034483
1, 16440, Tempo, 1132075
1, 16560, Tempo, 1061947
1, 16920, Tempo, 1052632
1, 17160, Tempo, 1176471
1, 17280, Tempo, 1111111
1, 17760, Tempo, 1237113
1, 18000, Tempo, 1132075
1, 18480, Tempo, 1111111
1, 18720, Tempo, 1111111
1, 19200, Tempo, 1237113
1, 19440, Tempo, 1165049
1, 19920, Tempo, 1090909
1, 20160, Tempo, 1061947
1, 20400, Tempo, 1034483
1, 20640, Tempo, 1111111
1, 20880, Tempo, 1061947
1, 21120, Tempo, 1043478
1, 21360, Tempo, 1111111
1, 21600, Tempo, 1071429
1, 21840, Tempo, 1121495
1, 22080, Tempo, 1061947
1, 22320, Tempo, 1121495
1, 22560, Tempo, 1043478
1, 22800, Tempo, 1111111
1, 23040, Tempo, 1061947
1, 23400, Tempo, 1034483
1, 23640, Tempo, 1132075
1, 23760, Tempo, 1061947
1, 24240, Tempo, 1111111
1, 24480, Tempo, 1061947
1, 24840, Tempo, 1034483
1, 25080, Tempo, 1132075
1, 25200, Tempo, 1224490
1, 25680, Tempo, 1061947
1, 25800, Tempo, 1200000
1, 25920, Tempo, 1034483
1, 26160, Tempo, 1071429
1, 26400, Tempo, 1100917
1, 26640, Tempo, 1043478
1, 27000, Tempo, 1090909
1, 27240, Tempo, 1142857
1, 27360, Tempo, 1081081
1, 27720, Tempo, 1224490
1, 27840, Tempo, 1348315
1, 28080, Tempo, 1212121
1, 28560, Tempo, 1061947
1, 29160, Tempo, 1034483
1, 29400, Tempo, 1132075
1, 29520, Tempo, 1061947
1, 29880, Tempo, 1052632
1, 30120, Tempo, 1176471
1, 30240, Tempo, 1111111
1, 30720, Tempo, 1200000
1, 31440, Tempo, 1061947
1, 32040, Tempo, 1034483
1, 32280, Tempo, 1132075
1, 32400, Tempo, 1061947
1, 32760, Tempo, 1052632
1, 33000, Tempo, 1176471
1, 33120, Tempo, 1111111
1, 33600, Tempo, 1237113
1, 33840, Tempo, 1176471
1, 34320, Tempo, 1111111
1, 34560, Tempo, 1111111
1, 35040, Tempo, 1237113
1, 35280, Tempo, 1142857
1, 35760, Tempo, 1090909
1, 36000, Tempo, 1061947
1, 36240, Tempo, 1025641
1, 36480, Tempo, 1081081
1, 36720, Tempo, 1061947
1, 36960, Tempo, 1025641
1, 37200, Tempo, 1090909
1, 37440, Tempo, 1071429
1, 37680, Tempo, 1121495
1, 37920, Tempo, 1061947
1, 38160, Tempo, 1121495
1, 38400, Tempo, 1043478
1, 38640, Tempo, 1111111
1, 38880, Tempo, 1061947
1, 39240, Tempo, 1034483
1, 39480, Tempo, 1132075
1, 39600, Tempo, 1061947
1, 40080, Tempo, 1111111
1, 40320, Tempo, 1061947
1, 40680, Tempo, 1034483
1, 40920, Tempo, 1132075
1, 41040, Tempo, 1224490
1, 41520, Tempo, 1061947
1, 41640, Tempo, 1200000
1, 41760, Tempo, 1071429
1, 42000, Tempo, 1111111
1, 42240, Tempo, 1176471
1, 42480, Tempo, 1121495
1, 42840, Tempo, 1237113
1, 43080, Tempo, 1348315
1, 43200, Tempo, 1212121
1, 43560, Tempo, 1411765
1, 43680, Tempo, 1666667
1, 43680, End_track
2, 0, Start_track
2, 0, Title_t, "Piano right"
2, 0, Program_c, 0, 0
2, 1200, Note_on_c, 0, 62, 60
2, 1200, Note_on_c, 0, 71, 60
2, 1440, Note_on_c, 0, 71, 0
2, 1440, Note_on_c, 0, 69, 64
2, 1800, Note_on_c, 0, 69, 0
2, 1800, Note_on_c, 0, 67, 51
2, 1920, Note_on_c, 0, 67, 0
2, 1920, Note_on_c, 0, 66, 49
2, 2160, Note_on_c, 0, 66, 0
2, 2160, Note_on_c, 0, 66, 53
2, 2640, Note_on_c, 0, 66, 0
2, 2640, Note_on_c, 0, 62, 0
2, 2640, Note_on_c, 0, 62, 60
2, 2640, Note_on_c, 0, 71, 60
2, 2760, Note_on_c, 0, 71, 0
2, 2760, Note_on_c, 0, 69, 52
2, 2820, Note_on_c, 0, 69, 0
2, 2820, Note_on_c, 0, 71, 52
2, 2880, Note_on_c, 0, 71, 0
2, 2880, Note_on_c, 0, 69, 62
2, 3240, Note_on_c, 0, 69, 0
2, 3240, Note_on_c, 0, 67, 51
2, 3360, Note_on_c, 0, 67, 0
2, 3360, Note_on_c, 0, 66, 55
2, 3600, Note_on_c, 0, 66, 0
2, 3600, Note_on_c, 0, 66, 53
2, 4080, Note_on_c, 0, 66, 0
2, 4080, Note_on_c, 0, 62, 0
2, 4080, Note_on_c, 0, 62, 49
2, 4200, Note_on_c, 0, 62, 0
2, 4200, Note_on_c, 0, 64, 52
2, 4320, Note_on_c, 0, 64, 0
2, 4320, Note_on_c, 0, 59, 55
2, 4320, Note_on_c, 0, 66, 55
2, 5040, Note_on_c, 0, 66, 0
2, 5040, Note_on_c, 0, 59, 0
2, 5040, Note_on_c, 0, 58, 53
2, 5040, Note_on_c, 0, 66, 53
2, 5400, Note_on_c, 0, 66, 0
2, 5400, Note_on_c, 0, 58, 0
2, 5400, Note_on_c, 0, 61, 51
2, 5400, Note_on_c, 0, 70, 51
2, 5520, Note_on_c, 0, 70, 0
2, 5520, Note_on_c, 0, 61, 0
2, 5520, Note_on_c, 0, 64, 54
2, 5520, Note_on_c, 0, 73, 54
2, 5640, Note_on_c, 0, 73, 0
2, 5640, Note_on_c, 0, 64, 0
2, 5640, Note_on_c, 0, 66, 56
2, 5640, Note_on_c, 0, 74, 56
2, 5760, Note_on_c, 0, 74, 0
2, 5760, Note_on_c, 0, 66, 0
2, 5760, Note_on_c, 0, 64, 52
2, 5760, Note_on_c, 0, 73, 52
2, 6000, Note_on_c, 0, 73, 0
2, 6000, Note_on_c, 0, 64, 0
2, 6000, Note_on_c, 0, 62, 45
2, 6000, Note_on_c, 0, 71, 45
2, 6720, Note_on_c, 0, 71, 0
2, 6720, Note_on_c, 0, 62, 0
2, 6960, Note_on_c, 0, 66, 60
2, 6960, Note_on_c, 0, 74, 60
2, 7200, Note_on_c, 0, 74, 0
2, 7200, Note_on_c, 0, 73, 71
2, 7560, Note_on_c, 0, 73, 0
2, 7560, Note_on_c, 0, 71, 55
2, 7680, Note_on_c, 0, 71, 0
2, 7680, Note_on_c, 0, 69, 57
2, 7920, Note_on_c, 0, 69, 0
2, 7920, Note_on_c, 0, 69, 59
2, 8400, Note_on_c, 0, 69, 0
2, 8400, Note_on_c, 0, 66, 0
2, 8400, Note_on_c, 0, 66, 60
2, 8400, Note_on_c, 0, 74, 60
2, 8520, Note_on_c, 0, 74, 0
2, 8520, Note_on_c, 0, 73, 59
2, 8580, Note_on_c, 0, 73, 0
2, 8580, Note_on_c, 0, 74, 62
2, 8640, Note_on_c, 0, 74, 0
2, 8640, Note_on_c, 0, 73, 67
2, 9000, Note_on_c, 0, 73, 0
2, 9000, Note_on_c, 0, 71, 56
2, 9120, Note_on_c, 0, 71, 0
2, 9120, Note_on_c, 0, 69, 61
2, 9360, Note_on_c, 0, 69, 0
2, 9360, Note_on_c, 0, 69, 58
2, 9840, Note_on_c, 0, 69, 0
2, 9840, Note_on_c, 0, 66, 0
2, 9840, Note_on_c, 0, 66, 49
2, 9960, Note_on_c, 0, 66, 0
2, 9960, Note_on_c, 0, 67, 55
2, 10080, Note_on_c, 0, 67, 0
2, 10080, Note_on_c, 0, 62, 60
2, 10080, Note_on_c, 0, 69, 60
2, 10800, Note_on_c, 0, 69, 0
2, 10800, Note_on_c, 0, 62, 0
2, 10800, Note_on_c, 0, 61, 59
2, 10800, Note_on_c, 0, 69, 59
2, 11160, Note_on_c, 0, 69, 0
2, 11160, Note_on_c, 0, 61, 0
2, 11160, Note_on_c, 0, 64, 54
2, 11160, Note_on_c, 0, 73, 54
2, 11280, Note_on_c, 0, 73, 0
2, 11280, Note_on_c, 0, 64, 0
2, 11280, Note_on_c, 0, 67, 57
2, 11280, Note_on_c, 0, 76, 57
2, 11400, Note_on_c, 0, 76, 0
2, 11400, Note_on_c, 0, 67, 0
2, 11400, Note_on_c, 0, 69, 60
2, 11400, Note_on_c, 0, 78, 60
2, 11520, Note_on_c, 0, 78, 0
2, 11520, Note_on_c, 0, 69, 0
2, 11520, Note_on_c, 0, 67, 56
2, 11520, Note_on_c, 0, 76, 56
2, 11760, Note_on_c, 0, 76, 0
2, 11760, Note_on_c, 0, 67, 0
2, 11760, Note_on_c, 0, 66, 48
2, 11760, Note_on_c, 0, 74, 48
2, 12480, Note_on_c, 0, 74, 0
2, 12480, Note_on_c, 0, 66, 0
2, 12720, Note_on_c, 0, 78, 63
2, 12960, Note_on_c, 0, 78, 0
2, 12960, Note_on_c, 0, 67, 40
2, 12960, Note_on_c, 0, 70, 46
2, 12960, Note_on_c, 0, 76, 66
2, 13320, Note_on_c, 0, 76, 0
2, 13320, Note_on_c, 0, 74, 58
2, 13440, Note_on_c, 0, 74, 0
2, 13440, Note_on_c, 0, 73, 63
2, 13680, Note_on_c, 0, 73, 0
2, 13680, Note_on_c, 0, 70, 0
2, 13680, Note_on_c, 0, 67, 0
2, 13680, Note_on_c, 0, 65, 40
2, 13680, Note_on_c, 0, 68, 45
2, 13680, Note_on_c, 0, 74, 67
2, 14040, Note_on_c, 0, 74, 0
2, 14040, Note_on_c, 0, 71, 58
2, 14160, Note_on_c, 0, 71, 0
2, 14160, Note_on_c, 0, 74, 60
2, 14400, Note_on_c, 0, 74, 0
2, 14400, Note_on_c, 0, 68, 0
2, 14400, Note_on_c, 0, 65, 0
2, 14400, Note_on_c, 0, 66, 56
2, 14400, Note_on_c, 0, 70, 56
2, 14400, Note_on_c, 0, 73, 58
2, 15600, Note_on_c, 0, 73, 0
2, 15600, Note_on_c, 0, 70, 0
2, 15600, Note_on_c, 0, 66, 0
2, 15600, Note_on_c, 0, 78, 63
2, 15840, Note_on_c, 0, 78, 0
2, 15840, Note_on_c, 0, 67, 40
2, 15840, Note_on_c, 0, 70, 45
2, 15840, Note_on_c, 0, 77, 67
2, 16200, Note_on_c, 0, 77, 0
2, 16200, Note_on_c, 0, 76, 58
2, 16320, Note_on_c, 0, 76, 0
2, 16320, Note_on_c, 0, 74, 63
2, 16440, Note_on_c, 0, 74, 0
2, 16440, Note_on_c, 0, 73, 63
2, 16560, Note_on_c, 0, 73, 0
2, 16560, Note_on_c, 0, 70, 0
2, 16560, Note_on_c, 0, 67, 0
2, 16560, Note_on_c, 0, 65, 40
2, 16560, Note_on_c, 0, 68, 40
2, 16560, Note_on_c, 0, 76, 67
2, 16920, Note_on_c, 0, 76, 0
2, 16920, Note_on_c, 0, 74, 58
2, 17040, Note_on_c, 0, 74, 0
2, 17040, Note_on_c, 0, 71, 60
2, 17160, Note_on_c, 0, 71, 0
2, 17160, Note_on_c, 0, 74, 60
2, 17280, Note_on_c, 0, 74, 0
2, 17280, Note_on_c, 0, 68, 0
2, 17280, Note_on_c, 0, 65, 0
2, 17280, Note_on_c, 0, 66, 56
2, 17280, Note_on_c, 0, 70, 56
2, 17280, Note_on_c, 0, 73, 56
2, 18480, Note_on_c, 0, 73, 0
2, 18480, Note_on_c, 0, 70, 0
2, 18480, Note_on_c, 0, 66, 0
2, 18480, Note_on_c, 0, 66, 45
2, 18480, Note_on_c, 0, 71, 45
2, 18480, Note_on_c, 0, 75, 53
2, 18600, Note_on_c, 0, 75, 0
2, 18600, Note_on_c, 0, 77, 53
2, 18720, Note_on_c, 0, 77, 0
2, 18720, Note_on_c, 0, 71, 0
2, 18720, Note_on_c, 0, 66, 0
2, 18720, Note_on_c, 0, 66, 47
2, 18720, Note_on_c, 0, 70, 47
2, 18720, Note_on_c, 0, 73, 56
2, 19920, Note_on_c, 0, 73, 0
2, 19920, Note_on_c, 0, 70, 0
2, 19920, Note_on_c, 0, 66, 0
2, 19920, Note_on_c, 0, 66, 45
2, 19920, Note_on_c, 0, 71, 45
2, 19920, Note_on_c, 0, 75, 53
2, 20040, Note_on_c, 0, 75, 0
2, 20040, Note_on_c, 0, 77, 53
2, 20160, Note_on_c, 0, 77, 0
2, 20160, Note_on_c, 0, 71, 0
2, 20160, Note_on_c, 0, 66, 0
2, 20160, Note_on_c, 0, 66, 47
2, 20160, Note_on_c, 0, 70, 47
2, 20160, Note_on_c, 0, 73, 56
2, 20400, Note_on_c, 0, 73, 0
2, 20400, Note_on_c, 0, 78, 56
2, 20640, Note_on_c, 0, 78, 0
2, 20640, Note_on_c, 0, 70, 0
2, 20640, Note_on_c, 0, 66, 0
2, 20640, Note_on_c, 0, 66, 45
2, 20640, Note_on_c, 0, 71, 45
2, 20640, Note_on_c, 0, 75, 53
2, 20760, Note_on_c, 0, 75, 0
2, 20760, Note_on_c, 0, 77, 53
2, 20880, Note_on_c, 0, 77, 0
2, 20880, Note_on_c, 0, 71, 0
2, 20880, Note_on_c, 0, 66, 0
2, 20880, Note_on_c, 0, 66, 47
2, 20880, Note_on_c, 0, 70, 47
2, 20880, Note_on_c, 0, 73, 56
2, 21120, Note_on_c, 0, 73, 0
2, 21120, Note_on_c, 0, 78, 56
2, 21360, Note_on_c, 0, 78, 0
2, 21360, Note_on_c, 0, 70, 0
2, 21360, Note_on_c, 0, 66, 0
2, 21360, Note_on_c, 0, 66, 45
2, 21360, Note_on_c, 0, 71, 45
2, 21360, Note_on_c, 0, 75, 53
2, 21480, Note_on_c, 0, 75, 0
2, 21480, Note_on_c, 0, 77, 53
2, 21600, Note_on_c, 0, 77, 0
2, 21600, Note_on_c, 0, 71, 0
2, 21600, Note_on_c, 0, 66, 0
2, 21600, Note_on_c, 0, 66, 49
2, 21600, Note_on_c, 0, 70, 49
2, 21600, Note_on_c, 0, 73, 58
2, 21840, Note_on_c, 0, 73, 0
2, 21840, Note_on_c, 0, 78, 60
2, 22080, Note_on_c, 0, 78, 0
2, 22080, Note_on_c, 0, 70, 0
2, 22080, Note_on_c, 0, 66, 0
2, 22080, Note_on_c, 0, 66, 60
2, 22080, Note_on_c, 0, 70, 60
2, 22080, Note_on_c, 0, 73, 71
2, 22320, Note_on_c, 0, 73, 0
2, 22320, Note_on_c, 0, 78, 73
2, 22560, Note_on_c, 0, 78, 0
2, 22560, Note_on_c, 0, 70, 0
2, 22560, Note_on_c, 0, 66, 0
2, 22560, Note_on_c, 0, 71, 64
2, 22560, Note_on_c, 0, 75, 64
2, 22560, Note_on_c, 0, 78, 81
2, 22800, Note_on_c, 0, 78, 0
2, 22800, Note_on_c, 0, 83, 82
2, 23040, Note_on_c, 0, 83, 0
2, 23040, Note_on_c, 0, 75, 0
2, 23040, Note_on_c, 0, 71, 0
2, 23040, Note_on_c, 0, 72, 55
2, 23040, Note_on_c, 0, 75, 55
2, 23040, Note_on_c, 0, 81, 86
2, 23400, Note_on_c, 0, 81, 0
2, 23400, Note_on_c, 0, 79, 72
2, 23520, Note_on_c, 0, 79, 0
2, 23520, Note_on_c, 0, 78, 77
2, 23760, Note_on_c, 0, 78, 0
2, 23760, Note_on_c, 0, 78, 79
2, 24240, Note_on_c, 0, 78, 0
2, 24240, Note_on_c, 0, 75, 0
2, 24240, Note_on_c, 0, 72, 0
2, 24240, Note_on_c, 0, 71, 63
2, 24240, Note_on_c, 0, 67, 63
2, 24240, Note_on_c, 0, 79, 63
2, 24480, Note_on_c, 0, 79, 0
2, 24480, Note_on_c, 0, 78, 70
2, 24840, Note_on_c, 0, 78, 0
2, 24840, Note_on_c, 0, 76, 48
2, 24880, Note_on_c, 0, 76, 0
2, 24880, Note_on_c, 0, 78, 48
2, 24920, Note_on_c, 0, 78, 0
2, 24920, Note_on_c, 0, 76, 48
2, 24960, Note_on_c, 0, 76, 0
2, 24960, Note_on_c, 0, 74, 59
2, 25200, Note_on_c, 0, 74, 0
2, 25200, Note_on_c, 0, 67, 0
2, 25200, Note_on_c, 0, 71, 0
2, 25200, Note_on_c, 0, 67, 42
2, 25200, Note_on_c, 0, 71, 42
2, 25200, Note_on_c, 0, 74, 50
2, 25680, Note_on_c, 0, 74, 0
2, 25680, Note_on_c, 0, 71, 0
2, 25680, Note_on_c, 0, 67, 0
2, 25680, Note_on_c, 0, 62, 44
2, 25800, Note_on_c, 0, 62, 0
2, 25800, Note_on_c, 0, 64, 47
2, 25920, Note_on_c, 0, 64, 0
2, 25920, Note_on_c, 0, 59, 51
2, 25920, Note_on_c, 0, 66, 51
2, 26640, Note_on_c, 0, 66, 0
2, 26640, Note_on_c, 0, 59, 0
2, 26640, Note_on_c, 0, 58, 53
2, 26640, Note_on_c, 0, 66, 53
2, 27000, Note_on_c, 0, 66, 0
2, 27000, Note_on_c, 0, 58, 0
2, 27000, Note_on_c, 0, 61, 48
2, 27000, Note_on_c, 0, 70, 48
2, 27120, Note_on_c, 0, 70, 0
2, 27120, Note_on_c, 0, 61, 0
2, 27120, Note_on_c, 0, 64, 51
2, 27120, Note_on_c, 0, 73, 51
2, 27240, Note_on_c, 0, 73, 0
2, 27240, Note_on_c, 0, 64, 0
2, 27240, Note_on_c, 0, 66, 54
2, 27240, Note_on_c, 0, 74, 54
2, 27360, Note_on_c, 0, 74, 0
2, 27360, Note_on_c, 0, 66, 0
2, 27360, Note_on_c, 0, 64, 50
2, 27360, Note_on_c, 0, 73, 50
2, 27600, Note_on_c, 0, 73, 0
2, 27600, Note_on_c, 0, 64, 0
2, 27600, Note_on_c, 0, 62, 43
2, 27600, Note_on_c, 0, 71, 43
2, 28320, Note_on_c, 0, 71, 0
2, 28320, Note_on_c, 0, 62, 0
2, 28560, Note_on_c, 0, 78, 63
2, 28800, Note_on_c, 0, 78, 0
2, 28800, Note_on_c, 0, 67, 40
2, 28800, Note_on_c, 0, 70, 46
2, 28800, Note_on_c, 0, 76, 66
2, 29160, Note_on_c, 0, 76, 0
2, 29160, Note_on_c, 0, 74, 58
2, 29280, Note_on_c, 0, 74, 0
2, 29280, Note_on_c, 0, 73, 63
2, 29520, Note_on_c, 0, 73, 0
2, 29520, Note_on_c, 0, 70, 0
2, 29520, Note_on_c, 0, 67, 0
2, 29520, Note_on_c, 0, 65, 40
2, 29520, Note_on_c, 0, 68, 45
2, 29520, Note_on_c, 0, 74, 67
2, 29880, Note_on_c, 0, 74, 0
2, 29880, Note_on_c, 0, 71, 58
2, 30000, Note_on_c, 0, 71, 0
2, 30000, Note_on_c, 0, 74, 60
2, 30240, Note_on_c, 0, 74, 0
2, 30240, Note_on_c, 0, 68, 0
2, 30240, Note_on_c, 0, 65, 0
2, 30240, Note_on_c, 0, 66, 56
2, 30240, Note_on_c, 0, 70, 56
2, 30240, Note_on_c, 0, 73, 58
2, 31440, Note_on_c, 0, 73, 0
2, 31440, Note_on_c, 0, 70, 0
2, 31440, Note_on_c, 0, 66, 0
2, 31440, Note_on_c, 0, 78, 63
2, 31680, Note_on_c, 0, 78, 0
2, 31680, Note_on_c, 0, 67, 40
2, 31680, Note_on_c, 0, 70, 45
2, 31680, Note_on_c, 0, 77, 67
2, 32040, Note_on_c, 0, 77, 0
2, 32040, Note_on_c, 0, 76, 58
2, 32160, Note_on_c, 0, 76, 0
2, 32160, Note_on_c, 0, 74, 63
2, 32280, Note_on_c, 0, 74, 0
2, 32280, Note_on_c, 0, 73, 63
2, 32400, Note_on_c, 0, 73, 0
2, 32400, Note_on_c, 0, 70, 0
2, 32400, Note_on_c, 0, 67, 0
2, 32400, Note_on_c, 0, 65, 40
2, 32400, Note_on_c, 0, 68, 40
2, 32400, Note_on_c, 0, 76, 67
2, 32760, Note_on_c, 0, 76, 0
2, 32760, Note_on_c, 0, 74, 58
2, 32880, Note_on_c, 0, 74, 0
2, 32880, Note_on_c, 0, 71, 60
2, 33000, Note_on_c, 0, 71, 0
2, 33000, Note_on_c, 0, 74, 60
2, 33120, Note_on_c, 0, 74, 0
2, 33120, Note_on_c, 0, 68, 0
2, 33120, Note_on_c, 0, 65, 0
2, 33120, Note_on_c, 0, 66, 56
2, 33120, Note_on_c, 0, 70, 56
2, 33120, Note_on_c, 0, 73, 56
2, 34320, Note_on_c, 0, 73, 0
2, 34320, Note_on_c, 0, 70, 0
2, 34320, Note_on_c, 0, 66, 0
2, 34320, Note_on_c, 0, 66, 45
2, 34320, Note_on_c, 0, 71, 45
2, 34320, Note_on_c, 0, 75, 53
2, 34440, Note_on_c, 0, 75, 0
2, 34440, Note_on_c, 0, 77, 53
2, 34560, Note_on_c, 0, 77, 0
2, 34560, Note_on_c, 0, 71, 0
2, 34560, Note_on_c, 0, 66, 0
2, 34560, Note_on_c, 0, 66, 47
2, 34560, Note_on_c, 0, 70, 47
2, 34560, Note_on_c, 0, 73, 56
2, 35760, Note_on_c, 0, 73, 0
2, 35760, Note_on_c, 0, 70, 0
2, 35760, Note_on_c, 0, 66, 0
2, 35760, Note_on_c, 0, 66, 45
2, 35760, Note_on_c, 0, 71, 45
2, 35760, Note_on_c, 0, 75, 53
2, 35880, Note_on_c, 0, 75, 0
2, 35880, Note_on_c, 0, 77, 53
2, 36000, Note_on_c, 0, 77, 0
2, 36000, Note_on_c, 0, 71, 0
2, 36000, Note_on_c, 0, 66, 0
2, 36000, Note_on_c, 0, 66, 47
2, 36000, Note_on_c, 0, 70, 47
2, 36000, Note_on_c, 0, 73, 56
2, 36240, Note_on_c, 0, 73, 0
2, 36240, Note_on_c, 0, 78, 56
2, 36480, Note_on_c, 0, 78, 0
2, 36480, Note_on_c, 0, 70, 0
2, 36480, Note_on_c, 0, 66, 0
2, 36480, Note_on_c, 0, 66, 45
2, 36480, Note_on_c, 0, 71, 45
2, 36480, Note_on_c, 0, 75, 53
2, 36600, Note_on_c, 0, 75, 0
2, 36600, Note_on_c, 0, 77, 53
2, 36720, Note_on_c, 0, 77, 0
2, 36720, Note_on_c, 0, 71, 0
2, 36720, Note_on_c, 0, 66, 0
2, 36720, Note_on_c, 0, 66, 47
2, 36720, Note_on_c, 0, 70, 47
2, 36720, Note_on_c, 0, 73, 56
2, 36960, Note_on_c, 0, 73, 0
2, 36960, Note_on_c, 0, 78, 56
2, 37200, Note_on_c, 0, 78, 0
2, 37200, Note_on_c, 0, 70, 0
2, 37200, Note_on_c, 0, 66, 0
2, 37200, Note_on_c, 0, 66, 45
2, 37200, Note_on_c, 0, 71, 45
2, 37200, Note_on_c, 0, 75, 53
2, 37320, Note_on_c, 0, 75, 0
2, 37320, Note_on_c, 0, 77, 53
2, 37440, Note_on_c, 0, 77, 0
2, 37440, Note_on_c, 0, 71, 0
2, 37440, Note_on_c, 0, 66, 0
2, 37440, Note_on_c, 0, 66, 49
2, 37440, Note_on_c, 0, 70, 49
2, 37440, Note_on_c, 0, 73, 58
2, 37680, Note_on_c, 0, 73, 0
2, 37680, Note_on_c, 0, 78, 60
2, 37920, Note_on_c, 0, 78, 0
2, 37920, Note_on_c, 0, 70, 0
2, 37920, Note_on_c, 0, 66, 0
2, 37920, Note_on_c, 0, 66, 60
2, 37920, Note_on_c, 0, 70, 60
2, 37920, Note_on_c, 0, 73, 71
2, 38160, Note_on_c, 0, 73, 0
2, 38160, Note_on_c, 0, 78, 73
2, 38400, Note_on_c, 0, 78, 0
2, 38400, Note_on_c, 0, 70, 0
2, 38400, Note_on_c, 0, 66, 0
2, 38400, Note_on_c, 0, 71, 64
2, 38400, Note_on_c, 0, 75, 64
2, 38400, Note_on_c, 0, 78, 80
2, 38640, Note_on_c, 0, 78, 0
2, 38640, Note_on_c, 0, 83, 82
2, 38880, Note_on_c, 0, 83, 0
2, 38880, Note_on_c, 0, 75, 0
2, 38880, Note_on_c, 0, 71, 0
2, 38880, Note_on_c, 0, 72, 55
2, 38880, Note_on_c, 0, 75, 55
2, 38880, Note_on_c, 0, 81, 86
2, 39240, Note_on_c, 0, 81, 0
2, 39240, Note_on_c, 0, 79, 72
2, 39360, Note_on_c, 0, 79, 0
2, 39360, Note_on_c, 0, 78, 77
2, 39600, Note_on_c, 0, 78, 0
2, 39600, Note_on_c, 0, 78, 79
2, 40080, Note_on_c, 0, 78, 0
2, 40080, Note_on_c, 0, 75, 0
2, 40080, Note_on_c, 0, 72, 0
2, 40080, Note_on_c, 0, 71, 63
2, 40080, Note_on_c, 0, 67, 63
2, 40080, Note_on_c, 0, 79, 63
2, 40320, Note_on_c, 0, 79, 0
2, 40320, Note_on_c, 0, 78, 70
2, 40680, Note_on_c, 0, 78, 0
2, 40680, Note_on_c, 0, 76, 41
2, 40720, Note_on_c, 0, 76, 0
2, 40720, Note_on_c, 0, 78, 41
2, 40760, Note_on_c, 0, 78, 0
2, 40760, Note_on_c, 0, 76, 40
2, 40800, Note_on_c, 0, 76, 0
2, 40800, Note_on_c, 0, 74, 48
2, 41040, Note_on_c, 0, 74, 0
2, 41040, Note_on_c, 0, 67, 0
2, 41040, Note_on_c, 0, 71, 0
2, 41040, Note_on_c, 0, 67, 31
2, 41040, Note_on_c, 0, 71, 31
2, 41040, Note_on_c, 0, 74, 37
2, 41520, Note_on_c, 0, 74, 0
2, 41520, Note_on_c, 0, 71, 0
2, 41520, Note_on_c, 0, 67, 0
2, 41520, Note_on_c, 0, 62, 39
2, 41640, Note_on_c, 0, 62, 0
2, 41640, Note_on_c, 0, 64, 42
2, 41760, Note_on_c, 0, 64, 0
2, 41760, Note_on_c, 0, 59, 45
2, 41760, Note_on_c, 0, 66, 45
2, 42480, Note_on_c, 0, 66, 0
2, 42480, Note_on_c, 0, 59, 0
2, 42480, Note_on_c, 0, 58, 47
2, 42480, Note_on_c, 0, 66, 47
2, 42840, Note_on_c, 0, 66, 0
2, 42840, Note_on_c, 0, 58, 0
2, 42840, Note_on_c, 0, 61, 43
2, 42840, Note_on_c, 0, 70, 43
2, 42960, Note_on_c, 0, 70, 0
2, 42960, Note_on_c, 0, 61, 0
2, 42960, Note_on_c, 0, 64, 45
2, 42960, Note_on_c, 0, 73, 45
2, 43080, Note_on_c, 0, 73, 0
2, 43080, Note_on_c, 0, 64, 0
2, 43080, Note_on_c, 0, 66, 48
2, 43080, Note_on_c, 0, 74, 48
2, 43200, Note_on_c, 0, 74, 0
2, 43200, Note_on_c, 0, 66, 0
2, 43200, Note_on_c, 0, 64, 50
2, 43200, Note_on_c, 0, 73, 50
2, 43440, Note_on_c, 0, 73, 0
2, 43440, Note_on_c, 0, 64, 0
2, 43440, Note_on_c, 0, 62, 43
2, 43440, Note_on_c, 0, 71, 43
2, 44160, Note_on_c, 0, 71, 0
2, 44160, Note_on_c, 0, 62, 0
2, 44160, End_track
3, 0, Start_track
3, 0, Title_t, "Piano left"
3, 0, Program_c, 0, 0
3, 1200, Note_on_c, 0, 59, 42
3, 1440, Note_on_c, 0, 57, 47
3, 1800, Note_on_c, 0, 57, 0
3, 1800, Note_on_c, 0, 55, 36
3, 1920, Note_on_c, 0, 55, 0
3, 1920, Note_on_c, 0, 54, 43
3, 2160, Note_on_c, 0, 54, 0
3, 2160, Note_on_c, 0, 54, 42
3, 2640, Note_on_c, 0, 54, 0
3, 2640, Note_on_c, 0, 59, 0
3, 2640, Note_on_c, 0, 59, 42
3, 2880, Note_on_c, 0, 57, 47
3, 3240, Note_on_c, 0, 57, 0
3, 3240, Note_on_c, 0, 55, 36
3, 3360, Note_on_c, 0, 55, 0
3, 3360, Note_on_c, 0, 54, 43
3, 3600, Note_on_c, 0, 54, 0
3, 3600, Note_on_c, 0, 54, 42
3, 4080, Note_on_c, 0, 54, 0
3, 4080, Note_on_c, 0, 59, 0
3, 4080, Note_on_c, 0, 47, 40
3, 4200, Note_on_c, 0, 47, 0
3, 4200, Note_on_c, 0, 49, 44
3, 4320, Note_on_c, 0, 49, 0
3, 4320, Note_on_c, 0, 50, 47
3, 4800, Note_on_c, 0, 42, 61
3, 5040, Note_on_c, 0, 50, 0
3, 5040, Note_on_c, 0, 52, 43
3, 5400, Note_on_c, 0, 52, 0
3, 5400, Note_on_c, 0, 54, 41
3, 5520, Note_on_c, 0, 54, 0
3, 5520, Note_on_c, 0, 55, 43
3, 5760, Note_on_c, 0, 55, 0
3, 5760, Note_on_c, 0, 42, 0
3, 5760, Note_on_c, 0, 47, 42
3, 5760, Note_on_c, 0, 55, 42
3, 6000, Note_on_c, 0, 55, 0
3, 6000, Note_on_c, 0, 54, 39
3, 6240, Note_on_c, 0, 47, 0
3, 6240, Note_on_c, 0, 42, 36
3, 6480, Note_on_c, 0, 42, 0
3, 6480, Note_on_c, 0, 35, 33
3, 6720, Note_on_c, 0, 35, 0
3, 6720, Note_on_c, 0, 54, 0
3, 6960, Note_on_c, 0, 62, 42
3, 7200, Note_on_c, 0, 61, 53
3, 7560, Note_on_c, 0, 61, 0
3, 7560, Note_on_c, 0, 59, 36
3, 7680, Note_on_c, 0, 59, 0
3, 7680, Note_on_c, 0, 57, 43
3, 7920, Note_on_c, 0, 57, 0
3, 7920, Note_on_c, 0, 57, 42
3, 8400, Note_on_c, 0, 57, 0
3, 8400, Note_on_c, 0, 62, 0
3, 8400, Note_on_c, 0, 62, 42
3, 8640, Note_on_c, 0, 61, 47
3, 9000, Note_on_c, 0, 61, 0
3, 9000, Note_on_c, 0, 59, 36
3, 9120, Note_on_c, 0, 59, 0
3, 9120, Note_on_c, 0, 57, 43
3, 9360, Note_on_c, 0, 57, 0
3, 9360, Note_on_c, 0, 57, 42
3, 9840, Note_on_c, 0, 57, 0
3, 9840, Note_on_c, 0, 62, 0
3, 9840, Note_on_c, 0, 50, 40
3, 9960, Note_on_c, 0, 50, 0
3, 9960, Note_on_c, 0, 52, 44
3, 10080, Note_on_c, 0, 52, 0
3, 10080, Note_on_c, 0, 54, 47
3, 10560, Note_on_c, 0, 45, 61
3, 10800, Note_on_c, 0, 54, 0
3, 10800, Note_on_c, 0, 55, 51
3, 11160, Note_on_c, 0, 55, 0
3, 11160, Note_on_c, 0, 57, 41
3, 11280, Note_on_c, 0, 57, 0
3, 11280, Note_on_c, 0, 59, 43
3, 11520, Note_on_c, 0, 59, 0
3, 11520, Note_on_c, 0, 45, 0
3, 11520, Note_on_c, 0, 50, 42
3, 11520, Note_on_c, 0, 59, 42
3, 11760, Note_on_c, 0, 59, 0
3, 11760, Note_on_c, 0, 57, 39
3, 12000, Note_on_c, 0, 50, 0
3, 12000, Note_on_c, 0, 45, 35
3, 12240, Note_on_c, 0, 45, 0
3, 12240, Note_on_c, 0, 38, 31
3, 12480, Note_on_c, 0, 38, 0
3, 12480, Note_on_c, 0, 57, 0
3, 12720, Note_on_c, 0, 66, 49
3, 12960, Note_on_c, 0, 66, 0
3, 12960, Note_on_c, 0, 64, 49
3, 13320, Note_on_c, 0, 64, 0
3, 13320, Note_on_c, 0, 62, 45
3, 13440, Note_on_c, 0, 62, 0
3, 13440, Note_on_c, 0, 61, 49
3, 13680, Note_on_c, 0, 61, 0
3, 13680, Note_on_c, 0, 62, 57
3, 14040, Note_on_c, 0, 62, 0
3, 14040, Note_on_c, 0, 59, 46
3, 14160, Note_on_c, 0, 59, 0
3, 14160, Note_on_c, 0, 62, 49
3, 14400, Note_on_c, 0, 62, 0
3, 14400, Note_on_c, 0, 61, 44
3, 14880, Note_on_c, 0, 61, 0
3, 14880, Note_on_c, 0, 49, 42
3, 15120, Note_on_c, 0, 49, 0
3, 15120, Note_on_c, 0, 42, 42
3, 15600, Note_on_c, 0, 42, 0
3, 15600, Note_on_c, 0, 66, 49
3, 15840, Note_on_c, 0, 66, 0
3, 15840, Note_on_c, 0, 65, 49
3, 16200, Note_on_c, 0, 65, 0
3, 16200, Note_on_c, 0, 64, 45
3, 16320, Note_on_c, 0, 64, 0
3, 16320, Note_on_c, 0, 62, 49
3, 16440, Note_on_c, 0, 62, 0
3, 16440, Note_on_c, 0, 61, 49
3, 16560, Note_on_c, 0, 61, 0
3, 16560, Note_on_c, 0, 64, 57
3, 16920, Note_on_c, 0, 64, 0
3, 16920, Note_on_c, 0, 62, 46
3, 17040, Note_on_c, 0, 62, 0
3, 17040, Note_on_c, 0, 59, 49
3, 17160, Note_on_c, 0, 59, 0
3, 17160, Note_on_c, 0, 62, 49
3, 17280, Note_on_c, 0, 62, 0
3, 17280, Note_on_c, 0, 61, 44
3, 17760, Note_on_c, 0, 61, 0
3, 17760, Note_on_c, 0, 49, 42
3, 18000, Note_on_c, 0, 49, 0
3, 18000, Note_on_c, 0, 42, 42
3, 18480, Note_on_c, 0, 42, 0
3, 18480, Note_on_c, 0, 61, 44
3, 18720, Note_on_c, 0, 54, 44
3, 19200, Note_on_c, 0, 54, 0
3, 19200, Note_on_c, 0, 61, 0
3, 19200, Note_on_c, 0, 49, 42
3, 19440, Note_on_c, 0, 49, 0
3, 19440, Note_on_c, 0, 42, 42
3, 19920, Note_on_c, 0, 42, 0
3, 19920, Note_on_c, 0, 61, 44
3, 20160, Note_on_c, 0, 54, 44
3, 20640, Note_on_c, 0, 54, 0
3, 20640, Note_on_c, 0, 61, 0
3, 20640, Note_on_c, 0, 61, 44
3, 20880, Note_on_c, 0, 54, 44
3, 21360, Note_on_c, 0, 54, 0
3, 21360, Note_on_c, 0, 61, 0
3, 21360, Note_on_c, 0, 61, 44
3, 21600, Note_on_c, 0, 54, 46
3, 22080, Note_on_c, 0, 54, 0
3, 22080, Note_on_c, 0, 61, 0
3, 22080, Note_on_c, 0, 47, 56
3, 22080, Note_on_c, 0, 54, 56
3, 22560, Note_on_c, 0, 54, 0
3, 22560, Note_on_c, 0, 47, 0
3, 22560, Note_on_c, 0, 40, 59
3, 22560, Note_on_c, 0, 47, 59
3, 23040, Note_on_c, 0, 47, 0
3, 23040, Note_on_c, 0, 40, 0
3, 23040, Note_on_c, 0, 69, 62
3, 23400, Note_on_c, 0, 69, 0
3, 23400, Note_on_c, 0, 67, 56
3, 23520, Note_on_c, 0, 67, 0
3, 23520, Note_on_c, 0, 66, 65
3, 23760, Note_on_c, 0, 66, 0
3, 23760, Note_on_c, 0, 66, 66
3, 24240, Note_on_c, 0, 66, 0
3, 24240, Note_on_c, 0, 67, 44
3, 24480, Note_on_c, 0, 67, 0
3, 24480, Note_on_c, 0, 66, 51
3, 24840, Note_on_c, 0, 66, 0
3, 24840, Note_on_c, 0, 64, 32
3, 24960, Note_on_c, 0, 64, 0
3, 24960, Note_on_c, 0, 62, 40
3, 25200, Note_on_c, 0, 62, 0
3, 25200, Note_on_c, 0, 55, 34
3, 25200, Note_on_c, 0, 62, 40
3, 25678, Note_on_c, 0, 62, 0
3, 25680, Note_on_c, 0, 55, 0
3, 25680, Note_on_c, 0, 47, 39
3, 25800, Note_on_c, 0, 47, 0
3, 25800, Note_on_c, 0, 49, 42
3, 25920, Note_on_c, 0, 49, 0
3, 25920, Note_on_c, 0, 50, 45
3, 26400, Note_on_c, 0, 42, 54
3, 26640, Note_on_c, 0, 50, 0
3, 26640, Note_on_c, 0, 52, 45
3, 27000, Note_on_c, 0, 52, 0
3, 27000, Note_on_c, 0, 54, 36
3, 27120, Note_on_c, 0, 54, 0
3, 27120, Note_on_c, 0, 55, 38
3, 27360, Note_on_c, 0, 55, 0
3, 27360, Note_on_c, 0, 42, 0
3, 27360, Note_on_c, 0, 47, 37
3, 27360, Note_on_c, 0, 55, 37
3, 27600, Note_on_c, 0, 55, 0
3, 27600, Note_on_c, 0, 54, 35
3, 27840, Note_on_c, 0, 47, 0
3, 27840, Note_on_c, 0, 42, 31
3, 28080, Note_on_c, 0, 42, 0
3, 28080, Note_on_c, 0, 35, 28
3, 28320, Note_on_c, 0, 35, 0
3, 28320, Note_on_c, 0, 54, 0
3, 28560, Note_on_c, 0, 66, 49
3, 28800, Note_on_c, 0, 66, 0
3, 28800, Note_on_c, 0, 64, 49
3, 29160, Note_on_c, 0, 64, 0
3, 29160, Note_on_c, 0, 62, 45
3, 29280, Note_on_c, 0, 62, 0
3, 29280, Note_on_c, 0, 61, 49
3, 29520, Note_on_c, 0, 61, 0
3, 29520, Note_on_c, 0, 62, 57
3, 29880, Note_on_c, 0, 62, 0
3, 29880, Note_on_c, 0, 59, 46
3, 30000, Note_on_c, 0, 59, 0
3, 30000, Note_on_c, 0, 62, 49
3, 30240, Note_on_c, 0, 62, 0
3, 30240, Note_on_c, 0, 61, 44
3, 30720, Note_on_c, 0, 61, 0
3, 30720, Note_on_c, 0, 49, 42
3, 30960, Note_on_c, 0, 49, 0
3, 30960, Note_on_c, 0, 42, 42
3, 31440, Note_on_c, 0, 42, 0
3, 31440, Note_on_c, 0, 66, 49
3, 31680, Note_on_c, 0, 66, 0
3, 31680, Note_on_c, 0, 65, 49
3, 32040, Note_on_c, 0, 65, 0
3, 32040, Note_on_c, 0, 64, 45
3, 32160, Note_on_c, 0, 64, 0
3, 32160, Note_on_c, 0, 62, 49
3, 32280, Note_on_c, 0, 62, 0
3, 32280, Note_on_c, 0, 61, 49
3, 32400, Note_on_c, 0, 61, 0
3, 32400, Note_on_c, 0, 64, 57
3, 32760, Note_on_c, 0, 64, 0
3, 32760, Note_on_c, 0, 62, 46
3, 32880, Note_on_c, 0, 62, 0
3, 32880, Note_on_c, 0, 59, 49
3, 33000, Note_on_c, 0, 59, 0
3, 33000, Note_on_c, 0, 62, 49
3, 33120, Note_on_c, 0, 62, 0
3, 33120, Note_on_c, 0, 61, 44
3, 33600, Note_on_c, 0, 61, 0
3, 33600, Note_on_c, 0, 49, 42
3, 33840, Note_on_c, 0, 49, 0
3, 33840, Note_on_c, 0, 42, 42
3, 34320, Note_on_c, 0, 42, 0
3, 34320, Note_on_c, 0, 61, 44
3, 34560, Note_on_c, 0, 54, 44
3, 35040, Note_on_c, 0, 54, 0
3, 35040, Note_on_c, 0, 61, 0
3, 35040, Note_on_c, 0, 49, 42
3, 35280, Note_on_c, 0, 49, 0
3, 35280, Note_on_c, 0, 42, 42
3, 35760, Note_on_c, 0, 42, 0
3, 35760, Note_on_c, 0, 61, 44
3, 36000, Note_on_c, 0, 54, 44
3, 36480, Note_on_c, 0, 54, 0
3, 36480, Note_on_c, 0, 61, 0
3, 36480, Note_on_c, 0, 61, 44
3, 36720, Note_on_c, 0, 54, 44
3, 37200, Note_on_c, 0, 54, 0
3, 37200, Note_on_c, 0, 61, 0
3, 37200, Note_on_c, 0, 61, 44
3, 37440, Note_on_c, 0, 54, 46
3, 37920, Note_on_c, 0, 54, 0
3, 37920, Note_on_c, 0, 61, 0
3, 37920, Note_on_c, 0, 47, 56
3, 37920, Note_on_c, 0, 54, 56
3, 38400, Note_on_c, 0, 54, 0
3, 38400, Note_on_c, 0, 47, 0
3, 38400, Note_on_c, 0, 40, 59
3, 38400, Note_on_c, 0, 47, 59
3, 38880, Note_on_c, 0, 47, 0
3, 38880, Note_on_c, 0, 40, 0
3, 38887, Note_on_c, 0, 69, 62
3, 39240, Note_on_c, 0, 67, 56
3, 39247, Note_on_c, 0, 69, 0
3, 39360, Note_on_c, 0, 67, 0
3, 39360, Note_on_c, 0, 66, 65
3, 39600, Note_on_c, 0, 66, 0
3, 39600, Note_on_c, 0, 66, 66
3, 40080, Note_on_c, 0, 66, 0
3, 40080, Note_on_c, 0, 67, 44
3, 40320, Note_on_c, 0, 67, 0
3, 40320, Note_on_c, 0, 66, 51
3, 40680, Note_on_c, 0, 66, 0
3, 40680, Note_on_c, 0, 64, 27
3, 40800, Note_on_c, 0, 64, 0
3, 40800, Note_on_c, 0, 62, 33
3, 41040, Note_on_c, 0, 62, 0
3, 41040, Note_on_c, 0, 55, 25
3, 41040, Note_on_c, 0, 62, 29
3, 41518, Note_on_c, 0, 62, 0
3, 41520, Note_on_c, 0, 55, 0
3, 41520, Note_on_c, 0, 47, 35
3, 41640, Note_on_c, 0, 47, 0
3, 41640, Note_on_c, 0, 49, 37
3, 41760, Note_on_c, 0, 49, 0
3, 41760, Note_on_c, 0, 50, 40
3, 42240, Note_on_c, 0, 42, 48
3, 42480, Note_on_c, 0, 50, 0
3, 42480, Note_on_c, 0, 52, 40
3, 42840, Note_on_c, 0, 52, 0
3, 42840, Note_on_c, 0, 54, 32
3, 42960, Note_on_c, 0, 54, 0
3, 42960, Note_on_c, 0, 55, 34
3, 43200, Note_on_c, 0, 55, 0
3, 43200, Note_on_c, 0, 42, 0
3, 43200, Note_on_c, 0, 47, 37
3, 43200, Note_on_c, 0, 55, 37
3, 43440, Note_on_c, 0, 55, 0
3, 43440, Note_on_c, 0, 54, 34
3, 43680, Note_on_c, 0, 47, 0
3, 43680, Note_on_c, 0, 42, 30
3, 43920, Note_on_c, 0, 42, 0
3, 43920, Note_on_c, 0, 35, 27
3, 44160, Note_on_c, 0, 35, 0
3, 44160, Note_on_c, 0, 54, 0
3, 44160, End_track
4, 0, Start_track
4, 0, Title_t, "Pedale"
4, 0, Program_c, 0, 0
4, 4123, Control_c, 0, 64, 127
4, 4320, Control_c, 0, 64, 0
4, 4440, Control_c, 0, 64, 127
4, 5057, Control_c, 0, 64, 0
4, 5560, Control_c, 0, 64, 127
4, 5769, Control_c, 0, 64, 0
4, 5827, Control_c, 0, 64, 127
4, 6018, Control_c, 0, 64, 0
4, 6134, Control_c, 0, 64, 127
4, 6760, Control_c, 0, 64, 0
4, 9883, Control_c, 0, 64, 127
4, 10080, Control_c, 0, 64, 0
4, 10200, Control_c, 0, 64, 127
4, 10817, Control_c, 0, 64, 0
4, 11320, Control_c, 0, 64, 127
4, 11529, Control_c, 0, 64, 0
4, 11587, Control_c, 0, 64, 127
4, 11778, Control_c, 0, 64, 0
4, 11894, Control_c, 0, 64, 127
4, 12614, Control_c, 0, 64, 0
4, 13836, Control_c, 0, 64, 127
4, 14405, Control_c, 0, 64, 0
4, 14654, Control_c, 0, 64, 127
4, 15600, Control_c, 0, 64, 0
4, 16646, Control_c, 0, 64, 127
4, 17285, Control_c, 0, 64, 0
4, 17414, Control_c, 0, 64, 127
4, 18480, Control_c, 0, 64, 0
4, 18854, Control_c, 0, 64, 127
4, 19920, Control_c, 0, 64, 0
4, 20294, Control_c, 0, 64, 127
4, 20652, Control_c, 0, 64, 0
4, 21014, Control_c, 0, 64, 127
4, 21372, Control_c, 0, 64, 0
4, 21734, Control_c, 0, 64, 127
4, 22572, Control_c, 0, 64, 0
4, 22840, Control_c, 0, 64, 127
4, 24240, Control_c, 0, 64, 0
4, 24534, Control_c, 0, 64, 127
4, 25212, Control_c, 0, 64, 0
4, 25723, Control_c, 0, 64, 127
4, 25920, Control_c, 0, 64, 0
4, 26040, Control_c, 0, 64, 127
4, 26657, Control_c, 0, 64, 0
4, 27160, Control_c, 0, 64, 127
4, 27369, Control_c, 0, 64, 0
4, 27427, Control_c, 0, 64, 127
4, 27618, Control_c, 0, 64, 0
4, 27734, Control_c, 0, 64, 127
4, 28454, Control_c, 0, 64, 0
4, 29640, Control_c, 0, 64, 127
4, 30240, Control_c, 0, 64, 0
4, 30480, Control_c, 0, 64, 127
4, 31440, Control_c, 0, 64, 0
4, 32486, Control_c, 0, 64, 127
4, 33120, Control_c, 0, 64, 0
4, 33254, Control_c, 0, 64, 127
4, 34320, Control_c, 0, 64, 0
4, 34694, Control_c, 0, 64, 127
4, 35760, Control_c, 0, 64, 0
4, 36134, Control_c, 0, 64, 127
4, 36492, Control_c, 0, 64, 0
4, 36854, Control_c, 0, 64, 127
4, 37212, Control_c, 0, 64, 0
4, 37574, Control_c, 0, 64, 127
4, 38412, Control_c, 0, 64, 0
4, 38680, Control_c, 0, 64, 127
4, 40080, Control_c, 0, 64, 0
4, 40374, Control_c, 0, 64, 127
4, 41052, Control_c, 0, 64, 0
4, 41563, Control_c, 0, 64, 127
4, 41760, Control_c, 0, 64, 0
4, 41880, Control_c, 0, 64, 127
4, 42497, Control_c, 0, 64, 0
4, 43000, Control_c, 0, 64, 127
4, 43209, Control_c, 0, 64, 0
4, 43267, Control_c, 0, 64, 127
4, 43458, Control_c, 0, 64, 0
4, 43574, Control_c, 0, 64, 127
4, 44294, Control_c, 0, 64, 0
4, 44294, End_track
5, 0, Start_track
5, 0, Title_t, "Grieg: Lyric pieces Op. 43 No. 2 - Solitary Traveller"
5, 0, End_track
6, 0, Start_track
6, 0, Title_t, "Copyright © 2007 by Bernd Krueger"
6, 0, End_track
7, 0, Start_track
7, 0, Title_t, "http://www.piano-midi.de/"
7, 0, End_track
8, 0, Start_track
8, 0, Title_t, "Edition: 2012-11-05"
8, 0, End_track
9, 0, Start_track
9, 0, Title_t, "Spur 8"
9, 0, End_track
10, 0, Start_track
10, 0, Title_t, "Spur 9"
10, 0, End_track
11, 0, Start_track
11, 0, Title_t, "Spur 10"
11, 0, End_track
12, 0, Start_track
12, 0, Title_t, "Spur 11"
12, 0, End_track
13, 0, Start_track
13, 0, Title_t, "Spur 12"
13, 0, End_track
14, 0, Start_track
14, 0, Title_t, "Spur 13"
14, 0, End_track
15, 0, Start_track
15, 0, Title_t, "Spur 14"
15, 0, End_track
16, 0, Start_track
16, 0, Title_t, "Spur 15"
16, 0, End_track
17, 0, Start_track
17, 0, Title_t, "Spur 16"
17, 0, End_track
0, 0, End_of_file
