0, 0, Header, 1, 17, 480
1, 0, Start_track
1, 0, Title_t, "Grieg: Lyrische Stücke, Es war einmal, Opus 71 Nr. 1"
1, 0, Copyright_t, "Copyright © 2012 by Bernd Krueger"
1, 0, Text_t, "Bernd Krueger"
1, 0, Text_t, "Andante con moto"
1, 0, Text_t, "Erstellt:    23.10.2012\012"
1, 0, Text_t, "Dauer: 4:17 Minuten\012"
1, 0, Time_signature, 4, 2, 24, 8
1, 0, Key_signature, 1, "major"
1, 0, Tempo, 593472
1, 1440, Tempo, 952381
1, 4680, Tempo, 1100917
1, 4800, Tempo, 1061947
1, 5280, Tempo, 1008403
1, 5760, Tempo, 975610
1, 6720, Tempo, 1034483
1, 7560, Tempo, 1142857
1, 7680, Tempo, 1034483
1, 8640, Tempo, 967742
1, 9600, Tempo, 952381
1, 12360, Tempo, 1071429
1, 12480, Tempo, 1025641
1, 12720, Tempo, 1100917
1, 12960, Tempo, 1071429
1, 13440, Tempo, 944882
1, 13680, Tempo, 1008403
1, 13920, Tempo, 975610
1, 14160, Tempo, 1043478
1, 14400, Tempo, 975610
1, 14640, Tempo, 1052632
1, 14880, Tempo, 1008403
1, 15240, Tempo, 1188119
1, 16800, Tempo, 937500
1, 16800, Marker_t, "Animato"
1, 17280, Tempo, 888889
1, 18240, Tempo, 851064
1, 18480, Tempo, 888889
1, 19200, Tempo, 888889
1, 20160, Tempo, 952381
1, 21000, Tempo, 1250000
1, 21120, Tempo, 888889
1, 23040, Tempo, 944882
1, 23520, Tempo, 1016949
1, 24000, Tempo, 1100917
1, 24480, Tempo, 1176471
1, 24720, Tempo, 1463415
1, 24960, Tempo, 1025641
1, 25440, Tempo, 952381
1, 26880, Tempo, 937500
1, 27720, Tempo, 1100917
1, 27840, Tempo, 1071429
1, 28320, Tempo, 1008403
1, 28800, Tempo, 975610
1, 29760, Tempo, 1034483
1, 30600, Tempo, 1142857
1, 30720, Tempo, 1090909
1, 32160, Tempo, 937500
1, 32160, Marker_t, "Animato Wiederholung"
1, 32640, Tempo, 888889
1, 33600, Tempo, 851064
1, 33840, Tempo, 888889
1, 34560, Tempo, 888889
1, 35520, Tempo, 952381
1, 36360, Tempo, 1250000
1, 36480, Tempo, 888889
1, 38400, Tempo, 944882
1, 38880, Tempo, 1016949
1, 39360, Tempo, 1100917
1, 39840, Tempo, 1176471
1, 40080, Tempo, 1463415
1, 40320, Tempo, 1025641
1, 40800, Tempo, 952381
1, 42240, Tempo, 937500
1, 43080, Tempo, 1100917
1, 43200, Tempo, 1071429
1, 43680, Tempo, 1008403
1, 44160, Tempo, 975610
1, 45120, Tempo, 1034483
1, 45960, Tempo, 1142857
1, 46080, Tempo, 1090909
1, 48000, Time_signature, 3, 2, 24, 8
1, 48000, Key_signature, 4, "major"
1, 48000, Tempo, 262697
1, 48007, Marker_t, "Allegro brioso"
1, 51840, Tempo, 258732
1, 52320, Tempo, 253807
1, 53280, Tempo, 274098
1, 53760, Tempo, 262123
1, 54720, Tempo, 267977
1, 55200, Tempo, 287219
1, 55680, Tempo, 297915
1, 56640, Tempo, 262697
1, 57600, Tempo, 258176
1, 58080, Tempo, 253807
1, 59040, Tempo, 285171
1, 59520, Tempo, 262123
1, 60480, Tempo, 267977
1, 60960, Tempo, 288600
1, 61440, Tempo, 299401
1, 61920, Tempo, 299401
1, 62400, Tempo, 262697
1, 62400, Marker_t, "Wiederholung Beginn1"
1, 63360, Tempo, 258732
1, 63840, Tempo, 253807
1, 64800, Tempo, 274098
1, 65280, Tempo, 262123
1, 66240, Tempo, 267977
1, 66720, Tempo, 286533
1, 67200, Tempo, 292826
1, 68160, Tempo, 262697
1, 69120, Tempo, 258732
1, 69600, Tempo, 253807
1, 70560, Tempo, 283152
1, 71040, Tempo, 262123
1, 72000, Tempo, 267977
1, 72480, Tempo, 289995
1, 72960, Tempo, 301659
1, 73440, Tempo, 303183
1, 73920, Key_signature, -5, "major"
1, 73920, Tempo, 262697
1, 74880, Tempo, 258732
1, 75360, Tempo, 253807
1, 76320, Tempo, 274098
1, 76800, Tempo, 262123
1, 77760, Tempo, 267977
1, 78240, Tempo, 287219
1, 78720, Tempo, 297915
1, 79680, Tempo, 262697
1, 80640, Tempo, 258176
1, 81120, Tempo, 253807
1, 82080, Tempo, 285171
1, 82560, Tempo, 262123
1, 83520, Tempo, 267977
1, 84000, Tempo, 288600
1, 84480, Tempo, 299401
1, 84960, Tempo, 299401
1, 85440, Tempo, 262697
1, 86400, Tempo, 258732
1, 86880, Tempo, 253807
1, 87840, Tempo, 274098
1, 88320, Tempo, 262123
1, 89280, Tempo, 267977
1, 89760, Tempo, 287219
1, 90240, Tempo, 297915
1, 91200, Tempo, 262697
1, 92160, Tempo, 258176
1, 92640, Tempo, 253807
1, 93600, Tempo, 285171
1, 94080, Tempo, 262697
1, 95040, Tempo, 258176
1, 95520, Tempo, 253807
1, 96480, Tempo, 285171
1, 96960, Tempo, 254248
1, 97440, Tempo, 284374
1, 98400, Tempo, 254248
1, 98880, Tempo, 284374
1, 99840, Tempo, 254248
1, 100320, Tempo, 284374
1, 101280, Tempo, 254248
1, 101760, Tempo, 284374
1, 102720, Tempo, 272121
1, 103680, Tempo, 282366
1, 104640, Tempo, 271505
1, 105600, Tempo, 281703
1, 106560, Tempo, 272740
1, 107520, Tempo, 303813
1, 108480, Key_signature, 4, "major"
1, 108480, Tempo, 281703
1, 109440, Tempo, 289869
1, 109920, Tempo, 289869
1, 110400, Tempo, 285049
1, 111360, Tempo, 292697
1, 112320, Tempo, 319166
1, 112800, Tempo, 321733
1, 113280, Tempo, 282366
1, 114240, Tempo, 262697
1, 115200, Tempo, 258732
1, 115680, Tempo, 253807
1, 116160, Tempo, 261449
1, 116640, Tempo, 274098
1, 117120, Tempo, 262697
1, 118080, Tempo, 258732
1, 118560, Tempo, 269070
1, 119040, Tempo, 295581
1, 119520, Tempo, 297782
1, 120000, Tempo, 262697
1, 120960, Tempo, 258732
1, 121440, Tempo, 253807
1, 121920, Tempo, 261449
1, 122400, Tempo, 274098
1, 122880, Tempo, 262697
1, 123840, Tempo, 258732
1, 124320, Tempo, 279083
1, 124800, Tempo, 306138
1, 125280, Tempo, 306921
1, 125760, Tempo, 262697
1, 125760, Marker_t, "Wiederholung Beginn2"
1, 126720, Tempo, 258732
1, 127200, Tempo, 253807
1, 128160, Tempo, 274098
1, 128640, Tempo, 262123
1, 129600, Tempo, 267977
1, 130080, Tempo, 286533
1, 130560, Tempo, 292826
1, 131520, Tempo, 262697
1, 132480, Tempo, 258732
1, 132960, Tempo, 253807
1, 133920, Tempo, 283152
1, 134400, Tempo, 262123
1, 135360, Tempo, 267977
1, 135840, Tempo, 289995
1, 136320, Tempo, 301659
1, 136800, Tempo, 303183
1, 137280, Key_signature, -5, "major"
1, 137280, Tempo, 262697
1, 138240, Tempo, 258732
1, 138720, Tempo, 253807
1, 139680, Tempo, 274098
1, 140160, Tempo, 262123
1, 141120, Tempo, 267977
1, 141600, Tempo, 287219
1, 142080, Tempo, 297915
1, 143040, Tempo, 262697
1, 144000, Tempo, 258176
1, 144480, Tempo, 253807
1, 145440, Tempo, 285171
1, 145920, Tempo, 262123
1, 146880, Tempo, 267977
1, 147360, Tempo, 288600
1, 147840, Tempo, 299401
1, 148320, Tempo, 299401
1, 148800, Tempo, 262697
1, 149760, Tempo, 258732
1, 150240, Tempo, 253807
1, 151200, Tempo, 274098
1, 151680, Tempo, 262123
1, 152640, Tempo, 267977
1, 153120, Tempo, 287219
1, 153600, Tempo, 297915
1, 154560, Tempo, 262697
1, 155520, Tempo, 258176
1, 156000, Tempo, 253807
1, 156960, Tempo, 285171
1, 157440, Tempo, 262697
1, 158400, Tempo, 258176
1, 158880, Tempo, 253807
1, 159840, Tempo, 285171
1, 160320, Tempo, 254248
1, 160800, Tempo, 284374
1, 161760, Tempo, 254248
1, 162240, Tempo, 284374
1, 163200, Tempo, 254248
1, 163680, Tempo, 284374
1, 164640, Tempo, 254248
1, 165120, Tempo, 284374
1, 166080, Tempo, 272121
1, 167040, Tempo, 282366
1, 168000, Tempo, 271505
1, 168960, Tempo, 281703
1, 169920, Tempo, 272740
1, 170880, Tempo, 303813
1, 171840, Key_signature, 4, "major"
1, 171840, Tempo, 281703
1, 172800, Tempo, 289869
1, 173280, Tempo, 289869
1, 173760, Tempo, 285049
1, 174720, Tempo, 292697
1, 175680, Tempo, 319166
1, 176160, Tempo, 321733
1, 176640, Tempo, 282366
1, 177600, Tempo, 262697
1, 178560, Tempo, 258732
1, 179040, Tempo, 253807
1, 179520, Tempo, 261449
1, 180000, Tempo, 274098
1, 180480, Tempo, 262697
1, 181440, Tempo, 258732
1, 181920, Tempo, 269070
1, 182400, Tempo, 295581
1, 182880, Tempo, 297782
1, 183360, Tempo, 262697
1, 184320, Tempo, 258732
1, 184800, Tempo, 253807
1, 185280, Tempo, 261449
1, 185760, Tempo, 274098
1, 186240, Tempo, 262697
1, 187200, Tempo, 258732
1, 187680, Tempo, 279083
1, 188160, Tempo, 306138
1, 188640, Tempo, 306921
1, 190560, Tempo, 262697
1, 191520, Tempo, 258732
1, 192000, Tempo, 279083
1, 192480, Tempo, 306138
1, 192960, Tempo, 306921
1, 194880, Tempo, 262697
1, 195840, Tempo, 258732
1, 196320, Tempo, 283701
1, 197760, Tempo, 262697
1, 198720, Tempo, 258732
1, 199200, Time_signature, 2, 2, 24, 8
1, 199200, Key_signature, 1, "major"
1, 199200, Tempo, 1739635
1, 199200, Marker_t, "Andante"
1, 199680, Tempo, 952381
1, 200160, Time_signature, 4, 2, 24, 8
1, 202920, Tempo, 1100917
1, 203040, Tempo, 1061947
1, 203520, Tempo, 1008403
1, 204000, Tempo, 975610
1, 204960, Tempo, 1034483
1, 205800, Tempo, 1142857
1, 205920, Tempo, 1034483
1, 206880, Tempo, 967742
1, 207840, Tempo, 952381
1, 210600, Tempo, 1071429
1, 210720, Tempo, 1025641
1, 210960, Tempo, 1100917
1, 211200, Tempo, 1071429
1, 211680, Tempo, 944882
1, 211920, Tempo, 1008403
1, 212160, Tempo, 975610
1, 212400, Tempo, 1043478
1, 212640, Tempo, 975610
1, 212880, Tempo, 1052632
1, 213120, Tempo, 1008403
1, 213480, Tempo, 1188119
1, 215040, Tempo, 937500
1, 215520, Tempo, 888889
1, 216480, Tempo, 851064
1, 216720, Tempo, 888889
1, 217440, Tempo, 888889
1, 218400, Tempo, 952381
1, 219240, Tempo, 1250000
1, 219360, Tempo, 888889
1, 221280, Tempo, 944882
1, 221760, Tempo, 1016949
1, 222240, Tempo, 1100917
1, 222720, Tempo, 1176471
1, 222960, Tempo, 1463415
1, 223200, Tempo, 1025641
1, 223680, Tempo, 952381
1, 225120, Tempo, 937500
1, 225960, Tempo, 1100917
1, 226080, Tempo, 1071429
1, 226560, Tempo, 1008403
1, 226800, Tempo, 1249740
1, 227040, Tempo, 1131862
1, 228000, Tempo, 1262892
1, 228840, Tempo, 1538067
1, 228960, Tempo, 1428231
1, 228960, End_track
2, 0, Start_track
2, 0, Title_t, "Piano right"
2, 0, Program_c, 0, 0
2, 1440, Note_on_c, 0, 71, 39
2, 1920, Note_on_c, 0, 71, 0
2, 1920, Note_on_c, 0, 64, 42
2, 2280, Note_on_c, 0, 66, 36
2, 2395, Note_on_c, 0, 64, 0
2, 2400, Note_on_c, 0, 66, 0
2, 2400, Note_on_c, 0, 67, 43
2, 2760, Note_on_c, 0, 67, 0
2, 2760, Note_on_c, 0, 69, 37
2, 2760, Note_on_c, 0, 66, 29
2, 2880, Note_on_c, 0, 66, 0
2, 2880, Note_on_c, 0, 69, 0
2, 2880, Note_on_c, 0, 67, 36
2, 2880, Note_on_c, 0, 71, 45
2, 3240, Note_on_c, 0, 71, 0
2, 3240, Note_on_c, 0, 76, 37
2, 3360, Note_on_c, 0, 76, 0
2, 3360, Note_on_c, 0, 67, 0
2, 3360, Note_on_c, 0, 72, 36
2, 3360, Note_on_c, 0, 79, 45
2, 3720, Note_on_c, 0, 79, 0
2, 3720, Note_on_c, 0, 78, 37
2, 3840, Note_on_c, 0, 78, 0
2, 3840, Note_on_c, 0, 72, 0
2, 3840, Note_on_c, 0, 66, 40
2, 3840, Note_on_c, 0, 74, 50
2, 4200, Note_on_c, 0, 74, 0
2, 4200, Note_on_c, 0, 72, 43
2, 4320, Note_on_c, 0, 72, 0
2, 4320, Note_on_c, 0, 66, 0
2, 4320, Note_on_c, 0, 76, 54
2, 4320, Note_on_c, 0, 69, 43
2, 4680, Note_on_c, 0, 76, 0
2, 4680, Note_on_c, 0, 74, 46
2, 4800, Note_on_c, 0, 74, 0
2, 4800, Note_on_c, 0, 69, 0
2, 4800, Note_on_c, 0, 71, 40
2, 4800, Note_on_c, 0, 63, 32
2, 5520, Note_on_c, 0, 71, 0
2, 5520, Note_on_c, 0, 72, 36
2, 5760, Note_on_c, 0, 72, 0
2, 5760, Note_on_c, 0, 63, 0
2, 5760, Note_on_c, 0, 69, 43
2, 5760, Note_on_c, 0, 65, 34
2, 6120, Note_on_c, 0, 69, 0
2, 6120, Note_on_c, 0, 71, 36
2, 6240, Note_on_c, 0, 71, 0
2, 6240, Note_on_c, 0, 65, 0
2, 6240, Note_on_c, 0, 64, 36
2, 6240, Note_on_c, 0, 67, 45
2, 6600, Note_on_c, 0, 67, 0
2, 6600, Note_on_c, 0, 69, 39
2, 6720, Note_on_c, 0, 69, 0
2, 6720, Note_on_c, 0, 64, 0
2, 6720, Note_on_c, 0, 62, 36
2, 6720, Note_on_c, 0, 66, 45
2, 7080, Note_on_c, 0, 66, 0
2, 7080, Note_on_c, 0, 67, 36
2, 7200, Note_on_c, 0, 67, 0
2, 7200, Note_on_c, 0, 62, 0
2, 7200, Note_on_c, 0, 64, 43
2, 7200, Note_on_c, 0, 60, 34
2, 7560, Note_on_c, 0, 64, 0
2, 7560, Note_on_c, 0, 66, 35
2, 7680, Note_on_c, 0, 66, 0
2, 7680, Note_on_c, 0, 60, 0
2, 7680, Note_on_c, 0, 63, 41
2, 7680, Note_on_c, 0, 59, 32
2, 8160, Note_on_c, 0, 59, 0
2, 8160, Note_on_c, 0, 63, 0
2, 8160, Note_on_c, 0, 64, 36
2, 8160, Note_on_c, 0, 59, 28
2, 8160, Note_on_c, 0, 55, 28
2, 8880, Note_on_c, 0, 55, 0
2, 8880, Note_on_c, 0, 59, 0
2, 8880, Note_on_c, 0, 64, 0
2, 9120, Note_on_c, 0, 63, 31
2, 9120, Note_on_c, 0, 71, 39
2, 9570, Note_on_c, 0, 60, 38
2, 9600, Note_on_c, 0, 71, 0
2, 9600, Note_on_c, 0, 63, 0
2, 9600, Note_on_c, 0, 64, 42
2, 9960, Note_on_c, 0, 64, 0
2, 9960, Note_on_c, 0, 66, 36
2, 10080, Note_on_c, 0, 66, 0
2, 10080, Note_on_c, 0, 60, 0
2, 10080, Note_on_c, 0, 64, 36
2, 10080, Note_on_c, 0, 67, 43
2, 10440, Note_on_c, 0, 67, 0
2, 10440, Note_on_c, 0, 64, 0
2, 10440, Note_on_c, 0, 69, 37
2, 10440, Note_on_c, 0, 66, 29
2, 10560, Note_on_c, 0, 66, 0
2, 10560, Note_on_c, 0, 69, 0
2, 10560, Note_on_c, 0, 67, 36
2, 10560, Note_on_c, 0, 71, 45
2, 10920, Note_on_c, 0, 71, 0
2, 10920, Note_on_c, 0, 76, 37
2, 11040, Note_on_c, 0, 76, 0
2, 11040, Note_on_c, 0, 67, 0
2, 11040, Note_on_c, 0, 69, 36
2, 11040, Note_on_c, 0, 79, 45
2, 11400, Note_on_c, 0, 79, 0
2, 11400, Note_on_c, 0, 78, 37
2, 11520, Note_on_c, 0, 78, 0
2, 11520, Note_on_c, 0, 69, 0
2, 11520, Note_on_c, 0, 66, 40
2, 11520, Note_on_c, 0, 74, 50
2, 11880, Note_on_c, 0, 74, 0
2, 11880, Note_on_c, 0, 72, 43
2, 12000, Note_on_c, 0, 72, 0
2, 12000, Note_on_c, 0, 66, 0
2, 12000, Note_on_c, 0, 76, 54
2, 12000, Note_on_c, 0, 67, 43
2, 12360, Note_on_c, 0, 76, 0
2, 12360, Note_on_c, 0, 74, 46
2, 12480, Note_on_c, 0, 74, 0
2, 12480, Note_on_c, 0, 67, 0
2, 12480, Note_on_c, 0, 71, 40
2, 12480, Note_on_c, 0, 66, 32
2, 12960, Note_on_c, 0, 66, 0
2, 12960, Note_on_c, 0, 65, 32
2, 13200, Note_on_c, 0, 71, 0
2, 13200, Note_on_c, 0, 72, 27
2, 13440, Note_on_c, 0, 72, 0
2, 13440, Note_on_c, 0, 65, 0
2, 13440, Note_on_c, 0, 69, 32
2, 13440, Note_on_c, 0, 60, 25
2, 13680, Note_on_c, 0, 60, 0
2, 13680, Note_on_c, 0, 62, 18
2, 13800, Note_on_c, 0, 69, 0
2, 13800, Note_on_c, 0, 71, 27
2, 13920, Note_on_c, 0, 71, 0
2, 13920, Note_on_c, 0, 62, 0
2, 13920, Note_on_c, 0, 64, 27
2, 13920, Note_on_c, 0, 67, 33
2, 14280, Note_on_c, 0, 67, 0
2, 14280, Note_on_c, 0, 69, 29
2, 14400, Note_on_c, 0, 69, 0
2, 14400, Note_on_c, 0, 64, 0
2, 14400, Note_on_c, 0, 57, 27
2, 14400, Note_on_c, 0, 66, 33
2, 14640, Note_on_c, 0, 57, 0
2, 14640, Note_on_c, 0, 59, 20
2, 14760, Note_on_c, 0, 66, 0
2, 14760, Note_on_c, 0, 67, 27
2, 14880, Note_on_c, 0, 67, 0
2, 14880, Note_on_c, 0, 59, 0
2, 14880, Note_on_c, 0, 64, 32
2, 14880, Note_on_c, 0, 60, 25
2, 15240, Note_on_c, 0, 64, 0
2, 15240, Note_on_c, 0, 66, 26
2, 15360, Note_on_c, 0, 66, 0
2, 15360, Note_on_c, 0, 60, 0
2, 15360, Note_on_c, 0, 63, 30
2, 15360, Note_on_c, 0, 59, 24
2, 15840, Note_on_c, 0, 59, 0
2, 15840, Note_on_c, 0, 63, 0
2, 15840, Note_on_c, 0, 64, 27
2, 15840, Note_on_c, 0, 59, 21
2, 15840, Note_on_c, 0, 55, 21
2, 16800, Note_on_c, 0, 55, 0
2, 16800, Note_on_c, 0, 59, 0
2, 16800, Note_on_c, 0, 64, 0
2, 16800, Note_on_c, 0, 62, 58
2, 16800, Note_on_c, 0, 66, 58
2, 17280, Note_on_c, 0, 66, 0
2, 17280, Note_on_c, 0, 62, 0
2, 17280, Note_on_c, 0, 62, 43
2, 17280, Note_on_c, 0, 67, 63
2, 17640, Note_on_c, 0, 67, 0
2, 17640, Note_on_c, 0, 69, 54
2, 17760, Note_on_c, 0, 69, 0
2, 17760, Note_on_c, 0, 62, 0
2, 17760, Note_on_c, 0, 64, 43
2, 17760, Note_on_c, 0, 71, 64
2, 18000, Note_on_c, 0, 71, 0
2, 18000, Note_on_c, 0, 67, 55
2, 18210, Note_on_c, 0, 66, 54
2, 18240, Note_on_c, 0, 67, 0
2, 18240, Note_on_c, 0, 64, 0
2, 18240, Note_on_c, 0, 71, 67
2, 18480, Note_on_c, 0, 71, 0
2, 18480, Note_on_c, 0, 66, 0
2, 18480, Note_on_c, 0, 64, 55
2, 18480, Note_on_c, 0, 69, 55
2, 18720, Note_on_c, 0, 69, 0
2, 18720, Note_on_c, 0, 64, 0
2, 18720, Note_on_c, 0, 62, 54
2, 18720, Note_on_c, 0, 69, 67
2, 18950, Note_on_c, 0, 62, 0
2, 18960, Note_on_c, 0, 69, 0
2, 18960, Note_on_c, 0, 62, 55
2, 19200, Note_on_c, 0, 62, 0
2, 19200, Note_on_c, 0, 64, 43
2, 19200, Note_on_c, 0, 72, 63
2, 19560, Note_on_c, 0, 72, 0
2, 19560, Note_on_c, 0, 74, 56
2, 19680, Note_on_c, 0, 74, 0
2, 19680, Note_on_c, 0, 64, 0
2, 19680, Note_on_c, 0, 66, 46
2, 19680, Note_on_c, 0, 76, 68
2, 19920, Note_on_c, 0, 76, 0
2, 19920, Note_on_c, 0, 72, 61
2, 20130, Note_on_c, 0, 67, 61
2, 20160, Note_on_c, 0, 72, 0
2, 20160, Note_on_c, 0, 66, 0
2, 20160, Note_on_c, 0, 74, 77
2, 20640, Note_on_c, 0, 67, 0
2, 20640, Note_on_c, 0, 69, 62
2, 20880, Note_on_c, 0, 74, 0
2, 20880, Note_on_c, 0, 74, 77
2, 21120, Note_on_c, 0, 74, 0
2, 21120, Note_on_c, 0, 69, 0
2, 21120, Note_on_c, 0, 71, 49
2, 21120, Note_on_c, 0, 76, 72
2, 21480, Note_on_c, 0, 76, 0
2, 21480, Note_on_c, 0, 78, 62
2, 21600, Note_on_c, 0, 78, 0
2, 21600, Note_on_c, 0, 71, 0
2, 21600, Note_on_c, 0, 69, 49
2, 21600, Note_on_c, 0, 74, 73
2, 21840, Note_on_c, 0, 74, 0
2, 21840, Note_on_c, 0, 71, 63
2, 22080, Note_on_c, 0, 71, 0
2, 22080, Note_on_c, 0, 69, 0
2, 22080, Note_on_c, 0, 72, 70
2, 22080, Note_on_c, 0, 67, 59
2, 22440, Note_on_c, 0, 72, 0
2, 22440, Note_on_c, 0, 74, 56
2, 22560, Note_on_c, 0, 74, 0
2, 22560, Note_on_c, 0, 67, 0
2, 22560, Note_on_c, 0, 71, 68
2, 22560, Note_on_c, 0, 66, 57
2, 22800, Note_on_c, 0, 71, 0
2, 22800, Note_on_c, 0, 67, 57
2, 23040, Note_on_c, 0, 67, 0
2, 23040, Note_on_c, 0, 66, 0
2, 23040, Note_on_c, 0, 64, 58
2, 23040, Note_on_c, 0, 69, 69
2, 23490, Note_on_c, 0, 63, 48
2, 23520, Note_on_c, 0, 69, 0
2, 23520, Note_on_c, 0, 64, 0
2, 23520, Note_on_c, 0, 71, 57
2, 24480, Note_on_c, 0, 71, 0
2, 24480, Note_on_c, 0, 63, 0
2, 24480, Note_on_c, 0, 71, 46
2, 24480, Note_on_c, 0, 63, 39
2, 24960, Note_on_c, 0, 63, 0
2, 24960, Note_on_c, 0, 71, 0
2, 24960, Note_on_c, 0, 59, 36
2, 24960, Note_on_c, 0, 64, 42
2, 25320, Note_on_c, 0, 64, 0
2, 25320, Note_on_c, 0, 66, 36
2, 25440, Note_on_c, 0, 66, 0
2, 25440, Note_on_c, 0, 59, 0
2, 25440, Note_on_c, 0, 59, 29
2, 25440, Note_on_c, 0, 64, 29
2, 25440, Note_on_c, 0, 67, 43
2, 25800, Note_on_c, 0, 67, 0
2, 25800, Note_on_c, 0, 69, 37
2, 25920, Note_on_c, 0, 69, 0
2, 25920, Note_on_c, 0, 64, 0
2, 25920, Note_on_c, 0, 59, 0
2, 25920, Note_on_c, 0, 64, 36
2, 25920, Note_on_c, 0, 67, 36
2, 25920, Note_on_c, 0, 71, 45
2, 26280, Note_on_c, 0, 71, 0
2, 26280, Note_on_c, 0, 76, 37
2, 26400, Note_on_c, 0, 76, 0
2, 26400, Note_on_c, 0, 67, 0
2, 26400, Note_on_c, 0, 64, 0
2, 26400, Note_on_c, 0, 64, 36
2, 26400, Note_on_c, 0, 72, 36
2, 26400, Note_on_c, 0, 79, 45
2, 26760, Note_on_c, 0, 79, 0
2, 26760, Note_on_c, 0, 78, 37
2, 26880, Note_on_c, 0, 78, 0
2, 26880, Note_on_c, 0, 72, 0
2, 26880, Note_on_c, 0, 64, 0
2, 26880, Note_on_c, 0, 71, 40
2, 26880, Note_on_c, 0, 66, 40
2, 26880, Note_on_c, 0, 74, 50
2, 27240, Note_on_c, 0, 74, 0
2, 27240, Note_on_c, 0, 72, 43
2, 27360, Note_on_c, 0, 72, 0
2, 27360, Note_on_c, 0, 66, 0
2, 27360, Note_on_c, 0, 71, 0
2, 27360, Note_on_c, 0, 60, 43
2, 27360, Note_on_c, 0, 76, 54
2, 27360, Note_on_c, 0, 69, 43
2, 27720, Note_on_c, 0, 76, 0
2, 27720, Note_on_c, 0, 74, 46
2, 27840, Note_on_c, 0, 74, 0
2, 27840, Note_on_c, 0, 69, 0
2, 27840, Note_on_c, 0, 60, 0
2, 27840, Note_on_c, 0, 59, 43
2, 27840, Note_on_c, 0, 71, 40
2, 27840, Note_on_c, 0, 63, 32
2, 28320, Note_on_c, 0, 59, 0
2, 28320, Note_on_c, 0, 57, 43
2, 28560, Note_on_c, 0, 71, 0
2, 28560, Note_on_c, 0, 72, 36
2, 28800, Note_on_c, 0, 72, 0
2, 28800, Note_on_c, 0, 57, 0
2, 28800, Note_on_c, 0, 63, 0
2, 28800, Note_on_c, 0, 60, 25
2, 28800, Note_on_c, 0, 69, 32
2, 28800, Note_on_c, 0, 65, 25
2, 29160, Note_on_c, 0, 69, 0
2, 29160, Note_on_c, 0, 71, 27
2, 29280, Note_on_c, 0, 71, 0
2, 29280, Note_on_c, 0, 65, 0
2, 29280, Note_on_c, 0, 60, 0
2, 29280, Note_on_c, 0, 59, 27
2, 29280, Note_on_c, 0, 64, 27
2, 29280, Note_on_c, 0, 67, 33
2, 29640, Note_on_c, 0, 67, 0
2, 29640, Note_on_c, 0, 69, 29
2, 29760, Note_on_c, 0, 69, 0
2, 29760, Note_on_c, 0, 64, 0
2, 29760, Note_on_c, 0, 59, 0
2, 29760, Note_on_c, 0, 57, 27
2, 29760, Note_on_c, 0, 62, 27
2, 29760, Note_on_c, 0, 66, 33
2, 30120, Note_on_c, 0, 66, 0
2, 30120, Note_on_c, 0, 67, 27
2, 30240, Note_on_c, 0, 67, 0
2, 30240, Note_on_c, 0, 62, 0
2, 30240, Note_on_c, 0, 57, 0
2, 30240, Note_on_c, 0, 55, 25
2, 30240, Note_on_c, 0, 64, 32
2, 30240, Note_on_c, 0, 60, 25
2, 30600, Note_on_c, 0, 64, 0
2, 30600, Note_on_c, 0, 66, 26
2, 30720, Note_on_c, 0, 66, 0
2, 30720, Note_on_c, 0, 60, 0
2, 30720, Note_on_c, 0, 55, 0
2, 30720, Note_on_c, 0, 54, 24
2, 30720, Note_on_c, 0, 63, 30
2, 30720, Note_on_c, 0, 59, 24
2, 31200, Note_on_c, 0, 59, 0
2, 31200, Note_on_c, 0, 63, 0
2, 31200, Note_on_c, 0, 54, 0
2, 31200, Note_on_c, 0, 64, 27
2, 31200, Note_on_c, 0, 59, 21
2, 31200, Note_on_c, 0, 55, 21
2, 32160, Note_on_c, 0, 55, 0
2, 32160, Note_on_c, 0, 59, 0
2, 32160, Note_on_c, 0, 64, 0
2, 32160, Note_on_c, 0, 62, 58
2, 32160, Note_on_c, 0, 66, 58
2, 32640, Note_on_c, 0, 66, 0
2, 32640, Note_on_c, 0, 62, 0
2, 32640, Note_on_c, 0, 62, 43
2, 32640, Note_on_c, 0, 67, 63
2, 33000, Note_on_c, 0, 67, 0
2, 33000, Note_on_c, 0, 69, 54
2, 33120, Note_on_c, 0, 69, 0
2, 33120, Note_on_c, 0, 62, 0
2, 33120, Note_on_c, 0, 64, 43
2, 33120, Note_on_c, 0, 71, 64
2, 33360, Note_on_c, 0, 71, 0
2, 33360, Note_on_c, 0, 67, 55
2, 33570, Note_on_c, 0, 66, 54
2, 33600, Note_on_c, 0, 67, 0
2, 33600, Note_on_c, 0, 64, 0
2, 33600, Note_on_c, 0, 71, 67
2, 33840, Note_on_c, 0, 71, 0
2, 33840, Note_on_c, 0, 66, 0
2, 33840, Note_on_c, 0, 64, 55
2, 33840, Note_on_c, 0, 69, 55
2, 34080, Note_on_c, 0, 69, 0
2, 34080, Note_on_c, 0, 64, 0
2, 34080, Note_on_c, 0, 62, 54
2, 34080, Note_on_c, 0, 69, 67
2, 34310, Note_on_c, 0, 62, 0
2, 34320, Note_on_c, 0, 69, 0
2, 34320, Note_on_c, 0, 62, 55
2, 34560, Note_on_c, 0, 62, 0
2, 34560, Note_on_c, 0, 64, 43
2, 34560, Note_on_c, 0, 72, 63
2, 34920, Note_on_c, 0, 72, 0
2, 34920, Note_on_c, 0, 74, 56
2, 35040, Note_on_c, 0, 74, 0
2, 35040, Note_on_c, 0, 64, 0
2, 35040, Note_on_c, 0, 66, 46
2, 35040, Note_on_c, 0, 76, 68
2, 35280, Note_on_c, 0, 76, 0
2, 35280, Note_on_c, 0, 72, 61
2, 35490, Note_on_c, 0, 67, 61
2, 35520, Note_on_c, 0, 72, 0
2, 35520, Note_on_c, 0, 66, 0
2, 35520, Note_on_c, 0, 74, 77
2, 36000, Note_on_c, 0, 67, 0
2, 36000, Note_on_c, 0, 69, 62
2, 36240, Note_on_c, 0, 74, 0
2, 36240, Note_on_c, 0, 74, 77
2, 36480, Note_on_c, 0, 74, 0
2, 36480, Note_on_c, 0, 69, 0
2, 36480, Note_on_c, 0, 71, 49
2, 36480, Note_on_c, 0, 76, 72
2, 36840, Note_on_c, 0, 76, 0
2, 36840, Note_on_c, 0, 78, 62
2, 36960, Note_on_c, 0, 78, 0
2, 36960, Note_on_c, 0, 71, 0
2, 36960, Note_on_c, 0, 69, 49
2, 36960, Note_on_c, 0, 74, 73
2, 37200, Note_on_c, 0, 74, 0
2, 37200, Note_on_c, 0, 71, 63
2, 37440, Note_on_c, 0, 71, 0
2, 37440, Note_on_c, 0, 69, 0
2, 37440, Note_on_c, 0, 72, 70
2, 37440, Note_on_c, 0, 67, 59
2, 37800, Note_on_c, 0, 72, 0
2, 37800, Note_on_c, 0, 74, 56
2, 37920, Note_on_c, 0, 74, 0
2, 37920, Note_on_c, 0, 67, 0
2, 37920, Note_on_c, 0, 71, 68
2, 37920, Note_on_c, 0, 66, 57
2, 38160, Note_on_c, 0, 71, 0
2, 38160, Note_on_c, 0, 67, 57
2, 38400, Note_on_c, 0, 67, 0
2, 38400, Note_on_c, 0, 66, 0
2, 38400, Note_on_c, 0, 64, 58
2, 38400, Note_on_c, 0, 69, 69
2, 38850, Note_on_c, 0, 63, 48
2, 38880, Note_on_c, 0, 69, 0
2, 38880, Note_on_c, 0, 64, 0
2, 38880, Note_on_c, 0, 71, 57
2, 39840, Note_on_c, 0, 71, 0
2, 39840, Note_on_c, 0, 63, 0
2, 39840, Note_on_c, 0, 71, 46
2, 39840, Note_on_c, 0, 63, 39
2, 40320, Note_on_c, 0, 63, 0
2, 40320, Note_on_c, 0, 71, 0
2, 40320, Note_on_c, 0, 59, 36
2, 40320, Note_on_c, 0, 64, 42
2, 40680, Note_on_c, 0, 64, 0
2, 40680, Note_on_c, 0, 66, 36
2, 40800, Note_on_c, 0, 66, 0
2, 40800, Note_on_c, 0, 59, 0
2, 40800, Note_on_c, 0, 59, 29
2, 40800, Note_on_c, 0, 64, 29
2, 40800, Note_on_c, 0, 67, 43
2, 41160, Note_on_c, 0, 67, 0
2, 41160, Note_on_c, 0, 69, 37
2, 41280, Note_on_c, 0, 69, 0
2, 41280, Note_on_c, 0, 64, 0
2, 41280, Note_on_c, 0, 59, 0
2, 41280, Note_on_c, 0, 64, 36
2, 41280, Note_on_c, 0, 67, 36
2, 41280, Note_on_c, 0, 71, 45
2, 41640, Note_on_c, 0, 71, 0
2, 41640, Note_on_c, 0, 76, 37
2, 41760, Note_on_c, 0, 76, 0
2, 41760, Note_on_c, 0, 67, 0
2, 41760, Note_on_c, 0, 64, 0
2, 41760, Note_on_c, 0, 64, 36
2, 41760, Note_on_c, 0, 72, 36
2, 41760, Note_on_c, 0, 79, 45
2, 42120, Note_on_c, 0, 79, 0
2, 42120, Note_on_c, 0, 78, 37
2, 42240, Note_on_c, 0, 78, 0
2, 42240, Note_on_c, 0, 72, 0
2, 42240, Note_on_c, 0, 64, 0
2, 42240, Note_on_c, 0, 71, 40
2, 42240, Note_on_c, 0, 66, 40
2, 42240, Note_on_c, 0, 74, 50
2, 42600, Note_on_c, 0, 74, 0
2, 42600, Note_on_c, 0, 72, 43
2, 42720, Note_on_c, 0, 72, 0
2, 42720, Note_on_c, 0, 66, 0
2, 42720, Note_on_c, 0, 71, 0
2, 42720, Note_on_c, 0, 60, 43
2, 42720, Note_on_c, 0, 76, 54
2, 42720, Note_on_c, 0, 69, 43
2, 43080, Note_on_c, 0, 76, 0
2, 43080, Note_on_c, 0, 74, 46
2, 43200, Note_on_c, 0, 74, 0
2, 43200, Note_on_c, 0, 69, 0
2, 43200, Note_on_c, 0, 60, 0
2, 43200, Note_on_c, 0, 59, 43
2, 43200, Note_on_c, 0, 71, 40
2, 43200, Note_on_c, 0, 63, 32
2, 43680, Note_on_c, 0, 59, 0
2, 43680, Note_on_c, 0, 57, 43
2, 43920, Note_on_c, 0, 71, 0
2, 43920, Note_on_c, 0, 72, 36
2, 44160, Note_on_c, 0, 72, 0
2, 44160, Note_on_c, 0, 57, 0
2, 44160, Note_on_c, 0, 63, 0
2, 44160, Note_on_c, 0, 60, 25
2, 44160, Note_on_c, 0, 69, 32
2, 44160, Note_on_c, 0, 65, 25
2, 44520, Note_on_c, 0, 69, 0
2, 44520, Note_on_c, 0, 71, 27
2, 44640, Note_on_c, 0, 71, 0
2, 44640, Note_on_c, 0, 65, 0
2, 44640, Note_on_c, 0, 60, 0
2, 44640, Note_on_c, 0, 59, 27
2, 44640, Note_on_c, 0, 64, 27
2, 44640, Note_on_c, 0, 67, 33
2, 45000, Note_on_c, 0, 67, 0
2, 45000, Note_on_c, 0, 69, 29
2, 45120, Note_on_c, 0, 69, 0
2, 45120, Note_on_c, 0, 64, 0
2, 45120, Note_on_c, 0, 59, 0
2, 45120, Note_on_c, 0, 57, 27
2, 45120, Note_on_c, 0, 62, 27
2, 45120, Note_on_c, 0, 66, 33
2, 45480, Note_on_c, 0, 66, 0
2, 45480, Note_on_c, 0, 67, 27
2, 45600, Note_on_c, 0, 67, 0
2, 45600, Note_on_c, 0, 62, 0
2, 45600, Note_on_c, 0, 57, 0
2, 45600, Note_on_c, 0, 55, 25
2, 45600, Note_on_c, 0, 64, 32
2, 45600, Note_on_c, 0, 60, 25
2, 45960, Note_on_c, 0, 64, 0
2, 45960, Note_on_c, 0, 66, 26
2, 46080, Note_on_c, 0, 66, 0
2, 46080, Note_on_c, 0, 60, 0
2, 46080, Note_on_c, 0, 55, 0
2, 46560, Note_on_c, 0, 54, 18
2, 46560, Note_on_c, 0, 63, 22
2, 46560, Note_on_c, 0, 59, 18
2, 47040, Note_on_c, 0, 59, 0
2, 47040, Note_on_c, 0, 63, 0
2, 47040, Note_on_c, 0, 54, 0
2, 51360, Note_on_c, 0, 68, 34
2, 51360, Note_on_c, 0, 64, 30
2, 51600, Note_on_c, 0, 68, 0
2, 51600, Note_on_c, 0, 71, 28
2, 51840, Note_on_c, 0, 71, 0
2, 51840, Note_on_c, 0, 64, 0
2, 51840, Note_on_c, 0, 64, 29
2, 51840, Note_on_c, 0, 68, 33
2, 52080, Note_on_c, 0, 68, 0
2, 52080, Note_on_c, 0, 71, 25
2, 52320, Note_on_c, 0, 71, 0
2, 52320, Note_on_c, 0, 64, 0
2, 52320, Note_on_c, 0, 73, 43
2, 52560, Note_on_c, 0, 73, 0
2, 52560, Note_on_c, 0, 69, 25
2, 52800, Note_on_c, 0, 69, 0
2, 52800, Note_on_c, 0, 61, 32
2, 52800, Note_on_c, 0, 73, 36
2, 53040, Note_on_c, 0, 73, 0
2, 53040, Note_on_c, 0, 69, 25
2, 53280, Note_on_c, 0, 69, 0
2, 53280, Note_on_c, 0, 61, 0
2, 53280, Note_on_c, 0, 61, 32
2, 53280, Note_on_c, 0, 66, 36
2, 53400, Note_on_c, 0, 66, 0
2, 53400, Note_on_c, 0, 61, 0
2, 54240, Note_on_c, 0, 66, 34
2, 54240, Note_on_c, 0, 61, 30
2, 54480, Note_on_c, 0, 66, 0
2, 54480, Note_on_c, 0, 69, 28
2, 54720, Note_on_c, 0, 69, 0
2, 54720, Note_on_c, 0, 61, 0
2, 54720, Note_on_c, 0, 61, 29
2, 54720, Note_on_c, 0, 66, 33
2, 54960, Note_on_c, 0, 66, 0
2, 54960, Note_on_c, 0, 69, 25
2, 55200, Note_on_c, 0, 69, 0
2, 55200, Note_on_c, 0, 61, 0
2, 55200, Note_on_c, 0, 71, 42
2, 55680, Note_on_c, 0, 63, 30
2, 55680, Note_on_c, 0, 68, 30
2, 55800, Note_on_c, 0, 68, 0
2, 55800, Note_on_c, 0, 63, 0
2, 56160, Note_on_c, 0, 63, 30
2, 56160, Note_on_c, 0, 68, 30
2, 56280, Note_on_c, 0, 68, 0
2, 56280, Note_on_c, 0, 63, 0
2, 56640, Note_on_c, 0, 71, 0
2, 57120, Note_on_c, 0, 64, 34
2, 57120, Note_on_c, 0, 63, 30
2, 57360, Note_on_c, 0, 64, 0
2, 57360, Note_on_c, 0, 68, 28
2, 57600, Note_on_c, 0, 68, 0
2, 57600, Note_on_c, 0, 63, 0
2, 57600, Note_on_c, 0, 63, 29
2, 57600, Note_on_c, 0, 64, 33
2, 57840, Note_on_c, 0, 64, 0
2, 57840, Note_on_c, 0, 68, 25
2, 58080, Note_on_c, 0, 68, 0
2, 58080, Note_on_c, 0, 63, 0
2, 58080, Note_on_c, 0, 69, 46
2, 58320, Note_on_c, 0, 69, 0
2, 58320, Note_on_c, 0, 66, 25
2, 58560, Note_on_c, 0, 66, 0
2, 58560, Note_on_c, 0, 57, 32
2, 58560, Note_on_c, 0, 69, 36
2, 58800, Note_on_c, 0, 69, 0
2, 58800, Note_on_c, 0, 66, 25
2, 59040, Note_on_c, 0, 66, 0
2, 59040, Note_on_c, 0, 57, 0
2, 59040, Note_on_c, 0, 57, 32
2, 59040, Note_on_c, 0, 61, 36
2, 59160, Note_on_c, 0, 61, 0
2, 59160, Note_on_c, 0, 57, 0
2, 60000, Note_on_c, 0, 59, 34
2, 60000, Note_on_c, 0, 54, 30
2, 60240, Note_on_c, 0, 59, 0
2, 60240, Note_on_c, 0, 63, 28
2, 60480, Note_on_c, 0, 63, 0
2, 60480, Note_on_c, 0, 54, 0
2, 60480, Note_on_c, 0, 54, 29
2, 60480, Note_on_c, 0, 59, 33
2, 60720, Note_on_c, 0, 59, 0
2, 60720, Note_on_c, 0, 63, 25
2, 60960, Note_on_c, 0, 63, 0
2, 60960, Note_on_c, 0, 54, 0
2, 60960, Note_on_c, 0, 64, 42
2, 61440, Note_on_c, 0, 56, 30
2, 61440, Note_on_c, 0, 59, 30
2, 61560, Note_on_c, 0, 59, 0
2, 61560, Note_on_c, 0, 56, 0
2, 61920, Note_on_c, 0, 56, 30
2, 61920, Note_on_c, 0, 59, 30
2, 62040, Note_on_c, 0, 59, 0
2, 62040, Note_on_c, 0, 56, 0
2, 62400, Note_on_c, 0, 64, 0
2, 62880, Note_on_c, 0, 63, 39
2, 62880, Note_on_c, 0, 59, 30
2, 63120, Note_on_c, 0, 63, 0
2, 63120, Note_on_c, 0, 66, 32
2, 63360, Note_on_c, 0, 66, 0
2, 63360, Note_on_c, 0, 59, 0
2, 63360, Note_on_c, 0, 59, 29
2, 63360, Note_on_c, 0, 63, 37
2, 63586, Note_on_c, 0, 66, 28
2, 63600, Note_on_c, 0, 63, 0
2, 63826, Note_on_c, 0, 66, 0
2, 63840, Note_on_c, 0, 59, 0
2, 63840, Note_on_c, 0, 68, 49
2, 64080, Note_on_c, 0, 68, 0
2, 64080, Note_on_c, 0, 64, 28
2, 64320, Note_on_c, 0, 64, 0
2, 64320, Note_on_c, 0, 56, 32
2, 64320, Note_on_c, 0, 68, 41
2, 64560, Note_on_c, 0, 68, 0
2, 64560, Note_on_c, 0, 64, 28
2, 64800, Note_on_c, 0, 64, 0
2, 64800, Note_on_c, 0, 56, 0
2, 64800, Note_on_c, 0, 56, 32
2, 64800, Note_on_c, 0, 61, 41
2, 64920, Note_on_c, 0, 61, 0
2, 64920, Note_on_c, 0, 56, 0
2, 65760, Note_on_c, 0, 61, 39
2, 65760, Note_on_c, 0, 56, 30
2, 66000, Note_on_c, 0, 61, 0
2, 66000, Note_on_c, 0, 64, 32
2, 66240, Note_on_c, 0, 64, 0
2, 66240, Note_on_c, 0, 56, 0
2, 66240, Note_on_c, 0, 56, 29
2, 66240, Note_on_c, 0, 61, 37
2, 66480, Note_on_c, 0, 61, 0
2, 66480, Note_on_c, 0, 64, 28
2, 66720, Note_on_c, 0, 64, 0
2, 66720, Note_on_c, 0, 56, 0
2, 66720, Note_on_c, 0, 66, 48
2, 67200, Note_on_c, 0, 58, 30
2, 67200, Note_on_c, 0, 63, 30
2, 67320, Note_on_c, 0, 63, 0
2, 67320, Note_on_c, 0, 58, 0
2, 67680, Note_on_c, 0, 58, 30
2, 67680, Note_on_c, 0, 63, 30
2, 67800, Note_on_c, 0, 63, 0
2, 67800, Note_on_c, 0, 58, 0
2, 68160, Note_on_c, 0, 66, 0
2, 68640, Note_on_c, 0, 59, 39
2, 68640, Note_on_c, 0, 58, 30
2, 68880, Note_on_c, 0, 59, 0
2, 68880, Note_on_c, 0, 63, 32
2, 69120, Note_on_c, 0, 63, 0
2, 69120, Note_on_c, 0, 58, 0
2, 69120, Note_on_c, 0, 58, 29
2, 69120, Note_on_c, 0, 59, 37
2, 69360, Note_on_c, 0, 59, 0
2, 69360, Note_on_c, 0, 63, 28
2, 69600, Note_on_c, 0, 63, 0
2, 69600, Note_on_c, 0, 58, 0
2, 69600, Note_on_c, 0, 64, 49
2, 69840, Note_on_c, 0, 64, 0
2, 69840, Note_on_c, 0, 61, 28
2, 70080, Note_on_c, 0, 61, 0
2, 70080, Note_on_c, 0, 52, 32
2, 70080, Note_on_c, 0, 64, 41
2, 70320, Note_on_c, 0, 64, 0
2, 70320, Note_on_c, 0, 61, 28
2, 70560, Note_on_c, 0, 61, 0
2, 70560, Note_on_c, 0, 52, 0
2, 70560, Note_on_c, 0, 52, 32
2, 70560, Note_on_c, 0, 56, 41
2, 70680, Note_on_c, 0, 56, 0
2, 70680, Note_on_c, 0, 52, 0
2, 71520, Note_on_c, 0, 54, 39
2, 71520, Note_on_c, 0, 49, 30
2, 71760, Note_on_c, 0, 54, 0
2, 71760, Note_on_c, 0, 58, 32
2, 72000, Note_on_c, 0, 58, 0
2, 72000, Note_on_c, 0, 49, 0
2, 72000, Note_on_c, 0, 49, 29
2, 72000, Note_on_c, 0, 54, 37
2, 72240, Note_on_c, 0, 54, 0
2, 72240, Note_on_c, 0, 58, 28
2, 72480, Note_on_c, 0, 58, 0
2, 72480, Note_on_c, 0, 49, 0
2, 72480, Note_on_c, 0, 59, 48
2, 72960, Note_on_c, 0, 51, 30
2, 72960, Note_on_c, 0, 54, 30
2, 73080, Note_on_c, 0, 54, 0
2, 73080, Note_on_c, 0, 51, 0
2, 73440, Note_on_c, 0, 51, 30
2, 73440, Note_on_c, 0, 54, 30
2, 73560, Note_on_c, 0, 54, 0
2, 73560, Note_on_c, 0, 51, 0
2, 73920, Note_on_c, 0, 59, 0
2, 74400, Note_on_c, 0, 78, 30
2, 74400, Note_on_c, 0, 75, 30
2, 74640, Note_on_c, 0, 78, 0
2, 74640, Note_on_c, 0, 82, 25
2, 74880, Note_on_c, 0, 82, 0
2, 74880, Note_on_c, 0, 75, 0
2, 74880, Note_on_c, 0, 75, 29
2, 74880, Note_on_c, 0, 78, 29
2, 75120, Note_on_c, 0, 78, 0
2, 75120, Note_on_c, 0, 82, 22
2, 75360, Note_on_c, 0, 82, 0
2, 75360, Note_on_c, 0, 75, 0
2, 75360, Note_on_c, 0, 84, 38
2, 75600, Note_on_c, 0, 84, 0
2, 75600, Note_on_c, 0, 80, 22
2, 75840, Note_on_c, 0, 80, 0
2, 75840, Note_on_c, 0, 72, 32
2, 75840, Note_on_c, 0, 84, 32
2, 76080, Note_on_c, 0, 84, 0
2, 76080, Note_on_c, 0, 80, 22
2, 76320, Note_on_c, 0, 80, 0
2, 76320, Note_on_c, 0, 72, 0
2, 76320, Note_on_c, 0, 72, 32
2, 76320, Note_on_c, 0, 75, 32
2, 76440, Note_on_c, 0, 75, 0
2, 76440, Note_on_c, 0, 72, 0
2, 77280, Note_on_c, 0, 78, 30
2, 77280, Note_on_c, 0, 75, 30
2, 77520, Note_on_c, 0, 78, 0
2, 77520, Note_on_c, 0, 82, 25
2, 77760, Note_on_c, 0, 82, 0
2, 77760, Note_on_c, 0, 75, 0
2, 77760, Note_on_c, 0, 75, 29
2, 77760, Note_on_c, 0, 78, 29
2, 78000, Note_on_c, 0, 78, 0
2, 78000, Note_on_c, 0, 82, 22
2, 78240, Note_on_c, 0, 82, 0
2, 78240, Note_on_c, 0, 75, 0
2, 78240, Note_on_c, 0, 77, 37
2, 78720, Note_on_c, 0, 70, 30
2, 78720, Note_on_c, 0, 74, 30
2, 78840, Note_on_c, 0, 74, 0
2, 78840, Note_on_c, 0, 70, 0
2, 79200, Note_on_c, 0, 70, 30
2, 79200, Note_on_c, 0, 74, 30
2, 79320, Note_on_c, 0, 74, 0
2, 79320, Note_on_c, 0, 70, 0
2, 79680, Note_on_c, 0, 77, 0
2, 80160, Note_on_c, 0, 85, 33
2, 80160, Note_on_c, 0, 82, 33
2, 80400, Note_on_c, 0, 85, 0
2, 80400, Note_on_c, 0, 89, 27
2, 80640, Note_on_c, 0, 89, 0
2, 80640, Note_on_c, 0, 82, 0
2, 80640, Note_on_c, 0, 82, 31
2, 80640, Note_on_c, 0, 85, 31
2, 80880, Note_on_c, 0, 85, 0
2, 80880, Note_on_c, 0, 89, 24
2, 81120, Note_on_c, 0, 89, 0
2, 81120, Note_on_c, 0, 82, 0
2, 81120, Note_on_c, 0, 91, 44
2, 81360, Note_on_c, 0, 91, 0
2, 81360, Note_on_c, 0, 87, 24
2, 81600, Note_on_c, 0, 87, 0
2, 81600, Note_on_c, 0, 79, 35
2, 81600, Note_on_c, 0, 91, 35
2, 81840, Note_on_c, 0, 91, 0
2, 81840, Note_on_c, 0, 87, 24
2, 82080, Note_on_c, 0, 87, 0
2, 82080, Note_on_c, 0, 79, 0
2, 82080, Note_on_c, 0, 79, 35
2, 82080, Note_on_c, 0, 82, 35
2, 82200, Note_on_c, 0, 82, 0
2, 82200, Note_on_c, 0, 79, 0
2, 83040, Note_on_c, 0, 85, 33
2, 83040, Note_on_c, 0, 82, 33
2, 83280, Note_on_c, 0, 85, 0
2, 83280, Note_on_c, 0, 89, 27
2, 83520, Note_on_c, 0, 89, 0
2, 83520, Note_on_c, 0, 82, 0
2, 83520, Note_on_c, 0, 82, 31
2, 83520, Note_on_c, 0, 85, 31
2, 83760, Note_on_c, 0, 85, 0
2, 83760, Note_on_c, 0, 89, 24
2, 84000, Note_on_c, 0, 89, 0
2, 84000, Note_on_c, 0, 82, 0
2, 84000, Note_on_c, 0, 84, 40
2, 84480, Note_on_c, 0, 77, 33
2, 84480, Note_on_c, 0, 81, 33
2, 84600, Note_on_c, 0, 81, 0
2, 84600, Note_on_c, 0, 77, 0
2, 84960, Note_on_c, 0, 77, 33
2, 84960, Note_on_c, 0, 81, 33
2, 85080, Note_on_c, 0, 81, 0
2, 85080, Note_on_c, 0, 77, 0
2, 85440, Note_on_c, 0, 84, 0
2, 85920, Note_on_c, 0, 68, 30
2, 85920, Note_on_c, 0, 65, 30
2, 86160, Note_on_c, 0, 68, 0
2, 86160, Note_on_c, 0, 72, 25
2, 86400, Note_on_c, 0, 72, 0
2, 86400, Note_on_c, 0, 65, 0
2, 86400, Note_on_c, 0, 65, 29
2, 86400, Note_on_c, 0, 68, 29
2, 86640, Note_on_c, 0, 68, 0
2, 86640, Note_on_c, 0, 72, 22
2, 86880, Note_on_c, 0, 72, 0
2, 86880, Note_on_c, 0, 65, 0
2, 86880, Note_on_c, 0, 74, 38
2, 87120, Note_on_c, 0, 74, 0
2, 87120, Note_on_c, 0, 70, 22
2, 87360, Note_on_c, 0, 70, 0
2, 87360, Note_on_c, 0, 62, 32
2, 87360, Note_on_c, 0, 74, 32
2, 87600, Note_on_c, 0, 74, 0
2, 87600, Note_on_c, 0, 70, 22
2, 87840, Note_on_c, 0, 70, 0
2, 87840, Note_on_c, 0, 62, 0
2, 87840, Note_on_c, 0, 62, 32
2, 87840, Note_on_c, 0, 65, 32
2, 87960, Note_on_c, 0, 65, 0
2, 87960, Note_on_c, 0, 62, 0
2, 88800, Note_on_c, 0, 68, 30
2, 88800, Note_on_c, 0, 65, 30
2, 89040, Note_on_c, 0, 68, 0
2, 89040, Note_on_c, 0, 72, 25
2, 89280, Note_on_c, 0, 72, 0
2, 89280, Note_on_c, 0, 65, 0
2, 89280, Note_on_c, 0, 65, 29
2, 89280, Note_on_c, 0, 68, 29
2, 89520, Note_on_c, 0, 68, 0
2, 89520, Note_on_c, 0, 72, 22
2, 89760, Note_on_c, 0, 72, 0
2, 89760, Note_on_c, 0, 65, 0
2, 89760, Note_on_c, 0, 67, 37
2, 90240, Note_on_c, 0, 60, 30
2, 90240, Note_on_c, 0, 64, 30
2, 90360, Note_on_c, 0, 64, 0
2, 90360, Note_on_c, 0, 60, 0
2, 90720, Note_on_c, 0, 60, 30
2, 90720, Note_on_c, 0, 64, 30
2, 90840, Note_on_c, 0, 64, 0
2, 90840, Note_on_c, 0, 60, 0
2, 91200, Note_on_c, 0, 67, 0
2, 91680, Note_on_c, 0, 75, 41
2, 91680, Note_on_c, 0, 72, 41
2, 91920, Note_on_c, 0, 75, 0
2, 91920, Note_on_c, 0, 79, 35
2, 92160, Note_on_c, 0, 79, 0
2, 92160, Note_on_c, 0, 72, 0
2, 92160, Note_on_c, 0, 72, 40
2, 92160, Note_on_c, 0, 75, 40
2, 92400, Note_on_c, 0, 75, 0
2, 92400, Note_on_c, 0, 79, 31
2, 92640, Note_on_c, 0, 79, 0
2, 92640, Note_on_c, 0, 72, 0
2, 92640, Note_on_c, 0, 81, 59
2, 92880, Note_on_c, 0, 81, 0
2, 92880, Note_on_c, 0, 77, 32
2, 93120, Note_on_c, 0, 77, 0
2, 93120, Note_on_c, 0, 69, 48
2, 93120, Note_on_c, 0, 81, 48
2, 93360, Note_on_c, 0, 81, 0
2, 93360, Note_on_c, 0, 77, 33
2, 93600, Note_on_c, 0, 77, 0
2, 93600, Note_on_c, 0, 69, 0
2, 93600, Note_on_c, 0, 69, 49
2, 93600, Note_on_c, 0, 72, 49
2, 93720, Note_on_c, 0, 72, 0
2, 93720, Note_on_c, 0, 69, 0
2, 94560, Note_on_c, 0, 87, 53
2, 94560, Note_on_c, 0, 84, 53
2, 94800, Note_on_c, 0, 87, 0
2, 94800, Note_on_c, 0, 91, 43
2, 95040, Note_on_c, 0, 91, 0
2, 95040, Note_on_c, 0, 84, 0
2, 95040, Note_on_c, 0, 84, 51
2, 95040, Note_on_c, 0, 87, 51
2, 95280, Note_on_c, 0, 87, 0
2, 95280, Note_on_c, 0, 91, 38
2, 95520, Note_on_c, 0, 91, 0
2, 95520, Note_on_c, 0, 84, 0
2, 95520, Note_on_c, 0, 93, 74
2, 95760, Note_on_c, 0, 93, 0
2, 95760, Note_on_c, 0, 89, 39
2, 96000, Note_on_c, 0, 89, 0
2, 96000, Note_on_c, 0, 81, 59
2, 96000, Note_on_c, 0, 93, 59
2, 96240, Note_on_c, 0, 93, 0
2, 96240, Note_on_c, 0, 89, 40
2, 96480, Note_on_c, 0, 89, 0
2, 96480, Note_on_c, 0, 81, 0
2, 96480, Note_on_c, 0, 81, 61
2, 96480, Note_on_c, 0, 84, 61
2, 96600, Note_on_c, 0, 84, 0
2, 96600, Note_on_c, 0, 81, 0
2, 96960, Note_on_c, 0, 75, 63
2, 96960, Note_on_c, 0, 72, 53
2, 97200, Note_on_c, 0, 75, 0
2, 97200, Note_on_c, 0, 79, 70
2, 97440, Note_on_c, 0, 79, 0
2, 97440, Note_on_c, 0, 72, 0
2, 97440, Note_on_c, 0, 72, 60
2, 97440, Note_on_c, 0, 77, 71
2, 97440, Note_on_c, 0, 81, 71
2, 98400, Note_on_c, 0, 81, 0
2, 98400, Note_on_c, 0, 77, 0
2, 98400, Note_on_c, 0, 72, 0
2, 98400, Note_on_c, 0, 87, 72
2, 98400, Note_on_c, 0, 84, 61
2, 98640, Note_on_c, 0, 87, 0
2, 98640, Note_on_c, 0, 91, 80
2, 98880, Note_on_c, 0, 91, 0
2, 98880, Note_on_c, 0, 84, 0
2, 98880, Note_on_c, 0, 84, 68
2, 98880, Note_on_c, 0, 89, 81
2, 98880, Note_on_c, 0, 93, 81
2, 99840, Note_on_c, 0, 93, 0
2, 99840, Note_on_c, 0, 89, 0
2, 99840, Note_on_c, 0, 84, 0
2, 99840, Note_on_c, 0, 75, 70
2, 99840, Note_on_c, 0, 72, 58
2, 100080, Note_on_c, 0, 75, 0
2, 100080, Note_on_c, 0, 79, 76
2, 100320, Note_on_c, 0, 79, 0
2, 100320, Note_on_c, 0, 72, 0
2, 100320, Note_on_c, 0, 72, 65
2, 100320, Note_on_c, 0, 77, 77
2, 100320, Note_on_c, 0, 81, 77
2, 101280, Note_on_c, 0, 81, 0
2, 101280, Note_on_c, 0, 77, 0
2, 101280, Note_on_c, 0, 72, 0
2, 101280, Note_on_c, 0, 87, 78
2, 101280, Note_on_c, 0, 84, 66
2, 101520, Note_on_c, 0, 87, 0
2, 101520, Note_on_c, 0, 91, 87
2, 101760, Note_on_c, 0, 91, 0
2, 101760, Note_on_c, 0, 84, 0
2, 101760, Note_on_c, 0, 84, 75
2, 101760, Note_on_c, 0, 89, 88
2, 101760, Note_on_c, 0, 93, 88
2, 102711, Note_on_c, 0, 93, 0
2, 102711, Note_on_c, 0, 89, 0
2, 102711, Note_on_c, 0, 84, 0
2, 102720, Note_on_c, 0, 72, 85
2, 102720, Note_on_c, 0, 77, 85
2, 102720, Note_on_c, 0, 81, 85
2, 103671, Note_on_c, 0, 81, 0
2, 103671, Note_on_c, 0, 77, 0
2, 103671, Note_on_c, 0, 72, 0
2, 103680, Note_on_c, 0, 84, 88
2, 103680, Note_on_c, 0, 89, 88
2, 103680, Note_on_c, 0, 93, 88
2, 104631, Note_on_c, 0, 93, 0
2, 104631, Note_on_c, 0, 89, 0
2, 104631, Note_on_c, 0, 84, 0
2, 104640, Note_on_c, 0, 72, 85
2, 104640, Note_on_c, 0, 77, 85
2, 104640, Note_on_c, 0, 81, 85
2, 105591, Note_on_c, 0, 81, 0
2, 105591, Note_on_c, 0, 77, 0
2, 105591, Note_on_c, 0, 72, 0
2, 105600, Note_on_c, 0, 84, 88
2, 105600, Note_on_c, 0, 89, 88
2, 105600, Note_on_c, 0, 93, 88
2, 106551, Note_on_c, 0, 93, 0
2, 106551, Note_on_c, 0, 89, 0
2, 106551, Note_on_c, 0, 84, 0
2, 106560, Note_on_c, 0, 72, 85
2, 106560, Note_on_c, 0, 77, 85
2, 106560, Note_on_c, 0, 81, 85
2, 107511, Note_on_c, 0, 81, 0
2, 107511, Note_on_c, 0, 77, 0
2, 107511, Note_on_c, 0, 72, 0
2, 107520, Note_on_c, 0, 84, 88
2, 107520, Note_on_c, 0, 89, 88
2, 107520, Note_on_c, 0, 93, 88
2, 108471, Note_on_c, 0, 93, 0
2, 108471, Note_on_c, 0, 89, 0
2, 108471, Note_on_c, 0, 84, 0
2, 108480, Note_on_c, 0, 71, 92
2, 108480, Note_on_c, 0, 78, 92
2, 108480, Note_on_c, 0, 83, 92
2, 109431, Note_on_c, 0, 83, 0
2, 109431, Note_on_c, 0, 78, 0
2, 109431, Note_on_c, 0, 71, 0
2, 109440, Note_on_c, 0, 83, 97
2, 109440, Note_on_c, 0, 90, 97
2, 109440, Note_on_c, 0, 95, 97
2, 110391, Note_on_c, 0, 95, 0
2, 110391, Note_on_c, 0, 90, 0
2, 110391, Note_on_c, 0, 83, 0
2, 110400, Note_on_c, 0, 71, 92
2, 110400, Note_on_c, 0, 78, 92
2, 110400, Note_on_c, 0, 83, 92
2, 111351, Note_on_c, 0, 83, 0
2, 111351, Note_on_c, 0, 78, 0
2, 111351, Note_on_c, 0, 71, 0
2, 111360, Note_on_c, 0, 83, 97
2, 111360, Note_on_c, 0, 90, 97
2, 111360, Note_on_c, 0, 95, 97
2, 112311, Note_on_c, 0, 95, 0
2, 112311, Note_on_c, 0, 90, 0
2, 112311, Note_on_c, 0, 83, 0
2, 112320, Note_on_c, 0, 71, 92
2, 112320, Note_on_c, 0, 78, 92
2, 112320, Note_on_c, 0, 83, 92
2, 113271, Note_on_c, 0, 83, 0
2, 113271, Note_on_c, 0, 78, 0
2, 113271, Note_on_c, 0, 71, 0
2, 113280, Note_on_c, 0, 83, 97
2, 113280, Note_on_c, 0, 90, 97
2, 113280, Note_on_c, 0, 95, 97
2, 114231, Note_on_c, 0, 95, 0
2, 114231, Note_on_c, 0, 90, 0
2, 114231, Note_on_c, 0, 83, 0
2, 114720, Note_on_c, 0, 76, 76
2, 114720, Note_on_c, 0, 80, 92
2, 114960, Note_on_c, 0, 80, 0
2, 114960, Note_on_c, 0, 83, 76
2, 115200, Note_on_c, 0, 83, 0
2, 115200, Note_on_c, 0, 76, 0
2, 115200, Note_on_c, 0, 80, 90
2, 115200, Note_on_c, 0, 76, 75
2, 115440, Note_on_c, 0, 80, 0
2, 115440, Note_on_c, 0, 83, 76
2, 115680, Note_on_c, 0, 83, 0
2, 115680, Note_on_c, 0, 76, 0
2, 115680, Note_on_c, 0, 85, 92
2, 115920, Note_on_c, 0, 85, 0
2, 115920, Note_on_c, 0, 81, 77
2, 116160, Note_on_c, 0, 81, 0
2, 116160, Note_on_c, 0, 73, 55
2, 116160, Note_on_c, 0, 85, 75
2, 116400, Note_on_c, 0, 85, 0
2, 116400, Note_on_c, 0, 81, 72
2, 116640, Note_on_c, 0, 81, 0
2, 116640, Note_on_c, 0, 73, 0
2, 116640, Note_on_c, 0, 73, 71
2, 116640, Note_on_c, 0, 78, 80
2, 116760, Note_on_c, 0, 78, 0
2, 116760, Note_on_c, 0, 73, 0
2, 117600, Note_on_c, 0, 78, 87
2, 117600, Note_on_c, 0, 73, 87
2, 117840, Note_on_c, 0, 78, 0
2, 117840, Note_on_c, 0, 81, 76
2, 118080, Note_on_c, 0, 81, 0
2, 118080, Note_on_c, 0, 73, 0
2, 118080, Note_on_c, 0, 73, 86
2, 118080, Note_on_c, 0, 78, 86
2, 118320, Note_on_c, 0, 78, 0
2, 118320, Note_on_c, 0, 81, 75
2, 118560, Note_on_c, 0, 81, 0
2, 118560, Note_on_c, 0, 73, 0
2, 118560, Note_on_c, 0, 83, 88
2, 119040, Note_on_c, 0, 80, 72
2, 119040, Note_on_c, 0, 75, 72
2, 119160, Note_on_c, 0, 75, 0
2, 119160, Note_on_c, 0, 80, 0
2, 119520, Note_on_c, 0, 75, 72
2, 119520, Note_on_c, 0, 80, 72
2, 119640, Note_on_c, 0, 80, 0
2, 119640, Note_on_c, 0, 75, 0
2, 120000, Note_on_c, 0, 83, 0
2, 120480, Note_on_c, 0, 76, 75
2, 120480, Note_on_c, 0, 75, 75
2, 120720, Note_on_c, 0, 76, 0
2, 120720, Note_on_c, 0, 80, 63
2, 120960, Note_on_c, 0, 80, 0
2, 120960, Note_on_c, 0, 75, 0
2, 120960, Note_on_c, 0, 75, 74
2, 120960, Note_on_c, 0, 76, 74
2, 121200, Note_on_c, 0, 76, 0
2, 121200, Note_on_c, 0, 80, 63
2, 121440, Note_on_c, 0, 80, 0
2, 121440, Note_on_c, 0, 75, 0
2, 121440, Note_on_c, 0, 81, 73
2, 121680, Note_on_c, 0, 81, 0
2, 121680, Note_on_c, 0, 78, 63
2, 121920, Note_on_c, 0, 78, 0
2, 121920, Note_on_c, 0, 81, 65
2, 121920, Note_on_c, 0, 69, 62
2, 122160, Note_on_c, 0, 81, 0
2, 122160, Note_on_c, 0, 78, 58
2, 122400, Note_on_c, 0, 78, 0
2, 122400, Note_on_c, 0, 69, 0
2, 122400, Note_on_c, 0, 69, 65
2, 122400, Note_on_c, 0, 73, 65
2, 122520, Note_on_c, 0, 73, 0
2, 122520, Note_on_c, 0, 69, 0
2, 123360, Note_on_c, 0, 66, 53
2, 123360, Note_on_c, 0, 71, 63
2, 123600, Note_on_c, 0, 71, 0
2, 123600, Note_on_c, 0, 75, 53
2, 123840, Note_on_c, 0, 75, 0
2, 123840, Note_on_c, 0, 66, 0
2, 123840, Note_on_c, 0, 71, 63
2, 123840, Note_on_c, 0, 66, 52
2, 124080, Note_on_c, 0, 71, 0
2, 124080, Note_on_c, 0, 75, 53
2, 124320, Note_on_c, 0, 75, 0
2, 124320, Note_on_c, 0, 66, 0
2, 124320, Note_on_c, 0, 76, 65
2, 124800, Note_on_c, 0, 71, 47
2, 124800, Note_on_c, 0, 68, 47
2, 124920, Note_on_c, 0, 68, 0
2, 124920, Note_on_c, 0, 71, 0
2, 125280, Note_on_c, 0, 68, 45
2, 125280, Note_on_c, 0, 71, 45
2, 125400, Note_on_c, 0, 71, 0
2, 125400, Note_on_c, 0, 68, 0
2, 125760, Note_on_c, 0, 76, 0
2, 126240, Note_on_c, 0, 63, 39
2, 126240, Note_on_c, 0, 59, 30
2, 126480, Note_on_c, 0, 63, 0
2, 126480, Note_on_c, 0, 66, 32
2, 126720, Note_on_c, 0, 66, 0
2, 126720, Note_on_c, 0, 59, 0
2, 126720, Note_on_c, 0, 59, 29
2, 126720, Note_on_c, 0, 63, 37
2, 126960, Note_on_c, 0, 63, 0
2, 126960, Note_on_c, 0, 66, 28
2, 127200, Note_on_c, 0, 66, 0
2, 127200, Note_on_c, 0, 59, 0
2, 127200, Note_on_c, 0, 68, 49
2, 127440, Note_on_c, 0, 68, 0
2, 127440, Note_on_c, 0, 64, 28
2, 127680, Note_on_c, 0, 64, 0
2, 127680, Note_on_c, 0, 56, 32
2, 127680, Note_on_c, 0, 68, 41
2, 127920, Note_on_c, 0, 68, 0
2, 127920, Note_on_c, 0, 64, 28
2, 128160, Note_on_c, 0, 64, 0
2, 128160, Note_on_c, 0, 56, 0
2, 128160, Note_on_c, 0, 56, 32
2, 128160, Note_on_c, 0, 61, 41
2, 128280, Note_on_c, 0, 61, 0
2, 128280, Note_on_c, 0, 56, 0
2, 129120, Note_on_c, 0, 61, 39
2, 129120, Note_on_c, 0, 56, 30
2, 129360, Note_on_c, 0, 61, 0
2, 129360, Note_on_c, 0, 64, 32
2, 129600, Note_on_c, 0, 64, 0
2, 129600, Note_on_c, 0, 56, 0
2, 129600, Note_on_c, 0, 56, 29
2, 129600, Note_on_c, 0, 61, 37
2, 129840, Note_on_c, 0, 61, 0
2, 129840, Note_on_c, 0, 64, 28
2, 130080, Note_on_c, 0, 64, 0
2, 130080, Note_on_c, 0, 56, 0
2, 130080, Note_on_c, 0, 66, 48
2, 130560, Note_on_c, 0, 58, 30
2, 130560, Note_on_c, 0, 63, 30
2, 130680, Note_on_c, 0, 63, 0
2, 130680, Note_on_c, 0, 58, 0
2, 131040, Note_on_c, 0, 58, 30
2, 131040, Note_on_c, 0, 63, 30
2, 131160, Note_on_c, 0, 63, 0
2, 131160, Note_on_c, 0, 58, 0
2, 131520, Note_on_c, 0, 66, 0
2, 132000, Note_on_c, 0, 59, 39
2, 132000, Note_on_c, 0, 58, 30
2, 132240, Note_on_c, 0, 59, 0
2, 132240, Note_on_c, 0, 63, 32
2, 132480, Note_on_c, 0, 63, 0
2, 132480, Note_on_c, 0, 58, 0
2, 132480, Note_on_c, 0, 58, 29
2, 132480, Note_on_c, 0, 59, 37
2, 132720, Note_on_c, 0, 59, 0
2, 132720, Note_on_c, 0, 63, 28
2, 132960, Note_on_c, 0, 63, 0
2, 132960, Note_on_c, 0, 58, 0
2, 132960, Note_on_c, 0, 64, 49
2, 133200, Note_on_c, 0, 64, 0
2, 133200, Note_on_c, 0, 61, 28
2, 133440, Note_on_c, 0, 61, 0
2, 133440, Note_on_c, 0, 52, 32
2, 133440, Note_on_c, 0, 64, 41
2, 133680, Note_on_c, 0, 64, 0
2, 133680, Note_on_c, 0, 61, 28
2, 133920, Note_on_c, 0, 61, 0
2, 133920, Note_on_c, 0, 52, 0
2, 133920, Note_on_c, 0, 52, 32
2, 133920, Note_on_c, 0, 56, 41
2, 134040, Note_on_c, 0, 56, 0
2, 134040, Note_on_c, 0, 52, 0
2, 134880, Note_on_c, 0, 54, 39
2, 134880, Note_on_c, 0, 49, 30
2, 135120, Note_on_c, 0, 54, 0
2, 135120, Note_on_c, 0, 58, 32
2, 135360, Note_on_c, 0, 58, 0
2, 135360, Note_on_c, 0, 49, 0
2, 135360, Note_on_c, 0, 49, 29
2, 135360, Note_on_c, 0, 54, 37
2, 135600, Note_on_c, 0, 54, 0
2, 135600, Note_on_c, 0, 58, 28
2, 135840, Note_on_c, 0, 58, 0
2, 135840, Note_on_c, 0, 49, 0
2, 135840, Note_on_c, 0, 59, 48
2, 136320, Note_on_c, 0, 51, 30
2, 136320, Note_on_c, 0, 54, 30
2, 136440, Note_on_c, 0, 54, 0
2, 136440, Note_on_c, 0, 51, 0
2, 136800, Note_on_c, 0, 51, 30
2, 136800, Note_on_c, 0, 54, 30
2, 136920, Note_on_c, 0, 54, 0
2, 136920, Note_on_c, 0, 51, 0
2, 137280, Note_on_c, 0, 59, 0
2, 137760, Note_on_c, 0, 78, 30
2, 137760, Note_on_c, 0, 75, 30
2, 138000, Note_on_c, 0, 78, 0
2, 138000, Note_on_c, 0, 82, 25
2, 138240, Note_on_c, 0, 82, 0
2, 138240, Note_on_c, 0, 75, 0
2, 138240, Note_on_c, 0, 75, 29
2, 138240, Note_on_c, 0, 78, 29
2, 138480, Note_on_c, 0, 78, 0
2, 138480, Note_on_c, 0, 82, 22
2, 138720, Note_on_c, 0, 82, 0
2, 138720, Note_on_c, 0, 75, 0
2, 138720, Note_on_c, 0, 84, 38
2, 138960, Note_on_c, 0, 84, 0
2, 138960, Note_on_c, 0, 80, 22
2, 139200, Note_on_c, 0, 80, 0
2, 139200, Note_on_c, 0, 72, 32
2, 139200, Note_on_c, 0, 84, 32
2, 139440, Note_on_c, 0, 84, 0
2, 139440, Note_on_c, 0, 80, 22
2, 139680, Note_on_c, 0, 80, 0
2, 139680, Note_on_c, 0, 72, 0
2, 139680, Note_on_c, 0, 72, 32
2, 139680, Note_on_c, 0, 75, 32
2, 139800, Note_on_c, 0, 75, 0
2, 139800, Note_on_c, 0, 72, 0
2, 140640, Note_on_c, 0, 78, 30
2, 140640, Note_on_c, 0, 75, 30
2, 140880, Note_on_c, 0, 78, 0
2, 140880, Note_on_c, 0, 82, 25
2, 141120, Note_on_c, 0, 82, 0
2, 141120, Note_on_c, 0, 75, 0
2, 141120, Note_on_c, 0, 75, 29
2, 141120, Note_on_c, 0, 78, 29
2, 141360, Note_on_c, 0, 78, 0
2, 141360, Note_on_c, 0, 82, 22
2, 141600, Note_on_c, 0, 82, 0
2, 141600, Note_on_c, 0, 75, 0
2, 141600, Note_on_c, 0, 77, 37
2, 142080, Note_on_c, 0, 70, 30
2, 142080, Note_on_c, 0, 74, 30
2, 142200, Note_on_c, 0, 74, 0
2, 142200, Note_on_c, 0, 70, 0
2, 142560, Note_on_c, 0, 70, 30
2, 142560, Note_on_c, 0, 74, 30
2, 142680, Note_on_c, 0, 74, 0
2, 142680, Note_on_c, 0, 70, 0
2, 143040, Note_on_c, 0, 77, 0
2, 143520, Note_on_c, 0, 85, 33
2, 143520, Note_on_c, 0, 82, 33
2, 143760, Note_on_c, 0, 85, 0
2, 143760, Note_on_c, 0, 89, 27
2, 144000, Note_on_c, 0, 89, 0
2, 144000, Note_on_c, 0, 82, 0
2, 144000, Note_on_c, 0, 82, 31
2, 144000, Note_on_c, 0, 85, 31
2, 144240, Note_on_c, 0, 85, 0
2, 144240, Note_on_c, 0, 89, 24
2, 144480, Note_on_c, 0, 89, 0
2, 144480, Note_on_c, 0, 82, 0
2, 144480, Note_on_c, 0, 91, 44
2, 144720, Note_on_c, 0, 91, 0
2, 144720, Note_on_c, 0, 87, 24
2, 144960, Note_on_c, 0, 87, 0
2, 144960, Note_on_c, 0, 79, 35
2, 144960, Note_on_c, 0, 91, 35
2, 145200, Note_on_c, 0, 91, 0
2, 145200, Note_on_c, 0, 87, 24
2, 145440, Note_on_c, 0, 87, 0
2, 145440, Note_on_c, 0, 79, 0
2, 145440, Note_on_c, 0, 79, 35
2, 145440, Note_on_c, 0, 82, 35
2, 145560, Note_on_c, 0, 82, 0
2, 145560, Note_on_c, 0, 79, 0
2, 146400, Note_on_c, 0, 85, 33
2, 146400, Note_on_c, 0, 82, 33
2, 146640, Note_on_c, 0, 85, 0
2, 146640, Note_on_c, 0, 89, 27
2, 146880, Note_on_c, 0, 89, 0
2, 146880, Note_on_c, 0, 82, 0
2, 146880, Note_on_c, 0, 82, 31
2, 146880, Note_on_c, 0, 85, 31
2, 147120, Note_on_c, 0, 85, 0
2, 147120, Note_on_c, 0, 89, 24
2, 147360, Note_on_c, 0, 89, 0
2, 147360, Note_on_c, 0, 82, 0
2, 147360, Note_on_c, 0, 84, 40
2, 147840, Note_on_c, 0, 77, 33
2, 147840, Note_on_c, 0, 81, 33
2, 147960, Note_on_c, 0, 81, 0
2, 147960, Note_on_c, 0, 77, 0
2, 148320, Note_on_c, 0, 77, 33
2, 148320, Note_on_c, 0, 81, 33
2, 148440, Note_on_c, 0, 81, 0
2, 148440, Note_on_c, 0, 77, 0
2, 148800, Note_on_c, 0, 84, 0
2, 149280, Note_on_c, 0, 68, 30
2, 149280, Note_on_c, 0, 65, 30
2, 149520, Note_on_c, 0, 68, 0
2, 149520, Note_on_c, 0, 72, 25
2, 149760, Note_on_c, 0, 72, 0
2, 149760, Note_on_c, 0, 65, 0
2, 149760, Note_on_c, 0, 65, 29
2, 149760, Note_on_c, 0, 68, 29
2, 150000, Note_on_c, 0, 68, 0
2, 150000, Note_on_c, 0, 72, 22
2, 150240, Note_on_c, 0, 72, 0
2, 150240, Note_on_c, 0, 65, 0
2, 150240, Note_on_c, 0, 74, 38
2, 150480, Note_on_c, 0, 74, 0
2, 150480, Note_on_c, 0, 70, 22
2, 150720, Note_on_c, 0, 70, 0
2, 150720, Note_on_c, 0, 62, 32
2, 150720, Note_on_c, 0, 74, 32
2, 150960, Note_on_c, 0, 74, 0
2, 150960, Note_on_c, 0, 70, 22
2, 151200, Note_on_c, 0, 70, 0
2, 151200, Note_on_c, 0, 62, 0
2, 151200, Note_on_c, 0, 62, 32
2, 151200, Note_on_c, 0, 65, 32
2, 151320, Note_on_c, 0, 65, 0
2, 151320, Note_on_c, 0, 62, 0
2, 152160, Note_on_c, 0, 68, 30
2, 152160, Note_on_c, 0, 65, 30
2, 152400, Note_on_c, 0, 68, 0
2, 152400, Note_on_c, 0, 72, 25
2, 152640, Note_on_c, 0, 72, 0
2, 152640, Note_on_c, 0, 65, 0
2, 152640, Note_on_c, 0, 65, 29
2, 152640, Note_on_c, 0, 68, 29
2, 152880, Note_on_c, 0, 68, 0
2, 152880, Note_on_c, 0, 72, 22
2, 153120, Note_on_c, 0, 72, 0
2, 153120, Note_on_c, 0, 65, 0
2, 153120, Note_on_c, 0, 67, 37
2, 153600, Note_on_c, 0, 60, 30
2, 153600, Note_on_c, 0, 64, 30
2, 153720, Note_on_c, 0, 64, 0
2, 153720, Note_on_c, 0, 60, 0
2, 154080, Note_on_c, 0, 60, 30
2, 154080, Note_on_c, 0, 64, 30
2, 154200, Note_on_c, 0, 64, 0
2, 154200, Note_on_c, 0, 60, 0
2, 154560, Note_on_c, 0, 67, 0
2, 155040, Note_on_c, 0, 75, 41
2, 155040, Note_on_c, 0, 72, 41
2, 155280, Note_on_c, 0, 75, 0
2, 155280, Note_on_c, 0, 79, 35
2, 155520, Note_on_c, 0, 79, 0
2, 155520, Note_on_c, 0, 72, 0
2, 155520, Note_on_c, 0, 72, 40
2, 155520, Note_on_c, 0, 75, 40
2, 155760, Note_on_c, 0, 75, 0
2, 155760, Note_on_c, 0, 79, 31
2, 156000, Note_on_c, 0, 79, 0
2, 156000, Note_on_c, 0, 72, 0
2, 156000, Note_on_c, 0, 81, 59
2, 156240, Note_on_c, 0, 81, 0
2, 156240, Note_on_c, 0, 77, 32
2, 156480, Note_on_c, 0, 77, 0
2, 156480, Note_on_c, 0, 69, 48
2, 156480, Note_on_c, 0, 81, 48
2, 156720, Note_on_c, 0, 81, 0
2, 156720, Note_on_c, 0, 77, 33
2, 156960, Note_on_c, 0, 77, 0
2, 156960, Note_on_c, 0, 69, 0
2, 156960, Note_on_c, 0, 69, 49
2, 156960, Note_on_c, 0, 72, 49
2, 157080, Note_on_c, 0, 72, 0
2, 157080, Note_on_c, 0, 69, 0
2, 157920, Note_on_c, 0, 87, 53
2, 157920, Note_on_c, 0, 84, 53
2, 158160, Note_on_c, 0, 87, 0
2, 158160, Note_on_c, 0, 91, 43
2, 158400, Note_on_c, 0, 91, 0
2, 158400, Note_on_c, 0, 84, 0
2, 158400, Note_on_c, 0, 84, 51
2, 158400, Note_on_c, 0, 87, 51
2, 158640, Note_on_c, 0, 87, 0
2, 158640, Note_on_c, 0, 91, 38
2, 158880, Note_on_c, 0, 91, 0
2, 158880, Note_on_c, 0, 84, 0
2, 158880, Note_on_c, 0, 93, 74
2, 159120, Note_on_c, 0, 93, 0
2, 159120, Note_on_c, 0, 89, 39
2, 159360, Note_on_c, 0, 89, 0
2, 159360, Note_on_c, 0, 81, 59
2, 159360, Note_on_c, 0, 93, 59
2, 159600, Note_on_c, 0, 93, 0
2, 159600, Note_on_c, 0, 89, 40
2, 159840, Note_on_c, 0, 89, 0
2, 159840, Note_on_c, 0, 81, 0
2, 159840, Note_on_c, 0, 81, 61
2, 159840, Note_on_c, 0, 84, 61
2, 159960, Note_on_c, 0, 84, 0
2, 159960, Note_on_c, 0, 81, 0
2, 160320, Note_on_c, 0, 75, 63
2, 160320, Note_on_c, 0, 72, 53
2, 160560, Note_on_c, 0, 75, 0
2, 160560, Note_on_c, 0, 79, 70
2, 160800, Note_on_c, 0, 79, 0
2, 160800, Note_on_c, 0, 72, 0
2, 160800, Note_on_c, 0, 72, 60
2, 160800, Note_on_c, 0, 77, 71
2, 160800, Note_on_c, 0, 81, 71
2, 161760, Note_on_c, 0, 81, 0
2, 161760, Note_on_c, 0, 77, 0
2, 161760, Note_on_c, 0, 72, 0
2, 161760, Note_on_c, 0, 87, 72
2, 161760, Note_on_c, 0, 84, 61
2, 162000, Note_on_c, 0, 87, 0
2, 162000, Note_on_c, 0, 91, 80
2, 162240, Note_on_c, 0, 91, 0
2, 162240, Note_on_c, 0, 84, 0
2, 162240, Note_on_c, 0, 84, 68
2, 162240, Note_on_c, 0, 89, 81
2, 162240, Note_on_c, 0, 93, 81
2, 163200, Note_on_c, 0, 93, 0
2, 163200, Note_on_c, 0, 89, 0
2, 163200, Note_on_c, 0, 84, 0
2, 163200, Note_on_c, 0, 75, 70
2, 163200, Note_on_c, 0, 72, 58
2, 163440, Note_on_c, 0, 75, 0
2, 163440, Note_on_c, 0, 79, 76
2, 163680, Note_on_c, 0, 79, 0
2, 163680, Note_on_c, 0, 72, 0
2, 163680, Note_on_c, 0, 72, 65
2, 163680, Note_on_c, 0, 77, 77
2, 163680, Note_on_c, 0, 81, 77
2, 164640, Note_on_c, 0, 81, 0
2, 164640, Note_on_c, 0, 77, 0
2, 164640, Note_on_c, 0, 72, 0
2, 164640, Note_on_c, 0, 87, 78
2, 164640, Note_on_c, 0, 84, 66
2, 164880, Note_on_c, 0, 87, 0
2, 164880, Note_on_c, 0, 91, 87
2, 165120, Note_on_c, 0, 91, 0
2, 165120, Note_on_c, 0, 84, 0
2, 165120, Note_on_c, 0, 84, 75
2, 165120, Note_on_c, 0, 89, 88
2, 165120, Note_on_c, 0, 93, 88
2, 166071, Note_on_c, 0, 93, 0
2, 166071, Note_on_c, 0, 89, 0
2, 166071, Note_on_c, 0, 84, 0
2, 166080, Note_on_c, 0, 72, 85
2, 166080, Note_on_c, 0, 77, 85
2, 166080, Note_on_c, 0, 81, 85
2, 167031, Note_on_c, 0, 81, 0
2, 167031, Note_on_c, 0, 77, 0
2, 167031, Note_on_c, 0, 72, 0
2, 167040, Note_on_c, 0, 84, 88
2, 167040, Note_on_c, 0, 89, 88
2, 167040, Note_on_c, 0, 93, 88
2, 167991, Note_on_c, 0, 93, 0
2, 167991, Note_on_c, 0, 89, 0
2, 167991, Note_on_c, 0, 84, 0
2, 168000, Note_on_c, 0, 72, 85
2, 168000, Note_on_c, 0, 77, 85
2, 168000, Note_on_c, 0, 81, 85
2, 168951, Note_on_c, 0, 81, 0
2, 168951, Note_on_c, 0, 77, 0
2, 168951, Note_on_c, 0, 72, 0
2, 168960, Note_on_c, 0, 84, 88
2, 168960, Note_on_c, 0, 89, 88
2, 168960, Note_on_c, 0, 93, 88
2, 169911, Note_on_c, 0, 93, 0
2, 169911, Note_on_c, 0, 89, 0
2, 169911, Note_on_c, 0, 84, 0
2, 169920, Note_on_c, 0, 72, 85
2, 169920, Note_on_c, 0, 77, 85
2, 169920, Note_on_c, 0, 81, 85
2, 170871, Note_on_c, 0, 81, 0
2, 170871, Note_on_c, 0, 77, 0
2, 170871, Note_on_c, 0, 72, 0
2, 170880, Note_on_c, 0, 84, 88
2, 170880, Note_on_c, 0, 89, 88
2, 170880, Note_on_c, 0, 93, 88
2, 171831, Note_on_c, 0, 93, 0
2, 171831, Note_on_c, 0, 89, 0
2, 171831, Note_on_c, 0, 84, 0
2, 171840, Note_on_c, 0, 71, 92
2, 171840, Note_on_c, 0, 78, 92
2, 171840, Note_on_c, 0, 83, 92
2, 172791, Note_on_c, 0, 83, 0
2, 172791, Note_on_c, 0, 78, 0
2, 172791, Note_on_c, 0, 71, 0
2, 172800, Note_on_c, 0, 83, 97
2, 172800, Note_on_c, 0, 90, 97
2, 172800, Note_on_c, 0, 95, 97
2, 173751, Note_on_c, 0, 95, 0
2, 173751, Note_on_c, 0, 90, 0
2, 173751, Note_on_c, 0, 83, 0
2, 173760, Note_on_c, 0, 71, 92
2, 173760, Note_on_c, 0, 78, 92
2, 173760, Note_on_c, 0, 83, 92
2, 174711, Note_on_c, 0, 83, 0
2, 174711, Note_on_c, 0, 78, 0
2, 174711, Note_on_c, 0, 71, 0
2, 174720, Note_on_c, 0, 83, 97
2, 174720, Note_on_c, 0, 90, 97
2, 174720, Note_on_c, 0, 95, 97
2, 175671, Note_on_c, 0, 95, 0
2, 175671, Note_on_c, 0, 90, 0
2, 175671, Note_on_c, 0, 83, 0
2, 175680, Note_on_c, 0, 71, 92
2, 175680, Note_on_c, 0, 78, 92
2, 175680, Note_on_c, 0, 83, 92
2, 176631, Note_on_c, 0, 83, 0
2, 176631, Note_on_c, 0, 78, 0
2, 176631, Note_on_c, 0, 71, 0
2, 176640, Note_on_c, 0, 83, 97
2, 176640, Note_on_c, 0, 90, 97
2, 176640, Note_on_c, 0, 95, 97
2, 177591, Note_on_c, 0, 95, 0
2, 177591, Note_on_c, 0, 90, 0
2, 177591, Note_on_c, 0, 83, 0
2, 178080, Note_on_c, 0, 76, 76
2, 178080, Note_on_c, 0, 80, 92
2, 178320, Note_on_c, 0, 80, 0
2, 178320, Note_on_c, 0, 83, 76
2, 178560, Note_on_c, 0, 83, 0
2, 178560, Note_on_c, 0, 76, 0
2, 178560, Note_on_c, 0, 80, 90
2, 178560, Note_on_c, 0, 76, 75
2, 178800, Note_on_c, 0, 80, 0
2, 178800, Note_on_c, 0, 83, 76
2, 179040, Note_on_c, 0, 83, 0
2, 179040, Note_on_c, 0, 76, 0
2, 179040, Note_on_c, 0, 85, 92
2, 179280, Note_on_c, 0, 85, 0
2, 179280, Note_on_c, 0, 81, 77
2, 179520, Note_on_c, 0, 81, 0
2, 179520, Note_on_c, 0, 73, 55
2, 179520, Note_on_c, 0, 85, 75
2, 179760, Note_on_c, 0, 85, 0
2, 179760, Note_on_c, 0, 81, 72
2, 180000, Note_on_c, 0, 81, 0
2, 180000, Note_on_c, 0, 73, 0
2, 180000, Note_on_c, 0, 73, 71
2, 180000, Note_on_c, 0, 78, 80
2, 180120, Note_on_c, 0, 78, 0
2, 180120, Note_on_c, 0, 73, 0
2, 180960, Note_on_c, 0, 78, 87
2, 180960, Note_on_c, 0, 73, 87
2, 181200, Note_on_c, 0, 78, 0
2, 181200, Note_on_c, 0, 81, 76
2, 181440, Note_on_c, 0, 81, 0
2, 181440, Note_on_c, 0, 73, 0
2, 181440, Note_on_c, 0, 73, 86
2, 181440, Note_on_c, 0, 78, 86
2, 181680, Note_on_c, 0, 78, 0
2, 181680, Note_on_c, 0, 81, 75
2, 181920, Note_on_c, 0, 81, 0
2, 181920, Note_on_c, 0, 73, 0
2, 181920, Note_on_c, 0, 83, 88
2, 182400, Note_on_c, 0, 80, 72
2, 182400, Note_on_c, 0, 75, 72
2, 182520, Note_on_c, 0, 75, 0
2, 182520, Note_on_c, 0, 80, 0
2, 182880, Note_on_c, 0, 75, 72
2, 182880, Note_on_c, 0, 80, 72
2, 183000, Note_on_c, 0, 80, 0
2, 183000, Note_on_c, 0, 75, 0
2, 183360, Note_on_c, 0, 83, 0
2, 183840, Note_on_c, 0, 76, 75
2, 183840, Note_on_c, 0, 75, 75
2, 184080, Note_on_c, 0, 76, 0
2, 184080, Note_on_c, 0, 80, 63
2, 184320, Note_on_c, 0, 80, 0
2, 184320, Note_on_c, 0, 75, 0
2, 184320, Note_on_c, 0, 75, 74
2, 184320, Note_on_c, 0, 76, 74
2, 184560, Note_on_c, 0, 76, 0
2, 184560, Note_on_c, 0, 80, 63
2, 184800, Note_on_c, 0, 80, 0
2, 184800, Note_on_c, 0, 75, 0
2, 184800, Note_on_c, 0, 81, 73
2, 185040, Note_on_c, 0, 81, 0
2, 185040, Note_on_c, 0, 78, 63
2, 185280, Note_on_c, 0, 78, 0
2, 185280, Note_on_c, 0, 81, 64
2, 185280, Note_on_c, 0, 69, 62
2, 185520, Note_on_c, 0, 81, 0
2, 185520, Note_on_c, 0, 78, 58
2, 185760, Note_on_c, 0, 78, 0
2, 185760, Note_on_c, 0, 69, 0
2, 185760, Note_on_c, 0, 69, 65
2, 185760, Note_on_c, 0, 73, 65
2, 185880, Note_on_c, 0, 73, 0
2, 185880, Note_on_c, 0, 69, 0
2, 186720, Note_on_c, 0, 66, 53
2, 186720, Note_on_c, 0, 71, 63
2, 186960, Note_on_c, 0, 71, 0
2, 186960, Note_on_c, 0, 75, 53
2, 187200, Note_on_c, 0, 75, 0
2, 187200, Note_on_c, 0, 66, 0
2, 187200, Note_on_c, 0, 71, 63
2, 187200, Note_on_c, 0, 66, 52
2, 187440, Note_on_c, 0, 71, 0
2, 187440, Note_on_c, 0, 75, 53
2, 187680, Note_on_c, 0, 75, 0
2, 187680, Note_on_c, 0, 66, 0
2, 187680, Note_on_c, 0, 76, 65
2, 188160, Note_on_c, 0, 71, 47
2, 188160, Note_on_c, 0, 68, 47
2, 188280, Note_on_c, 0, 68, 0
2, 188280, Note_on_c, 0, 71, 0
2, 188640, Note_on_c, 0, 68, 45
2, 188640, Note_on_c, 0, 71, 45
2, 188760, Note_on_c, 0, 71, 0
2, 188760, Note_on_c, 0, 68, 0
2, 189120, Note_on_c, 0, 76, 0
2, 191040, Note_on_c, 0, 54, 31
2, 191040, Note_on_c, 0, 59, 37
2, 191280, Note_on_c, 0, 59, 0
2, 191280, Note_on_c, 0, 63, 31
2, 191520, Note_on_c, 0, 63, 0
2, 191520, Note_on_c, 0, 54, 0
2, 191520, Note_on_c, 0, 59, 37
2, 191520, Note_on_c, 0, 54, 30
2, 191760, Note_on_c, 0, 59, 0
2, 191760, Note_on_c, 0, 63, 31
2, 192000, Note_on_c, 0, 63, 0
2, 192000, Note_on_c, 0, 54, 0
2, 192000, Note_on_c, 0, 64, 38
2, 192480, Note_on_c, 0, 59, 26
2, 192480, Note_on_c, 0, 56, 26
2, 192600, Note_on_c, 0, 56, 0
2, 192600, Note_on_c, 0, 59, 0
2, 192960, Note_on_c, 0, 56, 25
2, 192960, Note_on_c, 0, 59, 25
2, 193080, Note_on_c, 0, 59, 0
2, 193080, Note_on_c, 0, 56, 0
2, 193440, Note_on_c, 0, 64, 0
2, 195360, Note_on_c, 0, 54, 26
2, 195360, Note_on_c, 0, 59, 31
2, 195600, Note_on_c, 0, 59, 0
2, 195600, Note_on_c, 0, 63, 26
2, 195840, Note_on_c, 0, 63, 0
2, 195840, Note_on_c, 0, 54, 0
2, 195840, Note_on_c, 0, 59, 31
2, 195840, Note_on_c, 0, 54, 25
2, 196080, Note_on_c, 0, 59, 0
2, 196080, Note_on_c, 0, 63, 26
2, 196320, Note_on_c, 0, 63, 0
2, 196320, Note_on_c, 0, 54, 0
2, 198240, Note_on_c, 0, 54, 22
2, 198240, Note_on_c, 0, 59, 26
2, 198480, Note_on_c, 0, 59, 0
2, 198480, Note_on_c, 0, 63, 22
2, 198720, Note_on_c, 0, 63, 0
2, 198720, Note_on_c, 0, 54, 0
2, 198720, Note_on_c, 0, 59, 26
2, 198720, Note_on_c, 0, 54, 21
2, 198960, Note_on_c, 0, 59, 0
2, 198960, Note_on_c, 0, 63, 22
2, 199200, Note_on_c, 0, 63, 0
2, 199200, Note_on_c, 0, 54, 0
2, 199680, Note_on_c, 0, 71, 39
2, 200160, Note_on_c, 0, 71, 0
2, 200160, Note_on_c, 0, 64, 42
2, 200520, Note_on_c, 0, 66, 36
2, 200635, Note_on_c, 0, 64, 0
2, 200640, Note_on_c, 0, 66, 0
2, 200640, Note_on_c, 0, 67, 43
2, 201000, Note_on_c, 0, 67, 0
2, 201000, Note_on_c, 0, 69, 37
2, 201000, Note_on_c, 0, 66, 29
2, 201120, Note_on_c, 0, 66, 0
2, 201120, Note_on_c, 0, 69, 0
2, 201120, Note_on_c, 0, 67, 36
2, 201120, Note_on_c, 0, 71, 45
2, 201480, Note_on_c, 0, 71, 0
2, 201480, Note_on_c, 0, 76, 37
2, 201600, Note_on_c, 0, 76, 0
2, 201600, Note_on_c, 0, 67, 0
2, 201600, Note_on_c, 0, 72, 36
2, 201600, Note_on_c, 0, 79, 45
2, 201960, Note_on_c, 0, 79, 0
2, 201960, Note_on_c, 0, 78, 37
2, 202080, Note_on_c, 0, 78, 0
2, 202080, Note_on_c, 0, 72, 0
2, 202080, Note_on_c, 0, 66, 40
2, 202080, Note_on_c, 0, 74, 50
2, 202440, Note_on_c, 0, 74, 0
2, 202440, Note_on_c, 0, 72, 43
2, 202560, Note_on_c, 0, 72, 0
2, 202560, Note_on_c, 0, 66, 0
2, 202560, Note_on_c, 0, 76, 54
2, 202560, Note_on_c, 0, 69, 43
2, 202920, Note_on_c, 0, 76, 0
2, 202920, Note_on_c, 0, 74, 46
2, 203040, Note_on_c, 0, 74, 0
2, 203040, Note_on_c, 0, 69, 0
2, 203040, Note_on_c, 0, 71, 40
2, 203040, Note_on_c, 0, 63, 32
2, 203760, Note_on_c, 0, 71, 0
2, 203760, Note_on_c, 0, 72, 36
2, 204000, Note_on_c, 0, 72, 0
2, 204000, Note_on_c, 0, 63, 0
2, 204000, Note_on_c, 0, 69, 43
2, 204000, Note_on_c, 0, 65, 34
2, 204360, Note_on_c, 0, 69, 0
2, 204360, Note_on_c, 0, 71, 36
2, 204480, Note_on_c, 0, 71, 0
2, 204480, Note_on_c, 0, 65, 0
2, 204480, Note_on_c, 0, 64, 36
2, 204480, Note_on_c, 0, 67, 45
2, 204840, Note_on_c, 0, 67, 0
2, 204840, Note_on_c, 0, 69, 39
2, 204960, Note_on_c, 0, 69, 0
2, 204960, Note_on_c, 0, 64, 0
2, 204960, Note_on_c, 0, 62, 36
2, 204960, Note_on_c, 0, 66, 45
2, 205320, Note_on_c, 0, 66, 0
2, 205320, Note_on_c, 0, 67, 36
2, 205440, Note_on_c, 0, 67, 0
2, 205440, Note_on_c, 0, 62, 0
2, 205440, Note_on_c, 0, 64, 43
2, 205440, Note_on_c, 0, 60, 34
2, 205800, Note_on_c, 0, 64, 0
2, 205800, Note_on_c, 0, 66, 35
2, 205920, Note_on_c, 0, 66, 0
2, 205920, Note_on_c, 0, 60, 0
2, 205920, Note_on_c, 0, 63, 41
2, 205920, Note_on_c, 0, 59, 32
2, 206400, Note_on_c, 0, 59, 0
2, 206400, Note_on_c, 0, 63, 0
2, 206400, Note_on_c, 0, 64, 36
2, 206400, Note_on_c, 0, 59, 28
2, 206400, Note_on_c, 0, 55, 28
2, 207120, Note_on_c, 0, 55, 0
2, 207120, Note_on_c, 0, 59, 0
2, 207120, Note_on_c, 0, 64, 0
2, 207360, Note_on_c, 0, 63, 31
2, 207360, Note_on_c, 0, 71, 39
2, 207810, Note_on_c, 0, 60, 38
2, 207840, Note_on_c, 0, 71, 0
2, 207840, Note_on_c, 0, 63, 0
2, 207840, Note_on_c, 0, 64, 42
2, 208200, Note_on_c, 0, 64, 0
2, 208200, Note_on_c, 0, 66, 36
2, 208320, Note_on_c, 0, 66, 0
2, 208320, Note_on_c, 0, 60, 0
2, 208320, Note_on_c, 0, 64, 36
2, 208320, Note_on_c, 0, 67, 43
2, 208680, Note_on_c, 0, 67, 0
2, 208680, Note_on_c, 0, 64, 0
2, 208680, Note_on_c, 0, 69, 37
2, 208680, Note_on_c, 0, 66, 29
2, 208800, Note_on_c, 0, 66, 0
2, 208800, Note_on_c, 0, 69, 0
2, 208800, Note_on_c, 0, 67, 36
2, 208800, Note_on_c, 0, 71, 45
2, 209160, Note_on_c, 0, 71, 0
2, 209160, Note_on_c, 0, 76, 37
2, 209280, Note_on_c, 0, 76, 0
2, 209280, Note_on_c, 0, 67, 0
2, 209280, Note_on_c, 0, 69, 36
2, 209280, Note_on_c, 0, 79, 45
2, 209640, Note_on_c, 0, 79, 0
2, 209640, Note_on_c, 0, 78, 37
2, 209760, Note_on_c, 0, 78, 0
2, 209760, Note_on_c, 0, 69, 0
2, 209760, Note_on_c, 0, 66, 40
2, 209760, Note_on_c, 0, 74, 50
2, 210120, Note_on_c, 0, 74, 0
2, 210120, Note_on_c, 0, 72, 43
2, 210240, Note_on_c, 0, 72, 0
2, 210240, Note_on_c, 0, 66, 0
2, 210240, Note_on_c, 0, 76, 54
2, 210240, Note_on_c, 0, 67, 43
2, 210600, Note_on_c, 0, 76, 0
2, 210600, Note_on_c, 0, 74, 46
2, 210720, Note_on_c, 0, 74, 0
2, 210720, Note_on_c, 0, 67, 0
2, 210720, Note_on_c, 0, 71, 40
2, 210720, Note_on_c, 0, 66, 32
2, 211200, Note_on_c, 0, 66, 0
2, 211200, Note_on_c, 0, 65, 32
2, 211440, Note_on_c, 0, 71, 0
2, 211440, Note_on_c, 0, 72, 27
2, 211680, Note_on_c, 0, 72, 0
2, 211680, Note_on_c, 0, 65, 0
2, 211680, Note_on_c, 0, 69, 32
2, 211680, Note_on_c, 0, 60, 25
2, 211920, Note_on_c, 0, 60, 0
2, 211920, Note_on_c, 0, 62, 18
2, 212040, Note_on_c, 0, 69, 0
2, 212040, Note_on_c, 0, 71, 27
2, 212160, Note_on_c, 0, 71, 0
2, 212160, Note_on_c, 0, 62, 0
2, 212160, Note_on_c, 0, 64, 27
2, 212160, Note_on_c, 0, 67, 33
2, 212520, Note_on_c, 0, 67, 0
2, 212520, Note_on_c, 0, 69, 29
2, 212640, Note_on_c, 0, 69, 0
2, 212640, Note_on_c, 0, 64, 0
2, 212640, Note_on_c, 0, 57, 27
2, 212640, Note_on_c, 0, 66, 33
2, 212880, Note_on_c, 0, 57, 0
2, 212880, Note_on_c, 0, 59, 20
2, 213000, Note_on_c, 0, 66, 0
2, 213000, Note_on_c, 0, 67, 27
2, 213120, Note_on_c, 0, 67, 0
2, 213120, Note_on_c, 0, 59, 0
2, 213120, Note_on_c, 0, 64, 32
2, 213120, Note_on_c, 0, 60, 25
2, 213480, Note_on_c, 0, 64, 0
2, 213480, Note_on_c, 0, 66, 26
2, 213600, Note_on_c, 0, 66, 0
2, 213600, Note_on_c, 0, 60, 0
2, 213600, Note_on_c, 0, 63, 30
2, 213600, Note_on_c, 0, 59, 24
2, 214080, Note_on_c, 0, 59, 0
2, 214080, Note_on_c, 0, 63, 0
2, 214080, Note_on_c, 0, 64, 27
2, 214080, Note_on_c, 0, 59, 21
2, 214080, Note_on_c, 0, 55, 21
2, 215040, Note_on_c, 0, 55, 0
2, 215040, Note_on_c, 0, 59, 0
2, 215040, Note_on_c, 0, 64, 0
2, 215040, Note_on_c, 0, 62, 58
2, 215040, Note_on_c, 0, 66, 58
2, 215520, Note_on_c, 0, 66, 0
2, 215520, Note_on_c, 0, 62, 0
2, 215520, Note_on_c, 0, 62, 43
2, 215520, Note_on_c, 0, 67, 63
2, 215880, Note_on_c, 0, 67, 0
2, 215880, Note_on_c, 0, 69, 54
2, 216000, Note_on_c, 0, 69, 0
2, 216000, Note_on_c, 0, 62, 0
2, 216000, Note_on_c, 0, 64, 43
2, 216000, Note_on_c, 0, 71, 64
2, 216240, Note_on_c, 0, 71, 0
2, 216240, Note_on_c, 0, 67, 55
2, 216450, Note_on_c, 0, 66, 54
2, 216480, Note_on_c, 0, 67, 0
2, 216480, Note_on_c, 0, 64, 0
2, 216480, Note_on_c, 0, 71, 67
2, 216720, Note_on_c, 0, 71, 0
2, 216720, Note_on_c, 0, 66, 0
2, 216720, Note_on_c, 0, 64, 55
2, 216720, Note_on_c, 0, 69, 55
2, 216960, Note_on_c, 0, 69, 0
2, 216960, Note_on_c, 0, 64, 0
2, 216960, Note_on_c, 0, 62, 54
2, 216960, Note_on_c, 0, 69, 67
2, 217190, Note_on_c, 0, 62, 0
2, 217200, Note_on_c, 0, 69, 0
2, 217200, Note_on_c, 0, 62, 55
2, 217440, Note_on_c, 0, 62, 0
2, 217440, Note_on_c, 0, 64, 43
2, 217440, Note_on_c, 0, 72, 63
2, 217800, Note_on_c, 0, 72, 0
2, 217800, Note_on_c, 0, 74, 56
2, 217920, Note_on_c, 0, 74, 0
2, 217920, Note_on_c, 0, 64, 0
2, 217920, Note_on_c, 0, 66, 46
2, 217920, Note_on_c, 0, 76, 68
2, 218160, Note_on_c, 0, 76, 0
2, 218160, Note_on_c, 0, 72, 61
2, 218370, Note_on_c, 0, 67, 61
2, 218400, Note_on_c, 0, 72, 0
2, 218400, Note_on_c, 0, 66, 0
2, 218400, Note_on_c, 0, 74, 77
2, 218880, Note_on_c, 0, 67, 0
2, 218880, Note_on_c, 0, 69, 62
2, 219120, Note_on_c, 0, 74, 0
2, 219120, Note_on_c, 0, 74, 77
2, 219360, Note_on_c, 0, 74, 0
2, 219360, Note_on_c, 0, 69, 0
2, 219360, Note_on_c, 0, 71, 49
2, 219360, Note_on_c, 0, 76, 72
2, 219720, Note_on_c, 0, 76, 0
2, 219720, Note_on_c, 0, 78, 62
2, 219840, Note_on_c, 0, 78, 0
2, 219840, Note_on_c, 0, 71, 0
2, 219840, Note_on_c, 0, 69, 49
2, 219840, Note_on_c, 0, 74, 73
2, 220080, Note_on_c, 0, 74, 0
2, 220080, Note_on_c, 0, 71, 63
2, 220320, Note_on_c, 0, 71, 0
2, 220320, Note_on_c, 0, 69, 0
2, 220320, Note_on_c, 0, 72, 70
2, 220320, Note_on_c, 0, 67, 59
2, 220680, Note_on_c, 0, 72, 0
2, 220680, Note_on_c, 0, 74, 56
2, 220800, Note_on_c, 0, 74, 0
2, 220800, Note_on_c, 0, 67, 0
2, 220800, Note_on_c, 0, 71, 68
2, 220800, Note_on_c, 0, 66, 57
2, 221040, Note_on_c, 0, 71, 0
2, 221040, Note_on_c, 0, 67, 57
2, 221280, Note_on_c, 0, 67, 0
2, 221280, Note_on_c, 0, 66, 0
2, 221280, Note_on_c, 0, 64, 58
2, 221280, Note_on_c, 0, 69, 69
2, 221730, Note_on_c, 0, 63, 48
2, 221760, Note_on_c, 0, 69, 0
2, 221760, Note_on_c, 0, 64, 0
2, 221760, Note_on_c, 0, 71, 57
2, 222720, Note_on_c, 0, 71, 0
2, 222720, Note_on_c, 0, 63, 0
2, 222720, Note_on_c, 0, 71, 46
2, 222720, Note_on_c, 0, 63, 39
2, 223200, Note_on_c, 0, 63, 0
2, 223200, Note_on_c, 0, 71, 0
2, 223200, Note_on_c, 0, 59, 36
2, 223200, Note_on_c, 0, 64, 42
2, 223560, Note_on_c, 0, 64, 0
2, 223560, Note_on_c, 0, 66, 36
2, 223680, Note_on_c, 0, 66, 0
2, 223680, Note_on_c, 0, 59, 0
2, 223680, Note_on_c, 0, 59, 29
2, 223680, Note_on_c, 0, 64, 29
2, 223680, Note_on_c, 0, 67, 43
2, 224040, Note_on_c, 0, 67, 0
2, 224040, Note_on_c, 0, 69, 37
2, 224160, Note_on_c, 0, 69, 0
2, 224160, Note_on_c, 0, 64, 0
2, 224160, Note_on_c, 0, 59, 0
2, 224160, Note_on_c, 0, 64, 36
2, 224160, Note_on_c, 0, 67, 36
2, 224160, Note_on_c, 0, 71, 45
2, 224520, Note_on_c, 0, 71, 0
2, 224520, Note_on_c, 0, 76, 37
2, 224640, Note_on_c, 0, 76, 0
2, 224640, Note_on_c, 0, 67, 0
2, 224640, Note_on_c, 0, 64, 0
2, 224640, Note_on_c, 0, 64, 36
2, 224640, Note_on_c, 0, 72, 36
2, 224640, Note_on_c, 0, 79, 45
2, 225000, Note_on_c, 0, 79, 0
2, 225000, Note_on_c, 0, 78, 37
2, 225120, Note_on_c, 0, 78, 0
2, 225120, Note_on_c, 0, 72, 0
2, 225120, Note_on_c, 0, 64, 0
2, 225120, Note_on_c, 0, 71, 40
2, 225120, Note_on_c, 0, 66, 40
2, 225120, Note_on_c, 0, 74, 50
2, 225480, Note_on_c, 0, 74, 0
2, 225480, Note_on_c, 0, 72, 43
2, 225600, Note_on_c, 0, 72, 0
2, 225600, Note_on_c, 0, 66, 0
2, 225600, Note_on_c, 0, 71, 0
2, 225600, Note_on_c, 0, 60, 43
2, 225600, Note_on_c, 0, 76, 54
2, 225600, Note_on_c, 0, 69, 43
2, 225960, Note_on_c, 0, 76, 0
2, 225960, Note_on_c, 0, 74, 46
2, 226080, Note_on_c, 0, 74, 0
2, 226080, Note_on_c, 0, 69, 0
2, 226080, Note_on_c, 0, 60, 0
2, 226080, Note_on_c, 0, 59, 43
2, 226080, Note_on_c, 0, 71, 40
2, 226080, Note_on_c, 0, 63, 32
2, 226560, Note_on_c, 0, 59, 0
2, 226560, Note_on_c, 0, 57, 43
2, 226800, Note_on_c, 0, 71, 0
2, 226800, Note_on_c, 0, 72, 36
2, 227040, Note_on_c, 0, 72, 0
2, 227040, Note_on_c, 0, 57, 0
2, 227040, Note_on_c, 0, 63, 0
2, 227040, Note_on_c, 0, 60, 25
2, 227040, Note_on_c, 0, 69, 32
2, 227040, Note_on_c, 0, 65, 25
2, 227400, Note_on_c, 0, 69, 0
2, 227400, Note_on_c, 0, 71, 27
2, 227520, Note_on_c, 0, 71, 0
2, 227520, Note_on_c, 0, 65, 0
2, 227520, Note_on_c, 0, 60, 0
2, 227520, Note_on_c, 0, 59, 27
2, 227520, Note_on_c, 0, 64, 27
2, 227520, Note_on_c, 0, 67, 33
2, 227880, Note_on_c, 0, 67, 0
2, 227880, Note_on_c, 0, 69, 29
2, 228000, Note_on_c, 0, 69, 0
2, 228000, Note_on_c, 0, 64, 0
2, 228000, Note_on_c, 0, 59, 0
2, 228000, Note_on_c, 0, 57, 27
2, 228000, Note_on_c, 0, 62, 27
2, 228000, Note_on_c, 0, 66, 33
2, 228360, Note_on_c, 0, 66, 0
2, 228360, Note_on_c, 0, 67, 27
2, 228480, Note_on_c, 0, 67, 0
2, 228480, Note_on_c, 0, 62, 0
2, 228480, Note_on_c, 0, 57, 0
2, 228480, Note_on_c, 0, 55, 25
2, 228480, Note_on_c, 0, 64, 32
2, 228480, Note_on_c, 0, 60, 25
2, 228840, Note_on_c, 0, 64, 0
2, 228840, Note_on_c, 0, 66, 26
2, 228960, Note_on_c, 0, 66, 0
2, 228960, Note_on_c, 0, 60, 0
2, 228960, Note_on_c, 0, 55, 0
2, 229440, Note_on_c, 0, 54, 20
2, 229440, Note_on_c, 0, 63, 25
2, 229440, Note_on_c, 0, 59, 20
2, 229920, Note_on_c, 0, 59, 0
2, 229920, Note_on_c, 0, 63, 0
2, 229920, Note_on_c, 0, 54, 0
2, 230400, Note_on_c, 0, 64, 22
2, 230400, Note_on_c, 0, 59, 17
2, 230400, Note_on_c, 0, 55, 17
2, 231840, Note_on_c, 0, 55, 0
2, 231840, Note_on_c, 0, 59, 0
2, 231840, Note_on_c, 0, 64, 0
2, 231840, End_track
3, 0, Start_track
3, 0, Title_t, "Piano left"
3, 0, Program_c, 0, 0
3, 2400, Note_on_c, 0, 64, 30
3, 2400, Note_on_c, 0, 62, 25
3, 2880, Note_on_c, 0, 62, 0
3, 2880, Note_on_c, 0, 61, 30
3, 3360, Note_on_c, 0, 61, 0
3, 3360, Note_on_c, 0, 64, 0
3, 3360, Note_on_c, 0, 60, 22
3, 3360, Note_on_c, 0, 64, 26
3, 3840, Note_on_c, 0, 64, 0
3, 3840, Note_on_c, 0, 60, 0
3, 3840, Note_on_c, 0, 59, 25
3, 3840, Note_on_c, 0, 62, 30
3, 4320, Note_on_c, 0, 62, 0
3, 4320, Note_on_c, 0, 59, 0
3, 4320, Note_on_c, 0, 57, 27
3, 4320, Note_on_c, 0, 60, 32
3, 4800, Note_on_c, 0, 60, 0
3, 4800, Note_on_c, 0, 57, 0
3, 4800, Note_on_c, 0, 55, 25
3, 4800, Note_on_c, 0, 59, 30
3, 5280, Note_on_c, 0, 59, 0
3, 5280, Note_on_c, 0, 55, 0
3, 5280, Note_on_c, 0, 54, 22
3, 5280, Note_on_c, 0, 57, 26
3, 5760, Note_on_c, 0, 57, 0
3, 5760, Note_on_c, 0, 54, 0
3, 5760, Note_on_c, 0, 53, 25
3, 5760, Note_on_c, 0, 60, 30
3, 6240, Note_on_c, 0, 60, 0
3, 6240, Note_on_c, 0, 53, 0
3, 6240, Note_on_c, 0, 59, 26
3, 6240, Note_on_c, 0, 48, 22
3, 6720, Note_on_c, 0, 48, 0
3, 6720, Note_on_c, 0, 59, 0
3, 6720, Note_on_c, 0, 50, 25
3, 6720, Note_on_c, 0, 57, 30
3, 7200, Note_on_c, 0, 57, 0
3, 7200, Note_on_c, 0, 50, 0
3, 7200, Note_on_c, 0, 55, 26
3, 7200, Note_on_c, 0, 45, 22
3, 7680, Note_on_c, 0, 45, 0
3, 7680, Note_on_c, 0, 55, 0
3, 7680, Note_on_c, 0, 54, 27
3, 7680, Note_on_c, 0, 47, 22
3, 8160, Note_on_c, 0, 47, 0
3, 8160, Note_on_c, 0, 54, 0
3, 8160, Note_on_c, 0, 40, 25
3, 8640, Note_on_c, 0, 40, 0
3, 8640, Note_on_c, 0, 52, 46
3, 9120, Note_on_c, 0, 54, 25
3, 9600, Note_on_c, 0, 54, 0
3, 9600, Note_on_c, 0, 59, 35
3, 9960, Note_on_c, 0, 59, 0
3, 9960, Note_on_c, 0, 57, 30
3, 10080, Note_on_c, 0, 57, 0
3, 10080, Note_on_c, 0, 62, 30
3, 10440, Note_on_c, 0, 62, 0
3, 10440, Note_on_c, 0, 60, 24
3, 10560, Note_on_c, 0, 60, 0
3, 10560, Note_on_c, 0, 59, 30
3, 11040, Note_on_c, 0, 59, 0
3, 11040, Note_on_c, 0, 52, 0
3, 11040, Note_on_c, 0, 54, 22
3, 11040, Note_on_c, 0, 64, 26
3, 11520, Note_on_c, 0, 64, 0
3, 11520, Note_on_c, 0, 54, 0
3, 11520, Note_on_c, 0, 55, 25
3, 11520, Note_on_c, 0, 59, 30
3, 12000, Note_on_c, 0, 59, 0
3, 12000, Note_on_c, 0, 55, 0
3, 12000, Note_on_c, 0, 57, 27
3, 12000, Note_on_c, 0, 60, 32
3, 12480, Note_on_c, 0, 60, 0
3, 12480, Note_on_c, 0, 57, 0
3, 12480, Note_on_c, 0, 59, 25
3, 12480, Note_on_c, 0, 62, 30
3, 12960, Note_on_c, 0, 59, 0
3, 12960, Note_on_c, 0, 55, 26
3, 13440, Note_on_c, 0, 55, 0
3, 13440, Note_on_c, 0, 62, 0
3, 13440, Note_on_c, 0, 53, 18
3, 13440, Note_on_c, 0, 57, 22
3, 13680, Note_on_c, 0, 57, 0
3, 13680, Note_on_c, 0, 59, 16
3, 13920, Note_on_c, 0, 59, 0
3, 13920, Note_on_c, 0, 53, 0
3, 13920, Note_on_c, 0, 60, 19
3, 13920, Note_on_c, 0, 48, 16
3, 14400, Note_on_c, 0, 48, 0
3, 14400, Note_on_c, 0, 60, 0
3, 14400, Note_on_c, 0, 50, 18
3, 14400, Note_on_c, 0, 54, 22
3, 14640, Note_on_c, 0, 54, 0
3, 14640, Note_on_c, 0, 55, 16
3, 14880, Note_on_c, 0, 55, 0
3, 14880, Note_on_c, 0, 50, 0
3, 14880, Note_on_c, 0, 57, 19
3, 14880, Note_on_c, 0, 45, 16
3, 15360, Note_on_c, 0, 45, 0
3, 15360, Note_on_c, 0, 57, 0
3, 15360, Note_on_c, 0, 54, 20
3, 15360, Note_on_c, 0, 47, 16
3, 15840, Note_on_c, 0, 47, 0
3, 15840, Note_on_c, 0, 54, 0
3, 15840, Note_on_c, 0, 40, 18
3, 16800, Note_on_c, 0, 40, 0
3, 16800, Note_on_c, 0, 50, 48
3, 16800, Note_on_c, 0, 57, 55
3, 17280, Note_on_c, 0, 57, 0
3, 17280, Note_on_c, 0, 50, 0
3, 17280, Note_on_c, 0, 55, 55
3, 17280, Note_on_c, 0, 59, 55
3, 17760, Note_on_c, 0, 59, 0
3, 17760, Note_on_c, 0, 61, 49
3, 18240, Note_on_c, 0, 61, 0
3, 18240, Note_on_c, 0, 55, 0
3, 18240, Note_on_c, 0, 62, 53
3, 18240, Note_on_c, 0, 50, 53
3, 18480, Note_on_c, 0, 62, 0
3, 18480, Note_on_c, 0, 57, 45
3, 18720, Note_on_c, 0, 57, 0
3, 18720, Note_on_c, 0, 54, 39
3, 19200, Note_on_c, 0, 54, 0
3, 19200, Note_on_c, 0, 50, 0
3, 19200, Note_on_c, 0, 48, 55
3, 19200, Note_on_c, 0, 55, 55
3, 19680, Note_on_c, 0, 55, 0
3, 19680, Note_on_c, 0, 57, 52
3, 20160, Note_on_c, 0, 57, 0
3, 20160, Note_on_c, 0, 48, 0
3, 20160, Note_on_c, 0, 59, 60
3, 20160, Note_on_c, 0, 43, 60
3, 20640, Note_on_c, 0, 59, 0
3, 20640, Note_on_c, 0, 62, 44
3, 21120, Note_on_c, 0, 62, 0
3, 21120, Note_on_c, 0, 43, 0
3, 21120, Note_on_c, 0, 55, 63
3, 21120, Note_on_c, 0, 67, 63
3, 21600, Note_on_c, 0, 67, 0
3, 21600, Note_on_c, 0, 66, 56
3, 22080, Note_on_c, 0, 66, 0
3, 22080, Note_on_c, 0, 64, 60
3, 22560, Note_on_c, 0, 64, 0
3, 22560, Note_on_c, 0, 62, 44
3, 23040, Note_on_c, 0, 62, 0
3, 23040, Note_on_c, 0, 60, 44
3, 23520, Note_on_c, 0, 60, 0
3, 23520, Note_on_c, 0, 59, 44
3, 24000, Note_on_c, 0, 59, 0
3, 24000, Note_on_c, 0, 55, 0
3, 24000, Note_on_c, 0, 58, 33
3, 24000, Note_on_c, 0, 54, 28
3, 24480, Note_on_c, 0, 54, 0
3, 24480, Note_on_c, 0, 58, 0
3, 24480, Note_on_c, 0, 53, 27
3, 24480, Note_on_c, 0, 57, 32
3, 24720, Note_on_c, 0, 57, 0
3, 24720, Note_on_c, 0, 56, 29
3, 24960, Note_on_c, 0, 56, 0
3, 24960, Note_on_c, 0, 53, 0
3, 24960, Note_on_c, 0, 52, 25
3, 24960, Note_on_c, 0, 55, 30
3, 25440, Note_on_c, 0, 55, 0
3, 25440, Note_on_c, 0, 52, 0
3, 25440, Note_on_c, 0, 62, 30
3, 25440, Note_on_c, 0, 50, 25
3, 25920, Note_on_c, 0, 50, 0
3, 25920, Note_on_c, 0, 62, 0
3, 25920, Note_on_c, 0, 49, 25
3, 25920, Note_on_c, 0, 61, 30
3, 26400, Note_on_c, 0, 61, 0
3, 26400, Note_on_c, 0, 49, 0
3, 26400, Note_on_c, 0, 48, 22
3, 26400, Note_on_c, 0, 60, 26
3, 26880, Note_on_c, 0, 60, 0
3, 26880, Note_on_c, 0, 48, 0
3, 26880, Note_on_c, 0, 47, 25
3, 26880, Note_on_c, 0, 59, 30
3, 27360, Note_on_c, 0, 59, 0
3, 27360, Note_on_c, 0, 47, 0
3, 27360, Note_on_c, 0, 45, 27
3, 27360, Note_on_c, 0, 57, 32
3, 27840, Note_on_c, 0, 57, 0
3, 27840, Note_on_c, 0, 45, 0
3, 27840, Note_on_c, 0, 43, 25
3, 27840, Note_on_c, 0, 55, 30
3, 28320, Note_on_c, 0, 55, 0
3, 28320, Note_on_c, 0, 43, 0
3, 28320, Note_on_c, 0, 42, 22
3, 28320, Note_on_c, 0, 54, 26
3, 28800, Note_on_c, 0, 54, 0
3, 28800, Note_on_c, 0, 42, 0
3, 28800, Note_on_c, 0, 41, 18
3, 28800, Note_on_c, 0, 53, 22
3, 29280, Note_on_c, 0, 53, 0
3, 29280, Note_on_c, 0, 41, 0
3, 29280, Note_on_c, 0, 48, 19
3, 29280, Note_on_c, 0, 36, 16
3, 29760, Note_on_c, 0, 36, 0
3, 29760, Note_on_c, 0, 48, 0
3, 29760, Note_on_c, 0, 38, 18
3, 29760, Note_on_c, 0, 50, 22
3, 30240, Note_on_c, 0, 50, 0
3, 30240, Note_on_c, 0, 38, 0
3, 30240, Note_on_c, 0, 45, 19
3, 30240, Note_on_c, 0, 33, 16
3, 30720, Note_on_c, 0, 33, 0
3, 30720, Note_on_c, 0, 45, 0
3, 30720, Note_on_c, 0, 47, 20
3, 30720, Note_on_c, 0, 35, 16
3, 31200, Note_on_c, 0, 35, 0
3, 31200, Note_on_c, 0, 47, 0
3, 31200, Note_on_c, 0, 28, 13
3, 31200, Note_on_c, 0, 40, 18
3, 32160, Note_on_c, 0, 40, 0
3, 32160, Note_on_c, 0, 28, 0
3, 32160, Note_on_c, 0, 50, 48
3, 32160, Note_on_c, 0, 57, 55
3, 32640, Note_on_c, 0, 57, 0
3, 32640, Note_on_c, 0, 50, 0
3, 32640, Note_on_c, 0, 55, 55
3, 32640, Note_on_c, 0, 59, 55
3, 33120, Note_on_c, 0, 59, 0
3, 33120, Note_on_c, 0, 61, 49
3, 33600, Note_on_c, 0, 61, 0
3, 33600, Note_on_c, 0, 55, 0
3, 33600, Note_on_c, 0, 62, 53
3, 33600, Note_on_c, 0, 50, 53
3, 33840, Note_on_c, 0, 62, 0
3, 33840, Note_on_c, 0, 57, 45
3, 34080, Note_on_c, 0, 57, 0
3, 34080, Note_on_c, 0, 54, 39
3, 34560, Note_on_c, 0, 54, 0
3, 34560, Note_on_c, 0, 50, 0
3, 34560, Note_on_c, 0, 48, 55
3, 34560, Note_on_c, 0, 55, 55
3, 35040, Note_on_c, 0, 55, 0
3, 35040, Note_on_c, 0, 57, 52
3, 35520, Note_on_c, 0, 57, 0
3, 35520, Note_on_c, 0, 48, 0
3, 35520, Note_on_c, 0, 59, 60
3, 35520, Note_on_c, 0, 43, 60
3, 36000, Note_on_c, 0, 59, 0
3, 36000, Note_on_c, 0, 62, 44
3, 36480, Note_on_c, 0, 62, 0
3, 36480, Note_on_c, 0, 43, 0
3, 36480, Note_on_c, 0, 55, 63
3, 36480, Note_on_c, 0, 67, 63
3, 36960, Note_on_c, 0, 67, 0
3, 36960, Note_on_c, 0, 66, 56
3, 37440, Note_on_c, 0, 66, 0
3, 37440, Note_on_c, 0, 64, 60
3, 37920, Note_on_c, 0, 64, 0
3, 37920, Note_on_c, 0, 62, 44
3, 38400, Note_on_c, 0, 62, 0
3, 38400, Note_on_c, 0, 60, 44
3, 38880, Note_on_c, 0, 60, 0
3, 38880, Note_on_c, 0, 59, 44
3, 39360, Note_on_c, 0, 59, 0
3, 39360, Note_on_c, 0, 55, 0
3, 39360, Note_on_c, 0, 58, 33
3, 39360, Note_on_c, 0, 54, 28
3, 39840, Note_on_c, 0, 54, 0
3, 39840, Note_on_c, 0, 58, 0
3, 39840, Note_on_c, 0, 53, 27
3, 39840, Note_on_c, 0, 57, 32
3, 40080, Note_on_c, 0, 57, 0
3, 40080, Note_on_c, 0, 56, 29
3, 40320, Note_on_c, 0, 56, 0
3, 40320, Note_on_c, 0, 53, 0
3, 40320, Note_on_c, 0, 52, 25
3, 40320, Note_on_c, 0, 55, 30
3, 40800, Note_on_c, 0, 55, 0
3, 40800, Note_on_c, 0, 52, 0
3, 40800, Note_on_c, 0, 62, 30
3, 40800, Note_on_c, 0, 50, 25
3, 41280, Note_on_c, 0, 50, 0
3, 41280, Note_on_c, 0, 62, 0
3, 41280, Note_on_c, 0, 49, 25
3, 41280, Note_on_c, 0, 61, 30
3, 41760, Note_on_c, 0, 61, 0
3, 41760, Note_on_c, 0, 49, 0
3, 41760, Note_on_c, 0, 48, 22
3, 41760, Note_on_c, 0, 60, 26
3, 42240, Note_on_c, 0, 60, 0
3, 42240, Note_on_c, 0, 48, 0
3, 42240, Note_on_c, 0, 47, 25
3, 42240, Note_on_c, 0, 59, 30
3, 42720, Note_on_c, 0, 59, 0
3, 42720, Note_on_c, 0, 47, 0
3, 42720, Note_on_c, 0, 45, 27
3, 42720, Note_on_c, 0, 57, 32
3, 43200, Note_on_c, 0, 57, 0
3, 43200, Note_on_c, 0, 45, 0
3, 43200, Note_on_c, 0, 43, 25
3, 43200, Note_on_c, 0, 55, 30
3, 43680, Note_on_c, 0, 55, 0
3, 43680, Note_on_c, 0, 43, 0
3, 43680, Note_on_c, 0, 42, 22
3, 43680, Note_on_c, 0, 54, 26
3, 44160, Note_on_c, 0, 54, 0
3, 44160, Note_on_c, 0, 42, 0
3, 44160, Note_on_c, 0, 41, 18
3, 44160, Note_on_c, 0, 53, 22
3, 44640, Note_on_c, 0, 53, 0
3, 44640, Note_on_c, 0, 41, 0
3, 44640, Note_on_c, 0, 48, 19
3, 44640, Note_on_c, 0, 36, 16
3, 45120, Note_on_c, 0, 36, 0
3, 45120, Note_on_c, 0, 48, 0
3, 45120, Note_on_c, 0, 38, 18
3, 45120, Note_on_c, 0, 50, 22
3, 45600, Note_on_c, 0, 50, 0
3, 45600, Note_on_c, 0, 38, 0
3, 45600, Note_on_c, 0, 45, 19
3, 45600, Note_on_c, 0, 33, 16
3, 46080, Note_on_c, 0, 33, 0
3, 46080, Note_on_c, 0, 45, 0
3, 46560, Note_on_c, 0, 47, 15
3, 46560, Note_on_c, 0, 35, 12
3, 47040, Note_on_c, 0, 35, 0
3, 47040, Note_on_c, 0, 47, 0
3, 48000, Note_on_c, 0, 47, 24
3, 48000, Note_on_c, 0, 40, 24
3, 49440, Note_on_c, 0, 40, 0
3, 49440, Note_on_c, 0, 47, 0
3, 49440, Note_on_c, 0, 47, 21
3, 49440, Note_on_c, 0, 40, 21
3, 50880, Note_on_c, 0, 40, 0
3, 50880, Note_on_c, 0, 47, 0
3, 50880, Note_on_c, 0, 47, 21
3, 50880, Note_on_c, 0, 40, 21
3, 52320, Note_on_c, 0, 40, 0
3, 52320, Note_on_c, 0, 47, 0
3, 52320, Note_on_c, 0, 40, 21
3, 52320, Note_on_c, 0, 47, 21
3, 53760, Note_on_c, 0, 47, 0
3, 53760, Note_on_c, 0, 40, 0
3, 53760, Note_on_c, 0, 40, 21
3, 53760, Note_on_c, 0, 47, 21
3, 55200, Note_on_c, 0, 47, 0
3, 55200, Note_on_c, 0, 40, 0
3, 55200, Note_on_c, 0, 40, 21
3, 55200, Note_on_c, 0, 47, 21
3, 56640, Note_on_c, 0, 47, 0
3, 56640, Note_on_c, 0, 40, 0
3, 56640, Note_on_c, 0, 47, 21
3, 56640, Note_on_c, 0, 40, 21
3, 58080, Note_on_c, 0, 40, 0
3, 58080, Note_on_c, 0, 47, 0
3, 58080, Note_on_c, 0, 40, 21
3, 58080, Note_on_c, 0, 47, 21
3, 59520, Note_on_c, 0, 47, 0
3, 59520, Note_on_c, 0, 40, 0
3, 59520, Note_on_c, 0, 40, 21
3, 59520, Note_on_c, 0, 47, 21
3, 60960, Note_on_c, 0, 47, 0
3, 60960, Note_on_c, 0, 40, 0
3, 60960, Note_on_c, 0, 40, 21
3, 60960, Note_on_c, 0, 47, 21
3, 62400, Note_on_c, 0, 47, 0
3, 62400, Note_on_c, 0, 40, 0
3, 62400, Note_on_c, 0, 35, 21
3, 62880, Note_on_c, 0, 42, 21
3, 63360, Note_on_c, 0, 42, 0
3, 63360, Note_on_c, 0, 42, 21
3, 63840, Note_on_c, 0, 42, 0
3, 63840, Note_on_c, 0, 35, 0
3, 63840, Note_on_c, 0, 35, 21
3, 64320, Note_on_c, 0, 42, 21
3, 64800, Note_on_c, 0, 42, 0
3, 64800, Note_on_c, 0, 42, 21
3, 64920, Note_on_c, 0, 42, 0
3, 65280, Note_on_c, 0, 35, 0
3, 65280, Note_on_c, 0, 35, 21
3, 65760, Note_on_c, 0, 42, 21
3, 66240, Note_on_c, 0, 42, 0
3, 66240, Note_on_c, 0, 42, 21
3, 66720, Note_on_c, 0, 42, 0
3, 66720, Note_on_c, 0, 35, 0
3, 66720, Note_on_c, 0, 35, 21
3, 67200, Note_on_c, 0, 42, 21
3, 67320, Note_on_c, 0, 42, 0
3, 67680, Note_on_c, 0, 42, 21
3, 67800, Note_on_c, 0, 42, 0
3, 68160, Note_on_c, 0, 35, 0
3, 68160, Note_on_c, 0, 35, 21
3, 68640, Note_on_c, 0, 42, 21
3, 69120, Note_on_c, 0, 42, 0
3, 69120, Note_on_c, 0, 42, 21
3, 69600, Note_on_c, 0, 42, 0
3, 69600, Note_on_c, 0, 35, 0
3, 69600, Note_on_c, 0, 35, 21
3, 70080, Note_on_c, 0, 42, 21
3, 70560, Note_on_c, 0, 42, 0
3, 70560, Note_on_c, 0, 42, 21
3, 70680, Note_on_c, 0, 42, 0
3, 71040, Note_on_c, 0, 35, 0
3, 71040, Note_on_c, 0, 35, 21
3, 71520, Note_on_c, 0, 42, 21
3, 72000, Note_on_c, 0, 42, 0
3, 72000, Note_on_c, 0, 42, 21
3, 72480, Note_on_c, 0, 42, 0
3, 72480, Note_on_c, 0, 35, 0
3, 72480, Note_on_c, 0, 35, 21
3, 72960, Note_on_c, 0, 42, 21
3, 73080, Note_on_c, 0, 42, 0
3, 73440, Note_on_c, 0, 42, 21
3, 73560, Note_on_c, 0, 42, 0
3, 73920, Note_on_c, 0, 35, 0
3, 73920, Note_on_c, 0, 70, 21
3, 73920, Note_on_c, 0, 63, 21
3, 75360, Note_on_c, 0, 63, 0
3, 75360, Note_on_c, 0, 70, 0
3, 75360, Note_on_c, 0, 56, 21
3, 75360, Note_on_c, 0, 63, 21
3, 76800, Note_on_c, 0, 63, 0
3, 76800, Note_on_c, 0, 56, 0
3, 76800, Note_on_c, 0, 63, 21
3, 76800, Note_on_c, 0, 70, 21
3, 78240, Note_on_c, 0, 70, 0
3, 78240, Note_on_c, 0, 63, 0
3, 78240, Note_on_c, 0, 58, 21
3, 78240, Note_on_c, 0, 65, 21
3, 79680, Note_on_c, 0, 65, 0
3, 79680, Note_on_c, 0, 58, 0
3, 79680, Note_on_c, 0, 77, 21
3, 79680, Note_on_c, 0, 70, 21
3, 81120, Note_on_c, 0, 70, 0
3, 81120, Note_on_c, 0, 77, 0
3, 81120, Note_on_c, 0, 63, 21
3, 81120, Note_on_c, 0, 70, 21
3, 82560, Note_on_c, 0, 70, 0
3, 82560, Note_on_c, 0, 63, 0
3, 82560, Note_on_c, 0, 70, 21
3, 82560, Note_on_c, 0, 77, 21
3, 84000, Note_on_c, 0, 77, 0
3, 84000, Note_on_c, 0, 70, 0
3, 84000, Note_on_c, 0, 65, 21
3, 84000, Note_on_c, 0, 72, 21
3, 85440, Note_on_c, 0, 72, 0
3, 85440, Note_on_c, 0, 65, 0
3, 85440, Note_on_c, 0, 60, 21
3, 85440, Note_on_c, 0, 53, 21
3, 86880, Note_on_c, 0, 53, 0
3, 86880, Note_on_c, 0, 60, 0
3, 86880, Note_on_c, 0, 46, 21
3, 86880, Note_on_c, 0, 53, 21
3, 88320, Note_on_c, 0, 53, 0
3, 88320, Note_on_c, 0, 46, 0
3, 88320, Note_on_c, 0, 53, 21
3, 88320, Note_on_c, 0, 60, 21
3, 89760, Note_on_c, 0, 60, 0
3, 89760, Note_on_c, 0, 53, 0
3, 89760, Note_on_c, 0, 48, 21
3, 89760, Note_on_c, 0, 55, 21
3, 91200, Note_on_c, 0, 55, 0
3, 91200, Note_on_c, 0, 48, 0
3, 91200, Note_on_c, 0, 67, 28
3, 91200, Note_on_c, 0, 60, 28
3, 92640, Note_on_c, 0, 60, 0
3, 92640, Note_on_c, 0, 67, 0
3, 92640, Note_on_c, 0, 53, 30
3, 92640, Note_on_c, 0, 60, 30
3, 94080, Note_on_c, 0, 60, 0
3, 94080, Note_on_c, 0, 53, 0
3, 94080, Note_on_c, 0, 79, 35
3, 94080, Note_on_c, 0, 72, 35
3, 95520, Note_on_c, 0, 72, 0
3, 95520, Note_on_c, 0, 79, 0
3, 95520, Note_on_c, 0, 65, 38
3, 95520, Note_on_c, 0, 72, 38
3, 96960, Note_on_c, 0, 72, 0
3, 96960, Note_on_c, 0, 65, 0
3, 96960, Note_on_c, 0, 67, 53
3, 96960, Note_on_c, 0, 60, 45
3, 97440, Note_on_c, 0, 60, 0
3, 97440, Note_on_c, 0, 67, 0
3, 97440, Note_on_c, 0, 69, 50
3, 97440, Note_on_c, 0, 65, 41
3, 98400, Note_on_c, 0, 65, 0
3, 98400, Note_on_c, 0, 69, 0
3, 98400, Note_on_c, 0, 79, 62
3, 98400, Note_on_c, 0, 72, 51
3, 98880, Note_on_c, 0, 72, 0
3, 98880, Note_on_c, 0, 79, 0
3, 98880, Note_on_c, 0, 81, 56
3, 98880, Note_on_c, 0, 77, 47
3, 99840, Note_on_c, 0, 77, 0
3, 99840, Note_on_c, 0, 81, 0
3, 99840, Note_on_c, 0, 67, 58
3, 99840, Note_on_c, 0, 60, 47
3, 100320, Note_on_c, 0, 60, 0
3, 100320, Note_on_c, 0, 67, 0
3, 100320, Note_on_c, 0, 69, 53
3, 100320, Note_on_c, 0, 65, 45
3, 101280, Note_on_c, 0, 65, 0
3, 101280, Note_on_c, 0, 69, 0
3, 101280, Note_on_c, 0, 79, 68
3, 101280, Note_on_c, 0, 72, 56
3, 101760, Note_on_c, 0, 72, 0
3, 101760, Note_on_c, 0, 79, 0
3, 101760, Note_on_c, 0, 81, 60
3, 101760, Note_on_c, 0, 77, 52
3, 102711, Note_on_c, 0, 77, 0
3, 102711, Note_on_c, 0, 81, 0
3, 102720, Note_on_c, 0, 65, 47
3, 102720, Note_on_c, 0, 69, 58
3, 103671, Note_on_c, 0, 69, 0
3, 103671, Note_on_c, 0, 65, 0
3, 103680, Note_on_c, 0, 77, 52
3, 103680, Note_on_c, 0, 81, 60
3, 104631, Note_on_c, 0, 81, 0
3, 104631, Note_on_c, 0, 77, 0
3, 104640, Note_on_c, 0, 65, 47
3, 104640, Note_on_c, 0, 69, 58
3, 105591, Note_on_c, 0, 69, 0
3, 105591, Note_on_c, 0, 65, 0
3, 105600, Note_on_c, 0, 77, 52
3, 105600, Note_on_c, 0, 81, 60
3, 106551, Note_on_c, 0, 81, 0
3, 106551, Note_on_c, 0, 77, 0
3, 106560, Note_on_c, 0, 65, 47
3, 106560, Note_on_c, 0, 69, 58
3, 107511, Note_on_c, 0, 69, 0
3, 107511, Note_on_c, 0, 65, 0
3, 107520, Note_on_c, 0, 77, 52
3, 107520, Note_on_c, 0, 81, 60
3, 108471, Note_on_c, 0, 81, 0
3, 108471, Note_on_c, 0, 77, 0
3, 108480, Note_on_c, 0, 59, 42
3, 108480, Note_on_c, 0, 66, 51
3, 109431, Note_on_c, 0, 66, 0
3, 109431, Note_on_c, 0, 59, 0
3, 109440, Note_on_c, 0, 71, 46
3, 109440, Note_on_c, 0, 78, 52
3, 110391, Note_on_c, 0, 78, 0
3, 110391, Note_on_c, 0, 71, 0
3, 110400, Note_on_c, 0, 59, 42
3, 110400, Note_on_c, 0, 66, 51
3, 111351, Note_on_c, 0, 66, 0
3, 111351, Note_on_c, 0, 59, 0
3, 111360, Note_on_c, 0, 71, 46
3, 111360, Note_on_c, 0, 78, 52
3, 112311, Note_on_c, 0, 78, 0
3, 112311, Note_on_c, 0, 71, 0
3, 112320, Note_on_c, 0, 59, 42
3, 112320, Note_on_c, 0, 66, 51
3, 113271, Note_on_c, 0, 66, 0
3, 113271, Note_on_c, 0, 59, 0
3, 113280, Note_on_c, 0, 71, 46
3, 113280, Note_on_c, 0, 78, 52
3, 114231, Note_on_c, 0, 78, 0
3, 114231, Note_on_c, 0, 71, 0
3, 114240, Note_on_c, 0, 47, 94
3, 114240, Note_on_c, 0, 40, 79
3, 114480, Note_on_c, 0, 40, 0
3, 114480, Note_on_c, 0, 47, 0
3, 114720, Note_on_c, 0, 59, 71
3, 114720, Note_on_c, 0, 52, 60
3, 115680, Note_on_c, 0, 52, 0
3, 115680, Note_on_c, 0, 59, 0
3, 115680, Note_on_c, 0, 47, 80
3, 115680, Note_on_c, 0, 40, 68
3, 115920, Note_on_c, 0, 40, 0
3, 115920, Note_on_c, 0, 47, 0
3, 116160, Note_on_c, 0, 59, 70
3, 116160, Note_on_c, 0, 52, 59
3, 117120, Note_on_c, 0, 52, 0
3, 117120, Note_on_c, 0, 59, 0
3, 117120, Note_on_c, 0, 47, 75
3, 117120, Note_on_c, 0, 40, 63
3, 117360, Note_on_c, 0, 40, 0
3, 117360, Note_on_c, 0, 47, 0
3, 117600, Note_on_c, 0, 59, 71
3, 117600, Note_on_c, 0, 52, 60
3, 118560, Note_on_c, 0, 52, 0
3, 118560, Note_on_c, 0, 59, 0
3, 118560, Note_on_c, 0, 47, 80
3, 118560, Note_on_c, 0, 40, 68
3, 118800, Note_on_c, 0, 40, 0
3, 118800, Note_on_c, 0, 47, 0
3, 119040, Note_on_c, 0, 59, 70
3, 119040, Note_on_c, 0, 52, 59
3, 120000, Note_on_c, 0, 52, 0
3, 120000, Note_on_c, 0, 59, 0
3, 120000, Note_on_c, 0, 47, 63
3, 120000, Note_on_c, 0, 40, 52
3, 120240, Note_on_c, 0, 40, 0
3, 120240, Note_on_c, 0, 47, 0
3, 120480, Note_on_c, 0, 59, 59
3, 120480, Note_on_c, 0, 52, 50
3, 121440, Note_on_c, 0, 52, 0
3, 121440, Note_on_c, 0, 59, 0
3, 121440, Note_on_c, 0, 47, 65
3, 121440, Note_on_c, 0, 40, 55
3, 121680, Note_on_c, 0, 40, 0
3, 121680, Note_on_c, 0, 47, 0
3, 121920, Note_on_c, 0, 59, 57
3, 121920, Note_on_c, 0, 52, 49
3, 122880, Note_on_c, 0, 52, 0
3, 122880, Note_on_c, 0, 59, 0
3, 122880, Note_on_c, 0, 47, 63
3, 122880, Note_on_c, 0, 40, 52
3, 123120, Note_on_c, 0, 40, 0
3, 123120, Note_on_c, 0, 47, 0
3, 123360, Note_on_c, 0, 59, 59
3, 123360, Note_on_c, 0, 52, 50
3, 124320, Note_on_c, 0, 52, 0
3, 124320, Note_on_c, 0, 59, 0
3, 124320, Note_on_c, 0, 47, 65
3, 124320, Note_on_c, 0, 40, 55
3, 124560, Note_on_c, 0, 40, 0
3, 124560, Note_on_c, 0, 47, 0
3, 124800, Note_on_c, 0, 59, 51
3, 124800, Note_on_c, 0, 52, 44
3, 125760, Note_on_c, 0, 52, 0
3, 125760, Note_on_c, 0, 59, 0
3, 125760, Note_on_c, 0, 35, 21
3, 126240, Note_on_c, 0, 42, 21
3, 126720, Note_on_c, 0, 42, 0
3, 126720, Note_on_c, 0, 42, 21
3, 127200, Note_on_c, 0, 42, 0
3, 127200, Note_on_c, 0, 35, 0
3, 127200, Note_on_c, 0, 35, 21
3, 127680, Note_on_c, 0, 42, 21
3, 128160, Note_on_c, 0, 42, 0
3, 128160, Note_on_c, 0, 42, 21
3, 128280, Note_on_c, 0, 42, 0
3, 128640, Note_on_c, 0, 35, 0
3, 128640, Note_on_c, 0, 35, 21
3, 129120, Note_on_c, 0, 42, 21
3, 129600, Note_on_c, 0, 42, 0
3, 129600, Note_on_c, 0, 42, 21
3, 130080, Note_on_c, 0, 42, 0
3, 130080, Note_on_c, 0, 35, 0
3, 130080, Note_on_c, 0, 35, 21
3, 130560, Note_on_c, 0, 42, 21
3, 130680, Note_on_c, 0, 42, 0
3, 131040, Note_on_c, 0, 42, 21
3, 131160, Note_on_c, 0, 42, 0
3, 131520, Note_on_c, 0, 35, 0
3, 131520, Note_on_c, 0, 35, 21
3, 132000, Note_on_c, 0, 42, 21
3, 132480, Note_on_c, 0, 42, 0
3, 132480, Note_on_c, 0, 42, 21
3, 132960, Note_on_c, 0, 42, 0
3, 132960, Note_on_c, 0, 35, 0
3, 132960, Note_on_c, 0, 35, 21
3, 133440, Note_on_c, 0, 42, 21
3, 133920, Note_on_c, 0, 42, 0
3, 133920, Note_on_c, 0, 42, 21
3, 134040, Note_on_c, 0, 42, 0
3, 134400, Note_on_c, 0, 35, 0
3, 134400, Note_on_c, 0, 35, 21
3, 134880, Note_on_c, 0, 42, 21
3, 135360, Note_on_c, 0, 42, 0
3, 135360, Note_on_c, 0, 42, 21
3, 135840, Note_on_c, 0, 42, 0
3, 135840, Note_on_c, 0, 35, 0
3, 135840, Note_on_c, 0, 35, 21
3, 136320, Note_on_c, 0, 42, 21
3, 136440, Note_on_c, 0, 42, 0
3, 136800, Note_on_c, 0, 42, 21
3, 136920, Note_on_c, 0, 42, 0
3, 137280, Note_on_c, 0, 35, 0
3, 137280, Note_on_c, 0, 70, 21
3, 137280, Note_on_c, 0, 63, 21
3, 138720, Note_on_c, 0, 63, 0
3, 138720, Note_on_c, 0, 70, 0
3, 138720, Note_on_c, 0, 56, 21
3, 138720, Note_on_c, 0, 63, 21
3, 140160, Note_on_c, 0, 63, 0
3, 140160, Note_on_c, 0, 56, 0
3, 140160, Note_on_c, 0, 63, 21
3, 140160, Note_on_c, 0, 70, 21
3, 141600, Note_on_c, 0, 70, 0
3, 141600, Note_on_c, 0, 63, 0
3, 141600, Note_on_c, 0, 58, 21
3, 141600, Note_on_c, 0, 65, 21
3, 143040, Note_on_c, 0, 65, 0
3, 143040, Note_on_c, 0, 58, 0
3, 143040, Note_on_c, 0, 77, 21
3, 143040, Note_on_c, 0, 70, 21
3, 144480, Note_on_c, 0, 70, 0
3, 144480, Note_on_c, 0, 77, 0
3, 144480, Note_on_c, 0, 63, 21
3, 144480, Note_on_c, 0, 70, 21
3, 145920, Note_on_c, 0, 70, 0
3, 145920, Note_on_c, 0, 63, 0
3, 145920, Note_on_c, 0, 70, 21
3, 145920, Note_on_c, 0, 77, 21
3, 147360, Note_on_c, 0, 77, 0
3, 147360, Note_on_c, 0, 70, 0
3, 147360, Note_on_c, 0, 65, 21
3, 147360, Note_on_c, 0, 72, 21
3, 148800, Note_on_c, 0, 72, 0
3, 148800, Note_on_c, 0, 65, 0
3, 148800, Note_on_c, 0, 60, 21
3, 148800, Note_on_c, 0, 53, 21
3, 150240, Note_on_c, 0, 53, 0
3, 150240, Note_on_c, 0, 60, 0
3, 150240, Note_on_c, 0, 46, 21
3, 150240, Note_on_c, 0, 53, 21
3, 151680, Note_on_c, 0, 53, 0
3, 151680, Note_on_c, 0, 46, 0
3, 151680, Note_on_c, 0, 53, 21
3, 151680, Note_on_c, 0, 60, 21
3, 153120, Note_on_c, 0, 60, 0
3, 153120, Note_on_c, 0, 53, 0
3, 153120, Note_on_c, 0, 48, 21
3, 153120, Note_on_c, 0, 55, 21
3, 154560, Note_on_c, 0, 55, 0
3, 154560, Note_on_c, 0, 48, 0
3, 154560, Note_on_c, 0, 67, 28
3, 154560, Note_on_c, 0, 60, 28
3, 156000, Note_on_c, 0, 60, 0
3, 156000, Note_on_c, 0, 67, 0
3, 156000, Note_on_c, 0, 53, 30
3, 156000, Note_on_c, 0, 60, 30
3, 157440, Note_on_c, 0, 60, 0
3, 157440, Note_on_c, 0, 53, 0
3, 157440, Note_on_c, 0, 79, 35
3, 157440, Note_on_c, 0, 72, 35
3, 158880, Note_on_c, 0, 72, 0
3, 158880, Note_on_c, 0, 79, 0
3, 158880, Note_on_c, 0, 65, 38
3, 158880, Note_on_c, 0, 72, 38
3, 160320, Note_on_c, 0, 72, 0
3, 160320, Note_on_c, 0, 65, 0
3, 160320, Note_on_c, 0, 67, 53
3, 160320, Note_on_c, 0, 60, 45
3, 160800, Note_on_c, 0, 60, 0
3, 160800, Note_on_c, 0, 67, 0
3, 160800, Note_on_c, 0, 69, 50
3, 160800, Note_on_c, 0, 65, 41
3, 161760, Note_on_c, 0, 65, 0
3, 161760, Note_on_c, 0, 69, 0
3, 161760, Note_on_c, 0, 79, 62
3, 161760, Note_on_c, 0, 72, 51
3, 162240, Note_on_c, 0, 72, 0
3, 162240, Note_on_c, 0, 79, 0
3, 162240, Note_on_c, 0, 81, 56
3, 162240, Note_on_c, 0, 77, 47
3, 163200, Note_on_c, 0, 77, 0
3, 163200, Note_on_c, 0, 81, 0
3, 163200, Note_on_c, 0, 67, 58
3, 163200, Note_on_c, 0, 60, 47
3, 163680, Note_on_c, 0, 60, 0
3, 163680, Note_on_c, 0, 67, 0
3, 163680, Note_on_c, 0, 69, 53
3, 163680, Note_on_c, 0, 65, 45
3, 164640, Note_on_c, 0, 65, 0
3, 164640, Note_on_c, 0, 69, 0
3, 164640, Note_on_c, 0, 79, 68
3, 164640, Note_on_c, 0, 72, 56
3, 165120, Note_on_c, 0, 72, 0
3, 165120, Note_on_c, 0, 79, 0
3, 165120, Note_on_c, 0, 81, 60
3, 165120, Note_on_c, 0, 77, 52
3, 166071, Note_on_c, 0, 77, 0
3, 166071, Note_on_c, 0, 81, 0
3, 166080, Note_on_c, 0, 65, 47
3, 166080, Note_on_c, 0, 69, 58
3, 167031, Note_on_c, 0, 69, 0
3, 167031, Note_on_c, 0, 65, 0
3, 167040, Note_on_c, 0, 77, 52
3, 167040, Note_on_c, 0, 81, 60
3, 167991, Note_on_c, 0, 81, 0
3, 167991, Note_on_c, 0, 77, 0
3, 168000, Note_on_c, 0, 65, 47
3, 168000, Note_on_c, 0, 69, 58
3, 168951, Note_on_c, 0, 69, 0
3, 168951, Note_on_c, 0, 65, 0
3, 168960, Note_on_c, 0, 77, 52
3, 168960, Note_on_c, 0, 81, 60
3, 169911, Note_on_c, 0, 81, 0
3, 169911, Note_on_c, 0, 77, 0
3, 169920, Note_on_c, 0, 65, 47
3, 169920, Note_on_c, 0, 69, 58
3, 170871, Note_on_c, 0, 69, 0
3, 170871, Note_on_c, 0, 65, 0
3, 170880, Note_on_c, 0, 77, 52
3, 170880, Note_on_c, 0, 81, 60
3, 171831, Note_on_c, 0, 81, 0
3, 171831, Note_on_c, 0, 77, 0
3, 171840, Note_on_c, 0, 59, 42
3, 171840, Note_on_c, 0, 66, 51
3, 172791, Note_on_c, 0, 66, 0
3, 172791, Note_on_c, 0, 59, 0
3, 172800, Note_on_c, 0, 71, 46
3, 172800, Note_on_c, 0, 78, 52
3, 173751, Note_on_c, 0, 78, 0
3, 173751, Note_on_c, 0, 71, 0
3, 173760, Note_on_c, 0, 59, 42
3, 173760, Note_on_c, 0, 66, 51
3, 174711, Note_on_c, 0, 66, 0
3, 174711, Note_on_c, 0, 59, 0
3, 174720, Note_on_c, 0, 71, 46
3, 174720, Note_on_c, 0, 78, 52
3, 175671, Note_on_c, 0, 78, 0
3, 175671, Note_on_c, 0, 71, 0
3, 175680, Note_on_c, 0, 59, 42
3, 175680, Note_on_c, 0, 66, 51
3, 176631, Note_on_c, 0, 66, 0
3, 176631, Note_on_c, 0, 59, 0
3, 176640, Note_on_c, 0, 71, 46
3, 176640, Note_on_c, 0, 78, 52
3, 177591, Note_on_c, 0, 78, 0
3, 177591, Note_on_c, 0, 71, 0
3, 177600, Note_on_c, 0, 47, 94
3, 177600, Note_on_c, 0, 40, 79
3, 177840, Note_on_c, 0, 40, 0
3, 177840, Note_on_c, 0, 47, 0
3, 178080, Note_on_c, 0, 59, 71
3, 178080, Note_on_c, 0, 52, 60
3, 179040, Note_on_c, 0, 52, 0
3, 179040, Note_on_c, 0, 59, 0
3, 179040, Note_on_c, 0, 47, 80
3, 179040, Note_on_c, 0, 40, 68
3, 179280, Note_on_c, 0, 40, 0
3, 179280, Note_on_c, 0, 47, 0
3, 179520, Note_on_c, 0, 59, 70
3, 179520, Note_on_c, 0, 52, 59
3, 180480, Note_on_c, 0, 52, 0
3, 180480, Note_on_c, 0, 59, 0
3, 180480, Note_on_c, 0, 47, 75
3, 180480, Note_on_c, 0, 40, 63
3, 180720, Note_on_c, 0, 40, 0
3, 180720, Note_on_c, 0, 47, 0
3, 180960, Note_on_c, 0, 59, 71
3, 180960, Note_on_c, 0, 52, 60
3, 181920, Note_on_c, 0, 52, 0
3, 181920, Note_on_c, 0, 59, 0
3, 181920, Note_on_c, 0, 47, 80
3, 181920, Note_on_c, 0, 40, 68
3, 182160, Note_on_c, 0, 40, 0
3, 182160, Note_on_c, 0, 47, 0
3, 182400, Note_on_c, 0, 59, 70
3, 182400, Note_on_c, 0, 52, 59
3, 183360, Note_on_c, 0, 52, 0
3, 183360, Note_on_c, 0, 59, 0
3, 183360, Note_on_c, 0, 47, 63
3, 183360, Note_on_c, 0, 40, 52
3, 183600, Note_on_c, 0, 40, 0
3, 183600, Note_on_c, 0, 47, 0
3, 183840, Note_on_c, 0, 59, 59
3, 183840, Note_on_c, 0, 52, 50
3, 184800, Note_on_c, 0, 52, 0
3, 184800, Note_on_c, 0, 59, 0
3, 184800, Note_on_c, 0, 47, 65
3, 184800, Note_on_c, 0, 40, 55
3, 185040, Note_on_c, 0, 40, 0
3, 185040, Note_on_c, 0, 47, 0
3, 185280, Note_on_c, 0, 59, 57
3, 185280, Note_on_c, 0, 52, 49
3, 186240, Note_on_c, 0, 52, 0
3, 186240, Note_on_c, 0, 59, 0
3, 186240, Note_on_c, 0, 47, 63
3, 186240, Note_on_c, 0, 40, 52
3, 186480, Note_on_c, 0, 40, 0
3, 186480, Note_on_c, 0, 47, 0
3, 186720, Note_on_c, 0, 59, 59
3, 186720, Note_on_c, 0, 52, 50
3, 187680, Note_on_c, 0, 52, 0
3, 187680, Note_on_c, 0, 59, 0
3, 187680, Note_on_c, 0, 47, 65
3, 187680, Note_on_c, 0, 40, 55
3, 187920, Note_on_c, 0, 40, 0
3, 187920, Note_on_c, 0, 47, 0
3, 188160, Note_on_c, 0, 59, 51
3, 188160, Note_on_c, 0, 52, 44
3, 189120, Note_on_c, 0, 52, 0
3, 189120, Note_on_c, 0, 59, 0
3, 190560, Note_on_c, 0, 40, 30
3, 191040, Note_on_c, 0, 47, 35
3, 192000, Note_on_c, 0, 47, 0
3, 192000, Note_on_c, 0, 40, 0
3, 192000, Note_on_c, 0, 40, 33
3, 192480, Note_on_c, 0, 47, 30
3, 193440, Note_on_c, 0, 47, 0
3, 193440, Note_on_c, 0, 40, 0
3, 194880, Note_on_c, 0, 40, 25
3, 195360, Note_on_c, 0, 47, 29
3, 196320, Note_on_c, 0, 47, 0
3, 196320, Note_on_c, 0, 40, 0
3, 197760, Note_on_c, 0, 40, 21
3, 198240, Note_on_c, 0, 47, 24
3, 199200, Note_on_c, 0, 47, 0
3, 199200, Note_on_c, 0, 40, 0
3, 200640, Note_on_c, 0, 64, 30
3, 200640, Note_on_c, 0, 62, 25
3, 201120, Note_on_c, 0, 62, 0
3, 201120, Note_on_c, 0, 61, 30
3, 201600, Note_on_c, 0, 61, 0
3, 201600, Note_on_c, 0, 64, 0
3, 201600, Note_on_c, 0, 60, 22
3, 201600, Note_on_c, 0, 64, 26
3, 202080, Note_on_c, 0, 64, 0
3, 202080, Note_on_c, 0, 60, 0
3, 202080, Note_on_c, 0, 59, 25
3, 202080, Note_on_c, 0, 62, 30
3, 202560, Note_on_c, 0, 62, 0
3, 202560, Note_on_c, 0, 59, 0
3, 202560, Note_on_c, 0, 57, 27
3, 202560, Note_on_c, 0, 60, 32
3, 203040, Note_on_c, 0, 60, 0
3, 203040, Note_on_c, 0, 57, 0
3, 203040, Note_on_c, 0, 55, 25
3, 203040, Note_on_c, 0, 59, 30
3, 203520, Note_on_c, 0, 59, 0
3, 203520, Note_on_c, 0, 55, 0
3, 203520, Note_on_c, 0, 54, 22
3, 203520, Note_on_c, 0, 57, 26
3, 204000, Note_on_c, 0, 57, 0
3, 204000, Note_on_c, 0, 54, 0
3, 204000, Note_on_c, 0, 53, 25
3, 204000, Note_on_c, 0, 60, 30
3, 204480, Note_on_c, 0, 60, 0
3, 204480, Note_on_c, 0, 53, 0
3, 204480, Note_on_c, 0, 59, 26
3, 204480, Note_on_c, 0, 48, 22
3, 204960, Note_on_c, 0, 48, 0
3, 204960, Note_on_c, 0, 59, 0
3, 204960, Note_on_c, 0, 50, 25
3, 204960, Note_on_c, 0, 57, 30
3, 205440, Note_on_c, 0, 57, 0
3, 205440, Note_on_c, 0, 50, 0
3, 205440, Note_on_c, 0, 55, 26
3, 205440, Note_on_c, 0, 45, 22
3, 205920, Note_on_c, 0, 45, 0
3, 205920, Note_on_c, 0, 55, 0
3, 205920, Note_on_c, 0, 54, 27
3, 205920, Note_on_c, 0, 47, 22
3, 206400, Note_on_c, 0, 47, 0
3, 206400, Note_on_c, 0, 54, 0
3, 206400, Note_on_c, 0, 40, 25
3, 206880, Note_on_c, 0, 40, 0
3, 206880, Note_on_c, 0, 52, 46
3, 207360, Note_on_c, 0, 54, 25
3, 207840, Note_on_c, 0, 54, 0
3, 207840, Note_on_c, 0, 59, 35
3, 208080, Note_on_c, 0, 59, 0
3, 208080, Note_on_c, 0, 57, 30
3, 208320, Note_on_c, 0, 57, 0
3, 208320, Note_on_c, 0, 62, 30
3, 208560, Note_on_c, 0, 62, 0
3, 208560, Note_on_c, 0, 60, 24
3, 208800, Note_on_c, 0, 60, 0
3, 208800, Note_on_c, 0, 59, 30
3, 209280, Note_on_c, 0, 59, 0
3, 209280, Note_on_c, 0, 52, 0
3, 209280, Note_on_c, 0, 54, 22
3, 209280, Note_on_c, 0, 64, 26
3, 209760, Note_on_c, 0, 64, 0
3, 209760, Note_on_c, 0, 54, 0
3, 209760, Note_on_c, 0, 55, 25
3, 209760, Note_on_c, 0, 59, 30
3, 210240, Note_on_c, 0, 59, 0
3, 210240, Note_on_c, 0, 55, 0
3, 210240, Note_on_c, 0, 57, 27
3, 210240, Note_on_c, 0, 60, 32
3, 210720, Note_on_c, 0, 60, 0
3, 210720, Note_on_c, 0, 57, 0
3, 210720, Note_on_c, 0, 59, 25
3, 210720, Note_on_c, 0, 62, 30
3, 211200, Note_on_c, 0, 59, 0
3, 211200, Note_on_c, 0, 55, 26
3, 211680, Note_on_c, 0, 55, 0
3, 211680, Note_on_c, 0, 62, 0
3, 211680, Note_on_c, 0, 53, 18
3, 211680, Note_on_c, 0, 57, 22
3, 211920, Note_on_c, 0, 57, 0
3, 211920, Note_on_c, 0, 59, 16
3, 212160, Note_on_c, 0, 59, 0
3, 212160, Note_on_c, 0, 53, 0
3, 212160, Note_on_c, 0, 60, 19
3, 212160, Note_on_c, 0, 48, 16
3, 212640, Note_on_c, 0, 48, 0
3, 212640, Note_on_c, 0, 60, 0
3, 212640, Note_on_c, 0, 50, 18
3, 212640, Note_on_c, 0, 54, 22
3, 212880, Note_on_c, 0, 54, 0
3, 212880, Note_on_c, 0, 55, 16
3, 213120, Note_on_c, 0, 55, 0
3, 213120, Note_on_c, 0, 50, 0
3, 213120, Note_on_c, 0, 57, 19
3, 213120, Note_on_c, 0, 45, 16
3, 213600, Note_on_c, 0, 45, 0
3, 213600, Note_on_c, 0, 57, 0
3, 213600, Note_on_c, 0, 54, 20
3, 213600, Note_on_c, 0, 47, 16
3, 214080, Note_on_c, 0, 47, 0
3, 214080, Note_on_c, 0, 54, 0
3, 214080, Note_on_c, 0, 40, 18
3, 215040, Note_on_c, 0, 40, 0
3, 215040, Note_on_c, 0, 50, 48
3, 215040, Note_on_c, 0, 57, 55
3, 215520, Note_on_c, 0, 57, 0
3, 215520, Note_on_c, 0, 50, 0
3, 215520, Note_on_c, 0, 55, 55
3, 215520, Note_on_c, 0, 59, 55
3, 216000, Note_on_c, 0, 59, 0
3, 216000, Note_on_c, 0, 61, 49
3, 216480, Note_on_c, 0, 61, 0
3, 216480, Note_on_c, 0, 55, 0
3, 216480, Note_on_c, 0, 62, 53
3, 216480, Note_on_c, 0, 50, 53
3, 216720, Note_on_c, 0, 62, 0
3, 216720, Note_on_c, 0, 57, 45
3, 216960, Note_on_c, 0, 57, 0
3, 216960, Note_on_c, 0, 54, 39
3, 217440, Note_on_c, 0, 54, 0
3, 217440, Note_on_c, 0, 50, 0
3, 217440, Note_on_c, 0, 48, 55
3, 217440, Note_on_c, 0, 55, 55
3, 217920, Note_on_c, 0, 55, 0
3, 217920, Note_on_c, 0, 57, 52
3, 218400, Note_on_c, 0, 57, 0
3, 218400, Note_on_c, 0, 48, 0
3, 218400, Note_on_c, 0, 59, 60
3, 218400, Note_on_c, 0, 43, 60
3, 218880, Note_on_c, 0, 59, 0
3, 218880, Note_on_c, 0, 62, 44
3, 219360, Note_on_c, 0, 62, 0
3, 219360, Note_on_c, 0, 43, 0
3, 219360, Note_on_c, 0, 55, 63
3, 219360, Note_on_c, 0, 67, 63
3, 219840, Note_on_c, 0, 67, 0
3, 219840, Note_on_c, 0, 66, 56
3, 220320, Note_on_c, 0, 66, 0
3, 220320, Note_on_c, 0, 64, 60
3, 220800, Note_on_c, 0, 64, 0
3, 220800, Note_on_c, 0, 62, 44
3, 221280, Note_on_c, 0, 62, 0
3, 221280, Note_on_c, 0, 60, 44
3, 221760, Note_on_c, 0, 60, 0
3, 221760, Note_on_c, 0, 59, 44
3, 222240, Note_on_c, 0, 59, 0
3, 222240, Note_on_c, 0, 55, 0
3, 222240, Note_on_c, 0, 58, 33
3, 222240, Note_on_c, 0, 54, 28
3, 222720, Note_on_c, 0, 54, 0
3, 222720, Note_on_c, 0, 58, 0
3, 222720, Note_on_c, 0, 53, 27
3, 222720, Note_on_c, 0, 57, 32
3, 222960, Note_on_c, 0, 57, 0
3, 222960, Note_on_c, 0, 56, 29
3, 223200, Note_on_c, 0, 56, 0
3, 223200, Note_on_c, 0, 53, 0
3, 223200, Note_on_c, 0, 52, 25
3, 223200, Note_on_c, 0, 55, 30
3, 223680, Note_on_c, 0, 55, 0
3, 223680, Note_on_c, 0, 52, 0
3, 223680, Note_on_c, 0, 62, 30
3, 223680, Note_on_c, 0, 50, 25
3, 224160, Note_on_c, 0, 50, 0
3, 224160, Note_on_c, 0, 62, 0
3, 224160, Note_on_c, 0, 49, 25
3, 224160, Note_on_c, 0, 61, 30
3, 224640, Note_on_c, 0, 61, 0
3, 224640, Note_on_c, 0, 49, 0
3, 224640, Note_on_c, 0, 48, 22
3, 224640, Note_on_c, 0, 60, 26
3, 225120, Note_on_c, 0, 60, 0
3, 225120, Note_on_c, 0, 48, 0
3, 225120, Note_on_c, 0, 47, 25
3, 225120, Note_on_c, 0, 59, 30
3, 225600, Note_on_c, 0, 59, 0
3, 225600, Note_on_c, 0, 47, 0
3, 225600, Note_on_c, 0, 45, 27
3, 225600, Note_on_c, 0, 57, 32
3, 226080, Note_on_c, 0, 57, 0
3, 226080, Note_on_c, 0, 45, 0
3, 226080, Note_on_c, 0, 43, 25
3, 226080, Note_on_c, 0, 55, 30
3, 226560, Note_on_c, 0, 55, 0
3, 226560, Note_on_c, 0, 43, 0
3, 226560, Note_on_c, 0, 42, 22
3, 226560, Note_on_c, 0, 54, 26
3, 227040, Note_on_c, 0, 54, 0
3, 227040, Note_on_c, 0, 42, 0
3, 227040, Note_on_c, 0, 41, 18
3, 227040, Note_on_c, 0, 53, 22
3, 227520, Note_on_c, 0, 53, 0
3, 227520, Note_on_c, 0, 41, 0
3, 227520, Note_on_c, 0, 48, 19
3, 227520, Note_on_c, 0, 36, 16
3, 228000, Note_on_c, 0, 36, 0
3, 228000, Note_on_c, 0, 48, 0
3, 228000, Note_on_c, 0, 38, 18
3, 228000, Note_on_c, 0, 50, 22
3, 228480, Note_on_c, 0, 50, 0
3, 228480, Note_on_c, 0, 38, 0
3, 228480, Note_on_c, 0, 45, 19
3, 228480, Note_on_c, 0, 33, 16
3, 228960, Note_on_c, 0, 33, 0
3, 228960, Note_on_c, 0, 45, 0
3, 229440, Note_on_c, 0, 47, 17
3, 229440, Note_on_c, 0, 35, 13
3, 229920, Note_on_c, 0, 35, 0
3, 229920, Note_on_c, 0, 47, 0
3, 230400, Note_on_c, 0, 28, 11
3, 230400, Note_on_c, 0, 40, 15
3, 231840, Note_on_c, 0, 40, 0
3, 231840, Note_on_c, 0, 28, 0
3, 231840, End_track
4, 0, Start_track
4, 0, Title_t, "Pedale"
4, 0, Program_c, 0, 0
4, 2047, Control_c, 0, 64, 127
4, 2416, Control_c, 0, 64, 0
4, 2556, Control_c, 0, 64, 127
4, 2892, Control_c, 0, 64, 0
4, 3043, Control_c, 0, 64, 127
4, 3378, Control_c, 0, 64, 0
4, 3473, Control_c, 0, 64, 127
4, 3851, Control_c, 0, 64, 0
4, 3932, Control_c, 0, 64, 127
4, 4331, Control_c, 0, 64, 0
4, 4454, Control_c, 0, 64, 127
4, 4813, Control_c, 0, 64, 0
4, 4899, Control_c, 0, 64, 127
4, 5292, Control_c, 0, 64, 0
4, 5817, Control_c, 0, 64, 127
4, 6255, Control_c, 0, 64, 0
4, 6424, Control_c, 0, 64, 127
4, 6736, Control_c, 0, 64, 0
4, 6812, Control_c, 0, 64, 127
4, 7212, Control_c, 0, 64, 0
4, 7306, Control_c, 0, 64, 127
4, 7689, Control_c, 0, 64, 0
4, 7747, Control_c, 0, 64, 127
4, 8177, Control_c, 0, 64, 0
4, 8308, Control_c, 0, 64, 127
4, 9131, Control_c, 0, 64, 0
4, 9643, Control_c, 0, 64, 127
4, 10090, Control_c, 0, 64, 0
4, 10200, Control_c, 0, 64, 127
4, 10571, Control_c, 0, 64, 0
4, 10680, Control_c, 0, 64, 127
4, 11053, Control_c, 0, 64, 0
4, 11174, Control_c, 0, 64, 127
4, 11533, Control_c, 0, 64, 0
4, 11619, Control_c, 0, 64, 127
4, 12012, Control_c, 0, 64, 0
4, 12099, Control_c, 0, 64, 127
4, 12495, Control_c, 0, 64, 0
4, 12607, Control_c, 0, 64, 127
4, 12974, Control_c, 0, 64, 0
4, 13059, Control_c, 0, 64, 127
4, 13440, Control_c, 0, 64, 0
4, 13984, Control_c, 0, 64, 127
4, 14412, Control_c, 0, 64, 0
4, 14951, Control_c, 0, 64, 127
4, 15368, Control_c, 0, 64, 0
4, 15680, Control_c, 0, 64, 127
4, 15857, Control_c, 0, 64, 0
4, 16160, Control_c, 0, 64, 127
4, 16800, Control_c, 0, 64, 0
4, 17407, Control_c, 0, 64, 127
4, 17776, Control_c, 0, 64, 0
4, 17916, Control_c, 0, 64, 127
4, 18252, Control_c, 0, 64, 0
4, 18403, Control_c, 0, 64, 127
4, 18738, Control_c, 0, 64, 0
4, 18833, Control_c, 0, 64, 127
4, 19217, Control_c, 0, 64, 0
4, 19327, Control_c, 0, 64, 127
4, 19696, Control_c, 0, 64, 0
4, 19836, Control_c, 0, 64, 127
4, 20172, Control_c, 0, 64, 0
4, 20323, Control_c, 0, 64, 127
4, 20658, Control_c, 0, 64, 0
4, 20753, Control_c, 0, 64, 127
4, 21128, Control_c, 0, 64, 0
4, 21247, Control_c, 0, 64, 127
4, 21616, Control_c, 0, 64, 0
4, 21756, Control_c, 0, 64, 127
4, 22092, Control_c, 0, 64, 0
4, 22243, Control_c, 0, 64, 127
4, 22578, Control_c, 0, 64, 0
4, 22673, Control_c, 0, 64, 127
4, 23054, Control_c, 0, 64, 0
4, 23177, Control_c, 0, 64, 127
4, 23539, Control_c, 0, 64, 0
4, 23692, Control_c, 0, 64, 127
4, 24016, Control_c, 0, 64, 0
4, 24160, Control_c, 0, 64, 127
4, 24495, Control_c, 0, 64, 0
4, 24663, Control_c, 0, 64, 127
4, 24960, Control_c, 0, 64, 0
4, 25087, Control_c, 0, 64, 127
4, 25456, Control_c, 0, 64, 0
4, 25596, Control_c, 0, 64, 127
4, 25932, Control_c, 0, 64, 0
4, 26083, Control_c, 0, 64, 127
4, 26418, Control_c, 0, 64, 0
4, 26513, Control_c, 0, 64, 127
4, 26891, Control_c, 0, 64, 0
4, 26972, Control_c, 0, 64, 127
4, 27371, Control_c, 0, 64, 0
4, 27494, Control_c, 0, 64, 127
4, 27853, Control_c, 0, 64, 0
4, 27939, Control_c, 0, 64, 127
4, 28332, Control_c, 0, 64, 0
4, 28857, Control_c, 0, 64, 127
4, 29295, Control_c, 0, 64, 0
4, 29464, Control_c, 0, 64, 127
4, 29776, Control_c, 0, 64, 0
4, 29852, Control_c, 0, 64, 127
4, 30252, Control_c, 0, 64, 0
4, 30346, Control_c, 0, 64, 127
4, 30729, Control_c, 0, 64, 0
4, 30787, Control_c, 0, 64, 127
4, 31217, Control_c, 0, 64, 0
4, 31440, Control_c, 0, 64, 127
4, 32160, Control_c, 0, 64, 0
4, 32160, Control_c, 0, 64, 0
4, 32767, Control_c, 0, 64, 127
4, 33136, Control_c, 0, 64, 0
4, 33276, Control_c, 0, 64, 127
4, 33612, Control_c, 0, 64, 0
4, 33763, Control_c, 0, 64, 127
4, 34098, Control_c, 0, 64, 0
4, 34193, Control_c, 0, 64, 127
4, 34577, Control_c, 0, 64, 0
4, 34687, Control_c, 0, 64, 127
4, 35056, Control_c, 0, 64, 0
4, 35196, Control_c, 0, 64, 127
4, 35532, Control_c, 0, 64, 0
4, 35683, Control_c, 0, 64, 127
4, 36018, Control_c, 0, 64, 0
4, 36113, Control_c, 0, 64, 127
4, 36488, Control_c, 0, 64, 0
4, 36607, Control_c, 0, 64, 127
4, 36976, Control_c, 0, 64, 0
4, 37116, Control_c, 0, 64, 127
4, 37452, Control_c, 0, 64, 0
4, 37603, Control_c, 0, 64, 127
4, 37938, Control_c, 0, 64, 0
4, 38033, Control_c, 0, 64, 127
4, 38414, Control_c, 0, 64, 0
4, 38537, Control_c, 0, 64, 127
4, 38899, Control_c, 0, 64, 0
4, 39052, Control_c, 0, 64, 127
4, 39376, Control_c, 0, 64, 0
4, 39520, Control_c, 0, 64, 127
4, 39855, Control_c, 0, 64, 0
4, 40023, Control_c, 0, 64, 127
4, 40320, Control_c, 0, 64, 0
4, 40447, Control_c, 0, 64, 127
4, 40816, Control_c, 0, 64, 0
4, 40956, Control_c, 0, 64, 127
4, 41292, Control_c, 0, 64, 0
4, 41443, Control_c, 0, 64, 127
4, 41778, Control_c, 0, 64, 0
4, 41873, Control_c, 0, 64, 127
4, 42251, Control_c, 0, 64, 0
4, 42332, Control_c, 0, 64, 127
4, 42731, Control_c, 0, 64, 0
4, 42854, Control_c, 0, 64, 127
4, 43213, Control_c, 0, 64, 0
4, 43299, Control_c, 0, 64, 127
4, 43692, Control_c, 0, 64, 0
4, 44217, Control_c, 0, 64, 127
4, 44655, Control_c, 0, 64, 0
4, 44824, Control_c, 0, 64, 127
4, 45136, Control_c, 0, 64, 0
4, 45212, Control_c, 0, 64, 127
4, 45612, Control_c, 0, 64, 0
4, 45706, Control_c, 0, 64, 127
4, 46080, Control_c, 0, 64, 0
4, 46537, Control_c, 0, 64, 127
4, 47292, Control_c, 0, 64, 0
4, 48054, Control_c, 0, 64, 127
4, 50880, Control_c, 0, 64, 0
4, 51403, Control_c, 0, 64, 127
4, 52320, Control_c, 0, 64, 0
4, 52504, Control_c, 0, 64, 127
4, 53294, Control_c, 0, 64, 0
4, 54339, Control_c, 0, 64, 127
4, 55211, Control_c, 0, 64, 0
4, 55384, Control_c, 0, 64, 127
4, 56428, Control_c, 0, 64, 0
4, 57304, Control_c, 0, 64, 127
4, 58089, Control_c, 0, 64, 0
4, 58260, Control_c, 0, 64, 127
4, 59047, Control_c, 0, 64, 0
4, 60000, Control_c, 0, 64, 127
4, 60969, Control_c, 0, 64, 0
4, 61140, Control_c, 0, 64, 127
4, 62160, Control_c, 0, 64, 0
4, 62400, Control_c, 0, 64, 0
4, 62923, Control_c, 0, 64, 127
4, 63840, Control_c, 0, 64, 0
4, 64024, Control_c, 0, 64, 127
4, 64814, Control_c, 0, 64, 0
4, 65859, Control_c, 0, 64, 127
4, 66731, Control_c, 0, 64, 0
4, 66904, Control_c, 0, 64, 127
4, 67948, Control_c, 0, 64, 0
4, 68160, Control_c, 0, 64, 0
4, 68683, Control_c, 0, 64, 127
4, 69600, Control_c, 0, 64, 0
4, 69784, Control_c, 0, 64, 127
4, 70574, Control_c, 0, 64, 0
4, 71619, Control_c, 0, 64, 127
4, 72491, Control_c, 0, 64, 0
4, 72664, Control_c, 0, 64, 127
4, 73708, Control_c, 0, 64, 0
4, 74443, Control_c, 0, 64, 127
4, 75360, Control_c, 0, 64, 0
4, 75544, Control_c, 0, 64, 127
4, 76334, Control_c, 0, 64, 0
4, 77379, Control_c, 0, 64, 127
4, 78251, Control_c, 0, 64, 0
4, 78424, Control_c, 0, 64, 127
4, 79468, Control_c, 0, 64, 0
4, 80344, Control_c, 0, 64, 127
4, 81129, Control_c, 0, 64, 0
4, 81300, Control_c, 0, 64, 127
4, 82087, Control_c, 0, 64, 0
4, 83040, Control_c, 0, 64, 127
4, 84009, Control_c, 0, 64, 0
4, 84180, Control_c, 0, 64, 127
4, 85200, Control_c, 0, 64, 0
4, 85963, Control_c, 0, 64, 127
4, 86880, Control_c, 0, 64, 0
4, 87064, Control_c, 0, 64, 127
4, 87854, Control_c, 0, 64, 0
4, 88899, Control_c, 0, 64, 127
4, 89771, Control_c, 0, 64, 0
4, 89944, Control_c, 0, 64, 127
4, 90988, Control_c, 0, 64, 0
4, 91864, Control_c, 0, 64, 127
4, 92649, Control_c, 0, 64, 0
4, 92820, Control_c, 0, 64, 127
4, 93607, Control_c, 0, 64, 0
4, 94744, Control_c, 0, 64, 127
4, 95529, Control_c, 0, 64, 0
4, 95700, Control_c, 0, 64, 127
4, 96487, Control_c, 0, 64, 0
4, 97073, Control_c, 0, 64, 127
4, 97457, Control_c, 0, 64, 0
4, 97680, Control_c, 0, 64, 127
4, 98414, Control_c, 0, 64, 0
4, 98513, Control_c, 0, 64, 127
4, 98897, Control_c, 0, 64, 0
4, 99120, Control_c, 0, 64, 127
4, 99840, Control_c, 0, 64, 0
4, 99953, Control_c, 0, 64, 127
4, 100337, Control_c, 0, 64, 0
4, 100560, Control_c, 0, 64, 127
4, 101294, Control_c, 0, 64, 0
4, 101393, Control_c, 0, 64, 127
4, 101777, Control_c, 0, 64, 0
4, 102000, Control_c, 0, 64, 127
4, 102720, Control_c, 0, 64, 0
4, 103063, Control_c, 0, 64, 127
4, 108480, Control_c, 0, 64, 0
4, 108823, Control_c, 0, 64, 127
4, 114240, Control_c, 0, 64, 0
4, 114410, Control_c, 0, 64, 127
4, 115680, Control_c, 0, 64, 0
4, 115786, Control_c, 0, 64, 127
4, 116873, Control_c, 0, 64, 0
4, 117120, Control_c, 0, 64, 0
4, 117290, Control_c, 0, 64, 127
4, 118560, Control_c, 0, 64, 0
4, 118666, Control_c, 0, 64, 127
4, 119753, Control_c, 0, 64, 0
4, 120000, Control_c, 0, 64, 0
4, 120170, Control_c, 0, 64, 127
4, 121440, Control_c, 0, 64, 0
4, 121546, Control_c, 0, 64, 127
4, 122633, Control_c, 0, 64, 0
4, 122880, Control_c, 0, 64, 0
4, 123050, Control_c, 0, 64, 127
4, 124320, Control_c, 0, 64, 0
4, 124426, Control_c, 0, 64, 127
4, 125513, Control_c, 0, 64, 0
4, 125760, Control_c, 0, 64, 0
4, 126283, Control_c, 0, 64, 127
4, 127200, Control_c, 0, 64, 0
4, 127384, Control_c, 0, 64, 127
4, 128174, Control_c, 0, 64, 0
4, 129219, Control_c, 0, 64, 127
4, 130091, Control_c, 0, 64, 0
4, 130264, Control_c, 0, 64, 127
4, 131308, Control_c, 0, 64, 0
4, 131520, Control_c, 0, 64, 0
4, 132043, Control_c, 0, 64, 127
4, 132960, Control_c, 0, 64, 0
4, 133144, Control_c, 0, 64, 127
4, 133934, Control_c, 0, 64, 0
4, 134979, Control_c, 0, 64, 127
4, 135851, Control_c, 0, 64, 0
4, 136024, Control_c, 0, 64, 127
4, 137068, Control_c, 0, 64, 0
4, 137803, Control_c, 0, 64, 127
4, 138720, Control_c, 0, 64, 0
4, 138904, Control_c, 0, 64, 127
4, 139694, Control_c, 0, 64, 0
4, 140739, Control_c, 0, 64, 127
4, 141611, Control_c, 0, 64, 0
4, 141784, Control_c, 0, 64, 127
4, 142828, Control_c, 0, 64, 0
4, 143704, Control_c, 0, 64, 127
4, 144489, Control_c, 0, 64, 0
4, 144660, Control_c, 0, 64, 127
4, 145447, Control_c, 0, 64, 0
4, 146400, Control_c, 0, 64, 127
4, 147369, Control_c, 0, 64, 0
4, 147540, Control_c, 0, 64, 127
4, 148560, Control_c, 0, 64, 0
4, 149323, Control_c, 0, 64, 127
4, 150240, Control_c, 0, 64, 0
4, 150424, Control_c, 0, 64, 127
4, 151214, Control_c, 0, 64, 0
4, 152259, Control_c, 0, 64, 127
4, 153131, Control_c, 0, 64, 0
4, 153304, Control_c, 0, 64, 127
4, 154348, Control_c, 0, 64, 0
4, 155224, Control_c, 0, 64, 127
4, 156009, Control_c, 0, 64, 0
4, 156180, Control_c, 0, 64, 127
4, 156967, Control_c, 0, 64, 0
4, 158104, Control_c, 0, 64, 127
4, 158889, Control_c, 0, 64, 0
4, 159060, Control_c, 0, 64, 127
4, 159847, Control_c, 0, 64, 0
4, 160433, Control_c, 0, 64, 127
4, 160817, Control_c, 0, 64, 0
4, 161040, Control_c, 0, 64, 127
4, 161774, Control_c, 0, 64, 0
4, 161873, Control_c, 0, 64, 127
4, 162257, Control_c, 0, 64, 0
4, 162480, Control_c, 0, 64, 127
4, 163200, Control_c, 0, 64, 0
4, 163313, Control_c, 0, 64, 127
4, 163697, Control_c, 0, 64, 0
4, 163920, Control_c, 0, 64, 127
4, 164654, Control_c, 0, 64, 0
4, 164753, Control_c, 0, 64, 127
4, 165137, Control_c, 0, 64, 0
4, 165360, Control_c, 0, 64, 127
4, 166080, Control_c, 0, 64, 0
4, 166423, Control_c, 0, 64, 127
4, 171840, Control_c, 0, 64, 0
4, 172183, Control_c, 0, 64, 127
4, 177600, Control_c, 0, 64, 0
4, 177770, Control_c, 0, 64, 127
4, 179040, Control_c, 0, 64, 0
4, 179146, Control_c, 0, 64, 127
4, 180233, Control_c, 0, 64, 0
4, 180480, Control_c, 0, 64, 0
4, 180650, Control_c, 0, 64, 127
4, 181920, Control_c, 0, 64, 0
4, 182026, Control_c, 0, 64, 127
4, 183113, Control_c, 0, 64, 0
4, 183360, Control_c, 0, 64, 0
4, 183530, Control_c, 0, 64, 127
4, 184800, Control_c, 0, 64, 0
4, 184906, Control_c, 0, 64, 127
4, 185993, Control_c, 0, 64, 0
4, 186240, Control_c, 0, 64, 0
4, 186410, Control_c, 0, 64, 127
4, 187680, Control_c, 0, 64, 0
4, 187786, Control_c, 0, 64, 127
4, 188873, Control_c, 0, 64, 0
4, 190560, Control_c, 0, 64, 0
4, 190730, Control_c, 0, 64, 127
4, 192000, Control_c, 0, 64, 0
4, 192240, Control_c, 0, 64, 127
4, 193193, Control_c, 0, 64, 0
4, 194880, Control_c, 0, 64, 0
4, 195050, Control_c, 0, 64, 127
4, 196320, Control_c, 0, 64, 0
4, 197760, Control_c, 0, 64, 0
4, 197930, Control_c, 0, 64, 127
4, 199254, Control_c, 0, 64, 0
4, 200287, Control_c, 0, 64, 127
4, 200656, Control_c, 0, 64, 0
4, 200796, Control_c, 0, 64, 127
4, 201132, Control_c, 0, 64, 0
4, 201283, Control_c, 0, 64, 127
4, 201618, Control_c, 0, 64, 0
4, 201713, Control_c, 0, 64, 127
4, 202091, Control_c, 0, 64, 0
4, 202172, Control_c, 0, 64, 127
4, 202571, Control_c, 0, 64, 0
4, 202694, Control_c, 0, 64, 127
4, 203053, Control_c, 0, 64, 0
4, 203139, Control_c, 0, 64, 127
4, 203532, Control_c, 0, 64, 0
4, 204057, Control_c, 0, 64, 127
4, 204495, Control_c, 0, 64, 0
4, 204664, Control_c, 0, 64, 127
4, 204976, Control_c, 0, 64, 0
4, 205052, Control_c, 0, 64, 127
4, 205452, Control_c, 0, 64, 0
4, 205546, Control_c, 0, 64, 127
4, 205929, Control_c, 0, 64, 0
4, 205987, Control_c, 0, 64, 127
4, 206417, Control_c, 0, 64, 0
4, 206548, Control_c, 0, 64, 127
4, 207371, Control_c, 0, 64, 0
4, 207883, Control_c, 0, 64, 127
4, 208330, Control_c, 0, 64, 0
4, 208440, Control_c, 0, 64, 127
4, 208811, Control_c, 0, 64, 0
4, 208920, Control_c, 0, 64, 127
4, 209293, Control_c, 0, 64, 0
4, 209414, Control_c, 0, 64, 127
4, 209773, Control_c, 0, 64, 0
4, 209859, Control_c, 0, 64, 127
4, 210252, Control_c, 0, 64, 0
4, 210339, Control_c, 0, 64, 127
4, 210735, Control_c, 0, 64, 0
4, 210847, Control_c, 0, 64, 127
4, 211214, Control_c, 0, 64, 0
4, 211299, Control_c, 0, 64, 127
4, 211680, Control_c, 0, 64, 0
4, 212224, Control_c, 0, 64, 127
4, 212652, Control_c, 0, 64, 0
4, 213191, Control_c, 0, 64, 127
4, 213608, Control_c, 0, 64, 0
4, 213920, Control_c, 0, 64, 127
4, 214097, Control_c, 0, 64, 0
4, 214400, Control_c, 0, 64, 127
4, 215040, Control_c, 0, 64, 0
4, 215647, Control_c, 0, 64, 127
4, 216016, Control_c, 0, 64, 0
4, 216156, Control_c, 0, 64, 127
4, 216492, Control_c, 0, 64, 0
4, 216643, Control_c, 0, 64, 127
4, 216978, Control_c, 0, 64, 0
4, 217073, Control_c, 0, 64, 127
4, 217457, Control_c, 0, 64, 0
4, 217567, Control_c, 0, 64, 127
4, 217936, Control_c, 0, 64, 0
4, 218076, Control_c, 0, 64, 127
4, 218412, Control_c, 0, 64, 0
4, 218563, Control_c, 0, 64, 127
4, 218898, Control_c, 0, 64, 0
4, 218993, Control_c, 0, 64, 127
4, 219368, Control_c, 0, 64, 0
4, 219487, Control_c, 0, 64, 127
4, 219856, Control_c, 0, 64, 0
4, 219996, Control_c, 0, 64, 127
4, 220332, Control_c, 0, 64, 0
4, 220483, Control_c, 0, 64, 127
4, 220818, Control_c, 0, 64, 0
4, 220913, Control_c, 0, 64, 127
4, 221294, Control_c, 0, 64, 0
4, 221417, Control_c, 0, 64, 127
4, 221779, Control_c, 0, 64, 0
4, 221932, Control_c, 0, 64, 127
4, 222256, Control_c, 0, 64, 0
4, 222400, Control_c, 0, 64, 127
4, 222735, Control_c, 0, 64, 0
4, 222903, Control_c, 0, 64, 127
4, 223200, Control_c, 0, 64, 0
4, 223327, Control_c, 0, 64, 127
4, 223696, Control_c, 0, 64, 0
4, 223836, Control_c, 0, 64, 127
4, 224172, Control_c, 0, 64, 0
4, 224323, Control_c, 0, 64, 127
4, 224658, Control_c, 0, 64, 0
4, 224753, Control_c, 0, 64, 127
4, 225131, Control_c, 0, 64, 0
4, 225212, Control_c, 0, 64, 127
4, 225611, Control_c, 0, 64, 0
4, 225734, Control_c, 0, 64, 127
4, 226093, Control_c, 0, 64, 0
4, 226179, Control_c, 0, 64, 127
4, 226572, Control_c, 0, 64, 0
4, 227097, Control_c, 0, 64, 127
4, 227535, Control_c, 0, 64, 0
4, 227704, Control_c, 0, 64, 127
4, 228016, Control_c, 0, 64, 0
4, 228092, Control_c, 0, 64, 127
4, 228492, Control_c, 0, 64, 0
4, 228586, Control_c, 0, 64, 127
4, 228960, Control_c, 0, 64, 0
4, 229507, Control_c, 0, 64, 127
4, 230035, Control_c, 0, 64, 0
4, 230640, Control_c, 0, 64, 127
4, 232480, Control_c, 0, 64, 0
4, 232480, End_track
5, 0, Start_track
5, 0, Title_t, "Grieg: Lyric Pieces -  Once upon a time"
5, 0, End_track
6, 0, Start_track
6, 0, Title_t, "Copyright © 2010 by Bernd Krueger"
6, 0, End_track
7, 0, Start_track
7, 0, Title_t, "http://www.piano-midi.de/"
7, 0, End_track
8, 0, Start_track
8, 0, Title_t, "Edition:  2012-10-23"
8, 0, End_track
9, 0, Start_track
9, 0, Title_t, "Spur 8"
9, 0, End_track
10, 0, Start_track
10, 0, Title_t, "Spur 9"
10, 0, End_track
11, 0, Start_track
11, 0, Title_t, "Spur 10"
11, 0, End_track
12, 0, Start_track
12, 0, Title_t, "Spur 11"
12, 0, End_track
13, 0, Start_track
13, 0, Title_t, "Spur 12"
13, 0, End_track
14, 0, Start_track
14, 0, Title_t, "Spur 13"
14, 0, End_track
15, 0, Start_track
15, 0, Title_t, "Spur 14"
15, 0, End_track
16, 0, Start_track
16, 0, Title_t, "Spur 15"
16, 0, End_track
17, 0, Start_track
17, 0, Title_t, "Spur 16"
17, 0, End_track
0, 0, End_of_file
