0, 0, Header, 1, 17, 480
1, 0, Start_track
1, 0, Title_t, "Haydn: Klaviersonate Hob. XVI:9, 1. Satz"
1, 0, Title_t, "Divertimento"
1, 0, Copyright_t, "Copyright © 2011 by Bernd Krueger"
1, 0, Text_t, "Bernd Krueger"
1, 0, Text_t, "Allegro "
1, 0, Text_t, "Erstellt: 3.11.2011\012"
1, 0, Text_t, "Dauer: 2:24 Minuten\012"
1, 0, Time_signature, 4, 2, 24, 8
1, 0, Key_signature, -1, "major"
1, 0, Tempo, 426439
1, 0, Marker_t, "Teil 1"
1, 3360, Tempo, 443131
1, 3840, Tempo, 422833
1, 3859, Tempo, 410397
1, 3898, Tempo, 411805
1, 3917, Tempo, 413223
1, 3936, Tempo, 414651
1, 3955, Tempo, 416089
1, 3975, Tempo, 417537
1, 3994, Tempo, 418994
1, 4013, Tempo, 420463
1, 4032, Tempo, 421941
1, 4071, Tempo, 423430
1, 4090, Tempo, 424929
1, 4109, Tempo, 426439
1, 4128, Tempo, 427960
1, 4147, Tempo, 429492
1, 4167, Tempo, 431034
1, 4186, Tempo, 432588
1, 4205, Tempo, 434153
1, 4224, Tempo, 435730
1, 4243, Tempo, 435098
1, 4260, Tempo, 723764
1, 4320, Tempo, 424929
1, 4800, Tempo, 418994
1, 5280, Tempo, 420463
1, 5520, Tempo, 450450
1, 5760, Tempo, 406229
1, 5799, Tempo, 407609
1, 5818, Tempo, 408998
1, 5837, Tempo, 410397
1, 5856, Tempo, 411805
1, 5875, Tempo, 413223
1, 5895, Tempo, 414651
1, 5914, Tempo, 416089
1, 5933, Tempo, 417537
1, 5952, Tempo, 418994
1, 5991, Tempo, 420463
1, 6010, Tempo, 421941
1, 6029, Tempo, 423430
1, 6048, Tempo, 424929
1, 6067, Tempo, 426439
1, 6087, Tempo, 427960
1, 6106, Tempo, 429492
1, 6125, Tempo, 431034
1, 6144, Tempo, 432588
1, 6163, Tempo, 433526
1, 6180, Tempo, 723764
1, 6240, Tempo, 424328
1, 7260, Tempo, 431034
1, 7680, Tempo, 421941
1, 9562, Tempo, 460123
1, 9581, Tempo, 456621
1, 9600, Tempo, 454890
1, 9619, Tempo, 451467
1, 9639, Tempo, 448096
1, 9658, Tempo, 444774
1, 9677, Tempo, 443131
1, 9696, Tempo, 439883
1, 9715, Tempo, 436681
1, 9735, Tempo, 433526
1, 9754, Tempo, 430416
1, 9773, Tempo, 428878
1, 9792, Tempo, 425834
1, 9811, Tempo, 422833
1, 9831, Tempo, 419874
1, 9850, Tempo, 416956
1, 9869, Tempo, 414651
1, 9888, Tempo, 413223
1, 9907, Tempo, 411805
1, 9927, Tempo, 408998
1, 9946, Tempo, 411805
1, 10023, Tempo, 413223
1, 10080, Tempo, 414651
1, 10138, Tempo, 416089
1, 10215, Tempo, 417537
1, 10272, Tempo, 418994
1, 10330, Tempo, 420463
1, 10579, Tempo, 424929
1, 11040, Tempo, 431965
1, 11520, Tempo, 422833
1, 12480, Tempo, 407609
1, 12979, Tempo, 418994
1, 13440, Tempo, 395517
1, 13980, Tempo, 425834
1, 15120, Tempo, 442152
1, 15360, Tempo, 396825
1, 15840, Tempo, 424929
1, 16680, Tempo, 509771
1, 16800, Tempo, 423430
1, 17040, Tempo, 443787
1, 17280, Tempo, 438917
1, 17760, Tempo, 423430
1, 18221, Tempo, 459067
1, 18240, Tempo, 457317
1, 18259, Tempo, 453858
1, 18279, Tempo, 452148
1, 18290, Tempo, 455581
1, 18309, Tempo, 453858
1, 18329, Tempo, 450450
1, 18348, Tempo, 448766
1, 18367, Tempo, 445434
1, 18386, Tempo, 442152
1, 18405, Tempo, 440529
1, 18425, Tempo, 437318
1, 18444, Tempo, 434153
1, 18463, Tempo, 432588
1, 18482, Tempo, 429492
1, 18501, Tempo, 427960
1, 18521, Tempo, 424929
1, 18540, Tempo, 421941
1, 18559, Tempo, 420463
1, 18578, Tempo, 417537
1, 18597, Tempo, 414651
1, 18617, Tempo, 413223
1, 18636, Tempo, 410397
1, 18655, Tempo, 408998
1, 18674, Tempo, 406229
1, 18693, Tempo, 403497
1, 18713, Tempo, 402145
1, 18732, Tempo, 398142
1, 18770, Tempo, 399467
1, 18789, Tempo, 400802
1, 18809, Tempo, 402145
1, 18828, Tempo, 403497
1, 18866, Tempo, 404858
1, 18885, Tempo, 406229
1, 18905, Tempo, 407609
1, 18924, Tempo, 408998
1, 18989, Tempo, 418994
1, 19066, Tempo, 420463
1, 19143, Tempo, 421941
1, 19200, Tempo, 423430
1, 19680, Tempo, 429492
1, 20160, Tempo, 455581
1, 20400, Tempo, 443787
1, 20700, Tempo, 421941
1, 21120, Tempo, 523104
1, 21300, Tempo, 420463
1, 21600, Tempo, 406229
1, 21840, Tempo, 421941
1, 22080, Tempo, 418994
1, 22620, Tempo, 416089
1, 22800, Tempo, 424929
1, 23040, Tempo, 437318
1, 23280, Tempo, 426439
1, 23340, Tempo, 424929
1, 24000, Tempo, 424929
1, 24180, Tempo, 442152
1, 24480, Tempo, 421941
1, 24720, Tempo, 437318
1, 24960, Tempo, 493016
1, 25200, Tempo, 418994
1, 26400, Tempo, 402145
1, 26640, Tempo, 418994
1, 26880, Tempo, 427960
1, 27360, Tempo, 442152
1, 27600, Tempo, 459067
1, 28800, Tempo, 426439
1, 28800, Marker_t, "Teil 1 Wiederholung"
1, 29760, Tempo, 421941
1, 30600, Tempo, 440529
1, 30720, Tempo, 426439
1, 32160, Tempo, 443131
1, 32640, Tempo, 422833
1, 32659, Tempo, 410397
1, 32698, Tempo, 411805
1, 32717, Tempo, 413223
1, 32736, Tempo, 414651
1, 32755, Tempo, 416089
1, 32775, Tempo, 417537
1, 32794, Tempo, 418994
1, 32813, Tempo, 420463
1, 32832, Tempo, 421941
1, 32871, Tempo, 423430
1, 32890, Tempo, 424929
1, 32909, Tempo, 426439
1, 32928, Tempo, 427960
1, 32947, Tempo, 429492
1, 32967, Tempo, 431034
1, 32986, Tempo, 432588
1, 33005, Tempo, 434153
1, 33024, Tempo, 435730
1, 33043, Tempo, 435098
1, 33060, Tempo, 723764
1, 33120, Tempo, 424929
1, 33600, Tempo, 418994
1, 34080, Tempo, 420463
1, 34320, Tempo, 450450
1, 34560, Tempo, 406229
1, 34599, Tempo, 407609
1, 34618, Tempo, 408998
1, 34637, Tempo, 410397
1, 34656, Tempo, 411805
1, 34675, Tempo, 413223
1, 34695, Tempo, 414651
1, 34714, Tempo, 416089
1, 34733, Tempo, 417537
1, 34752, Tempo, 418994
1, 34791, Tempo, 420463
1, 34810, Tempo, 421941
1, 34829, Tempo, 423430
1, 34848, Tempo, 424929
1, 34867, Tempo, 426439
1, 34887, Tempo, 427960
1, 34906, Tempo, 429492
1, 34925, Tempo, 431034
1, 34944, Tempo, 432588
1, 34963, Tempo, 433526
1, 34980, Tempo, 723764
1, 35040, Tempo, 424328
1, 36060, Tempo, 431034
1, 36480, Tempo, 421941
1, 38362, Tempo, 460123
1, 38381, Tempo, 456621
1, 38400, Tempo, 454890
1, 38419, Tempo, 451467
1, 38439, Tempo, 448096
1, 38458, Tempo, 444774
1, 38477, Tempo, 443131
1, 38496, Tempo, 439883
1, 38515, Tempo, 436681
1, 38535, Tempo, 433526
1, 38554, Tempo, 430416
1, 38573, Tempo, 428878
1, 38592, Tempo, 425834
1, 38611, Tempo, 422833
1, 38631, Tempo, 419874
1, 38650, Tempo, 416956
1, 38669, Tempo, 414651
1, 38688, Tempo, 413223
1, 38707, Tempo, 411805
1, 38727, Tempo, 408998
1, 38746, Tempo, 411805
1, 38823, Tempo, 413223
1, 38880, Tempo, 414651
1, 38938, Tempo, 416089
1, 39015, Tempo, 417537
1, 39072, Tempo, 418994
1, 39130, Tempo, 420463
1, 39379, Tempo, 424929
1, 39840, Tempo, 431965
1, 40320, Tempo, 422833
1, 41280, Tempo, 407609
1, 41779, Tempo, 418994
1, 42240, Tempo, 395517
1, 42720, Tempo, 418994
1, 43920, Tempo, 442152
1, 44160, Tempo, 396825
1, 44640, Tempo, 420463
1, 45480, Tempo, 488998
1, 45600, Tempo, 423430
1, 45840, Tempo, 443787
1, 46080, Tempo, 438917
1, 46560, Tempo, 423430
1, 47021, Tempo, 459067
1, 47040, Tempo, 457317
1, 47059, Tempo, 453858
1, 47079, Tempo, 452148
1, 47090, Tempo, 455581
1, 47109, Tempo, 453858
1, 47129, Tempo, 450450
1, 47148, Tempo, 448766
1, 47167, Tempo, 445434
1, 47186, Tempo, 442152
1, 47205, Tempo, 440529
1, 47225, Tempo, 437318
1, 47244, Tempo, 434153
1, 47263, Tempo, 432588
1, 47282, Tempo, 429492
1, 47301, Tempo, 427960
1, 47321, Tempo, 424929
1, 47340, Tempo, 421941
1, 47359, Tempo, 420463
1, 47378, Tempo, 417537
1, 47397, Tempo, 414651
1, 47417, Tempo, 413223
1, 47436, Tempo, 410397
1, 47455, Tempo, 408998
1, 47474, Tempo, 406229
1, 47493, Tempo, 403497
1, 47513, Tempo, 402145
1, 47532, Tempo, 398142
1, 47570, Tempo, 399467
1, 47589, Tempo, 400802
1, 47609, Tempo, 402145
1, 47628, Tempo, 403497
1, 47666, Tempo, 404858
1, 47685, Tempo, 406229
1, 47705, Tempo, 407609
1, 47724, Tempo, 408998
1, 47789, Tempo, 418994
1, 47866, Tempo, 420463
1, 47943, Tempo, 421941
1, 48000, Tempo, 423430
1, 48480, Tempo, 429492
1, 48960, Tempo, 455581
1, 49200, Tempo, 443787
1, 49500, Tempo, 421941
1, 49920, Tempo, 523104
1, 50100, Tempo, 420463
1, 50400, Tempo, 413223
1, 50640, Tempo, 429492
1, 50880, Tempo, 418994
1, 51420, Tempo, 416089
1, 51600, Tempo, 417537
1, 51840, Tempo, 442152
1, 52080, Tempo, 426439
1, 52140, Tempo, 424929
1, 52800, Tempo, 424929
1, 52980, Tempo, 442152
1, 53280, Tempo, 421941
1, 53520, Tempo, 437318
1, 53760, Tempo, 468019
1, 54000, Tempo, 418994
1, 55200, Tempo, 402145
1, 55440, Tempo, 418994
1, 55680, Tempo, 427960
1, 56160, Tempo, 442152
1, 56400, Tempo, 459067
1, 57600, Tempo, 426439
1, 57600, Marker_t, "Teil 2"
1, 59520, Tempo, 448766
1, 60000, Tempo, 414651
1, 60480, Tempo, 431034
1, 60960, Tempo, 443131
1, 61440, Tempo, 426439
1, 63360, Tempo, 442152
1, 63840, Tempo, 416089
1, 64320, Tempo, 431034
1, 64800, Tempo, 443131
1, 65280, Tempo, 426439
1, 67200, Tempo, 442152
1, 67680, Tempo, 417537
1, 68160, Tempo, 431034
1, 68640, Tempo, 443131
1, 70080, Tempo, 418994
1, 70560, Tempo, 420463
1, 70800, Tempo, 450450
1, 71040, Tempo, 406229
1, 71079, Tempo, 407609
1, 71098, Tempo, 408998
1, 71117, Tempo, 410397
1, 71136, Tempo, 411805
1, 71155, Tempo, 413223
1, 71175, Tempo, 414651
1, 71194, Tempo, 416089
1, 71213, Tempo, 417537
1, 71232, Tempo, 418994
1, 71271, Tempo, 420463
1, 71290, Tempo, 421941
1, 71309, Tempo, 423430
1, 71328, Tempo, 424929
1, 71347, Tempo, 426439
1, 71367, Tempo, 427960
1, 71386, Tempo, 429492
1, 71405, Tempo, 431034
1, 71424, Tempo, 432588
1, 71443, Tempo, 433526
1, 71460, Tempo, 723764
1, 71520, Tempo, 424328
1, 72000, Tempo, 418994
1, 72480, Tempo, 420463
1, 72720, Tempo, 450450
1, 72960, Tempo, 406229
1, 72999, Tempo, 407609
1, 73018, Tempo, 408998
1, 73037, Tempo, 410397
1, 73056, Tempo, 411805
1, 73075, Tempo, 413223
1, 73095, Tempo, 414651
1, 73114, Tempo, 416089
1, 73133, Tempo, 417537
1, 73152, Tempo, 418994
1, 73191, Tempo, 420463
1, 73210, Tempo, 421941
1, 73229, Tempo, 423430
1, 73248, Tempo, 424929
1, 73267, Tempo, 426439
1, 73287, Tempo, 427960
1, 73306, Tempo, 429492
1, 73325, Tempo, 431034
1, 73344, Tempo, 432588
1, 73363, Tempo, 433526
1, 73380, Tempo, 723764
1, 73440, Tempo, 424328
1, 73920, Tempo, 455581
1, 74160, Tempo, 443787
1, 74460, Tempo, 421941
1, 74880, Tempo, 452148
1, 75060, Tempo, 420463
1, 75360, Tempo, 416089
1, 75600, Tempo, 437318
1, 75840, Tempo, 418994
1, 76380, Tempo, 416089
1, 76560, Tempo, 424929
1, 76800, Tempo, 452148
1, 76980, Tempo, 420463
1, 77280, Tempo, 416089
1, 77520, Tempo, 437318
1, 77760, Tempo, 418994
1, 78240, Tempo, 421941
1, 78480, Tempo, 435730
1, 78960, Tempo, 418994
1, 79200, Tempo, 410397
1, 80160, Tempo, 417537
1, 80400, Tempo, 418994
1, 80460, Tempo, 426439
1, 80520, Tempo, 426439
1, 80640, Tempo, 427960
1, 80700, Tempo, 418994
1, 80960, Tempo, 475436
1, 81120, Tempo, 445434
1, 81360, Tempo, 459067
1, 82560, Tempo, 421941
1, 83520, Tempo, 426439
1, 85920, Tempo, 443131
1, 86400, Tempo, 422833
1, 86419, Tempo, 410397
1, 86458, Tempo, 411805
1, 86477, Tempo, 413223
1, 86496, Tempo, 414651
1, 86515, Tempo, 416089
1, 86535, Tempo, 417537
1, 86554, Tempo, 418994
1, 86573, Tempo, 420463
1, 86592, Tempo, 421941
1, 86631, Tempo, 423430
1, 86650, Tempo, 424929
1, 86669, Tempo, 426439
1, 86688, Tempo, 427960
1, 86707, Tempo, 429492
1, 86727, Tempo, 431034
1, 86746, Tempo, 432588
1, 86765, Tempo, 434153
1, 86784, Tempo, 435730
1, 86803, Tempo, 435098
1, 86820, Tempo, 723764
1, 86880, Tempo, 424929
1, 87360, Tempo, 418994
1, 87840, Tempo, 420463
1, 88080, Tempo, 450450
1, 88320, Tempo, 406229
1, 88359, Tempo, 407609
1, 88378, Tempo, 408998
1, 88397, Tempo, 410397
1, 88416, Tempo, 411805
1, 88435, Tempo, 413223
1, 88455, Tempo, 414651
1, 88474, Tempo, 416089
1, 88493, Tempo, 417537
1, 88512, Tempo, 418994
1, 88551, Tempo, 420463
1, 88570, Tempo, 421941
1, 88589, Tempo, 423430
1, 88608, Tempo, 424929
1, 88627, Tempo, 426439
1, 88647, Tempo, 427960
1, 88666, Tempo, 429492
1, 88685, Tempo, 431034
1, 88704, Tempo, 432588
1, 88723, Tempo, 433526
1, 88740, Tempo, 723764
1, 88800, Tempo, 424328
1, 89820, Tempo, 431034
1, 90240, Tempo, 421941
1, 92122, Tempo, 460123
1, 92141, Tempo, 456621
1, 92160, Tempo, 454890
1, 92179, Tempo, 451467
1, 92199, Tempo, 448096
1, 92218, Tempo, 444774
1, 92237, Tempo, 443131
1, 92256, Tempo, 439883
1, 92275, Tempo, 436681
1, 92295, Tempo, 433526
1, 92314, Tempo, 430416
1, 92333, Tempo, 428878
1, 92352, Tempo, 425834
1, 92371, Tempo, 422833
1, 92391, Tempo, 419874
1, 92410, Tempo, 416956
1, 92429, Tempo, 414651
1, 92448, Tempo, 413223
1, 92467, Tempo, 411805
1, 92487, Tempo, 408998
1, 92506, Tempo, 411805
1, 92583, Tempo, 413223
1, 92640, Tempo, 414651
1, 92698, Tempo, 416089
1, 92775, Tempo, 417537
1, 92832, Tempo, 418994
1, 92890, Tempo, 420463
1, 93139, Tempo, 424929
1, 93480, Tempo, 483092
1, 93600, Tempo, 411805
1, 94080, Tempo, 395517
1, 94560, Tempo, 420463
1, 95760, Tempo, 442152
1, 96000, Tempo, 396825
1, 96480, Tempo, 420463
1, 97680, Tempo, 443787
1, 97920, Tempo, 438917
1, 98400, Tempo, 423430
1, 98861, Tempo, 459067
1, 98880, Tempo, 457317
1, 98899, Tempo, 453858
1, 98919, Tempo, 452148
1, 98930, Tempo, 455581
1, 98949, Tempo, 453858
1, 98969, Tempo, 450450
1, 98988, Tempo, 448766
1, 99007, Tempo, 445434
1, 99026, Tempo, 442152
1, 99045, Tempo, 440529
1, 99065, Tempo, 437318
1, 99084, Tempo, 434153
1, 99103, Tempo, 432588
1, 99122, Tempo, 429492
1, 99141, Tempo, 427960
1, 99161, Tempo, 424929
1, 99180, Tempo, 421941
1, 99199, Tempo, 420463
1, 99218, Tempo, 417537
1, 99237, Tempo, 414651
1, 99257, Tempo, 413223
1, 99276, Tempo, 410397
1, 99295, Tempo, 408998
1, 99314, Tempo, 406229
1, 99333, Tempo, 403497
1, 99353, Tempo, 402145
1, 99372, Tempo, 398142
1, 99410, Tempo, 399467
1, 99429, Tempo, 400802
1, 99449, Tempo, 402145
1, 99468, Tempo, 403497
1, 99506, Tempo, 404858
1, 99525, Tempo, 406229
1, 99545, Tempo, 407609
1, 99564, Tempo, 408998
1, 99629, Tempo, 418994
1, 99706, Tempo, 420463
1, 99783, Tempo, 421941
1, 99840, Tempo, 423430
1, 100320, Tempo, 429492
1, 100800, Tempo, 455581
1, 101040, Tempo, 443787
1, 101340, Tempo, 421941
1, 101760, Tempo, 523104
1, 101940, Tempo, 420463
1, 102240, Tempo, 394218
1, 102480, Tempo, 437318
1, 102720, Tempo, 418994
1, 103260, Tempo, 416089
1, 103440, Tempo, 421941
1, 103680, Tempo, 438917
1, 103920, Tempo, 426439
1, 103980, Tempo, 424929
1, 104640, Tempo, 424929
1, 104820, Tempo, 442152
1, 105120, Tempo, 421941
1, 105360, Tempo, 437318
1, 105600, Tempo, 493016
1, 105840, Tempo, 418994
1, 106560, Tempo, 432588
1, 107040, Tempo, 402145
1, 107280, Tempo, 475436
1, 107520, Tempo, 462606
1, 108480, Tempo, 438917
1, 109440, Tempo, 426439
1, 109440, Marker_t, "Teil 2 Wiederholung"
1, 111360, Tempo, 450450
1, 111840, Tempo, 417537
1, 112320, Tempo, 431034
1, 112800, Tempo, 443131
1, 113280, Tempo, 426439
1, 115200, Tempo, 442152
1, 115680, Tempo, 417537
1, 116160, Tempo, 431034
1, 116640, Tempo, 447094
1, 117120, Tempo, 426439
1, 119040, Tempo, 448766
1, 119520, Tempo, 417537
1, 120000, Tempo, 431034
1, 120480, Tempo, 443131
1, 121920, Tempo, 418994
1, 122400, Tempo, 420463
1, 122640, Tempo, 450450
1, 122880, Tempo, 406229
1, 122919, Tempo, 407609
1, 122938, Tempo, 408998
1, 122957, Tempo, 410397
1, 122976, Tempo, 411805
1, 122995, Tempo, 413223
1, 123015, Tempo, 414651
1, 123034, Tempo, 416089
1, 123053, Tempo, 417537
1, 123072, Tempo, 418994
1, 123111, Tempo, 420463
1, 123130, Tempo, 421941
1, 123149, Tempo, 423430
1, 123168, Tempo, 424929
1, 123187, Tempo, 426439
1, 123207, Tempo, 427960
1, 123226, Tempo, 429492
1, 123245, Tempo, 431034
1, 123264, Tempo, 432588
1, 123283, Tempo, 433526
1, 123300, Tempo, 723764
1, 123360, Tempo, 424328
1, 123840, Tempo, 418994
1, 124320, Tempo, 420463
1, 124560, Tempo, 450450
1, 124800, Tempo, 406229
1, 124839, Tempo, 407609
1, 124858, Tempo, 408998
1, 124877, Tempo, 410397
1, 124896, Tempo, 411805
1, 124915, Tempo, 413223
1, 124935, Tempo, 414651
1, 124954, Tempo, 416089
1, 124973, Tempo, 417537
1, 124992, Tempo, 418994
1, 125031, Tempo, 420463
1, 125050, Tempo, 421941
1, 125069, Tempo, 423430
1, 125088, Tempo, 424929
1, 125107, Tempo, 426439
1, 125127, Tempo, 427960
1, 125146, Tempo, 429492
1, 125165, Tempo, 431034
1, 125184, Tempo, 432588
1, 125203, Tempo, 433526
1, 125220, Tempo, 723764
1, 125280, Tempo, 424328
1, 125760, Tempo, 455581
1, 126000, Tempo, 443787
1, 126300, Tempo, 421941
1, 126720, Tempo, 452148
1, 126900, Tempo, 420463
1, 127200, Tempo, 416089
1, 127440, Tempo, 437318
1, 127680, Tempo, 418994
1, 128220, Tempo, 416089
1, 128400, Tempo, 424929
1, 128640, Tempo, 445434
1, 128820, Tempo, 420463
1, 129120, Tempo, 416089
1, 129360, Tempo, 437318
1, 129600, Tempo, 418994
1, 130140, Tempo, 416089
1, 130320, Tempo, 435730
1, 130800, Tempo, 418994
1, 131040, Tempo, 410397
1, 132000, Tempo, 417537
1, 132240, Tempo, 418994
1, 132300, Tempo, 426439
1, 132360, Tempo, 426439
1, 132480, Tempo, 427960
1, 132540, Tempo, 418994
1, 132800, Tempo, 475436
1, 132960, Tempo, 445434
1, 133200, Tempo, 459067
1, 134400, Tempo, 426439
1, 137760, Tempo, 443131
1, 138240, Tempo, 422833
1, 138259, Tempo, 410397
1, 138298, Tempo, 411805
1, 138317, Tempo, 413223
1, 138336, Tempo, 414651
1, 138355, Tempo, 416089
1, 138375, Tempo, 417537
1, 138394, Tempo, 418994
1, 138413, Tempo, 420463
1, 138432, Tempo, 421941
1, 138471, Tempo, 423430
1, 138490, Tempo, 424929
1, 138509, Tempo, 426439
1, 138528, Tempo, 427960
1, 138547, Tempo, 429492
1, 138567, Tempo, 431034
1, 138586, Tempo, 432588
1, 138605, Tempo, 434153
1, 138624, Tempo, 435730
1, 138643, Tempo, 435098
1, 138660, Tempo, 723764
1, 138720, Tempo, 424929
1, 139200, Tempo, 418994
1, 139680, Tempo, 420463
1, 139920, Tempo, 450450
1, 140160, Tempo, 406229
1, 140199, Tempo, 407609
1, 140218, Tempo, 408998
1, 140237, Tempo, 410397
1, 140256, Tempo, 411805
1, 140275, Tempo, 413223
1, 140295, Tempo, 414651
1, 140314, Tempo, 416089
1, 140333, Tempo, 417537
1, 140352, Tempo, 418994
1, 140391, Tempo, 420463
1, 140410, Tempo, 421941
1, 140429, Tempo, 423430
1, 140448, Tempo, 424929
1, 140467, Tempo, 426439
1, 140487, Tempo, 427960
1, 140506, Tempo, 429492
1, 140525, Tempo, 431034
1, 140544, Tempo, 432588
1, 140563, Tempo, 433526
1, 140580, Tempo, 723764
1, 140640, Tempo, 424328
1, 141660, Tempo, 431034
1, 142080, Tempo, 421941
1, 143962, Tempo, 460123
1, 143981, Tempo, 456621
1, 144000, Tempo, 454890
1, 144019, Tempo, 451467
1, 144039, Tempo, 448096
1, 144058, Tempo, 444774
1, 144077, Tempo, 443131
1, 144096, Tempo, 439883
1, 144115, Tempo, 436681
1, 144135, Tempo, 433526
1, 144154, Tempo, 430416
1, 144173, Tempo, 428878
1, 144192, Tempo, 425834
1, 144211, Tempo, 422833
1, 144231, Tempo, 419874
1, 144250, Tempo, 416956
1, 144269, Tempo, 414651
1, 144288, Tempo, 413223
1, 144307, Tempo, 411805
1, 144327, Tempo, 408998
1, 144346, Tempo, 411805
1, 144423, Tempo, 413223
1, 144480, Tempo, 414651
1, 144538, Tempo, 416089
1, 144615, Tempo, 417537
1, 144672, Tempo, 418994
1, 144730, Tempo, 420463
1, 144979, Tempo, 424929
1, 145320, Tempo, 483092
1, 145440, Tempo, 411805
1, 145920, Tempo, 395517
1, 146400, Tempo, 420463
1, 147360, Tempo, 417537
1, 147600, Tempo, 442152
1, 147840, Tempo, 396825
1, 148320, Tempo, 418994
1, 149280, Tempo, 413223
1, 149520, Tempo, 443787
1, 149760, Tempo, 438917
1, 150240, Tempo, 423430
1, 150701, Tempo, 459067
1, 150720, Tempo, 457317
1, 150739, Tempo, 453858
1, 150759, Tempo, 452148
1, 150770, Tempo, 455581
1, 150789, Tempo, 453858
1, 150809, Tempo, 450450
1, 150828, Tempo, 448766
1, 150847, Tempo, 445434
1, 150866, Tempo, 442152
1, 150885, Tempo, 440529
1, 150905, Tempo, 437318
1, 150924, Tempo, 434153
1, 150943, Tempo, 432588
1, 150962, Tempo, 429492
1, 150981, Tempo, 427960
1, 151001, Tempo, 424929
1, 151020, Tempo, 421941
1, 151039, Tempo, 420463
1, 151058, Tempo, 417537
1, 151077, Tempo, 414651
1, 151097, Tempo, 413223
1, 151116, Tempo, 410397
1, 151135, Tempo, 408998
1, 151154, Tempo, 406229
1, 151173, Tempo, 403497
1, 151193, Tempo, 402145
1, 151212, Tempo, 398142
1, 151250, Tempo, 399467
1, 151269, Tempo, 400802
1, 151289, Tempo, 402145
1, 151308, Tempo, 403497
1, 151346, Tempo, 404858
1, 151365, Tempo, 406229
1, 151385, Tempo, 407609
1, 151404, Tempo, 408998
1, 151469, Tempo, 418994
1, 151546, Tempo, 420463
1, 151623, Tempo, 421941
1, 151680, Tempo, 423430
1, 152160, Tempo, 429492
1, 152640, Tempo, 455581
1, 152880, Tempo, 443787
1, 153180, Tempo, 421941
1, 153600, Tempo, 523104
1, 153780, Tempo, 420463
1, 154080, Tempo, 394218
1, 154320, Tempo, 437318
1, 154560, Tempo, 418994
1, 155100, Tempo, 416089
1, 155280, Tempo, 421941
1, 155520, Tempo, 437318
1, 155760, Tempo, 426439
1, 155820, Tempo, 424929
1, 156480, Tempo, 424929
1, 156660, Tempo, 442152
1, 156960, Tempo, 421941
1, 157200, Tempo, 437318
1, 157440, Tempo, 493016
1, 157680, Tempo, 418994
1, 158400, Tempo, 473560
1, 158880, Tempo, 443787
1, 159120, Tempo, 567644
1, 159360, Tempo, 462606
1, 159360, End_track
2, 0, Start_track
2, 0, Title_t, "Piano right"
2, 0, Program_c, 0, 0
2, 0, Note_on_c, 0, 77, 66
2, 0, Note_on_c, 0, 72, 55
2, 0, Note_on_c, 0, 69, 55
2, 0, Note_on_c, 0, 65, 55
2, 960, Note_on_c, 0, 65, 0
2, 960, Note_on_c, 0, 77, 0
2, 960, Note_on_c, 0, 72, 0
2, 960, Note_on_c, 0, 69, 0
2, 960, Note_on_c, 0, 69, 50
2, 1320, Note_on_c, 0, 69, 0
2, 1320, Note_on_c, 0, 72, 45
2, 1440, Note_on_c, 0, 72, 0
2, 1440, Note_on_c, 0, 70, 50
2, 1800, Note_on_c, 0, 70, 0
2, 1800, Note_on_c, 0, 74, 45
2, 1920, Note_on_c, 0, 74, 0
2, 1920, Note_on_c, 0, 72, 50
2, 2400, Note_on_c, 0, 72, 0
2, 2400, Note_on_c, 0, 65, 46
2, 2640, Note_on_c, 0, 65, 0
2, 2880, Note_on_c, 0, 65, 46
2, 3120, Note_on_c, 0, 65, 0
2, 3360, Note_on_c, 0, 65, 46
2, 3600, Note_on_c, 0, 65, 0
2, 3840, Note_on_c, 0, 67, 45
2, 3920, Note_on_c, 0, 67, 0
2, 3920, Note_on_c, 0, 69, 41
2, 4000, Note_on_c, 0, 69, 0
2, 4000, Note_on_c, 0, 67, 45
2, 4080, Note_on_c, 0, 67, 0
2, 4080, Note_on_c, 0, 69, 39
2, 4140, Note_on_c, 0, 69, 0
2, 4140, Note_on_c, 0, 67, 45
2, 4200, Note_on_c, 0, 67, 0
2, 4200, Note_on_c, 0, 69, 40
2, 4260, Note_on_c, 0, 69, 0
2, 4260, Note_on_c, 0, 67, 40
2, 4320, Note_on_c, 0, 67, 0
2, 4320, Note_on_c, 0, 65, 50
2, 4800, Note_on_c, 0, 65, 0
2, 4800, Note_on_c, 0, 72, 53
2, 5040, Note_on_c, 0, 72, 0
2, 5040, Note_on_c, 0, 69, 46
2, 5280, Note_on_c, 0, 69, 0
2, 5280, Note_on_c, 0, 67, 50
2, 5520, Note_on_c, 0, 67, 0
2, 5520, Note_on_c, 0, 65, 47
2, 5760, Note_on_c, 0, 65, 0
2, 5760, Note_on_c, 0, 67, 45
2, 5840, Note_on_c, 0, 67, 0
2, 5840, Note_on_c, 0, 69, 41
2, 5920, Note_on_c, 0, 69, 0
2, 5920, Note_on_c, 0, 67, 45
2, 6000, Note_on_c, 0, 67, 0
2, 6000, Note_on_c, 0, 69, 39
2, 6060, Note_on_c, 0, 69, 0
2, 6060, Note_on_c, 0, 67, 45
2, 6120, Note_on_c, 0, 67, 0
2, 6120, Note_on_c, 0, 69, 40
2, 6180, Note_on_c, 0, 69, 0
2, 6180, Note_on_c, 0, 67, 40
2, 6240, Note_on_c, 0, 67, 0
2, 6240, Note_on_c, 0, 65, 50
2, 6720, Note_on_c, 0, 65, 0
2, 7200, Note_on_c, 0, 72, 50
2, 7680, Note_on_c, 0, 72, 0
2, 7680, Note_on_c, 0, 74, 50
2, 8040, Note_on_c, 0, 74, 0
2, 8040, Note_on_c, 0, 77, 46
2, 8160, Note_on_c, 0, 77, 0
2, 8160, Note_on_c, 0, 76, 50
2, 8520, Note_on_c, 0, 76, 0
2, 8520, Note_on_c, 0, 74, 45
2, 8640, Note_on_c, 0, 74, 0
2, 8640, Note_on_c, 0, 72, 50
2, 9120, Note_on_c, 0, 72, 0
2, 9120, Note_on_c, 0, 77, 46
2, 9600, Note_on_c, 0, 77, 0
2, 9600, Note_on_c, 0, 70, 50
2, 9680, Note_on_c, 0, 70, 0
2, 9680, Note_on_c, 0, 72, 45
2, 9760, Note_on_c, 0, 72, 0
2, 9760, Note_on_c, 0, 70, 50
2, 9840, Note_on_c, 0, 70, 0
2, 9840, Note_on_c, 0, 72, 45
2, 9920, Note_on_c, 0, 72, 0
2, 9920, Note_on_c, 0, 70, 50
2, 10000, Note_on_c, 0, 70, 0
2, 10000, Note_on_c, 0, 72, 45
2, 10080, Note_on_c, 0, 72, 0
2, 10080, Note_on_c, 0, 70, 50
2, 10160, Note_on_c, 0, 70, 0
2, 10160, Note_on_c, 0, 72, 45
2, 10240, Note_on_c, 0, 72, 0
2, 10240, Note_on_c, 0, 70, 50
2, 10320, Note_on_c, 0, 70, 0
2, 10320, Note_on_c, 0, 72, 45
2, 10380, Note_on_c, 0, 72, 0
2, 10380, Note_on_c, 0, 70, 50
2, 10440, Note_on_c, 0, 70, 0
2, 10440, Note_on_c, 0, 72, 43
2, 10500, Note_on_c, 0, 72, 0
2, 10500, Note_on_c, 0, 70, 45
2, 10560, Note_on_c, 0, 70, 0
2, 10560, Note_on_c, 0, 69, 50
2, 11040, Note_on_c, 0, 69, 0
2, 11040, Note_on_c, 0, 72, 46
2, 11520, Note_on_c, 0, 72, 0
2, 11520, Note_on_c, 0, 74, 50
2, 11880, Note_on_c, 0, 74, 0
2, 11880, Note_on_c, 0, 77, 46
2, 12000, Note_on_c, 0, 77, 0
2, 12000, Note_on_c, 0, 76, 50
2, 12360, Note_on_c, 0, 76, 0
2, 12360, Note_on_c, 0, 74, 45
2, 12480, Note_on_c, 0, 74, 0
2, 12480, Note_on_c, 0, 72, 50
2, 12960, Note_on_c, 0, 72, 0
2, 12960, Note_on_c, 0, 81, 50
2, 13440, Note_on_c, 0, 81, 0
2, 13440, Note_on_c, 0, 79, 46
2, 13920, Note_on_c, 0, 79, 0
2, 13920, Note_on_c, 0, 72, 48
2, 13980, Note_on_c, 0, 72, 0
2, 13980, Note_on_c, 0, 74, 50
2, 14040, Note_on_c, 0, 74, 0
2, 14040, Note_on_c, 0, 76, 50
2, 14390, Note_on_c, 0, 76, 0
2, 14400, Note_on_c, 0, 76, 49
2, 14460, Note_on_c, 0, 76, 0
2, 14460, Note_on_c, 0, 77, 52
2, 14520, Note_on_c, 0, 77, 0
2, 14520, Note_on_c, 0, 79, 54
2, 14880, Note_on_c, 0, 79, 0
2, 14880, Note_on_c, 0, 77, 52
2, 14940, Note_on_c, 0, 77, 0
2, 14940, Note_on_c, 0, 79, 53
2, 15000, Note_on_c, 0, 79, 0
2, 15000, Note_on_c, 0, 81, 55
2, 15360, Note_on_c, 0, 81, 0
2, 15360, Note_on_c, 0, 79, 46
2, 15840, Note_on_c, 0, 79, 0
2, 15840, Note_on_c, 0, 72, 48
2, 15900, Note_on_c, 0, 72, 0
2, 15900, Note_on_c, 0, 74, 50
2, 15960, Note_on_c, 0, 74, 0
2, 15960, Note_on_c, 0, 76, 50
2, 16310, Note_on_c, 0, 76, 0
2, 16320, Note_on_c, 0, 76, 49
2, 16380, Note_on_c, 0, 76, 0
2, 16380, Note_on_c, 0, 77, 52
2, 16440, Note_on_c, 0, 77, 0
2, 16440, Note_on_c, 0, 79, 54
2, 16800, Note_on_c, 0, 79, 0
2, 16800, Note_on_c, 0, 84, 52
2, 16860, Note_on_c, 0, 84, 0
2, 16860, Note_on_c, 0, 83, 53
2, 16920, Note_on_c, 0, 83, 0
2, 16920, Note_on_c, 0, 81, 55
2, 17280, Note_on_c, 0, 81, 0
2, 17280, Note_on_c, 0, 79, 55
2, 17760, Note_on_c, 0, 79, 0
2, 17760, Note_on_c, 0, 77, 56
2, 17880, Note_on_c, 0, 77, 0
2, 17880, Note_on_c, 0, 76, 48
2, 18000, Note_on_c, 0, 76, 0
2, 18000, Note_on_c, 0, 74, 55
2, 18120, Note_on_c, 0, 74, 0
2, 18120, Note_on_c, 0, 72, 51
2, 18240, Note_on_c, 0, 72, 0
2, 18240, Note_on_c, 0, 74, 50
2, 18320, Note_on_c, 0, 74, 0
2, 18320, Note_on_c, 0, 76, 45
2, 18400, Note_on_c, 0, 76, 0
2, 18400, Note_on_c, 0, 74, 50
2, 18480, Note_on_c, 0, 74, 0
2, 18480, Note_on_c, 0, 76, 45
2, 18560, Note_on_c, 0, 76, 0
2, 18560, Note_on_c, 0, 74, 50
2, 18640, Note_on_c, 0, 74, 0
2, 18640, Note_on_c, 0, 76, 45
2, 18720, Note_on_c, 0, 76, 0
2, 18720, Note_on_c, 0, 74, 50
2, 18800, Note_on_c, 0, 74, 0
2, 18800, Note_on_c, 0, 76, 45
2, 18880, Note_on_c, 0, 76, 0
2, 18880, Note_on_c, 0, 74, 50
2, 18960, Note_on_c, 0, 74, 0
2, 18960, Note_on_c, 0, 76, 45
2, 19020, Note_on_c, 0, 76, 0
2, 19020, Note_on_c, 0, 74, 50
2, 19080, Note_on_c, 0, 74, 0
2, 19080, Note_on_c, 0, 76, 43
2, 19140, Note_on_c, 0, 76, 0
2, 19140, Note_on_c, 0, 74, 45
2, 19200, Note_on_c, 0, 74, 0
2, 19200, Note_on_c, 0, 72, 59
2, 20160, Note_on_c, 0, 72, 0
2, 20400, Note_on_c, 0, 79, 56
2, 20640, Note_on_c, 0, 79, 0
2, 20640, Note_on_c, 0, 67, 50
2, 20880, Note_on_c, 0, 67, 0
2, 20880, Note_on_c, 0, 79, 56
2, 21120, Note_on_c, 0, 79, 0
2, 21120, Note_on_c, 0, 69, 59
2, 21360, Note_on_c, 0, 69, 0
2, 21360, Note_on_c, 0, 79, 53
2, 21600, Note_on_c, 0, 79, 0
2, 21600, Note_on_c, 0, 77, 51
2, 21840, Note_on_c, 0, 77, 0
2, 21840, Note_on_c, 0, 76, 54
2, 22080, Note_on_c, 0, 76, 0
2, 22080, Note_on_c, 0, 77, 59
2, 22320, Note_on_c, 0, 77, 0
2, 22320, Note_on_c, 0, 74, 54
2, 22560, Note_on_c, 0, 74, 0
2, 22560, Note_on_c, 0, 72, 54
2, 22800, Note_on_c, 0, 72, 0
2, 22800, Note_on_c, 0, 71, 46
2, 23040, Note_on_c, 0, 71, 0
2, 23040, Note_on_c, 0, 72, 54
2, 23280, Note_on_c, 0, 72, 0
2, 23280, Note_on_c, 0, 71, 46
2, 23520, Note_on_c, 0, 71, 0
2, 23520, Note_on_c, 0, 72, 55
2, 23760, Note_on_c, 0, 72, 0
2, 23760, Note_on_c, 0, 76, 49
2, 24000, Note_on_c, 0, 76, 0
2, 24000, Note_on_c, 0, 72, 51
2, 24240, Note_on_c, 0, 72, 0
2, 24240, Note_on_c, 0, 79, 59
2, 24480, Note_on_c, 0, 79, 0
2, 24480, Note_on_c, 0, 67, 54
2, 24720, Note_on_c, 0, 67, 0
2, 24720, Note_on_c, 0, 79, 54
2, 24960, Note_on_c, 0, 79, 0
2, 24960, Note_on_c, 0, 69, 56
2, 25200, Note_on_c, 0, 69, 0
2, 25200, Note_on_c, 0, 79, 53
2, 25440, Note_on_c, 0, 79, 0
2, 25440, Note_on_c, 0, 77, 59
2, 25680, Note_on_c, 0, 77, 0
2, 25680, Note_on_c, 0, 76, 53
2, 25920, Note_on_c, 0, 76, 0
2, 25920, Note_on_c, 0, 77, 57
2, 26160, Note_on_c, 0, 77, 0
2, 26160, Note_on_c, 0, 74, 54
2, 26400, Note_on_c, 0, 74, 0
2, 26400, Note_on_c, 0, 72, 54
2, 26480, Note_on_c, 0, 72, 0
2, 26480, Note_on_c, 0, 74, 48
2, 26560, Note_on_c, 0, 74, 0
2, 26560, Note_on_c, 0, 72, 48
2, 26640, Note_on_c, 0, 72, 0
2, 26640, Note_on_c, 0, 71, 57
2, 26880, Note_on_c, 0, 71, 0
2, 26880, Note_on_c, 0, 72, 63
2, 27840, Note_on_c, 0, 72, 0
2, 28800, Note_on_c, 0, 77, 66
2, 28800, Note_on_c, 0, 72, 55
2, 28800, Note_on_c, 0, 69, 55
2, 28800, Note_on_c, 0, 65, 55
2, 29760, Note_on_c, 0, 65, 0
2, 29760, Note_on_c, 0, 77, 0
2, 29760, Note_on_c, 0, 72, 0
2, 29760, Note_on_c, 0, 69, 0
2, 29760, Note_on_c, 0, 69, 50
2, 30120, Note_on_c, 0, 69, 0
2, 30120, Note_on_c, 0, 72, 45
2, 30240, Note_on_c, 0, 72, 0
2, 30240, Note_on_c, 0, 70, 50
2, 30600, Note_on_c, 0, 70, 0
2, 30600, Note_on_c, 0, 74, 45
2, 30720, Note_on_c, 0, 74, 0
2, 30720, Note_on_c, 0, 72, 50
2, 31200, Note_on_c, 0, 72, 0
2, 31200, Note_on_c, 0, 65, 46
2, 31440, Note_on_c, 0, 65, 0
2, 31680, Note_on_c, 0, 65, 46
2, 31920, Note_on_c, 0, 65, 0
2, 32160, Note_on_c, 0, 65, 46
2, 32400, Note_on_c, 0, 65, 0
2, 32640, Note_on_c, 0, 67, 45
2, 32720, Note_on_c, 0, 67, 0
2, 32720, Note_on_c, 0, 69, 41
2, 32800, Note_on_c, 0, 69, 0
2, 32800, Note_on_c, 0, 67, 45
2, 32880, Note_on_c, 0, 67, 0
2, 32880, Note_on_c, 0, 69, 39
2, 32940, Note_on_c, 0, 69, 0
2, 32940, Note_on_c, 0, 67, 45
2, 33000, Note_on_c, 0, 67, 0
2, 33000, Note_on_c, 0, 69, 40
2, 33060, Note_on_c, 0, 69, 0
2, 33060, Note_on_c, 0, 67, 40
2, 33120, Note_on_c, 0, 67, 0
2, 33120, Note_on_c, 0, 65, 50
2, 33600, Note_on_c, 0, 65, 0
2, 33600, Note_on_c, 0, 72, 53
2, 33840, Note_on_c, 0, 72, 0
2, 33840, Note_on_c, 0, 69, 46
2, 34080, Note_on_c, 0, 69, 0
2, 34080, Note_on_c, 0, 67, 50
2, 34320, Note_on_c, 0, 67, 0
2, 34320, Note_on_c, 0, 65, 47
2, 34560, Note_on_c, 0, 65, 0
2, 34560, Note_on_c, 0, 67, 45
2, 34640, Note_on_c, 0, 67, 0
2, 34640, Note_on_c, 0, 69, 41
2, 34720, Note_on_c, 0, 69, 0
2, 34720, Note_on_c, 0, 67, 45
2, 34800, Note_on_c, 0, 67, 0
2, 34800, Note_on_c, 0, 69, 39
2, 34860, Note_on_c, 0, 69, 0
2, 34860, Note_on_c, 0, 67, 45
2, 34920, Note_on_c, 0, 67, 0
2, 34920, Note_on_c, 0, 69, 40
2, 34980, Note_on_c, 0, 69, 0
2, 34980, Note_on_c, 0, 67, 40
2, 35040, Note_on_c, 0, 67, 0
2, 35040, Note_on_c, 0, 65, 50
2, 35520, Note_on_c, 0, 65, 0
2, 36000, Note_on_c, 0, 72, 50
2, 36480, Note_on_c, 0, 72, 0
2, 36480, Note_on_c, 0, 74, 50
2, 36840, Note_on_c, 0, 74, 0
2, 36840, Note_on_c, 0, 77, 46
2, 36960, Note_on_c, 0, 77, 0
2, 36960, Note_on_c, 0, 76, 50
2, 37320, Note_on_c, 0, 76, 0
2, 37320, Note_on_c, 0, 74, 45
2, 37440, Note_on_c, 0, 74, 0
2, 37440, Note_on_c, 0, 72, 50
2, 37920, Note_on_c, 0, 72, 0
2, 37920, Note_on_c, 0, 77, 46
2, 38400, Note_on_c, 0, 77, 0
2, 38400, Note_on_c, 0, 70, 50
2, 38480, Note_on_c, 0, 70, 0
2, 38480, Note_on_c, 0, 72, 45
2, 38560, Note_on_c, 0, 72, 0
2, 38560, Note_on_c, 0, 70, 50
2, 38640, Note_on_c, 0, 70, 0
2, 38640, Note_on_c, 0, 72, 45
2, 38720, Note_on_c, 0, 72, 0
2, 38720, Note_on_c, 0, 70, 50
2, 38800, Note_on_c, 0, 70, 0
2, 38800, Note_on_c, 0, 72, 45
2, 38880, Note_on_c, 0, 72, 0
2, 38880, Note_on_c, 0, 70, 50
2, 38960, Note_on_c, 0, 70, 0
2, 38960, Note_on_c, 0, 72, 45
2, 39040, Note_on_c, 0, 72, 0
2, 39040, Note_on_c, 0, 70, 50
2, 39120, Note_on_c, 0, 70, 0
2, 39120, Note_on_c, 0, 72, 45
2, 39180, Note_on_c, 0, 72, 0
2, 39180, Note_on_c, 0, 70, 50
2, 39240, Note_on_c, 0, 70, 0
2, 39240, Note_on_c, 0, 72, 43
2, 39300, Note_on_c, 0, 72, 0
2, 39300, Note_on_c, 0, 70, 45
2, 39360, Note_on_c, 0, 70, 0
2, 39360, Note_on_c, 0, 69, 50
2, 39840, Note_on_c, 0, 69, 0
2, 39840, Note_on_c, 0, 72, 46
2, 40320, Note_on_c, 0, 72, 0
2, 40320, Note_on_c, 0, 74, 50
2, 40680, Note_on_c, 0, 74, 0
2, 40680, Note_on_c, 0, 77, 46
2, 40800, Note_on_c, 0, 77, 0
2, 40800, Note_on_c, 0, 76, 50
2, 41160, Note_on_c, 0, 76, 0
2, 41160, Note_on_c, 0, 74, 45
2, 41280, Note_on_c, 0, 74, 0
2, 41280, Note_on_c, 0, 72, 50
2, 41760, Note_on_c, 0, 72, 0
2, 41760, Note_on_c, 0, 81, 50
2, 42240, Note_on_c, 0, 81, 0
2, 42240, Note_on_c, 0, 79, 46
2, 42720, Note_on_c, 0, 79, 0
2, 42720, Note_on_c, 0, 72, 48
2, 42780, Note_on_c, 0, 72, 0
2, 42780, Note_on_c, 0, 74, 50
2, 42840, Note_on_c, 0, 74, 0
2, 42840, Note_on_c, 0, 76, 50
2, 43190, Note_on_c, 0, 76, 0
2, 43200, Note_on_c, 0, 76, 49
2, 43260, Note_on_c, 0, 76, 0
2, 43260, Note_on_c, 0, 77, 52
2, 43320, Note_on_c, 0, 77, 0
2, 43320, Note_on_c, 0, 79, 54
2, 43680, Note_on_c, 0, 79, 0
2, 43680, Note_on_c, 0, 77, 52
2, 43740, Note_on_c, 0, 77, 0
2, 43740, Note_on_c, 0, 79, 53
2, 43800, Note_on_c, 0, 79, 0
2, 43800, Note_on_c, 0, 81, 55
2, 44160, Note_on_c, 0, 81, 0
2, 44160, Note_on_c, 0, 79, 46
2, 44640, Note_on_c, 0, 79, 0
2, 44640, Note_on_c, 0, 72, 48
2, 44700, Note_on_c, 0, 72, 0
2, 44700, Note_on_c, 0, 74, 50
2, 44760, Note_on_c, 0, 74, 0
2, 44760, Note_on_c, 0, 76, 50
2, 45110, Note_on_c, 0, 76, 0
2, 45120, Note_on_c, 0, 76, 49
2, 45180, Note_on_c, 0, 76, 0
2, 45180, Note_on_c, 0, 77, 52
2, 45240, Note_on_c, 0, 77, 0
2, 45240, Note_on_c, 0, 79, 54
2, 45600, Note_on_c, 0, 79, 0
2, 45600, Note_on_c, 0, 84, 52
2, 45660, Note_on_c, 0, 84, 0
2, 45660, Note_on_c, 0, 83, 53
2, 45720, Note_on_c, 0, 83, 0
2, 45720, Note_on_c, 0, 81, 55
2, 46080, Note_on_c, 0, 81, 0
2, 46080, Note_on_c, 0, 79, 55
2, 46560, Note_on_c, 0, 79, 0
2, 46560, Note_on_c, 0, 77, 56
2, 46680, Note_on_c, 0, 77, 0
2, 46680, Note_on_c, 0, 76, 48
2, 46800, Note_on_c, 0, 76, 0
2, 46800, Note_on_c, 0, 74, 55
2, 46920, Note_on_c, 0, 74, 0
2, 46920, Note_on_c, 0, 72, 51
2, 47040, Note_on_c, 0, 72, 0
2, 47040, Note_on_c, 0, 74, 50
2, 47120, Note_on_c, 0, 74, 0
2, 47120, Note_on_c, 0, 76, 45
2, 47200, Note_on_c, 0, 76, 0
2, 47200, Note_on_c, 0, 74, 50
2, 47280, Note_on_c, 0, 74, 0
2, 47280, Note_on_c, 0, 76, 45
2, 47360, Note_on_c, 0, 76, 0
2, 47360, Note_on_c, 0, 74, 50
2, 47440, Note_on_c, 0, 74, 0
2, 47440, Note_on_c, 0, 76, 45
2, 47520, Note_on_c, 0, 76, 0
2, 47520, Note_on_c, 0, 74, 50
2, 47600, Note_on_c, 0, 74, 0
2, 47600, Note_on_c, 0, 76, 45
2, 47680, Note_on_c, 0, 76, 0
2, 47680, Note_on_c, 0, 74, 50
2, 47760, Note_on_c, 0, 74, 0
2, 47760, Note_on_c, 0, 76, 45
2, 47820, Note_on_c, 0, 76, 0
2, 47820, Note_on_c, 0, 74, 50
2, 47880, Note_on_c, 0, 74, 0
2, 47880, Note_on_c, 0, 76, 43
2, 47940, Note_on_c, 0, 76, 0
2, 47940, Note_on_c, 0, 74, 45
2, 48000, Note_on_c, 0, 74, 0
2, 48000, Note_on_c, 0, 72, 59
2, 48960, Note_on_c, 0, 72, 0
2, 49200, Note_on_c, 0, 79, 56
2, 49440, Note_on_c, 0, 79, 0
2, 49440, Note_on_c, 0, 67, 50
2, 49680, Note_on_c, 0, 67, 0
2, 49680, Note_on_c, 0, 79, 56
2, 49920, Note_on_c, 0, 79, 0
2, 49920, Note_on_c, 0, 69, 59
2, 50160, Note_on_c, 0, 69, 0
2, 50160, Note_on_c, 0, 79, 53
2, 50400, Note_on_c, 0, 79, 0
2, 50400, Note_on_c, 0, 77, 51
2, 50640, Note_on_c, 0, 77, 0
2, 50640, Note_on_c, 0, 76, 54
2, 50880, Note_on_c, 0, 76, 0
2, 50880, Note_on_c, 0, 77, 59
2, 51120, Note_on_c, 0, 77, 0
2, 51120, Note_on_c, 0, 74, 54
2, 51360, Note_on_c, 0, 74, 0
2, 51360, Note_on_c, 0, 72, 54
2, 51600, Note_on_c, 0, 72, 0
2, 51600, Note_on_c, 0, 71, 46
2, 51840, Note_on_c, 0, 71, 0
2, 51840, Note_on_c, 0, 72, 54
2, 52080, Note_on_c, 0, 72, 0
2, 52080, Note_on_c, 0, 71, 46
2, 52320, Note_on_c, 0, 71, 0
2, 52320, Note_on_c, 0, 72, 55
2, 52560, Note_on_c, 0, 72, 0
2, 52560, Note_on_c, 0, 76, 49
2, 52800, Note_on_c, 0, 76, 0
2, 52800, Note_on_c, 0, 72, 51
2, 53040, Note_on_c, 0, 72, 0
2, 53040, Note_on_c, 0, 79, 59
2, 53280, Note_on_c, 0, 79, 0
2, 53280, Note_on_c, 0, 67, 54
2, 53520, Note_on_c, 0, 67, 0
2, 53520, Note_on_c, 0, 79, 54
2, 53760, Note_on_c, 0, 79, 0
2, 53760, Note_on_c, 0, 69, 56
2, 54000, Note_on_c, 0, 69, 0
2, 54000, Note_on_c, 0, 79, 53
2, 54240, Note_on_c, 0, 79, 0
2, 54240, Note_on_c, 0, 77, 59
2, 54480, Note_on_c, 0, 77, 0
2, 54480, Note_on_c, 0, 76, 53
2, 54720, Note_on_c, 0, 76, 0
2, 54720, Note_on_c, 0, 77, 57
2, 54960, Note_on_c, 0, 77, 0
2, 54960, Note_on_c, 0, 74, 54
2, 55200, Note_on_c, 0, 74, 0
2, 55200, Note_on_c, 0, 72, 54
2, 55280, Note_on_c, 0, 72, 0
2, 55280, Note_on_c, 0, 74, 48
2, 55360, Note_on_c, 0, 74, 0
2, 55360, Note_on_c, 0, 72, 48
2, 55440, Note_on_c, 0, 72, 0
2, 55440, Note_on_c, 0, 71, 57
2, 55680, Note_on_c, 0, 71, 0
2, 55680, Note_on_c, 0, 72, 63
2, 56640, Note_on_c, 0, 72, 0
2, 57600, Note_on_c, 0, 72, 66
2, 57600, Note_on_c, 0, 67, 55
2, 57600, Note_on_c, 0, 64, 55
2, 58560, Note_on_c, 0, 64, 0
2, 58560, Note_on_c, 0, 67, 0
2, 58560, Note_on_c, 0, 72, 0
2, 58560, Note_on_c, 0, 64, 50
2, 58920, Note_on_c, 0, 64, 0
2, 58920, Note_on_c, 0, 67, 45
2, 59040, Note_on_c, 0, 67, 0
2, 59040, Note_on_c, 0, 65, 50
2, 59400, Note_on_c, 0, 65, 0
2, 59400, Note_on_c, 0, 69, 45
2, 59520, Note_on_c, 0, 69, 0
2, 59520, Note_on_c, 0, 67, 50
2, 60000, Note_on_c, 0, 67, 0
2, 60000, Note_on_c, 0, 70, 40
2, 60000, Note_on_c, 0, 79, 48
2, 60240, Note_on_c, 0, 79, 0
2, 60240, Note_on_c, 0, 70, 0
2, 60480, Note_on_c, 0, 70, 40
2, 60480, Note_on_c, 0, 79, 48
2, 60720, Note_on_c, 0, 79, 0
2, 60720, Note_on_c, 0, 70, 0
2, 60960, Note_on_c, 0, 67, 39
2, 60960, Note_on_c, 0, 70, 46
2, 61200, Note_on_c, 0, 70, 0
2, 61200, Note_on_c, 0, 67, 0
2, 61440, Note_on_c, 0, 69, 53
2, 61440, Note_on_c, 0, 65, 44
2, 62400, Note_on_c, 0, 65, 0
2, 62400, Note_on_c, 0, 69, 0
2, 62400, Note_on_c, 0, 65, 50
2, 62760, Note_on_c, 0, 65, 0
2, 62760, Note_on_c, 0, 69, 45
2, 62880, Note_on_c, 0, 69, 0
2, 62880, Note_on_c, 0, 67, 50
2, 63240, Note_on_c, 0, 67, 0
2, 63240, Note_on_c, 0, 70, 45
2, 63360, Note_on_c, 0, 70, 0
2, 63360, Note_on_c, 0, 69, 50
2, 63840, Note_on_c, 0, 69, 0
2, 63840, Note_on_c, 0, 69, 40
2, 63840, Note_on_c, 0, 77, 48
2, 64080, Note_on_c, 0, 77, 0
2, 64080, Note_on_c, 0, 69, 0
2, 64320, Note_on_c, 0, 69, 40
2, 64320, Note_on_c, 0, 77, 48
2, 64560, Note_on_c, 0, 77, 0
2, 64560, Note_on_c, 0, 69, 0
2, 64800, Note_on_c, 0, 69, 39
2, 64800, Note_on_c, 0, 72, 46
2, 65040, Note_on_c, 0, 72, 0
2, 65040, Note_on_c, 0, 69, 0
2, 65280, Note_on_c, 0, 70, 59
2, 65280, Note_on_c, 0, 67, 49
2, 66240, Note_on_c, 0, 67, 0
2, 66240, Note_on_c, 0, 70, 0
2, 66240, Note_on_c, 0, 67, 50
2, 66600, Note_on_c, 0, 67, 0
2, 66600, Note_on_c, 0, 70, 45
2, 66720, Note_on_c, 0, 70, 0
2, 66720, Note_on_c, 0, 69, 50
2, 67080, Note_on_c, 0, 69, 0
2, 67080, Note_on_c, 0, 72, 45
2, 67200, Note_on_c, 0, 72, 0
2, 67200, Note_on_c, 0, 70, 50
2, 67680, Note_on_c, 0, 70, 0
2, 67680, Note_on_c, 0, 79, 40
2, 67680, Note_on_c, 0, 82, 48
2, 67920, Note_on_c, 0, 82, 0
2, 67920, Note_on_c, 0, 79, 0
2, 68160, Note_on_c, 0, 79, 40
2, 68160, Note_on_c, 0, 82, 48
2, 68400, Note_on_c, 0, 82, 0
2, 68400, Note_on_c, 0, 79, 0
2, 68640, Note_on_c, 0, 67, 39
2, 68640, Note_on_c, 0, 70, 46
2, 68880, Note_on_c, 0, 70, 0
2, 68880, Note_on_c, 0, 67, 0
2, 69120, Note_on_c, 0, 65, 46
2, 69120, Note_on_c, 0, 69, 56
2, 70080, Note_on_c, 0, 69, 0
2, 70080, Note_on_c, 0, 65, 0
2, 70080, Note_on_c, 0, 84, 53
2, 70320, Note_on_c, 0, 84, 0
2, 70320, Note_on_c, 0, 81, 46
2, 70560, Note_on_c, 0, 81, 0
2, 70560, Note_on_c, 0, 79, 51
2, 70800, Note_on_c, 0, 79, 0
2, 70800, Note_on_c, 0, 77, 47
2, 71040, Note_on_c, 0, 77, 0
2, 71040, Note_on_c, 0, 79, 45
2, 71120, Note_on_c, 0, 79, 0
2, 71120, Note_on_c, 0, 81, 41
2, 71200, Note_on_c, 0, 81, 0
2, 71200, Note_on_c, 0, 79, 45
2, 71280, Note_on_c, 0, 79, 0
2, 71280, Note_on_c, 0, 81, 39
2, 71340, Note_on_c, 0, 81, 0
2, 71340, Note_on_c, 0, 79, 45
2, 71400, Note_on_c, 0, 79, 0
2, 71400, Note_on_c, 0, 81, 40
2, 71460, Note_on_c, 0, 81, 0
2, 71460, Note_on_c, 0, 79, 40
2, 71520, Note_on_c, 0, 79, 0
2, 71520, Note_on_c, 0, 77, 50
2, 72000, Note_on_c, 0, 77, 0
2, 72000, Note_on_c, 0, 84, 53
2, 72240, Note_on_c, 0, 84, 0
2, 72240, Note_on_c, 0, 81, 46
2, 72480, Note_on_c, 0, 81, 0
2, 72480, Note_on_c, 0, 79, 50
2, 72720, Note_on_c, 0, 79, 0
2, 72720, Note_on_c, 0, 77, 47
2, 72960, Note_on_c, 0, 77, 0
2, 72960, Note_on_c, 0, 79, 45
2, 73040, Note_on_c, 0, 79, 0
2, 73040, Note_on_c, 0, 81, 41
2, 73120, Note_on_c, 0, 81, 0
2, 73120, Note_on_c, 0, 79, 45
2, 73200, Note_on_c, 0, 79, 0
2, 73200, Note_on_c, 0, 81, 39
2, 73260, Note_on_c, 0, 81, 0
2, 73260, Note_on_c, 0, 79, 45
2, 73320, Note_on_c, 0, 79, 0
2, 73320, Note_on_c, 0, 81, 40
2, 73380, Note_on_c, 0, 81, 0
2, 73380, Note_on_c, 0, 79, 40
2, 73440, Note_on_c, 0, 79, 0
2, 73440, Note_on_c, 0, 77, 50
2, 73920, Note_on_c, 0, 77, 0
2, 73920, Note_on_c, 0, 72, 50
2, 74160, Note_on_c, 0, 72, 0
2, 74160, Note_on_c, 0, 84, 42
2, 74400, Note_on_c, 0, 84, 0
2, 74400, Note_on_c, 0, 72, 50
2, 74640, Note_on_c, 0, 72, 0
2, 74640, Note_on_c, 0, 84, 46
2, 74880, Note_on_c, 0, 84, 0
2, 74880, Note_on_c, 0, 74, 59
2, 75120, Note_on_c, 0, 74, 0
2, 75120, Note_on_c, 0, 84, 53
2, 75360, Note_on_c, 0, 84, 0
2, 75360, Note_on_c, 0, 82, 51
2, 75600, Note_on_c, 0, 82, 0
2, 75600, Note_on_c, 0, 81, 54
2, 75840, Note_on_c, 0, 81, 0
2, 75840, Note_on_c, 0, 82, 59
2, 76080, Note_on_c, 0, 82, 0
2, 76080, Note_on_c, 0, 74, 54
2, 76320, Note_on_c, 0, 74, 0
2, 76320, Note_on_c, 0, 82, 54
2, 76560, Note_on_c, 0, 82, 0
2, 76560, Note_on_c, 0, 74, 46
2, 76800, Note_on_c, 0, 74, 0
2, 76800, Note_on_c, 0, 82, 59
2, 77040, Note_on_c, 0, 82, 0
2, 77040, Note_on_c, 0, 72, 53
2, 77280, Note_on_c, 0, 72, 0
2, 77280, Note_on_c, 0, 79, 51
2, 77520, Note_on_c, 0, 79, 0
2, 77520, Note_on_c, 0, 82, 54
2, 77760, Note_on_c, 0, 82, 0
2, 77760, Note_on_c, 0, 81, 59
2, 78000, Note_on_c, 0, 81, 0
2, 78000, Note_on_c, 0, 77, 54
2, 78240, Note_on_c, 0, 77, 0
2, 78240, Note_on_c, 0, 76, 54
2, 78480, Note_on_c, 0, 76, 0
2, 78480, Note_on_c, 0, 77, 46
2, 78720, Note_on_c, 0, 77, 0
2, 78720, Note_on_c, 0, 74, 56
2, 79200, Note_on_c, 0, 74, 0
2, 79200, Note_on_c, 0, 82, 59
2, 79360, Note_on_c, 0, 82, 0
2, 79360, Note_on_c, 0, 81, 50
2, 79520, Note_on_c, 0, 81, 0
2, 79520, Note_on_c, 0, 79, 52
2, 79680, Note_on_c, 0, 79, 0
2, 79680, Note_on_c, 0, 82, 59
2, 79840, Note_on_c, 0, 82, 0
2, 79840, Note_on_c, 0, 81, 53
2, 80000, Note_on_c, 0, 81, 0
2, 80000, Note_on_c, 0, 79, 53
2, 80160, Note_on_c, 0, 79, 0
2, 80160, Note_on_c, 0, 81, 59
2, 80320, Note_on_c, 0, 81, 0
2, 80320, Note_on_c, 0, 79, 51
2, 80480, Note_on_c, 0, 79, 0
2, 80480, Note_on_c, 0, 77, 51
2, 80640, Note_on_c, 0, 77, 0
2, 80640, Note_on_c, 0, 76, 59
2, 80800, Note_on_c, 0, 76, 0
2, 80800, Note_on_c, 0, 77, 51
2, 80960, Note_on_c, 0, 77, 0
2, 80960, Note_on_c, 0, 79, 51
2, 81120, Note_on_c, 0, 79, 0
2, 81120, Note_on_c, 0, 72, 56
2, 81600, Note_on_c, 0, 72, 0
2, 82560, Note_on_c, 0, 77, 66
2, 82560, Note_on_c, 0, 72, 55
2, 82560, Note_on_c, 0, 69, 55
2, 82560, Note_on_c, 0, 65, 55
2, 83520, Note_on_c, 0, 65, 0
2, 83520, Note_on_c, 0, 77, 0
2, 83520, Note_on_c, 0, 72, 0
2, 83520, Note_on_c, 0, 69, 0
2, 83520, Note_on_c, 0, 69, 50
2, 83880, Note_on_c, 0, 69, 0
2, 83880, Note_on_c, 0, 72, 45
2, 84000, Note_on_c, 0, 72, 0
2, 84000, Note_on_c, 0, 70, 50
2, 84360, Note_on_c, 0, 70, 0
2, 84360, Note_on_c, 0, 74, 45
2, 84480, Note_on_c, 0, 74, 0
2, 84480, Note_on_c, 0, 72, 50
2, 84960, Note_on_c, 0, 72, 0
2, 84960, Note_on_c, 0, 65, 46
2, 85200, Note_on_c, 0, 65, 0
2, 85440, Note_on_c, 0, 65, 46
2, 85680, Note_on_c, 0, 65, 0
2, 85920, Note_on_c, 0, 65, 46
2, 86160, Note_on_c, 0, 65, 0
2, 86400, Note_on_c, 0, 67, 45
2, 86480, Note_on_c, 0, 67, 0
2, 86480, Note_on_c, 0, 69, 41
2, 86560, Note_on_c, 0, 69, 0
2, 86560, Note_on_c, 0, 67, 45
2, 86640, Note_on_c, 0, 67, 0
2, 86640, Note_on_c, 0, 69, 39
2, 86700, Note_on_c, 0, 69, 0
2, 86700, Note_on_c, 0, 67, 45
2, 86760, Note_on_c, 0, 67, 0
2, 86760, Note_on_c, 0, 69, 40
2, 86820, Note_on_c, 0, 69, 0
2, 86820, Note_on_c, 0, 67, 40
2, 86880, Note_on_c, 0, 67, 0
2, 86880, Note_on_c, 0, 65, 50
2, 87360, Note_on_c, 0, 65, 0
2, 87360, Note_on_c, 0, 72, 53
2, 87600, Note_on_c, 0, 72, 0
2, 87600, Note_on_c, 0, 69, 46
2, 87840, Note_on_c, 0, 69, 0
2, 87840, Note_on_c, 0, 67, 50
2, 88080, Note_on_c, 0, 67, 0
2, 88080, Note_on_c, 0, 65, 47
2, 88320, Note_on_c, 0, 65, 0
2, 88320, Note_on_c, 0, 67, 45
2, 88400, Note_on_c, 0, 67, 0
2, 88400, Note_on_c, 0, 69, 41
2, 88480, Note_on_c, 0, 69, 0
2, 88480, Note_on_c, 0, 67, 45
2, 88560, Note_on_c, 0, 67, 0
2, 88560, Note_on_c, 0, 69, 39
2, 88620, Note_on_c, 0, 69, 0
2, 88620, Note_on_c, 0, 67, 45
2, 88680, Note_on_c, 0, 67, 0
2, 88680, Note_on_c, 0, 69, 40
2, 88740, Note_on_c, 0, 69, 0
2, 88740, Note_on_c, 0, 67, 40
2, 88800, Note_on_c, 0, 67, 0
2, 88800, Note_on_c, 0, 65, 50
2, 89280, Note_on_c, 0, 65, 0
2, 89760, Note_on_c, 0, 72, 50
2, 90240, Note_on_c, 0, 72, 0
2, 90240, Note_on_c, 0, 74, 50
2, 90600, Note_on_c, 0, 74, 0
2, 90600, Note_on_c, 0, 77, 46
2, 90720, Note_on_c, 0, 77, 0
2, 90720, Note_on_c, 0, 76, 50
2, 91080, Note_on_c, 0, 76, 0
2, 91080, Note_on_c, 0, 74, 45
2, 91200, Note_on_c, 0, 74, 0
2, 91200, Note_on_c, 0, 72, 50
2, 91680, Note_on_c, 0, 72, 0
2, 91680, Note_on_c, 0, 77, 46
2, 92160, Note_on_c, 0, 77, 0
2, 92160, Note_on_c, 0, 70, 50
2, 92240, Note_on_c, 0, 70, 0
2, 92240, Note_on_c, 0, 72, 45
2, 92320, Note_on_c, 0, 72, 0
2, 92320, Note_on_c, 0, 70, 50
2, 92400, Note_on_c, 0, 70, 0
2, 92400, Note_on_c, 0, 72, 45
2, 92480, Note_on_c, 0, 72, 0
2, 92480, Note_on_c, 0, 70, 50
2, 92560, Note_on_c, 0, 70, 0
2, 92560, Note_on_c, 0, 72, 45
2, 92640, Note_on_c, 0, 72, 0
2, 92640, Note_on_c, 0, 70, 50
2, 92720, Note_on_c, 0, 70, 0
2, 92720, Note_on_c, 0, 72, 45
2, 92800, Note_on_c, 0, 72, 0
2, 92800, Note_on_c, 0, 70, 50
2, 92880, Note_on_c, 0, 70, 0
2, 92880, Note_on_c, 0, 72, 45
2, 92940, Note_on_c, 0, 72, 0
2, 92940, Note_on_c, 0, 70, 50
2, 93000, Note_on_c, 0, 70, 0
2, 93000, Note_on_c, 0, 72, 43
2, 93060, Note_on_c, 0, 72, 0
2, 93060, Note_on_c, 0, 70, 45
2, 93120, Note_on_c, 0, 70, 0
2, 93120, Note_on_c, 0, 69, 50
2, 93600, Note_on_c, 0, 69, 0
2, 93600, Note_on_c, 0, 77, 55
2, 93760, Note_on_c, 0, 77, 0
2, 93760, Note_on_c, 0, 76, 50
2, 93920, Note_on_c, 0, 76, 0
2, 93920, Note_on_c, 0, 74, 49
2, 94080, Note_on_c, 0, 74, 0
2, 94080, Note_on_c, 0, 72, 46
2, 94560, Note_on_c, 0, 72, 0
2, 94560, Note_on_c, 0, 65, 48
2, 94620, Note_on_c, 0, 65, 0
2, 94620, Note_on_c, 0, 67, 50
2, 94680, Note_on_c, 0, 67, 0
2, 94680, Note_on_c, 0, 69, 50
2, 95030, Note_on_c, 0, 69, 0
2, 95040, Note_on_c, 0, 69, 49
2, 95100, Note_on_c, 0, 69, 0
2, 95100, Note_on_c, 0, 70, 52
2, 95160, Note_on_c, 0, 70, 0
2, 95160, Note_on_c, 0, 72, 54
2, 95520, Note_on_c, 0, 72, 0
2, 95520, Note_on_c, 0, 70, 52
2, 95580, Note_on_c, 0, 70, 0
2, 95580, Note_on_c, 0, 72, 53
2, 95640, Note_on_c, 0, 72, 0
2, 95640, Note_on_c, 0, 74, 55
2, 96000, Note_on_c, 0, 74, 0
2, 96000, Note_on_c, 0, 72, 46
2, 96480, Note_on_c, 0, 72, 0
2, 96480, Note_on_c, 0, 72, 49
2, 96540, Note_on_c, 0, 72, 0
2, 96540, Note_on_c, 0, 74, 53
2, 96600, Note_on_c, 0, 74, 0
2, 96600, Note_on_c, 0, 76, 54
2, 96960, Note_on_c, 0, 76, 0
2, 96960, Note_on_c, 0, 77, 55
2, 97020, Note_on_c, 0, 77, 0
2, 97020, Note_on_c, 0, 79, 57
2, 97080, Note_on_c, 0, 79, 0
2, 97080, Note_on_c, 0, 81, 58
2, 97440, Note_on_c, 0, 81, 0
2, 97440, Note_on_c, 0, 82, 60
2, 97500, Note_on_c, 0, 82, 0
2, 97500, Note_on_c, 0, 84, 62
2, 97560, Note_on_c, 0, 84, 0
2, 97560, Note_on_c, 0, 86, 64
2, 97920, Note_on_c, 0, 86, 0
2, 97920, Note_on_c, 0, 84, 65
2, 98400, Note_on_c, 0, 84, 0
2, 98400, Note_on_c, 0, 82, 56
2, 98520, Note_on_c, 0, 82, 0
2, 98520, Note_on_c, 0, 81, 48
2, 98640, Note_on_c, 0, 81, 0
2, 98640, Note_on_c, 0, 79, 55
2, 98760, Note_on_c, 0, 79, 0
2, 98760, Note_on_c, 0, 77, 51
2, 98880, Note_on_c, 0, 77, 0
2, 98880, Note_on_c, 0, 79, 50
2, 98960, Note_on_c, 0, 79, 0
2, 98960, Note_on_c, 0, 81, 45
2, 99040, Note_on_c, 0, 81, 0
2, 99040, Note_on_c, 0, 79, 50
2, 99120, Note_on_c, 0, 79, 0
2, 99120, Note_on_c, 0, 81, 45
2, 99200, Note_on_c, 0, 81, 0
2, 99200, Note_on_c, 0, 79, 50
2, 99280, Note_on_c, 0, 79, 0
2, 99280, Note_on_c, 0, 81, 45
2, 99360, Note_on_c, 0, 81, 0
2, 99360, Note_on_c, 0, 79, 50
2, 99440, Note_on_c, 0, 79, 0
2, 99440, Note_on_c, 0, 81, 45
2, 99520, Note_on_c, 0, 81, 0
2, 99520, Note_on_c, 0, 79, 50
2, 99600, Note_on_c, 0, 79, 0
2, 99600, Note_on_c, 0, 81, 45
2, 99660, Note_on_c, 0, 81, 0
2, 99660, Note_on_c, 0, 79, 50
2, 99720, Note_on_c, 0, 79, 0
2, 99720, Note_on_c, 0, 81, 43
2, 99780, Note_on_c, 0, 81, 0
2, 99780, Note_on_c, 0, 79, 45
2, 99840, Note_on_c, 0, 79, 0
2, 99840, Note_on_c, 0, 77, 59
2, 100800, Note_on_c, 0, 77, 0
2, 101040, Note_on_c, 0, 84, 56
2, 101280, Note_on_c, 0, 84, 0
2, 101280, Note_on_c, 0, 72, 50
2, 101520, Note_on_c, 0, 72, 0
2, 101520, Note_on_c, 0, 84, 56
2, 101760, Note_on_c, 0, 84, 0
2, 101760, Note_on_c, 0, 74, 59
2, 102000, Note_on_c, 0, 74, 0
2, 102000, Note_on_c, 0, 84, 53
2, 102240, Note_on_c, 0, 84, 0
2, 102240, Note_on_c, 0, 82, 51
2, 102480, Note_on_c, 0, 82, 0
2, 102480, Note_on_c, 0, 81, 54
2, 102720, Note_on_c, 0, 81, 0
2, 102720, Note_on_c, 0, 82, 59
2, 102960, Note_on_c, 0, 82, 0
2, 102960, Note_on_c, 0, 79, 54
2, 103200, Note_on_c, 0, 79, 0
2, 103200, Note_on_c, 0, 77, 54
2, 103280, Note_on_c, 0, 77, 0
2, 103280, Note_on_c, 0, 79, 48
2, 103360, Note_on_c, 0, 79, 0
2, 103360, Note_on_c, 0, 77, 48
2, 103440, Note_on_c, 0, 77, 0
2, 103440, Note_on_c, 0, 76, 46
2, 103680, Note_on_c, 0, 76, 0
2, 103680, Note_on_c, 0, 77, 54
2, 103760, Note_on_c, 0, 77, 0
2, 103760, Note_on_c, 0, 79, 48
2, 103840, Note_on_c, 0, 79, 0
2, 103840, Note_on_c, 0, 77, 48
2, 103920, Note_on_c, 0, 77, 0
2, 103920, Note_on_c, 0, 76, 46
2, 104160, Note_on_c, 0, 76, 0
2, 104160, Note_on_c, 0, 77, 55
2, 104400, Note_on_c, 0, 77, 0
2, 104400, Note_on_c, 0, 81, 49
2, 104640, Note_on_c, 0, 81, 0
2, 104640, Note_on_c, 0, 77, 51
2, 104880, Note_on_c, 0, 77, 0
2, 104880, Note_on_c, 0, 84, 59
2, 105120, Note_on_c, 0, 84, 0
2, 105120, Note_on_c, 0, 72, 54
2, 105360, Note_on_c, 0, 72, 0
2, 105360, Note_on_c, 0, 84, 54
2, 105600, Note_on_c, 0, 84, 0
2, 105600, Note_on_c, 0, 74, 56
2, 105840, Note_on_c, 0, 74, 0
2, 105840, Note_on_c, 0, 84, 53
2, 106080, Note_on_c, 0, 84, 0
2, 106080, Note_on_c, 0, 82, 59
2, 106320, Note_on_c, 0, 82, 0
2, 106320, Note_on_c, 0, 81, 53
2, 106560, Note_on_c, 0, 81, 0
2, 106560, Note_on_c, 0, 82, 57
2, 106800, Note_on_c, 0, 82, 0
2, 106800, Note_on_c, 0, 79, 54
2, 107040, Note_on_c, 0, 79, 0
2, 107040, Note_on_c, 0, 77, 54
2, 107120, Note_on_c, 0, 77, 0
2, 107120, Note_on_c, 0, 79, 48
2, 107200, Note_on_c, 0, 79, 0
2, 107200, Note_on_c, 0, 77, 48
2, 107280, Note_on_c, 0, 77, 0
2, 107280, Note_on_c, 0, 76, 57
2, 107520, Note_on_c, 0, 76, 0
2, 107520, Note_on_c, 0, 77, 63
2, 108480, Note_on_c, 0, 77, 0
2, 109440, Note_on_c, 0, 72, 66
2, 109440, Note_on_c, 0, 67, 55
2, 109440, Note_on_c, 0, 64, 55
2, 110400, Note_on_c, 0, 64, 0
2, 110400, Note_on_c, 0, 67, 0
2, 110400, Note_on_c, 0, 72, 0
2, 110400, Note_on_c, 0, 64, 50
2, 110760, Note_on_c, 0, 64, 0
2, 110760, Note_on_c, 0, 67, 45
2, 110880, Note_on_c, 0, 67, 0
2, 110880, Note_on_c, 0, 65, 50
2, 111240, Note_on_c, 0, 65, 0
2, 111240, Note_on_c, 0, 69, 45
2, 111360, Note_on_c, 0, 69, 0
2, 111360, Note_on_c, 0, 67, 50
2, 111840, Note_on_c, 0, 67, 0
2, 111840, Note_on_c, 0, 70, 40
2, 111840, Note_on_c, 0, 79, 48
2, 112080, Note_on_c, 0, 79, 0
2, 112080, Note_on_c, 0, 70, 0
2, 112320, Note_on_c, 0, 70, 40
2, 112320, Note_on_c, 0, 79, 48
2, 112560, Note_on_c, 0, 79, 0
2, 112560, Note_on_c, 0, 70, 0
2, 112800, Note_on_c, 0, 67, 39
2, 112800, Note_on_c, 0, 70, 46
2, 113040, Note_on_c, 0, 70, 0
2, 113040, Note_on_c, 0, 67, 0
2, 113280, Note_on_c, 0, 69, 53
2, 113280, Note_on_c, 0, 65, 44
2, 114240, Note_on_c, 0, 65, 0
2, 114240, Note_on_c, 0, 69, 0
2, 114240, Note_on_c, 0, 65, 50
2, 114600, Note_on_c, 0, 65, 0
2, 114600, Note_on_c, 0, 69, 45
2, 114720, Note_on_c, 0, 69, 0
2, 114720, Note_on_c, 0, 67, 50
2, 115080, Note_on_c, 0, 67, 0
2, 115080, Note_on_c, 0, 70, 45
2, 115200, Note_on_c, 0, 70, 0
2, 115200, Note_on_c, 0, 69, 50
2, 115680, Note_on_c, 0, 69, 0
2, 115680, Note_on_c, 0, 69, 40
2, 115680, Note_on_c, 0, 77, 48
2, 115920, Note_on_c, 0, 77, 0
2, 115920, Note_on_c, 0, 69, 0
2, 116160, Note_on_c, 0, 69, 40
2, 116160, Note_on_c, 0, 77, 48
2, 116400, Note_on_c, 0, 77, 0
2, 116400, Note_on_c, 0, 69, 0
2, 116640, Note_on_c, 0, 69, 39
2, 116640, Note_on_c, 0, 72, 46
2, 116880, Note_on_c, 0, 72, 0
2, 116880, Note_on_c, 0, 69, 0
2, 117120, Note_on_c, 0, 70, 59
2, 117120, Note_on_c, 0, 67, 49
2, 118080, Note_on_c, 0, 67, 0
2, 118080, Note_on_c, 0, 70, 0
2, 118080, Note_on_c, 0, 67, 50
2, 118440, Note_on_c, 0, 67, 0
2, 118440, Note_on_c, 0, 70, 45
2, 118560, Note_on_c, 0, 70, 0
2, 118560, Note_on_c, 0, 69, 50
2, 118920, Note_on_c, 0, 69, 0
2, 118920, Note_on_c, 0, 72, 45
2, 119040, Note_on_c, 0, 72, 0
2, 119040, Note_on_c, 0, 70, 50
2, 119520, Note_on_c, 0, 70, 0
2, 119520, Note_on_c, 0, 79, 40
2, 119520, Note_on_c, 0, 82, 48
2, 119760, Note_on_c, 0, 82, 0
2, 119760, Note_on_c, 0, 79, 0
2, 120000, Note_on_c, 0, 79, 40
2, 120000, Note_on_c, 0, 82, 48
2, 120240, Note_on_c, 0, 82, 0
2, 120240, Note_on_c, 0, 79, 0
2, 120480, Note_on_c, 0, 67, 39
2, 120480, Note_on_c, 0, 70, 46
2, 120720, Note_on_c, 0, 70, 0
2, 120720, Note_on_c, 0, 67, 0
2, 120960, Note_on_c, 0, 65, 46
2, 120960, Note_on_c, 0, 69, 56
2, 121920, Note_on_c, 0, 69, 0
2, 121920, Note_on_c, 0, 65, 0
2, 121920, Note_on_c, 0, 84, 53
2, 122160, Note_on_c, 0, 84, 0
2, 122160, Note_on_c, 0, 81, 46
2, 122400, Note_on_c, 0, 81, 0
2, 122400, Note_on_c, 0, 79, 51
2, 122640, Note_on_c, 0, 79, 0
2, 122640, Note_on_c, 0, 77, 47
2, 122880, Note_on_c, 0, 77, 0
2, 122880, Note_on_c, 0, 79, 45
2, 122960, Note_on_c, 0, 79, 0
2, 122960, Note_on_c, 0, 81, 41
2, 123040, Note_on_c, 0, 81, 0
2, 123040, Note_on_c, 0, 79, 45
2, 123120, Note_on_c, 0, 79, 0
2, 123120, Note_on_c, 0, 81, 39
2, 123180, Note_on_c, 0, 81, 0
2, 123180, Note_on_c, 0, 79, 45
2, 123240, Note_on_c, 0, 79, 0
2, 123240, Note_on_c, 0, 81, 40
2, 123300, Note_on_c, 0, 81, 0
2, 123300, Note_on_c, 0, 79, 40
2, 123360, Note_on_c, 0, 79, 0
2, 123360, Note_on_c, 0, 77, 50
2, 123840, Note_on_c, 0, 77, 0
2, 123840, Note_on_c, 0, 84, 53
2, 124080, Note_on_c, 0, 84, 0
2, 124080, Note_on_c, 0, 81, 46
2, 124320, Note_on_c, 0, 81, 0
2, 124320, Note_on_c, 0, 79, 50
2, 124560, Note_on_c, 0, 79, 0
2, 124560, Note_on_c, 0, 77, 47
2, 124800, Note_on_c, 0, 77, 0
2, 124800, Note_on_c, 0, 79, 45
2, 124880, Note_on_c, 0, 79, 0
2, 124880, Note_on_c, 0, 81, 41
2, 124960, Note_on_c, 0, 81, 0
2, 124960, Note_on_c, 0, 79, 45
2, 125040, Note_on_c, 0, 79, 0
2, 125040, Note_on_c, 0, 81, 39
2, 125100, Note_on_c, 0, 81, 0
2, 125100, Note_on_c, 0, 79, 45
2, 125160, Note_on_c, 0, 79, 0
2, 125160, Note_on_c, 0, 81, 40
2, 125220, Note_on_c, 0, 81, 0
2, 125220, Note_on_c, 0, 79, 40
2, 125280, Note_on_c, 0, 79, 0
2, 125280, Note_on_c, 0, 77, 50
2, 125760, Note_on_c, 0, 77, 0
2, 125760, Note_on_c, 0, 72, 50
2, 126000, Note_on_c, 0, 72, 0
2, 126000, Note_on_c, 0, 84, 42
2, 126240, Note_on_c, 0, 84, 0
2, 126240, Note_on_c, 0, 72, 50
2, 126480, Note_on_c, 0, 72, 0
2, 126480, Note_on_c, 0, 84, 46
2, 126720, Note_on_c, 0, 84, 0
2, 126720, Note_on_c, 0, 74, 59
2, 126960, Note_on_c, 0, 74, 0
2, 126960, Note_on_c, 0, 84, 53
2, 127200, Note_on_c, 0, 84, 0
2, 127200, Note_on_c, 0, 82, 51
2, 127440, Note_on_c, 0, 82, 0
2, 127440, Note_on_c, 0, 81, 54
2, 127680, Note_on_c, 0, 81, 0
2, 127680, Note_on_c, 0, 82, 59
2, 127920, Note_on_c, 0, 82, 0
2, 127920, Note_on_c, 0, 74, 54
2, 128160, Note_on_c, 0, 74, 0
2, 128160, Note_on_c, 0, 82, 54
2, 128400, Note_on_c, 0, 82, 0
2, 128400, Note_on_c, 0, 74, 46
2, 128640, Note_on_c, 0, 74, 0
2, 128640, Note_on_c, 0, 82, 59
2, 128880, Note_on_c, 0, 82, 0
2, 128880, Note_on_c, 0, 72, 53
2, 129120, Note_on_c, 0, 72, 0
2, 129120, Note_on_c, 0, 79, 51
2, 129360, Note_on_c, 0, 79, 0
2, 129360, Note_on_c, 0, 82, 54
2, 129600, Note_on_c, 0, 82, 0
2, 129600, Note_on_c, 0, 81, 59
2, 129840, Note_on_c, 0, 81, 0
2, 129840, Note_on_c, 0, 77, 54
2, 130080, Note_on_c, 0, 77, 0
2, 130080, Note_on_c, 0, 76, 54
2, 130320, Note_on_c, 0, 76, 0
2, 130320, Note_on_c, 0, 77, 46
2, 130560, Note_on_c, 0, 77, 0
2, 130560, Note_on_c, 0, 74, 56
2, 131040, Note_on_c, 0, 74, 0
2, 131040, Note_on_c, 0, 82, 59
2, 131200, Note_on_c, 0, 82, 0
2, 131200, Note_on_c, 0, 81, 50
2, 131360, Note_on_c, 0, 81, 0
2, 131360, Note_on_c, 0, 79, 52
2, 131520, Note_on_c, 0, 79, 0
2, 131520, Note_on_c, 0, 82, 59
2, 131680, Note_on_c, 0, 82, 0
2, 131680, Note_on_c, 0, 81, 53
2, 131840, Note_on_c, 0, 81, 0
2, 131840, Note_on_c, 0, 79, 53
2, 132000, Note_on_c, 0, 79, 0
2, 132000, Note_on_c, 0, 81, 59
2, 132160, Note_on_c, 0, 81, 0
2, 132160, Note_on_c, 0, 79, 51
2, 132320, Note_on_c, 0, 79, 0
2, 132320, Note_on_c, 0, 77, 51
2, 132480, Note_on_c, 0, 77, 0
2, 132480, Note_on_c, 0, 76, 59
2, 132640, Note_on_c, 0, 76, 0
2, 132640, Note_on_c, 0, 77, 51
2, 132800, Note_on_c, 0, 77, 0
2, 132800, Note_on_c, 0, 79, 51
2, 132960, Note_on_c, 0, 79, 0
2, 132960, Note_on_c, 0, 72, 56
2, 133440, Note_on_c, 0, 72, 0
2, 134400, Note_on_c, 0, 77, 66
2, 134400, Note_on_c, 0, 72, 55
2, 134400, Note_on_c, 0, 69, 55
2, 134400, Note_on_c, 0, 65, 55
2, 135360, Note_on_c, 0, 65, 0
2, 135360, Note_on_c, 0, 77, 0
2, 135360, Note_on_c, 0, 72, 0
2, 135360, Note_on_c, 0, 69, 0
2, 135360, Note_on_c, 0, 69, 50
2, 135720, Note_on_c, 0, 69, 0
2, 135720, Note_on_c, 0, 72, 45
2, 135840, Note_on_c, 0, 72, 0
2, 135840, Note_on_c, 0, 70, 50
2, 136200, Note_on_c, 0, 70, 0
2, 136200, Note_on_c, 0, 74, 45
2, 136320, Note_on_c, 0, 74, 0
2, 136320, Note_on_c, 0, 72, 50
2, 136800, Note_on_c, 0, 72, 0
2, 136800, Note_on_c, 0, 65, 46
2, 137040, Note_on_c, 0, 65, 0
2, 137280, Note_on_c, 0, 65, 46
2, 137520, Note_on_c, 0, 65, 0
2, 137760, Note_on_c, 0, 65, 46
2, 138000, Note_on_c, 0, 65, 0
2, 138240, Note_on_c, 0, 67, 45
2, 138320, Note_on_c, 0, 67, 0
2, 138320, Note_on_c, 0, 69, 41
2, 138400, Note_on_c, 0, 69, 0
2, 138400, Note_on_c, 0, 67, 45
2, 138480, Note_on_c, 0, 67, 0
2, 138480, Note_on_c, 0, 69, 39
2, 138540, Note_on_c, 0, 69, 0
2, 138540, Note_on_c, 0, 67, 45
2, 138600, Note_on_c, 0, 67, 0
2, 138600, Note_on_c, 0, 69, 40
2, 138660, Note_on_c, 0, 69, 0
2, 138660, Note_on_c, 0, 67, 40
2, 138720, Note_on_c, 0, 67, 0
2, 138720, Note_on_c, 0, 65, 50
2, 139200, Note_on_c, 0, 65, 0
2, 139200, Note_on_c, 0, 72, 53
2, 139440, Note_on_c, 0, 72, 0
2, 139440, Note_on_c, 0, 69, 46
2, 139680, Note_on_c, 0, 69, 0
2, 139680, Note_on_c, 0, 67, 50
2, 139920, Note_on_c, 0, 67, 0
2, 139920, Note_on_c, 0, 65, 47
2, 140160, Note_on_c, 0, 65, 0
2, 140160, Note_on_c, 0, 67, 45
2, 140240, Note_on_c, 0, 67, 0
2, 140240, Note_on_c, 0, 69, 41
2, 140320, Note_on_c, 0, 69, 0
2, 140320, Note_on_c, 0, 67, 45
2, 140400, Note_on_c, 0, 67, 0
2, 140400, Note_on_c, 0, 69, 39
2, 140460, Note_on_c, 0, 69, 0
2, 140460, Note_on_c, 0, 67, 45
2, 140520, Note_on_c, 0, 67, 0
2, 140520, Note_on_c, 0, 69, 40
2, 140580, Note_on_c, 0, 69, 0
2, 140580, Note_on_c, 0, 67, 40
2, 140640, Note_on_c, 0, 67, 0
2, 140640, Note_on_c, 0, 65, 50
2, 141120, Note_on_c, 0, 65, 0
2, 141600, Note_on_c, 0, 72, 50
2, 142080, Note_on_c, 0, 72, 0
2, 142080, Note_on_c, 0, 74, 50
2, 142440, Note_on_c, 0, 74, 0
2, 142440, Note_on_c, 0, 77, 46
2, 142560, Note_on_c, 0, 77, 0
2, 142560, Note_on_c, 0, 76, 50
2, 142920, Note_on_c, 0, 76, 0
2, 142920, Note_on_c, 0, 74, 45
2, 143040, Note_on_c, 0, 74, 0
2, 143040, Note_on_c, 0, 72, 50
2, 143520, Note_on_c, 0, 72, 0
2, 143520, Note_on_c, 0, 77, 46
2, 144000, Note_on_c, 0, 77, 0
2, 144000, Note_on_c, 0, 70, 50
2, 144080, Note_on_c, 0, 70, 0
2, 144080, Note_on_c, 0, 72, 45
2, 144160, Note_on_c, 0, 72, 0
2, 144160, Note_on_c, 0, 70, 50
2, 144240, Note_on_c, 0, 70, 0
2, 144240, Note_on_c, 0, 72, 45
2, 144320, Note_on_c, 0, 72, 0
2, 144320, Note_on_c, 0, 70, 50
2, 144400, Note_on_c, 0, 70, 0
2, 144400, Note_on_c, 0, 72, 45
2, 144480, Note_on_c, 0, 72, 0
2, 144480, Note_on_c, 0, 70, 50
2, 144560, Note_on_c, 0, 70, 0
2, 144560, Note_on_c, 0, 72, 45
2, 144640, Note_on_c, 0, 72, 0
2, 144640, Note_on_c, 0, 70, 50
2, 144720, Note_on_c, 0, 70, 0
2, 144720, Note_on_c, 0, 72, 45
2, 144780, Note_on_c, 0, 72, 0
2, 144780, Note_on_c, 0, 70, 50
2, 144840, Note_on_c, 0, 70, 0
2, 144840, Note_on_c, 0, 72, 43
2, 144900, Note_on_c, 0, 72, 0
2, 144900, Note_on_c, 0, 70, 45
2, 144960, Note_on_c, 0, 70, 0
2, 144960, Note_on_c, 0, 69, 50
2, 145440, Note_on_c, 0, 69, 0
2, 145440, Note_on_c, 0, 77, 55
2, 145600, Note_on_c, 0, 77, 0
2, 145600, Note_on_c, 0, 76, 50
2, 145760, Note_on_c, 0, 76, 0
2, 145760, Note_on_c, 0, 74, 49
2, 145920, Note_on_c, 0, 74, 0
2, 145920, Note_on_c, 0, 72, 46
2, 146400, Note_on_c, 0, 72, 0
2, 146400, Note_on_c, 0, 65, 48
2, 146460, Note_on_c, 0, 65, 0
2, 146460, Note_on_c, 0, 67, 50
2, 146520, Note_on_c, 0, 67, 0
2, 146520, Note_on_c, 0, 69, 50
2, 146870, Note_on_c, 0, 69, 0
2, 146880, Note_on_c, 0, 69, 49
2, 146940, Note_on_c, 0, 69, 0
2, 146940, Note_on_c, 0, 70, 52
2, 147000, Note_on_c, 0, 70, 0
2, 147000, Note_on_c, 0, 72, 54
2, 147360, Note_on_c, 0, 72, 0
2, 147360, Note_on_c, 0, 70, 52
2, 147420, Note_on_c, 0, 70, 0
2, 147420, Note_on_c, 0, 72, 53
2, 147480, Note_on_c, 0, 72, 0
2, 147480, Note_on_c, 0, 74, 55
2, 147840, Note_on_c, 0, 74, 0
2, 147840, Note_on_c, 0, 72, 46
2, 148320, Note_on_c, 0, 72, 0
2, 148320, Note_on_c, 0, 72, 49
2, 148380, Note_on_c, 0, 72, 0
2, 148380, Note_on_c, 0, 74, 53
2, 148440, Note_on_c, 0, 74, 0
2, 148440, Note_on_c, 0, 76, 54
2, 148800, Note_on_c, 0, 76, 0
2, 148800, Note_on_c, 0, 77, 55
2, 148860, Note_on_c, 0, 77, 0
2, 148860, Note_on_c, 0, 79, 57
2, 148920, Note_on_c, 0, 79, 0
2, 148920, Note_on_c, 0, 81, 58
2, 149280, Note_on_c, 0, 81, 0
2, 149280, Note_on_c, 0, 82, 60
2, 149340, Note_on_c, 0, 82, 0
2, 149340, Note_on_c, 0, 84, 62
2, 149400, Note_on_c, 0, 84, 0
2, 149400, Note_on_c, 0, 86, 64
2, 149760, Note_on_c, 0, 86, 0
2, 149760, Note_on_c, 0, 84, 65
2, 150240, Note_on_c, 0, 84, 0
2, 150240, Note_on_c, 0, 82, 56
2, 150360, Note_on_c, 0, 82, 0
2, 150360, Note_on_c, 0, 81, 48
2, 150480, Note_on_c, 0, 81, 0
2, 150480, Note_on_c, 0, 79, 55
2, 150600, Note_on_c, 0, 79, 0
2, 150600, Note_on_c, 0, 77, 51
2, 150720, Note_on_c, 0, 77, 0
2, 150720, Note_on_c, 0, 79, 50
2, 150800, Note_on_c, 0, 79, 0
2, 150800, Note_on_c, 0, 81, 45
2, 150880, Note_on_c, 0, 81, 0
2, 150880, Note_on_c, 0, 79, 50
2, 150960, Note_on_c, 0, 79, 0
2, 150960, Note_on_c, 0, 81, 45
2, 151040, Note_on_c, 0, 81, 0
2, 151040, Note_on_c, 0, 79, 50
2, 151120, Note_on_c, 0, 79, 0
2, 151120, Note_on_c, 0, 81, 45
2, 151200, Note_on_c, 0, 81, 0
2, 151200, Note_on_c, 0, 79, 50
2, 151280, Note_on_c, 0, 79, 0
2, 151280, Note_on_c, 0, 81, 45
2, 151360, Note_on_c, 0, 81, 0
2, 151360, Note_on_c, 0, 79, 50
2, 151440, Note_on_c, 0, 79, 0
2, 151440, Note_on_c, 0, 81, 45
2, 151500, Note_on_c, 0, 81, 0
2, 151500, Note_on_c, 0, 79, 50
2, 151560, Note_on_c, 0, 79, 0
2, 151560, Note_on_c, 0, 81, 43
2, 151620, Note_on_c, 0, 81, 0
2, 151620, Note_on_c, 0, 79, 45
2, 151680, Note_on_c, 0, 79, 0
2, 151680, Note_on_c, 0, 77, 59
2, 152640, Note_on_c, 0, 77, 0
2, 152880, Note_on_c, 0, 84, 56
2, 153120, Note_on_c, 0, 84, 0
2, 153120, Note_on_c, 0, 72, 50
2, 153360, Note_on_c, 0, 72, 0
2, 153360, Note_on_c, 0, 84, 56
2, 153600, Note_on_c, 0, 84, 0
2, 153600, Note_on_c, 0, 74, 59
2, 153840, Note_on_c, 0, 74, 0
2, 153840, Note_on_c, 0, 84, 53
2, 154080, Note_on_c, 0, 84, 0
2, 154080, Note_on_c, 0, 82, 51
2, 154320, Note_on_c, 0, 82, 0
2, 154320, Note_on_c, 0, 81, 54
2, 154560, Note_on_c, 0, 81, 0
2, 154560, Note_on_c, 0, 82, 59
2, 154800, Note_on_c, 0, 82, 0
2, 154800, Note_on_c, 0, 79, 54
2, 155040, Note_on_c, 0, 79, 0
2, 155040, Note_on_c, 0, 77, 54
2, 155120, Note_on_c, 0, 77, 0
2, 155120, Note_on_c, 0, 79, 48
2, 155200, Note_on_c, 0, 79, 0
2, 155200, Note_on_c, 0, 77, 48
2, 155280, Note_on_c, 0, 77, 0
2, 155280, Note_on_c, 0, 76, 46
2, 155520, Note_on_c, 0, 76, 0
2, 155520, Note_on_c, 0, 77, 54
2, 155600, Note_on_c, 0, 77, 0
2, 155600, Note_on_c, 0, 79, 48
2, 155680, Note_on_c, 0, 79, 0
2, 155680, Note_on_c, 0, 77, 48
2, 155760, Note_on_c, 0, 77, 0
2, 155760, Note_on_c, 0, 76, 46
2, 156000, Note_on_c, 0, 76, 0
2, 156000, Note_on_c, 0, 77, 55
2, 156240, Note_on_c, 0, 77, 0
2, 156240, Note_on_c, 0, 81, 49
2, 156480, Note_on_c, 0, 81, 0
2, 156480, Note_on_c, 0, 77, 51
2, 156720, Note_on_c, 0, 77, 0
2, 156720, Note_on_c, 0, 84, 59
2, 156960, Note_on_c, 0, 84, 0
2, 156960, Note_on_c, 0, 72, 54
2, 157200, Note_on_c, 0, 72, 0
2, 157200, Note_on_c, 0, 84, 54
2, 157440, Note_on_c, 0, 84, 0
2, 157440, Note_on_c, 0, 74, 56
2, 157680, Note_on_c, 0, 74, 0
2, 157680, Note_on_c, 0, 84, 53
2, 157920, Note_on_c, 0, 84, 0
2, 157920, Note_on_c, 0, 82, 59
2, 158160, Note_on_c, 0, 82, 0
2, 158160, Note_on_c, 0, 81, 53
2, 158400, Note_on_c, 0, 81, 0
2, 158400, Note_on_c, 0, 82, 57
2, 158640, Note_on_c, 0, 82, 0
2, 158640, Note_on_c, 0, 79, 54
2, 158880, Note_on_c, 0, 79, 0
2, 158880, Note_on_c, 0, 77, 54
2, 158960, Note_on_c, 0, 77, 0
2, 158960, Note_on_c, 0, 79, 48
2, 159040, Note_on_c, 0, 79, 0
2, 159040, Note_on_c, 0, 77, 48
2, 159120, Note_on_c, 0, 77, 0
2, 159120, Note_on_c, 0, 76, 57
2, 159360, Note_on_c, 0, 76, 0
2, 159360, Note_on_c, 0, 77, 63
2, 160320, Note_on_c, 0, 77, 0
2, 160320, End_track
3, 0, Start_track
3, 0, Title_t, "Piano left"
3, 0, Program_c, 0, 0
3, 0, Note_on_c, 0, 53, 45
3, 0, Note_on_c, 0, 41, 38
3, 960, Note_on_c, 0, 41, 0
3, 960, Note_on_c, 0, 53, 0
3, 960, Note_on_c, 0, 53, 41
3, 960, Note_on_c, 0, 41, 34
3, 1440, Note_on_c, 0, 41, 0
3, 1440, Note_on_c, 0, 53, 0
3, 1440, Note_on_c, 0, 55, 33
3, 1440, Note_on_c, 0, 43, 28
3, 1920, Note_on_c, 0, 43, 0
3, 1920, Note_on_c, 0, 55, 0
3, 1920, Note_on_c, 0, 57, 41
3, 1920, Note_on_c, 0, 45, 34
3, 2880, Note_on_c, 0, 45, 0
3, 2880, Note_on_c, 0, 57, 0
3, 3360, Note_on_c, 0, 57, 29
3, 3360, Note_on_c, 0, 60, 35
3, 3600, Note_on_c, 0, 60, 0
3, 3600, Note_on_c, 0, 57, 0
3, 3840, Note_on_c, 0, 62, 32
3, 3840, Note_on_c, 0, 58, 27
3, 4320, Note_on_c, 0, 58, 0
3, 4320, Note_on_c, 0, 62, 0
3, 4320, Note_on_c, 0, 57, 24
3, 4320, Note_on_c, 0, 60, 29
3, 4800, Note_on_c, 0, 60, 0
3, 4800, Note_on_c, 0, 57, 0
3, 5280, Note_on_c, 0, 60, 35
3, 5280, Note_on_c, 0, 57, 29
3, 5760, Note_on_c, 0, 57, 0
3, 5760, Note_on_c, 0, 60, 0
3, 5760, Note_on_c, 0, 62, 32
3, 5760, Note_on_c, 0, 58, 27
3, 6240, Note_on_c, 0, 58, 0
3, 6240, Note_on_c, 0, 62, 0
3, 6240, Note_on_c, 0, 57, 24
3, 6240, Note_on_c, 0, 60, 29
3, 6720, Note_on_c, 0, 60, 0
3, 6720, Note_on_c, 0, 57, 0
3, 7200, Note_on_c, 0, 69, 34
3, 7200, Note_on_c, 0, 65, 28
3, 7680, Note_on_c, 0, 65, 0
3, 7680, Note_on_c, 0, 69, 0
3, 7680, Note_on_c, 0, 70, 38
3, 7680, Note_on_c, 0, 65, 32
3, 8640, Note_on_c, 0, 65, 0
3, 8640, Note_on_c, 0, 70, 0
3, 8640, Note_on_c, 0, 65, 36
3, 8640, Note_on_c, 0, 69, 29
3, 9600, Note_on_c, 0, 69, 0
3, 9600, Note_on_c, 0, 65, 0
3, 9600, Note_on_c, 0, 67, 34
3, 10080, Note_on_c, 0, 67, 0
3, 10080, Note_on_c, 0, 60, 33
3, 10560, Note_on_c, 0, 60, 0
3, 10560, Note_on_c, 0, 65, 41
3, 11040, Note_on_c, 0, 65, 0
3, 11040, Note_on_c, 0, 65, 30
3, 11040, Note_on_c, 0, 69, 37
3, 11520, Note_on_c, 0, 69, 0
3, 11520, Note_on_c, 0, 65, 0
3, 11520, Note_on_c, 0, 70, 38
3, 11520, Note_on_c, 0, 65, 32
3, 12480, Note_on_c, 0, 65, 0
3, 12480, Note_on_c, 0, 70, 0
3, 12480, Note_on_c, 0, 65, 29
3, 12480, Note_on_c, 0, 69, 36
3, 12960, Note_on_c, 0, 69, 0
3, 12960, Note_on_c, 0, 65, 0
3, 12960, Note_on_c, 0, 53, 29
3, 12960, Note_on_c, 0, 65, 36
3, 13440, Note_on_c, 0, 65, 0
3, 13440, Note_on_c, 0, 53, 0
3, 13440, Note_on_c, 0, 64, 41
3, 13440, Note_on_c, 0, 52, 34
3, 14400, Note_on_c, 0, 52, 0
3, 14400, Note_on_c, 0, 64, 0
3, 14880, Note_on_c, 0, 65, 34
3, 14880, Note_on_c, 0, 53, 28
3, 15360, Note_on_c, 0, 53, 0
3, 15360, Note_on_c, 0, 65, 0
3, 15360, Note_on_c, 0, 64, 41
3, 15360, Note_on_c, 0, 52, 34
3, 16320, Note_on_c, 0, 52, 0
3, 16320, Note_on_c, 0, 64, 0
3, 16800, Note_on_c, 0, 65, 34
3, 16800, Note_on_c, 0, 53, 28
3, 17280, Note_on_c, 0, 53, 0
3, 17280, Note_on_c, 0, 65, 0
3, 17280, Note_on_c, 0, 64, 46
3, 17280, Note_on_c, 0, 52, 39
3, 17760, Note_on_c, 0, 52, 0
3, 17760, Note_on_c, 0, 64, 0
3, 17760, Note_on_c, 0, 65, 39
3, 17760, Note_on_c, 0, 53, 33
3, 18240, Note_on_c, 0, 53, 0
3, 18240, Note_on_c, 0, 65, 0
3, 18240, Note_on_c, 0, 67, 42
3, 18720, Note_on_c, 0, 67, 0
3, 18720, Note_on_c, 0, 55, 41
3, 19200, Note_on_c, 0, 55, 0
3, 19200, Note_on_c, 0, 60, 45
3, 19680, Note_on_c, 0, 60, 0
3, 19680, Note_on_c, 0, 55, 42
3, 19800, Note_on_c, 0, 55, 0
3, 20160, Note_on_c, 0, 48, 48
3, 20640, Note_on_c, 0, 48, 0
3, 20640, Note_on_c, 0, 40, 40
3, 20640, Note_on_c, 0, 52, 48
3, 21120, Note_on_c, 0, 52, 0
3, 21120, Note_on_c, 0, 40, 0
3, 21120, Note_on_c, 0, 41, 40
3, 21120, Note_on_c, 0, 53, 48
3, 21600, Note_on_c, 0, 53, 0
3, 21600, Note_on_c, 0, 41, 0
3, 22080, Note_on_c, 0, 53, 46
3, 22080, Note_on_c, 0, 41, 39
3, 22560, Note_on_c, 0, 41, 0
3, 22560, Note_on_c, 0, 53, 0
3, 22560, Note_on_c, 0, 55, 45
3, 22560, Note_on_c, 0, 43, 38
3, 23040, Note_on_c, 0, 43, 0
3, 23040, Note_on_c, 0, 55, 0
3, 23040, Note_on_c, 0, 45, 40
3, 23040, Note_on_c, 0, 57, 48
3, 24480, Note_on_c, 0, 57, 0
3, 24480, Note_on_c, 0, 45, 0
3, 24480, Note_on_c, 0, 52, 45
3, 24480, Note_on_c, 0, 40, 38
3, 24960, Note_on_c, 0, 40, 0
3, 24960, Note_on_c, 0, 52, 0
3, 24960, Note_on_c, 0, 41, 40
3, 24960, Note_on_c, 0, 53, 48
3, 26400, Note_on_c, 0, 53, 0
3, 26400, Note_on_c, 0, 41, 0
3, 26400, Note_on_c, 0, 55, 46
3, 26400, Note_on_c, 0, 43, 39
3, 26880, Note_on_c, 0, 43, 0
3, 26880, Note_on_c, 0, 55, 0
3, 26880, Note_on_c, 0, 48, 50
3, 27360, Note_on_c, 0, 48, 0
3, 27360, Note_on_c, 0, 43, 45
3, 27480, Note_on_c, 0, 43, 0
3, 27840, Note_on_c, 0, 36, 49
3, 28320, Note_on_c, 0, 36, 0
3, 28800, Note_on_c, 0, 53, 45
3, 28800, Note_on_c, 0, 41, 38
3, 29760, Note_on_c, 0, 41, 0
3, 29760, Note_on_c, 0, 53, 0
3, 29760, Note_on_c, 0, 53, 41
3, 29760, Note_on_c, 0, 41, 34
3, 30240, Note_on_c, 0, 41, 0
3, 30240, Note_on_c, 0, 53, 0
3, 30240, Note_on_c, 0, 55, 33
3, 30240, Note_on_c, 0, 43, 28
3, 30720, Note_on_c, 0, 43, 0
3, 30720, Note_on_c, 0, 55, 0
3, 30720, Note_on_c, 0, 57, 41
3, 30720, Note_on_c, 0, 45, 34
3, 31680, Note_on_c, 0, 45, 0
3, 31680, Note_on_c, 0, 57, 0
3, 32160, Note_on_c, 0, 57, 29
3, 32160, Note_on_c, 0, 60, 35
3, 32400, Note_on_c, 0, 60, 0
3, 32400, Note_on_c, 0, 57, 0
3, 32640, Note_on_c, 0, 62, 32
3, 32640, Note_on_c, 0, 58, 27
3, 33120, Note_on_c, 0, 58, 0
3, 33120, Note_on_c, 0, 62, 0
3, 33120, Note_on_c, 0, 57, 24
3, 33120, Note_on_c, 0, 60, 29
3, 33600, Note_on_c, 0, 60, 0
3, 33600, Note_on_c, 0, 57, 0
3, 34080, Note_on_c, 0, 60, 35
3, 34080, Note_on_c, 0, 57, 29
3, 34560, Note_on_c, 0, 57, 0
3, 34560, Note_on_c, 0, 60, 0
3, 34560, Note_on_c, 0, 62, 32
3, 34560, Note_on_c, 0, 58, 27
3, 35040, Note_on_c, 0, 58, 0
3, 35040, Note_on_c, 0, 62, 0
3, 35040, Note_on_c, 0, 57, 24
3, 35040, Note_on_c, 0, 60, 29
3, 35520, Note_on_c, 0, 60, 0
3, 35520, Note_on_c, 0, 57, 0
3, 36000, Note_on_c, 0, 69, 34
3, 36000, Note_on_c, 0, 65, 28
3, 36480, Note_on_c, 0, 65, 0
3, 36480, Note_on_c, 0, 69, 0
3, 36480, Note_on_c, 0, 70, 38
3, 36480, Note_on_c, 0, 65, 32
3, 37440, Note_on_c, 0, 65, 0
3, 37440, Note_on_c, 0, 70, 0
3, 37440, Note_on_c, 0, 65, 36
3, 37440, Note_on_c, 0, 69, 29
3, 38400, Note_on_c, 0, 69, 0
3, 38400, Note_on_c, 0, 65, 0
3, 38400, Note_on_c, 0, 67, 34
3, 38880, Note_on_c, 0, 67, 0
3, 38880, Note_on_c, 0, 60, 33
3, 39360, Note_on_c, 0, 60, 0
3, 39360, Note_on_c, 0, 65, 41
3, 39840, Note_on_c, 0, 65, 0
3, 39840, Note_on_c, 0, 65, 30
3, 39840, Note_on_c, 0, 69, 37
3, 40320, Note_on_c, 0, 69, 0
3, 40320, Note_on_c, 0, 65, 0
3, 40320, Note_on_c, 0, 70, 38
3, 40320, Note_on_c, 0, 65, 32
3, 41280, Note_on_c, 0, 65, 0
3, 41280, Note_on_c, 0, 70, 0
3, 41280, Note_on_c, 0, 65, 29
3, 41280, Note_on_c, 0, 69, 36
3, 41760, Note_on_c, 0, 69, 0
3, 41760, Note_on_c, 0, 65, 0
3, 41760, Note_on_c, 0, 53, 29
3, 41760, Note_on_c, 0, 65, 36
3, 42240, Note_on_c, 0, 65, 0
3, 42240, Note_on_c, 0, 53, 0
3, 42240, Note_on_c, 0, 64, 41
3, 42240, Note_on_c, 0, 52, 34
3, 43200, Note_on_c, 0, 52, 0
3, 43200, Note_on_c, 0, 64, 0
3, 43680, Note_on_c, 0, 65, 34
3, 43680, Note_on_c, 0, 53, 28
3, 44160, Note_on_c, 0, 53, 0
3, 44160, Note_on_c, 0, 65, 0
3, 44160, Note_on_c, 0, 64, 41
3, 44160, Note_on_c, 0, 52, 34
3, 45120, Note_on_c, 0, 52, 0
3, 45120, Note_on_c, 0, 64, 0
3, 45600, Note_on_c, 0, 65, 34
3, 45600, Note_on_c, 0, 53, 28
3, 46080, Note_on_c, 0, 53, 0
3, 46080, Note_on_c, 0, 65, 0
3, 46080, Note_on_c, 0, 64, 46
3, 46080, Note_on_c, 0, 52, 39
3, 46560, Note_on_c, 0, 52, 0
3, 46560, Note_on_c, 0, 64, 0
3, 46560, Note_on_c, 0, 65, 39
3, 46560, Note_on_c, 0, 53, 33
3, 47040, Note_on_c, 0, 53, 0
3, 47040, Note_on_c, 0, 65, 0
3, 47040, Note_on_c, 0, 67, 42
3, 47520, Note_on_c, 0, 67, 0
3, 47520, Note_on_c, 0, 55, 41
3, 48000, Note_on_c, 0, 55, 0
3, 48000, Note_on_c, 0, 60, 45
3, 48480, Note_on_c, 0, 60, 0
3, 48480, Note_on_c, 0, 55, 42
3, 48600, Note_on_c, 0, 55, 0
3, 48960, Note_on_c, 0, 48, 48
3, 49440, Note_on_c, 0, 48, 0
3, 49440, Note_on_c, 0, 40, 40
3, 49440, Note_on_c, 0, 52, 48
3, 49920, Note_on_c, 0, 52, 0
3, 49920, Note_on_c, 0, 40, 0
3, 49920, Note_on_c, 0, 41, 40
3, 49920, Note_on_c, 0, 53, 48
3, 50400, Note_on_c, 0, 53, 0
3, 50400, Note_on_c, 0, 41, 0
3, 50880, Note_on_c, 0, 53, 46
3, 50880, Note_on_c, 0, 41, 39
3, 51360, Note_on_c, 0, 41, 0
3, 51360, Note_on_c, 0, 53, 0
3, 51360, Note_on_c, 0, 55, 45
3, 51360, Note_on_c, 0, 43, 38
3, 51840, Note_on_c, 0, 43, 0
3, 51840, Note_on_c, 0, 55, 0
3, 51840, Note_on_c, 0, 45, 40
3, 51840, Note_on_c, 0, 57, 48
3, 53280, Note_on_c, 0, 57, 0
3, 53280, Note_on_c, 0, 45, 0
3, 53280, Note_on_c, 0, 52, 45
3, 53280, Note_on_c, 0, 40, 38
3, 53760, Note_on_c, 0, 40, 0
3, 53760, Note_on_c, 0, 52, 0
3, 53760, Note_on_c, 0, 41, 40
3, 53760, Note_on_c, 0, 53, 48
3, 55200, Note_on_c, 0, 53, 0
3, 55200, Note_on_c, 0, 41, 0
3, 55200, Note_on_c, 0, 55, 46
3, 55200, Note_on_c, 0, 43, 39
3, 55680, Note_on_c, 0, 43, 0
3, 55680, Note_on_c, 0, 55, 0
3, 55680, Note_on_c, 0, 48, 50
3, 56160, Note_on_c, 0, 48, 0
3, 56160, Note_on_c, 0, 43, 45
3, 56280, Note_on_c, 0, 43, 0
3, 56640, Note_on_c, 0, 36, 49
3, 57120, Note_on_c, 0, 36, 0
3, 57600, Note_on_c, 0, 48, 45
3, 57600, Note_on_c, 0, 36, 38
3, 58560, Note_on_c, 0, 36, 0
3, 58560, Note_on_c, 0, 48, 0
3, 58560, Note_on_c, 0, 60, 41
3, 59040, Note_on_c, 0, 60, 0
3, 59040, Note_on_c, 0, 62, 33
3, 59520, Note_on_c, 0, 62, 0
3, 59520, Note_on_c, 0, 64, 41
3, 60480, Note_on_c, 0, 64, 0
3, 61440, Note_on_c, 0, 48, 28
3, 61440, Note_on_c, 0, 36, 24
3, 62400, Note_on_c, 0, 36, 0
3, 62400, Note_on_c, 0, 48, 0
3, 62400, Note_on_c, 0, 62, 41
3, 62880, Note_on_c, 0, 62, 0
3, 62880, Note_on_c, 0, 64, 33
3, 63360, Note_on_c, 0, 64, 0
3, 63360, Note_on_c, 0, 65, 41
3, 64320, Note_on_c, 0, 65, 0
3, 65280, Note_on_c, 0, 48, 32
3, 65280, Note_on_c, 0, 36, 27
3, 66240, Note_on_c, 0, 36, 0
3, 66240, Note_on_c, 0, 48, 0
3, 66240, Note_on_c, 0, 64, 41
3, 66720, Note_on_c, 0, 64, 0
3, 66720, Note_on_c, 0, 65, 33
3, 67200, Note_on_c, 0, 65, 0
3, 67200, Note_on_c, 0, 67, 41
3, 68160, Note_on_c, 0, 67, 0
3, 69120, Note_on_c, 0, 41, 35
3, 70080, Note_on_c, 0, 41, 0
3, 70560, Note_on_c, 0, 60, 35
3, 70560, Note_on_c, 0, 57, 29
3, 71040, Note_on_c, 0, 57, 0
3, 71040, Note_on_c, 0, 60, 0
3, 71040, Note_on_c, 0, 62, 32
3, 71040, Note_on_c, 0, 58, 27
3, 71520, Note_on_c, 0, 58, 0
3, 71520, Note_on_c, 0, 62, 0
3, 71520, Note_on_c, 0, 57, 24
3, 71520, Note_on_c, 0, 60, 29
3, 72000, Note_on_c, 0, 60, 0
3, 72000, Note_on_c, 0, 57, 0
3, 72480, Note_on_c, 0, 60, 35
3, 72480, Note_on_c, 0, 57, 29
3, 72960, Note_on_c, 0, 57, 0
3, 72960, Note_on_c, 0, 60, 0
3, 72960, Note_on_c, 0, 62, 32
3, 72960, Note_on_c, 0, 58, 27
3, 73440, Note_on_c, 0, 58, 0
3, 73440, Note_on_c, 0, 62, 0
3, 73440, Note_on_c, 0, 57, 24
3, 73440, Note_on_c, 0, 60, 29
3, 73920, Note_on_c, 0, 60, 0
3, 73920, Note_on_c, 0, 57, 0
3, 74400, Note_on_c, 0, 45, 40
3, 74400, Note_on_c, 0, 57, 48
3, 74880, Note_on_c, 0, 57, 0
3, 74880, Note_on_c, 0, 45, 0
3, 74880, Note_on_c, 0, 46, 40
3, 74880, Note_on_c, 0, 58, 48
3, 75840, Note_on_c, 0, 58, 0
3, 75840, Note_on_c, 0, 46, 0
3, 75840, Note_on_c, 0, 55, 46
3, 75840, Note_on_c, 0, 43, 39
3, 76800, Note_on_c, 0, 43, 0
3, 76800, Note_on_c, 0, 55, 0
3, 76800, Note_on_c, 0, 40, 40
3, 76800, Note_on_c, 0, 52, 48
3, 77760, Note_on_c, 0, 52, 0
3, 77760, Note_on_c, 0, 40, 0
3, 77760, Note_on_c, 0, 41, 39
3, 77760, Note_on_c, 0, 53, 46
3, 78720, Note_on_c, 0, 53, 0
3, 78720, Note_on_c, 0, 41, 0
3, 78720, Note_on_c, 0, 58, 48
3, 78720, Note_on_c, 0, 46, 40
3, 80160, Note_on_c, 0, 46, 0
3, 80160, Note_on_c, 0, 58, 0
3, 80160, Note_on_c, 0, 59, 41
3, 80160, Note_on_c, 0, 47, 34
3, 80640, Note_on_c, 0, 47, 0
3, 80640, Note_on_c, 0, 59, 0
3, 80640, Note_on_c, 0, 48, 42
3, 80640, Note_on_c, 0, 60, 50
3, 81600, Note_on_c, 0, 60, 0
3, 81600, Note_on_c, 0, 48, 0
3, 82560, Note_on_c, 0, 53, 45
3, 82560, Note_on_c, 0, 41, 38
3, 83520, Note_on_c, 0, 41, 0
3, 83520, Note_on_c, 0, 53, 0
3, 83520, Note_on_c, 0, 53, 41
3, 83520, Note_on_c, 0, 41, 34
3, 84000, Note_on_c, 0, 41, 0
3, 84000, Note_on_c, 0, 53, 0
3, 84000, Note_on_c, 0, 55, 33
3, 84000, Note_on_c, 0, 43, 28
3, 84480, Note_on_c, 0, 43, 0
3, 84480, Note_on_c, 0, 55, 0
3, 84480, Note_on_c, 0, 57, 41
3, 84480, Note_on_c, 0, 45, 34
3, 85440, Note_on_c, 0, 45, 0
3, 85440, Note_on_c, 0, 57, 0
3, 85920, Note_on_c, 0, 57, 29
3, 85920, Note_on_c, 0, 60, 35
3, 86160, Note_on_c, 0, 60, 0
3, 86160, Note_on_c, 0, 57, 0
3, 86400, Note_on_c, 0, 62, 32
3, 86400, Note_on_c, 0, 58, 27
3, 86880, Note_on_c, 0, 58, 0
3, 86880, Note_on_c, 0, 62, 0
3, 86880, Note_on_c, 0, 57, 24
3, 86880, Note_on_c, 0, 60, 29
3, 87360, Note_on_c, 0, 60, 0
3, 87360, Note_on_c, 0, 57, 0
3, 87840, Note_on_c, 0, 60, 35
3, 87840, Note_on_c, 0, 57, 29
3, 88320, Note_on_c, 0, 57, 0
3, 88320, Note_on_c, 0, 60, 0
3, 88320, Note_on_c, 0, 62, 32
3, 88320, Note_on_c, 0, 58, 27
3, 88800, Note_on_c, 0, 58, 0
3, 88800, Note_on_c, 0, 62, 0
3, 88800, Note_on_c, 0, 57, 24
3, 88800, Note_on_c, 0, 60, 29
3, 89280, Note_on_c, 0, 60, 0
3, 89280, Note_on_c, 0, 57, 0
3, 89760, Note_on_c, 0, 69, 34
3, 89760, Note_on_c, 0, 65, 28
3, 90240, Note_on_c, 0, 65, 0
3, 90240, Note_on_c, 0, 69, 0
3, 90240, Note_on_c, 0, 70, 38
3, 90240, Note_on_c, 0, 65, 32
3, 91200, Note_on_c, 0, 65, 0
3, 91200, Note_on_c, 0, 70, 0
3, 91200, Note_on_c, 0, 65, 36
3, 91200, Note_on_c, 0, 69, 29
3, 92160, Note_on_c, 0, 69, 0
3, 92160, Note_on_c, 0, 65, 0
3, 92160, Note_on_c, 0, 67, 34
3, 92640, Note_on_c, 0, 67, 0
3, 92640, Note_on_c, 0, 60, 33
3, 93120, Note_on_c, 0, 60, 0
3, 93120, Note_on_c, 0, 65, 41
3, 93600, Note_on_c, 0, 65, 0
3, 93600, Note_on_c, 0, 70, 37
3, 94080, Note_on_c, 0, 70, 0
3, 94080, Note_on_c, 0, 69, 41
3, 94675, Note_on_c, 0, 69, 0
3, 95520, Note_on_c, 0, 58, 34
3, 95520, Note_on_c, 0, 46, 28
3, 96000, Note_on_c, 0, 46, 0
3, 96000, Note_on_c, 0, 58, 0
3, 96000, Note_on_c, 0, 57, 41
3, 96000, Note_on_c, 0, 45, 34
3, 96960, Note_on_c, 0, 45, 0
3, 96960, Note_on_c, 0, 57, 0
3, 97440, Note_on_c, 0, 58, 34
3, 97440, Note_on_c, 0, 46, 28
3, 97920, Note_on_c, 0, 46, 0
3, 97920, Note_on_c, 0, 58, 0
3, 97920, Note_on_c, 0, 57, 46
3, 97920, Note_on_c, 0, 45, 39
3, 98400, Note_on_c, 0, 45, 0
3, 98400, Note_on_c, 0, 57, 0
3, 98400, Note_on_c, 0, 58, 39
3, 98400, Note_on_c, 0, 46, 33
3, 98880, Note_on_c, 0, 46, 0
3, 98880, Note_on_c, 0, 58, 0
3, 98880, Note_on_c, 0, 60, 42
3, 99360, Note_on_c, 0, 60, 0
3, 99360, Note_on_c, 0, 48, 41
3, 99840, Note_on_c, 0, 48, 0
3, 99840, Note_on_c, 0, 53, 45
3, 100320, Note_on_c, 0, 53, 0
3, 100320, Note_on_c, 0, 48, 42
3, 100440, Note_on_c, 0, 48, 0
3, 100800, Note_on_c, 0, 41, 48
3, 101280, Note_on_c, 0, 41, 0
3, 101280, Note_on_c, 0, 45, 40
3, 101280, Note_on_c, 0, 57, 48
3, 101760, Note_on_c, 0, 57, 0
3, 101760, Note_on_c, 0, 45, 0
3, 101760, Note_on_c, 0, 46, 40
3, 101760, Note_on_c, 0, 58, 48
3, 103200, Note_on_c, 0, 58, 0
3, 103200, Note_on_c, 0, 46, 0
3, 103200, Note_on_c, 0, 60, 45
3, 103200, Note_on_c, 0, 48, 38
3, 103680, Note_on_c, 0, 48, 0
3, 103680, Note_on_c, 0, 60, 0
3, 103680, Note_on_c, 0, 50, 40
3, 103680, Note_on_c, 0, 62, 48
3, 104640, Note_on_c, 0, 62, 0
3, 104640, Note_on_c, 0, 50, 0
3, 105120, Note_on_c, 0, 45, 45
3, 105120, Note_on_c, 0, 33, 38
3, 105600, Note_on_c, 0, 33, 0
3, 105600, Note_on_c, 0, 45, 0
3, 105600, Note_on_c, 0, 34, 40
3, 105600, Note_on_c, 0, 46, 48
3, 106560, Note_on_c, 0, 46, 0
3, 106560, Note_on_c, 0, 34, 0
3, 106560, Note_on_c, 0, 36, 39
3, 106560, Note_on_c, 0, 48, 46
3, 107520, Note_on_c, 0, 48, 0
3, 107520, Note_on_c, 0, 36, 0
3, 107520, Note_on_c, 0, 29, 38
3, 107520, Note_on_c, 0, 41, 50
3, 108480, Note_on_c, 0, 41, 0
3, 108480, Note_on_c, 0, 29, 0
3, 109440, Note_on_c, 0, 48, 45
3, 109440, Note_on_c, 0, 36, 38
3, 110400, Note_on_c, 0, 36, 0
3, 110400, Note_on_c, 0, 48, 0
3, 110400, Note_on_c, 0, 60, 41
3, 110880, Note_on_c, 0, 60, 0
3, 110880, Note_on_c, 0, 62, 33
3, 111360, Note_on_c, 0, 62, 0
3, 111360, Note_on_c, 0, 64, 41
3, 112320, Note_on_c, 0, 64, 0
3, 113280, Note_on_c, 0, 48, 28
3, 113280, Note_on_c, 0, 36, 24
3, 114240, Note_on_c, 0, 36, 0
3, 114240, Note_on_c, 0, 48, 0
3, 114240, Note_on_c, 0, 62, 41
3, 114720, Note_on_c, 0, 62, 0
3, 114720, Note_on_c, 0, 64, 33
3, 115200, Note_on_c, 0, 64, 0
3, 115200, Note_on_c, 0, 65, 41
3, 116160, Note_on_c, 0, 65, 0
3, 117120, Note_on_c, 0, 48, 32
3, 117120, Note_on_c, 0, 36, 27
3, 118080, Note_on_c, 0, 36, 0
3, 118080, Note_on_c, 0, 48, 0
3, 118080, Note_on_c, 0, 64, 41
3, 118560, Note_on_c, 0, 64, 0
3, 118560, Note_on_c, 0, 65, 33
3, 119040, Note_on_c, 0, 65, 0
3, 119040, Note_on_c, 0, 67, 41
3, 120000, Note_on_c, 0, 67, 0
3, 120960, Note_on_c, 0, 41, 35
3, 121920, Note_on_c, 0, 41, 0
3, 122400, Note_on_c, 0, 60, 35
3, 122400, Note_on_c, 0, 57, 29
3, 122880, Note_on_c, 0, 57, 0
3, 122880, Note_on_c, 0, 60, 0
3, 122880, Note_on_c, 0, 62, 32
3, 122880, Note_on_c, 0, 58, 27
3, 123360, Note_on_c, 0, 58, 0
3, 123360, Note_on_c, 0, 62, 0
3, 123360, Note_on_c, 0, 57, 24
3, 123360, Note_on_c, 0, 60, 29
3, 123840, Note_on_c, 0, 60, 0
3, 123840, Note_on_c, 0, 57, 0
3, 124320, Note_on_c, 0, 60, 35
3, 124320, Note_on_c, 0, 57, 29
3, 124800, Note_on_c, 0, 57, 0
3, 124800, Note_on_c, 0, 60, 0
3, 124800, Note_on_c, 0, 62, 32
3, 124800, Note_on_c, 0, 58, 27
3, 125280, Note_on_c, 0, 58, 0
3, 125280, Note_on_c, 0, 62, 0
3, 125280, Note_on_c, 0, 57, 24
3, 125280, Note_on_c, 0, 60, 29
3, 125760, Note_on_c, 0, 60, 0
3, 125760, Note_on_c, 0, 57, 0
3, 126240, Note_on_c, 0, 45, 40
3, 126240, Note_on_c, 0, 57, 48
3, 126720, Note_on_c, 0, 57, 0
3, 126720, Note_on_c, 0, 45, 0
3, 126720, Note_on_c, 0, 46, 40
3, 126720, Note_on_c, 0, 58, 48
3, 127680, Note_on_c, 0, 58, 0
3, 127680, Note_on_c, 0, 46, 0
3, 127680, Note_on_c, 0, 55, 46
3, 127680, Note_on_c, 0, 43, 39
3, 128640, Note_on_c, 0, 43, 0
3, 128640, Note_on_c, 0, 55, 0
3, 128640, Note_on_c, 0, 40, 40
3, 128640, Note_on_c, 0, 52, 48
3, 129600, Note_on_c, 0, 52, 0
3, 129600, Note_on_c, 0, 40, 0
3, 129600, Note_on_c, 0, 41, 39
3, 129600, Note_on_c, 0, 53, 46
3, 130560, Note_on_c, 0, 53, 0
3, 130560, Note_on_c, 0, 41, 0
3, 130560, Note_on_c, 0, 58, 48
3, 130560, Note_on_c, 0, 46, 40
3, 132000, Note_on_c, 0, 46, 0
3, 132000, Note_on_c, 0, 58, 0
3, 132000, Note_on_c, 0, 59, 41
3, 132000, Note_on_c, 0, 47, 34
3, 132480, Note_on_c, 0, 47, 0
3, 132480, Note_on_c, 0, 59, 0
3, 132480, Note_on_c, 0, 48, 42
3, 132480, Note_on_c, 0, 60, 50
3, 133440, Note_on_c, 0, 60, 0
3, 133440, Note_on_c, 0, 48, 0
3, 134400, Note_on_c, 0, 53, 45
3, 134400, Note_on_c, 0, 41, 38
3, 135360, Note_on_c, 0, 41, 0
3, 135360, Note_on_c, 0, 53, 0
3, 135360, Note_on_c, 0, 53, 41
3, 135360, Note_on_c, 0, 41, 34
3, 135840, Note_on_c, 0, 41, 0
3, 135840, Note_on_c, 0, 53, 0
3, 135840, Note_on_c, 0, 55, 33
3, 135840, Note_on_c, 0, 43, 28
3, 136320, Note_on_c, 0, 43, 0
3, 136320, Note_on_c, 0, 55, 0
3, 136320, Note_on_c, 0, 57, 41
3, 136320, Note_on_c, 0, 45, 34
3, 137280, Note_on_c, 0, 45, 0
3, 137280, Note_on_c, 0, 57, 0
3, 137760, Note_on_c, 0, 57, 29
3, 137760, Note_on_c, 0, 60, 35
3, 138000, Note_on_c, 0, 60, 0
3, 138000, Note_on_c, 0, 57, 0
3, 138240, Note_on_c, 0, 62, 32
3, 138240, Note_on_c, 0, 58, 27
3, 138720, Note_on_c, 0, 58, 0
3, 138720, Note_on_c, 0, 62, 0
3, 138720, Note_on_c, 0, 57, 24
3, 138720, Note_on_c, 0, 60, 29
3, 139200, Note_on_c, 0, 60, 0
3, 139200, Note_on_c, 0, 57, 0
3, 139680, Note_on_c, 0, 60, 35
3, 139680, Note_on_c, 0, 57, 29
3, 140160, Note_on_c, 0, 57, 0
3, 140160, Note_on_c, 0, 60, 0
3, 140160, Note_on_c, 0, 62, 32
3, 140160, Note_on_c, 0, 58, 27
3, 140640, Note_on_c, 0, 58, 0
3, 140640, Note_on_c, 0, 62, 0
3, 140640, Note_on_c, 0, 57, 24
3, 140640, Note_on_c, 0, 60, 29
3, 141120, Note_on_c, 0, 60, 0
3, 141120, Note_on_c, 0, 57, 0
3, 141600, Note_on_c, 0, 69, 34
3, 141600, Note_on_c, 0, 65, 28
3, 142080, Note_on_c, 0, 65, 0
3, 142080, Note_on_c, 0, 69, 0
3, 142080, Note_on_c, 0, 70, 38
3, 142080, Note_on_c, 0, 65, 32
3, 143040, Note_on_c, 0, 65, 0
3, 143040, Note_on_c, 0, 70, 0
3, 143040, Note_on_c, 0, 65, 36
3, 143040, Note_on_c, 0, 69, 29
3, 144000, Note_on_c, 0, 69, 0
3, 144000, Note_on_c, 0, 65, 0
3, 144000, Note_on_c, 0, 67, 34
3, 144480, Note_on_c, 0, 67, 0
3, 144480, Note_on_c, 0, 60, 33
3, 144960, Note_on_c, 0, 60, 0
3, 144960, Note_on_c, 0, 65, 41
3, 145440, Note_on_c, 0, 65, 0
3, 145440, Note_on_c, 0, 70, 37
3, 145920, Note_on_c, 0, 70, 0
3, 145920, Note_on_c, 0, 69, 41
3, 146515, Note_on_c, 0, 69, 0
3, 147360, Note_on_c, 0, 58, 34
3, 147360, Note_on_c, 0, 46, 28
3, 147840, Note_on_c, 0, 46, 0
3, 147840, Note_on_c, 0, 58, 0
3, 147840, Note_on_c, 0, 57, 41
3, 147840, Note_on_c, 0, 45, 34
3, 148800, Note_on_c, 0, 45, 0
3, 148800, Note_on_c, 0, 57, 0
3, 149280, Note_on_c, 0, 58, 34
3, 149280, Note_on_c, 0, 46, 28
3, 149760, Note_on_c, 0, 46, 0
3, 149760, Note_on_c, 0, 58, 0
3, 149760, Note_on_c, 0, 57, 46
3, 149760, Note_on_c, 0, 45, 39
3, 150240, Note_on_c, 0, 45, 0
3, 150240, Note_on_c, 0, 57, 0
3, 150240, Note_on_c, 0, 58, 39
3, 150240, Note_on_c, 0, 46, 33
3, 150720, Note_on_c, 0, 46, 0
3, 150720, Note_on_c, 0, 58, 0
3, 150720, Note_on_c, 0, 60, 42
3, 151200, Note_on_c, 0, 60, 0
3, 151200, Note_on_c, 0, 48, 41
3, 151680, Note_on_c, 0, 48, 0
3, 151680, Note_on_c, 0, 53, 45
3, 152160, Note_on_c, 0, 53, 0
3, 152160, Note_on_c, 0, 48, 42
3, 152280, Note_on_c, 0, 48, 0
3, 152640, Note_on_c, 0, 41, 48
3, 153120, Note_on_c, 0, 41, 0
3, 153120, Note_on_c, 0, 45, 40
3, 153120, Note_on_c, 0, 57, 48
3, 153600, Note_on_c, 0, 57, 0
3, 153600, Note_on_c, 0, 45, 0
3, 153600, Note_on_c, 0, 46, 40
3, 153600, Note_on_c, 0, 58, 48
3, 155040, Note_on_c, 0, 58, 0
3, 155040, Note_on_c, 0, 46, 0
3, 155040, Note_on_c, 0, 60, 45
3, 155040, Note_on_c, 0, 48, 38
3, 155520, Note_on_c, 0, 48, 0
3, 155520, Note_on_c, 0, 60, 0
3, 155520, Note_on_c, 0, 50, 40
3, 155520, Note_on_c, 0, 62, 48
3, 156480, Note_on_c, 0, 62, 0
3, 156480, Note_on_c, 0, 50, 0
3, 156960, Note_on_c, 0, 45, 45
3, 156960, Note_on_c, 0, 33, 38
3, 157440, Note_on_c, 0, 33, 0
3, 157440, Note_on_c, 0, 45, 0
3, 157440, Note_on_c, 0, 34, 40
3, 157440, Note_on_c, 0, 46, 48
3, 158400, Note_on_c, 0, 46, 0
3, 158400, Note_on_c, 0, 34, 0
3, 158400, Note_on_c, 0, 36, 39
3, 158400, Note_on_c, 0, 48, 46
3, 159360, Note_on_c, 0, 48, 0
3, 159360, Note_on_c, 0, 36, 0
3, 159360, Note_on_c, 0, 29, 38
3, 159360, Note_on_c, 0, 41, 50
3, 160320, Note_on_c, 0, 41, 0
3, 160320, Note_on_c, 0, 29, 0
3, 160320, End_track
4, 0, Start_track
4, 0, Title_t, "Pedale"
4, 0, Program_c, 0, 0
4, 3911, Control_c, 0, 64, 127
4, 4338, Control_c, 0, 64, 0
4, 5799, Control_c, 0, 64, 127
4, 6261, Control_c, 0, 64, 0
4, 9653, Control_c, 0, 64, 127
4, 10571, Control_c, 0, 64, 0
4, 18300, Control_c, 0, 64, 127
4, 19218, Control_c, 0, 64, 0
4, 32711, Control_c, 0, 64, 127
4, 33138, Control_c, 0, 64, 0
4, 34599, Control_c, 0, 64, 127
4, 35061, Control_c, 0, 64, 0
4, 38453, Control_c, 0, 64, 127
4, 39371, Control_c, 0, 64, 0
4, 47100, Control_c, 0, 64, 127
4, 48018, Control_c, 0, 64, 0
4, 71079, Control_c, 0, 64, 127
4, 71541, Control_c, 0, 64, 0
4, 72999, Control_c, 0, 64, 127
4, 73461, Control_c, 0, 64, 0
4, 86471, Control_c, 0, 64, 127
4, 86898, Control_c, 0, 64, 0
4, 88359, Control_c, 0, 64, 127
4, 88821, Control_c, 0, 64, 0
4, 92213, Control_c, 0, 64, 127
4, 93131, Control_c, 0, 64, 0
4, 98940, Control_c, 0, 64, 127
4, 99858, Control_c, 0, 64, 0
4, 122919, Control_c, 0, 64, 127
4, 123381, Control_c, 0, 64, 0
4, 124839, Control_c, 0, 64, 127
4, 125301, Control_c, 0, 64, 0
4, 138311, Control_c, 0, 64, 127
4, 138738, Control_c, 0, 64, 0
4, 140199, Control_c, 0, 64, 127
4, 140661, Control_c, 0, 64, 0
4, 144053, Control_c, 0, 64, 127
4, 144971, Control_c, 0, 64, 0
4, 150780, Control_c, 0, 64, 127
4, 151698, Control_c, 0, 64, 0
4, 159654, Control_c, 0, 64, 127
4, 161280, Control_c, 0, 64, 0
4, 161280, End_track
5, 0, Start_track
5, 0, Title_t, "Haydn Piano Sonata in F major, 1. movement"
5, 0, End_track
6, 0, Start_track
6, 0, Title_t, "Copyright © 2010 by Bernd Krueger"
6, 0, End_track
7, 0, Start_track
7, 0, Title_t, "http://www.piano-midi.de/"
7, 0, End_track
8, 0, Start_track
8, 0, Title_t, "Edition: 2011-11-03"
8, 0, End_track
9, 0, Start_track
9, 0, Title_t, "Spur 8"
9, 0, End_track
10, 0, Start_track
10, 0, Title_t, "Spur 9"
10, 0, End_track
11, 0, Start_track
11, 0, Title_t, "Spur 10"
11, 0, End_track
12, 0, Start_track
12, 0, Title_t, "Spur 11"
12, 0, End_track
13, 0, Start_track
13, 0, Title_t, "Spur 12"
13, 0, End_track
14, 0, Start_track
14, 0, Title_t, "Spur 13"
14, 0, End_track
15, 0, Start_track
15, 0, Title_t, "Spur 14"
15, 0, End_track
16, 0, Start_track
16, 0, Title_t, "Spur 15"
16, 0, End_track
17, 0, Start_track
17, 0, Title_t, "Spur 16"
17, 0, End_track
0, 0, End_of_file
