0, 0, Header, 1, 17, 480
1, 0, Start_track
1, 0, Title_t, "Sonate Hoboken XVI:8 1. Satz"
1, 0, Copyright_t, "Copyright © 2009 by Bernd Krueger"
1, 0, Text_t, "Joseph Haydn"
1, 0, Text_t, "Allegro"
1, 0, Text_t, "Erstellt: 14.2.2009\012"
1, 0, Text_t, "Update: 13.11.2011\012"
1, 0, Text_t, "Dauer: 2:02 Minuten\012"
1, 0, Time_signature, 2, 2, 24, 8
1, 0, Key_signature, 1, "major"
1, 0, Tempo, 666667
1, 960, Tempo, 705882
1, 1200, Tempo, 666667
1, 1920, Tempo, 718563
1, 2160, Tempo, 662983
1, 2400, Tempo, 685714
1, 2640, Tempo, 638298
1, 2880, Tempo, 634921
1, 3040, Tempo, 718563
1, 3120, Tempo, 662983
1, 3360, Tempo, 677966
1, 3600, Tempo, 634921
1, 3840, Tempo, 631579
1, 4000, Tempo, 705882
1, 4080, Tempo, 662983
1, 4560, Tempo, 693642
1, 4800, Tempo, 655738
1, 5520, Tempo, 705882
1, 5760, Tempo, 659341
1, 5779, Tempo, 666667
1, 5818, Tempo, 662983
1, 5837, Tempo, 659341
1, 5856, Tempo, 655738
1, 5894, Tempo, 652174
1, 5914, Tempo, 648649
1, 5933, Tempo, 645161
1, 5952, Tempo, 641711
1, 5971, Tempo, 645161
1, 5990, Tempo, 648649
1, 6010, Tempo, 652174
1, 6029, Tempo, 655738
1, 6048, Tempo, 662983
1, 6067, Tempo, 666667
1, 6086, Tempo, 670391
1, 6106, Tempo, 674157
1, 6125, Tempo, 681818
1, 6144, Tempo, 685714
1, 6163, Tempo, 689655
1, 6182, Tempo, 740741
1, 6202, Tempo, 800000
1, 6221, Tempo, 869565
1, 6240, Tempo, 681818
1, 6560, Tempo, 718563
1, 6720, Tempo, 659341
1, 6960, Tempo, 693642
1, 7200, Tempo, 659341
1, 7440, Tempo, 727273
1, 7680, Tempo, 685714
1, 8141, Tempo, 718563
1, 8198, Tempo, 714286
1, 8237, Tempo, 710059
1, 8294, Tempo, 705882
1, 8333, Tempo, 701754
1, 8390, Tempo, 697674
1, 8429, Tempo, 693642
1, 8486, Tempo, 689655
1, 8525, Tempo, 685714
1, 8582, Tempo, 681818
1, 8621, Tempo, 677966
1, 8640, Tempo, 666667
1, 8698, Tempo, 662983
1, 8736, Tempo, 659341
1, 8774, Tempo, 655738
1, 8813, Tempo, 652174
1, 8832, Tempo, 645161
1, 8890, Tempo, 648649
1, 8966, Tempo, 652174
1, 9043, Tempo, 655738
1, 9120, Tempo, 659341
1, 9360, Tempo, 705882
1, 9600, Tempo, 681818
1, 9840, Tempo, 693642
1, 9920, Tempo, 697674
1, 10080, Tempo, 670391
1, 10320, Tempo, 697674
1, 10560, Tempo, 670391
1, 10880, Tempo, 689655
1, 11040, Tempo, 718563
1, 11078, Tempo, 714286
1, 11117, Tempo, 710059
1, 11174, Tempo, 705882
1, 11213, Tempo, 701754
1, 11270, Tempo, 697674
1, 11309, Tempo, 693642
1, 11366, Tempo, 689655
1, 11405, Tempo, 685714
1, 11462, Tempo, 681818
1, 11501, Tempo, 677966
1, 11520, Tempo, 666667
1, 11578, Tempo, 662983
1, 11616, Tempo, 659341
1, 11654, Tempo, 655738
1, 11693, Tempo, 652174
1, 11712, Tempo, 645161
1, 11770, Tempo, 648649
1, 11846, Tempo, 652174
1, 11923, Tempo, 655738
1, 12000, Tempo, 659341
1, 12240, Tempo, 705882
1, 12480, Tempo, 681818
1, 12720, Tempo, 693642
1, 12800, Tempo, 697674
1, 12960, Tempo, 670391
1, 13200, Tempo, 697674
1, 13440, Tempo, 736196
1, 13680, Tempo, 681818
1, 14160, Tempo, 714286
1, 14400, Tempo, 674157
1, 14640, Tempo, 648649
1, 14880, Tempo, 670391
1, 15120, Tempo, 727273
1, 15360, Tempo, 722892
1, 15600, Tempo, 750000
1, 15840, Tempo, 1111111
1, 16080, Tempo, 666667
1, 16320, Tempo, 705882
1, 16560, Tempo, 666667
1, 17280, Tempo, 718563
1, 17520, Tempo, 662983
1, 17760, Tempo, 685714
1, 18000, Tempo, 645161
1, 18240, Tempo, 634921
1, 18400, Tempo, 718563
1, 18480, Tempo, 662983
1, 18720, Tempo, 677966
1, 18960, Tempo, 641711
1, 19200, Tempo, 631579
1, 19360, Tempo, 705882
1, 19440, Tempo, 662983
1, 19920, Tempo, 693642
1, 20160, Tempo, 655738
1, 20880, Tempo, 705882
1, 21120, Tempo, 659341
1, 21139, Tempo, 666667
1, 21178, Tempo, 662983
1, 21197, Tempo, 659341
1, 21216, Tempo, 655738
1, 21254, Tempo, 652174
1, 21274, Tempo, 648649
1, 21293, Tempo, 645161
1, 21312, Tempo, 641711
1, 21331, Tempo, 645161
1, 21350, Tempo, 648649
1, 21370, Tempo, 652174
1, 21389, Tempo, 655738
1, 21408, Tempo, 662983
1, 21427, Tempo, 666667
1, 21446, Tempo, 670391
1, 21466, Tempo, 674157
1, 21485, Tempo, 681818
1, 21504, Tempo, 685714
1, 21523, Tempo, 689655
1, 21542, Tempo, 740741
1, 21562, Tempo, 800000
1, 21581, Tempo, 869565
1, 21600, Tempo, 681818
1, 21920, Tempo, 718563
1, 22080, Tempo, 659341
1, 22320, Tempo, 693642
1, 22560, Tempo, 659341
1, 22800, Tempo, 727273
1, 23040, Tempo, 685714
1, 23501, Tempo, 718563
1, 23558, Tempo, 714286
1, 23597, Tempo, 710059
1, 23654, Tempo, 705882
1, 23693, Tempo, 701754
1, 23750, Tempo, 697674
1, 23789, Tempo, 693642
1, 23846, Tempo, 689655
1, 23885, Tempo, 685714
1, 23942, Tempo, 681818
1, 23981, Tempo, 677966
1, 24000, Tempo, 666667
1, 24058, Tempo, 662983
1, 24096, Tempo, 659341
1, 24134, Tempo, 655738
1, 24173, Tempo, 652174
1, 24192, Tempo, 645161
1, 24250, Tempo, 648649
1, 24326, Tempo, 652174
1, 24403, Tempo, 655738
1, 24480, Tempo, 659341
1, 24720, Tempo, 705882
1, 24960, Tempo, 681818
1, 25200, Tempo, 693642
1, 25280, Tempo, 697674
1, 25440, Tempo, 670391
1, 25680, Tempo, 697674
1, 25920, Tempo, 670391
1, 26240, Tempo, 689655
1, 26400, Tempo, 718563
1, 26438, Tempo, 714286
1, 26477, Tempo, 710059
1, 26534, Tempo, 705882
1, 26573, Tempo, 701754
1, 26630, Tempo, 697674
1, 26669, Tempo, 693642
1, 26726, Tempo, 689655
1, 26765, Tempo, 685714
1, 26822, Tempo, 681818
1, 26861, Tempo, 677966
1, 26880, Tempo, 666667
1, 26938, Tempo, 662983
1, 26976, Tempo, 659341
1, 27014, Tempo, 655738
1, 27053, Tempo, 652174
1, 27072, Tempo, 645161
1, 27130, Tempo, 648649
1, 27206, Tempo, 652174
1, 27283, Tempo, 655738
1, 27360, Tempo, 659341
1, 27600, Tempo, 705882
1, 27840, Tempo, 681818
1, 28080, Tempo, 693642
1, 28160, Tempo, 697674
1, 28320, Tempo, 670391
1, 28560, Tempo, 697674
1, 28800, Tempo, 736196
1, 29040, Tempo, 681818
1, 29520, Tempo, 714286
1, 29760, Tempo, 674157
1, 30000, Tempo, 648649
1, 30240, Tempo, 670391
1, 30480, Tempo, 727273
1, 30720, Tempo, 731707
1, 30960, Tempo, 754717
1, 31200, Tempo, 875912
1, 31440, Tempo, 681818
1, 31560, Tempo, 745342
1, 31680, Tempo, 710059
1, 31920, Tempo, 677966
1, 32040, Tempo, 705882
1, 32104, Tempo, 693642
1, 32200, Tempo, 689655
1, 32296, Tempo, 685714
1, 32392, Tempo, 681818
1, 32469, Tempo, 677966
1, 32520, Tempo, 727273
1, 32640, Tempo, 681818
1, 33000, Tempo, 705882
1, 33120, Tempo, 681818
1, 33520, Tempo, 779221
1, 33600, Tempo, 681818
1, 34000, Tempo, 774194
1, 34080, Tempo, 681818
1, 34440, Tempo, 764331
1, 34560, Tempo, 681818
1, 34598, Tempo, 685714
1, 34675, Tempo, 681818
1, 34752, Tempo, 677966
1, 34829, Tempo, 674157
1, 34906, Tempo, 670391
1, 34982, Tempo, 666667
1, 35002, Tempo, 666667
1, 35280, Tempo, 693642
1, 35520, Tempo, 681818
1, 35760, Tempo, 662983
1, 36000, Tempo, 689655
1, 36240, Tempo, 677966
1, 36360, Tempo, 736196
1, 36480, Tempo, 674157
1, 36691, Tempo, 689655
1, 36768, Tempo, 685714
1, 36845, Tempo, 681818
1, 36922, Tempo, 677966
1, 36998, Tempo, 674157
1, 37075, Tempo, 670391
1, 37152, Tempo, 666667
1, 37440, Tempo, 697674
1, 37680, Tempo, 655738
1, 37920, Tempo, 670391
1, 38280, Tempo, 736196
1, 38400, Tempo, 670391
1, 38700, Tempo, 645161
1, 38880, Tempo, 670391
1, 39180, Tempo, 645161
1, 39360, Tempo, 670391
1, 39660, Tempo, 645161
1, 39760, Tempo, 805369
1, 39840, Tempo, 677966
1, 40080, Tempo, 731707
1, 40320, Tempo, 722892
1, 40560, Tempo, 774194
1, 41040, Tempo, 666667
1, 41280, Tempo, 705882
1, 41520, Tempo, 666667
1, 42240, Tempo, 718563
1, 42480, Tempo, 662983
1, 42720, Tempo, 685714
1, 42960, Tempo, 638298
1, 43200, Tempo, 634921
1, 43360, Tempo, 718563
1, 43440, Tempo, 662983
1, 43680, Tempo, 677966
1, 43920, Tempo, 638298
1, 44160, Tempo, 631579
1, 44320, Tempo, 705882
1, 44400, Tempo, 662983
1, 44880, Tempo, 693642
1, 45120, Tempo, 655738
1, 45840, Tempo, 705882
1, 46080, Tempo, 659341
1, 46099, Tempo, 666667
1, 46138, Tempo, 662983
1, 46157, Tempo, 659341
1, 46176, Tempo, 655738
1, 46214, Tempo, 652174
1, 46234, Tempo, 648649
1, 46253, Tempo, 645161
1, 46272, Tempo, 641711
1, 46291, Tempo, 645161
1, 46310, Tempo, 648649
1, 46330, Tempo, 652174
1, 46349, Tempo, 655738
1, 46368, Tempo, 662983
1, 46387, Tempo, 666667
1, 46406, Tempo, 670391
1, 46426, Tempo, 674157
1, 46445, Tempo, 681818
1, 46464, Tempo, 685714
1, 46483, Tempo, 689655
1, 46502, Tempo, 740741
1, 46522, Tempo, 800000
1, 46541, Tempo, 869565
1, 46560, Tempo, 681818
1, 46880, Tempo, 718563
1, 47040, Tempo, 659341
1, 47280, Tempo, 693642
1, 47520, Tempo, 659341
1, 47760, Tempo, 727273
1, 48000, Tempo, 685714
1, 48461, Tempo, 718563
1, 48518, Tempo, 714286
1, 48557, Tempo, 710059
1, 48614, Tempo, 705882
1, 48653, Tempo, 701754
1, 48710, Tempo, 697674
1, 48749, Tempo, 693642
1, 48806, Tempo, 689655
1, 48845, Tempo, 685714
1, 48902, Tempo, 681818
1, 48941, Tempo, 677966
1, 48960, Tempo, 666667
1, 49018, Tempo, 662983
1, 49056, Tempo, 659341
1, 49094, Tempo, 655738
1, 49133, Tempo, 652174
1, 49152, Tempo, 645161
1, 49210, Tempo, 648649
1, 49286, Tempo, 652174
1, 49363, Tempo, 655738
1, 49440, Tempo, 659341
1, 49680, Tempo, 705882
1, 49920, Tempo, 681818
1, 50160, Tempo, 693642
1, 50240, Tempo, 697674
1, 50400, Tempo, 670391
1, 50640, Tempo, 697674
1, 50880, Tempo, 670391
1, 51200, Tempo, 689655
1, 51360, Tempo, 718563
1, 51398, Tempo, 714286
1, 51437, Tempo, 710059
1, 51494, Tempo, 705882
1, 51533, Tempo, 701754
1, 51590, Tempo, 697674
1, 51629, Tempo, 693642
1, 51686, Tempo, 689655
1, 51725, Tempo, 685714
1, 51782, Tempo, 681818
1, 51821, Tempo, 677966
1, 51840, Tempo, 666667
1, 51898, Tempo, 662983
1, 51936, Tempo, 659341
1, 51974, Tempo, 655738
1, 52013, Tempo, 652174
1, 52032, Tempo, 645161
1, 52090, Tempo, 648649
1, 52166, Tempo, 652174
1, 52243, Tempo, 655738
1, 52320, Tempo, 659341
1, 52560, Tempo, 705882
1, 52800, Tempo, 681818
1, 53040, Tempo, 693642
1, 53120, Tempo, 697674
1, 53280, Tempo, 670391
1, 53520, Tempo, 697674
1, 53760, Tempo, 736196
1, 54000, Tempo, 681818
1, 54480, Tempo, 714286
1, 54720, Tempo, 674157
1, 54960, Tempo, 648649
1, 55200, Tempo, 670391
1, 55440, Tempo, 727273
1, 55680, Tempo, 845070
1, 55920, Tempo, 681818
1, 56400, Tempo, 714286
1, 56640, Tempo, 674157
1, 56880, Tempo, 648649
1, 57120, Tempo, 670391
1, 57360, Tempo, 727273
1, 57600, Tempo, 740741
1, 57840, Tempo, 754717
1, 58080, Tempo, 1111111
1, 58320, Tempo, 681818
1, 58440, Tempo, 745342
1, 58560, Tempo, 710059
1, 58800, Tempo, 677966
1, 58920, Tempo, 705882
1, 58984, Tempo, 693642
1, 59080, Tempo, 689655
1, 59176, Tempo, 685714
1, 59272, Tempo, 681818
1, 59349, Tempo, 677966
1, 59400, Tempo, 727273
1, 59520, Tempo, 681818
1, 59880, Tempo, 705882
1, 60000, Tempo, 681818
1, 60400, Tempo, 779221
1, 60480, Tempo, 681818
1, 60880, Tempo, 774194
1, 60960, Tempo, 681818
1, 61320, Tempo, 764331
1, 61440, Tempo, 681818
1, 61478, Tempo, 685714
1, 61555, Tempo, 681818
1, 61632, Tempo, 677966
1, 61709, Tempo, 674157
1, 61786, Tempo, 670391
1, 61862, Tempo, 666667
1, 61882, Tempo, 666667
1, 62160, Tempo, 693642
1, 62400, Tempo, 681818
1, 62640, Tempo, 662983
1, 62880, Tempo, 689655
1, 63120, Tempo, 677966
1, 63240, Tempo, 736196
1, 63360, Tempo, 674157
1, 63571, Tempo, 689655
1, 63648, Tempo, 685714
1, 63725, Tempo, 681818
1, 63802, Tempo, 677966
1, 63878, Tempo, 674157
1, 63955, Tempo, 670391
1, 64032, Tempo, 666667
1, 64320, Tempo, 697674
1, 64560, Tempo, 655738
1, 64800, Tempo, 670391
1, 65160, Tempo, 736196
1, 65280, Tempo, 670391
1, 65580, Tempo, 645161
1, 65760, Tempo, 670391
1, 66060, Tempo, 645161
1, 66240, Tempo, 670391
1, 66540, Tempo, 645161
1, 66640, Tempo, 805369
1, 66720, Tempo, 677966
1, 66960, Tempo, 731707
1, 67200, Tempo, 722892
1, 67440, Tempo, 774194
1, 67920, Tempo, 666667
1, 68160, Tempo, 705882
1, 68400, Tempo, 666667
1, 69120, Tempo, 718563
1, 69360, Tempo, 662983
1, 69600, Tempo, 685714
1, 69840, Tempo, 641711
1, 70080, Tempo, 634921
1, 70240, Tempo, 718563
1, 70320, Tempo, 662983
1, 70560, Tempo, 677966
1, 70800, Tempo, 638298
1, 71040, Tempo, 631579
1, 71200, Tempo, 705882
1, 71280, Tempo, 662983
1, 71760, Tempo, 693642
1, 72000, Tempo, 655738
1, 72720, Tempo, 705882
1, 72960, Tempo, 659341
1, 72979, Tempo, 666667
1, 73018, Tempo, 662983
1, 73037, Tempo, 659341
1, 73056, Tempo, 655738
1, 73094, Tempo, 652174
1, 73114, Tempo, 648649
1, 73133, Tempo, 645161
1, 73152, Tempo, 641711
1, 73171, Tempo, 645161
1, 73190, Tempo, 648649
1, 73210, Tempo, 652174
1, 73229, Tempo, 655738
1, 73248, Tempo, 662983
1, 73267, Tempo, 666667
1, 73286, Tempo, 670391
1, 73306, Tempo, 674157
1, 73325, Tempo, 681818
1, 73344, Tempo, 685714
1, 73363, Tempo, 689655
1, 73382, Tempo, 740741
1, 73402, Tempo, 800000
1, 73421, Tempo, 869565
1, 73440, Tempo, 681818
1, 73760, Tempo, 718563
1, 73920, Tempo, 659341
1, 74160, Tempo, 693642
1, 74400, Tempo, 659341
1, 74640, Tempo, 727273
1, 74880, Tempo, 685714
1, 75341, Tempo, 718563
1, 75398, Tempo, 714286
1, 75437, Tempo, 710059
1, 75494, Tempo, 705882
1, 75533, Tempo, 701754
1, 75590, Tempo, 697674
1, 75629, Tempo, 693642
1, 75686, Tempo, 689655
1, 75725, Tempo, 685714
1, 75782, Tempo, 681818
1, 75821, Tempo, 677966
1, 75840, Tempo, 666667
1, 75898, Tempo, 662983
1, 75936, Tempo, 659341
1, 75974, Tempo, 655738
1, 76013, Tempo, 652174
1, 76032, Tempo, 645161
1, 76090, Tempo, 648649
1, 76166, Tempo, 652174
1, 76243, Tempo, 655738
1, 76320, Tempo, 659341
1, 76560, Tempo, 705882
1, 76800, Tempo, 681818
1, 77040, Tempo, 693642
1, 77120, Tempo, 697674
1, 77280, Tempo, 670391
1, 77520, Tempo, 697674
1, 77760, Tempo, 670391
1, 78080, Tempo, 689655
1, 78240, Tempo, 718563
1, 78278, Tempo, 714286
1, 78317, Tempo, 710059
1, 78374, Tempo, 705882
1, 78413, Tempo, 701754
1, 78470, Tempo, 697674
1, 78509, Tempo, 693642
1, 78566, Tempo, 689655
1, 78605, Tempo, 685714
1, 78662, Tempo, 681818
1, 78701, Tempo, 677966
1, 78720, Tempo, 666667
1, 78778, Tempo, 662983
1, 78816, Tempo, 659341
1, 78854, Tempo, 655738
1, 78893, Tempo, 652174
1, 78912, Tempo, 645161
1, 78970, Tempo, 648649
1, 79046, Tempo, 652174
1, 79123, Tempo, 655738
1, 79200, Tempo, 659341
1, 79440, Tempo, 705882
1, 79680, Tempo, 681818
1, 79920, Tempo, 693642
1, 80000, Tempo, 697674
1, 80160, Tempo, 670391
1, 80400, Tempo, 697674
1, 80640, Tempo, 736196
1, 80880, Tempo, 681818
1, 81360, Tempo, 714286
1, 81600, Tempo, 674157
1, 81840, Tempo, 648649
1, 82080, Tempo, 670391
1, 82320, Tempo, 727273
1, 82560, Tempo, 888889
1, 82800, Tempo, 714286
1, 83040, Tempo, 697674
1, 83280, Tempo, 714286
1, 83520, Tempo, 685714
1, 83760, Tempo, 648649
1, 84000, Tempo, 670391
1, 84240, Tempo, 740741
1, 84480, Tempo, 857143
1, 84720, Tempo, 1043478
1, 84960, Tempo, 1224490
1, 84960, End_track
2, 0, Start_track
2, 0, Title_t, "Piano right"
2, 0, Program_c, 0, 0
2, 720, Note_on_c, 0, 74, 72
2, 900, Note_on_c, 0, 74, 0
2, 900, Note_on_c, 0, 79, 66
2, 960, Note_on_c, 0, 79, 0
2, 960, Note_on_c, 0, 74, 72
2, 1200, Note_on_c, 0, 74, 0
2, 1200, Note_on_c, 0, 71, 72
2, 1380, Note_on_c, 0, 71, 0
2, 1380, Note_on_c, 0, 74, 67
2, 1440, Note_on_c, 0, 74, 0
2, 1440, Note_on_c, 0, 71, 72
2, 1680, Note_on_c, 0, 71, 0
2, 1680, Note_on_c, 0, 67, 72
2, 1860, Note_on_c, 0, 67, 0
2, 1860, Note_on_c, 0, 71, 66
2, 1920, Note_on_c, 0, 71, 0
2, 1920, Note_on_c, 0, 67, 72
2, 2400, Note_on_c, 0, 67, 0
2, 2640, Note_on_c, 0, 74, 72
2, 2880, Note_on_c, 0, 74, 0
2, 2880, Note_on_c, 0, 72, 72
2, 2960, Note_on_c, 0, 72, 0
2, 2960, Note_on_c, 0, 74, 66
2, 3040, Note_on_c, 0, 74, 0
2, 3040, Note_on_c, 0, 76, 66
2, 3120, Note_on_c, 0, 76, 0
2, 3120, Note_on_c, 0, 74, 72
2, 3360, Note_on_c, 0, 74, 0
2, 3600, Note_on_c, 0, 71, 72
2, 3840, Note_on_c, 0, 71, 0
2, 3840, Note_on_c, 0, 69, 72
2, 3920, Note_on_c, 0, 69, 0
2, 3920, Note_on_c, 0, 71, 63
2, 4000, Note_on_c, 0, 71, 0
2, 4000, Note_on_c, 0, 72, 64
2, 4080, Note_on_c, 0, 72, 0
2, 4080, Note_on_c, 0, 71, 72
2, 4320, Note_on_c, 0, 71, 0
2, 4560, Note_on_c, 0, 74, 72
2, 4800, Note_on_c, 0, 74, 0
2, 4800, Note_on_c, 0, 76, 67
2, 4830, Note_on_c, 0, 76, 0
2, 4830, Note_on_c, 0, 78, 54
2, 4860, Note_on_c, 0, 78, 0
2, 4860, Note_on_c, 0, 76, 66
2, 4920, Note_on_c, 0, 76, 0
2, 4920, Note_on_c, 0, 74, 61
2, 5040, Note_on_c, 0, 74, 0
2, 5040, Note_on_c, 0, 76, 64
2, 5160, Note_on_c, 0, 76, 0
2, 5160, Note_on_c, 0, 78, 69
2, 5280, Note_on_c, 0, 78, 0
2, 5280, Note_on_c, 0, 79, 74
2, 5400, Note_on_c, 0, 79, 0
2, 5400, Note_on_c, 0, 78, 67
2, 5520, Note_on_c, 0, 78, 0
2, 5520, Note_on_c, 0, 76, 67
2, 5640, Note_on_c, 0, 76, 0
2, 5640, Note_on_c, 0, 74, 67
2, 5760, Note_on_c, 0, 74, 0
2, 5760, Note_on_c, 0, 72, 61
2, 5880, Note_on_c, 0, 72, 0
2, 5880, Note_on_c, 0, 74, 59
2, 5940, Note_on_c, 0, 74, 0
2, 5940, Note_on_c, 0, 72, 52
2, 6000, Note_on_c, 0, 72, 0
2, 6000, Note_on_c, 0, 74, 59
2, 6060, Note_on_c, 0, 74, 0
2, 6060, Note_on_c, 0, 72, 52
2, 6120, Note_on_c, 0, 72, 0
2, 6120, Note_on_c, 0, 71, 52
2, 6180, Note_on_c, 0, 71, 0
2, 6180, Note_on_c, 0, 72, 52
2, 6240, Note_on_c, 0, 72, 0
2, 6240, Note_on_c, 0, 71, 62
2, 6480, Note_on_c, 0, 71, 0
2, 6480, Note_on_c, 0, 71, 52
2, 6720, Note_on_c, 0, 71, 0
2, 6720, Note_on_c, 0, 69, 56
2, 6840, Note_on_c, 0, 69, 0
2, 6840, Note_on_c, 0, 72, 47
2, 6960, Note_on_c, 0, 72, 0
2, 6960, Note_on_c, 0, 71, 55
2, 7080, Note_on_c, 0, 71, 0
2, 7080, Note_on_c, 0, 69, 52
2, 7200, Note_on_c, 0, 69, 0
2, 7200, Note_on_c, 0, 76, 59
2, 7440, Note_on_c, 0, 76, 0
2, 7440, Note_on_c, 0, 67, 54
2, 7680, Note_on_c, 0, 67, 0
2, 7680, Note_on_c, 0, 67, 51
2, 7920, Note_on_c, 0, 67, 0
2, 7920, Note_on_c, 0, 66, 44
2, 8160, Note_on_c, 0, 66, 0
2, 8280, Note_on_c, 0, 81, 51
2, 8400, Note_on_c, 0, 81, 0
2, 8520, Note_on_c, 0, 81, 51
2, 8640, Note_on_c, 0, 81, 0
2, 8760, Note_on_c, 0, 81, 53
2, 8880, Note_on_c, 0, 81, 0
2, 9000, Note_on_c, 0, 81, 55
2, 9120, Note_on_c, 0, 81, 0
2, 9240, Note_on_c, 0, 81, 56
2, 9360, Note_on_c, 0, 81, 0
2, 9480, Note_on_c, 0, 81, 58
2, 9600, Note_on_c, 0, 81, 0
2, 9600, Note_on_c, 0, 79, 59
2, 9680, Note_on_c, 0, 79, 0
2, 9680, Note_on_c, 0, 81, 51
2, 9760, Note_on_c, 0, 81, 0
2, 9760, Note_on_c, 0, 79, 51
2, 9840, Note_on_c, 0, 79, 0
2, 9840, Note_on_c, 0, 78, 60
2, 10080, Note_on_c, 0, 78, 0
2, 10080, Note_on_c, 0, 76, 59
2, 10160, Note_on_c, 0, 76, 0
2, 10160, Note_on_c, 0, 78, 51
2, 10240, Note_on_c, 0, 78, 0
2, 10240, Note_on_c, 0, 76, 51
2, 10320, Note_on_c, 0, 76, 0
2, 10320, Note_on_c, 0, 74, 59
2, 10560, Note_on_c, 0, 74, 0
2, 10560, Note_on_c, 0, 73, 60
2, 10640, Note_on_c, 0, 73, 0
2, 10640, Note_on_c, 0, 71, 51
2, 10720, Note_on_c, 0, 71, 0
2, 10720, Note_on_c, 0, 69, 51
2, 10800, Note_on_c, 0, 69, 0
2, 10800, Note_on_c, 0, 74, 61
2, 11040, Note_on_c, 0, 74, 0
2, 11160, Note_on_c, 0, 79, 54
2, 11280, Note_on_c, 0, 79, 0
2, 11400, Note_on_c, 0, 79, 56
2, 11520, Note_on_c, 0, 79, 0
2, 11640, Note_on_c, 0, 79, 59
2, 11760, Note_on_c, 0, 79, 0
2, 11880, Note_on_c, 0, 79, 62
2, 12000, Note_on_c, 0, 79, 0
2, 12120, Note_on_c, 0, 79, 65
2, 12240, Note_on_c, 0, 79, 0
2, 12360, Note_on_c, 0, 79, 67
2, 12480, Note_on_c, 0, 79, 0
2, 12480, Note_on_c, 0, 78, 71
2, 12560, Note_on_c, 0, 78, 0
2, 12560, Note_on_c, 0, 76, 62
2, 12640, Note_on_c, 0, 76, 0
2, 12640, Note_on_c, 0, 74, 56
2, 12720, Note_on_c, 0, 74, 0
2, 12720, Note_on_c, 0, 73, 60
2, 12800, Note_on_c, 0, 73, 0
2, 12800, Note_on_c, 0, 71, 55
2, 12880, Note_on_c, 0, 71, 0
2, 12880, Note_on_c, 0, 69, 52
2, 12960, Note_on_c, 0, 69, 0
2, 12960, Note_on_c, 0, 76, 59
2, 13040, Note_on_c, 0, 76, 0
2, 13040, Note_on_c, 0, 78, 56
2, 13120, Note_on_c, 0, 78, 0
2, 13120, Note_on_c, 0, 76, 56
2, 13200, Note_on_c, 0, 76, 0
2, 13200, Note_on_c, 0, 78, 59
2, 13260, Note_on_c, 0, 78, 0
2, 13260, Note_on_c, 0, 76, 53
2, 13320, Note_on_c, 0, 76, 0
2, 13320, Note_on_c, 0, 74, 59
2, 13380, Note_on_c, 0, 74, 0
2, 13380, Note_on_c, 0, 76, 54
2, 13440, Note_on_c, 0, 76, 0
2, 13440, Note_on_c, 0, 74, 59
2, 13680, Note_on_c, 0, 74, 0
2, 13680, Note_on_c, 0, 86, 62
2, 13920, Note_on_c, 0, 86, 0
2, 13920, Note_on_c, 0, 85, 61
2, 14160, Note_on_c, 0, 85, 0
2, 14160, Note_on_c, 0, 83, 59
2, 14400, Note_on_c, 0, 83, 0
2, 14400, Note_on_c, 0, 81, 63
2, 14640, Note_on_c, 0, 81, 0
2, 14640, Note_on_c, 0, 83, 70
2, 14720, Note_on_c, 0, 83, 0
2, 14720, Note_on_c, 0, 81, 65
2, 14800, Note_on_c, 0, 81, 0
2, 14800, Note_on_c, 0, 79, 65
2, 14880, Note_on_c, 0, 79, 0
2, 14880, Note_on_c, 0, 78, 75
2, 15120, Note_on_c, 0, 78, 0
2, 15120, Note_on_c, 0, 76, 73
2, 15168, Note_on_c, 0, 76, 0
2, 15168, Note_on_c, 0, 78, 66
2, 15216, Note_on_c, 0, 78, 0
2, 15216, Note_on_c, 0, 76, 67
2, 15264, Note_on_c, 0, 76, 0
2, 15264, Note_on_c, 0, 74, 67
2, 15312, Note_on_c, 0, 74, 0
2, 15312, Note_on_c, 0, 76, 67
2, 15360, Note_on_c, 0, 76, 0
2, 15360, Note_on_c, 0, 74, 76
2, 15840, Note_on_c, 0, 74, 0
2, 16080, Note_on_c, 0, 74, 72
2, 16260, Note_on_c, 0, 74, 0
2, 16260, Note_on_c, 0, 79, 66
2, 16320, Note_on_c, 0, 79, 0
2, 16320, Note_on_c, 0, 74, 72
2, 16560, Note_on_c, 0, 74, 0
2, 16560, Note_on_c, 0, 71, 72
2, 16740, Note_on_c, 0, 71, 0
2, 16740, Note_on_c, 0, 74, 67
2, 16800, Note_on_c, 0, 74, 0
2, 16800, Note_on_c, 0, 71, 72
2, 17040, Note_on_c, 0, 71, 0
2, 17040, Note_on_c, 0, 67, 72
2, 17220, Note_on_c, 0, 67, 0
2, 17220, Note_on_c, 0, 71, 66
2, 17280, Note_on_c, 0, 71, 0
2, 17280, Note_on_c, 0, 67, 72
2, 17760, Note_on_c, 0, 67, 0
2, 18000, Note_on_c, 0, 74, 72
2, 18240, Note_on_c, 0, 74, 0
2, 18240, Note_on_c, 0, 72, 72
2, 18320, Note_on_c, 0, 72, 0
2, 18320, Note_on_c, 0, 74, 66
2, 18400, Note_on_c, 0, 74, 0
2, 18400, Note_on_c, 0, 76, 66
2, 18480, Note_on_c, 0, 76, 0
2, 18480, Note_on_c, 0, 74, 72
2, 18720, Note_on_c, 0, 74, 0
2, 18960, Note_on_c, 0, 71, 72
2, 19200, Note_on_c, 0, 71, 0
2, 19200, Note_on_c, 0, 69, 72
2, 19280, Note_on_c, 0, 69, 0
2, 19280, Note_on_c, 0, 71, 63
2, 19360, Note_on_c, 0, 71, 0
2, 19360, Note_on_c, 0, 72, 64
2, 19440, Note_on_c, 0, 72, 0
2, 19440, Note_on_c, 0, 71, 72
2, 19680, Note_on_c, 0, 71, 0
2, 19920, Note_on_c, 0, 74, 72
2, 20160, Note_on_c, 0, 74, 0
2, 20160, Note_on_c, 0, 76, 67
2, 20190, Note_on_c, 0, 76, 0
2, 20190, Note_on_c, 0, 78, 54
2, 20220, Note_on_c, 0, 78, 0
2, 20220, Note_on_c, 0, 76, 66
2, 20280, Note_on_c, 0, 76, 0
2, 20280, Note_on_c, 0, 74, 61
2, 20400, Note_on_c, 0, 74, 0
2, 20400, Note_on_c, 0, 76, 64
2, 20520, Note_on_c, 0, 76, 0
2, 20520, Note_on_c, 0, 78, 69
2, 20640, Note_on_c, 0, 78, 0
2, 20640, Note_on_c, 0, 79, 74
2, 20760, Note_on_c, 0, 79, 0
2, 20760, Note_on_c, 0, 78, 67
2, 20880, Note_on_c, 0, 78, 0
2, 20880, Note_on_c, 0, 76, 67
2, 21000, Note_on_c, 0, 76, 0
2, 21000, Note_on_c, 0, 74, 67
2, 21120, Note_on_c, 0, 74, 0
2, 21120, Note_on_c, 0, 72, 61
2, 21240, Note_on_c, 0, 72, 0
2, 21240, Note_on_c, 0, 74, 59
2, 21300, Note_on_c, 0, 74, 0
2, 21300, Note_on_c, 0, 72, 52
2, 21360, Note_on_c, 0, 72, 0
2, 21360, Note_on_c, 0, 74, 59
2, 21420, Note_on_c, 0, 74, 0
2, 21420, Note_on_c, 0, 72, 52
2, 21480, Note_on_c, 0, 72, 0
2, 21480, Note_on_c, 0, 71, 52
2, 21540, Note_on_c, 0, 71, 0
2, 21540, Note_on_c, 0, 72, 52
2, 21600, Note_on_c, 0, 72, 0
2, 21600, Note_on_c, 0, 71, 62
2, 21840, Note_on_c, 0, 71, 0
2, 21840, Note_on_c, 0, 71, 52
2, 22080, Note_on_c, 0, 71, 0
2, 22080, Note_on_c, 0, 69, 56
2, 22200, Note_on_c, 0, 69, 0
2, 22200, Note_on_c, 0, 72, 47
2, 22320, Note_on_c, 0, 72, 0
2, 22320, Note_on_c, 0, 71, 55
2, 22440, Note_on_c, 0, 71, 0
2, 22440, Note_on_c, 0, 69, 52
2, 22560, Note_on_c, 0, 69, 0
2, 22560, Note_on_c, 0, 76, 59
2, 22800, Note_on_c, 0, 76, 0
2, 22800, Note_on_c, 0, 67, 54
2, 23040, Note_on_c, 0, 67, 0
2, 23040, Note_on_c, 0, 67, 51
2, 23280, Note_on_c, 0, 67, 0
2, 23280, Note_on_c, 0, 66, 44
2, 23520, Note_on_c, 0, 66, 0
2, 23640, Note_on_c, 0, 81, 51
2, 23760, Note_on_c, 0, 81, 0
2, 23880, Note_on_c, 0, 81, 51
2, 24000, Note_on_c, 0, 81, 0
2, 24120, Note_on_c, 0, 81, 53
2, 24240, Note_on_c, 0, 81, 0
2, 24360, Note_on_c, 0, 81, 55
2, 24480, Note_on_c, 0, 81, 0
2, 24600, Note_on_c, 0, 81, 56
2, 24720, Note_on_c, 0, 81, 0
2, 24840, Note_on_c, 0, 81, 58
2, 24960, Note_on_c, 0, 81, 0
2, 24960, Note_on_c, 0, 79, 59
2, 25040, Note_on_c, 0, 79, 0
2, 25040, Note_on_c, 0, 81, 51
2, 25120, Note_on_c, 0, 81, 0
2, 25120, Note_on_c, 0, 79, 51
2, 25200, Note_on_c, 0, 79, 0
2, 25200, Note_on_c, 0, 78, 60
2, 25440, Note_on_c, 0, 78, 0
2, 25440, Note_on_c, 0, 76, 59
2, 25520, Note_on_c, 0, 76, 0
2, 25520, Note_on_c, 0, 78, 51
2, 25600, Note_on_c, 0, 78, 0
2, 25600, Note_on_c, 0, 76, 51
2, 25680, Note_on_c, 0, 76, 0
2, 25680, Note_on_c, 0, 74, 59
2, 25920, Note_on_c, 0, 74, 0
2, 25920, Note_on_c, 0, 73, 60
2, 26000, Note_on_c, 0, 73, 0
2, 26000, Note_on_c, 0, 71, 51
2, 26080, Note_on_c, 0, 71, 0
2, 26080, Note_on_c, 0, 69, 51
2, 26160, Note_on_c, 0, 69, 0
2, 26160, Note_on_c, 0, 74, 61
2, 26400, Note_on_c, 0, 74, 0
2, 26520, Note_on_c, 0, 79, 54
2, 26640, Note_on_c, 0, 79, 0
2, 26760, Note_on_c, 0, 79, 56
2, 26880, Note_on_c, 0, 79, 0
2, 27000, Note_on_c, 0, 79, 59
2, 27120, Note_on_c, 0, 79, 0
2, 27240, Note_on_c, 0, 79, 62
2, 27360, Note_on_c, 0, 79, 0
2, 27480, Note_on_c, 0, 79, 65
2, 27600, Note_on_c, 0, 79, 0
2, 27720, Note_on_c, 0, 79, 67
2, 27840, Note_on_c, 0, 79, 0
2, 27840, Note_on_c, 0, 78, 71
2, 27920, Note_on_c, 0, 78, 0
2, 27920, Note_on_c, 0, 76, 62
2, 28000, Note_on_c, 0, 76, 0
2, 28000, Note_on_c, 0, 74, 56
2, 28080, Note_on_c, 0, 74, 0
2, 28080, Note_on_c, 0, 73, 60
2, 28160, Note_on_c, 0, 73, 0
2, 28160, Note_on_c, 0, 71, 55
2, 28240, Note_on_c, 0, 71, 0
2, 28240, Note_on_c, 0, 69, 52
2, 28320, Note_on_c, 0, 69, 0
2, 28320, Note_on_c, 0, 76, 59
2, 28400, Note_on_c, 0, 76, 0
2, 28400, Note_on_c, 0, 78, 56
2, 28480, Note_on_c, 0, 78, 0
2, 28480, Note_on_c, 0, 76, 56
2, 28560, Note_on_c, 0, 76, 0
2, 28560, Note_on_c, 0, 78, 59
2, 28620, Note_on_c, 0, 78, 0
2, 28620, Note_on_c, 0, 76, 53
2, 28680, Note_on_c, 0, 76, 0
2, 28680, Note_on_c, 0, 74, 59
2, 28740, Note_on_c, 0, 74, 0
2, 28740, Note_on_c, 0, 76, 54
2, 28800, Note_on_c, 0, 76, 0
2, 28800, Note_on_c, 0, 74, 59
2, 29040, Note_on_c, 0, 74, 0
2, 29040, Note_on_c, 0, 86, 62
2, 29280, Note_on_c, 0, 86, 0
2, 29280, Note_on_c, 0, 85, 61
2, 29520, Note_on_c, 0, 85, 0
2, 29520, Note_on_c, 0, 83, 59
2, 29760, Note_on_c, 0, 83, 0
2, 29760, Note_on_c, 0, 81, 63
2, 30000, Note_on_c, 0, 81, 0
2, 30000, Note_on_c, 0, 83, 70
2, 30080, Note_on_c, 0, 83, 0
2, 30080, Note_on_c, 0, 81, 65
2, 30160, Note_on_c, 0, 81, 0
2, 30160, Note_on_c, 0, 79, 65
2, 30240, Note_on_c, 0, 79, 0
2, 30240, Note_on_c, 0, 78, 75
2, 30480, Note_on_c, 0, 78, 0
2, 30480, Note_on_c, 0, 76, 73
2, 30528, Note_on_c, 0, 76, 0
2, 30528, Note_on_c, 0, 78, 66
2, 30576, Note_on_c, 0, 78, 0
2, 30576, Note_on_c, 0, 76, 67
2, 30624, Note_on_c, 0, 76, 0
2, 30624, Note_on_c, 0, 74, 67
2, 30672, Note_on_c, 0, 74, 0
2, 30672, Note_on_c, 0, 76, 67
2, 30720, Note_on_c, 0, 76, 0
2, 30720, Note_on_c, 0, 74, 76
2, 31200, Note_on_c, 0, 74, 0
2, 31440, Note_on_c, 0, 74, 50
2, 31620, Note_on_c, 0, 74, 0
2, 31620, Note_on_c, 0, 78, 43
2, 31680, Note_on_c, 0, 78, 0
2, 31680, Note_on_c, 0, 74, 50
2, 31920, Note_on_c, 0, 74, 0
2, 32040, Note_on_c, 0, 84, 50
2, 32160, Note_on_c, 0, 84, 0
2, 32280, Note_on_c, 0, 78, 50
2, 32400, Note_on_c, 0, 78, 0
2, 32520, Note_on_c, 0, 81, 50
2, 32640, Note_on_c, 0, 81, 0
2, 32760, Note_on_c, 0, 79, 50
2, 32880, Note_on_c, 0, 79, 0
2, 32880, Note_on_c, 0, 83, 54
2, 33000, Note_on_c, 0, 83, 0
2, 33000, Note_on_c, 0, 74, 50
2, 33120, Note_on_c, 0, 74, 0
2, 33120, Note_on_c, 0, 72, 54
2, 33200, Note_on_c, 0, 72, 0
2, 33200, Note_on_c, 0, 74, 45
2, 33280, Note_on_c, 0, 74, 0
2, 33280, Note_on_c, 0, 76, 45
2, 33360, Note_on_c, 0, 76, 0
2, 33360, Note_on_c, 0, 69, 52
2, 33440, Note_on_c, 0, 69, 0
2, 33440, Note_on_c, 0, 71, 44
2, 33520, Note_on_c, 0, 71, 0
2, 33520, Note_on_c, 0, 72, 44
2, 33600, Note_on_c, 0, 72, 0
2, 33600, Note_on_c, 0, 71, 52
2, 33680, Note_on_c, 0, 71, 0
2, 33680, Note_on_c, 0, 72, 45
2, 33760, Note_on_c, 0, 72, 0
2, 33760, Note_on_c, 0, 74, 45
2, 33840, Note_on_c, 0, 74, 0
2, 33840, Note_on_c, 0, 72, 52
2, 33920, Note_on_c, 0, 72, 0
2, 33920, Note_on_c, 0, 74, 46
2, 34000, Note_on_c, 0, 74, 0
2, 34000, Note_on_c, 0, 76, 46
2, 34080, Note_on_c, 0, 76, 0
2, 34080, Note_on_c, 0, 74, 46
2, 34320, Note_on_c, 0, 74, 0
2, 34320, Note_on_c, 0, 74, 55
2, 34500, Note_on_c, 0, 74, 0
2, 34500, Note_on_c, 0, 79, 52
2, 34560, Note_on_c, 0, 79, 0
2, 34560, Note_on_c, 0, 74, 58
2, 34800, Note_on_c, 0, 74, 0
2, 34800, Note_on_c, 0, 66, 48
2, 35040, Note_on_c, 0, 66, 0
2, 35040, Note_on_c, 0, 67, 50
2, 35280, Note_on_c, 0, 67, 0
2, 35280, Note_on_c, 0, 69, 53
2, 35520, Note_on_c, 0, 69, 0
2, 35520, Note_on_c, 0, 71, 55
2, 35760, Note_on_c, 0, 71, 0
2, 35760, Note_on_c, 0, 72, 56
2, 35808, Note_on_c, 0, 72, 0
2, 35808, Note_on_c, 0, 74, 60
2, 35856, Note_on_c, 0, 74, 0
2, 35856, Note_on_c, 0, 72, 50
2, 35904, Note_on_c, 0, 72, 0
2, 35904, Note_on_c, 0, 71, 52
2, 35952, Note_on_c, 0, 71, 0
2, 35952, Note_on_c, 0, 72, 56
2, 36000, Note_on_c, 0, 72, 0
2, 36000, Note_on_c, 0, 74, 59
2, 36240, Note_on_c, 0, 74, 0
2, 36240, Note_on_c, 0, 79, 62
2, 36420, Note_on_c, 0, 79, 0
2, 36420, Note_on_c, 0, 83, 58
2, 36480, Note_on_c, 0, 83, 0
2, 36480, Note_on_c, 0, 79, 65
2, 36720, Note_on_c, 0, 79, 0
2, 36720, Note_on_c, 0, 71, 57
2, 36960, Note_on_c, 0, 71, 0
2, 36960, Note_on_c, 0, 72, 60
2, 37200, Note_on_c, 0, 72, 0
2, 37200, Note_on_c, 0, 74, 63
2, 37440, Note_on_c, 0, 74, 0
2, 37440, Note_on_c, 0, 76, 67
2, 37680, Note_on_c, 0, 76, 0
2, 37680, Note_on_c, 0, 77, 61
2, 37728, Note_on_c, 0, 77, 0
2, 37728, Note_on_c, 0, 79, 66
2, 37776, Note_on_c, 0, 79, 0
2, 37776, Note_on_c, 0, 77, 58
2, 37824, Note_on_c, 0, 77, 0
2, 37824, Note_on_c, 0, 76, 60
2, 37872, Note_on_c, 0, 76, 0
2, 37872, Note_on_c, 0, 77, 63
2, 37920, Note_on_c, 0, 77, 0
2, 37920, Note_on_c, 0, 79, 66
2, 38160, Note_on_c, 0, 79, 0
2, 38160, Note_on_c, 0, 76, 62
2, 38340, Note_on_c, 0, 76, 0
2, 38340, Note_on_c, 0, 79, 55
2, 38400, Note_on_c, 0, 79, 0
2, 38400, Note_on_c, 0, 74, 62
2, 38640, Note_on_c, 0, 74, 0
2, 38640, Note_on_c, 0, 72, 58
2, 38720, Note_on_c, 0, 72, 0
2, 38720, Note_on_c, 0, 74, 53
2, 38800, Note_on_c, 0, 74, 0
2, 38800, Note_on_c, 0, 72, 53
2, 38880, Note_on_c, 0, 72, 0
2, 38880, Note_on_c, 0, 71, 58
2, 39120, Note_on_c, 0, 71, 0
2, 39120, Note_on_c, 0, 74, 58
2, 39200, Note_on_c, 0, 74, 0
2, 39200, Note_on_c, 0, 72, 52
2, 39280, Note_on_c, 0, 72, 0
2, 39280, Note_on_c, 0, 71, 52
2, 39360, Note_on_c, 0, 71, 0
2, 39360, Note_on_c, 0, 69, 57
2, 39600, Note_on_c, 0, 69, 0
2, 39600, Note_on_c, 0, 72, 54
2, 39680, Note_on_c, 0, 72, 0
2, 39680, Note_on_c, 0, 71, 49
2, 39760, Note_on_c, 0, 71, 0
2, 39760, Note_on_c, 0, 69, 49
2, 39840, Note_on_c, 0, 69, 0
2, 39840, Note_on_c, 0, 76, 56
2, 40080, Note_on_c, 0, 76, 0
2, 40080, Note_on_c, 0, 67, 47
2, 40200, Note_on_c, 0, 67, 0
2, 40320, Note_on_c, 0, 67, 58
2, 40380, Note_on_c, 0, 67, 0
2, 40380, Note_on_c, 0, 69, 49
2, 40440, Note_on_c, 0, 69, 0
2, 40440, Note_on_c, 0, 67, 49
2, 40560, Note_on_c, 0, 67, 0
2, 40560, Note_on_c, 0, 66, 55
2, 40800, Note_on_c, 0, 66, 0
2, 41040, Note_on_c, 0, 74, 72
2, 41220, Note_on_c, 0, 74, 0
2, 41220, Note_on_c, 0, 79, 66
2, 41280, Note_on_c, 0, 79, 0
2, 41280, Note_on_c, 0, 74, 72
2, 41520, Note_on_c, 0, 74, 0
2, 41520, Note_on_c, 0, 71, 72
2, 41700, Note_on_c, 0, 71, 0
2, 41700, Note_on_c, 0, 74, 67
2, 41760, Note_on_c, 0, 74, 0
2, 41760, Note_on_c, 0, 71, 72
2, 42000, Note_on_c, 0, 71, 0
2, 42000, Note_on_c, 0, 67, 72
2, 42180, Note_on_c, 0, 67, 0
2, 42180, Note_on_c, 0, 71, 66
2, 42240, Note_on_c, 0, 71, 0
2, 42240, Note_on_c, 0, 67, 72
2, 42720, Note_on_c, 0, 67, 0
2, 42960, Note_on_c, 0, 74, 72
2, 43200, Note_on_c, 0, 74, 0
2, 43200, Note_on_c, 0, 72, 72
2, 43280, Note_on_c, 0, 72, 0
2, 43280, Note_on_c, 0, 74, 66
2, 43360, Note_on_c, 0, 74, 0
2, 43360, Note_on_c, 0, 76, 66
2, 43440, Note_on_c, 0, 76, 0
2, 43440, Note_on_c, 0, 74, 72
2, 43680, Note_on_c, 0, 74, 0
2, 43920, Note_on_c, 0, 71, 72
2, 44160, Note_on_c, 0, 71, 0
2, 44160, Note_on_c, 0, 69, 72
2, 44240, Note_on_c, 0, 69, 0
2, 44240, Note_on_c, 0, 71, 63
2, 44320, Note_on_c, 0, 71, 0
2, 44320, Note_on_c, 0, 72, 64
2, 44400, Note_on_c, 0, 72, 0
2, 44400, Note_on_c, 0, 71, 72
2, 44640, Note_on_c, 0, 71, 0
2, 44880, Note_on_c, 0, 74, 72
2, 45120, Note_on_c, 0, 74, 0
2, 45120, Note_on_c, 0, 76, 67
2, 45150, Note_on_c, 0, 76, 0
2, 45150, Note_on_c, 0, 78, 54
2, 45180, Note_on_c, 0, 78, 0
2, 45180, Note_on_c, 0, 76, 66
2, 45240, Note_on_c, 0, 76, 0
2, 45240, Note_on_c, 0, 74, 61
2, 45360, Note_on_c, 0, 74, 0
2, 45360, Note_on_c, 0, 76, 64
2, 45480, Note_on_c, 0, 76, 0
2, 45480, Note_on_c, 0, 78, 69
2, 45600, Note_on_c, 0, 78, 0
2, 45600, Note_on_c, 0, 79, 74
2, 45720, Note_on_c, 0, 79, 0
2, 45720, Note_on_c, 0, 78, 67
2, 45840, Note_on_c, 0, 78, 0
2, 45840, Note_on_c, 0, 76, 67
2, 45960, Note_on_c, 0, 76, 0
2, 45960, Note_on_c, 0, 74, 67
2, 46080, Note_on_c, 0, 74, 0
2, 46080, Note_on_c, 0, 72, 61
2, 46200, Note_on_c, 0, 72, 0
2, 46200, Note_on_c, 0, 74, 59
2, 46260, Note_on_c, 0, 74, 0
2, 46260, Note_on_c, 0, 72, 52
2, 46320, Note_on_c, 0, 72, 0
2, 46320, Note_on_c, 0, 74, 59
2, 46380, Note_on_c, 0, 74, 0
2, 46380, Note_on_c, 0, 72, 52
2, 46440, Note_on_c, 0, 72, 0
2, 46440, Note_on_c, 0, 71, 52
2, 46500, Note_on_c, 0, 71, 0
2, 46500, Note_on_c, 0, 72, 52
2, 46560, Note_on_c, 0, 72, 0
2, 46560, Note_on_c, 0, 71, 62
2, 46800, Note_on_c, 0, 71, 0
2, 46800, Note_on_c, 0, 71, 52
2, 47040, Note_on_c, 0, 71, 0
2, 47040, Note_on_c, 0, 69, 56
2, 47160, Note_on_c, 0, 69, 0
2, 47160, Note_on_c, 0, 72, 47
2, 47280, Note_on_c, 0, 72, 0
2, 47280, Note_on_c, 0, 71, 55
2, 47400, Note_on_c, 0, 71, 0
2, 47400, Note_on_c, 0, 69, 52
2, 47520, Note_on_c, 0, 69, 0
2, 47520, Note_on_c, 0, 76, 59
2, 47760, Note_on_c, 0, 76, 0
2, 47760, Note_on_c, 0, 67, 54
2, 48000, Note_on_c, 0, 67, 0
2, 48000, Note_on_c, 0, 67, 51
2, 48240, Note_on_c, 0, 67, 0
2, 48240, Note_on_c, 0, 66, 44
2, 48480, Note_on_c, 0, 66, 0
2, 48600, Note_on_c, 0, 86, 56
2, 48720, Note_on_c, 0, 86, 0
2, 48840, Note_on_c, 0, 86, 56
2, 48960, Note_on_c, 0, 86, 0
2, 49080, Note_on_c, 0, 86, 58
2, 49200, Note_on_c, 0, 86, 0
2, 49320, Note_on_c, 0, 86, 60
2, 49440, Note_on_c, 0, 86, 0
2, 49560, Note_on_c, 0, 86, 61
2, 49680, Note_on_c, 0, 86, 0
2, 49800, Note_on_c, 0, 86, 63
2, 49920, Note_on_c, 0, 86, 0
2, 49920, Note_on_c, 0, 84, 64
2, 50000, Note_on_c, 0, 84, 0
2, 50000, Note_on_c, 0, 86, 56
2, 50080, Note_on_c, 0, 86, 0
2, 50080, Note_on_c, 0, 84, 56
2, 50160, Note_on_c, 0, 84, 0
2, 50160, Note_on_c, 0, 83, 66
2, 50400, Note_on_c, 0, 83, 0
2, 50400, Note_on_c, 0, 81, 59
2, 50480, Note_on_c, 0, 81, 0
2, 50480, Note_on_c, 0, 83, 51
2, 50560, Note_on_c, 0, 83, 0
2, 50560, Note_on_c, 0, 81, 51
2, 50640, Note_on_c, 0, 81, 0
2, 50640, Note_on_c, 0, 79, 59
2, 50880, Note_on_c, 0, 79, 0
2, 50880, Note_on_c, 0, 78, 60
2, 50960, Note_on_c, 0, 78, 0
2, 50960, Note_on_c, 0, 76, 51
2, 51040, Note_on_c, 0, 76, 0
2, 51040, Note_on_c, 0, 74, 51
2, 51120, Note_on_c, 0, 74, 0
2, 51120, Note_on_c, 0, 79, 61
2, 51360, Note_on_c, 0, 79, 0
2, 51480, Note_on_c, 0, 84, 67
2, 51600, Note_on_c, 0, 84, 0
2, 51720, Note_on_c, 0, 84, 68
2, 51840, Note_on_c, 0, 84, 0
2, 51960, Note_on_c, 0, 84, 70
2, 52080, Note_on_c, 0, 84, 0
2, 52200, Note_on_c, 0, 84, 72
2, 52320, Note_on_c, 0, 84, 0
2, 52440, Note_on_c, 0, 84, 73
2, 52560, Note_on_c, 0, 84, 0
2, 52680, Note_on_c, 0, 84, 68
2, 52800, Note_on_c, 0, 84, 0
2, 52800, Note_on_c, 0, 83, 74
2, 52880, Note_on_c, 0, 83, 0
2, 52880, Note_on_c, 0, 81, 65
2, 52960, Note_on_c, 0, 81, 0
2, 52960, Note_on_c, 0, 79, 65
2, 53040, Note_on_c, 0, 79, 0
2, 53040, Note_on_c, 0, 78, 69
2, 53120, Note_on_c, 0, 78, 0
2, 53120, Note_on_c, 0, 76, 59
2, 53200, Note_on_c, 0, 76, 0
2, 53200, Note_on_c, 0, 74, 59
2, 53280, Note_on_c, 0, 74, 0
2, 53280, Note_on_c, 0, 81, 65
2, 53360, Note_on_c, 0, 81, 0
2, 53360, Note_on_c, 0, 83, 56
2, 53440, Note_on_c, 0, 83, 0
2, 53440, Note_on_c, 0, 81, 56
2, 53520, Note_on_c, 0, 81, 0
2, 53520, Note_on_c, 0, 83, 59
2, 53580, Note_on_c, 0, 83, 0
2, 53580, Note_on_c, 0, 81, 53
2, 53640, Note_on_c, 0, 81, 0
2, 53640, Note_on_c, 0, 79, 59
2, 53700, Note_on_c, 0, 79, 0
2, 53700, Note_on_c, 0, 81, 54
2, 53760, Note_on_c, 0, 81, 0
2, 53760, Note_on_c, 0, 79, 59
2, 54000, Note_on_c, 0, 79, 0
2, 54000, Note_on_c, 0, 79, 68
2, 54240, Note_on_c, 0, 79, 0
2, 54240, Note_on_c, 0, 78, 63
2, 54480, Note_on_c, 0, 78, 0
2, 54480, Note_on_c, 0, 76, 63
2, 54720, Note_on_c, 0, 76, 0
2, 54720, Note_on_c, 0, 74, 70
2, 54960, Note_on_c, 0, 74, 0
2, 54960, Note_on_c, 0, 76, 70
2, 55040, Note_on_c, 0, 76, 0
2, 55040, Note_on_c, 0, 74, 65
2, 55120, Note_on_c, 0, 74, 0
2, 55120, Note_on_c, 0, 72, 65
2, 55200, Note_on_c, 0, 72, 0
2, 55200, Note_on_c, 0, 71, 73
2, 55440, Note_on_c, 0, 71, 0
2, 55440, Note_on_c, 0, 69, 73
2, 55488, Note_on_c, 0, 69, 0
2, 55488, Note_on_c, 0, 71, 66
2, 55536, Note_on_c, 0, 71, 0
2, 55536, Note_on_c, 0, 69, 67
2, 55584, Note_on_c, 0, 69, 0
2, 55584, Note_on_c, 0, 67, 67
2, 55632, Note_on_c, 0, 67, 0
2, 55632, Note_on_c, 0, 69, 67
2, 55680, Note_on_c, 0, 69, 0
2, 55680, Note_on_c, 0, 67, 76
2, 55920, Note_on_c, 0, 67, 0
2, 55920, Note_on_c, 0, 79, 43
2, 56160, Note_on_c, 0, 79, 0
2, 56160, Note_on_c, 0, 78, 42
2, 56400, Note_on_c, 0, 78, 0
2, 56400, Note_on_c, 0, 76, 41
2, 56640, Note_on_c, 0, 76, 0
2, 56640, Note_on_c, 0, 74, 44
2, 56880, Note_on_c, 0, 74, 0
2, 56880, Note_on_c, 0, 76, 49
2, 56960, Note_on_c, 0, 76, 0
2, 56960, Note_on_c, 0, 74, 45
2, 57040, Note_on_c, 0, 74, 0
2, 57040, Note_on_c, 0, 72, 45
2, 57120, Note_on_c, 0, 72, 0
2, 57120, Note_on_c, 0, 71, 52
2, 57360, Note_on_c, 0, 71, 0
2, 57360, Note_on_c, 0, 69, 51
2, 57408, Note_on_c, 0, 69, 0
2, 57408, Note_on_c, 0, 71, 46
2, 57456, Note_on_c, 0, 71, 0
2, 57456, Note_on_c, 0, 69, 46
2, 57504, Note_on_c, 0, 69, 0
2, 57504, Note_on_c, 0, 67, 46
2, 57552, Note_on_c, 0, 67, 0
2, 57552, Note_on_c, 0, 69, 46
2, 57600, Note_on_c, 0, 69, 0
2, 57600, Note_on_c, 0, 67, 53
2, 58080, Note_on_c, 0, 67, 0
2, 58320, Note_on_c, 0, 74, 50
2, 58500, Note_on_c, 0, 74, 0
2, 58500, Note_on_c, 0, 78, 43
2, 58560, Note_on_c, 0, 78, 0
2, 58560, Note_on_c, 0, 74, 50
2, 58800, Note_on_c, 0, 74, 0
2, 58920, Note_on_c, 0, 84, 50
2, 59040, Note_on_c, 0, 84, 0
2, 59160, Note_on_c, 0, 78, 50
2, 59280, Note_on_c, 0, 78, 0
2, 59400, Note_on_c, 0, 81, 50
2, 59520, Note_on_c, 0, 81, 0
2, 59640, Note_on_c, 0, 79, 50
2, 59760, Note_on_c, 0, 79, 0
2, 59760, Note_on_c, 0, 83, 54
2, 59880, Note_on_c, 0, 83, 0
2, 59880, Note_on_c, 0, 74, 50
2, 60000, Note_on_c, 0, 74, 0
2, 60000, Note_on_c, 0, 72, 54
2, 60080, Note_on_c, 0, 72, 0
2, 60080, Note_on_c, 0, 74, 45
2, 60160, Note_on_c, 0, 74, 0
2, 60160, Note_on_c, 0, 76, 45
2, 60240, Note_on_c, 0, 76, 0
2, 60240, Note_on_c, 0, 69, 52
2, 60320, Note_on_c, 0, 69, 0
2, 60320, Note_on_c, 0, 71, 44
2, 60400, Note_on_c, 0, 71, 0
2, 60400, Note_on_c, 0, 72, 44
2, 60480, Note_on_c, 0, 72, 0
2, 60480, Note_on_c, 0, 71, 52
2, 60560, Note_on_c, 0, 71, 0
2, 60560, Note_on_c, 0, 72, 45
2, 60640, Note_on_c, 0, 72, 0
2, 60640, Note_on_c, 0, 74, 45
2, 60720, Note_on_c, 0, 74, 0
2, 60720, Note_on_c, 0, 72, 52
2, 60800, Note_on_c, 0, 72, 0
2, 60800, Note_on_c, 0, 74, 46
2, 60880, Note_on_c, 0, 74, 0
2, 60880, Note_on_c, 0, 76, 46
2, 60960, Note_on_c, 0, 76, 0
2, 60960, Note_on_c, 0, 74, 46
2, 61200, Note_on_c, 0, 74, 0
2, 61200, Note_on_c, 0, 74, 55
2, 61380, Note_on_c, 0, 74, 0
2, 61380, Note_on_c, 0, 79, 52
2, 61440, Note_on_c, 0, 79, 0
2, 61440, Note_on_c, 0, 74, 58
2, 61680, Note_on_c, 0, 74, 0
2, 61680, Note_on_c, 0, 66, 48
2, 61920, Note_on_c, 0, 66, 0
2, 61920, Note_on_c, 0, 67, 50
2, 62160, Note_on_c, 0, 67, 0
2, 62160, Note_on_c, 0, 69, 53
2, 62400, Note_on_c, 0, 69, 0
2, 62400, Note_on_c, 0, 71, 55
2, 62640, Note_on_c, 0, 71, 0
2, 62640, Note_on_c, 0, 72, 56
2, 62688, Note_on_c, 0, 72, 0
2, 62688, Note_on_c, 0, 74, 60
2, 62736, Note_on_c, 0, 74, 0
2, 62736, Note_on_c, 0, 72, 50
2, 62784, Note_on_c, 0, 72, 0
2, 62784, Note_on_c, 0, 71, 52
2, 62832, Note_on_c, 0, 71, 0
2, 62832, Note_on_c, 0, 72, 56
2, 62880, Note_on_c, 0, 72, 0
2, 62880, Note_on_c, 0, 74, 59
2, 63120, Note_on_c, 0, 74, 0
2, 63120, Note_on_c, 0, 79, 62
2, 63300, Note_on_c, 0, 79, 0
2, 63300, Note_on_c, 0, 83, 58
2, 63360, Note_on_c, 0, 83, 0
2, 63360, Note_on_c, 0, 79, 65
2, 63600, Note_on_c, 0, 79, 0
2, 63600, Note_on_c, 0, 71, 57
2, 63840, Note_on_c, 0, 71, 0
2, 63840, Note_on_c, 0, 72, 60
2, 64080, Note_on_c, 0, 72, 0
2, 64080, Note_on_c, 0, 74, 63
2, 64320, Note_on_c, 0, 74, 0
2, 64320, Note_on_c, 0, 76, 67
2, 64560, Note_on_c, 0, 76, 0
2, 64560, Note_on_c, 0, 77, 61
2, 64608, Note_on_c, 0, 77, 0
2, 64608, Note_on_c, 0, 79, 66
2, 64656, Note_on_c, 0, 79, 0
2, 64656, Note_on_c, 0, 77, 58
2, 64704, Note_on_c, 0, 77, 0
2, 64704, Note_on_c, 0, 76, 60
2, 64752, Note_on_c, 0, 76, 0
2, 64752, Note_on_c, 0, 77, 63
2, 64800, Note_on_c, 0, 77, 0
2, 64800, Note_on_c, 0, 79, 66
2, 65040, Note_on_c, 0, 79, 0
2, 65040, Note_on_c, 0, 76, 62
2, 65220, Note_on_c, 0, 76, 0
2, 65220, Note_on_c, 0, 79, 55
2, 65280, Note_on_c, 0, 79, 0
2, 65280, Note_on_c, 0, 74, 62
2, 65520, Note_on_c, 0, 74, 0
2, 65520, Note_on_c, 0, 72, 58
2, 65600, Note_on_c, 0, 72, 0
2, 65600, Note_on_c, 0, 74, 53
2, 65680, Note_on_c, 0, 74, 0
2, 65680, Note_on_c, 0, 72, 53
2, 65760, Note_on_c, 0, 72, 0
2, 65760, Note_on_c, 0, 71, 58
2, 66000, Note_on_c, 0, 71, 0
2, 66000, Note_on_c, 0, 74, 58
2, 66080, Note_on_c, 0, 74, 0
2, 66080, Note_on_c, 0, 72, 52
2, 66160, Note_on_c, 0, 72, 0
2, 66160, Note_on_c, 0, 71, 52
2, 66240, Note_on_c, 0, 71, 0
2, 66240, Note_on_c, 0, 69, 57
2, 66480, Note_on_c, 0, 69, 0
2, 66480, Note_on_c, 0, 72, 54
2, 66560, Note_on_c, 0, 72, 0
2, 66560, Note_on_c, 0, 71, 49
2, 66640, Note_on_c, 0, 71, 0
2, 66640, Note_on_c, 0, 69, 49
2, 66720, Note_on_c, 0, 69, 0
2, 66720, Note_on_c, 0, 76, 56
2, 66960, Note_on_c, 0, 76, 0
2, 66960, Note_on_c, 0, 67, 47
2, 67080, Note_on_c, 0, 67, 0
2, 67200, Note_on_c, 0, 67, 58
2, 67260, Note_on_c, 0, 67, 0
2, 67260, Note_on_c, 0, 69, 49
2, 67320, Note_on_c, 0, 69, 0
2, 67320, Note_on_c, 0, 67, 49
2, 67440, Note_on_c, 0, 67, 0
2, 67440, Note_on_c, 0, 66, 55
2, 67680, Note_on_c, 0, 66, 0
2, 67920, Note_on_c, 0, 74, 72
2, 68100, Note_on_c, 0, 74, 0
2, 68100, Note_on_c, 0, 79, 66
2, 68160, Note_on_c, 0, 79, 0
2, 68160, Note_on_c, 0, 74, 72
2, 68400, Note_on_c, 0, 74, 0
2, 68400, Note_on_c, 0, 71, 72
2, 68580, Note_on_c, 0, 71, 0
2, 68580, Note_on_c, 0, 74, 67
2, 68640, Note_on_c, 0, 74, 0
2, 68640, Note_on_c, 0, 71, 72
2, 68880, Note_on_c, 0, 71, 0
2, 68880, Note_on_c, 0, 67, 72
2, 69060, Note_on_c, 0, 67, 0
2, 69060, Note_on_c, 0, 71, 66
2, 69120, Note_on_c, 0, 71, 0
2, 69120, Note_on_c, 0, 67, 72
2, 69600, Note_on_c, 0, 67, 0
2, 69840, Note_on_c, 0, 74, 72
2, 70080, Note_on_c, 0, 74, 0
2, 70080, Note_on_c, 0, 72, 72
2, 70160, Note_on_c, 0, 72, 0
2, 70160, Note_on_c, 0, 74, 66
2, 70240, Note_on_c, 0, 74, 0
2, 70240, Note_on_c, 0, 76, 66
2, 70320, Note_on_c, 0, 76, 0
2, 70320, Note_on_c, 0, 74, 72
2, 70560, Note_on_c, 0, 74, 0
2, 70800, Note_on_c, 0, 71, 72
2, 71040, Note_on_c, 0, 71, 0
2, 71040, Note_on_c, 0, 69, 72
2, 71120, Note_on_c, 0, 69, 0
2, 71120, Note_on_c, 0, 71, 63
2, 71200, Note_on_c, 0, 71, 0
2, 71200, Note_on_c, 0, 72, 64
2, 71280, Note_on_c, 0, 72, 0
2, 71280, Note_on_c, 0, 71, 72
2, 71520, Note_on_c, 0, 71, 0
2, 71760, Note_on_c, 0, 74, 72
2, 72000, Note_on_c, 0, 74, 0
2, 72000, Note_on_c, 0, 76, 67
2, 72030, Note_on_c, 0, 76, 0
2, 72030, Note_on_c, 0, 78, 54
2, 72060, Note_on_c, 0, 78, 0
2, 72060, Note_on_c, 0, 76, 66
2, 72120, Note_on_c, 0, 76, 0
2, 72120, Note_on_c, 0, 74, 61
2, 72240, Note_on_c, 0, 74, 0
2, 72240, Note_on_c, 0, 76, 64
2, 72360, Note_on_c, 0, 76, 0
2, 72360, Note_on_c, 0, 78, 69
2, 72480, Note_on_c, 0, 78, 0
2, 72480, Note_on_c, 0, 79, 74
2, 72600, Note_on_c, 0, 79, 0
2, 72600, Note_on_c, 0, 78, 67
2, 72720, Note_on_c, 0, 78, 0
2, 72720, Note_on_c, 0, 76, 67
2, 72840, Note_on_c, 0, 76, 0
2, 72840, Note_on_c, 0, 74, 67
2, 72960, Note_on_c, 0, 74, 0
2, 72960, Note_on_c, 0, 72, 61
2, 73080, Note_on_c, 0, 72, 0
2, 73080, Note_on_c, 0, 74, 59
2, 73140, Note_on_c, 0, 74, 0
2, 73140, Note_on_c, 0, 72, 52
2, 73200, Note_on_c, 0, 72, 0
2, 73200, Note_on_c, 0, 74, 59
2, 73260, Note_on_c, 0, 74, 0
2, 73260, Note_on_c, 0, 72, 52
2, 73320, Note_on_c, 0, 72, 0
2, 73320, Note_on_c, 0, 71, 52
2, 73380, Note_on_c, 0, 71, 0
2, 73380, Note_on_c, 0, 72, 52
2, 73440, Note_on_c, 0, 72, 0
2, 73440, Note_on_c, 0, 71, 62
2, 73680, Note_on_c, 0, 71, 0
2, 73680, Note_on_c, 0, 71, 52
2, 73920, Note_on_c, 0, 71, 0
2, 73920, Note_on_c, 0, 69, 56
2, 74040, Note_on_c, 0, 69, 0
2, 74040, Note_on_c, 0, 72, 47
2, 74160, Note_on_c, 0, 72, 0
2, 74160, Note_on_c, 0, 71, 55
2, 74280, Note_on_c, 0, 71, 0
2, 74280, Note_on_c, 0, 69, 52
2, 74400, Note_on_c, 0, 69, 0
2, 74400, Note_on_c, 0, 76, 59
2, 74640, Note_on_c, 0, 76, 0
2, 74640, Note_on_c, 0, 67, 54
2, 74880, Note_on_c, 0, 67, 0
2, 74880, Note_on_c, 0, 67, 51
2, 75120, Note_on_c, 0, 67, 0
2, 75120, Note_on_c, 0, 66, 44
2, 75360, Note_on_c, 0, 66, 0
2, 75480, Note_on_c, 0, 86, 56
2, 75600, Note_on_c, 0, 86, 0
2, 75720, Note_on_c, 0, 86, 56
2, 75840, Note_on_c, 0, 86, 0
2, 75960, Note_on_c, 0, 86, 58
2, 76080, Note_on_c, 0, 86, 0
2, 76200, Note_on_c, 0, 86, 60
2, 76320, Note_on_c, 0, 86, 0
2, 76440, Note_on_c, 0, 86, 61
2, 76560, Note_on_c, 0, 86, 0
2, 76680, Note_on_c, 0, 86, 63
2, 76800, Note_on_c, 0, 86, 0
2, 76800, Note_on_c, 0, 84, 64
2, 76880, Note_on_c, 0, 84, 0
2, 76880, Note_on_c, 0, 86, 56
2, 76960, Note_on_c, 0, 86, 0
2, 76960, Note_on_c, 0, 84, 56
2, 77040, Note_on_c, 0, 84, 0
2, 77040, Note_on_c, 0, 83, 66
2, 77280, Note_on_c, 0, 83, 0
2, 77280, Note_on_c, 0, 81, 59
2, 77360, Note_on_c, 0, 81, 0
2, 77360, Note_on_c, 0, 83, 51
2, 77440, Note_on_c, 0, 83, 0
2, 77440, Note_on_c, 0, 81, 51
2, 77520, Note_on_c, 0, 81, 0
2, 77520, Note_on_c, 0, 79, 59
2, 77760, Note_on_c, 0, 79, 0
2, 77760, Note_on_c, 0, 78, 60
2, 77840, Note_on_c, 0, 78, 0
2, 77840, Note_on_c, 0, 76, 51
2, 77920, Note_on_c, 0, 76, 0
2, 77920, Note_on_c, 0, 74, 51
2, 78000, Note_on_c, 0, 74, 0
2, 78000, Note_on_c, 0, 79, 61
2, 78240, Note_on_c, 0, 79, 0
2, 78360, Note_on_c, 0, 84, 67
2, 78480, Note_on_c, 0, 84, 0
2, 78600, Note_on_c, 0, 84, 68
2, 78720, Note_on_c, 0, 84, 0
2, 78840, Note_on_c, 0, 84, 70
2, 78960, Note_on_c, 0, 84, 0
2, 79080, Note_on_c, 0, 84, 72
2, 79200, Note_on_c, 0, 84, 0
2, 79320, Note_on_c, 0, 84, 73
2, 79440, Note_on_c, 0, 84, 0
2, 79560, Note_on_c, 0, 84, 68
2, 79680, Note_on_c, 0, 84, 0
2, 79680, Note_on_c, 0, 83, 74
2, 79760, Note_on_c, 0, 83, 0
2, 79760, Note_on_c, 0, 81, 65
2, 79840, Note_on_c, 0, 81, 0
2, 79840, Note_on_c, 0, 79, 65
2, 79920, Note_on_c, 0, 79, 0
2, 79920, Note_on_c, 0, 78, 69
2, 80000, Note_on_c, 0, 78, 0
2, 80000, Note_on_c, 0, 76, 59
2, 80080, Note_on_c, 0, 76, 0
2, 80080, Note_on_c, 0, 74, 59
2, 80160, Note_on_c, 0, 74, 0
2, 80160, Note_on_c, 0, 81, 65
2, 80240, Note_on_c, 0, 81, 0
2, 80240, Note_on_c, 0, 83, 56
2, 80320, Note_on_c, 0, 83, 0
2, 80320, Note_on_c, 0, 81, 56
2, 80400, Note_on_c, 0, 81, 0
2, 80400, Note_on_c, 0, 83, 59
2, 80460, Note_on_c, 0, 83, 0
2, 80460, Note_on_c, 0, 81, 53
2, 80520, Note_on_c, 0, 81, 0
2, 80520, Note_on_c, 0, 79, 59
2, 80580, Note_on_c, 0, 79, 0
2, 80580, Note_on_c, 0, 81, 54
2, 80640, Note_on_c, 0, 81, 0
2, 80640, Note_on_c, 0, 79, 59
2, 80880, Note_on_c, 0, 79, 0
2, 80880, Note_on_c, 0, 79, 68
2, 81120, Note_on_c, 0, 79, 0
2, 81120, Note_on_c, 0, 78, 63
2, 81360, Note_on_c, 0, 78, 0
2, 81360, Note_on_c, 0, 76, 63
2, 81600, Note_on_c, 0, 76, 0
2, 81600, Note_on_c, 0, 74, 70
2, 81840, Note_on_c, 0, 74, 0
2, 81840, Note_on_c, 0, 76, 70
2, 81920, Note_on_c, 0, 76, 0
2, 81920, Note_on_c, 0, 74, 65
2, 82000, Note_on_c, 0, 74, 0
2, 82000, Note_on_c, 0, 72, 65
2, 82080, Note_on_c, 0, 72, 0
2, 82080, Note_on_c, 0, 71, 73
2, 82320, Note_on_c, 0, 71, 0
2, 82320, Note_on_c, 0, 69, 73
2, 82368, Note_on_c, 0, 69, 0
2, 82368, Note_on_c, 0, 71, 66
2, 82416, Note_on_c, 0, 71, 0
2, 82416, Note_on_c, 0, 69, 67
2, 82464, Note_on_c, 0, 69, 0
2, 82464, Note_on_c, 0, 67, 67
2, 82512, Note_on_c, 0, 67, 0
2, 82512, Note_on_c, 0, 69, 67
2, 82560, Note_on_c, 0, 69, 0
2, 82560, Note_on_c, 0, 67, 76
2, 82800, Note_on_c, 0, 67, 0
2, 82800, Note_on_c, 0, 79, 43
2, 83040, Note_on_c, 0, 79, 0
2, 83040, Note_on_c, 0, 78, 42
2, 83280, Note_on_c, 0, 78, 0
2, 83280, Note_on_c, 0, 76, 41
2, 83520, Note_on_c, 0, 76, 0
2, 83520, Note_on_c, 0, 74, 44
2, 83760, Note_on_c, 0, 74, 0
2, 83760, Note_on_c, 0, 76, 49
2, 83840, Note_on_c, 0, 76, 0
2, 83840, Note_on_c, 0, 74, 45
2, 83920, Note_on_c, 0, 74, 0
2, 83920, Note_on_c, 0, 72, 45
2, 84000, Note_on_c, 0, 72, 0
2, 84000, Note_on_c, 0, 71, 52
2, 84240, Note_on_c, 0, 71, 0
2, 84240, Note_on_c, 0, 69, 51
2, 84288, Note_on_c, 0, 69, 0
2, 84288, Note_on_c, 0, 71, 46
2, 84336, Note_on_c, 0, 71, 0
2, 84336, Note_on_c, 0, 69, 46
2, 84384, Note_on_c, 0, 69, 0
2, 84384, Note_on_c, 0, 67, 46
2, 84432, Note_on_c, 0, 67, 0
2, 84432, Note_on_c, 0, 69, 46
2, 84480, Note_on_c, 0, 69, 0
2, 84480, Note_on_c, 0, 67, 53
2, 84960, Note_on_c, 0, 67, 0
2, 84960, End_track
3, 0, Start_track
3, 0, Title_t, "Piano left"
3, 0, Program_c, 0, 0
3, 960, Note_on_c, 0, 55, 52
3, 960, Note_on_c, 0, 59, 62
3, 1440, Note_on_c, 0, 59, 0
3, 1440, Note_on_c, 0, 55, 0
3, 2160, Note_on_c, 0, 55, 47
3, 2160, Note_on_c, 0, 59, 56
3, 2400, Note_on_c, 0, 59, 0
3, 2400, Note_on_c, 0, 55, 0
3, 2400, Note_on_c, 0, 55, 52
3, 2400, Note_on_c, 0, 59, 62
3, 2880, Note_on_c, 0, 59, 0
3, 2880, Note_on_c, 0, 55, 0
3, 3120, Note_on_c, 0, 55, 47
3, 3120, Note_on_c, 0, 59, 56
3, 3360, Note_on_c, 0, 59, 0
3, 3360, Note_on_c, 0, 55, 0
3, 3360, Note_on_c, 0, 55, 52
3, 3360, Note_on_c, 0, 59, 62
3, 3840, Note_on_c, 0, 59, 0
3, 3840, Note_on_c, 0, 55, 0
3, 4080, Note_on_c, 0, 55, 47
3, 4080, Note_on_c, 0, 59, 56
3, 4320, Note_on_c, 0, 59, 0
3, 4320, Note_on_c, 0, 55, 0
3, 4320, Note_on_c, 0, 55, 52
3, 4320, Note_on_c, 0, 59, 62
3, 4800, Note_on_c, 0, 59, 0
3, 4800, Note_on_c, 0, 55, 0
3, 4800, Note_on_c, 0, 48, 52
3, 4800, Note_on_c, 0, 60, 62
3, 5280, Note_on_c, 0, 60, 0
3, 5280, Note_on_c, 0, 48, 0
3, 5280, Note_on_c, 0, 47, 52
3, 5280, Note_on_c, 0, 59, 62
3, 5760, Note_on_c, 0, 59, 0
3, 5760, Note_on_c, 0, 47, 0
3, 5760, Note_on_c, 0, 57, 52
3, 6000, Note_on_c, 0, 57, 0
3, 6000, Note_on_c, 0, 50, 44
3, 6240, Note_on_c, 0, 50, 0
3, 6240, Note_on_c, 0, 55, 52
3, 6720, Note_on_c, 0, 55, 0
3, 6720, Note_on_c, 0, 48, 52
3, 7440, Note_on_c, 0, 48, 0
3, 7440, Note_on_c, 0, 49, 47
3, 7680, Note_on_c, 0, 49, 0
3, 7680, Note_on_c, 0, 50, 51
3, 7920, Note_on_c, 0, 50, 0
3, 7920, Note_on_c, 0, 38, 46
3, 8160, Note_on_c, 0, 38, 0
3, 8160, Note_on_c, 0, 50, 51
3, 8280, Note_on_c, 0, 50, 0
3, 8400, Note_on_c, 0, 54, 46
3, 8520, Note_on_c, 0, 54, 0
3, 8640, Note_on_c, 0, 57, 47
3, 8760, Note_on_c, 0, 57, 0
3, 8880, Note_on_c, 0, 62, 51
3, 9000, Note_on_c, 0, 62, 0
3, 9120, Note_on_c, 0, 66, 56
3, 9240, Note_on_c, 0, 66, 0
3, 9360, Note_on_c, 0, 62, 50
3, 9480, Note_on_c, 0, 62, 0
3, 9600, Note_on_c, 0, 64, 58
3, 9840, Note_on_c, 0, 64, 0
3, 9840, Note_on_c, 0, 62, 51
3, 10080, Note_on_c, 0, 62, 0
3, 10080, Note_on_c, 0, 67, 58
3, 10320, Note_on_c, 0, 67, 0
3, 10320, Note_on_c, 0, 66, 52
3, 10560, Note_on_c, 0, 66, 0
3, 10560, Note_on_c, 0, 64, 57
3, 10800, Note_on_c, 0, 64, 0
3, 10800, Note_on_c, 0, 66, 51
3, 11040, Note_on_c, 0, 66, 0
3, 11040, Note_on_c, 0, 45, 51
3, 11160, Note_on_c, 0, 45, 0
3, 11280, Note_on_c, 0, 49, 46
3, 11400, Note_on_c, 0, 49, 0
3, 11520, Note_on_c, 0, 52, 47
3, 11640, Note_on_c, 0, 52, 0
3, 11760, Note_on_c, 0, 57, 51
3, 11880, Note_on_c, 0, 57, 0
3, 12000, Note_on_c, 0, 61, 56
3, 12120, Note_on_c, 0, 61, 0
3, 12240, Note_on_c, 0, 64, 50
3, 12360, Note_on_c, 0, 64, 0
3, 12480, Note_on_c, 0, 62, 58
3, 12960, Note_on_c, 0, 62, 0
3, 12960, Note_on_c, 0, 62, 58
3, 13200, Note_on_c, 0, 62, 0
3, 13200, Note_on_c, 0, 61, 52
3, 13440, Note_on_c, 0, 61, 0
3, 13440, Note_on_c, 0, 62, 58
3, 13680, Note_on_c, 0, 62, 0
3, 13680, Note_on_c, 0, 59, 55
3, 13800, Note_on_c, 0, 59, 0
3, 13800, Note_on_c, 0, 62, 44
3, 13920, Note_on_c, 0, 62, 0
3, 13920, Note_on_c, 0, 57, 54
3, 14040, Note_on_c, 0, 57, 0
3, 14040, Note_on_c, 0, 62, 50
3, 14160, Note_on_c, 0, 62, 0
3, 14160, Note_on_c, 0, 55, 55
3, 14280, Note_on_c, 0, 55, 0
3, 14280, Note_on_c, 0, 62, 47
3, 14400, Note_on_c, 0, 62, 0
3, 14400, Note_on_c, 0, 54, 55
3, 14640, Note_on_c, 0, 54, 0
3, 14640, Note_on_c, 0, 55, 51
3, 14880, Note_on_c, 0, 55, 0
3, 14880, Note_on_c, 0, 57, 57
3, 15120, Note_on_c, 0, 57, 0
3, 15120, Note_on_c, 0, 45, 55
3, 15360, Note_on_c, 0, 45, 0
3, 15360, Note_on_c, 0, 50, 59
3, 15480, Note_on_c, 0, 50, 0
3, 15600, Note_on_c, 0, 45, 54
3, 15720, Note_on_c, 0, 45, 0
3, 15840, Note_on_c, 0, 38, 50
3, 15960, Note_on_c, 0, 38, 0
3, 16320, Note_on_c, 0, 55, 52
3, 16320, Note_on_c, 0, 59, 62
3, 16800, Note_on_c, 0, 59, 0
3, 16800, Note_on_c, 0, 55, 0
3, 17520, Note_on_c, 0, 55, 47
3, 17520, Note_on_c, 0, 59, 56
3, 17760, Note_on_c, 0, 59, 0
3, 17760, Note_on_c, 0, 55, 0
3, 17760, Note_on_c, 0, 55, 52
3, 17760, Note_on_c, 0, 59, 62
3, 18240, Note_on_c, 0, 59, 0
3, 18240, Note_on_c, 0, 55, 0
3, 18480, Note_on_c, 0, 55, 47
3, 18480, Note_on_c, 0, 59, 56
3, 18720, Note_on_c, 0, 59, 0
3, 18720, Note_on_c, 0, 55, 0
3, 18720, Note_on_c, 0, 55, 52
3, 18720, Note_on_c, 0, 59, 62
3, 19200, Note_on_c, 0, 59, 0
3, 19200, Note_on_c, 0, 55, 0
3, 19440, Note_on_c, 0, 55, 47
3, 19440, Note_on_c, 0, 59, 56
3, 19680, Note_on_c, 0, 59, 0
3, 19680, Note_on_c, 0, 55, 0
3, 19680, Note_on_c, 0, 55, 52
3, 19680, Note_on_c, 0, 59, 62
3, 20160, Note_on_c, 0, 59, 0
3, 20160, Note_on_c, 0, 55, 0
3, 20160, Note_on_c, 0, 48, 52
3, 20160, Note_on_c, 0, 60, 62
3, 20640, Note_on_c, 0, 60, 0
3, 20640, Note_on_c, 0, 48, 0
3, 20640, Note_on_c, 0, 47, 52
3, 20640, Note_on_c, 0, 59, 62
3, 21120, Note_on_c, 0, 59, 0
3, 21120, Note_on_c, 0, 47, 0
3, 21120, Note_on_c, 0, 57, 52
3, 21360, Note_on_c, 0, 57, 0
3, 21360, Note_on_c, 0, 50, 44
3, 21600, Note_on_c, 0, 50, 0
3, 21600, Note_on_c, 0, 55, 52
3, 22080, Note_on_c, 0, 55, 0
3, 22080, Note_on_c, 0, 48, 52
3, 22800, Note_on_c, 0, 48, 0
3, 22800, Note_on_c, 0, 49, 47
3, 23040, Note_on_c, 0, 49, 0
3, 23040, Note_on_c, 0, 50, 51
3, 23280, Note_on_c, 0, 50, 0
3, 23280, Note_on_c, 0, 38, 46
3, 23520, Note_on_c, 0, 38, 0
3, 23520, Note_on_c, 0, 50, 51
3, 23640, Note_on_c, 0, 50, 0
3, 23760, Note_on_c, 0, 54, 46
3, 23880, Note_on_c, 0, 54, 0
3, 24000, Note_on_c, 0, 57, 47
3, 24120, Note_on_c, 0, 57, 0
3, 24240, Note_on_c, 0, 62, 51
3, 24360, Note_on_c, 0, 62, 0
3, 24480, Note_on_c, 0, 66, 56
3, 24600, Note_on_c, 0, 66, 0
3, 24720, Note_on_c, 0, 62, 50
3, 24840, Note_on_c, 0, 62, 0
3, 24960, Note_on_c, 0, 64, 58
3, 25200, Note_on_c, 0, 64, 0
3, 25200, Note_on_c, 0, 62, 51
3, 25440, Note_on_c, 0, 62, 0
3, 25440, Note_on_c, 0, 67, 58
3, 25680, Note_on_c, 0, 67, 0
3, 25680, Note_on_c, 0, 66, 52
3, 25920, Note_on_c, 0, 66, 0
3, 25920, Note_on_c, 0, 64, 57
3, 26160, Note_on_c, 0, 64, 0
3, 26160, Note_on_c, 0, 66, 51
3, 26400, Note_on_c, 0, 66, 0
3, 26400, Note_on_c, 0, 45, 51
3, 26520, Note_on_c, 0, 45, 0
3, 26640, Note_on_c, 0, 49, 46
3, 26760, Note_on_c, 0, 49, 0
3, 26880, Note_on_c, 0, 52, 47
3, 27000, Note_on_c, 0, 52, 0
3, 27120, Note_on_c, 0, 57, 51
3, 27240, Note_on_c, 0, 57, 0
3, 27360, Note_on_c, 0, 61, 56
3, 27480, Note_on_c, 0, 61, 0
3, 27600, Note_on_c, 0, 64, 50
3, 27720, Note_on_c, 0, 64, 0
3, 27840, Note_on_c, 0, 62, 58
3, 28320, Note_on_c, 0, 62, 0
3, 28320, Note_on_c, 0, 62, 58
3, 28560, Note_on_c, 0, 62, 0
3, 28560, Note_on_c, 0, 61, 52
3, 28800, Note_on_c, 0, 61, 0
3, 28800, Note_on_c, 0, 62, 58
3, 29040, Note_on_c, 0, 62, 0
3, 29040, Note_on_c, 0, 59, 55
3, 29160, Note_on_c, 0, 59, 0
3, 29160, Note_on_c, 0, 62, 44
3, 29280, Note_on_c, 0, 62, 0
3, 29280, Note_on_c, 0, 57, 54
3, 29400, Note_on_c, 0, 57, 0
3, 29400, Note_on_c, 0, 62, 50
3, 29520, Note_on_c, 0, 62, 0
3, 29520, Note_on_c, 0, 55, 55
3, 29640, Note_on_c, 0, 55, 0
3, 29640, Note_on_c, 0, 62, 47
3, 29760, Note_on_c, 0, 62, 0
3, 29760, Note_on_c, 0, 54, 55
3, 30000, Note_on_c, 0, 54, 0
3, 30000, Note_on_c, 0, 55, 51
3, 30240, Note_on_c, 0, 55, 0
3, 30240, Note_on_c, 0, 57, 57
3, 30480, Note_on_c, 0, 57, 0
3, 30480, Note_on_c, 0, 45, 55
3, 30720, Note_on_c, 0, 45, 0
3, 30720, Note_on_c, 0, 50, 59
3, 30840, Note_on_c, 0, 50, 0
3, 30960, Note_on_c, 0, 45, 54
3, 31080, Note_on_c, 0, 45, 0
3, 31200, Note_on_c, 0, 38, 50
3, 31320, Note_on_c, 0, 38, 0
3, 31680, Note_on_c, 0, 62, 50
3, 31920, Note_on_c, 0, 66, 43
3, 32160, Note_on_c, 0, 66, 0
3, 32160, Note_on_c, 0, 69, 43
3, 32400, Note_on_c, 0, 69, 0
3, 32400, Note_on_c, 0, 72, 43
3, 32640, Note_on_c, 0, 72, 0
3, 32640, Note_on_c, 0, 62, 0
3, 32640, Note_on_c, 0, 71, 50
3, 32640, Note_on_c, 0, 62, 50
3, 32880, Note_on_c, 0, 71, 0
3, 32880, Note_on_c, 0, 67, 46
3, 33120, Note_on_c, 0, 67, 0
3, 33120, Note_on_c, 0, 69, 46
3, 33360, Note_on_c, 0, 69, 0
3, 33360, Note_on_c, 0, 66, 46
3, 33600, Note_on_c, 0, 66, 0
3, 33600, Note_on_c, 0, 62, 0
3, 33600, Note_on_c, 0, 62, 50
3, 33600, Note_on_c, 0, 67, 50
3, 33840, Note_on_c, 0, 67, 0
3, 33840, Note_on_c, 0, 69, 46
3, 34080, Note_on_c, 0, 69, 0
3, 34080, Note_on_c, 0, 71, 50
3, 34320, Note_on_c, 0, 71, 0
3, 34320, Note_on_c, 0, 62, 0
3, 34800, Note_on_c, 0, 50, 45
3, 34920, Note_on_c, 0, 50, 0
3, 34920, Note_on_c, 0, 62, 39
3, 35040, Note_on_c, 0, 62, 0
3, 35040, Note_on_c, 0, 52, 48
3, 35160, Note_on_c, 0, 52, 0
3, 35160, Note_on_c, 0, 62, 41
3, 35280, Note_on_c, 0, 62, 0
3, 35280, Note_on_c, 0, 54, 49
3, 35400, Note_on_c, 0, 54, 0
3, 35400, Note_on_c, 0, 62, 43
3, 35520, Note_on_c, 0, 62, 0
3, 35520, Note_on_c, 0, 55, 51
3, 35640, Note_on_c, 0, 55, 0
3, 35640, Note_on_c, 0, 62, 45
3, 35760, Note_on_c, 0, 62, 0
3, 35760, Note_on_c, 0, 57, 53
3, 35880, Note_on_c, 0, 57, 0
3, 35880, Note_on_c, 0, 62, 45
3, 36000, Note_on_c, 0, 62, 0
3, 36000, Note_on_c, 0, 59, 50
3, 36240, Note_on_c, 0, 59, 0
3, 36720, Note_on_c, 0, 43, 51
3, 36840, Note_on_c, 0, 43, 0
3, 36840, Note_on_c, 0, 55, 44
3, 36960, Note_on_c, 0, 55, 0
3, 36960, Note_on_c, 0, 45, 55
3, 37080, Note_on_c, 0, 45, 0
3, 37080, Note_on_c, 0, 55, 47
3, 37200, Note_on_c, 0, 55, 0
3, 37200, Note_on_c, 0, 47, 56
3, 37320, Note_on_c, 0, 47, 0
3, 37320, Note_on_c, 0, 55, 49
3, 37440, Note_on_c, 0, 55, 0
3, 37440, Note_on_c, 0, 48, 58
3, 37560, Note_on_c, 0, 48, 0
3, 37560, Note_on_c, 0, 55, 51
3, 37680, Note_on_c, 0, 55, 0
3, 37680, Note_on_c, 0, 50, 60
3, 37800, Note_on_c, 0, 50, 0
3, 37800, Note_on_c, 0, 55, 51
3, 37920, Note_on_c, 0, 55, 0
3, 37920, Note_on_c, 0, 52, 57
3, 38160, Note_on_c, 0, 52, 0
3, 38160, Note_on_c, 0, 60, 52
3, 38400, Note_on_c, 0, 60, 0
3, 38400, Note_on_c, 0, 59, 57
3, 38640, Note_on_c, 0, 59, 0
3, 38640, Note_on_c, 0, 57, 49
3, 38880, Note_on_c, 0, 57, 0
3, 38880, Note_on_c, 0, 55, 54
3, 39120, Note_on_c, 0, 55, 0
3, 39120, Note_on_c, 0, 59, 50
3, 39360, Note_on_c, 0, 59, 0
3, 39360, Note_on_c, 0, 60, 54
3, 40080, Note_on_c, 0, 60, 0
3, 40080, Note_on_c, 0, 61, 48
3, 40200, Note_on_c, 0, 61, 0
3, 40320, Note_on_c, 0, 62, 51
3, 40440, Note_on_c, 0, 62, 0
3, 40560, Note_on_c, 0, 57, 46
3, 40680, Note_on_c, 0, 57, 0
3, 40800, Note_on_c, 0, 50, 46
3, 40920, Note_on_c, 0, 50, 0
3, 41280, Note_on_c, 0, 55, 62
3, 41280, Note_on_c, 0, 59, 62
3, 41760, Note_on_c, 0, 59, 0
3, 41760, Note_on_c, 0, 55, 0
3, 42480, Note_on_c, 0, 31, 56
3, 42480, Note_on_c, 0, 43, 67
3, 42720, Note_on_c, 0, 43, 0
3, 42720, Note_on_c, 0, 31, 0
3, 42720, Note_on_c, 0, 31, 62
3, 42720, Note_on_c, 0, 43, 70
3, 43200, Note_on_c, 0, 43, 0
3, 43200, Note_on_c, 0, 31, 0
3, 43440, Note_on_c, 0, 55, 47
3, 43440, Note_on_c, 0, 59, 56
3, 43680, Note_on_c, 0, 59, 0
3, 43680, Note_on_c, 0, 55, 0
3, 43680, Note_on_c, 0, 55, 52
3, 43680, Note_on_c, 0, 59, 62
3, 44160, Note_on_c, 0, 59, 0
3, 44160, Note_on_c, 0, 55, 0
3, 44400, Note_on_c, 0, 55, 47
3, 44400, Note_on_c, 0, 59, 56
3, 44640, Note_on_c, 0, 59, 0
3, 44640, Note_on_c, 0, 55, 0
3, 44640, Note_on_c, 0, 55, 52
3, 44640, Note_on_c, 0, 59, 62
3, 45120, Note_on_c, 0, 59, 0
3, 45120, Note_on_c, 0, 55, 0
3, 45120, Note_on_c, 0, 48, 52
3, 45120, Note_on_c, 0, 60, 62
3, 45600, Note_on_c, 0, 60, 0
3, 45600, Note_on_c, 0, 48, 0
3, 45600, Note_on_c, 0, 47, 52
3, 45600, Note_on_c, 0, 59, 62
3, 46080, Note_on_c, 0, 59, 0
3, 46080, Note_on_c, 0, 47, 0
3, 46080, Note_on_c, 0, 57, 52
3, 46320, Note_on_c, 0, 57, 0
3, 46320, Note_on_c, 0, 50, 44
3, 46560, Note_on_c, 0, 50, 0
3, 46560, Note_on_c, 0, 55, 52
3, 47040, Note_on_c, 0, 55, 0
3, 47040, Note_on_c, 0, 60, 52
3, 47760, Note_on_c, 0, 60, 0
3, 47760, Note_on_c, 0, 61, 47
3, 48000, Note_on_c, 0, 61, 0
3, 48000, Note_on_c, 0, 62, 51
3, 48240, Note_on_c, 0, 62, 0
3, 48240, Note_on_c, 0, 50, 46
3, 48480, Note_on_c, 0, 50, 0
3, 48480, Note_on_c, 0, 55, 51
3, 48600, Note_on_c, 0, 55, 0
3, 48720, Note_on_c, 0, 59, 46
3, 48840, Note_on_c, 0, 59, 0
3, 48960, Note_on_c, 0, 62, 47
3, 49080, Note_on_c, 0, 62, 0
3, 49200, Note_on_c, 0, 67, 51
3, 49320, Note_on_c, 0, 67, 0
3, 49440, Note_on_c, 0, 71, 56
3, 49560, Note_on_c, 0, 71, 0
3, 49680, Note_on_c, 0, 67, 50
3, 49800, Note_on_c, 0, 67, 0
3, 49920, Note_on_c, 0, 69, 58
3, 50160, Note_on_c, 0, 69, 0
3, 50160, Note_on_c, 0, 67, 51
3, 50400, Note_on_c, 0, 67, 0
3, 50400, Note_on_c, 0, 72, 58
3, 50640, Note_on_c, 0, 72, 0
3, 50640, Note_on_c, 0, 71, 52
3, 50880, Note_on_c, 0, 71, 0
3, 50880, Note_on_c, 0, 69, 57
3, 51120, Note_on_c, 0, 69, 0
3, 51120, Note_on_c, 0, 71, 51
3, 51360, Note_on_c, 0, 71, 0
3, 51360, Note_on_c, 0, 50, 69
3, 51480, Note_on_c, 0, 50, 0
3, 51600, Note_on_c, 0, 54, 59
3, 51720, Note_on_c, 0, 54, 0
3, 51840, Note_on_c, 0, 57, 72
3, 51960, Note_on_c, 0, 57, 0
3, 52080, Note_on_c, 0, 62, 62
3, 52200, Note_on_c, 0, 62, 0
3, 52320, Note_on_c, 0, 66, 71
3, 52440, Note_on_c, 0, 66, 0
3, 52560, Note_on_c, 0, 69, 65
3, 52680, Note_on_c, 0, 69, 0
3, 52800, Note_on_c, 0, 67, 80
3, 53280, Note_on_c, 0, 67, 0
3, 53280, Note_on_c, 0, 62, 59
3, 53280, Note_on_c, 0, 67, 67
3, 53520, Note_on_c, 0, 67, 0
3, 53520, Note_on_c, 0, 66, 52
3, 53760, Note_on_c, 0, 66, 0
3, 53760, Note_on_c, 0, 62, 0
3, 53760, Note_on_c, 0, 67, 58
3, 54000, Note_on_c, 0, 67, 0
3, 54000, Note_on_c, 0, 64, 55
3, 54120, Note_on_c, 0, 64, 0
3, 54120, Note_on_c, 0, 67, 44
3, 54240, Note_on_c, 0, 67, 0
3, 54240, Note_on_c, 0, 62, 54
3, 54360, Note_on_c, 0, 62, 0
3, 54360, Note_on_c, 0, 67, 50
3, 54480, Note_on_c, 0, 67, 0
3, 54480, Note_on_c, 0, 60, 55
3, 54600, Note_on_c, 0, 60, 0
3, 54600, Note_on_c, 0, 67, 47
3, 54720, Note_on_c, 0, 67, 0
3, 54720, Note_on_c, 0, 59, 55
3, 54960, Note_on_c, 0, 59, 0
3, 54960, Note_on_c, 0, 60, 51
3, 55200, Note_on_c, 0, 60, 0
3, 55200, Note_on_c, 0, 62, 57
3, 55440, Note_on_c, 0, 62, 0
3, 55440, Note_on_c, 0, 50, 55
3, 55680, Note_on_c, 0, 50, 0
3, 55680, Note_on_c, 0, 55, 59
3, 55920, Note_on_c, 0, 55, 0
3, 55920, Note_on_c, 0, 64, 38
3, 56040, Note_on_c, 0, 64, 0
3, 56040, Note_on_c, 0, 67, 30
3, 56160, Note_on_c, 0, 67, 0
3, 56160, Note_on_c, 0, 62, 37
3, 56280, Note_on_c, 0, 62, 0
3, 56280, Note_on_c, 0, 67, 35
3, 56400, Note_on_c, 0, 67, 0
3, 56400, Note_on_c, 0, 60, 38
3, 56520, Note_on_c, 0, 60, 0
3, 56520, Note_on_c, 0, 67, 32
3, 56640, Note_on_c, 0, 67, 0
3, 56640, Note_on_c, 0, 59, 38
3, 56880, Note_on_c, 0, 59, 0
3, 56880, Note_on_c, 0, 60, 35
3, 57120, Note_on_c, 0, 60, 0
3, 57120, Note_on_c, 0, 62, 39
3, 57360, Note_on_c, 0, 62, 0
3, 57360, Note_on_c, 0, 50, 38
3, 57600, Note_on_c, 0, 50, 0
3, 57600, Note_on_c, 0, 55, 41
3, 57720, Note_on_c, 0, 55, 0
3, 57840, Note_on_c, 0, 50, 37
3, 57960, Note_on_c, 0, 50, 0
3, 58080, Note_on_c, 0, 43, 42
3, 58200, Note_on_c, 0, 43, 0
3, 58560, Note_on_c, 0, 62, 50
3, 58800, Note_on_c, 0, 66, 43
3, 59040, Note_on_c, 0, 66, 0
3, 59040, Note_on_c, 0, 69, 43
3, 59280, Note_on_c, 0, 69, 0
3, 59280, Note_on_c, 0, 72, 43
3, 59520, Note_on_c, 0, 72, 0
3, 59520, Note_on_c, 0, 62, 0
3, 59520, Note_on_c, 0, 71, 50
3, 59520, Note_on_c, 0, 62, 50
3, 59760, Note_on_c, 0, 71, 0
3, 59760, Note_on_c, 0, 67, 46
3, 60000, Note_on_c, 0, 67, 0
3, 60000, Note_on_c, 0, 69, 46
3, 60240, Note_on_c, 0, 69, 0
3, 60240, Note_on_c, 0, 66, 46
3, 60480, Note_on_c, 0, 66, 0
3, 60480, Note_on_c, 0, 62, 0
3, 60480, Note_on_c, 0, 62, 50
3, 60480, Note_on_c, 0, 67, 50
3, 60720, Note_on_c, 0, 67, 0
3, 60720, Note_on_c, 0, 69, 46
3, 60960, Note_on_c, 0, 69, 0
3, 60960, Note_on_c, 0, 71, 50
3, 61200, Note_on_c, 0, 71, 0
3, 61200, Note_on_c, 0, 62, 0
3, 61680, Note_on_c, 0, 50, 45
3, 61800, Note_on_c, 0, 50, 0
3, 61800, Note_on_c, 0, 62, 39
3, 61920, Note_on_c, 0, 62, 0
3, 61920, Note_on_c, 0, 52, 48
3, 62040, Note_on_c, 0, 52, 0
3, 62040, Note_on_c, 0, 62, 41
3, 62160, Note_on_c, 0, 62, 0
3, 62160, Note_on_c, 0, 54, 49
3, 62280, Note_on_c, 0, 54, 0
3, 62280, Note_on_c, 0, 62, 43
3, 62400, Note_on_c, 0, 62, 0
3, 62400, Note_on_c, 0, 55, 51
3, 62520, Note_on_c, 0, 55, 0
3, 62520, Note_on_c, 0, 62, 45
3, 62640, Note_on_c, 0, 62, 0
3, 62640, Note_on_c, 0, 57, 53
3, 62760, Note_on_c, 0, 57, 0
3, 62760, Note_on_c, 0, 62, 45
3, 62880, Note_on_c, 0, 62, 0
3, 62880, Note_on_c, 0, 59, 50
3, 63120, Note_on_c, 0, 59, 0
3, 63600, Note_on_c, 0, 43, 51
3, 63720, Note_on_c, 0, 43, 0
3, 63720, Note_on_c, 0, 55, 44
3, 63840, Note_on_c, 0, 55, 0
3, 63840, Note_on_c, 0, 45, 55
3, 63960, Note_on_c, 0, 45, 0
3, 63960, Note_on_c, 0, 55, 47
3, 64080, Note_on_c, 0, 55, 0
3, 64080, Note_on_c, 0, 47, 56
3, 64200, Note_on_c, 0, 47, 0
3, 64200, Note_on_c, 0, 55, 49
3, 64320, Note_on_c, 0, 55, 0
3, 64320, Note_on_c, 0, 48, 58
3, 64440, Note_on_c, 0, 48, 0
3, 64440, Note_on_c, 0, 55, 51
3, 64560, Note_on_c, 0, 55, 0
3, 64560, Note_on_c, 0, 50, 60
3, 64680, Note_on_c, 0, 50, 0
3, 64680, Note_on_c, 0, 55, 51
3, 64800, Note_on_c, 0, 55, 0
3, 64800, Note_on_c, 0, 52, 57
3, 65040, Note_on_c, 0, 52, 0
3, 65040, Note_on_c, 0, 60, 52
3, 65280, Note_on_c, 0, 60, 0
3, 65280, Note_on_c, 0, 59, 57
3, 65520, Note_on_c, 0, 59, 0
3, 65520, Note_on_c, 0, 57, 49
3, 65760, Note_on_c, 0, 57, 0
3, 65760, Note_on_c, 0, 55, 54
3, 66000, Note_on_c, 0, 55, 0
3, 66000, Note_on_c, 0, 59, 50
3, 66240, Note_on_c, 0, 59, 0
3, 66240, Note_on_c, 0, 60, 54
3, 66960, Note_on_c, 0, 60, 0
3, 66960, Note_on_c, 0, 61, 48
3, 67080, Note_on_c, 0, 61, 0
3, 67200, Note_on_c, 0, 62, 51
3, 67320, Note_on_c, 0, 62, 0
3, 67440, Note_on_c, 0, 57, 46
3, 67560, Note_on_c, 0, 57, 0
3, 67680, Note_on_c, 0, 50, 46
3, 67800, Note_on_c, 0, 50, 0
3, 68160, Note_on_c, 0, 55, 62
3, 68160, Note_on_c, 0, 59, 62
3, 68640, Note_on_c, 0, 59, 0
3, 68640, Note_on_c, 0, 55, 0
3, 69360, Note_on_c, 0, 31, 56
3, 69360, Note_on_c, 0, 43, 67
3, 69600, Note_on_c, 0, 43, 0
3, 69600, Note_on_c, 0, 31, 0
3, 69600, Note_on_c, 0, 31, 62
3, 69600, Note_on_c, 0, 43, 70
3, 70080, Note_on_c, 0, 43, 0
3, 70080, Note_on_c, 0, 31, 0
3, 70320, Note_on_c, 0, 55, 47
3, 70320, Note_on_c, 0, 59, 56
3, 70560, Note_on_c, 0, 59, 0
3, 70560, Note_on_c, 0, 55, 0
3, 70560, Note_on_c, 0, 55, 52
3, 70560, Note_on_c, 0, 59, 62
3, 71040, Note_on_c, 0, 59, 0
3, 71040, Note_on_c, 0, 55, 0
3, 71280, Note_on_c, 0, 55, 47
3, 71280, Note_on_c, 0, 59, 56
3, 71520, Note_on_c, 0, 59, 0
3, 71520, Note_on_c, 0, 55, 0
3, 71520, Note_on_c, 0, 55, 52
3, 71520, Note_on_c, 0, 59, 62
3, 72000, Note_on_c, 0, 59, 0
3, 72000, Note_on_c, 0, 55, 0
3, 72000, Note_on_c, 0, 48, 52
3, 72000, Note_on_c, 0, 60, 62
3, 72480, Note_on_c, 0, 60, 0
3, 72480, Note_on_c, 0, 48, 0
3, 72480, Note_on_c, 0, 47, 52
3, 72480, Note_on_c, 0, 59, 62
3, 72960, Note_on_c, 0, 59, 0
3, 72960, Note_on_c, 0, 47, 0
3, 72960, Note_on_c, 0, 57, 52
3, 73200, Note_on_c, 0, 57, 0
3, 73200, Note_on_c, 0, 50, 44
3, 73440, Note_on_c, 0, 50, 0
3, 73440, Note_on_c, 0, 55, 52
3, 73920, Note_on_c, 0, 55, 0
3, 73920, Note_on_c, 0, 60, 52
3, 74640, Note_on_c, 0, 60, 0
3, 74640, Note_on_c, 0, 61, 47
3, 74880, Note_on_c, 0, 61, 0
3, 74880, Note_on_c, 0, 62, 51
3, 75120, Note_on_c, 0, 62, 0
3, 75120, Note_on_c, 0, 50, 46
3, 75360, Note_on_c, 0, 50, 0
3, 75360, Note_on_c, 0, 55, 51
3, 75480, Note_on_c, 0, 55, 0
3, 75600, Note_on_c, 0, 59, 46
3, 75720, Note_on_c, 0, 59, 0
3, 75840, Note_on_c, 0, 62, 47
3, 75960, Note_on_c, 0, 62, 0
3, 76080, Note_on_c, 0, 67, 51
3, 76200, Note_on_c, 0, 67, 0
3, 76320, Note_on_c, 0, 71, 56
3, 76440, Note_on_c, 0, 71, 0
3, 76560, Note_on_c, 0, 67, 50
3, 76680, Note_on_c, 0, 67, 0
3, 76800, Note_on_c, 0, 69, 58
3, 77040, Note_on_c, 0, 69, 0
3, 77040, Note_on_c, 0, 67, 51
3, 77280, Note_on_c, 0, 67, 0
3, 77280, Note_on_c, 0, 72, 58
3, 77520, Note_on_c, 0, 72, 0
3, 77520, Note_on_c, 0, 71, 52
3, 77760, Note_on_c, 0, 71, 0
3, 77760, Note_on_c, 0, 69, 57
3, 78000, Note_on_c, 0, 69, 0
3, 78000, Note_on_c, 0, 71, 51
3, 78240, Note_on_c, 0, 71, 0
3, 78240, Note_on_c, 0, 50, 69
3, 78360, Note_on_c, 0, 50, 0
3, 78480, Note_on_c, 0, 54, 59
3, 78600, Note_on_c, 0, 54, 0
3, 78720, Note_on_c, 0, 57, 72
3, 78840, Note_on_c, 0, 57, 0
3, 78960, Note_on_c, 0, 62, 62
3, 79080, Note_on_c, 0, 62, 0
3, 79200, Note_on_c, 0, 66, 71
3, 79320, Note_on_c, 0, 66, 0
3, 79440, Note_on_c, 0, 69, 65
3, 79560, Note_on_c, 0, 69, 0
3, 79680, Note_on_c, 0, 67, 80
3, 80160, Note_on_c, 0, 67, 0
3, 80160, Note_on_c, 0, 62, 59
3, 80160, Note_on_c, 0, 67, 67
3, 80400, Note_on_c, 0, 67, 0
3, 80400, Note_on_c, 0, 66, 52
3, 80640, Note_on_c, 0, 66, 0
3, 80640, Note_on_c, 0, 62, 0
3, 80640, Note_on_c, 0, 67, 58
3, 80880, Note_on_c, 0, 67, 0
3, 80880, Note_on_c, 0, 64, 55
3, 81000, Note_on_c, 0, 64, 0
3, 81000, Note_on_c, 0, 67, 44
3, 81120, Note_on_c, 0, 67, 0
3, 81120, Note_on_c, 0, 62, 54
3, 81240, Note_on_c, 0, 62, 0
3, 81240, Note_on_c, 0, 67, 50
3, 81360, Note_on_c, 0, 67, 0
3, 81360, Note_on_c, 0, 60, 55
3, 81480, Note_on_c, 0, 60, 0
3, 81480, Note_on_c, 0, 67, 47
3, 81600, Note_on_c, 0, 67, 0
3, 81600, Note_on_c, 0, 59, 55
3, 81840, Note_on_c, 0, 59, 0
3, 81840, Note_on_c, 0, 60, 51
3, 82080, Note_on_c, 0, 60, 0
3, 82080, Note_on_c, 0, 62, 57
3, 82320, Note_on_c, 0, 62, 0
3, 82320, Note_on_c, 0, 50, 55
3, 82560, Note_on_c, 0, 50, 0
3, 82560, Note_on_c, 0, 55, 59
3, 82800, Note_on_c, 0, 55, 0
3, 82800, Note_on_c, 0, 64, 38
3, 82920, Note_on_c, 0, 64, 0
3, 82920, Note_on_c, 0, 67, 30
3, 83040, Note_on_c, 0, 67, 0
3, 83040, Note_on_c, 0, 62, 37
3, 83160, Note_on_c, 0, 62, 0
3, 83160, Note_on_c, 0, 67, 35
3, 83280, Note_on_c, 0, 67, 0
3, 83280, Note_on_c, 0, 60, 38
3, 83400, Note_on_c, 0, 60, 0
3, 83400, Note_on_c, 0, 67, 32
3, 83520, Note_on_c, 0, 67, 0
3, 83520, Note_on_c, 0, 59, 38
3, 83760, Note_on_c, 0, 59, 0
3, 83760, Note_on_c, 0, 60, 35
3, 84000, Note_on_c, 0, 60, 0
3, 84000, Note_on_c, 0, 62, 39
3, 84240, Note_on_c, 0, 62, 0
3, 84240, Note_on_c, 0, 50, 38
3, 84480, Note_on_c, 0, 50, 0
3, 84480, Note_on_c, 0, 55, 41
3, 84600, Note_on_c, 0, 55, 0
3, 84720, Note_on_c, 0, 50, 37
3, 84840, Note_on_c, 0, 50, 0
3, 84960, Note_on_c, 0, 43, 42
3, 85080, Note_on_c, 0, 43, 0
3, 85080, End_track
4, 0, Start_track
4, 0, Title_t, "Pedale"
4, 0, Program_c, 0, 0
4, 720, Control_c, 0, 64, 127
4, 2880, Control_c, 0, 64, 0
4, 2926, Control_c, 0, 64, 127
4, 3126, Control_c, 0, 64, 0
4, 3166, Control_c, 0, 64, 127
4, 3848, Control_c, 0, 64, 0
4, 3876, Control_c, 0, 64, 127
4, 4095, Control_c, 0, 64, 0
4, 4140, Control_c, 0, 64, 127
4, 4812, Control_c, 0, 64, 0
4, 4860, Control_c, 0, 64, 127
4, 5287, Control_c, 0, 64, 0
4, 5379, Control_c, 0, 64, 127
4, 5760, Control_c, 0, 64, 0
4, 5792, Control_c, 0, 64, 127
4, 6245, Control_c, 0, 64, 0
4, 6322, Control_c, 0, 64, 127
4, 6741, Control_c, 0, 64, 0
4, 6826, Control_c, 0, 64, 127
4, 7446, Control_c, 0, 64, 0
4, 7511, Control_c, 0, 64, 127
4, 7680, Control_c, 0, 64, 0
4, 7892, Control_c, 0, 64, 127
4, 8174, Control_c, 0, 64, 0
4, 8245, Control_c, 0, 64, 127
4, 9600, Control_c, 0, 64, 0
4, 9650, Control_c, 0, 64, 127
4, 9851, Control_c, 0, 64, 0
4, 9904, Control_c, 0, 64, 127
4, 10094, Control_c, 0, 64, 0
4, 10133, Control_c, 0, 64, 127
4, 10331, Control_c, 0, 64, 0
4, 10380, Control_c, 0, 64, 127
4, 10560, Control_c, 0, 64, 0
4, 10595, Control_c, 0, 64, 127
4, 10810, Control_c, 0, 64, 0
4, 10860, Control_c, 0, 64, 127
4, 11054, Control_c, 0, 64, 0
4, 11125, Control_c, 0, 64, 127
4, 12480, Control_c, 0, 64, 0
4, 12530, Control_c, 0, 64, 127
4, 12731, Control_c, 0, 64, 0
4, 12784, Control_c, 0, 64, 127
4, 12974, Control_c, 0, 64, 0
4, 13013, Control_c, 0, 64, 127
4, 13211, Control_c, 0, 64, 0
4, 13260, Control_c, 0, 64, 127
4, 13440, Control_c, 0, 64, 0
4, 13546, Control_c, 0, 64, 127
4, 13929, Control_c, 0, 64, 0
4, 14012, Control_c, 0, 64, 127
4, 14167, Control_c, 0, 64, 0
4, 14259, Control_c, 0, 64, 127
4, 14400, Control_c, 0, 64, 0
4, 14441, Control_c, 0, 64, 127
4, 14646, Control_c, 0, 64, 0
4, 14681, Control_c, 0, 64, 127
4, 14888, Control_c, 0, 64, 0
4, 14962, Control_c, 0, 64, 127
4, 15360, Control_c, 0, 64, 0
4, 15480, Control_c, 0, 64, 127
4, 16010, Control_c, 0, 64, 0
4, 16080, Control_c, 0, 64, 127
4, 18240, Control_c, 0, 64, 0
4, 18286, Control_c, 0, 64, 127
4, 18486, Control_c, 0, 64, 0
4, 18526, Control_c, 0, 64, 127
4, 19208, Control_c, 0, 64, 0
4, 19236, Control_c, 0, 64, 127
4, 19455, Control_c, 0, 64, 0
4, 19500, Control_c, 0, 64, 127
4, 20166, Control_c, 0, 64, 0
4, 20217, Control_c, 0, 64, 127
4, 20647, Control_c, 0, 64, 0
4, 20739, Control_c, 0, 64, 127
4, 21120, Control_c, 0, 64, 0
4, 21152, Control_c, 0, 64, 127
4, 21605, Control_c, 0, 64, 0
4, 21682, Control_c, 0, 64, 127
4, 22101, Control_c, 0, 64, 0
4, 22186, Control_c, 0, 64, 127
4, 22806, Control_c, 0, 64, 0
4, 22871, Control_c, 0, 64, 127
4, 23040, Control_c, 0, 64, 0
4, 23252, Control_c, 0, 64, 127
4, 23534, Control_c, 0, 64, 0
4, 23605, Control_c, 0, 64, 127
4, 24960, Control_c, 0, 64, 0
4, 25010, Control_c, 0, 64, 127
4, 25211, Control_c, 0, 64, 0
4, 25264, Control_c, 0, 64, 127
4, 25454, Control_c, 0, 64, 0
4, 25493, Control_c, 0, 64, 127
4, 25691, Control_c, 0, 64, 0
4, 25740, Control_c, 0, 64, 127
4, 25920, Control_c, 0, 64, 0
4, 25955, Control_c, 0, 64, 127
4, 26170, Control_c, 0, 64, 0
4, 26220, Control_c, 0, 64, 127
4, 26414, Control_c, 0, 64, 0
4, 26485, Control_c, 0, 64, 127
4, 27840, Control_c, 0, 64, 0
4, 27890, Control_c, 0, 64, 127
4, 28091, Control_c, 0, 64, 0
4, 28144, Control_c, 0, 64, 127
4, 28334, Control_c, 0, 64, 0
4, 28373, Control_c, 0, 64, 127
4, 28571, Control_c, 0, 64, 0
4, 28620, Control_c, 0, 64, 127
4, 28800, Control_c, 0, 64, 0
4, 28906, Control_c, 0, 64, 127
4, 29289, Control_c, 0, 64, 0
4, 29372, Control_c, 0, 64, 127
4, 29527, Control_c, 0, 64, 0
4, 29619, Control_c, 0, 64, 127
4, 29760, Control_c, 0, 64, 0
4, 29801, Control_c, 0, 64, 127
4, 30006, Control_c, 0, 64, 0
4, 30041, Control_c, 0, 64, 127
4, 30248, Control_c, 0, 64, 0
4, 30322, Control_c, 0, 64, 127
4, 30720, Control_c, 0, 64, 0
4, 30840, Control_c, 0, 64, 127
4, 31370, Control_c, 0, 64, 0
4, 31430, Control_c, 0, 64, 127
4, 31680, Control_c, 0, 64, 0
4, 31751, Control_c, 0, 64, 127
4, 32647, Control_c, 0, 64, 0
4, 32683, Control_c, 0, 64, 127
4, 33130, Control_c, 0, 64, 0
4, 33187, Control_c, 0, 64, 127
4, 33370, Control_c, 0, 64, 0
4, 33420, Control_c, 0, 64, 127
4, 33614, Control_c, 0, 64, 0
4, 33643, Control_c, 0, 64, 127
4, 33849, Control_c, 0, 64, 0
4, 33911, Control_c, 0, 64, 127
4, 34096, Control_c, 0, 64, 0
4, 34161, Control_c, 0, 64, 127
4, 34624, Control_c, 0, 64, 0
4, 34708, Control_c, 0, 64, 127
4, 35049, Control_c, 0, 64, 0
4, 35153, Control_c, 0, 64, 127
4, 35289, Control_c, 0, 64, 0
4, 35365, Control_c, 0, 64, 127
4, 35520, Control_c, 0, 64, 0
4, 35568, Control_c, 0, 64, 127
4, 35768, Control_c, 0, 64, 0
4, 35808, Control_c, 0, 64, 127
4, 36009, Control_c, 0, 64, 0
4, 36544, Control_c, 0, 64, 0
4, 36628, Control_c, 0, 64, 127
4, 36969, Control_c, 0, 64, 0
4, 37073, Control_c, 0, 64, 127
4, 37209, Control_c, 0, 64, 0
4, 37285, Control_c, 0, 64, 127
4, 37440, Control_c, 0, 64, 0
4, 37488, Control_c, 0, 64, 127
4, 37688, Control_c, 0, 64, 0
4, 37728, Control_c, 0, 64, 127
4, 37929, Control_c, 0, 64, 0
4, 38192, Control_c, 0, 64, 127
4, 38407, Control_c, 0, 64, 0
4, 38672, Control_c, 0, 64, 127
4, 38887, Control_c, 0, 64, 0
4, 39187, Control_c, 0, 64, 127
4, 39363, Control_c, 0, 64, 0
4, 39650, Control_c, 0, 64, 127
4, 39848, Control_c, 0, 64, 0
4, 40320, Control_c, 0, 64, 127
4, 40575, Control_c, 0, 64, 0
4, 40620, Control_c, 0, 64, 127
4, 40910, Control_c, 0, 64, 0
4, 41040, Control_c, 0, 64, 127
4, 43200, Control_c, 0, 64, 0
4, 43246, Control_c, 0, 64, 127
4, 43446, Control_c, 0, 64, 0
4, 43486, Control_c, 0, 64, 127
4, 44168, Control_c, 0, 64, 0
4, 44196, Control_c, 0, 64, 127
4, 44415, Control_c, 0, 64, 0
4, 44460, Control_c, 0, 64, 127
4, 45129, Control_c, 0, 64, 0
4, 45164, Control_c, 0, 64, 127
4, 45607, Control_c, 0, 64, 0
4, 45699, Control_c, 0, 64, 127
4, 46080, Control_c, 0, 64, 0
4, 46112, Control_c, 0, 64, 127
4, 46565, Control_c, 0, 64, 0
4, 46642, Control_c, 0, 64, 127
4, 47061, Control_c, 0, 64, 0
4, 47146, Control_c, 0, 64, 127
4, 47766, Control_c, 0, 64, 0
4, 47831, Control_c, 0, 64, 127
4, 48000, Control_c, 0, 64, 0
4, 48212, Control_c, 0, 64, 127
4, 48494, Control_c, 0, 64, 0
4, 48565, Control_c, 0, 64, 127
4, 49920, Control_c, 0, 64, 0
4, 49970, Control_c, 0, 64, 127
4, 50171, Control_c, 0, 64, 0
4, 50224, Control_c, 0, 64, 127
4, 50414, Control_c, 0, 64, 0
4, 50453, Control_c, 0, 64, 127
4, 50651, Control_c, 0, 64, 0
4, 50700, Control_c, 0, 64, 127
4, 50880, Control_c, 0, 64, 0
4, 50915, Control_c, 0, 64, 127
4, 51130, Control_c, 0, 64, 0
4, 51180, Control_c, 0, 64, 127
4, 51374, Control_c, 0, 64, 0
4, 51445, Control_c, 0, 64, 127
4, 52800, Control_c, 0, 64, 0
4, 52850, Control_c, 0, 64, 127
4, 53051, Control_c, 0, 64, 0
4, 53104, Control_c, 0, 64, 127
4, 53294, Control_c, 0, 64, 0
4, 53333, Control_c, 0, 64, 127
4, 53531, Control_c, 0, 64, 0
4, 53580, Control_c, 0, 64, 127
4, 53760, Control_c, 0, 64, 0
4, 53866, Control_c, 0, 64, 127
4, 54249, Control_c, 0, 64, 0
4, 54332, Control_c, 0, 64, 127
4, 54487, Control_c, 0, 64, 0
4, 54579, Control_c, 0, 64, 127
4, 54720, Control_c, 0, 64, 0
4, 54761, Control_c, 0, 64, 127
4, 54966, Control_c, 0, 64, 0
4, 55001, Control_c, 0, 64, 127
4, 55208, Control_c, 0, 64, 0
4, 55282, Control_c, 0, 64, 127
4, 55680, Control_c, 0, 64, 0
4, 55800, Control_c, 0, 64, 127
4, 56169, Control_c, 0, 64, 0
4, 56252, Control_c, 0, 64, 127
4, 56407, Control_c, 0, 64, 0
4, 56499, Control_c, 0, 64, 127
4, 56640, Control_c, 0, 64, 0
4, 56681, Control_c, 0, 64, 127
4, 56886, Control_c, 0, 64, 0
4, 56921, Control_c, 0, 64, 127
4, 57128, Control_c, 0, 64, 0
4, 57202, Control_c, 0, 64, 127
4, 57600, Control_c, 0, 64, 0
4, 57720, Control_c, 0, 64, 127
4, 58250, Control_c, 0, 64, 0
4, 58560, Control_c, 0, 64, 0
4, 58631, Control_c, 0, 64, 127
4, 59527, Control_c, 0, 64, 0
4, 59563, Control_c, 0, 64, 127
4, 60010, Control_c, 0, 64, 0
4, 60067, Control_c, 0, 64, 127
4, 60250, Control_c, 0, 64, 0
4, 60300, Control_c, 0, 64, 127
4, 60494, Control_c, 0, 64, 0
4, 60523, Control_c, 0, 64, 127
4, 60729, Control_c, 0, 64, 0
4, 60791, Control_c, 0, 64, 127
4, 60976, Control_c, 0, 64, 0
4, 61041, Control_c, 0, 64, 127
4, 61504, Control_c, 0, 64, 0
4, 61588, Control_c, 0, 64, 127
4, 61929, Control_c, 0, 64, 0
4, 62033, Control_c, 0, 64, 127
4, 62169, Control_c, 0, 64, 0
4, 62245, Control_c, 0, 64, 127
4, 62400, Control_c, 0, 64, 0
4, 62448, Control_c, 0, 64, 127
4, 62648, Control_c, 0, 64, 0
4, 62688, Control_c, 0, 64, 127
4, 62889, Control_c, 0, 64, 0
4, 63424, Control_c, 0, 64, 0
4, 63508, Control_c, 0, 64, 127
4, 63849, Control_c, 0, 64, 0
4, 63953, Control_c, 0, 64, 127
4, 64089, Control_c, 0, 64, 0
4, 64165, Control_c, 0, 64, 127
4, 64320, Control_c, 0, 64, 0
4, 64368, Control_c, 0, 64, 127
4, 64568, Control_c, 0, 64, 0
4, 64608, Control_c, 0, 64, 127
4, 64809, Control_c, 0, 64, 0
4, 65072, Control_c, 0, 64, 127
4, 65287, Control_c, 0, 64, 0
4, 65552, Control_c, 0, 64, 127
4, 65767, Control_c, 0, 64, 0
4, 66067, Control_c, 0, 64, 127
4, 66243, Control_c, 0, 64, 0
4, 66530, Control_c, 0, 64, 127
4, 66728, Control_c, 0, 64, 0
4, 67200, Control_c, 0, 64, 127
4, 67455, Control_c, 0, 64, 0
4, 67500, Control_c, 0, 64, 127
4, 67790, Control_c, 0, 64, 0
4, 67920, Control_c, 0, 64, 127
4, 70080, Control_c, 0, 64, 0
4, 70126, Control_c, 0, 64, 127
4, 70326, Control_c, 0, 64, 0
4, 70366, Control_c, 0, 64, 127
4, 71048, Control_c, 0, 64, 0
4, 71076, Control_c, 0, 64, 127
4, 71295, Control_c, 0, 64, 0
4, 71340, Control_c, 0, 64, 127
4, 72016, Control_c, 0, 64, 0
4, 72044, Control_c, 0, 64, 127
4, 72487, Control_c, 0, 64, 0
4, 72579, Control_c, 0, 64, 127
4, 72960, Control_c, 0, 64, 0
4, 72992, Control_c, 0, 64, 127
4, 73445, Control_c, 0, 64, 0
4, 73522, Control_c, 0, 64, 127
4, 73941, Control_c, 0, 64, 0
4, 74026, Control_c, 0, 64, 127
4, 74646, Control_c, 0, 64, 0
4, 74711, Control_c, 0, 64, 127
4, 74880, Control_c, 0, 64, 0
4, 75092, Control_c, 0, 64, 127
4, 75374, Control_c, 0, 64, 0
4, 75445, Control_c, 0, 64, 127
4, 76800, Control_c, 0, 64, 0
4, 76850, Control_c, 0, 64, 127
4, 77051, Control_c, 0, 64, 0
4, 77104, Control_c, 0, 64, 127
4, 77294, Control_c, 0, 64, 0
4, 77333, Control_c, 0, 64, 127
4, 77531, Control_c, 0, 64, 0
4, 77580, Control_c, 0, 64, 127
4, 77760, Control_c, 0, 64, 0
4, 77795, Control_c, 0, 64, 127
4, 78010, Control_c, 0, 64, 0
4, 78060, Control_c, 0, 64, 127
4, 78254, Control_c, 0, 64, 0
4, 78325, Control_c, 0, 64, 127
4, 79680, Control_c, 0, 64, 0
4, 79730, Control_c, 0, 64, 127
4, 79931, Control_c, 0, 64, 0
4, 79984, Control_c, 0, 64, 127
4, 80174, Control_c, 0, 64, 0
4, 80213, Control_c, 0, 64, 127
4, 80411, Control_c, 0, 64, 0
4, 80460, Control_c, 0, 64, 127
4, 80640, Control_c, 0, 64, 0
4, 80746, Control_c, 0, 64, 127
4, 81129, Control_c, 0, 64, 0
4, 81212, Control_c, 0, 64, 127
4, 81367, Control_c, 0, 64, 0
4, 81459, Control_c, 0, 64, 127
4, 81600, Control_c, 0, 64, 0
4, 81641, Control_c, 0, 64, 127
4, 81846, Control_c, 0, 64, 0
4, 81881, Control_c, 0, 64, 127
4, 82088, Control_c, 0, 64, 0
4, 82162, Control_c, 0, 64, 127
4, 82560, Control_c, 0, 64, 0
4, 82680, Control_c, 0, 64, 127
4, 83049, Control_c, 0, 64, 0
4, 83132, Control_c, 0, 64, 127
4, 83287, Control_c, 0, 64, 0
4, 83379, Control_c, 0, 64, 127
4, 83520, Control_c, 0, 64, 0
4, 83561, Control_c, 0, 64, 127
4, 83766, Control_c, 0, 64, 0
4, 83801, Control_c, 0, 64, 127
4, 84008, Control_c, 0, 64, 0
4, 84082, Control_c, 0, 64, 127
4, 84480, Control_c, 0, 64, 0
4, 84600, Control_c, 0, 64, 127
4, 85130, Control_c, 0, 64, 0
4, 85130, End_track
5, 0, Start_track
5, 0, Title_t, "Haydn: Sonata Hoboken XVI:8 1. movement"
5, 0, End_track
6, 0, Start_track
6, 0, Title_t, "Copyright © 2009 by Bernd Krueger"
6, 0, End_track
7, 0, Start_track
7, 0, Title_t, "http://www.piano-midi.de/"
7, 0, End_track
8, 0, Start_track
8, 0, Title_t, "Edition: 2011-11-13"
8, 0, End_track
9, 0, Start_track
9, 0, Title_t, "Spur 8"
9, 0, End_track
10, 0, Start_track
10, 0, Title_t, "Spur 9"
10, 0, End_track
11, 0, Start_track
11, 0, Title_t, "Spur 10"
11, 0, End_track
12, 0, Start_track
12, 0, Title_t, "Spur 11"
12, 0, End_track
13, 0, Start_track
13, 0, Title_t, "Spur 12"
13, 0, End_track
14, 0, Start_track
14, 0, Title_t, "Spur 13"
14, 0, End_track
15, 0, Start_track
15, 0, Title_t, "Spur 14"
15, 0, End_track
16, 0, Start_track
16, 0, Title_t, "Spur 15"
16, 0, End_track
17, 0, Start_track
17, 0, Title_t, "Spur 16"
17, 0, End_track
0, 0, End_of_file
