0, 0, Header, 1, 8, 480
1, 0, Start_track
1, 0, Title_t, "Lieder ohne Worte Op. 62 No. 3"
1, 0, Title_t, "Trauermarsch"
1, 0, Copyright_t, "Copyright © 2004 by Bernd Krueger"
1, 0, Text_t, "Mendelslsohn"
1, 0, Text_t, "Andante maestoso"
1, 0, Text_t, "Fertiggestellt am 7.1.2004\012"
1, 0, Text_t, "Update am 3.4.2014\012"
1, 0, Text_t, "Dauer:  3:06 Minuten\012"
1, 0, Text_t, "Takt von 2/4 auf auf 4/4 geändert\012"
1, 0, SMPTE_offset, 96, 0, 3, 0, 0
1, 0, Time_signature, 4, 2, 24, 8
1, 0, Key_signature, 1, "major"
1, 0, Tempo, 461752
1, 1680, Tempo, 800427
1, 1920, Tempo, 857633
1, 2640, Tempo, 805910
1, 2880, Tempo, 857633
1, 3600, Tempo, 795229
1, 3840, Tempo, 857633
1, 4800, Tempo, 889416
1, 5520, Tempo, 800427
1, 5760, Tempo, 857633
1, 6480, Tempo, 805910
1, 6720, Tempo, 857633
1, 7440, Tempo, 795229
1, 7680, Tempo, 857633
1, 8640, Tempo, 889416
1, 9600, Tempo, 863931
1, 10080, Tempo, 889416
1, 10560, Tempo, 863931
1, 11040, Tempo, 889416
1, 12000, Tempo, 882872
1, 12240, Tempo, 845547
1, 12480, Tempo, 876424
1, 13440, Tempo, 857633
1, 13920, Tempo, 896191
1, 14400, Tempo, 902935
1, 14880, Tempo, 930810
1, 15360, Tempo, 930810
1, 16800, Tempo, 896191
1, 17280, Tempo, 863931
1, 17760, Tempo, 889416
1, 18240, Tempo, 863931
1, 18720, Tempo, 889416
1, 19680, Tempo, 882872
1, 19920, Tempo, 845547
1, 20160, Tempo, 916730
1, 20640, Tempo, 876424
1, 21120, Tempo, 896191
1, 21600, Tempo, 923645
1, 22080, Tempo, 896191
1, 22560, Tempo, 938086
1, 22920, Tempo, 1081861
1, 23040, Tempo, 992392
1, 24480, Tempo, 889416
1, 24960, Tempo, 863931
1, 25440, Tempo, 889416
1, 25920, Tempo, 863931
1, 26400, Tempo, 889416
1, 27360, Tempo, 882872
1, 27600, Tempo, 845547
1, 27840, Tempo, 876424
1, 28800, Tempo, 857633
1, 29280, Tempo, 896191
1, 29760, Tempo, 902935
1, 30240, Tempo, 930810
1, 30720, Tempo, 930810
1, 32160, Tempo, 896191
1, 32640, Tempo, 863931
1, 33120, Tempo, 889416
1, 33600, Tempo, 863931
1, 34080, Tempo, 889416
1, 35040, Tempo, 882872
1, 35280, Tempo, 845547
1, 35520, Tempo, 938086
1, 36000, Tempo, 876424
1, 36360, Tempo, 945626
1, 36480, Tempo, 916730
1, 36960, Tempo, 945626
1, 37440, Tempo, 916730
1, 37920, Tempo, 938086
1, 38280, Tempo, 1081861
1, 38400, Tempo, 992392
1, 39840, Tempo, 889416
1, 40320, Tempo, 863931
1, 40800, Tempo, 863931
1, 41280, Tempo, 863931
1, 41759, Tempo, 851547
1, 41760, Tempo, 839631
1, 42240, Tempo, 863931
1, 42720, Tempo, 863931
1, 43200, Tempo, 863931
1, 43679, Tempo, 851547
1, 43680, Tempo, 839631
1, 44160, Tempo, 863931
1, 44640, Tempo, 839631
1, 45120, Tempo, 857633
1, 45600, Tempo, 839631
1, 46080, Tempo, 863931
1, 46560, Tempo, 839631
1, 47040, Tempo, 851547
1, 47520, Tempo, 833797
1, 48000, Tempo, 857633
1, 48320, Tempo, 863931
1, 48640, Tempo, 870196
1, 48960, Tempo, 876424
1, 49280, Tempo, 882872
1, 49600, Tempo, 889416
1, 49880, Tempo, 896191
1, 49920, Tempo, 923645
1, 51360, Tempo, 833797
1, 51840, Tempo, 857633
1, 52160, Tempo, 863931
1, 52480, Tempo, 870196
1, 52800, Tempo, 876424
1, 53120, Tempo, 882872
1, 53440, Tempo, 889416
1, 53720, Tempo, 896191
1, 53760, Tempo, 923645
1, 55200, Tempo, 1102131
1, 55440, Tempo, 800427
1, 55680, Tempo, 857633
1, 56400, Tempo, 805910
1, 56640, Tempo, 857633
1, 57120, Tempo, 800427
1, 57360, Tempo, 795229
1, 57600, Tempo, 857633
1, 58560, Tempo, 889416
1, 59280, Tempo, 800427
1, 59520, Tempo, 857633
1, 60240, Tempo, 805910
1, 60480, Tempo, 857633
1, 61200, Tempo, 795229
1, 61440, Tempo, 857633
1, 62400, Tempo, 889416
1, 63360, Tempo, 863931
1, 63840, Tempo, 889416
1, 64320, Tempo, 863931
1, 64800, Tempo, 889416
1, 65760, Tempo, 882872
1, 66000, Tempo, 845547
1, 66240, Tempo, 876424
1, 67200, Tempo, 857633
1, 67680, Tempo, 896191
1, 68160, Tempo, 902935
1, 68640, Tempo, 930810
1, 69120, Tempo, 930810
1, 70560, Tempo, 896191
1, 71040, Tempo, 863931
1, 71520, Tempo, 889416
1, 72000, Tempo, 863931
1, 72480, Tempo, 889416
1, 73440, Tempo, 882872
1, 73680, Tempo, 845547
1, 73920, Tempo, 916730
1, 74400, Tempo, 876424
1, 74880, Tempo, 896191
1, 75360, Tempo, 923645
1, 75840, Tempo, 896191
1, 76320, Tempo, 938086
1, 76680, Tempo, 1081861
1, 76800, Tempo, 992392
1, 77520, Tempo, 945626
1, 77640, Tempo, 1081861
1, 77760, Tempo, 992392
1, 78240, Tempo, 876424
1, 78720, Tempo, 896191
1, 79200, Tempo, 923645
1, 79680, Tempo, 896191
1, 80160, Tempo, 938086
1, 80520, Tempo, 1081861
1, 80640, Tempo, 992392
1, 81360, Tempo, 945626
1, 81480, Tempo, 1081861
1, 81600, Tempo, 952986
1, 82080, Tempo, 896191
1, 82560, Tempo, 923645
1, 83040, Tempo, 952986
1, 83520, Tempo, 952986
1, 84000, Tempo, 916730
1, 84360, Tempo, 984091
1, 86160, Tempo, 930810
1, 86400, Tempo, 945626
1, 87120, Tempo, 938086
1, 87360, Tempo, 976245
1, 88080, Tempo, 968367
1, 88120, Tempo, 984091
1, 88160, Tempo, 1009082
1, 88200, Tempo, 1035197
1, 88240, Tempo, 1062699
1, 88280, Tempo, 1091504
1, 88320, Tempo, 992392
1, 89760, Tempo, 1039861
1, 90240, Tempo, 1078749
1, 90960, Tempo, 1012317
1, 91200, Tempo, 1088732
1, 91920, Tempo, 1177625
1, 93120, Tempo, 1501126
1, 96001, Tempo, 1442654
1, 96002, Tempo, 1500000
1, 96002, End_track
2, 0, Start_track
2, 0, Title_t, "Piano right"
2, 0, Program_c, 0, 0
2, 0, Control_c, 0, 7, 127
2, 0, Control_c, 0, 10, 64
2, 0, Control_c, 0, 91, 127
2, 1680, Note_on_c, 0, 59, 66
2, 1680, Note_on_c, 0, 64, 76
2, 1720, Note_on_c, 0, 64, 0
2, 1720, Note_on_c, 0, 59, 0
2, 1760, Note_on_c, 0, 59, 66
2, 1760, Note_on_c, 0, 64, 76
2, 1800, Note_on_c, 0, 64, 0
2, 1800, Note_on_c, 0, 59, 0
2, 1840, Note_on_c, 0, 59, 66
2, 1840, Note_on_c, 0, 64, 76
2, 1880, Note_on_c, 0, 64, 0
2, 1880, Note_on_c, 0, 59, 0
2, 1920, Note_on_c, 0, 59, 70
2, 1920, Note_on_c, 0, 64, 80
2, 2640, Note_on_c, 0, 64, 0
2, 2640, Note_on_c, 0, 59, 0
2, 2640, Note_on_c, 0, 59, 66
2, 2640, Note_on_c, 0, 64, 76
2, 2680, Note_on_c, 0, 64, 0
2, 2680, Note_on_c, 0, 59, 0
2, 2720, Note_on_c, 0, 59, 66
2, 2720, Note_on_c, 0, 64, 76
2, 2760, Note_on_c, 0, 64, 0
2, 2760, Note_on_c, 0, 59, 0
2, 2800, Note_on_c, 0, 59, 66
2, 2800, Note_on_c, 0, 64, 76
2, 2840, Note_on_c, 0, 64, 0
2, 2840, Note_on_c, 0, 59, 0
2, 2880, Note_on_c, 0, 59, 70
2, 2880, Note_on_c, 0, 64, 80
2, 3600, Note_on_c, 0, 64, 0
2, 3600, Note_on_c, 0, 59, 0
2, 3600, Note_on_c, 0, 59, 66
2, 3600, Note_on_c, 0, 64, 76
2, 3640, Note_on_c, 0, 64, 0
2, 3640, Note_on_c, 0, 59, 0
2, 3680, Note_on_c, 0, 59, 66
2, 3680, Note_on_c, 0, 64, 76
2, 3720, Note_on_c, 0, 64, 0
2, 3720, Note_on_c, 0, 59, 0
2, 3760, Note_on_c, 0, 59, 66
2, 3760, Note_on_c, 0, 64, 76
2, 3800, Note_on_c, 0, 64, 0
2, 3800, Note_on_c, 0, 59, 0
2, 3840, Note_on_c, 0, 59, 70
2, 3840, Note_on_c, 0, 64, 70
2, 3840, Note_on_c, 0, 67, 80
2, 4800, Note_on_c, 0, 67, 0
2, 4800, Note_on_c, 0, 64, 0
2, 4800, Note_on_c, 0, 59, 0
2, 4800, Note_on_c, 0, 55, 62
2, 4800, Note_on_c, 0, 59, 62
2, 4800, Note_on_c, 0, 64, 72
2, 5280, Note_on_c, 0, 64, 0
2, 5280, Note_on_c, 0, 59, 0
2, 5280, Note_on_c, 0, 55, 0
2, 5520, Note_on_c, 0, 76, 72
2, 5520, Note_on_c, 0, 71, 72
2, 5520, Note_on_c, 0, 83, 83
2, 5560, Note_on_c, 0, 83, 0
2, 5560, Note_on_c, 0, 71, 0
2, 5560, Note_on_c, 0, 76, 0
2, 5600, Note_on_c, 0, 76, 72
2, 5600, Note_on_c, 0, 71, 72
2, 5600, Note_on_c, 0, 83, 83
2, 5640, Note_on_c, 0, 83, 0
2, 5640, Note_on_c, 0, 71, 0
2, 5640, Note_on_c, 0, 76, 0
2, 5680, Note_on_c, 0, 76, 72
2, 5680, Note_on_c, 0, 71, 72
2, 5680, Note_on_c, 0, 83, 83
2, 5720, Note_on_c, 0, 83, 0
2, 5720, Note_on_c, 0, 71, 0
2, 5720, Note_on_c, 0, 76, 0
2, 5760, Note_on_c, 0, 75, 77
2, 5760, Note_on_c, 0, 71, 77
2, 5760, Note_on_c, 0, 83, 88
2, 6480, Note_on_c, 0, 83, 0
2, 6480, Note_on_c, 0, 71, 0
2, 6480, Note_on_c, 0, 75, 0
2, 6480, Note_on_c, 0, 76, 72
2, 6480, Note_on_c, 0, 71, 72
2, 6480, Note_on_c, 0, 83, 83
2, 6520, Note_on_c, 0, 83, 0
2, 6520, Note_on_c, 0, 71, 0
2, 6520, Note_on_c, 0, 76, 0
2, 6560, Note_on_c, 0, 76, 72
2, 6560, Note_on_c, 0, 71, 72
2, 6560, Note_on_c, 0, 83, 83
2, 6600, Note_on_c, 0, 83, 0
2, 6600, Note_on_c, 0, 71, 0
2, 6600, Note_on_c, 0, 76, 0
2, 6640, Note_on_c, 0, 76, 72
2, 6640, Note_on_c, 0, 71, 72
2, 6640, Note_on_c, 0, 83, 83
2, 6680, Note_on_c, 0, 83, 0
2, 6680, Note_on_c, 0, 71, 0
2, 6680, Note_on_c, 0, 76, 0
2, 6720, Note_on_c, 0, 75, 77
2, 6720, Note_on_c, 0, 71, 77
2, 6720, Note_on_c, 0, 83, 88
2, 7440, Note_on_c, 0, 83, 0
2, 7440, Note_on_c, 0, 71, 0
2, 7440, Note_on_c, 0, 75, 0
2, 7440, Note_on_c, 0, 76, 72
2, 7440, Note_on_c, 0, 71, 72
2, 7440, Note_on_c, 0, 83, 83
2, 7480, Note_on_c, 0, 83, 0
2, 7480, Note_on_c, 0, 71, 0
2, 7480, Note_on_c, 0, 76, 0
2, 7520, Note_on_c, 0, 76, 72
2, 7520, Note_on_c, 0, 71, 72
2, 7520, Note_on_c, 0, 83, 83
2, 7560, Note_on_c, 0, 83, 0
2, 7560, Note_on_c, 0, 71, 0
2, 7560, Note_on_c, 0, 76, 0
2, 7600, Note_on_c, 0, 76, 72
2, 7600, Note_on_c, 0, 71, 72
2, 7600, Note_on_c, 0, 83, 83
2, 7640, Note_on_c, 0, 83, 0
2, 7640, Note_on_c, 0, 71, 0
2, 7640, Note_on_c, 0, 76, 0
2, 7680, Note_on_c, 0, 75, 77
2, 7680, Note_on_c, 0, 78, 77
2, 7680, Note_on_c, 0, 87, 88
2, 8640, Note_on_c, 0, 87, 0
2, 8640, Note_on_c, 0, 78, 0
2, 8640, Note_on_c, 0, 75, 0
2, 8640, Note_on_c, 0, 78, 61
2, 8640, Note_on_c, 0, 90, 71
2, 9120, Note_on_c, 0, 90, 0
2, 9120, Note_on_c, 0, 78, 0
2, 9120, Note_on_c, 0, 57, 57
2, 9120, Note_on_c, 0, 59, 68
2, 9600, Note_on_c, 0, 59, 0
2, 9600, Note_on_c, 0, 57, 0
2, 9600, Note_on_c, 0, 55, 59
2, 9600, Note_on_c, 0, 59, 59
2, 9600, Note_on_c, 0, 64, 70
2, 10080, Note_on_c, 0, 64, 0
2, 10080, Note_on_c, 0, 59, 0
2, 10080, Note_on_c, 0, 55, 0
2, 10080, Note_on_c, 0, 55, 59
2, 10080, Note_on_c, 0, 59, 59
2, 10080, Note_on_c, 0, 64, 70
2, 10560, Note_on_c, 0, 64, 0
2, 10560, Note_on_c, 0, 59, 0
2, 10560, Note_on_c, 0, 55, 0
2, 10560, Note_on_c, 0, 59, 60
2, 10560, Note_on_c, 0, 64, 60
2, 10560, Note_on_c, 0, 67, 71
2, 11040, Note_on_c, 0, 67, 0
2, 11040, Note_on_c, 0, 64, 0
2, 11040, Note_on_c, 0, 59, 0
2, 11040, Note_on_c, 0, 59, 60
2, 11040, Note_on_c, 0, 66, 60
2, 11040, Note_on_c, 0, 69, 71
2, 11520, Note_on_c, 0, 69, 0
2, 11520, Note_on_c, 0, 66, 0
2, 11520, Note_on_c, 0, 59, 0
2, 11520, Note_on_c, 0, 59, 61
2, 11520, Note_on_c, 0, 64, 61
2, 11520, Note_on_c, 0, 67, 61
2, 11520, Note_on_c, 0, 71, 72
2, 12000, Note_on_c, 0, 71, 0
2, 12000, Note_on_c, 0, 59, 0
2, 12000, Note_on_c, 0, 64, 0
2, 12000, Note_on_c, 0, 67, 0
2, 12000, Note_on_c, 0, 64, 58
2, 12000, Note_on_c, 0, 66, 58
2, 12000, Note_on_c, 0, 69, 69
2, 12080, Note_on_c, 0, 69, 0
2, 12080, Note_on_c, 0, 66, 0
2, 12080, Note_on_c, 0, 64, 0
2, 12160, Note_on_c, 0, 64, 58
2, 12160, Note_on_c, 0, 67, 58
2, 12160, Note_on_c, 0, 71, 69
2, 12240, Note_on_c, 0, 71, 0
2, 12240, Note_on_c, 0, 67, 0
2, 12240, Note_on_c, 0, 64, 0
2, 12320, Note_on_c, 0, 64, 58
2, 12320, Note_on_c, 0, 69, 58
2, 12320, Note_on_c, 0, 72, 69
2, 12400, Note_on_c, 0, 72, 0
2, 12400, Note_on_c, 0, 69, 0
2, 12400, Note_on_c, 0, 64, 0
2, 12480, Note_on_c, 0, 64, 62
2, 12480, Note_on_c, 0, 67, 62
2, 12480, Note_on_c, 0, 71, 73
2, 12960, Note_on_c, 0, 71, 0
2, 12960, Note_on_c, 0, 67, 0
2, 12960, Note_on_c, 0, 64, 0
2, 12960, Note_on_c, 0, 59, 57
2, 12960, Note_on_c, 0, 64, 57
2, 12960, Note_on_c, 0, 67, 68
2, 13320, Note_on_c, 0, 67, 0
2, 13320, Note_on_c, 0, 64, 0
2, 13320, Note_on_c, 0, 59, 0
2, 13320, Note_on_c, 0, 66, 61
2, 13320, Note_on_c, 0, 69, 72
2, 13440, Note_on_c, 0, 69, 0
2, 13440, Note_on_c, 0, 66, 0
2, 13440, Note_on_c, 0, 64, 61
2, 13440, Note_on_c, 0, 67, 61
2, 13440, Note_on_c, 0, 71, 72
2, 13920, Note_on_c, 0, 71, 0
2, 13920, Note_on_c, 0, 67, 0
2, 13920, Note_on_c, 0, 64, 0
2, 13920, Note_on_c, 0, 64, 59
2, 13920, Note_on_c, 0, 67, 59
2, 13920, Note_on_c, 0, 71, 71
2, 14400, Note_on_c, 0, 71, 0
2, 14400, Note_on_c, 0, 67, 0
2, 14400, Note_on_c, 0, 64, 0
2, 14400, Note_on_c, 0, 69, 66
2, 14400, Note_on_c, 0, 72, 66
2, 14400, Note_on_c, 0, 79, 78
2, 14880, Note_on_c, 0, 79, 0
2, 14880, Note_on_c, 0, 72, 0
2, 14880, Note_on_c, 0, 69, 0
2, 14880, Note_on_c, 0, 69, 61
2, 14880, Note_on_c, 0, 72, 61
2, 14880, Note_on_c, 0, 78, 73
2, 15360, Note_on_c, 0, 78, 0
2, 15360, Note_on_c, 0, 72, 0
2, 15360, Note_on_c, 0, 69, 0
2, 15360, Note_on_c, 0, 67, 55
2, 15360, Note_on_c, 0, 71, 55
2, 15360, Note_on_c, 0, 76, 65
2, 16320, Note_on_c, 0, 76, 0
2, 16320, Note_on_c, 0, 71, 0
2, 16320, Note_on_c, 0, 67, 0
2, 16320, Note_on_c, 0, 66, 45
2, 16320, Note_on_c, 0, 71, 45
2, 16320, Note_on_c, 0, 75, 54
2, 16800, Note_on_c, 0, 75, 0
2, 16800, Note_on_c, 0, 71, 0
2, 16800, Note_on_c, 0, 66, 0
2, 16800, Note_on_c, 0, 66, 49
2, 17280, Note_on_c, 0, 66, 0
2, 17280, Note_on_c, 0, 67, 53
2, 17760, Note_on_c, 0, 67, 0
2, 17760, Note_on_c, 0, 66, 45
2, 17760, Note_on_c, 0, 67, 54
2, 18240, Note_on_c, 0, 67, 0
2, 18240, Note_on_c, 0, 66, 0
2, 18240, Note_on_c, 0, 64, 45
2, 18240, Note_on_c, 0, 67, 54
2, 18720, Note_on_c, 0, 67, 0
2, 18720, Note_on_c, 0, 64, 0
2, 18720, Note_on_c, 0, 62, 45
2, 18720, Note_on_c, 0, 67, 53
2, 19200, Note_on_c, 0, 67, 0
2, 19200, Note_on_c, 0, 62, 0
2, 19200, Note_on_c, 0, 60, 45
2, 19200, Note_on_c, 0, 67, 54
2, 19680, Note_on_c, 0, 67, 0
2, 19680, Note_on_c, 0, 60, 0
2, 19680, Note_on_c, 0, 62, 43
2, 19680, Note_on_c, 0, 66, 51
2, 19840, Note_on_c, 0, 66, 0
2, 19840, Note_on_c, 0, 69, 51
2, 20000, Note_on_c, 0, 69, 0
2, 20000, Note_on_c, 0, 72, 50
2, 20160, Note_on_c, 0, 72, 0
2, 20160, Note_on_c, 0, 62, 0
2, 20160, Note_on_c, 0, 67, 49
2, 20160, Note_on_c, 0, 62, 45
2, 20160, Note_on_c, 0, 71, 54
2, 20640, Note_on_c, 0, 71, 0
2, 20640, Note_on_c, 0, 62, 0
2, 20640, Note_on_c, 0, 67, 0
2, 20640, Note_on_c, 0, 59, 45
2, 20640, Note_on_c, 0, 63, 45
2, 20640, Note_on_c, 0, 67, 53
2, 21000, Note_on_c, 0, 67, 0
2, 21000, Note_on_c, 0, 66, 49
2, 21120, Note_on_c, 0, 66, 0
2, 21120, Note_on_c, 0, 63, 0
2, 21120, Note_on_c, 0, 59, 0
2, 21120, Note_on_c, 0, 60, 44
2, 21120, Note_on_c, 0, 64, 52
2, 21600, Note_on_c, 0, 64, 0
2, 21600, Note_on_c, 0, 60, 0
2, 21600, Note_on_c, 0, 60, 42
2, 21600, Note_on_c, 0, 64, 50
2, 22080, Note_on_c, 0, 64, 0
2, 22080, Note_on_c, 0, 60, 0
2, 22080, Note_on_c, 0, 59, 42
2, 22080, Note_on_c, 0, 64, 50
2, 22560, Note_on_c, 0, 64, 0
2, 22560, Note_on_c, 0, 59, 0
2, 22560, Note_on_c, 0, 54, 42
2, 22560, Note_on_c, 0, 57, 42
2, 22560, Note_on_c, 0, 60, 42
2, 22560, Note_on_c, 0, 66, 50
2, 22920, Note_on_c, 0, 66, 0
2, 22920, Note_on_c, 0, 63, 45
2, 23040, Note_on_c, 0, 63, 0
2, 23040, Note_on_c, 0, 60, 0
2, 23040, Note_on_c, 0, 57, 0
2, 23040, Note_on_c, 0, 54, 0
2, 23040, Note_on_c, 0, 54, 38
2, 23040, Note_on_c, 0, 57, 41
2, 23040, Note_on_c, 0, 60, 41
2, 23040, Note_on_c, 0, 63, 49
2, 23520, Note_on_c, 0, 63, 0
2, 23520, Note_on_c, 0, 54, 0
2, 23520, Note_on_c, 0, 57, 0
2, 23520, Note_on_c, 0, 60, 0
2, 23520, Note_on_c, 0, 55, 35
2, 23520, Note_on_c, 0, 59, 35
2, 23520, Note_on_c, 0, 64, 42
2, 24480, Note_on_c, 0, 64, 0
2, 24480, Note_on_c, 0, 59, 0
2, 24480, Note_on_c, 0, 55, 0
2, 24480, Note_on_c, 0, 59, 68
2, 24960, Note_on_c, 0, 59, 0
2, 24960, Note_on_c, 0, 52, 59
2, 24960, Note_on_c, 0, 55, 59
2, 24960, Note_on_c, 0, 59, 59
2, 24960, Note_on_c, 0, 64, 70
2, 25440, Note_on_c, 0, 64, 0
2, 25440, Note_on_c, 0, 52, 0
2, 25440, Note_on_c, 0, 55, 0
2, 25440, Note_on_c, 0, 59, 0
2, 25440, Note_on_c, 0, 52, 59
2, 25440, Note_on_c, 0, 55, 59
2, 25440, Note_on_c, 0, 59, 59
2, 25440, Note_on_c, 0, 64, 70
2, 25920, Note_on_c, 0, 64, 0
2, 25920, Note_on_c, 0, 52, 0
2, 25920, Note_on_c, 0, 55, 0
2, 25920, Note_on_c, 0, 59, 0
2, 25920, Note_on_c, 0, 55, 60
2, 25920, Note_on_c, 0, 59, 60
2, 25920, Note_on_c, 0, 64, 60
2, 25920, Note_on_c, 0, 67, 71
2, 26400, Note_on_c, 0, 67, 0
2, 26400, Note_on_c, 0, 55, 0
2, 26400, Note_on_c, 0, 59, 0
2, 26400, Note_on_c, 0, 64, 0
2, 26400, Note_on_c, 0, 57, 60
2, 26400, Note_on_c, 0, 59, 60
2, 26400, Note_on_c, 0, 66, 60
2, 26400, Note_on_c, 0, 69, 71
2, 26880, Note_on_c, 0, 69, 0
2, 26880, Note_on_c, 0, 57, 0
2, 26880, Note_on_c, 0, 59, 0
2, 26880, Note_on_c, 0, 66, 0
2, 26880, Note_on_c, 0, 59, 61
2, 26880, Note_on_c, 0, 64, 61
2, 26880, Note_on_c, 0, 67, 61
2, 26880, Note_on_c, 0, 71, 72
2, 27360, Note_on_c, 0, 71, 0
2, 27360, Note_on_c, 0, 59, 0
2, 27360, Note_on_c, 0, 64, 0
2, 27360, Note_on_c, 0, 67, 0
2, 27360, Note_on_c, 0, 57, 58
2, 27360, Note_on_c, 0, 64, 58
2, 27360, Note_on_c, 0, 66, 58
2, 27360, Note_on_c, 0, 69, 69
2, 27440, Note_on_c, 0, 69, 0
2, 27440, Note_on_c, 0, 57, 0
2, 27440, Note_on_c, 0, 64, 0
2, 27440, Note_on_c, 0, 66, 0
2, 27520, Note_on_c, 0, 59, 58
2, 27520, Note_on_c, 0, 64, 58
2, 27520, Note_on_c, 0, 67, 58
2, 27520, Note_on_c, 0, 71, 69
2, 27600, Note_on_c, 0, 71, 0
2, 27600, Note_on_c, 0, 59, 0
2, 27600, Note_on_c, 0, 64, 0
2, 27600, Note_on_c, 0, 67, 0
2, 27680, Note_on_c, 0, 60, 58
2, 27680, Note_on_c, 0, 64, 58
2, 27680, Note_on_c, 0, 69, 58
2, 27680, Note_on_c, 0, 72, 69
2, 27760, Note_on_c, 0, 72, 0
2, 27760, Note_on_c, 0, 60, 0
2, 27760, Note_on_c, 0, 64, 0
2, 27760, Note_on_c, 0, 69, 0
2, 27840, Note_on_c, 0, 59, 62
2, 27840, Note_on_c, 0, 64, 62
2, 27840, Note_on_c, 0, 67, 62
2, 27840, Note_on_c, 0, 71, 73
2, 28320, Note_on_c, 0, 71, 0
2, 28320, Note_on_c, 0, 59, 0
2, 28320, Note_on_c, 0, 64, 0
2, 28320, Note_on_c, 0, 67, 0
2, 28320, Note_on_c, 0, 55, 57
2, 28320, Note_on_c, 0, 59, 57
2, 28320, Note_on_c, 0, 64, 57
2, 28320, Note_on_c, 0, 67, 68
2, 28680, Note_on_c, 0, 67, 0
2, 28680, Note_on_c, 0, 55, 0
2, 28680, Note_on_c, 0, 59, 0
2, 28680, Note_on_c, 0, 64, 0
2, 28680, Note_on_c, 0, 57, 61
2, 28680, Note_on_c, 0, 66, 61
2, 28680, Note_on_c, 0, 69, 72
2, 28800, Note_on_c, 0, 69, 0
2, 28800, Note_on_c, 0, 66, 0
2, 28800, Note_on_c, 0, 57, 0
2, 28800, Note_on_c, 0, 59, 61
2, 28800, Note_on_c, 0, 64, 61
2, 28800, Note_on_c, 0, 67, 61
2, 28800, Note_on_c, 0, 71, 72
2, 29280, Note_on_c, 0, 71, 0
2, 29280, Note_on_c, 0, 59, 0
2, 29280, Note_on_c, 0, 64, 0
2, 29280, Note_on_c, 0, 67, 0
2, 29280, Note_on_c, 0, 59, 59
2, 29280, Note_on_c, 0, 64, 59
2, 29280, Note_on_c, 0, 67, 59
2, 29280, Note_on_c, 0, 71, 71
2, 29760, Note_on_c, 0, 71, 0
2, 29760, Note_on_c, 0, 59, 0
2, 29760, Note_on_c, 0, 64, 0
2, 29760, Note_on_c, 0, 67, 0
2, 29760, Note_on_c, 0, 71, 66
2, 29760, Note_on_c, 0, 72, 68
2, 29760, Note_on_c, 0, 79, 80
2, 30240, Note_on_c, 0, 79, 0
2, 30240, Note_on_c, 0, 72, 0
2, 30240, Note_on_c, 0, 71, 0
2, 30240, Note_on_c, 0, 69, 61
2, 30240, Note_on_c, 0, 72, 61
2, 30240, Note_on_c, 0, 78, 73
2, 30720, Note_on_c, 0, 78, 0
2, 30720, Note_on_c, 0, 72, 0
2, 30720, Note_on_c, 0, 69, 0
2, 30720, Note_on_c, 0, 67, 55
2, 30720, Note_on_c, 0, 71, 55
2, 30720, Note_on_c, 0, 76, 65
2, 31680, Note_on_c, 0, 76, 0
2, 31680, Note_on_c, 0, 71, 0
2, 31680, Note_on_c, 0, 67, 0
2, 31680, Note_on_c, 0, 66, 45
2, 31680, Note_on_c, 0, 71, 45
2, 31680, Note_on_c, 0, 75, 54
2, 32136, Note_on_c, 0, 75, 0
2, 32136, Note_on_c, 0, 71, 0
2, 32136, Note_on_c, 0, 66, 0
2, 32160, Note_on_c, 0, 66, 49
2, 32640, Note_on_c, 0, 66, 0
2, 32640, Note_on_c, 0, 67, 53
2, 33120, Note_on_c, 0, 67, 0
2, 33120, Note_on_c, 0, 66, 45
2, 33120, Note_on_c, 0, 67, 54
2, 33600, Note_on_c, 0, 67, 0
2, 33600, Note_on_c, 0, 66, 0
2, 33600, Note_on_c, 0, 64, 45
2, 33600, Note_on_c, 0, 67, 54
2, 34080, Note_on_c, 0, 67, 0
2, 34080, Note_on_c, 0, 64, 0
2, 34080, Note_on_c, 0, 62, 45
2, 34080, Note_on_c, 0, 67, 53
2, 34560, Note_on_c, 0, 67, 0
2, 34560, Note_on_c, 0, 62, 0
2, 34560, Note_on_c, 0, 61, 45
2, 34560, Note_on_c, 0, 67, 54
2, 35040, Note_on_c, 0, 67, 0
2, 35040, Note_on_c, 0, 61, 0
2, 35040, Note_on_c, 0, 62, 43
2, 35040, Note_on_c, 0, 66, 51
2, 35200, Note_on_c, 0, 66, 0
2, 35200, Note_on_c, 0, 69, 51
2, 35360, Note_on_c, 0, 69, 0
2, 35360, Note_on_c, 0, 72, 50
2, 35520, Note_on_c, 0, 72, 0
2, 35520, Note_on_c, 0, 62, 0
2, 35520, Note_on_c, 0, 67, 49
2, 35520, Note_on_c, 0, 62, 45
2, 35520, Note_on_c, 0, 71, 54
2, 36000, Note_on_c, 0, 71, 0
2, 36000, Note_on_c, 0, 62, 0
2, 36000, Note_on_c, 0, 67, 0
2, 36000, Note_on_c, 0, 59, 45
2, 36000, Note_on_c, 0, 62, 45
2, 36000, Note_on_c, 0, 67, 53
2, 36360, Note_on_c, 0, 67, 0
2, 36360, Note_on_c, 0, 65, 49
2, 36480, Note_on_c, 0, 65, 0
2, 36480, Note_on_c, 0, 62, 0
2, 36480, Note_on_c, 0, 59, 0
2, 36480, Note_on_c, 0, 60, 44
2, 36480, Note_on_c, 0, 64, 52
2, 36960, Note_on_c, 0, 64, 0
2, 36960, Note_on_c, 0, 60, 0
2, 36960, Note_on_c, 0, 60, 42
2, 36960, Note_on_c, 0, 64, 50
2, 37440, Note_on_c, 0, 64, 0
2, 37440, Note_on_c, 0, 60, 0
2, 37440, Note_on_c, 0, 59, 42
2, 37440, Note_on_c, 0, 64, 50
2, 37920, Note_on_c, 0, 64, 0
2, 37920, Note_on_c, 0, 59, 0
2, 37920, Note_on_c, 0, 54, 42
2, 37920, Note_on_c, 0, 57, 42
2, 37920, Note_on_c, 0, 60, 42
2, 37920, Note_on_c, 0, 66, 50
2, 38280, Note_on_c, 0, 66, 0
2, 38280, Note_on_c, 0, 63, 45
2, 38400, Note_on_c, 0, 63, 0
2, 38400, Note_on_c, 0, 60, 0
2, 38400, Note_on_c, 0, 57, 0
2, 38400, Note_on_c, 0, 54, 0
2, 38400, Note_on_c, 0, 54, 38
2, 38400, Note_on_c, 0, 57, 41
2, 38400, Note_on_c, 0, 60, 41
2, 38400, Note_on_c, 0, 63, 49
2, 38880, Note_on_c, 0, 63, 0
2, 38880, Note_on_c, 0, 54, 0
2, 38880, Note_on_c, 0, 57, 0
2, 38880, Note_on_c, 0, 60, 0
2, 38880, Note_on_c, 0, 55, 35
2, 38880, Note_on_c, 0, 59, 35
2, 38880, Note_on_c, 0, 64, 42
2, 39831, Note_on_c, 0, 64, 0
2, 39831, Note_on_c, 0, 59, 0
2, 39831, Note_on_c, 0, 55, 0
2, 39840, Note_on_c, 0, 59, 57
2, 40320, Note_on_c, 0, 59, 0
2, 40320, Note_on_c, 0, 54, 51
2, 40320, Note_on_c, 0, 59, 51
2, 40320, Note_on_c, 0, 63, 60
2, 40800, Note_on_c, 0, 63, 0
2, 40800, Note_on_c, 0, 59, 0
2, 40800, Note_on_c, 0, 54, 0
2, 40800, Note_on_c, 0, 54, 52
2, 40800, Note_on_c, 0, 59, 52
2, 40800, Note_on_c, 0, 63, 62
2, 41280, Note_on_c, 0, 63, 0
2, 41280, Note_on_c, 0, 59, 0
2, 41280, Note_on_c, 0, 54, 0
2, 41280, Note_on_c, 0, 55, 54
2, 41280, Note_on_c, 0, 59, 54
2, 41280, Note_on_c, 0, 61, 54
2, 41280, Note_on_c, 0, 64, 64
2, 41760, Note_on_c, 0, 64, 0
2, 41760, Note_on_c, 0, 55, 0
2, 41760, Note_on_c, 0, 59, 0
2, 41760, Note_on_c, 0, 61, 0
2, 41760, Note_on_c, 0, 55, 54
2, 41760, Note_on_c, 0, 61, 54
2, 41760, Note_on_c, 0, 64, 65
2, 41840, Note_on_c, 0, 64, 0
2, 41840, Note_on_c, 0, 61, 0
2, 41840, Note_on_c, 0, 55, 0
2, 41920, Note_on_c, 0, 57, 53
2, 41920, Note_on_c, 0, 63, 53
2, 41920, Note_on_c, 0, 66, 63
2, 42000, Note_on_c, 0, 66, 0
2, 42000, Note_on_c, 0, 63, 0
2, 42000, Note_on_c, 0, 57, 0
2, 42080, Note_on_c, 0, 59, 53
2, 42080, Note_on_c, 0, 64, 53
2, 42080, Note_on_c, 0, 67, 63
2, 42160, Note_on_c, 0, 67, 0
2, 42160, Note_on_c, 0, 64, 0
2, 42160, Note_on_c, 0, 59, 0
2, 42240, Note_on_c, 0, 57, 57
2, 42240, Note_on_c, 0, 63, 57
2, 42240, Note_on_c, 0, 66, 67
2, 42720, Note_on_c, 0, 66, 0
2, 42720, Note_on_c, 0, 63, 0
2, 42720, Note_on_c, 0, 57, 0
2, 42720, Note_on_c, 0, 57, 58
2, 42720, Note_on_c, 0, 63, 58
2, 42720, Note_on_c, 0, 66, 69
2, 43200, Note_on_c, 0, 66, 0
2, 43200, Note_on_c, 0, 63, 0
2, 43200, Note_on_c, 0, 57, 0
2, 43200, Note_on_c, 0, 59, 60
2, 43200, Note_on_c, 0, 64, 60
2, 43200, Note_on_c, 0, 67, 72
2, 43680, Note_on_c, 0, 67, 0
2, 43680, Note_on_c, 0, 64, 0
2, 43680, Note_on_c, 0, 59, 0
2, 43680, Note_on_c, 0, 59, 62
2, 43680, Note_on_c, 0, 64, 62
2, 43680, Note_on_c, 0, 67, 73
2, 43760, Note_on_c, 0, 67, 0
2, 43760, Note_on_c, 0, 64, 0
2, 43760, Note_on_c, 0, 59, 0
2, 43840, Note_on_c, 0, 59, 61
2, 43840, Note_on_c, 0, 66, 61
2, 43840, Note_on_c, 0, 69, 72
2, 43920, Note_on_c, 0, 69, 0
2, 43920, Note_on_c, 0, 66, 0
2, 43920, Note_on_c, 0, 59, 0
2, 44000, Note_on_c, 0, 59, 61
2, 44000, Note_on_c, 0, 67, 61
2, 44000, Note_on_c, 0, 71, 72
2, 44080, Note_on_c, 0, 71, 0
2, 44080, Note_on_c, 0, 67, 0
2, 44080, Note_on_c, 0, 59, 0
2, 44160, Note_on_c, 0, 60, 55
2, 44160, Note_on_c, 0, 64, 57
2, 44160, Note_on_c, 0, 66, 63
2, 44160, Note_on_c, 0, 69, 75
2, 44640, Note_on_c, 0, 69, 0
2, 44640, Note_on_c, 0, 60, 0
2, 44640, Note_on_c, 0, 64, 0
2, 44640, Note_on_c, 0, 66, 0
2, 44640, Note_on_c, 0, 60, 60
2, 44640, Note_on_c, 0, 64, 64
2, 44640, Note_on_c, 0, 66, 66
2, 44640, Note_on_c, 0, 69, 77
2, 44720, Note_on_c, 0, 69, 0
2, 44720, Note_on_c, 0, 60, 0
2, 44720, Note_on_c, 0, 64, 0
2, 44720, Note_on_c, 0, 66, 0
2, 44800, Note_on_c, 0, 67, 64
2, 44800, Note_on_c, 0, 64, 64
2, 44800, Note_on_c, 0, 71, 76
2, 44880, Note_on_c, 0, 71, 0
2, 44880, Note_on_c, 0, 64, 0
2, 44880, Note_on_c, 0, 67, 0
2, 44960, Note_on_c, 0, 64, 64
2, 44960, Note_on_c, 0, 72, 77
2, 44960, Note_on_c, 0, 69, 64
2, 45040, Note_on_c, 0, 69, 0
2, 45040, Note_on_c, 0, 72, 0
2, 45040, Note_on_c, 0, 64, 0
2, 45120, Note_on_c, 0, 67, 67
2, 45120, Note_on_c, 0, 64, 67
2, 45120, Note_on_c, 0, 71, 79
2, 45600, Note_on_c, 0, 71, 0
2, 45600, Note_on_c, 0, 64, 0
2, 45600, Note_on_c, 0, 67, 0
2, 45600, Note_on_c, 0, 64, 71
2, 45600, Note_on_c, 0, 71, 83
2, 45600, Note_on_c, 0, 67, 71
2, 45680, Note_on_c, 0, 67, 0
2, 45680, Note_on_c, 0, 71, 0
2, 45680, Note_on_c, 0, 64, 0
2, 45760, Note_on_c, 0, 66, 67
2, 45760, Note_on_c, 0, 75, 80
2, 45760, Note_on_c, 0, 69, 67
2, 45840, Note_on_c, 0, 69, 0
2, 45840, Note_on_c, 0, 75, 0
2, 45840, Note_on_c, 0, 66, 0
2, 45920, Note_on_c, 0, 76, 81
2, 45920, Note_on_c, 0, 67, 68
2, 45920, Note_on_c, 0, 71, 68
2, 46000, Note_on_c, 0, 71, 0
2, 46000, Note_on_c, 0, 67, 0
2, 46000, Note_on_c, 0, 76, 0
2, 46080, Note_on_c, 0, 66, 69
2, 46080, Note_on_c, 0, 69, 69
2, 46080, Note_on_c, 0, 75, 82
2, 46560, Note_on_c, 0, 75, 0
2, 46560, Note_on_c, 0, 69, 0
2, 46560, Note_on_c, 0, 66, 0
2, 46560, Note_on_c, 0, 66, 75
2, 46560, Note_on_c, 0, 69, 75
2, 46560, Note_on_c, 0, 75, 89
2, 46640, Note_on_c, 0, 75, 0
2, 46640, Note_on_c, 0, 69, 0
2, 46640, Note_on_c, 0, 66, 0
2, 46720, Note_on_c, 0, 71, 72
2, 46720, Note_on_c, 0, 67, 72
2, 46720, Note_on_c, 0, 76, 85
2, 46800, Note_on_c, 0, 76, 0
2, 46800, Note_on_c, 0, 67, 0
2, 46800, Note_on_c, 0, 71, 0
2, 46880, Note_on_c, 0, 69, 74
2, 46880, Note_on_c, 0, 78, 87
2, 46880, Note_on_c, 0, 72, 74
2, 46960, Note_on_c, 0, 72, 0
2, 46960, Note_on_c, 0, 78, 0
2, 46960, Note_on_c, 0, 69, 0
2, 47040, Note_on_c, 0, 71, 74
2, 47040, Note_on_c, 0, 67, 74
2, 47040, Note_on_c, 0, 76, 87
2, 47520, Note_on_c, 0, 76, 0
2, 47520, Note_on_c, 0, 67, 0
2, 47520, Note_on_c, 0, 71, 0
2, 47520, Note_on_c, 0, 67, 79
2, 47520, Note_on_c, 0, 76, 94
2, 47520, Note_on_c, 0, 71, 79
2, 47600, Note_on_c, 0, 71, 0
2, 47600, Note_on_c, 0, 76, 0
2, 47600, Note_on_c, 0, 67, 0
2, 47680, Note_on_c, 0, 67, 75
2, 47680, Note_on_c, 0, 78, 89
2, 47680, Note_on_c, 0, 71, 75
2, 47760, Note_on_c, 0, 71, 0
2, 47760, Note_on_c, 0, 78, 0
2, 47760, Note_on_c, 0, 67, 0
2, 47840, Note_on_c, 0, 79, 90
2, 47840, Note_on_c, 0, 67, 76
2, 47840, Note_on_c, 0, 71, 76
2, 47920, Note_on_c, 0, 71, 0
2, 47920, Note_on_c, 0, 67, 0
2, 47920, Note_on_c, 0, 79, 0
2, 48000, Note_on_c, 0, 76, 80
2, 48000, Note_on_c, 0, 81, 94
2, 48480, Note_on_c, 0, 81, 0
2, 48480, Note_on_c, 0, 76, 0
2, 48480, Note_on_c, 0, 74, 80
2, 48480, Note_on_c, 0, 79, 94
2, 48480, Note_on_c, 0, 81, 94
2, 48960, Note_on_c, 0, 81, 0
2, 48960, Note_on_c, 0, 79, 0
2, 48960, Note_on_c, 0, 74, 0
2, 48960, Note_on_c, 0, 72, 80
2, 48960, Note_on_c, 0, 78, 94
2, 48960, Note_on_c, 0, 81, 94
2, 49440, Note_on_c, 0, 81, 0
2, 49440, Note_on_c, 0, 78, 0
2, 49440, Note_on_c, 0, 72, 0
2, 49440, Note_on_c, 0, 71, 80
2, 49440, Note_on_c, 0, 76, 94
2, 49440, Note_on_c, 0, 81, 94
2, 49920, Note_on_c, 0, 81, 0
2, 49920, Note_on_c, 0, 76, 0
2, 49920, Note_on_c, 0, 71, 0
2, 49920, Note_on_c, 0, 69, 80
2, 49920, Note_on_c, 0, 74, 94
2, 49920, Note_on_c, 0, 81, 94
2, 50400, Note_on_c, 0, 81, 0
2, 50400, Note_on_c, 0, 74, 0
2, 50400, Note_on_c, 0, 69, 0
2, 50400, Note_on_c, 0, 67, 74
2, 50400, Note_on_c, 0, 72, 90
2, 50400, Note_on_c, 0, 81, 92
2, 50760, Note_on_c, 0, 81, 0
2, 50760, Note_on_c, 0, 72, 0
2, 50760, Note_on_c, 0, 67, 0
2, 50760, Note_on_c, 0, 66, 75
2, 50820, Note_on_c, 0, 71, 90
2, 50880, Note_on_c, 0, 81, 90
2, 51360, Note_on_c, 0, 81, 0
2, 51360, Note_on_c, 0, 71, 0
2, 51360, Note_on_c, 0, 66, 0
2, 51360, Note_on_c, 0, 63, 79
2, 51360, Note_on_c, 0, 71, 95
2, 51360, Note_on_c, 0, 69, 79
2, 51440, Note_on_c, 0, 69, 0
2, 51440, Note_on_c, 0, 71, 0
2, 51440, Note_on_c, 0, 63, 0
2, 51520, Note_on_c, 0, 64, 75
2, 51520, Note_on_c, 0, 73, 90
2, 51520, Note_on_c, 0, 69, 75
2, 51600, Note_on_c, 0, 69, 0
2, 51600, Note_on_c, 0, 73, 0
2, 51600, Note_on_c, 0, 64, 0
2, 51680, Note_on_c, 0, 75, 91
2, 51680, Note_on_c, 0, 66, 76
2, 51680, Note_on_c, 0, 69, 76
2, 51760, Note_on_c, 0, 69, 0
2, 51760, Note_on_c, 0, 66, 0
2, 51760, Note_on_c, 0, 75, 0
2, 51840, Note_on_c, 0, 64, 79
2, 51840, Note_on_c, 0, 67, 79
2, 51840, Note_on_c, 0, 76, 94
2, 52320, Note_on_c, 0, 76, 0
2, 52320, Note_on_c, 0, 67, 0
2, 52320, Note_on_c, 0, 64, 0
2, 52320, Note_on_c, 0, 69, 79
2, 52320, Note_on_c, 0, 66, 79
2, 52320, Note_on_c, 0, 74, 94
2, 52320, Note_on_c, 0, 76, 94
2, 52800, Note_on_c, 0, 76, 0
2, 52800, Note_on_c, 0, 69, 0
2, 52800, Note_on_c, 0, 66, 0
2, 52800, Note_on_c, 0, 74, 0
2, 52800, Note_on_c, 0, 64, 79
2, 52800, Note_on_c, 0, 67, 79
2, 52800, Note_on_c, 0, 72, 94
2, 52800, Note_on_c, 0, 76, 94
2, 53280, Note_on_c, 0, 76, 0
2, 53280, Note_on_c, 0, 64, 0
2, 53280, Note_on_c, 0, 67, 0
2, 53280, Note_on_c, 0, 72, 0
2, 53280, Note_on_c, 0, 62, 79
2, 53280, Note_on_c, 0, 66, 79
2, 53280, Note_on_c, 0, 71, 94
2, 53280, Note_on_c, 0, 76, 94
2, 53760, Note_on_c, 0, 76, 0
2, 53760, Note_on_c, 0, 62, 0
2, 53760, Note_on_c, 0, 66, 0
2, 53760, Note_on_c, 0, 71, 0
2, 53760, Note_on_c, 0, 64, 79
2, 53760, Note_on_c, 0, 69, 94
2, 53760, Note_on_c, 0, 76, 94
2, 54240, Note_on_c, 0, 76, 0
2, 54240, Note_on_c, 0, 69, 0
2, 54240, Note_on_c, 0, 64, 0
2, 54240, Note_on_c, 0, 62, 74
2, 54240, Note_on_c, 0, 67, 90
2, 54240, Note_on_c, 0, 76, 92
2, 54720, Note_on_c, 0, 76, 0
2, 54720, Note_on_c, 0, 67, 0
2, 54720, Note_on_c, 0, 62, 0
2, 54720, Note_on_c, 0, 66, 91
2, 54720, Note_on_c, 0, 76, 93
2, 55200, Note_on_c, 0, 76, 0
2, 55200, Note_on_c, 0, 66, 0
2, 55200, Note_on_c, 0, 57, 86
2, 55200, Note_on_c, 0, 64, 86
2, 55440, Note_on_c, 0, 54, 75
2, 55440, Note_on_c, 0, 66, 87
2, 55480, Note_on_c, 0, 66, 0
2, 55480, Note_on_c, 0, 54, 0
2, 55520, Note_on_c, 0, 54, 75
2, 55520, Note_on_c, 0, 66, 87
2, 55560, Note_on_c, 0, 66, 0
2, 55560, Note_on_c, 0, 54, 0
2, 55600, Note_on_c, 0, 54, 75
2, 55600, Note_on_c, 0, 66, 87
2, 55640, Note_on_c, 0, 66, 0
2, 55640, Note_on_c, 0, 54, 0
2, 55680, Note_on_c, 0, 64, 0
2, 55680, Note_on_c, 0, 57, 0
2, 55680, Note_on_c, 0, 54, 68
2, 55680, Note_on_c, 0, 63, 80
2, 55680, Note_on_c, 0, 59, 80
2, 55680, Note_on_c, 0, 66, 92
2, 56400, Note_on_c, 0, 66, 0
2, 56400, Note_on_c, 0, 54, 0
2, 56400, Note_on_c, 0, 63, 0
2, 56400, Note_on_c, 0, 59, 0
2, 56400, Note_on_c, 0, 54, 75
2, 56400, Note_on_c, 0, 66, 87
2, 56440, Note_on_c, 0, 66, 0
2, 56440, Note_on_c, 0, 54, 0
2, 56480, Note_on_c, 0, 54, 75
2, 56480, Note_on_c, 0, 66, 87
2, 56520, Note_on_c, 0, 66, 0
2, 56520, Note_on_c, 0, 54, 0
2, 56560, Note_on_c, 0, 54, 75
2, 56560, Note_on_c, 0, 66, 87
2, 56600, Note_on_c, 0, 66, 0
2, 56600, Note_on_c, 0, 54, 0
2, 56640, Note_on_c, 0, 54, 80
2, 56640, Note_on_c, 0, 66, 92
2, 57360, Note_on_c, 0, 66, 0
2, 57360, Note_on_c, 0, 54, 0
2, 57360, Note_on_c, 0, 54, 75
2, 57360, Note_on_c, 0, 66, 87
2, 57400, Note_on_c, 0, 66, 0
2, 57400, Note_on_c, 0, 54, 0
2, 57440, Note_on_c, 0, 54, 75
2, 57440, Note_on_c, 0, 66, 87
2, 57480, Note_on_c, 0, 66, 0
2, 57480, Note_on_c, 0, 54, 0
2, 57520, Note_on_c, 0, 54, 75
2, 57520, Note_on_c, 0, 66, 87
2, 57560, Note_on_c, 0, 66, 0
2, 57560, Note_on_c, 0, 54, 0
2, 57600, Note_on_c, 0, 57, 80
2, 57600, Note_on_c, 0, 69, 92
2, 58560, Note_on_c, 0, 69, 0
2, 58560, Note_on_c, 0, 57, 0
2, 58560, Note_on_c, 0, 54, 71
2, 58560, Note_on_c, 0, 66, 82
2, 59040, Note_on_c, 0, 66, 0
2, 59040, Note_on_c, 0, 54, 0
2, 59280, Note_on_c, 0, 78, 82
2, 59280, Note_on_c, 0, 76, 82
2, 59280, Note_on_c, 0, 72, 69
2, 59280, Note_on_c, 0, 81, 95
2, 59320, Note_on_c, 0, 81, 0
2, 59320, Note_on_c, 0, 78, 0
2, 59320, Note_on_c, 0, 76, 0
2, 59320, Note_on_c, 0, 72, 0
2, 59360, Note_on_c, 0, 78, 82
2, 59360, Note_on_c, 0, 76, 82
2, 59360, Note_on_c, 0, 72, 69
2, 59360, Note_on_c, 0, 81, 95
2, 59400, Note_on_c, 0, 81, 0
2, 59400, Note_on_c, 0, 78, 0
2, 59400, Note_on_c, 0, 76, 0
2, 59400, Note_on_c, 0, 72, 0
2, 59440, Note_on_c, 0, 78, 82
2, 59440, Note_on_c, 0, 76, 82
2, 59440, Note_on_c, 0, 72, 69
2, 59440, Note_on_c, 0, 81, 95
2, 59480, Note_on_c, 0, 81, 0
2, 59480, Note_on_c, 0, 78, 0
2, 59480, Note_on_c, 0, 76, 0
2, 59480, Note_on_c, 0, 72, 0
2, 59520, Note_on_c, 0, 78, 88
2, 59520, Note_on_c, 0, 75, 88
2, 59520, Note_on_c, 0, 71, 74
2, 59520, Note_on_c, 0, 81, 101
2, 60240, Note_on_c, 0, 81, 0
2, 60240, Note_on_c, 0, 78, 0
2, 60240, Note_on_c, 0, 75, 0
2, 60240, Note_on_c, 0, 71, 0
2, 60240, Note_on_c, 0, 78, 82
2, 60240, Note_on_c, 0, 76, 82
2, 60240, Note_on_c, 0, 71, 69
2, 60240, Note_on_c, 0, 81, 95
2, 60280, Note_on_c, 0, 81, 0
2, 60280, Note_on_c, 0, 78, 0
2, 60280, Note_on_c, 0, 76, 0
2, 60280, Note_on_c, 0, 71, 0
2, 60320, Note_on_c, 0, 78, 82
2, 60320, Note_on_c, 0, 76, 82
2, 60320, Note_on_c, 0, 71, 69
2, 60320, Note_on_c, 0, 81, 95
2, 60360, Note_on_c, 0, 81, 0
2, 60360, Note_on_c, 0, 78, 0
2, 60360, Note_on_c, 0, 76, 0
2, 60360, Note_on_c, 0, 71, 0
2, 60400, Note_on_c, 0, 78, 82
2, 60400, Note_on_c, 0, 76, 82
2, 60400, Note_on_c, 0, 71, 69
2, 60400, Note_on_c, 0, 81, 95
2, 60440, Note_on_c, 0, 81, 0
2, 60440, Note_on_c, 0, 78, 0
2, 60440, Note_on_c, 0, 76, 0
2, 60440, Note_on_c, 0, 71, 0
2, 60480, Note_on_c, 0, 78, 88
2, 60480, Note_on_c, 0, 75, 88
2, 60480, Note_on_c, 0, 71, 74
2, 60480, Note_on_c, 0, 81, 101
2, 61200, Note_on_c, 0, 81, 0
2, 61200, Note_on_c, 0, 78, 0
2, 61200, Note_on_c, 0, 75, 0
2, 61200, Note_on_c, 0, 71, 0
2, 61200, Note_on_c, 0, 78, 82
2, 61200, Note_on_c, 0, 76, 82
2, 61200, Note_on_c, 0, 71, 69
2, 61200, Note_on_c, 0, 81, 95
2, 61240, Note_on_c, 0, 81, 0
2, 61240, Note_on_c, 0, 78, 0
2, 61240, Note_on_c, 0, 76, 0
2, 61240, Note_on_c, 0, 71, 0
2, 61280, Note_on_c, 0, 78, 82
2, 61280, Note_on_c, 0, 76, 82
2, 61280, Note_on_c, 0, 71, 69
2, 61280, Note_on_c, 0, 81, 95
2, 61320, Note_on_c, 0, 81, 0
2, 61320, Note_on_c, 0, 78, 0
2, 61320, Note_on_c, 0, 76, 0
2, 61320, Note_on_c, 0, 71, 0
2, 61360, Note_on_c, 0, 78, 82
2, 61360, Note_on_c, 0, 76, 82
2, 61360, Note_on_c, 0, 71, 69
2, 61360, Note_on_c, 0, 81, 95
2, 61400, Note_on_c, 0, 81, 0
2, 61400, Note_on_c, 0, 78, 0
2, 61400, Note_on_c, 0, 76, 0
2, 61400, Note_on_c, 0, 71, 0
2, 61440, Note_on_c, 0, 75, 88
2, 61440, Note_on_c, 0, 81, 88
2, 61440, Note_on_c, 0, 87, 101
2, 62400, Note_on_c, 0, 87, 0
2, 62400, Note_on_c, 0, 81, 0
2, 62400, Note_on_c, 0, 75, 0
2, 62400, Note_on_c, 0, 78, 70
2, 62400, Note_on_c, 0, 90, 81
2, 62880, Note_on_c, 0, 90, 0
2, 62880, Note_on_c, 0, 78, 0
2, 62880, Note_on_c, 0, 57, 74
2, 62880, Note_on_c, 0, 59, 89
2, 63360, Note_on_c, 0, 59, 0
2, 63360, Note_on_c, 0, 57, 0
2, 63360, Note_on_c, 0, 52, 65
2, 63360, Note_on_c, 0, 55, 77
2, 63360, Note_on_c, 0, 59, 77
2, 63360, Note_on_c, 0, 64, 92
2, 63840, Note_on_c, 0, 64, 0
2, 63840, Note_on_c, 0, 52, 0
2, 63840, Note_on_c, 0, 55, 0
2, 63840, Note_on_c, 0, 59, 0
2, 63840, Note_on_c, 0, 52, 65
2, 63840, Note_on_c, 0, 55, 77
2, 63840, Note_on_c, 0, 59, 77
2, 63840, Note_on_c, 0, 64, 92
2, 64320, Note_on_c, 0, 64, 0
2, 64320, Note_on_c, 0, 52, 0
2, 64320, Note_on_c, 0, 55, 0
2, 64320, Note_on_c, 0, 59, 0
2, 64320, Note_on_c, 0, 55, 67
2, 64320, Note_on_c, 0, 59, 79
2, 64320, Note_on_c, 0, 62, 79
2, 64320, Note_on_c, 0, 67, 93
2, 64800, Note_on_c, 0, 67, 0
2, 64800, Note_on_c, 0, 55, 0
2, 64800, Note_on_c, 0, 59, 0
2, 64800, Note_on_c, 0, 62, 0
2, 64800, Note_on_c, 0, 62, 78
2, 64800, Note_on_c, 0, 57, 62
2, 64800, Note_on_c, 0, 66, 79
2, 64800, Note_on_c, 0, 69, 93
2, 65280, Note_on_c, 0, 69, 0
2, 65280, Note_on_c, 0, 62, 0
2, 65280, Note_on_c, 0, 57, 0
2, 65280, Note_on_c, 0, 66, 0
2, 65280, Note_on_c, 0, 59, 68
2, 65280, Note_on_c, 0, 62, 80
2, 65280, Note_on_c, 0, 67, 80
2, 65280, Note_on_c, 0, 71, 94
2, 65760, Note_on_c, 0, 71, 0
2, 65760, Note_on_c, 0, 59, 0
2, 65760, Note_on_c, 0, 62, 0
2, 65760, Note_on_c, 0, 67, 0
2, 65760, Note_on_c, 0, 57, 63
2, 65760, Note_on_c, 0, 62, 75
2, 65760, Note_on_c, 0, 66, 75
2, 65760, Note_on_c, 0, 69, 90
2, 65840, Note_on_c, 0, 69, 0
2, 65840, Note_on_c, 0, 57, 0
2, 65840, Note_on_c, 0, 62, 0
2, 65840, Note_on_c, 0, 66, 0
2, 65920, Note_on_c, 0, 59, 61
2, 65920, Note_on_c, 0, 62, 72
2, 65920, Note_on_c, 0, 67, 72
2, 65920, Note_on_c, 0, 71, 87
2, 66000, Note_on_c, 0, 71, 0
2, 66000, Note_on_c, 0, 59, 0
2, 66000, Note_on_c, 0, 62, 0
2, 66000, Note_on_c, 0, 67, 0
2, 66080, Note_on_c, 0, 60, 61
2, 66080, Note_on_c, 0, 62, 72
2, 66080, Note_on_c, 0, 69, 72
2, 66080, Note_on_c, 0, 72, 87
2, 66160, Note_on_c, 0, 72, 0
2, 66160, Note_on_c, 0, 60, 0
2, 66160, Note_on_c, 0, 62, 0
2, 66160, Note_on_c, 0, 69, 0
2, 66240, Note_on_c, 0, 59, 68
2, 66240, Note_on_c, 0, 62, 81
2, 66240, Note_on_c, 0, 67, 81
2, 66240, Note_on_c, 0, 71, 95
2, 66720, Note_on_c, 0, 71, 0
2, 66720, Note_on_c, 0, 59, 0
2, 66720, Note_on_c, 0, 62, 0
2, 66720, Note_on_c, 0, 67, 0
2, 66720, Note_on_c, 0, 55, 62
2, 66720, Note_on_c, 0, 59, 74
2, 66720, Note_on_c, 0, 62, 74
2, 66720, Note_on_c, 0, 67, 89
2, 67080, Note_on_c, 0, 67, 0
2, 67080, Note_on_c, 0, 55, 0
2, 67080, Note_on_c, 0, 59, 0
2, 67080, Note_on_c, 0, 62, 0
2, 67080, Note_on_c, 0, 57, 65
2, 67080, Note_on_c, 0, 62, 77
2, 67080, Note_on_c, 0, 66, 77
2, 67080, Note_on_c, 0, 69, 91
2, 67200, Note_on_c, 0, 69, 0
2, 67200, Note_on_c, 0, 57, 0
2, 67200, Note_on_c, 0, 62, 0
2, 67200, Note_on_c, 0, 66, 0
2, 67200, Note_on_c, 0, 59, 68
2, 67200, Note_on_c, 0, 62, 80
2, 67200, Note_on_c, 0, 67, 80
2, 67200, Note_on_c, 0, 71, 94
2, 67680, Note_on_c, 0, 71, 0
2, 67680, Note_on_c, 0, 59, 0
2, 67680, Note_on_c, 0, 62, 0
2, 67680, Note_on_c, 0, 67, 0
2, 67680, Note_on_c, 0, 59, 65
2, 67680, Note_on_c, 0, 62, 77
2, 67680, Note_on_c, 0, 67, 77
2, 67680, Note_on_c, 0, 71, 93
2, 68160, Note_on_c, 0, 71, 0
2, 68160, Note_on_c, 0, 59, 0
2, 68160, Note_on_c, 0, 62, 0
2, 68160, Note_on_c, 0, 67, 0
2, 68160, Note_on_c, 0, 67, 73
2, 68160, Note_on_c, 0, 76, 86
2, 68160, Note_on_c, 0, 70, 86
2, 68160, Note_on_c, 0, 73, 86
2, 68160, Note_on_c, 0, 79, 102
2, 68640, Note_on_c, 0, 79, 0
2, 68640, Note_on_c, 0, 70, 0
2, 68640, Note_on_c, 0, 67, 0
2, 68640, Note_on_c, 0, 76, 0
2, 68640, Note_on_c, 0, 73, 0
2, 68640, Note_on_c, 0, 66, 68
2, 68640, Note_on_c, 0, 70, 80
2, 68640, Note_on_c, 0, 73, 80
2, 68640, Note_on_c, 0, 78, 95
2, 69120, Note_on_c, 0, 78, 0
2, 69120, Note_on_c, 0, 66, 0
2, 69120, Note_on_c, 0, 70, 0
2, 69120, Note_on_c, 0, 73, 0
2, 69120, Note_on_c, 0, 64, 61
2, 69120, Note_on_c, 0, 67, 72
2, 69120, Note_on_c, 0, 71, 72
2, 69120, Note_on_c, 0, 76, 85
2, 70080, Note_on_c, 0, 76, 0
2, 70080, Note_on_c, 0, 64, 0
2, 70080, Note_on_c, 0, 67, 0
2, 70080, Note_on_c, 0, 71, 0
2, 70080, Note_on_c, 0, 63, 49
2, 70080, Note_on_c, 0, 66, 58
2, 70080, Note_on_c, 0, 71, 58
2, 70080, Note_on_c, 0, 75, 71
2, 70560, Note_on_c, 0, 75, 0
2, 70560, Note_on_c, 0, 63, 0
2, 70560, Note_on_c, 0, 66, 0
2, 70560, Note_on_c, 0, 71, 0
2, 70560, Note_on_c, 0, 54, 43
2, 70560, Note_on_c, 0, 59, 43
2, 70560, Note_on_c, 0, 63, 43
2, 70560, Note_on_c, 0, 66, 49
2, 71040, Note_on_c, 0, 66, 0
2, 71040, Note_on_c, 0, 54, 0
2, 71040, Note_on_c, 0, 59, 0
2, 71040, Note_on_c, 0, 63, 0
2, 71040, Note_on_c, 0, 55, 45
2, 71040, Note_on_c, 0, 59, 45
2, 71040, Note_on_c, 0, 67, 53
2, 71520, Note_on_c, 0, 67, 0
2, 71520, Note_on_c, 0, 59, 0
2, 71520, Note_on_c, 0, 55, 0
2, 71520, Note_on_c, 0, 55, 45
2, 71520, Note_on_c, 0, 59, 45
2, 71520, Note_on_c, 0, 65, 45
2, 71520, Note_on_c, 0, 67, 54
2, 72000, Note_on_c, 0, 67, 0
2, 72000, Note_on_c, 0, 55, 0
2, 72000, Note_on_c, 0, 59, 0
2, 72000, Note_on_c, 0, 65, 0
2, 72000, Note_on_c, 0, 55, 45
2, 72000, Note_on_c, 0, 60, 45
2, 72000, Note_on_c, 0, 64, 45
2, 72000, Note_on_c, 0, 67, 54
2, 72480, Note_on_c, 0, 67, 0
2, 72480, Note_on_c, 0, 55, 0
2, 72480, Note_on_c, 0, 60, 0
2, 72480, Note_on_c, 0, 64, 0
2, 72480, Note_on_c, 0, 55, 45
2, 72480, Note_on_c, 0, 62, 45
2, 72480, Note_on_c, 0, 67, 53
2, 72960, Note_on_c, 0, 67, 0
2, 72960, Note_on_c, 0, 62, 0
2, 72960, Note_on_c, 0, 55, 0
2, 72960, Note_on_c, 0, 57, 45
2, 72960, Note_on_c, 0, 64, 45
2, 72960, Note_on_c, 0, 61, 45
2, 72960, Note_on_c, 0, 67, 54
2, 73440, Note_on_c, 0, 67, 0
2, 73440, Note_on_c, 0, 57, 0
2, 73440, Note_on_c, 0, 64, 0
2, 73440, Note_on_c, 0, 61, 0
2, 73440, Note_on_c, 0, 60, 43
2, 73440, Note_on_c, 0, 62, 43
2, 73440, Note_on_c, 0, 66, 51
2, 73600, Note_on_c, 0, 66, 0
2, 73600, Note_on_c, 0, 69, 51
2, 73760, Note_on_c, 0, 69, 0
2, 73760, Note_on_c, 0, 72, 50
2, 73920, Note_on_c, 0, 72, 0
2, 73920, Note_on_c, 0, 62, 0
2, 73920, Note_on_c, 0, 60, 0
2, 73920, Note_on_c, 0, 59, 45
2, 73920, Note_on_c, 0, 67, 49
2, 73920, Note_on_c, 0, 62, 45
2, 73920, Note_on_c, 0, 71, 54
2, 74400, Note_on_c, 0, 71, 0
2, 74400, Note_on_c, 0, 59, 0
2, 74400, Note_on_c, 0, 67, 0
2, 74400, Note_on_c, 0, 62, 0
2, 74400, Note_on_c, 0, 59, 45
2, 74400, Note_on_c, 0, 63, 45
2, 74400, Note_on_c, 0, 67, 53
2, 74760, Note_on_c, 0, 67, 0
2, 74760, Note_on_c, 0, 66, 49
2, 74880, Note_on_c, 0, 66, 0
2, 74880, Note_on_c, 0, 63, 0
2, 74880, Note_on_c, 0, 59, 0
2, 74880, Note_on_c, 0, 60, 44
2, 74880, Note_on_c, 0, 64, 52
2, 75360, Note_on_c, 0, 64, 0
2, 75360, Note_on_c, 0, 60, 0
2, 75360, Note_on_c, 0, 57, 42
2, 75360, Note_on_c, 0, 64, 50
2, 75840, Note_on_c, 0, 64, 0
2, 75840, Note_on_c, 0, 57, 0
2, 75840, Note_on_c, 0, 56, 42
2, 75840, Note_on_c, 0, 59, 42
2, 75840, Note_on_c, 0, 64, 50
2, 76320, Note_on_c, 0, 64, 0
2, 76320, Note_on_c, 0, 59, 0
2, 76320, Note_on_c, 0, 56, 0
2, 76320, Note_on_c, 0, 57, 42
2, 76320, Note_on_c, 0, 60, 42
2, 76320, Note_on_c, 0, 64, 50
2, 76800, Note_on_c, 0, 64, 0
2, 76800, Note_on_c, 0, 60, 0
2, 76800, Note_on_c, 0, 57, 0
2, 76800, Note_on_c, 0, 59, 41
2, 76800, Note_on_c, 0, 62, 41
2, 76800, Note_on_c, 0, 64, 49
2, 78240, Note_on_c, 0, 64, 0
2, 78240, Note_on_c, 0, 62, 0
2, 78240, Note_on_c, 0, 59, 0
2, 78240, Note_on_c, 0, 67, 53
2, 78600, Note_on_c, 0, 67, 0
2, 78600, Note_on_c, 0, 65, 49
2, 78720, Note_on_c, 0, 65, 0
2, 78720, Note_on_c, 0, 64, 52
2, 79200, Note_on_c, 0, 64, 0
2, 79200, Note_on_c, 0, 57, 42
2, 79200, Note_on_c, 0, 64, 50
2, 79680, Note_on_c, 0, 64, 0
2, 79680, Note_on_c, 0, 57, 0
2, 79680, Note_on_c, 0, 56, 42
2, 79680, Note_on_c, 0, 59, 42
2, 79680, Note_on_c, 0, 64, 50
2, 80160, Note_on_c, 0, 64, 0
2, 80160, Note_on_c, 0, 59, 0
2, 80160, Note_on_c, 0, 56, 0
2, 80160, Note_on_c, 0, 57, 42
2, 80160, Note_on_c, 0, 60, 42
2, 80160, Note_on_c, 0, 64, 50
2, 80640, Note_on_c, 0, 64, 0
2, 80640, Note_on_c, 0, 60, 0
2, 80640, Note_on_c, 0, 57, 0
2, 80640, Note_on_c, 0, 59, 41
2, 80640, Note_on_c, 0, 62, 41
2, 80640, Note_on_c, 0, 64, 49
2, 82080, Note_on_c, 0, 64, 0
2, 82080, Note_on_c, 0, 62, 0
2, 82080, Note_on_c, 0, 59, 0
2, 82080, Note_on_c, 0, 67, 53
2, 82440, Note_on_c, 0, 67, 0
2, 82440, Note_on_c, 0, 65, 49
2, 82560, Note_on_c, 0, 65, 0
2, 82560, Note_on_c, 0, 64, 52
2, 83040, Note_on_c, 0, 64, 0
2, 83040, Note_on_c, 0, 60, 37
2, 83040, Note_on_c, 0, 57, 37
2, 83040, Note_on_c, 0, 64, 45
2, 83520, Note_on_c, 0, 64, 0
2, 83520, Note_on_c, 0, 57, 0
2, 83520, Note_on_c, 0, 60, 0
2, 83520, Note_on_c, 0, 57, 36
2, 83520, Note_on_c, 0, 60, 36
2, 83520, Note_on_c, 0, 64, 43
2, 84000, Note_on_c, 0, 64, 0
2, 84000, Note_on_c, 0, 60, 0
2, 84000, Note_on_c, 0, 57, 0
2, 84000, Note_on_c, 0, 54, 30
2, 84000, Note_on_c, 0, 57, 32
2, 84000, Note_on_c, 0, 60, 34
2, 84000, Note_on_c, 0, 66, 41
2, 84360, Note_on_c, 0, 66, 0
2, 84360, Note_on_c, 0, 63, 39
2, 84480, Note_on_c, 0, 63, 0
2, 84480, Note_on_c, 0, 60, 0
2, 84480, Note_on_c, 0, 57, 0
2, 84480, Note_on_c, 0, 54, 0
2, 84480, Note_on_c, 0, 54, 33
2, 84480, Note_on_c, 0, 57, 33
2, 84480, Note_on_c, 0, 60, 33
2, 84480, Note_on_c, 0, 63, 39
2, 85440, Note_on_c, 0, 63, 0
2, 85440, Note_on_c, 0, 54, 0
2, 85440, Note_on_c, 0, 57, 0
2, 85440, Note_on_c, 0, 60, 0
2, 85440, Note_on_c, 0, 55, 33
2, 85440, Note_on_c, 0, 59, 33
2, 85440, Note_on_c, 0, 64, 39
2, 88320, Note_on_c, 0, 64, 0
2, 88320, Note_on_c, 0, 59, 0
2, 88320, Note_on_c, 0, 55, 0
2, 90000, Note_on_c, 0, 71, 32
2, 90000, Note_on_c, 0, 76, 32
2, 90000, Note_on_c, 0, 83, 38
2, 90040, Note_on_c, 0, 83, 0
2, 90040, Note_on_c, 0, 76, 0
2, 90040, Note_on_c, 0, 71, 0
2, 90080, Note_on_c, 0, 71, 32
2, 90080, Note_on_c, 0, 76, 32
2, 90080, Note_on_c, 0, 83, 38
2, 90120, Note_on_c, 0, 83, 0
2, 90120, Note_on_c, 0, 76, 0
2, 90120, Note_on_c, 0, 71, 0
2, 90160, Note_on_c, 0, 71, 32
2, 90160, Note_on_c, 0, 76, 32
2, 90160, Note_on_c, 0, 83, 38
2, 90200, Note_on_c, 0, 83, 0
2, 90200, Note_on_c, 0, 76, 0
2, 90200, Note_on_c, 0, 71, 0
2, 90240, Note_on_c, 0, 71, 34
2, 90240, Note_on_c, 0, 76, 34
2, 90240, Note_on_c, 0, 83, 41
2, 90960, Note_on_c, 0, 83, 0
2, 90960, Note_on_c, 0, 76, 0
2, 90960, Note_on_c, 0, 71, 0
2, 90960, Note_on_c, 0, 71, 32
2, 90960, Note_on_c, 0, 76, 32
2, 90960, Note_on_c, 0, 83, 38
2, 91000, Note_on_c, 0, 83, 0
2, 91000, Note_on_c, 0, 76, 0
2, 91000, Note_on_c, 0, 71, 0
2, 91040, Note_on_c, 0, 71, 32
2, 91040, Note_on_c, 0, 76, 32
2, 91040, Note_on_c, 0, 83, 38
2, 91080, Note_on_c, 0, 83, 0
2, 91080, Note_on_c, 0, 76, 0
2, 91080, Note_on_c, 0, 71, 0
2, 91120, Note_on_c, 0, 71, 32
2, 91120, Note_on_c, 0, 76, 32
2, 91120, Note_on_c, 0, 83, 38
2, 91160, Note_on_c, 0, 83, 0
2, 91160, Note_on_c, 0, 76, 0
2, 91160, Note_on_c, 0, 71, 0
2, 91200, Note_on_c, 0, 71, 34
2, 91200, Note_on_c, 0, 76, 34
2, 91200, Note_on_c, 0, 83, 41
2, 91920, Note_on_c, 0, 83, 0
2, 91920, Note_on_c, 0, 76, 0
2, 91920, Note_on_c, 0, 71, 0
2, 91920, Note_on_c, 0, 76, 32
2, 91920, Note_on_c, 0, 79, 32
2, 91920, Note_on_c, 0, 83, 38
2, 91960, Note_on_c, 0, 83, 0
2, 91960, Note_on_c, 0, 79, 0
2, 91960, Note_on_c, 0, 76, 0
2, 92000, Note_on_c, 0, 76, 32
2, 92000, Note_on_c, 0, 79, 32
2, 92000, Note_on_c, 0, 83, 38
2, 92040, Note_on_c, 0, 83, 0
2, 92040, Note_on_c, 0, 79, 0
2, 92040, Note_on_c, 0, 76, 0
2, 92080, Note_on_c, 0, 76, 32
2, 92080, Note_on_c, 0, 79, 32
2, 92080, Note_on_c, 0, 83, 38
2, 92120, Note_on_c, 0, 83, 0
2, 92120, Note_on_c, 0, 79, 0
2, 92120, Note_on_c, 0, 76, 0
2, 92160, Note_on_c, 0, 76, 34
2, 92160, Note_on_c, 0, 79, 34
2, 92160, Note_on_c, 0, 83, 41
2, 93120, Note_on_c, 0, 83, 0
2, 93120, Note_on_c, 0, 79, 0
2, 93120, Note_on_c, 0, 76, 0
2, 93120, Note_on_c, 0, 88, 41
2, 94080, Note_on_c, 0, 88, 0
2, 94080, End_track
3, 0, Start_track
3, 0, Title_t, "Piano left"
3, 0, Program_c, 0, 0
3, 0, Control_c, 0, 7, 127
3, 0, Control_c, 0, 10, 64
3, 0, Control_c, 0, 64, 0
3, 0, Text_t, "bdca426d104a26ac9dcb070447587523"
3, 1680, Note_on_c, 0, 52, 50
3, 1680, Note_on_c, 0, 55, 59
3, 1720, Note_on_c, 0, 55, 0
3, 1720, Note_on_c, 0, 52, 0
3, 1760, Note_on_c, 0, 52, 50
3, 1760, Note_on_c, 0, 55, 59
3, 1800, Note_on_c, 0, 55, 0
3, 1800, Note_on_c, 0, 52, 0
3, 1840, Note_on_c, 0, 52, 50
3, 1840, Note_on_c, 0, 55, 59
3, 1880, Note_on_c, 0, 55, 0
3, 1880, Note_on_c, 0, 52, 0
3, 1920, Note_on_c, 0, 52, 53
3, 1920, Note_on_c, 0, 55, 63
3, 2640, Note_on_c, 0, 55, 0
3, 2640, Note_on_c, 0, 52, 0
3, 2640, Note_on_c, 0, 52, 50
3, 2640, Note_on_c, 0, 55, 59
3, 2680, Note_on_c, 0, 55, 0
3, 2680, Note_on_c, 0, 52, 0
3, 2720, Note_on_c, 0, 52, 50
3, 2720, Note_on_c, 0, 55, 59
3, 2760, Note_on_c, 0, 55, 0
3, 2760, Note_on_c, 0, 52, 0
3, 2800, Note_on_c, 0, 52, 50
3, 2800, Note_on_c, 0, 55, 59
3, 2840, Note_on_c, 0, 55, 0
3, 2840, Note_on_c, 0, 52, 0
3, 2880, Note_on_c, 0, 52, 53
3, 2880, Note_on_c, 0, 55, 63
3, 3600, Note_on_c, 0, 55, 0
3, 3600, Note_on_c, 0, 52, 0
3, 3600, Note_on_c, 0, 52, 50
3, 3600, Note_on_c, 0, 55, 59
3, 3640, Note_on_c, 0, 55, 0
3, 3640, Note_on_c, 0, 52, 0
3, 3680, Note_on_c, 0, 52, 50
3, 3680, Note_on_c, 0, 55, 59
3, 3720, Note_on_c, 0, 55, 0
3, 3720, Note_on_c, 0, 52, 0
3, 3760, Note_on_c, 0, 52, 50
3, 3760, Note_on_c, 0, 55, 59
3, 3800, Note_on_c, 0, 55, 0
3, 3800, Note_on_c, 0, 52, 0
3, 3840, Note_on_c, 0, 40, 53
3, 3840, Note_on_c, 0, 52, 63
3, 4107, Control_c, 0, 64, 127
3, 5067, Control_c, 0, 64, 0
3, 5280, Note_on_c, 0, 52, 0
3, 5280, Note_on_c, 0, 40, 0
3, 5520, Note_on_c, 0, 64, 55
3, 5520, Note_on_c, 0, 67, 64
3, 5560, Note_on_c, 0, 67, 0
3, 5560, Note_on_c, 0, 64, 0
3, 5600, Note_on_c, 0, 64, 55
3, 5600, Note_on_c, 0, 67, 64
3, 5640, Note_on_c, 0, 67, 0
3, 5640, Note_on_c, 0, 64, 0
3, 5680, Note_on_c, 0, 64, 55
3, 5680, Note_on_c, 0, 67, 64
3, 5720, Note_on_c, 0, 67, 0
3, 5720, Note_on_c, 0, 64, 0
3, 5760, Note_on_c, 0, 59, 58
3, 5760, Note_on_c, 0, 66, 69
3, 6480, Note_on_c, 0, 66, 0
3, 6480, Note_on_c, 0, 59, 0
3, 6480, Note_on_c, 0, 64, 55
3, 6480, Note_on_c, 0, 67, 64
3, 6520, Note_on_c, 0, 67, 0
3, 6520, Note_on_c, 0, 64, 0
3, 6560, Note_on_c, 0, 64, 55
3, 6560, Note_on_c, 0, 67, 64
3, 6600, Note_on_c, 0, 67, 0
3, 6600, Note_on_c, 0, 64, 0
3, 6640, Note_on_c, 0, 64, 55
3, 6640, Note_on_c, 0, 67, 64
3, 6680, Note_on_c, 0, 67, 0
3, 6680, Note_on_c, 0, 64, 0
3, 6720, Note_on_c, 0, 59, 58
3, 6720, Note_on_c, 0, 66, 69
3, 7440, Note_on_c, 0, 66, 0
3, 7440, Note_on_c, 0, 59, 0
3, 7440, Note_on_c, 0, 64, 55
3, 7440, Note_on_c, 0, 67, 64
3, 7480, Note_on_c, 0, 67, 0
3, 7480, Note_on_c, 0, 64, 0
3, 7520, Note_on_c, 0, 64, 55
3, 7520, Note_on_c, 0, 67, 64
3, 7560, Note_on_c, 0, 67, 0
3, 7560, Note_on_c, 0, 64, 0
3, 7600, Note_on_c, 0, 64, 55
3, 7600, Note_on_c, 0, 67, 64
3, 7640, Note_on_c, 0, 67, 0
3, 7640, Note_on_c, 0, 64, 0
3, 7680, Note_on_c, 0, 59, 58
3, 7680, Note_on_c, 0, 63, 58
3, 7680, Note_on_c, 0, 66, 58
3, 7680, Note_on_c, 0, 71, 69
3, 7731, Control_c, 0, 64, 127
3, 8907, Control_c, 0, 64, 0
3, 9118, Note_on_c, 0, 59, 0
3, 9120, Note_on_c, 0, 63, 0
3, 9120, Note_on_c, 0, 66, 0
3, 9120, Note_on_c, 0, 71, 0
3, 9600, Note_on_c, 0, 28, 52
3, 9600, Note_on_c, 0, 40, 62
3, 11520, Note_on_c, 0, 40, 0
3, 11520, Note_on_c, 0, 28, 0
3, 11520, Note_on_c, 0, 40, 50
3, 11520, Note_on_c, 0, 52, 59
3, 13440, Note_on_c, 0, 52, 0
3, 13440, Note_on_c, 0, 40, 0
3, 13440, Note_on_c, 0, 40, 50
3, 13440, Note_on_c, 0, 52, 59
3, 14400, Note_on_c, 0, 52, 0
3, 14400, Note_on_c, 0, 40, 0
3, 14400, Note_on_c, 0, 33, 53
3, 14400, Note_on_c, 0, 45, 63
3, 15360, Note_on_c, 0, 45, 0
3, 15360, Note_on_c, 0, 33, 0
3, 15360, Note_on_c, 0, 35, 50
3, 15360, Note_on_c, 0, 47, 59
3, 16800, Note_on_c, 0, 47, 0
3, 16800, Note_on_c, 0, 35, 0
3, 16800, Note_on_c, 0, 59, 44
3, 17280, Note_on_c, 0, 59, 0
3, 17280, Note_on_c, 0, 64, 48
3, 17760, Note_on_c, 0, 64, 0
3, 17760, Note_on_c, 0, 62, 48
3, 18240, Note_on_c, 0, 62, 0
3, 18240, Note_on_c, 0, 60, 48
3, 18720, Note_on_c, 0, 60, 0
3, 18720, Note_on_c, 0, 59, 48
3, 19200, Note_on_c, 0, 59, 0
3, 19200, Note_on_c, 0, 57, 48
3, 19680, Note_on_c, 0, 57, 0
3, 19680, Note_on_c, 0, 45, 47
3, 19779, Control_c, 0, 64, 127
3, 20160, Note_on_c, 0, 45, 0
3, 20160, Control_c, 0, 64, 0
3, 20160, Note_on_c, 0, 55, 48
3, 20640, Note_on_c, 0, 55, 0
3, 20640, Note_on_c, 0, 43, 42
3, 20696, Control_c, 0, 64, 127
3, 21120, Note_on_c, 0, 43, 0
3, 21120, Note_on_c, 0, 48, 41
3, 21130, Control_c, 0, 64, 0
3, 21206, Control_c, 0, 64, 127
3, 21600, Note_on_c, 0, 48, 0
3, 21600, Note_on_c, 0, 45, 34
3, 21600, Note_on_c, 0, 52, 41
3, 22080, Note_on_c, 0, 52, 0
3, 22080, Note_on_c, 0, 45, 0
3, 22080, Note_on_c, 0, 43, 34
3, 22080, Note_on_c, 0, 52, 40
3, 22109, Control_c, 0, 64, 0
3, 22560, Note_on_c, 0, 52, 0
3, 22560, Note_on_c, 0, 43, 0
3, 22560, Note_on_c, 0, 45, 31
3, 22560, Note_on_c, 0, 52, 37
3, 22657, Control_c, 0, 64, 127
3, 23040, Note_on_c, 0, 52, 0
3, 23040, Note_on_c, 0, 45, 0
3, 23040, Control_c, 0, 64, 0
3, 23040, Note_on_c, 0, 40, 28
3, 23040, Note_on_c, 0, 52, 34
3, 24480, Note_on_c, 0, 52, 0
3, 24480, Note_on_c, 0, 40, 0
3, 24480, Note_on_c, 0, 47, 57
3, 24958, Note_on_c, 0, 47, 0
3, 24960, Note_on_c, 0, 28, 52
3, 24960, Note_on_c, 0, 40, 62
3, 25920, Note_on_c, 0, 40, 0
3, 25920, Note_on_c, 0, 28, 0
3, 25920, Note_on_c, 0, 35, 52
3, 25920, Note_on_c, 0, 47, 62
3, 26880, Note_on_c, 0, 47, 0
3, 26880, Note_on_c, 0, 35, 0
3, 26880, Note_on_c, 0, 40, 50
3, 26880, Note_on_c, 0, 52, 59
3, 28320, Note_on_c, 0, 52, 0
3, 28320, Note_on_c, 0, 40, 0
3, 28320, Note_on_c, 0, 35, 54
3, 28320, Note_on_c, 0, 47, 57
3, 28800, Note_on_c, 0, 47, 0
3, 28800, Note_on_c, 0, 35, 0
3, 28800, Note_on_c, 0, 40, 50
3, 28800, Note_on_c, 0, 52, 59
3, 28926, Control_c, 0, 64, 127
3, 29760, Note_on_c, 0, 52, 0
3, 29760, Note_on_c, 0, 40, 0
3, 29760, Note_on_c, 0, 45, 59
3, 29760, Note_on_c, 0, 57, 65
3, 29770, Control_c, 0, 64, 0
3, 30013, Control_c, 0, 64, 127
3, 30250, Control_c, 0, 64, 0
3, 30493, Control_c, 0, 64, 127
3, 30720, Note_on_c, 0, 57, 0
3, 30720, Note_on_c, 0, 45, 0
3, 30720, Note_on_c, 0, 47, 50
3, 30720, Note_on_c, 0, 59, 59
3, 30730, Control_c, 0, 64, 0
3, 32160, Note_on_c, 0, 59, 0
3, 32160, Note_on_c, 0, 47, 0
3, 32160, Note_on_c, 0, 59, 44
3, 32640, Note_on_c, 0, 59, 0
3, 32640, Note_on_c, 0, 64, 48
3, 33120, Note_on_c, 0, 64, 0
3, 33120, Note_on_c, 0, 62, 48
3, 33600, Note_on_c, 0, 62, 0
3, 33600, Note_on_c, 0, 60, 48
3, 34080, Note_on_c, 0, 60, 0
3, 34080, Note_on_c, 0, 59, 48
3, 34560, Note_on_c, 0, 59, 0
3, 34560, Note_on_c, 0, 57, 48
3, 35040, Note_on_c, 0, 57, 0
3, 35040, Note_on_c, 0, 50, 47
3, 35080, Control_c, 0, 64, 127
3, 35520, Note_on_c, 0, 50, 0
3, 35520, Note_on_c, 0, 55, 48
3, 35530, Control_c, 0, 64, 0
3, 36000, Note_on_c, 0, 55, 0
3, 36000, Note_on_c, 0, 43, 42
3, 36040, Control_c, 0, 64, 127
3, 36480, Note_on_c, 0, 43, 0
3, 36480, Note_on_c, 0, 48, 41
3, 36485, Control_c, 0, 64, 0
3, 36606, Control_c, 0, 64, 127
3, 36960, Note_on_c, 0, 48, 0
3, 36960, Note_on_c, 0, 45, 34
3, 36960, Note_on_c, 0, 52, 41
3, 37440, Note_on_c, 0, 52, 0
3, 37440, Note_on_c, 0, 45, 0
3, 37440, Note_on_c, 0, 43, 34
3, 37440, Note_on_c, 0, 52, 40
3, 37480, Control_c, 0, 64, 0
3, 37920, Note_on_c, 0, 52, 0
3, 37920, Note_on_c, 0, 43, 0
3, 37920, Note_on_c, 0, 45, 31
3, 37920, Note_on_c, 0, 52, 37
3, 38029, Control_c, 0, 64, 127
3, 38400, Note_on_c, 0, 52, 0
3, 38400, Note_on_c, 0, 45, 0
3, 38400, Control_c, 0, 64, 0
3, 38400, Note_on_c, 0, 40, 28
3, 38400, Note_on_c, 0, 52, 34
3, 39840, Note_on_c, 0, 52, 0
3, 39840, Note_on_c, 0, 40, 0
3, 40320, Note_on_c, 0, 35, 45
3, 40320, Note_on_c, 0, 47, 53
3, 40387, Control_c, 0, 64, 127
3, 41280, Note_on_c, 0, 47, 0
3, 41280, Note_on_c, 0, 35, 0
3, 41280, Note_on_c, 0, 35, 42
3, 41280, Note_on_c, 0, 47, 50
3, 41286, Control_c, 0, 64, 0
3, 42240, Note_on_c, 0, 47, 0
3, 42240, Note_on_c, 0, 35, 0
3, 42240, Note_on_c, 0, 35, 48
3, 42240, Note_on_c, 0, 47, 58
3, 42318, Control_c, 0, 64, 127
3, 42720, Note_on_c, 0, 47, 0
3, 42720, Note_on_c, 0, 47, 55
3, 43200, Note_on_c, 0, 47, 0
3, 43200, Note_on_c, 0, 35, 0
3, 43200, Note_on_c, 0, 35, 51
3, 43200, Note_on_c, 0, 47, 61
3, 43206, Control_c, 0, 64, 0
3, 43680, Note_on_c, 0, 47, 0
3, 43680, Note_on_c, 0, 47, 56
3, 44160, Note_on_c, 0, 47, 0
3, 44160, Note_on_c, 0, 35, 0
3, 44160, Note_on_c, 0, 35, 55
3, 44160, Note_on_c, 0, 47, 66
3, 44640, Note_on_c, 0, 47, 0
3, 44640, Note_on_c, 0, 35, 0
3, 44640, Note_on_c, 0, 35, 53
3, 44640, Note_on_c, 0, 47, 63
3, 45120, Note_on_c, 0, 47, 0
3, 45120, Note_on_c, 0, 35, 0
3, 45120, Note_on_c, 0, 35, 57
3, 45120, Note_on_c, 0, 47, 67
3, 45600, Note_on_c, 0, 47, 0
3, 45600, Note_on_c, 0, 35, 0
3, 45600, Note_on_c, 0, 35, 55
3, 45600, Note_on_c, 0, 47, 65
3, 46080, Note_on_c, 0, 47, 0
3, 46080, Note_on_c, 0, 35, 0
3, 46080, Note_on_c, 0, 35, 59
3, 46080, Note_on_c, 0, 47, 70
3, 46560, Note_on_c, 0, 47, 0
3, 46560, Note_on_c, 0, 35, 0
3, 46560, Note_on_c, 0, 35, 61
3, 46560, Note_on_c, 0, 47, 73
3, 46640, Note_on_c, 0, 47, 0
3, 46640, Note_on_c, 0, 35, 0
3, 46720, Note_on_c, 0, 35, 58
3, 46720, Note_on_c, 0, 47, 69
3, 46800, Note_on_c, 0, 47, 0
3, 46800, Note_on_c, 0, 35, 0
3, 46880, Note_on_c, 0, 35, 59
3, 46880, Note_on_c, 0, 47, 70
3, 46960, Note_on_c, 0, 47, 0
3, 46960, Note_on_c, 0, 35, 0
3, 47040, Note_on_c, 0, 35, 54
3, 47040, Note_on_c, 0, 47, 76
3, 47520, Note_on_c, 0, 47, 0
3, 47520, Note_on_c, 0, 35, 0
3, 47520, Note_on_c, 0, 35, 65
3, 47520, Note_on_c, 0, 47, 78
3, 47600, Note_on_c, 0, 47, 0
3, 47600, Note_on_c, 0, 35, 0
3, 47680, Note_on_c, 0, 35, 61
3, 47680, Note_on_c, 0, 47, 73
3, 47760, Note_on_c, 0, 47, 0
3, 47760, Note_on_c, 0, 35, 0
3, 47840, Note_on_c, 0, 35, 62
3, 47840, Note_on_c, 0, 47, 73
3, 47920, Note_on_c, 0, 47, 0
3, 47920, Note_on_c, 0, 35, 0
3, 48000, Note_on_c, 0, 48, 67
3, 48000, Note_on_c, 0, 60, 79
3, 48076, Control_c, 0, 64, 127
3, 48480, Note_on_c, 0, 60, 0
3, 48480, Note_on_c, 0, 48, 0
3, 48480, Note_on_c, 0, 47, 64
3, 48480, Note_on_c, 0, 59, 77
3, 48484, Control_c, 0, 64, 0
3, 48606, Control_c, 0, 64, 127
3, 48960, Note_on_c, 0, 59, 0
3, 48960, Note_on_c, 0, 47, 0
3, 48960, Note_on_c, 0, 45, 62
3, 48960, Note_on_c, 0, 57, 74
3, 48970, Control_c, 0, 64, 0
3, 49118, Control_c, 0, 64, 127
3, 49440, Note_on_c, 0, 57, 0
3, 49440, Note_on_c, 0, 45, 0
3, 49440, Note_on_c, 0, 43, 63
3, 49440, Note_on_c, 0, 55, 75
3, 49445, Control_c, 0, 64, 0
3, 49516, Control_c, 0, 64, 127
3, 49920, Note_on_c, 0, 55, 0
3, 49920, Note_on_c, 0, 43, 0
3, 49920, Note_on_c, 0, 42, 64
3, 49920, Note_on_c, 0, 54, 77
3, 49926, Control_c, 0, 64, 0
3, 49966, Control_c, 0, 64, 127
3, 50400, Note_on_c, 0, 54, 0
3, 50400, Note_on_c, 0, 42, 0
3, 50400, Note_on_c, 0, 40, 64
3, 50400, Note_on_c, 0, 52, 77
3, 50408, Control_c, 0, 64, 0
3, 50880, Note_on_c, 0, 52, 0
3, 50880, Note_on_c, 0, 40, 0
3, 50880, Note_on_c, 0, 39, 64
3, 50880, Note_on_c, 0, 51, 77
3, 51360, Note_on_c, 0, 51, 0
3, 51360, Note_on_c, 0, 39, 0
3, 51360, Note_on_c, 0, 35, 66
3, 51360, Note_on_c, 0, 47, 78
3, 51440, Note_on_c, 0, 47, 0
3, 51440, Note_on_c, 0, 35, 0
3, 51520, Note_on_c, 0, 35, 60
3, 51520, Note_on_c, 0, 47, 73
3, 51600, Note_on_c, 0, 47, 0
3, 51600, Note_on_c, 0, 35, 0
3, 51680, Note_on_c, 0, 35, 61
3, 51680, Note_on_c, 0, 47, 73
3, 51760, Note_on_c, 0, 47, 0
3, 51760, Note_on_c, 0, 35, 0
3, 51840, Note_on_c, 0, 36, 67
3, 51840, Note_on_c, 0, 48, 78
3, 51941, Control_c, 0, 64, 127
3, 52320, Note_on_c, 0, 48, 0
3, 52320, Note_on_c, 0, 36, 0
3, 52320, Note_on_c, 0, 36, 64
3, 52320, Note_on_c, 0, 48, 76
3, 52330, Control_c, 0, 64, 0
3, 52497, Control_c, 0, 64, 127
3, 52800, Note_on_c, 0, 48, 0
3, 52800, Note_on_c, 0, 36, 0
3, 52800, Note_on_c, 0, 36, 61
3, 52800, Note_on_c, 0, 48, 74
3, 52810, Control_c, 0, 64, 0
3, 52977, Control_c, 0, 64, 127
3, 53280, Note_on_c, 0, 48, 0
3, 53280, Note_on_c, 0, 36, 0
3, 53280, Note_on_c, 0, 36, 63
3, 53280, Note_on_c, 0, 48, 75
3, 53290, Control_c, 0, 64, 0
3, 53482, Control_c, 0, 64, 127
3, 53760, Note_on_c, 0, 48, 0
3, 53760, Note_on_c, 0, 36, 0
3, 53760, Note_on_c, 0, 48, 64
3, 53760, Note_on_c, 0, 60, 76
3, 53766, Control_c, 0, 64, 0
3, 53848, Control_c, 0, 64, 127
3, 54240, Note_on_c, 0, 60, 0
3, 54240, Note_on_c, 0, 48, 0
3, 54240, Note_on_c, 0, 48, 64
3, 54240, Note_on_c, 0, 59, 76
3, 54250, Control_c, 0, 64, 0
3, 54279, Control_c, 0, 64, 127
3, 54720, Note_on_c, 0, 59, 0
3, 54720, Note_on_c, 0, 48, 0
3, 54720, Note_on_c, 0, 48, 64
3, 54720, Note_on_c, 0, 57, 64
3, 54720, Note_on_c, 0, 60, 76
3, 54725, Control_c, 0, 64, 0
3, 54808, Control_c, 0, 64, 127
3, 55198, Note_on_c, 0, 57, 0
3, 55200, Note_on_c, 0, 60, 0
3, 55200, Note_on_c, 0, 48, 0
3, 55200, Note_on_c, 0, 36, 73
3, 55200, Note_on_c, 0, 48, 73
3, 55209, Control_c, 0, 64, 0
3, 55680, Note_on_c, 0, 48, 0
3, 55680, Note_on_c, 0, 36, 0
3, 55680, Note_on_c, 0, 35, 60
3, 55680, Note_on_c, 0, 47, 72
3, 56160, Note_on_c, 0, 47, 0
3, 56160, Note_on_c, 0, 35, 0
3, 57867, Control_c, 0, 64, 127
3, 58827, Control_c, 0, 64, 0
3, 59280, Note_on_c, 0, 66, 63
3, 59280, Note_on_c, 0, 69, 73
3, 59320, Note_on_c, 0, 69, 0
3, 59320, Note_on_c, 0, 66, 0
3, 59360, Note_on_c, 0, 66, 63
3, 59360, Note_on_c, 0, 69, 73
3, 59400, Note_on_c, 0, 69, 0
3, 59400, Note_on_c, 0, 66, 0
3, 59440, Note_on_c, 0, 66, 63
3, 59440, Note_on_c, 0, 69, 73
3, 59480, Note_on_c, 0, 69, 0
3, 59480, Note_on_c, 0, 66, 0
3, 59520, Note_on_c, 0, 59, 66
3, 59520, Note_on_c, 0, 66, 79
3, 60240, Note_on_c, 0, 66, 0
3, 60240, Note_on_c, 0, 59, 0
3, 60240, Note_on_c, 0, 66, 63
3, 60240, Note_on_c, 0, 69, 73
3, 60280, Note_on_c, 0, 69, 0
3, 60280, Note_on_c, 0, 66, 0
3, 60320, Note_on_c, 0, 66, 63
3, 60320, Note_on_c, 0, 69, 73
3, 60360, Note_on_c, 0, 69, 0
3, 60360, Note_on_c, 0, 66, 0
3, 60400, Note_on_c, 0, 66, 63
3, 60400, Note_on_c, 0, 69, 73
3, 60440, Note_on_c, 0, 69, 0
3, 60440, Note_on_c, 0, 66, 0
3, 60480, Note_on_c, 0, 59, 66
3, 60480, Note_on_c, 0, 66, 79
3, 61200, Note_on_c, 0, 66, 0
3, 61200, Note_on_c, 0, 59, 0
3, 61200, Note_on_c, 0, 66, 63
3, 61200, Note_on_c, 0, 69, 73
3, 61240, Note_on_c, 0, 69, 0
3, 61240, Note_on_c, 0, 66, 0
3, 61280, Note_on_c, 0, 66, 63
3, 61280, Note_on_c, 0, 69, 73
3, 61320, Note_on_c, 0, 69, 0
3, 61320, Note_on_c, 0, 66, 0
3, 61360, Note_on_c, 0, 66, 63
3, 61360, Note_on_c, 0, 69, 73
3, 61400, Note_on_c, 0, 69, 0
3, 61400, Note_on_c, 0, 66, 0
3, 61440, Note_on_c, 0, 59, 66
3, 61440, Note_on_c, 0, 66, 66
3, 61440, Note_on_c, 0, 69, 66
3, 61440, Note_on_c, 0, 71, 79
3, 61707, Control_c, 0, 64, 127
3, 62667, Control_c, 0, 64, 0
3, 62878, Note_on_c, 0, 59, 0
3, 62880, Note_on_c, 0, 66, 0
3, 62880, Note_on_c, 0, 69, 0
3, 62880, Note_on_c, 0, 71, 0
3, 62880, Note_on_c, 0, 35, 67
3, 62880, Note_on_c, 0, 47, 74
3, 63360, Note_on_c, 0, 47, 0
3, 63360, Note_on_c, 0, 35, 0
3, 63360, Note_on_c, 0, 28, 67
3, 63360, Note_on_c, 0, 40, 81
3, 63413, Control_c, 0, 64, 127
3, 64320, Note_on_c, 0, 40, 0
3, 64320, Note_on_c, 0, 28, 0
3, 64320, Note_on_c, 0, 26, 67
3, 64320, Note_on_c, 0, 38, 81
3, 64329, Control_c, 0, 64, 0
3, 64453, Control_c, 0, 64, 127
3, 64805, Control_c, 0, 64, 0
3, 64982, Control_c, 0, 64, 127
3, 65280, Note_on_c, 0, 38, 0
3, 65280, Note_on_c, 0, 26, 0
3, 65280, Note_on_c, 0, 31, 65
3, 65280, Note_on_c, 0, 43, 77
3, 65286, Control_c, 0, 64, 0
3, 65326, Control_c, 0, 64, 127
3, 65774, Control_c, 0, 64, 0
3, 66720, Note_on_c, 0, 43, 0
3, 66720, Note_on_c, 0, 31, 0
3, 66720, Note_on_c, 0, 26, 65
3, 66720, Note_on_c, 0, 38, 77
3, 67200, Note_on_c, 0, 38, 0
3, 67200, Note_on_c, 0, 26, 0
3, 67200, Note_on_c, 0, 31, 65
3, 67200, Note_on_c, 0, 43, 77
3, 67349, Control_c, 0, 64, 127
3, 68160, Note_on_c, 0, 43, 0
3, 68160, Note_on_c, 0, 31, 0
3, 68160, Note_on_c, 0, 30, 69
3, 68160, Note_on_c, 0, 42, 82
3, 68167, Control_c, 0, 64, 0
3, 68279, Control_c, 0, 64, 127
3, 68647, Control_c, 0, 64, 0
3, 68806, Control_c, 0, 64, 127
3, 69120, Note_on_c, 0, 42, 0
3, 69120, Note_on_c, 0, 30, 0
3, 69120, Control_c, 0, 64, 0
3, 69120, Note_on_c, 0, 35, 65
3, 69120, Note_on_c, 0, 47, 77
3, 69268, Control_c, 0, 64, 127
3, 70082, Control_c, 0, 64, 0
3, 70560, Note_on_c, 0, 47, 0
3, 70560, Note_on_c, 0, 35, 0
3, 70560, Note_on_c, 0, 35, 42
3, 70560, Note_on_c, 0, 47, 44
3, 70680, Note_on_c, 0, 47, 0
3, 70680, Note_on_c, 0, 35, 0
3, 71040, Note_on_c, 0, 40, 40
3, 71040, Note_on_c, 0, 52, 48
3, 71160, Note_on_c, 0, 52, 0
3, 71160, Note_on_c, 0, 40, 0
3, 71520, Note_on_c, 0, 38, 40
3, 71520, Note_on_c, 0, 50, 48
3, 71640, Note_on_c, 0, 50, 0
3, 71640, Note_on_c, 0, 38, 0
3, 72000, Note_on_c, 0, 36, 40
3, 72000, Note_on_c, 0, 48, 48
3, 72120, Note_on_c, 0, 48, 0
3, 72120, Note_on_c, 0, 36, 0
3, 72480, Note_on_c, 0, 34, 40
3, 72480, Note_on_c, 0, 46, 48
3, 72600, Note_on_c, 0, 46, 0
3, 72600, Note_on_c, 0, 34, 0
3, 72960, Note_on_c, 0, 33, 40
3, 72960, Note_on_c, 0, 45, 48
3, 73080, Note_on_c, 0, 45, 0
3, 73080, Note_on_c, 0, 33, 0
3, 73440, Note_on_c, 0, 38, 39
3, 73440, Note_on_c, 0, 50, 47
3, 73560, Note_on_c, 0, 50, 0
3, 73560, Note_on_c, 0, 38, 0
3, 73920, Note_on_c, 0, 43, 40
3, 73920, Note_on_c, 0, 55, 48
3, 74040, Note_on_c, 0, 55, 0
3, 74040, Note_on_c, 0, 43, 0
3, 74400, Note_on_c, 0, 31, 35
3, 74400, Note_on_c, 0, 43, 42
3, 74520, Note_on_c, 0, 43, 0
3, 74520, Note_on_c, 0, 31, 0
3, 74880, Note_on_c, 0, 36, 34
3, 74880, Note_on_c, 0, 48, 41
3, 75000, Note_on_c, 0, 48, 0
3, 75000, Note_on_c, 0, 36, 0
3, 75360, Note_on_c, 0, 36, 34
3, 75360, Note_on_c, 0, 48, 41
3, 75480, Note_on_c, 0, 48, 0
3, 75480, Note_on_c, 0, 36, 0
3, 75840, Note_on_c, 0, 35, 34
3, 75840, Note_on_c, 0, 47, 40
3, 75960, Note_on_c, 0, 47, 0
3, 75960, Note_on_c, 0, 35, 0
3, 76320, Note_on_c, 0, 33, 31
3, 76320, Note_on_c, 0, 45, 37
3, 76440, Note_on_c, 0, 45, 0
3, 76440, Note_on_c, 0, 33, 0
3, 76560, Note_on_c, 0, 52, 41
3, 76600, Note_on_c, 0, 52, 0
3, 76640, Note_on_c, 0, 52, 41
3, 76680, Note_on_c, 0, 52, 0
3, 76720, Note_on_c, 0, 52, 41
3, 76760, Note_on_c, 0, 52, 0
3, 76800, Note_on_c, 0, 52, 41
3, 76800, Note_on_c, 0, 32, 28
3, 76800, Note_on_c, 0, 44, 34
3, 77520, Note_on_c, 0, 52, 0
3, 77520, Note_on_c, 0, 52, 41
3, 77560, Note_on_c, 0, 52, 0
3, 77600, Note_on_c, 0, 52, 41
3, 77640, Note_on_c, 0, 52, 0
3, 77680, Note_on_c, 0, 52, 41
3, 77720, Note_on_c, 0, 52, 0
3, 77760, Note_on_c, 0, 52, 41
3, 78240, Note_on_c, 0, 44, 0
3, 78240, Note_on_c, 0, 32, 0
3, 78480, Note_on_c, 0, 52, 0
3, 79200, Note_on_c, 0, 36, 34
3, 79200, Note_on_c, 0, 48, 41
3, 79320, Note_on_c, 0, 48, 0
3, 79320, Note_on_c, 0, 36, 0
3, 79680, Note_on_c, 0, 35, 34
3, 79680, Note_on_c, 0, 47, 40
3, 79800, Note_on_c, 0, 47, 0
3, 79800, Note_on_c, 0, 35, 0
3, 80160, Note_on_c, 0, 33, 31
3, 80160, Note_on_c, 0, 45, 37
3, 80280, Note_on_c, 0, 45, 0
3, 80280, Note_on_c, 0, 33, 0
3, 80400, Note_on_c, 0, 52, 41
3, 80440, Note_on_c, 0, 52, 0
3, 80480, Note_on_c, 0, 52, 41
3, 80520, Note_on_c, 0, 52, 0
3, 80560, Note_on_c, 0, 52, 41
3, 80600, Note_on_c, 0, 52, 0
3, 80640, Note_on_c, 0, 52, 41
3, 80640, Note_on_c, 0, 32, 28
3, 80640, Note_on_c, 0, 44, 34
3, 81360, Note_on_c, 0, 52, 0
3, 81360, Note_on_c, 0, 52, 41
3, 81400, Note_on_c, 0, 52, 0
3, 81440, Note_on_c, 0, 52, 41
3, 81480, Note_on_c, 0, 52, 0
3, 81520, Note_on_c, 0, 52, 41
3, 81560, Note_on_c, 0, 52, 0
3, 81600, Note_on_c, 0, 52, 41
3, 82080, Note_on_c, 0, 44, 0
3, 82080, Note_on_c, 0, 32, 0
3, 82320, Note_on_c, 0, 52, 0
3, 83040, Note_on_c, 0, 33, 30
3, 83040, Note_on_c, 0, 45, 36
3, 83160, Note_on_c, 0, 45, 0
3, 83160, Note_on_c, 0, 33, 0
3, 83520, Note_on_c, 0, 36, 29
3, 83520, Note_on_c, 0, 48, 34
3, 83640, Note_on_c, 0, 48, 0
3, 83640, Note_on_c, 0, 36, 0
3, 84000, Note_on_c, 0, 33, 26
3, 84000, Note_on_c, 0, 45, 31
3, 84120, Note_on_c, 0, 45, 0
3, 84120, Note_on_c, 0, 33, 0
3, 84480, Note_on_c, 0, 28, 26
3, 84480, Note_on_c, 0, 40, 31
3, 85571, Control_c, 0, 64, 127
3, 86160, Note_on_c, 0, 52, 41
3, 86200, Note_on_c, 0, 52, 0
3, 86240, Note_on_c, 0, 52, 41
3, 86280, Note_on_c, 0, 52, 0
3, 86320, Note_on_c, 0, 52, 41
3, 86360, Note_on_c, 0, 52, 0
3, 86400, Note_on_c, 0, 52, 41
3, 87120, Note_on_c, 0, 52, 0
3, 87120, Note_on_c, 0, 52, 41
3, 87160, Note_on_c, 0, 52, 0
3, 87200, Note_on_c, 0, 52, 41
3, 87240, Note_on_c, 0, 52, 0
3, 87280, Note_on_c, 0, 52, 41
3, 87320, Note_on_c, 0, 52, 0
3, 87360, Note_on_c, 0, 52, 41
3, 88080, Note_on_c, 0, 52, 0
3, 88080, Note_on_c, 0, 52, 41
3, 88120, Note_on_c, 0, 52, 0
3, 88160, Note_on_c, 0, 52, 41
3, 88200, Note_on_c, 0, 52, 0
3, 88240, Note_on_c, 0, 52, 41
3, 88280, Note_on_c, 0, 52, 0
3, 88320, Note_on_c, 0, 40, 0
3, 88320, Note_on_c, 0, 28, 0
3, 88320, Note_on_c, 0, 55, 41
3, 89280, Note_on_c, 0, 55, 0
3, 89280, Note_on_c, 0, 52, 37
3, 89760, Note_on_c, 0, 52, 0
3, 90000, Note_on_c, 0, 67, 31
3, 90000, Note_on_c, 0, 64, 26
3, 90000, Note_on_c, 0, 59, 26
3, 90040, Note_on_c, 0, 59, 0
3, 90040, Note_on_c, 0, 64, 0
3, 90040, Note_on_c, 0, 67, 0
3, 90080, Note_on_c, 0, 67, 31
3, 90080, Note_on_c, 0, 64, 26
3, 90080, Note_on_c, 0, 59, 26
3, 90120, Note_on_c, 0, 59, 0
3, 90120, Note_on_c, 0, 64, 0
3, 90120, Note_on_c, 0, 67, 0
3, 90160, Note_on_c, 0, 67, 31
3, 90160, Note_on_c, 0, 64, 26
3, 90160, Note_on_c, 0, 59, 26
3, 90200, Note_on_c, 0, 59, 0
3, 90200, Note_on_c, 0, 64, 0
3, 90200, Note_on_c, 0, 67, 0
3, 90240, Note_on_c, 0, 67, 34
3, 90240, Note_on_c, 0, 64, 28
3, 90240, Note_on_c, 0, 59, 28
3, 90960, Note_on_c, 0, 59, 0
3, 90960, Note_on_c, 0, 64, 0
3, 90960, Note_on_c, 0, 67, 0
3, 90960, Note_on_c, 0, 67, 31
3, 90960, Note_on_c, 0, 64, 26
3, 90960, Note_on_c, 0, 59, 26
3, 90960, Note_on_c, 0, 55, 26
3, 91000, Note_on_c, 0, 55, 0
3, 91000, Note_on_c, 0, 67, 0
3, 91000, Note_on_c, 0, 64, 0
3, 91000, Note_on_c, 0, 59, 0
3, 91040, Note_on_c, 0, 67, 31
3, 91040, Note_on_c, 0, 64, 26
3, 91040, Note_on_c, 0, 59, 26
3, 91040, Note_on_c, 0, 55, 26
3, 91080, Note_on_c, 0, 55, 0
3, 91080, Note_on_c, 0, 67, 0
3, 91080, Note_on_c, 0, 64, 0
3, 91080, Note_on_c, 0, 59, 0
3, 91120, Note_on_c, 0, 67, 31
3, 91120, Note_on_c, 0, 64, 26
3, 91120, Note_on_c, 0, 59, 26
3, 91120, Note_on_c, 0, 55, 26
3, 91160, Note_on_c, 0, 55, 0
3, 91160, Note_on_c, 0, 67, 0
3, 91160, Note_on_c, 0, 64, 0
3, 91160, Note_on_c, 0, 59, 0
3, 91200, Note_on_c, 0, 67, 33
3, 91200, Note_on_c, 0, 64, 28
3, 91200, Note_on_c, 0, 59, 28
3, 91200, Note_on_c, 0, 55, 28
3, 91920, Note_on_c, 0, 55, 0
3, 91920, Note_on_c, 0, 67, 0
3, 91920, Note_on_c, 0, 64, 0
3, 91920, Note_on_c, 0, 59, 0
3, 91920, Note_on_c, 0, 40, 26
3, 91920, Note_on_c, 0, 52, 31
3, 91960, Note_on_c, 0, 52, 0
3, 91960, Note_on_c, 0, 40, 0
3, 92000, Note_on_c, 0, 40, 26
3, 92000, Note_on_c, 0, 52, 31
3, 92040, Note_on_c, 0, 52, 0
3, 92040, Note_on_c, 0, 40, 0
3, 92080, Note_on_c, 0, 40, 26
3, 92080, Note_on_c, 0, 52, 31
3, 92120, Note_on_c, 0, 52, 0
3, 92120, Note_on_c, 0, 40, 0
3, 92160, Note_on_c, 0, 40, 28
3, 92160, Note_on_c, 0, 52, 33
3, 93120, Note_on_c, 0, 52, 0
3, 93120, Note_on_c, 0, 40, 0
3, 93120, Note_on_c, 0, 28, 24
3, 94080, Note_on_c, 0, 28, 0
3, 96000, Control_c, 0, 64, 0
3, 96000, End_track
4, 0, Start_track
4, 0, Title_t, "Mendelssohn: Songs without Words, Op. 62 No. 3"
4, 0, End_track
5, 0, Start_track
5, 0, Title_t, "Copyright © 2004 by Bernd Krüger"
5, 0, End_track
6, 0, Start_track
6, 0, Title_t, "http://www.piano-midi.de"
6, 0, End_track
7, 0, Start_track
7, 0, Title_t, "Edition: 2014-04-03"
7, 0, End_track
8, 0, Start_track
8, 0, Title_t, "Spur 7"
8, 0, End_track
0, 0, End_of_file
