0, 0, Header, 1, 9, 480
1, 0, Start_track
1, 0, Title_t, "Bilder einer Ausstellung"
1, 0, Title_t, "Bydlo"
1, 0, Copyright_t, "Copyright © 2000 by Bernd Krueger"
1, 0, Text_t, "Modest Mussorgski"
1, 0, Text_t, "Fertiggestellt am 23.1.2000\012"
1, 0, Text_t, "Update am 5.2.2000\012"
1, 0, Text_t, "Updated am 13.2.2000\012"
1, 0, Text_t, "Korrektur am 25.6.2000\012"
1, 0, Text_t, "Update am 1.7.2000\012"
1, 0, Text_t, "Update am 18.11.2000\012"
1, 0, Text_t, "Normierung: 23.12.2002\012"
1, 0, Text_t, "Update am 21.8.2008\012"
1, 0, Text_t, "Update am 19.11.2013\012"
1, 0, Text_t, "Dauer: 2:53 Minuten\012"
1, 0, SMPTE_offset, 96, 0, 3, 0, 0
1, 0, Time_signature, 4, 2, 24, 8
1, 0, Key_signature, 5, "major"
1, 0, Tempo, 666667
1, 1440, Tempo, 655738
1, 1920, Tempo, 655738
1, 2400, Tempo, 652174
1, 2880, Tempo, 659341
1, 3360, Tempo, 655738
1, 3840, Tempo, 666667
1, 4320, Tempo, 645161
1, 4800, Tempo, 645161
1, 5280, Tempo, 655738
1, 5760, Tempo, 666667
1, 6240, Tempo, 659341
1, 6720, Tempo, 666667
1, 8160, Tempo, 655738
1, 8640, Tempo, 666667
1, 9120, Tempo, 655738
1, 9600, Tempo, 666667
1, 10560, Tempo, 648649
1, 11040, Tempo, 655738
1, 11520, Tempo, 666667
1, 12000, Tempo, 652174
1, 12480, Tempo, 666667
1, 12960, Tempo, 655738
1, 13440, Tempo, 648649
1, 13920, Tempo, 655738
1, 14880, Tempo, 666667
1, 15360, Tempo, 666667
1, 16320, Tempo, 655738
1, 16800, Tempo, 674157
1, 17280, Tempo, 666667
1, 17760, Tempo, 677966
1, 18240, Tempo, 666667
1, 18720, Tempo, 655738
1, 19200, Tempo, 666667
1, 19440, Tempo, 659341
1, 19680, Tempo, 648649
1, 20160, Tempo, 662983
1, 20640, Tempo, 652174
1, 21120, Tempo, 655738
1, 21600, Tempo, 645161
1, 22080, Tempo, 634921
1, 22560, Tempo, 655738
1, 23040, Tempo, 666667
1, 23520, Tempo, 652174
1, 24000, Tempo, 666667
1, 25440, Tempo, 655738
1, 25920, Tempo, 666667
1, 26880, Tempo, 666667
1, 27360, Tempo, 659341
1, 27840, Tempo, 648649
1, 28320, Tempo, 666667
1, 30240, Tempo, 655738
1, 30720, Tempo, 666667
1, 32160, Tempo, 655738
1, 32640, Tempo, 666667
1, 33120, Tempo, 659341
1, 33600, Tempo, 648649
1, 34080, Tempo, 655738
1, 34560, Tempo, 666667
1, 35040, Tempo, 652174
1, 35520, Tempo, 666667
1, 36000, Tempo, 655738
1, 36480, Tempo, 670391
1, 37920, Tempo, 701754
1, 38400, Tempo, 652174
1, 38880, Tempo, 638298
1, 39360, Tempo, 652174
1, 39840, Tempo, 641711
1, 41280, Tempo, 655738
1, 41760, Tempo, 648649
1, 42240, Tempo, 645161
1, 42720, Tempo, 638298
1, 43200, Tempo, 631579
1, 43680, Tempo, 641711
1, 45120, Tempo, 655738
1, 45600, Tempo, 645161
1, 46080, Tempo, 638298
1, 46560, Tempo, 625000
1, 47040, Tempo, 641711
1, 47520, Tempo, 628272
1, 48960, Tempo, 638298
1, 49920, Tempo, 631579
1, 50400, Tempo, 625000
1, 50880, Tempo, 618557
1, 51360, Tempo, 628272
1, 51840, Tempo, 618557
1, 52800, Tempo, 618557
1, 53280, Tempo, 634921
1, 53760, Tempo, 625000
1, 54720, Tempo, 638298
1, 55680, Tempo, 638298
1, 56160, Tempo, 628272
1, 56640, Tempo, 638298
1, 57600, Tempo, 625000
1, 58560, Tempo, 641711
1, 60000, Tempo, 631579
1, 60960, Tempo, 641711
1, 63840, Tempo, 631579
1, 64800, Tempo, 641711
1, 65280, Tempo, 641711
1, 67200, Tempo, 655738
1, 67680, Tempo, 631579
1, 68160, Tempo, 641711
1, 68640, Tempo, 652174
1, 69600, Tempo, 628272
1, 70080, Tempo, 645161
1, 70560, Tempo, 659341
1, 71040, Tempo, 659341
1, 72000, Tempo, 652174
1, 72480, Tempo, 641711
1, 72960, Tempo, 652174
1, 73440, Tempo, 631579
1, 73680, Tempo, 641711
1, 73920, Tempo, 634921
1, 74400, Tempo, 638298
1, 74880, Tempo, 645161
1, 75360, Tempo, 638298
1, 75840, Tempo, 641711
1, 76320, Tempo, 652174
1, 76800, Tempo, 666667
1, 77280, Tempo, 652174
1, 77760, Tempo, 662983
1, 78240, Tempo, 652174
1, 78720, Tempo, 666667
1, 79200, Tempo, 655738
1, 79680, Tempo, 662983
1, 80160, Tempo, 652174
1, 80640, Tempo, 662983
1, 81600, Tempo, 648649
1, 82080, Tempo, 655738
1, 82560, Tempo, 666667
1, 83040, Tempo, 652174
1, 83520, Tempo, 666667
1, 84000, Tempo, 655738
1, 84480, Tempo, 648649
1, 84960, Tempo, 655738
1, 85920, Tempo, 666667
1, 86400, Tempo, 666667
1, 87360, Tempo, 655738
1, 87840, Tempo, 674157
1, 88320, Tempo, 666667
1, 88800, Tempo, 689655
1, 89280, Tempo, 666667
1, 89760, Tempo, 655738
1, 90240, Tempo, 666667
1, 90720, Tempo, 652174
1, 91200, Tempo, 666667
1, 91680, Tempo, 655738
1, 92160, Tempo, 659341
1, 92640, Tempo, 645161
1, 93120, Tempo, 645161
1, 93600, Tempo, 655738
1, 94080, Tempo, 666667
1, 96000, Tempo, 662983
1, 96480, Tempo, 655738
1, 96960, Tempo, 666667
1, 97920, Tempo, 666667
1, 98880, Tempo, 648649
1, 99360, Tempo, 666667
1, 99840, Tempo, 666667
1, 100800, Tempo, 648649
1, 101280, Tempo, 655738
1, 101760, Tempo, 666667
1, 102240, Tempo, 652174
1, 102720, Tempo, 666667
1, 103200, Tempo, 655738
1, 103680, Tempo, 670391
1, 104160, Tempo, 655738
1, 105120, Tempo, 662983
1, 105600, Tempo, 666667
1, 107520, Tempo, 666667
1, 108000, Tempo, 659341
1, 108480, Tempo, 662983
1, 108960, Tempo, 655738
1, 109440, Tempo, 666667
1, 109920, Tempo, 652174
1, 110160, Tempo, 659341
1, 110400, Tempo, 652174
1, 110880, Tempo, 662983
1, 111387, Tempo, 670391
1, 111840, Tempo, 681818
1, 112800, Tempo, 697674
1, 113280, Tempo, 677966
1, 113760, Tempo, 670391
1, 114240, Tempo, 685714
1, 114747, Tempo, 662983
1, 115200, Tempo, 685714
1, 115680, Tempo, 674157
1, 116160, Tempo, 685714
1, 116640, Tempo, 662983
1, 117120, Tempo, 681818
1, 119040, Tempo, 693642
1, 120000, Tempo, 718563
1, 120960, Tempo, 736196
1, 124800, Tempo, 857143
1, 124800, End_track
2, 0, Start_track
2, 0, Title_t, "Piano right"
2, 0, Program_c, 0, 0
2, 0, Control_c, 0, 7, 100
2, 0, Control_c, 0, 10, 64
2, 0, Control_c, 0, 91, 127
2, 0, Text_t, "bdca426d104a26ac9dcb070447587523"
2, 960, Note_on_c, 0, 51, 57
2, 2400, Note_on_c, 0, 51, 0
2, 2400, Note_on_c, 0, 54, 59
2, 2640, Note_on_c, 0, 54, 0
2, 2640, Note_on_c, 0, 52, 55
2, 2880, Note_on_c, 0, 52, 0
2, 2880, Note_on_c, 0, 51, 59
2, 3360, Note_on_c, 0, 51, 0
2, 3360, Note_on_c, 0, 52, 56
2, 3840, Note_on_c, 0, 52, 0
2, 3840, Note_on_c, 0, 51, 59
2, 4320, Note_on_c, 0, 51, 0
2, 4320, Note_on_c, 0, 56, 69
2, 4800, Note_on_c, 0, 56, 0
2, 4800, Note_on_c, 0, 58, 70
2, 5280, Note_on_c, 0, 58, 0
2, 5280, Note_on_c, 0, 59, 70
2, 5760, Note_on_c, 0, 59, 0
2, 5760, Note_on_c, 0, 58, 73
2, 6720, Note_on_c, 0, 58, 0
2, 6720, Note_on_c, 0, 56, 67
2, 7200, Note_on_c, 0, 56, 0
2, 7680, Note_on_c, 0, 61, 73
2, 8640, Note_on_c, 0, 61, 0
2, 8640, Note_on_c, 0, 68, 69
2, 9120, Note_on_c, 0, 68, 0
2, 9600, Note_on_c, 0, 61, 74
2, 10560, Note_on_c, 0, 61, 0
2, 10560, Note_on_c, 0, 68, 69
2, 11040, Note_on_c, 0, 68, 0
2, 11040, Note_on_c, 0, 68, 67
2, 11520, Note_on_c, 0, 68, 0
2, 11520, Note_on_c, 0, 63, 70
2, 12480, Note_on_c, 0, 63, 0
2, 12480, Note_on_c, 0, 61, 68
2, 13440, Note_on_c, 0, 61, 0
2, 13440, Note_on_c, 0, 59, 66
2, 13920, Note_on_c, 0, 59, 0
2, 13920, Note_on_c, 0, 63, 62
2, 14400, Note_on_c, 0, 63, 0
2, 14400, Note_on_c, 0, 58, 66
2, 14880, Note_on_c, 0, 58, 0
2, 15360, Note_on_c, 0, 56, 69
2, 16320, Note_on_c, 0, 56, 0
2, 16320, Note_on_c, 0, 54, 57
2, 16800, Note_on_c, 0, 54, 0
2, 16800, Note_on_c, 0, 52, 53
2, 17280, Note_on_c, 0, 52, 0
2, 17280, Note_on_c, 0, 51, 55
2, 17760, Note_on_c, 0, 51, 0
2, 18240, Note_on_c, 0, 51, 67
2, 19680, Note_on_c, 0, 51, 0
2, 19680, Note_on_c, 0, 54, 64
2, 19920, Note_on_c, 0, 54, 0
2, 19920, Note_on_c, 0, 52, 60
2, 20160, Note_on_c, 0, 52, 0
2, 20160, Note_on_c, 0, 51, 64
2, 20640, Note_on_c, 0, 51, 0
2, 20640, Note_on_c, 0, 52, 61
2, 21120, Note_on_c, 0, 52, 0
2, 21120, Note_on_c, 0, 51, 64
2, 21600, Note_on_c, 0, 51, 0
2, 21600, Note_on_c, 0, 56, 75
2, 22080, Note_on_c, 0, 56, 0
2, 22080, Note_on_c, 0, 58, 77
2, 22560, Note_on_c, 0, 58, 0
2, 22560, Note_on_c, 0, 59, 77
2, 23040, Note_on_c, 0, 59, 0
2, 23040, Note_on_c, 0, 58, 80
2, 24000, Note_on_c, 0, 58, 0
2, 24000, Note_on_c, 0, 56, 77
2, 24480, Note_on_c, 0, 56, 0
2, 24960, Note_on_c, 0, 61, 80
2, 25920, Note_on_c, 0, 61, 0
2, 25920, Note_on_c, 0, 64, 75
2, 26400, Note_on_c, 0, 64, 0
2, 26880, Note_on_c, 0, 64, 81
2, 27840, Note_on_c, 0, 64, 0
2, 27840, Note_on_c, 0, 64, 78
2, 28800, Note_on_c, 0, 64, 0
2, 28800, Note_on_c, 0, 62, 80
2, 31680, Note_on_c, 0, 62, 0
2, 31680, Note_on_c, 0, 60, 75
2, 32160, Note_on_c, 0, 60, 0
2, 32640, Note_on_c, 0, 61, 86
2, 33600, Note_on_c, 0, 61, 0
2, 33600, Note_on_c, 0, 68, 76
2, 34080, Note_on_c, 0, 68, 0
2, 34080, Note_on_c, 0, 68, 71
2, 34560, Note_on_c, 0, 68, 0
2, 34560, Note_on_c, 0, 63, 77
2, 35040, Note_on_c, 0, 63, 0
2, 35040, Note_on_c, 0, 59, 68
2, 35520, Note_on_c, 0, 59, 0
2, 35520, Note_on_c, 0, 58, 73
2, 36480, Note_on_c, 0, 58, 0
2, 36480, Note_on_c, 0, 56, 70
2, 37920, Note_on_c, 0, 56, 0
2, 38400, Note_on_c, 0, 88, 70
2, 38400, Note_on_c, 0, 85, 70
2, 38400, Note_on_c, 0, 76, 64
2, 38400, Note_on_c, 0, 81, 64
2, 38880, Note_on_c, 0, 81, 0
2, 38880, Note_on_c, 0, 88, 0
2, 38880, Note_on_c, 0, 85, 0
2, 38880, Note_on_c, 0, 76, 0
2, 38880, Note_on_c, 0, 85, 72
2, 38880, Note_on_c, 0, 73, 66
2, 39360, Note_on_c, 0, 73, 0
2, 39360, Note_on_c, 0, 85, 0
2, 39360, Note_on_c, 0, 87, 72
2, 39360, Note_on_c, 0, 75, 66
2, 39360, Note_on_c, 0, 78, 66
2, 39360, Note_on_c, 0, 83, 72
2, 39840, Note_on_c, 0, 83, 0
2, 39840, Note_on_c, 0, 87, 0
2, 39840, Note_on_c, 0, 75, 0
2, 39840, Note_on_c, 0, 78, 0
2, 39840, Note_on_c, 0, 71, 60
2, 39840, Note_on_c, 0, 83, 66
2, 40320, Note_on_c, 0, 83, 0
2, 40320, Note_on_c, 0, 71, 0
2, 40320, Note_on_c, 0, 76, 66
2, 40320, Note_on_c, 0, 81, 72
2, 40320, Note_on_c, 0, 85, 72
2, 40320, Note_on_c, 0, 73, 66
2, 40800, Note_on_c, 0, 73, 0
2, 40800, Note_on_c, 0, 76, 0
2, 40800, Note_on_c, 0, 81, 0
2, 40800, Note_on_c, 0, 85, 0
2, 40800, Note_on_c, 0, 69, 63
2, 40800, Note_on_c, 0, 81, 69
2, 41280, Note_on_c, 0, 81, 0
2, 41280, Note_on_c, 0, 69, 0
2, 41280, Note_on_c, 0, 78, 69
2, 41280, Note_on_c, 0, 66, 63
2, 41280, Note_on_c, 0, 69, 63
2, 41280, Note_on_c, 0, 74, 69
2, 42240, Note_on_c, 0, 74, 0
2, 42240, Note_on_c, 0, 78, 0
2, 42240, Note_on_c, 0, 66, 0
2, 42240, Note_on_c, 0, 69, 0
2, 42240, Note_on_c, 0, 81, 70
2, 42240, Note_on_c, 0, 85, 77
2, 42240, Note_on_c, 0, 88, 77
2, 42240, Note_on_c, 0, 76, 70
2, 42720, Note_on_c, 0, 76, 0
2, 42720, Note_on_c, 0, 81, 0
2, 42720, Note_on_c, 0, 85, 0
2, 42720, Note_on_c, 0, 88, 0
2, 42720, Note_on_c, 0, 85, 79
2, 42720, Note_on_c, 0, 73, 72
2, 43200, Note_on_c, 0, 73, 0
2, 43200, Note_on_c, 0, 85, 0
2, 43200, Note_on_c, 0, 87, 80
2, 43200, Note_on_c, 0, 75, 73
2, 43200, Note_on_c, 0, 78, 73
2, 43200, Note_on_c, 0, 83, 80
2, 43680, Note_on_c, 0, 83, 0
2, 43680, Note_on_c, 0, 87, 0
2, 43680, Note_on_c, 0, 75, 0
2, 43680, Note_on_c, 0, 78, 0
2, 43680, Note_on_c, 0, 71, 66
2, 43680, Note_on_c, 0, 83, 72
2, 44160, Note_on_c, 0, 83, 0
2, 44160, Note_on_c, 0, 71, 0
2, 44160, Note_on_c, 0, 76, 73
2, 44160, Note_on_c, 0, 81, 80
2, 44160, Note_on_c, 0, 85, 80
2, 44160, Note_on_c, 0, 73, 73
2, 45120, Note_on_c, 0, 73, 0
2, 45120, Note_on_c, 0, 76, 0
2, 45120, Note_on_c, 0, 81, 0
2, 45120, Note_on_c, 0, 85, 0
2, 45120, Note_on_c, 0, 74, 77
2, 45120, Note_on_c, 0, 66, 70
2, 45120, Note_on_c, 0, 69, 70
2, 45120, Note_on_c, 0, 78, 77
2, 46080, Note_on_c, 0, 78, 0
2, 46080, Note_on_c, 0, 74, 0
2, 46080, Note_on_c, 0, 66, 0
2, 46080, Note_on_c, 0, 69, 0
2, 46080, Note_on_c, 0, 81, 77
2, 46080, Note_on_c, 0, 76, 77
2, 46080, Note_on_c, 0, 88, 84
2, 46080, Note_on_c, 0, 85, 84
2, 46560, Note_on_c, 0, 85, 0
2, 46560, Note_on_c, 0, 81, 0
2, 46560, Note_on_c, 0, 76, 0
2, 46560, Note_on_c, 0, 88, 0
2, 46560, Note_on_c, 0, 85, 86
2, 46560, Note_on_c, 0, 73, 79
2, 47040, Note_on_c, 0, 73, 0
2, 47040, Note_on_c, 0, 85, 0
2, 47040, Note_on_c, 0, 87, 86
2, 47040, Note_on_c, 0, 83, 86
2, 47040, Note_on_c, 0, 78, 79
2, 47040, Note_on_c, 0, 75, 79
2, 47520, Note_on_c, 0, 75, 0
2, 47520, Note_on_c, 0, 87, 0
2, 47520, Note_on_c, 0, 83, 0
2, 47520, Note_on_c, 0, 78, 0
2, 47520, Note_on_c, 0, 71, 72
2, 47520, Note_on_c, 0, 83, 79
2, 48000, Note_on_c, 0, 83, 0
2, 48000, Note_on_c, 0, 71, 0
2, 48000, Note_on_c, 0, 76, 79
2, 48000, Note_on_c, 0, 73, 79
2, 48000, Note_on_c, 0, 85, 86
2, 48000, Note_on_c, 0, 81, 86
2, 48480, Note_on_c, 0, 81, 0
2, 48480, Note_on_c, 0, 76, 0
2, 48480, Note_on_c, 0, 73, 0
2, 48480, Note_on_c, 0, 85, 0
2, 48480, Note_on_c, 0, 69, 75
2, 48480, Note_on_c, 0, 81, 82
2, 48960, Note_on_c, 0, 81, 0
2, 48960, Note_on_c, 0, 69, 0
2, 48960, Note_on_c, 0, 69, 75
2, 48960, Note_on_c, 0, 66, 75
2, 48960, Note_on_c, 0, 78, 82
2, 48960, Note_on_c, 0, 74, 82
2, 49920, Note_on_c, 0, 74, 0
2, 49920, Note_on_c, 0, 69, 0
2, 49920, Note_on_c, 0, 66, 0
2, 49920, Note_on_c, 0, 78, 0
2, 49920, Note_on_c, 0, 78, 81
2, 49920, Note_on_c, 0, 73, 81
2, 49920, Note_on_c, 0, 85, 89
2, 49920, Note_on_c, 0, 81, 89
2, 50880, Note_on_c, 0, 81, 0
2, 50880, Note_on_c, 0, 78, 0
2, 50880, Note_on_c, 0, 73, 0
2, 50880, Note_on_c, 0, 85, 0
2, 50880, Note_on_c, 0, 74, 85
2, 50880, Note_on_c, 0, 69, 78
2, 50880, Note_on_c, 0, 66, 78
2, 50880, Note_on_c, 0, 78, 85
2, 51840, Note_on_c, 0, 78, 0
2, 51840, Note_on_c, 0, 74, 0
2, 51840, Note_on_c, 0, 69, 0
2, 51840, Note_on_c, 0, 66, 0
2, 51840, Note_on_c, 0, 78, 82
2, 51840, Note_on_c, 0, 73, 82
2, 51840, Note_on_c, 0, 81, 90
2, 51840, Note_on_c, 0, 85, 90
2, 52800, Note_on_c, 0, 85, 0
2, 52800, Note_on_c, 0, 78, 0
2, 52800, Note_on_c, 0, 73, 0
2, 52800, Note_on_c, 0, 81, 0
2, 52800, Note_on_c, 0, 74, 74
2, 52800, Note_on_c, 0, 80, 81
2, 52800, Note_on_c, 0, 68, 74
2, 52800, Note_on_c, 0, 71, 74
2, 53280, Note_on_c, 0, 71, 0
2, 53280, Note_on_c, 0, 74, 0
2, 53280, Note_on_c, 0, 80, 0
2, 53280, Note_on_c, 0, 68, 0
2, 53280, Note_on_c, 0, 66, 75
2, 53280, Note_on_c, 0, 78, 82
2, 53760, Note_on_c, 0, 78, 0
2, 53760, Note_on_c, 0, 66, 0
2, 53760, Note_on_c, 0, 81, 88
2, 53760, Note_on_c, 0, 85, 88
2, 53760, Note_on_c, 0, 73, 80
2, 53760, Note_on_c, 0, 76, 80
2, 54720, Note_on_c, 0, 76, 0
2, 54720, Note_on_c, 0, 81, 0
2, 54720, Note_on_c, 0, 85, 0
2, 54720, Note_on_c, 0, 73, 0
2, 54720, Note_on_c, 0, 69, 77
2, 54720, Note_on_c, 0, 74, 84
2, 54720, Note_on_c, 0, 78, 84
2, 54720, Note_on_c, 0, 66, 77
2, 55680, Note_on_c, 0, 66, 0
2, 55680, Note_on_c, 0, 69, 0
2, 55680, Note_on_c, 0, 74, 0
2, 55680, Note_on_c, 0, 78, 0
2, 55680, Note_on_c, 0, 78, 80
2, 55680, Note_on_c, 0, 73, 80
2, 55680, Note_on_c, 0, 85, 88
2, 55680, Note_on_c, 0, 81, 88
2, 56640, Note_on_c, 0, 81, 0
2, 56640, Note_on_c, 0, 78, 0
2, 56640, Note_on_c, 0, 73, 0
2, 56640, Note_on_c, 0, 85, 0
2, 56640, Note_on_c, 0, 75, 79
2, 56640, Note_on_c, 0, 78, 79
2, 56640, Note_on_c, 0, 87, 86
2, 56640, Note_on_c, 0, 84, 86
2, 57600, Note_on_c, 0, 84, 0
2, 57600, Note_on_c, 0, 75, 0
2, 57600, Note_on_c, 0, 78, 0
2, 57600, Note_on_c, 0, 87, 0
2, 57600, Note_on_c, 0, 88, 77
2, 57600, Note_on_c, 0, 80, 70
2, 57600, Note_on_c, 0, 85, 77
2, 57600, Note_on_c, 0, 76, 70
2, 58080, Note_on_c, 0, 76, 0
2, 58080, Note_on_c, 0, 88, 0
2, 58080, Note_on_c, 0, 80, 0
2, 58080, Note_on_c, 0, 85, 0
2, 58080, Note_on_c, 0, 80, 68
2, 58080, Note_on_c, 0, 92, 75
2, 58560, Note_on_c, 0, 92, 0
2, 58560, Note_on_c, 0, 80, 0
2, 58560, Note_on_c, 0, 74, 71
2, 58560, Note_on_c, 0, 78, 71
2, 58560, Note_on_c, 0, 81, 71
2, 58560, Note_on_c, 0, 86, 78
2, 59520, Note_on_c, 0, 86, 0
2, 59520, Note_on_c, 0, 74, 0
2, 59520, Note_on_c, 0, 78, 0
2, 59520, Note_on_c, 0, 81, 0
2, 59520, Note_on_c, 0, 72, 61
2, 59520, Note_on_c, 0, 78, 61
2, 59520, Note_on_c, 0, 84, 61
2, 59520, Note_on_c, 0, 80, 61
2, 60480, Note_on_c, 0, 80, 0
2, 60480, Note_on_c, 0, 72, 0
2, 60480, Note_on_c, 0, 78, 0
2, 60480, Note_on_c, 0, 84, 0
2, 60480, Note_on_c, 0, 76, 55
2, 60480, Note_on_c, 0, 73, 55
2, 60480, Note_on_c, 0, 80, 55
2, 60480, Note_on_c, 0, 85, 55
2, 60960, Note_on_c, 0, 85, 0
2, 60960, Note_on_c, 0, 76, 0
2, 60960, Note_on_c, 0, 73, 0
2, 60960, Note_on_c, 0, 80, 0
2, 60960, Note_on_c, 0, 68, 44
2, 60960, Note_on_c, 0, 80, 44
2, 61440, Note_on_c, 0, 80, 0
2, 61440, Note_on_c, 0, 68, 0
2, 61440, Note_on_c, 0, 75, 44
2, 61440, Note_on_c, 0, 81, 44
2, 61440, Note_on_c, 0, 73, 44
2, 61440, Note_on_c, 0, 69, 44
2, 62400, Note_on_c, 0, 69, 0
2, 62400, Note_on_c, 0, 75, 0
2, 62400, Note_on_c, 0, 81, 0
2, 62400, Note_on_c, 0, 73, 0
2, 62400, Note_on_c, 0, 76, 38
2, 62400, Note_on_c, 0, 80, 38
2, 62400, Note_on_c, 0, 68, 38
2, 62400, Note_on_c, 0, 73, 38
2, 63360, Note_on_c, 0, 73, 0
2, 63360, Note_on_c, 0, 76, 0
2, 63360, Note_on_c, 0, 80, 0
2, 63360, Note_on_c, 0, 68, 0
2, 63360, Note_on_c, 0, 66, 47
2, 63360, Note_on_c, 0, 73, 47
2, 63360, Note_on_c, 0, 75, 47
2, 63360, Note_on_c, 0, 78, 47
2, 64320, Note_on_c, 0, 78, 0
2, 64320, Note_on_c, 0, 66, 0
2, 64320, Note_on_c, 0, 73, 0
2, 64320, Note_on_c, 0, 75, 0
2, 64320, Note_on_c, 0, 73, 52
2, 64320, Note_on_c, 0, 85, 52
2, 64560, Note_on_c, 0, 85, 0
2, 64560, Note_on_c, 0, 73, 0
2, 65280, Note_on_c, 0, 73, 84
2, 65280, Note_on_c, 0, 79, 84
2, 65280, Note_on_c, 0, 82, 84
2, 65280, Note_on_c, 0, 70, 84
2, 67200, Note_on_c, 0, 70, 0
2, 67200, Note_on_c, 0, 73, 0
2, 67200, Note_on_c, 0, 79, 0
2, 67200, Note_on_c, 0, 82, 0
2, 67200, Note_on_c, 0, 75, 96
2, 67200, Note_on_c, 0, 80, 96
2, 67200, Note_on_c, 0, 83, 96
2, 67200, Note_on_c, 0, 71, 96
2, 67680, Note_on_c, 0, 71, 0
2, 67680, Note_on_c, 0, 75, 0
2, 67680, Note_on_c, 0, 80, 0
2, 67680, Note_on_c, 0, 83, 0
2, 68160, Note_on_c, 0, 92, 104
2, 68160, Note_on_c, 0, 80, 104
2, 68640, Note_on_c, 0, 80, 0
2, 68640, Note_on_c, 0, 92, 0
2, 69120, Note_on_c, 0, 88, 99
2, 69120, Note_on_c, 0, 76, 99
2, 69120, Note_on_c, 0, 85, 99
2, 69120, Note_on_c, 0, 80, 99
2, 69600, Note_on_c, 0, 80, 0
2, 69600, Note_on_c, 0, 88, 0
2, 69600, Note_on_c, 0, 76, 0
2, 69600, Note_on_c, 0, 85, 0
2, 70080, Note_on_c, 0, 87, 95
2, 70080, Note_on_c, 0, 83, 95
2, 70080, Note_on_c, 0, 79, 95
2, 70080, Note_on_c, 0, 75, 95
2, 70560, Note_on_c, 0, 75, 0
2, 70560, Note_on_c, 0, 87, 0
2, 70560, Note_on_c, 0, 83, 0
2, 70560, Note_on_c, 0, 79, 0
2, 70560, Note_on_c, 0, 71, 94
2, 70560, Note_on_c, 0, 83, 94
2, 71040, Note_on_c, 0, 83, 0
2, 71040, Note_on_c, 0, 71, 0
2, 71040, Note_on_c, 0, 68, 90
2, 71040, Note_on_c, 0, 80, 100
2, 71520, Note_on_c, 0, 80, 0
2, 71520, Note_on_c, 0, 68, 0
2, 72000, Note_on_c, 0, 75, 102
2, 72000, Note_on_c, 0, 63, 86
2, 73440, Note_on_c, 0, 63, 0
2, 73440, Note_on_c, 0, 75, 0
2, 73440, Note_on_c, 0, 78, 100
2, 73440, Note_on_c, 0, 66, 90
2, 73680, Note_on_c, 0, 66, 0
2, 73680, Note_on_c, 0, 78, 0
2, 73680, Note_on_c, 0, 76, 92
2, 73680, Note_on_c, 0, 64, 82
2, 73920, Note_on_c, 0, 64, 0
2, 73920, Note_on_c, 0, 76, 0
2, 73920, Note_on_c, 0, 63, 88
2, 73920, Note_on_c, 0, 75, 98
2, 74400, Note_on_c, 0, 75, 0
2, 74400, Note_on_c, 0, 63, 0
2, 74400, Note_on_c, 0, 64, 82
2, 74400, Note_on_c, 0, 76, 92
2, 74880, Note_on_c, 0, 76, 0
2, 74880, Note_on_c, 0, 64, 0
2, 74880, Note_on_c, 0, 75, 96
2, 74880, Note_on_c, 0, 63, 86
2, 75360, Note_on_c, 0, 63, 0
2, 75360, Note_on_c, 0, 75, 0
2, 75360, Note_on_c, 0, 80, 106
2, 75360, Note_on_c, 0, 68, 95
2, 75840, Note_on_c, 0, 68, 0
2, 75840, Note_on_c, 0, 80, 0
2, 75840, Note_on_c, 0, 82, 110
2, 75840, Note_on_c, 0, 70, 99
2, 76320, Note_on_c, 0, 70, 0
2, 76320, Note_on_c, 0, 82, 0
2, 76320, Note_on_c, 0, 83, 110
2, 76320, Note_on_c, 0, 71, 99
2, 76800, Note_on_c, 0, 71, 0
2, 76800, Note_on_c, 0, 83, 0
2, 76800, Note_on_c, 0, 82, 113
2, 76800, Note_on_c, 0, 70, 101
2, 77760, Note_on_c, 0, 70, 0
2, 77760, Note_on_c, 0, 82, 0
2, 77760, Note_on_c, 0, 80, 110
2, 77760, Note_on_c, 0, 68, 99
2, 78240, Note_on_c, 0, 68, 0
2, 78240, Note_on_c, 0, 80, 0
2, 78720, Note_on_c, 0, 85, 113
2, 78720, Note_on_c, 0, 73, 101
2, 79680, Note_on_c, 0, 73, 0
2, 79680, Note_on_c, 0, 85, 0
2, 79680, Note_on_c, 0, 80, 95
2, 79680, Note_on_c, 0, 92, 106
2, 80160, Note_on_c, 0, 92, 0
2, 80160, Note_on_c, 0, 80, 0
2, 80640, Note_on_c, 0, 85, 115
2, 80640, Note_on_c, 0, 73, 103
2, 81600, Note_on_c, 0, 73, 0
2, 81600, Note_on_c, 0, 85, 0
2, 81600, Note_on_c, 0, 92, 106
2, 81600, Note_on_c, 0, 80, 95
2, 82080, Note_on_c, 0, 80, 0
2, 82080, Note_on_c, 0, 92, 0
2, 82080, Note_on_c, 0, 92, 104
2, 82080, Note_on_c, 0, 80, 93
2, 82560, Note_on_c, 0, 80, 0
2, 82560, Note_on_c, 0, 92, 0
2, 82560, Note_on_c, 0, 87, 110
2, 82560, Note_on_c, 0, 75, 99
2, 83520, Note_on_c, 0, 75, 0
2, 83520, Note_on_c, 0, 87, 0
2, 83520, Note_on_c, 0, 85, 105
2, 83520, Note_on_c, 0, 73, 94
2, 84480, Note_on_c, 0, 73, 0
2, 84480, Note_on_c, 0, 85, 0
2, 84480, Note_on_c, 0, 83, 102
2, 84480, Note_on_c, 0, 71, 91
2, 84960, Note_on_c, 0, 71, 0
2, 84960, Note_on_c, 0, 83, 0
2, 84960, Note_on_c, 0, 87, 96
2, 84960, Note_on_c, 0, 75, 86
2, 85440, Note_on_c, 0, 75, 0
2, 85440, Note_on_c, 0, 87, 0
2, 85440, Note_on_c, 0, 82, 102
2, 85440, Note_on_c, 0, 70, 91
2, 85920, Note_on_c, 0, 70, 0
2, 85920, Note_on_c, 0, 82, 0
2, 86400, Note_on_c, 0, 80, 96
2, 86400, Note_on_c, 0, 68, 86
2, 87360, Note_on_c, 0, 68, 0
2, 87360, Note_on_c, 0, 80, 0
2, 87360, Note_on_c, 0, 78, 89
2, 87360, Note_on_c, 0, 66, 80
2, 87840, Note_on_c, 0, 66, 0
2, 87840, Note_on_c, 0, 78, 0
2, 87840, Note_on_c, 0, 76, 81
2, 87840, Note_on_c, 0, 64, 72
2, 88320, Note_on_c, 0, 64, 0
2, 88320, Note_on_c, 0, 76, 0
2, 88320, Note_on_c, 0, 75, 85
2, 88320, Note_on_c, 0, 63, 76
2, 88800, Note_on_c, 0, 63, 0
2, 88800, Note_on_c, 0, 75, 0
2, 89280, Note_on_c, 0, 51, 57
2, 90720, Note_on_c, 0, 51, 0
2, 90720, Note_on_c, 0, 54, 59
2, 90960, Note_on_c, 0, 54, 0
2, 90960, Note_on_c, 0, 52, 56
2, 91200, Note_on_c, 0, 52, 0
2, 91200, Note_on_c, 0, 51, 59
2, 91680, Note_on_c, 0, 51, 0
2, 91680, Note_on_c, 0, 52, 56
2, 92160, Note_on_c, 0, 52, 0
2, 92160, Note_on_c, 0, 51, 59
2, 92640, Note_on_c, 0, 51, 0
2, 92640, Note_on_c, 0, 56, 58
2, 93120, Note_on_c, 0, 56, 0
2, 93120, Note_on_c, 0, 58, 59
2, 93600, Note_on_c, 0, 58, 0
2, 93600, Note_on_c, 0, 59, 59
2, 94080, Note_on_c, 0, 59, 0
2, 94080, Note_on_c, 0, 58, 62
2, 95040, Note_on_c, 0, 58, 0
2, 95040, Note_on_c, 0, 56, 59
2, 95520, Note_on_c, 0, 56, 0
2, 96000, Note_on_c, 0, 61, 68
2, 96960, Note_on_c, 0, 61, 0
2, 96960, Note_on_c, 0, 64, 63
2, 97440, Note_on_c, 0, 64, 0
2, 97920, Note_on_c, 0, 64, 68
2, 98880, Note_on_c, 0, 64, 0
2, 98880, Note_on_c, 0, 64, 66
2, 99840, Note_on_c, 0, 64, 0
2, 100800, Note_on_c, 0, 68, 64
2, 101760, Note_on_c, 0, 68, 0
2, 101760, Note_on_c, 0, 63, 65
2, 102240, Note_on_c, 0, 63, 0
2, 102240, Note_on_c, 0, 59, 57
2, 102720, Note_on_c, 0, 59, 0
2, 102720, Note_on_c, 0, 58, 62
2, 103680, Note_on_c, 0, 58, 0
2, 103680, Note_on_c, 0, 56, 54
2, 104160, Note_on_c, 0, 56, 0
2, 108480, Note_on_c, 0, 51, 35
2, 109920, Note_on_c, 0, 51, 0
2, 109920, Note_on_c, 0, 54, 33
2, 110160, Note_on_c, 0, 54, 0
2, 110160, Note_on_c, 0, 52, 30
2, 110400, Note_on_c, 0, 52, 0
2, 110400, Note_on_c, 0, 51, 34
2, 110880, Note_on_c, 0, 51, 0
2, 110880, Note_on_c, 0, 52, 32
2, 111360, Note_on_c, 0, 52, 0
2, 115200, Note_on_c, 0, 51, 29
2, 116640, Note_on_c, 0, 51, 0
2, 116640, End_track
3, 0, Start_track
3, 0, Title_t, "Piano left"
3, 0, Program_c, 0, 0
3, 0, Control_c, 0, 7, 100
3, 0, Control_c, 0, 10, 64
3, 0, Control_c, 0, 91, 127
3, 0, Note_on_c, 0, 32, 32
3, 0, Note_on_c, 0, 39, 32
3, 0, Note_on_c, 0, 44, 38
3, 480, Note_on_c, 0, 44, 0
3, 480, Note_on_c, 0, 39, 0
3, 480, Note_on_c, 0, 32, 0
3, 480, Note_on_c, 0, 39, 29
3, 480, Note_on_c, 0, 35, 29
3, 480, Note_on_c, 0, 47, 35
3, 960, Note_on_c, 0, 47, 0
3, 960, Note_on_c, 0, 35, 0
3, 960, Note_on_c, 0, 39, 0
3, 960, Note_on_c, 0, 32, 32
3, 960, Note_on_c, 0, 44, 38
3, 960, Note_on_c, 0, 39, 32
3, 1440, Note_on_c, 0, 39, 0
3, 1440, Note_on_c, 0, 44, 0
3, 1440, Note_on_c, 0, 32, 0
3, 1440, Note_on_c, 0, 39, 29
3, 1440, Note_on_c, 0, 47, 35
3, 1440, Note_on_c, 0, 35, 29
3, 1920, Note_on_c, 0, 35, 0
3, 1920, Note_on_c, 0, 47, 0
3, 1920, Note_on_c, 0, 39, 0
3, 1920, Note_on_c, 0, 32, 32
3, 1920, Note_on_c, 0, 44, 38
3, 1920, Note_on_c, 0, 39, 32
3, 2400, Note_on_c, 0, 39, 0
3, 2400, Note_on_c, 0, 44, 0
3, 2400, Note_on_c, 0, 32, 0
3, 2400, Note_on_c, 0, 35, 29
3, 2400, Note_on_c, 0, 47, 35
3, 2400, Note_on_c, 0, 39, 29
3, 2880, Note_on_c, 0, 39, 0
3, 2880, Note_on_c, 0, 47, 0
3, 2880, Note_on_c, 0, 35, 0
3, 2880, Note_on_c, 0, 39, 32
3, 2880, Note_on_c, 0, 32, 32
3, 2880, Note_on_c, 0, 44, 38
3, 3360, Note_on_c, 0, 44, 0
3, 3360, Note_on_c, 0, 32, 0
3, 3360, Note_on_c, 0, 39, 0
3, 3360, Note_on_c, 0, 39, 29
3, 3360, Note_on_c, 0, 35, 29
3, 3360, Note_on_c, 0, 47, 35
3, 3840, Note_on_c, 0, 47, 0
3, 3840, Note_on_c, 0, 35, 0
3, 3840, Note_on_c, 0, 39, 0
3, 3840, Note_on_c, 0, 39, 32
3, 3840, Note_on_c, 0, 32, 32
3, 3840, Note_on_c, 0, 44, 38
3, 4320, Note_on_c, 0, 44, 0
3, 4320, Note_on_c, 0, 32, 0
3, 4320, Note_on_c, 0, 39, 0
3, 4320, Note_on_c, 0, 39, 29
3, 4320, Note_on_c, 0, 47, 35
3, 4320, Note_on_c, 0, 35, 29
3, 4800, Note_on_c, 0, 35, 0
3, 4800, Note_on_c, 0, 47, 0
3, 4800, Note_on_c, 0, 39, 0
3, 4800, Note_on_c, 0, 39, 35
3, 4800, Note_on_c, 0, 44, 42
3, 4800, Note_on_c, 0, 32, 35
3, 5280, Note_on_c, 0, 32, 0
3, 5280, Note_on_c, 0, 44, 0
3, 5280, Note_on_c, 0, 39, 0
3, 5280, Note_on_c, 0, 39, 31
3, 5280, Note_on_c, 0, 35, 31
3, 5280, Note_on_c, 0, 47, 37
3, 5760, Note_on_c, 0, 47, 0
3, 5760, Note_on_c, 0, 35, 0
3, 5760, Note_on_c, 0, 39, 0
3, 5760, Note_on_c, 0, 39, 36
3, 5760, Note_on_c, 0, 32, 36
3, 5760, Note_on_c, 0, 44, 43
3, 6240, Note_on_c, 0, 44, 0
3, 6240, Note_on_c, 0, 32, 0
3, 6240, Note_on_c, 0, 39, 0
3, 6240, Note_on_c, 0, 39, 32
3, 6240, Note_on_c, 0, 35, 32
3, 6240, Note_on_c, 0, 47, 38
3, 6720, Note_on_c, 0, 47, 0
3, 6720, Note_on_c, 0, 35, 0
3, 6720, Note_on_c, 0, 39, 0
3, 6720, Note_on_c, 0, 39, 32
3, 6720, Note_on_c, 0, 44, 38
3, 6720, Note_on_c, 0, 32, 32
3, 7200, Note_on_c, 0, 32, 0
3, 7200, Note_on_c, 0, 44, 0
3, 7200, Note_on_c, 0, 39, 0
3, 7200, Note_on_c, 0, 39, 29
3, 7200, Note_on_c, 0, 47, 35
3, 7200, Note_on_c, 0, 35, 29
3, 7680, Note_on_c, 0, 35, 0
3, 7680, Note_on_c, 0, 47, 0
3, 7680, Note_on_c, 0, 39, 0
3, 7680, Note_on_c, 0, 33, 38
3, 7680, Note_on_c, 0, 37, 38
3, 7680, Note_on_c, 0, 45, 45
3, 8160, Note_on_c, 0, 45, 0
3, 8160, Note_on_c, 0, 37, 0
3, 8160, Note_on_c, 0, 33, 0
3, 8160, Note_on_c, 0, 37, 34
3, 8160, Note_on_c, 0, 49, 41
3, 8160, Note_on_c, 0, 40, 34
3, 8640, Note_on_c, 0, 40, 0
3, 8640, Note_on_c, 0, 49, 0
3, 8640, Note_on_c, 0, 37, 0
3, 8640, Note_on_c, 0, 32, 37
3, 8640, Note_on_c, 0, 40, 44
3, 8640, Note_on_c, 0, 28, 37
3, 9120, Note_on_c, 0, 28, 0
3, 9120, Note_on_c, 0, 40, 0
3, 9120, Note_on_c, 0, 32, 0
3, 9120, Note_on_c, 0, 35, 33
3, 9120, Note_on_c, 0, 44, 39
3, 9120, Note_on_c, 0, 32, 33
3, 9600, Note_on_c, 0, 32, 0
3, 9600, Note_on_c, 0, 44, 0
3, 9600, Note_on_c, 0, 35, 0
3, 9600, Note_on_c, 0, 37, 38
3, 9600, Note_on_c, 0, 33, 38
3, 9600, Note_on_c, 0, 45, 45
3, 10080, Note_on_c, 0, 45, 0
3, 10080, Note_on_c, 0, 33, 0
3, 10080, Note_on_c, 0, 37, 0
3, 10080, Note_on_c, 0, 37, 33
3, 10080, Note_on_c, 0, 40, 33
3, 10080, Note_on_c, 0, 49, 39
3, 10560, Note_on_c, 0, 49, 0
3, 10560, Note_on_c, 0, 40, 0
3, 10560, Note_on_c, 0, 37, 0
3, 10560, Note_on_c, 0, 28, 38
3, 10560, Note_on_c, 0, 32, 38
3, 10560, Note_on_c, 0, 40, 45
3, 11040, Note_on_c, 0, 40, 0
3, 11040, Note_on_c, 0, 32, 0
3, 11040, Note_on_c, 0, 28, 0
3, 11040, Note_on_c, 0, 32, 34
3, 11040, Note_on_c, 0, 35, 34
3, 11040, Note_on_c, 0, 44, 40
3, 11520, Note_on_c, 0, 44, 0
3, 11520, Note_on_c, 0, 35, 0
3, 11520, Note_on_c, 0, 32, 0
3, 11520, Note_on_c, 0, 34, 38
3, 11520, Note_on_c, 0, 31, 38
3, 11520, Note_on_c, 0, 43, 45
3, 12000, Note_on_c, 0, 43, 0
3, 12000, Note_on_c, 0, 31, 0
3, 12000, Note_on_c, 0, 34, 0
3, 12000, Note_on_c, 0, 34, 29
3, 12000, Note_on_c, 0, 39, 29
3, 12000, Note_on_c, 0, 46, 35
3, 12480, Note_on_c, 0, 46, 0
3, 12480, Note_on_c, 0, 39, 0
3, 12480, Note_on_c, 0, 34, 0
3, 12480, Note_on_c, 0, 31, 32
3, 12480, Note_on_c, 0, 34, 32
3, 12480, Note_on_c, 0, 43, 38
3, 12960, Note_on_c, 0, 43, 0
3, 12960, Note_on_c, 0, 34, 0
3, 12960, Note_on_c, 0, 31, 0
3, 12960, Note_on_c, 0, 34, 29
3, 12960, Note_on_c, 0, 39, 29
3, 12960, Note_on_c, 0, 46, 35
3, 13440, Note_on_c, 0, 46, 0
3, 13440, Note_on_c, 0, 39, 0
3, 13440, Note_on_c, 0, 34, 0
3, 13440, Note_on_c, 0, 32, 35
3, 13440, Note_on_c, 0, 39, 35
3, 13440, Note_on_c, 0, 44, 42
3, 13920, Note_on_c, 0, 44, 0
3, 13920, Note_on_c, 0, 39, 0
3, 13920, Note_on_c, 0, 32, 0
3, 13920, Note_on_c, 0, 35, 29
3, 13920, Note_on_c, 0, 39, 29
3, 13920, Note_on_c, 0, 47, 35
3, 14400, Note_on_c, 0, 47, 0
3, 14400, Note_on_c, 0, 39, 0
3, 14400, Note_on_c, 0, 35, 0
3, 14400, Note_on_c, 0, 31, 32
3, 14400, Note_on_c, 0, 34, 32
3, 14400, Note_on_c, 0, 43, 38
3, 14880, Note_on_c, 0, 43, 0
3, 14880, Note_on_c, 0, 34, 0
3, 14880, Note_on_c, 0, 31, 0
3, 14880, Note_on_c, 0, 34, 29
3, 14880, Note_on_c, 0, 39, 29
3, 14880, Note_on_c, 0, 46, 35
3, 15360, Note_on_c, 0, 46, 0
3, 15360, Note_on_c, 0, 39, 0
3, 15360, Note_on_c, 0, 34, 0
3, 15360, Note_on_c, 0, 32, 34
3, 15360, Note_on_c, 0, 35, 34
3, 15360, Note_on_c, 0, 44, 40
3, 15840, Note_on_c, 0, 44, 0
3, 15840, Note_on_c, 0, 35, 0
3, 15840, Note_on_c, 0, 32, 0
3, 15840, Note_on_c, 0, 35, 29
3, 15840, Note_on_c, 0, 39, 29
3, 15840, Note_on_c, 0, 47, 35
3, 16320, Note_on_c, 0, 47, 0
3, 16320, Note_on_c, 0, 39, 0
3, 16320, Note_on_c, 0, 35, 0
3, 16320, Note_on_c, 0, 33, 32
3, 16320, Note_on_c, 0, 37, 32
3, 16320, Note_on_c, 0, 45, 38
3, 16800, Note_on_c, 0, 45, 0
3, 16800, Note_on_c, 0, 37, 0
3, 16800, Note_on_c, 0, 33, 0
3, 16800, Note_on_c, 0, 37, 28
3, 16800, Note_on_c, 0, 40, 28
3, 16800, Note_on_c, 0, 49, 33
3, 17280, Note_on_c, 0, 49, 0
3, 17280, Note_on_c, 0, 40, 0
3, 17280, Note_on_c, 0, 37, 0
3, 17280, Note_on_c, 0, 32, 30
3, 17280, Note_on_c, 0, 39, 30
3, 17280, Note_on_c, 0, 44, 36
3, 17760, Note_on_c, 0, 44, 0
3, 17760, Note_on_c, 0, 39, 0
3, 17760, Note_on_c, 0, 32, 0
3, 17760, Note_on_c, 0, 35, 26
3, 17760, Note_on_c, 0, 39, 26
3, 17760, Note_on_c, 0, 47, 31
3, 18240, Note_on_c, 0, 47, 0
3, 18240, Note_on_c, 0, 39, 0
3, 18240, Note_on_c, 0, 35, 0
3, 18240, Note_on_c, 0, 32, 38
3, 18240, Note_on_c, 0, 39, 38
3, 18240, Note_on_c, 0, 44, 45
3, 18720, Note_on_c, 0, 44, 0
3, 18720, Note_on_c, 0, 39, 0
3, 18720, Note_on_c, 0, 32, 0
3, 18720, Note_on_c, 0, 35, 32
3, 18720, Note_on_c, 0, 39, 32
3, 18720, Note_on_c, 0, 47, 38
3, 19200, Note_on_c, 0, 47, 0
3, 19200, Note_on_c, 0, 39, 0
3, 19200, Note_on_c, 0, 35, 0
3, 19200, Note_on_c, 0, 32, 34
3, 19200, Note_on_c, 0, 39, 34
3, 19200, Note_on_c, 0, 44, 41
3, 19680, Note_on_c, 0, 44, 0
3, 19680, Note_on_c, 0, 39, 0
3, 19680, Note_on_c, 0, 32, 0
3, 19680, Note_on_c, 0, 35, 32
3, 19680, Note_on_c, 0, 39, 32
3, 19680, Note_on_c, 0, 47, 38
3, 20160, Note_on_c, 0, 47, 0
3, 20160, Note_on_c, 0, 39, 0
3, 20160, Note_on_c, 0, 35, 0
3, 20160, Note_on_c, 0, 32, 34
3, 20160, Note_on_c, 0, 39, 34
3, 20160, Note_on_c, 0, 44, 41
3, 20640, Note_on_c, 0, 44, 0
3, 20640, Note_on_c, 0, 39, 0
3, 20640, Note_on_c, 0, 32, 0
3, 20640, Note_on_c, 0, 35, 32
3, 20640, Note_on_c, 0, 39, 32
3, 20640, Note_on_c, 0, 47, 38
3, 21120, Note_on_c, 0, 47, 0
3, 21120, Note_on_c, 0, 39, 0
3, 21120, Note_on_c, 0, 35, 0
3, 21120, Note_on_c, 0, 32, 34
3, 21120, Note_on_c, 0, 39, 34
3, 21120, Note_on_c, 0, 44, 41
3, 21600, Note_on_c, 0, 44, 0
3, 21600, Note_on_c, 0, 39, 0
3, 21600, Note_on_c, 0, 32, 0
3, 21600, Note_on_c, 0, 35, 32
3, 21600, Note_on_c, 0, 39, 32
3, 21600, Note_on_c, 0, 47, 38
3, 22080, Note_on_c, 0, 47, 0
3, 22080, Note_on_c, 0, 39, 0
3, 22080, Note_on_c, 0, 35, 0
3, 22080, Note_on_c, 0, 32, 39
3, 22080, Note_on_c, 0, 39, 39
3, 22080, Note_on_c, 0, 44, 46
3, 22560, Note_on_c, 0, 44, 0
3, 22560, Note_on_c, 0, 39, 0
3, 22560, Note_on_c, 0, 32, 0
3, 22560, Note_on_c, 0, 35, 34
3, 22560, Note_on_c, 0, 39, 34
3, 22560, Note_on_c, 0, 47, 40
3, 23040, Note_on_c, 0, 47, 0
3, 23040, Note_on_c, 0, 39, 0
3, 23040, Note_on_c, 0, 35, 0
3, 23040, Note_on_c, 0, 32, 39
3, 23040, Note_on_c, 0, 39, 39
3, 23040, Note_on_c, 0, 44, 47
3, 23520, Note_on_c, 0, 44, 0
3, 23520, Note_on_c, 0, 39, 0
3, 23520, Note_on_c, 0, 32, 0
3, 23520, Note_on_c, 0, 35, 34
3, 23520, Note_on_c, 0, 39, 34
3, 23520, Note_on_c, 0, 47, 41
3, 24000, Note_on_c, 0, 47, 0
3, 24000, Note_on_c, 0, 39, 0
3, 24000, Note_on_c, 0, 35, 0
3, 24000, Note_on_c, 0, 32, 34
3, 24000, Note_on_c, 0, 39, 34
3, 24000, Note_on_c, 0, 44, 41
3, 24480, Note_on_c, 0, 44, 0
3, 24480, Note_on_c, 0, 39, 0
3, 24480, Note_on_c, 0, 32, 0
3, 24480, Note_on_c, 0, 35, 32
3, 24480, Note_on_c, 0, 39, 32
3, 24480, Note_on_c, 0, 47, 38
3, 24960, Note_on_c, 0, 47, 0
3, 24960, Note_on_c, 0, 39, 0
3, 24960, Note_on_c, 0, 35, 0
3, 24960, Note_on_c, 0, 37, 46
3, 24960, Note_on_c, 0, 33, 46
3, 24960, Note_on_c, 0, 45, 55
3, 25440, Note_on_c, 0, 45, 0
3, 25440, Note_on_c, 0, 33, 0
3, 25440, Note_on_c, 0, 37, 0
3, 25440, Note_on_c, 0, 37, 41
3, 25440, Note_on_c, 0, 40, 41
3, 25440, Note_on_c, 0, 49, 49
3, 25920, Note_on_c, 0, 49, 0
3, 25920, Note_on_c, 0, 40, 0
3, 25920, Note_on_c, 0, 37, 0
3, 25920, Note_on_c, 0, 28, 45
3, 25920, Note_on_c, 0, 32, 45
3, 25920, Note_on_c, 0, 40, 53
3, 26400, Note_on_c, 0, 40, 0
3, 26400, Note_on_c, 0, 32, 0
3, 26400, Note_on_c, 0, 28, 0
3, 26400, Note_on_c, 0, 32, 41
3, 26400, Note_on_c, 0, 35, 41
3, 26400, Note_on_c, 0, 44, 49
3, 26880, Note_on_c, 0, 44, 0
3, 26880, Note_on_c, 0, 35, 0
3, 26880, Note_on_c, 0, 32, 0
3, 26880, Note_on_c, 0, 37, 48
3, 26880, Note_on_c, 0, 33, 48
3, 26880, Note_on_c, 0, 45, 57
3, 27360, Note_on_c, 0, 45, 0
3, 27360, Note_on_c, 0, 33, 0
3, 27360, Note_on_c, 0, 37, 0
3, 27360, Note_on_c, 0, 37, 43
3, 27360, Note_on_c, 0, 40, 43
3, 27360, Note_on_c, 0, 49, 51
3, 27840, Note_on_c, 0, 49, 0
3, 27840, Note_on_c, 0, 40, 0
3, 27840, Note_on_c, 0, 37, 0
3, 27840, Note_on_c, 0, 28, 49
3, 27840, Note_on_c, 0, 32, 49
3, 27840, Note_on_c, 0, 40, 58
3, 28320, Note_on_c, 0, 40, 0
3, 28320, Note_on_c, 0, 32, 0
3, 28320, Note_on_c, 0, 28, 0
3, 28320, Note_on_c, 0, 32, 44
3, 28320, Note_on_c, 0, 35, 44
3, 28320, Note_on_c, 0, 44, 52
3, 28800, Note_on_c, 0, 44, 0
3, 28800, Note_on_c, 0, 35, 0
3, 28800, Note_on_c, 0, 32, 0
3, 28800, Note_on_c, 0, 30, 48
3, 28800, Note_on_c, 0, 33, 48
3, 28800, Note_on_c, 0, 42, 57
3, 29280, Note_on_c, 0, 42, 0
3, 29280, Note_on_c, 0, 33, 0
3, 29280, Note_on_c, 0, 30, 0
3, 29280, Note_on_c, 0, 33, 44
3, 29280, Note_on_c, 0, 38, 44
3, 29280, Note_on_c, 0, 45, 52
3, 29760, Note_on_c, 0, 45, 0
3, 29760, Note_on_c, 0, 38, 0
3, 29760, Note_on_c, 0, 33, 0
3, 29760, Note_on_c, 0, 30, 49
3, 29760, Note_on_c, 0, 38, 49
3, 29760, Note_on_c, 0, 42, 58
3, 30240, Note_on_c, 0, 42, 0
3, 30240, Note_on_c, 0, 38, 0
3, 30240, Note_on_c, 0, 30, 0
3, 30240, Note_on_c, 0, 33, 45
3, 30240, Note_on_c, 0, 38, 45
3, 30240, Note_on_c, 0, 45, 53
3, 30720, Note_on_c, 0, 45, 0
3, 30720, Note_on_c, 0, 38, 0
3, 30720, Note_on_c, 0, 33, 0
3, 30720, Note_on_c, 0, 30, 50
3, 30720, Note_on_c, 0, 38, 50
3, 30720, Note_on_c, 0, 42, 59
3, 31200, Note_on_c, 0, 42, 0
3, 31200, Note_on_c, 0, 38, 0
3, 31200, Note_on_c, 0, 30, 0
3, 31200, Note_on_c, 0, 33, 42
3, 31200, Note_on_c, 0, 38, 42
3, 31200, Note_on_c, 0, 45, 50
3, 31680, Note_on_c, 0, 45, 0
3, 31680, Note_on_c, 0, 38, 0
3, 31680, Note_on_c, 0, 33, 0
3, 31680, Note_on_c, 0, 32, 50
3, 31680, Note_on_c, 0, 39, 50
3, 31680, Note_on_c, 0, 44, 59
3, 32160, Note_on_c, 0, 44, 0
3, 32160, Note_on_c, 0, 39, 0
3, 32160, Note_on_c, 0, 32, 0
3, 32160, Note_on_c, 0, 36, 44
3, 32160, Note_on_c, 0, 39, 44
3, 32160, Note_on_c, 0, 48, 52
3, 32640, Note_on_c, 0, 48, 0
3, 32640, Note_on_c, 0, 39, 0
3, 32640, Note_on_c, 0, 36, 0
3, 32640, Note_on_c, 0, 37, 49
3, 32640, Note_on_c, 0, 33, 49
3, 32640, Note_on_c, 0, 45, 58
3, 33120, Note_on_c, 0, 45, 0
3, 33120, Note_on_c, 0, 33, 0
3, 33120, Note_on_c, 0, 37, 0
3, 33120, Note_on_c, 0, 37, 43
3, 33120, Note_on_c, 0, 40, 43
3, 33120, Note_on_c, 0, 49, 51
3, 33600, Note_on_c, 0, 49, 0
3, 33600, Note_on_c, 0, 40, 0
3, 33600, Note_on_c, 0, 37, 0
3, 33600, Note_on_c, 0, 28, 46
3, 33600, Note_on_c, 0, 32, 46
3, 33600, Note_on_c, 0, 40, 55
3, 34080, Note_on_c, 0, 40, 0
3, 34080, Note_on_c, 0, 32, 0
3, 34080, Note_on_c, 0, 28, 0
3, 34080, Note_on_c, 0, 32, 42
3, 34080, Note_on_c, 0, 35, 42
3, 34080, Note_on_c, 0, 44, 50
3, 34560, Note_on_c, 0, 44, 0
3, 34560, Note_on_c, 0, 35, 0
3, 34560, Note_on_c, 0, 32, 0
3, 34560, Note_on_c, 0, 42, 45
3, 34560, Note_on_c, 0, 35, 45
3, 34560, Note_on_c, 0, 47, 54
3, 35040, Note_on_c, 0, 47, 0
3, 35040, Note_on_c, 0, 35, 0
3, 35040, Note_on_c, 0, 42, 0
3, 35040, Note_on_c, 0, 39, 32
3, 35040, Note_on_c, 0, 42, 32
3, 35040, Note_on_c, 0, 51, 38
3, 35520, Note_on_c, 0, 51, 0
3, 35520, Note_on_c, 0, 42, 0
3, 35520, Note_on_c, 0, 39, 0
3, 35520, Note_on_c, 0, 31, 45
3, 35520, Note_on_c, 0, 39, 45
3, 35520, Note_on_c, 0, 43, 54
3, 36000, Note_on_c, 0, 43, 0
3, 36000, Note_on_c, 0, 39, 0
3, 36000, Note_on_c, 0, 31, 0
3, 36000, Note_on_c, 0, 34, 35
3, 36000, Note_on_c, 0, 39, 35
3, 36000, Note_on_c, 0, 46, 42
3, 36480, Note_on_c, 0, 46, 0
3, 36480, Note_on_c, 0, 39, 0
3, 36480, Note_on_c, 0, 34, 0
3, 36480, Note_on_c, 0, 32, 39
3, 36480, Note_on_c, 0, 39, 39
3, 36480, Note_on_c, 0, 44, 46
3, 36960, Note_on_c, 0, 44, 0
3, 36960, Note_on_c, 0, 39, 0
3, 36960, Note_on_c, 0, 32, 0
3, 36960, Note_on_c, 0, 35, 30
3, 36960, Note_on_c, 0, 39, 30
3, 36960, Note_on_c, 0, 47, 36
3, 37440, Note_on_c, 0, 47, 0
3, 37440, Note_on_c, 0, 39, 0
3, 37440, Note_on_c, 0, 35, 0
3, 37440, Note_on_c, 0, 32, 37
3, 37440, Note_on_c, 0, 39, 37
3, 37440, Note_on_c, 0, 44, 44
3, 37920, Note_on_c, 0, 44, 0
3, 37920, Note_on_c, 0, 39, 0
3, 37920, Note_on_c, 0, 32, 0
3, 37920, Note_on_c, 0, 35, 31
3, 37920, Note_on_c, 0, 39, 31
3, 37920, Note_on_c, 0, 47, 37
3, 38400, Note_on_c, 0, 47, 0
3, 38400, Note_on_c, 0, 39, 0
3, 38400, Note_on_c, 0, 35, 0
3, 38400, Note_on_c, 0, 33, 44
3, 38400, Note_on_c, 0, 37, 44
3, 38400, Note_on_c, 0, 45, 52
3, 38880, Note_on_c, 0, 45, 0
3, 38880, Note_on_c, 0, 37, 0
3, 38880, Note_on_c, 0, 37, 41
3, 38880, Note_on_c, 0, 45, 49
3, 39360, Note_on_c, 0, 45, 0
3, 39360, Note_on_c, 0, 37, 0
3, 39360, Note_on_c, 0, 33, 0
3, 39360, Note_on_c, 0, 35, 44
3, 39360, Note_on_c, 0, 39, 44
3, 39360, Note_on_c, 0, 47, 52
3, 39840, Note_on_c, 0, 47, 0
3, 39840, Note_on_c, 0, 39, 0
3, 39840, Note_on_c, 0, 39, 48
3, 39840, Note_on_c, 0, 47, 48
3, 40320, Note_on_c, 0, 47, 0
3, 40320, Note_on_c, 0, 39, 0
3, 40320, Note_on_c, 0, 35, 0
3, 40320, Note_on_c, 0, 37, 44
3, 40320, Note_on_c, 0, 40, 44
3, 40320, Note_on_c, 0, 49, 52
3, 40800, Note_on_c, 0, 49, 0
3, 40800, Note_on_c, 0, 40, 0
3, 40800, Note_on_c, 0, 40, 42
3, 40800, Note_on_c, 0, 49, 50
3, 41280, Note_on_c, 0, 49, 0
3, 41280, Note_on_c, 0, 40, 0
3, 41280, Note_on_c, 0, 37, 0
3, 41280, Note_on_c, 0, 38, 45
3, 41280, Note_on_c, 0, 42, 45
3, 41280, Note_on_c, 0, 50, 53
3, 41760, Note_on_c, 0, 50, 0
3, 41760, Note_on_c, 0, 42, 0
3, 41760, Note_on_c, 0, 42, 42
3, 41760, Note_on_c, 0, 50, 50
3, 42240, Note_on_c, 0, 50, 0
3, 42240, Note_on_c, 0, 42, 0
3, 42240, Note_on_c, 0, 38, 0
3, 42240, Note_on_c, 0, 33, 45
3, 42240, Note_on_c, 0, 37, 45
3, 42240, Note_on_c, 0, 45, 53
3, 42720, Note_on_c, 0, 45, 0
3, 42720, Note_on_c, 0, 37, 0
3, 42720, Note_on_c, 0, 37, 39
3, 42720, Note_on_c, 0, 45, 47
3, 43200, Note_on_c, 0, 45, 0
3, 43200, Note_on_c, 0, 37, 0
3, 43200, Note_on_c, 0, 33, 0
3, 43200, Note_on_c, 0, 35, 44
3, 43200, Note_on_c, 0, 39, 44
3, 43200, Note_on_c, 0, 47, 52
3, 43680, Note_on_c, 0, 47, 0
3, 43680, Note_on_c, 0, 39, 0
3, 43680, Note_on_c, 0, 39, 38
3, 43680, Note_on_c, 0, 47, 45
3, 44160, Note_on_c, 0, 47, 0
3, 44160, Note_on_c, 0, 39, 0
3, 44160, Note_on_c, 0, 35, 0
3, 44160, Note_on_c, 0, 37, 44
3, 44160, Note_on_c, 0, 40, 44
3, 44160, Note_on_c, 0, 49, 52
3, 44640, Note_on_c, 0, 49, 0
3, 44640, Note_on_c, 0, 40, 0
3, 44640, Note_on_c, 0, 40, 42
3, 44640, Note_on_c, 0, 49, 50
3, 45120, Note_on_c, 0, 49, 0
3, 45120, Note_on_c, 0, 40, 0
3, 45120, Note_on_c, 0, 37, 0
3, 45120, Note_on_c, 0, 38, 44
3, 45120, Note_on_c, 0, 42, 44
3, 45120, Note_on_c, 0, 50, 52
3, 45600, Note_on_c, 0, 50, 0
3, 45600, Note_on_c, 0, 42, 0
3, 45600, Note_on_c, 0, 42, 40
3, 45600, Note_on_c, 0, 50, 48
3, 46080, Note_on_c, 0, 50, 0
3, 46080, Note_on_c, 0, 42, 0
3, 46080, Note_on_c, 0, 38, 0
3, 46080, Note_on_c, 0, 33, 47
3, 46080, Note_on_c, 0, 37, 47
3, 46080, Note_on_c, 0, 45, 56
3, 46560, Note_on_c, 0, 45, 0
3, 46560, Note_on_c, 0, 37, 0
3, 46560, Note_on_c, 0, 37, 42
3, 46560, Note_on_c, 0, 45, 50
3, 47040, Note_on_c, 0, 45, 0
3, 47040, Note_on_c, 0, 37, 0
3, 47040, Note_on_c, 0, 33, 0
3, 47040, Note_on_c, 0, 35, 47
3, 47040, Note_on_c, 0, 39, 47
3, 47040, Note_on_c, 0, 47, 56
3, 47520, Note_on_c, 0, 47, 0
3, 47520, Note_on_c, 0, 39, 0
3, 47520, Note_on_c, 0, 39, 41
3, 47520, Note_on_c, 0, 47, 49
3, 48000, Note_on_c, 0, 47, 0
3, 48000, Note_on_c, 0, 39, 0
3, 48000, Note_on_c, 0, 35, 0
3, 48000, Note_on_c, 0, 37, 47
3, 48000, Note_on_c, 0, 40, 47
3, 48000, Note_on_c, 0, 49, 56
3, 48480, Note_on_c, 0, 49, 0
3, 48480, Note_on_c, 0, 40, 0
3, 48480, Note_on_c, 0, 40, 43
3, 48480, Note_on_c, 0, 49, 51
3, 48960, Note_on_c, 0, 49, 0
3, 48960, Note_on_c, 0, 40, 0
3, 48960, Note_on_c, 0, 37, 0
3, 48960, Note_on_c, 0, 38, 46
3, 48960, Note_on_c, 0, 42, 46
3, 48960, Note_on_c, 0, 50, 55
3, 49440, Note_on_c, 0, 50, 0
3, 49440, Note_on_c, 0, 42, 0
3, 49440, Note_on_c, 0, 42, 42
3, 49440, Note_on_c, 0, 50, 50
3, 49920, Note_on_c, 0, 50, 0
3, 49920, Note_on_c, 0, 42, 0
3, 49920, Note_on_c, 0, 38, 0
3, 49920, Note_on_c, 0, 33, 48
3, 49920, Note_on_c, 0, 37, 48
3, 49920, Note_on_c, 0, 45, 57
3, 50400, Note_on_c, 0, 45, 0
3, 50400, Note_on_c, 0, 37, 0
3, 50400, Note_on_c, 0, 37, 42
3, 50400, Note_on_c, 0, 45, 50
3, 50880, Note_on_c, 0, 45, 0
3, 50880, Note_on_c, 0, 37, 0
3, 50880, Note_on_c, 0, 33, 0
3, 50880, Note_on_c, 0, 38, 47
3, 50880, Note_on_c, 0, 42, 47
3, 50880, Note_on_c, 0, 50, 56
3, 51360, Note_on_c, 0, 50, 0
3, 51360, Note_on_c, 0, 42, 0
3, 51360, Note_on_c, 0, 42, 45
3, 51360, Note_on_c, 0, 50, 53
3, 51840, Note_on_c, 0, 50, 0
3, 51840, Note_on_c, 0, 42, 0
3, 51840, Note_on_c, 0, 38, 0
3, 51840, Note_on_c, 0, 37, 48
3, 51840, Note_on_c, 0, 45, 57
3, 51840, Note_on_c, 0, 33, 48
3, 52320, Note_on_c, 0, 45, 0
3, 52320, Note_on_c, 0, 37, 0
3, 52320, Note_on_c, 0, 37, 44
3, 52320, Note_on_c, 0, 45, 52
3, 52800, Note_on_c, 0, 45, 0
3, 52800, Note_on_c, 0, 37, 0
3, 52800, Note_on_c, 0, 33, 0
3, 52800, Note_on_c, 0, 35, 48
3, 52800, Note_on_c, 0, 38, 48
3, 52800, Note_on_c, 0, 47, 57
3, 53280, Note_on_c, 0, 47, 0
3, 53280, Note_on_c, 0, 38, 0
3, 53280, Note_on_c, 0, 38, 44
3, 53280, Note_on_c, 0, 47, 52
3, 53760, Note_on_c, 0, 47, 0
3, 53760, Note_on_c, 0, 38, 0
3, 53760, Note_on_c, 0, 35, 0
3, 53760, Note_on_c, 0, 37, 49
3, 53760, Note_on_c, 0, 33, 49
3, 53760, Note_on_c, 0, 45, 58
3, 54240, Note_on_c, 0, 45, 0
3, 54240, Note_on_c, 0, 37, 0
3, 54240, Note_on_c, 0, 37, 45
3, 54240, Note_on_c, 0, 45, 53
3, 54720, Note_on_c, 0, 45, 0
3, 54720, Note_on_c, 0, 37, 0
3, 54720, Note_on_c, 0, 33, 0
3, 54720, Note_on_c, 0, 38, 50
3, 54720, Note_on_c, 0, 42, 50
3, 54720, Note_on_c, 0, 50, 59
3, 55200, Note_on_c, 0, 50, 0
3, 55200, Note_on_c, 0, 42, 0
3, 55200, Note_on_c, 0, 42, 46
3, 55200, Note_on_c, 0, 50, 55
3, 55680, Note_on_c, 0, 50, 0
3, 55680, Note_on_c, 0, 42, 0
3, 55680, Note_on_c, 0, 38, 0
3, 55680, Note_on_c, 0, 49, 59
3, 55680, Note_on_c, 0, 42, 50
3, 55680, Note_on_c, 0, 37, 50
3, 56160, Note_on_c, 0, 42, 0
3, 56160, Note_on_c, 0, 49, 0
3, 56160, Note_on_c, 0, 42, 46
3, 56160, Note_on_c, 0, 49, 55
3, 56640, Note_on_c, 0, 49, 0
3, 56640, Note_on_c, 0, 42, 0
3, 56640, Note_on_c, 0, 37, 0
3, 56640, Note_on_c, 0, 44, 52
3, 56640, Note_on_c, 0, 48, 62
3, 56640, Note_on_c, 0, 36, 52
3, 57120, Note_on_c, 0, 48, 0
3, 57120, Note_on_c, 0, 44, 0
3, 57120, Note_on_c, 0, 44, 47
3, 57120, Note_on_c, 0, 48, 56
3, 57600, Note_on_c, 0, 48, 0
3, 57600, Note_on_c, 0, 44, 0
3, 57600, Note_on_c, 0, 36, 0
3, 57600, Note_on_c, 0, 49, 53
3, 57600, Note_on_c, 0, 44, 45
3, 57600, Note_on_c, 0, 37, 45
3, 58080, Note_on_c, 0, 44, 0
3, 58080, Note_on_c, 0, 49, 0
3, 58080, Note_on_c, 0, 44, 40
3, 58080, Note_on_c, 0, 49, 48
3, 58560, Note_on_c, 0, 49, 0
3, 58560, Note_on_c, 0, 44, 0
3, 58560, Note_on_c, 0, 37, 0
3, 58560, Note_on_c, 0, 42, 44
3, 58560, Note_on_c, 0, 50, 52
3, 58560, Note_on_c, 0, 38, 44
3, 59040, Note_on_c, 0, 50, 0
3, 59040, Note_on_c, 0, 42, 0
3, 59040, Note_on_c, 0, 42, 38
3, 59040, Note_on_c, 0, 50, 45
3, 59520, Note_on_c, 0, 50, 0
3, 59520, Note_on_c, 0, 42, 0
3, 59520, Note_on_c, 0, 38, 0
3, 59520, Note_on_c, 0, 44, 37
3, 59520, Note_on_c, 0, 51, 45
3, 59520, Note_on_c, 0, 39, 37
3, 60000, Note_on_c, 0, 51, 0
3, 60000, Note_on_c, 0, 44, 0
3, 60000, Note_on_c, 0, 44, 34
3, 60000, Note_on_c, 0, 51, 41
3, 60480, Note_on_c, 0, 51, 0
3, 60480, Note_on_c, 0, 44, 0
3, 60480, Note_on_c, 0, 39, 0
3, 60480, Note_on_c, 0, 49, 35
3, 60480, Note_on_c, 0, 52, 41
3, 60480, Note_on_c, 0, 40, 35
3, 60960, Note_on_c, 0, 52, 0
3, 60960, Note_on_c, 0, 49, 0
3, 60960, Note_on_c, 0, 49, 31
3, 60960, Note_on_c, 0, 52, 37
3, 61440, Note_on_c, 0, 52, 0
3, 61440, Note_on_c, 0, 49, 0
3, 61440, Note_on_c, 0, 40, 0
3, 61440, Note_on_c, 0, 49, 27
3, 61440, Note_on_c, 0, 54, 32
3, 61440, Note_on_c, 0, 42, 27
3, 61920, Note_on_c, 0, 54, 0
3, 61920, Note_on_c, 0, 49, 0
3, 61920, Note_on_c, 0, 49, 20
3, 61920, Note_on_c, 0, 54, 24
3, 62400, Note_on_c, 0, 54, 0
3, 62400, Note_on_c, 0, 49, 0
3, 62400, Note_on_c, 0, 42, 0
3, 62400, Note_on_c, 0, 49, 23
3, 62400, Note_on_c, 0, 56, 27
3, 62400, Note_on_c, 0, 44, 23
3, 62880, Note_on_c, 0, 56, 0
3, 62880, Note_on_c, 0, 49, 0
3, 62880, Note_on_c, 0, 49, 19
3, 62880, Note_on_c, 0, 56, 22
3, 63360, Note_on_c, 0, 56, 0
3, 63360, Note_on_c, 0, 49, 0
3, 63360, Note_on_c, 0, 44, 0
3, 63360, Note_on_c, 0, 49, 28
3, 63360, Note_on_c, 0, 57, 34
3, 63360, Note_on_c, 0, 45, 28
3, 63840, Note_on_c, 0, 57, 0
3, 63840, Note_on_c, 0, 49, 0
3, 63840, Note_on_c, 0, 49, 28
3, 63840, Note_on_c, 0, 57, 34
3, 64320, Note_on_c, 0, 57, 0
3, 64320, Note_on_c, 0, 49, 0
3, 64320, Note_on_c, 0, 45, 0
3, 64320, Note_on_c, 0, 51, 28
3, 64320, Note_on_c, 0, 54, 33
3, 64320, Note_on_c, 0, 42, 28
3, 64800, Note_on_c, 0, 54, 0
3, 64800, Note_on_c, 0, 51, 0
3, 64800, Note_on_c, 0, 51, 36
3, 64800, Note_on_c, 0, 54, 43
3, 65280, Note_on_c, 0, 54, 0
3, 65280, Note_on_c, 0, 51, 0
3, 65280, Note_on_c, 0, 42, 0
3, 65280, Note_on_c, 0, 55, 67
3, 65280, Note_on_c, 0, 51, 56
3, 65280, Note_on_c, 0, 43, 56
3, 65760, Note_on_c, 0, 51, 0
3, 65760, Note_on_c, 0, 55, 0
3, 65760, Note_on_c, 0, 51, 50
3, 65760, Note_on_c, 0, 55, 59
3, 66240, Note_on_c, 0, 55, 0
3, 66240, Note_on_c, 0, 51, 0
3, 66240, Note_on_c, 0, 43, 0
3, 66240, Note_on_c, 0, 46, 56
3, 66240, Note_on_c, 0, 51, 67
3, 66240, Note_on_c, 0, 39, 56
3, 66720, Note_on_c, 0, 51, 0
3, 66720, Note_on_c, 0, 46, 0
3, 66720, Note_on_c, 0, 46, 51
3, 66720, Note_on_c, 0, 51, 60
3, 67200, Note_on_c, 0, 51, 0
3, 67200, Note_on_c, 0, 46, 0
3, 67200, Note_on_c, 0, 39, 0
3, 67200, Note_on_c, 0, 51, 65
3, 67200, Note_on_c, 0, 56, 77
3, 67200, Note_on_c, 0, 44, 65
3, 67680, Note_on_c, 0, 56, 0
3, 67680, Note_on_c, 0, 51, 0
3, 67680, Note_on_c, 0, 51, 60
3, 67680, Note_on_c, 0, 56, 71
3, 68160, Note_on_c, 0, 56, 0
3, 68160, Note_on_c, 0, 51, 0
3, 68160, Note_on_c, 0, 44, 0
3, 68160, Note_on_c, 0, 47, 77
3, 68160, Note_on_c, 0, 39, 65
3, 68160, Note_on_c, 0, 35, 65
3, 68640, Note_on_c, 0, 39, 0
3, 68640, Note_on_c, 0, 47, 0
3, 68640, Note_on_c, 0, 39, 62
3, 68640, Note_on_c, 0, 47, 73
3, 69120, Note_on_c, 0, 47, 0
3, 69120, Note_on_c, 0, 39, 0
3, 69120, Note_on_c, 0, 35, 0
3, 69120, Note_on_c, 0, 49, 77
3, 69120, Note_on_c, 0, 44, 65
3, 69120, Note_on_c, 0, 37, 65
3, 69600, Note_on_c, 0, 44, 0
3, 69600, Note_on_c, 0, 49, 0
3, 69600, Note_on_c, 0, 44, 56
3, 69600, Note_on_c, 0, 49, 67
3, 70080, Note_on_c, 0, 49, 0
3, 70080, Note_on_c, 0, 44, 0
3, 70080, Note_on_c, 0, 37, 0
3, 70080, Note_on_c, 0, 51, 74
3, 70080, Note_on_c, 0, 43, 62
3, 70080, Note_on_c, 0, 39, 62
3, 70560, Note_on_c, 0, 43, 0
3, 70560, Note_on_c, 0, 51, 0
3, 70560, Note_on_c, 0, 43, 57
3, 70560, Note_on_c, 0, 51, 68
3, 71040, Note_on_c, 0, 51, 0
3, 71040, Note_on_c, 0, 43, 0
3, 71040, Note_on_c, 0, 39, 0
3, 71040, Note_on_c, 0, 32, 57
3, 71040, Note_on_c, 0, 39, 64
3, 71040, Note_on_c, 0, 44, 76
3, 71520, Note_on_c, 0, 44, 0
3, 71520, Note_on_c, 0, 39, 0
3, 71520, Note_on_c, 0, 32, 0
3, 71520, Note_on_c, 0, 35, 52
3, 71520, Note_on_c, 0, 39, 58
3, 71520, Note_on_c, 0, 47, 69
3, 72000, Note_on_c, 0, 47, 0
3, 72000, Note_on_c, 0, 39, 0
3, 72000, Note_on_c, 0, 35, 0
3, 72000, Note_on_c, 0, 32, 57
3, 72000, Note_on_c, 0, 39, 64
3, 72000, Note_on_c, 0, 44, 76
3, 72480, Note_on_c, 0, 44, 0
3, 72480, Note_on_c, 0, 39, 0
3, 72480, Note_on_c, 0, 32, 0
3, 72480, Note_on_c, 0, 35, 47
3, 72480, Note_on_c, 0, 39, 53
3, 72480, Note_on_c, 0, 47, 63
3, 72960, Note_on_c, 0, 47, 0
3, 72960, Note_on_c, 0, 39, 0
3, 72960, Note_on_c, 0, 35, 0
3, 72960, Note_on_c, 0, 32, 58
3, 72960, Note_on_c, 0, 39, 65
3, 72960, Note_on_c, 0, 44, 77
3, 73440, Note_on_c, 0, 44, 0
3, 73440, Note_on_c, 0, 39, 0
3, 73440, Note_on_c, 0, 32, 0
3, 73440, Note_on_c, 0, 35, 53
3, 73440, Note_on_c, 0, 39, 59
3, 73440, Note_on_c, 0, 47, 70
3, 73920, Note_on_c, 0, 47, 0
3, 73920, Note_on_c, 0, 39, 0
3, 73920, Note_on_c, 0, 35, 0
3, 73920, Note_on_c, 0, 32, 58
3, 73920, Note_on_c, 0, 39, 65
3, 73920, Note_on_c, 0, 44, 77
3, 74400, Note_on_c, 0, 44, 0
3, 74400, Note_on_c, 0, 39, 0
3, 74400, Note_on_c, 0, 32, 0
3, 74400, Note_on_c, 0, 35, 52
3, 74400, Note_on_c, 0, 39, 58
3, 74400, Note_on_c, 0, 47, 69
3, 74880, Note_on_c, 0, 47, 0
3, 74880, Note_on_c, 0, 39, 0
3, 74880, Note_on_c, 0, 35, 0
3, 74880, Note_on_c, 0, 32, 56
3, 74880, Note_on_c, 0, 39, 62
3, 74880, Note_on_c, 0, 44, 74
3, 75360, Note_on_c, 0, 44, 0
3, 75360, Note_on_c, 0, 39, 0
3, 75360, Note_on_c, 0, 32, 0
3, 75360, Note_on_c, 0, 35, 51
3, 75360, Note_on_c, 0, 39, 57
3, 75360, Note_on_c, 0, 47, 68
3, 75840, Note_on_c, 0, 47, 0
3, 75840, Note_on_c, 0, 39, 0
3, 75840, Note_on_c, 0, 35, 0
3, 75840, Note_on_c, 0, 32, 58
3, 75840, Note_on_c, 0, 39, 65
3, 75840, Note_on_c, 0, 44, 77
3, 76320, Note_on_c, 0, 44, 0
3, 76320, Note_on_c, 0, 39, 0
3, 76320, Note_on_c, 0, 32, 0
3, 76320, Note_on_c, 0, 35, 51
3, 76320, Note_on_c, 0, 39, 57
3, 76320, Note_on_c, 0, 47, 68
3, 76800, Note_on_c, 0, 47, 0
3, 76800, Note_on_c, 0, 39, 0
3, 76800, Note_on_c, 0, 35, 0
3, 76800, Note_on_c, 0, 32, 60
3, 76800, Note_on_c, 0, 39, 67
3, 76800, Note_on_c, 0, 44, 79
3, 77280, Note_on_c, 0, 44, 0
3, 77280, Note_on_c, 0, 39, 0
3, 77280, Note_on_c, 0, 32, 0
3, 77280, Note_on_c, 0, 35, 52
3, 77280, Note_on_c, 0, 39, 58
3, 77280, Note_on_c, 0, 47, 69
3, 77760, Note_on_c, 0, 47, 0
3, 77760, Note_on_c, 0, 39, 0
3, 77760, Note_on_c, 0, 35, 0
3, 77760, Note_on_c, 0, 32, 56
3, 77760, Note_on_c, 0, 39, 62
3, 77760, Note_on_c, 0, 44, 74
3, 78240, Note_on_c, 0, 44, 0
3, 78240, Note_on_c, 0, 39, 0
3, 78240, Note_on_c, 0, 32, 0
3, 78240, Note_on_c, 0, 35, 53
3, 78240, Note_on_c, 0, 39, 59
3, 78240, Note_on_c, 0, 47, 70
3, 78720, Note_on_c, 0, 47, 0
3, 78720, Note_on_c, 0, 39, 0
3, 78720, Note_on_c, 0, 35, 0
3, 78720, Note_on_c, 0, 37, 69
3, 78720, Note_on_c, 0, 33, 62
3, 78720, Note_on_c, 0, 45, 82
3, 79200, Note_on_c, 0, 45, 0
3, 79200, Note_on_c, 0, 33, 0
3, 79200, Note_on_c, 0, 37, 0
3, 79200, Note_on_c, 0, 37, 48
3, 79200, Note_on_c, 0, 40, 54
3, 79200, Note_on_c, 0, 49, 64
3, 79680, Note_on_c, 0, 49, 0
3, 79680, Note_on_c, 0, 40, 0
3, 79680, Note_on_c, 0, 37, 0
3, 79680, Note_on_c, 0, 52, 70
3, 79680, Note_on_c, 0, 44, 59
3, 79680, Note_on_c, 0, 40, 59
3, 80160, Note_on_c, 0, 40, 0
3, 80160, Note_on_c, 0, 44, 0
3, 80160, Note_on_c, 0, 52, 0
3, 80160, Note_on_c, 0, 56, 66
3, 80160, Note_on_c, 0, 47, 56
3, 80160, Note_on_c, 0, 44, 50
3, 80640, Note_on_c, 0, 44, 0
3, 80640, Note_on_c, 0, 47, 0
3, 80640, Note_on_c, 0, 56, 0
3, 80640, Note_on_c, 0, 37, 69
3, 80640, Note_on_c, 0, 33, 62
3, 80640, Note_on_c, 0, 45, 82
3, 81120, Note_on_c, 0, 45, 0
3, 81120, Note_on_c, 0, 33, 0
3, 81120, Note_on_c, 0, 37, 0
3, 81120, Note_on_c, 0, 37, 51
3, 81120, Note_on_c, 0, 40, 56
3, 81120, Note_on_c, 0, 49, 67
3, 81600, Note_on_c, 0, 49, 0
3, 81600, Note_on_c, 0, 40, 0
3, 81600, Note_on_c, 0, 37, 0
3, 81600, Note_on_c, 0, 52, 75
3, 81600, Note_on_c, 0, 44, 63
3, 81600, Note_on_c, 0, 40, 56
3, 82080, Note_on_c, 0, 40, 0
3, 82080, Note_on_c, 0, 44, 0
3, 82080, Note_on_c, 0, 52, 0
3, 82080, Note_on_c, 0, 56, 65
3, 82080, Note_on_c, 0, 47, 55
3, 82080, Note_on_c, 0, 44, 49
3, 82560, Note_on_c, 0, 44, 0
3, 82560, Note_on_c, 0, 47, 0
3, 82560, Note_on_c, 0, 56, 0
3, 82560, Note_on_c, 0, 34, 69
3, 82560, Note_on_c, 0, 31, 62
3, 82560, Note_on_c, 0, 43, 82
3, 83040, Note_on_c, 0, 43, 0
3, 83040, Note_on_c, 0, 31, 0
3, 83040, Note_on_c, 0, 34, 0
3, 83040, Note_on_c, 0, 34, 47
3, 83040, Note_on_c, 0, 39, 53
3, 83040, Note_on_c, 0, 46, 63
3, 83520, Note_on_c, 0, 46, 0
3, 83520, Note_on_c, 0, 39, 0
3, 83520, Note_on_c, 0, 34, 0
3, 83520, Note_on_c, 0, 31, 52
3, 83520, Note_on_c, 0, 34, 58
3, 83520, Note_on_c, 0, 43, 69
3, 84000, Note_on_c, 0, 43, 0
3, 84000, Note_on_c, 0, 34, 0
3, 84000, Note_on_c, 0, 31, 0
3, 84000, Note_on_c, 0, 34, 40
3, 84000, Note_on_c, 0, 39, 45
3, 84000, Note_on_c, 0, 46, 54
3, 84480, Note_on_c, 0, 46, 0
3, 84480, Note_on_c, 0, 39, 0
3, 84480, Note_on_c, 0, 34, 0
3, 84480, Note_on_c, 0, 32, 58
3, 84480, Note_on_c, 0, 39, 65
3, 84480, Note_on_c, 0, 44, 77
3, 84960, Note_on_c, 0, 44, 0
3, 84960, Note_on_c, 0, 39, 0
3, 84960, Note_on_c, 0, 32, 0
3, 84960, Note_on_c, 0, 35, 47
3, 84960, Note_on_c, 0, 39, 53
3, 84960, Note_on_c, 0, 47, 63
3, 85440, Note_on_c, 0, 47, 0
3, 85440, Note_on_c, 0, 39, 0
3, 85440, Note_on_c, 0, 35, 0
3, 85440, Note_on_c, 0, 27, 49
3, 85440, Note_on_c, 0, 34, 55
3, 85440, Note_on_c, 0, 39, 65
3, 85920, Note_on_c, 0, 39, 0
3, 85920, Note_on_c, 0, 34, 0
3, 85920, Note_on_c, 0, 27, 0
3, 85920, Note_on_c, 0, 31, 39
3, 85920, Note_on_c, 0, 39, 45
3, 85920, Note_on_c, 0, 43, 53
3, 86400, Note_on_c, 0, 43, 0
3, 86400, Note_on_c, 0, 39, 0
3, 86400, Note_on_c, 0, 31, 0
3, 86400, Note_on_c, 0, 32, 53
3, 86400, Note_on_c, 0, 35, 60
3, 86400, Note_on_c, 0, 44, 71
3, 86880, Note_on_c, 0, 44, 0
3, 86880, Note_on_c, 0, 35, 0
3, 86880, Note_on_c, 0, 32, 0
3, 86880, Note_on_c, 0, 35, 40
3, 86880, Note_on_c, 0, 39, 45
3, 86880, Note_on_c, 0, 47, 54
3, 87360, Note_on_c, 0, 47, 0
3, 87360, Note_on_c, 0, 39, 0
3, 87360, Note_on_c, 0, 35, 0
3, 87360, Note_on_c, 0, 33, 44
3, 87360, Note_on_c, 0, 37, 49
3, 87360, Note_on_c, 0, 45, 58
3, 87840, Note_on_c, 0, 45, 0
3, 87840, Note_on_c, 0, 37, 0
3, 87840, Note_on_c, 0, 33, 0
3, 87840, Note_on_c, 0, 37, 38
3, 87840, Note_on_c, 0, 40, 42
3, 87840, Note_on_c, 0, 49, 50
3, 88320, Note_on_c, 0, 49, 0
3, 88320, Note_on_c, 0, 40, 0
3, 88320, Note_on_c, 0, 37, 0
3, 88320, Note_on_c, 0, 32, 40
3, 88320, Note_on_c, 0, 39, 45
3, 88320, Note_on_c, 0, 44, 54
3, 88800, Note_on_c, 0, 44, 0
3, 88800, Note_on_c, 0, 39, 0
3, 88800, Note_on_c, 0, 32, 0
3, 88800, Note_on_c, 0, 35, 28
3, 88800, Note_on_c, 0, 39, 31
3, 88800, Note_on_c, 0, 47, 37
3, 89280, Note_on_c, 0, 47, 0
3, 89280, Note_on_c, 0, 39, 0
3, 89280, Note_on_c, 0, 35, 0
3, 89280, Note_on_c, 0, 32, 25
3, 89280, Note_on_c, 0, 39, 28
3, 89280, Note_on_c, 0, 44, 34
3, 89760, Note_on_c, 0, 44, 0
3, 89760, Note_on_c, 0, 39, 0
3, 89760, Note_on_c, 0, 32, 0
3, 89760, Note_on_c, 0, 35, 23
3, 89760, Note_on_c, 0, 39, 27
3, 89760, Note_on_c, 0, 47, 32
3, 90240, Note_on_c, 0, 47, 0
3, 90240, Note_on_c, 0, 39, 0
3, 90240, Note_on_c, 0, 35, 0
3, 90240, Note_on_c, 0, 32, 25
3, 90240, Note_on_c, 0, 39, 28
3, 90240, Note_on_c, 0, 44, 34
3, 90720, Note_on_c, 0, 44, 0
3, 90720, Note_on_c, 0, 39, 0
3, 90720, Note_on_c, 0, 32, 0
3, 90720, Note_on_c, 0, 35, 23
3, 90720, Note_on_c, 0, 39, 27
3, 90720, Note_on_c, 0, 47, 32
3, 91200, Note_on_c, 0, 47, 0
3, 91200, Note_on_c, 0, 39, 0
3, 91200, Note_on_c, 0, 35, 0
3, 91200, Note_on_c, 0, 32, 25
3, 91200, Note_on_c, 0, 39, 28
3, 91200, Note_on_c, 0, 44, 34
3, 91680, Note_on_c, 0, 44, 0
3, 91680, Note_on_c, 0, 39, 0
3, 91680, Note_on_c, 0, 32, 0
3, 91680, Note_on_c, 0, 35, 23
3, 91680, Note_on_c, 0, 39, 27
3, 91680, Note_on_c, 0, 47, 32
3, 92160, Note_on_c, 0, 47, 0
3, 92160, Note_on_c, 0, 39, 0
3, 92160, Note_on_c, 0, 35, 0
3, 92160, Note_on_c, 0, 32, 25
3, 92160, Note_on_c, 0, 39, 28
3, 92160, Note_on_c, 0, 44, 34
3, 92640, Note_on_c, 0, 44, 0
3, 92640, Note_on_c, 0, 39, 0
3, 92640, Note_on_c, 0, 32, 0
3, 92640, Note_on_c, 0, 35, 22
3, 92640, Note_on_c, 0, 39, 24
3, 92640, Note_on_c, 0, 47, 29
3, 93120, Note_on_c, 0, 47, 0
3, 93120, Note_on_c, 0, 39, 0
3, 93120, Note_on_c, 0, 35, 0
3, 93120, Note_on_c, 0, 32, 26
3, 93120, Note_on_c, 0, 39, 29
3, 93120, Note_on_c, 0, 44, 35
3, 93600, Note_on_c, 0, 44, 0
3, 93600, Note_on_c, 0, 39, 0
3, 93600, Note_on_c, 0, 32, 0
3, 93600, Note_on_c, 0, 35, 23
3, 93600, Note_on_c, 0, 39, 26
3, 93600, Note_on_c, 0, 47, 31
3, 94080, Note_on_c, 0, 47, 0
3, 94080, Note_on_c, 0, 39, 0
3, 94080, Note_on_c, 0, 35, 0
3, 94080, Note_on_c, 0, 32, 27
3, 94080, Note_on_c, 0, 39, 30
3, 94080, Note_on_c, 0, 44, 36
3, 94560, Note_on_c, 0, 44, 0
3, 94560, Note_on_c, 0, 39, 0
3, 94560, Note_on_c, 0, 32, 0
3, 94560, Note_on_c, 0, 35, 23
3, 94560, Note_on_c, 0, 39, 27
3, 94560, Note_on_c, 0, 47, 32
3, 95040, Note_on_c, 0, 47, 0
3, 95040, Note_on_c, 0, 39, 0
3, 95040, Note_on_c, 0, 35, 0
3, 95040, Note_on_c, 0, 32, 23
3, 95040, Note_on_c, 0, 39, 27
3, 95040, Note_on_c, 0, 44, 32
3, 95520, Note_on_c, 0, 44, 0
3, 95520, Note_on_c, 0, 39, 0
3, 95520, Note_on_c, 0, 32, 0
3, 95520, Note_on_c, 0, 35, 22
3, 95520, Note_on_c, 0, 39, 24
3, 95520, Note_on_c, 0, 47, 29
3, 96000, Note_on_c, 0, 47, 0
3, 96000, Note_on_c, 0, 39, 0
3, 96000, Note_on_c, 0, 35, 0
3, 96000, Note_on_c, 0, 37, 36
3, 96000, Note_on_c, 0, 33, 32
3, 96000, Note_on_c, 0, 45, 43
3, 96480, Note_on_c, 0, 45, 0
3, 96480, Note_on_c, 0, 33, 0
3, 96480, Note_on_c, 0, 37, 0
3, 96480, Note_on_c, 0, 37, 29
3, 96480, Note_on_c, 0, 40, 33
3, 96480, Note_on_c, 0, 49, 39
3, 96960, Note_on_c, 0, 49, 0
3, 96960, Note_on_c, 0, 40, 0
3, 96960, Note_on_c, 0, 37, 0
3, 96960, Note_on_c, 0, 28, 32
3, 96960, Note_on_c, 0, 32, 36
3, 96960, Note_on_c, 0, 40, 43
3, 97440, Note_on_c, 0, 40, 0
3, 97440, Note_on_c, 0, 32, 0
3, 97440, Note_on_c, 0, 28, 0
3, 97440, Note_on_c, 0, 32, 29
3, 97440, Note_on_c, 0, 35, 33
3, 97440, Note_on_c, 0, 44, 39
3, 97920, Note_on_c, 0, 44, 0
3, 97920, Note_on_c, 0, 35, 0
3, 97920, Note_on_c, 0, 32, 0
3, 97920, Note_on_c, 0, 37, 38
3, 97920, Note_on_c, 0, 33, 34
3, 97920, Note_on_c, 0, 45, 45
3, 98400, Note_on_c, 0, 45, 0
3, 98400, Note_on_c, 0, 33, 0
3, 98400, Note_on_c, 0, 37, 0
3, 98400, Note_on_c, 0, 37, 28
3, 98400, Note_on_c, 0, 40, 33
3, 98400, Note_on_c, 0, 49, 39
3, 98880, Note_on_c, 0, 49, 0
3, 98880, Note_on_c, 0, 40, 0
3, 98880, Note_on_c, 0, 37, 0
3, 98880, Note_on_c, 0, 28, 34
3, 98880, Note_on_c, 0, 32, 39
3, 98880, Note_on_c, 0, 40, 46
3, 99360, Note_on_c, 0, 40, 0
3, 99360, Note_on_c, 0, 32, 0
3, 99360, Note_on_c, 0, 28, 0
3, 99360, Note_on_c, 0, 32, 30
3, 99360, Note_on_c, 0, 35, 34
3, 99360, Note_on_c, 0, 44, 40
3, 99840, Note_on_c, 0, 44, 0
3, 99840, Note_on_c, 0, 35, 0
3, 99840, Note_on_c, 0, 32, 0
3, 99840, Note_on_c, 0, 37, 39
3, 99840, Note_on_c, 0, 33, 34
3, 99840, Note_on_c, 0, 45, 46
3, 100320, Note_on_c, 0, 45, 0
3, 100320, Note_on_c, 0, 33, 0
3, 100320, Note_on_c, 0, 37, 0
3, 100320, Note_on_c, 0, 37, 24
3, 100320, Note_on_c, 0, 40, 28
3, 100320, Note_on_c, 0, 49, 33
3, 100800, Note_on_c, 0, 49, 0
3, 100800, Note_on_c, 0, 40, 0
3, 100800, Note_on_c, 0, 37, 0
3, 100800, Note_on_c, 0, 28, 34
3, 100800, Note_on_c, 0, 32, 39
3, 100800, Note_on_c, 0, 40, 46
3, 101280, Note_on_c, 0, 40, 0
3, 101280, Note_on_c, 0, 32, 0
3, 101280, Note_on_c, 0, 28, 0
3, 101280, Note_on_c, 0, 32, 24
3, 101280, Note_on_c, 0, 35, 28
3, 101280, Note_on_c, 0, 44, 33
3, 101760, Note_on_c, 0, 44, 0
3, 101760, Note_on_c, 0, 35, 0
3, 101760, Note_on_c, 0, 32, 0
3, 101760, Note_on_c, 0, 42, 38
3, 101760, Note_on_c, 0, 35, 34
3, 101760, Note_on_c, 0, 47, 45
3, 102240, Note_on_c, 0, 47, 0
3, 102240, Note_on_c, 0, 35, 0
3, 102240, Note_on_c, 0, 42, 0
3, 102240, Note_on_c, 0, 39, 23
3, 102240, Note_on_c, 0, 42, 27
3, 102240, Note_on_c, 0, 51, 32
3, 102720, Note_on_c, 0, 51, 0
3, 102720, Note_on_c, 0, 42, 0
3, 102720, Note_on_c, 0, 39, 0
3, 102720, Note_on_c, 0, 39, 37
3, 102720, Note_on_c, 0, 43, 37
3, 102720, Note_on_c, 0, 51, 44
3, 103200, Note_on_c, 0, 51, 0
3, 103200, Note_on_c, 0, 43, 0
3, 103200, Note_on_c, 0, 43, 29
3, 103200, Note_on_c, 0, 51, 35
3, 103680, Note_on_c, 0, 51, 0
3, 103680, Note_on_c, 0, 43, 0
3, 103680, Note_on_c, 0, 39, 0
3, 103680, Note_on_c, 0, 32, 28
3, 103680, Note_on_c, 0, 39, 33
3, 103680, Note_on_c, 0, 44, 39
3, 104160, Note_on_c, 0, 44, 0
3, 104160, Note_on_c, 0, 39, 0
3, 104160, Note_on_c, 0, 39, 23
3, 104160, Note_on_c, 0, 44, 28
3, 104640, Note_on_c, 0, 44, 0
3, 104640, Note_on_c, 0, 39, 0
3, 104640, Note_on_c, 0, 32, 0
3, 104640, Note_on_c, 0, 33, 22
3, 104640, Note_on_c, 0, 37, 25
3, 104640, Note_on_c, 0, 45, 30
3, 105120, Note_on_c, 0, 45, 0
3, 105120, Note_on_c, 0, 37, 0
3, 105120, Note_on_c, 0, 37, 23
3, 105120, Note_on_c, 0, 45, 28
3, 105600, Note_on_c, 0, 45, 0
3, 105600, Note_on_c, 0, 37, 0
3, 105600, Note_on_c, 0, 33, 0
3, 105600, Note_on_c, 0, 50, 30
3, 105600, Note_on_c, 0, 42, 25
3, 105600, Note_on_c, 0, 38, 22
3, 106080, Note_on_c, 0, 42, 0
3, 106080, Note_on_c, 0, 50, 0
3, 106080, Note_on_c, 0, 50, 28
3, 106080, Note_on_c, 0, 42, 23
3, 106560, Note_on_c, 0, 42, 0
3, 106560, Note_on_c, 0, 50, 0
3, 106560, Note_on_c, 0, 38, 0
3, 106560, Note_on_c, 0, 49, 30
3, 106560, Note_on_c, 0, 40, 25
3, 106560, Note_on_c, 0, 37, 22
3, 107040, Note_on_c, 0, 40, 0
3, 107040, Note_on_c, 0, 49, 0
3, 107040, Note_on_c, 0, 40, 23
3, 107040, Note_on_c, 0, 49, 28
3, 107520, Note_on_c, 0, 49, 0
3, 107520, Note_on_c, 0, 40, 0
3, 107520, Note_on_c, 0, 37, 0
3, 107520, Note_on_c, 0, 32, 22
3, 107520, Note_on_c, 0, 39, 25
3, 107520, Note_on_c, 0, 44, 30
3, 108000, Note_on_c, 0, 44, 0
3, 108000, Note_on_c, 0, 39, 0
3, 108000, Note_on_c, 0, 32, 0
3, 108000, Note_on_c, 0, 35, 18
3, 108000, Note_on_c, 0, 39, 22
3, 108000, Note_on_c, 0, 47, 26
3, 108480, Note_on_c, 0, 47, 0
3, 108480, Note_on_c, 0, 39, 0
3, 108480, Note_on_c, 0, 35, 0
3, 108480, Note_on_c, 0, 32, 22
3, 108480, Note_on_c, 0, 39, 24
3, 108480, Note_on_c, 0, 44, 29
3, 108960, Note_on_c, 0, 44, 0
3, 108960, Note_on_c, 0, 39, 0
3, 108960, Note_on_c, 0, 32, 0
3, 108960, Note_on_c, 0, 35, 19
3, 108960, Note_on_c, 0, 39, 22
3, 108960, Note_on_c, 0, 47, 27
3, 109440, Note_on_c, 0, 47, 0
3, 109440, Note_on_c, 0, 39, 0
3, 109440, Note_on_c, 0, 35, 0
3, 109440, Note_on_c, 0, 32, 22
3, 109440, Note_on_c, 0, 39, 25
3, 109440, Note_on_c, 0, 44, 30
3, 109920, Note_on_c, 0, 44, 0
3, 109920, Note_on_c, 0, 39, 0
3, 109920, Note_on_c, 0, 32, 0
3, 109920, Note_on_c, 0, 35, 20
3, 109920, Note_on_c, 0, 39, 23
3, 109920, Note_on_c, 0, 47, 28
3, 110400, Note_on_c, 0, 47, 0
3, 110400, Note_on_c, 0, 39, 0
3, 110400, Note_on_c, 0, 35, 0
3, 110400, Note_on_c, 0, 32, 22
3, 110400, Note_on_c, 0, 39, 24
3, 110400, Note_on_c, 0, 44, 29
3, 110880, Note_on_c, 0, 44, 0
3, 110880, Note_on_c, 0, 39, 0
3, 110880, Note_on_c, 0, 32, 0
3, 110880, Note_on_c, 0, 35, 19
3, 110880, Note_on_c, 0, 39, 22
3, 110880, Note_on_c, 0, 47, 27
3, 111360, Note_on_c, 0, 47, 0
3, 111360, Note_on_c, 0, 39, 0
3, 111360, Note_on_c, 0, 35, 0
3, 111360, Note_on_c, 0, 39, 23
3, 111360, Note_on_c, 0, 44, 28
3, 111360, Note_on_c, 0, 32, 21
3, 111840, Note_on_c, 0, 44, 0
3, 111840, Note_on_c, 0, 39, 0
3, 111840, Note_on_c, 0, 39, 21
3, 111840, Note_on_c, 0, 44, 25
3, 112320, Note_on_c, 0, 44, 0
3, 112320, Note_on_c, 0, 39, 0
3, 112320, Note_on_c, 0, 32, 0
3, 112320, Note_on_c, 0, 33, 21
3, 112320, Note_on_c, 0, 37, 23
3, 112320, Note_on_c, 0, 45, 28
3, 112800, Note_on_c, 0, 45, 0
3, 112800, Note_on_c, 0, 37, 0
3, 112800, Note_on_c, 0, 37, 21
3, 112800, Note_on_c, 0, 45, 25
3, 113280, Note_on_c, 0, 45, 0
3, 113280, Note_on_c, 0, 37, 0
3, 113280, Note_on_c, 0, 33, 0
3, 113280, Note_on_c, 0, 40, 28
3, 113280, Note_on_c, 0, 32, 23
3, 113280, Note_on_c, 0, 28, 21
3, 113760, Note_on_c, 0, 32, 0
3, 113760, Note_on_c, 0, 40, 0
3, 113760, Note_on_c, 0, 40, 25
3, 113760, Note_on_c, 0, 32, 21
3, 114240, Note_on_c, 0, 32, 0
3, 114240, Note_on_c, 0, 40, 0
3, 114240, Note_on_c, 0, 28, 0
3, 114240, Note_on_c, 0, 42, 28
3, 114240, Note_on_c, 0, 33, 23
3, 114240, Note_on_c, 0, 30, 21
3, 114720, Note_on_c, 0, 33, 0
3, 114720, Note_on_c, 0, 42, 0
3, 114720, Note_on_c, 0, 42, 23
3, 114720, Note_on_c, 0, 33, 19
3, 115200, Note_on_c, 0, 33, 0
3, 115200, Note_on_c, 0, 42, 0
3, 115200, Note_on_c, 0, 30, 0
3, 115200, Note_on_c, 0, 32, 18
3, 115200, Note_on_c, 0, 39, 21
3, 115200, Note_on_c, 0, 44, 25
3, 115680, Note_on_c, 0, 44, 0
3, 115680, Note_on_c, 0, 39, 0
3, 115680, Note_on_c, 0, 32, 0
3, 115680, Note_on_c, 0, 35, 12
3, 115680, Note_on_c, 0, 39, 14
3, 115680, Note_on_c, 0, 47, 17
3, 116160, Note_on_c, 0, 47, 0
3, 116160, Note_on_c, 0, 39, 0
3, 116160, Note_on_c, 0, 35, 0
3, 116160, Note_on_c, 0, 32, 18
3, 116160, Note_on_c, 0, 39, 20
3, 116160, Note_on_c, 0, 44, 24
3, 116640, Note_on_c, 0, 44, 0
3, 116640, Note_on_c, 0, 39, 0
3, 116640, Note_on_c, 0, 32, 0
3, 116640, Note_on_c, 0, 35, 14
3, 116640, Note_on_c, 0, 39, 16
3, 116640, Note_on_c, 0, 47, 19
3, 117120, Note_on_c, 0, 47, 0
3, 117120, Note_on_c, 0, 39, 0
3, 117120, Note_on_c, 0, 35, 0
3, 117120, Note_on_c, 0, 35, 22
3, 117120, Note_on_c, 0, 32, 18
3, 117600, Note_on_c, 0, 32, 0
3, 117600, Note_on_c, 0, 35, 0
3, 117600, Note_on_c, 0, 39, 17
3, 117600, Note_on_c, 0, 35, 14
3, 118080, Note_on_c, 0, 35, 0
3, 118080, Note_on_c, 0, 39, 0
3, 118080, Note_on_c, 0, 35, 23
3, 118080, Note_on_c, 0, 32, 19
3, 118560, Note_on_c, 0, 32, 0
3, 118560, Note_on_c, 0, 35, 0
3, 118560, Note_on_c, 0, 39, 17
3, 118560, Note_on_c, 0, 35, 14
3, 119040, Note_on_c, 0, 35, 0
3, 119040, Note_on_c, 0, 39, 0
3, 119040, Note_on_c, 0, 32, 24
3, 120000, Note_on_c, 0, 32, 0
3, 120000, Note_on_c, 0, 35, 19
3, 120960, Note_on_c, 0, 35, 0
3, 120960, Note_on_c, 0, 32, 21
3, 121920, Note_on_c, 0, 32, 0
3, 121920, Note_on_c, 0, 35, 17
3, 122880, Note_on_c, 0, 35, 0
3, 122880, End_track
4, 0, Start_track
4, 0, Title_t, "Pedal"
4, 27, Control_c, 0, 64, 127
4, 965, Control_c, 0, 64, 0
4, 1227, Control_c, 0, 64, 127
4, 1922, Control_c, 0, 64, 0
4, 2061, Control_c, 0, 64, 127
4, 2412, Control_c, 0, 64, 0
4, 2584, Control_c, 0, 64, 127
4, 2892, Control_c, 0, 64, 0
4, 3078, Control_c, 0, 64, 127
4, 3374, Control_c, 0, 64, 0
4, 3544, Control_c, 0, 64, 127
4, 3843, Control_c, 0, 64, 0
4, 4053, Control_c, 0, 64, 127
4, 4330, Control_c, 0, 64, 0
4, 4560, Control_c, 0, 64, 127
4, 4813, Control_c, 0, 64, 0
4, 5040, Control_c, 0, 64, 127
4, 5288, Control_c, 0, 64, 0
4, 5467, Control_c, 0, 64, 127
4, 5763, Control_c, 0, 64, 0
4, 6000, Control_c, 0, 64, 127
4, 6733, Control_c, 0, 64, 0
4, 6880, Control_c, 0, 64, 127
4, 7817, Control_c, 0, 64, 127
4, 8645, Control_c, 0, 64, 0
4, 8869, Control_c, 0, 64, 127
4, 9605, Control_c, 0, 64, 0
4, 9829, Control_c, 0, 64, 127
4, 10575, Control_c, 0, 64, 0
4, 10766, Control_c, 0, 64, 127
4, 11520, Control_c, 0, 64, 0
4, 11749, Control_c, 0, 64, 127
4, 12495, Control_c, 0, 64, 0
4, 12777, Control_c, 0, 64, 127
4, 13443, Control_c, 0, 64, 0
4, 13669, Control_c, 0, 64, 127
4, 14413, Control_c, 0, 64, 0
4, 14652, Control_c, 0, 64, 127
4, 15373, Control_c, 0, 64, 0
4, 15657, Control_c, 0, 64, 127
4, 16333, Control_c, 0, 64, 0
4, 16549, Control_c, 0, 64, 127
4, 16806, Control_c, 0, 64, 0
4, 17006, Control_c, 0, 64, 127
4, 17292, Control_c, 0, 64, 0
4, 17627, Control_c, 0, 64, 127
4, 18250, Control_c, 0, 64, 0
4, 18587, Control_c, 0, 64, 127
4, 19692, Control_c, 0, 64, 0
4, 19892, Control_c, 0, 64, 127
4, 20174, Control_c, 0, 64, 0
4, 20344, Control_c, 0, 64, 127
4, 20652, Control_c, 0, 64, 0
4, 20796, Control_c, 0, 64, 127
4, 21125, Control_c, 0, 64, 0
4, 21333, Control_c, 0, 64, 127
4, 21610, Control_c, 0, 64, 0
4, 21840, Control_c, 0, 64, 127
4, 22093, Control_c, 0, 64, 0
4, 22320, Control_c, 0, 64, 127
4, 22573, Control_c, 0, 64, 0
4, 22827, Control_c, 0, 64, 127
4, 23044, Control_c, 0, 64, 0
4, 23280, Control_c, 0, 64, 127
4, 24007, Control_c, 0, 64, 0
4, 24160, Control_c, 0, 64, 127
4, 24972, Control_c, 0, 64, 0
4, 25257, Control_c, 0, 64, 127
4, 25928, Control_c, 0, 64, 0
4, 26149, Control_c, 0, 64, 127
4, 26880, Control_c, 0, 64, 0
4, 27109, Control_c, 0, 64, 127
4, 27850, Control_c, 0, 64, 0
4, 28046, Control_c, 0, 64, 127
4, 28335, Control_c, 0, 64, 0
4, 28572, Control_c, 0, 64, 127
4, 28803, Control_c, 0, 64, 0
4, 28983, Control_c, 0, 64, 127
4, 31693, Control_c, 0, 64, 0
4, 31886, Control_c, 0, 64, 127
4, 32646, Control_c, 0, 64, 0
4, 32915, Control_c, 0, 64, 127
4, 33605, Control_c, 0, 64, 0
4, 33806, Control_c, 0, 64, 127
4, 34568, Control_c, 0, 64, 0
4, 34903, Control_c, 0, 64, 127
4, 35533, Control_c, 0, 64, 0
4, 35749, Control_c, 0, 64, 127
4, 36480, Control_c, 0, 64, 0
4, 36774, Control_c, 0, 64, 127
4, 38400, Control_c, 0, 64, 0
4, 38629, Control_c, 0, 64, 127
4, 39372, Control_c, 0, 64, 0
4, 39635, Control_c, 0, 64, 127
4, 40320, Control_c, 0, 64, 0
4, 40572, Control_c, 0, 64, 127
4, 41289, Control_c, 0, 64, 0
4, 41532, Control_c, 0, 64, 127
4, 42240, Control_c, 0, 64, 0
4, 42469, Control_c, 0, 64, 127
4, 43212, Control_c, 0, 64, 0
4, 43452, Control_c, 0, 64, 127
4, 44160, Control_c, 0, 64, 0
4, 44389, Control_c, 0, 64, 127
4, 45130, Control_c, 0, 64, 0
4, 45326, Control_c, 0, 64, 127
4, 46080, Control_c, 0, 64, 0
4, 46377, Control_c, 0, 64, 127
4, 47052, Control_c, 0, 64, 0
4, 47360, Control_c, 0, 64, 127
4, 48000, Control_c, 0, 64, 0
4, 48320, Control_c, 0, 64, 127
4, 48971, Control_c, 0, 64, 0
4, 49166, Control_c, 0, 64, 127
4, 49920, Control_c, 0, 64, 0
4, 50172, Control_c, 0, 64, 127
4, 50888, Control_c, 0, 64, 0
4, 51177, Control_c, 0, 64, 127
4, 51840, Control_c, 0, 64, 0
4, 52115, Control_c, 0, 64, 127
4, 52813, Control_c, 0, 64, 0
4, 53120, Control_c, 0, 64, 127
4, 53767, Control_c, 0, 64, 0
4, 54035, Control_c, 0, 64, 127
4, 54727, Control_c, 0, 64, 0
4, 54995, Control_c, 0, 64, 127
4, 55680, Control_c, 0, 64, 0
4, 55955, Control_c, 0, 64, 127
4, 56647, Control_c, 0, 64, 0
4, 56869, Control_c, 0, 64, 127
4, 57600, Control_c, 0, 64, 0
4, 57943, Control_c, 0, 64, 127
4, 58573, Control_c, 0, 64, 0
4, 58857, Control_c, 0, 64, 127
4, 59520, Control_c, 0, 64, 0
4, 59867, Control_c, 0, 64, 127
4, 60490, Control_c, 0, 64, 0
4, 60827, Control_c, 0, 64, 127
4, 61440, Control_c, 0, 64, 0
4, 61734, Control_c, 0, 64, 127
4, 62413, Control_c, 0, 64, 0
4, 62720, Control_c, 0, 64, 127
4, 63360, Control_c, 0, 64, 0
4, 63586, Control_c, 0, 64, 127
4, 64336, Control_c, 0, 64, 0
4, 64532, Control_c, 0, 64, 127
4, 65280, Control_c, 0, 64, 0
4, 65440, Control_c, 0, 64, 127
4, 67200, Control_c, 0, 64, 0
4, 67334, Control_c, 0, 64, 127
4, 68168, Control_c, 0, 64, 0
4, 68507, Control_c, 0, 64, 127
4, 69120, Control_c, 0, 64, 0
4, 69234, Control_c, 0, 64, 127
4, 70093, Control_c, 0, 64, 0
4, 70309, Control_c, 0, 64, 127
4, 71040, Control_c, 0, 64, 0
4, 71254, Control_c, 0, 64, 127
4, 72009, Control_c, 0, 64, 0
4, 72320, Control_c, 0, 64, 127
4, 73452, Control_c, 0, 64, 0
4, 73638, Control_c, 0, 64, 127
4, 73934, Control_c, 0, 64, 0
4, 74047, Control_c, 0, 64, 127
4, 74412, Control_c, 0, 64, 0
4, 74598, Control_c, 0, 64, 127
4, 74880, Control_c, 0, 64, 0
4, 75093, Control_c, 0, 64, 127
4, 75372, Control_c, 0, 64, 0
4, 75600, Control_c, 0, 64, 127
4, 75853, Control_c, 0, 64, 0
4, 76080, Control_c, 0, 64, 127
4, 76333, Control_c, 0, 64, 0
4, 76587, Control_c, 0, 64, 127
4, 76800, Control_c, 0, 64, 0
4, 77040, Control_c, 0, 64, 127
4, 77768, Control_c, 0, 64, 0
4, 78000, Control_c, 0, 64, 127
4, 78720, Control_c, 0, 64, 0
4, 78972, Control_c, 0, 64, 127
4, 79692, Control_c, 0, 64, 0
4, 79932, Control_c, 0, 64, 127
4, 80640, Control_c, 0, 64, 0
4, 80983, Control_c, 0, 64, 127
4, 81615, Control_c, 0, 64, 0
4, 81875, Control_c, 0, 64, 127
4, 82560, Control_c, 0, 64, 0
4, 82835, Control_c, 0, 64, 127
4, 83532, Control_c, 0, 64, 0
4, 83817, Control_c, 0, 64, 127
4, 84487, Control_c, 0, 64, 0
4, 84732, Control_c, 0, 64, 127
4, 85452, Control_c, 0, 64, 0
4, 85692, Control_c, 0, 64, 127
4, 86400, Control_c, 0, 64, 0
4, 86606, Control_c, 0, 64, 127
4, 87373, Control_c, 0, 64, 0
4, 87566, Control_c, 0, 64, 127
4, 87853, Control_c, 0, 64, 0
4, 88069, Control_c, 0, 64, 127
4, 88320, Control_c, 0, 64, 0
4, 88533, Control_c, 0, 64, 127
4, 89295, Control_c, 0, 64, 0
4, 89627, Control_c, 0, 64, 127
4, 90732, Control_c, 0, 64, 0
4, 90861, Control_c, 0, 64, 127
4, 91214, Control_c, 0, 64, 0
4, 91398, Control_c, 0, 64, 127
4, 91694, Control_c, 0, 64, 0
4, 91878, Control_c, 0, 64, 127
4, 92163, Control_c, 0, 64, 0
4, 92373, Control_c, 0, 64, 127
4, 92650, Control_c, 0, 64, 0
4, 92880, Control_c, 0, 64, 127
4, 93133, Control_c, 0, 64, 0
4, 93440, Control_c, 0, 64, 127
4, 93612, Control_c, 0, 64, 0
4, 93867, Control_c, 0, 64, 127
4, 94083, Control_c, 0, 64, 0
4, 94320, Control_c, 0, 64, 127
4, 95052, Control_c, 0, 64, 0
4, 95200, Control_c, 0, 64, 127
4, 96000, Control_c, 0, 64, 0
4, 96229, Control_c, 0, 64, 127
4, 96975, Control_c, 0, 64, 0
4, 97212, Control_c, 0, 64, 127
4, 97920, Control_c, 0, 64, 0
4, 98149, Control_c, 0, 64, 127
4, 98893, Control_c, 0, 64, 0
4, 99155, Control_c, 0, 64, 127
4, 99840, Control_c, 0, 64, 0
4, 100000, Control_c, 0, 64, 127
4, 100813, Control_c, 0, 64, 0
4, 101075, Control_c, 0, 64, 127
4, 101760, Control_c, 0, 64, 0
4, 102035, Control_c, 0, 64, 127
4, 102733, Control_c, 0, 64, 0
4, 103017, Control_c, 0, 64, 127
4, 103686, Control_c, 0, 64, 0
4, 103909, Control_c, 0, 64, 127
4, 104656, Control_c, 0, 64, 0
4, 104983, Control_c, 0, 64, 127
4, 105600, Control_c, 0, 64, 0
4, 105875, Control_c, 0, 64, 127
4, 106573, Control_c, 0, 64, 0
4, 106720, Control_c, 0, 64, 127
4, 107530, Control_c, 0, 64, 0
4, 107787, Control_c, 0, 64, 127
4, 109934, Control_c, 0, 64, 0
4, 110132, Control_c, 0, 64, 127
4, 110412, Control_c, 0, 64, 0
4, 110598, Control_c, 0, 64, 127
4, 110892, Control_c, 0, 64, 0
4, 111163, Control_c, 0, 64, 127
4, 111360, Control_c, 0, 64, 0
4, 111612, Control_c, 0, 64, 127
4, 112330, Control_c, 0, 64, 0
4, 112503, Control_c, 0, 64, 127
4, 113287, Control_c, 0, 64, 0
4, 113532, Control_c, 0, 64, 127
4, 114247, Control_c, 0, 64, 0
4, 114515, Control_c, 0, 64, 127
4, 115205, Control_c, 0, 64, 0
4, 115440, Control_c, 0, 64, 127
4, 117120, Control_c, 0, 64, 0
4, 117227, Control_c, 0, 64, 127
4, 119046, Control_c, 0, 64, 0
4, 119360, Control_c, 0, 64, 127
4, 120020, Control_c, 0, 64, 0
4, 120454, Control_c, 0, 64, 127
4, 120980, Control_c, 0, 64, 0
4, 121440, Control_c, 0, 64, 127
4, 121940, Control_c, 0, 64, 0
4, 122347, Control_c, 0, 64, 127
4, 124107, Control_c, 0, 64, 0
4, 124107, End_track
5, 0, Start_track
5, 0, Title_t, "Modest Mussorgski: Bilder einer Ausstellung (4)"
5, 0, End_track
6, 0, Start_track
6, 0, Title_t, "Copyright © 2000 by Bernd Krüger"
6, 0, End_track
7, 0, Start_track
7, 0, Title_t, "http://www.piano-midi.de"
7, 0, End_track
8, 0, Start_track
8, 0, Title_t, "Edition: 2013-11-19"
8, 0, End_track
9, 0, Start_track
9, 0, Title_t, "Spur 8"
9, 0, End_track
0, 0, End_of_file
