0, 0, Header, 1, 9, 480
1, 0, Start_track
1, 0, Title_t, "Bilder einer Ausstellung"
1, 0, Title_t, "Promenade - Il vecchio Castello (2)"
1, 0, Copyright_t, "Copyright © 2000 by Bernd Krueger"
1, 0, Text_t, "Modest Mussorgski"
1, 0, Text_t, "Fertiggestellt am 9.1.2000\012"
1, 0, Text_t, "Update am 18.11.2000\012"
1, 0, Text_t, "Normierung: 23.12.2002\012"
1, 0, Text_t, "Update am 19,8,2008\012"
1, 0, Text_t, "Update am 12.11.13\012"
1, 0, Text_t, "Dauer: 4:57 Minuten\012"
1, 0, SMPTE_offset, 96, 0, 3, 0, 0
1, 0, Time_signature, 5, 2, 24, 8
1, 0, Key_signature, 0, "major"
1, 0, Tempo, 657823
1, 0, Marker_t, "Promenade"
1, 960, Tempo, 644953
1, 1440, Tempo, 622148
1, 1680, Tempo, 649070
1, 1920, Tempo, 642123
1, 2400, Time_signature, 6, 2, 24, 8
1, 2400, Tempo, 622148
1, 2640, Tempo, 674612
1, 2880, Tempo, 649562
1, 3360, Tempo, 642674
1, 3840, Tempo, 649562
1, 4800, Tempo, 668822
1, 5280, Time_signature, 5, 2, 24, 8
1, 5280, Tempo, 657823
1, 6240, Tempo, 649562
1, 6720, Tempo, 631978
1, 6960, Tempo, 659776
1, 7200, Tempo, 632711
1, 7680, Time_signature, 6, 2, 24, 8
1, 7680, Tempo, 642674
1, 8160, Tempo, 651395
1, 8640, Tempo, 654736
1, 9120, Tempo, 665262
1, 9600, Tempo, 674233
1, 10080, Tempo, 692441
1, 10560, Time_signature, 5, 2, 24, 8
1, 10560, Tempo, 639318
1, 11520, Tempo, 644953
1, 12000, Tempo, 615764
1, 12240, Tempo, 659776
1, 12480, Tempo, 644953
1, 12960, Time_signature, 6, 2, 24, 8
1, 12960, Tempo, 635997
1, 13440, Tempo, 646064
1, 13920, Tempo, 642674
1, 14400, Tempo, 649562
1, 15360, Tempo, 667111
1, 15840, Time_signature, 5, 2, 24, 8
1, 15840, Tempo, 659776
1, 16800, Tempo, 644953
1, 17280, Tempo, 638706
1, 17520, Tempo, 656168
1, 17760, Tempo, 646064
1, 18240, Time_signature, 6, 2, 24, 8
1, 18240, Tempo, 635324
1, 18480, Tempo, 678426
1, 18720, Tempo, 670841
1, 19200, Tempo, 682051
1, 19680, Tempo, 670466
1, 20160, Tempo, 682051
1, 20640, Tempo, 750563
1, 21120, Time_signature, 5, 2, 24, 8
1, 21120, Tempo, 688547
1, 21600, Tempo, 670616
1, 22080, Tempo, 652174
1, 22560, Tempo, 670466
1, 23040, Tempo, 655738
1, 23520, Time_signature, 6, 2, 24, 8
1, 23520, Tempo, 642123
1, 23760, Tempo, 690131
1, 24000, Tempo, 659341
1, 24480, Tempo, 648649
1, 24960, Tempo, 660357
1, 25440, Tempo, 670616
1, 25920, Tempo, 723415
1, 26400, Time_signature, 5, 2, 24, 8
1, 26400, Tempo, 682206
1, 27360, Tempo, 660066
1, 27840, Tempo, 652955
1, 28320, Tempo, 660066
1, 28800, Time_signature, 6, 2, 24, 8
1, 28800, Tempo, 663717
1, 29280, Tempo, 714796
1, 29760, Tempo, 732154
1, 30240, Tempo, 740010
1, 30480, Tempo, 840218
1, 30720, Tempo, 916870
1, 31440, Tempo, 6134969
1, 31680, Time_signature, 6, 3, 12, 8
1, 31680, Key_signature, 5, "major"
1, 31680, Tempo, 701098
1, 31680, Marker_t, "Il vecchio Castello"
1, 33120, Tempo, 766871
1, 33600, Tempo, 757384
1, 33840, Tempo, 766871
1, 34320, Tempo, 757384
1, 34560, Tempo, 766871
1, 34800, Tempo, 748130
1, 34920, Tempo, 730282
1, 35040, Tempo, 800641
1, 35280, Tempo, 734664
1, 35520, Tempo, 748130
1, 35760, Tempo, 766871
1, 36000, Tempo, 752729
1, 36240, Tempo, 734664
1, 36360, Tempo, 713267
1, 36480, Tempo, 766871
1, 36720, Tempo, 743494
1, 36960, Tempo, 757384
1, 37200, Tempo, 762098
1, 37220, Tempo, 766871
1, 37920, Tempo, 752729
1, 38160, Tempo, 734664
1, 38400, Tempo, 752729
1, 38640, Tempo, 786473
1, 38880, Tempo, 766871
1, 38900, Tempo, 752729
1, 39120, Tempo, 743494
1, 39240, Tempo, 717532
1, 39360, Tempo, 766871
1, 39600, Tempo, 739098
1, 39840, Tempo, 752729
1, 40080, Tempo, 766871
1, 41520, Tempo, 829073
1, 41760, Tempo, 766871
1, 42240, Tempo, 757384
1, 42480, Tempo, 766871
1, 42960, Tempo, 748130
1, 43200, Tempo, 717618
1, 43440, Tempo, 723415
1, 43680, Tempo, 809607
1, 43920, Tempo, 741290
1, 44160, Tempo, 766871
1, 45840, Tempo, 748130
1, 46080, Tempo, 766871
1, 46320, Tempo, 743494
1, 46440, Tempo, 725953
1, 46560, Tempo, 752729
1, 46680, Tempo, 734664
1, 46800, Tempo, 717532
1, 47040, Tempo, 757384
1, 47760, Tempo, 766871
1, 48000, Tempo, 752729
1, 48240, Tempo, 766871
1, 48720, Tempo, 752729
1, 48960, Tempo, 766871
1, 49320, Tempo, 743494
1, 49440, Tempo, 757384
1, 49680, Tempo, 739098
1, 49920, Tempo, 748130
1, 50160, Tempo, 766871
1, 50400, Tempo, 752729
1, 50640, Tempo, 743494
1, 50760, Tempo, 717532
1, 50880, Tempo, 766871
1, 51120, Tempo, 743494
1, 51600, Tempo, 762098
1, 51840, Tempo, 752729
1, 52080, Tempo, 734664
1, 52200, Tempo, 717532
1, 52320, Tempo, 766871
1, 52560, Tempo, 739098
1, 52800, Tempo, 757384
1, 53040, Tempo, 801925
1, 53280, Tempo, 766871
1, 53760, Tempo, 752729
1, 54000, Tempo, 734664
1, 54240, Tempo, 743494
1, 54480, Tempo, 776498
1, 54720, Tempo, 757384
1, 54960, Tempo, 739098
1, 55080, Tempo, 721674
1, 55200, Tempo, 766871
1, 55440, Tempo, 730282
1, 55680, Tempo, 752729
1, 55920, Tempo, 766871
1, 57360, Tempo, 870322
1, 57600, Tempo, 766871
1, 58080, Tempo, 757384
1, 58320, Tempo, 766871
1, 58800, Tempo, 748130
1, 59040, Tempo, 713352
1, 59280, Tempo, 719080
1, 59520, Tempo, 793546
1, 59760, Tempo, 745898
1, 60000, Tempo, 766871
1, 61680, Tempo, 752729
1, 61920, Tempo, 734664
1, 62160, Tempo, 748130
1, 62400, Tempo, 734664
1, 62640, Tempo, 739098
1, 63360, Tempo, 766871
1, 63840, Tempo, 752729
1, 64080, Tempo, 734664
1, 64320, Tempo, 748130
1, 64560, Tempo, 734664
1, 64800, Tempo, 762098
1, 65280, Tempo, 781454
1, 65520, Tempo, 766871
1, 65760, Tempo, 748130
1, 66000, Tempo, 748130
1, 66240, Tempo, 766871
1, 66720, Tempo, 752729
1, 66960, Tempo, 748130
1, 67440, Tempo, 786473
1, 67680, Tempo, 766871
1, 67800, Tempo, 748130
1, 67920, Tempo, 748130
1, 68040, Tempo, 725953
1, 68160, Tempo, 757384
1, 68400, Tempo, 743494
1, 68880, Tempo, 757384
1, 69120, Tempo, 786473
1, 69600, Tempo, 766871
1, 69840, Tempo, 781454
1, 70320, Tempo, 766479
1, 70560, Tempo, 780437
1, 71040, Tempo, 771605
1, 71280, Tempo, 781454
1, 71760, Tempo, 800641
1, 72000, Tempo, 752729
1, 72480, Tempo, 731618
1, 72720, Tempo, 711406
1, 72960, Tempo, 723415
1, 73200, Tempo, 743494
1, 73440, Tempo, 748596
1, 73940, Tempo, 731618
1, 74160, Tempo, 719338
1, 74400, Tempo, 731618
1, 74640, Tempo, 771605
1, 74880, Tempo, 752729
1, 75600, Tempo, 757384
1, 76320, Tempo, 752729
1, 77040, Tempo, 731618
1, 77280, Tempo, 715393
1, 77520, Tempo, 762098
1, 77760, Tempo, 734664
1, 80400, Tempo, 786473
1, 80640, Tempo, 752729
1, 81360, Tempo, 734664
1, 81840, Tempo, 757384
1, 82200, Tempo, 730282
1, 82320, Tempo, 721674
1, 82560, Tempo, 774793
1, 82800, Tempo, 706381
1, 83040, Tempo, 714796
1, 83280, Tempo, 774793
1, 83520, Tempo, 745898
1, 84960, Tempo, 735835
1, 85440, Tempo, 731618
1, 85680, Tempo, 703647
1, 85920, Tempo, 711406
1, 86160, Tempo, 743494
1, 86400, Tempo, 735835
1, 86880, Tempo, 727449
1, 87120, Tempo, 707464
1, 87360, Tempo, 727449
1, 87600, Tempo, 771605
1, 87840, Tempo, 752729
1, 88560, Tempo, 757384
1, 89280, Tempo, 752729
1, 90000, Tempo, 735835
1, 90240, Tempo, 719338
1, 90480, Tempo, 762098
1, 90720, Tempo, 734664
1, 92160, Tempo, 711406
1, 92400, Tempo, 734664
1, 92660, Tempo, 739098
1, 92880, Tempo, 725953
1, 93120, Tempo, 734664
1, 93360, Tempo, 786473
1, 93600, Tempo, 752729
1, 94320, Tempo, 734664
1, 94800, Tempo, 757384
1, 95160, Tempo, 730282
1, 95280, Tempo, 711406
1, 95520, Tempo, 752729
1, 95760, Tempo, 711406
1, 96000, Tempo, 730282
1, 96240, Tempo, 748130
1, 96480, Tempo, 752729
1, 96720, Tempo, 743494
1, 96840, Tempo, 717532
1, 96960, Tempo, 806018
1, 97200, Tempo, 723415
1, 97440, Tempo, 736739
1, 97680, Tempo, 762098
1, 97920, Tempo, 752729
1, 98160, Tempo, 734664
1, 98280, Tempo, 717532
1, 98400, Tempo, 764916
1, 98640, Tempo, 723415
1, 98880, Tempo, 757384
1, 99120, Tempo, 801925
1, 99360, Tempo, 766871
1, 99840, Tempo, 752729
1, 100080, Tempo, 734664
1, 100320, Tempo, 743494
1, 100560, Tempo, 776498
1, 100800, Tempo, 757384
1, 101040, Tempo, 739098
1, 101160, Tempo, 721674
1, 101280, Tempo, 766871
1, 101520, Tempo, 730282
1, 101760, Tempo, 752729
1, 102000, Tempo, 766871
1, 103440, Tempo, 829073
1, 103680, Tempo, 766871
1, 104160, Tempo, 757384
1, 104400, Tempo, 766871
1, 104880, Tempo, 748130
1, 105120, Tempo, 704970
1, 105360, Tempo, 719080
1, 105600, Tempo, 788333
1, 105840, Tempo, 744325
1, 106080, Tempo, 784929
1, 106320, Tempo, 764916
1, 106560, Tempo, 766871
1, 106800, Tempo, 752729
1, 107040, Tempo, 735835
1, 107280, Tempo, 766871
1, 107760, Tempo, 748130
1, 109200, Tempo, 766871
1, 109440, Tempo, 752729
1, 110160, Tempo, 731618
1, 110400, Tempo, 702247
1, 110640, Tempo, 732243
1, 110880, Tempo, 723415
1, 111360, Tempo, 739098
1, 112320, Tempo, 752729
1, 113040, Tempo, 735835
1, 113280, Tempo, 702247
1, 113520, Tempo, 725953
1, 113760, Tempo, 739098
1, 114240, Tempo, 739098
1, 114960, Tempo, 764916
1, 115200, Tempo, 736739
1, 115680, Tempo, 715393
1, 115920, Tempo, 731618
1, 116400, Tempo, 723415
1, 116640, Tempo, 731618
1, 117120, Tempo, 723415
1, 117360, Tempo, 735835
1, 118100, Tempo, 740010
1, 118800, Tempo, 715393
1, 119040, Tempo, 723415
1, 119280, Tempo, 735835
1, 119520, Tempo, 739098
1, 120240, Tempo, 715393
1, 120720, Tempo, 731618
1, 120960, Tempo, 739098
1, 123120, Tempo, 734664
1, 125040, Tempo, 786473
1, 125280, Tempo, 752729
1, 126000, Tempo, 734664
1, 126480, Tempo, 757384
1, 126840, Tempo, 730282
1, 126960, Tempo, 721674
1, 127200, Tempo, 764916
1, 127440, Tempo, 706381
1, 127680, Tempo, 730282
1, 127920, Tempo, 748130
1, 130800, Tempo, 817996
1, 131040, Tempo, 766871
1, 131520, Tempo, 757384
1, 131760, Tempo, 766871
1, 132240, Tempo, 748130
1, 132480, Tempo, 704970
1, 132720, Tempo, 719080
1, 132960, Tempo, 804182
1, 133200, Tempo, 744325
1, 133440, Tempo, 766871
1, 133680, Tempo, 748596
1, 133920, Tempo, 766871
1, 134160, Tempo, 735835
1, 134340, Tempo, 748596
1, 134400, Tempo, 748130
1, 134640, Tempo, 766871
1, 135120, Tempo, 748130
1, 136560, Tempo, 766871
1, 136800, Tempo, 752729
1, 137520, Tempo, 727449
1, 137760, Tempo, 713267
1, 138000, Tempo, 725953
1, 138240, Tempo, 696056
1, 138480, Tempo, 703647
1, 138600, Tempo, 725953
1, 138720, Tempo, 739098
1, 139680, Tempo, 752729
1, 140400, Tempo, 719338
1, 140640, Tempo, 713267
1, 140880, Tempo, 725953
1, 141120, Tempo, 699790
1, 141360, Tempo, 711406
1, 141480, Tempo, 730282
1, 141600, Tempo, 739098
1, 143040, Tempo, 719338
1, 143280, Tempo, 735835
1, 143780, Tempo, 719338
1, 144000, Tempo, 740010
1, 144500, Tempo, 723415
1, 144720, Tempo, 740010
1, 145920, Tempo, 727449
1, 146160, Tempo, 694123
1, 146400, Tempo, 721674
1, 146640, Tempo, 734664
1, 146880, Tempo, 739098
1, 147360, Tempo, 723415
1, 147600, Tempo, 694123
1, 147840, Tempo, 721674
1, 148080, Tempo, 764916
1, 148320, Tempo, 741290
1, 150240, Tempo, 795334
1, 150480, Tempo, 734664
1, 151680, Tempo, 745898
1, 151920, Tempo, 702247
1, 152160, Tempo, 730282
1, 152400, Tempo, 743494
1, 152640, Tempo, 752729
1, 153360, Tempo, 706381
1, 153600, Tempo, 734664
1, 153840, Tempo, 757384
1, 154200, Tempo, 730282
1, 154320, Tempo, 721674
1, 154560, Tempo, 752729
1, 154800, Tempo, 721674
1, 155040, Tempo, 730282
1, 155280, Tempo, 895522
1, 155520, Tempo, 766871
1, 156240, Tempo, 781454
1, 156720, Tempo, 817996
1, 156960, Tempo, 752729
1, 157680, Tempo, 725953
1, 158160, Tempo, 743494
1, 158400, Tempo, 757384
1, 158880, Tempo, 727449
1, 159120, Tempo, 715393
1, 159360, Tempo, 731618
1, 159600, Tempo, 834608
1, 159840, Tempo, 766871
1, 160560, Tempo, 781454
1, 161040, Tempo, 817996
1, 161280, Tempo, 757384
1, 162000, Tempo, 743494
1, 163440, Tempo, 762098
1, 163920, Tempo, 812458
1, 164160, Tempo, 766871
1, 164880, Tempo, 781454
1, 165360, Tempo, 851789
1, 165600, Tempo, 776498
1, 166080, Tempo, 795334
1, 166320, Tempo, 732243
1, 166560, Tempo, 786473
1, 166800, Tempo, 801925
1, 167040, Tempo, 776498
1, 167520, Tempo, 796601
1, 167760, Tempo, 781454
1, 168240, Tempo, 841633
1, 168480, Tempo, 786473
1, 168960, Tempo, 771605
1, 169200, Tempo, 791557
1, 169680, Tempo, 766871
1, 169920, Tempo, 717618
1, 170160, Tempo, 736739
1, 170400, Tempo, 820681
1, 170640, Tempo, 763262
1, 170880, Tempo, 791557
1, 172080, Tempo, 776498
1, 172560, Tempo, 796601
1, 172800, Tempo, 786473
1, 173040, Tempo, 776498
1, 173160, Tempo, 801925
1, 173280, Tempo, 781454
1, 173400, Tempo, 771605
1, 173520, Tempo, 766871
1, 173760, Tempo, 776498
1, 174000, Tempo, 812458
1, 174720, Tempo, 789993
1, 174960, Tempo, 809826
1, 175440, Tempo, 799787
1, 175680, Tempo, 809826
1, 176160, Tempo, 780437
1, 176400, Tempo, 799787
1, 176900, Tempo, 789993
1, 177120, Tempo, 809826
1, 177600, Tempo, 799787
1, 177840, Tempo, 809826
1, 178320, Tempo, 789993
1, 179060, Tempo, 785135
1, 179280, Tempo, 794807
1, 180000, Tempo, 809826
1, 180480, Tempo, 799787
1, 180720, Tempo, 809826
1, 181200, Tempo, 799787
1, 181440, Tempo, 809826
1, 182160, Tempo, 809826
1, 182640, Tempo, 1681143
1, 182760, Tempo, 1463415
1, 182820, Tempo, 1589825
1, 185760, Tempo, 2111189
1, 185760, End_track
2, 0, Start_track
2, 0, Title_t, "Piano right"
2, 0, Program_c, 0, 0
2, 0, Control_c, 0, 7, 127
2, 0, Control_c, 0, 10, 64
2, 0, Control_c, 0, 91, 127
2, 0, Text_t, "bdca426d104a26ac9dcb070447587523"
2, 1, Control_c, 0, 91, 127
2, 5280, Note_on_c, 0, 68, 40
2, 5280, Note_on_c, 0, 65, 34
2, 5280, Note_on_c, 0, 61, 34
2, 5760, Note_on_c, 0, 61, 0
2, 5760, Note_on_c, 0, 65, 0
2, 5760, Note_on_c, 0, 68, 0
2, 5760, Note_on_c, 0, 70, 36
2, 5760, Note_on_c, 0, 67, 30
2, 5760, Note_on_c, 0, 58, 30
2, 6240, Note_on_c, 0, 58, 0
2, 6240, Note_on_c, 0, 67, 0
2, 6240, Note_on_c, 0, 70, 0
2, 6240, Note_on_c, 0, 63, 35
2, 6240, Note_on_c, 0, 72, 42
2, 6240, Note_on_c, 0, 68, 35
2, 6720, Note_on_c, 0, 68, 0
2, 6720, Note_on_c, 0, 72, 0
2, 6720, Note_on_c, 0, 63, 0
2, 6720, Note_on_c, 0, 75, 47
2, 6720, Note_on_c, 0, 70, 39
2, 6720, Note_on_c, 0, 67, 39
2, 7200, Note_on_c, 0, 67, 0
2, 7200, Note_on_c, 0, 70, 0
2, 7200, Note_on_c, 0, 75, 0
2, 7200, Note_on_c, 0, 80, 46
2, 7200, Note_on_c, 0, 75, 39
2, 7200, Note_on_c, 0, 72, 39
2, 7680, Note_on_c, 0, 72, 0
2, 7680, Note_on_c, 0, 75, 0
2, 7680, Note_on_c, 0, 80, 0
2, 7680, Note_on_c, 0, 70, 39
2, 7680, Note_on_c, 0, 79, 47
2, 7680, Note_on_c, 0, 75, 39
2, 8160, Note_on_c, 0, 75, 0
2, 8160, Note_on_c, 0, 79, 0
2, 8160, Note_on_c, 0, 70, 0
2, 8160, Note_on_c, 0, 75, 45
2, 8160, Note_on_c, 0, 72, 38
2, 8160, Note_on_c, 0, 67, 38
2, 8640, Note_on_c, 0, 67, 0
2, 8640, Note_on_c, 0, 72, 0
2, 8640, Note_on_c, 0, 75, 0
2, 8640, Note_on_c, 0, 77, 39
2, 8640, Note_on_c, 0, 72, 33
2, 8640, Note_on_c, 0, 68, 33
2, 9120, Note_on_c, 0, 68, 0
2, 9120, Note_on_c, 0, 72, 0
2, 9120, Note_on_c, 0, 77, 0
2, 9120, Note_on_c, 0, 73, 32
2, 9120, Note_on_c, 0, 82, 38
2, 9120, Note_on_c, 0, 77, 32
2, 9600, Note_on_c, 0, 77, 0
2, 9600, Note_on_c, 0, 82, 0
2, 9600, Note_on_c, 0, 73, 0
2, 9600, Note_on_c, 0, 84, 33
2, 9600, Note_on_c, 0, 80, 28
2, 9600, Note_on_c, 0, 77, 28
2, 10080, Note_on_c, 0, 77, 0
2, 10080, Note_on_c, 0, 80, 0
2, 10080, Note_on_c, 0, 84, 0
2, 10080, Note_on_c, 0, 79, 28
2, 10080, Note_on_c, 0, 82, 28
2, 10080, Note_on_c, 0, 87, 33
2, 10320, Note_on_c, 0, 87, 0
2, 10320, Note_on_c, 0, 82, 0
2, 10320, Note_on_c, 0, 79, 0
2, 15840, Note_on_c, 0, 79, 40
2, 15840, Note_on_c, 0, 67, 34
2, 15840, Note_on_c, 0, 75, 34
2, 15840, Note_on_c, 0, 70, 34
2, 16320, Note_on_c, 0, 70, 0
2, 16320, Note_on_c, 0, 79, 0
2, 16320, Note_on_c, 0, 67, 0
2, 16320, Note_on_c, 0, 75, 0
2, 16320, Note_on_c, 0, 65, 34
2, 16320, Note_on_c, 0, 68, 34
2, 16320, Note_on_c, 0, 73, 34
2, 16320, Note_on_c, 0, 77, 40
2, 16800, Note_on_c, 0, 77, 0
2, 16800, Note_on_c, 0, 65, 0
2, 16800, Note_on_c, 0, 68, 0
2, 16800, Note_on_c, 0, 73, 0
2, 16800, Note_on_c, 0, 80, 40
2, 16800, Note_on_c, 0, 75, 34
2, 16800, Note_on_c, 0, 68, 34
2, 16800, Note_on_c, 0, 72, 34
2, 17280, Note_on_c, 0, 72, 0
2, 17280, Note_on_c, 0, 80, 0
2, 17280, Note_on_c, 0, 75, 0
2, 17280, Note_on_c, 0, 68, 0
2, 17280, Note_on_c, 0, 75, 34
2, 17280, Note_on_c, 0, 79, 34
2, 17280, Note_on_c, 0, 82, 40
2, 17280, Note_on_c, 0, 70, 34
2, 17760, Note_on_c, 0, 70, 0
2, 17760, Note_on_c, 0, 75, 0
2, 17760, Note_on_c, 0, 79, 0
2, 17760, Note_on_c, 0, 82, 0
2, 17760, Note_on_c, 0, 77, 35
2, 17760, Note_on_c, 0, 82, 35
2, 17760, Note_on_c, 0, 85, 42
2, 17760, Note_on_c, 0, 73, 35
2, 18240, Note_on_c, 0, 73, 0
2, 18240, Note_on_c, 0, 77, 0
2, 18240, Note_on_c, 0, 82, 0
2, 18240, Note_on_c, 0, 85, 0
2, 18240, Note_on_c, 0, 85, 39
2, 18240, Note_on_c, 0, 77, 39
2, 18240, Note_on_c, 0, 82, 39
2, 18240, Note_on_c, 0, 89, 46
2, 18720, Note_on_c, 0, 89, 0
2, 18720, Note_on_c, 0, 85, 0
2, 18720, Note_on_c, 0, 77, 0
2, 18720, Note_on_c, 0, 82, 0
2, 18720, Note_on_c, 0, 82, 37
2, 18720, Note_on_c, 0, 79, 37
2, 18720, Note_on_c, 0, 91, 44
2, 18720, Note_on_c, 0, 87, 37
2, 19170, Note_on_c, 0, 87, 0
2, 19170, Note_on_c, 0, 82, 0
2, 19170, Note_on_c, 0, 79, 0
2, 19170, Note_on_c, 0, 91, 0
2, 19200, Note_on_c, 0, 79, 40
2, 19200, Note_on_c, 0, 84, 48
2, 19200, Note_on_c, 0, 75, 40
2, 19200, Note_on_c, 0, 72, 40
2, 19680, Note_on_c, 0, 72, 0
2, 19680, Note_on_c, 0, 79, 0
2, 19680, Note_on_c, 0, 84, 0
2, 19680, Note_on_c, 0, 75, 0
2, 19680, Note_on_c, 0, 80, 46
2, 19680, Note_on_c, 0, 68, 39
2, 19680, Note_on_c, 0, 72, 39
2, 19680, Note_on_c, 0, 75, 39
2, 20160, Note_on_c, 0, 75, 0
2, 20160, Note_on_c, 0, 80, 0
2, 20160, Note_on_c, 0, 68, 0
2, 20160, Note_on_c, 0, 72, 0
2, 20160, Note_on_c, 0, 70, 38
2, 20160, Note_on_c, 0, 82, 45
2, 20160, Note_on_c, 0, 77, 38
2, 20160, Note_on_c, 0, 73, 38
2, 20640, Note_on_c, 0, 73, 0
2, 20640, Note_on_c, 0, 70, 0
2, 20640, Note_on_c, 0, 82, 0
2, 20640, Note_on_c, 0, 77, 0
2, 20640, Note_on_c, 0, 75, 34
2, 20640, Note_on_c, 0, 70, 34
2, 20640, Note_on_c, 0, 67, 34
2, 20640, Note_on_c, 0, 79, 40
2, 20880, Note_on_c, 0, 79, 0
2, 20880, Note_on_c, 0, 75, 0
2, 20880, Note_on_c, 0, 70, 0
2, 20880, Note_on_c, 0, 67, 0
2, 21120, Note_on_c, 0, 61, 39
2, 21120, Note_on_c, 0, 56, 39
2, 21120, Note_on_c, 0, 65, 47
2, 21600, Note_on_c, 0, 65, 0
2, 21600, Note_on_c, 0, 56, 0
2, 21600, Note_on_c, 0, 61, 0
2, 21600, Note_on_c, 0, 63, 45
2, 21600, Note_on_c, 0, 58, 38
2, 21600, Note_on_c, 0, 55, 38
2, 22080, Note_on_c, 0, 55, 0
2, 22080, Note_on_c, 0, 58, 0
2, 22080, Note_on_c, 0, 63, 0
2, 22080, Note_on_c, 0, 60, 38
2, 22080, Note_on_c, 0, 63, 38
2, 22080, Note_on_c, 0, 68, 44
2, 22560, Note_on_c, 0, 68, 0
2, 22560, Note_on_c, 0, 63, 0
2, 22560, Note_on_c, 0, 60, 0
2, 22560, Note_on_c, 0, 63, 33
2, 22560, Note_on_c, 0, 67, 33
2, 22560, Note_on_c, 0, 70, 39
2, 22800, Note_on_c, 0, 70, 0
2, 22800, Note_on_c, 0, 75, 33
2, 23040, Note_on_c, 0, 75, 0
2, 23040, Note_on_c, 0, 67, 0
2, 23040, Note_on_c, 0, 72, 42
2, 23040, Note_on_c, 0, 68, 35
2, 23280, Note_on_c, 0, 68, 0
2, 23280, Note_on_c, 0, 72, 0
2, 23280, Note_on_c, 0, 63, 0
2, 23520, Note_on_c, 0, 61, 33
2, 23520, Note_on_c, 0, 65, 33
2, 23520, Note_on_c, 0, 70, 39
2, 23760, Note_on_c, 0, 70, 0
2, 23760, Note_on_c, 0, 75, 34
2, 24000, Note_on_c, 0, 75, 0
2, 24000, Note_on_c, 0, 65, 0
2, 24000, Note_on_c, 0, 61, 0
2, 24000, Note_on_c, 0, 67, 32
2, 24000, Note_on_c, 0, 63, 32
2, 24000, Note_on_c, 0, 72, 38
2, 24480, Note_on_c, 0, 72, 0
2, 24480, Note_on_c, 0, 63, 0
2, 24480, Note_on_c, 0, 67, 0
2, 24480, Note_on_c, 0, 68, 35
2, 24480, Note_on_c, 0, 63, 35
2, 24480, Note_on_c, 0, 60, 35
2, 24960, Note_on_c, 0, 60, 0
2, 24960, Note_on_c, 0, 63, 0
2, 24960, Note_on_c, 0, 68, 0
2, 24960, Note_on_c, 0, 70, 42
2, 24960, Note_on_c, 0, 65, 35
2, 24960, Note_on_c, 0, 62, 35
2, 25440, Note_on_c, 0, 62, 0
2, 25440, Note_on_c, 0, 65, 0
2, 25440, Note_on_c, 0, 70, 0
2, 25440, Note_on_c, 0, 58, 34
2, 25440, Note_on_c, 0, 62, 34
2, 25440, Note_on_c, 0, 65, 40
2, 25920, Note_on_c, 0, 65, 0
2, 25920, Note_on_c, 0, 62, 0
2, 25920, Note_on_c, 0, 58, 0
2, 25920, Note_on_c, 0, 55, 31
2, 25920, Note_on_c, 0, 58, 31
2, 25920, Note_on_c, 0, 63, 37
2, 26370, Note_on_c, 0, 63, 0
2, 26370, Note_on_c, 0, 58, 0
2, 26370, Note_on_c, 0, 55, 0
2, 26400, Note_on_c, 0, 82, 47
2, 26400, Note_on_c, 0, 70, 39
2, 27360, Note_on_c, 0, 70, 0
2, 27360, Note_on_c, 0, 82, 0
2, 27360, Note_on_c, 0, 75, 44
2, 27360, Note_on_c, 0, 87, 52
2, 28800, Note_on_c, 0, 87, 0
2, 28800, Note_on_c, 0, 75, 0
2, 28800, Note_on_c, 0, 91, 39
2, 28800, Note_on_c, 0, 79, 33
2, 29760, Note_on_c, 0, 79, 0
2, 29760, Note_on_c, 0, 91, 0
2, 29760, Note_on_c, 0, 92, 38
2, 29760, Note_on_c, 0, 80, 32
2, 30240, Note_on_c, 0, 80, 0
2, 30240, Note_on_c, 0, 92, 0
2, 30240, Note_on_c, 0, 94, 37
2, 30240, Note_on_c, 0, 82, 31
2, 31440, Note_on_c, 0, 82, 0
2, 31440, Note_on_c, 0, 94, 0
2, 31680, Note_on_c, 0, 51, 45
2, 33600, Note_on_c, 0, 51, 0
2, 33600, Note_on_c, 0, 51, 41
2, 33840, Note_on_c, 0, 51, 0
2, 33840, Note_on_c, 0, 51, 45
2, 34068, Note_on_c, 0, 51, 0
2, 34080, Note_on_c, 0, 51, 41
2, 34308, Note_on_c, 0, 51, 0
2, 34320, Note_on_c, 0, 51, 38
2, 34548, Note_on_c, 0, 51, 0
2, 34560, Note_on_c, 0, 51, 45
2, 34920, Note_on_c, 0, 51, 0
2, 34920, Note_on_c, 0, 52, 41
2, 35040, Note_on_c, 0, 52, 0
2, 35040, Note_on_c, 0, 51, 45
2, 35220, Note_on_c, 0, 51, 0
2, 35280, Note_on_c, 0, 54, 47
2, 35508, Note_on_c, 0, 54, 0
2, 35520, Note_on_c, 0, 52, 45
2, 35748, Note_on_c, 0, 52, 0
2, 35760, Note_on_c, 0, 51, 40
2, 35988, Note_on_c, 0, 51, 0
2, 36000, Note_on_c, 0, 49, 45
2, 36342, Note_on_c, 0, 49, 0
2, 36360, Note_on_c, 0, 51, 40
2, 36480, Note_on_c, 0, 51, 0
2, 36480, Note_on_c, 0, 49, 42
2, 36660, Note_on_c, 0, 49, 0
2, 36720, Note_on_c, 0, 52, 48
2, 36948, Note_on_c, 0, 52, 0
2, 36960, Note_on_c, 0, 51, 42
2, 37188, Note_on_c, 0, 51, 0
2, 37200, Note_on_c, 0, 49, 41
2, 37428, Note_on_c, 0, 49, 0
2, 37440, Note_on_c, 0, 47, 45
2, 37920, Note_on_c, 0, 47, 0
2, 37920, Note_on_c, 0, 49, 48
2, 38160, Note_on_c, 0, 49, 0
2, 38160, Note_on_c, 0, 51, 52
2, 38400, Note_on_c, 0, 51, 0
2, 38400, Note_on_c, 0, 49, 51
2, 38640, Note_on_c, 0, 49, 0
2, 38640, Note_on_c, 0, 47, 41
2, 38880, Note_on_c, 0, 47, 0
2, 38880, Note_on_c, 0, 46, 45
2, 39240, Note_on_c, 0, 46, 0
2, 39240, Note_on_c, 0, 47, 41
2, 39360, Note_on_c, 0, 47, 0
2, 39360, Note_on_c, 0, 46, 45
2, 39540, Note_on_c, 0, 46, 0
2, 39600, Note_on_c, 0, 49, 48
2, 39828, Note_on_c, 0, 49, 0
2, 39840, Note_on_c, 0, 47, 41
2, 40068, Note_on_c, 0, 47, 0
2, 40080, Note_on_c, 0, 46, 40
2, 40308, Note_on_c, 0, 46, 0
2, 40320, Note_on_c, 0, 47, 45
2, 41040, Note_on_c, 0, 47, 0
2, 41040, Note_on_c, 0, 44, 39
2, 41520, Note_on_c, 0, 44, 0
2, 41520, Note_on_c, 0, 63, 53
2, 41760, Note_on_c, 0, 68, 58
2, 41780, Note_on_c, 0, 63, 0
2, 43440, Note_on_c, 0, 71, 57
2, 43460, Note_on_c, 0, 68, 0
2, 43680, Note_on_c, 0, 70, 53
2, 43700, Note_on_c, 0, 71, 0
2, 43840, Note_on_c, 0, 68, 47
2, 43860, Note_on_c, 0, 70, 0
2, 43880, Note_on_c, 0, 70, 45
2, 43900, Note_on_c, 0, 68, 0
2, 43920, Note_on_c, 0, 68, 61
2, 43940, Note_on_c, 0, 70, 0
2, 44160, Note_on_c, 0, 64, 51
2, 44180, Note_on_c, 0, 68, 0
2, 44400, Note_on_c, 0, 68, 47
2, 44420, Note_on_c, 0, 64, 0
2, 44640, Note_on_c, 0, 68, 0
2, 44640, Note_on_c, 0, 68, 53
2, 45120, Note_on_c, 0, 63, 51
2, 45140, Note_on_c, 0, 68, 0
2, 45360, Note_on_c, 0, 66, 56
2, 45380, Note_on_c, 0, 63, 0
2, 46320, Note_on_c, 0, 64, 51
2, 46340, Note_on_c, 0, 66, 0
2, 46560, Note_on_c, 0, 63, 47
2, 46580, Note_on_c, 0, 64, 0
2, 46760, Note_on_c, 0, 63, 0
2, 46760, Note_on_c, 0, 63, 43
2, 46800, Note_on_c, 0, 64, 56
2, 46820, Note_on_c, 0, 63, 0
2, 47040, Note_on_c, 0, 63, 46
2, 47060, Note_on_c, 0, 64, 0
2, 47280, Note_on_c, 0, 61, 43
2, 47300, Note_on_c, 0, 63, 0
2, 47520, Note_on_c, 0, 63, 53
2, 47540, Note_on_c, 0, 61, 0
2, 47760, Note_on_c, 0, 63, 0
2, 47760, Note_on_c, 0, 56, 48
2, 49200, Note_on_c, 0, 58, 51
2, 49220, Note_on_c, 0, 56, 0
2, 49440, Note_on_c, 0, 59, 51
2, 49460, Note_on_c, 0, 58, 0
2, 49600, Note_on_c, 0, 61, 46
2, 49620, Note_on_c, 0, 59, 0
2, 49640, Note_on_c, 0, 63, 41
2, 49660, Note_on_c, 0, 61, 0
2, 49680, Note_on_c, 0, 61, 56
2, 49700, Note_on_c, 0, 63, 0
2, 49920, Note_on_c, 0, 59, 46
2, 49940, Note_on_c, 0, 61, 0
2, 50160, Note_on_c, 0, 58, 43
2, 50180, Note_on_c, 0, 59, 0
2, 50400, Note_on_c, 0, 59, 56
2, 50420, Note_on_c, 0, 58, 0
2, 51120, Note_on_c, 0, 59, 0
2, 51120, Note_on_c, 0, 56, 47
2, 52320, Note_on_c, 0, 56, 0
2, 53040, Note_on_c, 0, 68, 51
2, 53280, Note_on_c, 0, 68, 0
2, 53280, Note_on_c, 0, 75, 63
2, 56160, Note_on_c, 0, 75, 0
2, 56160, Note_on_c, 0, 80, 56
2, 56400, Note_on_c, 0, 80, 0
2, 57360, Note_on_c, 0, 63, 53
2, 57600, Note_on_c, 0, 68, 57
2, 57620, Note_on_c, 0, 63, 0
2, 59280, Note_on_c, 0, 71, 57
2, 59300, Note_on_c, 0, 68, 0
2, 59520, Note_on_c, 0, 70, 53
2, 59540, Note_on_c, 0, 71, 0
2, 59680, Note_on_c, 0, 68, 47
2, 59700, Note_on_c, 0, 70, 0
2, 59720, Note_on_c, 0, 70, 45
2, 59740, Note_on_c, 0, 68, 0
2, 59760, Note_on_c, 0, 68, 61
2, 59780, Note_on_c, 0, 70, 0
2, 60000, Note_on_c, 0, 64, 51
2, 60020, Note_on_c, 0, 68, 0
2, 60240, Note_on_c, 0, 68, 47
2, 60260, Note_on_c, 0, 64, 0
2, 60480, Note_on_c, 0, 68, 0
2, 60480, Note_on_c, 0, 68, 53
2, 60960, Note_on_c, 0, 63, 51
2, 60980, Note_on_c, 0, 68, 0
2, 61200, Note_on_c, 0, 59, 42
2, 61200, Note_on_c, 0, 64, 56
2, 61220, Note_on_c, 0, 63, 0
2, 62160, Note_on_c, 0, 66, 57
2, 62180, Note_on_c, 0, 64, 0
2, 62400, Note_on_c, 0, 68, 59
2, 62420, Note_on_c, 0, 66, 0
2, 62640, Note_on_c, 0, 59, 0
2, 62640, Note_on_c, 0, 61, 42
2, 62640, Note_on_c, 0, 64, 42
2, 62640, Note_on_c, 0, 69, 62
2, 62660, Note_on_c, 0, 68, 0
2, 62880, Note_on_c, 0, 71, 58
2, 62900, Note_on_c, 0, 69, 0
2, 63120, Note_on_c, 0, 73, 58
2, 63140, Note_on_c, 0, 71, 0
2, 63360, Note_on_c, 0, 61, 0
2, 63360, Note_on_c, 0, 64, 0
2, 63360, Note_on_c, 0, 73, 0
2, 63360, Note_on_c, 0, 57, 37
2, 63360, Note_on_c, 0, 61, 37
2, 63360, Note_on_c, 0, 66, 62
2, 64320, Note_on_c, 0, 66, 0
2, 64320, Note_on_c, 0, 68, 60
2, 64560, Note_on_c, 0, 69, 58
2, 64580, Note_on_c, 0, 68, 0
2, 64800, Note_on_c, 0, 57, 0
2, 64800, Note_on_c, 0, 61, 0
2, 64800, Note_on_c, 0, 69, 0
2, 64800, Note_on_c, 0, 56, 42
2, 64800, Note_on_c, 0, 63, 42
2, 64800, Note_on_c, 0, 68, 62
2, 65280, Note_on_c, 0, 68, 0
2, 65280, Note_on_c, 0, 63, 56
2, 65520, Note_on_c, 0, 63, 0
2, 65520, Note_on_c, 0, 68, 61
2, 66000, Note_on_c, 0, 68, 0
2, 66000, Note_on_c, 0, 66, 56
2, 66240, Note_on_c, 0, 66, 0
2, 66240, Note_on_c, 0, 63, 0
2, 66240, Note_on_c, 0, 56, 0
2, 66240, Note_on_c, 0, 56, 42
2, 66240, Note_on_c, 0, 64, 58
2, 66960, Note_on_c, 0, 64, 0
2, 66960, Note_on_c, 0, 63, 56
2, 67200, Note_on_c, 0, 63, 0
2, 67200, Note_on_c, 0, 61, 53
2, 67440, Note_on_c, 0, 61, 0
2, 67440, Note_on_c, 0, 59, 48
2, 67680, Note_on_c, 0, 59, 0
2, 67680, Note_on_c, 0, 56, 0
2, 67680, Note_on_c, 0, 56, 42
2, 67680, Note_on_c, 0, 58, 51
2, 68040, Note_on_c, 0, 58, 0
2, 68040, Note_on_c, 0, 59, 46
2, 68160, Note_on_c, 0, 59, 0
2, 68160, Note_on_c, 0, 58, 51
2, 68400, Note_on_c, 0, 58, 0
2, 68400, Note_on_c, 0, 56, 0
2, 68400, Note_on_c, 0, 55, 42
2, 68400, Note_on_c, 0, 61, 48
2, 68640, Note_on_c, 0, 61, 0
2, 68640, Note_on_c, 0, 59, 46
2, 68880, Note_on_c, 0, 59, 0
2, 68880, Note_on_c, 0, 58, 45
2, 69120, Note_on_c, 0, 58, 0
2, 69120, Note_on_c, 0, 55, 0
2, 69120, Note_on_c, 0, 56, 42
2, 69120, Note_on_c, 0, 59, 46
2, 69840, Note_on_c, 0, 59, 0
2, 69840, Note_on_c, 0, 56, 0
2, 69840, Note_on_c, 0, 56, 43
2, 71040, Note_on_c, 0, 56, 0
2, 72000, Note_on_c, 0, 69, 40
2, 72000, Note_on_c, 0, 73, 40
2, 72000, Note_on_c, 0, 64, 45
2, 72000, Note_on_c, 0, 76, 45
2, 72480, Note_on_c, 0, 76, 0
2, 72480, Note_on_c, 0, 64, 0
2, 72480, Note_on_c, 0, 64, 43
2, 72480, Note_on_c, 0, 76, 43
2, 72720, Note_on_c, 0, 76, 0
2, 72720, Note_on_c, 0, 69, 0
2, 72720, Note_on_c, 0, 73, 0
2, 72720, Note_on_c, 0, 64, 0
2, 72720, Note_on_c, 0, 69, 43
2, 72720, Note_on_c, 0, 73, 43
2, 72720, Note_on_c, 0, 66, 48
2, 72720, Note_on_c, 0, 78, 48
2, 73080, Note_on_c, 0, 78, 0
2, 73080, Note_on_c, 0, 66, 0
2, 73080, Note_on_c, 0, 64, 46
2, 73080, Note_on_c, 0, 76, 46
2, 73200, Note_on_c, 0, 76, 0
2, 73200, Note_on_c, 0, 64, 0
2, 73200, Note_on_c, 0, 63, 42
2, 73200, Note_on_c, 0, 75, 42
2, 73440, Note_on_c, 0, 75, 0
2, 73440, Note_on_c, 0, 69, 0
2, 73440, Note_on_c, 0, 73, 0
2, 73440, Note_on_c, 0, 63, 0
2, 73440, Note_on_c, 0, 69, 43
2, 73440, Note_on_c, 0, 73, 43
2, 73440, Note_on_c, 0, 64, 48
2, 73440, Note_on_c, 0, 76, 48
2, 73920, Note_on_c, 0, 76, 0
2, 73920, Note_on_c, 0, 64, 0
2, 73920, Note_on_c, 0, 64, 45
2, 73920, Note_on_c, 0, 76, 45
2, 74160, Note_on_c, 0, 76, 0
2, 74160, Note_on_c, 0, 69, 0
2, 74160, Note_on_c, 0, 73, 0
2, 74160, Note_on_c, 0, 64, 0
2, 74160, Note_on_c, 0, 69, 41
2, 74160, Note_on_c, 0, 73, 41
2, 74160, Note_on_c, 0, 66, 46
2, 74160, Note_on_c, 0, 78, 46
2, 74520, Note_on_c, 0, 78, 0
2, 74520, Note_on_c, 0, 66, 0
2, 74520, Note_on_c, 0, 64, 40
2, 74520, Note_on_c, 0, 76, 40
2, 74640, Note_on_c, 0, 76, 0
2, 74640, Note_on_c, 0, 64, 0
2, 74640, Note_on_c, 0, 63, 40
2, 74640, Note_on_c, 0, 75, 40
2, 74880, Note_on_c, 0, 75, 0
2, 74880, Note_on_c, 0, 69, 0
2, 74880, Note_on_c, 0, 73, 0
2, 74880, Note_on_c, 0, 63, 0
2, 74880, Note_on_c, 0, 64, 45
2, 74880, Note_on_c, 0, 69, 45
2, 74880, Note_on_c, 0, 73, 45
2, 74880, Note_on_c, 0, 76, 45
2, 75600, Note_on_c, 0, 76, 0
2, 75600, Note_on_c, 0, 64, 0
2, 75600, Note_on_c, 0, 69, 0
2, 75600, Note_on_c, 0, 73, 0
2, 75600, Note_on_c, 0, 62, 46
2, 75600, Note_on_c, 0, 66, 46
2, 75600, Note_on_c, 0, 69, 46
2, 75600, Note_on_c, 0, 74, 46
2, 76320, Note_on_c, 0, 74, 0
2, 76320, Note_on_c, 0, 62, 0
2, 76320, Note_on_c, 0, 66, 0
2, 76320, Note_on_c, 0, 69, 0
2, 76320, Note_on_c, 0, 74, 51
2, 76320, Note_on_c, 0, 78, 51
2, 76320, Note_on_c, 0, 69, 51
2, 76320, Note_on_c, 0, 81, 51
2, 77280, Note_on_c, 0, 81, 0
2, 77280, Note_on_c, 0, 69, 0
2, 77280, Note_on_c, 0, 68, 51
2, 77280, Note_on_c, 0, 80, 51
2, 77520, Note_on_c, 0, 80, 0
2, 77520, Note_on_c, 0, 68, 0
2, 77520, Note_on_c, 0, 66, 47
2, 77520, Note_on_c, 0, 78, 47
2, 77760, Note_on_c, 0, 78, 0
2, 77760, Note_on_c, 0, 74, 0
2, 77760, Note_on_c, 0, 78, 0
2, 77760, Note_on_c, 0, 66, 0
2, 77760, Note_on_c, 0, 64, 51
2, 77760, Note_on_c, 0, 68, 51
2, 77760, Note_on_c, 0, 73, 51
2, 77760, Note_on_c, 0, 76, 51
2, 78480, Note_on_c, 0, 76, 0
2, 78480, Note_on_c, 0, 64, 0
2, 78480, Note_on_c, 0, 68, 0
2, 78480, Note_on_c, 0, 73, 0
2, 78480, Note_on_c, 0, 68, 54
2, 78480, Note_on_c, 0, 73, 54
2, 78480, Note_on_c, 0, 76, 54
2, 78480, Note_on_c, 0, 80, 54
2, 79200, Note_on_c, 0, 80, 0
2, 79200, Note_on_c, 0, 68, 0
2, 79200, Note_on_c, 0, 73, 0
2, 79200, Note_on_c, 0, 76, 0
2, 79200, Note_on_c, 0, 66, 53
2, 79200, Note_on_c, 0, 68, 53
2, 79200, Note_on_c, 0, 75, 53
2, 79200, Note_on_c, 0, 78, 53
2, 79920, Note_on_c, 0, 78, 0
2, 79920, Note_on_c, 0, 66, 0
2, 79920, Note_on_c, 0, 68, 0
2, 79920, Note_on_c, 0, 75, 0
2, 79920, Note_on_c, 0, 64, 47
2, 79920, Note_on_c, 0, 68, 47
2, 79920, Note_on_c, 0, 73, 47
2, 79920, Note_on_c, 0, 76, 47
2, 80640, Note_on_c, 0, 76, 0
2, 80640, Note_on_c, 0, 64, 0
2, 80640, Note_on_c, 0, 68, 0
2, 80640, Note_on_c, 0, 73, 0
2, 80640, Note_on_c, 0, 67, 45
2, 80640, Note_on_c, 0, 70, 45
2, 80640, Note_on_c, 0, 63, 51
2, 80640, Note_on_c, 0, 75, 51
2, 81360, Note_on_c, 0, 75, 0
2, 81360, Note_on_c, 0, 63, 0
2, 81360, Note_on_c, 0, 61, 48
2, 81360, Note_on_c, 0, 73, 48
2, 81840, Note_on_c, 0, 73, 0
2, 81840, Note_on_c, 0, 61, 0
2, 81840, Note_on_c, 0, 59, 46
2, 81840, Note_on_c, 0, 71, 46
2, 82080, Note_on_c, 0, 71, 0
2, 82080, Note_on_c, 0, 67, 0
2, 82080, Note_on_c, 0, 70, 0
2, 82080, Note_on_c, 0, 59, 0
2, 82080, Note_on_c, 0, 63, 45
2, 82080, Note_on_c, 0, 67, 45
2, 82080, Note_on_c, 0, 58, 51
2, 82080, Note_on_c, 0, 70, 51
2, 82440, Note_on_c, 0, 70, 0
2, 82440, Note_on_c, 0, 58, 0
2, 82440, Note_on_c, 0, 59, 41
2, 82440, Note_on_c, 0, 71, 41
2, 82560, Note_on_c, 0, 71, 0
2, 82560, Note_on_c, 0, 59, 0
2, 82560, Note_on_c, 0, 58, 35
2, 82560, Note_on_c, 0, 70, 35
2, 82800, Note_on_c, 0, 70, 0
2, 82800, Note_on_c, 0, 58, 0
2, 82800, Note_on_c, 0, 61, 43
2, 82800, Note_on_c, 0, 73, 43
2, 83040, Note_on_c, 0, 73, 0
2, 83040, Note_on_c, 0, 61, 0
2, 83040, Note_on_c, 0, 59, 38
2, 83040, Note_on_c, 0, 71, 38
2, 83280, Note_on_c, 0, 71, 0
2, 83280, Note_on_c, 0, 59, 0
2, 83280, Note_on_c, 0, 58, 35
2, 83280, Note_on_c, 0, 70, 35
2, 83520, Note_on_c, 0, 70, 0
2, 83520, Note_on_c, 0, 63, 0
2, 83520, Note_on_c, 0, 67, 0
2, 83520, Note_on_c, 0, 58, 0
2, 83520, Note_on_c, 0, 59, 45
2, 83520, Note_on_c, 0, 63, 45
2, 83520, Note_on_c, 0, 68, 45
2, 83520, Note_on_c, 0, 71, 45
2, 84240, Note_on_c, 0, 71, 0
2, 84240, Note_on_c, 0, 68, 0
2, 84240, Note_on_c, 0, 68, 41
2, 84720, Note_on_c, 0, 68, 0
2, 84720, Note_on_c, 0, 63, 0
2, 84720, Note_on_c, 0, 59, 0
2, 84960, Note_on_c, 0, 69, 40
2, 84960, Note_on_c, 0, 73, 40
2, 84960, Note_on_c, 0, 64, 45
2, 84960, Note_on_c, 0, 76, 45
2, 85440, Note_on_c, 0, 76, 0
2, 85440, Note_on_c, 0, 64, 0
2, 85440, Note_on_c, 0, 64, 43
2, 85440, Note_on_c, 0, 76, 43
2, 85680, Note_on_c, 0, 76, 0
2, 85680, Note_on_c, 0, 69, 0
2, 85680, Note_on_c, 0, 73, 0
2, 85680, Note_on_c, 0, 64, 0
2, 85680, Note_on_c, 0, 69, 43
2, 85680, Note_on_c, 0, 73, 43
2, 85680, Note_on_c, 0, 66, 48
2, 85680, Note_on_c, 0, 78, 48
2, 86040, Note_on_c, 0, 78, 0
2, 86040, Note_on_c, 0, 66, 0
2, 86040, Note_on_c, 0, 64, 46
2, 86040, Note_on_c, 0, 76, 46
2, 86160, Note_on_c, 0, 76, 0
2, 86160, Note_on_c, 0, 64, 0
2, 86160, Note_on_c, 0, 63, 42
2, 86160, Note_on_c, 0, 75, 42
2, 86340, Note_on_c, 0, 75, 0
2, 86340, Note_on_c, 0, 63, 0
2, 86400, Note_on_c, 0, 73, 0
2, 86400, Note_on_c, 0, 69, 0
2, 86400, Note_on_c, 0, 69, 43
2, 86400, Note_on_c, 0, 73, 43
2, 86400, Note_on_c, 0, 64, 48
2, 86400, Note_on_c, 0, 76, 48
2, 86880, Note_on_c, 0, 76, 0
2, 86880, Note_on_c, 0, 64, 0
2, 86880, Note_on_c, 0, 64, 45
2, 86880, Note_on_c, 0, 76, 45
2, 87120, Note_on_c, 0, 76, 0
2, 87120, Note_on_c, 0, 69, 0
2, 87120, Note_on_c, 0, 73, 0
2, 87120, Note_on_c, 0, 64, 0
2, 87120, Note_on_c, 0, 69, 41
2, 87120, Note_on_c, 0, 73, 41
2, 87120, Note_on_c, 0, 66, 46
2, 87120, Note_on_c, 0, 78, 46
2, 87480, Note_on_c, 0, 78, 0
2, 87480, Note_on_c, 0, 66, 0
2, 87480, Note_on_c, 0, 64, 40
2, 87480, Note_on_c, 0, 76, 40
2, 87600, Note_on_c, 0, 76, 0
2, 87600, Note_on_c, 0, 64, 0
2, 87600, Note_on_c, 0, 63, 40
2, 87600, Note_on_c, 0, 75, 40
2, 87780, Note_on_c, 0, 75, 0
2, 87780, Note_on_c, 0, 63, 0
2, 87840, Note_on_c, 0, 73, 0
2, 87840, Note_on_c, 0, 69, 0
2, 87840, Note_on_c, 0, 64, 45
2, 87840, Note_on_c, 0, 69, 45
2, 87840, Note_on_c, 0, 73, 45
2, 87840, Note_on_c, 0, 76, 45
2, 88560, Note_on_c, 0, 76, 0
2, 88560, Note_on_c, 0, 64, 0
2, 88560, Note_on_c, 0, 69, 0
2, 88560, Note_on_c, 0, 73, 0
2, 88560, Note_on_c, 0, 62, 46
2, 88560, Note_on_c, 0, 66, 46
2, 88560, Note_on_c, 0, 69, 46
2, 88560, Note_on_c, 0, 74, 46
2, 89280, Note_on_c, 0, 74, 0
2, 89280, Note_on_c, 0, 62, 0
2, 89280, Note_on_c, 0, 66, 0
2, 89280, Note_on_c, 0, 69, 0
2, 89280, Note_on_c, 0, 74, 51
2, 89280, Note_on_c, 0, 78, 51
2, 89280, Note_on_c, 0, 69, 51
2, 89280, Note_on_c, 0, 81, 51
2, 90000, Note_on_c, 0, 81, 0
2, 90000, Note_on_c, 0, 69, 0
2, 90000, Note_on_c, 0, 68, 51
2, 90000, Note_on_c, 0, 80, 51
2, 90240, Note_on_c, 0, 80, 0
2, 90240, Note_on_c, 0, 68, 0
2, 90240, Note_on_c, 0, 81, 45
2, 90240, Note_on_c, 0, 69, 45
2, 90480, Note_on_c, 0, 69, 0
2, 90480, Note_on_c, 0, 81, 0
2, 90480, Note_on_c, 0, 66, 46
2, 90480, Note_on_c, 0, 78, 46
2, 90720, Note_on_c, 0, 78, 0
2, 90720, Note_on_c, 0, 74, 0
2, 90720, Note_on_c, 0, 78, 0
2, 90720, Note_on_c, 0, 66, 0
2, 90720, Note_on_c, 0, 64, 51
2, 90720, Note_on_c, 0, 68, 51
2, 90720, Note_on_c, 0, 73, 51
2, 90720, Note_on_c, 0, 76, 51
2, 91440, Note_on_c, 0, 76, 0
2, 91440, Note_on_c, 0, 64, 0
2, 91440, Note_on_c, 0, 68, 0
2, 91440, Note_on_c, 0, 73, 0
2, 91440, Note_on_c, 0, 68, 47
2, 91440, Note_on_c, 0, 73, 47
2, 91440, Note_on_c, 0, 76, 47
2, 91440, Note_on_c, 0, 80, 47
2, 92160, Note_on_c, 0, 80, 0
2, 92160, Note_on_c, 0, 68, 0
2, 92160, Note_on_c, 0, 73, 0
2, 92160, Note_on_c, 0, 76, 0
2, 92160, Note_on_c, 0, 66, 48
2, 92160, Note_on_c, 0, 68, 48
2, 92160, Note_on_c, 0, 75, 48
2, 92160, Note_on_c, 0, 78, 48
2, 92400, Note_on_c, 0, 78, 0
2, 92400, Note_on_c, 0, 66, 0
2, 92400, Note_on_c, 0, 68, 0
2, 92400, Note_on_c, 0, 68, 45
2, 92400, Note_on_c, 0, 80, 45
2, 92640, Note_on_c, 0, 80, 0
2, 92640, Note_on_c, 0, 63, 45
2, 92640, Note_on_c, 0, 75, 45
2, 92880, Note_on_c, 0, 75, 0
2, 92880, Note_on_c, 0, 75, 0
2, 92880, Note_on_c, 0, 68, 0
2, 92880, Note_on_c, 0, 63, 0
2, 92880, Note_on_c, 0, 64, 47
2, 92880, Note_on_c, 0, 68, 47
2, 92880, Note_on_c, 0, 73, 47
2, 92880, Note_on_c, 0, 76, 47
2, 93120, Note_on_c, 0, 76, 0
2, 93120, Note_on_c, 0, 64, 0
2, 93120, Note_on_c, 0, 63, 43
2, 93120, Note_on_c, 0, 75, 43
2, 93360, Note_on_c, 0, 75, 0
2, 93360, Note_on_c, 0, 63, 0
2, 93360, Note_on_c, 0, 64, 42
2, 93360, Note_on_c, 0, 76, 42
2, 93600, Note_on_c, 0, 76, 0
2, 93600, Note_on_c, 0, 68, 0
2, 93600, Note_on_c, 0, 73, 0
2, 93600, Note_on_c, 0, 64, 0
2, 93600, Note_on_c, 0, 67, 45
2, 93600, Note_on_c, 0, 70, 45
2, 93600, Note_on_c, 0, 63, 51
2, 93600, Note_on_c, 0, 75, 51
2, 94320, Note_on_c, 0, 75, 0
2, 94320, Note_on_c, 0, 63, 0
2, 94320, Note_on_c, 0, 61, 48
2, 94320, Note_on_c, 0, 73, 48
2, 94800, Note_on_c, 0, 73, 0
2, 94800, Note_on_c, 0, 61, 0
2, 94800, Note_on_c, 0, 59, 46
2, 94800, Note_on_c, 0, 71, 46
2, 95040, Note_on_c, 0, 71, 0
2, 95040, Note_on_c, 0, 67, 0
2, 95040, Note_on_c, 0, 70, 0
2, 95040, Note_on_c, 0, 59, 0
2, 95040, Note_on_c, 0, 63, 45
2, 95040, Note_on_c, 0, 67, 45
2, 95040, Note_on_c, 0, 58, 51
2, 95040, Note_on_c, 0, 70, 51
2, 95400, Note_on_c, 0, 70, 0
2, 95400, Note_on_c, 0, 58, 0
2, 95400, Note_on_c, 0, 59, 41
2, 95400, Note_on_c, 0, 71, 41
2, 95520, Note_on_c, 0, 71, 0
2, 95520, Note_on_c, 0, 59, 0
2, 95520, Note_on_c, 0, 58, 35
2, 95520, Note_on_c, 0, 70, 35
2, 95700, Note_on_c, 0, 70, 0
2, 95700, Note_on_c, 0, 58, 0
2, 95760, Note_on_c, 0, 61, 43
2, 95760, Note_on_c, 0, 73, 43
2, 96000, Note_on_c, 0, 73, 0
2, 96000, Note_on_c, 0, 61, 0
2, 96000, Note_on_c, 0, 59, 38
2, 96000, Note_on_c, 0, 71, 38
2, 96240, Note_on_c, 0, 71, 0
2, 96240, Note_on_c, 0, 59, 0
2, 96240, Note_on_c, 0, 58, 35
2, 96240, Note_on_c, 0, 70, 35
2, 96420, Note_on_c, 0, 70, 0
2, 96420, Note_on_c, 0, 58, 0
2, 96480, Note_on_c, 0, 67, 0
2, 96480, Note_on_c, 0, 63, 0
2, 96480, Note_on_c, 0, 59, 40
2, 96480, Note_on_c, 0, 63, 40
2, 96480, Note_on_c, 0, 68, 45
2, 96480, Note_on_c, 0, 71, 45
2, 97200, Note_on_c, 0, 71, 0
2, 97200, Note_on_c, 0, 68, 0
2, 97200, Note_on_c, 0, 68, 41
2, 97680, Note_on_c, 0, 68, 0
2, 97680, Note_on_c, 0, 63, 0
2, 97680, Note_on_c, 0, 59, 0
2, 98640, Note_on_c, 0, 68, 51
2, 99360, Note_on_c, 0, 68, 0
2, 99360, Note_on_c, 0, 75, 63
2, 102240, Note_on_c, 0, 75, 0
2, 102240, Note_on_c, 0, 80, 56
2, 102720, Note_on_c, 0, 80, 0
2, 103440, Note_on_c, 0, 63, 51
2, 103680, Note_on_c, 0, 68, 56
2, 103700, Note_on_c, 0, 63, 0
2, 105360, Note_on_c, 0, 71, 53
2, 105380, Note_on_c, 0, 68, 0
2, 105600, Note_on_c, 0, 70, 51
2, 105620, Note_on_c, 0, 71, 0
2, 105760, Note_on_c, 0, 68, 45
2, 105780, Note_on_c, 0, 70, 0
2, 105800, Note_on_c, 0, 70, 42
2, 105820, Note_on_c, 0, 68, 0
2, 105840, Note_on_c, 0, 68, 56
2, 105860, Note_on_c, 0, 70, 0
2, 106080, Note_on_c, 0, 64, 47
2, 106100, Note_on_c, 0, 68, 0
2, 106320, Note_on_c, 0, 68, 45
2, 106340, Note_on_c, 0, 64, 0
2, 106560, Note_on_c, 0, 68, 0
2, 106560, Note_on_c, 0, 68, 53
2, 107040, Note_on_c, 0, 75, 48
2, 107060, Note_on_c, 0, 68, 0
2, 107280, Note_on_c, 0, 68, 50
2, 107300, Note_on_c, 0, 75, 0
2, 108720, Note_on_c, 0, 68, 0
2, 109440, Note_on_c, 0, 63, 36
2, 109440, Note_on_c, 0, 66, 36
2, 109440, Note_on_c, 0, 69, 51
2, 110400, Note_on_c, 0, 69, 0
2, 110400, Note_on_c, 0, 68, 47
2, 110640, Note_on_c, 0, 68, 0
2, 110640, Note_on_c, 0, 66, 0
2, 110640, Note_on_c, 0, 63, 0
2, 110640, Note_on_c, 0, 69, 44
2, 110880, Note_on_c, 0, 69, 0
2, 110880, Note_on_c, 0, 62, 36
2, 110880, Note_on_c, 0, 65, 36
2, 110880, Note_on_c, 0, 70, 57
2, 111360, Note_on_c, 0, 77, 48
2, 111380, Note_on_c, 0, 70, 0
2, 111600, Note_on_c, 0, 70, 50
2, 111620, Note_on_c, 0, 77, 0
2, 112080, Note_on_c, 0, 62, 0
2, 112080, Note_on_c, 0, 65, 0
2, 112080, Note_on_c, 0, 70, 0
2, 112320, Note_on_c, 0, 63, 36
2, 112320, Note_on_c, 0, 66, 36
2, 112320, Note_on_c, 0, 72, 51
2, 113280, Note_on_c, 0, 72, 0
2, 113280, Note_on_c, 0, 71, 47
2, 113520, Note_on_c, 0, 71, 0
2, 113520, Note_on_c, 0, 66, 0
2, 113520, Note_on_c, 0, 63, 0
2, 113520, Note_on_c, 0, 72, 45
2, 113760, Note_on_c, 0, 72, 0
2, 113760, Note_on_c, 0, 68, 36
2, 113760, Note_on_c, 0, 65, 36
2, 113760, Note_on_c, 0, 73, 57
2, 114240, Note_on_c, 0, 80, 50
2, 114260, Note_on_c, 0, 73, 0
2, 114480, Note_on_c, 0, 73, 50
2, 114500, Note_on_c, 0, 80, 0
2, 114960, Note_on_c, 0, 68, 0
2, 114960, Note_on_c, 0, 65, 0
2, 114960, Note_on_c, 0, 73, 0
2, 115200, Note_on_c, 0, 63, 51
2, 115200, Note_on_c, 0, 70, 51
2, 115200, Note_on_c, 0, 74, 51
2, 118080, Note_on_c, 0, 74, 0
2, 118080, Note_on_c, 0, 70, 0
2, 118080, Note_on_c, 0, 63, 0
2, 118080, Note_on_c, 0, 68, 36
2, 118080, Note_on_c, 0, 63, 56
2, 118080, Note_on_c, 0, 75, 56
2, 118800, Note_on_c, 0, 75, 0
2, 118800, Note_on_c, 0, 63, 0
2, 118800, Note_on_c, 0, 68, 0
2, 118800, Note_on_c, 0, 68, 36
2, 118800, Note_on_c, 0, 62, 48
2, 118800, Note_on_c, 0, 74, 48
2, 119040, Note_on_c, 0, 74, 0
2, 119040, Note_on_c, 0, 62, 0
2, 119040, Note_on_c, 0, 61, 46
2, 119040, Note_on_c, 0, 73, 46
2, 119280, Note_on_c, 0, 73, 0
2, 119280, Note_on_c, 0, 61, 0
2, 119280, Note_on_c, 0, 62, 45
2, 119280, Note_on_c, 0, 74, 45
2, 119520, Note_on_c, 0, 74, 0
2, 119520, Note_on_c, 0, 62, 0
2, 119520, Note_on_c, 0, 68, 0
2, 119520, Note_on_c, 0, 68, 36
2, 119520, Note_on_c, 0, 63, 53
2, 119520, Note_on_c, 0, 75, 53
2, 120240, Note_on_c, 0, 75, 0
2, 120240, Note_on_c, 0, 63, 0
2, 120240, Note_on_c, 0, 68, 0
2, 120240, Note_on_c, 0, 68, 36
2, 120240, Note_on_c, 0, 62, 47
2, 120240, Note_on_c, 0, 74, 47
2, 120480, Note_on_c, 0, 74, 0
2, 120480, Note_on_c, 0, 62, 0
2, 120480, Note_on_c, 0, 61, 46
2, 120480, Note_on_c, 0, 73, 46
2, 120720, Note_on_c, 0, 73, 0
2, 120720, Note_on_c, 0, 61, 0
2, 120720, Note_on_c, 0, 62, 45
2, 120720, Note_on_c, 0, 74, 45
2, 120960, Note_on_c, 0, 74, 0
2, 120960, Note_on_c, 0, 62, 0
2, 120960, Note_on_c, 0, 68, 0
2, 120960, Note_on_c, 0, 68, 36
2, 120960, Note_on_c, 0, 63, 52
2, 120960, Note_on_c, 0, 75, 52
2, 121680, Note_on_c, 0, 75, 0
2, 121680, Note_on_c, 0, 63, 0
2, 121680, Note_on_c, 0, 62, 47
2, 121680, Note_on_c, 0, 74, 47
2, 122400, Note_on_c, 0, 74, 0
2, 122400, Note_on_c, 0, 62, 0
2, 122400, Note_on_c, 0, 68, 0
2, 122400, Note_on_c, 0, 61, 46
2, 122400, Note_on_c, 0, 68, 46
2, 122400, Note_on_c, 0, 73, 46
2, 123120, Note_on_c, 0, 73, 0
2, 123120, Note_on_c, 0, 68, 0
2, 123120, Note_on_c, 0, 61, 0
2, 123120, Note_on_c, 0, 68, 57
2, 123120, Note_on_c, 0, 76, 57
2, 123120, Note_on_c, 0, 80, 57
2, 123840, Note_on_c, 0, 80, 0
2, 123840, Note_on_c, 0, 76, 0
2, 123840, Note_on_c, 0, 68, 0
2, 123840, Note_on_c, 0, 66, 56
2, 123840, Note_on_c, 0, 75, 56
2, 123840, Note_on_c, 0, 78, 56
2, 124560, Note_on_c, 0, 78, 0
2, 124560, Note_on_c, 0, 75, 0
2, 124560, Note_on_c, 0, 66, 0
2, 124560, Note_on_c, 0, 64, 55
2, 124560, Note_on_c, 0, 73, 55
2, 124560, Note_on_c, 0, 76, 55
2, 125280, Note_on_c, 0, 76, 0
2, 125280, Note_on_c, 0, 73, 0
2, 125280, Note_on_c, 0, 64, 0
2, 125280, Note_on_c, 0, 67, 45
2, 125280, Note_on_c, 0, 70, 45
2, 125280, Note_on_c, 0, 63, 51
2, 125280, Note_on_c, 0, 75, 51
2, 126000, Note_on_c, 0, 75, 0
2, 126000, Note_on_c, 0, 63, 0
2, 126000, Note_on_c, 0, 61, 48
2, 126000, Note_on_c, 0, 73, 48
2, 126480, Note_on_c, 0, 73, 0
2, 126480, Note_on_c, 0, 61, 0
2, 126480, Note_on_c, 0, 59, 46
2, 126480, Note_on_c, 0, 71, 46
2, 126720, Note_on_c, 0, 71, 0
2, 126720, Note_on_c, 0, 67, 0
2, 126720, Note_on_c, 0, 70, 0
2, 126720, Note_on_c, 0, 59, 0
2, 126720, Note_on_c, 0, 63, 38
2, 126720, Note_on_c, 0, 67, 38
2, 126720, Note_on_c, 0, 58, 51
2, 126720, Note_on_c, 0, 70, 51
2, 127080, Note_on_c, 0, 70, 0
2, 127080, Note_on_c, 0, 58, 0
2, 127080, Note_on_c, 0, 59, 41
2, 127080, Note_on_c, 0, 71, 41
2, 127200, Note_on_c, 0, 71, 0
2, 127200, Note_on_c, 0, 59, 0
2, 127200, Note_on_c, 0, 58, 35
2, 127200, Note_on_c, 0, 70, 35
2, 127380, Note_on_c, 0, 70, 0
2, 127380, Note_on_c, 0, 58, 0
2, 127440, Note_on_c, 0, 61, 43
2, 127440, Note_on_c, 0, 73, 43
2, 127680, Note_on_c, 0, 73, 0
2, 127680, Note_on_c, 0, 61, 0
2, 127680, Note_on_c, 0, 59, 38
2, 127680, Note_on_c, 0, 71, 38
2, 127920, Note_on_c, 0, 71, 0
2, 127920, Note_on_c, 0, 59, 0
2, 127920, Note_on_c, 0, 58, 35
2, 127920, Note_on_c, 0, 70, 35
2, 128160, Note_on_c, 0, 70, 0
2, 128160, Note_on_c, 0, 63, 0
2, 128160, Note_on_c, 0, 67, 0
2, 128160, Note_on_c, 0, 58, 0
2, 128160, Note_on_c, 0, 59, 37
2, 128160, Note_on_c, 0, 63, 36
2, 128160, Note_on_c, 0, 68, 37
2, 128160, Note_on_c, 0, 71, 45
2, 128880, Note_on_c, 0, 71, 0
2, 128880, Note_on_c, 0, 68, 0
2, 128880, Note_on_c, 0, 68, 41
2, 129360, Note_on_c, 0, 68, 0
2, 129360, Note_on_c, 0, 63, 0
2, 129360, Note_on_c, 0, 59, 0
2, 130800, Note_on_c, 0, 63, 51
2, 131040, Note_on_c, 0, 68, 56
2, 131060, Note_on_c, 0, 63, 0
2, 132720, Note_on_c, 0, 71, 53
2, 132740, Note_on_c, 0, 68, 0
2, 132960, Note_on_c, 0, 70, 51
2, 132980, Note_on_c, 0, 71, 0
2, 133120, Note_on_c, 0, 68, 45
2, 133140, Note_on_c, 0, 70, 0
2, 133160, Note_on_c, 0, 70, 42
2, 133180, Note_on_c, 0, 68, 0
2, 133200, Note_on_c, 0, 68, 56
2, 133220, Note_on_c, 0, 70, 0
2, 133440, Note_on_c, 0, 64, 47
2, 133460, Note_on_c, 0, 68, 0
2, 133680, Note_on_c, 0, 68, 45
2, 133700, Note_on_c, 0, 64, 0
2, 133920, Note_on_c, 0, 68, 0
2, 133920, Note_on_c, 0, 68, 53
2, 134280, Note_on_c, 0, 68, 0
2, 134280, Note_on_c, 0, 76, 48
2, 134400, Note_on_c, 0, 76, 0
2, 134400, Note_on_c, 0, 68, 45
2, 134640, Note_on_c, 0, 68, 0
2, 134640, Note_on_c, 0, 68, 49
2, 135840, Note_on_c, 0, 68, 0
2, 136800, Note_on_c, 0, 63, 36
2, 136800, Note_on_c, 0, 66, 36
2, 136800, Note_on_c, 0, 69, 51
2, 137760, Note_on_c, 0, 69, 0
2, 137760, Note_on_c, 0, 68, 47
2, 138000, Note_on_c, 0, 68, 0
2, 138000, Note_on_c, 0, 66, 0
2, 138000, Note_on_c, 0, 63, 0
2, 138000, Note_on_c, 0, 69, 48
2, 138240, Note_on_c, 0, 69, 0
2, 138240, Note_on_c, 0, 62, 36
2, 138240, Note_on_c, 0, 65, 36
2, 138240, Note_on_c, 0, 70, 57
2, 138600, Note_on_c, 0, 70, 0
2, 138600, Note_on_c, 0, 77, 51
2, 138720, Note_on_c, 0, 77, 0
2, 138720, Note_on_c, 0, 70, 51
2, 138960, Note_on_c, 0, 70, 0
2, 138960, Note_on_c, 0, 70, 47
2, 139440, Note_on_c, 0, 70, 0
2, 139440, Note_on_c, 0, 65, 0
2, 139440, Note_on_c, 0, 62, 0
2, 139680, Note_on_c, 0, 63, 36
2, 139680, Note_on_c, 0, 66, 36
2, 139680, Note_on_c, 0, 72, 51
2, 140640, Note_on_c, 0, 72, 0
2, 140640, Note_on_c, 0, 71, 47
2, 140880, Note_on_c, 0, 71, 0
2, 140880, Note_on_c, 0, 66, 0
2, 140880, Note_on_c, 0, 63, 0
2, 140880, Note_on_c, 0, 72, 46
2, 141120, Note_on_c, 0, 72, 0
2, 141120, Note_on_c, 0, 68, 36
2, 141120, Note_on_c, 0, 65, 36
2, 141120, Note_on_c, 0, 73, 57
2, 141480, Note_on_c, 0, 73, 0
2, 141480, Note_on_c, 0, 80, 51
2, 141600, Note_on_c, 0, 80, 0
2, 141600, Note_on_c, 0, 73, 51
2, 141840, Note_on_c, 0, 73, 0
2, 141840, Note_on_c, 0, 73, 48
2, 142320, Note_on_c, 0, 73, 0
2, 142320, Note_on_c, 0, 65, 0
2, 142320, Note_on_c, 0, 68, 0
2, 142560, Note_on_c, 0, 63, 51
2, 142560, Note_on_c, 0, 70, 51
2, 142560, Note_on_c, 0, 74, 51
2, 145440, Note_on_c, 0, 74, 0
2, 145440, Note_on_c, 0, 70, 0
2, 145440, Note_on_c, 0, 63, 0
2, 145440, Note_on_c, 0, 68, 36
2, 145440, Note_on_c, 0, 63, 56
2, 145440, Note_on_c, 0, 75, 56
2, 146160, Note_on_c, 0, 75, 0
2, 146160, Note_on_c, 0, 63, 0
2, 146160, Note_on_c, 0, 68, 0
2, 146160, Note_on_c, 0, 68, 36
2, 146160, Note_on_c, 0, 62, 48
2, 146160, Note_on_c, 0, 74, 48
2, 146400, Note_on_c, 0, 74, 0
2, 146400, Note_on_c, 0, 62, 0
2, 146400, Note_on_c, 0, 61, 46
2, 146400, Note_on_c, 0, 73, 46
2, 146640, Note_on_c, 0, 73, 0
2, 146640, Note_on_c, 0, 61, 0
2, 146640, Note_on_c, 0, 62, 44
2, 146640, Note_on_c, 0, 74, 44
2, 146880, Note_on_c, 0, 74, 0
2, 146880, Note_on_c, 0, 62, 0
2, 146880, Note_on_c, 0, 68, 0
2, 146880, Note_on_c, 0, 68, 36
2, 146880, Note_on_c, 0, 63, 53
2, 146880, Note_on_c, 0, 75, 53
2, 147600, Note_on_c, 0, 75, 0
2, 147600, Note_on_c, 0, 63, 0
2, 147600, Note_on_c, 0, 68, 0
2, 147600, Note_on_c, 0, 68, 36
2, 147600, Note_on_c, 0, 62, 47
2, 147600, Note_on_c, 0, 74, 47
2, 147840, Note_on_c, 0, 74, 0
2, 147840, Note_on_c, 0, 62, 0
2, 147840, Note_on_c, 0, 61, 46
2, 147840, Note_on_c, 0, 73, 46
2, 148080, Note_on_c, 0, 73, 0
2, 148080, Note_on_c, 0, 61, 0
2, 148080, Note_on_c, 0, 62, 45
2, 148080, Note_on_c, 0, 74, 45
2, 148320, Note_on_c, 0, 74, 0
2, 148320, Note_on_c, 0, 62, 0
2, 148320, Note_on_c, 0, 68, 0
2, 148320, Note_on_c, 0, 68, 36
2, 148320, Note_on_c, 0, 63, 52
2, 148320, Note_on_c, 0, 75, 52
2, 149040, Note_on_c, 0, 75, 0
2, 149040, Note_on_c, 0, 63, 0
2, 149040, Note_on_c, 0, 62, 47
2, 149040, Note_on_c, 0, 74, 47
2, 149760, Note_on_c, 0, 74, 0
2, 149760, Note_on_c, 0, 62, 0
2, 149760, Note_on_c, 0, 68, 0
2, 149760, Note_on_c, 0, 61, 46
2, 149760, Note_on_c, 0, 68, 46
2, 149760, Note_on_c, 0, 73, 46
2, 150480, Note_on_c, 0, 73, 0
2, 150480, Note_on_c, 0, 68, 0
2, 150480, Note_on_c, 0, 61, 0
2, 150480, Note_on_c, 0, 68, 57
2, 150480, Note_on_c, 0, 76, 57
2, 150480, Note_on_c, 0, 80, 57
2, 151200, Note_on_c, 0, 80, 0
2, 151200, Note_on_c, 0, 76, 0
2, 151200, Note_on_c, 0, 68, 0
2, 151200, Note_on_c, 0, 66, 56
2, 151200, Note_on_c, 0, 75, 56
2, 151200, Note_on_c, 0, 78, 56
2, 151920, Note_on_c, 0, 78, 0
2, 151920, Note_on_c, 0, 75, 0
2, 151920, Note_on_c, 0, 66, 0
2, 151920, Note_on_c, 0, 64, 52
2, 151920, Note_on_c, 0, 73, 52
2, 151920, Note_on_c, 0, 76, 52
2, 152160, Note_on_c, 0, 76, 0
2, 152160, Note_on_c, 0, 64, 0
2, 152160, Note_on_c, 0, 68, 43
2, 152160, Note_on_c, 0, 80, 43
2, 152400, Note_on_c, 0, 80, 0
2, 152400, Note_on_c, 0, 68, 0
2, 152400, Note_on_c, 0, 64, 47
2, 152400, Note_on_c, 0, 76, 47
2, 152640, Note_on_c, 0, 76, 0
2, 152640, Note_on_c, 0, 64, 0
2, 152640, Note_on_c, 0, 73, 0
2, 152640, Note_on_c, 0, 67, 47
2, 152640, Note_on_c, 0, 70, 47
2, 152640, Note_on_c, 0, 63, 47
2, 152640, Note_on_c, 0, 75, 47
2, 153360, Note_on_c, 0, 75, 0
2, 153360, Note_on_c, 0, 63, 0
2, 153360, Note_on_c, 0, 61, 48
2, 153360, Note_on_c, 0, 73, 48
2, 153600, Note_on_c, 0, 73, 0
2, 153600, Note_on_c, 0, 61, 0
2, 153600, Note_on_c, 0, 63, 45
2, 153600, Note_on_c, 0, 75, 45
2, 153840, Note_on_c, 0, 75, 0
2, 153840, Note_on_c, 0, 63, 0
2, 153840, Note_on_c, 0, 59, 42
2, 153840, Note_on_c, 0, 71, 42
2, 154080, Note_on_c, 0, 71, 0
2, 154080, Note_on_c, 0, 67, 0
2, 154080, Note_on_c, 0, 70, 0
2, 154080, Note_on_c, 0, 59, 0
2, 154080, Note_on_c, 0, 63, 31
2, 154080, Note_on_c, 0, 67, 31
2, 154080, Note_on_c, 0, 58, 47
2, 154080, Note_on_c, 0, 70, 47
2, 154440, Note_on_c, 0, 70, 0
2, 154440, Note_on_c, 0, 58, 0
2, 154440, Note_on_c, 0, 59, 37
2, 154440, Note_on_c, 0, 71, 37
2, 154560, Note_on_c, 0, 71, 0
2, 154560, Note_on_c, 0, 59, 0
2, 154560, Note_on_c, 0, 58, 32
2, 154560, Note_on_c, 0, 70, 32
2, 154800, Note_on_c, 0, 70, 0
2, 154800, Note_on_c, 0, 58, 0
2, 154800, Note_on_c, 0, 61, 40
2, 154800, Note_on_c, 0, 73, 40
2, 155040, Note_on_c, 0, 73, 0
2, 155040, Note_on_c, 0, 61, 0
2, 155040, Note_on_c, 0, 59, 33
2, 155040, Note_on_c, 0, 71, 33
2, 155280, Note_on_c, 0, 71, 0
2, 155280, Note_on_c, 0, 59, 0
2, 155280, Note_on_c, 0, 58, 30
2, 155280, Note_on_c, 0, 70, 30
2, 155400, Note_on_c, 0, 70, 0
2, 155400, Note_on_c, 0, 58, 0
2, 155520, Note_on_c, 0, 67, 0
2, 155520, Note_on_c, 0, 63, 0
2, 156960, Note_on_c, 0, 69, 33
2, 156960, Note_on_c, 0, 73, 33
2, 156960, Note_on_c, 0, 64, 37
2, 156960, Note_on_c, 0, 76, 37
2, 157440, Note_on_c, 0, 76, 0
2, 157440, Note_on_c, 0, 64, 0
2, 157440, Note_on_c, 0, 64, 36
2, 157440, Note_on_c, 0, 76, 36
2, 157680, Note_on_c, 0, 76, 0
2, 157680, Note_on_c, 0, 69, 0
2, 157680, Note_on_c, 0, 73, 0
2, 157680, Note_on_c, 0, 64, 0
2, 157680, Note_on_c, 0, 69, 36
2, 157680, Note_on_c, 0, 73, 36
2, 157680, Note_on_c, 0, 66, 41
2, 157680, Note_on_c, 0, 78, 41
2, 158040, Note_on_c, 0, 78, 0
2, 158040, Note_on_c, 0, 66, 0
2, 158040, Note_on_c, 0, 64, 38
2, 158040, Note_on_c, 0, 76, 38
2, 158160, Note_on_c, 0, 76, 0
2, 158160, Note_on_c, 0, 64, 0
2, 158160, Note_on_c, 0, 63, 35
2, 158160, Note_on_c, 0, 75, 35
2, 158280, Note_on_c, 0, 75, 0
2, 158280, Note_on_c, 0, 63, 0
2, 158400, Note_on_c, 0, 73, 0
2, 158400, Note_on_c, 0, 69, 0
2, 158400, Note_on_c, 0, 69, 36
2, 158400, Note_on_c, 0, 73, 36
2, 158400, Note_on_c, 0, 64, 41
2, 158400, Note_on_c, 0, 76, 41
2, 158880, Note_on_c, 0, 76, 0
2, 158880, Note_on_c, 0, 64, 0
2, 158880, Note_on_c, 0, 64, 37
2, 158880, Note_on_c, 0, 76, 37
2, 159120, Note_on_c, 0, 76, 0
2, 159120, Note_on_c, 0, 69, 0
2, 159120, Note_on_c, 0, 73, 0
2, 159120, Note_on_c, 0, 64, 0
2, 159120, Note_on_c, 0, 69, 35
2, 159120, Note_on_c, 0, 73, 35
2, 159120, Note_on_c, 0, 66, 38
2, 159120, Note_on_c, 0, 78, 38
2, 159480, Note_on_c, 0, 78, 0
2, 159480, Note_on_c, 0, 66, 0
2, 159480, Note_on_c, 0, 64, 33
2, 159480, Note_on_c, 0, 76, 33
2, 159600, Note_on_c, 0, 76, 0
2, 159600, Note_on_c, 0, 64, 0
2, 159600, Note_on_c, 0, 63, 33
2, 159600, Note_on_c, 0, 75, 33
2, 159720, Note_on_c, 0, 75, 0
2, 159720, Note_on_c, 0, 63, 0
2, 159840, Note_on_c, 0, 73, 0
2, 159840, Note_on_c, 0, 69, 0
2, 161280, Note_on_c, 0, 64, 47
2, 161280, Note_on_c, 0, 68, 47
2, 161280, Note_on_c, 0, 73, 47
2, 161280, Note_on_c, 0, 61, 47
2, 162000, Note_on_c, 0, 61, 0
2, 162000, Note_on_c, 0, 64, 0
2, 162000, Note_on_c, 0, 68, 0
2, 162000, Note_on_c, 0, 73, 0
2, 162000, Note_on_c, 0, 68, 56
2, 162000, Note_on_c, 0, 73, 56
2, 162000, Note_on_c, 0, 76, 56
2, 162000, Note_on_c, 0, 80, 56
2, 162720, Note_on_c, 0, 80, 0
2, 162720, Note_on_c, 0, 68, 0
2, 162720, Note_on_c, 0, 73, 0
2, 162720, Note_on_c, 0, 76, 0
2, 162720, Note_on_c, 0, 66, 52
2, 162720, Note_on_c, 0, 68, 52
2, 162720, Note_on_c, 0, 75, 52
2, 162720, Note_on_c, 0, 78, 52
2, 163440, Note_on_c, 0, 78, 0
2, 163440, Note_on_c, 0, 66, 0
2, 163440, Note_on_c, 0, 68, 0
2, 163440, Note_on_c, 0, 75, 0
2, 163440, Note_on_c, 0, 64, 47
2, 163440, Note_on_c, 0, 68, 47
2, 163440, Note_on_c, 0, 73, 47
2, 163440, Note_on_c, 0, 76, 47
2, 164160, Note_on_c, 0, 76, 0
2, 164160, Note_on_c, 0, 64, 0
2, 164160, Note_on_c, 0, 68, 0
2, 164160, Note_on_c, 0, 73, 0
2, 165600, Note_on_c, 0, 63, 37
2, 165600, Note_on_c, 0, 67, 37
2, 165600, Note_on_c, 0, 58, 42
2, 165600, Note_on_c, 0, 70, 42
2, 165960, Note_on_c, 0, 70, 0
2, 165960, Note_on_c, 0, 58, 0
2, 165960, Note_on_c, 0, 59, 35
2, 165960, Note_on_c, 0, 71, 35
2, 166080, Note_on_c, 0, 71, 0
2, 166080, Note_on_c, 0, 59, 0
2, 166080, Note_on_c, 0, 58, 28
2, 166080, Note_on_c, 0, 70, 28
2, 166320, Note_on_c, 0, 70, 0
2, 166320, Note_on_c, 0, 63, 0
2, 166320, Note_on_c, 0, 67, 0
2, 166320, Note_on_c, 0, 58, 0
2, 166320, Note_on_c, 0, 63, 37
2, 166320, Note_on_c, 0, 67, 37
2, 166320, Note_on_c, 0, 61, 36
2, 166320, Note_on_c, 0, 73, 36
2, 166560, Note_on_c, 0, 73, 0
2, 166560, Note_on_c, 0, 61, 0
2, 166560, Note_on_c, 0, 59, 32
2, 166560, Note_on_c, 0, 71, 32
2, 166800, Note_on_c, 0, 71, 0
2, 166800, Note_on_c, 0, 59, 0
2, 166800, Note_on_c, 0, 58, 28
2, 166800, Note_on_c, 0, 70, 28
2, 167040, Note_on_c, 0, 70, 0
2, 167040, Note_on_c, 0, 63, 0
2, 167040, Note_on_c, 0, 67, 0
2, 167040, Note_on_c, 0, 58, 0
2, 168240, Note_on_c, 0, 63, 51
2, 168480, Note_on_c, 0, 68, 55
2, 168500, Note_on_c, 0, 63, 0
2, 170160, Note_on_c, 0, 71, 56
2, 170180, Note_on_c, 0, 68, 0
2, 170400, Note_on_c, 0, 70, 51
2, 170420, Note_on_c, 0, 71, 0
2, 170560, Note_on_c, 0, 68, 45
2, 170580, Note_on_c, 0, 70, 0
2, 170600, Note_on_c, 0, 70, 42
2, 170620, Note_on_c, 0, 68, 0
2, 170640, Note_on_c, 0, 68, 57
2, 170660, Note_on_c, 0, 70, 0
2, 170880, Note_on_c, 0, 64, 48
2, 170900, Note_on_c, 0, 68, 0
2, 171120, Note_on_c, 0, 68, 45
2, 171140, Note_on_c, 0, 64, 0
2, 171360, Note_on_c, 0, 68, 0
2, 171360, Note_on_c, 0, 68, 51
2, 171840, Note_on_c, 0, 63, 48
2, 171860, Note_on_c, 0, 68, 0
2, 172080, Note_on_c, 0, 66, 52
2, 172100, Note_on_c, 0, 63, 0
2, 173040, Note_on_c, 0, 64, 48
2, 173060, Note_on_c, 0, 66, 0
2, 173280, Note_on_c, 0, 63, 45
2, 173300, Note_on_c, 0, 64, 0
2, 173480, Note_on_c, 0, 63, 0
2, 173480, Note_on_c, 0, 63, 41
2, 173520, Note_on_c, 0, 64, 52
2, 173540, Note_on_c, 0, 63, 0
2, 173760, Note_on_c, 0, 63, 43
2, 173780, Note_on_c, 0, 64, 0
2, 174000, Note_on_c, 0, 61, 41
2, 174020, Note_on_c, 0, 63, 0
2, 174240, Note_on_c, 0, 63, 51
2, 174260, Note_on_c, 0, 61, 0
2, 174480, Note_on_c, 0, 63, 0
2, 174480, Note_on_c, 0, 56, 46
2, 175440, Note_on_c, 0, 56, 0
2, 177120, Note_on_c, 0, 56, 34
2, 177120, Note_on_c, 0, 58, 34
2, 177120, Note_on_c, 0, 61, 34
2, 177120, Note_on_c, 0, 64, 38
2, 177600, Note_on_c, 0, 64, 0
2, 177600, Note_on_c, 0, 56, 0
2, 177600, Note_on_c, 0, 58, 0
2, 177600, Note_on_c, 0, 61, 0
2, 177840, Note_on_c, 0, 55, 34
2, 177840, Note_on_c, 0, 58, 34
2, 177840, Note_on_c, 0, 61, 34
2, 177840, Note_on_c, 0, 63, 38
2, 178320, Note_on_c, 0, 63, 0
2, 178320, Note_on_c, 0, 55, 0
2, 178320, Note_on_c, 0, 58, 0
2, 178320, Note_on_c, 0, 61, 0
2, 180000, Note_on_c, 0, 54, 34
2, 180000, Note_on_c, 0, 57, 34
2, 180000, Note_on_c, 0, 62, 38
2, 180480, Note_on_c, 0, 62, 0
2, 180480, Note_on_c, 0, 57, 0
2, 180480, Note_on_c, 0, 54, 0
2, 180720, Note_on_c, 0, 52, 34
2, 180720, Note_on_c, 0, 56, 34
2, 180720, Note_on_c, 0, 61, 38
2, 181200, Note_on_c, 0, 61, 0
2, 181200, Note_on_c, 0, 56, 0
2, 181200, Note_on_c, 0, 52, 0
2, 181440, Note_on_c, 0, 55, 38
2, 181440, Note_on_c, 0, 58, 38
2, 181680, Note_on_c, 0, 58, 0
2, 181680, Note_on_c, 0, 55, 0
2, 182640, Note_on_c, 0, 63, 68
2, 182640, Note_on_c, 0, 75, 68
2, 182880, Note_on_c, 0, 75, 0
2, 182880, Note_on_c, 0, 63, 0
2, 182880, Note_on_c, 0, 68, 73
2, 182880, Note_on_c, 0, 80, 73
2, 184320, Note_on_c, 0, 80, 0
2, 184320, Note_on_c, 0, 68, 0
2, 184320, End_track
3, 0, Start_track
3, 0, Title_t, "Piano left"
3, 0, Program_c, 0, 0
3, 0, Control_c, 0, 7, 127
3, 0, Control_c, 0, 10, 64
3, 1, Note_on_c, 0, 53, 52
3, 1, Control_c, 0, 91, 127
3, 480, Note_on_c, 0, 51, 51
3, 481, Note_on_c, 0, 53, 0
3, 960, Note_on_c, 0, 51, 0
3, 960, Note_on_c, 0, 56, 49
3, 1440, Note_on_c, 0, 56, 0
3, 1440, Note_on_c, 0, 58, 45
3, 1680, Note_on_c, 0, 58, 0
3, 1680, Note_on_c, 0, 63, 45
3, 1920, Note_on_c, 0, 63, 0
3, 1920, Note_on_c, 0, 60, 48
3, 2400, Note_on_c, 0, 60, 0
3, 2400, Note_on_c, 0, 58, 44
3, 2640, Note_on_c, 0, 58, 0
3, 2640, Note_on_c, 0, 63, 46
3, 2880, Note_on_c, 0, 63, 0
3, 2880, Note_on_c, 0, 60, 42
3, 3360, Note_on_c, 0, 60, 0
3, 3360, Note_on_c, 0, 56, 48
3, 3840, Note_on_c, 0, 56, 0
3, 3840, Note_on_c, 0, 58, 46
3, 4320, Note_on_c, 0, 58, 0
3, 4320, Note_on_c, 0, 53, 48
3, 4800, Note_on_c, 0, 53, 0
3, 4800, Note_on_c, 0, 51, 48
3, 5250, Note_on_c, 0, 51, 0
3, 5280, Note_on_c, 0, 53, 51
3, 5760, Note_on_c, 0, 53, 0
3, 5760, Note_on_c, 0, 51, 51
3, 6240, Note_on_c, 0, 51, 0
3, 6240, Note_on_c, 0, 56, 51
3, 6720, Note_on_c, 0, 56, 0
3, 6720, Note_on_c, 0, 58, 56
3, 6960, Note_on_c, 0, 58, 0
3, 6960, Note_on_c, 0, 63, 56
3, 7200, Note_on_c, 0, 63, 0
3, 7200, Note_on_c, 0, 60, 55
3, 7680, Note_on_c, 0, 60, 0
3, 7680, Note_on_c, 0, 58, 59
3, 7920, Note_on_c, 0, 58, 0
3, 7920, Note_on_c, 0, 63, 56
3, 8160, Note_on_c, 0, 63, 0
3, 8160, Note_on_c, 0, 60, 58
3, 8640, Note_on_c, 0, 60, 0
3, 8640, Note_on_c, 0, 56, 44
3, 9120, Note_on_c, 0, 56, 0
3, 9120, Note_on_c, 0, 58, 45
3, 9600, Note_on_c, 0, 58, 0
3, 9600, Note_on_c, 0, 53, 41
3, 10080, Note_on_c, 0, 53, 0
3, 10080, Note_on_c, 0, 51, 38
3, 10320, Note_on_c, 0, 51, 0
3, 10560, Note_on_c, 0, 51, 52
3, 11040, Note_on_c, 0, 51, 0
3, 11040, Note_on_c, 0, 53, 51
3, 11520, Note_on_c, 0, 53, 0
3, 11520, Note_on_c, 0, 48, 49
3, 12000, Note_on_c, 0, 48, 0
3, 12000, Note_on_c, 0, 51, 48
3, 12240, Note_on_c, 0, 53, 42
3, 12264, Note_on_c, 0, 51, 0
3, 12480, Note_on_c, 0, 53, 0
3, 12480, Note_on_c, 0, 46, 47
3, 12960, Note_on_c, 0, 46, 0
3, 12960, Note_on_c, 0, 53, 44
3, 13200, Note_on_c, 0, 55, 41
3, 13224, Note_on_c, 0, 53, 0
3, 13440, Note_on_c, 0, 55, 0
3, 13440, Note_on_c, 0, 51, 42
3, 13890, Note_on_c, 0, 51, 0
3, 13920, Note_on_c, 0, 63, 57
3, 14400, Note_on_c, 0, 63, 0
3, 14400, Note_on_c, 0, 60, 52
3, 14880, Note_on_c, 0, 60, 0
3, 14880, Note_on_c, 0, 58, 53
3, 15120, Note_on_c, 0, 56, 48
3, 15144, Note_on_c, 0, 58, 0
3, 15360, Note_on_c, 0, 56, 0
3, 15360, Note_on_c, 0, 51, 48
3, 15810, Note_on_c, 0, 51, 0
3, 15840, Note_on_c, 0, 51, 56
3, 16320, Note_on_c, 0, 51, 0
3, 16320, Note_on_c, 0, 53, 53
3, 16800, Note_on_c, 0, 53, 0
3, 16800, Note_on_c, 0, 48, 51
3, 17280, Note_on_c, 0, 48, 0
3, 17280, Note_on_c, 0, 51, 51
3, 17520, Note_on_c, 0, 53, 47
3, 17544, Note_on_c, 0, 51, 0
3, 17760, Note_on_c, 0, 53, 0
3, 17760, Note_on_c, 0, 46, 53
3, 18240, Note_on_c, 0, 46, 0
3, 18240, Note_on_c, 0, 53, 51
3, 18480, Note_on_c, 0, 55, 47
3, 18504, Note_on_c, 0, 53, 0
3, 18720, Note_on_c, 0, 55, 0
3, 18720, Note_on_c, 0, 51, 51
3, 19170, Note_on_c, 0, 51, 0
3, 19200, Note_on_c, 0, 63, 56
3, 19680, Note_on_c, 0, 63, 0
3, 19680, Note_on_c, 0, 60, 50
3, 20160, Note_on_c, 0, 60, 0
3, 20160, Note_on_c, 0, 58, 49
3, 20400, Note_on_c, 0, 56, 42
3, 20424, Note_on_c, 0, 58, 0
3, 20640, Note_on_c, 0, 56, 0
3, 20640, Note_on_c, 0, 51, 48
3, 20880, Note_on_c, 0, 51, 0
3, 21120, Note_on_c, 0, 51, 53
3, 22560, Note_on_c, 0, 51, 0
3, 22560, Note_on_c, 0, 44, 56
3, 23520, Note_on_c, 0, 44, 0
3, 23520, Note_on_c, 0, 39, 56
3, 24960, Note_on_c, 0, 39, 0
3, 24960, Note_on_c, 0, 32, 51
3, 25920, Note_on_c, 0, 32, 0
3, 26400, Note_on_c, 0, 56, 35
3, 26400, Note_on_c, 0, 61, 35
3, 26400, Note_on_c, 0, 65, 42
3, 26880, Note_on_c, 0, 65, 0
3, 26880, Note_on_c, 0, 61, 0
3, 26880, Note_on_c, 0, 56, 0
3, 26880, Note_on_c, 0, 58, 38
3, 26880, Note_on_c, 0, 63, 45
3, 26880, Note_on_c, 0, 55, 38
3, 27360, Note_on_c, 0, 55, 0
3, 27360, Note_on_c, 0, 63, 0
3, 27360, Note_on_c, 0, 58, 0
3, 27360, Note_on_c, 0, 63, 34
3, 27360, Note_on_c, 0, 68, 40
3, 27360, Note_on_c, 0, 60, 34
3, 27840, Note_on_c, 0, 60, 0
3, 27840, Note_on_c, 0, 68, 0
3, 27840, Note_on_c, 0, 63, 0
3, 27840, Note_on_c, 0, 63, 34
3, 27840, Note_on_c, 0, 70, 40
3, 27840, Note_on_c, 0, 67, 34
3, 28080, Note_on_c, 0, 70, 0
3, 28080, Note_on_c, 0, 75, 34
3, 28320, Note_on_c, 0, 75, 0
3, 28320, Note_on_c, 0, 67, 0
3, 28320, Note_on_c, 0, 68, 35
3, 28320, Note_on_c, 0, 72, 42
3, 28560, Note_on_c, 0, 72, 0
3, 28560, Note_on_c, 0, 68, 0
3, 28560, Note_on_c, 0, 63, 0
3, 28800, Note_on_c, 0, 65, 33
3, 28800, Note_on_c, 0, 70, 39
3, 28800, Note_on_c, 0, 61, 33
3, 29040, Note_on_c, 0, 70, 0
3, 29040, Note_on_c, 0, 75, 34
3, 29280, Note_on_c, 0, 75, 0
3, 29280, Note_on_c, 0, 61, 0
3, 29280, Note_on_c, 0, 65, 0
3, 29280, Note_on_c, 0, 67, 32
3, 29280, Note_on_c, 0, 72, 38
3, 29280, Note_on_c, 0, 63, 32
3, 29760, Note_on_c, 0, 63, 0
3, 29760, Note_on_c, 0, 72, 0
3, 29760, Note_on_c, 0, 67, 0
3, 29760, Note_on_c, 0, 60, 28
3, 29760, Note_on_c, 0, 63, 28
3, 29760, Note_on_c, 0, 68, 34
3, 30240, Note_on_c, 0, 68, 0
3, 30240, Note_on_c, 0, 63, 0
3, 30240, Note_on_c, 0, 60, 0
3, 30240, Note_on_c, 0, 65, 29
3, 30240, Note_on_c, 0, 70, 35
3, 30240, Note_on_c, 0, 62, 29
3, 30720, Note_on_c, 0, 62, 0
3, 30720, Note_on_c, 0, 70, 0
3, 30720, Note_on_c, 0, 65, 0
3, 30720, Note_on_c, 0, 58, 27
3, 30720, Note_on_c, 0, 65, 32
3, 30720, Note_on_c, 0, 62, 27
3, 31200, Note_on_c, 0, 62, 0
3, 31200, Note_on_c, 0, 65, 0
3, 31200, Note_on_c, 0, 58, 0
3, 31200, Note_on_c, 0, 55, 26
3, 31200, Note_on_c, 0, 58, 26
3, 31200, Note_on_c, 0, 63, 31
3, 31440, Note_on_c, 0, 63, 0
3, 31440, Note_on_c, 0, 58, 0
3, 31440, Note_on_c, 0, 55, 0
3, 41760, Note_on_c, 0, 51, 41
3, 43920, Note_on_c, 0, 51, 0
3, 43920, Note_on_c, 0, 52, 41
3, 44640, Note_on_c, 0, 52, 0
3, 44640, Note_on_c, 0, 51, 41
3, 46800, Note_on_c, 0, 51, 0
3, 46800, Note_on_c, 0, 52, 41
3, 47520, Note_on_c, 0, 52, 0
3, 47520, Note_on_c, 0, 51, 41
3, 48960, Note_on_c, 0, 51, 0
3, 48960, Note_on_c, 0, 52, 41
3, 50400, Note_on_c, 0, 52, 0
3, 50400, Note_on_c, 0, 51, 45
3, 50760, Note_on_c, 0, 52, 38
3, 50780, Note_on_c, 0, 51, 0
3, 50880, Note_on_c, 0, 51, 43
3, 50900, Note_on_c, 0, 52, 0
3, 51120, Note_on_c, 0, 51, 0
3, 51120, Note_on_c, 0, 54, 45
3, 51360, Note_on_c, 0, 52, 43
3, 51380, Note_on_c, 0, 54, 0
3, 51600, Note_on_c, 0, 51, 45
3, 51620, Note_on_c, 0, 52, 0
3, 51840, Note_on_c, 0, 51, 0
3, 51840, Note_on_c, 0, 49, 45
3, 52200, Note_on_c, 0, 51, 43
3, 52220, Note_on_c, 0, 49, 0
3, 52320, Note_on_c, 0, 49, 43
3, 52340, Note_on_c, 0, 51, 0
3, 52560, Note_on_c, 0, 49, 0
3, 52560, Note_on_c, 0, 52, 47
3, 52800, Note_on_c, 0, 51, 43
3, 52820, Note_on_c, 0, 52, 0
3, 53040, Note_on_c, 0, 49, 39
3, 53060, Note_on_c, 0, 51, 0
3, 53280, Note_on_c, 0, 49, 0
3, 53280, Note_on_c, 0, 47, 45
3, 53760, Note_on_c, 0, 49, 42
3, 53780, Note_on_c, 0, 47, 0
3, 54000, Note_on_c, 0, 51, 47
3, 54020, Note_on_c, 0, 49, 0
3, 54240, Note_on_c, 0, 49, 42
3, 54260, Note_on_c, 0, 51, 0
3, 54480, Note_on_c, 0, 47, 40
3, 54500, Note_on_c, 0, 49, 0
3, 54720, Note_on_c, 0, 47, 0
3, 54720, Note_on_c, 0, 46, 43
3, 55080, Note_on_c, 0, 47, 38
3, 55100, Note_on_c, 0, 46, 0
3, 55200, Note_on_c, 0, 46, 45
3, 55220, Note_on_c, 0, 47, 0
3, 55440, Note_on_c, 0, 46, 0
3, 55440, Note_on_c, 0, 49, 46
3, 55680, Note_on_c, 0, 47, 42
3, 55700, Note_on_c, 0, 49, 0
3, 55920, Note_on_c, 0, 46, 40
3, 55940, Note_on_c, 0, 47, 0
3, 56160, Note_on_c, 0, 46, 0
3, 56160, Note_on_c, 0, 47, 42
3, 56880, Note_on_c, 0, 47, 0
3, 57600, Note_on_c, 0, 51, 41
3, 59760, Note_on_c, 0, 51, 0
3, 59760, Note_on_c, 0, 52, 41
3, 60480, Note_on_c, 0, 52, 0
3, 60480, Note_on_c, 0, 51, 41
3, 61200, Note_on_c, 0, 51, 0
3, 61200, Note_on_c, 0, 56, 41
3, 62640, Note_on_c, 0, 56, 0
3, 62640, Note_on_c, 0, 52, 41
3, 63360, Note_on_c, 0, 52, 0
3, 63360, Note_on_c, 0, 51, 41
3, 64800, Note_on_c, 0, 51, 0
3, 64800, Note_on_c, 0, 48, 41
3, 66240, Note_on_c, 0, 48, 0
3, 66240, Note_on_c, 0, 49, 38
3, 66960, Note_on_c, 0, 49, 0
3, 66960, Note_on_c, 0, 51, 40
3, 67680, Note_on_c, 0, 51, 0
3, 67680, Note_on_c, 0, 52, 40
3, 68400, Note_on_c, 0, 52, 0
3, 68400, Note_on_c, 0, 51, 38
3, 71760, Note_on_c, 0, 51, 0
3, 72000, Note_on_c, 0, 49, 35
3, 72000, Note_on_c, 0, 52, 35
3, 72720, Note_on_c, 0, 52, 0
3, 72720, Note_on_c, 0, 49, 0
3, 72720, Note_on_c, 0, 51, 33
3, 72720, Note_on_c, 0, 54, 33
3, 73440, Note_on_c, 0, 54, 0
3, 73440, Note_on_c, 0, 51, 0
3, 73440, Note_on_c, 0, 49, 35
3, 73440, Note_on_c, 0, 52, 35
3, 74160, Note_on_c, 0, 52, 0
3, 74160, Note_on_c, 0, 49, 0
3, 74160, Note_on_c, 0, 51, 32
3, 74160, Note_on_c, 0, 54, 32
3, 74880, Note_on_c, 0, 54, 0
3, 74880, Note_on_c, 0, 51, 0
3, 74880, Note_on_c, 0, 49, 35
3, 74880, Note_on_c, 0, 52, 35
3, 75600, Note_on_c, 0, 52, 0
3, 75600, Note_on_c, 0, 49, 0
3, 75600, Note_on_c, 0, 50, 35
3, 75600, Note_on_c, 0, 54, 35
3, 77760, Note_on_c, 0, 54, 0
3, 77760, Note_on_c, 0, 50, 0
3, 77760, Note_on_c, 0, 52, 37
3, 77760, Note_on_c, 0, 56, 37
3, 78480, Note_on_c, 0, 56, 0
3, 78480, Note_on_c, 0, 52, 0
3, 78480, Note_on_c, 0, 49, 39
3, 78480, Note_on_c, 0, 52, 39
3, 79200, Note_on_c, 0, 52, 0
3, 79200, Note_on_c, 0, 49, 0
3, 79200, Note_on_c, 0, 51, 36
3, 79200, Note_on_c, 0, 54, 36
3, 79920, Note_on_c, 0, 54, 0
3, 79920, Note_on_c, 0, 51, 0
3, 79920, Note_on_c, 0, 52, 33
3, 79920, Note_on_c, 0, 56, 33
3, 80640, Note_on_c, 0, 56, 0
3, 80640, Note_on_c, 0, 52, 0
3, 80640, Note_on_c, 0, 51, 40
3, 82080, Note_on_c, 0, 51, 0
3, 82080, Note_on_c, 0, 55, 33
3, 83520, Note_on_c, 0, 55, 0
3, 83520, Note_on_c, 0, 56, 33
3, 84720, Note_on_c, 0, 56, 0
3, 84960, Note_on_c, 0, 49, 35
3, 84960, Note_on_c, 0, 52, 35
3, 85680, Note_on_c, 0, 52, 0
3, 85680, Note_on_c, 0, 49, 0
3, 85680, Note_on_c, 0, 51, 33
3, 85680, Note_on_c, 0, 54, 33
3, 86400, Note_on_c, 0, 54, 0
3, 86400, Note_on_c, 0, 51, 0
3, 86400, Note_on_c, 0, 49, 35
3, 86400, Note_on_c, 0, 52, 35
3, 87120, Note_on_c, 0, 52, 0
3, 87120, Note_on_c, 0, 49, 0
3, 87120, Note_on_c, 0, 51, 32
3, 87120, Note_on_c, 0, 54, 32
3, 87840, Note_on_c, 0, 54, 0
3, 87840, Note_on_c, 0, 51, 0
3, 87840, Note_on_c, 0, 49, 35
3, 87840, Note_on_c, 0, 52, 35
3, 88560, Note_on_c, 0, 52, 0
3, 88560, Note_on_c, 0, 49, 0
3, 88560, Note_on_c, 0, 50, 35
3, 88560, Note_on_c, 0, 54, 35
3, 90720, Note_on_c, 0, 54, 0
3, 90720, Note_on_c, 0, 50, 0
3, 90720, Note_on_c, 0, 52, 37
3, 90720, Note_on_c, 0, 56, 37
3, 91440, Note_on_c, 0, 56, 0
3, 91440, Note_on_c, 0, 52, 0
3, 91440, Note_on_c, 0, 49, 35
3, 91440, Note_on_c, 0, 52, 35
3, 92160, Note_on_c, 0, 52, 0
3, 92160, Note_on_c, 0, 49, 0
3, 92160, Note_on_c, 0, 51, 35
3, 92160, Note_on_c, 0, 54, 35
3, 92880, Note_on_c, 0, 54, 0
3, 92880, Note_on_c, 0, 51, 0
3, 92880, Note_on_c, 0, 52, 33
3, 92880, Note_on_c, 0, 56, 33
3, 93600, Note_on_c, 0, 56, 0
3, 93600, Note_on_c, 0, 52, 0
3, 93600, Note_on_c, 0, 55, 40
3, 95040, Note_on_c, 0, 55, 0
3, 95040, Note_on_c, 0, 51, 33
3, 96480, Note_on_c, 0, 51, 0
3, 96480, Note_on_c, 0, 51, 45
3, 96840, Note_on_c, 0, 52, 38
3, 96860, Note_on_c, 0, 51, 0
3, 96960, Note_on_c, 0, 51, 43
3, 96980, Note_on_c, 0, 52, 0
3, 97200, Note_on_c, 0, 51, 0
3, 97200, Note_on_c, 0, 54, 45
3, 97440, Note_on_c, 0, 52, 43
3, 97460, Note_on_c, 0, 54, 0
3, 97680, Note_on_c, 0, 51, 45
3, 97700, Note_on_c, 0, 52, 0
3, 97920, Note_on_c, 0, 51, 0
3, 97920, Note_on_c, 0, 49, 45
3, 98280, Note_on_c, 0, 51, 43
3, 98300, Note_on_c, 0, 49, 0
3, 98400, Note_on_c, 0, 49, 43
3, 98420, Note_on_c, 0, 51, 0
3, 98640, Note_on_c, 0, 49, 0
3, 98640, Note_on_c, 0, 52, 47
3, 98880, Note_on_c, 0, 51, 43
3, 98900, Note_on_c, 0, 52, 0
3, 99120, Note_on_c, 0, 49, 39
3, 99140, Note_on_c, 0, 51, 0
3, 99360, Note_on_c, 0, 49, 0
3, 99360, Note_on_c, 0, 47, 45
3, 99840, Note_on_c, 0, 49, 42
3, 99860, Note_on_c, 0, 47, 0
3, 100080, Note_on_c, 0, 51, 47
3, 100100, Note_on_c, 0, 49, 0
3, 100320, Note_on_c, 0, 49, 42
3, 100340, Note_on_c, 0, 51, 0
3, 100560, Note_on_c, 0, 47, 40
3, 100580, Note_on_c, 0, 49, 0
3, 100800, Note_on_c, 0, 47, 0
3, 100800, Note_on_c, 0, 46, 43
3, 101160, Note_on_c, 0, 47, 38
3, 101180, Note_on_c, 0, 46, 0
3, 101280, Note_on_c, 0, 46, 45
3, 101300, Note_on_c, 0, 47, 0
3, 101520, Note_on_c, 0, 46, 0
3, 101520, Note_on_c, 0, 49, 46
3, 101760, Note_on_c, 0, 47, 42
3, 101780, Note_on_c, 0, 49, 0
3, 102000, Note_on_c, 0, 46, 40
3, 102020, Note_on_c, 0, 47, 0
3, 102240, Note_on_c, 0, 46, 0
3, 102240, Note_on_c, 0, 47, 42
3, 102960, Note_on_c, 0, 47, 0
3, 103680, Note_on_c, 0, 51, 41
3, 105840, Note_on_c, 0, 51, 0
3, 105840, Note_on_c, 0, 52, 41
3, 106560, Note_on_c, 0, 52, 0
3, 106560, Note_on_c, 0, 51, 41
3, 107280, Note_on_c, 0, 51, 0
3, 107280, Note_on_c, 0, 56, 40
3, 108720, Note_on_c, 0, 56, 0
3, 109440, Note_on_c, 0, 60, 41
3, 110880, Note_on_c, 0, 60, 0
3, 110880, Note_on_c, 0, 58, 41
3, 112320, Note_on_c, 0, 58, 0
3, 112320, Note_on_c, 0, 57, 41
3, 113760, Note_on_c, 0, 57, 0
3, 113760, Note_on_c, 0, 56, 41
3, 115200, Note_on_c, 0, 56, 0
3, 115200, Note_on_c, 0, 54, 41
3, 118080, Note_on_c, 0, 54, 0
3, 118080, Note_on_c, 0, 53, 36
3, 118800, Note_on_c, 0, 53, 0
3, 118800, Note_on_c, 0, 52, 36
3, 119520, Note_on_c, 0, 52, 0
3, 119520, Note_on_c, 0, 53, 36
3, 120240, Note_on_c, 0, 53, 0
3, 120240, Note_on_c, 0, 52, 36
3, 120960, Note_on_c, 0, 52, 0
3, 120960, Note_on_c, 0, 53, 36
3, 122400, Note_on_c, 0, 53, 0
3, 122400, Note_on_c, 0, 52, 36
3, 123120, Note_on_c, 0, 52, 0
3, 123120, Note_on_c, 0, 49, 43
3, 123840, Note_on_c, 0, 49, 0
3, 123840, Note_on_c, 0, 51, 42
3, 124560, Note_on_c, 0, 51, 0
3, 124560, Note_on_c, 0, 56, 40
3, 125280, Note_on_c, 0, 56, 0
3, 125280, Note_on_c, 0, 51, 40
3, 126000, Note_on_c, 0, 51, 0
3, 126000, Note_on_c, 0, 55, 40
3, 126720, Note_on_c, 0, 55, 0
3, 126720, Note_on_c, 0, 51, 33
3, 127440, Note_on_c, 0, 51, 0
3, 127440, Note_on_c, 0, 55, 33
3, 128160, Note_on_c, 0, 55, 0
3, 128160, Note_on_c, 0, 51, 33
3, 128880, Note_on_c, 0, 51, 0
3, 128880, Note_on_c, 0, 56, 33
3, 130800, Note_on_c, 0, 56, 0
3, 131040, Note_on_c, 0, 51, 38
3, 133200, Note_on_c, 0, 51, 0
3, 133200, Note_on_c, 0, 52, 41
3, 133920, Note_on_c, 0, 52, 0
3, 133920, Note_on_c, 0, 59, 38
3, 135840, Note_on_c, 0, 59, 0
3, 136800, Note_on_c, 0, 60, 41
3, 138240, Note_on_c, 0, 60, 0
3, 138240, Note_on_c, 0, 58, 41
3, 139680, Note_on_c, 0, 58, 0
3, 139680, Note_on_c, 0, 57, 41
3, 141120, Note_on_c, 0, 57, 0
3, 141120, Note_on_c, 0, 56, 41
3, 142560, Note_on_c, 0, 56, 0
3, 142560, Note_on_c, 0, 54, 41
3, 145440, Note_on_c, 0, 54, 0
3, 145440, Note_on_c, 0, 53, 36
3, 146160, Note_on_c, 0, 53, 0
3, 146160, Note_on_c, 0, 52, 36
3, 146880, Note_on_c, 0, 52, 0
3, 146880, Note_on_c, 0, 53, 36
3, 147600, Note_on_c, 0, 53, 0
3, 147600, Note_on_c, 0, 52, 36
3, 148320, Note_on_c, 0, 52, 0
3, 148320, Note_on_c, 0, 53, 36
3, 149760, Note_on_c, 0, 53, 0
3, 149760, Note_on_c, 0, 52, 36
3, 150480, Note_on_c, 0, 52, 0
3, 150480, Note_on_c, 0, 49, 35
3, 151200, Note_on_c, 0, 49, 0
3, 151200, Note_on_c, 0, 51, 35
3, 151920, Note_on_c, 0, 51, 0
3, 151920, Note_on_c, 0, 56, 33
3, 152640, Note_on_c, 0, 56, 0
3, 152640, Note_on_c, 0, 51, 40
3, 153360, Note_on_c, 0, 51, 0
3, 153360, Note_on_c, 0, 55, 40
3, 154080, Note_on_c, 0, 55, 0
3, 154080, Note_on_c, 0, 51, 33
3, 154800, Note_on_c, 0, 51, 0
3, 154800, Note_on_c, 0, 55, 31
3, 155400, Note_on_c, 0, 55, 0
3, 156960, Note_on_c, 0, 49, 28
3, 156960, Note_on_c, 0, 52, 28
3, 157680, Note_on_c, 0, 52, 0
3, 157680, Note_on_c, 0, 49, 0
3, 157680, Note_on_c, 0, 51, 27
3, 157680, Note_on_c, 0, 54, 27
3, 158400, Note_on_c, 0, 54, 0
3, 158400, Note_on_c, 0, 51, 0
3, 158400, Note_on_c, 0, 49, 28
3, 158400, Note_on_c, 0, 52, 28
3, 159120, Note_on_c, 0, 52, 0
3, 159120, Note_on_c, 0, 49, 0
3, 159120, Note_on_c, 0, 51, 27
3, 159120, Note_on_c, 0, 54, 27
3, 159720, Note_on_c, 0, 54, 0
3, 159720, Note_on_c, 0, 51, 0
3, 161280, Note_on_c, 0, 52, 35
3, 161280, Note_on_c, 0, 56, 35
3, 162000, Note_on_c, 0, 56, 0
3, 162000, Note_on_c, 0, 52, 0
3, 162000, Note_on_c, 0, 49, 42
3, 162000, Note_on_c, 0, 52, 42
3, 162720, Note_on_c, 0, 52, 0
3, 162720, Note_on_c, 0, 49, 0
3, 162720, Note_on_c, 0, 51, 38
3, 162720, Note_on_c, 0, 54, 38
3, 163440, Note_on_c, 0, 54, 0
3, 163440, Note_on_c, 0, 51, 0
3, 163440, Note_on_c, 0, 52, 36
3, 163440, Note_on_c, 0, 56, 36
3, 164160, Note_on_c, 0, 56, 0
3, 164160, Note_on_c, 0, 52, 0
3, 165600, Note_on_c, 0, 51, 27
3, 166320, Note_on_c, 0, 51, 0
3, 166320, Note_on_c, 0, 55, 27
3, 167040, Note_on_c, 0, 55, 0
3, 168480, Note_on_c, 0, 51, 40
3, 170640, Note_on_c, 0, 51, 0
3, 170640, Note_on_c, 0, 52, 40
3, 171360, Note_on_c, 0, 52, 0
3, 171360, Note_on_c, 0, 59, 42
3, 171840, Note_on_c, 0, 59, 0
3, 172080, Note_on_c, 0, 58, 40
3, 172560, Note_on_c, 0, 58, 0
3, 172560, Note_on_c, 0, 57, 38
3, 172800, Note_on_c, 0, 57, 0
3, 172800, Note_on_c, 0, 56, 46
3, 173040, Note_on_c, 0, 56, 0
3, 173040, Note_on_c, 0, 55, 43
3, 173520, Note_on_c, 0, 55, 0
3, 173520, Note_on_c, 0, 48, 48
3, 174000, Note_on_c, 0, 48, 0
3, 174000, Note_on_c, 0, 49, 41
3, 174240, Note_on_c, 0, 49, 0
3, 177120, Note_on_c, 0, 49, 38
3, 177600, Note_on_c, 0, 49, 0
3, 177840, Note_on_c, 0, 51, 38
3, 178320, Note_on_c, 0, 51, 0
3, 180000, Note_on_c, 0, 48, 38
3, 180480, Note_on_c, 0, 48, 0
3, 180720, Note_on_c, 0, 49, 38
3, 181200, Note_on_c, 0, 49, 0
3, 182760, Note_on_c, 0, 44, 51
3, 182820, Note_on_c, 0, 51, 51
3, 182880, Note_on_c, 0, 59, 51
3, 183360, Note_on_c, 0, 59, 0
3, 183360, Note_on_c, 0, 51, 0
3, 183360, Note_on_c, 0, 44, 0
3, 183360, End_track
4, 0, Start_track
4, 0, Title_t, "Piano left 2"
4, 0, Program_c, 0, 0
4, 0, Control_c, 0, 7, 127
4, 0, Control_c, 0, 10, 64
4, 1, Control_c, 0, 64, 127
4, 459, Control_c, 0, 64, 0
4, 560, Control_c, 0, 64, 127
4, 967, Control_c, 0, 64, 0
4, 1097, Control_c, 0, 64, 127
4, 1451, Control_c, 0, 64, 0
4, 1509, Control_c, 0, 64, 127
4, 1931, Control_c, 0, 64, 0
4, 2023, Control_c, 0, 64, 127
4, 2400, Control_c, 0, 64, 0
4, 2475, Control_c, 0, 64, 127
4, 2891, Control_c, 0, 64, 0
4, 2971, Control_c, 0, 64, 127
4, 3334, Control_c, 0, 64, 0
4, 3486, Control_c, 0, 64, 127
4, 3851, Control_c, 0, 64, 0
4, 3966, Control_c, 0, 64, 127
4, 4327, Control_c, 0, 64, 0
4, 4446, Control_c, 0, 64, 127
4, 4811, Control_c, 0, 64, 0
4, 4972, Control_c, 0, 64, 127
4, 5188, Control_c, 0, 64, 0
4, 5314, Control_c, 0, 64, 127
4, 5765, Control_c, 0, 64, 0
4, 5886, Control_c, 0, 64, 127
4, 6252, Control_c, 0, 64, 0
4, 6411, Control_c, 0, 64, 127
4, 6729, Control_c, 0, 64, 0
4, 6846, Control_c, 0, 64, 127
4, 7209, Control_c, 0, 64, 0
4, 7360, Control_c, 0, 64, 127
4, 7680, Control_c, 0, 64, 0
4, 7840, Control_c, 0, 64, 127
4, 8175, Control_c, 0, 64, 0
4, 8297, Control_c, 0, 64, 127
4, 8645, Control_c, 0, 64, 0
4, 8777, Control_c, 0, 64, 127
4, 9133, Control_c, 0, 64, 0
4, 9246, Control_c, 0, 64, 127
4, 9614, Control_c, 0, 64, 0
4, 9760, Control_c, 0, 64, 127
4, 10087, Control_c, 0, 64, 0
4, 10194, Control_c, 0, 64, 127
4, 10423, Control_c, 0, 64, 0
4, 10687, Control_c, 0, 64, 127
4, 11044, Control_c, 0, 64, 0
4, 11120, Control_c, 0, 64, 127
4, 11533, Control_c, 0, 64, 0
4, 11704, Control_c, 0, 64, 127
4, 12006, Control_c, 0, 64, 0
4, 12678, Control_c, 0, 64, 127
4, 12960, Control_c, 0, 64, 0
4, 13554, Control_c, 0, 64, 127
4, 13795, Control_c, 0, 64, 0
4, 14035, Control_c, 0, 64, 127
4, 14406, Control_c, 0, 64, 0
4, 14583, Control_c, 0, 64, 127
4, 14887, Control_c, 0, 64, 0
4, 15543, Control_c, 0, 64, 127
4, 15703, Control_c, 0, 64, 0
4, 15925, Control_c, 0, 64, 127
4, 16327, Control_c, 0, 64, 0
4, 16490, Control_c, 0, 64, 127
4, 16812, Control_c, 0, 64, 0
4, 16984, Control_c, 0, 64, 127
4, 17286, Control_c, 0, 64, 0
4, 17944, Control_c, 0, 64, 127
4, 18240, Control_c, 0, 64, 0
4, 18835, Control_c, 0, 64, 127
4, 19075, Control_c, 0, 64, 0
4, 19303, Control_c, 0, 64, 127
4, 19689, Control_c, 0, 64, 0
4, 19806, Control_c, 0, 64, 127
4, 20167, Control_c, 0, 64, 0
4, 20755, Control_c, 0, 64, 127
4, 20949, Control_c, 0, 64, 0
4, 21235, Control_c, 0, 64, 127
4, 21607, Control_c, 0, 64, 0
4, 21783, Control_c, 0, 64, 127
4, 22093, Control_c, 0, 64, 0
4, 22297, Control_c, 0, 64, 127
4, 22572, Control_c, 0, 64, 0
4, 22720, Control_c, 0, 64, 127
4, 23044, Control_c, 0, 64, 0
4, 23143, Control_c, 0, 64, 127
4, 23440, Control_c, 0, 64, 0
4, 23566, Control_c, 0, 64, 127
4, 24013, Control_c, 0, 64, 0
4, 24206, Control_c, 0, 64, 127
4, 24493, Control_c, 0, 64, 0
4, 24686, Control_c, 0, 64, 127
4, 24973, Control_c, 0, 64, 0
4, 25155, Control_c, 0, 64, 127
4, 25931, Control_c, 0, 64, 0
4, 26126, Control_c, 0, 64, 127
4, 26309, Control_c, 0, 64, 0
4, 26549, Control_c, 0, 64, 127
4, 26888, Control_c, 0, 64, 0
4, 27017, Control_c, 0, 64, 127
4, 27364, Control_c, 0, 64, 0
4, 27509, Control_c, 0, 64, 127
4, 27847, Control_c, 0, 64, 0
4, 27966, Control_c, 0, 64, 127
4, 28326, Control_c, 0, 64, 0
4, 28423, Control_c, 0, 64, 127
4, 28709, Control_c, 0, 64, 0
4, 28834, Control_c, 0, 64, 127
4, 29291, Control_c, 0, 64, 0
4, 29395, Control_c, 0, 64, 127
4, 29769, Control_c, 0, 64, 0
4, 29897, Control_c, 0, 64, 127
4, 30251, Control_c, 0, 64, 0
4, 30400, Control_c, 0, 64, 127
4, 31208, Control_c, 0, 64, 0
4, 31337, Control_c, 0, 64, 127
4, 31486, Control_c, 0, 64, 0
4, 31680, Note_on_c, 0, 44, 33
4, 31760, Control_c, 0, 64, 127
4, 33840, Note_on_c, 0, 44, 0
4, 33840, Note_on_c, 0, 44, 31
4, 34550, Note_on_c, 0, 44, 0
4, 34560, Note_on_c, 0, 44, 34
4, 34574, Control_c, 0, 64, 0
4, 34613, Control_c, 0, 64, 127
4, 35072, Control_c, 0, 64, 0
4, 35121, Control_c, 0, 64, 127
4, 35270, Note_on_c, 0, 44, 0
4, 35280, Note_on_c, 0, 44, 33
4, 35289, Control_c, 0, 64, 0
4, 35340, Control_c, 0, 64, 127
4, 35779, Control_c, 0, 64, 0
4, 35820, Control_c, 0, 64, 127
4, 35990, Note_on_c, 0, 44, 0
4, 36000, Note_on_c, 0, 44, 34
4, 36007, Control_c, 0, 64, 0
4, 36050, Control_c, 0, 64, 127
4, 36490, Control_c, 0, 64, 0
4, 36547, Control_c, 0, 64, 127
4, 36710, Note_on_c, 0, 44, 0
4, 36720, Note_on_c, 0, 44, 34
4, 36724, Control_c, 0, 64, 0
4, 36812, Control_c, 0, 64, 127
4, 37214, Control_c, 0, 64, 0
4, 37264, Control_c, 0, 64, 127
4, 37430, Note_on_c, 0, 44, 0
4, 37440, Note_on_c, 0, 44, 34
4, 37480, Control_c, 0, 64, 0
4, 37640, Control_c, 0, 64, 127
4, 38175, Control_c, 0, 64, 0
4, 38280, Control_c, 0, 64, 127
4, 38417, Control_c, 0, 64, 0
4, 38547, Control_c, 0, 64, 127
4, 38640, Note_on_c, 0, 44, 0
4, 38880, Note_on_c, 0, 44, 34
4, 38886, Control_c, 0, 64, 0
4, 38937, Control_c, 0, 64, 127
4, 39374, Control_c, 0, 64, 0
4, 39413, Control_c, 0, 64, 127
4, 39604, Control_c, 0, 64, 0
4, 39657, Control_c, 0, 64, 127
4, 39855, Control_c, 0, 64, 0
4, 39897, Control_c, 0, 64, 127
4, 40080, Note_on_c, 0, 44, 0
4, 40096, Control_c, 0, 64, 0
4, 40133, Control_c, 0, 64, 127
4, 40320, Note_on_c, 0, 44, 34
4, 40330, Control_c, 0, 64, 0
4, 40494, Control_c, 0, 64, 127
4, 40790, Note_on_c, 0, 44, 0
4, 40800, Note_on_c, 0, 44, 28
4, 41033, Note_on_c, 0, 44, 0
4, 41520, Note_on_c, 0, 44, 31
4, 41535, Control_c, 0, 64, 0
4, 41667, Control_c, 0, 64, 127
4, 41750, Note_on_c, 0, 44, 0
4, 41760, Note_on_c, 0, 44, 36
4, 42230, Note_on_c, 0, 44, 0
4, 42240, Note_on_c, 0, 44, 29
4, 42470, Note_on_c, 0, 44, 0
4, 42480, Note_on_c, 0, 44, 33
4, 42950, Note_on_c, 0, 44, 0
4, 42960, Note_on_c, 0, 44, 29
4, 43190, Note_on_c, 0, 44, 0
4, 43200, Control_c, 0, 64, 0
4, 43200, Note_on_c, 0, 44, 32
4, 43253, Control_c, 0, 64, 127
4, 43670, Note_on_c, 0, 44, 0
4, 43680, Note_on_c, 0, 44, 33
4, 43686, Control_c, 0, 64, 0
4, 43910, Note_on_c, 0, 44, 0
4, 43920, Note_on_c, 0, 44, 36
4, 43941, Control_c, 0, 64, 127
4, 44390, Note_on_c, 0, 44, 0
4, 44400, Note_on_c, 0, 44, 34
4, 44630, Note_on_c, 0, 44, 0
4, 44640, Note_on_c, 0, 44, 36
4, 44654, Control_c, 0, 64, 0
4, 44760, Control_c, 0, 64, 127
4, 45110, Note_on_c, 0, 44, 0
4, 45120, Note_on_c, 0, 44, 33
4, 45350, Note_on_c, 0, 44, 0
4, 45360, Note_on_c, 0, 44, 36
4, 45371, Control_c, 0, 64, 0
4, 45547, Control_c, 0, 64, 127
4, 45830, Note_on_c, 0, 44, 0
4, 45840, Note_on_c, 0, 44, 33
4, 46070, Note_on_c, 0, 44, 0
4, 46080, Note_on_c, 0, 44, 36
4, 46336, Control_c, 0, 64, 0
4, 46550, Note_on_c, 0, 44, 0
4, 46560, Note_on_c, 0, 44, 33
4, 46790, Note_on_c, 0, 44, 0
4, 46800, Note_on_c, 0, 44, 36
4, 46899, Control_c, 0, 64, 127
4, 47270, Note_on_c, 0, 44, 0
4, 47280, Note_on_c, 0, 44, 33
4, 47291, Control_c, 0, 64, 0
4, 47361, Control_c, 0, 64, 127
4, 47510, Note_on_c, 0, 44, 0
4, 47520, Note_on_c, 0, 44, 36
4, 47535, Control_c, 0, 64, 0
4, 47680, Control_c, 0, 64, 127
4, 47990, Note_on_c, 0, 44, 0
4, 48000, Note_on_c, 0, 44, 30
4, 48230, Note_on_c, 0, 44, 0
4, 48240, Note_on_c, 0, 44, 33
4, 48710, Note_on_c, 0, 44, 0
4, 48720, Note_on_c, 0, 44, 30
4, 48950, Note_on_c, 0, 44, 0
4, 48960, Note_on_c, 0, 44, 34
4, 48970, Control_c, 0, 64, 0
4, 49027, Control_c, 0, 64, 127
4, 49430, Note_on_c, 0, 44, 0
4, 49440, Note_on_c, 0, 44, 33
4, 49447, Control_c, 0, 64, 0
4, 49670, Note_on_c, 0, 44, 0
4, 49680, Note_on_c, 0, 44, 36
4, 49804, Control_c, 0, 64, 127
4, 50150, Note_on_c, 0, 44, 0
4, 50160, Note_on_c, 0, 44, 33
4, 50171, Control_c, 0, 64, 0
4, 50210, Control_c, 0, 64, 127
4, 50390, Note_on_c, 0, 44, 0
4, 50400, Note_on_c, 0, 44, 36
4, 50417, Control_c, 0, 64, 0
4, 50499, Control_c, 0, 64, 127
4, 50882, Control_c, 0, 64, 0
4, 50944, Control_c, 0, 64, 127
4, 51110, Note_on_c, 0, 44, 0
4, 51120, Note_on_c, 0, 44, 34
4, 51127, Control_c, 0, 64, 0
4, 51233, Control_c, 0, 64, 127
4, 51364, Control_c, 0, 64, 0
4, 51416, Control_c, 0, 64, 127
4, 51609, Control_c, 0, 64, 0
4, 51664, Control_c, 0, 64, 127
4, 51830, Note_on_c, 0, 44, 0
4, 51840, Control_c, 0, 64, 0
4, 51840, Note_on_c, 0, 44, 36
4, 51925, Control_c, 0, 64, 127
4, 52334, Control_c, 0, 64, 0
4, 52398, Control_c, 0, 64, 127
4, 52566, Control_c, 0, 64, 0
4, 52659, Control_c, 0, 64, 127
4, 52806, Control_c, 0, 64, 0
4, 52864, Control_c, 0, 64, 127
4, 53043, Control_c, 0, 64, 0
4, 53118, Control_c, 0, 64, 127
4, 53280, Note_on_c, 0, 44, 0
4, 53280, Note_on_c, 0, 44, 37
4, 53280, Control_c, 0, 64, 0
4, 53440, Control_c, 0, 64, 127
4, 54014, Control_c, 0, 64, 0
4, 54160, Control_c, 0, 64, 127
4, 54250, Control_c, 0, 64, 0
4, 54360, Control_c, 0, 64, 127
4, 54493, Control_c, 0, 64, 0
4, 54587, Control_c, 0, 64, 127
4, 54720, Note_on_c, 0, 44, 0
4, 54720, Control_c, 0, 64, 0
4, 54720, Note_on_c, 0, 44, 38
4, 54840, Control_c, 0, 64, 127
4, 55207, Control_c, 0, 64, 0
4, 55278, Control_c, 0, 64, 127
4, 55449, Control_c, 0, 64, 0
4, 55518, Control_c, 0, 64, 127
4, 55694, Control_c, 0, 64, 0
4, 55765, Control_c, 0, 64, 127
4, 55927, Control_c, 0, 64, 0
4, 55991, Control_c, 0, 64, 127
4, 56160, Note_on_c, 0, 44, 0
4, 56160, Note_on_c, 0, 44, 38
4, 56160, Control_c, 0, 64, 0
4, 56334, Control_c, 0, 64, 127
4, 56630, Note_on_c, 0, 44, 0
4, 56640, Note_on_c, 0, 44, 36
4, 56870, Note_on_c, 0, 44, 0
4, 56880, Note_on_c, 0, 44, 36
4, 57350, Note_on_c, 0, 44, 0
4, 57360, Note_on_c, 0, 44, 31
4, 57377, Control_c, 0, 64, 0
4, 57494, Control_c, 0, 64, 127
4, 57590, Note_on_c, 0, 44, 0
4, 57600, Note_on_c, 0, 44, 36
4, 58070, Note_on_c, 0, 44, 0
4, 58080, Note_on_c, 0, 44, 30
4, 58310, Note_on_c, 0, 44, 0
4, 58320, Note_on_c, 0, 44, 32
4, 58790, Note_on_c, 0, 44, 0
4, 58800, Note_on_c, 0, 44, 29
4, 59030, Note_on_c, 0, 44, 0
4, 59040, Note_on_c, 0, 44, 34
4, 59510, Note_on_c, 0, 44, 0
4, 59520, Note_on_c, 0, 44, 33
4, 59536, Control_c, 0, 64, 0
4, 59750, Note_on_c, 0, 44, 0
4, 59760, Note_on_c, 0, 44, 36
4, 59859, Control_c, 0, 64, 127
4, 60230, Note_on_c, 0, 44, 0
4, 60240, Note_on_c, 0, 44, 34
4, 60470, Note_on_c, 0, 44, 0
4, 60480, Note_on_c, 0, 44, 36
4, 60480, Control_c, 0, 64, 0
4, 60600, Control_c, 0, 64, 127
4, 60950, Note_on_c, 0, 44, 0
4, 60960, Note_on_c, 0, 44, 33
4, 61190, Note_on_c, 0, 44, 0
4, 61200, Note_on_c, 0, 44, 36
4, 61213, Control_c, 0, 64, 0
4, 61467, Control_c, 0, 64, 127
4, 61670, Note_on_c, 0, 44, 0
4, 61680, Note_on_c, 0, 44, 29
4, 61910, Note_on_c, 0, 44, 0
4, 61920, Note_on_c, 0, 44, 33
4, 62023, Control_c, 0, 64, 0
4, 62194, Control_c, 0, 64, 127
4, 62390, Note_on_c, 0, 44, 0
4, 62400, Note_on_c, 0, 44, 33
4, 62414, Control_c, 0, 64, 0
4, 62503, Control_c, 0, 64, 127
4, 62630, Note_on_c, 0, 44, 0
4, 62640, Note_on_c, 0, 44, 36
4, 62648, Control_c, 0, 64, 0
4, 62823, Control_c, 0, 64, 127
4, 63110, Note_on_c, 0, 44, 0
4, 63120, Note_on_c, 0, 44, 33
4, 63350, Note_on_c, 0, 44, 0
4, 63360, Note_on_c, 0, 44, 36
4, 63365, Control_c, 0, 64, 0
4, 63520, Control_c, 0, 64, 127
4, 63830, Note_on_c, 0, 44, 0
4, 63840, Note_on_c, 0, 44, 33
4, 64070, Note_on_c, 0, 44, 0
4, 64080, Note_on_c, 0, 44, 36
4, 64334, Control_c, 0, 64, 0
4, 64537, Control_c, 0, 64, 127
4, 64550, Note_on_c, 0, 44, 0
4, 64560, Note_on_c, 0, 44, 33
4, 64790, Note_on_c, 0, 44, 0
4, 64800, Note_on_c, 0, 44, 35
4, 64800, Control_c, 0, 64, 0
4, 64920, Control_c, 0, 64, 127
4, 65270, Note_on_c, 0, 44, 0
4, 65280, Note_on_c, 0, 44, 33
4, 65510, Note_on_c, 0, 44, 0
4, 65520, Note_on_c, 0, 44, 36
4, 65533, Control_c, 0, 64, 0
4, 65990, Note_on_c, 0, 44, 0
4, 66000, Note_on_c, 0, 44, 33
4, 66230, Note_on_c, 0, 44, 0
4, 66240, Note_on_c, 0, 44, 34
4, 66373, Control_c, 0, 64, 127
4, 66710, Note_on_c, 0, 44, 0
4, 66720, Note_on_c, 0, 44, 33
4, 66950, Note_on_c, 0, 44, 0
4, 66960, Note_on_c, 0, 44, 35
4, 66963, Control_c, 0, 64, 0
4, 67107, Control_c, 0, 64, 127
4, 67430, Note_on_c, 0, 44, 0
4, 67440, Note_on_c, 0, 44, 30
4, 67452, Control_c, 0, 64, 0
4, 67560, Control_c, 0, 64, 127
4, 67670, Note_on_c, 0, 44, 0
4, 67680, Note_on_c, 0, 44, 35
4, 67683, Control_c, 0, 64, 0
4, 67772, Control_c, 0, 64, 127
4, 68150, Note_on_c, 0, 44, 0
4, 68160, Note_on_c, 0, 44, 33
4, 68178, Control_c, 0, 64, 0
4, 68273, Control_c, 0, 64, 127
4, 68390, Note_on_c, 0, 44, 0
4, 68400, Note_on_c, 0, 44, 34
4, 68407, Control_c, 0, 64, 0
4, 68513, Control_c, 0, 64, 127
4, 68870, Note_on_c, 0, 44, 0
4, 68880, Note_on_c, 0, 44, 28
4, 68894, Control_c, 0, 64, 0
4, 69050, Control_c, 0, 64, 127
4, 69110, Note_on_c, 0, 44, 0
4, 69120, Note_on_c, 0, 44, 35
4, 69138, Control_c, 0, 64, 0
4, 69494, Control_c, 0, 64, 127
4, 69590, Note_on_c, 0, 44, 0
4, 69600, Note_on_c, 0, 44, 28
4, 69830, Note_on_c, 0, 44, 0
4, 69840, Note_on_c, 0, 44, 31
4, 70310, Note_on_c, 0, 44, 0
4, 70320, Note_on_c, 0, 44, 28
4, 70550, Note_on_c, 0, 44, 0
4, 70560, Note_on_c, 0, 44, 31
4, 71030, Note_on_c, 0, 44, 0
4, 71040, Note_on_c, 0, 44, 28
4, 71270, Note_on_c, 0, 44, 0
4, 71280, Note_on_c, 0, 44, 30
4, 71750, Note_on_c, 0, 44, 0
4, 71760, Note_on_c, 0, 44, 27
4, 71990, Note_on_c, 0, 44, 0
4, 72000, Note_on_c, 0, 44, 31
4, 72000, Control_c, 0, 64, 0
4, 72134, Control_c, 0, 64, 127
4, 72470, Note_on_c, 0, 44, 0
4, 72480, Note_on_c, 0, 44, 28
4, 72710, Note_on_c, 0, 44, 0
4, 72720, Note_on_c, 0, 44, 30
4, 72727, Control_c, 0, 64, 0
4, 72861, Control_c, 0, 64, 127
4, 73190, Note_on_c, 0, 44, 0
4, 73200, Note_on_c, 0, 44, 28
4, 73209, Control_c, 0, 64, 0
4, 73299, Control_c, 0, 64, 127
4, 73430, Note_on_c, 0, 44, 0
4, 73440, Note_on_c, 0, 44, 30
4, 73442, Control_c, 0, 64, 0
4, 73560, Control_c, 0, 64, 127
4, 73910, Note_on_c, 0, 44, 0
4, 73920, Note_on_c, 0, 44, 28
4, 74150, Note_on_c, 0, 44, 0
4, 74160, Note_on_c, 0, 44, 30
4, 74166, Control_c, 0, 64, 0
4, 74308, Control_c, 0, 64, 127
4, 74630, Note_on_c, 0, 44, 0
4, 74640, Note_on_c, 0, 44, 27
4, 74654, Control_c, 0, 64, 0
4, 74753, Control_c, 0, 64, 127
4, 74870, Note_on_c, 0, 44, 0
4, 74880, Note_on_c, 0, 44, 33
4, 74880, Control_c, 0, 64, 0
4, 75080, Control_c, 0, 64, 127
4, 75350, Note_on_c, 0, 44, 0
4, 75360, Note_on_c, 0, 44, 31
4, 75590, Note_on_c, 0, 44, 0
4, 75600, Note_on_c, 0, 44, 35
4, 75607, Control_c, 0, 64, 0
4, 75840, Control_c, 0, 64, 127
4, 76070, Note_on_c, 0, 44, 0
4, 76080, Note_on_c, 0, 44, 31
4, 76320, Control_c, 0, 64, 0
4, 76494, Control_c, 0, 64, 127
4, 76790, Note_on_c, 0, 44, 0
4, 76800, Note_on_c, 0, 44, 28
4, 77030, Note_on_c, 0, 44, 0
4, 77040, Note_on_c, 0, 44, 34
4, 77053, Control_c, 0, 64, 0
4, 77200, Control_c, 0, 64, 127
4, 77510, Note_on_c, 0, 44, 0
4, 77520, Note_on_c, 0, 44, 28
4, 77523, Control_c, 0, 64, 0
4, 77627, Control_c, 0, 64, 127
4, 77750, Note_on_c, 0, 44, 0
4, 77760, Note_on_c, 0, 44, 31
4, 77762, Control_c, 0, 64, 0
4, 77934, Control_c, 0, 64, 127
4, 78230, Note_on_c, 0, 44, 0
4, 78240, Note_on_c, 0, 44, 28
4, 78470, Note_on_c, 0, 44, 0
4, 78480, Note_on_c, 0, 44, 31
4, 78493, Control_c, 0, 64, 0
4, 78654, Control_c, 0, 64, 127
4, 78950, Note_on_c, 0, 44, 0
4, 78960, Note_on_c, 0, 44, 28
4, 79190, Note_on_c, 0, 44, 0
4, 79200, Note_on_c, 0, 44, 31
4, 79203, Control_c, 0, 64, 0
4, 79387, Control_c, 0, 64, 127
4, 79670, Note_on_c, 0, 44, 0
4, 79680, Note_on_c, 0, 44, 28
4, 79910, Note_on_c, 0, 44, 0
4, 79920, Note_on_c, 0, 44, 30
4, 79933, Control_c, 0, 64, 0
4, 80080, Control_c, 0, 64, 127
4, 80390, Note_on_c, 0, 44, 0
4, 80400, Note_on_c, 0, 44, 28
4, 80630, Note_on_c, 0, 44, 0
4, 80640, Note_on_c, 0, 44, 32
4, 80643, Control_c, 0, 64, 0
4, 80854, Control_c, 0, 64, 127
4, 81110, Note_on_c, 0, 44, 0
4, 81120, Note_on_c, 0, 44, 23
4, 81350, Note_on_c, 0, 44, 0
4, 81360, Note_on_c, 0, 44, 30
4, 81830, Note_on_c, 0, 44, 0
4, 81840, Note_on_c, 0, 44, 28
4, 81846, Control_c, 0, 64, 0
4, 81974, Control_c, 0, 64, 127
4, 82070, Note_on_c, 0, 44, 0
4, 82080, Note_on_c, 0, 44, 30
4, 82123, Control_c, 0, 64, 0
4, 82221, Control_c, 0, 64, 127
4, 82550, Note_on_c, 0, 44, 0
4, 82560, Note_on_c, 0, 44, 27
4, 82563, Control_c, 0, 64, 0
4, 82659, Control_c, 0, 64, 127
4, 82790, Note_on_c, 0, 44, 0
4, 82800, Note_on_c, 0, 44, 28
4, 82812, Control_c, 0, 64, 0
4, 82934, Control_c, 0, 64, 127
4, 83054, Control_c, 0, 64, 0
4, 83139, Control_c, 0, 64, 127
4, 83270, Note_on_c, 0, 44, 0
4, 83280, Note_on_c, 0, 44, 23
4, 83284, Control_c, 0, 64, 0
4, 83393, Control_c, 0, 64, 127
4, 83510, Note_on_c, 0, 44, 0
4, 83520, Note_on_c, 0, 44, 28
4, 83534, Control_c, 0, 64, 0
4, 83734, Control_c, 0, 64, 127
4, 83990, Note_on_c, 0, 44, 0
4, 84000, Note_on_c, 0, 44, 28
4, 84230, Note_on_c, 0, 44, 0
4, 84240, Note_on_c, 0, 44, 32
4, 84710, Note_on_c, 0, 44, 0
4, 84720, Note_on_c, 0, 44, 29
4, 84733, Control_c, 0, 64, 0
4, 84950, Note_on_c, 0, 44, 0
4, 84960, Note_on_c, 0, 44, 32
4, 85016, Control_c, 0, 64, 127
4, 85430, Note_on_c, 0, 44, 0
4, 85440, Note_on_c, 0, 44, 26
4, 85670, Note_on_c, 0, 44, 0
4, 85680, Note_on_c, 0, 44, 30
4, 85692, Control_c, 0, 64, 0
4, 85821, Control_c, 0, 64, 127
4, 86150, Note_on_c, 0, 44, 0
4, 86160, Note_on_c, 0, 44, 28
4, 86175, Control_c, 0, 64, 0
4, 86266, Control_c, 0, 64, 127
4, 86390, Note_on_c, 0, 44, 0
4, 86400, Note_on_c, 0, 44, 31
4, 86400, Control_c, 0, 64, 0
4, 86513, Control_c, 0, 64, 127
4, 86870, Note_on_c, 0, 44, 0
4, 86880, Note_on_c, 0, 44, 28
4, 87110, Note_on_c, 0, 44, 0
4, 87120, Note_on_c, 0, 44, 30
4, 87127, Control_c, 0, 64, 0
4, 87223, Control_c, 0, 64, 127
4, 87590, Note_on_c, 0, 44, 0
4, 87600, Note_on_c, 0, 44, 28
4, 87607, Control_c, 0, 64, 0
4, 87674, Control_c, 0, 64, 127
4, 87830, Note_on_c, 0, 44, 0
4, 87840, Note_on_c, 0, 44, 34
4, 87840, Control_c, 0, 64, 0
4, 88000, Control_c, 0, 64, 127
4, 88310, Note_on_c, 0, 44, 0
4, 88320, Note_on_c, 0, 44, 28
4, 88550, Note_on_c, 0, 44, 0
4, 88560, Note_on_c, 0, 44, 32
4, 88566, Control_c, 0, 64, 0
4, 88760, Control_c, 0, 64, 127
4, 89030, Note_on_c, 0, 44, 0
4, 89040, Note_on_c, 0, 44, 33
4, 89280, Control_c, 0, 64, 0
4, 89467, Control_c, 0, 64, 127
4, 89750, Note_on_c, 0, 44, 0
4, 89760, Note_on_c, 0, 44, 31
4, 89990, Note_on_c, 0, 44, 0
4, 90000, Note_on_c, 0, 44, 34
4, 90008, Control_c, 0, 64, 0
4, 90160, Control_c, 0, 64, 127
4, 90470, Note_on_c, 0, 44, 0
4, 90480, Note_on_c, 0, 44, 28
4, 90494, Control_c, 0, 64, 0
4, 90600, Control_c, 0, 64, 127
4, 90710, Note_on_c, 0, 44, 0
4, 90720, Note_on_c, 0, 44, 35
4, 90723, Control_c, 0, 64, 0
4, 90934, Control_c, 0, 64, 127
4, 91190, Note_on_c, 0, 44, 0
4, 91200, Note_on_c, 0, 44, 28
4, 91427, Control_c, 0, 64, 0
4, 91430, Note_on_c, 0, 44, 0
4, 91440, Note_on_c, 0, 44, 36
4, 91627, Control_c, 0, 64, 127
4, 91910, Note_on_c, 0, 44, 0
4, 91920, Note_on_c, 0, 44, 28
4, 92150, Note_on_c, 0, 44, 0
4, 92160, Note_on_c, 0, 44, 32
4, 92163, Control_c, 0, 64, 0
4, 92360, Control_c, 0, 64, 127
4, 92630, Note_on_c, 0, 44, 0
4, 92640, Note_on_c, 0, 44, 28
4, 92870, Note_on_c, 0, 44, 0
4, 92880, Note_on_c, 0, 44, 30
4, 92894, Control_c, 0, 64, 0
4, 93080, Control_c, 0, 64, 127
4, 93350, Note_on_c, 0, 44, 0
4, 93360, Note_on_c, 0, 44, 28
4, 93590, Note_on_c, 0, 44, 0
4, 93600, Note_on_c, 0, 44, 32
4, 93607, Control_c, 0, 64, 0
4, 93827, Control_c, 0, 64, 127
4, 94070, Note_on_c, 0, 44, 0
4, 94080, Note_on_c, 0, 44, 27
4, 94310, Note_on_c, 0, 44, 0
4, 94320, Note_on_c, 0, 44, 30
4, 94374, Control_c, 0, 64, 0
4, 94574, Control_c, 0, 64, 127
4, 94790, Note_on_c, 0, 44, 0
4, 94800, Note_on_c, 0, 44, 27
4, 94814, Control_c, 0, 64, 0
4, 95030, Note_on_c, 0, 44, 0
4, 95040, Note_on_c, 0, 44, 31
4, 95100, Control_c, 0, 64, 127
4, 95510, Note_on_c, 0, 44, 0
4, 95520, Note_on_c, 0, 44, 28
4, 95529, Control_c, 0, 64, 0
4, 95580, Control_c, 0, 64, 127
4, 95654, Control_c, 0, 64, 0
4, 95750, Note_on_c, 0, 44, 0
4, 95760, Note_on_c, 0, 44, 31
4, 95788, Control_c, 0, 64, 127
4, 96017, Control_c, 0, 64, 0
4, 96081, Control_c, 0, 64, 127
4, 96230, Note_on_c, 0, 44, 0
4, 96240, Note_on_c, 0, 44, 23
4, 96246, Control_c, 0, 64, 0
4, 96297, Control_c, 0, 64, 127
4, 96381, Control_c, 0, 64, 0
4, 96470, Note_on_c, 0, 44, 0
4, 96480, Note_on_c, 0, 44, 32
4, 96529, Control_c, 0, 64, 127
4, 96962, Control_c, 0, 64, 0
4, 97059, Control_c, 0, 64, 127
4, 97203, Control_c, 0, 64, 0
4, 97299, Control_c, 0, 64, 127
4, 97444, Control_c, 0, 64, 0
4, 97496, Control_c, 0, 64, 127
4, 97683, Control_c, 0, 64, 0
4, 97751, Control_c, 0, 64, 127
4, 97920, Control_c, 0, 64, 0
4, 98054, Control_c, 0, 64, 127
4, 98413, Control_c, 0, 64, 0
4, 98506, Control_c, 0, 64, 127
4, 98646, Control_c, 0, 64, 0
4, 98739, Control_c, 0, 64, 127
4, 98886, Control_c, 0, 64, 0
4, 98979, Control_c, 0, 64, 127
4, 99123, Control_c, 0, 64, 0
4, 99205, Control_c, 0, 64, 127
4, 99360, Note_on_c, 0, 44, 0
4, 99360, Control_c, 0, 64, 0
4, 99360, Note_on_c, 0, 44, 33
4, 99520, Control_c, 0, 64, 127
4, 100084, Control_c, 0, 64, 0
4, 100160, Control_c, 0, 64, 127
4, 100333, Control_c, 0, 64, 0
4, 100427, Control_c, 0, 64, 127
4, 100573, Control_c, 0, 64, 0
4, 100680, Control_c, 0, 64, 127
4, 100800, Note_on_c, 0, 44, 0
4, 100800, Note_on_c, 0, 44, 35
4, 100813, Control_c, 0, 64, 0
4, 100920, Control_c, 0, 64, 127
4, 101294, Control_c, 0, 64, 0
4, 101393, Control_c, 0, 64, 127
4, 101527, Control_c, 0, 64, 0
4, 101591, Control_c, 0, 64, 127
4, 101773, Control_c, 0, 64, 0
4, 101852, Control_c, 0, 64, 127
4, 102007, Control_c, 0, 64, 0
4, 102078, Control_c, 0, 64, 127
4, 102240, Note_on_c, 0, 44, 0
4, 102240, Control_c, 0, 64, 0
4, 102240, Note_on_c, 0, 44, 34
4, 102480, Control_c, 0, 64, 127
4, 102710, Note_on_c, 0, 44, 0
4, 102720, Note_on_c, 0, 44, 27
4, 102950, Note_on_c, 0, 44, 0
4, 102960, Note_on_c, 0, 44, 32
4, 103260, Control_c, 0, 64, 0
4, 103430, Note_on_c, 0, 44, 0
4, 103440, Note_on_c, 0, 44, 29
4, 103587, Control_c, 0, 64, 127
4, 103587, Control_c, 0, 64, 127
4, 103670, Note_on_c, 0, 44, 0
4, 103680, Note_on_c, 0, 44, 28
4, 104150, Note_on_c, 0, 44, 0
4, 104160, Note_on_c, 0, 44, 22
4, 104390, Note_on_c, 0, 44, 0
4, 104400, Note_on_c, 0, 44, 26
4, 104870, Note_on_c, 0, 44, 0
4, 104880, Note_on_c, 0, 44, 20
4, 105110, Note_on_c, 0, 44, 0
4, 105120, Note_on_c, 0, 44, 26
4, 105124, Control_c, 0, 64, 0
4, 105219, Control_c, 0, 64, 127
4, 105590, Note_on_c, 0, 44, 0
4, 105600, Note_on_c, 0, 44, 20
4, 105616, Control_c, 0, 64, 0
4, 105830, Note_on_c, 0, 44, 0
4, 105840, Note_on_c, 0, 44, 26
4, 105936, Control_c, 0, 64, 127
4, 106310, Note_on_c, 0, 44, 0
4, 106320, Note_on_c, 0, 44, 20
4, 106550, Note_on_c, 0, 44, 0
4, 106560, Note_on_c, 0, 44, 25
4, 106560, Control_c, 0, 64, 0
4, 106734, Control_c, 0, 64, 127
4, 107030, Note_on_c, 0, 44, 0
4, 107040, Note_on_c, 0, 44, 22
4, 107270, Note_on_c, 0, 44, 0
4, 107280, Note_on_c, 0, 44, 26
4, 107293, Control_c, 0, 64, 0
4, 107520, Control_c, 0, 64, 127
4, 107750, Note_on_c, 0, 44, 0
4, 107760, Note_on_c, 0, 44, 22
4, 107990, Note_on_c, 0, 44, 0
4, 108000, Note_on_c, 0, 44, 26
4, 108470, Note_on_c, 0, 44, 0
4, 108480, Note_on_c, 0, 44, 22
4, 108710, Note_on_c, 0, 44, 0
4, 108720, Note_on_c, 0, 44, 28
4, 109190, Note_on_c, 0, 44, 0
4, 109200, Note_on_c, 0, 44, 22
4, 109430, Note_on_c, 0, 44, 0
4, 109440, Note_on_c, 0, 44, 27
4, 109444, Control_c, 0, 64, 0
4, 109577, Control_c, 0, 64, 127
4, 109910, Note_on_c, 0, 44, 0
4, 109920, Note_on_c, 0, 44, 28
4, 110150, Note_on_c, 0, 44, 0
4, 110160, Note_on_c, 0, 44, 30
4, 110408, Control_c, 0, 64, 0
4, 110537, Control_c, 0, 64, 127
4, 110630, Note_on_c, 0, 44, 0
4, 110640, Note_on_c, 0, 44, 28
4, 110653, Control_c, 0, 64, 0
4, 110800, Control_c, 0, 64, 127
4, 110870, Note_on_c, 0, 44, 0
4, 110880, Control_c, 0, 64, 0
4, 110880, Note_on_c, 0, 44, 32
4, 111017, Control_c, 0, 64, 127
4, 111350, Note_on_c, 0, 44, 0
4, 111360, Note_on_c, 0, 44, 31
4, 111590, Note_on_c, 0, 44, 0
4, 111600, Note_on_c, 0, 44, 35
4, 112070, Note_on_c, 0, 44, 0
4, 112080, Note_on_c, 0, 44, 23
4, 112310, Note_on_c, 0, 44, 0
4, 112320, Note_on_c, 0, 44, 26
4, 112326, Control_c, 0, 64, 0
4, 112480, Control_c, 0, 64, 127
4, 112790, Note_on_c, 0, 44, 0
4, 112800, Note_on_c, 0, 44, 27
4, 113030, Note_on_c, 0, 44, 0
4, 113040, Note_on_c, 0, 44, 29
4, 113293, Control_c, 0, 64, 0
4, 113395, Control_c, 0, 64, 127
4, 113510, Note_on_c, 0, 44, 0
4, 113520, Note_on_c, 0, 44, 30
4, 113533, Control_c, 0, 64, 0
4, 113669, Control_c, 0, 64, 127
4, 113750, Note_on_c, 0, 44, 0
4, 113760, Note_on_c, 0, 44, 32
4, 113764, Control_c, 0, 64, 0
4, 113920, Control_c, 0, 64, 127
4, 114230, Note_on_c, 0, 44, 0
4, 114240, Note_on_c, 0, 44, 31
4, 114470, Note_on_c, 0, 44, 0
4, 114480, Note_on_c, 0, 44, 34
4, 114950, Note_on_c, 0, 44, 0
4, 114960, Note_on_c, 0, 44, 22
4, 115190, Note_on_c, 0, 44, 0
4, 115200, Note_on_c, 0, 44, 32
4, 115206, Control_c, 0, 64, 0
4, 115454, Control_c, 0, 64, 127
4, 115670, Note_on_c, 0, 44, 0
4, 115680, Note_on_c, 0, 44, 27
4, 115910, Note_on_c, 0, 44, 0
4, 115920, Note_on_c, 0, 44, 28
4, 116390, Note_on_c, 0, 44, 0
4, 116400, Note_on_c, 0, 44, 25
4, 116630, Note_on_c, 0, 44, 0
4, 116640, Note_on_c, 0, 44, 28
4, 117110, Note_on_c, 0, 44, 0
4, 117120, Note_on_c, 0, 44, 25
4, 117350, Note_on_c, 0, 44, 0
4, 117360, Note_on_c, 0, 44, 28
4, 117830, Note_on_c, 0, 44, 0
4, 117840, Note_on_c, 0, 44, 25
4, 118070, Note_on_c, 0, 44, 0
4, 118080, Note_on_c, 0, 44, 32
4, 118083, Control_c, 0, 64, 0
4, 118229, Control_c, 0, 64, 127
4, 118550, Note_on_c, 0, 44, 0
4, 118560, Note_on_c, 0, 44, 26
4, 118790, Note_on_c, 0, 44, 0
4, 118800, Note_on_c, 0, 44, 31
4, 118807, Control_c, 0, 64, 0
4, 118903, Control_c, 0, 64, 127
4, 119051, Control_c, 0, 64, 0
4, 119166, Control_c, 0, 64, 127
4, 119270, Note_on_c, 0, 44, 0
4, 119280, Note_on_c, 0, 44, 23
4, 119292, Control_c, 0, 64, 0
4, 119372, Control_c, 0, 64, 127
4, 119510, Note_on_c, 0, 44, 0
4, 119520, Control_c, 0, 64, 0
4, 119520, Note_on_c, 0, 44, 30
4, 119611, Control_c, 0, 64, 127
4, 119990, Note_on_c, 0, 44, 0
4, 120000, Note_on_c, 0, 44, 26
4, 120230, Note_on_c, 0, 44, 0
4, 120240, Note_on_c, 0, 44, 28
4, 120248, Control_c, 0, 64, 0
4, 120366, Control_c, 0, 64, 127
4, 120487, Control_c, 0, 64, 0
4, 120583, Control_c, 0, 64, 127
4, 120710, Note_on_c, 0, 44, 0
4, 120720, Note_on_c, 0, 44, 26
4, 120731, Control_c, 0, 64, 0
4, 120835, Control_c, 0, 64, 127
4, 120950, Note_on_c, 0, 44, 0
4, 120960, Note_on_c, 0, 44, 29
4, 120963, Control_c, 0, 64, 0
4, 121134, Control_c, 0, 64, 127
4, 121430, Note_on_c, 0, 44, 0
4, 121440, Note_on_c, 0, 44, 23
4, 121670, Note_on_c, 0, 44, 0
4, 121680, Note_on_c, 0, 44, 27
4, 121696, Control_c, 0, 64, 0
4, 121920, Control_c, 0, 64, 127
4, 122150, Note_on_c, 0, 44, 0
4, 122160, Note_on_c, 0, 44, 25
4, 122390, Note_on_c, 0, 44, 0
4, 122400, Note_on_c, 0, 44, 27
4, 122403, Control_c, 0, 64, 0
4, 122560, Control_c, 0, 64, 127
4, 122870, Note_on_c, 0, 44, 0
4, 122880, Note_on_c, 0, 44, 23
4, 123110, Note_on_c, 0, 44, 0
4, 123120, Note_on_c, 0, 44, 33
4, 123590, Note_on_c, 0, 44, 0
4, 123600, Note_on_c, 0, 44, 28
4, 123830, Note_on_c, 0, 44, 0
4, 123840, Note_on_c, 0, 44, 35
4, 123845, Control_c, 0, 64, 0
4, 124000, Control_c, 0, 64, 127
4, 124310, Note_on_c, 0, 44, 0
4, 124320, Note_on_c, 0, 44, 31
4, 124550, Note_on_c, 0, 44, 0
4, 124560, Note_on_c, 0, 44, 35
4, 124573, Control_c, 0, 64, 0
4, 124747, Control_c, 0, 64, 127
4, 125030, Note_on_c, 0, 44, 0
4, 125040, Note_on_c, 0, 44, 31
4, 125270, Note_on_c, 0, 44, 0
4, 125280, Note_on_c, 0, 44, 31
4, 125283, Control_c, 0, 64, 0
4, 125440, Control_c, 0, 64, 127
4, 125750, Note_on_c, 0, 44, 0
4, 125760, Note_on_c, 0, 44, 23
4, 125990, Note_on_c, 0, 44, 0
4, 126000, Note_on_c, 0, 44, 27
4, 126015, Control_c, 0, 64, 0
4, 126174, Control_c, 0, 64, 127
4, 126470, Note_on_c, 0, 44, 0
4, 126480, Note_on_c, 0, 44, 23
4, 126710, Note_on_c, 0, 44, 0
4, 126720, Control_c, 0, 64, 0
4, 126720, Note_on_c, 0, 44, 28
4, 126787, Control_c, 0, 64, 127
4, 127190, Note_on_c, 0, 44, 0
4, 127200, Note_on_c, 0, 44, 23
4, 127206, Control_c, 0, 64, 0
4, 127236, Control_c, 0, 64, 127
4, 127405, Control_c, 0, 64, 0
4, 127430, Note_on_c, 0, 44, 0
4, 127440, Note_on_c, 0, 44, 27
4, 127468, Control_c, 0, 64, 127
4, 127690, Control_c, 0, 64, 0
4, 127758, Control_c, 0, 64, 127
4, 127910, Note_on_c, 0, 44, 0
4, 127920, Note_on_c, 0, 44, 23
4, 127932, Control_c, 0, 64, 0
4, 127987, Control_c, 0, 64, 127
4, 128150, Note_on_c, 0, 44, 0
4, 128160, Note_on_c, 0, 44, 28
4, 128163, Control_c, 0, 64, 0
4, 128440, Control_c, 0, 64, 127
4, 128630, Note_on_c, 0, 44, 0
4, 128640, Note_on_c, 0, 44, 23
4, 128870, Note_on_c, 0, 44, 0
4, 128880, Note_on_c, 0, 44, 27
4, 129350, Note_on_c, 0, 44, 0
4, 129360, Note_on_c, 0, 44, 22
4, 129590, Note_on_c, 0, 44, 0
4, 129600, Note_on_c, 0, 44, 28
4, 130070, Note_on_c, 0, 44, 0
4, 130080, Note_on_c, 0, 44, 26
4, 130310, Note_on_c, 0, 44, 0
4, 130320, Note_on_c, 0, 44, 29
4, 130547, Control_c, 0, 64, 0
4, 130790, Note_on_c, 0, 44, 0
4, 130800, Note_on_c, 0, 44, 22
4, 130907, Control_c, 0, 64, 127
4, 131030, Note_on_c, 0, 44, 0
4, 131040, Note_on_c, 0, 44, 26
4, 131510, Note_on_c, 0, 44, 0
4, 131520, Note_on_c, 0, 44, 27
4, 131750, Note_on_c, 0, 44, 0
4, 131760, Note_on_c, 0, 44, 30
4, 132230, Note_on_c, 0, 44, 0
4, 132240, Note_on_c, 0, 44, 23
4, 132470, Note_on_c, 0, 44, 0
4, 132480, Note_on_c, 0, 44, 27
4, 132491, Control_c, 0, 64, 0
4, 132530, Control_c, 0, 64, 127
4, 132950, Note_on_c, 0, 44, 0
4, 132960, Note_on_c, 0, 44, 22
4, 132976, Control_c, 0, 64, 0
4, 133190, Note_on_c, 0, 44, 0
4, 133200, Note_on_c, 0, 44, 27
4, 133331, Control_c, 0, 64, 127
4, 133670, Note_on_c, 0, 44, 0
4, 133680, Note_on_c, 0, 44, 20
4, 133910, Note_on_c, 0, 44, 0
4, 133920, Note_on_c, 0, 44, 26
4, 133937, Control_c, 0, 64, 0
4, 134068, Control_c, 0, 64, 127
4, 134390, Note_on_c, 0, 44, 0
4, 134400, Note_on_c, 0, 44, 27
4, 134630, Note_on_c, 0, 44, 0
4, 134640, Note_on_c, 0, 44, 29
4, 135110, Note_on_c, 0, 44, 0
4, 135120, Note_on_c, 0, 44, 27
4, 135350, Note_on_c, 0, 44, 0
4, 135360, Note_on_c, 0, 44, 29
4, 135830, Note_on_c, 0, 44, 0
4, 135840, Note_on_c, 0, 44, 27
4, 136070, Note_on_c, 0, 44, 0
4, 136080, Note_on_c, 0, 44, 29
4, 136550, Note_on_c, 0, 44, 0
4, 136560, Note_on_c, 0, 44, 22
4, 136577, Control_c, 0, 64, 0
4, 136790, Note_on_c, 0, 44, 0
4, 136800, Note_on_c, 0, 44, 28
4, 136834, Control_c, 0, 64, 127
4, 137270, Note_on_c, 0, 44, 0
4, 137280, Note_on_c, 0, 44, 22
4, 137510, Note_on_c, 0, 44, 0
4, 137520, Note_on_c, 0, 44, 25
4, 137774, Control_c, 0, 64, 0
4, 137886, Control_c, 0, 64, 127
4, 137990, Note_on_c, 0, 44, 0
4, 138000, Note_on_c, 0, 44, 22
4, 138013, Control_c, 0, 64, 0
4, 138137, Control_c, 0, 64, 127
4, 138230, Note_on_c, 0, 44, 0
4, 138240, Note_on_c, 0, 44, 28
4, 138240, Control_c, 0, 64, 0
4, 138309, Control_c, 0, 64, 127
4, 138710, Note_on_c, 0, 44, 0
4, 138720, Note_on_c, 0, 44, 27
4, 138950, Note_on_c, 0, 44, 0
4, 138960, Note_on_c, 0, 44, 29
4, 139430, Note_on_c, 0, 44, 0
4, 139440, Note_on_c, 0, 44, 28
4, 139497, Control_c, 0, 64, 0
4, 139670, Note_on_c, 0, 44, 0
4, 139680, Note_on_c, 0, 44, 31
4, 139714, Control_c, 0, 64, 127
4, 140150, Note_on_c, 0, 44, 0
4, 140160, Note_on_c, 0, 44, 22
4, 140390, Note_on_c, 0, 44, 0
4, 140400, Note_on_c, 0, 44, 27
4, 140653, Control_c, 0, 64, 0
4, 140766, Control_c, 0, 64, 127
4, 140870, Note_on_c, 0, 44, 0
4, 140880, Note_on_c, 0, 44, 22
4, 140893, Control_c, 0, 64, 0
4, 141006, Control_c, 0, 64, 127
4, 141110, Note_on_c, 0, 44, 0
4, 141120, Note_on_c, 0, 44, 28
4, 141120, Control_c, 0, 64, 0
4, 141240, Control_c, 0, 64, 127
4, 141590, Note_on_c, 0, 44, 0
4, 141600, Note_on_c, 0, 44, 27
4, 141830, Note_on_c, 0, 44, 0
4, 141840, Note_on_c, 0, 44, 29
4, 142310, Note_on_c, 0, 44, 0
4, 142320, Note_on_c, 0, 44, 22
4, 142377, Control_c, 0, 64, 0
4, 142550, Note_on_c, 0, 44, 0
4, 142560, Note_on_c, 0, 44, 28
4, 142613, Control_c, 0, 64, 127
4, 143030, Note_on_c, 0, 44, 0
4, 143040, Note_on_c, 0, 44, 27
4, 143270, Note_on_c, 0, 44, 0
4, 143280, Note_on_c, 0, 44, 29
4, 143750, Note_on_c, 0, 44, 0
4, 143760, Note_on_c, 0, 44, 25
4, 143990, Note_on_c, 0, 44, 0
4, 144000, Note_on_c, 0, 44, 29
4, 144470, Note_on_c, 0, 44, 0
4, 144480, Note_on_c, 0, 44, 25
4, 144710, Note_on_c, 0, 44, 0
4, 144720, Note_on_c, 0, 44, 27
4, 145190, Note_on_c, 0, 44, 0
4, 145200, Note_on_c, 0, 44, 25
4, 145430, Note_on_c, 0, 44, 0
4, 145440, Note_on_c, 0, 44, 28
4, 145440, Control_c, 0, 64, 0
4, 145566, Control_c, 0, 64, 127
4, 145910, Note_on_c, 0, 44, 0
4, 145920, Note_on_c, 0, 44, 25
4, 146150, Note_on_c, 0, 44, 0
4, 146160, Note_on_c, 0, 44, 23
4, 146167, Control_c, 0, 64, 0
4, 146286, Control_c, 0, 64, 127
4, 146413, Control_c, 0, 64, 0
4, 146526, Control_c, 0, 64, 127
4, 146630, Note_on_c, 0, 44, 0
4, 146640, Note_on_c, 0, 44, 22
4, 146654, Control_c, 0, 64, 0
4, 146732, Control_c, 0, 64, 127
4, 146870, Note_on_c, 0, 44, 0
4, 146880, Note_on_c, 0, 44, 26
4, 146886, Control_c, 0, 64, 0
4, 147040, Control_c, 0, 64, 127
4, 147350, Note_on_c, 0, 44, 0
4, 147360, Note_on_c, 0, 44, 22
4, 147590, Note_on_c, 0, 44, 0
4, 147600, Note_on_c, 0, 44, 28
4, 147609, Control_c, 0, 64, 0
4, 147692, Control_c, 0, 64, 127
4, 147851, Control_c, 0, 64, 0
4, 147920, Control_c, 0, 64, 127
4, 148070, Note_on_c, 0, 44, 0
4, 148080, Note_on_c, 0, 44, 22
4, 148085, Control_c, 0, 64, 0
4, 148172, Control_c, 0, 64, 127
4, 148310, Note_on_c, 0, 44, 0
4, 148320, Note_on_c, 0, 44, 27
4, 148320, Control_c, 0, 64, 0
4, 148480, Control_c, 0, 64, 127
4, 148790, Note_on_c, 0, 44, 0
4, 148800, Note_on_c, 0, 44, 27
4, 149030, Note_on_c, 0, 44, 0
4, 149040, Note_on_c, 0, 44, 30
4, 149049, Control_c, 0, 64, 0
4, 149187, Control_c, 0, 64, 127
4, 149510, Note_on_c, 0, 44, 0
4, 149520, Note_on_c, 0, 44, 25
4, 149750, Note_on_c, 0, 44, 0
4, 149760, Note_on_c, 0, 44, 29
4, 149760, Control_c, 0, 64, 0
4, 150014, Control_c, 0, 64, 127
4, 150230, Note_on_c, 0, 44, 0
4, 150240, Note_on_c, 0, 44, 23
4, 150470, Note_on_c, 0, 44, 0
4, 150480, Note_on_c, 0, 44, 31
4, 150950, Note_on_c, 0, 44, 0
4, 150960, Note_on_c, 0, 44, 28
4, 151190, Note_on_c, 0, 44, 0
4, 151200, Note_on_c, 0, 44, 33
4, 151203, Control_c, 0, 64, 0
4, 151427, Control_c, 0, 64, 127
4, 151670, Note_on_c, 0, 44, 0
4, 151680, Note_on_c, 0, 44, 28
4, 151910, Note_on_c, 0, 44, 0
4, 151920, Note_on_c, 0, 44, 31
4, 151933, Control_c, 0, 64, 0
4, 152120, Control_c, 0, 64, 127
4, 152390, Note_on_c, 0, 44, 0
4, 152400, Note_on_c, 0, 44, 28
4, 152630, Note_on_c, 0, 44, 0
4, 152640, Note_on_c, 0, 44, 33
4, 152644, Control_c, 0, 64, 0
4, 152800, Control_c, 0, 64, 127
4, 153110, Note_on_c, 0, 44, 0
4, 153120, Note_on_c, 0, 44, 23
4, 153350, Note_on_c, 0, 44, 0
4, 153360, Note_on_c, 0, 44, 27
4, 153374, Control_c, 0, 64, 0
4, 153587, Control_c, 0, 64, 127
4, 153830, Note_on_c, 0, 44, 0
4, 153840, Note_on_c, 0, 44, 23
4, 154070, Note_on_c, 0, 44, 0
4, 154080, Note_on_c, 0, 44, 28
4, 154080, Control_c, 0, 64, 0
4, 154200, Control_c, 0, 64, 127
4, 154550, Note_on_c, 0, 44, 0
4, 154560, Note_on_c, 0, 44, 22
4, 154567, Control_c, 0, 64, 0
4, 154631, Control_c, 0, 64, 127
4, 154790, Note_on_c, 0, 44, 0
4, 154800, Note_on_c, 0, 44, 25
4, 154808, Control_c, 0, 64, 0
4, 154885, Control_c, 0, 64, 127
4, 155053, Control_c, 0, 64, 0
4, 155160, Control_c, 0, 64, 127
4, 155270, Note_on_c, 0, 44, 0
4, 155280, Note_on_c, 0, 44, 23
4, 155284, Control_c, 0, 64, 0
4, 155365, Control_c, 0, 64, 127
4, 155510, Note_on_c, 0, 44, 0
4, 155520, Control_c, 0, 64, 0
4, 155520, Note_on_c, 0, 44, 28
4, 155640, Control_c, 0, 64, 127
4, 155990, Note_on_c, 0, 44, 0
4, 156000, Note_on_c, 0, 44, 24
4, 156230, Note_on_c, 0, 44, 0
4, 156240, Note_on_c, 0, 44, 28
4, 156710, Note_on_c, 0, 44, 0
4, 156720, Note_on_c, 0, 44, 25
4, 156950, Note_on_c, 0, 44, 0
4, 156960, Note_on_c, 0, 44, 28
4, 156968, Control_c, 0, 64, 0
4, 157108, Control_c, 0, 64, 127
4, 157430, Note_on_c, 0, 44, 0
4, 157440, Note_on_c, 0, 44, 23
4, 157670, Note_on_c, 0, 44, 0
4, 157680, Note_on_c, 0, 44, 22
4, 157691, Control_c, 0, 64, 0
4, 157800, Control_c, 0, 64, 127
4, 158150, Note_on_c, 0, 44, 0
4, 158160, Note_on_c, 0, 44, 26
4, 158174, Control_c, 0, 64, 0
4, 158259, Control_c, 0, 64, 127
4, 158390, Note_on_c, 0, 44, 0
4, 158400, Note_on_c, 0, 44, 22
4, 158400, Control_c, 0, 64, 0
4, 158485, Control_c, 0, 64, 127
4, 158870, Note_on_c, 0, 44, 0
4, 158880, Note_on_c, 0, 44, 23
4, 159110, Note_on_c, 0, 44, 0
4, 159120, Note_on_c, 0, 44, 22
4, 159134, Control_c, 0, 64, 0
4, 159233, Control_c, 0, 64, 127
4, 159590, Note_on_c, 0, 44, 0
4, 159600, Note_on_c, 0, 44, 25
4, 159606, Control_c, 0, 64, 0
4, 159678, Control_c, 0, 64, 127
4, 159830, Note_on_c, 0, 44, 0
4, 159840, Note_on_c, 0, 44, 28
4, 159840, Control_c, 0, 64, 0
4, 160040, Control_c, 0, 64, 127
4, 160310, Note_on_c, 0, 44, 0
4, 160320, Note_on_c, 0, 44, 25
4, 160550, Note_on_c, 0, 44, 0
4, 160560, Note_on_c, 0, 44, 28
4, 161030, Note_on_c, 0, 44, 0
4, 161040, Note_on_c, 0, 44, 25
4, 161270, Note_on_c, 0, 44, 0
4, 161280, Control_c, 0, 64, 0
4, 161280, Note_on_c, 0, 44, 31
4, 161467, Control_c, 0, 64, 127
4, 161750, Note_on_c, 0, 44, 0
4, 161760, Note_on_c, 0, 44, 28
4, 161990, Note_on_c, 0, 44, 0
4, 162000, Note_on_c, 0, 44, 33
4, 162470, Note_on_c, 0, 44, 0
4, 162480, Note_on_c, 0, 44, 28
4, 162710, Note_on_c, 0, 44, 0
4, 162720, Note_on_c, 0, 44, 33
4, 162724, Control_c, 0, 64, 0
4, 162880, Control_c, 0, 64, 127
4, 163190, Note_on_c, 0, 44, 0
4, 163200, Note_on_c, 0, 44, 26
4, 163430, Note_on_c, 0, 44, 0
4, 163440, Note_on_c, 0, 44, 25
4, 163449, Control_c, 0, 64, 0
4, 163600, Control_c, 0, 64, 127
4, 163910, Note_on_c, 0, 44, 0
4, 163920, Note_on_c, 0, 44, 23
4, 164150, Note_on_c, 0, 44, 0
4, 164160, Note_on_c, 0, 44, 28
4, 164172, Control_c, 0, 64, 0
4, 164360, Control_c, 0, 64, 127
4, 164630, Note_on_c, 0, 44, 0
4, 164640, Note_on_c, 0, 44, 24
4, 164870, Note_on_c, 0, 44, 0
4, 164880, Note_on_c, 0, 44, 27
4, 165350, Note_on_c, 0, 44, 0
4, 165360, Note_on_c, 0, 44, 24
4, 165590, Note_on_c, 0, 44, 0
4, 165600, Note_on_c, 0, 44, 26
4, 165606, Control_c, 0, 64, 0
4, 165720, Control_c, 0, 64, 127
4, 166070, Note_on_c, 0, 44, 0
4, 166080, Note_on_c, 0, 44, 18
4, 166094, Control_c, 0, 64, 0
4, 166172, Control_c, 0, 64, 127
4, 166310, Note_on_c, 0, 44, 0
4, 166320, Note_on_c, 0, 44, 22
4, 166334, Control_c, 0, 64, 0
4, 166405, Control_c, 0, 64, 127
4, 166572, Control_c, 0, 64, 0
4, 166659, Control_c, 0, 64, 127
4, 166790, Note_on_c, 0, 44, 0
4, 166800, Note_on_c, 0, 44, 18
4, 166811, Control_c, 0, 64, 0
4, 166885, Control_c, 0, 64, 127
4, 167030, Note_on_c, 0, 44, 0
4, 167040, Note_on_c, 0, 44, 25
4, 167040, Control_c, 0, 64, 0
4, 167240, Control_c, 0, 64, 127
4, 167510, Note_on_c, 0, 44, 0
4, 167520, Note_on_c, 0, 44, 20
4, 167750, Note_on_c, 0, 44, 0
4, 167760, Note_on_c, 0, 44, 22
4, 168230, Note_on_c, 0, 44, 0
4, 168240, Note_on_c, 0, 44, 25
4, 168307, Control_c, 0, 64, 0
4, 168387, Control_c, 0, 64, 127
4, 168470, Note_on_c, 0, 44, 0
4, 168480, Note_on_c, 0, 44, 30
4, 168950, Note_on_c, 0, 44, 0
4, 168960, Note_on_c, 0, 44, 25
4, 169190, Note_on_c, 0, 44, 0
4, 169200, Note_on_c, 0, 44, 28
4, 169670, Note_on_c, 0, 44, 0
4, 169680, Note_on_c, 0, 44, 25
4, 169910, Note_on_c, 0, 44, 0
4, 169920, Note_on_c, 0, 44, 28
4, 169925, Control_c, 0, 64, 0
4, 169980, Control_c, 0, 64, 127
4, 170390, Note_on_c, 0, 44, 0
4, 170400, Note_on_c, 0, 44, 25
4, 170416, Control_c, 0, 64, 0
4, 170630, Note_on_c, 0, 44, 0
4, 170640, Note_on_c, 0, 44, 28
4, 170697, Control_c, 0, 64, 127
4, 171110, Note_on_c, 0, 44, 0
4, 171120, Note_on_c, 0, 44, 22
4, 171350, Note_on_c, 0, 44, 0
4, 171360, Note_on_c, 0, 44, 28
4, 171364, Control_c, 0, 64, 0
4, 171497, Control_c, 0, 64, 127
4, 171830, Note_on_c, 0, 44, 0
4, 171840, Note_on_c, 0, 44, 25
4, 172070, Note_on_c, 0, 44, 0
4, 172080, Note_on_c, 0, 44, 28
4, 172088, Control_c, 0, 64, 0
4, 172252, Control_c, 0, 64, 127
4, 172818, Control_c, 0, 64, 0
4, 173114, Control_c, 0, 64, 127
4, 173531, Control_c, 0, 64, 0
4, 173584, Control_c, 0, 64, 127
4, 174012, Control_c, 0, 64, 0
4, 174081, Control_c, 0, 64, 127
4, 174240, Note_on_c, 0, 44, 0
4, 174240, Note_on_c, 0, 44, 28
4, 174280, Control_c, 0, 64, 0
4, 174467, Control_c, 0, 64, 127
4, 174710, Note_on_c, 0, 44, 0
4, 174720, Note_on_c, 0, 44, 23
4, 174950, Note_on_c, 0, 44, 0
4, 174960, Note_on_c, 0, 44, 28
4, 175430, Note_on_c, 0, 44, 0
4, 175440, Note_on_c, 0, 44, 23
4, 175670, Note_on_c, 0, 44, 0
4, 175680, Note_on_c, 0, 44, 28
4, 176150, Note_on_c, 0, 44, 0
4, 176160, Note_on_c, 0, 44, 23
4, 176390, Note_on_c, 0, 44, 0
4, 176400, Note_on_c, 0, 44, 28
4, 176870, Note_on_c, 0, 44, 0
4, 176880, Note_on_c, 0, 44, 23
4, 177110, Note_on_c, 0, 44, 0
4, 177120, Note_on_c, 0, 44, 28
4, 177120, Control_c, 0, 64, 0
4, 177267, Control_c, 0, 64, 127
4, 177590, Note_on_c, 0, 44, 0
4, 177600, Note_on_c, 0, 44, 23
4, 177830, Note_on_c, 0, 44, 0
4, 177840, Note_on_c, 0, 44, 28
4, 177854, Control_c, 0, 64, 0
4, 178040, Control_c, 0, 64, 127
4, 178310, Note_on_c, 0, 44, 0
4, 178320, Note_on_c, 0, 44, 23
4, 178550, Note_on_c, 0, 44, 0
4, 178560, Note_on_c, 0, 44, 28
4, 178566, Control_c, 0, 64, 0
4, 178720, Control_c, 0, 64, 127
4, 179030, Note_on_c, 0, 44, 0
4, 179040, Note_on_c, 0, 44, 23
4, 179270, Note_on_c, 0, 44, 0
4, 179280, Note_on_c, 0, 44, 28
4, 179750, Note_on_c, 0, 44, 0
4, 179760, Note_on_c, 0, 44, 23
4, 179990, Note_on_c, 0, 44, 0
4, 180000, Note_on_c, 0, 44, 28
4, 180004, Control_c, 0, 64, 0
4, 180147, Control_c, 0, 64, 127
4, 180470, Note_on_c, 0, 44, 0
4, 180480, Note_on_c, 0, 44, 23
4, 180710, Note_on_c, 0, 44, 0
4, 180720, Note_on_c, 0, 44, 28
4, 180733, Control_c, 0, 64, 0
4, 180880, Control_c, 0, 64, 127
4, 181190, Note_on_c, 0, 44, 0
4, 181200, Note_on_c, 0, 44, 23
4, 181430, Note_on_c, 0, 44, 0
4, 181440, Note_on_c, 0, 44, 28
4, 181443, Control_c, 0, 64, 0
4, 182661, Control_c, 0, 64, 127
4, 182880, Note_on_c, 0, 44, 0
4, 183360, Note_on_c, 0, 44, 28
4, 184070, Note_on_c, 0, 44, 0
4, 184080, Note_on_c, 0, 44, 28
4, 184790, Note_on_c, 0, 44, 0
4, 185760, Control_c, 0, 64, 0
4, 185760, End_track
5, 0, Start_track
5, 0, Title_t, "Spur 4"
5, 0, End_track
6, 0, Start_track
6, 0, Title_t, "Modest Mussorgski: Bilder einer Ausstellung (2)"
6, 0, End_track
7, 0, Start_track
7, 0, Title_t, "Copyright © 2000 by Bernd Krüger"
7, 0, End_track
8, 0, Start_track
8, 0, Title_t, "http://www.piano-midi.de"
8, 0, End_track
9, 0, Start_track
9, 0, Title_t, "Edition: 2013-11-12"
9, 0, End_track
0, 0, End_of_file
