0, 0, Header, 1, 9, 480
1, 0, Start_track
1, 0, Title_t, "Gaspard de la Nuit"
1, 0, Title_t, "Le Gibet"
1, 0, Copyright_t, "Copyright © 2004 von Bernd Krüger."
1, 0, Text_t, "Maurice Ravel"
1, 0, Text_t, "Tres lent"
1, 0, Text_t, "Fertiggestellt am 15.11.98\012"
1, 0, Text_t, "Update am 23.11.98 (Verweis auf Audio-File herausgenommen)\012"
1, 0, Text_t, "Update am 22.1.2004\012"
1, 0, Text_t, "Dauer: 6:08 Minuten\012"
1, 0, Time_signature, 4, 2, 24, 8
1, 0, Key_signature, -6, "major"
1, 0, Tempo, 1271725
1, 480, Tempo, 1159196
1, 720, Tempo, 1756440
1, 960, Tempo, 1756440
1, 1920, Tempo, 1870324
1, 2160, Tempo, 1811594
1, 2640, Tempo, 1756440
1, 3600, Tempo, 2416432
1, 3840, Tempo, 1840491
1, 4080, Tempo, 1680672
1, 4560, Tempo, 1756440
1, 4800, Tempo, 1811594
1, 5040, Tempo, 1756440
1, 5280, Tempo, 1680672
1, 5520, Tempo, 1999334
1, 5760, Tempo, 1840491
1, 6000, Tempo, 1680672
1, 6480, Tempo, 1756440
1, 6720, Tempo, 1840491
1, 6960, Tempo, 1756440
1, 7200, Tempo, 1680672
1, 7440, Tempo, 1999334
1, 7680, Tempo, 1932367
1, 7920, Tempo, 1756440
1, 8400, Tempo, 1840491
1, 9120, Tempo, 1756440
1, 9360, Tempo, 2416432
1, 9600, Tempo, 1730104
1, 9840, Tempo, 1656543
1, 10080, Tempo, 1705030
1, 10560, Tempo, 1633097
1, 10800, Tempo, 1705030
1, 11040, Tempo, 1783591
1, 11400, Tempo, 2229654
1, 11520, Tempo, 1811594
1, 11760, Tempo, 1730104
1, 12000, Tempo, 1840491
1, 12440, Tempo, 1730104
1, 13200, Tempo, 2416432
1, 13440, Tempo, 1840491
1, 13680, Tempo, 1680672
1, 14160, Tempo, 1756440
1, 14400, Tempo, 1811594
1, 14640, Tempo, 1756440
1, 14880, Tempo, 1705030
1, 15120, Tempo, 1999334
1, 15360, Tempo, 1965280
1, 15600, Tempo, 1783591
1, 16080, Tempo, 1870324
1, 16800, Tempo, 1756440
1, 17040, Tempo, 2416432
1, 17280, Tempo, 1705030
1, 17520, Tempo, 1633097
1, 17760, Tempo, 1705030
1, 18240, Tempo, 1633097
1, 18480, Tempo, 1705030
1, 18720, Tempo, 1783591
1, 19080, Tempo, 2229654
1, 19200, Tempo, 1811594
1, 19440, Tempo, 1756440
1, 19680, Tempo, 1840491
1, 20160, Tempo, 1730104
1, 20680, Tempo, 1756440
1, 20880, Tempo, 2070393
1, 21120, Tempo, 1870324
1, 21360, Tempo, 1680672
1, 21600, Tempo, 1756440
1, 22080, Tempo, 1811594
1, 22320, Tempo, 1656543
1, 22560, Tempo, 1588142
1, 22800, Tempo, 1870324
1, 23040, Tempo, 1840491
1, 23280, Tempo, 1680672
1, 23520, Tempo, 1756440
1, 24000, Tempo, 1811594
1, 24240, Tempo, 1656543
1, 24480, Tempo, 1610306
1, 24640, Tempo, 1505646
1, 24800, Tempo, 1610306
1, 24960, Tempo, 1811594
1, 25200, Tempo, 1680672
1, 25920, Tempo, 1901141
1, 26160, Tempo, 1783591
1, 26400, Tempo, 1840491
1, 26880, Time_signature, 3, 2, 24, 8
1, 26880, Tempo, 1965280
1, 27120, Tempo, 1840491
1, 28080, Tempo, 2108222
1, 28320, Tempo, 1999334
1, 28560, Tempo, 1870324
1, 29280, Tempo, 2034588
1, 29520, Tempo, 2468120
1, 29760, Time_signature, 4, 2, 24, 8
1, 29760, Tempo, 1870324
1, 30000, Tempo, 1680672
1, 30240, Tempo, 1756440
1, 30720, Tempo, 1811594
1, 30960, Tempo, 1656543
1, 31200, Tempo, 1588142
1, 31440, Tempo, 1870324
1, 31680, Tempo, 1840491
1, 31920, Tempo, 1680672
1, 32160, Tempo, 1756440
1, 32640, Tempo, 1811594
1, 32880, Tempo, 1656543
1, 33120, Tempo, 1610306
1, 33280, Tempo, 1680672
1, 33440, Tempo, 1783591
1, 33600, Tempo, 1811594
1, 33840, Tempo, 1680672
1, 34560, Tempo, 1901141
1, 34800, Tempo, 1783591
1, 35040, Tempo, 1840491
1, 35760, Tempo, 1633097
1, 36000, Tempo, 1656543
1, 36240, Tempo, 1566989
1, 36480, Tempo, 1656543
1, 36720, Tempo, 1588142
1, 36960, Tempo, 1656543
1, 37200, Tempo, 1588142
1, 37440, Tempo, 1656543
1, 37680, Tempo, 1588142
1, 37920, Tempo, 1656543
1, 38160, Tempo, 1610306
1, 38400, Tempo, 1656543
1, 39120, Tempo, 1680672
1, 39360, Tempo, 1656543
1, 40080, Tempo, 1730104
1, 40320, Tempo, 1783591
1, 40800, Tempo, 1870324
1, 41040, Tempo, 2034588
1, 41280, Key_signature, 0, "major"
1, 41280, Tempo, 1730104
1, 41520, Tempo, 1610306
1, 41760, Tempo, 1656543
1, 42000, Tempo, 1566989
1, 42240, Tempo, 1656543
1, 42480, Tempo, 1588142
1, 42720, Tempo, 1656543
1, 42960, Tempo, 1588142
1, 43200, Tempo, 1656543
1, 43920, Tempo, 1705030
1, 44160, Tempo, 1610306
1, 45120, Tempo, 1656543
1, 45600, Tempo, 1610306
1, 46080, Tempo, 1656543
1, 46560, Tempo, 1756440
1, 47040, Tempo, 1870324
1, 47280, Tempo, 1656543
1, 47520, Tempo, 1756440
1, 48720, Tempo, 1965280
1, 48960, Tempo, 1870324
1, 49200, Tempo, 1656543
1, 49440, Tempo, 1756440
1, 50880, Time_signature, 6, 2, 24, 8
1, 50880, Tempo, 1633097
1, 51120, Tempo, 1576458
1, 51360, Tempo, 1671775
1, 51840, Tempo, 1588142
1, 52320, Tempo, 1656543
1, 52560, Tempo, 1553197
1, 52800, Tempo, 1449275
1, 53040, Tempo, 1576458
1, 53280, Tempo, 1553197
1, 53760, Tempo, 1671775
1, 54000, Tempo, 1553197
1, 54240, Tempo, 1671775
1, 54960, Tempo, 1538462
1, 55200, Tempo, 1481481
1, 55440, Tempo, 1525553
1, 55680, Tempo, 1633097
1, 55920, Tempo, 1553197
1, 56160, Tempo, 1671775
1, 56520, Tempo, 1902346
1, 56640, Time_signature, 4, 2, 24, 8
1, 56640, Tempo, 1779359
1, 56880, Tempo, 1723643
1, 57120, Tempo, 1671775
1, 58560, Tempo, 1756440
1, 58800, Tempo, 1680672
1, 59040, Tempo, 1730104
1, 59760, Tempo, 1656543
1, 60000, Tempo, 1730104
1, 60480, Time_signature, 5, 2, 24, 8
1, 60480, Tempo, 1783591
1, 60720, Tempo, 1633097
1, 60960, Tempo, 1730104
1, 61440, Tempo, 1656543
1, 61680, Tempo, 1756440
1, 62160, Tempo, 1633097
1, 62400, Tempo, 1656543
1, 62760, Tempo, 1901141
1, 62880, Time_signature, 4, 2, 24, 8
1, 62880, Tempo, 1680672
1, 63120, Tempo, 1610306
1, 63360, Tempo, 1680672
1, 64560, Tempo, 1783591
1, 64800, Tempo, 1730104
1, 65040, Tempo, 1633097
1, 65280, Tempo, 1680672
1, 65760, Tempo, 1811594
1, 66000, Tempo, 1680672
1, 66240, Tempo, 1783591
1, 66480, Tempo, 2108222
1, 66720, Key_signature, -6, "major"
1, 66720, Tempo, 2070393
1, 66960, Tempo, 1680672
1, 67200, Tempo, 1756440
1, 67680, Tempo, 1811594
1, 67920, Tempo, 1656543
1, 68160, Tempo, 1588142
1, 68400, Tempo, 1870324
1, 68640, Tempo, 1840491
1, 68880, Tempo, 1680672
1, 69120, Tempo, 1756440
1, 69600, Tempo, 1811594
1, 69840, Tempo, 1656543
1, 70080, Tempo, 1610306
1, 70240, Tempo, 1680672
1, 70400, Tempo, 1783591
1, 70560, Tempo, 1656543
1, 71280, Tempo, 1610306
1, 71520, Tempo, 1680672
1, 72000, Tempo, 1610306
1, 72240, Tempo, 1525553
1, 72480, Time_signature, 3, 2, 24, 8
1, 72480, Tempo, 1566989
1, 72720, Tempo, 1680672
1, 73440, Tempo, 1545993
1, 73680, Tempo, 1610306
1, 73920, Time_signature, 4, 2, 24, 8
1, 73920, Tempo, 1610306
1, 74640, Tempo, 1680672
1, 75360, Tempo, 1870324
1, 76080, Tempo, 1656543
1, 76320, Tempo, 1656543
1, 76560, Tempo, 1566989
1, 76800, Tempo, 1656543
1, 77040, Tempo, 1588142
1, 77280, Tempo, 1656543
1, 78000, Tempo, 1730104
1, 78240, Tempo, 1783591
1, 78480, Tempo, 1870324
1, 78960, Tempo, 1680672
1, 80400, Tempo, 1783591
1, 80640, Tempo, 1680672
1, 80880, Tempo, 1588142
1, 81120, Tempo, 1680672
1, 81360, Tempo, 1840491
1, 81600, Tempo, 1680672
1, 81840, Tempo, 1730104
1, 82080, Tempo, 1783591
1, 82320, Tempo, 1680672
1, 82800, Tempo, 1588142
1, 83040, Tempo, 1656543
1, 83760, Tempo, 1730104
1, 84000, Tempo, 1783591
1, 84240, Tempo, 1870324
1, 87600, Tempo, 1956947
1, 87840, Tempo, 1870324
1, 88080, Tempo, 1870324
1, 89520, Tempo, 1926782
1, 89760, Tempo, 1870324
1, 90000, Tempo, 1870324
1, 91680, Tempo, 1870324
1, 91920, Tempo, 1870324
1, 92400, Tempo, 1783591
1, 92640, Tempo, 1870324
1, 92880, Tempo, 2108222
1, 93120, Tempo, 1870324
1, 93360, Tempo, 1926782
1, 93600, Tempo, 1870324
1, 93840, Tempo, 1870324
1, 94080, Tempo, 2034588
1, 94320, Tempo, 1783591
1, 94560, Tempo, 1840491
1, 94800, Tempo, 2034588
1, 95040, Tempo, 1901141
1, 95520, Tempo, 2018843
1, 95760, Tempo, 1965280
1, 96240, Tempo, 2147459
1, 96480, Tempo, 1999334
1, 97440, Tempo, 2273588
1, 97680, Tempo, 2034588
1, 98400, Tempo, 2521008
1, 99874, Tempo, 2378121
1, 99874, End_track
2, 0, Start_track
2, 0, MIDI_port, 0
2, 0, Title_t, "Piano right"
2, 0, Program_c, 0, 0
2, 0, Control_c, 0, 7, 100
2, 0, Text_t, "bdca426d104a26ac9dcb070447587523"
2, 480, Control_c, 0, 91, 127
2, 3840, Note_on_c, 0, 65, 33
2, 5035, Note_on_c, 0, 65, 0
2, 5040, Note_on_c, 0, 54, 19
2, 5040, Note_on_c, 0, 61, 28
2, 5280, Note_on_c, 0, 61, 0
2, 5280, Note_on_c, 0, 54, 0
2, 5280, Note_on_c, 0, 56, 20
2, 5280, Note_on_c, 0, 63, 33
2, 5635, Note_on_c, 0, 63, 0
2, 5635, Note_on_c, 0, 56, 0
2, 5640, Note_on_c, 0, 63, 31
2, 5640, Note_on_c, 0, 59, 24
2, 5760, Note_on_c, 0, 59, 0
2, 5760, Note_on_c, 0, 63, 0
2, 5760, Note_on_c, 0, 65, 33
2, 5760, Note_on_c, 0, 58, 26
2, 6954, Note_on_c, 0, 58, 0
2, 6954, Note_on_c, 0, 65, 0
2, 6960, Note_on_c, 0, 61, 28
2, 6960, Note_on_c, 0, 54, 19
2, 7200, Note_on_c, 0, 54, 0
2, 7200, Note_on_c, 0, 61, 0
2, 7200, Note_on_c, 0, 56, 20
2, 7200, Note_on_c, 0, 63, 33
2, 7554, Note_on_c, 0, 63, 0
2, 7555, Note_on_c, 0, 56, 0
2, 7560, Note_on_c, 0, 59, 20
2, 7560, Note_on_c, 0, 63, 31
2, 7680, Note_on_c, 0, 63, 0
2, 7680, Note_on_c, 0, 59, 0
2, 7680, Note_on_c, 0, 65, 33
2, 7680, Note_on_c, 0, 58, 26
2, 9600, Note_on_c, 0, 58, 0
2, 9600, Note_on_c, 0, 65, 0
2, 9600, Note_on_c, 0, 73, 42
2, 9956, Note_on_c, 0, 73, 0
2, 9960, Note_on_c, 0, 75, 39
2, 10080, Note_on_c, 0, 75, 0
2, 10080, Note_on_c, 0, 73, 37
2, 10557, Note_on_c, 0, 73, 0
2, 10560, Note_on_c, 0, 76, 45
2, 10800, Note_on_c, 0, 76, 0
2, 10800, Note_on_c, 0, 75, 42
2, 11040, Note_on_c, 0, 72, 39
2, 11042, Note_on_c, 0, 75, 0
2, 11395, Note_on_c, 0, 72, 0
2, 11400, Note_on_c, 0, 75, 39
2, 11518, Note_on_c, 0, 75, 0
2, 11520, Note_on_c, 0, 75, 39
2, 11520, Note_on_c, 0, 64, 25
2, 12000, Note_on_c, 0, 75, 0
2, 12000, Note_on_c, 0, 73, 28
2, 12480, Note_on_c, 0, 64, 0
2, 13440, Note_on_c, 0, 73, 0
2, 13440, Note_on_c, 0, 65, 42
2, 14635, Note_on_c, 0, 65, 0
2, 14640, Note_on_c, 0, 61, 34
2, 14640, Note_on_c, 0, 54, 21
2, 14880, Note_on_c, 0, 54, 0
2, 14880, Note_on_c, 0, 61, 0
2, 14880, Note_on_c, 0, 63, 42
2, 14880, Note_on_c, 0, 56, 26
2, 15234, Note_on_c, 0, 63, 0
2, 15235, Note_on_c, 0, 56, 0
2, 15240, Note_on_c, 0, 63, 38
2, 15240, Note_on_c, 0, 59, 30
2, 15360, Note_on_c, 0, 59, 0
2, 15360, Note_on_c, 0, 63, 0
2, 15360, Note_on_c, 0, 65, 42
2, 15360, Note_on_c, 0, 58, 32
2, 17280, Note_on_c, 0, 58, 0
2, 17280, Note_on_c, 0, 65, 0
2, 17280, Note_on_c, 0, 73, 38
2, 17280, Note_on_c, 0, 76, 43
2, 17635, Note_on_c, 0, 76, 0
2, 17635, Note_on_c, 0, 73, 0
2, 17640, Note_on_c, 0, 78, 39
2, 17640, Note_on_c, 0, 75, 34
2, 17760, Note_on_c, 0, 75, 0
2, 17760, Note_on_c, 0, 78, 0
2, 17760, Note_on_c, 0, 76, 38
2, 17760, Note_on_c, 0, 73, 33
2, 18235, Note_on_c, 0, 73, 0
2, 18236, Note_on_c, 0, 76, 0
2, 18240, Note_on_c, 0, 76, 42
2, 18240, Note_on_c, 0, 80, 46
2, 18480, Note_on_c, 0, 80, 0
2, 18480, Note_on_c, 0, 76, 0
2, 18480, Note_on_c, 0, 79, 43
2, 18480, Note_on_c, 0, 75, 38
2, 18720, Note_on_c, 0, 75, 0
2, 18720, Note_on_c, 0, 79, 0
2, 18720, Note_on_c, 0, 70, 37
2, 18720, Note_on_c, 0, 73, 42
2, 19074, Note_on_c, 0, 70, 0
2, 19076, Note_on_c, 0, 73, 0
2, 19080, Note_on_c, 0, 78, 43
2, 19080, Note_on_c, 0, 75, 38
2, 19197, Note_on_c, 0, 78, 0
2, 19198, Note_on_c, 0, 75, 0
2, 19200, Note_on_c, 0, 78, 39
2, 19200, Note_on_c, 0, 75, 34
2, 19680, Note_on_c, 0, 75, 0
2, 19680, Note_on_c, 0, 78, 0
2, 19680, Note_on_c, 0, 73, 26
2, 19680, Note_on_c, 0, 76, 28
2, 21120, Note_on_c, 0, 76, 0
2, 21120, Note_on_c, 0, 73, 0
2, 21120, Note_on_c, 0, 71, 45
2, 21120, Note_on_c, 0, 75, 45
2, 21120, Note_on_c, 0, 80, 51
2, 21120, Note_on_c, 0, 68, 45
2, 22320, Note_on_c, 0, 68, 0
2, 22320, Note_on_c, 0, 71, 0
2, 22320, Note_on_c, 0, 75, 0
2, 22320, Note_on_c, 0, 80, 0
2, 22320, Note_on_c, 0, 64, 44
2, 22320, Note_on_c, 0, 76, 50
2, 22320, Note_on_c, 0, 68, 44
2, 22320, Note_on_c, 0, 71, 44
2, 22560, Note_on_c, 0, 71, 0
2, 22560, Note_on_c, 0, 64, 0
2, 22560, Note_on_c, 0, 76, 0
2, 22560, Note_on_c, 0, 68, 0
2, 22560, Note_on_c, 0, 72, 48
2, 22560, Note_on_c, 0, 77, 54
2, 22560, Note_on_c, 0, 65, 48
2, 22560, Note_on_c, 0, 68, 48
2, 22914, Note_on_c, 0, 68, 0
2, 22915, Note_on_c, 0, 65, 0
2, 22915, Note_on_c, 0, 72, 0
2, 22916, Note_on_c, 0, 77, 0
2, 22920, Note_on_c, 0, 78, 51
2, 22920, Note_on_c, 0, 70, 51
2, 22920, Note_on_c, 0, 74, 51
2, 22920, Note_on_c, 0, 82, 58
2, 23040, Note_on_c, 0, 82, 0
2, 23040, Note_on_c, 0, 78, 0
2, 23040, Note_on_c, 0, 70, 0
2, 23040, Note_on_c, 0, 74, 0
2, 23040, Note_on_c, 0, 71, 50
2, 23040, Note_on_c, 0, 68, 50
2, 23040, Note_on_c, 0, 80, 55
2, 23040, Note_on_c, 0, 75, 50
2, 24240, Note_on_c, 0, 75, 0
2, 24240, Note_on_c, 0, 71, 0
2, 24240, Note_on_c, 0, 68, 0
2, 24240, Note_on_c, 0, 80, 0
2, 24240, Note_on_c, 0, 71, 44
2, 24240, Note_on_c, 0, 64, 44
2, 24240, Note_on_c, 0, 68, 44
2, 24240, Note_on_c, 0, 76, 50
2, 24480, Note_on_c, 0, 76, 0
2, 24480, Note_on_c, 0, 71, 0
2, 24480, Note_on_c, 0, 64, 0
2, 24480, Note_on_c, 0, 68, 0
2, 24480, Note_on_c, 0, 77, 54
2, 24480, Note_on_c, 0, 65, 48
2, 24480, Note_on_c, 0, 72, 48
2, 24480, Note_on_c, 0, 68, 48
2, 24636, Note_on_c, 0, 68, 0
2, 24637, Note_on_c, 0, 77, 0
2, 24637, Note_on_c, 0, 65, 0
2, 24637, Note_on_c, 0, 72, 0
2, 24640, Note_on_c, 0, 74, 52
2, 24640, Note_on_c, 0, 78, 52
2, 24640, Note_on_c, 0, 82, 58
2, 24640, Note_on_c, 0, 70, 52
2, 24800, Note_on_c, 0, 70, 0
2, 24800, Note_on_c, 0, 74, 0
2, 24800, Note_on_c, 0, 78, 0
2, 24800, Note_on_c, 0, 82, 0
2, 24800, Note_on_c, 0, 77, 50
2, 24800, Note_on_c, 0, 73, 50
2, 24800, Note_on_c, 0, 81, 55
2, 24800, Note_on_c, 0, 69, 50
2, 24960, Note_on_c, 0, 69, 0
2, 24960, Note_on_c, 0, 77, 0
2, 24960, Note_on_c, 0, 73, 0
2, 24960, Note_on_c, 0, 81, 0
2, 24960, Note_on_c, 0, 71, 50
2, 24960, Note_on_c, 0, 68, 50
2, 24960, Note_on_c, 0, 80, 55
2, 24960, Note_on_c, 0, 75, 50
2, 26160, Note_on_c, 0, 75, 0
2, 26160, Note_on_c, 0, 71, 0
2, 26160, Note_on_c, 0, 68, 0
2, 26160, Note_on_c, 0, 80, 0
2, 26160, Note_on_c, 0, 70, 48
2, 26160, Note_on_c, 0, 66, 48
2, 26160, Note_on_c, 0, 78, 52
2, 26160, Note_on_c, 0, 74, 48
2, 26640, Note_on_c, 0, 74, 0
2, 26640, Note_on_c, 0, 70, 0
2, 26640, Note_on_c, 0, 66, 0
2, 26640, Note_on_c, 0, 78, 0
2, 26640, Note_on_c, 0, 68, 38
2, 26640, Note_on_c, 0, 65, 38
2, 26640, Note_on_c, 0, 77, 43
2, 26640, Note_on_c, 0, 72, 38
2, 26880, Note_on_c, 0, 72, 0
2, 26880, Note_on_c, 0, 68, 0
2, 26880, Note_on_c, 0, 65, 0
2, 26880, Note_on_c, 0, 77, 0
2, 26880, Note_on_c, 0, 51, 27
2, 26880, Note_on_c, 0, 56, 27
2, 27840, Note_on_c, 0, 56, 0
2, 27840, Note_on_c, 0, 51, 0
2, 27840, Note_on_c, 0, 46, 20
2, 27840, Note_on_c, 0, 51, 20
2, 28320, Note_on_c, 0, 51, 0
2, 28320, Note_on_c, 0, 46, 0
2, 28320, Note_on_c, 0, 51, 24
2, 28320, Note_on_c, 0, 56, 24
2, 29280, Note_on_c, 0, 56, 0
2, 29280, Note_on_c, 0, 51, 0
2, 29280, Note_on_c, 0, 46, 20
2, 29280, Note_on_c, 0, 51, 20
2, 29760, Note_on_c, 0, 51, 0
2, 29760, Note_on_c, 0, 46, 0
2, 29760, Note_on_c, 0, 73, 45
2, 29760, Note_on_c, 0, 80, 45
2, 29760, Note_on_c, 0, 76, 45
2, 29760, Note_on_c, 0, 85, 51
2, 30960, Note_on_c, 0, 85, 0
2, 30960, Note_on_c, 0, 73, 0
2, 30960, Note_on_c, 0, 80, 0
2, 30960, Note_on_c, 0, 76, 0
2, 30960, Note_on_c, 0, 81, 50
2, 30960, Note_on_c, 0, 69, 44
2, 30960, Note_on_c, 0, 72, 44
2, 30960, Note_on_c, 0, 76, 44
2, 31200, Note_on_c, 0, 76, 0
2, 31200, Note_on_c, 0, 81, 0
2, 31200, Note_on_c, 0, 69, 0
2, 31200, Note_on_c, 0, 72, 0
2, 31200, Note_on_c, 0, 77, 48
2, 31200, Note_on_c, 0, 82, 54
2, 31200, Note_on_c, 0, 73, 48
2, 31554, Note_on_c, 0, 82, 0
2, 31554, Note_on_c, 0, 77, 0
2, 31555, Note_on_c, 0, 73, 0
2, 31560, Note_on_c, 0, 83, 51
2, 31560, Note_on_c, 0, 87, 58
2, 31560, Note_on_c, 0, 76, 51
2, 31560, Note_on_c, 0, 79, 51
2, 31680, Note_on_c, 0, 79, 0
2, 31680, Note_on_c, 0, 83, 0
2, 31680, Note_on_c, 0, 87, 0
2, 31680, Note_on_c, 0, 76, 0
2, 31680, Note_on_c, 0, 76, 50
2, 31680, Note_on_c, 0, 80, 50
2, 31680, Note_on_c, 0, 85, 55
2, 31680, Note_on_c, 0, 73, 50
2, 32880, Note_on_c, 0, 73, 0
2, 32880, Note_on_c, 0, 76, 0
2, 32880, Note_on_c, 0, 80, 0
2, 32880, Note_on_c, 0, 85, 0
2, 32880, Note_on_c, 0, 76, 44
2, 32880, Note_on_c, 0, 69, 44
2, 32880, Note_on_c, 0, 81, 50
2, 32880, Note_on_c, 0, 72, 44
2, 33120, Note_on_c, 0, 72, 0
2, 33120, Note_on_c, 0, 76, 0
2, 33120, Note_on_c, 0, 69, 0
2, 33120, Note_on_c, 0, 81, 0
2, 33120, Note_on_c, 0, 77, 48
2, 33120, Note_on_c, 0, 73, 48
2, 33120, Note_on_c, 0, 82, 54
2, 33277, Note_on_c, 0, 82, 0
2, 33277, Note_on_c, 0, 73, 0
2, 33277, Note_on_c, 0, 77, 0
2, 33280, Note_on_c, 0, 87, 58
2, 33280, Note_on_c, 0, 79, 52
2, 33280, Note_on_c, 0, 83, 52
2, 33280, Note_on_c, 0, 76, 52
2, 33440, Note_on_c, 0, 76, 0
2, 33440, Note_on_c, 0, 87, 0
2, 33440, Note_on_c, 0, 79, 0
2, 33440, Note_on_c, 0, 83, 0
2, 33440, Note_on_c, 0, 78, 50
2, 33440, Note_on_c, 0, 82, 50
2, 33440, Note_on_c, 0, 86, 55
2, 33440, Note_on_c, 0, 74, 50
2, 33600, Note_on_c, 0, 74, 0
2, 33600, Note_on_c, 0, 78, 0
2, 33600, Note_on_c, 0, 82, 0
2, 33600, Note_on_c, 0, 86, 0
2, 33600, Note_on_c, 0, 76, 50
2, 33600, Note_on_c, 0, 80, 50
2, 33600, Note_on_c, 0, 85, 55
2, 33600, Note_on_c, 0, 73, 50
2, 34800, Note_on_c, 0, 73, 0
2, 34800, Note_on_c, 0, 76, 0
2, 34800, Note_on_c, 0, 80, 0
2, 34800, Note_on_c, 0, 85, 0
2, 34800, Note_on_c, 0, 75, 48
2, 34800, Note_on_c, 0, 79, 48
2, 34800, Note_on_c, 0, 83, 52
2, 34800, Note_on_c, 0, 71, 48
2, 35280, Note_on_c, 0, 71, 0
2, 35280, Note_on_c, 0, 75, 0
2, 35280, Note_on_c, 0, 79, 0
2, 35280, Note_on_c, 0, 83, 0
2, 35280, Note_on_c, 0, 77, 38
2, 35280, Note_on_c, 0, 82, 43
2, 35280, Note_on_c, 0, 73, 38
2, 35520, Note_on_c, 0, 73, 0
2, 35520, Note_on_c, 0, 82, 0
2, 35520, Note_on_c, 0, 77, 0
2, 35760, Note_on_c, 0, 95, 31
2, 35760, Note_on_c, 0, 90, 31
2, 35760, Note_on_c, 0, 86, 31
2, 35760, Note_on_c, 0, 100, 33
2, 36000, Note_on_c, 0, 100, 0
2, 36000, Note_on_c, 0, 95, 0
2, 36000, Note_on_c, 0, 90, 0
2, 36000, Note_on_c, 0, 86, 0
2, 36000, Note_on_c, 0, 80, 30
2, 36000, Note_on_c, 0, 90, 30
2, 36000, Note_on_c, 0, 95, 33
2, 36000, Note_on_c, 0, 86, 30
2, 36240, Note_on_c, 0, 86, 0
2, 36240, Note_on_c, 0, 80, 0
2, 36240, Note_on_c, 0, 90, 0
2, 36240, Note_on_c, 0, 95, 0
2, 36240, Note_on_c, 0, 88, 30
2, 36240, Note_on_c, 0, 78, 30
2, 36240, Note_on_c, 0, 92, 35
2, 36240, Note_on_c, 0, 83, 30
2, 36480, Note_on_c, 0, 83, 0
2, 36480, Note_on_c, 0, 88, 0
2, 36480, Note_on_c, 0, 78, 0
2, 36480, Note_on_c, 0, 92, 0
2, 36480, Note_on_c, 0, 86, 31
2, 36480, Note_on_c, 0, 76, 31
2, 36480, Note_on_c, 0, 90, 34
2, 36480, Note_on_c, 0, 80, 31
2, 36720, Note_on_c, 0, 80, 0
2, 36720, Note_on_c, 0, 86, 0
2, 36720, Note_on_c, 0, 76, 0
2, 36720, Note_on_c, 0, 90, 0
2, 36720, Note_on_c, 0, 88, 27
2, 36720, Note_on_c, 0, 83, 24
2, 36720, Note_on_c, 0, 75, 24
2, 36720, Note_on_c, 0, 78, 24
2, 36960, Note_on_c, 0, 78, 0
2, 36960, Note_on_c, 0, 88, 0
2, 36960, Note_on_c, 0, 83, 0
2, 36960, Note_on_c, 0, 75, 0
2, 36960, Note_on_c, 0, 75, 22
2, 36960, Note_on_c, 0, 78, 22
2, 36960, Note_on_c, 0, 83, 26
2, 36960, Note_on_c, 0, 68, 22
2, 37200, Note_on_c, 0, 68, 0
2, 37200, Note_on_c, 0, 75, 0
2, 37200, Note_on_c, 0, 78, 0
2, 37200, Note_on_c, 0, 83, 0
2, 37200, Note_on_c, 0, 76, 22
2, 37200, Note_on_c, 0, 71, 22
2, 37200, Note_on_c, 0, 66, 22
2, 37200, Note_on_c, 0, 80, 26
2, 37440, Note_on_c, 0, 80, 0
2, 37440, Note_on_c, 0, 76, 0
2, 37440, Note_on_c, 0, 71, 0
2, 37440, Note_on_c, 0, 66, 0
2, 37440, Note_on_c, 0, 68, 26
2, 37440, Note_on_c, 0, 74, 26
2, 37440, Note_on_c, 0, 78, 28
2, 37680, Note_on_c, 0, 78, 0
2, 37680, Note_on_c, 0, 74, 0
2, 37680, Note_on_c, 0, 68, 0
2, 37680, Note_on_c, 0, 66, 20
2, 37680, Note_on_c, 0, 76, 21
2, 37680, Note_on_c, 0, 71, 20
2, 37920, Note_on_c, 0, 71, 0
2, 37920, Note_on_c, 0, 76, 0
2, 37920, Note_on_c, 0, 66, 0
2, 37920, Note_on_c, 0, 66, 20
2, 37920, Note_on_c, 0, 71, 21
2, 38160, Note_on_c, 0, 71, 0
2, 38160, Note_on_c, 0, 66, 0
2, 38160, Note_on_c, 0, 68, 21
2, 38160, Note_on_c, 0, 64, 18
2, 38400, Note_on_c, 0, 64, 0
2, 38400, Note_on_c, 0, 68, 0
2, 38400, Note_on_c, 0, 66, 26
2, 38400, Note_on_c, 0, 62, 24
2, 38640, Note_on_c, 0, 62, 0
2, 38640, Note_on_c, 0, 66, 0
2, 38640, Note_on_c, 0, 65, 21
2, 38640, Note_on_c, 0, 61, 20
2, 38880, Note_on_c, 0, 61, 0
2, 38880, Note_on_c, 0, 65, 0
2, 38880, Note_on_c, 0, 64, 21
2, 38880, Note_on_c, 0, 60, 20
2, 39120, Note_on_c, 0, 60, 0
2, 39120, Note_on_c, 0, 64, 0
2, 39120, Note_on_c, 0, 63, 21
2, 39120, Note_on_c, 0, 59, 20
2, 39360, Note_on_c, 0, 66, 28
2, 39360, Note_on_c, 0, 62, 26
2, 39368, Note_on_c, 0, 59, 0
2, 39368, Note_on_c, 0, 63, 0
2, 39600, Note_on_c, 0, 66, 0
2, 39600, Note_on_c, 0, 62, 0
2, 39600, Note_on_c, 0, 61, 21
2, 39600, Note_on_c, 0, 65, 22
2, 39840, Note_on_c, 0, 65, 0
2, 39840, Note_on_c, 0, 61, 0
2, 39840, Note_on_c, 0, 64, 21
2, 39840, Note_on_c, 0, 60, 20
2, 40080, Note_on_c, 0, 60, 0
2, 40080, Note_on_c, 0, 64, 0
2, 40080, Note_on_c, 0, 63, 21
2, 40080, Note_on_c, 0, 59, 20
2, 40320, Note_on_c, 0, 66, 26
2, 40320, Note_on_c, 0, 62, 24
2, 40328, Note_on_c, 0, 59, 0
2, 40328, Note_on_c, 0, 63, 0
2, 40560, Note_on_c, 0, 66, 0
2, 40560, Note_on_c, 0, 62, 0
2, 40560, Note_on_c, 0, 61, 20
2, 40560, Note_on_c, 0, 65, 21
2, 40799, Note_on_c, 0, 64, 19
2, 40800, Note_on_c, 0, 65, 0
2, 40800, Note_on_c, 0, 61, 0
2, 40800, Note_on_c, 0, 60, 18
2, 41039, Note_on_c, 0, 64, 0
2, 41040, Note_on_c, 0, 60, 0
2, 41040, Note_on_c, 0, 63, 18
2, 41040, Note_on_c, 0, 59, 16
2, 41288, Note_on_c, 0, 59, 0
2, 41288, Note_on_c, 0, 63, 0
2, 41520, Note_on_c, 0, 92, 33
2, 41520, Note_on_c, 0, 100, 35
2, 41520, Note_on_c, 0, 95, 32
2, 41520, Note_on_c, 0, 86, 32
2, 41760, Note_on_c, 0, 86, 0
2, 41760, Note_on_c, 0, 92, 0
2, 41760, Note_on_c, 0, 100, 0
2, 41760, Note_on_c, 0, 95, 0
2, 41760, Note_on_c, 0, 88, 28
2, 41760, Note_on_c, 0, 83, 28
2, 41760, Note_on_c, 0, 97, 30
2, 41760, Note_on_c, 0, 91, 28
2, 42000, Note_on_c, 0, 91, 0
2, 42000, Note_on_c, 0, 88, 0
2, 42000, Note_on_c, 0, 83, 0
2, 42000, Note_on_c, 0, 97, 0
2, 42000, Note_on_c, 0, 89, 28
2, 42000, Note_on_c, 0, 80, 28
2, 42000, Note_on_c, 0, 94, 30
2, 42000, Note_on_c, 0, 86, 28
2, 42240, Note_on_c, 0, 86, 0
2, 42240, Note_on_c, 0, 89, 0
2, 42240, Note_on_c, 0, 80, 0
2, 42240, Note_on_c, 0, 94, 0
2, 42240, Note_on_c, 0, 83, 31
2, 42240, Note_on_c, 0, 88, 31
2, 42240, Note_on_c, 0, 91, 34
2, 42240, Note_on_c, 0, 77, 31
2, 42480, Note_on_c, 0, 77, 0
2, 42480, Note_on_c, 0, 83, 0
2, 42480, Note_on_c, 0, 88, 0
2, 42480, Note_on_c, 0, 91, 0
2, 42480, Note_on_c, 0, 88, 27
2, 42480, Note_on_c, 0, 74, 24
2, 42480, Note_on_c, 0, 83, 24
2, 42480, Note_on_c, 0, 77, 24
2, 42720, Note_on_c, 0, 77, 0
2, 42720, Note_on_c, 0, 88, 0
2, 42720, Note_on_c, 0, 74, 0
2, 42720, Note_on_c, 0, 83, 0
2, 42720, Note_on_c, 0, 84, 26
2, 42720, Note_on_c, 0, 76, 22
2, 42720, Note_on_c, 0, 79, 22
2, 42960, Note_on_c, 0, 79, 0
2, 42960, Note_on_c, 0, 76, 0
2, 42960, Note_on_c, 0, 84, 0
2, 42960, Note_on_c, 0, 77, 22
2, 42960, Note_on_c, 0, 74, 22
2, 42960, Note_on_c, 0, 81, 26
2, 43200, Note_on_c, 0, 81, 0
2, 43200, Note_on_c, 0, 74, 0
2, 43200, Note_on_c, 0, 77, 0
2, 43200, Note_on_c, 0, 71, 26
2, 43200, Note_on_c, 0, 76, 26
2, 43200, Note_on_c, 0, 79, 28
2, 43440, Note_on_c, 0, 79, 0
2, 43440, Note_on_c, 0, 76, 0
2, 43440, Note_on_c, 0, 71, 0
2, 43440, Note_on_c, 0, 65, 20
2, 43440, Note_on_c, 0, 76, 21
2, 43680, Note_on_c, 0, 76, 0
2, 43680, Note_on_c, 0, 65, 0
2, 43680, Note_on_c, 0, 67, 20
2, 43680, Note_on_c, 0, 73, 21
2, 43680, Note_on_c, 0, 64, 20
2, 43920, Note_on_c, 0, 64, 0
2, 43920, Note_on_c, 0, 73, 0
2, 43920, Note_on_c, 0, 67, 0
2, 43920, Note_on_c, 0, 62, 20
2, 43920, Note_on_c, 0, 65, 21
2, 44160, Note_on_c, 0, 65, 0
2, 44160, Note_on_c, 0, 62, 0
2, 44160, Note_on_c, 0, 64, 26
2, 44160, Note_on_c, 0, 59, 24
2, 44400, Note_on_c, 0, 59, 0
2, 44400, Note_on_c, 0, 69, 25
2, 44400, Note_on_c, 0, 58, 24
2, 44640, Note_on_c, 0, 58, 0
2, 44640, Note_on_c, 0, 69, 0
2, 44640, Note_on_c, 0, 64, 0
2, 44640, Note_on_c, 0, 58, 20
2, 44640, Note_on_c, 0, 68, 21
2, 44640, Note_on_c, 0, 64, 20
2, 44880, Note_on_c, 0, 64, 0
2, 44880, Note_on_c, 0, 68, 0
2, 44880, Note_on_c, 0, 58, 0
2, 44880, Note_on_c, 0, 56, 20
2, 44880, Note_on_c, 0, 62, 20
2, 44880, Note_on_c, 0, 67, 21
2, 45120, Note_on_c, 0, 67, 0
2, 45120, Note_on_c, 0, 62, 0
2, 45120, Note_on_c, 0, 56, 0
2, 45120, Note_on_c, 0, 55, 19
2, 45120, Note_on_c, 0, 66, 20
2, 45120, Note_on_c, 0, 61, 19
2, 45360, Note_on_c, 0, 61, 0
2, 45360, Note_on_c, 0, 66, 0
2, 45360, Note_on_c, 0, 55, 0
2, 45360, Note_on_c, 0, 65, 19
2, 45360, Note_on_c, 0, 54, 18
2, 45360, Note_on_c, 0, 60, 18
2, 45600, Note_on_c, 0, 60, 0
2, 45600, Note_on_c, 0, 54, 0
2, 45600, Note_on_c, 0, 65, 0
2, 45600, Note_on_c, 0, 59, 24
2, 45600, Note_on_c, 0, 64, 26
2, 45840, Note_on_c, 0, 59, 0
2, 45840, Note_on_c, 0, 58, 20
2, 45840, Note_on_c, 0, 69, 20
2, 46080, Note_on_c, 0, 69, 0
2, 46080, Note_on_c, 0, 58, 0
2, 46080, Note_on_c, 0, 58, 20
2, 46080, Note_on_c, 0, 64, 20
2, 46080, Note_on_c, 0, 68, 21
2, 46099, Note_on_c, 0, 64, 0
2, 46320, Note_on_c, 0, 58, 0
2, 46320, Note_on_c, 0, 64, 0
2, 46320, Note_on_c, 0, 68, 0
2, 46320, Note_on_c, 0, 62, 20
2, 46320, Note_on_c, 0, 56, 20
2, 46320, Note_on_c, 0, 67, 21
2, 46560, Note_on_c, 0, 67, 0
2, 46560, Note_on_c, 0, 56, 0
2, 46560, Note_on_c, 0, 62, 0
2, 46560, Note_on_c, 0, 66, 20
2, 46560, Note_on_c, 0, 61, 19
2, 46560, Note_on_c, 0, 55, 19
2, 46800, Note_on_c, 0, 55, 0
2, 46800, Note_on_c, 0, 61, 0
2, 46800, Note_on_c, 0, 66, 0
2, 46800, Note_on_c, 0, 65, 19
2, 46800, Note_on_c, 0, 54, 18
2, 46800, Note_on_c, 0, 60, 18
2, 47040, Note_on_c, 0, 60, 0
2, 47040, Note_on_c, 0, 54, 0
2, 47040, Note_on_c, 0, 65, 0
2, 47040, Note_on_c, 0, 59, 18
2, 47040, Note_on_c, 0, 53, 18
2, 47040, Note_on_c, 0, 64, 34
2, 47520, Note_on_c, 0, 64, 0
2, 47520, Note_on_c, 0, 62, 31
2, 48960, Note_on_c, 0, 62, 0
2, 48960, Note_on_c, 0, 53, 0
2, 48960, Note_on_c, 0, 59, 0
2, 48960, Note_on_c, 0, 59, 18
2, 48960, Note_on_c, 0, 53, 18
2, 48960, Note_on_c, 0, 64, 34
2, 49440, Note_on_c, 0, 64, 0
2, 49440, Note_on_c, 0, 62, 31
2, 50880, Note_on_c, 0, 62, 0
2, 50880, Note_on_c, 0, 53, 0
2, 50880, Note_on_c, 0, 59, 0
2, 50880, Note_on_c, 0, 77, 43
2, 51360, Note_on_c, 0, 77, 0
2, 51360, Note_on_c, 0, 76, 36
2, 52560, Note_on_c, 0, 76, 0
2, 52560, Note_on_c, 0, 77, 39
2, 52800, Note_on_c, 0, 77, 0
2, 52800, Note_on_c, 0, 73, 39
2, 53273, Note_on_c, 0, 73, 0
2, 53280, Note_on_c, 0, 77, 39
2, 53760, Note_on_c, 0, 77, 0
2, 53760, Note_on_c, 0, 77, 43
2, 54240, Note_on_c, 0, 77, 0
2, 54240, Note_on_c, 0, 76, 33
2, 55195, Note_on_c, 0, 76, 0
2, 55200, Note_on_c, 0, 76, 40
2, 55440, Note_on_c, 0, 76, 0
2, 55440, Note_on_c, 0, 77, 44
2, 55680, Note_on_c, 0, 77, 0
2, 55680, Note_on_c, 0, 79, 46
2, 56160, Note_on_c, 0, 79, 0
2, 56160, Note_on_c, 0, 77, 46
2, 56398, Note_on_c, 0, 77, 0
2, 56400, Note_on_c, 0, 76, 43
2, 56640, Note_on_c, 0, 76, 0
2, 56640, Note_on_c, 0, 76, 44
2, 57120, Note_on_c, 0, 76, 0
2, 57120, Note_on_c, 0, 74, 33
2, 57600, Note_on_c, 0, 74, 0
2, 59760, Note_on_c, 0, 65, 45
2, 59760, Note_on_c, 0, 77, 45
2, 60240, Note_on_c, 0, 77, 0
2, 60240, Note_on_c, 0, 65, 0
2, 60240, Note_on_c, 0, 79, 46
2, 60240, Note_on_c, 0, 67, 46
2, 60480, Note_on_c, 0, 67, 0
2, 60480, Note_on_c, 0, 79, 0
2, 60480, Note_on_c, 0, 81, 52
2, 60480, Note_on_c, 0, 74, 52
2, 60480, Note_on_c, 0, 69, 52
2, 60960, Note_on_c, 0, 69, 0
2, 60960, Note_on_c, 0, 81, 0
2, 60960, Note_on_c, 0, 79, 49
2, 60960, Note_on_c, 0, 67, 49
2, 61680, Note_on_c, 0, 67, 0
2, 61680, Note_on_c, 0, 79, 0
2, 61680, Note_on_c, 0, 81, 51
2, 61680, Note_on_c, 0, 69, 51
2, 61920, Note_on_c, 0, 69, 0
2, 61920, Note_on_c, 0, 81, 0
2, 61920, Note_on_c, 0, 74, 0
2, 61920, Note_on_c, 0, 72, 56
2, 61920, Note_on_c, 0, 84, 56
2, 62400, Note_on_c, 0, 84, 0
2, 62400, Note_on_c, 0, 72, 0
2, 62400, Note_on_c, 0, 70, 56
2, 62400, Note_on_c, 0, 82, 56
2, 62640, Note_on_c, 0, 82, 0
2, 62640, Note_on_c, 0, 70, 0
2, 62640, Note_on_c, 0, 81, 54
2, 62640, Note_on_c, 0, 69, 54
2, 62760, Note_on_c, 0, 65, 31
2, 62760, Note_on_c, 0, 61, 31
2, 62760, Note_on_c, 0, 55, 31
2, 62879, Note_on_c, 0, 69, 0
2, 62879, Note_on_c, 0, 81, 0
2, 62880, Note_on_c, 0, 69, 48
2, 62880, Note_on_c, 0, 81, 48
2, 63360, Note_on_c, 0, 81, 0
2, 63360, Note_on_c, 0, 69, 0
2, 63360, Note_on_c, 0, 67, 44
2, 63360, Note_on_c, 0, 79, 44
2, 64800, Note_on_c, 0, 79, 0
2, 64800, Note_on_c, 0, 55, 0
2, 64800, Note_on_c, 0, 61, 0
2, 64800, Note_on_c, 0, 65, 0
2, 64800, Note_on_c, 0, 67, 0
2, 64800, Note_on_c, 0, 55, 24
2, 64800, Note_on_c, 0, 64, 24
2, 64800, Note_on_c, 0, 69, 48
2, 64800, Note_on_c, 0, 61, 24
2, 65280, Note_on_c, 0, 69, 0
2, 65280, Note_on_c, 0, 67, 42
2, 66000, Note_on_c, 0, 67, 0
2, 66000, Note_on_c, 0, 69, 42
2, 66240, Note_on_c, 0, 69, 0
2, 66240, Note_on_c, 0, 64, 0
2, 66240, Note_on_c, 0, 72, 46
2, 66240, Note_on_c, 0, 64, 24
2, 66480, Note_on_c, 0, 72, 0
2, 66480, Note_on_c, 0, 70, 37
2, 66720, Note_on_c, 0, 61, 0
2, 66720, Note_on_c, 0, 64, 0
2, 66720, Note_on_c, 0, 55, 0
2, 66960, Note_on_c, 0, 70, 0
2, 66960, Note_on_c, 0, 78, 45
2, 66960, Note_on_c, 0, 75, 45
2, 66960, Note_on_c, 0, 87, 51
2, 66960, Note_on_c, 0, 82, 45
2, 67920, Note_on_c, 0, 82, 0
2, 67920, Note_on_c, 0, 78, 0
2, 67920, Note_on_c, 0, 75, 0
2, 67920, Note_on_c, 0, 87, 0
2, 67920, Note_on_c, 0, 71, 44
2, 67920, Note_on_c, 0, 83, 50
2, 67920, Note_on_c, 0, 78, 44
2, 67920, Note_on_c, 0, 75, 44
2, 68160, Note_on_c, 0, 75, 0
2, 68160, Note_on_c, 0, 71, 0
2, 68160, Note_on_c, 0, 83, 0
2, 68160, Note_on_c, 0, 78, 0
2, 68160, Note_on_c, 0, 78, 48
2, 68160, Note_on_c, 0, 84, 54
2, 68160, Note_on_c, 0, 75, 48
2, 68160, Note_on_c, 0, 72, 48
2, 68515, Note_on_c, 0, 72, 0
2, 68515, Note_on_c, 0, 75, 0
2, 68516, Note_on_c, 0, 84, 0
2, 68516, Note_on_c, 0, 78, 0
2, 68520, Note_on_c, 0, 77, 51
2, 68520, Note_on_c, 0, 85, 51
2, 68520, Note_on_c, 0, 82, 51
2, 68520, Note_on_c, 0, 89, 58
2, 68640, Note_on_c, 0, 89, 0
2, 68640, Note_on_c, 0, 77, 0
2, 68640, Note_on_c, 0, 85, 0
2, 68640, Note_on_c, 0, 82, 0
2, 68640, Note_on_c, 0, 78, 50
2, 68640, Note_on_c, 0, 75, 50
2, 68640, Note_on_c, 0, 87, 55
2, 68640, Note_on_c, 0, 82, 50
2, 69840, Note_on_c, 0, 82, 0
2, 69840, Note_on_c, 0, 78, 0
2, 69840, Note_on_c, 0, 75, 0
2, 69840, Note_on_c, 0, 87, 0
2, 69840, Note_on_c, 0, 83, 50
2, 69840, Note_on_c, 0, 75, 44
2, 69840, Note_on_c, 0, 71, 44
2, 69840, Note_on_c, 0, 78, 44
2, 70080, Note_on_c, 0, 78, 0
2, 70080, Note_on_c, 0, 83, 0
2, 70080, Note_on_c, 0, 75, 0
2, 70080, Note_on_c, 0, 71, 0
2, 70080, Note_on_c, 0, 75, 40
2, 70080, Note_on_c, 0, 84, 54
2, 70080, Note_on_c, 0, 78, 48
2, 70080, Note_on_c, 0, 72, 40
2, 70238, Note_on_c, 0, 72, 0
2, 70238, Note_on_c, 0, 75, 0
2, 70238, Note_on_c, 0, 84, 0
2, 70238, Note_on_c, 0, 78, 0
2, 70240, Note_on_c, 0, 80, 44
2, 70240, Note_on_c, 0, 77, 44
2, 70240, Note_on_c, 0, 84, 52
2, 70240, Note_on_c, 0, 89, 58
2, 70400, Note_on_c, 0, 89, 0
2, 70400, Note_on_c, 0, 80, 0
2, 70400, Note_on_c, 0, 77, 0
2, 70400, Note_on_c, 0, 84, 0
2, 70400, Note_on_c, 0, 79, 42
2, 70400, Note_on_c, 0, 83, 50
2, 70400, Note_on_c, 0, 76, 42
2, 70400, Note_on_c, 0, 88, 55
2, 70560, Note_on_c, 0, 88, 0
2, 70560, Note_on_c, 0, 79, 0
2, 70560, Note_on_c, 0, 83, 0
2, 70560, Note_on_c, 0, 76, 0
2, 70560, Note_on_c, 0, 87, 50
2, 70560, Note_on_c, 0, 78, 42
2, 70560, Note_on_c, 0, 82, 50
2, 70560, Note_on_c, 0, 75, 42
2, 71280, Note_on_c, 0, 75, 0
2, 71280, Note_on_c, 0, 87, 0
2, 71280, Note_on_c, 0, 78, 0
2, 71280, Note_on_c, 0, 82, 0
2, 71280, Note_on_c, 0, 75, 38
2, 71280, Note_on_c, 0, 82, 45
2, 71280, Note_on_c, 0, 78, 45
2, 71520, Note_on_c, 0, 78, 0
2, 71520, Note_on_c, 0, 82, 0
2, 71520, Note_on_c, 0, 75, 0
2, 71520, Note_on_c, 0, 72, 35
2, 71520, Note_on_c, 0, 75, 42
2, 71520, Note_on_c, 0, 80, 42
2, 71520, Note_on_c, 0, 68, 35
2, 72000, Note_on_c, 0, 68, 0
2, 72000, Note_on_c, 0, 72, 0
2, 72000, Note_on_c, 0, 75, 0
2, 72000, Note_on_c, 0, 80, 0
2, 72000, Note_on_c, 0, 73, 44
2, 72000, Note_on_c, 0, 78, 44
2, 72000, Note_on_c, 0, 66, 37
2, 72240, Note_on_c, 0, 66, 0
2, 72240, Note_on_c, 0, 78, 0
2, 72240, Note_on_c, 0, 73, 0
2, 72240, Note_on_c, 0, 68, 38
2, 72240, Note_on_c, 0, 80, 45
2, 72240, Note_on_c, 0, 75, 45
2, 72480, Note_on_c, 0, 75, 0
2, 72480, Note_on_c, 0, 80, 0
2, 72480, Note_on_c, 0, 68, 0
2, 72480, Note_on_c, 0, 78, 42
2, 72480, Note_on_c, 0, 73, 42
2, 72480, Note_on_c, 0, 82, 50
2, 72480, Note_on_c, 0, 85, 50
2, 72720, Note_on_c, 0, 85, 0
2, 72720, Note_on_c, 0, 82, 0
2, 72720, Note_on_c, 0, 78, 0
2, 72720, Note_on_c, 0, 78, 44
2, 72720, Note_on_c, 0, 75, 37
2, 72720, Note_on_c, 0, 82, 44
2, 72960, Note_on_c, 0, 82, 0
2, 72960, Note_on_c, 0, 73, 0
2, 72960, Note_on_c, 0, 78, 0
2, 72960, Note_on_c, 0, 75, 0
2, 72960, Note_on_c, 0, 65, 33
2, 72960, Note_on_c, 0, 72, 39
2, 72960, Note_on_c, 0, 68, 33
2, 72960, Note_on_c, 0, 77, 39
2, 73440, Note_on_c, 0, 77, 0
2, 73440, Note_on_c, 0, 65, 0
2, 73440, Note_on_c, 0, 72, 0
2, 73440, Note_on_c, 0, 68, 0
2, 73440, Note_on_c, 0, 66, 43
2, 73440, Note_on_c, 0, 75, 43
2, 73440, Note_on_c, 0, 63, 36
2, 73680, Note_on_c, 0, 63, 0
2, 73680, Note_on_c, 0, 75, 0
2, 73680, Note_on_c, 0, 66, 0
2, 73680, Note_on_c, 0, 72, 44
2, 73680, Note_on_c, 0, 68, 37
2, 73680, Note_on_c, 0, 65, 37
2, 73680, Note_on_c, 0, 77, 44
2, 73920, Note_on_c, 0, 77, 0
2, 73920, Note_on_c, 0, 72, 0
2, 73920, Note_on_c, 0, 68, 0
2, 73920, Note_on_c, 0, 65, 0
2, 73920, Note_on_c, 0, 68, 42
2, 73920, Note_on_c, 0, 75, 50
2, 73920, Note_on_c, 0, 72, 42
2, 73920, Note_on_c, 0, 80, 50
2, 74640, Note_on_c, 0, 80, 0
2, 74640, Note_on_c, 0, 68, 0
2, 74640, Note_on_c, 0, 75, 0
2, 74640, Note_on_c, 0, 72, 0
2, 74640, Note_on_c, 0, 66, 38
2, 74640, Note_on_c, 0, 78, 45
2, 74640, Note_on_c, 0, 75, 45
2, 74880, Note_on_c, 0, 75, 0
2, 74880, Note_on_c, 0, 78, 0
2, 74880, Note_on_c, 0, 66, 0
2, 74880, Note_on_c, 0, 66, 42
2, 74880, Note_on_c, 0, 75, 42
2, 74880, Note_on_c, 0, 63, 35
2, 75360, Note_on_c, 0, 63, 0
2, 75360, Note_on_c, 0, 75, 0
2, 75360, Note_on_c, 0, 66, 0
2, 75360, Note_on_c, 0, 63, 34
2, 75360, Note_on_c, 0, 70, 40
2, 75360, Note_on_c, 0, 66, 40
2, 75840, Note_on_c, 0, 66, 0
2, 75840, Note_on_c, 0, 70, 0
2, 75840, Note_on_c, 0, 63, 0
2, 75840, Note_on_c, 0, 70, 38
2, 75840, Note_on_c, 0, 64, 32
2, 75840, Note_on_c, 0, 73, 38
2, 76080, Note_on_c, 0, 102, 36
2, 76080, Note_on_c, 0, 94, 30
2, 76080, Note_on_c, 0, 88, 30
2, 76080, Note_on_c, 0, 97, 30
2, 76320, Note_on_c, 0, 97, 0
2, 76320, Note_on_c, 0, 94, 0
2, 76320, Note_on_c, 0, 102, 0
2, 76320, Note_on_c, 0, 88, 0
2, 76320, Note_on_c, 0, 92, 30
2, 76320, Note_on_c, 0, 88, 30
2, 76320, Note_on_c, 0, 82, 30
2, 76320, Note_on_c, 0, 97, 35
2, 76560, Note_on_c, 0, 97, 0
2, 76560, Note_on_c, 0, 88, 0
2, 76560, Note_on_c, 0, 92, 0
2, 76560, Note_on_c, 0, 82, 0
2, 76560, Note_on_c, 0, 90, 26
2, 76560, Note_on_c, 0, 85, 26
2, 76560, Note_on_c, 0, 80, 26
2, 76560, Note_on_c, 0, 94, 30
2, 76800, Note_on_c, 0, 94, 0
2, 76800, Note_on_c, 0, 85, 0
2, 76800, Note_on_c, 0, 70, 0
2, 76800, Note_on_c, 0, 64, 0
2, 76800, Note_on_c, 0, 73, 0
2, 76800, Note_on_c, 0, 80, 0
2, 76800, Note_on_c, 0, 90, 0
2, 76800, Note_on_c, 0, 82, 28
2, 76800, Note_on_c, 0, 88, 28
2, 76800, Note_on_c, 0, 78, 28
2, 76800, Note_on_c, 0, 92, 34
2, 77040, Note_on_c, 0, 92, 0
2, 77040, Note_on_c, 0, 82, 0
2, 77040, Note_on_c, 0, 88, 0
2, 77040, Note_on_c, 0, 78, 0
2, 77040, Note_on_c, 0, 85, 26
2, 77040, Note_on_c, 0, 90, 28
2, 77040, Note_on_c, 0, 76, 26
2, 77040, Note_on_c, 0, 82, 26
2, 77280, Note_on_c, 0, 82, 0
2, 77280, Note_on_c, 0, 85, 0
2, 77280, Note_on_c, 0, 90, 0
2, 77280, Note_on_c, 0, 76, 0
2, 77280, Note_on_c, 0, 82, 26
2, 77280, Note_on_c, 0, 73, 26
2, 77280, Note_on_c, 0, 87, 28
2, 77280, Note_on_c, 0, 78, 26
2, 77520, Note_on_c, 0, 78, 0
2, 77520, Note_on_c, 0, 82, 0
2, 77520, Note_on_c, 0, 73, 0
2, 77520, Note_on_c, 0, 87, 0
2, 77520, Note_on_c, 0, 85, 28
2, 77520, Note_on_c, 0, 70, 26
2, 77520, Note_on_c, 0, 80, 26
2, 77520, Note_on_c, 0, 76, 26
2, 77760, Note_on_c, 0, 76, 0
2, 77760, Note_on_c, 0, 85, 0
2, 77760, Note_on_c, 0, 70, 0
2, 77760, Note_on_c, 0, 80, 0
2, 77760, Note_on_c, 0, 73, 26
2, 77760, Note_on_c, 0, 78, 26
2, 77760, Note_on_c, 0, 82, 28
2, 77760, Note_on_c, 0, 68, 26
2, 78000, Note_on_c, 0, 68, 0
2, 78000, Note_on_c, 0, 73, 0
2, 78000, Note_on_c, 0, 78, 0
2, 78000, Note_on_c, 0, 82, 0
2, 78000, Note_on_c, 0, 76, 20
2, 78000, Note_on_c, 0, 70, 20
2, 78000, Note_on_c, 0, 80, 23
2, 78000, Note_on_c, 0, 66, 20
2, 78240, Note_on_c, 0, 66, 0
2, 78240, Note_on_c, 0, 76, 0
2, 78240, Note_on_c, 0, 70, 0
2, 78240, Note_on_c, 0, 80, 0
2, 78240, Note_on_c, 0, 78, 23
2, 78240, Note_on_c, 0, 64, 20
2, 78240, Note_on_c, 0, 70, 20
2, 78240, Note_on_c, 0, 73, 20
2, 78480, Note_on_c, 0, 73, 0
2, 78480, Note_on_c, 0, 78, 0
2, 78480, Note_on_c, 0, 64, 0
2, 78480, Note_on_c, 0, 70, 0
2, 78480, Note_on_c, 0, 61, 20
2, 78480, Note_on_c, 0, 66, 20
2, 78480, Note_on_c, 0, 75, 23
2, 78720, Note_on_c, 0, 75, 0
2, 78720, Note_on_c, 0, 66, 0
2, 78720, Note_on_c, 0, 61, 0
2, 78720, Note_on_c, 0, 61, 21
2, 78720, Note_on_c, 0, 73, 23
2, 78960, Note_on_c, 0, 64, 43
2, 78960, Note_on_c, 0, 52, 43
2, 79200, Note_on_c, 0, 73, 0
2, 79200, Note_on_c, 0, 61, 0
2, 79920, Note_on_c, 0, 61, 21
2, 79920, Note_on_c, 0, 73, 21
2, 80040, Note_on_c, 0, 64, 0
2, 80040, Note_on_c, 0, 52, 0
2, 80040, Note_on_c, 0, 54, 36
2, 80040, Note_on_c, 0, 66, 36
2, 80160, Note_on_c, 0, 66, 0
2, 80160, Note_on_c, 0, 54, 0
2, 80160, Note_on_c, 0, 52, 39
2, 80160, Note_on_c, 0, 64, 39
2, 80400, Note_on_c, 0, 61, 0
2, 80400, Note_on_c, 0, 73, 0
2, 80640, Note_on_c, 0, 52, 0
2, 80640, Note_on_c, 0, 64, 0
2, 80640, Note_on_c, 0, 56, 43
2, 80640, Note_on_c, 0, 68, 43
2, 80880, Note_on_c, 0, 68, 0
2, 80880, Note_on_c, 0, 56, 0
2, 80880, Note_on_c, 0, 55, 37
2, 80880, Note_on_c, 0, 67, 37
2, 81120, Note_on_c, 0, 67, 0
2, 81120, Note_on_c, 0, 55, 0
2, 81120, Note_on_c, 0, 73, 21
2, 81120, Note_on_c, 0, 61, 33
2, 81120, Note_on_c, 0, 49, 33
2, 81476, Note_on_c, 0, 49, 0
2, 81476, Note_on_c, 0, 61, 0
2, 81480, Note_on_c, 0, 66, 37
2, 81480, Note_on_c, 0, 54, 37
2, 81595, Note_on_c, 0, 73, 0
2, 81600, Note_on_c, 0, 54, 0
2, 81600, Note_on_c, 0, 66, 0
2, 81600, Note_on_c, 0, 66, 37
2, 81600, Note_on_c, 0, 54, 37
2, 81840, Note_on_c, 0, 73, 19
2, 81840, Note_on_c, 0, 61, 19
2, 82080, Note_on_c, 0, 54, 0
2, 82080, Note_on_c, 0, 66, 0
2, 82080, Note_on_c, 0, 64, 31
2, 82080, Note_on_c, 0, 52, 31
2, 82320, Note_on_c, 0, 73, 0
2, 82320, Note_on_c, 0, 61, 0
2, 82800, Note_on_c, 0, 82, 29
2, 82800, Note_on_c, 0, 85, 33
2, 82800, Note_on_c, 0, 90, 36
2, 82800, Note_on_c, 0, 76, 29
2, 83040, Note_on_c, 0, 76, 0
2, 83040, Note_on_c, 0, 64, 0
2, 83040, Note_on_c, 0, 82, 0
2, 83040, Note_on_c, 0, 52, 0
2, 83040, Note_on_c, 0, 90, 0
2, 83040, Note_on_c, 0, 85, 0
2, 83040, Note_on_c, 0, 82, 30
2, 83040, Note_on_c, 0, 87, 33
2, 83040, Note_on_c, 0, 73, 27
2, 83040, Note_on_c, 0, 78, 27
2, 83280, Note_on_c, 0, 78, 0
2, 83280, Note_on_c, 0, 82, 0
2, 83280, Note_on_c, 0, 87, 0
2, 83280, Note_on_c, 0, 73, 0
2, 83280, Note_on_c, 0, 70, 27
2, 83280, Note_on_c, 0, 76, 27
2, 83280, Note_on_c, 0, 80, 30
2, 83280, Note_on_c, 0, 85, 33
2, 83520, Note_on_c, 0, 85, 0
2, 83520, Note_on_c, 0, 70, 0
2, 83520, Note_on_c, 0, 76, 0
2, 83520, Note_on_c, 0, 80, 0
2, 83520, Note_on_c, 0, 68, 25
2, 83520, Note_on_c, 0, 82, 30
2, 83520, Note_on_c, 0, 73, 25
2, 83520, Note_on_c, 0, 78, 28
2, 83760, Note_on_c, 0, 78, 0
2, 83760, Note_on_c, 0, 68, 0
2, 83760, Note_on_c, 0, 82, 0
2, 83760, Note_on_c, 0, 73, 0
2, 83760, Note_on_c, 0, 66, 19
2, 83760, Note_on_c, 0, 76, 22
2, 83760, Note_on_c, 0, 80, 26
2, 83760, Note_on_c, 0, 70, 19
2, 84000, Note_on_c, 0, 70, 0
2, 84000, Note_on_c, 0, 66, 0
2, 84000, Note_on_c, 0, 76, 0
2, 84000, Note_on_c, 0, 80, 0
2, 84000, Note_on_c, 0, 64, 18
2, 84000, Note_on_c, 0, 70, 18
2, 84000, Note_on_c, 0, 78, 24
2, 84000, Note_on_c, 0, 73, 21
2, 84240, Note_on_c, 0, 73, 0
2, 84240, Note_on_c, 0, 64, 0
2, 84240, Note_on_c, 0, 70, 0
2, 84240, Note_on_c, 0, 78, 0
2, 84240, Note_on_c, 0, 61, 18
2, 84240, Note_on_c, 0, 66, 20
2, 84240, Note_on_c, 0, 75, 23
2, 84360, Note_on_c, 0, 64, 40
2, 84480, Note_on_c, 0, 75, 0
2, 84480, Note_on_c, 0, 61, 0
2, 84480, Note_on_c, 0, 66, 0
2, 84480, Note_on_c, 0, 61, 21
2, 84480, Note_on_c, 0, 73, 23
2, 84480, Note_on_c, 0, 70, 21
2, 84718, Note_on_c, 0, 70, 0
2, 84718, Note_on_c, 0, 73, 0
2, 84718, Note_on_c, 0, 61, 0
2, 84954, Note_on_c, 0, 64, 0
2, 84960, Note_on_c, 0, 58, 30
2, 86400, Note_on_c, 0, 58, 0
2, 86400, Note_on_c, 0, 64, 32
2, 87360, Note_on_c, 0, 64, 0
2, 87360, Note_on_c, 0, 63, 33
2, 87840, Note_on_c, 0, 63, 0
2, 87840, Note_on_c, 0, 58, 21
2, 89273, Note_on_c, 0, 58, 0
2, 89280, Note_on_c, 0, 62, 30
2, 89760, Note_on_c, 0, 62, 0
2, 89760, Note_on_c, 0, 58, 21
2, 91197, Note_on_c, 0, 58, 0
2, 91200, Note_on_c, 0, 61, 27
2, 91680, Note_on_c, 0, 61, 0
2, 91680, Note_on_c, 0, 58, 21
2, 93116, Note_on_c, 0, 58, 0
2, 93120, Note_on_c, 0, 61, 25
2, 93600, Note_on_c, 0, 61, 0
2, 93600, Note_on_c, 0, 58, 19
2, 95040, Note_on_c, 0, 58, 0
2, 95040, Note_on_c, 0, 61, 21
2, 95520, Note_on_c, 0, 61, 0
2, 95520, Note_on_c, 0, 58, 16
2, 96960, Note_on_c, 0, 58, 0
2, 96960, End_track
3, 0, Start_track
3, 0, MIDI_port, 0
3, 0, Title_t, "Piano left"
3, 0, Program_c, 0, 0
3, 0, Control_c, 0, 7, 100
3, 480, Control_c, 0, 91, 127
3, 3840, Note_on_c, 0, 39, 22
3, 3840, Note_on_c, 0, 53, 30
3, 3840, Note_on_c, 0, 46, 22
3, 5036, Note_on_c, 0, 46, 0
3, 5036, Note_on_c, 0, 53, 0
3, 5036, Note_on_c, 0, 39, 0
3, 5039, Note_on_c, 0, 42, 19
3, 5040, Note_on_c, 0, 35, 19
3, 5040, Note_on_c, 0, 49, 24
3, 5279, Note_on_c, 0, 42, 0
3, 5280, Note_on_c, 0, 49, 0
3, 5280, Note_on_c, 0, 35, 0
3, 5280, Note_on_c, 0, 44, 20
3, 5280, Note_on_c, 0, 51, 27
3, 5280, Note_on_c, 0, 37, 20
3, 5635, Note_on_c, 0, 37, 0
3, 5635, Note_on_c, 0, 51, 0
3, 5635, Note_on_c, 0, 44, 0
3, 5640, Note_on_c, 0, 58, 26
3, 5640, Note_on_c, 0, 44, 20
3, 5640, Note_on_c, 0, 51, 20
3, 5758, Note_on_c, 0, 58, 0
3, 5760, Note_on_c, 0, 51, 0
3, 5760, Note_on_c, 0, 44, 0
3, 5760, Note_on_c, 0, 39, 20
3, 5760, Note_on_c, 0, 46, 20
3, 5760, Note_on_c, 0, 53, 27
3, 6955, Note_on_c, 0, 53, 0
3, 6955, Note_on_c, 0, 46, 0
3, 6956, Note_on_c, 0, 39, 0
3, 6960, Note_on_c, 0, 49, 24
3, 6960, Note_on_c, 0, 35, 19
3, 6960, Note_on_c, 0, 42, 19
3, 7200, Note_on_c, 0, 42, 0
3, 7200, Note_on_c, 0, 35, 0
3, 7200, Note_on_c, 0, 49, 0
3, 7200, Note_on_c, 0, 37, 20
3, 7200, Note_on_c, 0, 44, 20
3, 7200, Note_on_c, 0, 51, 27
3, 7555, Note_on_c, 0, 51, 0
3, 7556, Note_on_c, 0, 37, 0
3, 7560, Note_on_c, 0, 44, 0
3, 7560, Note_on_c, 0, 44, 20
3, 7560, Note_on_c, 0, 51, 20
3, 7560, Note_on_c, 0, 58, 26
3, 7678, Note_on_c, 0, 58, 0
3, 7680, Note_on_c, 0, 51, 0
3, 7680, Note_on_c, 0, 44, 0
3, 7680, Note_on_c, 0, 39, 20
3, 7680, Note_on_c, 0, 46, 20
3, 7680, Note_on_c, 0, 53, 27
3, 9600, Note_on_c, 0, 53, 0
3, 9600, Note_on_c, 0, 46, 0
3, 9600, Note_on_c, 0, 39, 0
3, 9600, Note_on_c, 0, 61, 37
3, 9956, Note_on_c, 0, 61, 0
3, 9960, Note_on_c, 0, 63, 33
3, 10080, Note_on_c, 0, 63, 0
3, 10080, Note_on_c, 0, 61, 32
3, 10555, Note_on_c, 0, 61, 0
3, 10560, Note_on_c, 0, 64, 40
3, 10800, Note_on_c, 0, 63, 37
3, 10802, Note_on_c, 0, 64, 0
3, 11040, Note_on_c, 0, 63, 0
3, 11040, Note_on_c, 0, 60, 34
3, 11395, Note_on_c, 0, 60, 0
3, 11400, Note_on_c, 0, 63, 34
3, 11518, Note_on_c, 0, 63, 0
3, 11520, Note_on_c, 0, 63, 33
3, 12000, Note_on_c, 0, 63, 0
3, 12000, Note_on_c, 0, 61, 25
3, 13440, Note_on_c, 0, 61, 0
3, 13440, Note_on_c, 0, 46, 26
3, 13440, Note_on_c, 0, 53, 33
3, 13440, Note_on_c, 0, 39, 26
3, 14635, Note_on_c, 0, 53, 0
3, 14636, Note_on_c, 0, 39, 0
3, 14636, Note_on_c, 0, 46, 0
3, 14640, Note_on_c, 0, 49, 28
3, 14640, Note_on_c, 0, 35, 21
3, 14640, Note_on_c, 0, 42, 21
3, 14880, Note_on_c, 0, 42, 0
3, 14880, Note_on_c, 0, 35, 0
3, 14880, Note_on_c, 0, 49, 0
3, 14880, Note_on_c, 0, 44, 26
3, 14880, Note_on_c, 0, 51, 33
3, 14880, Note_on_c, 0, 37, 26
3, 15234, Note_on_c, 0, 44, 0
3, 15236, Note_on_c, 0, 37, 0
3, 15236, Note_on_c, 0, 51, 0
3, 15240, Note_on_c, 0, 44, 24
3, 15240, Note_on_c, 0, 51, 24
3, 15240, Note_on_c, 0, 58, 31
3, 15358, Note_on_c, 0, 58, 0
3, 15360, Note_on_c, 0, 51, 0
3, 15360, Note_on_c, 0, 44, 0
3, 15360, Note_on_c, 0, 39, 26
3, 15360, Note_on_c, 0, 46, 26
3, 15360, Note_on_c, 0, 53, 33
3, 17280, Note_on_c, 0, 53, 0
3, 17280, Note_on_c, 0, 46, 0
3, 17280, Note_on_c, 0, 39, 0
3, 17280, Note_on_c, 0, 61, 33
3, 17280, Note_on_c, 0, 64, 38
3, 17635, Note_on_c, 0, 61, 0
3, 17636, Note_on_c, 0, 64, 0
3, 17640, Note_on_c, 0, 63, 31
3, 17640, Note_on_c, 0, 66, 34
3, 17760, Note_on_c, 0, 66, 0
3, 17760, Note_on_c, 0, 63, 0
3, 17760, Note_on_c, 0, 61, 30
3, 17760, Note_on_c, 0, 64, 33
3, 18234, Note_on_c, 0, 61, 0
3, 18235, Note_on_c, 0, 64, 0
3, 18240, Note_on_c, 0, 64, 37
3, 18240, Note_on_c, 0, 68, 42
3, 18480, Note_on_c, 0, 68, 0
3, 18480, Note_on_c, 0, 64, 0
3, 18480, Note_on_c, 0, 67, 38
3, 18480, Note_on_c, 0, 63, 33
3, 18720, Note_on_c, 0, 63, 0
3, 18720, Note_on_c, 0, 67, 0
3, 18720, Note_on_c, 0, 58, 32
3, 18720, Note_on_c, 0, 61, 37
3, 19076, Note_on_c, 0, 61, 0
3, 19076, Note_on_c, 0, 58, 0
3, 19080, Note_on_c, 0, 63, 33
3, 19080, Note_on_c, 0, 66, 38
3, 19196, Note_on_c, 0, 66, 0
3, 19196, Note_on_c, 0, 63, 0
3, 19200, Note_on_c, 0, 63, 31
3, 19200, Note_on_c, 0, 66, 34
3, 19680, Note_on_c, 0, 66, 0
3, 19680, Note_on_c, 0, 63, 0
3, 19680, Note_on_c, 0, 64, 25
3, 19680, Note_on_c, 0, 61, 21
3, 21120, Note_on_c, 0, 61, 0
3, 21120, Note_on_c, 0, 64, 0
3, 21120, Note_on_c, 0, 53, 38
3, 21120, Note_on_c, 0, 63, 38
3, 21120, Note_on_c, 0, 59, 38
3, 21600, Note_on_c, 0, 34, 36
3, 21600, Note_on_c, 0, 46, 36
3, 22320, Note_on_c, 0, 59, 0
3, 22320, Note_on_c, 0, 53, 0
3, 22320, Note_on_c, 0, 63, 0
3, 22320, Note_on_c, 0, 56, 37
3, 22320, Note_on_c, 0, 49, 37
3, 22320, Note_on_c, 0, 59, 37
3, 22560, Note_on_c, 0, 59, 0
3, 22560, Note_on_c, 0, 56, 0
3, 22560, Note_on_c, 0, 49, 0
3, 22560, Note_on_c, 0, 50, 39
3, 22560, Note_on_c, 0, 56, 39
3, 22560, Note_on_c, 0, 58, 39
3, 22560, Note_on_c, 0, 60, 39
3, 22914, Note_on_c, 0, 60, 0
3, 22914, Note_on_c, 0, 50, 0
3, 22914, Note_on_c, 0, 58, 0
3, 22916, Note_on_c, 0, 56, 0
3, 22920, Note_on_c, 0, 56, 43
3, 22920, Note_on_c, 0, 58, 43
3, 22920, Note_on_c, 0, 62, 43
3, 22920, Note_on_c, 0, 66, 43
3, 23040, Note_on_c, 0, 66, 0
3, 23040, Note_on_c, 0, 58, 0
3, 23040, Note_on_c, 0, 56, 0
3, 23040, Note_on_c, 0, 62, 0
3, 23040, Note_on_c, 0, 53, 38
3, 23040, Note_on_c, 0, 59, 38
3, 23040, Note_on_c, 0, 63, 38
3, 23520, Note_on_c, 0, 46, 0
3, 23520, Note_on_c, 0, 34, 0
3, 23520, Note_on_c, 0, 34, 36
3, 23520, Note_on_c, 0, 46, 36
3, 24240, Note_on_c, 0, 59, 0
3, 24240, Note_on_c, 0, 63, 0
3, 24240, Note_on_c, 0, 53, 0
3, 24240, Note_on_c, 0, 49, 37
3, 24240, Note_on_c, 0, 56, 37
3, 24240, Note_on_c, 0, 59, 37
3, 24480, Note_on_c, 0, 59, 0
3, 24480, Note_on_c, 0, 49, 0
3, 24480, Note_on_c, 0, 56, 0
3, 24480, Note_on_c, 0, 50, 39
3, 24480, Note_on_c, 0, 58, 39
3, 24480, Note_on_c, 0, 56, 39
3, 24480, Note_on_c, 0, 60, 39
3, 24636, Note_on_c, 0, 56, 0
3, 24637, Note_on_c, 0, 58, 0
3, 24637, Note_on_c, 0, 50, 0
3, 24637, Note_on_c, 0, 60, 0
3, 24640, Note_on_c, 0, 62, 43
3, 24640, Note_on_c, 0, 56, 43
3, 24640, Note_on_c, 0, 58, 43
3, 24640, Note_on_c, 0, 66, 43
3, 24800, Note_on_c, 0, 66, 0
3, 24800, Note_on_c, 0, 62, 0
3, 24800, Note_on_c, 0, 61, 40
3, 24800, Note_on_c, 0, 65, 40
3, 24960, Note_on_c, 0, 65, 0
3, 24960, Note_on_c, 0, 56, 0
3, 24960, Note_on_c, 0, 58, 0
3, 24960, Note_on_c, 0, 61, 0
3, 24960, Note_on_c, 0, 53, 38
3, 24960, Note_on_c, 0, 59, 38
3, 24960, Note_on_c, 0, 63, 38
3, 25440, Note_on_c, 0, 34, 0
3, 25440, Note_on_c, 0, 46, 0
3, 25440, Note_on_c, 0, 34, 36
3, 25440, Note_on_c, 0, 46, 36
3, 26160, Note_on_c, 0, 59, 0
3, 26160, Note_on_c, 0, 63, 0
3, 26160, Note_on_c, 0, 53, 0
3, 26160, Note_on_c, 0, 53, 31
3, 26160, Note_on_c, 0, 62, 36
3, 26160, Note_on_c, 0, 58, 31
3, 26640, Note_on_c, 0, 58, 0
3, 26640, Note_on_c, 0, 53, 0
3, 26640, Note_on_c, 0, 62, 0
3, 26640, Note_on_c, 0, 50, 24
3, 26640, Note_on_c, 0, 56, 24
3, 26640, Note_on_c, 0, 60, 28
3, 26640, Note_on_c, 0, 58, 24
3, 26880, Note_on_c, 0, 58, 0
3, 26880, Note_on_c, 0, 34, 0
3, 26880, Note_on_c, 0, 50, 0
3, 26880, Note_on_c, 0, 46, 0
3, 26880, Note_on_c, 0, 60, 0
3, 26880, Note_on_c, 0, 56, 0
3, 26880, Note_on_c, 0, 39, 24
3, 26880, Note_on_c, 0, 46, 24
3, 27840, Note_on_c, 0, 46, 0
3, 27840, Note_on_c, 0, 39, 0
3, 27840, Note_on_c, 0, 34, 20
3, 27840, Note_on_c, 0, 41, 20
3, 28320, Note_on_c, 0, 41, 0
3, 28320, Note_on_c, 0, 34, 0
3, 28320, Note_on_c, 0, 39, 22
3, 28320, Note_on_c, 0, 46, 22
3, 29280, Note_on_c, 0, 46, 0
3, 29280, Note_on_c, 0, 39, 0
3, 29280, Note_on_c, 0, 34, 19
3, 29280, Note_on_c, 0, 41, 19
3, 29640, Note_on_c, 0, 39, 36
3, 29640, Note_on_c, 0, 46, 36
3, 29760, Note_on_c, 0, 41, 0
3, 29760, Note_on_c, 0, 34, 0
3, 29760, Note_on_c, 0, 58, 38
3, 29760, Note_on_c, 0, 68, 38
3, 29760, Note_on_c, 0, 64, 38
3, 30240, Note_on_c, 0, 39, 0
3, 30240, Note_on_c, 0, 46, 0
3, 30240, Note_on_c, 0, 39, 36
3, 30240, Note_on_c, 0, 27, 36
3, 30960, Note_on_c, 0, 68, 0
3, 30960, Note_on_c, 0, 64, 0
3, 30960, Note_on_c, 0, 58, 0
3, 30960, Note_on_c, 0, 64, 37
3, 30960, Note_on_c, 0, 54, 31
3, 30960, Note_on_c, 0, 60, 31
3, 31200, Note_on_c, 0, 60, 0
3, 31200, Note_on_c, 0, 64, 0
3, 31200, Note_on_c, 0, 54, 0
3, 31200, Note_on_c, 0, 61, 33
3, 31200, Note_on_c, 0, 65, 39
3, 31200, Note_on_c, 0, 55, 33
3, 31554, Note_on_c, 0, 61, 0
3, 31555, Note_on_c, 0, 65, 0
3, 31555, Note_on_c, 0, 55, 0
3, 31560, Note_on_c, 0, 71, 43
3, 31560, Note_on_c, 0, 61, 36
3, 31560, Note_on_c, 0, 67, 36
3, 31680, Note_on_c, 0, 67, 0
3, 31680, Note_on_c, 0, 71, 0
3, 31680, Note_on_c, 0, 61, 0
3, 31680, Note_on_c, 0, 61, 32
3, 31680, Note_on_c, 0, 64, 32
3, 31680, Note_on_c, 0, 68, 38
3, 32160, Note_on_c, 0, 39, 0
3, 32160, Note_on_c, 0, 27, 0
3, 32160, Note_on_c, 0, 39, 36
3, 32160, Note_on_c, 0, 27, 36
3, 32880, Note_on_c, 0, 64, 0
3, 32880, Note_on_c, 0, 68, 0
3, 32880, Note_on_c, 0, 61, 0
3, 32880, Note_on_c, 0, 64, 37
3, 32880, Note_on_c, 0, 54, 31
3, 32880, Note_on_c, 0, 60, 31
3, 33120, Note_on_c, 0, 60, 0
3, 33120, Note_on_c, 0, 64, 0
3, 33120, Note_on_c, 0, 54, 0
3, 33120, Note_on_c, 0, 61, 33
3, 33120, Note_on_c, 0, 55, 33
3, 33120, Note_on_c, 0, 65, 39
3, 33276, Note_on_c, 0, 55, 0
3, 33277, Note_on_c, 0, 61, 0
3, 33277, Note_on_c, 0, 65, 0
3, 33280, Note_on_c, 0, 67, 36
3, 33280, Note_on_c, 0, 71, 43
3, 33280, Note_on_c, 0, 61, 36
3, 33440, Note_on_c, 0, 61, 0
3, 33440, Note_on_c, 0, 67, 0
3, 33440, Note_on_c, 0, 71, 0
3, 33440, Note_on_c, 0, 66, 34
3, 33440, Note_on_c, 0, 60, 34
3, 33440, Note_on_c, 0, 70, 40
3, 33600, Note_on_c, 0, 70, 0
3, 33600, Note_on_c, 0, 66, 0
3, 33600, Note_on_c, 0, 60, 0
3, 33600, Note_on_c, 0, 58, 32
3, 33600, Note_on_c, 0, 64, 32
3, 33600, Note_on_c, 0, 68, 38
3, 34080, Note_on_c, 0, 39, 0
3, 34080, Note_on_c, 0, 27, 0
3, 34080, Note_on_c, 0, 39, 36
3, 34080, Note_on_c, 0, 27, 36
3, 34800, Note_on_c, 0, 64, 0
3, 34800, Note_on_c, 0, 68, 0
3, 34800, Note_on_c, 0, 58, 0
3, 34800, Note_on_c, 0, 58, 31
3, 34800, Note_on_c, 0, 67, 36
3, 34800, Note_on_c, 0, 63, 31
3, 35280, Note_on_c, 0, 63, 0
3, 35280, Note_on_c, 0, 58, 0
3, 35280, Note_on_c, 0, 67, 0
3, 35280, Note_on_c, 0, 55, 24
3, 35280, Note_on_c, 0, 61, 24
3, 35280, Note_on_c, 0, 65, 28
3, 35520, Note_on_c, 0, 65, 0
3, 35520, Note_on_c, 0, 55, 0
3, 35520, Note_on_c, 0, 27, 0
3, 35520, Note_on_c, 0, 39, 0
3, 35520, Note_on_c, 0, 61, 0
3, 35520, Note_on_c, 0, 44, 28
3, 35520, Note_on_c, 0, 32, 28
3, 35760, Note_on_c, 0, 44, 20
3, 35760, Note_on_c, 0, 59, 20
3, 35760, Note_on_c, 0, 50, 20
3, 36000, Note_on_c, 0, 50, 0
3, 36000, Note_on_c, 0, 44, 0
3, 36000, Note_on_c, 0, 59, 0
3, 36000, Note_on_c, 0, 52, 20
3, 36000, Note_on_c, 0, 62, 20
3, 36000, Note_on_c, 0, 47, 20
3, 36240, Note_on_c, 0, 47, 0
3, 36240, Note_on_c, 0, 52, 0
3, 36240, Note_on_c, 0, 62, 0
3, 36240, Note_on_c, 0, 50, 19
3, 36240, Note_on_c, 0, 64, 19
3, 36240, Note_on_c, 0, 56, 19
3, 36480, Note_on_c, 0, 56, 0
3, 36480, Note_on_c, 0, 50, 0
3, 36480, Note_on_c, 0, 64, 0
3, 36480, Note_on_c, 0, 56, 20
3, 36480, Note_on_c, 0, 62, 20
3, 36480, Note_on_c, 0, 52, 20
3, 36720, Note_on_c, 0, 52, 0
3, 36720, Note_on_c, 0, 56, 0
3, 36720, Note_on_c, 0, 62, 0
3, 36720, Note_on_c, 0, 66, 19
3, 36720, Note_on_c, 0, 62, 19
3, 36720, Note_on_c, 0, 56, 19
3, 36960, Note_on_c, 0, 56, 0
3, 36960, Note_on_c, 0, 66, 0
3, 36960, Note_on_c, 0, 62, 0
3, 36960, Note_on_c, 0, 59, 18
3, 36960, Note_on_c, 0, 64, 18
3, 37200, Note_on_c, 0, 64, 0
3, 37200, Note_on_c, 0, 59, 0
3, 37200, Note_on_c, 0, 66, 18
3, 37200, Note_on_c, 0, 62, 18
3, 37440, Note_on_c, 0, 62, 0
3, 37440, Note_on_c, 0, 66, 0
3, 37440, Note_on_c, 0, 64, 20
3, 37440, Note_on_c, 0, 59, 20
3, 37680, Note_on_c, 0, 59, 0
3, 37680, Note_on_c, 0, 64, 0
3, 37680, Note_on_c, 0, 56, 18
3, 37680, Note_on_c, 0, 62, 18
3, 37920, Note_on_c, 0, 62, 0
3, 37920, Note_on_c, 0, 56, 0
3, 37920, Note_on_c, 0, 56, 18
3, 37920, Note_on_c, 0, 62, 18
3, 37920, Note_on_c, 0, 53, 18
3, 38160, Note_on_c, 0, 53, 0
3, 38160, Note_on_c, 0, 56, 0
3, 38160, Note_on_c, 0, 62, 0
3, 38160, Note_on_c, 0, 47, 13
3, 38160, Note_on_c, 0, 54, 15
3, 38160, Note_on_c, 0, 59, 18
3, 38371, Note_on_c, 0, 44, 0
3, 38400, Note_on_c, 0, 54, 0
3, 38400, Note_on_c, 0, 59, 0
3, 38400, Note_on_c, 0, 47, 0
3, 38400, Note_on_c, 0, 44, 20
3, 38400, Note_on_c, 0, 56, 20
3, 38400, Note_on_c, 0, 52, 20
3, 38640, Note_on_c, 0, 52, 0
3, 38640, Note_on_c, 0, 56, 0
3, 38640, Note_on_c, 0, 49, 16
3, 38640, Note_on_c, 0, 53, 16
3, 38880, Note_on_c, 0, 53, 0
3, 38880, Note_on_c, 0, 49, 0
3, 38880, Note_on_c, 0, 54, 15
3, 38880, Note_on_c, 0, 50, 15
3, 39120, Note_on_c, 0, 50, 0
3, 39120, Note_on_c, 0, 54, 0
3, 39120, Note_on_c, 0, 47, 15
3, 39120, Note_on_c, 0, 51, 15
3, 39322, Note_on_c, 0, 32, 0
3, 39360, Note_on_c, 0, 52, 20
3, 39360, Note_on_c, 0, 56, 20
3, 39368, Note_on_c, 0, 51, 0
3, 39368, Note_on_c, 0, 47, 0
3, 39600, Note_on_c, 0, 56, 0
3, 39600, Note_on_c, 0, 52, 0
3, 39600, Note_on_c, 0, 53, 16
3, 39600, Note_on_c, 0, 49, 16
3, 39840, Note_on_c, 0, 49, 0
3, 39840, Note_on_c, 0, 53, 0
3, 39840, Note_on_c, 0, 50, 15
3, 39840, Note_on_c, 0, 54, 15
3, 40080, Note_on_c, 0, 54, 0
3, 40080, Note_on_c, 0, 50, 0
3, 40080, Note_on_c, 0, 47, 15
3, 40080, Note_on_c, 0, 51, 15
3, 40301, Note_on_c, 0, 44, 0
3, 40320, Note_on_c, 0, 44, 20
3, 40320, Note_on_c, 0, 56, 20
3, 40320, Note_on_c, 0, 52, 20
3, 40328, Note_on_c, 0, 51, 0
3, 40328, Note_on_c, 0, 47, 0
3, 40560, Note_on_c, 0, 56, 0
3, 40560, Note_on_c, 0, 52, 0
3, 40560, Note_on_c, 0, 49, 16
3, 40560, Note_on_c, 0, 53, 16
3, 40799, Note_on_c, 0, 50, 14
3, 40800, Note_on_c, 0, 53, 0
3, 40800, Note_on_c, 0, 49, 0
3, 40800, Note_on_c, 0, 54, 14
3, 41039, Note_on_c, 0, 50, 0
3, 41040, Note_on_c, 0, 54, 0
3, 41040, Note_on_c, 0, 47, 13
3, 41040, Note_on_c, 0, 51, 13
3, 41270, Note_on_c, 0, 44, 0
3, 41280, Note_on_c, 0, 31, 28
3, 41280, Note_on_c, 0, 43, 28
3, 41288, Note_on_c, 0, 51, 0
3, 41288, Note_on_c, 0, 47, 0
3, 41520, Note_on_c, 0, 53, 20
3, 41520, Note_on_c, 0, 47, 20
3, 41520, Note_on_c, 0, 62, 20
3, 41760, Note_on_c, 0, 62, 0
3, 41760, Note_on_c, 0, 53, 0
3, 41760, Note_on_c, 0, 47, 0
3, 41760, Note_on_c, 0, 56, 20
3, 41760, Note_on_c, 0, 64, 20
3, 41760, Note_on_c, 0, 50, 20
3, 42000, Note_on_c, 0, 64, 0
3, 42000, Note_on_c, 0, 56, 0
3, 42000, Note_on_c, 0, 59, 19
3, 42000, Note_on_c, 0, 65, 19
3, 42240, Note_on_c, 0, 65, 0
3, 42240, Note_on_c, 0, 59, 0
3, 42240, Note_on_c, 0, 53, 20
3, 42240, Note_on_c, 0, 62, 20
3, 42240, Note_on_c, 0, 67, 20
3, 42259, Note_on_c, 0, 50, 0
3, 42480, Note_on_c, 0, 62, 0
3, 42480, Note_on_c, 0, 53, 0
3, 42480, Note_on_c, 0, 67, 0
3, 42480, Note_on_c, 0, 56, 19
3, 42480, Note_on_c, 0, 62, 19
3, 42480, Note_on_c, 0, 68, 19
3, 42720, Note_on_c, 0, 68, 0
3, 42720, Note_on_c, 0, 56, 0
3, 42720, Note_on_c, 0, 62, 0
3, 42720, Note_on_c, 0, 59, 18
3, 42720, Note_on_c, 0, 62, 18
3, 42960, Note_on_c, 0, 62, 0
3, 42960, Note_on_c, 0, 59, 0
3, 42960, Note_on_c, 0, 64, 18
3, 42960, Note_on_c, 0, 59, 18
3, 43200, Note_on_c, 0, 59, 0
3, 43200, Note_on_c, 0, 64, 0
3, 43200, Note_on_c, 0, 65, 20
3, 43200, Note_on_c, 0, 56, 20
3, 43200, Note_on_c, 0, 62, 20
3, 43440, Note_on_c, 0, 62, 0
3, 43440, Note_on_c, 0, 65, 0
3, 43440, Note_on_c, 0, 56, 0
3, 43440, Note_on_c, 0, 59, 18
3, 43440, Note_on_c, 0, 62, 18
3, 43440, Note_on_c, 0, 53, 18
3, 43680, Note_on_c, 0, 53, 0
3, 43680, Note_on_c, 0, 59, 0
3, 43680, Note_on_c, 0, 62, 0
3, 43680, Note_on_c, 0, 59, 18
3, 43680, Note_on_c, 0, 56, 18
3, 43680, Note_on_c, 0, 50, 18
3, 43920, Note_on_c, 0, 50, 0
3, 43920, Note_on_c, 0, 59, 0
3, 43920, Note_on_c, 0, 56, 0
3, 43920, Note_on_c, 0, 47, 18
3, 43920, Note_on_c, 0, 55, 18
3, 44160, Note_on_c, 0, 55, 0
3, 44160, Note_on_c, 0, 47, 0
3, 44160, Note_on_c, 0, 43, 0
3, 44160, Note_on_c, 0, 53, 20
3, 44160, Note_on_c, 0, 43, 20
3, 44400, Note_on_c, 0, 43, 0
3, 44400, Note_on_c, 0, 53, 0
3, 44400, Note_on_c, 0, 52, 18
3, 44400, Note_on_c, 0, 36, 16
3, 44640, Note_on_c, 0, 36, 0
3, 44640, Note_on_c, 0, 52, 0
3, 44640, Note_on_c, 0, 42, 15
3, 44640, Note_on_c, 0, 30, 15
3, 44880, Note_on_c, 0, 30, 0
3, 44880, Note_on_c, 0, 42, 0
3, 44880, Note_on_c, 0, 46, 15
3, 44880, Note_on_c, 0, 34, 15
3, 45120, Note_on_c, 0, 34, 0
3, 45120, Note_on_c, 0, 46, 0
3, 45120, Note_on_c, 0, 31, 0
3, 45120, Note_on_c, 0, 39, 20
3, 45360, Note_on_c, 0, 39, 0
3, 45360, Note_on_c, 0, 44, 14
3, 45600, Note_on_c, 0, 44, 0
3, 45600, Note_on_c, 0, 43, 20
3, 45600, Note_on_c, 0, 53, 20
3, 45840, Note_on_c, 0, 53, 0
3, 45840, Note_on_c, 0, 43, 0
3, 45840, Note_on_c, 0, 36, 16
3, 45840, Note_on_c, 0, 52, 16
3, 46080, Note_on_c, 0, 52, 0
3, 46080, Note_on_c, 0, 36, 0
3, 46080, Note_on_c, 0, 30, 15
3, 46080, Note_on_c, 0, 42, 15
3, 46320, Note_on_c, 0, 42, 0
3, 46320, Note_on_c, 0, 30, 0
3, 46320, Note_on_c, 0, 34, 15
3, 46320, Note_on_c, 0, 46, 15
3, 46560, Note_on_c, 0, 46, 0
3, 46560, Note_on_c, 0, 34, 0
3, 46560, Note_on_c, 0, 39, 15
3, 46800, Note_on_c, 0, 39, 0
3, 46800, Note_on_c, 0, 32, 14
3, 46800, Note_on_c, 0, 44, 14
3, 47040, Note_on_c, 0, 44, 0
3, 47040, Note_on_c, 0, 32, 0
3, 47040, Note_on_c, 0, 25, 18
3, 47040, Note_on_c, 0, 37, 18
3, 48960, Note_on_c, 0, 37, 0
3, 48960, Note_on_c, 0, 25, 0
3, 48960, Note_on_c, 0, 25, 18
3, 48960, Note_on_c, 0, 37, 18
3, 50880, Note_on_c, 0, 37, 0
3, 50880, Note_on_c, 0, 25, 0
3, 54960, Note_on_c, 0, 67, 30
3, 54960, Note_on_c, 0, 61, 25
3, 54960, Note_on_c, 0, 57, 25
3, 56520, Note_on_c, 0, 53, 21
3, 56520, Note_on_c, 0, 37, 20
3, 56520, Note_on_c, 0, 64, 20
3, 56520, Note_on_c, 0, 59, 20
3, 56520, Note_on_c, 0, 49, 20
3, 56640, Note_on_c, 0, 57, 0
3, 56640, Note_on_c, 0, 67, 0
3, 56640, Note_on_c, 0, 61, 0
3, 57120, Note_on_c, 0, 64, 0
3, 57120, Note_on_c, 0, 62, 30
3, 57600, Note_on_c, 0, 62, 0
3, 57600, Note_on_c, 0, 53, 0
3, 57600, Note_on_c, 0, 49, 0
3, 57600, Note_on_c, 0, 59, 0
3, 57600, Note_on_c, 0, 37, 0
3, 58560, Note_on_c, 0, 50, 27
3, 58560, Note_on_c, 0, 56, 27
3, 58560, Note_on_c, 0, 34, 22
3, 58560, Note_on_c, 0, 46, 22
3, 58560, Note_on_c, 0, 64, 27
3, 59040, Note_on_c, 0, 64, 0
3, 59040, Note_on_c, 0, 62, 32
3, 59520, Note_on_c, 0, 62, 0
3, 60480, Note_on_c, 0, 46, 0
3, 60480, Note_on_c, 0, 50, 0
3, 60480, Note_on_c, 0, 56, 0
3, 60480, Note_on_c, 0, 34, 0
3, 60480, Note_on_c, 0, 43, 27
3, 60480, Note_on_c, 0, 50, 27
3, 60480, Note_on_c, 0, 58, 27
3, 62760, Note_on_c, 0, 39, 25
3, 62760, Note_on_c, 0, 46, 26
3, 62880, Note_on_c, 0, 58, 0
3, 62880, Note_on_c, 0, 43, 0
3, 62880, Note_on_c, 0, 50, 0
3, 64800, Note_on_c, 0, 39, 0
3, 64800, Note_on_c, 0, 46, 0
3, 64800, Note_on_c, 0, 39, 22
3, 64800, Note_on_c, 0, 46, 22
3, 66720, Note_on_c, 0, 46, 0
3, 66720, Note_on_c, 0, 39, 0
3, 66720, Note_on_c, 0, 58, 27
3, 66720, Note_on_c, 0, 36, 18
3, 66720, Note_on_c, 0, 48, 18
3, 66720, Note_on_c, 0, 51, 18
3, 66720, Note_on_c, 0, 54, 18
3, 66960, Note_on_c, 0, 63, 22
3, 66960, Note_on_c, 0, 66, 38
3, 66960, Note_on_c, 0, 70, 38
3, 67920, Note_on_c, 0, 70, 0
3, 67920, Note_on_c, 0, 66, 0
3, 67920, Note_on_c, 0, 63, 0
3, 67920, Note_on_c, 0, 63, 31
3, 67920, Note_on_c, 0, 59, 31
3, 67920, Note_on_c, 0, 66, 37
3, 68160, Note_on_c, 0, 66, 0
3, 68160, Note_on_c, 0, 59, 0
3, 68160, Note_on_c, 0, 63, 0
3, 68160, Note_on_c, 0, 66, 39
3, 68160, Note_on_c, 0, 63, 33
3, 68160, Note_on_c, 0, 60, 33
3, 68514, Note_on_c, 0, 60, 0
3, 68515, Note_on_c, 0, 63, 0
3, 68515, Note_on_c, 0, 66, 0
3, 68520, Note_on_c, 0, 65, 36
3, 68520, Note_on_c, 0, 66, 36
3, 68520, Note_on_c, 0, 73, 43
3, 68640, Note_on_c, 0, 73, 0
3, 68640, Note_on_c, 0, 66, 0
3, 68640, Note_on_c, 0, 51, 0
3, 68640, Note_on_c, 0, 54, 0
3, 68640, Note_on_c, 0, 58, 0
3, 68640, Note_on_c, 0, 65, 0
3, 68640, Note_on_c, 0, 63, 32
3, 68640, Note_on_c, 0, 66, 32
3, 68640, Note_on_c, 0, 70, 38
3, 68880, Note_on_c, 0, 36, 0
3, 68880, Note_on_c, 0, 48, 0
3, 68880, Note_on_c, 0, 36, 36
3, 68880, Note_on_c, 0, 48, 36
3, 69840, Note_on_c, 0, 66, 0
3, 69840, Note_on_c, 0, 70, 0
3, 69840, Note_on_c, 0, 63, 0
3, 69840, Note_on_c, 0, 59, 31
3, 69840, Note_on_c, 0, 66, 37
3, 69840, Note_on_c, 0, 63, 31
3, 70080, Note_on_c, 0, 63, 0
3, 70080, Note_on_c, 0, 59, 0
3, 70080, Note_on_c, 0, 66, 0
3, 70080, Note_on_c, 0, 63, 28
3, 70080, Note_on_c, 0, 66, 39
3, 70080, Note_on_c, 0, 60, 28
3, 70238, Note_on_c, 0, 60, 0
3, 70238, Note_on_c, 0, 63, 0
3, 70238, Note_on_c, 0, 66, 0
3, 70240, Note_on_c, 0, 72, 43
3, 70240, Note_on_c, 0, 65, 30
3, 70240, Note_on_c, 0, 68, 30
3, 70400, Note_on_c, 0, 68, 0
3, 70400, Note_on_c, 0, 72, 0
3, 70400, Note_on_c, 0, 65, 0
3, 70400, Note_on_c, 0, 67, 28
3, 70400, Note_on_c, 0, 64, 28
3, 70400, Note_on_c, 0, 71, 40
3, 70560, Note_on_c, 0, 71, 0
3, 70560, Note_on_c, 0, 67, 0
3, 70560, Note_on_c, 0, 64, 0
3, 70560, Note_on_c, 0, 60, 35
3, 70560, Note_on_c, 0, 63, 35
3, 70560, Note_on_c, 0, 66, 42
3, 70560, Note_on_c, 0, 70, 42
3, 70800, Note_on_c, 0, 36, 0
3, 70800, Note_on_c, 0, 48, 0
3, 70800, Note_on_c, 0, 36, 36
3, 70800, Note_on_c, 0, 48, 36
3, 71280, Note_on_c, 0, 66, 0
3, 71280, Note_on_c, 0, 60, 0
3, 71280, Note_on_c, 0, 63, 0
3, 71280, Note_on_c, 0, 70, 0
3, 71280, Note_on_c, 0, 58, 32
3, 71280, Note_on_c, 0, 63, 32
3, 71280, Note_on_c, 0, 66, 38
3, 71520, Note_on_c, 0, 66, 0
3, 71520, Note_on_c, 0, 58, 0
3, 71520, Note_on_c, 0, 63, 0
3, 71520, Note_on_c, 0, 56, 28
3, 71520, Note_on_c, 0, 60, 28
3, 71520, Note_on_c, 0, 63, 34
3, 72000, Note_on_c, 0, 63, 0
3, 72000, Note_on_c, 0, 56, 0
3, 72000, Note_on_c, 0, 60, 0
3, 72000, Note_on_c, 0, 54, 31
3, 72000, Note_on_c, 0, 58, 31
3, 72000, Note_on_c, 0, 63, 37
3, 72240, Note_on_c, 0, 63, 0
3, 72240, Note_on_c, 0, 54, 0
3, 72240, Note_on_c, 0, 58, 0
3, 72240, Note_on_c, 0, 56, 32
3, 72240, Note_on_c, 0, 60, 32
3, 72240, Note_on_c, 0, 63, 38
3, 72480, Note_on_c, 0, 63, 0
3, 72480, Note_on_c, 0, 56, 0
3, 72480, Note_on_c, 0, 60, 0
3, 72480, Note_on_c, 0, 61, 35
3, 72480, Note_on_c, 0, 66, 42
3, 72480, Note_on_c, 0, 70, 42
3, 72720, Note_on_c, 0, 70, 0
3, 72720, Note_on_c, 0, 61, 0
3, 72720, Note_on_c, 0, 66, 0
3, 72720, Note_on_c, 0, 58, 31
3, 72720, Note_on_c, 0, 63, 37
3, 72720, Note_on_c, 0, 66, 37
3, 72960, Note_on_c, 0, 66, 0
3, 72960, Note_on_c, 0, 58, 0
3, 72960, Note_on_c, 0, 63, 0
3, 72960, Note_on_c, 0, 56, 28
3, 72960, Note_on_c, 0, 53, 28
3, 72960, Note_on_c, 0, 60, 33
3, 72960, Note_on_c, 0, 58, 33
3, 73440, Note_on_c, 0, 58, 0
3, 73440, Note_on_c, 0, 53, 0
3, 73440, Note_on_c, 0, 56, 0
3, 73440, Note_on_c, 0, 60, 0
3, 73440, Note_on_c, 0, 51, 30
3, 73440, Note_on_c, 0, 54, 36
3, 73440, Note_on_c, 0, 58, 36
3, 73680, Note_on_c, 0, 58, 0
3, 73680, Note_on_c, 0, 51, 0
3, 73680, Note_on_c, 0, 54, 0
3, 73680, Note_on_c, 0, 53, 31
3, 73680, Note_on_c, 0, 56, 31
3, 73680, Note_on_c, 0, 58, 37
3, 73680, Note_on_c, 0, 60, 37
3, 73920, Note_on_c, 0, 60, 0
3, 73920, Note_on_c, 0, 56, 0
3, 73920, Note_on_c, 0, 53, 0
3, 73920, Note_on_c, 0, 58, 0
3, 73920, Note_on_c, 0, 63, 42
3, 73920, Note_on_c, 0, 60, 42
3, 73920, Note_on_c, 0, 58, 35
3, 73920, Note_on_c, 0, 56, 35
3, 74160, Note_on_c, 0, 48, 0
3, 74160, Note_on_c, 0, 36, 0
3, 74160, Note_on_c, 0, 36, 36
3, 74160, Note_on_c, 0, 48, 36
3, 74640, Note_on_c, 0, 58, 0
3, 74640, Note_on_c, 0, 63, 0
3, 74640, Note_on_c, 0, 60, 0
3, 74640, Note_on_c, 0, 56, 0
3, 74640, Note_on_c, 0, 63, 38
3, 74640, Note_on_c, 0, 54, 32
3, 74880, Note_on_c, 0, 54, 0
3, 74880, Note_on_c, 0, 63, 0
3, 74880, Note_on_c, 0, 51, 28
3, 74880, Note_on_c, 0, 54, 34
3, 75360, Note_on_c, 0, 54, 0
3, 75360, Note_on_c, 0, 51, 0
3, 75360, Note_on_c, 0, 46, 27
3, 75360, Note_on_c, 0, 51, 27
3, 75360, Note_on_c, 0, 54, 32
3, 75840, Note_on_c, 0, 54, 0
3, 75840, Note_on_c, 0, 46, 0
3, 75840, Note_on_c, 0, 36, 0
3, 75840, Note_on_c, 0, 48, 0
3, 75840, Note_on_c, 0, 51, 0
3, 75840, Note_on_c, 0, 22, 25
3, 75840, Note_on_c, 0, 34, 25
3, 76080, Note_on_c, 0, 52, 15
3, 76080, Note_on_c, 0, 46, 15
3, 76080, Note_on_c, 0, 61, 18
3, 76320, Note_on_c, 0, 61, 0
3, 76320, Note_on_c, 0, 52, 0
3, 76320, Note_on_c, 0, 46, 0
3, 76320, Note_on_c, 0, 63, 18
3, 76320, Note_on_c, 0, 49, 14
3, 76320, Note_on_c, 0, 54, 14
3, 76560, Note_on_c, 0, 54, 0
3, 76560, Note_on_c, 0, 63, 0
3, 76560, Note_on_c, 0, 64, 19
3, 76800, Note_on_c, 0, 64, 0
3, 76800, Note_on_c, 0, 22, 0
3, 76800, Note_on_c, 0, 34, 0
3, 76800, Note_on_c, 0, 66, 16
3, 76800, Note_on_c, 0, 52, 14
3, 76819, Note_on_c, 0, 49, 0
3, 77040, Note_on_c, 0, 52, 0
3, 77040, Note_on_c, 0, 66, 0
3, 77040, Note_on_c, 0, 61, 14
3, 77040, Note_on_c, 0, 68, 18
3, 77040, Note_on_c, 0, 52, 14
3, 77280, Note_on_c, 0, 52, 0
3, 77280, Note_on_c, 0, 68, 0
3, 77280, Note_on_c, 0, 61, 0
3, 77280, Note_on_c, 0, 61, 18
3, 77280, Note_on_c, 0, 56, 18
3, 77520, Note_on_c, 0, 56, 0
3, 77520, Note_on_c, 0, 61, 0
3, 77520, Note_on_c, 0, 61, 18
3, 77520, Note_on_c, 0, 68, 18
3, 77520, Note_on_c, 0, 58, 18
3, 77758, Note_on_c, 0, 68, 0
3, 77760, Note_on_c, 0, 58, 0
3, 77760, Note_on_c, 0, 61, 0
3, 77760, Note_on_c, 0, 61, 14
3, 77760, Note_on_c, 0, 66, 16
3, 77998, Note_on_c, 0, 66, 0
3, 78000, Note_on_c, 0, 64, 16
3, 78007, Note_on_c, 0, 61, 0
3, 78238, Note_on_c, 0, 64, 0
3, 78240, Note_on_c, 0, 64, 18
3, 78240, Note_on_c, 0, 56, 18
3, 78480, Note_on_c, 0, 56, 0
3, 78480, Note_on_c, 0, 64, 0
3, 78480, Note_on_c, 0, 58, 18
3, 78480, Note_on_c, 0, 52, 18
3, 78720, Note_on_c, 0, 52, 0
3, 78720, Note_on_c, 0, 58, 0
3, 78720, Note_on_c, 0, 22, 25
3, 78720, Note_on_c, 0, 34, 25
3, 79680, Note_on_c, 0, 34, 0
3, 79680, Note_on_c, 0, 34, 30
3, 79680, Note_on_c, 0, 46, 30
3, 81600, Note_on_c, 0, 46, 0
3, 82560, Note_on_c, 0, 34, 0
3, 82560, Note_on_c, 0, 22, 0
3, 82560, Note_on_c, 0, 22, 30
3, 82560, Note_on_c, 0, 34, 30
3, 82800, Note_on_c, 0, 54, 18
3, 82800, Note_on_c, 0, 46, 14
3, 82800, Note_on_c, 0, 40, 14
3, 83039, Note_on_c, 0, 49, 18
3, 83040, Note_on_c, 0, 46, 0
3, 83040, Note_on_c, 0, 54, 0
3, 83040, Note_on_c, 0, 58, 18
3, 83279, Note_on_c, 0, 49, 0
3, 83280, Note_on_c, 0, 58, 0
3, 83280, Note_on_c, 0, 64, 18
3, 83280, Note_on_c, 0, 49, 18
3, 83299, Note_on_c, 0, 40, 0
3, 83520, Note_on_c, 0, 64, 0
3, 83520, Note_on_c, 0, 49, 0
3, 83520, Note_on_c, 0, 61, 16
3, 83520, Note_on_c, 0, 54, 14
3, 83760, Note_on_c, 0, 54, 0
3, 83760, Note_on_c, 0, 61, 0
3, 83760, Note_on_c, 0, 64, 16
3, 83998, Note_on_c, 0, 64, 0
3, 84000, Note_on_c, 0, 61, 18
3, 84000, Note_on_c, 0, 56, 18
3, 84238, Note_on_c, 0, 61, 0
3, 84240, Note_on_c, 0, 56, 0
3, 84240, Note_on_c, 0, 58, 18
3, 84240, Note_on_c, 0, 52, 18
3, 84480, Note_on_c, 0, 52, 0
3, 84480, Note_on_c, 0, 58, 0
3, 84480, Note_on_c, 0, 49, 21
3, 84480, Note_on_c, 0, 54, 21
3, 84480, Note_on_c, 0, 58, 21
3, 85200, Note_on_c, 0, 34, 0
3, 85200, Note_on_c, 0, 22, 0
3, 85200, Note_on_c, 0, 22, 18
3, 85200, Note_on_c, 0, 34, 18
3, 85440, Note_on_c, 0, 54, 0
3, 85440, Note_on_c, 0, 58, 0
3, 85440, Note_on_c, 0, 49, 0
3, 87360, Note_on_c, 0, 46, 18
3, 87360, Note_on_c, 0, 51, 18
3, 87360, Note_on_c, 0, 56, 18
3, 87360, Note_on_c, 0, 58, 18
3, 88080, Note_on_c, 0, 22, 0
3, 88080, Note_on_c, 0, 34, 0
3, 88080, Note_on_c, 0, 22, 18
3, 88080, Note_on_c, 0, 34, 18
3, 89280, Note_on_c, 0, 56, 0
3, 89280, Note_on_c, 0, 46, 0
3, 89280, Note_on_c, 0, 51, 0
3, 89280, Note_on_c, 0, 58, 0
3, 89280, Note_on_c, 0, 44, 18
3, 89280, Note_on_c, 0, 48, 18
3, 89280, Note_on_c, 0, 54, 18
3, 90000, Note_on_c, 0, 34, 0
3, 90000, Note_on_c, 0, 22, 0
3, 90000, Note_on_c, 0, 22, 18
3, 90000, Note_on_c, 0, 34, 18
3, 91200, Note_on_c, 0, 48, 0
3, 91200, Note_on_c, 0, 54, 0
3, 91200, Note_on_c, 0, 44, 0
3, 91200, Note_on_c, 0, 39, 20
3, 91200, Note_on_c, 0, 46, 20
3, 91200, Note_on_c, 0, 53, 26
3, 91920, Note_on_c, 0, 22, 0
3, 91920, Note_on_c, 0, 34, 0
3, 91920, Note_on_c, 0, 22, 19
3, 92400, Note_on_c, 0, 46, 0
3, 92400, Note_on_c, 0, 53, 0
3, 92400, Note_on_c, 0, 39, 0
3, 92400, Note_on_c, 0, 42, 18
3, 92400, Note_on_c, 0, 49, 22
3, 92400, Note_on_c, 0, 35, 18
3, 92640, Note_on_c, 0, 35, 0
3, 92640, Note_on_c, 0, 49, 0
3, 92640, Note_on_c, 0, 42, 0
3, 92640, Note_on_c, 0, 44, 20
3, 92640, Note_on_c, 0, 37, 20
3, 92640, Note_on_c, 0, 51, 26
3, 92996, Note_on_c, 0, 51, 0
3, 92996, Note_on_c, 0, 37, 0
3, 92996, Note_on_c, 0, 44, 0
3, 93000, Note_on_c, 0, 58, 22
3, 93000, Note_on_c, 0, 44, 18
3, 93000, Note_on_c, 0, 47, 18
3, 93000, Note_on_c, 0, 51, 18
3, 93120, Note_on_c, 0, 51, 0
3, 93120, Note_on_c, 0, 44, 0
3, 93120, Note_on_c, 0, 47, 0
3, 93120, Note_on_c, 0, 58, 0
3, 93120, Note_on_c, 0, 46, 20
3, 93120, Note_on_c, 0, 53, 26
3, 93120, Note_on_c, 0, 39, 20
3, 93840, Note_on_c, 0, 22, 0
3, 93840, Note_on_c, 0, 22, 18
3, 94320, Note_on_c, 0, 46, 0
3, 94320, Note_on_c, 0, 39, 0
3, 94320, Note_on_c, 0, 53, 0
3, 94320, Note_on_c, 0, 49, 19
3, 94320, Note_on_c, 0, 42, 15
3, 94320, Note_on_c, 0, 35, 15
3, 94560, Note_on_c, 0, 35, 0
3, 94560, Note_on_c, 0, 42, 0
3, 94560, Note_on_c, 0, 49, 0
3, 94560, Note_on_c, 0, 37, 18
3, 94560, Note_on_c, 0, 51, 22
3, 94560, Note_on_c, 0, 44, 18
3, 94917, Note_on_c, 0, 44, 0
3, 94917, Note_on_c, 0, 51, 0
3, 94917, Note_on_c, 0, 37, 0
3, 94920, Note_on_c, 0, 44, 15
3, 94920, Note_on_c, 0, 47, 15
3, 94920, Note_on_c, 0, 58, 19
3, 94920, Note_on_c, 0, 51, 15
3, 95040, Note_on_c, 0, 51, 0
3, 95040, Note_on_c, 0, 47, 0
3, 95040, Note_on_c, 0, 58, 0
3, 95040, Note_on_c, 0, 44, 0
3, 95040, Note_on_c, 0, 39, 18
3, 95040, Note_on_c, 0, 46, 18
3, 95040, Note_on_c, 0, 53, 22
3, 95760, Note_on_c, 0, 22, 0
3, 95760, Note_on_c, 0, 22, 18
3, 96960, Note_on_c, 0, 22, 0
3, 96960, Note_on_c, 0, 53, 0
3, 96960, Note_on_c, 0, 46, 0
3, 96960, Note_on_c, 0, 39, 0
3, 96960, End_track
4, 0, Start_track
4, 0, MIDI_port, 0
4, 0, Title_t, "Theme"
4, 0, Program_c, 0, 0
4, 0, Control_c, 0, 7, 100
4, 480, Control_c, 0, 91, 127
4, 720, Control_c, 0, 64, 127
4, 720, Note_on_c, 0, 58, 31
4, 720, Note_on_c, 0, 70, 31
4, 960, Note_on_c, 0, 70, 0
4, 960, Note_on_c, 0, 70, 21
4, 1320, Note_on_c, 0, 70, 0
4, 1320, Note_on_c, 0, 58, 0
4, 1440, Note_on_c, 0, 58, 31
4, 1440, Note_on_c, 0, 70, 31
4, 1680, Note_on_c, 0, 70, 0
4, 1680, Note_on_c, 0, 70, 21
4, 2040, Note_on_c, 0, 70, 0
4, 2040, Note_on_c, 0, 58, 0
4, 2160, Note_on_c, 0, 70, 34
4, 2640, Note_on_c, 0, 70, 0
4, 2640, Note_on_c, 0, 58, 31
4, 2640, Note_on_c, 0, 70, 31
4, 2880, Note_on_c, 0, 70, 0
4, 2880, Note_on_c, 0, 70, 20
4, 3240, Note_on_c, 0, 70, 0
4, 3240, Note_on_c, 0, 58, 0
4, 3360, Note_on_c, 0, 58, 32
4, 3360, Note_on_c, 0, 70, 32
4, 3600, Note_on_c, 0, 70, 0
4, 3600, Note_on_c, 0, 70, 21
4, 3960, Note_on_c, 0, 70, 0
4, 4009, Control_c, 0, 64, 0
4, 4080, Note_on_c, 0, 70, 34
4, 4560, Note_on_c, 0, 70, 0
4, 4560, Control_c, 0, 64, 127
4, 4560, Note_on_c, 0, 58, 31
4, 4560, Note_on_c, 0, 70, 31
4, 4800, Note_on_c, 0, 70, 0
4, 4800, Note_on_c, 0, 70, 24
4, 5040, Note_on_c, 0, 58, 0
4, 5040, Control_c, 0, 64, 0
4, 5160, Note_on_c, 0, 70, 0
4, 5160, Note_on_c, 0, 58, 0
4, 5280, Note_on_c, 0, 58, 33
4, 5280, Note_on_c, 0, 70, 33
4, 5370, Control_c, 0, 64, 127
4, 5520, Note_on_c, 0, 70, 0
4, 5520, Note_on_c, 0, 58, 0
4, 5520, Note_on_c, 0, 70, 24
4, 5693, Control_c, 0, 64, 0
4, 5880, Note_on_c, 0, 70, 0
4, 6000, Note_on_c, 0, 70, 36
4, 6480, Note_on_c, 0, 70, 0
4, 6480, Control_c, 0, 64, 127
4, 6480, Note_on_c, 0, 58, 32
4, 6480, Note_on_c, 0, 70, 32
4, 6720, Note_on_c, 0, 70, 0
4, 6720, Note_on_c, 0, 70, 21
4, 6960, Control_c, 0, 64, 0
4, 7080, Note_on_c, 0, 70, 0
4, 7080, Note_on_c, 0, 58, 0
4, 7200, Note_on_c, 0, 58, 34
4, 7200, Note_on_c, 0, 70, 34
4, 7290, Control_c, 0, 64, 127
4, 7440, Note_on_c, 0, 70, 0
4, 7440, Note_on_c, 0, 58, 0
4, 7440, Note_on_c, 0, 70, 21
4, 7595, Control_c, 0, 64, 0
4, 7800, Note_on_c, 0, 70, 0
4, 7920, Note_on_c, 0, 70, 37
4, 8400, Note_on_c, 0, 70, 0
4, 8400, Control_c, 0, 64, 127
4, 8400, Note_on_c, 0, 58, 31
4, 8400, Note_on_c, 0, 70, 31
4, 8640, Note_on_c, 0, 70, 0
4, 8640, Note_on_c, 0, 70, 19
4, 9000, Note_on_c, 0, 70, 0
4, 9000, Note_on_c, 0, 58, 0
4, 9120, Note_on_c, 0, 58, 36
4, 9120, Note_on_c, 0, 70, 36
4, 9360, Note_on_c, 0, 70, 0
4, 9360, Note_on_c, 0, 70, 20
4, 9520, Control_c, 0, 64, 0
4, 9720, Note_on_c, 0, 70, 0
4, 9720, Note_on_c, 0, 58, 0
4, 9840, Note_on_c, 0, 58, 30
4, 9840, Note_on_c, 0, 70, 36
4, 10320, Note_on_c, 0, 70, 0
4, 10320, Note_on_c, 0, 58, 0
4, 10320, Control_c, 0, 64, 127
4, 10320, Note_on_c, 0, 58, 30
4, 10320, Note_on_c, 0, 70, 36
4, 10560, Note_on_c, 0, 70, 0
4, 10560, Note_on_c, 0, 70, 25
4, 10687, Control_c, 0, 64, 0
4, 10920, Note_on_c, 0, 70, 0
4, 10920, Note_on_c, 0, 58, 0
4, 11040, Note_on_c, 0, 58, 31
4, 11040, Note_on_c, 0, 70, 37
4, 11146, Control_c, 0, 64, 127
4, 11280, Note_on_c, 0, 70, 0
4, 11280, Note_on_c, 0, 70, 28
4, 11435, Control_c, 0, 64, 0
4, 11640, Note_on_c, 0, 70, 0
4, 11640, Note_on_c, 0, 58, 0
4, 11760, Note_on_c, 0, 58, 26
4, 11760, Note_on_c, 0, 70, 31
4, 12240, Note_on_c, 0, 70, 0
4, 12240, Note_on_c, 0, 58, 0
4, 12240, Control_c, 0, 64, 127
4, 12240, Note_on_c, 0, 58, 26
4, 12240, Note_on_c, 0, 70, 31
4, 12480, Note_on_c, 0, 70, 0
4, 12480, Note_on_c, 0, 70, 21
4, 12840, Note_on_c, 0, 70, 0
4, 12840, Note_on_c, 0, 58, 0
4, 12960, Note_on_c, 0, 58, 37
4, 12960, Note_on_c, 0, 70, 37
4, 13200, Note_on_c, 0, 70, 0
4, 13200, Control_c, 0, 64, 0
4, 13200, Note_on_c, 0, 70, 21
4, 13560, Note_on_c, 0, 70, 0
4, 13680, Note_on_c, 0, 70, 37
4, 14160, Note_on_c, 0, 70, 0
4, 14160, Control_c, 0, 64, 127
4, 14160, Note_on_c, 0, 58, 34
4, 14160, Note_on_c, 0, 70, 34
4, 14400, Note_on_c, 0, 70, 0
4, 14400, Note_on_c, 0, 70, 21
4, 14569, Control_c, 0, 64, 0
4, 14640, Note_on_c, 0, 58, 0
4, 14760, Note_on_c, 0, 70, 0
4, 14760, Note_on_c, 0, 58, 0
4, 14880, Note_on_c, 0, 58, 32
4, 14880, Note_on_c, 0, 70, 38
4, 14951, Control_c, 0, 64, 127
4, 15120, Note_on_c, 0, 70, 0
4, 15120, Note_on_c, 0, 58, 0
4, 15120, Note_on_c, 0, 70, 21
4, 15300, Control_c, 0, 64, 0
4, 15480, Note_on_c, 0, 70, 0
4, 15600, Note_on_c, 0, 70, 40
4, 16080, Note_on_c, 0, 70, 0
4, 16080, Control_c, 0, 64, 127
4, 16080, Note_on_c, 0, 58, 30
4, 16080, Note_on_c, 0, 70, 36
4, 16320, Note_on_c, 0, 70, 0
4, 16320, Note_on_c, 0, 58, 0
4, 16320, Note_on_c, 0, 58, 16
4, 16320, Note_on_c, 0, 70, 19
4, 16680, Note_on_c, 0, 70, 0
4, 16680, Note_on_c, 0, 58, 0
4, 16800, Note_on_c, 0, 58, 32
4, 16800, Note_on_c, 0, 70, 38
4, 17040, Note_on_c, 0, 70, 0
4, 17040, Note_on_c, 0, 58, 0
4, 17040, Note_on_c, 0, 58, 16
4, 17040, Note_on_c, 0, 70, 20
4, 17209, Control_c, 0, 64, 0
4, 17400, Note_on_c, 0, 70, 0
4, 17400, Note_on_c, 0, 58, 0
4, 17520, Note_on_c, 0, 58, 32
4, 17520, Note_on_c, 0, 70, 38
4, 18000, Note_on_c, 0, 70, 0
4, 18000, Note_on_c, 0, 58, 0
4, 18000, Control_c, 0, 64, 127
4, 18000, Note_on_c, 0, 58, 40
4, 18000, Note_on_c, 0, 70, 45
4, 18240, Note_on_c, 0, 70, 0
4, 18240, Note_on_c, 0, 70, 37
4, 18600, Note_on_c, 0, 70, 0
4, 18600, Note_on_c, 0, 58, 0
4, 18720, Control_c, 0, 64, 0
4, 18720, Note_on_c, 0, 58, 32
4, 18720, Note_on_c, 0, 70, 38
4, 18960, Note_on_c, 0, 70, 0
4, 18960, Note_on_c, 0, 70, 28
4, 19320, Note_on_c, 0, 70, 0
4, 19320, Note_on_c, 0, 58, 0
4, 19440, Note_on_c, 0, 58, 25
4, 19440, Note_on_c, 0, 70, 30
4, 19920, Note_on_c, 0, 70, 0
4, 19920, Note_on_c, 0, 58, 0
4, 19920, Control_c, 0, 64, 127
4, 19920, Note_on_c, 0, 58, 26
4, 19920, Note_on_c, 0, 70, 31
4, 20160, Note_on_c, 0, 70, 0
4, 20160, Note_on_c, 0, 70, 21
4, 20520, Note_on_c, 0, 70, 0
4, 20520, Note_on_c, 0, 58, 0
4, 20640, Note_on_c, 0, 58, 32
4, 20640, Note_on_c, 0, 70, 32
4, 20880, Note_on_c, 0, 70, 0
4, 20880, Note_on_c, 0, 70, 21
4, 21035, Control_c, 0, 64, 0
4, 21240, Note_on_c, 0, 70, 0
4, 21240, Note_on_c, 0, 58, 0
4, 21360, Note_on_c, 0, 58, 45
4, 21360, Note_on_c, 0, 70, 45
4, 21840, Note_on_c, 0, 70, 0
4, 21840, Note_on_c, 0, 58, 0
4, 21840, Note_on_c, 0, 58, 44
4, 21840, Control_c, 0, 64, 127
4, 21840, Note_on_c, 0, 70, 44
4, 22080, Note_on_c, 0, 70, 0
4, 22080, Note_on_c, 0, 70, 32
4, 22254, Control_c, 0, 64, 0
4, 22440, Note_on_c, 0, 70, 0
4, 22440, Note_on_c, 0, 58, 0
4, 22560, Note_on_c, 0, 70, 45
4, 22614, Control_c, 0, 64, 127
4, 22800, Note_on_c, 0, 70, 0
4, 22800, Note_on_c, 0, 70, 38
4, 23046, Control_c, 0, 64, 0
4, 23160, Note_on_c, 0, 70, 0
4, 23280, Note_on_c, 0, 58, 45
4, 23280, Note_on_c, 0, 70, 49
4, 23760, Note_on_c, 0, 70, 0
4, 23760, Note_on_c, 0, 58, 0
4, 23760, Note_on_c, 0, 58, 32
4, 23760, Control_c, 0, 64, 127
4, 23760, Note_on_c, 0, 70, 38
4, 24000, Note_on_c, 0, 70, 0
4, 24000, Note_on_c, 0, 70, 21
4, 24192, Control_c, 0, 64, 0
4, 24360, Note_on_c, 0, 70, 0
4, 24360, Note_on_c, 0, 58, 0
4, 24480, Note_on_c, 0, 70, 54
4, 24511, Control_c, 0, 64, 127
4, 24720, Note_on_c, 0, 70, 0
4, 24720, Note_on_c, 0, 70, 44
4, 24970, Control_c, 0, 64, 0
4, 25080, Note_on_c, 0, 70, 0
4, 25200, Note_on_c, 0, 58, 44
4, 25200, Note_on_c, 0, 70, 44
4, 25680, Note_on_c, 0, 70, 0
4, 25680, Note_on_c, 0, 58, 0
4, 25680, Control_c, 0, 64, 127
4, 25680, Note_on_c, 0, 58, 32
4, 25680, Note_on_c, 0, 70, 38
4, 25920, Note_on_c, 0, 70, 0
4, 25920, Note_on_c, 0, 70, 31
4, 26280, Note_on_c, 0, 70, 0
4, 26280, Note_on_c, 0, 58, 0
4, 26400, Note_on_c, 0, 70, 38
4, 26640, Note_on_c, 0, 70, 0
4, 26640, Note_on_c, 0, 70, 33
4, 26880, Control_c, 0, 64, 0
4, 26936, Control_c, 0, 64, 127
4, 27000, Note_on_c, 0, 70, 0
4, 27120, Note_on_c, 0, 58, 26
4, 27120, Note_on_c, 0, 70, 32
4, 27360, Note_on_c, 0, 70, 0
4, 27360, Note_on_c, 0, 70, 21
4, 27960, Note_on_c, 0, 70, 0
4, 27960, Note_on_c, 0, 58, 0
4, 28080, Note_on_c, 0, 58, 26
4, 28080, Note_on_c, 0, 70, 32
4, 28207, Control_c, 0, 64, 0
4, 28320, Control_c, 0, 64, 127
4, 28560, Note_on_c, 0, 70, 0
4, 28560, Note_on_c, 0, 58, 0
4, 28560, Note_on_c, 0, 58, 26
4, 28560, Note_on_c, 0, 70, 32
4, 28800, Note_on_c, 0, 70, 0
4, 28800, Note_on_c, 0, 70, 21
4, 29400, Note_on_c, 0, 70, 0
4, 29400, Note_on_c, 0, 58, 0
4, 29520, Note_on_c, 0, 58, 22
4, 29520, Note_on_c, 0, 70, 27
4, 29661, Control_c, 0, 64, 0
4, 30000, Note_on_c, 0, 70, 0
4, 30000, Note_on_c, 0, 58, 0
4, 30000, Note_on_c, 0, 58, 42
4, 30000, Note_on_c, 0, 70, 46
4, 30480, Note_on_c, 0, 70, 0
4, 30480, Note_on_c, 0, 58, 0
4, 30480, Note_on_c, 0, 58, 32
4, 30480, Control_c, 0, 64, 127
4, 30480, Note_on_c, 0, 70, 38
4, 30720, Note_on_c, 0, 70, 0
4, 30720, Note_on_c, 0, 70, 28
4, 30857, Control_c, 0, 64, 0
4, 31080, Note_on_c, 0, 70, 0
4, 31080, Note_on_c, 0, 58, 0
4, 31200, Note_on_c, 0, 58, 42
4, 31200, Note_on_c, 0, 70, 44
4, 31291, Control_c, 0, 64, 127
4, 31440, Note_on_c, 0, 70, 0
4, 31440, Note_on_c, 0, 70, 39
4, 31686, Control_c, 0, 64, 0
4, 31800, Note_on_c, 0, 70, 0
4, 31800, Note_on_c, 0, 58, 0
4, 31920, Note_on_c, 0, 58, 43
4, 31920, Note_on_c, 0, 70, 46
4, 32400, Note_on_c, 0, 70, 0
4, 32400, Note_on_c, 0, 58, 0
4, 32400, Note_on_c, 0, 58, 42
4, 32400, Control_c, 0, 64, 127
4, 32400, Note_on_c, 0, 70, 42
4, 32640, Note_on_c, 0, 70, 0
4, 32640, Note_on_c, 0, 70, 31
4, 32777, Control_c, 0, 64, 0
4, 33000, Note_on_c, 0, 70, 0
4, 33000, Note_on_c, 0, 58, 0
4, 33120, Note_on_c, 0, 58, 56
4, 33120, Note_on_c, 0, 70, 61
4, 33171, Control_c, 0, 64, 127
4, 33360, Note_on_c, 0, 70, 0
4, 33360, Note_on_c, 0, 70, 58
4, 33610, Control_c, 0, 64, 0
4, 33720, Note_on_c, 0, 70, 0
4, 33720, Note_on_c, 0, 58, 0
4, 33840, Note_on_c, 0, 58, 45
4, 33840, Note_on_c, 0, 70, 45
4, 34320, Note_on_c, 0, 70, 0
4, 34320, Note_on_c, 0, 58, 0
4, 34320, Control_c, 0, 64, 127
4, 34320, Note_on_c, 0, 58, 44
4, 34320, Note_on_c, 0, 70, 44
4, 34560, Note_on_c, 0, 70, 0
4, 34560, Note_on_c, 0, 70, 33
4, 34920, Note_on_c, 0, 70, 0
4, 34920, Note_on_c, 0, 58, 0
4, 35040, Note_on_c, 0, 70, 38
4, 35280, Note_on_c, 0, 70, 0
4, 35280, Note_on_c, 0, 70, 33
4, 35460, Control_c, 0, 64, 0
4, 35520, Note_on_c, 0, 70, 0
4, 35520, Control_c, 0, 64, 127
4, 35640, Note_on_c, 0, 70, 34
4, 35640, Note_on_c, 0, 58, 34
4, 36120, Note_on_c, 0, 58, 0
4, 36120, Note_on_c, 0, 70, 0
4, 36120, Note_on_c, 0, 70, 31
4, 36360, Note_on_c, 0, 70, 0
4, 36360, Note_on_c, 0, 70, 21
4, 36489, Control_c, 0, 64, 0
4, 36558, Control_c, 0, 64, 127
4, 36960, Note_on_c, 0, 70, 0
4, 36960, Note_on_c, 0, 70, 32
4, 37200, Note_on_c, 0, 70, 0
4, 37200, Note_on_c, 0, 70, 21
4, 37440, Control_c, 0, 64, 0
4, 37475, Control_c, 0, 64, 127
4, 37560, Note_on_c, 0, 70, 0
4, 37680, Note_on_c, 0, 70, 33
4, 38160, Note_on_c, 0, 70, 0
4, 38160, Note_on_c, 0, 58, 27
4, 38160, Note_on_c, 0, 70, 33
4, 38400, Note_on_c, 0, 70, 0
4, 38400, Note_on_c, 0, 70, 27
4, 38418, Control_c, 0, 64, 0
4, 38467, Control_c, 0, 64, 127
4, 38760, Note_on_c, 0, 70, 0
4, 38760, Note_on_c, 0, 58, 0
4, 38880, Note_on_c, 0, 70, 33
4, 39120, Note_on_c, 0, 70, 0
4, 39120, Note_on_c, 0, 70, 21
4, 39366, Control_c, 0, 64, 0
4, 39438, Control_c, 0, 64, 127
4, 39480, Note_on_c, 0, 70, 0
4, 39600, Note_on_c, 0, 70, 37
4, 40080, Note_on_c, 0, 70, 0
4, 40080, Note_on_c, 0, 70, 33
4, 40320, Note_on_c, 0, 70, 0
4, 40320, Note_on_c, 0, 70, 21
4, 40327, Control_c, 0, 64, 0
4, 40391, Control_c, 0, 64, 127
4, 40680, Note_on_c, 0, 70, 0
4, 40800, Note_on_c, 0, 70, 32
4, 41040, Note_on_c, 0, 70, 0
4, 41040, Note_on_c, 0, 70, 18
4, 41160, Control_c, 0, 64, 0
4, 41280, Note_on_c, 0, 70, 0
4, 41280, Control_c, 0, 64, 127
4, 41400, Note_on_c, 0, 58, 36
4, 41400, Note_on_c, 0, 70, 36
4, 41880, Note_on_c, 0, 70, 0
4, 41880, Note_on_c, 0, 58, 0
4, 41880, Note_on_c, 0, 70, 37
4, 42120, Note_on_c, 0, 70, 0
4, 42120, Note_on_c, 0, 70, 32
4, 42250, Control_c, 0, 64, 0
4, 42332, Control_c, 0, 64, 127
4, 42720, Note_on_c, 0, 70, 0
4, 42720, Note_on_c, 0, 70, 32
4, 42960, Note_on_c, 0, 70, 0
4, 42960, Note_on_c, 0, 70, 21
4, 43200, Control_c, 0, 64, 0
4, 43274, Control_c, 0, 64, 127
4, 43320, Note_on_c, 0, 70, 0
4, 43440, Note_on_c, 0, 70, 32
4, 43920, Note_on_c, 0, 70, 0
4, 43920, Note_on_c, 0, 70, 33
4, 44160, Note_on_c, 0, 70, 0
4, 44160, Note_on_c, 0, 70, 21
4, 44189, Control_c, 0, 64, 0
4, 44251, Control_c, 0, 64, 127
4, 44520, Note_on_c, 0, 70, 0
4, 44640, Note_on_c, 0, 70, 32
4, 44880, Note_on_c, 0, 70, 0
4, 44880, Note_on_c, 0, 70, 21
4, 45120, Control_c, 0, 64, 0
4, 45166, Control_c, 0, 64, 127
4, 45240, Note_on_c, 0, 70, 0
4, 45360, Note_on_c, 0, 70, 32
4, 45840, Note_on_c, 0, 70, 0
4, 45840, Note_on_c, 0, 70, 31
4, 46080, Note_on_c, 0, 70, 0
4, 46080, Note_on_c, 0, 70, 21
4, 46371, Control_c, 0, 64, 0
4, 46429, Control_c, 0, 64, 127
4, 46440, Note_on_c, 0, 70, 0
4, 46560, Note_on_c, 0, 70, 34
4, 46800, Note_on_c, 0, 70, 0
4, 46800, Note_on_c, 0, 70, 31
4, 47040, Control_c, 0, 64, 0
4, 47280, Note_on_c, 0, 70, 0
4, 47280, Note_on_c, 0, 58, 28
4, 47280, Note_on_c, 0, 70, 34
4, 47520, Control_c, 0, 64, 127
4, 47760, Note_on_c, 0, 70, 0
4, 47760, Note_on_c, 0, 58, 0
4, 47760, Note_on_c, 0, 58, 26
4, 47760, Note_on_c, 0, 70, 26
4, 48000, Note_on_c, 0, 70, 0
4, 48000, Note_on_c, 0, 70, 21
4, 48360, Note_on_c, 0, 70, 0
4, 48360, Note_on_c, 0, 58, 0
4, 48480, Note_on_c, 0, 58, 30
4, 48480, Note_on_c, 0, 70, 30
4, 48720, Note_on_c, 0, 70, 0
4, 48720, Note_on_c, 0, 70, 21
4, 48833, Control_c, 0, 64, 0
4, 49080, Note_on_c, 0, 70, 0
4, 49080, Note_on_c, 0, 58, 0
4, 49200, Note_on_c, 0, 58, 33
4, 49200, Note_on_c, 0, 70, 33
4, 49440, Control_c, 0, 64, 127
4, 49680, Note_on_c, 0, 70, 0
4, 49680, Note_on_c, 0, 58, 0
4, 49680, Note_on_c, 0, 58, 28
4, 49680, Note_on_c, 0, 70, 28
4, 49920, Note_on_c, 0, 70, 0
4, 49920, Note_on_c, 0, 70, 21
4, 50280, Note_on_c, 0, 70, 0
4, 50280, Note_on_c, 0, 58, 0
4, 50400, Note_on_c, 0, 58, 32
4, 50400, Note_on_c, 0, 70, 32
4, 50640, Note_on_c, 0, 70, 0
4, 50640, Note_on_c, 0, 70, 21
4, 50771, Control_c, 0, 64, 0
4, 50880, Control_c, 0, 64, 127
4, 51000, Note_on_c, 0, 70, 0
4, 51000, Note_on_c, 0, 58, 0
4, 51120, Note_on_c, 0, 58, 21
4, 51120, Note_on_c, 0, 70, 26
4, 51600, Note_on_c, 0, 70, 0
4, 51600, Note_on_c, 0, 58, 0
4, 51600, Note_on_c, 0, 58, 20
4, 51600, Note_on_c, 0, 70, 20
4, 51840, Note_on_c, 0, 70, 0
4, 51840, Note_on_c, 0, 70, 16
4, 52200, Note_on_c, 0, 70, 0
4, 52200, Note_on_c, 0, 58, 0
4, 52320, Note_on_c, 0, 58, 21
4, 52320, Note_on_c, 0, 70, 26
4, 52560, Note_on_c, 0, 70, 0
4, 52560, Note_on_c, 0, 70, 12
4, 52920, Note_on_c, 0, 70, 0
4, 52920, Note_on_c, 0, 58, 0
4, 53040, Note_on_c, 0, 58, 21
4, 53040, Note_on_c, 0, 70, 26
4, 53280, Note_on_c, 0, 70, 0
4, 53280, Note_on_c, 0, 70, 15
4, 53640, Note_on_c, 0, 70, 0
4, 53640, Note_on_c, 0, 58, 0
4, 53760, Control_c, 0, 64, 0
4, 53760, Note_on_c, 0, 58, 25
4, 53760, Note_on_c, 0, 70, 25
4, 53840, Control_c, 0, 64, 127
4, 54000, Note_on_c, 0, 70, 0
4, 54000, Note_on_c, 0, 70, 16
4, 54360, Note_on_c, 0, 70, 0
4, 54360, Note_on_c, 0, 58, 0
4, 54480, Note_on_c, 0, 58, 21
4, 54480, Note_on_c, 0, 70, 21
4, 54720, Note_on_c, 0, 70, 0
4, 54720, Note_on_c, 0, 70, 16
4, 55029, Control_c, 0, 64, 0
4, 55080, Note_on_c, 0, 70, 0
4, 55080, Note_on_c, 0, 58, 0
4, 55200, Note_on_c, 0, 58, 27
4, 55200, Note_on_c, 0, 70, 27
4, 55269, Control_c, 0, 64, 127
4, 55440, Note_on_c, 0, 70, 0
4, 55440, Note_on_c, 0, 70, 16
4, 55800, Note_on_c, 0, 70, 0
4, 55800, Note_on_c, 0, 58, 0
4, 55920, Note_on_c, 0, 58, 24
4, 55920, Note_on_c, 0, 70, 28
4, 56400, Note_on_c, 0, 70, 0
4, 56400, Note_on_c, 0, 58, 0
4, 56400, Note_on_c, 0, 58, 24
4, 56400, Note_on_c, 0, 70, 28
4, 56640, Note_on_c, 0, 70, 0
4, 56640, Control_c, 0, 64, 0
4, 56640, Note_on_c, 0, 70, 16
4, 56696, Control_c, 0, 64, 127
4, 56880, Note_on_c, 0, 70, 0
4, 56880, Note_on_c, 0, 58, 0
4, 56880, Note_on_c, 0, 58, 20
4, 56880, Note_on_c, 0, 70, 25
4, 57360, Note_on_c, 0, 70, 0
4, 57360, Note_on_c, 0, 58, 0
4, 57360, Note_on_c, 0, 58, 24
4, 57360, Note_on_c, 0, 70, 28
4, 57600, Note_on_c, 0, 70, 0
4, 57600, Note_on_c, 0, 70, 16
4, 57960, Note_on_c, 0, 70, 0
4, 57960, Note_on_c, 0, 58, 0
4, 58080, Note_on_c, 0, 58, 31
4, 58080, Note_on_c, 0, 70, 31
4, 58320, Note_on_c, 0, 70, 0
4, 58320, Note_on_c, 0, 70, 19
4, 58369, Control_c, 0, 64, 0
4, 58560, Control_c, 0, 64, 127
4, 58680, Note_on_c, 0, 70, 0
4, 58680, Note_on_c, 0, 58, 0
4, 58800, Note_on_c, 0, 58, 30
4, 58800, Note_on_c, 0, 70, 33
4, 59280, Note_on_c, 0, 70, 0
4, 59280, Note_on_c, 0, 58, 0
4, 59280, Note_on_c, 0, 58, 30
4, 59280, Note_on_c, 0, 70, 30
4, 59520, Note_on_c, 0, 70, 0
4, 59520, Control_c, 0, 64, 0
4, 59520, Note_on_c, 0, 70, 21
4, 59760, Control_c, 0, 64, 127
4, 59880, Note_on_c, 0, 70, 0
4, 59880, Note_on_c, 0, 58, 0
4, 60000, Note_on_c, 0, 58, 36
4, 60000, Note_on_c, 0, 70, 36
4, 60240, Note_on_c, 0, 70, 0
4, 60240, Note_on_c, 0, 58, 0
4, 60240, Note_on_c, 0, 58, 21
4, 60240, Note_on_c, 0, 70, 21
4, 60483, Control_c, 0, 64, 0
4, 60537, Control_c, 0, 64, 127
4, 60600, Note_on_c, 0, 70, 0
4, 60600, Note_on_c, 0, 58, 0
4, 60720, Note_on_c, 0, 58, 36
4, 60720, Note_on_c, 0, 70, 36
4, 61200, Note_on_c, 0, 70, 0
4, 61200, Note_on_c, 0, 58, 0
4, 61200, Note_on_c, 0, 58, 33
4, 61200, Note_on_c, 0, 70, 33
4, 61440, Note_on_c, 0, 70, 0
4, 61440, Note_on_c, 0, 70, 22
4, 61800, Note_on_c, 0, 70, 0
4, 61800, Note_on_c, 0, 58, 0
4, 61920, Note_on_c, 0, 58, 45
4, 61920, Note_on_c, 0, 70, 45
4, 62160, Note_on_c, 0, 70, 0
4, 62160, Note_on_c, 0, 70, 37
4, 62640, Note_on_c, 0, 70, 0
4, 62640, Note_on_c, 0, 58, 0
4, 62640, Note_on_c, 0, 58, 34
4, 62640, Note_on_c, 0, 70, 34
4, 62880, Control_c, 0, 64, 0
4, 62944, Control_c, 0, 64, 127
4, 63120, Note_on_c, 0, 70, 0
4, 63120, Note_on_c, 0, 58, 0
4, 63120, Note_on_c, 0, 58, 30
4, 63120, Note_on_c, 0, 70, 32
4, 63600, Note_on_c, 0, 70, 0
4, 63600, Note_on_c, 0, 58, 0
4, 63600, Note_on_c, 0, 58, 26
4, 63600, Note_on_c, 0, 70, 26
4, 63840, Note_on_c, 0, 70, 0
4, 63840, Note_on_c, 0, 70, 22
4, 64200, Note_on_c, 0, 70, 0
4, 64200, Note_on_c, 0, 58, 0
4, 64320, Note_on_c, 0, 58, 27
4, 64320, Note_on_c, 0, 70, 27
4, 64560, Note_on_c, 0, 70, 0
4, 64560, Note_on_c, 0, 70, 22
4, 64729, Control_c, 0, 64, 0
4, 64920, Note_on_c, 0, 70, 0
4, 64920, Note_on_c, 0, 58, 0
4, 65040, Note_on_c, 0, 58, 29
4, 65040, Note_on_c, 0, 70, 31
4, 65520, Note_on_c, 0, 70, 0
4, 65520, Note_on_c, 0, 58, 0
4, 65520, Note_on_c, 0, 58, 26
4, 65520, Note_on_c, 0, 70, 26
4, 65760, Note_on_c, 0, 70, 0
4, 65760, Note_on_c, 0, 70, 22
4, 66120, Note_on_c, 0, 70, 0
4, 66120, Note_on_c, 0, 58, 0
4, 66240, Note_on_c, 0, 58, 26
4, 66240, Note_on_c, 0, 70, 26
4, 66478, Note_on_c, 0, 70, 0
4, 66480, Note_on_c, 0, 58, 0
4, 66480, Note_on_c, 0, 58, 25
4, 66960, Note_on_c, 0, 58, 0
4, 66960, Control_c, 0, 64, 127
4, 66960, Note_on_c, 0, 58, 32
4, 66960, Note_on_c, 0, 70, 38
4, 67200, Note_on_c, 0, 70, 0
4, 67200, Note_on_c, 0, 70, 37
4, 67560, Note_on_c, 0, 70, 0
4, 67560, Note_on_c, 0, 58, 0
4, 67680, Note_on_c, 0, 58, 32
4, 67680, Note_on_c, 0, 70, 38
4, 67920, Note_on_c, 0, 70, 0
4, 67920, Note_on_c, 0, 70, 26
4, 68280, Note_on_c, 0, 70, 0
4, 68280, Note_on_c, 0, 58, 0
4, 68400, Note_on_c, 0, 58, 34
4, 68400, Note_on_c, 0, 70, 34
4, 68640, Note_on_c, 0, 70, 0
4, 68640, Note_on_c, 0, 70, 28
4, 68649, Control_c, 0, 64, 0
4, 69000, Note_on_c, 0, 70, 0
4, 69000, Note_on_c, 0, 58, 0
4, 69120, Note_on_c, 0, 58, 32
4, 69120, Note_on_c, 0, 70, 38
4, 69360, Note_on_c, 0, 70, 0
4, 69360, Note_on_c, 0, 70, 28
4, 69360, Control_c, 0, 64, 127
4, 69720, Note_on_c, 0, 70, 0
4, 69720, Note_on_c, 0, 58, 0
4, 69840, Note_on_c, 0, 58, 31
4, 69840, Note_on_c, 0, 70, 31
4, 70080, Note_on_c, 0, 70, 0
4, 70080, Note_on_c, 0, 70, 24
4, 70320, Note_on_c, 0, 58, 39
4, 70440, Note_on_c, 0, 70, 0
4, 70440, Note_on_c, 0, 58, 0
4, 70568, Control_c, 0, 64, 0
4, 70645, Control_c, 0, 64, 127
4, 70800, Note_on_c, 0, 58, 0
4, 70800, Note_on_c, 0, 58, 44
4, 70800, Note_on_c, 0, 70, 44
4, 71040, Note_on_c, 0, 70, 0
4, 71040, Note_on_c, 0, 70, 38
4, 71400, Note_on_c, 0, 70, 0
4, 71400, Note_on_c, 0, 58, 0
4, 71520, Note_on_c, 0, 70, 42
4, 71525, Control_c, 0, 64, 0
4, 71605, Control_c, 0, 64, 127
4, 71760, Note_on_c, 0, 70, 0
4, 71760, Note_on_c, 0, 70, 33
4, 72120, Note_on_c, 0, 70, 0
4, 72240, Note_on_c, 0, 70, 46
4, 72480, Note_on_c, 0, 70, 0
4, 72480, Control_c, 0, 64, 0
4, 72480, Note_on_c, 0, 70, 42
4, 72551, Control_c, 0, 64, 127
4, 72840, Note_on_c, 0, 70, 0
4, 72960, Note_on_c, 0, 70, 45
4, 73200, Note_on_c, 0, 70, 0
4, 73200, Note_on_c, 0, 70, 39
4, 73560, Note_on_c, 0, 70, 0
4, 73680, Note_on_c, 0, 70, 43
4, 73920, Note_on_c, 0, 70, 0
4, 73920, Control_c, 0, 64, 0
4, 73920, Note_on_c, 0, 70, 37
4, 73976, Control_c, 0, 64, 127
4, 74280, Note_on_c, 0, 70, 0
4, 74400, Note_on_c, 0, 58, 33
4, 74400, Note_on_c, 0, 70, 33
4, 74880, Note_on_c, 0, 58, 0
4, 74880, Note_on_c, 0, 58, 38
4, 74888, Control_c, 0, 64, 0
4, 74944, Control_c, 0, 64, 127
4, 75120, Note_on_c, 0, 58, 0
4, 75120, Note_on_c, 0, 58, 24
4, 75360, Note_on_c, 0, 70, 0
4, 75480, Note_on_c, 0, 58, 0
4, 75600, Note_on_c, 0, 58, 31
4, 75741, Control_c, 0, 64, 0
4, 75840, Control_c, 0, 64, 127
4, 76560, Note_on_c, 0, 58, 32
4, 76800, Note_on_c, 0, 58, 0
4, 76800, Note_on_c, 0, 58, 0
4, 76800, Note_on_c, 0, 58, 21
4, 76810, Control_c, 0, 64, 0
4, 76926, Control_c, 0, 64, 127
4, 77280, Note_on_c, 0, 70, 32
4, 77400, Note_on_c, 0, 58, 0
4, 77519, Note_on_c, 0, 70, 0
4, 77520, Note_on_c, 0, 70, 21
4, 77760, Note_on_c, 0, 70, 0
4, 77767, Control_c, 0, 64, 0
4, 77838, Control_c, 0, 64, 127
4, 78000, Note_on_c, 0, 58, 33
4, 78000, Note_on_c, 0, 70, 33
4, 78240, Note_on_c, 0, 70, 0
4, 78240, Note_on_c, 0, 70, 21
4, 78720, Note_on_c, 0, 70, 0
4, 78720, Note_on_c, 0, 58, 0
4, 78720, Note_on_c, 0, 58, 32
4, 78720, Note_on_c, 0, 70, 32
4, 78727, Control_c, 0, 64, 0
4, 79200, Note_on_c, 0, 70, 0
4, 79200, Note_on_c, 0, 58, 0
4, 79200, Note_on_c, 0, 58, 38
4, 79200, Note_on_c, 0, 70, 38
4, 79221, Control_c, 0, 64, 127
4, 79440, Note_on_c, 0, 70, 0
4, 79440, Note_on_c, 0, 70, 30
4, 79703, Control_c, 0, 64, 0
4, 79800, Note_on_c, 0, 70, 0
4, 79800, Note_on_c, 0, 58, 0
4, 79920, Note_on_c, 0, 58, 37
4, 79920, Note_on_c, 0, 70, 37
4, 80400, Note_on_c, 0, 70, 0
4, 80400, Note_on_c, 0, 58, 0
4, 80400, Note_on_c, 0, 58, 37
4, 80400, Note_on_c, 0, 70, 37
4, 80640, Note_on_c, 0, 70, 0
4, 80640, Note_on_c, 0, 70, 21
4, 81000, Note_on_c, 0, 70, 0
4, 81000, Note_on_c, 0, 58, 0
4, 81120, Note_on_c, 0, 58, 37
4, 81120, Note_on_c, 0, 70, 37
4, 81126, Control_c, 0, 64, 127
4, 81360, Note_on_c, 0, 70, 0
4, 81360, Note_on_c, 0, 70, 21
4, 81480, Control_c, 0, 64, 0
4, 81720, Note_on_c, 0, 70, 0
4, 81720, Note_on_c, 0, 58, 0
4, 81840, Note_on_c, 0, 58, 30
4, 81840, Note_on_c, 0, 70, 30
4, 82320, Note_on_c, 0, 70, 0
4, 82320, Note_on_c, 0, 58, 0
4, 82320, Note_on_c, 0, 58, 30
4, 82320, Note_on_c, 0, 70, 30
4, 82560, Note_on_c, 0, 70, 0
4, 82560, Note_on_c, 0, 70, 21
4, 82920, Note_on_c, 0, 70, 0
4, 82920, Note_on_c, 0, 58, 0
4, 83040, Note_on_c, 0, 58, 31
4, 83096, Control_c, 0, 64, 127
4, 83280, Note_on_c, 0, 58, 0
4, 83280, Note_on_c, 0, 58, 21
4, 83527, Control_c, 0, 64, 0
4, 83591, Control_c, 0, 64, 127
4, 83640, Note_on_c, 0, 58, 0
4, 83760, Note_on_c, 0, 58, 31
4, 83760, Note_on_c, 0, 70, 31
4, 84000, Note_on_c, 0, 70, 0
4, 84000, Note_on_c, 0, 70, 21
4, 84480, Note_on_c, 0, 70, 0
4, 84480, Note_on_c, 0, 58, 0
4, 84720, Note_on_c, 0, 70, 30
4, 84741, Control_c, 0, 64, 0
4, 84798, Control_c, 0, 64, 127
4, 85200, Note_on_c, 0, 70, 0
4, 85200, Note_on_c, 0, 70, 36
4, 85440, Note_on_c, 0, 70, 0
4, 85440, Note_on_c, 0, 70, 21
4, 85800, Note_on_c, 0, 70, 0
4, 85920, Note_on_c, 0, 70, 34
4, 86160, Note_on_c, 0, 70, 0
4, 86160, Note_on_c, 0, 70, 21
4, 86520, Note_on_c, 0, 70, 0
4, 86605, Control_c, 0, 64, 0
4, 86640, Note_on_c, 0, 70, 32
4, 86689, Control_c, 0, 64, 127
4, 86880, Note_on_c, 0, 70, 0
4, 86880, Note_on_c, 0, 70, 21
4, 87240, Note_on_c, 0, 70, 0
4, 87360, Note_on_c, 0, 70, 34
4, 87600, Note_on_c, 0, 70, 0
4, 87600, Note_on_c, 0, 70, 21
4, 87960, Note_on_c, 0, 70, 0
4, 88080, Note_on_c, 0, 70, 32
4, 88320, Note_on_c, 0, 70, 0
4, 88320, Note_on_c, 0, 70, 20
4, 88680, Note_on_c, 0, 70, 0
4, 88800, Note_on_c, 0, 70, 32
4, 88828, Control_c, 0, 64, 0
4, 88856, Control_c, 0, 64, 127
4, 89040, Note_on_c, 0, 70, 0
4, 89040, Note_on_c, 0, 70, 20
4, 89400, Note_on_c, 0, 70, 0
4, 89520, Note_on_c, 0, 70, 32
4, 90000, Note_on_c, 0, 70, 0
4, 90000, Note_on_c, 0, 70, 32
4, 90240, Note_on_c, 0, 70, 0
4, 90240, Note_on_c, 0, 70, 20
4, 90600, Note_on_c, 0, 70, 0
4, 90720, Note_on_c, 0, 70, 31
4, 90726, Control_c, 0, 64, 0
4, 90755, Control_c, 0, 64, 127
4, 90960, Note_on_c, 0, 70, 0
4, 90960, Note_on_c, 0, 70, 20
4, 91320, Note_on_c, 0, 70, 0
4, 91440, Note_on_c, 0, 70, 30
4, 91920, Note_on_c, 0, 70, 0
4, 91920, Note_on_c, 0, 70, 30
4, 92160, Note_on_c, 0, 70, 0
4, 92160, Note_on_c, 0, 70, 19
4, 92520, Note_on_c, 0, 70, 0
4, 92640, Note_on_c, 0, 70, 33
4, 92647, Control_c, 0, 64, 0
4, 92696, Control_c, 0, 64, 127
4, 92880, Note_on_c, 0, 70, 0
4, 92880, Note_on_c, 0, 70, 21
4, 93240, Note_on_c, 0, 70, 0
4, 93360, Note_on_c, 0, 70, 30
4, 93840, Note_on_c, 0, 70, 0
4, 93840, Note_on_c, 0, 70, 30
4, 94080, Note_on_c, 0, 70, 0
4, 94080, Note_on_c, 0, 70, 19
4, 94440, Note_on_c, 0, 70, 0
4, 94560, Note_on_c, 0, 70, 32
4, 94570, Control_c, 0, 64, 0
4, 94609, Control_c, 0, 64, 127
4, 94800, Note_on_c, 0, 70, 0
4, 94800, Note_on_c, 0, 70, 21
4, 95160, Note_on_c, 0, 70, 0
4, 95280, Note_on_c, 0, 70, 28
4, 95760, Note_on_c, 0, 70, 0
4, 95760, Note_on_c, 0, 70, 28
4, 96000, Note_on_c, 0, 70, 0
4, 96000, Note_on_c, 0, 70, 18
4, 96360, Note_on_c, 0, 70, 0
4, 96480, Note_on_c, 0, 58, 16
4, 96480, Note_on_c, 0, 70, 25
4, 96720, Note_on_c, 0, 70, 0
4, 96720, Note_on_c, 0, 70, 16
4, 97080, Note_on_c, 0, 70, 0
4, 97080, Note_on_c, 0, 58, 0
4, 97200, Note_on_c, 0, 70, 25
4, 97680, Note_on_c, 0, 70, 0
4, 97680, Note_on_c, 0, 58, 15
4, 97680, Note_on_c, 0, 70, 22
4, 97920, Note_on_c, 0, 70, 0
4, 97920, Note_on_c, 0, 70, 13
4, 98280, Note_on_c, 0, 70, 0
4, 98280, Note_on_c, 0, 58, 0
4, 98400, Note_on_c, 0, 58, 14
4, 98400, Note_on_c, 0, 70, 20
4, 98640, Note_on_c, 0, 70, 0
4, 98640, Note_on_c, 0, 70, 13
4, 99120, Note_on_c, 0, 70, 0
4, 99120, Note_on_c, 0, 58, 0
4, 99289, Control_c, 0, 64, 0
4, 99289, End_track
5, 0, Start_track
5, 0, MIDI_port, 0
5, 0, Title_t, "Ravel: ""Le Gibet"" from ""Gaspard de la Nuit"""
5, 0, End_track
6, 0, Start_track
6, 0, MIDI_port, 0
6, 0, Title_t, "Copyright © 2004 by Bernd Krüger"
6, 0, End_track
7, 0, Start_track
7, 0, MIDI_port, 0
7, 0, Title_t, "email: bernd.krueger@piano-midi.de"
7, 0, End_track
8, 0, Start_track
8, 0, MIDI_port, 0
8, 0, Title_t, "http://www.piano-midi.de"
8, 0, End_track
9, 0, Start_track
9, 0, MIDI_port, 0
9, 0, Title_t, "Edition: 22.1.2004"
9, 0, End_track
0, 0, End_of_file
