0, 0, Header, 1, 10, 480
1, 0, Start_track
1, 0, Title_t, "Sonate D960, 2. Satz"
1, 0, Copyright_t, "Copyright © 2002 by Bernd Krueger"
1, 0, Text_t, "Franz Schubert"
1, 0, Text_t, "Andante sostenuto"
1, 0, Text_t, "Fertiggestellt am 9.6.2002\012"
1, 0, Text_t, "Update am 13.7.2002\012"
1, 0, Text_t, "Normierung: 23.12.2002\012"
1, 0, Text_t, "Update am 24.3.2014\012"
1, 0, Text_t, "Dauer: 8:36 Minuten\012"
1, 0, SMPTE_offset, 96, 0, 3, 0, 0
1, 0, Time_signature, 3, 2, 24, 8
1, 0, Key_signature, 4, "major"
1, 0, Tempo, 1232792
1, 720, Tempo, 1290045
1, 1440, Tempo, 1232792
1, 2160, Tempo, 1278500
1, 2880, Tempo, 1232792
1, 3600, Tempo, 1278500
1, 4320, Tempo, 1232792
1, 5040, Tempo, 1278500
1, 5760, Tempo, 1232792
1, 6480, Tempo, 1278500
1, 6720, Tempo, 1223990
1, 7080, Tempo, 1313198
1, 7200, Tempo, 1232792
1, 7920, Tempo, 1278500
1, 8400, Tempo, 1353485
1, 8640, Tempo, 1232792
1, 9400, Tempo, 1266892
1, 9960, Tempo, 1394700
1, 10080, Tempo, 1232792
1, 10800, Tempo, 1278500
1, 11520, Tempo, 1232792
1, 12000, Tempo, 1200720
1, 12240, Tempo, 1266892
1, 12960, Tempo, 1232792
1, 13440, Tempo, 1189296
1, 13680, Tempo, 1278500
1, 14160, Tempo, 1314924
1, 14400, Tempo, 1232792
1, 15120, Tempo, 1278500
1, 15600, Tempo, 1394700
1, 15840, Tempo, 1232792
1, 16560, Tempo, 1266892
1, 17320, Tempo, 1244039
1, 18000, Tempo, 1290045
1, 18480, Tempo, 1327140
1, 18720, Tempo, 1232792
1, 19440, Tempo, 1278500
1, 20160, Tempo, 1232792
1, 20880, Tempo, 1278500
1, 21600, Tempo, 1232792
1, 22320, Tempo, 1278500
1, 23040, Tempo, 1232792
1, 23280, Tempo, 1278500
1, 24480, Tempo, 1232792
1, 25200, Tempo, 1290045
1, 25920, Tempo, 1232792
1, 26640, Tempo, 1278500
1, 27360, Tempo, 1232792
1, 28080, Tempo, 1278500
1, 28320, Tempo, 1236094
1, 28560, Tempo, 1273615
1, 28680, Tempo, 1385361
1, 28800, Tempo, 1232792
1, 29520, Tempo, 1278500
1, 30240, Tempo, 1232792
1, 30960, Tempo, 1278500
1, 31200, Tempo, 1302366
1, 31680, Tempo, 1232792
1, 32400, Tempo, 1278500
1, 32880, Tempo, 1353485
1, 33120, Tempo, 1232792
1, 33880, Tempo, 1266892
1, 34440, Tempo, 1394700
1, 34560, Tempo, 1232792
1, 35280, Tempo, 1278500
1, 36000, Tempo, 1232792
1, 36720, Tempo, 1266892
1, 37440, Tempo, 1232792
1, 38160, Tempo, 1278500
1, 38640, Tempo, 1314924
1, 38880, Tempo, 1232792
1, 39600, Tempo, 1266892
1, 40360, Tempo, 1244039
1, 41040, Tempo, 1290045
1, 41760, Tempo, 1232792
1, 42480, Tempo, 1278500
1, 43200, Tempo, 1189296
1, 43560, Tempo, 1223990
1, 43920, Tempo, 1278500
1, 44640, Tempo, 1232792
1, 45360, Tempo, 1146132
1, 45600, Tempo, 1236094
1, 45840, Tempo, 1273615
1, 46080, Tempo, 1232792
1, 46320, Tempo, 1278500
1, 47040, Tempo, 1200720
1, 47280, Tempo, 1273615
1, 47520, Tempo, 1232792
1, 47760, Tempo, 1278500
1, 48480, Tempo, 1200720
1, 48720, Tempo, 1260769
1, 48960, Tempo, 1232792
1, 49200, Tempo, 1278500
1, 50400, Tempo, 1232792
1, 50640, Tempo, 1278500
1, 50880, Tempo, 1200720
1, 51120, Tempo, 1236094
1, 51360, Tempo, 1273615
1, 51840, Tempo, 1232792
1, 52080, Tempo, 1278500
1, 53280, Tempo, 1232792
1, 53520, Tempo, 1278500
1, 54720, Tempo, 1232792
1, 54960, Tempo, 1278500
1, 56160, Tempo, 1232792
1, 56400, Tempo, 1278500
1, 56640, Tempo, 1236094
1, 57120, Tempo, 1273615
1, 57600, Tempo, 1232792
1, 57840, Tempo, 1278500
1, 60000, Tempo, 1449275
1, 60240, Tempo, 1385361
1, 60480, Key_signature, 3, "major"
1, 60480, Tempo, 1171875
1, 60960, Tempo, 1107420
1, 61440, Tempo, 1138520
1, 62400, Tempo, 1107420
1, 63120, Tempo, 1250000
1, 63360, Tempo, 1107420
1, 63840, Tempo, 1077780
1, 64320, Tempo, 1128032
1, 65280, Tempo, 1097293
1, 65600, Tempo, 1097293
1, 65760, Tempo, 1107420
1, 65880, Tempo, 1117527
1, 66000, Tempo, 1128032
1, 66120, Tempo, 1138520
1, 66240, Tempo, 1171875
1, 66720, Tempo, 1107420
1, 67200, Tempo, 1138520
1, 68160, Tempo, 1107420
1, 68880, Tempo, 1237113
1, 69120, Tempo, 1107420
1, 69600, Tempo, 1077780
1, 70080, Tempo, 1171875
1, 70360, Tempo, 1244555
1, 70560, Tempo, 1128032
1, 71040, Tempo, 1097293
1, 71360, Tempo, 1097293
1, 71520, Tempo, 1107420
1, 71640, Tempo, 1117527
1, 71760, Tempo, 1128032
1, 71880, Tempo, 1138520
1, 72000, Tempo, 1107420
1, 72120, Tempo, 1097293
1, 72240, Tempo, 1087350
1, 72360, Tempo, 1077780
1, 72440, Tempo, 1068186
1, 72560, Tempo, 1077780
1, 72680, Tempo, 1087350
1, 72760, Tempo, 1097293
1, 72880, Tempo, 1107420
1, 72960, Tempo, 1117527
1, 73400, Tempo, 1117527
1, 73600, Tempo, 1107420
1, 73800, Tempo, 1097293
1, 74000, Tempo, 1087350
1, 74200, Tempo, 1077780
1, 74400, Tempo, 1068186
1, 74560, Tempo, 1077780
1, 74720, Tempo, 1087350
1, 74880, Tempo, 1097293
1, 74960, Tempo, 1107420
1, 75080, Tempo, 1097293
1, 75200, Tempo, 1087350
1, 75320, Tempo, 1077780
1, 75400, Tempo, 1068186
1, 75520, Tempo, 1077780
1, 75640, Tempo, 1087350
1, 75760, Tempo, 1097293
1, 75840, Tempo, 1107420
1, 76800, Tempo, 1097293
1, 77120, Tempo, 1097293
1, 77280, Tempo, 1107420
1, 77400, Tempo, 1117527
1, 77520, Tempo, 1128032
1, 77640, Tempo, 1138520
1, 77760, Tempo, 1107420
1, 77880, Tempo, 1097293
1, 78000, Tempo, 1087350
1, 78120, Tempo, 1077780
1, 78200, Tempo, 1068186
1, 78320, Tempo, 1077780
1, 78440, Tempo, 1087350
1, 78520, Tempo, 1097293
1, 78640, Tempo, 1107420
1, 78720, Tempo, 1117527
1, 79160, Tempo, 1117527
1, 79360, Tempo, 1107420
1, 79560, Tempo, 1097293
1, 79760, Tempo, 1087350
1, 79960, Tempo, 1077780
1, 80160, Tempo, 1068186
1, 80320, Tempo, 1077780
1, 80480, Tempo, 1087350
1, 80640, Tempo, 1097293
1, 80720, Tempo, 1107420
1, 80840, Tempo, 1097293
1, 80960, Tempo, 1087350
1, 81080, Tempo, 1077780
1, 81160, Tempo, 1068186
1, 81600, Tempo, 1077780
1, 81840, Tempo, 1107420
1, 82560, Tempo, 1097293
1, 82880, Tempo, 1097293
1, 83040, Tempo, 1107420
1, 83160, Tempo, 1117527
1, 83280, Tempo, 1128032
1, 83400, Tempo, 1138520
1, 83520, Tempo, 1128032
1, 84000, Tempo, 1097293
1, 84480, Tempo, 1138520
1, 85440, Tempo, 1107420
1, 85920, Tempo, 1058761
1, 86160, Tempo, 1153846
1, 86400, Tempo, 1107420
1, 86880, Tempo, 1077780
1, 87360, Tempo, 1171875
1, 87640, Tempo, 1244555
1, 87840, Tempo, 1128032
1, 88320, Tempo, 1087350
1, 88440, Tempo, 1097293
1, 88560, Tempo, 1107420
1, 88680, Tempo, 1117527
1, 88760, Tempo, 1128032
1, 88800, Tempo, 1097293
1, 88840, Tempo, 1117527
1, 88880, Tempo, 1138520
1, 88920, Tempo, 1160766
1, 88960, Tempo, 1183432
1, 89000, Tempo, 1207001
1, 89040, Tempo, 1231527
1, 89080, Tempo, 1257334
1, 89120, Tempo, 1283972
1, 89160, Tempo, 1326260
1, 89280, Tempo, 1128032
1, 89760, Tempo, 1097293
1, 90240, Tempo, 1138520
1, 91080, Tempo, 1165049
1, 91200, Tempo, 1149646
1, 91440, Tempo, 1107420
1, 91680, Tempo, 1087350
1, 91920, Tempo, 1107420
1, 92160, Tempo, 1107420
1, 92640, Tempo, 1077780
1, 92880, Tempo, 1097293
1, 93120, Tempo, 1128032
1, 93360, Tempo, 1171875
1, 93600, Tempo, 1128032
1, 94080, Tempo, 1097293
1, 94400, Tempo, 1097293
1, 94560, Tempo, 1107420
1, 94680, Tempo, 1117527
1, 94800, Tempo, 1128032
1, 94920, Tempo, 1138520
1, 95040, Tempo, 1107420
1, 95520, Tempo, 1077780
1, 95760, Tempo, 1117527
1, 96000, Tempo, 1207001
1, 96240, Tempo, 1283972
1, 96480, Tempo, 1171875
1, 96960, Tempo, 1107420
1, 97440, Tempo, 1138520
1, 98400, Tempo, 1107420
1, 99120, Tempo, 1149646
1, 99360, Tempo, 1107420
1, 99840, Tempo, 1077780
1, 100320, Tempo, 1128032
1, 100800, Tempo, 1087350
1, 101280, Tempo, 1097293
1, 101600, Tempo, 1097293
1, 101760, Tempo, 1107420
1, 101880, Tempo, 1117527
1, 102000, Tempo, 1128032
1, 102120, Tempo, 1138520
1, 102240, Tempo, 1171875
1, 102720, Tempo, 1107420
1, 103200, Tempo, 1138520
1, 104160, Tempo, 1107420
1, 104920, Tempo, 1276596
1, 105120, Tempo, 1107420
1, 105600, Tempo, 1031637
1, 105840, Tempo, 1077780
1, 105960, Tempo, 1128032
1, 106080, Tempo, 1171875
1, 106360, Tempo, 1244555
1, 106560, Tempo, 1128032
1, 107040, Tempo, 1097293
1, 107360, Tempo, 1097293
1, 107520, Tempo, 1107420
1, 107640, Tempo, 1117527
1, 107760, Tempo, 1128032
1, 107880, Tempo, 1138520
1, 108000, Tempo, 1107420
1, 108120, Tempo, 1097293
1, 108240, Tempo, 1087350
1, 108360, Tempo, 1077780
1, 108440, Tempo, 1068186
1, 108560, Tempo, 1077780
1, 108680, Tempo, 1087350
1, 108760, Tempo, 1097293
1, 108880, Tempo, 1107420
1, 108960, Tempo, 1117527
1, 109400, Tempo, 1117527
1, 109600, Tempo, 1107420
1, 109800, Tempo, 1097293
1, 110000, Tempo, 1087350
1, 110200, Tempo, 1077780
1, 110400, Tempo, 1068186
1, 110560, Tempo, 1077780
1, 110720, Tempo, 1087350
1, 110880, Tempo, 1097293
1, 110960, Tempo, 1107420
1, 111080, Tempo, 1097293
1, 111200, Tempo, 1087350
1, 111320, Tempo, 1077780
1, 111400, Tempo, 1068186
1, 111520, Tempo, 1077780
1, 111640, Tempo, 1087350
1, 111760, Tempo, 1097293
1, 111840, Tempo, 1107420
1, 112800, Tempo, 1138520
1, 113120, Tempo, 1097293
1, 113240, Tempo, 1097293
1, 113280, Tempo, 1107420
1, 113320, Tempo, 1117527
1, 113360, Tempo, 1138520
1, 113400, Tempo, 1149646
1, 113440, Tempo, 1160766
1, 113480, Tempo, 1183432
1, 113520, Tempo, 1194981
1, 113560, Tempo, 1207001
1, 113600, Tempo, 1231527
1, 113640, Tempo, 1244555
1, 113680, Tempo, 1257334
1, 113720, Tempo, 1283972
1, 113760, Tempo, 1107420
1, 113880, Tempo, 1097293
1, 114000, Tempo, 1087350
1, 114120, Tempo, 1077780
1, 114200, Tempo, 1068186
1, 114320, Tempo, 1077780
1, 114440, Tempo, 1087350
1, 114520, Tempo, 1097293
1, 114640, Tempo, 1107420
1, 114720, Tempo, 1117527
1, 115160, Tempo, 1117527
1, 115360, Tempo, 1107420
1, 115560, Tempo, 1097293
1, 115760, Tempo, 1087350
1, 115960, Tempo, 1077780
1, 116160, Tempo, 1068186
1, 116320, Tempo, 1077780
1, 116480, Tempo, 1087350
1, 116640, Tempo, 1097293
1, 116720, Tempo, 1107420
1, 116840, Tempo, 1097293
1, 116960, Tempo, 1087350
1, 117080, Tempo, 1077780
1, 117160, Tempo, 1068186
1, 117280, Tempo, 1077780
1, 117400, Tempo, 1087350
1, 117520, Tempo, 1097293
1, 117600, Tempo, 1107420
1, 118560, Tempo, 1097293
1, 118880, Tempo, 1097293
1, 119040, Tempo, 1107420
1, 119160, Tempo, 1117527
1, 119280, Tempo, 1128032
1, 119400, Tempo, 1138520
1, 119520, Tempo, 1107420
1, 120000, Tempo, 1097293
1, 120320, Tempo, 1097293
1, 120480, Tempo, 1107420
1, 120600, Tempo, 1117527
1, 120720, Tempo, 1128032
1, 120840, Tempo, 1138520
1, 120960, Tempo, 1107420
1, 121440, Tempo, 1097293
1, 121760, Tempo, 1097293
1, 121920, Tempo, 1107420
1, 122040, Tempo, 1117527
1, 122160, Tempo, 1128032
1, 122280, Tempo, 1138520
1, 122400, Tempo, 1107420
1, 122880, Tempo, 1097293
1, 123200, Tempo, 1097293
1, 123360, Tempo, 1107420
1, 123480, Tempo, 1117527
1, 123600, Tempo, 1128032
1, 123720, Tempo, 1138520
1, 123840, Tempo, 1107420
1, 124320, Tempo, 1097293
1, 124640, Tempo, 1097293
1, 124800, Tempo, 1107420
1, 124920, Tempo, 1117527
1, 125040, Tempo, 1128032
1, 125160, Tempo, 1138520
1, 125280, Tempo, 1171875
1, 125760, Tempo, 1149646
1, 125840, Tempo, 1160766
1, 125880, Tempo, 1171875
1, 125920, Tempo, 1183432
1, 126000, Tempo, 1194981
1, 126040, Tempo, 1207001
1, 126080, Tempo, 1219264
1, 126160, Tempo, 1231527
1, 126200, Tempo, 1244555
1, 126240, Tempo, 1244555
1, 126280, Tempo, 1257334
1, 126320, Tempo, 1283972
1, 126360, Tempo, 1297859
1, 126400, Tempo, 1326260
1, 126440, Tempo, 1355932
1, 126480, Tempo, 1371742
1, 126520, Tempo, 1403509
1, 126560, Tempo, 1436782
1, 126600, Tempo, 1454193
1, 126640, Tempo, 1489943
1, 126680, Tempo, 1527884
1, 126720, Tempo, 1297859
1, 128160, Key_signature, 4, "major"
1, 128160, Tempo, 1286449
1, 128400, Tempo, 1212366
1, 128880, Tempo, 1290045
1, 129120, Tempo, 1273615
1, 129200, Tempo, 1286449
1, 129240, Tempo, 1299827
1, 129280, Tempo, 1313198
1, 129320, Tempo, 1327140
1, 129360, Tempo, 1341082
1, 129400, Tempo, 1355626
1, 129440, Tempo, 1370489
1, 129480, Tempo, 1385361
1, 129520, Tempo, 1400887
1, 129600, Tempo, 1286449
1, 129840, Tempo, 1223990
1, 130320, Tempo, 1278500
1, 130560, Tempo, 1273615
1, 130640, Tempo, 1286449
1, 130720, Tempo, 1299827
1, 130760, Tempo, 1313198
1, 130840, Tempo, 1327140
1, 130880, Tempo, 1341082
1, 130960, Tempo, 1355626
1, 131000, Tempo, 1370489
1, 131040, Tempo, 1313198
1, 131280, Tempo, 1223990
1, 131760, Tempo, 1278500
1, 132000, Tempo, 1260769
1, 132080, Tempo, 1273615
1, 132120, Tempo, 1286449
1, 132160, Tempo, 1299827
1, 132200, Tempo, 1313198
1, 132280, Tempo, 1327140
1, 132320, Tempo, 1341082
1, 132360, Tempo, 1355626
1, 132400, Tempo, 1370489
1, 132440, Tempo, 1313198
1, 132480, Tempo, 1299827
1, 132720, Tempo, 1223990
1, 133200, Tempo, 1278500
1, 133440, Tempo, 1286449
1, 133520, Tempo, 1299827
1, 133600, Tempo, 1313198
1, 133640, Tempo, 1327140
1, 133720, Tempo, 1341082
1, 133760, Tempo, 1355626
1, 133840, Tempo, 1370489
1, 133880, Tempo, 1385361
1, 133920, Tempo, 1313198
1, 134200, Tempo, 1223990
1, 134640, Tempo, 1278500
1, 134880, Tempo, 1299827
1, 134960, Tempo, 1313198
1, 135040, Tempo, 1327140
1, 135080, Tempo, 1341082
1, 135160, Tempo, 1355626
1, 135200, Tempo, 1370489
1, 135280, Tempo, 1385361
1, 135320, Tempo, 1400887
1, 135360, Tempo, 1313198
1, 135640, Tempo, 1223990
1, 136080, Tempo, 1278500
1, 136320, Tempo, 1313198
1, 136560, Tempo, 1416431
1, 136800, Tempo, 1327140
1, 137040, Tempo, 1223990
1, 137280, Tempo, 1212366
1, 137520, Tempo, 1341082
1, 137560, Tempo, 1370489
1, 137760, Tempo, 1260769
1, 137800, Tempo, 1273615
1, 137840, Tempo, 1286449
1, 137880, Tempo, 1299827
1, 137920, Tempo, 1313198
1, 137960, Tempo, 1327140
1, 138000, Tempo, 1341082
1, 138040, Tempo, 1355626
1, 138080, Tempo, 1370489
1, 138120, Tempo, 1385361
1, 138160, Tempo, 1400887
1, 138200, Tempo, 1432665
1, 138240, Tempo, 1327140
1, 138480, Tempo, 1223990
1, 138960, Tempo, 1278500
1, 139200, Tempo, 1286449
1, 139280, Tempo, 1299827
1, 139320, Tempo, 1313198
1, 139400, Tempo, 1327140
1, 139440, Tempo, 1341082
1, 139480, Tempo, 1355626
1, 139560, Tempo, 1370489
1, 139600, Tempo, 1385361
1, 139640, Tempo, 1400887
1, 139680, Tempo, 1200720
1, 139920, Tempo, 1223990
1, 140400, Tempo, 1266892
1, 140640, Tempo, 1273615
1, 140760, Tempo, 1286449
1, 140880, Tempo, 1299827
1, 141000, Tempo, 1313198
1, 141080, Tempo, 1327140
1, 141120, Tempo, 1189296
1, 141360, Tempo, 1223990
1, 141840, Tempo, 1278500
1, 142320, Tempo, 1314924
1, 142560, Tempo, 1232792
1, 143280, Tempo, 1278500
1, 143760, Tempo, 1363636
1, 143800, Tempo, 1428571
1, 143840, Tempo, 1500000
1, 143880, Tempo, 1600000
1, 144000, Tempo, 1232792
1, 144720, Tempo, 1266892
1, 144960, Tempo, 1299827
1, 145480, Tempo, 1244039
1, 146160, Tempo, 1290045
1, 146400, Tempo, 1341082
1, 146880, Tempo, 1232792
1, 147600, Tempo, 1278500
1, 147840, Tempo, 1327140
1, 147960, Tempo, 1341082
1, 148040, Tempo, 1355626
1, 148120, Tempo, 1370489
1, 148200, Tempo, 1385361
1, 148280, Tempo, 1400887
1, 148320, Tempo, 1232792
1, 149040, Tempo, 1278500
1, 149280, Tempo, 1260769
1, 149360, Tempo, 1273615
1, 149400, Tempo, 1286449
1, 149480, Tempo, 1299827
1, 149520, Tempo, 1313198
1, 149600, Tempo, 1327140
1, 149640, Tempo, 1341082
1, 149680, Tempo, 1355626
1, 149720, Tempo, 1400887
1, 149760, Tempo, 1232792
1, 150480, Tempo, 1278500
1, 150720, Tempo, 1273615
1, 150800, Tempo, 1286449
1, 150880, Tempo, 1299827
1, 150920, Tempo, 1313198
1, 151000, Tempo, 1327140
1, 151040, Tempo, 1341082
1, 151120, Tempo, 1355626
1, 151160, Tempo, 1370489
1, 151200, Tempo, 1232792
1, 151440, Tempo, 1278500
1, 152160, Tempo, 1286449
1, 152320, Tempo, 1299827
1, 152480, Tempo, 1313198
1, 152600, Tempo, 1327140
1, 152640, Tempo, 1232792
1, 153360, Tempo, 1313198
1, 153600, Tempo, 1299827
1, 153720, Tempo, 1313198
1, 153840, Tempo, 1327140
1, 153960, Tempo, 1341082
1, 154040, Tempo, 1355626
1, 154080, Tempo, 1232792
1, 154800, Tempo, 1299827
1, 155040, Tempo, 1286449
1, 155120, Tempo, 1299827
1, 155200, Tempo, 1313198
1, 155280, Tempo, 1327140
1, 155360, Tempo, 1341082
1, 155440, Tempo, 1355626
1, 155480, Tempo, 1370489
1, 155520, Tempo, 1232792
1, 156240, Tempo, 1278500
1, 156480, Tempo, 1286449
1, 156600, Tempo, 1299827
1, 156680, Tempo, 1313198
1, 156760, Tempo, 1327140
1, 156840, Tempo, 1341082
1, 156920, Tempo, 1355626
1, 156960, Tempo, 1232792
1, 157680, Tempo, 1278500
1, 157920, Tempo, 1286449
1, 158040, Tempo, 1299827
1, 158160, Tempo, 1313198
1, 158280, Tempo, 1327140
1, 158360, Tempo, 1341082
1, 158400, Tempo, 1299827
1, 158680, Tempo, 1212366
1, 159120, Tempo, 1290045
1, 159360, Tempo, 1299827
1, 159480, Tempo, 1313198
1, 159600, Tempo, 1327140
1, 159720, Tempo, 1341082
1, 159800, Tempo, 1355626
1, 159840, Tempo, 1232792
1, 160560, Tempo, 1278500
1, 160800, Tempo, 1286449
1, 160880, Tempo, 1299827
1, 160960, Tempo, 1313198
1, 161040, Tempo, 1327140
1, 161120, Tempo, 1341082
1, 161200, Tempo, 1355626
1, 161240, Tempo, 1370489
1, 161280, Tempo, 1232792
1, 162000, Tempo, 1278500
1, 162280, Tempo, 1273615
1, 162400, Tempo, 1286449
1, 162480, Tempo, 1299827
1, 162600, Tempo, 1313198
1, 162680, Tempo, 1327140
1, 162720, Tempo, 1232792
1, 163440, Tempo, 1278500
1, 164160, Tempo, 1232792
1, 164880, Tempo, 1266892
1, 165120, Tempo, 1260769
1, 165200, Tempo, 1273615
1, 165280, Tempo, 1286449
1, 165360, Tempo, 1299827
1, 165440, Tempo, 1313198
1, 165520, Tempo, 1327140
1, 165560, Tempo, 1341082
1, 165600, Tempo, 1232792
1, 166320, Tempo, 1278500
1, 166800, Tempo, 1348315
1, 167040, Tempo, 1232792
1, 167760, Tempo, 1266892
1, 168000, Tempo, 1286449
1, 168160, Tempo, 1299827
1, 168320, Tempo, 1313198
1, 168440, Tempo, 1327140
1, 168520, Tempo, 1244039
1, 169200, Tempo, 1290045
1, 169920, Tempo, 1232792
1, 170640, Tempo, 1278500
1, 170880, Tempo, 1299827
1, 171040, Tempo, 1313198
1, 171200, Tempo, 1327140
1, 171320, Tempo, 1341082
1, 171360, Tempo, 1232792
1, 172080, Tempo, 1278500
1, 172320, Tempo, 1299827
1, 172480, Tempo, 1313198
1, 172640, Tempo, 1327140
1, 172760, Tempo, 1341082
1, 172800, Tempo, 1232792
1, 173520, Tempo, 1146132
1, 173760, Tempo, 1299827
1, 174000, Tempo, 1355626
1, 174240, Tempo, 1232792
1, 174480, Tempo, 1278500
1, 175200, Tempo, 1299827
1, 175280, Tempo, 1313198
1, 175320, Tempo, 1327140
1, 175360, Tempo, 1341082
1, 175400, Tempo, 1355626
1, 175480, Tempo, 1370489
1, 175520, Tempo, 1385361
1, 175560, Tempo, 1400887
1, 175600, Tempo, 1416431
1, 175640, Tempo, 1432665
1, 175680, Key_signature, 7, "major"
1, 175680, Tempo, 1273615
1, 175920, Tempo, 1223990
1, 176400, Tempo, 1278500
1, 176640, Tempo, 1327140
1, 176760, Tempo, 1341082
1, 176840, Tempo, 1355626
1, 176920, Tempo, 1370489
1, 177000, Tempo, 1385361
1, 177080, Tempo, 1400887
1, 177120, Tempo, 1232792
1, 177840, Tempo, 1278500
1, 178080, Tempo, 1327140
1, 178200, Tempo, 1341082
1, 178280, Tempo, 1355626
1, 178360, Tempo, 1370489
1, 178440, Tempo, 1385361
1, 178520, Tempo, 1400887
1, 178560, Tempo, 1232792
1, 179280, Tempo, 1146132
1, 179520, Tempo, 1341082
1, 179760, Tempo, 1385361
1, 180000, Tempo, 1232792
1, 180240, Tempo, 1278500
1, 180960, Tempo, 1313198
1, 181040, Tempo, 1327140
1, 181120, Tempo, 1341082
1, 181200, Tempo, 1355626
1, 181280, Tempo, 1370489
1, 181360, Tempo, 1385361
1, 181400, Tempo, 1400887
1, 181440, Tempo, 1232792
1, 181680, Tempo, 1278500
1, 182360, Tempo, 1286449
1, 182440, Tempo, 1299827
1, 182520, Tempo, 1313198
1, 182600, Tempo, 1327140
1, 182680, Tempo, 1341082
1, 182760, Tempo, 1355626
1, 182840, Tempo, 1370489
1, 182880, Tempo, 1232792
1, 183120, Tempo, 1278500
1, 183840, Tempo, 1273615
1, 183920, Tempo, 1286449
1, 184000, Tempo, 1299827
1, 184040, Tempo, 1313198
1, 184120, Tempo, 1327140
1, 184160, Tempo, 1341082
1, 184240, Tempo, 1355626
1, 184280, Tempo, 1370489
1, 184320, Tempo, 1232792
1, 184560, Tempo, 1278500
1, 185280, Tempo, 1299827
1, 185400, Tempo, 1313198
1, 185520, Tempo, 1327140
1, 185640, Tempo, 1341082
1, 185720, Tempo, 1355626
1, 185760, Tempo, 1232792
1, 186000, Tempo, 1278500
1, 186720, Tempo, 1286449
1, 186840, Tempo, 1299827
1, 186920, Tempo, 1313198
1, 187000, Tempo, 1327140
1, 187080, Tempo, 1341082
1, 187160, Tempo, 1355626
1, 187200, Tempo, 1232792
1, 187440, Tempo, 1278500
1, 188160, Tempo, 1313198
1, 188280, Tempo, 1327140
1, 188360, Tempo, 1341082
1, 188440, Tempo, 1355626
1, 188520, Tempo, 1370489
1, 188600, Tempo, 1385361
1, 188640, Tempo, 1232792
1, 188880, Tempo, 1278500
1, 189600, Tempo, 1299827
1, 189720, Tempo, 1313198
1, 189840, Tempo, 1327140
1, 189960, Tempo, 1341082
1, 190040, Tempo, 1355626
1, 190080, Tempo, 1232792
1, 190320, Tempo, 1278500
1, 191040, Tempo, 1313198
1, 191160, Tempo, 1327140
1, 191280, Tempo, 1341082
1, 191400, Tempo, 1355626
1, 191480, Tempo, 1370489
1, 191520, Tempo, 1232792
1, 191760, Tempo, 1278500
1, 192000, Tempo, 1327140
1, 192480, Tempo, 1341082
1, 192560, Tempo, 1355626
1, 192640, Tempo, 1370489
1, 192680, Tempo, 1385361
1, 192760, Tempo, 1400887
1, 192840, Tempo, 1416431
1, 192880, Tempo, 1432665
1, 192920, Tempo, 1341082
1, 192960, Tempo, 1232792
1, 193200, Tempo, 1327140
1, 193920, Tempo, 1327140
1, 194000, Tempo, 1341082
1, 194040, Tempo, 1355626
1, 194120, Tempo, 1370489
1, 194160, Tempo, 1385361
1, 194200, Tempo, 1400887
1, 194280, Tempo, 1416431
1, 194320, Tempo, 1432665
1, 194360, Tempo, 1449275
1, 194400, Tempo, 1286449
1, 194640, Tempo, 1370489
1, 195320, Tempo, 1370489
1, 195360, Tempo, 1385361
1, 195400, Tempo, 1400887
1, 195440, Tempo, 1416431
1, 195480, Tempo, 1449275
1, 195520, Tempo, 1465917
1, 195560, Tempo, 1500750
1, 195600, Tempo, 1518987
1, 195640, Tempo, 1556420
1, 195680, Tempo, 1576044
1, 195720, Tempo, 1616379
1, 195760, Tempo, 1637555
1, 195800, Tempo, 1681143
1, 195840, Tempo, 1576044
1, 196800, Tempo, 1658833
1, 197040, Tempo, 1827040
1, 199895, Tempo, 1739130
1, 200160, Tempo, 1173479
1, 200160, End_track
2, 0, Start_track
2, 0, Title_t, "Piano right"
2, 0, Program_c, 0, 1
2, 0, Control_c, 0, 7, 100
2, 0, Control_c, 0, 10, 64
2, 0, Control_c, 0, 91, 127
2, 0, Note_on_c, 0, 64, 33
2, 0, Note_on_c, 0, 68, 39
2, 0, Control_c, 0, 91, 127
2, 0, Text_t, "bdca426d104a26ac9dcb070447587523"
2, 720, Note_on_c, 0, 73, 26
2, 960, Note_on_c, 0, 73, 0
2, 960, Note_on_c, 0, 68, 0
2, 960, Note_on_c, 0, 64, 0
2, 960, Note_on_c, 0, 64, 29
2, 960, Note_on_c, 0, 68, 34
2, 1320, Note_on_c, 0, 68, 0
2, 1320, Note_on_c, 0, 64, 0
2, 1320, Note_on_c, 0, 66, 34
2, 1320, Note_on_c, 0, 63, 28
2, 1440, Note_on_c, 0, 63, 0
2, 1440, Note_on_c, 0, 66, 0
2, 1440, Note_on_c, 0, 63, 34
2, 1440, Note_on_c, 0, 66, 41
2, 2160, Note_on_c, 0, 73, 26
2, 2400, Note_on_c, 0, 73, 0
2, 2400, Note_on_c, 0, 66, 0
2, 2400, Note_on_c, 0, 63, 0
2, 2400, Note_on_c, 0, 66, 37
2, 2400, Note_on_c, 0, 63, 31
2, 2880, Note_on_c, 0, 63, 0
2, 2880, Note_on_c, 0, 66, 0
2, 2880, Note_on_c, 0, 69, 41
2, 2880, Note_on_c, 0, 66, 34
2, 3600, Note_on_c, 0, 73, 28
2, 3840, Note_on_c, 0, 73, 0
2, 3840, Note_on_c, 0, 66, 0
2, 3840, Note_on_c, 0, 69, 0
2, 3840, Note_on_c, 0, 66, 28
2, 3840, Note_on_c, 0, 69, 33
2, 4080, Note_on_c, 0, 69, 0
2, 4080, Note_on_c, 0, 66, 0
2, 4080, Note_on_c, 0, 68, 30
2, 4080, Note_on_c, 0, 64, 25
2, 4200, Note_on_c, 0, 64, 0
2, 4200, Note_on_c, 0, 68, 0
2, 4200, Note_on_c, 0, 63, 23
2, 4200, Note_on_c, 0, 66, 28
2, 4320, Note_on_c, 0, 66, 0
2, 4320, Note_on_c, 0, 63, 0
2, 4320, Note_on_c, 0, 68, 39
2, 4320, Note_on_c, 0, 64, 33
2, 5040, Note_on_c, 0, 73, 28
2, 5280, Note_on_c, 0, 73, 0
2, 5280, Note_on_c, 0, 64, 0
2, 5280, Note_on_c, 0, 68, 0
2, 5280, Note_on_c, 0, 64, 29
2, 5280, Note_on_c, 0, 68, 34
2, 5760, Note_on_c, 0, 68, 0
2, 5760, Note_on_c, 0, 64, 0
2, 5760, Note_on_c, 0, 65, 34
2, 5760, Note_on_c, 0, 71, 41
2, 6480, Note_on_c, 0, 73, 34
2, 6720, Note_on_c, 0, 73, 0
2, 6720, Note_on_c, 0, 71, 0
2, 6720, Note_on_c, 0, 65, 0
2, 6720, Note_on_c, 0, 65, 28
2, 6720, Note_on_c, 0, 71, 33
2, 6840, Note_on_c, 0, 65, 0
2, 6840, Note_on_c, 0, 68, 28
2, 6960, Note_on_c, 0, 68, 0
2, 6960, Note_on_c, 0, 71, 0
2, 6960, Note_on_c, 0, 69, 30
2, 6960, Note_on_c, 0, 66, 25
2, 7080, Note_on_c, 0, 66, 0
2, 7080, Note_on_c, 0, 69, 0
2, 7080, Note_on_c, 0, 68, 28
2, 7080, Note_on_c, 0, 65, 23
2, 7200, Note_on_c, 0, 65, 0
2, 7200, Note_on_c, 0, 68, 0
2, 7200, Note_on_c, 0, 66, 34
2, 7200, Note_on_c, 0, 69, 41
2, 7920, Note_on_c, 0, 69, 0
2, 7920, Note_on_c, 0, 66, 0
2, 7920, Note_on_c, 0, 73, 34
2, 7920, Note_on_c, 0, 66, 23
2, 7920, Note_on_c, 0, 69, 28
2, 8148, Note_on_c, 0, 69, 0
2, 8148, Note_on_c, 0, 66, 0
2, 8148, Note_on_c, 0, 73, 0
2, 8160, Note_on_c, 0, 66, 34
2, 8160, Note_on_c, 0, 69, 40
2, 8388, Note_on_c, 0, 69, 0
2, 8388, Note_on_c, 0, 66, 0
2, 8400, Note_on_c, 0, 69, 41
2, 8400, Note_on_c, 0, 66, 34
2, 8628, Note_on_c, 0, 66, 0
2, 8628, Note_on_c, 0, 69, 0
2, 8640, Note_on_c, 0, 73, 49
2, 8640, Note_on_c, 0, 69, 41
2, 9360, Note_on_c, 0, 73, 38
2, 9600, Note_on_c, 0, 73, 0
2, 9600, Note_on_c, 0, 69, 0
2, 9600, Note_on_c, 0, 73, 0
2, 9600, Note_on_c, 0, 69, 33
2, 9600, Note_on_c, 0, 73, 39
2, 9960, Note_on_c, 0, 73, 0
2, 9960, Note_on_c, 0, 69, 0
2, 9960, Note_on_c, 0, 69, 28
2, 9960, Note_on_c, 0, 66, 23
2, 10080, Note_on_c, 0, 66, 0
2, 10080, Note_on_c, 0, 69, 0
2, 10080, Note_on_c, 0, 64, 30
2, 10080, Note_on_c, 0, 68, 37
2, 10800, Note_on_c, 0, 73, 28
2, 11040, Note_on_c, 0, 73, 0
2, 11280, Note_on_c, 0, 68, 0
2, 11280, Note_on_c, 0, 64, 0
2, 11280, Note_on_c, 0, 64, 34
2, 11280, Note_on_c, 0, 68, 41
2, 11520, Note_on_c, 0, 68, 0
2, 11520, Note_on_c, 0, 64, 0
2, 11520, Note_on_c, 0, 64, 42
2, 11520, Note_on_c, 0, 69, 42
2, 11520, Note_on_c, 0, 73, 50
2, 11880, Note_on_c, 0, 73, 0
2, 11880, Note_on_c, 0, 69, 0
2, 11880, Note_on_c, 0, 64, 0
2, 11880, Note_on_c, 0, 72, 44
2, 11880, Note_on_c, 0, 63, 37
2, 11880, Note_on_c, 0, 68, 37
2, 12000, Note_on_c, 0, 68, 0
2, 12000, Note_on_c, 0, 63, 0
2, 12000, Note_on_c, 0, 72, 0
2, 12000, Note_on_c, 0, 63, 42
2, 12000, Note_on_c, 0, 68, 42
2, 12000, Note_on_c, 0, 72, 49
2, 12240, Note_on_c, 0, 80, 43
2, 12480, Note_on_c, 0, 80, 0
2, 12720, Note_on_c, 0, 63, 0
2, 12720, Note_on_c, 0, 68, 0
2, 12720, Note_on_c, 0, 72, 0
2, 12720, Note_on_c, 0, 72, 55
2, 12720, Note_on_c, 0, 68, 45
2, 12960, Note_on_c, 0, 68, 0
2, 12960, Note_on_c, 0, 72, 0
2, 12960, Note_on_c, 0, 67, 51
2, 12960, Note_on_c, 0, 73, 51
2, 12960, Note_on_c, 0, 76, 60
2, 13320, Note_on_c, 0, 76, 0
2, 13320, Note_on_c, 0, 73, 0
2, 13320, Note_on_c, 0, 67, 0
2, 13320, Note_on_c, 0, 72, 45
2, 13320, Note_on_c, 0, 68, 45
2, 13320, Note_on_c, 0, 75, 53
2, 13440, Note_on_c, 0, 75, 0
2, 13440, Note_on_c, 0, 68, 0
2, 13440, Note_on_c, 0, 72, 0
2, 13440, Note_on_c, 0, 68, 50
2, 13440, Note_on_c, 0, 75, 60
2, 13440, Note_on_c, 0, 72, 50
2, 13680, Note_on_c, 0, 80, 53
2, 13920, Note_on_c, 0, 80, 0
2, 14160, Note_on_c, 0, 68, 0
2, 14160, Note_on_c, 0, 75, 0
2, 14160, Note_on_c, 0, 72, 0
2, 14160, Note_on_c, 0, 68, 52
2, 14160, Note_on_c, 0, 72, 52
2, 14160, Note_on_c, 0, 75, 63
2, 14400, Note_on_c, 0, 75, 0
2, 14400, Note_on_c, 0, 72, 0
2, 14400, Note_on_c, 0, 68, 0
2, 14400, Note_on_c, 0, 80, 69
2, 14400, Note_on_c, 0, 68, 58
2, 14400, Note_on_c, 0, 76, 58
2, 14760, Note_on_c, 0, 76, 0
2, 14760, Note_on_c, 0, 68, 0
2, 14760, Note_on_c, 0, 80, 0
2, 14760, Note_on_c, 0, 69, 52
2, 14760, Note_on_c, 0, 75, 52
2, 14760, Note_on_c, 0, 78, 61
2, 14880, Note_on_c, 0, 78, 0
2, 14880, Note_on_c, 0, 75, 0
2, 14880, Note_on_c, 0, 69, 0
2, 14880, Note_on_c, 0, 78, 69
2, 14880, Note_on_c, 0, 75, 58
2, 14880, Note_on_c, 0, 69, 58
2, 15120, Note_on_c, 0, 80, 61
2, 15360, Note_on_c, 0, 80, 0
2, 15600, Note_on_c, 0, 78, 0
2, 15600, Note_on_c, 0, 75, 0
2, 15600, Note_on_c, 0, 69, 0
2, 15600, Note_on_c, 0, 69, 60
2, 15600, Note_on_c, 0, 78, 73
2, 15600, Note_on_c, 0, 75, 60
2, 15840, Note_on_c, 0, 75, 0
2, 15840, Note_on_c, 0, 78, 0
2, 15840, Note_on_c, 0, 69, 0
2, 15840, Note_on_c, 0, 73, 68
2, 15840, Note_on_c, 0, 76, 68
2, 15840, Note_on_c, 0, 81, 80
2, 16200, Note_on_c, 0, 81, 0
2, 16200, Note_on_c, 0, 76, 0
2, 16200, Note_on_c, 0, 73, 0
2, 16200, Note_on_c, 0, 80, 68
2, 16200, Note_on_c, 0, 75, 58
2, 16200, Note_on_c, 0, 72, 58
2, 16320, Note_on_c, 0, 72, 0
2, 16320, Note_on_c, 0, 75, 0
2, 16320, Note_on_c, 0, 80, 0
2, 16320, Note_on_c, 0, 72, 65
2, 16320, Note_on_c, 0, 75, 65
2, 16320, Note_on_c, 0, 80, 77
2, 18720, Note_on_c, 0, 80, 0
2, 18720, Note_on_c, 0, 75, 0
2, 18720, Note_on_c, 0, 72, 0
2, 18720, Note_on_c, 0, 76, 34
2, 18720, Note_on_c, 0, 80, 41
2, 18720, Note_on_c, 0, 71, 34
2, 18720, Note_on_c, 0, 68, 34
2, 19440, Note_on_c, 0, 88, 35
2, 19680, Note_on_c, 0, 88, 0
2, 19920, Note_on_c, 0, 71, 0
2, 19920, Note_on_c, 0, 76, 0
2, 19920, Note_on_c, 0, 80, 0
2, 19920, Note_on_c, 0, 68, 0
2, 19920, Note_on_c, 0, 76, 37
2, 19920, Note_on_c, 0, 71, 30
2, 19920, Note_on_c, 0, 64, 30
2, 20160, Note_on_c, 0, 64, 0
2, 20160, Note_on_c, 0, 71, 0
2, 20160, Note_on_c, 0, 76, 0
2, 20160, Note_on_c, 0, 64, 34
2, 20160, Note_on_c, 0, 69, 34
2, 20160, Note_on_c, 0, 75, 41
2, 20520, Note_on_c, 0, 75, 0
2, 20520, Note_on_c, 0, 73, 41
2, 20640, Note_on_c, 0, 73, 0
2, 20640, Note_on_c, 0, 69, 0
2, 20640, Note_on_c, 0, 64, 0
2, 20640, Note_on_c, 0, 69, 34
2, 20640, Note_on_c, 0, 64, 34
2, 20640, Note_on_c, 0, 73, 41
2, 20880, Note_on_c, 0, 85, 34
2, 21120, Note_on_c, 0, 85, 0
2, 21360, Note_on_c, 0, 69, 0
2, 21360, Note_on_c, 0, 64, 0
2, 21360, Note_on_c, 0, 73, 0
2, 21360, Note_on_c, 0, 73, 37
2, 21360, Note_on_c, 0, 69, 30
2, 21360, Note_on_c, 0, 64, 30
2, 21600, Note_on_c, 0, 64, 0
2, 21600, Note_on_c, 0, 69, 0
2, 21600, Note_on_c, 0, 73, 0
2, 21600, Note_on_c, 0, 64, 34
2, 21600, Note_on_c, 0, 66, 34
2, 21600, Note_on_c, 0, 73, 41
2, 21960, Note_on_c, 0, 73, 0
2, 21960, Note_on_c, 0, 64, 0
2, 21960, Note_on_c, 0, 71, 41
2, 21960, Note_on_c, 0, 63, 38
2, 22080, Note_on_c, 0, 63, 0
2, 22080, Note_on_c, 0, 71, 0
2, 22080, Note_on_c, 0, 66, 0
2, 22080, Note_on_c, 0, 63, 34
2, 22080, Note_on_c, 0, 66, 34
2, 22080, Note_on_c, 0, 71, 41
2, 22320, Note_on_c, 0, 83, 30
2, 22560, Note_on_c, 0, 83, 0
2, 22800, Note_on_c, 0, 63, 0
2, 22800, Note_on_c, 0, 66, 0
2, 22800, Note_on_c, 0, 71, 0
2, 22800, Note_on_c, 0, 69, 34
2, 22800, Note_on_c, 0, 64, 28
2, 22800, Note_on_c, 0, 61, 28
2, 23040, Note_on_c, 0, 61, 0
2, 23040, Note_on_c, 0, 64, 0
2, 23040, Note_on_c, 0, 69, 0
2, 23040, Note_on_c, 0, 59, 28
2, 23040, Note_on_c, 0, 64, 28
2, 23040, Note_on_c, 0, 68, 34
2, 23520, Note_on_c, 0, 68, 0
2, 23520, Note_on_c, 0, 64, 0
2, 23520, Note_on_c, 0, 59, 0
2, 23520, Note_on_c, 0, 59, 25
2, 23520, Note_on_c, 0, 56, 25
2, 23520, Note_on_c, 0, 64, 30
2, 23760, Note_on_c, 0, 76, 27
2, 24000, Note_on_c, 0, 76, 0
2, 24480, Note_on_c, 0, 59, 0
2, 24480, Note_on_c, 0, 56, 0
2, 24480, Note_on_c, 0, 64, 0
2, 24480, Note_on_c, 0, 68, 39
2, 24480, Note_on_c, 0, 64, 33
2, 25200, Note_on_c, 0, 71, 27
2, 25440, Note_on_c, 0, 71, 0
2, 25440, Note_on_c, 0, 64, 0
2, 25440, Note_on_c, 0, 68, 0
2, 25440, Note_on_c, 0, 64, 29
2, 25440, Note_on_c, 0, 68, 34
2, 25800, Note_on_c, 0, 68, 0
2, 25800, Note_on_c, 0, 64, 0
2, 25800, Note_on_c, 0, 63, 28
2, 25800, Note_on_c, 0, 66, 34
2, 25920, Note_on_c, 0, 66, 0
2, 25920, Note_on_c, 0, 63, 0
2, 25920, Note_on_c, 0, 66, 41
2, 25920, Note_on_c, 0, 63, 34
2, 26640, Note_on_c, 0, 71, 27
2, 26880, Note_on_c, 0, 71, 0
2, 26880, Note_on_c, 0, 63, 0
2, 26880, Note_on_c, 0, 66, 0
2, 26880, Note_on_c, 0, 63, 31
2, 26880, Note_on_c, 0, 66, 37
2, 27360, Note_on_c, 0, 66, 0
2, 27360, Note_on_c, 0, 63, 0
2, 27360, Note_on_c, 0, 61, 34
2, 27360, Note_on_c, 0, 69, 41
2, 28080, Note_on_c, 0, 71, 27
2, 28320, Note_on_c, 0, 71, 0
2, 28320, Note_on_c, 0, 69, 0
2, 28320, Note_on_c, 0, 61, 0
2, 28320, Note_on_c, 0, 63, 28
2, 28320, Note_on_c, 0, 69, 33
2, 28440, Note_on_c, 0, 63, 0
2, 28440, Note_on_c, 0, 66, 24
2, 28560, Note_on_c, 0, 66, 0
2, 28560, Note_on_c, 0, 69, 0
2, 28560, Note_on_c, 0, 68, 30
2, 28560, Note_on_c, 0, 64, 25
2, 28680, Note_on_c, 0, 64, 0
2, 28680, Note_on_c, 0, 68, 0
2, 28680, Note_on_c, 0, 63, 23
2, 28680, Note_on_c, 0, 66, 28
2, 28800, Note_on_c, 0, 66, 0
2, 28800, Note_on_c, 0, 63, 0
2, 28800, Note_on_c, 0, 68, 39
2, 28800, Note_on_c, 0, 64, 33
2, 29520, Note_on_c, 0, 71, 26
2, 29760, Note_on_c, 0, 71, 0
2, 29760, Note_on_c, 0, 64, 0
2, 29760, Note_on_c, 0, 68, 0
2, 29760, Note_on_c, 0, 64, 32
2, 29760, Note_on_c, 0, 68, 38
2, 30240, Note_on_c, 0, 68, 0
2, 30240, Note_on_c, 0, 64, 0
2, 30240, Note_on_c, 0, 62, 42
2, 30240, Note_on_c, 0, 71, 50
2, 30240, Note_on_c, 0, 68, 42
2, 30960, Note_on_c, 0, 76, 42
2, 31200, Note_on_c, 0, 76, 0
2, 31200, Note_on_c, 0, 62, 0
2, 31200, Note_on_c, 0, 71, 0
2, 31200, Note_on_c, 0, 68, 0
2, 31200, Note_on_c, 0, 62, 33
2, 31200, Note_on_c, 0, 68, 33
2, 31200, Note_on_c, 0, 71, 39
2, 31560, Note_on_c, 0, 71, 0
2, 31560, Note_on_c, 0, 68, 0
2, 31560, Note_on_c, 0, 62, 0
2, 31560, Note_on_c, 0, 61, 28
2, 31560, Note_on_c, 0, 69, 35
2, 31680, Note_on_c, 0, 69, 0
2, 31680, Note_on_c, 0, 61, 0
2, 31680, Note_on_c, 0, 69, 50
2, 31680, Note_on_c, 0, 61, 42
2, 32400, Note_on_c, 0, 61, 0
2, 32400, Note_on_c, 0, 69, 0
2, 32400, Note_on_c, 0, 61, 28
2, 32400, Note_on_c, 0, 69, 35
2, 32400, Note_on_c, 0, 76, 42
2, 32640, Note_on_c, 0, 76, 0
2, 32640, Note_on_c, 0, 69, 0
2, 32640, Note_on_c, 0, 61, 0
2, 32640, Note_on_c, 0, 69, 49
2, 32640, Note_on_c, 0, 61, 41
2, 32880, Note_on_c, 0, 61, 0
2, 32880, Note_on_c, 0, 69, 0
2, 32880, Note_on_c, 0, 61, 41
2, 32880, Note_on_c, 0, 69, 50
2, 33120, Note_on_c, 0, 69, 0
2, 33120, Note_on_c, 0, 61, 0
2, 33120, Note_on_c, 0, 73, 59
2, 33120, Note_on_c, 0, 69, 50
2, 33120, Note_on_c, 0, 63, 50
2, 33840, Note_on_c, 0, 76, 43
2, 34080, Note_on_c, 0, 76, 0
2, 34080, Note_on_c, 0, 73, 0
2, 34080, Note_on_c, 0, 69, 0
2, 34080, Note_on_c, 0, 63, 0
2, 34080, Note_on_c, 0, 63, 36
2, 34080, Note_on_c, 0, 69, 36
2, 34080, Note_on_c, 0, 73, 44
2, 34440, Note_on_c, 0, 73, 0
2, 34440, Note_on_c, 0, 69, 0
2, 34440, Note_on_c, 0, 63, 0
2, 34440, Note_on_c, 0, 68, 28
2, 34440, Note_on_c, 0, 64, 28
2, 34440, Note_on_c, 0, 71, 34
2, 34554, Note_on_c, 0, 71, 0
2, 34554, Note_on_c, 0, 64, 0
2, 34554, Note_on_c, 0, 68, 0
2, 34560, Note_on_c, 0, 68, 41
2, 34560, Note_on_c, 0, 71, 49
2, 34560, Note_on_c, 0, 64, 41
2, 35280, Note_on_c, 0, 76, 34
2, 35520, Note_on_c, 0, 76, 0
2, 35760, Note_on_c, 0, 68, 0
2, 35760, Note_on_c, 0, 71, 0
2, 35760, Note_on_c, 0, 64, 0
2, 35760, Note_on_c, 0, 68, 42
2, 35760, Note_on_c, 0, 64, 42
2, 35760, Note_on_c, 0, 71, 51
2, 36000, Note_on_c, 0, 71, 0
2, 36000, Note_on_c, 0, 64, 0
2, 36000, Note_on_c, 0, 68, 0
2, 36000, Note_on_c, 0, 76, 61
2, 36000, Note_on_c, 0, 68, 52
2, 36000, Note_on_c, 0, 71, 52
2, 36360, Note_on_c, 0, 71, 0
2, 36360, Note_on_c, 0, 68, 0
2, 36360, Note_on_c, 0, 76, 0
2, 36360, Note_on_c, 0, 66, 46
2, 36360, Note_on_c, 0, 71, 46
2, 36360, Note_on_c, 0, 75, 54
2, 36480, Note_on_c, 0, 75, 0
2, 36480, Note_on_c, 0, 71, 0
2, 36480, Note_on_c, 0, 66, 0
2, 36480, Note_on_c, 0, 75, 61
2, 36480, Note_on_c, 0, 71, 51
2, 36480, Note_on_c, 0, 66, 51
2, 36720, Note_on_c, 0, 83, 53
2, 36960, Note_on_c, 0, 83, 0
2, 37200, Note_on_c, 0, 75, 0
2, 37200, Note_on_c, 0, 71, 0
2, 37200, Note_on_c, 0, 66, 0
2, 37200, Note_on_c, 0, 66, 54
2, 37200, Note_on_c, 0, 75, 66
2, 37200, Note_on_c, 0, 71, 54
2, 37440, Note_on_c, 0, 71, 0
2, 37440, Note_on_c, 0, 75, 0
2, 37440, Note_on_c, 0, 66, 0
2, 37440, Note_on_c, 0, 71, 60
2, 37440, Note_on_c, 0, 76, 60
2, 37440, Note_on_c, 0, 80, 71
2, 37800, Note_on_c, 0, 80, 0
2, 37800, Note_on_c, 0, 76, 0
2, 37800, Note_on_c, 0, 78, 63
2, 37800, Note_on_c, 0, 75, 54
2, 37914, Note_on_c, 0, 75, 0
2, 37914, Note_on_c, 0, 78, 0
2, 37920, Note_on_c, 0, 71, 0
2, 37920, Note_on_c, 0, 75, 60
2, 37920, Note_on_c, 0, 71, 60
2, 37920, Note_on_c, 0, 78, 71
2, 38160, Note_on_c, 0, 83, 62
2, 38400, Note_on_c, 0, 83, 0
2, 38640, Note_on_c, 0, 75, 0
2, 38640, Note_on_c, 0, 71, 0
2, 38640, Note_on_c, 0, 78, 0
2, 38640, Note_on_c, 0, 80, 74
2, 38640, Note_on_c, 0, 71, 61
2, 38640, Note_on_c, 0, 76, 61
2, 38880, Note_on_c, 0, 76, 0
2, 38880, Note_on_c, 0, 71, 0
2, 38880, Note_on_c, 0, 80, 0
2, 38880, Note_on_c, 0, 76, 68
2, 38880, Note_on_c, 0, 80, 68
2, 38880, Note_on_c, 0, 85, 80
2, 39240, Note_on_c, 0, 85, 0
2, 39240, Note_on_c, 0, 80, 0
2, 39240, Note_on_c, 0, 76, 0
2, 39240, Note_on_c, 0, 83, 70
2, 39240, Note_on_c, 0, 78, 60
2, 39240, Note_on_c, 0, 75, 60
2, 39354, Note_on_c, 0, 75, 0
2, 39354, Note_on_c, 0, 78, 0
2, 39354, Note_on_c, 0, 83, 0
2, 39360, Note_on_c, 0, 75, 67
2, 39360, Note_on_c, 0, 78, 67
2, 39360, Note_on_c, 0, 83, 79
2, 39600, Note_on_c, 0, 71, 59
2, 39840, Note_on_c, 0, 71, 0
2, 41040, Note_on_c, 0, 71, 37
2, 41280, Note_on_c, 0, 71, 0
2, 41520, Note_on_c, 0, 83, 0
2, 41520, Note_on_c, 0, 81, 41
2, 41760, Note_on_c, 0, 81, 0
2, 41760, Note_on_c, 0, 78, 0
2, 41760, Note_on_c, 0, 75, 0
2, 41760, Note_on_c, 0, 68, 34
2, 41760, Note_on_c, 0, 80, 41
2, 41760, Note_on_c, 0, 76, 34
2, 42480, Note_on_c, 0, 73, 32
2, 42720, Note_on_c, 0, 73, 0
2, 42960, Note_on_c, 0, 68, 0
2, 42960, Note_on_c, 0, 80, 0
2, 42960, Note_on_c, 0, 76, 0
2, 42960, Note_on_c, 0, 64, 30
2, 42960, Note_on_c, 0, 68, 30
2, 42960, Note_on_c, 0, 76, 37
2, 43200, Note_on_c, 0, 76, 0
2, 43200, Note_on_c, 0, 68, 0
2, 43200, Note_on_c, 0, 64, 0
2, 43200, Note_on_c, 0, 75, 41
2, 43200, Note_on_c, 0, 66, 34
2, 43200, Note_on_c, 0, 69, 34
2, 43560, Note_on_c, 0, 75, 0
2, 43560, Note_on_c, 0, 73, 41
2, 43680, Note_on_c, 0, 73, 0
2, 43680, Note_on_c, 0, 69, 0
2, 43680, Note_on_c, 0, 66, 0
2, 43680, Note_on_c, 0, 66, 34
2, 43680, Note_on_c, 0, 73, 41
2, 43680, Note_on_c, 0, 69, 34
2, 43920, Note_on_c, 0, 81, 30
2, 44160, Note_on_c, 0, 81, 0
2, 44400, Note_on_c, 0, 66, 0
2, 44400, Note_on_c, 0, 73, 0
2, 44400, Note_on_c, 0, 69, 0
2, 44400, Note_on_c, 0, 63, 30
2, 44400, Note_on_c, 0, 69, 30
2, 44400, Note_on_c, 0, 73, 37
2, 44640, Note_on_c, 0, 73, 0
2, 44640, Note_on_c, 0, 69, 0
2, 44640, Note_on_c, 0, 63, 0
2, 44640, Note_on_c, 0, 73, 41
2, 44640, Note_on_c, 0, 64, 34
2, 44640, Note_on_c, 0, 68, 34
2, 45120, Note_on_c, 0, 73, 0
2, 45120, Note_on_c, 0, 71, 41
2, 45360, Note_on_c, 0, 80, 32
2, 45600, Note_on_c, 0, 80, 0
2, 45600, Note_on_c, 0, 64, 0
2, 45600, Note_on_c, 0, 60, 27
2, 45840, Note_on_c, 0, 71, 0
2, 45840, Note_on_c, 0, 68, 0
2, 45840, Note_on_c, 0, 66, 28
2, 45840, Note_on_c, 0, 69, 34
2, 46080, Note_on_c, 0, 69, 0
2, 46080, Note_on_c, 0, 66, 0
2, 46080, Note_on_c, 0, 60, 0
2, 46080, Note_on_c, 0, 61, 28
2, 46080, Note_on_c, 0, 64, 28
2, 46080, Note_on_c, 0, 68, 34
2, 46560, Note_on_c, 0, 68, 0
2, 46560, Note_on_c, 0, 64, 0
2, 46560, Note_on_c, 0, 61, 0
2, 46560, Note_on_c, 0, 64, 30
2, 46560, Note_on_c, 0, 56, 25
2, 46560, Note_on_c, 0, 61, 25
2, 46800, Note_on_c, 0, 73, 27
2, 47040, Note_on_c, 0, 73, 0
2, 47280, Note_on_c, 0, 64, 0
2, 47280, Note_on_c, 0, 56, 0
2, 47280, Note_on_c, 0, 61, 0
2, 47280, Note_on_c, 0, 56, 25
2, 47280, Note_on_c, 0, 64, 30
2, 47280, Note_on_c, 0, 61, 25
2, 47520, Note_on_c, 0, 61, 0
2, 47520, Note_on_c, 0, 64, 0
2, 47520, Note_on_c, 0, 56, 0
2, 47520, Note_on_c, 0, 61, 28
2, 47520, Note_on_c, 0, 55, 28
2, 47520, Note_on_c, 0, 64, 34
2, 47880, Note_on_c, 0, 64, 0
2, 47880, Note_on_c, 0, 63, 34
2, 48000, Note_on_c, 0, 63, 0
2, 48000, Note_on_c, 0, 55, 0
2, 48000, Note_on_c, 0, 61, 0
2, 48000, Note_on_c, 0, 61, 25
2, 48000, Note_on_c, 0, 63, 30
2, 48000, Note_on_c, 0, 55, 25
2, 48000, Note_on_c, 0, 69, 29
2, 48240, Note_on_c, 0, 69, 0
2, 48240, Note_on_c, 0, 81, 27
2, 48480, Note_on_c, 0, 81, 0
2, 48720, Note_on_c, 0, 55, 0
2, 48720, Note_on_c, 0, 63, 0
2, 48720, Note_on_c, 0, 61, 0
2, 48720, Note_on_c, 0, 63, 33
2, 48720, Note_on_c, 0, 61, 28
2, 48720, Note_on_c, 0, 55, 28
2, 48960, Note_on_c, 0, 55, 0
2, 48960, Note_on_c, 0, 61, 0
2, 48960, Note_on_c, 0, 63, 0
2, 48960, Note_on_c, 0, 54, 31
2, 48960, Note_on_c, 0, 61, 31
2, 48960, Note_on_c, 0, 64, 37
2, 49320, Note_on_c, 0, 64, 0
2, 49320, Note_on_c, 0, 63, 34
2, 49440, Note_on_c, 0, 63, 0
2, 49440, Note_on_c, 0, 61, 0
2, 49440, Note_on_c, 0, 54, 0
2, 49440, Note_on_c, 0, 54, 25
2, 49440, Note_on_c, 0, 63, 30
2, 49440, Note_on_c, 0, 61, 25
2, 49440, Note_on_c, 0, 69, 29
2, 49680, Note_on_c, 0, 69, 0
2, 49680, Note_on_c, 0, 81, 27
2, 49920, Note_on_c, 0, 81, 0
2, 50160, Note_on_c, 0, 61, 0
2, 50160, Note_on_c, 0, 63, 0
2, 50160, Note_on_c, 0, 54, 0
2, 50160, Note_on_c, 0, 63, 30
2, 50160, Note_on_c, 0, 61, 25
2, 50160, Note_on_c, 0, 54, 25
2, 50400, Note_on_c, 0, 54, 0
2, 50400, Note_on_c, 0, 61, 0
2, 50400, Note_on_c, 0, 63, 0
2, 50400, Note_on_c, 0, 54, 28
2, 50400, Note_on_c, 0, 60, 28
2, 50400, Note_on_c, 0, 63, 34
2, 50880, Note_on_c, 0, 68, 29
2, 51120, Note_on_c, 0, 68, 0
2, 51120, Note_on_c, 0, 54, 0
2, 51120, Note_on_c, 0, 60, 0
2, 51120, Note_on_c, 0, 63, 0
2, 51120, Note_on_c, 0, 64, 29
2, 51120, Note_on_c, 0, 80, 29
2, 51240, Note_on_c, 0, 64, 0
2, 51240, Note_on_c, 0, 66, 29
2, 51360, Note_on_c, 0, 66, 0
2, 51360, Note_on_c, 0, 80, 0
2, 51360, Note_on_c, 0, 68, 29
2, 51600, Note_on_c, 0, 68, 0
2, 51600, Note_on_c, 0, 63, 30
2, 51600, Note_on_c, 0, 60, 25
2, 51600, Note_on_c, 0, 57, 25
2, 51840, Note_on_c, 0, 57, 0
2, 51840, Note_on_c, 0, 60, 0
2, 51840, Note_on_c, 0, 63, 0
2, 51840, Note_on_c, 0, 56, 28
2, 51840, Note_on_c, 0, 61, 28
2, 51840, Note_on_c, 0, 64, 34
2, 52560, Note_on_c, 0, 73, 28
2, 52800, Note_on_c, 0, 73, 0
2, 53040, Note_on_c, 0, 56, 0
2, 53040, Note_on_c, 0, 61, 0
2, 53040, Note_on_c, 0, 64, 0
2, 53040, Note_on_c, 0, 56, 25
2, 53040, Note_on_c, 0, 61, 25
2, 53040, Note_on_c, 0, 64, 30
2, 53280, Note_on_c, 0, 64, 0
2, 53280, Note_on_c, 0, 61, 0
2, 53280, Note_on_c, 0, 56, 0
2, 53280, Note_on_c, 0, 64, 30
2, 53280, Note_on_c, 0, 61, 25
2, 53280, Note_on_c, 0, 55, 25
2, 53640, Note_on_c, 0, 64, 0
2, 53640, Note_on_c, 0, 63, 30
2, 53760, Note_on_c, 0, 63, 0
2, 53760, Note_on_c, 0, 55, 0
2, 53760, Note_on_c, 0, 61, 0
2, 53760, Note_on_c, 0, 55, 22
2, 53760, Note_on_c, 0, 61, 22
2, 53760, Note_on_c, 0, 63, 27
2, 54000, Note_on_c, 0, 69, 26
2, 54240, Note_on_c, 0, 69, 0
2, 54480, Note_on_c, 0, 55, 0
2, 54480, Note_on_c, 0, 61, 0
2, 54480, Note_on_c, 0, 63, 0
2, 54480, Note_on_c, 0, 55, 25
2, 54480, Note_on_c, 0, 61, 25
2, 54480, Note_on_c, 0, 63, 29
2, 54720, Note_on_c, 0, 63, 0
2, 54720, Note_on_c, 0, 61, 0
2, 54720, Note_on_c, 0, 55, 0
2, 54720, Note_on_c, 0, 64, 33
2, 54720, Note_on_c, 0, 61, 27
2, 54720, Note_on_c, 0, 54, 27
2, 55080, Note_on_c, 0, 64, 0
2, 55080, Note_on_c, 0, 63, 30
2, 55200, Note_on_c, 0, 63, 0
2, 55200, Note_on_c, 0, 54, 0
2, 55200, Note_on_c, 0, 61, 0
2, 55200, Note_on_c, 0, 54, 22
2, 55200, Note_on_c, 0, 61, 22
2, 55200, Note_on_c, 0, 63, 27
2, 55440, Note_on_c, 0, 69, 26
2, 55680, Note_on_c, 0, 69, 0
2, 55920, Note_on_c, 0, 54, 0
2, 55920, Note_on_c, 0, 61, 0
2, 55920, Note_on_c, 0, 63, 0
2, 55920, Note_on_c, 0, 54, 22
2, 55920, Note_on_c, 0, 61, 22
2, 55920, Note_on_c, 0, 63, 27
2, 56160, Note_on_c, 0, 63, 0
2, 56160, Note_on_c, 0, 61, 0
2, 56160, Note_on_c, 0, 54, 0
2, 56160, Note_on_c, 0, 63, 25
2, 56160, Note_on_c, 0, 60, 20
2, 56160, Note_on_c, 0, 54, 20
2, 56880, Note_on_c, 0, 54, 0
2, 56880, Note_on_c, 0, 60, 0
2, 56880, Note_on_c, 0, 63, 0
2, 56880, Note_on_c, 0, 64, 21
2, 57000, Note_on_c, 0, 64, 0
2, 57000, Note_on_c, 0, 66, 21
2, 57120, Note_on_c, 0, 66, 0
2, 57120, Note_on_c, 0, 68, 21
2, 57360, Note_on_c, 0, 68, 0
2, 57360, Note_on_c, 0, 60, 22
2, 57360, Note_on_c, 0, 54, 18
2, 57360, Note_on_c, 0, 57, 18
2, 57600, Note_on_c, 0, 57, 0
2, 57600, Note_on_c, 0, 54, 0
2, 57600, Note_on_c, 0, 60, 0
2, 58320, Note_on_c, 0, 73, 26
2, 58560, Note_on_c, 0, 73, 0
2, 59760, Note_on_c, 0, 73, 26
2, 60000, Note_on_c, 0, 73, 0
2, 60480, Note_on_c, 0, 49, 38
2, 60480, Note_on_c, 0, 52, 38
2, 60480, Note_on_c, 0, 57, 45
2, 60960, Note_on_c, 0, 57, 0
2, 60960, Note_on_c, 0, 52, 0
2, 60960, Note_on_c, 0, 49, 0
2, 60960, Note_on_c, 0, 49, 38
2, 60960, Note_on_c, 0, 57, 46
2, 61440, Note_on_c, 0, 57, 0
2, 61440, Note_on_c, 0, 49, 0
2, 61440, Note_on_c, 0, 50, 38
2, 61440, Note_on_c, 0, 57, 38
2, 61440, Note_on_c, 0, 59, 45
2, 61920, Note_on_c, 0, 59, 0
2, 61920, Note_on_c, 0, 57, 0
2, 61920, Note_on_c, 0, 50, 0
2, 61920, Note_on_c, 0, 52, 38
2, 61920, Note_on_c, 0, 61, 46
2, 61920, Note_on_c, 0, 57, 38
2, 62280, Note_on_c, 0, 57, 0
2, 62280, Note_on_c, 0, 50, 36
2, 62280, Note_on_c, 0, 57, 36
2, 62280, Note_on_c, 0, 59, 42
2, 62290, Note_on_c, 0, 61, 0
2, 62290, Note_on_c, 0, 52, 0
2, 62400, Note_on_c, 0, 57, 0
2, 62400, Note_on_c, 0, 49, 36
2, 62400, Note_on_c, 0, 57, 42
2, 62410, Note_on_c, 0, 50, 0
2, 62410, Note_on_c, 0, 59, 0
2, 63120, Note_on_c, 0, 49, 0
2, 63120, Note_on_c, 0, 57, 0
2, 63120, Note_on_c, 0, 52, 38
2, 63120, Note_on_c, 0, 57, 38
2, 63120, Note_on_c, 0, 61, 46
2, 63360, Note_on_c, 0, 61, 0
2, 63360, Note_on_c, 0, 57, 0
2, 63360, Note_on_c, 0, 52, 0
2, 63360, Note_on_c, 0, 54, 40
2, 63360, Note_on_c, 0, 57, 40
2, 63360, Note_on_c, 0, 62, 48
2, 63720, Note_on_c, 0, 57, 0
2, 63720, Note_on_c, 0, 52, 38
2, 63720, Note_on_c, 0, 57, 38
2, 63720, Note_on_c, 0, 61, 45
2, 63730, Note_on_c, 0, 62, 0
2, 63730, Note_on_c, 0, 54, 0
2, 63840, Note_on_c, 0, 57, 0
2, 63840, Note_on_c, 0, 50, 39
2, 63840, Note_on_c, 0, 57, 39
2, 63840, Note_on_c, 0, 59, 47
2, 63850, Note_on_c, 0, 52, 0
2, 63850, Note_on_c, 0, 61, 0
2, 64080, Note_on_c, 0, 57, 0
2, 64080, Note_on_c, 0, 50, 0
2, 64080, Note_on_c, 0, 59, 0
2, 64080, Note_on_c, 0, 54, 38
2, 64080, Note_on_c, 0, 57, 38
2, 64080, Note_on_c, 0, 62, 45
2, 64320, Note_on_c, 0, 62, 0
2, 64320, Note_on_c, 0, 57, 0
2, 64320, Note_on_c, 0, 54, 0
2, 64320, Note_on_c, 0, 52, 38
2, 64320, Note_on_c, 0, 57, 38
2, 64320, Note_on_c, 0, 61, 45
2, 64560, Note_on_c, 0, 61, 0
2, 64560, Note_on_c, 0, 57, 0
2, 64560, Note_on_c, 0, 52, 0
2, 64560, Note_on_c, 0, 49, 38
2, 64560, Note_on_c, 0, 52, 38
2, 64560, Note_on_c, 0, 57, 45
2, 64800, Note_on_c, 0, 57, 0
2, 64800, Note_on_c, 0, 52, 0
2, 64800, Note_on_c, 0, 49, 0
2, 64800, Note_on_c, 0, 47, 39
2, 64800, Note_on_c, 0, 52, 39
2, 64800, Note_on_c, 0, 56, 47
2, 65520, Note_on_c, 0, 56, 0
2, 65520, Note_on_c, 0, 52, 0
2, 65520, Note_on_c, 0, 47, 0
2, 65520, Note_on_c, 0, 47, 38
2, 65520, Note_on_c, 0, 54, 38
2, 65520, Note_on_c, 0, 56, 46
2, 65760, Note_on_c, 0, 56, 0
2, 65760, Note_on_c, 0, 54, 0
2, 65760, Note_on_c, 0, 47, 0
2, 65760, Note_on_c, 0, 49, 41
2, 65760, Note_on_c, 0, 52, 41
2, 65760, Note_on_c, 0, 56, 49
2, 66000, Note_on_c, 0, 56, 0
2, 66000, Note_on_c, 0, 52, 0
2, 66000, Note_on_c, 0, 49, 0
2, 66000, Note_on_c, 0, 50, 41
2, 66000, Note_on_c, 0, 52, 41
2, 66000, Note_on_c, 0, 56, 49
2, 66240, Note_on_c, 0, 56, 0
2, 66240, Note_on_c, 0, 52, 0
2, 66240, Note_on_c, 0, 50, 0
2, 66240, Note_on_c, 0, 49, 38
2, 66240, Note_on_c, 0, 52, 38
2, 66240, Note_on_c, 0, 57, 45
2, 66720, Note_on_c, 0, 57, 0
2, 66720, Note_on_c, 0, 52, 0
2, 66720, Note_on_c, 0, 49, 0
2, 66720, Note_on_c, 0, 49, 38
2, 66720, Note_on_c, 0, 57, 46
2, 67200, Note_on_c, 0, 57, 0
2, 67200, Note_on_c, 0, 49, 0
2, 67200, Note_on_c, 0, 50, 38
2, 67200, Note_on_c, 0, 57, 38
2, 67200, Note_on_c, 0, 59, 45
2, 67680, Note_on_c, 0, 59, 0
2, 67680, Note_on_c, 0, 57, 0
2, 67680, Note_on_c, 0, 50, 0
2, 67680, Note_on_c, 0, 52, 38
2, 67680, Note_on_c, 0, 61, 46
2, 67680, Note_on_c, 0, 57, 38
2, 68040, Note_on_c, 0, 57, 0
2, 68040, Note_on_c, 0, 50, 36
2, 68040, Note_on_c, 0, 57, 36
2, 68040, Note_on_c, 0, 59, 42
2, 68050, Note_on_c, 0, 61, 0
2, 68050, Note_on_c, 0, 52, 0
2, 68160, Note_on_c, 0, 57, 0
2, 68160, Note_on_c, 0, 49, 32
2, 68160, Note_on_c, 0, 57, 37
2, 68170, Note_on_c, 0, 50, 0
2, 68170, Note_on_c, 0, 59, 0
2, 68880, Note_on_c, 0, 49, 0
2, 68880, Note_on_c, 0, 57, 0
2, 68880, Note_on_c, 0, 54, 41
2, 68880, Note_on_c, 0, 52, 41
2, 68880, Note_on_c, 0, 58, 41
2, 68880, Note_on_c, 0, 61, 50
2, 69120, Note_on_c, 0, 61, 0
2, 69120, Note_on_c, 0, 54, 0
2, 69120, Note_on_c, 0, 52, 0
2, 69120, Note_on_c, 0, 58, 0
2, 69120, Note_on_c, 0, 50, 45
2, 69120, Note_on_c, 0, 54, 45
2, 69120, Note_on_c, 0, 59, 45
2, 69120, Note_on_c, 0, 62, 53
2, 69480, Note_on_c, 0, 54, 0
2, 69480, Note_on_c, 0, 54, 38
2, 69480, Note_on_c, 0, 52, 38
2, 69480, Note_on_c, 0, 58, 38
2, 69480, Note_on_c, 0, 61, 44
2, 69490, Note_on_c, 0, 50, 0
2, 69490, Note_on_c, 0, 62, 0
2, 69490, Note_on_c, 0, 59, 0
2, 69600, Note_on_c, 0, 58, 0
2, 69600, Note_on_c, 0, 50, 39
2, 69600, Note_on_c, 0, 57, 39
2, 69600, Note_on_c, 0, 59, 47
2, 69610, Note_on_c, 0, 54, 0
2, 69610, Note_on_c, 0, 61, 0
2, 69610, Note_on_c, 0, 52, 0
2, 69840, Note_on_c, 0, 50, 0
2, 69840, Note_on_c, 0, 57, 0
2, 69840, Note_on_c, 0, 59, 0
2, 69840, Note_on_c, 0, 50, 41
2, 69840, Note_on_c, 0, 54, 41
2, 69840, Note_on_c, 0, 62, 49
2, 69960, Note_on_c, 0, 54, 0
2, 69960, Note_on_c, 0, 56, 40
2, 70080, Note_on_c, 0, 56, 0
2, 70080, Note_on_c, 0, 62, 0
2, 70080, Note_on_c, 0, 50, 0
2, 70080, Note_on_c, 0, 52, 39
2, 70080, Note_on_c, 0, 57, 39
2, 70080, Note_on_c, 0, 61, 46
2, 70320, Note_on_c, 0, 61, 0
2, 70320, Note_on_c, 0, 57, 0
2, 70320, Note_on_c, 0, 52, 0
2, 70320, Note_on_c, 0, 50, 38
2, 70320, Note_on_c, 0, 52, 38
2, 70320, Note_on_c, 0, 56, 38
2, 70320, Note_on_c, 0, 59, 45
2, 70560, Note_on_c, 0, 59, 0
2, 70560, Note_on_c, 0, 50, 0
2, 70560, Note_on_c, 0, 52, 0
2, 70560, Note_on_c, 0, 56, 0
2, 70560, Note_on_c, 0, 50, 39
2, 70560, Note_on_c, 0, 52, 39
2, 70560, Note_on_c, 0, 56, 39
2, 70560, Note_on_c, 0, 59, 47
2, 71040, Note_on_c, 0, 59, 0
2, 71040, Note_on_c, 0, 56, 0
2, 71040, Note_on_c, 0, 50, 0
2, 71040, Note_on_c, 0, 49, 39
2, 71040, Note_on_c, 0, 57, 47
2, 71280, Note_on_c, 0, 52, 0
2, 71520, Note_on_c, 0, 57, 0
2, 71520, Note_on_c, 0, 49, 0
2, 72000, Note_on_c, 0, 69, 62
2, 72080, Note_on_c, 0, 64, 31
2, 72160, Note_on_c, 0, 64, 0
2, 72160, Note_on_c, 0, 61, 31
2, 72240, Note_on_c, 0, 61, 0
2, 72240, Note_on_c, 0, 64, 31
2, 72320, Note_on_c, 0, 64, 0
2, 72320, Note_on_c, 0, 61, 31
2, 72400, Note_on_c, 0, 61, 0
2, 72400, Note_on_c, 0, 57, 31
2, 72480, Note_on_c, 0, 57, 0
2, 72480, Note_on_c, 0, 69, 0
2, 72480, Note_on_c, 0, 69, 63
2, 72560, Note_on_c, 0, 64, 31
2, 72640, Note_on_c, 0, 64, 0
2, 72640, Note_on_c, 0, 61, 31
2, 72720, Note_on_c, 0, 61, 0
2, 72720, Note_on_c, 0, 64, 31
2, 72800, Note_on_c, 0, 64, 0
2, 72800, Note_on_c, 0, 61, 31
2, 72880, Note_on_c, 0, 61, 0
2, 72880, Note_on_c, 0, 57, 31
2, 72960, Note_on_c, 0, 57, 0
2, 72960, Note_on_c, 0, 69, 0
2, 72960, Note_on_c, 0, 71, 62
2, 73040, Note_on_c, 0, 68, 31
2, 73120, Note_on_c, 0, 68, 0
2, 73120, Note_on_c, 0, 64, 32
2, 73200, Note_on_c, 0, 64, 0
2, 73200, Note_on_c, 0, 68, 32
2, 73280, Note_on_c, 0, 68, 0
2, 73280, Note_on_c, 0, 64, 32
2, 73360, Note_on_c, 0, 64, 0
2, 73360, Note_on_c, 0, 59, 32
2, 73440, Note_on_c, 0, 59, 0
2, 73440, Note_on_c, 0, 71, 0
2, 73440, Note_on_c, 0, 73, 63
2, 73520, Note_on_c, 0, 69, 32
2, 73600, Note_on_c, 0, 69, 0
2, 73600, Note_on_c, 0, 64, 32
2, 73680, Note_on_c, 0, 64, 0
2, 73680, Note_on_c, 0, 69, 32
2, 73760, Note_on_c, 0, 69, 0
2, 73760, Note_on_c, 0, 64, 32
2, 73840, Note_on_c, 0, 64, 0
2, 73840, Note_on_c, 0, 62, 32
2, 73860, Note_on_c, 0, 73, 0
2, 73860, Note_on_c, 0, 71, 59
2, 73920, Note_on_c, 0, 71, 0
2, 73920, Note_on_c, 0, 62, 0
2, 73920, Note_on_c, 0, 69, 59
2, 74000, Note_on_c, 0, 64, 31
2, 74080, Note_on_c, 0, 64, 0
2, 74080, Note_on_c, 0, 61, 31
2, 74160, Note_on_c, 0, 61, 0
2, 74160, Note_on_c, 0, 64, 31
2, 74240, Note_on_c, 0, 64, 0
2, 74240, Note_on_c, 0, 61, 31
2, 74320, Note_on_c, 0, 61, 0
2, 74320, Note_on_c, 0, 57, 31
2, 74400, Note_on_c, 0, 57, 0
2, 74480, Note_on_c, 0, 61, 32
2, 74560, Note_on_c, 0, 61, 0
2, 74560, Note_on_c, 0, 64, 32
2, 74640, Note_on_c, 0, 64, 0
2, 74640, Note_on_c, 0, 69, 0
2, 74640, Note_on_c, 0, 61, 32
2, 74640, Note_on_c, 0, 73, 63
2, 74720, Note_on_c, 0, 61, 0
2, 74720, Note_on_c, 0, 64, 32
2, 74800, Note_on_c, 0, 64, 0
2, 74800, Note_on_c, 0, 69, 32
2, 74880, Note_on_c, 0, 69, 0
2, 74880, Note_on_c, 0, 73, 0
2, 74880, Note_on_c, 0, 74, 67
2, 74960, Note_on_c, 0, 69, 34
2, 75040, Note_on_c, 0, 69, 0
2, 75040, Note_on_c, 0, 66, 34
2, 75120, Note_on_c, 0, 66, 0
2, 75120, Note_on_c, 0, 69, 34
2, 75200, Note_on_c, 0, 69, 0
2, 75200, Note_on_c, 0, 66, 34
2, 75280, Note_on_c, 0, 66, 0
2, 75280, Note_on_c, 0, 64, 32
2, 75300, Note_on_c, 0, 74, 0
2, 75300, Note_on_c, 0, 73, 62
2, 75360, Note_on_c, 0, 73, 0
2, 75360, Note_on_c, 0, 64, 0
2, 75360, Note_on_c, 0, 71, 66
2, 75440, Note_on_c, 0, 62, 32
2, 75520, Note_on_c, 0, 62, 0
2, 75520, Note_on_c, 0, 69, 32
2, 75600, Note_on_c, 0, 69, 0
2, 75600, Note_on_c, 0, 71, 0
2, 75600, Note_on_c, 0, 74, 62
2, 75680, Note_on_c, 0, 66, 30
2, 75760, Note_on_c, 0, 66, 0
2, 75760, Note_on_c, 0, 69, 30
2, 75840, Note_on_c, 0, 69, 0
2, 75840, Note_on_c, 0, 74, 0
2, 75840, Note_on_c, 0, 73, 62
2, 75920, Note_on_c, 0, 69, 32
2, 76000, Note_on_c, 0, 69, 0
2, 76000, Note_on_c, 0, 64, 32
2, 76080, Note_on_c, 0, 64, 0
2, 76080, Note_on_c, 0, 73, 0
2, 76080, Note_on_c, 0, 69, 62
2, 76160, Note_on_c, 0, 64, 32
2, 76240, Note_on_c, 0, 64, 0
2, 76240, Note_on_c, 0, 61, 32
2, 76320, Note_on_c, 0, 61, 0
2, 76320, Note_on_c, 0, 69, 0
2, 76320, Note_on_c, 0, 68, 66
2, 76400, Note_on_c, 0, 64, 31
2, 76480, Note_on_c, 0, 64, 0
2, 76480, Note_on_c, 0, 59, 31
2, 76560, Note_on_c, 0, 59, 0
2, 76560, Note_on_c, 0, 64, 31
2, 76640, Note_on_c, 0, 64, 0
2, 76640, Note_on_c, 0, 59, 31
2, 76720, Note_on_c, 0, 59, 0
2, 76720, Note_on_c, 0, 56, 31
2, 76800, Note_on_c, 0, 56, 0
2, 76800, Note_on_c, 0, 64, 31
2, 76880, Note_on_c, 0, 64, 0
2, 76880, Note_on_c, 0, 59, 31
2, 76960, Note_on_c, 0, 59, 0
2, 76960, Note_on_c, 0, 56, 31
2, 77040, Note_on_c, 0, 56, 0
2, 77040, Note_on_c, 0, 68, 0
2, 77040, Note_on_c, 0, 68, 63
2, 77120, Note_on_c, 0, 66, 32
2, 77200, Note_on_c, 0, 66, 0
2, 77200, Note_on_c, 0, 59, 32
2, 77280, Note_on_c, 0, 59, 0
2, 77280, Note_on_c, 0, 68, 0
2, 77280, Note_on_c, 0, 68, 68
2, 77360, Note_on_c, 0, 64, 34
2, 77440, Note_on_c, 0, 64, 0
2, 77440, Note_on_c, 0, 61, 34
2, 77520, Note_on_c, 0, 61, 0
2, 77520, Note_on_c, 0, 68, 0
2, 77520, Note_on_c, 0, 68, 68
2, 77600, Note_on_c, 0, 64, 32
2, 77680, Note_on_c, 0, 64, 0
2, 77680, Note_on_c, 0, 62, 32
2, 77760, Note_on_c, 0, 62, 0
2, 77760, Note_on_c, 0, 68, 0
2, 77760, Note_on_c, 0, 69, 62
2, 77840, Note_on_c, 0, 64, 31
2, 77920, Note_on_c, 0, 64, 0
2, 77920, Note_on_c, 0, 61, 31
2, 78000, Note_on_c, 0, 61, 0
2, 78000, Note_on_c, 0, 64, 31
2, 78080, Note_on_c, 0, 64, 0
2, 78080, Note_on_c, 0, 61, 31
2, 78160, Note_on_c, 0, 61, 0
2, 78160, Note_on_c, 0, 57, 31
2, 78240, Note_on_c, 0, 57, 0
2, 78240, Note_on_c, 0, 69, 0
2, 78240, Note_on_c, 0, 69, 63
2, 78320, Note_on_c, 0, 64, 31
2, 78400, Note_on_c, 0, 64, 0
2, 78400, Note_on_c, 0, 61, 31
2, 78480, Note_on_c, 0, 61, 0
2, 78480, Note_on_c, 0, 64, 31
2, 78560, Note_on_c, 0, 64, 0
2, 78560, Note_on_c, 0, 61, 31
2, 78640, Note_on_c, 0, 61, 0
2, 78640, Note_on_c, 0, 57, 31
2, 78720, Note_on_c, 0, 57, 0
2, 78720, Note_on_c, 0, 69, 0
2, 78720, Note_on_c, 0, 71, 62
2, 78800, Note_on_c, 0, 68, 31
2, 78880, Note_on_c, 0, 68, 0
2, 78880, Note_on_c, 0, 64, 32
2, 78960, Note_on_c, 0, 64, 0
2, 78960, Note_on_c, 0, 68, 32
2, 79040, Note_on_c, 0, 68, 0
2, 79040, Note_on_c, 0, 64, 32
2, 79120, Note_on_c, 0, 64, 0
2, 79120, Note_on_c, 0, 59, 32
2, 79200, Note_on_c, 0, 59, 0
2, 79200, Note_on_c, 0, 71, 0
2, 79200, Note_on_c, 0, 73, 63
2, 79280, Note_on_c, 0, 69, 32
2, 79360, Note_on_c, 0, 69, 0
2, 79360, Note_on_c, 0, 64, 32
2, 79440, Note_on_c, 0, 64, 0
2, 79440, Note_on_c, 0, 69, 32
2, 79520, Note_on_c, 0, 69, 0
2, 79520, Note_on_c, 0, 64, 32
2, 79600, Note_on_c, 0, 64, 0
2, 79600, Note_on_c, 0, 62, 32
2, 79620, Note_on_c, 0, 73, 0
2, 79620, Note_on_c, 0, 71, 59
2, 79680, Note_on_c, 0, 71, 0
2, 79680, Note_on_c, 0, 62, 0
2, 79680, Note_on_c, 0, 69, 59
2, 79760, Note_on_c, 0, 64, 31
2, 79840, Note_on_c, 0, 64, 0
2, 79840, Note_on_c, 0, 61, 31
2, 79920, Note_on_c, 0, 61, 0
2, 79920, Note_on_c, 0, 64, 31
2, 80000, Note_on_c, 0, 64, 0
2, 80000, Note_on_c, 0, 61, 31
2, 80080, Note_on_c, 0, 61, 0
2, 80080, Note_on_c, 0, 57, 31
2, 80160, Note_on_c, 0, 57, 0
2, 80240, Note_on_c, 0, 61, 32
2, 80320, Note_on_c, 0, 61, 0
2, 80320, Note_on_c, 0, 64, 32
2, 80400, Note_on_c, 0, 64, 0
2, 80400, Note_on_c, 0, 69, 0
2, 80400, Note_on_c, 0, 70, 32
2, 80400, Note_on_c, 0, 73, 63
2, 80480, Note_on_c, 0, 70, 0
2, 80480, Note_on_c, 0, 66, 32
2, 80560, Note_on_c, 0, 66, 0
2, 80560, Note_on_c, 0, 64, 32
2, 80640, Note_on_c, 0, 64, 0
2, 80640, Note_on_c, 0, 73, 0
2, 80640, Note_on_c, 0, 74, 67
2, 80720, Note_on_c, 0, 71, 34
2, 80800, Note_on_c, 0, 71, 0
2, 80800, Note_on_c, 0, 66, 34
2, 80880, Note_on_c, 0, 66, 0
2, 80880, Note_on_c, 0, 71, 34
2, 80960, Note_on_c, 0, 71, 0
2, 80960, Note_on_c, 0, 66, 34
2, 81040, Note_on_c, 0, 66, 0
2, 81040, Note_on_c, 0, 64, 32
2, 81060, Note_on_c, 0, 74, 0
2, 81060, Note_on_c, 0, 73, 62
2, 81120, Note_on_c, 0, 73, 0
2, 81120, Note_on_c, 0, 64, 0
2, 81120, Note_on_c, 0, 71, 66
2, 81200, Note_on_c, 0, 62, 32
2, 81280, Note_on_c, 0, 62, 0
2, 81280, Note_on_c, 0, 66, 32
2, 81360, Note_on_c, 0, 66, 0
2, 81360, Note_on_c, 0, 71, 0
2, 81360, Note_on_c, 0, 74, 62
2, 81440, Note_on_c, 0, 66, 30
2, 81520, Note_on_c, 0, 66, 0
2, 81520, Note_on_c, 0, 68, 30
2, 81600, Note_on_c, 0, 68, 0
2, 81600, Note_on_c, 0, 74, 0
2, 81600, Note_on_c, 0, 73, 62
2, 81680, Note_on_c, 0, 69, 32
2, 81760, Note_on_c, 0, 69, 0
2, 81760, Note_on_c, 0, 64, 32
2, 81840, Note_on_c, 0, 64, 0
2, 81840, Note_on_c, 0, 73, 0
2, 81840, Note_on_c, 0, 71, 62
2, 81920, Note_on_c, 0, 64, 32
2, 82000, Note_on_c, 0, 64, 0
2, 82020, Note_on_c, 0, 62, 32
2, 82080, Note_on_c, 0, 71, 0
2, 82080, Note_on_c, 0, 71, 66
2, 82100, Note_on_c, 0, 62, 0
2, 82160, Note_on_c, 0, 68, 31
2, 82240, Note_on_c, 0, 68, 0
2, 82240, Note_on_c, 0, 64, 31
2, 82320, Note_on_c, 0, 64, 0
2, 82320, Note_on_c, 0, 68, 31
2, 82400, Note_on_c, 0, 68, 0
2, 82400, Note_on_c, 0, 64, 31
2, 82480, Note_on_c, 0, 64, 0
2, 82480, Note_on_c, 0, 62, 31
2, 82560, Note_on_c, 0, 62, 0
2, 82560, Note_on_c, 0, 71, 0
2, 82560, Note_on_c, 0, 69, 66
2, 82560, Note_on_c, 0, 61, 31
2, 82800, Note_on_c, 0, 61, 0
2, 82800, Note_on_c, 0, 69, 0
2, 83520, Note_on_c, 0, 56, 38
2, 83520, Note_on_c, 0, 59, 45
2, 84000, Note_on_c, 0, 59, 0
2, 84000, Note_on_c, 0, 56, 0
2, 84000, Note_on_c, 0, 56, 38
2, 84000, Note_on_c, 0, 59, 46
2, 84480, Note_on_c, 0, 59, 0
2, 84480, Note_on_c, 0, 56, 0
2, 84480, Note_on_c, 0, 52, 38
2, 84480, Note_on_c, 0, 58, 38
2, 84480, Note_on_c, 0, 61, 45
2, 84960, Note_on_c, 0, 61, 0
2, 84960, Note_on_c, 0, 58, 0
2, 84960, Note_on_c, 0, 52, 0
2, 84960, Note_on_c, 0, 54, 38
2, 84960, Note_on_c, 0, 62, 46
2, 84960, Note_on_c, 0, 59, 38
2, 85320, Note_on_c, 0, 61, 36
2, 85320, Note_on_c, 0, 64, 42
2, 85330, Note_on_c, 0, 59, 0
2, 85330, Note_on_c, 0, 62, 0
2, 85440, Note_on_c, 0, 62, 36
2, 85440, Note_on_c, 0, 66, 42
2, 85450, Note_on_c, 0, 64, 0
2, 85450, Note_on_c, 0, 61, 0
2, 85920, Note_on_c, 0, 54, 0
2, 85920, Note_on_c, 0, 54, 38
2, 86160, Note_on_c, 0, 54, 0
2, 86160, Note_on_c, 0, 66, 0
2, 86160, Note_on_c, 0, 62, 0
2, 86160, Note_on_c, 0, 56, 45
2, 86160, Note_on_c, 0, 62, 45
2, 86160, Note_on_c, 0, 66, 54
2, 86400, Note_on_c, 0, 66, 0
2, 86400, Note_on_c, 0, 62, 0
2, 86400, Note_on_c, 0, 56, 0
2, 86400, Note_on_c, 0, 57, 49
2, 86400, Note_on_c, 0, 62, 49
2, 86400, Note_on_c, 0, 66, 58
2, 86760, Note_on_c, 0, 66, 0
2, 86760, Note_on_c, 0, 62, 0
2, 86760, Note_on_c, 0, 57, 0
2, 86760, Note_on_c, 0, 59, 48
2, 86760, Note_on_c, 0, 62, 48
2, 86760, Note_on_c, 0, 67, 58
2, 86880, Note_on_c, 0, 67, 0
2, 86880, Note_on_c, 0, 62, 0
2, 86880, Note_on_c, 0, 59, 0
2, 86880, Note_on_c, 0, 57, 50
2, 86880, Note_on_c, 0, 62, 50
2, 86880, Note_on_c, 0, 69, 60
2, 87120, Note_on_c, 0, 69, 0
2, 87120, Note_on_c, 0, 62, 0
2, 87120, Note_on_c, 0, 57, 0
2, 87120, Note_on_c, 0, 59, 48
2, 87120, Note_on_c, 0, 62, 48
2, 87120, Note_on_c, 0, 67, 57
2, 87360, Note_on_c, 0, 67, 0
2, 87360, Note_on_c, 0, 62, 0
2, 87360, Note_on_c, 0, 59, 0
2, 87360, Note_on_c, 0, 57, 46
2, 87360, Note_on_c, 0, 62, 46
2, 87360, Note_on_c, 0, 66, 55
2, 87600, Note_on_c, 0, 66, 0
2, 87600, Note_on_c, 0, 62, 0
2, 87600, Note_on_c, 0, 57, 0
2, 87600, Note_on_c, 0, 55, 44
2, 87600, Note_on_c, 0, 57, 44
2, 87600, Note_on_c, 0, 61, 44
2, 87600, Note_on_c, 0, 64, 51
2, 87840, Note_on_c, 0, 64, 0
2, 87840, Note_on_c, 0, 55, 0
2, 87840, Note_on_c, 0, 57, 0
2, 87840, Note_on_c, 0, 61, 0
2, 87840, Note_on_c, 0, 55, 39
2, 87840, Note_on_c, 0, 57, 39
2, 87840, Note_on_c, 0, 61, 39
2, 87840, Note_on_c, 0, 64, 47
2, 88320, Note_on_c, 0, 64, 0
2, 88320, Note_on_c, 0, 55, 0
2, 88320, Note_on_c, 0, 57, 0
2, 88320, Note_on_c, 0, 61, 0
2, 88320, Note_on_c, 0, 54, 39
2, 88320, Note_on_c, 0, 57, 39
2, 88320, Note_on_c, 0, 62, 47
2, 89280, Note_on_c, 0, 62, 0
2, 89280, Note_on_c, 0, 57, 0
2, 89280, Note_on_c, 0, 54, 0
2, 89280, Note_on_c, 0, 53, 28
2, 89280, Note_on_c, 0, 58, 34
2, 89760, Note_on_c, 0, 58, 0
2, 89760, Note_on_c, 0, 53, 0
2, 89760, Note_on_c, 0, 53, 28
2, 89760, Note_on_c, 0, 58, 34
2, 90240, Note_on_c, 0, 58, 0
2, 90240, Note_on_c, 0, 53, 0
2, 90240, Note_on_c, 0, 53, 28
2, 90240, Note_on_c, 0, 58, 34
2, 90720, Note_on_c, 0, 58, 0
2, 90720, Note_on_c, 0, 53, 0
2, 90720, Note_on_c, 0, 58, 34
2, 90720, Note_on_c, 0, 55, 28
2, 91080, Note_on_c, 0, 55, 0
2, 91080, Note_on_c, 0, 58, 0
2, 91080, Note_on_c, 0, 57, 27
2, 91110, Note_on_c, 0, 58, 27
2, 91120, Note_on_c, 0, 57, 0
2, 91140, Note_on_c, 0, 60, 27
2, 91150, Note_on_c, 0, 58, 0
2, 91170, Note_on_c, 0, 58, 27
2, 91180, Note_on_c, 0, 60, 0
2, 91200, Note_on_c, 0, 55, 31
2, 91210, Note_on_c, 0, 58, 0
2, 91440, Note_on_c, 0, 55, 0
2, 91440, Note_on_c, 0, 55, 28
2, 91440, Note_on_c, 0, 63, 28
2, 91440, Note_on_c, 0, 67, 34
2, 91680, Note_on_c, 0, 67, 0
2, 91680, Note_on_c, 0, 63, 0
2, 91680, Note_on_c, 0, 55, 0
2, 91680, Note_on_c, 0, 55, 28
2, 91680, Note_on_c, 0, 59, 28
2, 91680, Note_on_c, 0, 65, 34
2, 91920, Note_on_c, 0, 65, 0
2, 91920, Note_on_c, 0, 59, 0
2, 91920, Note_on_c, 0, 55, 0
2, 91920, Note_on_c, 0, 55, 23
2, 91920, Note_on_c, 0, 60, 23
2, 91920, Note_on_c, 0, 63, 34
2, 92160, Note_on_c, 0, 63, 0
2, 92160, Note_on_c, 0, 60, 0
2, 92160, Note_on_c, 0, 55, 0
2, 92160, Note_on_c, 0, 53, 30
2, 92160, Note_on_c, 0, 58, 30
2, 92160, Note_on_c, 0, 62, 37
2, 93120, Note_on_c, 0, 62, 0
2, 93120, Note_on_c, 0, 58, 0
2, 93120, Note_on_c, 0, 53, 0
2, 93120, Note_on_c, 0, 51, 30
2, 93120, Note_on_c, 0, 57, 30
2, 93120, Note_on_c, 0, 63, 36
2, 93480, Note_on_c, 0, 60, 34
2, 93490, Note_on_c, 0, 63, 0
2, 93600, Note_on_c, 0, 51, 0
2, 93600, Note_on_c, 0, 57, 0
2, 93600, Note_on_c, 0, 50, 29
2, 93600, Note_on_c, 0, 56, 29
2, 93600, Note_on_c, 0, 59, 35
2, 93610, Note_on_c, 0, 60, 0
2, 95040, Note_on_c, 0, 50, 0
2, 95040, Note_on_c, 0, 56, 0
2, 95040, Note_on_c, 0, 59, 0
2, 95040, Note_on_c, 0, 50, 36
2, 95040, Note_on_c, 0, 56, 36
2, 95040, Note_on_c, 0, 59, 44
2, 95760, Note_on_c, 0, 59, 0
2, 95760, Note_on_c, 0, 61, 46
2, 95880, Note_on_c, 0, 62, 46
2, 95890, Note_on_c, 0, 61, 0
2, 96000, Note_on_c, 0, 50, 0
2, 96000, Note_on_c, 0, 56, 0
2, 96000, Note_on_c, 0, 64, 45
2, 96010, Note_on_c, 0, 62, 0
2, 96240, Note_on_c, 0, 64, 0
2, 96240, Note_on_c, 0, 50, 44
2, 96240, Note_on_c, 0, 52, 44
2, 96240, Note_on_c, 0, 56, 44
2, 96480, Note_on_c, 0, 56, 0
2, 96480, Note_on_c, 0, 52, 0
2, 96480, Note_on_c, 0, 50, 0
2, 96480, Note_on_c, 0, 49, 38
2, 96480, Note_on_c, 0, 52, 38
2, 96480, Note_on_c, 0, 57, 45
2, 96960, Note_on_c, 0, 57, 0
2, 96960, Note_on_c, 0, 52, 0
2, 96960, Note_on_c, 0, 49, 0
2, 96960, Note_on_c, 0, 49, 38
2, 96960, Note_on_c, 0, 57, 46
2, 97440, Note_on_c, 0, 57, 0
2, 97440, Note_on_c, 0, 49, 0
2, 97440, Note_on_c, 0, 50, 38
2, 97440, Note_on_c, 0, 57, 38
2, 97440, Note_on_c, 0, 59, 45
2, 97920, Note_on_c, 0, 59, 0
2, 97920, Note_on_c, 0, 57, 0
2, 97920, Note_on_c, 0, 50, 0
2, 97920, Note_on_c, 0, 52, 38
2, 97920, Note_on_c, 0, 61, 46
2, 97920, Note_on_c, 0, 57, 38
2, 98280, Note_on_c, 0, 57, 0
2, 98280, Note_on_c, 0, 50, 36
2, 98280, Note_on_c, 0, 57, 36
2, 98280, Note_on_c, 0, 59, 42
2, 98290, Note_on_c, 0, 61, 0
2, 98290, Note_on_c, 0, 52, 0
2, 98400, Note_on_c, 0, 57, 0
2, 98400, Note_on_c, 0, 49, 36
2, 98400, Note_on_c, 0, 57, 42
2, 98410, Note_on_c, 0, 50, 0
2, 98410, Note_on_c, 0, 59, 0
2, 99120, Note_on_c, 0, 49, 0
2, 99120, Note_on_c, 0, 57, 0
2, 99120, Note_on_c, 0, 52, 41
2, 99120, Note_on_c, 0, 57, 41
2, 99120, Note_on_c, 0, 61, 50
2, 99360, Note_on_c, 0, 61, 0
2, 99360, Note_on_c, 0, 57, 0
2, 99360, Note_on_c, 0, 52, 0
2, 99360, Note_on_c, 0, 53, 44
2, 99360, Note_on_c, 0, 57, 44
2, 99360, Note_on_c, 0, 62, 52
2, 99720, Note_on_c, 0, 57, 0
2, 99720, Note_on_c, 0, 52, 41
2, 99720, Note_on_c, 0, 57, 41
2, 99720, Note_on_c, 0, 61, 49
2, 99730, Note_on_c, 0, 62, 0
2, 99730, Note_on_c, 0, 53, 0
2, 99840, Note_on_c, 0, 57, 0
2, 99840, Note_on_c, 0, 50, 42
2, 99840, Note_on_c, 0, 57, 42
2, 99840, Note_on_c, 0, 59, 51
2, 99850, Note_on_c, 0, 52, 0
2, 99850, Note_on_c, 0, 61, 0
2, 100080, Note_on_c, 0, 57, 0
2, 100080, Note_on_c, 0, 50, 0
2, 100080, Note_on_c, 0, 59, 0
2, 100080, Note_on_c, 0, 53, 41
2, 100080, Note_on_c, 0, 57, 41
2, 100080, Note_on_c, 0, 62, 49
2, 100320, Note_on_c, 0, 62, 0
2, 100320, Note_on_c, 0, 57, 0
2, 100320, Note_on_c, 0, 53, 0
2, 100320, Note_on_c, 0, 52, 41
2, 100320, Note_on_c, 0, 57, 41
2, 100320, Note_on_c, 0, 61, 49
2, 100560, Note_on_c, 0, 61, 0
2, 100560, Note_on_c, 0, 57, 0
2, 100560, Note_on_c, 0, 52, 0
2, 100560, Note_on_c, 0, 49, 41
2, 100560, Note_on_c, 0, 52, 41
2, 100560, Note_on_c, 0, 57, 49
2, 100800, Note_on_c, 0, 57, 0
2, 100800, Note_on_c, 0, 52, 0
2, 100800, Note_on_c, 0, 49, 0
2, 100800, Note_on_c, 0, 47, 42
2, 100800, Note_on_c, 0, 52, 42
2, 100800, Note_on_c, 0, 56, 51
2, 101520, Note_on_c, 0, 56, 0
2, 101520, Note_on_c, 0, 52, 0
2, 101520, Note_on_c, 0, 47, 0
2, 101520, Note_on_c, 0, 47, 49
2, 101520, Note_on_c, 0, 53, 49
2, 101520, Note_on_c, 0, 56, 60
2, 101760, Note_on_c, 0, 56, 0
2, 101760, Note_on_c, 0, 53, 0
2, 101760, Note_on_c, 0, 47, 0
2, 101760, Note_on_c, 0, 48, 56
2, 101760, Note_on_c, 0, 52, 56
2, 101760, Note_on_c, 0, 56, 66
2, 102000, Note_on_c, 0, 56, 0
2, 102000, Note_on_c, 0, 52, 0
2, 102000, Note_on_c, 0, 48, 0
2, 102000, Note_on_c, 0, 50, 59
2, 102000, Note_on_c, 0, 52, 59
2, 102000, Note_on_c, 0, 56, 69
2, 102240, Note_on_c, 0, 56, 0
2, 102240, Note_on_c, 0, 52, 0
2, 102240, Note_on_c, 0, 50, 0
2, 102240, Note_on_c, 0, 48, 63
2, 102240, Note_on_c, 0, 52, 63
2, 102240, Note_on_c, 0, 57, 76
2, 102720, Note_on_c, 0, 57, 0
2, 102720, Note_on_c, 0, 52, 0
2, 102720, Note_on_c, 0, 48, 0
2, 102720, Note_on_c, 0, 52, 63
2, 102720, Note_on_c, 0, 48, 63
2, 102720, Note_on_c, 0, 57, 77
2, 103200, Note_on_c, 0, 57, 0
2, 103200, Note_on_c, 0, 48, 0
2, 103200, Note_on_c, 0, 52, 0
2, 103200, Note_on_c, 0, 50, 66
2, 103200, Note_on_c, 0, 53, 66
2, 103200, Note_on_c, 0, 59, 79
2, 103680, Note_on_c, 0, 59, 0
2, 103680, Note_on_c, 0, 53, 0
2, 103680, Note_on_c, 0, 50, 0
2, 103680, Note_on_c, 0, 52, 69
2, 103680, Note_on_c, 0, 60, 84
2, 103680, Note_on_c, 0, 55, 69
2, 104040, Note_on_c, 0, 53, 66
2, 104040, Note_on_c, 0, 57, 66
2, 104050, Note_on_c, 0, 55, 0
2, 104050, Note_on_c, 0, 52, 0
2, 104160, Note_on_c, 0, 60, 0
2, 104160, Note_on_c, 0, 55, 66
2, 104160, Note_on_c, 0, 52, 66
2, 104160, Note_on_c, 0, 60, 77
2, 104170, Note_on_c, 0, 57, 0
2, 104170, Note_on_c, 0, 53, 0
2, 104880, Note_on_c, 0, 52, 0
2, 104880, Note_on_c, 0, 55, 0
2, 104880, Note_on_c, 0, 60, 0
2, 104880, Note_on_c, 0, 57, 66
2, 104880, Note_on_c, 0, 62, 80
2, 105120, Note_on_c, 0, 62, 0
2, 105120, Note_on_c, 0, 57, 0
2, 105120, Note_on_c, 0, 56, 71
2, 105120, Note_on_c, 0, 59, 71
2, 105120, Note_on_c, 0, 64, 85
2, 105480, Note_on_c, 0, 62, 59
2, 105490, Note_on_c, 0, 64, 0
2, 105600, Note_on_c, 0, 56, 0
2, 105600, Note_on_c, 0, 59, 0
2, 105600, Note_on_c, 0, 57, 52
2, 105600, Note_on_c, 0, 61, 63
2, 105610, Note_on_c, 0, 62, 0
2, 105840, Note_on_c, 0, 61, 0
2, 105840, Note_on_c, 0, 57, 0
2, 105840, Note_on_c, 0, 54, 35
2, 105840, Note_on_c, 0, 57, 35
2, 105840, Note_on_c, 0, 64, 41
2, 105960, Note_on_c, 0, 64, 0
2, 105960, Note_on_c, 0, 57, 0
2, 105960, Note_on_c, 0, 54, 0
2, 105960, Note_on_c, 0, 62, 41
2, 106080, Note_on_c, 0, 62, 0
2, 106080, Note_on_c, 0, 52, 41
2, 106080, Note_on_c, 0, 57, 41
2, 106080, Note_on_c, 0, 61, 49
2, 106320, Note_on_c, 0, 61, 0
2, 106320, Note_on_c, 0, 57, 0
2, 106320, Note_on_c, 0, 52, 0
2, 106320, Note_on_c, 0, 50, 38
2, 106320, Note_on_c, 0, 52, 38
2, 106320, Note_on_c, 0, 56, 38
2, 106320, Note_on_c, 0, 59, 45
2, 106560, Note_on_c, 0, 59, 0
2, 106560, Note_on_c, 0, 50, 0
2, 106560, Note_on_c, 0, 52, 0
2, 106560, Note_on_c, 0, 56, 0
2, 106560, Note_on_c, 0, 50, 39
2, 106560, Note_on_c, 0, 52, 39
2, 106560, Note_on_c, 0, 56, 39
2, 106560, Note_on_c, 0, 59, 47
2, 107040, Note_on_c, 0, 59, 0
2, 107040, Note_on_c, 0, 56, 0
2, 107040, Note_on_c, 0, 50, 0
2, 107040, Note_on_c, 0, 49, 39
2, 107040, Note_on_c, 0, 57, 47
2, 107280, Note_on_c, 0, 52, 0
2, 107520, Note_on_c, 0, 57, 0
2, 107520, Note_on_c, 0, 49, 0
2, 108000, Note_on_c, 0, 71, 62
2, 108080, Note_on_c, 0, 68, 31
2, 108160, Note_on_c, 0, 68, 0
2, 108160, Note_on_c, 0, 64, 31
2, 108240, Note_on_c, 0, 64, 0
2, 108240, Note_on_c, 0, 68, 31
2, 108320, Note_on_c, 0, 68, 0
2, 108320, Note_on_c, 0, 64, 31
2, 108400, Note_on_c, 0, 64, 0
2, 108400, Note_on_c, 0, 59, 31
2, 108480, Note_on_c, 0, 59, 0
2, 108480, Note_on_c, 0, 71, 0
2, 108480, Note_on_c, 0, 71, 63
2, 108560, Note_on_c, 0, 68, 31
2, 108640, Note_on_c, 0, 68, 0
2, 108640, Note_on_c, 0, 64, 31
2, 108720, Note_on_c, 0, 64, 0
2, 108720, Note_on_c, 0, 68, 31
2, 108800, Note_on_c, 0, 68, 0
2, 108800, Note_on_c, 0, 64, 31
2, 108880, Note_on_c, 0, 64, 0
2, 108880, Note_on_c, 0, 59, 31
2, 108960, Note_on_c, 0, 59, 0
2, 108960, Note_on_c, 0, 71, 0
2, 108960, Note_on_c, 0, 73, 62
2, 109040, Note_on_c, 0, 70, 31
2, 109120, Note_on_c, 0, 70, 0
2, 109120, Note_on_c, 0, 66, 32
2, 109200, Note_on_c, 0, 66, 0
2, 109200, Note_on_c, 0, 70, 32
2, 109280, Note_on_c, 0, 70, 0
2, 109280, Note_on_c, 0, 66, 32
2, 109360, Note_on_c, 0, 66, 0
2, 109360, Note_on_c, 0, 64, 32
2, 109440, Note_on_c, 0, 64, 0
2, 109440, Note_on_c, 0, 73, 0
2, 109440, Note_on_c, 0, 74, 63
2, 109520, Note_on_c, 0, 71, 32
2, 109600, Note_on_c, 0, 71, 0
2, 109600, Note_on_c, 0, 66, 32
2, 109680, Note_on_c, 0, 66, 0
2, 109680, Note_on_c, 0, 71, 32
2, 109760, Note_on_c, 0, 71, 0
2, 109760, Note_on_c, 0, 66, 32
2, 109840, Note_on_c, 0, 66, 0
2, 109840, Note_on_c, 0, 73, 25
2, 109860, Note_on_c, 0, 74, 0
2, 109860, Note_on_c, 0, 76, 56
2, 109920, Note_on_c, 0, 76, 0
2, 109920, Note_on_c, 0, 73, 0
2, 109920, Note_on_c, 0, 78, 59
2, 110000, Note_on_c, 0, 74, 31
2, 110080, Note_on_c, 0, 74, 0
2, 110080, Note_on_c, 0, 71, 31
2, 110160, Note_on_c, 0, 71, 0
2, 110160, Note_on_c, 0, 74, 31
2, 110240, Note_on_c, 0, 74, 0
2, 110240, Note_on_c, 0, 71, 31
2, 110320, Note_on_c, 0, 71, 0
2, 110320, Note_on_c, 0, 66, 31
2, 110400, Note_on_c, 0, 66, 0
2, 110480, Note_on_c, 0, 74, 32
2, 110560, Note_on_c, 0, 74, 0
2, 110560, Note_on_c, 0, 71, 32
2, 110640, Note_on_c, 0, 71, 0
2, 110640, Note_on_c, 0, 78, 0
2, 110640, Note_on_c, 0, 74, 32
2, 110640, Note_on_c, 0, 78, 63
2, 110720, Note_on_c, 0, 74, 0
2, 110720, Note_on_c, 0, 71, 32
2, 110800, Note_on_c, 0, 71, 0
2, 110800, Note_on_c, 0, 68, 32
2, 110880, Note_on_c, 0, 68, 0
2, 110880, Note_on_c, 0, 78, 0
2, 110880, Note_on_c, 0, 78, 67
2, 110960, Note_on_c, 0, 74, 34
2, 111040, Note_on_c, 0, 74, 0
2, 111040, Note_on_c, 0, 69, 34
2, 111120, Note_on_c, 0, 69, 0
2, 111120, Note_on_c, 0, 74, 34
2, 111200, Note_on_c, 0, 74, 0
2, 111200, Note_on_c, 0, 69, 34
2, 111280, Note_on_c, 0, 69, 0
2, 111280, Note_on_c, 0, 71, 32
2, 111300, Note_on_c, 0, 78, 0
2, 111300, Note_on_c, 0, 79, 62
2, 111360, Note_on_c, 0, 79, 0
2, 111360, Note_on_c, 0, 71, 0
2, 111360, Note_on_c, 0, 81, 66
2, 111440, Note_on_c, 0, 69, 32
2, 111520, Note_on_c, 0, 69, 0
2, 111520, Note_on_c, 0, 74, 32
2, 111600, Note_on_c, 0, 74, 0
2, 111600, Note_on_c, 0, 81, 0
2, 111600, Note_on_c, 0, 79, 62
2, 111680, Note_on_c, 0, 71, 30
2, 111760, Note_on_c, 0, 71, 0
2, 111760, Note_on_c, 0, 74, 30
2, 111840, Note_on_c, 0, 74, 0
2, 111840, Note_on_c, 0, 79, 0
2, 111840, Note_on_c, 0, 78, 62
2, 111920, Note_on_c, 0, 69, 32
2, 112000, Note_on_c, 0, 69, 0
2, 112000, Note_on_c, 0, 74, 32
2, 112080, Note_on_c, 0, 74, 0
2, 112080, Note_on_c, 0, 78, 0
2, 112080, Note_on_c, 0, 76, 62
2, 112160, Note_on_c, 0, 67, 32
2, 112240, Note_on_c, 0, 67, 0
2, 112240, Note_on_c, 0, 69, 32
2, 112320, Note_on_c, 0, 69, 0
2, 112320, Note_on_c, 0, 76, 0
2, 112320, Note_on_c, 0, 76, 66
2, 112400, Note_on_c, 0, 73, 31
2, 112480, Note_on_c, 0, 73, 0
2, 112480, Note_on_c, 0, 69, 31
2, 112560, Note_on_c, 0, 69, 0
2, 112560, Note_on_c, 0, 73, 31
2, 112640, Note_on_c, 0, 73, 0
2, 112640, Note_on_c, 0, 69, 31
2, 112720, Note_on_c, 0, 69, 0
2, 112720, Note_on_c, 0, 67, 31
2, 112800, Note_on_c, 0, 67, 0
2, 112800, Note_on_c, 0, 76, 0
2, 112800, Note_on_c, 0, 74, 66
2, 112880, Note_on_c, 0, 69, 31
2, 112960, Note_on_c, 0, 69, 0
2, 112960, Note_on_c, 0, 66, 31
2, 113040, Note_on_c, 0, 66, 0
2, 113040, Note_on_c, 0, 69, 34
2, 113120, Note_on_c, 0, 69, 0
2, 113120, Note_on_c, 0, 66, 32
2, 113200, Note_on_c, 0, 66, 0
2, 113200, Note_on_c, 0, 62, 32
2, 113280, Note_on_c, 0, 62, 0
2, 113360, Note_on_c, 0, 66, 33
2, 113440, Note_on_c, 0, 66, 0
2, 113440, Note_on_c, 0, 62, 32
2, 113520, Note_on_c, 0, 62, 0
2, 113520, Note_on_c, 0, 69, 32
2, 113600, Note_on_c, 0, 69, 0
2, 113600, Note_on_c, 0, 66, 28
2, 113680, Note_on_c, 0, 66, 0
2, 113680, Note_on_c, 0, 62, 27
2, 113760, Note_on_c, 0, 62, 0
2, 113760, Note_on_c, 0, 74, 0
2, 113760, Note_on_c, 0, 70, 44
2, 113840, Note_on_c, 0, 65, 24
2, 113920, Note_on_c, 0, 65, 0
2, 113920, Note_on_c, 0, 62, 24
2, 114000, Note_on_c, 0, 62, 0
2, 114000, Note_on_c, 0, 65, 24
2, 114080, Note_on_c, 0, 65, 0
2, 114080, Note_on_c, 0, 62, 24
2, 114160, Note_on_c, 0, 62, 0
2, 114160, Note_on_c, 0, 58, 24
2, 114240, Note_on_c, 0, 58, 0
2, 114240, Note_on_c, 0, 70, 0
2, 114240, Note_on_c, 0, 70, 45
2, 114320, Note_on_c, 0, 65, 24
2, 114400, Note_on_c, 0, 65, 0
2, 114400, Note_on_c, 0, 62, 24
2, 114480, Note_on_c, 0, 62, 0
2, 114480, Note_on_c, 0, 65, 24
2, 114560, Note_on_c, 0, 65, 0
2, 114560, Note_on_c, 0, 62, 24
2, 114640, Note_on_c, 0, 62, 0
2, 114640, Note_on_c, 0, 58, 24
2, 114720, Note_on_c, 0, 58, 0
2, 114720, Note_on_c, 0, 70, 0
2, 114720, Note_on_c, 0, 70, 44
2, 114800, Note_on_c, 0, 65, 24
2, 114880, Note_on_c, 0, 65, 0
2, 114880, Note_on_c, 0, 62, 25
2, 114960, Note_on_c, 0, 62, 0
2, 114960, Note_on_c, 0, 65, 25
2, 115040, Note_on_c, 0, 65, 0
2, 115040, Note_on_c, 0, 62, 25
2, 115120, Note_on_c, 0, 62, 0
2, 115120, Note_on_c, 0, 58, 25
2, 115200, Note_on_c, 0, 58, 0
2, 115200, Note_on_c, 0, 70, 0
2, 115200, Note_on_c, 0, 70, 45
2, 115280, Note_on_c, 0, 67, 25
2, 115360, Note_on_c, 0, 67, 0
2, 115360, Note_on_c, 0, 63, 25
2, 115440, Note_on_c, 0, 63, 0
2, 115440, Note_on_c, 0, 67, 25
2, 115520, Note_on_c, 0, 67, 0
2, 115520, Note_on_c, 0, 63, 25
2, 115600, Note_on_c, 0, 63, 0
2, 115600, Note_on_c, 0, 58, 25
2, 115680, Note_on_c, 0, 58, 0
2, 115680, Note_on_c, 0, 70, 0
2, 115680, Note_on_c, 0, 67, 39
2, 115760, Note_on_c, 0, 63, 24
2, 115840, Note_on_c, 0, 63, 0
2, 115840, Note_on_c, 0, 58, 24
2, 115920, Note_on_c, 0, 58, 0
2, 115920, Note_on_c, 0, 67, 0
2, 115920, Note_on_c, 0, 79, 42
2, 116000, Note_on_c, 0, 75, 24
2, 116080, Note_on_c, 0, 75, 0
2, 116080, Note_on_c, 0, 67, 24
2, 116160, Note_on_c, 0, 67, 0
2, 116160, Note_on_c, 0, 79, 0
2, 116160, Note_on_c, 0, 77, 42
2, 116240, Note_on_c, 0, 71, 25
2, 116320, Note_on_c, 0, 71, 0
2, 116320, Note_on_c, 0, 67, 25
2, 116400, Note_on_c, 0, 67, 0
2, 116400, Note_on_c, 0, 77, 0
2, 116400, Note_on_c, 0, 75, 45
2, 116480, Note_on_c, 0, 72, 25
2, 116560, Note_on_c, 0, 72, 0
2, 116560, Note_on_c, 0, 67, 25
2, 116640, Note_on_c, 0, 67, 0
2, 116640, Note_on_c, 0, 75, 0
2, 116640, Note_on_c, 0, 74, 45
2, 116720, Note_on_c, 0, 70, 27
2, 116800, Note_on_c, 0, 70, 0
2, 116800, Note_on_c, 0, 65, 27
2, 116880, Note_on_c, 0, 65, 0
2, 116880, Note_on_c, 0, 70, 27
2, 116960, Note_on_c, 0, 70, 0
2, 116960, Note_on_c, 0, 65, 27
2, 117040, Note_on_c, 0, 65, 0
2, 117040, Note_on_c, 0, 62, 25
2, 117120, Note_on_c, 0, 62, 0
2, 117200, Note_on_c, 0, 70, 27
2, 117280, Note_on_c, 0, 70, 0
2, 117280, Note_on_c, 0, 65, 27
2, 117360, Note_on_c, 0, 65, 0
2, 117360, Note_on_c, 0, 70, 27
2, 117440, Note_on_c, 0, 70, 0
2, 117440, Note_on_c, 0, 65, 25
2, 117520, Note_on_c, 0, 65, 0
2, 117520, Note_on_c, 0, 62, 25
2, 117600, Note_on_c, 0, 62, 0
2, 117600, Note_on_c, 0, 74, 0
2, 117600, Note_on_c, 0, 75, 44
2, 117680, Note_on_c, 0, 72, 25
2, 117760, Note_on_c, 0, 72, 0
2, 117760, Note_on_c, 0, 69, 25
2, 117840, Note_on_c, 0, 69, 0
2, 117840, Note_on_c, 0, 72, 27
2, 117920, Note_on_c, 0, 69, 25
2, 118000, Note_on_c, 0, 69, 0
2, 118000, Note_on_c, 0, 63, 25
2, 118020, Note_on_c, 0, 75, 0
2, 118020, Note_on_c, 0, 72, 39
2, 118080, Note_on_c, 0, 72, 0
2, 118080, Note_on_c, 0, 63, 0
2, 118080, Note_on_c, 0, 72, 0
2, 118080, Note_on_c, 0, 71, 43
2, 118160, Note_on_c, 0, 68, 24
2, 118240, Note_on_c, 0, 68, 0
2, 118240, Note_on_c, 0, 62, 24
2, 118320, Note_on_c, 0, 62, 0
2, 118320, Note_on_c, 0, 68, 24
2, 118400, Note_on_c, 0, 68, 0
2, 118400, Note_on_c, 0, 62, 24
2, 118480, Note_on_c, 0, 62, 0
2, 118480, Note_on_c, 0, 59, 24
2, 118560, Note_on_c, 0, 59, 0
2, 118640, Note_on_c, 0, 68, 24
2, 118720, Note_on_c, 0, 68, 0
2, 118720, Note_on_c, 0, 62, 24
2, 118800, Note_on_c, 0, 62, 0
2, 118800, Note_on_c, 0, 68, 27
2, 118880, Note_on_c, 0, 68, 0
2, 118880, Note_on_c, 0, 62, 25
2, 118960, Note_on_c, 0, 62, 0
2, 118960, Note_on_c, 0, 59, 25
2, 119040, Note_on_c, 0, 59, 0
2, 119120, Note_on_c, 0, 68, 27
2, 119200, Note_on_c, 0, 68, 0
2, 119200, Note_on_c, 0, 62, 27
2, 119280, Note_on_c, 0, 62, 0
2, 119280, Note_on_c, 0, 68, 28
2, 119360, Note_on_c, 0, 68, 0
2, 119360, Note_on_c, 0, 62, 25
2, 119440, Note_on_c, 0, 62, 0
2, 119440, Note_on_c, 0, 59, 25
2, 119520, Note_on_c, 0, 59, 0
2, 119520, Note_on_c, 0, 71, 0
2, 119520, Note_on_c, 0, 71, 42
2, 119600, Note_on_c, 0, 68, 24
2, 119680, Note_on_c, 0, 68, 0
2, 119680, Note_on_c, 0, 61, 24
2, 119760, Note_on_c, 0, 61, 0
2, 119760, Note_on_c, 0, 68, 24
2, 119840, Note_on_c, 0, 68, 0
2, 119840, Note_on_c, 0, 61, 24
2, 119920, Note_on_c, 0, 61, 0
2, 119920, Note_on_c, 0, 59, 24
2, 120000, Note_on_c, 0, 59, 0
2, 120080, Note_on_c, 0, 68, 24
2, 120160, Note_on_c, 0, 68, 0
2, 120160, Note_on_c, 0, 61, 24
2, 120240, Note_on_c, 0, 61, 0
2, 120240, Note_on_c, 0, 68, 27
2, 120320, Note_on_c, 0, 68, 0
2, 120320, Note_on_c, 0, 61, 25
2, 120400, Note_on_c, 0, 61, 0
2, 120400, Note_on_c, 0, 59, 25
2, 120480, Note_on_c, 0, 59, 0
2, 120480, Note_on_c, 0, 71, 0
2, 120480, Note_on_c, 0, 71, 43
2, 120560, Note_on_c, 0, 68, 27
2, 120640, Note_on_c, 0, 68, 0
2, 120640, Note_on_c, 0, 62, 27
2, 120720, Note_on_c, 0, 62, 0
2, 120720, Note_on_c, 0, 68, 28
2, 120800, Note_on_c, 0, 68, 0
2, 120800, Note_on_c, 0, 62, 26
2, 120880, Note_on_c, 0, 62, 0
2, 120880, Note_on_c, 0, 59, 27
2, 120960, Note_on_c, 0, 59, 0
2, 120960, Note_on_c, 0, 71, 0
2, 120960, Note_on_c, 0, 71, 44
2, 121040, Note_on_c, 0, 66, 26
2, 121120, Note_on_c, 0, 66, 0
2, 121120, Note_on_c, 0, 62, 26
2, 121200, Note_on_c, 0, 62, 0
2, 121200, Note_on_c, 0, 66, 25
2, 121280, Note_on_c, 0, 66, 0
2, 121280, Note_on_c, 0, 62, 25
2, 121360, Note_on_c, 0, 62, 0
2, 121360, Note_on_c, 0, 61, 24
2, 121380, Note_on_c, 0, 71, 0
2, 121380, Note_on_c, 0, 69, 41
2, 121430, Note_on_c, 0, 69, 0
2, 121440, Note_on_c, 0, 61, 0
2, 121440, Note_on_c, 0, 69, 42
2, 121520, Note_on_c, 0, 66, 24
2, 121600, Note_on_c, 0, 66, 0
2, 121600, Note_on_c, 0, 61, 24
2, 121680, Note_on_c, 0, 61, 0
2, 121680, Note_on_c, 0, 66, 27
2, 121760, Note_on_c, 0, 66, 0
2, 121760, Note_on_c, 0, 61, 25
2, 121840, Note_on_c, 0, 61, 0
2, 121840, Note_on_c, 0, 57, 25
2, 121920, Note_on_c, 0, 57, 0
2, 122000, Note_on_c, 0, 66, 27
2, 122080, Note_on_c, 0, 66, 0
2, 122080, Note_on_c, 0, 61, 27
2, 122160, Note_on_c, 0, 61, 0
2, 122160, Note_on_c, 0, 66, 28
2, 122240, Note_on_c, 0, 66, 0
2, 122240, Note_on_c, 0, 61, 25
2, 122320, Note_on_c, 0, 61, 0
2, 122320, Note_on_c, 0, 57, 25
2, 122400, Note_on_c, 0, 57, 0
2, 122400, Note_on_c, 0, 69, 0
2, 122400, Note_on_c, 0, 69, 43
2, 122480, Note_on_c, 0, 66, 24
2, 122560, Note_on_c, 0, 66, 0
2, 122560, Note_on_c, 0, 61, 24
2, 122640, Note_on_c, 0, 61, 0
2, 122640, Note_on_c, 0, 66, 24
2, 122720, Note_on_c, 0, 66, 0
2, 122720, Note_on_c, 0, 61, 24
2, 122800, Note_on_c, 0, 61, 0
2, 122800, Note_on_c, 0, 57, 24
2, 122880, Note_on_c, 0, 57, 0
2, 122960, Note_on_c, 0, 66, 24
2, 123040, Note_on_c, 0, 66, 0
2, 123040, Note_on_c, 0, 61, 24
2, 123120, Note_on_c, 0, 61, 0
2, 123120, Note_on_c, 0, 66, 27
2, 123200, Note_on_c, 0, 66, 0
2, 123200, Note_on_c, 0, 61, 25
2, 123280, Note_on_c, 0, 61, 0
2, 123280, Note_on_c, 0, 57, 25
2, 123360, Note_on_c, 0, 57, 0
2, 123360, Note_on_c, 0, 69, 0
2, 123360, Note_on_c, 0, 69, 41
2, 123440, Note_on_c, 0, 66, 27
2, 123520, Note_on_c, 0, 66, 0
2, 123520, Note_on_c, 0, 62, 27
2, 123600, Note_on_c, 0, 62, 0
2, 123600, Note_on_c, 0, 66, 28
2, 123680, Note_on_c, 0, 66, 0
2, 123680, Note_on_c, 0, 62, 26
2, 123760, Note_on_c, 0, 62, 0
2, 123760, Note_on_c, 0, 57, 27
2, 123840, Note_on_c, 0, 57, 0
2, 123840, Note_on_c, 0, 69, 0
2, 123840, Note_on_c, 0, 69, 45
2, 123920, Note_on_c, 0, 66, 26
2, 124000, Note_on_c, 0, 66, 0
2, 124000, Note_on_c, 0, 61, 26
2, 124080, Note_on_c, 0, 61, 0
2, 124080, Note_on_c, 0, 66, 25
2, 124160, Note_on_c, 0, 66, 0
2, 124160, Note_on_c, 0, 61, 25
2, 124240, Note_on_c, 0, 61, 0
2, 124240, Note_on_c, 0, 64, 24
2, 124260, Note_on_c, 0, 69, 0
2, 124260, Note_on_c, 0, 68, 43
2, 124313, Note_on_c, 0, 68, 0
2, 124320, Note_on_c, 0, 64, 0
2, 124320, Note_on_c, 0, 68, 41
2, 124400, Note_on_c, 0, 64, 24
2, 124480, Note_on_c, 0, 64, 0
2, 124480, Note_on_c, 0, 61, 24
2, 124560, Note_on_c, 0, 61, 0
2, 124560, Note_on_c, 0, 64, 27
2, 124640, Note_on_c, 0, 64, 0
2, 124640, Note_on_c, 0, 61, 25
2, 124720, Note_on_c, 0, 61, 0
2, 124720, Note_on_c, 0, 56, 25
2, 124800, Note_on_c, 0, 56, 0
2, 124880, Note_on_c, 0, 64, 27
2, 124960, Note_on_c, 0, 64, 0
2, 124960, Note_on_c, 0, 61, 27
2, 125040, Note_on_c, 0, 61, 0
2, 125040, Note_on_c, 0, 64, 28
2, 125120, Note_on_c, 0, 64, 0
2, 125120, Note_on_c, 0, 61, 25
2, 125200, Note_on_c, 0, 61, 0
2, 125200, Note_on_c, 0, 56, 25
2, 125280, Note_on_c, 0, 56, 0
2, 125280, Note_on_c, 0, 68, 0
2, 125280, Note_on_c, 0, 68, 40
2, 125360, Note_on_c, 0, 63, 23
2, 125440, Note_on_c, 0, 63, 0
2, 125440, Note_on_c, 0, 61, 23
2, 125520, Note_on_c, 0, 61, 0
2, 125520, Note_on_c, 0, 63, 23
2, 125600, Note_on_c, 0, 63, 0
2, 125600, Note_on_c, 0, 61, 22
2, 125680, Note_on_c, 0, 61, 0
2, 125680, Note_on_c, 0, 56, 22
2, 125760, Note_on_c, 0, 56, 0
2, 125840, Note_on_c, 0, 63, 22
2, 125920, Note_on_c, 0, 63, 0
2, 125920, Note_on_c, 0, 61, 22
2, 126000, Note_on_c, 0, 61, 0
2, 126000, Note_on_c, 0, 63, 23
2, 126080, Note_on_c, 0, 63, 0
2, 126080, Note_on_c, 0, 61, 22
2, 126160, Note_on_c, 0, 61, 0
2, 126160, Note_on_c, 0, 56, 22
2, 126240, Note_on_c, 0, 56, 0
2, 126240, Note_on_c, 0, 68, 0
2, 126240, Note_on_c, 0, 68, 37
2, 126320, Note_on_c, 0, 63, 22
2, 126400, Note_on_c, 0, 63, 0
2, 126400, Note_on_c, 0, 60, 22
2, 126480, Note_on_c, 0, 60, 0
2, 126480, Note_on_c, 0, 63, 23
2, 126560, Note_on_c, 0, 63, 0
2, 126560, Note_on_c, 0, 60, 21
2, 126640, Note_on_c, 0, 60, 0
2, 126640, Note_on_c, 0, 56, 22
2, 126720, Note_on_c, 0, 56, 0
2, 126720, Note_on_c, 0, 68, 0
2, 128160, Note_on_c, 0, 64, 33
2, 128160, Note_on_c, 0, 68, 39
2, 128880, Note_on_c, 0, 73, 26
2, 129120, Note_on_c, 0, 73, 0
2, 129120, Note_on_c, 0, 68, 0
2, 129120, Note_on_c, 0, 64, 0
2, 129120, Note_on_c, 0, 64, 29
2, 129120, Note_on_c, 0, 68, 34
2, 129540, Note_on_c, 0, 68, 0
2, 129540, Note_on_c, 0, 64, 0
2, 129540, Note_on_c, 0, 63, 25
2, 129540, Note_on_c, 0, 66, 30
2, 129597, Note_on_c, 0, 66, 0
2, 129597, Note_on_c, 0, 63, 0
2, 129600, Note_on_c, 0, 63, 30
2, 129600, Note_on_c, 0, 66, 37
2, 130320, Note_on_c, 0, 73, 28
2, 130560, Note_on_c, 0, 73, 0
2, 130560, Note_on_c, 0, 66, 0
2, 130560, Note_on_c, 0, 63, 0
2, 130560, Note_on_c, 0, 63, 31
2, 130560, Note_on_c, 0, 66, 37
2, 131040, Note_on_c, 0, 66, 0
2, 131040, Note_on_c, 0, 63, 0
2, 131040, Note_on_c, 0, 66, 34
2, 131040, Note_on_c, 0, 69, 41
2, 131760, Note_on_c, 0, 73, 28
2, 132000, Note_on_c, 0, 73, 0
2, 132000, Note_on_c, 0, 69, 0
2, 132000, Note_on_c, 0, 66, 0
2, 132000, Note_on_c, 0, 66, 28
2, 132000, Note_on_c, 0, 69, 33
2, 132240, Note_on_c, 0, 69, 0
2, 132240, Note_on_c, 0, 66, 0
2, 132240, Note_on_c, 0, 64, 25
2, 132240, Note_on_c, 0, 68, 30
2, 132360, Note_on_c, 0, 68, 0
2, 132360, Note_on_c, 0, 64, 0
2, 132360, Note_on_c, 0, 63, 23
2, 132360, Note_on_c, 0, 66, 28
2, 132480, Note_on_c, 0, 66, 0
2, 132480, Note_on_c, 0, 63, 0
2, 132480, Note_on_c, 0, 64, 33
2, 132480, Note_on_c, 0, 68, 39
2, 133200, Note_on_c, 0, 73, 27
2, 133440, Note_on_c, 0, 73, 0
2, 133440, Note_on_c, 0, 68, 0
2, 133440, Note_on_c, 0, 64, 0
2, 133440, Note_on_c, 0, 64, 29
2, 133440, Note_on_c, 0, 68, 34
2, 133920, Note_on_c, 0, 68, 0
2, 133920, Note_on_c, 0, 64, 0
2, 133920, Note_on_c, 0, 65, 34
2, 133920, Note_on_c, 0, 71, 41
2, 134640, Note_on_c, 0, 73, 31
2, 134880, Note_on_c, 0, 73, 0
2, 134880, Note_on_c, 0, 71, 0
2, 134880, Note_on_c, 0, 65, 0
2, 134880, Note_on_c, 0, 65, 28
2, 134880, Note_on_c, 0, 71, 33
2, 135000, Note_on_c, 0, 65, 0
2, 135000, Note_on_c, 0, 68, 28
2, 135120, Note_on_c, 0, 68, 0
2, 135120, Note_on_c, 0, 71, 0
2, 135120, Note_on_c, 0, 66, 25
2, 135120, Note_on_c, 0, 69, 30
2, 135240, Note_on_c, 0, 69, 0
2, 135240, Note_on_c, 0, 66, 0
2, 135240, Note_on_c, 0, 65, 23
2, 135240, Note_on_c, 0, 68, 28
2, 135360, Note_on_c, 0, 68, 0
2, 135360, Note_on_c, 0, 65, 0
2, 135360, Note_on_c, 0, 66, 34
2, 135360, Note_on_c, 0, 69, 41
2, 136080, Note_on_c, 0, 69, 0
2, 136080, Note_on_c, 0, 66, 0
2, 136080, Note_on_c, 0, 66, 23
2, 136080, Note_on_c, 0, 69, 28
2, 136080, Note_on_c, 0, 73, 34
2, 136308, Note_on_c, 0, 73, 0
2, 136308, Note_on_c, 0, 69, 0
2, 136308, Note_on_c, 0, 66, 0
2, 136320, Note_on_c, 0, 66, 34
2, 136320, Note_on_c, 0, 69, 40
2, 136548, Note_on_c, 0, 69, 0
2, 136548, Note_on_c, 0, 66, 0
2, 136560, Note_on_c, 0, 66, 34
2, 136560, Note_on_c, 0, 69, 41
2, 136788, Note_on_c, 0, 69, 0
2, 136788, Note_on_c, 0, 66, 0
2, 136800, Note_on_c, 0, 69, 41
2, 136800, Note_on_c, 0, 73, 49
2, 137520, Note_on_c, 0, 73, 38
2, 137760, Note_on_c, 0, 73, 0
2, 137760, Note_on_c, 0, 73, 0
2, 137760, Note_on_c, 0, 69, 0
2, 137760, Note_on_c, 0, 69, 33
2, 137760, Note_on_c, 0, 73, 39
2, 138120, Note_on_c, 0, 73, 0
2, 138120, Note_on_c, 0, 69, 0
2, 138120, Note_on_c, 0, 66, 23
2, 138120, Note_on_c, 0, 69, 28
2, 138240, Note_on_c, 0, 69, 0
2, 138240, Note_on_c, 0, 66, 0
2, 138240, Note_on_c, 0, 64, 30
2, 138240, Note_on_c, 0, 68, 37
2, 138960, Note_on_c, 0, 73, 28
2, 139200, Note_on_c, 0, 73, 0
2, 139440, Note_on_c, 0, 68, 0
2, 139440, Note_on_c, 0, 64, 0
2, 139440, Note_on_c, 0, 64, 34
2, 139440, Note_on_c, 0, 68, 41
2, 139680, Note_on_c, 0, 68, 0
2, 139680, Note_on_c, 0, 64, 0
2, 139680, Note_on_c, 0, 64, 42
2, 139680, Note_on_c, 0, 69, 42
2, 139680, Note_on_c, 0, 73, 50
2, 140040, Note_on_c, 0, 73, 0
2, 140040, Note_on_c, 0, 69, 0
2, 140040, Note_on_c, 0, 64, 0
2, 140040, Note_on_c, 0, 63, 37
2, 140040, Note_on_c, 0, 68, 37
2, 140040, Note_on_c, 0, 72, 44
2, 140154, Note_on_c, 0, 72, 0
2, 140154, Note_on_c, 0, 68, 0
2, 140154, Note_on_c, 0, 63, 0
2, 140160, Note_on_c, 0, 63, 42
2, 140160, Note_on_c, 0, 68, 42
2, 140160, Note_on_c, 0, 72, 49
2, 140400, Note_on_c, 0, 80, 43
2, 140640, Note_on_c, 0, 80, 0
2, 140880, Note_on_c, 0, 63, 0
2, 140880, Note_on_c, 0, 68, 0
2, 140880, Note_on_c, 0, 72, 0
2, 140880, Note_on_c, 0, 68, 45
2, 140880, Note_on_c, 0, 72, 55
2, 141120, Note_on_c, 0, 72, 0
2, 141120, Note_on_c, 0, 68, 0
2, 141120, Note_on_c, 0, 67, 51
2, 141120, Note_on_c, 0, 73, 51
2, 141120, Note_on_c, 0, 76, 60
2, 141480, Note_on_c, 0, 76, 0
2, 141480, Note_on_c, 0, 73, 0
2, 141480, Note_on_c, 0, 67, 0
2, 141480, Note_on_c, 0, 68, 45
2, 141480, Note_on_c, 0, 72, 45
2, 141480, Note_on_c, 0, 75, 53
2, 141594, Note_on_c, 0, 75, 0
2, 141594, Note_on_c, 0, 72, 0
2, 141594, Note_on_c, 0, 68, 0
2, 141600, Note_on_c, 0, 68, 50
2, 141600, Note_on_c, 0, 72, 50
2, 141600, Note_on_c, 0, 75, 60
2, 141840, Note_on_c, 0, 80, 53
2, 142080, Note_on_c, 0, 80, 0
2, 142320, Note_on_c, 0, 68, 0
2, 142320, Note_on_c, 0, 72, 0
2, 142320, Note_on_c, 0, 75, 0
2, 142320, Note_on_c, 0, 68, 52
2, 142320, Note_on_c, 0, 72, 52
2, 142320, Note_on_c, 0, 75, 63
2, 142560, Note_on_c, 0, 75, 0
2, 142560, Note_on_c, 0, 72, 0
2, 142560, Note_on_c, 0, 68, 0
2, 142560, Note_on_c, 0, 68, 58
2, 142560, Note_on_c, 0, 76, 58
2, 142560, Note_on_c, 0, 80, 69
2, 142920, Note_on_c, 0, 80, 0
2, 142920, Note_on_c, 0, 76, 0
2, 142920, Note_on_c, 0, 68, 0
2, 142920, Note_on_c, 0, 69, 52
2, 142920, Note_on_c, 0, 75, 52
2, 142920, Note_on_c, 0, 78, 61
2, 143034, Note_on_c, 0, 78, 0
2, 143034, Note_on_c, 0, 75, 0
2, 143034, Note_on_c, 0, 69, 0
2, 143040, Note_on_c, 0, 69, 58
2, 143040, Note_on_c, 0, 75, 58
2, 143040, Note_on_c, 0, 78, 69
2, 143280, Note_on_c, 0, 80, 61
2, 143520, Note_on_c, 0, 80, 0
2, 143760, Note_on_c, 0, 69, 0
2, 143760, Note_on_c, 0, 75, 0
2, 143760, Note_on_c, 0, 78, 0
2, 143760, Note_on_c, 0, 69, 60
2, 143760, Note_on_c, 0, 75, 60
2, 143760, Note_on_c, 0, 78, 73
2, 144000, Note_on_c, 0, 78, 0
2, 144000, Note_on_c, 0, 75, 0
2, 144000, Note_on_c, 0, 69, 0
2, 144000, Note_on_c, 0, 73, 68
2, 144000, Note_on_c, 0, 76, 68
2, 144000, Note_on_c, 0, 81, 80
2, 144360, Note_on_c, 0, 81, 0
2, 144360, Note_on_c, 0, 76, 0
2, 144360, Note_on_c, 0, 73, 0
2, 144360, Note_on_c, 0, 72, 60
2, 144360, Note_on_c, 0, 75, 60
2, 144360, Note_on_c, 0, 80, 70
2, 144474, Note_on_c, 0, 80, 0
2, 144474, Note_on_c, 0, 75, 0
2, 144474, Note_on_c, 0, 72, 0
2, 144480, Note_on_c, 0, 72, 67
2, 144480, Note_on_c, 0, 75, 67
2, 144480, Note_on_c, 0, 80, 79
2, 146880, Note_on_c, 0, 80, 0
2, 146880, Note_on_c, 0, 75, 0
2, 146880, Note_on_c, 0, 72, 0
2, 146880, Note_on_c, 0, 72, 34
2, 146880, Note_on_c, 0, 76, 34
2, 146880, Note_on_c, 0, 79, 41
2, 148080, Note_on_c, 0, 79, 0
2, 148080, Note_on_c, 0, 76, 0
2, 148080, Note_on_c, 0, 72, 0
2, 148080, Note_on_c, 0, 72, 30
2, 148080, Note_on_c, 0, 79, 30
2, 148080, Note_on_c, 0, 84, 37
2, 148320, Note_on_c, 0, 84, 0
2, 148320, Note_on_c, 0, 79, 0
2, 148320, Note_on_c, 0, 72, 0
2, 148320, Note_on_c, 0, 72, 34
2, 148320, Note_on_c, 0, 77, 34
2, 148320, Note_on_c, 0, 83, 41
2, 148680, Note_on_c, 0, 83, 0
2, 148680, Note_on_c, 0, 81, 41
2, 148794, Note_on_c, 0, 81, 0
2, 148800, Note_on_c, 0, 77, 0
2, 148800, Note_on_c, 0, 72, 0
2, 148800, Note_on_c, 0, 72, 34
2, 148800, Note_on_c, 0, 77, 34
2, 148800, Note_on_c, 0, 81, 41
2, 149520, Note_on_c, 0, 81, 0
2, 149520, Note_on_c, 0, 77, 0
2, 149520, Note_on_c, 0, 72, 0
2, 149520, Note_on_c, 0, 81, 36
2, 149520, Note_on_c, 0, 72, 30
2, 149520, Note_on_c, 0, 76, 30
2, 149760, Note_on_c, 0, 76, 0
2, 149760, Note_on_c, 0, 72, 0
2, 149760, Note_on_c, 0, 81, 0
2, 149760, Note_on_c, 0, 72, 34
2, 149760, Note_on_c, 0, 74, 34
2, 149760, Note_on_c, 0, 81, 41
2, 150120, Note_on_c, 0, 81, 0
2, 150120, Note_on_c, 0, 72, 0
2, 150120, Note_on_c, 0, 71, 38
2, 150120, Note_on_c, 0, 79, 41
2, 150234, Note_on_c, 0, 79, 0
2, 150234, Note_on_c, 0, 71, 0
2, 150240, Note_on_c, 0, 74, 0
2, 150240, Note_on_c, 0, 71, 34
2, 150240, Note_on_c, 0, 74, 34
2, 150240, Note_on_c, 0, 79, 41
2, 150960, Note_on_c, 0, 79, 0
2, 150960, Note_on_c, 0, 74, 0
2, 150960, Note_on_c, 0, 71, 0
2, 150960, Note_on_c, 0, 69, 28
2, 150960, Note_on_c, 0, 72, 28
2, 150960, Note_on_c, 0, 77, 34
2, 151200, Note_on_c, 0, 77, 0
2, 151200, Note_on_c, 0, 72, 0
2, 151200, Note_on_c, 0, 69, 0
2, 151200, Note_on_c, 0, 67, 28
2, 151200, Note_on_c, 0, 72, 28
2, 151200, Note_on_c, 0, 76, 34
2, 151680, Note_on_c, 0, 76, 0
2, 151680, Note_on_c, 0, 72, 0
2, 151680, Note_on_c, 0, 67, 0
2, 151680, Note_on_c, 0, 64, 25
2, 151680, Note_on_c, 0, 67, 25
2, 151680, Note_on_c, 0, 72, 30
2, 151920, Note_on_c, 0, 84, 29
2, 152040, Note_on_c, 0, 84, 0
2, 152640, Note_on_c, 0, 64, 0
2, 152640, Note_on_c, 0, 67, 0
2, 152640, Note_on_c, 0, 72, 0
2, 152640, Note_on_c, 0, 60, 33
2, 152640, Note_on_c, 0, 64, 39
2, 153360, Note_on_c, 0, 79, 28
2, 153480, Note_on_c, 0, 79, 0
2, 153600, Note_on_c, 0, 64, 0
2, 153600, Note_on_c, 0, 60, 0
2, 153600, Note_on_c, 0, 60, 29
2, 153600, Note_on_c, 0, 64, 34
2, 153960, Note_on_c, 0, 64, 0
2, 153960, Note_on_c, 0, 60, 0
2, 153960, Note_on_c, 0, 59, 28
2, 153960, Note_on_c, 0, 62, 34
2, 154074, Note_on_c, 0, 62, 0
2, 154074, Note_on_c, 0, 59, 0
2, 154080, Note_on_c, 0, 59, 34
2, 154080, Note_on_c, 0, 62, 41
2, 154800, Note_on_c, 0, 79, 28
2, 154920, Note_on_c, 0, 79, 0
2, 155040, Note_on_c, 0, 62, 0
2, 155040, Note_on_c, 0, 59, 0
2, 155040, Note_on_c, 0, 59, 31
2, 155040, Note_on_c, 0, 62, 37
2, 155520, Note_on_c, 0, 62, 0
2, 155520, Note_on_c, 0, 59, 0
2, 155520, Note_on_c, 0, 57, 34
2, 155520, Note_on_c, 0, 65, 41
2, 156240, Note_on_c, 0, 79, 28
2, 156360, Note_on_c, 0, 79, 0
2, 156480, Note_on_c, 0, 65, 0
2, 156480, Note_on_c, 0, 57, 0
2, 156480, Note_on_c, 0, 59, 28
2, 156480, Note_on_c, 0, 65, 33
2, 156600, Note_on_c, 0, 59, 0
2, 156600, Note_on_c, 0, 62, 24
2, 156720, Note_on_c, 0, 62, 0
2, 156720, Note_on_c, 0, 65, 0
2, 156720, Note_on_c, 0, 60, 25
2, 156720, Note_on_c, 0, 64, 30
2, 156840, Note_on_c, 0, 64, 0
2, 156840, Note_on_c, 0, 60, 0
2, 156840, Note_on_c, 0, 59, 23
2, 156840, Note_on_c, 0, 62, 28
2, 156960, Note_on_c, 0, 62, 0
2, 156960, Note_on_c, 0, 59, 0
2, 156960, Note_on_c, 0, 60, 33
2, 156960, Note_on_c, 0, 64, 39
2, 157680, Note_on_c, 0, 64, 0
2, 157680, Note_on_c, 0, 60, 0
2, 157680, Note_on_c, 0, 60, 29
2, 157680, Note_on_c, 0, 64, 35
2, 157680, Note_on_c, 0, 79, 29
2, 157800, Note_on_c, 0, 79, 0
2, 157800, Note_on_c, 0, 64, 0
2, 157800, Note_on_c, 0, 60, 0
2, 157920, Note_on_c, 0, 59, 29
2, 157920, Note_on_c, 0, 64, 35
2, 158040, Note_on_c, 0, 64, 0
2, 158040, Note_on_c, 0, 59, 0
2, 158160, Note_on_c, 0, 58, 29
2, 158160, Note_on_c, 0, 66, 35
2, 158280, Note_on_c, 0, 66, 0
2, 158280, Note_on_c, 0, 58, 0
2, 158400, Note_on_c, 0, 59, 33
2, 158400, Note_on_c, 0, 68, 39
2, 158640, Note_on_c, 0, 59, 0
2, 158640, Note_on_c, 0, 64, 33
2, 159120, Note_on_c, 0, 71, 27
2, 159240, Note_on_c, 0, 71, 0
2, 159360, Note_on_c, 0, 64, 0
2, 159360, Note_on_c, 0, 68, 0
2, 159360, Note_on_c, 0, 64, 29
2, 159360, Note_on_c, 0, 68, 34
2, 159720, Note_on_c, 0, 68, 0
2, 159720, Note_on_c, 0, 64, 0
2, 159720, Note_on_c, 0, 63, 28
2, 159720, Note_on_c, 0, 66, 34
2, 159834, Note_on_c, 0, 66, 0
2, 159834, Note_on_c, 0, 63, 0
2, 159840, Note_on_c, 0, 63, 34
2, 159840, Note_on_c, 0, 66, 41
2, 160560, Note_on_c, 0, 71, 27
2, 160680, Note_on_c, 0, 71, 0
2, 160800, Note_on_c, 0, 66, 0
2, 160800, Note_on_c, 0, 63, 0
2, 160800, Note_on_c, 0, 63, 31
2, 160800, Note_on_c, 0, 66, 37
2, 161280, Note_on_c, 0, 66, 0
2, 161280, Note_on_c, 0, 63, 0
2, 161280, Note_on_c, 0, 61, 34
2, 161280, Note_on_c, 0, 69, 41
2, 162000, Note_on_c, 0, 71, 28
2, 162120, Note_on_c, 0, 71, 0
2, 162240, Note_on_c, 0, 69, 0
2, 162240, Note_on_c, 0, 61, 0
2, 162240, Note_on_c, 0, 63, 28
2, 162240, Note_on_c, 0, 69, 33
2, 162360, Note_on_c, 0, 63, 0
2, 162360, Note_on_c, 0, 66, 24
2, 162480, Note_on_c, 0, 66, 0
2, 162480, Note_on_c, 0, 69, 0
2, 162480, Note_on_c, 0, 64, 25
2, 162480, Note_on_c, 0, 68, 30
2, 162600, Note_on_c, 0, 68, 0
2, 162600, Note_on_c, 0, 64, 0
2, 162600, Note_on_c, 0, 63, 23
2, 162600, Note_on_c, 0, 66, 28
2, 162720, Note_on_c, 0, 66, 0
2, 162720, Note_on_c, 0, 63, 0
2, 162720, Note_on_c, 0, 64, 33
2, 162720, Note_on_c, 0, 68, 39
2, 163440, Note_on_c, 0, 71, 28
2, 163560, Note_on_c, 0, 71, 0
2, 163920, Note_on_c, 0, 68, 0
2, 163920, Note_on_c, 0, 64, 0
2, 163920, Note_on_c, 0, 68, 30
2, 163920, Note_on_c, 0, 71, 37
2, 164160, Note_on_c, 0, 71, 0
2, 164160, Note_on_c, 0, 68, 0
2, 164160, Note_on_c, 0, 68, 44
2, 164160, Note_on_c, 0, 71, 44
2, 164160, Note_on_c, 0, 76, 51
2, 164520, Note_on_c, 0, 76, 0
2, 164520, Note_on_c, 0, 71, 0
2, 164520, Note_on_c, 0, 68, 0
2, 164520, Note_on_c, 0, 66, 39
2, 164520, Note_on_c, 0, 71, 39
2, 164520, Note_on_c, 0, 75, 47
2, 164634, Note_on_c, 0, 75, 0
2, 164634, Note_on_c, 0, 71, 0
2, 164634, Note_on_c, 0, 66, 0
2, 164640, Note_on_c, 0, 66, 44
2, 164640, Note_on_c, 0, 71, 44
2, 164640, Note_on_c, 0, 75, 53
2, 164880, Note_on_c, 0, 83, 46
2, 165120, Note_on_c, 0, 83, 0
2, 165360, Note_on_c, 0, 66, 0
2, 165360, Note_on_c, 0, 71, 0
2, 165360, Note_on_c, 0, 75, 0
2, 165360, Note_on_c, 0, 66, 49
2, 165360, Note_on_c, 0, 71, 49
2, 165360, Note_on_c, 0, 75, 60
2, 165600, Note_on_c, 0, 75, 0
2, 165600, Note_on_c, 0, 71, 0
2, 165600, Note_on_c, 0, 66, 0
2, 165600, Note_on_c, 0, 71, 55
2, 165600, Note_on_c, 0, 76, 55
2, 165600, Note_on_c, 0, 80, 65
2, 165960, Note_on_c, 0, 80, 0
2, 165960, Note_on_c, 0, 76, 0
2, 165960, Note_on_c, 0, 75, 50
2, 165960, Note_on_c, 0, 78, 59
2, 166074, Note_on_c, 0, 78, 0
2, 166074, Note_on_c, 0, 75, 0
2, 166080, Note_on_c, 0, 71, 0
2, 166080, Note_on_c, 0, 71, 57
2, 166080, Note_on_c, 0, 75, 57
2, 166080, Note_on_c, 0, 78, 67
2, 166320, Note_on_c, 0, 83, 60
2, 166560, Note_on_c, 0, 83, 0
2, 166800, Note_on_c, 0, 71, 0
2, 166800, Note_on_c, 0, 75, 0
2, 166800, Note_on_c, 0, 78, 0
2, 166800, Note_on_c, 0, 71, 59
2, 166800, Note_on_c, 0, 76, 59
2, 166800, Note_on_c, 0, 80, 72
2, 167040, Note_on_c, 0, 80, 0
2, 167040, Note_on_c, 0, 76, 0
2, 167040, Note_on_c, 0, 71, 0
2, 167040, Note_on_c, 0, 76, 68
2, 167040, Note_on_c, 0, 80, 68
2, 167040, Note_on_c, 0, 85, 80
2, 167400, Note_on_c, 0, 85, 0
2, 167400, Note_on_c, 0, 80, 0
2, 167400, Note_on_c, 0, 76, 0
2, 167400, Note_on_c, 0, 75, 60
2, 167400, Note_on_c, 0, 78, 60
2, 167400, Note_on_c, 0, 83, 70
2, 167514, Note_on_c, 0, 83, 0
2, 167514, Note_on_c, 0, 78, 0
2, 167514, Note_on_c, 0, 75, 0
2, 167520, Note_on_c, 0, 75, 67
2, 167520, Note_on_c, 0, 78, 67
2, 167520, Note_on_c, 0, 83, 79
2, 167760, Note_on_c, 0, 71, 59
2, 168000, Note_on_c, 0, 71, 0
2, 169200, Note_on_c, 0, 71, 33
2, 169440, Note_on_c, 0, 71, 0
2, 169680, Note_on_c, 0, 83, 0
2, 169680, Note_on_c, 0, 81, 42
2, 169920, Note_on_c, 0, 81, 0
2, 169920, Note_on_c, 0, 78, 0
2, 169920, Note_on_c, 0, 75, 0
2, 169920, Note_on_c, 0, 68, 34
2, 169920, Note_on_c, 0, 76, 34
2, 169920, Note_on_c, 0, 80, 41
2, 170640, Note_on_c, 0, 73, 31
2, 170880, Note_on_c, 0, 73, 0
2, 171120, Note_on_c, 0, 68, 0
2, 171120, Note_on_c, 0, 76, 0
2, 171120, Note_on_c, 0, 80, 0
2, 171120, Note_on_c, 0, 68, 30
2, 171120, Note_on_c, 0, 73, 30
2, 171120, Note_on_c, 0, 76, 37
2, 171360, Note_on_c, 0, 76, 0
2, 171360, Note_on_c, 0, 73, 0
2, 171360, Note_on_c, 0, 68, 0
2, 171360, Note_on_c, 0, 66, 34
2, 171360, Note_on_c, 0, 69, 34
2, 171360, Note_on_c, 0, 75, 41
2, 171720, Note_on_c, 0, 75, 0
2, 171720, Note_on_c, 0, 73, 41
2, 171840, Note_on_c, 0, 73, 0
2, 171840, Note_on_c, 0, 69, 0
2, 171840, Note_on_c, 0, 66, 0
2, 171840, Note_on_c, 0, 66, 34
2, 171840, Note_on_c, 0, 69, 34
2, 171840, Note_on_c, 0, 73, 41
2, 172076, Note_on_c, 0, 66, 0
2, 172560, Note_on_c, 0, 73, 0
2, 172560, Note_on_c, 0, 69, 0
2, 172560, Note_on_c, 0, 63, 30
2, 172560, Note_on_c, 0, 69, 30
2, 172560, Note_on_c, 0, 73, 37
2, 172800, Note_on_c, 0, 73, 0
2, 172800, Note_on_c, 0, 69, 0
2, 172800, Note_on_c, 0, 63, 0
2, 172800, Note_on_c, 0, 64, 34
2, 172800, Note_on_c, 0, 68, 34
2, 172800, Note_on_c, 0, 73, 41
2, 173280, Note_on_c, 0, 73, 0
2, 173280, Note_on_c, 0, 71, 41
2, 173520, Note_on_c, 0, 80, 29
2, 173760, Note_on_c, 0, 80, 0
2, 173760, Note_on_c, 0, 64, 0
2, 173760, Note_on_c, 0, 60, 25
2, 174000, Note_on_c, 0, 71, 0
2, 174000, Note_on_c, 0, 68, 0
2, 174000, Note_on_c, 0, 66, 28
2, 174000, Note_on_c, 0, 69, 34
2, 174240, Note_on_c, 0, 69, 0
2, 174240, Note_on_c, 0, 66, 0
2, 174240, Note_on_c, 0, 60, 0
2, 174240, Note_on_c, 0, 61, 28
2, 174240, Note_on_c, 0, 64, 28
2, 174240, Note_on_c, 0, 68, 34
2, 174720, Note_on_c, 0, 68, 0
2, 174720, Note_on_c, 0, 64, 0
2, 174720, Note_on_c, 0, 61, 0
2, 174720, Note_on_c, 0, 56, 25
2, 174720, Note_on_c, 0, 61, 25
2, 174720, Note_on_c, 0, 64, 30
2, 174960, Note_on_c, 0, 73, 29
2, 175200, Note_on_c, 0, 73, 0
2, 175440, Note_on_c, 0, 56, 0
2, 175440, Note_on_c, 0, 61, 0
2, 175440, Note_on_c, 0, 64, 0
2, 175680, Note_on_c, 0, 61, 27
2, 175680, Note_on_c, 0, 65, 27
2, 175680, Note_on_c, 0, 68, 33
2, 176400, Note_on_c, 0, 73, 28
2, 176640, Note_on_c, 0, 73, 0
2, 176880, Note_on_c, 0, 61, 0
2, 176880, Note_on_c, 0, 65, 0
2, 176880, Note_on_c, 0, 68, 0
2, 176880, Note_on_c, 0, 61, 23
2, 176880, Note_on_c, 0, 68, 23
2, 176880, Note_on_c, 0, 73, 29
2, 177120, Note_on_c, 0, 73, 0
2, 177120, Note_on_c, 0, 68, 0
2, 177120, Note_on_c, 0, 61, 0
2, 177120, Note_on_c, 0, 61, 27
2, 177120, Note_on_c, 0, 66, 27
2, 177120, Note_on_c, 0, 72, 33
2, 177600, Note_on_c, 0, 72, 0
2, 177600, Note_on_c, 0, 70, 33
2, 177840, Note_on_c, 0, 82, 27
2, 178080, Note_on_c, 0, 82, 0
2, 178080, Note_on_c, 0, 61, 0
2, 178080, Note_on_c, 0, 66, 0
2, 178320, Note_on_c, 0, 70, 0
2, 178320, Note_on_c, 0, 61, 23
2, 178320, Note_on_c, 0, 65, 23
2, 178320, Note_on_c, 0, 70, 29
2, 178560, Note_on_c, 0, 70, 0
2, 178560, Note_on_c, 0, 65, 0
2, 178560, Note_on_c, 0, 61, 0
2, 178560, Note_on_c, 0, 61, 27
2, 178560, Note_on_c, 0, 63, 27
2, 178560, Note_on_c, 0, 70, 33
2, 179040, Note_on_c, 0, 70, 0
2, 179040, Note_on_c, 0, 63, 0
2, 179040, Note_on_c, 0, 61, 0
2, 179040, Note_on_c, 0, 60, 22
2, 179040, Note_on_c, 0, 63, 24
2, 179040, Note_on_c, 0, 68, 30
2, 179280, Note_on_c, 0, 80, 24
2, 179520, Note_on_c, 0, 80, 0
2, 179760, Note_on_c, 0, 60, 0
2, 179760, Note_on_c, 0, 63, 0
2, 179760, Note_on_c, 0, 68, 0
2, 179760, Note_on_c, 0, 58, 24
2, 179760, Note_on_c, 0, 61, 24
2, 179760, Note_on_c, 0, 66, 29
2, 180000, Note_on_c, 0, 66, 0
2, 180000, Note_on_c, 0, 61, 0
2, 180000, Note_on_c, 0, 58, 0
2, 180000, Note_on_c, 0, 56, 24
2, 180000, Note_on_c, 0, 61, 24
2, 180000, Note_on_c, 0, 65, 29
2, 180480, Note_on_c, 0, 65, 0
2, 180480, Note_on_c, 0, 61, 0
2, 180480, Note_on_c, 0, 56, 0
2, 180480, Note_on_c, 0, 53, 22
2, 180480, Note_on_c, 0, 56, 22
2, 180480, Note_on_c, 0, 61, 25
2, 180720, Note_on_c, 0, 73, 25
2, 180960, Note_on_c, 0, 73, 0
2, 181200, Note_on_c, 0, 53, 0
2, 181200, Note_on_c, 0, 56, 0
2, 181200, Note_on_c, 0, 61, 0
2, 181200, Note_on_c, 0, 56, 24
2, 181200, Note_on_c, 0, 61, 24
2, 181200, Note_on_c, 0, 65, 29
2, 181440, Note_on_c, 0, 65, 0
2, 181440, Note_on_c, 0, 61, 0
2, 181440, Note_on_c, 0, 56, 0
2, 181440, Note_on_c, 0, 55, 28
2, 181440, Note_on_c, 0, 61, 28
2, 181440, Note_on_c, 0, 65, 34
2, 181680, Note_on_c, 0, 70, 29
2, 181800, Note_on_c, 0, 70, 0
2, 181800, Note_on_c, 0, 65, 0
2, 181800, Note_on_c, 0, 63, 34
2, 181920, Note_on_c, 0, 63, 0
2, 181920, Note_on_c, 0, 61, 0
2, 181920, Note_on_c, 0, 55, 0
2, 181920, Note_on_c, 0, 82, 29
2, 181920, Note_on_c, 0, 55, 25
2, 181920, Note_on_c, 0, 61, 25
2, 181920, Note_on_c, 0, 63, 30
2, 182160, Note_on_c, 0, 82, 0
2, 182640, Note_on_c, 0, 55, 0
2, 182640, Note_on_c, 0, 61, 0
2, 182640, Note_on_c, 0, 63, 0
2, 182640, Note_on_c, 0, 55, 28
2, 182640, Note_on_c, 0, 61, 28
2, 182640, Note_on_c, 0, 63, 33
2, 182880, Note_on_c, 0, 63, 0
2, 182880, Note_on_c, 0, 61, 0
2, 182880, Note_on_c, 0, 55, 0
2, 182880, Note_on_c, 0, 54, 31
2, 182880, Note_on_c, 0, 61, 31
2, 182880, Note_on_c, 0, 64, 37
2, 183120, Note_on_c, 0, 69, 29
2, 183240, Note_on_c, 0, 69, 0
2, 183240, Note_on_c, 0, 64, 0
2, 183240, Note_on_c, 0, 63, 34
2, 183360, Note_on_c, 0, 63, 0
2, 183360, Note_on_c, 0, 61, 0
2, 183360, Note_on_c, 0, 54, 0
2, 183360, Note_on_c, 0, 81, 29
2, 183360, Note_on_c, 0, 54, 25
2, 183360, Note_on_c, 0, 61, 25
2, 183360, Note_on_c, 0, 63, 30
2, 183600, Note_on_c, 0, 81, 0
2, 184080, Note_on_c, 0, 54, 0
2, 184080, Note_on_c, 0, 61, 0
2, 184080, Note_on_c, 0, 63, 0
2, 184080, Note_on_c, 0, 54, 25
2, 184080, Note_on_c, 0, 61, 25
2, 184080, Note_on_c, 0, 63, 30
2, 184320, Note_on_c, 0, 63, 0
2, 184320, Note_on_c, 0, 61, 0
2, 184320, Note_on_c, 0, 54, 0
2, 184320, Note_on_c, 0, 54, 28
2, 184320, Note_on_c, 0, 60, 28
2, 184320, Note_on_c, 0, 63, 34
2, 184560, Note_on_c, 0, 68, 27
2, 184680, Note_on_c, 0, 68, 0
2, 184800, Note_on_c, 0, 80, 28
2, 185040, Note_on_c, 0, 80, 0
2, 185040, Note_on_c, 0, 63, 0
2, 185040, Note_on_c, 0, 60, 0
2, 185040, Note_on_c, 0, 54, 0
2, 185040, Note_on_c, 0, 65, 29
2, 185160, Note_on_c, 0, 65, 0
2, 185160, Note_on_c, 0, 66, 29
2, 185280, Note_on_c, 0, 66, 0
2, 185280, Note_on_c, 0, 68, 29
2, 185520, Note_on_c, 0, 68, 0
2, 185520, Note_on_c, 0, 56, 25
2, 185520, Note_on_c, 0, 60, 25
2, 185520, Note_on_c, 0, 64, 30
2, 185760, Note_on_c, 0, 64, 0
2, 185760, Note_on_c, 0, 60, 0
2, 185760, Note_on_c, 0, 56, 0
2, 185760, Note_on_c, 0, 56, 28
2, 185760, Note_on_c, 0, 61, 28
2, 185760, Note_on_c, 0, 65, 34
2, 186240, Note_on_c, 0, 73, 29
2, 186720, Note_on_c, 0, 73, 0
2, 186960, Note_on_c, 0, 56, 0
2, 186960, Note_on_c, 0, 61, 0
2, 186960, Note_on_c, 0, 65, 0
2, 186960, Note_on_c, 0, 56, 25
2, 186960, Note_on_c, 0, 61, 25
2, 186960, Note_on_c, 0, 65, 30
2, 187200, Note_on_c, 0, 65, 0
2, 187200, Note_on_c, 0, 61, 0
2, 187200, Note_on_c, 0, 56, 0
2, 187200, Note_on_c, 0, 55, 23
2, 187200, Note_on_c, 0, 61, 23
2, 187200, Note_on_c, 0, 65, 28
2, 187560, Note_on_c, 0, 65, 0
2, 187560, Note_on_c, 0, 63, 28
2, 187680, Note_on_c, 0, 63, 0
2, 187680, Note_on_c, 0, 61, 0
2, 187680, Note_on_c, 0, 55, 0
2, 187680, Note_on_c, 0, 70, 24
2, 187680, Note_on_c, 0, 55, 21
2, 187680, Note_on_c, 0, 61, 21
2, 187680, Note_on_c, 0, 63, 25
2, 188160, Note_on_c, 0, 70, 0
2, 188400, Note_on_c, 0, 55, 0
2, 188400, Note_on_c, 0, 61, 0
2, 188400, Note_on_c, 0, 63, 0
2, 188400, Note_on_c, 0, 55, 23
2, 188400, Note_on_c, 0, 61, 23
2, 188400, Note_on_c, 0, 63, 28
2, 188640, Note_on_c, 0, 63, 0
2, 188640, Note_on_c, 0, 61, 0
2, 188640, Note_on_c, 0, 55, 0
2, 188640, Note_on_c, 0, 54, 26
2, 188640, Note_on_c, 0, 61, 26
2, 188640, Note_on_c, 0, 64, 31
2, 189000, Note_on_c, 0, 64, 0
2, 189000, Note_on_c, 0, 63, 28
2, 189120, Note_on_c, 0, 63, 0
2, 189120, Note_on_c, 0, 61, 0
2, 189120, Note_on_c, 0, 54, 0
2, 189120, Note_on_c, 0, 69, 24
2, 189120, Note_on_c, 0, 54, 21
2, 189120, Note_on_c, 0, 61, 21
2, 189120, Note_on_c, 0, 63, 25
2, 189360, Note_on_c, 0, 69, 0
2, 189840, Note_on_c, 0, 54, 0
2, 189840, Note_on_c, 0, 61, 0
2, 189840, Note_on_c, 0, 63, 0
2, 189840, Note_on_c, 0, 54, 21
2, 189840, Note_on_c, 0, 61, 21
2, 189840, Note_on_c, 0, 63, 25
2, 190080, Note_on_c, 0, 63, 0
2, 190080, Note_on_c, 0, 61, 0
2, 190080, Note_on_c, 0, 54, 0
2, 190080, Note_on_c, 0, 54, 23
2, 190080, Note_on_c, 0, 60, 23
2, 190080, Note_on_c, 0, 63, 28
2, 190800, Note_on_c, 0, 63, 0
2, 190800, Note_on_c, 0, 60, 0
2, 190800, Note_on_c, 0, 54, 0
2, 190800, Note_on_c, 0, 65, 24
2, 190920, Note_on_c, 0, 65, 0
2, 190920, Note_on_c, 0, 66, 24
2, 191040, Note_on_c, 0, 66, 0
2, 191040, Note_on_c, 0, 68, 24
2, 191280, Note_on_c, 0, 68, 0
2, 191280, Note_on_c, 0, 54, 21
2, 191280, Note_on_c, 0, 57, 21
2, 191280, Note_on_c, 0, 60, 25
2, 191520, Note_on_c, 0, 60, 0
2, 191520, Note_on_c, 0, 57, 0
2, 191520, Note_on_c, 0, 54, 0
2, 192000, Note_on_c, 0, 73, 24
2, 192480, Note_on_c, 0, 73, 0
2, 193440, Note_on_c, 0, 73, 24
2, 193920, Note_on_c, 0, 73, 0
2, 194880, Note_on_c, 0, 73, 24
2, 195360, Note_on_c, 0, 73, 0
2, 196080, Note_on_c, 0, 68, 22
2, 196140, Note_on_c, 0, 68, 0
2, 196320, Note_on_c, 0, 73, 23
2, 196380, Note_on_c, 0, 73, 0
2, 196560, Note_on_c, 0, 80, 23
2, 196620, Note_on_c, 0, 80, 0
2, 196800, Note_on_c, 0, 85, 23
2, 196860, Note_on_c, 0, 85, 0
2, 196860, End_track
3, 0, Start_track
3, 0, Title_t, "Piano left"
3, 0, Program_c, 0, 1
3, 0, Control_c, 0, 7, 100
3, 0, Control_c, 0, 10, 64
3, 0, Note_on_c, 0, 37, 26
3, 14, Control_c, 0, 64, 127
3, 240, Note_on_c, 0, 37, 0
3, 420, Note_on_c, 0, 49, 22
3, 480, Note_on_c, 0, 49, 0
3, 480, Note_on_c, 0, 61, 27
3, 720, Note_on_c, 0, 61, 0
3, 984, Control_c, 0, 64, 0
3, 1016, Control_c, 0, 64, 127
3, 1440, Note_on_c, 0, 37, 26
3, 1468, Control_c, 0, 64, 0
3, 1514, Control_c, 0, 64, 127
3, 1680, Note_on_c, 0, 37, 0
3, 1860, Note_on_c, 0, 49, 22
3, 1920, Note_on_c, 0, 49, 0
3, 1920, Note_on_c, 0, 61, 27
3, 2160, Note_on_c, 0, 61, 0
3, 2414, Control_c, 0, 64, 0
3, 2471, Control_c, 0, 64, 127
3, 2880, Note_on_c, 0, 37, 26
3, 2908, Control_c, 0, 64, 0
3, 2954, Control_c, 0, 64, 127
3, 3120, Note_on_c, 0, 37, 0
3, 3300, Note_on_c, 0, 49, 22
3, 3360, Note_on_c, 0, 49, 0
3, 3360, Note_on_c, 0, 61, 27
3, 3600, Note_on_c, 0, 61, 0
3, 3854, Control_c, 0, 64, 0
3, 3896, Control_c, 0, 64, 127
3, 4320, Control_c, 0, 64, 0
3, 4320, Note_on_c, 0, 37, 26
3, 4373, Control_c, 0, 64, 127
3, 4560, Note_on_c, 0, 37, 0
3, 4740, Note_on_c, 0, 49, 22
3, 4800, Note_on_c, 0, 49, 0
3, 4800, Note_on_c, 0, 61, 27
3, 5040, Note_on_c, 0, 61, 0
3, 5308, Control_c, 0, 64, 0
3, 5336, Control_c, 0, 64, 127
3, 5760, Note_on_c, 0, 37, 26
3, 5788, Control_c, 0, 64, 0
3, 5834, Control_c, 0, 64, 127
3, 6000, Note_on_c, 0, 37, 0
3, 6180, Note_on_c, 0, 49, 22
3, 6240, Note_on_c, 0, 49, 0
3, 6240, Note_on_c, 0, 61, 27
3, 6480, Note_on_c, 0, 61, 0
3, 6734, Control_c, 0, 64, 0
3, 6776, Control_c, 0, 64, 127
3, 7200, Note_on_c, 0, 37, 26
3, 7228, Control_c, 0, 64, 0
3, 7274, Control_c, 0, 64, 127
3, 7440, Note_on_c, 0, 37, 0
3, 7620, Note_on_c, 0, 49, 22
3, 7680, Note_on_c, 0, 49, 0
3, 7680, Note_on_c, 0, 61, 27
3, 7920, Note_on_c, 0, 61, 0
3, 8174, Control_c, 0, 64, 0
3, 8216, Control_c, 0, 64, 127
3, 8640, Note_on_c, 0, 37, 31
3, 8668, Control_c, 0, 64, 0
3, 8714, Control_c, 0, 64, 127
3, 8880, Note_on_c, 0, 37, 0
3, 9060, Note_on_c, 0, 49, 25
3, 9120, Note_on_c, 0, 49, 0
3, 9120, Note_on_c, 0, 61, 30
3, 9360, Note_on_c, 0, 61, 0
3, 9614, Control_c, 0, 64, 0
3, 9656, Control_c, 0, 64, 127
3, 10080, Note_on_c, 0, 37, 26
3, 10108, Control_c, 0, 64, 0
3, 10154, Control_c, 0, 64, 127
3, 10320, Note_on_c, 0, 37, 0
3, 10500, Note_on_c, 0, 49, 22
3, 10560, Note_on_c, 0, 49, 0
3, 10560, Note_on_c, 0, 61, 27
3, 10800, Note_on_c, 0, 61, 0
3, 11054, Control_c, 0, 64, 0
3, 11096, Control_c, 0, 64, 127
3, 11520, Note_on_c, 0, 32, 28
3, 11520, Note_on_c, 0, 44, 34
3, 11548, Control_c, 0, 64, 0
3, 11594, Control_c, 0, 64, 127
3, 11760, Note_on_c, 0, 44, 0
3, 11760, Note_on_c, 0, 32, 0
3, 11940, Note_on_c, 0, 44, 36
3, 12000, Note_on_c, 0, 44, 0
3, 12000, Note_on_c, 0, 56, 41
3, 12018, Control_c, 0, 64, 0
3, 12071, Control_c, 0, 64, 127
3, 12240, Note_on_c, 0, 56, 0
3, 12960, Note_on_c, 0, 32, 35
3, 12960, Note_on_c, 0, 44, 41
3, 12988, Control_c, 0, 64, 0
3, 13034, Control_c, 0, 64, 127
3, 13200, Note_on_c, 0, 44, 0
3, 13200, Note_on_c, 0, 32, 0
3, 13380, Note_on_c, 0, 44, 43
3, 13440, Note_on_c, 0, 44, 0
3, 13440, Control_c, 0, 64, 0
3, 13440, Note_on_c, 0, 56, 50
3, 13476, Control_c, 0, 64, 127
3, 13680, Note_on_c, 0, 56, 0
3, 14400, Note_on_c, 0, 44, 47
3, 14400, Note_on_c, 0, 32, 39
3, 14428, Control_c, 0, 64, 0
3, 14474, Control_c, 0, 64, 127
3, 14640, Note_on_c, 0, 32, 0
3, 14640, Note_on_c, 0, 44, 0
3, 14820, Note_on_c, 0, 44, 49
3, 14877, Control_c, 0, 64, 0
3, 14880, Note_on_c, 0, 44, 0
3, 14880, Note_on_c, 0, 56, 57
3, 14916, Control_c, 0, 64, 127
3, 15120, Note_on_c, 0, 56, 0
3, 15840, Note_on_c, 0, 44, 55
3, 15840, Note_on_c, 0, 32, 46
3, 15868, Control_c, 0, 64, 0
3, 15914, Control_c, 0, 64, 127
3, 16080, Note_on_c, 0, 32, 0
3, 16080, Note_on_c, 0, 44, 0
3, 16260, Note_on_c, 0, 44, 50
3, 16320, Note_on_c, 0, 44, 0
3, 16320, Note_on_c, 0, 56, 58
3, 16327, Control_c, 0, 64, 0
3, 16387, Control_c, 0, 64, 127
3, 16560, Note_on_c, 0, 56, 0
3, 16560, Note_on_c, 0, 68, 56
3, 16800, Note_on_c, 0, 68, 0
3, 17280, Note_on_c, 0, 32, 33
3, 17280, Note_on_c, 0, 44, 40
3, 17520, Note_on_c, 0, 44, 0
3, 17520, Note_on_c, 0, 32, 0
3, 17700, Note_on_c, 0, 44, 34
3, 17760, Note_on_c, 0, 44, 0
3, 17760, Note_on_c, 0, 56, 39
3, 18000, Note_on_c, 0, 56, 0
3, 18000, Note_on_c, 0, 68, 35
3, 18240, Note_on_c, 0, 68, 0
3, 18720, Note_on_c, 0, 32, 22
3, 18720, Note_on_c, 0, 44, 26
3, 18720, Control_c, 0, 64, 0
3, 18794, Control_c, 0, 64, 127
3, 18960, Note_on_c, 0, 44, 0
3, 18960, Note_on_c, 0, 32, 0
3, 19140, Note_on_c, 0, 47, 22
3, 19200, Note_on_c, 0, 47, 0
3, 19200, Note_on_c, 0, 59, 27
3, 19440, Note_on_c, 0, 59, 0
3, 19694, Control_c, 0, 64, 0
3, 19736, Control_c, 0, 64, 127
3, 20160, Control_c, 0, 64, 0
3, 20160, Note_on_c, 0, 45, 26
3, 20160, Note_on_c, 0, 33, 22
3, 20234, Control_c, 0, 64, 127
3, 20400, Note_on_c, 0, 33, 0
3, 20400, Note_on_c, 0, 45, 0
3, 20580, Note_on_c, 0, 49, 22
3, 20640, Note_on_c, 0, 49, 0
3, 20640, Note_on_c, 0, 61, 27
3, 20647, Control_c, 0, 64, 0
3, 20690, Control_c, 0, 64, 127
3, 20880, Note_on_c, 0, 61, 0
3, 21600, Note_on_c, 0, 47, 26
3, 21600, Note_on_c, 0, 35, 22
3, 21602, Control_c, 0, 64, 0
3, 21674, Control_c, 0, 64, 127
3, 21840, Note_on_c, 0, 35, 0
3, 21840, Note_on_c, 0, 47, 0
3, 22020, Note_on_c, 0, 47, 22
3, 22080, Note_on_c, 0, 47, 0
3, 22080, Note_on_c, 0, 59, 27
3, 22094, Control_c, 0, 64, 0
3, 22130, Control_c, 0, 64, 127
3, 22320, Note_on_c, 0, 59, 0
3, 22818, Control_c, 0, 64, 0
3, 23040, Note_on_c, 0, 40, 26
3, 23075, Control_c, 0, 64, 127
3, 23280, Note_on_c, 0, 40, 0
3, 23460, Note_on_c, 0, 47, 22
3, 23520, Note_on_c, 0, 47, 0
3, 23520, Note_on_c, 0, 52, 27
3, 23760, Note_on_c, 0, 52, 0
3, 24480, Note_on_c, 0, 40, 26
3, 24484, Control_c, 0, 64, 0
3, 24551, Control_c, 0, 64, 127
3, 24720, Note_on_c, 0, 40, 0
3, 24900, Note_on_c, 0, 47, 22
3, 24960, Note_on_c, 0, 47, 0
3, 24960, Note_on_c, 0, 59, 27
3, 25200, Note_on_c, 0, 59, 0
3, 25468, Control_c, 0, 64, 0
3, 25496, Control_c, 0, 64, 127
3, 25920, Note_on_c, 0, 40, 26
3, 25948, Control_c, 0, 64, 0
3, 25994, Control_c, 0, 64, 127
3, 26160, Note_on_c, 0, 40, 0
3, 26340, Note_on_c, 0, 47, 22
3, 26400, Note_on_c, 0, 47, 0
3, 26400, Note_on_c, 0, 59, 27
3, 26640, Note_on_c, 0, 59, 0
3, 26894, Control_c, 0, 64, 0
3, 26951, Control_c, 0, 64, 127
3, 27360, Note_on_c, 0, 40, 26
3, 27388, Control_c, 0, 64, 0
3, 27434, Control_c, 0, 64, 127
3, 27600, Note_on_c, 0, 40, 0
3, 27780, Note_on_c, 0, 47, 22
3, 27840, Note_on_c, 0, 47, 0
3, 27840, Note_on_c, 0, 59, 27
3, 28080, Note_on_c, 0, 59, 0
3, 28334, Control_c, 0, 64, 0
3, 28376, Control_c, 0, 64, 127
3, 28800, Control_c, 0, 64, 0
3, 28800, Note_on_c, 0, 40, 26
3, 28853, Control_c, 0, 64, 127
3, 29040, Note_on_c, 0, 40, 0
3, 29220, Note_on_c, 0, 47, 22
3, 29280, Note_on_c, 0, 47, 0
3, 29280, Note_on_c, 0, 59, 27
3, 29520, Note_on_c, 0, 59, 0
3, 29788, Control_c, 0, 64, 0
3, 29816, Control_c, 0, 64, 127
3, 30240, Note_on_c, 0, 40, 31
3, 30268, Control_c, 0, 64, 0
3, 30314, Control_c, 0, 64, 127
3, 30480, Note_on_c, 0, 40, 0
3, 30660, Note_on_c, 0, 52, 30
3, 30720, Note_on_c, 0, 52, 0
3, 30720, Note_on_c, 0, 64, 36
3, 30960, Note_on_c, 0, 64, 0
3, 31214, Control_c, 0, 64, 0
3, 31256, Control_c, 0, 64, 127
3, 31680, Note_on_c, 0, 40, 31
3, 31708, Control_c, 0, 64, 0
3, 31754, Control_c, 0, 64, 127
3, 31920, Note_on_c, 0, 40, 0
3, 32100, Note_on_c, 0, 52, 30
3, 32160, Note_on_c, 0, 52, 0
3, 32160, Note_on_c, 0, 64, 36
3, 32400, Note_on_c, 0, 64, 0
3, 32654, Control_c, 0, 64, 0
3, 32696, Control_c, 0, 64, 127
3, 33120, Note_on_c, 0, 40, 37
3, 33148, Control_c, 0, 64, 0
3, 33194, Control_c, 0, 64, 127
3, 33360, Note_on_c, 0, 40, 0
3, 33540, Note_on_c, 0, 52, 33
3, 33600, Note_on_c, 0, 52, 0
3, 33600, Note_on_c, 0, 64, 40
3, 33840, Note_on_c, 0, 64, 0
3, 34094, Control_c, 0, 64, 0
3, 34136, Control_c, 0, 64, 127
3, 34560, Note_on_c, 0, 40, 31
3, 34588, Control_c, 0, 64, 0
3, 34634, Control_c, 0, 64, 127
3, 34800, Note_on_c, 0, 40, 0
3, 34980, Note_on_c, 0, 52, 30
3, 35040, Note_on_c, 0, 52, 0
3, 35040, Note_on_c, 0, 64, 36
3, 35280, Note_on_c, 0, 64, 0
3, 35534, Control_c, 0, 64, 0
3, 35576, Control_c, 0, 64, 127
3, 36000, Note_on_c, 0, 35, 35
3, 36000, Note_on_c, 0, 47, 42
3, 36028, Control_c, 0, 64, 0
3, 36074, Control_c, 0, 64, 127
3, 36240, Note_on_c, 0, 47, 0
3, 36240, Note_on_c, 0, 35, 0
3, 36420, Note_on_c, 0, 47, 44
3, 36480, Note_on_c, 0, 47, 0
3, 36480, Note_on_c, 0, 59, 50
3, 36487, Control_c, 0, 64, 0
3, 36530, Control_c, 0, 64, 127
3, 36720, Note_on_c, 0, 59, 0
3, 37440, Note_on_c, 0, 35, 41
3, 37440, Note_on_c, 0, 47, 49
3, 37468, Control_c, 0, 64, 0
3, 37514, Control_c, 0, 64, 127
3, 37680, Note_on_c, 0, 47, 0
3, 37680, Note_on_c, 0, 35, 0
3, 37860, Note_on_c, 0, 47, 51
3, 37920, Note_on_c, 0, 47, 0
3, 37920, Note_on_c, 0, 59, 59
3, 37927, Control_c, 0, 64, 0
3, 37973, Control_c, 0, 64, 127
3, 38160, Note_on_c, 0, 59, 0
3, 38880, Note_on_c, 0, 35, 46
3, 38880, Note_on_c, 0, 47, 55
3, 38908, Control_c, 0, 64, 0
3, 38954, Control_c, 0, 64, 127
3, 39120, Note_on_c, 0, 47, 0
3, 39120, Note_on_c, 0, 35, 0
3, 39300, Note_on_c, 0, 47, 52
3, 39360, Note_on_c, 0, 47, 0
3, 39360, Note_on_c, 0, 59, 60
3, 39369, Control_c, 0, 64, 0
3, 39427, Control_c, 0, 64, 127
3, 39600, Note_on_c, 0, 59, 0
3, 40320, Note_on_c, 0, 35, 36
3, 40560, Note_on_c, 0, 35, 0
3, 40740, Note_on_c, 0, 47, 39
3, 40800, Note_on_c, 0, 47, 0
3, 40800, Note_on_c, 0, 59, 44
3, 41040, Note_on_c, 0, 59, 0
3, 41760, Note_on_c, 0, 37, 26
3, 41760, Control_c, 0, 64, 0
3, 41834, Control_c, 0, 64, 127
3, 42000, Note_on_c, 0, 37, 0
3, 42180, Note_on_c, 0, 49, 25
3, 42240, Note_on_c, 0, 49, 0
3, 42240, Note_on_c, 0, 61, 30
3, 42480, Note_on_c, 0, 61, 0
3, 43200, Note_on_c, 0, 42, 22
3, 43200, Note_on_c, 0, 30, 19
3, 43204, Control_c, 0, 64, 0
3, 43274, Control_c, 0, 64, 127
3, 43440, Note_on_c, 0, 30, 0
3, 43440, Note_on_c, 0, 42, 0
3, 43620, Note_on_c, 0, 42, 25
3, 43680, Note_on_c, 0, 42, 0
3, 43680, Note_on_c, 0, 54, 30
3, 43920, Note_on_c, 0, 54, 0
3, 44640, Note_on_c, 0, 32, 22
3, 44640, Note_on_c, 0, 44, 26
3, 44647, Control_c, 0, 64, 0
3, 44714, Control_c, 0, 64, 127
3, 44880, Note_on_c, 0, 44, 0
3, 44880, Note_on_c, 0, 32, 0
3, 45060, Note_on_c, 0, 44, 22
3, 45120, Note_on_c, 0, 44, 0
3, 45120, Note_on_c, 0, 56, 27
3, 45360, Note_on_c, 0, 56, 0
3, 45614, Control_c, 0, 64, 0
3, 45656, Control_c, 0, 64, 127
3, 46080, Note_on_c, 0, 37, 26
3, 46080, Control_c, 0, 64, 0
3, 46115, Control_c, 0, 64, 127
3, 46320, Note_on_c, 0, 37, 0
3, 46500, Note_on_c, 0, 37, 22
3, 46560, Note_on_c, 0, 37, 0
3, 46560, Note_on_c, 0, 49, 27
3, 46800, Note_on_c, 0, 49, 0
3, 47520, Note_on_c, 0, 33, 26
3, 47520, Note_on_c, 0, 45, 26
3, 47520, Control_c, 0, 64, 0
3, 47555, Control_c, 0, 64, 127
3, 47760, Note_on_c, 0, 45, 0
3, 47760, Note_on_c, 0, 33, 0
3, 48960, Note_on_c, 0, 33, 26
3, 48960, Note_on_c, 0, 45, 26
3, 48960, Control_c, 0, 64, 0
3, 49022, Control_c, 0, 64, 127
3, 49200, Note_on_c, 0, 45, 0
3, 49200, Note_on_c, 0, 33, 0
3, 50400, Control_c, 0, 64, 0
3, 50400, Note_on_c, 0, 44, 26
3, 50400, Note_on_c, 0, 32, 26
3, 50460, Control_c, 0, 64, 127
3, 50640, Note_on_c, 0, 32, 0
3, 50640, Note_on_c, 0, 44, 0
3, 51840, Note_on_c, 0, 37, 26
3, 51846, Control_c, 0, 64, 0
3, 51981, Control_c, 0, 64, 127
3, 52080, Note_on_c, 0, 37, 0
3, 52320, Note_on_c, 0, 49, 27
3, 52560, Note_on_c, 0, 49, 0
3, 53280, Control_c, 0, 64, 0
3, 53280, Note_on_c, 0, 33, 23
3, 53315, Control_c, 0, 64, 127
3, 53520, Note_on_c, 0, 33, 0
3, 53760, Note_on_c, 0, 45, 26
3, 54000, Note_on_c, 0, 45, 0
3, 54720, Control_c, 0, 64, 0
3, 54720, Note_on_c, 0, 33, 23
3, 54755, Control_c, 0, 64, 127
3, 54960, Note_on_c, 0, 33, 0
3, 55200, Note_on_c, 0, 45, 26
3, 55440, Note_on_c, 0, 45, 0
3, 56160, Control_c, 0, 64, 0
3, 56160, Note_on_c, 0, 32, 19
3, 56195, Control_c, 0, 64, 127
3, 56400, Note_on_c, 0, 32, 0
3, 56640, Note_on_c, 0, 44, 21
3, 56880, Note_on_c, 0, 44, 0
3, 56880, Note_on_c, 0, 56, 21
3, 57120, Note_on_c, 0, 56, 0
3, 57600, Note_on_c, 0, 61, 27
3, 57600, Note_on_c, 0, 52, 22
3, 57600, Note_on_c, 0, 56, 22
3, 57600, Note_on_c, 0, 37, 23
3, 57608, Control_c, 0, 64, 0
3, 57798, Control_c, 0, 64, 127
3, 57840, Note_on_c, 0, 37, 0
3, 58080, Note_on_c, 0, 49, 24
3, 58320, Note_on_c, 0, 49, 0
3, 59040, Note_on_c, 0, 37, 23
3, 59280, Note_on_c, 0, 37, 0
3, 59520, Note_on_c, 0, 49, 24
3, 59760, Note_on_c, 0, 49, 0
3, 60254, Note_on_c, 0, 32, 37
3, 60254, Control_c, 0, 64, 0
3, 60480, Note_on_c, 0, 56, 0
3, 60480, Note_on_c, 0, 61, 0
3, 60480, Note_on_c, 0, 52, 0
3, 60480, Note_on_c, 0, 33, 34
3, 60491, Control_c, 0, 64, 127
3, 60494, Note_on_c, 0, 32, 0
3, 60600, Note_on_c, 0, 33, 0
3, 60600, Note_on_c, 0, 45, 28
3, 60639, Control_c, 0, 64, 0
3, 60660, Note_on_c, 0, 45, 0
3, 60720, Note_on_c, 0, 45, 28
3, 60780, Note_on_c, 0, 45, 0
3, 60840, Note_on_c, 0, 45, 28
3, 60900, Note_on_c, 0, 45, 0
3, 60960, Note_on_c, 0, 33, 33
3, 61006, Control_c, 0, 64, 127
3, 61080, Note_on_c, 0, 33, 0
3, 61080, Note_on_c, 0, 45, 28
3, 61094, Control_c, 0, 64, 0
3, 61140, Note_on_c, 0, 45, 0
3, 61200, Note_on_c, 0, 45, 28
3, 61260, Note_on_c, 0, 45, 0
3, 61320, Note_on_c, 0, 45, 28
3, 61380, Note_on_c, 0, 45, 0
3, 61440, Note_on_c, 0, 33, 32
3, 61479, Control_c, 0, 64, 127
3, 61560, Note_on_c, 0, 33, 0
3, 61560, Note_on_c, 0, 45, 28
3, 61581, Control_c, 0, 64, 0
3, 61620, Note_on_c, 0, 45, 0
3, 61680, Note_on_c, 0, 45, 28
3, 61740, Note_on_c, 0, 45, 0
3, 61800, Note_on_c, 0, 45, 28
3, 61860, Note_on_c, 0, 45, 0
3, 61920, Note_on_c, 0, 33, 34
3, 61977, Control_c, 0, 64, 127
3, 62040, Note_on_c, 0, 33, 0
3, 62040, Note_on_c, 0, 45, 29
3, 62086, Control_c, 0, 64, 0
3, 62100, Note_on_c, 0, 45, 0
3, 62160, Note_on_c, 0, 45, 29
3, 62220, Note_on_c, 0, 45, 0
3, 62280, Note_on_c, 0, 45, 29
3, 62340, Note_on_c, 0, 45, 0
3, 62400, Note_on_c, 0, 45, 29
3, 62460, Note_on_c, 0, 45, 0
3, 62520, Note_on_c, 0, 45, 29
3, 62580, Note_on_c, 0, 45, 0
3, 62640, Note_on_c, 0, 45, 29
3, 62700, Note_on_c, 0, 45, 0
3, 62760, Note_on_c, 0, 45, 29
3, 62820, Note_on_c, 0, 45, 0
3, 62880, Note_on_c, 0, 33, 34
3, 62908, Control_c, 0, 64, 127
3, 63000, Note_on_c, 0, 33, 0
3, 63000, Note_on_c, 0, 45, 26
3, 63021, Control_c, 0, 64, 0
3, 63060, Note_on_c, 0, 45, 0
3, 63120, Note_on_c, 0, 45, 29
3, 63180, Note_on_c, 0, 45, 0
3, 63240, Note_on_c, 0, 45, 31
3, 63300, Note_on_c, 0, 45, 0
3, 63360, Note_on_c, 0, 33, 34
3, 63438, Control_c, 0, 64, 127
3, 63480, Note_on_c, 0, 33, 0
3, 63480, Note_on_c, 0, 45, 31
3, 63540, Note_on_c, 0, 45, 0
3, 63558, Control_c, 0, 64, 0
3, 63600, Note_on_c, 0, 45, 31
3, 63660, Note_on_c, 0, 45, 0
3, 63720, Note_on_c, 0, 45, 31
3, 63780, Note_on_c, 0, 45, 0
3, 63840, Note_on_c, 0, 45, 31
3, 63900, Note_on_c, 0, 45, 0
3, 63960, Note_on_c, 0, 45, 30
3, 64020, Note_on_c, 0, 45, 0
3, 64080, Note_on_c, 0, 33, 31
3, 64172, Control_c, 0, 64, 127
3, 64200, Note_on_c, 0, 33, 0
3, 64200, Note_on_c, 0, 45, 31
3, 64320, Note_on_c, 0, 45, 0
3, 64320, Note_on_c, 0, 33, 31
3, 64335, Control_c, 0, 64, 0
3, 64412, Control_c, 0, 64, 127
3, 64440, Note_on_c, 0, 33, 0
3, 64440, Note_on_c, 0, 45, 31
3, 64560, Note_on_c, 0, 45, 0
3, 64560, Note_on_c, 0, 37, 31
3, 64680, Note_on_c, 0, 37, 0
3, 64680, Note_on_c, 0, 49, 31
3, 64800, Note_on_c, 0, 49, 0
3, 64800, Control_c, 0, 64, 0
3, 64800, Note_on_c, 0, 40, 34
3, 64856, Control_c, 0, 64, 127
3, 64920, Note_on_c, 0, 40, 0
3, 64920, Note_on_c, 0, 40, 33
3, 65040, Note_on_c, 0, 40, 0
3, 65040, Note_on_c, 0, 40, 36
3, 65160, Note_on_c, 0, 40, 0
3, 65160, Note_on_c, 0, 40, 39
3, 65280, Note_on_c, 0, 40, 0
3, 65280, Note_on_c, 0, 40, 37
3, 65294, Control_c, 0, 64, 0
3, 65340, Note_on_c, 0, 40, 0
3, 65400, Note_on_c, 0, 40, 35
3, 65460, Note_on_c, 0, 40, 0
3, 65520, Note_on_c, 0, 38, 33
3, 65580, Note_on_c, 0, 38, 0
3, 65640, Note_on_c, 0, 38, 31
3, 65700, Note_on_c, 0, 38, 0
3, 65760, Note_on_c, 0, 37, 30
3, 65820, Note_on_c, 0, 37, 0
3, 65880, Note_on_c, 0, 37, 30
3, 65940, Note_on_c, 0, 37, 0
3, 66000, Note_on_c, 0, 35, 29
3, 66060, Note_on_c, 0, 35, 0
3, 66120, Note_on_c, 0, 35, 29
3, 66180, Note_on_c, 0, 35, 0
3, 66240, Note_on_c, 0, 33, 34
3, 66318, Control_c, 0, 64, 127
3, 66360, Note_on_c, 0, 33, 0
3, 66360, Note_on_c, 0, 45, 28
3, 66420, Note_on_c, 0, 45, 0
3, 66480, Control_c, 0, 64, 0
3, 66480, Note_on_c, 0, 45, 28
3, 66540, Note_on_c, 0, 45, 0
3, 66600, Note_on_c, 0, 45, 28
3, 66660, Note_on_c, 0, 45, 0
3, 66720, Note_on_c, 0, 33, 33
3, 66773, Control_c, 0, 64, 127
3, 66840, Note_on_c, 0, 33, 0
3, 66840, Note_on_c, 0, 45, 28
3, 66893, Control_c, 0, 64, 0
3, 66900, Note_on_c, 0, 45, 0
3, 66960, Note_on_c, 0, 45, 28
3, 67020, Note_on_c, 0, 45, 0
3, 67080, Note_on_c, 0, 45, 28
3, 67140, Note_on_c, 0, 45, 0
3, 67200, Note_on_c, 0, 33, 32
3, 67232, Control_c, 0, 64, 127
3, 67320, Note_on_c, 0, 33, 0
3, 67320, Note_on_c, 0, 45, 28
3, 67341, Control_c, 0, 64, 0
3, 67380, Note_on_c, 0, 45, 0
3, 67440, Note_on_c, 0, 45, 28
3, 67500, Note_on_c, 0, 45, 0
3, 67560, Note_on_c, 0, 45, 28
3, 67620, Note_on_c, 0, 45, 0
3, 67680, Note_on_c, 0, 33, 34
3, 67737, Control_c, 0, 64, 127
3, 67800, Note_on_c, 0, 33, 0
3, 67800, Note_on_c, 0, 45, 29
3, 67853, Control_c, 0, 64, 0
3, 67860, Note_on_c, 0, 45, 0
3, 67920, Note_on_c, 0, 45, 29
3, 67980, Note_on_c, 0, 45, 0
3, 68040, Note_on_c, 0, 45, 29
3, 68100, Note_on_c, 0, 45, 0
3, 68160, Note_on_c, 0, 45, 29
3, 68220, Note_on_c, 0, 45, 0
3, 68280, Note_on_c, 0, 45, 29
3, 68340, Note_on_c, 0, 45, 0
3, 68400, Note_on_c, 0, 33, 29
3, 68460, Note_on_c, 0, 33, 0
3, 68520, Note_on_c, 0, 45, 30
3, 68580, Note_on_c, 0, 45, 0
3, 68640, Note_on_c, 0, 31, 42
3, 68663, Control_c, 0, 64, 127
3, 68760, Note_on_c, 0, 31, 0
3, 68760, Note_on_c, 0, 43, 36
3, 68880, Note_on_c, 0, 43, 0
3, 68880, Note_on_c, 0, 28, 39
3, 68895, Control_c, 0, 64, 0
3, 68926, Control_c, 0, 64, 127
3, 68970, Note_on_c, 0, 28, 0
3, 69000, Note_on_c, 0, 42, 43
3, 69090, Note_on_c, 0, 42, 0
3, 69120, Control_c, 0, 64, 0
3, 69120, Note_on_c, 0, 35, 47
3, 69198, Control_c, 0, 64, 127
3, 69240, Note_on_c, 0, 35, 0
3, 69240, Note_on_c, 0, 47, 36
3, 69298, Control_c, 0, 64, 0
3, 69360, Note_on_c, 0, 47, 0
3, 69360, Note_on_c, 0, 47, 34
3, 69480, Note_on_c, 0, 47, 0
3, 69480, Note_on_c, 0, 49, 32
3, 69600, Note_on_c, 0, 49, 0
3, 69600, Note_on_c, 0, 50, 31
3, 69664, Control_c, 0, 64, 127
3, 69720, Note_on_c, 0, 50, 0
3, 69720, Note_on_c, 0, 47, 30
3, 69840, Note_on_c, 0, 47, 0
3, 69840, Note_on_c, 0, 35, 34
3, 69856, Control_c, 0, 64, 0
3, 69932, Control_c, 0, 64, 127
3, 69960, Note_on_c, 0, 35, 0
3, 69960, Note_on_c, 0, 47, 33
3, 70080, Note_on_c, 0, 47, 0
3, 70080, Note_on_c, 0, 37, 32
3, 70095, Control_c, 0, 64, 0
3, 70172, Control_c, 0, 64, 127
3, 70200, Note_on_c, 0, 37, 0
3, 70200, Note_on_c, 0, 49, 31
3, 70320, Note_on_c, 0, 49, 0
3, 70320, Note_on_c, 0, 40, 31
3, 70440, Note_on_c, 0, 40, 0
3, 70440, Note_on_c, 0, 52, 31
3, 70560, Note_on_c, 0, 52, 0
3, 70560, Control_c, 0, 64, 0
3, 70616, Control_c, 0, 64, 127
3, 70680, Note_on_c, 0, 40, 29
3, 70800, Note_on_c, 0, 40, 0
3, 70800, Note_on_c, 0, 44, 31
3, 70920, Note_on_c, 0, 44, 0
3, 70920, Note_on_c, 0, 40, 33
3, 71040, Note_on_c, 0, 40, 0
3, 71040, Control_c, 0, 64, 0
3, 71040, Note_on_c, 0, 45, 35
3, 71130, Note_on_c, 0, 45, 0
3, 71160, Note_on_c, 0, 37, 32
3, 71220, Note_on_c, 0, 37, 0
3, 71280, Note_on_c, 0, 38, 32
3, 71340, Note_on_c, 0, 38, 0
3, 71400, Note_on_c, 0, 40, 32
3, 71460, Note_on_c, 0, 40, 0
3, 71520, Note_on_c, 0, 42, 32
3, 71580, Note_on_c, 0, 42, 0
3, 71640, Note_on_c, 0, 40, 32
3, 71700, Note_on_c, 0, 40, 0
3, 71760, Note_on_c, 0, 42, 31
3, 71820, Note_on_c, 0, 42, 0
3, 71880, Note_on_c, 0, 44, 31
3, 71940, Note_on_c, 0, 44, 0
3, 72000, Note_on_c, 0, 45, 36
3, 72039, Control_c, 0, 64, 127
3, 72120, Note_on_c, 0, 45, 0
3, 72240, Note_on_c, 0, 49, 23
3, 72240, Note_on_c, 0, 52, 27
3, 72360, Note_on_c, 0, 52, 0
3, 72360, Note_on_c, 0, 49, 0
3, 72480, Note_on_c, 0, 45, 36
3, 72600, Note_on_c, 0, 45, 0
3, 72720, Note_on_c, 0, 49, 24
3, 72720, Note_on_c, 0, 52, 28
3, 72840, Note_on_c, 0, 52, 0
3, 72840, Note_on_c, 0, 49, 0
3, 72960, Note_on_c, 0, 45, 36
3, 72982, Control_c, 0, 64, 0
3, 73059, Control_c, 0, 64, 127
3, 73080, Note_on_c, 0, 45, 0
3, 73200, Note_on_c, 0, 50, 25
3, 73200, Note_on_c, 0, 52, 29
3, 73320, Note_on_c, 0, 52, 0
3, 73320, Note_on_c, 0, 50, 0
3, 73440, Note_on_c, 0, 45, 36
3, 73440, Control_c, 0, 64, 0
3, 73497, Control_c, 0, 64, 127
3, 73560, Note_on_c, 0, 45, 0
3, 73680, Note_on_c, 0, 52, 30
3, 73800, Note_on_c, 0, 52, 0
3, 73920, Note_on_c, 0, 45, 36
3, 73942, Control_c, 0, 64, 0
3, 74034, Control_c, 0, 64, 127
3, 74040, Note_on_c, 0, 45, 0
3, 74160, Note_on_c, 0, 52, 29
3, 74160, Note_on_c, 0, 49, 25
3, 74280, Note_on_c, 0, 49, 0
3, 74280, Note_on_c, 0, 52, 0
3, 74400, Note_on_c, 0, 45, 36
3, 74520, Note_on_c, 0, 45, 0
3, 74640, Note_on_c, 0, 52, 29
3, 74640, Note_on_c, 0, 57, 29
3, 74760, Note_on_c, 0, 57, 0
3, 74760, Note_on_c, 0, 52, 0
3, 74880, Note_on_c, 0, 45, 36
3, 74880, Control_c, 0, 64, 0
3, 74958, Control_c, 0, 64, 127
3, 75000, Note_on_c, 0, 45, 0
3, 75120, Note_on_c, 0, 57, 28
3, 75120, Note_on_c, 0, 54, 24
3, 75240, Note_on_c, 0, 54, 0
3, 75240, Note_on_c, 0, 57, 0
3, 75360, Note_on_c, 0, 45, 36
3, 75367, Control_c, 0, 64, 0
3, 75424, Control_c, 0, 64, 127
3, 75480, Note_on_c, 0, 45, 0
3, 75600, Note_on_c, 0, 54, 27
3, 75600, Note_on_c, 0, 57, 32
3, 75615, Control_c, 0, 64, 0
3, 75692, Control_c, 0, 64, 127
3, 75840, Note_on_c, 0, 57, 0
3, 75840, Note_on_c, 0, 54, 0
3, 75840, Note_on_c, 0, 52, 27
3, 75840, Note_on_c, 0, 57, 32
3, 75855, Control_c, 0, 64, 0
3, 75932, Control_c, 0, 64, 127
3, 76080, Note_on_c, 0, 57, 0
3, 76080, Note_on_c, 0, 52, 0
3, 76080, Note_on_c, 0, 49, 28
3, 76080, Note_on_c, 0, 57, 33
3, 76320, Note_on_c, 0, 57, 0
3, 76320, Note_on_c, 0, 49, 0
3, 76320, Note_on_c, 0, 40, 36
3, 76320, Control_c, 0, 64, 0
3, 76376, Control_c, 0, 64, 127
3, 76440, Note_on_c, 0, 40, 0
3, 76560, Note_on_c, 0, 52, 33
3, 76680, Note_on_c, 0, 52, 0
3, 76800, Note_on_c, 0, 40, 33
3, 76920, Note_on_c, 0, 40, 0
3, 77026, Control_c, 0, 64, 0
3, 77040, Note_on_c, 0, 50, 27
3, 77040, Note_on_c, 0, 52, 32
3, 77054, Control_c, 0, 64, 127
3, 77220, Note_on_c, 0, 52, 0
3, 77220, Note_on_c, 0, 50, 0
3, 77280, Note_on_c, 0, 49, 30
3, 77280, Note_on_c, 0, 52, 36
3, 77287, Control_c, 0, 64, 0
3, 77315, Control_c, 0, 64, 127
3, 77460, Note_on_c, 0, 52, 0
3, 77460, Note_on_c, 0, 49, 0
3, 77520, Note_on_c, 0, 47, 28
3, 77520, Note_on_c, 0, 52, 33
3, 77552, Control_c, 0, 64, 0
3, 77573, Control_c, 0, 64, 127
3, 77700, Note_on_c, 0, 52, 0
3, 77700, Note_on_c, 0, 47, 0
3, 77760, Note_on_c, 0, 45, 36
3, 77767, Control_c, 0, 64, 0
3, 77820, Control_c, 0, 64, 127
3, 77880, Note_on_c, 0, 45, 0
3, 78000, Note_on_c, 0, 49, 23
3, 78000, Note_on_c, 0, 52, 27
3, 78120, Note_on_c, 0, 52, 0
3, 78120, Note_on_c, 0, 49, 0
3, 78240, Note_on_c, 0, 45, 36
3, 78360, Note_on_c, 0, 45, 0
3, 78480, Note_on_c, 0, 49, 24
3, 78480, Note_on_c, 0, 52, 28
3, 78600, Note_on_c, 0, 52, 0
3, 78600, Note_on_c, 0, 49, 0
3, 78720, Note_on_c, 0, 45, 36
3, 78742, Control_c, 0, 64, 0
3, 78819, Control_c, 0, 64, 127
3, 78840, Note_on_c, 0, 45, 0
3, 78960, Note_on_c, 0, 50, 25
3, 78960, Note_on_c, 0, 52, 29
3, 79080, Note_on_c, 0, 52, 0
3, 79080, Note_on_c, 0, 50, 0
3, 79200, Note_on_c, 0, 45, 36
3, 79200, Control_c, 0, 64, 0
3, 79257, Control_c, 0, 64, 127
3, 79320, Note_on_c, 0, 45, 0
3, 79440, Note_on_c, 0, 52, 30
3, 79560, Note_on_c, 0, 52, 0
3, 79680, Note_on_c, 0, 45, 36
3, 79704, Control_c, 0, 64, 0
3, 79794, Control_c, 0, 64, 127
3, 79800, Note_on_c, 0, 45, 0
3, 79920, Note_on_c, 0, 45, 26
3, 79920, Note_on_c, 0, 52, 30
3, 79920, Note_on_c, 0, 49, 26
3, 80040, Note_on_c, 0, 49, 0
3, 80040, Note_on_c, 0, 52, 0
3, 80040, Note_on_c, 0, 45, 0
3, 80160, Note_on_c, 0, 43, 27
3, 80160, Note_on_c, 0, 49, 27
3, 80160, Note_on_c, 0, 52, 31
3, 80280, Note_on_c, 0, 52, 0
3, 80280, Note_on_c, 0, 49, 0
3, 80280, Note_on_c, 0, 43, 0
3, 80400, Note_on_c, 0, 42, 32
3, 80400, Note_on_c, 0, 49, 32
3, 80400, Note_on_c, 0, 54, 32
3, 80520, Note_on_c, 0, 54, 0
3, 80520, Note_on_c, 0, 49, 0
3, 80520, Note_on_c, 0, 42, 0
3, 80640, Note_on_c, 0, 47, 40
3, 80640, Control_c, 0, 64, 0
3, 80718, Control_c, 0, 64, 127
3, 80760, Note_on_c, 0, 47, 0
3, 80880, Note_on_c, 0, 54, 28
3, 81060, Note_on_c, 0, 54, 0
3, 81060, Note_on_c, 0, 58, 28
3, 81120, Note_on_c, 0, 58, 0
3, 81120, Note_on_c, 0, 59, 36
3, 81127, Control_c, 0, 64, 0
3, 81184, Control_c, 0, 64, 127
3, 81360, Note_on_c, 0, 59, 0
3, 81360, Note_on_c, 0, 47, 27
3, 81360, Note_on_c, 0, 54, 32
3, 81375, Control_c, 0, 64, 0
3, 81452, Control_c, 0, 64, 127
3, 81540, Note_on_c, 0, 54, 0
3, 81540, Note_on_c, 0, 56, 32
3, 81600, Note_on_c, 0, 56, 0
3, 81600, Note_on_c, 0, 47, 0
3, 81600, Note_on_c, 0, 49, 27
3, 81600, Note_on_c, 0, 57, 32
3, 81615, Control_c, 0, 64, 0
3, 81692, Control_c, 0, 64, 127
3, 81840, Note_on_c, 0, 57, 0
3, 81840, Note_on_c, 0, 49, 0
3, 81840, Note_on_c, 0, 52, 28
3, 81840, Note_on_c, 0, 56, 33
3, 82080, Note_on_c, 0, 56, 0
3, 82080, Note_on_c, 0, 52, 0
3, 82080, Note_on_c, 0, 45, 36
3, 82080, Control_c, 0, 64, 0
3, 82136, Control_c, 0, 64, 127
3, 82200, Note_on_c, 0, 45, 0
3, 82320, Note_on_c, 0, 52, 33
3, 82320, Note_on_c, 0, 56, 33
3, 82440, Note_on_c, 0, 56, 0
3, 82440, Note_on_c, 0, 52, 0
3, 82560, Note_on_c, 0, 52, 28
3, 82560, Note_on_c, 0, 57, 33
3, 82560, Note_on_c, 0, 45, 31
3, 82650, Note_on_c, 0, 45, 0
3, 82669, Control_c, 0, 64, 0
3, 82680, Note_on_c, 0, 57, 0
3, 82680, Note_on_c, 0, 52, 0
3, 82680, Note_on_c, 0, 45, 38
3, 82740, Note_on_c, 0, 45, 0
3, 82800, Note_on_c, 0, 47, 37
3, 82860, Note_on_c, 0, 47, 0
3, 82920, Note_on_c, 0, 49, 35
3, 82980, Note_on_c, 0, 49, 0
3, 83040, Note_on_c, 0, 47, 34
3, 83100, Note_on_c, 0, 47, 0
3, 83160, Note_on_c, 0, 45, 32
3, 83220, Note_on_c, 0, 45, 0
3, 83280, Note_on_c, 0, 44, 31
3, 83340, Note_on_c, 0, 44, 0
3, 83400, Note_on_c, 0, 42, 31
3, 83460, Note_on_c, 0, 42, 0
3, 83520, Note_on_c, 0, 40, 34
3, 83598, Control_c, 0, 64, 127
3, 83640, Note_on_c, 0, 40, 0
3, 83640, Note_on_c, 0, 52, 28
3, 83693, Control_c, 0, 64, 0
3, 83700, Note_on_c, 0, 52, 0
3, 83760, Note_on_c, 0, 52, 28
3, 83820, Note_on_c, 0, 52, 0
3, 83880, Note_on_c, 0, 52, 28
3, 83940, Note_on_c, 0, 52, 0
3, 84000, Note_on_c, 0, 40, 33
3, 84025, Control_c, 0, 64, 127
3, 84120, Note_on_c, 0, 40, 0
3, 84120, Note_on_c, 0, 52, 28
3, 84162, Control_c, 0, 64, 0
3, 84180, Note_on_c, 0, 52, 0
3, 84240, Note_on_c, 0, 52, 28
3, 84300, Note_on_c, 0, 52, 0
3, 84360, Note_on_c, 0, 52, 28
3, 84420, Note_on_c, 0, 52, 0
3, 84480, Note_on_c, 0, 37, 32
3, 84522, Control_c, 0, 64, 127
3, 84600, Note_on_c, 0, 37, 0
3, 84600, Note_on_c, 0, 49, 28
3, 84635, Control_c, 0, 64, 0
3, 84660, Note_on_c, 0, 49, 0
3, 84720, Note_on_c, 0, 49, 28
3, 84780, Note_on_c, 0, 49, 0
3, 84840, Note_on_c, 0, 49, 28
3, 84900, Note_on_c, 0, 49, 0
3, 84960, Note_on_c, 0, 35, 34
3, 84978, Control_c, 0, 64, 127
3, 85080, Note_on_c, 0, 35, 0
3, 85080, Note_on_c, 0, 47, 29
3, 85140, Note_on_c, 0, 47, 0
3, 85147, Control_c, 0, 64, 0
3, 85200, Note_on_c, 0, 47, 29
3, 85260, Note_on_c, 0, 47, 0
3, 85320, Note_on_c, 0, 47, 29
3, 85380, Note_on_c, 0, 47, 0
3, 85440, Note_on_c, 0, 35, 29
3, 85493, Control_c, 0, 64, 127
3, 85530, Note_on_c, 0, 35, 0
3, 85560, Note_on_c, 0, 47, 29
3, 85620, Note_on_c, 0, 47, 0
3, 85627, Control_c, 0, 64, 0
3, 85680, Note_on_c, 0, 47, 29
3, 85740, Note_on_c, 0, 47, 0
3, 85800, Note_on_c, 0, 47, 29
3, 85860, Note_on_c, 0, 47, 0
3, 85920, Note_on_c, 0, 35, 34
3, 85943, Control_c, 0, 64, 127
3, 86040, Note_on_c, 0, 35, 0
3, 86040, Note_on_c, 0, 47, 32
3, 86160, Note_on_c, 0, 47, 0
3, 86160, Note_on_c, 0, 35, 35
3, 86189, Control_c, 0, 64, 0
3, 86206, Control_c, 0, 64, 127
3, 86250, Note_on_c, 0, 35, 0
3, 86280, Note_on_c, 0, 47, 39
3, 86370, Note_on_c, 0, 47, 0
3, 86400, Control_c, 0, 64, 0
3, 86400, Note_on_c, 0, 33, 42
3, 86478, Control_c, 0, 64, 127
3, 86520, Note_on_c, 0, 33, 0
3, 86520, Note_on_c, 0, 45, 38
3, 86640, Note_on_c, 0, 45, 0
3, 86640, Note_on_c, 0, 45, 40
3, 86760, Note_on_c, 0, 45, 0
3, 86760, Note_on_c, 0, 43, 41
3, 86880, Note_on_c, 0, 43, 0
3, 86880, Note_on_c, 0, 30, 43
3, 86903, Control_c, 0, 64, 0
3, 86944, Control_c, 0, 64, 127
3, 87000, Note_on_c, 0, 30, 0
3, 87000, Note_on_c, 0, 42, 37
3, 87120, Note_on_c, 0, 42, 0
3, 87120, Note_on_c, 0, 31, 39
3, 87136, Control_c, 0, 64, 0
3, 87212, Control_c, 0, 64, 127
3, 87240, Note_on_c, 0, 31, 0
3, 87240, Note_on_c, 0, 43, 37
3, 87360, Note_on_c, 0, 43, 0
3, 87360, Note_on_c, 0, 33, 37
3, 87375, Control_c, 0, 64, 0
3, 87452, Control_c, 0, 64, 127
3, 87480, Note_on_c, 0, 33, 0
3, 87480, Note_on_c, 0, 45, 36
3, 87600, Note_on_c, 0, 45, 0
3, 87600, Note_on_c, 0, 33, 35
3, 87720, Note_on_c, 0, 33, 0
3, 87720, Note_on_c, 0, 45, 34
3, 87840, Note_on_c, 0, 45, 0
3, 87840, Note_on_c, 0, 33, 31
3, 87840, Control_c, 0, 64, 0
3, 87896, Control_c, 0, 64, 127
3, 87960, Note_on_c, 0, 33, 0
3, 87960, Note_on_c, 0, 45, 29
3, 88080, Note_on_c, 0, 45, 0
3, 88080, Note_on_c, 0, 49, 31
3, 88200, Note_on_c, 0, 49, 0
3, 88200, Note_on_c, 0, 45, 33
3, 88320, Note_on_c, 0, 45, 0
3, 88320, Control_c, 0, 64, 0
3, 88320, Note_on_c, 0, 38, 35
3, 88410, Note_on_c, 0, 38, 0
3, 88440, Note_on_c, 0, 50, 29
3, 88500, Note_on_c, 0, 50, 0
3, 88560, Note_on_c, 0, 50, 28
3, 88620, Note_on_c, 0, 50, 0
3, 88680, Note_on_c, 0, 50, 28
3, 88740, Note_on_c, 0, 50, 0
3, 88800, Note_on_c, 0, 50, 27
3, 88860, Note_on_c, 0, 50, 0
3, 88920, Note_on_c, 0, 50, 26
3, 88980, Note_on_c, 0, 50, 0
3, 89040, Note_on_c, 0, 50, 25
3, 89100, Note_on_c, 0, 50, 0
3, 89160, Note_on_c, 0, 50, 24
3, 89250, Note_on_c, 0, 50, 0
3, 89280, Note_on_c, 0, 38, 25
3, 89291, Control_c, 0, 64, 127
3, 89400, Note_on_c, 0, 38, 0
3, 89400, Note_on_c, 0, 50, 21
3, 89425, Control_c, 0, 64, 0
3, 89460, Note_on_c, 0, 50, 0
3, 89520, Note_on_c, 0, 50, 21
3, 89580, Note_on_c, 0, 50, 0
3, 89640, Note_on_c, 0, 50, 21
3, 89700, Note_on_c, 0, 50, 0
3, 89760, Note_on_c, 0, 38, 24
3, 89788, Control_c, 0, 64, 127
3, 89880, Note_on_c, 0, 38, 0
3, 89880, Note_on_c, 0, 50, 21
3, 89922, Control_c, 0, 64, 0
3, 89940, Note_on_c, 0, 50, 0
3, 90000, Note_on_c, 0, 50, 21
3, 90060, Note_on_c, 0, 50, 0
3, 90120, Note_on_c, 0, 50, 21
3, 90180, Note_on_c, 0, 50, 0
3, 90240, Note_on_c, 0, 38, 23
3, 90272, Control_c, 0, 64, 127
3, 90360, Note_on_c, 0, 38, 0
3, 90360, Note_on_c, 0, 50, 21
3, 90409, Control_c, 0, 64, 0
3, 90420, Note_on_c, 0, 50, 0
3, 90480, Note_on_c, 0, 50, 21
3, 90540, Note_on_c, 0, 50, 0
3, 90600, Note_on_c, 0, 50, 21
3, 90660, Note_on_c, 0, 50, 0
3, 90720, Note_on_c, 0, 39, 25
3, 90726, Control_c, 0, 64, 127
3, 90840, Note_on_c, 0, 39, 0
3, 90840, Note_on_c, 0, 51, 22
3, 90857, Control_c, 0, 64, 0
3, 90900, Note_on_c, 0, 51, 0
3, 90960, Note_on_c, 0, 51, 22
3, 91020, Note_on_c, 0, 51, 0
3, 91080, Note_on_c, 0, 51, 22
3, 91140, Note_on_c, 0, 51, 0
3, 91200, Note_on_c, 0, 39, 22
3, 91290, Note_on_c, 0, 39, 0
3, 91320, Note_on_c, 0, 51, 22
3, 91410, Note_on_c, 0, 51, 0
3, 91440, Note_on_c, 0, 36, 22
3, 91450, Control_c, 0, 64, 127
3, 91530, Note_on_c, 0, 36, 0
3, 91560, Note_on_c, 0, 48, 22
3, 91650, Note_on_c, 0, 48, 0
3, 91680, Note_on_c, 0, 38, 25
3, 91693, Control_c, 0, 64, 0
3, 91726, Control_c, 0, 64, 127
3, 91800, Note_on_c, 0, 38, 0
3, 91800, Note_on_c, 0, 50, 19
3, 91920, Note_on_c, 0, 50, 0
3, 91920, Note_on_c, 0, 39, 22
3, 91939, Control_c, 0, 64, 0
3, 91966, Control_c, 0, 64, 127
3, 92010, Note_on_c, 0, 39, 0
3, 92040, Note_on_c, 0, 51, 22
3, 92130, Note_on_c, 0, 51, 0
3, 92160, Control_c, 0, 64, 0
3, 92160, Note_on_c, 0, 29, 26
3, 92200, Control_c, 0, 64, 127
3, 92280, Note_on_c, 0, 29, 0
3, 92280, Note_on_c, 0, 41, 22
3, 92297, Control_c, 0, 64, 0
3, 92340, Note_on_c, 0, 41, 0
3, 92400, Note_on_c, 0, 41, 22
3, 92460, Note_on_c, 0, 41, 0
3, 92520, Note_on_c, 0, 41, 22
3, 92580, Note_on_c, 0, 41, 0
3, 92640, Note_on_c, 0, 29, 22
3, 92671, Control_c, 0, 64, 127
3, 92760, Note_on_c, 0, 29, 0
3, 92760, Note_on_c, 0, 41, 22
3, 92783, Control_c, 0, 64, 0
3, 92820, Note_on_c, 0, 41, 0
3, 92880, Note_on_c, 0, 41, 22
3, 92940, Note_on_c, 0, 41, 0
3, 93000, Note_on_c, 0, 41, 22
3, 93060, Note_on_c, 0, 41, 0
3, 93120, Note_on_c, 0, 29, 22
3, 93160, Control_c, 0, 64, 127
3, 93240, Note_on_c, 0, 29, 0
3, 93240, Note_on_c, 0, 41, 22
3, 93280, Control_c, 0, 64, 0
3, 93300, Note_on_c, 0, 41, 0
3, 93360, Note_on_c, 0, 41, 22
3, 93420, Note_on_c, 0, 41, 0
3, 93480, Note_on_c, 0, 41, 22
3, 93540, Note_on_c, 0, 41, 0
3, 93600, Note_on_c, 0, 29, 26
3, 93720, Note_on_c, 0, 29, 0
3, 93720, Note_on_c, 0, 41, 23
3, 93780, Note_on_c, 0, 41, 0
3, 93840, Note_on_c, 0, 41, 23
3, 93900, Note_on_c, 0, 41, 0
3, 93960, Note_on_c, 0, 41, 24
3, 94020, Note_on_c, 0, 41, 0
3, 94080, Note_on_c, 0, 29, 24
3, 94200, Note_on_c, 0, 29, 0
3, 94200, Note_on_c, 0, 41, 23
3, 94260, Note_on_c, 0, 41, 0
3, 94320, Note_on_c, 0, 41, 23
3, 94380, Note_on_c, 0, 41, 0
3, 94440, Note_on_c, 0, 41, 23
3, 94500, Note_on_c, 0, 41, 0
3, 94560, Note_on_c, 0, 29, 24
3, 94680, Note_on_c, 0, 29, 0
3, 94680, Note_on_c, 0, 41, 23
3, 94740, Note_on_c, 0, 41, 0
3, 94800, Note_on_c, 0, 41, 23
3, 94860, Note_on_c, 0, 41, 0
3, 94920, Note_on_c, 0, 41, 22
3, 94980, Note_on_c, 0, 41, 0
3, 95040, Control_c, 0, 64, 0
3, 95040, Note_on_c, 0, 40, 31
3, 95089, Control_c, 0, 64, 127
3, 95160, Note_on_c, 0, 40, 0
3, 95160, Note_on_c, 0, 52, 28
3, 95220, Note_on_c, 0, 52, 0
3, 95234, Control_c, 0, 64, 0
3, 95280, Note_on_c, 0, 52, 28
3, 95340, Note_on_c, 0, 52, 0
3, 95400, Note_on_c, 0, 52, 29
3, 95460, Note_on_c, 0, 52, 0
3, 95520, Note_on_c, 0, 40, 29
3, 95541, Control_c, 0, 64, 127
3, 95640, Note_on_c, 0, 40, 0
3, 95640, Note_on_c, 0, 52, 29
3, 95654, Control_c, 0, 64, 0
3, 95700, Note_on_c, 0, 52, 0
3, 95760, Note_on_c, 0, 52, 31
3, 95820, Note_on_c, 0, 52, 0
3, 95880, Note_on_c, 0, 52, 30
3, 95940, Note_on_c, 0, 52, 0
3, 96000, Note_on_c, 0, 40, 30
3, 96092, Control_c, 0, 64, 127
3, 96120, Note_on_c, 0, 40, 0
3, 96120, Note_on_c, 0, 52, 29
3, 96240, Note_on_c, 0, 52, 0
3, 96240, Note_on_c, 0, 40, 30
3, 96360, Note_on_c, 0, 40, 0
3, 96360, Note_on_c, 0, 40, 29
3, 96480, Note_on_c, 0, 40, 0
3, 96480, Control_c, 0, 64, 0
3, 96480, Note_on_c, 0, 33, 34
3, 96558, Control_c, 0, 64, 127
3, 96600, Note_on_c, 0, 33, 0
3, 96600, Note_on_c, 0, 45, 28
3, 96660, Note_on_c, 0, 45, 0
3, 96720, Note_on_c, 0, 45, 28
3, 96727, Control_c, 0, 64, 0
3, 96780, Note_on_c, 0, 45, 0
3, 96840, Note_on_c, 0, 45, 28
3, 96900, Note_on_c, 0, 45, 0
3, 96960, Note_on_c, 0, 33, 33
3, 97013, Control_c, 0, 64, 127
3, 97080, Note_on_c, 0, 33, 0
3, 97080, Note_on_c, 0, 45, 28
3, 97122, Control_c, 0, 64, 0
3, 97140, Note_on_c, 0, 45, 0
3, 97200, Note_on_c, 0, 45, 28
3, 97260, Note_on_c, 0, 45, 0
3, 97320, Note_on_c, 0, 45, 28
3, 97380, Note_on_c, 0, 45, 0
3, 97440, Note_on_c, 0, 33, 32
3, 97479, Control_c, 0, 64, 127
3, 97560, Note_on_c, 0, 33, 0
3, 97560, Note_on_c, 0, 45, 28
3, 97606, Control_c, 0, 64, 0
3, 97620, Note_on_c, 0, 45, 0
3, 97680, Note_on_c, 0, 45, 28
3, 97740, Note_on_c, 0, 45, 0
3, 97800, Note_on_c, 0, 45, 28
3, 97860, Note_on_c, 0, 45, 0
3, 97920, Note_on_c, 0, 33, 34
3, 97977, Control_c, 0, 64, 127
3, 98040, Note_on_c, 0, 33, 0
3, 98040, Note_on_c, 0, 45, 29
3, 98100, Note_on_c, 0, 45, 0
3, 98100, Control_c, 0, 64, 0
3, 98160, Note_on_c, 0, 45, 29
3, 98220, Note_on_c, 0, 45, 0
3, 98280, Note_on_c, 0, 45, 29
3, 98340, Note_on_c, 0, 45, 0
3, 98400, Note_on_c, 0, 45, 29
3, 98460, Note_on_c, 0, 45, 0
3, 98520, Note_on_c, 0, 45, 29
3, 98580, Note_on_c, 0, 45, 0
3, 98640, Note_on_c, 0, 45, 29
3, 98700, Note_on_c, 0, 45, 0
3, 98760, Note_on_c, 0, 45, 29
3, 98820, Note_on_c, 0, 45, 0
3, 98880, Note_on_c, 0, 45, 37
3, 98940, Note_on_c, 0, 45, 0
3, 99000, Note_on_c, 0, 45, 28
3, 99060, Note_on_c, 0, 45, 0
3, 99120, Note_on_c, 0, 45, 31
3, 99180, Note_on_c, 0, 45, 0
3, 99240, Note_on_c, 0, 45, 34
3, 99300, Note_on_c, 0, 45, 0
3, 99360, Note_on_c, 0, 33, 37
3, 99385, Control_c, 0, 64, 127
3, 99480, Note_on_c, 0, 33, 0
3, 99480, Note_on_c, 0, 45, 34
3, 99529, Control_c, 0, 64, 0
3, 99540, Note_on_c, 0, 45, 0
3, 99600, Note_on_c, 0, 45, 34
3, 99660, Note_on_c, 0, 45, 0
3, 99720, Note_on_c, 0, 45, 34
3, 99780, Note_on_c, 0, 45, 0
3, 99840, Note_on_c, 0, 33, 34
3, 99900, Note_on_c, 0, 33, 0
3, 99960, Note_on_c, 0, 45, 33
3, 100020, Note_on_c, 0, 45, 0
3, 100080, Note_on_c, 0, 45, 34
3, 100140, Note_on_c, 0, 45, 0
3, 100200, Note_on_c, 0, 45, 34
3, 100260, Note_on_c, 0, 45, 0
3, 100320, Note_on_c, 0, 33, 34
3, 100412, Control_c, 0, 64, 127
3, 100440, Note_on_c, 0, 33, 0
3, 100440, Note_on_c, 0, 45, 34
3, 100560, Note_on_c, 0, 45, 0
3, 100560, Note_on_c, 0, 37, 34
3, 100680, Note_on_c, 0, 37, 0
3, 100680, Note_on_c, 0, 49, 34
3, 100800, Note_on_c, 0, 49, 0
3, 100800, Control_c, 0, 64, 0
3, 100800, Note_on_c, 0, 28, 37
3, 100856, Control_c, 0, 64, 127
3, 100920, Note_on_c, 0, 28, 0
3, 100920, Note_on_c, 0, 40, 31
3, 101040, Note_on_c, 0, 40, 0
3, 101040, Note_on_c, 0, 40, 34
3, 101160, Note_on_c, 0, 40, 0
3, 101160, Note_on_c, 0, 40, 36
3, 101280, Note_on_c, 0, 40, 0
3, 101280, Note_on_c, 0, 40, 40
3, 101289, Control_c, 0, 64, 0
3, 101340, Note_on_c, 0, 40, 0
3, 101400, Note_on_c, 0, 40, 41
3, 101460, Note_on_c, 0, 40, 0
3, 101520, Note_on_c, 0, 38, 46
3, 101580, Note_on_c, 0, 38, 0
3, 101640, Note_on_c, 0, 38, 47
3, 101700, Note_on_c, 0, 38, 0
3, 101760, Note_on_c, 0, 36, 48
3, 101820, Note_on_c, 0, 36, 0
3, 101880, Note_on_c, 0, 36, 49
3, 101940, Note_on_c, 0, 36, 0
3, 102000, Note_on_c, 0, 35, 51
3, 102060, Note_on_c, 0, 35, 0
3, 102120, Note_on_c, 0, 35, 53
3, 102180, Note_on_c, 0, 35, 0
3, 102240, Note_on_c, 0, 33, 57
3, 102254, Control_c, 0, 64, 127
3, 102360, Note_on_c, 0, 33, 0
3, 102360, Note_on_c, 0, 45, 46
3, 102380, Control_c, 0, 64, 0
3, 102420, Note_on_c, 0, 45, 0
3, 102480, Note_on_c, 0, 45, 46
3, 102540, Note_on_c, 0, 45, 0
3, 102600, Note_on_c, 0, 45, 46
3, 102660, Note_on_c, 0, 45, 0
3, 102720, Note_on_c, 0, 33, 57
3, 102746, Control_c, 0, 64, 127
3, 102840, Note_on_c, 0, 33, 0
3, 102840, Note_on_c, 0, 45, 46
3, 102866, Control_c, 0, 64, 0
3, 102900, Note_on_c, 0, 45, 0
3, 102960, Note_on_c, 0, 45, 47
3, 103020, Note_on_c, 0, 45, 0
3, 103080, Note_on_c, 0, 45, 47
3, 103140, Note_on_c, 0, 45, 0
3, 103200, Note_on_c, 0, 31, 55
3, 103223, Control_c, 0, 64, 127
3, 103320, Note_on_c, 0, 31, 0
3, 103320, Note_on_c, 0, 43, 47
3, 103343, Control_c, 0, 64, 0
3, 103380, Note_on_c, 0, 43, 0
3, 103440, Note_on_c, 0, 43, 48
3, 103500, Note_on_c, 0, 43, 0
3, 103560, Note_on_c, 0, 43, 48
3, 103620, Note_on_c, 0, 43, 0
3, 103680, Note_on_c, 0, 36, 60
3, 103686, Control_c, 0, 64, 127
3, 103800, Note_on_c, 0, 36, 0
3, 103800, Note_on_c, 0, 48, 49
3, 103809, Control_c, 0, 64, 0
3, 103860, Note_on_c, 0, 48, 0
3, 103920, Note_on_c, 0, 48, 50
3, 103980, Note_on_c, 0, 48, 0
3, 104040, Note_on_c, 0, 48, 50
3, 104100, Note_on_c, 0, 48, 0
3, 104160, Note_on_c, 0, 36, 50
3, 104200, Control_c, 0, 64, 127
3, 104250, Note_on_c, 0, 36, 0
3, 104280, Note_on_c, 0, 48, 50
3, 104340, Note_on_c, 0, 48, 0
3, 104340, Control_c, 0, 64, 0
3, 104400, Note_on_c, 0, 48, 51
3, 104460, Note_on_c, 0, 48, 0
3, 104520, Note_on_c, 0, 48, 51
3, 104580, Note_on_c, 0, 48, 0
3, 104640, Note_on_c, 0, 36, 57
3, 104663, Control_c, 0, 64, 127
3, 104760, Note_on_c, 0, 36, 0
3, 104760, Note_on_c, 0, 48, 51
3, 104880, Note_on_c, 0, 48, 0
3, 104880, Note_on_c, 0, 41, 54
3, 104899, Control_c, 0, 64, 0
3, 104926, Control_c, 0, 64, 127
3, 104970, Note_on_c, 0, 41, 0
3, 105000, Note_on_c, 0, 53, 57
3, 105090, Note_on_c, 0, 53, 0
3, 105120, Control_c, 0, 64, 0
3, 105120, Note_on_c, 0, 40, 60
3, 105152, Control_c, 0, 64, 127
3, 105240, Note_on_c, 0, 40, 0
3, 105240, Note_on_c, 0, 52, 50
3, 105296, Control_c, 0, 64, 0
3, 105300, Note_on_c, 0, 52, 0
3, 105360, Note_on_c, 0, 52, 50
3, 105420, Note_on_c, 0, 52, 0
3, 105480, Note_on_c, 0, 52, 48
3, 105540, Note_on_c, 0, 52, 0
3, 105600, Note_on_c, 0, 42, 41
3, 105664, Control_c, 0, 64, 127
3, 105720, Note_on_c, 0, 42, 0
3, 105720, Note_on_c, 0, 54, 39
3, 105840, Note_on_c, 0, 54, 0
3, 105840, Note_on_c, 0, 38, 34
3, 105856, Control_c, 0, 64, 0
3, 105932, Control_c, 0, 64, 127
3, 105960, Note_on_c, 0, 38, 0
3, 105960, Note_on_c, 0, 50, 34
3, 106080, Note_on_c, 0, 50, 0
3, 106080, Note_on_c, 0, 40, 34
3, 106115, Control_c, 0, 64, 0
3, 106172, Control_c, 0, 64, 127
3, 106200, Note_on_c, 0, 40, 0
3, 106200, Note_on_c, 0, 52, 34
3, 106320, Note_on_c, 0, 52, 0
3, 106320, Note_on_c, 0, 40, 31
3, 106440, Note_on_c, 0, 40, 0
3, 106440, Note_on_c, 0, 52, 31
3, 106560, Note_on_c, 0, 52, 0
3, 106560, Control_c, 0, 64, 0
3, 106616, Control_c, 0, 64, 127
3, 106680, Note_on_c, 0, 40, 29
3, 106800, Note_on_c, 0, 40, 0
3, 106800, Note_on_c, 0, 44, 31
3, 106920, Note_on_c, 0, 44, 0
3, 106920, Note_on_c, 0, 40, 33
3, 107040, Note_on_c, 0, 40, 0
3, 107040, Control_c, 0, 64, 0
3, 107040, Note_on_c, 0, 45, 35
3, 107130, Note_on_c, 0, 45, 0
3, 107160, Note_on_c, 0, 45, 32
3, 107220, Note_on_c, 0, 45, 0
3, 107280, Note_on_c, 0, 47, 32
3, 107340, Note_on_c, 0, 47, 0
3, 107400, Note_on_c, 0, 49, 32
3, 107460, Note_on_c, 0, 49, 0
3, 107520, Note_on_c, 0, 47, 32
3, 107580, Note_on_c, 0, 47, 0
3, 107640, Note_on_c, 0, 45, 32
3, 107700, Note_on_c, 0, 45, 0
3, 107760, Note_on_c, 0, 44, 31
3, 107820, Note_on_c, 0, 44, 0
3, 107880, Note_on_c, 0, 42, 31
3, 107940, Note_on_c, 0, 42, 0
3, 108000, Note_on_c, 0, 40, 36
3, 108004, Control_c, 0, 64, 127
3, 108120, Note_on_c, 0, 40, 0
3, 108240, Note_on_c, 0, 52, 23
3, 108240, Note_on_c, 0, 56, 27
3, 108360, Note_on_c, 0, 56, 0
3, 108360, Note_on_c, 0, 52, 0
3, 108480, Note_on_c, 0, 40, 36
3, 108600, Note_on_c, 0, 40, 0
3, 108720, Note_on_c, 0, 52, 24
3, 108720, Note_on_c, 0, 56, 28
3, 108840, Note_on_c, 0, 56, 0
3, 108840, Note_on_c, 0, 52, 0
3, 108960, Note_on_c, 0, 49, 36
3, 108982, Control_c, 0, 64, 0
3, 109059, Control_c, 0, 64, 127
3, 109080, Note_on_c, 0, 49, 0
3, 109200, Note_on_c, 0, 54, 25
3, 109200, Note_on_c, 0, 58, 29
3, 109320, Note_on_c, 0, 58, 0
3, 109320, Note_on_c, 0, 54, 0
3, 109440, Note_on_c, 0, 47, 36
3, 109440, Control_c, 0, 64, 0
3, 109497, Control_c, 0, 64, 127
3, 109560, Note_on_c, 0, 47, 0
3, 109680, Note_on_c, 0, 54, 25
3, 109680, Note_on_c, 0, 59, 30
3, 109800, Note_on_c, 0, 59, 0
3, 109800, Note_on_c, 0, 54, 0
3, 109920, Note_on_c, 0, 47, 36
3, 109944, Control_c, 0, 64, 0
3, 110034, Control_c, 0, 64, 127
3, 110040, Note_on_c, 0, 47, 0
3, 110160, Note_on_c, 0, 59, 29
3, 110160, Note_on_c, 0, 54, 25
3, 110280, Note_on_c, 0, 54, 0
3, 110280, Note_on_c, 0, 59, 0
3, 110400, Note_on_c, 0, 47, 36
3, 110407, Control_c, 0, 64, 0
3, 110481, Control_c, 0, 64, 127
3, 110520, Note_on_c, 0, 47, 0
3, 110640, Note_on_c, 0, 62, 29
3, 110640, Note_on_c, 0, 56, 25
3, 110640, Note_on_c, 0, 59, 25
3, 110760, Note_on_c, 0, 59, 0
3, 110760, Note_on_c, 0, 56, 0
3, 110760, Note_on_c, 0, 62, 0
3, 110880, Note_on_c, 0, 45, 36
3, 110880, Control_c, 0, 64, 0
3, 110958, Control_c, 0, 64, 127
3, 111000, Note_on_c, 0, 45, 0
3, 111120, Note_on_c, 0, 62, 28
3, 111120, Note_on_c, 0, 57, 24
3, 111300, Note_on_c, 0, 57, 0
3, 111300, Note_on_c, 0, 55, 24
3, 111360, Note_on_c, 0, 55, 0
3, 111360, Note_on_c, 0, 62, 0
3, 111360, Note_on_c, 0, 54, 27
3, 111360, Note_on_c, 0, 62, 36
3, 111367, Control_c, 0, 64, 0
3, 111424, Control_c, 0, 64, 127
3, 111600, Note_on_c, 0, 62, 0
3, 111600, Note_on_c, 0, 54, 0
3, 111600, Note_on_c, 0, 55, 27
3, 111600, Note_on_c, 0, 62, 32
3, 111615, Control_c, 0, 64, 0
3, 111692, Control_c, 0, 64, 127
3, 111840, Note_on_c, 0, 62, 0
3, 111840, Note_on_c, 0, 55, 0
3, 111840, Note_on_c, 0, 57, 27
3, 111840, Note_on_c, 0, 62, 32
3, 111855, Control_c, 0, 64, 0
3, 111932, Control_c, 0, 64, 127
3, 112080, Note_on_c, 0, 62, 0
3, 112080, Note_on_c, 0, 57, 0
3, 112080, Note_on_c, 0, 57, 28
3, 112080, Note_on_c, 0, 61, 33
3, 112320, Note_on_c, 0, 61, 0
3, 112320, Note_on_c, 0, 57, 0
3, 112320, Note_on_c, 0, 50, 36
3, 112320, Control_c, 0, 64, 0
3, 112376, Control_c, 0, 64, 127
3, 112440, Note_on_c, 0, 50, 0
3, 112560, Note_on_c, 0, 57, 27
3, 112560, Note_on_c, 0, 61, 33
3, 112680, Note_on_c, 0, 61, 0
3, 112680, Note_on_c, 0, 57, 0
3, 112800, Note_on_c, 0, 50, 33
3, 112809, Control_c, 0, 64, 0
3, 112849, Control_c, 0, 64, 127
3, 112920, Note_on_c, 0, 50, 0
3, 113040, Note_on_c, 0, 57, 27
3, 113040, Note_on_c, 0, 62, 32
3, 113220, Note_on_c, 0, 62, 0
3, 113220, Note_on_c, 0, 57, 0
3, 113280, Note_on_c, 0, 50, 36
3, 113460, Note_on_c, 0, 50, 0
3, 113520, Note_on_c, 0, 54, 26
3, 113520, Note_on_c, 0, 57, 30
3, 113700, Note_on_c, 0, 57, 0
3, 113700, Note_on_c, 0, 54, 0
3, 113760, Note_on_c, 0, 38, 25
3, 113771, Control_c, 0, 64, 0
3, 113811, Control_c, 0, 64, 127
3, 113880, Note_on_c, 0, 38, 0
3, 114000, Note_on_c, 0, 50, 16
3, 114000, Note_on_c, 0, 53, 18
3, 114120, Note_on_c, 0, 53, 0
3, 114120, Note_on_c, 0, 50, 0
3, 114240, Note_on_c, 0, 38, 25
3, 114360, Note_on_c, 0, 38, 0
3, 114480, Note_on_c, 0, 50, 17
3, 114480, Note_on_c, 0, 53, 19
3, 114600, Note_on_c, 0, 53, 0
3, 114600, Note_on_c, 0, 50, 0
3, 114720, Note_on_c, 0, 38, 25
3, 114840, Note_on_c, 0, 38, 0
3, 114960, Note_on_c, 0, 50, 17
3, 114960, Note_on_c, 0, 53, 20
3, 115080, Note_on_c, 0, 53, 0
3, 115080, Note_on_c, 0, 50, 0
3, 115200, Note_on_c, 0, 39, 25
3, 115200, Control_c, 0, 64, 0
3, 115257, Control_c, 0, 64, 127
3, 115320, Note_on_c, 0, 39, 0
3, 115440, Note_on_c, 0, 51, 17
3, 115440, Note_on_c, 0, 55, 21
3, 115560, Note_on_c, 0, 55, 0
3, 115560, Note_on_c, 0, 51, 0
3, 115680, Note_on_c, 0, 39, 25
3, 115704, Control_c, 0, 64, 0
3, 115794, Control_c, 0, 64, 127
3, 115920, Note_on_c, 0, 39, 0
3, 115920, Note_on_c, 0, 51, 17
3, 115920, Note_on_c, 0, 55, 17
3, 115920, Note_on_c, 0, 58, 20
3, 115926, Control_c, 0, 64, 0
3, 115969, Control_c, 0, 64, 127
3, 116160, Note_on_c, 0, 58, 0
3, 116160, Note_on_c, 0, 55, 0
3, 116160, Note_on_c, 0, 51, 0
3, 116160, Note_on_c, 0, 50, 17
3, 116160, Note_on_c, 0, 55, 17
3, 116160, Note_on_c, 0, 59, 20
3, 116166, Control_c, 0, 64, 0
3, 116212, Control_c, 0, 64, 127
3, 116400, Note_on_c, 0, 59, 0
3, 116400, Note_on_c, 0, 55, 0
3, 116400, Note_on_c, 0, 50, 0
3, 116400, Note_on_c, 0, 48, 17
3, 116400, Note_on_c, 0, 55, 17
3, 116400, Note_on_c, 0, 60, 20
3, 116413, Control_c, 0, 64, 0
3, 116437, Control_c, 0, 64, 127
3, 116640, Note_on_c, 0, 60, 0
3, 116640, Note_on_c, 0, 55, 0
3, 116640, Note_on_c, 0, 48, 0
3, 116640, Note_on_c, 0, 41, 25
3, 116640, Control_c, 0, 64, 0
3, 116718, Control_c, 0, 64, 127
3, 116760, Note_on_c, 0, 41, 0
3, 116880, Note_on_c, 0, 58, 19
3, 116880, Note_on_c, 0, 53, 17
3, 117000, Note_on_c, 0, 53, 0
3, 117000, Note_on_c, 0, 58, 0
3, 117120, Note_on_c, 0, 41, 25
3, 117240, Note_on_c, 0, 41, 0
3, 117360, Note_on_c, 0, 53, 17
3, 117360, Note_on_c, 0, 58, 19
3, 117480, Note_on_c, 0, 58, 0
3, 117480, Note_on_c, 0, 53, 0
3, 117600, Note_on_c, 0, 41, 25
3, 117635, Control_c, 0, 64, 0
3, 117692, Control_c, 0, 64, 127
3, 117720, Note_on_c, 0, 41, 0
3, 117840, Note_on_c, 0, 53, 17
3, 117840, Note_on_c, 0, 57, 19
3, 117960, Note_on_c, 0, 57, 0
3, 117960, Note_on_c, 0, 53, 0
3, 118080, Note_on_c, 0, 41, 25
3, 118080, Control_c, 0, 64, 0
3, 118136, Control_c, 0, 64, 127
3, 118200, Note_on_c, 0, 41, 0
3, 118320, Note_on_c, 0, 53, 23
3, 118440, Note_on_c, 0, 53, 0
3, 118560, Note_on_c, 0, 41, 23
3, 118680, Note_on_c, 0, 41, 0
3, 118800, Note_on_c, 0, 53, 22
3, 118980, Note_on_c, 0, 53, 0
3, 119040, Note_on_c, 0, 41, 25
3, 119220, Note_on_c, 0, 41, 0
3, 119280, Note_on_c, 0, 53, 23
3, 119460, Note_on_c, 0, 53, 0
3, 119520, Note_on_c, 0, 41, 25
3, 119520, Control_c, 0, 64, 0
3, 119576, Control_c, 0, 64, 127
3, 119640, Note_on_c, 0, 41, 0
3, 119760, Note_on_c, 0, 53, 23
3, 119880, Note_on_c, 0, 53, 0
3, 120000, Note_on_c, 0, 41, 23
3, 120120, Note_on_c, 0, 41, 0
3, 120240, Note_on_c, 0, 53, 22
3, 120420, Note_on_c, 0, 53, 0
3, 120480, Note_on_c, 0, 41, 25
3, 120494, Control_c, 0, 64, 0
3, 120576, Control_c, 0, 64, 127
3, 120660, Note_on_c, 0, 41, 0
3, 120720, Note_on_c, 0, 53, 24
3, 120900, Note_on_c, 0, 53, 0
3, 120960, Note_on_c, 0, 42, 28
3, 120960, Control_c, 0, 64, 0
3, 121016, Control_c, 0, 64, 127
3, 121080, Note_on_c, 0, 42, 0
3, 121200, Note_on_c, 0, 54, 24
3, 121320, Note_on_c, 0, 54, 0
3, 121440, Note_on_c, 0, 42, 23
3, 121560, Note_on_c, 0, 42, 0
3, 121680, Note_on_c, 0, 54, 22
3, 121860, Note_on_c, 0, 54, 0
3, 121920, Note_on_c, 0, 42, 25
3, 122100, Note_on_c, 0, 42, 0
3, 122160, Note_on_c, 0, 54, 23
3, 122340, Note_on_c, 0, 54, 0
3, 122400, Note_on_c, 0, 30, 25
3, 122400, Control_c, 0, 64, 0
3, 122456, Control_c, 0, 64, 127
3, 122520, Note_on_c, 0, 30, 0
3, 122640, Note_on_c, 0, 42, 23
3, 122760, Note_on_c, 0, 42, 0
3, 122880, Note_on_c, 0, 30, 23
3, 123000, Note_on_c, 0, 30, 0
3, 123120, Note_on_c, 0, 42, 22
3, 123300, Note_on_c, 0, 42, 0
3, 123360, Note_on_c, 0, 30, 25
3, 123374, Control_c, 0, 64, 0
3, 123456, Control_c, 0, 64, 127
3, 123540, Note_on_c, 0, 30, 0
3, 123600, Note_on_c, 0, 42, 24
3, 123780, Note_on_c, 0, 42, 0
3, 123840, Note_on_c, 0, 32, 28
3, 123840, Control_c, 0, 64, 0
3, 123896, Control_c, 0, 64, 127
3, 123960, Note_on_c, 0, 32, 0
3, 124080, Note_on_c, 0, 44, 24
3, 124200, Note_on_c, 0, 44, 0
3, 124320, Note_on_c, 0, 32, 23
3, 124440, Note_on_c, 0, 32, 0
3, 124560, Note_on_c, 0, 44, 22
3, 124740, Note_on_c, 0, 44, 0
3, 124800, Note_on_c, 0, 32, 25
3, 124980, Note_on_c, 0, 32, 0
3, 125040, Note_on_c, 0, 44, 23
3, 125220, Note_on_c, 0, 44, 0
3, 125280, Note_on_c, 0, 32, 25
3, 125280, Control_c, 0, 64, 0
3, 125336, Control_c, 0, 64, 127
3, 125400, Note_on_c, 0, 32, 0
3, 125520, Note_on_c, 0, 44, 22
3, 125640, Note_on_c, 0, 44, 0
3, 125760, Note_on_c, 0, 32, 22
3, 125880, Note_on_c, 0, 32, 0
3, 126000, Note_on_c, 0, 44, 20
3, 126180, Note_on_c, 0, 44, 0
3, 126240, Note_on_c, 0, 32, 22
3, 126249, Control_c, 0, 64, 0
3, 126306, Control_c, 0, 64, 127
3, 126420, Note_on_c, 0, 32, 0
3, 126480, Note_on_c, 0, 44, 20
3, 126660, Note_on_c, 0, 44, 0
3, 126720, Control_c, 0, 64, 0
3, 128160, Note_on_c, 0, 37, 26
3, 128174, Control_c, 0, 64, 127
3, 128280, Note_on_c, 0, 37, 0
3, 128400, Note_on_c, 0, 49, 22
3, 128640, Note_on_c, 0, 49, 0
3, 128640, Note_on_c, 0, 61, 27
3, 128880, Note_on_c, 0, 61, 0
3, 129148, Control_c, 0, 64, 0
3, 129240, Note_on_c, 0, 37, 25
3, 129300, Note_on_c, 0, 37, 0
3, 129360, Note_on_c, 0, 37, 25
3, 129420, Note_on_c, 0, 37, 0
3, 129480, Note_on_c, 0, 36, 25
3, 129540, Note_on_c, 0, 36, 0
3, 129600, Note_on_c, 0, 37, 26
3, 129646, Control_c, 0, 64, 127
3, 129720, Note_on_c, 0, 37, 0
3, 129840, Note_on_c, 0, 49, 22
3, 130080, Note_on_c, 0, 49, 0
3, 130080, Note_on_c, 0, 61, 27
3, 130320, Note_on_c, 0, 61, 0
3, 130574, Control_c, 0, 64, 0
3, 130680, Note_on_c, 0, 37, 26
3, 130740, Note_on_c, 0, 37, 0
3, 130800, Note_on_c, 0, 37, 26
3, 130860, Note_on_c, 0, 37, 0
3, 130920, Note_on_c, 0, 36, 27
3, 130980, Note_on_c, 0, 36, 0
3, 131040, Note_on_c, 0, 37, 26
3, 131071, Control_c, 0, 64, 127
3, 131160, Note_on_c, 0, 37, 0
3, 131280, Note_on_c, 0, 49, 22
3, 131520, Note_on_c, 0, 49, 0
3, 131520, Note_on_c, 0, 61, 27
3, 131760, Note_on_c, 0, 61, 0
3, 132014, Control_c, 0, 64, 0
3, 132120, Note_on_c, 0, 37, 27
3, 132180, Note_on_c, 0, 37, 0
3, 132240, Note_on_c, 0, 37, 26
3, 132300, Note_on_c, 0, 37, 0
3, 132360, Note_on_c, 0, 36, 26
3, 132420, Note_on_c, 0, 36, 0
3, 132480, Note_on_c, 0, 37, 26
3, 132511, Control_c, 0, 64, 127
3, 132600, Note_on_c, 0, 37, 0
3, 132720, Note_on_c, 0, 49, 22
3, 132960, Note_on_c, 0, 49, 0
3, 132960, Note_on_c, 0, 61, 27
3, 133200, Note_on_c, 0, 61, 0
3, 133468, Control_c, 0, 64, 0
3, 133560, Note_on_c, 0, 37, 28
3, 133620, Note_on_c, 0, 37, 0
3, 133680, Note_on_c, 0, 37, 27
3, 133740, Note_on_c, 0, 37, 0
3, 133800, Note_on_c, 0, 36, 26
3, 133860, Note_on_c, 0, 36, 0
3, 133920, Note_on_c, 0, 37, 26
3, 133960, Control_c, 0, 64, 127
3, 134040, Note_on_c, 0, 37, 0
3, 134160, Note_on_c, 0, 49, 22
3, 134400, Note_on_c, 0, 49, 0
3, 134400, Note_on_c, 0, 61, 27
3, 134640, Note_on_c, 0, 61, 0
3, 134894, Control_c, 0, 64, 0
3, 135000, Note_on_c, 0, 37, 25
3, 135060, Note_on_c, 0, 37, 0
3, 135120, Note_on_c, 0, 37, 25
3, 135180, Note_on_c, 0, 37, 0
3, 135240, Note_on_c, 0, 36, 26
3, 135300, Note_on_c, 0, 36, 0
3, 135360, Note_on_c, 0, 37, 26
3, 135394, Control_c, 0, 64, 127
3, 135480, Note_on_c, 0, 37, 0
3, 135600, Note_on_c, 0, 49, 22
3, 135840, Note_on_c, 0, 49, 0
3, 135840, Note_on_c, 0, 61, 27
3, 136080, Note_on_c, 0, 61, 0
3, 136334, Control_c, 0, 64, 0
3, 136440, Note_on_c, 0, 37, 26
3, 136500, Note_on_c, 0, 37, 0
3, 136560, Note_on_c, 0, 37, 26
3, 136620, Note_on_c, 0, 37, 0
3, 136680, Note_on_c, 0, 36, 27
3, 136740, Note_on_c, 0, 36, 0
3, 136800, Note_on_c, 0, 37, 31
3, 136826, Control_c, 0, 64, 127
3, 136920, Note_on_c, 0, 37, 0
3, 137040, Note_on_c, 0, 49, 25
3, 137280, Note_on_c, 0, 49, 0
3, 137280, Note_on_c, 0, 61, 30
3, 137520, Note_on_c, 0, 61, 0
3, 137774, Control_c, 0, 64, 0
3, 137880, Note_on_c, 0, 37, 26
3, 137940, Note_on_c, 0, 37, 0
3, 138000, Note_on_c, 0, 37, 26
3, 138060, Note_on_c, 0, 37, 0
3, 138120, Note_on_c, 0, 36, 26
3, 138180, Note_on_c, 0, 36, 0
3, 138240, Note_on_c, 0, 37, 26
3, 138282, Control_c, 0, 64, 127
3, 138360, Note_on_c, 0, 37, 0
3, 138480, Note_on_c, 0, 49, 22
3, 138720, Note_on_c, 0, 49, 0
3, 138720, Note_on_c, 0, 61, 27
3, 138960, Note_on_c, 0, 61, 0
3, 139214, Control_c, 0, 64, 0
3, 139320, Note_on_c, 0, 37, 27
3, 139380, Note_on_c, 0, 37, 0
3, 139440, Note_on_c, 0, 37, 27
3, 139500, Note_on_c, 0, 37, 0
3, 139560, Note_on_c, 0, 40, 27
3, 139620, Note_on_c, 0, 40, 0
3, 139680, Note_on_c, 0, 32, 28
3, 139703, Control_c, 0, 64, 127
3, 139800, Note_on_c, 0, 32, 0
3, 139920, Note_on_c, 0, 44, 35
3, 140160, Note_on_c, 0, 44, 0
3, 140160, Control_c, 0, 64, 0
3, 140160, Note_on_c, 0, 56, 41
3, 140232, Control_c, 0, 64, 127
3, 140400, Note_on_c, 0, 56, 0
3, 140654, Control_c, 0, 64, 0
3, 140696, Control_c, 0, 64, 127
3, 140760, Note_on_c, 0, 32, 31
3, 140820, Note_on_c, 0, 32, 0
3, 140880, Note_on_c, 0, 32, 32
3, 140940, Note_on_c, 0, 32, 0
3, 141000, Note_on_c, 0, 31, 32
3, 141060, Note_on_c, 0, 31, 0
3, 141120, Note_on_c, 0, 32, 35
3, 141148, Control_c, 0, 64, 0
3, 141154, Control_c, 0, 64, 127
3, 141240, Note_on_c, 0, 32, 0
3, 141360, Note_on_c, 0, 44, 43
3, 141600, Note_on_c, 0, 44, 0
3, 141600, Note_on_c, 0, 56, 50
3, 141606, Control_c, 0, 64, 0
3, 141657, Control_c, 0, 64, 127
3, 141840, Note_on_c, 0, 56, 0
3, 142094, Control_c, 0, 64, 0
3, 142136, Control_c, 0, 64, 127
3, 142200, Note_on_c, 0, 32, 35
3, 142260, Note_on_c, 0, 32, 0
3, 142320, Note_on_c, 0, 32, 35
3, 142380, Note_on_c, 0, 32, 0
3, 142440, Note_on_c, 0, 31, 35
3, 142500, Note_on_c, 0, 31, 0
3, 142560, Note_on_c, 0, 32, 39
3, 142588, Control_c, 0, 64, 0
3, 142594, Control_c, 0, 64, 127
3, 142680, Note_on_c, 0, 32, 0
3, 142800, Note_on_c, 0, 44, 49
3, 143040, Note_on_c, 0, 44, 0
3, 143040, Note_on_c, 0, 56, 57
3, 143047, Control_c, 0, 64, 0
3, 143092, Control_c, 0, 64, 127
3, 143280, Note_on_c, 0, 56, 0
3, 143534, Control_c, 0, 64, 0
3, 143576, Control_c, 0, 64, 127
3, 143640, Note_on_c, 0, 32, 42
3, 143700, Note_on_c, 0, 32, 0
3, 143760, Note_on_c, 0, 32, 42
3, 143820, Note_on_c, 0, 32, 0
3, 143880, Note_on_c, 0, 31, 42
3, 143940, Note_on_c, 0, 31, 0
3, 144000, Control_c, 0, 64, 0
3, 144000, Note_on_c, 0, 32, 46
3, 144031, Control_c, 0, 64, 127
3, 144120, Note_on_c, 0, 32, 0
3, 144240, Note_on_c, 0, 44, 52
3, 144480, Note_on_c, 0, 44, 0
3, 144480, Note_on_c, 0, 56, 60
3, 144495, Control_c, 0, 64, 0
3, 144546, Control_c, 0, 64, 127
3, 144720, Note_on_c, 0, 56, 0
3, 144720, Note_on_c, 0, 68, 59
3, 144840, Note_on_c, 0, 68, 0
3, 145080, Note_on_c, 0, 32, 36
3, 145091, Control_c, 0, 64, 0
3, 145109, Control_c, 0, 64, 127
3, 145140, Note_on_c, 0, 32, 0
3, 145200, Note_on_c, 0, 32, 36
3, 145260, Note_on_c, 0, 32, 0
3, 145320, Note_on_c, 0, 31, 36
3, 145380, Note_on_c, 0, 31, 0
3, 145440, Control_c, 0, 64, 0
3, 145440, Note_on_c, 0, 32, 36
3, 145539, Control_c, 0, 64, 127
3, 145560, Note_on_c, 0, 32, 0
3, 145680, Note_on_c, 0, 44, 38
3, 145920, Note_on_c, 0, 44, 0
3, 145920, Note_on_c, 0, 56, 41
3, 146160, Note_on_c, 0, 56, 0
3, 146160, Note_on_c, 0, 68, 38
3, 146280, Note_on_c, 0, 68, 0
3, 146880, Control_c, 0, 64, 0
3, 146880, Note_on_c, 0, 36, 26
3, 146954, Control_c, 0, 64, 127
3, 147120, Note_on_c, 0, 36, 0
3, 147120, Note_on_c, 0, 48, 22
3, 147360, Note_on_c, 0, 48, 0
3, 147360, Note_on_c, 0, 60, 24
3, 147600, Note_on_c, 0, 60, 0
3, 147600, Note_on_c, 0, 64, 25
3, 147720, Note_on_c, 0, 64, 0
3, 147854, Control_c, 0, 64, 0
3, 147960, Note_on_c, 0, 36, 25
3, 148020, Note_on_c, 0, 36, 0
3, 148080, Note_on_c, 0, 38, 25
3, 148140, Note_on_c, 0, 38, 0
3, 148200, Note_on_c, 0, 40, 25
3, 148260, Note_on_c, 0, 40, 0
3, 148320, Note_on_c, 0, 29, 26
3, 148394, Control_c, 0, 64, 127
3, 148560, Note_on_c, 0, 29, 0
3, 148560, Note_on_c, 0, 41, 22
3, 148800, Note_on_c, 0, 41, 0
3, 148800, Note_on_c, 0, 53, 26
3, 149040, Note_on_c, 0, 53, 0
3, 149040, Note_on_c, 0, 65, 25
3, 149160, Note_on_c, 0, 65, 0
3, 149294, Control_c, 0, 64, 0
3, 149400, Note_on_c, 0, 38, 25
3, 149460, Note_on_c, 0, 38, 0
3, 149520, Note_on_c, 0, 40, 25
3, 149580, Note_on_c, 0, 40, 0
3, 149640, Note_on_c, 0, 41, 25
3, 149700, Note_on_c, 0, 41, 0
3, 149760, Note_on_c, 0, 31, 26
3, 149834, Control_c, 0, 64, 127
3, 150000, Note_on_c, 0, 31, 0
3, 150000, Note_on_c, 0, 43, 22
3, 150240, Note_on_c, 0, 43, 0
3, 150240, Note_on_c, 0, 55, 27
3, 150480, Note_on_c, 0, 55, 0
3, 150480, Note_on_c, 0, 67, 28
3, 150600, Note_on_c, 0, 67, 0
3, 150734, Control_c, 0, 64, 0
3, 150840, Note_on_c, 0, 31, 25
3, 150900, Note_on_c, 0, 31, 0
3, 150960, Note_on_c, 0, 33, 25
3, 151020, Note_on_c, 0, 33, 0
3, 151080, Note_on_c, 0, 35, 25
3, 151140, Note_on_c, 0, 35, 0
3, 151200, Note_on_c, 0, 36, 26
3, 151235, Control_c, 0, 64, 127
3, 151440, Note_on_c, 0, 36, 0
3, 151440, Note_on_c, 0, 48, 22
3, 151680, Note_on_c, 0, 48, 0
3, 151680, Note_on_c, 0, 60, 27
3, 151920, Note_on_c, 0, 60, 0
3, 152197, Control_c, 0, 64, 0
3, 152280, Note_on_c, 0, 36, 25
3, 152340, Note_on_c, 0, 36, 0
3, 152400, Note_on_c, 0, 36, 25
3, 152460, Note_on_c, 0, 36, 0
3, 152520, Note_on_c, 0, 38, 25
3, 152580, Note_on_c, 0, 38, 0
3, 152640, Note_on_c, 0, 36, 26
3, 152711, Control_c, 0, 64, 127
3, 152880, Note_on_c, 0, 36, 0
3, 152880, Note_on_c, 0, 55, 22
3, 153120, Note_on_c, 0, 55, 0
3, 153120, Note_on_c, 0, 67, 27
3, 153360, Note_on_c, 0, 67, 0
3, 153628, Control_c, 0, 64, 0
3, 153720, Note_on_c, 0, 36, 25
3, 153780, Note_on_c, 0, 36, 0
3, 153840, Note_on_c, 0, 36, 25
3, 153900, Note_on_c, 0, 36, 0
3, 153960, Note_on_c, 0, 38, 25
3, 154020, Note_on_c, 0, 38, 0
3, 154080, Note_on_c, 0, 36, 26
3, 154154, Control_c, 0, 64, 127
3, 154320, Note_on_c, 0, 36, 0
3, 154320, Note_on_c, 0, 55, 22
3, 154560, Note_on_c, 0, 55, 0
3, 154560, Note_on_c, 0, 67, 27
3, 154800, Note_on_c, 0, 67, 0
3, 155054, Control_c, 0, 64, 0
3, 155160, Note_on_c, 0, 36, 25
3, 155220, Note_on_c, 0, 36, 0
3, 155280, Note_on_c, 0, 36, 25
3, 155340, Note_on_c, 0, 36, 0
3, 155400, Note_on_c, 0, 38, 25
3, 155460, Note_on_c, 0, 38, 0
3, 155520, Note_on_c, 0, 36, 26
3, 155594, Control_c, 0, 64, 127
3, 155760, Note_on_c, 0, 36, 0
3, 155760, Note_on_c, 0, 55, 22
3, 156000, Note_on_c, 0, 55, 0
3, 156000, Note_on_c, 0, 67, 27
3, 156240, Note_on_c, 0, 67, 0
3, 156494, Control_c, 0, 64, 0
3, 156600, Note_on_c, 0, 36, 25
3, 156660, Note_on_c, 0, 36, 0
3, 156720, Note_on_c, 0, 36, 25
3, 156780, Note_on_c, 0, 36, 0
3, 156840, Note_on_c, 0, 38, 25
3, 156900, Note_on_c, 0, 38, 0
3, 156960, Note_on_c, 0, 36, 26
3, 157013, Control_c, 0, 64, 127
3, 157200, Note_on_c, 0, 36, 0
3, 157200, Note_on_c, 0, 55, 22
3, 157440, Note_on_c, 0, 55, 0
3, 157440, Note_on_c, 0, 67, 27
3, 157680, Note_on_c, 0, 67, 0
3, 157948, Control_c, 0, 64, 0
3, 158040, Note_on_c, 0, 36, 25
3, 158100, Note_on_c, 0, 36, 0
3, 158160, Note_on_c, 0, 36, 25
3, 158220, Note_on_c, 0, 36, 0
3, 158280, Note_on_c, 0, 38, 25
3, 158340, Note_on_c, 0, 38, 0
3, 158400, Note_on_c, 0, 35, 26
3, 158471, Control_c, 0, 64, 127
3, 158640, Note_on_c, 0, 35, 0
3, 158640, Note_on_c, 0, 47, 22
3, 158880, Note_on_c, 0, 47, 0
3, 158880, Note_on_c, 0, 59, 27
3, 159120, Note_on_c, 0, 59, 0
3, 159388, Control_c, 0, 64, 0
3, 159480, Note_on_c, 0, 35, 25
3, 159540, Note_on_c, 0, 35, 0
3, 159600, Note_on_c, 0, 35, 25
3, 159660, Note_on_c, 0, 35, 0
3, 159720, Note_on_c, 0, 37, 25
3, 159780, Note_on_c, 0, 37, 0
3, 159840, Note_on_c, 0, 35, 26
3, 159875, Control_c, 0, 64, 127
3, 159960, Note_on_c, 0, 35, 0
3, 160080, Note_on_c, 0, 47, 22
3, 160320, Note_on_c, 0, 47, 0
3, 160320, Note_on_c, 0, 59, 27
3, 160560, Note_on_c, 0, 59, 0
3, 160814, Control_c, 0, 64, 0
3, 160920, Note_on_c, 0, 35, 25
3, 160980, Note_on_c, 0, 35, 0
3, 161040, Note_on_c, 0, 35, 25
3, 161100, Note_on_c, 0, 35, 0
3, 161160, Note_on_c, 0, 37, 25
3, 161220, Note_on_c, 0, 37, 0
3, 161280, Note_on_c, 0, 35, 26
3, 161354, Control_c, 0, 64, 127
3, 161400, Note_on_c, 0, 35, 0
3, 161520, Note_on_c, 0, 47, 22
3, 161760, Note_on_c, 0, 47, 0
3, 161760, Note_on_c, 0, 59, 27
3, 162000, Note_on_c, 0, 59, 0
3, 162254, Control_c, 0, 64, 0
3, 162360, Note_on_c, 0, 35, 25
3, 162420, Note_on_c, 0, 35, 0
3, 162480, Note_on_c, 0, 35, 25
3, 162540, Note_on_c, 0, 35, 0
3, 162600, Note_on_c, 0, 37, 25
3, 162660, Note_on_c, 0, 37, 0
3, 162720, Note_on_c, 0, 35, 26
3, 162773, Control_c, 0, 64, 127
3, 162840, Note_on_c, 0, 35, 0
3, 162960, Note_on_c, 0, 47, 22
3, 163200, Note_on_c, 0, 47, 0
3, 163200, Note_on_c, 0, 59, 27
3, 163440, Note_on_c, 0, 59, 0
3, 163708, Control_c, 0, 64, 0
3, 163800, Note_on_c, 0, 35, 26
3, 163860, Note_on_c, 0, 35, 0
3, 163920, Note_on_c, 0, 35, 26
3, 163980, Note_on_c, 0, 35, 0
3, 164040, Note_on_c, 0, 37, 26
3, 164100, Note_on_c, 0, 37, 0
3, 164160, Note_on_c, 0, 35, 29
3, 164188, Control_c, 0, 64, 0
3, 164234, Control_c, 0, 64, 127
3, 164280, Note_on_c, 0, 35, 0
3, 164400, Note_on_c, 0, 47, 37
3, 164640, Note_on_c, 0, 47, 0
3, 164640, Note_on_c, 0, 59, 43
3, 164880, Note_on_c, 0, 59, 0
3, 165134, Control_c, 0, 64, 0
3, 165240, Note_on_c, 0, 35, 32
3, 165300, Note_on_c, 0, 35, 0
3, 165360, Note_on_c, 0, 35, 33
3, 165420, Note_on_c, 0, 35, 0
3, 165480, Note_on_c, 0, 37, 33
3, 165540, Note_on_c, 0, 37, 0
3, 165600, Note_on_c, 0, 35, 37
3, 165674, Control_c, 0, 64, 127
3, 165720, Note_on_c, 0, 35, 0
3, 165840, Note_on_c, 0, 47, 47
3, 166080, Note_on_c, 0, 47, 0
3, 166080, Note_on_c, 0, 59, 56
3, 166320, Note_on_c, 0, 59, 0
3, 166574, Control_c, 0, 64, 0
3, 166680, Note_on_c, 0, 35, 40
3, 166740, Note_on_c, 0, 35, 0
3, 166800, Note_on_c, 0, 35, 41
3, 166860, Note_on_c, 0, 35, 0
3, 166920, Note_on_c, 0, 37, 43
3, 166980, Note_on_c, 0, 37, 0
3, 167040, Note_on_c, 0, 35, 46
3, 167075, Control_c, 0, 64, 127
3, 167160, Note_on_c, 0, 35, 0
3, 167280, Note_on_c, 0, 47, 52
3, 167520, Note_on_c, 0, 47, 0
3, 167520, Note_on_c, 0, 59, 60
3, 167760, Note_on_c, 0, 59, 0
3, 168109, Control_c, 0, 64, 0
3, 168120, Note_on_c, 0, 35, 33
3, 168180, Note_on_c, 0, 35, 0
3, 168240, Note_on_c, 0, 35, 32
3, 168300, Note_on_c, 0, 35, 0
3, 168360, Note_on_c, 0, 37, 33
3, 168420, Note_on_c, 0, 37, 0
3, 168480, Note_on_c, 0, 35, 34
3, 168544, Control_c, 0, 64, 127
3, 168600, Note_on_c, 0, 35, 0
3, 168720, Note_on_c, 0, 47, 30
3, 168960, Note_on_c, 0, 47, 0
3, 168960, Note_on_c, 0, 59, 31
3, 169200, Note_on_c, 0, 59, 0
3, 169751, Control_c, 0, 64, 0
3, 169920, Note_on_c, 0, 37, 26
3, 169959, Control_c, 0, 64, 127
3, 170040, Note_on_c, 0, 37, 0
3, 170160, Note_on_c, 0, 49, 22
3, 170400, Note_on_c, 0, 49, 0
3, 170400, Note_on_c, 0, 61, 26
3, 170640, Note_on_c, 0, 61, 0
3, 170894, Control_c, 0, 64, 0
3, 171000, Note_on_c, 0, 37, 25
3, 171060, Note_on_c, 0, 37, 0
3, 171120, Note_on_c, 0, 39, 25
3, 171180, Note_on_c, 0, 39, 0
3, 171240, Note_on_c, 0, 40, 25
3, 171300, Note_on_c, 0, 40, 0
3, 171360, Note_on_c, 0, 30, 24
3, 171400, Control_c, 0, 64, 127
3, 171480, Note_on_c, 0, 30, 0
3, 171600, Note_on_c, 0, 42, 24
3, 171840, Note_on_c, 0, 42, 0
3, 171840, Note_on_c, 0, 54, 27
3, 172077, Note_on_c, 0, 66, 30
3, 172080, Note_on_c, 0, 54, 0
3, 172317, Note_on_c, 0, 66, 0
3, 172334, Control_c, 0, 64, 0
3, 172440, Note_on_c, 0, 30, 25
3, 172500, Note_on_c, 0, 30, 0
3, 172560, Note_on_c, 0, 29, 25
3, 172620, Note_on_c, 0, 29, 0
3, 172680, Note_on_c, 0, 30, 25
3, 172740, Note_on_c, 0, 30, 0
3, 172800, Note_on_c, 0, 32, 24
3, 172863, Control_c, 0, 64, 127
3, 172920, Note_on_c, 0, 32, 0
3, 173040, Note_on_c, 0, 44, 22
3, 173280, Note_on_c, 0, 44, 0
3, 173280, Note_on_c, 0, 56, 27
3, 173520, Note_on_c, 0, 56, 0
3, 173774, Control_c, 0, 64, 0
3, 173880, Note_on_c, 0, 32, 25
3, 173940, Note_on_c, 0, 32, 0
3, 174000, Note_on_c, 0, 31, 25
3, 174060, Note_on_c, 0, 31, 0
3, 174120, Note_on_c, 0, 32, 25
3, 174180, Note_on_c, 0, 32, 0
3, 174240, Note_on_c, 0, 37, 26
3, 174275, Control_c, 0, 64, 127
3, 174360, Note_on_c, 0, 37, 0
3, 174480, Note_on_c, 0, 44, 22
3, 174720, Note_on_c, 0, 44, 0
3, 174720, Note_on_c, 0, 49, 27
3, 174960, Note_on_c, 0, 49, 0
3, 175320, Control_c, 0, 64, 0
3, 175320, Note_on_c, 0, 37, 25
3, 175380, Note_on_c, 0, 37, 0
3, 175440, Note_on_c, 0, 37, 25
3, 175500, Note_on_c, 0, 37, 0
3, 175560, Note_on_c, 0, 36, 25
3, 175620, Note_on_c, 0, 36, 0
3, 175680, Note_on_c, 0, 37, 20
3, 175754, Control_c, 0, 64, 127
3, 175920, Note_on_c, 0, 37, 0
3, 175920, Note_on_c, 0, 49, 20
3, 176160, Note_on_c, 0, 49, 0
3, 176160, Note_on_c, 0, 61, 23
3, 176400, Note_on_c, 0, 61, 0
3, 176654, Control_c, 0, 64, 0
3, 176760, Note_on_c, 0, 37, 20
3, 176820, Note_on_c, 0, 37, 0
3, 176880, Note_on_c, 0, 39, 20
3, 176940, Note_on_c, 0, 39, 0
3, 177000, Note_on_c, 0, 41, 20
3, 177060, Note_on_c, 0, 41, 0
3, 177120, Note_on_c, 0, 30, 19
3, 177194, Control_c, 0, 64, 127
3, 177360, Note_on_c, 0, 30, 0
3, 177360, Note_on_c, 0, 42, 20
3, 177600, Note_on_c, 0, 42, 0
3, 177600, Note_on_c, 0, 54, 23
3, 177840, Note_on_c, 0, 54, 0
3, 178094, Control_c, 0, 64, 0
3, 178200, Note_on_c, 0, 39, 20
3, 178260, Note_on_c, 0, 39, 0
3, 178320, Note_on_c, 0, 41, 20
3, 178380, Note_on_c, 0, 41, 0
3, 178440, Note_on_c, 0, 42, 20
3, 178500, Note_on_c, 0, 42, 0
3, 178560, Note_on_c, 0, 32, 19
3, 178634, Control_c, 0, 64, 127
3, 178800, Note_on_c, 0, 32, 0
3, 178800, Note_on_c, 0, 44, 17
3, 179040, Note_on_c, 0, 44, 0
3, 179040, Note_on_c, 0, 56, 21
3, 179280, Note_on_c, 0, 56, 0
3, 179534, Control_c, 0, 64, 0
3, 179640, Note_on_c, 0, 32, 20
3, 179700, Note_on_c, 0, 32, 0
3, 179760, Note_on_c, 0, 34, 22
3, 179820, Note_on_c, 0, 34, 0
3, 179880, Note_on_c, 0, 36, 22
3, 179940, Note_on_c, 0, 36, 0
3, 180000, Note_on_c, 0, 37, 22
3, 180035, Control_c, 0, 64, 127
3, 180240, Note_on_c, 0, 37, 0
3, 180240, Note_on_c, 0, 44, 19
3, 180480, Note_on_c, 0, 44, 0
3, 180480, Note_on_c, 0, 49, 22
3, 180720, Note_on_c, 0, 49, 0
3, 181080, Control_c, 0, 64, 0
3, 181080, Note_on_c, 0, 49, 25
3, 181140, Note_on_c, 0, 49, 0
3, 181200, Note_on_c, 0, 48, 25
3, 181260, Note_on_c, 0, 48, 0
3, 181320, Note_on_c, 0, 49, 25
3, 181380, Note_on_c, 0, 49, 0
3, 181440, Control_c, 0, 64, 0
3, 181440, Note_on_c, 0, 46, 26
3, 181475, Control_c, 0, 64, 127
3, 181680, Note_on_c, 0, 46, 0
3, 182502, Control_c, 0, 64, 0
3, 182520, Note_on_c, 0, 46, 25
3, 182580, Note_on_c, 0, 46, 0
3, 182640, Note_on_c, 0, 46, 25
3, 182700, Note_on_c, 0, 46, 0
3, 182760, Note_on_c, 0, 49, 25
3, 182820, Note_on_c, 0, 49, 0
3, 182880, Note_on_c, 0, 45, 26
3, 182915, Control_c, 0, 64, 127
3, 183120, Note_on_c, 0, 45, 0
3, 183956, Control_c, 0, 64, 0
3, 183960, Note_on_c, 0, 45, 25
3, 184020, Note_on_c, 0, 45, 0
3, 184080, Note_on_c, 0, 45, 25
3, 184140, Note_on_c, 0, 45, 0
3, 184200, Note_on_c, 0, 49, 25
3, 184260, Note_on_c, 0, 49, 0
3, 184320, Note_on_c, 0, 44, 26
3, 184355, Control_c, 0, 64, 127
3, 184560, Note_on_c, 0, 44, 0
3, 185377, Control_c, 0, 64, 0
3, 185400, Note_on_c, 0, 44, 25
3, 185460, Note_on_c, 0, 44, 0
3, 185520, Note_on_c, 0, 43, 25
3, 185580, Note_on_c, 0, 43, 0
3, 185640, Note_on_c, 0, 44, 25
3, 185700, Note_on_c, 0, 44, 0
3, 185760, Note_on_c, 0, 37, 26
3, 185795, Control_c, 0, 64, 127
3, 186000, Note_on_c, 0, 37, 0
3, 186000, Note_on_c, 0, 49, 27
3, 186120, Note_on_c, 0, 49, 0
3, 186808, Control_c, 0, 64, 0
3, 186840, Note_on_c, 0, 37, 22
3, 186900, Note_on_c, 0, 37, 0
3, 186960, Note_on_c, 0, 36, 22
3, 187020, Note_on_c, 0, 36, 0
3, 187080, Note_on_c, 0, 37, 22
3, 187140, Note_on_c, 0, 37, 0
3, 187200, Control_c, 0, 64, 0
3, 187200, Note_on_c, 0, 34, 22
3, 187235, Control_c, 0, 64, 127
3, 187320, Note_on_c, 0, 34, 0
3, 187440, Note_on_c, 0, 46, 24
3, 187560, Note_on_c, 0, 46, 0
3, 188262, Control_c, 0, 64, 0
3, 188280, Note_on_c, 0, 34, 21
3, 188340, Note_on_c, 0, 34, 0
3, 188400, Note_on_c, 0, 34, 21
3, 188460, Note_on_c, 0, 34, 0
3, 188520, Note_on_c, 0, 37, 21
3, 188580, Note_on_c, 0, 37, 0
3, 188640, Note_on_c, 0, 33, 22
3, 188675, Control_c, 0, 64, 127
3, 188760, Note_on_c, 0, 33, 0
3, 188880, Note_on_c, 0, 45, 24
3, 189000, Note_on_c, 0, 45, 0
3, 189716, Control_c, 0, 64, 0
3, 189720, Note_on_c, 0, 33, 21
3, 189780, Note_on_c, 0, 33, 0
3, 189840, Note_on_c, 0, 33, 21
3, 189900, Note_on_c, 0, 33, 0
3, 189960, Note_on_c, 0, 35, 21
3, 190020, Note_on_c, 0, 35, 0
3, 190080, Note_on_c, 0, 32, 22
3, 190115, Control_c, 0, 64, 127
3, 190200, Note_on_c, 0, 32, 0
3, 190320, Note_on_c, 0, 44, 24
3, 190440, Note_on_c, 0, 44, 0
3, 190560, Note_on_c, 0, 56, 24
3, 191040, Note_on_c, 0, 56, 0
3, 191137, Control_c, 0, 64, 0
3, 191160, Note_on_c, 0, 32, 21
3, 191220, Note_on_c, 0, 32, 0
3, 191280, Note_on_c, 0, 31, 21
3, 191340, Note_on_c, 0, 31, 0
3, 191400, Note_on_c, 0, 32, 21
3, 191460, Note_on_c, 0, 32, 0
3, 191520, Note_on_c, 0, 61, 25
3, 191520, Note_on_c, 0, 56, 21
3, 191520, Note_on_c, 0, 53, 21
3, 191520, Note_on_c, 0, 37, 22
3, 191555, Control_c, 0, 64, 127
3, 191640, Note_on_c, 0, 37, 0
3, 191760, Note_on_c, 0, 49, 22
3, 191880, Note_on_c, 0, 49, 0
3, 192568, Control_c, 0, 64, 0
3, 192600, Note_on_c, 0, 37, 21
3, 192660, Note_on_c, 0, 37, 0
3, 192720, Note_on_c, 0, 61, 0
3, 192720, Note_on_c, 0, 56, 0
3, 192720, Note_on_c, 0, 53, 0
3, 192720, Note_on_c, 0, 37, 21
3, 192780, Note_on_c, 0, 37, 0
3, 192840, Note_on_c, 0, 36, 21
3, 192900, Note_on_c, 0, 36, 0
3, 192960, Note_on_c, 0, 61, 25
3, 192960, Note_on_c, 0, 58, 21
3, 192960, Note_on_c, 0, 54, 21
3, 192960, Note_on_c, 0, 37, 22
3, 192995, Control_c, 0, 64, 127
3, 193080, Note_on_c, 0, 37, 0
3, 193200, Note_on_c, 0, 49, 22
3, 193320, Note_on_c, 0, 49, 0
3, 194008, Control_c, 0, 64, 0
3, 194040, Note_on_c, 0, 37, 21
3, 194100, Note_on_c, 0, 37, 0
3, 194160, Note_on_c, 0, 61, 0
3, 194160, Note_on_c, 0, 58, 0
3, 194160, Note_on_c, 0, 54, 0
3, 194160, Note_on_c, 0, 37, 21
3, 194220, Note_on_c, 0, 37, 0
3, 194280, Note_on_c, 0, 36, 21
3, 194340, Note_on_c, 0, 36, 0
3, 194400, Note_on_c, 0, 61, 25
3, 194400, Note_on_c, 0, 54, 21
3, 194400, Note_on_c, 0, 51, 21
3, 194400, Note_on_c, 0, 37, 22
3, 194435, Control_c, 0, 64, 127
3, 194520, Note_on_c, 0, 37, 0
3, 194640, Note_on_c, 0, 49, 22
3, 194760, Note_on_c, 0, 49, 0
3, 195448, Control_c, 0, 64, 0
3, 195480, Note_on_c, 0, 37, 21
3, 195540, Note_on_c, 0, 37, 0
3, 195600, Note_on_c, 0, 61, 0
3, 195600, Note_on_c, 0, 54, 0
3, 195600, Note_on_c, 0, 51, 0
3, 195600, Note_on_c, 0, 37, 21
3, 195660, Note_on_c, 0, 37, 0
3, 195720, Note_on_c, 0, 36, 21
3, 195780, Note_on_c, 0, 36, 0
3, 195840, Note_on_c, 0, 37, 22
3, 195840, Note_on_c, 0, 53, 21
3, 195840, Note_on_c, 0, 56, 21
3, 195840, Note_on_c, 0, 61, 25
3, 195882, Control_c, 0, 64, 127
3, 196080, Note_on_c, 0, 37, 0
3, 196320, Note_on_c, 0, 53, 0
3, 196320, Note_on_c, 0, 56, 0
3, 196320, Note_on_c, 0, 61, 0
3, 196320, Note_on_c, 0, 53, 18
3, 196320, Note_on_c, 0, 56, 18
3, 196320, Note_on_c, 0, 61, 22
3, 196800, Note_on_c, 0, 61, 0
3, 196800, Note_on_c, 0, 56, 0
3, 196800, Note_on_c, 0, 53, 0
3, 196800, Note_on_c, 0, 53, 18
3, 196800, Note_on_c, 0, 56, 18
3, 196800, Note_on_c, 0, 61, 22
3, 197040, Note_on_c, 0, 32, 18
3, 197100, Note_on_c, 0, 32, 0
3, 197280, Note_on_c, 0, 53, 0
3, 197280, Note_on_c, 0, 56, 0
3, 197280, Note_on_c, 0, 61, 0
3, 197280, Note_on_c, 0, 37, 19
3, 197280, Note_on_c, 0, 53, 18
3, 197280, Note_on_c, 0, 56, 18
3, 197280, Note_on_c, 0, 61, 22
3, 198720, Note_on_c, 0, 61, 0
3, 198720, Note_on_c, 0, 37, 0
3, 198720, Note_on_c, 0, 53, 0
3, 198720, Note_on_c, 0, 56, 0
3, 199893, Control_c, 0, 64, 0
3, 199893, End_track
4, 0, Start_track
4, 0, Title_t, "Schubert Sonate D960  2. Satz"
4, 0, End_track
5, 0, Start_track
5, 0, Title_t, "Copyright © 2002 by Bernd Krüger"
5, 0, End_track
6, 0, Start_track
6, 0, Title_t, "http://www.piano-midi.de"
6, 0, End_track
7, 0, Start_track
7, 0, Title_t, "Edition: 2014-03-24"
7, 0, End_track
8, 0, Start_track
8, 0, Title_t, "Spur 7"
8, 0, End_track
9, 0, Start_track
9, 0, Title_t, "Spur 8"
9, 0, End_track
10, 0, Start_track
10, 0, Title_t, "Spur 9"
10, 0, End_track
0, 0, End_of_file
