0, 0, Header, 1, 7, 480
1, 0, Start_track
1, 0, Title_t, "Sechs Moments Musicaux Opus 94 D 780"
1, 0, Title_t, "Nr. 2 in As-Dur"
1, 0, Copyright_t, "Copyright © 1996 von Bernd Krüger."
1, 0, Text_t, "Schubert"
1, 0, Text_t, "Andantino"
1, 0, Text_t, "Korrkekturen am 6.9.98\012"
1, 0, Text_t, "Update am 11.5.99\012"
1, 0, Text_t, "Update am 22.5.99\012"
1, 0, Text_t, "Normierung: 23.12.2002\012"
1, 0, Text_t, "Update am 22.6.2007\012"
1, 0, Text_t, "Update am 16.3.2014\012"
1, 0, Text_t, "Dauer: 5:20 Minuten\012"
1, 0, Time_signature, 9, 3, 12, 8
1, 0, Key_signature, -4, "major"
1, 0, Tempo, 923077
1, 20, Tempo, 819336
1, 1920, Tempo, 959693
1, 2152, Tempo, 819336
1, 4080, Tempo, 1065152
1, 4328, Tempo, 819336
1, 7000, Tempo, 1054667
1, 7208, Tempo, 819336
1, 8520, Tempo, 1054667
1, 8632, Tempo, 819336
1, 11280, Tempo, 1065152
1, 11520, Tempo, 819336
1, 15600, Tempo, 986355
1, 15848, Tempo, 819336
1, 17144, Tempo, 1054667
1, 17272, Tempo, 819336
1, 19208, Tempo, 1065152
1, 19440, Tempo, 819336
1, 20872, Tempo, 819336
1, 20920, Tempo, 825764
1, 20960, Tempo, 832178
1, 21000, Tempo, 838692
1, 21048, Tempo, 845428
1, 21088, Tempo, 852152
1, 21128, Tempo, 858984
1, 21176, Tempo, 866051
1, 21216, Tempo, 873108
1, 21256, Tempo, 880282
1, 21296, Tempo, 887705
1, 21344, Tempo, 895122
1, 21352, Tempo, 1065152
1, 21592, Tempo, 942655
1, 21600, Tempo, 819336
1, 24240, Tempo, 1004857
1, 24488, Tempo, 819336
1, 25808, Tempo, 1054667
1, 25920, Tempo, 819336
1, 28560, Tempo, 1076040
1, 28792, Tempo, 819336
1, 30128, Tempo, 1076040
1, 30232, Tempo, 819336
1, 30240, Tempo, 857143
1, 30260, Tempo, 863309
1, 30360, Tempo, 869565
1, 30460, Tempo, 875912
1, 30540, Tempo, 882353
1, 30640, Tempo, 888889
1, 30720, Tempo, 895522
1, 30820, Tempo, 902256
1, 30920, Tempo, 909091
1, 31000, Tempo, 916031
1, 31100, Tempo, 923077
1, 31180, Tempo, 930233
1, 31220, Tempo, 882353
1, 31680, Tempo, 887705
1, 32400, Tempo, 882353
1, 32540, Tempo, 888889
1, 32680, Tempo, 895522
1, 32820, Tempo, 902256
1, 32960, Tempo, 909091
1, 33080, Tempo, 916031
1, 33120, Tempo, 819336
1, 33840, Tempo, 813118
1, 33952, Tempo, 819336
1, 34064, Tempo, 825764
1, 34168, Tempo, 832178
1, 34280, Tempo, 838692
1, 34392, Tempo, 845428
1, 34496, Tempo, 852152
1, 34608, Tempo, 858984
1, 34720, Tempo, 866051
1, 34824, Tempo, 873108
1, 34936, Tempo, 880282
1, 35040, Tempo, 1065152
1, 35288, Tempo, 819336
1, 35880, Tempo, 1065152
1, 35992, Tempo, 819336
1, 36592, Tempo, 1183665
1, 36720, Tempo, 819336
1, 38860, Tempo, 560590
1, 38880, Key_signature, 3, "major"
1, 38880, Tempo, 593003
1, 38884, Tempo, 668077
1, 38900, Tempo, 649491
1, 40800, Tempo, 685636
1, 41040, Tempo, 649491
1, 43680, Tempo, 685636
1, 43920, Tempo, 649491
1, 44400, Tempo, 689338
1, 44632, Tempo, 689338
1, 44640, Tempo, 649491
1, 45120, Tempo, 709220
1, 45360, Tempo, 649491
1, 49432, Tempo, 734574
1, 49440, Tempo, 693241
1, 49680, Tempo, 649491
1, 50720, Tempo, 645995
1, 50820, Tempo, 649491
1, 50900, Tempo, 652884
1, 50980, Tempo, 656312
1, 51060, Tempo, 659921
1, 51160, Tempo, 663423
1, 51240, Tempo, 666963
1, 51320, Tempo, 670766
1, 51400, Tempo, 674309
1, 51500, Tempo, 677966
1, 51580, Tempo, 681741
1, 51660, Tempo, 685636
1, 51740, Tempo, 689338
1, 51840, Tempo, 649491
1, 53760, Tempo, 725865
1, 53992, Tempo, 685636
1, 54000, Tempo, 649491
1, 56640, Tempo, 689338
1, 56880, Tempo, 649491
1, 57360, Tempo, 693241
1, 57600, Tempo, 649491
1, 58072, Tempo, 747943
1, 58080, Tempo, 709220
1, 58320, Tempo, 649491
1, 61900, Tempo, 645995
1, 62020, Tempo, 649491
1, 62140, Tempo, 652884
1, 62260, Tempo, 656312
1, 62380, Tempo, 659921
1, 62500, Tempo, 663423
1, 62600, Tempo, 666963
1, 62640, Tempo, 649491
1, 63840, Tempo, 709220
1, 64072, Tempo, 689338
1, 64080, Tempo, 649491
1, 65840, Tempo, 645995
1, 65920, Tempo, 649491
1, 65980, Tempo, 652884
1, 66060, Tempo, 656312
1, 66120, Tempo, 659921
1, 66180, Tempo, 663423
1, 66260, Tempo, 666963
1, 66320, Tempo, 670766
1, 66380, Tempo, 674309
1, 66460, Tempo, 677966
1, 66520, Tempo, 681741
1, 66600, Tempo, 685636
1, 66660, Tempo, 689338
1, 66720, Tempo, 693241
1, 66800, Tempo, 697188
1, 66860, Tempo, 701098
1, 66920, Tempo, 705136
1, 66960, Tempo, 649491
1, 71040, Tempo, 689338
1, 71280, Tempo, 649491
1, 73320, Tempo, 693241
1, 73440, Tempo, 649491
1, 74140, Tempo, 645995
1, 74160, Tempo, 645161
1, 74220, Tempo, 648649
1, 74260, Tempo, 652174
1, 74320, Tempo, 655738
1, 74360, Tempo, 659341
1, 74400, Tempo, 662983
1, 74460, Tempo, 666667
1, 74500, Tempo, 670391
1, 74540, Tempo, 674157
1, 74600, Tempo, 677966
1, 74640, Tempo, 681818
1, 74700, Tempo, 685714
1, 74740, Tempo, 689655
1, 74780, Tempo, 693642
1, 74840, Tempo, 697674
1, 74880, Tempo, 701754
1, 74920, Tempo, 705882
1, 74980, Tempo, 710059
1, 75020, Tempo, 714286
1, 75060, Tempo, 718563
1, 75120, Tempo, 722892
1, 75160, Tempo, 727273
1, 75220, Tempo, 731707
1, 75260, Tempo, 736196
1, 75300, Tempo, 740741
1, 75360, Tempo, 745342
1, 75400, Tempo, 750000
1, 75440, Tempo, 754717
1, 75500, Tempo, 759494
1, 75540, Tempo, 764331
1, 75580, Tempo, 769231
1, 75600, Tempo, 779221
1, 75620, Tempo, 789474
1, 75640, Tempo, 800000
1, 75660, Tempo, 810811
1, 75680, Tempo, 821918
1, 75700, Tempo, 833333
1, 75720, Tempo, 845070
1, 75740, Tempo, 857143
1, 75760, Tempo, 869565
1, 75780, Tempo, 882353
1, 75800, Tempo, 895522
1, 75820, Tempo, 909091
1, 75840, Tempo, 923077
1, 75860, Tempo, 937500
1, 75880, Tempo, 952381
1, 75900, Tempo, 967742
1, 75920, Tempo, 983607
1, 75940, Tempo, 1000000
1, 75960, Tempo, 1016949
1, 75980, Tempo, 1034483
1, 76000, Tempo, 1052632
1, 76020, Tempo, 1071429
1, 76040, Tempo, 1090909
1, 76060, Tempo, 1111111
1, 76080, Tempo, 1132075
1, 76100, Tempo, 1153846
1, 76120, Tempo, 1176471
1, 76140, Tempo, 1200000
1, 76160, Tempo, 1224490
1, 76180, Tempo, 1250000
1, 76200, Tempo, 1276596
1, 76220, Tempo, 1304348
1, 76240, Tempo, 1333333
1, 76260, Tempo, 1363636
1, 76280, Tempo, 1395349
1, 76300, Tempo, 1428571
1, 77040, Tempo, 813118
1, 77520, Tempo, 1005699
1, 77752, Tempo, 932836
1, 77760, Key_signature, -4, "major"
1, 77764, Tempo, 881964
1, 77800, Tempo, 814332
1, 79680, Tempo, 1058948
1, 79928, Tempo, 814332
1, 82600, Tempo, 1048401
1, 82808, Tempo, 814332
1, 84120, Tempo, 1048401
1, 84232, Tempo, 814332
1, 86880, Tempo, 1058948
1, 87120, Tempo, 814332
1, 91440, Tempo, 808081
1, 91584, Tempo, 814332
1, 91728, Tempo, 820681
1, 91872, Tempo, 827130
1, 92008, Tempo, 833449
1, 92152, Tempo, 840101
1, 92296, Tempo, 846860
1, 92432, Tempo, 853849
1, 92576, Tempo, 860709
1, 92640, Tempo, 1058948
1, 92872, Tempo, 814332
1, 92880, Tempo, 882353
1, 93120, Tempo, 888889
1, 93360, Tempo, 895522
1, 93580, Tempo, 902256
1, 93600, Tempo, 863309
1, 94080, Tempo, 833333
1, 94800, Tempo, 1069519
1, 95040, Tempo, 869565
1, 95100, Tempo, 875912
1, 95140, Tempo, 882353
1, 95200, Tempo, 888889
1, 95240, Tempo, 895522
1, 95300, Tempo, 902256
1, 95340, Tempo, 909091
1, 95400, Tempo, 916031
1, 95440, Tempo, 923077
1, 95480, Tempo, 930233
1, 95520, Tempo, 814332
1, 98640, Tempo, 814332
1, 98736, Tempo, 820681
1, 98832, Tempo, 827130
1, 98928, Tempo, 833449
1, 99024, Tempo, 840101
1, 99120, Tempo, 889680
1, 99360, Tempo, 874763
1, 99832, Tempo, 920387
1, 100088, Tempo, 814332
1, 100680, Tempo, 962464
1, 100800, Tempo, 814332
1, 101400, Tempo, 971188
1, 101520, Tempo, 743126
1, 101524, Tempo, 777807
1, 101584, Tempo, 842223
1, 102120, Tempo, 912548
1, 102240, Tempo, 842223
1, 102840, Tempo, 904977
1, 102960, Tempo, 842223
1, 103432, Tempo, 912548
1, 103680, Tempo, 842223
1, 104280, Tempo, 920104
1, 104400, Tempo, 842223
1, 105000, Tempo, 904977
1, 105128, Tempo, 842223
1, 105592, Tempo, 912548
1, 105832, Tempo, 842223
1, 106440, Tempo, 977676
1, 106560, Tempo, 842223
1, 107160, Tempo, 904977
1, 107280, Tempo, 842223
1, 107440, Tempo, 848896
1, 107600, Tempo, 855554
1, 107752, Tempo, 862193
1, 107912, Tempo, 869061
1, 108072, Tempo, 875912
1, 108224, Tempo, 883132
1, 108384, Tempo, 890208
1, 108544, Tempo, 897532
1, 108696, Tempo, 904977
1, 108720, Tempo, 842223
1, 110032, Tempo, 1084207
1, 110152, Tempo, 842223
1, 110740, Tempo, 912548
1, 110880, Tempo, 842223
1, 111472, Tempo, 912548
1, 111592, Tempo, 842223
1, 112080, Tempo, 920104
1, 112312, Tempo, 848896
1, 112320, Tempo, 842223
1, 112920, Tempo, 912548
1, 113040, Tempo, 842223
1, 113640, Tempo, 904977
1, 113760, Tempo, 842223
1, 114240, Tempo, 904977
1, 114480, Tempo, 842223
1, 115060, Tempo, 1152959
1, 115200, Tempo, 842223
1, 115800, Tempo, 904977
1, 115920, Tempo, 839161
1, 116000, Tempo, 845070
1, 116080, Tempo, 851064
1, 116160, Tempo, 857143
1, 116240, Tempo, 863309
1, 116320, Tempo, 869565
1, 116400, Tempo, 875912
1, 116480, Tempo, 882353
1, 116560, Tempo, 888889
1, 116620, Tempo, 895522
1, 116700, Tempo, 902256
1, 116780, Tempo, 909091
1, 116860, Tempo, 916031
1, 116940, Tempo, 923077
1, 117020, Tempo, 930233
1, 117100, Tempo, 937500
1, 117180, Tempo, 944882
1, 117260, Tempo, 952381
1, 117320, Tempo, 960000
1, 117336, Tempo, 904977
1, 117360, Tempo, 875912
1, 118680, Tempo, 977676
1, 118792, Tempo, 842223
1, 119280, Tempo, 600000
1, 120960, Key_signature, 3, "major"
1, 120984, Tempo, 600000
1, 122880, Tempo, 670391
1, 123120, Tempo, 600000
1, 125160, Tempo, 666667
1, 125280, Tempo, 600000
1, 125880, Tempo, 666667
1, 126000, Tempo, 600000
1, 126600, Tempo, 670391
1, 126720, Tempo, 600000
1, 127280, Tempo, 750000
1, 127440, Tempo, 603015
1, 128640, Tempo, 666667
1, 128880, Tempo, 600000
1, 129360, Tempo, 621762
1, 129600, Tempo, 600000
1, 130800, Tempo, 638298
1, 131040, Tempo, 600000
1, 131640, Tempo, 705882
1, 131760, Tempo, 600000
1, 132680, Tempo, 600000
1, 132720, Tempo, 603015
1, 132760, Tempo, 606061
1, 132780, Tempo, 609137
1, 132820, Tempo, 612245
1, 132860, Tempo, 615385
1, 132880, Tempo, 618557
1, 132920, Tempo, 621762
1, 132960, Tempo, 625000
1, 132980, Tempo, 628272
1, 133020, Tempo, 631579
1, 133040, Tempo, 634921
1, 133080, Tempo, 638298
1, 133120, Tempo, 641711
1, 133140, Tempo, 645161
1, 133180, Tempo, 648649
1, 133220, Tempo, 652174
1, 133240, Tempo, 655738
1, 133280, Tempo, 659341
1, 133320, Tempo, 662983
1, 133340, Tempo, 666667
1, 133380, Tempo, 670391
1, 133400, Tempo, 674157
1, 133440, Tempo, 677966
1, 133480, Tempo, 681818
1, 133500, Tempo, 685714
1, 133540, Tempo, 689655
1, 133580, Tempo, 693642
1, 133600, Tempo, 697674
1, 133640, Tempo, 701754
1, 133660, Tempo, 705882
1, 133720, Tempo, 670391
1, 134040, Tempo, 615385
1, 134260, Tempo, 618557
1, 134480, Tempo, 621762
1, 134700, Tempo, 625000
1, 134920, Tempo, 628272
1, 135140, Tempo, 631579
1, 135832, Tempo, 705882
1, 135840, Tempo, 662983
1, 136080, Tempo, 631579
1, 138720, Tempo, 666667
1, 138960, Tempo, 631579
1, 139440, Tempo, 670391
1, 139672, Tempo, 666667
1, 139680, Tempo, 631579
1, 140160, Tempo, 666667
1, 140400, Tempo, 631579
1, 143980, Tempo, 631579
1, 144000, Tempo, 628272
1, 144060, Tempo, 631579
1, 144100, Tempo, 634921
1, 144140, Tempo, 638298
1, 144180, Tempo, 641711
1, 144220, Tempo, 645161
1, 144260, Tempo, 648649
1, 144300, Tempo, 652174
1, 144340, Tempo, 655738
1, 144380, Tempo, 659341
1, 144420, Tempo, 662983
1, 144460, Tempo, 666667
1, 144500, Tempo, 670391
1, 144540, Tempo, 674157
1, 144580, Tempo, 677966
1, 144620, Tempo, 681818
1, 144660, Tempo, 685714
1, 144700, Tempo, 659341
1, 144712, Tempo, 689655
1, 144720, Tempo, 631579
1, 145920, Tempo, 701754
1, 146160, Tempo, 631579
1, 149000, Tempo, 645161
1, 149040, Tempo, 641711
1, 153112, Tempo, 714286
1, 153120, Tempo, 689655
1, 153352, Tempo, 670391
1, 153360, Tempo, 638298
1, 155272, Tempo, 705882
1, 155280, Tempo, 677966
1, 155520, Tempo, 634921
1, 156220, Tempo, 631579
1, 156240, Tempo, 628272
1, 156280, Tempo, 631579
1, 156320, Tempo, 634921
1, 156360, Tempo, 638298
1, 156380, Tempo, 641711
1, 156420, Tempo, 645161
1, 156460, Tempo, 648649
1, 156480, Tempo, 652174
1, 156520, Tempo, 655738
1, 156560, Tempo, 659341
1, 156580, Tempo, 662983
1, 156620, Tempo, 666667
1, 156660, Tempo, 670391
1, 156680, Tempo, 674157
1, 156720, Tempo, 677966
1, 156760, Tempo, 681818
1, 156780, Tempo, 685714
1, 156820, Tempo, 689655
1, 156860, Tempo, 693642
1, 156880, Tempo, 697674
1, 156920, Tempo, 701754
1, 156960, Tempo, 705882
1, 156980, Tempo, 710059
1, 157020, Tempo, 714286
1, 157060, Tempo, 718563
1, 157080, Tempo, 722892
1, 157120, Tempo, 727273
1, 157160, Tempo, 731707
1, 157180, Tempo, 736196
1, 157220, Tempo, 740741
1, 157260, Tempo, 745342
1, 157280, Tempo, 750000
1, 157320, Tempo, 754717
1, 157360, Tempo, 759494
1, 157380, Tempo, 764331
1, 157420, Tempo, 769231
1, 157460, Tempo, 774194
1, 157480, Tempo, 779221
1, 157520, Tempo, 784314
1, 157560, Tempo, 789474
1, 157580, Tempo, 794702
1, 157620, Tempo, 800000
1, 157660, Tempo, 805369
1, 157680, Tempo, 810811
1, 157700, Tempo, 816327
1, 157720, Tempo, 827586
1, 157740, Tempo, 839161
1, 157760, Tempo, 851064
1, 157780, Tempo, 863309
1, 157800, Tempo, 869565
1, 157820, Tempo, 882353
1, 157840, Tempo, 895522
1, 157860, Tempo, 909091
1, 157880, Tempo, 923077
1, 157900, Tempo, 930233
1, 157920, Tempo, 944882
1, 157940, Tempo, 960000
1, 157960, Tempo, 975610
1, 157980, Tempo, 991736
1, 158000, Tempo, 1000000
1, 158020, Tempo, 1016949
1, 158040, Tempo, 1034483
1, 158060, Tempo, 1052632
1, 158080, Tempo, 1071429
1, 158100, Tempo, 1081081
1, 158120, Tempo, 1100917
1, 158140, Tempo, 1121495
1, 158160, Tempo, 1142857
1, 158180, Tempo, 1165049
1, 158200, Tempo, 1176471
1, 158220, Tempo, 1200000
1, 158240, Tempo, 1224490
1, 158260, Tempo, 1250000
1, 158280, Tempo, 1276596
1, 158300, Tempo, 1290323
1, 158320, Tempo, 1318681
1, 158340, Tempo, 1348315
1, 158360, Tempo, 1379310
1, 158380, Tempo, 1411765
1, 158400, Tempo, 1445783
1, 158640, Tempo, 2000000
1, 159120, Tempo, 923077
1, 159160, Tempo, 835073
1, 159600, Tempo, 977836
1, 159832, Tempo, 835073
1, 159840, Key_signature, -4, "major"
1, 159840, Tempo, 835073
1, 161272, Tempo, 835073
1, 161280, Tempo, 841633
1, 161320, Tempo, 848057
1, 161340, Tempo, 854823
1, 161360, Tempo, 861698
1, 161400, Tempo, 868432
1, 161420, Tempo, 875401
1, 161440, Tempo, 882483
1, 161480, Tempo, 889944
1, 161500, Tempo, 897129
1, 161520, Tempo, 904704
1, 161540, Tempo, 912270
1, 161580, Tempo, 919963
1, 161600, Tempo, 927931
1, 161620, Tempo, 935745
1, 161660, Tempo, 944138
1, 161680, Tempo, 952381
1, 161700, Tempo, 960769
1, 161720, Tempo, 969462
1, 161760, Tempo, 1206515
1, 161992, Tempo, 960769
1, 162000, Tempo, 835073
1, 164640, Tempo, 1024240
1, 164888, Tempo, 835073
1, 166208, Tempo, 1075076
1, 166320, Tempo, 835073
1, 168960, Tempo, 1096491
1, 169192, Tempo, 835073
1, 170528, Tempo, 1096491
1, 170640, Tempo, 888889
1, 171120, Tempo, 833333
1, 172080, Tempo, 904704
1, 173520, Tempo, 835073
1, 174240, Tempo, 828729
1, 174352, Tempo, 835073
1, 174464, Tempo, 841633
1, 174568, Tempo, 848057
1, 174680, Tempo, 854823
1, 174792, Tempo, 861698
1, 174896, Tempo, 868432
1, 174960, Tempo, 868432
1, 175008, Tempo, 875401
1, 175120, Tempo, 882483
1, 175224, Tempo, 889944
1, 175336, Tempo, 897129
1, 175440, Tempo, 1085776
1, 175688, Tempo, 835073
1, 176280, Tempo, 1085776
1, 176392, Tempo, 835073
1, 176992, Tempo, 1206515
1, 177120, Tempo, 835073
1, 177720, Tempo, 904704
1, 177840, Tempo, 835073
1, 178440, Tempo, 897129
1, 178560, Tempo, 835073
1, 179032, Tempo, 904704
1, 179280, Tempo, 835073
1, 179880, Tempo, 912270
1, 180000, Tempo, 835073
1, 180600, Tempo, 897129
1, 180728, Tempo, 835073
1, 181192, Tempo, 904704
1, 181432, Tempo, 835073
1, 182040, Tempo, 969462
1, 182160, Tempo, 835073
1, 182760, Tempo, 897129
1, 182880, Tempo, 835073
1, 183040, Tempo, 841633
1, 183200, Tempo, 848057
1, 183352, Tempo, 854823
1, 183512, Tempo, 861698
1, 183672, Tempo, 868432
1, 183824, Tempo, 875401
1, 183984, Tempo, 882483
1, 184144, Tempo, 889944
1, 184296, Tempo, 897129
1, 184320, Tempo, 835073
1, 185632, Tempo, 1075076
1, 185752, Tempo, 835073
1, 186360, Tempo, 912270
1, 186480, Tempo, 835073
1, 187072, Tempo, 904704
1, 187192, Tempo, 835073
1, 187680, Tempo, 912270
1, 187912, Tempo, 841633
1, 187920, Tempo, 835073
1, 188500, Tempo, 977836
1, 188640, Tempo, 835073
1, 189240, Tempo, 897129
1, 189360, Tempo, 835073
1, 189840, Tempo, 897129
1, 190080, Tempo, 835073
1, 190680, Tempo, 977836
1, 190800, Tempo, 835073
1, 191400, Tempo, 897129
1, 191520, Tempo, 833333
1, 191620, Tempo, 839161
1, 191700, Tempo, 845070
1, 191800, Tempo, 851064
1, 191880, Tempo, 857143
1, 191960, Tempo, 863309
1, 192060, Tempo, 869565
1, 192140, Tempo, 875912
1, 192220, Tempo, 882353
1, 192320, Tempo, 888889
1, 192400, Tempo, 895522
1, 192500, Tempo, 902256
1, 192580, Tempo, 909091
1, 192660, Tempo, 916031
1, 192760, Tempo, 923077
1, 192840, Tempo, 930233
1, 192920, Tempo, 937500
1, 192936, Tempo, 897129
1, 192960, Tempo, 857143
1, 193680, Tempo, 952381
1, 194280, Tempo, 1096491
1, 196584, Tempo, 1212121
1, 196584, End_track
2, 0, Start_track
2, 0, Title_t, "Piano right"
2, 0, Program_c, 0, 0
2, 0, Control_c, 0, 7, 100
2, 0, Control_c, 0, 10, 64
2, 0, Control_c, 0, 91, 127
2, 0, Text_t, "bdca426d104a26ac9dcb070447587523"
2, 1440, Note_on_c, 0, 68, 42
2, 1440, Note_on_c, 0, 72, 46
2, 1440, Control_c, 0, 91, 127
2, 1440, Note_on_c, 0, 60, 42
2, 1800, Note_on_c, 0, 67, 42
2, 1800, Note_on_c, 0, 61, 42
2, 1800, Note_on_c, 0, 73, 46
2, 1810, Note_on_c, 0, 60, 0
2, 1810, Note_on_c, 0, 68, 0
2, 1810, Note_on_c, 0, 72, 0
2, 1920, Note_on_c, 0, 68, 42
2, 1920, Note_on_c, 0, 72, 46
2, 1920, Note_on_c, 0, 60, 42
2, 1930, Note_on_c, 0, 67, 0
2, 1930, Note_on_c, 0, 73, 0
2, 1930, Note_on_c, 0, 61, 0
2, 2160, Note_on_c, 0, 68, 0
2, 2160, Note_on_c, 0, 72, 0
2, 2160, Note_on_c, 0, 60, 0
2, 2160, Note_on_c, 0, 73, 37
2, 2160, Note_on_c, 0, 61, 34
2, 2160, Note_on_c, 0, 67, 34
2, 3600, Note_on_c, 0, 67, 0
2, 3600, Note_on_c, 0, 61, 0
2, 3600, Note_on_c, 0, 73, 0
2, 3600, Note_on_c, 0, 72, 46
2, 3600, Note_on_c, 0, 60, 42
2, 3600, Note_on_c, 0, 68, 42
2, 3960, Note_on_c, 0, 61, 42
2, 3960, Note_on_c, 0, 67, 42
2, 3960, Note_on_c, 0, 73, 46
2, 3970, Note_on_c, 0, 68, 0
2, 3970, Note_on_c, 0, 72, 0
2, 3970, Note_on_c, 0, 60, 0
2, 4080, Note_on_c, 0, 60, 42
2, 4080, Note_on_c, 0, 72, 46
2, 4080, Note_on_c, 0, 68, 42
2, 4090, Note_on_c, 0, 61, 0
2, 4090, Note_on_c, 0, 73, 0
2, 4090, Note_on_c, 0, 67, 0
2, 4320, Note_on_c, 0, 60, 0
2, 4320, Note_on_c, 0, 72, 0
2, 4320, Note_on_c, 0, 68, 0
2, 4320, Note_on_c, 0, 67, 35
2, 4320, Note_on_c, 0, 58, 35
2, 4320, Note_on_c, 0, 70, 40
2, 5760, Note_on_c, 0, 70, 0
2, 5760, Note_on_c, 0, 58, 0
2, 5760, Note_on_c, 0, 67, 0
2, 5760, Note_on_c, 0, 68, 42
2, 5760, Note_on_c, 0, 60, 42
2, 5760, Note_on_c, 0, 72, 46
2, 6120, Note_on_c, 0, 67, 42
2, 6120, Note_on_c, 0, 73, 46
2, 6120, Note_on_c, 0, 61, 42
2, 6130, Note_on_c, 0, 72, 0
2, 6130, Note_on_c, 0, 68, 0
2, 6130, Note_on_c, 0, 60, 0
2, 6240, Note_on_c, 0, 72, 46
2, 6240, Note_on_c, 0, 60, 42
2, 6240, Note_on_c, 0, 68, 42
2, 6250, Note_on_c, 0, 67, 0
2, 6250, Note_on_c, 0, 61, 0
2, 6250, Note_on_c, 0, 73, 0
2, 6480, Note_on_c, 0, 72, 0
2, 6480, Note_on_c, 0, 60, 0
2, 6480, Note_on_c, 0, 68, 0
2, 6480, Note_on_c, 0, 72, 42
2, 6480, Note_on_c, 0, 60, 36
2, 6480, Note_on_c, 0, 68, 36
2, 6840, Note_on_c, 0, 61, 45
2, 6840, Note_on_c, 0, 67, 45
2, 6840, Note_on_c, 0, 73, 51
2, 6850, Note_on_c, 0, 68, 0
2, 6850, Note_on_c, 0, 72, 0
2, 6850, Note_on_c, 0, 60, 0
2, 6960, Note_on_c, 0, 60, 47
2, 6960, Note_on_c, 0, 72, 54
2, 6960, Note_on_c, 0, 68, 47
2, 6970, Note_on_c, 0, 61, 0
2, 6970, Note_on_c, 0, 73, 0
2, 6970, Note_on_c, 0, 67, 0
2, 7200, Note_on_c, 0, 60, 0
2, 7200, Note_on_c, 0, 72, 0
2, 7200, Note_on_c, 0, 68, 0
2, 7200, Note_on_c, 0, 68, 58
2, 7200, Note_on_c, 0, 63, 58
2, 7200, Note_on_c, 0, 75, 64
2, 7800, Note_on_c, 0, 75, 0
2, 7800, Note_on_c, 0, 63, 0
2, 7800, Note_on_c, 0, 68, 0
2, 7800, Note_on_c, 0, 75, 43
2, 7800, Note_on_c, 0, 63, 37
2, 7920, Note_on_c, 0, 63, 0
2, 7920, Note_on_c, 0, 75, 0
2, 7920, Note_on_c, 0, 73, 43
2, 7920, Note_on_c, 0, 67, 37
2, 7920, Note_on_c, 0, 61, 37
2, 8520, Note_on_c, 0, 61, 0
2, 8520, Note_on_c, 0, 67, 0
2, 8520, Note_on_c, 0, 73, 0
2, 8520, Note_on_c, 0, 60, 35
2, 8520, Note_on_c, 0, 68, 35
2, 8520, Note_on_c, 0, 72, 39
2, 8640, Note_on_c, 0, 72, 0
2, 8640, Note_on_c, 0, 68, 0
2, 8640, Note_on_c, 0, 60, 0
2, 8640, Note_on_c, 0, 60, 32
2, 8640, Note_on_c, 0, 72, 36
2, 8640, Note_on_c, 0, 68, 32
2, 10080, Note_on_c, 0, 68, 0
2, 10080, Note_on_c, 0, 72, 0
2, 10080, Note_on_c, 0, 60, 0
2, 10080, Note_on_c, 0, 67, 35
2, 10080, Note_on_c, 0, 58, 35
2, 10080, Note_on_c, 0, 70, 39
2, 10440, Note_on_c, 0, 71, 39
2, 10440, Note_on_c, 0, 59, 35
2, 10440, Note_on_c, 0, 68, 35
2, 10450, Note_on_c, 0, 70, 0
2, 10450, Note_on_c, 0, 67, 0
2, 10450, Note_on_c, 0, 58, 0
2, 10560, Note_on_c, 0, 67, 35
2, 10560, Note_on_c, 0, 70, 39
2, 10560, Note_on_c, 0, 58, 35
2, 10570, Note_on_c, 0, 71, 0
2, 10570, Note_on_c, 0, 68, 0
2, 10570, Note_on_c, 0, 59, 0
2, 10800, Note_on_c, 0, 67, 0
2, 10800, Note_on_c, 0, 70, 0
2, 10800, Note_on_c, 0, 58, 0
2, 10800, Note_on_c, 0, 70, 39
2, 10800, Note_on_c, 0, 58, 35
2, 10800, Note_on_c, 0, 67, 35
2, 11160, Note_on_c, 0, 68, 35
2, 11160, Note_on_c, 0, 59, 35
2, 11160, Note_on_c, 0, 71, 39
2, 11170, Note_on_c, 0, 67, 0
2, 11170, Note_on_c, 0, 70, 0
2, 11170, Note_on_c, 0, 58, 0
2, 11280, Note_on_c, 0, 58, 35
2, 11280, Note_on_c, 0, 67, 35
2, 11280, Note_on_c, 0, 70, 39
2, 11290, Note_on_c, 0, 68, 0
2, 11290, Note_on_c, 0, 71, 0
2, 11290, Note_on_c, 0, 59, 0
2, 11520, Note_on_c, 0, 58, 0
2, 11520, Note_on_c, 0, 67, 0
2, 11520, Note_on_c, 0, 70, 0
2, 11520, Note_on_c, 0, 71, 61
2, 11520, Note_on_c, 0, 65, 56
2, 11520, Note_on_c, 0, 68, 56
2, 12960, Note_on_c, 0, 65, 0
2, 12960, Note_on_c, 0, 63, 27
2, 13680, Note_on_c, 0, 68, 0
2, 13680, Note_on_c, 0, 71, 0
2, 13680, Note_on_c, 0, 67, 24
2, 13680, Note_on_c, 0, 70, 27
2, 13920, Note_on_c, 0, 70, 0
2, 13920, Note_on_c, 0, 67, 0
2, 13920, Note_on_c, 0, 63, 0
2, 14400, Note_on_c, 0, 58, 41
2, 14400, Note_on_c, 0, 66, 41
2, 14400, Note_on_c, 0, 70, 45
2, 14760, Note_on_c, 0, 71, 45
2, 14760, Note_on_c, 0, 68, 41
2, 14760, Note_on_c, 0, 59, 41
2, 14770, Note_on_c, 0, 70, 0
2, 14770, Note_on_c, 0, 58, 0
2, 14770, Note_on_c, 0, 66, 0
2, 14880, Note_on_c, 0, 70, 45
2, 14880, Note_on_c, 0, 66, 41
2, 14880, Note_on_c, 0, 58, 41
2, 14890, Note_on_c, 0, 71, 0
2, 14890, Note_on_c, 0, 59, 0
2, 14890, Note_on_c, 0, 68, 0
2, 15120, Note_on_c, 0, 70, 0
2, 15120, Note_on_c, 0, 66, 0
2, 15120, Note_on_c, 0, 58, 0
2, 15120, Note_on_c, 0, 70, 45
2, 15120, Note_on_c, 0, 58, 40
2, 15120, Note_on_c, 0, 66, 40
2, 15360, Note_on_c, 0, 66, 0
2, 15360, Note_on_c, 0, 58, 0
2, 15360, Note_on_c, 0, 70, 0
2, 15360, Note_on_c, 0, 63, 48
2, 15360, Note_on_c, 0, 70, 48
2, 15360, Note_on_c, 0, 75, 53
2, 15600, Note_on_c, 0, 75, 0
2, 15600, Note_on_c, 0, 70, 0
2, 15600, Note_on_c, 0, 63, 0
2, 15600, Note_on_c, 0, 65, 60
2, 15600, Note_on_c, 0, 77, 67
2, 15600, Note_on_c, 0, 75, 60
2, 15840, Note_on_c, 0, 75, 0
2, 15840, Note_on_c, 0, 77, 0
2, 15840, Note_on_c, 0, 65, 0
2, 15840, Note_on_c, 0, 75, 64
2, 15840, Note_on_c, 0, 66, 64
2, 15840, Note_on_c, 0, 78, 73
2, 16440, Note_on_c, 0, 78, 0
2, 16440, Note_on_c, 0, 66, 0
2, 16440, Note_on_c, 0, 75, 0
2, 16440, Note_on_c, 0, 78, 54
2, 16440, Note_on_c, 0, 66, 49
2, 16560, Note_on_c, 0, 66, 0
2, 16560, Note_on_c, 0, 78, 0
2, 16560, Note_on_c, 0, 77, 45
2, 16560, Note_on_c, 0, 65, 41
2, 16560, Note_on_c, 0, 74, 41
2, 17160, Note_on_c, 0, 74, 0
2, 17160, Note_on_c, 0, 65, 0
2, 17160, Note_on_c, 0, 77, 0
2, 17160, Note_on_c, 0, 63, 27
2, 17160, Note_on_c, 0, 75, 31
2, 17280, Note_on_c, 0, 75, 0
2, 17280, Note_on_c, 0, 63, 0
2, 17280, Note_on_c, 0, 75, 31
2, 17280, Note_on_c, 0, 63, 27
2, 18720, Note_on_c, 0, 63, 0
2, 18720, Note_on_c, 0, 75, 0
2, 18720, Note_on_c, 0, 72, 35
2, 18720, Note_on_c, 0, 60, 30
2, 18720, Note_on_c, 0, 68, 30
2, 19080, Note_on_c, 0, 61, 30
2, 19080, Note_on_c, 0, 67, 30
2, 19080, Note_on_c, 0, 73, 35
2, 19090, Note_on_c, 0, 68, 0
2, 19090, Note_on_c, 0, 72, 0
2, 19090, Note_on_c, 0, 60, 0
2, 19200, Note_on_c, 0, 60, 30
2, 19200, Note_on_c, 0, 72, 35
2, 19200, Note_on_c, 0, 68, 30
2, 19210, Note_on_c, 0, 61, 0
2, 19210, Note_on_c, 0, 73, 0
2, 19210, Note_on_c, 0, 67, 0
2, 19440, Note_on_c, 0, 60, 0
2, 19440, Note_on_c, 0, 72, 0
2, 19440, Note_on_c, 0, 68, 0
2, 19440, Note_on_c, 0, 67, 25
2, 19440, Note_on_c, 0, 61, 25
2, 19440, Note_on_c, 0, 73, 28
2, 20880, Note_on_c, 0, 73, 0
2, 20880, Note_on_c, 0, 61, 0
2, 20880, Note_on_c, 0, 67, 0
2, 20880, Note_on_c, 0, 68, 30
2, 20880, Note_on_c, 0, 60, 30
2, 20880, Note_on_c, 0, 72, 35
2, 21240, Note_on_c, 0, 75, 36
2, 21240, Note_on_c, 0, 63, 31
2, 21250, Note_on_c, 0, 72, 0
2, 21250, Note_on_c, 0, 68, 0
2, 21250, Note_on_c, 0, 60, 0
2, 21360, Note_on_c, 0, 60, 30
2, 21360, Note_on_c, 0, 68, 30
2, 21360, Note_on_c, 0, 72, 35
2, 21370, Note_on_c, 0, 75, 0
2, 21370, Note_on_c, 0, 63, 0
2, 21600, Note_on_c, 0, 68, 0
2, 21600, Note_on_c, 0, 60, 0
2, 21600, Note_on_c, 0, 72, 0
2, 21600, Note_on_c, 0, 58, 25
2, 21600, Note_on_c, 0, 70, 28
2, 21600, Note_on_c, 0, 67, 25
2, 23040, Note_on_c, 0, 67, 0
2, 23040, Note_on_c, 0, 70, 0
2, 23040, Note_on_c, 0, 58, 0
2, 23040, Note_on_c, 0, 68, 29
2, 23040, Note_on_c, 0, 60, 29
2, 23040, Note_on_c, 0, 72, 34
2, 23400, Note_on_c, 0, 67, 29
2, 23400, Note_on_c, 0, 61, 29
2, 23400, Note_on_c, 0, 73, 34
2, 23410, Note_on_c, 0, 72, 0
2, 23410, Note_on_c, 0, 68, 0
2, 23410, Note_on_c, 0, 60, 0
2, 23520, Note_on_c, 0, 68, 29
2, 23520, Note_on_c, 0, 72, 34
2, 23520, Note_on_c, 0, 60, 29
2, 23530, Note_on_c, 0, 67, 0
2, 23530, Note_on_c, 0, 73, 0
2, 23530, Note_on_c, 0, 61, 0
2, 23760, Note_on_c, 0, 68, 0
2, 23760, Note_on_c, 0, 72, 0
2, 23760, Note_on_c, 0, 60, 0
2, 23760, Note_on_c, 0, 72, 30
2, 23760, Note_on_c, 0, 60, 27
2, 23760, Note_on_c, 0, 68, 27
2, 24120, Note_on_c, 0, 77, 44
2, 24120, Note_on_c, 0, 65, 39
2, 24120, Note_on_c, 0, 68, 39
2, 24130, Note_on_c, 0, 68, 0
2, 24130, Note_on_c, 0, 72, 0
2, 24130, Note_on_c, 0, 60, 0
2, 24240, Note_on_c, 0, 68, 0
2, 24240, Note_on_c, 0, 63, 41
2, 24240, Note_on_c, 0, 75, 47
2, 24240, Note_on_c, 0, 68, 41
2, 24250, Note_on_c, 0, 65, 0
2, 24250, Note_on_c, 0, 77, 0
2, 24480, Note_on_c, 0, 75, 0
2, 24480, Note_on_c, 0, 63, 0
2, 24480, Note_on_c, 0, 68, 0
2, 24480, Note_on_c, 0, 63, 46
2, 24480, Note_on_c, 0, 75, 51
2, 24480, Note_on_c, 0, 68, 46
2, 25080, Note_on_c, 0, 68, 0
2, 25080, Note_on_c, 0, 75, 0
2, 25080, Note_on_c, 0, 63, 0
2, 25080, Note_on_c, 0, 75, 52
2, 25080, Note_on_c, 0, 63, 47
2, 25200, Note_on_c, 0, 63, 0
2, 25200, Note_on_c, 0, 75, 0
2, 25200, Note_on_c, 0, 73, 52
2, 25200, Note_on_c, 0, 61, 47
2, 25200, Note_on_c, 0, 67, 47
2, 25800, Note_on_c, 0, 67, 0
2, 25800, Note_on_c, 0, 61, 0
2, 25800, Note_on_c, 0, 73, 0
2, 25800, Note_on_c, 0, 72, 27
2, 25800, Note_on_c, 0, 60, 24
2, 25800, Note_on_c, 0, 68, 24
2, 25920, Note_on_c, 0, 68, 0
2, 25920, Note_on_c, 0, 60, 0
2, 25920, Note_on_c, 0, 72, 0
2, 25920, Note_on_c, 0, 60, 24
2, 25920, Note_on_c, 0, 68, 24
2, 25920, Note_on_c, 0, 72, 27
2, 27360, Note_on_c, 0, 72, 0
2, 27360, Note_on_c, 0, 68, 0
2, 27360, Note_on_c, 0, 60, 0
2, 27360, Note_on_c, 0, 58, 39
2, 27360, Note_on_c, 0, 70, 44
2, 27360, Note_on_c, 0, 67, 39
2, 27720, Note_on_c, 0, 71, 44
2, 27720, Note_on_c, 0, 59, 39
2, 27720, Note_on_c, 0, 68, 39
2, 27730, Note_on_c, 0, 67, 0
2, 27730, Note_on_c, 0, 58, 0
2, 27730, Note_on_c, 0, 70, 0
2, 27840, Note_on_c, 0, 67, 39
2, 27840, Note_on_c, 0, 58, 39
2, 27840, Note_on_c, 0, 70, 44
2, 27850, Note_on_c, 0, 71, 0
2, 27850, Note_on_c, 0, 68, 0
2, 27850, Note_on_c, 0, 59, 0
2, 28080, Note_on_c, 0, 67, 0
2, 28080, Note_on_c, 0, 58, 0
2, 28080, Note_on_c, 0, 70, 0
2, 28080, Note_on_c, 0, 67, 39
2, 28080, Note_on_c, 0, 70, 44
2, 28080, Note_on_c, 0, 58, 39
2, 28440, Note_on_c, 0, 68, 39
2, 28440, Note_on_c, 0, 59, 39
2, 28440, Note_on_c, 0, 71, 44
2, 28450, Note_on_c, 0, 58, 0
2, 28450, Note_on_c, 0, 67, 0
2, 28450, Note_on_c, 0, 70, 0
2, 28560, Note_on_c, 0, 70, 44
2, 28560, Note_on_c, 0, 58, 39
2, 28560, Note_on_c, 0, 67, 39
2, 28570, Note_on_c, 0, 68, 0
2, 28570, Note_on_c, 0, 71, 0
2, 28570, Note_on_c, 0, 59, 0
2, 28800, Note_on_c, 0, 70, 0
2, 28800, Note_on_c, 0, 58, 0
2, 28800, Note_on_c, 0, 67, 0
2, 28800, Note_on_c, 0, 65, 61
2, 28800, Note_on_c, 0, 68, 61
2, 28800, Note_on_c, 0, 71, 68
2, 29520, Note_on_c, 0, 71, 0
2, 29520, Note_on_c, 0, 68, 0
2, 29520, Note_on_c, 0, 65, 0
2, 29520, Note_on_c, 0, 77, 67
2, 29520, Note_on_c, 0, 68, 60
2, 29520, Note_on_c, 0, 71, 60
2, 30000, Note_on_c, 0, 71, 0
2, 30000, Note_on_c, 0, 68, 0
2, 30120, Note_on_c, 0, 77, 0
2, 30120, Note_on_c, 0, 75, 42
2, 30240, Note_on_c, 0, 75, 0
2, 30240, Note_on_c, 0, 75, 42
2, 30240, Note_on_c, 0, 68, 38
2, 30240, Note_on_c, 0, 71, 38
2, 30960, Note_on_c, 0, 71, 0
2, 30960, Note_on_c, 0, 68, 0
2, 30960, Note_on_c, 0, 67, 25
2, 30960, Note_on_c, 0, 70, 28
2, 31200, Note_on_c, 0, 70, 0
2, 31200, Note_on_c, 0, 67, 0
2, 31200, Note_on_c, 0, 75, 0
2, 31680, Note_on_c, 0, 60, 30
2, 31680, Note_on_c, 0, 66, 30
2, 31680, Note_on_c, 0, 75, 35
2, 31680, Note_on_c, 0, 69, 30
2, 32040, Note_on_c, 0, 77, 35
2, 32050, Note_on_c, 0, 75, 0
2, 32160, Note_on_c, 0, 69, 0
2, 32160, Note_on_c, 0, 60, 0
2, 32160, Note_on_c, 0, 66, 0
2, 32160, Note_on_c, 0, 75, 35
2, 32160, Note_on_c, 0, 69, 30
2, 32160, Note_on_c, 0, 60, 30
2, 32160, Note_on_c, 0, 66, 30
2, 32170, Note_on_c, 0, 77, 0
2, 32400, Note_on_c, 0, 60, 0
2, 32400, Note_on_c, 0, 75, 0
2, 32400, Note_on_c, 0, 69, 0
2, 32400, Note_on_c, 0, 66, 0
2, 32400, Note_on_c, 0, 68, 30
2, 32400, Note_on_c, 0, 66, 30
2, 32400, Note_on_c, 0, 75, 35
2, 32400, Note_on_c, 0, 61, 30
2, 32880, Note_on_c, 0, 75, 0
2, 32880, Note_on_c, 0, 68, 0
2, 32880, Note_on_c, 0, 72, 35
2, 33120, Note_on_c, 0, 72, 0
2, 33120, Note_on_c, 0, 66, 0
2, 33120, Note_on_c, 0, 73, 35
2, 33120, Note_on_c, 0, 65, 30
2, 33120, Note_on_c, 0, 68, 30
2, 33360, Note_on_c, 0, 68, 0
2, 33360, Note_on_c, 0, 61, 0
2, 33360, Note_on_c, 0, 73, 0
2, 33360, Note_on_c, 0, 65, 0
2, 33840, Note_on_c, 0, 68, 56
2, 33840, Note_on_c, 0, 73, 62
2, 33840, Note_on_c, 0, 65, 56
2, 34200, Note_on_c, 0, 75, 62
2, 34210, Note_on_c, 0, 73, 0
2, 34320, Note_on_c, 0, 68, 0
2, 34320, Note_on_c, 0, 65, 0
2, 34320, Note_on_c, 0, 65, 56
2, 34320, Note_on_c, 0, 68, 56
2, 34320, Note_on_c, 0, 73, 62
2, 34330, Note_on_c, 0, 75, 0
2, 34560, Note_on_c, 0, 65, 0
2, 34560, Note_on_c, 0, 68, 0
2, 34560, Note_on_c, 0, 73, 0
2, 34560, Note_on_c, 0, 75, 62
2, 34560, Note_on_c, 0, 66, 56
2, 34920, Note_on_c, 0, 73, 63
2, 34930, Note_on_c, 0, 75, 0
2, 35040, Note_on_c, 0, 73, 0
2, 35040, Note_on_c, 0, 66, 0
2, 35040, Note_on_c, 0, 66, 57
2, 35040, Note_on_c, 0, 73, 63
2, 35100, Note_on_c, 0, 73, 0
2, 35160, Note_on_c, 0, 73, 71
2, 35280, Note_on_c, 0, 73, 0
2, 35280, Note_on_c, 0, 66, 0
2, 35280, Note_on_c, 0, 78, 77
2, 35280, Note_on_c, 0, 66, 67
2, 35280, Note_on_c, 0, 73, 67
2, 35760, Note_on_c, 0, 78, 0
2, 35760, Note_on_c, 0, 77, 62
2, 35880, Note_on_c, 0, 77, 0
2, 35880, Note_on_c, 0, 77, 50
2, 36000, Note_on_c, 0, 77, 0
2, 36000, Note_on_c, 0, 73, 0
2, 36000, Note_on_c, 0, 66, 0
2, 36000, Note_on_c, 0, 72, 45
2, 36000, Note_on_c, 0, 66, 45
2, 36000, Note_on_c, 0, 75, 51
2, 36600, Note_on_c, 0, 75, 0
2, 36600, Note_on_c, 0, 66, 0
2, 36600, Note_on_c, 0, 72, 0
2, 36600, Note_on_c, 0, 65, 39
2, 36600, Note_on_c, 0, 73, 42
2, 36720, Note_on_c, 0, 73, 0
2, 36720, Note_on_c, 0, 65, 0
2, 36720, Note_on_c, 0, 65, 39
2, 36720, Note_on_c, 0, 73, 42
2, 38880, Note_on_c, 0, 73, 0
2, 38880, Note_on_c, 0, 65, 0
2, 38880, Note_on_c, 0, 73, 36
2, 38880, Control_c, 0, 91, 127
2, 39600, Note_on_c, 0, 73, 0
2, 39600, Note_on_c, 0, 73, 35
2, 40320, Note_on_c, 0, 73, 0
2, 40320, Note_on_c, 0, 73, 34
2, 41040, Note_on_c, 0, 73, 0
2, 41040, Note_on_c, 0, 74, 46
2, 43200, Note_on_c, 0, 74, 0
2, 43200, Note_on_c, 0, 76, 41
2, 43680, Note_on_c, 0, 76, 0
2, 43680, Note_on_c, 0, 74, 40
2, 43920, Note_on_c, 0, 74, 0
2, 43920, Note_on_c, 0, 74, 44
2, 44400, Note_on_c, 0, 74, 0
2, 44400, Note_on_c, 0, 73, 39
2, 44640, Note_on_c, 0, 73, 0
2, 44640, Note_on_c, 0, 73, 41
2, 45120, Note_on_c, 0, 73, 0
2, 45120, Note_on_c, 0, 71, 39
2, 45360, Note_on_c, 0, 71, 0
2, 45360, Note_on_c, 0, 73, 42
2, 46800, Note_on_c, 0, 73, 0
2, 46800, Note_on_c, 0, 73, 36
2, 47280, Note_on_c, 0, 73, 0
2, 47280, Note_on_c, 0, 69, 44
2, 47520, Note_on_c, 0, 69, 0
2, 47520, Note_on_c, 0, 68, 52
2, 48960, Note_on_c, 0, 68, 0
2, 48960, Note_on_c, 0, 78, 61
2, 49440, Note_on_c, 0, 78, 0
2, 49440, Note_on_c, 0, 69, 52
2, 49680, Note_on_c, 0, 69, 0
2, 49680, Note_on_c, 0, 68, 42
2, 50640, Note_on_c, 0, 68, 0
2, 50640, Note_on_c, 0, 71, 35
2, 50880, Note_on_c, 0, 71, 0
2, 50880, Note_on_c, 0, 69, 34
2, 51120, Note_on_c, 0, 69, 0
2, 51120, Note_on_c, 0, 68, 28
2, 51360, Note_on_c, 0, 68, 0
2, 51360, Note_on_c, 0, 69, 26
2, 51600, Note_on_c, 0, 69, 0
2, 51600, Note_on_c, 0, 71, 25
2, 51840, Note_on_c, 0, 71, 0
2, 51840, Control_c, 0, 91, 127
2, 51840, Note_on_c, 0, 73, 36
2, 52560, Note_on_c, 0, 73, 0
2, 52560, Note_on_c, 0, 73, 47
2, 53280, Note_on_c, 0, 73, 0
2, 53280, Note_on_c, 0, 73, 57
2, 54000, Note_on_c, 0, 73, 0
2, 54000, Note_on_c, 0, 74, 66
2, 56040, Note_on_c, 0, 74, 53
2, 56160, Note_on_c, 0, 74, 0
2, 56160, Note_on_c, 0, 74, 0
2, 56160, Note_on_c, 0, 78, 50
2, 56640, Note_on_c, 0, 78, 0
2, 56640, Note_on_c, 0, 74, 48
2, 56880, Note_on_c, 0, 74, 0
2, 56880, Note_on_c, 0, 74, 48
2, 57360, Note_on_c, 0, 74, 0
2, 57360, Note_on_c, 0, 73, 44
2, 57600, Note_on_c, 0, 73, 0
2, 57600, Note_on_c, 0, 73, 44
2, 58080, Note_on_c, 0, 73, 0
2, 58080, Note_on_c, 0, 71, 38
2, 58320, Note_on_c, 0, 71, 0
2, 58320, Note_on_c, 0, 73, 44
2, 59760, Note_on_c, 0, 73, 0
2, 59760, Note_on_c, 0, 73, 52
2, 60240, Note_on_c, 0, 73, 0
2, 60240, Note_on_c, 0, 69, 52
2, 60480, Note_on_c, 0, 69, 0
2, 60480, Note_on_c, 0, 68, 52
2, 61920, Note_on_c, 0, 68, 0
2, 61920, Note_on_c, 0, 71, 47
2, 62160, Note_on_c, 0, 71, 0
2, 62160, Note_on_c, 0, 69, 44
2, 62400, Note_on_c, 0, 69, 0
2, 62400, Note_on_c, 0, 68, 36
2, 62640, Note_on_c, 0, 68, 0
2, 62640, Note_on_c, 0, 73, 45
2, 63960, Note_on_c, 0, 73, 0
2, 63960, Note_on_c, 0, 73, 52
2, 64080, Note_on_c, 0, 73, 0
2, 64080, Note_on_c, 0, 78, 70
2, 64560, Note_on_c, 0, 78, 0
2, 64560, Note_on_c, 0, 69, 60
2, 64800, Note_on_c, 0, 69, 0
2, 64800, Note_on_c, 0, 68, 60
2, 65760, Note_on_c, 0, 68, 0
2, 65760, Note_on_c, 0, 69, 52
2, 66000, Note_on_c, 0, 69, 0
2, 66000, Note_on_c, 0, 68, 52
2, 66240, Note_on_c, 0, 68, 0
2, 66240, Note_on_c, 0, 71, 52
2, 66480, Note_on_c, 0, 71, 0
2, 66480, Note_on_c, 0, 69, 49
2, 66720, Note_on_c, 0, 69, 0
2, 66720, Note_on_c, 0, 68, 48
2, 66960, Note_on_c, 0, 68, 0
2, 66960, Note_on_c, 0, 66, 51
2, 68400, Note_on_c, 0, 66, 0
2, 69120, Note_on_c, 0, 73, 52
2, 69840, Note_on_c, 0, 73, 0
2, 69840, Note_on_c, 0, 73, 52
2, 70560, Note_on_c, 0, 73, 0
2, 70560, Note_on_c, 0, 73, 52
2, 71280, Note_on_c, 0, 73, 0
2, 71280, Note_on_c, 0, 73, 46
2, 72000, Note_on_c, 0, 73, 0
2, 72000, Note_on_c, 0, 73, 44
2, 72720, Note_on_c, 0, 73, 0
2, 72720, Note_on_c, 0, 73, 44
2, 73320, Note_on_c, 0, 73, 0
2, 73320, Note_on_c, 0, 73, 35
2, 73440, Note_on_c, 0, 73, 0
2, 73440, Note_on_c, 0, 76, 60
2, 73920, Note_on_c, 0, 76, 0
2, 73920, Note_on_c, 0, 75, 52
2, 74160, Note_on_c, 0, 75, 0
2, 74160, Note_on_c, 0, 75, 51
2, 74400, Note_on_c, 0, 75, 0
2, 74400, Note_on_c, 0, 75, 50
2, 74640, Note_on_c, 0, 75, 0
2, 74640, Note_on_c, 0, 75, 49
2, 74880, Note_on_c, 0, 75, 0
2, 74880, Note_on_c, 0, 75, 48
2, 75120, Note_on_c, 0, 75, 0
2, 75120, Note_on_c, 0, 75, 48
2, 75360, Note_on_c, 0, 75, 0
2, 75360, Note_on_c, 0, 75, 47
2, 75600, Note_on_c, 0, 75, 0
2, 75600, Note_on_c, 0, 75, 46
2, 77040, Note_on_c, 0, 75, 0
2, 77040, Note_on_c, 0, 72, 43
2, 77040, Note_on_c, 0, 60, 37
2, 77040, Control_c, 0, 91, 127
2, 77040, Note_on_c, 0, 68, 37
2, 77400, Note_on_c, 0, 73, 43
2, 77400, Note_on_c, 0, 61, 37
2, 77400, Note_on_c, 0, 67, 37
2, 77410, Note_on_c, 0, 68, 0
2, 77410, Note_on_c, 0, 72, 0
2, 77410, Note_on_c, 0, 60, 0
2, 77520, Note_on_c, 0, 72, 43
2, 77520, Note_on_c, 0, 60, 37
2, 77520, Note_on_c, 0, 68, 37
2, 77530, Note_on_c, 0, 73, 0
2, 77530, Note_on_c, 0, 67, 0
2, 77530, Note_on_c, 0, 61, 0
2, 77760, Note_on_c, 0, 72, 0
2, 77760, Note_on_c, 0, 60, 0
2, 77760, Note_on_c, 0, 68, 0
2, 77760, Note_on_c, 0, 61, 30
2, 77760, Note_on_c, 0, 67, 30
2, 77760, Note_on_c, 0, 73, 34
2, 79200, Note_on_c, 0, 73, 0
2, 79200, Note_on_c, 0, 67, 0
2, 79200, Note_on_c, 0, 61, 0
2, 79200, Note_on_c, 0, 60, 37
2, 79200, Note_on_c, 0, 72, 43
2, 79200, Note_on_c, 0, 68, 37
2, 79560, Note_on_c, 0, 67, 37
2, 79560, Note_on_c, 0, 61, 37
2, 79560, Note_on_c, 0, 73, 43
2, 79570, Note_on_c, 0, 68, 0
2, 79570, Note_on_c, 0, 60, 0
2, 79570, Note_on_c, 0, 72, 0
2, 79680, Note_on_c, 0, 68, 37
2, 79680, Note_on_c, 0, 60, 37
2, 79680, Note_on_c, 0, 72, 43
2, 79690, Note_on_c, 0, 67, 0
2, 79690, Note_on_c, 0, 73, 0
2, 79690, Note_on_c, 0, 61, 0
2, 79920, Note_on_c, 0, 68, 0
2, 79920, Note_on_c, 0, 60, 0
2, 79920, Note_on_c, 0, 72, 0
2, 79920, Note_on_c, 0, 67, 31
2, 79920, Note_on_c, 0, 70, 35
2, 79920, Note_on_c, 0, 58, 31
2, 81360, Note_on_c, 0, 58, 0
2, 81360, Note_on_c, 0, 70, 0
2, 81360, Note_on_c, 0, 67, 0
2, 81360, Note_on_c, 0, 72, 46
2, 81360, Note_on_c, 0, 60, 42
2, 81360, Note_on_c, 0, 68, 42
2, 81720, Note_on_c, 0, 73, 46
2, 81720, Note_on_c, 0, 61, 42
2, 81720, Note_on_c, 0, 67, 42
2, 81730, Note_on_c, 0, 68, 0
2, 81730, Note_on_c, 0, 72, 0
2, 81730, Note_on_c, 0, 60, 0
2, 81840, Note_on_c, 0, 60, 42
2, 81840, Note_on_c, 0, 68, 42
2, 81840, Note_on_c, 0, 72, 46
2, 81850, Note_on_c, 0, 73, 0
2, 81850, Note_on_c, 0, 67, 0
2, 81850, Note_on_c, 0, 61, 0
2, 82080, Note_on_c, 0, 60, 0
2, 82080, Note_on_c, 0, 68, 0
2, 82080, Note_on_c, 0, 72, 0
2, 82080, Note_on_c, 0, 60, 36
2, 82080, Note_on_c, 0, 72, 42
2, 82080, Note_on_c, 0, 68, 36
2, 82440, Note_on_c, 0, 68, 0
2, 82440, Note_on_c, 0, 68, 49
2, 82440, Note_on_c, 0, 65, 49
2, 82440, Note_on_c, 0, 77, 56
2, 82450, Note_on_c, 0, 72, 0
2, 82450, Note_on_c, 0, 60, 0
2, 82560, Note_on_c, 0, 75, 59
2, 82560, Note_on_c, 0, 63, 51
2, 82560, Note_on_c, 0, 68, 51
2, 82570, Note_on_c, 0, 65, 0
2, 82570, Note_on_c, 0, 77, 0
2, 82570, Note_on_c, 0, 68, 0
2, 82800, Note_on_c, 0, 75, 0
2, 82800, Note_on_c, 0, 63, 0
2, 82800, Note_on_c, 0, 68, 0
2, 82800, Note_on_c, 0, 68, 58
2, 82800, Note_on_c, 0, 75, 64
2, 82800, Note_on_c, 0, 63, 58
2, 83400, Note_on_c, 0, 63, 0
2, 83400, Note_on_c, 0, 75, 0
2, 83400, Note_on_c, 0, 68, 0
2, 83400, Note_on_c, 0, 63, 37
2, 83400, Note_on_c, 0, 75, 37
2, 83520, Note_on_c, 0, 75, 0
2, 83520, Note_on_c, 0, 63, 0
2, 83520, Note_on_c, 0, 67, 37
2, 83520, Note_on_c, 0, 73, 43
2, 83520, Note_on_c, 0, 61, 37
2, 84120, Note_on_c, 0, 61, 0
2, 84120, Note_on_c, 0, 73, 0
2, 84120, Note_on_c, 0, 67, 0
2, 84120, Note_on_c, 0, 68, 27
2, 84120, Note_on_c, 0, 60, 27
2, 84120, Note_on_c, 0, 72, 31
2, 84240, Note_on_c, 0, 72, 0
2, 84240, Note_on_c, 0, 60, 0
2, 84240, Note_on_c, 0, 68, 0
2, 84240, Note_on_c, 0, 68, 27
2, 84240, Note_on_c, 0, 60, 27
2, 84240, Note_on_c, 0, 72, 31
2, 85680, Note_on_c, 0, 72, 0
2, 85680, Note_on_c, 0, 60, 0
2, 85680, Note_on_c, 0, 68, 0
2, 85680, Note_on_c, 0, 67, 39
2, 85680, Note_on_c, 0, 70, 44
2, 85680, Note_on_c, 0, 58, 39
2, 86040, Note_on_c, 0, 68, 39
2, 86040, Note_on_c, 0, 59, 39
2, 86040, Note_on_c, 0, 71, 44
2, 86050, Note_on_c, 0, 58, 0
2, 86050, Note_on_c, 0, 67, 0
2, 86050, Note_on_c, 0, 70, 0
2, 86160, Note_on_c, 0, 70, 44
2, 86160, Note_on_c, 0, 58, 39
2, 86160, Note_on_c, 0, 67, 39
2, 86170, Note_on_c, 0, 68, 0
2, 86170, Note_on_c, 0, 71, 0
2, 86170, Note_on_c, 0, 59, 0
2, 86400, Note_on_c, 0, 70, 0
2, 86400, Note_on_c, 0, 58, 0
2, 86400, Note_on_c, 0, 67, 0
2, 86400, Note_on_c, 0, 58, 39
2, 86400, Note_on_c, 0, 67, 39
2, 86400, Note_on_c, 0, 70, 44
2, 86760, Note_on_c, 0, 59, 39
2, 86760, Note_on_c, 0, 68, 39
2, 86760, Note_on_c, 0, 71, 44
2, 86770, Note_on_c, 0, 70, 0
2, 86770, Note_on_c, 0, 58, 0
2, 86770, Note_on_c, 0, 67, 0
2, 86880, Note_on_c, 0, 67, 39
2, 86880, Note_on_c, 0, 58, 39
2, 86880, Note_on_c, 0, 70, 44
2, 86890, Note_on_c, 0, 59, 0
2, 86890, Note_on_c, 0, 71, 0
2, 86890, Note_on_c, 0, 68, 0
2, 87120, Note_on_c, 0, 67, 0
2, 87120, Note_on_c, 0, 58, 0
2, 87120, Note_on_c, 0, 70, 0
2, 87120, Note_on_c, 0, 68, 62
2, 87120, Note_on_c, 0, 71, 69
2, 87120, Note_on_c, 0, 65, 62
2, 88560, Note_on_c, 0, 65, 0
2, 88560, Note_on_c, 0, 63, 30
2, 89280, Note_on_c, 0, 71, 0
2, 89280, Note_on_c, 0, 68, 0
2, 89280, Note_on_c, 0, 70, 24
2, 89280, Note_on_c, 0, 67, 24
2, 89520, Note_on_c, 0, 67, 0
2, 89520, Note_on_c, 0, 70, 0
2, 89520, Note_on_c, 0, 63, 0
2, 90000, Note_on_c, 0, 66, 47
2, 90000, Note_on_c, 0, 71, 52
2, 90000, Note_on_c, 0, 63, 47
2, 90360, Note_on_c, 0, 73, 53
2, 90370, Note_on_c, 0, 71, 0
2, 90480, Note_on_c, 0, 66, 0
2, 90480, Note_on_c, 0, 63, 0
2, 90480, Note_on_c, 0, 73, 0
2, 90480, Note_on_c, 0, 63, 48
2, 90480, Note_on_c, 0, 66, 48
2, 90480, Note_on_c, 0, 71, 53
2, 90720, Note_on_c, 0, 71, 0
2, 90720, Note_on_c, 0, 66, 0
2, 90720, Note_on_c, 0, 63, 0
2, 90720, Note_on_c, 0, 65, 48
2, 90720, Note_on_c, 0, 73, 58
2, 90720, Note_on_c, 0, 71, 48
2, 91200, Note_on_c, 0, 73, 0
2, 91200, Note_on_c, 0, 74, 61
2, 91440, Note_on_c, 0, 74, 0
2, 91440, Note_on_c, 0, 71, 0
2, 91440, Note_on_c, 0, 65, 0
2, 91440, Note_on_c, 0, 71, 49
2, 91440, Note_on_c, 0, 75, 55
2, 91440, Note_on_c, 0, 66, 49
2, 91680, Note_on_c, 0, 66, 0
2, 91680, Note_on_c, 0, 75, 0
2, 91680, Note_on_c, 0, 71, 0
2, 91680, Note_on_c, 0, 76, 66
2, 91680, Note_on_c, 0, 64, 59
2, 91680, Note_on_c, 0, 71, 59
2, 91920, Note_on_c, 0, 71, 0
2, 91920, Note_on_c, 0, 64, 0
2, 91920, Note_on_c, 0, 76, 0
2, 91920, Note_on_c, 0, 78, 70
2, 91920, Note_on_c, 0, 66, 63
2, 91920, Note_on_c, 0, 71, 63
2, 92160, Note_on_c, 0, 71, 0
2, 92160, Note_on_c, 0, 66, 0
2, 92160, Note_on_c, 0, 78, 0
2, 92160, Note_on_c, 0, 80, 77
2, 92160, Note_on_c, 0, 68, 61
2, 92160, Note_on_c, 0, 71, 68
2, 92400, Note_on_c, 0, 80, 0
2, 92400, Note_on_c, 0, 76, 66
2, 92640, Note_on_c, 0, 76, 0
2, 92640, Note_on_c, 0, 71, 0
2, 92640, Note_on_c, 0, 68, 0
2, 92640, Note_on_c, 0, 68, 51
2, 92640, Note_on_c, 0, 75, 59
2, 92640, Note_on_c, 0, 65, 51
2, 92880, Note_on_c, 0, 65, 0
2, 92880, Note_on_c, 0, 75, 0
2, 92880, Note_on_c, 0, 68, 0
2, 92880, Note_on_c, 0, 66, 47
2, 92880, Note_on_c, 0, 71, 47
2, 92880, Note_on_c, 0, 75, 52
2, 93600, Note_on_c, 0, 75, 0
2, 93600, Note_on_c, 0, 71, 0
2, 93600, Note_on_c, 0, 70, 30
2, 93600, Note_on_c, 0, 73, 35
2, 93840, Note_on_c, 0, 73, 0
2, 93840, Note_on_c, 0, 70, 0
2, 93840, Note_on_c, 0, 66, 0
2, 94320, Note_on_c, 0, 71, 29
2, 94320, Note_on_c, 0, 80, 34
2, 94320, Note_on_c, 0, 68, 29
2, 94560, Note_on_c, 0, 80, 0
2, 94560, Note_on_c, 0, 76, 35
2, 94800, Note_on_c, 0, 76, 0
2, 94800, Note_on_c, 0, 68, 0
2, 94800, Note_on_c, 0, 71, 0
2, 94800, Note_on_c, 0, 68, 30
2, 94800, Note_on_c, 0, 65, 30
2, 94800, Note_on_c, 0, 75, 35
2, 95040, Note_on_c, 0, 75, 0
2, 95040, Note_on_c, 0, 65, 0
2, 95040, Note_on_c, 0, 68, 0
2, 95040, Note_on_c, 0, 71, 31
2, 95040, Note_on_c, 0, 75, 36
2, 95040, Note_on_c, 0, 66, 31
2, 95760, Note_on_c, 0, 75, 0
2, 95760, Note_on_c, 0, 71, 0
2, 95760, Note_on_c, 0, 70, 26
2, 95760, Note_on_c, 0, 73, 29
2, 96000, Note_on_c, 0, 73, 0
2, 96000, Note_on_c, 0, 70, 0
2, 96000, Note_on_c, 0, 66, 0
2, 96480, Note_on_c, 0, 73, 53
2, 96480, Note_on_c, 0, 63, 48
2, 96840, Note_on_c, 0, 75, 52
2, 96850, Note_on_c, 0, 73, 0
2, 96960, Note_on_c, 0, 75, 0
2, 96960, Note_on_c, 0, 70, 52
2, 97200, Note_on_c, 0, 70, 0
2, 97200, Note_on_c, 0, 63, 0
2, 97200, Note_on_c, 0, 73, 52
2, 97200, Note_on_c, 0, 63, 47
2, 97920, Note_on_c, 0, 73, 0
2, 97920, Note_on_c, 0, 72, 55
2, 98400, Note_on_c, 0, 72, 0
2, 98400, Note_on_c, 0, 73, 69
2, 98640, Note_on_c, 0, 73, 0
2, 98640, Note_on_c, 0, 63, 0
2, 98640, Note_on_c, 0, 75, 75
2, 98640, Note_on_c, 0, 63, 66
2, 98880, Note_on_c, 0, 63, 0
2, 98880, Note_on_c, 0, 75, 0
2, 98880, Note_on_c, 0, 73, 63
2, 98880, Note_on_c, 0, 67, 57
2, 99120, Note_on_c, 0, 67, 0
2, 99120, Note_on_c, 0, 73, 0
2, 99120, Note_on_c, 0, 68, 50
2, 99120, Note_on_c, 0, 72, 57
2, 99360, Note_on_c, 0, 72, 0
2, 99360, Note_on_c, 0, 68, 0
2, 99360, Note_on_c, 0, 65, 47
2, 99360, Note_on_c, 0, 72, 52
2, 99600, Note_on_c, 0, 72, 0
2, 99600, Note_on_c, 0, 70, 52
2, 99840, Note_on_c, 0, 70, 0
2, 99840, Note_on_c, 0, 65, 0
2, 99840, Note_on_c, 0, 73, 52
2, 99840, Note_on_c, 0, 64, 47
2, 100080, Note_on_c, 0, 64, 0
2, 100080, Note_on_c, 0, 73, 0
2, 100080, Note_on_c, 0, 68, 45
2, 100080, Note_on_c, 0, 63, 39
2, 100680, Note_on_c, 0, 63, 0
2, 100680, Note_on_c, 0, 68, 0
2, 100680, Note_on_c, 0, 61, 35
2, 100680, Note_on_c, 0, 67, 39
2, 100800, Note_on_c, 0, 67, 0
2, 100800, Note_on_c, 0, 61, 0
2, 100800, Note_on_c, 0, 67, 39
2, 100800, Note_on_c, 0, 61, 35
2, 101400, Note_on_c, 0, 61, 0
2, 101400, Note_on_c, 0, 67, 0
2, 101400, Note_on_c, 0, 60, 33
2, 101400, Note_on_c, 0, 68, 37
2, 101520, Note_on_c, 0, 68, 0
2, 101520, Note_on_c, 0, 60, 0
2, 101520, Note_on_c, 0, 68, 37
2, 101520, Note_on_c, 0, 60, 33
2, 102240, Note_on_c, 0, 60, 0
2, 102240, Note_on_c, 0, 68, 0
2, 102840, Note_on_c, 0, 72, 35
2, 102840, Note_on_c, 0, 60, 30
2, 102840, Note_on_c, 0, 68, 30
2, 102960, Note_on_c, 0, 68, 0
2, 102960, Note_on_c, 0, 60, 0
2, 102960, Note_on_c, 0, 72, 0
2, 102960, Note_on_c, 0, 60, 30
2, 102960, Note_on_c, 0, 68, 30
2, 102960, Note_on_c, 0, 72, 35
2, 103320, Note_on_c, 0, 61, 30
2, 103320, Note_on_c, 0, 73, 35
2, 103320, Note_on_c, 0, 67, 30
2, 103330, Note_on_c, 0, 72, 0
2, 103330, Note_on_c, 0, 60, 0
2, 103330, Note_on_c, 0, 68, 0
2, 103440, Note_on_c, 0, 68, 30
2, 103440, Note_on_c, 0, 60, 30
2, 103440, Note_on_c, 0, 72, 35
2, 103450, Note_on_c, 0, 61, 0
2, 103450, Note_on_c, 0, 67, 0
2, 103450, Note_on_c, 0, 73, 0
2, 103680, Note_on_c, 0, 68, 0
2, 103680, Note_on_c, 0, 60, 0
2, 103680, Note_on_c, 0, 72, 0
2, 103680, Note_on_c, 0, 67, 27
2, 103680, Note_on_c, 0, 61, 27
2, 103680, Note_on_c, 0, 73, 30
2, 105000, Note_on_c, 0, 73, 0
2, 105000, Note_on_c, 0, 61, 0
2, 105000, Note_on_c, 0, 67, 0
2, 105000, Note_on_c, 0, 67, 30
2, 105000, Note_on_c, 0, 70, 35
2, 105000, Note_on_c, 0, 58, 30
2, 105120, Note_on_c, 0, 58, 0
2, 105120, Note_on_c, 0, 70, 0
2, 105120, Note_on_c, 0, 67, 0
2, 105120, Note_on_c, 0, 70, 35
2, 105120, Note_on_c, 0, 58, 30
2, 105120, Note_on_c, 0, 67, 30
2, 105480, Note_on_c, 0, 72, 35
2, 105480, Note_on_c, 0, 60, 30
2, 105480, Note_on_c, 0, 68, 30
2, 105490, Note_on_c, 0, 67, 0
2, 105490, Note_on_c, 0, 70, 0
2, 105490, Note_on_c, 0, 58, 0
2, 105600, Note_on_c, 0, 58, 30
2, 105600, Note_on_c, 0, 67, 30
2, 105600, Note_on_c, 0, 70, 35
2, 105610, Note_on_c, 0, 72, 0
2, 105610, Note_on_c, 0, 68, 0
2, 105610, Note_on_c, 0, 60, 0
2, 105840, Note_on_c, 0, 58, 0
2, 105840, Note_on_c, 0, 67, 0
2, 105840, Note_on_c, 0, 70, 0
2, 105840, Note_on_c, 0, 60, 27
2, 105840, Note_on_c, 0, 72, 30
2, 105840, Note_on_c, 0, 68, 27
2, 107160, Note_on_c, 0, 68, 0
2, 107160, Note_on_c, 0, 72, 0
2, 107160, Note_on_c, 0, 60, 0
2, 107160, Note_on_c, 0, 63, 35
2, 107280, Note_on_c, 0, 63, 0
2, 107280, Note_on_c, 0, 63, 35
2, 107640, Note_on_c, 0, 65, 42
2, 107650, Note_on_c, 0, 63, 0
2, 107760, Note_on_c, 0, 63, 44
2, 107770, Note_on_c, 0, 65, 0
2, 108000, Note_on_c, 0, 63, 0
2, 108000, Note_on_c, 0, 65, 45
2, 108360, Note_on_c, 0, 63, 44
2, 108370, Note_on_c, 0, 65, 0
2, 108480, Note_on_c, 0, 63, 0
2, 108480, Note_on_c, 0, 63, 44
2, 108720, Note_on_c, 0, 63, 0
2, 108720, Note_on_c, 0, 68, 44
2, 108720, Note_on_c, 0, 60, 39
2, 109440, Note_on_c, 0, 60, 0
2, 109440, Note_on_c, 0, 68, 0
2, 109440, Note_on_c, 0, 70, 44
2, 109440, Note_on_c, 0, 61, 39
2, 109440, Note_on_c, 0, 67, 39
2, 110040, Note_on_c, 0, 67, 0
2, 110040, Note_on_c, 0, 61, 0
2, 110040, Note_on_c, 0, 70, 0
2, 110040, Note_on_c, 0, 68, 35
2, 110040, Note_on_c, 0, 60, 30
2, 110160, Note_on_c, 0, 60, 0
2, 110160, Note_on_c, 0, 68, 0
2, 110160, Note_on_c, 0, 68, 35
2, 110160, Note_on_c, 0, 60, 30
2, 110760, Note_on_c, 0, 75, 29
2, 110880, Note_on_c, 0, 75, 0
2, 110880, Note_on_c, 0, 60, 0
2, 110880, Note_on_c, 0, 68, 0
2, 110880, Note_on_c, 0, 75, 29
2, 111480, Note_on_c, 0, 63, 30
2, 111480, Note_on_c, 0, 68, 35
2, 111600, Note_on_c, 0, 68, 0
2, 111600, Note_on_c, 0, 63, 0
2, 111600, Note_on_c, 0, 68, 35
2, 111600, Note_on_c, 0, 63, 30
2, 111960, Note_on_c, 0, 65, 30
2, 111960, Note_on_c, 0, 70, 35
2, 111970, Note_on_c, 0, 63, 0
2, 111970, Note_on_c, 0, 68, 0
2, 112080, Note_on_c, 0, 63, 30
2, 112080, Note_on_c, 0, 68, 35
2, 112090, Note_on_c, 0, 70, 0
2, 112090, Note_on_c, 0, 65, 0
2, 112320, Note_on_c, 0, 68, 0
2, 112320, Note_on_c, 0, 63, 0
2, 112320, Note_on_c, 0, 70, 30
2, 112320, Note_on_c, 0, 65, 27
2, 112920, Note_on_c, 0, 75, 0
2, 112920, Note_on_c, 0, 75, 27
2, 113040, Note_on_c, 0, 75, 0
2, 113040, Note_on_c, 0, 75, 27
2, 113640, Note_on_c, 0, 65, 0
2, 113640, Note_on_c, 0, 70, 0
2, 113640, Note_on_c, 0, 67, 35
2, 113640, Note_on_c, 0, 61, 30
2, 113760, Note_on_c, 0, 61, 0
2, 113760, Note_on_c, 0, 67, 0
2, 113760, Note_on_c, 0, 61, 30
2, 113760, Note_on_c, 0, 67, 35
2, 114120, Note_on_c, 0, 68, 35
2, 114120, Note_on_c, 0, 63, 30
2, 114130, Note_on_c, 0, 67, 0
2, 114130, Note_on_c, 0, 61, 0
2, 114240, Note_on_c, 0, 70, 35
2, 114240, Note_on_c, 0, 65, 30
2, 114250, Note_on_c, 0, 63, 0
2, 114250, Note_on_c, 0, 68, 0
2, 114480, Note_on_c, 0, 65, 0
2, 114480, Note_on_c, 0, 70, 0
2, 114480, Note_on_c, 0, 68, 30
2, 114480, Note_on_c, 0, 63, 27
2, 115080, Note_on_c, 0, 75, 0
2, 115080, Note_on_c, 0, 75, 39
2, 115200, Note_on_c, 0, 75, 0
2, 115200, Note_on_c, 0, 75, 39
2, 115800, Note_on_c, 0, 63, 0
2, 115800, Note_on_c, 0, 68, 0
2, 115800, Note_on_c, 0, 63, 35
2, 115920, Note_on_c, 0, 63, 0
2, 115920, Note_on_c, 0, 63, 35
2, 116280, Note_on_c, 0, 65, 42
2, 116290, Note_on_c, 0, 63, 0
2, 116400, Note_on_c, 0, 63, 44
2, 116410, Note_on_c, 0, 65, 0
2, 116640, Note_on_c, 0, 63, 0
2, 116640, Note_on_c, 0, 65, 39
2, 116640, Note_on_c, 0, 68, 45
2, 117000, Note_on_c, 0, 63, 44
2, 117010, Note_on_c, 0, 68, 0
2, 117010, Note_on_c, 0, 65, 0
2, 117120, Note_on_c, 0, 63, 0
2, 117120, Note_on_c, 0, 63, 44
2, 117360, Note_on_c, 0, 63, 0
2, 117360, Note_on_c, 0, 75, 0
2, 117360, Note_on_c, 0, 72, 44
2, 117360, Note_on_c, 0, 75, 51
2, 118080, Note_on_c, 0, 75, 0
2, 118080, Note_on_c, 0, 72, 0
2, 118080, Note_on_c, 0, 70, 45
2, 118080, Note_on_c, 0, 79, 51
2, 118080, Note_on_c, 0, 75, 45
2, 118680, Note_on_c, 0, 75, 0
2, 118680, Note_on_c, 0, 79, 0
2, 118680, Note_on_c, 0, 70, 0
2, 118680, Note_on_c, 0, 80, 49
2, 118680, Note_on_c, 0, 68, 45
2, 118680, Note_on_c, 0, 75, 45
2, 118800, Note_on_c, 0, 75, 0
2, 118800, Note_on_c, 0, 68, 0
2, 118800, Note_on_c, 0, 80, 0
2, 118800, Note_on_c, 0, 75, 45
2, 118800, Note_on_c, 0, 68, 45
2, 118800, Note_on_c, 0, 80, 50
2, 120840, Note_on_c, 0, 80, 0
2, 120840, Note_on_c, 0, 68, 0
2, 120840, Note_on_c, 0, 75, 0
2, 120840, Note_on_c, 0, 78, 70
2, 120840, Note_on_c, 0, 81, 88
2, 120840, Note_on_c, 0, 69, 70
2, 120960, Note_on_c, 0, 69, 0
2, 120960, Note_on_c, 0, 81, 0
2, 120960, Note_on_c, 0, 78, 0
2, 120960, Note_on_c, 0, 81, 97
2, 120960, Note_on_c, 0, 69, 77
2, 120960, Note_on_c, 0, 78, 77
2, 120960, Control_c, 0, 91, 127
2, 121680, Note_on_c, 0, 78, 0
2, 121680, Note_on_c, 0, 69, 0
2, 121680, Note_on_c, 0, 81, 0
2, 121680, Note_on_c, 0, 78, 76
2, 121680, Note_on_c, 0, 81, 96
2, 121680, Note_on_c, 0, 69, 76
2, 122400, Note_on_c, 0, 69, 0
2, 122400, Note_on_c, 0, 81, 0
2, 122400, Note_on_c, 0, 78, 0
2, 122400, Note_on_c, 0, 82, 96
2, 122400, Note_on_c, 0, 70, 76
2, 122400, Note_on_c, 0, 76, 76
2, 123120, Note_on_c, 0, 76, 0
2, 123120, Note_on_c, 0, 70, 0
2, 123120, Note_on_c, 0, 82, 0
2, 123120, Note_on_c, 0, 83, 88
2, 123120, Note_on_c, 0, 71, 70
2, 123120, Note_on_c, 0, 74, 70
2, 125160, Note_on_c, 0, 74, 0
2, 125160, Note_on_c, 0, 71, 0
2, 125160, Note_on_c, 0, 83, 0
2, 125160, Note_on_c, 0, 74, 70
2, 125160, Note_on_c, 0, 83, 88
2, 125160, Note_on_c, 0, 71, 70
2, 125280, Note_on_c, 0, 71, 0
2, 125280, Note_on_c, 0, 83, 0
2, 125280, Note_on_c, 0, 74, 0
2, 125280, Note_on_c, 0, 73, 76
2, 125280, Note_on_c, 0, 85, 96
2, 125280, Note_on_c, 0, 76, 76
2, 125880, Note_on_c, 0, 76, 0
2, 125880, Note_on_c, 0, 85, 0
2, 125880, Note_on_c, 0, 73, 0
2, 125880, Note_on_c, 0, 74, 70
2, 125880, Note_on_c, 0, 71, 70
2, 125880, Note_on_c, 0, 83, 88
2, 126000, Note_on_c, 0, 83, 0
2, 126000, Note_on_c, 0, 71, 0
2, 126000, Note_on_c, 0, 74, 0
2, 126000, Note_on_c, 0, 74, 76
2, 126000, Note_on_c, 0, 71, 76
2, 126000, Note_on_c, 0, 83, 96
2, 126600, Note_on_c, 0, 83, 0
2, 126600, Note_on_c, 0, 71, 0
2, 126600, Note_on_c, 0, 74, 0
2, 126600, Note_on_c, 0, 73, 70
2, 126600, Note_on_c, 0, 81, 88
2, 126600, Note_on_c, 0, 69, 70
2, 126720, Note_on_c, 0, 69, 0
2, 126720, Note_on_c, 0, 81, 0
2, 126720, Note_on_c, 0, 73, 0
2, 126720, Note_on_c, 0, 81, 96
2, 126720, Note_on_c, 0, 69, 76
2, 126720, Note_on_c, 0, 73, 76
2, 127320, Note_on_c, 0, 73, 0
2, 127320, Note_on_c, 0, 69, 0
2, 127320, Note_on_c, 0, 81, 0
2, 127320, Note_on_c, 0, 80, 79
2, 127320, Note_on_c, 0, 68, 63
2, 127320, Note_on_c, 0, 71, 63
2, 127440, Note_on_c, 0, 71, 0
2, 127440, Note_on_c, 0, 68, 0
2, 127440, Note_on_c, 0, 80, 0
2, 127440, Note_on_c, 0, 69, 66
2, 127440, Note_on_c, 0, 73, 66
2, 127440, Note_on_c, 0, 81, 83
2, 128880, Note_on_c, 0, 81, 0
2, 128880, Note_on_c, 0, 73, 0
2, 128880, Note_on_c, 0, 69, 0
2, 128880, Note_on_c, 0, 73, 77
2, 128880, Note_on_c, 0, 85, 97
2, 129480, Note_on_c, 0, 85, 0
2, 129480, Note_on_c, 0, 73, 0
2, 129480, Note_on_c, 0, 81, 78
2, 129480, Note_on_c, 0, 78, 62
2, 129480, Note_on_c, 0, 69, 62
2, 129600, Note_on_c, 0, 69, 0
2, 129600, Note_on_c, 0, 78, 0
2, 129600, Note_on_c, 0, 81, 0
2, 129600, Note_on_c, 0, 80, 78
2, 129600, Note_on_c, 0, 68, 62
2, 129600, Note_on_c, 0, 77, 62
2, 131040, Note_on_c, 0, 77, 0
2, 131040, Note_on_c, 0, 68, 0
2, 131040, Note_on_c, 0, 80, 0
2, 131040, Note_on_c, 0, 90, 99
2, 131040, Note_on_c, 0, 78, 79
2, 131040, Note_on_c, 0, 81, 79
2, 131640, Note_on_c, 0, 81, 0
2, 131640, Note_on_c, 0, 78, 0
2, 131640, Note_on_c, 0, 90, 0
2, 131640, Note_on_c, 0, 69, 56
2, 131640, Note_on_c, 0, 81, 70
2, 131640, Note_on_c, 0, 78, 56
2, 131760, Note_on_c, 0, 78, 0
2, 131760, Note_on_c, 0, 81, 0
2, 131760, Note_on_c, 0, 69, 0
2, 131760, Note_on_c, 0, 68, 56
2, 131760, Note_on_c, 0, 80, 70
2, 131760, Note_on_c, 0, 77, 56
2, 132720, Note_on_c, 0, 77, 0
2, 132720, Note_on_c, 0, 80, 0
2, 132720, Note_on_c, 0, 68, 0
2, 132720, Note_on_c, 0, 71, 70
2, 132960, Note_on_c, 0, 71, 0
2, 132960, Note_on_c, 0, 69, 63
2, 133200, Note_on_c, 0, 69, 0
2, 133200, Note_on_c, 0, 68, 58
2, 133440, Note_on_c, 0, 68, 0
2, 133440, Note_on_c, 0, 69, 55
2, 133680, Note_on_c, 0, 69, 0
2, 133680, Note_on_c, 0, 71, 53
2, 133920, Note_on_c, 0, 71, 0
2, 133920, Note_on_c, 0, 73, 51
2, 133920, Control_c, 0, 91, 127
2, 134640, Note_on_c, 0, 73, 0
2, 134640, Note_on_c, 0, 73, 51
2, 135360, Note_on_c, 0, 73, 0
2, 135360, Note_on_c, 0, 73, 52
2, 136080, Note_on_c, 0, 73, 0
2, 136080, Note_on_c, 0, 74, 60
2, 138120, Note_on_c, 0, 74, 41
2, 138240, Note_on_c, 0, 74, 0
2, 138240, Note_on_c, 0, 74, 0
2, 138240, Note_on_c, 0, 78, 41
2, 138720, Note_on_c, 0, 78, 0
2, 138720, Note_on_c, 0, 74, 41
2, 138960, Note_on_c, 0, 74, 0
2, 138960, Note_on_c, 0, 74, 41
2, 139440, Note_on_c, 0, 74, 0
2, 139440, Note_on_c, 0, 73, 41
2, 139680, Note_on_c, 0, 73, 0
2, 139680, Note_on_c, 0, 73, 41
2, 140160, Note_on_c, 0, 73, 0
2, 140160, Note_on_c, 0, 71, 44
2, 140400, Note_on_c, 0, 71, 0
2, 140400, Note_on_c, 0, 73, 44
2, 141840, Note_on_c, 0, 73, 0
2, 141840, Note_on_c, 0, 73, 52
2, 142320, Note_on_c, 0, 73, 0
2, 142320, Note_on_c, 0, 69, 52
2, 142560, Note_on_c, 0, 69, 0
2, 142560, Note_on_c, 0, 68, 52
2, 144000, Note_on_c, 0, 68, 0
2, 144000, Note_on_c, 0, 71, 47
2, 144240, Note_on_c, 0, 71, 0
2, 144240, Note_on_c, 0, 69, 44
2, 144480, Note_on_c, 0, 69, 0
2, 144480, Note_on_c, 0, 68, 36
2, 144720, Note_on_c, 0, 68, 0
2, 144720, Note_on_c, 0, 73, 45
2, 146040, Note_on_c, 0, 73, 0
2, 146040, Note_on_c, 0, 73, 52
2, 146160, Note_on_c, 0, 73, 0
2, 146160, Note_on_c, 0, 78, 70
2, 146640, Note_on_c, 0, 78, 0
2, 146640, Note_on_c, 0, 70, 62
2, 146880, Note_on_c, 0, 70, 0
2, 146880, Note_on_c, 0, 68, 62
2, 147840, Note_on_c, 0, 68, 0
2, 147840, Note_on_c, 0, 70, 61
2, 148080, Note_on_c, 0, 70, 0
2, 148080, Note_on_c, 0, 68, 61
2, 148320, Note_on_c, 0, 68, 0
2, 148320, Note_on_c, 0, 71, 60
2, 148560, Note_on_c, 0, 71, 0
2, 148560, Note_on_c, 0, 70, 57
2, 148800, Note_on_c, 0, 70, 0
2, 148800, Note_on_c, 0, 68, 57
2, 149040, Note_on_c, 0, 68, 0
2, 149040, Note_on_c, 0, 66, 62
2, 150480, Note_on_c, 0, 66, 0
2, 151200, Note_on_c, 0, 73, 45
2, 151920, Note_on_c, 0, 73, 0
2, 151920, Note_on_c, 0, 73, 45
2, 152640, Note_on_c, 0, 73, 0
2, 152640, Note_on_c, 0, 73, 44
2, 153360, Note_on_c, 0, 73, 0
2, 153360, Note_on_c, 0, 73, 46
2, 154080, Note_on_c, 0, 73, 0
2, 154080, Note_on_c, 0, 73, 44
2, 154800, Note_on_c, 0, 73, 0
2, 154800, Note_on_c, 0, 73, 44
2, 155400, Note_on_c, 0, 73, 0
2, 155400, Note_on_c, 0, 73, 35
2, 155520, Note_on_c, 0, 73, 0
2, 155520, Note_on_c, 0, 76, 52
2, 156000, Note_on_c, 0, 76, 0
2, 156000, Note_on_c, 0, 75, 47
2, 156240, Note_on_c, 0, 75, 0
2, 156240, Note_on_c, 0, 75, 46
2, 156480, Note_on_c, 0, 75, 0
2, 156480, Note_on_c, 0, 75, 45
2, 156720, Note_on_c, 0, 75, 0
2, 156720, Note_on_c, 0, 75, 44
2, 156960, Note_on_c, 0, 75, 0
2, 156960, Note_on_c, 0, 75, 42
2, 157200, Note_on_c, 0, 75, 0
2, 157200, Note_on_c, 0, 75, 41
2, 157440, Note_on_c, 0, 75, 0
2, 157440, Note_on_c, 0, 75, 40
2, 157680, Note_on_c, 0, 75, 0
2, 157680, Note_on_c, 0, 75, 39
2, 159120, Note_on_c, 0, 75, 0
2, 159120, Note_on_c, 0, 72, 30
2, 159120, Control_c, 0, 91, 127
2, 159120, Note_on_c, 0, 68, 27
2, 159120, Note_on_c, 0, 60, 27
2, 159480, Note_on_c, 0, 67, 27
2, 159480, Note_on_c, 0, 73, 30
2, 159480, Note_on_c, 0, 61, 27
2, 159490, Note_on_c, 0, 60, 0
2, 159490, Note_on_c, 0, 72, 0
2, 159490, Note_on_c, 0, 68, 0
2, 159600, Note_on_c, 0, 72, 30
2, 159600, Note_on_c, 0, 60, 27
2, 159600, Note_on_c, 0, 68, 27
2, 159610, Note_on_c, 0, 67, 0
2, 159610, Note_on_c, 0, 61, 0
2, 159610, Note_on_c, 0, 73, 0
2, 159840, Note_on_c, 0, 72, 0
2, 159840, Note_on_c, 0, 60, 0
2, 159840, Note_on_c, 0, 68, 0
2, 159840, Note_on_c, 0, 73, 22
2, 159840, Note_on_c, 0, 61, 19
2, 159840, Note_on_c, 0, 67, 19
2, 161280, Note_on_c, 0, 67, 0
2, 161280, Note_on_c, 0, 61, 0
2, 161280, Note_on_c, 0, 73, 0
2, 161280, Note_on_c, 0, 60, 30
2, 161280, Note_on_c, 0, 68, 30
2, 161280, Note_on_c, 0, 72, 35
2, 161640, Note_on_c, 0, 63, 35
2, 161640, Note_on_c, 0, 75, 39
2, 161650, Note_on_c, 0, 72, 0
2, 161650, Note_on_c, 0, 60, 0
2, 161650, Note_on_c, 0, 68, 0
2, 161760, Note_on_c, 0, 68, 30
2, 161760, Note_on_c, 0, 72, 35
2, 161760, Note_on_c, 0, 60, 30
2, 161770, Note_on_c, 0, 63, 0
2, 161770, Note_on_c, 0, 75, 0
2, 162000, Note_on_c, 0, 72, 0
2, 162000, Note_on_c, 0, 68, 0
2, 162000, Note_on_c, 0, 60, 0
2, 162000, Note_on_c, 0, 70, 28
2, 162000, Note_on_c, 0, 58, 25
2, 162000, Note_on_c, 0, 67, 25
2, 163440, Note_on_c, 0, 67, 0
2, 163440, Note_on_c, 0, 58, 0
2, 163440, Note_on_c, 0, 70, 0
2, 163440, Note_on_c, 0, 72, 34
2, 163440, Note_on_c, 0, 60, 29
2, 163440, Note_on_c, 0, 68, 29
2, 163800, Note_on_c, 0, 61, 29
2, 163800, Note_on_c, 0, 67, 29
2, 163800, Note_on_c, 0, 73, 34
2, 163810, Note_on_c, 0, 68, 0
2, 163810, Note_on_c, 0, 72, 0
2, 163810, Note_on_c, 0, 60, 0
2, 163920, Note_on_c, 0, 60, 29
2, 163920, Note_on_c, 0, 72, 34
2, 163920, Note_on_c, 0, 68, 29
2, 163930, Note_on_c, 0, 61, 0
2, 163930, Note_on_c, 0, 73, 0
2, 163930, Note_on_c, 0, 67, 0
2, 164160, Note_on_c, 0, 60, 0
2, 164160, Note_on_c, 0, 72, 0
2, 164160, Note_on_c, 0, 68, 0
2, 164160, Note_on_c, 0, 68, 27
2, 164160, Note_on_c, 0, 60, 27
2, 164160, Note_on_c, 0, 72, 30
2, 164520, Note_on_c, 0, 68, 42
2, 164520, Note_on_c, 0, 65, 42
2, 164520, Note_on_c, 0, 77, 48
2, 164530, Note_on_c, 0, 72, 0
2, 164530, Note_on_c, 0, 68, 0
2, 164530, Note_on_c, 0, 60, 0
2, 164640, Note_on_c, 0, 75, 51
2, 164640, Note_on_c, 0, 68, 45
2, 164640, Note_on_c, 0, 63, 45
2, 164650, Note_on_c, 0, 68, 0
2, 164650, Note_on_c, 0, 77, 0
2, 164650, Note_on_c, 0, 65, 0
2, 164880, Note_on_c, 0, 75, 0
2, 164880, Note_on_c, 0, 68, 0
2, 164880, Note_on_c, 0, 63, 0
2, 164880, Note_on_c, 0, 75, 56
2, 164880, Note_on_c, 0, 63, 50
2, 164880, Note_on_c, 0, 68, 50
2, 165480, Note_on_c, 0, 68, 0
2, 165480, Note_on_c, 0, 63, 0
2, 165480, Note_on_c, 0, 75, 0
2, 165480, Note_on_c, 0, 75, 52
2, 165480, Note_on_c, 0, 63, 47
2, 165600, Note_on_c, 0, 63, 0
2, 165600, Note_on_c, 0, 75, 0
2, 165600, Note_on_c, 0, 67, 47
2, 165600, Note_on_c, 0, 61, 47
2, 165600, Note_on_c, 0, 73, 52
2, 166200, Note_on_c, 0, 73, 0
2, 166200, Note_on_c, 0, 61, 0
2, 166200, Note_on_c, 0, 67, 0
2, 166200, Note_on_c, 0, 68, 24
2, 166200, Note_on_c, 0, 60, 24
2, 166200, Note_on_c, 0, 72, 27
2, 166320, Note_on_c, 0, 72, 0
2, 166320, Note_on_c, 0, 60, 0
2, 166320, Note_on_c, 0, 68, 0
2, 166320, Note_on_c, 0, 68, 24
2, 166320, Note_on_c, 0, 72, 27
2, 166320, Note_on_c, 0, 60, 24
2, 167760, Note_on_c, 0, 60, 0
2, 167760, Note_on_c, 0, 72, 0
2, 167760, Note_on_c, 0, 68, 0
2, 167760, Note_on_c, 0, 70, 44
2, 167760, Note_on_c, 0, 58, 39
2, 167760, Note_on_c, 0, 67, 39
2, 168120, Note_on_c, 0, 68, 39
2, 168120, Note_on_c, 0, 59, 39
2, 168120, Note_on_c, 0, 71, 44
2, 168130, Note_on_c, 0, 67, 0
2, 168130, Note_on_c, 0, 70, 0
2, 168130, Note_on_c, 0, 58, 0
2, 168240, Note_on_c, 0, 58, 39
2, 168240, Note_on_c, 0, 67, 39
2, 168240, Note_on_c, 0, 70, 44
2, 168250, Note_on_c, 0, 68, 0
2, 168250, Note_on_c, 0, 71, 0
2, 168250, Note_on_c, 0, 59, 0
2, 168480, Note_on_c, 0, 58, 0
2, 168480, Note_on_c, 0, 67, 0
2, 168480, Note_on_c, 0, 70, 0
2, 168480, Note_on_c, 0, 58, 39
2, 168480, Note_on_c, 0, 70, 44
2, 168480, Note_on_c, 0, 67, 39
2, 168840, Note_on_c, 0, 71, 44
2, 168840, Note_on_c, 0, 59, 39
2, 168840, Note_on_c, 0, 68, 39
2, 168850, Note_on_c, 0, 67, 0
2, 168850, Note_on_c, 0, 58, 0
2, 168850, Note_on_c, 0, 70, 0
2, 168960, Note_on_c, 0, 67, 39
2, 168960, Note_on_c, 0, 58, 39
2, 168960, Note_on_c, 0, 70, 44
2, 168970, Note_on_c, 0, 71, 0
2, 168970, Note_on_c, 0, 68, 0
2, 168970, Note_on_c, 0, 59, 0
2, 169200, Note_on_c, 0, 67, 0
2, 169200, Note_on_c, 0, 58, 0
2, 169200, Note_on_c, 0, 70, 0
2, 169200, Note_on_c, 0, 68, 61
2, 169200, Note_on_c, 0, 71, 68
2, 169200, Note_on_c, 0, 65, 61
2, 169920, Note_on_c, 0, 65, 0
2, 169920, Note_on_c, 0, 71, 0
2, 169920, Note_on_c, 0, 68, 0
2, 169920, Note_on_c, 0, 68, 62
2, 169920, Note_on_c, 0, 77, 69
2, 169920, Note_on_c, 0, 71, 62
2, 170400, Note_on_c, 0, 71, 0
2, 170400, Note_on_c, 0, 68, 0
2, 170520, Note_on_c, 0, 77, 0
2, 170520, Note_on_c, 0, 75, 42
2, 170640, Note_on_c, 0, 75, 0
2, 170640, Note_on_c, 0, 68, 38
2, 170640, Note_on_c, 0, 71, 38
2, 170640, Note_on_c, 0, 75, 42
2, 171360, Note_on_c, 0, 71, 0
2, 171360, Note_on_c, 0, 68, 0
2, 171360, Note_on_c, 0, 67, 25
2, 171360, Note_on_c, 0, 70, 28
2, 171600, Note_on_c, 0, 70, 0
2, 171600, Note_on_c, 0, 67, 0
2, 171600, Note_on_c, 0, 75, 0
2, 172080, Note_on_c, 0, 75, 35
2, 172080, Note_on_c, 0, 69, 30
2, 172080, Note_on_c, 0, 60, 30
2, 172080, Note_on_c, 0, 66, 30
2, 172440, Note_on_c, 0, 77, 35
2, 172450, Note_on_c, 0, 75, 0
2, 172560, Note_on_c, 0, 66, 0
2, 172560, Note_on_c, 0, 69, 0
2, 172560, Note_on_c, 0, 60, 0
2, 172560, Note_on_c, 0, 66, 30
2, 172560, Note_on_c, 0, 75, 35
2, 172560, Note_on_c, 0, 60, 30
2, 172560, Note_on_c, 0, 69, 30
2, 172570, Note_on_c, 0, 77, 0
2, 172800, Note_on_c, 0, 60, 0
2, 172800, Note_on_c, 0, 66, 0
2, 172800, Note_on_c, 0, 75, 0
2, 172800, Note_on_c, 0, 69, 0
2, 172800, Note_on_c, 0, 75, 35
2, 172800, Note_on_c, 0, 61, 30
2, 172800, Note_on_c, 0, 68, 30
2, 172800, Note_on_c, 0, 66, 30
2, 173280, Note_on_c, 0, 68, 0
2, 173280, Note_on_c, 0, 75, 0
2, 173280, Note_on_c, 0, 72, 35
2, 173520, Note_on_c, 0, 72, 0
2, 173520, Note_on_c, 0, 66, 0
2, 173520, Note_on_c, 0, 68, 30
2, 173520, Note_on_c, 0, 65, 30
2, 173520, Note_on_c, 0, 73, 35
2, 173760, Note_on_c, 0, 73, 0
2, 173760, Note_on_c, 0, 61, 0
2, 173760, Note_on_c, 0, 68, 0
2, 173760, Note_on_c, 0, 65, 0
2, 174240, Note_on_c, 0, 75, 68
2, 174240, Note_on_c, 0, 72, 68
2, 174240, Note_on_c, 0, 80, 77
2, 174600, Note_on_c, 0, 82, 77
2, 174610, Note_on_c, 0, 80, 0
2, 174720, Note_on_c, 0, 75, 0
2, 174720, Note_on_c, 0, 72, 0
2, 174720, Note_on_c, 0, 72, 68
2, 174720, Note_on_c, 0, 80, 77
2, 174720, Note_on_c, 0, 75, 68
2, 174730, Note_on_c, 0, 82, 0
2, 174960, Note_on_c, 0, 72, 0
2, 174960, Note_on_c, 0, 80, 0
2, 174960, Note_on_c, 0, 75, 0
2, 174960, Note_on_c, 0, 82, 77
2, 174960, Note_on_c, 0, 73, 68
2, 175320, Note_on_c, 0, 80, 77
2, 175330, Note_on_c, 0, 82, 0
2, 175440, Note_on_c, 0, 80, 0
2, 175440, Note_on_c, 0, 73, 0
2, 175440, Note_on_c, 0, 80, 77
2, 175440, Note_on_c, 0, 73, 68
2, 175500, Note_on_c, 0, 80, 0
2, 175560, Note_on_c, 0, 80, 77
2, 175680, Note_on_c, 0, 80, 0
2, 175680, Note_on_c, 0, 73, 0
2, 175680, Note_on_c, 0, 80, 81
2, 175680, Note_on_c, 0, 85, 91
2, 175680, Note_on_c, 0, 73, 81
2, 176160, Note_on_c, 0, 85, 0
2, 176160, Note_on_c, 0, 84, 77
2, 176280, Note_on_c, 0, 84, 0
2, 176280, Note_on_c, 0, 84, 57
2, 176400, Note_on_c, 0, 84, 0
2, 176400, Note_on_c, 0, 73, 0
2, 176400, Note_on_c, 0, 80, 0
2, 176400, Note_on_c, 0, 82, 57
2, 176400, Note_on_c, 0, 79, 51
2, 176400, Note_on_c, 0, 73, 51
2, 177000, Note_on_c, 0, 73, 0
2, 177000, Note_on_c, 0, 79, 0
2, 177000, Note_on_c, 0, 82, 0
2, 177000, Note_on_c, 0, 80, 50
2, 177000, Note_on_c, 0, 72, 45
2, 177120, Note_on_c, 0, 72, 0
2, 177120, Note_on_c, 0, 80, 0
2, 177120, Note_on_c, 0, 80, 50
2, 177120, Note_on_c, 0, 72, 37
2, 177840, Note_on_c, 0, 72, 0
2, 177840, Note_on_c, 0, 80, 0
2, 178440, Note_on_c, 0, 60, 30
2, 178440, Note_on_c, 0, 72, 35
2, 178440, Note_on_c, 0, 68, 30
2, 178560, Note_on_c, 0, 68, 0
2, 178560, Note_on_c, 0, 72, 0
2, 178560, Note_on_c, 0, 60, 0
2, 178560, Note_on_c, 0, 68, 30
2, 178560, Note_on_c, 0, 60, 30
2, 178560, Note_on_c, 0, 72, 35
2, 178920, Note_on_c, 0, 67, 30
2, 178920, Note_on_c, 0, 61, 30
2, 178920, Note_on_c, 0, 73, 35
2, 178930, Note_on_c, 0, 72, 0
2, 178930, Note_on_c, 0, 68, 0
2, 178930, Note_on_c, 0, 60, 0
2, 179040, Note_on_c, 0, 68, 30
2, 179040, Note_on_c, 0, 72, 35
2, 179040, Note_on_c, 0, 60, 30
2, 179050, Note_on_c, 0, 67, 0
2, 179050, Note_on_c, 0, 73, 0
2, 179050, Note_on_c, 0, 61, 0
2, 179280, Note_on_c, 0, 68, 0
2, 179280, Note_on_c, 0, 72, 0
2, 179280, Note_on_c, 0, 60, 0
2, 179280, Note_on_c, 0, 73, 30
2, 179280, Note_on_c, 0, 61, 27
2, 179280, Note_on_c, 0, 67, 27
2, 180600, Note_on_c, 0, 67, 0
2, 180600, Note_on_c, 0, 61, 0
2, 180600, Note_on_c, 0, 73, 0
2, 180600, Note_on_c, 0, 70, 35
2, 180600, Note_on_c, 0, 58, 30
2, 180600, Note_on_c, 0, 67, 30
2, 180720, Note_on_c, 0, 67, 0
2, 180720, Note_on_c, 0, 58, 0
2, 180720, Note_on_c, 0, 70, 0
2, 180720, Note_on_c, 0, 58, 30
2, 180720, Note_on_c, 0, 67, 30
2, 180720, Note_on_c, 0, 70, 35
2, 181080, Note_on_c, 0, 60, 30
2, 181080, Note_on_c, 0, 72, 35
2, 181080, Note_on_c, 0, 68, 30
2, 181090, Note_on_c, 0, 70, 0
2, 181090, Note_on_c, 0, 58, 0
2, 181090, Note_on_c, 0, 67, 0
2, 181200, Note_on_c, 0, 67, 30
2, 181200, Note_on_c, 0, 58, 30
2, 181200, Note_on_c, 0, 70, 35
2, 181210, Note_on_c, 0, 60, 0
2, 181210, Note_on_c, 0, 68, 0
2, 181210, Note_on_c, 0, 72, 0
2, 181440, Note_on_c, 0, 67, 0
2, 181440, Note_on_c, 0, 58, 0
2, 181440, Note_on_c, 0, 70, 0
2, 181440, Note_on_c, 0, 68, 27
2, 181440, Note_on_c, 0, 60, 27
2, 181440, Note_on_c, 0, 72, 30
2, 182760, Note_on_c, 0, 72, 0
2, 182760, Note_on_c, 0, 60, 0
2, 182760, Note_on_c, 0, 68, 0
2, 182760, Note_on_c, 0, 63, 35
2, 182880, Note_on_c, 0, 63, 0
2, 182880, Note_on_c, 0, 63, 35
2, 183240, Note_on_c, 0, 65, 42
2, 183250, Note_on_c, 0, 63, 0
2, 183360, Note_on_c, 0, 63, 44
2, 183370, Note_on_c, 0, 65, 0
2, 183600, Note_on_c, 0, 63, 0
2, 183600, Note_on_c, 0, 65, 45
2, 183960, Note_on_c, 0, 63, 44
2, 183970, Note_on_c, 0, 65, 0
2, 184080, Note_on_c, 0, 63, 0
2, 184080, Note_on_c, 0, 63, 44
2, 184320, Note_on_c, 0, 63, 0
2, 184320, Note_on_c, 0, 68, 44
2, 184320, Note_on_c, 0, 60, 39
2, 185040, Note_on_c, 0, 60, 0
2, 185040, Note_on_c, 0, 68, 0
2, 185040, Note_on_c, 0, 61, 39
2, 185040, Note_on_c, 0, 67, 39
2, 185040, Note_on_c, 0, 70, 44
2, 185640, Note_on_c, 0, 70, 0
2, 185640, Note_on_c, 0, 67, 0
2, 185640, Note_on_c, 0, 61, 0
2, 185640, Note_on_c, 0, 60, 30
2, 185640, Note_on_c, 0, 68, 35
2, 185760, Note_on_c, 0, 68, 0
2, 185760, Note_on_c, 0, 60, 0
2, 185760, Note_on_c, 0, 68, 35
2, 185760, Note_on_c, 0, 60, 30
2, 186360, Note_on_c, 0, 75, 29
2, 186480, Note_on_c, 0, 75, 0
2, 186480, Note_on_c, 0, 60, 0
2, 186480, Note_on_c, 0, 68, 0
2, 186480, Note_on_c, 0, 75, 29
2, 187080, Note_on_c, 0, 63, 30
2, 187080, Note_on_c, 0, 68, 35
2, 187200, Note_on_c, 0, 68, 0
2, 187200, Note_on_c, 0, 63, 0
2, 187200, Note_on_c, 0, 68, 35
2, 187200, Note_on_c, 0, 63, 30
2, 187560, Note_on_c, 0, 70, 35
2, 187560, Note_on_c, 0, 65, 30
2, 187570, Note_on_c, 0, 63, 0
2, 187570, Note_on_c, 0, 68, 0
2, 187680, Note_on_c, 0, 63, 30
2, 187680, Note_on_c, 0, 68, 35
2, 187690, Note_on_c, 0, 65, 0
2, 187690, Note_on_c, 0, 70, 0
2, 187920, Note_on_c, 0, 68, 0
2, 187920, Note_on_c, 0, 63, 0
2, 187920, Note_on_c, 0, 65, 27
2, 187920, Note_on_c, 0, 70, 30
2, 188520, Note_on_c, 0, 75, 0
2, 188520, Note_on_c, 0, 75, 27
2, 188640, Note_on_c, 0, 75, 0
2, 188640, Note_on_c, 0, 75, 27
2, 189240, Note_on_c, 0, 70, 0
2, 189240, Note_on_c, 0, 65, 0
2, 189240, Note_on_c, 0, 61, 30
2, 189240, Note_on_c, 0, 67, 35
2, 189360, Note_on_c, 0, 67, 0
2, 189360, Note_on_c, 0, 61, 0
2, 189360, Note_on_c, 0, 67, 35
2, 189360, Note_on_c, 0, 61, 30
2, 189720, Note_on_c, 0, 63, 30
2, 189720, Note_on_c, 0, 68, 35
2, 189730, Note_on_c, 0, 61, 0
2, 189730, Note_on_c, 0, 67, 0
2, 189840, Note_on_c, 0, 70, 35
2, 189840, Note_on_c, 0, 65, 30
2, 189850, Note_on_c, 0, 68, 0
2, 189850, Note_on_c, 0, 63, 0
2, 190080, Note_on_c, 0, 65, 0
2, 190080, Note_on_c, 0, 70, 0
2, 190080, Note_on_c, 0, 68, 30
2, 190080, Note_on_c, 0, 63, 27
2, 190680, Note_on_c, 0, 75, 0
2, 190680, Note_on_c, 0, 75, 27
2, 190800, Note_on_c, 0, 75, 0
2, 190800, Note_on_c, 0, 75, 27
2, 191400, Note_on_c, 0, 63, 0
2, 191400, Note_on_c, 0, 68, 0
2, 191400, Note_on_c, 0, 63, 35
2, 191520, Note_on_c, 0, 63, 0
2, 191520, Note_on_c, 0, 63, 35
2, 191880, Note_on_c, 0, 65, 42
2, 191890, Note_on_c, 0, 63, 0
2, 192000, Note_on_c, 0, 63, 44
2, 192010, Note_on_c, 0, 65, 0
2, 192240, Note_on_c, 0, 63, 0
2, 192240, Note_on_c, 0, 68, 45
2, 192240, Note_on_c, 0, 65, 39
2, 192600, Note_on_c, 0, 63, 44
2, 192610, Note_on_c, 0, 65, 0
2, 192610, Note_on_c, 0, 68, 0
2, 192720, Note_on_c, 0, 63, 0
2, 192720, Note_on_c, 0, 63, 44
2, 192960, Note_on_c, 0, 63, 0
2, 192960, Note_on_c, 0, 75, 0
2, 192960, Note_on_c, 0, 72, 59
2, 192960, Note_on_c, 0, 75, 67
2, 193680, Note_on_c, 0, 75, 0
2, 193680, Note_on_c, 0, 72, 0
2, 193680, Note_on_c, 0, 75, 63
2, 193680, Note_on_c, 0, 70, 63
2, 193680, Note_on_c, 0, 79, 71
2, 194280, Note_on_c, 0, 79, 0
2, 194280, Note_on_c, 0, 70, 0
2, 194280, Note_on_c, 0, 75, 0
2, 194280, Note_on_c, 0, 80, 77
2, 194280, Note_on_c, 0, 75, 68
2, 194280, Note_on_c, 0, 68, 68
2, 194400, Note_on_c, 0, 68, 0
2, 194400, Note_on_c, 0, 75, 0
2, 194400, Note_on_c, 0, 80, 0
2, 194400, Note_on_c, 0, 80, 77
2, 194400, Note_on_c, 0, 68, 68
2, 194400, Note_on_c, 0, 75, 68
2, 196560, Note_on_c, 0, 75, 0
2, 196560, Note_on_c, 0, 68, 0
2, 196560, Note_on_c, 0, 80, 0
2, 196560, End_track
3, 0, Start_track
3, 0, Title_t, "Piano Left"
3, 0, Program_c, 0, 0
3, 0, Control_c, 0, 7, 100
3, 0, Control_c, 0, 10, 64
3, 0, Control_c, 0, 64, 0
3, 1412, Control_c, 0, 64, 0
3, 1440, Note_on_c, 0, 44, 33
3, 1440, Note_on_c, 0, 51, 39
3, 1440, Control_c, 0, 91, 127
3, 1800, Note_on_c, 0, 51, 0
3, 1800, Note_on_c, 0, 46, 33
3, 1800, Note_on_c, 0, 51, 39
3, 1810, Note_on_c, 0, 44, 0
3, 1920, Note_on_c, 0, 51, 0
3, 1920, Note_on_c, 0, 44, 33
3, 1920, Note_on_c, 0, 51, 39
3, 1930, Note_on_c, 0, 46, 0
3, 2160, Note_on_c, 0, 51, 0
3, 2160, Note_on_c, 0, 44, 0
3, 2160, Note_on_c, 0, 51, 33
3, 2160, Note_on_c, 0, 46, 27
3, 3600, Note_on_c, 0, 46, 0
3, 3600, Note_on_c, 0, 51, 0
3, 3600, Note_on_c, 0, 44, 33
3, 3600, Note_on_c, 0, 51, 39
3, 3960, Note_on_c, 0, 51, 0
3, 3960, Note_on_c, 0, 51, 39
3, 3960, Note_on_c, 0, 46, 33
3, 3970, Note_on_c, 0, 44, 0
3, 4080, Note_on_c, 0, 51, 0
3, 4080, Note_on_c, 0, 44, 33
3, 4080, Note_on_c, 0, 51, 39
3, 4090, Note_on_c, 0, 46, 0
3, 4320, Note_on_c, 0, 51, 0
3, 4320, Note_on_c, 0, 44, 0
3, 4320, Note_on_c, 0, 51, 33
3, 4320, Note_on_c, 0, 39, 27
3, 5760, Note_on_c, 0, 39, 0
3, 5760, Note_on_c, 0, 51, 0
3, 5760, Note_on_c, 0, 44, 33
3, 5760, Note_on_c, 0, 51, 39
3, 6120, Note_on_c, 0, 51, 0
3, 6120, Note_on_c, 0, 46, 33
3, 6120, Note_on_c, 0, 51, 39
3, 6130, Note_on_c, 0, 44, 0
3, 6240, Note_on_c, 0, 51, 0
3, 6240, Note_on_c, 0, 51, 39
3, 6240, Note_on_c, 0, 44, 33
3, 6250, Note_on_c, 0, 46, 0
3, 6480, Note_on_c, 0, 44, 0
3, 6480, Note_on_c, 0, 51, 0
3, 6480, Note_on_c, 0, 44, 29
3, 6480, Note_on_c, 0, 51, 35
3, 6840, Note_on_c, 0, 51, 0
3, 6840, Note_on_c, 0, 51, 40
3, 6840, Note_on_c, 0, 46, 34
3, 6850, Note_on_c, 0, 44, 0
3, 6960, Note_on_c, 0, 51, 0
3, 6960, Note_on_c, 0, 44, 36
3, 6960, Note_on_c, 0, 51, 44
3, 6970, Note_on_c, 0, 46, 0
3, 7200, Note_on_c, 0, 51, 0
3, 7200, Note_on_c, 0, 44, 0
3, 7200, Note_on_c, 0, 51, 49
3, 7200, Note_on_c, 0, 48, 41
3, 7920, Note_on_c, 0, 48, 0
3, 7920, Note_on_c, 0, 51, 0
3, 7920, Note_on_c, 0, 46, 27
3, 7920, Note_on_c, 0, 51, 33
3, 8520, Note_on_c, 0, 51, 0
3, 8520, Note_on_c, 0, 46, 0
3, 8520, Note_on_c, 0, 44, 25
3, 8520, Note_on_c, 0, 51, 29
3, 8640, Note_on_c, 0, 51, 0
3, 8640, Note_on_c, 0, 44, 0
3, 8640, Note_on_c, 0, 51, 29
3, 8640, Note_on_c, 0, 44, 25
3, 10080, Note_on_c, 0, 44, 0
3, 10080, Note_on_c, 0, 51, 0
3, 10080, Note_on_c, 0, 39, 27
3, 10080, Note_on_c, 0, 51, 32
3, 10440, Note_on_c, 0, 51, 0
3, 10440, Note_on_c, 0, 51, 33
3, 10440, Note_on_c, 0, 44, 27
3, 10450, Note_on_c, 0, 39, 0
3, 10560, Note_on_c, 0, 51, 0
3, 10560, Note_on_c, 0, 39, 27
3, 10560, Note_on_c, 0, 51, 33
3, 10570, Note_on_c, 0, 44, 0
3, 10800, Note_on_c, 0, 51, 0
3, 10800, Note_on_c, 0, 39, 0
3, 10800, Note_on_c, 0, 51, 33
3, 10800, Note_on_c, 0, 39, 27
3, 11160, Note_on_c, 0, 51, 0
3, 11160, Note_on_c, 0, 44, 27
3, 11160, Note_on_c, 0, 51, 32
3, 11170, Note_on_c, 0, 39, 0
3, 11280, Note_on_c, 0, 51, 0
3, 11280, Note_on_c, 0, 39, 27
3, 11280, Note_on_c, 0, 51, 32
3, 11290, Note_on_c, 0, 44, 0
3, 11520, Note_on_c, 0, 51, 0
3, 11520, Note_on_c, 0, 39, 0
3, 11520, Note_on_c, 0, 50, 51
3, 11520, Note_on_c, 0, 38, 44
3, 12960, Note_on_c, 0, 38, 0
3, 12960, Note_on_c, 0, 50, 0
3, 12960, Note_on_c, 0, 39, 21
3, 12960, Note_on_c, 0, 51, 26
3, 13920, Note_on_c, 0, 51, 0
3, 13920, Note_on_c, 0, 39, 0
3, 14400, Note_on_c, 0, 51, 39
3, 14400, Note_on_c, 0, 39, 33
3, 14760, Note_on_c, 0, 51, 0
3, 14760, Note_on_c, 0, 44, 33
3, 14760, Note_on_c, 0, 51, 39
3, 14770, Note_on_c, 0, 39, 0
3, 14880, Note_on_c, 0, 51, 0
3, 14880, Note_on_c, 0, 51, 39
3, 14880, Note_on_c, 0, 39, 33
3, 14890, Note_on_c, 0, 44, 0
3, 15120, Note_on_c, 0, 39, 0
3, 15120, Note_on_c, 0, 51, 0
3, 15120, Note_on_c, 0, 39, 33
3, 15120, Note_on_c, 0, 51, 39
3, 15360, Note_on_c, 0, 51, 0
3, 15360, Note_on_c, 0, 39, 0
3, 15360, Note_on_c, 0, 51, 46
3, 15360, Note_on_c, 0, 42, 38
3, 15600, Note_on_c, 0, 42, 0
3, 15600, Note_on_c, 0, 51, 0
3, 15600, Note_on_c, 0, 47, 48
3, 15600, Note_on_c, 0, 51, 57
3, 15840, Note_on_c, 0, 51, 0
3, 15840, Note_on_c, 0, 47, 0
3, 15840, Note_on_c, 0, 51, 63
3, 15840, Note_on_c, 0, 46, 54
3, 16560, Note_on_c, 0, 46, 0
3, 16560, Note_on_c, 0, 51, 0
3, 16560, Note_on_c, 0, 46, 31
3, 16560, Note_on_c, 0, 56, 37
3, 17160, Note_on_c, 0, 56, 0
3, 17160, Note_on_c, 0, 46, 0
3, 17160, Note_on_c, 0, 51, 21
3, 17160, Note_on_c, 0, 55, 26
3, 17280, Note_on_c, 0, 55, 0
3, 17280, Note_on_c, 0, 51, 0
3, 17280, Note_on_c, 0, 55, 26
3, 17280, Note_on_c, 0, 51, 21
3, 18720, Note_on_c, 0, 51, 0
3, 18720, Note_on_c, 0, 55, 0
3, 18720, Note_on_c, 0, 44, 24
3, 18720, Note_on_c, 0, 51, 29
3, 19080, Note_on_c, 0, 51, 0
3, 19080, Note_on_c, 0, 51, 29
3, 19080, Note_on_c, 0, 46, 24
3, 19090, Note_on_c, 0, 44, 0
3, 19200, Note_on_c, 0, 51, 0
3, 19200, Note_on_c, 0, 44, 23
3, 19200, Note_on_c, 0, 51, 28
3, 19210, Note_on_c, 0, 46, 0
3, 19440, Note_on_c, 0, 51, 0
3, 19440, Note_on_c, 0, 44, 0
3, 19440, Note_on_c, 0, 51, 23
3, 19440, Note_on_c, 0, 46, 19
3, 20880, Note_on_c, 0, 46, 0
3, 20880, Note_on_c, 0, 51, 0
3, 20880, Note_on_c, 0, 44, 24
3, 20880, Note_on_c, 0, 51, 29
3, 21240, Note_on_c, 0, 51, 0
3, 21240, Note_on_c, 0, 48, 24
3, 21240, Note_on_c, 0, 51, 29
3, 21250, Note_on_c, 0, 44, 0
3, 21360, Note_on_c, 0, 51, 0
3, 21360, Note_on_c, 0, 51, 29
3, 21360, Note_on_c, 0, 44, 24
3, 21370, Note_on_c, 0, 48, 0
3, 21600, Note_on_c, 0, 44, 0
3, 21600, Note_on_c, 0, 51, 0
3, 21600, Note_on_c, 0, 39, 19
3, 21600, Note_on_c, 0, 51, 23
3, 23040, Note_on_c, 0, 51, 0
3, 23040, Note_on_c, 0, 39, 0
3, 23040, Note_on_c, 0, 51, 28
3, 23040, Note_on_c, 0, 44, 23
3, 23400, Note_on_c, 0, 51, 0
3, 23400, Note_on_c, 0, 46, 24
3, 23400, Note_on_c, 0, 51, 29
3, 23410, Note_on_c, 0, 44, 0
3, 23520, Note_on_c, 0, 51, 0
3, 23520, Note_on_c, 0, 51, 29
3, 23520, Note_on_c, 0, 44, 24
3, 23530, Note_on_c, 0, 46, 0
3, 23760, Note_on_c, 0, 44, 0
3, 23760, Note_on_c, 0, 51, 0
3, 23760, Note_on_c, 0, 44, 21
3, 23760, Note_on_c, 0, 51, 25
3, 24120, Note_on_c, 0, 51, 0
3, 24120, Note_on_c, 0, 49, 28
3, 24120, Note_on_c, 0, 51, 33
3, 24130, Note_on_c, 0, 44, 0
3, 24240, Note_on_c, 0, 51, 0
3, 24240, Note_on_c, 0, 51, 37
3, 24240, Note_on_c, 0, 48, 31
3, 24250, Note_on_c, 0, 49, 0
3, 24480, Note_on_c, 0, 48, 0
3, 24480, Note_on_c, 0, 51, 0
3, 24480, Note_on_c, 0, 48, 35
3, 24480, Note_on_c, 0, 51, 42
3, 25200, Note_on_c, 0, 51, 0
3, 25200, Note_on_c, 0, 48, 0
3, 25200, Note_on_c, 0, 51, 44
3, 25200, Note_on_c, 0, 46, 37
3, 25800, Note_on_c, 0, 46, 0
3, 25800, Note_on_c, 0, 51, 0
3, 25800, Note_on_c, 0, 44, 19
3, 25800, Note_on_c, 0, 51, 23
3, 25920, Note_on_c, 0, 51, 0
3, 25920, Note_on_c, 0, 44, 0
3, 25920, Note_on_c, 0, 51, 22
3, 25920, Note_on_c, 0, 44, 18
3, 27360, Note_on_c, 0, 44, 0
3, 27360, Note_on_c, 0, 51, 0
3, 27360, Note_on_c, 0, 39, 30
3, 27360, Note_on_c, 0, 51, 36
3, 27720, Note_on_c, 0, 51, 0
3, 27720, Note_on_c, 0, 44, 31
3, 27720, Note_on_c, 0, 51, 37
3, 27730, Note_on_c, 0, 39, 0
3, 27840, Note_on_c, 0, 51, 0
3, 27840, Note_on_c, 0, 51, 37
3, 27840, Note_on_c, 0, 39, 31
3, 27850, Note_on_c, 0, 44, 0
3, 28080, Note_on_c, 0, 39, 0
3, 28080, Note_on_c, 0, 51, 0
3, 28080, Note_on_c, 0, 51, 37
3, 28080, Note_on_c, 0, 39, 31
3, 28440, Note_on_c, 0, 51, 0
3, 28440, Note_on_c, 0, 44, 30
3, 28440, Note_on_c, 0, 51, 36
3, 28450, Note_on_c, 0, 39, 0
3, 28560, Note_on_c, 0, 51, 0
3, 28560, Note_on_c, 0, 39, 30
3, 28560, Note_on_c, 0, 51, 36
3, 28570, Note_on_c, 0, 44, 0
3, 28800, Note_on_c, 0, 51, 0
3, 28800, Note_on_c, 0, 39, 0
3, 28800, Note_on_c, 0, 50, 56
3, 28800, Note_on_c, 0, 38, 47
3, 30240, Note_on_c, 0, 38, 0
3, 30240, Note_on_c, 0, 50, 0
3, 30240, Note_on_c, 0, 39, 30
3, 30240, Note_on_c, 0, 51, 36
3, 31200, Note_on_c, 0, 51, 0
3, 31200, Note_on_c, 0, 39, 0
3, 33840, Note_on_c, 0, 47, 50
3, 33840, Note_on_c, 0, 35, 42
3, 34320, Note_on_c, 0, 35, 0
3, 34320, Note_on_c, 0, 47, 0
3, 34320, Note_on_c, 0, 35, 42
3, 34320, Note_on_c, 0, 47, 50
3, 34560, Note_on_c, 0, 47, 0
3, 34560, Note_on_c, 0, 35, 0
3, 34560, Note_on_c, 0, 46, 48
3, 34560, Note_on_c, 0, 34, 40
3, 35040, Note_on_c, 0, 34, 0
3, 35040, Note_on_c, 0, 46, 0
3, 35040, Note_on_c, 0, 33, 51
3, 35040, Note_on_c, 0, 45, 61
3, 35280, Note_on_c, 0, 45, 0
3, 35280, Note_on_c, 0, 33, 0
3, 35280, Note_on_c, 0, 32, 60
3, 35280, Note_on_c, 0, 44, 72
3, 36000, Note_on_c, 0, 44, 0
3, 36000, Note_on_c, 0, 32, 0
3, 36000, Note_on_c, 0, 44, 35
3, 36000, Note_on_c, 0, 56, 42
3, 36600, Note_on_c, 0, 56, 0
3, 36600, Note_on_c, 0, 44, 0
3, 36600, Note_on_c, 0, 49, 30
3, 36600, Note_on_c, 0, 56, 36
3, 36720, Note_on_c, 0, 56, 0
3, 36720, Note_on_c, 0, 49, 0
3, 36720, Note_on_c, 0, 56, 36
3, 36720, Note_on_c, 0, 49, 30
3, 38880, Note_on_c, 0, 49, 0
3, 38880, Note_on_c, 0, 56, 0
3, 38880, Control_c, 0, 91, 127
3, 38880, Note_on_c, 0, 42, 35
3, 38888, Control_c, 0, 64, 127
3, 39000, Note_on_c, 0, 42, 0
3, 39120, Note_on_c, 0, 49, 26
3, 39360, Note_on_c, 0, 49, 0
3, 39360, Note_on_c, 0, 57, 26
3, 39600, Note_on_c, 0, 57, 0
3, 39600, Note_on_c, 0, 42, 35
3, 39720, Note_on_c, 0, 42, 0
3, 39840, Note_on_c, 0, 49, 26
3, 40080, Note_on_c, 0, 49, 0
3, 40080, Note_on_c, 0, 57, 26
3, 40320, Note_on_c, 0, 57, 0
3, 40320, Note_on_c, 0, 42, 35
3, 40440, Note_on_c, 0, 42, 0
3, 40560, Note_on_c, 0, 49, 26
3, 40800, Note_on_c, 0, 49, 0
3, 40800, Note_on_c, 0, 57, 26
3, 41040, Note_on_c, 0, 57, 0
3, 41040, Note_on_c, 0, 42, 36
3, 41068, Control_c, 0, 64, 0
3, 41153, Control_c, 0, 64, 127
3, 41160, Note_on_c, 0, 42, 0
3, 41280, Note_on_c, 0, 50, 26
3, 41520, Note_on_c, 0, 50, 0
3, 41520, Note_on_c, 0, 59, 28
3, 41760, Note_on_c, 0, 59, 0
3, 41760, Note_on_c, 0, 42, 35
3, 41880, Note_on_c, 0, 42, 0
3, 42000, Note_on_c, 0, 50, 26
3, 42240, Note_on_c, 0, 50, 0
3, 42240, Note_on_c, 0, 59, 26
3, 42480, Note_on_c, 0, 59, 0
3, 42480, Note_on_c, 0, 42, 35
3, 42600, Note_on_c, 0, 42, 0
3, 42720, Note_on_c, 0, 50, 27
3, 42960, Note_on_c, 0, 50, 0
3, 42960, Note_on_c, 0, 59, 27
3, 43200, Note_on_c, 0, 59, 0
3, 43200, Note_on_c, 0, 42, 35
3, 43205, Control_c, 0, 64, 0
3, 43313, Control_c, 0, 64, 127
3, 43320, Note_on_c, 0, 42, 0
3, 43440, Note_on_c, 0, 47, 28
3, 43680, Note_on_c, 0, 47, 0
3, 43680, Note_on_c, 0, 56, 28
3, 43920, Note_on_c, 0, 56, 0
3, 43920, Note_on_c, 0, 42, 35
3, 43936, Control_c, 0, 64, 0
3, 44033, Control_c, 0, 64, 126
3, 44040, Note_on_c, 0, 42, 0
3, 44160, Note_on_c, 0, 49, 29
3, 44400, Note_on_c, 0, 49, 0
3, 44400, Note_on_c, 0, 57, 29
3, 44640, Note_on_c, 0, 57, 0
3, 44640, Note_on_c, 0, 42, 35
3, 44647, Control_c, 0, 64, 0
3, 44739, Control_c, 0, 64, 126
3, 44760, Note_on_c, 0, 42, 0
3, 44880, Note_on_c, 0, 50, 27
3, 45120, Note_on_c, 0, 50, 0
3, 45120, Note_on_c, 0, 59, 27
3, 45360, Note_on_c, 0, 59, 0
3, 45360, Note_on_c, 0, 42, 35
3, 45365, Control_c, 0, 64, 0
3, 45466, Control_c, 0, 64, 127
3, 45480, Note_on_c, 0, 42, 0
3, 45600, Note_on_c, 0, 49, 30
3, 45840, Note_on_c, 0, 49, 0
3, 45840, Note_on_c, 0, 57, 30
3, 46080, Note_on_c, 0, 57, 0
3, 46080, Note_on_c, 0, 42, 35
3, 46200, Note_on_c, 0, 42, 0
3, 46320, Note_on_c, 0, 49, 27
3, 46560, Note_on_c, 0, 49, 0
3, 46560, Note_on_c, 0, 57, 28
3, 46800, Note_on_c, 0, 57, 0
3, 46800, Note_on_c, 0, 42, 35
3, 46920, Note_on_c, 0, 42, 0
3, 47040, Note_on_c, 0, 49, 29
3, 47280, Note_on_c, 0, 49, 0
3, 47280, Note_on_c, 0, 54, 29
3, 47520, Note_on_c, 0, 54, 0
3, 47520, Note_on_c, 0, 49, 35
3, 47525, Control_c, 0, 64, 0
3, 47737, Control_c, 0, 64, 127
3, 47760, Note_on_c, 0, 49, 0
3, 47760, Note_on_c, 0, 53, 35
3, 48000, Note_on_c, 0, 53, 0
3, 48000, Note_on_c, 0, 56, 35
3, 48240, Note_on_c, 0, 56, 0
3, 48240, Note_on_c, 0, 49, 35
3, 48480, Note_on_c, 0, 49, 0
3, 48480, Note_on_c, 0, 53, 35
3, 48720, Note_on_c, 0, 53, 0
3, 48720, Note_on_c, 0, 56, 35
3, 48960, Note_on_c, 0, 56, 0
3, 48960, Note_on_c, 0, 45, 35
3, 48971, Control_c, 0, 64, 0
3, 49063, Control_c, 0, 64, 127
3, 49200, Note_on_c, 0, 45, 0
3, 49200, Note_on_c, 0, 49, 35
3, 49440, Note_on_c, 0, 49, 0
3, 49440, Note_on_c, 0, 54, 35
3, 49680, Note_on_c, 0, 54, 0
3, 49680, Note_on_c, 0, 49, 35
3, 49683, Control_c, 0, 64, 0
3, 49840, Control_c, 0, 64, 126
3, 49920, Note_on_c, 0, 49, 0
3, 49920, Note_on_c, 0, 53, 35
3, 50160, Note_on_c, 0, 53, 0
3, 50160, Note_on_c, 0, 56, 35
3, 50400, Note_on_c, 0, 56, 0
3, 50400, Note_on_c, 0, 50, 35
3, 50416, Control_c, 0, 64, 1
3, 50640, Note_on_c, 0, 56, 35
3, 50880, Note_on_c, 0, 56, 0
3, 50880, Note_on_c, 0, 54, 35
3, 51120, Note_on_c, 0, 54, 0
3, 51120, Note_on_c, 0, 53, 33
3, 51360, Note_on_c, 0, 53, 0
3, 51360, Note_on_c, 0, 54, 30
3, 51600, Note_on_c, 0, 54, 0
3, 51600, Note_on_c, 0, 50, 0
3, 51600, Note_on_c, 0, 56, 27
3, 51600, Note_on_c, 0, 49, 27
3, 51840, Note_on_c, 0, 49, 0
3, 51840, Note_on_c, 0, 56, 0
3, 51840, Control_c, 0, 91, 127
3, 51840, Note_on_c, 0, 42, 35
3, 51925, Control_c, 0, 64, 127
3, 52080, Note_on_c, 0, 42, 0
3, 52080, Note_on_c, 0, 49, 30
3, 52320, Note_on_c, 0, 49, 0
3, 52320, Note_on_c, 0, 57, 31
3, 52560, Note_on_c, 0, 57, 0
3, 52560, Note_on_c, 0, 42, 37
3, 52573, Control_c, 0, 64, 0
3, 52786, Control_c, 0, 64, 125
3, 52800, Note_on_c, 0, 42, 0
3, 52800, Note_on_c, 0, 47, 33
3, 53040, Note_on_c, 0, 47, 0
3, 53040, Note_on_c, 0, 56, 33
3, 53280, Note_on_c, 0, 56, 0
3, 53280, Note_on_c, 0, 42, 42
3, 53292, Control_c, 0, 64, 0
3, 53436, Control_c, 0, 64, 126
3, 53520, Note_on_c, 0, 42, 0
3, 53520, Note_on_c, 0, 45, 37
3, 53760, Note_on_c, 0, 45, 0
3, 53760, Note_on_c, 0, 54, 37
3, 54000, Note_on_c, 0, 54, 0
3, 54000, Note_on_c, 0, 40, 45
3, 54007, Control_c, 0, 64, 0
3, 54127, Control_c, 0, 64, 127
3, 54240, Note_on_c, 0, 40, 0
3, 54240, Note_on_c, 0, 47, 40
3, 54480, Note_on_c, 0, 47, 0
3, 54480, Note_on_c, 0, 56, 40
3, 54720, Note_on_c, 0, 56, 0
3, 54720, Note_on_c, 0, 40, 39
3, 54960, Note_on_c, 0, 40, 0
3, 54960, Note_on_c, 0, 47, 36
3, 55200, Note_on_c, 0, 47, 0
3, 55200, Note_on_c, 0, 56, 36
3, 55440, Note_on_c, 0, 56, 0
3, 55440, Note_on_c, 0, 40, 34
3, 55680, Note_on_c, 0, 40, 0
3, 55680, Note_on_c, 0, 47, 34
3, 55920, Note_on_c, 0, 47, 0
3, 55920, Note_on_c, 0, 56, 34
3, 56160, Note_on_c, 0, 56, 0
3, 56160, Note_on_c, 0, 40, 45
3, 56164, Control_c, 0, 64, 0
3, 56344, Control_c, 0, 64, 126
3, 56400, Note_on_c, 0, 40, 0
3, 56400, Note_on_c, 0, 47, 39
3, 56640, Note_on_c, 0, 47, 0
3, 56640, Note_on_c, 0, 56, 40
3, 56880, Note_on_c, 0, 56, 0
3, 56880, Note_on_c, 0, 40, 40
3, 56893, Control_c, 0, 64, 0
3, 57064, Control_c, 0, 64, 126
3, 57120, Note_on_c, 0, 40, 0
3, 57120, Note_on_c, 0, 49, 38
3, 57360, Note_on_c, 0, 49, 0
3, 57360, Note_on_c, 0, 57, 36
3, 57600, Note_on_c, 0, 57, 0
3, 57600, Note_on_c, 0, 40, 35
3, 57607, Control_c, 0, 64, 0
3, 57741, Control_c, 0, 64, 126
3, 57840, Note_on_c, 0, 40, 0
3, 57840, Note_on_c, 0, 50, 33
3, 58080, Note_on_c, 0, 50, 0
3, 58080, Note_on_c, 0, 56, 33
3, 58320, Note_on_c, 0, 56, 0
3, 58320, Note_on_c, 0, 45, 38
3, 58325, Control_c, 0, 64, 0
3, 58504, Control_c, 0, 64, 127
3, 58560, Note_on_c, 0, 45, 0
3, 58560, Note_on_c, 0, 49, 35
3, 58800, Note_on_c, 0, 49, 0
3, 58800, Note_on_c, 0, 57, 37
3, 59040, Note_on_c, 0, 57, 0
3, 59040, Note_on_c, 0, 45, 39
3, 59055, Control_c, 0, 64, 0
3, 59210, Control_c, 0, 64, 127
3, 59280, Note_on_c, 0, 45, 0
3, 59280, Note_on_c, 0, 49, 42
3, 59520, Note_on_c, 0, 49, 0
3, 59520, Note_on_c, 0, 56, 46
3, 59760, Note_on_c, 0, 56, 0
3, 59760, Note_on_c, 0, 45, 47
3, 59772, Control_c, 0, 64, 1
3, 59930, Control_c, 0, 64, 125
3, 60000, Note_on_c, 0, 45, 0
3, 60000, Note_on_c, 0, 49, 45
3, 60240, Note_on_c, 0, 49, 0
3, 60240, Note_on_c, 0, 54, 42
3, 60480, Note_on_c, 0, 54, 0
3, 60480, Note_on_c, 0, 47, 44
3, 60484, Control_c, 0, 64, 0
3, 60697, Control_c, 0, 64, 127
3, 60720, Note_on_c, 0, 47, 0
3, 60720, Note_on_c, 0, 50, 40
3, 60960, Note_on_c, 0, 50, 0
3, 60960, Note_on_c, 0, 54, 40
3, 61200, Note_on_c, 0, 54, 0
3, 61200, Note_on_c, 0, 50, 44
3, 61440, Note_on_c, 0, 50, 0
3, 61440, Note_on_c, 0, 54, 40
3, 61680, Note_on_c, 0, 54, 0
3, 61680, Note_on_c, 0, 59, 40
3, 61920, Note_on_c, 0, 59, 0
3, 61920, Note_on_c, 0, 49, 39
3, 61933, Control_c, 0, 64, 0
3, 62160, Note_on_c, 0, 49, 0
3, 62160, Note_on_c, 0, 53, 38
3, 62400, Note_on_c, 0, 53, 0
3, 62400, Note_on_c, 0, 47, 30
3, 62640, Note_on_c, 0, 47, 0
3, 62640, Note_on_c, 0, 45, 42
3, 62711, Control_c, 0, 64, 126
3, 62880, Note_on_c, 0, 45, 0
3, 62880, Note_on_c, 0, 49, 39
3, 63120, Note_on_c, 0, 49, 0
3, 63120, Note_on_c, 0, 54, 39
3, 63360, Note_on_c, 0, 54, 0
3, 63360, Note_on_c, 0, 44, 42
3, 63376, Control_c, 0, 64, 0
3, 63480, Control_c, 0, 64, 127
3, 63600, Note_on_c, 0, 44, 0
3, 63600, Note_on_c, 0, 47, 39
3, 63840, Note_on_c, 0, 47, 0
3, 63840, Note_on_c, 0, 54, 39
3, 64080, Note_on_c, 0, 54, 0
3, 64080, Note_on_c, 0, 45, 52
3, 64087, Control_c, 0, 64, 0
3, 64186, Control_c, 0, 64, 127
3, 64320, Note_on_c, 0, 45, 0
3, 64320, Note_on_c, 0, 49, 48
3, 64560, Note_on_c, 0, 49, 0
3, 64560, Note_on_c, 0, 54, 48
3, 64800, Note_on_c, 0, 54, 0
3, 64800, Note_on_c, 0, 47, 52
3, 64805, Control_c, 0, 64, 0
3, 64926, Control_c, 0, 64, 127
3, 65040, Note_on_c, 0, 47, 0
3, 65040, Note_on_c, 0, 50, 48
3, 65280, Note_on_c, 0, 50, 0
3, 65280, Note_on_c, 0, 54, 49
3, 65520, Note_on_c, 0, 54, 0
3, 65520, Note_on_c, 0, 50, 52
3, 65760, Note_on_c, 0, 50, 0
3, 65760, Note_on_c, 0, 54, 49
3, 66000, Note_on_c, 0, 54, 0
3, 66000, Note_on_c, 0, 59, 44
3, 66240, Note_on_c, 0, 59, 0
3, 66240, Note_on_c, 0, 49, 48
3, 66243, Control_c, 0, 64, 0
3, 66480, Note_on_c, 0, 49, 0
3, 66480, Note_on_c, 0, 53, 42
3, 66720, Note_on_c, 0, 53, 0
3, 66720, Note_on_c, 0, 59, 39
3, 66960, Note_on_c, 0, 59, 0
3, 66960, Note_on_c, 0, 54, 37
3, 66960, Note_on_c, 0, 57, 37
3, 67200, Note_on_c, 0, 57, 0
3, 67200, Note_on_c, 0, 54, 0
3, 67200, Note_on_c, 0, 42, 38
3, 67440, Note_on_c, 0, 42, 0
3, 67440, Note_on_c, 0, 45, 39
3, 67680, Note_on_c, 0, 45, 0
3, 67680, Note_on_c, 0, 49, 41
3, 67920, Note_on_c, 0, 49, 0
3, 67920, Note_on_c, 0, 54, 44
3, 68160, Note_on_c, 0, 54, 0
3, 68160, Note_on_c, 0, 56, 45
3, 68400, Note_on_c, 0, 56, 0
3, 68400, Note_on_c, 0, 57, 47
3, 68640, Note_on_c, 0, 57, 0
3, 68640, Note_on_c, 0, 61, 48
3, 68880, Note_on_c, 0, 61, 0
3, 68880, Note_on_c, 0, 54, 50
3, 69120, Note_on_c, 0, 54, 0
3, 69120, Note_on_c, 0, 53, 52
3, 69200, Control_c, 0, 64, 127
3, 69360, Note_on_c, 0, 53, 0
3, 69360, Note_on_c, 0, 56, 49
3, 69600, Note_on_c, 0, 56, 0
3, 69600, Note_on_c, 0, 61, 49
3, 69840, Note_on_c, 0, 61, 0
3, 69840, Note_on_c, 0, 53, 52
3, 70080, Note_on_c, 0, 53, 0
3, 70080, Note_on_c, 0, 56, 46
3, 70320, Note_on_c, 0, 56, 0
3, 70320, Note_on_c, 0, 61, 46
3, 70560, Note_on_c, 0, 61, 0
3, 70560, Note_on_c, 0, 53, 52
3, 70800, Note_on_c, 0, 53, 0
3, 70800, Note_on_c, 0, 56, 47
3, 71040, Note_on_c, 0, 56, 0
3, 71040, Note_on_c, 0, 61, 47
3, 71280, Note_on_c, 0, 61, 0
3, 71280, Note_on_c, 0, 52, 45
3, 71287, Control_c, 0, 64, 0
3, 71386, Control_c, 0, 64, 126
3, 71520, Note_on_c, 0, 52, 0
3, 71520, Note_on_c, 0, 56, 41
3, 71760, Note_on_c, 0, 56, 0
3, 71760, Note_on_c, 0, 61, 41
3, 72000, Note_on_c, 0, 61, 0
3, 72000, Note_on_c, 0, 52, 45
3, 72240, Note_on_c, 0, 52, 0
3, 72240, Note_on_c, 0, 56, 41
3, 72480, Note_on_c, 0, 56, 0
3, 72480, Note_on_c, 0, 61, 41
3, 72720, Note_on_c, 0, 61, 0
3, 72720, Note_on_c, 0, 52, 45
3, 72960, Note_on_c, 0, 52, 0
3, 72960, Note_on_c, 0, 56, 46
3, 73200, Note_on_c, 0, 56, 0
3, 73200, Note_on_c, 0, 61, 52
3, 73440, Note_on_c, 0, 61, 0
3, 73440, Note_on_c, 0, 51, 52
3, 73443, Control_c, 0, 64, 0
3, 73646, Control_c, 0, 64, 127
3, 73680, Note_on_c, 0, 51, 0
3, 73680, Note_on_c, 0, 55, 52
3, 73920, Note_on_c, 0, 55, 0
3, 73920, Note_on_c, 0, 61, 50
3, 74160, Note_on_c, 0, 61, 0
3, 74160, Note_on_c, 0, 51, 50
3, 74400, Note_on_c, 0, 51, 0
3, 74400, Note_on_c, 0, 55, 49
3, 74640, Note_on_c, 0, 55, 0
3, 74640, Note_on_c, 0, 61, 48
3, 74880, Note_on_c, 0, 61, 0
3, 74880, Note_on_c, 0, 51, 48
3, 75120, Note_on_c, 0, 51, 0
3, 75120, Note_on_c, 0, 55, 48
3, 75360, Note_on_c, 0, 55, 0
3, 75360, Note_on_c, 0, 61, 47
3, 75600, Note_on_c, 0, 61, 0
3, 75600, Note_on_c, 0, 51, 45
3, 75600, Note_on_c, 0, 55, 45
3, 75603, Control_c, 0, 64, 0
3, 75840, Note_on_c, 0, 58, 40
3, 76080, Note_on_c, 0, 58, 0
3, 76080, Note_on_c, 0, 60, 36
3, 76320, Note_on_c, 0, 60, 0
3, 76320, Note_on_c, 0, 61, 31
3, 77040, Note_on_c, 0, 61, 0
3, 77040, Note_on_c, 0, 55, 0
3, 77040, Note_on_c, 0, 51, 0
3, 77040, Note_on_c, 0, 44, 30
3, 77040, Note_on_c, 0, 51, 36
3, 77040, Control_c, 0, 91, 127
3, 77400, Note_on_c, 0, 51, 0
3, 77400, Note_on_c, 0, 51, 36
3, 77400, Note_on_c, 0, 46, 30
3, 77410, Note_on_c, 0, 44, 0
3, 77520, Note_on_c, 0, 51, 0
3, 77520, Note_on_c, 0, 44, 30
3, 77520, Note_on_c, 0, 51, 36
3, 77530, Note_on_c, 0, 46, 0
3, 77760, Note_on_c, 0, 51, 0
3, 77760, Note_on_c, 0, 44, 0
3, 77760, Note_on_c, 0, 51, 27
3, 77760, Note_on_c, 0, 46, 23
3, 79200, Note_on_c, 0, 46, 0
3, 79200, Note_on_c, 0, 51, 0
3, 79200, Note_on_c, 0, 44, 30
3, 79200, Note_on_c, 0, 51, 36
3, 79560, Note_on_c, 0, 51, 0
3, 79560, Note_on_c, 0, 51, 36
3, 79560, Note_on_c, 0, 46, 30
3, 79570, Note_on_c, 0, 44, 0
3, 79680, Note_on_c, 0, 51, 0
3, 79680, Note_on_c, 0, 44, 30
3, 79680, Note_on_c, 0, 51, 36
3, 79690, Note_on_c, 0, 46, 0
3, 79920, Note_on_c, 0, 51, 0
3, 79920, Note_on_c, 0, 44, 0
3, 79920, Note_on_c, 0, 39, 22
3, 79920, Note_on_c, 0, 51, 27
3, 81360, Note_on_c, 0, 51, 0
3, 81360, Note_on_c, 0, 39, 0
3, 81360, Note_on_c, 0, 51, 39
3, 81360, Note_on_c, 0, 44, 33
3, 81720, Note_on_c, 0, 51, 0
3, 81720, Note_on_c, 0, 46, 33
3, 81720, Note_on_c, 0, 51, 39
3, 81730, Note_on_c, 0, 44, 0
3, 81840, Note_on_c, 0, 51, 0
3, 81840, Note_on_c, 0, 51, 39
3, 81840, Note_on_c, 0, 44, 33
3, 81850, Note_on_c, 0, 46, 0
3, 82080, Note_on_c, 0, 44, 0
3, 82080, Note_on_c, 0, 51, 0
3, 82080, Note_on_c, 0, 44, 29
3, 82080, Note_on_c, 0, 51, 35
3, 82440, Note_on_c, 0, 51, 0
3, 82440, Note_on_c, 0, 51, 44
3, 82440, Note_on_c, 0, 49, 37
3, 82450, Note_on_c, 0, 44, 0
3, 82560, Note_on_c, 0, 51, 0
3, 82560, Note_on_c, 0, 48, 39
3, 82560, Note_on_c, 0, 51, 48
3, 82570, Note_on_c, 0, 49, 0
3, 82800, Note_on_c, 0, 51, 0
3, 82800, Note_on_c, 0, 48, 0
3, 82800, Note_on_c, 0, 48, 41
3, 82800, Note_on_c, 0, 51, 49
3, 83520, Note_on_c, 0, 51, 0
3, 83520, Note_on_c, 0, 48, 0
3, 83520, Note_on_c, 0, 51, 33
3, 83520, Note_on_c, 0, 46, 27
3, 84120, Note_on_c, 0, 46, 0
3, 84120, Note_on_c, 0, 51, 0
3, 84120, Note_on_c, 0, 44, 21
3, 84120, Note_on_c, 0, 51, 26
3, 84240, Note_on_c, 0, 51, 0
3, 84240, Note_on_c, 0, 44, 0
3, 84240, Note_on_c, 0, 51, 26
3, 84240, Note_on_c, 0, 44, 21
3, 85680, Note_on_c, 0, 44, 0
3, 85680, Note_on_c, 0, 51, 0
3, 85680, Note_on_c, 0, 39, 30
3, 85680, Note_on_c, 0, 51, 36
3, 86040, Note_on_c, 0, 51, 0
3, 86040, Note_on_c, 0, 51, 37
3, 86040, Note_on_c, 0, 44, 31
3, 86050, Note_on_c, 0, 39, 0
3, 86160, Note_on_c, 0, 51, 0
3, 86160, Note_on_c, 0, 39, 31
3, 86160, Note_on_c, 0, 51, 37
3, 86170, Note_on_c, 0, 44, 0
3, 86400, Note_on_c, 0, 51, 0
3, 86400, Note_on_c, 0, 39, 0
3, 86400, Note_on_c, 0, 51, 37
3, 86400, Note_on_c, 0, 39, 31
3, 86760, Note_on_c, 0, 51, 0
3, 86760, Note_on_c, 0, 44, 30
3, 86760, Note_on_c, 0, 51, 36
3, 86770, Note_on_c, 0, 39, 0
3, 86880, Note_on_c, 0, 51, 0
3, 86880, Note_on_c, 0, 51, 36
3, 86880, Note_on_c, 0, 39, 30
3, 86890, Note_on_c, 0, 44, 0
3, 87120, Note_on_c, 0, 39, 0
3, 87120, Note_on_c, 0, 51, 0
3, 87120, Note_on_c, 0, 38, 49
3, 87120, Note_on_c, 0, 50, 58
3, 88560, Note_on_c, 0, 50, 0
3, 88560, Note_on_c, 0, 38, 0
3, 88560, Note_on_c, 0, 39, 24
3, 88560, Note_on_c, 0, 51, 29
3, 89520, Note_on_c, 0, 51, 0
3, 89520, Note_on_c, 0, 39, 0
3, 90480, Note_on_c, 0, 51, 45
3, 90720, Note_on_c, 0, 51, 0
3, 90720, Note_on_c, 0, 56, 44
3, 91080, Note_on_c, 0, 58, 44
3, 91090, Note_on_c, 0, 56, 0
3, 91200, Note_on_c, 0, 58, 0
3, 91200, Note_on_c, 0, 56, 44
3, 91440, Note_on_c, 0, 56, 0
3, 91440, Note_on_c, 0, 59, 44
3, 91440, Note_on_c, 0, 57, 44
3, 91680, Note_on_c, 0, 57, 0
3, 91680, Note_on_c, 0, 56, 52
3, 91920, Note_on_c, 0, 56, 0
3, 91920, Note_on_c, 0, 59, 0
3, 91920, Note_on_c, 0, 54, 60
3, 91920, Note_on_c, 0, 63, 60
3, 92160, Note_on_c, 0, 63, 0
3, 92160, Note_on_c, 0, 54, 0
3, 92160, Note_on_c, 0, 64, 64
3, 92160, Note_on_c, 0, 52, 64
3, 92400, Note_on_c, 0, 52, 0
3, 92400, Note_on_c, 0, 56, 58
3, 92640, Note_on_c, 0, 56, 0
3, 92640, Note_on_c, 0, 64, 0
3, 92640, Note_on_c, 0, 63, 48
3, 92640, Note_on_c, 0, 59, 48
3, 92880, Note_on_c, 0, 59, 0
3, 92880, Note_on_c, 0, 63, 0
3, 92880, Note_on_c, 0, 63, 41
3, 92880, Note_on_c, 0, 59, 34
3, 92880, Note_on_c, 0, 54, 34
3, 93600, Note_on_c, 0, 59, 0
3, 93600, Note_on_c, 0, 63, 0
3, 93600, Note_on_c, 0, 58, 29
3, 93600, Note_on_c, 0, 61, 29
3, 93840, Note_on_c, 0, 61, 0
3, 93840, Note_on_c, 0, 58, 0
3, 93840, Note_on_c, 0, 54, 0
3, 94320, Note_on_c, 0, 64, 29
3, 94320, Note_on_c, 0, 52, 29
3, 94560, Note_on_c, 0, 52, 0
3, 94560, Note_on_c, 0, 56, 29
3, 94800, Note_on_c, 0, 56, 0
3, 94800, Note_on_c, 0, 64, 0
3, 94800, Note_on_c, 0, 59, 30
3, 94800, Note_on_c, 0, 63, 30
3, 95040, Note_on_c, 0, 63, 0
3, 95040, Note_on_c, 0, 59, 0
3, 95040, Note_on_c, 0, 54, 25
3, 95040, Note_on_c, 0, 59, 25
3, 95040, Note_on_c, 0, 63, 30
3, 95760, Note_on_c, 0, 63, 0
3, 95760, Note_on_c, 0, 59, 0
3, 95760, Note_on_c, 0, 58, 24
3, 95760, Note_on_c, 0, 61, 24
3, 96000, Note_on_c, 0, 61, 0
3, 96000, Note_on_c, 0, 58, 0
3, 96000, Note_on_c, 0, 54, 0
3, 96480, Note_on_c, 0, 51, 44
3, 96480, Note_on_c, 0, 43, 44
3, 97200, Note_on_c, 0, 43, 0
3, 97200, Note_on_c, 0, 51, 0
3, 97200, Note_on_c, 0, 44, 44
3, 97200, Note_on_c, 0, 51, 44
3, 98400, Note_on_c, 0, 44, 0
3, 98400, Note_on_c, 0, 46, 57
3, 98640, Note_on_c, 0, 46, 0
3, 98640, Note_on_c, 0, 51, 0
3, 98640, Note_on_c, 0, 48, 66
3, 98640, Note_on_c, 0, 51, 66
3, 98880, Note_on_c, 0, 48, 0
3, 98880, Note_on_c, 0, 46, 56
3, 99120, Note_on_c, 0, 46, 0
3, 99120, Note_on_c, 0, 44, 49
3, 99360, Note_on_c, 0, 44, 0
3, 99360, Note_on_c, 0, 51, 0
3, 99360, Note_on_c, 0, 49, 46
3, 99840, Note_on_c, 0, 58, 37
3, 100080, Note_on_c, 0, 58, 0
3, 100080, Note_on_c, 0, 49, 0
3, 100080, Note_on_c, 0, 51, 39
3, 100080, Note_on_c, 0, 60, 39
3, 100680, Note_on_c, 0, 60, 0
3, 100680, Note_on_c, 0, 51, 0
3, 100680, Note_on_c, 0, 58, 33
3, 100680, Note_on_c, 0, 51, 33
3, 100800, Note_on_c, 0, 51, 0
3, 100800, Note_on_c, 0, 58, 0
3, 100800, Note_on_c, 0, 58, 34
3, 100800, Note_on_c, 0, 51, 34
3, 101400, Note_on_c, 0, 51, 0
3, 101400, Note_on_c, 0, 58, 0
3, 101400, Note_on_c, 0, 44, 29
3, 101400, Note_on_c, 0, 56, 29
3, 101520, Note_on_c, 0, 56, 0
3, 101520, Note_on_c, 0, 44, 0
3, 101520, Note_on_c, 0, 56, 29
3, 101520, Note_on_c, 0, 44, 29
3, 102000, Note_on_c, 0, 44, 0
3, 102000, Note_on_c, 0, 56, 0
3, 102112, Control_c, 0, 64, 126
3, 102120, Note_on_c, 0, 51, 24
3, 102240, Note_on_c, 0, 51, 0
3, 102240, Note_on_c, 0, 51, 24
3, 102840, Note_on_c, 0, 44, 29
3, 102854, Control_c, 0, 64, 0
3, 102960, Note_on_c, 0, 44, 0
3, 102960, Note_on_c, 0, 44, 29
3, 103320, Note_on_c, 0, 46, 29
3, 103330, Note_on_c, 0, 44, 0
3, 103440, Note_on_c, 0, 44, 29
3, 103450, Note_on_c, 0, 46, 0
3, 103680, Note_on_c, 0, 44, 0
3, 103680, Note_on_c, 0, 46, 25
3, 104280, Note_on_c, 0, 51, 0
3, 104280, Control_c, 0, 64, 127
3, 104280, Note_on_c, 0, 51, 25
3, 104400, Note_on_c, 0, 51, 0
3, 104400, Note_on_c, 0, 51, 25
3, 104986, Control_c, 0, 64, 0
3, 105000, Note_on_c, 0, 46, 0
3, 105000, Note_on_c, 0, 39, 29
3, 105120, Note_on_c, 0, 39, 0
3, 105120, Note_on_c, 0, 39, 29
3, 105480, Note_on_c, 0, 44, 29
3, 105490, Note_on_c, 0, 39, 0
3, 105600, Note_on_c, 0, 39, 29
3, 105610, Note_on_c, 0, 44, 0
3, 105840, Note_on_c, 0, 39, 0
3, 105840, Note_on_c, 0, 44, 24
3, 106320, Note_on_c, 0, 51, 0
3, 106440, Note_on_c, 0, 51, 25
3, 106448, Control_c, 0, 64, 127
3, 106560, Note_on_c, 0, 51, 0
3, 106560, Note_on_c, 0, 51, 25
3, 107139, Control_c, 0, 64, 0
3, 107160, Note_on_c, 0, 44, 0
3, 107160, Note_on_c, 0, 48, 29
3, 107280, Note_on_c, 0, 48, 0
3, 107280, Note_on_c, 0, 48, 29
3, 107640, Note_on_c, 0, 49, 28
3, 107650, Note_on_c, 0, 48, 0
3, 107760, Note_on_c, 0, 48, 30
3, 107770, Note_on_c, 0, 49, 0
3, 108000, Note_on_c, 0, 48, 0
3, 108000, Note_on_c, 0, 49, 36
3, 108360, Note_on_c, 0, 48, 37
3, 108370, Note_on_c, 0, 49, 0
3, 108480, Note_on_c, 0, 48, 0
3, 108480, Note_on_c, 0, 48, 37
3, 108720, Note_on_c, 0, 48, 0
3, 108720, Note_on_c, 0, 51, 0
3, 108720, Note_on_c, 0, 51, 37
3, 109440, Note_on_c, 0, 51, 0
3, 109440, Note_on_c, 0, 51, 37
3, 109440, Note_on_c, 0, 39, 37
3, 110040, Note_on_c, 0, 39, 0
3, 110040, Note_on_c, 0, 51, 0
3, 110040, Note_on_c, 0, 44, 29
3, 110040, Note_on_c, 0, 51, 29
3, 110160, Note_on_c, 0, 51, 0
3, 110160, Note_on_c, 0, 44, 0
3, 110160, Note_on_c, 0, 44, 29
3, 110160, Note_on_c, 0, 51, 29
3, 110767, Control_c, 0, 64, 127
3, 110880, Note_on_c, 0, 51, 0
3, 110880, Note_on_c, 0, 44, 0
3, 111466, Control_c, 0, 64, 0
3, 111480, Note_on_c, 0, 60, 29
3, 111480, Note_on_c, 0, 51, 29
3, 111600, Note_on_c, 0, 51, 0
3, 111600, Note_on_c, 0, 60, 0
3, 111600, Note_on_c, 0, 51, 37
3, 111600, Note_on_c, 0, 60, 29
3, 111960, Note_on_c, 0, 51, 0
3, 111960, Note_on_c, 0, 61, 29
3, 111960, Note_on_c, 0, 51, 29
3, 111970, Note_on_c, 0, 60, 0
3, 112080, Note_on_c, 0, 51, 0
3, 112080, Note_on_c, 0, 51, 29
3, 112080, Note_on_c, 0, 60, 29
3, 112090, Note_on_c, 0, 61, 0
3, 112320, Note_on_c, 0, 60, 0
3, 112320, Note_on_c, 0, 51, 0
3, 112320, Note_on_c, 0, 61, 25
3, 112320, Note_on_c, 0, 51, 25
3, 112934, Control_c, 0, 64, 127
3, 113626, Control_c, 0, 64, 0
3, 113640, Note_on_c, 0, 51, 0
3, 113640, Note_on_c, 0, 61, 0
3, 113640, Note_on_c, 0, 51, 29
3, 113640, Note_on_c, 0, 58, 29
3, 113760, Note_on_c, 0, 58, 0
3, 113760, Note_on_c, 0, 51, 0
3, 113760, Note_on_c, 0, 58, 29
3, 113760, Note_on_c, 0, 51, 29
3, 114120, Note_on_c, 0, 51, 0
3, 114120, Note_on_c, 0, 60, 29
3, 114120, Note_on_c, 0, 51, 29
3, 114130, Note_on_c, 0, 58, 0
3, 114240, Note_on_c, 0, 51, 0
3, 114240, Note_on_c, 0, 61, 29
3, 114240, Note_on_c, 0, 51, 29
3, 114250, Note_on_c, 0, 60, 0
3, 114480, Note_on_c, 0, 51, 0
3, 114480, Note_on_c, 0, 61, 0
3, 114480, Note_on_c, 0, 51, 24
3, 114480, Note_on_c, 0, 60, 24
3, 115087, Control_c, 0, 64, 127
3, 115765, Control_c, 0, 64, 0
3, 115800, Note_on_c, 0, 60, 0
3, 115800, Note_on_c, 0, 51, 0
3, 115800, Note_on_c, 0, 51, 29
3, 115800, Note_on_c, 0, 60, 29
3, 115920, Note_on_c, 0, 60, 0
3, 115920, Note_on_c, 0, 51, 0
3, 115920, Note_on_c, 0, 51, 29
3, 115920, Note_on_c, 0, 60, 29
3, 116280, Note_on_c, 0, 51, 0
3, 116280, Note_on_c, 0, 51, 29
3, 116280, Note_on_c, 0, 61, 28
3, 116290, Note_on_c, 0, 60, 0
3, 116400, Note_on_c, 0, 51, 0
3, 116400, Note_on_c, 0, 60, 30
3, 116400, Note_on_c, 0, 51, 30
3, 116410, Note_on_c, 0, 61, 0
3, 116640, Note_on_c, 0, 51, 0
3, 116640, Note_on_c, 0, 60, 0
3, 116640, Note_on_c, 0, 51, 36
3, 116640, Note_on_c, 0, 61, 36
3, 117000, Note_on_c, 0, 51, 0
3, 117000, Note_on_c, 0, 60, 37
3, 117000, Note_on_c, 0, 51, 37
3, 117010, Note_on_c, 0, 61, 0
3, 117120, Note_on_c, 0, 51, 0
3, 117120, Note_on_c, 0, 60, 0
3, 117120, Note_on_c, 0, 51, 37
3, 117120, Note_on_c, 0, 60, 37
3, 117360, Note_on_c, 0, 60, 0
3, 117360, Note_on_c, 0, 51, 0
3, 117360, Note_on_c, 0, 63, 41
3, 117360, Note_on_c, 0, 51, 41
3, 118080, Note_on_c, 0, 51, 0
3, 118080, Note_on_c, 0, 63, 0
3, 118080, Note_on_c, 0, 63, 42
3, 118080, Note_on_c, 0, 51, 42
3, 118080, Note_on_c, 0, 61, 42
3, 118680, Note_on_c, 0, 61, 0
3, 118680, Note_on_c, 0, 51, 0
3, 118680, Note_on_c, 0, 63, 0
3, 118680, Note_on_c, 0, 56, 34
3, 118680, Note_on_c, 0, 63, 41
3, 118680, Note_on_c, 0, 60, 34
3, 118800, Note_on_c, 0, 60, 0
3, 118800, Note_on_c, 0, 63, 0
3, 118800, Note_on_c, 0, 56, 0
3, 118800, Note_on_c, 0, 56, 34
3, 118800, Note_on_c, 0, 63, 41
3, 118800, Note_on_c, 0, 60, 34
3, 120840, Note_on_c, 0, 60, 0
3, 120840, Note_on_c, 0, 63, 0
3, 120840, Note_on_c, 0, 56, 0
3, 120840, Note_on_c, 0, 42, 73
3, 120960, Note_on_c, 0, 42, 0
3, 120960, Note_on_c, 0, 42, 79
3, 120960, Control_c, 0, 91, 127
3, 120964, Control_c, 0, 64, 126
3, 121080, Note_on_c, 0, 42, 0
3, 121200, Note_on_c, 0, 49, 70
3, 121440, Note_on_c, 0, 49, 0
3, 121440, Note_on_c, 0, 57, 67
3, 121680, Note_on_c, 0, 57, 0
3, 121680, Note_on_c, 0, 42, 79
3, 121800, Note_on_c, 0, 42, 0
3, 121920, Note_on_c, 0, 49, 69
3, 122160, Note_on_c, 0, 49, 0
3, 122160, Note_on_c, 0, 57, 66
3, 122400, Note_on_c, 0, 57, 0
3, 122400, Note_on_c, 0, 42, 79
3, 122520, Note_on_c, 0, 42, 0
3, 122640, Note_on_c, 0, 49, 70
3, 122880, Note_on_c, 0, 49, 0
3, 122880, Note_on_c, 0, 54, 66
3, 123120, Note_on_c, 0, 54, 0
3, 123120, Control_c, 0, 64, 0
3, 123120, Note_on_c, 0, 42, 79
3, 123233, Control_c, 0, 64, 127
3, 123240, Note_on_c, 0, 42, 0
3, 123360, Note_on_c, 0, 50, 71
3, 123600, Note_on_c, 0, 50, 0
3, 123600, Note_on_c, 0, 59, 68
3, 123840, Note_on_c, 0, 59, 0
3, 123840, Note_on_c, 0, 42, 79
3, 123960, Note_on_c, 0, 42, 0
3, 124080, Note_on_c, 0, 50, 71
3, 124320, Note_on_c, 0, 50, 0
3, 124320, Note_on_c, 0, 59, 68
3, 124560, Note_on_c, 0, 59, 0
3, 124560, Note_on_c, 0, 42, 79
3, 124680, Note_on_c, 0, 42, 0
3, 124800, Note_on_c, 0, 50, 73
3, 125040, Note_on_c, 0, 50, 0
3, 125040, Note_on_c, 0, 59, 68
3, 125280, Note_on_c, 0, 59, 0
3, 125280, Note_on_c, 0, 42, 79
3, 125283, Control_c, 0, 64, 0
3, 125386, Control_c, 0, 64, 127
3, 125400, Note_on_c, 0, 42, 0
3, 125520, Note_on_c, 0, 47, 70
3, 125760, Note_on_c, 0, 47, 0
3, 125760, Note_on_c, 0, 56, 72
3, 126000, Note_on_c, 0, 56, 0
3, 126000, Note_on_c, 0, 42, 79
3, 126007, Control_c, 0, 64, 0
3, 126085, Control_c, 0, 64, 127
3, 126120, Note_on_c, 0, 42, 0
3, 126240, Note_on_c, 0, 49, 71
3, 126480, Note_on_c, 0, 49, 0
3, 126480, Note_on_c, 0, 57, 73
3, 126720, Note_on_c, 0, 57, 0
3, 126720, Note_on_c, 0, 42, 79
3, 126733, Control_c, 0, 64, 0
3, 126840, Note_on_c, 0, 42, 0
3, 126854, Control_c, 0, 64, 126
3, 126960, Note_on_c, 0, 50, 70
3, 127200, Note_on_c, 0, 50, 0
3, 127200, Note_on_c, 0, 59, 72
3, 127440, Note_on_c, 0, 59, 0
3, 127440, Note_on_c, 0, 42, 70
3, 127446, Control_c, 0, 64, 0
3, 127560, Note_on_c, 0, 42, 0
3, 127574, Control_c, 0, 64, 127
3, 127680, Note_on_c, 0, 49, 64
3, 127920, Note_on_c, 0, 49, 0
3, 127920, Note_on_c, 0, 57, 65
3, 128160, Note_on_c, 0, 57, 0
3, 128160, Note_on_c, 0, 42, 70
3, 128280, Note_on_c, 0, 42, 0
3, 128400, Note_on_c, 0, 49, 65
3, 128640, Note_on_c, 0, 49, 0
3, 128640, Note_on_c, 0, 57, 65
3, 128880, Note_on_c, 0, 57, 0
3, 128880, Note_on_c, 0, 45, 79
3, 129000, Note_on_c, 0, 45, 0
3, 129120, Note_on_c, 0, 49, 71
3, 129360, Note_on_c, 0, 49, 0
3, 129360, Note_on_c, 0, 54, 71
3, 129600, Note_on_c, 0, 54, 0
3, 129600, Note_on_c, 0, 49, 63
3, 129605, Control_c, 0, 64, 0
3, 129734, Control_c, 0, 64, 126
3, 129840, Note_on_c, 0, 49, 0
3, 129840, Note_on_c, 0, 53, 54
3, 130080, Note_on_c, 0, 53, 0
3, 130080, Note_on_c, 0, 56, 56
3, 130320, Note_on_c, 0, 56, 0
3, 130320, Note_on_c, 0, 49, 63
3, 130560, Note_on_c, 0, 49, 0
3, 130560, Note_on_c, 0, 53, 54
3, 130800, Note_on_c, 0, 53, 0
3, 130800, Note_on_c, 0, 56, 57
3, 131040, Note_on_c, 0, 56, 0
3, 131040, Note_on_c, 0, 45, 79
3, 131045, Control_c, 0, 64, 0
3, 131139, Control_c, 0, 64, 126
3, 131280, Note_on_c, 0, 45, 0
3, 131280, Note_on_c, 0, 49, 63
3, 131520, Note_on_c, 0, 49, 0
3, 131520, Note_on_c, 0, 54, 63
3, 131760, Note_on_c, 0, 54, 0
3, 131760, Note_on_c, 0, 49, 70
3, 131764, Control_c, 0, 64, 0
3, 131894, Control_c, 0, 64, 126
3, 132000, Note_on_c, 0, 49, 0
3, 132000, Note_on_c, 0, 53, 62
3, 132240, Note_on_c, 0, 53, 0
3, 132240, Note_on_c, 0, 56, 58
3, 132480, Note_on_c, 0, 56, 0
3, 132480, Note_on_c, 0, 50, 62
3, 132487, Control_c, 0, 64, 0
3, 132720, Note_on_c, 0, 56, 59
3, 132960, Note_on_c, 0, 56, 0
3, 132960, Note_on_c, 0, 54, 59
3, 133200, Note_on_c, 0, 54, 0
3, 133200, Note_on_c, 0, 53, 60
3, 133440, Note_on_c, 0, 53, 0
3, 133440, Note_on_c, 0, 54, 55
3, 133560, Note_on_c, 0, 50, 0
3, 133680, Note_on_c, 0, 54, 0
3, 133680, Note_on_c, 0, 56, 50
3, 133680, Note_on_c, 0, 49, 50
3, 133920, Note_on_c, 0, 49, 0
3, 133920, Note_on_c, 0, 56, 0
3, 133920, Note_on_c, 0, 42, 44
3, 133920, Control_c, 0, 91, 127
3, 134033, Control_c, 0, 64, 127
3, 134160, Note_on_c, 0, 42, 0
3, 134160, Note_on_c, 0, 49, 40
3, 134400, Note_on_c, 0, 49, 0
3, 134400, Note_on_c, 0, 57, 40
3, 134640, Note_on_c, 0, 57, 0
3, 134640, Note_on_c, 0, 42, 42
3, 134653, Control_c, 0, 64, 0
3, 134781, Control_c, 0, 64, 125
3, 134880, Note_on_c, 0, 42, 0
3, 134880, Note_on_c, 0, 47, 39
3, 135120, Note_on_c, 0, 47, 0
3, 135120, Note_on_c, 0, 56, 39
3, 135360, Note_on_c, 0, 56, 0
3, 135360, Note_on_c, 0, 42, 41
3, 135374, Control_c, 0, 64, 0
3, 135544, Control_c, 0, 64, 126
3, 135600, Note_on_c, 0, 42, 0
3, 135600, Note_on_c, 0, 45, 38
3, 135840, Note_on_c, 0, 45, 0
3, 135840, Note_on_c, 0, 54, 38
3, 136080, Note_on_c, 0, 54, 0
3, 136080, Note_on_c, 0, 40, 41
3, 136088, Control_c, 0, 64, 0
3, 136207, Control_c, 0, 64, 127
3, 136320, Note_on_c, 0, 40, 0
3, 136320, Note_on_c, 0, 47, 40
3, 136560, Note_on_c, 0, 47, 0
3, 136560, Note_on_c, 0, 56, 40
3, 136800, Note_on_c, 0, 56, 0
3, 136800, Note_on_c, 0, 40, 44
3, 137040, Note_on_c, 0, 40, 0
3, 137040, Note_on_c, 0, 47, 40
3, 137280, Note_on_c, 0, 47, 0
3, 137280, Note_on_c, 0, 56, 44
3, 137520, Note_on_c, 0, 56, 0
3, 137520, Note_on_c, 0, 40, 44
3, 137760, Note_on_c, 0, 40, 0
3, 137760, Note_on_c, 0, 47, 41
3, 138000, Note_on_c, 0, 47, 0
3, 138000, Note_on_c, 0, 56, 39
3, 138240, Note_on_c, 0, 56, 0
3, 138240, Note_on_c, 0, 40, 35
3, 138244, Control_c, 0, 64, 0
3, 138410, Control_c, 0, 64, 126
3, 138480, Note_on_c, 0, 40, 0
3, 138480, Note_on_c, 0, 47, 34
3, 138720, Note_on_c, 0, 47, 0
3, 138720, Note_on_c, 0, 56, 34
3, 138960, Note_on_c, 0, 56, 0
3, 138960, Note_on_c, 0, 40, 34
3, 138970, Control_c, 0, 64, 0
3, 139101, Control_c, 0, 64, 126
3, 139200, Note_on_c, 0, 40, 0
3, 139200, Note_on_c, 0, 49, 33
3, 139440, Note_on_c, 0, 49, 0
3, 139440, Note_on_c, 0, 57, 34
3, 139680, Note_on_c, 0, 57, 0
3, 139680, Note_on_c, 0, 40, 34
3, 139693, Control_c, 0, 64, 0
3, 139836, Control_c, 0, 64, 126
3, 139920, Note_on_c, 0, 40, 0
3, 139920, Note_on_c, 0, 50, 33
3, 140160, Note_on_c, 0, 50, 0
3, 140160, Note_on_c, 0, 56, 33
3, 140400, Note_on_c, 0, 56, 0
3, 140400, Note_on_c, 0, 45, 34
3, 140407, Control_c, 0, 64, 0
3, 140556, Control_c, 0, 64, 127
3, 140640, Note_on_c, 0, 45, 0
3, 140640, Note_on_c, 0, 49, 34
3, 140880, Note_on_c, 0, 49, 0
3, 140880, Note_on_c, 0, 57, 34
3, 141120, Note_on_c, 0, 57, 0
3, 141120, Note_on_c, 0, 45, 35
3, 141132, Control_c, 0, 64, 0
3, 141318, Control_c, 0, 64, 127
3, 141360, Note_on_c, 0, 45, 0
3, 141360, Note_on_c, 0, 49, 34
3, 141600, Note_on_c, 0, 49, 0
3, 141600, Note_on_c, 0, 56, 33
3, 141840, Note_on_c, 0, 56, 0
3, 141840, Note_on_c, 0, 45, 42
3, 141854, Control_c, 0, 64, 0
3, 142066, Control_c, 0, 64, 125
3, 142080, Note_on_c, 0, 45, 0
3, 142080, Note_on_c, 0, 49, 38
3, 142320, Note_on_c, 0, 49, 0
3, 142320, Note_on_c, 0, 54, 37
3, 142560, Note_on_c, 0, 54, 0
3, 142560, Note_on_c, 0, 47, 42
3, 142565, Control_c, 0, 64, 0
3, 142720, Control_c, 0, 64, 127
3, 142800, Note_on_c, 0, 47, 0
3, 142800, Note_on_c, 0, 50, 39
3, 143040, Note_on_c, 0, 50, 0
3, 143040, Note_on_c, 0, 54, 39
3, 143280, Note_on_c, 0, 54, 0
3, 143280, Note_on_c, 0, 50, 44
3, 143520, Note_on_c, 0, 50, 0
3, 143520, Note_on_c, 0, 54, 40
3, 143760, Note_on_c, 0, 54, 0
3, 143760, Note_on_c, 0, 59, 40
3, 144000, Note_on_c, 0, 59, 0
3, 144000, Note_on_c, 0, 49, 39
3, 144007, Control_c, 0, 64, 0
3, 144240, Note_on_c, 0, 49, 0
3, 144240, Note_on_c, 0, 53, 38
3, 144480, Note_on_c, 0, 53, 0
3, 144480, Note_on_c, 0, 59, 30
3, 144720, Note_on_c, 0, 59, 0
3, 144720, Note_on_c, 0, 45, 42
3, 144819, Control_c, 0, 64, 126
3, 144960, Note_on_c, 0, 45, 0
3, 144960, Note_on_c, 0, 49, 36
3, 145200, Note_on_c, 0, 49, 0
3, 145200, Note_on_c, 0, 54, 37
3, 145440, Note_on_c, 0, 54, 0
3, 145440, Note_on_c, 0, 44, 37
3, 145454, Control_c, 0, 64, 0
3, 145553, Control_c, 0, 64, 127
3, 145680, Note_on_c, 0, 44, 0
3, 145680, Note_on_c, 0, 47, 37
3, 145920, Note_on_c, 0, 47, 0
3, 145920, Note_on_c, 0, 54, 37
3, 146160, Note_on_c, 0, 54, 0
3, 146160, Note_on_c, 0, 46, 44
3, 146168, Control_c, 0, 64, 0
3, 146245, Control_c, 0, 64, 127
3, 146400, Note_on_c, 0, 46, 0
3, 146400, Note_on_c, 0, 49, 40
3, 146640, Note_on_c, 0, 49, 0
3, 146640, Note_on_c, 0, 54, 40
3, 146880, Note_on_c, 0, 54, 0
3, 146880, Note_on_c, 0, 47, 44
3, 146887, Control_c, 0, 64, 0
3, 147120, Note_on_c, 0, 47, 0
3, 147120, Control_c, 0, 64, 127
3, 147120, Note_on_c, 0, 51, 41
3, 147360, Note_on_c, 0, 51, 0
3, 147360, Note_on_c, 0, 54, 40
3, 147600, Note_on_c, 0, 54, 0
3, 147600, Note_on_c, 0, 48, 44
3, 147840, Note_on_c, 0, 48, 0
3, 147840, Note_on_c, 0, 54, 41
3, 148080, Note_on_c, 0, 54, 0
3, 148080, Note_on_c, 0, 56, 40
3, 148320, Note_on_c, 0, 56, 0
3, 148320, Note_on_c, 0, 49, 39
3, 148332, Control_c, 0, 64, 0
3, 148560, Note_on_c, 0, 49, 0
3, 148560, Note_on_c, 0, 53, 39
3, 148800, Note_on_c, 0, 53, 0
3, 148800, Note_on_c, 0, 59, 37
3, 149040, Note_on_c, 0, 59, 0
3, 149040, Note_on_c, 0, 58, 34
3, 149040, Note_on_c, 0, 54, 34
3, 149280, Note_on_c, 0, 54, 0
3, 149280, Note_on_c, 0, 58, 0
3, 149280, Note_on_c, 0, 42, 31
3, 149520, Note_on_c, 0, 42, 0
3, 149520, Note_on_c, 0, 46, 34
3, 149760, Note_on_c, 0, 46, 0
3, 149760, Note_on_c, 0, 49, 35
3, 150000, Note_on_c, 0, 49, 0
3, 150000, Note_on_c, 0, 54, 37
3, 150240, Note_on_c, 0, 54, 0
3, 150240, Note_on_c, 0, 56, 39
3, 150480, Note_on_c, 0, 56, 0
3, 150480, Note_on_c, 0, 58, 41
3, 150720, Note_on_c, 0, 58, 0
3, 150720, Note_on_c, 0, 61, 45
3, 150960, Note_on_c, 0, 61, 0
3, 150960, Note_on_c, 0, 54, 45
3, 151200, Note_on_c, 0, 54, 0
3, 151200, Note_on_c, 0, 53, 44
3, 151337, Control_c, 0, 64, 127
3, 151440, Note_on_c, 0, 53, 0
3, 151440, Note_on_c, 0, 56, 35
3, 151680, Note_on_c, 0, 56, 0
3, 151680, Note_on_c, 0, 61, 35
3, 151920, Note_on_c, 0, 61, 0
3, 151920, Note_on_c, 0, 53, 36
3, 152160, Note_on_c, 0, 53, 0
3, 152160, Note_on_c, 0, 56, 36
3, 152400, Note_on_c, 0, 56, 0
3, 152400, Note_on_c, 0, 61, 36
3, 152640, Note_on_c, 0, 61, 0
3, 152640, Note_on_c, 0, 53, 36
3, 152880, Note_on_c, 0, 53, 0
3, 152880, Note_on_c, 0, 56, 36
3, 153120, Note_on_c, 0, 56, 0
3, 153120, Note_on_c, 0, 61, 36
3, 153360, Note_on_c, 0, 61, 0
3, 153360, Note_on_c, 0, 52, 36
3, 153364, Control_c, 0, 64, 0
3, 153459, Control_c, 0, 64, 126
3, 153600, Note_on_c, 0, 52, 0
3, 153600, Note_on_c, 0, 56, 34
3, 153840, Note_on_c, 0, 56, 0
3, 153840, Note_on_c, 0, 61, 35
3, 154080, Note_on_c, 0, 61, 0
3, 154080, Note_on_c, 0, 52, 35
3, 154320, Note_on_c, 0, 52, 0
3, 154320, Note_on_c, 0, 56, 34
3, 154560, Note_on_c, 0, 56, 0
3, 154560, Note_on_c, 0, 61, 34
3, 154800, Note_on_c, 0, 61, 0
3, 154800, Note_on_c, 0, 52, 35
3, 155040, Note_on_c, 0, 52, 0
3, 155040, Note_on_c, 0, 56, 36
3, 155280, Note_on_c, 0, 56, 0
3, 155280, Note_on_c, 0, 61, 38
3, 155520, Note_on_c, 0, 61, 0
3, 155520, Note_on_c, 0, 51, 42
3, 155523, Control_c, 0, 64, 0
3, 155703, Control_c, 0, 64, 127
3, 155760, Note_on_c, 0, 51, 0
3, 155760, Note_on_c, 0, 55, 41
3, 156000, Note_on_c, 0, 55, 0
3, 156000, Note_on_c, 0, 61, 42
3, 156240, Note_on_c, 0, 61, 0
3, 156240, Note_on_c, 0, 51, 41
3, 156480, Note_on_c, 0, 51, 0
3, 156480, Note_on_c, 0, 55, 40
3, 156720, Note_on_c, 0, 55, 0
3, 156720, Note_on_c, 0, 61, 39
3, 156960, Note_on_c, 0, 61, 0
3, 156960, Note_on_c, 0, 51, 38
3, 157200, Note_on_c, 0, 51, 0
3, 157200, Note_on_c, 0, 55, 36
3, 157440, Note_on_c, 0, 55, 0
3, 157440, Note_on_c, 0, 61, 35
3, 157680, Note_on_c, 0, 61, 0
3, 157680, Note_on_c, 0, 55, 33
3, 157680, Note_on_c, 0, 51, 33
3, 157703, Control_c, 0, 64, 0
3, 157920, Note_on_c, 0, 58, 29
3, 158160, Note_on_c, 0, 58, 0
3, 158160, Note_on_c, 0, 60, 26
3, 158400, Note_on_c, 0, 60, 0
3, 158400, Note_on_c, 0, 61, 22
3, 159120, Note_on_c, 0, 61, 0
3, 159120, Note_on_c, 0, 51, 0
3, 159120, Note_on_c, 0, 55, 0
3, 159120, Control_c, 0, 91, 127
3, 159120, Note_on_c, 0, 51, 24
3, 159120, Note_on_c, 0, 44, 20
3, 159480, Note_on_c, 0, 51, 0
3, 159480, Note_on_c, 0, 46, 20
3, 159480, Note_on_c, 0, 51, 24
3, 159490, Note_on_c, 0, 44, 0
3, 159600, Note_on_c, 0, 51, 0
3, 159600, Note_on_c, 0, 51, 24
3, 159600, Note_on_c, 0, 44, 20
3, 159610, Note_on_c, 0, 46, 0
3, 159840, Note_on_c, 0, 44, 0
3, 159840, Note_on_c, 0, 51, 0
3, 159840, Note_on_c, 0, 46, 15
3, 159840, Note_on_c, 0, 51, 18
3, 161280, Note_on_c, 0, 51, 0
3, 161280, Note_on_c, 0, 46, 0
3, 161280, Note_on_c, 0, 51, 29
3, 161280, Note_on_c, 0, 44, 24
3, 161640, Note_on_c, 0, 51, 0
3, 161640, Note_on_c, 0, 48, 24
3, 161640, Note_on_c, 0, 51, 29
3, 161650, Note_on_c, 0, 44, 0
3, 161760, Note_on_c, 0, 51, 0
3, 161760, Note_on_c, 0, 44, 24
3, 161760, Note_on_c, 0, 51, 29
3, 161770, Note_on_c, 0, 48, 0
3, 162000, Note_on_c, 0, 51, 0
3, 162000, Note_on_c, 0, 44, 0
3, 162000, Note_on_c, 0, 51, 23
3, 162000, Note_on_c, 0, 39, 19
3, 163440, Note_on_c, 0, 39, 0
3, 163440, Note_on_c, 0, 51, 0
3, 163440, Note_on_c, 0, 44, 23
3, 163440, Note_on_c, 0, 51, 28
3, 163800, Note_on_c, 0, 51, 0
3, 163800, Note_on_c, 0, 51, 29
3, 163800, Note_on_c, 0, 46, 24
3, 163810, Note_on_c, 0, 44, 0
3, 163920, Note_on_c, 0, 51, 0
3, 163920, Note_on_c, 0, 44, 24
3, 163920, Note_on_c, 0, 51, 29
3, 163930, Note_on_c, 0, 46, 0
3, 164160, Note_on_c, 0, 51, 0
3, 164160, Note_on_c, 0, 44, 0
3, 164160, Note_on_c, 0, 51, 25
3, 164160, Note_on_c, 0, 44, 21
3, 164520, Note_on_c, 0, 51, 0
3, 164520, Note_on_c, 0, 49, 30
3, 164520, Note_on_c, 0, 51, 36
3, 164530, Note_on_c, 0, 44, 0
3, 164640, Note_on_c, 0, 51, 0
3, 164640, Note_on_c, 0, 48, 34
3, 164640, Note_on_c, 0, 51, 40
3, 164650, Note_on_c, 0, 49, 0
3, 164880, Note_on_c, 0, 51, 0
3, 164880, Note_on_c, 0, 48, 0
3, 164880, Note_on_c, 0, 51, 46
3, 164880, Note_on_c, 0, 48, 38
3, 165600, Note_on_c, 0, 48, 0
3, 165600, Note_on_c, 0, 51, 0
3, 165600, Note_on_c, 0, 46, 37
3, 165600, Note_on_c, 0, 51, 44
3, 166200, Note_on_c, 0, 51, 0
3, 166200, Note_on_c, 0, 46, 0
3, 166200, Note_on_c, 0, 51, 23
3, 166200, Note_on_c, 0, 44, 19
3, 166320, Note_on_c, 0, 44, 0
3, 166320, Note_on_c, 0, 51, 0
3, 166320, Note_on_c, 0, 44, 18
3, 166320, Note_on_c, 0, 51, 22
3, 167760, Note_on_c, 0, 51, 0
3, 167760, Note_on_c, 0, 44, 0
3, 167760, Note_on_c, 0, 51, 36
3, 167760, Note_on_c, 0, 39, 30
3, 168120, Note_on_c, 0, 51, 0
3, 168120, Note_on_c, 0, 44, 31
3, 168120, Note_on_c, 0, 51, 37
3, 168130, Note_on_c, 0, 39, 0
3, 168240, Note_on_c, 0, 51, 0
3, 168240, Note_on_c, 0, 51, 37
3, 168240, Note_on_c, 0, 39, 31
3, 168250, Note_on_c, 0, 44, 0
3, 168480, Note_on_c, 0, 39, 0
3, 168480, Note_on_c, 0, 51, 0
3, 168480, Note_on_c, 0, 39, 31
3, 168480, Note_on_c, 0, 51, 37
3, 168840, Note_on_c, 0, 51, 0
3, 168840, Note_on_c, 0, 51, 36
3, 168840, Note_on_c, 0, 44, 30
3, 168850, Note_on_c, 0, 39, 0
3, 168960, Note_on_c, 0, 51, 0
3, 168960, Note_on_c, 0, 39, 30
3, 168960, Note_on_c, 0, 51, 36
3, 168970, Note_on_c, 0, 44, 0
3, 169200, Note_on_c, 0, 51, 0
3, 169200, Note_on_c, 0, 39, 0
3, 169200, Note_on_c, 0, 38, 47
3, 169200, Note_on_c, 0, 50, 56
3, 170640, Note_on_c, 0, 50, 0
3, 170640, Note_on_c, 0, 38, 0
3, 170640, Note_on_c, 0, 51, 36
3, 170640, Note_on_c, 0, 39, 30
3, 171600, Note_on_c, 0, 39, 0
3, 171600, Note_on_c, 0, 51, 0
3, 174240, Note_on_c, 0, 42, 43
3, 174240, Note_on_c, 0, 54, 60
3, 174720, Note_on_c, 0, 54, 0
3, 174720, Note_on_c, 0, 42, 0
3, 174720, Note_on_c, 0, 54, 59
3, 174720, Note_on_c, 0, 42, 42
3, 174960, Note_on_c, 0, 42, 0
3, 174960, Note_on_c, 0, 54, 0
3, 174960, Note_on_c, 0, 41, 42
3, 174960, Note_on_c, 0, 53, 59
3, 175440, Note_on_c, 0, 53, 0
3, 175440, Note_on_c, 0, 41, 0
3, 175440, Note_on_c, 0, 52, 67
3, 175440, Note_on_c, 0, 40, 47
3, 175680, Note_on_c, 0, 40, 0
3, 175680, Note_on_c, 0, 52, 0
3, 175680, Note_on_c, 0, 39, 52
3, 175680, Note_on_c, 0, 51, 74
3, 176400, Note_on_c, 0, 51, 0
3, 176400, Note_on_c, 0, 39, 0
3, 176400, Note_on_c, 0, 51, 44
3, 176400, Note_on_c, 0, 39, 31
3, 177000, Note_on_c, 0, 39, 0
3, 177000, Note_on_c, 0, 51, 0
3, 177000, Note_on_c, 0, 44, 42
3, 177000, Note_on_c, 0, 51, 42
3, 177120, Note_on_c, 0, 51, 0
3, 177120, Note_on_c, 0, 44, 0
3, 177120, Note_on_c, 0, 51, 42
3, 177120, Note_on_c, 0, 44, 42
3, 177712, Control_c, 0, 64, 126
3, 177720, Note_on_c, 0, 51, 0
3, 177720, Note_on_c, 0, 51, 24
3, 177840, Note_on_c, 0, 51, 0
3, 177840, Note_on_c, 0, 44, 0
3, 177840, Note_on_c, 0, 51, 24
3, 178433, Control_c, 0, 64, 0
3, 178440, Note_on_c, 0, 44, 29
3, 178560, Note_on_c, 0, 44, 0
3, 178560, Note_on_c, 0, 44, 29
3, 178920, Note_on_c, 0, 46, 29
3, 178930, Note_on_c, 0, 44, 0
3, 179040, Note_on_c, 0, 44, 29
3, 179050, Note_on_c, 0, 46, 0
3, 179280, Note_on_c, 0, 44, 0
3, 179280, Note_on_c, 0, 46, 25
3, 179880, Note_on_c, 0, 51, 0
3, 179880, Note_on_c, 0, 51, 25
3, 179880, Control_c, 0, 64, 127
3, 180000, Note_on_c, 0, 51, 0
3, 180000, Note_on_c, 0, 51, 25
3, 180586, Control_c, 0, 64, 0
3, 180600, Note_on_c, 0, 46, 0
3, 180600, Note_on_c, 0, 39, 29
3, 180720, Note_on_c, 0, 39, 0
3, 180720, Note_on_c, 0, 39, 29
3, 181080, Note_on_c, 0, 44, 29
3, 181090, Note_on_c, 0, 39, 0
3, 181200, Note_on_c, 0, 39, 29
3, 181210, Note_on_c, 0, 44, 0
3, 181440, Note_on_c, 0, 39, 0
3, 181440, Note_on_c, 0, 44, 24
3, 181920, Note_on_c, 0, 51, 0
3, 182040, Note_on_c, 0, 51, 25
3, 182048, Control_c, 0, 64, 127
3, 182160, Note_on_c, 0, 51, 0
3, 182160, Note_on_c, 0, 51, 25
3, 182760, Note_on_c, 0, 44, 0
3, 182760, Note_on_c, 0, 48, 29
3, 182767, Control_c, 0, 64, 0
3, 182880, Note_on_c, 0, 48, 0
3, 182880, Note_on_c, 0, 48, 29
3, 183240, Note_on_c, 0, 49, 28
3, 183250, Note_on_c, 0, 48, 0
3, 183360, Note_on_c, 0, 48, 30
3, 183370, Note_on_c, 0, 49, 0
3, 183600, Note_on_c, 0, 48, 0
3, 183600, Note_on_c, 0, 49, 36
3, 183960, Note_on_c, 0, 48, 37
3, 183970, Note_on_c, 0, 49, 0
3, 184080, Note_on_c, 0, 48, 0
3, 184080, Note_on_c, 0, 48, 37
3, 184320, Note_on_c, 0, 48, 0
3, 184320, Note_on_c, 0, 51, 0
3, 184320, Note_on_c, 0, 51, 37
3, 185040, Note_on_c, 0, 51, 0
3, 185040, Note_on_c, 0, 39, 44
3, 185040, Note_on_c, 0, 51, 37
3, 185640, Note_on_c, 0, 51, 0
3, 185640, Note_on_c, 0, 39, 0
3, 185640, Note_on_c, 0, 51, 29
3, 185640, Note_on_c, 0, 44, 29
3, 185760, Note_on_c, 0, 44, 0
3, 185760, Note_on_c, 0, 51, 0
3, 185760, Note_on_c, 0, 44, 29
3, 185760, Note_on_c, 0, 51, 29
3, 186381, Control_c, 0, 64, 127
3, 186480, Note_on_c, 0, 51, 0
3, 186480, Note_on_c, 0, 44, 0
3, 187080, Note_on_c, 0, 60, 29
3, 187080, Note_on_c, 0, 51, 29
3, 187101, Control_c, 0, 64, 0
3, 187200, Note_on_c, 0, 51, 0
3, 187200, Note_on_c, 0, 60, 0
3, 187200, Note_on_c, 0, 51, 37
3, 187200, Note_on_c, 0, 60, 29
3, 187560, Note_on_c, 0, 51, 0
3, 187560, Note_on_c, 0, 61, 29
3, 187560, Note_on_c, 0, 51, 29
3, 187570, Note_on_c, 0, 60, 0
3, 187680, Note_on_c, 0, 51, 0
3, 187680, Note_on_c, 0, 51, 29
3, 187680, Note_on_c, 0, 60, 29
3, 187690, Note_on_c, 0, 61, 0
3, 187920, Note_on_c, 0, 60, 0
3, 187920, Note_on_c, 0, 51, 0
3, 187920, Note_on_c, 0, 51, 25
3, 187920, Note_on_c, 0, 61, 25
3, 188506, Control_c, 0, 64, 127
3, 189219, Control_c, 0, 64, 0
3, 189240, Note_on_c, 0, 61, 0
3, 189240, Note_on_c, 0, 51, 0
3, 189240, Note_on_c, 0, 58, 29
3, 189240, Note_on_c, 0, 51, 29
3, 189360, Note_on_c, 0, 51, 0
3, 189360, Note_on_c, 0, 58, 0
3, 189360, Note_on_c, 0, 58, 29
3, 189360, Note_on_c, 0, 51, 29
3, 189720, Note_on_c, 0, 51, 0
3, 189720, Note_on_c, 0, 60, 29
3, 189720, Note_on_c, 0, 51, 29
3, 189730, Note_on_c, 0, 58, 0
3, 189840, Note_on_c, 0, 51, 0
3, 189840, Note_on_c, 0, 51, 29
3, 189840, Note_on_c, 0, 61, 29
3, 189850, Note_on_c, 0, 60, 0
3, 190080, Note_on_c, 0, 61, 0
3, 190080, Note_on_c, 0, 51, 0
3, 190080, Note_on_c, 0, 60, 24
3, 190080, Note_on_c, 0, 51, 24
3, 190694, Control_c, 0, 64, 127
3, 191400, Note_on_c, 0, 51, 0
3, 191400, Note_on_c, 0, 60, 0
3, 191400, Note_on_c, 0, 51, 29
3, 191400, Note_on_c, 0, 60, 29
3, 191406, Control_c, 0, 64, 0
3, 191520, Note_on_c, 0, 60, 0
3, 191520, Note_on_c, 0, 51, 0
3, 191520, Note_on_c, 0, 60, 29
3, 191520, Note_on_c, 0, 51, 29
3, 191880, Note_on_c, 0, 51, 0
3, 191880, Note_on_c, 0, 61, 34
3, 191880, Note_on_c, 0, 51, 29
3, 191890, Note_on_c, 0, 60, 0
3, 192000, Note_on_c, 0, 51, 0
3, 192000, Note_on_c, 0, 51, 30
3, 192000, Note_on_c, 0, 60, 30
3, 192010, Note_on_c, 0, 61, 0
3, 192240, Note_on_c, 0, 60, 0
3, 192240, Note_on_c, 0, 51, 0
3, 192240, Note_on_c, 0, 61, 42
3, 192240, Note_on_c, 0, 51, 36
3, 192600, Note_on_c, 0, 51, 0
3, 192600, Note_on_c, 0, 51, 37
3, 192600, Note_on_c, 0, 60, 37
3, 192610, Note_on_c, 0, 61, 0
3, 192720, Note_on_c, 0, 60, 0
3, 192720, Note_on_c, 0, 51, 0
3, 192720, Note_on_c, 0, 60, 37
3, 192720, Note_on_c, 0, 51, 37
3, 192960, Note_on_c, 0, 51, 0
3, 192960, Note_on_c, 0, 60, 0
3, 192960, Note_on_c, 0, 63, 41
3, 192960, Note_on_c, 0, 51, 41
3, 193680, Note_on_c, 0, 51, 0
3, 193680, Note_on_c, 0, 63, 0
3, 193680, Note_on_c, 0, 61, 47
3, 193680, Note_on_c, 0, 63, 56
3, 193680, Note_on_c, 0, 51, 47
3, 194280, Note_on_c, 0, 51, 0
3, 194280, Note_on_c, 0, 63, 0
3, 194280, Note_on_c, 0, 61, 0
3, 194280, Note_on_c, 0, 60, 53
3, 194280, Note_on_c, 0, 63, 63
3, 194280, Note_on_c, 0, 56, 53
3, 194400, Note_on_c, 0, 56, 0
3, 194400, Note_on_c, 0, 63, 0
3, 194400, Note_on_c, 0, 60, 0
3, 194400, Note_on_c, 0, 60, 54
3, 194400, Note_on_c, 0, 63, 64
3, 194400, Note_on_c, 0, 56, 54
3, 196560, Note_on_c, 0, 56, 0
3, 196560, Note_on_c, 0, 63, 0
3, 196560, Note_on_c, 0, 60, 0
3, 196560, End_track
4, 0, Start_track
4, 0, Title_t, "Schubert: Moment Musicau No.2 in Ab, Op. 94 - D 780"
4, 0, End_track
5, 0, Start_track
5, 0, Title_t, "Copyright © 1997 by Bernd Krueger"
5, 0, End_track
6, 0, Start_track
6, 0, Title_t, "http://www.piano-midi.de"
6, 0, End_track
7, 0, Start_track
7, 0, Title_t, "Edition: 2014-03-16"
7, 0, End_track
0, 0, End_of_file
