0, 0, Header, 1, 10, 480
1, 0, Start_track
1, 0, Title_t, "Sonate D960, 3. Satz"
1, 0, Copyright_t, "Copyright © 2002 by Bernd Krueger"
1, 0, Text_t, "Franz Schubert"
1, 0, Text_t, "Scherzo"
1, 0, Text_t, "Fertiggestellt am 21.07.2002\012"
1, 0, Text_t, "Normierung: 23.12.2002\012"
1, 0, Text_t, "Update am 24.3.2014\012"
1, 0, Text_t, "Dauer:  3:55 Minuten\012"
1, 0, Text_t, "Takt auf 3/8 statt 3/4 gesetzt.\012"
1, 0, SMPTE_offset, 96, 0, 3, 0, 0
1, 0, Time_signature, 3, 3, 12, 8
1, 0, Key_signature, -2, "major"
1, 0, Tempo, 461787
1, 720, Tempo, 456274
1, 960, Tempo, 452625
1, 1440, Tempo, 458155
1, 1680, Tempo, 452625
1, 2160, Tempo, 463750
1, 2640, Tempo, 474608
1, 2880, Tempo, 463679
1, 3360, Tempo, 472776
1, 3600, Tempo, 463679
1, 4560, Tempo, 452625
1, 4800, Tempo, 458155
1, 5280, Tempo, 452625
1, 5520, Tempo, 484183
1, 5760, Tempo, 465477
1, 6480, Tempo, 456274
1, 6720, Tempo, 452625
1, 7200, Tempo, 458155
1, 7440, Tempo, 452625
1, 7920, Tempo, 463750
1, 8400, Tempo, 472776
1, 8640, Tempo, 463679
1, 9120, Tempo, 474608
1, 9360, Tempo, 463679
1, 10320, Tempo, 452625
1, 10560, Tempo, 491884
1, 10800, Tempo, 461787
1, 11040, Tempo, 452625
1, 11280, Tempo, 487171
1, 11520, Tempo, 492045
1, 11761, Tempo, 452625
1, 12001, Tempo, 458155
1, 12240, Tempo, 482199
1, 12481, Tempo, 452625
1, 12720, Tempo, 467108
1, 12960, Tempo, 482199
1, 13201, Tempo, 452625
1, 13440, Tempo, 478965
1, 13680, Tempo, 491400
1, 13920, Tempo, 472962
1, 14400, Tempo, 480962
1, 14640, Tempo, 478965
1, 14880, Tempo, 485084
1, 15080, Tempo, 474947
1, 15120, Tempo, 480962
1, 15360, Tempo, 474947
1, 15720, Tempo, 483014
1, 15840, Tempo, 474608
1, 16320, Tempo, 487171
1, 16560, Tempo, 476948
1, 16680, Tempo, 478965
1, 16760, Tempo, 480962
1, 16880, Tempo, 483014
1, 16960, Tempo, 485084
1, 17080, Tempo, 487171
1, 17160, Tempo, 489277
1, 17240, Tempo, 491400
1, 17280, Tempo, 492045
1, 17521, Tempo, 452625
1, 17761, Tempo, 458155
1, 18000, Tempo, 482199
1, 18241, Tempo, 452625
1, 18480, Tempo, 467108
1, 18720, Tempo, 482199
1, 18961, Tempo, 452625
1, 19200, Tempo, 476948
1, 19440, Tempo, 487171
1, 19680, Tempo, 474947
1, 20160, Tempo, 480962
1, 20400, Tempo, 478965
1, 20640, Tempo, 476948
1, 20840, Tempo, 474947
1, 20880, Tempo, 485084
1, 21120, Tempo, 472962
1, 21480, Tempo, 483014
1, 21600, Tempo, 474608
1, 22320, Tempo, 472776
1, 22430, Tempo, 474608
1, 22530, Tempo, 476531
1, 22630, Tempo, 478354
1, 22740, Tempo, 480384
1, 22840, Tempo, 482199
1, 22940, Tempo, 484183
1, 23280, Tempo, 489277
1, 23520, Tempo, 504498
1, 23760, Tempo, 483014
1, 24000, Tempo, 491400
1, 24240, Tempo, 502260
1, 24480, Tempo, 467108
1, 24720, Tempo, 461432
1, 24960, Tempo, 483014
1, 25200, Tempo, 465224
1, 25440, Tempo, 461432
1, 25680, Tempo, 478965
1, 25920, Tempo, 487171
1, 26160, Tempo, 461432
1, 26640, Tempo, 478965
1, 26720, Tempo, 480962
1, 26800, Tempo, 483014
1, 26880, Tempo, 485084
1, 26960, Tempo, 487171
1, 27040, Tempo, 489277
1, 27120, Tempo, 491400
1, 27360, Tempo, 467108
1, 27600, Tempo, 478965
1, 27840, Tempo, 489277
1, 28080, Tempo, 465224
1, 28320, Tempo, 478965
1, 28600, Tempo, 491400
1, 28800, Tempo, 478965
1, 28980, Tempo, 433244
1, 29040, Tempo, 472962
1, 29520, Tempo, 467108
1, 29760, Tempo, 457701
1, 29920, Tempo, 455858
1, 30080, Tempo, 454030
1, 30200, Tempo, 452216
1, 30240, Tempo, 465224
1, 30480, Tempo, 457701
1, 30960, Tempo, 483014
1, 31440, Tempo, 474608
1, 31680, Tempo, 485084
1, 31920, Tempo, 491400
1, 32160, Tempo, 504498
1, 32400, Tempo, 483014
1, 32640, Tempo, 491400
1, 32880, Tempo, 502260
1, 33120, Tempo, 470995
1, 33360, Tempo, 461432
1, 33600, Tempo, 476948
1, 33840, Tempo, 465224
1, 34080, Tempo, 461432
1, 34320, Tempo, 480962
1, 34560, Tempo, 487171
1, 34800, Tempo, 461432
1, 35280, Tempo, 485084
1, 35760, Tempo, 493543
1, 36000, Tempo, 467108
1, 36240, Tempo, 485084
1, 36480, Tempo, 493543
1, 36720, Tempo, 465224
1, 36960, Tempo, 485084
1, 37200, Tempo, 497843
1, 37440, Tempo, 480962
1, 37620, Tempo, 434909
1, 37680, Tempo, 472962
1, 38160, Tempo, 461432
1, 38400, Tempo, 457701
1, 38880, Tempo, 463320
1, 39120, Tempo, 457701
1, 39360, Tempo, 469043
1, 39600, Tempo, 480962
1, 40080, Tempo, 474608
1, 40320, Tempo, 485084
1, 40800, Tempo, 504498
1, 41040, Tempo, 472962
1, 41760, Tempo, 461432
1, 42000, Tempo, 461432
1, 42480, Tempo, 467108
1, 42720, Tempo, 459559
1, 42960, Tempo, 480962
1, 43200, Tempo, 483014
1, 43680, Tempo, 474608
1, 43920, Tempo, 485084
1, 44400, Tempo, 504498
1, 44640, Tempo, 472962
1, 45360, Tempo, 461432
1, 45600, Tempo, 457701
1, 46080, Tempo, 469043
1, 46320, Tempo, 455858
1, 46560, Tempo, 502260
1, 46800, Tempo, 483014
1, 47040, Tempo, 491400
1, 47280, Tempo, 502260
1, 47520, Tempo, 467108
1, 48000, Tempo, 478965
1, 48240, Tempo, 465224
1, 48720, Tempo, 478965
1, 48960, Tempo, 461787
1, 49680, Tempo, 456274
1, 49920, Tempo, 452625
1, 50400, Tempo, 458155
1, 50640, Tempo, 452625
1, 51120, Tempo, 463750
1, 51600, Tempo, 474608
1, 51840, Tempo, 463679
1, 52320, Tempo, 472776
1, 52560, Tempo, 463679
1, 53520, Tempo, 452625
1, 53760, Tempo, 458155
1, 54240, Tempo, 452625
1, 54480, Tempo, 484183
1, 54720, Tempo, 465477
1, 55440, Tempo, 456274
1, 55680, Tempo, 452625
1, 56160, Tempo, 458155
1, 56400, Tempo, 452625
1, 56880, Tempo, 463750
1, 57360, Tempo, 472776
1, 57600, Tempo, 463679
1, 58080, Tempo, 474608
1, 58320, Tempo, 463679
1, 59280, Tempo, 452625
1, 59520, Tempo, 491884
1, 59760, Tempo, 461787
1, 60000, Tempo, 452625
1, 60240, Tempo, 504498
1, 60480, Tempo, 456274
1, 60720, Tempo, 452625
1, 60960, Tempo, 469043
1, 61200, Tempo, 470995
1, 61240, Tempo, 478965
1, 61320, Tempo, 480962
1, 61400, Tempo, 483014
1, 61480, Tempo, 485084
1, 61560, Tempo, 487171
1, 61640, Tempo, 489277
1, 61680, Tempo, 491400
1, 61920, Tempo, 469043
1, 62160, Tempo, 457701
1, 62400, Tempo, 467108
1, 62640, Tempo, 485084
1, 62720, Tempo, 487171
1, 62800, Tempo, 489277
1, 62880, Tempo, 491400
1, 62960, Tempo, 493543
1, 63040, Tempo, 495663
1, 63080, Tempo, 487171
1, 63120, Tempo, 497843
1, 63360, Tempo, 485084
1, 63600, Tempo, 457701
1, 63840, Tempo, 483014
1, 64080, Tempo, 500042
1, 64560, Tempo, 644953
1, 64800, Tempo, 492045
1, 65041, Tempo, 452625
1, 65281, Tempo, 458155
1, 65520, Tempo, 482199
1, 65761, Tempo, 452625
1, 66000, Tempo, 467108
1, 66240, Tempo, 482199
1, 66481, Tempo, 452625
1, 66720, Tempo, 478965
1, 66960, Tempo, 491400
1, 67200, Tempo, 472962
1, 67680, Tempo, 480962
1, 67920, Tempo, 478965
1, 68160, Tempo, 485084
1, 68360, Tempo, 474947
1, 68400, Tempo, 480962
1, 68640, Tempo, 474947
1, 69000, Tempo, 483014
1, 69120, Tempo, 474608
1, 69600, Tempo, 487171
1, 69840, Tempo, 476948
1, 69960, Tempo, 478965
1, 70040, Tempo, 480962
1, 70160, Tempo, 483014
1, 70240, Tempo, 485084
1, 70360, Tempo, 487171
1, 70440, Tempo, 489277
1, 70520, Tempo, 491400
1, 70560, Tempo, 492045
1, 70801, Tempo, 452625
1, 71041, Tempo, 458155
1, 71280, Tempo, 482199
1, 71521, Tempo, 452625
1, 71760, Tempo, 467108
1, 72000, Tempo, 482199
1, 72241, Tempo, 452625
1, 72480, Tempo, 476948
1, 72720, Tempo, 487171
1, 72960, Tempo, 474947
1, 73440, Tempo, 480962
1, 73680, Tempo, 478965
1, 73920, Tempo, 476948
1, 74120, Tempo, 474947
1, 74160, Tempo, 485084
1, 74400, Tempo, 472962
1, 74760, Tempo, 483014
1, 74880, Tempo, 474608
1, 75600, Tempo, 472776
1, 75710, Tempo, 474608
1, 75810, Tempo, 476531
1, 75910, Tempo, 478354
1, 76020, Tempo, 480384
1, 76120, Tempo, 482199
1, 76220, Tempo, 484183
1, 76320, Tempo, 492045
1, 76560, Tempo, 489277
1, 76800, Tempo, 504498
1, 77040, Tempo, 483014
1, 77280, Tempo, 491400
1, 77520, Tempo, 502260
1, 77760, Tempo, 467108
1, 78000, Tempo, 461432
1, 78240, Tempo, 483014
1, 78480, Tempo, 465224
1, 78720, Tempo, 461432
1, 78960, Tempo, 478965
1, 79200, Tempo, 487171
1, 79440, Tempo, 461432
1, 79920, Tempo, 485084
1, 80640, Tempo, 467108
1, 80880, Tempo, 478965
1, 81120, Tempo, 489277
1, 81360, Tempo, 465224
1, 81600, Tempo, 478965
1, 81880, Tempo, 491400
1, 82080, Tempo, 478965
1, 82260, Tempo, 433244
1, 82320, Tempo, 472962
1, 82800, Tempo, 467108
1, 83040, Tempo, 457701
1, 83200, Tempo, 455858
1, 83360, Tempo, 454030
1, 83480, Tempo, 452216
1, 83520, Tempo, 465224
1, 83760, Tempo, 457701
1, 84240, Tempo, 472962
1, 84360, Tempo, 474947
1, 84440, Tempo, 476948
1, 84560, Tempo, 478965
1, 84640, Tempo, 480962
1, 84720, Tempo, 483014
1, 84960, Tempo, 485084
1, 85200, Tempo, 491400
1, 85440, Tempo, 504498
1, 85680, Tempo, 483014
1, 85920, Tempo, 491400
1, 86160, Tempo, 502260
1, 86400, Tempo, 470995
1, 86640, Tempo, 461432
1, 86880, Tempo, 476948
1, 87120, Tempo, 465224
1, 87360, Tempo, 461432
1, 87600, Tempo, 480962
1, 87840, Tempo, 487171
1, 88080, Tempo, 461432
1, 88520, Tempo, 478965
1, 88600, Tempo, 480962
1, 88680, Tempo, 483014
1, 88720, Tempo, 485084
1, 88800, Tempo, 487171
1, 88880, Tempo, 489277
1, 88920, Tempo, 491400
1, 89000, Tempo, 493543
1, 89040, Tempo, 495663
1, 89280, Tempo, 467108
1, 89520, Tempo, 485084
1, 89760, Tempo, 493543
1, 90000, Tempo, 465224
1, 90240, Tempo, 485084
1, 90480, Tempo, 497843
1, 90720, Tempo, 480962
1, 90900, Tempo, 434909
1, 90960, Tempo, 472962
1, 91440, Tempo, 461432
1, 91680, Tempo, 457701
1, 92160, Tempo, 463320
1, 92400, Tempo, 457701
1, 92640, Tempo, 469043
1, 92880, Tempo, 463750
1, 93360, Tempo, 474608
1, 93600, Tempo, 485084
1, 94080, Tempo, 504498
1, 94320, Tempo, 472962
1, 95040, Tempo, 461432
1, 95280, Tempo, 461432
1, 95760, Tempo, 467108
1, 96000, Tempo, 459559
1, 96240, Tempo, 480962
1, 96480, Tempo, 474947
1, 96960, Tempo, 474608
1, 97200, Tempo, 485084
1, 97680, Tempo, 504498
1, 97920, Tempo, 472962
1, 98640, Tempo, 461432
1, 98880, Tempo, 457701
1, 99360, Tempo, 469043
1, 99600, Tempo, 455858
1, 99840, Tempo, 502260
1, 100080, Tempo, 483014
1, 100320, Tempo, 491400
1, 100560, Tempo, 502260
1, 100800, Tempo, 467108
1, 101280, Tempo, 478965
1, 101520, Tempo, 465224
1, 102000, Tempo, 478965
1, 102240, Tempo, 461787
1, 102960, Tempo, 456274
1, 103200, Tempo, 452625
1, 103680, Tempo, 462999
1, 103920, Tempo, 457457
1, 104400, Tempo, 468713
1, 104880, Tempo, 479693
1, 105120, Tempo, 468640
1, 105600, Tempo, 477783
1, 105840, Tempo, 468640
1, 106800, Tempo, 457457
1, 107040, Tempo, 462999
1, 107520, Tempo, 457457
1, 107760, Tempo, 489317
1, 108000, Tempo, 470404
1, 108720, Tempo, 461113
1, 108960, Tempo, 457457
1, 109440, Tempo, 462999
1, 109680, Tempo, 457457
1, 110160, Tempo, 468713
1, 110640, Tempo, 477783
1, 110880, Tempo, 468640
1, 111360, Tempo, 479693
1, 111600, Tempo, 468640
1, 112560, Tempo, 457457
1, 112800, Tempo, 497100
1, 113040, Tempo, 466708
1, 113280, Tempo, 457457
1, 113520, Tempo, 509857
1, 113760, Tempo, 461113
1, 114000, Tempo, 457457
1, 114480, Tempo, 470995
1, 114560, Tempo, 472962
1, 114640, Tempo, 474947
1, 114720, Tempo, 476948
1, 114800, Tempo, 478965
1, 114880, Tempo, 480962
1, 114960, Tempo, 488162
1, 115200, Tempo, 474046
1, 115440, Tempo, 462570
1, 115680, Tempo, 472106
1, 115920, Tempo, 476948
1, 116000, Tempo, 478965
1, 116080, Tempo, 480962
1, 116160, Tempo, 483014
1, 116200, Tempo, 485084
1, 116400, Tempo, 503145
1, 116640, Tempo, 490236
1, 116880, Tempo, 462570
1, 117120, Tempo, 488162
1, 117360, Tempo, 505348
1, 117840, Tempo, 889284
1, 118080, Key_signature, -5, "major"
1, 118080, Tempo, 600000
1, 118080, Marker_t, "Trio"
1, 118320, Tempo, 583204
1, 118560, Tempo, 549551
1, 118800, Tempo, 580271
1, 119040, Tempo, 560329
1, 119280, Tempo, 580271
1, 119520, Tempo, 554888
1, 119760, Tempo, 580271
1, 120000, Tempo, 560329
1, 120240, Tempo, 580271
1, 120480, Tempo, 560329
1, 120720, Tempo, 580271
1, 120960, Tempo, 563222
1, 121200, Tempo, 583204
1, 121440, Tempo, 549551
1, 121680, Tempo, 580271
1, 121920, Tempo, 560329
1, 122160, Tempo, 580271
1, 122400, Tempo, 554888
1, 122640, Tempo, 580271
1, 122880, Tempo, 560329
1, 123120, Tempo, 595415
1, 123360, Tempo, 560329
1, 123600, Tempo, 592300
1, 123840, Tempo, 571537
1, 124080, Tempo, 589217
1, 124320, Tempo, 580271
1, 124560, Tempo, 592300
1, 125040, Tempo, 621891
1, 125280, Tempo, 579598
1, 125520, Tempo, 583204
1, 125760, Tempo, 549551
1, 126000, Tempo, 580271
1, 126240, Tempo, 560329
1, 126480, Tempo, 580271
1, 126720, Tempo, 554888
1, 126960, Tempo, 580271
1, 127200, Tempo, 560329
1, 127440, Tempo, 580271
1, 127680, Tempo, 560329
1, 127920, Tempo, 580271
1, 128160, Tempo, 563222
1, 128400, Tempo, 583204
1, 128640, Tempo, 549551
1, 128880, Tempo, 580271
1, 129120, Tempo, 560329
1, 129360, Tempo, 580271
1, 129600, Tempo, 554888
1, 129840, Tempo, 580271
1, 130080, Tempo, 560329
1, 130320, Tempo, 595415
1, 130560, Tempo, 560329
1, 130800, Tempo, 592300
1, 131040, Tempo, 571537
1, 131280, Tempo, 589217
1, 131520, Tempo, 618620
1, 131760, Tempo, 592300
1, 132240, Tempo, 615511
1, 132480, Tempo, 588178
1, 132720, Tempo, 580271
1, 132960, Tempo, 560329
1, 133200, Tempo, 580271
1, 133440, Tempo, 560329
1, 133680, Tempo, 580271
1, 133920, Tempo, 554888
1, 134160, Tempo, 580271
1, 134400, Tempo, 560329
1, 134640, Tempo, 580271
1, 134880, Tempo, 560329
1, 135120, Tempo, 580271
1, 135360, Tempo, 594059
1, 135600, Tempo, 580271
1, 135840, Tempo, 560329
1, 136080, Tempo, 597015
1, 136320, Tempo, 571320
1, 136560, Tempo, 594059
1, 136800, Tempo, 563222
1, 137040, Tempo, 621891
1, 137280, Tempo, 597015
1, 137520, Tempo, 606122
1, 137760, Tempo, 591133
1, 138000, Tempo, 612307
1, 138240, Tempo, 588178
1, 138480, Tempo, 583204
1, 138720, Tempo, 560538
1, 138960, Tempo, 580271
1, 139200, Tempo, 560329
1, 139440, Tempo, 580271
1, 139680, Tempo, 563222
1, 139920, Tempo, 583204
1, 140160, Tempo, 549551
1, 140400, Tempo, 580271
1, 140640, Tempo, 560329
1, 140880, Tempo, 580271
1, 141120, Tempo, 563222
1, 141360, Tempo, 583204
1, 141600, Tempo, 549551
1, 141840, Tempo, 580271
1, 142080, Tempo, 560329
1, 142320, Tempo, 580271
1, 142560, Tempo, 554888
1, 142800, Tempo, 638570
1, 143040, Tempo, 582468
1, 143280, Tempo, 625130
1, 143520, Tempo, 573998
1, 143760, Tempo, 592300
1, 144000, Tempo, 571537
1, 144240, Tempo, 589217
1, 144480, Tempo, 580271
1, 144720, Tempo, 592300
1, 145200, Tempo, 621891
1, 145440, Tempo, 609199
1, 145680, Tempo, 591133
1, 145920, Tempo, 571320
1, 146160, Tempo, 580271
1, 146400, Tempo, 568613
1, 146640, Tempo, 580271
1, 146880, Tempo, 563222
1, 147120, Tempo, 580271
1, 147360, Tempo, 563222
1, 147600, Tempo, 580271
1, 147840, Tempo, 565878
1, 148080, Tempo, 580271
1, 148320, Tempo, 594059
1, 148560, Tempo, 580271
1, 148800, Tempo, 560329
1, 149040, Tempo, 597015
1, 149280, Tempo, 571320
1, 149520, Tempo, 594059
1, 149760, Tempo, 563222
1, 150000, Tempo, 621891
1, 150240, Tempo, 648929
1, 150480, Tempo, 606122
1, 150720, Tempo, 591133
1, 150960, Tempo, 612307
1, 151200, Tempo, 588178
1, 151440, Tempo, 583204
1, 151680, Tempo, 560538
1, 151920, Tempo, 580271
1, 152160, Tempo, 560329
1, 152400, Tempo, 580271
1, 152640, Tempo, 563222
1, 152880, Tempo, 583204
1, 153120, Tempo, 549551
1, 153360, Tempo, 580271
1, 153600, Tempo, 560329
1, 153840, Tempo, 580271
1, 154080, Tempo, 563222
1, 154320, Tempo, 583204
1, 154560, Tempo, 549551
1, 154800, Tempo, 580271
1, 155040, Tempo, 560329
1, 155280, Tempo, 580271
1, 155520, Tempo, 554888
1, 155760, Tempo, 638570
1, 156000, Tempo, 600000
1, 156240, Tempo, 625130
1, 156480, Tempo, 591133
1, 156720, Tempo, 612307
1, 156960, Tempo, 628404
1, 157200, Tempo, 667037
1, 158160, Tempo, 621891
1, 158400, Key_signature, -2, "major"
1, 158400, Tempo, 461787
1, 158400, Marker_t, "D.C."
1, 159120, Tempo, 456274
1, 159360, Tempo, 452625
1, 159840, Tempo, 458155
1, 160080, Tempo, 452625
1, 160560, Tempo, 463750
1, 161040, Tempo, 474608
1, 161280, Tempo, 463679
1, 161760, Tempo, 472776
1, 162000, Tempo, 463679
1, 162960, Tempo, 452625
1, 163200, Tempo, 458155
1, 163680, Tempo, 452625
1, 163920, Tempo, 484183
1, 164160, Tempo, 465477
1, 164880, Tempo, 456274
1, 165120, Tempo, 452625
1, 165600, Tempo, 458155
1, 165840, Tempo, 452625
1, 166320, Tempo, 463750
1, 166800, Tempo, 472776
1, 167040, Tempo, 463679
1, 167520, Tempo, 474608
1, 167760, Tempo, 463679
1, 168720, Tempo, 452625
1, 168960, Tempo, 491884
1, 169200, Tempo, 461787
1, 169440, Tempo, 452625
1, 169680, Tempo, 487171
1, 169920, Tempo, 492045
1, 170161, Tempo, 452625
1, 170401, Tempo, 458155
1, 170640, Tempo, 482199
1, 170881, Tempo, 452625
1, 171120, Tempo, 467108
1, 171360, Tempo, 482199
1, 171601, Tempo, 452625
1, 171840, Tempo, 478965
1, 172080, Tempo, 491400
1, 172320, Tempo, 472962
1, 172800, Tempo, 480962
1, 173040, Tempo, 478965
1, 173280, Tempo, 485084
1, 173480, Tempo, 474947
1, 173520, Tempo, 480962
1, 173760, Tempo, 474947
1, 174120, Tempo, 483014
1, 174240, Tempo, 474608
1, 174720, Tempo, 487171
1, 174960, Tempo, 476948
1, 175080, Tempo, 478965
1, 175160, Tempo, 480962
1, 175280, Tempo, 483014
1, 175360, Tempo, 485084
1, 175480, Tempo, 487171
1, 175560, Tempo, 489277
1, 175640, Tempo, 491400
1, 175680, Tempo, 492045
1, 175921, Tempo, 452625
1, 176161, Tempo, 458155
1, 176400, Tempo, 482199
1, 176641, Tempo, 452625
1, 176880, Tempo, 467108
1, 177120, Tempo, 482199
1, 177361, Tempo, 452625
1, 177600, Tempo, 476948
1, 177840, Tempo, 487171
1, 178080, Tempo, 474947
1, 178560, Tempo, 480962
1, 178800, Tempo, 478965
1, 179040, Tempo, 476948
1, 179240, Tempo, 474947
1, 179280, Tempo, 485084
1, 179520, Tempo, 472962
1, 179880, Tempo, 483014
1, 180000, Tempo, 474608
1, 180720, Tempo, 472776
1, 180830, Tempo, 474608
1, 180930, Tempo, 476531
1, 181030, Tempo, 478354
1, 181140, Tempo, 480384
1, 181240, Tempo, 482199
1, 181340, Tempo, 484183
1, 181440, Tempo, 492045
1, 181680, Tempo, 489277
1, 181920, Tempo, 504498
1, 182160, Tempo, 483014
1, 182400, Tempo, 491400
1, 182640, Tempo, 502260
1, 182880, Tempo, 467108
1, 183120, Tempo, 461432
1, 183360, Tempo, 483014
1, 183600, Tempo, 465224
1, 183840, Tempo, 461432
1, 184080, Tempo, 478965
1, 184320, Tempo, 487171
1, 184560, Tempo, 461432
1, 185000, Tempo, 474947
1, 185120, Tempo, 476948
1, 185240, Tempo, 478965
1, 185360, Tempo, 480962
1, 185480, Tempo, 483014
1, 185600, Tempo, 485084
1, 185680, Tempo, 487171
1, 185760, Tempo, 467108
1, 186000, Tempo, 478965
1, 186240, Tempo, 489277
1, 186480, Tempo, 465224
1, 186720, Tempo, 478965
1, 187000, Tempo, 491400
1, 187200, Tempo, 478965
1, 187380, Tempo, 433244
1, 187440, Tempo, 472962
1, 187920, Tempo, 467108
1, 188160, Tempo, 457701
1, 188320, Tempo, 455858
1, 188480, Tempo, 454030
1, 188600, Tempo, 452216
1, 188640, Tempo, 465224
1, 188880, Tempo, 457701
1, 189360, Tempo, 463750
1, 189840, Tempo, 474608
1, 190080, Tempo, 485084
1, 190320, Tempo, 491400
1, 190560, Tempo, 504498
1, 190800, Tempo, 483014
1, 191040, Tempo, 491400
1, 191280, Tempo, 502260
1, 191520, Tempo, 470995
1, 191760, Tempo, 461432
1, 192000, Tempo, 476948
1, 192240, Tempo, 465224
1, 192480, Tempo, 461432
1, 192720, Tempo, 480962
1, 192960, Tempo, 487171
1, 193200, Tempo, 461432
1, 193680, Tempo, 480962
1, 193720, Tempo, 476948
1, 193840, Tempo, 478965
1, 193920, Tempo, 480962
1, 194000, Tempo, 483014
1, 194080, Tempo, 485084
1, 194400, Tempo, 467108
1, 194640, Tempo, 485084
1, 194880, Tempo, 493543
1, 195120, Tempo, 465224
1, 195360, Tempo, 485084
1, 195600, Tempo, 497843
1, 195840, Tempo, 480962
1, 196020, Tempo, 434909
1, 196080, Tempo, 472962
1, 196560, Tempo, 461432
1, 196800, Tempo, 457701
1, 197280, Tempo, 463320
1, 197520, Tempo, 457701
1, 197760, Tempo, 469043
1, 198000, Tempo, 463750
1, 198480, Tempo, 474608
1, 198720, Tempo, 485084
1, 199200, Tempo, 504498
1, 199440, Tempo, 472962
1, 200160, Tempo, 461432
1, 200400, Tempo, 461432
1, 200880, Tempo, 467108
1, 201120, Tempo, 459559
1, 201360, Tempo, 480962
1, 201600, Tempo, 474947
1, 202080, Tempo, 474608
1, 202320, Tempo, 485084
1, 202800, Tempo, 504498
1, 203040, Tempo, 472962
1, 203760, Tempo, 461432
1, 204000, Tempo, 457701
1, 204480, Tempo, 469043
1, 204720, Tempo, 455858
1, 204960, Tempo, 502260
1, 205200, Tempo, 483014
1, 205440, Tempo, 491400
1, 205680, Tempo, 502260
1, 205920, Tempo, 467108
1, 206400, Tempo, 478965
1, 206640, Tempo, 465224
1, 207120, Tempo, 478965
1, 207360, Tempo, 461787
1, 208080, Tempo, 456274
1, 208320, Tempo, 452625
1, 208800, Tempo, 462999
1, 209040, Tempo, 457457
1, 209520, Tempo, 468713
1, 210000, Tempo, 479693
1, 210240, Tempo, 468640
1, 210720, Tempo, 477783
1, 210960, Tempo, 468640
1, 211920, Tempo, 457457
1, 212160, Tempo, 462999
1, 212640, Tempo, 457457
1, 212880, Tempo, 489317
1, 213120, Tempo, 470404
1, 213840, Tempo, 461113
1, 214080, Tempo, 457457
1, 214560, Tempo, 462999
1, 214800, Tempo, 457457
1, 215240, Tempo, 469043
1, 215360, Tempo, 470995
1, 215440, Tempo, 472962
1, 215520, Tempo, 474947
1, 215600, Tempo, 476948
1, 215680, Tempo, 478965
1, 215760, Tempo, 480962
1, 216000, Tempo, 468640
1, 216480, Tempo, 479693
1, 216720, Tempo, 468640
1, 217680, Tempo, 457457
1, 217920, Tempo, 497100
1, 218160, Tempo, 466708
1, 218400, Tempo, 457457
1, 218640, Tempo, 509857
1, 218880, Tempo, 461113
1, 219120, Tempo, 457457
1, 219600, Tempo, 469043
1, 219680, Tempo, 470995
1, 219760, Tempo, 472962
1, 219800, Tempo, 474947
1, 219880, Tempo, 476948
1, 219960, Tempo, 478965
1, 220000, Tempo, 480962
1, 220040, Tempo, 470995
1, 220080, Tempo, 488162
1, 220320, Tempo, 474046
1, 220560, Tempo, 462570
1, 220800, Tempo, 472106
1, 221040, Tempo, 468238
1, 221080, Tempo, 476948
1, 221200, Tempo, 478965
1, 221280, Tempo, 480962
1, 221520, Tempo, 503145
1, 221760, Tempo, 490236
1, 222000, Tempo, 462570
1, 222240, Tempo, 488162
1, 222480, Tempo, 505348
1, 223920, Tempo, 513611
1, 225962, Tempo, 542986
1, 226080, Tempo, 600000
1, 226080, End_track
2, 0, Start_track
2, 0, Title_t, "Piano right"
2, 0, Program_c, 0, 1
2, 0, Control_c, 0, 7, 100
2, 0, Control_c, 0, 10, 64
2, 0, Note_on_c, 0, 82, 54
2, 0, Control_c, 0, 91, 127
2, 0, Text_t, "bdca426d104a26ac9dcb070447587523"
2, 240, Note_on_c, 0, 82, 0
2, 240, Note_on_c, 0, 81, 47
2, 480, Note_on_c, 0, 81, 0
2, 480, Note_on_c, 0, 82, 47
2, 720, Note_on_c, 0, 82, 0
2, 720, Note_on_c, 0, 79, 51
2, 960, Note_on_c, 0, 79, 0
2, 960, Note_on_c, 0, 81, 46
2, 1080, Note_on_c, 0, 81, 0
2, 1080, Note_on_c, 0, 82, 47
2, 1200, Note_on_c, 0, 82, 0
2, 1200, Note_on_c, 0, 84, 49
2, 1320, Note_on_c, 0, 84, 0
2, 1320, Note_on_c, 0, 86, 50
2, 1440, Note_on_c, 0, 86, 0
2, 1440, Note_on_c, 0, 82, 53
2, 1680, Note_on_c, 0, 82, 0
2, 1680, Note_on_c, 0, 84, 54
2, 1800, Note_on_c, 0, 84, 0
2, 1800, Note_on_c, 0, 82, 47
2, 1920, Note_on_c, 0, 82, 0
2, 1920, Note_on_c, 0, 81, 51
2, 2040, Note_on_c, 0, 81, 0
2, 2040, Note_on_c, 0, 79, 47
2, 2160, Note_on_c, 0, 79, 0
2, 2160, Note_on_c, 0, 77, 56
2, 2220, Note_on_c, 0, 77, 0
2, 2400, Note_on_c, 0, 77, 51
2, 2460, Note_on_c, 0, 77, 0
2, 2640, Note_on_c, 0, 77, 50
2, 2700, Note_on_c, 0, 77, 0
2, 2880, Note_on_c, 0, 78, 61
2, 3120, Note_on_c, 0, 78, 0
2, 3120, Note_on_c, 0, 90, 57
2, 3360, Note_on_c, 0, 90, 0
2, 3360, Note_on_c, 0, 90, 57
2, 3420, Note_on_c, 0, 90, 0
2, 3600, Note_on_c, 0, 91, 65
2, 3840, Note_on_c, 0, 91, 0
2, 3840, Note_on_c, 0, 79, 51
2, 4080, Note_on_c, 0, 79, 0
2, 4080, Note_on_c, 0, 79, 51
2, 4140, Note_on_c, 0, 79, 0
2, 4320, Note_on_c, 0, 81, 53
2, 4380, Note_on_c, 0, 81, 0
2, 4530, Note_on_c, 0, 94, 46
2, 4560, Note_on_c, 0, 94, 0
2, 4560, Note_on_c, 0, 93, 52
2, 4680, Note_on_c, 0, 93, 0
2, 4680, Note_on_c, 0, 91, 51
2, 4800, Note_on_c, 0, 91, 0
2, 4800, Note_on_c, 0, 93, 52
2, 5040, Note_on_c, 0, 93, 0
2, 5040, Note_on_c, 0, 94, 54
2, 5100, Note_on_c, 0, 94, 0
2, 5250, Note_on_c, 0, 84, 45
2, 5280, Note_on_c, 0, 84, 0
2, 5280, Note_on_c, 0, 82, 51
2, 5400, Note_on_c, 0, 82, 0
2, 5400, Note_on_c, 0, 81, 47
2, 5520, Note_on_c, 0, 81, 0
2, 5520, Note_on_c, 0, 82, 51
2, 5640, Note_on_c, 0, 82, 0
2, 5760, Note_on_c, 0, 70, 34
2, 5760, Note_on_c, 0, 74, 40
2, 5880, Note_on_c, 0, 74, 0
2, 5880, Note_on_c, 0, 70, 0
2, 5880, Note_on_c, 0, 77, 35
2, 6000, Note_on_c, 0, 77, 0
2, 6000, Note_on_c, 0, 70, 34
2, 6000, Note_on_c, 0, 74, 41
2, 6120, Note_on_c, 0, 74, 0
2, 6120, Note_on_c, 0, 70, 0
2, 6120, Note_on_c, 0, 77, 34
2, 6240, Note_on_c, 0, 77, 0
2, 6240, Note_on_c, 0, 74, 41
2, 6240, Note_on_c, 0, 70, 34
2, 6360, Note_on_c, 0, 70, 0
2, 6360, Note_on_c, 0, 74, 0
2, 6360, Note_on_c, 0, 77, 35
2, 6480, Note_on_c, 0, 77, 0
2, 6480, Note_on_c, 0, 70, 35
2, 6480, Note_on_c, 0, 74, 42
2, 6600, Note_on_c, 0, 74, 0
2, 6600, Note_on_c, 0, 70, 0
2, 6600, Note_on_c, 0, 79, 35
2, 6720, Note_on_c, 0, 79, 0
2, 6720, Note_on_c, 0, 70, 34
2, 6720, Note_on_c, 0, 74, 41
2, 6840, Note_on_c, 0, 74, 0
2, 6840, Note_on_c, 0, 70, 0
2, 6840, Note_on_c, 0, 79, 34
2, 6960, Note_on_c, 0, 79, 0
2, 6960, Note_on_c, 0, 70, 34
2, 6960, Note_on_c, 0, 74, 41
2, 7080, Note_on_c, 0, 74, 0
2, 7080, Note_on_c, 0, 70, 0
2, 7080, Note_on_c, 0, 79, 34
2, 7200, Note_on_c, 0, 79, 0
2, 7200, Note_on_c, 0, 70, 37
2, 7200, Note_on_c, 0, 74, 44
2, 7320, Note_on_c, 0, 74, 0
2, 7320, Note_on_c, 0, 70, 0
2, 7320, Note_on_c, 0, 77, 35
2, 7440, Note_on_c, 0, 77, 0
2, 7440, Note_on_c, 0, 70, 34
2, 7440, Note_on_c, 0, 74, 41
2, 7560, Note_on_c, 0, 74, 0
2, 7560, Note_on_c, 0, 70, 0
2, 7560, Note_on_c, 0, 77, 34
2, 7680, Note_on_c, 0, 77, 0
2, 7680, Note_on_c, 0, 74, 41
2, 7680, Note_on_c, 0, 70, 34
2, 7800, Note_on_c, 0, 70, 0
2, 7800, Note_on_c, 0, 74, 0
2, 7800, Note_on_c, 0, 77, 34
2, 7920, Note_on_c, 0, 77, 0
2, 7920, Note_on_c, 0, 75, 47
2, 7920, Note_on_c, 0, 69, 39
2, 8040, Note_on_c, 0, 69, 0
2, 8040, Note_on_c, 0, 75, 0
2, 8040, Note_on_c, 0, 77, 35
2, 8160, Note_on_c, 0, 77, 0
2, 8160, Note_on_c, 0, 75, 41
2, 8160, Note_on_c, 0, 69, 34
2, 8280, Note_on_c, 0, 69, 0
2, 8280, Note_on_c, 0, 75, 0
2, 8280, Note_on_c, 0, 77, 37
2, 8400, Note_on_c, 0, 77, 0
2, 8400, Note_on_c, 0, 75, 41
2, 8400, Note_on_c, 0, 69, 34
2, 8520, Note_on_c, 0, 69, 0
2, 8520, Note_on_c, 0, 75, 0
2, 8520, Note_on_c, 0, 77, 35
2, 8640, Note_on_c, 0, 77, 0
2, 8640, Note_on_c, 0, 69, 38
2, 8640, Note_on_c, 0, 75, 45
2, 8760, Note_on_c, 0, 75, 0
2, 8760, Note_on_c, 0, 69, 0
2, 8760, Note_on_c, 0, 81, 35
2, 8880, Note_on_c, 0, 81, 0
2, 8880, Note_on_c, 0, 69, 34
2, 8880, Note_on_c, 0, 75, 41
2, 9000, Note_on_c, 0, 75, 0
2, 9000, Note_on_c, 0, 69, 0
2, 9000, Note_on_c, 0, 81, 35
2, 9120, Note_on_c, 0, 81, 0
2, 9120, Note_on_c, 0, 69, 34
2, 9120, Note_on_c, 0, 75, 41
2, 9240, Note_on_c, 0, 75, 0
2, 9240, Note_on_c, 0, 69, 0
2, 9240, Note_on_c, 0, 81, 35
2, 9360, Note_on_c, 0, 81, 0
2, 9360, Note_on_c, 0, 75, 44
2, 9360, Note_on_c, 0, 70, 37
2, 9480, Note_on_c, 0, 70, 0
2, 9480, Note_on_c, 0, 75, 0
2, 9480, Note_on_c, 0, 82, 35
2, 9600, Note_on_c, 0, 82, 0
2, 9600, Note_on_c, 0, 70, 34
2, 9600, Note_on_c, 0, 75, 41
2, 9720, Note_on_c, 0, 75, 0
2, 9720, Note_on_c, 0, 70, 0
2, 9720, Note_on_c, 0, 81, 35
2, 9840, Note_on_c, 0, 81, 0
2, 9840, Note_on_c, 0, 70, 34
2, 9840, Note_on_c, 0, 75, 41
2, 9960, Note_on_c, 0, 75, 0
2, 9960, Note_on_c, 0, 70, 0
2, 9960, Note_on_c, 0, 79, 35
2, 10080, Note_on_c, 0, 79, 0
2, 10080, Note_on_c, 0, 68, 34
2, 10080, Note_on_c, 0, 74, 41
2, 10200, Note_on_c, 0, 74, 0
2, 10200, Note_on_c, 0, 68, 0
2, 10200, Note_on_c, 0, 77, 35
2, 10320, Note_on_c, 0, 77, 0
2, 10320, Note_on_c, 0, 68, 34
2, 10320, Note_on_c, 0, 74, 41
2, 10440, Note_on_c, 0, 74, 0
2, 10440, Note_on_c, 0, 68, 0
2, 10440, Note_on_c, 0, 77, 35
2, 10560, Note_on_c, 0, 77, 0
2, 10560, Note_on_c, 0, 74, 41
2, 10560, Note_on_c, 0, 68, 34
2, 10680, Note_on_c, 0, 68, 0
2, 10680, Note_on_c, 0, 74, 0
2, 10680, Note_on_c, 0, 77, 35
2, 10800, Note_on_c, 0, 77, 0
2, 10800, Note_on_c, 0, 75, 41
2, 10800, Note_on_c, 0, 67, 34
2, 10920, Note_on_c, 0, 67, 0
2, 10920, Note_on_c, 0, 75, 0
2, 10920, Note_on_c, 0, 79, 35
2, 11040, Note_on_c, 0, 79, 0
2, 11040, Note_on_c, 0, 75, 41
2, 11040, Note_on_c, 0, 67, 34
2, 11160, Note_on_c, 0, 67, 0
2, 11160, Note_on_c, 0, 75, 0
2, 11160, Note_on_c, 0, 79, 35
2, 11280, Note_on_c, 0, 79, 0
2, 11280, Note_on_c, 0, 75, 41
2, 11280, Note_on_c, 0, 67, 34
2, 11400, Note_on_c, 0, 67, 0
2, 11400, Note_on_c, 0, 75, 0
2, 11520, Note_on_c, 0, 82, 56
2, 11580, Note_on_c, 0, 82, 0
2, 11700, Note_on_c, 0, 80, 50
2, 11760, Note_on_c, 0, 80, 0
2, 11760, Note_on_c, 0, 79, 56
2, 11880, Note_on_c, 0, 79, 0
2, 11880, Note_on_c, 0, 77, 52
2, 12000, Note_on_c, 0, 77, 0
2, 12000, Note_on_c, 0, 79, 56
2, 12240, Note_on_c, 0, 79, 0
2, 12240, Note_on_c, 0, 82, 56
2, 12300, Note_on_c, 0, 82, 0
2, 12420, Note_on_c, 0, 79, 49
2, 12480, Note_on_c, 0, 79, 0
2, 12480, Note_on_c, 0, 77, 56
2, 12600, Note_on_c, 0, 77, 0
2, 12600, Note_on_c, 0, 76, 52
2, 12720, Note_on_c, 0, 76, 0
2, 12720, Note_on_c, 0, 77, 56
2, 12960, Note_on_c, 0, 77, 0
2, 12960, Note_on_c, 0, 84, 58
2, 13200, Note_on_c, 0, 84, 0
2, 13200, Note_on_c, 0, 82, 59
2, 13320, Note_on_c, 0, 82, 0
2, 13320, Note_on_c, 0, 80, 54
2, 13440, Note_on_c, 0, 80, 0
2, 13440, Note_on_c, 0, 79, 58
2, 13560, Note_on_c, 0, 79, 0
2, 13560, Note_on_c, 0, 77, 58
2, 13680, Note_on_c, 0, 77, 0
2, 13680, Note_on_c, 0, 84, 58
2, 13920, Note_on_c, 0, 84, 0
2, 13920, Note_on_c, 0, 72, 56
2, 14160, Note_on_c, 0, 72, 0
2, 14160, Note_on_c, 0, 72, 56
2, 14400, Note_on_c, 0, 72, 0
2, 14400, Note_on_c, 0, 68, 37
2, 14400, Note_on_c, 0, 72, 44
2, 14520, Note_on_c, 0, 72, 0
2, 14520, Note_on_c, 0, 68, 0
2, 14520, Note_on_c, 0, 75, 39
2, 14640, Note_on_c, 0, 75, 0
2, 14640, Note_on_c, 0, 68, 38
2, 14640, Note_on_c, 0, 72, 45
2, 14760, Note_on_c, 0, 72, 0
2, 14760, Note_on_c, 0, 68, 0
2, 14760, Note_on_c, 0, 75, 38
2, 14880, Note_on_c, 0, 75, 0
2, 14880, Note_on_c, 0, 68, 38
2, 14880, Note_on_c, 0, 72, 45
2, 15000, Note_on_c, 0, 72, 0
2, 15000, Note_on_c, 0, 68, 0
2, 15000, Note_on_c, 0, 75, 39
2, 15120, Note_on_c, 0, 75, 0
2, 15120, Note_on_c, 0, 68, 37
2, 15120, Note_on_c, 0, 77, 44
2, 15240, Note_on_c, 0, 77, 0
2, 15240, Note_on_c, 0, 68, 0
2, 15240, Note_on_c, 0, 80, 39
2, 15360, Note_on_c, 0, 80, 0
2, 15360, Note_on_c, 0, 68, 39
2, 15360, Note_on_c, 0, 77, 47
2, 15480, Note_on_c, 0, 77, 0
2, 15480, Note_on_c, 0, 68, 0
2, 15480, Note_on_c, 0, 80, 39
2, 15600, Note_on_c, 0, 80, 0
2, 15600, Note_on_c, 0, 68, 41
2, 15600, Note_on_c, 0, 77, 49
2, 15720, Note_on_c, 0, 77, 0
2, 15720, Note_on_c, 0, 68, 0
2, 15720, Note_on_c, 0, 80, 43
2, 15840, Note_on_c, 0, 80, 0
2, 15840, Note_on_c, 0, 68, 37
2, 15840, Note_on_c, 0, 72, 44
2, 15960, Note_on_c, 0, 72, 0
2, 15960, Note_on_c, 0, 68, 0
2, 15960, Note_on_c, 0, 75, 38
2, 16080, Note_on_c, 0, 75, 0
2, 16080, Note_on_c, 0, 68, 35
2, 16080, Note_on_c, 0, 72, 42
2, 16200, Note_on_c, 0, 72, 0
2, 16200, Note_on_c, 0, 68, 0
2, 16200, Note_on_c, 0, 75, 34
2, 16320, Note_on_c, 0, 75, 0
2, 16320, Note_on_c, 0, 68, 34
2, 16320, Note_on_c, 0, 72, 40
2, 16440, Note_on_c, 0, 72, 0
2, 16440, Note_on_c, 0, 68, 0
2, 16440, Note_on_c, 0, 75, 33
2, 16560, Note_on_c, 0, 75, 0
2, 16560, Note_on_c, 0, 67, 31
2, 16560, Note_on_c, 0, 73, 37
2, 16680, Note_on_c, 0, 73, 0
2, 16680, Note_on_c, 0, 67, 0
2, 16680, Note_on_c, 0, 75, 32
2, 16800, Note_on_c, 0, 75, 0
2, 16800, Note_on_c, 0, 67, 31
2, 16800, Note_on_c, 0, 73, 38
2, 16920, Note_on_c, 0, 73, 0
2, 16920, Note_on_c, 0, 67, 0
2, 16920, Note_on_c, 0, 75, 31
2, 17040, Note_on_c, 0, 75, 0
2, 17040, Note_on_c, 0, 67, 31
2, 17040, Note_on_c, 0, 73, 38
2, 17160, Note_on_c, 0, 73, 0
2, 17160, Note_on_c, 0, 67, 0
2, 17160, Note_on_c, 0, 75, 32
2, 17280, Note_on_c, 0, 75, 0
2, 17280, Note_on_c, 0, 68, 47
2, 17280, Note_on_c, 0, 72, 47
2, 17280, Note_on_c, 0, 75, 56
2, 17340, Note_on_c, 0, 75, 0
2, 17340, Note_on_c, 0, 72, 0
2, 17340, Note_on_c, 0, 68, 0
2, 17460, Note_on_c, 0, 73, 48
2, 17520, Note_on_c, 0, 73, 0
2, 17520, Note_on_c, 0, 72, 56
2, 17640, Note_on_c, 0, 72, 0
2, 17640, Note_on_c, 0, 70, 52
2, 17760, Note_on_c, 0, 70, 0
2, 17760, Note_on_c, 0, 72, 56
2, 18000, Note_on_c, 0, 72, 0
2, 18000, Note_on_c, 0, 75, 56
2, 18060, Note_on_c, 0, 75, 0
2, 18180, Note_on_c, 0, 72, 48
2, 18240, Note_on_c, 0, 72, 0
2, 18240, Note_on_c, 0, 70, 56
2, 18360, Note_on_c, 0, 70, 0
2, 18360, Note_on_c, 0, 69, 52
2, 18480, Note_on_c, 0, 69, 0
2, 18480, Note_on_c, 0, 70, 56
2, 18720, Note_on_c, 0, 70, 0
2, 18720, Note_on_c, 0, 77, 58
2, 18960, Note_on_c, 0, 77, 0
2, 18960, Note_on_c, 0, 75, 59
2, 19080, Note_on_c, 0, 75, 0
2, 19080, Note_on_c, 0, 73, 54
2, 19200, Note_on_c, 0, 73, 0
2, 19200, Note_on_c, 0, 72, 58
2, 19320, Note_on_c, 0, 72, 0
2, 19320, Note_on_c, 0, 70, 58
2, 19440, Note_on_c, 0, 70, 0
2, 19440, Note_on_c, 0, 77, 58
2, 19680, Note_on_c, 0, 77, 0
2, 19680, Note_on_c, 0, 65, 56
2, 19920, Note_on_c, 0, 65, 0
2, 19920, Note_on_c, 0, 65, 56
2, 20160, Note_on_c, 0, 65, 0
2, 20160, Note_on_c, 0, 73, 37
2, 20160, Note_on_c, 0, 77, 44
2, 20280, Note_on_c, 0, 77, 0
2, 20280, Note_on_c, 0, 73, 0
2, 20280, Note_on_c, 0, 80, 39
2, 20400, Note_on_c, 0, 80, 0
2, 20400, Note_on_c, 0, 73, 38
2, 20400, Note_on_c, 0, 77, 45
2, 20520, Note_on_c, 0, 77, 0
2, 20520, Note_on_c, 0, 73, 0
2, 20520, Note_on_c, 0, 80, 38
2, 20640, Note_on_c, 0, 80, 0
2, 20640, Note_on_c, 0, 73, 38
2, 20640, Note_on_c, 0, 77, 45
2, 20760, Note_on_c, 0, 77, 0
2, 20760, Note_on_c, 0, 73, 0
2, 20760, Note_on_c, 0, 80, 39
2, 20880, Note_on_c, 0, 80, 0
2, 20880, Note_on_c, 0, 73, 37
2, 20880, Note_on_c, 0, 82, 44
2, 21000, Note_on_c, 0, 82, 0
2, 21000, Note_on_c, 0, 73, 0
2, 21000, Note_on_c, 0, 85, 39
2, 21120, Note_on_c, 0, 85, 0
2, 21120, Note_on_c, 0, 73, 39
2, 21120, Note_on_c, 0, 82, 47
2, 21240, Note_on_c, 0, 82, 0
2, 21240, Note_on_c, 0, 73, 0
2, 21240, Note_on_c, 0, 85, 39
2, 21360, Note_on_c, 0, 85, 0
2, 21360, Note_on_c, 0, 73, 41
2, 21360, Note_on_c, 0, 82, 49
2, 21480, Note_on_c, 0, 82, 0
2, 21480, Note_on_c, 0, 73, 0
2, 21480, Note_on_c, 0, 85, 43
2, 21600, Note_on_c, 0, 85, 0
2, 21600, Note_on_c, 0, 73, 37
2, 21600, Note_on_c, 0, 77, 44
2, 21720, Note_on_c, 0, 77, 0
2, 21720, Note_on_c, 0, 73, 0
2, 21720, Note_on_c, 0, 80, 38
2, 21840, Note_on_c, 0, 80, 0
2, 21840, Note_on_c, 0, 73, 35
2, 21840, Note_on_c, 0, 77, 42
2, 21960, Note_on_c, 0, 77, 0
2, 21960, Note_on_c, 0, 73, 0
2, 21960, Note_on_c, 0, 80, 34
2, 22080, Note_on_c, 0, 80, 0
2, 22080, Note_on_c, 0, 73, 34
2, 22080, Note_on_c, 0, 77, 40
2, 22200, Note_on_c, 0, 77, 0
2, 22200, Note_on_c, 0, 73, 0
2, 22200, Note_on_c, 0, 80, 33
2, 22320, Note_on_c, 0, 80, 0
2, 22320, Note_on_c, 0, 72, 31
2, 22320, Note_on_c, 0, 78, 37
2, 22440, Note_on_c, 0, 78, 0
2, 22440, Note_on_c, 0, 72, 0
2, 22440, Note_on_c, 0, 80, 32
2, 22560, Note_on_c, 0, 80, 0
2, 22560, Note_on_c, 0, 72, 31
2, 22560, Note_on_c, 0, 78, 38
2, 22680, Note_on_c, 0, 78, 0
2, 22680, Note_on_c, 0, 72, 0
2, 22680, Note_on_c, 0, 80, 31
2, 22800, Note_on_c, 0, 80, 0
2, 22800, Note_on_c, 0, 72, 31
2, 22800, Note_on_c, 0, 78, 38
2, 22920, Note_on_c, 0, 78, 0
2, 22920, Note_on_c, 0, 72, 0
2, 22920, Note_on_c, 0, 80, 32
2, 23040, Note_on_c, 0, 80, 0
2, 23040, Note_on_c, 0, 73, 31
2, 23040, Note_on_c, 0, 77, 31
2, 23040, Note_on_c, 0, 80, 37
2, 23280, Note_on_c, 0, 80, 0
2, 23280, Note_on_c, 0, 77, 0
2, 23280, Note_on_c, 0, 73, 0
2, 24420, Note_on_c, 0, 73, 40
2, 24450, Note_on_c, 0, 77, 40
2, 24480, Note_on_c, 0, 80, 51
2, 24600, Note_on_c, 0, 80, 0
2, 24600, Note_on_c, 0, 77, 0
2, 24600, Note_on_c, 0, 73, 0
2, 24720, Note_on_c, 0, 78, 40
2, 24840, Note_on_c, 0, 78, 0
2, 24840, Note_on_c, 0, 77, 40
2, 24960, Note_on_c, 0, 77, 0
2, 24960, Note_on_c, 0, 75, 40
2, 25080, Note_on_c, 0, 75, 0
2, 25080, Note_on_c, 0, 73, 40
2, 25140, Note_on_c, 0, 68, 40
2, 25170, Note_on_c, 0, 72, 40
2, 25200, Note_on_c, 0, 73, 0
2, 25200, Note_on_c, 0, 75, 49
2, 25320, Note_on_c, 0, 75, 0
2, 25320, Note_on_c, 0, 72, 0
2, 25320, Note_on_c, 0, 68, 0
2, 25440, Note_on_c, 0, 73, 40
2, 25560, Note_on_c, 0, 73, 0
2, 25560, Note_on_c, 0, 72, 40
2, 25680, Note_on_c, 0, 72, 0
2, 25680, Note_on_c, 0, 70, 40
2, 25800, Note_on_c, 0, 70, 0
2, 25800, Note_on_c, 0, 68, 40
2, 25860, Note_on_c, 0, 73, 40
2, 25890, Note_on_c, 0, 77, 40
2, 25920, Note_on_c, 0, 68, 0
2, 25920, Note_on_c, 0, 80, 53
2, 26040, Note_on_c, 0, 80, 0
2, 26040, Note_on_c, 0, 77, 0
2, 26040, Note_on_c, 0, 73, 0
2, 26160, Note_on_c, 0, 78, 42
2, 26280, Note_on_c, 0, 78, 0
2, 26280, Note_on_c, 0, 77, 45
2, 26400, Note_on_c, 0, 77, 0
2, 26400, Note_on_c, 0, 75, 47
2, 26520, Note_on_c, 0, 75, 0
2, 26520, Note_on_c, 0, 73, 51
2, 26640, Note_on_c, 0, 73, 0
2, 26640, Note_on_c, 0, 85, 57
2, 26640, Note_on_c, 0, 82, 57
2, 26640, Note_on_c, 0, 78, 57
2, 26700, Note_on_c, 0, 78, 0
2, 26700, Note_on_c, 0, 82, 0
2, 26700, Note_on_c, 0, 85, 0
2, 26880, Note_on_c, 0, 78, 51
2, 26880, Note_on_c, 0, 82, 51
2, 26880, Note_on_c, 0, 85, 51
2, 26940, Note_on_c, 0, 85, 0
2, 26940, Note_on_c, 0, 82, 0
2, 26940, Note_on_c, 0, 78, 0
2, 27120, Note_on_c, 0, 78, 51
2, 27120, Note_on_c, 0, 82, 51
2, 27120, Note_on_c, 0, 85, 51
2, 27180, Note_on_c, 0, 85, 0
2, 27180, Note_on_c, 0, 82, 0
2, 27180, Note_on_c, 0, 78, 0
2, 28800, Note_on_c, 0, 65, 49
2, 28980, Note_on_c, 0, 68, 32
2, 29040, Note_on_c, 0, 68, 0
2, 29040, Note_on_c, 0, 65, 0
2, 29040, Note_on_c, 0, 66, 41
2, 29280, Note_on_c, 0, 66, 0
2, 29280, Note_on_c, 0, 65, 41
2, 29520, Note_on_c, 0, 65, 0
2, 29520, Note_on_c, 0, 63, 48
2, 29760, Note_on_c, 0, 63, 0
2, 29760, Note_on_c, 0, 65, 41
2, 29880, Note_on_c, 0, 65, 0
2, 29880, Note_on_c, 0, 66, 41
2, 30000, Note_on_c, 0, 66, 0
2, 30000, Note_on_c, 0, 68, 43
2, 30120, Note_on_c, 0, 68, 0
2, 30120, Note_on_c, 0, 70, 44
2, 30240, Note_on_c, 0, 70, 0
2, 30240, Note_on_c, 0, 72, 52
2, 30480, Note_on_c, 0, 72, 0
2, 30480, Note_on_c, 0, 70, 50
2, 30600, Note_on_c, 0, 70, 0
2, 30600, Note_on_c, 0, 72, 46
2, 30720, Note_on_c, 0, 72, 0
2, 30720, Note_on_c, 0, 73, 48
2, 30840, Note_on_c, 0, 73, 0
2, 30840, Note_on_c, 0, 75, 50
2, 30960, Note_on_c, 0, 75, 0
2, 30960, Note_on_c, 0, 77, 53
2, 31020, Note_on_c, 0, 77, 0
2, 31200, Note_on_c, 0, 77, 45
2, 31260, Note_on_c, 0, 77, 0
2, 31440, Note_on_c, 0, 77, 44
2, 31500, Note_on_c, 0, 77, 0
2, 33060, Note_on_c, 0, 73, 40
2, 33090, Note_on_c, 0, 77, 40
2, 33120, Note_on_c, 0, 80, 51
2, 33240, Note_on_c, 0, 80, 0
2, 33240, Note_on_c, 0, 77, 0
2, 33240, Note_on_c, 0, 73, 0
2, 33360, Note_on_c, 0, 78, 40
2, 33480, Note_on_c, 0, 78, 0
2, 33480, Note_on_c, 0, 77, 40
2, 33600, Note_on_c, 0, 77, 0
2, 33600, Note_on_c, 0, 75, 40
2, 33720, Note_on_c, 0, 75, 0
2, 33720, Note_on_c, 0, 73, 40
2, 33780, Note_on_c, 0, 68, 40
2, 33810, Note_on_c, 0, 72, 40
2, 33840, Note_on_c, 0, 73, 0
2, 33840, Note_on_c, 0, 75, 49
2, 33960, Note_on_c, 0, 75, 0
2, 33960, Note_on_c, 0, 72, 0
2, 33960, Note_on_c, 0, 68, 0
2, 34080, Note_on_c, 0, 73, 40
2, 34200, Note_on_c, 0, 73, 0
2, 34200, Note_on_c, 0, 72, 40
2, 34320, Note_on_c, 0, 72, 0
2, 34320, Note_on_c, 0, 70, 40
2, 34440, Note_on_c, 0, 70, 0
2, 34440, Note_on_c, 0, 68, 40
2, 34500, Note_on_c, 0, 73, 40
2, 34530, Note_on_c, 0, 77, 40
2, 34560, Note_on_c, 0, 68, 0
2, 34560, Note_on_c, 0, 80, 53
2, 34680, Note_on_c, 0, 80, 0
2, 34680, Note_on_c, 0, 77, 0
2, 34680, Note_on_c, 0, 73, 0
2, 34800, Note_on_c, 0, 78, 42
2, 34920, Note_on_c, 0, 78, 0
2, 34920, Note_on_c, 0, 77, 45
2, 35040, Note_on_c, 0, 77, 0
2, 35040, Note_on_c, 0, 75, 47
2, 35160, Note_on_c, 0, 75, 0
2, 35160, Note_on_c, 0, 73, 51
2, 35280, Note_on_c, 0, 73, 0
2, 35280, Note_on_c, 0, 85, 57
2, 35280, Note_on_c, 0, 81, 57
2, 35280, Note_on_c, 0, 78, 57
2, 35340, Note_on_c, 0, 78, 0
2, 35340, Note_on_c, 0, 81, 0
2, 35340, Note_on_c, 0, 85, 0
2, 35520, Note_on_c, 0, 78, 51
2, 35520, Note_on_c, 0, 81, 51
2, 35520, Note_on_c, 0, 85, 51
2, 35580, Note_on_c, 0, 85, 0
2, 35580, Note_on_c, 0, 81, 0
2, 35580, Note_on_c, 0, 78, 0
2, 35760, Note_on_c, 0, 78, 51
2, 35760, Note_on_c, 0, 81, 51
2, 35760, Note_on_c, 0, 85, 51
2, 35820, Note_on_c, 0, 85, 0
2, 35820, Note_on_c, 0, 81, 0
2, 35820, Note_on_c, 0, 78, 0
2, 37440, Note_on_c, 0, 73, 53
2, 37620, Note_on_c, 0, 76, 38
2, 37680, Note_on_c, 0, 76, 0
2, 37680, Note_on_c, 0, 73, 0
2, 37680, Note_on_c, 0, 74, 45
2, 37920, Note_on_c, 0, 74, 0
2, 37920, Note_on_c, 0, 73, 45
2, 38160, Note_on_c, 0, 73, 0
2, 38160, Note_on_c, 0, 71, 52
2, 38400, Note_on_c, 0, 71, 0
2, 38400, Note_on_c, 0, 73, 45
2, 38520, Note_on_c, 0, 73, 0
2, 38520, Note_on_c, 0, 74, 45
2, 38640, Note_on_c, 0, 74, 0
2, 38640, Note_on_c, 0, 76, 47
2, 38760, Note_on_c, 0, 76, 0
2, 38760, Note_on_c, 0, 78, 48
2, 38880, Note_on_c, 0, 78, 0
2, 38880, Note_on_c, 0, 80, 52
2, 39120, Note_on_c, 0, 80, 0
2, 39120, Note_on_c, 0, 78, 53
2, 39240, Note_on_c, 0, 78, 0
2, 39240, Note_on_c, 0, 80, 43
2, 39360, Note_on_c, 0, 80, 0
2, 39360, Note_on_c, 0, 81, 46
2, 39480, Note_on_c, 0, 81, 0
2, 39480, Note_on_c, 0, 83, 49
2, 39600, Note_on_c, 0, 83, 0
2, 39600, Note_on_c, 0, 85, 52
2, 39660, Note_on_c, 0, 85, 0
2, 39840, Note_on_c, 0, 85, 49
2, 39900, Note_on_c, 0, 85, 0
2, 40080, Note_on_c, 0, 85, 48
2, 40140, Note_on_c, 0, 85, 0
2, 41040, Note_on_c, 0, 73, 53
2, 41055, Note_on_c, 0, 73, 0
2, 41280, Note_on_c, 0, 73, 45
2, 41295, Note_on_c, 0, 73, 0
2, 41520, Note_on_c, 0, 73, 45
2, 41535, Note_on_c, 0, 73, 0
2, 41760, Note_on_c, 0, 73, 52
2, 42000, Note_on_c, 0, 73, 0
2, 42000, Note_on_c, 0, 76, 45
2, 42120, Note_on_c, 0, 76, 0
2, 42120, Note_on_c, 0, 74, 45
2, 42240, Note_on_c, 0, 74, 0
2, 42240, Note_on_c, 0, 73, 47
2, 42360, Note_on_c, 0, 73, 0
2, 42360, Note_on_c, 0, 76, 48
2, 42480, Note_on_c, 0, 76, 0
2, 42480, Note_on_c, 0, 74, 52
2, 42540, Note_on_c, 0, 74, 0
2, 42720, Note_on_c, 0, 74, 52
2, 42780, Note_on_c, 0, 74, 0
2, 42960, Note_on_c, 0, 74, 51
2, 43020, Note_on_c, 0, 74, 0
2, 43200, Note_on_c, 0, 86, 52
2, 43260, Note_on_c, 0, 86, 0
2, 43440, Note_on_c, 0, 86, 49
2, 43500, Note_on_c, 0, 86, 0
2, 43680, Note_on_c, 0, 86, 48
2, 43740, Note_on_c, 0, 86, 0
2, 44640, Note_on_c, 0, 74, 53
2, 44700, Note_on_c, 0, 74, 0
2, 44880, Note_on_c, 0, 74, 45
2, 44940, Note_on_c, 0, 74, 0
2, 45120, Note_on_c, 0, 74, 45
2, 45180, Note_on_c, 0, 74, 0
2, 45360, Note_on_c, 0, 74, 52
2, 45600, Note_on_c, 0, 74, 0
2, 45600, Note_on_c, 0, 77, 45
2, 45720, Note_on_c, 0, 77, 0
2, 45720, Note_on_c, 0, 76, 45
2, 45840, Note_on_c, 0, 76, 0
2, 45840, Note_on_c, 0, 74, 47
2, 45960, Note_on_c, 0, 74, 0
2, 45960, Note_on_c, 0, 77, 48
2, 46080, Note_on_c, 0, 77, 0
2, 46080, Note_on_c, 0, 74, 52
2, 46140, Note_on_c, 0, 74, 0
2, 46320, Note_on_c, 0, 74, 52
2, 46380, Note_on_c, 0, 74, 0
2, 46560, Note_on_c, 0, 74, 52
2, 46620, Note_on_c, 0, 74, 0
2, 46800, Note_on_c, 0, 86, 52
2, 46860, Note_on_c, 0, 86, 0
2, 47040, Note_on_c, 0, 86, 49
2, 47100, Note_on_c, 0, 86, 0
2, 47280, Note_on_c, 0, 86, 48
2, 47340, Note_on_c, 0, 86, 0
2, 47520, Note_on_c, 0, 74, 56
2, 47760, Note_on_c, 0, 74, 0
2, 47760, Note_on_c, 0, 73, 52
2, 48000, Note_on_c, 0, 73, 0
2, 48000, Note_on_c, 0, 74, 52
2, 48240, Note_on_c, 0, 74, 0
2, 48240, Note_on_c, 0, 86, 56
2, 48480, Note_on_c, 0, 86, 0
2, 48480, Note_on_c, 0, 85, 52
2, 48720, Note_on_c, 0, 85, 0
2, 48720, Note_on_c, 0, 86, 52
2, 48960, Note_on_c, 0, 86, 0
2, 48960, Note_on_c, 0, 82, 54
2, 49200, Note_on_c, 0, 82, 0
2, 49200, Note_on_c, 0, 81, 47
2, 49440, Note_on_c, 0, 81, 0
2, 49440, Note_on_c, 0, 82, 48
2, 49680, Note_on_c, 0, 82, 0
2, 49680, Note_on_c, 0, 79, 51
2, 49920, Note_on_c, 0, 79, 0
2, 49920, Note_on_c, 0, 81, 48
2, 50040, Note_on_c, 0, 81, 0
2, 50040, Note_on_c, 0, 82, 49
2, 50160, Note_on_c, 0, 82, 0
2, 50160, Note_on_c, 0, 84, 51
2, 50280, Note_on_c, 0, 84, 0
2, 50280, Note_on_c, 0, 86, 52
2, 50400, Note_on_c, 0, 86, 0
2, 50400, Note_on_c, 0, 82, 57
2, 50640, Note_on_c, 0, 82, 0
2, 50640, Note_on_c, 0, 84, 58
2, 50760, Note_on_c, 0, 84, 0
2, 50760, Note_on_c, 0, 82, 51
2, 50880, Note_on_c, 0, 82, 0
2, 50880, Note_on_c, 0, 81, 56
2, 51000, Note_on_c, 0, 81, 0
2, 51000, Note_on_c, 0, 79, 51
2, 51120, Note_on_c, 0, 79, 0
2, 51120, Note_on_c, 0, 77, 61
2, 51180, Note_on_c, 0, 77, 0
2, 51360, Note_on_c, 0, 77, 56
2, 51420, Note_on_c, 0, 77, 0
2, 51600, Note_on_c, 0, 77, 56
2, 51660, Note_on_c, 0, 77, 0
2, 51840, Note_on_c, 0, 78, 69
2, 52080, Note_on_c, 0, 78, 0
2, 52080, Note_on_c, 0, 90, 66
2, 52320, Note_on_c, 0, 90, 0
2, 52320, Note_on_c, 0, 90, 67
2, 52380, Note_on_c, 0, 90, 0
2, 52560, Note_on_c, 0, 91, 76
2, 52800, Note_on_c, 0, 91, 0
2, 52800, Note_on_c, 0, 79, 61
2, 53040, Note_on_c, 0, 79, 0
2, 53040, Note_on_c, 0, 79, 61
2, 53100, Note_on_c, 0, 79, 0
2, 53280, Note_on_c, 0, 81, 65
2, 53340, Note_on_c, 0, 81, 0
2, 53490, Note_on_c, 0, 94, 62
2, 53520, Note_on_c, 0, 94, 0
2, 53520, Note_on_c, 0, 93, 65
2, 53640, Note_on_c, 0, 93, 0
2, 53640, Note_on_c, 0, 91, 62
2, 53760, Note_on_c, 0, 91, 0
2, 53760, Note_on_c, 0, 93, 66
2, 54000, Note_on_c, 0, 93, 0
2, 54000, Note_on_c, 0, 94, 68
2, 54060, Note_on_c, 0, 94, 0
2, 54210, Note_on_c, 0, 84, 61
2, 54240, Note_on_c, 0, 84, 0
2, 54240, Note_on_c, 0, 82, 63
2, 54360, Note_on_c, 0, 82, 0
2, 54360, Note_on_c, 0, 81, 60
2, 54480, Note_on_c, 0, 81, 0
2, 54480, Note_on_c, 0, 82, 65
2, 54600, Note_on_c, 0, 82, 0
2, 54720, Note_on_c, 0, 75, 44
2, 54720, Note_on_c, 0, 79, 52
2, 54840, Note_on_c, 0, 79, 0
2, 54840, Note_on_c, 0, 75, 0
2, 54840, Note_on_c, 0, 82, 46
2, 54960, Note_on_c, 0, 82, 0
2, 54960, Note_on_c, 0, 75, 45
2, 54960, Note_on_c, 0, 79, 53
2, 55080, Note_on_c, 0, 79, 0
2, 55080, Note_on_c, 0, 75, 0
2, 55080, Note_on_c, 0, 82, 45
2, 55200, Note_on_c, 0, 82, 0
2, 55200, Note_on_c, 0, 75, 45
2, 55200, Note_on_c, 0, 79, 53
2, 55320, Note_on_c, 0, 79, 0
2, 55320, Note_on_c, 0, 75, 0
2, 55320, Note_on_c, 0, 82, 46
2, 55440, Note_on_c, 0, 82, 0
2, 55440, Note_on_c, 0, 75, 46
2, 55440, Note_on_c, 0, 79, 54
2, 55560, Note_on_c, 0, 79, 0
2, 55560, Note_on_c, 0, 75, 0
2, 55560, Note_on_c, 0, 84, 46
2, 55680, Note_on_c, 0, 84, 0
2, 55680, Note_on_c, 0, 75, 45
2, 55680, Note_on_c, 0, 79, 53
2, 55800, Note_on_c, 0, 79, 0
2, 55800, Note_on_c, 0, 75, 0
2, 55800, Note_on_c, 0, 84, 45
2, 55920, Note_on_c, 0, 84, 0
2, 55920, Note_on_c, 0, 75, 45
2, 55920, Note_on_c, 0, 79, 53
2, 56040, Note_on_c, 0, 79, 0
2, 56040, Note_on_c, 0, 75, 0
2, 56040, Note_on_c, 0, 84, 45
2, 56160, Note_on_c, 0, 84, 0
2, 56160, Note_on_c, 0, 75, 48
2, 56160, Note_on_c, 0, 79, 57
2, 56280, Note_on_c, 0, 79, 0
2, 56280, Note_on_c, 0, 75, 0
2, 56280, Note_on_c, 0, 82, 46
2, 56400, Note_on_c, 0, 82, 0
2, 56400, Note_on_c, 0, 79, 53
2, 56400, Note_on_c, 0, 75, 45
2, 56520, Note_on_c, 0, 75, 0
2, 56520, Note_on_c, 0, 79, 0
2, 56520, Note_on_c, 0, 82, 45
2, 56640, Note_on_c, 0, 82, 0
2, 56640, Note_on_c, 0, 75, 45
2, 56640, Note_on_c, 0, 79, 53
2, 56760, Note_on_c, 0, 79, 0
2, 56760, Note_on_c, 0, 75, 0
2, 56760, Note_on_c, 0, 82, 45
2, 56880, Note_on_c, 0, 82, 0
2, 56880, Note_on_c, 0, 74, 51
2, 56880, Note_on_c, 0, 80, 61
2, 57000, Note_on_c, 0, 80, 0
2, 57000, Note_on_c, 0, 74, 0
2, 57000, Note_on_c, 0, 82, 46
2, 57120, Note_on_c, 0, 82, 0
2, 57120, Note_on_c, 0, 74, 45
2, 57120, Note_on_c, 0, 80, 53
2, 57240, Note_on_c, 0, 80, 0
2, 57240, Note_on_c, 0, 74, 0
2, 57240, Note_on_c, 0, 82, 48
2, 57360, Note_on_c, 0, 82, 0
2, 57360, Note_on_c, 0, 74, 45
2, 57360, Note_on_c, 0, 80, 53
2, 57480, Note_on_c, 0, 80, 0
2, 57480, Note_on_c, 0, 74, 0
2, 57480, Note_on_c, 0, 82, 46
2, 57600, Note_on_c, 0, 82, 0
2, 57600, Note_on_c, 0, 74, 49
2, 57600, Note_on_c, 0, 80, 58
2, 57720, Note_on_c, 0, 80, 0
2, 57720, Note_on_c, 0, 74, 0
2, 57720, Note_on_c, 0, 86, 46
2, 57840, Note_on_c, 0, 86, 0
2, 57840, Note_on_c, 0, 74, 45
2, 57840, Note_on_c, 0, 80, 53
2, 57960, Note_on_c, 0, 80, 0
2, 57960, Note_on_c, 0, 74, 0
2, 57960, Note_on_c, 0, 86, 46
2, 58080, Note_on_c, 0, 86, 0
2, 58080, Note_on_c, 0, 74, 45
2, 58080, Note_on_c, 0, 80, 53
2, 58200, Note_on_c, 0, 80, 0
2, 58200, Note_on_c, 0, 74, 0
2, 58200, Note_on_c, 0, 86, 46
2, 58320, Note_on_c, 0, 86, 0
2, 58320, Note_on_c, 0, 75, 48
2, 58320, Note_on_c, 0, 79, 57
2, 58440, Note_on_c, 0, 79, 0
2, 58440, Note_on_c, 0, 75, 0
2, 58440, Note_on_c, 0, 87, 46
2, 58560, Note_on_c, 0, 87, 0
2, 58560, Note_on_c, 0, 75, 45
2, 58560, Note_on_c, 0, 79, 53
2, 58680, Note_on_c, 0, 79, 0
2, 58680, Note_on_c, 0, 75, 0
2, 58680, Note_on_c, 0, 87, 46
2, 58800, Note_on_c, 0, 87, 0
2, 58800, Note_on_c, 0, 75, 45
2, 58800, Note_on_c, 0, 79, 53
2, 58920, Note_on_c, 0, 79, 0
2, 58920, Note_on_c, 0, 75, 0
2, 58920, Note_on_c, 0, 86, 46
2, 59040, Note_on_c, 0, 86, 0
2, 59040, Note_on_c, 0, 75, 45
2, 59040, Note_on_c, 0, 81, 53
2, 59160, Note_on_c, 0, 81, 0
2, 59160, Note_on_c, 0, 75, 0
2, 59160, Note_on_c, 0, 84, 46
2, 59280, Note_on_c, 0, 84, 0
2, 59280, Note_on_c, 0, 75, 45
2, 59280, Note_on_c, 0, 81, 53
2, 59400, Note_on_c, 0, 81, 0
2, 59400, Note_on_c, 0, 75, 0
2, 59400, Note_on_c, 0, 84, 46
2, 59520, Note_on_c, 0, 84, 0
2, 59520, Note_on_c, 0, 75, 45
2, 59520, Note_on_c, 0, 81, 53
2, 59640, Note_on_c, 0, 81, 0
2, 59640, Note_on_c, 0, 75, 0
2, 59640, Note_on_c, 0, 84, 46
2, 59760, Note_on_c, 0, 84, 0
2, 59760, Note_on_c, 0, 74, 45
2, 59760, Note_on_c, 0, 82, 53
2, 59880, Note_on_c, 0, 82, 0
2, 59880, Note_on_c, 0, 74, 0
2, 59880, Note_on_c, 0, 86, 46
2, 60000, Note_on_c, 0, 86, 0
2, 60000, Note_on_c, 0, 74, 45
2, 60000, Note_on_c, 0, 82, 53
2, 60120, Note_on_c, 0, 82, 0
2, 60120, Note_on_c, 0, 74, 0
2, 60120, Note_on_c, 0, 86, 46
2, 60240, Note_on_c, 0, 86, 0
2, 60240, Note_on_c, 0, 74, 45
2, 60240, Note_on_c, 0, 82, 53
2, 60360, Note_on_c, 0, 82, 0
2, 60360, Note_on_c, 0, 74, 0
2, 60360, Note_on_c, 0, 86, 46
2, 60480, Note_on_c, 0, 86, 0
2, 60480, Note_on_c, 0, 75, 46
2, 60480, Note_on_c, 0, 81, 54
2, 60600, Note_on_c, 0, 81, 0
2, 60600, Note_on_c, 0, 75, 0
2, 60600, Note_on_c, 0, 84, 46
2, 60720, Note_on_c, 0, 84, 0
2, 60720, Note_on_c, 0, 75, 45
2, 60720, Note_on_c, 0, 81, 53
2, 60840, Note_on_c, 0, 81, 0
2, 60840, Note_on_c, 0, 75, 0
2, 60840, Note_on_c, 0, 84, 45
2, 60960, Note_on_c, 0, 84, 0
2, 60960, Note_on_c, 0, 75, 45
2, 60960, Note_on_c, 0, 81, 53
2, 61080, Note_on_c, 0, 81, 0
2, 61080, Note_on_c, 0, 75, 0
2, 61080, Note_on_c, 0, 84, 45
2, 61200, Note_on_c, 0, 84, 0
2, 61200, Note_on_c, 0, 74, 48
2, 61200, Note_on_c, 0, 82, 57
2, 61320, Note_on_c, 0, 82, 0
2, 61320, Note_on_c, 0, 74, 0
2, 61320, Note_on_c, 0, 86, 46
2, 61440, Note_on_c, 0, 86, 0
2, 61440, Note_on_c, 0, 82, 53
2, 61440, Note_on_c, 0, 74, 45
2, 61560, Note_on_c, 0, 74, 0
2, 61560, Note_on_c, 0, 82, 0
2, 61560, Note_on_c, 0, 86, 45
2, 61680, Note_on_c, 0, 86, 0
2, 61680, Note_on_c, 0, 74, 45
2, 61680, Note_on_c, 0, 82, 53
2, 61800, Note_on_c, 0, 82, 0
2, 61800, Note_on_c, 0, 74, 0
2, 61800, Note_on_c, 0, 86, 45
2, 61920, Note_on_c, 0, 86, 0
2, 61920, Note_on_c, 0, 75, 41
2, 61920, Note_on_c, 0, 81, 49
2, 62040, Note_on_c, 0, 81, 0
2, 62040, Note_on_c, 0, 75, 0
2, 62040, Note_on_c, 0, 84, 41
2, 62160, Note_on_c, 0, 84, 0
2, 62160, Note_on_c, 0, 75, 40
2, 62160, Note_on_c, 0, 81, 48
2, 62280, Note_on_c, 0, 81, 0
2, 62280, Note_on_c, 0, 75, 0
2, 62280, Note_on_c, 0, 84, 40
2, 62400, Note_on_c, 0, 84, 0
2, 62400, Note_on_c, 0, 75, 40
2, 62400, Note_on_c, 0, 81, 48
2, 62520, Note_on_c, 0, 81, 0
2, 62520, Note_on_c, 0, 75, 0
2, 62520, Note_on_c, 0, 84, 40
2, 62640, Note_on_c, 0, 84, 0
2, 62640, Note_on_c, 0, 74, 42
2, 62640, Note_on_c, 0, 82, 51
2, 62760, Note_on_c, 0, 82, 0
2, 62760, Note_on_c, 0, 74, 0
2, 62760, Note_on_c, 0, 86, 41
2, 62880, Note_on_c, 0, 86, 0
2, 62880, Note_on_c, 0, 82, 48
2, 62880, Note_on_c, 0, 74, 40
2, 63000, Note_on_c, 0, 74, 0
2, 63000, Note_on_c, 0, 82, 0
2, 63000, Note_on_c, 0, 86, 40
2, 63120, Note_on_c, 0, 86, 0
2, 63120, Note_on_c, 0, 74, 40
2, 63120, Note_on_c, 0, 82, 48
2, 63240, Note_on_c, 0, 82, 0
2, 63240, Note_on_c, 0, 74, 0
2, 63240, Note_on_c, 0, 86, 40
2, 63360, Note_on_c, 0, 86, 0
2, 63360, Note_on_c, 0, 75, 35
2, 63360, Note_on_c, 0, 81, 43
2, 63480, Note_on_c, 0, 81, 0
2, 63480, Note_on_c, 0, 75, 0
2, 63480, Note_on_c, 0, 84, 37
2, 63600, Note_on_c, 0, 84, 0
2, 63600, Note_on_c, 0, 75, 35
2, 63600, Note_on_c, 0, 81, 42
2, 63720, Note_on_c, 0, 81, 0
2, 63720, Note_on_c, 0, 75, 0
2, 63720, Note_on_c, 0, 84, 35
2, 63840, Note_on_c, 0, 84, 0
2, 63840, Note_on_c, 0, 75, 35
2, 63840, Note_on_c, 0, 81, 42
2, 63960, Note_on_c, 0, 81, 0
2, 63960, Note_on_c, 0, 75, 0
2, 63960, Note_on_c, 0, 84, 35
2, 64080, Note_on_c, 0, 84, 0
2, 64080, Note_on_c, 0, 74, 38
2, 64080, Note_on_c, 0, 82, 45
2, 64200, Note_on_c, 0, 82, 0
2, 64200, Note_on_c, 0, 74, 0
2, 64200, Note_on_c, 0, 86, 37
2, 64320, Note_on_c, 0, 86, 0
2, 64320, Note_on_c, 0, 82, 42
2, 64320, Note_on_c, 0, 74, 35
2, 64440, Note_on_c, 0, 74, 0
2, 64440, Note_on_c, 0, 82, 0
2, 64440, Note_on_c, 0, 86, 35
2, 64560, Note_on_c, 0, 86, 0
2, 64560, Note_on_c, 0, 74, 35
2, 64560, Note_on_c, 0, 82, 42
2, 64800, Note_on_c, 0, 82, 0
2, 64800, Note_on_c, 0, 74, 0
2, 64800, Note_on_c, 0, 82, 56
2, 64860, Note_on_c, 0, 82, 0
2, 64980, Note_on_c, 0, 80, 48
2, 65040, Note_on_c, 0, 80, 0
2, 65040, Note_on_c, 0, 79, 56
2, 65160, Note_on_c, 0, 79, 0
2, 65160, Note_on_c, 0, 77, 52
2, 65280, Note_on_c, 0, 77, 0
2, 65280, Note_on_c, 0, 79, 56
2, 65520, Note_on_c, 0, 79, 0
2, 65520, Note_on_c, 0, 82, 56
2, 65580, Note_on_c, 0, 82, 0
2, 65700, Note_on_c, 0, 79, 48
2, 65760, Note_on_c, 0, 79, 0
2, 65760, Note_on_c, 0, 77, 56
2, 65880, Note_on_c, 0, 77, 0
2, 65880, Note_on_c, 0, 76, 52
2, 66000, Note_on_c, 0, 76, 0
2, 66000, Note_on_c, 0, 77, 56
2, 66240, Note_on_c, 0, 77, 0
2, 66240, Note_on_c, 0, 84, 58
2, 66480, Note_on_c, 0, 84, 0
2, 66480, Note_on_c, 0, 82, 59
2, 66600, Note_on_c, 0, 82, 0
2, 66600, Note_on_c, 0, 80, 54
2, 66720, Note_on_c, 0, 80, 0
2, 66720, Note_on_c, 0, 79, 58
2, 66840, Note_on_c, 0, 79, 0
2, 66840, Note_on_c, 0, 77, 58
2, 66960, Note_on_c, 0, 77, 0
2, 66960, Note_on_c, 0, 84, 58
2, 67200, Note_on_c, 0, 84, 0
2, 67200, Note_on_c, 0, 72, 56
2, 67440, Note_on_c, 0, 72, 0
2, 67440, Note_on_c, 0, 72, 56
2, 67680, Note_on_c, 0, 72, 0
2, 67680, Note_on_c, 0, 68, 37
2, 67680, Note_on_c, 0, 72, 44
2, 67800, Note_on_c, 0, 72, 0
2, 67800, Note_on_c, 0, 68, 0
2, 67800, Note_on_c, 0, 75, 39
2, 67920, Note_on_c, 0, 75, 0
2, 67920, Note_on_c, 0, 68, 38
2, 67920, Note_on_c, 0, 72, 45
2, 68040, Note_on_c, 0, 72, 0
2, 68040, Note_on_c, 0, 68, 0
2, 68040, Note_on_c, 0, 75, 38
2, 68160, Note_on_c, 0, 75, 0
2, 68160, Note_on_c, 0, 68, 38
2, 68160, Note_on_c, 0, 72, 45
2, 68280, Note_on_c, 0, 72, 0
2, 68280, Note_on_c, 0, 68, 0
2, 68280, Note_on_c, 0, 75, 39
2, 68400, Note_on_c, 0, 75, 0
2, 68400, Note_on_c, 0, 68, 37
2, 68400, Note_on_c, 0, 77, 44
2, 68520, Note_on_c, 0, 77, 0
2, 68520, Note_on_c, 0, 68, 0
2, 68520, Note_on_c, 0, 80, 39
2, 68640, Note_on_c, 0, 80, 0
2, 68640, Note_on_c, 0, 68, 39
2, 68640, Note_on_c, 0, 77, 47
2, 68760, Note_on_c, 0, 77, 0
2, 68760, Note_on_c, 0, 68, 0
2, 68760, Note_on_c, 0, 80, 39
2, 68880, Note_on_c, 0, 80, 0
2, 68880, Note_on_c, 0, 68, 41
2, 68880, Note_on_c, 0, 77, 49
2, 69000, Note_on_c, 0, 77, 0
2, 69000, Note_on_c, 0, 68, 0
2, 69000, Note_on_c, 0, 80, 43
2, 69120, Note_on_c, 0, 80, 0
2, 69120, Note_on_c, 0, 68, 37
2, 69120, Note_on_c, 0, 72, 44
2, 69240, Note_on_c, 0, 72, 0
2, 69240, Note_on_c, 0, 68, 0
2, 69240, Note_on_c, 0, 75, 38
2, 69360, Note_on_c, 0, 75, 0
2, 69360, Note_on_c, 0, 68, 35
2, 69360, Note_on_c, 0, 72, 42
2, 69480, Note_on_c, 0, 72, 0
2, 69480, Note_on_c, 0, 68, 0
2, 69480, Note_on_c, 0, 75, 34
2, 69600, Note_on_c, 0, 75, 0
2, 69600, Note_on_c, 0, 68, 34
2, 69600, Note_on_c, 0, 72, 40
2, 69720, Note_on_c, 0, 72, 0
2, 69720, Note_on_c, 0, 68, 0
2, 69720, Note_on_c, 0, 75, 33
2, 69840, Note_on_c, 0, 75, 0
2, 69840, Note_on_c, 0, 67, 31
2, 69840, Note_on_c, 0, 73, 37
2, 69960, Note_on_c, 0, 73, 0
2, 69960, Note_on_c, 0, 67, 0
2, 69960, Note_on_c, 0, 75, 32
2, 70080, Note_on_c, 0, 75, 0
2, 70080, Note_on_c, 0, 67, 31
2, 70080, Note_on_c, 0, 73, 38
2, 70200, Note_on_c, 0, 73, 0
2, 70200, Note_on_c, 0, 67, 0
2, 70200, Note_on_c, 0, 75, 31
2, 70320, Note_on_c, 0, 75, 0
2, 70320, Note_on_c, 0, 67, 31
2, 70320, Note_on_c, 0, 73, 38
2, 70440, Note_on_c, 0, 73, 0
2, 70440, Note_on_c, 0, 67, 0
2, 70440, Note_on_c, 0, 75, 32
2, 70560, Note_on_c, 0, 75, 0
2, 70560, Note_on_c, 0, 68, 47
2, 70560, Note_on_c, 0, 72, 47
2, 70560, Note_on_c, 0, 75, 56
2, 70620, Note_on_c, 0, 75, 0
2, 70620, Note_on_c, 0, 72, 0
2, 70620, Note_on_c, 0, 68, 0
2, 70740, Note_on_c, 0, 73, 49
2, 70800, Note_on_c, 0, 73, 0
2, 70800, Note_on_c, 0, 72, 56
2, 70920, Note_on_c, 0, 72, 0
2, 70920, Note_on_c, 0, 70, 52
2, 71040, Note_on_c, 0, 70, 0
2, 71040, Note_on_c, 0, 72, 56
2, 71280, Note_on_c, 0, 72, 0
2, 71280, Note_on_c, 0, 75, 56
2, 71340, Note_on_c, 0, 75, 0
2, 71460, Note_on_c, 0, 72, 49
2, 71520, Note_on_c, 0, 72, 0
2, 71520, Note_on_c, 0, 70, 56
2, 71640, Note_on_c, 0, 70, 0
2, 71640, Note_on_c, 0, 69, 52
2, 71760, Note_on_c, 0, 69, 0
2, 71760, Note_on_c, 0, 70, 56
2, 72000, Note_on_c, 0, 70, 0
2, 72000, Note_on_c, 0, 77, 58
2, 72240, Note_on_c, 0, 77, 0
2, 72240, Note_on_c, 0, 75, 59
2, 72360, Note_on_c, 0, 75, 0
2, 72360, Note_on_c, 0, 73, 54
2, 72480, Note_on_c, 0, 73, 0
2, 72480, Note_on_c, 0, 72, 58
2, 72600, Note_on_c, 0, 72, 0
2, 72600, Note_on_c, 0, 70, 58
2, 72720, Note_on_c, 0, 70, 0
2, 72720, Note_on_c, 0, 77, 58
2, 72960, Note_on_c, 0, 77, 0
2, 72960, Note_on_c, 0, 65, 56
2, 73200, Note_on_c, 0, 65, 0
2, 73200, Note_on_c, 0, 65, 56
2, 73440, Note_on_c, 0, 65, 0
2, 73440, Note_on_c, 0, 73, 37
2, 73440, Note_on_c, 0, 77, 44
2, 73560, Note_on_c, 0, 77, 0
2, 73560, Note_on_c, 0, 73, 0
2, 73560, Note_on_c, 0, 80, 39
2, 73680, Note_on_c, 0, 80, 0
2, 73680, Note_on_c, 0, 73, 38
2, 73680, Note_on_c, 0, 77, 45
2, 73800, Note_on_c, 0, 77, 0
2, 73800, Note_on_c, 0, 73, 0
2, 73800, Note_on_c, 0, 80, 38
2, 73920, Note_on_c, 0, 80, 0
2, 73920, Note_on_c, 0, 73, 38
2, 73920, Note_on_c, 0, 77, 45
2, 74040, Note_on_c, 0, 77, 0
2, 74040, Note_on_c, 0, 73, 0
2, 74040, Note_on_c, 0, 80, 39
2, 74160, Note_on_c, 0, 80, 0
2, 74160, Note_on_c, 0, 73, 37
2, 74160, Note_on_c, 0, 82, 44
2, 74280, Note_on_c, 0, 82, 0
2, 74280, Note_on_c, 0, 73, 0
2, 74280, Note_on_c, 0, 85, 39
2, 74400, Note_on_c, 0, 85, 0
2, 74400, Note_on_c, 0, 73, 39
2, 74400, Note_on_c, 0, 82, 47
2, 74520, Note_on_c, 0, 82, 0
2, 74520, Note_on_c, 0, 73, 0
2, 74520, Note_on_c, 0, 85, 39
2, 74640, Note_on_c, 0, 85, 0
2, 74640, Note_on_c, 0, 73, 41
2, 74640, Note_on_c, 0, 82, 49
2, 74760, Note_on_c, 0, 82, 0
2, 74760, Note_on_c, 0, 73, 0
2, 74760, Note_on_c, 0, 85, 43
2, 74880, Note_on_c, 0, 85, 0
2, 74880, Note_on_c, 0, 73, 37
2, 74880, Note_on_c, 0, 77, 44
2, 75000, Note_on_c, 0, 77, 0
2, 75000, Note_on_c, 0, 73, 0
2, 75000, Note_on_c, 0, 80, 38
2, 75120, Note_on_c, 0, 80, 0
2, 75120, Note_on_c, 0, 73, 35
2, 75120, Note_on_c, 0, 77, 42
2, 75240, Note_on_c, 0, 77, 0
2, 75240, Note_on_c, 0, 73, 0
2, 75240, Note_on_c, 0, 80, 34
2, 75360, Note_on_c, 0, 80, 0
2, 75360, Note_on_c, 0, 73, 34
2, 75360, Note_on_c, 0, 77, 40
2, 75480, Note_on_c, 0, 77, 0
2, 75480, Note_on_c, 0, 73, 0
2, 75480, Note_on_c, 0, 80, 33
2, 75600, Note_on_c, 0, 80, 0
2, 75600, Note_on_c, 0, 72, 31
2, 75600, Note_on_c, 0, 78, 37
2, 75720, Note_on_c, 0, 78, 0
2, 75720, Note_on_c, 0, 72, 0
2, 75720, Note_on_c, 0, 80, 32
2, 75840, Note_on_c, 0, 80, 0
2, 75840, Note_on_c, 0, 72, 31
2, 75840, Note_on_c, 0, 78, 38
2, 75960, Note_on_c, 0, 78, 0
2, 75960, Note_on_c, 0, 72, 0
2, 75960, Note_on_c, 0, 80, 31
2, 76080, Note_on_c, 0, 80, 0
2, 76080, Note_on_c, 0, 72, 31
2, 76080, Note_on_c, 0, 78, 38
2, 76200, Note_on_c, 0, 78, 0
2, 76200, Note_on_c, 0, 72, 0
2, 76200, Note_on_c, 0, 80, 32
2, 76320, Note_on_c, 0, 80, 0
2, 76320, Note_on_c, 0, 73, 31
2, 76320, Note_on_c, 0, 77, 31
2, 76320, Note_on_c, 0, 80, 37
2, 76560, Note_on_c, 0, 80, 0
2, 76560, Note_on_c, 0, 77, 0
2, 76560, Note_on_c, 0, 73, 0
2, 77700, Note_on_c, 0, 73, 40
2, 77730, Note_on_c, 0, 77, 40
2, 77760, Note_on_c, 0, 80, 51
2, 77880, Note_on_c, 0, 80, 0
2, 77880, Note_on_c, 0, 77, 0
2, 77880, Note_on_c, 0, 73, 0
2, 78000, Note_on_c, 0, 78, 40
2, 78120, Note_on_c, 0, 78, 0
2, 78120, Note_on_c, 0, 77, 40
2, 78240, Note_on_c, 0, 77, 0
2, 78240, Note_on_c, 0, 75, 40
2, 78360, Note_on_c, 0, 75, 0
2, 78360, Note_on_c, 0, 73, 40
2, 78420, Note_on_c, 0, 68, 40
2, 78450, Note_on_c, 0, 72, 40
2, 78480, Note_on_c, 0, 73, 0
2, 78480, Note_on_c, 0, 75, 49
2, 78600, Note_on_c, 0, 75, 0
2, 78600, Note_on_c, 0, 72, 0
2, 78600, Note_on_c, 0, 68, 0
2, 78720, Note_on_c, 0, 73, 40
2, 78840, Note_on_c, 0, 73, 0
2, 78840, Note_on_c, 0, 72, 40
2, 78960, Note_on_c, 0, 72, 0
2, 78960, Note_on_c, 0, 70, 40
2, 79080, Note_on_c, 0, 70, 0
2, 79080, Note_on_c, 0, 68, 40
2, 79140, Note_on_c, 0, 73, 40
2, 79170, Note_on_c, 0, 77, 40
2, 79200, Note_on_c, 0, 68, 0
2, 79200, Note_on_c, 0, 80, 53
2, 79320, Note_on_c, 0, 80, 0
2, 79320, Note_on_c, 0, 77, 0
2, 79320, Note_on_c, 0, 73, 0
2, 79440, Note_on_c, 0, 78, 42
2, 79560, Note_on_c, 0, 78, 0
2, 79560, Note_on_c, 0, 77, 45
2, 79680, Note_on_c, 0, 77, 0
2, 79680, Note_on_c, 0, 75, 47
2, 79800, Note_on_c, 0, 75, 0
2, 79800, Note_on_c, 0, 73, 51
2, 79920, Note_on_c, 0, 73, 0
2, 79920, Note_on_c, 0, 85, 57
2, 79920, Note_on_c, 0, 82, 57
2, 79920, Note_on_c, 0, 78, 57
2, 79980, Note_on_c, 0, 78, 0
2, 79980, Note_on_c, 0, 82, 0
2, 79980, Note_on_c, 0, 85, 0
2, 80160, Note_on_c, 0, 78, 51
2, 80160, Note_on_c, 0, 82, 51
2, 80160, Note_on_c, 0, 85, 51
2, 80220, Note_on_c, 0, 85, 0
2, 80220, Note_on_c, 0, 82, 0
2, 80220, Note_on_c, 0, 78, 0
2, 80400, Note_on_c, 0, 78, 51
2, 80400, Note_on_c, 0, 82, 51
2, 80400, Note_on_c, 0, 85, 51
2, 80460, Note_on_c, 0, 85, 0
2, 80460, Note_on_c, 0, 82, 0
2, 80460, Note_on_c, 0, 78, 0
2, 82080, Note_on_c, 0, 65, 49
2, 82260, Note_on_c, 0, 68, 32
2, 82320, Note_on_c, 0, 68, 0
2, 82320, Note_on_c, 0, 65, 0
2, 82320, Note_on_c, 0, 66, 41
2, 82560, Note_on_c, 0, 66, 0
2, 82560, Note_on_c, 0, 65, 41
2, 82800, Note_on_c, 0, 65, 0
2, 82800, Note_on_c, 0, 63, 48
2, 83040, Note_on_c, 0, 63, 0
2, 83040, Note_on_c, 0, 65, 41
2, 83160, Note_on_c, 0, 65, 0
2, 83160, Note_on_c, 0, 66, 41
2, 83280, Note_on_c, 0, 66, 0
2, 83280, Note_on_c, 0, 68, 43
2, 83400, Note_on_c, 0, 68, 0
2, 83400, Note_on_c, 0, 70, 44
2, 83520, Note_on_c, 0, 70, 0
2, 83520, Note_on_c, 0, 72, 52
2, 83760, Note_on_c, 0, 72, 0
2, 83760, Note_on_c, 0, 70, 50
2, 83880, Note_on_c, 0, 70, 0
2, 83880, Note_on_c, 0, 72, 46
2, 84000, Note_on_c, 0, 72, 0
2, 84000, Note_on_c, 0, 73, 48
2, 84120, Note_on_c, 0, 73, 0
2, 84120, Note_on_c, 0, 75, 50
2, 84240, Note_on_c, 0, 75, 0
2, 84240, Note_on_c, 0, 77, 53
2, 84300, Note_on_c, 0, 77, 0
2, 84480, Note_on_c, 0, 77, 45
2, 84540, Note_on_c, 0, 77, 0
2, 84720, Note_on_c, 0, 77, 44
2, 84780, Note_on_c, 0, 77, 0
2, 86340, Note_on_c, 0, 73, 40
2, 86370, Note_on_c, 0, 77, 40
2, 86400, Note_on_c, 0, 80, 51
2, 86520, Note_on_c, 0, 80, 0
2, 86520, Note_on_c, 0, 77, 0
2, 86520, Note_on_c, 0, 73, 0
2, 86640, Note_on_c, 0, 78, 40
2, 86760, Note_on_c, 0, 78, 0
2, 86760, Note_on_c, 0, 77, 40
2, 86880, Note_on_c, 0, 77, 0
2, 86880, Note_on_c, 0, 75, 40
2, 87000, Note_on_c, 0, 75, 0
2, 87000, Note_on_c, 0, 73, 40
2, 87060, Note_on_c, 0, 68, 40
2, 87090, Note_on_c, 0, 72, 40
2, 87120, Note_on_c, 0, 73, 0
2, 87120, Note_on_c, 0, 75, 49
2, 87240, Note_on_c, 0, 75, 0
2, 87240, Note_on_c, 0, 72, 0
2, 87240, Note_on_c, 0, 68, 0
2, 87360, Note_on_c, 0, 73, 40
2, 87480, Note_on_c, 0, 73, 0
2, 87480, Note_on_c, 0, 72, 40
2, 87600, Note_on_c, 0, 72, 0
2, 87600, Note_on_c, 0, 70, 40
2, 87720, Note_on_c, 0, 70, 0
2, 87720, Note_on_c, 0, 68, 40
2, 87780, Note_on_c, 0, 73, 40
2, 87810, Note_on_c, 0, 77, 40
2, 87840, Note_on_c, 0, 68, 0
2, 87840, Note_on_c, 0, 80, 53
2, 87960, Note_on_c, 0, 80, 0
2, 87960, Note_on_c, 0, 77, 0
2, 87960, Note_on_c, 0, 73, 0
2, 88080, Note_on_c, 0, 78, 42
2, 88200, Note_on_c, 0, 78, 0
2, 88200, Note_on_c, 0, 77, 45
2, 88320, Note_on_c, 0, 77, 0
2, 88320, Note_on_c, 0, 75, 47
2, 88440, Note_on_c, 0, 75, 0
2, 88440, Note_on_c, 0, 73, 51
2, 88560, Note_on_c, 0, 73, 0
2, 88560, Note_on_c, 0, 85, 57
2, 88560, Note_on_c, 0, 81, 57
2, 88560, Note_on_c, 0, 78, 57
2, 88620, Note_on_c, 0, 78, 0
2, 88620, Note_on_c, 0, 81, 0
2, 88620, Note_on_c, 0, 85, 0
2, 88800, Note_on_c, 0, 78, 51
2, 88800, Note_on_c, 0, 81, 51
2, 88800, Note_on_c, 0, 85, 51
2, 88860, Note_on_c, 0, 85, 0
2, 88860, Note_on_c, 0, 81, 0
2, 88860, Note_on_c, 0, 78, 0
2, 89040, Note_on_c, 0, 78, 51
2, 89040, Note_on_c, 0, 81, 51
2, 89040, Note_on_c, 0, 85, 51
2, 89100, Note_on_c, 0, 85, 0
2, 89100, Note_on_c, 0, 81, 0
2, 89100, Note_on_c, 0, 78, 0
2, 90720, Note_on_c, 0, 73, 53
2, 90900, Note_on_c, 0, 76, 38
2, 90960, Note_on_c, 0, 76, 0
2, 90960, Note_on_c, 0, 73, 0
2, 90960, Note_on_c, 0, 74, 45
2, 91200, Note_on_c, 0, 74, 0
2, 91200, Note_on_c, 0, 73, 45
2, 91440, Note_on_c, 0, 73, 0
2, 91440, Note_on_c, 0, 71, 52
2, 91680, Note_on_c, 0, 71, 0
2, 91680, Note_on_c, 0, 73, 45
2, 91800, Note_on_c, 0, 73, 0
2, 91800, Note_on_c, 0, 74, 45
2, 91920, Note_on_c, 0, 74, 0
2, 91920, Note_on_c, 0, 76, 47
2, 92040, Note_on_c, 0, 76, 0
2, 92040, Note_on_c, 0, 78, 48
2, 92160, Note_on_c, 0, 78, 0
2, 92160, Note_on_c, 0, 80, 52
2, 92400, Note_on_c, 0, 80, 0
2, 92400, Note_on_c, 0, 78, 53
2, 92520, Note_on_c, 0, 78, 0
2, 92520, Note_on_c, 0, 80, 43
2, 92640, Note_on_c, 0, 80, 0
2, 92640, Note_on_c, 0, 81, 46
2, 92760, Note_on_c, 0, 81, 0
2, 92760, Note_on_c, 0, 83, 49
2, 92880, Note_on_c, 0, 83, 0
2, 92880, Note_on_c, 0, 85, 52
2, 92940, Note_on_c, 0, 85, 0
2, 93120, Note_on_c, 0, 85, 49
2, 93180, Note_on_c, 0, 85, 0
2, 93360, Note_on_c, 0, 85, 48
2, 93420, Note_on_c, 0, 85, 0
2, 94320, Note_on_c, 0, 73, 53
2, 94380, Note_on_c, 0, 73, 0
2, 94560, Note_on_c, 0, 73, 45
2, 94620, Note_on_c, 0, 73, 0
2, 94800, Note_on_c, 0, 73, 45
2, 94860, Note_on_c, 0, 73, 0
2, 95040, Note_on_c, 0, 73, 52
2, 95280, Note_on_c, 0, 73, 0
2, 95280, Note_on_c, 0, 76, 45
2, 95400, Note_on_c, 0, 76, 0
2, 95400, Note_on_c, 0, 74, 45
2, 95520, Note_on_c, 0, 74, 0
2, 95520, Note_on_c, 0, 73, 47
2, 95640, Note_on_c, 0, 73, 0
2, 95640, Note_on_c, 0, 76, 48
2, 95760, Note_on_c, 0, 76, 0
2, 95760, Note_on_c, 0, 74, 52
2, 95820, Note_on_c, 0, 74, 0
2, 96000, Note_on_c, 0, 74, 52
2, 96060, Note_on_c, 0, 74, 0
2, 96240, Note_on_c, 0, 74, 51
2, 96300, Note_on_c, 0, 74, 0
2, 96480, Note_on_c, 0, 86, 52
2, 96540, Note_on_c, 0, 86, 0
2, 96720, Note_on_c, 0, 86, 49
2, 96780, Note_on_c, 0, 86, 0
2, 96960, Note_on_c, 0, 86, 48
2, 97020, Note_on_c, 0, 86, 0
2, 97920, Note_on_c, 0, 74, 53
2, 97980, Note_on_c, 0, 74, 0
2, 98160, Note_on_c, 0, 74, 45
2, 98220, Note_on_c, 0, 74, 0
2, 98400, Note_on_c, 0, 74, 45
2, 98460, Note_on_c, 0, 74, 0
2, 98640, Note_on_c, 0, 74, 52
2, 98880, Note_on_c, 0, 74, 0
2, 98880, Note_on_c, 0, 77, 45
2, 99000, Note_on_c, 0, 77, 0
2, 99000, Note_on_c, 0, 76, 45
2, 99120, Note_on_c, 0, 76, 0
2, 99120, Note_on_c, 0, 74, 47
2, 99240, Note_on_c, 0, 74, 0
2, 99240, Note_on_c, 0, 77, 48
2, 99360, Note_on_c, 0, 77, 0
2, 99360, Note_on_c, 0, 74, 52
2, 99420, Note_on_c, 0, 74, 0
2, 99600, Note_on_c, 0, 74, 52
2, 99660, Note_on_c, 0, 74, 0
2, 99840, Note_on_c, 0, 74, 52
2, 99900, Note_on_c, 0, 74, 0
2, 100080, Note_on_c, 0, 86, 52
2, 100140, Note_on_c, 0, 86, 0
2, 100320, Note_on_c, 0, 86, 49
2, 100380, Note_on_c, 0, 86, 0
2, 100560, Note_on_c, 0, 86, 48
2, 100620, Note_on_c, 0, 86, 0
2, 100800, Note_on_c, 0, 74, 56
2, 101040, Note_on_c, 0, 74, 0
2, 101040, Note_on_c, 0, 73, 52
2, 101280, Note_on_c, 0, 73, 0
2, 101280, Note_on_c, 0, 74, 52
2, 101520, Note_on_c, 0, 74, 0
2, 101520, Note_on_c, 0, 86, 56
2, 101760, Note_on_c, 0, 86, 0
2, 101760, Note_on_c, 0, 85, 52
2, 102000, Note_on_c, 0, 85, 0
2, 102000, Note_on_c, 0, 86, 52
2, 102240, Note_on_c, 0, 86, 0
2, 102240, Note_on_c, 0, 82, 54
2, 102480, Note_on_c, 0, 82, 0
2, 102480, Note_on_c, 0, 81, 47
2, 102720, Note_on_c, 0, 81, 0
2, 102720, Note_on_c, 0, 82, 48
2, 102960, Note_on_c, 0, 82, 0
2, 102960, Note_on_c, 0, 79, 51
2, 103200, Note_on_c, 0, 79, 0
2, 103200, Note_on_c, 0, 81, 48
2, 103320, Note_on_c, 0, 81, 0
2, 103320, Note_on_c, 0, 82, 49
2, 103440, Note_on_c, 0, 82, 0
2, 103440, Note_on_c, 0, 84, 51
2, 103560, Note_on_c, 0, 84, 0
2, 103560, Note_on_c, 0, 86, 52
2, 103680, Note_on_c, 0, 86, 0
2, 103680, Note_on_c, 0, 82, 57
2, 103920, Note_on_c, 0, 82, 0
2, 103920, Note_on_c, 0, 84, 58
2, 104040, Note_on_c, 0, 84, 0
2, 104040, Note_on_c, 0, 82, 51
2, 104160, Note_on_c, 0, 82, 0
2, 104160, Note_on_c, 0, 81, 56
2, 104280, Note_on_c, 0, 81, 0
2, 104280, Note_on_c, 0, 79, 51
2, 104400, Note_on_c, 0, 79, 0
2, 104400, Note_on_c, 0, 77, 61
2, 104460, Note_on_c, 0, 77, 0
2, 104640, Note_on_c, 0, 77, 56
2, 104700, Note_on_c, 0, 77, 0
2, 104880, Note_on_c, 0, 77, 56
2, 104940, Note_on_c, 0, 77, 0
2, 105120, Note_on_c, 0, 78, 69
2, 105360, Note_on_c, 0, 78, 0
2, 105360, Note_on_c, 0, 90, 66
2, 105600, Note_on_c, 0, 90, 0
2, 105600, Note_on_c, 0, 90, 67
2, 105660, Note_on_c, 0, 90, 0
2, 105840, Note_on_c, 0, 91, 76
2, 106080, Note_on_c, 0, 91, 0
2, 106080, Note_on_c, 0, 79, 61
2, 106320, Note_on_c, 0, 79, 0
2, 106320, Note_on_c, 0, 79, 61
2, 106380, Note_on_c, 0, 79, 0
2, 106560, Note_on_c, 0, 81, 65
2, 106620, Note_on_c, 0, 81, 0
2, 106770, Note_on_c, 0, 94, 62
2, 106800, Note_on_c, 0, 94, 0
2, 106800, Note_on_c, 0, 93, 65
2, 106920, Note_on_c, 0, 93, 0
2, 106920, Note_on_c, 0, 91, 62
2, 107040, Note_on_c, 0, 91, 0
2, 107040, Note_on_c, 0, 93, 66
2, 107280, Note_on_c, 0, 93, 0
2, 107280, Note_on_c, 0, 94, 68
2, 107340, Note_on_c, 0, 94, 0
2, 107490, Note_on_c, 0, 84, 61
2, 107520, Note_on_c, 0, 84, 0
2, 107520, Note_on_c, 0, 82, 63
2, 107640, Note_on_c, 0, 82, 0
2, 107640, Note_on_c, 0, 81, 60
2, 107760, Note_on_c, 0, 81, 0
2, 107760, Note_on_c, 0, 82, 65
2, 107880, Note_on_c, 0, 82, 0
2, 108000, Note_on_c, 0, 75, 44
2, 108000, Note_on_c, 0, 79, 52
2, 108120, Note_on_c, 0, 79, 0
2, 108120, Note_on_c, 0, 75, 0
2, 108120, Note_on_c, 0, 82, 46
2, 108240, Note_on_c, 0, 82, 0
2, 108240, Note_on_c, 0, 75, 45
2, 108240, Note_on_c, 0, 79, 53
2, 108360, Note_on_c, 0, 79, 0
2, 108360, Note_on_c, 0, 75, 0
2, 108360, Note_on_c, 0, 82, 45
2, 108480, Note_on_c, 0, 82, 0
2, 108480, Note_on_c, 0, 75, 45
2, 108480, Note_on_c, 0, 79, 53
2, 108600, Note_on_c, 0, 79, 0
2, 108600, Note_on_c, 0, 75, 0
2, 108600, Note_on_c, 0, 82, 46
2, 108720, Note_on_c, 0, 82, 0
2, 108720, Note_on_c, 0, 75, 46
2, 108720, Note_on_c, 0, 79, 54
2, 108840, Note_on_c, 0, 79, 0
2, 108840, Note_on_c, 0, 75, 0
2, 108840, Note_on_c, 0, 84, 46
2, 108960, Note_on_c, 0, 84, 0
2, 108960, Note_on_c, 0, 75, 45
2, 108960, Note_on_c, 0, 79, 53
2, 109080, Note_on_c, 0, 79, 0
2, 109080, Note_on_c, 0, 75, 0
2, 109080, Note_on_c, 0, 84, 45
2, 109200, Note_on_c, 0, 84, 0
2, 109200, Note_on_c, 0, 75, 45
2, 109200, Note_on_c, 0, 79, 53
2, 109320, Note_on_c, 0, 79, 0
2, 109320, Note_on_c, 0, 75, 0
2, 109320, Note_on_c, 0, 84, 45
2, 109440, Note_on_c, 0, 84, 0
2, 109440, Note_on_c, 0, 75, 48
2, 109440, Note_on_c, 0, 79, 57
2, 109560, Note_on_c, 0, 79, 0
2, 109560, Note_on_c, 0, 75, 0
2, 109560, Note_on_c, 0, 82, 46
2, 109680, Note_on_c, 0, 82, 0
2, 109680, Note_on_c, 0, 79, 53
2, 109680, Note_on_c, 0, 75, 45
2, 109800, Note_on_c, 0, 75, 0
2, 109800, Note_on_c, 0, 79, 0
2, 109800, Note_on_c, 0, 82, 45
2, 109920, Note_on_c, 0, 82, 0
2, 109920, Note_on_c, 0, 75, 45
2, 109920, Note_on_c, 0, 79, 53
2, 110040, Note_on_c, 0, 79, 0
2, 110040, Note_on_c, 0, 75, 0
2, 110040, Note_on_c, 0, 82, 45
2, 110160, Note_on_c, 0, 82, 0
2, 110160, Note_on_c, 0, 74, 51
2, 110160, Note_on_c, 0, 80, 61
2, 110280, Note_on_c, 0, 80, 0
2, 110280, Note_on_c, 0, 74, 0
2, 110280, Note_on_c, 0, 82, 46
2, 110400, Note_on_c, 0, 82, 0
2, 110400, Note_on_c, 0, 74, 45
2, 110400, Note_on_c, 0, 80, 53
2, 110520, Note_on_c, 0, 80, 0
2, 110520, Note_on_c, 0, 74, 0
2, 110520, Note_on_c, 0, 82, 48
2, 110640, Note_on_c, 0, 82, 0
2, 110640, Note_on_c, 0, 74, 45
2, 110640, Note_on_c, 0, 80, 53
2, 110760, Note_on_c, 0, 80, 0
2, 110760, Note_on_c, 0, 74, 0
2, 110760, Note_on_c, 0, 82, 46
2, 110880, Note_on_c, 0, 82, 0
2, 110880, Note_on_c, 0, 74, 49
2, 110880, Note_on_c, 0, 80, 58
2, 111000, Note_on_c, 0, 80, 0
2, 111000, Note_on_c, 0, 74, 0
2, 111000, Note_on_c, 0, 86, 46
2, 111120, Note_on_c, 0, 86, 0
2, 111120, Note_on_c, 0, 74, 45
2, 111120, Note_on_c, 0, 80, 53
2, 111240, Note_on_c, 0, 80, 0
2, 111240, Note_on_c, 0, 74, 0
2, 111240, Note_on_c, 0, 86, 46
2, 111360, Note_on_c, 0, 86, 0
2, 111360, Note_on_c, 0, 74, 45
2, 111360, Note_on_c, 0, 80, 53
2, 111480, Note_on_c, 0, 80, 0
2, 111480, Note_on_c, 0, 74, 0
2, 111480, Note_on_c, 0, 86, 46
2, 111600, Note_on_c, 0, 86, 0
2, 111600, Note_on_c, 0, 75, 48
2, 111600, Note_on_c, 0, 79, 57
2, 111720, Note_on_c, 0, 79, 0
2, 111720, Note_on_c, 0, 75, 0
2, 111720, Note_on_c, 0, 87, 46
2, 111840, Note_on_c, 0, 87, 0
2, 111840, Note_on_c, 0, 75, 45
2, 111840, Note_on_c, 0, 79, 53
2, 111960, Note_on_c, 0, 79, 0
2, 111960, Note_on_c, 0, 75, 0
2, 111960, Note_on_c, 0, 87, 46
2, 112080, Note_on_c, 0, 87, 0
2, 112080, Note_on_c, 0, 75, 45
2, 112080, Note_on_c, 0, 79, 53
2, 112200, Note_on_c, 0, 79, 0
2, 112200, Note_on_c, 0, 75, 0
2, 112200, Note_on_c, 0, 86, 46
2, 112320, Note_on_c, 0, 86, 0
2, 112320, Note_on_c, 0, 75, 45
2, 112320, Note_on_c, 0, 81, 53
2, 112440, Note_on_c, 0, 81, 0
2, 112440, Note_on_c, 0, 75, 0
2, 112440, Note_on_c, 0, 84, 46
2, 112560, Note_on_c, 0, 84, 0
2, 112560, Note_on_c, 0, 75, 45
2, 112560, Note_on_c, 0, 81, 53
2, 112680, Note_on_c, 0, 81, 0
2, 112680, Note_on_c, 0, 75, 0
2, 112680, Note_on_c, 0, 84, 46
2, 112800, Note_on_c, 0, 84, 0
2, 112800, Note_on_c, 0, 75, 45
2, 112800, Note_on_c, 0, 81, 53
2, 112920, Note_on_c, 0, 81, 0
2, 112920, Note_on_c, 0, 75, 0
2, 112920, Note_on_c, 0, 84, 46
2, 113040, Note_on_c, 0, 84, 0
2, 113040, Note_on_c, 0, 74, 45
2, 113040, Note_on_c, 0, 82, 53
2, 113160, Note_on_c, 0, 82, 0
2, 113160, Note_on_c, 0, 74, 0
2, 113160, Note_on_c, 0, 86, 46
2, 113280, Note_on_c, 0, 86, 0
2, 113280, Note_on_c, 0, 74, 45
2, 113280, Note_on_c, 0, 82, 53
2, 113400, Note_on_c, 0, 82, 0
2, 113400, Note_on_c, 0, 74, 0
2, 113400, Note_on_c, 0, 86, 46
2, 113520, Note_on_c, 0, 86, 0
2, 113520, Note_on_c, 0, 74, 45
2, 113520, Note_on_c, 0, 82, 53
2, 113640, Note_on_c, 0, 82, 0
2, 113640, Note_on_c, 0, 74, 0
2, 113640, Note_on_c, 0, 86, 46
2, 113760, Note_on_c, 0, 86, 0
2, 113760, Note_on_c, 0, 75, 46
2, 113760, Note_on_c, 0, 81, 54
2, 113880, Note_on_c, 0, 81, 0
2, 113880, Note_on_c, 0, 75, 0
2, 113880, Note_on_c, 0, 84, 46
2, 114000, Note_on_c, 0, 84, 0
2, 114000, Note_on_c, 0, 75, 45
2, 114000, Note_on_c, 0, 81, 53
2, 114120, Note_on_c, 0, 81, 0
2, 114120, Note_on_c, 0, 75, 0
2, 114120, Note_on_c, 0, 84, 45
2, 114240, Note_on_c, 0, 84, 0
2, 114240, Note_on_c, 0, 75, 45
2, 114240, Note_on_c, 0, 81, 53
2, 114360, Note_on_c, 0, 81, 0
2, 114360, Note_on_c, 0, 75, 0
2, 114360, Note_on_c, 0, 84, 45
2, 114480, Note_on_c, 0, 84, 0
2, 114480, Note_on_c, 0, 74, 48
2, 114480, Note_on_c, 0, 82, 57
2, 114600, Note_on_c, 0, 82, 0
2, 114600, Note_on_c, 0, 74, 0
2, 114600, Note_on_c, 0, 86, 46
2, 114720, Note_on_c, 0, 86, 0
2, 114720, Note_on_c, 0, 82, 53
2, 114720, Note_on_c, 0, 74, 45
2, 114840, Note_on_c, 0, 74, 0
2, 114840, Note_on_c, 0, 82, 0
2, 114840, Note_on_c, 0, 86, 45
2, 114960, Note_on_c, 0, 86, 0
2, 114960, Note_on_c, 0, 74, 45
2, 114960, Note_on_c, 0, 82, 53
2, 115080, Note_on_c, 0, 82, 0
2, 115080, Note_on_c, 0, 74, 0
2, 115080, Note_on_c, 0, 86, 45
2, 115200, Note_on_c, 0, 86, 0
2, 115200, Note_on_c, 0, 75, 41
2, 115200, Note_on_c, 0, 81, 49
2, 115320, Note_on_c, 0, 81, 0
2, 115320, Note_on_c, 0, 75, 0
2, 115320, Note_on_c, 0, 84, 41
2, 115440, Note_on_c, 0, 84, 0
2, 115440, Note_on_c, 0, 75, 40
2, 115440, Note_on_c, 0, 81, 48
2, 115560, Note_on_c, 0, 81, 0
2, 115560, Note_on_c, 0, 75, 0
2, 115560, Note_on_c, 0, 84, 40
2, 115680, Note_on_c, 0, 84, 0
2, 115680, Note_on_c, 0, 75, 40
2, 115680, Note_on_c, 0, 81, 48
2, 115800, Note_on_c, 0, 81, 0
2, 115800, Note_on_c, 0, 75, 0
2, 115800, Note_on_c, 0, 84, 40
2, 115920, Note_on_c, 0, 84, 0
2, 115920, Note_on_c, 0, 74, 42
2, 115920, Note_on_c, 0, 82, 51
2, 116040, Note_on_c, 0, 82, 0
2, 116040, Note_on_c, 0, 74, 0
2, 116040, Note_on_c, 0, 86, 41
2, 116160, Note_on_c, 0, 86, 0
2, 116160, Note_on_c, 0, 82, 48
2, 116160, Note_on_c, 0, 74, 40
2, 116280, Note_on_c, 0, 74, 0
2, 116280, Note_on_c, 0, 82, 0
2, 116280, Note_on_c, 0, 86, 40
2, 116400, Note_on_c, 0, 86, 0
2, 116400, Note_on_c, 0, 74, 40
2, 116400, Note_on_c, 0, 82, 48
2, 116520, Note_on_c, 0, 82, 0
2, 116520, Note_on_c, 0, 74, 0
2, 116520, Note_on_c, 0, 86, 40
2, 116640, Note_on_c, 0, 86, 0
2, 116640, Note_on_c, 0, 75, 35
2, 116640, Note_on_c, 0, 81, 43
2, 116760, Note_on_c, 0, 81, 0
2, 116760, Note_on_c, 0, 75, 0
2, 116760, Note_on_c, 0, 84, 37
2, 116880, Note_on_c, 0, 84, 0
2, 116880, Note_on_c, 0, 75, 35
2, 116880, Note_on_c, 0, 81, 42
2, 117000, Note_on_c, 0, 81, 0
2, 117000, Note_on_c, 0, 75, 0
2, 117000, Note_on_c, 0, 84, 35
2, 117120, Note_on_c, 0, 84, 0
2, 117120, Note_on_c, 0, 75, 35
2, 117120, Note_on_c, 0, 81, 42
2, 117240, Note_on_c, 0, 81, 0
2, 117240, Note_on_c, 0, 75, 0
2, 117240, Note_on_c, 0, 84, 35
2, 117360, Note_on_c, 0, 84, 0
2, 117360, Note_on_c, 0, 86, 45
2, 117360, Note_on_c, 0, 74, 38
2, 117360, Note_on_c, 0, 82, 45
2, 117600, Note_on_c, 0, 82, 0
2, 117600, Note_on_c, 0, 74, 0
2, 117600, Note_on_c, 0, 86, 0
2, 118080, Note_on_c, 0, 61, 45
2, 118080, Note_on_c, 0, 65, 45
2, 118560, Note_on_c, 0, 65, 0
2, 118560, Note_on_c, 0, 61, 0
2, 118560, Note_on_c, 0, 61, 45
2, 118560, Note_on_c, 0, 65, 45
2, 118920, Note_on_c, 0, 65, 0
2, 118920, Note_on_c, 0, 61, 0
2, 119040, Note_on_c, 0, 60, 34
2, 119040, Note_on_c, 0, 63, 41
2, 119040, Note_on_c, 0, 65, 41
2, 119130, Note_on_c, 0, 65, 0
2, 119130, Note_on_c, 0, 63, 0
2, 119130, Note_on_c, 0, 60, 0
2, 119280, Note_on_c, 0, 58, 35
2, 119280, Note_on_c, 0, 61, 42
2, 119280, Note_on_c, 0, 65, 42
2, 119370, Note_on_c, 0, 65, 0
2, 119370, Note_on_c, 0, 61, 0
2, 119370, Note_on_c, 0, 58, 0
2, 119520, Note_on_c, 0, 57, 38
2, 119520, Note_on_c, 0, 60, 45
2, 119520, Note_on_c, 0, 65, 45
2, 120000, Note_on_c, 0, 65, 0
2, 120000, Note_on_c, 0, 60, 0
2, 120000, Note_on_c, 0, 57, 0
2, 120000, Note_on_c, 0, 57, 38
2, 120000, Note_on_c, 0, 60, 45
2, 120000, Note_on_c, 0, 65, 45
2, 120360, Note_on_c, 0, 65, 0
2, 120360, Note_on_c, 0, 60, 0
2, 120360, Note_on_c, 0, 57, 0
2, 120480, Note_on_c, 0, 58, 34
2, 120480, Note_on_c, 0, 61, 41
2, 120480, Note_on_c, 0, 65, 41
2, 120570, Note_on_c, 0, 65, 0
2, 120570, Note_on_c, 0, 61, 0
2, 120570, Note_on_c, 0, 58, 0
2, 120720, Note_on_c, 0, 60, 35
2, 120720, Note_on_c, 0, 63, 42
2, 120720, Note_on_c, 0, 65, 42
2, 120810, Note_on_c, 0, 65, 0
2, 120810, Note_on_c, 0, 63, 0
2, 120810, Note_on_c, 0, 60, 0
2, 120960, Note_on_c, 0, 61, 45
2, 120960, Note_on_c, 0, 65, 45
2, 121440, Note_on_c, 0, 65, 0
2, 121440, Note_on_c, 0, 61, 0
2, 121440, Note_on_c, 0, 61, 45
2, 121440, Note_on_c, 0, 65, 45
2, 121920, Note_on_c, 0, 65, 0
2, 121920, Note_on_c, 0, 61, 0
2, 121920, Note_on_c, 0, 60, 34
2, 121920, Note_on_c, 0, 63, 41
2, 121920, Note_on_c, 0, 65, 41
2, 122010, Note_on_c, 0, 65, 0
2, 122010, Note_on_c, 0, 63, 0
2, 122010, Note_on_c, 0, 60, 0
2, 122160, Note_on_c, 0, 58, 35
2, 122160, Note_on_c, 0, 61, 42
2, 122160, Note_on_c, 0, 65, 42
2, 122250, Note_on_c, 0, 65, 0
2, 122250, Note_on_c, 0, 61, 0
2, 122250, Note_on_c, 0, 58, 0
2, 122400, Note_on_c, 0, 56, 32
2, 122400, Note_on_c, 0, 61, 38
2, 122400, Note_on_c, 0, 65, 38
2, 122880, Note_on_c, 0, 65, 0
2, 122880, Note_on_c, 0, 61, 0
2, 122880, Note_on_c, 0, 56, 0
2, 122880, Note_on_c, 0, 56, 32
2, 122880, Note_on_c, 0, 61, 38
2, 122880, Note_on_c, 0, 65, 38
2, 123240, Note_on_c, 0, 65, 0
2, 123240, Note_on_c, 0, 61, 0
2, 123240, Note_on_c, 0, 56, 0
2, 123360, Note_on_c, 0, 56, 28
2, 123360, Note_on_c, 0, 65, 34
2, 123360, Note_on_c, 0, 68, 34
2, 123450, Note_on_c, 0, 68, 0
2, 123450, Note_on_c, 0, 65, 0
2, 123450, Note_on_c, 0, 56, 0
2, 123600, Note_on_c, 0, 56, 29
2, 123600, Note_on_c, 0, 65, 35
2, 123600, Note_on_c, 0, 68, 35
2, 123690, Note_on_c, 0, 68, 0
2, 123690, Note_on_c, 0, 65, 0
2, 123690, Note_on_c, 0, 56, 0
2, 123840, Note_on_c, 0, 56, 32
2, 123840, Note_on_c, 0, 61, 38
2, 123840, Note_on_c, 0, 65, 38
2, 124320, Note_on_c, 0, 65, 0
2, 124320, Note_on_c, 0, 61, 0
2, 124320, Note_on_c, 0, 56, 0
2, 124320, Note_on_c, 0, 56, 32
2, 124320, Note_on_c, 0, 61, 38
2, 124320, Note_on_c, 0, 65, 38
2, 124800, Note_on_c, 0, 65, 0
2, 124800, Note_on_c, 0, 61, 0
2, 124800, Note_on_c, 0, 56, 0
2, 125280, Note_on_c, 0, 61, 45
2, 125280, Note_on_c, 0, 65, 45
2, 125760, Note_on_c, 0, 65, 0
2, 125760, Note_on_c, 0, 61, 0
2, 125760, Note_on_c, 0, 61, 45
2, 125760, Note_on_c, 0, 65, 45
2, 126120, Note_on_c, 0, 65, 0
2, 126120, Note_on_c, 0, 61, 0
2, 126240, Note_on_c, 0, 60, 34
2, 126240, Note_on_c, 0, 63, 41
2, 126240, Note_on_c, 0, 65, 41
2, 126330, Note_on_c, 0, 65, 0
2, 126330, Note_on_c, 0, 63, 0
2, 126330, Note_on_c, 0, 60, 0
2, 126480, Note_on_c, 0, 58, 35
2, 126480, Note_on_c, 0, 61, 42
2, 126480, Note_on_c, 0, 65, 42
2, 126570, Note_on_c, 0, 65, 0
2, 126570, Note_on_c, 0, 61, 0
2, 126570, Note_on_c, 0, 58, 0
2, 126720, Note_on_c, 0, 57, 38
2, 126720, Note_on_c, 0, 60, 45
2, 126720, Note_on_c, 0, 65, 45
2, 127200, Note_on_c, 0, 65, 0
2, 127200, Note_on_c, 0, 60, 0
2, 127200, Note_on_c, 0, 57, 0
2, 127200, Note_on_c, 0, 57, 38
2, 127200, Note_on_c, 0, 60, 45
2, 127200, Note_on_c, 0, 65, 45
2, 127560, Note_on_c, 0, 65, 0
2, 127560, Note_on_c, 0, 60, 0
2, 127560, Note_on_c, 0, 57, 0
2, 127680, Note_on_c, 0, 58, 34
2, 127680, Note_on_c, 0, 61, 41
2, 127680, Note_on_c, 0, 65, 41
2, 127770, Note_on_c, 0, 65, 0
2, 127770, Note_on_c, 0, 61, 0
2, 127770, Note_on_c, 0, 58, 0
2, 127920, Note_on_c, 0, 60, 35
2, 127920, Note_on_c, 0, 63, 42
2, 127920, Note_on_c, 0, 65, 42
2, 128010, Note_on_c, 0, 65, 0
2, 128010, Note_on_c, 0, 63, 0
2, 128010, Note_on_c, 0, 60, 0
2, 128160, Note_on_c, 0, 61, 45
2, 128160, Note_on_c, 0, 65, 45
2, 128640, Note_on_c, 0, 65, 0
2, 128640, Note_on_c, 0, 61, 0
2, 128640, Note_on_c, 0, 61, 45
2, 128640, Note_on_c, 0, 65, 45
2, 129120, Note_on_c, 0, 65, 0
2, 129120, Note_on_c, 0, 61, 0
2, 129120, Note_on_c, 0, 60, 34
2, 129120, Note_on_c, 0, 63, 41
2, 129120, Note_on_c, 0, 65, 41
2, 129210, Note_on_c, 0, 65, 0
2, 129210, Note_on_c, 0, 63, 0
2, 129210, Note_on_c, 0, 60, 0
2, 129360, Note_on_c, 0, 58, 35
2, 129360, Note_on_c, 0, 61, 42
2, 129360, Note_on_c, 0, 65, 42
2, 129450, Note_on_c, 0, 65, 0
2, 129450, Note_on_c, 0, 61, 0
2, 129450, Note_on_c, 0, 58, 0
2, 129600, Note_on_c, 0, 56, 32
2, 129600, Note_on_c, 0, 61, 38
2, 129600, Note_on_c, 0, 65, 38
2, 130080, Note_on_c, 0, 65, 0
2, 130080, Note_on_c, 0, 61, 0
2, 130080, Note_on_c, 0, 56, 0
2, 130080, Note_on_c, 0, 56, 32
2, 130080, Note_on_c, 0, 61, 38
2, 130080, Note_on_c, 0, 65, 38
2, 130440, Note_on_c, 0, 65, 0
2, 130440, Note_on_c, 0, 61, 0
2, 130440, Note_on_c, 0, 56, 0
2, 130560, Note_on_c, 0, 56, 28
2, 130560, Note_on_c, 0, 65, 34
2, 130560, Note_on_c, 0, 68, 34
2, 130650, Note_on_c, 0, 68, 0
2, 130650, Note_on_c, 0, 65, 0
2, 130650, Note_on_c, 0, 56, 0
2, 130800, Note_on_c, 0, 56, 29
2, 130800, Note_on_c, 0, 65, 35
2, 130800, Note_on_c, 0, 68, 35
2, 130890, Note_on_c, 0, 68, 0
2, 130890, Note_on_c, 0, 65, 0
2, 130890, Note_on_c, 0, 56, 0
2, 131040, Note_on_c, 0, 56, 32
2, 131040, Note_on_c, 0, 61, 38
2, 131040, Note_on_c, 0, 65, 38
2, 131520, Note_on_c, 0, 65, 0
2, 131520, Note_on_c, 0, 61, 0
2, 131520, Note_on_c, 0, 56, 0
2, 131520, Note_on_c, 0, 56, 32
2, 131520, Note_on_c, 0, 61, 38
2, 131520, Note_on_c, 0, 65, 38
2, 132000, Note_on_c, 0, 65, 0
2, 132000, Note_on_c, 0, 61, 0
2, 132000, Note_on_c, 0, 56, 0
2, 132480, Note_on_c, 0, 58, 38
2, 132480, Note_on_c, 0, 61, 45
2, 132480, Note_on_c, 0, 66, 45
2, 132960, Note_on_c, 0, 66, 0
2, 132960, Note_on_c, 0, 61, 0
2, 132960, Note_on_c, 0, 58, 0
2, 132960, Note_on_c, 0, 58, 39
2, 132960, Note_on_c, 0, 61, 47
2, 132960, Note_on_c, 0, 66, 47
2, 133440, Note_on_c, 0, 66, 0
2, 133440, Note_on_c, 0, 61, 0
2, 133440, Note_on_c, 0, 58, 0
2, 133440, Note_on_c, 0, 58, 38
2, 133440, Note_on_c, 0, 61, 45
2, 133440, Note_on_c, 0, 68, 45
2, 133530, Note_on_c, 0, 68, 0
2, 133530, Note_on_c, 0, 61, 0
2, 133530, Note_on_c, 0, 58, 0
2, 133680, Note_on_c, 0, 58, 39
2, 133680, Note_on_c, 0, 61, 47
2, 133680, Note_on_c, 0, 70, 47
2, 133770, Note_on_c, 0, 70, 0
2, 133770, Note_on_c, 0, 61, 0
2, 133770, Note_on_c, 0, 58, 0
2, 133920, Note_on_c, 0, 56, 43
2, 133920, Note_on_c, 0, 60, 51
2, 133920, Note_on_c, 0, 65, 51
2, 134400, Note_on_c, 0, 65, 0
2, 134400, Note_on_c, 0, 60, 0
2, 134400, Note_on_c, 0, 56, 0
2, 134400, Note_on_c, 0, 56, 42
2, 134400, Note_on_c, 0, 60, 50
2, 134400, Note_on_c, 0, 65, 50
2, 134880, Note_on_c, 0, 65, 0
2, 134880, Note_on_c, 0, 60, 0
2, 134880, Note_on_c, 0, 56, 0
2, 134880, Note_on_c, 0, 55, 39
2, 134880, Note_on_c, 0, 60, 47
2, 134880, Note_on_c, 0, 64, 47
2, 134970, Note_on_c, 0, 64, 0
2, 134970, Note_on_c, 0, 60, 0
2, 134970, Note_on_c, 0, 55, 0
2, 135120, Note_on_c, 0, 55, 40
2, 135120, Note_on_c, 0, 60, 48
2, 135120, Note_on_c, 0, 64, 48
2, 135210, Note_on_c, 0, 64, 0
2, 135210, Note_on_c, 0, 60, 0
2, 135210, Note_on_c, 0, 55, 0
2, 135360, Note_on_c, 0, 63, 45
2, 135360, Note_on_c, 0, 56, 38
2, 135360, Note_on_c, 0, 60, 45
2, 135840, Note_on_c, 0, 60, 0
2, 135840, Note_on_c, 0, 56, 0
2, 135840, Note_on_c, 0, 63, 0
2, 135840, Note_on_c, 0, 56, 38
2, 135840, Note_on_c, 0, 60, 45
2, 135840, Note_on_c, 0, 63, 45
2, 136080, Note_on_c, 0, 60, 0
2, 136080, Note_on_c, 0, 56, 0
2, 136080, Note_on_c, 0, 58, 31
2, 136080, Note_on_c, 0, 61, 37
2, 136320, Note_on_c, 0, 61, 0
2, 136320, Note_on_c, 0, 58, 0
2, 136320, Note_on_c, 0, 63, 0
2, 136320, Note_on_c, 0, 55, 34
2, 136320, Note_on_c, 0, 58, 41
2, 136320, Note_on_c, 0, 63, 41
2, 136410, Note_on_c, 0, 63, 0
2, 136410, Note_on_c, 0, 58, 0
2, 136410, Note_on_c, 0, 55, 0
2, 136560, Note_on_c, 0, 55, 35
2, 136560, Note_on_c, 0, 58, 42
2, 136560, Note_on_c, 0, 63, 42
2, 136650, Note_on_c, 0, 63, 0
2, 136650, Note_on_c, 0, 58, 0
2, 136650, Note_on_c, 0, 55, 0
2, 136800, Note_on_c, 0, 68, 45
2, 136800, Note_on_c, 0, 60, 38
2, 136800, Note_on_c, 0, 63, 45
2, 137280, Note_on_c, 0, 63, 0
2, 137280, Note_on_c, 0, 60, 0
2, 137280, Note_on_c, 0, 68, 0
2, 137280, Note_on_c, 0, 60, 42
2, 137280, Note_on_c, 0, 63, 50
2, 137280, Note_on_c, 0, 68, 50
2, 137520, Note_on_c, 0, 68, 0
2, 137520, Note_on_c, 0, 69, 47
2, 137760, Note_on_c, 0, 69, 0
2, 137760, Note_on_c, 0, 63, 0
2, 137760, Note_on_c, 0, 60, 0
2, 137760, Note_on_c, 0, 60, 34
2, 137760, Note_on_c, 0, 63, 41
2, 137760, Note_on_c, 0, 65, 41
2, 137850, Note_on_c, 0, 65, 0
2, 137850, Note_on_c, 0, 63, 0
2, 137850, Note_on_c, 0, 60, 0
2, 138000, Note_on_c, 0, 60, 35
2, 138000, Note_on_c, 0, 63, 42
2, 138000, Note_on_c, 0, 65, 42
2, 138090, Note_on_c, 0, 65, 0
2, 138090, Note_on_c, 0, 63, 0
2, 138090, Note_on_c, 0, 60, 0
2, 138240, Note_on_c, 0, 65, 45
2, 138240, Note_on_c, 0, 73, 45
2, 138720, Note_on_c, 0, 73, 0
2, 138720, Note_on_c, 0, 65, 0
2, 138720, Note_on_c, 0, 65, 45
2, 138720, Note_on_c, 0, 73, 45
2, 139200, Note_on_c, 0, 73, 0
2, 139200, Note_on_c, 0, 65, 0
2, 139200, Note_on_c, 0, 63, 41
2, 139200, Note_on_c, 0, 65, 41
2, 139200, Note_on_c, 0, 72, 41
2, 139290, Note_on_c, 0, 72, 0
2, 139290, Note_on_c, 0, 65, 0
2, 139290, Note_on_c, 0, 63, 0
2, 139440, Note_on_c, 0, 61, 35
2, 139440, Note_on_c, 0, 65, 42
2, 139440, Note_on_c, 0, 70, 42
2, 139530, Note_on_c, 0, 70, 0
2, 139530, Note_on_c, 0, 65, 0
2, 139530, Note_on_c, 0, 61, 0
2, 139680, Note_on_c, 0, 65, 45
2, 139680, Note_on_c, 0, 60, 38
2, 139680, Note_on_c, 0, 69, 45
2, 140160, Note_on_c, 0, 69, 0
2, 140160, Note_on_c, 0, 60, 0
2, 140160, Note_on_c, 0, 65, 0
2, 140160, Note_on_c, 0, 65, 45
2, 140160, Note_on_c, 0, 60, 38
2, 140160, Note_on_c, 0, 69, 45
2, 140640, Note_on_c, 0, 69, 0
2, 140640, Note_on_c, 0, 60, 0
2, 140640, Note_on_c, 0, 65, 0
2, 140640, Note_on_c, 0, 61, 34
2, 140640, Note_on_c, 0, 65, 41
2, 140640, Note_on_c, 0, 70, 41
2, 140730, Note_on_c, 0, 70, 0
2, 140730, Note_on_c, 0, 65, 0
2, 140730, Note_on_c, 0, 61, 0
2, 140880, Note_on_c, 0, 63, 35
2, 140880, Note_on_c, 0, 65, 42
2, 140880, Note_on_c, 0, 72, 42
2, 140970, Note_on_c, 0, 72, 0
2, 140970, Note_on_c, 0, 65, 0
2, 140970, Note_on_c, 0, 63, 0
2, 141120, Note_on_c, 0, 61, 45
2, 141120, Note_on_c, 0, 65, 45
2, 141600, Note_on_c, 0, 65, 0
2, 141600, Note_on_c, 0, 61, 0
2, 141600, Note_on_c, 0, 61, 45
2, 141600, Note_on_c, 0, 65, 45
2, 142080, Note_on_c, 0, 65, 0
2, 142080, Note_on_c, 0, 61, 0
2, 142080, Note_on_c, 0, 60, 34
2, 142080, Note_on_c, 0, 63, 41
2, 142080, Note_on_c, 0, 65, 41
2, 142170, Note_on_c, 0, 65, 0
2, 142170, Note_on_c, 0, 63, 0
2, 142170, Note_on_c, 0, 60, 0
2, 142320, Note_on_c, 0, 58, 35
2, 142320, Note_on_c, 0, 61, 42
2, 142320, Note_on_c, 0, 65, 42
2, 142410, Note_on_c, 0, 65, 0
2, 142410, Note_on_c, 0, 61, 0
2, 142410, Note_on_c, 0, 58, 0
2, 142560, Note_on_c, 0, 56, 32
2, 142560, Note_on_c, 0, 61, 38
2, 142560, Note_on_c, 0, 65, 38
2, 143040, Note_on_c, 0, 65, 0
2, 143040, Note_on_c, 0, 61, 0
2, 143040, Note_on_c, 0, 56, 0
2, 143040, Note_on_c, 0, 56, 32
2, 143040, Note_on_c, 0, 61, 38
2, 143040, Note_on_c, 0, 65, 38
2, 143520, Note_on_c, 0, 65, 0
2, 143520, Note_on_c, 0, 61, 0
2, 143520, Note_on_c, 0, 56, 0
2, 143520, Note_on_c, 0, 54, 28
2, 143520, Note_on_c, 0, 57, 34
2, 143520, Note_on_c, 0, 60, 34
2, 143520, Note_on_c, 0, 63, 34
2, 143610, Note_on_c, 0, 63, 0
2, 143610, Note_on_c, 0, 54, 0
2, 143610, Note_on_c, 0, 57, 0
2, 143610, Note_on_c, 0, 60, 0
2, 143760, Note_on_c, 0, 54, 29
2, 143760, Note_on_c, 0, 57, 29
2, 143760, Note_on_c, 0, 60, 35
2, 143760, Note_on_c, 0, 63, 35
2, 143850, Note_on_c, 0, 63, 0
2, 143850, Note_on_c, 0, 54, 0
2, 143850, Note_on_c, 0, 57, 0
2, 143850, Note_on_c, 0, 60, 0
2, 144000, Note_on_c, 0, 53, 32
2, 144000, Note_on_c, 0, 58, 38
2, 144000, Note_on_c, 0, 61, 38
2, 144480, Note_on_c, 0, 61, 0
2, 144480, Note_on_c, 0, 58, 0
2, 144480, Note_on_c, 0, 53, 0
2, 144480, Note_on_c, 0, 53, 32
2, 144480, Note_on_c, 0, 58, 38
2, 144480, Note_on_c, 0, 61, 38
2, 144960, Note_on_c, 0, 61, 0
2, 144960, Note_on_c, 0, 58, 0
2, 144960, Note_on_c, 0, 53, 0
2, 145440, Note_on_c, 0, 58, 38
2, 145440, Note_on_c, 0, 61, 45
2, 145440, Note_on_c, 0, 66, 45
2, 145920, Note_on_c, 0, 66, 0
2, 145920, Note_on_c, 0, 61, 0
2, 145920, Note_on_c, 0, 58, 0
2, 145920, Note_on_c, 0, 58, 39
2, 145920, Note_on_c, 0, 61, 47
2, 145920, Note_on_c, 0, 66, 47
2, 146400, Note_on_c, 0, 66, 0
2, 146400, Note_on_c, 0, 61, 0
2, 146400, Note_on_c, 0, 58, 0
2, 146400, Note_on_c, 0, 58, 38
2, 146400, Note_on_c, 0, 61, 45
2, 146400, Note_on_c, 0, 68, 45
2, 146490, Note_on_c, 0, 68, 0
2, 146490, Note_on_c, 0, 61, 0
2, 146490, Note_on_c, 0, 58, 0
2, 146640, Note_on_c, 0, 58, 39
2, 146640, Note_on_c, 0, 61, 47
2, 146640, Note_on_c, 0, 70, 47
2, 146730, Note_on_c, 0, 70, 0
2, 146730, Note_on_c, 0, 61, 0
2, 146730, Note_on_c, 0, 58, 0
2, 146880, Note_on_c, 0, 56, 43
2, 146880, Note_on_c, 0, 60, 51
2, 146880, Note_on_c, 0, 65, 51
2, 147360, Note_on_c, 0, 65, 0
2, 147360, Note_on_c, 0, 60, 0
2, 147360, Note_on_c, 0, 56, 0
2, 147360, Note_on_c, 0, 56, 42
2, 147360, Note_on_c, 0, 60, 50
2, 147360, Note_on_c, 0, 65, 50
2, 147840, Note_on_c, 0, 65, 0
2, 147840, Note_on_c, 0, 60, 0
2, 147840, Note_on_c, 0, 56, 0
2, 147840, Note_on_c, 0, 55, 39
2, 147840, Note_on_c, 0, 60, 47
2, 147840, Note_on_c, 0, 64, 47
2, 147930, Note_on_c, 0, 64, 0
2, 147930, Note_on_c, 0, 60, 0
2, 147930, Note_on_c, 0, 55, 0
2, 148080, Note_on_c, 0, 55, 40
2, 148080, Note_on_c, 0, 60, 48
2, 148080, Note_on_c, 0, 64, 48
2, 148170, Note_on_c, 0, 64, 0
2, 148170, Note_on_c, 0, 60, 0
2, 148170, Note_on_c, 0, 55, 0
2, 148320, Note_on_c, 0, 63, 45
2, 148320, Note_on_c, 0, 56, 38
2, 148320, Note_on_c, 0, 60, 45
2, 148800, Note_on_c, 0, 60, 0
2, 148800, Note_on_c, 0, 56, 0
2, 148800, Note_on_c, 0, 63, 0
2, 148800, Note_on_c, 0, 56, 38
2, 148800, Note_on_c, 0, 60, 45
2, 148800, Note_on_c, 0, 63, 45
2, 149040, Note_on_c, 0, 60, 0
2, 149040, Note_on_c, 0, 56, 0
2, 149040, Note_on_c, 0, 58, 31
2, 149040, Note_on_c, 0, 61, 37
2, 149280, Note_on_c, 0, 61, 0
2, 149280, Note_on_c, 0, 58, 0
2, 149280, Note_on_c, 0, 63, 0
2, 149280, Note_on_c, 0, 55, 34
2, 149280, Note_on_c, 0, 58, 41
2, 149280, Note_on_c, 0, 63, 41
2, 149370, Note_on_c, 0, 63, 0
2, 149370, Note_on_c, 0, 58, 0
2, 149370, Note_on_c, 0, 55, 0
2, 149520, Note_on_c, 0, 55, 35
2, 149520, Note_on_c, 0, 58, 42
2, 149520, Note_on_c, 0, 63, 42
2, 149610, Note_on_c, 0, 63, 0
2, 149610, Note_on_c, 0, 58, 0
2, 149610, Note_on_c, 0, 55, 0
2, 149760, Note_on_c, 0, 68, 45
2, 149760, Note_on_c, 0, 60, 38
2, 149760, Note_on_c, 0, 63, 45
2, 150240, Note_on_c, 0, 63, 0
2, 150240, Note_on_c, 0, 60, 0
2, 150240, Note_on_c, 0, 68, 0
2, 150240, Note_on_c, 0, 60, 42
2, 150240, Note_on_c, 0, 63, 42
2, 150240, Note_on_c, 0, 68, 50
2, 150480, Note_on_c, 0, 68, 0
2, 150480, Note_on_c, 0, 69, 47
2, 150720, Note_on_c, 0, 69, 0
2, 150720, Note_on_c, 0, 63, 0
2, 150720, Note_on_c, 0, 60, 0
2, 150720, Note_on_c, 0, 60, 34
2, 150720, Note_on_c, 0, 63, 34
2, 150720, Note_on_c, 0, 65, 41
2, 150810, Note_on_c, 0, 65, 0
2, 150810, Note_on_c, 0, 63, 0
2, 150810, Note_on_c, 0, 60, 0
2, 150960, Note_on_c, 0, 60, 35
2, 150960, Note_on_c, 0, 63, 35
2, 150960, Note_on_c, 0, 65, 42
2, 151050, Note_on_c, 0, 65, 0
2, 151050, Note_on_c, 0, 63, 0
2, 151050, Note_on_c, 0, 60, 0
2, 151200, Note_on_c, 0, 65, 45
2, 151200, Note_on_c, 0, 73, 45
2, 151680, Note_on_c, 0, 73, 0
2, 151680, Note_on_c, 0, 65, 0
2, 151680, Note_on_c, 0, 65, 45
2, 151680, Note_on_c, 0, 73, 45
2, 152160, Note_on_c, 0, 73, 0
2, 152160, Note_on_c, 0, 65, 0
2, 152160, Note_on_c, 0, 63, 34
2, 152160, Note_on_c, 0, 65, 41
2, 152160, Note_on_c, 0, 72, 41
2, 152250, Note_on_c, 0, 72, 0
2, 152250, Note_on_c, 0, 65, 0
2, 152250, Note_on_c, 0, 63, 0
2, 152400, Note_on_c, 0, 61, 35
2, 152400, Note_on_c, 0, 65, 42
2, 152400, Note_on_c, 0, 70, 42
2, 152490, Note_on_c, 0, 70, 0
2, 152490, Note_on_c, 0, 65, 0
2, 152490, Note_on_c, 0, 61, 0
2, 152640, Note_on_c, 0, 65, 45
2, 152640, Note_on_c, 0, 60, 38
2, 152640, Note_on_c, 0, 69, 45
2, 153120, Note_on_c, 0, 69, 0
2, 153120, Note_on_c, 0, 60, 0
2, 153120, Note_on_c, 0, 65, 0
2, 153120, Note_on_c, 0, 65, 45
2, 153120, Note_on_c, 0, 60, 38
2, 153120, Note_on_c, 0, 69, 45
2, 153600, Note_on_c, 0, 69, 0
2, 153600, Note_on_c, 0, 60, 0
2, 153600, Note_on_c, 0, 65, 0
2, 153600, Note_on_c, 0, 61, 34
2, 153600, Note_on_c, 0, 65, 41
2, 153600, Note_on_c, 0, 70, 41
2, 153690, Note_on_c, 0, 70, 0
2, 153690, Note_on_c, 0, 65, 0
2, 153690, Note_on_c, 0, 61, 0
2, 153840, Note_on_c, 0, 63, 35
2, 153840, Note_on_c, 0, 65, 42
2, 153840, Note_on_c, 0, 72, 42
2, 153930, Note_on_c, 0, 72, 0
2, 153930, Note_on_c, 0, 65, 0
2, 153930, Note_on_c, 0, 63, 0
2, 154080, Note_on_c, 0, 61, 45
2, 154080, Note_on_c, 0, 65, 45
2, 154560, Note_on_c, 0, 65, 0
2, 154560, Note_on_c, 0, 61, 0
2, 154560, Note_on_c, 0, 61, 45
2, 154560, Note_on_c, 0, 65, 45
2, 155040, Note_on_c, 0, 65, 0
2, 155040, Note_on_c, 0, 61, 0
2, 155040, Note_on_c, 0, 60, 34
2, 155040, Note_on_c, 0, 63, 41
2, 155040, Note_on_c, 0, 65, 41
2, 155130, Note_on_c, 0, 65, 0
2, 155130, Note_on_c, 0, 63, 0
2, 155130, Note_on_c, 0, 60, 0
2, 155280, Note_on_c, 0, 58, 35
2, 155280, Note_on_c, 0, 61, 42
2, 155280, Note_on_c, 0, 65, 42
2, 155370, Note_on_c, 0, 65, 0
2, 155370, Note_on_c, 0, 61, 0
2, 155370, Note_on_c, 0, 58, 0
2, 155520, Note_on_c, 0, 56, 32
2, 155520, Note_on_c, 0, 61, 38
2, 155520, Note_on_c, 0, 65, 38
2, 156000, Note_on_c, 0, 65, 0
2, 156000, Note_on_c, 0, 61, 0
2, 156000, Note_on_c, 0, 56, 0
2, 156000, Note_on_c, 0, 56, 32
2, 156000, Note_on_c, 0, 61, 38
2, 156000, Note_on_c, 0, 65, 38
2, 156480, Note_on_c, 0, 65, 0
2, 156480, Note_on_c, 0, 61, 0
2, 156480, Note_on_c, 0, 56, 0
2, 156480, Note_on_c, 0, 54, 28
2, 156480, Note_on_c, 0, 57, 28
2, 156480, Note_on_c, 0, 60, 34
2, 156480, Note_on_c, 0, 63, 34
2, 156570, Note_on_c, 0, 63, 0
2, 156570, Note_on_c, 0, 54, 0
2, 156570, Note_on_c, 0, 57, 0
2, 156570, Note_on_c, 0, 60, 0
2, 156720, Note_on_c, 0, 54, 29
2, 156720, Note_on_c, 0, 57, 29
2, 156720, Note_on_c, 0, 60, 35
2, 156720, Note_on_c, 0, 63, 35
2, 156810, Note_on_c, 0, 63, 0
2, 156810, Note_on_c, 0, 54, 0
2, 156810, Note_on_c, 0, 57, 0
2, 156810, Note_on_c, 0, 60, 0
2, 156960, Note_on_c, 0, 53, 32
2, 156960, Note_on_c, 0, 58, 38
2, 156960, Note_on_c, 0, 61, 38
2, 157440, Note_on_c, 0, 61, 0
2, 157440, Note_on_c, 0, 58, 0
2, 157440, Note_on_c, 0, 53, 0
2, 157440, Note_on_c, 0, 53, 32
2, 157440, Note_on_c, 0, 58, 38
2, 157440, Note_on_c, 0, 61, 38
2, 157920, Note_on_c, 0, 61, 0
2, 157920, Note_on_c, 0, 58, 0
2, 157920, Note_on_c, 0, 53, 0
2, 158400, Note_on_c, 0, 82, 54
2, 158640, Note_on_c, 0, 82, 0
2, 158640, Note_on_c, 0, 81, 47
2, 158880, Note_on_c, 0, 81, 0
2, 158880, Note_on_c, 0, 82, 47
2, 159120, Note_on_c, 0, 82, 0
2, 159120, Note_on_c, 0, 79, 51
2, 159360, Note_on_c, 0, 79, 0
2, 159360, Note_on_c, 0, 81, 46
2, 159480, Note_on_c, 0, 81, 0
2, 159480, Note_on_c, 0, 82, 47
2, 159600, Note_on_c, 0, 82, 0
2, 159600, Note_on_c, 0, 84, 49
2, 159720, Note_on_c, 0, 84, 0
2, 159720, Note_on_c, 0, 86, 50
2, 159840, Note_on_c, 0, 86, 0
2, 159840, Note_on_c, 0, 82, 53
2, 160080, Note_on_c, 0, 82, 0
2, 160080, Note_on_c, 0, 84, 54
2, 160200, Note_on_c, 0, 84, 0
2, 160200, Note_on_c, 0, 82, 47
2, 160320, Note_on_c, 0, 82, 0
2, 160320, Note_on_c, 0, 81, 51
2, 160440, Note_on_c, 0, 81, 0
2, 160440, Note_on_c, 0, 79, 47
2, 160560, Note_on_c, 0, 79, 0
2, 160560, Note_on_c, 0, 77, 56
2, 160620, Note_on_c, 0, 77, 0
2, 160800, Note_on_c, 0, 77, 51
2, 160860, Note_on_c, 0, 77, 0
2, 161040, Note_on_c, 0, 77, 50
2, 161100, Note_on_c, 0, 77, 0
2, 161280, Note_on_c, 0, 78, 61
2, 161520, Note_on_c, 0, 78, 0
2, 161520, Note_on_c, 0, 90, 57
2, 161760, Note_on_c, 0, 90, 0
2, 161760, Note_on_c, 0, 90, 57
2, 161820, Note_on_c, 0, 90, 0
2, 162000, Note_on_c, 0, 91, 65
2, 162240, Note_on_c, 0, 91, 0
2, 162240, Note_on_c, 0, 79, 51
2, 162480, Note_on_c, 0, 79, 0
2, 162480, Note_on_c, 0, 79, 51
2, 162540, Note_on_c, 0, 79, 0
2, 162720, Note_on_c, 0, 81, 53
2, 162780, Note_on_c, 0, 81, 0
2, 162930, Note_on_c, 0, 94, 45
2, 162960, Note_on_c, 0, 94, 0
2, 162960, Note_on_c, 0, 93, 52
2, 163080, Note_on_c, 0, 93, 0
2, 163080, Note_on_c, 0, 91, 51
2, 163200, Note_on_c, 0, 91, 0
2, 163200, Note_on_c, 0, 93, 52
2, 163440, Note_on_c, 0, 93, 0
2, 163440, Note_on_c, 0, 94, 54
2, 163500, Note_on_c, 0, 94, 0
2, 163650, Note_on_c, 0, 84, 45
2, 163680, Note_on_c, 0, 84, 0
2, 163680, Note_on_c, 0, 82, 51
2, 163800, Note_on_c, 0, 82, 0
2, 163800, Note_on_c, 0, 81, 47
2, 163920, Note_on_c, 0, 81, 0
2, 163920, Note_on_c, 0, 82, 51
2, 164040, Note_on_c, 0, 82, 0
2, 164160, Note_on_c, 0, 70, 34
2, 164160, Note_on_c, 0, 74, 40
2, 164280, Note_on_c, 0, 74, 0
2, 164280, Note_on_c, 0, 70, 0
2, 164280, Note_on_c, 0, 77, 35
2, 164400, Note_on_c, 0, 77, 0
2, 164400, Note_on_c, 0, 70, 34
2, 164400, Note_on_c, 0, 74, 41
2, 164520, Note_on_c, 0, 74, 0
2, 164520, Note_on_c, 0, 70, 0
2, 164520, Note_on_c, 0, 77, 34
2, 164640, Note_on_c, 0, 77, 0
2, 164640, Note_on_c, 0, 70, 34
2, 164640, Note_on_c, 0, 74, 41
2, 164760, Note_on_c, 0, 74, 0
2, 164760, Note_on_c, 0, 70, 0
2, 164760, Note_on_c, 0, 77, 35
2, 164880, Note_on_c, 0, 77, 0
2, 164880, Note_on_c, 0, 70, 35
2, 164880, Note_on_c, 0, 74, 42
2, 165000, Note_on_c, 0, 74, 0
2, 165000, Note_on_c, 0, 70, 0
2, 165000, Note_on_c, 0, 79, 35
2, 165120, Note_on_c, 0, 79, 0
2, 165120, Note_on_c, 0, 70, 34
2, 165120, Note_on_c, 0, 74, 41
2, 165240, Note_on_c, 0, 74, 0
2, 165240, Note_on_c, 0, 70, 0
2, 165240, Note_on_c, 0, 79, 34
2, 165360, Note_on_c, 0, 79, 0
2, 165360, Note_on_c, 0, 70, 34
2, 165360, Note_on_c, 0, 74, 41
2, 165480, Note_on_c, 0, 74, 0
2, 165480, Note_on_c, 0, 70, 0
2, 165480, Note_on_c, 0, 79, 34
2, 165600, Note_on_c, 0, 79, 0
2, 165600, Note_on_c, 0, 70, 37
2, 165600, Note_on_c, 0, 74, 44
2, 165720, Note_on_c, 0, 74, 0
2, 165720, Note_on_c, 0, 70, 0
2, 165720, Note_on_c, 0, 77, 35
2, 165840, Note_on_c, 0, 77, 0
2, 165840, Note_on_c, 0, 74, 41
2, 165840, Note_on_c, 0, 70, 34
2, 165960, Note_on_c, 0, 70, 0
2, 165960, Note_on_c, 0, 74, 0
2, 165960, Note_on_c, 0, 77, 34
2, 166080, Note_on_c, 0, 77, 0
2, 166080, Note_on_c, 0, 70, 34
2, 166080, Note_on_c, 0, 74, 41
2, 166200, Note_on_c, 0, 74, 0
2, 166200, Note_on_c, 0, 70, 0
2, 166200, Note_on_c, 0, 77, 34
2, 166320, Note_on_c, 0, 77, 0
2, 166320, Note_on_c, 0, 69, 39
2, 166320, Note_on_c, 0, 75, 47
2, 166440, Note_on_c, 0, 75, 0
2, 166440, Note_on_c, 0, 69, 0
2, 166440, Note_on_c, 0, 77, 35
2, 166560, Note_on_c, 0, 77, 0
2, 166560, Note_on_c, 0, 69, 34
2, 166560, Note_on_c, 0, 75, 41
2, 166680, Note_on_c, 0, 75, 0
2, 166680, Note_on_c, 0, 69, 0
2, 166680, Note_on_c, 0, 77, 37
2, 166800, Note_on_c, 0, 77, 0
2, 166800, Note_on_c, 0, 69, 34
2, 166800, Note_on_c, 0, 75, 41
2, 166920, Note_on_c, 0, 75, 0
2, 166920, Note_on_c, 0, 69, 0
2, 166920, Note_on_c, 0, 77, 35
2, 167040, Note_on_c, 0, 77, 0
2, 167040, Note_on_c, 0, 69, 38
2, 167040, Note_on_c, 0, 75, 45
2, 167160, Note_on_c, 0, 75, 0
2, 167160, Note_on_c, 0, 69, 0
2, 167160, Note_on_c, 0, 81, 35
2, 167280, Note_on_c, 0, 81, 0
2, 167280, Note_on_c, 0, 69, 34
2, 167280, Note_on_c, 0, 75, 41
2, 167400, Note_on_c, 0, 75, 0
2, 167400, Note_on_c, 0, 69, 0
2, 167400, Note_on_c, 0, 81, 35
2, 167520, Note_on_c, 0, 81, 0
2, 167520, Note_on_c, 0, 69, 34
2, 167520, Note_on_c, 0, 75, 41
2, 167640, Note_on_c, 0, 75, 0
2, 167640, Note_on_c, 0, 69, 0
2, 167640, Note_on_c, 0, 81, 35
2, 167760, Note_on_c, 0, 81, 0
2, 167760, Note_on_c, 0, 70, 37
2, 167760, Note_on_c, 0, 75, 44
2, 167880, Note_on_c, 0, 75, 0
2, 167880, Note_on_c, 0, 70, 0
2, 167880, Note_on_c, 0, 82, 35
2, 168000, Note_on_c, 0, 82, 0
2, 168000, Note_on_c, 0, 70, 34
2, 168000, Note_on_c, 0, 75, 41
2, 168120, Note_on_c, 0, 75, 0
2, 168120, Note_on_c, 0, 70, 0
2, 168120, Note_on_c, 0, 81, 35
2, 168240, Note_on_c, 0, 81, 0
2, 168240, Note_on_c, 0, 70, 34
2, 168240, Note_on_c, 0, 75, 41
2, 168360, Note_on_c, 0, 75, 0
2, 168360, Note_on_c, 0, 70, 0
2, 168360, Note_on_c, 0, 79, 35
2, 168480, Note_on_c, 0, 79, 0
2, 168480, Note_on_c, 0, 68, 34
2, 168480, Note_on_c, 0, 74, 41
2, 168600, Note_on_c, 0, 74, 0
2, 168600, Note_on_c, 0, 68, 0
2, 168600, Note_on_c, 0, 77, 35
2, 168720, Note_on_c, 0, 77, 0
2, 168720, Note_on_c, 0, 68, 34
2, 168720, Note_on_c, 0, 74, 41
2, 168840, Note_on_c, 0, 74, 0
2, 168840, Note_on_c, 0, 68, 0
2, 168840, Note_on_c, 0, 77, 35
2, 168960, Note_on_c, 0, 77, 0
2, 168960, Note_on_c, 0, 68, 34
2, 168960, Note_on_c, 0, 74, 41
2, 169080, Note_on_c, 0, 74, 0
2, 169080, Note_on_c, 0, 68, 0
2, 169080, Note_on_c, 0, 77, 35
2, 169200, Note_on_c, 0, 77, 0
2, 169200, Note_on_c, 0, 67, 34
2, 169200, Note_on_c, 0, 75, 41
2, 169320, Note_on_c, 0, 75, 0
2, 169320, Note_on_c, 0, 67, 0
2, 169320, Note_on_c, 0, 79, 35
2, 169440, Note_on_c, 0, 79, 0
2, 169440, Note_on_c, 0, 67, 34
2, 169440, Note_on_c, 0, 75, 41
2, 169560, Note_on_c, 0, 75, 0
2, 169560, Note_on_c, 0, 67, 0
2, 169560, Note_on_c, 0, 79, 35
2, 169680, Note_on_c, 0, 79, 0
2, 169680, Note_on_c, 0, 67, 34
2, 169680, Note_on_c, 0, 75, 41
2, 169800, Note_on_c, 0, 75, 0
2, 169800, Note_on_c, 0, 67, 0
2, 169920, Note_on_c, 0, 82, 56
2, 169980, Note_on_c, 0, 82, 0
2, 170100, Note_on_c, 0, 80, 47
2, 170160, Note_on_c, 0, 80, 0
2, 170160, Note_on_c, 0, 79, 56
2, 170280, Note_on_c, 0, 79, 0
2, 170280, Note_on_c, 0, 77, 52
2, 170400, Note_on_c, 0, 77, 0
2, 170400, Note_on_c, 0, 79, 56
2, 170640, Note_on_c, 0, 79, 0
2, 170640, Note_on_c, 0, 82, 56
2, 170700, Note_on_c, 0, 82, 0
2, 170820, Note_on_c, 0, 79, 48
2, 170880, Note_on_c, 0, 79, 0
2, 170880, Note_on_c, 0, 77, 56
2, 171000, Note_on_c, 0, 77, 0
2, 171000, Note_on_c, 0, 76, 52
2, 171120, Note_on_c, 0, 76, 0
2, 171120, Note_on_c, 0, 77, 56
2, 171360, Note_on_c, 0, 77, 0
2, 171360, Note_on_c, 0, 84, 58
2, 171600, Note_on_c, 0, 84, 0
2, 171600, Note_on_c, 0, 82, 59
2, 171720, Note_on_c, 0, 82, 0
2, 171720, Note_on_c, 0, 80, 54
2, 171840, Note_on_c, 0, 80, 0
2, 171840, Note_on_c, 0, 79, 58
2, 171960, Note_on_c, 0, 79, 0
2, 171960, Note_on_c, 0, 77, 58
2, 172080, Note_on_c, 0, 77, 0
2, 172080, Note_on_c, 0, 84, 58
2, 172320, Note_on_c, 0, 84, 0
2, 172320, Note_on_c, 0, 72, 56
2, 172560, Note_on_c, 0, 72, 0
2, 172560, Note_on_c, 0, 72, 56
2, 172800, Note_on_c, 0, 72, 0
2, 172800, Note_on_c, 0, 68, 37
2, 172800, Note_on_c, 0, 72, 44
2, 172920, Note_on_c, 0, 72, 0
2, 172920, Note_on_c, 0, 68, 0
2, 172920, Note_on_c, 0, 75, 39
2, 173040, Note_on_c, 0, 75, 0
2, 173040, Note_on_c, 0, 68, 38
2, 173040, Note_on_c, 0, 72, 45
2, 173160, Note_on_c, 0, 72, 0
2, 173160, Note_on_c, 0, 68, 0
2, 173160, Note_on_c, 0, 75, 38
2, 173280, Note_on_c, 0, 75, 0
2, 173280, Note_on_c, 0, 68, 38
2, 173280, Note_on_c, 0, 72, 45
2, 173400, Note_on_c, 0, 72, 0
2, 173400, Note_on_c, 0, 68, 0
2, 173400, Note_on_c, 0, 75, 39
2, 173520, Note_on_c, 0, 75, 0
2, 173520, Note_on_c, 0, 68, 37
2, 173520, Note_on_c, 0, 77, 44
2, 173640, Note_on_c, 0, 77, 0
2, 173640, Note_on_c, 0, 68, 0
2, 173640, Note_on_c, 0, 80, 39
2, 173760, Note_on_c, 0, 80, 0
2, 173760, Note_on_c, 0, 68, 39
2, 173760, Note_on_c, 0, 77, 47
2, 173880, Note_on_c, 0, 77, 0
2, 173880, Note_on_c, 0, 68, 0
2, 173880, Note_on_c, 0, 80, 39
2, 174000, Note_on_c, 0, 80, 0
2, 174000, Note_on_c, 0, 68, 41
2, 174000, Note_on_c, 0, 77, 49
2, 174120, Note_on_c, 0, 77, 0
2, 174120, Note_on_c, 0, 68, 0
2, 174120, Note_on_c, 0, 80, 43
2, 174240, Note_on_c, 0, 80, 0
2, 174240, Note_on_c, 0, 68, 37
2, 174240, Note_on_c, 0, 72, 44
2, 174360, Note_on_c, 0, 72, 0
2, 174360, Note_on_c, 0, 68, 0
2, 174360, Note_on_c, 0, 75, 38
2, 174480, Note_on_c, 0, 75, 0
2, 174480, Note_on_c, 0, 68, 35
2, 174480, Note_on_c, 0, 72, 42
2, 174600, Note_on_c, 0, 72, 0
2, 174600, Note_on_c, 0, 68, 0
2, 174600, Note_on_c, 0, 75, 34
2, 174720, Note_on_c, 0, 75, 0
2, 174720, Note_on_c, 0, 68, 34
2, 174720, Note_on_c, 0, 72, 40
2, 174840, Note_on_c, 0, 72, 0
2, 174840, Note_on_c, 0, 68, 0
2, 174840, Note_on_c, 0, 75, 33
2, 174960, Note_on_c, 0, 75, 0
2, 174960, Note_on_c, 0, 67, 31
2, 174960, Note_on_c, 0, 73, 37
2, 175080, Note_on_c, 0, 73, 0
2, 175080, Note_on_c, 0, 67, 0
2, 175080, Note_on_c, 0, 75, 32
2, 175200, Note_on_c, 0, 75, 0
2, 175200, Note_on_c, 0, 67, 31
2, 175200, Note_on_c, 0, 73, 38
2, 175320, Note_on_c, 0, 73, 0
2, 175320, Note_on_c, 0, 67, 0
2, 175320, Note_on_c, 0, 75, 31
2, 175440, Note_on_c, 0, 75, 0
2, 175440, Note_on_c, 0, 67, 31
2, 175440, Note_on_c, 0, 73, 38
2, 175560, Note_on_c, 0, 73, 0
2, 175560, Note_on_c, 0, 67, 0
2, 175560, Note_on_c, 0, 75, 32
2, 175680, Note_on_c, 0, 75, 0
2, 175680, Note_on_c, 0, 68, 47
2, 175680, Note_on_c, 0, 72, 47
2, 175680, Note_on_c, 0, 75, 56
2, 175740, Note_on_c, 0, 75, 0
2, 175740, Note_on_c, 0, 72, 0
2, 175740, Note_on_c, 0, 68, 0
2, 175860, Note_on_c, 0, 73, 49
2, 175920, Note_on_c, 0, 73, 0
2, 175920, Note_on_c, 0, 72, 56
2, 176040, Note_on_c, 0, 72, 0
2, 176040, Note_on_c, 0, 70, 52
2, 176160, Note_on_c, 0, 70, 0
2, 176160, Note_on_c, 0, 72, 56
2, 176400, Note_on_c, 0, 72, 0
2, 176400, Note_on_c, 0, 75, 56
2, 176460, Note_on_c, 0, 75, 0
2, 176580, Note_on_c, 0, 72, 49
2, 176640, Note_on_c, 0, 72, 0
2, 176640, Note_on_c, 0, 70, 56
2, 176760, Note_on_c, 0, 70, 0
2, 176760, Note_on_c, 0, 69, 52
2, 176880, Note_on_c, 0, 69, 0
2, 176880, Note_on_c, 0, 70, 56
2, 177120, Note_on_c, 0, 70, 0
2, 177120, Note_on_c, 0, 77, 58
2, 177360, Note_on_c, 0, 77, 0
2, 177360, Note_on_c, 0, 75, 59
2, 177480, Note_on_c, 0, 75, 0
2, 177480, Note_on_c, 0, 73, 54
2, 177600, Note_on_c, 0, 73, 0
2, 177600, Note_on_c, 0, 72, 58
2, 177720, Note_on_c, 0, 72, 0
2, 177720, Note_on_c, 0, 70, 58
2, 177840, Note_on_c, 0, 70, 0
2, 177840, Note_on_c, 0, 77, 58
2, 178080, Note_on_c, 0, 77, 0
2, 178080, Note_on_c, 0, 65, 56
2, 178320, Note_on_c, 0, 65, 0
2, 178320, Note_on_c, 0, 65, 56
2, 178560, Note_on_c, 0, 65, 0
2, 178560, Note_on_c, 0, 73, 37
2, 178560, Note_on_c, 0, 77, 44
2, 178680, Note_on_c, 0, 77, 0
2, 178680, Note_on_c, 0, 73, 0
2, 178680, Note_on_c, 0, 80, 39
2, 178800, Note_on_c, 0, 80, 0
2, 178800, Note_on_c, 0, 73, 38
2, 178800, Note_on_c, 0, 77, 45
2, 178920, Note_on_c, 0, 77, 0
2, 178920, Note_on_c, 0, 73, 0
2, 178920, Note_on_c, 0, 80, 38
2, 179040, Note_on_c, 0, 80, 0
2, 179040, Note_on_c, 0, 73, 38
2, 179040, Note_on_c, 0, 77, 45
2, 179160, Note_on_c, 0, 77, 0
2, 179160, Note_on_c, 0, 73, 0
2, 179160, Note_on_c, 0, 80, 39
2, 179280, Note_on_c, 0, 80, 0
2, 179280, Note_on_c, 0, 73, 37
2, 179280, Note_on_c, 0, 82, 44
2, 179400, Note_on_c, 0, 82, 0
2, 179400, Note_on_c, 0, 73, 0
2, 179400, Note_on_c, 0, 85, 39
2, 179520, Note_on_c, 0, 85, 0
2, 179520, Note_on_c, 0, 73, 39
2, 179520, Note_on_c, 0, 82, 47
2, 179640, Note_on_c, 0, 82, 0
2, 179640, Note_on_c, 0, 73, 0
2, 179640, Note_on_c, 0, 85, 39
2, 179760, Note_on_c, 0, 85, 0
2, 179760, Note_on_c, 0, 73, 41
2, 179760, Note_on_c, 0, 82, 49
2, 179880, Note_on_c, 0, 82, 0
2, 179880, Note_on_c, 0, 73, 0
2, 179880, Note_on_c, 0, 85, 43
2, 180000, Note_on_c, 0, 85, 0
2, 180000, Note_on_c, 0, 73, 37
2, 180000, Note_on_c, 0, 77, 44
2, 180120, Note_on_c, 0, 77, 0
2, 180120, Note_on_c, 0, 73, 0
2, 180120, Note_on_c, 0, 80, 38
2, 180240, Note_on_c, 0, 80, 0
2, 180240, Note_on_c, 0, 73, 35
2, 180240, Note_on_c, 0, 77, 42
2, 180360, Note_on_c, 0, 77, 0
2, 180360, Note_on_c, 0, 73, 0
2, 180360, Note_on_c, 0, 80, 34
2, 180480, Note_on_c, 0, 80, 0
2, 180480, Note_on_c, 0, 73, 34
2, 180480, Note_on_c, 0, 77, 40
2, 180600, Note_on_c, 0, 77, 0
2, 180600, Note_on_c, 0, 73, 0
2, 180600, Note_on_c, 0, 80, 33
2, 180720, Note_on_c, 0, 80, 0
2, 180720, Note_on_c, 0, 72, 31
2, 180720, Note_on_c, 0, 78, 37
2, 180840, Note_on_c, 0, 78, 0
2, 180840, Note_on_c, 0, 72, 0
2, 180840, Note_on_c, 0, 80, 32
2, 180960, Note_on_c, 0, 80, 0
2, 180960, Note_on_c, 0, 72, 31
2, 180960, Note_on_c, 0, 78, 38
2, 181080, Note_on_c, 0, 78, 0
2, 181080, Note_on_c, 0, 72, 0
2, 181080, Note_on_c, 0, 80, 31
2, 181200, Note_on_c, 0, 80, 0
2, 181200, Note_on_c, 0, 72, 31
2, 181200, Note_on_c, 0, 78, 38
2, 181320, Note_on_c, 0, 78, 0
2, 181320, Note_on_c, 0, 72, 0
2, 181320, Note_on_c, 0, 80, 32
2, 181440, Note_on_c, 0, 80, 0
2, 181440, Note_on_c, 0, 73, 31
2, 181440, Note_on_c, 0, 77, 31
2, 181440, Note_on_c, 0, 80, 37
2, 181680, Note_on_c, 0, 80, 0
2, 181680, Note_on_c, 0, 77, 0
2, 181680, Note_on_c, 0, 73, 0
2, 182820, Note_on_c, 0, 73, 40
2, 182850, Note_on_c, 0, 77, 40
2, 182880, Note_on_c, 0, 80, 51
2, 183000, Note_on_c, 0, 80, 0
2, 183000, Note_on_c, 0, 77, 0
2, 183000, Note_on_c, 0, 73, 0
2, 183120, Note_on_c, 0, 78, 40
2, 183240, Note_on_c, 0, 78, 0
2, 183240, Note_on_c, 0, 77, 40
2, 183360, Note_on_c, 0, 77, 0
2, 183360, Note_on_c, 0, 75, 40
2, 183480, Note_on_c, 0, 75, 0
2, 183480, Note_on_c, 0, 73, 40
2, 183540, Note_on_c, 0, 68, 40
2, 183570, Note_on_c, 0, 72, 40
2, 183600, Note_on_c, 0, 73, 0
2, 183600, Note_on_c, 0, 75, 49
2, 183720, Note_on_c, 0, 75, 0
2, 183720, Note_on_c, 0, 72, 0
2, 183720, Note_on_c, 0, 68, 0
2, 183840, Note_on_c, 0, 73, 40
2, 183960, Note_on_c, 0, 73, 0
2, 183960, Note_on_c, 0, 72, 40
2, 184080, Note_on_c, 0, 72, 0
2, 184080, Note_on_c, 0, 70, 40
2, 184200, Note_on_c, 0, 70, 0
2, 184200, Note_on_c, 0, 68, 40
2, 184260, Note_on_c, 0, 73, 40
2, 184290, Note_on_c, 0, 77, 40
2, 184320, Note_on_c, 0, 68, 0
2, 184320, Note_on_c, 0, 80, 53
2, 184440, Note_on_c, 0, 80, 0
2, 184440, Note_on_c, 0, 77, 0
2, 184440, Note_on_c, 0, 73, 0
2, 184560, Note_on_c, 0, 78, 42
2, 184680, Note_on_c, 0, 78, 0
2, 184680, Note_on_c, 0, 77, 45
2, 184800, Note_on_c, 0, 77, 0
2, 184800, Note_on_c, 0, 75, 47
2, 184920, Note_on_c, 0, 75, 0
2, 184920, Note_on_c, 0, 73, 51
2, 185040, Note_on_c, 0, 73, 0
2, 185040, Note_on_c, 0, 85, 57
2, 185040, Note_on_c, 0, 82, 57
2, 185040, Note_on_c, 0, 78, 57
2, 185100, Note_on_c, 0, 78, 0
2, 185100, Note_on_c, 0, 82, 0
2, 185100, Note_on_c, 0, 85, 0
2, 185280, Note_on_c, 0, 78, 51
2, 185280, Note_on_c, 0, 82, 51
2, 185280, Note_on_c, 0, 85, 51
2, 185340, Note_on_c, 0, 85, 0
2, 185340, Note_on_c, 0, 82, 0
2, 185340, Note_on_c, 0, 78, 0
2, 185520, Note_on_c, 0, 78, 51
2, 185520, Note_on_c, 0, 82, 51
2, 185520, Note_on_c, 0, 85, 51
2, 185580, Note_on_c, 0, 85, 0
2, 185580, Note_on_c, 0, 82, 0
2, 185580, Note_on_c, 0, 78, 0
2, 187200, Note_on_c, 0, 65, 49
2, 187380, Note_on_c, 0, 68, 34
2, 187440, Note_on_c, 0, 68, 0
2, 187440, Note_on_c, 0, 65, 0
2, 187440, Note_on_c, 0, 66, 41
2, 187680, Note_on_c, 0, 66, 0
2, 187680, Note_on_c, 0, 65, 41
2, 187920, Note_on_c, 0, 65, 0
2, 187920, Note_on_c, 0, 63, 48
2, 188160, Note_on_c, 0, 63, 0
2, 188160, Note_on_c, 0, 65, 41
2, 188280, Note_on_c, 0, 65, 0
2, 188280, Note_on_c, 0, 66, 41
2, 188400, Note_on_c, 0, 66, 0
2, 188400, Note_on_c, 0, 68, 43
2, 188520, Note_on_c, 0, 68, 0
2, 188520, Note_on_c, 0, 70, 44
2, 188640, Note_on_c, 0, 70, 0
2, 188640, Note_on_c, 0, 72, 52
2, 188880, Note_on_c, 0, 72, 0
2, 188880, Note_on_c, 0, 70, 50
2, 189000, Note_on_c, 0, 70, 0
2, 189000, Note_on_c, 0, 72, 46
2, 189120, Note_on_c, 0, 72, 0
2, 189120, Note_on_c, 0, 73, 48
2, 189240, Note_on_c, 0, 73, 0
2, 189240, Note_on_c, 0, 75, 50
2, 189360, Note_on_c, 0, 75, 0
2, 189360, Note_on_c, 0, 77, 53
2, 189420, Note_on_c, 0, 77, 0
2, 189600, Note_on_c, 0, 77, 45
2, 189660, Note_on_c, 0, 77, 0
2, 189840, Note_on_c, 0, 77, 44
2, 189900, Note_on_c, 0, 77, 0
2, 191460, Note_on_c, 0, 73, 40
2, 191490, Note_on_c, 0, 77, 40
2, 191520, Note_on_c, 0, 80, 51
2, 191640, Note_on_c, 0, 80, 0
2, 191640, Note_on_c, 0, 77, 0
2, 191640, Note_on_c, 0, 73, 0
2, 191760, Note_on_c, 0, 78, 40
2, 191880, Note_on_c, 0, 78, 0
2, 191880, Note_on_c, 0, 77, 40
2, 192000, Note_on_c, 0, 77, 0
2, 192000, Note_on_c, 0, 75, 40
2, 192120, Note_on_c, 0, 75, 0
2, 192120, Note_on_c, 0, 73, 40
2, 192180, Note_on_c, 0, 68, 40
2, 192210, Note_on_c, 0, 72, 40
2, 192240, Note_on_c, 0, 73, 0
2, 192240, Note_on_c, 0, 75, 49
2, 192360, Note_on_c, 0, 75, 0
2, 192360, Note_on_c, 0, 72, 0
2, 192360, Note_on_c, 0, 68, 0
2, 192480, Note_on_c, 0, 73, 40
2, 192600, Note_on_c, 0, 73, 0
2, 192600, Note_on_c, 0, 72, 40
2, 192720, Note_on_c, 0, 72, 0
2, 192720, Note_on_c, 0, 70, 40
2, 192840, Note_on_c, 0, 70, 0
2, 192840, Note_on_c, 0, 68, 40
2, 192900, Note_on_c, 0, 73, 40
2, 192930, Note_on_c, 0, 77, 40
2, 192960, Note_on_c, 0, 68, 0
2, 192960, Note_on_c, 0, 80, 53
2, 193080, Note_on_c, 0, 80, 0
2, 193080, Note_on_c, 0, 77, 0
2, 193080, Note_on_c, 0, 73, 0
2, 193200, Note_on_c, 0, 78, 42
2, 193320, Note_on_c, 0, 78, 0
2, 193320, Note_on_c, 0, 77, 45
2, 193440, Note_on_c, 0, 77, 0
2, 193440, Note_on_c, 0, 75, 47
2, 193560, Note_on_c, 0, 75, 0
2, 193560, Note_on_c, 0, 73, 51
2, 193680, Note_on_c, 0, 73, 0
2, 193680, Note_on_c, 0, 85, 57
2, 193680, Note_on_c, 0, 81, 57
2, 193680, Note_on_c, 0, 78, 57
2, 193740, Note_on_c, 0, 78, 0
2, 193740, Note_on_c, 0, 81, 0
2, 193740, Note_on_c, 0, 85, 0
2, 193920, Note_on_c, 0, 78, 51
2, 193920, Note_on_c, 0, 81, 51
2, 193920, Note_on_c, 0, 85, 51
2, 193980, Note_on_c, 0, 85, 0
2, 193980, Note_on_c, 0, 81, 0
2, 193980, Note_on_c, 0, 78, 0
2, 194160, Note_on_c, 0, 78, 51
2, 194160, Note_on_c, 0, 81, 51
2, 194160, Note_on_c, 0, 85, 51
2, 194220, Note_on_c, 0, 85, 0
2, 194220, Note_on_c, 0, 81, 0
2, 194220, Note_on_c, 0, 78, 0
2, 195840, Note_on_c, 0, 73, 53
2, 196020, Note_on_c, 0, 76, 38
2, 196080, Note_on_c, 0, 76, 0
2, 196080, Note_on_c, 0, 73, 0
2, 196080, Note_on_c, 0, 74, 45
2, 196320, Note_on_c, 0, 74, 0
2, 196320, Note_on_c, 0, 73, 45
2, 196560, Note_on_c, 0, 73, 0
2, 196560, Note_on_c, 0, 71, 52
2, 196800, Note_on_c, 0, 71, 0
2, 196800, Note_on_c, 0, 73, 45
2, 196920, Note_on_c, 0, 73, 0
2, 196920, Note_on_c, 0, 74, 45
2, 197040, Note_on_c, 0, 74, 0
2, 197040, Note_on_c, 0, 76, 47
2, 197160, Note_on_c, 0, 76, 0
2, 197160, Note_on_c, 0, 78, 48
2, 197280, Note_on_c, 0, 78, 0
2, 197280, Note_on_c, 0, 80, 52
2, 197520, Note_on_c, 0, 80, 0
2, 197520, Note_on_c, 0, 78, 53
2, 197640, Note_on_c, 0, 78, 0
2, 197640, Note_on_c, 0, 80, 43
2, 197760, Note_on_c, 0, 80, 0
2, 197760, Note_on_c, 0, 81, 46
2, 197880, Note_on_c, 0, 81, 0
2, 197880, Note_on_c, 0, 83, 49
2, 198000, Note_on_c, 0, 83, 0
2, 198000, Note_on_c, 0, 85, 52
2, 198060, Note_on_c, 0, 85, 0
2, 198240, Note_on_c, 0, 85, 49
2, 198300, Note_on_c, 0, 85, 0
2, 198480, Note_on_c, 0, 85, 48
2, 198540, Note_on_c, 0, 85, 0
2, 199440, Note_on_c, 0, 73, 53
2, 199500, Note_on_c, 0, 73, 0
2, 199680, Note_on_c, 0, 73, 45
2, 199740, Note_on_c, 0, 73, 0
2, 199920, Note_on_c, 0, 73, 45
2, 199980, Note_on_c, 0, 73, 0
2, 200160, Note_on_c, 0, 73, 52
2, 200400, Note_on_c, 0, 73, 0
2, 200400, Note_on_c, 0, 76, 45
2, 200520, Note_on_c, 0, 76, 0
2, 200520, Note_on_c, 0, 74, 45
2, 200640, Note_on_c, 0, 74, 0
2, 200640, Note_on_c, 0, 73, 47
2, 200760, Note_on_c, 0, 73, 0
2, 200760, Note_on_c, 0, 76, 48
2, 200880, Note_on_c, 0, 76, 0
2, 200880, Note_on_c, 0, 74, 52
2, 200940, Note_on_c, 0, 74, 0
2, 201120, Note_on_c, 0, 74, 52
2, 201180, Note_on_c, 0, 74, 0
2, 201360, Note_on_c, 0, 74, 51
2, 201420, Note_on_c, 0, 74, 0
2, 201600, Note_on_c, 0, 86, 52
2, 201660, Note_on_c, 0, 86, 0
2, 201840, Note_on_c, 0, 86, 49
2, 201900, Note_on_c, 0, 86, 0
2, 202080, Note_on_c, 0, 86, 48
2, 202140, Note_on_c, 0, 86, 0
2, 203040, Note_on_c, 0, 74, 53
2, 203100, Note_on_c, 0, 74, 0
2, 203280, Note_on_c, 0, 74, 45
2, 203340, Note_on_c, 0, 74, 0
2, 203520, Note_on_c, 0, 74, 45
2, 203580, Note_on_c, 0, 74, 0
2, 203760, Note_on_c, 0, 74, 52
2, 204000, Note_on_c, 0, 74, 0
2, 204000, Note_on_c, 0, 77, 45
2, 204120, Note_on_c, 0, 77, 0
2, 204120, Note_on_c, 0, 76, 45
2, 204240, Note_on_c, 0, 76, 0
2, 204240, Note_on_c, 0, 74, 47
2, 204360, Note_on_c, 0, 74, 0
2, 204360, Note_on_c, 0, 77, 48
2, 204480, Note_on_c, 0, 77, 0
2, 204480, Note_on_c, 0, 74, 52
2, 204540, Note_on_c, 0, 74, 0
2, 204720, Note_on_c, 0, 74, 52
2, 204780, Note_on_c, 0, 74, 0
2, 204960, Note_on_c, 0, 74, 52
2, 205020, Note_on_c, 0, 74, 0
2, 205200, Note_on_c, 0, 86, 52
2, 205260, Note_on_c, 0, 86, 0
2, 205440, Note_on_c, 0, 86, 49
2, 205500, Note_on_c, 0, 86, 0
2, 205680, Note_on_c, 0, 86, 48
2, 205740, Note_on_c, 0, 86, 0
2, 205920, Note_on_c, 0, 74, 56
2, 206160, Note_on_c, 0, 74, 0
2, 206160, Note_on_c, 0, 73, 52
2, 206400, Note_on_c, 0, 73, 0
2, 206400, Note_on_c, 0, 74, 52
2, 206640, Note_on_c, 0, 74, 0
2, 206640, Note_on_c, 0, 86, 56
2, 206880, Note_on_c, 0, 86, 0
2, 206880, Note_on_c, 0, 85, 52
2, 207120, Note_on_c, 0, 85, 0
2, 207120, Note_on_c, 0, 86, 52
2, 207360, Note_on_c, 0, 86, 0
2, 207360, Note_on_c, 0, 82, 54
2, 207600, Note_on_c, 0, 82, 0
2, 207600, Note_on_c, 0, 81, 47
2, 207840, Note_on_c, 0, 81, 0
2, 207840, Note_on_c, 0, 82, 48
2, 208080, Note_on_c, 0, 82, 0
2, 208080, Note_on_c, 0, 79, 51
2, 208320, Note_on_c, 0, 79, 0
2, 208320, Note_on_c, 0, 81, 48
2, 208440, Note_on_c, 0, 81, 0
2, 208440, Note_on_c, 0, 82, 49
2, 208560, Note_on_c, 0, 82, 0
2, 208560, Note_on_c, 0, 84, 51
2, 208680, Note_on_c, 0, 84, 0
2, 208680, Note_on_c, 0, 86, 52
2, 208800, Note_on_c, 0, 86, 0
2, 208800, Note_on_c, 0, 82, 57
2, 209040, Note_on_c, 0, 82, 0
2, 209040, Note_on_c, 0, 84, 58
2, 209160, Note_on_c, 0, 84, 0
2, 209160, Note_on_c, 0, 82, 51
2, 209280, Note_on_c, 0, 82, 0
2, 209280, Note_on_c, 0, 81, 56
2, 209400, Note_on_c, 0, 81, 0
2, 209400, Note_on_c, 0, 79, 51
2, 209520, Note_on_c, 0, 79, 0
2, 209520, Note_on_c, 0, 77, 61
2, 209580, Note_on_c, 0, 77, 0
2, 209760, Note_on_c, 0, 77, 56
2, 209820, Note_on_c, 0, 77, 0
2, 210000, Note_on_c, 0, 77, 56
2, 210060, Note_on_c, 0, 77, 0
2, 210240, Note_on_c, 0, 78, 69
2, 210480, Note_on_c, 0, 78, 0
2, 210480, Note_on_c, 0, 90, 66
2, 210720, Note_on_c, 0, 90, 0
2, 210720, Note_on_c, 0, 90, 67
2, 210780, Note_on_c, 0, 90, 0
2, 210960, Note_on_c, 0, 91, 76
2, 211200, Note_on_c, 0, 91, 0
2, 211200, Note_on_c, 0, 79, 61
2, 211440, Note_on_c, 0, 79, 0
2, 211440, Note_on_c, 0, 79, 61
2, 211500, Note_on_c, 0, 79, 0
2, 211680, Note_on_c, 0, 81, 65
2, 211740, Note_on_c, 0, 81, 0
2, 211890, Note_on_c, 0, 94, 62
2, 211920, Note_on_c, 0, 94, 0
2, 211920, Note_on_c, 0, 93, 65
2, 212040, Note_on_c, 0, 93, 0
2, 212040, Note_on_c, 0, 91, 62
2, 212160, Note_on_c, 0, 91, 0
2, 212160, Note_on_c, 0, 93, 66
2, 212400, Note_on_c, 0, 93, 0
2, 212400, Note_on_c, 0, 94, 68
2, 212460, Note_on_c, 0, 94, 0
2, 212610, Note_on_c, 0, 84, 61
2, 212640, Note_on_c, 0, 84, 0
2, 212640, Note_on_c, 0, 82, 63
2, 212760, Note_on_c, 0, 82, 0
2, 212760, Note_on_c, 0, 81, 60
2, 212880, Note_on_c, 0, 81, 0
2, 212880, Note_on_c, 0, 82, 65
2, 213000, Note_on_c, 0, 82, 0
2, 213120, Note_on_c, 0, 75, 44
2, 213120, Note_on_c, 0, 79, 52
2, 213240, Note_on_c, 0, 79, 0
2, 213240, Note_on_c, 0, 75, 0
2, 213240, Note_on_c, 0, 82, 46
2, 213360, Note_on_c, 0, 82, 0
2, 213360, Note_on_c, 0, 75, 45
2, 213360, Note_on_c, 0, 79, 53
2, 213480, Note_on_c, 0, 79, 0
2, 213480, Note_on_c, 0, 75, 0
2, 213480, Note_on_c, 0, 82, 45
2, 213600, Note_on_c, 0, 82, 0
2, 213600, Note_on_c, 0, 75, 45
2, 213600, Note_on_c, 0, 79, 53
2, 213720, Note_on_c, 0, 79, 0
2, 213720, Note_on_c, 0, 75, 0
2, 213720, Note_on_c, 0, 82, 46
2, 213840, Note_on_c, 0, 82, 0
2, 213840, Note_on_c, 0, 75, 46
2, 213840, Note_on_c, 0, 79, 54
2, 213960, Note_on_c, 0, 79, 0
2, 213960, Note_on_c, 0, 75, 0
2, 213960, Note_on_c, 0, 84, 46
2, 214080, Note_on_c, 0, 84, 0
2, 214080, Note_on_c, 0, 75, 45
2, 214080, Note_on_c, 0, 79, 53
2, 214200, Note_on_c, 0, 79, 0
2, 214200, Note_on_c, 0, 75, 0
2, 214200, Note_on_c, 0, 84, 45
2, 214320, Note_on_c, 0, 84, 0
2, 214320, Note_on_c, 0, 75, 45
2, 214320, Note_on_c, 0, 79, 53
2, 214440, Note_on_c, 0, 79, 0
2, 214440, Note_on_c, 0, 75, 0
2, 214440, Note_on_c, 0, 84, 45
2, 214560, Note_on_c, 0, 84, 0
2, 214560, Note_on_c, 0, 75, 48
2, 214560, Note_on_c, 0, 79, 57
2, 214680, Note_on_c, 0, 79, 0
2, 214680, Note_on_c, 0, 75, 0
2, 214680, Note_on_c, 0, 82, 46
2, 214800, Note_on_c, 0, 82, 0
2, 214800, Note_on_c, 0, 79, 53
2, 214800, Note_on_c, 0, 75, 45
2, 214920, Note_on_c, 0, 75, 0
2, 214920, Note_on_c, 0, 79, 0
2, 214920, Note_on_c, 0, 82, 45
2, 215040, Note_on_c, 0, 82, 0
2, 215040, Note_on_c, 0, 75, 45
2, 215040, Note_on_c, 0, 79, 53
2, 215160, Note_on_c, 0, 79, 0
2, 215160, Note_on_c, 0, 75, 0
2, 215160, Note_on_c, 0, 82, 45
2, 215280, Note_on_c, 0, 82, 0
2, 215280, Note_on_c, 0, 74, 51
2, 215280, Note_on_c, 0, 80, 61
2, 215400, Note_on_c, 0, 80, 0
2, 215400, Note_on_c, 0, 74, 0
2, 215400, Note_on_c, 0, 82, 46
2, 215520, Note_on_c, 0, 82, 0
2, 215520, Note_on_c, 0, 74, 45
2, 215520, Note_on_c, 0, 80, 53
2, 215640, Note_on_c, 0, 80, 0
2, 215640, Note_on_c, 0, 74, 0
2, 215640, Note_on_c, 0, 82, 48
2, 215760, Note_on_c, 0, 82, 0
2, 215760, Note_on_c, 0, 74, 45
2, 215760, Note_on_c, 0, 80, 53
2, 215880, Note_on_c, 0, 80, 0
2, 215880, Note_on_c, 0, 74, 0
2, 215880, Note_on_c, 0, 82, 46
2, 216000, Note_on_c, 0, 82, 0
2, 216000, Note_on_c, 0, 74, 49
2, 216000, Note_on_c, 0, 80, 58
2, 216120, Note_on_c, 0, 80, 0
2, 216120, Note_on_c, 0, 74, 0
2, 216120, Note_on_c, 0, 86, 46
2, 216240, Note_on_c, 0, 86, 0
2, 216240, Note_on_c, 0, 74, 45
2, 216240, Note_on_c, 0, 80, 53
2, 216360, Note_on_c, 0, 80, 0
2, 216360, Note_on_c, 0, 74, 0
2, 216360, Note_on_c, 0, 86, 46
2, 216480, Note_on_c, 0, 86, 0
2, 216480, Note_on_c, 0, 74, 45
2, 216480, Note_on_c, 0, 80, 53
2, 216600, Note_on_c, 0, 80, 0
2, 216600, Note_on_c, 0, 74, 0
2, 216600, Note_on_c, 0, 86, 46
2, 216720, Note_on_c, 0, 86, 0
2, 216720, Note_on_c, 0, 75, 48
2, 216720, Note_on_c, 0, 80, 57
2, 216840, Note_on_c, 0, 80, 0
2, 216840, Note_on_c, 0, 75, 0
2, 216840, Note_on_c, 0, 87, 46
2, 216960, Note_on_c, 0, 87, 0
2, 216960, Note_on_c, 0, 75, 45
2, 216960, Note_on_c, 0, 80, 53
2, 217080, Note_on_c, 0, 80, 0
2, 217080, Note_on_c, 0, 75, 0
2, 217080, Note_on_c, 0, 87, 46
2, 217200, Note_on_c, 0, 87, 0
2, 217200, Note_on_c, 0, 75, 45
2, 217200, Note_on_c, 0, 80, 53
2, 217320, Note_on_c, 0, 80, 0
2, 217320, Note_on_c, 0, 75, 0
2, 217320, Note_on_c, 0, 86, 46
2, 217440, Note_on_c, 0, 86, 0
2, 217440, Note_on_c, 0, 75, 45
2, 217440, Note_on_c, 0, 81, 53
2, 217560, Note_on_c, 0, 81, 0
2, 217560, Note_on_c, 0, 75, 0
2, 217560, Note_on_c, 0, 84, 46
2, 217680, Note_on_c, 0, 84, 0
2, 217680, Note_on_c, 0, 75, 45
2, 217680, Note_on_c, 0, 81, 53
2, 217800, Note_on_c, 0, 81, 0
2, 217800, Note_on_c, 0, 75, 0
2, 217800, Note_on_c, 0, 84, 46
2, 217920, Note_on_c, 0, 84, 0
2, 217920, Note_on_c, 0, 75, 45
2, 217920, Note_on_c, 0, 81, 53
2, 218040, Note_on_c, 0, 81, 0
2, 218040, Note_on_c, 0, 75, 0
2, 218040, Note_on_c, 0, 84, 46
2, 218160, Note_on_c, 0, 84, 0
2, 218160, Note_on_c, 0, 74, 45
2, 218160, Note_on_c, 0, 82, 53
2, 218280, Note_on_c, 0, 82, 0
2, 218280, Note_on_c, 0, 74, 0
2, 218280, Note_on_c, 0, 86, 46
2, 218400, Note_on_c, 0, 86, 0
2, 218400, Note_on_c, 0, 74, 45
2, 218400, Note_on_c, 0, 82, 53
2, 218520, Note_on_c, 0, 82, 0
2, 218520, Note_on_c, 0, 74, 0
2, 218520, Note_on_c, 0, 86, 46
2, 218640, Note_on_c, 0, 86, 0
2, 218640, Note_on_c, 0, 74, 45
2, 218640, Note_on_c, 0, 82, 53
2, 218760, Note_on_c, 0, 82, 0
2, 218760, Note_on_c, 0, 74, 0
2, 218760, Note_on_c, 0, 86, 46
2, 218880, Note_on_c, 0, 86, 0
2, 218880, Note_on_c, 0, 75, 46
2, 218880, Note_on_c, 0, 81, 54
2, 219000, Note_on_c, 0, 81, 0
2, 219000, Note_on_c, 0, 75, 0
2, 219000, Note_on_c, 0, 84, 46
2, 219120, Note_on_c, 0, 84, 0
2, 219120, Note_on_c, 0, 75, 45
2, 219120, Note_on_c, 0, 81, 53
2, 219240, Note_on_c, 0, 81, 0
2, 219240, Note_on_c, 0, 75, 0
2, 219240, Note_on_c, 0, 84, 45
2, 219360, Note_on_c, 0, 84, 0
2, 219360, Note_on_c, 0, 75, 45
2, 219360, Note_on_c, 0, 81, 53
2, 219480, Note_on_c, 0, 81, 0
2, 219480, Note_on_c, 0, 75, 0
2, 219480, Note_on_c, 0, 84, 45
2, 219600, Note_on_c, 0, 84, 0
2, 219600, Note_on_c, 0, 74, 48
2, 219600, Note_on_c, 0, 82, 57
2, 219720, Note_on_c, 0, 82, 0
2, 219720, Note_on_c, 0, 74, 0
2, 219720, Note_on_c, 0, 86, 46
2, 219840, Note_on_c, 0, 86, 0
2, 219840, Note_on_c, 0, 82, 53
2, 219840, Note_on_c, 0, 74, 45
2, 219960, Note_on_c, 0, 74, 0
2, 219960, Note_on_c, 0, 82, 0
2, 219960, Note_on_c, 0, 86, 45
2, 220080, Note_on_c, 0, 86, 0
2, 220080, Note_on_c, 0, 74, 45
2, 220080, Note_on_c, 0, 82, 53
2, 220200, Note_on_c, 0, 82, 0
2, 220200, Note_on_c, 0, 74, 0
2, 220200, Note_on_c, 0, 86, 45
2, 220320, Note_on_c, 0, 86, 0
2, 220320, Note_on_c, 0, 75, 41
2, 220320, Note_on_c, 0, 81, 49
2, 220440, Note_on_c, 0, 81, 0
2, 220440, Note_on_c, 0, 75, 0
2, 220440, Note_on_c, 0, 84, 41
2, 220560, Note_on_c, 0, 84, 0
2, 220560, Note_on_c, 0, 75, 40
2, 220560, Note_on_c, 0, 81, 48
2, 220680, Note_on_c, 0, 81, 0
2, 220680, Note_on_c, 0, 75, 0
2, 220680, Note_on_c, 0, 84, 40
2, 220800, Note_on_c, 0, 84, 0
2, 220800, Note_on_c, 0, 75, 40
2, 220800, Note_on_c, 0, 81, 48
2, 220920, Note_on_c, 0, 81, 0
2, 220920, Note_on_c, 0, 75, 0
2, 220920, Note_on_c, 0, 84, 40
2, 221040, Note_on_c, 0, 84, 0
2, 221040, Note_on_c, 0, 74, 42
2, 221040, Note_on_c, 0, 82, 51
2, 221160, Note_on_c, 0, 82, 0
2, 221160, Note_on_c, 0, 74, 0
2, 221160, Note_on_c, 0, 86, 41
2, 221280, Note_on_c, 0, 86, 0
2, 221280, Note_on_c, 0, 82, 48
2, 221280, Note_on_c, 0, 74, 40
2, 221400, Note_on_c, 0, 74, 0
2, 221400, Note_on_c, 0, 82, 0
2, 221400, Note_on_c, 0, 86, 40
2, 221520, Note_on_c, 0, 86, 0
2, 221520, Note_on_c, 0, 74, 40
2, 221520, Note_on_c, 0, 82, 48
2, 221640, Note_on_c, 0, 82, 0
2, 221640, Note_on_c, 0, 74, 0
2, 221640, Note_on_c, 0, 86, 40
2, 221760, Note_on_c, 0, 86, 0
2, 221760, Note_on_c, 0, 75, 35
2, 221760, Note_on_c, 0, 81, 43
2, 221880, Note_on_c, 0, 81, 0
2, 221880, Note_on_c, 0, 75, 0
2, 221880, Note_on_c, 0, 84, 37
2, 222000, Note_on_c, 0, 84, 0
2, 222000, Note_on_c, 0, 75, 35
2, 222000, Note_on_c, 0, 81, 42
2, 222120, Note_on_c, 0, 81, 0
2, 222120, Note_on_c, 0, 75, 0
2, 222120, Note_on_c, 0, 84, 35
2, 222240, Note_on_c, 0, 84, 0
2, 222240, Note_on_c, 0, 75, 35
2, 222240, Note_on_c, 0, 81, 42
2, 222360, Note_on_c, 0, 81, 0
2, 222360, Note_on_c, 0, 75, 0
2, 222360, Note_on_c, 0, 84, 35
2, 222480, Note_on_c, 0, 84, 0
2, 222480, Note_on_c, 0, 86, 45
2, 222480, Note_on_c, 0, 74, 38
2, 222480, Note_on_c, 0, 82, 45
2, 222720, Note_on_c, 0, 82, 0
2, 222720, Note_on_c, 0, 74, 0
2, 222720, Note_on_c, 0, 86, 0
2, 223200, Note_on_c, 0, 74, 33
2, 223200, Note_on_c, 0, 82, 39
2, 223200, Note_on_c, 0, 86, 39
2, 223440, Note_on_c, 0, 86, 0
2, 223440, Note_on_c, 0, 82, 0
2, 223440, Note_on_c, 0, 74, 0
2, 223920, Note_on_c, 0, 74, 32
2, 223920, Note_on_c, 0, 82, 38
2, 223920, Note_on_c, 0, 86, 38
2, 224160, Note_on_c, 0, 86, 0
2, 224160, Note_on_c, 0, 82, 0
2, 224160, Note_on_c, 0, 74, 0
2, 224640, Note_on_c, 0, 74, 28
2, 224640, Note_on_c, 0, 82, 34
2, 224640, Note_on_c, 0, 86, 34
2, 225600, Note_on_c, 0, 86, 0
2, 225600, Note_on_c, 0, 82, 0
2, 225600, Note_on_c, 0, 74, 0
2, 225600, End_track
3, 0, Start_track
3, 0, Title_t, "Piano left"
3, 0, Program_c, 0, 1
3, 0, Control_c, 0, 7, 100
3, 0, Control_c, 0, 10, 64
3, 0, Control_c, 0, 64, 127
3, 0, Note_on_c, 0, 58, 31
3, 0, Note_on_c, 0, 62, 38
3, 120, Note_on_c, 0, 62, 0
3, 120, Note_on_c, 0, 58, 0
3, 120, Note_on_c, 0, 65, 25
3, 240, Note_on_c, 0, 65, 0
3, 240, Note_on_c, 0, 58, 24
3, 240, Note_on_c, 0, 62, 29
3, 240, Control_c, 0, 64, 0
3, 282, Control_c, 0, 64, 127
3, 360, Note_on_c, 0, 62, 0
3, 360, Note_on_c, 0, 58, 0
3, 360, Note_on_c, 0, 65, 24
3, 480, Note_on_c, 0, 65, 0
3, 480, Note_on_c, 0, 62, 29
3, 480, Note_on_c, 0, 58, 24
3, 486, Control_c, 0, 64, 0
3, 515, Control_c, 0, 64, 127
3, 600, Note_on_c, 0, 58, 0
3, 600, Note_on_c, 0, 62, 0
3, 600, Note_on_c, 0, 65, 25
3, 720, Note_on_c, 0, 65, 0
3, 720, Note_on_c, 0, 63, 34
3, 720, Note_on_c, 0, 58, 28
3, 727, Control_c, 0, 64, 0
3, 769, Control_c, 0, 64, 127
3, 840, Note_on_c, 0, 58, 0
3, 840, Note_on_c, 0, 63, 0
3, 840, Note_on_c, 0, 67, 25
3, 960, Note_on_c, 0, 67, 0
3, 960, Note_on_c, 0, 63, 29
3, 960, Note_on_c, 0, 58, 24
3, 974, Control_c, 0, 64, 0
3, 1009, Control_c, 0, 64, 127
3, 1080, Note_on_c, 0, 58, 0
3, 1080, Note_on_c, 0, 63, 0
3, 1080, Note_on_c, 0, 67, 24
3, 1200, Note_on_c, 0, 67, 0
3, 1200, Note_on_c, 0, 58, 24
3, 1200, Note_on_c, 0, 63, 29
3, 1320, Note_on_c, 0, 63, 0
3, 1320, Note_on_c, 0, 58, 0
3, 1320, Note_on_c, 0, 67, 24
3, 1440, Note_on_c, 0, 67, 0
3, 1440, Note_on_c, 0, 58, 34
3, 1440, Note_on_c, 0, 62, 40
3, 1455, Control_c, 0, 64, 0
3, 1489, Control_c, 0, 64, 127
3, 1560, Note_on_c, 0, 62, 0
3, 1560, Note_on_c, 0, 58, 0
3, 1560, Note_on_c, 0, 65, 25
3, 1680, Note_on_c, 0, 65, 0
3, 1680, Note_on_c, 0, 62, 29
3, 1680, Note_on_c, 0, 58, 24
3, 1680, Control_c, 0, 64, 0
3, 1729, Control_c, 0, 64, 127
3, 1800, Note_on_c, 0, 58, 0
3, 1800, Note_on_c, 0, 62, 0
3, 1800, Note_on_c, 0, 65, 24
3, 1920, Note_on_c, 0, 65, 0
3, 1920, Note_on_c, 0, 58, 24
3, 1920, Note_on_c, 0, 62, 29
3, 2040, Note_on_c, 0, 62, 0
3, 2040, Note_on_c, 0, 58, 0
3, 2040, Note_on_c, 0, 65, 24
3, 2160, Note_on_c, 0, 65, 0
3, 2160, Control_c, 0, 64, 0
3, 2160, Note_on_c, 0, 63, 34
3, 2160, Note_on_c, 0, 57, 29
3, 2280, Note_on_c, 0, 57, 0
3, 2280, Note_on_c, 0, 63, 0
3, 2280, Note_on_c, 0, 65, 25
3, 2400, Note_on_c, 0, 65, 0
3, 2400, Note_on_c, 0, 57, 24
3, 2400, Note_on_c, 0, 63, 29
3, 2520, Note_on_c, 0, 63, 0
3, 2520, Note_on_c, 0, 57, 0
3, 2520, Note_on_c, 0, 65, 26
3, 2640, Note_on_c, 0, 65, 0
3, 2640, Note_on_c, 0, 57, 24
3, 2640, Note_on_c, 0, 63, 29
3, 2760, Note_on_c, 0, 63, 0
3, 2760, Note_on_c, 0, 57, 0
3, 2760, Note_on_c, 0, 65, 25
3, 2880, Note_on_c, 0, 65, 0
3, 2880, Note_on_c, 0, 63, 37
3, 2880, Note_on_c, 0, 57, 31
3, 2949, Control_c, 0, 64, 127
3, 3000, Note_on_c, 0, 57, 0
3, 3000, Note_on_c, 0, 63, 0
3, 3000, Note_on_c, 0, 66, 25
3, 3120, Note_on_c, 0, 66, 0
3, 3120, Note_on_c, 0, 57, 24
3, 3120, Note_on_c, 0, 63, 29
3, 3240, Note_on_c, 0, 63, 0
3, 3240, Note_on_c, 0, 57, 0
3, 3240, Note_on_c, 0, 66, 25
3, 3356, Control_c, 0, 64, 0
3, 3360, Note_on_c, 0, 66, 0
3, 3360, Note_on_c, 0, 57, 24
3, 3360, Note_on_c, 0, 63, 29
3, 3480, Note_on_c, 0, 63, 0
3, 3480, Note_on_c, 0, 57, 0
3, 3480, Note_on_c, 0, 66, 25
3, 3600, Note_on_c, 0, 66, 0
3, 3600, Note_on_c, 0, 58, 29
3, 3600, Note_on_c, 0, 63, 34
3, 3720, Note_on_c, 0, 63, 0
3, 3720, Note_on_c, 0, 58, 0
3, 3720, Note_on_c, 0, 67, 25
3, 3727, Control_c, 0, 64, 127
3, 3840, Note_on_c, 0, 67, 0
3, 3840, Note_on_c, 0, 63, 29
3, 3840, Note_on_c, 0, 58, 24
3, 3960, Note_on_c, 0, 58, 0
3, 3960, Note_on_c, 0, 63, 0
3, 3960, Note_on_c, 0, 67, 25
3, 4052, Control_c, 0, 64, 0
3, 4080, Note_on_c, 0, 67, 0
3, 4080, Note_on_c, 0, 58, 24
3, 4080, Note_on_c, 0, 63, 29
3, 4200, Note_on_c, 0, 63, 0
3, 4200, Note_on_c, 0, 58, 0
3, 4200, Note_on_c, 0, 67, 25
3, 4320, Note_on_c, 0, 67, 0
3, 4320, Note_on_c, 0, 60, 29
3, 4320, Note_on_c, 0, 63, 34
3, 4440, Note_on_c, 0, 63, 0
3, 4440, Note_on_c, 0, 60, 0
3, 4440, Note_on_c, 0, 65, 25
3, 4542, Control_c, 0, 64, 127
3, 4560, Note_on_c, 0, 65, 0
3, 4560, Note_on_c, 0, 60, 24
3, 4560, Note_on_c, 0, 63, 29
3, 4680, Note_on_c, 0, 63, 0
3, 4680, Note_on_c, 0, 60, 0
3, 4680, Note_on_c, 0, 65, 25
3, 4800, Note_on_c, 0, 65, 0
3, 4800, Note_on_c, 0, 60, 24
3, 4800, Note_on_c, 0, 63, 29
3, 4920, Note_on_c, 0, 63, 0
3, 4920, Note_on_c, 0, 60, 0
3, 4920, Note_on_c, 0, 65, 25
3, 5040, Note_on_c, 0, 65, 0
3, 5040, Note_on_c, 0, 58, 29
3, 5040, Note_on_c, 0, 62, 34
3, 5040, Control_c, 0, 64, 0
3, 5160, Note_on_c, 0, 62, 0
3, 5160, Note_on_c, 0, 58, 0
3, 5160, Note_on_c, 0, 65, 25
3, 5245, Control_c, 0, 64, 127
3, 5280, Note_on_c, 0, 65, 0
3, 5280, Note_on_c, 0, 58, 24
3, 5280, Note_on_c, 0, 62, 29
3, 5400, Note_on_c, 0, 62, 0
3, 5400, Note_on_c, 0, 58, 0
3, 5400, Note_on_c, 0, 65, 25
3, 5520, Note_on_c, 0, 65, 0
3, 5520, Note_on_c, 0, 58, 24
3, 5520, Note_on_c, 0, 62, 29
3, 5640, Note_on_c, 0, 62, 0
3, 5640, Note_on_c, 0, 58, 0
3, 5640, Note_on_c, 0, 65, 25
3, 5760, Note_on_c, 0, 65, 0
3, 5760, Control_c, 0, 64, 0
3, 5760, Note_on_c, 0, 58, 48
3, 6000, Note_on_c, 0, 58, 0
3, 6000, Note_on_c, 0, 57, 40
3, 6240, Note_on_c, 0, 57, 0
3, 6240, Note_on_c, 0, 58, 40
3, 6480, Note_on_c, 0, 58, 0
3, 6480, Note_on_c, 0, 55, 48
3, 6720, Note_on_c, 0, 55, 0
3, 6720, Note_on_c, 0, 57, 39
3, 6840, Note_on_c, 0, 57, 0
3, 6840, Note_on_c, 0, 58, 39
3, 6960, Note_on_c, 0, 58, 0
3, 6960, Note_on_c, 0, 60, 40
3, 7080, Note_on_c, 0, 60, 0
3, 7080, Note_on_c, 0, 62, 40
3, 7200, Note_on_c, 0, 62, 0
3, 7200, Note_on_c, 0, 58, 46
3, 7440, Note_on_c, 0, 58, 0
3, 7440, Note_on_c, 0, 60, 44
3, 7560, Note_on_c, 0, 60, 0
3, 7560, Note_on_c, 0, 58, 40
3, 7680, Note_on_c, 0, 58, 0
3, 7680, Note_on_c, 0, 57, 44
3, 7800, Note_on_c, 0, 57, 0
3, 7800, Note_on_c, 0, 55, 40
3, 7920, Note_on_c, 0, 55, 0
3, 7920, Note_on_c, 0, 53, 47
3, 7980, Note_on_c, 0, 53, 0
3, 8160, Note_on_c, 0, 53, 40
3, 8220, Note_on_c, 0, 53, 0
3, 8400, Note_on_c, 0, 53, 40
3, 8460, Note_on_c, 0, 53, 0
3, 8640, Note_on_c, 0, 54, 51
3, 8880, Note_on_c, 0, 54, 0
3, 8880, Note_on_c, 0, 66, 39
3, 9120, Note_on_c, 0, 66, 0
3, 9120, Note_on_c, 0, 66, 41
3, 9180, Note_on_c, 0, 66, 0
3, 9360, Note_on_c, 0, 67, 51
3, 9600, Note_on_c, 0, 67, 0
3, 9600, Note_on_c, 0, 55, 45
3, 9840, Note_on_c, 0, 55, 0
3, 9840, Note_on_c, 0, 55, 46
3, 9900, Note_on_c, 0, 55, 0
3, 10080, Note_on_c, 0, 58, 51
3, 10140, Note_on_c, 0, 58, 0
3, 10260, Note_on_c, 0, 48, 39
3, 10320, Note_on_c, 0, 46, 46
3, 10340, Note_on_c, 0, 48, 0
3, 10440, Note_on_c, 0, 45, 42
3, 10460, Note_on_c, 0, 46, 0
3, 10560, Note_on_c, 0, 46, 45
3, 10580, Note_on_c, 0, 45, 0
3, 10800, Note_on_c, 0, 46, 0
3, 10800, Note_on_c, 0, 51, 42
3, 10860, Note_on_c, 0, 51, 0
3, 10980, Note_on_c, 0, 41, 37
3, 11040, Note_on_c, 0, 39, 42
3, 11060, Note_on_c, 0, 41, 0
3, 11160, Note_on_c, 0, 38, 39
3, 11180, Note_on_c, 0, 39, 0
3, 11280, Note_on_c, 0, 39, 42
3, 11300, Note_on_c, 0, 38, 0
3, 11400, Note_on_c, 0, 39, 0
3, 11520, Note_on_c, 0, 63, 29
3, 11520, Note_on_c, 0, 67, 34
3, 11570, Control_c, 0, 64, 127
3, 11640, Note_on_c, 0, 67, 0
3, 11640, Note_on_c, 0, 63, 0
3, 11640, Note_on_c, 0, 70, 28
3, 11697, Control_c, 0, 64, 0
3, 11734, Control_c, 0, 64, 127
3, 11760, Note_on_c, 0, 70, 0
3, 11760, Note_on_c, 0, 63, 26
3, 11760, Note_on_c, 0, 67, 32
3, 11880, Note_on_c, 0, 67, 0
3, 11880, Note_on_c, 0, 63, 0
3, 11880, Note_on_c, 0, 70, 28
3, 12000, Note_on_c, 0, 70, 0
3, 12000, Note_on_c, 0, 63, 26
3, 12000, Note_on_c, 0, 67, 32
3, 12015, Control_c, 0, 64, 0
3, 12031, Control_c, 0, 64, 127
3, 12120, Note_on_c, 0, 67, 0
3, 12120, Note_on_c, 0, 63, 0
3, 12120, Note_on_c, 0, 70, 28
3, 12240, Note_on_c, 0, 70, 0
3, 12240, Note_on_c, 0, 62, 26
3, 12240, Note_on_c, 0, 65, 32
3, 12255, Control_c, 0, 64, 0
3, 12290, Control_c, 0, 64, 127
3, 12360, Note_on_c, 0, 65, 0
3, 12360, Note_on_c, 0, 62, 0
3, 12360, Note_on_c, 0, 70, 28
3, 12424, Control_c, 0, 64, 0
3, 12459, Control_c, 0, 64, 127
3, 12480, Note_on_c, 0, 70, 0
3, 12480, Note_on_c, 0, 62, 26
3, 12480, Note_on_c, 0, 65, 32
3, 12600, Note_on_c, 0, 65, 0
3, 12600, Note_on_c, 0, 62, 0
3, 12600, Note_on_c, 0, 70, 28
3, 12720, Note_on_c, 0, 70, 0
3, 12720, Note_on_c, 0, 61, 26
3, 12720, Note_on_c, 0, 65, 32
3, 12724, Control_c, 0, 64, 0
3, 12769, Control_c, 0, 64, 127
3, 12840, Note_on_c, 0, 65, 0
3, 12840, Note_on_c, 0, 61, 0
3, 12840, Note_on_c, 0, 70, 28
3, 12960, Note_on_c, 0, 70, 0
3, 12960, Note_on_c, 0, 60, 26
3, 12960, Note_on_c, 0, 65, 32
3, 12975, Control_c, 0, 64, 0
3, 12991, Control_c, 0, 64, 0
3, 13010, Control_c, 0, 64, 127
3, 13080, Note_on_c, 0, 65, 0
3, 13080, Note_on_c, 0, 60, 0
3, 13080, Note_on_c, 0, 68, 28
3, 13200, Note_on_c, 0, 68, 0
3, 13200, Note_on_c, 0, 60, 26
3, 13200, Note_on_c, 0, 65, 32
3, 13218, Control_c, 0, 64, 0
3, 13309, Control_c, 0, 64, 127
3, 13320, Note_on_c, 0, 65, 0
3, 13320, Note_on_c, 0, 60, 0
3, 13320, Note_on_c, 0, 68, 28
3, 13440, Note_on_c, 0, 68, 0
3, 13440, Note_on_c, 0, 60, 26
3, 13440, Note_on_c, 0, 65, 32
3, 13560, Note_on_c, 0, 65, 0
3, 13560, Note_on_c, 0, 60, 0
3, 13560, Note_on_c, 0, 68, 28
3, 13680, Note_on_c, 0, 68, 0
3, 13680, Note_on_c, 0, 60, 26
3, 13680, Note_on_c, 0, 65, 32
3, 13680, Control_c, 0, 64, 0
3, 13695, Control_c, 0, 64, 0
3, 13730, Control_c, 0, 64, 127
3, 13800, Note_on_c, 0, 65, 0
3, 13800, Note_on_c, 0, 60, 0
3, 13800, Note_on_c, 0, 67, 28
3, 13920, Note_on_c, 0, 67, 0
3, 13920, Note_on_c, 0, 60, 26
3, 13920, Note_on_c, 0, 64, 32
3, 13926, Control_c, 0, 64, 0
3, 13954, Control_c, 0, 64, 127
3, 14040, Note_on_c, 0, 64, 0
3, 14040, Note_on_c, 0, 60, 0
3, 14040, Note_on_c, 0, 67, 28
3, 14160, Note_on_c, 0, 67, 0
3, 14160, Note_on_c, 0, 60, 26
3, 14160, Note_on_c, 0, 64, 32
3, 14280, Note_on_c, 0, 64, 0
3, 14280, Note_on_c, 0, 60, 0
3, 14280, Note_on_c, 0, 67, 30
3, 14400, Note_on_c, 0, 67, 0
3, 14400, Note_on_c, 0, 56, 37
3, 14400, Control_c, 0, 64, 0
3, 14400, Note_on_c, 0, 60, 44
3, 14640, Note_on_c, 0, 60, 0
3, 14640, Note_on_c, 0, 61, 40
3, 14880, Note_on_c, 0, 61, 0
3, 14880, Note_on_c, 0, 60, 40
3, 15120, Note_on_c, 0, 60, 0
3, 15120, Note_on_c, 0, 56, 0
3, 15120, Note_on_c, 0, 49, 37
3, 15120, Note_on_c, 0, 58, 44
3, 15360, Note_on_c, 0, 58, 0
3, 15360, Note_on_c, 0, 53, 42
3, 15600, Note_on_c, 0, 53, 0
3, 15600, Note_on_c, 0, 55, 44
3, 15780, Note_on_c, 0, 58, 44
3, 15840, Note_on_c, 0, 58, 0
3, 15840, Note_on_c, 0, 55, 0
3, 15840, Note_on_c, 0, 49, 0
3, 15840, Note_on_c, 0, 51, 37
3, 15840, Note_on_c, 0, 56, 44
3, 16080, Note_on_c, 0, 56, 0
3, 16080, Note_on_c, 0, 55, 38
3, 16320, Note_on_c, 0, 55, 0
3, 16320, Note_on_c, 0, 56, 35
3, 16560, Note_on_c, 0, 56, 0
3, 16560, Note_on_c, 0, 58, 37
3, 17040, Note_on_c, 0, 58, 0
3, 17040, Note_on_c, 0, 59, 34
3, 17280, Note_on_c, 0, 59, 0
3, 17280, Note_on_c, 0, 51, 0
3, 17280, Note_on_c, 0, 56, 29
3, 17280, Note_on_c, 0, 60, 34
3, 17330, Control_c, 0, 64, 127
3, 17400, Note_on_c, 0, 60, 0
3, 17400, Note_on_c, 0, 56, 0
3, 17400, Note_on_c, 0, 63, 28
3, 17520, Note_on_c, 0, 63, 0
3, 17520, Note_on_c, 0, 56, 26
3, 17520, Note_on_c, 0, 60, 32
3, 17527, Control_c, 0, 64, 0
3, 17549, Control_c, 0, 64, 127
3, 17640, Note_on_c, 0, 60, 0
3, 17640, Note_on_c, 0, 56, 0
3, 17640, Note_on_c, 0, 63, 28
3, 17760, Note_on_c, 0, 63, 0
3, 17760, Note_on_c, 0, 56, 26
3, 17760, Note_on_c, 0, 60, 32
3, 17763, Control_c, 0, 64, 0
3, 17789, Control_c, 0, 64, 127
3, 17880, Note_on_c, 0, 60, 0
3, 17880, Note_on_c, 0, 56, 0
3, 17880, Note_on_c, 0, 63, 28
3, 18000, Note_on_c, 0, 63, 0
3, 18000, Note_on_c, 0, 55, 26
3, 18000, Note_on_c, 0, 58, 32
3, 18000, Control_c, 0, 64, 0
3, 18015, Control_c, 0, 64, 0
3, 18050, Control_c, 0, 64, 127
3, 18120, Note_on_c, 0, 58, 0
3, 18120, Note_on_c, 0, 55, 0
3, 18120, Note_on_c, 0, 63, 28
3, 18240, Note_on_c, 0, 63, 0
3, 18240, Note_on_c, 0, 55, 26
3, 18240, Note_on_c, 0, 58, 32
3, 18244, Control_c, 0, 64, 0
3, 18286, Control_c, 0, 64, 127
3, 18360, Note_on_c, 0, 58, 0
3, 18360, Note_on_c, 0, 55, 0
3, 18360, Note_on_c, 0, 63, 28
3, 18459, Control_c, 0, 64, 0
3, 18480, Note_on_c, 0, 63, 0
3, 18480, Note_on_c, 0, 54, 26
3, 18480, Note_on_c, 0, 58, 32
3, 18494, Control_c, 0, 64, 127
3, 18600, Note_on_c, 0, 58, 0
3, 18600, Note_on_c, 0, 54, 0
3, 18600, Note_on_c, 0, 63, 28
3, 18720, Note_on_c, 0, 63, 0
3, 18720, Note_on_c, 0, 53, 26
3, 18720, Note_on_c, 0, 58, 32
3, 18720, Control_c, 0, 64, 0
3, 18735, Control_c, 0, 64, 0
3, 18770, Control_c, 0, 64, 127
3, 18840, Note_on_c, 0, 58, 0
3, 18840, Note_on_c, 0, 53, 0
3, 18840, Note_on_c, 0, 61, 28
3, 18960, Note_on_c, 0, 61, 0
3, 18960, Note_on_c, 0, 53, 26
3, 18960, Note_on_c, 0, 58, 32
3, 18980, Control_c, 0, 64, 0
3, 19011, Control_c, 0, 64, 127
3, 19080, Note_on_c, 0, 58, 0
3, 19080, Note_on_c, 0, 53, 0
3, 19080, Note_on_c, 0, 61, 28
3, 19200, Note_on_c, 0, 61, 0
3, 19200, Note_on_c, 0, 53, 26
3, 19200, Note_on_c, 0, 58, 32
3, 19320, Note_on_c, 0, 58, 0
3, 19320, Note_on_c, 0, 53, 0
3, 19320, Note_on_c, 0, 61, 28
3, 19440, Note_on_c, 0, 61, 0
3, 19440, Note_on_c, 0, 53, 26
3, 19440, Note_on_c, 0, 58, 32
3, 19440, Control_c, 0, 64, 0
3, 19455, Control_c, 0, 64, 0
3, 19490, Control_c, 0, 64, 127
3, 19560, Note_on_c, 0, 58, 0
3, 19560, Note_on_c, 0, 53, 0
3, 19560, Note_on_c, 0, 60, 28
3, 19680, Note_on_c, 0, 60, 0
3, 19680, Note_on_c, 0, 53, 26
3, 19680, Note_on_c, 0, 57, 32
3, 19686, Control_c, 0, 64, 0
3, 19714, Control_c, 0, 64, 127
3, 19800, Note_on_c, 0, 57, 0
3, 19800, Note_on_c, 0, 53, 0
3, 19800, Note_on_c, 0, 60, 28
3, 19920, Note_on_c, 0, 60, 0
3, 19920, Note_on_c, 0, 53, 26
3, 19920, Note_on_c, 0, 57, 32
3, 20040, Note_on_c, 0, 57, 0
3, 20040, Note_on_c, 0, 53, 0
3, 20040, Note_on_c, 0, 60, 30
3, 20160, Note_on_c, 0, 60, 0
3, 20160, Note_on_c, 0, 61, 37
3, 20160, Control_c, 0, 64, 0
3, 20160, Note_on_c, 0, 65, 44
3, 20400, Note_on_c, 0, 65, 0
3, 20400, Note_on_c, 0, 66, 40
3, 20640, Note_on_c, 0, 66, 0
3, 20640, Note_on_c, 0, 65, 40
3, 20880, Note_on_c, 0, 65, 0
3, 20880, Note_on_c, 0, 61, 0
3, 20880, Note_on_c, 0, 54, 37
3, 20880, Note_on_c, 0, 63, 44
3, 21120, Note_on_c, 0, 63, 0
3, 21120, Note_on_c, 0, 58, 42
3, 21360, Note_on_c, 0, 58, 0
3, 21360, Note_on_c, 0, 60, 44
3, 21540, Note_on_c, 0, 63, 41
3, 21600, Note_on_c, 0, 63, 0
3, 21600, Note_on_c, 0, 60, 0
3, 21600, Note_on_c, 0, 54, 0
3, 21600, Note_on_c, 0, 56, 37
3, 21600, Note_on_c, 0, 61, 44
3, 21840, Note_on_c, 0, 61, 0
3, 21840, Note_on_c, 0, 60, 38
3, 22080, Note_on_c, 0, 60, 0
3, 22080, Note_on_c, 0, 61, 35
3, 22320, Note_on_c, 0, 61, 0
3, 22320, Note_on_c, 0, 63, 37
3, 22800, Note_on_c, 0, 63, 0
3, 22800, Note_on_c, 0, 64, 34
3, 23040, Note_on_c, 0, 64, 0
3, 23040, Note_on_c, 0, 56, 0
3, 23040, Note_on_c, 0, 61, 29
3, 23040, Note_on_c, 0, 65, 34
3, 23100, Note_on_c, 0, 65, 0
3, 23100, Note_on_c, 0, 61, 0
3, 23280, Note_on_c, 0, 49, 28
3, 23340, Note_on_c, 0, 49, 0
3, 23520, Note_on_c, 0, 49, 28
3, 23580, Note_on_c, 0, 49, 0
3, 23760, Note_on_c, 0, 61, 26
3, 23763, Note_on_c, 0, 65, 32
3, 23820, Note_on_c, 0, 61, 0
3, 23823, Note_on_c, 0, 65, 0
3, 24000, Note_on_c, 0, 49, 28
3, 24060, Note_on_c, 0, 49, 0
3, 24240, Note_on_c, 0, 49, 28
3, 24300, Note_on_c, 0, 49, 0
3, 24480, Note_on_c, 0, 61, 28
3, 24480, Note_on_c, 0, 65, 33
3, 24540, Note_on_c, 0, 65, 0
3, 24540, Note_on_c, 0, 61, 0
3, 24720, Note_on_c, 0, 49, 28
3, 24780, Note_on_c, 0, 49, 0
3, 24960, Note_on_c, 0, 49, 28
3, 25020, Note_on_c, 0, 49, 0
3, 25200, Note_on_c, 0, 61, 28
3, 25200, Note_on_c, 0, 66, 34
3, 25260, Note_on_c, 0, 66, 0
3, 25260, Note_on_c, 0, 61, 0
3, 25440, Note_on_c, 0, 49, 28
3, 25500, Note_on_c, 0, 49, 0
3, 25680, Note_on_c, 0, 49, 28
3, 25740, Note_on_c, 0, 49, 0
3, 25920, Note_on_c, 0, 61, 28
3, 25920, Note_on_c, 0, 65, 33
3, 25980, Note_on_c, 0, 65, 0
3, 25980, Note_on_c, 0, 61, 0
3, 26160, Note_on_c, 0, 49, 28
3, 26220, Note_on_c, 0, 49, 0
3, 26400, Note_on_c, 0, 49, 33
3, 26460, Note_on_c, 0, 49, 0
3, 26640, Note_on_c, 0, 61, 31
3, 26640, Note_on_c, 0, 66, 38
3, 26700, Note_on_c, 0, 66, 0
3, 26700, Note_on_c, 0, 61, 0
3, 26880, Note_on_c, 0, 49, 28
3, 26940, Note_on_c, 0, 49, 0
3, 27120, Note_on_c, 0, 49, 28
3, 27180, Note_on_c, 0, 49, 0
3, 27360, Note_on_c, 0, 58, 28
3, 27360, Note_on_c, 0, 61, 28
3, 27360, Note_on_c, 0, 66, 33
3, 27420, Note_on_c, 0, 66, 0
3, 27420, Note_on_c, 0, 61, 0
3, 27420, Note_on_c, 0, 58, 0
3, 27600, Note_on_c, 0, 49, 25
3, 27660, Note_on_c, 0, 49, 0
3, 27840, Note_on_c, 0, 49, 25
3, 27900, Note_on_c, 0, 49, 0
3, 28080, Note_on_c, 0, 58, 25
3, 28080, Note_on_c, 0, 61, 25
3, 28080, Note_on_c, 0, 66, 30
3, 28140, Note_on_c, 0, 66, 0
3, 28140, Note_on_c, 0, 61, 0
3, 28140, Note_on_c, 0, 58, 0
3, 28320, Note_on_c, 0, 49, 25
3, 28380, Note_on_c, 0, 49, 0
3, 28560, Note_on_c, 0, 49, 25
3, 28620, Note_on_c, 0, 49, 0
3, 28800, Control_c, 0, 64, 0
3, 28800, Note_on_c, 0, 56, 24
3, 28800, Note_on_c, 0, 61, 29
3, 28860, Note_on_c, 0, 61, 0
3, 28860, Note_on_c, 0, 56, 0
3, 29040, Note_on_c, 0, 49, 24
3, 29060, Control_c, 0, 64, 127
3, 29100, Note_on_c, 0, 49, 0
3, 29280, Note_on_c, 0, 49, 24
3, 29340, Note_on_c, 0, 49, 0
3, 29520, Control_c, 0, 64, 0
3, 29520, Note_on_c, 0, 54, 25
3, 29520, Note_on_c, 0, 58, 30
3, 29566, Control_c, 0, 64, 127
3, 29580, Note_on_c, 0, 58, 0
3, 29580, Note_on_c, 0, 54, 0
3, 29760, Note_on_c, 0, 42, 24
3, 29779, Control_c, 0, 64, 0
3, 29820, Note_on_c, 0, 42, 0
3, 29846, Control_c, 0, 64, 127
3, 30000, Note_on_c, 0, 42, 24
3, 30060, Note_on_c, 0, 42, 0
3, 30240, Control_c, 0, 64, 0
3, 30240, Note_on_c, 0, 63, 24
3, 30240, Note_on_c, 0, 66, 29
3, 30280, Control_c, 0, 64, 127
3, 30300, Note_on_c, 0, 66, 0
3, 30300, Note_on_c, 0, 63, 0
3, 30480, Note_on_c, 0, 56, 24
3, 30501, Control_c, 0, 64, 0
3, 30526, Control_c, 0, 64, 127
3, 30540, Note_on_c, 0, 56, 0
3, 30720, Note_on_c, 0, 56, 24
3, 30780, Note_on_c, 0, 56, 0
3, 30960, Control_c, 0, 64, 0
3, 30960, Note_on_c, 0, 65, 29
3, 30960, Note_on_c, 0, 61, 24
3, 31020, Note_on_c, 0, 61, 0
3, 31020, Note_on_c, 0, 65, 0
3, 31200, Note_on_c, 0, 49, 24
3, 31260, Note_on_c, 0, 49, 0
3, 31440, Note_on_c, 0, 49, 24
3, 31500, Note_on_c, 0, 49, 0
3, 31680, Note_on_c, 0, 61, 25
3, 31680, Note_on_c, 0, 65, 30
3, 31740, Note_on_c, 0, 65, 0
3, 31740, Note_on_c, 0, 61, 0
3, 31920, Note_on_c, 0, 49, 25
3, 31980, Note_on_c, 0, 49, 0
3, 32160, Note_on_c, 0, 49, 25
3, 32220, Note_on_c, 0, 49, 0
3, 32400, Note_on_c, 0, 61, 25
3, 32403, Note_on_c, 0, 65, 31
3, 32460, Note_on_c, 0, 61, 0
3, 32463, Note_on_c, 0, 65, 0
3, 32640, Note_on_c, 0, 49, 28
3, 32700, Note_on_c, 0, 49, 0
3, 32880, Note_on_c, 0, 49, 28
3, 32940, Note_on_c, 0, 49, 0
3, 33120, Note_on_c, 0, 61, 28
3, 33120, Note_on_c, 0, 65, 33
3, 33180, Note_on_c, 0, 65, 0
3, 33180, Note_on_c, 0, 61, 0
3, 33360, Note_on_c, 0, 49, 28
3, 33420, Note_on_c, 0, 49, 0
3, 33600, Note_on_c, 0, 49, 28
3, 33660, Note_on_c, 0, 49, 0
3, 33840, Note_on_c, 0, 61, 28
3, 33840, Note_on_c, 0, 66, 34
3, 33900, Note_on_c, 0, 66, 0
3, 33900, Note_on_c, 0, 61, 0
3, 34080, Note_on_c, 0, 49, 28
3, 34140, Note_on_c, 0, 49, 0
3, 34320, Note_on_c, 0, 49, 28
3, 34380, Note_on_c, 0, 49, 0
3, 34560, Note_on_c, 0, 61, 28
3, 34560, Note_on_c, 0, 65, 33
3, 34620, Note_on_c, 0, 65, 0
3, 34620, Note_on_c, 0, 61, 0
3, 34800, Note_on_c, 0, 49, 28
3, 34860, Note_on_c, 0, 49, 0
3, 35040, Note_on_c, 0, 49, 33
3, 35100, Note_on_c, 0, 49, 0
3, 35280, Note_on_c, 0, 61, 31
3, 35280, Note_on_c, 0, 66, 38
3, 35340, Note_on_c, 0, 66, 0
3, 35340, Note_on_c, 0, 61, 0
3, 35520, Note_on_c, 0, 49, 28
3, 35580, Note_on_c, 0, 49, 0
3, 35760, Note_on_c, 0, 49, 28
3, 35820, Note_on_c, 0, 49, 0
3, 36000, Note_on_c, 0, 57, 28
3, 36000, Note_on_c, 0, 61, 28
3, 36000, Note_on_c, 0, 66, 33
3, 36060, Note_on_c, 0, 66, 0
3, 36060, Note_on_c, 0, 61, 0
3, 36060, Note_on_c, 0, 57, 0
3, 36240, Note_on_c, 0, 54, 25
3, 36300, Note_on_c, 0, 54, 0
3, 36480, Note_on_c, 0, 54, 25
3, 36540, Note_on_c, 0, 54, 0
3, 36720, Note_on_c, 0, 57, 25
3, 36720, Note_on_c, 0, 61, 25
3, 36720, Note_on_c, 0, 66, 30
3, 36780, Note_on_c, 0, 66, 0
3, 36780, Note_on_c, 0, 61, 0
3, 36780, Note_on_c, 0, 57, 0
3, 36960, Note_on_c, 0, 54, 25
3, 37020, Note_on_c, 0, 54, 0
3, 37200, Note_on_c, 0, 54, 25
3, 37260, Note_on_c, 0, 54, 0
3, 37440, Note_on_c, 0, 66, 29
3, 37440, Control_c, 0, 64, 0
3, 37440, Note_on_c, 0, 57, 24
3, 37440, Note_on_c, 0, 61, 24
3, 37500, Note_on_c, 0, 61, 0
3, 37500, Note_on_c, 0, 57, 0
3, 37500, Note_on_c, 0, 66, 0
3, 37680, Note_on_c, 0, 54, 24
3, 37689, Control_c, 0, 64, 127
3, 37740, Note_on_c, 0, 54, 0
3, 37920, Note_on_c, 0, 54, 24
3, 37980, Note_on_c, 0, 54, 0
3, 38160, Control_c, 0, 64, 0
3, 38160, Note_on_c, 0, 62, 25
3, 38160, Note_on_c, 0, 66, 30
3, 38206, Control_c, 0, 64, 127
3, 38220, Note_on_c, 0, 66, 0
3, 38220, Note_on_c, 0, 62, 0
3, 38400, Note_on_c, 0, 50, 24
3, 38406, Control_c, 0, 64, 0
3, 38460, Note_on_c, 0, 50, 0
3, 38475, Control_c, 0, 64, 127
3, 38640, Note_on_c, 0, 50, 24
3, 38700, Note_on_c, 0, 50, 0
3, 38880, Control_c, 0, 64, 0
3, 38880, Note_on_c, 0, 62, 24
3, 38880, Note_on_c, 0, 64, 29
3, 38920, Control_c, 0, 64, 127
3, 38940, Note_on_c, 0, 64, 0
3, 38940, Note_on_c, 0, 62, 0
3, 39120, Note_on_c, 0, 52, 24
3, 39141, Control_c, 0, 64, 0
3, 39177, Control_c, 0, 64, 127
3, 39180, Note_on_c, 0, 52, 0
3, 39360, Note_on_c, 0, 52, 24
3, 39420, Note_on_c, 0, 52, 0
3, 39600, Control_c, 0, 64, 0
3, 39600, Note_on_c, 0, 64, 29
3, 39600, Note_on_c, 0, 61, 24
3, 39660, Note_on_c, 0, 61, 0
3, 39660, Note_on_c, 0, 64, 0
3, 39840, Note_on_c, 0, 57, 24
3, 39900, Note_on_c, 0, 57, 0
3, 40080, Note_on_c, 0, 57, 24
3, 40140, Note_on_c, 0, 57, 0
3, 40320, Note_on_c, 0, 61, 25
3, 40320, Note_on_c, 0, 64, 30
3, 40380, Note_on_c, 0, 64, 0
3, 40380, Note_on_c, 0, 61, 0
3, 40560, Note_on_c, 0, 57, 25
3, 40620, Note_on_c, 0, 57, 0
3, 40800, Note_on_c, 0, 57, 26
3, 40860, Note_on_c, 0, 57, 0
3, 41040, Note_on_c, 0, 64, 29
3, 41040, Control_c, 0, 64, 0
3, 41040, Note_on_c, 0, 61, 24
3, 41055, Note_on_c, 0, 61, 0
3, 41055, Note_on_c, 0, 64, 0
3, 41280, Note_on_c, 0, 57, 24
3, 41295, Note_on_c, 0, 57, 0
3, 41520, Note_on_c, 0, 57, 24
3, 41535, Note_on_c, 0, 57, 0
3, 41760, Control_c, 0, 64, 0
3, 41760, Note_on_c, 0, 61, 25
3, 41760, Note_on_c, 0, 64, 30
3, 41806, Control_c, 0, 64, 127
3, 41820, Note_on_c, 0, 64, 0
3, 41820, Note_on_c, 0, 61, 0
3, 42000, Note_on_c, 0, 58, 24
3, 42011, Control_c, 0, 64, 0
3, 42051, Control_c, 0, 64, 127
3, 42060, Note_on_c, 0, 58, 0
3, 42240, Note_on_c, 0, 58, 24
3, 42300, Note_on_c, 0, 58, 0
3, 42480, Control_c, 0, 64, 0
3, 42480, Note_on_c, 0, 62, 24
3, 42480, Note_on_c, 0, 64, 29
3, 42540, Note_on_c, 0, 64, 0
3, 42540, Note_on_c, 0, 62, 0
3, 42720, Note_on_c, 0, 59, 24
3, 42780, Note_on_c, 0, 59, 0
3, 42960, Note_on_c, 0, 59, 24
3, 43020, Note_on_c, 0, 59, 0
3, 43200, Note_on_c, 0, 64, 29
3, 43200, Note_on_c, 0, 62, 24
3, 43260, Note_on_c, 0, 62, 0
3, 43260, Note_on_c, 0, 64, 0
3, 43440, Note_on_c, 0, 59, 24
3, 43500, Note_on_c, 0, 59, 0
3, 43680, Note_on_c, 0, 59, 24
3, 43740, Note_on_c, 0, 59, 0
3, 43920, Note_on_c, 0, 62, 22
3, 43920, Note_on_c, 0, 64, 25
3, 43980, Note_on_c, 0, 64, 0
3, 43980, Note_on_c, 0, 62, 0
3, 44160, Note_on_c, 0, 59, 22
3, 44220, Note_on_c, 0, 59, 0
3, 44400, Note_on_c, 0, 59, 22
3, 44460, Note_on_c, 0, 59, 0
3, 44640, Note_on_c, 0, 64, 29
3, 44640, Control_c, 0, 64, 0
3, 44640, Note_on_c, 0, 62, 24
3, 44700, Note_on_c, 0, 62, 0
3, 44700, Note_on_c, 0, 64, 0
3, 44880, Note_on_c, 0, 59, 24
3, 44940, Note_on_c, 0, 59, 0
3, 45120, Note_on_c, 0, 59, 24
3, 45180, Note_on_c, 0, 59, 0
3, 45360, Control_c, 0, 64, 0
3, 45360, Note_on_c, 0, 62, 25
3, 45360, Note_on_c, 0, 65, 30
3, 45406, Control_c, 0, 64, 127
3, 45420, Note_on_c, 0, 65, 0
3, 45420, Note_on_c, 0, 62, 0
3, 45600, Note_on_c, 0, 59, 24
3, 45624, Control_c, 0, 64, 0
3, 45651, Control_c, 0, 64, 127
3, 45660, Note_on_c, 0, 59, 0
3, 45840, Note_on_c, 0, 59, 24
3, 45900, Note_on_c, 0, 59, 0
3, 46080, Control_c, 0, 64, 0
3, 46080, Note_on_c, 0, 62, 24
3, 46080, Note_on_c, 0, 65, 29
3, 46140, Note_on_c, 0, 65, 0
3, 46140, Note_on_c, 0, 62, 0
3, 46320, Note_on_c, 0, 59, 24
3, 46380, Note_on_c, 0, 59, 0
3, 46560, Note_on_c, 0, 59, 24
3, 46620, Note_on_c, 0, 59, 0
3, 46800, Note_on_c, 0, 65, 29
3, 46800, Note_on_c, 0, 62, 24
3, 46860, Note_on_c, 0, 62, 0
3, 46860, Note_on_c, 0, 65, 0
3, 47040, Note_on_c, 0, 59, 24
3, 47100, Note_on_c, 0, 59, 0
3, 47280, Note_on_c, 0, 59, 24
3, 47340, Note_on_c, 0, 59, 0
3, 47520, Note_on_c, 0, 59, 26
3, 47520, Note_on_c, 0, 62, 32
3, 47600, Control_c, 0, 64, 127
3, 47640, Note_on_c, 0, 62, 0
3, 47640, Note_on_c, 0, 59, 0
3, 47640, Note_on_c, 0, 65, 26
3, 47760, Note_on_c, 0, 65, 0
3, 47760, Note_on_c, 0, 62, 28
3, 47760, Note_on_c, 0, 59, 22
3, 47771, Control_c, 0, 64, 0
3, 47800, Control_c, 0, 64, 127
3, 47880, Note_on_c, 0, 59, 0
3, 47880, Note_on_c, 0, 62, 0
3, 47880, Note_on_c, 0, 65, 26
3, 48000, Note_on_c, 0, 65, 0
3, 48000, Note_on_c, 0, 62, 28
3, 48000, Note_on_c, 0, 59, 22
3, 48007, Control_c, 0, 64, 0
3, 48046, Control_c, 0, 64, 127
3, 48120, Note_on_c, 0, 59, 0
3, 48120, Note_on_c, 0, 62, 0
3, 48120, Note_on_c, 0, 65, 26
3, 48240, Note_on_c, 0, 65, 0
3, 48240, Control_c, 0, 64, 0
3, 48240, Note_on_c, 0, 58, 26
3, 48240, Note_on_c, 0, 62, 32
3, 48280, Control_c, 0, 64, 127
3, 48360, Note_on_c, 0, 62, 0
3, 48360, Note_on_c, 0, 58, 0
3, 48360, Note_on_c, 0, 65, 26
3, 48480, Note_on_c, 0, 65, 0
3, 48480, Note_on_c, 0, 62, 28
3, 48480, Note_on_c, 0, 58, 22
3, 48497, Control_c, 0, 64, 0
3, 48551, Control_c, 0, 64, 127
3, 48600, Note_on_c, 0, 58, 0
3, 48600, Note_on_c, 0, 62, 0
3, 48600, Note_on_c, 0, 65, 26
3, 48720, Note_on_c, 0, 65, 0
3, 48720, Note_on_c, 0, 62, 28
3, 48720, Note_on_c, 0, 58, 22
3, 48726, Control_c, 0, 64, 0
3, 48755, Control_c, 0, 64, 127
3, 48840, Note_on_c, 0, 58, 0
3, 48840, Note_on_c, 0, 62, 0
3, 48840, Note_on_c, 0, 65, 26
3, 48960, Note_on_c, 0, 65, 0
3, 48960, Control_c, 0, 64, 0
3, 48960, Note_on_c, 0, 58, 31
3, 48960, Note_on_c, 0, 62, 38
3, 49031, Control_c, 0, 64, 127
3, 49080, Note_on_c, 0, 62, 0
3, 49080, Note_on_c, 0, 58, 0
3, 49080, Note_on_c, 0, 65, 25
3, 49200, Note_on_c, 0, 65, 0
3, 49200, Note_on_c, 0, 58, 24
3, 49200, Note_on_c, 0, 62, 29
3, 49214, Control_c, 0, 64, 0
3, 49285, Control_c, 0, 64, 127
3, 49320, Note_on_c, 0, 62, 0
3, 49320, Note_on_c, 0, 58, 0
3, 49320, Note_on_c, 0, 65, 24
3, 49440, Note_on_c, 0, 65, 0
3, 49440, Note_on_c, 0, 58, 24
3, 49440, Note_on_c, 0, 62, 29
3, 49457, Control_c, 0, 64, 0
3, 49497, Control_c, 0, 64, 127
3, 49560, Note_on_c, 0, 62, 0
3, 49560, Note_on_c, 0, 58, 0
3, 49560, Note_on_c, 0, 65, 25
3, 49680, Note_on_c, 0, 65, 0
3, 49680, Control_c, 0, 64, 0
3, 49680, Note_on_c, 0, 58, 29
3, 49680, Note_on_c, 0, 63, 34
3, 49729, Control_c, 0, 64, 127
3, 49800, Note_on_c, 0, 63, 0
3, 49800, Note_on_c, 0, 58, 0
3, 49800, Note_on_c, 0, 67, 26
3, 49920, Note_on_c, 0, 67, 0
3, 49920, Note_on_c, 0, 58, 25
3, 49920, Note_on_c, 0, 63, 30
3, 49943, Control_c, 0, 64, 0
3, 50040, Note_on_c, 0, 63, 0
3, 50040, Note_on_c, 0, 58, 0
3, 50040, Note_on_c, 0, 67, 25
3, 50054, Control_c, 0, 64, 127
3, 50160, Note_on_c, 0, 67, 0
3, 50160, Note_on_c, 0, 58, 25
3, 50160, Note_on_c, 0, 63, 30
3, 50280, Note_on_c, 0, 63, 0
3, 50280, Note_on_c, 0, 58, 0
3, 50280, Note_on_c, 0, 67, 25
3, 50400, Note_on_c, 0, 67, 0
3, 50400, Control_c, 0, 64, 0
3, 50400, Note_on_c, 0, 58, 35
3, 50400, Note_on_c, 0, 62, 43
3, 50449, Control_c, 0, 64, 127
3, 50520, Note_on_c, 0, 62, 0
3, 50520, Note_on_c, 0, 58, 0
3, 50520, Note_on_c, 0, 65, 28
3, 50640, Note_on_c, 0, 65, 0
3, 50640, Note_on_c, 0, 62, 31
3, 50640, Note_on_c, 0, 58, 25
3, 50656, Control_c, 0, 64, 0
3, 50725, Control_c, 0, 64, 127
3, 50760, Note_on_c, 0, 58, 0
3, 50760, Note_on_c, 0, 62, 0
3, 50760, Note_on_c, 0, 65, 26
3, 50880, Note_on_c, 0, 65, 0
3, 50880, Note_on_c, 0, 58, 26
3, 50880, Note_on_c, 0, 62, 32
3, 51000, Note_on_c, 0, 62, 0
3, 51000, Note_on_c, 0, 58, 0
3, 51000, Note_on_c, 0, 65, 26
3, 51120, Note_on_c, 0, 65, 0
3, 51120, Note_on_c, 0, 57, 32
3, 51120, Note_on_c, 0, 63, 39
3, 51148, Control_c, 0, 64, 0
3, 51240, Note_on_c, 0, 63, 0
3, 51240, Note_on_c, 0, 57, 0
3, 51240, Note_on_c, 0, 65, 28
3, 51360, Note_on_c, 0, 65, 0
3, 51360, Note_on_c, 0, 57, 26
3, 51360, Note_on_c, 0, 63, 32
3, 51480, Note_on_c, 0, 63, 0
3, 51480, Note_on_c, 0, 57, 0
3, 51480, Note_on_c, 0, 65, 29
3, 51600, Note_on_c, 0, 65, 0
3, 51600, Note_on_c, 0, 57, 28
3, 51600, Note_on_c, 0, 63, 33
3, 51720, Note_on_c, 0, 63, 0
3, 51720, Note_on_c, 0, 57, 0
3, 51720, Note_on_c, 0, 65, 28
3, 51840, Note_on_c, 0, 65, 0
3, 51840, Note_on_c, 0, 57, 35
3, 51840, Note_on_c, 0, 63, 42
3, 51872, Control_c, 0, 64, 127
3, 51960, Note_on_c, 0, 63, 0
3, 51960, Note_on_c, 0, 57, 0
3, 51960, Note_on_c, 0, 66, 29
3, 52080, Note_on_c, 0, 66, 0
3, 52080, Note_on_c, 0, 57, 28
3, 52080, Note_on_c, 0, 63, 34
3, 52200, Note_on_c, 0, 63, 0
3, 52200, Note_on_c, 0, 57, 0
3, 52200, Note_on_c, 0, 66, 29
3, 52313, Control_c, 0, 64, 0
3, 52320, Note_on_c, 0, 66, 0
3, 52320, Note_on_c, 0, 57, 28
3, 52320, Note_on_c, 0, 63, 34
3, 52440, Note_on_c, 0, 63, 0
3, 52440, Note_on_c, 0, 57, 0
3, 52440, Note_on_c, 0, 66, 30
3, 52560, Note_on_c, 0, 66, 0
3, 52560, Control_c, 0, 64, 127
3, 52560, Note_on_c, 0, 58, 34
3, 52560, Note_on_c, 0, 63, 40
3, 52680, Note_on_c, 0, 63, 0
3, 52680, Note_on_c, 0, 58, 0
3, 52680, Note_on_c, 0, 67, 30
3, 52800, Note_on_c, 0, 67, 0
3, 52800, Note_on_c, 0, 58, 29
3, 52800, Note_on_c, 0, 63, 34
3, 52920, Note_on_c, 0, 63, 0
3, 52920, Note_on_c, 0, 58, 0
3, 52920, Note_on_c, 0, 67, 30
3, 53036, Control_c, 0, 64, 0
3, 53040, Note_on_c, 0, 67, 0
3, 53040, Note_on_c, 0, 58, 29
3, 53040, Note_on_c, 0, 63, 34
3, 53160, Note_on_c, 0, 63, 0
3, 53160, Note_on_c, 0, 58, 0
3, 53160, Note_on_c, 0, 67, 30
3, 53280, Note_on_c, 0, 67, 0
3, 53280, Note_on_c, 0, 60, 35
3, 53280, Note_on_c, 0, 63, 42
3, 53400, Note_on_c, 0, 63, 0
3, 53400, Note_on_c, 0, 60, 0
3, 53400, Note_on_c, 0, 67, 31
3, 53492, Control_c, 0, 64, 127
3, 53520, Note_on_c, 0, 67, 0
3, 53520, Note_on_c, 0, 60, 30
3, 53520, Note_on_c, 0, 63, 35
3, 53640, Note_on_c, 0, 63, 0
3, 53640, Note_on_c, 0, 60, 0
3, 53640, Note_on_c, 0, 67, 31
3, 53760, Note_on_c, 0, 67, 0
3, 53760, Note_on_c, 0, 60, 31
3, 53760, Note_on_c, 0, 63, 37
3, 53880, Note_on_c, 0, 63, 0
3, 53880, Note_on_c, 0, 60, 0
3, 53880, Note_on_c, 0, 67, 32
3, 54000, Note_on_c, 0, 67, 0
3, 54000, Control_c, 0, 64, 0
3, 54000, Note_on_c, 0, 55, 35
3, 54000, Note_on_c, 0, 62, 43
3, 54120, Note_on_c, 0, 62, 0
3, 54120, Note_on_c, 0, 55, 0
3, 54120, Note_on_c, 0, 67, 32
3, 54201, Control_c, 0, 64, 127
3, 54240, Note_on_c, 0, 67, 0
3, 54240, Note_on_c, 0, 55, 31
3, 54240, Note_on_c, 0, 62, 37
3, 54360, Note_on_c, 0, 62, 0
3, 54360, Note_on_c, 0, 55, 0
3, 54360, Note_on_c, 0, 67, 32
3, 54480, Note_on_c, 0, 67, 0
3, 54480, Note_on_c, 0, 55, 31
3, 54480, Note_on_c, 0, 62, 37
3, 54600, Note_on_c, 0, 62, 0
3, 54600, Note_on_c, 0, 55, 0
3, 54600, Note_on_c, 0, 67, 33
3, 54720, Note_on_c, 0, 67, 0
3, 54720, Control_c, 0, 64, 0
3, 54720, Note_on_c, 0, 63, 62
3, 54960, Note_on_c, 0, 63, 0
3, 54960, Note_on_c, 0, 62, 52
3, 55200, Note_on_c, 0, 62, 0
3, 55200, Note_on_c, 0, 63, 52
3, 55440, Note_on_c, 0, 63, 0
3, 55440, Note_on_c, 0, 60, 62
3, 55680, Note_on_c, 0, 60, 0
3, 55680, Note_on_c, 0, 62, 50
3, 55800, Note_on_c, 0, 62, 0
3, 55800, Note_on_c, 0, 63, 50
3, 55920, Note_on_c, 0, 63, 0
3, 55920, Note_on_c, 0, 65, 52
3, 56040, Note_on_c, 0, 65, 0
3, 56040, Note_on_c, 0, 67, 52
3, 56160, Note_on_c, 0, 67, 0
3, 56160, Note_on_c, 0, 63, 60
3, 56400, Note_on_c, 0, 63, 0
3, 56400, Note_on_c, 0, 65, 57
3, 56520, Note_on_c, 0, 65, 0
3, 56520, Note_on_c, 0, 63, 52
3, 56640, Note_on_c, 0, 63, 0
3, 56640, Note_on_c, 0, 62, 57
3, 56760, Note_on_c, 0, 62, 0
3, 56760, Note_on_c, 0, 60, 52
3, 56880, Note_on_c, 0, 60, 0
3, 56880, Note_on_c, 0, 58, 61
3, 56940, Note_on_c, 0, 58, 0
3, 57120, Note_on_c, 0, 58, 52
3, 57180, Note_on_c, 0, 58, 0
3, 57360, Note_on_c, 0, 58, 52
3, 57420, Note_on_c, 0, 58, 0
3, 57600, Note_on_c, 0, 59, 60
3, 57840, Note_on_c, 0, 59, 0
3, 57840, Note_on_c, 0, 71, 50
3, 58080, Note_on_c, 0, 71, 0
3, 58080, Note_on_c, 0, 71, 53
3, 58140, Note_on_c, 0, 71, 0
3, 58320, Note_on_c, 0, 72, 62
3, 58560, Note_on_c, 0, 72, 0
3, 58560, Note_on_c, 0, 60, 58
3, 58800, Note_on_c, 0, 60, 0
3, 58800, Note_on_c, 0, 60, 60
3, 58860, Note_on_c, 0, 60, 0
3, 59040, Note_on_c, 0, 65, 66
3, 59100, Note_on_c, 0, 65, 0
3, 59220, Note_on_c, 0, 55, 58
3, 59280, Note_on_c, 0, 53, 67
3, 59300, Note_on_c, 0, 55, 0
3, 59400, Note_on_c, 0, 52, 62
3, 59420, Note_on_c, 0, 53, 0
3, 59520, Note_on_c, 0, 53, 66
3, 59540, Note_on_c, 0, 52, 0
3, 59760, Note_on_c, 0, 53, 0
3, 59760, Note_on_c, 0, 58, 62
3, 59820, Note_on_c, 0, 58, 0
3, 59940, Note_on_c, 0, 48, 54
3, 60000, Note_on_c, 0, 46, 62
3, 60020, Note_on_c, 0, 48, 0
3, 60120, Note_on_c, 0, 45, 57
3, 60140, Note_on_c, 0, 46, 0
3, 60240, Note_on_c, 0, 46, 62
3, 60260, Note_on_c, 0, 45, 0
3, 60480, Note_on_c, 0, 46, 0
3, 60480, Note_on_c, 0, 41, 56
3, 60487, Control_c, 0, 64, 0
3, 60572, Control_c, 0, 64, 127
3, 60720, Note_on_c, 0, 41, 0
3, 60720, Note_on_c, 0, 43, 44
3, 60739, Control_c, 0, 64, 0
3, 60826, Control_c, 0, 64, 127
3, 60840, Note_on_c, 0, 43, 0
3, 60840, Note_on_c, 0, 45, 44
3, 60960, Note_on_c, 0, 45, 0
3, 60960, Note_on_c, 0, 46, 47
3, 61080, Note_on_c, 0, 46, 0
3, 61080, Note_on_c, 0, 48, 47
3, 61200, Note_on_c, 0, 48, 0
3, 61200, Control_c, 0, 64, 0
3, 61200, Note_on_c, 0, 46, 53
3, 61260, Note_on_c, 0, 46, 0
3, 61440, Note_on_c, 0, 46, 53
3, 61500, Note_on_c, 0, 46, 0
3, 61680, Note_on_c, 0, 46, 53
3, 61740, Note_on_c, 0, 46, 0
3, 61920, Note_on_c, 0, 53, 50
3, 62012, Control_c, 0, 64, 127
3, 62160, Note_on_c, 0, 53, 0
3, 62160, Note_on_c, 0, 55, 39
3, 62179, Control_c, 0, 64, 0
3, 62266, Control_c, 0, 64, 127
3, 62280, Note_on_c, 0, 55, 0
3, 62280, Note_on_c, 0, 57, 39
3, 62400, Note_on_c, 0, 57, 0
3, 62400, Note_on_c, 0, 58, 41
3, 62520, Note_on_c, 0, 58, 0
3, 62520, Note_on_c, 0, 60, 41
3, 62640, Note_on_c, 0, 60, 0
3, 62640, Control_c, 0, 64, 0
3, 62640, Note_on_c, 0, 58, 48
3, 62700, Note_on_c, 0, 58, 0
3, 62880, Note_on_c, 0, 58, 48
3, 62940, Note_on_c, 0, 58, 0
3, 63120, Note_on_c, 0, 58, 48
3, 63180, Note_on_c, 0, 58, 0
3, 63360, Note_on_c, 0, 65, 44
3, 63452, Control_c, 0, 64, 127
3, 63600, Note_on_c, 0, 65, 0
3, 63600, Note_on_c, 0, 67, 34
3, 63649, Control_c, 0, 64, 0
3, 63706, Control_c, 0, 64, 127
3, 63720, Note_on_c, 0, 67, 0
3, 63720, Note_on_c, 0, 69, 34
3, 63840, Note_on_c, 0, 69, 0
3, 63840, Note_on_c, 0, 70, 37
3, 63960, Note_on_c, 0, 70, 0
3, 63960, Note_on_c, 0, 72, 37
3, 64080, Note_on_c, 0, 72, 0
3, 64080, Control_c, 0, 64, 0
3, 64080, Note_on_c, 0, 70, 42
3, 64140, Note_on_c, 0, 70, 0
3, 64320, Note_on_c, 0, 70, 42
3, 64380, Note_on_c, 0, 70, 0
3, 64560, Note_on_c, 0, 70, 42
3, 64620, Note_on_c, 0, 70, 0
3, 64800, Note_on_c, 0, 63, 29
3, 64800, Note_on_c, 0, 67, 34
3, 64850, Control_c, 0, 64, 127
3, 64920, Note_on_c, 0, 67, 0
3, 64920, Note_on_c, 0, 63, 0
3, 64920, Note_on_c, 0, 70, 28
3, 65040, Note_on_c, 0, 70, 0
3, 65040, Note_on_c, 0, 63, 26
3, 65040, Note_on_c, 0, 67, 32
3, 65045, Control_c, 0, 64, 0
3, 65080, Control_c, 0, 64, 127
3, 65160, Note_on_c, 0, 67, 0
3, 65160, Note_on_c, 0, 63, 0
3, 65160, Note_on_c, 0, 70, 28
3, 65280, Note_on_c, 0, 70, 0
3, 65280, Note_on_c, 0, 63, 26
3, 65280, Note_on_c, 0, 67, 32
3, 65294, Control_c, 0, 64, 0
3, 65314, Control_c, 0, 64, 127
3, 65400, Note_on_c, 0, 67, 0
3, 65400, Note_on_c, 0, 63, 0
3, 65400, Note_on_c, 0, 70, 28
3, 65520, Note_on_c, 0, 70, 0
3, 65520, Note_on_c, 0, 62, 26
3, 65520, Note_on_c, 0, 65, 32
3, 65520, Control_c, 0, 64, 0
3, 65535, Control_c, 0, 64, 0
3, 65570, Control_c, 0, 64, 127
3, 65640, Note_on_c, 0, 65, 0
3, 65640, Note_on_c, 0, 62, 0
3, 65640, Note_on_c, 0, 70, 28
3, 65760, Note_on_c, 0, 70, 0
3, 65760, Note_on_c, 0, 62, 26
3, 65760, Note_on_c, 0, 65, 32
3, 65764, Control_c, 0, 64, 0
3, 65803, Control_c, 0, 64, 127
3, 65880, Note_on_c, 0, 65, 0
3, 65880, Note_on_c, 0, 62, 0
3, 65880, Note_on_c, 0, 70, 28
3, 66000, Note_on_c, 0, 70, 0
3, 66000, Note_on_c, 0, 61, 26
3, 66000, Note_on_c, 0, 65, 32
3, 66020, Control_c, 0, 64, 0
3, 66049, Control_c, 0, 64, 127
3, 66120, Note_on_c, 0, 65, 0
3, 66120, Note_on_c, 0, 61, 0
3, 66120, Note_on_c, 0, 70, 28
3, 66240, Note_on_c, 0, 70, 0
3, 66240, Note_on_c, 0, 60, 26
3, 66240, Note_on_c, 0, 65, 32
3, 66255, Control_c, 0, 64, 0
3, 66274, Control_c, 0, 64, 0
3, 66290, Control_c, 0, 64, 127
3, 66360, Note_on_c, 0, 65, 0
3, 66360, Note_on_c, 0, 60, 0
3, 66360, Note_on_c, 0, 68, 28
3, 66480, Note_on_c, 0, 68, 0
3, 66480, Note_on_c, 0, 60, 26
3, 66480, Note_on_c, 0, 65, 32
3, 66491, Control_c, 0, 64, 0
3, 66531, Control_c, 0, 64, 127
3, 66600, Note_on_c, 0, 65, 0
3, 66600, Note_on_c, 0, 60, 0
3, 66600, Note_on_c, 0, 68, 28
3, 66720, Note_on_c, 0, 68, 0
3, 66720, Note_on_c, 0, 60, 26
3, 66720, Note_on_c, 0, 65, 32
3, 66840, Note_on_c, 0, 65, 0
3, 66840, Note_on_c, 0, 60, 0
3, 66840, Note_on_c, 0, 68, 28
3, 66960, Note_on_c, 0, 68, 0
3, 66960, Note_on_c, 0, 60, 26
3, 66960, Note_on_c, 0, 65, 32
3, 66960, Control_c, 0, 64, 0
3, 66975, Control_c, 0, 64, 0
3, 67010, Control_c, 0, 64, 127
3, 67080, Note_on_c, 0, 65, 0
3, 67080, Note_on_c, 0, 60, 0
3, 67080, Note_on_c, 0, 67, 28
3, 67200, Note_on_c, 0, 67, 0
3, 67200, Note_on_c, 0, 60, 26
3, 67200, Note_on_c, 0, 64, 32
3, 67206, Control_c, 0, 64, 0
3, 67234, Control_c, 0, 64, 127
3, 67320, Note_on_c, 0, 64, 0
3, 67320, Note_on_c, 0, 60, 0
3, 67320, Note_on_c, 0, 67, 28
3, 67440, Note_on_c, 0, 67, 0
3, 67440, Note_on_c, 0, 60, 26
3, 67440, Note_on_c, 0, 64, 32
3, 67560, Note_on_c, 0, 64, 0
3, 67560, Note_on_c, 0, 60, 0
3, 67560, Note_on_c, 0, 67, 30
3, 67680, Note_on_c, 0, 67, 0
3, 67680, Note_on_c, 0, 56, 37
3, 67680, Control_c, 0, 64, 0
3, 67680, Note_on_c, 0, 60, 44
3, 67920, Note_on_c, 0, 60, 0
3, 67920, Note_on_c, 0, 61, 40
3, 68160, Note_on_c, 0, 61, 0
3, 68160, Note_on_c, 0, 60, 40
3, 68400, Note_on_c, 0, 60, 0
3, 68400, Note_on_c, 0, 56, 0
3, 68400, Note_on_c, 0, 49, 37
3, 68400, Note_on_c, 0, 58, 44
3, 68640, Note_on_c, 0, 58, 0
3, 68640, Note_on_c, 0, 53, 42
3, 68880, Note_on_c, 0, 53, 0
3, 68880, Note_on_c, 0, 55, 44
3, 69060, Note_on_c, 0, 58, 39
3, 69120, Note_on_c, 0, 58, 0
3, 69120, Note_on_c, 0, 55, 0
3, 69120, Note_on_c, 0, 49, 0
3, 69120, Note_on_c, 0, 51, 37
3, 69120, Note_on_c, 0, 56, 44
3, 69360, Note_on_c, 0, 56, 0
3, 69360, Note_on_c, 0, 55, 38
3, 69600, Note_on_c, 0, 55, 0
3, 69600, Note_on_c, 0, 56, 35
3, 69840, Note_on_c, 0, 56, 0
3, 69840, Note_on_c, 0, 58, 37
3, 70320, Note_on_c, 0, 58, 0
3, 70320, Note_on_c, 0, 59, 34
3, 70560, Note_on_c, 0, 59, 0
3, 70560, Note_on_c, 0, 51, 0
3, 70560, Control_c, 0, 64, 0
3, 70560, Note_on_c, 0, 56, 29
3, 70560, Note_on_c, 0, 60, 34
3, 70610, Control_c, 0, 64, 127
3, 70680, Note_on_c, 0, 60, 0
3, 70680, Note_on_c, 0, 56, 0
3, 70680, Note_on_c, 0, 63, 28
3, 70800, Note_on_c, 0, 63, 0
3, 70800, Note_on_c, 0, 56, 26
3, 70800, Note_on_c, 0, 60, 32
3, 70803, Control_c, 0, 64, 0
3, 70852, Control_c, 0, 64, 127
3, 70920, Note_on_c, 0, 60, 0
3, 70920, Note_on_c, 0, 56, 0
3, 70920, Note_on_c, 0, 63, 28
3, 71040, Note_on_c, 0, 63, 0
3, 71040, Note_on_c, 0, 56, 26
3, 71040, Note_on_c, 0, 60, 32
3, 71046, Control_c, 0, 64, 0
3, 71069, Control_c, 0, 64, 127
3, 71160, Note_on_c, 0, 60, 0
3, 71160, Note_on_c, 0, 56, 0
3, 71160, Note_on_c, 0, 63, 28
3, 71280, Note_on_c, 0, 63, 0
3, 71280, Note_on_c, 0, 55, 26
3, 71280, Note_on_c, 0, 58, 32
3, 71280, Control_c, 0, 64, 0
3, 71295, Control_c, 0, 64, 0
3, 71330, Control_c, 0, 64, 127
3, 71400, Note_on_c, 0, 58, 0
3, 71400, Note_on_c, 0, 55, 0
3, 71400, Note_on_c, 0, 63, 28
3, 71520, Note_on_c, 0, 63, 0
3, 71520, Note_on_c, 0, 55, 26
3, 71520, Note_on_c, 0, 58, 32
3, 71527, Control_c, 0, 64, 0
3, 71573, Control_c, 0, 64, 127
3, 71640, Note_on_c, 0, 58, 0
3, 71640, Note_on_c, 0, 55, 0
3, 71640, Note_on_c, 0, 63, 28
3, 71760, Note_on_c, 0, 63, 0
3, 71760, Note_on_c, 0, 54, 26
3, 71760, Note_on_c, 0, 58, 32
3, 71764, Control_c, 0, 64, 0
3, 71820, Control_c, 0, 64, 127
3, 71880, Note_on_c, 0, 58, 0
3, 71880, Note_on_c, 0, 54, 0
3, 71880, Note_on_c, 0, 63, 28
3, 72000, Note_on_c, 0, 63, 0
3, 72000, Note_on_c, 0, 53, 26
3, 72000, Note_on_c, 0, 58, 32
3, 72000, Control_c, 0, 64, 0
3, 72015, Control_c, 0, 64, 0
3, 72050, Control_c, 0, 64, 127
3, 72120, Note_on_c, 0, 58, 0
3, 72120, Note_on_c, 0, 53, 0
3, 72120, Note_on_c, 0, 61, 28
3, 72240, Note_on_c, 0, 61, 0
3, 72240, Note_on_c, 0, 53, 26
3, 72240, Note_on_c, 0, 58, 32
3, 72246, Control_c, 0, 64, 0
3, 72303, Control_c, 0, 64, 127
3, 72360, Note_on_c, 0, 58, 0
3, 72360, Note_on_c, 0, 53, 0
3, 72360, Note_on_c, 0, 61, 28
3, 72480, Note_on_c, 0, 61, 0
3, 72480, Note_on_c, 0, 53, 26
3, 72480, Note_on_c, 0, 58, 32
3, 72600, Note_on_c, 0, 58, 0
3, 72600, Note_on_c, 0, 53, 0
3, 72600, Note_on_c, 0, 61, 28
3, 72720, Note_on_c, 0, 61, 0
3, 72720, Note_on_c, 0, 53, 26
3, 72720, Note_on_c, 0, 58, 32
3, 72720, Control_c, 0, 64, 0
3, 72735, Control_c, 0, 64, 0
3, 72770, Control_c, 0, 64, 127
3, 72840, Note_on_c, 0, 58, 0
3, 72840, Note_on_c, 0, 53, 0
3, 72840, Note_on_c, 0, 60, 28
3, 72960, Note_on_c, 0, 60, 0
3, 72960, Note_on_c, 0, 53, 26
3, 72960, Note_on_c, 0, 57, 32
3, 72966, Control_c, 0, 64, 0
3, 73008, Control_c, 0, 64, 127
3, 73080, Note_on_c, 0, 57, 0
3, 73080, Note_on_c, 0, 53, 0
3, 73080, Note_on_c, 0, 60, 28
3, 73200, Note_on_c, 0, 60, 0
3, 73200, Note_on_c, 0, 53, 26
3, 73200, Note_on_c, 0, 57, 32
3, 73320, Note_on_c, 0, 57, 0
3, 73320, Note_on_c, 0, 53, 0
3, 73320, Note_on_c, 0, 60, 30
3, 73440, Note_on_c, 0, 60, 0
3, 73440, Note_on_c, 0, 61, 37
3, 73440, Control_c, 0, 64, 0
3, 73440, Note_on_c, 0, 65, 44
3, 73680, Note_on_c, 0, 65, 0
3, 73680, Note_on_c, 0, 66, 40
3, 73920, Note_on_c, 0, 66, 0
3, 73920, Note_on_c, 0, 65, 40
3, 74160, Note_on_c, 0, 65, 0
3, 74160, Note_on_c, 0, 61, 0
3, 74160, Note_on_c, 0, 54, 37
3, 74160, Note_on_c, 0, 63, 44
3, 74400, Note_on_c, 0, 63, 0
3, 74400, Note_on_c, 0, 58, 42
3, 74640, Note_on_c, 0, 58, 0
3, 74640, Note_on_c, 0, 60, 44
3, 74820, Note_on_c, 0, 63, 40
3, 74880, Note_on_c, 0, 63, 0
3, 74880, Note_on_c, 0, 60, 0
3, 74880, Note_on_c, 0, 54, 0
3, 74880, Note_on_c, 0, 56, 37
3, 74880, Note_on_c, 0, 61, 44
3, 75120, Note_on_c, 0, 61, 0
3, 75120, Note_on_c, 0, 60, 38
3, 75360, Note_on_c, 0, 60, 0
3, 75360, Note_on_c, 0, 61, 35
3, 75600, Note_on_c, 0, 61, 0
3, 75600, Note_on_c, 0, 63, 37
3, 76080, Note_on_c, 0, 63, 0
3, 76080, Note_on_c, 0, 64, 34
3, 76320, Note_on_c, 0, 64, 0
3, 76320, Note_on_c, 0, 56, 0
3, 76320, Note_on_c, 0, 61, 29
3, 76320, Note_on_c, 0, 65, 34
3, 76380, Note_on_c, 0, 65, 0
3, 76380, Note_on_c, 0, 61, 0
3, 76560, Note_on_c, 0, 49, 28
3, 76620, Note_on_c, 0, 49, 0
3, 76800, Note_on_c, 0, 49, 28
3, 76860, Note_on_c, 0, 49, 0
3, 77040, Note_on_c, 0, 61, 26
3, 77043, Note_on_c, 0, 65, 32
3, 77100, Note_on_c, 0, 61, 0
3, 77103, Note_on_c, 0, 65, 0
3, 77280, Note_on_c, 0, 49, 28
3, 77340, Note_on_c, 0, 49, 0
3, 77520, Note_on_c, 0, 49, 28
3, 77580, Note_on_c, 0, 49, 0
3, 77760, Note_on_c, 0, 61, 28
3, 77760, Note_on_c, 0, 65, 33
3, 77820, Note_on_c, 0, 65, 0
3, 77820, Note_on_c, 0, 61, 0
3, 78000, Note_on_c, 0, 49, 28
3, 78060, Note_on_c, 0, 49, 0
3, 78240, Note_on_c, 0, 49, 28
3, 78300, Note_on_c, 0, 49, 0
3, 78480, Note_on_c, 0, 61, 28
3, 78480, Note_on_c, 0, 66, 34
3, 78540, Note_on_c, 0, 66, 0
3, 78540, Note_on_c, 0, 61, 0
3, 78720, Note_on_c, 0, 49, 28
3, 78780, Note_on_c, 0, 49, 0
3, 78960, Note_on_c, 0, 49, 28
3, 79020, Note_on_c, 0, 49, 0
3, 79200, Note_on_c, 0, 61, 28
3, 79200, Note_on_c, 0, 65, 33
3, 79260, Note_on_c, 0, 65, 0
3, 79260, Note_on_c, 0, 61, 0
3, 79440, Note_on_c, 0, 49, 28
3, 79500, Note_on_c, 0, 49, 0
3, 79680, Note_on_c, 0, 49, 33
3, 79740, Note_on_c, 0, 49, 0
3, 79920, Note_on_c, 0, 61, 31
3, 79920, Note_on_c, 0, 66, 38
3, 79980, Note_on_c, 0, 66, 0
3, 79980, Note_on_c, 0, 61, 0
3, 80160, Note_on_c, 0, 49, 28
3, 80220, Note_on_c, 0, 49, 0
3, 80400, Note_on_c, 0, 49, 28
3, 80460, Note_on_c, 0, 49, 0
3, 80640, Note_on_c, 0, 58, 28
3, 80640, Note_on_c, 0, 61, 28
3, 80640, Note_on_c, 0, 66, 33
3, 80700, Note_on_c, 0, 66, 0
3, 80700, Note_on_c, 0, 61, 0
3, 80700, Note_on_c, 0, 58, 0
3, 80880, Note_on_c, 0, 49, 25
3, 80940, Note_on_c, 0, 49, 0
3, 81120, Note_on_c, 0, 49, 25
3, 81180, Note_on_c, 0, 49, 0
3, 81360, Note_on_c, 0, 58, 25
3, 81360, Note_on_c, 0, 61, 25
3, 81360, Note_on_c, 0, 66, 30
3, 81420, Note_on_c, 0, 66, 0
3, 81420, Note_on_c, 0, 61, 0
3, 81420, Note_on_c, 0, 58, 0
3, 81600, Note_on_c, 0, 49, 25
3, 81660, Note_on_c, 0, 49, 0
3, 81840, Note_on_c, 0, 49, 25
3, 81900, Note_on_c, 0, 49, 0
3, 82080, Control_c, 0, 64, 0
3, 82080, Note_on_c, 0, 56, 24
3, 82080, Note_on_c, 0, 61, 29
3, 82140, Note_on_c, 0, 61, 0
3, 82140, Note_on_c, 0, 56, 0
3, 82320, Note_on_c, 0, 49, 24
3, 82337, Control_c, 0, 64, 127
3, 82380, Note_on_c, 0, 49, 0
3, 82560, Note_on_c, 0, 49, 24
3, 82620, Note_on_c, 0, 49, 0
3, 82800, Control_c, 0, 64, 0
3, 82800, Note_on_c, 0, 54, 25
3, 82800, Note_on_c, 0, 58, 30
3, 82846, Control_c, 0, 64, 127
3, 82860, Note_on_c, 0, 58, 0
3, 82860, Note_on_c, 0, 54, 0
3, 83040, Note_on_c, 0, 42, 24
3, 83051, Control_c, 0, 64, 0
3, 83100, Note_on_c, 0, 42, 0
3, 83160, Control_c, 0, 64, 127
3, 83280, Note_on_c, 0, 42, 24
3, 83340, Note_on_c, 0, 42, 0
3, 83520, Control_c, 0, 64, 0
3, 83520, Note_on_c, 0, 63, 24
3, 83520, Note_on_c, 0, 66, 29
3, 83560, Control_c, 0, 64, 127
3, 83580, Note_on_c, 0, 66, 0
3, 83580, Note_on_c, 0, 63, 0
3, 83760, Note_on_c, 0, 56, 24
3, 83766, Control_c, 0, 64, 0
3, 83820, Note_on_c, 0, 56, 0
3, 83840, Control_c, 0, 64, 127
3, 84000, Note_on_c, 0, 56, 24
3, 84060, Note_on_c, 0, 56, 0
3, 84240, Control_c, 0, 64, 0
3, 84240, Note_on_c, 0, 65, 29
3, 84240, Note_on_c, 0, 61, 24
3, 84300, Note_on_c, 0, 61, 0
3, 84300, Note_on_c, 0, 65, 0
3, 84480, Note_on_c, 0, 49, 24
3, 84540, Note_on_c, 0, 49, 0
3, 84720, Note_on_c, 0, 49, 24
3, 84780, Note_on_c, 0, 49, 0
3, 84960, Note_on_c, 0, 61, 25
3, 84960, Note_on_c, 0, 65, 30
3, 85020, Note_on_c, 0, 65, 0
3, 85020, Note_on_c, 0, 61, 0
3, 85200, Note_on_c, 0, 49, 25
3, 85260, Note_on_c, 0, 49, 0
3, 85440, Note_on_c, 0, 49, 25
3, 85500, Note_on_c, 0, 49, 0
3, 85680, Note_on_c, 0, 61, 25
3, 85683, Note_on_c, 0, 65, 31
3, 85740, Note_on_c, 0, 61, 0
3, 85743, Note_on_c, 0, 65, 0
3, 85920, Note_on_c, 0, 49, 28
3, 85980, Note_on_c, 0, 49, 0
3, 86160, Note_on_c, 0, 49, 28
3, 86220, Note_on_c, 0, 49, 0
3, 86400, Note_on_c, 0, 61, 28
3, 86400, Note_on_c, 0, 65, 33
3, 86460, Note_on_c, 0, 65, 0
3, 86460, Note_on_c, 0, 61, 0
3, 86640, Note_on_c, 0, 49, 28
3, 86700, Note_on_c, 0, 49, 0
3, 86880, Note_on_c, 0, 49, 28
3, 86940, Note_on_c, 0, 49, 0
3, 87120, Note_on_c, 0, 61, 28
3, 87120, Note_on_c, 0, 66, 34
3, 87180, Note_on_c, 0, 66, 0
3, 87180, Note_on_c, 0, 61, 0
3, 87360, Note_on_c, 0, 49, 28
3, 87420, Note_on_c, 0, 49, 0
3, 87600, Note_on_c, 0, 49, 28
3, 87660, Note_on_c, 0, 49, 0
3, 87840, Note_on_c, 0, 61, 28
3, 87840, Note_on_c, 0, 65, 33
3, 87900, Note_on_c, 0, 65, 0
3, 87900, Note_on_c, 0, 61, 0
3, 88080, Note_on_c, 0, 49, 28
3, 88140, Note_on_c, 0, 49, 0
3, 88320, Note_on_c, 0, 49, 33
3, 88380, Note_on_c, 0, 49, 0
3, 88560, Note_on_c, 0, 61, 31
3, 88560, Note_on_c, 0, 66, 38
3, 88620, Note_on_c, 0, 66, 0
3, 88620, Note_on_c, 0, 61, 0
3, 88800, Note_on_c, 0, 49, 28
3, 88860, Note_on_c, 0, 49, 0
3, 89040, Note_on_c, 0, 49, 28
3, 89100, Note_on_c, 0, 49, 0
3, 89280, Note_on_c, 0, 57, 28
3, 89280, Note_on_c, 0, 61, 28
3, 89280, Note_on_c, 0, 66, 33
3, 89340, Note_on_c, 0, 66, 0
3, 89340, Note_on_c, 0, 61, 0
3, 89340, Note_on_c, 0, 57, 0
3, 89520, Note_on_c, 0, 54, 25
3, 89580, Note_on_c, 0, 54, 0
3, 89760, Note_on_c, 0, 54, 25
3, 89820, Note_on_c, 0, 54, 0
3, 90000, Note_on_c, 0, 57, 25
3, 90000, Note_on_c, 0, 61, 25
3, 90000, Note_on_c, 0, 66, 30
3, 90060, Note_on_c, 0, 66, 0
3, 90060, Note_on_c, 0, 61, 0
3, 90060, Note_on_c, 0, 57, 0
3, 90240, Note_on_c, 0, 54, 25
3, 90300, Note_on_c, 0, 54, 0
3, 90480, Note_on_c, 0, 54, 25
3, 90540, Note_on_c, 0, 54, 0
3, 90720, Note_on_c, 0, 66, 29
3, 90720, Control_c, 0, 64, 0
3, 90720, Note_on_c, 0, 57, 24
3, 90720, Note_on_c, 0, 61, 24
3, 90780, Note_on_c, 0, 61, 0
3, 90780, Note_on_c, 0, 57, 0
3, 90780, Note_on_c, 0, 66, 0
3, 90960, Note_on_c, 0, 54, 24
3, 91003, Control_c, 0, 64, 127
3, 91020, Note_on_c, 0, 54, 0
3, 91200, Note_on_c, 0, 54, 24
3, 91260, Note_on_c, 0, 54, 0
3, 91440, Control_c, 0, 64, 0
3, 91440, Note_on_c, 0, 62, 25
3, 91440, Note_on_c, 0, 66, 30
3, 91486, Control_c, 0, 64, 127
3, 91500, Note_on_c, 0, 66, 0
3, 91500, Note_on_c, 0, 62, 0
3, 91680, Note_on_c, 0, 50, 24
3, 91692, Control_c, 0, 64, 0
3, 91740, Note_on_c, 0, 50, 0
3, 91777, Control_c, 0, 64, 127
3, 91920, Note_on_c, 0, 50, 24
3, 91980, Note_on_c, 0, 50, 0
3, 92160, Control_c, 0, 64, 0
3, 92160, Note_on_c, 0, 62, 24
3, 92160, Note_on_c, 0, 64, 29
3, 92200, Control_c, 0, 64, 127
3, 92220, Note_on_c, 0, 64, 0
3, 92220, Note_on_c, 0, 62, 0
3, 92400, Note_on_c, 0, 52, 24
3, 92417, Control_c, 0, 64, 0
3, 92460, Note_on_c, 0, 52, 0
3, 92509, Control_c, 0, 64, 127
3, 92640, Note_on_c, 0, 52, 24
3, 92700, Note_on_c, 0, 52, 0
3, 92880, Control_c, 0, 64, 0
3, 92880, Note_on_c, 0, 64, 29
3, 92880, Note_on_c, 0, 61, 24
3, 92940, Note_on_c, 0, 61, 0
3, 92940, Note_on_c, 0, 64, 0
3, 93120, Note_on_c, 0, 57, 24
3, 93180, Note_on_c, 0, 57, 0
3, 93360, Note_on_c, 0, 57, 24
3, 93420, Note_on_c, 0, 57, 0
3, 93600, Note_on_c, 0, 61, 25
3, 93600, Note_on_c, 0, 64, 30
3, 93660, Note_on_c, 0, 64, 0
3, 93660, Note_on_c, 0, 61, 0
3, 93840, Note_on_c, 0, 57, 25
3, 93900, Note_on_c, 0, 57, 0
3, 94080, Note_on_c, 0, 57, 26
3, 94140, Note_on_c, 0, 57, 0
3, 94320, Note_on_c, 0, 64, 29
3, 94320, Note_on_c, 0, 61, 24
3, 94380, Note_on_c, 0, 61, 0
3, 94380, Note_on_c, 0, 64, 0
3, 94560, Note_on_c, 0, 57, 24
3, 94620, Note_on_c, 0, 57, 0
3, 94800, Note_on_c, 0, 57, 24
3, 94860, Note_on_c, 0, 57, 0
3, 95040, Control_c, 0, 64, 0
3, 95040, Note_on_c, 0, 61, 25
3, 95040, Note_on_c, 0, 64, 30
3, 95086, Control_c, 0, 64, 127
3, 95100, Note_on_c, 0, 64, 0
3, 95100, Note_on_c, 0, 61, 0
3, 95280, Note_on_c, 0, 58, 24
3, 95291, Control_c, 0, 64, 0
3, 95337, Control_c, 0, 64, 127
3, 95340, Note_on_c, 0, 58, 0
3, 95520, Note_on_c, 0, 58, 24
3, 95580, Note_on_c, 0, 58, 0
3, 95760, Control_c, 0, 64, 0
3, 95760, Note_on_c, 0, 62, 24
3, 95760, Note_on_c, 0, 64, 29
3, 95820, Note_on_c, 0, 64, 0
3, 95820, Note_on_c, 0, 62, 0
3, 96000, Note_on_c, 0, 59, 24
3, 96060, Note_on_c, 0, 59, 0
3, 96240, Note_on_c, 0, 59, 24
3, 96300, Note_on_c, 0, 59, 0
3, 96480, Note_on_c, 0, 64, 29
3, 96480, Note_on_c, 0, 62, 24
3, 96540, Note_on_c, 0, 62, 0
3, 96540, Note_on_c, 0, 64, 0
3, 96720, Note_on_c, 0, 59, 24
3, 96780, Note_on_c, 0, 59, 0
3, 96960, Note_on_c, 0, 59, 24
3, 97020, Note_on_c, 0, 59, 0
3, 97200, Note_on_c, 0, 62, 22
3, 97200, Note_on_c, 0, 64, 25
3, 97260, Note_on_c, 0, 64, 0
3, 97260, Note_on_c, 0, 62, 0
3, 97440, Note_on_c, 0, 59, 22
3, 97500, Note_on_c, 0, 59, 0
3, 97680, Note_on_c, 0, 59, 22
3, 97740, Note_on_c, 0, 59, 0
3, 97920, Note_on_c, 0, 64, 29
3, 97920, Control_c, 0, 64, 0
3, 97920, Note_on_c, 0, 62, 24
3, 97980, Note_on_c, 0, 62, 0
3, 97980, Note_on_c, 0, 64, 0
3, 98160, Note_on_c, 0, 59, 24
3, 98220, Note_on_c, 0, 59, 0
3, 98400, Note_on_c, 0, 59, 24
3, 98460, Note_on_c, 0, 59, 0
3, 98640, Control_c, 0, 64, 0
3, 98640, Note_on_c, 0, 62, 25
3, 98640, Note_on_c, 0, 65, 30
3, 98686, Control_c, 0, 64, 127
3, 98700, Note_on_c, 0, 65, 0
3, 98700, Note_on_c, 0, 62, 0
3, 98880, Note_on_c, 0, 59, 24
3, 98889, Control_c, 0, 64, 0
3, 98940, Note_on_c, 0, 59, 0
3, 98972, Control_c, 0, 64, 127
3, 99120, Note_on_c, 0, 59, 24
3, 99180, Note_on_c, 0, 59, 0
3, 99360, Control_c, 0, 64, 0
3, 99360, Note_on_c, 0, 62, 24
3, 99360, Note_on_c, 0, 65, 29
3, 99420, Note_on_c, 0, 65, 0
3, 99420, Note_on_c, 0, 62, 0
3, 99600, Note_on_c, 0, 59, 24
3, 99660, Note_on_c, 0, 59, 0
3, 99840, Note_on_c, 0, 59, 24
3, 99900, Note_on_c, 0, 59, 0
3, 100080, Note_on_c, 0, 65, 29
3, 100080, Note_on_c, 0, 62, 24
3, 100140, Note_on_c, 0, 62, 0
3, 100140, Note_on_c, 0, 65, 0
3, 100320, Note_on_c, 0, 59, 24
3, 100380, Note_on_c, 0, 59, 0
3, 100560, Note_on_c, 0, 59, 24
3, 100620, Note_on_c, 0, 59, 0
3, 100800, Note_on_c, 0, 59, 26
3, 100800, Note_on_c, 0, 62, 32
3, 100880, Control_c, 0, 64, 127
3, 100920, Note_on_c, 0, 62, 0
3, 100920, Note_on_c, 0, 59, 0
3, 100920, Note_on_c, 0, 65, 26
3, 101040, Note_on_c, 0, 65, 0
3, 101040, Note_on_c, 0, 62, 28
3, 101040, Note_on_c, 0, 59, 22
3, 101057, Control_c, 0, 64, 0
3, 101091, Control_c, 0, 64, 127
3, 101160, Note_on_c, 0, 59, 0
3, 101160, Note_on_c, 0, 62, 0
3, 101160, Note_on_c, 0, 65, 26
3, 101280, Note_on_c, 0, 65, 0
3, 101280, Note_on_c, 0, 62, 28
3, 101280, Note_on_c, 0, 59, 22
3, 101291, Control_c, 0, 64, 0
3, 101343, Control_c, 0, 64, 127
3, 101400, Note_on_c, 0, 59, 0
3, 101400, Note_on_c, 0, 62, 0
3, 101400, Note_on_c, 0, 65, 26
3, 101520, Note_on_c, 0, 65, 0
3, 101520, Control_c, 0, 64, 0
3, 101520, Note_on_c, 0, 58, 26
3, 101520, Note_on_c, 0, 62, 32
3, 101560, Control_c, 0, 64, 127
3, 101640, Note_on_c, 0, 62, 0
3, 101640, Note_on_c, 0, 58, 0
3, 101640, Note_on_c, 0, 65, 26
3, 101760, Note_on_c, 0, 65, 0
3, 101760, Note_on_c, 0, 62, 28
3, 101760, Note_on_c, 0, 58, 22
3, 101763, Control_c, 0, 64, 0
3, 101831, Control_c, 0, 64, 127
3, 101880, Note_on_c, 0, 58, 0
3, 101880, Note_on_c, 0, 62, 0
3, 101880, Note_on_c, 0, 65, 26
3, 102000, Note_on_c, 0, 65, 0
3, 102000, Note_on_c, 0, 62, 28
3, 102000, Note_on_c, 0, 58, 22
3, 102008, Control_c, 0, 64, 0
3, 102064, Control_c, 0, 64, 127
3, 102120, Note_on_c, 0, 58, 0
3, 102120, Note_on_c, 0, 62, 0
3, 102120, Note_on_c, 0, 65, 26
3, 102240, Note_on_c, 0, 65, 0
3, 102240, Control_c, 0, 64, 0
3, 102240, Note_on_c, 0, 58, 31
3, 102240, Note_on_c, 0, 62, 38
3, 102311, Control_c, 0, 64, 127
3, 102360, Note_on_c, 0, 62, 0
3, 102360, Note_on_c, 0, 58, 0
3, 102360, Note_on_c, 0, 65, 25
3, 102480, Note_on_c, 0, 65, 0
3, 102480, Note_on_c, 0, 58, 24
3, 102480, Note_on_c, 0, 62, 29
3, 102488, Control_c, 0, 64, 0
3, 102537, Control_c, 0, 64, 127
3, 102600, Note_on_c, 0, 62, 0
3, 102600, Note_on_c, 0, 58, 0
3, 102600, Note_on_c, 0, 65, 24
3, 102720, Note_on_c, 0, 65, 0
3, 102720, Note_on_c, 0, 58, 24
3, 102720, Note_on_c, 0, 62, 29
3, 102727, Control_c, 0, 64, 0
3, 102805, Control_c, 0, 64, 127
3, 102840, Note_on_c, 0, 62, 0
3, 102840, Note_on_c, 0, 58, 0
3, 102840, Note_on_c, 0, 65, 25
3, 102960, Note_on_c, 0, 65, 0
3, 102960, Note_on_c, 0, 58, 29
3, 102960, Note_on_c, 0, 63, 34
3, 102962, Control_c, 0, 64, 0
3, 103009, Control_c, 0, 64, 127
3, 103080, Note_on_c, 0, 63, 0
3, 103080, Note_on_c, 0, 58, 0
3, 103080, Note_on_c, 0, 67, 26
3, 103200, Note_on_c, 0, 67, 0
3, 103200, Note_on_c, 0, 58, 25
3, 103200, Note_on_c, 0, 63, 30
3, 103207, Control_c, 0, 64, 0
3, 103285, Control_c, 0, 64, 127
3, 103320, Note_on_c, 0, 63, 0
3, 103320, Note_on_c, 0, 58, 0
3, 103320, Note_on_c, 0, 67, 25
3, 103440, Note_on_c, 0, 67, 0
3, 103440, Note_on_c, 0, 58, 25
3, 103440, Note_on_c, 0, 63, 30
3, 103560, Note_on_c, 0, 63, 0
3, 103560, Note_on_c, 0, 58, 0
3, 103560, Note_on_c, 0, 67, 25
3, 103680, Note_on_c, 0, 67, 0
3, 103680, Control_c, 0, 64, 0
3, 103680, Note_on_c, 0, 58, 35
3, 103680, Note_on_c, 0, 62, 43
3, 103729, Control_c, 0, 64, 127
3, 103800, Note_on_c, 0, 62, 0
3, 103800, Note_on_c, 0, 58, 0
3, 103800, Note_on_c, 0, 65, 28
3, 103920, Note_on_c, 0, 65, 0
3, 103920, Note_on_c, 0, 62, 31
3, 103920, Note_on_c, 0, 58, 25
3, 103941, Control_c, 0, 64, 0
3, 103976, Control_c, 0, 64, 127
3, 104040, Note_on_c, 0, 58, 0
3, 104040, Note_on_c, 0, 62, 0
3, 104040, Note_on_c, 0, 65, 26
3, 104160, Note_on_c, 0, 65, 0
3, 104160, Note_on_c, 0, 58, 26
3, 104160, Note_on_c, 0, 62, 32
3, 104280, Note_on_c, 0, 62, 0
3, 104280, Note_on_c, 0, 58, 0
3, 104280, Note_on_c, 0, 65, 26
3, 104400, Note_on_c, 0, 65, 0
3, 104400, Note_on_c, 0, 57, 32
3, 104400, Note_on_c, 0, 63, 39
3, 104428, Control_c, 0, 64, 0
3, 104520, Note_on_c, 0, 63, 0
3, 104520, Note_on_c, 0, 57, 0
3, 104520, Note_on_c, 0, 65, 28
3, 104640, Note_on_c, 0, 65, 0
3, 104640, Note_on_c, 0, 57, 26
3, 104640, Note_on_c, 0, 63, 32
3, 104760, Note_on_c, 0, 63, 0
3, 104760, Note_on_c, 0, 57, 0
3, 104760, Note_on_c, 0, 65, 29
3, 104880, Note_on_c, 0, 65, 0
3, 104880, Note_on_c, 0, 57, 28
3, 104880, Note_on_c, 0, 63, 33
3, 105000, Note_on_c, 0, 63, 0
3, 105000, Note_on_c, 0, 57, 0
3, 105000, Note_on_c, 0, 65, 28
3, 105120, Note_on_c, 0, 65, 0
3, 105120, Note_on_c, 0, 57, 35
3, 105120, Note_on_c, 0, 63, 42
3, 105189, Control_c, 0, 64, 127
3, 105240, Note_on_c, 0, 63, 0
3, 105240, Note_on_c, 0, 57, 0
3, 105240, Note_on_c, 0, 66, 29
3, 105360, Note_on_c, 0, 66, 0
3, 105360, Note_on_c, 0, 57, 28
3, 105360, Note_on_c, 0, 63, 34
3, 105480, Note_on_c, 0, 63, 0
3, 105480, Note_on_c, 0, 57, 0
3, 105480, Note_on_c, 0, 66, 29
3, 105596, Control_c, 0, 64, 0
3, 105600, Note_on_c, 0, 66, 0
3, 105600, Note_on_c, 0, 57, 28
3, 105600, Note_on_c, 0, 63, 34
3, 105720, Note_on_c, 0, 63, 0
3, 105720, Note_on_c, 0, 57, 0
3, 105720, Note_on_c, 0, 66, 30
3, 105840, Note_on_c, 0, 66, 0
3, 105840, Note_on_c, 0, 58, 34
3, 105840, Note_on_c, 0, 63, 40
3, 105960, Note_on_c, 0, 63, 0
3, 105960, Note_on_c, 0, 58, 0
3, 105960, Note_on_c, 0, 67, 30
3, 105967, Control_c, 0, 64, 127
3, 106080, Note_on_c, 0, 67, 0
3, 106080, Note_on_c, 0, 58, 29
3, 106080, Note_on_c, 0, 63, 34
3, 106200, Note_on_c, 0, 63, 0
3, 106200, Note_on_c, 0, 58, 0
3, 106200, Note_on_c, 0, 67, 30
3, 106320, Note_on_c, 0, 67, 0
3, 106320, Note_on_c, 0, 58, 29
3, 106320, Note_on_c, 0, 63, 34
3, 106338, Control_c, 0, 64, 0
3, 106440, Note_on_c, 0, 63, 0
3, 106440, Note_on_c, 0, 58, 0
3, 106440, Note_on_c, 0, 67, 30
3, 106560, Note_on_c, 0, 67, 0
3, 106560, Note_on_c, 0, 60, 35
3, 106560, Note_on_c, 0, 63, 42
3, 106609, Control_c, 0, 64, 127
3, 106680, Note_on_c, 0, 63, 0
3, 106680, Note_on_c, 0, 60, 0
3, 106680, Note_on_c, 0, 67, 31
3, 106800, Note_on_c, 0, 67, 0
3, 106800, Note_on_c, 0, 60, 30
3, 106800, Note_on_c, 0, 63, 35
3, 106807, Control_c, 0, 64, 0
3, 106843, Control_c, 0, 64, 127
3, 106920, Note_on_c, 0, 63, 0
3, 106920, Note_on_c, 0, 60, 0
3, 106920, Note_on_c, 0, 67, 31
3, 107040, Note_on_c, 0, 67, 0
3, 107040, Note_on_c, 0, 60, 31
3, 107040, Note_on_c, 0, 63, 37
3, 107160, Note_on_c, 0, 63, 0
3, 107160, Note_on_c, 0, 60, 0
3, 107160, Note_on_c, 0, 67, 32
3, 107280, Note_on_c, 0, 67, 0
3, 107280, Control_c, 0, 64, 0
3, 107280, Note_on_c, 0, 55, 35
3, 107280, Note_on_c, 0, 62, 43
3, 107333, Control_c, 0, 64, 127
3, 107400, Note_on_c, 0, 62, 0
3, 107400, Note_on_c, 0, 55, 0
3, 107400, Note_on_c, 0, 67, 32
3, 107520, Note_on_c, 0, 67, 0
3, 107520, Note_on_c, 0, 55, 31
3, 107520, Note_on_c, 0, 62, 37
3, 107527, Control_c, 0, 64, 0
3, 107587, Control_c, 0, 64, 127
3, 107640, Note_on_c, 0, 62, 0
3, 107640, Note_on_c, 0, 55, 0
3, 107640, Note_on_c, 0, 67, 32
3, 107760, Note_on_c, 0, 67, 0
3, 107760, Note_on_c, 0, 55, 31
3, 107760, Note_on_c, 0, 62, 37
3, 107880, Note_on_c, 0, 62, 0
3, 107880, Note_on_c, 0, 55, 0
3, 107880, Note_on_c, 0, 67, 33
3, 108000, Note_on_c, 0, 67, 0
3, 108000, Control_c, 0, 64, 0
3, 108000, Note_on_c, 0, 63, 62
3, 108240, Note_on_c, 0, 63, 0
3, 108240, Note_on_c, 0, 62, 52
3, 108480, Note_on_c, 0, 62, 0
3, 108480, Note_on_c, 0, 63, 52
3, 108720, Note_on_c, 0, 63, 0
3, 108720, Note_on_c, 0, 60, 62
3, 108960, Note_on_c, 0, 60, 0
3, 108960, Note_on_c, 0, 62, 50
3, 109080, Note_on_c, 0, 62, 0
3, 109080, Note_on_c, 0, 63, 50
3, 109200, Note_on_c, 0, 63, 0
3, 109200, Note_on_c, 0, 65, 52
3, 109320, Note_on_c, 0, 65, 0
3, 109320, Note_on_c, 0, 67, 52
3, 109440, Note_on_c, 0, 67, 0
3, 109440, Note_on_c, 0, 63, 60
3, 109680, Note_on_c, 0, 63, 0
3, 109680, Note_on_c, 0, 65, 57
3, 109800, Note_on_c, 0, 65, 0
3, 109800, Note_on_c, 0, 63, 52
3, 109920, Note_on_c, 0, 63, 0
3, 109920, Note_on_c, 0, 62, 57
3, 110040, Note_on_c, 0, 62, 0
3, 110040, Note_on_c, 0, 60, 52
3, 110160, Note_on_c, 0, 60, 0
3, 110160, Note_on_c, 0, 58, 61
3, 110220, Note_on_c, 0, 58, 0
3, 110400, Note_on_c, 0, 58, 52
3, 110460, Note_on_c, 0, 58, 0
3, 110640, Note_on_c, 0, 58, 52
3, 110700, Note_on_c, 0, 58, 0
3, 110880, Note_on_c, 0, 59, 60
3, 111120, Note_on_c, 0, 59, 0
3, 111120, Note_on_c, 0, 71, 50
3, 111360, Note_on_c, 0, 71, 0
3, 111360, Note_on_c, 0, 71, 53
3, 111420, Note_on_c, 0, 71, 0
3, 111600, Note_on_c, 0, 72, 62
3, 111840, Note_on_c, 0, 72, 0
3, 111840, Note_on_c, 0, 60, 58
3, 112080, Note_on_c, 0, 60, 0
3, 112080, Note_on_c, 0, 60, 60
3, 112140, Note_on_c, 0, 60, 0
3, 112320, Note_on_c, 0, 65, 66
3, 112380, Note_on_c, 0, 65, 0
3, 112500, Note_on_c, 0, 55, 58
3, 112560, Note_on_c, 0, 53, 67
3, 112580, Note_on_c, 0, 55, 0
3, 112680, Note_on_c, 0, 52, 62
3, 112700, Note_on_c, 0, 53, 0
3, 112800, Note_on_c, 0, 53, 66
3, 112820, Note_on_c, 0, 52, 0
3, 113040, Note_on_c, 0, 53, 0
3, 113040, Note_on_c, 0, 58, 62
3, 113100, Note_on_c, 0, 58, 0
3, 113220, Note_on_c, 0, 48, 56
3, 113280, Note_on_c, 0, 46, 62
3, 113300, Note_on_c, 0, 48, 0
3, 113400, Note_on_c, 0, 45, 57
3, 113420, Note_on_c, 0, 46, 0
3, 113520, Note_on_c, 0, 46, 62
3, 113540, Note_on_c, 0, 45, 0
3, 113760, Note_on_c, 0, 46, 0
3, 113760, Note_on_c, 0, 41, 56
3, 113767, Control_c, 0, 64, 0
3, 113852, Control_c, 0, 64, 127
3, 114000, Note_on_c, 0, 41, 0
3, 114000, Note_on_c, 0, 43, 44
3, 114019, Control_c, 0, 64, 0
3, 114106, Control_c, 0, 64, 127
3, 114120, Note_on_c, 0, 43, 0
3, 114120, Note_on_c, 0, 45, 44
3, 114240, Note_on_c, 0, 45, 0
3, 114240, Note_on_c, 0, 46, 47
3, 114360, Note_on_c, 0, 46, 0
3, 114360, Note_on_c, 0, 48, 47
3, 114480, Note_on_c, 0, 48, 0
3, 114480, Control_c, 0, 64, 0
3, 114480, Note_on_c, 0, 46, 53
3, 114540, Note_on_c, 0, 46, 0
3, 114720, Note_on_c, 0, 46, 53
3, 114780, Note_on_c, 0, 46, 0
3, 114960, Note_on_c, 0, 46, 53
3, 115020, Note_on_c, 0, 46, 0
3, 115200, Note_on_c, 0, 53, 50
3, 115292, Control_c, 0, 64, 127
3, 115440, Note_on_c, 0, 53, 0
3, 115440, Note_on_c, 0, 55, 39
3, 115459, Control_c, 0, 64, 0
3, 115546, Control_c, 0, 64, 127
3, 115560, Note_on_c, 0, 55, 0
3, 115560, Note_on_c, 0, 57, 39
3, 115680, Note_on_c, 0, 57, 0
3, 115680, Note_on_c, 0, 58, 41
3, 115800, Note_on_c, 0, 58, 0
3, 115800, Note_on_c, 0, 60, 41
3, 115920, Note_on_c, 0, 60, 0
3, 115920, Control_c, 0, 64, 0
3, 115920, Note_on_c, 0, 58, 48
3, 115980, Note_on_c, 0, 58, 0
3, 116160, Note_on_c, 0, 58, 48
3, 116220, Note_on_c, 0, 58, 0
3, 116400, Note_on_c, 0, 58, 48
3, 116460, Note_on_c, 0, 58, 0
3, 116640, Note_on_c, 0, 65, 44
3, 116732, Control_c, 0, 64, 127
3, 116880, Note_on_c, 0, 65, 0
3, 116880, Note_on_c, 0, 67, 34
3, 116899, Control_c, 0, 64, 0
3, 116986, Control_c, 0, 64, 127
3, 117000, Note_on_c, 0, 67, 0
3, 117000, Note_on_c, 0, 69, 34
3, 117120, Note_on_c, 0, 69, 0
3, 117120, Note_on_c, 0, 70, 37
3, 117240, Note_on_c, 0, 70, 0
3, 117240, Note_on_c, 0, 72, 37
3, 117360, Note_on_c, 0, 72, 0
3, 117360, Control_c, 0, 64, 0
3, 117360, Note_on_c, 0, 70, 42
3, 117600, Note_on_c, 0, 70, 0
3, 118108, Control_c, 0, 64, 127
3, 118320, Note_on_c, 0, 46, 45
3, 118440, Note_on_c, 0, 46, 0
3, 118800, Control_c, 0, 64, 0
3, 118800, Note_on_c, 0, 49, 63
3, 118920, Note_on_c, 0, 49, 0
3, 119527, Control_c, 0, 64, 127
3, 119760, Note_on_c, 0, 42, 45
3, 120000, Note_on_c, 0, 42, 0
3, 120240, Control_c, 0, 64, 0
3, 120240, Note_on_c, 0, 41, 63
3, 120360, Note_on_c, 0, 41, 0
3, 120981, Control_c, 0, 64, 127
3, 121200, Note_on_c, 0, 46, 45
3, 121440, Note_on_c, 0, 46, 0
3, 121680, Note_on_c, 0, 49, 63
3, 121762, Control_c, 0, 64, 0
3, 121920, Note_on_c, 0, 49, 0
3, 122400, Control_c, 0, 64, 127
3, 122640, Note_on_c, 0, 41, 38
3, 122880, Note_on_c, 0, 41, 0
3, 123120, Note_on_c, 0, 32, 43
3, 123169, Control_c, 0, 64, 0
3, 123240, Note_on_c, 0, 32, 0
3, 123840, Control_c, 0, 64, 127
3, 124080, Note_on_c, 0, 37, 38
3, 124320, Note_on_c, 0, 37, 0
3, 124560, Control_c, 0, 64, 0
3, 124560, Note_on_c, 0, 37, 39
3, 124680, Note_on_c, 0, 37, 0
3, 124800, Note_on_c, 0, 49, 32
3, 124920, Note_on_c, 0, 49, 0
3, 125040, Note_on_c, 0, 48, 29
3, 125160, Note_on_c, 0, 48, 0
3, 125308, Control_c, 0, 64, 127
3, 125520, Note_on_c, 0, 46, 45
3, 125640, Note_on_c, 0, 46, 0
3, 126000, Control_c, 0, 64, 0
3, 126000, Note_on_c, 0, 49, 63
3, 126120, Note_on_c, 0, 49, 0
3, 126727, Control_c, 0, 64, 127
3, 126960, Note_on_c, 0, 42, 45
3, 127200, Note_on_c, 0, 42, 0
3, 127440, Control_c, 0, 64, 0
3, 127440, Note_on_c, 0, 41, 63
3, 127560, Note_on_c, 0, 41, 0
3, 128181, Control_c, 0, 64, 127
3, 128400, Note_on_c, 0, 46, 45
3, 128640, Note_on_c, 0, 46, 0
3, 128880, Note_on_c, 0, 49, 63
3, 128962, Control_c, 0, 64, 0
3, 129120, Note_on_c, 0, 49, 0
3, 129600, Control_c, 0, 64, 127
3, 129840, Note_on_c, 0, 41, 38
3, 130080, Note_on_c, 0, 41, 0
3, 130320, Note_on_c, 0, 32, 43
3, 130369, Control_c, 0, 64, 0
3, 130440, Note_on_c, 0, 32, 0
3, 131040, Control_c, 0, 64, 127
3, 131280, Note_on_c, 0, 37, 38
3, 131520, Note_on_c, 0, 37, 0
3, 131760, Control_c, 0, 64, 0
3, 131760, Note_on_c, 0, 37, 39
3, 131880, Note_on_c, 0, 37, 0
3, 132000, Note_on_c, 0, 49, 32
3, 132120, Note_on_c, 0, 49, 0
3, 132240, Note_on_c, 0, 48, 29
3, 132360, Note_on_c, 0, 48, 0
3, 132487, Control_c, 0, 64, 127
3, 132720, Note_on_c, 0, 46, 45
3, 132960, Note_on_c, 0, 46, 0
3, 133200, Control_c, 0, 64, 0
3, 133200, Note_on_c, 0, 49, 67
3, 133440, Note_on_c, 0, 49, 0
3, 134005, Control_c, 0, 64, 127
3, 134160, Note_on_c, 0, 48, 51
3, 134400, Note_on_c, 0, 48, 0
3, 134640, Control_c, 0, 64, 0
3, 134640, Note_on_c, 0, 36, 73
3, 134880, Note_on_c, 0, 36, 0
3, 135473, Control_c, 0, 64, 127
3, 135600, Note_on_c, 0, 48, 43
3, 135840, Note_on_c, 0, 48, 0
3, 136080, Control_c, 0, 64, 0
3, 136080, Note_on_c, 0, 51, 35
3, 136320, Note_on_c, 0, 51, 0
3, 136913, Control_c, 0, 64, 127
3, 137040, Note_on_c, 0, 44, 45
3, 137160, Note_on_c, 0, 44, 0
3, 137280, Note_on_c, 0, 42, 48
3, 137400, Note_on_c, 0, 42, 0
3, 137520, Control_c, 0, 64, 0
3, 137520, Note_on_c, 0, 41, 42
3, 137640, Note_on_c, 0, 41, 0
3, 138261, Control_c, 0, 64, 127
3, 138480, Note_on_c, 0, 58, 45
3, 138720, Note_on_c, 0, 58, 0
3, 138960, Note_on_c, 0, 61, 63
3, 139042, Control_c, 0, 64, 0
3, 139200, Note_on_c, 0, 61, 0
3, 139701, Control_c, 0, 64, 127
3, 139920, Note_on_c, 0, 54, 45
3, 140160, Note_on_c, 0, 54, 0
3, 140400, Note_on_c, 0, 53, 63
3, 140482, Control_c, 0, 64, 0
3, 140640, Note_on_c, 0, 53, 0
3, 141141, Control_c, 0, 64, 127
3, 141360, Note_on_c, 0, 46, 45
3, 141600, Note_on_c, 0, 46, 0
3, 141840, Note_on_c, 0, 49, 63
3, 141922, Control_c, 0, 64, 0
3, 142080, Note_on_c, 0, 49, 0
3, 142560, Control_c, 0, 64, 127
3, 142800, Note_on_c, 0, 41, 45
3, 143040, Note_on_c, 0, 41, 0
3, 143280, Note_on_c, 0, 29, 64
3, 143329, Control_c, 0, 64, 0
3, 143520, Note_on_c, 0, 29, 0
3, 144000, Control_c, 0, 64, 127
3, 144240, Note_on_c, 0, 34, 38
3, 144480, Note_on_c, 0, 34, 0
3, 144720, Control_c, 0, 64, 0
3, 144720, Note_on_c, 0, 46, 39
3, 144840, Note_on_c, 0, 46, 0
3, 144960, Note_on_c, 0, 49, 32
3, 145080, Note_on_c, 0, 49, 0
3, 145200, Note_on_c, 0, 48, 29
3, 145320, Note_on_c, 0, 48, 0
3, 145447, Control_c, 0, 64, 127
3, 145680, Note_on_c, 0, 46, 45
3, 145920, Note_on_c, 0, 46, 0
3, 146160, Control_c, 0, 64, 0
3, 146160, Note_on_c, 0, 49, 67
3, 146400, Note_on_c, 0, 49, 0
3, 146965, Control_c, 0, 64, 127
3, 147120, Note_on_c, 0, 48, 51
3, 147360, Note_on_c, 0, 48, 0
3, 147600, Control_c, 0, 64, 0
3, 147600, Note_on_c, 0, 36, 73
3, 147840, Note_on_c, 0, 36, 0
3, 148433, Control_c, 0, 64, 127
3, 148560, Note_on_c, 0, 48, 43
3, 148800, Note_on_c, 0, 48, 0
3, 149040, Control_c, 0, 64, 0
3, 149040, Note_on_c, 0, 51, 35
3, 149280, Note_on_c, 0, 51, 0
3, 149873, Control_c, 0, 64, 127
3, 150000, Note_on_c, 0, 44, 45
3, 150120, Note_on_c, 0, 44, 0
3, 150240, Note_on_c, 0, 42, 48
3, 150360, Note_on_c, 0, 42, 0
3, 150480, Control_c, 0, 64, 0
3, 150480, Note_on_c, 0, 41, 42
3, 150600, Note_on_c, 0, 41, 0
3, 151221, Control_c, 0, 64, 127
3, 151440, Note_on_c, 0, 58, 45
3, 151680, Note_on_c, 0, 58, 0
3, 151920, Note_on_c, 0, 61, 63
3, 152002, Control_c, 0, 64, 0
3, 152160, Note_on_c, 0, 61, 0
3, 152661, Control_c, 0, 64, 127
3, 152880, Note_on_c, 0, 54, 45
3, 153120, Note_on_c, 0, 54, 0
3, 153360, Note_on_c, 0, 53, 63
3, 153442, Control_c, 0, 64, 0
3, 153600, Note_on_c, 0, 53, 0
3, 154101, Control_c, 0, 64, 127
3, 154320, Note_on_c, 0, 46, 45
3, 154560, Note_on_c, 0, 46, 0
3, 154800, Note_on_c, 0, 49, 63
3, 154882, Control_c, 0, 64, 0
3, 155040, Note_on_c, 0, 49, 0
3, 155520, Control_c, 0, 64, 127
3, 155760, Note_on_c, 0, 41, 45
3, 156000, Note_on_c, 0, 41, 0
3, 156240, Note_on_c, 0, 29, 64
3, 156289, Control_c, 0, 64, 0
3, 156480, Note_on_c, 0, 29, 0
3, 156960, Control_c, 0, 64, 127
3, 157200, Note_on_c, 0, 34, 38
3, 157440, Note_on_c, 0, 34, 0
3, 157680, Note_on_c, 0, 46, 39
3, 157920, Note_on_c, 0, 46, 0
3, 157947, Control_c, 0, 64, 0
3, 158400, Control_c, 0, 64, 127
3, 158400, Note_on_c, 0, 58, 31
3, 158400, Note_on_c, 0, 62, 38
3, 158520, Note_on_c, 0, 62, 0
3, 158520, Note_on_c, 0, 58, 0
3, 158520, Note_on_c, 0, 65, 25
3, 158640, Note_on_c, 0, 65, 0
3, 158640, Note_on_c, 0, 58, 24
3, 158640, Note_on_c, 0, 62, 29
3, 158647, Control_c, 0, 64, 0
3, 158682, Control_c, 0, 64, 127
3, 158760, Note_on_c, 0, 62, 0
3, 158760, Note_on_c, 0, 58, 0
3, 158760, Note_on_c, 0, 65, 24
3, 158880, Note_on_c, 0, 65, 0
3, 158880, Control_c, 0, 64, 0
3, 158880, Note_on_c, 0, 58, 24
3, 158880, Note_on_c, 0, 62, 29
3, 158908, Control_c, 0, 64, 127
3, 159000, Note_on_c, 0, 62, 0
3, 159000, Note_on_c, 0, 58, 0
3, 159000, Note_on_c, 0, 65, 25
3, 159120, Note_on_c, 0, 65, 0
3, 159120, Control_c, 0, 64, 0
3, 159120, Note_on_c, 0, 58, 28
3, 159120, Note_on_c, 0, 63, 34
3, 159169, Control_c, 0, 64, 127
3, 159240, Note_on_c, 0, 63, 0
3, 159240, Note_on_c, 0, 58, 0
3, 159240, Note_on_c, 0, 67, 25
3, 159360, Note_on_c, 0, 67, 0
3, 159360, Note_on_c, 0, 58, 24
3, 159360, Note_on_c, 0, 63, 29
3, 159381, Control_c, 0, 64, 0
3, 159416, Control_c, 0, 64, 127
3, 159480, Note_on_c, 0, 63, 0
3, 159480, Note_on_c, 0, 58, 0
3, 159480, Note_on_c, 0, 67, 24
3, 159600, Note_on_c, 0, 67, 0
3, 159600, Note_on_c, 0, 58, 24
3, 159600, Note_on_c, 0, 63, 29
3, 159720, Note_on_c, 0, 63, 0
3, 159720, Note_on_c, 0, 58, 0
3, 159720, Note_on_c, 0, 67, 24
3, 159840, Note_on_c, 0, 67, 0
3, 159840, Control_c, 0, 64, 0
3, 159840, Note_on_c, 0, 58, 34
3, 159840, Note_on_c, 0, 62, 40
3, 159889, Control_c, 0, 64, 127
3, 159960, Note_on_c, 0, 62, 0
3, 159960, Note_on_c, 0, 58, 0
3, 159960, Note_on_c, 0, 65, 25
3, 160080, Note_on_c, 0, 65, 0
3, 160080, Note_on_c, 0, 62, 29
3, 160080, Note_on_c, 0, 58, 24
3, 160086, Control_c, 0, 64, 0
3, 160158, Control_c, 0, 64, 127
3, 160200, Note_on_c, 0, 58, 0
3, 160200, Note_on_c, 0, 62, 0
3, 160200, Note_on_c, 0, 65, 24
3, 160320, Note_on_c, 0, 65, 0
3, 160320, Note_on_c, 0, 58, 24
3, 160320, Note_on_c, 0, 62, 29
3, 160440, Note_on_c, 0, 62, 0
3, 160440, Note_on_c, 0, 58, 0
3, 160440, Note_on_c, 0, 65, 24
3, 160560, Note_on_c, 0, 65, 0
3, 160560, Note_on_c, 0, 57, 29
3, 160560, Note_on_c, 0, 63, 34
3, 160588, Control_c, 0, 64, 0
3, 160680, Note_on_c, 0, 63, 0
3, 160680, Note_on_c, 0, 57, 0
3, 160680, Note_on_c, 0, 65, 25
3, 160800, Note_on_c, 0, 65, 0
3, 160800, Note_on_c, 0, 57, 24
3, 160800, Note_on_c, 0, 63, 29
3, 160920, Note_on_c, 0, 63, 0
3, 160920, Note_on_c, 0, 57, 0
3, 160920, Note_on_c, 0, 65, 26
3, 161040, Note_on_c, 0, 65, 0
3, 161040, Note_on_c, 0, 57, 24
3, 161040, Note_on_c, 0, 63, 29
3, 161160, Note_on_c, 0, 63, 0
3, 161160, Note_on_c, 0, 57, 0
3, 161160, Note_on_c, 0, 65, 25
3, 161280, Note_on_c, 0, 65, 0
3, 161280, Note_on_c, 0, 57, 31
3, 161280, Note_on_c, 0, 63, 37
3, 161349, Control_c, 0, 64, 127
3, 161400, Note_on_c, 0, 63, 0
3, 161400, Note_on_c, 0, 57, 0
3, 161400, Note_on_c, 0, 66, 25
3, 161520, Note_on_c, 0, 66, 0
3, 161520, Note_on_c, 0, 57, 24
3, 161520, Note_on_c, 0, 63, 29
3, 161640, Note_on_c, 0, 63, 0
3, 161640, Note_on_c, 0, 57, 0
3, 161640, Note_on_c, 0, 66, 25
3, 161749, Control_c, 0, 64, 0
3, 161760, Note_on_c, 0, 66, 0
3, 161760, Note_on_c, 0, 57, 24
3, 161760, Note_on_c, 0, 63, 29
3, 161880, Note_on_c, 0, 63, 0
3, 161880, Note_on_c, 0, 57, 0
3, 161880, Note_on_c, 0, 66, 25
3, 162000, Note_on_c, 0, 66, 0
3, 162000, Note_on_c, 0, 58, 29
3, 162000, Note_on_c, 0, 63, 34
3, 162011, Control_c, 0, 64, 127
3, 162120, Note_on_c, 0, 63, 0
3, 162120, Note_on_c, 0, 58, 0
3, 162120, Note_on_c, 0, 67, 25
3, 162240, Note_on_c, 0, 67, 0
3, 162240, Note_on_c, 0, 58, 24
3, 162240, Note_on_c, 0, 63, 29
3, 162360, Note_on_c, 0, 63, 0
3, 162360, Note_on_c, 0, 58, 0
3, 162360, Note_on_c, 0, 67, 25
3, 162480, Note_on_c, 0, 67, 0
3, 162480, Note_on_c, 0, 58, 24
3, 162480, Note_on_c, 0, 63, 29
3, 162501, Control_c, 0, 64, 0
3, 162600, Note_on_c, 0, 63, 0
3, 162600, Note_on_c, 0, 58, 0
3, 162600, Note_on_c, 0, 67, 25
3, 162720, Note_on_c, 0, 67, 0
3, 162720, Note_on_c, 0, 60, 29
3, 162720, Note_on_c, 0, 63, 34
3, 162769, Control_c, 0, 64, 127
3, 162840, Note_on_c, 0, 63, 0
3, 162840, Note_on_c, 0, 60, 0
3, 162840, Note_on_c, 0, 65, 25
3, 162960, Note_on_c, 0, 65, 0
3, 162960, Note_on_c, 0, 60, 24
3, 162960, Note_on_c, 0, 63, 29
3, 162964, Control_c, 0, 64, 0
3, 163020, Control_c, 0, 64, 127
3, 163080, Note_on_c, 0, 63, 0
3, 163080, Note_on_c, 0, 60, 0
3, 163080, Note_on_c, 0, 65, 25
3, 163200, Note_on_c, 0, 65, 0
3, 163200, Note_on_c, 0, 60, 24
3, 163200, Note_on_c, 0, 63, 29
3, 163320, Note_on_c, 0, 63, 0
3, 163320, Note_on_c, 0, 60, 0
3, 163320, Note_on_c, 0, 65, 25
3, 163440, Note_on_c, 0, 65, 0
3, 163440, Control_c, 0, 64, 0
3, 163440, Note_on_c, 0, 58, 29
3, 163440, Note_on_c, 0, 62, 34
3, 163493, Control_c, 0, 64, 127
3, 163560, Note_on_c, 0, 62, 0
3, 163560, Note_on_c, 0, 58, 0
3, 163560, Note_on_c, 0, 65, 25
3, 163680, Note_on_c, 0, 65, 0
3, 163680, Note_on_c, 0, 58, 24
3, 163680, Note_on_c, 0, 62, 29
3, 163687, Control_c, 0, 64, 0
3, 163740, Control_c, 0, 64, 127
3, 163800, Note_on_c, 0, 62, 0
3, 163800, Note_on_c, 0, 58, 0
3, 163800, Note_on_c, 0, 65, 25
3, 163920, Note_on_c, 0, 65, 0
3, 163920, Note_on_c, 0, 58, 24
3, 163920, Note_on_c, 0, 62, 29
3, 164040, Note_on_c, 0, 62, 0
3, 164040, Note_on_c, 0, 58, 0
3, 164040, Note_on_c, 0, 65, 25
3, 164160, Note_on_c, 0, 65, 0
3, 164160, Control_c, 0, 64, 0
3, 164160, Note_on_c, 0, 58, 48
3, 164400, Note_on_c, 0, 58, 0
3, 164400, Note_on_c, 0, 57, 40
3, 164640, Note_on_c, 0, 57, 0
3, 164640, Note_on_c, 0, 58, 40
3, 164880, Note_on_c, 0, 58, 0
3, 164880, Note_on_c, 0, 55, 48
3, 165120, Note_on_c, 0, 55, 0
3, 165120, Note_on_c, 0, 57, 39
3, 165240, Note_on_c, 0, 57, 0
3, 165240, Note_on_c, 0, 58, 39
3, 165360, Note_on_c, 0, 58, 0
3, 165360, Note_on_c, 0, 60, 40
3, 165480, Note_on_c, 0, 60, 0
3, 165480, Note_on_c, 0, 62, 40
3, 165600, Note_on_c, 0, 62, 0
3, 165600, Note_on_c, 0, 58, 46
3, 165840, Note_on_c, 0, 58, 0
3, 165840, Note_on_c, 0, 60, 44
3, 165960, Note_on_c, 0, 60, 0
3, 165960, Note_on_c, 0, 58, 40
3, 166080, Note_on_c, 0, 58, 0
3, 166080, Note_on_c, 0, 57, 44
3, 166200, Note_on_c, 0, 57, 0
3, 166200, Note_on_c, 0, 55, 40
3, 166320, Note_on_c, 0, 55, 0
3, 166320, Note_on_c, 0, 53, 47
3, 166440, Note_on_c, 0, 53, 0
3, 166560, Note_on_c, 0, 53, 40
3, 166680, Note_on_c, 0, 53, 0
3, 166800, Note_on_c, 0, 53, 40
3, 166920, Note_on_c, 0, 53, 0
3, 167040, Note_on_c, 0, 54, 51
3, 167280, Note_on_c, 0, 54, 0
3, 167280, Note_on_c, 0, 66, 39
3, 167520, Note_on_c, 0, 66, 0
3, 167520, Note_on_c, 0, 66, 41
3, 167640, Note_on_c, 0, 66, 0
3, 167760, Note_on_c, 0, 67, 51
3, 168000, Note_on_c, 0, 67, 0
3, 168000, Note_on_c, 0, 55, 45
3, 168240, Note_on_c, 0, 55, 0
3, 168240, Note_on_c, 0, 55, 46
3, 168360, Note_on_c, 0, 55, 0
3, 168480, Note_on_c, 0, 58, 51
3, 168540, Note_on_c, 0, 58, 0
3, 168660, Note_on_c, 0, 48, 39
3, 168720, Note_on_c, 0, 46, 46
3, 168740, Note_on_c, 0, 48, 0
3, 168840, Note_on_c, 0, 45, 42
3, 168860, Note_on_c, 0, 46, 0
3, 168960, Note_on_c, 0, 46, 45
3, 168980, Note_on_c, 0, 45, 0
3, 169200, Note_on_c, 0, 46, 0
3, 169200, Note_on_c, 0, 51, 42
3, 169260, Note_on_c, 0, 51, 0
3, 169380, Note_on_c, 0, 41, 39
3, 169440, Note_on_c, 0, 39, 42
3, 169460, Note_on_c, 0, 41, 0
3, 169560, Note_on_c, 0, 38, 39
3, 169580, Note_on_c, 0, 39, 0
3, 169680, Note_on_c, 0, 39, 42
3, 169700, Note_on_c, 0, 38, 0
3, 169800, Note_on_c, 0, 39, 0
3, 169920, Note_on_c, 0, 63, 29
3, 169920, Note_on_c, 0, 67, 34
3, 169970, Control_c, 0, 64, 127
3, 170040, Note_on_c, 0, 67, 0
3, 170040, Note_on_c, 0, 63, 0
3, 170040, Note_on_c, 0, 70, 28
3, 170160, Note_on_c, 0, 70, 0
3, 170160, Note_on_c, 0, 63, 26
3, 170160, Note_on_c, 0, 67, 32
3, 170166, Control_c, 0, 64, 0
3, 170189, Control_c, 0, 64, 127
3, 170280, Note_on_c, 0, 67, 0
3, 170280, Note_on_c, 0, 63, 0
3, 170280, Note_on_c, 0, 70, 28
3, 170400, Note_on_c, 0, 70, 0
3, 170400, Note_on_c, 0, 63, 26
3, 170400, Note_on_c, 0, 67, 32
3, 170410, Control_c, 0, 64, 0
3, 170449, Control_c, 0, 64, 127
3, 170520, Note_on_c, 0, 67, 0
3, 170520, Note_on_c, 0, 63, 0
3, 170520, Note_on_c, 0, 70, 28
3, 170640, Note_on_c, 0, 70, 0
3, 170640, Note_on_c, 0, 62, 26
3, 170640, Note_on_c, 0, 65, 32
3, 170640, Control_c, 0, 64, 0
3, 170655, Control_c, 0, 64, 0
3, 170690, Control_c, 0, 64, 127
3, 170760, Note_on_c, 0, 65, 0
3, 170760, Note_on_c, 0, 62, 0
3, 170760, Note_on_c, 0, 70, 28
3, 170880, Note_on_c, 0, 70, 0
3, 170880, Note_on_c, 0, 62, 26
3, 170880, Note_on_c, 0, 65, 32
3, 170888, Control_c, 0, 64, 0
3, 170919, Control_c, 0, 64, 127
3, 171000, Note_on_c, 0, 65, 0
3, 171000, Note_on_c, 0, 62, 0
3, 171000, Note_on_c, 0, 70, 28
3, 171120, Note_on_c, 0, 70, 0
3, 171120, Note_on_c, 0, 61, 26
3, 171120, Note_on_c, 0, 65, 32
3, 171138, Control_c, 0, 64, 0
3, 171169, Control_c, 0, 64, 127
3, 171240, Note_on_c, 0, 65, 0
3, 171240, Note_on_c, 0, 61, 0
3, 171240, Note_on_c, 0, 70, 28
3, 171360, Note_on_c, 0, 70, 0
3, 171360, Note_on_c, 0, 60, 26
3, 171360, Note_on_c, 0, 65, 32
3, 171360, Control_c, 0, 64, 0
3, 171375, Control_c, 0, 64, 0
3, 171410, Control_c, 0, 64, 127
3, 171480, Note_on_c, 0, 65, 0
3, 171480, Note_on_c, 0, 60, 0
3, 171480, Note_on_c, 0, 68, 28
3, 171600, Note_on_c, 0, 68, 0
3, 171600, Note_on_c, 0, 60, 26
3, 171600, Note_on_c, 0, 65, 32
3, 171604, Control_c, 0, 64, 0
3, 171657, Control_c, 0, 64, 127
3, 171720, Note_on_c, 0, 65, 0
3, 171720, Note_on_c, 0, 60, 0
3, 171720, Note_on_c, 0, 68, 28
3, 171840, Note_on_c, 0, 68, 0
3, 171840, Note_on_c, 0, 60, 26
3, 171840, Note_on_c, 0, 65, 32
3, 171960, Note_on_c, 0, 65, 0
3, 171960, Note_on_c, 0, 60, 0
3, 171960, Note_on_c, 0, 68, 28
3, 172080, Note_on_c, 0, 68, 0
3, 172080, Note_on_c, 0, 60, 26
3, 172080, Note_on_c, 0, 65, 32
3, 172080, Control_c, 0, 64, 0
3, 172095, Control_c, 0, 64, 0
3, 172130, Control_c, 0, 64, 127
3, 172200, Note_on_c, 0, 65, 0
3, 172200, Note_on_c, 0, 60, 0
3, 172200, Note_on_c, 0, 67, 28
3, 172320, Note_on_c, 0, 67, 0
3, 172320, Note_on_c, 0, 60, 26
3, 172320, Note_on_c, 0, 64, 32
3, 172326, Control_c, 0, 64, 0
3, 172406, Control_c, 0, 64, 127
3, 172440, Note_on_c, 0, 64, 0
3, 172440, Note_on_c, 0, 60, 0
3, 172440, Note_on_c, 0, 67, 28
3, 172560, Note_on_c, 0, 67, 0
3, 172560, Note_on_c, 0, 60, 26
3, 172560, Note_on_c, 0, 64, 32
3, 172680, Note_on_c, 0, 64, 0
3, 172680, Note_on_c, 0, 60, 0
3, 172680, Note_on_c, 0, 67, 30
3, 172800, Note_on_c, 0, 67, 0
3, 172800, Note_on_c, 0, 56, 37
3, 172800, Control_c, 0, 64, 0
3, 172800, Note_on_c, 0, 60, 44
3, 173040, Note_on_c, 0, 60, 0
3, 173040, Note_on_c, 0, 61, 40
3, 173280, Note_on_c, 0, 61, 0
3, 173280, Note_on_c, 0, 60, 40
3, 173520, Note_on_c, 0, 60, 0
3, 173520, Note_on_c, 0, 56, 0
3, 173520, Note_on_c, 0, 49, 37
3, 173520, Note_on_c, 0, 58, 44
3, 173760, Note_on_c, 0, 58, 0
3, 173760, Note_on_c, 0, 53, 42
3, 174000, Note_on_c, 0, 53, 0
3, 174000, Note_on_c, 0, 55, 44
3, 174180, Note_on_c, 0, 58, 41
3, 174240, Note_on_c, 0, 58, 0
3, 174240, Note_on_c, 0, 55, 0
3, 174240, Note_on_c, 0, 49, 0
3, 174240, Note_on_c, 0, 51, 37
3, 174240, Note_on_c, 0, 56, 44
3, 174480, Note_on_c, 0, 56, 0
3, 174480, Note_on_c, 0, 55, 38
3, 174720, Note_on_c, 0, 55, 0
3, 174720, Note_on_c, 0, 56, 35
3, 174960, Note_on_c, 0, 56, 0
3, 174960, Note_on_c, 0, 58, 37
3, 175440, Note_on_c, 0, 58, 0
3, 175440, Note_on_c, 0, 59, 34
3, 175680, Note_on_c, 0, 59, 0
3, 175680, Note_on_c, 0, 51, 0
3, 175680, Note_on_c, 0, 56, 29
3, 175680, Note_on_c, 0, 60, 34
3, 175737, Control_c, 0, 64, 127
3, 175800, Note_on_c, 0, 60, 0
3, 175800, Note_on_c, 0, 56, 0
3, 175800, Note_on_c, 0, 63, 28
3, 175920, Note_on_c, 0, 63, 0
3, 175920, Note_on_c, 0, 56, 26
3, 175920, Note_on_c, 0, 60, 32
3, 175928, Control_c, 0, 64, 0
3, 175955, Control_c, 0, 64, 127
3, 176040, Note_on_c, 0, 60, 0
3, 176040, Note_on_c, 0, 56, 0
3, 176040, Note_on_c, 0, 63, 28
3, 176160, Note_on_c, 0, 63, 0
3, 176160, Note_on_c, 0, 56, 26
3, 176160, Note_on_c, 0, 60, 32
3, 176172, Control_c, 0, 64, 0
3, 176197, Control_c, 0, 64, 127
3, 176280, Note_on_c, 0, 60, 0
3, 176280, Note_on_c, 0, 56, 0
3, 176280, Note_on_c, 0, 63, 28
3, 176400, Note_on_c, 0, 63, 0
3, 176400, Note_on_c, 0, 55, 26
3, 176400, Note_on_c, 0, 58, 32
3, 176400, Control_c, 0, 64, 0
3, 176415, Control_c, 0, 64, 0
3, 176450, Control_c, 0, 64, 127
3, 176520, Note_on_c, 0, 58, 0
3, 176520, Note_on_c, 0, 55, 0
3, 176520, Note_on_c, 0, 63, 28
3, 176640, Note_on_c, 0, 63, 0
3, 176640, Note_on_c, 0, 55, 26
3, 176640, Note_on_c, 0, 58, 32
3, 176648, Control_c, 0, 64, 0
3, 176676, Control_c, 0, 64, 127
3, 176760, Note_on_c, 0, 58, 0
3, 176760, Note_on_c, 0, 55, 0
3, 176760, Note_on_c, 0, 63, 28
3, 176880, Note_on_c, 0, 63, 0
3, 176880, Note_on_c, 0, 54, 26
3, 176880, Note_on_c, 0, 58, 32
3, 176894, Control_c, 0, 64, 0
3, 176947, Control_c, 0, 64, 127
3, 177000, Note_on_c, 0, 58, 0
3, 177000, Note_on_c, 0, 54, 0
3, 177000, Note_on_c, 0, 63, 28
3, 177120, Note_on_c, 0, 63, 0
3, 177120, Note_on_c, 0, 53, 26
3, 177120, Note_on_c, 0, 58, 32
3, 177120, Control_c, 0, 64, 0
3, 177135, Control_c, 0, 64, 0
3, 177170, Control_c, 0, 64, 127
3, 177240, Note_on_c, 0, 58, 0
3, 177240, Note_on_c, 0, 53, 0
3, 177240, Note_on_c, 0, 61, 28
3, 177360, Note_on_c, 0, 61, 0
3, 177360, Note_on_c, 0, 53, 26
3, 177360, Note_on_c, 0, 58, 32
3, 177377, Control_c, 0, 64, 0
3, 177440, Control_c, 0, 64, 127
3, 177480, Note_on_c, 0, 58, 0
3, 177480, Note_on_c, 0, 53, 0
3, 177480, Note_on_c, 0, 61, 28
3, 177600, Note_on_c, 0, 61, 0
3, 177600, Note_on_c, 0, 53, 26
3, 177600, Note_on_c, 0, 58, 32
3, 177720, Note_on_c, 0, 58, 0
3, 177720, Note_on_c, 0, 53, 0
3, 177720, Note_on_c, 0, 61, 28
3, 177840, Note_on_c, 0, 61, 0
3, 177840, Note_on_c, 0, 53, 26
3, 177840, Note_on_c, 0, 58, 32
3, 177840, Control_c, 0, 64, 0
3, 177855, Control_c, 0, 64, 0
3, 177890, Control_c, 0, 64, 127
3, 177960, Note_on_c, 0, 58, 0
3, 177960, Note_on_c, 0, 53, 0
3, 177960, Note_on_c, 0, 60, 28
3, 178080, Note_on_c, 0, 60, 0
3, 178080, Note_on_c, 0, 53, 26
3, 178080, Note_on_c, 0, 57, 32
3, 178086, Control_c, 0, 64, 0
3, 178165, Control_c, 0, 64, 127
3, 178200, Note_on_c, 0, 57, 0
3, 178200, Note_on_c, 0, 53, 0
3, 178200, Note_on_c, 0, 60, 28
3, 178320, Note_on_c, 0, 60, 0
3, 178320, Note_on_c, 0, 53, 26
3, 178320, Note_on_c, 0, 57, 32
3, 178440, Note_on_c, 0, 57, 0
3, 178440, Note_on_c, 0, 53, 0
3, 178440, Note_on_c, 0, 60, 30
3, 178560, Note_on_c, 0, 60, 0
3, 178560, Note_on_c, 0, 61, 37
3, 178560, Control_c, 0, 64, 0
3, 178560, Note_on_c, 0, 65, 44
3, 178800, Note_on_c, 0, 65, 0
3, 178800, Note_on_c, 0, 66, 40
3, 179040, Note_on_c, 0, 66, 0
3, 179040, Note_on_c, 0, 65, 40
3, 179280, Note_on_c, 0, 65, 0
3, 179280, Note_on_c, 0, 61, 0
3, 179280, Note_on_c, 0, 54, 37
3, 179280, Note_on_c, 0, 63, 44
3, 179520, Note_on_c, 0, 63, 0
3, 179520, Note_on_c, 0, 58, 42
3, 179760, Note_on_c, 0, 58, 0
3, 179760, Note_on_c, 0, 60, 44
3, 179940, Note_on_c, 0, 63, 41
3, 180000, Note_on_c, 0, 63, 0
3, 180000, Note_on_c, 0, 60, 0
3, 180000, Note_on_c, 0, 54, 0
3, 180000, Note_on_c, 0, 56, 37
3, 180000, Note_on_c, 0, 61, 44
3, 180240, Note_on_c, 0, 61, 0
3, 180240, Note_on_c, 0, 60, 38
3, 180480, Note_on_c, 0, 60, 0
3, 180480, Note_on_c, 0, 61, 35
3, 180720, Note_on_c, 0, 61, 0
3, 180720, Note_on_c, 0, 63, 37
3, 181200, Note_on_c, 0, 63, 0
3, 181200, Note_on_c, 0, 64, 34
3, 181440, Note_on_c, 0, 64, 0
3, 181440, Note_on_c, 0, 56, 0
3, 181440, Note_on_c, 0, 61, 29
3, 181440, Note_on_c, 0, 65, 34
3, 181500, Note_on_c, 0, 65, 0
3, 181500, Note_on_c, 0, 61, 0
3, 181680, Note_on_c, 0, 49, 28
3, 181740, Note_on_c, 0, 49, 0
3, 181920, Note_on_c, 0, 49, 28
3, 181980, Note_on_c, 0, 49, 0
3, 182160, Note_on_c, 0, 61, 26
3, 182163, Note_on_c, 0, 65, 32
3, 182220, Note_on_c, 0, 61, 0
3, 182223, Note_on_c, 0, 65, 0
3, 182400, Note_on_c, 0, 49, 28
3, 182460, Note_on_c, 0, 49, 0
3, 182640, Note_on_c, 0, 49, 28
3, 182700, Note_on_c, 0, 49, 0
3, 182880, Note_on_c, 0, 61, 28
3, 182880, Note_on_c, 0, 65, 33
3, 182940, Note_on_c, 0, 65, 0
3, 182940, Note_on_c, 0, 61, 0
3, 183120, Note_on_c, 0, 49, 28
3, 183180, Note_on_c, 0, 49, 0
3, 183360, Note_on_c, 0, 49, 28
3, 183420, Note_on_c, 0, 49, 0
3, 183600, Note_on_c, 0, 61, 28
3, 183600, Note_on_c, 0, 66, 34
3, 183660, Note_on_c, 0, 66, 0
3, 183660, Note_on_c, 0, 61, 0
3, 183840, Note_on_c, 0, 49, 28
3, 183900, Note_on_c, 0, 49, 0
3, 184080, Note_on_c, 0, 49, 28
3, 184140, Note_on_c, 0, 49, 0
3, 184320, Note_on_c, 0, 61, 28
3, 184320, Note_on_c, 0, 65, 33
3, 184380, Note_on_c, 0, 65, 0
3, 184380, Note_on_c, 0, 61, 0
3, 184560, Note_on_c, 0, 49, 28
3, 184620, Note_on_c, 0, 49, 0
3, 184800, Note_on_c, 0, 49, 33
3, 184860, Note_on_c, 0, 49, 0
3, 185040, Note_on_c, 0, 61, 31
3, 185040, Note_on_c, 0, 66, 38
3, 185100, Note_on_c, 0, 66, 0
3, 185100, Note_on_c, 0, 61, 0
3, 185280, Note_on_c, 0, 49, 28
3, 185340, Note_on_c, 0, 49, 0
3, 185520, Note_on_c, 0, 49, 28
3, 185580, Note_on_c, 0, 49, 0
3, 185760, Note_on_c, 0, 58, 28
3, 185760, Note_on_c, 0, 61, 28
3, 185760, Note_on_c, 0, 66, 33
3, 185820, Note_on_c, 0, 66, 0
3, 185820, Note_on_c, 0, 61, 0
3, 185820, Note_on_c, 0, 58, 0
3, 186000, Note_on_c, 0, 49, 25
3, 186060, Note_on_c, 0, 49, 0
3, 186240, Note_on_c, 0, 49, 25
3, 186300, Note_on_c, 0, 49, 0
3, 186480, Note_on_c, 0, 58, 25
3, 186480, Note_on_c, 0, 61, 25
3, 186480, Note_on_c, 0, 66, 30
3, 186540, Note_on_c, 0, 66, 0
3, 186540, Note_on_c, 0, 61, 0
3, 186540, Note_on_c, 0, 58, 0
3, 186720, Note_on_c, 0, 49, 25
3, 186780, Note_on_c, 0, 49, 0
3, 186960, Note_on_c, 0, 49, 25
3, 187020, Note_on_c, 0, 49, 0
3, 187200, Control_c, 0, 64, 0
3, 187200, Note_on_c, 0, 56, 24
3, 187200, Note_on_c, 0, 61, 29
3, 187260, Note_on_c, 0, 61, 0
3, 187260, Note_on_c, 0, 56, 0
3, 187440, Note_on_c, 0, 49, 24
3, 187472, Control_c, 0, 64, 127
3, 187500, Note_on_c, 0, 49, 0
3, 187680, Note_on_c, 0, 49, 24
3, 187740, Note_on_c, 0, 49, 0
3, 187920, Control_c, 0, 64, 0
3, 187920, Note_on_c, 0, 54, 25
3, 187920, Note_on_c, 0, 58, 30
3, 187966, Control_c, 0, 64, 127
3, 187980, Note_on_c, 0, 58, 0
3, 187980, Note_on_c, 0, 54, 0
3, 188160, Note_on_c, 0, 42, 24
3, 188179, Control_c, 0, 64, 0
3, 188220, Note_on_c, 0, 42, 0
3, 188263, Control_c, 0, 64, 127
3, 188400, Note_on_c, 0, 42, 24
3, 188460, Note_on_c, 0, 42, 0
3, 188640, Control_c, 0, 64, 0
3, 188640, Note_on_c, 0, 63, 24
3, 188640, Note_on_c, 0, 66, 29
3, 188680, Control_c, 0, 64, 127
3, 188700, Note_on_c, 0, 66, 0
3, 188700, Note_on_c, 0, 63, 0
3, 188880, Note_on_c, 0, 56, 24
3, 188894, Control_c, 0, 64, 0
3, 188940, Note_on_c, 0, 56, 0
3, 188949, Control_c, 0, 64, 127
3, 189120, Note_on_c, 0, 56, 24
3, 189180, Note_on_c, 0, 56, 0
3, 189360, Control_c, 0, 64, 0
3, 189360, Note_on_c, 0, 65, 29
3, 189360, Note_on_c, 0, 61, 24
3, 189420, Note_on_c, 0, 61, 0
3, 189420, Note_on_c, 0, 65, 0
3, 189600, Note_on_c, 0, 49, 24
3, 189660, Note_on_c, 0, 49, 0
3, 189840, Note_on_c, 0, 49, 24
3, 189900, Note_on_c, 0, 49, 0
3, 190080, Note_on_c, 0, 61, 25
3, 190080, Note_on_c, 0, 65, 30
3, 190080, Control_c, 0, 64, 0
3, 190140, Note_on_c, 0, 65, 0
3, 190140, Note_on_c, 0, 61, 0
3, 190320, Note_on_c, 0, 49, 25
3, 190380, Note_on_c, 0, 49, 0
3, 190560, Note_on_c, 0, 49, 25
3, 190620, Note_on_c, 0, 49, 0
3, 190800, Note_on_c, 0, 61, 25
3, 190803, Note_on_c, 0, 65, 31
3, 190860, Note_on_c, 0, 61, 0
3, 190863, Note_on_c, 0, 65, 0
3, 191040, Note_on_c, 0, 49, 28
3, 191100, Note_on_c, 0, 49, 0
3, 191280, Note_on_c, 0, 49, 28
3, 191340, Note_on_c, 0, 49, 0
3, 191520, Note_on_c, 0, 61, 28
3, 191520, Note_on_c, 0, 65, 33
3, 191580, Note_on_c, 0, 65, 0
3, 191580, Note_on_c, 0, 61, 0
3, 191760, Note_on_c, 0, 49, 28
3, 191820, Note_on_c, 0, 49, 0
3, 192000, Note_on_c, 0, 49, 28
3, 192060, Note_on_c, 0, 49, 0
3, 192240, Note_on_c, 0, 61, 28
3, 192240, Note_on_c, 0, 66, 34
3, 192300, Note_on_c, 0, 66, 0
3, 192300, Note_on_c, 0, 61, 0
3, 192480, Note_on_c, 0, 49, 28
3, 192540, Note_on_c, 0, 49, 0
3, 192720, Note_on_c, 0, 49, 28
3, 192780, Note_on_c, 0, 49, 0
3, 192960, Note_on_c, 0, 61, 28
3, 192960, Note_on_c, 0, 65, 33
3, 193020, Note_on_c, 0, 65, 0
3, 193020, Note_on_c, 0, 61, 0
3, 193200, Note_on_c, 0, 49, 28
3, 193260, Note_on_c, 0, 49, 0
3, 193440, Note_on_c, 0, 49, 33
3, 193500, Note_on_c, 0, 49, 0
3, 193680, Note_on_c, 0, 61, 31
3, 193680, Note_on_c, 0, 66, 38
3, 193740, Note_on_c, 0, 66, 0
3, 193740, Note_on_c, 0, 61, 0
3, 193920, Note_on_c, 0, 49, 28
3, 193980, Note_on_c, 0, 49, 0
3, 194160, Note_on_c, 0, 49, 28
3, 194220, Note_on_c, 0, 49, 0
3, 194400, Note_on_c, 0, 57, 28
3, 194400, Note_on_c, 0, 61, 28
3, 194400, Note_on_c, 0, 66, 33
3, 194460, Note_on_c, 0, 66, 0
3, 194460, Note_on_c, 0, 61, 0
3, 194460, Note_on_c, 0, 57, 0
3, 194640, Note_on_c, 0, 54, 25
3, 194700, Note_on_c, 0, 54, 0
3, 194880, Note_on_c, 0, 54, 25
3, 194940, Note_on_c, 0, 54, 0
3, 195120, Note_on_c, 0, 57, 25
3, 195120, Note_on_c, 0, 61, 25
3, 195120, Note_on_c, 0, 66, 30
3, 195180, Note_on_c, 0, 66, 0
3, 195180, Note_on_c, 0, 61, 0
3, 195180, Note_on_c, 0, 57, 0
3, 195360, Note_on_c, 0, 54, 25
3, 195420, Note_on_c, 0, 54, 0
3, 195600, Note_on_c, 0, 54, 25
3, 195660, Note_on_c, 0, 54, 0
3, 195840, Note_on_c, 0, 66, 29
3, 195840, Control_c, 0, 64, 0
3, 195840, Note_on_c, 0, 57, 24
3, 195840, Note_on_c, 0, 61, 24
3, 195900, Note_on_c, 0, 61, 0
3, 195900, Note_on_c, 0, 57, 0
3, 195900, Note_on_c, 0, 66, 0
3, 196080, Note_on_c, 0, 54, 24
3, 196103, Control_c, 0, 64, 127
3, 196140, Note_on_c, 0, 54, 0
3, 196320, Note_on_c, 0, 54, 24
3, 196380, Note_on_c, 0, 54, 0
3, 196560, Control_c, 0, 64, 0
3, 196560, Note_on_c, 0, 62, 25
3, 196560, Note_on_c, 0, 66, 30
3, 196606, Control_c, 0, 64, 127
3, 196620, Note_on_c, 0, 66, 0
3, 196620, Note_on_c, 0, 62, 0
3, 196800, Note_on_c, 0, 50, 24
3, 196808, Control_c, 0, 64, 0
3, 196834, Control_c, 0, 64, 127
3, 196860, Note_on_c, 0, 50, 0
3, 197040, Note_on_c, 0, 50, 24
3, 197100, Note_on_c, 0, 50, 0
3, 197280, Control_c, 0, 64, 0
3, 197280, Note_on_c, 0, 62, 24
3, 197280, Note_on_c, 0, 64, 29
3, 197320, Control_c, 0, 64, 127
3, 197340, Note_on_c, 0, 64, 0
3, 197340, Note_on_c, 0, 62, 0
3, 197520, Note_on_c, 0, 52, 24
3, 197534, Control_c, 0, 64, 0
3, 197577, Control_c, 0, 64, 127
3, 197580, Note_on_c, 0, 52, 0
3, 197760, Note_on_c, 0, 52, 24
3, 197820, Note_on_c, 0, 52, 0
3, 198000, Control_c, 0, 64, 0
3, 198000, Note_on_c, 0, 64, 29
3, 198000, Note_on_c, 0, 61, 24
3, 198060, Note_on_c, 0, 61, 0
3, 198060, Note_on_c, 0, 64, 0
3, 198240, Note_on_c, 0, 57, 24
3, 198300, Note_on_c, 0, 57, 0
3, 198480, Note_on_c, 0, 57, 24
3, 198540, Note_on_c, 0, 57, 0
3, 198720, Note_on_c, 0, 61, 25
3, 198720, Note_on_c, 0, 64, 30
3, 198780, Note_on_c, 0, 64, 0
3, 198780, Note_on_c, 0, 61, 0
3, 198960, Note_on_c, 0, 57, 25
3, 199020, Note_on_c, 0, 57, 0
3, 199200, Note_on_c, 0, 57, 26
3, 199260, Note_on_c, 0, 57, 0
3, 199440, Note_on_c, 0, 64, 29
3, 199440, Control_c, 0, 64, 0
3, 199440, Note_on_c, 0, 61, 24
3, 199500, Note_on_c, 0, 61, 0
3, 199500, Note_on_c, 0, 64, 0
3, 199680, Note_on_c, 0, 57, 24
3, 199740, Note_on_c, 0, 57, 0
3, 199920, Note_on_c, 0, 57, 24
3, 199980, Note_on_c, 0, 57, 0
3, 200160, Control_c, 0, 64, 0
3, 200160, Note_on_c, 0, 61, 25
3, 200160, Note_on_c, 0, 64, 30
3, 200206, Control_c, 0, 64, 127
3, 200220, Note_on_c, 0, 64, 0
3, 200220, Note_on_c, 0, 61, 0
3, 200400, Note_on_c, 0, 58, 24
3, 200414, Control_c, 0, 64, 0
3, 200460, Note_on_c, 0, 58, 0
3, 200469, Control_c, 0, 64, 127
3, 200640, Note_on_c, 0, 58, 24
3, 200700, Note_on_c, 0, 58, 0
3, 200880, Control_c, 0, 64, 0
3, 200880, Note_on_c, 0, 62, 24
3, 200880, Note_on_c, 0, 64, 29
3, 200940, Note_on_c, 0, 64, 0
3, 200940, Note_on_c, 0, 62, 0
3, 201120, Note_on_c, 0, 59, 24
3, 201180, Note_on_c, 0, 59, 0
3, 201360, Note_on_c, 0, 59, 24
3, 201420, Note_on_c, 0, 59, 0
3, 201600, Note_on_c, 0, 64, 29
3, 201600, Note_on_c, 0, 62, 24
3, 201660, Note_on_c, 0, 62, 0
3, 201660, Note_on_c, 0, 64, 0
3, 201840, Note_on_c, 0, 59, 24
3, 201900, Note_on_c, 0, 59, 0
3, 202080, Note_on_c, 0, 59, 24
3, 202140, Note_on_c, 0, 59, 0
3, 202320, Note_on_c, 0, 62, 22
3, 202320, Note_on_c, 0, 64, 25
3, 202380, Note_on_c, 0, 64, 0
3, 202380, Note_on_c, 0, 62, 0
3, 202560, Note_on_c, 0, 59, 22
3, 202620, Note_on_c, 0, 59, 0
3, 202800, Note_on_c, 0, 59, 22
3, 202860, Note_on_c, 0, 59, 0
3, 203040, Note_on_c, 0, 64, 29
3, 203040, Control_c, 0, 64, 0
3, 203040, Note_on_c, 0, 62, 24
3, 203100, Note_on_c, 0, 62, 0
3, 203100, Note_on_c, 0, 64, 0
3, 203280, Note_on_c, 0, 59, 24
3, 203340, Note_on_c, 0, 59, 0
3, 203520, Note_on_c, 0, 59, 24
3, 203580, Note_on_c, 0, 59, 0
3, 203760, Control_c, 0, 64, 0
3, 203760, Note_on_c, 0, 62, 25
3, 203760, Note_on_c, 0, 65, 30
3, 203806, Control_c, 0, 64, 127
3, 203820, Note_on_c, 0, 65, 0
3, 203820, Note_on_c, 0, 62, 0
3, 204000, Note_on_c, 0, 59, 24
3, 204019, Control_c, 0, 64, 0
3, 204057, Control_c, 0, 64, 127
3, 204060, Note_on_c, 0, 59, 0
3, 204240, Note_on_c, 0, 59, 24
3, 204300, Note_on_c, 0, 59, 0
3, 204480, Control_c, 0, 64, 0
3, 204480, Note_on_c, 0, 62, 24
3, 204480, Note_on_c, 0, 65, 29
3, 204540, Note_on_c, 0, 65, 0
3, 204540, Note_on_c, 0, 62, 0
3, 204720, Note_on_c, 0, 59, 24
3, 204780, Note_on_c, 0, 59, 0
3, 204960, Note_on_c, 0, 59, 24
3, 205020, Note_on_c, 0, 59, 0
3, 205200, Note_on_c, 0, 65, 29
3, 205200, Note_on_c, 0, 62, 24
3, 205260, Note_on_c, 0, 62, 0
3, 205260, Note_on_c, 0, 65, 0
3, 205440, Note_on_c, 0, 59, 24
3, 205500, Note_on_c, 0, 59, 0
3, 205680, Note_on_c, 0, 59, 24
3, 205740, Note_on_c, 0, 59, 0
3, 205920, Note_on_c, 0, 59, 26
3, 205920, Note_on_c, 0, 62, 32
3, 205960, Control_c, 0, 64, 127
3, 206040, Note_on_c, 0, 62, 0
3, 206040, Note_on_c, 0, 59, 0
3, 206040, Note_on_c, 0, 65, 26
3, 206160, Note_on_c, 0, 65, 0
3, 206160, Note_on_c, 0, 62, 28
3, 206160, Note_on_c, 0, 59, 22
3, 206169, Control_c, 0, 64, 0
3, 206223, Control_c, 0, 64, 127
3, 206280, Note_on_c, 0, 59, 0
3, 206280, Note_on_c, 0, 62, 0
3, 206280, Note_on_c, 0, 65, 26
3, 206400, Note_on_c, 0, 65, 0
3, 206400, Note_on_c, 0, 62, 28
3, 206400, Note_on_c, 0, 59, 22
3, 206406, Control_c, 0, 64, 0
3, 206446, Control_c, 0, 64, 127
3, 206520, Note_on_c, 0, 59, 0
3, 206520, Note_on_c, 0, 62, 0
3, 206520, Note_on_c, 0, 65, 26
3, 206640, Note_on_c, 0, 65, 0
3, 206640, Control_c, 0, 64, 0
3, 206640, Note_on_c, 0, 58, 26
3, 206640, Note_on_c, 0, 62, 32
3, 206680, Control_c, 0, 64, 127
3, 206760, Note_on_c, 0, 62, 0
3, 206760, Note_on_c, 0, 58, 0
3, 206760, Note_on_c, 0, 65, 26
3, 206880, Note_on_c, 0, 65, 0
3, 206880, Note_on_c, 0, 62, 28
3, 206880, Note_on_c, 0, 58, 22
3, 206886, Control_c, 0, 64, 0
3, 206944, Control_c, 0, 64, 127
3, 207000, Note_on_c, 0, 58, 0
3, 207000, Note_on_c, 0, 62, 0
3, 207000, Note_on_c, 0, 65, 26
3, 207120, Note_on_c, 0, 65, 0
3, 207120, Note_on_c, 0, 62, 28
3, 207120, Note_on_c, 0, 58, 22
3, 207129, Control_c, 0, 64, 0
3, 207184, Control_c, 0, 64, 127
3, 207240, Note_on_c, 0, 58, 0
3, 207240, Note_on_c, 0, 62, 0
3, 207240, Note_on_c, 0, 65, 26
3, 207360, Note_on_c, 0, 65, 0
3, 207360, Control_c, 0, 64, 0
3, 207360, Note_on_c, 0, 58, 31
3, 207360, Note_on_c, 0, 62, 38
3, 207431, Control_c, 0, 64, 127
3, 207480, Note_on_c, 0, 62, 0
3, 207480, Note_on_c, 0, 58, 0
3, 207480, Note_on_c, 0, 65, 25
3, 207600, Note_on_c, 0, 65, 0
3, 207600, Note_on_c, 0, 58, 24
3, 207600, Note_on_c, 0, 62, 29
3, 207619, Control_c, 0, 64, 0
3, 207671, Control_c, 0, 64, 127
3, 207720, Note_on_c, 0, 62, 0
3, 207720, Note_on_c, 0, 58, 0
3, 207720, Note_on_c, 0, 65, 24
3, 207840, Note_on_c, 0, 65, 0
3, 207840, Note_on_c, 0, 58, 24
3, 207840, Note_on_c, 0, 62, 29
3, 207847, Control_c, 0, 64, 0
3, 207875, Control_c, 0, 64, 127
3, 207960, Note_on_c, 0, 62, 0
3, 207960, Note_on_c, 0, 58, 0
3, 207960, Note_on_c, 0, 65, 25
3, 208080, Note_on_c, 0, 65, 0
3, 208080, Control_c, 0, 64, 0
3, 208080, Note_on_c, 0, 58, 29
3, 208080, Note_on_c, 0, 63, 34
3, 208129, Control_c, 0, 64, 127
3, 208200, Note_on_c, 0, 63, 0
3, 208200, Note_on_c, 0, 58, 0
3, 208200, Note_on_c, 0, 67, 26
3, 208320, Note_on_c, 0, 67, 0
3, 208320, Note_on_c, 0, 58, 25
3, 208320, Note_on_c, 0, 63, 30
3, 208334, Control_c, 0, 64, 0
3, 208419, Control_c, 0, 64, 127
3, 208440, Note_on_c, 0, 63, 0
3, 208440, Note_on_c, 0, 58, 0
3, 208440, Note_on_c, 0, 67, 25
3, 208560, Note_on_c, 0, 67, 0
3, 208560, Note_on_c, 0, 58, 25
3, 208560, Note_on_c, 0, 63, 30
3, 208680, Note_on_c, 0, 63, 0
3, 208680, Note_on_c, 0, 58, 0
3, 208680, Note_on_c, 0, 67, 25
3, 208800, Note_on_c, 0, 67, 0
3, 208800, Control_c, 0, 64, 0
3, 208800, Note_on_c, 0, 58, 35
3, 208800, Note_on_c, 0, 62, 43
3, 208849, Control_c, 0, 64, 127
3, 208920, Note_on_c, 0, 62, 0
3, 208920, Note_on_c, 0, 58, 0
3, 208920, Note_on_c, 0, 65, 28
3, 209040, Note_on_c, 0, 65, 0
3, 209040, Note_on_c, 0, 62, 31
3, 209040, Note_on_c, 0, 58, 25
3, 209043, Control_c, 0, 64, 0
3, 209089, Control_c, 0, 64, 127
3, 209160, Note_on_c, 0, 58, 0
3, 209160, Note_on_c, 0, 62, 0
3, 209160, Note_on_c, 0, 65, 26
3, 209280, Note_on_c, 0, 65, 0
3, 209280, Note_on_c, 0, 58, 26
3, 209280, Note_on_c, 0, 62, 32
3, 209400, Note_on_c, 0, 62, 0
3, 209400, Note_on_c, 0, 58, 0
3, 209400, Note_on_c, 0, 65, 26
3, 209520, Note_on_c, 0, 65, 0
3, 209520, Note_on_c, 0, 57, 32
3, 209520, Note_on_c, 0, 63, 39
3, 209548, Control_c, 0, 64, 0
3, 209640, Note_on_c, 0, 63, 0
3, 209640, Note_on_c, 0, 57, 0
3, 209640, Note_on_c, 0, 65, 28
3, 209760, Note_on_c, 0, 65, 0
3, 209760, Note_on_c, 0, 57, 26
3, 209760, Note_on_c, 0, 63, 32
3, 209880, Note_on_c, 0, 63, 0
3, 209880, Note_on_c, 0, 57, 0
3, 209880, Note_on_c, 0, 65, 29
3, 210000, Note_on_c, 0, 65, 0
3, 210000, Note_on_c, 0, 57, 28
3, 210000, Note_on_c, 0, 63, 33
3, 210120, Note_on_c, 0, 63, 0
3, 210120, Note_on_c, 0, 57, 0
3, 210120, Note_on_c, 0, 65, 28
3, 210240, Note_on_c, 0, 65, 0
3, 210240, Note_on_c, 0, 57, 35
3, 210240, Note_on_c, 0, 63, 42
3, 210309, Control_c, 0, 64, 127
3, 210360, Note_on_c, 0, 63, 0
3, 210360, Note_on_c, 0, 57, 0
3, 210360, Note_on_c, 0, 66, 29
3, 210480, Note_on_c, 0, 66, 0
3, 210480, Note_on_c, 0, 57, 28
3, 210480, Note_on_c, 0, 63, 34
3, 210600, Note_on_c, 0, 63, 0
3, 210600, Note_on_c, 0, 57, 0
3, 210600, Note_on_c, 0, 66, 29
3, 210720, Note_on_c, 0, 66, 0
3, 210720, Note_on_c, 0, 57, 28
3, 210720, Note_on_c, 0, 63, 34
3, 210727, Control_c, 0, 64, 0
3, 210840, Note_on_c, 0, 63, 0
3, 210840, Note_on_c, 0, 57, 0
3, 210840, Note_on_c, 0, 66, 30
3, 210960, Note_on_c, 0, 66, 0
3, 210960, Note_on_c, 0, 58, 34
3, 210960, Note_on_c, 0, 63, 40
3, 211080, Note_on_c, 0, 63, 0
3, 211080, Note_on_c, 0, 58, 0
3, 211080, Note_on_c, 0, 67, 30
3, 211087, Control_c, 0, 64, 127
3, 211200, Note_on_c, 0, 67, 0
3, 211200, Note_on_c, 0, 58, 29
3, 211200, Note_on_c, 0, 63, 34
3, 211320, Note_on_c, 0, 63, 0
3, 211320, Note_on_c, 0, 58, 0
3, 211320, Note_on_c, 0, 67, 30
3, 211440, Note_on_c, 0, 67, 0
3, 211440, Note_on_c, 0, 58, 29
3, 211440, Note_on_c, 0, 63, 34
3, 211444, Control_c, 0, 64, 0
3, 211560, Note_on_c, 0, 63, 0
3, 211560, Note_on_c, 0, 58, 0
3, 211560, Note_on_c, 0, 67, 30
3, 211680, Note_on_c, 0, 67, 0
3, 211680, Note_on_c, 0, 60, 35
3, 211680, Note_on_c, 0, 63, 42
3, 211768, Control_c, 0, 64, 127
3, 211800, Note_on_c, 0, 63, 0
3, 211800, Note_on_c, 0, 60, 0
3, 211800, Note_on_c, 0, 67, 31
3, 211920, Note_on_c, 0, 67, 0
3, 211920, Note_on_c, 0, 60, 30
3, 211920, Note_on_c, 0, 63, 35
3, 212040, Note_on_c, 0, 63, 0
3, 212040, Note_on_c, 0, 60, 0
3, 212040, Note_on_c, 0, 67, 31
3, 212160, Note_on_c, 0, 67, 0
3, 212160, Note_on_c, 0, 60, 31
3, 212160, Note_on_c, 0, 63, 37
3, 212280, Note_on_c, 0, 63, 0
3, 212280, Note_on_c, 0, 60, 0
3, 212280, Note_on_c, 0, 67, 32
3, 212400, Note_on_c, 0, 67, 0
3, 212400, Control_c, 0, 64, 0
3, 212400, Note_on_c, 0, 55, 35
3, 212400, Note_on_c, 0, 62, 43
3, 212520, Note_on_c, 0, 62, 0
3, 212520, Note_on_c, 0, 55, 0
3, 212520, Note_on_c, 0, 67, 32
3, 212534, Control_c, 0, 64, 127
3, 212640, Note_on_c, 0, 67, 0
3, 212640, Note_on_c, 0, 55, 31
3, 212640, Note_on_c, 0, 62, 37
3, 212760, Note_on_c, 0, 62, 0
3, 212760, Note_on_c, 0, 55, 0
3, 212760, Note_on_c, 0, 67, 32
3, 212880, Note_on_c, 0, 67, 0
3, 212880, Note_on_c, 0, 55, 31
3, 212880, Note_on_c, 0, 62, 37
3, 213000, Note_on_c, 0, 62, 0
3, 213000, Note_on_c, 0, 55, 0
3, 213000, Note_on_c, 0, 67, 33
3, 213120, Note_on_c, 0, 67, 0
3, 213120, Control_c, 0, 64, 0
3, 213120, Note_on_c, 0, 63, 62
3, 213360, Note_on_c, 0, 63, 0
3, 213360, Note_on_c, 0, 62, 52
3, 213600, Note_on_c, 0, 62, 0
3, 213600, Note_on_c, 0, 63, 52
3, 213840, Note_on_c, 0, 63, 0
3, 213840, Note_on_c, 0, 60, 62
3, 214080, Note_on_c, 0, 60, 0
3, 214080, Note_on_c, 0, 62, 50
3, 214200, Note_on_c, 0, 62, 0
3, 214200, Note_on_c, 0, 63, 50
3, 214320, Note_on_c, 0, 63, 0
3, 214320, Note_on_c, 0, 65, 52
3, 214440, Note_on_c, 0, 65, 0
3, 214440, Note_on_c, 0, 67, 52
3, 214560, Note_on_c, 0, 67, 0
3, 214560, Note_on_c, 0, 63, 60
3, 214800, Note_on_c, 0, 63, 0
3, 214800, Note_on_c, 0, 65, 57
3, 214920, Note_on_c, 0, 65, 0
3, 214920, Note_on_c, 0, 63, 52
3, 215040, Note_on_c, 0, 63, 0
3, 215040, Note_on_c, 0, 62, 57
3, 215160, Note_on_c, 0, 62, 0
3, 215160, Note_on_c, 0, 60, 52
3, 215280, Note_on_c, 0, 60, 0
3, 215280, Note_on_c, 0, 58, 61
3, 215340, Note_on_c, 0, 58, 0
3, 215520, Note_on_c, 0, 58, 52
3, 215580, Note_on_c, 0, 58, 0
3, 215760, Note_on_c, 0, 58, 52
3, 215820, Note_on_c, 0, 58, 0
3, 216000, Note_on_c, 0, 59, 60
3, 216240, Note_on_c, 0, 59, 0
3, 216240, Note_on_c, 0, 71, 50
3, 216480, Note_on_c, 0, 71, 0
3, 216480, Note_on_c, 0, 71, 53
3, 216600, Note_on_c, 0, 71, 0
3, 216720, Note_on_c, 0, 72, 62
3, 216960, Note_on_c, 0, 72, 0
3, 216960, Note_on_c, 0, 60, 58
3, 217200, Note_on_c, 0, 60, 0
3, 217200, Note_on_c, 0, 60, 60
3, 217320, Note_on_c, 0, 60, 0
3, 217440, Note_on_c, 0, 65, 66
3, 217500, Note_on_c, 0, 65, 0
3, 217620, Note_on_c, 0, 55, 58
3, 217680, Note_on_c, 0, 53, 67
3, 217700, Note_on_c, 0, 55, 0
3, 217800, Note_on_c, 0, 52, 62
3, 217820, Note_on_c, 0, 53, 0
3, 217920, Note_on_c, 0, 53, 66
3, 217940, Note_on_c, 0, 52, 0
3, 218160, Note_on_c, 0, 53, 0
3, 218160, Note_on_c, 0, 58, 62
3, 218220, Note_on_c, 0, 58, 0
3, 218340, Note_on_c, 0, 48, 55
3, 218400, Note_on_c, 0, 46, 62
3, 218420, Note_on_c, 0, 48, 0
3, 218520, Note_on_c, 0, 45, 57
3, 218540, Note_on_c, 0, 46, 0
3, 218640, Note_on_c, 0, 46, 62
3, 218660, Note_on_c, 0, 45, 0
3, 218880, Note_on_c, 0, 46, 0
3, 218880, Note_on_c, 0, 41, 56
3, 218887, Control_c, 0, 64, 0
3, 218972, Control_c, 0, 64, 127
3, 219120, Note_on_c, 0, 41, 0
3, 219120, Note_on_c, 0, 43, 44
3, 219139, Control_c, 0, 64, 0
3, 219226, Control_c, 0, 64, 127
3, 219240, Note_on_c, 0, 43, 0
3, 219240, Note_on_c, 0, 45, 44
3, 219360, Note_on_c, 0, 45, 0
3, 219360, Note_on_c, 0, 46, 47
3, 219480, Note_on_c, 0, 46, 0
3, 219480, Note_on_c, 0, 48, 47
3, 219600, Note_on_c, 0, 48, 0
3, 219600, Control_c, 0, 64, 0
3, 219600, Note_on_c, 0, 46, 53
3, 219660, Note_on_c, 0, 46, 0
3, 219840, Note_on_c, 0, 46, 53
3, 219900, Note_on_c, 0, 46, 0
3, 220080, Note_on_c, 0, 46, 53
3, 220140, Note_on_c, 0, 46, 0
3, 220320, Note_on_c, 0, 53, 50
3, 220412, Control_c, 0, 64, 127
3, 220560, Note_on_c, 0, 53, 0
3, 220560, Note_on_c, 0, 55, 39
3, 220579, Control_c, 0, 64, 0
3, 220666, Control_c, 0, 64, 127
3, 220680, Note_on_c, 0, 55, 0
3, 220680, Note_on_c, 0, 57, 39
3, 220800, Note_on_c, 0, 57, 0
3, 220800, Note_on_c, 0, 58, 41
3, 220920, Note_on_c, 0, 58, 0
3, 220920, Note_on_c, 0, 60, 41
3, 221040, Note_on_c, 0, 60, 0
3, 221040, Control_c, 0, 64, 0
3, 221040, Note_on_c, 0, 58, 48
3, 221100, Note_on_c, 0, 58, 0
3, 221280, Note_on_c, 0, 58, 48
3, 221340, Note_on_c, 0, 58, 0
3, 221520, Note_on_c, 0, 58, 48
3, 221580, Note_on_c, 0, 58, 0
3, 221760, Note_on_c, 0, 65, 44
3, 221852, Control_c, 0, 64, 127
3, 222000, Note_on_c, 0, 65, 0
3, 222000, Note_on_c, 0, 67, 34
3, 222019, Control_c, 0, 64, 0
3, 222106, Control_c, 0, 64, 127
3, 222120, Note_on_c, 0, 67, 0
3, 222120, Note_on_c, 0, 69, 34
3, 222240, Note_on_c, 0, 69, 0
3, 222240, Note_on_c, 0, 70, 37
3, 222360, Note_on_c, 0, 70, 0
3, 222360, Note_on_c, 0, 72, 37
3, 222438, Control_c, 0, 64, 0
3, 222480, Note_on_c, 0, 72, 0
3, 222480, Note_on_c, 0, 70, 42
3, 222720, Note_on_c, 0, 70, 0
3, 223200, Note_on_c, 0, 65, 28
3, 223200, Note_on_c, 0, 70, 33
3, 223440, Note_on_c, 0, 70, 0
3, 223440, Note_on_c, 0, 65, 0
3, 223920, Note_on_c, 0, 62, 26
3, 223920, Note_on_c, 0, 65, 26
3, 223920, Note_on_c, 0, 70, 31
3, 224160, Note_on_c, 0, 70, 0
3, 224160, Note_on_c, 0, 65, 0
3, 224160, Note_on_c, 0, 62, 0
3, 224640, Note_on_c, 0, 58, 26
3, 224640, Note_on_c, 0, 65, 26
3, 224640, Note_on_c, 0, 70, 31
3, 225600, Note_on_c, 0, 70, 0
3, 225600, Note_on_c, 0, 65, 0
3, 225600, Note_on_c, 0, 58, 0
3, 225960, Control_c, 0, 64, 0
3, 225960, End_track
4, 0, Start_track
4, 0, Title_t, "Schubert Sonate D960  3. Satz"
4, 0, End_track
5, 0, Start_track
5, 0, Title_t, "Copyright © 2002 by Bernd Krüger"
5, 0, End_track
6, 0, Start_track
6, 0, Title_t, "http://www.piano-midi.de"
6, 0, End_track
7, 0, Start_track
7, 0, Title_t, "Edition: 2014-03-24"
7, 0, End_track
8, 0, Start_track
8, 0, Title_t, "Spur 7"
8, 0, End_track
9, 0, Start_track
9, 0, Title_t, "Spur 8"
9, 0, End_track
10, 0, Start_track
10, 0, Title_t, "Spur 9"
10, 0, End_track
0, 0, End_of_file
