0, 0, Header, 1, 8, 480
1, 0, Start_track
1, 0, Title_t, "Sechs Moments Musicaux Opus 94 D 780"
1, 0, Title_t, "Nr. 3 f-moll"
1, 0, Copyright_t, "Copyright © 1997 von Bernd Krüger."
1, 0, Text_t, "Schubert"
1, 0, Text_t, "Allegretto moderato"
1, 0, Text_t, "Fertiggestellt am 18.9.97\012"
1, 0, Text_t, "Korrekturen am 6.9.98\012"
1, 0, Text_t, "Update am 14.5.99\012"
1, 0, Text_t, "Update am 22.5.99\012"
1, 0, Text_t, "Update am 25.3.00 (Korrektur der Dauer)\012"
1, 0, Text_t, "Normierung: 23.12.2002\012"
1, 0, Text_t, "Update am  23.07.2007\012"
1, 0, Text_t, "Update am 16.3.2014\012"
1, 0, Text_t, "Dauer: 1:43 Minuten\012"
1, 0, Time_signature, 2, 2, 24, 8
1, 0, Key_signature, -4, "major"
1, 0, Tempo, 602047
1, 240, Tempo, 615322
1, 480, Tempo, 602047
1, 720, Tempo, 608581
1, 960, Tempo, 595593
1, 1200, Tempo, 605327
1, 1440, Tempo, 586166
1, 1680, Tempo, 595593
1, 1920, Tempo, 595593
1, 1920, Marker_t, "Part 1"
1, 2160, Tempo, 571157
1, 2400, Tempo, 589275
1, 2640, Tempo, 592417
1, 2880, Tempo, 636470
1, 3360, Tempo, 618748
1, 3840, Tempo, 589275
1, 4080, Tempo, 571157
1, 4320, Tempo, 589275
1, 4560, Tempo, 608581
1, 4800, Tempo, 643846
1, 6720, Tempo, 658979
1, 6960, Tempo, 723240
1, 7200, Tempo, 683293
1, 7680, Tempo, 580046
1, 8160, Tempo, 589275
1, 8240, Tempo, 592417
1, 8320, Tempo, 595593
1, 8380, Tempo, 598802
1, 8460, Tempo, 602047
1, 8540, Tempo, 605327
1, 8600, Tempo, 608581
1, 8620, Tempo, 592417
1, 8640, Tempo, 636470
1, 9120, Tempo, 658979
1, 9480, Tempo, 598802
1, 9600, Tempo, 595593
1, 9600, Marker_t, "Part 1 repeat"
1, 9840, Tempo, 571157
1, 10080, Tempo, 589275
1, 10320, Tempo, 608581
1, 10560, Tempo, 640137
1, 11040, Tempo, 618748
1, 11520, Tempo, 589275
1, 11760, Tempo, 571157
1, 12000, Tempo, 589275
1, 12240, Tempo, 608581
1, 12480, Tempo, 643846
1, 14400, Tempo, 696136
1, 14640, Tempo, 819001
1, 14880, Tempo, 768147
1, 15360, Tempo, 580046
1, 15840, Tempo, 589275
1, 15920, Tempo, 592417
1, 16000, Tempo, 595593
1, 16060, Tempo, 598802
1, 16140, Tempo, 602047
1, 16220, Tempo, 605327
1, 16280, Tempo, 608581
1, 16300, Tempo, 592417
1, 16320, Tempo, 674992
1, 17280, Tempo, 666889
1, 17280, Marker_t, "Part 2"
1, 18240, Tempo, 602047
1, 19140, Tempo, 611933
1, 19680, Tempo, 589275
1, 20040, Tempo, 625717
1, 20160, Tempo, 608581
1, 20640, Tempo, 595593
1, 21120, Tempo, 666889
1, 22080, Tempo, 608581
1, 23040, Tempo, 622213
1, 23520, Tempo, 636470
1, 23880, Tempo, 674992
1, 24000, Tempo, 679117
1, 24960, Tempo, 666889
1, 24960, Marker_t, "Part 2 repeat"
1, 25920, Tempo, 602047
1, 26820, Tempo, 611933
1, 27360, Tempo, 589275
1, 27720, Tempo, 625717
1, 27840, Tempo, 608581
1, 28320, Tempo, 595593
1, 28800, Tempo, 666889
1, 29760, Tempo, 608581
1, 30720, Tempo, 622213
1, 31200, Tempo, 636470
1, 31560, Tempo, 674992
1, 31680, Tempo, 679117
1, 32640, Marker_t, "Part 3"
1, 33600, Tempo, 618748
1, 33840, Tempo, 625717
1, 34080, Tempo, 643846
1, 34560, Tempo, 629261
1, 35040, Tempo, 611933
1, 36000, Tempo, 622213
1, 36120, Tempo, 674992
1, 36240, Tempo, 622213
1, 36480, Tempo, 709471
1, 36960, Tempo, 732780
1, 37440, Tempo, 647598
1, 37920, Tempo, 655165
1, 38880, Tempo, 615322
1, 39240, Tempo, 700525
1, 39360, Tempo, 629261
1, 40320, Tempo, 670916
1, 40320, Marker_t, "Part 3 repeat"
1, 41280, Tempo, 618748
1, 41520, Tempo, 625717
1, 41760, Tempo, 643846
1, 42240, Tempo, 629261
1, 42720, Tempo, 611933
1, 43680, Tempo, 622213
1, 43800, Tempo, 674992
1, 43920, Tempo, 622213
1, 44160, Tempo, 709471
1, 44640, Tempo, 732780
1, 45120, Tempo, 647598
1, 45600, Tempo, 655165
1, 46560, Tempo, 622213
1, 46920, Tempo, 700525
1, 47040, Tempo, 629261
1, 48000, Tempo, 662910
1, 48000, Marker_t, "Part 4"
1, 48240, Tempo, 636470
1, 48480, Tempo, 658979
1, 48960, Tempo, 666889
1, 49440, Tempo, 647598
1, 49920, Tempo, 640137
1, 50160, Tempo, 622213
1, 50400, Tempo, 643846
1, 50880, Tempo, 643846
1, 51840, Tempo, 670916
1, 52320, Tempo, 687521
1, 52800, Tempo, 737644
1, 53040, Tempo, 883913
1, 53280, Tempo, 807103
1, 53760, Tempo, 679117
1, 54240, Tempo, 629261
1, 54480, Tempo, 629261
1, 54520, Tempo, 632845
1, 54720, Tempo, 651324
1, 55200, Tempo, 679117
1, 55560, Tempo, 640137
1, 55680, Tempo, 640137
1, 56640, Tempo, 709471
1, 56880, Tempo, 679117
1, 57360, Tempo, 643846
1, 58080, Tempo, 679117
1, 58320, Tempo, 643846
1, 58560, Tempo, 662910
1, 59040, Tempo, 704970
1, 59520, Tempo, 747477
1, 60480, Tempo, 928218
1, 60720, Tempo, 870196
1, 61200, Tempo, 789889
1, 61440, Tempo, 837521
1, 61680, Tempo, 795545
1, 61920, Tempo, 709471
1, 62160, Tempo, 658979
1, 62400, Tempo, 670916
1, 62640, Tempo, 643846
1, 62880, Tempo, 666889
1, 63120, Tempo, 643846
1, 63600, Tempo, 605327
1, 63840, Tempo, 625717
1, 65280, Tempo, 602047
1, 65300, Tempo, 623118
1, 65520, Tempo, 600420
1, 65760, Tempo, 613121
1, 66000, Tempo, 626501
1, 66240, Tempo, 647668
1, 67200, Tempo, 643846
1, 67440, Tempo, 605327
1, 67680, Tempo, 626501
1, 67920, Tempo, 698731
1, 68160, Tempo, 662471
1, 68161, Tempo, 640137
1, 69120, Tempo, 691802
1, 69360, Tempo, 662910
1, 69600, Tempo, 704970
1, 69840, Tempo, 768147
1, 70080, Tempo, 687521
1, 71040, Tempo, 714031
1, 71280, Tempo, 679117
1, 71520, Tempo, 762873
1, 71760, Tempo, 831255
1, 72000, Tempo, 762873
1, 72960, Tempo, 778917
1, 73680, Tempo, 1050788
1, 73921, Tempo, 1112347
1, 74880, Tempo, 1132075
1, 74880, Marker_t, "Fine"
1, 74880, End_track
2, 0, Start_track
2, 0, Title_t, "Piano right"
2, 0, Program_c, 0, 0
2, 0, Control_c, 0, 7, 100
2, 0, Control_c, 0, 10, 64
2, 0, Control_c, 0, 91, 127
2, 0, Text_t, "bdca426d104a26ac9dcb070447587523"
2, 1860, Note_on_c, 0, 70, 48
2, 1920, Note_on_c, 0, 70, 0
2, 1920, Note_on_c, 0, 68, 56
2, 2040, Note_on_c, 0, 68, 0
2, 2160, Note_on_c, 0, 68, 50
2, 2280, Note_on_c, 0, 68, 0
2, 2280, Note_on_c, 0, 70, 50
2, 2400, Note_on_c, 0, 70, 0
2, 2400, Note_on_c, 0, 68, 55
2, 2520, Note_on_c, 0, 68, 0
2, 2640, Note_on_c, 0, 67, 52
2, 2760, Note_on_c, 0, 67, 0
2, 2760, Note_on_c, 0, 68, 48
2, 2820, Note_on_c, 0, 68, 0
2, 2820, Note_on_c, 0, 70, 48
2, 2880, Note_on_c, 0, 70, 0
2, 2880, Note_on_c, 0, 68, 51
2, 2880, Note_on_c, 0, 72, 57
2, 3240, Note_on_c, 0, 72, 0
2, 3240, Note_on_c, 0, 68, 0
2, 3240, Note_on_c, 0, 68, 48
2, 3300, Note_on_c, 0, 68, 0
2, 3300, Note_on_c, 0, 70, 48
2, 3360, Note_on_c, 0, 70, 0
2, 3360, Note_on_c, 0, 68, 50
2, 3360, Note_on_c, 0, 72, 56
2, 3780, Note_on_c, 0, 72, 0
2, 3780, Note_on_c, 0, 68, 0
2, 3780, Note_on_c, 0, 70, 48
2, 3840, Note_on_c, 0, 70, 0
2, 3840, Note_on_c, 0, 68, 56
2, 3960, Note_on_c, 0, 68, 0
2, 4080, Note_on_c, 0, 68, 51
2, 4200, Note_on_c, 0, 68, 0
2, 4200, Note_on_c, 0, 70, 51
2, 4320, Note_on_c, 0, 70, 0
2, 4320, Note_on_c, 0, 68, 55
2, 4440, Note_on_c, 0, 68, 0
2, 4560, Note_on_c, 0, 67, 45
2, 4560, Note_on_c, 0, 72, 51
2, 4680, Note_on_c, 0, 72, 0
2, 4680, Note_on_c, 0, 67, 0
2, 4740, Note_on_c, 0, 72, 48
2, 4800, Note_on_c, 0, 72, 0
2, 4800, Note_on_c, 0, 77, 60
2, 4800, Note_on_c, 0, 68, 54
2, 5220, Note_on_c, 0, 68, 0
2, 5220, Note_on_c, 0, 77, 0
2, 5220, Note_on_c, 0, 72, 48
2, 5280, Note_on_c, 0, 72, 0
2, 5280, Note_on_c, 0, 68, 52
2, 5280, Note_on_c, 0, 77, 58
2, 5700, Note_on_c, 0, 78, 43
2, 5760, Note_on_c, 0, 78, 0
2, 5760, Note_on_c, 0, 77, 0
2, 5760, Note_on_c, 0, 68, 0
2, 5760, Note_on_c, 0, 68, 52
2, 5760, Note_on_c, 0, 77, 52
2, 6000, Note_on_c, 0, 77, 0
2, 6000, Note_on_c, 0, 68, 0
2, 6000, Note_on_c, 0, 68, 40
2, 6000, Note_on_c, 0, 77, 45
2, 6120, Note_on_c, 0, 77, 0
2, 6120, Note_on_c, 0, 78, 45
2, 6240, Note_on_c, 0, 78, 0
2, 6240, Note_on_c, 0, 68, 0
2, 6240, Note_on_c, 0, 69, 43
2, 6240, Note_on_c, 0, 77, 48
2, 6480, Note_on_c, 0, 77, 0
2, 6480, Note_on_c, 0, 69, 0
2, 6480, Note_on_c, 0, 69, 40
2, 6480, Note_on_c, 0, 77, 45
2, 6720, Note_on_c, 0, 77, 0
2, 6720, Note_on_c, 0, 69, 0
2, 6720, Note_on_c, 0, 70, 43
2, 6720, Note_on_c, 0, 77, 48
2, 6960, Note_on_c, 0, 77, 0
2, 6960, Note_on_c, 0, 82, 43
2, 7080, Note_on_c, 0, 82, 0
2, 7080, Note_on_c, 0, 70, 0
2, 7200, Note_on_c, 0, 68, 37
2, 7200, Note_on_c, 0, 77, 42
2, 7680, Note_on_c, 0, 77, 0
2, 7680, Note_on_c, 0, 68, 0
2, 7680, Note_on_c, 0, 68, 37
2, 7680, Note_on_c, 0, 72, 42
2, 7800, Note_on_c, 0, 67, 35
2, 7800, Note_on_c, 0, 70, 39
2, 7812, Note_on_c, 0, 72, 0
2, 7812, Note_on_c, 0, 68, 0
2, 7920, Note_on_c, 0, 65, 35
2, 7920, Note_on_c, 0, 68, 39
2, 7932, Note_on_c, 0, 67, 0
2, 7932, Note_on_c, 0, 70, 0
2, 8040, Note_on_c, 0, 67, 35
2, 8040, Note_on_c, 0, 70, 39
2, 8052, Note_on_c, 0, 65, 0
2, 8052, Note_on_c, 0, 68, 0
2, 8160, Note_on_c, 0, 68, 37
2, 8160, Note_on_c, 0, 72, 42
2, 8172, Note_on_c, 0, 67, 0
2, 8172, Note_on_c, 0, 70, 0
2, 8280, Note_on_c, 0, 72, 0
2, 8280, Note_on_c, 0, 73, 39
2, 8400, Note_on_c, 0, 73, 0
2, 8400, Note_on_c, 0, 68, 0
2, 8400, Note_on_c, 0, 70, 39
2, 8400, Note_on_c, 0, 67, 35
2, 8400, Note_on_c, 0, 72, 39
2, 8520, Note_on_c, 0, 72, 0
2, 8520, Note_on_c, 0, 76, 39
2, 8640, Note_on_c, 0, 76, 0
2, 8640, Note_on_c, 0, 67, 0
2, 8640, Note_on_c, 0, 70, 0
2, 8640, Note_on_c, 0, 77, 43
2, 8640, Note_on_c, 0, 72, 38
2, 8640, Note_on_c, 0, 68, 38
2, 9120, Note_on_c, 0, 68, 0
2, 9120, Note_on_c, 0, 72, 0
2, 9120, Note_on_c, 0, 77, 0
2, 9120, Note_on_c, 0, 68, 38
2, 9120, Note_on_c, 0, 72, 38
2, 9120, Note_on_c, 0, 77, 43
2, 9520, Note_on_c, 0, 77, 0
2, 9520, Note_on_c, 0, 72, 0
2, 9520, Note_on_c, 0, 68, 0
2, 9540, Note_on_c, 0, 70, 48
2, 9600, Note_on_c, 0, 70, 0
2, 9600, Note_on_c, 0, 68, 56
2, 9720, Note_on_c, 0, 68, 0
2, 9840, Note_on_c, 0, 68, 50
2, 9960, Note_on_c, 0, 68, 0
2, 9960, Note_on_c, 0, 70, 50
2, 10080, Note_on_c, 0, 70, 0
2, 10080, Note_on_c, 0, 68, 55
2, 10200, Note_on_c, 0, 68, 0
2, 10320, Note_on_c, 0, 67, 52
2, 10440, Note_on_c, 0, 67, 0
2, 10440, Note_on_c, 0, 68, 48
2, 10500, Note_on_c, 0, 68, 0
2, 10500, Note_on_c, 0, 70, 48
2, 10560, Note_on_c, 0, 70, 0
2, 10560, Note_on_c, 0, 68, 51
2, 10560, Note_on_c, 0, 72, 57
2, 10920, Note_on_c, 0, 72, 0
2, 10920, Note_on_c, 0, 68, 0
2, 10920, Note_on_c, 0, 68, 48
2, 10980, Note_on_c, 0, 68, 0
2, 10980, Note_on_c, 0, 70, 48
2, 11040, Note_on_c, 0, 70, 0
2, 11040, Note_on_c, 0, 68, 51
2, 11040, Note_on_c, 0, 72, 57
2, 11460, Note_on_c, 0, 72, 0
2, 11460, Note_on_c, 0, 68, 0
2, 11460, Note_on_c, 0, 70, 48
2, 11520, Note_on_c, 0, 70, 0
2, 11520, Note_on_c, 0, 68, 56
2, 11640, Note_on_c, 0, 68, 0
2, 11760, Note_on_c, 0, 68, 51
2, 11880, Note_on_c, 0, 68, 0
2, 11880, Note_on_c, 0, 70, 51
2, 12000, Note_on_c, 0, 70, 0
2, 12000, Note_on_c, 0, 68, 55
2, 12120, Note_on_c, 0, 68, 0
2, 12240, Note_on_c, 0, 67, 45
2, 12240, Note_on_c, 0, 72, 51
2, 12360, Note_on_c, 0, 72, 0
2, 12360, Note_on_c, 0, 67, 0
2, 12420, Note_on_c, 0, 72, 48
2, 12480, Note_on_c, 0, 72, 0
2, 12480, Note_on_c, 0, 77, 60
2, 12480, Note_on_c, 0, 68, 54
2, 12900, Note_on_c, 0, 68, 0
2, 12900, Note_on_c, 0, 77, 0
2, 12900, Note_on_c, 0, 72, 48
2, 12960, Note_on_c, 0, 72, 0
2, 12960, Note_on_c, 0, 68, 52
2, 12960, Note_on_c, 0, 77, 58
2, 13380, Note_on_c, 0, 78, 43
2, 13440, Note_on_c, 0, 78, 0
2, 13440, Note_on_c, 0, 77, 0
2, 13440, Note_on_c, 0, 68, 0
2, 13440, Note_on_c, 0, 68, 46
2, 13440, Note_on_c, 0, 77, 52
2, 13680, Note_on_c, 0, 77, 0
2, 13680, Note_on_c, 0, 68, 0
2, 13680, Note_on_c, 0, 68, 40
2, 13680, Note_on_c, 0, 77, 45
2, 13800, Note_on_c, 0, 77, 0
2, 13800, Note_on_c, 0, 78, 45
2, 13920, Note_on_c, 0, 78, 0
2, 13920, Note_on_c, 0, 68, 0
2, 13920, Note_on_c, 0, 69, 43
2, 13920, Note_on_c, 0, 77, 48
2, 14160, Note_on_c, 0, 77, 0
2, 14160, Note_on_c, 0, 69, 0
2, 14160, Note_on_c, 0, 69, 40
2, 14160, Note_on_c, 0, 77, 45
2, 14400, Note_on_c, 0, 77, 0
2, 14400, Note_on_c, 0, 69, 0
2, 14400, Note_on_c, 0, 70, 43
2, 14400, Note_on_c, 0, 77, 48
2, 14640, Note_on_c, 0, 77, 0
2, 14640, Note_on_c, 0, 82, 43
2, 14760, Note_on_c, 0, 82, 0
2, 14760, Note_on_c, 0, 70, 0
2, 14880, Note_on_c, 0, 68, 37
2, 14880, Note_on_c, 0, 77, 42
2, 15360, Note_on_c, 0, 77, 0
2, 15360, Note_on_c, 0, 68, 0
2, 15360, Note_on_c, 0, 68, 37
2, 15360, Note_on_c, 0, 72, 42
2, 15480, Note_on_c, 0, 67, 35
2, 15480, Note_on_c, 0, 70, 39
2, 15492, Note_on_c, 0, 72, 0
2, 15492, Note_on_c, 0, 68, 0
2, 15600, Note_on_c, 0, 65, 35
2, 15600, Note_on_c, 0, 68, 39
2, 15612, Note_on_c, 0, 67, 0
2, 15612, Note_on_c, 0, 70, 0
2, 15720, Note_on_c, 0, 67, 35
2, 15720, Note_on_c, 0, 70, 39
2, 15732, Note_on_c, 0, 65, 0
2, 15732, Note_on_c, 0, 68, 0
2, 15840, Note_on_c, 0, 68, 42
2, 15840, Note_on_c, 0, 72, 42
2, 15852, Note_on_c, 0, 67, 0
2, 15852, Note_on_c, 0, 70, 0
2, 15960, Note_on_c, 0, 72, 0
2, 15960, Note_on_c, 0, 73, 39
2, 16080, Note_on_c, 0, 73, 0
2, 16080, Note_on_c, 0, 68, 0
2, 16080, Note_on_c, 0, 70, 39
2, 16080, Note_on_c, 0, 67, 35
2, 16080, Note_on_c, 0, 72, 39
2, 16200, Note_on_c, 0, 72, 0
2, 16200, Note_on_c, 0, 76, 39
2, 16320, Note_on_c, 0, 76, 0
2, 16320, Note_on_c, 0, 67, 0
2, 16320, Note_on_c, 0, 70, 0
2, 16320, Note_on_c, 0, 77, 43
2, 16320, Note_on_c, 0, 72, 38
2, 16320, Note_on_c, 0, 68, 38
2, 16800, Note_on_c, 0, 68, 0
2, 16800, Note_on_c, 0, 72, 0
2, 16800, Note_on_c, 0, 77, 0
2, 16800, Note_on_c, 0, 68, 38
2, 16800, Note_on_c, 0, 72, 38
2, 16800, Note_on_c, 0, 77, 43
2, 17280, Note_on_c, 0, 77, 0
2, 17280, Note_on_c, 0, 72, 0
2, 17280, Note_on_c, 0, 68, 0
2, 17280, Note_on_c, 0, 72, 57
2, 17760, Note_on_c, 0, 72, 0
2, 17760, Note_on_c, 0, 72, 57
2, 18240, Note_on_c, 0, 72, 0
2, 18240, Note_on_c, 0, 72, 50
2, 18360, Note_on_c, 0, 73, 51
2, 18372, Note_on_c, 0, 72, 0
2, 18480, Note_on_c, 0, 75, 55
2, 18492, Note_on_c, 0, 73, 0
2, 18600, Note_on_c, 0, 73, 52
2, 18612, Note_on_c, 0, 75, 0
2, 18720, Note_on_c, 0, 73, 0
2, 18720, Note_on_c, 0, 73, 52
2, 19080, Note_on_c, 0, 73, 0
2, 19080, Note_on_c, 0, 72, 49
2, 19140, Note_on_c, 0, 72, 0
2, 19170, Note_on_c, 0, 72, 43
2, 19200, Note_on_c, 0, 72, 0
2, 19200, Note_on_c, 0, 70, 52
2, 19320, Note_on_c, 0, 70, 0
2, 19440, Note_on_c, 0, 70, 48
2, 19560, Note_on_c, 0, 70, 0
2, 19680, Note_on_c, 0, 72, 51
2, 19800, Note_on_c, 0, 72, 0
2, 19800, Note_on_c, 0, 70, 49
2, 19920, Note_on_c, 0, 70, 0
2, 19920, Note_on_c, 0, 68, 46
2, 20040, Note_on_c, 0, 68, 0
2, 20040, Note_on_c, 0, 70, 50
2, 20160, Note_on_c, 0, 70, 0
2, 20160, Note_on_c, 0, 70, 54
2, 20640, Note_on_c, 0, 70, 0
2, 20640, Note_on_c, 0, 72, 54
2, 21060, Note_on_c, 0, 72, 0
2, 21060, Note_on_c, 0, 75, 46
2, 21120, Note_on_c, 0, 75, 0
2, 21120, Note_on_c, 0, 80, 57
2, 21120, Note_on_c, 0, 72, 51
2, 21540, Note_on_c, 0, 72, 0
2, 21540, Note_on_c, 0, 80, 0
2, 21540, Note_on_c, 0, 75, 45
2, 21600, Note_on_c, 0, 75, 0
2, 21600, Note_on_c, 0, 72, 56
2, 21600, Note_on_c, 0, 80, 56
2, 22080, Note_on_c, 0, 80, 0
2, 22080, Note_on_c, 0, 72, 0
2, 22080, Note_on_c, 0, 75, 45
2, 22080, Note_on_c, 0, 79, 50
2, 22200, Note_on_c, 0, 73, 45
2, 22200, Note_on_c, 0, 77, 50
2, 22212, Note_on_c, 0, 79, 0
2, 22212, Note_on_c, 0, 75, 0
2, 22320, Note_on_c, 0, 72, 40
2, 22320, Note_on_c, 0, 76, 45
2, 22332, Note_on_c, 0, 73, 0
2, 22332, Note_on_c, 0, 77, 0
2, 22440, Note_on_c, 0, 73, 40
2, 22440, Note_on_c, 0, 77, 45
2, 22452, Note_on_c, 0, 72, 0
2, 22452, Note_on_c, 0, 76, 0
2, 22560, Note_on_c, 0, 73, 0
2, 22560, Note_on_c, 0, 77, 0
2, 22560, Note_on_c, 0, 73, 45
2, 22560, Note_on_c, 0, 77, 50
2, 23040, Note_on_c, 0, 77, 0
2, 23040, Note_on_c, 0, 73, 0
2, 23040, Note_on_c, 0, 67, 49
2, 23040, Note_on_c, 0, 73, 49
2, 23040, Note_on_c, 0, 77, 55
2, 23160, Note_on_c, 0, 77, 0
2, 23160, Note_on_c, 0, 75, 46
2, 23280, Note_on_c, 0, 75, 0
2, 23280, Note_on_c, 0, 73, 0
2, 23280, Note_on_c, 0, 67, 0
2, 23280, Note_on_c, 0, 75, 46
2, 23280, Note_on_c, 0, 73, 46
2, 23280, Note_on_c, 0, 67, 46
2, 23400, Note_on_c, 0, 67, 0
2, 23400, Note_on_c, 0, 68, 46
2, 23520, Note_on_c, 0, 68, 0
2, 23520, Note_on_c, 0, 70, 52
2, 23760, Note_on_c, 0, 70, 0
2, 23760, Note_on_c, 0, 73, 0
2, 23760, Note_on_c, 0, 75, 0
2, 23760, Note_on_c, 0, 68, 42
2, 23760, Note_on_c, 0, 73, 42
2, 23760, Note_on_c, 0, 75, 42
2, 23880, Note_on_c, 0, 68, 0
2, 23880, Note_on_c, 0, 67, 42
2, 24000, Note_on_c, 0, 67, 0
2, 24000, Note_on_c, 0, 75, 0
2, 24000, Note_on_c, 0, 73, 0
2, 24000, Note_on_c, 0, 68, 35
2, 24000, Note_on_c, 0, 72, 35
2, 24000, Note_on_c, 0, 75, 39
2, 24480, Note_on_c, 0, 75, 0
2, 24480, Note_on_c, 0, 72, 0
2, 24480, Note_on_c, 0, 68, 0
2, 24480, Note_on_c, 0, 75, 39
2, 24480, Note_on_c, 0, 72, 35
2, 24480, Note_on_c, 0, 68, 35
2, 24960, Note_on_c, 0, 68, 0
2, 24960, Note_on_c, 0, 72, 0
2, 24960, Note_on_c, 0, 75, 0
2, 24960, Note_on_c, 0, 72, 57
2, 25440, Note_on_c, 0, 72, 0
2, 25440, Note_on_c, 0, 72, 57
2, 25920, Note_on_c, 0, 72, 0
2, 25920, Note_on_c, 0, 72, 50
2, 26040, Note_on_c, 0, 73, 51
2, 26052, Note_on_c, 0, 72, 0
2, 26160, Note_on_c, 0, 75, 55
2, 26172, Note_on_c, 0, 73, 0
2, 26280, Note_on_c, 0, 73, 52
2, 26292, Note_on_c, 0, 75, 0
2, 26400, Note_on_c, 0, 73, 0
2, 26400, Note_on_c, 0, 73, 52
2, 26760, Note_on_c, 0, 73, 0
2, 26760, Note_on_c, 0, 72, 49
2, 26820, Note_on_c, 0, 72, 0
2, 26850, Note_on_c, 0, 72, 43
2, 26880, Note_on_c, 0, 72, 0
2, 26880, Note_on_c, 0, 70, 52
2, 27120, Note_on_c, 0, 70, 0
2, 27120, Note_on_c, 0, 70, 48
2, 27360, Note_on_c, 0, 70, 0
2, 27360, Note_on_c, 0, 72, 51
2, 27480, Note_on_c, 0, 72, 0
2, 27480, Note_on_c, 0, 70, 49
2, 27600, Note_on_c, 0, 70, 0
2, 27600, Note_on_c, 0, 68, 46
2, 27720, Note_on_c, 0, 68, 0
2, 27720, Note_on_c, 0, 70, 50
2, 27840, Note_on_c, 0, 70, 0
2, 27840, Note_on_c, 0, 70, 54
2, 28320, Note_on_c, 0, 70, 0
2, 28320, Note_on_c, 0, 72, 54
2, 28740, Note_on_c, 0, 72, 0
2, 28740, Note_on_c, 0, 75, 46
2, 28800, Note_on_c, 0, 75, 0
2, 28800, Note_on_c, 0, 80, 57
2, 28800, Note_on_c, 0, 72, 51
2, 29220, Note_on_c, 0, 72, 0
2, 29220, Note_on_c, 0, 80, 0
2, 29220, Note_on_c, 0, 75, 45
2, 29280, Note_on_c, 0, 75, 0
2, 29280, Note_on_c, 0, 72, 56
2, 29280, Note_on_c, 0, 80, 56
2, 29760, Note_on_c, 0, 80, 0
2, 29760, Note_on_c, 0, 72, 0
2, 29760, Note_on_c, 0, 75, 45
2, 29760, Note_on_c, 0, 79, 50
2, 29880, Note_on_c, 0, 73, 45
2, 29880, Note_on_c, 0, 77, 50
2, 29892, Note_on_c, 0, 79, 0
2, 29892, Note_on_c, 0, 75, 0
2, 30000, Note_on_c, 0, 72, 40
2, 30000, Note_on_c, 0, 76, 45
2, 30012, Note_on_c, 0, 73, 0
2, 30012, Note_on_c, 0, 77, 0
2, 30120, Note_on_c, 0, 73, 40
2, 30120, Note_on_c, 0, 77, 45
2, 30132, Note_on_c, 0, 72, 0
2, 30132, Note_on_c, 0, 76, 0
2, 30240, Note_on_c, 0, 73, 0
2, 30240, Note_on_c, 0, 77, 0
2, 30240, Note_on_c, 0, 73, 45
2, 30240, Note_on_c, 0, 77, 50
2, 30720, Note_on_c, 0, 77, 0
2, 30720, Note_on_c, 0, 73, 0
2, 30720, Note_on_c, 0, 67, 49
2, 30720, Note_on_c, 0, 73, 49
2, 30720, Note_on_c, 0, 77, 55
2, 30840, Note_on_c, 0, 77, 0
2, 30840, Note_on_c, 0, 75, 46
2, 30960, Note_on_c, 0, 75, 0
2, 30960, Note_on_c, 0, 73, 0
2, 30960, Note_on_c, 0, 67, 0
2, 30960, Note_on_c, 0, 75, 46
2, 30960, Note_on_c, 0, 73, 46
2, 30960, Note_on_c, 0, 67, 46
2, 31080, Note_on_c, 0, 67, 0
2, 31080, Note_on_c, 0, 68, 46
2, 31200, Note_on_c, 0, 68, 0
2, 31200, Note_on_c, 0, 70, 52
2, 31440, Note_on_c, 0, 70, 0
2, 31440, Note_on_c, 0, 73, 0
2, 31440, Note_on_c, 0, 75, 0
2, 31440, Note_on_c, 0, 68, 42
2, 31440, Note_on_c, 0, 73, 42
2, 31440, Note_on_c, 0, 75, 42
2, 31560, Note_on_c, 0, 68, 0
2, 31560, Note_on_c, 0, 67, 42
2, 31680, Note_on_c, 0, 67, 0
2, 31680, Note_on_c, 0, 75, 0
2, 31680, Note_on_c, 0, 73, 0
2, 31680, Note_on_c, 0, 68, 35
2, 31680, Note_on_c, 0, 72, 35
2, 31680, Note_on_c, 0, 75, 39
2, 32160, Note_on_c, 0, 75, 0
2, 32160, Note_on_c, 0, 72, 0
2, 32160, Note_on_c, 0, 68, 0
2, 32160, Note_on_c, 0, 75, 39
2, 32160, Note_on_c, 0, 72, 35
2, 32160, Note_on_c, 0, 68, 35
2, 32640, Note_on_c, 0, 68, 0
2, 32640, Note_on_c, 0, 72, 0
2, 32640, Note_on_c, 0, 75, 0
2, 32640, Note_on_c, 0, 76, 64
2, 32640, Note_on_c, 0, 72, 57
2, 32640, Note_on_c, 0, 70, 57
2, 32640, Note_on_c, 0, 67, 57
2, 33120, Note_on_c, 0, 67, 0
2, 33120, Note_on_c, 0, 76, 0
2, 33120, Note_on_c, 0, 72, 0
2, 33120, Note_on_c, 0, 70, 0
2, 33120, Note_on_c, 0, 76, 64
2, 33120, Note_on_c, 0, 72, 57
2, 33120, Note_on_c, 0, 70, 57
2, 33120, Note_on_c, 0, 67, 57
2, 33540, Note_on_c, 0, 67, 0
2, 33540, Note_on_c, 0, 76, 0
2, 33540, Note_on_c, 0, 72, 0
2, 33540, Note_on_c, 0, 70, 0
2, 33540, Note_on_c, 0, 77, 56
2, 33600, Note_on_c, 0, 77, 0
2, 33600, Note_on_c, 0, 68, 54
2, 33600, Note_on_c, 0, 72, 54
2, 33600, Note_on_c, 0, 80, 69
2, 33840, Note_on_c, 0, 80, 0
2, 33840, Note_on_c, 0, 72, 0
2, 33840, Note_on_c, 0, 68, 0
2, 33840, Note_on_c, 0, 68, 48
2, 33840, Note_on_c, 0, 72, 48
2, 33840, Note_on_c, 0, 80, 66
2, 33960, Note_on_c, 0, 80, 0
2, 33960, Note_on_c, 0, 79, 67
2, 34080, Note_on_c, 0, 79, 0
2, 34080, Note_on_c, 0, 77, 67
2, 34320, Note_on_c, 0, 77, 0
2, 34320, Note_on_c, 0, 75, 63
2, 34440, Note_on_c, 0, 75, 0
2, 34440, Note_on_c, 0, 73, 63
2, 34560, Note_on_c, 0, 73, 0
2, 34560, Note_on_c, 0, 72, 0
2, 34560, Note_on_c, 0, 68, 0
2, 34560, Note_on_c, 0, 67, 57
2, 34560, Note_on_c, 0, 70, 57
2, 34560, Note_on_c, 0, 72, 64
2, 35040, Note_on_c, 0, 72, 0
2, 35040, Note_on_c, 0, 70, 0
2, 35040, Note_on_c, 0, 67, 0
2, 35040, Note_on_c, 0, 67, 57
2, 35040, Note_on_c, 0, 70, 57
2, 35040, Note_on_c, 0, 72, 57
2, 35040, Note_on_c, 0, 76, 64
2, 35460, Note_on_c, 0, 76, 0
2, 35460, Note_on_c, 0, 67, 0
2, 35460, Note_on_c, 0, 70, 0
2, 35460, Note_on_c, 0, 72, 0
2, 35460, Note_on_c, 0, 77, 57
2, 35520, Note_on_c, 0, 77, 0
2, 35520, Note_on_c, 0, 68, 55
2, 35520, Note_on_c, 0, 72, 55
2, 35520, Note_on_c, 0, 80, 73
2, 35760, Note_on_c, 0, 80, 0
2, 35760, Note_on_c, 0, 72, 0
2, 35760, Note_on_c, 0, 68, 0
2, 35760, Note_on_c, 0, 68, 46
2, 35760, Note_on_c, 0, 72, 46
2, 35760, Note_on_c, 0, 80, 62
2, 35880, Note_on_c, 0, 80, 0
2, 35880, Note_on_c, 0, 79, 62
2, 36000, Note_on_c, 0, 79, 0
2, 36000, Note_on_c, 0, 77, 62
2, 36240, Note_on_c, 0, 77, 0
2, 36240, Note_on_c, 0, 75, 56
2, 36360, Note_on_c, 0, 75, 0
2, 36360, Note_on_c, 0, 73, 56
2, 36480, Note_on_c, 0, 73, 0
2, 36480, Note_on_c, 0, 72, 0
2, 36480, Note_on_c, 0, 68, 0
2, 36480, Note_on_c, 0, 68, 45
2, 36480, Note_on_c, 0, 72, 51
2, 36960, Note_on_c, 0, 72, 0
2, 36960, Note_on_c, 0, 68, 0
2, 36960, Note_on_c, 0, 66, 49
2, 36960, Note_on_c, 0, 72, 55
2, 37440, Note_on_c, 0, 72, 0
2, 37440, Note_on_c, 0, 66, 0
2, 37440, Note_on_c, 0, 72, 57
2, 37440, Note_on_c, 0, 65, 51
2, 37560, Note_on_c, 0, 73, 60
2, 37572, Note_on_c, 0, 72, 0
2, 37680, Note_on_c, 0, 75, 62
2, 37692, Note_on_c, 0, 73, 0
2, 37800, Note_on_c, 0, 73, 58
2, 37812, Note_on_c, 0, 75, 0
2, 37920, Note_on_c, 0, 73, 0
2, 37920, Note_on_c, 0, 65, 0
2, 37920, Note_on_c, 0, 65, 52
2, 37920, Note_on_c, 0, 73, 58
2, 38160, Note_on_c, 0, 73, 0
2, 38160, Note_on_c, 0, 65, 0
2, 38160, Note_on_c, 0, 63, 46
2, 38160, Note_on_c, 0, 72, 52
2, 38280, Note_on_c, 0, 72, 0
2, 38280, Note_on_c, 0, 63, 0
2, 38280, Note_on_c, 0, 61, 45
2, 38280, Note_on_c, 0, 70, 50
2, 38400, Note_on_c, 0, 70, 0
2, 38400, Note_on_c, 0, 61, 0
2, 38400, Note_on_c, 0, 60, 43
2, 38400, Note_on_c, 0, 68, 48
2, 38640, Note_on_c, 0, 68, 0
2, 38640, Note_on_c, 0, 60, 0
2, 38640, Note_on_c, 0, 60, 43
2, 38640, Note_on_c, 0, 68, 48
2, 38880, Note_on_c, 0, 68, 0
2, 38880, Note_on_c, 0, 60, 0
2, 38880, Note_on_c, 0, 60, 38
2, 38880, Note_on_c, 0, 68, 43
2, 39000, Note_on_c, 0, 61, 39
2, 39000, Note_on_c, 0, 70, 44
2, 39012, Note_on_c, 0, 68, 0
2, 39012, Note_on_c, 0, 60, 0
2, 39120, Note_on_c, 0, 63, 40
2, 39120, Note_on_c, 0, 72, 45
2, 39132, Note_on_c, 0, 61, 0
2, 39132, Note_on_c, 0, 70, 0
2, 39240, Note_on_c, 0, 61, 39
2, 39240, Note_on_c, 0, 70, 44
2, 39252, Note_on_c, 0, 63, 0
2, 39252, Note_on_c, 0, 72, 0
2, 39360, Note_on_c, 0, 60, 38
2, 39360, Note_on_c, 0, 68, 43
2, 39372, Note_on_c, 0, 61, 0
2, 39372, Note_on_c, 0, 70, 0
2, 39840, Note_on_c, 0, 60, 0
2, 39840, Note_on_c, 0, 68, 0
2, 39840, Note_on_c, 0, 60, 38
2, 39840, Note_on_c, 0, 68, 43
2, 40320, Note_on_c, 0, 68, 0
2, 40320, Note_on_c, 0, 60, 0
2, 40320, Note_on_c, 0, 76, 64
2, 40320, Note_on_c, 0, 72, 57
2, 40320, Note_on_c, 0, 70, 57
2, 40320, Note_on_c, 0, 67, 57
2, 40800, Note_on_c, 0, 67, 0
2, 40800, Note_on_c, 0, 76, 0
2, 40800, Note_on_c, 0, 72, 0
2, 40800, Note_on_c, 0, 70, 0
2, 40800, Note_on_c, 0, 76, 64
2, 40800, Note_on_c, 0, 72, 57
2, 40800, Note_on_c, 0, 70, 57
2, 40800, Note_on_c, 0, 67, 57
2, 41220, Note_on_c, 0, 67, 0
2, 41220, Note_on_c, 0, 76, 0
2, 41220, Note_on_c, 0, 72, 0
2, 41220, Note_on_c, 0, 70, 0
2, 41220, Note_on_c, 0, 77, 56
2, 41280, Note_on_c, 0, 77, 0
2, 41280, Note_on_c, 0, 68, 54
2, 41280, Note_on_c, 0, 72, 54
2, 41280, Note_on_c, 0, 80, 69
2, 41520, Note_on_c, 0, 80, 0
2, 41520, Note_on_c, 0, 72, 0
2, 41520, Note_on_c, 0, 68, 0
2, 41520, Note_on_c, 0, 68, 48
2, 41520, Note_on_c, 0, 72, 48
2, 41520, Note_on_c, 0, 80, 66
2, 41640, Note_on_c, 0, 80, 0
2, 41640, Note_on_c, 0, 79, 67
2, 41760, Note_on_c, 0, 79, 0
2, 41760, Note_on_c, 0, 77, 67
2, 42000, Note_on_c, 0, 77, 0
2, 42000, Note_on_c, 0, 75, 63
2, 42120, Note_on_c, 0, 75, 0
2, 42120, Note_on_c, 0, 73, 63
2, 42240, Note_on_c, 0, 73, 0
2, 42240, Note_on_c, 0, 72, 0
2, 42240, Note_on_c, 0, 68, 0
2, 42240, Note_on_c, 0, 67, 57
2, 42240, Note_on_c, 0, 70, 57
2, 42240, Note_on_c, 0, 72, 64
2, 42720, Note_on_c, 0, 72, 0
2, 42720, Note_on_c, 0, 70, 0
2, 42720, Note_on_c, 0, 67, 0
2, 42720, Note_on_c, 0, 67, 57
2, 42720, Note_on_c, 0, 70, 57
2, 42720, Note_on_c, 0, 72, 57
2, 42720, Note_on_c, 0, 76, 64
2, 43140, Note_on_c, 0, 76, 0
2, 43140, Note_on_c, 0, 67, 0
2, 43140, Note_on_c, 0, 70, 0
2, 43140, Note_on_c, 0, 72, 0
2, 43140, Note_on_c, 0, 77, 57
2, 43200, Note_on_c, 0, 77, 0
2, 43200, Note_on_c, 0, 68, 55
2, 43200, Note_on_c, 0, 72, 55
2, 43200, Note_on_c, 0, 80, 73
2, 43440, Note_on_c, 0, 80, 0
2, 43440, Note_on_c, 0, 72, 0
2, 43440, Note_on_c, 0, 68, 0
2, 43440, Note_on_c, 0, 68, 46
2, 43440, Note_on_c, 0, 72, 46
2, 43440, Note_on_c, 0, 80, 62
2, 43560, Note_on_c, 0, 80, 0
2, 43560, Note_on_c, 0, 79, 62
2, 43680, Note_on_c, 0, 79, 0
2, 43680, Note_on_c, 0, 77, 62
2, 43920, Note_on_c, 0, 77, 0
2, 43920, Note_on_c, 0, 75, 56
2, 44040, Note_on_c, 0, 75, 0
2, 44040, Note_on_c, 0, 73, 56
2, 44160, Note_on_c, 0, 73, 0
2, 44160, Note_on_c, 0, 72, 0
2, 44160, Note_on_c, 0, 68, 0
2, 44160, Note_on_c, 0, 68, 45
2, 44160, Note_on_c, 0, 72, 51
2, 44640, Note_on_c, 0, 72, 0
2, 44640, Note_on_c, 0, 68, 0
2, 44640, Note_on_c, 0, 66, 49
2, 44640, Note_on_c, 0, 72, 55
2, 45120, Note_on_c, 0, 72, 0
2, 45120, Note_on_c, 0, 66, 0
2, 45120, Note_on_c, 0, 72, 57
2, 45120, Note_on_c, 0, 65, 51
2, 45240, Note_on_c, 0, 73, 60
2, 45252, Note_on_c, 0, 72, 0
2, 45360, Note_on_c, 0, 75, 62
2, 45372, Note_on_c, 0, 73, 0
2, 45480, Note_on_c, 0, 73, 58
2, 45492, Note_on_c, 0, 75, 0
2, 45600, Note_on_c, 0, 73, 0
2, 45600, Note_on_c, 0, 65, 0
2, 45600, Note_on_c, 0, 65, 52
2, 45600, Note_on_c, 0, 73, 58
2, 45840, Note_on_c, 0, 73, 0
2, 45840, Note_on_c, 0, 65, 0
2, 45840, Note_on_c, 0, 63, 46
2, 45840, Note_on_c, 0, 72, 52
2, 45960, Note_on_c, 0, 61, 45
2, 45960, Note_on_c, 0, 70, 50
2, 45972, Note_on_c, 0, 72, 0
2, 45972, Note_on_c, 0, 63, 0
2, 46080, Note_on_c, 0, 60, 43
2, 46080, Note_on_c, 0, 68, 48
2, 46092, Note_on_c, 0, 61, 0
2, 46092, Note_on_c, 0, 70, 0
2, 46320, Note_on_c, 0, 60, 0
2, 46320, Note_on_c, 0, 68, 0
2, 46320, Note_on_c, 0, 60, 43
2, 46320, Note_on_c, 0, 68, 48
2, 46560, Note_on_c, 0, 68, 0
2, 46560, Note_on_c, 0, 60, 0
2, 46560, Note_on_c, 0, 60, 38
2, 46560, Note_on_c, 0, 68, 43
2, 46680, Note_on_c, 0, 61, 39
2, 46680, Note_on_c, 0, 70, 44
2, 46692, Note_on_c, 0, 68, 0
2, 46692, Note_on_c, 0, 60, 0
2, 46800, Note_on_c, 0, 63, 40
2, 46800, Note_on_c, 0, 72, 45
2, 46812, Note_on_c, 0, 61, 0
2, 46812, Note_on_c, 0, 70, 0
2, 46920, Note_on_c, 0, 61, 39
2, 46920, Note_on_c, 0, 70, 44
2, 46932, Note_on_c, 0, 63, 0
2, 46932, Note_on_c, 0, 72, 0
2, 47040, Note_on_c, 0, 60, 38
2, 47040, Note_on_c, 0, 68, 43
2, 47052, Note_on_c, 0, 61, 0
2, 47052, Note_on_c, 0, 70, 0
2, 47520, Note_on_c, 0, 60, 0
2, 47520, Note_on_c, 0, 68, 0
2, 47520, Note_on_c, 0, 60, 38
2, 47520, Note_on_c, 0, 68, 43
2, 47940, Note_on_c, 0, 68, 0
2, 47940, Note_on_c, 0, 60, 0
2, 47940, Note_on_c, 0, 70, 48
2, 48000, Note_on_c, 0, 70, 0
2, 48000, Note_on_c, 0, 68, 46
2, 48120, Note_on_c, 0, 68, 0
2, 48240, Note_on_c, 0, 68, 40
2, 48360, Note_on_c, 0, 68, 0
2, 48360, Note_on_c, 0, 70, 40
2, 48480, Note_on_c, 0, 70, 0
2, 48480, Note_on_c, 0, 68, 45
2, 48600, Note_on_c, 0, 68, 0
2, 48720, Note_on_c, 0, 67, 43
2, 48840, Note_on_c, 0, 67, 0
2, 48840, Note_on_c, 0, 68, 39
2, 48900, Note_on_c, 0, 68, 0
2, 48900, Note_on_c, 0, 70, 39
2, 48960, Note_on_c, 0, 70, 0
2, 48960, Note_on_c, 0, 68, 40
2, 48960, Note_on_c, 0, 72, 45
2, 49320, Note_on_c, 0, 72, 0
2, 49320, Note_on_c, 0, 68, 0
2, 49320, Note_on_c, 0, 68, 39
2, 49380, Note_on_c, 0, 68, 0
2, 49380, Note_on_c, 0, 70, 39
2, 49440, Note_on_c, 0, 70, 0
2, 49440, Note_on_c, 0, 68, 40
2, 49440, Note_on_c, 0, 72, 45
2, 49860, Note_on_c, 0, 72, 0
2, 49860, Note_on_c, 0, 68, 0
2, 49860, Note_on_c, 0, 70, 39
2, 49920, Note_on_c, 0, 70, 0
2, 49920, Note_on_c, 0, 68, 46
2, 50040, Note_on_c, 0, 68, 0
2, 50160, Note_on_c, 0, 68, 42
2, 50280, Note_on_c, 0, 68, 0
2, 50280, Note_on_c, 0, 70, 42
2, 50400, Note_on_c, 0, 70, 0
2, 50400, Note_on_c, 0, 68, 45
2, 50520, Note_on_c, 0, 68, 0
2, 50640, Note_on_c, 0, 67, 37
2, 50640, Note_on_c, 0, 72, 42
2, 50760, Note_on_c, 0, 72, 0
2, 50760, Note_on_c, 0, 67, 0
2, 50820, Note_on_c, 0, 72, 39
2, 50880, Note_on_c, 0, 72, 0
2, 50880, Note_on_c, 0, 77, 49
2, 50880, Note_on_c, 0, 68, 44
2, 51300, Note_on_c, 0, 68, 0
2, 51300, Note_on_c, 0, 77, 0
2, 51300, Note_on_c, 0, 72, 39
2, 51360, Note_on_c, 0, 72, 0
2, 51360, Note_on_c, 0, 68, 43
2, 51360, Note_on_c, 0, 77, 48
2, 51780, Note_on_c, 0, 78, 34
2, 51840, Note_on_c, 0, 78, 0
2, 51840, Note_on_c, 0, 77, 0
2, 51840, Note_on_c, 0, 68, 0
2, 51840, Note_on_c, 0, 68, 38
2, 51840, Note_on_c, 0, 77, 43
2, 52080, Note_on_c, 0, 77, 0
2, 52080, Note_on_c, 0, 68, 0
2, 52080, Note_on_c, 0, 68, 33
2, 52080, Note_on_c, 0, 77, 37
2, 52200, Note_on_c, 0, 77, 0
2, 52200, Note_on_c, 0, 78, 37
2, 52320, Note_on_c, 0, 78, 0
2, 52320, Note_on_c, 0, 68, 0
2, 52320, Note_on_c, 0, 69, 35
2, 52320, Note_on_c, 0, 77, 39
2, 52560, Note_on_c, 0, 77, 0
2, 52560, Note_on_c, 0, 69, 0
2, 52560, Note_on_c, 0, 69, 33
2, 52560, Note_on_c, 0, 77, 37
2, 52800, Note_on_c, 0, 77, 0
2, 52800, Note_on_c, 0, 69, 0
2, 52800, Note_on_c, 0, 70, 35
2, 52800, Note_on_c, 0, 77, 39
2, 53040, Note_on_c, 0, 77, 0
2, 53040, Note_on_c, 0, 82, 34
2, 53160, Note_on_c, 0, 82, 0
2, 53160, Note_on_c, 0, 70, 0
2, 53280, Note_on_c, 0, 68, 29
2, 53280, Note_on_c, 0, 77, 33
2, 53760, Note_on_c, 0, 77, 0
2, 53760, Note_on_c, 0, 68, 0
2, 53760, Note_on_c, 0, 68, 29
2, 53760, Note_on_c, 0, 72, 33
2, 53880, Note_on_c, 0, 67, 27
2, 53880, Note_on_c, 0, 70, 31
2, 53892, Note_on_c, 0, 72, 0
2, 53892, Note_on_c, 0, 68, 0
2, 54000, Note_on_c, 0, 65, 27
2, 54000, Note_on_c, 0, 68, 31
2, 54012, Note_on_c, 0, 67, 0
2, 54012, Note_on_c, 0, 70, 0
2, 54120, Note_on_c, 0, 67, 27
2, 54120, Note_on_c, 0, 70, 31
2, 54132, Note_on_c, 0, 65, 0
2, 54132, Note_on_c, 0, 68, 0
2, 54240, Note_on_c, 0, 67, 0
2, 54240, Note_on_c, 0, 70, 0
2, 54240, Note_on_c, 0, 68, 29
2, 54240, Note_on_c, 0, 72, 33
2, 54360, Note_on_c, 0, 72, 0
2, 54360, Note_on_c, 0, 73, 31
2, 54480, Note_on_c, 0, 73, 0
2, 54480, Note_on_c, 0, 68, 0
2, 54480, Note_on_c, 0, 70, 27
2, 54480, Note_on_c, 0, 67, 27
2, 54480, Note_on_c, 0, 72, 31
2, 54600, Note_on_c, 0, 72, 0
2, 54600, Note_on_c, 0, 76, 31
2, 54720, Note_on_c, 0, 76, 0
2, 54720, Note_on_c, 0, 67, 0
2, 54720, Note_on_c, 0, 70, 0
2, 54720, Note_on_c, 0, 77, 34
2, 54720, Note_on_c, 0, 72, 30
2, 54720, Note_on_c, 0, 68, 30
2, 55200, Note_on_c, 0, 68, 0
2, 55200, Note_on_c, 0, 72, 0
2, 55200, Note_on_c, 0, 77, 0
2, 55200, Note_on_c, 0, 68, 30
2, 55200, Note_on_c, 0, 72, 30
2, 55200, Note_on_c, 0, 77, 34
2, 55600, Note_on_c, 0, 77, 0
2, 55600, Note_on_c, 0, 72, 0
2, 55600, Note_on_c, 0, 68, 0
2, 55620, Note_on_c, 0, 80, 34
2, 55680, Note_on_c, 0, 80, 0
2, 55680, Note_on_c, 0, 76, 35
2, 55680, Note_on_c, 0, 79, 39
2, 55920, Note_on_c, 0, 79, 0
2, 55920, Note_on_c, 0, 76, 0
2, 55920, Note_on_c, 0, 76, 33
2, 55920, Note_on_c, 0, 79, 37
2, 56040, Note_on_c, 0, 79, 0
2, 56040, Note_on_c, 0, 80, 37
2, 56160, Note_on_c, 0, 80, 0
2, 56160, Note_on_c, 0, 79, 39
2, 56400, Note_on_c, 0, 79, 0
2, 56400, Note_on_c, 0, 76, 0
2, 56400, Note_on_c, 0, 79, 40
2, 56400, Note_on_c, 0, 76, 36
2, 56640, Note_on_c, 0, 76, 0
2, 56640, Note_on_c, 0, 79, 0
2, 56640, Note_on_c, 0, 77, 40
2, 56640, Note_on_c, 0, 82, 45
2, 56880, Note_on_c, 0, 82, 0
2, 56880, Note_on_c, 0, 80, 43
2, 57360, Note_on_c, 0, 80, 0
2, 57360, Note_on_c, 0, 77, 0
2, 57360, Note_on_c, 0, 79, 39
2, 57480, Note_on_c, 0, 79, 0
2, 57480, Note_on_c, 0, 77, 39
2, 57540, Note_on_c, 0, 77, 0
2, 57540, Note_on_c, 0, 73, 34
2, 57600, Note_on_c, 0, 73, 0
2, 57600, Note_on_c, 0, 68, 38
2, 57600, Note_on_c, 0, 72, 43
2, 57720, Note_on_c, 0, 72, 0
2, 57720, Note_on_c, 0, 68, 0
2, 57840, Note_on_c, 0, 68, 35
2, 57840, Note_on_c, 0, 72, 39
2, 57960, Note_on_c, 0, 72, 0
2, 57960, Note_on_c, 0, 73, 39
2, 58080, Note_on_c, 0, 73, 0
2, 58080, Note_on_c, 0, 72, 39
2, 58320, Note_on_c, 0, 72, 0
2, 58320, Note_on_c, 0, 68, 0
2, 58320, Note_on_c, 0, 67, 32
2, 58320, Note_on_c, 0, 70, 32
2, 58320, Note_on_c, 0, 72, 32
2, 58320, Note_on_c, 0, 76, 36
2, 58440, Note_on_c, 0, 76, 0
2, 58440, Note_on_c, 0, 67, 0
2, 58440, Note_on_c, 0, 70, 0
2, 58440, Note_on_c, 0, 72, 0
2, 58560, Note_on_c, 0, 68, 37
2, 58560, Note_on_c, 0, 72, 37
2, 58560, Note_on_c, 0, 77, 42
2, 59040, Note_on_c, 0, 77, 0
2, 59040, Note_on_c, 0, 72, 0
2, 59040, Note_on_c, 0, 68, 0
2, 59040, Note_on_c, 0, 68, 37
2, 59040, Note_on_c, 0, 72, 37
2, 59040, Note_on_c, 0, 77, 42
2, 59460, Note_on_c, 0, 77, 0
2, 59460, Note_on_c, 0, 72, 0
2, 59460, Note_on_c, 0, 68, 0
2, 59460, Note_on_c, 0, 80, 30
2, 59520, Note_on_c, 0, 80, 0
2, 59520, Note_on_c, 0, 76, 30
2, 59520, Note_on_c, 0, 79, 34
2, 59760, Note_on_c, 0, 79, 0
2, 59760, Note_on_c, 0, 76, 0
2, 59760, Note_on_c, 0, 76, 28
2, 59760, Note_on_c, 0, 79, 32
2, 59880, Note_on_c, 0, 79, 0
2, 59880, Note_on_c, 0, 80, 32
2, 60000, Note_on_c, 0, 80, 0
2, 60000, Note_on_c, 0, 79, 34
2, 60240, Note_on_c, 0, 79, 0
2, 60240, Note_on_c, 0, 76, 0
2, 60240, Note_on_c, 0, 79, 36
2, 60240, Note_on_c, 0, 76, 32
2, 60480, Note_on_c, 0, 76, 0
2, 60480, Note_on_c, 0, 79, 0
2, 60480, Note_on_c, 0, 77, 34
2, 60480, Note_on_c, 0, 82, 38
2, 60720, Note_on_c, 0, 82, 0
2, 60720, Note_on_c, 0, 80, 36
2, 61200, Note_on_c, 0, 80, 0
2, 61200, Note_on_c, 0, 77, 0
2, 61200, Note_on_c, 0, 79, 34
2, 61320, Note_on_c, 0, 79, 0
2, 61320, Note_on_c, 0, 77, 34
2, 61380, Note_on_c, 0, 77, 0
2, 61380, Note_on_c, 0, 74, 31
2, 61440, Note_on_c, 0, 74, 0
2, 61440, Note_on_c, 0, 69, 34
2, 61440, Note_on_c, 0, 72, 38
2, 61560, Note_on_c, 0, 72, 0
2, 61560, Note_on_c, 0, 69, 0
2, 61680, Note_on_c, 0, 69, 30
2, 61680, Note_on_c, 0, 72, 34
2, 61800, Note_on_c, 0, 72, 0
2, 61800, Note_on_c, 0, 74, 34
2, 61920, Note_on_c, 0, 74, 0
2, 61920, Note_on_c, 0, 72, 34
2, 62160, Note_on_c, 0, 72, 0
2, 62160, Note_on_c, 0, 69, 0
2, 62160, Note_on_c, 0, 70, 30
2, 62160, Note_on_c, 0, 74, 34
2, 62340, Note_on_c, 0, 74, 0
2, 62340, Note_on_c, 0, 70, 0
2, 62340, Note_on_c, 0, 74, 31
2, 62400, Note_on_c, 0, 74, 0
2, 62400, Note_on_c, 0, 69, 34
2, 62400, Note_on_c, 0, 72, 38
2, 62520, Note_on_c, 0, 72, 0
2, 62520, Note_on_c, 0, 69, 0
2, 62640, Note_on_c, 0, 69, 30
2, 62640, Note_on_c, 0, 72, 34
2, 62760, Note_on_c, 0, 72, 0
2, 62760, Note_on_c, 0, 74, 34
2, 62880, Note_on_c, 0, 74, 0
2, 62880, Note_on_c, 0, 72, 34
2, 63120, Note_on_c, 0, 72, 0
2, 63120, Note_on_c, 0, 69, 0
2, 63120, Note_on_c, 0, 70, 30
2, 63120, Note_on_c, 0, 74, 34
2, 63300, Note_on_c, 0, 74, 0
2, 63300, Note_on_c, 0, 70, 0
2, 63300, Note_on_c, 0, 74, 31
2, 63360, Note_on_c, 0, 74, 0
2, 63360, Note_on_c, 0, 69, 34
2, 63360, Note_on_c, 0, 72, 38
2, 63480, Note_on_c, 0, 72, 0
2, 63480, Note_on_c, 0, 69, 0
2, 63600, Note_on_c, 0, 69, 30
2, 63600, Note_on_c, 0, 72, 34
2, 63720, Note_on_c, 0, 72, 0
2, 63720, Note_on_c, 0, 74, 34
2, 63840, Note_on_c, 0, 74, 0
2, 63840, Note_on_c, 0, 72, 34
2, 64080, Note_on_c, 0, 72, 0
2, 64080, Note_on_c, 0, 69, 0
2, 64080, Note_on_c, 0, 70, 34
2, 64080, Note_on_c, 0, 76, 38
2, 64320, Note_on_c, 0, 76, 0
2, 64320, Note_on_c, 0, 70, 0
2, 64320, Note_on_c, 0, 69, 37
2, 64320, Note_on_c, 0, 77, 42
2, 64800, Note_on_c, 0, 77, 0
2, 64800, Note_on_c, 0, 69, 0
2, 64800, Note_on_c, 0, 69, 37
2, 64800, Note_on_c, 0, 77, 42
2, 65220, Note_on_c, 0, 77, 0
2, 65220, Note_on_c, 0, 69, 0
2, 65220, Note_on_c, 0, 74, 38
2, 65280, Note_on_c, 0, 74, 0
2, 65280, Note_on_c, 0, 69, 37
2, 65280, Note_on_c, 0, 72, 42
2, 65520, Note_on_c, 0, 72, 0
2, 65520, Note_on_c, 0, 69, 0
2, 65520, Note_on_c, 0, 69, 35
2, 65520, Note_on_c, 0, 72, 39
2, 65640, Note_on_c, 0, 72, 0
2, 65640, Note_on_c, 0, 74, 39
2, 65760, Note_on_c, 0, 74, 0
2, 65760, Note_on_c, 0, 72, 42
2, 66000, Note_on_c, 0, 72, 0
2, 66000, Note_on_c, 0, 69, 0
2, 66000, Note_on_c, 0, 65, 32
2, 66000, Note_on_c, 0, 69, 36
2, 66240, Note_on_c, 0, 69, 0
2, 66240, Note_on_c, 0, 65, 0
2, 66240, Note_on_c, 0, 64, 35
2, 66240, Note_on_c, 0, 70, 39
2, 66720, Note_on_c, 0, 70, 0
2, 66720, Note_on_c, 0, 64, 0
2, 66720, Note_on_c, 0, 64, 35
2, 66720, Note_on_c, 0, 70, 39
2, 67140, Note_on_c, 0, 70, 0
2, 67140, Note_on_c, 0, 64, 0
2, 67140, Note_on_c, 0, 72, 37
2, 67200, Note_on_c, 0, 72, 0
2, 67200, Note_on_c, 0, 64, 37
2, 67200, Note_on_c, 0, 70, 42
2, 67440, Note_on_c, 0, 70, 0
2, 67440, Note_on_c, 0, 64, 0
2, 67440, Note_on_c, 0, 70, 38
2, 67440, Note_on_c, 0, 64, 34
2, 67560, Note_on_c, 0, 70, 0
2, 67560, Note_on_c, 0, 72, 39
2, 67680, Note_on_c, 0, 72, 0
2, 67680, Note_on_c, 0, 70, 42
2, 67920, Note_on_c, 0, 70, 0
2, 67920, Note_on_c, 0, 64, 0
2, 67920, Note_on_c, 0, 58, 33
2, 67920, Note_on_c, 0, 64, 37
2, 68160, Note_on_c, 0, 64, 0
2, 68160, Note_on_c, 0, 58, 0
2, 68160, Note_on_c, 0, 57, 27
2, 68160, Note_on_c, 0, 65, 31
2, 68640, Note_on_c, 0, 65, 0
2, 68640, Note_on_c, 0, 57, 0
2, 68640, Note_on_c, 0, 57, 27
2, 68640, Note_on_c, 0, 65, 31
2, 69060, Note_on_c, 0, 65, 0
2, 69060, Note_on_c, 0, 57, 0
2, 69060, Note_on_c, 0, 74, 30
2, 69120, Note_on_c, 0, 74, 0
2, 69120, Note_on_c, 0, 69, 29
2, 69120, Note_on_c, 0, 72, 33
2, 69360, Note_on_c, 0, 72, 0
2, 69360, Note_on_c, 0, 69, 0
2, 69360, Note_on_c, 0, 69, 27
2, 69360, Note_on_c, 0, 72, 31
2, 69480, Note_on_c, 0, 72, 0
2, 69480, Note_on_c, 0, 74, 31
2, 69600, Note_on_c, 0, 74, 0
2, 69600, Note_on_c, 0, 72, 33
2, 69840, Note_on_c, 0, 72, 0
2, 69840, Note_on_c, 0, 69, 0
2, 69840, Note_on_c, 0, 63, 25
2, 69840, Note_on_c, 0, 69, 28
2, 70080, Note_on_c, 0, 69, 0
2, 70080, Note_on_c, 0, 63, 0
2, 70080, Note_on_c, 0, 64, 27
2, 70080, Note_on_c, 0, 70, 31
2, 70560, Note_on_c, 0, 70, 0
2, 70560, Note_on_c, 0, 64, 0
2, 70560, Note_on_c, 0, 64, 27
2, 70560, Note_on_c, 0, 70, 31
2, 70980, Note_on_c, 0, 70, 0
2, 70980, Note_on_c, 0, 64, 0
2, 70980, Note_on_c, 0, 72, 28
2, 71040, Note_on_c, 0, 72, 0
2, 71040, Note_on_c, 0, 64, 29
2, 71040, Note_on_c, 0, 70, 33
2, 71280, Note_on_c, 0, 70, 0
2, 71280, Note_on_c, 0, 64, 0
2, 71280, Note_on_c, 0, 70, 30
2, 71280, Note_on_c, 0, 64, 27
2, 71400, Note_on_c, 0, 70, 0
2, 71400, Note_on_c, 0, 72, 31
2, 71520, Note_on_c, 0, 72, 0
2, 71520, Note_on_c, 0, 70, 33
2, 71760, Note_on_c, 0, 70, 0
2, 71760, Note_on_c, 0, 64, 0
2, 71760, Note_on_c, 0, 58, 23
2, 71760, Note_on_c, 0, 64, 26
2, 72000, Note_on_c, 0, 64, 0
2, 72000, Note_on_c, 0, 58, 0
2, 72000, Note_on_c, 0, 57, 21
2, 72000, Note_on_c, 0, 65, 24
2, 72480, Note_on_c, 0, 65, 0
2, 72480, Note_on_c, 0, 57, 0
2, 72480, Note_on_c, 0, 57, 18
2, 72480, Note_on_c, 0, 65, 21
2, 72960, Note_on_c, 0, 65, 0
2, 72960, Note_on_c, 0, 57, 0
2, 72960, Note_on_c, 0, 57, 18
2, 72960, Note_on_c, 0, 65, 21
2, 73440, Note_on_c, 0, 65, 0
2, 73440, Note_on_c, 0, 57, 0
2, 73440, Note_on_c, 0, 57, 17
2, 73440, Note_on_c, 0, 65, 19
2, 73920, Note_on_c, 0, 65, 0
2, 73920, Note_on_c, 0, 57, 0
2, 73920, Note_on_c, 0, 57, 16
2, 73920, Note_on_c, 0, 65, 18
2, 74880, Note_on_c, 0, 65, 0
2, 74880, Note_on_c, 0, 57, 0
2, 74880, End_track
3, 0, Start_track
3, 0, Title_t, "Piano left"
3, 0, Program_c, 0, 0
3, 0, Control_c, 0, 7, 100
3, 0, Control_c, 0, 10, 64
3, 0, Control_c, 0, 91, 127
3, 0, Note_on_c, 0, 53, 34
3, 0, Control_c, 0, 64, 0
3, 90, Note_on_c, 0, 53, 0
3, 240, Note_on_c, 0, 65, 27
3, 240, Note_on_c, 0, 60, 22
3, 330, Note_on_c, 0, 60, 0
3, 330, Note_on_c, 0, 65, 0
3, 480, Note_on_c, 0, 53, 34
3, 570, Note_on_c, 0, 53, 0
3, 720, Note_on_c, 0, 65, 27
3, 720, Note_on_c, 0, 60, 22
3, 810, Note_on_c, 0, 60, 0
3, 810, Note_on_c, 0, 65, 0
3, 960, Note_on_c, 0, 53, 34
3, 1050, Note_on_c, 0, 53, 0
3, 1200, Note_on_c, 0, 65, 27
3, 1200, Note_on_c, 0, 60, 22
3, 1290, Note_on_c, 0, 60, 0
3, 1290, Note_on_c, 0, 65, 0
3, 1440, Note_on_c, 0, 53, 34
3, 1530, Note_on_c, 0, 53, 0
3, 1680, Note_on_c, 0, 65, 25
3, 1680, Note_on_c, 0, 60, 20
3, 1770, Note_on_c, 0, 60, 0
3, 1770, Note_on_c, 0, 65, 0
3, 1920, Note_on_c, 0, 53, 34
3, 2010, Note_on_c, 0, 53, 0
3, 2160, Note_on_c, 0, 65, 27
3, 2160, Note_on_c, 0, 60, 23
3, 2250, Note_on_c, 0, 60, 0
3, 2250, Note_on_c, 0, 65, 0
3, 2400, Note_on_c, 0, 53, 34
3, 2490, Note_on_c, 0, 53, 0
3, 2640, Note_on_c, 0, 64, 27
3, 2640, Note_on_c, 0, 60, 22
3, 2730, Note_on_c, 0, 60, 0
3, 2730, Note_on_c, 0, 64, 0
3, 2880, Note_on_c, 0, 53, 37
3, 2970, Note_on_c, 0, 53, 0
3, 3120, Note_on_c, 0, 65, 27
3, 3120, Note_on_c, 0, 60, 23
3, 3210, Note_on_c, 0, 60, 0
3, 3210, Note_on_c, 0, 65, 0
3, 3360, Note_on_c, 0, 53, 37
3, 3450, Note_on_c, 0, 53, 0
3, 3600, Note_on_c, 0, 65, 28
3, 3600, Note_on_c, 0, 60, 24
3, 3690, Note_on_c, 0, 60, 0
3, 3690, Note_on_c, 0, 65, 0
3, 3840, Note_on_c, 0, 53, 34
3, 3930, Note_on_c, 0, 53, 0
3, 4080, Note_on_c, 0, 65, 28
3, 4080, Note_on_c, 0, 60, 24
3, 4170, Note_on_c, 0, 60, 0
3, 4170, Note_on_c, 0, 65, 0
3, 4320, Note_on_c, 0, 53, 34
3, 4410, Note_on_c, 0, 53, 0
3, 4560, Note_on_c, 0, 64, 28
3, 4560, Note_on_c, 0, 60, 24
3, 4650, Note_on_c, 0, 60, 0
3, 4650, Note_on_c, 0, 64, 0
3, 4800, Note_on_c, 0, 53, 38
3, 4890, Note_on_c, 0, 53, 0
3, 5040, Note_on_c, 0, 65, 29
3, 5040, Note_on_c, 0, 60, 25
3, 5130, Note_on_c, 0, 60, 0
3, 5130, Note_on_c, 0, 65, 0
3, 5280, Note_on_c, 0, 53, 38
3, 5370, Note_on_c, 0, 53, 0
3, 5520, Note_on_c, 0, 65, 29
3, 5520, Note_on_c, 0, 60, 25
3, 5610, Note_on_c, 0, 60, 0
3, 5610, Note_on_c, 0, 65, 0
3, 5760, Note_on_c, 0, 49, 32
3, 5880, Note_on_c, 0, 49, 0
3, 6000, Note_on_c, 0, 65, 27
3, 6000, Note_on_c, 0, 61, 22
3, 6120, Note_on_c, 0, 61, 0
3, 6120, Note_on_c, 0, 65, 0
3, 6240, Note_on_c, 0, 48, 32
3, 6360, Note_on_c, 0, 48, 0
3, 6480, Note_on_c, 0, 65, 27
3, 6480, Note_on_c, 0, 63, 22
3, 6480, Note_on_c, 0, 60, 22
3, 6600, Note_on_c, 0, 60, 0
3, 6600, Note_on_c, 0, 63, 0
3, 6600, Note_on_c, 0, 65, 0
3, 6720, Note_on_c, 0, 46, 32
3, 6777, Control_c, 0, 64, 127
3, 6960, Note_on_c, 0, 46, 0
3, 6960, Note_on_c, 0, 65, 25
3, 6960, Note_on_c, 0, 61, 20
3, 6960, Note_on_c, 0, 58, 20
3, 7080, Note_on_c, 0, 58, 0
3, 7080, Note_on_c, 0, 61, 0
3, 7080, Note_on_c, 0, 65, 0
3, 7200, Note_on_c, 0, 53, 30
3, 7210, Control_c, 0, 64, 0
3, 7306, Control_c, 0, 64, 127
3, 7440, Note_on_c, 0, 53, 0
3, 7440, Note_on_c, 0, 65, 25
3, 7440, Note_on_c, 0, 60, 20
3, 7680, Note_on_c, 0, 60, 0
3, 7680, Note_on_c, 0, 65, 0
3, 7680, Control_c, 0, 64, 0
3, 7680, Note_on_c, 0, 48, 30
3, 7770, Note_on_c, 0, 48, 0
3, 7920, Note_on_c, 0, 65, 27
3, 7920, Note_on_c, 0, 60, 22
3, 8010, Note_on_c, 0, 60, 0
3, 8010, Note_on_c, 0, 65, 0
3, 8160, Note_on_c, 0, 48, 29
3, 8250, Note_on_c, 0, 48, 0
3, 8400, Note_on_c, 0, 64, 25
3, 8400, Note_on_c, 0, 60, 20
3, 8490, Note_on_c, 0, 60, 0
3, 8490, Note_on_c, 0, 64, 0
3, 8640, Note_on_c, 0, 53, 32
3, 8721, Control_c, 0, 64, 127
3, 8760, Note_on_c, 0, 53, 0
3, 8880, Note_on_c, 0, 65, 27
3, 8880, Note_on_c, 0, 60, 22
3, 9000, Note_on_c, 0, 60, 0
3, 9000, Note_on_c, 0, 65, 0
3, 9120, Note_on_c, 0, 53, 29
3, 9240, Note_on_c, 0, 53, 0
3, 9360, Note_on_c, 0, 65, 27
3, 9360, Note_on_c, 0, 60, 23
3, 9480, Note_on_c, 0, 60, 0
3, 9480, Note_on_c, 0, 65, 0
3, 9600, Note_on_c, 0, 53, 34
3, 9604, Control_c, 0, 64, 0
3, 9690, Note_on_c, 0, 53, 0
3, 9840, Note_on_c, 0, 65, 27
3, 9840, Note_on_c, 0, 60, 23
3, 9930, Note_on_c, 0, 60, 0
3, 9930, Note_on_c, 0, 65, 0
3, 10080, Note_on_c, 0, 53, 34
3, 10170, Note_on_c, 0, 53, 0
3, 10320, Note_on_c, 0, 64, 27
3, 10320, Note_on_c, 0, 60, 22
3, 10410, Note_on_c, 0, 60, 0
3, 10410, Note_on_c, 0, 64, 0
3, 10560, Note_on_c, 0, 53, 36
3, 10650, Note_on_c, 0, 53, 0
3, 10800, Note_on_c, 0, 65, 29
3, 10800, Note_on_c, 0, 60, 25
3, 10890, Note_on_c, 0, 60, 0
3, 10890, Note_on_c, 0, 65, 0
3, 11040, Note_on_c, 0, 53, 32
3, 11130, Note_on_c, 0, 53, 0
3, 11280, Note_on_c, 0, 65, 28
3, 11280, Note_on_c, 0, 60, 24
3, 11370, Note_on_c, 0, 60, 0
3, 11370, Note_on_c, 0, 65, 0
3, 11520, Note_on_c, 0, 53, 34
3, 11610, Note_on_c, 0, 53, 0
3, 11760, Note_on_c, 0, 65, 28
3, 11760, Note_on_c, 0, 60, 24
3, 11850, Note_on_c, 0, 60, 0
3, 11850, Note_on_c, 0, 65, 0
3, 12000, Note_on_c, 0, 53, 32
3, 12090, Note_on_c, 0, 53, 0
3, 12240, Note_on_c, 0, 64, 28
3, 12240, Note_on_c, 0, 60, 24
3, 12330, Note_on_c, 0, 60, 0
3, 12330, Note_on_c, 0, 64, 0
3, 12480, Note_on_c, 0, 53, 38
3, 12570, Note_on_c, 0, 53, 0
3, 12720, Note_on_c, 0, 65, 29
3, 12720, Note_on_c, 0, 60, 25
3, 12810, Note_on_c, 0, 60, 0
3, 12810, Note_on_c, 0, 65, 0
3, 12960, Note_on_c, 0, 53, 38
3, 13050, Note_on_c, 0, 53, 0
3, 13200, Note_on_c, 0, 65, 29
3, 13200, Note_on_c, 0, 60, 25
3, 13290, Note_on_c, 0, 60, 0
3, 13290, Note_on_c, 0, 65, 0
3, 13440, Note_on_c, 0, 49, 32
3, 13560, Note_on_c, 0, 49, 0
3, 13680, Note_on_c, 0, 65, 27
3, 13680, Note_on_c, 0, 61, 22
3, 13800, Note_on_c, 0, 61, 0
3, 13800, Note_on_c, 0, 65, 0
3, 13920, Note_on_c, 0, 48, 32
3, 14040, Note_on_c, 0, 48, 0
3, 14160, Note_on_c, 0, 65, 27
3, 14160, Note_on_c, 0, 63, 22
3, 14160, Note_on_c, 0, 60, 22
3, 14280, Note_on_c, 0, 60, 0
3, 14280, Note_on_c, 0, 63, 0
3, 14280, Note_on_c, 0, 65, 0
3, 14400, Note_on_c, 0, 46, 32
3, 14450, Control_c, 0, 64, 127
3, 14640, Note_on_c, 0, 46, 0
3, 14640, Note_on_c, 0, 65, 25
3, 14640, Note_on_c, 0, 61, 20
3, 14640, Note_on_c, 0, 58, 20
3, 14760, Note_on_c, 0, 58, 0
3, 14760, Note_on_c, 0, 61, 0
3, 14760, Note_on_c, 0, 65, 0
3, 14880, Note_on_c, 0, 53, 29
3, 14886, Control_c, 0, 64, 0
3, 14972, Control_c, 0, 64, 127
3, 15120, Note_on_c, 0, 53, 0
3, 15120, Note_on_c, 0, 65, 25
3, 15120, Note_on_c, 0, 60, 20
3, 15360, Note_on_c, 0, 60, 0
3, 15360, Note_on_c, 0, 65, 0
3, 15360, Control_c, 0, 64, 0
3, 15360, Note_on_c, 0, 48, 30
3, 15450, Note_on_c, 0, 48, 0
3, 15600, Note_on_c, 0, 65, 27
3, 15600, Note_on_c, 0, 60, 22
3, 15690, Note_on_c, 0, 60, 0
3, 15690, Note_on_c, 0, 65, 0
3, 15840, Note_on_c, 0, 48, 29
3, 15930, Note_on_c, 0, 48, 0
3, 16080, Note_on_c, 0, 64, 25
3, 16080, Note_on_c, 0, 60, 20
3, 16170, Note_on_c, 0, 60, 0
3, 16170, Note_on_c, 0, 64, 0
3, 16320, Note_on_c, 0, 53, 32
3, 16391, Control_c, 0, 64, 127
3, 16440, Note_on_c, 0, 53, 0
3, 16560, Note_on_c, 0, 65, 27
3, 16560, Note_on_c, 0, 60, 22
3, 16680, Note_on_c, 0, 60, 0
3, 16680, Note_on_c, 0, 65, 0
3, 16800, Note_on_c, 0, 53, 29
3, 16920, Note_on_c, 0, 53, 0
3, 17040, Note_on_c, 0, 65, 27
3, 17040, Note_on_c, 0, 60, 23
3, 17160, Note_on_c, 0, 60, 0
3, 17160, Note_on_c, 0, 65, 0
3, 17280, Control_c, 0, 64, 0
3, 17280, Note_on_c, 0, 56, 30
3, 17400, Note_on_c, 0, 56, 0
3, 17520, Note_on_c, 0, 60, 23
3, 17520, Note_on_c, 0, 63, 23
3, 17520, Note_on_c, 0, 68, 27
3, 17640, Note_on_c, 0, 68, 0
3, 17640, Note_on_c, 0, 63, 0
3, 17640, Note_on_c, 0, 60, 0
3, 17760, Note_on_c, 0, 56, 29
3, 17880, Note_on_c, 0, 56, 0
3, 18000, Note_on_c, 0, 60, 23
3, 18000, Note_on_c, 0, 63, 23
3, 18000, Note_on_c, 0, 68, 27
3, 18120, Note_on_c, 0, 68, 0
3, 18120, Note_on_c, 0, 63, 0
3, 18120, Note_on_c, 0, 60, 0
3, 18240, Note_on_c, 0, 56, 32
3, 18360, Note_on_c, 0, 56, 0
3, 18480, Note_on_c, 0, 67, 27
3, 18480, Note_on_c, 0, 63, 23
3, 18480, Note_on_c, 0, 58, 23
3, 18600, Note_on_c, 0, 58, 0
3, 18600, Note_on_c, 0, 63, 0
3, 18600, Note_on_c, 0, 67, 0
3, 18720, Note_on_c, 0, 56, 28
3, 18840, Note_on_c, 0, 56, 0
3, 18960, Note_on_c, 0, 67, 27
3, 18960, Note_on_c, 0, 63, 22
3, 18960, Note_on_c, 0, 58, 22
3, 19080, Note_on_c, 0, 58, 0
3, 19080, Note_on_c, 0, 63, 0
3, 19080, Note_on_c, 0, 67, 0
3, 19200, Note_on_c, 0, 56, 29
3, 19320, Note_on_c, 0, 56, 0
3, 19440, Note_on_c, 0, 67, 27
3, 19440, Note_on_c, 0, 63, 22
3, 19440, Note_on_c, 0, 61, 22
3, 19560, Note_on_c, 0, 61, 0
3, 19560, Note_on_c, 0, 63, 0
3, 19560, Note_on_c, 0, 67, 0
3, 19680, Note_on_c, 0, 56, 29
3, 19800, Note_on_c, 0, 56, 0
3, 19920, Note_on_c, 0, 67, 27
3, 19920, Note_on_c, 0, 63, 22
3, 19920, Note_on_c, 0, 61, 22
3, 20040, Note_on_c, 0, 61, 0
3, 20040, Note_on_c, 0, 63, 0
3, 20040, Note_on_c, 0, 67, 0
3, 20160, Note_on_c, 0, 56, 32
3, 20280, Note_on_c, 0, 56, 0
3, 20400, Note_on_c, 0, 68, 27
3, 20400, Note_on_c, 0, 63, 23
3, 20400, Note_on_c, 0, 60, 23
3, 20520, Note_on_c, 0, 60, 0
3, 20520, Note_on_c, 0, 63, 0
3, 20520, Note_on_c, 0, 68, 0
3, 20640, Note_on_c, 0, 56, 29
3, 20760, Note_on_c, 0, 56, 0
3, 20880, Note_on_c, 0, 68, 27
3, 20880, Note_on_c, 0, 63, 23
3, 20880, Note_on_c, 0, 60, 23
3, 21000, Note_on_c, 0, 60, 0
3, 21000, Note_on_c, 0, 63, 0
3, 21000, Note_on_c, 0, 68, 0
3, 21120, Note_on_c, 0, 56, 34
3, 21152, Control_c, 0, 64, 127
3, 21360, Note_on_c, 0, 56, 0
3, 21360, Note_on_c, 0, 68, 28
3, 21360, Note_on_c, 0, 60, 24
3, 21360, Note_on_c, 0, 63, 24
3, 21600, Note_on_c, 0, 63, 0
3, 21600, Note_on_c, 0, 60, 0
3, 21600, Note_on_c, 0, 68, 0
3, 21600, Note_on_c, 0, 56, 32
3, 21603, Control_c, 0, 64, 0
3, 21657, Control_c, 0, 64, 127
3, 21840, Note_on_c, 0, 56, 0
3, 21840, Note_on_c, 0, 68, 29
3, 21840, Note_on_c, 0, 63, 25
3, 21840, Note_on_c, 0, 60, 25
3, 22080, Note_on_c, 0, 60, 0
3, 22080, Note_on_c, 0, 63, 0
3, 22080, Note_on_c, 0, 68, 0
3, 22080, Note_on_c, 0, 49, 29
3, 22095, Control_c, 0, 64, 0
3, 22170, Note_on_c, 0, 49, 0
3, 22320, Note_on_c, 0, 65, 27
3, 22320, Note_on_c, 0, 61, 23
3, 22410, Note_on_c, 0, 61, 0
3, 22410, Note_on_c, 0, 65, 0
3, 22560, Note_on_c, 0, 49, 30
3, 22650, Note_on_c, 0, 49, 0
3, 22800, Note_on_c, 0, 65, 27
3, 22800, Note_on_c, 0, 61, 23
3, 22890, Note_on_c, 0, 61, 0
3, 22890, Note_on_c, 0, 65, 0
3, 23040, Note_on_c, 0, 51, 29
3, 23130, Note_on_c, 0, 51, 0
3, 23280, Note_on_c, 0, 63, 27
3, 23280, Note_on_c, 0, 61, 22
3, 23280, Note_on_c, 0, 58, 22
3, 23370, Note_on_c, 0, 58, 0
3, 23370, Note_on_c, 0, 61, 0
3, 23370, Note_on_c, 0, 63, 0
3, 23520, Note_on_c, 0, 51, 29
3, 23610, Note_on_c, 0, 51, 0
3, 23760, Note_on_c, 0, 61, 22
3, 23760, Note_on_c, 0, 63, 27
3, 23760, Note_on_c, 0, 58, 22
3, 23850, Note_on_c, 0, 58, 0
3, 23850, Note_on_c, 0, 63, 0
3, 23850, Note_on_c, 0, 61, 0
3, 24000, Note_on_c, 0, 56, 29
3, 24071, Control_c, 0, 64, 127
3, 24240, Note_on_c, 0, 56, 0
3, 24240, Note_on_c, 0, 63, 25
3, 24240, Note_on_c, 0, 60, 20
3, 24480, Note_on_c, 0, 60, 0
3, 24480, Note_on_c, 0, 63, 0
3, 24480, Note_on_c, 0, 56, 28
3, 24487, Control_c, 0, 64, 0
3, 24664, Control_c, 0, 64, 127
3, 24720, Note_on_c, 0, 56, 0
3, 24720, Note_on_c, 0, 63, 25
3, 24720, Note_on_c, 0, 60, 20
3, 24960, Note_on_c, 0, 60, 0
3, 24960, Note_on_c, 0, 63, 0
3, 24960, Note_on_c, 0, 56, 30
3, 24988, Control_c, 0, 64, 0
3, 25080, Note_on_c, 0, 56, 0
3, 25200, Note_on_c, 0, 60, 23
3, 25200, Note_on_c, 0, 63, 23
3, 25200, Note_on_c, 0, 68, 27
3, 25320, Note_on_c, 0, 68, 0
3, 25320, Note_on_c, 0, 63, 0
3, 25320, Note_on_c, 0, 60, 0
3, 25440, Note_on_c, 0, 56, 29
3, 25560, Note_on_c, 0, 56, 0
3, 25680, Note_on_c, 0, 60, 23
3, 25680, Note_on_c, 0, 63, 23
3, 25680, Note_on_c, 0, 68, 27
3, 25800, Note_on_c, 0, 68, 0
3, 25800, Note_on_c, 0, 63, 0
3, 25800, Note_on_c, 0, 60, 0
3, 25920, Note_on_c, 0, 56, 32
3, 26040, Note_on_c, 0, 56, 0
3, 26160, Note_on_c, 0, 67, 27
3, 26160, Note_on_c, 0, 63, 23
3, 26160, Note_on_c, 0, 58, 23
3, 26280, Note_on_c, 0, 58, 0
3, 26280, Note_on_c, 0, 63, 0
3, 26280, Note_on_c, 0, 67, 0
3, 26400, Note_on_c, 0, 56, 28
3, 26520, Note_on_c, 0, 56, 0
3, 26640, Note_on_c, 0, 67, 27
3, 26640, Note_on_c, 0, 63, 22
3, 26640, Note_on_c, 0, 58, 22
3, 26760, Note_on_c, 0, 58, 0
3, 26760, Note_on_c, 0, 63, 0
3, 26760, Note_on_c, 0, 67, 0
3, 26880, Note_on_c, 0, 56, 29
3, 27000, Note_on_c, 0, 56, 0
3, 27120, Note_on_c, 0, 67, 27
3, 27120, Note_on_c, 0, 63, 22
3, 27120, Note_on_c, 0, 61, 22
3, 27240, Note_on_c, 0, 61, 0
3, 27240, Note_on_c, 0, 63, 0
3, 27240, Note_on_c, 0, 67, 0
3, 27360, Note_on_c, 0, 56, 29
3, 27480, Note_on_c, 0, 56, 0
3, 27600, Note_on_c, 0, 67, 27
3, 27600, Note_on_c, 0, 63, 22
3, 27600, Note_on_c, 0, 61, 22
3, 27720, Note_on_c, 0, 61, 0
3, 27720, Note_on_c, 0, 63, 0
3, 27720, Note_on_c, 0, 67, 0
3, 27840, Note_on_c, 0, 56, 32
3, 27960, Note_on_c, 0, 56, 0
3, 28080, Note_on_c, 0, 68, 27
3, 28080, Note_on_c, 0, 63, 23
3, 28080, Note_on_c, 0, 60, 23
3, 28200, Note_on_c, 0, 60, 0
3, 28200, Note_on_c, 0, 63, 0
3, 28200, Note_on_c, 0, 68, 0
3, 28320, Note_on_c, 0, 56, 29
3, 28440, Note_on_c, 0, 56, 0
3, 28560, Note_on_c, 0, 68, 27
3, 28560, Note_on_c, 0, 63, 23
3, 28560, Note_on_c, 0, 60, 23
3, 28680, Note_on_c, 0, 60, 0
3, 28680, Note_on_c, 0, 63, 0
3, 28680, Note_on_c, 0, 68, 0
3, 28800, Note_on_c, 0, 56, 34
3, 28807, Control_c, 0, 64, 127
3, 29040, Note_on_c, 0, 56, 0
3, 29040, Note_on_c, 0, 68, 28
3, 29040, Note_on_c, 0, 60, 24
3, 29040, Note_on_c, 0, 63, 24
3, 29280, Note_on_c, 0, 63, 0
3, 29280, Note_on_c, 0, 60, 0
3, 29280, Note_on_c, 0, 68, 0
3, 29280, Note_on_c, 0, 56, 32
3, 29286, Control_c, 0, 64, 0
3, 29323, Control_c, 0, 64, 127
3, 29520, Note_on_c, 0, 56, 0
3, 29520, Note_on_c, 0, 68, 29
3, 29520, Note_on_c, 0, 63, 25
3, 29520, Note_on_c, 0, 60, 25
3, 29760, Note_on_c, 0, 60, 0
3, 29760, Note_on_c, 0, 63, 0
3, 29760, Note_on_c, 0, 68, 0
3, 29760, Note_on_c, 0, 49, 29
3, 29774, Control_c, 0, 64, 0
3, 29850, Note_on_c, 0, 49, 0
3, 30000, Note_on_c, 0, 65, 27
3, 30000, Note_on_c, 0, 61, 23
3, 30090, Note_on_c, 0, 61, 0
3, 30090, Note_on_c, 0, 65, 0
3, 30240, Note_on_c, 0, 49, 30
3, 30330, Note_on_c, 0, 49, 0
3, 30480, Note_on_c, 0, 65, 27
3, 30480, Note_on_c, 0, 61, 23
3, 30570, Note_on_c, 0, 61, 0
3, 30570, Note_on_c, 0, 65, 0
3, 30720, Note_on_c, 0, 51, 29
3, 30810, Note_on_c, 0, 51, 0
3, 30960, Note_on_c, 0, 63, 27
3, 30960, Note_on_c, 0, 61, 22
3, 30960, Note_on_c, 0, 58, 22
3, 31050, Note_on_c, 0, 58, 0
3, 31050, Note_on_c, 0, 61, 0
3, 31050, Note_on_c, 0, 63, 0
3, 31200, Note_on_c, 0, 51, 29
3, 31290, Note_on_c, 0, 51, 0
3, 31440, Note_on_c, 0, 61, 22
3, 31440, Note_on_c, 0, 63, 27
3, 31440, Note_on_c, 0, 58, 22
3, 31530, Note_on_c, 0, 58, 0
3, 31530, Note_on_c, 0, 63, 0
3, 31530, Note_on_c, 0, 61, 0
3, 31680, Note_on_c, 0, 56, 29
3, 31779, Control_c, 0, 64, 127
3, 31920, Note_on_c, 0, 56, 0
3, 31920, Note_on_c, 0, 63, 25
3, 31920, Note_on_c, 0, 60, 20
3, 32160, Note_on_c, 0, 60, 0
3, 32160, Note_on_c, 0, 63, 0
3, 32160, Note_on_c, 0, 56, 28
3, 32173, Control_c, 0, 64, 0
3, 32330, Control_c, 0, 64, 127
3, 32400, Note_on_c, 0, 56, 0
3, 32400, Note_on_c, 0, 63, 25
3, 32400, Note_on_c, 0, 60, 20
3, 32640, Note_on_c, 0, 60, 0
3, 32640, Note_on_c, 0, 63, 0
3, 32640, Note_on_c, 0, 48, 51
3, 32669, Control_c, 0, 64, 0
3, 32760, Note_on_c, 0, 48, 0
3, 32880, Note_on_c, 0, 64, 45
3, 32880, Note_on_c, 0, 60, 38
3, 33000, Note_on_c, 0, 60, 0
3, 33000, Note_on_c, 0, 64, 0
3, 33120, Note_on_c, 0, 48, 51
3, 33240, Note_on_c, 0, 48, 0
3, 33360, Note_on_c, 0, 64, 45
3, 33360, Note_on_c, 0, 60, 38
3, 33480, Note_on_c, 0, 60, 0
3, 33480, Note_on_c, 0, 64, 0
3, 33600, Note_on_c, 0, 48, 46
3, 33720, Note_on_c, 0, 48, 0
3, 33840, Note_on_c, 0, 65, 37
3, 33840, Note_on_c, 0, 60, 31
3, 33960, Note_on_c, 0, 60, 0
3, 33960, Note_on_c, 0, 65, 0
3, 34080, Note_on_c, 0, 48, 46
3, 34200, Note_on_c, 0, 48, 0
3, 34320, Note_on_c, 0, 65, 37
3, 34320, Note_on_c, 0, 60, 31
3, 34440, Note_on_c, 0, 60, 0
3, 34440, Note_on_c, 0, 65, 0
3, 34560, Note_on_c, 0, 48, 52
3, 34680, Note_on_c, 0, 48, 0
3, 34800, Note_on_c, 0, 64, 48
3, 34800, Note_on_c, 0, 60, 40
3, 34920, Note_on_c, 0, 60, 0
3, 34920, Note_on_c, 0, 64, 0
3, 35040, Note_on_c, 0, 48, 52
3, 35160, Note_on_c, 0, 48, 0
3, 35280, Note_on_c, 0, 64, 48
3, 35280, Note_on_c, 0, 60, 40
3, 35400, Note_on_c, 0, 60, 0
3, 35400, Note_on_c, 0, 64, 0
3, 35520, Note_on_c, 0, 48, 45
3, 35640, Note_on_c, 0, 48, 0
3, 35760, Note_on_c, 0, 65, 38
3, 35760, Note_on_c, 0, 60, 32
3, 35880, Note_on_c, 0, 60, 0
3, 35880, Note_on_c, 0, 65, 0
3, 36000, Note_on_c, 0, 53, 45
3, 36120, Note_on_c, 0, 53, 0
3, 36240, Note_on_c, 0, 65, 38
3, 36240, Note_on_c, 0, 60, 32
3, 36360, Note_on_c, 0, 60, 0
3, 36360, Note_on_c, 0, 65, 0
3, 36480, Note_on_c, 0, 44, 46
3, 36600, Note_on_c, 0, 44, 0
3, 36720, Note_on_c, 0, 60, 40
3, 36720, Note_on_c, 0, 56, 34
3, 36840, Note_on_c, 0, 56, 0
3, 36840, Note_on_c, 0, 60, 0
3, 36960, Note_on_c, 0, 45, 45
3, 37080, Note_on_c, 0, 45, 0
3, 37200, Note_on_c, 0, 54, 33
3, 37200, Note_on_c, 0, 60, 39
3, 37320, Note_on_c, 0, 60, 0
3, 37320, Note_on_c, 0, 54, 0
3, 37440, Note_on_c, 0, 46, 38
3, 37560, Note_on_c, 0, 46, 0
3, 37680, Note_on_c, 0, 58, 33
3, 37680, Note_on_c, 0, 53, 27
3, 37800, Note_on_c, 0, 53, 0
3, 37800, Note_on_c, 0, 58, 0
3, 37920, Note_on_c, 0, 37, 38
3, 38040, Note_on_c, 0, 37, 0
3, 38160, Note_on_c, 0, 49, 27
3, 38160, Note_on_c, 0, 53, 33
3, 38280, Note_on_c, 0, 53, 0
3, 38280, Note_on_c, 0, 49, 0
3, 38400, Note_on_c, 0, 39, 29
3, 38520, Note_on_c, 0, 39, 0
3, 38640, Note_on_c, 0, 56, 25
3, 38640, Note_on_c, 0, 51, 20
3, 38760, Note_on_c, 0, 51, 0
3, 38760, Note_on_c, 0, 56, 0
3, 38880, Note_on_c, 0, 39, 29
3, 39000, Note_on_c, 0, 39, 0
3, 39120, Note_on_c, 0, 55, 25
3, 39120, Note_on_c, 0, 51, 20
3, 39240, Note_on_c, 0, 51, 0
3, 39240, Note_on_c, 0, 55, 0
3, 39360, Note_on_c, 0, 44, 27
3, 39431, Control_c, 0, 64, 127
3, 39600, Note_on_c, 0, 44, 0
3, 39600, Note_on_c, 0, 56, 21
3, 39600, Note_on_c, 0, 51, 18
3, 39840, Note_on_c, 0, 51, 0
3, 39840, Note_on_c, 0, 56, 0
3, 39840, Note_on_c, 0, 44, 27
3, 39845, Control_c, 0, 64, 0
3, 39981, Control_c, 0, 64, 127
3, 40080, Note_on_c, 0, 44, 0
3, 40080, Note_on_c, 0, 56, 21
3, 40080, Note_on_c, 0, 51, 18
3, 40320, Note_on_c, 0, 51, 0
3, 40320, Note_on_c, 0, 56, 0
3, 40320, Control_c, 0, 64, 0
3, 40320, Note_on_c, 0, 48, 51
3, 40440, Note_on_c, 0, 48, 0
3, 40560, Note_on_c, 0, 64, 45
3, 40560, Note_on_c, 0, 60, 38
3, 40680, Note_on_c, 0, 60, 0
3, 40680, Note_on_c, 0, 64, 0
3, 40800, Note_on_c, 0, 48, 51
3, 40920, Note_on_c, 0, 48, 0
3, 41040, Note_on_c, 0, 64, 45
3, 41040, Note_on_c, 0, 60, 38
3, 41160, Note_on_c, 0, 60, 0
3, 41160, Note_on_c, 0, 64, 0
3, 41280, Note_on_c, 0, 48, 46
3, 41400, Note_on_c, 0, 48, 0
3, 41520, Note_on_c, 0, 65, 37
3, 41520, Note_on_c, 0, 60, 31
3, 41640, Note_on_c, 0, 60, 0
3, 41640, Note_on_c, 0, 65, 0
3, 41760, Note_on_c, 0, 48, 46
3, 41880, Note_on_c, 0, 48, 0
3, 42000, Note_on_c, 0, 65, 37
3, 42000, Note_on_c, 0, 60, 31
3, 42120, Note_on_c, 0, 60, 0
3, 42120, Note_on_c, 0, 65, 0
3, 42240, Note_on_c, 0, 48, 52
3, 42360, Note_on_c, 0, 48, 0
3, 42480, Note_on_c, 0, 64, 48
3, 42480, Note_on_c, 0, 60, 40
3, 42600, Note_on_c, 0, 60, 0
3, 42600, Note_on_c, 0, 64, 0
3, 42720, Note_on_c, 0, 48, 52
3, 42840, Note_on_c, 0, 48, 0
3, 42960, Note_on_c, 0, 64, 48
3, 42960, Note_on_c, 0, 60, 40
3, 43080, Note_on_c, 0, 60, 0
3, 43080, Note_on_c, 0, 64, 0
3, 43200, Note_on_c, 0, 48, 45
3, 43320, Note_on_c, 0, 48, 0
3, 43440, Note_on_c, 0, 65, 38
3, 43440, Note_on_c, 0, 60, 32
3, 43560, Note_on_c, 0, 60, 0
3, 43560, Note_on_c, 0, 65, 0
3, 43680, Note_on_c, 0, 53, 45
3, 43800, Note_on_c, 0, 53, 0
3, 43920, Note_on_c, 0, 65, 38
3, 43920, Note_on_c, 0, 60, 32
3, 44040, Note_on_c, 0, 60, 0
3, 44040, Note_on_c, 0, 65, 0
3, 44160, Note_on_c, 0, 44, 46
3, 44280, Note_on_c, 0, 44, 0
3, 44400, Note_on_c, 0, 60, 40
3, 44400, Note_on_c, 0, 56, 34
3, 44520, Note_on_c, 0, 56, 0
3, 44520, Note_on_c, 0, 60, 0
3, 44640, Note_on_c, 0, 45, 45
3, 44760, Note_on_c, 0, 45, 0
3, 44880, Note_on_c, 0, 54, 33
3, 44880, Note_on_c, 0, 60, 39
3, 45000, Note_on_c, 0, 60, 0
3, 45000, Note_on_c, 0, 54, 0
3, 45120, Note_on_c, 0, 46, 38
3, 45240, Note_on_c, 0, 46, 0
3, 45360, Note_on_c, 0, 58, 33
3, 45360, Note_on_c, 0, 53, 27
3, 45480, Note_on_c, 0, 53, 0
3, 45480, Note_on_c, 0, 58, 0
3, 45600, Note_on_c, 0, 37, 38
3, 45720, Note_on_c, 0, 37, 0
3, 45840, Note_on_c, 0, 49, 27
3, 45840, Note_on_c, 0, 53, 33
3, 45960, Note_on_c, 0, 53, 0
3, 45960, Note_on_c, 0, 49, 0
3, 46080, Note_on_c, 0, 39, 29
3, 46200, Note_on_c, 0, 39, 0
3, 46320, Note_on_c, 0, 56, 25
3, 46320, Note_on_c, 0, 51, 20
3, 46440, Note_on_c, 0, 51, 0
3, 46440, Note_on_c, 0, 56, 0
3, 46560, Note_on_c, 0, 39, 29
3, 46680, Note_on_c, 0, 39, 0
3, 46800, Note_on_c, 0, 55, 25
3, 46800, Note_on_c, 0, 51, 20
3, 46920, Note_on_c, 0, 51, 0
3, 46920, Note_on_c, 0, 55, 0
3, 47040, Note_on_c, 0, 44, 27
3, 47090, Control_c, 0, 64, 127
3, 47280, Note_on_c, 0, 44, 0
3, 47280, Note_on_c, 0, 56, 21
3, 47280, Note_on_c, 0, 51, 18
3, 47520, Note_on_c, 0, 51, 0
3, 47520, Note_on_c, 0, 56, 0
3, 47520, Note_on_c, 0, 44, 27
3, 47527, Control_c, 0, 64, 0
3, 47587, Control_c, 0, 64, 127
3, 47760, Note_on_c, 0, 44, 0
3, 47760, Note_on_c, 0, 56, 21
3, 47760, Note_on_c, 0, 51, 18
3, 47940, Note_on_c, 0, 51, 0
3, 47940, Note_on_c, 0, 56, 0
3, 48000, Note_on_c, 0, 53, 27
3, 48025, Control_c, 0, 64, 0
3, 48090, Note_on_c, 0, 53, 0
3, 48240, Note_on_c, 0, 65, 22
3, 48240, Note_on_c, 0, 60, 18
3, 48330, Note_on_c, 0, 60, 0
3, 48330, Note_on_c, 0, 65, 0
3, 48480, Note_on_c, 0, 53, 27
3, 48570, Note_on_c, 0, 53, 0
3, 48720, Note_on_c, 0, 64, 21
3, 48720, Note_on_c, 0, 60, 18
3, 48810, Note_on_c, 0, 60, 0
3, 48810, Note_on_c, 0, 64, 0
3, 48960, Note_on_c, 0, 53, 29
3, 49050, Note_on_c, 0, 53, 0
3, 49200, Note_on_c, 0, 65, 22
3, 49200, Note_on_c, 0, 60, 18
3, 49290, Note_on_c, 0, 60, 0
3, 49290, Note_on_c, 0, 65, 0
3, 49440, Note_on_c, 0, 53, 29
3, 49530, Note_on_c, 0, 53, 0
3, 49680, Note_on_c, 0, 65, 23
3, 49680, Note_on_c, 0, 60, 19
3, 49770, Note_on_c, 0, 60, 0
3, 49770, Note_on_c, 0, 65, 0
3, 49920, Note_on_c, 0, 53, 27
3, 50010, Note_on_c, 0, 53, 0
3, 50160, Note_on_c, 0, 65, 23
3, 50160, Note_on_c, 0, 60, 19
3, 50250, Note_on_c, 0, 60, 0
3, 50250, Note_on_c, 0, 65, 0
3, 50400, Note_on_c, 0, 53, 27
3, 50490, Note_on_c, 0, 53, 0
3, 50640, Note_on_c, 0, 64, 23
3, 50640, Note_on_c, 0, 60, 19
3, 50730, Note_on_c, 0, 60, 0
3, 50730, Note_on_c, 0, 64, 0
3, 50880, Note_on_c, 0, 53, 30
3, 50970, Note_on_c, 0, 53, 0
3, 51120, Note_on_c, 0, 65, 24
3, 51120, Note_on_c, 0, 60, 19
3, 51210, Note_on_c, 0, 60, 0
3, 51210, Note_on_c, 0, 65, 0
3, 51360, Note_on_c, 0, 53, 30
3, 51450, Note_on_c, 0, 53, 0
3, 51600, Note_on_c, 0, 65, 24
3, 51600, Note_on_c, 0, 60, 19
3, 51690, Note_on_c, 0, 60, 0
3, 51690, Note_on_c, 0, 65, 0
3, 51840, Note_on_c, 0, 49, 27
3, 51897, Control_c, 0, 64, 127
3, 52080, Note_on_c, 0, 49, 0
3, 52080, Note_on_c, 0, 65, 21
3, 52080, Note_on_c, 0, 61, 18
3, 52320, Note_on_c, 0, 61, 0
3, 52320, Note_on_c, 0, 65, 0
3, 52320, Note_on_c, 0, 48, 27
3, 52330, Control_c, 0, 64, 0
3, 52395, Control_c, 0, 64, 127
3, 52560, Note_on_c, 0, 48, 0
3, 52560, Note_on_c, 0, 65, 21
3, 52560, Note_on_c, 0, 63, 18
3, 52560, Note_on_c, 0, 60, 18
3, 52800, Note_on_c, 0, 60, 0
3, 52800, Note_on_c, 0, 63, 0
3, 52800, Note_on_c, 0, 65, 0
3, 52800, Note_on_c, 0, 46, 27
3, 52804, Control_c, 0, 64, 0
3, 52878, Control_c, 0, 64, 127
3, 53040, Note_on_c, 0, 46, 0
3, 53040, Note_on_c, 0, 65, 19
3, 53040, Note_on_c, 0, 61, 16
3, 53040, Note_on_c, 0, 58, 16
3, 53280, Note_on_c, 0, 58, 0
3, 53280, Note_on_c, 0, 61, 0
3, 53280, Note_on_c, 0, 65, 0
3, 53280, Note_on_c, 0, 53, 25
3, 53288, Control_c, 0, 64, 0
3, 53379, Control_c, 0, 64, 127
3, 53520, Note_on_c, 0, 53, 0
3, 53520, Note_on_c, 0, 65, 19
3, 53520, Note_on_c, 0, 60, 16
3, 53760, Note_on_c, 0, 60, 0
3, 53760, Note_on_c, 0, 65, 0
3, 53760, Note_on_c, 0, 48, 25
3, 53775, Control_c, 0, 64, 0
3, 53880, Note_on_c, 0, 48, 0
3, 54000, Note_on_c, 0, 65, 21
3, 54000, Note_on_c, 0, 60, 18
3, 54120, Note_on_c, 0, 60, 0
3, 54120, Note_on_c, 0, 65, 0
3, 54240, Note_on_c, 0, 48, 24
3, 54360, Note_on_c, 0, 48, 0
3, 54480, Note_on_c, 0, 64, 19
3, 54480, Note_on_c, 0, 60, 16
3, 54600, Note_on_c, 0, 60, 0
3, 54600, Note_on_c, 0, 64, 0
3, 54720, Note_on_c, 0, 53, 27
3, 54840, Note_on_c, 0, 53, 0
3, 54960, Note_on_c, 0, 65, 21
3, 54960, Note_on_c, 0, 60, 18
3, 55080, Note_on_c, 0, 60, 0
3, 55080, Note_on_c, 0, 65, 0
3, 55200, Note_on_c, 0, 53, 24
3, 55320, Note_on_c, 0, 53, 0
3, 55440, Note_on_c, 0, 65, 22
3, 55440, Note_on_c, 0, 60, 18
3, 55560, Note_on_c, 0, 60, 0
3, 55560, Note_on_c, 0, 65, 0
3, 55680, Note_on_c, 0, 46, 24
3, 55800, Note_on_c, 0, 46, 0
3, 55920, Note_on_c, 0, 61, 21
3, 55920, Note_on_c, 0, 58, 18
3, 56040, Note_on_c, 0, 58, 0
3, 56040, Note_on_c, 0, 61, 0
3, 56160, Note_on_c, 0, 46, 24
3, 56280, Note_on_c, 0, 46, 0
3, 56400, Note_on_c, 0, 61, 25
3, 56400, Note_on_c, 0, 58, 20
3, 56520, Note_on_c, 0, 58, 0
3, 56520, Note_on_c, 0, 61, 0
3, 56640, Note_on_c, 0, 47, 29
3, 56880, Note_on_c, 0, 47, 0
3, 56880, Note_on_c, 0, 62, 27
3, 56880, Note_on_c, 0, 59, 23
3, 57120, Note_on_c, 0, 59, 0
3, 57120, Note_on_c, 0, 62, 0
3, 57120, Note_on_c, 0, 47, 24
3, 57360, Note_on_c, 0, 47, 0
3, 57360, Note_on_c, 0, 62, 24
3, 57360, Note_on_c, 0, 59, 19
3, 57480, Note_on_c, 0, 59, 0
3, 57480, Note_on_c, 0, 62, 0
3, 57600, Note_on_c, 0, 48, 27
3, 57720, Note_on_c, 0, 48, 0
3, 57840, Note_on_c, 0, 65, 24
3, 57840, Note_on_c, 0, 60, 19
3, 57960, Note_on_c, 0, 60, 0
3, 57960, Note_on_c, 0, 65, 0
3, 58080, Note_on_c, 0, 48, 27
3, 58200, Note_on_c, 0, 48, 0
3, 58320, Note_on_c, 0, 64, 24
3, 58320, Note_on_c, 0, 60, 19
3, 58440, Note_on_c, 0, 60, 0
3, 58440, Note_on_c, 0, 64, 0
3, 58560, Note_on_c, 0, 53, 27
3, 58592, Control_c, 0, 64, 127
3, 58800, Note_on_c, 0, 53, 0
3, 58800, Note_on_c, 0, 65, 23
3, 58800, Note_on_c, 0, 60, 19
3, 59040, Note_on_c, 0, 60, 0
3, 59040, Note_on_c, 0, 65, 0
3, 59040, Note_on_c, 0, 53, 27
3, 59280, Note_on_c, 0, 53, 0
3, 59280, Note_on_c, 0, 65, 24
3, 59280, Note_on_c, 0, 60, 19
3, 59520, Note_on_c, 0, 60, 0
3, 59520, Note_on_c, 0, 65, 0
3, 59520, Control_c, 0, 64, 0
3, 59520, Note_on_c, 0, 46, 21
3, 59610, Note_on_c, 0, 46, 0
3, 59760, Note_on_c, 0, 61, 18
3, 59760, Note_on_c, 0, 58, 15
3, 59850, Note_on_c, 0, 58, 0
3, 59850, Note_on_c, 0, 61, 0
3, 60000, Note_on_c, 0, 46, 21
3, 60090, Note_on_c, 0, 46, 0
3, 60240, Note_on_c, 0, 61, 22
3, 60240, Note_on_c, 0, 58, 18
3, 60330, Note_on_c, 0, 58, 0
3, 60330, Note_on_c, 0, 61, 0
3, 60480, Note_on_c, 0, 47, 27
3, 60720, Note_on_c, 0, 47, 0
3, 60720, Note_on_c, 0, 62, 24
3, 60720, Note_on_c, 0, 59, 19
3, 60960, Note_on_c, 0, 59, 0
3, 60960, Note_on_c, 0, 62, 0
3, 60960, Note_on_c, 0, 47, 21
3, 61200, Note_on_c, 0, 47, 0
3, 61200, Note_on_c, 0, 62, 21
3, 61200, Note_on_c, 0, 59, 18
3, 61320, Note_on_c, 0, 59, 0
3, 61320, Note_on_c, 0, 62, 0
3, 61440, Note_on_c, 0, 48, 24
3, 61560, Note_on_c, 0, 48, 0
3, 61680, Note_on_c, 0, 65, 21
3, 61680, Note_on_c, 0, 60, 18
3, 61800, Note_on_c, 0, 60, 0
3, 61800, Note_on_c, 0, 65, 0
3, 61920, Note_on_c, 0, 48, 24
3, 62040, Note_on_c, 0, 48, 0
3, 62160, Note_on_c, 0, 64, 21
3, 62160, Note_on_c, 0, 60, 18
3, 62280, Note_on_c, 0, 60, 0
3, 62280, Note_on_c, 0, 64, 0
3, 62400, Note_on_c, 0, 48, 24
3, 62520, Note_on_c, 0, 48, 0
3, 62640, Note_on_c, 0, 65, 21
3, 62640, Note_on_c, 0, 60, 18
3, 62760, Note_on_c, 0, 60, 0
3, 62760, Note_on_c, 0, 65, 0
3, 62880, Note_on_c, 0, 48, 24
3, 63000, Note_on_c, 0, 48, 0
3, 63120, Note_on_c, 0, 64, 21
3, 63120, Note_on_c, 0, 60, 18
3, 63240, Note_on_c, 0, 60, 0
3, 63240, Note_on_c, 0, 64, 0
3, 63360, Note_on_c, 0, 48, 24
3, 63480, Note_on_c, 0, 48, 0
3, 63600, Note_on_c, 0, 65, 21
3, 63600, Note_on_c, 0, 60, 18
3, 63720, Note_on_c, 0, 60, 0
3, 63720, Note_on_c, 0, 65, 0
3, 63840, Note_on_c, 0, 48, 24
3, 63960, Note_on_c, 0, 48, 0
3, 64080, Note_on_c, 0, 67, 21
3, 64080, Note_on_c, 0, 60, 18
3, 64200, Note_on_c, 0, 60, 0
3, 64200, Note_on_c, 0, 67, 0
3, 64320, Note_on_c, 0, 41, 27
3, 64366, Control_c, 0, 64, 127
3, 64560, Note_on_c, 0, 41, 0
3, 64560, Note_on_c, 0, 53, 21
3, 64560, Note_on_c, 0, 48, 18
3, 64800, Note_on_c, 0, 48, 0
3, 64800, Note_on_c, 0, 53, 0
3, 64800, Note_on_c, 0, 41, 27
3, 65040, Note_on_c, 0, 41, 0
3, 65040, Note_on_c, 0, 53, 22
3, 65040, Note_on_c, 0, 48, 18
3, 65280, Note_on_c, 0, 48, 0
3, 65280, Note_on_c, 0, 53, 0
3, 65280, Note_on_c, 0, 41, 27
3, 65303, Control_c, 0, 64, 0
3, 65400, Note_on_c, 0, 41, 0
3, 65520, Note_on_c, 0, 53, 22
3, 65520, Note_on_c, 0, 48, 18
3, 65640, Note_on_c, 0, 48, 0
3, 65640, Note_on_c, 0, 53, 0
3, 65760, Note_on_c, 0, 41, 27
3, 65880, Note_on_c, 0, 41, 0
3, 66000, Note_on_c, 0, 53, 23
3, 66000, Note_on_c, 0, 48, 19
3, 66120, Note_on_c, 0, 48, 0
3, 66120, Note_on_c, 0, 53, 0
3, 66240, Note_on_c, 0, 41, 27
3, 66286, Control_c, 0, 64, 127
3, 66480, Note_on_c, 0, 41, 0
3, 66480, Note_on_c, 0, 55, 23
3, 66480, Note_on_c, 0, 48, 19
3, 66720, Note_on_c, 0, 48, 0
3, 66720, Note_on_c, 0, 55, 0
3, 66720, Note_on_c, 0, 41, 27
3, 66727, Control_c, 0, 64, 0
3, 66766, Control_c, 0, 64, 127
3, 66960, Note_on_c, 0, 41, 0
3, 66960, Note_on_c, 0, 55, 23
3, 66960, Note_on_c, 0, 48, 19
3, 67200, Note_on_c, 0, 48, 0
3, 67200, Note_on_c, 0, 55, 0
3, 67200, Note_on_c, 0, 41, 27
3, 67216, Control_c, 0, 64, 0
3, 67320, Note_on_c, 0, 41, 0
3, 67440, Note_on_c, 0, 55, 22
3, 67440, Note_on_c, 0, 48, 18
3, 67560, Note_on_c, 0, 48, 0
3, 67560, Note_on_c, 0, 55, 0
3, 67680, Note_on_c, 0, 41, 27
3, 67800, Note_on_c, 0, 41, 0
3, 67920, Note_on_c, 0, 55, 22
3, 67920, Note_on_c, 0, 48, 18
3, 68040, Note_on_c, 0, 48, 0
3, 68040, Note_on_c, 0, 55, 0
3, 68160, Note_on_c, 0, 41, 21
3, 68237, Control_c, 0, 64, 127
3, 68400, Note_on_c, 0, 41, 0
3, 68400, Note_on_c, 0, 53, 17
3, 68400, Note_on_c, 0, 48, 14
3, 68640, Note_on_c, 0, 48, 0
3, 68640, Note_on_c, 0, 53, 0
3, 68640, Note_on_c, 0, 41, 21
3, 68880, Note_on_c, 0, 41, 0
3, 68880, Note_on_c, 0, 53, 17
3, 68880, Note_on_c, 0, 48, 14
3, 69120, Note_on_c, 0, 48, 0
3, 69120, Note_on_c, 0, 53, 0
3, 69120, Note_on_c, 0, 41, 21
3, 69125, Control_c, 0, 64, 0
3, 69223, Control_c, 0, 64, 127
3, 69360, Note_on_c, 0, 41, 0
3, 69360, Note_on_c, 0, 53, 17
3, 69360, Note_on_c, 0, 48, 14
3, 69600, Note_on_c, 0, 48, 0
3, 69600, Note_on_c, 0, 53, 0
3, 69600, Note_on_c, 0, 41, 21
3, 69640, Control_c, 0, 64, 0
3, 69720, Note_on_c, 0, 41, 0
3, 69840, Note_on_c, 0, 54, 18
3, 69840, Note_on_c, 0, 48, 15
3, 69960, Note_on_c, 0, 48, 0
3, 69960, Note_on_c, 0, 54, 0
3, 70080, Note_on_c, 0, 41, 21
3, 70133, Control_c, 0, 64, 127
3, 70320, Note_on_c, 0, 41, 0
3, 70320, Note_on_c, 0, 55, 18
3, 70320, Note_on_c, 0, 48, 15
3, 70560, Note_on_c, 0, 48, 0
3, 70560, Note_on_c, 0, 55, 0
3, 70560, Note_on_c, 0, 41, 21
3, 70800, Note_on_c, 0, 41, 0
3, 70800, Note_on_c, 0, 55, 18
3, 70800, Note_on_c, 0, 48, 15
3, 71040, Note_on_c, 0, 48, 0
3, 71040, Note_on_c, 0, 55, 0
3, 71040, Note_on_c, 0, 41, 21
3, 71045, Control_c, 0, 64, 0
3, 71160, Control_c, 0, 64, 127
3, 71280, Note_on_c, 0, 41, 0
3, 71280, Note_on_c, 0, 55, 17
3, 71280, Note_on_c, 0, 48, 14
3, 71520, Note_on_c, 0, 48, 0
3, 71520, Note_on_c, 0, 55, 0
3, 71520, Note_on_c, 0, 41, 21
3, 71532, Control_c, 0, 64, 0
3, 71668, Control_c, 0, 64, 127
3, 71760, Note_on_c, 0, 41, 0
3, 71760, Note_on_c, 0, 55, 17
3, 71760, Note_on_c, 0, 49, 14
3, 72000, Note_on_c, 0, 49, 0
3, 72000, Note_on_c, 0, 55, 0
3, 72000, Note_on_c, 0, 41, 18
3, 72009, Control_c, 0, 64, 0
3, 72170, Control_c, 0, 64, 127
3, 72240, Note_on_c, 0, 41, 0
3, 72240, Note_on_c, 0, 53, 13
3, 72240, Note_on_c, 0, 48, 10
3, 72480, Note_on_c, 0, 48, 0
3, 72480, Note_on_c, 0, 53, 0
3, 72480, Note_on_c, 0, 41, 16
3, 72720, Note_on_c, 0, 41, 0
3, 72720, Note_on_c, 0, 53, 13
3, 72720, Note_on_c, 0, 48, 10
3, 72960, Note_on_c, 0, 48, 0
3, 72960, Note_on_c, 0, 53, 0
3, 72960, Note_on_c, 0, 41, 14
3, 73200, Note_on_c, 0, 41, 0
3, 73200, Note_on_c, 0, 53, 10
3, 73200, Note_on_c, 0, 48, 9
3, 73440, Note_on_c, 0, 48, 0
3, 73440, Note_on_c, 0, 53, 0
3, 73440, Note_on_c, 0, 41, 13
3, 73680, Note_on_c, 0, 41, 0
3, 73680, Note_on_c, 0, 53, 10
3, 73680, Note_on_c, 0, 48, 9
3, 73920, Note_on_c, 0, 48, 0
3, 73920, Note_on_c, 0, 53, 0
3, 73920, Note_on_c, 0, 53, 10
3, 73920, Note_on_c, 0, 48, 9
3, 73920, Note_on_c, 0, 41, 9
3, 74880, Note_on_c, 0, 41, 0
3, 74880, Note_on_c, 0, 48, 0
3, 74880, Note_on_c, 0, 53, 0
3, 75414, Control_c, 0, 64, 0
3, 75414, End_track
4, 0, Start_track
4, 0, Title_t, "Schubert: Impromptus No.3 in f-, Op. 90 - D 899"
4, 0, End_track
5, 0, Start_track
5, 0, Title_t, "Copyright © 1997 by Bernd Krueger"
5, 0, End_track
6, 0, Start_track
6, 0, Title_t, "http://www.piano-midi.de"
6, 0, End_track
7, 0, Start_track
7, 0, Title_t, "Edition: 2014-03-16"
7, 0, End_track
8, 0, Start_track
8, 0, Title_t, "Spur 7"
8, 0, End_track
0, 0, End_of_file
