0, 0, Header, 1, 17, 480
1, 0, Start_track
1, 0, Title_t, "Kreisleriana Teil 5"
1, 0, Copyright_t, "Copyright © 2007 by Bernd Krueger"
1, 0, Text_t, "Robert Schumann"
1, 0, Text_t, "Sehr lebhaft"
1, 0, Text_t, "Erstellt: 21.1.2007\012"
1, 0, Text_t, "Update am 27.3.2014\012"
1, 0, Text_t, "Dauer: 3:14 Minuten\012"
1, 0, Time_signature, 3, 2, 24, 8
1, 0, Key_signature, -2, "major"
1, 0, Tempo, 387372
1, 480, Tempo, 373343
1, 840, Tempo, 407221
1, 960, Tempo, 432339
1, 1200, Tempo, 386200
1, 1920, Tempo, 373343
1, 2280, Tempo, 411720
1, 2400, Tempo, 425773
1, 2640, Tempo, 384862
1, 3360, Tempo, 374579
1, 3720, Tempo, 410200
1, 3840, Tempo, 394348
1, 4080, Tempo, 384862
1, 4320, Tempo, 380952
1, 4680, Tempo, 395726
1, 4800, Tempo, 379651
1, 5160, Tempo, 394348
1, 5280, Tempo, 383558
1, 5640, Tempo, 433996
1, 5760, Tempo, 384862
1, 7200, Tempo, 375846
1, 7560, Tempo, 388878
1, 7680, Tempo, 374579
1, 8040, Tempo, 390219
1, 8160, Tempo, 375846
1, 8520, Tempo, 390219
1, 8640, Tempo, 374579
1, 9000, Tempo, 388878
1, 9120, Tempo, 384862
1, 10080, Tempo, 375846
1, 10440, Tempo, 388878
1, 10560, Tempo, 374579
1, 10920, Tempo, 390219
1, 11040, Tempo, 375846
1, 11400, Tempo, 390219
1, 11520, Tempo, 374579
1, 11880, Tempo, 388878
1, 12000, Tempo, 384862
1, 12960, Tempo, 375846
1, 13320, Tempo, 388878
1, 13440, Tempo, 374579
1, 13800, Tempo, 390219
1, 13920, Tempo, 375846
1, 14280, Tempo, 390219
1, 14400, Tempo, 374579
1, 14760, Tempo, 388878
1, 14880, Tempo, 384862
1, 15840, Tempo, 375846
1, 16200, Tempo, 388878
1, 16320, Tempo, 374579
1, 16680, Tempo, 390219
1, 16800, Tempo, 375846
1, 17160, Tempo, 390219
1, 17280, Tempo, 374579
1, 17640, Tempo, 388878
1, 17760, Tempo, 375846
1, 18120, Tempo, 388878
1, 18720, Tempo, 388878
1, 19200, Tempo, 373343
1, 19560, Tempo, 407221
1, 19680, Tempo, 432339
1, 19920, Tempo, 386200
1, 20640, Tempo, 373343
1, 21000, Tempo, 411720
1, 21120, Tempo, 425773
1, 21360, Tempo, 384862
1, 22080, Tempo, 374579
1, 22440, Tempo, 410200
1, 22560, Tempo, 394348
1, 22800, Tempo, 384862
1, 23040, Tempo, 380952
1, 23400, Tempo, 395726
1, 23520, Tempo, 379651
1, 23880, Tempo, 394348
1, 24000, Tempo, 383558
1, 24360, Tempo, 433996
1, 24480, Tempo, 384862
1, 25920, Tempo, 375846
1, 26280, Tempo, 388878
1, 26400, Tempo, 374579
1, 26760, Tempo, 390219
1, 26880, Tempo, 375846
1, 27240, Tempo, 390219
1, 27360, Tempo, 374579
1, 27720, Tempo, 388878
1, 27840, Tempo, 384862
1, 28800, Tempo, 375846
1, 29160, Tempo, 388878
1, 29280, Tempo, 374579
1, 29640, Tempo, 390219
1, 29760, Tempo, 375846
1, 30120, Tempo, 390219
1, 30240, Tempo, 374579
1, 30600, Tempo, 388878
1, 30720, Tempo, 384862
1, 31680, Tempo, 375846
1, 32040, Tempo, 388878
1, 32160, Tempo, 374579
1, 32520, Tempo, 390219
1, 32640, Tempo, 375846
1, 33000, Tempo, 390219
1, 33120, Tempo, 374579
1, 33480, Tempo, 388878
1, 33600, Tempo, 384862
1, 34560, Tempo, 375846
1, 34920, Tempo, 388878
1, 35040, Tempo, 374579
1, 35400, Tempo, 390219
1, 35520, Tempo, 375846
1, 35880, Tempo, 390219
1, 36000, Tempo, 374579
1, 36360, Tempo, 388878
1, 36480, Tempo, 375846
1, 36840, Tempo, 388878
1, 37440, Tempo, 406752
1, 37920, Tempo, 390854
1, 38400, Tempo, 406752
1, 38640, Tempo, 415225
1, 38880, Tempo, 405405
1, 39360, Tempo, 387072
1, 39840, Tempo, 408136
1, 40080, Tempo, 415225
1, 40320, Tempo, 406780
1, 40800, Tempo, 392131
1, 41040, Tempo, 416667
1, 41280, Tempo, 409528
1, 41760, Tempo, 401338
1, 42240, Tempo, 387097
1, 42720, Tempo, 416667
1, 42960, Tempo, 456274
1, 43200, Tempo, 437956
1, 43680, Tempo, 383387
1, 44160, Tempo, 406752
1, 44400, Tempo, 416667
1, 44640, Tempo, 405405
1, 45120, Tempo, 387072
1, 45600, Tempo, 408136
1, 45840, Tempo, 418118
1, 46080, Tempo, 406780
1, 46560, Tempo, 392131
1, 47040, Tempo, 397351
1, 47280, Tempo, 408163
1, 47520, Tempo, 400000
1, 48000, Tempo, 387097
1, 48480, Tempo, 412343
1, 48720, Tempo, 459770
1, 48960, Tempo, 437956
1, 49440, Tempo, 390854
1, 49920, Tempo, 398671
1, 50160, Tempo, 415225
1, 50400, Tempo, 406780
1, 50880, Tempo, 387072
1, 51360, Tempo, 401338
1, 51600, Tempo, 418118
1, 51840, Tempo, 406780
1, 52320, Tempo, 392131
1, 52800, Tempo, 401338
1, 53280, Tempo, 398671
1, 53760, Tempo, 387097
1, 54240, Tempo, 412343
1, 54480, Tempo, 463320
1, 54720, Tempo, 436364
1, 55200, Tempo, 390854
1, 55680, Tempo, 406752
1, 55920, Tempo, 392157
1, 56160, Tempo, 406780
1, 56640, Tempo, 388350
1, 57120, Tempo, 408136
1, 57600, Tempo, 406780
1, 57840, Tempo, 418118
1, 58080, Tempo, 392131
1, 58560, Tempo, 402685
1, 59040, Tempo, 397351
1, 59520, Tempo, 389610
1, 60000, Tempo, 412343
1, 60360, Tempo, 437924
1, 60960, Tempo, 380011
1, 61440, Tempo, 406752
1, 61920, Tempo, 392439
1, 62400, Tempo, 383656
1, 62880, Tempo, 406752
1, 63360, Tempo, 398963
1, 63480, Tempo, 393727
1, 63840, Tempo, 383656
1, 64320, Tempo, 406752
1, 64800, Tempo, 393727
1, 65280, Tempo, 383656
1, 65760, Tempo, 406752
1, 66240, Tempo, 397641
1, 66360, Tempo, 392439
1, 66720, Tempo, 383656
1, 66840, Tempo, 382434
1, 67200, Tempo, 406752
1, 67560, Tempo, 406752
1, 67680, Tempo, 392439
1, 68160, Tempo, 382434
1, 68640, Tempo, 406752
1, 69000, Tempo, 406752
1, 69120, Tempo, 393727
1, 69600, Tempo, 383656
1, 70080, Tempo, 406752
1, 70320, Tempo, 421053
1, 70560, Tempo, 428571
1, 71040, Tempo, 441176
1, 71280, Tempo, 481928
1, 71520, Tempo, 466926
1, 72000, Tempo, 442804
1, 72480, Tempo, 373343
1, 72840, Tempo, 407221
1, 72960, Tempo, 432339
1, 73200, Tempo, 386200
1, 73920, Tempo, 373343
1, 74280, Tempo, 411720
1, 74400, Tempo, 425773
1, 74640, Tempo, 384862
1, 75360, Tempo, 374579
1, 75720, Tempo, 410200
1, 75840, Tempo, 394348
1, 76080, Tempo, 384862
1, 76320, Tempo, 380952
1, 76680, Tempo, 395726
1, 76800, Tempo, 379651
1, 77160, Tempo, 394348
1, 77280, Tempo, 383558
1, 77640, Tempo, 433996
1, 77760, Tempo, 384862
1, 79200, Tempo, 375846
1, 79560, Tempo, 388878
1, 79680, Tempo, 374579
1, 80040, Tempo, 390219
1, 80160, Tempo, 375846
1, 80520, Tempo, 390219
1, 80640, Tempo, 374579
1, 81000, Tempo, 388878
1, 81120, Tempo, 384862
1, 82080, Tempo, 375846
1, 82440, Tempo, 388878
1, 82560, Tempo, 374579
1, 82920, Tempo, 390219
1, 83040, Tempo, 375846
1, 83400, Tempo, 390219
1, 83520, Tempo, 374579
1, 83880, Tempo, 388878
1, 84000, Tempo, 384862
1, 84960, Tempo, 375846
1, 85320, Tempo, 388878
1, 85440, Tempo, 374579
1, 85800, Tempo, 390219
1, 85920, Tempo, 375846
1, 86280, Tempo, 390219
1, 86400, Tempo, 374579
1, 86760, Tempo, 388878
1, 86880, Tempo, 384862
1, 87840, Tempo, 375846
1, 88200, Tempo, 388878
1, 88320, Tempo, 380952
1, 88680, Tempo, 408163
1, 88800, Tempo, 391901
1, 89160, Tempo, 428266
1, 89280, Tempo, 420757
1, 89640, Tempo, 470219
1, 89760, Tempo, 437637
1, 90000, Tempo, 483481
1, 90120, Tempo, 462963
1, 90240, Tempo, 512383
1, 90600, Tempo, 981997
1, 90720, Tempo, 1345291
1, 91200, Tempo, 381922
1, 92160, Tempo, 360144
1, 92400, Tempo, 304569
1, 92640, Tempo, 311688
1, 92880, Tempo, 338983
1, 93120, Tempo, 296150
1, 93360, Tempo, 366972
1, 93600, Tempo, 352837
1, 94080, Tempo, 331400
1, 95040, Tempo, 347725
1, 95280, Tempo, 303030
1, 95760, Tempo, 326975
1, 96000, Tempo, 288392
1, 96240, Tempo, 376176
1, 96480, Tempo, 353878
1, 96960, Tempo, 331400
1, 97920, Tempo, 347725
1, 98160, Tempo, 306827
1, 98640, Tempo, 327869
1, 98880, Tempo, 297693
1, 99120, Tempo, 361446
1, 99360, Tempo, 353878
1, 99840, Tempo, 331400
1, 100800, Tempo, 347725
1, 101040, Tempo, 298433
1, 101520, Tempo, 322581
1, 101760, Tempo, 304491
1, 102000, Tempo, 361446
1, 102240, Tempo, 353878
1, 102720, Tempo, 331400
1, 103680, Tempo, 347725
1, 103920, Tempo, 303721
1, 104400, Tempo, 325203
1, 104640, Tempo, 309997
1, 104880, Tempo, 379747
1, 105120, Tempo, 353878
1, 105600, Tempo, 331400
1, 106560, Tempo, 347725
1, 106800, Tempo, 310800
1, 107280, Tempo, 318302
1, 107520, Tempo, 302191
1, 107760, Tempo, 342759
1, 108000, Tempo, 353878
1, 108480, Tempo, 331400
1, 109440, Tempo, 347725
1, 109680, Tempo, 303721
1, 110160, Tempo, 331492
1, 110400, Tempo, 307613
1, 110640, Tempo, 363636
1, 110880, Tempo, 353878
1, 111360, Tempo, 331400
1, 112320, Tempo, 347725
1, 112560, Tempo, 306044
1, 113040, Tempo, 332410
1, 113280, Tempo, 309199
1, 113520, Tempo, 361446
1, 113760, Tempo, 353878
1, 114240, Tempo, 331400
1, 115200, Tempo, 347725
1, 115440, Tempo, 311607
1, 115680, Tempo, 299177
1, 116160, Tempo, 288392
1, 116400, Tempo, 342759
1, 116640, Tempo, 353878
1, 116880, Tempo, 309997
1, 117120, Tempo, 359281
1, 117600, Tempo, 345821
1, 117840, Tempo, 412371
1, 118080, Tempo, 378549
1, 118320, Tempo, 542741
1, 118560, Tempo, 355030
1, 119520, Tempo, 347725
1, 119760, Tempo, 309278
1, 120000, Tempo, 308483
1, 120240, Tempo, 330579
1, 120480, Tempo, 288392
1, 120720, Tempo, 368098
1, 120960, Tempo, 352837
1, 121440, Tempo, 331400
1, 122400, Tempo, 347725
1, 122640, Tempo, 303030
1, 123120, Tempo, 326975
1, 123360, Tempo, 288392
1, 123600, Tempo, 392157
1, 123840, Tempo, 353878
1, 124320, Tempo, 331400
1, 125280, Tempo, 347725
1, 125520, Tempo, 306827
1, 126000, Tempo, 316623
1, 126240, Tempo, 297693
1, 126480, Tempo, 363636
1, 126720, Tempo, 353878
1, 127200, Tempo, 331400
1, 128160, Tempo, 347725
1, 128400, Tempo, 298433
1, 128880, Tempo, 314961
1, 129120, Tempo, 304491
1, 129360, Tempo, 362538
1, 129600, Tempo, 353878
1, 130080, Tempo, 331400
1, 131040, Tempo, 347725
1, 131280, Tempo, 303721
1, 131760, Tempo, 328767
1, 132000, Tempo, 309997
1, 132240, Tempo, 366972
1, 132480, Tempo, 353878
1, 132960, Tempo, 331400
1, 133920, Tempo, 353878
1, 134400, Tempo, 355030
1, 135360, Tempo, 347725
1, 135600, Tempo, 301432
1, 136080, Tempo, 329670
1, 136320, Tempo, 283019
1, 136560, Tempo, 342759
1, 136680, Tempo, 398539
1, 136800, Tempo, 352837
1, 137280, Tempo, 355030
1, 138240, Tempo, 347725
1, 138480, Tempo, 301432
1, 138960, Tempo, 329670
1, 139200, Tempo, 283019
1, 139440, Tempo, 342759
1, 139560, Tempo, 403904
1, 139680, Tempo, 352837
1, 140160, Tempo, 360252
1, 140640, Tempo, 388224
1, 141120, Tempo, 347725
1, 141480, Tempo, 340812
1, 141840, Tempo, 358102
1, 142080, Tempo, 347725
1, 142320, Tempo, 343741
1, 142800, Tempo, 353878
1, 143040, Tempo, 347725
1, 143280, Tempo, 341783
1, 143760, Tempo, 350775
1, 144000, Tempo, 346721
1, 144480, Tempo, 338887
1, 144720, Tempo, 348736
1, 144960, Tempo, 338887
1, 145200, Tempo, 334169
1, 145680, Tempo, 346721
1, 145920, Tempo, 337933
1, 146160, Tempo, 333241
1, 146640, Tempo, 346721
1, 146880, Tempo, 333241
1, 147120, Tempo, 328677
1, 147600, Tempo, 338983
1, 147840, Tempo, 324324
1, 148080, Tempo, 320000
1, 148560, Tempo, 334262
1, 148800, Tempo, 322581
1, 149040, Tempo, 320856
1, 149280, Tempo, 321716
1, 149520, Tempo, 327869
1, 149760, Tempo, 325203
1, 150120, Tempo, 330487
1, 150240, Tempo, 319149
1, 150480, Tempo, 335196
1, 150720, Tempo, 321716
1, 151200, Tempo, 325203
1, 151440, Tempo, 341880
1, 151680, Tempo, 333333
1, 152160, Tempo, 348736
1, 152400, Tempo, 379627
1, 152640, Tempo, 348736
1, 152880, Tempo, 331492
1, 153360, Tempo, 347725
1, 153600, Tempo, 338887
1, 153840, Tempo, 330579
1, 154320, Tempo, 347725
1, 154560, Tempo, 330579
1, 155280, Tempo, 352837
1, 155520, Tempo, 327869
1, 156240, Tempo, 349752
1, 156480, Tempo, 326975
1, 157200, Tempo, 350775
1, 157440, Tempo, 326975
1, 157920, Tempo, 332318
1, 158160, Tempo, 351803
1, 158400, Tempo, 336984
1, 158640, Tempo, 325203
1, 159000, Tempo, 333333
1, 159120, Tempo, 347725
1, 159360, Tempo, 331492
1, 159600, Tempo, 322581
1, 160080, Tempo, 338028
1, 160320, Tempo, 323450
1, 161040, Tempo, 355977
1, 161280, Tempo, 329670
1, 161520, Tempo, 322581
1, 162000, Tempo, 335196
1, 162240, Tempo, 338887
1, 162480, Tempo, 324324
1, 162960, Tempo, 352837
1, 163200, Tempo, 329670
1, 163680, Tempo, 345722
1, 163920, Tempo, 405405
1, 164160, Tempo, 336040
1, 164400, Tempo, 329580
1, 164880, Tempo, 343741
1, 165120, Tempo, 337933
1, 165360, Tempo, 323450
1, 165840, Tempo, 342759
1, 166080, Tempo, 337933
1, 166320, Tempo, 326975
1, 166800, Tempo, 349752
1, 167040, Tempo, 336984
1, 167280, Tempo, 328767
1, 167760, Tempo, 350775
1, 168000, Tempo, 336040
1, 168240, Tempo, 326975
1, 168720, Tempo, 346721
1, 168960, Tempo, 336040
1, 169200, Tempo, 333241
1, 169680, Tempo, 350775
1, 169920, Tempo, 335102
1, 170040, Tempo, 329580
1, 170640, Tempo, 344729
1, 170880, Tempo, 336040
1, 171600, Tempo, 332318
1, 172320, Tempo, 334169
1, 172440, Tempo, 353982
1, 172560, Tempo, 347725
1, 172800, Tempo, 339943
1, 173520, Tempo, 347725
1, 173760, Tempo, 341880
1, 174480, Tempo, 350877
1, 174720, Tempo, 343840
1, 174840, Tempo, 339943
1, 175200, Tempo, 349854
1, 175440, Tempo, 378549
1, 175680, Tempo, 359281
1, 176160, Tempo, 376176
1, 176400, Tempo, 362538
1, 177120, Tempo, 424028
1, 177360, Tempo, 404040
1, 177600, Tempo, 415225
1, 177840, Tempo, 436364
1, 178080, Tempo, 470588
1, 178320, Tempo, 540541
1, 178560, Tempo, 625000
1, 179040, Tempo, 362428
1, 180000, Tempo, 347725
1, 180240, Tempo, 309278
1, 180720, Tempo, 337079
1, 180960, Tempo, 288392
1, 181200, Tempo, 371517
1, 181440, Tempo, 352837
1, 181920, Tempo, 331400
1, 182880, Tempo, 347725
1, 183120, Tempo, 303030
1, 183600, Tempo, 320000
1, 183840, Tempo, 288392
1, 184080, Tempo, 382166
1, 184320, Tempo, 353878
1, 184800, Tempo, 331400
1, 185760, Tempo, 347725
1, 186000, Tempo, 306827
1, 186720, Tempo, 297693
1, 186960, Tempo, 361446
1, 187200, Tempo, 353878
1, 187680, Tempo, 331400
1, 188640, Tempo, 347725
1, 188880, Tempo, 298433
1, 189600, Tempo, 304491
1, 189840, Tempo, 342759
1, 190080, Tempo, 353878
1, 190560, Tempo, 331400
1, 191520, Tempo, 347725
1, 191760, Tempo, 303721
1, 192480, Tempo, 309997
1, 192720, Tempo, 342759
1, 192960, Tempo, 353878
1, 193440, Tempo, 360360
1, 193920, Tempo, 379747
1, 194400, Tempo, 393443
1, 194880, Tempo, 390854
1, 195360, Tempo, 406752
1, 195840, Tempo, 406752
1, 196320, Tempo, 387072
1, 196800, Tempo, 408136
1, 197760, Tempo, 392131
1, 198240, Tempo, 409528
1, 198720, Tempo, 401338
1, 199200, Tempo, 384615
1, 199680, Tempo, 412343
1, 200040, Tempo, 437924
1, 200640, Tempo, 390854
1, 201120, Tempo, 400000
1, 201360, Tempo, 419580
1, 201600, Tempo, 406780
1, 202080, Tempo, 387072
1, 202560, Tempo, 398671
1, 202800, Tempo, 418118
1, 203040, Tempo, 406780
1, 203520, Tempo, 392131
1, 204000, Tempo, 409528
1, 204480, Tempo, 400000
1, 204960, Tempo, 385852
1, 205440, Tempo, 412343
1, 205800, Tempo, 437924
1, 206400, Tempo, 390854
1, 206880, Tempo, 406752
1, 207360, Tempo, 406752
1, 207840, Tempo, 387072
1, 208320, Tempo, 408136
1, 209280, Tempo, 392131
1, 209760, Tempo, 402685
1, 210240, Tempo, 394737
1, 210720, Tempo, 385852
1, 211200, Tempo, 415225
1, 211560, Tempo, 463320
1, 211680, Tempo, 436364
1, 212160, Tempo, 390854
1, 212640, Tempo, 400000
1, 212880, Tempo, 410959
1, 213120, Tempo, 405405
1, 213600, Tempo, 387072
1, 214080, Tempo, 408136
1, 215040, Tempo, 392131
1, 215520, Tempo, 404040
1, 216000, Tempo, 400000
1, 216480, Tempo, 390879
1, 216960, Tempo, 415225
1, 217320, Tempo, 451128
1, 217440, Tempo, 436364
1, 217920, Tempo, 380011
1, 218400, Tempo, 406752
1, 218880, Tempo, 392439
1, 219360, Tempo, 383656
1, 219840, Tempo, 406752
1, 220320, Tempo, 398963
1, 220440, Tempo, 393727
1, 220800, Tempo, 383656
1, 221280, Tempo, 406752
1, 221760, Tempo, 393727
1, 222240, Tempo, 383656
1, 222720, Tempo, 406752
1, 223200, Tempo, 397641
1, 223320, Tempo, 392439
1, 223680, Tempo, 383656
1, 223800, Tempo, 382434
1, 224160, Tempo, 406752
1, 224520, Tempo, 406752
1, 224640, Tempo, 392439
1, 225120, Tempo, 382434
1, 225600, Tempo, 406752
1, 225960, Tempo, 406752
1, 226080, Tempo, 393727
1, 226560, Tempo, 383656
1, 227040, Tempo, 406752
1, 227400, Tempo, 406752
1, 227520, Tempo, 413793
1, 228000, Tempo, 439560
1, 228240, Tempo, 480000
1, 228480, Tempo, 465116
1, 228960, Tempo, 454545
1, 229440, Tempo, 373343
1, 229800, Tempo, 407221
1, 229920, Tempo, 432339
1, 230160, Tempo, 386200
1, 230880, Tempo, 373343
1, 231240, Tempo, 411720
1, 231360, Tempo, 425773
1, 231600, Tempo, 384862
1, 232320, Tempo, 374579
1, 232680, Tempo, 410200
1, 232800, Tempo, 394348
1, 233040, Tempo, 384862
1, 233280, Tempo, 380952
1, 233640, Tempo, 395726
1, 233760, Tempo, 379651
1, 234120, Tempo, 394348
1, 234240, Tempo, 383558
1, 234600, Tempo, 433996
1, 234720, Tempo, 384862
1, 236160, Tempo, 375846
1, 236520, Tempo, 388878
1, 236640, Tempo, 374579
1, 237000, Tempo, 390219
1, 237120, Tempo, 375846
1, 237480, Tempo, 390219
1, 237600, Tempo, 374579
1, 237960, Tempo, 388878
1, 238080, Tempo, 384862
1, 239040, Tempo, 375846
1, 239400, Tempo, 388878
1, 239520, Tempo, 374579
1, 239880, Tempo, 390219
1, 240000, Tempo, 375846
1, 240360, Tempo, 390219
1, 240480, Tempo, 374579
1, 240840, Tempo, 388878
1, 240960, Tempo, 384862
1, 241920, Tempo, 375846
1, 242280, Tempo, 388878
1, 242400, Tempo, 374579
1, 242760, Tempo, 390219
1, 242880, Tempo, 375846
1, 243240, Tempo, 390219
1, 243360, Tempo, 374579
1, 243720, Tempo, 388878
1, 243840, Tempo, 384862
1, 244800, Tempo, 375846
1, 245160, Tempo, 388878
1, 245280, Tempo, 380952
1, 245640, Tempo, 408163
1, 245760, Tempo, 388350
1, 246120, Tempo, 413793
1, 246240, Tempo, 421053
1, 246600, Tempo, 461538
1, 246720, Tempo, 437956
1, 246960, Tempo, 446097
1, 247080, Tempo, 487805
1, 247200, Tempo, 555556
1, 247440, Tempo, 681818
1, 247680, Tempo, 909091
1, 247680, End_track
2, 0, Start_track
2, 0, Title_t, "Piano right"
2, 0, Program_c, 0, 0
2, 0, Control_c, 0, 91, 127
2, 0, Text_t, "bdca426d104a26ac9dcb070447587523"
2, 480, Note_on_c, 0, 55, 40
2, 600, Note_on_c, 0, 55, 0
2, 600, Note_on_c, 0, 57, 32
2, 720, Note_on_c, 0, 57, 0
2, 720, Note_on_c, 0, 55, 34
2, 840, Note_on_c, 0, 55, 0
2, 840, Note_on_c, 0, 50, 34
2, 960, Note_on_c, 0, 50, 0
2, 960, Note_on_c, 0, 62, 40
2, 1080, Note_on_c, 0, 62, 0
2, 1320, Note_on_c, 0, 50, 40
2, 1320, Note_on_c, 0, 55, 40
2, 1410, Note_on_c, 0, 55, 0
2, 1410, Note_on_c, 0, 50, 0
2, 1440, Note_on_c, 0, 54, 46
2, 1440, Note_on_c, 0, 48, 46
2, 1530, Note_on_c, 0, 48, 0
2, 1530, Note_on_c, 0, 54, 0
2, 1920, Note_on_c, 0, 60, 43
2, 2040, Note_on_c, 0, 60, 0
2, 2040, Note_on_c, 0, 62, 37
2, 2160, Note_on_c, 0, 62, 0
2, 2160, Note_on_c, 0, 60, 37
2, 2280, Note_on_c, 0, 60, 0
2, 2280, Note_on_c, 0, 57, 37
2, 2400, Note_on_c, 0, 57, 0
2, 2400, Note_on_c, 0, 69, 49
2, 2520, Note_on_c, 0, 69, 0
2, 2760, Note_on_c, 0, 50, 44
2, 2760, Note_on_c, 0, 60, 44
2, 2850, Note_on_c, 0, 60, 0
2, 2850, Note_on_c, 0, 50, 0
2, 2880, Note_on_c, 0, 58, 48
2, 2880, Note_on_c, 0, 50, 48
2, 2970, Note_on_c, 0, 50, 0
2, 2970, Note_on_c, 0, 58, 0
2, 3360, Note_on_c, 0, 55, 40
2, 3480, Note_on_c, 0, 55, 0
2, 3480, Note_on_c, 0, 57, 34
2, 3600, Note_on_c, 0, 57, 0
2, 3600, Note_on_c, 0, 55, 34
2, 3720, Note_on_c, 0, 55, 0
2, 3720, Note_on_c, 0, 50, 34
2, 3840, Note_on_c, 0, 50, 0
2, 3840, Note_on_c, 0, 67, 50
2, 3930, Note_on_c, 0, 67, 0
2, 4200, Note_on_c, 0, 55, 44
2, 4200, Note_on_c, 0, 65, 44
2, 4290, Note_on_c, 0, 65, 0
2, 4290, Note_on_c, 0, 55, 0
2, 4320, Note_on_c, 0, 63, 47
2, 4320, Note_on_c, 0, 55, 47
2, 4410, Note_on_c, 0, 55, 0
2, 4410, Note_on_c, 0, 63, 0
2, 4680, Note_on_c, 0, 55, 40
2, 4680, Note_on_c, 0, 62, 40
2, 4770, Note_on_c, 0, 62, 0
2, 4770, Note_on_c, 0, 55, 0
2, 4800, Note_on_c, 0, 60, 44
2, 4800, Note_on_c, 0, 55, 44
2, 4890, Note_on_c, 0, 55, 0
2, 4890, Note_on_c, 0, 60, 0
2, 5160, Note_on_c, 0, 58, 50
2, 5250, Note_on_c, 0, 58, 0
2, 5280, Note_on_c, 0, 57, 46
2, 5280, Note_on_c, 0, 61, 46
2, 5370, Note_on_c, 0, 61, 0
2, 5370, Note_on_c, 0, 57, 0
2, 5640, Note_on_c, 0, 55, 40
2, 5730, Note_on_c, 0, 55, 0
2, 5760, Note_on_c, 0, 54, 50
2, 5760, Note_on_c, 0, 62, 50
2, 5850, Note_on_c, 0, 62, 0
2, 5850, Note_on_c, 0, 54, 0
2, 6240, Note_on_c, 0, 74, 72
2, 6720, Note_on_c, 0, 62, 61
2, 7080, Note_on_c, 0, 74, 0
2, 7080, Note_on_c, 0, 72, 58
2, 7200, Note_on_c, 0, 72, 0
2, 7200, Note_on_c, 0, 70, 65
2, 7290, Note_on_c, 0, 70, 0
2, 7560, Note_on_c, 0, 69, 55
2, 7650, Note_on_c, 0, 69, 0
2, 7680, Note_on_c, 0, 62, 0
2, 7680, Note_on_c, 0, 67, 64
2, 7680, Note_on_c, 0, 70, 64
2, 7770, Note_on_c, 0, 67, 0
2, 8040, Note_on_c, 0, 65, 56
2, 8130, Note_on_c, 0, 65, 0
2, 8160, Note_on_c, 0, 70, 0
2, 8160, Note_on_c, 0, 63, 64
2, 8250, Note_on_c, 0, 63, 0
2, 8520, Note_on_c, 0, 62, 56
2, 8610, Note_on_c, 0, 62, 0
2, 8640, Note_on_c, 0, 60, 64
2, 8730, Note_on_c, 0, 60, 0
2, 9120, Note_on_c, 0, 77, 68
2, 9600, Note_on_c, 0, 65, 61
2, 9960, Note_on_c, 0, 77, 0
2, 9960, Note_on_c, 0, 75, 58
2, 10080, Note_on_c, 0, 75, 0
2, 10080, Note_on_c, 0, 74, 65
2, 10170, Note_on_c, 0, 74, 0
2, 10440, Note_on_c, 0, 72, 55
2, 10530, Note_on_c, 0, 72, 0
2, 10560, Note_on_c, 0, 65, 0
2, 10560, Note_on_c, 0, 70, 64
2, 10560, Note_on_c, 0, 74, 64
2, 10650, Note_on_c, 0, 70, 0
2, 10920, Note_on_c, 0, 69, 56
2, 11010, Note_on_c, 0, 69, 0
2, 11040, Note_on_c, 0, 74, 0
2, 11040, Note_on_c, 0, 67, 64
2, 11130, Note_on_c, 0, 67, 0
2, 11400, Note_on_c, 0, 65, 56
2, 11490, Note_on_c, 0, 65, 0
2, 11520, Note_on_c, 0, 64, 64
2, 11610, Note_on_c, 0, 64, 0
2, 12000, Note_on_c, 0, 81, 70
2, 12480, Note_on_c, 0, 69, 61
2, 12840, Note_on_c, 0, 81, 0
2, 12840, Note_on_c, 0, 79, 58
2, 12960, Note_on_c, 0, 79, 0
2, 12960, Note_on_c, 0, 78, 65
2, 13050, Note_on_c, 0, 78, 0
2, 13320, Note_on_c, 0, 75, 55
2, 13410, Note_on_c, 0, 75, 0
2, 13440, Note_on_c, 0, 69, 0
2, 13440, Note_on_c, 0, 74, 64
2, 13440, Note_on_c, 0, 78, 64
2, 13530, Note_on_c, 0, 74, 0
2, 13800, Note_on_c, 0, 72, 56
2, 13890, Note_on_c, 0, 72, 0
2, 13920, Note_on_c, 0, 78, 0
2, 13920, Note_on_c, 0, 79, 64
2, 13920, Note_on_c, 0, 70, 64
2, 14010, Note_on_c, 0, 70, 0
2, 14010, Note_on_c, 0, 79, 0
2, 14280, Note_on_c, 0, 69, 56
2, 14370, Note_on_c, 0, 69, 0
2, 14400, Note_on_c, 0, 67, 64
2, 14490, Note_on_c, 0, 67, 0
2, 14880, Note_on_c, 0, 70, 71
2, 15360, Note_on_c, 0, 70, 0
2, 15360, Note_on_c, 0, 69, 52
2, 15360, Note_on_c, 0, 73, 62
2, 15720, Note_on_c, 0, 69, 0
2, 15720, Note_on_c, 0, 67, 58
2, 15840, Note_on_c, 0, 67, 0
2, 15840, Note_on_c, 0, 73, 0
2, 15840, Note_on_c, 0, 66, 56
2, 15840, Note_on_c, 0, 74, 61
2, 15930, Note_on_c, 0, 74, 0
2, 15930, Note_on_c, 0, 66, 0
2, 16200, Note_on_c, 0, 63, 51
2, 16290, Note_on_c, 0, 63, 0
2, 16320, Note_on_c, 0, 66, 59
2, 16320, Note_on_c, 0, 62, 59
2, 16410, Note_on_c, 0, 62, 0
2, 16680, Note_on_c, 0, 60, 50
2, 16800, Note_on_c, 0, 60, 0
2, 16800, Note_on_c, 0, 66, 0
2, 16800, Note_on_c, 0, 67, 57
2, 16800, Note_on_c, 0, 58, 57
2, 16890, Note_on_c, 0, 58, 0
2, 16890, Note_on_c, 0, 67, 0
2, 17160, Note_on_c, 0, 57, 49
2, 17250, Note_on_c, 0, 57, 0
2, 17280, Note_on_c, 0, 55, 57
2, 17370, Note_on_c, 0, 55, 0
2, 17760, Note_on_c, 0, 58, 61
2, 18240, Note_on_c, 0, 58, 0
2, 18240, Note_on_c, 0, 61, 55
2, 18240, Note_on_c, 0, 57, 55
2, 18330, Note_on_c, 0, 57, 0
2, 18600, Note_on_c, 0, 55, 47
2, 18690, Note_on_c, 0, 55, 0
2, 18720, Note_on_c, 0, 61, 0
2, 18720, Note_on_c, 0, 54, 54
2, 18720, Note_on_c, 0, 62, 54
2, 18960, Note_on_c, 0, 62, 0
2, 18960, Note_on_c, 0, 54, 0
2, 19200, Note_on_c, 0, 55, 40
2, 19320, Note_on_c, 0, 55, 0
2, 19320, Note_on_c, 0, 57, 32
2, 19440, Note_on_c, 0, 57, 0
2, 19440, Note_on_c, 0, 55, 34
2, 19560, Note_on_c, 0, 55, 0
2, 19560, Note_on_c, 0, 50, 34
2, 19680, Note_on_c, 0, 50, 0
2, 19680, Note_on_c, 0, 62, 40
2, 19770, Note_on_c, 0, 62, 0
2, 20040, Note_on_c, 0, 55, 40
2, 20040, Note_on_c, 0, 50, 40
2, 20130, Note_on_c, 0, 50, 0
2, 20130, Note_on_c, 0, 55, 0
2, 20160, Note_on_c, 0, 48, 46
2, 20160, Note_on_c, 0, 54, 46
2, 20250, Note_on_c, 0, 54, 0
2, 20250, Note_on_c, 0, 48, 0
2, 20640, Note_on_c, 0, 60, 43
2, 20760, Note_on_c, 0, 60, 0
2, 20760, Note_on_c, 0, 62, 37
2, 20880, Note_on_c, 0, 62, 0
2, 20880, Note_on_c, 0, 60, 37
2, 21000, Note_on_c, 0, 60, 0
2, 21000, Note_on_c, 0, 57, 37
2, 21120, Note_on_c, 0, 57, 0
2, 21120, Note_on_c, 0, 69, 49
2, 21210, Note_on_c, 0, 69, 0
2, 21480, Note_on_c, 0, 60, 44
2, 21480, Note_on_c, 0, 50, 44
2, 21570, Note_on_c, 0, 50, 0
2, 21570, Note_on_c, 0, 60, 0
2, 21600, Note_on_c, 0, 50, 48
2, 21600, Note_on_c, 0, 58, 48
2, 21690, Note_on_c, 0, 58, 0
2, 21690, Note_on_c, 0, 50, 0
2, 22080, Note_on_c, 0, 55, 40
2, 22200, Note_on_c, 0, 55, 0
2, 22200, Note_on_c, 0, 57, 34
2, 22320, Note_on_c, 0, 57, 0
2, 22320, Note_on_c, 0, 55, 34
2, 22440, Note_on_c, 0, 55, 0
2, 22440, Note_on_c, 0, 50, 34
2, 22560, Note_on_c, 0, 50, 0
2, 22560, Note_on_c, 0, 67, 50
2, 22650, Note_on_c, 0, 67, 0
2, 22920, Note_on_c, 0, 65, 44
2, 22920, Note_on_c, 0, 55, 44
2, 23010, Note_on_c, 0, 55, 0
2, 23010, Note_on_c, 0, 65, 0
2, 23040, Note_on_c, 0, 63, 47
2, 23040, Note_on_c, 0, 55, 47
2, 23130, Note_on_c, 0, 55, 0
2, 23130, Note_on_c, 0, 63, 0
2, 23400, Note_on_c, 0, 55, 40
2, 23400, Note_on_c, 0, 62, 40
2, 23490, Note_on_c, 0, 62, 0
2, 23490, Note_on_c, 0, 55, 0
2, 23520, Note_on_c, 0, 55, 44
2, 23520, Note_on_c, 0, 60, 44
2, 23610, Note_on_c, 0, 60, 0
2, 23610, Note_on_c, 0, 55, 0
2, 23880, Note_on_c, 0, 58, 50
2, 23970, Note_on_c, 0, 58, 0
2, 24000, Note_on_c, 0, 57, 46
2, 24000, Note_on_c, 0, 61, 46
2, 24090, Note_on_c, 0, 61, 0
2, 24090, Note_on_c, 0, 57, 0
2, 24360, Note_on_c, 0, 55, 40
2, 24450, Note_on_c, 0, 55, 0
2, 24480, Note_on_c, 0, 54, 50
2, 24480, Note_on_c, 0, 62, 50
2, 24600, Note_on_c, 0, 62, 0
2, 24600, Note_on_c, 0, 54, 0
2, 24960, Note_on_c, 0, 74, 72
2, 25440, Note_on_c, 0, 62, 61
2, 25800, Note_on_c, 0, 74, 0
2, 25800, Note_on_c, 0, 72, 58
2, 25920, Note_on_c, 0, 72, 0
2, 25920, Note_on_c, 0, 70, 65
2, 26010, Note_on_c, 0, 70, 0
2, 26280, Note_on_c, 0, 69, 55
2, 26370, Note_on_c, 0, 69, 0
2, 26400, Note_on_c, 0, 62, 0
2, 26400, Note_on_c, 0, 67, 64
2, 26400, Note_on_c, 0, 70, 64
2, 26490, Note_on_c, 0, 67, 0
2, 26760, Note_on_c, 0, 65, 56
2, 26850, Note_on_c, 0, 65, 0
2, 26880, Note_on_c, 0, 70, 0
2, 26880, Note_on_c, 0, 63, 64
2, 26970, Note_on_c, 0, 63, 0
2, 27240, Note_on_c, 0, 62, 56
2, 27330, Note_on_c, 0, 62, 0
2, 27360, Note_on_c, 0, 60, 64
2, 27450, Note_on_c, 0, 60, 0
2, 27840, Note_on_c, 0, 77, 68
2, 28320, Note_on_c, 0, 65, 61
2, 28680, Note_on_c, 0, 77, 0
2, 28680, Note_on_c, 0, 75, 58
2, 28800, Note_on_c, 0, 75, 0
2, 28800, Note_on_c, 0, 74, 65
2, 28890, Note_on_c, 0, 74, 0
2, 29160, Note_on_c, 0, 72, 55
2, 29250, Note_on_c, 0, 72, 0
2, 29280, Note_on_c, 0, 65, 0
2, 29280, Note_on_c, 0, 70, 64
2, 29280, Note_on_c, 0, 74, 64
2, 29370, Note_on_c, 0, 70, 0
2, 29640, Note_on_c, 0, 69, 56
2, 29730, Note_on_c, 0, 69, 0
2, 29760, Note_on_c, 0, 74, 0
2, 29760, Note_on_c, 0, 67, 64
2, 29850, Note_on_c, 0, 67, 0
2, 30120, Note_on_c, 0, 65, 56
2, 30210, Note_on_c, 0, 65, 0
2, 30240, Note_on_c, 0, 64, 64
2, 30330, Note_on_c, 0, 64, 0
2, 30720, Note_on_c, 0, 81, 70
2, 31200, Note_on_c, 0, 69, 61
2, 31560, Note_on_c, 0, 81, 0
2, 31560, Note_on_c, 0, 79, 58
2, 31680, Note_on_c, 0, 79, 0
2, 31680, Note_on_c, 0, 78, 65
2, 31770, Note_on_c, 0, 78, 0
2, 32040, Note_on_c, 0, 75, 55
2, 32130, Note_on_c, 0, 75, 0
2, 32160, Note_on_c, 0, 69, 0
2, 32160, Note_on_c, 0, 74, 64
2, 32160, Note_on_c, 0, 78, 64
2, 32250, Note_on_c, 0, 74, 0
2, 32520, Note_on_c, 0, 72, 56
2, 32610, Note_on_c, 0, 72, 0
2, 32640, Note_on_c, 0, 78, 0
2, 32640, Note_on_c, 0, 79, 64
2, 32640, Note_on_c, 0, 70, 64
2, 32730, Note_on_c, 0, 70, 0
2, 32730, Note_on_c, 0, 79, 0
2, 33000, Note_on_c, 0, 69, 56
2, 33090, Note_on_c, 0, 69, 0
2, 33120, Note_on_c, 0, 67, 64
2, 33210, Note_on_c, 0, 67, 0
2, 33600, Note_on_c, 0, 70, 71
2, 34080, Note_on_c, 0, 70, 0
2, 34080, Note_on_c, 0, 69, 52
2, 34080, Note_on_c, 0, 73, 62
2, 34440, Note_on_c, 0, 69, 0
2, 34440, Note_on_c, 0, 67, 58
2, 34560, Note_on_c, 0, 67, 0
2, 34560, Note_on_c, 0, 73, 0
2, 34560, Note_on_c, 0, 74, 61
2, 34560, Note_on_c, 0, 66, 56
2, 34650, Note_on_c, 0, 66, 0
2, 34650, Note_on_c, 0, 74, 0
2, 34920, Note_on_c, 0, 63, 51
2, 35010, Note_on_c, 0, 63, 0
2, 35040, Note_on_c, 0, 62, 59
2, 35040, Note_on_c, 0, 66, 59
2, 35130, Note_on_c, 0, 62, 0
2, 35400, Note_on_c, 0, 60, 50
2, 35490, Note_on_c, 0, 60, 0
2, 35520, Note_on_c, 0, 66, 0
2, 35520, Note_on_c, 0, 67, 57
2, 35520, Note_on_c, 0, 58, 57
2, 35610, Note_on_c, 0, 58, 0
2, 35610, Note_on_c, 0, 67, 0
2, 35880, Note_on_c, 0, 57, 49
2, 35970, Note_on_c, 0, 57, 0
2, 36000, Note_on_c, 0, 55, 57
2, 36090, Note_on_c, 0, 55, 0
2, 36480, Note_on_c, 0, 58, 61
2, 36960, Note_on_c, 0, 58, 0
2, 36960, Note_on_c, 0, 57, 55
2, 36960, Note_on_c, 0, 61, 55
2, 37050, Note_on_c, 0, 57, 0
2, 37320, Note_on_c, 0, 55, 47
2, 37410, Note_on_c, 0, 55, 0
2, 37440, Note_on_c, 0, 61, 0
2, 37440, Note_on_c, 0, 62, 54
2, 37440, Note_on_c, 0, 54, 54
2, 37680, Note_on_c, 0, 54, 0
2, 37680, Note_on_c, 0, 62, 0
2, 37920, Note_on_c, 0, 70, 58
2, 38400, Note_on_c, 0, 58, 40
2, 38760, Note_on_c, 0, 70, 0
2, 38760, Note_on_c, 0, 66, 50
2, 38880, Note_on_c, 0, 66, 0
2, 38880, Note_on_c, 0, 67, 56
2, 39240, Note_on_c, 0, 67, 0
2, 39240, Note_on_c, 0, 69, 51
2, 39360, Note_on_c, 0, 69, 0
2, 39360, Note_on_c, 0, 58, 0
2, 39360, Note_on_c, 0, 70, 57
2, 39840, Note_on_c, 0, 58, 40
2, 40200, Note_on_c, 0, 70, 0
2, 40200, Note_on_c, 0, 66, 54
2, 40320, Note_on_c, 0, 66, 0
2, 40320, Note_on_c, 0, 67, 61
2, 40680, Note_on_c, 0, 67, 0
2, 40680, Note_on_c, 0, 69, 52
2, 40800, Note_on_c, 0, 69, 0
2, 40800, Note_on_c, 0, 58, 0
2, 40800, Note_on_c, 0, 70, 57
2, 41040, Note_on_c, 0, 70, 0
2, 41040, Note_on_c, 0, 58, 47
2, 41280, Note_on_c, 0, 58, 0
2, 41280, Note_on_c, 0, 74, 64
2, 41520, Note_on_c, 0, 74, 0
2, 41520, Note_on_c, 0, 72, 57
2, 41760, Note_on_c, 0, 72, 0
2, 41760, Note_on_c, 0, 74, 66
2, 42000, Note_on_c, 0, 74, 0
2, 42000, Note_on_c, 0, 72, 63
2, 42240, Note_on_c, 0, 72, 0
2, 42240, Note_on_c, 0, 70, 59
2, 42400, Note_on_c, 0, 70, 0
2, 42400, Note_on_c, 0, 67, 51
2, 42560, Note_on_c, 0, 67, 0
2, 42560, Note_on_c, 0, 63, 51
2, 42720, Note_on_c, 0, 63, 0
2, 42720, Note_on_c, 0, 62, 57
2, 42720, Note_on_c, 0, 57, 36
2, 43080, Note_on_c, 0, 62, 0
2, 43080, Note_on_c, 0, 60, 47
2, 43200, Note_on_c, 0, 60, 0
2, 43200, Note_on_c, 0, 57, 0
2, 43200, Note_on_c, 0, 58, 54
2, 43440, Note_on_c, 0, 58, 0
2, 43680, Note_on_c, 0, 77, 58
2, 44160, Note_on_c, 0, 65, 40
2, 44520, Note_on_c, 0, 77, 0
2, 44520, Note_on_c, 0, 73, 50
2, 44640, Note_on_c, 0, 73, 0
2, 44640, Note_on_c, 0, 74, 56
2, 45000, Note_on_c, 0, 74, 0
2, 45000, Note_on_c, 0, 75, 51
2, 45120, Note_on_c, 0, 75, 0
2, 45120, Note_on_c, 0, 65, 0
2, 45120, Note_on_c, 0, 77, 57
2, 45600, Note_on_c, 0, 65, 40
2, 45960, Note_on_c, 0, 77, 0
2, 45960, Note_on_c, 0, 73, 54
2, 46080, Note_on_c, 0, 73, 0
2, 46080, Note_on_c, 0, 74, 61
2, 46440, Note_on_c, 0, 74, 0
2, 46440, Note_on_c, 0, 75, 52
2, 46560, Note_on_c, 0, 75, 0
2, 46560, Note_on_c, 0, 65, 0
2, 46560, Note_on_c, 0, 77, 57
2, 46800, Note_on_c, 0, 77, 0
2, 46800, Note_on_c, 0, 65, 47
2, 47040, Note_on_c, 0, 65, 0
2, 47040, Note_on_c, 0, 81, 64
2, 47280, Note_on_c, 0, 81, 0
2, 47280, Note_on_c, 0, 79, 57
2, 47520, Note_on_c, 0, 79, 0
2, 47520, Note_on_c, 0, 81, 66
2, 47760, Note_on_c, 0, 81, 0
2, 47760, Note_on_c, 0, 79, 63
2, 48000, Note_on_c, 0, 79, 0
2, 48000, Note_on_c, 0, 77, 59
2, 48160, Note_on_c, 0, 77, 0
2, 48160, Note_on_c, 0, 74, 51
2, 48320, Note_on_c, 0, 74, 0
2, 48320, Note_on_c, 0, 70, 51
2, 48480, Note_on_c, 0, 70, 0
2, 48480, Note_on_c, 0, 64, 36
2, 48480, Note_on_c, 0, 69, 57
2, 48840, Note_on_c, 0, 69, 0
2, 48840, Note_on_c, 0, 67, 47
2, 48960, Note_on_c, 0, 67, 0
2, 48960, Note_on_c, 0, 64, 0
2, 48960, Note_on_c, 0, 65, 54
2, 49200, Note_on_c, 0, 65, 0
2, 49440, Note_on_c, 0, 82, 58
2, 49920, Note_on_c, 0, 70, 40
2, 50280, Note_on_c, 0, 82, 0
2, 50280, Note_on_c, 0, 77, 50
2, 50400, Note_on_c, 0, 77, 0
2, 50400, Note_on_c, 0, 78, 60
2, 50760, Note_on_c, 0, 78, 0
2, 50760, Note_on_c, 0, 80, 57
2, 50880, Note_on_c, 0, 80, 0
2, 50880, Note_on_c, 0, 70, 0
2, 50880, Note_on_c, 0, 82, 62
2, 51360, Note_on_c, 0, 70, 40
2, 51720, Note_on_c, 0, 82, 0
2, 51720, Note_on_c, 0, 77, 57
2, 51840, Note_on_c, 0, 77, 0
2, 51840, Note_on_c, 0, 78, 63
2, 52200, Note_on_c, 0, 78, 0
2, 52200, Note_on_c, 0, 80, 55
2, 52320, Note_on_c, 0, 80, 0
2, 52320, Note_on_c, 0, 70, 0
2, 52320, Note_on_c, 0, 82, 60
2, 52560, Note_on_c, 0, 82, 0
2, 52560, Note_on_c, 0, 73, 50
2, 52800, Note_on_c, 0, 73, 0
2, 52800, Note_on_c, 0, 89, 65
2, 53040, Note_on_c, 0, 89, 0
2, 53040, Note_on_c, 0, 87, 60
2, 53280, Note_on_c, 0, 87, 0
2, 53280, Note_on_c, 0, 89, 66
2, 53520, Note_on_c, 0, 89, 0
2, 53520, Note_on_c, 0, 87, 63
2, 53760, Note_on_c, 0, 87, 0
2, 53760, Note_on_c, 0, 85, 62
2, 53920, Note_on_c, 0, 85, 0
2, 53920, Note_on_c, 0, 82, 57
2, 54080, Note_on_c, 0, 82, 0
2, 54080, Note_on_c, 0, 78, 51
2, 54240, Note_on_c, 0, 78, 0
2, 54240, Note_on_c, 0, 72, 36
2, 54240, Note_on_c, 0, 77, 57
2, 54600, Note_on_c, 0, 77, 0
2, 54600, Note_on_c, 0, 75, 47
2, 54720, Note_on_c, 0, 75, 0
2, 54720, Note_on_c, 0, 72, 0
2, 54720, Note_on_c, 0, 73, 54
2, 54960, Note_on_c, 0, 73, 0
2, 55200, Note_on_c, 0, 80, 58
2, 55680, Note_on_c, 0, 68, 40
2, 56040, Note_on_c, 0, 80, 0
2, 56040, Note_on_c, 0, 75, 50
2, 56160, Note_on_c, 0, 75, 0
2, 56160, Note_on_c, 0, 77, 56
2, 56520, Note_on_c, 0, 77, 0
2, 56520, Note_on_c, 0, 78, 51
2, 56640, Note_on_c, 0, 78, 0
2, 56640, Note_on_c, 0, 68, 0
2, 56640, Note_on_c, 0, 80, 57
2, 57120, Note_on_c, 0, 68, 40
2, 57480, Note_on_c, 0, 80, 0
2, 57480, Note_on_c, 0, 75, 54
2, 57600, Note_on_c, 0, 75, 0
2, 57600, Note_on_c, 0, 77, 61
2, 57960, Note_on_c, 0, 77, 0
2, 57960, Note_on_c, 0, 78, 52
2, 58080, Note_on_c, 0, 78, 0
2, 58080, Note_on_c, 0, 68, 0
2, 58080, Note_on_c, 0, 80, 57
2, 58320, Note_on_c, 0, 80, 0
2, 58320, Note_on_c, 0, 70, 47
2, 58560, Note_on_c, 0, 70, 0
2, 58560, Note_on_c, 0, 84, 64
2, 58800, Note_on_c, 0, 84, 0
2, 58800, Note_on_c, 0, 82, 57
2, 59040, Note_on_c, 0, 82, 0
2, 59040, Note_on_c, 0, 84, 66
2, 59280, Note_on_c, 0, 84, 0
2, 59280, Note_on_c, 0, 82, 63
2, 59520, Note_on_c, 0, 82, 0
2, 59520, Note_on_c, 0, 80, 59
2, 59680, Note_on_c, 0, 80, 0
2, 59680, Note_on_c, 0, 77, 51
2, 59840, Note_on_c, 0, 77, 0
2, 59840, Note_on_c, 0, 73, 51
2, 60000, Note_on_c, 0, 73, 0
2, 60000, Note_on_c, 0, 72, 57
2, 60000, Note_on_c, 0, 67, 36
2, 60360, Note_on_c, 0, 72, 0
2, 60360, Note_on_c, 0, 70, 47
2, 60480, Note_on_c, 0, 70, 0
2, 60480, Note_on_c, 0, 67, 0
2, 60480, Note_on_c, 0, 68, 54
2, 60720, Note_on_c, 0, 68, 0
2, 61440, Note_on_c, 0, 68, 40
2, 61440, Note_on_c, 0, 63, 34
2, 61440, Note_on_c, 0, 60, 34
2, 62400, Note_on_c, 0, 60, 0
2, 62400, Note_on_c, 0, 63, 0
2, 62400, Note_on_c, 0, 68, 0
2, 62400, Note_on_c, 0, 69, 52
2, 63240, Note_on_c, 0, 69, 0
2, 63240, Note_on_c, 0, 62, 45
2, 63360, Note_on_c, 0, 62, 0
2, 63360, Note_on_c, 0, 63, 50
2, 63720, Note_on_c, 0, 63, 0
2, 63720, Note_on_c, 0, 65, 45
2, 63840, Note_on_c, 0, 65, 0
2, 63840, Note_on_c, 0, 60, 50
2, 63840, Note_on_c, 0, 66, 51
2, 65280, Note_on_c, 0, 66, 0
2, 65280, Note_on_c, 0, 60, 0
2, 65280, Note_on_c, 0, 66, 52
2, 66120, Note_on_c, 0, 66, 0
2, 66120, Note_on_c, 0, 59, 45
2, 66240, Note_on_c, 0, 59, 0
2, 66240, Note_on_c, 0, 60, 50
2, 66600, Note_on_c, 0, 60, 0
2, 66600, Note_on_c, 0, 61, 45
2, 66720, Note_on_c, 0, 61, 0
2, 66720, Note_on_c, 0, 63, 51
2, 67560, Note_on_c, 0, 53, 45
2, 67680, Note_on_c, 0, 53, 0
2, 67680, Note_on_c, 0, 63, 0
2, 67680, Note_on_c, 0, 63, 51
2, 67680, Note_on_c, 0, 54, 50
2, 68040, Note_on_c, 0, 54, 0
2, 68040, Note_on_c, 0, 56, 45
2, 68160, Note_on_c, 0, 56, 0
2, 68160, Note_on_c, 0, 63, 0
2, 68160, Note_on_c, 0, 57, 51
2, 69000, Note_on_c, 0, 50, 45
2, 69120, Note_on_c, 0, 50, 0
2, 69120, Note_on_c, 0, 51, 50
2, 69480, Note_on_c, 0, 51, 0
2, 69480, Note_on_c, 0, 52, 45
2, 69600, Note_on_c, 0, 52, 0
2, 69600, Note_on_c, 0, 57, 0
2, 69600, Note_on_c, 0, 54, 51
2, 70440, Note_on_c, 0, 49, 45
2, 70560, Note_on_c, 0, 49, 0
2, 70560, Note_on_c, 0, 50, 50
2, 70920, Note_on_c, 0, 50, 0
2, 70920, Note_on_c, 0, 52, 51
2, 71040, Note_on_c, 0, 52, 0
2, 71040, Note_on_c, 0, 54, 0
2, 71040, Note_on_c, 0, 54, 55
2, 71880, Note_on_c, 0, 54, 0
2, 72480, Note_on_c, 0, 55, 40
2, 72600, Note_on_c, 0, 55, 0
2, 72600, Note_on_c, 0, 57, 32
2, 72720, Note_on_c, 0, 57, 0
2, 72720, Note_on_c, 0, 55, 34
2, 72840, Note_on_c, 0, 55, 0
2, 72840, Note_on_c, 0, 50, 34
2, 72960, Note_on_c, 0, 50, 0
2, 72960, Note_on_c, 0, 62, 40
2, 73050, Note_on_c, 0, 62, 0
2, 73320, Note_on_c, 0, 50, 40
2, 73320, Note_on_c, 0, 55, 40
2, 73410, Note_on_c, 0, 55, 0
2, 73410, Note_on_c, 0, 50, 0
2, 73440, Note_on_c, 0, 48, 46
2, 73440, Note_on_c, 0, 54, 46
2, 73530, Note_on_c, 0, 54, 0
2, 73530, Note_on_c, 0, 48, 0
2, 73920, Note_on_c, 0, 60, 43
2, 74040, Note_on_c, 0, 60, 0
2, 74040, Note_on_c, 0, 62, 37
2, 74160, Note_on_c, 0, 62, 0
2, 74160, Note_on_c, 0, 60, 37
2, 74280, Note_on_c, 0, 60, 0
2, 74280, Note_on_c, 0, 57, 37
2, 74400, Note_on_c, 0, 57, 0
2, 74400, Note_on_c, 0, 69, 49
2, 74490, Note_on_c, 0, 69, 0
2, 74760, Note_on_c, 0, 60, 44
2, 74760, Note_on_c, 0, 50, 44
2, 74850, Note_on_c, 0, 50, 0
2, 74850, Note_on_c, 0, 60, 0
2, 74880, Note_on_c, 0, 58, 48
2, 74880, Note_on_c, 0, 50, 48
2, 74970, Note_on_c, 0, 50, 0
2, 74970, Note_on_c, 0, 58, 0
2, 75360, Note_on_c, 0, 55, 40
2, 75480, Note_on_c, 0, 55, 0
2, 75480, Note_on_c, 0, 57, 34
2, 75600, Note_on_c, 0, 57, 0
2, 75600, Note_on_c, 0, 55, 34
2, 75720, Note_on_c, 0, 55, 0
2, 75720, Note_on_c, 0, 50, 34
2, 75840, Note_on_c, 0, 50, 0
2, 75840, Note_on_c, 0, 67, 50
2, 75930, Note_on_c, 0, 67, 0
2, 76200, Note_on_c, 0, 65, 44
2, 76200, Note_on_c, 0, 55, 44
2, 76290, Note_on_c, 0, 55, 0
2, 76290, Note_on_c, 0, 65, 0
2, 76320, Note_on_c, 0, 63, 47
2, 76320, Note_on_c, 0, 55, 47
2, 76410, Note_on_c, 0, 55, 0
2, 76410, Note_on_c, 0, 63, 0
2, 76680, Note_on_c, 0, 62, 40
2, 76680, Note_on_c, 0, 55, 40
2, 76770, Note_on_c, 0, 55, 0
2, 76770, Note_on_c, 0, 62, 0
2, 76800, Note_on_c, 0, 60, 44
2, 76800, Note_on_c, 0, 55, 44
2, 76890, Note_on_c, 0, 55, 0
2, 76890, Note_on_c, 0, 60, 0
2, 77160, Note_on_c, 0, 58, 50
2, 77250, Note_on_c, 0, 58, 0
2, 77280, Note_on_c, 0, 61, 46
2, 77280, Note_on_c, 0, 57, 46
2, 77370, Note_on_c, 0, 57, 0
2, 77370, Note_on_c, 0, 61, 0
2, 77640, Note_on_c, 0, 55, 40
2, 77730, Note_on_c, 0, 55, 0
2, 77760, Note_on_c, 0, 62, 50
2, 77760, Note_on_c, 0, 54, 50
2, 77850, Note_on_c, 0, 54, 0
2, 77850, Note_on_c, 0, 62, 0
2, 78240, Note_on_c, 0, 74, 72
2, 78720, Note_on_c, 0, 62, 61
2, 79080, Note_on_c, 0, 74, 0
2, 79080, Note_on_c, 0, 72, 58
2, 79200, Note_on_c, 0, 72, 0
2, 79200, Note_on_c, 0, 70, 65
2, 79290, Note_on_c, 0, 70, 0
2, 79560, Note_on_c, 0, 69, 55
2, 79650, Note_on_c, 0, 69, 0
2, 79680, Note_on_c, 0, 62, 0
2, 79680, Note_on_c, 0, 70, 64
2, 79680, Note_on_c, 0, 67, 64
2, 79770, Note_on_c, 0, 67, 0
2, 80040, Note_on_c, 0, 65, 56
2, 80130, Note_on_c, 0, 65, 0
2, 80160, Note_on_c, 0, 70, 0
2, 80160, Note_on_c, 0, 63, 64
2, 80250, Note_on_c, 0, 63, 0
2, 80520, Note_on_c, 0, 62, 56
2, 80610, Note_on_c, 0, 62, 0
2, 80640, Note_on_c, 0, 60, 64
2, 80730, Note_on_c, 0, 60, 0
2, 81120, Note_on_c, 0, 77, 68
2, 81600, Note_on_c, 0, 65, 61
2, 81960, Note_on_c, 0, 77, 0
2, 81960, Note_on_c, 0, 75, 58
2, 82080, Note_on_c, 0, 75, 0
2, 82080, Note_on_c, 0, 74, 65
2, 82170, Note_on_c, 0, 74, 0
2, 82440, Note_on_c, 0, 72, 55
2, 82530, Note_on_c, 0, 72, 0
2, 82560, Note_on_c, 0, 65, 0
2, 82560, Note_on_c, 0, 70, 64
2, 82560, Note_on_c, 0, 74, 64
2, 82650, Note_on_c, 0, 70, 0
2, 82920, Note_on_c, 0, 69, 56
2, 83010, Note_on_c, 0, 69, 0
2, 83040, Note_on_c, 0, 74, 0
2, 83040, Note_on_c, 0, 67, 64
2, 83130, Note_on_c, 0, 67, 0
2, 83400, Note_on_c, 0, 65, 56
2, 83490, Note_on_c, 0, 65, 0
2, 83520, Note_on_c, 0, 64, 64
2, 83610, Note_on_c, 0, 64, 0
2, 84000, Note_on_c, 0, 81, 70
2, 84480, Note_on_c, 0, 69, 61
2, 84840, Note_on_c, 0, 81, 0
2, 84840, Note_on_c, 0, 79, 58
2, 84960, Note_on_c, 0, 79, 0
2, 84960, Note_on_c, 0, 78, 65
2, 85050, Note_on_c, 0, 78, 0
2, 85320, Note_on_c, 0, 75, 55
2, 85410, Note_on_c, 0, 75, 0
2, 85440, Note_on_c, 0, 69, 0
2, 85440, Note_on_c, 0, 74, 64
2, 85440, Note_on_c, 0, 78, 64
2, 85530, Note_on_c, 0, 74, 0
2, 85800, Note_on_c, 0, 72, 56
2, 85890, Note_on_c, 0, 72, 0
2, 85920, Note_on_c, 0, 78, 0
2, 85920, Note_on_c, 0, 79, 64
2, 85920, Note_on_c, 0, 70, 64
2, 86010, Note_on_c, 0, 70, 0
2, 86040, Note_on_c, 0, 79, 0
2, 86280, Note_on_c, 0, 69, 56
2, 86370, Note_on_c, 0, 69, 0
2, 86400, Note_on_c, 0, 67, 64
2, 86490, Note_on_c, 0, 67, 0
2, 86880, Note_on_c, 0, 70, 71
2, 87360, Note_on_c, 0, 70, 0
2, 87360, Note_on_c, 0, 69, 52
2, 87360, Note_on_c, 0, 73, 62
2, 87720, Note_on_c, 0, 69, 0
2, 87720, Note_on_c, 0, 67, 58
2, 87840, Note_on_c, 0, 67, 0
2, 87840, Note_on_c, 0, 73, 0
2, 87840, Note_on_c, 0, 66, 56
2, 87840, Note_on_c, 0, 74, 61
2, 88080, Note_on_c, 0, 74, 0
2, 88080, Note_on_c, 0, 66, 0
2, 88200, Note_on_c, 0, 68, 51
2, 88290, Note_on_c, 0, 68, 0
2, 88320, Note_on_c, 0, 67, 59
2, 88320, Note_on_c, 0, 71, 59
2, 88560, Note_on_c, 0, 67, 0
2, 88680, Note_on_c, 0, 65, 49
2, 88770, Note_on_c, 0, 65, 0
2, 88800, Note_on_c, 0, 71, 0
2, 88800, Note_on_c, 0, 63, 55
2, 88800, Note_on_c, 0, 72, 55
2, 89040, Note_on_c, 0, 72, 0
2, 89040, Note_on_c, 0, 63, 0
2, 89160, Note_on_c, 0, 62, 47
2, 89280, Note_on_c, 0, 62, 0
2, 89280, Note_on_c, 0, 60, 54
2, 89760, Note_on_c, 0, 60, 0
2, 89760, Note_on_c, 0, 63, 56
2, 90240, Note_on_c, 0, 63, 0
2, 90240, Note_on_c, 0, 66, 49
2, 90240, Note_on_c, 0, 62, 49
2, 90600, Note_on_c, 0, 62, 0
2, 90600, Note_on_c, 0, 60, 41
2, 90720, Note_on_c, 0, 60, 0
2, 90720, Note_on_c, 0, 66, 0
2, 90720, Note_on_c, 0, 58, 39
2, 90720, Note_on_c, 0, 67, 47
2, 91200, Note_on_c, 0, 67, 0
2, 91200, Note_on_c, 0, 58, 0
2, 91200, Note_on_c, 0, 63, 38
2, 91200, Note_on_c, 0, 60, 38
2, 91200, Note_on_c, 0, 67, 45
2, 91680, Note_on_c, 0, 67, 0
2, 91680, Note_on_c, 0, 60, 0
2, 91680, Note_on_c, 0, 63, 0
2, 91680, Note_on_c, 0, 69, 48
2, 91680, Note_on_c, 0, 66, 40
2, 91680, Note_on_c, 0, 60, 40
2, 91680, Note_on_c, 0, 63, 40
2, 92160, Note_on_c, 0, 63, 0
2, 92160, Note_on_c, 0, 69, 0
2, 92160, Note_on_c, 0, 66, 0
2, 92160, Note_on_c, 0, 60, 0
2, 92160, Note_on_c, 0, 70, 57
2, 92160, Note_on_c, 0, 62, 48
2, 92400, Note_on_c, 0, 62, 0
2, 92400, Note_on_c, 0, 70, 0
2, 92400, Note_on_c, 0, 72, 47
2, 92640, Note_on_c, 0, 72, 0
2, 92640, Note_on_c, 0, 69, 51
2, 92880, Note_on_c, 0, 69, 0
2, 92880, Note_on_c, 0, 70, 47
2, 93120, Note_on_c, 0, 70, 0
2, 93120, Note_on_c, 0, 67, 58
2, 93360, Note_on_c, 0, 67, 0
2, 93360, Note_on_c, 0, 74, 54
2, 93600, Note_on_c, 0, 74, 0
2, 93600, Note_on_c, 0, 74, 62
2, 94080, Note_on_c, 0, 74, 0
2, 94080, Note_on_c, 0, 63, 40
2, 94080, Note_on_c, 0, 67, 47
2, 94080, Note_on_c, 0, 60, 40
2, 94560, Note_on_c, 0, 60, 0
2, 94560, Note_on_c, 0, 67, 0
2, 94560, Note_on_c, 0, 63, 0
2, 94560, Note_on_c, 0, 69, 50
2, 94560, Note_on_c, 0, 63, 42
2, 94560, Note_on_c, 0, 60, 42
2, 94560, Note_on_c, 0, 66, 42
2, 95040, Note_on_c, 0, 66, 0
2, 95040, Note_on_c, 0, 69, 0
2, 95040, Note_on_c, 0, 63, 0
2, 95040, Note_on_c, 0, 60, 0
2, 95040, Note_on_c, 0, 62, 50
2, 95040, Note_on_c, 0, 70, 59
2, 95280, Note_on_c, 0, 70, 0
2, 95280, Note_on_c, 0, 62, 0
2, 95280, Note_on_c, 0, 72, 49
2, 95520, Note_on_c, 0, 72, 0
2, 95520, Note_on_c, 0, 69, 53
2, 95760, Note_on_c, 0, 69, 0
2, 95760, Note_on_c, 0, 70, 49
2, 96000, Note_on_c, 0, 70, 0
2, 96000, Note_on_c, 0, 67, 63
2, 96240, Note_on_c, 0, 67, 0
2, 96240, Note_on_c, 0, 75, 56
2, 96480, Note_on_c, 0, 75, 0
2, 96480, Note_on_c, 0, 75, 63
2, 96960, Note_on_c, 0, 75, 0
2, 96960, Note_on_c, 0, 63, 47
2, 96960, Note_on_c, 0, 67, 56
2, 96960, Note_on_c, 0, 60, 47
2, 97198, Note_on_c, 0, 60, 0
2, 97198, Note_on_c, 0, 67, 0
2, 97198, Note_on_c, 0, 63, 0
2, 97440, Note_on_c, 0, 60, 49
2, 97440, Note_on_c, 0, 63, 49
2, 97440, Note_on_c, 0, 69, 59
2, 97920, Note_on_c, 0, 63, 0
2, 97920, Note_on_c, 0, 60, 0
2, 97920, Note_on_c, 0, 62, 52
2, 98160, Note_on_c, 0, 62, 0
2, 98160, Note_on_c, 0, 69, 0
2, 98160, Note_on_c, 0, 70, 51
2, 98400, Note_on_c, 0, 70, 0
2, 98400, Note_on_c, 0, 67, 56
2, 98640, Note_on_c, 0, 67, 0
2, 98640, Note_on_c, 0, 69, 51
2, 98880, Note_on_c, 0, 69, 0
2, 98880, Note_on_c, 0, 65, 63
2, 99120, Note_on_c, 0, 65, 0
2, 99120, Note_on_c, 0, 74, 56
2, 99360, Note_on_c, 0, 74, 0
2, 99360, Note_on_c, 0, 74, 67
2, 99840, Note_on_c, 0, 74, 0
2, 99840, Note_on_c, 0, 58, 47
2, 99840, Note_on_c, 0, 62, 47
2, 99840, Note_on_c, 0, 65, 56
2, 100078, Note_on_c, 0, 65, 0
2, 100078, Note_on_c, 0, 62, 0
2, 100078, Note_on_c, 0, 58, 0
2, 100320, Note_on_c, 0, 62, 49
2, 100320, Note_on_c, 0, 67, 59
2, 100320, Note_on_c, 0, 58, 49
2, 100800, Note_on_c, 0, 58, 0
2, 100800, Note_on_c, 0, 62, 0
2, 100800, Note_on_c, 0, 60, 52
2, 101040, Note_on_c, 0, 60, 0
2, 101040, Note_on_c, 0, 67, 0
2, 101040, Note_on_c, 0, 69, 51
2, 101280, Note_on_c, 0, 69, 0
2, 101280, Note_on_c, 0, 65, 56
2, 101520, Note_on_c, 0, 65, 0
2, 101520, Note_on_c, 0, 67, 51
2, 101760, Note_on_c, 0, 67, 0
2, 101760, Note_on_c, 0, 63, 63
2, 102000, Note_on_c, 0, 63, 0
2, 102000, Note_on_c, 0, 72, 56
2, 102240, Note_on_c, 0, 72, 0
2, 102240, Note_on_c, 0, 72, 67
2, 102720, Note_on_c, 0, 72, 0
2, 102720, Note_on_c, 0, 60, 47
2, 102720, Note_on_c, 0, 55, 47
2, 102720, Note_on_c, 0, 63, 56
2, 102958, Note_on_c, 0, 55, 0
2, 102958, Note_on_c, 0, 60, 0
2, 102958, Note_on_c, 0, 63, 0
2, 103200, Note_on_c, 0, 57, 49
2, 103200, Note_on_c, 0, 54, 49
2, 103200, Note_on_c, 0, 62, 58
2, 103680, Note_on_c, 0, 54, 0
2, 103680, Note_on_c, 0, 57, 0
2, 103680, Note_on_c, 0, 55, 52
2, 103920, Note_on_c, 0, 55, 0
2, 103920, Note_on_c, 0, 62, 0
2, 103920, Note_on_c, 0, 63, 50
2, 104160, Note_on_c, 0, 63, 0
2, 104160, Note_on_c, 0, 60, 55
2, 104400, Note_on_c, 0, 60, 0
2, 104400, Note_on_c, 0, 62, 50
2, 104640, Note_on_c, 0, 62, 0
2, 104640, Note_on_c, 0, 58, 64
2, 104880, Note_on_c, 0, 58, 0
2, 104880, Note_on_c, 0, 67, 56
2, 105120, Note_on_c, 0, 67, 0
2, 105120, Note_on_c, 0, 67, 64
2, 105600, Note_on_c, 0, 67, 0
2, 105600, Note_on_c, 0, 60, 51
2, 105600, Note_on_c, 0, 55, 51
2, 105600, Note_on_c, 0, 63, 61
2, 105960, Note_on_c, 0, 63, 0
2, 105960, Note_on_c, 0, 55, 0
2, 105960, Note_on_c, 0, 60, 0
2, 106080, Note_on_c, 0, 54, 54
2, 106080, Note_on_c, 0, 62, 64
2, 106080, Note_on_c, 0, 57, 54
2, 106560, Note_on_c, 0, 57, 0
2, 106560, Note_on_c, 0, 54, 0
2, 106560, Note_on_c, 0, 55, 57
2, 106800, Note_on_c, 0, 55, 0
2, 106800, Note_on_c, 0, 62, 0
2, 106800, Note_on_c, 0, 62, 56
2, 107040, Note_on_c, 0, 62, 0
2, 107040, Note_on_c, 0, 64, 59
2, 107280, Note_on_c, 0, 64, 0
2, 107280, Note_on_c, 0, 66, 63
2, 107520, Note_on_c, 0, 66, 0
2, 107520, Note_on_c, 0, 67, 66
2, 107760, Note_on_c, 0, 67, 0
2, 107760, Note_on_c, 0, 69, 69
2, 108000, Note_on_c, 0, 69, 0
2, 108000, Note_on_c, 0, 70, 75
2, 108480, Note_on_c, 0, 70, 0
2, 108480, Note_on_c, 0, 70, 67
2, 108480, Note_on_c, 0, 67, 67
2, 108480, Note_on_c, 0, 74, 80
2, 108960, Note_on_c, 0, 74, 0
2, 108960, Note_on_c, 0, 67, 0
2, 108960, Note_on_c, 0, 70, 0
2, 108960, Note_on_c, 0, 70, 70
2, 108960, Note_on_c, 0, 67, 70
2, 108960, Note_on_c, 0, 76, 83
2, 108960, Note_on_c, 0, 73, 70
2, 109440, Note_on_c, 0, 73, 0
2, 109440, Note_on_c, 0, 70, 0
2, 109440, Note_on_c, 0, 67, 0
2, 109440, Note_on_c, 0, 76, 0
2, 109440, Note_on_c, 0, 77, 74
2, 109440, Note_on_c, 0, 69, 62
2, 109440, Note_on_c, 0, 74, 62
2, 109680, Note_on_c, 0, 74, 0
2, 109680, Note_on_c, 0, 69, 0
2, 109680, Note_on_c, 0, 77, 0
2, 109680, Note_on_c, 0, 79, 73
2, 109920, Note_on_c, 0, 79, 0
2, 109920, Note_on_c, 0, 76, 80
2, 110160, Note_on_c, 0, 76, 0
2, 110160, Note_on_c, 0, 77, 73
2, 110400, Note_on_c, 0, 77, 0
2, 110400, Note_on_c, 0, 74, 88
2, 110640, Note_on_c, 0, 74, 0
2, 110640, Note_on_c, 0, 82, 80
2, 110880, Note_on_c, 0, 82, 0
2, 110880, Note_on_c, 0, 82, 88
2, 111360, Note_on_c, 0, 82, 0
2, 111360, Note_on_c, 0, 70, 67
2, 111360, Note_on_c, 0, 67, 67
2, 111360, Note_on_c, 0, 74, 80
2, 111840, Note_on_c, 0, 74, 0
2, 111840, Note_on_c, 0, 67, 0
2, 111840, Note_on_c, 0, 70, 0
2, 111840, Note_on_c, 0, 70, 70
2, 111840, Note_on_c, 0, 67, 70
2, 111840, Note_on_c, 0, 76, 83
2, 111840, Note_on_c, 0, 73, 70
2, 112320, Note_on_c, 0, 73, 0
2, 112320, Note_on_c, 0, 70, 0
2, 112320, Note_on_c, 0, 67, 0
2, 112320, Note_on_c, 0, 76, 0
2, 112320, Note_on_c, 0, 77, 74
2, 112320, Note_on_c, 0, 69, 62
2, 112320, Note_on_c, 0, 74, 62
2, 112560, Note_on_c, 0, 74, 0
2, 112560, Note_on_c, 0, 69, 0
2, 112560, Note_on_c, 0, 77, 0
2, 112560, Note_on_c, 0, 79, 73
2, 112800, Note_on_c, 0, 79, 0
2, 112800, Note_on_c, 0, 76, 80
2, 113040, Note_on_c, 0, 76, 0
2, 113040, Note_on_c, 0, 77, 73
2, 113280, Note_on_c, 0, 77, 0
2, 113280, Note_on_c, 0, 74, 87
2, 113520, Note_on_c, 0, 74, 0
2, 113520, Note_on_c, 0, 82, 80
2, 113760, Note_on_c, 0, 82, 0
2, 113760, Note_on_c, 0, 82, 89
2, 114240, Note_on_c, 0, 82, 0
2, 114240, Note_on_c, 0, 74, 62
2, 114240, Note_on_c, 0, 65, 51
2, 114240, Note_on_c, 0, 70, 51
2, 114600, Note_on_c, 0, 70, 0
2, 114600, Note_on_c, 0, 65, 0
2, 114600, Note_on_c, 0, 74, 0
2, 114720, Note_on_c, 0, 70, 54
2, 114720, Note_on_c, 0, 66, 54
2, 114720, Note_on_c, 0, 74, 64
2, 115080, Note_on_c, 0, 74, 0
2, 115080, Note_on_c, 0, 66, 0
2, 115080, Note_on_c, 0, 70, 0
2, 115200, Note_on_c, 0, 67, 52
2, 115200, Note_on_c, 0, 72, 62
2, 115200, Note_on_c, 0, 70, 52
2, 115440, Note_on_c, 0, 70, 0
2, 115440, Note_on_c, 0, 72, 0
2, 115440, Note_on_c, 0, 67, 0
2, 115440, Note_on_c, 0, 79, 65
2, 115920, Note_on_c, 0, 79, 0
2, 115920, Note_on_c, 0, 75, 56
2, 116160, Note_on_c, 0, 75, 0
2, 116160, Note_on_c, 0, 72, 66
2, 116400, Note_on_c, 0, 72, 0
2, 116400, Note_on_c, 0, 70, 54
2, 116640, Note_on_c, 0, 70, 0
2, 116640, Note_on_c, 0, 69, 61
2, 116880, Note_on_c, 0, 69, 0
2, 116880, Note_on_c, 0, 75, 68
2, 117360, Note_on_c, 0, 75, 0
2, 117360, Note_on_c, 0, 72, 47
2, 117600, Note_on_c, 0, 72, 0
2, 117600, Note_on_c, 0, 69, 57
2, 117840, Note_on_c, 0, 69, 0
2, 117840, Note_on_c, 0, 67, 45
2, 118080, Note_on_c, 0, 67, 0
2, 118080, Note_on_c, 0, 69, 52
2, 118200, Note_on_c, 0, 69, 0
2, 118200, Note_on_c, 0, 74, 43
2, 118440, Note_on_c, 0, 74, 0
2, 118560, Note_on_c, 0, 67, 45
2, 118560, Note_on_c, 0, 60, 38
2, 118560, Note_on_c, 0, 63, 38
2, 119040, Note_on_c, 0, 63, 0
2, 119040, Note_on_c, 0, 60, 0
2, 119040, Note_on_c, 0, 67, 0
2, 119040, Note_on_c, 0, 63, 40
2, 119040, Note_on_c, 0, 66, 40
2, 119040, Note_on_c, 0, 60, 40
2, 119040, Note_on_c, 0, 69, 48
2, 119520, Note_on_c, 0, 69, 0
2, 119520, Note_on_c, 0, 63, 0
2, 119520, Note_on_c, 0, 66, 0
2, 119520, Note_on_c, 0, 60, 0
2, 119520, Note_on_c, 0, 62, 48
2, 119520, Note_on_c, 0, 70, 57
2, 119760, Note_on_c, 0, 70, 0
2, 119760, Note_on_c, 0, 62, 0
2, 119760, Note_on_c, 0, 72, 47
2, 120000, Note_on_c, 0, 72, 0
2, 120000, Note_on_c, 0, 69, 51
2, 120240, Note_on_c, 0, 69, 0
2, 120240, Note_on_c, 0, 70, 47
2, 120480, Note_on_c, 0, 70, 0
2, 120480, Note_on_c, 0, 67, 61
2, 120720, Note_on_c, 0, 67, 0
2, 120720, Note_on_c, 0, 74, 54
2, 120960, Note_on_c, 0, 74, 0
2, 120960, Note_on_c, 0, 74, 66
2, 121440, Note_on_c, 0, 74, 0
2, 121440, Note_on_c, 0, 60, 40
2, 121440, Note_on_c, 0, 63, 40
2, 121440, Note_on_c, 0, 67, 47
2, 121678, Note_on_c, 0, 67, 0
2, 121678, Note_on_c, 0, 63, 0
2, 121678, Note_on_c, 0, 60, 0
2, 121920, Note_on_c, 0, 63, 42
2, 121920, Note_on_c, 0, 66, 42
2, 121920, Note_on_c, 0, 60, 42
2, 121920, Note_on_c, 0, 69, 50
2, 122400, Note_on_c, 0, 69, 0
2, 122400, Note_on_c, 0, 63, 0
2, 122400, Note_on_c, 0, 66, 0
2, 122400, Note_on_c, 0, 60, 0
2, 122400, Note_on_c, 0, 70, 59
2, 122400, Note_on_c, 0, 62, 50
2, 122640, Note_on_c, 0, 62, 0
2, 122640, Note_on_c, 0, 70, 0
2, 122640, Note_on_c, 0, 72, 49
2, 122880, Note_on_c, 0, 72, 0
2, 122880, Note_on_c, 0, 69, 53
2, 123120, Note_on_c, 0, 69, 0
2, 123120, Note_on_c, 0, 70, 49
2, 123360, Note_on_c, 0, 70, 0
2, 123360, Note_on_c, 0, 67, 65
2, 123600, Note_on_c, 0, 67, 0
2, 123600, Note_on_c, 0, 75, 58
2, 123840, Note_on_c, 0, 75, 0
2, 123840, Note_on_c, 0, 75, 68
2, 124320, Note_on_c, 0, 75, 0
2, 124320, Note_on_c, 0, 63, 47
2, 124320, Note_on_c, 0, 60, 47
2, 124320, Note_on_c, 0, 67, 56
2, 124558, Note_on_c, 0, 67, 0
2, 124558, Note_on_c, 0, 60, 0
2, 124558, Note_on_c, 0, 63, 0
2, 124800, Note_on_c, 0, 60, 49
2, 124800, Note_on_c, 0, 69, 59
2, 124800, Note_on_c, 0, 63, 49
2, 125280, Note_on_c, 0, 63, 0
2, 125280, Note_on_c, 0, 60, 0
2, 125280, Note_on_c, 0, 62, 52
2, 125520, Note_on_c, 0, 62, 0
2, 125520, Note_on_c, 0, 69, 0
2, 125520, Note_on_c, 0, 70, 51
2, 125760, Note_on_c, 0, 70, 0
2, 125760, Note_on_c, 0, 67, 56
2, 126000, Note_on_c, 0, 67, 0
2, 126000, Note_on_c, 0, 69, 51
2, 126240, Note_on_c, 0, 69, 0
2, 126240, Note_on_c, 0, 65, 63
2, 126480, Note_on_c, 0, 65, 0
2, 126480, Note_on_c, 0, 74, 56
2, 126720, Note_on_c, 0, 74, 0
2, 126720, Note_on_c, 0, 74, 67
2, 127200, Note_on_c, 0, 74, 0
2, 127200, Note_on_c, 0, 65, 56
2, 127200, Note_on_c, 0, 58, 47
2, 127200, Note_on_c, 0, 62, 47
2, 127438, Note_on_c, 0, 62, 0
2, 127438, Note_on_c, 0, 58, 0
2, 127438, Note_on_c, 0, 65, 0
2, 127680, Note_on_c, 0, 62, 49
2, 127680, Note_on_c, 0, 58, 49
2, 127680, Note_on_c, 0, 67, 59
2, 128160, Note_on_c, 0, 58, 0
2, 128160, Note_on_c, 0, 62, 0
2, 128160, Note_on_c, 0, 60, 52
2, 128400, Note_on_c, 0, 60, 0
2, 128400, Note_on_c, 0, 67, 0
2, 128400, Note_on_c, 0, 69, 51
2, 128640, Note_on_c, 0, 69, 0
2, 128640, Note_on_c, 0, 65, 56
2, 128880, Note_on_c, 0, 65, 0
2, 128880, Note_on_c, 0, 67, 51
2, 129120, Note_on_c, 0, 67, 0
2, 129120, Note_on_c, 0, 63, 66
2, 129360, Note_on_c, 0, 63, 0
2, 129360, Note_on_c, 0, 72, 62
2, 129600, Note_on_c, 0, 72, 0
2, 129600, Note_on_c, 0, 72, 67
2, 130080, Note_on_c, 0, 72, 0
2, 130080, Note_on_c, 0, 60, 47
2, 130080, Note_on_c, 0, 55, 47
2, 130080, Note_on_c, 0, 63, 56
2, 130318, Note_on_c, 0, 63, 0
2, 130318, Note_on_c, 0, 55, 0
2, 130318, Note_on_c, 0, 60, 0
2, 130560, Note_on_c, 0, 54, 49
2, 130560, Note_on_c, 0, 62, 58
2, 130560, Note_on_c, 0, 57, 49
2, 131040, Note_on_c, 0, 57, 0
2, 131040, Note_on_c, 0, 54, 0
2, 131040, Note_on_c, 0, 55, 52
2, 131280, Note_on_c, 0, 55, 0
2, 131280, Note_on_c, 0, 62, 0
2, 131280, Note_on_c, 0, 63, 50
2, 131520, Note_on_c, 0, 63, 0
2, 131520, Note_on_c, 0, 60, 55
2, 131760, Note_on_c, 0, 60, 0
2, 131760, Note_on_c, 0, 62, 50
2, 132000, Note_on_c, 0, 62, 0
2, 132000, Note_on_c, 0, 58, 67
2, 132240, Note_on_c, 0, 58, 0
2, 132240, Note_on_c, 0, 67, 61
2, 132480, Note_on_c, 0, 67, 0
2, 132480, Note_on_c, 0, 67, 69
2, 132960, Note_on_c, 0, 67, 0
2, 132960, Note_on_c, 0, 55, 51
2, 132960, Note_on_c, 0, 60, 51
2, 132960, Note_on_c, 0, 63, 61
2, 133198, Note_on_c, 0, 63, 0
2, 133198, Note_on_c, 0, 60, 0
2, 133198, Note_on_c, 0, 55, 0
2, 133440, Note_on_c, 0, 57, 48
2, 133440, Note_on_c, 0, 54, 48
2, 133440, Note_on_c, 0, 62, 57
2, 133920, Note_on_c, 0, 54, 0
2, 133920, Note_on_c, 0, 57, 0
2, 133920, Note_on_c, 0, 55, 50
2, 134400, Note_on_c, 0, 55, 0
2, 134400, Note_on_c, 0, 62, 0
2, 134400, Note_on_c, 0, 53, 60
2, 134400, Note_on_c, 0, 58, 60
2, 134400, Note_on_c, 0, 62, 71
2, 134640, Note_on_c, 0, 62, 0
2, 134640, Note_on_c, 0, 58, 0
2, 134640, Note_on_c, 0, 53, 0
2, 134880, Note_on_c, 0, 53, 63
2, 134880, Note_on_c, 0, 60, 63
2, 134880, Note_on_c, 0, 65, 75
2, 135120, Note_on_c, 0, 65, 0
2, 135120, Note_on_c, 0, 60, 0
2, 135120, Note_on_c, 0, 53, 0
2, 135360, Note_on_c, 0, 65, 67
2, 135360, Note_on_c, 0, 62, 67
2, 135360, Note_on_c, 0, 70, 79
2, 135480, Note_on_c, 0, 70, 0
2, 135480, Note_on_c, 0, 62, 0
2, 135480, Note_on_c, 0, 65, 0
2, 135600, Note_on_c, 0, 70, 64
2, 135840, Note_on_c, 0, 70, 0
2, 135840, Note_on_c, 0, 65, 72
2, 136080, Note_on_c, 0, 65, 0
2, 136080, Note_on_c, 0, 67, 67
2, 136320, Note_on_c, 0, 67, 0
2, 136320, Note_on_c, 0, 58, 76
2, 136680, Note_on_c, 0, 58, 0
2, 136680, Note_on_c, 0, 70, 66
2, 136800, Note_on_c, 0, 70, 0
2, 136800, Note_on_c, 0, 70, 78
2, 137280, Note_on_c, 0, 70, 0
2, 137280, Note_on_c, 0, 62, 69
2, 137280, Note_on_c, 0, 65, 69
2, 137280, Note_on_c, 0, 70, 81
2, 137520, Note_on_c, 0, 70, 0
2, 137520, Note_on_c, 0, 65, 0
2, 137520, Note_on_c, 0, 62, 0
2, 137760, Note_on_c, 0, 65, 72
2, 137760, Note_on_c, 0, 70, 72
2, 137760, Note_on_c, 0, 74, 86
2, 138000, Note_on_c, 0, 74, 0
2, 138000, Note_on_c, 0, 70, 0
2, 138000, Note_on_c, 0, 65, 0
2, 138240, Note_on_c, 0, 74, 77
2, 138240, Note_on_c, 0, 68, 77
2, 138240, Note_on_c, 0, 77, 90
2, 138360, Note_on_c, 0, 77, 0
2, 138360, Note_on_c, 0, 68, 0
2, 138360, Note_on_c, 0, 74, 0
2, 138480, Note_on_c, 0, 77, 73
2, 138720, Note_on_c, 0, 77, 0
2, 138720, Note_on_c, 0, 72, 82
2, 138960, Note_on_c, 0, 72, 0
2, 138960, Note_on_c, 0, 74, 77
2, 139200, Note_on_c, 0, 74, 0
2, 139200, Note_on_c, 0, 68, 87
2, 139560, Note_on_c, 0, 68, 0
2, 139560, Note_on_c, 0, 80, 75
2, 139680, Note_on_c, 0, 80, 0
2, 139680, Note_on_c, 0, 80, 89
2, 140160, Note_on_c, 0, 80, 0
2, 140160, Note_on_c, 0, 68, 82
2, 140160, Note_on_c, 0, 72, 82
2, 140160, Note_on_c, 0, 80, 97
2, 140400, Note_on_c, 0, 80, 0
2, 140400, Note_on_c, 0, 72, 0
2, 140400, Note_on_c, 0, 68, 0
2, 140640, Note_on_c, 0, 72, 89
2, 140640, Note_on_c, 0, 77, 89
2, 140640, Note_on_c, 0, 84, 106
2, 140880, Note_on_c, 0, 84, 0
2, 140880, Note_on_c, 0, 77, 0
2, 140880, Note_on_c, 0, 72, 0
2, 141120, Note_on_c, 0, 82, 98
2, 141120, Note_on_c, 0, 77, 98
2, 141120, Note_on_c, 0, 89, 115
2, 141240, Note_on_c, 0, 89, 0
2, 141240, Note_on_c, 0, 77, 0
2, 141240, Note_on_c, 0, 82, 0
2, 141360, Note_on_c, 0, 89, 70
2, 141600, Note_on_c, 0, 89, 0
2, 141600, Note_on_c, 0, 82, 77
2, 141840, Note_on_c, 0, 82, 0
2, 141840, Note_on_c, 0, 84, 69
2, 142080, Note_on_c, 0, 84, 0
2, 142080, Note_on_c, 0, 77, 76
2, 142260, Note_on_c, 0, 77, 0
2, 142320, Note_on_c, 0, 77, 66
2, 142560, Note_on_c, 0, 77, 0
2, 142560, Note_on_c, 0, 70, 79
2, 142800, Note_on_c, 0, 70, 0
2, 142800, Note_on_c, 0, 72, 64
2, 143040, Note_on_c, 0, 72, 0
2, 143040, Note_on_c, 0, 65, 74
2, 143220, Note_on_c, 0, 65, 0
2, 143280, Note_on_c, 0, 65, 65
2, 143520, Note_on_c, 0, 65, 0
2, 143520, Note_on_c, 0, 58, 75
2, 143760, Note_on_c, 0, 58, 0
2, 143760, Note_on_c, 0, 60, 68
2, 144000, Note_on_c, 0, 60, 0
2, 144000, Note_on_c, 0, 53, 74
2, 144240, Note_on_c, 0, 65, 54
2, 144480, Note_on_c, 0, 65, 0
2, 144480, Note_on_c, 0, 58, 60
2, 144720, Note_on_c, 0, 58, 0
2, 144720, Note_on_c, 0, 60, 54
2, 144960, Note_on_c, 0, 60, 0
2, 144960, Note_on_c, 0, 53, 0
2, 144960, Note_on_c, 0, 54, 74
2, 145200, Note_on_c, 0, 66, 54
2, 145440, Note_on_c, 0, 66, 0
2, 145440, Note_on_c, 0, 58, 60
2, 145680, Note_on_c, 0, 58, 0
2, 145680, Note_on_c, 0, 60, 55
2, 145920, Note_on_c, 0, 60, 0
2, 145920, Note_on_c, 0, 54, 0
2, 145920, Note_on_c, 0, 55, 74
2, 146160, Note_on_c, 0, 67, 54
2, 146400, Note_on_c, 0, 67, 0
2, 146400, Note_on_c, 0, 60, 60
2, 146640, Note_on_c, 0, 60, 0
2, 146640, Note_on_c, 0, 61, 55
2, 146880, Note_on_c, 0, 61, 0
2, 146880, Note_on_c, 0, 55, 0
2, 146880, Note_on_c, 0, 56, 74
2, 147120, Note_on_c, 0, 68, 55
2, 147360, Note_on_c, 0, 68, 0
2, 147360, Note_on_c, 0, 62, 60
2, 147600, Note_on_c, 0, 62, 0
2, 147600, Note_on_c, 0, 63, 55
2, 147840, Note_on_c, 0, 63, 0
2, 147840, Note_on_c, 0, 56, 0
2, 147840, Note_on_c, 0, 57, 74
2, 148080, Note_on_c, 0, 69, 54
2, 148320, Note_on_c, 0, 69, 0
2, 148320, Note_on_c, 0, 62, 60
2, 148560, Note_on_c, 0, 62, 0
2, 148560, Note_on_c, 0, 63, 54
2, 148800, Note_on_c, 0, 63, 0
2, 148800, Note_on_c, 0, 57, 0
2, 148800, Note_on_c, 0, 58, 74
2, 149040, Note_on_c, 0, 70, 54
2, 149280, Note_on_c, 0, 70, 0
2, 149280, Note_on_c, 0, 58, 0
2, 149280, Note_on_c, 0, 59, 70
2, 149520, Note_on_c, 0, 71, 55
2, 149760, Note_on_c, 0, 71, 0
2, 149760, Note_on_c, 0, 59, 0
2, 149760, Note_on_c, 0, 60, 76
2, 150000, Note_on_c, 0, 72, 55
2, 150240, Note_on_c, 0, 72, 0
2, 150240, Note_on_c, 0, 65, 63
2, 150480, Note_on_c, 0, 65, 0
2, 150480, Note_on_c, 0, 66, 56
2, 150720, Note_on_c, 0, 66, 0
2, 150720, Note_on_c, 0, 60, 0
2, 150720, Note_on_c, 0, 62, 79
2, 150960, Note_on_c, 0, 74, 58
2, 151200, Note_on_c, 0, 74, 0
2, 151200, Note_on_c, 0, 65, 65
2, 151440, Note_on_c, 0, 65, 0
2, 151440, Note_on_c, 0, 66, 58
2, 151680, Note_on_c, 0, 66, 0
2, 151680, Note_on_c, 0, 62, 0
2, 151680, Note_on_c, 0, 63, 82
2, 151920, Note_on_c, 0, 75, 59
2, 152160, Note_on_c, 0, 75, 0
2, 152160, Note_on_c, 0, 71, 67
2, 152400, Note_on_c, 0, 71, 0
2, 152400, Note_on_c, 0, 72, 60
2, 152640, Note_on_c, 0, 72, 0
2, 152640, Note_on_c, 0, 63, 0
2, 152640, Note_on_c, 0, 67, 79
2, 152880, Note_on_c, 0, 79, 62
2, 153120, Note_on_c, 0, 79, 0
2, 153120, Note_on_c, 0, 74, 69
2, 153360, Note_on_c, 0, 74, 0
2, 153360, Note_on_c, 0, 75, 60
2, 153600, Note_on_c, 0, 75, 0
2, 153600, Note_on_c, 0, 67, 0
2, 153600, Note_on_c, 0, 65, 74
2, 153840, Note_on_c, 0, 77, 62
2, 154080, Note_on_c, 0, 77, 0
2, 154080, Note_on_c, 0, 73, 66
2, 154320, Note_on_c, 0, 73, 0
2, 154320, Note_on_c, 0, 74, 60
2, 154560, Note_on_c, 0, 74, 0
2, 154560, Note_on_c, 0, 65, 0
2, 154560, Note_on_c, 0, 63, 71
2, 154800, Note_on_c, 0, 75, 57
2, 155040, Note_on_c, 0, 75, 0
2, 155040, Note_on_c, 0, 74, 57
2, 155100, Note_on_c, 0, 74, 0
2, 155100, Note_on_c, 0, 75, 56
2, 155160, Note_on_c, 0, 75, 0
2, 155160, Note_on_c, 0, 74, 61
2, 155280, Note_on_c, 0, 74, 0
2, 155280, Note_on_c, 0, 72, 56
2, 155520, Note_on_c, 0, 72, 0
2, 155520, Note_on_c, 0, 63, 0
2, 155520, Note_on_c, 0, 65, 66
2, 155760, Note_on_c, 0, 77, 57
2, 156000, Note_on_c, 0, 77, 0
2, 156000, Note_on_c, 0, 70, 61
2, 156240, Note_on_c, 0, 70, 0
2, 156240, Note_on_c, 0, 72, 56
2, 156480, Note_on_c, 0, 72, 0
2, 156480, Note_on_c, 0, 65, 0
2, 156480, Note_on_c, 0, 66, 68
2, 156720, Note_on_c, 0, 78, 56
2, 156960, Note_on_c, 0, 78, 0
2, 156960, Note_on_c, 0, 70, 63
2, 157200, Note_on_c, 0, 70, 0
2, 157200, Note_on_c, 0, 72, 56
2, 157440, Note_on_c, 0, 72, 0
2, 157440, Note_on_c, 0, 66, 0
2, 157440, Note_on_c, 0, 67, 71
2, 157680, Note_on_c, 0, 79, 59
2, 157920, Note_on_c, 0, 79, 0
2, 157920, Note_on_c, 0, 72, 68
2, 158160, Note_on_c, 0, 72, 0
2, 158160, Note_on_c, 0, 73, 58
2, 158400, Note_on_c, 0, 73, 0
2, 158400, Note_on_c, 0, 67, 0
2, 158400, Note_on_c, 0, 68, 74
2, 158640, Note_on_c, 0, 80, 54
2, 158880, Note_on_c, 0, 80, 0
2, 158880, Note_on_c, 0, 74, 68
2, 159120, Note_on_c, 0, 74, 0
2, 159120, Note_on_c, 0, 75, 63
2, 159360, Note_on_c, 0, 75, 0
2, 159360, Note_on_c, 0, 68, 0
2, 159360, Note_on_c, 0, 69, 76
2, 159600, Note_on_c, 0, 81, 57
2, 159840, Note_on_c, 0, 81, 0
2, 159840, Note_on_c, 0, 74, 70
2, 160080, Note_on_c, 0, 74, 0
2, 160080, Note_on_c, 0, 75, 68
2, 160320, Note_on_c, 0, 75, 0
2, 160320, Note_on_c, 0, 69, 0
2, 160320, Note_on_c, 0, 70, 78
2, 160560, Note_on_c, 0, 82, 64
2, 160800, Note_on_c, 0, 82, 0
2, 160800, Note_on_c, 0, 70, 0
2, 160800, Note_on_c, 0, 71, 79
2, 161040, Note_on_c, 0, 83, 63
2, 161280, Note_on_c, 0, 83, 0
2, 161280, Note_on_c, 0, 71, 0
2, 161280, Note_on_c, 0, 72, 84
2, 161520, Note_on_c, 0, 84, 60
2, 161760, Note_on_c, 0, 84, 0
2, 161760, Note_on_c, 0, 77, 66
2, 162000, Note_on_c, 0, 77, 0
2, 162000, Note_on_c, 0, 78, 60
2, 162240, Note_on_c, 0, 78, 0
2, 162240, Note_on_c, 0, 72, 0
2, 162240, Note_on_c, 0, 74, 85
2, 162480, Note_on_c, 0, 86, 61
2, 162720, Note_on_c, 0, 86, 0
2, 162720, Note_on_c, 0, 77, 66
2, 162960, Note_on_c, 0, 77, 0
2, 162960, Note_on_c, 0, 78, 53
2, 163200, Note_on_c, 0, 78, 0
2, 163200, Note_on_c, 0, 74, 0
2, 163200, Note_on_c, 0, 75, 83
2, 163440, Note_on_c, 0, 87, 59
2, 163680, Note_on_c, 0, 87, 0
2, 163680, Note_on_c, 0, 83, 69
2, 163920, Note_on_c, 0, 83, 0
2, 163920, Note_on_c, 0, 84, 63
2, 164160, Note_on_c, 0, 84, 0
2, 164160, Note_on_c, 0, 75, 0
2, 164160, Note_on_c, 0, 79, 85
2, 164400, Note_on_c, 0, 91, 70
2, 164640, Note_on_c, 0, 91, 0
2, 164640, Note_on_c, 0, 86, 75
2, 164880, Note_on_c, 0, 86, 0
2, 164880, Note_on_c, 0, 87, 67
2, 165120, Note_on_c, 0, 87, 0
2, 165120, Note_on_c, 0, 79, 0
2, 165120, Note_on_c, 0, 77, 78
2, 165360, Note_on_c, 0, 89, 52
2, 165600, Note_on_c, 0, 89, 0
2, 165600, Note_on_c, 0, 85, 64
2, 165840, Note_on_c, 0, 85, 0
2, 165840, Note_on_c, 0, 86, 59
2, 166080, Note_on_c, 0, 86, 0
2, 166080, Note_on_c, 0, 77, 0
2, 166080, Note_on_c, 0, 75, 68
2, 166320, Note_on_c, 0, 87, 54
2, 166560, Note_on_c, 0, 87, 0
2, 166560, Note_on_c, 0, 83, 63
2, 166800, Note_on_c, 0, 83, 0
2, 166800, Note_on_c, 0, 84, 53
2, 167040, Note_on_c, 0, 84, 0
2, 167040, Note_on_c, 0, 75, 0
2, 167040, Note_on_c, 0, 74, 59
2, 167280, Note_on_c, 0, 86, 48
2, 167520, Note_on_c, 0, 86, 0
2, 167520, Note_on_c, 0, 82, 54
2, 167760, Note_on_c, 0, 82, 0
2, 167760, Note_on_c, 0, 84, 47
2, 168000, Note_on_c, 0, 84, 0
2, 168000, Note_on_c, 0, 74, 0
2, 168000, Note_on_c, 0, 72, 59
2, 168240, Note_on_c, 0, 84, 47
2, 168480, Note_on_c, 0, 84, 0
2, 168480, Note_on_c, 0, 80, 54
2, 168720, Note_on_c, 0, 80, 0
2, 168720, Note_on_c, 0, 82, 47
2, 168960, Note_on_c, 0, 82, 0
2, 168960, Note_on_c, 0, 72, 0
2, 168960, Note_on_c, 0, 70, 59
2, 169200, Note_on_c, 0, 82, 47
2, 169440, Note_on_c, 0, 82, 0
2, 169440, Note_on_c, 0, 79, 54
2, 169680, Note_on_c, 0, 79, 0
2, 169680, Note_on_c, 0, 80, 46
2, 169920, Note_on_c, 0, 80, 0
2, 169920, Note_on_c, 0, 70, 0
2, 169920, Note_on_c, 0, 70, 59
2, 170160, Note_on_c, 0, 82, 46
2, 170400, Note_on_c, 0, 82, 0
2, 170400, Note_on_c, 0, 79, 53
2, 170640, Note_on_c, 0, 79, 0
2, 170640, Note_on_c, 0, 80, 46
2, 170880, Note_on_c, 0, 80, 0
2, 170880, Note_on_c, 0, 70, 0
2, 170880, Note_on_c, 0, 71, 59
2, 171120, Note_on_c, 0, 82, 47
2, 171360, Note_on_c, 0, 82, 0
2, 171360, Note_on_c, 0, 79, 53
2, 171600, Note_on_c, 0, 79, 0
2, 171600, Note_on_c, 0, 80, 47
2, 171840, Note_on_c, 0, 80, 0
2, 171840, Note_on_c, 0, 71, 0
2, 171840, Note_on_c, 0, 70, 59
2, 172080, Note_on_c, 0, 82, 44
2, 172320, Note_on_c, 0, 82, 0
2, 172320, Note_on_c, 0, 70, 0
2, 172320, Note_on_c, 0, 79, 52
2, 172320, Note_on_c, 0, 71, 52
2, 172560, Note_on_c, 0, 79, 0
2, 172560, Note_on_c, 0, 80, 46
2, 172800, Note_on_c, 0, 80, 0
2, 172800, Note_on_c, 0, 71, 0
2, 172800, Note_on_c, 0, 72, 59
2, 173040, Note_on_c, 0, 82, 46
2, 173280, Note_on_c, 0, 82, 0
2, 173280, Note_on_c, 0, 80, 53
2, 173520, Note_on_c, 0, 80, 0
2, 173520, Note_on_c, 0, 82, 46
2, 173760, Note_on_c, 0, 82, 0
2, 173760, Note_on_c, 0, 72, 0
2, 173760, Note_on_c, 0, 73, 59
2, 174000, Note_on_c, 0, 82, 48
2, 174240, Note_on_c, 0, 82, 0
2, 174240, Note_on_c, 0, 79, 54
2, 174480, Note_on_c, 0, 79, 0
2, 174480, Note_on_c, 0, 80, 48
2, 174720, Note_on_c, 0, 80, 0
2, 174720, Note_on_c, 0, 73, 0
2, 174720, Note_on_c, 0, 72, 59
2, 174960, Note_on_c, 0, 82, 48
2, 175200, Note_on_c, 0, 82, 0
2, 175200, Note_on_c, 0, 72, 0
2, 175200, Note_on_c, 0, 79, 48
2, 175200, Note_on_c, 0, 73, 59
2, 175440, Note_on_c, 0, 79, 0
2, 175440, Note_on_c, 0, 80, 48
2, 175680, Note_on_c, 0, 80, 0
2, 175680, Note_on_c, 0, 73, 0
2, 175680, Note_on_c, 0, 74, 59
2, 175920, Note_on_c, 0, 82, 48
2, 176400, Note_on_c, 0, 82, 0
2, 176400, Note_on_c, 0, 80, 45
2, 176640, Note_on_c, 0, 80, 0
2, 176640, Note_on_c, 0, 77, 50
2, 176880, Note_on_c, 0, 77, 0
2, 176880, Note_on_c, 0, 74, 48
2, 177120, Note_on_c, 0, 74, 0
2, 177120, Note_on_c, 0, 74, 0
2, 177120, Note_on_c, 0, 71, 50
2, 177360, Note_on_c, 0, 71, 0
2, 177360, Note_on_c, 0, 79, 46
2, 177840, Note_on_c, 0, 79, 0
2, 177840, Note_on_c, 0, 77, 32
2, 178080, Note_on_c, 0, 77, 0
2, 178080, Note_on_c, 0, 74, 40
2, 178320, Note_on_c, 0, 74, 0
2, 178320, Note_on_c, 0, 70, 33
2, 178560, Note_on_c, 0, 70, 0
2, 178560, Note_on_c, 0, 68, 28
2, 179040, Note_on_c, 0, 68, 0
2, 179040, Note_on_c, 0, 63, 32
2, 179040, Note_on_c, 0, 60, 24
2, 179040, Note_on_c, 0, 67, 38
2, 179520, Note_on_c, 0, 67, 0
2, 179520, Note_on_c, 0, 60, 0
2, 179520, Note_on_c, 0, 63, 0
2, 179520, Note_on_c, 0, 69, 40
2, 179520, Note_on_c, 0, 66, 34
2, 179520, Note_on_c, 0, 60, 25
2, 179520, Note_on_c, 0, 63, 28
2, 180000, Note_on_c, 0, 63, 0
2, 180000, Note_on_c, 0, 69, 0
2, 180000, Note_on_c, 0, 66, 0
2, 180000, Note_on_c, 0, 60, 0
2, 180000, Note_on_c, 0, 70, 48
2, 180000, Note_on_c, 0, 62, 40
2, 180240, Note_on_c, 0, 62, 0
2, 180240, Note_on_c, 0, 70, 0
2, 180240, Note_on_c, 0, 72, 42
2, 180480, Note_on_c, 0, 72, 0
2, 180480, Note_on_c, 0, 69, 47
2, 180720, Note_on_c, 0, 69, 0
2, 180720, Note_on_c, 0, 70, 42
2, 180960, Note_on_c, 0, 70, 0
2, 180960, Note_on_c, 0, 67, 56
2, 181200, Note_on_c, 0, 67, 0
2, 181200, Note_on_c, 0, 74, 47
2, 181440, Note_on_c, 0, 74, 0
2, 181440, Note_on_c, 0, 74, 56
2, 181920, Note_on_c, 0, 74, 0
2, 181920, Note_on_c, 0, 63, 34
2, 181920, Note_on_c, 0, 67, 40
2, 181920, Note_on_c, 0, 60, 34
2, 182400, Note_on_c, 0, 60, 0
2, 182400, Note_on_c, 0, 67, 0
2, 182400, Note_on_c, 0, 63, 0
2, 182400, Note_on_c, 0, 69, 42
2, 182400, Note_on_c, 0, 63, 35
2, 182400, Note_on_c, 0, 60, 35
2, 182400, Note_on_c, 0, 66, 35
2, 182880, Note_on_c, 0, 66, 0
2, 182880, Note_on_c, 0, 69, 0
2, 182880, Note_on_c, 0, 63, 0
2, 182880, Note_on_c, 0, 60, 0
2, 182880, Note_on_c, 0, 62, 42
2, 182880, Note_on_c, 0, 70, 50
2, 183120, Note_on_c, 0, 70, 0
2, 183120, Note_on_c, 0, 62, 0
2, 183120, Note_on_c, 0, 72, 45
2, 183360, Note_on_c, 0, 72, 0
2, 183360, Note_on_c, 0, 69, 49
2, 183600, Note_on_c, 0, 69, 0
2, 183600, Note_on_c, 0, 70, 45
2, 183840, Note_on_c, 0, 70, 0
2, 183840, Note_on_c, 0, 67, 58
2, 184080, Note_on_c, 0, 67, 0
2, 184080, Note_on_c, 0, 75, 52
2, 184320, Note_on_c, 0, 75, 0
2, 184320, Note_on_c, 0, 75, 63
2, 184800, Note_on_c, 0, 75, 0
2, 184800, Note_on_c, 0, 63, 39
2, 184800, Note_on_c, 0, 67, 47
2, 184800, Note_on_c, 0, 60, 39
2, 185038, Note_on_c, 0, 60, 0
2, 185038, Note_on_c, 0, 67, 0
2, 185038, Note_on_c, 0, 63, 0
2, 185280, Note_on_c, 0, 60, 41
2, 185280, Note_on_c, 0, 63, 41
2, 185280, Note_on_c, 0, 69, 50
2, 185760, Note_on_c, 0, 63, 0
2, 185760, Note_on_c, 0, 60, 0
2, 185760, Note_on_c, 0, 62, 44
2, 186000, Note_on_c, 0, 62, 0
2, 186000, Note_on_c, 0, 69, 0
2, 186000, Note_on_c, 0, 70, 47
2, 186240, Note_on_c, 0, 70, 0
2, 186240, Note_on_c, 0, 67, 51
2, 186480, Note_on_c, 0, 67, 0
2, 186480, Note_on_c, 0, 69, 47
2, 186720, Note_on_c, 0, 69, 0
2, 186720, Note_on_c, 0, 65, 58
2, 186960, Note_on_c, 0, 65, 0
2, 186960, Note_on_c, 0, 74, 51
2, 187200, Note_on_c, 0, 74, 0
2, 187200, Note_on_c, 0, 74, 61
2, 187680, Note_on_c, 0, 74, 0
2, 187680, Note_on_c, 0, 58, 39
2, 187680, Note_on_c, 0, 62, 39
2, 187680, Note_on_c, 0, 65, 47
2, 187918, Note_on_c, 0, 65, 0
2, 187918, Note_on_c, 0, 62, 0
2, 187918, Note_on_c, 0, 58, 0
2, 188160, Note_on_c, 0, 62, 41
2, 188160, Note_on_c, 0, 67, 50
2, 188160, Note_on_c, 0, 58, 41
2, 188640, Note_on_c, 0, 58, 0
2, 188640, Note_on_c, 0, 62, 0
2, 188640, Note_on_c, 0, 60, 44
2, 188880, Note_on_c, 0, 60, 0
2, 188880, Note_on_c, 0, 67, 0
2, 188880, Note_on_c, 0, 69, 43
2, 189120, Note_on_c, 0, 69, 0
2, 189120, Note_on_c, 0, 65, 51
2, 189360, Note_on_c, 0, 65, 0
2, 189360, Note_on_c, 0, 67, 47
2, 189600, Note_on_c, 0, 67, 0
2, 189600, Note_on_c, 0, 63, 58
2, 189840, Note_on_c, 0, 63, 0
2, 189840, Note_on_c, 0, 72, 51
2, 190080, Note_on_c, 0, 72, 0
2, 190080, Note_on_c, 0, 72, 61
2, 190560, Note_on_c, 0, 72, 0
2, 190560, Note_on_c, 0, 60, 39
2, 190560, Note_on_c, 0, 55, 39
2, 190560, Note_on_c, 0, 63, 47
2, 190798, Note_on_c, 0, 63, 0
2, 190798, Note_on_c, 0, 55, 0
2, 190798, Note_on_c, 0, 60, 0
2, 191040, Note_on_c, 0, 57, 41
2, 191040, Note_on_c, 0, 54, 41
2, 191040, Note_on_c, 0, 62, 49
2, 191520, Note_on_c, 0, 54, 0
2, 191520, Note_on_c, 0, 57, 0
2, 191520, Note_on_c, 0, 55, 44
2, 191760, Note_on_c, 0, 55, 0
2, 191760, Note_on_c, 0, 62, 0
2, 191760, Note_on_c, 0, 63, 46
2, 192000, Note_on_c, 0, 63, 0
2, 192000, Note_on_c, 0, 60, 50
2, 192240, Note_on_c, 0, 60, 0
2, 192240, Note_on_c, 0, 62, 46
2, 192480, Note_on_c, 0, 62, 0
2, 192480, Note_on_c, 0, 58, 57
2, 192720, Note_on_c, 0, 58, 0
2, 192720, Note_on_c, 0, 67, 49
2, 192960, Note_on_c, 0, 67, 0
2, 192960, Note_on_c, 0, 67, 59
2, 193440, Note_on_c, 0, 67, 0
2, 193440, Note_on_c, 0, 60, 43
2, 193440, Note_on_c, 0, 55, 43
2, 193440, Note_on_c, 0, 63, 51
2, 193678, Note_on_c, 0, 63, 0
2, 193678, Note_on_c, 0, 55, 0
2, 193678, Note_on_c, 0, 60, 0
2, 193920, Note_on_c, 0, 54, 45
2, 193920, Note_on_c, 0, 62, 54
2, 193920, Note_on_c, 0, 57, 45
2, 194400, Note_on_c, 0, 57, 0
2, 194400, Note_on_c, 0, 54, 0
2, 194400, Note_on_c, 0, 55, 48
2, 194880, Note_on_c, 0, 55, 0
2, 194880, Note_on_c, 0, 62, 0
2, 194880, Note_on_c, 0, 70, 58
2, 195360, Note_on_c, 0, 58, 40
2, 195720, Note_on_c, 0, 70, 0
2, 195720, Note_on_c, 0, 66, 50
2, 195840, Note_on_c, 0, 66, 0
2, 195840, Note_on_c, 0, 67, 56
2, 196200, Note_on_c, 0, 67, 0
2, 196200, Note_on_c, 0, 69, 51
2, 196320, Note_on_c, 0, 69, 0
2, 196320, Note_on_c, 0, 58, 0
2, 196320, Note_on_c, 0, 70, 57
2, 196800, Note_on_c, 0, 58, 40
2, 197160, Note_on_c, 0, 70, 0
2, 197160, Note_on_c, 0, 66, 54
2, 197280, Note_on_c, 0, 66, 0
2, 197280, Note_on_c, 0, 67, 61
2, 197640, Note_on_c, 0, 67, 0
2, 197640, Note_on_c, 0, 69, 52
2, 197760, Note_on_c, 0, 69, 0
2, 197760, Note_on_c, 0, 58, 0
2, 197760, Note_on_c, 0, 70, 57
2, 198000, Note_on_c, 0, 70, 0
2, 198000, Note_on_c, 0, 58, 47
2, 198240, Note_on_c, 0, 58, 0
2, 198240, Note_on_c, 0, 74, 64
2, 198480, Note_on_c, 0, 74, 0
2, 198480, Note_on_c, 0, 72, 57
2, 198720, Note_on_c, 0, 72, 0
2, 198720, Note_on_c, 0, 74, 66
2, 198960, Note_on_c, 0, 74, 0
2, 198960, Note_on_c, 0, 72, 63
2, 199200, Note_on_c, 0, 72, 0
2, 199200, Note_on_c, 0, 70, 59
2, 199360, Note_on_c, 0, 70, 0
2, 199360, Note_on_c, 0, 67, 51
2, 199520, Note_on_c, 0, 67, 0
2, 199520, Note_on_c, 0, 63, 51
2, 199680, Note_on_c, 0, 63, 0
2, 199680, Note_on_c, 0, 62, 57
2, 199680, Note_on_c, 0, 57, 36
2, 200040, Note_on_c, 0, 62, 0
2, 200040, Note_on_c, 0, 60, 47
2, 200160, Note_on_c, 0, 60, 0
2, 200160, Note_on_c, 0, 57, 0
2, 200160, Note_on_c, 0, 58, 54
2, 200400, Note_on_c, 0, 58, 0
2, 200640, Note_on_c, 0, 77, 58
2, 201120, Note_on_c, 0, 65, 40
2, 201480, Note_on_c, 0, 77, 0
2, 201480, Note_on_c, 0, 73, 50
2, 201600, Note_on_c, 0, 73, 0
2, 201600, Note_on_c, 0, 74, 56
2, 201960, Note_on_c, 0, 74, 0
2, 201960, Note_on_c, 0, 75, 51
2, 202080, Note_on_c, 0, 75, 0
2, 202080, Note_on_c, 0, 65, 0
2, 202080, Note_on_c, 0, 77, 57
2, 202560, Note_on_c, 0, 65, 40
2, 202920, Note_on_c, 0, 77, 0
2, 202920, Note_on_c, 0, 73, 54
2, 203040, Note_on_c, 0, 73, 0
2, 203040, Note_on_c, 0, 74, 61
2, 203400, Note_on_c, 0, 74, 0
2, 203400, Note_on_c, 0, 75, 52
2, 203520, Note_on_c, 0, 75, 0
2, 203520, Note_on_c, 0, 65, 0
2, 203520, Note_on_c, 0, 77, 57
2, 203760, Note_on_c, 0, 77, 0
2, 203760, Note_on_c, 0, 65, 47
2, 204000, Note_on_c, 0, 65, 0
2, 204000, Note_on_c, 0, 81, 64
2, 204240, Note_on_c, 0, 81, 0
2, 204240, Note_on_c, 0, 79, 57
2, 204480, Note_on_c, 0, 79, 0
2, 204480, Note_on_c, 0, 81, 66
2, 204720, Note_on_c, 0, 81, 0
2, 204720, Note_on_c, 0, 79, 63
2, 204960, Note_on_c, 0, 79, 0
2, 204960, Note_on_c, 0, 77, 59
2, 205120, Note_on_c, 0, 77, 0
2, 205120, Note_on_c, 0, 74, 51
2, 205280, Note_on_c, 0, 74, 0
2, 205280, Note_on_c, 0, 70, 51
2, 205440, Note_on_c, 0, 70, 0
2, 205440, Note_on_c, 0, 64, 36
2, 205440, Note_on_c, 0, 69, 57
2, 205800, Note_on_c, 0, 69, 0
2, 205800, Note_on_c, 0, 67, 47
2, 205920, Note_on_c, 0, 67, 0
2, 205920, Note_on_c, 0, 64, 0
2, 205920, Note_on_c, 0, 65, 54
2, 206160, Note_on_c, 0, 65, 0
2, 206400, Note_on_c, 0, 82, 58
2, 206880, Note_on_c, 0, 70, 40
2, 207240, Note_on_c, 0, 82, 0
2, 207240, Note_on_c, 0, 77, 53
2, 207360, Note_on_c, 0, 77, 0
2, 207360, Note_on_c, 0, 78, 57
2, 207720, Note_on_c, 0, 78, 0
2, 207720, Note_on_c, 0, 80, 55
2, 207840, Note_on_c, 0, 80, 0
2, 207840, Note_on_c, 0, 70, 0
2, 207840, Note_on_c, 0, 82, 58
2, 208320, Note_on_c, 0, 70, 40
2, 208680, Note_on_c, 0, 82, 0
2, 208680, Note_on_c, 0, 77, 54
2, 208800, Note_on_c, 0, 77, 0
2, 208800, Note_on_c, 0, 78, 61
2, 209160, Note_on_c, 0, 78, 0
2, 209160, Note_on_c, 0, 80, 56
2, 209280, Note_on_c, 0, 80, 0
2, 209280, Note_on_c, 0, 70, 0
2, 209280, Note_on_c, 0, 82, 61
2, 209520, Note_on_c, 0, 82, 0
2, 209520, Note_on_c, 0, 73, 47
2, 209760, Note_on_c, 0, 73, 0
2, 209760, Note_on_c, 0, 89, 64
2, 210000, Note_on_c, 0, 89, 0
2, 210000, Note_on_c, 0, 87, 57
2, 210240, Note_on_c, 0, 87, 0
2, 210240, Note_on_c, 0, 89, 66
2, 210480, Note_on_c, 0, 89, 0
2, 210480, Note_on_c, 0, 87, 63
2, 210720, Note_on_c, 0, 87, 0
2, 210720, Note_on_c, 0, 85, 59
2, 210880, Note_on_c, 0, 85, 0
2, 210880, Note_on_c, 0, 82, 51
2, 211040, Note_on_c, 0, 82, 0
2, 211040, Note_on_c, 0, 78, 51
2, 211200, Note_on_c, 0, 78, 0
2, 211200, Note_on_c, 0, 72, 36
2, 211200, Note_on_c, 0, 77, 57
2, 211560, Note_on_c, 0, 77, 0
2, 211560, Note_on_c, 0, 75, 47
2, 211680, Note_on_c, 0, 75, 0
2, 211680, Note_on_c, 0, 72, 0
2, 211680, Note_on_c, 0, 73, 54
2, 211920, Note_on_c, 0, 73, 0
2, 212160, Note_on_c, 0, 80, 58
2, 212640, Note_on_c, 0, 68, 40
2, 213000, Note_on_c, 0, 80, 0
2, 213000, Note_on_c, 0, 75, 50
2, 213120, Note_on_c, 0, 75, 0
2, 213120, Note_on_c, 0, 77, 56
2, 213480, Note_on_c, 0, 77, 0
2, 213480, Note_on_c, 0, 78, 51
2, 213600, Note_on_c, 0, 78, 0
2, 213600, Note_on_c, 0, 68, 0
2, 213600, Note_on_c, 0, 80, 57
2, 214080, Note_on_c, 0, 68, 40
2, 214440, Note_on_c, 0, 80, 0
2, 214440, Note_on_c, 0, 75, 54
2, 214560, Note_on_c, 0, 75, 0
2, 214560, Note_on_c, 0, 77, 61
2, 214920, Note_on_c, 0, 77, 0
2, 214920, Note_on_c, 0, 78, 52
2, 215040, Note_on_c, 0, 78, 0
2, 215040, Note_on_c, 0, 68, 0
2, 215040, Note_on_c, 0, 80, 57
2, 215280, Note_on_c, 0, 80, 0
2, 215280, Note_on_c, 0, 70, 47
2, 215520, Note_on_c, 0, 70, 0
2, 215520, Note_on_c, 0, 84, 64
2, 215760, Note_on_c, 0, 84, 0
2, 215760, Note_on_c, 0, 82, 57
2, 216000, Note_on_c, 0, 82, 0
2, 216000, Note_on_c, 0, 84, 66
2, 216240, Note_on_c, 0, 84, 0
2, 216240, Note_on_c, 0, 82, 63
2, 216480, Note_on_c, 0, 82, 0
2, 216480, Note_on_c, 0, 80, 59
2, 216640, Note_on_c, 0, 80, 0
2, 216640, Note_on_c, 0, 77, 51
2, 216800, Note_on_c, 0, 77, 0
2, 216800, Note_on_c, 0, 73, 51
2, 216960, Note_on_c, 0, 73, 0
2, 216960, Note_on_c, 0, 72, 57
2, 216960, Note_on_c, 0, 67, 36
2, 217320, Note_on_c, 0, 72, 0
2, 217320, Note_on_c, 0, 70, 47
2, 217440, Note_on_c, 0, 70, 0
2, 217440, Note_on_c, 0, 67, 0
2, 217440, Note_on_c, 0, 68, 54
2, 217680, Note_on_c, 0, 68, 0
2, 218400, Note_on_c, 0, 68, 40
2, 218400, Note_on_c, 0, 63, 34
2, 218400, Note_on_c, 0, 60, 34
2, 219360, Note_on_c, 0, 60, 0
2, 219360, Note_on_c, 0, 63, 0
2, 219360, Note_on_c, 0, 68, 0
2, 219360, Note_on_c, 0, 69, 52
2, 220200, Note_on_c, 0, 69, 0
2, 220200, Note_on_c, 0, 62, 45
2, 220320, Note_on_c, 0, 62, 0
2, 220320, Note_on_c, 0, 63, 50
2, 220680, Note_on_c, 0, 63, 0
2, 220680, Note_on_c, 0, 65, 45
2, 220800, Note_on_c, 0, 65, 0
2, 220800, Note_on_c, 0, 60, 50
2, 220800, Note_on_c, 0, 66, 51
2, 222240, Note_on_c, 0, 66, 0
2, 222240, Note_on_c, 0, 60, 0
2, 222240, Note_on_c, 0, 66, 52
2, 223080, Note_on_c, 0, 66, 0
2, 223080, Note_on_c, 0, 59, 45
2, 223200, Note_on_c, 0, 59, 0
2, 223200, Note_on_c, 0, 60, 50
2, 223560, Note_on_c, 0, 60, 0
2, 223560, Note_on_c, 0, 61, 45
2, 223680, Note_on_c, 0, 61, 0
2, 223680, Note_on_c, 0, 63, 51
2, 224520, Note_on_c, 0, 53, 45
2, 224640, Note_on_c, 0, 53, 0
2, 224640, Note_on_c, 0, 63, 0
2, 224640, Note_on_c, 0, 63, 51
2, 224640, Note_on_c, 0, 54, 50
2, 225000, Note_on_c, 0, 54, 0
2, 225000, Note_on_c, 0, 56, 45
2, 225120, Note_on_c, 0, 56, 0
2, 225120, Note_on_c, 0, 63, 0
2, 225120, Note_on_c, 0, 57, 51
2, 225960, Note_on_c, 0, 50, 45
2, 226080, Note_on_c, 0, 50, 0
2, 226080, Note_on_c, 0, 51, 50
2, 226440, Note_on_c, 0, 51, 0
2, 226440, Note_on_c, 0, 52, 45
2, 226560, Note_on_c, 0, 52, 0
2, 226560, Note_on_c, 0, 57, 0
2, 226560, Note_on_c, 0, 54, 51
2, 227400, Note_on_c, 0, 49, 45
2, 227520, Note_on_c, 0, 49, 0
2, 227520, Note_on_c, 0, 50, 50
2, 227880, Note_on_c, 0, 50, 0
2, 227880, Note_on_c, 0, 52, 51
2, 228000, Note_on_c, 0, 52, 0
2, 228000, Note_on_c, 0, 54, 0
2, 228000, Note_on_c, 0, 54, 55
2, 228480, Note_on_c, 0, 54, 0
2, 229440, Note_on_c, 0, 55, 40
2, 229560, Note_on_c, 0, 55, 0
2, 229560, Note_on_c, 0, 57, 32
2, 229680, Note_on_c, 0, 57, 0
2, 229680, Note_on_c, 0, 55, 34
2, 229800, Note_on_c, 0, 55, 0
2, 229800, Note_on_c, 0, 50, 34
2, 229920, Note_on_c, 0, 50, 0
2, 229920, Note_on_c, 0, 62, 40
2, 230010, Note_on_c, 0, 62, 0
2, 230280, Note_on_c, 0, 50, 40
2, 230280, Note_on_c, 0, 55, 40
2, 230370, Note_on_c, 0, 55, 0
2, 230370, Note_on_c, 0, 50, 0
2, 230400, Note_on_c, 0, 48, 46
2, 230400, Note_on_c, 0, 54, 46
2, 230490, Note_on_c, 0, 54, 0
2, 230490, Note_on_c, 0, 48, 0
2, 230880, Note_on_c, 0, 60, 43
2, 231000, Note_on_c, 0, 60, 0
2, 231000, Note_on_c, 0, 62, 37
2, 231120, Note_on_c, 0, 62, 0
2, 231120, Note_on_c, 0, 60, 37
2, 231240, Note_on_c, 0, 60, 0
2, 231240, Note_on_c, 0, 57, 37
2, 231360, Note_on_c, 0, 57, 0
2, 231360, Note_on_c, 0, 69, 49
2, 231450, Note_on_c, 0, 69, 0
2, 231720, Note_on_c, 0, 60, 44
2, 231720, Note_on_c, 0, 50, 44
2, 231810, Note_on_c, 0, 50, 0
2, 231810, Note_on_c, 0, 60, 0
2, 231840, Note_on_c, 0, 58, 48
2, 231840, Note_on_c, 0, 50, 48
2, 231930, Note_on_c, 0, 50, 0
2, 231930, Note_on_c, 0, 58, 0
2, 232320, Note_on_c, 0, 55, 40
2, 232440, Note_on_c, 0, 55, 0
2, 232440, Note_on_c, 0, 57, 34
2, 232560, Note_on_c, 0, 57, 0
2, 232560, Note_on_c, 0, 55, 34
2, 232680, Note_on_c, 0, 55, 0
2, 232680, Note_on_c, 0, 50, 34
2, 232800, Note_on_c, 0, 50, 0
2, 232800, Note_on_c, 0, 67, 50
2, 232890, Note_on_c, 0, 67, 0
2, 233160, Note_on_c, 0, 65, 44
2, 233160, Note_on_c, 0, 55, 44
2, 233250, Note_on_c, 0, 55, 0
2, 233250, Note_on_c, 0, 65, 0
2, 233280, Note_on_c, 0, 63, 47
2, 233280, Note_on_c, 0, 55, 47
2, 233370, Note_on_c, 0, 55, 0
2, 233370, Note_on_c, 0, 63, 0
2, 233640, Note_on_c, 0, 62, 40
2, 233640, Note_on_c, 0, 55, 40
2, 233730, Note_on_c, 0, 55, 0
2, 233730, Note_on_c, 0, 62, 0
2, 233760, Note_on_c, 0, 60, 44
2, 233760, Note_on_c, 0, 55, 44
2, 233850, Note_on_c, 0, 55, 0
2, 233850, Note_on_c, 0, 60, 0
2, 234120, Note_on_c, 0, 58, 50
2, 234210, Note_on_c, 0, 58, 0
2, 234240, Note_on_c, 0, 61, 46
2, 234240, Note_on_c, 0, 57, 46
2, 234330, Note_on_c, 0, 57, 0
2, 234330, Note_on_c, 0, 61, 0
2, 234600, Note_on_c, 0, 55, 40
2, 234690, Note_on_c, 0, 55, 0
2, 234720, Note_on_c, 0, 62, 50
2, 234720, Note_on_c, 0, 54, 50
2, 234810, Note_on_c, 0, 54, 0
2, 234810, Note_on_c, 0, 62, 0
2, 235200, Note_on_c, 0, 74, 72
2, 235680, Note_on_c, 0, 62, 61
2, 236040, Note_on_c, 0, 74, 0
2, 236040, Note_on_c, 0, 72, 58
2, 236160, Note_on_c, 0, 72, 0
2, 236160, Note_on_c, 0, 70, 65
2, 236250, Note_on_c, 0, 70, 0
2, 236520, Note_on_c, 0, 69, 55
2, 236610, Note_on_c, 0, 69, 0
2, 236640, Note_on_c, 0, 62, 0
2, 236640, Note_on_c, 0, 70, 64
2, 236640, Note_on_c, 0, 67, 64
2, 236730, Note_on_c, 0, 67, 0
2, 237000, Note_on_c, 0, 65, 56
2, 237090, Note_on_c, 0, 65, 0
2, 237120, Note_on_c, 0, 70, 0
2, 237120, Note_on_c, 0, 63, 64
2, 237210, Note_on_c, 0, 63, 0
2, 237480, Note_on_c, 0, 62, 56
2, 237570, Note_on_c, 0, 62, 0
2, 237600, Note_on_c, 0, 60, 64
2, 237690, Note_on_c, 0, 60, 0
2, 238080, Note_on_c, 0, 77, 68
2, 238560, Note_on_c, 0, 65, 61
2, 238920, Note_on_c, 0, 77, 0
2, 238920, Note_on_c, 0, 75, 58
2, 239040, Note_on_c, 0, 75, 0
2, 239040, Note_on_c, 0, 74, 65
2, 239130, Note_on_c, 0, 74, 0
2, 239400, Note_on_c, 0, 72, 55
2, 239490, Note_on_c, 0, 72, 0
2, 239520, Note_on_c, 0, 65, 0
2, 239520, Note_on_c, 0, 70, 64
2, 239520, Note_on_c, 0, 74, 64
2, 239610, Note_on_c, 0, 70, 0
2, 239880, Note_on_c, 0, 69, 56
2, 239970, Note_on_c, 0, 69, 0
2, 240000, Note_on_c, 0, 74, 0
2, 240000, Note_on_c, 0, 67, 64
2, 240090, Note_on_c, 0, 67, 0
2, 240360, Note_on_c, 0, 65, 56
2, 240450, Note_on_c, 0, 65, 0
2, 240480, Note_on_c, 0, 64, 64
2, 240570, Note_on_c, 0, 64, 0
2, 240960, Note_on_c, 0, 81, 70
2, 241440, Note_on_c, 0, 69, 61
2, 241800, Note_on_c, 0, 81, 0
2, 241800, Note_on_c, 0, 79, 58
2, 241920, Note_on_c, 0, 79, 0
2, 241920, Note_on_c, 0, 78, 65
2, 242010, Note_on_c, 0, 78, 0
2, 242280, Note_on_c, 0, 75, 55
2, 242370, Note_on_c, 0, 75, 0
2, 242400, Note_on_c, 0, 69, 0
2, 242400, Note_on_c, 0, 74, 64
2, 242400, Note_on_c, 0, 78, 64
2, 242490, Note_on_c, 0, 74, 0
2, 242760, Note_on_c, 0, 72, 56
2, 242850, Note_on_c, 0, 72, 0
2, 242880, Note_on_c, 0, 78, 0
2, 242880, Note_on_c, 0, 79, 64
2, 242880, Note_on_c, 0, 70, 64
2, 242970, Note_on_c, 0, 70, 0
2, 243000, Note_on_c, 0, 79, 0
2, 243240, Note_on_c, 0, 69, 56
2, 243330, Note_on_c, 0, 69, 0
2, 243360, Note_on_c, 0, 67, 64
2, 243450, Note_on_c, 0, 67, 0
2, 243840, Note_on_c, 0, 70, 71
2, 244320, Note_on_c, 0, 70, 0
2, 244320, Note_on_c, 0, 69, 52
2, 244320, Note_on_c, 0, 73, 62
2, 244680, Note_on_c, 0, 69, 0
2, 244680, Note_on_c, 0, 67, 58
2, 244800, Note_on_c, 0, 67, 0
2, 244800, Note_on_c, 0, 73, 0
2, 244800, Note_on_c, 0, 66, 56
2, 244800, Note_on_c, 0, 74, 61
2, 245040, Note_on_c, 0, 74, 0
2, 245040, Note_on_c, 0, 66, 0
2, 245160, Note_on_c, 0, 63, 51
2, 245250, Note_on_c, 0, 63, 0
2, 245280, Note_on_c, 0, 62, 59
2, 245280, Note_on_c, 0, 66, 59
2, 245520, Note_on_c, 0, 62, 0
2, 245640, Note_on_c, 0, 60, 49
2, 245730, Note_on_c, 0, 60, 0
2, 245760, Note_on_c, 0, 66, 0
2, 245760, Note_on_c, 0, 58, 55
2, 245760, Note_on_c, 0, 67, 55
2, 246000, Note_on_c, 0, 67, 0
2, 246000, Note_on_c, 0, 58, 0
2, 246120, Note_on_c, 0, 57, 47
2, 246210, Note_on_c, 0, 57, 0
2, 246240, Note_on_c, 0, 55, 54
2, 246720, Note_on_c, 0, 55, 0
2, 246720, Note_on_c, 0, 58, 56
2, 247200, Note_on_c, 0, 58, 0
2, 247200, Note_on_c, 0, 61, 47
2, 247200, Note_on_c, 0, 57, 47
2, 247440, Note_on_c, 0, 57, 0
2, 247440, Note_on_c, 0, 55, 38
2, 247680, Note_on_c, 0, 55, 0
2, 247680, Note_on_c, 0, 61, 0
2, 247800, Note_on_c, 0, 54, 35
2, 247800, Note_on_c, 0, 62, 42
2, 248640, Note_on_c, 0, 62, 0
2, 248640, Note_on_c, 0, 54, 0
2, 248640, End_track
3, 0, Start_track
3, 0, Title_t, "Piano left"
3, 0, Program_c, 0, 0
3, 0, Note_on_c, 0, 31, 44
3, 0, Control_c, 0, 91, 127
3, 90, Note_on_c, 0, 31, 0
3, 1320, Note_on_c, 0, 34, 35
3, 1410, Note_on_c, 0, 34, 0
3, 1440, Note_on_c, 0, 33, 40
3, 1530, Note_on_c, 0, 33, 0
3, 2760, Note_on_c, 0, 30, 33
3, 2850, Note_on_c, 0, 30, 0
3, 2880, Note_on_c, 0, 31, 40
3, 2970, Note_on_c, 0, 31, 0
3, 4200, Note_on_c, 0, 34, 32
3, 4290, Note_on_c, 0, 34, 0
3, 4320, Note_on_c, 0, 36, 37
3, 4410, Note_on_c, 0, 36, 0
3, 4680, Note_on_c, 0, 38, 33
3, 4770, Note_on_c, 0, 38, 0
3, 4800, Note_on_c, 0, 39, 38
3, 4890, Note_on_c, 0, 39, 0
3, 5280, Note_on_c, 0, 51, 40
3, 5370, Note_on_c, 0, 51, 0
3, 5760, Note_on_c, 0, 38, 45
3, 5760, Note_on_c, 0, 50, 45
3, 5850, Note_on_c, 0, 50, 0
3, 5850, Note_on_c, 0, 38, 0
3, 6720, Note_on_c, 0, 30, 40
3, 7200, Note_on_c, 0, 30, 0
3, 7200, Note_on_c, 0, 31, 44
3, 7440, Note_on_c, 0, 31, 0
3, 7680, Note_on_c, 0, 55, 60
3, 8520, Note_on_c, 0, 55, 0
3, 8520, Note_on_c, 0, 53, 51
3, 8640, Note_on_c, 0, 53, 0
3, 8640, Note_on_c, 0, 51, 58
3, 8730, Note_on_c, 0, 51, 0
3, 9000, Note_on_c, 0, 50, 51
3, 9090, Note_on_c, 0, 50, 0
3, 9120, Note_on_c, 0, 48, 57
3, 9210, Note_on_c, 0, 48, 0
3, 9480, Note_on_c, 0, 46, 50
3, 9570, Note_on_c, 0, 46, 0
3, 9600, Note_on_c, 0, 33, 40
3, 10080, Note_on_c, 0, 33, 0
3, 10080, Note_on_c, 0, 34, 44
3, 10320, Note_on_c, 0, 34, 0
3, 10560, Note_on_c, 0, 58, 60
3, 11400, Note_on_c, 0, 58, 0
3, 11400, Note_on_c, 0, 57, 51
3, 11520, Note_on_c, 0, 57, 0
3, 11520, Note_on_c, 0, 55, 58
3, 11610, Note_on_c, 0, 55, 0
3, 11880, Note_on_c, 0, 53, 51
3, 11970, Note_on_c, 0, 53, 0
3, 12000, Note_on_c, 0, 52, 57
3, 12090, Note_on_c, 0, 52, 0
3, 12360, Note_on_c, 0, 50, 50
3, 12450, Note_on_c, 0, 50, 0
3, 12480, Note_on_c, 0, 37, 40
3, 12960, Note_on_c, 0, 37, 0
3, 12960, Note_on_c, 0, 38, 44
3, 13200, Note_on_c, 0, 38, 0
3, 13440, Note_on_c, 0, 62, 58
3, 14280, Note_on_c, 0, 62, 0
3, 14280, Note_on_c, 0, 60, 51
3, 14370, Note_on_c, 0, 60, 0
3, 14400, Note_on_c, 0, 58, 58
3, 14490, Note_on_c, 0, 58, 0
3, 14760, Note_on_c, 0, 57, 51
3, 14850, Note_on_c, 0, 57, 0
3, 14880, Note_on_c, 0, 55, 57
3, 14970, Note_on_c, 0, 55, 0
3, 15240, Note_on_c, 0, 53, 50
3, 15330, Note_on_c, 0, 53, 0
3, 15360, Note_on_c, 0, 52, 57
3, 15450, Note_on_c, 0, 52, 0
3, 15720, Note_on_c, 0, 51, 50
3, 15810, Note_on_c, 0, 51, 0
3, 15840, Note_on_c, 0, 50, 58
3, 15930, Note_on_c, 0, 50, 0
3, 16320, Note_on_c, 0, 50, 60
3, 17160, Note_on_c, 0, 50, 0
3, 17160, Note_on_c, 0, 48, 45
3, 17280, Note_on_c, 0, 48, 0
3, 17280, Note_on_c, 0, 46, 51
3, 17370, Note_on_c, 0, 46, 0
3, 17640, Note_on_c, 0, 45, 44
3, 17730, Note_on_c, 0, 45, 0
3, 17760, Note_on_c, 0, 43, 52
3, 17850, Note_on_c, 0, 43, 0
3, 18120, Note_on_c, 0, 41, 42
3, 18210, Note_on_c, 0, 41, 0
3, 18240, Note_on_c, 0, 40, 48
3, 18330, Note_on_c, 0, 40, 0
3, 18600, Note_on_c, 0, 39, 35
3, 18690, Note_on_c, 0, 39, 0
3, 18720, Note_on_c, 0, 38, 41
3, 18810, Note_on_c, 0, 38, 0
3, 19080, Note_on_c, 0, 36, 29
3, 19170, Note_on_c, 0, 36, 0
3, 19200, Note_on_c, 0, 34, 35
3, 19290, Note_on_c, 0, 34, 0
3, 19560, Note_on_c, 0, 33, 28
3, 19650, Note_on_c, 0, 33, 0
3, 19680, Note_on_c, 0, 31, 35
3, 19770, Note_on_c, 0, 31, 0
3, 20040, Note_on_c, 0, 34, 35
3, 20130, Note_on_c, 0, 34, 0
3, 20160, Note_on_c, 0, 33, 40
3, 20250, Note_on_c, 0, 33, 0
3, 21480, Note_on_c, 0, 30, 33
3, 21570, Note_on_c, 0, 30, 0
3, 21600, Note_on_c, 0, 31, 40
3, 21690, Note_on_c, 0, 31, 0
3, 22920, Note_on_c, 0, 34, 32
3, 23010, Note_on_c, 0, 34, 0
3, 23040, Note_on_c, 0, 36, 37
3, 23130, Note_on_c, 0, 36, 0
3, 23400, Note_on_c, 0, 38, 33
3, 23490, Note_on_c, 0, 38, 0
3, 23520, Note_on_c, 0, 39, 38
3, 23610, Note_on_c, 0, 39, 0
3, 24000, Note_on_c, 0, 51, 40
3, 24090, Note_on_c, 0, 51, 0
3, 24480, Note_on_c, 0, 38, 45
3, 24480, Note_on_c, 0, 50, 45
3, 24600, Note_on_c, 0, 50, 0
3, 24600, Note_on_c, 0, 38, 0
3, 25440, Note_on_c, 0, 30, 40
3, 25920, Note_on_c, 0, 30, 0
3, 25920, Note_on_c, 0, 31, 44
3, 26160, Note_on_c, 0, 31, 0
3, 26400, Note_on_c, 0, 55, 60
3, 27240, Note_on_c, 0, 55, 0
3, 27240, Note_on_c, 0, 53, 51
3, 27360, Note_on_c, 0, 53, 0
3, 27360, Note_on_c, 0, 51, 58
3, 27450, Note_on_c, 0, 51, 0
3, 27720, Note_on_c, 0, 50, 51
3, 27810, Note_on_c, 0, 50, 0
3, 27840, Note_on_c, 0, 48, 57
3, 27930, Note_on_c, 0, 48, 0
3, 28200, Note_on_c, 0, 46, 50
3, 28290, Note_on_c, 0, 46, 0
3, 28320, Note_on_c, 0, 33, 40
3, 28800, Note_on_c, 0, 33, 0
3, 28800, Note_on_c, 0, 34, 44
3, 29040, Note_on_c, 0, 34, 0
3, 29280, Note_on_c, 0, 58, 60
3, 30120, Note_on_c, 0, 58, 0
3, 30120, Note_on_c, 0, 57, 51
3, 30240, Note_on_c, 0, 57, 0
3, 30240, Note_on_c, 0, 55, 58
3, 30330, Note_on_c, 0, 55, 0
3, 30600, Note_on_c, 0, 53, 51
3, 30690, Note_on_c, 0, 53, 0
3, 30720, Note_on_c, 0, 52, 57
3, 30810, Note_on_c, 0, 52, 0
3, 31080, Note_on_c, 0, 50, 50
3, 31170, Note_on_c, 0, 50, 0
3, 31200, Note_on_c, 0, 37, 40
3, 31680, Note_on_c, 0, 37, 0
3, 31680, Note_on_c, 0, 38, 44
3, 31920, Note_on_c, 0, 38, 0
3, 32160, Note_on_c, 0, 62, 58
3, 33000, Note_on_c, 0, 62, 0
3, 33000, Note_on_c, 0, 60, 51
3, 33120, Note_on_c, 0, 60, 0
3, 33120, Note_on_c, 0, 58, 58
3, 33210, Note_on_c, 0, 58, 0
3, 33480, Note_on_c, 0, 57, 51
3, 33570, Note_on_c, 0, 57, 0
3, 33600, Note_on_c, 0, 55, 57
3, 33690, Note_on_c, 0, 55, 0
3, 33960, Note_on_c, 0, 53, 50
3, 34050, Note_on_c, 0, 53, 0
3, 34080, Note_on_c, 0, 52, 57
3, 34170, Note_on_c, 0, 52, 0
3, 34440, Note_on_c, 0, 51, 50
3, 34530, Note_on_c, 0, 51, 0
3, 34560, Note_on_c, 0, 50, 58
3, 34650, Note_on_c, 0, 50, 0
3, 35040, Note_on_c, 0, 50, 60
3, 35880, Note_on_c, 0, 50, 0
3, 35880, Note_on_c, 0, 48, 45
3, 36000, Note_on_c, 0, 48, 0
3, 36000, Note_on_c, 0, 46, 51
3, 36090, Note_on_c, 0, 46, 0
3, 36360, Note_on_c, 0, 45, 44
3, 36450, Note_on_c, 0, 45, 0
3, 36480, Note_on_c, 0, 43, 52
3, 36570, Note_on_c, 0, 43, 0
3, 36840, Note_on_c, 0, 41, 45
3, 36930, Note_on_c, 0, 41, 0
3, 36960, Note_on_c, 0, 40, 50
3, 37050, Note_on_c, 0, 40, 0
3, 37320, Note_on_c, 0, 39, 50
3, 37410, Note_on_c, 0, 39, 0
3, 37440, Note_on_c, 0, 38, 50
3, 37680, Note_on_c, 0, 38, 0
3, 38400, Note_on_c, 0, 38, 40
3, 38400, Note_on_c, 0, 46, 40
3, 38880, Note_on_c, 0, 38, 0
3, 38880, Note_on_c, 0, 39, 40
3, 39360, Note_on_c, 0, 39, 0
3, 39360, Note_on_c, 0, 46, 0
3, 39840, Note_on_c, 0, 38, 40
3, 39840, Note_on_c, 0, 46, 40
3, 40320, Note_on_c, 0, 38, 0
3, 40320, Note_on_c, 0, 39, 40
3, 40800, Note_on_c, 0, 39, 0
3, 40800, Note_on_c, 0, 46, 0
3, 41220, Note_on_c, 0, 36, 33
3, 41280, Note_on_c, 0, 51, 40
3, 42240, Note_on_c, 0, 36, 0
3, 42240, Note_on_c, 0, 48, 40
3, 42720, Note_on_c, 0, 48, 0
3, 42720, Note_on_c, 0, 51, 0
3, 42720, Note_on_c, 0, 53, 36
3, 42720, Note_on_c, 0, 41, 36
3, 43080, Note_on_c, 0, 53, 0
3, 43080, Note_on_c, 0, 51, 32
3, 43200, Note_on_c, 0, 51, 0
3, 43200, Note_on_c, 0, 41, 0
3, 43200, Note_on_c, 0, 46, 37
3, 43200, Note_on_c, 0, 50, 37
3, 43440, Note_on_c, 0, 50, 0
3, 43440, Note_on_c, 0, 46, 0
3, 44100, Note_on_c, 0, 41, 28
3, 44130, Note_on_c, 0, 49, 32
3, 44160, Note_on_c, 0, 57, 36
3, 44640, Note_on_c, 0, 57, 0
3, 44640, Note_on_c, 0, 49, 0
3, 44640, Note_on_c, 0, 41, 0
3, 44640, Note_on_c, 0, 58, 40
3, 44640, Note_on_c, 0, 50, 40
3, 45120, Note_on_c, 0, 50, 0
3, 45120, Note_on_c, 0, 58, 0
3, 45540, Note_on_c, 0, 41, 29
3, 45570, Note_on_c, 0, 49, 32
3, 45600, Note_on_c, 0, 57, 36
3, 46080, Note_on_c, 0, 57, 0
3, 46080, Note_on_c, 0, 49, 0
3, 46080, Note_on_c, 0, 41, 0
3, 46080, Note_on_c, 0, 58, 40
3, 46080, Note_on_c, 0, 50, 40
3, 46560, Note_on_c, 0, 50, 0
3, 46560, Note_on_c, 0, 58, 0
3, 46980, Note_on_c, 0, 46, 33
3, 47010, Note_on_c, 0, 53, 33
3, 47040, Note_on_c, 0, 62, 40
3, 47520, Note_on_c, 0, 62, 0
3, 47520, Note_on_c, 0, 46, 0
3, 47520, Note_on_c, 0, 62, 40
3, 48000, Note_on_c, 0, 53, 0
3, 48000, Note_on_c, 0, 55, 40
3, 48480, Note_on_c, 0, 55, 0
3, 48480, Note_on_c, 0, 62, 0
3, 48480, Note_on_c, 0, 60, 36
3, 48480, Note_on_c, 0, 48, 36
3, 48840, Note_on_c, 0, 60, 0
3, 48840, Note_on_c, 0, 58, 32
3, 48960, Note_on_c, 0, 58, 0
3, 48960, Note_on_c, 0, 48, 0
3, 48960, Note_on_c, 0, 53, 37
3, 48960, Note_on_c, 0, 57, 37
3, 49200, Note_on_c, 0, 57, 0
3, 49200, Note_on_c, 0, 53, 0
3, 49860, Note_on_c, 0, 50, 32
3, 49890, Note_on_c, 0, 58, 36
3, 49920, Note_on_c, 0, 65, 40
3, 50310, Note_on_c, 0, 58, 0
3, 50310, Note_on_c, 0, 50, 0
3, 50310, Note_on_c, 0, 51, 27
3, 50340, Note_on_c, 0, 54, 33
3, 50370, Note_on_c, 0, 58, 40
3, 50400, Note_on_c, 0, 66, 40
3, 50410, Note_on_c, 0, 65, 0
3, 50880, Note_on_c, 0, 58, 0
3, 50880, Note_on_c, 0, 51, 0
3, 50880, Note_on_c, 0, 54, 0
3, 50880, Note_on_c, 0, 66, 0
3, 51300, Note_on_c, 0, 50, 33
3, 51330, Note_on_c, 0, 58, 36
3, 51360, Note_on_c, 0, 65, 40
3, 51660, Note_on_c, 0, 50, 0
3, 51750, Note_on_c, 0, 65, 0
3, 51750, Note_on_c, 0, 58, 0
3, 51750, Note_on_c, 0, 51, 27
3, 51780, Note_on_c, 0, 54, 31
3, 51810, Note_on_c, 0, 58, 35
3, 51840, Note_on_c, 0, 66, 40
3, 52320, Note_on_c, 0, 66, 0
3, 52320, Note_on_c, 0, 51, 0
3, 52320, Note_on_c, 0, 54, 0
3, 52320, Note_on_c, 0, 58, 0
3, 52740, Note_on_c, 0, 54, 33
3, 52770, Note_on_c, 0, 61, 33
3, 52800, Note_on_c, 0, 70, 40
3, 53280, Note_on_c, 0, 70, 0
3, 53280, Note_on_c, 0, 54, 0
3, 53280, Note_on_c, 0, 70, 40
3, 53760, Note_on_c, 0, 61, 0
3, 53760, Note_on_c, 0, 63, 40
3, 54240, Note_on_c, 0, 63, 0
3, 54240, Note_on_c, 0, 70, 0
3, 54240, Note_on_c, 0, 66, 36
3, 54240, Note_on_c, 0, 56, 36
3, 54720, Note_on_c, 0, 56, 0
3, 54720, Note_on_c, 0, 66, 0
3, 54720, Note_on_c, 0, 61, 37
3, 54720, Note_on_c, 0, 65, 37
3, 54960, Note_on_c, 0, 65, 0
3, 54960, Note_on_c, 0, 61, 0
3, 55620, Note_on_c, 0, 44, 28
3, 55650, Note_on_c, 0, 51, 32
3, 55680, Note_on_c, 0, 60, 36
3, 56160, Note_on_c, 0, 60, 0
3, 56160, Note_on_c, 0, 51, 0
3, 56160, Note_on_c, 0, 44, 0
3, 56160, Note_on_c, 0, 61, 40
3, 56160, Note_on_c, 0, 53, 40
3, 56640, Note_on_c, 0, 53, 0
3, 56640, Note_on_c, 0, 61, 0
3, 57060, Note_on_c, 0, 44, 29
3, 57090, Note_on_c, 0, 51, 32
3, 57120, Note_on_c, 0, 60, 36
3, 57600, Note_on_c, 0, 60, 0
3, 57600, Note_on_c, 0, 51, 0
3, 57600, Note_on_c, 0, 44, 0
3, 57600, Note_on_c, 0, 61, 40
3, 57600, Note_on_c, 0, 53, 40
3, 58080, Note_on_c, 0, 53, 0
3, 58080, Note_on_c, 0, 61, 0
3, 58500, Note_on_c, 0, 49, 33
3, 58530, Note_on_c, 0, 56, 33
3, 58560, Note_on_c, 0, 65, 40
3, 59040, Note_on_c, 0, 65, 0
3, 59040, Note_on_c, 0, 49, 0
3, 59040, Note_on_c, 0, 65, 40
3, 59520, Note_on_c, 0, 56, 0
3, 59520, Note_on_c, 0, 58, 40
3, 60000, Note_on_c, 0, 58, 0
3, 60000, Note_on_c, 0, 65, 0
3, 60000, Note_on_c, 0, 61, 36
3, 60000, Note_on_c, 0, 51, 36
3, 60480, Note_on_c, 0, 51, 0
3, 60480, Note_on_c, 0, 61, 0
3, 60480, Note_on_c, 0, 56, 37
3, 60480, Note_on_c, 0, 60, 37
3, 60720, Note_on_c, 0, 60, 0
3, 60720, Note_on_c, 0, 56, 0
3, 60960, Note_on_c, 0, 54, 49
3, 61440, Note_on_c, 0, 44, 32
3, 61800, Note_on_c, 0, 54, 0
3, 61800, Note_on_c, 0, 50, 42
3, 61920, Note_on_c, 0, 50, 0
3, 61920, Note_on_c, 0, 51, 47
3, 62280, Note_on_c, 0, 51, 0
3, 62280, Note_on_c, 0, 53, 43
3, 62400, Note_on_c, 0, 53, 0
3, 62400, Note_on_c, 0, 44, 0
3, 62400, Note_on_c, 0, 54, 49
3, 62880, Note_on_c, 0, 44, 32
3, 63360, Note_on_c, 0, 54, 0
3, 63840, Note_on_c, 0, 44, 0
3, 63840, Note_on_c, 0, 51, 46
3, 64320, Note_on_c, 0, 44, 32
3, 64680, Note_on_c, 0, 51, 0
3, 64680, Note_on_c, 0, 47, 43
3, 64800, Note_on_c, 0, 47, 0
3, 64800, Note_on_c, 0, 48, 47
3, 65160, Note_on_c, 0, 48, 0
3, 65160, Note_on_c, 0, 49, 42
3, 65280, Note_on_c, 0, 49, 0
3, 65280, Note_on_c, 0, 44, 0
3, 65280, Note_on_c, 0, 51, 47
3, 65760, Note_on_c, 0, 44, 32
3, 67200, Note_on_c, 0, 44, 0
3, 67200, Note_on_c, 0, 51, 0
3, 67200, Note_on_c, 0, 45, 32
3, 68640, Note_on_c, 0, 45, 0
3, 68640, Note_on_c, 0, 47, 32
3, 70080, Note_on_c, 0, 47, 0
3, 70080, Note_on_c, 0, 48, 32
3, 71280, Note_on_c, 0, 48, 0
3, 71280, Note_on_c, 0, 50, 45
3, 71520, Note_on_c, 0, 50, 0
3, 71520, Note_on_c, 0, 52, 51
3, 71760, Note_on_c, 0, 52, 0
3, 71760, Note_on_c, 0, 54, 54
3, 72480, Note_on_c, 0, 54, 0
3, 72480, Note_on_c, 0, 31, 44
3, 73320, Note_on_c, 0, 31, 0
3, 73320, Note_on_c, 0, 34, 35
3, 73410, Note_on_c, 0, 34, 0
3, 73440, Note_on_c, 0, 33, 40
3, 73530, Note_on_c, 0, 33, 0
3, 74760, Note_on_c, 0, 30, 33
3, 74850, Note_on_c, 0, 30, 0
3, 74880, Note_on_c, 0, 31, 40
3, 74970, Note_on_c, 0, 31, 0
3, 76200, Note_on_c, 0, 34, 32
3, 76290, Note_on_c, 0, 34, 0
3, 76320, Note_on_c, 0, 36, 37
3, 76410, Note_on_c, 0, 36, 0
3, 76680, Note_on_c, 0, 38, 33
3, 76770, Note_on_c, 0, 38, 0
3, 76800, Note_on_c, 0, 39, 38
3, 76890, Note_on_c, 0, 39, 0
3, 77280, Note_on_c, 0, 51, 40
3, 77370, Note_on_c, 0, 51, 0
3, 77760, Note_on_c, 0, 38, 45
3, 77760, Note_on_c, 0, 50, 45
3, 77850, Note_on_c, 0, 50, 0
3, 77850, Note_on_c, 0, 38, 0
3, 78720, Note_on_c, 0, 30, 40
3, 79200, Note_on_c, 0, 30, 0
3, 79200, Note_on_c, 0, 31, 44
3, 79440, Note_on_c, 0, 31, 0
3, 79680, Note_on_c, 0, 55, 60
3, 80520, Note_on_c, 0, 55, 0
3, 80520, Note_on_c, 0, 53, 51
3, 80640, Note_on_c, 0, 53, 0
3, 80640, Note_on_c, 0, 51, 58
3, 80730, Note_on_c, 0, 51, 0
3, 81000, Note_on_c, 0, 50, 51
3, 81090, Note_on_c, 0, 50, 0
3, 81120, Note_on_c, 0, 48, 57
3, 81210, Note_on_c, 0, 48, 0
3, 81480, Note_on_c, 0, 46, 50
3, 81570, Note_on_c, 0, 46, 0
3, 81600, Note_on_c, 0, 33, 40
3, 82080, Note_on_c, 0, 33, 0
3, 82080, Note_on_c, 0, 34, 44
3, 82320, Note_on_c, 0, 34, 0
3, 82560, Note_on_c, 0, 58, 60
3, 83400, Note_on_c, 0, 58, 0
3, 83400, Note_on_c, 0, 57, 51
3, 83520, Note_on_c, 0, 57, 0
3, 83520, Note_on_c, 0, 55, 58
3, 83610, Note_on_c, 0, 55, 0
3, 83880, Note_on_c, 0, 53, 51
3, 83970, Note_on_c, 0, 53, 0
3, 84000, Note_on_c, 0, 52, 57
3, 84090, Note_on_c, 0, 52, 0
3, 84360, Note_on_c, 0, 50, 50
3, 84450, Note_on_c, 0, 50, 0
3, 84480, Note_on_c, 0, 37, 40
3, 84960, Note_on_c, 0, 37, 0
3, 84960, Note_on_c, 0, 38, 44
3, 85200, Note_on_c, 0, 38, 0
3, 85440, Note_on_c, 0, 62, 58
3, 86280, Note_on_c, 0, 62, 0
3, 86280, Note_on_c, 0, 60, 51
3, 86400, Note_on_c, 0, 60, 0
3, 86400, Note_on_c, 0, 58, 58
3, 86490, Note_on_c, 0, 58, 0
3, 86760, Note_on_c, 0, 57, 51
3, 86850, Note_on_c, 0, 57, 0
3, 86880, Note_on_c, 0, 55, 57
3, 86970, Note_on_c, 0, 55, 0
3, 87240, Note_on_c, 0, 53, 50
3, 87330, Note_on_c, 0, 53, 0
3, 87360, Note_on_c, 0, 52, 57
3, 87450, Note_on_c, 0, 52, 0
3, 87720, Note_on_c, 0, 51, 50
3, 87810, Note_on_c, 0, 51, 0
3, 87840, Note_on_c, 0, 50, 58
3, 88080, Note_on_c, 0, 50, 0
3, 88320, Note_on_c, 0, 55, 60
3, 89160, Note_on_c, 0, 55, 0
3, 89160, Note_on_c, 0, 53, 43
3, 89280, Note_on_c, 0, 53, 0
3, 89280, Note_on_c, 0, 51, 48
3, 89520, Note_on_c, 0, 51, 0
3, 89640, Note_on_c, 0, 50, 40
3, 89760, Note_on_c, 0, 50, 0
3, 89760, Note_on_c, 0, 50, 38
3, 89760, Note_on_c, 0, 48, 48
3, 90000, Note_on_c, 0, 48, 0
3, 90120, Note_on_c, 0, 46, 38
3, 90210, Note_on_c, 0, 46, 0
3, 90240, Note_on_c, 0, 45, 43
3, 90600, Note_on_c, 0, 45, 0
3, 90600, Note_on_c, 0, 44, 30
3, 90720, Note_on_c, 0, 44, 0
3, 90720, Note_on_c, 0, 43, 32
3, 91200, Note_on_c, 0, 43, 0
3, 91200, Note_on_c, 0, 50, 0
3, 91200, Note_on_c, 0, 48, 31
3, 91200, Note_on_c, 0, 55, 37
3, 91680, Note_on_c, 0, 55, 0
3, 91680, Note_on_c, 0, 48, 0
3, 91680, Note_on_c, 0, 48, 38
3, 91680, Note_on_c, 0, 57, 45
3, 92100, Note_on_c, 0, 57, 0
3, 92100, Note_on_c, 0, 48, 0
3, 92100, Note_on_c, 0, 43, 42
3, 92160, Note_on_c, 0, 43, 0
3, 92160, Note_on_c, 0, 58, 47
3, 92400, Note_on_c, 0, 58, 0
3, 92400, Note_on_c, 0, 60, 36
3, 92640, Note_on_c, 0, 60, 0
3, 92640, Note_on_c, 0, 57, 42
3, 92880, Note_on_c, 0, 57, 0
3, 92880, Note_on_c, 0, 58, 38
3, 93120, Note_on_c, 0, 58, 0
3, 93120, Note_on_c, 0, 55, 52
3, 93360, Note_on_c, 0, 55, 0
3, 93360, Note_on_c, 0, 62, 46
3, 93600, Note_on_c, 0, 62, 0
3, 93600, Note_on_c, 0, 62, 54
3, 94080, Note_on_c, 0, 62, 0
3, 94080, Note_on_c, 0, 48, 32
3, 94080, Note_on_c, 0, 55, 38
3, 94560, Note_on_c, 0, 55, 0
3, 94560, Note_on_c, 0, 48, 0
3, 94560, Note_on_c, 0, 48, 39
3, 94560, Note_on_c, 0, 57, 47
3, 94980, Note_on_c, 0, 57, 0
3, 94980, Note_on_c, 0, 48, 0
3, 94980, Note_on_c, 0, 43, 44
3, 95040, Note_on_c, 0, 43, 0
3, 95040, Note_on_c, 0, 58, 49
3, 95280, Note_on_c, 0, 58, 0
3, 95280, Note_on_c, 0, 60, 37
3, 95520, Note_on_c, 0, 60, 0
3, 95520, Note_on_c, 0, 57, 44
3, 95760, Note_on_c, 0, 57, 0
3, 95760, Note_on_c, 0, 58, 39
3, 96000, Note_on_c, 0, 58, 0
3, 96000, Note_on_c, 0, 55, 55
3, 96240, Note_on_c, 0, 55, 0
3, 96240, Note_on_c, 0, 63, 47
3, 96480, Note_on_c, 0, 63, 0
3, 96480, Note_on_c, 0, 63, 56
3, 96960, Note_on_c, 0, 63, 0
3, 96960, Note_on_c, 0, 48, 34
3, 96960, Note_on_c, 0, 55, 40
3, 97198, Note_on_c, 0, 55, 0
3, 97198, Note_on_c, 0, 48, 0
3, 97440, Note_on_c, 0, 41, 41
3, 97440, Note_on_c, 0, 53, 49
3, 97920, Note_on_c, 0, 41, 0
3, 97920, Note_on_c, 0, 46, 51
3, 98160, Note_on_c, 0, 46, 0
3, 98160, Note_on_c, 0, 53, 0
3, 98160, Note_on_c, 0, 58, 39
3, 98400, Note_on_c, 0, 58, 0
3, 98400, Note_on_c, 0, 55, 46
3, 98640, Note_on_c, 0, 55, 0
3, 98640, Note_on_c, 0, 57, 41
3, 98880, Note_on_c, 0, 57, 0
3, 98880, Note_on_c, 0, 53, 55
3, 99120, Note_on_c, 0, 53, 0
3, 99120, Note_on_c, 0, 62, 48
3, 99360, Note_on_c, 0, 62, 0
3, 99360, Note_on_c, 0, 62, 58
3, 99840, Note_on_c, 0, 62, 0
3, 99840, Note_on_c, 0, 46, 34
3, 99840, Note_on_c, 0, 53, 40
3, 100078, Note_on_c, 0, 53, 0
3, 100078, Note_on_c, 0, 46, 0
3, 100320, Note_on_c, 0, 39, 41
3, 100320, Note_on_c, 0, 51, 49
3, 100800, Note_on_c, 0, 39, 0
3, 100800, Note_on_c, 0, 45, 51
3, 101040, Note_on_c, 0, 45, 0
3, 101040, Note_on_c, 0, 51, 0
3, 101040, Note_on_c, 0, 57, 39
3, 101280, Note_on_c, 0, 57, 0
3, 101280, Note_on_c, 0, 53, 46
3, 101520, Note_on_c, 0, 53, 0
3, 101520, Note_on_c, 0, 55, 41
3, 101760, Note_on_c, 0, 55, 0
3, 101760, Note_on_c, 0, 51, 55
3, 102000, Note_on_c, 0, 51, 0
3, 102000, Note_on_c, 0, 60, 48
3, 102240, Note_on_c, 0, 60, 0
3, 102240, Note_on_c, 0, 60, 58
3, 102720, Note_on_c, 0, 60, 0
3, 102720, Note_on_c, 0, 36, 34
3, 102720, Note_on_c, 0, 48, 40
3, 102958, Note_on_c, 0, 48, 0
3, 102958, Note_on_c, 0, 36, 0
3, 103200, Note_on_c, 0, 38, 41
3, 103200, Note_on_c, 0, 50, 49
3, 103680, Note_on_c, 0, 38, 0
3, 103680, Note_on_c, 0, 43, 51
3, 103920, Note_on_c, 0, 43, 0
3, 103920, Note_on_c, 0, 50, 0
3, 103920, Note_on_c, 0, 51, 38
3, 104160, Note_on_c, 0, 51, 0
3, 104160, Note_on_c, 0, 48, 45
3, 104400, Note_on_c, 0, 48, 0
3, 104400, Note_on_c, 0, 50, 40
3, 104640, Note_on_c, 0, 50, 0
3, 104640, Note_on_c, 0, 46, 56
3, 104880, Note_on_c, 0, 46, 0
3, 104880, Note_on_c, 0, 55, 49
3, 105120, Note_on_c, 0, 55, 0
3, 105120, Note_on_c, 0, 55, 59
3, 105600, Note_on_c, 0, 55, 0
3, 105600, Note_on_c, 0, 36, 37
3, 105600, Note_on_c, 0, 48, 44
3, 105960, Note_on_c, 0, 48, 0
3, 105960, Note_on_c, 0, 36, 0
3, 106080, Note_on_c, 0, 38, 45
3, 106080, Note_on_c, 0, 50, 54
3, 106560, Note_on_c, 0, 38, 0
3, 106560, Note_on_c, 0, 43, 56
3, 106800, Note_on_c, 0, 43, 0
3, 106800, Note_on_c, 0, 50, 0
3, 106800, Note_on_c, 0, 50, 49
3, 107040, Note_on_c, 0, 50, 0
3, 107040, Note_on_c, 0, 52, 55
3, 107280, Note_on_c, 0, 52, 0
3, 107280, Note_on_c, 0, 54, 59
3, 107520, Note_on_c, 0, 54, 0
3, 107520, Note_on_c, 0, 55, 62
3, 107760, Note_on_c, 0, 55, 0
3, 107760, Note_on_c, 0, 57, 66
3, 108000, Note_on_c, 0, 57, 0
3, 108000, Note_on_c, 0, 58, 69
3, 108480, Note_on_c, 0, 58, 0
3, 108480, Note_on_c, 0, 55, 48
3, 108480, Note_on_c, 0, 58, 48
3, 108480, Note_on_c, 0, 62, 57
3, 108960, Note_on_c, 0, 62, 0
3, 108960, Note_on_c, 0, 58, 0
3, 108960, Note_on_c, 0, 55, 0
3, 108960, Note_on_c, 0, 55, 59
3, 108960, Note_on_c, 0, 58, 59
3, 108960, Note_on_c, 0, 61, 59
3, 108960, Note_on_c, 0, 64, 70
3, 109380, Note_on_c, 0, 64, 0
3, 109380, Note_on_c, 0, 55, 0
3, 109380, Note_on_c, 0, 58, 0
3, 109380, Note_on_c, 0, 61, 0
3, 109380, Note_on_c, 0, 50, 60
3, 109410, Note_on_c, 0, 57, 60
3, 109440, Note_on_c, 0, 65, 73
3, 109680, Note_on_c, 0, 65, 0
3, 109680, Note_on_c, 0, 57, 0
3, 109680, Note_on_c, 0, 50, 0
3, 109680, Note_on_c, 0, 67, 56
3, 109920, Note_on_c, 0, 67, 0
3, 109920, Note_on_c, 0, 64, 66
3, 110160, Note_on_c, 0, 64, 0
3, 110160, Note_on_c, 0, 65, 59
3, 110400, Note_on_c, 0, 65, 0
3, 110400, Note_on_c, 0, 62, 78
3, 110640, Note_on_c, 0, 62, 0
3, 110640, Note_on_c, 0, 70, 68
3, 110880, Note_on_c, 0, 70, 0
3, 110880, Note_on_c, 0, 70, 80
3, 111360, Note_on_c, 0, 70, 0
3, 111360, Note_on_c, 0, 55, 48
3, 111360, Note_on_c, 0, 58, 48
3, 111360, Note_on_c, 0, 62, 57
3, 111840, Note_on_c, 0, 62, 0
3, 111840, Note_on_c, 0, 58, 0
3, 111840, Note_on_c, 0, 55, 0
3, 111840, Note_on_c, 0, 55, 59
3, 111840, Note_on_c, 0, 58, 59
3, 111840, Note_on_c, 0, 61, 59
3, 111840, Note_on_c, 0, 64, 70
3, 112260, Note_on_c, 0, 64, 0
3, 112260, Note_on_c, 0, 55, 0
3, 112260, Note_on_c, 0, 58, 0
3, 112260, Note_on_c, 0, 61, 0
3, 112260, Note_on_c, 0, 50, 60
3, 112290, Note_on_c, 0, 57, 60
3, 112320, Note_on_c, 0, 65, 73
3, 112560, Note_on_c, 0, 65, 0
3, 112560, Note_on_c, 0, 57, 0
3, 112560, Note_on_c, 0, 50, 0
3, 112560, Note_on_c, 0, 67, 56
3, 112800, Note_on_c, 0, 67, 0
3, 112800, Note_on_c, 0, 64, 66
3, 113040, Note_on_c, 0, 64, 0
3, 113040, Note_on_c, 0, 65, 59
3, 113280, Note_on_c, 0, 65, 0
3, 113280, Note_on_c, 0, 62, 77
3, 113520, Note_on_c, 0, 62, 0
3, 113520, Note_on_c, 0, 70, 68
3, 113760, Note_on_c, 0, 70, 0
3, 113760, Note_on_c, 0, 70, 80
3, 114240, Note_on_c, 0, 70, 0
3, 114240, Note_on_c, 0, 50, 37
3, 114240, Note_on_c, 0, 58, 37
3, 114240, Note_on_c, 0, 62, 44
3, 114600, Note_on_c, 0, 62, 0
3, 114600, Note_on_c, 0, 58, 0
3, 114600, Note_on_c, 0, 50, 0
3, 114720, Note_on_c, 0, 50, 45
3, 114720, Note_on_c, 0, 58, 45
3, 114720, Note_on_c, 0, 62, 54
3, 115080, Note_on_c, 0, 62, 0
3, 115080, Note_on_c, 0, 58, 0
3, 115080, Note_on_c, 0, 50, 0
3, 115200, Note_on_c, 0, 51, 49
3, 115200, Note_on_c, 0, 58, 49
3, 115200, Note_on_c, 0, 60, 58
3, 115440, Note_on_c, 0, 60, 0
3, 115440, Note_on_c, 0, 58, 0
3, 115440, Note_on_c, 0, 51, 0
3, 115440, Note_on_c, 0, 67, 62
3, 115920, Note_on_c, 0, 67, 0
3, 115920, Note_on_c, 0, 63, 45
3, 116160, Note_on_c, 0, 63, 0
3, 116160, Note_on_c, 0, 60, 55
3, 116400, Note_on_c, 0, 60, 0
3, 116400, Note_on_c, 0, 58, 45
3, 116640, Note_on_c, 0, 58, 0
3, 116640, Note_on_c, 0, 53, 42
3, 116640, Note_on_c, 0, 57, 50
3, 116880, Note_on_c, 0, 57, 0
3, 116880, Note_on_c, 0, 53, 0
3, 116880, Note_on_c, 0, 63, 47
3, 117360, Note_on_c, 0, 63, 0
3, 117360, Note_on_c, 0, 60, 41
3, 117600, Note_on_c, 0, 60, 0
3, 117600, Note_on_c, 0, 57, 45
3, 117840, Note_on_c, 0, 57, 0
3, 117840, Note_on_c, 0, 55, 41
3, 118080, Note_on_c, 0, 55, 0
3, 118080, Note_on_c, 0, 54, 35
3, 118080, Note_on_c, 0, 57, 40
3, 118200, Note_on_c, 0, 57, 0
3, 118200, Note_on_c, 0, 54, 0
3, 118200, Note_on_c, 0, 62, 39
3, 118440, Note_on_c, 0, 62, 0
3, 118560, Note_on_c, 0, 48, 31
3, 118560, Note_on_c, 0, 55, 37
3, 119040, Note_on_c, 0, 55, 0
3, 119040, Note_on_c, 0, 48, 0
3, 119040, Note_on_c, 0, 48, 38
3, 119040, Note_on_c, 0, 57, 45
3, 119460, Note_on_c, 0, 57, 0
3, 119460, Note_on_c, 0, 48, 0
3, 119460, Note_on_c, 0, 43, 42
3, 119520, Note_on_c, 0, 43, 0
3, 119520, Note_on_c, 0, 58, 47
3, 119760, Note_on_c, 0, 58, 0
3, 119760, Note_on_c, 0, 60, 36
3, 120000, Note_on_c, 0, 60, 0
3, 120000, Note_on_c, 0, 57, 42
3, 120240, Note_on_c, 0, 57, 0
3, 120240, Note_on_c, 0, 58, 38
3, 120480, Note_on_c, 0, 58, 0
3, 120480, Note_on_c, 0, 55, 53
3, 120720, Note_on_c, 0, 55, 0
3, 120720, Note_on_c, 0, 62, 50
3, 120960, Note_on_c, 0, 62, 0
3, 120960, Note_on_c, 0, 62, 55
3, 121440, Note_on_c, 0, 62, 0
3, 121440, Note_on_c, 0, 48, 32
3, 121440, Note_on_c, 0, 55, 38
3, 121678, Note_on_c, 0, 55, 0
3, 121678, Note_on_c, 0, 48, 0
3, 121920, Note_on_c, 0, 48, 39
3, 121920, Note_on_c, 0, 57, 47
3, 122340, Note_on_c, 0, 57, 0
3, 122340, Note_on_c, 0, 48, 0
3, 122340, Note_on_c, 0, 43, 44
3, 122400, Note_on_c, 0, 43, 0
3, 122400, Note_on_c, 0, 58, 49
3, 122640, Note_on_c, 0, 58, 0
3, 122640, Note_on_c, 0, 60, 37
3, 122880, Note_on_c, 0, 60, 0
3, 122880, Note_on_c, 0, 57, 44
3, 123120, Note_on_c, 0, 57, 0
3, 123120, Note_on_c, 0, 58, 39
3, 123360, Note_on_c, 0, 58, 0
3, 123360, Note_on_c, 0, 55, 56
3, 123600, Note_on_c, 0, 55, 0
3, 123600, Note_on_c, 0, 63, 48
3, 123840, Note_on_c, 0, 63, 0
3, 123840, Note_on_c, 0, 63, 62
3, 124320, Note_on_c, 0, 63, 0
3, 124320, Note_on_c, 0, 48, 34
3, 124320, Note_on_c, 0, 55, 40
3, 124558, Note_on_c, 0, 55, 0
3, 124558, Note_on_c, 0, 48, 0
3, 124800, Note_on_c, 0, 41, 41
3, 124800, Note_on_c, 0, 53, 49
3, 125280, Note_on_c, 0, 41, 0
3, 125280, Note_on_c, 0, 46, 51
3, 125520, Note_on_c, 0, 46, 0
3, 125520, Note_on_c, 0, 53, 0
3, 125520, Note_on_c, 0, 58, 39
3, 125760, Note_on_c, 0, 58, 0
3, 125760, Note_on_c, 0, 55, 46
3, 126000, Note_on_c, 0, 55, 0
3, 126000, Note_on_c, 0, 57, 41
3, 126240, Note_on_c, 0, 57, 0
3, 126240, Note_on_c, 0, 53, 55
3, 126480, Note_on_c, 0, 53, 0
3, 126480, Note_on_c, 0, 62, 48
3, 126720, Note_on_c, 0, 62, 0
3, 126720, Note_on_c, 0, 62, 58
3, 127200, Note_on_c, 0, 62, 0
3, 127200, Note_on_c, 0, 46, 34
3, 127200, Note_on_c, 0, 53, 40
3, 127438, Note_on_c, 0, 53, 0
3, 127438, Note_on_c, 0, 46, 0
3, 127680, Note_on_c, 0, 39, 41
3, 127680, Note_on_c, 0, 51, 49
3, 128160, Note_on_c, 0, 39, 0
3, 128160, Note_on_c, 0, 45, 51
3, 128400, Note_on_c, 0, 45, 0
3, 128400, Note_on_c, 0, 51, 0
3, 128400, Note_on_c, 0, 57, 39
3, 128640, Note_on_c, 0, 57, 0
3, 128640, Note_on_c, 0, 53, 46
3, 128880, Note_on_c, 0, 53, 0
3, 128880, Note_on_c, 0, 55, 41
3, 129120, Note_on_c, 0, 55, 0
3, 129120, Note_on_c, 0, 51, 55
3, 129360, Note_on_c, 0, 51, 0
3, 129360, Note_on_c, 0, 60, 48
3, 129600, Note_on_c, 0, 60, 0
3, 129600, Note_on_c, 0, 60, 58
3, 130080, Note_on_c, 0, 60, 0
3, 130080, Note_on_c, 0, 36, 34
3, 130080, Note_on_c, 0, 48, 40
3, 130318, Note_on_c, 0, 48, 0
3, 130318, Note_on_c, 0, 36, 0
3, 130560, Note_on_c, 0, 38, 41
3, 130560, Note_on_c, 0, 50, 49
3, 131040, Note_on_c, 0, 38, 0
3, 131040, Note_on_c, 0, 43, 51
3, 131280, Note_on_c, 0, 43, 0
3, 131280, Note_on_c, 0, 50, 0
3, 131280, Note_on_c, 0, 51, 38
3, 131520, Note_on_c, 0, 51, 0
3, 131520, Note_on_c, 0, 48, 45
3, 131760, Note_on_c, 0, 48, 0
3, 131760, Note_on_c, 0, 50, 40
3, 132000, Note_on_c, 0, 50, 0
3, 132000, Note_on_c, 0, 46, 57
3, 132240, Note_on_c, 0, 46, 0
3, 132240, Note_on_c, 0, 55, 52
3, 132480, Note_on_c, 0, 55, 0
3, 132480, Note_on_c, 0, 55, 61
3, 132960, Note_on_c, 0, 55, 0
3, 132960, Note_on_c, 0, 36, 37
3, 132960, Note_on_c, 0, 48, 44
3, 133198, Note_on_c, 0, 48, 0
3, 133198, Note_on_c, 0, 36, 0
3, 133440, Note_on_c, 0, 38, 40
3, 133440, Note_on_c, 0, 50, 48
3, 133920, Note_on_c, 0, 38, 0
3, 133920, Note_on_c, 0, 43, 42
3, 134400, Note_on_c, 0, 43, 0
3, 134400, Note_on_c, 0, 50, 0
3, 134400, Note_on_c, 0, 34, 47
3, 134400, Note_on_c, 0, 46, 56
3, 134640, Note_on_c, 0, 46, 0
3, 134640, Note_on_c, 0, 34, 0
3, 134880, Note_on_c, 0, 33, 49
3, 134880, Note_on_c, 0, 45, 58
3, 135120, Note_on_c, 0, 45, 0
3, 135120, Note_on_c, 0, 33, 0
3, 135360, Note_on_c, 0, 32, 56
3, 135360, Note_on_c, 0, 44, 67
3, 135480, Note_on_c, 0, 44, 0
3, 135480, Note_on_c, 0, 32, 0
3, 135600, Note_on_c, 0, 58, 56
3, 135840, Note_on_c, 0, 58, 0
3, 135840, Note_on_c, 0, 53, 62
3, 136080, Note_on_c, 0, 53, 0
3, 136080, Note_on_c, 0, 55, 52
3, 136320, Note_on_c, 0, 55, 0
3, 136320, Note_on_c, 0, 46, 62
3, 136680, Note_on_c, 0, 46, 0
3, 136680, Note_on_c, 0, 58, 55
3, 136800, Note_on_c, 0, 58, 0
3, 136800, Note_on_c, 0, 58, 63
3, 137280, Note_on_c, 0, 58, 0
3, 137280, Note_on_c, 0, 32, 47
3, 137280, Note_on_c, 0, 44, 56
3, 137520, Note_on_c, 0, 44, 0
3, 137520, Note_on_c, 0, 32, 0
3, 137760, Note_on_c, 0, 31, 49
3, 137760, Note_on_c, 0, 43, 58
3, 138000, Note_on_c, 0, 43, 0
3, 138000, Note_on_c, 0, 31, 0
3, 138240, Note_on_c, 0, 29, 56
3, 138240, Note_on_c, 0, 41, 67
3, 138360, Note_on_c, 0, 41, 0
3, 138360, Note_on_c, 0, 29, 0
3, 138480, Note_on_c, 0, 65, 64
3, 138720, Note_on_c, 0, 65, 0
3, 138720, Note_on_c, 0, 60, 71
3, 138960, Note_on_c, 0, 60, 0
3, 138960, Note_on_c, 0, 62, 59
3, 139200, Note_on_c, 0, 62, 0
3, 139200, Note_on_c, 0, 56, 71
3, 139560, Note_on_c, 0, 56, 0
3, 139560, Note_on_c, 0, 68, 63
3, 139680, Note_on_c, 0, 68, 0
3, 139680, Note_on_c, 0, 68, 72
3, 140160, Note_on_c, 0, 68, 0
3, 140160, Note_on_c, 0, 29, 51
3, 140160, Note_on_c, 0, 41, 61
3, 140400, Note_on_c, 0, 41, 0
3, 140400, Note_on_c, 0, 29, 0
3, 140640, Note_on_c, 0, 27, 57
3, 140640, Note_on_c, 0, 39, 67
3, 140880, Note_on_c, 0, 39, 0
3, 140880, Note_on_c, 0, 27, 0
3, 141120, Note_on_c, 0, 26, 69
3, 141120, Note_on_c, 0, 38, 83
3, 141240, Note_on_c, 0, 38, 0
3, 141240, Note_on_c, 0, 26, 0
3, 144000, Note_on_c, 0, 38, 60
3, 144960, Note_on_c, 0, 46, 66
3, 145920, Note_on_c, 0, 38, 0
3, 145920, Note_on_c, 0, 39, 60
3, 146400, Note_on_c, 0, 39, 0
3, 146400, Note_on_c, 0, 40, 60
3, 146880, Note_on_c, 0, 40, 0
3, 146880, Note_on_c, 0, 41, 60
3, 147840, Note_on_c, 0, 41, 0
3, 147840, Note_on_c, 0, 46, 0
3, 147840, Note_on_c, 0, 46, 69
3, 147840, Note_on_c, 0, 42, 60
3, 148800, Note_on_c, 0, 42, 0
3, 148800, Note_on_c, 0, 43, 60
3, 149280, Note_on_c, 0, 46, 0
3, 149280, Note_on_c, 0, 51, 66
3, 149760, Note_on_c, 0, 43, 0
3, 149760, Note_on_c, 0, 45, 61
3, 150720, Note_on_c, 0, 51, 0
3, 150720, Note_on_c, 0, 53, 64
3, 151680, Note_on_c, 0, 53, 0
3, 151680, Note_on_c, 0, 45, 0
3, 151680, Note_on_c, 0, 54, 66
3, 151680, Note_on_c, 0, 45, 66
3, 152640, Note_on_c, 0, 45, 0
3, 152640, Note_on_c, 0, 54, 0
3, 152640, Note_on_c, 0, 55, 69
3, 152640, Note_on_c, 0, 46, 69
3, 153600, Note_on_c, 0, 46, 0
3, 153600, Note_on_c, 0, 55, 0
3, 153600, Note_on_c, 0, 56, 60
3, 153600, Note_on_c, 0, 47, 60
3, 154560, Note_on_c, 0, 47, 0
3, 154560, Note_on_c, 0, 56, 0
3, 154560, Note_on_c, 0, 55, 58
3, 154560, Note_on_c, 0, 48, 58
3, 155040, Note_on_c, 0, 55, 0
3, 155040, Note_on_c, 0, 57, 57
3, 155520, Note_on_c, 0, 48, 0
3, 155520, Note_on_c, 0, 50, 54
3, 156480, Note_on_c, 0, 57, 0
3, 156480, Note_on_c, 0, 58, 55
3, 157440, Note_on_c, 0, 50, 0
3, 157440, Note_on_c, 0, 51, 57
3, 157920, Note_on_c, 0, 51, 0
3, 157920, Note_on_c, 0, 52, 58
3, 158400, Note_on_c, 0, 52, 0
3, 158400, Note_on_c, 0, 53, 60
3, 159360, Note_on_c, 0, 53, 0
3, 159360, Note_on_c, 0, 58, 0
3, 159360, Note_on_c, 0, 58, 61
3, 159360, Note_on_c, 0, 54, 61
3, 160320, Note_on_c, 0, 54, 0
3, 160320, Note_on_c, 0, 55, 63
3, 160800, Note_on_c, 0, 58, 0
3, 160800, Note_on_c, 0, 63, 64
3, 161280, Note_on_c, 0, 55, 0
3, 161280, Note_on_c, 0, 56, 66
3, 162240, Note_on_c, 0, 63, 0
3, 162240, Note_on_c, 0, 65, 67
3, 163200, Note_on_c, 0, 65, 0
3, 163200, Note_on_c, 0, 56, 0
3, 163200, Note_on_c, 0, 57, 42
3, 163200, Note_on_c, 0, 66, 50
3, 164160, Note_on_c, 0, 66, 0
3, 164160, Note_on_c, 0, 57, 0
3, 164160, Note_on_c, 0, 58, 39
3, 164160, Note_on_c, 0, 67, 47
3, 165120, Note_on_c, 0, 67, 0
3, 165120, Note_on_c, 0, 58, 0
3, 165120, Note_on_c, 0, 59, 29
3, 165120, Note_on_c, 0, 62, 29
3, 165120, Note_on_c, 0, 65, 37
3, 165120, Note_on_c, 0, 68, 44
3, 166080, Note_on_c, 0, 68, 0
3, 166080, Note_on_c, 0, 59, 0
3, 166080, Note_on_c, 0, 62, 0
3, 166080, Note_on_c, 0, 65, 0
3, 166080, Note_on_c, 0, 60, 27
3, 166080, Note_on_c, 0, 63, 27
3, 166080, Note_on_c, 0, 66, 34
3, 166080, Note_on_c, 0, 69, 41
3, 167040, Note_on_c, 0, 69, 0
3, 167040, Note_on_c, 0, 60, 0
3, 167040, Note_on_c, 0, 63, 0
3, 167040, Note_on_c, 0, 66, 0
3, 167040, Note_on_c, 0, 62, 25
3, 167040, Note_on_c, 0, 65, 32
3, 167040, Note_on_c, 0, 70, 38
3, 168000, Note_on_c, 0, 70, 0
3, 168000, Note_on_c, 0, 65, 0
3, 168000, Note_on_c, 0, 62, 0
3, 168000, Note_on_c, 0, 64, 25
3, 168000, Note_on_c, 0, 67, 32
3, 168000, Note_on_c, 0, 70, 38
3, 168960, Note_on_c, 0, 70, 0
3, 168960, Note_on_c, 0, 67, 0
3, 168960, Note_on_c, 0, 64, 0
3, 168960, Note_on_c, 0, 65, 32
3, 168960, Note_on_c, 0, 68, 38
3, 169920, Note_on_c, 0, 68, 0
3, 169920, Note_on_c, 0, 65, 0
3, 169920, Note_on_c, 0, 62, 25
3, 169920, Note_on_c, 0, 65, 32
3, 169920, Note_on_c, 0, 68, 38
3, 170880, Note_on_c, 0, 68, 0
3, 170880, Note_on_c, 0, 65, 0
3, 170880, Note_on_c, 0, 62, 0
3, 170880, Note_on_c, 0, 63, 25
3, 170880, Note_on_c, 0, 65, 32
3, 170880, Note_on_c, 0, 68, 38
3, 171840, Note_on_c, 0, 68, 0
3, 171840, Note_on_c, 0, 65, 0
3, 171840, Note_on_c, 0, 63, 0
3, 171840, Note_on_c, 0, 62, 25
3, 171840, Note_on_c, 0, 65, 32
3, 171840, Note_on_c, 0, 68, 38
3, 172800, Note_on_c, 0, 68, 0
3, 172800, Note_on_c, 0, 65, 0
3, 172800, Note_on_c, 0, 62, 0
3, 172800, Note_on_c, 0, 60, 25
3, 172800, Note_on_c, 0, 65, 32
3, 172800, Note_on_c, 0, 68, 38
3, 173760, Note_on_c, 0, 68, 0
3, 173760, Note_on_c, 0, 65, 0
3, 173760, Note_on_c, 0, 60, 0
3, 173760, Note_on_c, 0, 59, 25
3, 173760, Note_on_c, 0, 65, 32
3, 173760, Note_on_c, 0, 68, 38
3, 174720, Note_on_c, 0, 68, 0
3, 174720, Note_on_c, 0, 65, 0
3, 174720, Note_on_c, 0, 59, 0
3, 174720, Note_on_c, 0, 60, 25
3, 174720, Note_on_c, 0, 65, 32
3, 174720, Note_on_c, 0, 68, 38
3, 175680, Note_on_c, 0, 68, 0
3, 175680, Note_on_c, 0, 65, 0
3, 175680, Note_on_c, 0, 60, 0
3, 175680, Note_on_c, 0, 59, 25
3, 175680, Note_on_c, 0, 65, 32
3, 175680, Note_on_c, 0, 68, 38
3, 177360, Note_on_c, 0, 68, 0
3, 177360, Note_on_c, 0, 65, 0
3, 177360, Note_on_c, 0, 59, 0
3, 177360, Note_on_c, 0, 70, 36
3, 177840, Note_on_c, 0, 70, 0
3, 177840, Note_on_c, 0, 68, 27
3, 178080, Note_on_c, 0, 68, 0
3, 178080, Note_on_c, 0, 65, 37
3, 178320, Note_on_c, 0, 65, 0
3, 178320, Note_on_c, 0, 62, 30
3, 178560, Note_on_c, 0, 62, 0
3, 178560, Note_on_c, 0, 59, 27
3, 179040, Note_on_c, 0, 59, 0
3, 179040, Note_on_c, 0, 48, 21
3, 179040, Note_on_c, 0, 55, 31
3, 179520, Note_on_c, 0, 55, 0
3, 179520, Note_on_c, 0, 48, 0
3, 179520, Note_on_c, 0, 48, 32
3, 179520, Note_on_c, 0, 57, 38
3, 179940, Note_on_c, 0, 57, 0
3, 179940, Note_on_c, 0, 48, 0
3, 179940, Note_on_c, 0, 43, 35
3, 180000, Note_on_c, 0, 43, 0
3, 180000, Note_on_c, 0, 58, 39
3, 180240, Note_on_c, 0, 58, 0
3, 180240, Note_on_c, 0, 60, 33
3, 180480, Note_on_c, 0, 60, 0
3, 180480, Note_on_c, 0, 57, 38
3, 180720, Note_on_c, 0, 57, 0
3, 180720, Note_on_c, 0, 58, 35
3, 180960, Note_on_c, 0, 58, 0
3, 180960, Note_on_c, 0, 55, 47
3, 181200, Note_on_c, 0, 55, 0
3, 181200, Note_on_c, 0, 62, 40
3, 181440, Note_on_c, 0, 62, 0
3, 181440, Note_on_c, 0, 62, 49
3, 181920, Note_on_c, 0, 62, 0
3, 181920, Note_on_c, 0, 48, 27
3, 181920, Note_on_c, 0, 55, 32
3, 182400, Note_on_c, 0, 55, 0
3, 182400, Note_on_c, 0, 48, 0
3, 182400, Note_on_c, 0, 48, 33
3, 182400, Note_on_c, 0, 57, 39
3, 182820, Note_on_c, 0, 57, 0
3, 182820, Note_on_c, 0, 48, 0
3, 182820, Note_on_c, 0, 43, 37
3, 182880, Note_on_c, 0, 43, 0
3, 182880, Note_on_c, 0, 58, 41
3, 183120, Note_on_c, 0, 58, 0
3, 183120, Note_on_c, 0, 60, 34
3, 183360, Note_on_c, 0, 60, 0
3, 183360, Note_on_c, 0, 57, 40
3, 183600, Note_on_c, 0, 57, 0
3, 183600, Note_on_c, 0, 58, 36
3, 183840, Note_on_c, 0, 58, 0
3, 183840, Note_on_c, 0, 55, 51
3, 184080, Note_on_c, 0, 55, 0
3, 184080, Note_on_c, 0, 63, 45
3, 184320, Note_on_c, 0, 63, 0
3, 184320, Note_on_c, 0, 63, 52
3, 184800, Note_on_c, 0, 63, 0
3, 184800, Note_on_c, 0, 48, 28
3, 184800, Note_on_c, 0, 55, 34
3, 185038, Note_on_c, 0, 55, 0
3, 185038, Note_on_c, 0, 48, 0
3, 185280, Note_on_c, 0, 41, 34
3, 185280, Note_on_c, 0, 53, 41
3, 185760, Note_on_c, 0, 41, 0
3, 185760, Note_on_c, 0, 46, 43
3, 186000, Note_on_c, 0, 46, 0
3, 186000, Note_on_c, 0, 53, 0
3, 186000, Note_on_c, 0, 58, 36
3, 186240, Note_on_c, 0, 58, 0
3, 186240, Note_on_c, 0, 55, 42
3, 186480, Note_on_c, 0, 55, 0
3, 186480, Note_on_c, 0, 57, 37
3, 186720, Note_on_c, 0, 57, 0
3, 186720, Note_on_c, 0, 53, 50
3, 186960, Note_on_c, 0, 53, 0
3, 186960, Note_on_c, 0, 62, 44
3, 187200, Note_on_c, 0, 62, 0
3, 187200, Note_on_c, 0, 62, 53
3, 187680, Note_on_c, 0, 62, 0
3, 187680, Note_on_c, 0, 46, 28
3, 187680, Note_on_c, 0, 53, 34
3, 187918, Note_on_c, 0, 53, 0
3, 187918, Note_on_c, 0, 46, 0
3, 188160, Note_on_c, 0, 39, 34
3, 188160, Note_on_c, 0, 51, 41
3, 188640, Note_on_c, 0, 39, 0
3, 188640, Note_on_c, 0, 45, 43
3, 188880, Note_on_c, 0, 45, 0
3, 188880, Note_on_c, 0, 51, 0
3, 188880, Note_on_c, 0, 57, 33
3, 189120, Note_on_c, 0, 57, 0
3, 189120, Note_on_c, 0, 53, 42
3, 189360, Note_on_c, 0, 53, 0
3, 189360, Note_on_c, 0, 55, 37
3, 189600, Note_on_c, 0, 55, 0
3, 189600, Note_on_c, 0, 51, 50
3, 189840, Note_on_c, 0, 51, 0
3, 189840, Note_on_c, 0, 60, 44
3, 190080, Note_on_c, 0, 60, 0
3, 190080, Note_on_c, 0, 60, 53
3, 190560, Note_on_c, 0, 60, 0
3, 190560, Note_on_c, 0, 36, 28
3, 190560, Note_on_c, 0, 48, 34
3, 190798, Note_on_c, 0, 48, 0
3, 190798, Note_on_c, 0, 36, 0
3, 191040, Note_on_c, 0, 38, 34
3, 191040, Note_on_c, 0, 50, 41
3, 191520, Note_on_c, 0, 38, 0
3, 191520, Note_on_c, 0, 43, 43
3, 191760, Note_on_c, 0, 43, 0
3, 191760, Note_on_c, 0, 50, 0
3, 191760, Note_on_c, 0, 51, 35
3, 192000, Note_on_c, 0, 51, 0
3, 192000, Note_on_c, 0, 48, 41
3, 192240, Note_on_c, 0, 48, 0
3, 192240, Note_on_c, 0, 50, 37
3, 192480, Note_on_c, 0, 50, 0
3, 192480, Note_on_c, 0, 46, 49
3, 192720, Note_on_c, 0, 46, 0
3, 192720, Note_on_c, 0, 55, 42
3, 192960, Note_on_c, 0, 55, 0
3, 192960, Note_on_c, 0, 55, 51
3, 193440, Note_on_c, 0, 55, 0
3, 193440, Note_on_c, 0, 36, 31
3, 193440, Note_on_c, 0, 48, 37
3, 193678, Note_on_c, 0, 48, 0
3, 193678, Note_on_c, 0, 36, 0
3, 193920, Note_on_c, 0, 38, 38
3, 193920, Note_on_c, 0, 50, 45
3, 194400, Note_on_c, 0, 38, 0
3, 194400, Note_on_c, 0, 43, 47
3, 194880, Note_on_c, 0, 43, 0
3, 194880, Note_on_c, 0, 50, 0
3, 195360, Note_on_c, 0, 38, 40
3, 195360, Note_on_c, 0, 46, 40
3, 195840, Note_on_c, 0, 38, 0
3, 195840, Note_on_c, 0, 39, 40
3, 196320, Note_on_c, 0, 39, 0
3, 196320, Note_on_c, 0, 46, 0
3, 196800, Note_on_c, 0, 38, 40
3, 196800, Note_on_c, 0, 46, 40
3, 197280, Note_on_c, 0, 38, 0
3, 197280, Note_on_c, 0, 39, 40
3, 197760, Note_on_c, 0, 39, 0
3, 197760, Note_on_c, 0, 46, 0
3, 198180, Note_on_c, 0, 36, 33
3, 198240, Note_on_c, 0, 51, 40
3, 199200, Note_on_c, 0, 36, 0
3, 199200, Note_on_c, 0, 48, 40
3, 199680, Note_on_c, 0, 48, 0
3, 199680, Note_on_c, 0, 51, 0
3, 199680, Note_on_c, 0, 53, 36
3, 199680, Note_on_c, 0, 41, 36
3, 200040, Note_on_c, 0, 53, 0
3, 200040, Note_on_c, 0, 51, 32
3, 200160, Note_on_c, 0, 51, 0
3, 200160, Note_on_c, 0, 41, 0
3, 200160, Note_on_c, 0, 46, 37
3, 200160, Note_on_c, 0, 50, 37
3, 200400, Note_on_c, 0, 50, 0
3, 200400, Note_on_c, 0, 46, 0
3, 201060, Note_on_c, 0, 41, 28
3, 201090, Note_on_c, 0, 49, 32
3, 201120, Note_on_c, 0, 57, 36
3, 201600, Note_on_c, 0, 57, 0
3, 201600, Note_on_c, 0, 49, 0
3, 201600, Note_on_c, 0, 41, 0
3, 201600, Note_on_c, 0, 58, 40
3, 201600, Note_on_c, 0, 50, 40
3, 202080, Note_on_c, 0, 50, 0
3, 202080, Note_on_c, 0, 58, 0
3, 202500, Note_on_c, 0, 41, 29
3, 202530, Note_on_c, 0, 49, 32
3, 202560, Note_on_c, 0, 57, 36
3, 203040, Note_on_c, 0, 57, 0
3, 203040, Note_on_c, 0, 49, 0
3, 203040, Note_on_c, 0, 41, 0
3, 203040, Note_on_c, 0, 58, 40
3, 203040, Note_on_c, 0, 50, 40
3, 203520, Note_on_c, 0, 50, 0
3, 203520, Note_on_c, 0, 58, 0
3, 203940, Note_on_c, 0, 46, 33
3, 203970, Note_on_c, 0, 53, 33
3, 204000, Note_on_c, 0, 62, 40
3, 204480, Note_on_c, 0, 62, 0
3, 204480, Note_on_c, 0, 46, 0
3, 204480, Note_on_c, 0, 62, 40
3, 204960, Note_on_c, 0, 53, 0
3, 204960, Note_on_c, 0, 55, 40
3, 205440, Note_on_c, 0, 55, 0
3, 205440, Note_on_c, 0, 62, 0
3, 205440, Note_on_c, 0, 60, 36
3, 205440, Note_on_c, 0, 48, 36
3, 205800, Note_on_c, 0, 60, 0
3, 205800, Note_on_c, 0, 58, 32
3, 205920, Note_on_c, 0, 58, 0
3, 205920, Note_on_c, 0, 48, 0
3, 205920, Note_on_c, 0, 53, 37
3, 205920, Note_on_c, 0, 57, 37
3, 206160, Note_on_c, 0, 57, 0
3, 206160, Note_on_c, 0, 53, 0
3, 206820, Note_on_c, 0, 50, 32
3, 206850, Note_on_c, 0, 58, 36
3, 206880, Note_on_c, 0, 65, 40
3, 207270, Note_on_c, 0, 58, 0
3, 207270, Note_on_c, 0, 50, 0
3, 207270, Note_on_c, 0, 51, 27
3, 207300, Note_on_c, 0, 54, 33
3, 207330, Note_on_c, 0, 58, 40
3, 207360, Note_on_c, 0, 66, 40
3, 207370, Note_on_c, 0, 65, 0
3, 207840, Note_on_c, 0, 58, 0
3, 207840, Note_on_c, 0, 51, 0
3, 207840, Note_on_c, 0, 54, 0
3, 207840, Note_on_c, 0, 66, 0
3, 208260, Note_on_c, 0, 50, 33
3, 208290, Note_on_c, 0, 58, 36
3, 208320, Note_on_c, 0, 65, 40
3, 208620, Note_on_c, 0, 50, 0
3, 208710, Note_on_c, 0, 65, 0
3, 208710, Note_on_c, 0, 58, 0
3, 208710, Note_on_c, 0, 51, 27
3, 208740, Note_on_c, 0, 54, 31
3, 208770, Note_on_c, 0, 58, 35
3, 208800, Note_on_c, 0, 66, 40
3, 209280, Note_on_c, 0, 66, 0
3, 209280, Note_on_c, 0, 51, 0
3, 209280, Note_on_c, 0, 54, 0
3, 209280, Note_on_c, 0, 58, 0
3, 209700, Note_on_c, 0, 54, 33
3, 209730, Note_on_c, 0, 61, 33
3, 209760, Note_on_c, 0, 70, 40
3, 210240, Note_on_c, 0, 70, 0
3, 210240, Note_on_c, 0, 54, 0
3, 210240, Note_on_c, 0, 70, 40
3, 210720, Note_on_c, 0, 61, 0
3, 210720, Note_on_c, 0, 63, 40
3, 211200, Note_on_c, 0, 63, 0
3, 211200, Note_on_c, 0, 70, 0
3, 211200, Note_on_c, 0, 66, 36
3, 211200, Note_on_c, 0, 56, 36
3, 211680, Note_on_c, 0, 56, 0
3, 211680, Note_on_c, 0, 66, 0
3, 211680, Note_on_c, 0, 61, 37
3, 211680, Note_on_c, 0, 65, 37
3, 211920, Note_on_c, 0, 65, 0
3, 211920, Note_on_c, 0, 61, 0
3, 212580, Note_on_c, 0, 44, 32
3, 212610, Note_on_c, 0, 51, 36
3, 212640, Note_on_c, 0, 60, 40
3, 213120, Note_on_c, 0, 60, 0
3, 213120, Note_on_c, 0, 51, 0
3, 213120, Note_on_c, 0, 44, 0
3, 213120, Note_on_c, 0, 61, 40
3, 213120, Note_on_c, 0, 53, 40
3, 213600, Note_on_c, 0, 53, 0
3, 213600, Note_on_c, 0, 61, 0
3, 214020, Note_on_c, 0, 44, 33
3, 214050, Note_on_c, 0, 51, 36
3, 214080, Note_on_c, 0, 60, 40
3, 214560, Note_on_c, 0, 60, 0
3, 214560, Note_on_c, 0, 51, 0
3, 214560, Note_on_c, 0, 44, 0
3, 214560, Note_on_c, 0, 61, 40
3, 214560, Note_on_c, 0, 53, 40
3, 215040, Note_on_c, 0, 53, 0
3, 215040, Note_on_c, 0, 61, 0
3, 215460, Note_on_c, 0, 49, 33
3, 215490, Note_on_c, 0, 56, 33
3, 215520, Note_on_c, 0, 65, 40
3, 216000, Note_on_c, 0, 65, 0
3, 216000, Note_on_c, 0, 49, 0
3, 216000, Note_on_c, 0, 65, 40
3, 216480, Note_on_c, 0, 56, 0
3, 216480, Note_on_c, 0, 58, 40
3, 216960, Note_on_c, 0, 58, 0
3, 216960, Note_on_c, 0, 65, 0
3, 216960, Note_on_c, 0, 61, 36
3, 216960, Note_on_c, 0, 51, 36
3, 217440, Note_on_c, 0, 51, 0
3, 217440, Note_on_c, 0, 61, 0
3, 217440, Note_on_c, 0, 56, 37
3, 217440, Note_on_c, 0, 60, 37
3, 217680, Note_on_c, 0, 60, 0
3, 217680, Note_on_c, 0, 56, 0
3, 217920, Note_on_c, 0, 54, 46
3, 218400, Note_on_c, 0, 44, 32
3, 218760, Note_on_c, 0, 54, 0
3, 218760, Note_on_c, 0, 50, 43
3, 218880, Note_on_c, 0, 50, 0
3, 218880, Note_on_c, 0, 51, 49
3, 219240, Note_on_c, 0, 51, 0
3, 219240, Note_on_c, 0, 53, 42
3, 219360, Note_on_c, 0, 53, 0
3, 219360, Note_on_c, 0, 44, 0
3, 219360, Note_on_c, 0, 54, 49
3, 219840, Note_on_c, 0, 44, 32
3, 220320, Note_on_c, 0, 54, 0
3, 220800, Note_on_c, 0, 44, 0
3, 220800, Note_on_c, 0, 51, 46
3, 221280, Note_on_c, 0, 44, 32
3, 221640, Note_on_c, 0, 51, 0
3, 221640, Note_on_c, 0, 47, 42
3, 221760, Note_on_c, 0, 47, 0
3, 221760, Note_on_c, 0, 48, 49
3, 222120, Note_on_c, 0, 48, 0
3, 222120, Note_on_c, 0, 49, 44
3, 222240, Note_on_c, 0, 49, 0
3, 222240, Note_on_c, 0, 44, 0
3, 222240, Note_on_c, 0, 51, 48
3, 222720, Note_on_c, 0, 44, 32
3, 223200, Note_on_c, 0, 51, 0
3, 224160, Note_on_c, 0, 44, 0
3, 224160, Note_on_c, 0, 45, 32
3, 225600, Note_on_c, 0, 45, 0
3, 225600, Note_on_c, 0, 47, 32
3, 227040, Note_on_c, 0, 47, 0
3, 227040, Note_on_c, 0, 48, 32
3, 228240, Note_on_c, 0, 48, 0
3, 228240, Note_on_c, 0, 50, 43
3, 228480, Note_on_c, 0, 50, 0
3, 228480, Note_on_c, 0, 52, 49
3, 228720, Note_on_c, 0, 52, 0
3, 228720, Note_on_c, 0, 54, 53
3, 229440, Note_on_c, 0, 54, 0
3, 229440, Note_on_c, 0, 31, 44
3, 230280, Note_on_c, 0, 31, 0
3, 230280, Note_on_c, 0, 34, 35
3, 230370, Note_on_c, 0, 34, 0
3, 230400, Note_on_c, 0, 33, 40
3, 230490, Note_on_c, 0, 33, 0
3, 231720, Note_on_c, 0, 30, 33
3, 231810, Note_on_c, 0, 30, 0
3, 231840, Note_on_c, 0, 31, 40
3, 231930, Note_on_c, 0, 31, 0
3, 233160, Note_on_c, 0, 34, 32
3, 233250, Note_on_c, 0, 34, 0
3, 233280, Note_on_c, 0, 36, 37
3, 233370, Note_on_c, 0, 36, 0
3, 233640, Note_on_c, 0, 38, 33
3, 233730, Note_on_c, 0, 38, 0
3, 233760, Note_on_c, 0, 39, 38
3, 233850, Note_on_c, 0, 39, 0
3, 234240, Note_on_c, 0, 51, 40
3, 234330, Note_on_c, 0, 51, 0
3, 234720, Note_on_c, 0, 38, 45
3, 234720, Note_on_c, 0, 50, 45
3, 234810, Note_on_c, 0, 50, 0
3, 234810, Note_on_c, 0, 38, 0
3, 235680, Note_on_c, 0, 30, 40
3, 236160, Note_on_c, 0, 30, 0
3, 236160, Note_on_c, 0, 31, 44
3, 236400, Note_on_c, 0, 31, 0
3, 236640, Note_on_c, 0, 55, 60
3, 237480, Note_on_c, 0, 55, 0
3, 237480, Note_on_c, 0, 53, 51
3, 237600, Note_on_c, 0, 53, 0
3, 237600, Note_on_c, 0, 51, 58
3, 237690, Note_on_c, 0, 51, 0
3, 237960, Note_on_c, 0, 50, 51
3, 238050, Note_on_c, 0, 50, 0
3, 238080, Note_on_c, 0, 48, 57
3, 238170, Note_on_c, 0, 48, 0
3, 238440, Note_on_c, 0, 46, 50
3, 238530, Note_on_c, 0, 46, 0
3, 238560, Note_on_c, 0, 33, 40
3, 239040, Note_on_c, 0, 33, 0
3, 239040, Note_on_c, 0, 34, 44
3, 239280, Note_on_c, 0, 34, 0
3, 239520, Note_on_c, 0, 58, 60
3, 240360, Note_on_c, 0, 58, 0
3, 240360, Note_on_c, 0, 57, 51
3, 240480, Note_on_c, 0, 57, 0
3, 240480, Note_on_c, 0, 55, 58
3, 240570, Note_on_c, 0, 55, 0
3, 240840, Note_on_c, 0, 53, 51
3, 240930, Note_on_c, 0, 53, 0
3, 240960, Note_on_c, 0, 52, 57
3, 241050, Note_on_c, 0, 52, 0
3, 241320, Note_on_c, 0, 50, 50
3, 241410, Note_on_c, 0, 50, 0
3, 241440, Note_on_c, 0, 37, 40
3, 241920, Note_on_c, 0, 37, 0
3, 241920, Note_on_c, 0, 38, 44
3, 242160, Note_on_c, 0, 38, 0
3, 242400, Note_on_c, 0, 62, 58
3, 243240, Note_on_c, 0, 62, 0
3, 243240, Note_on_c, 0, 60, 51
3, 243360, Note_on_c, 0, 60, 0
3, 243360, Note_on_c, 0, 58, 58
3, 243450, Note_on_c, 0, 58, 0
3, 243720, Note_on_c, 0, 57, 51
3, 243810, Note_on_c, 0, 57, 0
3, 243840, Note_on_c, 0, 55, 57
3, 243930, Note_on_c, 0, 55, 0
3, 244200, Note_on_c, 0, 53, 50
3, 244290, Note_on_c, 0, 53, 0
3, 244320, Note_on_c, 0, 52, 57
3, 244410, Note_on_c, 0, 52, 0
3, 244680, Note_on_c, 0, 51, 50
3, 244770, Note_on_c, 0, 51, 0
3, 244800, Note_on_c, 0, 50, 58
3, 245040, Note_on_c, 0, 50, 0
3, 245280, Note_on_c, 0, 50, 60
3, 246120, Note_on_c, 0, 50, 0
3, 246120, Note_on_c, 0, 48, 43
3, 246240, Note_on_c, 0, 48, 0
3, 246240, Note_on_c, 0, 46, 53
3, 246600, Note_on_c, 0, 46, 0
3, 246600, Note_on_c, 0, 45, 49
3, 246720, Note_on_c, 0, 45, 0
3, 246720, Note_on_c, 0, 43, 48
3, 246960, Note_on_c, 0, 43, 0
3, 246960, Note_on_c, 0, 41, 42
3, 247200, Note_on_c, 0, 41, 0
3, 247200, Note_on_c, 0, 40, 41
3, 247440, Note_on_c, 0, 40, 0
3, 247440, Note_on_c, 0, 39, 32
3, 247680, Note_on_c, 0, 39, 0
3, 247680, Note_on_c, 0, 38, 47
3, 247800, Note_on_c, 0, 45, 29
3, 248640, Note_on_c, 0, 45, 0
3, 248640, Note_on_c, 0, 38, 0
3, 248640, End_track
4, 0, Start_track
4, 0, Title_t, "Pedale"
4, 0, Program_c, 0, 0
4, 6360, Control_c, 0, 64, 127
4, 7200, Control_c, 0, 64, 0
4, 9304, Control_c, 0, 64, 127
4, 10193, Control_c, 0, 64, 0
4, 12166, Control_c, 0, 64, 127
4, 12960, Control_c, 0, 64, 0
4, 15486, Control_c, 0, 64, 127
4, 15847, Control_c, 0, 64, 0
4, 25080, Control_c, 0, 64, 127
4, 25920, Control_c, 0, 64, 0
4, 28024, Control_c, 0, 64, 127
4, 28913, Control_c, 0, 64, 0
4, 30886, Control_c, 0, 64, 127
4, 31680, Control_c, 0, 64, 0
4, 34206, Control_c, 0, 64, 127
4, 34567, Control_c, 0, 64, 0
4, 37937, Control_c, 0, 64, 127
4, 38889, Control_c, 0, 64, 0
4, 38949, Control_c, 0, 64, 127
4, 39372, Control_c, 0, 64, 0
4, 39469, Control_c, 0, 64, 127
4, 40352, Control_c, 0, 64, 0
4, 40416, Control_c, 0, 64, 127
4, 40818, Control_c, 0, 64, 0
4, 40878, Control_c, 0, 64, 127
4, 41838, Control_c, 0, 64, 0
4, 41937, Control_c, 0, 64, 127
4, 42252, Control_c, 0, 64, 0
4, 42339, Control_c, 0, 64, 127
4, 42728, Control_c, 0, 64, 0
4, 42819, Control_c, 0, 64, 127
4, 43200, Control_c, 0, 64, 0
4, 43697, Control_c, 0, 64, 127
4, 44649, Control_c, 0, 64, 0
4, 44709, Control_c, 0, 64, 127
4, 45132, Control_c, 0, 64, 0
4, 45229, Control_c, 0, 64, 127
4, 46112, Control_c, 0, 64, 0
4, 46176, Control_c, 0, 64, 127
4, 46578, Control_c, 0, 64, 0
4, 46638, Control_c, 0, 64, 127
4, 47598, Control_c, 0, 64, 0
4, 47697, Control_c, 0, 64, 127
4, 48012, Control_c, 0, 64, 0
4, 48099, Control_c, 0, 64, 127
4, 48488, Control_c, 0, 64, 0
4, 48579, Control_c, 0, 64, 127
4, 48960, Control_c, 0, 64, 0
4, 49457, Control_c, 0, 64, 127
4, 50409, Control_c, 0, 64, 0
4, 50469, Control_c, 0, 64, 127
4, 50892, Control_c, 0, 64, 0
4, 50989, Control_c, 0, 64, 127
4, 51872, Control_c, 0, 64, 0
4, 51936, Control_c, 0, 64, 127
4, 52338, Control_c, 0, 64, 0
4, 52398, Control_c, 0, 64, 127
4, 53358, Control_c, 0, 64, 0
4, 53457, Control_c, 0, 64, 127
4, 53772, Control_c, 0, 64, 0
4, 53859, Control_c, 0, 64, 127
4, 54248, Control_c, 0, 64, 0
4, 54339, Control_c, 0, 64, 127
4, 54720, Control_c, 0, 64, 0
4, 55217, Control_c, 0, 64, 127
4, 56169, Control_c, 0, 64, 0
4, 56229, Control_c, 0, 64, 127
4, 56652, Control_c, 0, 64, 0
4, 56749, Control_c, 0, 64, 127
4, 57632, Control_c, 0, 64, 0
4, 57696, Control_c, 0, 64, 127
4, 58098, Control_c, 0, 64, 0
4, 58158, Control_c, 0, 64, 127
4, 59118, Control_c, 0, 64, 0
4, 59217, Control_c, 0, 64, 127
4, 59532, Control_c, 0, 64, 0
4, 59619, Control_c, 0, 64, 127
4, 60008, Control_c, 0, 64, 0
4, 60099, Control_c, 0, 64, 127
4, 60480, Control_c, 0, 64, 0
4, 60960, Control_c, 0, 64, 127
4, 61931, Control_c, 0, 64, 0
4, 62040, Control_c, 0, 64, 127
4, 62410, Control_c, 0, 64, 0
4, 62520, Control_c, 0, 64, 127
4, 63366, Control_c, 0, 64, 0
4, 63452, Control_c, 0, 64, 127
4, 63852, Control_c, 0, 64, 0
4, 63920, Control_c, 0, 64, 127
4, 64811, Control_c, 0, 64, 0
4, 64926, Control_c, 0, 64, 127
4, 65268, Control_c, 0, 64, 0
4, 65360, Control_c, 0, 64, 127
4, 66240, Control_c, 0, 64, 0
4, 66343, Control_c, 0, 64, 127
4, 66730, Control_c, 0, 64, 0
4, 66835, Control_c, 0, 64, 127
4, 67688, Control_c, 0, 64, 0
4, 67772, Control_c, 0, 64, 127
4, 68170, Control_c, 0, 64, 0
4, 68269, Control_c, 0, 64, 127
4, 69128, Control_c, 0, 64, 0
4, 69217, Control_c, 0, 64, 127
4, 69608, Control_c, 0, 64, 0
4, 69697, Control_c, 0, 64, 127
4, 70560, Control_c, 0, 64, 0
4, 70635, Control_c, 0, 64, 127
4, 71047, Control_c, 0, 64, 0
4, 78360, Control_c, 0, 64, 127
4, 79200, Control_c, 0, 64, 0
4, 81304, Control_c, 0, 64, 127
4, 82193, Control_c, 0, 64, 0
4, 84166, Control_c, 0, 64, 127
4, 84960, Control_c, 0, 64, 0
4, 87486, Control_c, 0, 64, 127
4, 87847, Control_c, 0, 64, 0
4, 88406, Control_c, 0, 64, 127
4, 89298, Control_c, 0, 64, 0
4, 90286, Control_c, 0, 64, 127
4, 90731, Control_c, 0, 64, 0
4, 91264, Control_c, 0, 64, 127
4, 91692, Control_c, 0, 64, 0
4, 91783, Control_c, 0, 64, 127
4, 92167, Control_c, 0, 64, 0
4, 92245, Control_c, 0, 64, 127
4, 92648, Control_c, 0, 64, 0
4, 92739, Control_c, 0, 64, 127
4, 93132, Control_c, 0, 64, 0
4, 93374, Control_c, 0, 64, 127
4, 93600, Control_c, 0, 64, 0
4, 94151, Control_c, 0, 64, 127
4, 94570, Control_c, 0, 64, 0
4, 94627, Control_c, 0, 64, 127
4, 95046, Control_c, 0, 64, 0
4, 95210, Control_c, 0, 64, 127
4, 95532, Control_c, 0, 64, 0
4, 95690, Control_c, 0, 64, 127
4, 96009, Control_c, 0, 64, 0
4, 96156, Control_c, 0, 64, 127
4, 96483, Control_c, 0, 64, 0
4, 97040, Control_c, 0, 64, 127
4, 97250, Control_c, 0, 64, 0
4, 97654, Control_c, 0, 64, 127
4, 97977, Control_c, 0, 64, 0
4, 98146, Control_c, 0, 64, 127
4, 98411, Control_c, 0, 64, 0
4, 98612, Control_c, 0, 64, 127
4, 98893, Control_c, 0, 64, 0
4, 98965, Control_c, 0, 64, 127
4, 99365, Control_c, 0, 64, 0
4, 99707, Control_c, 0, 64, 127
4, 100024, Control_c, 0, 64, 0
4, 100480, Control_c, 0, 64, 127
4, 100800, Control_c, 0, 64, 0
4, 100956, Control_c, 0, 64, 127
4, 101288, Control_c, 0, 64, 0
4, 101464, Control_c, 0, 64, 127
4, 101771, Control_c, 0, 64, 0
4, 101930, Control_c, 0, 64, 127
4, 102240, Control_c, 0, 64, 0
4, 102876, Control_c, 0, 64, 127
4, 103073, Control_c, 0, 64, 0
4, 103452, Control_c, 0, 64, 127
4, 103737, Control_c, 0, 64, 0
4, 103836, Control_c, 0, 64, 127
4, 104168, Control_c, 0, 64, 0
4, 104316, Control_c, 0, 64, 127
4, 104652, Control_c, 0, 64, 0
4, 104852, Control_c, 0, 64, 127
4, 105120, Control_c, 0, 64, 0
4, 105783, Control_c, 0, 64, 127
4, 105939, Control_c, 0, 64, 0
4, 106309, Control_c, 0, 64, 127
4, 106572, Control_c, 0, 64, 0
4, 106743, Control_c, 0, 64, 127
4, 107047, Control_c, 0, 64, 0
4, 107200, Control_c, 0, 64, 127
4, 108000, Control_c, 0, 64, 0
4, 108509, Control_c, 0, 64, 127
4, 108972, Control_c, 0, 64, 0
4, 109004, Control_c, 0, 64, 127
4, 109440, Control_c, 0, 64, 0
4, 109507, Control_c, 0, 64, 127
4, 109930, Control_c, 0, 64, 0
4, 109991, Control_c, 0, 64, 127
4, 110893, Control_c, 0, 64, 0
4, 110943, Control_c, 0, 64, 127
4, 111370, Control_c, 0, 64, 0
4, 111411, Control_c, 0, 64, 127
4, 111852, Control_c, 0, 64, 0
4, 111944, Control_c, 0, 64, 127
4, 112345, Control_c, 0, 64, 0
4, 112391, Control_c, 0, 64, 127
4, 112808, Control_c, 0, 64, 0
4, 112878, Control_c, 0, 64, 127
4, 113760, Control_c, 0, 64, 0
4, 113989, Control_c, 0, 64, 127
4, 114253, Control_c, 0, 64, 0
4, 114469, Control_c, 0, 64, 127
4, 114731, Control_c, 0, 64, 0
4, 114949, Control_c, 0, 64, 127
4, 115213, Control_c, 0, 64, 0
4, 115339, Control_c, 0, 64, 127
4, 115450, Control_c, 0, 64, 0
4, 115655, Control_c, 0, 64, 127
4, 116640, Control_c, 0, 64, 0
4, 116824, Control_c, 0, 64, 127
4, 118080, Control_c, 0, 64, 0
4, 118143, Control_c, 0, 64, 127
4, 118286, Control_c, 0, 64, 0
4, 118624, Control_c, 0, 64, 127
4, 119052, Control_c, 0, 64, 0
4, 119143, Control_c, 0, 64, 127
4, 119527, Control_c, 0, 64, 0
4, 119605, Control_c, 0, 64, 127
4, 120011, Control_c, 0, 64, 0
4, 120113, Control_c, 0, 64, 127
4, 120492, Control_c, 0, 64, 0
4, 120734, Control_c, 0, 64, 127
4, 120960, Control_c, 0, 64, 0
4, 121511, Control_c, 0, 64, 127
4, 121680, Control_c, 0, 64, 0
4, 121987, Control_c, 0, 64, 127
4, 122406, Control_c, 0, 64, 0
4, 122570, Control_c, 0, 64, 127
4, 122892, Control_c, 0, 64, 0
4, 123050, Control_c, 0, 64, 127
4, 123369, Control_c, 0, 64, 0
4, 123516, Control_c, 0, 64, 127
4, 123843, Control_c, 0, 64, 0
4, 124400, Control_c, 0, 64, 127
4, 124708, Control_c, 0, 64, 0
4, 125014, Control_c, 0, 64, 127
4, 125337, Control_c, 0, 64, 0
4, 125506, Control_c, 0, 64, 127
4, 125771, Control_c, 0, 64, 0
4, 125972, Control_c, 0, 64, 127
4, 126253, Control_c, 0, 64, 0
4, 126325, Control_c, 0, 64, 127
4, 126725, Control_c, 0, 64, 0
4, 127067, Control_c, 0, 64, 127
4, 127426, Control_c, 0, 64, 0
4, 127840, Control_c, 0, 64, 127
4, 128160, Control_c, 0, 64, 0
4, 128316, Control_c, 0, 64, 127
4, 128648, Control_c, 0, 64, 0
4, 128824, Control_c, 0, 64, 127
4, 129131, Control_c, 0, 64, 0
4, 129290, Control_c, 0, 64, 127
4, 129600, Control_c, 0, 64, 0
4, 130221, Control_c, 0, 64, 127
4, 130384, Control_c, 0, 64, 0
4, 130812, Control_c, 0, 64, 127
4, 131097, Control_c, 0, 64, 0
4, 131196, Control_c, 0, 64, 127
4, 131528, Control_c, 0, 64, 0
4, 131676, Control_c, 0, 64, 127
4, 132012, Control_c, 0, 64, 0
4, 132212, Control_c, 0, 64, 127
4, 132480, Control_c, 0, 64, 0
4, 133073, Control_c, 0, 64, 127
4, 133264, Control_c, 0, 64, 0
4, 133669, Control_c, 0, 64, 127
4, 133920, Control_c, 0, 64, 0
4, 133983, Control_c, 0, 64, 127
4, 134126, Control_c, 0, 64, 0
4, 134464, Control_c, 0, 64, 127
4, 134892, Control_c, 0, 64, 0
4, 134983, Control_c, 0, 64, 127
4, 135367, Control_c, 0, 64, 0
4, 135445, Control_c, 0, 64, 127
4, 135863, Control_c, 0, 64, 0
4, 135926, Control_c, 0, 64, 127
4, 136332, Control_c, 0, 64, 0
4, 136574, Control_c, 0, 64, 127
4, 136800, Control_c, 0, 64, 0
4, 137344, Control_c, 0, 64, 127
4, 137772, Control_c, 0, 64, 0
4, 137863, Control_c, 0, 64, 127
4, 138247, Control_c, 0, 64, 0
4, 138325, Control_c, 0, 64, 127
4, 138743, Control_c, 0, 64, 0
4, 138806, Control_c, 0, 64, 127
4, 139212, Control_c, 0, 64, 0
4, 139454, Control_c, 0, 64, 127
4, 139680, Control_c, 0, 64, 0
4, 140224, Control_c, 0, 64, 127
4, 140652, Control_c, 0, 64, 0
4, 140743, Control_c, 0, 64, 127
4, 141127, Control_c, 0, 64, 0
4, 141205, Control_c, 0, 64, 127
4, 144092, Control_c, 0, 64, 0
4, 144252, Control_c, 0, 64, 127
4, 144973, Control_c, 0, 64, 0
4, 145200, Control_c, 0, 64, 127
4, 145933, Control_c, 0, 64, 0
4, 146103, Control_c, 0, 64, 127
4, 146880, Control_c, 0, 64, 0
4, 147109, Control_c, 0, 64, 127
4, 147849, Control_c, 0, 64, 0
4, 148012, Control_c, 0, 64, 127
4, 148812, Control_c, 0, 64, 0
4, 148915, Control_c, 0, 64, 127
4, 149772, Control_c, 0, 64, 0
4, 149920, Control_c, 0, 64, 127
4, 150731, Control_c, 0, 64, 0
4, 150903, Control_c, 0, 64, 127
4, 151693, Control_c, 0, 64, 0
4, 151875, Control_c, 0, 64, 127
4, 152648, Control_c, 0, 64, 0
4, 152838, Control_c, 0, 64, 127
4, 153607, Control_c, 0, 64, 0
4, 153770, Control_c, 0, 64, 127
4, 154571, Control_c, 0, 64, 0
4, 154732, Control_c, 0, 64, 127
4, 155526, Control_c, 0, 64, 0
4, 155680, Control_c, 0, 64, 127
4, 156487, Control_c, 0, 64, 0
4, 156675, Control_c, 0, 64, 127
4, 157454, Control_c, 0, 64, 0
4, 157612, Control_c, 0, 64, 127
4, 158406, Control_c, 0, 64, 0
4, 158560, Control_c, 0, 64, 127
4, 159369, Control_c, 0, 64, 0
4, 159555, Control_c, 0, 64, 127
4, 160332, Control_c, 0, 64, 0
4, 160503, Control_c, 0, 64, 127
4, 161287, Control_c, 0, 64, 0
4, 161406, Control_c, 0, 64, 127
4, 162259, Control_c, 0, 64, 0
4, 162389, Control_c, 0, 64, 127
4, 163214, Control_c, 0, 64, 0
4, 163349, Control_c, 0, 64, 127
4, 164168, Control_c, 0, 64, 0
4, 164358, Control_c, 0, 64, 127
4, 165131, Control_c, 0, 64, 0
4, 165388, Control_c, 0, 64, 127
4, 166096, Control_c, 0, 64, 0
4, 166229, Control_c, 0, 64, 127
4, 167050, Control_c, 0, 64, 0
4, 167238, Control_c, 0, 64, 127
4, 168011, Control_c, 0, 64, 0
4, 168212, Control_c, 0, 64, 127
4, 168976, Control_c, 0, 64, 0
4, 169120, Control_c, 0, 64, 127
4, 169927, Control_c, 0, 64, 0
4, 170069, Control_c, 0, 64, 127
4, 170899, Control_c, 0, 64, 0
4, 171063, Control_c, 0, 64, 127
4, 171852, Control_c, 0, 64, 0
4, 172069, Control_c, 0, 64, 127
4, 172813, Control_c, 0, 64, 0
4, 172995, Control_c, 0, 64, 127
4, 173772, Control_c, 0, 64, 0
4, 173943, Control_c, 0, 64, 127
4, 174732, Control_c, 0, 64, 0
4, 174869, Control_c, 0, 64, 127
4, 175692, Control_c, 0, 64, 0
4, 175829, Control_c, 0, 64, 127
4, 177120, Control_c, 0, 64, 0
4, 177566, Control_c, 0, 64, 127
4, 178560, Control_c, 0, 64, 0
4, 179104, Control_c, 0, 64, 127
4, 179532, Control_c, 0, 64, 0
4, 179623, Control_c, 0, 64, 127
4, 180007, Control_c, 0, 64, 0
4, 180085, Control_c, 0, 64, 127
4, 180487, Control_c, 0, 64, 0
4, 180565, Control_c, 0, 64, 127
4, 180972, Control_c, 0, 64, 0
4, 181214, Control_c, 0, 64, 127
4, 181440, Control_c, 0, 64, 0
4, 181991, Control_c, 0, 64, 127
4, 182410, Control_c, 0, 64, 0
4, 182467, Control_c, 0, 64, 127
4, 182886, Control_c, 0, 64, 0
4, 183050, Control_c, 0, 64, 127
4, 183372, Control_c, 0, 64, 0
4, 183530, Control_c, 0, 64, 127
4, 183849, Control_c, 0, 64, 0
4, 183996, Control_c, 0, 64, 127
4, 184323, Control_c, 0, 64, 0
4, 184880, Control_c, 0, 64, 127
4, 185083, Control_c, 0, 64, 0
4, 185494, Control_c, 0, 64, 127
4, 185817, Control_c, 0, 64, 0
4, 185986, Control_c, 0, 64, 127
4, 186251, Control_c, 0, 64, 0
4, 186452, Control_c, 0, 64, 127
4, 186733, Control_c, 0, 64, 0
4, 186805, Control_c, 0, 64, 127
4, 187205, Control_c, 0, 64, 0
4, 187547, Control_c, 0, 64, 127
4, 187977, Control_c, 0, 64, 0
4, 188320, Control_c, 0, 64, 127
4, 188640, Control_c, 0, 64, 0
4, 188796, Control_c, 0, 64, 127
4, 189128, Control_c, 0, 64, 0
4, 189304, Control_c, 0, 64, 127
4, 189611, Control_c, 0, 64, 0
4, 189770, Control_c, 0, 64, 127
4, 190080, Control_c, 0, 64, 0
4, 190708, Control_c, 0, 64, 127
4, 190836, Control_c, 0, 64, 0
4, 191292, Control_c, 0, 64, 127
4, 191577, Control_c, 0, 64, 0
4, 191676, Control_c, 0, 64, 127
4, 192008, Control_c, 0, 64, 0
4, 192156, Control_c, 0, 64, 127
4, 192492, Control_c, 0, 64, 0
4, 192692, Control_c, 0, 64, 127
4, 192960, Control_c, 0, 64, 0
4, 193539, Control_c, 0, 64, 127
4, 193701, Control_c, 0, 64, 0
4, 194149, Control_c, 0, 64, 127
4, 194400, Control_c, 0, 64, 0
4, 195000, Control_c, 0, 64, 127
4, 195849, Control_c, 0, 64, 0
4, 195909, Control_c, 0, 64, 127
4, 196332, Control_c, 0, 64, 0
4, 196429, Control_c, 0, 64, 127
4, 197312, Control_c, 0, 64, 0
4, 197376, Control_c, 0, 64, 127
4, 197778, Control_c, 0, 64, 0
4, 197838, Control_c, 0, 64, 127
4, 198798, Control_c, 0, 64, 0
4, 198897, Control_c, 0, 64, 127
4, 199212, Control_c, 0, 64, 0
4, 199299, Control_c, 0, 64, 127
4, 199688, Control_c, 0, 64, 0
4, 199779, Control_c, 0, 64, 127
4, 200160, Control_c, 0, 64, 0
4, 200657, Control_c, 0, 64, 127
4, 201609, Control_c, 0, 64, 0
4, 201669, Control_c, 0, 64, 127
4, 202092, Control_c, 0, 64, 0
4, 202189, Control_c, 0, 64, 127
4, 203072, Control_c, 0, 64, 0
4, 203136, Control_c, 0, 64, 127
4, 203538, Control_c, 0, 64, 0
4, 203598, Control_c, 0, 64, 127
4, 204558, Control_c, 0, 64, 0
4, 204657, Control_c, 0, 64, 127
4, 204972, Control_c, 0, 64, 0
4, 205059, Control_c, 0, 64, 127
4, 205448, Control_c, 0, 64, 0
4, 205539, Control_c, 0, 64, 127
4, 205920, Control_c, 0, 64, 0
4, 206417, Control_c, 0, 64, 127
4, 207369, Control_c, 0, 64, 0
4, 207429, Control_c, 0, 64, 127
4, 207852, Control_c, 0, 64, 0
4, 207949, Control_c, 0, 64, 127
4, 208832, Control_c, 0, 64, 0
4, 208896, Control_c, 0, 64, 127
4, 209298, Control_c, 0, 64, 0
4, 209358, Control_c, 0, 64, 127
4, 210318, Control_c, 0, 64, 0
4, 210417, Control_c, 0, 64, 127
4, 210732, Control_c, 0, 64, 0
4, 210819, Control_c, 0, 64, 127
4, 211208, Control_c, 0, 64, 0
4, 211299, Control_c, 0, 64, 127
4, 211680, Control_c, 0, 64, 0
4, 212177, Control_c, 0, 64, 127
4, 213129, Control_c, 0, 64, 0
4, 213189, Control_c, 0, 64, 127
4, 213612, Control_c, 0, 64, 0
4, 213709, Control_c, 0, 64, 127
4, 214592, Control_c, 0, 64, 0
4, 214656, Control_c, 0, 64, 127
4, 215058, Control_c, 0, 64, 0
4, 215118, Control_c, 0, 64, 127
4, 216078, Control_c, 0, 64, 0
4, 216177, Control_c, 0, 64, 127
4, 216492, Control_c, 0, 64, 0
4, 216579, Control_c, 0, 64, 127
4, 216968, Control_c, 0, 64, 0
4, 217059, Control_c, 0, 64, 127
4, 217440, Control_c, 0, 64, 0
4, 217920, Control_c, 0, 64, 127
4, 218891, Control_c, 0, 64, 0
4, 219000, Control_c, 0, 64, 127
4, 219370, Control_c, 0, 64, 0
4, 219480, Control_c, 0, 64, 127
4, 220326, Control_c, 0, 64, 0
4, 220412, Control_c, 0, 64, 127
4, 220812, Control_c, 0, 64, 0
4, 220880, Control_c, 0, 64, 127
4, 221771, Control_c, 0, 64, 0
4, 221886, Control_c, 0, 64, 127
4, 222228, Control_c, 0, 64, 0
4, 222320, Control_c, 0, 64, 127
4, 223200, Control_c, 0, 64, 0
4, 223303, Control_c, 0, 64, 127
4, 223690, Control_c, 0, 64, 0
4, 223795, Control_c, 0, 64, 127
4, 224648, Control_c, 0, 64, 0
4, 224732, Control_c, 0, 64, 127
4, 225130, Control_c, 0, 64, 0
4, 225229, Control_c, 0, 64, 127
4, 226088, Control_c, 0, 64, 0
4, 226177, Control_c, 0, 64, 127
4, 226568, Control_c, 0, 64, 0
4, 226657, Control_c, 0, 64, 127
4, 227520, Control_c, 0, 64, 0
4, 227595, Control_c, 0, 64, 127
4, 228007, Control_c, 0, 64, 0
4, 235320, Control_c, 0, 64, 127
4, 236160, Control_c, 0, 64, 0
4, 238264, Control_c, 0, 64, 127
4, 239153, Control_c, 0, 64, 0
4, 241126, Control_c, 0, 64, 127
4, 241920, Control_c, 0, 64, 0
4, 244446, Control_c, 0, 64, 127
4, 244807, Control_c, 0, 64, 0
4, 245366, Control_c, 0, 64, 127
4, 246235, Control_c, 0, 64, 0
4, 246339, Control_c, 0, 64, 127
4, 246734, Control_c, 0, 64, 0
4, 246791, Control_c, 0, 64, 127
4, 247216, Control_c, 0, 64, 0
4, 247320, Control_c, 0, 64, 127
4, 247688, Control_c, 0, 64, 0
4, 247800, Control_c, 0, 64, 127
4, 248743, Control_c, 0, 64, 0
4, 248743, End_track
5, 0, Start_track
5, 0, Title_t, "Schumann: Kreisleriana Part 5"
5, 0, End_track
6, 0, Start_track
6, 0, Title_t, "Copyright © 2007 by Bernd Krueger"
6, 0, End_track
7, 0, Start_track
7, 0, Title_t, "http://www.piano-midi.de/"
7, 0, End_track
8, 0, Start_track
8, 0, Title_t, "Edition: 2014-03-27"
8, 0, End_track
9, 0, Start_track
9, 0, Title_t, "Spur 8"
9, 0, End_track
10, 0, Start_track
10, 0, Title_t, "Spur 9"
10, 0, End_track
11, 0, Start_track
11, 0, Title_t, "Spur 10"
11, 0, End_track
12, 0, Start_track
12, 0, Title_t, "Spur 11"
12, 0, End_track
13, 0, Start_track
13, 0, Title_t, "Spur 12"
13, 0, End_track
14, 0, Start_track
14, 0, Title_t, "Spur 13"
14, 0, End_track
15, 0, Start_track
15, 0, Title_t, "Spur 14"
15, 0, End_track
16, 0, Start_track
16, 0, Title_t, "Spur 15"
16, 0, End_track
17, 0, Start_track
17, 0, Title_t, "Spur 16"
17, 0, End_track
0, 0, End_of_file
