0, 0, Header, 1, 8, 480
1, 0, Start_track
1, 0, Title_t, "Die Jahreszeiten"
1, 0, Title_t, "August"
1, 0, Copyright_t, "Copyright © 2004 by Bernd Krueger"
1, 0, Text_t, "Peter Tschaikowsky"
1, 0, Text_t, "Allegro vivace"
1, 0, Text_t, "Fertiggestellt am 22.10.2000\012"
1, 0, Text_t, "Normierung: 23.12.2002\012"
1, 0, Text_t, "Update am 2.9.2004\012"
1, 0, Text_t, "Update am 21.9.2008\012"
1, 0, Text_t, "Dauer: 3:13 Minuten\012"
1, 0, SMPTE_offset, 96, 0, 3, 0, 0
1, 0, Time_signature, 6, 3, 12, 8
1, 0, Key_signature, 2, "major"
1, 0, Tempo, 322702
1, 0, Marker_t, "Allegro vivace"
1, 960, Tempo, 298507
1, 1440, Tempo, 299252
1, 1920, Tempo, 305312
1, 2360, Tempo, 298507
1, 2400, Tempo, 299252
1, 2880, Tempo, 300752
1, 3360, Tempo, 306905
1, 3840, Tempo, 299252
1, 4320, Tempo, 301508
1, 4800, Tempo, 299835
1, 5280, Tempo, 302160
1, 6480, Tempo, 303721
1, 6720, Tempo, 299835
1, 6960, Tempo, 308515
1, 7200, Tempo, 302160
1, 7440, Tempo, 302160
1, 7920, Tempo, 303721
1, 8160, Tempo, 302160
1, 8880, Tempo, 303721
1, 9360, Tempo, 304507
1, 9600, Tempo, 299835
1, 10080, Tempo, 303721
1, 10320, Tempo, 302160
1, 10800, Tempo, 305312
1, 11040, Tempo, 302160
1, 11760, Tempo, 303721
1, 12240, Tempo, 497925
1, 12480, Tempo, 298507
1, 12960, Tempo, 299252
1, 13440, Tempo, 305312
1, 13920, Tempo, 298507
1, 14400, Tempo, 300000
1, 14880, Tempo, 306905
1, 15360, Tempo, 299252
1, 15840, Tempo, 301508
1, 16320, Tempo, 299835
1, 16800, Tempo, 302160
1, 18000, Tempo, 303721
1, 18240, Tempo, 299835
1, 18480, Tempo, 308515
1, 18720, Tempo, 302160
1, 18960, Tempo, 302160
1, 19440, Tempo, 303721
1, 19680, Tempo, 302160
1, 20400, Tempo, 303721
1, 20880, Tempo, 304507
1, 21120, Tempo, 299835
1, 21600, Tempo, 303721
1, 21840, Tempo, 302160
1, 22320, Tempo, 305312
1, 22560, Tempo, 304507
1, 23040, Tempo, 306107
1, 23280, Tempo, 308515
1, 23520, Tempo, 302160
1, 23760, Tempo, 500000
1, 24000, Tempo, 297767
1, 24480, Tempo, 299252
1, 24960, Tempo, 305312
1, 25440, Tempo, 298507
1, 25920, Tempo, 300752
1, 26400, Tempo, 306905
1, 26640, Tempo, 320000
1, 26880, Tempo, 294840
1, 27120, Tempo, 297767
1, 27360, Tempo, 303721
1, 27600, Tempo, 294840
1, 27840, Tempo, 297767
1, 28080, Tempo, 304507
1, 28320, Tempo, 299835
1, 28800, Tempo, 300601
1, 29040, Tempo, 309342
1, 29280, Tempo, 304507
1, 29520, Tempo, 401338
1, 29760, Tempo, 298507
1, 30240, Tempo, 299252
1, 30720, Tempo, 305312
1, 31200, Tempo, 298507
1, 31680, Tempo, 299252
1, 32160, Tempo, 306905
1, 32400, Tempo, 314961
1, 32640, Tempo, 296296
1, 32880, Tempo, 298507
1, 33120, Tempo, 303721
1, 33360, Tempo, 296296
1, 33600, Tempo, 302160
1, 33840, Tempo, 304507
1, 34080, Tempo, 299835
1, 34120, Tempo, 297030
1, 34560, Tempo, 300601
1, 34800, Tempo, 309342
1, 35040, Tempo, 304507
1, 35520, Tempo, 302160
1, 36720, Tempo, 305312
1, 36960, Tempo, 303721
1, 38160, Tempo, 306107
1, 38400, Tempo, 302160
1, 39600, Tempo, 306107
1, 39840, Tempo, 303721
1, 41040, Tempo, 306107
1, 41280, Tempo, 302160
1, 42480, Tempo, 304507
1, 42720, Tempo, 302160
1, 43920, Tempo, 306107
1, 44160, Tempo, 302160
1, 45360, Tempo, 305312
1, 45600, Tempo, 302160
1, 46800, Tempo, 306905
1, 47040, Tempo, 302160
1, 48240, Tempo, 306107
1, 48480, Tempo, 302160
1, 49680, Tempo, 306107
1, 49920, Tempo, 302267
1, 51120, Tempo, 338983
1, 51360, Tempo, 303030
1, 51560, Tempo, 303797
1, 51760, Tempo, 304569
1, 51820, Tempo, 305344
1, 51840, Tempo, 306122
1, 51860, Tempo, 306905
1, 51880, Tempo, 307692
1, 51900, Tempo, 308483
1, 51920, Tempo, 309278
1, 51940, Tempo, 310078
1, 51960, Tempo, 310881
1, 51980, Tempo, 311688
1, 52000, Tempo, 312500
1, 52020, Tempo, 313316
1, 52040, Tempo, 314136
1, 52060, Tempo, 315789
1, 52080, Tempo, 316623
1, 52100, Tempo, 317460
1, 52120, Tempo, 318302
1, 52140, Tempo, 319149
1, 52160, Tempo, 320000
1, 52180, Tempo, 320856
1, 52200, Tempo, 321716
1, 52220, Tempo, 322581
1, 52240, Tempo, 323450
1, 52260, Tempo, 324324
1, 52280, Tempo, 325203
1, 52300, Tempo, 326975
1, 52320, Tempo, 327869
1, 52340, Tempo, 328767
1, 52360, Tempo, 329670
1, 52380, Tempo, 330579
1, 52400, Tempo, 331492
1, 52420, Tempo, 332410
1, 52440, Tempo, 333333
1, 52460, Tempo, 334262
1, 52480, Tempo, 335196
1, 52500, Tempo, 336134
1, 52520, Tempo, 337079
1, 52540, Tempo, 338983
1, 52560, Tempo, 497925
1, 52800, Tempo, 298507
1, 53280, Tempo, 299252
1, 53760, Tempo, 305312
1, 54240, Tempo, 302160
1, 54280, Tempo, 298507
1, 54720, Tempo, 299252
1, 55200, Tempo, 306905
1, 55680, Tempo, 298507
1, 56160, Tempo, 300752
1, 56640, Tempo, 299835
1, 57120, Tempo, 302160
1, 58320, Tempo, 303721
1, 58560, Tempo, 299835
1, 58800, Tempo, 308515
1, 59040, Tempo, 302160
1, 59280, Tempo, 302160
1, 59760, Tempo, 303721
1, 60000, Tempo, 302160
1, 60720, Tempo, 303721
1, 61200, Tempo, 304507
1, 61440, Tempo, 299835
1, 61920, Tempo, 303721
1, 62160, Tempo, 302160
1, 62640, Tempo, 305312
1, 62880, Tempo, 302160
1, 63360, Tempo, 306107
1, 63600, Tempo, 303721
1, 64080, Tempo, 312630
1, 64320, Tempo, 302160
1, 64800, Tempo, 305312
1, 65040, Tempo, 303721
1, 65520, Tempo, 312630
1, 65760, Tempo, 302160
1, 66240, Tempo, 305312
1, 66480, Tempo, 303721
1, 66960, Tempo, 312630
1, 67200, Tempo, 300601
1, 67680, Tempo, 303721
1, 67920, Tempo, 300601
1, 68400, Tempo, 304507
1, 68640, Tempo, 300601
1, 69120, Tempo, 309342
1, 69360, Tempo, 313480
1, 69600, Tempo, 317460
1, 70080, Tempo, 322963
1, 70540, Tempo, 307708
1, 70560, Tempo, 313316
1, 70640, Tempo, 312500
1, 70680, Tempo, 311688
1, 70760, Tempo, 310881
1, 70800, Tempo, 310078
1, 70880, Tempo, 309278
1, 70920, Tempo, 308483
1, 71000, Tempo, 307692
1, 71040, Tempo, 306905
1, 71120, Tempo, 306122
1, 71160, Tempo, 305344
1, 71240, Tempo, 304569
1, 71280, Tempo, 303797
1, 71300, Tempo, 302939
1, 71380, Tempo, 302160
1, 71700, Tempo, 302939
1, 71920, Tempo, 302160
1, 72000, Tempo, 302939
1, 72080, Tempo, 303721
1, 72120, Tempo, 304507
1, 72200, Tempo, 305312
1, 72280, Tempo, 306107
1, 72320, Tempo, 306905
1, 72400, Tempo, 307708
1, 72480, Tempo, 308515
1, 72520, Tempo, 309342
1, 72600, Tempo, 310142
1, 72640, Tempo, 310978
1, 72700, Tempo, 305312
1, 72720, Tempo, 311802
1, 73440, Tempo, 310078
1, 73520, Tempo, 309278
1, 73600, Tempo, 308483
1, 73680, Tempo, 307692
1, 73760, Tempo, 306905
1, 73800, Tempo, 306122
1, 73880, Tempo, 305344
1, 73960, Tempo, 304569
1, 74040, Tempo, 303797
1, 74120, Tempo, 303030
1, 74160, Tempo, 302267
1, 74840, Tempo, 301386
1, 74960, Tempo, 302160
1, 75040, Tempo, 302939
1, 75120, Tempo, 303721
1, 75200, Tempo, 304507
1, 75280, Tempo, 305312
1, 75360, Tempo, 306107
1, 75440, Tempo, 306905
1, 75520, Tempo, 307708
1, 75560, Tempo, 306107
1, 75600, Tempo, 310978
1, 76320, Tempo, 310978
1, 76480, Tempo, 310142
1, 76600, Tempo, 309342
1, 76720, Tempo, 308515
1, 76880, Tempo, 307708
1, 77000, Tempo, 306905
1, 77120, Tempo, 306107
1, 77240, Tempo, 305312
1, 77760, Tempo, 437956
1, 78000, Tempo, 299252
1, 78440, Tempo, 300000
1, 78880, Tempo, 300752
1, 79320, Tempo, 301508
1, 79760, Tempo, 302267
1, 80200, Tempo, 303030
1, 80600, Tempo, 303797
1, 80640, Tempo, 304569
1, 82080, Tempo, 304507
1, 82160, Tempo, 305312
1, 82240, Tempo, 306107
1, 82320, Tempo, 306905
1, 82400, Tempo, 307708
1, 82480, Tempo, 308515
1, 82560, Tempo, 325662
1, 82800, Tempo, 310978
1, 83520, Tempo, 318573
1, 83760, Tempo, 299835
1, 84000, Tempo, 308515
1, 84240, Tempo, 302160
1, 84480, Tempo, 302160
1, 84960, Tempo, 303721
1, 85200, Tempo, 302160
1, 85920, Tempo, 303721
1, 86400, Tempo, 304507
1, 86640, Tempo, 299835
1, 87120, Tempo, 303721
1, 87360, Tempo, 302160
1, 87840, Tempo, 305312
1, 88080, Tempo, 302160
1, 88560, Tempo, 306107
1, 88800, Tempo, 303721
1, 89280, Tempo, 306905
1, 89520, Tempo, 303721
1, 90000, Tempo, 306107
1, 90240, Tempo, 303721
1, 90720, Tempo, 306107
1, 90960, Tempo, 303721
1, 91440, Tempo, 305312
1, 91680, Tempo, 303721
1, 92160, Tempo, 306107
1, 92400, Tempo, 303721
1, 92880, Tempo, 306107
1, 93120, Tempo, 303721
1, 93800, Tempo, 303721
1, 94000, Tempo, 302939
1, 94200, Tempo, 302160
1, 94400, Tempo, 301386
1, 94560, Tempo, 300601
1, 94800, Tempo, 308515
1, 95040, Tempo, 303721
1, 95760, Tempo, 330579
1, 96480, Tempo, 353982
1, 97200, Tempo, 425532
1, 97650, Tempo, 497925
1, 97680, Tempo, 1200000
1, 97920, Tempo, 324377
1, 97920, Marker_t, "Dolce cantabile"
1, 98640, Tempo, 321871
1, 99360, Tempo, 324377
1, 100080, Tempo, 321871
1, 100800, Tempo, 318302
1, 101520, Tempo, 321044
1, 102240, Tempo, 324377
1, 102960, Tempo, 321871
1, 103440, Tempo, 330579
1, 103680, Tempo, 318302
1, 104400, Tempo, 321871
1, 105120, Tempo, 324377
1, 105840, Tempo, 328623
1, 106320, Tempo, 344828
1, 106560, Tempo, 328767
1, 107280, Tempo, 332410
1, 108000, Tempo, 330579
1, 109200, Tempo, 352941
1, 109440, Tempo, 323537
1, 110160, Tempo, 321871
1, 110200, Tempo, 321044
1, 110880, Tempo, 323537
1, 111600, Tempo, 321044
1, 112320, Tempo, 319149
1, 113040, Tempo, 319404
1, 113760, Tempo, 322702
1, 114480, Tempo, 319404
1, 115200, Tempo, 318302
1, 115920, Tempo, 325203
1, 116640, Tempo, 330579
1, 117360, Tempo, 324324
1, 117840, Tempo, 348837
1, 118080, Tempo, 333333
1, 118800, Tempo, 326975
1, 119280, Tempo, 323450
1, 119520, Tempo, 329670
1, 120720, Tempo, 376176
1, 120960, Tempo, 324377
1, 121680, Tempo, 321871
1, 122400, Tempo, 324377
1, 123120, Tempo, 321871
1, 123600, Tempo, 330579
1, 123840, Tempo, 320000
1, 124560, Tempo, 321871
1, 125280, Tempo, 324377
1, 126000, Tempo, 321871
1, 126480, Tempo, 332410
1, 126720, Tempo, 320856
1, 127440, Tempo, 321871
1, 128160, Tempo, 324377
1, 128880, Tempo, 321871
1, 129600, Tempo, 323450
1, 130320, Tempo, 326087
1, 131040, Tempo, 334262
1, 131760, Tempo, 327869
1, 132480, Tempo, 324377
1, 133200, Tempo, 321871
1, 133920, Tempo, 324377
1, 134640, Tempo, 321871
1, 135120, Tempo, 333333
1, 135360, Tempo, 321716
1, 136080, Tempo, 322581
1, 136560, Tempo, 324324
1, 136800, Tempo, 331492
1, 137520, Tempo, 326087
1, 138240, Tempo, 330579
1, 138960, Tempo, 326975
1, 139680, Tempo, 334262
1, 140400, Tempo, 327869
1, 140880, Tempo, 343840
1, 141120, Tempo, 343840
1, 141840, Tempo, 340909
1, 142320, Tempo, 384615
1, 142560, Tempo, 349854
1, 143280, Tempo, 346821
1, 143760, Tempo, 497925
1, 144000, Tempo, 324377
1, 144720, Tempo, 321871
1, 145440, Tempo, 324377
1, 146160, Tempo, 321871
1, 146880, Tempo, 320000
1, 147600, Tempo, 325203
1, 148320, Tempo, 324377
1, 149040, Tempo, 321871
1, 149520, Tempo, 345821
1, 149760, Tempo, 320000
1, 150480, Tempo, 321871
1, 151200, Tempo, 324377
1, 151920, Tempo, 328623
1, 152640, Tempo, 325203
1, 153360, Tempo, 332410
1, 154080, Tempo, 337079
1, 155280, Tempo, 350877
1, 155520, Tempo, 326975
1, 156240, Tempo, 323450
1, 156280, Tempo, 321044
1, 156960, Tempo, 329670
1, 157680, Tempo, 325203
1, 158400, Tempo, 320856
1, 159120, Tempo, 324324
1, 159840, Tempo, 327869
1, 160560, Tempo, 325203
1, 161280, Tempo, 329670
1, 162000, Tempo, 324324
1, 162720, Tempo, 323537
1, 163440, Tempo, 321044
1, 164160, Tempo, 330579
1, 164880, Tempo, 326087
1, 165360, Tempo, 353982
1, 165600, Tempo, 340909
1, 166320, Tempo, 335196
1, 166800, Tempo, 456274
1, 167040, Tempo, 330579
1, 167760, Tempo, 325203
1, 168480, Tempo, 333333
1, 169200, Tempo, 327869
1, 169680, Tempo, 339943
1, 169920, Tempo, 326087
1, 170640, Tempo, 326975
1, 171360, Tempo, 333333
1, 172080, Tempo, 326975
1, 172800, Tempo, 333333
1, 173520, Tempo, 326087
1, 174240, Tempo, 334262
1, 174960, Tempo, 327869
1, 175440, Tempo, 344828
1, 175680, Tempo, 321716
1, 176400, Tempo, 327869
1, 177120, Tempo, 336134
1, 177840, Tempo, 327869
1, 178560, Tempo, 333333
1, 179280, Tempo, 327869
1, 180000, Tempo, 338983
1, 180720, Tempo, 332410
1, 181440, Tempo, 341880
1, 182160, Tempo, 335196
1, 182640, Tempo, 352941
1, 182880, Tempo, 344828
1, 183600, Tempo, 339943
1, 184320, Tempo, 358209
1, 185040, Tempo, 350877
1, 185760, Tempo, 388350
1, 186240, Tempo, 416667
1, 186480, Tempo, 2926829
1, 186720, Tempo, 304569
1, 187200, Tempo, 307692
1, 187200, Marker_t, "Tempo1"
1, 187680, Tempo, 305312
1, 188120, Tempo, 298507
1, 188160, Tempo, 302267
1, 188640, Tempo, 304569
1, 189120, Tempo, 306905
1, 189600, Tempo, 300000
1, 190080, Tempo, 302267
1, 190560, Tempo, 299835
1, 191040, Tempo, 302160
1, 192240, Tempo, 303721
1, 192480, Tempo, 299835
1, 192720, Tempo, 308515
1, 192960, Tempo, 302160
1, 193200, Tempo, 302160
1, 193680, Tempo, 303721
1, 193920, Tempo, 302160
1, 194640, Tempo, 303721
1, 195120, Tempo, 304507
1, 195360, Tempo, 299835
1, 195840, Tempo, 303721
1, 196080, Tempo, 302160
1, 196560, Tempo, 305312
1, 196800, Tempo, 302160
1, 197520, Tempo, 303721
1, 198000, Tempo, 497925
1, 198240, Tempo, 298507
1, 198720, Tempo, 299252
1, 199200, Tempo, 305312
1, 199680, Tempo, 298507
1, 200160, Tempo, 300000
1, 200640, Tempo, 306905
1, 201120, Tempo, 299252
1, 201600, Tempo, 301508
1, 202080, Tempo, 299835
1, 202560, Tempo, 302160
1, 203760, Tempo, 303721
1, 204000, Tempo, 299835
1, 204240, Tempo, 308515
1, 204480, Tempo, 302160
1, 204720, Tempo, 302160
1, 205200, Tempo, 303721
1, 205440, Tempo, 302160
1, 206160, Tempo, 303721
1, 206640, Tempo, 304507
1, 206880, Tempo, 299835
1, 207360, Tempo, 303721
1, 207600, Tempo, 302160
1, 208080, Tempo, 305312
1, 208320, Tempo, 304507
1, 208800, Tempo, 306107
1, 209040, Tempo, 308515
1, 209280, Tempo, 302160
1, 209520, Tempo, 500000
1, 209760, Tempo, 297767
1, 210240, Tempo, 299252
1, 210720, Tempo, 305312
1, 211200, Tempo, 298507
1, 211680, Tempo, 300752
1, 212160, Tempo, 306905
1, 212400, Tempo, 335196
1, 212640, Tempo, 294840
1, 212880, Tempo, 297767
1, 213120, Tempo, 303721
1, 213360, Tempo, 295567
1, 213600, Tempo, 302160
1, 213840, Tempo, 304507
1, 214080, Tempo, 299835
1, 214560, Tempo, 300601
1, 214800, Tempo, 309342
1, 215040, Tempo, 304507
1, 215280, Tempo, 402685
1, 215520, Tempo, 298507
1, 216000, Tempo, 299252
1, 216480, Tempo, 305312
1, 216960, Tempo, 298507
1, 217440, Tempo, 299252
1, 217920, Tempo, 306905
1, 218160, Tempo, 326087
1, 218400, Tempo, 296296
1, 218640, Tempo, 299252
1, 218880, Tempo, 303721
1, 219120, Tempo, 297030
1, 219360, Tempo, 302160
1, 219600, Tempo, 304507
1, 219840, Tempo, 299835
1, 220320, Tempo, 300601
1, 220560, Tempo, 309342
1, 220800, Tempo, 304507
1, 221280, Tempo, 302160
1, 222480, Tempo, 305312
1, 222720, Tempo, 303721
1, 223920, Tempo, 306107
1, 224160, Tempo, 302160
1, 225360, Tempo, 306107
1, 225600, Tempo, 303721
1, 226800, Tempo, 306107
1, 227040, Tempo, 302160
1, 228240, Tempo, 304507
1, 228480, Tempo, 302160
1, 229680, Tempo, 306107
1, 229920, Tempo, 302160
1, 231120, Tempo, 305312
1, 231360, Tempo, 302160
1, 232560, Tempo, 306905
1, 232800, Tempo, 302160
1, 234000, Tempo, 306107
1, 234240, Tempo, 302160
1, 235440, Tempo, 306107
1, 235680, Tempo, 302267
1, 236160, Tempo, 306122
1, 236880, Tempo, 320856
1, 237120, Tempo, 304569
1, 237180, Tempo, 305344
1, 237240, Tempo, 306122
1, 237300, Tempo, 306905
1, 237360, Tempo, 307692
1, 237420, Tempo, 308483
1, 237480, Tempo, 309278
1, 237540, Tempo, 310078
1, 237580, Tempo, 310881
1, 237620, Tempo, 311688
1, 237640, Tempo, 312500
1, 237660, Tempo, 313316
1, 237680, Tempo, 314136
1, 237700, Tempo, 314961
1, 237720, Tempo, 315789
1, 237740, Tempo, 316623
1, 237760, Tempo, 317460
1, 237780, Tempo, 318302
1, 237800, Tempo, 319149
1, 237820, Tempo, 320000
1, 237840, Tempo, 320856
1, 237860, Tempo, 321716
1, 237880, Tempo, 322581
1, 237900, Tempo, 323450
1, 237920, Tempo, 324324
1, 237940, Tempo, 325203
1, 237980, Tempo, 326087
1, 238000, Tempo, 326975
1, 238020, Tempo, 327869
1, 238040, Tempo, 328767
1, 238060, Tempo, 329670
1, 238080, Tempo, 330579
1, 238100, Tempo, 331492
1, 238120, Tempo, 332410
1, 238140, Tempo, 333333
1, 238160, Tempo, 334262
1, 238180, Tempo, 335196
1, 238200, Tempo, 336134
1, 238220, Tempo, 337079
1, 238240, Tempo, 338028
1, 238260, Tempo, 338983
1, 238280, Tempo, 339943
1, 238300, Tempo, 340909
1, 238320, Tempo, 500000
1, 238560, Tempo, 298507
1, 239040, Tempo, 299252
1, 239520, Tempo, 305312
1, 240000, Tempo, 302160
1, 240040, Tempo, 298507
1, 240480, Tempo, 299252
1, 240960, Tempo, 306905
1, 241440, Tempo, 298507
1, 241920, Tempo, 300752
1, 242400, Tempo, 299835
1, 242880, Tempo, 302160
1, 244080, Tempo, 303721
1, 244320, Tempo, 299835
1, 244560, Tempo, 308515
1, 244800, Tempo, 302160
1, 245040, Tempo, 302160
1, 245520, Tempo, 303721
1, 245760, Tempo, 302160
1, 246480, Tempo, 303721
1, 246960, Tempo, 304507
1, 247200, Tempo, 299835
1, 247680, Tempo, 303721
1, 247920, Tempo, 302160
1, 248400, Tempo, 305312
1, 248640, Tempo, 302160
1, 249120, Tempo, 306107
1, 249360, Tempo, 303721
1, 249840, Tempo, 312630
1, 250080, Tempo, 302160
1, 250560, Tempo, 305312
1, 250800, Tempo, 303721
1, 251280, Tempo, 312630
1, 251520, Tempo, 302160
1, 252000, Tempo, 305312
1, 252240, Tempo, 303721
1, 252720, Tempo, 312630
1, 252960, Tempo, 300601
1, 253440, Tempo, 303721
1, 253680, Tempo, 300601
1, 254160, Tempo, 304507
1, 254400, Tempo, 300601
1, 254880, Tempo, 309342
1, 255120, Tempo, 313480
1, 255360, Tempo, 317460
1, 255840, Tempo, 322963
1, 256300, Tempo, 307708
1, 256320, Tempo, 313316
1, 256400, Tempo, 312500
1, 256440, Tempo, 311688
1, 256520, Tempo, 310881
1, 256560, Tempo, 310078
1, 256640, Tempo, 309278
1, 256680, Tempo, 308483
1, 256760, Tempo, 307692
1, 256800, Tempo, 306905
1, 256880, Tempo, 306122
1, 256920, Tempo, 305344
1, 257000, Tempo, 304569
1, 257040, Tempo, 303797
1, 257060, Tempo, 302939
1, 257140, Tempo, 302160
1, 257460, Tempo, 302939
1, 257680, Tempo, 302160
1, 257760, Tempo, 302939
1, 257840, Tempo, 303721
1, 257880, Tempo, 304507
1, 257960, Tempo, 305312
1, 258040, Tempo, 306107
1, 258080, Tempo, 306905
1, 258160, Tempo, 307708
1, 258240, Tempo, 308515
1, 258280, Tempo, 309342
1, 258360, Tempo, 310142
1, 258400, Tempo, 310978
1, 258460, Tempo, 305312
1, 258480, Tempo, 311802
1, 259200, Tempo, 310078
1, 259280, Tempo, 309278
1, 259360, Tempo, 308483
1, 259440, Tempo, 307692
1, 259520, Tempo, 306905
1, 259560, Tempo, 306122
1, 259640, Tempo, 305344
1, 259720, Tempo, 304569
1, 259800, Tempo, 303797
1, 259880, Tempo, 303030
1, 259920, Tempo, 302267
1, 260600, Tempo, 301386
1, 260720, Tempo, 302160
1, 260800, Tempo, 302939
1, 260880, Tempo, 303721
1, 260960, Tempo, 304507
1, 261040, Tempo, 305312
1, 261120, Tempo, 306107
1, 261200, Tempo, 306905
1, 261280, Tempo, 307708
1, 261320, Tempo, 306107
1, 261360, Tempo, 310978
1, 262080, Tempo, 310978
1, 262240, Tempo, 310142
1, 262360, Tempo, 309342
1, 262480, Tempo, 308515
1, 262640, Tempo, 307708
1, 262760, Tempo, 306905
1, 262880, Tempo, 306107
1, 263000, Tempo, 305312
1, 263520, Tempo, 459770
1, 263760, Tempo, 297767
1, 264120, Tempo, 298507
1, 264440, Tempo, 299252
1, 264760, Tempo, 300000
1, 265080, Tempo, 300752
1, 265400, Tempo, 301508
1, 265720, Tempo, 302267
1, 266040, Tempo, 303030
1, 266360, Tempo, 303797
1, 267840, Tempo, 304507
1, 267920, Tempo, 305312
1, 268000, Tempo, 306107
1, 268080, Tempo, 306905
1, 268160, Tempo, 307708
1, 268240, Tempo, 308515
1, 268320, Tempo, 325662
1, 268560, Tempo, 310978
1, 269280, Tempo, 318573
1, 269520, Tempo, 299835
1, 269760, Tempo, 308515
1, 270000, Tempo, 302160
1, 270240, Tempo, 302160
1, 270720, Tempo, 303721
1, 270960, Tempo, 302160
1, 271680, Tempo, 303721
1, 272160, Tempo, 304507
1, 272400, Tempo, 299835
1, 272880, Tempo, 303721
1, 273120, Tempo, 302160
1, 273600, Tempo, 305312
1, 273840, Tempo, 302160
1, 274320, Tempo, 306107
1, 274560, Tempo, 303721
1, 275040, Tempo, 306905
1, 275280, Tempo, 303721
1, 275760, Tempo, 306107
1, 276000, Tempo, 303721
1, 276480, Tempo, 306107
1, 276720, Tempo, 303721
1, 277200, Tempo, 305312
1, 277440, Tempo, 303721
1, 277920, Tempo, 306107
1, 278160, Tempo, 303721
1, 278640, Tempo, 306107
1, 278880, Tempo, 303721
1, 279560, Tempo, 303721
1, 279760, Tempo, 302939
1, 279960, Tempo, 302160
1, 280160, Tempo, 301386
1, 280320, Tempo, 300601
1, 280560, Tempo, 308515
1, 280800, Tempo, 303721
1, 282960, Tempo, 308483
1, 283680, Tempo, 310881
1, 284160, Tempo, 322581
1, 284400, Tempo, 320856
1, 284880, Tempo, 430108
1, 286560, Tempo, 333333
1, 286560, End_track
2, 0, Start_track
2, 0, Title_t, "Piano right"
2, 0, Program_c, 0, 0
2, 0, Control_c, 0, 7, 100
2, 0, Control_c, 0, 10, 64
2, 0, Control_c, 0, 91, 127
2, 0, Text_t, "bdca426d104a26ac9dcb070447587523"
2, 960, Note_on_c, 0, 66, 45
2, 960, Note_on_c, 0, 71, 49
2, 1200, Note_on_c, 0, 71, 0
2, 1200, Note_on_c, 0, 66, 0
2, 1200, Note_on_c, 0, 65, 46
2, 1440, Note_on_c, 0, 65, 0
2, 1440, Note_on_c, 0, 66, 45
2, 1440, Note_on_c, 0, 71, 49
2, 1920, Note_on_c, 0, 71, 0
2, 1920, Note_on_c, 0, 66, 0
2, 1920, Note_on_c, 0, 64, 45
2, 1920, Note_on_c, 0, 70, 49
2, 2160, Note_on_c, 0, 70, 0
2, 2160, Note_on_c, 0, 64, 0
2, 2400, Note_on_c, 0, 62, 45
2, 2400, Note_on_c, 0, 67, 49
2, 2640, Note_on_c, 0, 67, 0
2, 2640, Note_on_c, 0, 62, 0
2, 2640, Note_on_c, 0, 61, 45
2, 2880, Note_on_c, 0, 61, 0
2, 2880, Note_on_c, 0, 67, 49
2, 2880, Note_on_c, 0, 62, 45
2, 3360, Note_on_c, 0, 62, 0
2, 3360, Note_on_c, 0, 67, 0
2, 3360, Note_on_c, 0, 61, 44
2, 3360, Note_on_c, 0, 66, 47
2, 3600, Note_on_c, 0, 66, 0
2, 3600, Note_on_c, 0, 61, 0
2, 3840, Note_on_c, 0, 60, 45
2, 3840, Note_on_c, 0, 66, 49
2, 4080, Note_on_c, 0, 66, 0
2, 4080, Note_on_c, 0, 60, 0
2, 4080, Note_on_c, 0, 59, 46
2, 4320, Note_on_c, 0, 59, 0
2, 4320, Note_on_c, 0, 60, 45
2, 4320, Note_on_c, 0, 66, 49
2, 4800, Note_on_c, 0, 66, 0
2, 4800, Note_on_c, 0, 60, 0
2, 4800, Note_on_c, 0, 64, 46
2, 4800, Note_on_c, 0, 59, 43
2, 5040, Note_on_c, 0, 59, 0
2, 5040, Note_on_c, 0, 64, 0
2, 5280, Note_on_c, 0, 64, 49
2, 5280, Note_on_c, 0, 58, 45
2, 5520, Note_on_c, 0, 58, 0
2, 5520, Note_on_c, 0, 64, 0
2, 5760, Note_on_c, 0, 58, 47
2, 5760, Note_on_c, 0, 62, 52
2, 6000, Note_on_c, 0, 62, 0
2, 6000, Note_on_c, 0, 58, 0
2, 6240, Note_on_c, 0, 58, 45
2, 6240, Note_on_c, 0, 61, 50
2, 6480, Note_on_c, 0, 61, 0
2, 6480, Note_on_c, 0, 58, 0
2, 6480, Note_on_c, 0, 59, 47
2, 6720, Note_on_c, 0, 59, 0
2, 7440, Note_on_c, 0, 62, 47
2, 7440, Note_on_c, 0, 74, 47
2, 7440, Note_on_c, 0, 71, 47
2, 7560, Note_on_c, 0, 71, 0
2, 7560, Note_on_c, 0, 74, 0
2, 7560, Note_on_c, 0, 62, 0
2, 7680, Note_on_c, 0, 74, 49
2, 7680, Note_on_c, 0, 71, 49
2, 7680, Note_on_c, 0, 64, 49
2, 7800, Note_on_c, 0, 64, 0
2, 7800, Note_on_c, 0, 71, 0
2, 7800, Note_on_c, 0, 74, 0
2, 7920, Note_on_c, 0, 74, 46
2, 7920, Note_on_c, 0, 71, 46
2, 7920, Note_on_c, 0, 65, 46
2, 8040, Note_on_c, 0, 65, 0
2, 8040, Note_on_c, 0, 71, 0
2, 8040, Note_on_c, 0, 74, 0
2, 8880, Note_on_c, 0, 56, 45
2, 8880, Note_on_c, 0, 66, 45
2, 8880, Note_on_c, 0, 59, 45
2, 9000, Note_on_c, 0, 59, 0
2, 9000, Note_on_c, 0, 66, 0
2, 9000, Note_on_c, 0, 56, 0
2, 9120, Note_on_c, 0, 61, 46
2, 9120, Note_on_c, 0, 58, 46
2, 9120, Note_on_c, 0, 64, 46
2, 9240, Note_on_c, 0, 64, 0
2, 9240, Note_on_c, 0, 58, 0
2, 9240, Note_on_c, 0, 61, 0
2, 9360, Note_on_c, 0, 59, 46
2, 9360, Note_on_c, 0, 62, 46
2, 9480, Note_on_c, 0, 62, 0
2, 9480, Note_on_c, 0, 59, 0
2, 10320, Note_on_c, 0, 74, 47
2, 10320, Note_on_c, 0, 71, 47
2, 10320, Note_on_c, 0, 62, 47
2, 10440, Note_on_c, 0, 62, 0
2, 10440, Note_on_c, 0, 71, 0
2, 10440, Note_on_c, 0, 74, 0
2, 10560, Note_on_c, 0, 74, 49
2, 10560, Note_on_c, 0, 64, 49
2, 10560, Note_on_c, 0, 71, 49
2, 10680, Note_on_c, 0, 71, 0
2, 10680, Note_on_c, 0, 64, 0
2, 10680, Note_on_c, 0, 74, 0
2, 10800, Note_on_c, 0, 65, 45
2, 10800, Note_on_c, 0, 71, 45
2, 10800, Note_on_c, 0, 74, 45
2, 10920, Note_on_c, 0, 74, 0
2, 10920, Note_on_c, 0, 71, 0
2, 10920, Note_on_c, 0, 65, 0
2, 11760, Note_on_c, 0, 66, 47
2, 11760, Note_on_c, 0, 59, 47
2, 11760, Note_on_c, 0, 56, 47
2, 11880, Note_on_c, 0, 56, 0
2, 11880, Note_on_c, 0, 59, 0
2, 11880, Note_on_c, 0, 66, 0
2, 12000, Note_on_c, 0, 64, 46
2, 12000, Note_on_c, 0, 61, 46
2, 12000, Note_on_c, 0, 58, 46
2, 12120, Note_on_c, 0, 58, 0
2, 12120, Note_on_c, 0, 61, 0
2, 12120, Note_on_c, 0, 64, 0
2, 12240, Note_on_c, 0, 59, 46
2, 12240, Note_on_c, 0, 62, 46
2, 12360, Note_on_c, 0, 62, 0
2, 12360, Note_on_c, 0, 59, 0
2, 12480, Note_on_c, 0, 66, 45
2, 12480, Note_on_c, 0, 71, 49
2, 12720, Note_on_c, 0, 71, 0
2, 12720, Note_on_c, 0, 66, 0
2, 12720, Note_on_c, 0, 65, 46
2, 12960, Note_on_c, 0, 65, 0
2, 12960, Note_on_c, 0, 66, 45
2, 12960, Note_on_c, 0, 71, 49
2, 13440, Note_on_c, 0, 71, 0
2, 13440, Note_on_c, 0, 66, 0
2, 13440, Note_on_c, 0, 70, 49
2, 13440, Note_on_c, 0, 64, 45
2, 13680, Note_on_c, 0, 64, 0
2, 13680, Note_on_c, 0, 70, 0
2, 13920, Note_on_c, 0, 62, 45
2, 13920, Note_on_c, 0, 67, 49
2, 14160, Note_on_c, 0, 67, 0
2, 14160, Note_on_c, 0, 62, 0
2, 14160, Note_on_c, 0, 61, 45
2, 14400, Note_on_c, 0, 61, 0
2, 14400, Note_on_c, 0, 62, 45
2, 14400, Note_on_c, 0, 67, 49
2, 14880, Note_on_c, 0, 67, 0
2, 14880, Note_on_c, 0, 62, 0
2, 14880, Note_on_c, 0, 61, 44
2, 14880, Note_on_c, 0, 66, 47
2, 15120, Note_on_c, 0, 66, 0
2, 15120, Note_on_c, 0, 61, 0
2, 15360, Note_on_c, 0, 66, 49
2, 15360, Note_on_c, 0, 60, 45
2, 15600, Note_on_c, 0, 60, 0
2, 15600, Note_on_c, 0, 66, 0
2, 15600, Note_on_c, 0, 59, 46
2, 15840, Note_on_c, 0, 59, 0
2, 15840, Note_on_c, 0, 66, 49
2, 15840, Note_on_c, 0, 60, 45
2, 16320, Note_on_c, 0, 60, 0
2, 16320, Note_on_c, 0, 66, 0
2, 16320, Note_on_c, 0, 59, 43
2, 16320, Note_on_c, 0, 64, 46
2, 16560, Note_on_c, 0, 64, 0
2, 16560, Note_on_c, 0, 59, 0
2, 16800, Note_on_c, 0, 58, 45
2, 16800, Note_on_c, 0, 64, 49
2, 17040, Note_on_c, 0, 64, 0
2, 17040, Note_on_c, 0, 58, 0
2, 17280, Note_on_c, 0, 58, 47
2, 17280, Note_on_c, 0, 62, 52
2, 17520, Note_on_c, 0, 62, 0
2, 17520, Note_on_c, 0, 58, 0
2, 17760, Note_on_c, 0, 61, 50
2, 17760, Note_on_c, 0, 58, 45
2, 18000, Note_on_c, 0, 58, 0
2, 18000, Note_on_c, 0, 61, 0
2, 18000, Note_on_c, 0, 59, 47
2, 18240, Note_on_c, 0, 59, 0
2, 18960, Note_on_c, 0, 62, 47
2, 18960, Note_on_c, 0, 71, 47
2, 18960, Note_on_c, 0, 74, 47
2, 19080, Note_on_c, 0, 74, 0
2, 19080, Note_on_c, 0, 71, 0
2, 19080, Note_on_c, 0, 62, 0
2, 19200, Note_on_c, 0, 74, 49
2, 19200, Note_on_c, 0, 71, 49
2, 19200, Note_on_c, 0, 64, 49
2, 19320, Note_on_c, 0, 64, 0
2, 19320, Note_on_c, 0, 71, 0
2, 19320, Note_on_c, 0, 74, 0
2, 19440, Note_on_c, 0, 74, 46
2, 19440, Note_on_c, 0, 71, 46
2, 19440, Note_on_c, 0, 65, 46
2, 19560, Note_on_c, 0, 65, 0
2, 19560, Note_on_c, 0, 71, 0
2, 19560, Note_on_c, 0, 74, 0
2, 20400, Note_on_c, 0, 66, 45
2, 20400, Note_on_c, 0, 59, 45
2, 20400, Note_on_c, 0, 56, 45
2, 20520, Note_on_c, 0, 56, 0
2, 20520, Note_on_c, 0, 59, 0
2, 20520, Note_on_c, 0, 66, 0
2, 20640, Note_on_c, 0, 64, 44
2, 20640, Note_on_c, 0, 61, 44
2, 20640, Note_on_c, 0, 58, 44
2, 20760, Note_on_c, 0, 58, 0
2, 20760, Note_on_c, 0, 61, 0
2, 20760, Note_on_c, 0, 64, 0
2, 20880, Note_on_c, 0, 59, 46
2, 20880, Note_on_c, 0, 62, 46
2, 21000, Note_on_c, 0, 62, 0
2, 21000, Note_on_c, 0, 59, 0
2, 21840, Note_on_c, 0, 71, 50
2, 21840, Note_on_c, 0, 62, 50
2, 21840, Note_on_c, 0, 74, 50
2, 21960, Note_on_c, 0, 74, 0
2, 21960, Note_on_c, 0, 62, 0
2, 21960, Note_on_c, 0, 71, 0
2, 22080, Note_on_c, 0, 64, 53
2, 22080, Note_on_c, 0, 71, 53
2, 22080, Note_on_c, 0, 74, 53
2, 22200, Note_on_c, 0, 74, 0
2, 22200, Note_on_c, 0, 71, 0
2, 22200, Note_on_c, 0, 64, 0
2, 22320, Note_on_c, 0, 65, 58
2, 22320, Note_on_c, 0, 71, 58
2, 22320, Note_on_c, 0, 74, 58
2, 22800, Note_on_c, 0, 74, 0
2, 22800, Note_on_c, 0, 71, 0
2, 22800, Note_on_c, 0, 65, 0
2, 22800, Note_on_c, 0, 65, 62
2, 22800, Note_on_c, 0, 71, 62
2, 22800, Note_on_c, 0, 73, 62
2, 23280, Note_on_c, 0, 73, 0
2, 23280, Note_on_c, 0, 71, 0
2, 23280, Note_on_c, 0, 65, 0
2, 23280, Note_on_c, 0, 71, 68
2, 23280, Note_on_c, 0, 73, 68
2, 23280, Note_on_c, 0, 77, 68
2, 23760, Note_on_c, 0, 77, 0
2, 23760, Note_on_c, 0, 73, 0
2, 23760, Note_on_c, 0, 71, 0
2, 23760, Note_on_c, 0, 78, 69
2, 23760, Note_on_c, 0, 73, 69
2, 23760, Note_on_c, 0, 70, 69
2, 23940, Note_on_c, 0, 70, 0
2, 23940, Note_on_c, 0, 73, 0
2, 23940, Note_on_c, 0, 78, 0
2, 24000, Note_on_c, 0, 83, 49
2, 24000, Note_on_c, 0, 78, 45
2, 24240, Note_on_c, 0, 78, 0
2, 24240, Note_on_c, 0, 83, 0
2, 24240, Note_on_c, 0, 77, 46
2, 24480, Note_on_c, 0, 77, 0
2, 24480, Note_on_c, 0, 78, 45
2, 24480, Note_on_c, 0, 83, 49
2, 24960, Note_on_c, 0, 83, 0
2, 24960, Note_on_c, 0, 78, 0
2, 24960, Note_on_c, 0, 76, 45
2, 24960, Note_on_c, 0, 82, 49
2, 25200, Note_on_c, 0, 82, 0
2, 25200, Note_on_c, 0, 76, 0
2, 25440, Note_on_c, 0, 74, 45
2, 25440, Note_on_c, 0, 79, 49
2, 25680, Note_on_c, 0, 79, 0
2, 25680, Note_on_c, 0, 74, 0
2, 25680, Note_on_c, 0, 73, 45
2, 25920, Note_on_c, 0, 73, 0
2, 25920, Note_on_c, 0, 74, 45
2, 25920, Note_on_c, 0, 79, 49
2, 26400, Note_on_c, 0, 79, 0
2, 26400, Note_on_c, 0, 74, 0
2, 26400, Note_on_c, 0, 73, 44
2, 26400, Note_on_c, 0, 78, 47
2, 26640, Note_on_c, 0, 78, 0
2, 26640, Note_on_c, 0, 73, 0
2, 26880, Note_on_c, 0, 72, 62
2, 26880, Note_on_c, 0, 78, 69
2, 27120, Note_on_c, 0, 78, 0
2, 27120, Note_on_c, 0, 72, 0
2, 27120, Note_on_c, 0, 71, 64
2, 27360, Note_on_c, 0, 71, 0
2, 27360, Note_on_c, 0, 72, 62
2, 27360, Note_on_c, 0, 78, 69
2, 27600, Note_on_c, 0, 78, 0
2, 27600, Note_on_c, 0, 72, 0
2, 27600, Note_on_c, 0, 72, 67
2, 27600, Note_on_c, 0, 66, 67
2, 27840, Note_on_c, 0, 66, 0
2, 27840, Note_on_c, 0, 72, 0
2, 27840, Note_on_c, 0, 65, 60
2, 28080, Note_on_c, 0, 65, 0
2, 28080, Note_on_c, 0, 66, 64
2, 28080, Note_on_c, 0, 72, 64
2, 28320, Note_on_c, 0, 72, 0
2, 28320, Note_on_c, 0, 66, 0
2, 28320, Note_on_c, 0, 60, 67
2, 28320, Note_on_c, 0, 64, 67
2, 28560, Note_on_c, 0, 64, 0
2, 28560, Note_on_c, 0, 60, 0
2, 28560, Note_on_c, 0, 59, 67
2, 28800, Note_on_c, 0, 59, 0
2, 28800, Note_on_c, 0, 60, 64
2, 28800, Note_on_c, 0, 64, 64
2, 29040, Note_on_c, 0, 64, 0
2, 29040, Note_on_c, 0, 60, 0
2, 29280, Note_on_c, 0, 63, 66
2, 29280, Note_on_c, 0, 54, 66
2, 29280, Note_on_c, 0, 57, 66
2, 29400, Note_on_c, 0, 57, 0
2, 29400, Note_on_c, 0, 54, 0
2, 29400, Note_on_c, 0, 63, 0
2, 29520, Note_on_c, 0, 64, 70
2, 29520, Note_on_c, 0, 59, 70
2, 29520, Note_on_c, 0, 55, 70
2, 29640, Note_on_c, 0, 55, 0
2, 29640, Note_on_c, 0, 59, 0
2, 29640, Note_on_c, 0, 64, 0
2, 29760, Note_on_c, 0, 83, 50
2, 29760, Note_on_c, 0, 88, 55
2, 30000, Note_on_c, 0, 88, 0
2, 30000, Note_on_c, 0, 83, 0
2, 30000, Note_on_c, 0, 82, 52
2, 30240, Note_on_c, 0, 82, 0
2, 30240, Note_on_c, 0, 83, 50
2, 30240, Note_on_c, 0, 88, 55
2, 30720, Note_on_c, 0, 88, 0
2, 30720, Note_on_c, 0, 83, 0
2, 30720, Note_on_c, 0, 87, 55
2, 30720, Note_on_c, 0, 81, 50
2, 30960, Note_on_c, 0, 81, 0
2, 30960, Note_on_c, 0, 87, 0
2, 31200, Note_on_c, 0, 79, 50
2, 31200, Note_on_c, 0, 84, 55
2, 31440, Note_on_c, 0, 84, 0
2, 31440, Note_on_c, 0, 79, 0
2, 31440, Note_on_c, 0, 78, 51
2, 31680, Note_on_c, 0, 78, 0
2, 31680, Note_on_c, 0, 79, 50
2, 31680, Note_on_c, 0, 84, 55
2, 32160, Note_on_c, 0, 84, 0
2, 32160, Note_on_c, 0, 79, 0
2, 32160, Note_on_c, 0, 78, 49
2, 32160, Note_on_c, 0, 83, 53
2, 32400, Note_on_c, 0, 83, 0
2, 32400, Note_on_c, 0, 78, 0
2, 32640, Note_on_c, 0, 77, 62
2, 32640, Note_on_c, 0, 83, 69
2, 32880, Note_on_c, 0, 83, 0
2, 32880, Note_on_c, 0, 77, 0
2, 32880, Note_on_c, 0, 76, 64
2, 33120, Note_on_c, 0, 76, 0
2, 33120, Note_on_c, 0, 77, 62
2, 33120, Note_on_c, 0, 83, 69
2, 33360, Note_on_c, 0, 83, 0
2, 33360, Note_on_c, 0, 77, 0
2, 33360, Note_on_c, 0, 71, 67
2, 33360, Note_on_c, 0, 77, 67
2, 33600, Note_on_c, 0, 77, 0
2, 33600, Note_on_c, 0, 71, 0
2, 33600, Note_on_c, 0, 70, 60
2, 33840, Note_on_c, 0, 70, 0
2, 33840, Note_on_c, 0, 71, 64
2, 33840, Note_on_c, 0, 77, 64
2, 34080, Note_on_c, 0, 77, 0
2, 34080, Note_on_c, 0, 71, 0
2, 34080, Note_on_c, 0, 69, 67
2, 34080, Note_on_c, 0, 65, 67
2, 34320, Note_on_c, 0, 65, 0
2, 34320, Note_on_c, 0, 69, 0
2, 34320, Note_on_c, 0, 64, 67
2, 34560, Note_on_c, 0, 64, 0
2, 34560, Note_on_c, 0, 65, 64
2, 34560, Note_on_c, 0, 69, 64
2, 34800, Note_on_c, 0, 69, 0
2, 34800, Note_on_c, 0, 65, 0
2, 35040, Note_on_c, 0, 68, 58
2, 35040, Note_on_c, 0, 62, 58
2, 35040, Note_on_c, 0, 59, 52
2, 35280, Note_on_c, 0, 59, 0
2, 35280, Note_on_c, 0, 62, 0
2, 35280, Note_on_c, 0, 68, 0
2, 35280, Note_on_c, 0, 69, 58
2, 35280, Note_on_c, 0, 60, 52
2, 35520, Note_on_c, 0, 60, 0
2, 35520, Note_on_c, 0, 69, 0
2, 35520, Note_on_c, 0, 69, 56
2, 35520, Note_on_c, 0, 60, 50
2, 36000, Note_on_c, 0, 60, 0
2, 36000, Note_on_c, 0, 69, 0
2, 36000, Note_on_c, 0, 62, 49
2, 36000, Note_on_c, 0, 68, 55
2, 36000, Note_on_c, 0, 71, 55
2, 36480, Note_on_c, 0, 71, 0
2, 36480, Note_on_c, 0, 68, 0
2, 36480, Note_on_c, 0, 62, 0
2, 36480, Note_on_c, 0, 72, 57
2, 36480, Note_on_c, 0, 69, 57
2, 36480, Note_on_c, 0, 64, 51
2, 36720, Note_on_c, 0, 64, 0
2, 36720, Note_on_c, 0, 69, 0
2, 36720, Note_on_c, 0, 72, 0
2, 36960, Note_on_c, 0, 69, 57
2, 36960, Note_on_c, 0, 60, 51
2, 37440, Note_on_c, 0, 60, 0
2, 37440, Note_on_c, 0, 69, 0
2, 37440, Note_on_c, 0, 68, 55
2, 37440, Note_on_c, 0, 62, 55
2, 37440, Note_on_c, 0, 59, 49
2, 37920, Note_on_c, 0, 59, 0
2, 37920, Note_on_c, 0, 62, 0
2, 37920, Note_on_c, 0, 68, 0
2, 37920, Note_on_c, 0, 69, 55
2, 37920, Note_on_c, 0, 60, 55
2, 37920, Note_on_c, 0, 57, 49
2, 38160, Note_on_c, 0, 57, 0
2, 38160, Note_on_c, 0, 60, 0
2, 38160, Note_on_c, 0, 69, 0
2, 38400, Note_on_c, 0, 64, 52
2, 38400, Note_on_c, 0, 72, 58
2, 38880, Note_on_c, 0, 72, 0
2, 38880, Note_on_c, 0, 64, 0
2, 38880, Note_on_c, 0, 74, 61
2, 38880, Note_on_c, 0, 71, 61
2, 38880, Note_on_c, 0, 65, 54
2, 39360, Note_on_c, 0, 65, 0
2, 39360, Note_on_c, 0, 71, 0
2, 39360, Note_on_c, 0, 74, 0
2, 39360, Note_on_c, 0, 64, 56
2, 39360, Note_on_c, 0, 72, 63
2, 39360, Note_on_c, 0, 76, 63
2, 39600, Note_on_c, 0, 76, 0
2, 39600, Note_on_c, 0, 72, 0
2, 39600, Note_on_c, 0, 64, 0
2, 39840, Note_on_c, 0, 64, 53
2, 39840, Note_on_c, 0, 72, 59
2, 40320, Note_on_c, 0, 72, 0
2, 40320, Note_on_c, 0, 64, 0
2, 40320, Note_on_c, 0, 62, 51
2, 40320, Note_on_c, 0, 71, 57
2, 40320, Note_on_c, 0, 65, 51
2, 40800, Note_on_c, 0, 65, 0
2, 40800, Note_on_c, 0, 71, 0
2, 40800, Note_on_c, 0, 62, 0
2, 40800, Note_on_c, 0, 72, 58
2, 40800, Note_on_c, 0, 64, 58
2, 40800, Note_on_c, 0, 60, 52
2, 41040, Note_on_c, 0, 60, 0
2, 41040, Note_on_c, 0, 64, 0
2, 41040, Note_on_c, 0, 72, 0
2, 41280, Note_on_c, 0, 67, 55
2, 41280, Note_on_c, 0, 76, 62
2, 41760, Note_on_c, 0, 76, 0
2, 41760, Note_on_c, 0, 67, 0
2, 41760, Note_on_c, 0, 69, 54
2, 41760, Note_on_c, 0, 75, 55
2, 41760, Note_on_c, 0, 78, 61
2, 42240, Note_on_c, 0, 78, 0
2, 42240, Note_on_c, 0, 75, 0
2, 42240, Note_on_c, 0, 69, 0
2, 42240, Note_on_c, 0, 79, 61
2, 42240, Note_on_c, 0, 67, 54
2, 42240, Note_on_c, 0, 76, 61
2, 42480, Note_on_c, 0, 76, 0
2, 42480, Note_on_c, 0, 67, 0
2, 42480, Note_on_c, 0, 79, 0
2, 42720, Note_on_c, 0, 71, 60
2, 42720, Note_on_c, 0, 79, 67
2, 43200, Note_on_c, 0, 79, 0
2, 43200, Note_on_c, 0, 71, 0
2, 43200, Note_on_c, 0, 72, 57
2, 43200, Note_on_c, 0, 81, 64
2, 43200, Note_on_c, 0, 78, 57
2, 43680, Note_on_c, 0, 78, 0
2, 43680, Note_on_c, 0, 81, 0
2, 43680, Note_on_c, 0, 72, 0
2, 43680, Note_on_c, 0, 71, 57
2, 43680, Note_on_c, 0, 79, 64
2, 43680, Note_on_c, 0, 83, 64
2, 43920, Note_on_c, 0, 83, 0
2, 43920, Note_on_c, 0, 79, 0
2, 43920, Note_on_c, 0, 71, 0
2, 44160, Note_on_c, 0, 83, 69
2, 44160, Note_on_c, 0, 74, 62
2, 44640, Note_on_c, 0, 74, 0
2, 44640, Note_on_c, 0, 83, 0
2, 44640, Note_on_c, 0, 85, 67
2, 44640, Note_on_c, 0, 82, 60
2, 44640, Note_on_c, 0, 76, 60
2, 45120, Note_on_c, 0, 76, 0
2, 45120, Note_on_c, 0, 82, 0
2, 45120, Note_on_c, 0, 85, 0
2, 45120, Note_on_c, 0, 74, 65
2, 45120, Note_on_c, 0, 83, 72
2, 45120, Note_on_c, 0, 86, 72
2, 45360, Note_on_c, 0, 86, 0
2, 45360, Note_on_c, 0, 83, 0
2, 45360, Note_on_c, 0, 74, 0
2, 45600, Note_on_c, 0, 78, 74
2, 45600, Note_on_c, 0, 86, 83
2, 46080, Note_on_c, 0, 86, 0
2, 46080, Note_on_c, 0, 78, 0
2, 46080, Note_on_c, 0, 85, 71
2, 46080, Note_on_c, 0, 88, 79
2, 46080, Note_on_c, 0, 79, 71
2, 46560, Note_on_c, 0, 79, 0
2, 46560, Note_on_c, 0, 88, 0
2, 46560, Note_on_c, 0, 85, 0
2, 46560, Note_on_c, 0, 90, 81
2, 46560, Note_on_c, 0, 86, 81
2, 46560, Note_on_c, 0, 78, 72
2, 46800, Note_on_c, 0, 78, 0
2, 46800, Note_on_c, 0, 86, 0
2, 46800, Note_on_c, 0, 90, 0
2, 47040, Note_on_c, 0, 78, 74
2, 47040, Note_on_c, 0, 86, 83
2, 47040, Note_on_c, 0, 90, 83
2, 47520, Note_on_c, 0, 90, 0
2, 47520, Note_on_c, 0, 86, 0
2, 47520, Note_on_c, 0, 78, 0
2, 47520, Note_on_c, 0, 86, 80
2, 47520, Note_on_c, 0, 78, 71
2, 47520, Note_on_c, 0, 90, 80
2, 48000, Note_on_c, 0, 90, 0
2, 48000, Note_on_c, 0, 78, 0
2, 48000, Note_on_c, 0, 86, 0
2, 48000, Note_on_c, 0, 90, 81
2, 48000, Note_on_c, 0, 86, 81
2, 48000, Note_on_c, 0, 78, 72
2, 48480, Note_on_c, 0, 78, 0
2, 48480, Note_on_c, 0, 86, 0
2, 48480, Note_on_c, 0, 90, 0
2, 48480, Note_on_c, 0, 88, 82
2, 48480, Note_on_c, 0, 90, 82
2, 48480, Note_on_c, 0, 78, 73
2, 48960, Note_on_c, 0, 78, 0
2, 48960, Note_on_c, 0, 90, 0
2, 48960, Note_on_c, 0, 88, 0
2, 48960, Note_on_c, 0, 90, 78
2, 48960, Note_on_c, 0, 88, 78
2, 48960, Note_on_c, 0, 78, 69
2, 49440, Note_on_c, 0, 78, 0
2, 49440, Note_on_c, 0, 88, 0
2, 49440, Note_on_c, 0, 90, 0
2, 49440, Note_on_c, 0, 78, 70
2, 49440, Note_on_c, 0, 88, 79
2, 49440, Note_on_c, 0, 90, 79
2, 49920, Note_on_c, 0, 90, 0
2, 49920, Note_on_c, 0, 88, 0
2, 49920, Note_on_c, 0, 78, 0
2, 49920, Note_on_c, 0, 76, 79
2, 49920, Note_on_c, 0, 70, 70
2, 49920, Note_on_c, 0, 78, 79
2, 50400, Note_on_c, 0, 78, 0
2, 50400, Note_on_c, 0, 70, 0
2, 50400, Note_on_c, 0, 76, 0
2, 50400, Note_on_c, 0, 76, 79
2, 50400, Note_on_c, 0, 70, 70
2, 50400, Note_on_c, 0, 78, 79
2, 50880, Note_on_c, 0, 78, 0
2, 50880, Note_on_c, 0, 70, 0
2, 50880, Note_on_c, 0, 76, 0
2, 50880, Note_on_c, 0, 70, 69
2, 50880, Note_on_c, 0, 76, 77
2, 50880, Note_on_c, 0, 78, 77
2, 51360, Note_on_c, 0, 78, 0
2, 51360, Note_on_c, 0, 76, 0
2, 51360, Note_on_c, 0, 70, 0
2, 51360, Note_on_c, 0, 64, 70
2, 51360, Note_on_c, 0, 66, 70
2, 51360, Note_on_c, 0, 58, 63
2, 51840, Note_on_c, 0, 58, 0
2, 51840, Note_on_c, 0, 66, 0
2, 51840, Note_on_c, 0, 64, 0
2, 51840, Note_on_c, 0, 66, 70
2, 51840, Note_on_c, 0, 64, 70
2, 51840, Note_on_c, 0, 58, 63
2, 52320, Note_on_c, 0, 58, 0
2, 52320, Note_on_c, 0, 64, 0
2, 52320, Note_on_c, 0, 66, 0
2, 52320, Note_on_c, 0, 64, 69
2, 52320, Note_on_c, 0, 66, 69
2, 52320, Note_on_c, 0, 58, 62
2, 52740, Note_on_c, 0, 58, 0
2, 52740, Note_on_c, 0, 66, 0
2, 52740, Note_on_c, 0, 64, 0
2, 52800, Note_on_c, 0, 66, 45
2, 52800, Note_on_c, 0, 71, 49
2, 53040, Note_on_c, 0, 71, 0
2, 53040, Note_on_c, 0, 66, 0
2, 53040, Note_on_c, 0, 65, 46
2, 53280, Note_on_c, 0, 65, 0
2, 53280, Note_on_c, 0, 66, 45
2, 53280, Note_on_c, 0, 71, 49
2, 53760, Note_on_c, 0, 71, 0
2, 53760, Note_on_c, 0, 66, 0
2, 53760, Note_on_c, 0, 70, 49
2, 53760, Note_on_c, 0, 64, 45
2, 54000, Note_on_c, 0, 64, 0
2, 54000, Note_on_c, 0, 70, 0
2, 54240, Note_on_c, 0, 62, 45
2, 54240, Note_on_c, 0, 67, 49
2, 54480, Note_on_c, 0, 67, 0
2, 54480, Note_on_c, 0, 62, 0
2, 54480, Note_on_c, 0, 61, 45
2, 54720, Note_on_c, 0, 61, 0
2, 54720, Note_on_c, 0, 62, 45
2, 54720, Note_on_c, 0, 67, 49
2, 55200, Note_on_c, 0, 67, 0
2, 55200, Note_on_c, 0, 62, 0
2, 55200, Note_on_c, 0, 61, 44
2, 55200, Note_on_c, 0, 66, 47
2, 55440, Note_on_c, 0, 66, 0
2, 55440, Note_on_c, 0, 61, 0
2, 55680, Note_on_c, 0, 60, 45
2, 55680, Note_on_c, 0, 66, 49
2, 55920, Note_on_c, 0, 66, 0
2, 55920, Note_on_c, 0, 60, 0
2, 55920, Note_on_c, 0, 59, 46
2, 56160, Note_on_c, 0, 59, 0
2, 56160, Note_on_c, 0, 66, 49
2, 56160, Note_on_c, 0, 60, 45
2, 56640, Note_on_c, 0, 60, 0
2, 56640, Note_on_c, 0, 66, 0
2, 56640, Note_on_c, 0, 59, 43
2, 56640, Note_on_c, 0, 64, 46
2, 56880, Note_on_c, 0, 64, 0
2, 56880, Note_on_c, 0, 59, 0
2, 57120, Note_on_c, 0, 58, 45
2, 57120, Note_on_c, 0, 64, 49
2, 57360, Note_on_c, 0, 64, 0
2, 57360, Note_on_c, 0, 58, 0
2, 57600, Note_on_c, 0, 58, 47
2, 57600, Note_on_c, 0, 62, 52
2, 57840, Note_on_c, 0, 62, 0
2, 57840, Note_on_c, 0, 58, 0
2, 58080, Note_on_c, 0, 61, 50
2, 58080, Note_on_c, 0, 58, 45
2, 58320, Note_on_c, 0, 58, 0
2, 58320, Note_on_c, 0, 61, 0
2, 58320, Note_on_c, 0, 59, 47
2, 58560, Note_on_c, 0, 59, 0
2, 59280, Note_on_c, 0, 62, 47
2, 59280, Note_on_c, 0, 71, 47
2, 59280, Note_on_c, 0, 74, 47
2, 59400, Note_on_c, 0, 74, 0
2, 59400, Note_on_c, 0, 71, 0
2, 59400, Note_on_c, 0, 62, 0
2, 59520, Note_on_c, 0, 74, 49
2, 59520, Note_on_c, 0, 71, 49
2, 59520, Note_on_c, 0, 64, 49
2, 59640, Note_on_c, 0, 64, 0
2, 59640, Note_on_c, 0, 71, 0
2, 59640, Note_on_c, 0, 74, 0
2, 59760, Note_on_c, 0, 74, 46
2, 59760, Note_on_c, 0, 71, 46
2, 59760, Note_on_c, 0, 65, 46
2, 59880, Note_on_c, 0, 65, 0
2, 59880, Note_on_c, 0, 71, 0
2, 59880, Note_on_c, 0, 74, 0
2, 60720, Note_on_c, 0, 66, 45
2, 60720, Note_on_c, 0, 59, 45
2, 60720, Note_on_c, 0, 56, 45
2, 60840, Note_on_c, 0, 56, 0
2, 60840, Note_on_c, 0, 59, 0
2, 60840, Note_on_c, 0, 66, 0
2, 60960, Note_on_c, 0, 64, 46
2, 60960, Note_on_c, 0, 61, 46
2, 60960, Note_on_c, 0, 58, 46
2, 61080, Note_on_c, 0, 58, 0
2, 61080, Note_on_c, 0, 61, 0
2, 61080, Note_on_c, 0, 64, 0
2, 61200, Note_on_c, 0, 59, 46
2, 61200, Note_on_c, 0, 62, 46
2, 61320, Note_on_c, 0, 62, 0
2, 61320, Note_on_c, 0, 59, 0
2, 62160, Note_on_c, 0, 71, 47
2, 62160, Note_on_c, 0, 62, 47
2, 62160, Note_on_c, 0, 74, 47
2, 62280, Note_on_c, 0, 74, 0
2, 62280, Note_on_c, 0, 62, 0
2, 62280, Note_on_c, 0, 71, 0
2, 62400, Note_on_c, 0, 64, 49
2, 62400, Note_on_c, 0, 71, 49
2, 62400, Note_on_c, 0, 74, 49
2, 62520, Note_on_c, 0, 74, 0
2, 62520, Note_on_c, 0, 71, 0
2, 62520, Note_on_c, 0, 64, 0
2, 62640, Note_on_c, 0, 65, 45
2, 62640, Note_on_c, 0, 71, 45
2, 62640, Note_on_c, 0, 74, 45
2, 62760, Note_on_c, 0, 74, 0
2, 62760, Note_on_c, 0, 71, 0
2, 62760, Note_on_c, 0, 65, 0
2, 63600, Note_on_c, 0, 66, 47
2, 63600, Note_on_c, 0, 59, 47
2, 63600, Note_on_c, 0, 56, 47
2, 63720, Note_on_c, 0, 56, 0
2, 63720, Note_on_c, 0, 59, 0
2, 63720, Note_on_c, 0, 66, 0
2, 63840, Note_on_c, 0, 58, 46
2, 63840, Note_on_c, 0, 61, 46
2, 63840, Note_on_c, 0, 64, 46
2, 63960, Note_on_c, 0, 64, 0
2, 63960, Note_on_c, 0, 61, 0
2, 63960, Note_on_c, 0, 58, 0
2, 64080, Note_on_c, 0, 59, 46
2, 64080, Note_on_c, 0, 62, 46
2, 64200, Note_on_c, 0, 62, 0
2, 64200, Note_on_c, 0, 59, 0
2, 65040, Note_on_c, 0, 57, 47
2, 65040, Note_on_c, 0, 69, 47
2, 65040, Note_on_c, 0, 64, 47
2, 65160, Note_on_c, 0, 64, 0
2, 65160, Note_on_c, 0, 69, 0
2, 65160, Note_on_c, 0, 57, 0
2, 65280, Note_on_c, 0, 67, 46
2, 65280, Note_on_c, 0, 64, 46
2, 65280, Note_on_c, 0, 57, 46
2, 65400, Note_on_c, 0, 57, 0
2, 65400, Note_on_c, 0, 64, 0
2, 65400, Note_on_c, 0, 67, 0
2, 65520, Note_on_c, 0, 66, 47
2, 65520, Note_on_c, 0, 62, 47
2, 65520, Note_on_c, 0, 57, 47
2, 65640, Note_on_c, 0, 57, 0
2, 65640, Note_on_c, 0, 62, 0
2, 65640, Note_on_c, 0, 66, 0
2, 66480, Note_on_c, 0, 61, 55
2, 66480, Note_on_c, 0, 73, 55
2, 66480, Note_on_c, 0, 68, 55
2, 66600, Note_on_c, 0, 68, 0
2, 66600, Note_on_c, 0, 73, 0
2, 66600, Note_on_c, 0, 61, 0
2, 66720, Note_on_c, 0, 68, 55
2, 66720, Note_on_c, 0, 61, 55
2, 66720, Note_on_c, 0, 71, 55
2, 66840, Note_on_c, 0, 71, 0
2, 66840, Note_on_c, 0, 61, 0
2, 66840, Note_on_c, 0, 68, 0
2, 66960, Note_on_c, 0, 61, 55
2, 66960, Note_on_c, 0, 66, 55
2, 66960, Note_on_c, 0, 70, 55
2, 67080, Note_on_c, 0, 70, 0
2, 67080, Note_on_c, 0, 66, 0
2, 67080, Note_on_c, 0, 61, 0
2, 67200, Note_on_c, 0, 73, 66
2, 67200, Note_on_c, 0, 78, 66
2, 67440, Note_on_c, 0, 78, 0
2, 67440, Note_on_c, 0, 76, 66
2, 67680, Note_on_c, 0, 76, 0
2, 67680, Note_on_c, 0, 73, 0
2, 67680, Note_on_c, 0, 74, 64
2, 67680, Note_on_c, 0, 71, 64
2, 67920, Note_on_c, 0, 71, 0
2, 67920, Note_on_c, 0, 74, 0
2, 67920, Note_on_c, 0, 73, 72
2, 67920, Note_on_c, 0, 78, 72
2, 68160, Note_on_c, 0, 78, 0
2, 68160, Note_on_c, 0, 76, 69
2, 68400, Note_on_c, 0, 76, 0
2, 68400, Note_on_c, 0, 73, 0
2, 68400, Note_on_c, 0, 71, 70
2, 68400, Note_on_c, 0, 74, 70
2, 68640, Note_on_c, 0, 74, 0
2, 68640, Note_on_c, 0, 71, 0
2, 68640, Note_on_c, 0, 73, 77
2, 68640, Note_on_c, 0, 78, 77
2, 68880, Note_on_c, 0, 78, 0
2, 68880, Note_on_c, 0, 76, 78
2, 69120, Note_on_c, 0, 76, 0
2, 69120, Note_on_c, 0, 73, 0
2, 69120, Note_on_c, 0, 71, 80
2, 69120, Note_on_c, 0, 74, 80
2, 69360, Note_on_c, 0, 74, 0
2, 69360, Note_on_c, 0, 71, 0
2, 69360, Note_on_c, 0, 78, 82
2, 69360, Note_on_c, 0, 73, 82
2, 69480, Note_on_c, 0, 73, 0
2, 69480, Note_on_c, 0, 78, 0
2, 69600, Note_on_c, 0, 71, 78
2, 69600, Note_on_c, 0, 74, 78
2, 69720, Note_on_c, 0, 74, 0
2, 69720, Note_on_c, 0, 71, 0
2, 69840, Note_on_c, 0, 76, 88
2, 69840, Note_on_c, 0, 71, 74
2, 69840, Note_on_c, 0, 67, 74
2, 69840, Note_on_c, 0, 79, 88
2, 70560, Note_on_c, 0, 79, 0
2, 70560, Note_on_c, 0, 76, 0
2, 70560, Note_on_c, 0, 71, 0
2, 70560, Note_on_c, 0, 67, 0
2, 71040, Note_on_c, 0, 64, 64
2, 71160, Note_on_c, 0, 64, 0
2, 71160, Note_on_c, 0, 67, 63
2, 71280, Note_on_c, 0, 67, 0
2, 71280, Note_on_c, 0, 76, 61
2, 71400, Note_on_c, 0, 76, 0
2, 71400, Note_on_c, 0, 73, 60
2, 71520, Note_on_c, 0, 73, 0
2, 71520, Note_on_c, 0, 71, 59
2, 71640, Note_on_c, 0, 71, 0
2, 71640, Note_on_c, 0, 67, 58
2, 71760, Note_on_c, 0, 67, 0
2, 71760, Note_on_c, 0, 64, 56
2, 71880, Note_on_c, 0, 64, 0
2, 72360, Note_on_c, 0, 49, 58
2, 72480, Note_on_c, 0, 49, 0
2, 72480, Note_on_c, 0, 47, 58
2, 72600, Note_on_c, 0, 47, 0
2, 72600, Note_on_c, 0, 43, 58
2, 72720, Note_on_c, 0, 43, 0
2, 73200, Note_on_c, 0, 59, 56
2, 73200, Note_on_c, 0, 55, 56
2, 73200, Note_on_c, 0, 64, 56
2, 73320, Note_on_c, 0, 64, 0
2, 73320, Note_on_c, 0, 55, 0
2, 73320, Note_on_c, 0, 59, 0
2, 73920, Note_on_c, 0, 67, 63
2, 74040, Note_on_c, 0, 67, 0
2, 74040, Note_on_c, 0, 71, 63
2, 74160, Note_on_c, 0, 71, 0
2, 74160, Note_on_c, 0, 79, 61
2, 74280, Note_on_c, 0, 79, 0
2, 74280, Note_on_c, 0, 76, 60
2, 74400, Note_on_c, 0, 76, 0
2, 74400, Note_on_c, 0, 73, 59
2, 74520, Note_on_c, 0, 73, 0
2, 74520, Note_on_c, 0, 71, 58
2, 74640, Note_on_c, 0, 71, 0
2, 74640, Note_on_c, 0, 67, 57
2, 74760, Note_on_c, 0, 67, 0
2, 75240, Note_on_c, 0, 52, 58
2, 75360, Note_on_c, 0, 52, 0
2, 75360, Note_on_c, 0, 49, 58
2, 75480, Note_on_c, 0, 49, 0
2, 75480, Note_on_c, 0, 47, 58
2, 75600, Note_on_c, 0, 47, 0
2, 76080, Note_on_c, 0, 64, 62
2, 76080, Note_on_c, 0, 67, 62
2, 76080, Note_on_c, 0, 71, 62
2, 76080, Note_on_c, 0, 59, 62
2, 76200, Note_on_c, 0, 59, 0
2, 76200, Note_on_c, 0, 64, 0
2, 76200, Note_on_c, 0, 67, 0
2, 76200, Note_on_c, 0, 71, 0
2, 76800, Note_on_c, 0, 59, 71
2, 76920, Note_on_c, 0, 59, 0
2, 76920, Note_on_c, 0, 62, 73
2, 77040, Note_on_c, 0, 62, 0
2, 77040, Note_on_c, 0, 66, 75
2, 77160, Note_on_c, 0, 66, 0
2, 77160, Note_on_c, 0, 71, 78
2, 77280, Note_on_c, 0, 71, 0
2, 77280, Note_on_c, 0, 62, 79
2, 77280, Note_on_c, 0, 74, 79
2, 77400, Note_on_c, 0, 74, 0
2, 77400, Note_on_c, 0, 62, 0
2, 77400, Note_on_c, 0, 66, 81
2, 77400, Note_on_c, 0, 78, 81
2, 77520, Note_on_c, 0, 78, 0
2, 77520, Note_on_c, 0, 66, 0
2, 77520, Note_on_c, 0, 71, 84
2, 77520, Note_on_c, 0, 83, 84
2, 77640, Note_on_c, 0, 83, 0
2, 77640, Note_on_c, 0, 71, 0
2, 77640, Note_on_c, 0, 86, 86
2, 77640, Note_on_c, 0, 74, 86
2, 77760, Note_on_c, 0, 74, 0
2, 77760, Note_on_c, 0, 86, 0
2, 77760, Note_on_c, 0, 90, 90
2, 77760, Note_on_c, 0, 78, 81
2, 78000, Note_on_c, 0, 78, 0
2, 78000, Note_on_c, 0, 90, 0
2, 78000, Note_on_c, 0, 64, 72
2, 78000, Note_on_c, 0, 91, 95
2, 78000, Note_on_c, 0, 79, 85
2, 78000, Note_on_c, 0, 76, 80
2, 78120, Note_on_c, 0, 76, 0
2, 78120, Note_on_c, 0, 64, 0
2, 78120, Note_on_c, 0, 91, 0
2, 78120, Note_on_c, 0, 79, 0
2, 78240, Note_on_c, 0, 61, 68
2, 78240, Note_on_c, 0, 88, 90
2, 78240, Note_on_c, 0, 76, 81
2, 78240, Note_on_c, 0, 73, 76
2, 78360, Note_on_c, 0, 73, 0
2, 78360, Note_on_c, 0, 61, 0
2, 78360, Note_on_c, 0, 88, 0
2, 78360, Note_on_c, 0, 76, 0
2, 78480, Note_on_c, 0, 90, 95
2, 78480, Note_on_c, 0, 74, 80
2, 78480, Note_on_c, 0, 62, 72
2, 78480, Note_on_c, 0, 78, 85
2, 78600, Note_on_c, 0, 78, 0
2, 78600, Note_on_c, 0, 90, 0
2, 78600, Note_on_c, 0, 74, 0
2, 78600, Note_on_c, 0, 62, 0
2, 78720, Note_on_c, 0, 74, 81
2, 78720, Note_on_c, 0, 71, 76
2, 78720, Note_on_c, 0, 59, 68
2, 78720, Note_on_c, 0, 86, 90
2, 78840, Note_on_c, 0, 86, 0
2, 78840, Note_on_c, 0, 74, 0
2, 78840, Note_on_c, 0, 71, 0
2, 78840, Note_on_c, 0, 59, 0
2, 78960, Note_on_c, 0, 73, 80
2, 78960, Note_on_c, 0, 76, 85
2, 78960, Note_on_c, 0, 88, 95
2, 78960, Note_on_c, 0, 61, 80
2, 79080, Note_on_c, 0, 61, 0
2, 79080, Note_on_c, 0, 73, 0
2, 79080, Note_on_c, 0, 76, 0
2, 79080, Note_on_c, 0, 88, 0
2, 79200, Note_on_c, 0, 73, 81
2, 79200, Note_on_c, 0, 85, 90
2, 79200, Note_on_c, 0, 58, 68
2, 79200, Note_on_c, 0, 70, 76
2, 79320, Note_on_c, 0, 70, 0
2, 79320, Note_on_c, 0, 73, 0
2, 79320, Note_on_c, 0, 85, 0
2, 79320, Note_on_c, 0, 58, 0
2, 79440, Note_on_c, 0, 86, 94
2, 79440, Note_on_c, 0, 74, 84
2, 79440, Note_on_c, 0, 71, 79
2, 79440, Note_on_c, 0, 59, 71
2, 79560, Note_on_c, 0, 59, 0
2, 79560, Note_on_c, 0, 86, 0
2, 79560, Note_on_c, 0, 74, 0
2, 79560, Note_on_c, 0, 71, 0
2, 79680, Note_on_c, 0, 70, 77
2, 79680, Note_on_c, 0, 66, 73
2, 79680, Note_on_c, 0, 54, 65
2, 79680, Note_on_c, 0, 82, 86
2, 79800, Note_on_c, 0, 82, 0
2, 79800, Note_on_c, 0, 70, 0
2, 79800, Note_on_c, 0, 66, 0
2, 79800, Note_on_c, 0, 54, 0
2, 79920, Note_on_c, 0, 71, 82
2, 79920, Note_on_c, 0, 83, 92
2, 80040, Note_on_c, 0, 83, 0
2, 80040, Note_on_c, 0, 71, 0
2, 80160, Note_on_c, 0, 78, 85
2, 80160, Note_on_c, 0, 66, 76
2, 80280, Note_on_c, 0, 66, 0
2, 80280, Note_on_c, 0, 78, 0
2, 80400, Note_on_c, 0, 79, 90
2, 80400, Note_on_c, 0, 67, 81
2, 80520, Note_on_c, 0, 67, 0
2, 80520, Note_on_c, 0, 79, 0
2, 80640, Note_on_c, 0, 64, 75
2, 80640, Note_on_c, 0, 76, 84
2, 80760, Note_on_c, 0, 76, 0
2, 80760, Note_on_c, 0, 64, 0
2, 80880, Note_on_c, 0, 66, 81
2, 80880, Note_on_c, 0, 78, 91
2, 81000, Note_on_c, 0, 78, 0
2, 81000, Note_on_c, 0, 66, 0
2, 81120, Note_on_c, 0, 62, 74
2, 81120, Note_on_c, 0, 74, 83
2, 81240, Note_on_c, 0, 74, 0
2, 81240, Note_on_c, 0, 62, 0
2, 81360, Note_on_c, 0, 76, 90
2, 81360, Note_on_c, 0, 64, 81
2, 81480, Note_on_c, 0, 64, 0
2, 81480, Note_on_c, 0, 76, 0
2, 81600, Note_on_c, 0, 73, 82
2, 81600, Note_on_c, 0, 61, 73
2, 81720, Note_on_c, 0, 61, 0
2, 81720, Note_on_c, 0, 73, 0
2, 81840, Note_on_c, 0, 62, 81
2, 81840, Note_on_c, 0, 74, 90
2, 81960, Note_on_c, 0, 74, 0
2, 81960, Note_on_c, 0, 62, 0
2, 82080, Note_on_c, 0, 58, 75
2, 82080, Note_on_c, 0, 70, 84
2, 82200, Note_on_c, 0, 70, 0
2, 82200, Note_on_c, 0, 58, 0
2, 82320, Note_on_c, 0, 59, 81
2, 82320, Note_on_c, 0, 71, 91
2, 82440, Note_on_c, 0, 71, 0
2, 82440, Note_on_c, 0, 59, 0
2, 82560, Note_on_c, 0, 66, 82
2, 82560, Note_on_c, 0, 54, 73
2, 82680, Note_on_c, 0, 54, 0
2, 82680, Note_on_c, 0, 66, 0
2, 82800, Note_on_c, 0, 55, 80
2, 82800, Note_on_c, 0, 67, 89
2, 83280, Note_on_c, 0, 67, 0
2, 83280, Note_on_c, 0, 55, 0
2, 83280, Note_on_c, 0, 61, 72
2, 83280, Note_on_c, 0, 64, 72
2, 83280, Note_on_c, 0, 70, 80
2, 83520, Note_on_c, 0, 70, 0
2, 83520, Note_on_c, 0, 64, 0
2, 83520, Note_on_c, 0, 61, 0
2, 83520, Note_on_c, 0, 62, 77
2, 83520, Note_on_c, 0, 66, 77
2, 83520, Note_on_c, 0, 71, 86
2, 83760, Note_on_c, 0, 71, 0
2, 83760, Note_on_c, 0, 66, 0
2, 83760, Note_on_c, 0, 62, 0
2, 84480, Note_on_c, 0, 74, 56
2, 84480, Note_on_c, 0, 73, 56
2, 84480, Note_on_c, 0, 61, 56
2, 84600, Note_on_c, 0, 61, 0
2, 84600, Note_on_c, 0, 73, 0
2, 84600, Note_on_c, 0, 74, 0
2, 84720, Note_on_c, 0, 62, 53
2, 84720, Note_on_c, 0, 73, 53
2, 84720, Note_on_c, 0, 74, 53
2, 84840, Note_on_c, 0, 74, 0
2, 84840, Note_on_c, 0, 73, 0
2, 84840, Note_on_c, 0, 62, 0
2, 84960, Note_on_c, 0, 74, 52
2, 84960, Note_on_c, 0, 73, 52
2, 84960, Note_on_c, 0, 64, 52
2, 85080, Note_on_c, 0, 64, 0
2, 85080, Note_on_c, 0, 73, 0
2, 85080, Note_on_c, 0, 74, 0
2, 85920, Note_on_c, 0, 66, 53
2, 85920, Note_on_c, 0, 56, 53
2, 85920, Note_on_c, 0, 59, 53
2, 86040, Note_on_c, 0, 59, 0
2, 86040, Note_on_c, 0, 56, 0
2, 86040, Note_on_c, 0, 66, 0
2, 86160, Note_on_c, 0, 58, 52
2, 86160, Note_on_c, 0, 61, 52
2, 86160, Note_on_c, 0, 66, 52
2, 86280, Note_on_c, 0, 66, 0
2, 86280, Note_on_c, 0, 61, 0
2, 86280, Note_on_c, 0, 58, 0
2, 86400, Note_on_c, 0, 62, 52
2, 86400, Note_on_c, 0, 59, 52
2, 86400, Note_on_c, 0, 66, 52
2, 86520, Note_on_c, 0, 66, 0
2, 86520, Note_on_c, 0, 59, 0
2, 86520, Note_on_c, 0, 62, 0
2, 87360, Note_on_c, 0, 74, 54
2, 87360, Note_on_c, 0, 73, 54
2, 87360, Note_on_c, 0, 61, 54
2, 87480, Note_on_c, 0, 61, 0
2, 87480, Note_on_c, 0, 73, 0
2, 87480, Note_on_c, 0, 74, 0
2, 87600, Note_on_c, 0, 74, 55
2, 87600, Note_on_c, 0, 73, 55
2, 87600, Note_on_c, 0, 62, 55
2, 87720, Note_on_c, 0, 62, 0
2, 87720, Note_on_c, 0, 73, 0
2, 87720, Note_on_c, 0, 74, 0
2, 87840, Note_on_c, 0, 74, 51
2, 87840, Note_on_c, 0, 73, 51
2, 87840, Note_on_c, 0, 64, 51
2, 87960, Note_on_c, 0, 64, 0
2, 87960, Note_on_c, 0, 73, 0
2, 87960, Note_on_c, 0, 74, 0
2, 88800, Note_on_c, 0, 56, 55
2, 88800, Note_on_c, 0, 66, 55
2, 88800, Note_on_c, 0, 59, 55
2, 88920, Note_on_c, 0, 59, 0
2, 88920, Note_on_c, 0, 66, 0
2, 88920, Note_on_c, 0, 56, 0
2, 89040, Note_on_c, 0, 66, 55
2, 89040, Note_on_c, 0, 61, 55
2, 89040, Note_on_c, 0, 58, 55
2, 89160, Note_on_c, 0, 58, 0
2, 89160, Note_on_c, 0, 61, 0
2, 89160, Note_on_c, 0, 66, 0
2, 89280, Note_on_c, 0, 66, 52
2, 89280, Note_on_c, 0, 62, 52
2, 89280, Note_on_c, 0, 59, 52
2, 89400, Note_on_c, 0, 59, 0
2, 89400, Note_on_c, 0, 62, 0
2, 89400, Note_on_c, 0, 66, 0
2, 89520, Note_on_c, 0, 62, 60
2, 89520, Note_on_c, 0, 71, 66
2, 89520, Note_on_c, 0, 66, 60
2, 89640, Note_on_c, 0, 66, 0
2, 89640, Note_on_c, 0, 71, 0
2, 89640, Note_on_c, 0, 62, 0
2, 89760, Note_on_c, 0, 70, 62
2, 89760, Note_on_c, 0, 66, 57
2, 89760, Note_on_c, 0, 62, 57
2, 89880, Note_on_c, 0, 62, 0
2, 89880, Note_on_c, 0, 66, 0
2, 89880, Note_on_c, 0, 70, 0
2, 90000, Note_on_c, 0, 62, 60
2, 90000, Note_on_c, 0, 66, 60
2, 90000, Note_on_c, 0, 71, 66
2, 90120, Note_on_c, 0, 71, 0
2, 90120, Note_on_c, 0, 66, 0
2, 90120, Note_on_c, 0, 62, 0
2, 90240, Note_on_c, 0, 74, 67
2, 90240, Note_on_c, 0, 71, 61
2, 90240, Note_on_c, 0, 66, 61
2, 90360, Note_on_c, 0, 66, 0
2, 90360, Note_on_c, 0, 71, 0
2, 90360, Note_on_c, 0, 74, 0
2, 90480, Note_on_c, 0, 73, 63
2, 90480, Note_on_c, 0, 66, 58
2, 90480, Note_on_c, 0, 71, 58
2, 90600, Note_on_c, 0, 71, 0
2, 90600, Note_on_c, 0, 66, 0
2, 90600, Note_on_c, 0, 73, 0
2, 90720, Note_on_c, 0, 66, 63
2, 90720, Note_on_c, 0, 71, 63
2, 90720, Note_on_c, 0, 74, 69
2, 90840, Note_on_c, 0, 74, 0
2, 90840, Note_on_c, 0, 71, 0
2, 90840, Note_on_c, 0, 66, 0
2, 90960, Note_on_c, 0, 78, 69
2, 90960, Note_on_c, 0, 74, 63
2, 90960, Note_on_c, 0, 71, 63
2, 91080, Note_on_c, 0, 71, 0
2, 91080, Note_on_c, 0, 74, 0
2, 91080, Note_on_c, 0, 78, 0
2, 91200, Note_on_c, 0, 77, 67
2, 91200, Note_on_c, 0, 74, 61
2, 91200, Note_on_c, 0, 71, 61
2, 91320, Note_on_c, 0, 71, 0
2, 91320, Note_on_c, 0, 74, 0
2, 91320, Note_on_c, 0, 77, 0
2, 91440, Note_on_c, 0, 78, 72
2, 91440, Note_on_c, 0, 74, 66
2, 91440, Note_on_c, 0, 71, 66
2, 91560, Note_on_c, 0, 71, 0
2, 91560, Note_on_c, 0, 74, 0
2, 91560, Note_on_c, 0, 78, 0
2, 91680, Note_on_c, 0, 83, 73
2, 91680, Note_on_c, 0, 78, 67
2, 91680, Note_on_c, 0, 74, 67
2, 91800, Note_on_c, 0, 74, 0
2, 91800, Note_on_c, 0, 78, 0
2, 91800, Note_on_c, 0, 83, 0
2, 91920, Note_on_c, 0, 74, 63
2, 91920, Note_on_c, 0, 82, 69
2, 91920, Note_on_c, 0, 78, 63
2, 92040, Note_on_c, 0, 78, 0
2, 92040, Note_on_c, 0, 82, 0
2, 92040, Note_on_c, 0, 74, 0
2, 92160, Note_on_c, 0, 83, 74
2, 92160, Note_on_c, 0, 78, 68
2, 92160, Note_on_c, 0, 74, 68
2, 92280, Note_on_c, 0, 74, 0
2, 92280, Note_on_c, 0, 78, 0
2, 92280, Note_on_c, 0, 83, 0
2, 92400, Note_on_c, 0, 86, 75
2, 92400, Note_on_c, 0, 83, 69
2, 92400, Note_on_c, 0, 78, 69
2, 92520, Note_on_c, 0, 78, 0
2, 92520, Note_on_c, 0, 83, 0
2, 92520, Note_on_c, 0, 86, 0
2, 92640, Note_on_c, 0, 78, 63
2, 92640, Note_on_c, 0, 85, 69
2, 92640, Note_on_c, 0, 83, 63
2, 92760, Note_on_c, 0, 83, 0
2, 92760, Note_on_c, 0, 85, 0
2, 92760, Note_on_c, 0, 78, 0
2, 92880, Note_on_c, 0, 83, 70
2, 92880, Note_on_c, 0, 78, 70
2, 92880, Note_on_c, 0, 86, 77
2, 93000, Note_on_c, 0, 86, 0
2, 93000, Note_on_c, 0, 78, 0
2, 93000, Note_on_c, 0, 83, 0
2, 93120, Note_on_c, 0, 83, 71
2, 93120, Note_on_c, 0, 86, 71
2, 93120, Note_on_c, 0, 90, 78
2, 93240, Note_on_c, 0, 90, 0
2, 93240, Note_on_c, 0, 86, 0
2, 93240, Note_on_c, 0, 83, 0
2, 93360, Note_on_c, 0, 83, 66
2, 93360, Note_on_c, 0, 86, 66
2, 93360, Note_on_c, 0, 89, 72
2, 93480, Note_on_c, 0, 89, 0
2, 93480, Note_on_c, 0, 86, 0
2, 93480, Note_on_c, 0, 83, 0
2, 93600, Note_on_c, 0, 86, 73
2, 93600, Note_on_c, 0, 83, 73
2, 93600, Note_on_c, 0, 90, 80
2, 93720, Note_on_c, 0, 90, 0
2, 93720, Note_on_c, 0, 83, 0
2, 93720, Note_on_c, 0, 86, 0
2, 93840, Note_on_c, 0, 86, 73
2, 93840, Note_on_c, 0, 90, 73
2, 93840, Note_on_c, 0, 95, 80
2, 93960, Note_on_c, 0, 95, 0
2, 93960, Note_on_c, 0, 90, 0
2, 93960, Note_on_c, 0, 86, 0
2, 94080, Note_on_c, 0, 86, 70
2, 94080, Note_on_c, 0, 90, 70
2, 94080, Note_on_c, 0, 94, 76
2, 94200, Note_on_c, 0, 94, 0
2, 94200, Note_on_c, 0, 90, 0
2, 94200, Note_on_c, 0, 86, 0
2, 94320, Note_on_c, 0, 95, 86
2, 94320, Note_on_c, 0, 90, 78
2, 94320, Note_on_c, 0, 86, 78
2, 94440, Note_on_c, 0, 86, 0
2, 94440, Note_on_c, 0, 90, 0
2, 94440, Note_on_c, 0, 95, 0
2, 94560, Note_on_c, 0, 86, 82
2, 94560, Note_on_c, 0, 90, 82
2, 94560, Note_on_c, 0, 95, 90
2, 94680, Note_on_c, 0, 95, 0
2, 94680, Note_on_c, 0, 90, 0
2, 94680, Note_on_c, 0, 86, 0
2, 94800, Note_on_c, 0, 94, 85
2, 94800, Note_on_c, 0, 90, 77
2, 94800, Note_on_c, 0, 86, 77
2, 94920, Note_on_c, 0, 86, 0
2, 94920, Note_on_c, 0, 90, 0
2, 94920, Note_on_c, 0, 94, 0
2, 95040, Note_on_c, 0, 95, 93
2, 95040, Note_on_c, 0, 86, 85
2, 95040, Note_on_c, 0, 90, 85
2, 95160, Note_on_c, 0, 90, 0
2, 95160, Note_on_c, 0, 86, 0
2, 95160, Note_on_c, 0, 95, 0
2, 95760, Note_on_c, 0, 74, 81
2, 95760, Note_on_c, 0, 78, 81
2, 95760, Note_on_c, 0, 83, 89
2, 95880, Note_on_c, 0, 83, 0
2, 95880, Note_on_c, 0, 78, 0
2, 95880, Note_on_c, 0, 74, 0
2, 96480, Note_on_c, 0, 71, 89
2, 96480, Note_on_c, 0, 66, 81
2, 96480, Note_on_c, 0, 62, 81
2, 96600, Note_on_c, 0, 62, 0
2, 96600, Note_on_c, 0, 66, 0
2, 96600, Note_on_c, 0, 71, 0
2, 97920, Note_on_c, 0, 66, 42
2, 97920, Note_on_c, 0, 74, 55
2, 98640, Note_on_c, 0, 74, 0
2, 98640, Note_on_c, 0, 73, 51
2, 99360, Note_on_c, 0, 73, 0
2, 99360, Note_on_c, 0, 71, 52
2, 99840, Note_on_c, 0, 71, 0
2, 99840, Note_on_c, 0, 69, 47
2, 100080, Note_on_c, 0, 69, 0
2, 100080, Note_on_c, 0, 69, 47
2, 100800, Note_on_c, 0, 69, 0
2, 100800, Note_on_c, 0, 66, 0
2, 100800, Note_on_c, 0, 64, 42
2, 100800, Note_on_c, 0, 71, 55
2, 101520, Note_on_c, 0, 71, 0
2, 101520, Note_on_c, 0, 69, 51
2, 102240, Note_on_c, 0, 69, 0
2, 102240, Note_on_c, 0, 64, 0
2, 102240, Note_on_c, 0, 63, 42
2, 102240, Note_on_c, 0, 67, 55
2, 102720, Note_on_c, 0, 67, 0
2, 102720, Note_on_c, 0, 66, 51
2, 102960, Note_on_c, 0, 66, 0
2, 102960, Note_on_c, 0, 66, 51
2, 103680, Note_on_c, 0, 66, 0
2, 103680, Note_on_c, 0, 63, 0
2, 103680, Note_on_c, 0, 69, 55
2, 103680, Note_on_c, 0, 62, 42
2, 104400, Note_on_c, 0, 62, 0
2, 104400, Note_on_c, 0, 69, 0
2, 104400, Note_on_c, 0, 62, 51
2, 105120, Note_on_c, 0, 62, 0
2, 105120, Note_on_c, 0, 62, 42
2, 105120, Note_on_c, 0, 66, 55
2, 105600, Note_on_c, 0, 66, 0
2, 105600, Note_on_c, 0, 64, 51
2, 105840, Note_on_c, 0, 64, 0
2, 105840, Note_on_c, 0, 64, 51
2, 106560, Note_on_c, 0, 64, 0
2, 106560, Note_on_c, 0, 62, 0
2, 106560, Note_on_c, 0, 66, 55
2, 106560, Note_on_c, 0, 59, 42
2, 107280, Note_on_c, 0, 59, 0
2, 107280, Note_on_c, 0, 66, 0
2, 107280, Note_on_c, 0, 59, 51
2, 108000, Note_on_c, 0, 59, 0
2, 108000, Note_on_c, 0, 58, 40
2, 108000, Note_on_c, 0, 62, 53
2, 108480, Note_on_c, 0, 62, 0
2, 108480, Note_on_c, 0, 61, 49
2, 108720, Note_on_c, 0, 61, 0
2, 108720, Note_on_c, 0, 61, 49
2, 109440, Note_on_c, 0, 61, 0
2, 109440, Note_on_c, 0, 58, 0
2, 109440, Note_on_c, 0, 57, 47
2, 109440, Note_on_c, 0, 69, 47
2, 109440, Note_on_c, 0, 62, 47
2, 110880, Note_on_c, 0, 62, 0
2, 110880, Note_on_c, 0, 69, 0
2, 110880, Note_on_c, 0, 57, 0
2, 110880, Note_on_c, 0, 54, 46
2, 110880, Note_on_c, 0, 57, 46
2, 112320, Note_on_c, 0, 57, 0
2, 112320, Note_on_c, 0, 54, 0
2, 112320, Note_on_c, 0, 64, 49
2, 112320, Note_on_c, 0, 71, 49
2, 112320, Note_on_c, 0, 74, 49
2, 113760, Note_on_c, 0, 74, 0
2, 113760, Note_on_c, 0, 71, 0
2, 113760, Note_on_c, 0, 64, 0
2, 113760, Note_on_c, 0, 59, 52
2, 113760, Note_on_c, 0, 64, 52
2, 115200, Note_on_c, 0, 64, 0
2, 115200, Note_on_c, 0, 59, 0
2, 115200, Note_on_c, 0, 64, 52
2, 115200, Note_on_c, 0, 76, 52
2, 116640, Note_on_c, 0, 76, 0
2, 116640, Note_on_c, 0, 64, 0
2, 116640, Note_on_c, 0, 63, 50
2, 116640, Note_on_c, 0, 69, 50
2, 118080, Note_on_c, 0, 69, 0
2, 118080, Note_on_c, 0, 63, 0
2, 118080, Note_on_c, 0, 69, 56
2, 118080, Note_on_c, 0, 76, 56
2, 118080, Note_on_c, 0, 81, 56
2, 118800, Note_on_c, 0, 81, 0
2, 118800, Note_on_c, 0, 76, 0
2, 118800, Note_on_c, 0, 69, 0
2, 118800, Note_on_c, 0, 69, 56
2, 118800, Note_on_c, 0, 73, 56
2, 119520, Note_on_c, 0, 73, 0
2, 119520, Note_on_c, 0, 69, 0
2, 119520, Note_on_c, 0, 68, 53
2, 119520, Note_on_c, 0, 73, 69
2, 120000, Note_on_c, 0, 73, 0
2, 120000, Note_on_c, 0, 71, 60
2, 120240, Note_on_c, 0, 71, 0
2, 120240, Note_on_c, 0, 68, 0
2, 120240, Note_on_c, 0, 69, 60
2, 120960, Note_on_c, 0, 69, 0
2, 120960, Note_on_c, 0, 67, 47
2, 120960, Note_on_c, 0, 76, 55
2, 121680, Note_on_c, 0, 76, 0
2, 121680, Note_on_c, 0, 69, 51
2, 122400, Note_on_c, 0, 69, 0
2, 122400, Note_on_c, 0, 67, 0
2, 122400, Note_on_c, 0, 66, 47
2, 122400, Note_on_c, 0, 71, 55
2, 122880, Note_on_c, 0, 71, 0
2, 122880, Note_on_c, 0, 69, 51
2, 123120, Note_on_c, 0, 69, 0
2, 123120, Note_on_c, 0, 69, 51
2, 123840, Note_on_c, 0, 69, 0
2, 123840, Note_on_c, 0, 66, 0
2, 123840, Note_on_c, 0, 71, 47
2, 123840, Note_on_c, 0, 69, 47
2, 125280, Note_on_c, 0, 69, 0
2, 125280, Note_on_c, 0, 71, 0
2, 125280, Note_on_c, 0, 69, 47
2, 125280, Note_on_c, 0, 67, 47
2, 126000, Note_on_c, 0, 67, 0
2, 126000, Note_on_c, 0, 69, 0
2, 126000, Note_on_c, 0, 68, 36
2, 126000, Note_on_c, 0, 71, 36
2, 126720, Note_on_c, 0, 71, 0
2, 126720, Note_on_c, 0, 68, 0
2, 126720, Note_on_c, 0, 71, 49
2, 126720, Note_on_c, 0, 80, 57
2, 127440, Note_on_c, 0, 80, 0
2, 127440, Note_on_c, 0, 73, 53
2, 128160, Note_on_c, 0, 73, 0
2, 128160, Note_on_c, 0, 71, 0
2, 128160, Note_on_c, 0, 74, 57
2, 128160, Note_on_c, 0, 69, 49
2, 128640, Note_on_c, 0, 74, 0
2, 128653, Note_on_c, 0, 73, 53
2, 128880, Note_on_c, 0, 73, 53
2, 128893, Note_on_c, 0, 73, 0
2, 129600, Note_on_c, 0, 73, 0
2, 129600, Note_on_c, 0, 69, 0
2, 129600, Note_on_c, 0, 74, 49
2, 129600, Note_on_c, 0, 72, 49
2, 131040, Note_on_c, 0, 72, 0
2, 131040, Note_on_c, 0, 74, 0
2, 131040, Note_on_c, 0, 73, 49
2, 131040, Note_on_c, 0, 70, 49
2, 131760, Note_on_c, 0, 70, 0
2, 131760, Note_on_c, 0, 73, 0
2, 131760, Note_on_c, 0, 71, 45
2, 131760, Note_on_c, 0, 74, 45
2, 132480, Note_on_c, 0, 74, 0
2, 132480, Note_on_c, 0, 71, 0
2, 132480, Note_on_c, 0, 74, 53
2, 132480, Note_on_c, 0, 83, 62
2, 133200, Note_on_c, 0, 83, 0
2, 133200, Note_on_c, 0, 76, 58
2, 133920, Note_on_c, 0, 76, 0
2, 133920, Note_on_c, 0, 74, 0
2, 133920, Note_on_c, 0, 75, 65
2, 133920, Note_on_c, 0, 73, 56
2, 134400, Note_on_c, 0, 75, 0
2, 134400, Note_on_c, 0, 76, 63
2, 134640, Note_on_c, 0, 76, 0
2, 134640, Note_on_c, 0, 76, 63
2, 135360, Note_on_c, 0, 76, 0
2, 135360, Note_on_c, 0, 73, 0
2, 135360, Note_on_c, 0, 76, 54
2, 135360, Note_on_c, 0, 85, 68
2, 136080, Note_on_c, 0, 85, 0
2, 136080, Note_on_c, 0, 78, 63
2, 136800, Note_on_c, 0, 78, 0
2, 136800, Note_on_c, 0, 76, 0
2, 136800, Note_on_c, 0, 77, 71
2, 136800, Note_on_c, 0, 74, 61
2, 137280, Note_on_c, 0, 77, 0
2, 137280, Note_on_c, 0, 78, 69
2, 137520, Note_on_c, 0, 78, 0
2, 137520, Note_on_c, 0, 78, 69
2, 138240, Note_on_c, 0, 78, 0
2, 138240, Note_on_c, 0, 74, 0
2, 138240, Note_on_c, 0, 68, 58
2, 138240, Note_on_c, 0, 71, 58
2, 141120, Note_on_c, 0, 71, 0
2, 141120, Note_on_c, 0, 68, 0
2, 141120, Note_on_c, 0, 67, 57
2, 141120, Note_on_c, 0, 74, 64
2, 141840, Note_on_c, 0, 74, 0
2, 141840, Note_on_c, 0, 67, 0
2, 141840, Note_on_c, 0, 67, 57
2, 142560, Note_on_c, 0, 67, 0
2, 142560, Note_on_c, 0, 67, 58
2, 142560, Note_on_c, 0, 74, 58
2, 143040, Note_on_c, 0, 74, 0
2, 143040, Note_on_c, 0, 73, 51
2, 143280, Note_on_c, 0, 73, 0
2, 143280, Note_on_c, 0, 73, 53
2, 144000, Note_on_c, 0, 73, 0
2, 144000, Note_on_c, 0, 67, 0
2, 144000, Note_on_c, 0, 66, 42
2, 144000, Note_on_c, 0, 74, 55
2, 144720, Note_on_c, 0, 74, 0
2, 144720, Note_on_c, 0, 73, 51
2, 145440, Note_on_c, 0, 73, 0
2, 145440, Note_on_c, 0, 71, 52
2, 145920, Note_on_c, 0, 71, 0
2, 145920, Note_on_c, 0, 69, 47
2, 146160, Note_on_c, 0, 69, 0
2, 146160, Note_on_c, 0, 69, 47
2, 146880, Note_on_c, 0, 69, 0
2, 146880, Note_on_c, 0, 66, 0
2, 146880, Note_on_c, 0, 64, 42
2, 146880, Note_on_c, 0, 71, 55
2, 147600, Note_on_c, 0, 71, 0
2, 147600, Note_on_c, 0, 69, 51
2, 148320, Note_on_c, 0, 69, 0
2, 148320, Note_on_c, 0, 64, 0
2, 148320, Note_on_c, 0, 63, 42
2, 148320, Note_on_c, 0, 67, 55
2, 148800, Note_on_c, 0, 67, 0
2, 148800, Note_on_c, 0, 66, 51
2, 149040, Note_on_c, 0, 66, 0
2, 149040, Note_on_c, 0, 66, 51
2, 149760, Note_on_c, 0, 66, 0
2, 149760, Note_on_c, 0, 63, 0
2, 149760, Note_on_c, 0, 69, 55
2, 149760, Note_on_c, 0, 62, 42
2, 150480, Note_on_c, 0, 62, 0
2, 150480, Note_on_c, 0, 69, 0
2, 150480, Note_on_c, 0, 62, 51
2, 151200, Note_on_c, 0, 62, 0
2, 151200, Note_on_c, 0, 62, 42
2, 151200, Note_on_c, 0, 66, 55
2, 151680, Note_on_c, 0, 66, 0
2, 151680, Note_on_c, 0, 64, 51
2, 151920, Note_on_c, 0, 64, 0
2, 151920, Note_on_c, 0, 64, 51
2, 152640, Note_on_c, 0, 64, 0
2, 152640, Note_on_c, 0, 62, 0
2, 152640, Note_on_c, 0, 66, 55
2, 152640, Note_on_c, 0, 59, 42
2, 153360, Note_on_c, 0, 59, 0
2, 153360, Note_on_c, 0, 66, 0
2, 153360, Note_on_c, 0, 59, 51
2, 154080, Note_on_c, 0, 59, 0
2, 154080, Note_on_c, 0, 58, 40
2, 154080, Note_on_c, 0, 62, 53
2, 154560, Note_on_c, 0, 62, 0
2, 154560, Note_on_c, 0, 61, 49
2, 154800, Note_on_c, 0, 61, 0
2, 154800, Note_on_c, 0, 61, 49
2, 155520, Note_on_c, 0, 61, 0
2, 155520, Note_on_c, 0, 58, 0
2, 155520, Note_on_c, 0, 57, 47
2, 155520, Note_on_c, 0, 69, 47
2, 155520, Note_on_c, 0, 62, 47
2, 156960, Note_on_c, 0, 62, 0
2, 156960, Note_on_c, 0, 69, 0
2, 156960, Note_on_c, 0, 57, 0
2, 156960, Note_on_c, 0, 62, 46
2, 156960, Note_on_c, 0, 54, 46
2, 156960, Note_on_c, 0, 57, 46
2, 158400, Note_on_c, 0, 57, 0
2, 158400, Note_on_c, 0, 54, 0
2, 158400, Note_on_c, 0, 62, 0
2, 158400, Note_on_c, 0, 62, 49
2, 158400, Note_on_c, 0, 74, 49
2, 158400, Note_on_c, 0, 67, 49
2, 159840, Note_on_c, 0, 67, 0
2, 159840, Note_on_c, 0, 74, 0
2, 159840, Note_on_c, 0, 62, 0
2, 159840, Note_on_c, 0, 71, 48
2, 159840, Note_on_c, 0, 59, 48
2, 159840, Note_on_c, 0, 65, 48
2, 161280, Note_on_c, 0, 65, 0
2, 161280, Note_on_c, 0, 59, 0
2, 161280, Note_on_c, 0, 71, 0
2, 161280, Note_on_c, 0, 57, 51
2, 161280, Note_on_c, 0, 69, 51
2, 161280, Note_on_c, 0, 66, 51
2, 162720, Note_on_c, 0, 66, 0
2, 162720, Note_on_c, 0, 69, 0
2, 162720, Note_on_c, 0, 57, 0
2, 162720, Note_on_c, 0, 59, 50
2, 162720, Note_on_c, 0, 64, 50
2, 164160, Note_on_c, 0, 64, 0
2, 164160, Note_on_c, 0, 59, 0
2, 164160, Note_on_c, 0, 55, 45
2, 164160, Note_on_c, 0, 61, 45
2, 165600, Note_on_c, 0, 61, 0
2, 165600, Note_on_c, 0, 55, 0
2, 165600, Note_on_c, 0, 54, 40
2, 165600, Note_on_c, 0, 62, 40
2, 167040, Note_on_c, 0, 62, 0
2, 167040, Note_on_c, 0, 54, 0
2, 167040, Note_on_c, 0, 66, 39
2, 167040, Note_on_c, 0, 71, 55
2, 167760, Note_on_c, 0, 71, 0
2, 167760, Note_on_c, 0, 70, 51
2, 168480, Note_on_c, 0, 70, 0
2, 168480, Note_on_c, 0, 66, 0
2, 168480, Note_on_c, 0, 61, 36
2, 168480, Note_on_c, 0, 67, 55
2, 168960, Note_on_c, 0, 67, 0
2, 168960, Note_on_c, 0, 66, 51
2, 169200, Note_on_c, 0, 66, 0
2, 169200, Note_on_c, 0, 66, 51
2, 169920, Note_on_c, 0, 66, 0
2, 169920, Note_on_c, 0, 61, 0
2, 169920, Note_on_c, 0, 64, 35
2, 169920, Note_on_c, 0, 66, 37
2, 169920, Note_on_c, 0, 74, 49
2, 170640, Note_on_c, 0, 74, 0
2, 170640, Note_on_c, 0, 73, 45
2, 171360, Note_on_c, 0, 73, 0
2, 171360, Note_on_c, 0, 66, 0
2, 171360, Note_on_c, 0, 64, 0
2, 171360, Note_on_c, 0, 62, 44
2, 171360, Note_on_c, 0, 66, 43
2, 171360, Note_on_c, 0, 71, 47
2, 172080, Note_on_c, 0, 71, 0
2, 172080, Note_on_c, 0, 66, 0
2, 172080, Note_on_c, 0, 62, 0
2, 172080, Note_on_c, 0, 66, 44
2, 172080, Note_on_c, 0, 70, 44
2, 172800, Note_on_c, 0, 70, 0
2, 172800, Note_on_c, 0, 66, 0
2, 172800, Note_on_c, 0, 78, 39
2, 172800, Note_on_c, 0, 83, 55
2, 173520, Note_on_c, 0, 83, 0
2, 173520, Note_on_c, 0, 82, 51
2, 174240, Note_on_c, 0, 82, 0
2, 174240, Note_on_c, 0, 78, 0
2, 174240, Note_on_c, 0, 73, 36
2, 174240, Note_on_c, 0, 79, 55
2, 174720, Note_on_c, 0, 79, 0
2, 174720, Note_on_c, 0, 78, 51
2, 174960, Note_on_c, 0, 78, 0
2, 174960, Note_on_c, 0, 78, 51
2, 175680, Note_on_c, 0, 78, 0
2, 175680, Note_on_c, 0, 73, 0
2, 175680, Note_on_c, 0, 76, 39
2, 175680, Note_on_c, 0, 78, 39
2, 175680, Note_on_c, 0, 86, 49
2, 176400, Note_on_c, 0, 86, 0
2, 176400, Note_on_c, 0, 85, 45
2, 177120, Note_on_c, 0, 85, 0
2, 177120, Note_on_c, 0, 78, 0
2, 177120, Note_on_c, 0, 76, 0
2, 177120, Note_on_c, 0, 74, 44
2, 177120, Note_on_c, 0, 78, 43
2, 177120, Note_on_c, 0, 83, 47
2, 177840, Note_on_c, 0, 83, 0
2, 177840, Note_on_c, 0, 78, 0
2, 177840, Note_on_c, 0, 74, 0
2, 177840, Note_on_c, 0, 78, 44
2, 177840, Note_on_c, 0, 82, 44
2, 178560, Note_on_c, 0, 82, 0
2, 178560, Note_on_c, 0, 78, 0
2, 178560, Note_on_c, 0, 76, 31
2, 178560, Note_on_c, 0, 83, 44
2, 179040, Note_on_c, 0, 83, 0
2, 179040, Note_on_c, 0, 82, 40
2, 179280, Note_on_c, 0, 82, 0
2, 179280, Note_on_c, 0, 82, 40
2, 180000, Note_on_c, 0, 82, 0
2, 180000, Note_on_c, 0, 76, 0
2, 181440, Note_on_c, 0, 64, 31
2, 181440, Note_on_c, 0, 71, 44
2, 181920, Note_on_c, 0, 71, 0
2, 181920, Note_on_c, 0, 70, 40
2, 182160, Note_on_c, 0, 70, 0
2, 182160, Note_on_c, 0, 70, 40
2, 182880, Note_on_c, 0, 70, 0
2, 182880, Note_on_c, 0, 64, 0
2, 186720, Note_on_c, 0, 66, 45
2, 186720, Note_on_c, 0, 71, 49
2, 186960, Note_on_c, 0, 71, 0
2, 186960, Note_on_c, 0, 66, 0
2, 186960, Note_on_c, 0, 65, 46
2, 187200, Note_on_c, 0, 65, 0
2, 187200, Note_on_c, 0, 66, 45
2, 187200, Note_on_c, 0, 71, 49
2, 187680, Note_on_c, 0, 71, 0
2, 187680, Note_on_c, 0, 66, 0
2, 187680, Note_on_c, 0, 64, 45
2, 187680, Note_on_c, 0, 70, 49
2, 187920, Note_on_c, 0, 70, 0
2, 187920, Note_on_c, 0, 64, 0
2, 188160, Note_on_c, 0, 62, 45
2, 188160, Note_on_c, 0, 67, 49
2, 188400, Note_on_c, 0, 67, 0
2, 188400, Note_on_c, 0, 62, 0
2, 188400, Note_on_c, 0, 61, 45
2, 188640, Note_on_c, 0, 61, 0
2, 188640, Note_on_c, 0, 62, 45
2, 188640, Note_on_c, 0, 67, 49
2, 189120, Note_on_c, 0, 67, 0
2, 189120, Note_on_c, 0, 62, 0
2, 189120, Note_on_c, 0, 61, 44
2, 189120, Note_on_c, 0, 66, 47
2, 189360, Note_on_c, 0, 66, 0
2, 189360, Note_on_c, 0, 61, 0
2, 189600, Note_on_c, 0, 60, 45
2, 189600, Note_on_c, 0, 66, 49
2, 189840, Note_on_c, 0, 66, 0
2, 189840, Note_on_c, 0, 60, 0
2, 189840, Note_on_c, 0, 59, 46
2, 190080, Note_on_c, 0, 59, 0
2, 190080, Note_on_c, 0, 60, 45
2, 190080, Note_on_c, 0, 66, 49
2, 190560, Note_on_c, 0, 66, 0
2, 190560, Note_on_c, 0, 60, 0
2, 190560, Note_on_c, 0, 59, 43
2, 190560, Note_on_c, 0, 64, 46
2, 190800, Note_on_c, 0, 64, 0
2, 190800, Note_on_c, 0, 59, 0
2, 191040, Note_on_c, 0, 58, 45
2, 191040, Note_on_c, 0, 64, 49
2, 191280, Note_on_c, 0, 64, 0
2, 191280, Note_on_c, 0, 58, 0
2, 191520, Note_on_c, 0, 58, 47
2, 191520, Note_on_c, 0, 62, 52
2, 191760, Note_on_c, 0, 62, 0
2, 191760, Note_on_c, 0, 58, 0
2, 192000, Note_on_c, 0, 58, 45
2, 192000, Note_on_c, 0, 61, 50
2, 192240, Note_on_c, 0, 61, 0
2, 192240, Note_on_c, 0, 58, 0
2, 192240, Note_on_c, 0, 59, 47
2, 192480, Note_on_c, 0, 59, 0
2, 193200, Note_on_c, 0, 62, 47
2, 193200, Note_on_c, 0, 71, 47
2, 193200, Note_on_c, 0, 74, 47
2, 193320, Note_on_c, 0, 74, 0
2, 193320, Note_on_c, 0, 71, 0
2, 193320, Note_on_c, 0, 62, 0
2, 193440, Note_on_c, 0, 64, 49
2, 193440, Note_on_c, 0, 71, 49
2, 193440, Note_on_c, 0, 74, 49
2, 193560, Note_on_c, 0, 74, 0
2, 193560, Note_on_c, 0, 71, 0
2, 193560, Note_on_c, 0, 64, 0
2, 193680, Note_on_c, 0, 65, 46
2, 193680, Note_on_c, 0, 71, 46
2, 193680, Note_on_c, 0, 74, 46
2, 193800, Note_on_c, 0, 74, 0
2, 193800, Note_on_c, 0, 71, 0
2, 193800, Note_on_c, 0, 65, 0
2, 194640, Note_on_c, 0, 56, 45
2, 194640, Note_on_c, 0, 59, 45
2, 194640, Note_on_c, 0, 66, 45
2, 194760, Note_on_c, 0, 66, 0
2, 194760, Note_on_c, 0, 59, 0
2, 194760, Note_on_c, 0, 56, 0
2, 194880, Note_on_c, 0, 58, 46
2, 194880, Note_on_c, 0, 61, 46
2, 194880, Note_on_c, 0, 64, 46
2, 195000, Note_on_c, 0, 64, 0
2, 195000, Note_on_c, 0, 61, 0
2, 195000, Note_on_c, 0, 58, 0
2, 195120, Note_on_c, 0, 59, 46
2, 195120, Note_on_c, 0, 62, 46
2, 195240, Note_on_c, 0, 62, 0
2, 195240, Note_on_c, 0, 59, 0
2, 196080, Note_on_c, 0, 62, 47
2, 196080, Note_on_c, 0, 71, 47
2, 196080, Note_on_c, 0, 74, 47
2, 196200, Note_on_c, 0, 74, 0
2, 196200, Note_on_c, 0, 71, 0
2, 196200, Note_on_c, 0, 62, 0
2, 196320, Note_on_c, 0, 64, 49
2, 196320, Note_on_c, 0, 71, 49
2, 196320, Note_on_c, 0, 74, 49
2, 196440, Note_on_c, 0, 74, 0
2, 196440, Note_on_c, 0, 71, 0
2, 196440, Note_on_c, 0, 64, 0
2, 196560, Note_on_c, 0, 65, 45
2, 196560, Note_on_c, 0, 71, 45
2, 196560, Note_on_c, 0, 74, 45
2, 196680, Note_on_c, 0, 74, 0
2, 196680, Note_on_c, 0, 71, 0
2, 196680, Note_on_c, 0, 65, 0
2, 197520, Note_on_c, 0, 56, 47
2, 197520, Note_on_c, 0, 59, 47
2, 197520, Note_on_c, 0, 66, 47
2, 197640, Note_on_c, 0, 66, 0
2, 197640, Note_on_c, 0, 59, 0
2, 197640, Note_on_c, 0, 56, 0
2, 197760, Note_on_c, 0, 58, 46
2, 197760, Note_on_c, 0, 61, 46
2, 197760, Note_on_c, 0, 64, 46
2, 197880, Note_on_c, 0, 64, 0
2, 197880, Note_on_c, 0, 61, 0
2, 197880, Note_on_c, 0, 58, 0
2, 198000, Note_on_c, 0, 59, 46
2, 198000, Note_on_c, 0, 62, 46
2, 198120, Note_on_c, 0, 62, 0
2, 198120, Note_on_c, 0, 59, 0
2, 198240, Note_on_c, 0, 66, 45
2, 198240, Note_on_c, 0, 71, 49
2, 198480, Note_on_c, 0, 71, 0
2, 198480, Note_on_c, 0, 66, 0
2, 198480, Note_on_c, 0, 65, 46
2, 198720, Note_on_c, 0, 65, 0
2, 198720, Note_on_c, 0, 66, 45
2, 198720, Note_on_c, 0, 71, 49
2, 199200, Note_on_c, 0, 71, 0
2, 199200, Note_on_c, 0, 66, 0
2, 199200, Note_on_c, 0, 64, 45
2, 199200, Note_on_c, 0, 70, 49
2, 199440, Note_on_c, 0, 70, 0
2, 199440, Note_on_c, 0, 64, 0
2, 199680, Note_on_c, 0, 62, 45
2, 199680, Note_on_c, 0, 67, 49
2, 199920, Note_on_c, 0, 67, 0
2, 199920, Note_on_c, 0, 62, 0
2, 199920, Note_on_c, 0, 61, 45
2, 200160, Note_on_c, 0, 61, 0
2, 200160, Note_on_c, 0, 62, 45
2, 200160, Note_on_c, 0, 67, 49
2, 200640, Note_on_c, 0, 67, 0
2, 200640, Note_on_c, 0, 62, 0
2, 200640, Note_on_c, 0, 61, 44
2, 200640, Note_on_c, 0, 66, 47
2, 200880, Note_on_c, 0, 66, 0
2, 200880, Note_on_c, 0, 61, 0
2, 201120, Note_on_c, 0, 60, 45
2, 201120, Note_on_c, 0, 66, 49
2, 201360, Note_on_c, 0, 66, 0
2, 201360, Note_on_c, 0, 60, 0
2, 201360, Note_on_c, 0, 59, 46
2, 201600, Note_on_c, 0, 59, 0
2, 201600, Note_on_c, 0, 60, 45
2, 201600, Note_on_c, 0, 66, 49
2, 202080, Note_on_c, 0, 66, 0
2, 202080, Note_on_c, 0, 60, 0
2, 202080, Note_on_c, 0, 59, 43
2, 202080, Note_on_c, 0, 64, 46
2, 202320, Note_on_c, 0, 64, 0
2, 202320, Note_on_c, 0, 59, 0
2, 202560, Note_on_c, 0, 58, 45
2, 202560, Note_on_c, 0, 64, 49
2, 202800, Note_on_c, 0, 64, 0
2, 202800, Note_on_c, 0, 58, 0
2, 203040, Note_on_c, 0, 58, 47
2, 203040, Note_on_c, 0, 62, 52
2, 203280, Note_on_c, 0, 62, 0
2, 203280, Note_on_c, 0, 58, 0
2, 203520, Note_on_c, 0, 58, 45
2, 203520, Note_on_c, 0, 61, 50
2, 203760, Note_on_c, 0, 61, 0
2, 203760, Note_on_c, 0, 58, 0
2, 203760, Note_on_c, 0, 59, 47
2, 204000, Note_on_c, 0, 59, 0
2, 204720, Note_on_c, 0, 62, 47
2, 204720, Note_on_c, 0, 71, 47
2, 204720, Note_on_c, 0, 74, 47
2, 204840, Note_on_c, 0, 74, 0
2, 204840, Note_on_c, 0, 71, 0
2, 204840, Note_on_c, 0, 62, 0
2, 204960, Note_on_c, 0, 64, 49
2, 204960, Note_on_c, 0, 71, 49
2, 204960, Note_on_c, 0, 74, 49
2, 205080, Note_on_c, 0, 74, 0
2, 205080, Note_on_c, 0, 71, 0
2, 205080, Note_on_c, 0, 64, 0
2, 205200, Note_on_c, 0, 65, 46
2, 205200, Note_on_c, 0, 71, 46
2, 205200, Note_on_c, 0, 74, 46
2, 205320, Note_on_c, 0, 74, 0
2, 205320, Note_on_c, 0, 71, 0
2, 205320, Note_on_c, 0, 65, 0
2, 206160, Note_on_c, 0, 56, 45
2, 206160, Note_on_c, 0, 59, 45
2, 206160, Note_on_c, 0, 66, 45
2, 206280, Note_on_c, 0, 66, 0
2, 206280, Note_on_c, 0, 59, 0
2, 206280, Note_on_c, 0, 56, 0
2, 206400, Note_on_c, 0, 58, 44
2, 206400, Note_on_c, 0, 61, 44
2, 206400, Note_on_c, 0, 64, 44
2, 206520, Note_on_c, 0, 64, 0
2, 206520, Note_on_c, 0, 61, 0
2, 206520, Note_on_c, 0, 58, 0
2, 206640, Note_on_c, 0, 59, 46
2, 206640, Note_on_c, 0, 62, 46
2, 206760, Note_on_c, 0, 62, 0
2, 206760, Note_on_c, 0, 59, 0
2, 207600, Note_on_c, 0, 62, 50
2, 207600, Note_on_c, 0, 71, 50
2, 207600, Note_on_c, 0, 74, 50
2, 207720, Note_on_c, 0, 74, 0
2, 207720, Note_on_c, 0, 71, 0
2, 207720, Note_on_c, 0, 62, 0
2, 207840, Note_on_c, 0, 64, 54
2, 207840, Note_on_c, 0, 71, 54
2, 207840, Note_on_c, 0, 74, 54
2, 207960, Note_on_c, 0, 74, 0
2, 207960, Note_on_c, 0, 71, 0
2, 207960, Note_on_c, 0, 64, 0
2, 208080, Note_on_c, 0, 65, 58
2, 208080, Note_on_c, 0, 71, 58
2, 208080, Note_on_c, 0, 74, 58
2, 208560, Note_on_c, 0, 74, 0
2, 208560, Note_on_c, 0, 71, 0
2, 208560, Note_on_c, 0, 65, 0
2, 208560, Note_on_c, 0, 73, 63
2, 208560, Note_on_c, 0, 71, 63
2, 208560, Note_on_c, 0, 65, 63
2, 209040, Note_on_c, 0, 65, 0
2, 209040, Note_on_c, 0, 71, 0
2, 209040, Note_on_c, 0, 73, 0
2, 209040, Note_on_c, 0, 71, 68
2, 209040, Note_on_c, 0, 73, 68
2, 209040, Note_on_c, 0, 77, 68
2, 209520, Note_on_c, 0, 77, 0
2, 209520, Note_on_c, 0, 73, 0
2, 209520, Note_on_c, 0, 71, 0
2, 209520, Note_on_c, 0, 70, 69
2, 209520, Note_on_c, 0, 73, 69
2, 209520, Note_on_c, 0, 78, 69
2, 209700, Note_on_c, 0, 78, 0
2, 209700, Note_on_c, 0, 73, 0
2, 209700, Note_on_c, 0, 70, 0
2, 209760, Note_on_c, 0, 78, 45
2, 209760, Note_on_c, 0, 83, 49
2, 210000, Note_on_c, 0, 83, 0
2, 210000, Note_on_c, 0, 78, 0
2, 210000, Note_on_c, 0, 77, 46
2, 210240, Note_on_c, 0, 77, 0
2, 210240, Note_on_c, 0, 78, 45
2, 210240, Note_on_c, 0, 83, 49
2, 210720, Note_on_c, 0, 83, 0
2, 210720, Note_on_c, 0, 78, 0
2, 210720, Note_on_c, 0, 76, 45
2, 210720, Note_on_c, 0, 82, 49
2, 210960, Note_on_c, 0, 82, 0
2, 210960, Note_on_c, 0, 76, 0
2, 211200, Note_on_c, 0, 74, 45
2, 211200, Note_on_c, 0, 79, 49
2, 211440, Note_on_c, 0, 79, 0
2, 211440, Note_on_c, 0, 74, 0
2, 211440, Note_on_c, 0, 73, 45
2, 211680, Note_on_c, 0, 73, 0
2, 211680, Note_on_c, 0, 74, 45
2, 211680, Note_on_c, 0, 79, 49
2, 212160, Note_on_c, 0, 79, 0
2, 212160, Note_on_c, 0, 74, 0
2, 212160, Note_on_c, 0, 73, 44
2, 212160, Note_on_c, 0, 78, 47
2, 212400, Note_on_c, 0, 78, 0
2, 212400, Note_on_c, 0, 73, 0
2, 212640, Note_on_c, 0, 72, 62
2, 212640, Note_on_c, 0, 78, 69
2, 212880, Note_on_c, 0, 78, 0
2, 212880, Note_on_c, 0, 72, 0
2, 212880, Note_on_c, 0, 71, 64
2, 213120, Note_on_c, 0, 71, 0
2, 213120, Note_on_c, 0, 72, 62
2, 213120, Note_on_c, 0, 78, 69
2, 213360, Note_on_c, 0, 78, 0
2, 213360, Note_on_c, 0, 72, 0
2, 213360, Note_on_c, 0, 66, 67
2, 213360, Note_on_c, 0, 72, 67
2, 213600, Note_on_c, 0, 72, 0
2, 213600, Note_on_c, 0, 66, 0
2, 213600, Note_on_c, 0, 65, 60
2, 213840, Note_on_c, 0, 65, 0
2, 213840, Note_on_c, 0, 66, 64
2, 213840, Note_on_c, 0, 72, 64
2, 214080, Note_on_c, 0, 72, 0
2, 214080, Note_on_c, 0, 66, 0
2, 214080, Note_on_c, 0, 60, 67
2, 214080, Note_on_c, 0, 64, 67
2, 214320, Note_on_c, 0, 64, 0
2, 214320, Note_on_c, 0, 60, 0
2, 214320, Note_on_c, 0, 59, 67
2, 214560, Note_on_c, 0, 59, 0
2, 214560, Note_on_c, 0, 60, 64
2, 214560, Note_on_c, 0, 64, 64
2, 214800, Note_on_c, 0, 64, 0
2, 214800, Note_on_c, 0, 60, 0
2, 215040, Note_on_c, 0, 54, 66
2, 215040, Note_on_c, 0, 57, 66
2, 215040, Note_on_c, 0, 63, 66
2, 215160, Note_on_c, 0, 63, 0
2, 215160, Note_on_c, 0, 57, 0
2, 215160, Note_on_c, 0, 54, 0
2, 215280, Note_on_c, 0, 55, 70
2, 215280, Note_on_c, 0, 59, 70
2, 215280, Note_on_c, 0, 64, 70
2, 215400, Note_on_c, 0, 64, 0
2, 215400, Note_on_c, 0, 59, 0
2, 215400, Note_on_c, 0, 55, 0
2, 215520, Note_on_c, 0, 83, 45
2, 215520, Note_on_c, 0, 88, 49
2, 215760, Note_on_c, 0, 88, 0
2, 215760, Note_on_c, 0, 83, 0
2, 215760, Note_on_c, 0, 82, 46
2, 216000, Note_on_c, 0, 82, 0
2, 216000, Note_on_c, 0, 83, 45
2, 216000, Note_on_c, 0, 88, 49
2, 216480, Note_on_c, 0, 88, 0
2, 216480, Note_on_c, 0, 83, 0
2, 216480, Note_on_c, 0, 81, 45
2, 216480, Note_on_c, 0, 87, 49
2, 216720, Note_on_c, 0, 87, 0
2, 216720, Note_on_c, 0, 81, 0
2, 216960, Note_on_c, 0, 79, 45
2, 216960, Note_on_c, 0, 84, 49
2, 217200, Note_on_c, 0, 84, 0
2, 217200, Note_on_c, 0, 79, 0
2, 217200, Note_on_c, 0, 78, 45
2, 217440, Note_on_c, 0, 78, 0
2, 217440, Note_on_c, 0, 79, 45
2, 217440, Note_on_c, 0, 84, 49
2, 217920, Note_on_c, 0, 84, 0
2, 217920, Note_on_c, 0, 79, 0
2, 217920, Note_on_c, 0, 78, 44
2, 217920, Note_on_c, 0, 83, 47
2, 218160, Note_on_c, 0, 83, 0
2, 218160, Note_on_c, 0, 78, 0
2, 218400, Note_on_c, 0, 77, 62
2, 218400, Note_on_c, 0, 83, 69
2, 218640, Note_on_c, 0, 83, 0
2, 218640, Note_on_c, 0, 77, 0
2, 218640, Note_on_c, 0, 76, 64
2, 218880, Note_on_c, 0, 76, 0
2, 218880, Note_on_c, 0, 77, 62
2, 218880, Note_on_c, 0, 83, 69
2, 219120, Note_on_c, 0, 83, 0
2, 219120, Note_on_c, 0, 77, 0
2, 219120, Note_on_c, 0, 71, 67
2, 219120, Note_on_c, 0, 77, 67
2, 219360, Note_on_c, 0, 77, 0
2, 219360, Note_on_c, 0, 71, 0
2, 219360, Note_on_c, 0, 70, 60
2, 219600, Note_on_c, 0, 70, 0
2, 219600, Note_on_c, 0, 71, 64
2, 219600, Note_on_c, 0, 77, 64
2, 219840, Note_on_c, 0, 77, 0
2, 219840, Note_on_c, 0, 71, 0
2, 219840, Note_on_c, 0, 65, 67
2, 219840, Note_on_c, 0, 69, 67
2, 220080, Note_on_c, 0, 69, 0
2, 220080, Note_on_c, 0, 65, 0
2, 220080, Note_on_c, 0, 64, 67
2, 220320, Note_on_c, 0, 64, 0
2, 220320, Note_on_c, 0, 65, 64
2, 220320, Note_on_c, 0, 69, 64
2, 220560, Note_on_c, 0, 69, 0
2, 220560, Note_on_c, 0, 65, 0
2, 220800, Note_on_c, 0, 59, 52
2, 220800, Note_on_c, 0, 62, 58
2, 220800, Note_on_c, 0, 68, 58
2, 221040, Note_on_c, 0, 68, 0
2, 221040, Note_on_c, 0, 62, 0
2, 221040, Note_on_c, 0, 59, 0
2, 221040, Note_on_c, 0, 60, 52
2, 221040, Note_on_c, 0, 69, 58
2, 221280, Note_on_c, 0, 69, 0
2, 221280, Note_on_c, 0, 60, 0
2, 221280, Note_on_c, 0, 60, 50
2, 221280, Note_on_c, 0, 69, 56
2, 221760, Note_on_c, 0, 69, 0
2, 221760, Note_on_c, 0, 60, 0
2, 221760, Note_on_c, 0, 62, 49
2, 221760, Note_on_c, 0, 68, 55
2, 221760, Note_on_c, 0, 71, 55
2, 222240, Note_on_c, 0, 71, 0
2, 222240, Note_on_c, 0, 68, 0
2, 222240, Note_on_c, 0, 62, 0
2, 222240, Note_on_c, 0, 64, 51
2, 222240, Note_on_c, 0, 69, 57
2, 222240, Note_on_c, 0, 72, 57
2, 222480, Note_on_c, 0, 72, 0
2, 222480, Note_on_c, 0, 69, 0
2, 222480, Note_on_c, 0, 64, 0
2, 222720, Note_on_c, 0, 60, 51
2, 222720, Note_on_c, 0, 69, 57
2, 223200, Note_on_c, 0, 69, 0
2, 223200, Note_on_c, 0, 60, 0
2, 223200, Note_on_c, 0, 59, 46
2, 223200, Note_on_c, 0, 62, 52
2, 223200, Note_on_c, 0, 68, 52
2, 223680, Note_on_c, 0, 68, 0
2, 223680, Note_on_c, 0, 62, 0
2, 223680, Note_on_c, 0, 59, 0
2, 223680, Note_on_c, 0, 57, 46
2, 223680, Note_on_c, 0, 60, 52
2, 223680, Note_on_c, 0, 69, 52
2, 223920, Note_on_c, 0, 69, 0
2, 223920, Note_on_c, 0, 60, 0
2, 223920, Note_on_c, 0, 57, 0
2, 224160, Note_on_c, 0, 64, 52
2, 224160, Note_on_c, 0, 72, 58
2, 224640, Note_on_c, 0, 72, 0
2, 224640, Note_on_c, 0, 64, 0
2, 224640, Note_on_c, 0, 65, 54
2, 224640, Note_on_c, 0, 71, 61
2, 224640, Note_on_c, 0, 74, 61
2, 225120, Note_on_c, 0, 74, 0
2, 225120, Note_on_c, 0, 71, 0
2, 225120, Note_on_c, 0, 65, 0
2, 225120, Note_on_c, 0, 64, 56
2, 225120, Note_on_c, 0, 72, 63
2, 225120, Note_on_c, 0, 76, 63
2, 225360, Note_on_c, 0, 76, 0
2, 225360, Note_on_c, 0, 72, 0
2, 225360, Note_on_c, 0, 64, 0
2, 225600, Note_on_c, 0, 64, 53
2, 225600, Note_on_c, 0, 72, 59
2, 226080, Note_on_c, 0, 72, 0
2, 226080, Note_on_c, 0, 64, 0
2, 226080, Note_on_c, 0, 62, 51
2, 226080, Note_on_c, 0, 65, 51
2, 226080, Note_on_c, 0, 71, 57
2, 226560, Note_on_c, 0, 71, 0
2, 226560, Note_on_c, 0, 65, 0
2, 226560, Note_on_c, 0, 62, 0
2, 226560, Note_on_c, 0, 60, 52
2, 226560, Note_on_c, 0, 64, 58
2, 226560, Note_on_c, 0, 72, 58
2, 226800, Note_on_c, 0, 72, 0
2, 226800, Note_on_c, 0, 64, 0
2, 226800, Note_on_c, 0, 60, 0
2, 227040, Note_on_c, 0, 67, 55
2, 227040, Note_on_c, 0, 76, 62
2, 227520, Note_on_c, 0, 76, 0
2, 227520, Note_on_c, 0, 67, 0
2, 227520, Note_on_c, 0, 69, 54
2, 227520, Note_on_c, 0, 75, 55
2, 227520, Note_on_c, 0, 78, 61
2, 228000, Note_on_c, 0, 78, 0
2, 228000, Note_on_c, 0, 75, 0
2, 228000, Note_on_c, 0, 69, 0
2, 228000, Note_on_c, 0, 67, 54
2, 228000, Note_on_c, 0, 76, 61
2, 228000, Note_on_c, 0, 79, 61
2, 228240, Note_on_c, 0, 79, 0
2, 228240, Note_on_c, 0, 76, 0
2, 228240, Note_on_c, 0, 67, 0
2, 228480, Note_on_c, 0, 71, 60
2, 228480, Note_on_c, 0, 79, 67
2, 228960, Note_on_c, 0, 79, 0
2, 228960, Note_on_c, 0, 71, 0
2, 228960, Note_on_c, 0, 72, 57
2, 228960, Note_on_c, 0, 81, 64
2, 228960, Note_on_c, 0, 78, 57
2, 229440, Note_on_c, 0, 78, 0
2, 229440, Note_on_c, 0, 81, 0
2, 229440, Note_on_c, 0, 72, 0
2, 229440, Note_on_c, 0, 71, 57
2, 229440, Note_on_c, 0, 79, 64
2, 229440, Note_on_c, 0, 83, 64
2, 229680, Note_on_c, 0, 83, 0
2, 229680, Note_on_c, 0, 79, 0
2, 229680, Note_on_c, 0, 71, 0
2, 229920, Note_on_c, 0, 74, 62
2, 229920, Note_on_c, 0, 83, 69
2, 230400, Note_on_c, 0, 83, 0
2, 230400, Note_on_c, 0, 74, 0
2, 230400, Note_on_c, 0, 85, 66
2, 230400, Note_on_c, 0, 82, 59
2, 230400, Note_on_c, 0, 76, 59
2, 230880, Note_on_c, 0, 76, 0
2, 230880, Note_on_c, 0, 82, 0
2, 230880, Note_on_c, 0, 85, 0
2, 230880, Note_on_c, 0, 86, 68
2, 230880, Note_on_c, 0, 83, 68
2, 230880, Note_on_c, 0, 74, 61
2, 231120, Note_on_c, 0, 74, 0
2, 231120, Note_on_c, 0, 83, 0
2, 231120, Note_on_c, 0, 86, 0
2, 231360, Note_on_c, 0, 86, 76
2, 231360, Note_on_c, 0, 78, 68
2, 231840, Note_on_c, 0, 78, 0
2, 231840, Note_on_c, 0, 86, 0
2, 231840, Note_on_c, 0, 88, 74
2, 231840, Note_on_c, 0, 85, 66
2, 231840, Note_on_c, 0, 79, 66
2, 232320, Note_on_c, 0, 79, 0
2, 232320, Note_on_c, 0, 85, 0
2, 232320, Note_on_c, 0, 88, 0
2, 232320, Note_on_c, 0, 90, 79
2, 232320, Note_on_c, 0, 86, 79
2, 232320, Note_on_c, 0, 78, 70
2, 232560, Note_on_c, 0, 78, 0
2, 232560, Note_on_c, 0, 86, 0
2, 232560, Note_on_c, 0, 90, 0
2, 232800, Note_on_c, 0, 78, 74
2, 232800, Note_on_c, 0, 86, 83
2, 232800, Note_on_c, 0, 90, 83
2, 233280, Note_on_c, 0, 90, 0
2, 233280, Note_on_c, 0, 86, 0
2, 233280, Note_on_c, 0, 78, 0
2, 233280, Note_on_c, 0, 78, 71
2, 233280, Note_on_c, 0, 86, 80
2, 233280, Note_on_c, 0, 90, 80
2, 233760, Note_on_c, 0, 90, 0
2, 233760, Note_on_c, 0, 86, 0
2, 233760, Note_on_c, 0, 78, 0
2, 233760, Note_on_c, 0, 90, 81
2, 233760, Note_on_c, 0, 86, 81
2, 233760, Note_on_c, 0, 78, 72
2, 234240, Note_on_c, 0, 78, 0
2, 234240, Note_on_c, 0, 86, 0
2, 234240, Note_on_c, 0, 90, 0
2, 234240, Note_on_c, 0, 88, 82
2, 234240, Note_on_c, 0, 90, 82
2, 234240, Note_on_c, 0, 78, 73
2, 234720, Note_on_c, 0, 78, 0
2, 234720, Note_on_c, 0, 90, 0
2, 234720, Note_on_c, 0, 88, 0
2, 234720, Note_on_c, 0, 78, 69
2, 234720, Note_on_c, 0, 88, 78
2, 234720, Note_on_c, 0, 90, 78
2, 235200, Note_on_c, 0, 90, 0
2, 235200, Note_on_c, 0, 88, 0
2, 235200, Note_on_c, 0, 78, 0
2, 235200, Note_on_c, 0, 78, 70
2, 235200, Note_on_c, 0, 88, 79
2, 235200, Note_on_c, 0, 90, 79
2, 235680, Note_on_c, 0, 90, 0
2, 235680, Note_on_c, 0, 88, 0
2, 235680, Note_on_c, 0, 78, 0
2, 235680, Note_on_c, 0, 78, 79
2, 235680, Note_on_c, 0, 70, 70
2, 235680, Note_on_c, 0, 76, 79
2, 236160, Note_on_c, 0, 76, 0
2, 236160, Note_on_c, 0, 70, 0
2, 236160, Note_on_c, 0, 78, 0
2, 236160, Note_on_c, 0, 70, 70
2, 236160, Note_on_c, 0, 78, 79
2, 236160, Note_on_c, 0, 76, 79
2, 236640, Note_on_c, 0, 76, 0
2, 236640, Note_on_c, 0, 78, 0
2, 236640, Note_on_c, 0, 70, 0
2, 236640, Note_on_c, 0, 70, 69
2, 236640, Note_on_c, 0, 76, 77
2, 236640, Note_on_c, 0, 78, 77
2, 237120, Note_on_c, 0, 78, 0
2, 237120, Note_on_c, 0, 76, 0
2, 237120, Note_on_c, 0, 70, 0
2, 237120, Note_on_c, 0, 58, 63
2, 237120, Note_on_c, 0, 66, 70
2, 237120, Note_on_c, 0, 64, 70
2, 237600, Note_on_c, 0, 64, 0
2, 237600, Note_on_c, 0, 66, 0
2, 237600, Note_on_c, 0, 58, 0
2, 237600, Note_on_c, 0, 58, 63
2, 237600, Note_on_c, 0, 64, 70
2, 237600, Note_on_c, 0, 66, 70
2, 238080, Note_on_c, 0, 66, 0
2, 238080, Note_on_c, 0, 64, 0
2, 238080, Note_on_c, 0, 58, 0
2, 238080, Note_on_c, 0, 58, 62
2, 238080, Note_on_c, 0, 66, 69
2, 238080, Note_on_c, 0, 64, 69
2, 238500, Note_on_c, 0, 64, 0
2, 238500, Note_on_c, 0, 66, 0
2, 238500, Note_on_c, 0, 58, 0
2, 238560, Note_on_c, 0, 66, 45
2, 238560, Note_on_c, 0, 71, 49
2, 238800, Note_on_c, 0, 71, 0
2, 238800, Note_on_c, 0, 66, 0
2, 238800, Note_on_c, 0, 65, 46
2, 239040, Note_on_c, 0, 65, 0
2, 239040, Note_on_c, 0, 66, 45
2, 239040, Note_on_c, 0, 71, 49
2, 239520, Note_on_c, 0, 71, 0
2, 239520, Note_on_c, 0, 66, 0
2, 239520, Note_on_c, 0, 64, 45
2, 239520, Note_on_c, 0, 70, 49
2, 239760, Note_on_c, 0, 70, 0
2, 239760, Note_on_c, 0, 64, 0
2, 240000, Note_on_c, 0, 62, 45
2, 240000, Note_on_c, 0, 67, 49
2, 240240, Note_on_c, 0, 67, 0
2, 240240, Note_on_c, 0, 62, 0
2, 240240, Note_on_c, 0, 61, 45
2, 240480, Note_on_c, 0, 61, 0
2, 240480, Note_on_c, 0, 62, 45
2, 240480, Note_on_c, 0, 67, 49
2, 240960, Note_on_c, 0, 67, 0
2, 240960, Note_on_c, 0, 62, 0
2, 240960, Note_on_c, 0, 61, 44
2, 240960, Note_on_c, 0, 66, 47
2, 241200, Note_on_c, 0, 66, 0
2, 241200, Note_on_c, 0, 61, 0
2, 241440, Note_on_c, 0, 60, 45
2, 241440, Note_on_c, 0, 66, 49
2, 241680, Note_on_c, 0, 66, 0
2, 241680, Note_on_c, 0, 60, 0
2, 241680, Note_on_c, 0, 59, 46
2, 241920, Note_on_c, 0, 59, 0
2, 241920, Note_on_c, 0, 60, 45
2, 241920, Note_on_c, 0, 66, 49
2, 242400, Note_on_c, 0, 66, 0
2, 242400, Note_on_c, 0, 60, 0
2, 242400, Note_on_c, 0, 59, 43
2, 242400, Note_on_c, 0, 64, 46
2, 242640, Note_on_c, 0, 64, 0
2, 242640, Note_on_c, 0, 59, 0
2, 242880, Note_on_c, 0, 58, 45
2, 242880, Note_on_c, 0, 64, 49
2, 243120, Note_on_c, 0, 64, 0
2, 243120, Note_on_c, 0, 58, 0
2, 243360, Note_on_c, 0, 58, 47
2, 243360, Note_on_c, 0, 62, 52
2, 243600, Note_on_c, 0, 62, 0
2, 243600, Note_on_c, 0, 58, 0
2, 243840, Note_on_c, 0, 58, 45
2, 243840, Note_on_c, 0, 61, 50
2, 244080, Note_on_c, 0, 61, 0
2, 244080, Note_on_c, 0, 58, 0
2, 244080, Note_on_c, 0, 59, 47
2, 244320, Note_on_c, 0, 59, 0
2, 245040, Note_on_c, 0, 62, 47
2, 245040, Note_on_c, 0, 71, 47
2, 245040, Note_on_c, 0, 74, 47
2, 245160, Note_on_c, 0, 74, 0
2, 245160, Note_on_c, 0, 71, 0
2, 245160, Note_on_c, 0, 62, 0
2, 245280, Note_on_c, 0, 64, 49
2, 245280, Note_on_c, 0, 71, 49
2, 245280, Note_on_c, 0, 74, 49
2, 245400, Note_on_c, 0, 74, 0
2, 245400, Note_on_c, 0, 71, 0
2, 245400, Note_on_c, 0, 64, 0
2, 245520, Note_on_c, 0, 65, 46
2, 245520, Note_on_c, 0, 71, 46
2, 245520, Note_on_c, 0, 74, 46
2, 245640, Note_on_c, 0, 74, 0
2, 245640, Note_on_c, 0, 71, 0
2, 245640, Note_on_c, 0, 65, 0
2, 246480, Note_on_c, 0, 56, 45
2, 246480, Note_on_c, 0, 59, 45
2, 246480, Note_on_c, 0, 66, 45
2, 246600, Note_on_c, 0, 66, 0
2, 246600, Note_on_c, 0, 59, 0
2, 246600, Note_on_c, 0, 56, 0
2, 246720, Note_on_c, 0, 58, 46
2, 246720, Note_on_c, 0, 61, 46
2, 246720, Note_on_c, 0, 64, 46
2, 246840, Note_on_c, 0, 64, 0
2, 246840, Note_on_c, 0, 61, 0
2, 246840, Note_on_c, 0, 58, 0
2, 246960, Note_on_c, 0, 59, 46
2, 246960, Note_on_c, 0, 62, 46
2, 247080, Note_on_c, 0, 62, 0
2, 247080, Note_on_c, 0, 59, 0
2, 247920, Note_on_c, 0, 62, 47
2, 247920, Note_on_c, 0, 71, 47
2, 247920, Note_on_c, 0, 74, 47
2, 248040, Note_on_c, 0, 74, 0
2, 248040, Note_on_c, 0, 71, 0
2, 248040, Note_on_c, 0, 62, 0
2, 248160, Note_on_c, 0, 64, 49
2, 248160, Note_on_c, 0, 71, 49
2, 248160, Note_on_c, 0, 74, 49
2, 248280, Note_on_c, 0, 74, 0
2, 248280, Note_on_c, 0, 71, 0
2, 248280, Note_on_c, 0, 64, 0
2, 248400, Note_on_c, 0, 65, 45
2, 248400, Note_on_c, 0, 71, 45
2, 248400, Note_on_c, 0, 74, 45
2, 248520, Note_on_c, 0, 74, 0
2, 248520, Note_on_c, 0, 71, 0
2, 248520, Note_on_c, 0, 65, 0
2, 249360, Note_on_c, 0, 56, 47
2, 249360, Note_on_c, 0, 59, 47
2, 249360, Note_on_c, 0, 66, 47
2, 249480, Note_on_c, 0, 66, 0
2, 249480, Note_on_c, 0, 59, 0
2, 249480, Note_on_c, 0, 56, 0
2, 249600, Note_on_c, 0, 58, 46
2, 249600, Note_on_c, 0, 61, 46
2, 249600, Note_on_c, 0, 64, 46
2, 249720, Note_on_c, 0, 64, 0
2, 249720, Note_on_c, 0, 61, 0
2, 249720, Note_on_c, 0, 58, 0
2, 249840, Note_on_c, 0, 59, 46
2, 249840, Note_on_c, 0, 62, 46
2, 249960, Note_on_c, 0, 62, 0
2, 249960, Note_on_c, 0, 59, 0
2, 250800, Note_on_c, 0, 57, 47
2, 250800, Note_on_c, 0, 64, 47
2, 250800, Note_on_c, 0, 69, 47
2, 250920, Note_on_c, 0, 69, 0
2, 250920, Note_on_c, 0, 64, 0
2, 250920, Note_on_c, 0, 57, 0
2, 251040, Note_on_c, 0, 57, 46
2, 251040, Note_on_c, 0, 64, 46
2, 251040, Note_on_c, 0, 67, 46
2, 251160, Note_on_c, 0, 67, 0
2, 251160, Note_on_c, 0, 64, 0
2, 251160, Note_on_c, 0, 57, 0
2, 251280, Note_on_c, 0, 57, 47
2, 251280, Note_on_c, 0, 62, 47
2, 251280, Note_on_c, 0, 66, 47
2, 251400, Note_on_c, 0, 66, 0
2, 251400, Note_on_c, 0, 62, 0
2, 251400, Note_on_c, 0, 57, 0
2, 252240, Note_on_c, 0, 61, 55
2, 252240, Note_on_c, 0, 68, 55
2, 252240, Note_on_c, 0, 73, 55
2, 252360, Note_on_c, 0, 73, 0
2, 252360, Note_on_c, 0, 68, 0
2, 252360, Note_on_c, 0, 61, 0
2, 252480, Note_on_c, 0, 61, 55
2, 252480, Note_on_c, 0, 68, 55
2, 252480, Note_on_c, 0, 71, 55
2, 252600, Note_on_c, 0, 71, 0
2, 252600, Note_on_c, 0, 68, 0
2, 252600, Note_on_c, 0, 61, 0
2, 252720, Note_on_c, 0, 61, 55
2, 252720, Note_on_c, 0, 66, 55
2, 252720, Note_on_c, 0, 70, 55
2, 252840, Note_on_c, 0, 70, 0
2, 252840, Note_on_c, 0, 66, 0
2, 252840, Note_on_c, 0, 61, 0
2, 252960, Note_on_c, 0, 73, 66
2, 252960, Note_on_c, 0, 78, 66
2, 253200, Note_on_c, 0, 78, 0
2, 253200, Note_on_c, 0, 76, 66
2, 253440, Note_on_c, 0, 76, 0
2, 253440, Note_on_c, 0, 73, 0
2, 253440, Note_on_c, 0, 71, 64
2, 253440, Note_on_c, 0, 74, 64
2, 253680, Note_on_c, 0, 74, 0
2, 253680, Note_on_c, 0, 71, 0
2, 253680, Note_on_c, 0, 73, 72
2, 253680, Note_on_c, 0, 78, 72
2, 253920, Note_on_c, 0, 78, 0
2, 253920, Note_on_c, 0, 76, 69
2, 254160, Note_on_c, 0, 76, 0
2, 254160, Note_on_c, 0, 73, 0
2, 254160, Note_on_c, 0, 71, 70
2, 254160, Note_on_c, 0, 74, 70
2, 254400, Note_on_c, 0, 74, 0
2, 254400, Note_on_c, 0, 71, 0
2, 254400, Note_on_c, 0, 73, 77
2, 254400, Note_on_c, 0, 78, 77
2, 254640, Note_on_c, 0, 78, 0
2, 254640, Note_on_c, 0, 76, 78
2, 254880, Note_on_c, 0, 76, 0
2, 254880, Note_on_c, 0, 73, 0
2, 254880, Note_on_c, 0, 71, 80
2, 254880, Note_on_c, 0, 74, 80
2, 255120, Note_on_c, 0, 74, 0
2, 255120, Note_on_c, 0, 71, 0
2, 255120, Note_on_c, 0, 78, 82
2, 255120, Note_on_c, 0, 73, 82
2, 255240, Note_on_c, 0, 73, 0
2, 255240, Note_on_c, 0, 78, 0
2, 255360, Note_on_c, 0, 71, 78
2, 255360, Note_on_c, 0, 74, 78
2, 255480, Note_on_c, 0, 74, 0
2, 255480, Note_on_c, 0, 71, 0
2, 255600, Note_on_c, 0, 67, 74
2, 255600, Note_on_c, 0, 71, 74
2, 255600, Note_on_c, 0, 76, 88
2, 255600, Note_on_c, 0, 79, 88
2, 256320, Note_on_c, 0, 79, 0
2, 256320, Note_on_c, 0, 67, 0
2, 256320, Note_on_c, 0, 71, 0
2, 256320, Note_on_c, 0, 76, 0
2, 256800, Note_on_c, 0, 64, 64
2, 256920, Note_on_c, 0, 64, 0
2, 256920, Note_on_c, 0, 67, 63
2, 257040, Note_on_c, 0, 67, 0
2, 257040, Note_on_c, 0, 76, 61
2, 257160, Note_on_c, 0, 76, 0
2, 257160, Note_on_c, 0, 73, 60
2, 257280, Note_on_c, 0, 73, 0
2, 257280, Note_on_c, 0, 71, 59
2, 257400, Note_on_c, 0, 71, 0
2, 257400, Note_on_c, 0, 67, 58
2, 257520, Note_on_c, 0, 67, 0
2, 257520, Note_on_c, 0, 64, 56
2, 257640, Note_on_c, 0, 64, 0
2, 258120, Note_on_c, 0, 49, 58
2, 258240, Note_on_c, 0, 49, 0
2, 258240, Note_on_c, 0, 47, 58
2, 258360, Note_on_c, 0, 47, 0
2, 258360, Note_on_c, 0, 43, 58
2, 258480, Note_on_c, 0, 43, 0
2, 258960, Note_on_c, 0, 55, 56
2, 258960, Note_on_c, 0, 59, 56
2, 258960, Note_on_c, 0, 64, 56
2, 259080, Note_on_c, 0, 64, 0
2, 259080, Note_on_c, 0, 59, 0
2, 259080, Note_on_c, 0, 55, 0
2, 259680, Note_on_c, 0, 67, 63
2, 259800, Note_on_c, 0, 67, 0
2, 259800, Note_on_c, 0, 71, 63
2, 259920, Note_on_c, 0, 71, 0
2, 259920, Note_on_c, 0, 79, 61
2, 260040, Note_on_c, 0, 79, 0
2, 260040, Note_on_c, 0, 76, 60
2, 260160, Note_on_c, 0, 76, 0
2, 260160, Note_on_c, 0, 73, 59
2, 260280, Note_on_c, 0, 73, 0
2, 260280, Note_on_c, 0, 71, 58
2, 260400, Note_on_c, 0, 71, 0
2, 260400, Note_on_c, 0, 67, 57
2, 260520, Note_on_c, 0, 67, 0
2, 261000, Note_on_c, 0, 52, 58
2, 261120, Note_on_c, 0, 52, 0
2, 261120, Note_on_c, 0, 49, 58
2, 261240, Note_on_c, 0, 49, 0
2, 261240, Note_on_c, 0, 47, 58
2, 261360, Note_on_c, 0, 47, 0
2, 261840, Note_on_c, 0, 71, 62
2, 261840, Note_on_c, 0, 59, 62
2, 261840, Note_on_c, 0, 64, 62
2, 261840, Note_on_c, 0, 67, 62
2, 261960, Note_on_c, 0, 67, 0
2, 261960, Note_on_c, 0, 71, 0
2, 261960, Note_on_c, 0, 59, 0
2, 261960, Note_on_c, 0, 64, 0
2, 262560, Note_on_c, 0, 59, 71
2, 262680, Note_on_c, 0, 59, 0
2, 262680, Note_on_c, 0, 62, 73
2, 262800, Note_on_c, 0, 62, 0
2, 262800, Note_on_c, 0, 66, 75
2, 262920, Note_on_c, 0, 66, 0
2, 262920, Note_on_c, 0, 71, 78
2, 263040, Note_on_c, 0, 71, 0
2, 263040, Note_on_c, 0, 62, 79
2, 263040, Note_on_c, 0, 74, 79
2, 263160, Note_on_c, 0, 74, 0
2, 263160, Note_on_c, 0, 62, 0
2, 263160, Note_on_c, 0, 66, 81
2, 263160, Note_on_c, 0, 78, 81
2, 263280, Note_on_c, 0, 78, 0
2, 263280, Note_on_c, 0, 66, 0
2, 263280, Note_on_c, 0, 71, 84
2, 263280, Note_on_c, 0, 83, 84
2, 263400, Note_on_c, 0, 83, 0
2, 263400, Note_on_c, 0, 71, 0
2, 263400, Note_on_c, 0, 74, 86
2, 263400, Note_on_c, 0, 86, 86
2, 263520, Note_on_c, 0, 86, 0
2, 263520, Note_on_c, 0, 74, 0
2, 263520, Note_on_c, 0, 90, 90
2, 263520, Note_on_c, 0, 78, 81
2, 263760, Note_on_c, 0, 78, 0
2, 263760, Note_on_c, 0, 90, 0
2, 263760, Note_on_c, 0, 64, 72
2, 263760, Note_on_c, 0, 76, 80
2, 263760, Note_on_c, 0, 79, 85
2, 263760, Note_on_c, 0, 91, 95
2, 263880, Note_on_c, 0, 91, 0
2, 263880, Note_on_c, 0, 64, 0
2, 263880, Note_on_c, 0, 76, 0
2, 263880, Note_on_c, 0, 79, 0
2, 264000, Note_on_c, 0, 61, 68
2, 264000, Note_on_c, 0, 73, 76
2, 264000, Note_on_c, 0, 76, 81
2, 264000, Note_on_c, 0, 88, 90
2, 264120, Note_on_c, 0, 88, 0
2, 264120, Note_on_c, 0, 61, 0
2, 264120, Note_on_c, 0, 73, 0
2, 264120, Note_on_c, 0, 76, 0
2, 264240, Note_on_c, 0, 62, 72
2, 264240, Note_on_c, 0, 74, 80
2, 264240, Note_on_c, 0, 90, 95
2, 264240, Note_on_c, 0, 78, 85
2, 264360, Note_on_c, 0, 78, 0
2, 264360, Note_on_c, 0, 62, 0
2, 264360, Note_on_c, 0, 74, 0
2, 264360, Note_on_c, 0, 90, 0
2, 264480, Note_on_c, 0, 59, 68
2, 264480, Note_on_c, 0, 71, 76
2, 264480, Note_on_c, 0, 74, 81
2, 264480, Note_on_c, 0, 86, 90
2, 264600, Note_on_c, 0, 86, 0
2, 264600, Note_on_c, 0, 59, 0
2, 264600, Note_on_c, 0, 71, 0
2, 264600, Note_on_c, 0, 74, 0
2, 264720, Note_on_c, 0, 61, 80
2, 264720, Note_on_c, 0, 73, 80
2, 264720, Note_on_c, 0, 88, 95
2, 264720, Note_on_c, 0, 76, 85
2, 264840, Note_on_c, 0, 76, 0
2, 264840, Note_on_c, 0, 61, 0
2, 264840, Note_on_c, 0, 73, 0
2, 264840, Note_on_c, 0, 88, 0
2, 264960, Note_on_c, 0, 58, 68
2, 264960, Note_on_c, 0, 70, 76
2, 264960, Note_on_c, 0, 73, 81
2, 264960, Note_on_c, 0, 85, 90
2, 265080, Note_on_c, 0, 85, 0
2, 265080, Note_on_c, 0, 58, 0
2, 265080, Note_on_c, 0, 70, 0
2, 265080, Note_on_c, 0, 73, 0
2, 265200, Note_on_c, 0, 59, 71
2, 265200, Note_on_c, 0, 71, 79
2, 265200, Note_on_c, 0, 86, 94
2, 265200, Note_on_c, 0, 74, 84
2, 265320, Note_on_c, 0, 74, 0
2, 265320, Note_on_c, 0, 59, 0
2, 265320, Note_on_c, 0, 71, 0
2, 265320, Note_on_c, 0, 86, 0
2, 265440, Note_on_c, 0, 54, 65
2, 265440, Note_on_c, 0, 66, 73
2, 265440, Note_on_c, 0, 70, 77
2, 265440, Note_on_c, 0, 82, 86
2, 265560, Note_on_c, 0, 82, 0
2, 265560, Note_on_c, 0, 54, 0
2, 265560, Note_on_c, 0, 66, 0
2, 265560, Note_on_c, 0, 70, 0
2, 265680, Note_on_c, 0, 71, 82
2, 265680, Note_on_c, 0, 83, 92
2, 265800, Note_on_c, 0, 83, 0
2, 265800, Note_on_c, 0, 71, 0
2, 265920, Note_on_c, 0, 78, 85
2, 265920, Note_on_c, 0, 66, 76
2, 266040, Note_on_c, 0, 66, 0
2, 266040, Note_on_c, 0, 78, 0
2, 266160, Note_on_c, 0, 67, 81
2, 266160, Note_on_c, 0, 79, 90
2, 266280, Note_on_c, 0, 79, 0
2, 266280, Note_on_c, 0, 67, 0
2, 266400, Note_on_c, 0, 64, 75
2, 266400, Note_on_c, 0, 76, 84
2, 266520, Note_on_c, 0, 76, 0
2, 266520, Note_on_c, 0, 64, 0
2, 266640, Note_on_c, 0, 66, 81
2, 266640, Note_on_c, 0, 78, 91
2, 266760, Note_on_c, 0, 78, 0
2, 266760, Note_on_c, 0, 66, 0
2, 266880, Note_on_c, 0, 62, 74
2, 266880, Note_on_c, 0, 74, 83
2, 267000, Note_on_c, 0, 74, 0
2, 267000, Note_on_c, 0, 62, 0
2, 267120, Note_on_c, 0, 64, 81
2, 267120, Note_on_c, 0, 76, 90
2, 267240, Note_on_c, 0, 76, 0
2, 267240, Note_on_c, 0, 64, 0
2, 267360, Note_on_c, 0, 61, 73
2, 267360, Note_on_c, 0, 73, 82
2, 267480, Note_on_c, 0, 73, 0
2, 267480, Note_on_c, 0, 61, 0
2, 267600, Note_on_c, 0, 62, 81
2, 267600, Note_on_c, 0, 74, 90
2, 267720, Note_on_c, 0, 74, 0
2, 267720, Note_on_c, 0, 62, 0
2, 267840, Note_on_c, 0, 58, 75
2, 267840, Note_on_c, 0, 70, 84
2, 267960, Note_on_c, 0, 70, 0
2, 267960, Note_on_c, 0, 58, 0
2, 268080, Note_on_c, 0, 59, 81
2, 268080, Note_on_c, 0, 71, 91
2, 268200, Note_on_c, 0, 71, 0
2, 268200, Note_on_c, 0, 59, 0
2, 268320, Note_on_c, 0, 54, 73
2, 268320, Note_on_c, 0, 66, 82
2, 268440, Note_on_c, 0, 66, 0
2, 268440, Note_on_c, 0, 54, 0
2, 268560, Note_on_c, 0, 55, 80
2, 268560, Note_on_c, 0, 67, 89
2, 269040, Note_on_c, 0, 67, 0
2, 269040, Note_on_c, 0, 55, 0
2, 269040, Note_on_c, 0, 61, 72
2, 269040, Note_on_c, 0, 64, 72
2, 269040, Note_on_c, 0, 70, 80
2, 269280, Note_on_c, 0, 70, 0
2, 269280, Note_on_c, 0, 64, 0
2, 269280, Note_on_c, 0, 61, 0
2, 269280, Note_on_c, 0, 62, 77
2, 269280, Note_on_c, 0, 66, 77
2, 269280, Note_on_c, 0, 71, 86
2, 269520, Note_on_c, 0, 71, 0
2, 269520, Note_on_c, 0, 66, 0
2, 269520, Note_on_c, 0, 62, 0
2, 270240, Note_on_c, 0, 61, 56
2, 270240, Note_on_c, 0, 73, 56
2, 270240, Note_on_c, 0, 74, 56
2, 270360, Note_on_c, 0, 74, 0
2, 270360, Note_on_c, 0, 73, 0
2, 270360, Note_on_c, 0, 61, 0
2, 270480, Note_on_c, 0, 62, 53
2, 270480, Note_on_c, 0, 73, 53
2, 270480, Note_on_c, 0, 74, 53
2, 270600, Note_on_c, 0, 74, 0
2, 270600, Note_on_c, 0, 73, 0
2, 270600, Note_on_c, 0, 62, 0
2, 270720, Note_on_c, 0, 64, 52
2, 270720, Note_on_c, 0, 73, 52
2, 270720, Note_on_c, 0, 74, 52
2, 270840, Note_on_c, 0, 74, 0
2, 270840, Note_on_c, 0, 73, 0
2, 270840, Note_on_c, 0, 64, 0
2, 271680, Note_on_c, 0, 56, 53
2, 271680, Note_on_c, 0, 59, 53
2, 271680, Note_on_c, 0, 66, 53
2, 271800, Note_on_c, 0, 66, 0
2, 271800, Note_on_c, 0, 59, 0
2, 271800, Note_on_c, 0, 56, 0
2, 271920, Note_on_c, 0, 58, 52
2, 271920, Note_on_c, 0, 61, 52
2, 271920, Note_on_c, 0, 66, 52
2, 272040, Note_on_c, 0, 66, 0
2, 272040, Note_on_c, 0, 61, 0
2, 272040, Note_on_c, 0, 58, 0
2, 272160, Note_on_c, 0, 66, 52
2, 272160, Note_on_c, 0, 59, 52
2, 272160, Note_on_c, 0, 62, 52
2, 272280, Note_on_c, 0, 62, 0
2, 272280, Note_on_c, 0, 59, 0
2, 272280, Note_on_c, 0, 66, 0
2, 273120, Note_on_c, 0, 61, 54
2, 273120, Note_on_c, 0, 73, 54
2, 273120, Note_on_c, 0, 74, 54
2, 273240, Note_on_c, 0, 74, 0
2, 273240, Note_on_c, 0, 73, 0
2, 273240, Note_on_c, 0, 61, 0
2, 273360, Note_on_c, 0, 62, 55
2, 273360, Note_on_c, 0, 73, 55
2, 273360, Note_on_c, 0, 74, 55
2, 273480, Note_on_c, 0, 74, 0
2, 273480, Note_on_c, 0, 73, 0
2, 273480, Note_on_c, 0, 62, 0
2, 273600, Note_on_c, 0, 64, 51
2, 273600, Note_on_c, 0, 73, 51
2, 273600, Note_on_c, 0, 74, 51
2, 273720, Note_on_c, 0, 74, 0
2, 273720, Note_on_c, 0, 73, 0
2, 273720, Note_on_c, 0, 64, 0
2, 274560, Note_on_c, 0, 56, 55
2, 274560, Note_on_c, 0, 59, 55
2, 274560, Note_on_c, 0, 66, 55
2, 274680, Note_on_c, 0, 66, 0
2, 274680, Note_on_c, 0, 59, 0
2, 274680, Note_on_c, 0, 56, 0
2, 274800, Note_on_c, 0, 58, 55
2, 274800, Note_on_c, 0, 61, 55
2, 274800, Note_on_c, 0, 66, 55
2, 274920, Note_on_c, 0, 66, 0
2, 274920, Note_on_c, 0, 61, 0
2, 274920, Note_on_c, 0, 58, 0
2, 275040, Note_on_c, 0, 59, 52
2, 275040, Note_on_c, 0, 62, 52
2, 275040, Note_on_c, 0, 66, 52
2, 275160, Note_on_c, 0, 66, 0
2, 275160, Note_on_c, 0, 62, 0
2, 275160, Note_on_c, 0, 59, 0
2, 275280, Note_on_c, 0, 62, 60
2, 275280, Note_on_c, 0, 66, 60
2, 275280, Note_on_c, 0, 71, 66
2, 275400, Note_on_c, 0, 71, 0
2, 275400, Note_on_c, 0, 66, 0
2, 275400, Note_on_c, 0, 62, 0
2, 275520, Note_on_c, 0, 62, 57
2, 275520, Note_on_c, 0, 66, 57
2, 275520, Note_on_c, 0, 70, 62
2, 275640, Note_on_c, 0, 70, 0
2, 275640, Note_on_c, 0, 66, 0
2, 275640, Note_on_c, 0, 62, 0
2, 275760, Note_on_c, 0, 62, 60
2, 275760, Note_on_c, 0, 66, 60
2, 275760, Note_on_c, 0, 71, 66
2, 275880, Note_on_c, 0, 71, 0
2, 275880, Note_on_c, 0, 66, 0
2, 275880, Note_on_c, 0, 62, 0
2, 276000, Note_on_c, 0, 66, 61
2, 276000, Note_on_c, 0, 71, 61
2, 276000, Note_on_c, 0, 74, 67
2, 276120, Note_on_c, 0, 74, 0
2, 276120, Note_on_c, 0, 71, 0
2, 276120, Note_on_c, 0, 66, 0
2, 276240, Note_on_c, 0, 66, 58
2, 276240, Note_on_c, 0, 71, 58
2, 276240, Note_on_c, 0, 73, 63
2, 276360, Note_on_c, 0, 73, 0
2, 276360, Note_on_c, 0, 71, 0
2, 276360, Note_on_c, 0, 66, 0
2, 276480, Note_on_c, 0, 66, 63
2, 276480, Note_on_c, 0, 71, 63
2, 276480, Note_on_c, 0, 74, 69
2, 276600, Note_on_c, 0, 74, 0
2, 276600, Note_on_c, 0, 71, 0
2, 276600, Note_on_c, 0, 66, 0
2, 276720, Note_on_c, 0, 71, 63
2, 276720, Note_on_c, 0, 74, 63
2, 276720, Note_on_c, 0, 78, 69
2, 276840, Note_on_c, 0, 78, 0
2, 276840, Note_on_c, 0, 74, 0
2, 276840, Note_on_c, 0, 71, 0
2, 276960, Note_on_c, 0, 71, 61
2, 276960, Note_on_c, 0, 74, 61
2, 276960, Note_on_c, 0, 77, 67
2, 277080, Note_on_c, 0, 77, 0
2, 277080, Note_on_c, 0, 74, 0
2, 277080, Note_on_c, 0, 71, 0
2, 277200, Note_on_c, 0, 71, 66
2, 277200, Note_on_c, 0, 74, 66
2, 277200, Note_on_c, 0, 78, 72
2, 277320, Note_on_c, 0, 78, 0
2, 277320, Note_on_c, 0, 74, 0
2, 277320, Note_on_c, 0, 71, 0
2, 277440, Note_on_c, 0, 74, 67
2, 277440, Note_on_c, 0, 78, 67
2, 277440, Note_on_c, 0, 83, 73
2, 277560, Note_on_c, 0, 83, 0
2, 277560, Note_on_c, 0, 78, 0
2, 277560, Note_on_c, 0, 74, 0
2, 277680, Note_on_c, 0, 74, 63
2, 277680, Note_on_c, 0, 78, 63
2, 277680, Note_on_c, 0, 82, 69
2, 277800, Note_on_c, 0, 82, 0
2, 277800, Note_on_c, 0, 78, 0
2, 277800, Note_on_c, 0, 74, 0
2, 277920, Note_on_c, 0, 74, 68
2, 277920, Note_on_c, 0, 78, 68
2, 277920, Note_on_c, 0, 83, 74
2, 278040, Note_on_c, 0, 83, 0
2, 278040, Note_on_c, 0, 78, 0
2, 278040, Note_on_c, 0, 74, 0
2, 278160, Note_on_c, 0, 78, 69
2, 278160, Note_on_c, 0, 83, 69
2, 278160, Note_on_c, 0, 86, 75
2, 278280, Note_on_c, 0, 86, 0
2, 278280, Note_on_c, 0, 83, 0
2, 278280, Note_on_c, 0, 78, 0
2, 278400, Note_on_c, 0, 78, 63
2, 278400, Note_on_c, 0, 83, 63
2, 278400, Note_on_c, 0, 85, 69
2, 278520, Note_on_c, 0, 85, 0
2, 278520, Note_on_c, 0, 83, 0
2, 278520, Note_on_c, 0, 78, 0
2, 278640, Note_on_c, 0, 78, 70
2, 278640, Note_on_c, 0, 83, 70
2, 278640, Note_on_c, 0, 86, 77
2, 278760, Note_on_c, 0, 86, 0
2, 278760, Note_on_c, 0, 83, 0
2, 278760, Note_on_c, 0, 78, 0
2, 278880, Note_on_c, 0, 83, 71
2, 278880, Note_on_c, 0, 86, 71
2, 278880, Note_on_c, 0, 90, 78
2, 279000, Note_on_c, 0, 90, 0
2, 279000, Note_on_c, 0, 86, 0
2, 279000, Note_on_c, 0, 83, 0
2, 279120, Note_on_c, 0, 83, 66
2, 279120, Note_on_c, 0, 86, 66
2, 279120, Note_on_c, 0, 89, 72
2, 279240, Note_on_c, 0, 89, 0
2, 279240, Note_on_c, 0, 86, 0
2, 279240, Note_on_c, 0, 83, 0
2, 279360, Note_on_c, 0, 83, 73
2, 279360, Note_on_c, 0, 86, 73
2, 279360, Note_on_c, 0, 90, 80
2, 279480, Note_on_c, 0, 90, 0
2, 279480, Note_on_c, 0, 86, 0
2, 279480, Note_on_c, 0, 83, 0
2, 279600, Note_on_c, 0, 86, 73
2, 279600, Note_on_c, 0, 90, 73
2, 279600, Note_on_c, 0, 95, 80
2, 279720, Note_on_c, 0, 95, 0
2, 279720, Note_on_c, 0, 90, 0
2, 279720, Note_on_c, 0, 86, 0
2, 279840, Note_on_c, 0, 86, 70
2, 279840, Note_on_c, 0, 90, 70
2, 279840, Note_on_c, 0, 94, 76
2, 279960, Note_on_c, 0, 94, 0
2, 279960, Note_on_c, 0, 90, 0
2, 279960, Note_on_c, 0, 86, 0
2, 280080, Note_on_c, 0, 86, 78
2, 280080, Note_on_c, 0, 90, 78
2, 280080, Note_on_c, 0, 95, 86
2, 280200, Note_on_c, 0, 95, 0
2, 280200, Note_on_c, 0, 90, 0
2, 280200, Note_on_c, 0, 86, 0
2, 280320, Note_on_c, 0, 86, 82
2, 280320, Note_on_c, 0, 90, 82
2, 280320, Note_on_c, 0, 95, 90
2, 280440, Note_on_c, 0, 95, 0
2, 280440, Note_on_c, 0, 90, 0
2, 280440, Note_on_c, 0, 86, 0
2, 280560, Note_on_c, 0, 86, 77
2, 280560, Note_on_c, 0, 90, 77
2, 280560, Note_on_c, 0, 94, 85
2, 280680, Note_on_c, 0, 94, 0
2, 280680, Note_on_c, 0, 90, 0
2, 280680, Note_on_c, 0, 86, 0
2, 280800, Note_on_c, 0, 86, 85
2, 280800, Note_on_c, 0, 90, 85
2, 280800, Note_on_c, 0, 95, 93
2, 280920, Note_on_c, 0, 95, 0
2, 280920, Note_on_c, 0, 90, 0
2, 280920, Note_on_c, 0, 86, 0
2, 281520, Note_on_c, 0, 74, 81
2, 281520, Note_on_c, 0, 78, 81
2, 281520, Note_on_c, 0, 83, 89
2, 281640, Note_on_c, 0, 83, 0
2, 281640, Note_on_c, 0, 78, 0
2, 281640, Note_on_c, 0, 74, 0
2, 282240, Note_on_c, 0, 62, 81
2, 282240, Note_on_c, 0, 66, 81
2, 282240, Note_on_c, 0, 71, 89
2, 282360, Note_on_c, 0, 71, 0
2, 282360, Note_on_c, 0, 66, 0
2, 282360, Note_on_c, 0, 62, 0
2, 283680, Note_on_c, 0, 62, 81
2, 283680, Note_on_c, 0, 66, 81
2, 283680, Note_on_c, 0, 71, 89
2, 283800, Note_on_c, 0, 71, 0
2, 283800, Note_on_c, 0, 66, 0
2, 283800, Note_on_c, 0, 62, 0
2, 284400, Note_on_c, 0, 71, 80
2, 284400, Note_on_c, 0, 74, 80
2, 284400, Note_on_c, 0, 78, 89
2, 284400, Note_on_c, 0, 83, 89
2, 284520, Note_on_c, 0, 83, 0
2, 284520, Note_on_c, 0, 71, 0
2, 284520, Note_on_c, 0, 74, 0
2, 284520, Note_on_c, 0, 78, 0
2, 285120, Note_on_c, 0, 59, 94
2, 286560, Note_on_c, 0, 59, 0
2, 286560, End_track
3, 0, Start_track
3, 0, Title_t, "Piano left"
3, 0, Program_c, 0, 0
3, 0, Control_c, 0, 7, 100
3, 0, Control_c, 0, 10, 64
3, 0, Control_c, 0, 64, 0
3, 960, Note_on_c, 0, 62, 45
3, 960, Control_c, 0, 64, 127
3, 1200, Note_on_c, 0, 62, 0
3, 1200, Note_on_c, 0, 61, 43
3, 1440, Note_on_c, 0, 61, 0
3, 1440, Note_on_c, 0, 62, 45
3, 1460, Control_c, 0, 64, 0
3, 1517, Control_c, 0, 64, 127
3, 1680, Note_on_c, 0, 47, 38
3, 1920, Note_on_c, 0, 47, 0
3, 1920, Note_on_c, 0, 62, 0
3, 1920, Note_on_c, 0, 61, 43
3, 1935, Control_c, 0, 64, 0
3, 2160, Note_on_c, 0, 61, 0
3, 2160, Note_on_c, 0, 47, 37
3, 2400, Note_on_c, 0, 47, 0
3, 2400, Note_on_c, 0, 59, 44
3, 2503, Control_c, 0, 64, 127
3, 2640, Note_on_c, 0, 59, 0
3, 2640, Note_on_c, 0, 58, 42
3, 2880, Note_on_c, 0, 58, 0
3, 2880, Note_on_c, 0, 59, 45
3, 2896, Control_c, 0, 64, 0
3, 2971, Control_c, 0, 64, 127
3, 3120, Note_on_c, 0, 47, 39
3, 3360, Note_on_c, 0, 47, 0
3, 3360, Note_on_c, 0, 59, 0
3, 3360, Note_on_c, 0, 58, 44
3, 3371, Control_c, 0, 64, 0
3, 3600, Note_on_c, 0, 58, 0
3, 3600, Note_on_c, 0, 47, 38
3, 3840, Note_on_c, 0, 47, 0
3, 3840, Note_on_c, 0, 57, 44
3, 3920, Control_c, 0, 64, 127
3, 4080, Note_on_c, 0, 57, 0
3, 4080, Note_on_c, 0, 56, 41
3, 4320, Note_on_c, 0, 56, 0
3, 4320, Note_on_c, 0, 57, 45
3, 4330, Control_c, 0, 64, 0
3, 4434, Control_c, 0, 64, 127
3, 4560, Note_on_c, 0, 47, 38
3, 4800, Note_on_c, 0, 47, 0
3, 4800, Note_on_c, 0, 57, 0
3, 4800, Note_on_c, 0, 56, 44
3, 4811, Control_c, 0, 64, 0
3, 5040, Note_on_c, 0, 56, 0
3, 5040, Note_on_c, 0, 47, 35
3, 5280, Note_on_c, 0, 47, 0
3, 5280, Note_on_c, 0, 55, 45
3, 5303, Control_c, 0, 64, 127
3, 5520, Note_on_c, 0, 55, 0
3, 5520, Note_on_c, 0, 47, 43
3, 5760, Note_on_c, 0, 47, 0
3, 5760, Note_on_c, 0, 54, 49
3, 5770, Control_c, 0, 64, 0
3, 5874, Control_c, 0, 64, 127
3, 6000, Note_on_c, 0, 54, 0
3, 6000, Note_on_c, 0, 47, 50
3, 6240, Note_on_c, 0, 47, 0
3, 6240, Note_on_c, 0, 52, 47
3, 6257, Control_c, 0, 64, 0
3, 6480, Note_on_c, 0, 52, 0
3, 6480, Note_on_c, 0, 47, 44
3, 6480, Note_on_c, 0, 50, 44
3, 6720, Note_on_c, 0, 50, 0
3, 6720, Note_on_c, 0, 47, 0
3, 6720, Note_on_c, 0, 53, 52
3, 6840, Note_on_c, 0, 53, 0
3, 6960, Note_on_c, 0, 54, 54
3, 7080, Note_on_c, 0, 54, 0
3, 7200, Note_on_c, 0, 55, 59
3, 7269, Control_c, 0, 64, 127
3, 7920, Note_on_c, 0, 55, 0
3, 7920, Note_on_c, 0, 43, 49
3, 7937, Control_c, 0, 64, 0
3, 8160, Note_on_c, 0, 43, 0
3, 8160, Note_on_c, 0, 45, 51
3, 8280, Note_on_c, 0, 45, 0
3, 8400, Note_on_c, 0, 43, 49
3, 8520, Note_on_c, 0, 43, 0
3, 8640, Note_on_c, 0, 42, 51
3, 8714, Control_c, 0, 64, 127
3, 9360, Note_on_c, 0, 42, 0
3, 9360, Note_on_c, 0, 47, 48
3, 9376, Control_c, 0, 64, 0
3, 9600, Note_on_c, 0, 47, 0
3, 9600, Note_on_c, 0, 53, 51
3, 9720, Note_on_c, 0, 53, 0
3, 9840, Note_on_c, 0, 54, 54
3, 9960, Note_on_c, 0, 54, 0
3, 10080, Note_on_c, 0, 55, 58
3, 10166, Control_c, 0, 64, 127
3, 10800, Note_on_c, 0, 55, 0
3, 10800, Note_on_c, 0, 43, 49
3, 10809, Control_c, 0, 64, 0
3, 11040, Note_on_c, 0, 43, 0
3, 11040, Note_on_c, 0, 45, 51
3, 11160, Note_on_c, 0, 45, 0
3, 11280, Note_on_c, 0, 43, 49
3, 11400, Note_on_c, 0, 43, 0
3, 11520, Note_on_c, 0, 42, 49
3, 11617, Control_c, 0, 64, 127
3, 12240, Note_on_c, 0, 42, 0
3, 12240, Note_on_c, 0, 47, 49
3, 12251, Control_c, 0, 64, 0
3, 12360, Note_on_c, 0, 47, 0
3, 12480, Note_on_c, 0, 62, 45
3, 12606, Control_c, 0, 64, 127
3, 12720, Note_on_c, 0, 62, 0
3, 12720, Note_on_c, 0, 61, 43
3, 12960, Note_on_c, 0, 61, 0
3, 12960, Note_on_c, 0, 62, 45
3, 12975, Control_c, 0, 64, 0
3, 13044, Control_c, 0, 64, 127
3, 13200, Note_on_c, 0, 47, 41
3, 13440, Note_on_c, 0, 47, 0
3, 13440, Note_on_c, 0, 62, 0
3, 13440, Note_on_c, 0, 61, 43
3, 13445, Control_c, 0, 64, 0
3, 13680, Note_on_c, 0, 61, 0
3, 13680, Note_on_c, 0, 47, 37
3, 13920, Note_on_c, 0, 47, 0
3, 13920, Note_on_c, 0, 59, 44
3, 14023, Control_c, 0, 64, 127
3, 14160, Note_on_c, 0, 59, 0
3, 14160, Note_on_c, 0, 58, 42
3, 14400, Note_on_c, 0, 58, 0
3, 14400, Note_on_c, 0, 59, 45
3, 14417, Control_c, 0, 64, 0
3, 14491, Control_c, 0, 64, 127
3, 14640, Note_on_c, 0, 47, 40
3, 14880, Note_on_c, 0, 47, 0
3, 14880, Note_on_c, 0, 59, 0
3, 14880, Note_on_c, 0, 58, 44
3, 14894, Control_c, 0, 64, 0
3, 15120, Note_on_c, 0, 58, 0
3, 15120, Note_on_c, 0, 47, 36
3, 15360, Note_on_c, 0, 47, 0
3, 15360, Note_on_c, 0, 57, 44
3, 15440, Control_c, 0, 64, 127
3, 15600, Note_on_c, 0, 57, 0
3, 15600, Note_on_c, 0, 56, 41
3, 15840, Note_on_c, 0, 56, 0
3, 15840, Note_on_c, 0, 57, 45
3, 15852, Control_c, 0, 64, 0
3, 15954, Control_c, 0, 64, 127
3, 16080, Note_on_c, 0, 47, 42
3, 16320, Note_on_c, 0, 47, 0
3, 16320, Note_on_c, 0, 57, 0
3, 16320, Note_on_c, 0, 56, 44
3, 16334, Control_c, 0, 64, 0
3, 16560, Note_on_c, 0, 56, 0
3, 16560, Note_on_c, 0, 47, 38
3, 16800, Note_on_c, 0, 47, 0
3, 16800, Note_on_c, 0, 55, 45
3, 16823, Control_c, 0, 64, 127
3, 17040, Note_on_c, 0, 55, 0
3, 17040, Note_on_c, 0, 47, 43
3, 17280, Note_on_c, 0, 47, 0
3, 17280, Note_on_c, 0, 54, 49
3, 17294, Control_c, 0, 64, 0
3, 17394, Control_c, 0, 64, 127
3, 17520, Note_on_c, 0, 54, 0
3, 17520, Note_on_c, 0, 47, 50
3, 17760, Note_on_c, 0, 47, 0
3, 17760, Note_on_c, 0, 52, 47
3, 18000, Note_on_c, 0, 52, 0
3, 18000, Note_on_c, 0, 50, 44
3, 18000, Note_on_c, 0, 47, 44
3, 18004, Control_c, 0, 64, 0
3, 18240, Note_on_c, 0, 47, 0
3, 18240, Note_on_c, 0, 50, 0
3, 18240, Note_on_c, 0, 53, 52
3, 18360, Note_on_c, 0, 53, 0
3, 18480, Note_on_c, 0, 54, 54
3, 18600, Note_on_c, 0, 54, 0
3, 18720, Note_on_c, 0, 55, 59
3, 18817, Control_c, 0, 64, 127
3, 19440, Note_on_c, 0, 55, 0
3, 19440, Note_on_c, 0, 43, 49
3, 19456, Control_c, 0, 64, 0
3, 19680, Note_on_c, 0, 43, 0
3, 19680, Note_on_c, 0, 45, 51
3, 19800, Note_on_c, 0, 45, 0
3, 19920, Note_on_c, 0, 43, 49
3, 20040, Note_on_c, 0, 43, 0
3, 20160, Note_on_c, 0, 42, 51
3, 20234, Control_c, 0, 64, 127
3, 20880, Note_on_c, 0, 42, 0
3, 20880, Note_on_c, 0, 47, 48
3, 20890, Control_c, 0, 64, 0
3, 21120, Note_on_c, 0, 47, 0
3, 21120, Note_on_c, 0, 53, 51
3, 21240, Note_on_c, 0, 53, 0
3, 21360, Note_on_c, 0, 54, 54
3, 21480, Note_on_c, 0, 54, 0
3, 21600, Note_on_c, 0, 55, 60
3, 21706, Control_c, 0, 64, 127
3, 22329, Control_c, 0, 64, 0
3, 22560, Note_on_c, 0, 55, 0
3, 22560, Note_on_c, 0, 56, 66
3, 22864, Control_c, 0, 64, 127
3, 23040, Note_on_c, 0, 56, 0
3, 23040, Note_on_c, 0, 61, 66
3, 23297, Control_c, 0, 64, 0
3, 23404, Control_c, 0, 64, 127
3, 23520, Note_on_c, 0, 61, 0
3, 23520, Note_on_c, 0, 68, 68
3, 23760, Note_on_c, 0, 68, 0
3, 23760, Note_on_c, 0, 66, 61
3, 23777, Control_c, 0, 64, 0
3, 23940, Note_on_c, 0, 66, 0
3, 24000, Note_on_c, 0, 74, 45
3, 24149, Control_c, 0, 64, 127
3, 24240, Note_on_c, 0, 74, 0
3, 24240, Note_on_c, 0, 73, 43
3, 24480, Note_on_c, 0, 73, 0
3, 24480, Note_on_c, 0, 74, 45
3, 24494, Control_c, 0, 64, 0
3, 24574, Control_c, 0, 64, 127
3, 24720, Note_on_c, 0, 66, 36
3, 24960, Note_on_c, 0, 66, 0
3, 24960, Note_on_c, 0, 74, 0
3, 24960, Note_on_c, 0, 73, 43
3, 24975, Control_c, 0, 64, 0
3, 25200, Note_on_c, 0, 73, 0
3, 25200, Note_on_c, 0, 66, 33
3, 25440, Note_on_c, 0, 71, 44
3, 25543, Control_c, 0, 64, 127
3, 25680, Note_on_c, 0, 71, 0
3, 25680, Note_on_c, 0, 70, 42
3, 25920, Note_on_c, 0, 70, 0
3, 25920, Note_on_c, 0, 71, 45
3, 25934, Control_c, 0, 64, 0
3, 26011, Control_c, 0, 64, 127
3, 26160, Note_on_c, 0, 66, 0
3, 26160, Note_on_c, 0, 66, 39
3, 26400, Note_on_c, 0, 66, 0
3, 26400, Note_on_c, 0, 71, 0
3, 26400, Note_on_c, 0, 70, 44
3, 26411, Control_c, 0, 64, 0
3, 26640, Note_on_c, 0, 70, 0
3, 26640, Note_on_c, 0, 66, 37
3, 26880, Note_on_c, 0, 66, 0
3, 26880, Note_on_c, 0, 69, 60
3, 26880, Note_on_c, 0, 64, 60
3, 26960, Control_c, 0, 64, 127
3, 27600, Note_on_c, 0, 64, 0
3, 27600, Note_on_c, 0, 69, 0
3, 27600, Note_on_c, 0, 64, 53
3, 27600, Note_on_c, 0, 57, 53
3, 27610, Control_c, 0, 64, 0
3, 27703, Control_c, 0, 64, 127
3, 28320, Note_on_c, 0, 57, 0
3, 28320, Note_on_c, 0, 64, 0
3, 28320, Note_on_c, 0, 57, 53
3, 28320, Note_on_c, 0, 54, 53
3, 28338, Control_c, 0, 64, 0
3, 28491, Control_c, 0, 64, 127
3, 28800, Control_c, 0, 64, 0
3, 29040, Note_on_c, 0, 54, 0
3, 29040, Note_on_c, 0, 57, 0
3, 29040, Note_on_c, 0, 48, 53
3, 29160, Note_on_c, 0, 48, 0
3, 29274, Control_c, 0, 64, 127
3, 29280, Note_on_c, 0, 47, 46
3, 29400, Note_on_c, 0, 47, 0
3, 29520, Note_on_c, 0, 52, 53
3, 29535, Control_c, 0, 64, 0
3, 29640, Note_on_c, 0, 52, 0
3, 29760, Note_on_c, 0, 79, 50
3, 29869, Control_c, 0, 64, 127
3, 30000, Note_on_c, 0, 79, 0
3, 30000, Note_on_c, 0, 78, 48
3, 30240, Note_on_c, 0, 78, 0
3, 30240, Note_on_c, 0, 79, 50
3, 30252, Control_c, 0, 64, 0
3, 30326, Control_c, 0, 64, 127
3, 30480, Note_on_c, 0, 71, 46
3, 30720, Note_on_c, 0, 71, 0
3, 30720, Note_on_c, 0, 79, 0
3, 30720, Note_on_c, 0, 78, 48
3, 30738, Control_c, 0, 64, 0
3, 30960, Note_on_c, 0, 78, 0
3, 30960, Note_on_c, 0, 71, 43
3, 31200, Note_on_c, 0, 76, 49
3, 31303, Control_c, 0, 64, 127
3, 31440, Note_on_c, 0, 76, 0
3, 31440, Note_on_c, 0, 75, 47
3, 31680, Note_on_c, 0, 75, 0
3, 31680, Note_on_c, 0, 76, 50
3, 31694, Control_c, 0, 64, 0
3, 31771, Control_c, 0, 64, 127
3, 31920, Note_on_c, 0, 71, 0
3, 31920, Note_on_c, 0, 71, 44
3, 32160, Note_on_c, 0, 71, 0
3, 32160, Note_on_c, 0, 76, 0
3, 32160, Note_on_c, 0, 75, 49
3, 32171, Control_c, 0, 64, 0
3, 32400, Note_on_c, 0, 75, 0
3, 32400, Note_on_c, 0, 71, 38
3, 32640, Note_on_c, 0, 71, 0
3, 32640, Note_on_c, 0, 69, 60
3, 32640, Note_on_c, 0, 74, 60
3, 32720, Control_c, 0, 64, 127
3, 33360, Note_on_c, 0, 74, 0
3, 33360, Note_on_c, 0, 69, 0
3, 33360, Note_on_c, 0, 62, 53
3, 33360, Note_on_c, 0, 69, 53
3, 33383, Control_c, 0, 64, 0
3, 33463, Control_c, 0, 64, 127
3, 34080, Note_on_c, 0, 69, 0
3, 34080, Note_on_c, 0, 62, 0
3, 34080, Note_on_c, 0, 59, 53
3, 34080, Note_on_c, 0, 62, 53
3, 34090, Control_c, 0, 64, 0
3, 34251, Control_c, 0, 64, 127
3, 34560, Control_c, 0, 64, 0
3, 34800, Note_on_c, 0, 62, 0
3, 34800, Note_on_c, 0, 59, 0
3, 34800, Note_on_c, 0, 53, 53
3, 34920, Note_on_c, 0, 53, 0
3, 35034, Control_c, 0, 64, 127
3, 35040, Note_on_c, 0, 52, 40
3, 35160, Note_on_c, 0, 52, 0
3, 35280, Note_on_c, 0, 45, 47
3, 35297, Control_c, 0, 64, 0
3, 35400, Note_on_c, 0, 45, 0
3, 35520, Note_on_c, 0, 53, 37
3, 35583, Control_c, 0, 64, 127
3, 35640, Note_on_c, 0, 53, 0
3, 35760, Note_on_c, 0, 52, 37
3, 35880, Note_on_c, 0, 52, 0
3, 36000, Note_on_c, 0, 45, 43
3, 36009, Control_c, 0, 64, 0
3, 36091, Control_c, 0, 64, 127
3, 36120, Note_on_c, 0, 45, 0
3, 36240, Note_on_c, 0, 53, 37
3, 36360, Note_on_c, 0, 53, 0
3, 36480, Note_on_c, 0, 52, 37
3, 36600, Note_on_c, 0, 52, 0
3, 36720, Note_on_c, 0, 45, 43
3, 36730, Control_c, 0, 64, 0
3, 36840, Note_on_c, 0, 45, 0
3, 36960, Note_on_c, 0, 53, 37
3, 37040, Control_c, 0, 64, 127
3, 37080, Note_on_c, 0, 53, 0
3, 37200, Note_on_c, 0, 52, 37
3, 37320, Note_on_c, 0, 52, 0
3, 37440, Note_on_c, 0, 45, 43
3, 37451, Control_c, 0, 64, 0
3, 37457, Control_c, 0, 64, 0
3, 37549, Control_c, 0, 64, 127
3, 37560, Note_on_c, 0, 45, 0
3, 37680, Note_on_c, 0, 53, 38
3, 37687, Control_c, 0, 64, 0
3, 37800, Note_on_c, 0, 53, 0
3, 37920, Note_on_c, 0, 52, 38
3, 38040, Note_on_c, 0, 52, 0
3, 38160, Note_on_c, 0, 45, 45
3, 38280, Note_on_c, 0, 45, 0
3, 38400, Note_on_c, 0, 57, 39
3, 38474, Control_c, 0, 64, 127
3, 38520, Note_on_c, 0, 57, 0
3, 38640, Note_on_c, 0, 56, 39
3, 38760, Note_on_c, 0, 56, 0
3, 38880, Note_on_c, 0, 48, 48
3, 38880, Control_c, 0, 64, 0
3, 38914, Control_c, 0, 64, 127
3, 39000, Note_on_c, 0, 48, 0
3, 39120, Note_on_c, 0, 57, 44
3, 39240, Note_on_c, 0, 57, 0
3, 39360, Note_on_c, 0, 56, 44
3, 39480, Note_on_c, 0, 56, 0
3, 39600, Note_on_c, 0, 48, 47
3, 39611, Control_c, 0, 64, 0
3, 39720, Note_on_c, 0, 48, 0
3, 39840, Note_on_c, 0, 57, 44
3, 39886, Control_c, 0, 64, 127
3, 39960, Note_on_c, 0, 57, 0
3, 40080, Note_on_c, 0, 56, 44
3, 40200, Note_on_c, 0, 56, 0
3, 40320, Note_on_c, 0, 48, 47
3, 40327, Control_c, 0, 64, 0
3, 40406, Control_c, 0, 64, 127
3, 40440, Note_on_c, 0, 48, 0
3, 40560, Note_on_c, 0, 57, 43
3, 40680, Note_on_c, 0, 57, 0
3, 40800, Note_on_c, 0, 56, 43
3, 40920, Note_on_c, 0, 56, 0
3, 41040, Note_on_c, 0, 48, 49
3, 41057, Control_c, 0, 64, 0
3, 41160, Note_on_c, 0, 48, 0
3, 41280, Note_on_c, 0, 60, 44
3, 41331, Control_c, 0, 64, 127
3, 41400, Note_on_c, 0, 60, 0
3, 41520, Note_on_c, 0, 59, 44
3, 41640, Note_on_c, 0, 59, 0
3, 41760, Note_on_c, 0, 52, 48
3, 41768, Control_c, 0, 64, 0
3, 41880, Note_on_c, 0, 52, 0
3, 41880, Control_c, 0, 64, 127
3, 42000, Note_on_c, 0, 60, 43
3, 42120, Note_on_c, 0, 60, 0
3, 42240, Note_on_c, 0, 59, 43
3, 42246, Control_c, 0, 64, 0
3, 42360, Note_on_c, 0, 59, 0
3, 42480, Note_on_c, 0, 52, 49
3, 42600, Note_on_c, 0, 52, 0
3, 42720, Note_on_c, 0, 64, 44
3, 42789, Control_c, 0, 64, 127
3, 42840, Note_on_c, 0, 64, 0
3, 42960, Note_on_c, 0, 63, 44
3, 43080, Note_on_c, 0, 63, 0
3, 43200, Note_on_c, 0, 55, 51
3, 43207, Control_c, 0, 64, 0
3, 43291, Control_c, 0, 64, 127
3, 43320, Note_on_c, 0, 55, 0
3, 43440, Note_on_c, 0, 64, 46
3, 43560, Note_on_c, 0, 64, 0
3, 43680, Note_on_c, 0, 63, 47
3, 43800, Note_on_c, 0, 63, 0
3, 43920, Note_on_c, 0, 55, 51
3, 43925, Control_c, 0, 64, 0
3, 44040, Note_on_c, 0, 55, 0
3, 44160, Note_on_c, 0, 67, 46
3, 44280, Note_on_c, 0, 67, 0
3, 44286, Control_c, 0, 64, 127
3, 44400, Note_on_c, 0, 66, 46
3, 44520, Note_on_c, 0, 66, 0
3, 44640, Note_on_c, 0, 59, 54
3, 44648, Control_c, 0, 64, 0
3, 44737, Control_c, 0, 64, 127
3, 44760, Note_on_c, 0, 59, 0
3, 44880, Note_on_c, 0, 67, 49
3, 45000, Note_on_c, 0, 67, 0
3, 45120, Note_on_c, 0, 66, 51
3, 45126, Control_c, 0, 64, 0
3, 45240, Note_on_c, 0, 66, 0
3, 45360, Note_on_c, 0, 59, 57
3, 45480, Note_on_c, 0, 59, 0
3, 45600, Note_on_c, 0, 71, 53
3, 45669, Control_c, 0, 64, 127
3, 45720, Note_on_c, 0, 71, 0
3, 45840, Note_on_c, 0, 70, 51
3, 45960, Note_on_c, 0, 70, 0
3, 46080, Note_on_c, 0, 62, 62
3, 46088, Control_c, 0, 64, 0
3, 46160, Control_c, 0, 64, 127
3, 46200, Note_on_c, 0, 62, 0
3, 46320, Note_on_c, 0, 71, 52
3, 46440, Note_on_c, 0, 71, 0
3, 46560, Note_on_c, 0, 70, 61
3, 46680, Note_on_c, 0, 70, 0
3, 46800, Note_on_c, 0, 62, 49
3, 46808, Control_c, 0, 64, 0
3, 46920, Note_on_c, 0, 62, 0
3, 47040, Note_on_c, 0, 70, 62
3, 47086, Control_c, 0, 64, 127
3, 47280, Note_on_c, 0, 70, 0
3, 47280, Note_on_c, 0, 62, 48
3, 47520, Note_on_c, 0, 62, 0
3, 47520, Note_on_c, 0, 70, 61
3, 47760, Note_on_c, 0, 70, 0
3, 47760, Note_on_c, 0, 62, 48
3, 48000, Note_on_c, 0, 62, 0
3, 48000, Note_on_c, 0, 70, 61
3, 48240, Note_on_c, 0, 70, 0
3, 48240, Note_on_c, 0, 62, 48
3, 48480, Note_on_c, 0, 62, 0
3, 48480, Note_on_c, 0, 70, 61
3, 48499, Control_c, 0, 64, 0
3, 48629, Control_c, 0, 64, 127
3, 48720, Note_on_c, 0, 70, 0
3, 48720, Note_on_c, 0, 61, 48
3, 48960, Note_on_c, 0, 61, 0
3, 48960, Note_on_c, 0, 70, 58
3, 49200, Note_on_c, 0, 70, 0
3, 49200, Note_on_c, 0, 61, 46
3, 49440, Note_on_c, 0, 61, 0
3, 49440, Note_on_c, 0, 70, 57
3, 49680, Note_on_c, 0, 70, 0
3, 49680, Note_on_c, 0, 61, 46
3, 49920, Note_on_c, 0, 61, 0
3, 49920, Note_on_c, 0, 61, 57
3, 49937, Control_c, 0, 64, 0
3, 50012, Control_c, 0, 64, 127
3, 50160, Note_on_c, 0, 61, 0
3, 50160, Note_on_c, 0, 54, 46
3, 50400, Note_on_c, 0, 54, 0
3, 50400, Note_on_c, 0, 61, 56
3, 50640, Note_on_c, 0, 61, 0
3, 50640, Note_on_c, 0, 54, 42
3, 50880, Note_on_c, 0, 54, 0
3, 50880, Note_on_c, 0, 61, 57
3, 51120, Note_on_c, 0, 61, 0
3, 51120, Note_on_c, 0, 54, 44
3, 51360, Note_on_c, 0, 54, 0
3, 51360, Note_on_c, 0, 49, 50
3, 51379, Control_c, 0, 64, 0
3, 51512, Control_c, 0, 64, 127
3, 51600, Note_on_c, 0, 49, 0
3, 51600, Note_on_c, 0, 42, 40
3, 51840, Note_on_c, 0, 42, 0
3, 51840, Note_on_c, 0, 49, 50
3, 52080, Note_on_c, 0, 49, 0
3, 52080, Note_on_c, 0, 42, 41
3, 52320, Note_on_c, 0, 42, 0
3, 52320, Note_on_c, 0, 49, 49
3, 52560, Note_on_c, 0, 49, 0
3, 52560, Note_on_c, 0, 42, 41
3, 52569, Control_c, 0, 64, 0
3, 52740, Note_on_c, 0, 42, 0
3, 52800, Note_on_c, 0, 62, 45
3, 52869, Control_c, 0, 64, 127
3, 53040, Note_on_c, 0, 62, 0
3, 53040, Note_on_c, 0, 61, 43
3, 53280, Note_on_c, 0, 61, 0
3, 53280, Note_on_c, 0, 62, 45
3, 53294, Control_c, 0, 64, 0
3, 53362, Control_c, 0, 64, 127
3, 53520, Note_on_c, 0, 47, 40
3, 53760, Note_on_c, 0, 47, 0
3, 53760, Note_on_c, 0, 62, 0
3, 53760, Note_on_c, 0, 61, 43
3, 53771, Control_c, 0, 64, 0
3, 54000, Note_on_c, 0, 61, 0
3, 54000, Note_on_c, 0, 47, 36
3, 54240, Note_on_c, 0, 47, 0
3, 54240, Note_on_c, 0, 59, 44
3, 54343, Control_c, 0, 64, 127
3, 54480, Note_on_c, 0, 59, 0
3, 54480, Note_on_c, 0, 58, 42
3, 54720, Note_on_c, 0, 58, 0
3, 54720, Note_on_c, 0, 59, 45
3, 54733, Control_c, 0, 64, 0
3, 54811, Control_c, 0, 64, 127
3, 54960, Note_on_c, 0, 47, 39
3, 55200, Note_on_c, 0, 47, 0
3, 55200, Note_on_c, 0, 59, 0
3, 55200, Note_on_c, 0, 58, 44
3, 55215, Control_c, 0, 64, 0
3, 55440, Note_on_c, 0, 58, 0
3, 55440, Note_on_c, 0, 47, 36
3, 55680, Note_on_c, 0, 47, 0
3, 55680, Note_on_c, 0, 57, 44
3, 55760, Control_c, 0, 64, 127
3, 55920, Note_on_c, 0, 57, 0
3, 55920, Note_on_c, 0, 56, 41
3, 56160, Note_on_c, 0, 56, 0
3, 56160, Note_on_c, 0, 57, 45
3, 56176, Control_c, 0, 64, 0
3, 56274, Control_c, 0, 64, 127
3, 56400, Note_on_c, 0, 47, 40
3, 56640, Note_on_c, 0, 47, 0
3, 56640, Note_on_c, 0, 57, 0
3, 56640, Note_on_c, 0, 56, 44
3, 56656, Control_c, 0, 64, 0
3, 56880, Note_on_c, 0, 56, 0
3, 56880, Note_on_c, 0, 47, 37
3, 57120, Note_on_c, 0, 47, 0
3, 57120, Note_on_c, 0, 55, 45
3, 57143, Control_c, 0, 64, 127
3, 57360, Note_on_c, 0, 55, 0
3, 57360, Note_on_c, 0, 47, 43
3, 57600, Note_on_c, 0, 47, 0
3, 57600, Note_on_c, 0, 54, 49
3, 57609, Control_c, 0, 64, 0
3, 57714, Control_c, 0, 64, 127
3, 57840, Note_on_c, 0, 54, 0
3, 57840, Note_on_c, 0, 47, 50
3, 58080, Note_on_c, 0, 47, 0
3, 58080, Note_on_c, 0, 52, 47
3, 58320, Note_on_c, 0, 52, 0
3, 58320, Note_on_c, 0, 47, 44
3, 58320, Note_on_c, 0, 50, 44
3, 58323, Control_c, 0, 64, 0
3, 58560, Note_on_c, 0, 50, 0
3, 58560, Note_on_c, 0, 47, 0
3, 58560, Note_on_c, 0, 53, 52
3, 58680, Note_on_c, 0, 53, 0
3, 58800, Note_on_c, 0, 54, 54
3, 58920, Note_on_c, 0, 54, 0
3, 59040, Note_on_c, 0, 55, 59
3, 59103, Control_c, 0, 64, 127
3, 59760, Note_on_c, 0, 55, 0
3, 59760, Note_on_c, 0, 43, 49
3, 59778, Control_c, 0, 64, 0
3, 60000, Note_on_c, 0, 43, 0
3, 60000, Note_on_c, 0, 45, 51
3, 60120, Note_on_c, 0, 45, 0
3, 60240, Note_on_c, 0, 43, 49
3, 60360, Note_on_c, 0, 43, 0
3, 60480, Note_on_c, 0, 42, 51
3, 60543, Control_c, 0, 64, 127
3, 61200, Note_on_c, 0, 42, 0
3, 61200, Note_on_c, 0, 47, 48
3, 61217, Control_c, 0, 64, 0
3, 61440, Note_on_c, 0, 47, 0
3, 61440, Note_on_c, 0, 53, 51
3, 61560, Note_on_c, 0, 53, 0
3, 61680, Note_on_c, 0, 54, 54
3, 61800, Note_on_c, 0, 54, 0
3, 61920, Note_on_c, 0, 55, 58
3, 61954, Control_c, 0, 64, 127
3, 62640, Note_on_c, 0, 55, 0
3, 62640, Note_on_c, 0, 43, 49
3, 62651, Control_c, 0, 64, 0
3, 62880, Note_on_c, 0, 43, 0
3, 62880, Note_on_c, 0, 45, 54
3, 63000, Note_on_c, 0, 45, 0
3, 63120, Note_on_c, 0, 43, 51
3, 63240, Note_on_c, 0, 43, 0
3, 63360, Note_on_c, 0, 42, 52
3, 63400, Control_c, 0, 64, 127
3, 64080, Note_on_c, 0, 42, 0
3, 64080, Note_on_c, 0, 47, 49
3, 64095, Control_c, 0, 64, 0
3, 64320, Note_on_c, 0, 47, 0
3, 64320, Note_on_c, 0, 52, 55
3, 64440, Note_on_c, 0, 52, 0
3, 64560, Note_on_c, 0, 50, 52
3, 64680, Note_on_c, 0, 50, 0
3, 64800, Note_on_c, 0, 49, 51
3, 64840, Control_c, 0, 64, 127
3, 65520, Note_on_c, 0, 49, 0
3, 65520, Note_on_c, 0, 50, 50
3, 65534, Control_c, 0, 64, 0
3, 65760, Note_on_c, 0, 50, 0
3, 65760, Note_on_c, 0, 56, 58
3, 65880, Note_on_c, 0, 56, 0
3, 66000, Note_on_c, 0, 54, 56
3, 66120, Note_on_c, 0, 54, 0
3, 66240, Note_on_c, 0, 53, 55
3, 66280, Control_c, 0, 64, 127
3, 66960, Note_on_c, 0, 53, 0
3, 66960, Note_on_c, 0, 54, 52
3, 66977, Control_c, 0, 64, 0
3, 67194, Control_c, 0, 64, 127
3, 67200, Note_on_c, 0, 54, 0
3, 67200, Note_on_c, 0, 66, 56
3, 67200, Note_on_c, 0, 58, 56
3, 67680, Note_on_c, 0, 58, 0
3, 67680, Note_on_c, 0, 56, 60
3, 67920, Note_on_c, 0, 56, 0
3, 67920, Note_on_c, 0, 66, 0
3, 67920, Note_on_c, 0, 66, 60
3, 67920, Note_on_c, 0, 58, 60
3, 67936, Control_c, 0, 64, 0
3, 68034, Control_c, 0, 64, 127
3, 68400, Note_on_c, 0, 58, 0
3, 68400, Note_on_c, 0, 56, 65
3, 68640, Note_on_c, 0, 56, 0
3, 68640, Note_on_c, 0, 66, 0
3, 68640, Note_on_c, 0, 66, 65
3, 68640, Note_on_c, 0, 58, 65
3, 68659, Control_c, 0, 64, 0
3, 68777, Control_c, 0, 64, 127
3, 69120, Note_on_c, 0, 58, 0
3, 69120, Note_on_c, 0, 56, 71
3, 69360, Note_on_c, 0, 56, 0
3, 69360, Note_on_c, 0, 66, 0
3, 69360, Control_c, 0, 64, 0
3, 69360, Note_on_c, 0, 58, 72
3, 69360, Note_on_c, 0, 66, 72
3, 69480, Note_on_c, 0, 66, 0
3, 69480, Note_on_c, 0, 58, 0
3, 69600, Note_on_c, 0, 66, 69
3, 69600, Note_on_c, 0, 59, 69
3, 69720, Note_on_c, 0, 59, 0
3, 69720, Note_on_c, 0, 66, 0
3, 69840, Note_on_c, 0, 59, 63
3, 69840, Note_on_c, 0, 52, 63
3, 69840, Note_on_c, 0, 64, 75
3, 69937, Control_c, 0, 64, 127
3, 70560, Note_on_c, 0, 64, 0
3, 70560, Note_on_c, 0, 52, 0
3, 70560, Note_on_c, 0, 59, 0
3, 70560, Control_c, 0, 64, 0
3, 70560, Note_on_c, 0, 52, 54
3, 70680, Control_c, 0, 64, 127
3, 70680, Note_on_c, 0, 55, 56
3, 70800, Note_on_c, 0, 55, 0
3, 70800, Note_on_c, 0, 59, 57
3, 70920, Note_on_c, 0, 59, 0
3, 70920, Note_on_c, 0, 61, 59
3, 71040, Note_on_c, 0, 61, 0
3, 71040, Note_on_c, 0, 52, 0
3, 71880, Note_on_c, 0, 61, 57
3, 72000, Note_on_c, 0, 61, 0
3, 72000, Note_on_c, 0, 59, 57
3, 72013, Control_c, 0, 64, 0
3, 72064, Control_c, 0, 64, 127
3, 72120, Note_on_c, 0, 59, 0
3, 72120, Note_on_c, 0, 55, 56
3, 72240, Note_on_c, 0, 55, 0
3, 72240, Note_on_c, 0, 52, 56
3, 72360, Note_on_c, 0, 52, 0
3, 72720, Note_on_c, 0, 40, 57
3, 72960, Note_on_c, 0, 40, 0
3, 72960, Note_on_c, 0, 49, 57
3, 73200, Note_on_c, 0, 49, 0
3, 73207, Control_c, 0, 64, 0
3, 73440, Note_on_c, 0, 52, 53
3, 73482, Control_c, 0, 64, 127
3, 73560, Note_on_c, 0, 52, 0
3, 73560, Note_on_c, 0, 59, 55
3, 73680, Note_on_c, 0, 59, 0
3, 73680, Note_on_c, 0, 61, 56
3, 73800, Note_on_c, 0, 61, 0
3, 73800, Note_on_c, 0, 64, 58
3, 73920, Note_on_c, 0, 64, 0
3, 74760, Note_on_c, 0, 64, 58
3, 74880, Note_on_c, 0, 64, 0
3, 74880, Note_on_c, 0, 61, 57
3, 74883, Control_c, 0, 64, 0
3, 74986, Control_c, 0, 64, 127
3, 75000, Note_on_c, 0, 61, 0
3, 75000, Note_on_c, 0, 59, 56
3, 75120, Note_on_c, 0, 59, 0
3, 75120, Note_on_c, 0, 55, 56
3, 75240, Note_on_c, 0, 55, 0
3, 75600, Note_on_c, 0, 43, 60
3, 75840, Note_on_c, 0, 43, 0
3, 75840, Note_on_c, 0, 49, 57
3, 76080, Note_on_c, 0, 49, 0
3, 76085, Control_c, 0, 64, 0
3, 76320, Control_c, 0, 64, 127
3, 76320, Note_on_c, 0, 42, 63
3, 76440, Note_on_c, 0, 42, 0
3, 76440, Note_on_c, 0, 47, 65
3, 76560, Note_on_c, 0, 47, 0
3, 76560, Note_on_c, 0, 50, 68
3, 76680, Note_on_c, 0, 50, 0
3, 76680, Note_on_c, 0, 54, 70
3, 76800, Note_on_c, 0, 54, 0
3, 77040, Note_on_c, 0, 54, 75
3, 77160, Note_on_c, 0, 54, 0
3, 77160, Note_on_c, 0, 59, 77
3, 77280, Note_on_c, 0, 59, 0
3, 77767, Control_c, 0, 64, 0
3, 79920, Note_on_c, 0, 55, 70
3, 79920, Note_on_c, 0, 67, 78
3, 80040, Note_on_c, 0, 67, 0
3, 80040, Note_on_c, 0, 55, 0
3, 80160, Note_on_c, 0, 62, 72
3, 80160, Note_on_c, 0, 50, 64
3, 80280, Note_on_c, 0, 50, 0
3, 80280, Note_on_c, 0, 62, 0
3, 80400, Note_on_c, 0, 64, 76
3, 80400, Note_on_c, 0, 52, 68
3, 80520, Note_on_c, 0, 52, 0
3, 80520, Note_on_c, 0, 64, 0
3, 80640, Note_on_c, 0, 49, 63
3, 80640, Note_on_c, 0, 61, 71
3, 80760, Note_on_c, 0, 61, 0
3, 80760, Note_on_c, 0, 49, 0
3, 80880, Note_on_c, 0, 50, 69
3, 80880, Note_on_c, 0, 62, 77
3, 81000, Note_on_c, 0, 62, 0
3, 81000, Note_on_c, 0, 50, 0
3, 81120, Note_on_c, 0, 59, 70
3, 81120, Note_on_c, 0, 47, 63
3, 81240, Note_on_c, 0, 47, 0
3, 81240, Note_on_c, 0, 59, 0
3, 81360, Note_on_c, 0, 49, 68
3, 81360, Note_on_c, 0, 61, 76
3, 81480, Note_on_c, 0, 61, 0
3, 81480, Note_on_c, 0, 49, 0
3, 81600, Note_on_c, 0, 58, 69
3, 81600, Note_on_c, 0, 46, 62
3, 81720, Note_on_c, 0, 46, 0
3, 81720, Note_on_c, 0, 58, 0
3, 81840, Note_on_c, 0, 59, 68
3, 81840, Note_on_c, 0, 47, 68
3, 81960, Note_on_c, 0, 47, 0
3, 81960, Note_on_c, 0, 59, 0
3, 82080, Note_on_c, 0, 54, 71
3, 82080, Note_on_c, 0, 42, 63
3, 82200, Note_on_c, 0, 42, 0
3, 82200, Note_on_c, 0, 54, 0
3, 82320, Note_on_c, 0, 43, 69
3, 82320, Note_on_c, 0, 55, 77
3, 82440, Note_on_c, 0, 55, 0
3, 82440, Note_on_c, 0, 43, 0
3, 82560, Note_on_c, 0, 38, 62
3, 82560, Note_on_c, 0, 50, 62
3, 82680, Note_on_c, 0, 50, 0
3, 82680, Note_on_c, 0, 38, 0
3, 82800, Note_on_c, 0, 40, 67
3, 82800, Note_on_c, 0, 52, 75
3, 82926, Control_c, 0, 64, 127
3, 83280, Note_on_c, 0, 52, 0
3, 83280, Note_on_c, 0, 40, 0
3, 83280, Note_on_c, 0, 42, 61
3, 83280, Note_on_c, 0, 54, 68
3, 83297, Control_c, 0, 64, 0
3, 83377, Control_c, 0, 64, 127
3, 83520, Note_on_c, 0, 54, 0
3, 83520, Note_on_c, 0, 42, 0
3, 83520, Note_on_c, 0, 47, 68
3, 83533, Control_c, 0, 64, 0
3, 83760, Note_on_c, 0, 47, 0
3, 83760, Note_on_c, 0, 52, 58
3, 83880, Note_on_c, 0, 52, 0
3, 84000, Note_on_c, 0, 54, 60
3, 84120, Note_on_c, 0, 54, 0
3, 84240, Note_on_c, 0, 55, 66
3, 84303, Control_c, 0, 64, 127
3, 84977, Control_c, 0, 64, 0
3, 85200, Note_on_c, 0, 55, 0
3, 85200, Note_on_c, 0, 45, 57
3, 85320, Note_on_c, 0, 45, 0
3, 85440, Note_on_c, 0, 43, 55
3, 85560, Note_on_c, 0, 43, 0
3, 85680, Note_on_c, 0, 42, 57
3, 85743, Control_c, 0, 64, 127
3, 86400, Note_on_c, 0, 42, 0
3, 86400, Note_on_c, 0, 47, 54
3, 86419, Control_c, 0, 64, 0
3, 86640, Note_on_c, 0, 47, 0
3, 86640, Note_on_c, 0, 52, 57
3, 86760, Note_on_c, 0, 52, 0
3, 86880, Note_on_c, 0, 54, 60
3, 87000, Note_on_c, 0, 54, 0
3, 87120, Note_on_c, 0, 55, 65
3, 87154, Control_c, 0, 64, 127
3, 87861, Control_c, 0, 64, 0
3, 88080, Note_on_c, 0, 55, 0
3, 88080, Note_on_c, 0, 45, 61
3, 88200, Note_on_c, 0, 45, 0
3, 88320, Note_on_c, 0, 43, 57
3, 88440, Note_on_c, 0, 43, 0
3, 88560, Note_on_c, 0, 42, 58
3, 88629, Control_c, 0, 64, 127
3, 89280, Note_on_c, 0, 42, 0
3, 89280, Note_on_c, 0, 47, 58
3, 89280, Control_c, 0, 64, 0
3, 89400, Note_on_c, 0, 47, 0
3, 89520, Note_on_c, 0, 54, 49
3, 89520, Note_on_c, 0, 50, 49
3, 89520, Note_on_c, 0, 59, 55
3, 89589, Control_c, 0, 64, 127
3, 89640, Note_on_c, 0, 59, 0
3, 89640, Note_on_c, 0, 50, 0
3, 89640, Note_on_c, 0, 54, 0
3, 89760, Note_on_c, 0, 50, 45
3, 89760, Note_on_c, 0, 58, 50
3, 89760, Note_on_c, 0, 54, 45
3, 89880, Note_on_c, 0, 54, 0
3, 89880, Note_on_c, 0, 58, 0
3, 89880, Note_on_c, 0, 50, 0
3, 90000, Note_on_c, 0, 54, 48
3, 90000, Note_on_c, 0, 59, 54
3, 90000, Note_on_c, 0, 50, 48
3, 90120, Note_on_c, 0, 50, 0
3, 90120, Note_on_c, 0, 59, 0
3, 90120, Note_on_c, 0, 54, 0
3, 90240, Note_on_c, 0, 54, 50
3, 90240, Note_on_c, 0, 62, 56
3, 90240, Note_on_c, 0, 59, 50
3, 90243, Control_c, 0, 64, 0
3, 90360, Note_on_c, 0, 59, 0
3, 90360, Note_on_c, 0, 62, 0
3, 90360, Note_on_c, 0, 54, 0
3, 90360, Control_c, 0, 64, 127
3, 90480, Note_on_c, 0, 59, 48
3, 90480, Note_on_c, 0, 54, 48
3, 90480, Note_on_c, 0, 61, 54
3, 90600, Note_on_c, 0, 61, 0
3, 90600, Note_on_c, 0, 54, 0
3, 90600, Note_on_c, 0, 59, 0
3, 90720, Note_on_c, 0, 59, 52
3, 90720, Note_on_c, 0, 54, 52
3, 90720, Note_on_c, 0, 62, 58
3, 90840, Note_on_c, 0, 62, 0
3, 90840, Note_on_c, 0, 54, 0
3, 90840, Note_on_c, 0, 59, 0
3, 90960, Note_on_c, 0, 62, 48
3, 90960, Note_on_c, 0, 59, 48
3, 90960, Note_on_c, 0, 66, 54
3, 90963, Control_c, 0, 64, 0
3, 91018, Control_c, 0, 64, 127
3, 91080, Note_on_c, 0, 66, 0
3, 91080, Note_on_c, 0, 59, 0
3, 91080, Note_on_c, 0, 62, 0
3, 91200, Note_on_c, 0, 65, 59
3, 91200, Note_on_c, 0, 59, 53
3, 91200, Note_on_c, 0, 62, 53
3, 91320, Note_on_c, 0, 62, 0
3, 91320, Note_on_c, 0, 59, 0
3, 91320, Note_on_c, 0, 65, 0
3, 91440, Note_on_c, 0, 62, 54
3, 91440, Note_on_c, 0, 66, 60
3, 91440, Note_on_c, 0, 59, 54
3, 91560, Note_on_c, 0, 59, 0
3, 91560, Note_on_c, 0, 66, 0
3, 91560, Note_on_c, 0, 62, 0
3, 91680, Note_on_c, 0, 66, 51
3, 91680, Note_on_c, 0, 71, 57
3, 91680, Note_on_c, 0, 62, 51
3, 91681, Control_c, 0, 64, 0
3, 91783, Control_c, 0, 64, 127
3, 91800, Note_on_c, 0, 62, 0
3, 91800, Note_on_c, 0, 71, 0
3, 91800, Note_on_c, 0, 66, 0
3, 91920, Note_on_c, 0, 62, 55
3, 91920, Note_on_c, 0, 70, 62
3, 91920, Note_on_c, 0, 66, 55
3, 92040, Note_on_c, 0, 66, 0
3, 92040, Note_on_c, 0, 70, 0
3, 92040, Note_on_c, 0, 62, 0
3, 92160, Note_on_c, 0, 62, 55
3, 92160, Note_on_c, 0, 71, 62
3, 92160, Note_on_c, 0, 66, 55
3, 92280, Note_on_c, 0, 66, 0
3, 92280, Note_on_c, 0, 71, 0
3, 92280, Note_on_c, 0, 62, 0
3, 92400, Note_on_c, 0, 71, 55
3, 92400, Note_on_c, 0, 66, 55
3, 92400, Note_on_c, 0, 74, 62
3, 92402, Control_c, 0, 64, 0
3, 92466, Control_c, 0, 64, 127
3, 92520, Note_on_c, 0, 74, 0
3, 92520, Note_on_c, 0, 66, 0
3, 92520, Note_on_c, 0, 71, 0
3, 92640, Note_on_c, 0, 71, 52
3, 92640, Note_on_c, 0, 73, 58
3, 92640, Note_on_c, 0, 66, 52
3, 92760, Note_on_c, 0, 66, 0
3, 92760, Note_on_c, 0, 73, 0
3, 92760, Note_on_c, 0, 71, 0
3, 92880, Note_on_c, 0, 71, 57
3, 92880, Note_on_c, 0, 66, 57
3, 92880, Note_on_c, 0, 74, 64
3, 93000, Note_on_c, 0, 74, 0
3, 93000, Note_on_c, 0, 66, 0
3, 93000, Note_on_c, 0, 71, 0
3, 93120, Note_on_c, 0, 71, 58
3, 93120, Note_on_c, 0, 78, 65
3, 93120, Note_on_c, 0, 74, 58
3, 93122, Control_c, 0, 64, 0
3, 93190, Control_c, 0, 64, 127
3, 93240, Note_on_c, 0, 74, 0
3, 93240, Note_on_c, 0, 78, 0
3, 93240, Note_on_c, 0, 71, 0
3, 93360, Note_on_c, 0, 74, 56
3, 93360, Note_on_c, 0, 71, 56
3, 93360, Note_on_c, 0, 77, 63
3, 93480, Note_on_c, 0, 77, 0
3, 93480, Note_on_c, 0, 71, 0
3, 93480, Note_on_c, 0, 74, 0
3, 93600, Note_on_c, 0, 71, 60
3, 93600, Note_on_c, 0, 78, 67
3, 93600, Note_on_c, 0, 74, 60
3, 93720, Note_on_c, 0, 74, 0
3, 93720, Note_on_c, 0, 78, 0
3, 93720, Note_on_c, 0, 71, 0
3, 93840, Control_c, 0, 64, 0
3, 93840, Note_on_c, 0, 74, 60
3, 93840, Note_on_c, 0, 71, 60
3, 93840, Note_on_c, 0, 83, 67
3, 93840, Note_on_c, 0, 78, 67
3, 93931, Control_c, 0, 64, 127
3, 93960, Note_on_c, 0, 78, 0
3, 93960, Note_on_c, 0, 74, 0
3, 93960, Note_on_c, 0, 71, 0
3, 93960, Note_on_c, 0, 83, 0
3, 94080, Note_on_c, 0, 74, 57
3, 94080, Note_on_c, 0, 71, 57
3, 94080, Note_on_c, 0, 82, 64
3, 94080, Note_on_c, 0, 78, 64
3, 94200, Note_on_c, 0, 78, 0
3, 94200, Note_on_c, 0, 74, 0
3, 94200, Note_on_c, 0, 71, 0
3, 94200, Note_on_c, 0, 82, 0
3, 94320, Note_on_c, 0, 71, 65
3, 94320, Note_on_c, 0, 78, 72
3, 94320, Note_on_c, 0, 74, 65
3, 94320, Note_on_c, 0, 83, 72
3, 94440, Note_on_c, 0, 83, 0
3, 94440, Note_on_c, 0, 71, 0
3, 94440, Note_on_c, 0, 78, 0
3, 94440, Note_on_c, 0, 74, 0
3, 94560, Note_on_c, 0, 71, 65
3, 94560, Note_on_c, 0, 78, 73
3, 94560, Note_on_c, 0, 74, 65
3, 94560, Note_on_c, 0, 83, 73
3, 94566, Control_c, 0, 64, 0
3, 94651, Control_c, 0, 64, 127
3, 94680, Note_on_c, 0, 83, 0
3, 94680, Note_on_c, 0, 71, 0
3, 94680, Note_on_c, 0, 78, 0
3, 94680, Note_on_c, 0, 74, 0
3, 94800, Note_on_c, 0, 71, 63
3, 94800, Note_on_c, 0, 78, 71
3, 94800, Note_on_c, 0, 74, 63
3, 94800, Note_on_c, 0, 82, 71
3, 94920, Note_on_c, 0, 82, 0
3, 94920, Note_on_c, 0, 71, 0
3, 94920, Note_on_c, 0, 78, 0
3, 94920, Note_on_c, 0, 74, 0
3, 95040, Note_on_c, 0, 74, 69
3, 95040, Note_on_c, 0, 71, 69
3, 95040, Note_on_c, 0, 83, 78
3, 95040, Note_on_c, 0, 78, 78
3, 95160, Note_on_c, 0, 78, 0
3, 95160, Note_on_c, 0, 74, 0
3, 95160, Note_on_c, 0, 71, 0
3, 95160, Note_on_c, 0, 83, 0
3, 95760, Note_on_c, 0, 66, 66
3, 95760, Note_on_c, 0, 71, 74
3, 95760, Note_on_c, 0, 59, 66
3, 95769, Control_c, 0, 64, 0
3, 95880, Note_on_c, 0, 59, 0
3, 95880, Note_on_c, 0, 71, 0
3, 95880, Note_on_c, 0, 66, 0
3, 95887, Control_c, 0, 64, 127
3, 96480, Note_on_c, 0, 54, 66
3, 96480, Note_on_c, 0, 59, 74
3, 96480, Note_on_c, 0, 47, 66
3, 96600, Note_on_c, 0, 47, 0
3, 96600, Note_on_c, 0, 59, 0
3, 96600, Note_on_c, 0, 54, 0
3, 97200, Note_on_c, 0, 42, 66
3, 97200, Note_on_c, 0, 35, 66
3, 97200, Note_on_c, 0, 50, 74
3, 97200, Note_on_c, 0, 54, 74
3, 97200, Note_on_c, 0, 59, 81
3, 97200, Note_on_c, 0, 47, 74
3, 97320, Note_on_c, 0, 47, 0
3, 97320, Note_on_c, 0, 35, 0
3, 97320, Note_on_c, 0, 50, 0
3, 97320, Note_on_c, 0, 42, 0
3, 97320, Note_on_c, 0, 59, 0
3, 97320, Note_on_c, 0, 54, 0
3, 97701, Control_c, 0, 64, 0
3, 97920, Note_on_c, 0, 57, 36
3, 97920, Note_on_c, 0, 50, 36
3, 98133, Control_c, 0, 64, 127
3, 99372, Control_c, 0, 64, 0
3, 99600, Control_c, 0, 64, 127
3, 100800, Note_on_c, 0, 50, 0
3, 100800, Note_on_c, 0, 57, 0
3, 100800, Control_c, 0, 64, 0
3, 100800, Note_on_c, 0, 49, 36
3, 100800, Note_on_c, 0, 57, 36
3, 101040, Control_c, 0, 64, 127
3, 102240, Note_on_c, 0, 49, 0
3, 102240, Note_on_c, 0, 48, 36
3, 102252, Control_c, 0, 64, 0
3, 102400, Control_c, 0, 64, 127
3, 103680, Note_on_c, 0, 48, 0
3, 103680, Note_on_c, 0, 57, 0
3, 103680, Control_c, 0, 64, 0
3, 103680, Note_on_c, 0, 47, 36
3, 103680, Note_on_c, 0, 54, 36
3, 103827, Control_c, 0, 64, 127
3, 105120, Note_on_c, 0, 54, 0
3, 105120, Note_on_c, 0, 56, 36
3, 105136, Control_c, 0, 64, 0
3, 105293, Control_c, 0, 64, 127
3, 106560, Note_on_c, 0, 56, 0
3, 106560, Note_on_c, 0, 47, 0
3, 106560, Control_c, 0, 64, 0
3, 106560, Note_on_c, 0, 44, 36
3, 106560, Note_on_c, 0, 50, 36
3, 106707, Control_c, 0, 64, 127
3, 108000, Note_on_c, 0, 50, 0
3, 108000, Note_on_c, 0, 44, 0
3, 108000, Note_on_c, 0, 43, 36
3, 108000, Note_on_c, 0, 52, 36
3, 108015, Control_c, 0, 64, 0
3, 108160, Control_c, 0, 64, 127
3, 109440, Note_on_c, 0, 52, 0
3, 109440, Note_on_c, 0, 43, 0
3, 109440, Control_c, 0, 64, 0
3, 109440, Note_on_c, 0, 42, 47
3, 109440, Note_on_c, 0, 45, 58
3, 109560, Control_c, 0, 64, 127
3, 110160, Note_on_c, 0, 45, 0
3, 110160, Note_on_c, 0, 47, 55
3, 110170, Control_c, 0, 64, 0
3, 110280, Control_c, 0, 64, 127
3, 110880, Note_on_c, 0, 47, 0
3, 110880, Note_on_c, 0, 42, 0
3, 110880, Note_on_c, 0, 45, 46
3, 110880, Note_on_c, 0, 49, 57
3, 110893, Control_c, 0, 64, 0
3, 111067, Control_c, 0, 64, 127
3, 111360, Note_on_c, 0, 49, 0
3, 111360, Note_on_c, 0, 50, 54
3, 111600, Note_on_c, 0, 50, 0
3, 111600, Note_on_c, 0, 50, 54
3, 111614, Control_c, 0, 64, 0
3, 111827, Control_c, 0, 64, 127
3, 112320, Note_on_c, 0, 50, 0
3, 112320, Note_on_c, 0, 45, 0
3, 112320, Control_c, 0, 64, 0
3, 112320, Note_on_c, 0, 44, 49
3, 112320, Note_on_c, 0, 52, 58
3, 112520, Control_c, 0, 64, 127
3, 113040, Note_on_c, 0, 52, 0
3, 113040, Note_on_c, 0, 54, 57
3, 113050, Control_c, 0, 64, 0
3, 113213, Control_c, 0, 64, 127
3, 113760, Note_on_c, 0, 54, 0
3, 113760, Note_on_c, 0, 44, 0
3, 113760, Note_on_c, 0, 50, 52
3, 113760, Note_on_c, 0, 55, 67
3, 113772, Control_c, 0, 64, 0
3, 113886, Control_c, 0, 64, 127
3, 114240, Note_on_c, 0, 55, 0
3, 114240, Note_on_c, 0, 56, 59
3, 114480, Note_on_c, 0, 56, 0
3, 114480, Note_on_c, 0, 56, 59
3, 114492, Control_c, 0, 64, 0
3, 114640, Control_c, 0, 64, 127
3, 115200, Note_on_c, 0, 56, 0
3, 115200, Note_on_c, 0, 50, 0
3, 115200, Control_c, 0, 64, 0
3, 115200, Note_on_c, 0, 49, 54
3, 115200, Note_on_c, 0, 56, 70
3, 115333, Control_c, 0, 64, 127
3, 115920, Note_on_c, 0, 56, 0
3, 115920, Note_on_c, 0, 57, 66
3, 115932, Control_c, 0, 64, 0
3, 116120, Control_c, 0, 64, 127
3, 116640, Note_on_c, 0, 57, 0
3, 116640, Note_on_c, 0, 49, 0
3, 116640, Note_on_c, 0, 54, 69
3, 116640, Note_on_c, 0, 59, 69
3, 116652, Control_c, 0, 64, 0
3, 116766, Control_c, 0, 64, 127
3, 117120, Note_on_c, 0, 59, 0
3, 117120, Note_on_c, 0, 60, 63
3, 117360, Note_on_c, 0, 60, 0
3, 117360, Note_on_c, 0, 60, 63
3, 117370, Control_c, 0, 64, 0
3, 117577, Control_c, 0, 64, 127
3, 118080, Note_on_c, 0, 60, 0
3, 118080, Note_on_c, 0, 54, 0
3, 118080, Control_c, 0, 64, 0
3, 118080, Note_on_c, 0, 52, 60
3, 118080, Note_on_c, 0, 61, 68
3, 118253, Control_c, 0, 64, 127
3, 118800, Note_on_c, 0, 61, 0
3, 118800, Note_on_c, 0, 66, 68
3, 118809, Control_c, 0, 64, 0
3, 118960, Control_c, 0, 64, 127
3, 119280, Note_on_c, 0, 66, 0
3, 119280, Note_on_c, 0, 64, 55
3, 119520, Note_on_c, 0, 64, 0
3, 119520, Note_on_c, 0, 52, 0
3, 119520, Note_on_c, 0, 52, 45
3, 119520, Note_on_c, 0, 62, 49
3, 119534, Control_c, 0, 64, 0
3, 119707, Control_c, 0, 64, 127
3, 120240, Note_on_c, 0, 62, 0
3, 120240, Note_on_c, 0, 52, 0
3, 120240, Note_on_c, 0, 57, 43
3, 120240, Note_on_c, 0, 61, 46
3, 120255, Control_c, 0, 64, 0
3, 120493, Control_c, 0, 64, 127
3, 120960, Note_on_c, 0, 61, 0
3, 120960, Note_on_c, 0, 57, 0
3, 120960, Control_c, 0, 64, 0
3, 120960, Note_on_c, 0, 57, 41
3, 120960, Note_on_c, 0, 49, 41
3, 121173, Control_c, 0, 64, 127
3, 122400, Note_on_c, 0, 49, 0
3, 122400, Note_on_c, 0, 50, 41
3, 122412, Control_c, 0, 64, 0
3, 122547, Control_c, 0, 64, 127
3, 123840, Note_on_c, 0, 50, 0
3, 123840, Note_on_c, 0, 57, 0
3, 123840, Control_c, 0, 64, 0
3, 123840, Note_on_c, 0, 66, 55
3, 123840, Note_on_c, 0, 51, 41
3, 123973, Control_c, 0, 64, 127
3, 124560, Note_on_c, 0, 66, 0
3, 124560, Note_on_c, 0, 59, 51
3, 125280, Note_on_c, 0, 59, 0
3, 125280, Note_on_c, 0, 51, 0
3, 125280, Note_on_c, 0, 61, 53
3, 125280, Note_on_c, 0, 52, 48
3, 125292, Control_c, 0, 64, 0
3, 125427, Control_c, 0, 64, 127
3, 125760, Note_on_c, 0, 61, 0
3, 125760, Note_on_c, 0, 59, 50
3, 126000, Note_on_c, 0, 59, 0
3, 126000, Note_on_c, 0, 59, 50
3, 126016, Control_c, 0, 64, 0
3, 126213, Control_c, 0, 64, 127
3, 126720, Note_on_c, 0, 59, 0
3, 126720, Note_on_c, 0, 52, 0
3, 126720, Control_c, 0, 64, 0
3, 126720, Note_on_c, 0, 61, 43
3, 126720, Note_on_c, 0, 53, 43
3, 126960, Control_c, 0, 64, 127
3, 128160, Note_on_c, 0, 53, 0
3, 128160, Note_on_c, 0, 54, 43
3, 128175, Control_c, 0, 64, 0
3, 128307, Control_c, 0, 64, 127
3, 129600, Note_on_c, 0, 54, 0
3, 129600, Note_on_c, 0, 61, 0
3, 129600, Control_c, 0, 64, 0
3, 129600, Note_on_c, 0, 69, 57
3, 129600, Note_on_c, 0, 54, 43
3, 129827, Control_c, 0, 64, 127
3, 130320, Note_on_c, 0, 69, 0
3, 130320, Note_on_c, 0, 62, 53
3, 131040, Note_on_c, 0, 62, 0
3, 131040, Note_on_c, 0, 54, 0
3, 131040, Note_on_c, 0, 64, 55
3, 131040, Note_on_c, 0, 55, 50
3, 131049, Control_c, 0, 64, 0
3, 131187, Control_c, 0, 64, 127
3, 131520, Note_on_c, 0, 64, 0
3, 131520, Note_on_c, 0, 62, 52
3, 131760, Note_on_c, 0, 62, 0
3, 131760, Note_on_c, 0, 62, 52
3, 131777, Control_c, 0, 64, 0
3, 132027, Control_c, 0, 64, 127
3, 132480, Note_on_c, 0, 62, 0
3, 132480, Note_on_c, 0, 55, 0
3, 132480, Control_c, 0, 64, 0
3, 132480, Note_on_c, 0, 64, 47
3, 132480, Note_on_c, 0, 56, 47
3, 132720, Control_c, 0, 64, 127
3, 133920, Note_on_c, 0, 56, 0
3, 133920, Note_on_c, 0, 57, 47
3, 133933, Control_c, 0, 64, 0
3, 134107, Control_c, 0, 64, 127
3, 135360, Note_on_c, 0, 57, 0
3, 135360, Note_on_c, 0, 64, 0
3, 135360, Note_on_c, 0, 66, 51
3, 135360, Note_on_c, 0, 58, 46
3, 135387, Control_c, 0, 64, 0
3, 135600, Control_c, 0, 64, 127
3, 136800, Note_on_c, 0, 58, 0
3, 136800, Note_on_c, 0, 59, 47
3, 136812, Control_c, 0, 64, 0
3, 136947, Control_c, 0, 64, 127
3, 138240, Note_on_c, 0, 59, 0
3, 138240, Note_on_c, 0, 66, 0
3, 138240, Control_c, 0, 64, 0
3, 138240, Note_on_c, 0, 66, 63
3, 138240, Note_on_c, 0, 52, 51
3, 138480, Control_c, 0, 64, 127
3, 138960, Note_on_c, 0, 66, 0
3, 138960, Note_on_c, 0, 59, 56
3, 139680, Note_on_c, 0, 59, 0
3, 139680, Note_on_c, 0, 66, 60
3, 139693, Control_c, 0, 64, 0
3, 139827, Control_c, 0, 64, 127
3, 140160, Note_on_c, 0, 66, 0
3, 140160, Note_on_c, 0, 64, 54
3, 140400, Note_on_c, 0, 64, 0
3, 140400, Note_on_c, 0, 64, 54
3, 141120, Note_on_c, 0, 64, 0
3, 141120, Note_on_c, 0, 52, 0
3, 141120, Control_c, 0, 64, 0
3, 141120, Note_on_c, 0, 52, 45
3, 141120, Note_on_c, 0, 46, 45
3, 141347, Control_c, 0, 64, 127
3, 142560, Note_on_c, 0, 46, 0
3, 142560, Note_on_c, 0, 45, 39
3, 142573, Control_c, 0, 64, 0
3, 142707, Control_c, 0, 64, 127
3, 144000, Note_on_c, 0, 45, 0
3, 144000, Note_on_c, 0, 52, 0
3, 144000, Control_c, 0, 64, 0
3, 144000, Note_on_c, 0, 57, 36
3, 144000, Note_on_c, 0, 50, 36
3, 144240, Control_c, 0, 64, 127
3, 145452, Control_c, 0, 64, 0
3, 145707, Control_c, 0, 64, 127
3, 146880, Note_on_c, 0, 50, 0
3, 146880, Note_on_c, 0, 57, 0
3, 146880, Control_c, 0, 64, 0
3, 146880, Note_on_c, 0, 49, 36
3, 146880, Note_on_c, 0, 57, 36
3, 147080, Control_c, 0, 64, 127
3, 148320, Note_on_c, 0, 49, 0
3, 148320, Note_on_c, 0, 48, 36
3, 148330, Control_c, 0, 64, 0
3, 148520, Control_c, 0, 64, 127
3, 149760, Note_on_c, 0, 48, 0
3, 149760, Note_on_c, 0, 57, 0
3, 149760, Control_c, 0, 64, 0
3, 149760, Note_on_c, 0, 47, 36
3, 149760, Note_on_c, 0, 54, 36
3, 150080, Control_c, 0, 64, 127
3, 151200, Note_on_c, 0, 54, 0
3, 151200, Note_on_c, 0, 56, 36
3, 151214, Control_c, 0, 64, 0
3, 151373, Control_c, 0, 64, 127
3, 152640, Note_on_c, 0, 56, 0
3, 152640, Note_on_c, 0, 47, 0
3, 152640, Control_c, 0, 64, 0
3, 152640, Note_on_c, 0, 44, 36
3, 152640, Note_on_c, 0, 50, 36
3, 152787, Control_c, 0, 64, 127
3, 154080, Note_on_c, 0, 50, 0
3, 154080, Note_on_c, 0, 44, 0
3, 154080, Note_on_c, 0, 43, 36
3, 154080, Note_on_c, 0, 52, 36
3, 154094, Control_c, 0, 64, 0
3, 154280, Control_c, 0, 64, 127
3, 155520, Note_on_c, 0, 52, 0
3, 155520, Note_on_c, 0, 43, 0
3, 155520, Control_c, 0, 64, 0
3, 155520, Note_on_c, 0, 42, 47
3, 155520, Note_on_c, 0, 45, 58
3, 155693, Control_c, 0, 64, 127
3, 156240, Note_on_c, 0, 45, 0
3, 156240, Note_on_c, 0, 47, 55
3, 156258, Control_c, 0, 64, 0
3, 156453, Control_c, 0, 64, 127
3, 156960, Note_on_c, 0, 47, 0
3, 156960, Note_on_c, 0, 42, 0
3, 156960, Note_on_c, 0, 45, 46
3, 156960, Note_on_c, 0, 47, 57
3, 156971, Control_c, 0, 64, 0
3, 157147, Control_c, 0, 64, 127
3, 157440, Note_on_c, 0, 47, 0
3, 157440, Note_on_c, 0, 48, 54
3, 157680, Note_on_c, 0, 48, 0
3, 157680, Note_on_c, 0, 48, 54
3, 157696, Control_c, 0, 64, 0
3, 157886, Control_c, 0, 64, 127
3, 158400, Note_on_c, 0, 48, 0
3, 158400, Note_on_c, 0, 45, 0
3, 158400, Control_c, 0, 64, 0
3, 158400, Note_on_c, 0, 43, 49
3, 158400, Note_on_c, 0, 46, 61
3, 158600, Control_c, 0, 64, 127
3, 159120, Note_on_c, 0, 46, 0
3, 159120, Note_on_c, 0, 47, 57
3, 159137, Control_c, 0, 64, 0
3, 159320, Control_c, 0, 64, 127
3, 159840, Note_on_c, 0, 47, 0
3, 159840, Note_on_c, 0, 43, 0
3, 159840, Note_on_c, 0, 44, 48
3, 159840, Note_on_c, 0, 49, 60
3, 159851, Control_c, 0, 64, 0
3, 160027, Control_c, 0, 64, 127
3, 160320, Note_on_c, 0, 49, 0
3, 160320, Note_on_c, 0, 50, 56
3, 160560, Note_on_c, 0, 50, 0
3, 160560, Note_on_c, 0, 50, 56
3, 160577, Control_c, 0, 64, 0
3, 160720, Control_c, 0, 64, 127
3, 161280, Note_on_c, 0, 50, 0
3, 161280, Note_on_c, 0, 44, 0
3, 161280, Control_c, 0, 64, 0
3, 161280, Note_on_c, 0, 45, 51
3, 161280, Note_on_c, 0, 50, 64
3, 161480, Control_c, 0, 64, 127
3, 162000, Note_on_c, 0, 50, 0
3, 162000, Note_on_c, 0, 51, 59
3, 162015, Control_c, 0, 64, 0
3, 162227, Control_c, 0, 64, 127
3, 162720, Note_on_c, 0, 51, 0
3, 162720, Note_on_c, 0, 45, 0
3, 162720, Note_on_c, 0, 43, 50
3, 162720, Note_on_c, 0, 57, 63
3, 162730, Control_c, 0, 64, 0
3, 162907, Control_c, 0, 64, 127
3, 163200, Note_on_c, 0, 57, 0
3, 163200, Note_on_c, 0, 55, 57
3, 163440, Note_on_c, 0, 55, 0
3, 163440, Note_on_c, 0, 55, 57
3, 163452, Control_c, 0, 64, 0
3, 163627, Control_c, 0, 64, 127
3, 164160, Note_on_c, 0, 55, 0
3, 164160, Note_on_c, 0, 43, 0
3, 164160, Control_c, 0, 64, 0
3, 164160, Note_on_c, 0, 45, 45
3, 164160, Note_on_c, 0, 54, 54
3, 164347, Control_c, 0, 64, 127
3, 164640, Note_on_c, 0, 54, 0
3, 164640, Note_on_c, 0, 52, 50
3, 164880, Note_on_c, 0, 52, 0
3, 164880, Note_on_c, 0, 52, 50
3, 164895, Control_c, 0, 64, 0
3, 165067, Control_c, 0, 64, 127
3, 165600, Note_on_c, 0, 52, 0
3, 165600, Note_on_c, 0, 45, 0
3, 165600, Note_on_c, 0, 38, 40
3, 165600, Note_on_c, 0, 46, 48
3, 165615, Control_c, 0, 64, 0
3, 165787, Control_c, 0, 64, 127
3, 166080, Note_on_c, 0, 46, 0
3, 166080, Note_on_c, 0, 45, 44
3, 166320, Note_on_c, 0, 45, 0
3, 166320, Note_on_c, 0, 45, 44
3, 166330, Control_c, 0, 64, 0
3, 166493, Control_c, 0, 64, 127
3, 167040, Note_on_c, 0, 45, 0
3, 167040, Note_on_c, 0, 38, 0
3, 167040, Control_c, 0, 64, 0
3, 167040, Note_on_c, 0, 62, 46
3, 167040, Note_on_c, 0, 54, 34
3, 167267, Control_c, 0, 64, 127
3, 167760, Note_on_c, 0, 62, 0
3, 167760, Note_on_c, 0, 61, 43
3, 167775, Control_c, 0, 64, 0
3, 167947, Control_c, 0, 64, 127
3, 168480, Note_on_c, 0, 61, 0
3, 168480, Note_on_c, 0, 59, 44
3, 168492, Control_c, 0, 64, 0
3, 168627, Control_c, 0, 64, 127
3, 169200, Note_on_c, 0, 59, 0
3, 169200, Note_on_c, 0, 58, 41
3, 169213, Control_c, 0, 64, 0
3, 169373, Control_c, 0, 64, 127
3, 169920, Note_on_c, 0, 58, 0
3, 169920, Note_on_c, 0, 54, 0
3, 169920, Control_c, 0, 64, 0
3, 169920, Note_on_c, 0, 54, 55
3, 169920, Note_on_c, 0, 56, 34
3, 170080, Control_c, 0, 64, 127
3, 170640, Note_on_c, 0, 56, 0
3, 170640, Note_on_c, 0, 58, 51
3, 170659, Control_c, 0, 64, 0
3, 170813, Control_c, 0, 64, 127
3, 171360, Note_on_c, 0, 58, 0
3, 171360, Note_on_c, 0, 59, 53
3, 171375, Control_c, 0, 64, 0
3, 171507, Control_c, 0, 64, 127
3, 171840, Note_on_c, 0, 59, 0
3, 171840, Note_on_c, 0, 61, 49
3, 172080, Note_on_c, 0, 61, 0
3, 172080, Note_on_c, 0, 61, 49
3, 172090, Control_c, 0, 64, 0
3, 172227, Control_c, 0, 64, 127
3, 172800, Note_on_c, 0, 61, 0
3, 172800, Note_on_c, 0, 54, 0
3, 172800, Control_c, 0, 64, 0
3, 172800, Note_on_c, 0, 74, 46
3, 172800, Note_on_c, 0, 66, 34
3, 173027, Control_c, 0, 64, 127
3, 173520, Note_on_c, 0, 74, 0
3, 173520, Note_on_c, 0, 73, 43
3, 173530, Control_c, 0, 64, 0
3, 173747, Control_c, 0, 64, 127
3, 174240, Note_on_c, 0, 73, 0
3, 174240, Note_on_c, 0, 71, 44
3, 174251, Control_c, 0, 64, 0
3, 174387, Control_c, 0, 64, 127
3, 174720, Note_on_c, 0, 71, 0
3, 174720, Note_on_c, 0, 70, 41
3, 174960, Note_on_c, 0, 70, 0
3, 174960, Note_on_c, 0, 70, 41
3, 174976, Control_c, 0, 64, 0
3, 175143, Control_c, 0, 64, 127
3, 175680, Note_on_c, 0, 70, 0
3, 175680, Note_on_c, 0, 66, 0
3, 175680, Control_c, 0, 64, 0
3, 175680, Note_on_c, 0, 66, 55
3, 175680, Note_on_c, 0, 68, 34
3, 175760, Control_c, 0, 64, 127
3, 176400, Note_on_c, 0, 68, 0
3, 176400, Note_on_c, 0, 70, 51
3, 176421, Control_c, 0, 64, 0
3, 176600, Control_c, 0, 64, 127
3, 177120, Note_on_c, 0, 70, 0
3, 177120, Note_on_c, 0, 71, 55
3, 177130, Control_c, 0, 64, 0
3, 177267, Control_c, 0, 64, 127
3, 177600, Note_on_c, 0, 71, 0
3, 177600, Note_on_c, 0, 73, 51
3, 177840, Note_on_c, 0, 73, 0
3, 177840, Note_on_c, 0, 73, 51
3, 177857, Control_c, 0, 64, 0
3, 177987, Control_c, 0, 64, 127
3, 178560, Note_on_c, 0, 73, 0
3, 178560, Note_on_c, 0, 66, 0
3, 178560, Control_c, 0, 64, 0
3, 178560, Note_on_c, 0, 67, 36
3, 178560, Note_on_c, 0, 73, 27
3, 178787, Control_c, 0, 64, 127
3, 179280, Note_on_c, 0, 67, 0
3, 179280, Note_on_c, 0, 66, 34
3, 179298, Control_c, 0, 64, 0
3, 179406, Control_c, 0, 64, 127
3, 180000, Note_on_c, 0, 66, 0
3, 180000, Note_on_c, 0, 73, 0
3, 180000, Control_c, 0, 64, 0
3, 180000, Note_on_c, 0, 67, 39
3, 180160, Control_c, 0, 64, 127
3, 180480, Note_on_c, 0, 67, 0
3, 180480, Note_on_c, 0, 66, 35
3, 180720, Note_on_c, 0, 66, 0
3, 180720, Note_on_c, 0, 66, 35
3, 180733, Control_c, 0, 64, 0
3, 180813, Control_c, 0, 64, 127
3, 181440, Note_on_c, 0, 66, 0
3, 181440, Control_c, 0, 64, 0
3, 181440, Note_on_c, 0, 55, 36
3, 181440, Note_on_c, 0, 61, 27
3, 181667, Control_c, 0, 64, 127
3, 182160, Note_on_c, 0, 55, 0
3, 182160, Note_on_c, 0, 54, 34
3, 182176, Control_c, 0, 64, 0
3, 182286, Control_c, 0, 64, 127
3, 182880, Note_on_c, 0, 54, 0
3, 182880, Note_on_c, 0, 61, 0
3, 182880, Control_c, 0, 64, 0
3, 182880, Note_on_c, 0, 55, 35
3, 183040, Control_c, 0, 64, 127
3, 183360, Note_on_c, 0, 55, 0
3, 183360, Note_on_c, 0, 54, 29
3, 183600, Note_on_c, 0, 54, 0
3, 183600, Note_on_c, 0, 54, 30
3, 183612, Control_c, 0, 64, 0
3, 183747, Control_c, 0, 64, 127
3, 184320, Note_on_c, 0, 54, 0
3, 184320, Control_c, 0, 64, 0
3, 184320, Note_on_c, 0, 55, 33
3, 184480, Control_c, 0, 64, 127
3, 184800, Note_on_c, 0, 55, 0
3, 184800, Note_on_c, 0, 54, 29
3, 185040, Note_on_c, 0, 54, 0
3, 185040, Note_on_c, 0, 54, 29
3, 185048, Control_c, 0, 64, 0
3, 185187, Control_c, 0, 64, 127
3, 185760, Note_on_c, 0, 54, 0
3, 185760, Control_c, 0, 64, 0
3, 185760, Note_on_c, 0, 55, 31
3, 185920, Control_c, 0, 64, 127
3, 186240, Note_on_c, 0, 55, 0
3, 186240, Note_on_c, 0, 54, 26
3, 186480, Note_on_c, 0, 54, 0
3, 186480, Control_c, 0, 64, 0
3, 186480, Note_on_c, 0, 54, 26
3, 186720, Note_on_c, 0, 54, 0
3, 186720, Control_c, 0, 64, 127
3, 186720, Note_on_c, 0, 62, 45
3, 186960, Note_on_c, 0, 62, 0
3, 186960, Note_on_c, 0, 61, 43
3, 187200, Note_on_c, 0, 61, 0
3, 187200, Note_on_c, 0, 62, 45
3, 187213, Control_c, 0, 64, 0
3, 187280, Control_c, 0, 64, 127
3, 187440, Note_on_c, 0, 47, 38
3, 187680, Note_on_c, 0, 47, 0
3, 187680, Note_on_c, 0, 62, 0
3, 187680, Note_on_c, 0, 61, 43
3, 187690, Control_c, 0, 64, 0
3, 187920, Note_on_c, 0, 61, 0
3, 187920, Note_on_c, 0, 47, 37
3, 188160, Note_on_c, 0, 47, 0
3, 188160, Note_on_c, 0, 59, 44
3, 188263, Control_c, 0, 64, 127
3, 188400, Note_on_c, 0, 59, 0
3, 188400, Note_on_c, 0, 58, 42
3, 188640, Note_on_c, 0, 58, 0
3, 188640, Note_on_c, 0, 59, 45
3, 188654, Control_c, 0, 64, 0
3, 188731, Control_c, 0, 64, 127
3, 188880, Note_on_c, 0, 47, 39
3, 189120, Note_on_c, 0, 47, 0
3, 189120, Note_on_c, 0, 59, 0
3, 189120, Note_on_c, 0, 58, 44
3, 189131, Control_c, 0, 64, 0
3, 189360, Note_on_c, 0, 58, 0
3, 189360, Note_on_c, 0, 47, 38
3, 189600, Note_on_c, 0, 47, 0
3, 189600, Note_on_c, 0, 57, 44
3, 189680, Control_c, 0, 64, 127
3, 189840, Note_on_c, 0, 57, 0
3, 189840, Note_on_c, 0, 56, 41
3, 190080, Note_on_c, 0, 56, 0
3, 190080, Note_on_c, 0, 57, 45
3, 190092, Control_c, 0, 64, 0
3, 190194, Control_c, 0, 64, 127
3, 190320, Note_on_c, 0, 47, 38
3, 190560, Note_on_c, 0, 47, 0
3, 190560, Note_on_c, 0, 57, 0
3, 190560, Note_on_c, 0, 56, 44
3, 190575, Control_c, 0, 64, 0
3, 190800, Note_on_c, 0, 56, 0
3, 190800, Note_on_c, 0, 47, 35
3, 191040, Note_on_c, 0, 47, 0
3, 191040, Note_on_c, 0, 55, 45
3, 191063, Control_c, 0, 64, 127
3, 191280, Note_on_c, 0, 55, 0
3, 191280, Note_on_c, 0, 47, 43
3, 191520, Note_on_c, 0, 47, 0
3, 191520, Note_on_c, 0, 54, 49
3, 191532, Control_c, 0, 64, 0
3, 191634, Control_c, 0, 64, 127
3, 191760, Note_on_c, 0, 54, 0
3, 191760, Note_on_c, 0, 47, 50
3, 192000, Note_on_c, 0, 47, 0
3, 192000, Note_on_c, 0, 52, 47
3, 192017, Control_c, 0, 64, 0
3, 192240, Note_on_c, 0, 52, 0
3, 192240, Note_on_c, 0, 47, 44
3, 192240, Note_on_c, 0, 50, 44
3, 192480, Note_on_c, 0, 50, 0
3, 192480, Note_on_c, 0, 47, 0
3, 192480, Note_on_c, 0, 53, 52
3, 192600, Note_on_c, 0, 53, 0
3, 192720, Note_on_c, 0, 54, 54
3, 192840, Note_on_c, 0, 54, 0
3, 192960, Note_on_c, 0, 55, 59
3, 193023, Control_c, 0, 64, 127
3, 193680, Note_on_c, 0, 55, 0
3, 193680, Note_on_c, 0, 43, 49
3, 193685, Control_c, 0, 64, 0
3, 193920, Note_on_c, 0, 43, 0
3, 193920, Note_on_c, 0, 45, 51
3, 194040, Note_on_c, 0, 45, 0
3, 194160, Note_on_c, 0, 43, 49
3, 194280, Note_on_c, 0, 43, 0
3, 194400, Note_on_c, 0, 42, 51
3, 194463, Control_c, 0, 64, 127
3, 195120, Note_on_c, 0, 42, 0
3, 195120, Note_on_c, 0, 47, 48
3, 195138, Control_c, 0, 64, 0
3, 195360, Note_on_c, 0, 47, 0
3, 195360, Note_on_c, 0, 53, 51
3, 195480, Note_on_c, 0, 53, 0
3, 195600, Note_on_c, 0, 54, 54
3, 195720, Note_on_c, 0, 54, 0
3, 195840, Note_on_c, 0, 55, 58
3, 195874, Control_c, 0, 64, 127
3, 196560, Note_on_c, 0, 55, 0
3, 196560, Note_on_c, 0, 43, 49
3, 196578, Control_c, 0, 64, 0
3, 196800, Note_on_c, 0, 43, 0
3, 196800, Note_on_c, 0, 45, 51
3, 196920, Note_on_c, 0, 45, 0
3, 197040, Note_on_c, 0, 43, 49
3, 197160, Note_on_c, 0, 43, 0
3, 197280, Note_on_c, 0, 42, 49
3, 197320, Control_c, 0, 64, 127
3, 198000, Note_on_c, 0, 42, 0
3, 198000, Note_on_c, 0, 47, 49
3, 198004, Control_c, 0, 64, 0
3, 198120, Note_on_c, 0, 47, 0
3, 198240, Note_on_c, 0, 62, 45
3, 198366, Control_c, 0, 64, 127
3, 198480, Note_on_c, 0, 62, 0
3, 198480, Note_on_c, 0, 61, 43
3, 198720, Note_on_c, 0, 61, 0
3, 198720, Note_on_c, 0, 62, 45
3, 198732, Control_c, 0, 64, 0
3, 198804, Control_c, 0, 64, 127
3, 198960, Note_on_c, 0, 47, 41
3, 199200, Note_on_c, 0, 47, 0
3, 199200, Note_on_c, 0, 62, 0
3, 199200, Note_on_c, 0, 61, 43
3, 199216, Control_c, 0, 64, 0
3, 199440, Note_on_c, 0, 61, 0
3, 199440, Note_on_c, 0, 47, 37
3, 199680, Note_on_c, 0, 47, 0
3, 199680, Note_on_c, 0, 59, 44
3, 199783, Control_c, 0, 64, 127
3, 199920, Note_on_c, 0, 59, 0
3, 199920, Note_on_c, 0, 58, 42
3, 200160, Note_on_c, 0, 58, 0
3, 200160, Note_on_c, 0, 59, 45
3, 200172, Control_c, 0, 64, 0
3, 200251, Control_c, 0, 64, 127
3, 200400, Note_on_c, 0, 47, 40
3, 200640, Note_on_c, 0, 47, 0
3, 200640, Note_on_c, 0, 59, 0
3, 200640, Note_on_c, 0, 58, 44
3, 200651, Control_c, 0, 64, 0
3, 200880, Note_on_c, 0, 58, 0
3, 200880, Note_on_c, 0, 47, 36
3, 201120, Note_on_c, 0, 47, 0
3, 201120, Note_on_c, 0, 57, 44
3, 201200, Control_c, 0, 64, 127
3, 201360, Note_on_c, 0, 57, 0
3, 201360, Note_on_c, 0, 56, 41
3, 201600, Note_on_c, 0, 56, 0
3, 201600, Note_on_c, 0, 57, 45
3, 201613, Control_c, 0, 64, 0
3, 201714, Control_c, 0, 64, 127
3, 201840, Note_on_c, 0, 47, 42
3, 202080, Note_on_c, 0, 47, 0
3, 202080, Note_on_c, 0, 57, 0
3, 202080, Note_on_c, 0, 56, 44
3, 202096, Control_c, 0, 64, 0
3, 202320, Note_on_c, 0, 56, 0
3, 202320, Note_on_c, 0, 47, 38
3, 202560, Note_on_c, 0, 47, 0
3, 202560, Note_on_c, 0, 55, 45
3, 202583, Control_c, 0, 64, 127
3, 202800, Note_on_c, 0, 55, 0
3, 202800, Note_on_c, 0, 47, 43
3, 203040, Note_on_c, 0, 47, 0
3, 203040, Note_on_c, 0, 54, 49
3, 203047, Control_c, 0, 64, 0
3, 203154, Control_c, 0, 64, 127
3, 203280, Note_on_c, 0, 54, 0
3, 203280, Note_on_c, 0, 47, 50
3, 203520, Note_on_c, 0, 47, 0
3, 203520, Note_on_c, 0, 52, 47
3, 203526, Control_c, 0, 64, 0
3, 203760, Note_on_c, 0, 52, 0
3, 203760, Note_on_c, 0, 47, 44
3, 203760, Note_on_c, 0, 50, 44
3, 204000, Note_on_c, 0, 50, 0
3, 204000, Note_on_c, 0, 47, 0
3, 204000, Note_on_c, 0, 53, 52
3, 204120, Note_on_c, 0, 53, 0
3, 204240, Note_on_c, 0, 54, 54
3, 204360, Note_on_c, 0, 54, 0
3, 204480, Note_on_c, 0, 55, 59
3, 204543, Control_c, 0, 64, 127
3, 205200, Note_on_c, 0, 55, 0
3, 205200, Note_on_c, 0, 43, 49
3, 205207, Control_c, 0, 64, 0
3, 205440, Note_on_c, 0, 43, 0
3, 205440, Note_on_c, 0, 45, 51
3, 205560, Note_on_c, 0, 45, 0
3, 205680, Note_on_c, 0, 43, 49
3, 205800, Note_on_c, 0, 43, 0
3, 205920, Note_on_c, 0, 42, 51
3, 205983, Control_c, 0, 64, 127
3, 206640, Note_on_c, 0, 42, 0
3, 206640, Note_on_c, 0, 47, 48
3, 206650, Control_c, 0, 64, 0
3, 206880, Note_on_c, 0, 47, 0
3, 206880, Note_on_c, 0, 53, 51
3, 207000, Note_on_c, 0, 53, 0
3, 207120, Note_on_c, 0, 54, 54
3, 207240, Note_on_c, 0, 54, 0
3, 207360, Note_on_c, 0, 55, 60
3, 207394, Control_c, 0, 64, 127
3, 208094, Control_c, 0, 64, 0
3, 208320, Note_on_c, 0, 55, 0
3, 208320, Note_on_c, 0, 56, 67
3, 208624, Control_c, 0, 64, 127
3, 208800, Note_on_c, 0, 56, 0
3, 208800, Note_on_c, 0, 61, 66
3, 209057, Control_c, 0, 64, 0
3, 209164, Control_c, 0, 64, 127
3, 209280, Note_on_c, 0, 61, 0
3, 209280, Note_on_c, 0, 68, 68
3, 209520, Note_on_c, 0, 68, 0
3, 209520, Note_on_c, 0, 66, 61
3, 209528, Control_c, 0, 64, 0
3, 209700, Note_on_c, 0, 66, 0
3, 209760, Note_on_c, 0, 74, 45
3, 209843, Control_c, 0, 64, 127
3, 210000, Note_on_c, 0, 74, 0
3, 210000, Note_on_c, 0, 73, 43
3, 210240, Note_on_c, 0, 73, 0
3, 210240, Note_on_c, 0, 74, 45
3, 210254, Control_c, 0, 64, 0
3, 210366, Control_c, 0, 64, 127
3, 210480, Note_on_c, 0, 66, 36
3, 210720, Note_on_c, 0, 66, 0
3, 210720, Note_on_c, 0, 74, 0
3, 210720, Note_on_c, 0, 73, 43
3, 210731, Control_c, 0, 64, 0
3, 210960, Note_on_c, 0, 73, 0
3, 210960, Note_on_c, 0, 66, 33
3, 211200, Note_on_c, 0, 71, 44
3, 211303, Control_c, 0, 64, 127
3, 211440, Note_on_c, 0, 71, 0
3, 211440, Note_on_c, 0, 70, 42
3, 211680, Note_on_c, 0, 70, 0
3, 211680, Note_on_c, 0, 71, 45
3, 211688, Control_c, 0, 64, 0
3, 211771, Control_c, 0, 64, 127
3, 211920, Note_on_c, 0, 66, 0
3, 211920, Note_on_c, 0, 66, 39
3, 212160, Note_on_c, 0, 66, 0
3, 212160, Note_on_c, 0, 71, 0
3, 212160, Note_on_c, 0, 70, 44
3, 212176, Control_c, 0, 64, 0
3, 212400, Note_on_c, 0, 70, 0
3, 212400, Note_on_c, 0, 66, 37
3, 212640, Note_on_c, 0, 66, 0
3, 212640, Note_on_c, 0, 64, 60
3, 212640, Note_on_c, 0, 69, 60
3, 212720, Control_c, 0, 64, 127
3, 213360, Note_on_c, 0, 69, 0
3, 213360, Note_on_c, 0, 64, 0
3, 213360, Note_on_c, 0, 64, 53
3, 213360, Note_on_c, 0, 57, 53
3, 213370, Control_c, 0, 64, 0
3, 213474, Control_c, 0, 64, 127
3, 214080, Note_on_c, 0, 57, 0
3, 214080, Note_on_c, 0, 64, 0
3, 214080, Note_on_c, 0, 54, 53
3, 214080, Note_on_c, 0, 57, 53
3, 214091, Control_c, 0, 64, 0
3, 214251, Control_c, 0, 64, 127
3, 214560, Control_c, 0, 64, 0
3, 214800, Note_on_c, 0, 57, 0
3, 214800, Note_on_c, 0, 54, 0
3, 214800, Note_on_c, 0, 48, 53
3, 214920, Note_on_c, 0, 48, 0
3, 215034, Control_c, 0, 64, 127
3, 215040, Note_on_c, 0, 47, 46
3, 215160, Note_on_c, 0, 47, 0
3, 215280, Note_on_c, 0, 52, 53
3, 215290, Control_c, 0, 64, 0
3, 215400, Note_on_c, 0, 52, 0
3, 215520, Note_on_c, 0, 79, 45
3, 215691, Control_c, 0, 64, 127
3, 215760, Note_on_c, 0, 79, 0
3, 215760, Note_on_c, 0, 78, 43
3, 216000, Note_on_c, 0, 78, 0
3, 216000, Note_on_c, 0, 79, 45
3, 216011, Control_c, 0, 64, 0
3, 216088, Control_c, 0, 64, 127
3, 216240, Note_on_c, 0, 71, 41
3, 216480, Note_on_c, 0, 71, 0
3, 216480, Note_on_c, 0, 79, 0
3, 216480, Note_on_c, 0, 78, 43
3, 216488, Control_c, 0, 64, 0
3, 216720, Note_on_c, 0, 78, 0
3, 216720, Note_on_c, 0, 71, 38
3, 216960, Note_on_c, 0, 76, 44
3, 217040, Control_c, 0, 64, 127
3, 217200, Note_on_c, 0, 76, 0
3, 217200, Note_on_c, 0, 75, 42
3, 217440, Note_on_c, 0, 75, 0
3, 217440, Note_on_c, 0, 76, 45
3, 217456, Control_c, 0, 64, 0
3, 217531, Control_c, 0, 64, 127
3, 217680, Note_on_c, 0, 71, 0
3, 217680, Note_on_c, 0, 71, 39
3, 217920, Note_on_c, 0, 71, 0
3, 217920, Note_on_c, 0, 76, 0
3, 217920, Note_on_c, 0, 75, 44
3, 217938, Control_c, 0, 64, 0
3, 218160, Note_on_c, 0, 75, 0
3, 218160, Note_on_c, 0, 71, 34
3, 218400, Note_on_c, 0, 71, 0
3, 218400, Note_on_c, 0, 69, 60
3, 218400, Note_on_c, 0, 74, 60
3, 218480, Control_c, 0, 64, 127
3, 219120, Note_on_c, 0, 74, 0
3, 219120, Note_on_c, 0, 69, 0
3, 219120, Note_on_c, 0, 69, 53
3, 219120, Note_on_c, 0, 62, 53
3, 219134, Control_c, 0, 64, 0
3, 219223, Control_c, 0, 64, 127
3, 219840, Note_on_c, 0, 62, 0
3, 219840, Note_on_c, 0, 69, 0
3, 219840, Note_on_c, 0, 59, 53
3, 219840, Note_on_c, 0, 62, 53
3, 219846, Control_c, 0, 64, 0
3, 220011, Control_c, 0, 64, 127
3, 220320, Control_c, 0, 64, 0
3, 220560, Note_on_c, 0, 62, 0
3, 220560, Note_on_c, 0, 59, 0
3, 220560, Note_on_c, 0, 53, 53
3, 220680, Note_on_c, 0, 53, 0
3, 220794, Control_c, 0, 64, 127
3, 220800, Note_on_c, 0, 52, 40
3, 220920, Note_on_c, 0, 52, 0
3, 221040, Note_on_c, 0, 45, 47
3, 221051, Control_c, 0, 64, 0
3, 221160, Note_on_c, 0, 45, 0
3, 221280, Note_on_c, 0, 53, 37
3, 221343, Control_c, 0, 64, 127
3, 221400, Note_on_c, 0, 53, 0
3, 221520, Note_on_c, 0, 52, 37
3, 221640, Note_on_c, 0, 52, 0
3, 221760, Note_on_c, 0, 45, 43
3, 221769, Control_c, 0, 64, 0
3, 221857, Control_c, 0, 64, 127
3, 221880, Note_on_c, 0, 45, 0
3, 222000, Note_on_c, 0, 53, 37
3, 222120, Note_on_c, 0, 53, 0
3, 222240, Note_on_c, 0, 52, 37
3, 222360, Note_on_c, 0, 52, 0
3, 222480, Note_on_c, 0, 45, 43
3, 222497, Control_c, 0, 64, 0
3, 222600, Note_on_c, 0, 45, 0
3, 222720, Note_on_c, 0, 53, 37
3, 222800, Control_c, 0, 64, 127
3, 222840, Note_on_c, 0, 53, 0
3, 222960, Note_on_c, 0, 52, 37
3, 223080, Note_on_c, 0, 52, 0
3, 223200, Note_on_c, 0, 45, 43
3, 223211, Control_c, 0, 64, 0
3, 223217, Control_c, 0, 64, 0
3, 223251, Control_c, 0, 64, 127
3, 223320, Note_on_c, 0, 45, 0
3, 223440, Note_on_c, 0, 53, 38
3, 223560, Note_on_c, 0, 53, 0
3, 223680, Note_on_c, 0, 52, 38
3, 223686, Control_c, 0, 64, 0
3, 223800, Note_on_c, 0, 52, 0
3, 223920, Note_on_c, 0, 45, 45
3, 224040, Note_on_c, 0, 45, 0
3, 224160, Note_on_c, 0, 57, 39
3, 224234, Control_c, 0, 64, 127
3, 224280, Note_on_c, 0, 57, 0
3, 224400, Note_on_c, 0, 56, 39
3, 224520, Note_on_c, 0, 56, 0
3, 224640, Note_on_c, 0, 48, 48
3, 224648, Control_c, 0, 64, 0
3, 224694, Control_c, 0, 64, 127
3, 224760, Note_on_c, 0, 48, 0
3, 224880, Note_on_c, 0, 57, 44
3, 225000, Note_on_c, 0, 57, 0
3, 225120, Note_on_c, 0, 56, 44
3, 225240, Note_on_c, 0, 56, 0
3, 225360, Note_on_c, 0, 48, 47
3, 225377, Control_c, 0, 64, 0
3, 225480, Note_on_c, 0, 48, 0
3, 225600, Note_on_c, 0, 57, 44
3, 225646, Control_c, 0, 64, 127
3, 225720, Note_on_c, 0, 57, 0
3, 225840, Note_on_c, 0, 56, 44
3, 225960, Note_on_c, 0, 56, 0
3, 226080, Note_on_c, 0, 48, 47
3, 226095, Control_c, 0, 64, 0
3, 226156, Control_c, 0, 64, 127
3, 226200, Note_on_c, 0, 48, 0
3, 226320, Note_on_c, 0, 57, 43
3, 226440, Note_on_c, 0, 57, 0
3, 226560, Note_on_c, 0, 56, 43
3, 226567, Control_c, 0, 64, 0
3, 226680, Note_on_c, 0, 56, 0
3, 226800, Note_on_c, 0, 48, 49
3, 226920, Note_on_c, 0, 48, 0
3, 227040, Note_on_c, 0, 60, 44
3, 227091, Control_c, 0, 64, 127
3, 227160, Note_on_c, 0, 60, 0
3, 227280, Note_on_c, 0, 59, 44
3, 227400, Note_on_c, 0, 59, 0
3, 227520, Note_on_c, 0, 52, 48
3, 227533, Control_c, 0, 64, 0
3, 227606, Control_c, 0, 64, 127
3, 227640, Note_on_c, 0, 52, 0
3, 227760, Note_on_c, 0, 60, 43
3, 227880, Note_on_c, 0, 60, 0
3, 228000, Note_on_c, 0, 59, 43
3, 228006, Control_c, 0, 64, 0
3, 228120, Note_on_c, 0, 59, 0
3, 228240, Note_on_c, 0, 52, 49
3, 228360, Note_on_c, 0, 52, 0
3, 228480, Note_on_c, 0, 64, 44
3, 228549, Control_c, 0, 64, 127
3, 228600, Note_on_c, 0, 64, 0
3, 228720, Note_on_c, 0, 63, 44
3, 228840, Note_on_c, 0, 63, 0
3, 228960, Note_on_c, 0, 55, 51
3, 228967, Control_c, 0, 64, 0
3, 229033, Control_c, 0, 64, 127
3, 229080, Note_on_c, 0, 55, 0
3, 229200, Note_on_c, 0, 64, 46
3, 229320, Note_on_c, 0, 64, 0
3, 229440, Control_c, 0, 64, 0
3, 229440, Note_on_c, 0, 63, 47
3, 229560, Note_on_c, 0, 63, 0
3, 229680, Note_on_c, 0, 55, 51
3, 229800, Note_on_c, 0, 55, 0
3, 229920, Note_on_c, 0, 67, 46
3, 230040, Note_on_c, 0, 67, 0
3, 230046, Control_c, 0, 64, 127
3, 230160, Note_on_c, 0, 66, 46
3, 230280, Note_on_c, 0, 66, 0
3, 230400, Note_on_c, 0, 59, 53
3, 230409, Control_c, 0, 64, 0
3, 230464, Control_c, 0, 64, 127
3, 230520, Note_on_c, 0, 59, 0
3, 230640, Note_on_c, 0, 67, 47
3, 230760, Note_on_c, 0, 67, 0
3, 230880, Note_on_c, 0, 66, 48
3, 230886, Control_c, 0, 64, 0
3, 231000, Note_on_c, 0, 66, 0
3, 231120, Note_on_c, 0, 59, 53
3, 231240, Note_on_c, 0, 59, 0
3, 231360, Note_on_c, 0, 71, 49
3, 231429, Control_c, 0, 64, 127
3, 231480, Note_on_c, 0, 71, 0
3, 231600, Note_on_c, 0, 70, 47
3, 231720, Note_on_c, 0, 70, 0
3, 231840, Note_on_c, 0, 62, 58
3, 231855, Control_c, 0, 64, 0
3, 231914, Control_c, 0, 64, 127
3, 231960, Note_on_c, 0, 62, 0
3, 232080, Note_on_c, 0, 71, 50
3, 232200, Note_on_c, 0, 71, 0
3, 232320, Note_on_c, 0, 70, 59
3, 232440, Note_on_c, 0, 70, 0
3, 232560, Note_on_c, 0, 62, 48
3, 232568, Control_c, 0, 64, 0
3, 232680, Note_on_c, 0, 62, 0
3, 232800, Note_on_c, 0, 70, 62
3, 232806, Control_c, 0, 64, 127
3, 233040, Note_on_c, 0, 70, 0
3, 233040, Note_on_c, 0, 62, 48
3, 233280, Note_on_c, 0, 62, 0
3, 233280, Note_on_c, 0, 70, 61
3, 233520, Note_on_c, 0, 70, 0
3, 233520, Note_on_c, 0, 62, 48
3, 233760, Note_on_c, 0, 62, 0
3, 233760, Note_on_c, 0, 70, 61
3, 234000, Note_on_c, 0, 70, 0
3, 234000, Note_on_c, 0, 62, 48
3, 234240, Note_on_c, 0, 62, 0
3, 234240, Note_on_c, 0, 70, 61
3, 234260, Control_c, 0, 64, 0
3, 234389, Control_c, 0, 64, 127
3, 234480, Note_on_c, 0, 70, 0
3, 234480, Note_on_c, 0, 61, 48
3, 234720, Note_on_c, 0, 61, 0
3, 234720, Note_on_c, 0, 70, 58
3, 234960, Note_on_c, 0, 70, 0
3, 234960, Note_on_c, 0, 61, 46
3, 235200, Note_on_c, 0, 61, 0
3, 235200, Note_on_c, 0, 70, 57
3, 235440, Note_on_c, 0, 70, 0
3, 235440, Note_on_c, 0, 61, 46
3, 235680, Note_on_c, 0, 61, 0
3, 235680, Note_on_c, 0, 61, 57
3, 235695, Control_c, 0, 64, 0
3, 235771, Control_c, 0, 64, 127
3, 235920, Note_on_c, 0, 61, 0
3, 235920, Note_on_c, 0, 54, 46
3, 236160, Note_on_c, 0, 54, 0
3, 236160, Note_on_c, 0, 61, 56
3, 236400, Note_on_c, 0, 61, 0
3, 236400, Note_on_c, 0, 54, 42
3, 236640, Note_on_c, 0, 54, 0
3, 236640, Note_on_c, 0, 61, 57
3, 236880, Note_on_c, 0, 61, 0
3, 236880, Note_on_c, 0, 54, 44
3, 237120, Note_on_c, 0, 54, 0
3, 237120, Note_on_c, 0, 49, 50
3, 237129, Control_c, 0, 64, 0
3, 237200, Control_c, 0, 64, 127
3, 237360, Note_on_c, 0, 49, 0
3, 237360, Note_on_c, 0, 42, 40
3, 237600, Note_on_c, 0, 42, 0
3, 237600, Note_on_c, 0, 49, 50
3, 237840, Note_on_c, 0, 49, 0
3, 237840, Note_on_c, 0, 42, 41
3, 238080, Note_on_c, 0, 42, 0
3, 238080, Note_on_c, 0, 49, 49
3, 238320, Note_on_c, 0, 49, 0
3, 238320, Control_c, 0, 64, 0
3, 238320, Note_on_c, 0, 42, 41
3, 238500, Note_on_c, 0, 42, 0
3, 238560, Note_on_c, 0, 62, 45
3, 238740, Control_c, 0, 64, 127
3, 238800, Note_on_c, 0, 62, 0
3, 238800, Note_on_c, 0, 61, 43
3, 239040, Note_on_c, 0, 61, 0
3, 239040, Note_on_c, 0, 62, 45
3, 239053, Control_c, 0, 64, 0
3, 239134, Control_c, 0, 64, 127
3, 239280, Note_on_c, 0, 47, 40
3, 239520, Note_on_c, 0, 47, 0
3, 239520, Note_on_c, 0, 62, 0
3, 239520, Note_on_c, 0, 61, 43
3, 239531, Control_c, 0, 64, 0
3, 239760, Note_on_c, 0, 61, 0
3, 239760, Note_on_c, 0, 47, 36
3, 240000, Note_on_c, 0, 47, 0
3, 240000, Note_on_c, 0, 59, 44
3, 240103, Control_c, 0, 64, 127
3, 240240, Note_on_c, 0, 59, 0
3, 240240, Note_on_c, 0, 58, 42
3, 240480, Note_on_c, 0, 58, 0
3, 240480, Note_on_c, 0, 59, 45
3, 240492, Control_c, 0, 64, 0
3, 240571, Control_c, 0, 64, 127
3, 240720, Note_on_c, 0, 47, 39
3, 240960, Note_on_c, 0, 47, 0
3, 240960, Note_on_c, 0, 59, 0
3, 240960, Note_on_c, 0, 58, 44
3, 240968, Control_c, 0, 64, 0
3, 241200, Note_on_c, 0, 58, 0
3, 241200, Note_on_c, 0, 47, 36
3, 241440, Note_on_c, 0, 47, 0
3, 241440, Note_on_c, 0, 57, 44
3, 241520, Control_c, 0, 64, 127
3, 241680, Note_on_c, 0, 57, 0
3, 241680, Note_on_c, 0, 56, 41
3, 241920, Note_on_c, 0, 56, 0
3, 241920, Note_on_c, 0, 57, 45
3, 241932, Control_c, 0, 64, 0
3, 242034, Control_c, 0, 64, 127
3, 242160, Note_on_c, 0, 47, 40
3, 242400, Note_on_c, 0, 47, 0
3, 242400, Note_on_c, 0, 57, 0
3, 242400, Note_on_c, 0, 56, 44
3, 242414, Control_c, 0, 64, 0
3, 242640, Note_on_c, 0, 56, 0
3, 242640, Note_on_c, 0, 47, 37
3, 242880, Note_on_c, 0, 47, 0
3, 242880, Note_on_c, 0, 55, 45
3, 242903, Control_c, 0, 64, 127
3, 243120, Note_on_c, 0, 55, 0
3, 243120, Note_on_c, 0, 47, 43
3, 243360, Note_on_c, 0, 47, 0
3, 243360, Note_on_c, 0, 54, 49
3, 243375, Control_c, 0, 64, 0
3, 243474, Control_c, 0, 64, 127
3, 243600, Note_on_c, 0, 54, 0
3, 243600, Note_on_c, 0, 47, 50
3, 243840, Note_on_c, 0, 47, 0
3, 243840, Note_on_c, 0, 52, 47
3, 244080, Note_on_c, 0, 52, 0
3, 244080, Note_on_c, 0, 47, 44
3, 244080, Note_on_c, 0, 50, 44
3, 244087, Control_c, 0, 64, 0
3, 244320, Note_on_c, 0, 50, 0
3, 244320, Note_on_c, 0, 47, 0
3, 244320, Note_on_c, 0, 53, 52
3, 244440, Note_on_c, 0, 53, 0
3, 244560, Note_on_c, 0, 54, 54
3, 244680, Note_on_c, 0, 54, 0
3, 244800, Note_on_c, 0, 55, 59
3, 244863, Control_c, 0, 64, 127
3, 245520, Note_on_c, 0, 55, 0
3, 245520, Note_on_c, 0, 43, 49
3, 245535, Control_c, 0, 64, 0
3, 245760, Note_on_c, 0, 43, 0
3, 245760, Note_on_c, 0, 45, 51
3, 245880, Note_on_c, 0, 45, 0
3, 246000, Note_on_c, 0, 43, 49
3, 246120, Note_on_c, 0, 43, 0
3, 246240, Note_on_c, 0, 42, 51
3, 246303, Control_c, 0, 64, 127
3, 246960, Note_on_c, 0, 42, 0
3, 246960, Note_on_c, 0, 47, 48
3, 246974, Control_c, 0, 64, 0
3, 247200, Note_on_c, 0, 47, 0
3, 247200, Note_on_c, 0, 53, 51
3, 247320, Note_on_c, 0, 53, 0
3, 247440, Note_on_c, 0, 54, 54
3, 247560, Note_on_c, 0, 54, 0
3, 247680, Note_on_c, 0, 55, 58
3, 247714, Control_c, 0, 64, 127
3, 248400, Note_on_c, 0, 55, 0
3, 248400, Note_on_c, 0, 43, 49
3, 248417, Control_c, 0, 64, 0
3, 248640, Note_on_c, 0, 43, 0
3, 248640, Note_on_c, 0, 45, 54
3, 248760, Note_on_c, 0, 45, 0
3, 248880, Note_on_c, 0, 43, 51
3, 249000, Note_on_c, 0, 43, 0
3, 249120, Note_on_c, 0, 42, 52
3, 249160, Control_c, 0, 64, 127
3, 249840, Note_on_c, 0, 42, 0
3, 249840, Note_on_c, 0, 47, 49
3, 249858, Control_c, 0, 64, 0
3, 250080, Note_on_c, 0, 47, 0
3, 250080, Note_on_c, 0, 52, 55
3, 250200, Note_on_c, 0, 52, 0
3, 250320, Note_on_c, 0, 50, 52
3, 250440, Note_on_c, 0, 50, 0
3, 250560, Note_on_c, 0, 49, 51
3, 250600, Control_c, 0, 64, 127
3, 251280, Note_on_c, 0, 49, 0
3, 251280, Note_on_c, 0, 50, 50
3, 251291, Control_c, 0, 64, 0
3, 251520, Note_on_c, 0, 50, 0
3, 251520, Note_on_c, 0, 56, 58
3, 251640, Note_on_c, 0, 56, 0
3, 251760, Note_on_c, 0, 54, 56
3, 251880, Note_on_c, 0, 54, 0
3, 252000, Note_on_c, 0, 53, 55
3, 252040, Control_c, 0, 64, 127
3, 252720, Note_on_c, 0, 53, 0
3, 252720, Note_on_c, 0, 54, 52
3, 252731, Control_c, 0, 64, 0
3, 252954, Control_c, 0, 64, 127
3, 252960, Note_on_c, 0, 54, 0
3, 252960, Note_on_c, 0, 58, 56
3, 252960, Note_on_c, 0, 66, 56
3, 253440, Note_on_c, 0, 58, 0
3, 253440, Note_on_c, 0, 56, 60
3, 253680, Note_on_c, 0, 56, 0
3, 253680, Note_on_c, 0, 66, 0
3, 253680, Note_on_c, 0, 58, 60
3, 253680, Note_on_c, 0, 66, 60
3, 253689, Control_c, 0, 64, 0
3, 253794, Control_c, 0, 64, 127
3, 254160, Note_on_c, 0, 58, 0
3, 254160, Note_on_c, 0, 56, 65
3, 254400, Note_on_c, 0, 56, 0
3, 254400, Note_on_c, 0, 66, 0
3, 254400, Note_on_c, 0, 58, 65
3, 254400, Note_on_c, 0, 66, 65
3, 254413, Control_c, 0, 64, 0
3, 254537, Control_c, 0, 64, 127
3, 254880, Note_on_c, 0, 58, 0
3, 254880, Note_on_c, 0, 56, 71
3, 254914, Control_c, 0, 64, 0
3, 255120, Note_on_c, 0, 56, 0
3, 255120, Note_on_c, 0, 66, 0
3, 255120, Note_on_c, 0, 58, 72
3, 255120, Note_on_c, 0, 66, 72
3, 255240, Note_on_c, 0, 66, 0
3, 255240, Note_on_c, 0, 58, 0
3, 255360, Note_on_c, 0, 59, 69
3, 255360, Note_on_c, 0, 66, 69
3, 255480, Note_on_c, 0, 66, 0
3, 255480, Note_on_c, 0, 59, 0
3, 255600, Note_on_c, 0, 52, 63
3, 255600, Note_on_c, 0, 59, 63
3, 255600, Note_on_c, 0, 64, 75
3, 255697, Control_c, 0, 64, 127
3, 256320, Note_on_c, 0, 64, 0
3, 256320, Note_on_c, 0, 59, 0
3, 256320, Note_on_c, 0, 52, 0
3, 256320, Note_on_c, 0, 52, 54
3, 256327, Control_c, 0, 64, 0
3, 256385, Control_c, 0, 64, 127
3, 256440, Note_on_c, 0, 55, 56
3, 256560, Note_on_c, 0, 55, 0
3, 256560, Note_on_c, 0, 59, 57
3, 256680, Note_on_c, 0, 59, 0
3, 256680, Note_on_c, 0, 61, 59
3, 256800, Note_on_c, 0, 61, 0
3, 256800, Note_on_c, 0, 52, 0
3, 257640, Note_on_c, 0, 61, 57
3, 257760, Note_on_c, 0, 61, 0
3, 257760, Note_on_c, 0, 59, 57
3, 257776, Control_c, 0, 64, 0
3, 257813, Control_c, 0, 64, 127
3, 257880, Note_on_c, 0, 59, 0
3, 257880, Note_on_c, 0, 55, 56
3, 258000, Note_on_c, 0, 55, 0
3, 258000, Note_on_c, 0, 52, 56
3, 258120, Note_on_c, 0, 52, 0
3, 258480, Note_on_c, 0, 40, 57
3, 258720, Note_on_c, 0, 40, 0
3, 258720, Note_on_c, 0, 49, 57
3, 258960, Note_on_c, 0, 49, 0
3, 258967, Control_c, 0, 64, 0
3, 259200, Note_on_c, 0, 52, 53
3, 259242, Control_c, 0, 64, 127
3, 259320, Note_on_c, 0, 52, 0
3, 259320, Note_on_c, 0, 59, 55
3, 259440, Note_on_c, 0, 59, 0
3, 259440, Note_on_c, 0, 61, 56
3, 259560, Note_on_c, 0, 61, 0
3, 259560, Note_on_c, 0, 64, 58
3, 259680, Note_on_c, 0, 64, 0
3, 260520, Note_on_c, 0, 64, 58
3, 260640, Note_on_c, 0, 64, 0
3, 260640, Note_on_c, 0, 61, 57
3, 260650, Control_c, 0, 64, 0
3, 260698, Control_c, 0, 64, 127
3, 260760, Note_on_c, 0, 61, 0
3, 260760, Note_on_c, 0, 59, 56
3, 260880, Note_on_c, 0, 59, 0
3, 260880, Note_on_c, 0, 55, 56
3, 261000, Note_on_c, 0, 55, 0
3, 261360, Note_on_c, 0, 43, 60
3, 261600, Note_on_c, 0, 43, 0
3, 261600, Note_on_c, 0, 49, 57
3, 261840, Note_on_c, 0, 49, 0
3, 261842, Control_c, 0, 64, 0
3, 262080, Control_c, 0, 64, 127
3, 262080, Note_on_c, 0, 42, 63
3, 262200, Note_on_c, 0, 42, 0
3, 262200, Note_on_c, 0, 47, 65
3, 262320, Note_on_c, 0, 47, 0
3, 262320, Note_on_c, 0, 50, 68
3, 262440, Note_on_c, 0, 50, 0
3, 262440, Note_on_c, 0, 54, 70
3, 262560, Note_on_c, 0, 54, 0
3, 262800, Note_on_c, 0, 54, 75
3, 262920, Note_on_c, 0, 54, 0
3, 262920, Note_on_c, 0, 59, 77
3, 263040, Note_on_c, 0, 59, 0
3, 263520, Control_c, 0, 64, 0
3, 265680, Note_on_c, 0, 67, 78
3, 265680, Note_on_c, 0, 55, 70
3, 265800, Note_on_c, 0, 55, 0
3, 265800, Note_on_c, 0, 67, 0
3, 265920, Note_on_c, 0, 50, 64
3, 265920, Note_on_c, 0, 62, 72
3, 266040, Note_on_c, 0, 62, 0
3, 266040, Note_on_c, 0, 50, 0
3, 266160, Note_on_c, 0, 52, 68
3, 266160, Note_on_c, 0, 64, 76
3, 266280, Note_on_c, 0, 64, 0
3, 266280, Note_on_c, 0, 52, 0
3, 266400, Note_on_c, 0, 49, 63
3, 266400, Note_on_c, 0, 61, 71
3, 266520, Note_on_c, 0, 61, 0
3, 266520, Note_on_c, 0, 49, 0
3, 266640, Note_on_c, 0, 50, 69
3, 266640, Note_on_c, 0, 62, 77
3, 266760, Note_on_c, 0, 62, 0
3, 266760, Note_on_c, 0, 50, 0
3, 266880, Note_on_c, 0, 47, 63
3, 266880, Note_on_c, 0, 59, 70
3, 267000, Note_on_c, 0, 59, 0
3, 267000, Note_on_c, 0, 47, 0
3, 267120, Note_on_c, 0, 49, 68
3, 267120, Note_on_c, 0, 61, 76
3, 267240, Note_on_c, 0, 61, 0
3, 267240, Note_on_c, 0, 49, 0
3, 267360, Note_on_c, 0, 46, 62
3, 267360, Note_on_c, 0, 58, 69
3, 267480, Note_on_c, 0, 58, 0
3, 267480, Note_on_c, 0, 46, 0
3, 267600, Note_on_c, 0, 47, 68
3, 267600, Note_on_c, 0, 59, 68
3, 267720, Note_on_c, 0, 59, 0
3, 267720, Note_on_c, 0, 47, 0
3, 267840, Note_on_c, 0, 42, 63
3, 267840, Note_on_c, 0, 54, 71
3, 267960, Note_on_c, 0, 54, 0
3, 267960, Note_on_c, 0, 42, 0
3, 268080, Note_on_c, 0, 43, 69
3, 268080, Note_on_c, 0, 55, 77
3, 268200, Note_on_c, 0, 55, 0
3, 268200, Note_on_c, 0, 43, 0
3, 268320, Note_on_c, 0, 38, 62
3, 268320, Note_on_c, 0, 50, 62
3, 268440, Note_on_c, 0, 50, 0
3, 268440, Note_on_c, 0, 38, 0
3, 268560, Note_on_c, 0, 40, 67
3, 268560, Note_on_c, 0, 52, 75
3, 268634, Control_c, 0, 64, 127
3, 269040, Note_on_c, 0, 52, 0
3, 269040, Note_on_c, 0, 40, 0
3, 269040, Note_on_c, 0, 42, 61
3, 269040, Note_on_c, 0, 54, 68
3, 269054, Control_c, 0, 64, 0
3, 269131, Control_c, 0, 64, 127
3, 269280, Note_on_c, 0, 54, 0
3, 269280, Note_on_c, 0, 42, 0
3, 269280, Control_c, 0, 64, 0
3, 269280, Note_on_c, 0, 47, 68
3, 269520, Note_on_c, 0, 47, 0
3, 269520, Note_on_c, 0, 52, 58
3, 269640, Note_on_c, 0, 52, 0
3, 269760, Note_on_c, 0, 54, 60
3, 269880, Note_on_c, 0, 54, 0
3, 270000, Note_on_c, 0, 55, 66
3, 270063, Control_c, 0, 64, 127
3, 270724, Control_c, 0, 64, 0
3, 270960, Note_on_c, 0, 55, 0
3, 270960, Note_on_c, 0, 45, 57
3, 271080, Note_on_c, 0, 45, 0
3, 271200, Note_on_c, 0, 43, 55
3, 271320, Note_on_c, 0, 43, 0
3, 271440, Note_on_c, 0, 42, 57
3, 271503, Control_c, 0, 64, 127
3, 272160, Note_on_c, 0, 42, 0
3, 272160, Note_on_c, 0, 47, 54
3, 272177, Control_c, 0, 64, 0
3, 272400, Note_on_c, 0, 47, 0
3, 272400, Note_on_c, 0, 52, 57
3, 272520, Note_on_c, 0, 52, 0
3, 272640, Note_on_c, 0, 54, 60
3, 272760, Note_on_c, 0, 54, 0
3, 272880, Note_on_c, 0, 55, 65
3, 272914, Control_c, 0, 64, 127
3, 273618, Control_c, 0, 64, 0
3, 273840, Note_on_c, 0, 55, 0
3, 273840, Note_on_c, 0, 45, 61
3, 273960, Note_on_c, 0, 45, 0
3, 274080, Note_on_c, 0, 43, 57
3, 274200, Note_on_c, 0, 43, 0
3, 274320, Note_on_c, 0, 42, 58
3, 274389, Control_c, 0, 64, 127
3, 275040, Note_on_c, 0, 42, 0
3, 275040, Control_c, 0, 64, 0
3, 275040, Note_on_c, 0, 47, 58
3, 275160, Note_on_c, 0, 47, 0
3, 275280, Note_on_c, 0, 50, 49
3, 275280, Note_on_c, 0, 54, 49
3, 275280, Note_on_c, 0, 59, 55
3, 275349, Control_c, 0, 64, 127
3, 275400, Note_on_c, 0, 59, 0
3, 275400, Note_on_c, 0, 54, 0
3, 275400, Note_on_c, 0, 50, 0
3, 275520, Note_on_c, 0, 50, 45
3, 275520, Note_on_c, 0, 54, 45
3, 275520, Note_on_c, 0, 58, 50
3, 275640, Note_on_c, 0, 58, 0
3, 275640, Note_on_c, 0, 54, 0
3, 275640, Note_on_c, 0, 50, 0
3, 275760, Note_on_c, 0, 50, 48
3, 275760, Note_on_c, 0, 54, 48
3, 275760, Note_on_c, 0, 59, 54
3, 275880, Note_on_c, 0, 59, 0
3, 275880, Note_on_c, 0, 54, 0
3, 275880, Note_on_c, 0, 50, 0
3, 276000, Note_on_c, 0, 54, 50
3, 276000, Note_on_c, 0, 59, 50
3, 276000, Note_on_c, 0, 62, 56
3, 276012, Control_c, 0, 64, 0
3, 276097, Control_c, 0, 64, 127
3, 276120, Note_on_c, 0, 62, 0
3, 276120, Note_on_c, 0, 59, 0
3, 276120, Note_on_c, 0, 54, 0
3, 276240, Note_on_c, 0, 54, 48
3, 276240, Note_on_c, 0, 59, 48
3, 276240, Note_on_c, 0, 61, 54
3, 276360, Note_on_c, 0, 61, 0
3, 276360, Note_on_c, 0, 59, 0
3, 276360, Note_on_c, 0, 54, 0
3, 276480, Note_on_c, 0, 54, 52
3, 276480, Note_on_c, 0, 59, 52
3, 276480, Note_on_c, 0, 62, 58
3, 276600, Note_on_c, 0, 62, 0
3, 276600, Note_on_c, 0, 59, 0
3, 276600, Note_on_c, 0, 54, 0
3, 276720, Note_on_c, 0, 66, 54
3, 276720, Note_on_c, 0, 62, 48
3, 276720, Note_on_c, 0, 59, 48
3, 276731, Control_c, 0, 64, 0
3, 276778, Control_c, 0, 64, 127
3, 276840, Note_on_c, 0, 59, 0
3, 276840, Note_on_c, 0, 62, 0
3, 276840, Note_on_c, 0, 66, 0
3, 276960, Note_on_c, 0, 65, 59
3, 276960, Note_on_c, 0, 62, 53
3, 276960, Note_on_c, 0, 59, 53
3, 277080, Note_on_c, 0, 59, 0
3, 277080, Note_on_c, 0, 62, 0
3, 277080, Note_on_c, 0, 65, 0
3, 277200, Note_on_c, 0, 66, 60
3, 277200, Note_on_c, 0, 62, 54
3, 277200, Note_on_c, 0, 59, 54
3, 277320, Note_on_c, 0, 59, 0
3, 277320, Note_on_c, 0, 62, 0
3, 277320, Note_on_c, 0, 66, 0
3, 277440, Note_on_c, 0, 62, 51
3, 277440, Note_on_c, 0, 66, 51
3, 277440, Note_on_c, 0, 71, 57
3, 277451, Control_c, 0, 64, 0
3, 277506, Control_c, 0, 64, 127
3, 277560, Note_on_c, 0, 71, 0
3, 277560, Note_on_c, 0, 66, 0
3, 277560, Note_on_c, 0, 62, 0
3, 277680, Note_on_c, 0, 62, 55
3, 277680, Note_on_c, 0, 66, 55
3, 277680, Note_on_c, 0, 70, 62
3, 277800, Note_on_c, 0, 70, 0
3, 277800, Note_on_c, 0, 66, 0
3, 277800, Note_on_c, 0, 62, 0
3, 277920, Note_on_c, 0, 62, 55
3, 277920, Note_on_c, 0, 66, 55
3, 277920, Note_on_c, 0, 71, 62
3, 278040, Note_on_c, 0, 71, 0
3, 278040, Note_on_c, 0, 66, 0
3, 278040, Note_on_c, 0, 62, 0
3, 278160, Note_on_c, 0, 66, 55
3, 278160, Note_on_c, 0, 71, 55
3, 278160, Note_on_c, 0, 74, 62
3, 278169, Control_c, 0, 64, 0
3, 278222, Control_c, 0, 64, 127
3, 278280, Note_on_c, 0, 74, 0
3, 278280, Note_on_c, 0, 71, 0
3, 278280, Note_on_c, 0, 66, 0
3, 278400, Note_on_c, 0, 66, 52
3, 278400, Note_on_c, 0, 71, 52
3, 278400, Note_on_c, 0, 73, 58
3, 278520, Note_on_c, 0, 73, 0
3, 278520, Note_on_c, 0, 71, 0
3, 278520, Note_on_c, 0, 66, 0
3, 278640, Note_on_c, 0, 66, 57
3, 278640, Note_on_c, 0, 71, 57
3, 278640, Note_on_c, 0, 74, 64
3, 278760, Note_on_c, 0, 74, 0
3, 278760, Note_on_c, 0, 71, 0
3, 278760, Note_on_c, 0, 66, 0
3, 278880, Note_on_c, 0, 71, 58
3, 278880, Note_on_c, 0, 74, 58
3, 278880, Note_on_c, 0, 78, 65
3, 278892, Control_c, 0, 64, 0
3, 278950, Control_c, 0, 64, 127
3, 279000, Note_on_c, 0, 78, 0
3, 279000, Note_on_c, 0, 74, 0
3, 279000, Note_on_c, 0, 71, 0
3, 279120, Note_on_c, 0, 71, 56
3, 279120, Note_on_c, 0, 74, 56
3, 279120, Note_on_c, 0, 77, 63
3, 279240, Note_on_c, 0, 77, 0
3, 279240, Note_on_c, 0, 74, 0
3, 279240, Note_on_c, 0, 71, 0
3, 279360, Note_on_c, 0, 71, 60
3, 279360, Note_on_c, 0, 74, 60
3, 279360, Note_on_c, 0, 78, 67
3, 279480, Note_on_c, 0, 78, 0
3, 279480, Note_on_c, 0, 74, 0
3, 279480, Note_on_c, 0, 71, 0
3, 279600, Note_on_c, 0, 71, 60
3, 279600, Note_on_c, 0, 74, 60
3, 279600, Note_on_c, 0, 78, 67
3, 279600, Note_on_c, 0, 83, 67
3, 279611, Control_c, 0, 64, 0
3, 279691, Control_c, 0, 64, 127
3, 279720, Note_on_c, 0, 83, 0
3, 279720, Note_on_c, 0, 71, 0
3, 279720, Note_on_c, 0, 74, 0
3, 279720, Note_on_c, 0, 78, 0
3, 279840, Note_on_c, 0, 71, 57
3, 279840, Note_on_c, 0, 74, 57
3, 279840, Note_on_c, 0, 78, 64
3, 279840, Note_on_c, 0, 82, 64
3, 279960, Note_on_c, 0, 82, 0
3, 279960, Note_on_c, 0, 71, 0
3, 279960, Note_on_c, 0, 74, 0
3, 279960, Note_on_c, 0, 78, 0
3, 280080, Note_on_c, 0, 71, 65
3, 280080, Note_on_c, 0, 74, 65
3, 280080, Note_on_c, 0, 78, 72
3, 280080, Note_on_c, 0, 83, 72
3, 280200, Note_on_c, 0, 83, 0
3, 280200, Note_on_c, 0, 71, 0
3, 280200, Note_on_c, 0, 74, 0
3, 280200, Note_on_c, 0, 78, 0
3, 280320, Note_on_c, 0, 71, 65
3, 280320, Note_on_c, 0, 74, 65
3, 280320, Note_on_c, 0, 78, 73
3, 280320, Note_on_c, 0, 83, 73
3, 280331, Control_c, 0, 64, 0
3, 280411, Control_c, 0, 64, 127
3, 280440, Note_on_c, 0, 83, 0
3, 280440, Note_on_c, 0, 71, 0
3, 280440, Note_on_c, 0, 74, 0
3, 280440, Note_on_c, 0, 78, 0
3, 280560, Note_on_c, 0, 71, 63
3, 280560, Note_on_c, 0, 74, 63
3, 280560, Note_on_c, 0, 78, 71
3, 280560, Note_on_c, 0, 82, 71
3, 280680, Note_on_c, 0, 82, 0
3, 280680, Note_on_c, 0, 71, 0
3, 280680, Note_on_c, 0, 74, 0
3, 280680, Note_on_c, 0, 78, 0
3, 280800, Note_on_c, 0, 71, 69
3, 280800, Note_on_c, 0, 74, 69
3, 280800, Note_on_c, 0, 78, 78
3, 280800, Note_on_c, 0, 83, 78
3, 280920, Note_on_c, 0, 83, 0
3, 280920, Note_on_c, 0, 71, 0
3, 280920, Note_on_c, 0, 74, 0
3, 280920, Note_on_c, 0, 78, 0
3, 281520, Note_on_c, 0, 59, 66
3, 281520, Note_on_c, 0, 66, 66
3, 281520, Note_on_c, 0, 71, 74
3, 281534, Control_c, 0, 64, 0
3, 281633, Control_c, 0, 64, 127
3, 281640, Note_on_c, 0, 71, 0
3, 281640, Note_on_c, 0, 66, 0
3, 281640, Note_on_c, 0, 59, 0
3, 282240, Note_on_c, 0, 47, 66
3, 282240, Note_on_c, 0, 54, 66
3, 282240, Note_on_c, 0, 59, 74
3, 282360, Note_on_c, 0, 59, 0
3, 282360, Note_on_c, 0, 54, 0
3, 282360, Note_on_c, 0, 47, 0
3, 282960, Note_on_c, 0, 35, 66
3, 282960, Note_on_c, 0, 42, 66
3, 282960, Note_on_c, 0, 47, 74
3, 282960, Note_on_c, 0, 50, 74
3, 282960, Note_on_c, 0, 54, 74
3, 282960, Note_on_c, 0, 59, 81
3, 283080, Note_on_c, 0, 59, 0
3, 283080, Note_on_c, 0, 42, 0
3, 283080, Note_on_c, 0, 47, 0
3, 283080, Note_on_c, 0, 35, 0
3, 283080, Note_on_c, 0, 54, 0
3, 283080, Note_on_c, 0, 50, 0
3, 283680, Note_on_c, 0, 47, 66
3, 283680, Note_on_c, 0, 54, 66
3, 283680, Note_on_c, 0, 59, 74
3, 283800, Note_on_c, 0, 59, 0
3, 283800, Note_on_c, 0, 54, 0
3, 283800, Note_on_c, 0, 47, 0
3, 284220, Note_on_c, 0, 47, 63
3, 284280, Note_on_c, 0, 54, 63
3, 284340, Note_on_c, 0, 59, 70
3, 284400, Note_on_c, 0, 62, 70
3, 284520, Note_on_c, 0, 62, 0
3, 284520, Note_on_c, 0, 47, 0
3, 284520, Note_on_c, 0, 54, 0
3, 284520, Note_on_c, 0, 59, 0
3, 285120, Note_on_c, 0, 35, 75
3, 285120, Note_on_c, 0, 47, 75
3, 286560, Note_on_c, 0, 47, 0
3, 286560, Note_on_c, 0, 35, 0
3, 287280, Control_c, 0, 64, 0
3, 287280, End_track
4, 0, Start_track
4, 0, Title_t, "Tschaikowsky: The Seasons: August"
4, 0, End_track
5, 0, Start_track
5, 0, Title_t, "Copyright © 2004 by Bernd Krüger"
5, 0, End_track
6, 0, Start_track
6, 0, Title_t, "http://www.piano-midi.de"
6, 0, End_track
7, 0, Start_track
7, 0, Title_t, "Edition: 2008-09-21"
7, 0, End_track
8, 0, Start_track
8, 0, End_track
0, 0, End_of_file
