0, 0, Header, 1, 8, 480
1, 0, Start_track
1, 0, Title_t, "Die Jahreszeiten"
1, 0, Title_t, "Dezember"
1, 0, Copyright_t, "Copyright © 2004 by Bernd Krueger"
1, 0, Text_t, "Peter Tschaikowsky"
1, 0, Text_t, "Tempo di valse"
1, 0, Text_t, "Fertiggestellt am 23.12.2000\012"
1, 0, Text_t, "Normierung: 23.12.2002\012"
1, 0, Text_t, "Update am 12.9.2004\012"
1, 0, Text_t, "Update am 28.9.2008\012"
1, 0, Text_t, "Dauer: 4:00 Minuten\012"
1, 0, SMPTE_offset, 96, 0, 3, 0, 0
1, 0, Time_signature, 3, 2, 24, 8
1, 0, Key_signature, -4, "major"
1, 0, Tempo, 304383
1, 480, Tempo, 298983
1, 960, Tempo, 302572
1, 1440, Tempo, 298983
1, 1920, Tempo, 302633
1, 2400, Tempo, 296765
1, 2880, Tempo, 301644
1, 3360, Tempo, 298716
1, 3840, Tempo, 303628
1, 4320, Tempo, 303628
1, 5760, Tempo, 309757
1, 6240, Tempo, 302633
1, 6720, Tempo, 310816
1, 7200, Tempo, 303628
1, 7680, Tempo, 302633
1, 8160, Tempo, 296765
1, 8640, Tempo, 322581
1, 8960, Tempo, 349854
1, 9120, Tempo, 326087
1, 9440, Tempo, 349854
1, 9600, Tempo, 323450
1, 10080, Tempo, 310881
1, 11040, Tempo, 311883
1, 11520, Tempo, 305655
1, 12000, Tempo, 292683
1, 12480, Tempo, 310816
1, 12960, Tempo, 305655
1, 13440, Tempo, 302633
1, 13920, Tempo, 310816
1, 14400, Tempo, 305655
1, 14880, Tempo, 292683
1, 15360, Tempo, 310816
1, 15840, Tempo, 305655
1, 16320, Tempo, 302633
1, 16800, Tempo, 310816
1, 17280, Tempo, 309757
1, 17760, Tempo, 302633
1, 18240, Tempo, 310816
1, 18720, Tempo, 303628
1, 19200, Tempo, 302633
1, 19680, Tempo, 296765
1, 20160, Tempo, 305655
1, 20640, Tempo, 302633
1, 21120, Tempo, 310816
1, 21600, Tempo, 311688
1, 22080, Tempo, 302633
1, 22560, Tempo, 314828
1, 23040, Tempo, 309757
1, 23520, Tempo, 298983
1, 24000, Tempo, 303475
1, 24480, Tempo, 303628
1, 24960, Tempo, 302633
1, 25440, Tempo, 296765
1, 25920, Tempo, 301644
1, 26400, Tempo, 298716
1, 26880, Tempo, 303628
1, 27360, Tempo, 303628
1, 28800, Tempo, 309757
1, 29280, Tempo, 302633
1, 29760, Tempo, 310816
1, 30240, Tempo, 303628
1, 30720, Tempo, 302633
1, 31200, Tempo, 296765
1, 31680, Tempo, 331492
1, 32000, Tempo, 350877
1, 32160, Tempo, 332410
1, 32480, Tempo, 350877
1, 32640, Tempo, 329670
1, 33120, Tempo, 310881
1, 34080, Tempo, 311883
1, 34560, Tempo, 305655
1, 35040, Tempo, 285036
1, 35520, Tempo, 297030
1, 35760, Tempo, 310078
1, 36000, Tempo, 305655
1, 36480, Tempo, 302633
1, 36960, Tempo, 310816
1, 37440, Tempo, 305655
1, 37920, Tempo, 290557
1, 38400, Tempo, 303030
1, 38640, Tempo, 309278
1, 38880, Tempo, 305655
1, 39360, Tempo, 302633
1, 39840, Tempo, 310816
1, 40320, Tempo, 301235
1, 40800, Tempo, 297133
1, 41280, Tempo, 304244
1, 41320, Tempo, 301235
1, 41760, Tempo, 298018
1, 42240, Tempo, 304321
1, 42720, Tempo, 298433
1, 43200, Tempo, 299760
1, 43680, Tempo, 298018
1, 44160, Tempo, 302450
1, 44640, Tempo, 298879
1, 45120, Tempo, 298018
1, 45600, Tempo, 303337
1, 46080, Tempo, 300646
1, 46560, Tempo, 298018
1, 47040, Tempo, 303337
1, 47520, Tempo, 301553
1, 48000, Tempo, 297133
1, 48480, Tempo, 302054
1, 48960, Tempo, 305530
1, 49440, Tempo, 301235
1, 49920, Tempo, 308151
1, 50400, Tempo, 305530
1, 50880, Tempo, 301235
1, 51360, Tempo, 308151
1, 51840, Tempo, 305530
1, 52320, Tempo, 301235
1, 52560, Tempo, 306122
1, 52800, Tempo, 310881
1, 53280, Tempo, 306122
1, 53520, Tempo, 301508
1, 53760, Tempo, 305344
1, 54240, Tempo, 302923
1, 54480, Tempo, 299536
1, 54720, Tempo, 300375
1, 54960, Tempo, 302923
1, 55200, Tempo, 301235
1, 55440, Tempo, 298701
1, 55680, Tempo, 302923
1, 56160, Tempo, 297030
1, 56400, Tempo, 300752
1, 56600, Tempo, 298507
1, 56640, Tempo, 297767
1, 56880, Tempo, 294840
1, 57120, Tempo, 299252
1, 57600, Tempo, 296296
1, 57840, Tempo, 300000
1, 58080, Tempo, 297767
1, 58320, Tempo, 294840
1, 58560, Tempo, 300000
1, 59040, Tempo, 297767
1, 59280, Tempo, 302923
1, 59520, Tempo, 301235
1, 59760, Tempo, 298701
1, 60000, Tempo, 302923
1, 60240, Tempo, 305530
1, 60480, Tempo, 302069
1, 60960, Tempo, 299536
1, 61200, Tempo, 303782
1, 61440, Tempo, 303782
1, 61920, Tempo, 300375
1, 62160, Tempo, 302923
1, 62400, Tempo, 301235
1, 62640, Tempo, 298701
1, 62880, Tempo, 302923
1, 63120, Tempo, 305530
1, 63360, Tempo, 302069
1, 63840, Tempo, 299536
1, 64080, Tempo, 303782
1, 64320, Tempo, 303782
1, 64800, Tempo, 302069
1, 65280, Tempo, 299536
1, 65520, Tempo, 303782
1, 65760, Tempo, 303782
1, 67200, Tempo, 307692
1, 67680, Tempo, 305344
1, 67920, Tempo, 302923
1, 68160, Tempo, 303797
1, 68400, Tempo, 300000
1, 68640, Tempo, 302923
1, 69120, Tempo, 297767
1, 69360, Tempo, 302923
1, 69600, Tempo, 298507
1, 69840, Tempo, 295567
1, 70080, Tempo, 299252
1, 70560, Tempo, 300375
1, 70800, Tempo, 302923
1, 71040, Tempo, 301235
1, 71280, Tempo, 298701
1, 71520, Tempo, 302923
1, 71760, Tempo, 305530
1, 72000, Tempo, 302069
1, 72480, Tempo, 299536
1, 72720, Tempo, 303782
1, 72960, Tempo, 303782
1, 73440, Tempo, 300375
1, 73680, Tempo, 302923
1, 73920, Tempo, 301235
1, 74160, Tempo, 298701
1, 74400, Tempo, 302923
1, 74640, Tempo, 305530
1, 74880, Tempo, 302069
1, 75360, Tempo, 299536
1, 75600, Tempo, 303782
1, 75840, Tempo, 303782
1, 76320, Tempo, 302069
1, 76800, Tempo, 299536
1, 77040, Tempo, 303782
1, 77280, Tempo, 303782
1, 77760, Tempo, 302069
1, 78240, Tempo, 299536
1, 78480, Tempo, 303782
1, 78720, Tempo, 303782
1, 79200, Tempo, 304383
1, 79680, Tempo, 298983
1, 80160, Tempo, 302572
1, 80640, Tempo, 298983
1, 81120, Tempo, 302633
1, 81600, Tempo, 296765
1, 82080, Tempo, 301644
1, 82560, Tempo, 298716
1, 83040, Tempo, 303628
1, 83520, Tempo, 303628
1, 84960, Tempo, 309757
1, 85440, Tempo, 302633
1, 85920, Tempo, 310816
1, 86400, Tempo, 303628
1, 86880, Tempo, 305344
1, 87360, Tempo, 301508
1, 87840, Tempo, 331492
1, 88160, Tempo, 350877
1, 88320, Tempo, 334262
1, 88640, Tempo, 350877
1, 88800, Tempo, 330579
1, 89280, Tempo, 315789
1, 90240, Tempo, 311883
1, 90720, Tempo, 305655
1, 91200, Tempo, 286396
1, 91680, Tempo, 310816
1, 92160, Tempo, 305655
1, 92640, Tempo, 302633
1, 93120, Tempo, 310816
1, 93600, Tempo, 305655
1, 94080, Tempo, 290557
1, 94560, Tempo, 310816
1, 95040, Tempo, 305655
1, 95520, Tempo, 302633
1, 96000, Tempo, 310816
1, 96480, Tempo, 309757
1, 96960, Tempo, 302633
1, 97440, Tempo, 310816
1, 97920, Tempo, 303628
1, 98400, Tempo, 302633
1, 98880, Tempo, 296765
1, 99360, Tempo, 305655
1, 99840, Tempo, 302633
1, 100320, Tempo, 310816
1, 100800, Tempo, 309757
1, 101280, Tempo, 302633
1, 101760, Tempo, 314828
1, 102240, Tempo, 309757
1, 102720, Tempo, 298983
1, 103200, Tempo, 303475
1, 103680, Tempo, 303628
1, 104160, Tempo, 302633
1, 104640, Tempo, 296765
1, 105120, Tempo, 301644
1, 105600, Tempo, 298716
1, 106080, Tempo, 303628
1, 106560, Tempo, 303628
1, 108000, Tempo, 309757
1, 108480, Tempo, 302633
1, 108960, Tempo, 310816
1, 109440, Tempo, 303628
1, 109920, Tempo, 302633
1, 110400, Tempo, 296765
1, 110880, Tempo, 326087
1, 111200, Tempo, 350877
1, 111360, Tempo, 324324
1, 111680, Tempo, 350877
1, 111840, Tempo, 326087
1, 112320, Tempo, 312500
1, 113280, Tempo, 311883
1, 113760, Tempo, 305655
1, 114240, Tempo, 283019
1, 114720, Tempo, 310816
1, 115200, Tempo, 305655
1, 115680, Tempo, 302633
1, 116160, Tempo, 310816
1, 116640, Tempo, 305655
1, 117120, Tempo, 289157
1, 117600, Tempo, 300752
1, 117840, Tempo, 310078
1, 118080, Tempo, 305655
1, 118560, Tempo, 302633
1, 119040, Tempo, 310816
1, 119520, Tempo, 305655
1, 120000, Tempo, 299685
1, 120480, Tempo, 310816
1, 120960, Tempo, 305655
1, 121440, Tempo, 302633
1, 121920, Tempo, 310816
1, 122400, Tempo, 305655
1, 122880, Tempo, 306905
1, 123360, Tempo, 319149
1, 123840, Tempo, 312500
1, 124320, Tempo, 306122
1, 124800, Tempo, 320000
1, 125040, Tempo, 331492
1, 125280, Key_signature, 4, "major"
1, 125280, Tempo, 308214
1, 125760, Tempo, 301402
1, 126240, Tempo, 304770
1, 126720, Tempo, 297767
1, 127200, Tempo, 304770
1, 127680, Tempo, 305623
1, 128160, Tempo, 298507
1, 128640, Tempo, 307346
1, 129120, Tempo, 298507
1, 129600, Tempo, 305998
1, 130080, Tempo, 300556
1, 130560, Tempo, 304770
1, 131040, Tempo, 308214
1, 131520, Tempo, 297767
1, 132000, Tempo, 304770
1, 132480, Tempo, 296296
1, 132960, Tempo, 304770
1, 133440, Tempo, 305623
1, 133920, Tempo, 297767
1, 134400, Tempo, 305998
1, 134640, Tempo, 307692
1, 134880, Tempo, 297030
1, 135360, Tempo, 301917
1, 135840, Tempo, 300556
1, 136320, Tempo, 304770
1, 136800, Tempo, 308214
1, 137280, Tempo, 296296
1, 137760, Tempo, 304770
1, 138240, Tempo, 296296
1, 138720, Tempo, 304770
1, 139200, Tempo, 305623
1, 139680, Tempo, 298507
1, 140160, Tempo, 307346
1, 140640, Tempo, 297767
1, 141120, Tempo, 305998
1, 141600, Tempo, 297767
1, 142080, Tempo, 304770
1, 142560, Tempo, 308214
1, 143040, Tempo, 297030
1, 143520, Tempo, 304770
1, 144000, Tempo, 297030
1, 144480, Tempo, 304770
1, 144960, Tempo, 305623
1, 145440, Tempo, 298507
1, 145920, Tempo, 307661
1, 146400, Tempo, 296296
1, 146880, Tempo, 301917
1, 147360, Tempo, 300556
1, 147840, Tempo, 306827
1, 148320, Tempo, 303536
1, 148800, Tempo, 297767
1, 149280, Tempo, 300752
1, 149520, Tempo, 304569
1, 149760, Tempo, 307661
1, 150240, Tempo, 305188
1, 151200, Tempo, 308214
1, 151680, Tempo, 301402
1, 152160, Tempo, 304770
1, 154080, Tempo, 308214
1, 154560, Tempo, 297030
1, 155040, Tempo, 300752
1, 155280, Tempo, 304569
1, 156480, Tempo, 305998
1, 156987, Tempo, 308214
1, 157467, Tempo, 301402
1, 157947, Tempo, 304770
1, 159360, Tempo, 309342
1, 159840, Tempo, 303536
1, 160320, Tempo, 297030
1, 160800, Tempo, 305188
1, 161280, Tempo, 307661
1, 161760, Tempo, 305188
1, 162720, Tempo, 308214
1, 163200, Tempo, 301402
1, 163680, Tempo, 304770
1, 165600, Tempo, 308214
1, 166080, Tempo, 296296
1, 166560, Tempo, 304770
1, 168000, Tempo, 305998
1, 168507, Tempo, 308214
1, 168987, Tempo, 301402
1, 169467, Tempo, 304770
1, 169920, Tempo, 308483
1, 170160, Tempo, 316623
1, 170880, Tempo, 326087
1, 171360, Tempo, 308214
1, 171840, Tempo, 297767
1, 172320, Tempo, 304770
1, 172800, Tempo, 294118
1, 173280, Tempo, 304770
1, 173760, Tempo, 305623
1, 174240, Tempo, 297030
1, 174720, Tempo, 307346
1, 175200, Tempo, 298507
1, 175680, Tempo, 305998
1, 176160, Tempo, 295567
1, 176640, Tempo, 304770
1, 177120, Tempo, 308214
1, 177600, Tempo, 297767
1, 178080, Tempo, 304770
1, 178560, Tempo, 296296
1, 179040, Tempo, 304770
1, 179520, Tempo, 305623
1, 180000, Tempo, 297767
1, 180480, Tempo, 305998
1, 180720, Tempo, 308483
1, 180960, Tempo, 299521
1, 181440, Tempo, 301917
1, 181920, Tempo, 300556
1, 182400, Tempo, 304770
1, 182880, Tempo, 308214
1, 183360, Tempo, 297030
1, 183840, Tempo, 304770
1, 184320, Tempo, 297030
1, 184800, Tempo, 304770
1, 185280, Tempo, 305623
1, 185760, Tempo, 299252
1, 186240, Tempo, 307346
1, 186720, Tempo, 299252
1, 187200, Tempo, 305998
1, 187680, Tempo, 296296
1, 188160, Tempo, 304770
1, 188640, Tempo, 308214
1, 189120, Tempo, 297767
1, 189600, Tempo, 304770
1, 190080, Tempo, 296296
1, 190560, Tempo, 304770
1, 191040, Tempo, 305623
1, 191520, Tempo, 298507
1, 192000, Tempo, 307346
1, 192480, Tempo, 299252
1, 192960, Tempo, 304352
1, 193440, Tempo, 297767
1, 193920, Tempo, 304352
1, 194880, Tempo, 297767
1, 195360, Tempo, 304770
1, 195840, Tempo, 297030
1, 196320, Tempo, 304352
1, 196800, Tempo, 305998
1, 197280, Tempo, 304352
1, 197760, Tempo, 297767
1, 198240, Tempo, 304770
1, 199200, Tempo, 305998
1, 200160, Tempo, 304352
1, 200640, Tempo, 297030
1, 201120, Tempo, 304770
1, 201600, Tempo, 301917
1, 202080, Tempo, 304352
1, 202560, Tempo, 305998
1, 203040, Tempo, 304352
1, 203520, Tempo, 298507
1, 204000, Tempo, 307692
1, 204480, Tempo, 314961
1, 204960, Tempo, 309278
1, 205440, Tempo, 308515
1, 205920, Tempo, 311688
1, 206400, Tempo, 316623
1, 206880, Tempo, 323450
1, 207360, Tempo, 352941
1, 207560, Tempo, 301917
1, 207720, Tempo, 302725
1, 207880, Tempo, 303536
1, 208040, Tempo, 304352
1, 208240, Tempo, 305188
1, 208400, Tempo, 305998
1, 208560, Tempo, 306827
1, 208720, Tempo, 307661
1, 208800, Tempo, 302725
1, 209120, Tempo, 303536
1, 209400, Tempo, 304352
1, 209680, Tempo, 305188
1, 209960, Tempo, 305998
1, 210160, Tempo, 305998
1, 210240, Tempo, 306122
1, 210360, Tempo, 306905
1, 210440, Tempo, 307692
1, 210520, Tempo, 308483
1, 210600, Tempo, 309278
1, 210680, Tempo, 310078
1, 210760, Tempo, 310881
1, 210840, Tempo, 311688
1, 210920, Tempo, 312500
1, 211040, Tempo, 313316
1, 211120, Tempo, 314136
1, 211200, Tempo, 314961
1, 211280, Tempo, 315789
1, 211360, Tempo, 316623
1, 211440, Tempo, 317460
1, 211520, Tempo, 318302
1, 211600, Tempo, 319149
1, 211680, Tempo, 320000
1, 211920, Tempo, 329670
1, 212160, Tempo, 325203
1, 212200, Tempo, 326087
1, 212240, Tempo, 327869
1, 212280, Tempo, 328767
1, 212320, Tempo, 330579
1, 212360, Tempo, 331492
1, 212400, Tempo, 333333
1, 212440, Tempo, 334262
1, 212480, Tempo, 336134
1, 212520, Tempo, 338028
1, 212560, Tempo, 338983
1, 212600, Tempo, 340909
1, 212640, Tempo, 341880
1, 212680, Tempo, 343840
1, 212720, Tempo, 344828
1, 212760, Tempo, 346821
1, 212800, Tempo, 348837
1, 212812, Tempo, 348837
1, 212824, Tempo, 349854
1, 212840, Tempo, 350877
1, 212852, Tempo, 351906
1, 212864, Tempo, 352941
1, 212880, Tempo, 353982
1, 212892, Tempo, 355030
1, 212904, Tempo, 356083
1, 212920, Tempo, 357143
1, 212932, Tempo, 358209
1, 212944, Tempo, 359281
1, 212960, Tempo, 360360
1, 212972, Tempo, 361446
1, 212984, Tempo, 363636
1, 213000, Tempo, 419580
1, 213120, Key_signature, -4, "major"
1, 213120, Tempo, 304383
1, 213600, Tempo, 298983
1, 214080, Tempo, 302572
1, 214560, Tempo, 298983
1, 215040, Tempo, 302633
1, 215520, Tempo, 296765
1, 216000, Tempo, 301644
1, 216480, Tempo, 298716
1, 216960, Tempo, 303628
1, 217440, Tempo, 303628
1, 218880, Tempo, 309757
1, 219360, Tempo, 302633
1, 219840, Tempo, 310816
1, 220320, Tempo, 303628
1, 220800, Tempo, 302633
1, 221280, Tempo, 296765
1, 221760, Tempo, 330579
1, 222080, Tempo, 350877
1, 222240, Tempo, 331492
1, 222560, Tempo, 349854
1, 222720, Tempo, 338983
1, 223200, Tempo, 321716
1, 224160, Tempo, 311883
1, 224640, Tempo, 305655
1, 225120, Tempo, 294840
1, 225600, Tempo, 310816
1, 226080, Tempo, 305655
1, 226560, Tempo, 302633
1, 227040, Tempo, 310816
1, 227520, Tempo, 305655
1, 228000, Tempo, 296296
1, 228480, Tempo, 310816
1, 228960, Tempo, 305655
1, 229440, Tempo, 302633
1, 229920, Tempo, 310816
1, 230400, Tempo, 309757
1, 230880, Tempo, 302633
1, 231360, Tempo, 310816
1, 231840, Tempo, 303628
1, 232320, Tempo, 302633
1, 232800, Tempo, 296765
1, 233280, Tempo, 305655
1, 233760, Tempo, 302633
1, 234000, Tempo, 310078
1, 234240, Tempo, 315789
1, 234720, Tempo, 309757
1, 235200, Tempo, 302633
1, 235680, Tempo, 314828
1, 236160, Tempo, 309757
1, 236640, Tempo, 298983
1, 237120, Tempo, 303475
1, 237600, Tempo, 303628
1, 238080, Tempo, 302633
1, 238560, Tempo, 296765
1, 239040, Tempo, 301644
1, 239520, Tempo, 298716
1, 240000, Tempo, 303628
1, 240480, Tempo, 303628
1, 241920, Tempo, 309757
1, 242400, Tempo, 302633
1, 242880, Tempo, 310816
1, 243360, Tempo, 303628
1, 243840, Tempo, 302633
1, 244320, Tempo, 296765
1, 244800, Tempo, 321716
1, 245120, Tempo, 351906
1, 245280, Tempo, 322581
1, 245600, Tempo, 350877
1, 245760, Tempo, 326087
1, 246240, Tempo, 318302
1, 247200, Tempo, 311883
1, 247680, Tempo, 305655
1, 248160, Tempo, 286396
1, 248640, Tempo, 310816
1, 249120, Tempo, 305655
1, 249600, Tempo, 302633
1, 250080, Tempo, 310816
1, 250560, Tempo, 299252
1, 251040, Tempo, 289855
1, 251520, Tempo, 310816
1, 252000, Tempo, 305655
1, 252480, Tempo, 302633
1, 252960, Tempo, 310816
1, 253440, Tempo, 301235
1, 253920, Tempo, 294118
1, 254400, Tempo, 304244
1, 254440, Tempo, 301235
1, 254880, Tempo, 298018
1, 255360, Tempo, 304321
1, 255840, Tempo, 298433
1, 256320, Tempo, 299760
1, 256800, Tempo, 293399
1, 257280, Tempo, 302450
1, 257760, Tempo, 298879
1, 258240, Tempo, 298018
1, 258720, Tempo, 303337
1, 259200, Tempo, 300646
1, 259680, Tempo, 294840
1, 260160, Tempo, 303337
1, 260640, Tempo, 301553
1, 261120, Tempo, 297133
1, 261600, Tempo, 302054
1, 262080, Tempo, 305530
1, 262560, Tempo, 301235
1, 263040, Tempo, 308151
1, 263520, Tempo, 305530
1, 264000, Tempo, 301235
1, 264240, Tempo, 314136
1, 264480, Tempo, 325203
1, 264960, Tempo, 314961
1, 265440, Tempo, 306905
1, 265920, Tempo, 313316
1, 266400, Tempo, 308483
1, 266640, Tempo, 303030
1, 266880, Tempo, 307692
1, 267360, Tempo, 304569
1, 267600, Tempo, 299536
1, 267840, Tempo, 304569
1, 268080, Tempo, 302923
1, 268320, Tempo, 301235
1, 268560, Tempo, 298701
1, 268800, Tempo, 303797
1, 269280, Tempo, 298507
1, 269520, Tempo, 302923
1, 269760, Tempo, 297767
1, 270000, Tempo, 294840
1, 270240, Tempo, 299252
1, 270720, Tempo, 296296
1, 270960, Tempo, 299252
1, 271200, Tempo, 301235
1, 271240, Tempo, 297030
1, 271440, Tempo, 293399
1, 271680, Tempo, 299252
1, 272160, Tempo, 295567
1, 272400, Tempo, 302923
1, 272640, Tempo, 301235
1, 272880, Tempo, 298701
1, 273120, Tempo, 302923
1, 273360, Tempo, 305530
1, 273600, Tempo, 302069
1, 274080, Tempo, 299536
1, 274320, Tempo, 303782
1, 274560, Tempo, 303782
1, 275040, Tempo, 300375
1, 275280, Tempo, 302923
1, 275520, Tempo, 301235
1, 275760, Tempo, 298701
1, 276000, Tempo, 302923
1, 276240, Tempo, 305530
1, 276480, Tempo, 302069
1, 276960, Tempo, 299536
1, 277200, Tempo, 303782
1, 277440, Tempo, 303782
1, 277920, Tempo, 302069
1, 278400, Tempo, 299536
1, 278640, Tempo, 303782
1, 278880, Tempo, 303782
1, 279360, Tempo, 310881
1, 280800, Tempo, 306122
1, 281040, Tempo, 302923
1, 281280, Tempo, 301235
1, 281520, Tempo, 298701
1, 281760, Tempo, 304569
1, 282240, Tempo, 301508
1, 282480, Tempo, 306122
1, 282720, Tempo, 300000
1, 282960, Tempo, 295567
1, 283200, Tempo, 299252
1, 283680, Tempo, 300375
1, 283920, Tempo, 302923
1, 284160, Tempo, 301235
1, 284400, Tempo, 298701
1, 284640, Tempo, 302923
1, 284880, Tempo, 305530
1, 285120, Tempo, 302069
1, 285600, Tempo, 299536
1, 285840, Tempo, 303782
1, 286080, Tempo, 303782
1, 286560, Tempo, 300375
1, 286800, Tempo, 302923
1, 287040, Tempo, 301235
1, 287280, Tempo, 298701
1, 287520, Tempo, 302923
1, 287760, Tempo, 305530
1, 288000, Tempo, 302069
1, 288480, Tempo, 299536
1, 288720, Tempo, 303782
1, 288960, Tempo, 303782
1, 289440, Tempo, 302069
1, 289920, Tempo, 299536
1, 290160, Tempo, 303782
1, 290400, Tempo, 303782
1, 290880, Tempo, 302069
1, 291360, Tempo, 299536
1, 291600, Tempo, 303782
1, 291840, Tempo, 303782
1, 292320, Tempo, 304383
1, 292800, Tempo, 298983
1, 293280, Tempo, 302572
1, 293760, Tempo, 298983
1, 294240, Tempo, 302633
1, 294720, Tempo, 296765
1, 295200, Tempo, 301644
1, 295680, Tempo, 298716
1, 296160, Tempo, 303628
1, 296640, Tempo, 303628
1, 298080, Tempo, 309757
1, 298560, Tempo, 302633
1, 299040, Tempo, 310816
1, 299520, Tempo, 308483
1, 300000, Tempo, 306905
1, 300480, Tempo, 314136
1, 300960, Tempo, 329670
1, 301280, Tempo, 351906
1, 301440, Tempo, 335196
1, 301760, Tempo, 351906
1, 301920, Tempo, 334262
1, 302400, Tempo, 321716
1, 303360, Tempo, 311883
1, 303840, Tempo, 305655
1, 304320, Tempo, 283688
1, 304800, Tempo, 300000
1, 305040, Tempo, 311688
1, 305280, Tempo, 305655
1, 305760, Tempo, 302633
1, 306240, Tempo, 310816
1, 306720, Tempo, 305655
1, 307200, Tempo, 294840
1, 307680, Tempo, 310816
1, 308160, Tempo, 305655
1, 308640, Tempo, 302633
1, 309120, Tempo, 310816
1, 309600, Tempo, 309757
1, 310080, Tempo, 302633
1, 310560, Tempo, 310816
1, 311040, Tempo, 303628
1, 311520, Tempo, 302633
1, 312000, Tempo, 296765
1, 312480, Tempo, 305655
1, 312960, Tempo, 302633
1, 313440, Tempo, 310816
1, 313920, Tempo, 316623
1, 314400, Tempo, 311688
1, 314880, Tempo, 325203
1, 315360, Tempo, 309757
1, 315840, Tempo, 298983
1, 316320, Tempo, 303475
1, 316800, Tempo, 303628
1, 317280, Tempo, 302633
1, 317760, Tempo, 296765
1, 318240, Tempo, 301644
1, 318720, Tempo, 298716
1, 319200, Tempo, 303628
1, 319680, Tempo, 303628
1, 321120, Tempo, 309757
1, 321600, Tempo, 302633
1, 322080, Tempo, 310816
1, 322560, Tempo, 303628
1, 323040, Tempo, 302633
1, 323520, Tempo, 296765
1, 324000, Tempo, 322581
1, 324320, Tempo, 350877
1, 324480, Tempo, 323450
1, 324800, Tempo, 351906
1, 324960, Tempo, 333333
1, 325440, Tempo, 324324
1, 326400, Tempo, 311883
1, 326880, Tempo, 305655
1, 327360, Tempo, 288462
1, 327840, Tempo, 310816
1, 328320, Tempo, 305655
1, 328800, Tempo, 302633
1, 329280, Tempo, 310816
1, 329760, Tempo, 305655
1, 330240, Tempo, 299685
1, 330720, Tempo, 310816
1, 331200, Tempo, 305655
1, 331680, Tempo, 302633
1, 332160, Tempo, 310816
1, 332640, Tempo, 305655
1, 333120, Tempo, 299685
1, 333600, Tempo, 310816
1, 334080, Tempo, 305655
1, 334560, Tempo, 302633
1, 335040, Tempo, 310816
1, 335520, Tempo, 305655
1, 336000, Tempo, 302633
1, 336480, Tempo, 312679
1, 336960, Tempo, 308151
1, 337440, Tempo, 303782
1, 337920, Tempo, 318032
1, 338400, Tempo, 297030
1, 338880, Tempo, 289855
1, 339360, Tempo, 293399
1, 339840, Tempo, 289855
1, 340320, Tempo, 290543
1, 340800, Tempo, 284927
1, 341280, Tempo, 283567
1, 341720, Tempo, 285633
1, 341760, Tempo, 277778
1, 342240, Tempo, 282353
1, 342720, Tempo, 276498
1, 343320, Tempo, 282885
1, 343720, Tempo, 282207
1, 344080, Tempo, 281545
1, 344160, Tempo, 278513
1, 344640, Tempo, 270880
1, 345120, Tempo, 277842
1, 345600, Tempo, 271493
1, 346040, Tempo, 277175
1, 346560, Tempo, 272628
1, 347040, Tempo, 274537
1, 347520, Tempo, 270270
1, 348000, Tempo, 274537
1, 348480, Tempo, 270880
1, 348960, Tempo, 275849
1, 349440, Tempo, 270270
1, 349920, Tempo, 272839
1, 350400, Tempo, 269058
1, 350880, Tempo, 274135
1, 351360, Tempo, 270270
1, 351840, Tempo, 274788
1, 352320, Tempo, 272208
1, 353280, Tempo, 266667
1, 353760, Tempo, 270343
1, 354240, Tempo, 267261
1, 354720, Tempo, 274135
1, 355680, Tempo, 270063
1, 356160, Tempo, 265487
1, 356640, Tempo, 269433
1, 357120, Tempo, 266667
1, 357600, Tempo, 270673
1, 358120, Tempo, 268192
1, 358560, Tempo, 273848
1, 359040, Tempo, 262582
1, 359520, Tempo, 269433
1, 360000, Tempo, 262582
1, 360480, Tempo, 272554
1, 360960, Tempo, 270636
1, 361440, Tempo, 268049
1, 361480, Tempo, 291262
1, 361920, Tempo, 282353
1, 362880, Tempo, 272727
1, 363360, Tempo, 274600
1, 363840, Tempo, 279720
1, 364320, Tempo, 289157
1, 364800, Tempo, 283688
1, 365280, Tempo, 279720
1, 365760, Tempo, 283688
1, 366720, Tempo, 289157
1, 367200, Tempo, 285036
1, 367680, Tempo, 291971
1, 368640, Tempo, 289157
1, 369120, Tempo, 294840
1, 370080, Tempo, 289855
1, 370600, Tempo, 294840
1, 371520, Tempo, 293312
1, 372000, Tempo, 294840
1, 372960, Tempo, 301129
1, 373480, Tempo, 297959
1, 373640, Tempo, 298730
1, 373760, Tempo, 299521
1, 373880, Tempo, 300315
1, 374000, Tempo, 301129
1, 374120, Tempo, 301917
1, 374240, Tempo, 302725
1, 374360, Tempo, 303536
1, 374480, Tempo, 302725
1, 374680, Tempo, 301917
1, 374880, Tempo, 301129
1, 375080, Tempo, 300315
1, 375200, Tempo, 301129
1, 375560, Tempo, 301917
1, 375840, Tempo, 303797
1, 376320, Tempo, 308483
1, 376800, Tempo, 314136
1, 378720, Tempo, 333333
1, 378720, End_track
2, 0, Start_track
2, 0, Title_t, "Piano right"
2, 0, Program_c, 0, 0
2, 0, Control_c, 0, 7, 100
2, 0, Control_c, 0, 10, 64
2, 0, Control_c, 0, 91, 127
2, 0, Text_t, "bdca426d104a26ac9dcb070447587523"
2, 480, Note_on_c, 0, 68, 59
2, 960, Note_on_c, 0, 63, 39
2, 1440, Note_on_c, 0, 63, 0
2, 1440, Note_on_c, 0, 68, 0
2, 1440, Note_on_c, 0, 70, 57
2, 1920, Note_on_c, 0, 63, 28
2, 1920, Note_on_c, 0, 68, 31
2, 2400, Note_on_c, 0, 68, 0
2, 2400, Note_on_c, 0, 63, 0
2, 2400, Note_on_c, 0, 70, 0
2, 2400, Note_on_c, 0, 72, 57
2, 2880, Note_on_c, 0, 72, 0
2, 3360, Note_on_c, 0, 73, 63
2, 3840, Note_on_c, 0, 63, 34
2, 3840, Note_on_c, 0, 67, 38
2, 4320, Note_on_c, 0, 67, 0
2, 4320, Note_on_c, 0, 63, 0
2, 4320, Note_on_c, 0, 73, 0
2, 4320, Note_on_c, 0, 72, 62
2, 4800, Note_on_c, 0, 67, 35
2, 4800, Note_on_c, 0, 63, 30
2, 5280, Note_on_c, 0, 63, 0
2, 5280, Note_on_c, 0, 67, 0
2, 5280, Note_on_c, 0, 72, 0
2, 5280, Note_on_c, 0, 70, 51
2, 5760, Note_on_c, 0, 70, 0
2, 6240, Note_on_c, 0, 72, 63
2, 6720, Note_on_c, 0, 68, 42
2, 6720, Note_on_c, 0, 63, 38
2, 7200, Note_on_c, 0, 63, 0
2, 7200, Note_on_c, 0, 68, 0
2, 7200, Note_on_c, 0, 72, 0
2, 7200, Note_on_c, 0, 73, 68
2, 7680, Note_on_c, 0, 63, 37
2, 7680, Note_on_c, 0, 68, 41
2, 8160, Note_on_c, 0, 68, 0
2, 8160, Note_on_c, 0, 63, 0
2, 8160, Note_on_c, 0, 73, 0
2, 8160, Note_on_c, 0, 75, 71
2, 8640, Note_on_c, 0, 75, 0
2, 8640, Note_on_c, 0, 77, 73
2, 8970, Note_on_c, 0, 77, 0
2, 9060, Note_on_c, 0, 68, 51
2, 9090, Note_on_c, 0, 74, 56
2, 9120, Note_on_c, 0, 79, 74
2, 9450, Note_on_c, 0, 79, 0
2, 9450, Note_on_c, 0, 74, 0
2, 9450, Note_on_c, 0, 68, 0
2, 9540, Note_on_c, 0, 68, 51
2, 9570, Note_on_c, 0, 74, 56
2, 9600, Note_on_c, 0, 80, 77
2, 10080, Note_on_c, 0, 80, 0
2, 10080, Note_on_c, 0, 74, 0
2, 10080, Note_on_c, 0, 68, 0
2, 10080, Note_on_c, 0, 75, 81
2, 10560, Note_on_c, 0, 72, 44
2, 10560, Note_on_c, 0, 68, 38
2, 10560, Note_on_c, 0, 63, 38
2, 11040, Note_on_c, 0, 63, 0
2, 11040, Note_on_c, 0, 68, 0
2, 11040, Note_on_c, 0, 72, 0
2, 11040, Note_on_c, 0, 72, 43
2, 11040, Note_on_c, 0, 68, 38
2, 11040, Note_on_c, 0, 63, 38
2, 11520, Note_on_c, 0, 63, 0
2, 11520, Note_on_c, 0, 75, 0
2, 11520, Note_on_c, 0, 72, 0
2, 11520, Note_on_c, 0, 68, 0
2, 12000, Note_on_c, 0, 78, 59
2, 12240, Note_on_c, 0, 78, 0
2, 12240, Note_on_c, 0, 77, 56
2, 12480, Note_on_c, 0, 77, 0
2, 12480, Note_on_c, 0, 75, 59
2, 12720, Note_on_c, 0, 75, 0
2, 12720, Note_on_c, 0, 78, 56
2, 12960, Note_on_c, 0, 78, 0
2, 12960, Note_on_c, 0, 77, 62
2, 13680, Note_on_c, 0, 77, 0
2, 13680, Note_on_c, 0, 73, 59
2, 13920, Note_on_c, 0, 73, 0
2, 13920, Note_on_c, 0, 70, 55
2, 14160, Note_on_c, 0, 70, 0
2, 14160, Note_on_c, 0, 65, 50
2, 14400, Note_on_c, 0, 65, 0
2, 14880, Note_on_c, 0, 76, 59
2, 15120, Note_on_c, 0, 76, 0
2, 15120, Note_on_c, 0, 75, 56
2, 15360, Note_on_c, 0, 75, 0
2, 15360, Note_on_c, 0, 73, 59
2, 15600, Note_on_c, 0, 73, 0
2, 15600, Note_on_c, 0, 76, 56
2, 15840, Note_on_c, 0, 76, 0
2, 15840, Note_on_c, 0, 75, 62
2, 16560, Note_on_c, 0, 75, 0
2, 16560, Note_on_c, 0, 72, 59
2, 16800, Note_on_c, 0, 72, 0
2, 16800, Note_on_c, 0, 68, 57
2, 17040, Note_on_c, 0, 68, 0
2, 17040, Note_on_c, 0, 63, 52
2, 17280, Note_on_c, 0, 63, 0
2, 17760, Note_on_c, 0, 60, 35
2, 17760, Note_on_c, 0, 63, 39
2, 17760, Note_on_c, 0, 68, 59
2, 18240, Note_on_c, 0, 63, 0
2, 18240, Note_on_c, 0, 60, 0
2, 18240, Note_on_c, 0, 60, 35
2, 18240, Note_on_c, 0, 63, 39
2, 18720, Note_on_c, 0, 63, 0
2, 18720, Note_on_c, 0, 60, 0
2, 18720, Note_on_c, 0, 68, 0
2, 18720, Note_on_c, 0, 67, 63
2, 19200, Note_on_c, 0, 60, 31
2, 19200, Note_on_c, 0, 65, 36
2, 19680, Note_on_c, 0, 65, 0
2, 19680, Note_on_c, 0, 60, 0
2, 19680, Note_on_c, 0, 67, 0
2, 19680, Note_on_c, 0, 60, 31
2, 19680, Note_on_c, 0, 65, 36
2, 19680, Note_on_c, 0, 68, 59
2, 20160, Note_on_c, 0, 68, 0
2, 20160, Note_on_c, 0, 65, 0
2, 20160, Note_on_c, 0, 60, 0
2, 20160, Note_on_c, 0, 70, 68
2, 20640, Note_on_c, 0, 62, 31
2, 20640, Note_on_c, 0, 68, 36
2, 20880, Note_on_c, 0, 70, 0
2, 20880, Note_on_c, 0, 71, 61
2, 21120, Note_on_c, 0, 71, 0
2, 21120, Note_on_c, 0, 68, 0
2, 21120, Note_on_c, 0, 62, 0
2, 21120, Note_on_c, 0, 62, 31
2, 21120, Note_on_c, 0, 68, 36
2, 21120, Note_on_c, 0, 70, 59
2, 21360, Note_on_c, 0, 70, 0
2, 21360, Note_on_c, 0, 71, 52
2, 21600, Note_on_c, 0, 71, 0
2, 21600, Note_on_c, 0, 68, 0
2, 21600, Note_on_c, 0, 62, 0
2, 21600, Note_on_c, 0, 67, 59
2, 22080, Note_on_c, 0, 61, 36
2, 22080, Note_on_c, 0, 63, 40
2, 22560, Note_on_c, 0, 63, 0
2, 22560, Note_on_c, 0, 61, 0
2, 22560, Note_on_c, 0, 61, 35
2, 22560, Note_on_c, 0, 63, 39
2, 23040, Note_on_c, 0, 63, 0
2, 23040, Note_on_c, 0, 61, 0
2, 23040, Note_on_c, 0, 67, 0
2, 23520, Note_on_c, 0, 68, 59
2, 24000, Note_on_c, 0, 63, 39
2, 24480, Note_on_c, 0, 63, 0
2, 24480, Note_on_c, 0, 68, 0
2, 24480, Note_on_c, 0, 70, 58
2, 24960, Note_on_c, 0, 63, 28
2, 24960, Note_on_c, 0, 68, 31
2, 25440, Note_on_c, 0, 68, 0
2, 25440, Note_on_c, 0, 63, 0
2, 25440, Note_on_c, 0, 70, 0
2, 25440, Note_on_c, 0, 72, 57
2, 25920, Note_on_c, 0, 72, 0
2, 26400, Note_on_c, 0, 73, 63
2, 26880, Note_on_c, 0, 63, 34
2, 26880, Note_on_c, 0, 67, 38
2, 27360, Note_on_c, 0, 67, 0
2, 27360, Note_on_c, 0, 63, 0
2, 27360, Note_on_c, 0, 73, 0
2, 27360, Note_on_c, 0, 72, 62
2, 27840, Note_on_c, 0, 67, 35
2, 27840, Note_on_c, 0, 63, 30
2, 28320, Note_on_c, 0, 63, 0
2, 28320, Note_on_c, 0, 67, 0
2, 28320, Note_on_c, 0, 72, 0
2, 28320, Note_on_c, 0, 70, 51
2, 28800, Note_on_c, 0, 70, 0
2, 29280, Note_on_c, 0, 72, 63
2, 29760, Note_on_c, 0, 68, 42
2, 29760, Note_on_c, 0, 63, 38
2, 30240, Note_on_c, 0, 63, 0
2, 30240, Note_on_c, 0, 68, 0
2, 30240, Note_on_c, 0, 72, 0
2, 30240, Note_on_c, 0, 73, 68
2, 30720, Note_on_c, 0, 63, 37
2, 30720, Note_on_c, 0, 68, 41
2, 31200, Note_on_c, 0, 68, 0
2, 31200, Note_on_c, 0, 63, 0
2, 31200, Note_on_c, 0, 73, 0
2, 31200, Note_on_c, 0, 75, 71
2, 31680, Note_on_c, 0, 75, 0
2, 31680, Note_on_c, 0, 77, 73
2, 32010, Note_on_c, 0, 77, 0
2, 32100, Note_on_c, 0, 68, 48
2, 32130, Note_on_c, 0, 74, 56
2, 32160, Note_on_c, 0, 79, 74
2, 32490, Note_on_c, 0, 79, 0
2, 32490, Note_on_c, 0, 74, 0
2, 32490, Note_on_c, 0, 68, 0
2, 32580, Note_on_c, 0, 68, 48
2, 32610, Note_on_c, 0, 74, 55
2, 32640, Note_on_c, 0, 80, 77
2, 33120, Note_on_c, 0, 80, 0
2, 33120, Note_on_c, 0, 74, 0
2, 33120, Note_on_c, 0, 68, 0
2, 33120, Note_on_c, 0, 75, 81
2, 33600, Note_on_c, 0, 63, 38
2, 33600, Note_on_c, 0, 68, 38
2, 33600, Note_on_c, 0, 72, 44
2, 34080, Note_on_c, 0, 72, 0
2, 34080, Note_on_c, 0, 68, 0
2, 34080, Note_on_c, 0, 63, 0
2, 34080, Note_on_c, 0, 63, 38
2, 34080, Note_on_c, 0, 68, 38
2, 34080, Note_on_c, 0, 72, 43
2, 34560, Note_on_c, 0, 72, 0
2, 34560, Note_on_c, 0, 75, 0
2, 34560, Note_on_c, 0, 63, 0
2, 34560, Note_on_c, 0, 68, 0
2, 35040, Note_on_c, 0, 78, 59
2, 35280, Note_on_c, 0, 78, 0
2, 35280, Note_on_c, 0, 77, 56
2, 35520, Note_on_c, 0, 77, 0
2, 35520, Note_on_c, 0, 75, 59
2, 35760, Note_on_c, 0, 75, 0
2, 35760, Note_on_c, 0, 78, 56
2, 36000, Note_on_c, 0, 78, 0
2, 36000, Note_on_c, 0, 77, 62
2, 36720, Note_on_c, 0, 77, 0
2, 36720, Note_on_c, 0, 73, 59
2, 36960, Note_on_c, 0, 73, 0
2, 36960, Note_on_c, 0, 70, 55
2, 37200, Note_on_c, 0, 70, 0
2, 37200, Note_on_c, 0, 65, 50
2, 37440, Note_on_c, 0, 65, 0
2, 37920, Note_on_c, 0, 80, 66
2, 38160, Note_on_c, 0, 80, 0
2, 38160, Note_on_c, 0, 79, 61
2, 38400, Note_on_c, 0, 79, 0
2, 38400, Note_on_c, 0, 77, 64
2, 38640, Note_on_c, 0, 77, 0
2, 38640, Note_on_c, 0, 80, 60
2, 38880, Note_on_c, 0, 80, 0
2, 38880, Note_on_c, 0, 79, 68
2, 39600, Note_on_c, 0, 79, 0
2, 39600, Note_on_c, 0, 76, 61
2, 39840, Note_on_c, 0, 76, 0
2, 39840, Note_on_c, 0, 72, 59
2, 40080, Note_on_c, 0, 72, 0
2, 40080, Note_on_c, 0, 67, 55
2, 40320, Note_on_c, 0, 67, 0
2, 40800, Note_on_c, 0, 74, 70
2, 41280, Note_on_c, 0, 66, 46
2, 41280, Note_on_c, 0, 72, 46
2, 41760, Note_on_c, 0, 72, 0
2, 41760, Note_on_c, 0, 66, 0
2, 41760, Note_on_c, 0, 74, 0
2, 41760, Note_on_c, 0, 76, 70
2, 42240, Note_on_c, 0, 67, 34
2, 42240, Note_on_c, 0, 72, 37
2, 42720, Note_on_c, 0, 72, 0
2, 42720, Note_on_c, 0, 67, 0
2, 42720, Note_on_c, 0, 76, 0
2, 42720, Note_on_c, 0, 79, 70
2, 43200, Note_on_c, 0, 79, 0
2, 43680, Note_on_c, 0, 74, 75
2, 44160, Note_on_c, 0, 65, 39
2, 44160, Note_on_c, 0, 71, 45
2, 44640, Note_on_c, 0, 71, 0
2, 44640, Note_on_c, 0, 65, 0
2, 44640, Note_on_c, 0, 74, 0
2, 44640, Note_on_c, 0, 76, 73
2, 45120, Note_on_c, 0, 67, 40
2, 45120, Note_on_c, 0, 64, 36
2, 45600, Note_on_c, 0, 76, 0
2, 45600, Note_on_c, 0, 72, 61
2, 46080, Note_on_c, 0, 72, 0
2, 46080, Note_on_c, 0, 64, 0
2, 46080, Note_on_c, 0, 67, 0
2, 46560, Note_on_c, 0, 74, 71
2, 47040, Note_on_c, 0, 72, 50
2, 47040, Note_on_c, 0, 66, 45
2, 47520, Note_on_c, 0, 66, 0
2, 47520, Note_on_c, 0, 72, 0
2, 47520, Note_on_c, 0, 74, 0
2, 47520, Note_on_c, 0, 76, 73
2, 48000, Note_on_c, 0, 67, 44
2, 48000, Note_on_c, 0, 72, 48
2, 48480, Note_on_c, 0, 72, 0
2, 48480, Note_on_c, 0, 67, 0
2, 48480, Note_on_c, 0, 76, 0
2, 48480, Note_on_c, 0, 79, 69
2, 48960, Note_on_c, 0, 79, 0
2, 48960, Note_on_c, 0, 74, 73
2, 49440, Note_on_c, 0, 65, 39
2, 49440, Note_on_c, 0, 71, 41
2, 49680, Note_on_c, 0, 74, 0
2, 49680, Note_on_c, 0, 76, 70
2, 49920, Note_on_c, 0, 76, 0
2, 49920, Note_on_c, 0, 71, 0
2, 49920, Note_on_c, 0, 65, 0
2, 49920, Note_on_c, 0, 65, 45
2, 49920, Note_on_c, 0, 71, 44
2, 49920, Note_on_c, 0, 74, 64
2, 50160, Note_on_c, 0, 74, 0
2, 50160, Note_on_c, 0, 76, 60
2, 50400, Note_on_c, 0, 76, 0
2, 50400, Note_on_c, 0, 71, 0
2, 50400, Note_on_c, 0, 65, 0
2, 50400, Note_on_c, 0, 72, 66
2, 51120, Note_on_c, 0, 72, 0
2, 51120, Note_on_c, 0, 76, 55
2, 51360, Note_on_c, 0, 76, 0
2, 51360, Note_on_c, 0, 75, 58
2, 51600, Note_on_c, 0, 75, 0
2, 51600, Note_on_c, 0, 76, 56
2, 51840, Note_on_c, 0, 76, 0
2, 51840, Note_on_c, 0, 72, 66
2, 52560, Note_on_c, 0, 72, 0
2, 52560, Note_on_c, 0, 76, 55
2, 52800, Note_on_c, 0, 76, 0
2, 52800, Note_on_c, 0, 75, 58
2, 53040, Note_on_c, 0, 75, 0
2, 53040, Note_on_c, 0, 76, 56
2, 53280, Note_on_c, 0, 76, 0
2, 53280, Note_on_c, 0, 72, 66
2, 53520, Note_on_c, 0, 72, 0
2, 53520, Note_on_c, 0, 76, 55
2, 53760, Note_on_c, 0, 76, 0
2, 53760, Note_on_c, 0, 75, 58
2, 54000, Note_on_c, 0, 75, 0
2, 54000, Note_on_c, 0, 76, 55
2, 54240, Note_on_c, 0, 76, 0
2, 54240, Note_on_c, 0, 72, 62
2, 54480, Note_on_c, 0, 72, 0
2, 54480, Note_on_c, 0, 76, 56
2, 54720, Note_on_c, 0, 76, 0
2, 54720, Note_on_c, 0, 75, 59
2, 54960, Note_on_c, 0, 75, 0
2, 54960, Note_on_c, 0, 76, 55
2, 55200, Note_on_c, 0, 76, 0
2, 55200, Note_on_c, 0, 72, 63
2, 55440, Note_on_c, 0, 72, 0
2, 55440, Note_on_c, 0, 76, 55
2, 55680, Note_on_c, 0, 76, 0
2, 55680, Note_on_c, 0, 75, 58
2, 55920, Note_on_c, 0, 75, 0
2, 55920, Note_on_c, 0, 76, 56
2, 56160, Note_on_c, 0, 76, 0
2, 56160, Note_on_c, 0, 73, 59
2, 56400, Note_on_c, 0, 73, 0
2, 56400, Note_on_c, 0, 77, 55
2, 56640, Note_on_c, 0, 77, 0
2, 56640, Note_on_c, 0, 76, 64
2, 56880, Note_on_c, 0, 76, 0
2, 56880, Note_on_c, 0, 77, 56
2, 57120, Note_on_c, 0, 77, 0
2, 57120, Note_on_c, 0, 73, 60
2, 57360, Note_on_c, 0, 73, 0
2, 57360, Note_on_c, 0, 77, 58
2, 57600, Note_on_c, 0, 77, 0
2, 57600, Note_on_c, 0, 76, 62
2, 57840, Note_on_c, 0, 76, 0
2, 57840, Note_on_c, 0, 77, 58
2, 58069, Note_on_c, 0, 73, 68
2, 58080, Note_on_c, 0, 77, 0
2, 58309, Note_on_c, 0, 73, 0
2, 58320, Note_on_c, 0, 77, 60
2, 58560, Note_on_c, 0, 77, 0
2, 58560, Note_on_c, 0, 76, 63
2, 58800, Note_on_c, 0, 76, 0
2, 58800, Note_on_c, 0, 77, 62
2, 59040, Note_on_c, 0, 77, 0
2, 59040, Note_on_c, 0, 71, 67
2, 59280, Note_on_c, 0, 77, 62
2, 59509, Note_on_c, 0, 76, 72
2, 59520, Note_on_c, 0, 77, 0
2, 59749, Note_on_c, 0, 76, 0
2, 59760, Note_on_c, 0, 77, 63
2, 60000, Note_on_c, 0, 77, 0
2, 60000, Note_on_c, 0, 80, 75
2, 60240, Note_on_c, 0, 80, 0
2, 60240, Note_on_c, 0, 79, 71
2, 60480, Note_on_c, 0, 79, 0
2, 60480, Note_on_c, 0, 71, 0
2, 60480, Note_on_c, 0, 75, 82
2, 61200, Note_on_c, 0, 75, 0
2, 61200, Note_on_c, 0, 76, 70
2, 61440, Note_on_c, 0, 76, 0
2, 61440, Note_on_c, 0, 79, 72
2, 61680, Note_on_c, 0, 79, 0
2, 61680, Note_on_c, 0, 84, 68
2, 61920, Note_on_c, 0, 84, 0
2, 61920, Note_on_c, 0, 69, 67
2, 62160, Note_on_c, 0, 75, 62
2, 62400, Note_on_c, 0, 75, 0
2, 62400, Note_on_c, 0, 74, 72
2, 62640, Note_on_c, 0, 74, 0
2, 62640, Note_on_c, 0, 75, 63
2, 62880, Note_on_c, 0, 75, 0
2, 62880, Note_on_c, 0, 78, 69
2, 63120, Note_on_c, 0, 78, 0
2, 63120, Note_on_c, 0, 77, 66
2, 63360, Note_on_c, 0, 77, 0
2, 63360, Note_on_c, 0, 69, 0
2, 63360, Note_on_c, 0, 72, 71
2, 64080, Note_on_c, 0, 72, 0
2, 64080, Note_on_c, 0, 73, 69
2, 64320, Note_on_c, 0, 73, 0
2, 64320, Note_on_c, 0, 77, 68
2, 64560, Note_on_c, 0, 77, 0
2, 64560, Note_on_c, 0, 82, 64
2, 64800, Note_on_c, 0, 82, 0
2, 64800, Note_on_c, 0, 69, 72
2, 65520, Note_on_c, 0, 69, 0
2, 65520, Note_on_c, 0, 70, 67
2, 65760, Note_on_c, 0, 70, 0
2, 65760, Note_on_c, 0, 73, 70
2, 66000, Note_on_c, 0, 73, 0
2, 66000, Note_on_c, 0, 80, 66
2, 66240, Note_on_c, 0, 80, 0
2, 66240, Note_on_c, 0, 79, 66
2, 66480, Note_on_c, 0, 79, 0
2, 66480, Note_on_c, 0, 77, 60
2, 66720, Note_on_c, 0, 77, 0
2, 66720, Note_on_c, 0, 75, 61
2, 66960, Note_on_c, 0, 75, 0
2, 66960, Note_on_c, 0, 74, 56
2, 67200, Note_on_c, 0, 74, 0
2, 67200, Note_on_c, 0, 77, 59
2, 67440, Note_on_c, 0, 77, 0
2, 67440, Note_on_c, 0, 75, 56
2, 67680, Note_on_c, 0, 75, 0
2, 67680, Note_on_c, 0, 73, 59
2, 67920, Note_on_c, 0, 73, 0
2, 67920, Note_on_c, 0, 77, 55
2, 68160, Note_on_c, 0, 77, 0
2, 68160, Note_on_c, 0, 76, 64
2, 68400, Note_on_c, 0, 76, 0
2, 68400, Note_on_c, 0, 77, 56
2, 68640, Note_on_c, 0, 77, 0
2, 68640, Note_on_c, 0, 73, 60
2, 68880, Note_on_c, 0, 73, 0
2, 68880, Note_on_c, 0, 77, 58
2, 69120, Note_on_c, 0, 77, 0
2, 69120, Note_on_c, 0, 76, 62
2, 69360, Note_on_c, 0, 76, 0
2, 69360, Note_on_c, 0, 77, 58
2, 69589, Note_on_c, 0, 73, 68
2, 69600, Note_on_c, 0, 77, 0
2, 69829, Note_on_c, 0, 73, 0
2, 69840, Note_on_c, 0, 77, 60
2, 70080, Note_on_c, 0, 77, 0
2, 70080, Note_on_c, 0, 76, 63
2, 70320, Note_on_c, 0, 76, 0
2, 70320, Note_on_c, 0, 77, 62
2, 70560, Note_on_c, 0, 77, 0
2, 70560, Note_on_c, 0, 71, 67
2, 70800, Note_on_c, 0, 77, 62
2, 71029, Note_on_c, 0, 76, 72
2, 71040, Note_on_c, 0, 77, 0
2, 71269, Note_on_c, 0, 76, 0
2, 71280, Note_on_c, 0, 77, 63
2, 71520, Note_on_c, 0, 77, 0
2, 71520, Note_on_c, 0, 80, 75
2, 71760, Note_on_c, 0, 80, 0
2, 71760, Note_on_c, 0, 79, 71
2, 72000, Note_on_c, 0, 79, 0
2, 72000, Note_on_c, 0, 71, 0
2, 72000, Note_on_c, 0, 75, 82
2, 72720, Note_on_c, 0, 75, 0
2, 72720, Note_on_c, 0, 76, 69
2, 72960, Note_on_c, 0, 76, 0
2, 72960, Note_on_c, 0, 79, 72
2, 73200, Note_on_c, 0, 79, 0
2, 73200, Note_on_c, 0, 84, 69
2, 73440, Note_on_c, 0, 84, 0
2, 73440, Note_on_c, 0, 69, 67
2, 73680, Note_on_c, 0, 75, 62
2, 73920, Note_on_c, 0, 75, 0
2, 73920, Note_on_c, 0, 74, 72
2, 74160, Note_on_c, 0, 74, 0
2, 74160, Note_on_c, 0, 75, 63
2, 74400, Note_on_c, 0, 75, 0
2, 74400, Note_on_c, 0, 78, 69
2, 74640, Note_on_c, 0, 78, 0
2, 74640, Note_on_c, 0, 77, 66
2, 74880, Note_on_c, 0, 77, 0
2, 74880, Note_on_c, 0, 69, 0
2, 74880, Note_on_c, 0, 72, 74
2, 75600, Note_on_c, 0, 72, 0
2, 75600, Note_on_c, 0, 73, 67
2, 75840, Note_on_c, 0, 73, 0
2, 75840, Note_on_c, 0, 77, 70
2, 76080, Note_on_c, 0, 77, 0
2, 76080, Note_on_c, 0, 82, 64
2, 76320, Note_on_c, 0, 82, 0
2, 76320, Note_on_c, 0, 69, 68
2, 77040, Note_on_c, 0, 69, 0
2, 77040, Note_on_c, 0, 70, 60
2, 77280, Note_on_c, 0, 70, 0
2, 77280, Note_on_c, 0, 72, 62
2, 77520, Note_on_c, 0, 72, 0
2, 77520, Note_on_c, 0, 73, 59
2, 77760, Note_on_c, 0, 73, 0
2, 77760, Note_on_c, 0, 66, 63
2, 78480, Note_on_c, 0, 66, 0
2, 78480, Note_on_c, 0, 67, 57
2, 78720, Note_on_c, 0, 67, 0
2, 78720, Note_on_c, 0, 69, 59
2, 78960, Note_on_c, 0, 69, 0
2, 78960, Note_on_c, 0, 70, 56
2, 79200, Note_on_c, 0, 70, 0
2, 79680, Note_on_c, 0, 68, 59
2, 80160, Note_on_c, 0, 63, 39
2, 80640, Note_on_c, 0, 63, 0
2, 80640, Note_on_c, 0, 68, 0
2, 80640, Note_on_c, 0, 70, 59
2, 81120, Note_on_c, 0, 63, 28
2, 81120, Note_on_c, 0, 68, 31
2, 81600, Note_on_c, 0, 68, 0
2, 81600, Note_on_c, 0, 63, 0
2, 81600, Note_on_c, 0, 70, 0
2, 81600, Note_on_c, 0, 72, 59
2, 82080, Note_on_c, 0, 72, 0
2, 82560, Note_on_c, 0, 73, 63
2, 83040, Note_on_c, 0, 63, 34
2, 83040, Note_on_c, 0, 67, 38
2, 83520, Note_on_c, 0, 67, 0
2, 83520, Note_on_c, 0, 63, 0
2, 83520, Note_on_c, 0, 73, 0
2, 83520, Note_on_c, 0, 72, 62
2, 84000, Note_on_c, 0, 67, 35
2, 84000, Note_on_c, 0, 63, 30
2, 84480, Note_on_c, 0, 63, 0
2, 84480, Note_on_c, 0, 67, 0
2, 84480, Note_on_c, 0, 72, 0
2, 84480, Note_on_c, 0, 70, 51
2, 84960, Note_on_c, 0, 70, 0
2, 85440, Note_on_c, 0, 72, 63
2, 85920, Note_on_c, 0, 68, 42
2, 85920, Note_on_c, 0, 63, 38
2, 86400, Note_on_c, 0, 63, 0
2, 86400, Note_on_c, 0, 68, 0
2, 86400, Note_on_c, 0, 72, 0
2, 86400, Note_on_c, 0, 73, 68
2, 86880, Note_on_c, 0, 63, 37
2, 86880, Note_on_c, 0, 68, 41
2, 87360, Note_on_c, 0, 68, 0
2, 87360, Note_on_c, 0, 63, 0
2, 87360, Note_on_c, 0, 73, 0
2, 87360, Note_on_c, 0, 75, 71
2, 87840, Note_on_c, 0, 75, 0
2, 87840, Note_on_c, 0, 77, 73
2, 88170, Note_on_c, 0, 77, 0
2, 88260, Note_on_c, 0, 68, 51
2, 88290, Note_on_c, 0, 74, 56
2, 88320, Note_on_c, 0, 79, 74
2, 88650, Note_on_c, 0, 79, 0
2, 88650, Note_on_c, 0, 74, 0
2, 88650, Note_on_c, 0, 68, 0
2, 88740, Note_on_c, 0, 68, 51
2, 88770, Note_on_c, 0, 74, 56
2, 88800, Note_on_c, 0, 80, 77
2, 89280, Note_on_c, 0, 80, 0
2, 89280, Note_on_c, 0, 74, 0
2, 89280, Note_on_c, 0, 68, 0
2, 89280, Note_on_c, 0, 75, 81
2, 89760, Note_on_c, 0, 63, 38
2, 89760, Note_on_c, 0, 68, 38
2, 89760, Note_on_c, 0, 72, 44
2, 90240, Note_on_c, 0, 72, 0
2, 90240, Note_on_c, 0, 68, 0
2, 90240, Note_on_c, 0, 63, 0
2, 90240, Note_on_c, 0, 63, 38
2, 90240, Note_on_c, 0, 68, 38
2, 90240, Note_on_c, 0, 72, 43
2, 90720, Note_on_c, 0, 72, 0
2, 90720, Note_on_c, 0, 75, 0
2, 90720, Note_on_c, 0, 63, 0
2, 90720, Note_on_c, 0, 68, 0
2, 91200, Note_on_c, 0, 78, 59
2, 91440, Note_on_c, 0, 78, 0
2, 91440, Note_on_c, 0, 77, 56
2, 91680, Note_on_c, 0, 77, 0
2, 91680, Note_on_c, 0, 75, 59
2, 91920, Note_on_c, 0, 75, 0
2, 91920, Note_on_c, 0, 78, 56
2, 92160, Note_on_c, 0, 78, 0
2, 92160, Note_on_c, 0, 77, 62
2, 92880, Note_on_c, 0, 77, 0
2, 92880, Note_on_c, 0, 73, 59
2, 93120, Note_on_c, 0, 73, 0
2, 93120, Note_on_c, 0, 70, 55
2, 93360, Note_on_c, 0, 70, 0
2, 93360, Note_on_c, 0, 65, 50
2, 93600, Note_on_c, 0, 65, 0
2, 94080, Note_on_c, 0, 76, 59
2, 94320, Note_on_c, 0, 76, 0
2, 94320, Note_on_c, 0, 75, 56
2, 94560, Note_on_c, 0, 75, 0
2, 94560, Note_on_c, 0, 73, 59
2, 94800, Note_on_c, 0, 73, 0
2, 94800, Note_on_c, 0, 76, 56
2, 95040, Note_on_c, 0, 76, 0
2, 95040, Note_on_c, 0, 75, 62
2, 95760, Note_on_c, 0, 75, 0
2, 95760, Note_on_c, 0, 72, 59
2, 96000, Note_on_c, 0, 72, 0
2, 96000, Note_on_c, 0, 68, 57
2, 96240, Note_on_c, 0, 68, 0
2, 96240, Note_on_c, 0, 63, 52
2, 96480, Note_on_c, 0, 63, 0
2, 96960, Note_on_c, 0, 60, 35
2, 96960, Note_on_c, 0, 63, 39
2, 96960, Note_on_c, 0, 68, 59
2, 97440, Note_on_c, 0, 63, 0
2, 97440, Note_on_c, 0, 60, 0
2, 97440, Note_on_c, 0, 60, 35
2, 97440, Note_on_c, 0, 63, 39
2, 97920, Note_on_c, 0, 63, 0
2, 97920, Note_on_c, 0, 60, 0
2, 97920, Note_on_c, 0, 68, 0
2, 97920, Note_on_c, 0, 67, 63
2, 98400, Note_on_c, 0, 60, 31
2, 98400, Note_on_c, 0, 65, 36
2, 98880, Note_on_c, 0, 65, 0
2, 98880, Note_on_c, 0, 60, 0
2, 98880, Note_on_c, 0, 67, 0
2, 98880, Note_on_c, 0, 60, 31
2, 98880, Note_on_c, 0, 65, 36
2, 98880, Note_on_c, 0, 68, 59
2, 99360, Note_on_c, 0, 68, 0
2, 99360, Note_on_c, 0, 65, 0
2, 99360, Note_on_c, 0, 60, 0
2, 99360, Note_on_c, 0, 70, 68
2, 99840, Note_on_c, 0, 62, 31
2, 99840, Note_on_c, 0, 68, 36
2, 100080, Note_on_c, 0, 70, 0
2, 100080, Note_on_c, 0, 71, 61
2, 100320, Note_on_c, 0, 71, 0
2, 100320, Note_on_c, 0, 68, 0
2, 100320, Note_on_c, 0, 62, 0
2, 100320, Note_on_c, 0, 62, 31
2, 100320, Note_on_c, 0, 68, 36
2, 100320, Note_on_c, 0, 70, 59
2, 100560, Note_on_c, 0, 70, 0
2, 100560, Note_on_c, 0, 71, 52
2, 100800, Note_on_c, 0, 71, 0
2, 100800, Note_on_c, 0, 68, 0
2, 100800, Note_on_c, 0, 62, 0
2, 100800, Note_on_c, 0, 67, 59
2, 101280, Note_on_c, 0, 61, 36
2, 101280, Note_on_c, 0, 63, 40
2, 101760, Note_on_c, 0, 63, 0
2, 101760, Note_on_c, 0, 61, 0
2, 101760, Note_on_c, 0, 61, 35
2, 101760, Note_on_c, 0, 63, 39
2, 102240, Note_on_c, 0, 63, 0
2, 102240, Note_on_c, 0, 61, 0
2, 102240, Note_on_c, 0, 67, 0
2, 102720, Note_on_c, 0, 68, 59
2, 103200, Note_on_c, 0, 63, 39
2, 103680, Note_on_c, 0, 63, 0
2, 103680, Note_on_c, 0, 68, 0
2, 103680, Note_on_c, 0, 70, 59
2, 104160, Note_on_c, 0, 63, 28
2, 104160, Note_on_c, 0, 68, 31
2, 104640, Note_on_c, 0, 68, 0
2, 104640, Note_on_c, 0, 63, 0
2, 104640, Note_on_c, 0, 70, 0
2, 104640, Note_on_c, 0, 72, 56
2, 105120, Note_on_c, 0, 72, 0
2, 105600, Note_on_c, 0, 73, 63
2, 106080, Note_on_c, 0, 63, 34
2, 106080, Note_on_c, 0, 67, 38
2, 106560, Note_on_c, 0, 67, 0
2, 106560, Note_on_c, 0, 63, 0
2, 106560, Note_on_c, 0, 73, 0
2, 106560, Note_on_c, 0, 72, 62
2, 107040, Note_on_c, 0, 67, 35
2, 107040, Note_on_c, 0, 63, 30
2, 107520, Note_on_c, 0, 63, 0
2, 107520, Note_on_c, 0, 67, 0
2, 107520, Note_on_c, 0, 72, 0
2, 107520, Note_on_c, 0, 70, 51
2, 108000, Note_on_c, 0, 70, 0
2, 108480, Note_on_c, 0, 72, 63
2, 108960, Note_on_c, 0, 68, 42
2, 108960, Note_on_c, 0, 63, 38
2, 109440, Note_on_c, 0, 63, 0
2, 109440, Note_on_c, 0, 68, 0
2, 109440, Note_on_c, 0, 72, 0
2, 109440, Note_on_c, 0, 73, 68
2, 109920, Note_on_c, 0, 63, 37
2, 109920, Note_on_c, 0, 68, 41
2, 110400, Note_on_c, 0, 68, 0
2, 110400, Note_on_c, 0, 63, 0
2, 110400, Note_on_c, 0, 73, 0
2, 110400, Note_on_c, 0, 75, 71
2, 110880, Note_on_c, 0, 75, 0
2, 110880, Note_on_c, 0, 77, 73
2, 111210, Note_on_c, 0, 77, 0
2, 111300, Note_on_c, 0, 68, 48
2, 111330, Note_on_c, 0, 74, 56
2, 111360, Note_on_c, 0, 79, 74
2, 111690, Note_on_c, 0, 79, 0
2, 111690, Note_on_c, 0, 74, 0
2, 111690, Note_on_c, 0, 68, 0
2, 111780, Note_on_c, 0, 68, 48
2, 111810, Note_on_c, 0, 74, 55
2, 111840, Note_on_c, 0, 80, 77
2, 112320, Note_on_c, 0, 80, 0
2, 112320, Note_on_c, 0, 74, 0
2, 112320, Note_on_c, 0, 68, 0
2, 112320, Note_on_c, 0, 75, 81
2, 112800, Note_on_c, 0, 63, 38
2, 112800, Note_on_c, 0, 68, 38
2, 112800, Note_on_c, 0, 72, 44
2, 113280, Note_on_c, 0, 72, 0
2, 113280, Note_on_c, 0, 68, 0
2, 113280, Note_on_c, 0, 63, 0
2, 113280, Note_on_c, 0, 63, 38
2, 113280, Note_on_c, 0, 68, 38
2, 113280, Note_on_c, 0, 72, 43
2, 113760, Note_on_c, 0, 72, 0
2, 113760, Note_on_c, 0, 75, 0
2, 113760, Note_on_c, 0, 63, 0
2, 113760, Note_on_c, 0, 68, 0
2, 114240, Note_on_c, 0, 78, 59
2, 114480, Note_on_c, 0, 78, 0
2, 114480, Note_on_c, 0, 77, 56
2, 114720, Note_on_c, 0, 77, 0
2, 114720, Note_on_c, 0, 75, 59
2, 114960, Note_on_c, 0, 75, 0
2, 114960, Note_on_c, 0, 78, 56
2, 115200, Note_on_c, 0, 78, 0
2, 115200, Note_on_c, 0, 77, 62
2, 115920, Note_on_c, 0, 77, 0
2, 115920, Note_on_c, 0, 73, 59
2, 116160, Note_on_c, 0, 73, 0
2, 116160, Note_on_c, 0, 70, 55
2, 116400, Note_on_c, 0, 70, 0
2, 116400, Note_on_c, 0, 65, 50
2, 116640, Note_on_c, 0, 65, 0
2, 117120, Note_on_c, 0, 80, 66
2, 117360, Note_on_c, 0, 80, 0
2, 117360, Note_on_c, 0, 79, 61
2, 117600, Note_on_c, 0, 79, 0
2, 117600, Note_on_c, 0, 77, 64
2, 117840, Note_on_c, 0, 77, 0
2, 117840, Note_on_c, 0, 80, 60
2, 118080, Note_on_c, 0, 80, 0
2, 118080, Note_on_c, 0, 79, 68
2, 118800, Note_on_c, 0, 79, 0
2, 118800, Note_on_c, 0, 76, 61
2, 119040, Note_on_c, 0, 76, 0
2, 119040, Note_on_c, 0, 72, 59
2, 119280, Note_on_c, 0, 72, 0
2, 119280, Note_on_c, 0, 67, 55
2, 119520, Note_on_c, 0, 67, 0
2, 120000, Note_on_c, 0, 82, 70
2, 120240, Note_on_c, 0, 82, 0
2, 120240, Note_on_c, 0, 80, 64
2, 120480, Note_on_c, 0, 80, 0
2, 120480, Note_on_c, 0, 79, 69
2, 120720, Note_on_c, 0, 79, 0
2, 120720, Note_on_c, 0, 82, 63
2, 120960, Note_on_c, 0, 82, 0
2, 120960, Note_on_c, 0, 80, 72
2, 121680, Note_on_c, 0, 80, 0
2, 121680, Note_on_c, 0, 77, 64
2, 121920, Note_on_c, 0, 77, 0
2, 121920, Note_on_c, 0, 71, 62
2, 122160, Note_on_c, 0, 71, 0
2, 122160, Note_on_c, 0, 68, 58
2, 122400, Note_on_c, 0, 68, 0
2, 122400, Note_on_c, 0, 77, 64
2, 123120, Note_on_c, 0, 77, 0
2, 123120, Note_on_c, 0, 73, 58
2, 123360, Note_on_c, 0, 73, 0
2, 123360, Note_on_c, 0, 70, 56
2, 123600, Note_on_c, 0, 70, 0
2, 123600, Note_on_c, 0, 67, 51
2, 123840, Note_on_c, 0, 67, 0
2, 123840, Note_on_c, 0, 70, 58
2, 124560, Note_on_c, 0, 70, 0
2, 124560, Note_on_c, 0, 68, 51
2, 124800, Note_on_c, 0, 68, 0
2, 124800, Note_on_c, 0, 63, 49
2, 125040, Note_on_c, 0, 63, 0
2, 125040, Note_on_c, 0, 60, 46
2, 125280, Note_on_c, 0, 60, 0
2, 125760, Note_on_c, 0, 68, 51
2, 127680, Note_on_c, 0, 68, 0
2, 127680, Note_on_c, 0, 66, 51
2, 129120, Note_on_c, 0, 66, 0
2, 129120, Note_on_c, 0, 64, 51
2, 130320, Note_on_c, 0, 64, 0
2, 130320, Note_on_c, 0, 63, 46
2, 130560, Note_on_c, 0, 63, 0
2, 130560, Note_on_c, 0, 62, 49
2, 130800, Note_on_c, 0, 62, 0
2, 130800, Note_on_c, 0, 63, 47
2, 131040, Note_on_c, 0, 63, 0
2, 131520, Note_on_c, 0, 68, 51
2, 133440, Note_on_c, 0, 68, 0
2, 133440, Note_on_c, 0, 66, 51
2, 134880, Note_on_c, 0, 76, 68
2, 136080, Note_on_c, 0, 76, 0
2, 136080, Note_on_c, 0, 75, 56
2, 136320, Note_on_c, 0, 75, 0
2, 136320, Note_on_c, 0, 71, 59
2, 136560, Note_on_c, 0, 71, 0
2, 136560, Note_on_c, 0, 66, 0
2, 136560, Note_on_c, 0, 66, 55
2, 136800, Note_on_c, 0, 66, 0
2, 137280, Note_on_c, 0, 68, 51
2, 139200, Note_on_c, 0, 68, 0
2, 139200, Note_on_c, 0, 66, 51
2, 140640, Note_on_c, 0, 66, 0
2, 140640, Note_on_c, 0, 64, 51
2, 141840, Note_on_c, 0, 64, 0
2, 141840, Note_on_c, 0, 63, 46
2, 142080, Note_on_c, 0, 63, 0
2, 142080, Note_on_c, 0, 62, 49
2, 142320, Note_on_c, 0, 62, 0
2, 142320, Note_on_c, 0, 63, 47
2, 142560, Note_on_c, 0, 63, 0
2, 143040, Note_on_c, 0, 68, 51
2, 144960, Note_on_c, 0, 68, 0
2, 144960, Note_on_c, 0, 66, 51
2, 146400, Note_on_c, 0, 66, 0
2, 146400, Note_on_c, 0, 67, 63
2, 147120, Note_on_c, 0, 67, 0
2, 147120, Note_on_c, 0, 75, 63
2, 147360, Note_on_c, 0, 75, 0
2, 147360, Note_on_c, 0, 71, 64
2, 147600, Note_on_c, 0, 71, 0
2, 147600, Note_on_c, 0, 70, 61
2, 147840, Note_on_c, 0, 70, 0
2, 147840, Note_on_c, 0, 68, 62
2, 148320, Note_on_c, 0, 68, 0
2, 148320, Note_on_c, 0, 69, 73
2, 149040, Note_on_c, 0, 69, 0
2, 149040, Note_on_c, 0, 73, 68
2, 149280, Note_on_c, 0, 73, 0
2, 149280, Note_on_c, 0, 78, 72
2, 149520, Note_on_c, 0, 78, 0
2, 149520, Note_on_c, 0, 81, 68
2, 149760, Note_on_c, 0, 81, 0
2, 149760, Note_on_c, 0, 73, 64
2, 149760, Note_on_c, 0, 68, 67
2, 149760, Note_on_c, 0, 80, 75
2, 150720, Note_on_c, 0, 80, 0
2, 150720, Note_on_c, 0, 68, 0
2, 150720, Note_on_c, 0, 66, 64
2, 150720, Note_on_c, 0, 78, 72
2, 151200, Note_on_c, 0, 78, 0
2, 151200, Note_on_c, 0, 66, 0
2, 151200, Note_on_c, 0, 73, 0
2, 151680, Note_on_c, 0, 59, 52
2, 151680, Note_on_c, 0, 66, 52
2, 151680, Note_on_c, 0, 69, 52
2, 151680, Note_on_c, 0, 71, 52
2, 152640, Note_on_c, 0, 71, 0
2, 152640, Note_on_c, 0, 59, 0
2, 152640, Note_on_c, 0, 66, 0
2, 152640, Note_on_c, 0, 69, 0
2, 152640, Note_on_c, 0, 61, 63
2, 152640, Note_on_c, 0, 66, 63
2, 152640, Note_on_c, 0, 69, 63
2, 152640, Note_on_c, 0, 73, 70
2, 152760, Note_on_c, 0, 73, 0
2, 152760, Note_on_c, 0, 61, 0
2, 152760, Note_on_c, 0, 66, 0
2, 152760, Note_on_c, 0, 69, 0
2, 153120, Note_on_c, 0, 63, 57
2, 153120, Note_on_c, 0, 66, 57
2, 153120, Note_on_c, 0, 69, 57
2, 153120, Note_on_c, 0, 75, 64
2, 153240, Note_on_c, 0, 75, 0
2, 153240, Note_on_c, 0, 63, 0
2, 153240, Note_on_c, 0, 66, 0
2, 153240, Note_on_c, 0, 69, 0
2, 153600, Note_on_c, 0, 64, 55
2, 153600, Note_on_c, 0, 68, 55
2, 153600, Note_on_c, 0, 76, 62
2, 153720, Note_on_c, 0, 76, 0
2, 153720, Note_on_c, 0, 68, 0
2, 153720, Note_on_c, 0, 64, 0
2, 154080, Note_on_c, 0, 66, 63
2, 154800, Note_on_c, 0, 66, 0
2, 154800, Note_on_c, 0, 65, 57
2, 155040, Note_on_c, 0, 65, 0
2, 155040, Note_on_c, 0, 68, 64
2, 155280, Note_on_c, 0, 68, 0
2, 155280, Note_on_c, 0, 66, 58
2, 155520, Note_on_c, 0, 66, 0
2, 155520, Note_on_c, 0, 75, 63
2, 156000, Note_on_c, 0, 75, 0
2, 156000, Note_on_c, 0, 73, 61
2, 156480, Note_on_c, 0, 73, 0
2, 156480, Note_on_c, 0, 71, 61
2, 156960, Note_on_c, 0, 71, 0
2, 157440, Note_on_c, 0, 59, 53
2, 157440, Note_on_c, 0, 64, 53
2, 157440, Note_on_c, 0, 71, 53
2, 158400, Note_on_c, 0, 71, 0
2, 158400, Note_on_c, 0, 64, 0
2, 158400, Note_on_c, 0, 59, 0
2, 158880, Note_on_c, 0, 56, 48
2, 158880, Note_on_c, 0, 64, 48
2, 158880, Note_on_c, 0, 68, 53
2, 159840, Note_on_c, 0, 68, 0
2, 159840, Note_on_c, 0, 64, 0
2, 159840, Note_on_c, 0, 56, 0
2, 159840, Note_on_c, 0, 69, 73
2, 160560, Note_on_c, 0, 69, 0
2, 160560, Note_on_c, 0, 73, 68
2, 160800, Note_on_c, 0, 73, 0
2, 160800, Note_on_c, 0, 78, 72
2, 161040, Note_on_c, 0, 78, 0
2, 161040, Note_on_c, 0, 81, 68
2, 161280, Note_on_c, 0, 81, 0
2, 161280, Note_on_c, 0, 73, 64
2, 161280, Note_on_c, 0, 68, 67
2, 161280, Note_on_c, 0, 80, 75
2, 162240, Note_on_c, 0, 80, 0
2, 162240, Note_on_c, 0, 68, 0
2, 162240, Note_on_c, 0, 66, 64
2, 162240, Note_on_c, 0, 78, 72
2, 162720, Note_on_c, 0, 78, 0
2, 162720, Note_on_c, 0, 66, 0
2, 162720, Note_on_c, 0, 73, 0
2, 163200, Note_on_c, 0, 59, 52
2, 163200, Note_on_c, 0, 66, 52
2, 163200, Note_on_c, 0, 69, 52
2, 163200, Note_on_c, 0, 71, 52
2, 164160, Note_on_c, 0, 71, 0
2, 164160, Note_on_c, 0, 59, 0
2, 164160, Note_on_c, 0, 66, 0
2, 164160, Note_on_c, 0, 69, 0
2, 164160, Note_on_c, 0, 61, 63
2, 164160, Note_on_c, 0, 66, 63
2, 164160, Note_on_c, 0, 69, 63
2, 164160, Note_on_c, 0, 73, 70
2, 164280, Note_on_c, 0, 73, 0
2, 164280, Note_on_c, 0, 61, 0
2, 164280, Note_on_c, 0, 66, 0
2, 164280, Note_on_c, 0, 69, 0
2, 164640, Note_on_c, 0, 63, 57
2, 164640, Note_on_c, 0, 66, 57
2, 164640, Note_on_c, 0, 69, 57
2, 164640, Note_on_c, 0, 75, 64
2, 164760, Note_on_c, 0, 75, 0
2, 164760, Note_on_c, 0, 63, 0
2, 164760, Note_on_c, 0, 66, 0
2, 164760, Note_on_c, 0, 69, 0
2, 165120, Note_on_c, 0, 64, 55
2, 165120, Note_on_c, 0, 68, 55
2, 165120, Note_on_c, 0, 76, 62
2, 165240, Note_on_c, 0, 76, 0
2, 165240, Note_on_c, 0, 68, 0
2, 165240, Note_on_c, 0, 64, 0
2, 165600, Note_on_c, 0, 66, 63
2, 166320, Note_on_c, 0, 66, 0
2, 166320, Note_on_c, 0, 65, 57
2, 166560, Note_on_c, 0, 65, 0
2, 166560, Note_on_c, 0, 68, 64
2, 166800, Note_on_c, 0, 68, 0
2, 166800, Note_on_c, 0, 66, 58
2, 167040, Note_on_c, 0, 66, 0
2, 167040, Note_on_c, 0, 75, 63
2, 167520, Note_on_c, 0, 75, 0
2, 167520, Note_on_c, 0, 73, 61
2, 168000, Note_on_c, 0, 73, 0
2, 168000, Note_on_c, 0, 71, 61
2, 168480, Note_on_c, 0, 71, 0
2, 168960, Note_on_c, 0, 59, 53
2, 168960, Note_on_c, 0, 64, 53
2, 168960, Note_on_c, 0, 71, 53
2, 169920, Note_on_c, 0, 71, 0
2, 169920, Note_on_c, 0, 64, 0
2, 169920, Note_on_c, 0, 59, 0
2, 170400, Note_on_c, 0, 64, 57
2, 170400, Note_on_c, 0, 66, 57
2, 170400, Note_on_c, 0, 70, 57
2, 170520, Note_on_c, 0, 70, 0
2, 170520, Note_on_c, 0, 66, 0
2, 170520, Note_on_c, 0, 64, 0
2, 170880, Note_on_c, 0, 63, 55
2, 170880, Note_on_c, 0, 66, 55
2, 170880, Note_on_c, 0, 71, 62
2, 171000, Note_on_c, 0, 71, 0
2, 171000, Note_on_c, 0, 66, 0
2, 171000, Note_on_c, 0, 63, 0
2, 171840, Note_on_c, 0, 68, 51
2, 173760, Note_on_c, 0, 68, 0
2, 173760, Note_on_c, 0, 66, 51
2, 175200, Note_on_c, 0, 66, 0
2, 175200, Note_on_c, 0, 64, 51
2, 176400, Note_on_c, 0, 64, 0
2, 176400, Note_on_c, 0, 63, 46
2, 176640, Note_on_c, 0, 63, 0
2, 176640, Note_on_c, 0, 62, 49
2, 176880, Note_on_c, 0, 62, 0
2, 176880, Note_on_c, 0, 63, 47
2, 177120, Note_on_c, 0, 63, 0
2, 177600, Note_on_c, 0, 68, 51
2, 179520, Note_on_c, 0, 68, 0
2, 179520, Note_on_c, 0, 66, 51
2, 180960, Note_on_c, 0, 76, 68
2, 182160, Note_on_c, 0, 76, 0
2, 182160, Note_on_c, 0, 75, 50
2, 182400, Note_on_c, 0, 75, 0
2, 182400, Note_on_c, 0, 71, 55
2, 182640, Note_on_c, 0, 71, 0
2, 182640, Note_on_c, 0, 66, 0
2, 182640, Note_on_c, 0, 66, 47
2, 182880, Note_on_c, 0, 66, 0
2, 183360, Note_on_c, 0, 68, 51
2, 185280, Note_on_c, 0, 68, 0
2, 185280, Note_on_c, 0, 66, 51
2, 186720, Note_on_c, 0, 66, 0
2, 186720, Note_on_c, 0, 64, 51
2, 187920, Note_on_c, 0, 64, 0
2, 187920, Note_on_c, 0, 63, 46
2, 188160, Note_on_c, 0, 63, 0
2, 188160, Note_on_c, 0, 62, 49
2, 188400, Note_on_c, 0, 62, 0
2, 188400, Note_on_c, 0, 63, 47
2, 188640, Note_on_c, 0, 63, 0
2, 189120, Note_on_c, 0, 68, 51
2, 191040, Note_on_c, 0, 68, 0
2, 191040, Note_on_c, 0, 66, 56
2, 192480, Note_on_c, 0, 66, 0
2, 192480, Note_on_c, 0, 67, 59
2, 193920, Note_on_c, 0, 67, 0
2, 193920, Note_on_c, 0, 68, 59
2, 194400, Note_on_c, 0, 68, 0
2, 195120, Note_on_c, 0, 70, 55
2, 195360, Note_on_c, 0, 70, 0
2, 195360, Note_on_c, 0, 71, 59
2, 195600, Note_on_c, 0, 71, 0
2, 195600, Note_on_c, 0, 70, 56
2, 195840, Note_on_c, 0, 70, 0
2, 195840, Note_on_c, 0, 73, 60
2, 196800, Note_on_c, 0, 73, 0
2, 196800, Note_on_c, 0, 71, 56
2, 197280, Note_on_c, 0, 71, 0
2, 198000, Note_on_c, 0, 74, 57
2, 198240, Note_on_c, 0, 74, 0
2, 198240, Note_on_c, 0, 76, 61
2, 198480, Note_on_c, 0, 76, 0
2, 198480, Note_on_c, 0, 74, 58
2, 198720, Note_on_c, 0, 74, 0
2, 198720, Note_on_c, 0, 76, 63
2, 199680, Note_on_c, 0, 76, 0
2, 199680, Note_on_c, 0, 75, 58
2, 200160, Note_on_c, 0, 75, 0
2, 200880, Note_on_c, 0, 70, 55
2, 201120, Note_on_c, 0, 70, 0
2, 201120, Note_on_c, 0, 71, 59
2, 201360, Note_on_c, 0, 71, 0
2, 201360, Note_on_c, 0, 70, 56
2, 201600, Note_on_c, 0, 70, 0
2, 201600, Note_on_c, 0, 73, 60
2, 202560, Note_on_c, 0, 73, 0
2, 202560, Note_on_c, 0, 71, 56
2, 203040, Note_on_c, 0, 71, 0
2, 203760, Note_on_c, 0, 74, 57
2, 204000, Note_on_c, 0, 74, 0
2, 204000, Note_on_c, 0, 76, 61
2, 204240, Note_on_c, 0, 76, 0
2, 204240, Note_on_c, 0, 74, 58
2, 204480, Note_on_c, 0, 74, 0
2, 204480, Note_on_c, 0, 76, 67
2, 205200, Note_on_c, 0, 76, 0
2, 205200, Note_on_c, 0, 75, 58
2, 205440, Note_on_c, 0, 75, 0
2, 205440, Note_on_c, 0, 74, 62
2, 205680, Note_on_c, 0, 74, 0
2, 205680, Note_on_c, 0, 75, 58
2, 205920, Note_on_c, 0, 75, 0
2, 205920, Note_on_c, 0, 76, 67
2, 206640, Note_on_c, 0, 76, 0
2, 206640, Note_on_c, 0, 75, 58
2, 206880, Note_on_c, 0, 75, 0
2, 206880, Note_on_c, 0, 74, 62
2, 207120, Note_on_c, 0, 74, 0
2, 207120, Note_on_c, 0, 75, 58
2, 207360, Note_on_c, 0, 75, 0
2, 207360, Note_on_c, 0, 82, 70
2, 207600, Note_on_c, 0, 82, 0
2, 207600, Note_on_c, 0, 80, 69
2, 207840, Note_on_c, 0, 80, 0
2, 207840, Note_on_c, 0, 79, 68
2, 208080, Note_on_c, 0, 79, 0
2, 208080, Note_on_c, 0, 76, 67
2, 208320, Note_on_c, 0, 76, 0
2, 208320, Note_on_c, 0, 75, 64
2, 208560, Note_on_c, 0, 75, 0
2, 208560, Note_on_c, 0, 73, 62
2, 208800, Note_on_c, 0, 73, 0
2, 208800, Note_on_c, 0, 76, 68
2, 209040, Note_on_c, 0, 76, 0
2, 209040, Note_on_c, 0, 75, 67
2, 209280, Note_on_c, 0, 75, 0
2, 209280, Note_on_c, 0, 73, 66
2, 209520, Note_on_c, 0, 73, 0
2, 209520, Note_on_c, 0, 71, 64
2, 209760, Note_on_c, 0, 71, 0
2, 209760, Note_on_c, 0, 70, 64
2, 210000, Note_on_c, 0, 70, 0
2, 210000, Note_on_c, 0, 68, 63
2, 210240, Note_on_c, 0, 68, 0
2, 210240, Note_on_c, 0, 67, 60
2, 210480, Note_on_c, 0, 67, 0
2, 210480, Note_on_c, 0, 68, 60
2, 210720, Note_on_c, 0, 68, 0
2, 210720, Note_on_c, 0, 69, 59
2, 210960, Note_on_c, 0, 69, 0
2, 210960, Note_on_c, 0, 70, 58
2, 211200, Note_on_c, 0, 70, 0
2, 211200, Note_on_c, 0, 71, 57
2, 211440, Note_on_c, 0, 71, 0
2, 211440, Note_on_c, 0, 72, 57
2, 211680, Note_on_c, 0, 72, 0
2, 211680, Note_on_c, 0, 73, 59
2, 211920, Note_on_c, 0, 73, 0
2, 211920, Note_on_c, 0, 72, 53
2, 212160, Note_on_c, 0, 72, 0
2, 212160, Note_on_c, 0, 75, 58
2, 212400, Note_on_c, 0, 75, 0
2, 212400, Note_on_c, 0, 73, 56
2, 212640, Note_on_c, 0, 73, 0
2, 212640, Note_on_c, 0, 72, 53
2, 212880, Note_on_c, 0, 72, 0
2, 212880, Note_on_c, 0, 70, 51
2, 213120, Note_on_c, 0, 70, 0
2, 213600, Note_on_c, 0, 68, 59
2, 214080, Note_on_c, 0, 63, 39
2, 214560, Note_on_c, 0, 63, 0
2, 214560, Note_on_c, 0, 68, 0
2, 214560, Note_on_c, 0, 70, 59
2, 215040, Note_on_c, 0, 63, 28
2, 215040, Note_on_c, 0, 68, 31
2, 215520, Note_on_c, 0, 68, 0
2, 215520, Note_on_c, 0, 63, 0
2, 215520, Note_on_c, 0, 70, 0
2, 215520, Note_on_c, 0, 72, 57
2, 216000, Note_on_c, 0, 72, 0
2, 216480, Note_on_c, 0, 73, 63
2, 216960, Note_on_c, 0, 63, 34
2, 216960, Note_on_c, 0, 67, 38
2, 217440, Note_on_c, 0, 67, 0
2, 217440, Note_on_c, 0, 63, 0
2, 217440, Note_on_c, 0, 73, 0
2, 217440, Note_on_c, 0, 72, 62
2, 217920, Note_on_c, 0, 67, 35
2, 217920, Note_on_c, 0, 63, 30
2, 218400, Note_on_c, 0, 63, 0
2, 218400, Note_on_c, 0, 67, 0
2, 218400, Note_on_c, 0, 72, 0
2, 218400, Note_on_c, 0, 70, 51
2, 218880, Note_on_c, 0, 70, 0
2, 219360, Note_on_c, 0, 72, 63
2, 219840, Note_on_c, 0, 68, 42
2, 219840, Note_on_c, 0, 63, 38
2, 220320, Note_on_c, 0, 63, 0
2, 220320, Note_on_c, 0, 68, 0
2, 220320, Note_on_c, 0, 72, 0
2, 220320, Note_on_c, 0, 73, 68
2, 220800, Note_on_c, 0, 63, 37
2, 220800, Note_on_c, 0, 68, 41
2, 221280, Note_on_c, 0, 68, 0
2, 221280, Note_on_c, 0, 63, 0
2, 221280, Note_on_c, 0, 73, 0
2, 221280, Note_on_c, 0, 75, 71
2, 221760, Note_on_c, 0, 75, 0
2, 221760, Note_on_c, 0, 77, 73
2, 222090, Note_on_c, 0, 77, 0
2, 222180, Note_on_c, 0, 68, 51
2, 222210, Note_on_c, 0, 74, 56
2, 222240, Note_on_c, 0, 79, 74
2, 222570, Note_on_c, 0, 79, 0
2, 222570, Note_on_c, 0, 74, 0
2, 222570, Note_on_c, 0, 68, 0
2, 222660, Note_on_c, 0, 68, 51
2, 222690, Note_on_c, 0, 74, 56
2, 222720, Note_on_c, 0, 80, 77
2, 223200, Note_on_c, 0, 80, 0
2, 223200, Note_on_c, 0, 74, 0
2, 223200, Note_on_c, 0, 68, 0
2, 223200, Note_on_c, 0, 75, 81
2, 223680, Note_on_c, 0, 63, 38
2, 223680, Note_on_c, 0, 68, 38
2, 223680, Note_on_c, 0, 72, 44
2, 224160, Note_on_c, 0, 72, 0
2, 224160, Note_on_c, 0, 68, 0
2, 224160, Note_on_c, 0, 63, 0
2, 224160, Note_on_c, 0, 63, 38
2, 224160, Note_on_c, 0, 68, 38
2, 224160, Note_on_c, 0, 72, 43
2, 224640, Note_on_c, 0, 72, 0
2, 224640, Note_on_c, 0, 75, 0
2, 224640, Note_on_c, 0, 63, 0
2, 224640, Note_on_c, 0, 68, 0
2, 225120, Note_on_c, 0, 78, 59
2, 225360, Note_on_c, 0, 78, 0
2, 225360, Note_on_c, 0, 77, 56
2, 225600, Note_on_c, 0, 77, 0
2, 225600, Note_on_c, 0, 75, 59
2, 225840, Note_on_c, 0, 75, 0
2, 225840, Note_on_c, 0, 78, 56
2, 226080, Note_on_c, 0, 78, 0
2, 226080, Note_on_c, 0, 77, 62
2, 226800, Note_on_c, 0, 77, 0
2, 226800, Note_on_c, 0, 73, 59
2, 227040, Note_on_c, 0, 73, 0
2, 227040, Note_on_c, 0, 70, 55
2, 227280, Note_on_c, 0, 70, 0
2, 227280, Note_on_c, 0, 65, 50
2, 227520, Note_on_c, 0, 65, 0
2, 228000, Note_on_c, 0, 76, 59
2, 228240, Note_on_c, 0, 76, 0
2, 228240, Note_on_c, 0, 75, 56
2, 228480, Note_on_c, 0, 75, 0
2, 228480, Note_on_c, 0, 73, 59
2, 228720, Note_on_c, 0, 73, 0
2, 228720, Note_on_c, 0, 76, 56
2, 228960, Note_on_c, 0, 76, 0
2, 228960, Note_on_c, 0, 75, 62
2, 229680, Note_on_c, 0, 75, 0
2, 229680, Note_on_c, 0, 72, 59
2, 229920, Note_on_c, 0, 72, 0
2, 229920, Note_on_c, 0, 68, 57
2, 230160, Note_on_c, 0, 68, 0
2, 230160, Note_on_c, 0, 63, 52
2, 230400, Note_on_c, 0, 63, 0
2, 230880, Note_on_c, 0, 60, 35
2, 230880, Note_on_c, 0, 63, 39
2, 230880, Note_on_c, 0, 68, 59
2, 231360, Note_on_c, 0, 63, 0
2, 231360, Note_on_c, 0, 60, 0
2, 231360, Note_on_c, 0, 60, 35
2, 231360, Note_on_c, 0, 63, 39
2, 231840, Note_on_c, 0, 63, 0
2, 231840, Note_on_c, 0, 60, 0
2, 231840, Note_on_c, 0, 68, 0
2, 231840, Note_on_c, 0, 67, 63
2, 232320, Note_on_c, 0, 60, 31
2, 232320, Note_on_c, 0, 65, 36
2, 232800, Note_on_c, 0, 65, 0
2, 232800, Note_on_c, 0, 60, 0
2, 232800, Note_on_c, 0, 67, 0
2, 232800, Note_on_c, 0, 60, 31
2, 232800, Note_on_c, 0, 65, 36
2, 232800, Note_on_c, 0, 68, 59
2, 233280, Note_on_c, 0, 68, 0
2, 233280, Note_on_c, 0, 65, 0
2, 233280, Note_on_c, 0, 60, 0
2, 233280, Note_on_c, 0, 70, 68
2, 233760, Note_on_c, 0, 62, 31
2, 233760, Note_on_c, 0, 68, 36
2, 234000, Note_on_c, 0, 70, 0
2, 234000, Note_on_c, 0, 71, 61
2, 234240, Note_on_c, 0, 71, 0
2, 234240, Note_on_c, 0, 68, 0
2, 234240, Note_on_c, 0, 62, 0
2, 234240, Note_on_c, 0, 62, 31
2, 234240, Note_on_c, 0, 68, 36
2, 234240, Note_on_c, 0, 70, 59
2, 234480, Note_on_c, 0, 70, 0
2, 234480, Note_on_c, 0, 71, 52
2, 234720, Note_on_c, 0, 71, 0
2, 234720, Note_on_c, 0, 68, 0
2, 234720, Note_on_c, 0, 62, 0
2, 234720, Note_on_c, 0, 67, 59
2, 235200, Note_on_c, 0, 61, 36
2, 235200, Note_on_c, 0, 63, 40
2, 235680, Note_on_c, 0, 63, 0
2, 235680, Note_on_c, 0, 61, 0
2, 235680, Note_on_c, 0, 61, 35
2, 235680, Note_on_c, 0, 63, 39
2, 236160, Note_on_c, 0, 63, 0
2, 236160, Note_on_c, 0, 61, 0
2, 236160, Note_on_c, 0, 67, 0
2, 236640, Note_on_c, 0, 68, 59
2, 237120, Note_on_c, 0, 63, 39
2, 237600, Note_on_c, 0, 63, 0
2, 237600, Note_on_c, 0, 68, 0
2, 237600, Note_on_c, 0, 70, 57
2, 238080, Note_on_c, 0, 63, 28
2, 238080, Note_on_c, 0, 68, 31
2, 238560, Note_on_c, 0, 68, 0
2, 238560, Note_on_c, 0, 63, 0
2, 238560, Note_on_c, 0, 70, 0
2, 238560, Note_on_c, 0, 72, 57
2, 239040, Note_on_c, 0, 72, 0
2, 239520, Note_on_c, 0, 73, 63
2, 240000, Note_on_c, 0, 63, 34
2, 240000, Note_on_c, 0, 67, 38
2, 240480, Note_on_c, 0, 67, 0
2, 240480, Note_on_c, 0, 63, 0
2, 240480, Note_on_c, 0, 73, 0
2, 240480, Note_on_c, 0, 72, 62
2, 240960, Note_on_c, 0, 67, 35
2, 240960, Note_on_c, 0, 63, 30
2, 241440, Note_on_c, 0, 63, 0
2, 241440, Note_on_c, 0, 67, 0
2, 241440, Note_on_c, 0, 72, 0
2, 241440, Note_on_c, 0, 70, 51
2, 241920, Note_on_c, 0, 70, 0
2, 242400, Note_on_c, 0, 72, 63
2, 242880, Note_on_c, 0, 68, 42
2, 242880, Note_on_c, 0, 63, 38
2, 243360, Note_on_c, 0, 63, 0
2, 243360, Note_on_c, 0, 68, 0
2, 243360, Note_on_c, 0, 72, 0
2, 243360, Note_on_c, 0, 73, 68
2, 243840, Note_on_c, 0, 63, 37
2, 243840, Note_on_c, 0, 68, 41
2, 244320, Note_on_c, 0, 68, 0
2, 244320, Note_on_c, 0, 63, 0
2, 244320, Note_on_c, 0, 73, 0
2, 244320, Note_on_c, 0, 75, 71
2, 244800, Note_on_c, 0, 75, 0
2, 244800, Note_on_c, 0, 77, 73
2, 245130, Note_on_c, 0, 77, 0
2, 245220, Note_on_c, 0, 68, 48
2, 245250, Note_on_c, 0, 74, 56
2, 245280, Note_on_c, 0, 79, 74
2, 245610, Note_on_c, 0, 79, 0
2, 245610, Note_on_c, 0, 74, 0
2, 245610, Note_on_c, 0, 68, 0
2, 245700, Note_on_c, 0, 68, 48
2, 245730, Note_on_c, 0, 74, 55
2, 245760, Note_on_c, 0, 80, 77
2, 246240, Note_on_c, 0, 80, 0
2, 246240, Note_on_c, 0, 74, 0
2, 246240, Note_on_c, 0, 68, 0
2, 246240, Note_on_c, 0, 75, 81
2, 246720, Note_on_c, 0, 63, 38
2, 246720, Note_on_c, 0, 68, 38
2, 246720, Note_on_c, 0, 72, 44
2, 247200, Note_on_c, 0, 72, 0
2, 247200, Note_on_c, 0, 68, 0
2, 247200, Note_on_c, 0, 63, 0
2, 247200, Note_on_c, 0, 63, 38
2, 247200, Note_on_c, 0, 68, 38
2, 247200, Note_on_c, 0, 72, 43
2, 247680, Note_on_c, 0, 72, 0
2, 247680, Note_on_c, 0, 75, 0
2, 247680, Note_on_c, 0, 63, 0
2, 247680, Note_on_c, 0, 68, 0
2, 248160, Note_on_c, 0, 78, 59
2, 248400, Note_on_c, 0, 78, 0
2, 248400, Note_on_c, 0, 77, 56
2, 248640, Note_on_c, 0, 77, 0
2, 248640, Note_on_c, 0, 75, 59
2, 248880, Note_on_c, 0, 75, 0
2, 248880, Note_on_c, 0, 78, 56
2, 249120, Note_on_c, 0, 78, 0
2, 249120, Note_on_c, 0, 77, 62
2, 249840, Note_on_c, 0, 77, 0
2, 249840, Note_on_c, 0, 73, 59
2, 250080, Note_on_c, 0, 73, 0
2, 250080, Note_on_c, 0, 70, 55
2, 250320, Note_on_c, 0, 70, 0
2, 250320, Note_on_c, 0, 65, 50
2, 250560, Note_on_c, 0, 65, 0
2, 251040, Note_on_c, 0, 80, 66
2, 251280, Note_on_c, 0, 80, 0
2, 251280, Note_on_c, 0, 79, 61
2, 251520, Note_on_c, 0, 79, 0
2, 251520, Note_on_c, 0, 77, 64
2, 251760, Note_on_c, 0, 77, 0
2, 251760, Note_on_c, 0, 80, 60
2, 252000, Note_on_c, 0, 80, 0
2, 252000, Note_on_c, 0, 79, 68
2, 252720, Note_on_c, 0, 79, 0
2, 252720, Note_on_c, 0, 76, 61
2, 252960, Note_on_c, 0, 76, 0
2, 252960, Note_on_c, 0, 72, 59
2, 253200, Note_on_c, 0, 72, 0
2, 253200, Note_on_c, 0, 67, 55
2, 253440, Note_on_c, 0, 67, 0
2, 253920, Note_on_c, 0, 74, 70
2, 254400, Note_on_c, 0, 66, 46
2, 254400, Note_on_c, 0, 72, 46
2, 254880, Note_on_c, 0, 72, 0
2, 254880, Note_on_c, 0, 66, 0
2, 254880, Note_on_c, 0, 74, 0
2, 254880, Note_on_c, 0, 76, 70
2, 255360, Note_on_c, 0, 67, 34
2, 255360, Note_on_c, 0, 72, 37
2, 255840, Note_on_c, 0, 72, 0
2, 255840, Note_on_c, 0, 67, 0
2, 255840, Note_on_c, 0, 76, 0
2, 255840, Note_on_c, 0, 79, 70
2, 256320, Note_on_c, 0, 79, 0
2, 256800, Note_on_c, 0, 74, 75
2, 257280, Note_on_c, 0, 65, 39
2, 257280, Note_on_c, 0, 71, 45
2, 257760, Note_on_c, 0, 71, 0
2, 257760, Note_on_c, 0, 65, 0
2, 257760, Note_on_c, 0, 74, 0
2, 257760, Note_on_c, 0, 76, 73
2, 258240, Note_on_c, 0, 67, 40
2, 258240, Note_on_c, 0, 64, 36
2, 258720, Note_on_c, 0, 76, 0
2, 258720, Note_on_c, 0, 72, 61
2, 259200, Note_on_c, 0, 72, 0
2, 259200, Note_on_c, 0, 64, 0
2, 259200, Note_on_c, 0, 67, 0
2, 259680, Note_on_c, 0, 74, 71
2, 260160, Note_on_c, 0, 72, 50
2, 260160, Note_on_c, 0, 66, 45
2, 260640, Note_on_c, 0, 66, 0
2, 260640, Note_on_c, 0, 72, 0
2, 260640, Note_on_c, 0, 74, 0
2, 260640, Note_on_c, 0, 76, 73
2, 261120, Note_on_c, 0, 67, 44
2, 261120, Note_on_c, 0, 72, 48
2, 261600, Note_on_c, 0, 72, 0
2, 261600, Note_on_c, 0, 67, 0
2, 261600, Note_on_c, 0, 76, 0
2, 261600, Note_on_c, 0, 79, 69
2, 262080, Note_on_c, 0, 79, 0
2, 262080, Note_on_c, 0, 74, 73
2, 262560, Note_on_c, 0, 65, 42
2, 262560, Note_on_c, 0, 71, 44
2, 262800, Note_on_c, 0, 74, 0
2, 262800, Note_on_c, 0, 76, 70
2, 263040, Note_on_c, 0, 76, 0
2, 263040, Note_on_c, 0, 71, 0
2, 263040, Note_on_c, 0, 65, 0
2, 263040, Note_on_c, 0, 65, 45
2, 263040, Note_on_c, 0, 71, 44
2, 263040, Note_on_c, 0, 74, 64
2, 263280, Note_on_c, 0, 74, 0
2, 263280, Note_on_c, 0, 76, 60
2, 263520, Note_on_c, 0, 76, 0
2, 263520, Note_on_c, 0, 71, 0
2, 263520, Note_on_c, 0, 65, 0
2, 263520, Note_on_c, 0, 72, 66
2, 264240, Note_on_c, 0, 72, 0
2, 264240, Note_on_c, 0, 76, 55
2, 264480, Note_on_c, 0, 76, 0
2, 264480, Note_on_c, 0, 75, 58
2, 264720, Note_on_c, 0, 75, 0
2, 264720, Note_on_c, 0, 76, 56
2, 264960, Note_on_c, 0, 76, 0
2, 264960, Note_on_c, 0, 72, 66
2, 265680, Note_on_c, 0, 72, 0
2, 265680, Note_on_c, 0, 76, 55
2, 265920, Note_on_c, 0, 76, 0
2, 265920, Note_on_c, 0, 75, 58
2, 266160, Note_on_c, 0, 75, 0
2, 266160, Note_on_c, 0, 76, 56
2, 266400, Note_on_c, 0, 76, 0
2, 266400, Note_on_c, 0, 72, 66
2, 266640, Note_on_c, 0, 72, 0
2, 266640, Note_on_c, 0, 76, 55
2, 266880, Note_on_c, 0, 76, 0
2, 266880, Note_on_c, 0, 75, 58
2, 267120, Note_on_c, 0, 75, 0
2, 267120, Note_on_c, 0, 76, 55
2, 267360, Note_on_c, 0, 76, 0
2, 267360, Note_on_c, 0, 72, 62
2, 267600, Note_on_c, 0, 72, 0
2, 267600, Note_on_c, 0, 76, 56
2, 267840, Note_on_c, 0, 76, 0
2, 267840, Note_on_c, 0, 75, 59
2, 268080, Note_on_c, 0, 75, 0
2, 268080, Note_on_c, 0, 76, 55
2, 268320, Note_on_c, 0, 76, 0
2, 268320, Note_on_c, 0, 72, 63
2, 268560, Note_on_c, 0, 72, 0
2, 268560, Note_on_c, 0, 76, 55
2, 268800, Note_on_c, 0, 76, 0
2, 268800, Note_on_c, 0, 75, 58
2, 269040, Note_on_c, 0, 75, 0
2, 269040, Note_on_c, 0, 76, 56
2, 269280, Note_on_c, 0, 76, 0
2, 269280, Note_on_c, 0, 73, 59
2, 269520, Note_on_c, 0, 73, 0
2, 269520, Note_on_c, 0, 77, 55
2, 269760, Note_on_c, 0, 77, 0
2, 269760, Note_on_c, 0, 76, 64
2, 270000, Note_on_c, 0, 76, 0
2, 270000, Note_on_c, 0, 77, 56
2, 270240, Note_on_c, 0, 77, 0
2, 270240, Note_on_c, 0, 73, 60
2, 270480, Note_on_c, 0, 73, 0
2, 270480, Note_on_c, 0, 77, 58
2, 270720, Note_on_c, 0, 77, 0
2, 270720, Note_on_c, 0, 76, 62
2, 270960, Note_on_c, 0, 76, 0
2, 270960, Note_on_c, 0, 77, 58
2, 271189, Note_on_c, 0, 73, 68
2, 271200, Note_on_c, 0, 77, 0
2, 271429, Note_on_c, 0, 73, 0
2, 271440, Note_on_c, 0, 77, 60
2, 271680, Note_on_c, 0, 77, 0
2, 271680, Note_on_c, 0, 76, 63
2, 271920, Note_on_c, 0, 76, 0
2, 271920, Note_on_c, 0, 77, 62
2, 272160, Note_on_c, 0, 77, 0
2, 272160, Note_on_c, 0, 71, 67
2, 272400, Note_on_c, 0, 77, 62
2, 272629, Note_on_c, 0, 76, 72
2, 272640, Note_on_c, 0, 77, 0
2, 272869, Note_on_c, 0, 76, 0
2, 272880, Note_on_c, 0, 77, 63
2, 273120, Note_on_c, 0, 77, 0
2, 273120, Note_on_c, 0, 80, 75
2, 273360, Note_on_c, 0, 80, 0
2, 273360, Note_on_c, 0, 79, 71
2, 273600, Note_on_c, 0, 79, 0
2, 273600, Note_on_c, 0, 71, 0
2, 273600, Note_on_c, 0, 75, 82
2, 274320, Note_on_c, 0, 75, 0
2, 274320, Note_on_c, 0, 76, 70
2, 274560, Note_on_c, 0, 76, 0
2, 274560, Note_on_c, 0, 79, 72
2, 274800, Note_on_c, 0, 79, 0
2, 274800, Note_on_c, 0, 84, 68
2, 275040, Note_on_c, 0, 84, 0
2, 275040, Note_on_c, 0, 69, 67
2, 275280, Note_on_c, 0, 75, 62
2, 275520, Note_on_c, 0, 75, 0
2, 275520, Note_on_c, 0, 74, 72
2, 275760, Note_on_c, 0, 74, 0
2, 275760, Note_on_c, 0, 75, 63
2, 276000, Note_on_c, 0, 75, 0
2, 276000, Note_on_c, 0, 78, 70
2, 276240, Note_on_c, 0, 78, 0
2, 276240, Note_on_c, 0, 77, 66
2, 276480, Note_on_c, 0, 77, 0
2, 276480, Note_on_c, 0, 69, 0
2, 276480, Note_on_c, 0, 72, 72
2, 277200, Note_on_c, 0, 72, 0
2, 277200, Note_on_c, 0, 73, 68
2, 277440, Note_on_c, 0, 73, 0
2, 277440, Note_on_c, 0, 77, 69
2, 277680, Note_on_c, 0, 77, 0
2, 277680, Note_on_c, 0, 82, 67
2, 277920, Note_on_c, 0, 82, 0
2, 277920, Note_on_c, 0, 69, 72
2, 278640, Note_on_c, 0, 69, 0
2, 278640, Note_on_c, 0, 70, 67
2, 278880, Note_on_c, 0, 70, 0
2, 278880, Note_on_c, 0, 73, 70
2, 279120, Note_on_c, 0, 73, 0
2, 279120, Note_on_c, 0, 80, 66
2, 279360, Note_on_c, 0, 80, 0
2, 279360, Note_on_c, 0, 79, 66
2, 279600, Note_on_c, 0, 79, 0
2, 279600, Note_on_c, 0, 77, 60
2, 279840, Note_on_c, 0, 77, 0
2, 279840, Note_on_c, 0, 75, 61
2, 280080, Note_on_c, 0, 75, 0
2, 280080, Note_on_c, 0, 74, 56
2, 280320, Note_on_c, 0, 74, 0
2, 280320, Note_on_c, 0, 77, 59
2, 280560, Note_on_c, 0, 77, 0
2, 280560, Note_on_c, 0, 75, 56
2, 280800, Note_on_c, 0, 75, 0
2, 280800, Note_on_c, 0, 73, 59
2, 281040, Note_on_c, 0, 73, 0
2, 281040, Note_on_c, 0, 77, 55
2, 281280, Note_on_c, 0, 77, 0
2, 281280, Note_on_c, 0, 76, 64
2, 281520, Note_on_c, 0, 76, 0
2, 281520, Note_on_c, 0, 77, 56
2, 281760, Note_on_c, 0, 77, 0
2, 281760, Note_on_c, 0, 73, 60
2, 282000, Note_on_c, 0, 73, 0
2, 282000, Note_on_c, 0, 77, 58
2, 282240, Note_on_c, 0, 77, 0
2, 282240, Note_on_c, 0, 76, 62
2, 282480, Note_on_c, 0, 76, 0
2, 282480, Note_on_c, 0, 77, 58
2, 282709, Note_on_c, 0, 73, 68
2, 282720, Note_on_c, 0, 77, 0
2, 282949, Note_on_c, 0, 73, 0
2, 282960, Note_on_c, 0, 77, 60
2, 283200, Note_on_c, 0, 77, 0
2, 283200, Note_on_c, 0, 76, 63
2, 283440, Note_on_c, 0, 76, 0
2, 283440, Note_on_c, 0, 77, 62
2, 283680, Note_on_c, 0, 77, 0
2, 283680, Note_on_c, 0, 71, 67
2, 283920, Note_on_c, 0, 77, 62
2, 284149, Note_on_c, 0, 76, 72
2, 284160, Note_on_c, 0, 77, 0
2, 284389, Note_on_c, 0, 76, 0
2, 284400, Note_on_c, 0, 77, 63
2, 284640, Note_on_c, 0, 77, 0
2, 284640, Note_on_c, 0, 80, 75
2, 284880, Note_on_c, 0, 80, 0
2, 284880, Note_on_c, 0, 79, 71
2, 285120, Note_on_c, 0, 79, 0
2, 285120, Note_on_c, 0, 71, 0
2, 285120, Note_on_c, 0, 75, 82
2, 285840, Note_on_c, 0, 75, 0
2, 285840, Note_on_c, 0, 76, 69
2, 286080, Note_on_c, 0, 76, 0
2, 286080, Note_on_c, 0, 79, 72
2, 286320, Note_on_c, 0, 79, 0
2, 286320, Note_on_c, 0, 84, 69
2, 286560, Note_on_c, 0, 84, 0
2, 286560, Note_on_c, 0, 69, 67
2, 286800, Note_on_c, 0, 75, 62
2, 287040, Note_on_c, 0, 75, 0
2, 287040, Note_on_c, 0, 74, 72
2, 287280, Note_on_c, 0, 74, 0
2, 287280, Note_on_c, 0, 75, 63
2, 287520, Note_on_c, 0, 75, 0
2, 287520, Note_on_c, 0, 78, 69
2, 287760, Note_on_c, 0, 78, 0
2, 287760, Note_on_c, 0, 77, 66
2, 288000, Note_on_c, 0, 77, 0
2, 288000, Note_on_c, 0, 69, 0
2, 288000, Note_on_c, 0, 72, 74
2, 288720, Note_on_c, 0, 72, 0
2, 288720, Note_on_c, 0, 73, 67
2, 288960, Note_on_c, 0, 73, 0
2, 288960, Note_on_c, 0, 77, 70
2, 289200, Note_on_c, 0, 77, 0
2, 289200, Note_on_c, 0, 82, 64
2, 289440, Note_on_c, 0, 82, 0
2, 289440, Note_on_c, 0, 69, 68
2, 290160, Note_on_c, 0, 69, 0
2, 290160, Note_on_c, 0, 70, 60
2, 290400, Note_on_c, 0, 70, 0
2, 290400, Note_on_c, 0, 72, 62
2, 290640, Note_on_c, 0, 72, 0
2, 290640, Note_on_c, 0, 73, 59
2, 290880, Note_on_c, 0, 73, 0
2, 290880, Note_on_c, 0, 66, 63
2, 291600, Note_on_c, 0, 66, 0
2, 291600, Note_on_c, 0, 67, 57
2, 291840, Note_on_c, 0, 67, 0
2, 291840, Note_on_c, 0, 69, 59
2, 292080, Note_on_c, 0, 69, 0
2, 292080, Note_on_c, 0, 70, 56
2, 292320, Note_on_c, 0, 70, 0
2, 292800, Note_on_c, 0, 68, 59
2, 293280, Note_on_c, 0, 63, 39
2, 293760, Note_on_c, 0, 63, 0
2, 293760, Note_on_c, 0, 68, 0
2, 293760, Note_on_c, 0, 70, 59
2, 294240, Note_on_c, 0, 63, 28
2, 294240, Note_on_c, 0, 68, 31
2, 294720, Note_on_c, 0, 68, 0
2, 294720, Note_on_c, 0, 63, 0
2, 294720, Note_on_c, 0, 70, 0
2, 294720, Note_on_c, 0, 72, 59
2, 295200, Note_on_c, 0, 72, 0
2, 295680, Note_on_c, 0, 73, 63
2, 296160, Note_on_c, 0, 63, 34
2, 296160, Note_on_c, 0, 67, 38
2, 296640, Note_on_c, 0, 67, 0
2, 296640, Note_on_c, 0, 63, 0
2, 296640, Note_on_c, 0, 73, 0
2, 296640, Note_on_c, 0, 72, 62
2, 297120, Note_on_c, 0, 67, 35
2, 297120, Note_on_c, 0, 63, 30
2, 297600, Note_on_c, 0, 63, 0
2, 297600, Note_on_c, 0, 67, 0
2, 297600, Note_on_c, 0, 72, 0
2, 297600, Note_on_c, 0, 70, 51
2, 298080, Note_on_c, 0, 70, 0
2, 298560, Note_on_c, 0, 72, 63
2, 299040, Note_on_c, 0, 68, 42
2, 299040, Note_on_c, 0, 63, 38
2, 299520, Note_on_c, 0, 63, 0
2, 299520, Note_on_c, 0, 68, 0
2, 299520, Note_on_c, 0, 72, 0
2, 299520, Note_on_c, 0, 73, 68
2, 300000, Note_on_c, 0, 63, 37
2, 300000, Note_on_c, 0, 68, 41
2, 300480, Note_on_c, 0, 68, 0
2, 300480, Note_on_c, 0, 63, 0
2, 300480, Note_on_c, 0, 73, 0
2, 300480, Note_on_c, 0, 75, 71
2, 300960, Note_on_c, 0, 75, 0
2, 300960, Note_on_c, 0, 77, 73
2, 301290, Note_on_c, 0, 77, 0
2, 301380, Note_on_c, 0, 68, 51
2, 301410, Note_on_c, 0, 74, 56
2, 301440, Note_on_c, 0, 79, 74
2, 301770, Note_on_c, 0, 79, 0
2, 301770, Note_on_c, 0, 74, 0
2, 301770, Note_on_c, 0, 68, 0
2, 301860, Note_on_c, 0, 68, 51
2, 301890, Note_on_c, 0, 74, 56
2, 301920, Note_on_c, 0, 80, 77
2, 302400, Note_on_c, 0, 80, 0
2, 302400, Note_on_c, 0, 74, 0
2, 302400, Note_on_c, 0, 68, 0
2, 302400, Note_on_c, 0, 75, 81
2, 302880, Note_on_c, 0, 63, 41
2, 302880, Note_on_c, 0, 68, 41
2, 302880, Note_on_c, 0, 72, 47
2, 303360, Note_on_c, 0, 72, 0
2, 303360, Note_on_c, 0, 68, 0
2, 303360, Note_on_c, 0, 63, 0
2, 303360, Note_on_c, 0, 63, 41
2, 303360, Note_on_c, 0, 68, 41
2, 303360, Note_on_c, 0, 72, 46
2, 303840, Note_on_c, 0, 72, 0
2, 303840, Note_on_c, 0, 75, 0
2, 303840, Note_on_c, 0, 63, 0
2, 303840, Note_on_c, 0, 68, 0
2, 304320, Note_on_c, 0, 78, 59
2, 304560, Note_on_c, 0, 78, 0
2, 304560, Note_on_c, 0, 77, 56
2, 304800, Note_on_c, 0, 77, 0
2, 304800, Note_on_c, 0, 75, 59
2, 305040, Note_on_c, 0, 75, 0
2, 305040, Note_on_c, 0, 78, 56
2, 305280, Note_on_c, 0, 78, 0
2, 305280, Note_on_c, 0, 77, 62
2, 306000, Note_on_c, 0, 77, 0
2, 306000, Note_on_c, 0, 73, 59
2, 306240, Note_on_c, 0, 73, 0
2, 306240, Note_on_c, 0, 70, 55
2, 306480, Note_on_c, 0, 70, 0
2, 306480, Note_on_c, 0, 65, 50
2, 306720, Note_on_c, 0, 65, 0
2, 307200, Note_on_c, 0, 76, 59
2, 307440, Note_on_c, 0, 76, 0
2, 307440, Note_on_c, 0, 75, 56
2, 307680, Note_on_c, 0, 75, 0
2, 307680, Note_on_c, 0, 73, 59
2, 307920, Note_on_c, 0, 73, 0
2, 307920, Note_on_c, 0, 76, 56
2, 308160, Note_on_c, 0, 76, 0
2, 308160, Note_on_c, 0, 75, 62
2, 308880, Note_on_c, 0, 75, 0
2, 308880, Note_on_c, 0, 72, 59
2, 309120, Note_on_c, 0, 72, 0
2, 309120, Note_on_c, 0, 68, 57
2, 309360, Note_on_c, 0, 68, 0
2, 309360, Note_on_c, 0, 63, 52
2, 309600, Note_on_c, 0, 63, 0
2, 310080, Note_on_c, 0, 60, 35
2, 310080, Note_on_c, 0, 63, 39
2, 310080, Note_on_c, 0, 68, 59
2, 310560, Note_on_c, 0, 63, 0
2, 310560, Note_on_c, 0, 60, 0
2, 310560, Note_on_c, 0, 60, 35
2, 310560, Note_on_c, 0, 63, 39
2, 311040, Note_on_c, 0, 63, 0
2, 311040, Note_on_c, 0, 60, 0
2, 311040, Note_on_c, 0, 68, 0
2, 311040, Note_on_c, 0, 67, 63
2, 311520, Note_on_c, 0, 60, 31
2, 311520, Note_on_c, 0, 65, 36
2, 312000, Note_on_c, 0, 65, 0
2, 312000, Note_on_c, 0, 60, 0
2, 312000, Note_on_c, 0, 67, 0
2, 312000, Note_on_c, 0, 60, 31
2, 312000, Note_on_c, 0, 65, 36
2, 312000, Note_on_c, 0, 68, 59
2, 312480, Note_on_c, 0, 68, 0
2, 312480, Note_on_c, 0, 65, 0
2, 312480, Note_on_c, 0, 60, 0
2, 312480, Note_on_c, 0, 70, 68
2, 312960, Note_on_c, 0, 62, 31
2, 312960, Note_on_c, 0, 68, 36
2, 313200, Note_on_c, 0, 70, 0
2, 313200, Note_on_c, 0, 71, 61
2, 313440, Note_on_c, 0, 71, 0
2, 313440, Note_on_c, 0, 68, 0
2, 313440, Note_on_c, 0, 62, 0
2, 313440, Note_on_c, 0, 62, 31
2, 313440, Note_on_c, 0, 68, 36
2, 313440, Note_on_c, 0, 70, 59
2, 313680, Note_on_c, 0, 70, 0
2, 313680, Note_on_c, 0, 71, 52
2, 313920, Note_on_c, 0, 71, 0
2, 313920, Note_on_c, 0, 68, 0
2, 313920, Note_on_c, 0, 62, 0
2, 313920, Note_on_c, 0, 67, 59
2, 314400, Note_on_c, 0, 61, 36
2, 314400, Note_on_c, 0, 63, 40
2, 314880, Note_on_c, 0, 63, 0
2, 314880, Note_on_c, 0, 61, 0
2, 314880, Note_on_c, 0, 61, 35
2, 314880, Note_on_c, 0, 63, 39
2, 315360, Note_on_c, 0, 63, 0
2, 315360, Note_on_c, 0, 61, 0
2, 315360, Note_on_c, 0, 67, 0
2, 315840, Note_on_c, 0, 68, 59
2, 316320, Note_on_c, 0, 63, 39
2, 316800, Note_on_c, 0, 63, 0
2, 316800, Note_on_c, 0, 68, 0
2, 316800, Note_on_c, 0, 70, 59
2, 317280, Note_on_c, 0, 63, 28
2, 317280, Note_on_c, 0, 68, 31
2, 317760, Note_on_c, 0, 68, 0
2, 317760, Note_on_c, 0, 63, 0
2, 317760, Note_on_c, 0, 70, 0
2, 317760, Note_on_c, 0, 72, 59
2, 318240, Note_on_c, 0, 72, 0
2, 318720, Note_on_c, 0, 73, 63
2, 319200, Note_on_c, 0, 63, 34
2, 319200, Note_on_c, 0, 67, 38
2, 319680, Note_on_c, 0, 67, 0
2, 319680, Note_on_c, 0, 63, 0
2, 319680, Note_on_c, 0, 73, 0
2, 319680, Note_on_c, 0, 72, 62
2, 320160, Note_on_c, 0, 67, 35
2, 320160, Note_on_c, 0, 63, 30
2, 320640, Note_on_c, 0, 63, 0
2, 320640, Note_on_c, 0, 67, 0
2, 320640, Note_on_c, 0, 72, 0
2, 320640, Note_on_c, 0, 70, 51
2, 321120, Note_on_c, 0, 70, 0
2, 321600, Note_on_c, 0, 72, 63
2, 322080, Note_on_c, 0, 68, 42
2, 322080, Note_on_c, 0, 63, 38
2, 322560, Note_on_c, 0, 63, 0
2, 322560, Note_on_c, 0, 68, 0
2, 322560, Note_on_c, 0, 72, 0
2, 322560, Note_on_c, 0, 73, 68
2, 323040, Note_on_c, 0, 63, 37
2, 323040, Note_on_c, 0, 68, 41
2, 323520, Note_on_c, 0, 68, 0
2, 323520, Note_on_c, 0, 63, 0
2, 323520, Note_on_c, 0, 73, 0
2, 323520, Note_on_c, 0, 75, 71
2, 324000, Note_on_c, 0, 75, 0
2, 324000, Note_on_c, 0, 77, 73
2, 324330, Note_on_c, 0, 77, 0
2, 324420, Note_on_c, 0, 68, 48
2, 324450, Note_on_c, 0, 74, 56
2, 324480, Note_on_c, 0, 79, 74
2, 324810, Note_on_c, 0, 79, 0
2, 324810, Note_on_c, 0, 74, 0
2, 324810, Note_on_c, 0, 68, 0
2, 324900, Note_on_c, 0, 68, 48
2, 324930, Note_on_c, 0, 74, 55
2, 324960, Note_on_c, 0, 80, 77
2, 325440, Note_on_c, 0, 80, 0
2, 325440, Note_on_c, 0, 74, 0
2, 325440, Note_on_c, 0, 68, 0
2, 325440, Note_on_c, 0, 75, 81
2, 325920, Note_on_c, 0, 63, 38
2, 325920, Note_on_c, 0, 68, 38
2, 325920, Note_on_c, 0, 72, 44
2, 326400, Note_on_c, 0, 72, 0
2, 326400, Note_on_c, 0, 68, 0
2, 326400, Note_on_c, 0, 63, 0
2, 326400, Note_on_c, 0, 63, 38
2, 326400, Note_on_c, 0, 68, 38
2, 326400, Note_on_c, 0, 72, 43
2, 326880, Note_on_c, 0, 72, 0
2, 326880, Note_on_c, 0, 75, 0
2, 326880, Note_on_c, 0, 63, 0
2, 326880, Note_on_c, 0, 68, 0
2, 327360, Note_on_c, 0, 78, 59
2, 327600, Note_on_c, 0, 78, 0
2, 327600, Note_on_c, 0, 77, 56
2, 327840, Note_on_c, 0, 77, 0
2, 327840, Note_on_c, 0, 75, 59
2, 328080, Note_on_c, 0, 75, 0
2, 328080, Note_on_c, 0, 78, 56
2, 328320, Note_on_c, 0, 78, 0
2, 328320, Note_on_c, 0, 77, 62
2, 329040, Note_on_c, 0, 77, 0
2, 329040, Note_on_c, 0, 73, 59
2, 329280, Note_on_c, 0, 73, 0
2, 329280, Note_on_c, 0, 70, 55
2, 329520, Note_on_c, 0, 70, 0
2, 329520, Note_on_c, 0, 65, 50
2, 329760, Note_on_c, 0, 65, 0
2, 330240, Note_on_c, 0, 80, 66
2, 330480, Note_on_c, 0, 80, 0
2, 330480, Note_on_c, 0, 79, 61
2, 330720, Note_on_c, 0, 79, 0
2, 330720, Note_on_c, 0, 77, 64
2, 330960, Note_on_c, 0, 77, 0
2, 330960, Note_on_c, 0, 80, 60
2, 331200, Note_on_c, 0, 80, 0
2, 331200, Note_on_c, 0, 79, 68
2, 331920, Note_on_c, 0, 79, 0
2, 331920, Note_on_c, 0, 76, 61
2, 332160, Note_on_c, 0, 76, 0
2, 332160, Note_on_c, 0, 72, 59
2, 332400, Note_on_c, 0, 72, 0
2, 332400, Note_on_c, 0, 67, 55
2, 332640, Note_on_c, 0, 67, 0
2, 333120, Note_on_c, 0, 82, 70
2, 333360, Note_on_c, 0, 82, 0
2, 333360, Note_on_c, 0, 80, 64
2, 333600, Note_on_c, 0, 80, 0
2, 333600, Note_on_c, 0, 79, 69
2, 333840, Note_on_c, 0, 79, 0
2, 333840, Note_on_c, 0, 82, 63
2, 334080, Note_on_c, 0, 82, 0
2, 334080, Note_on_c, 0, 80, 72
2, 334800, Note_on_c, 0, 80, 0
2, 334800, Note_on_c, 0, 77, 64
2, 335040, Note_on_c, 0, 77, 0
2, 335040, Note_on_c, 0, 71, 62
2, 335280, Note_on_c, 0, 71, 0
2, 335280, Note_on_c, 0, 68, 58
2, 335520, Note_on_c, 0, 68, 0
2, 335520, Note_on_c, 0, 77, 64
2, 336240, Note_on_c, 0, 77, 0
2, 336240, Note_on_c, 0, 73, 58
2, 336480, Note_on_c, 0, 73, 0
2, 336480, Note_on_c, 0, 70, 56
2, 336720, Note_on_c, 0, 70, 0
2, 336720, Note_on_c, 0, 67, 51
2, 336960, Note_on_c, 0, 67, 0
2, 336960, Note_on_c, 0, 70, 58
2, 337680, Note_on_c, 0, 70, 0
2, 337680, Note_on_c, 0, 68, 51
2, 337920, Note_on_c, 0, 68, 0
2, 337920, Note_on_c, 0, 63, 49
2, 338160, Note_on_c, 0, 63, 0
2, 338160, Note_on_c, 0, 60, 46
2, 338400, Note_on_c, 0, 60, 0
2, 338880, Note_on_c, 0, 59, 39
2, 338880, Note_on_c, 0, 62, 39
2, 338880, Note_on_c, 0, 65, 59
2, 339360, Note_on_c, 0, 62, 0
2, 339360, Note_on_c, 0, 59, 0
2, 339360, Note_on_c, 0, 59, 39
2, 339360, Note_on_c, 0, 62, 39
2, 339840, Note_on_c, 0, 62, 0
2, 339840, Note_on_c, 0, 59, 0
2, 339840, Note_on_c, 0, 65, 0
2, 339840, Note_on_c, 0, 67, 61
2, 340320, Note_on_c, 0, 59, 39
2, 340320, Note_on_c, 0, 62, 39
2, 340800, Note_on_c, 0, 62, 0
2, 340800, Note_on_c, 0, 59, 0
2, 340800, Note_on_c, 0, 67, 0
2, 340800, Note_on_c, 0, 59, 39
2, 340800, Note_on_c, 0, 62, 39
2, 340800, Note_on_c, 0, 68, 59
2, 341280, Note_on_c, 0, 68, 0
2, 341280, Note_on_c, 0, 62, 0
2, 341280, Note_on_c, 0, 59, 0
2, 341280, Note_on_c, 0, 60, 42
2, 341280, Note_on_c, 0, 63, 42
2, 341280, Note_on_c, 0, 67, 48
2, 341760, Note_on_c, 0, 67, 0
2, 341760, Note_on_c, 0, 63, 0
2, 341760, Note_on_c, 0, 60, 0
2, 342240, Note_on_c, 0, 60, 47
2, 342240, Note_on_c, 0, 63, 47
2, 342240, Note_on_c, 0, 67, 52
2, 342720, Note_on_c, 0, 67, 0
2, 342720, Note_on_c, 0, 63, 0
2, 342720, Note_on_c, 0, 60, 0
2, 343200, Note_on_c, 0, 63, 51
2, 343200, Note_on_c, 0, 60, 46
2, 343680, Note_on_c, 0, 60, 0
2, 343680, Note_on_c, 0, 63, 0
2, 344640, Note_on_c, 0, 59, 42
2, 344640, Note_on_c, 0, 64, 42
2, 344640, Note_on_c, 0, 68, 64
2, 345120, Note_on_c, 0, 64, 0
2, 345120, Note_on_c, 0, 59, 0
2, 345120, Note_on_c, 0, 59, 42
2, 345120, Note_on_c, 0, 64, 42
2, 345600, Note_on_c, 0, 64, 0
2, 345600, Note_on_c, 0, 59, 0
2, 345600, Note_on_c, 0, 68, 0
2, 345600, Note_on_c, 0, 70, 67
2, 346080, Note_on_c, 0, 59, 42
2, 346080, Note_on_c, 0, 64, 42
2, 346560, Note_on_c, 0, 64, 0
2, 346560, Note_on_c, 0, 59, 0
2, 346560, Note_on_c, 0, 70, 0
2, 346560, Note_on_c, 0, 59, 42
2, 346560, Note_on_c, 0, 64, 42
2, 346560, Note_on_c, 0, 71, 64
2, 347040, Note_on_c, 0, 71, 0
2, 347040, Note_on_c, 0, 64, 0
2, 347040, Note_on_c, 0, 59, 0
2, 347040, Note_on_c, 0, 60, 46
2, 347040, Note_on_c, 0, 63, 46
2, 347040, Note_on_c, 0, 72, 52
2, 347520, Note_on_c, 0, 72, 0
2, 347520, Note_on_c, 0, 63, 0
2, 347520, Note_on_c, 0, 60, 0
2, 348000, Note_on_c, 0, 60, 52
2, 348000, Note_on_c, 0, 63, 52
2, 348000, Note_on_c, 0, 72, 58
2, 348480, Note_on_c, 0, 72, 0
2, 348480, Note_on_c, 0, 63, 0
2, 348480, Note_on_c, 0, 60, 0
2, 348960, Note_on_c, 0, 63, 52
2, 348960, Note_on_c, 0, 72, 57
2, 348960, Note_on_c, 0, 60, 51
2, 349440, Note_on_c, 0, 60, 0
2, 349440, Note_on_c, 0, 72, 0
2, 349440, Note_on_c, 0, 63, 0
2, 350400, Note_on_c, 0, 71, 48
2, 350400, Note_on_c, 0, 74, 48
2, 350400, Note_on_c, 0, 77, 72
2, 350880, Note_on_c, 0, 74, 0
2, 350880, Note_on_c, 0, 71, 0
2, 350880, Note_on_c, 0, 71, 48
2, 350880, Note_on_c, 0, 74, 48
2, 351360, Note_on_c, 0, 74, 0
2, 351360, Note_on_c, 0, 71, 0
2, 351360, Note_on_c, 0, 77, 0
2, 351360, Note_on_c, 0, 79, 76
2, 351840, Note_on_c, 0, 71, 48
2, 351840, Note_on_c, 0, 74, 48
2, 352320, Note_on_c, 0, 74, 0
2, 352320, Note_on_c, 0, 71, 0
2, 352320, Note_on_c, 0, 79, 0
2, 352320, Note_on_c, 0, 71, 48
2, 352320, Note_on_c, 0, 74, 48
2, 352320, Note_on_c, 0, 80, 73
2, 352800, Note_on_c, 0, 80, 0
2, 352800, Note_on_c, 0, 74, 0
2, 352800, Note_on_c, 0, 71, 0
2, 352800, Note_on_c, 0, 72, 53
2, 352800, Note_on_c, 0, 75, 53
2, 352800, Note_on_c, 0, 79, 60
2, 353280, Note_on_c, 0, 79, 0
2, 353280, Note_on_c, 0, 75, 0
2, 353280, Note_on_c, 0, 72, 0
2, 353760, Note_on_c, 0, 72, 59
2, 353760, Note_on_c, 0, 75, 59
2, 353760, Note_on_c, 0, 79, 66
2, 354240, Note_on_c, 0, 79, 0
2, 354240, Note_on_c, 0, 75, 0
2, 354240, Note_on_c, 0, 72, 0
2, 354720, Note_on_c, 0, 75, 65
2, 354720, Note_on_c, 0, 72, 59
2, 355200, Note_on_c, 0, 72, 0
2, 355200, Note_on_c, 0, 75, 0
2, 356160, Note_on_c, 0, 71, 54
2, 356160, Note_on_c, 0, 76, 54
2, 356160, Note_on_c, 0, 80, 83
2, 356640, Note_on_c, 0, 76, 0
2, 356640, Note_on_c, 0, 71, 0
2, 356640, Note_on_c, 0, 71, 54
2, 356640, Note_on_c, 0, 76, 54
2, 357120, Note_on_c, 0, 76, 0
2, 357120, Note_on_c, 0, 71, 0
2, 357120, Note_on_c, 0, 80, 0
2, 357120, Note_on_c, 0, 82, 87
2, 357600, Note_on_c, 0, 71, 55
2, 357600, Note_on_c, 0, 76, 55
2, 358080, Note_on_c, 0, 76, 0
2, 358080, Note_on_c, 0, 71, 0
2, 358080, Note_on_c, 0, 82, 0
2, 358080, Note_on_c, 0, 71, 56
2, 358080, Note_on_c, 0, 76, 56
2, 358080, Note_on_c, 0, 83, 86
2, 358560, Note_on_c, 0, 83, 0
2, 358560, Note_on_c, 0, 76, 0
2, 358560, Note_on_c, 0, 71, 0
2, 358560, Note_on_c, 0, 72, 61
2, 358560, Note_on_c, 0, 75, 61
2, 358560, Note_on_c, 0, 84, 68
2, 359040, Note_on_c, 0, 84, 0
2, 359040, Note_on_c, 0, 75, 0
2, 359040, Note_on_c, 0, 72, 0
2, 359520, Note_on_c, 0, 72, 67
2, 359520, Note_on_c, 0, 75, 67
2, 359520, Note_on_c, 0, 84, 75
2, 360000, Note_on_c, 0, 84, 0
2, 360000, Note_on_c, 0, 75, 0
2, 360000, Note_on_c, 0, 72, 0
2, 360480, Note_on_c, 0, 75, 68
2, 360480, Note_on_c, 0, 84, 75
2, 360480, Note_on_c, 0, 72, 67
2, 360960, Note_on_c, 0, 72, 0
2, 360960, Note_on_c, 0, 84, 0
2, 360960, Note_on_c, 0, 75, 0
2, 361920, Note_on_c, 0, 88, 87
2, 361920, Note_on_c, 0, 83, 76
2, 361920, Note_on_c, 0, 80, 76
2, 361920, Note_on_c, 0, 76, 76
2, 362880, Note_on_c, 0, 76, 0
2, 362880, Note_on_c, 0, 88, 0
2, 362880, Note_on_c, 0, 83, 0
2, 362880, Note_on_c, 0, 80, 0
2, 362880, Note_on_c, 0, 87, 82
2, 363000, Note_on_c, 0, 87, 0
2, 363120, Note_on_c, 0, 84, 76
2, 363240, Note_on_c, 0, 84, 0
2, 363360, Note_on_c, 0, 80, 79
2, 363480, Note_on_c, 0, 80, 0
2, 363600, Note_on_c, 0, 75, 77
2, 363720, Note_on_c, 0, 75, 0
2, 363840, Note_on_c, 0, 72, 80
2, 363960, Note_on_c, 0, 72, 0
2, 364800, Note_on_c, 0, 76, 77
2, 364800, Note_on_c, 0, 71, 69
2, 364800, Note_on_c, 0, 68, 69
2, 364800, Note_on_c, 0, 64, 69
2, 365760, Note_on_c, 0, 64, 0
2, 365760, Note_on_c, 0, 76, 0
2, 365760, Note_on_c, 0, 71, 0
2, 365760, Note_on_c, 0, 68, 0
2, 365760, Note_on_c, 0, 75, 78
2, 365880, Note_on_c, 0, 75, 0
2, 366000, Note_on_c, 0, 72, 72
2, 366120, Note_on_c, 0, 72, 0
2, 366240, Note_on_c, 0, 68, 75
2, 366360, Note_on_c, 0, 68, 0
2, 366480, Note_on_c, 0, 63, 72
2, 366600, Note_on_c, 0, 63, 0
2, 366720, Note_on_c, 0, 60, 76
2, 366840, Note_on_c, 0, 60, 0
2, 367200, Note_on_c, 0, 75, 74
2, 367320, Note_on_c, 0, 75, 0
2, 367440, Note_on_c, 0, 72, 67
2, 367560, Note_on_c, 0, 72, 0
2, 367680, Note_on_c, 0, 68, 71
2, 367800, Note_on_c, 0, 68, 0
2, 367920, Note_on_c, 0, 63, 67
2, 368040, Note_on_c, 0, 63, 0
2, 368160, Note_on_c, 0, 60, 71
2, 368280, Note_on_c, 0, 60, 0
2, 368640, Note_on_c, 0, 75, 65
2, 368760, Note_on_c, 0, 75, 0
2, 368880, Note_on_c, 0, 72, 60
2, 369000, Note_on_c, 0, 72, 0
2, 369120, Note_on_c, 0, 68, 62
2, 369240, Note_on_c, 0, 68, 0
2, 369360, Note_on_c, 0, 63, 59
2, 369480, Note_on_c, 0, 63, 0
2, 369600, Note_on_c, 0, 60, 62
2, 369720, Note_on_c, 0, 60, 0
2, 370080, Note_on_c, 0, 75, 61
2, 370200, Note_on_c, 0, 75, 0
2, 370320, Note_on_c, 0, 72, 56
2, 370440, Note_on_c, 0, 72, 0
2, 370560, Note_on_c, 0, 68, 58
2, 370680, Note_on_c, 0, 68, 0
2, 370800, Note_on_c, 0, 63, 55
2, 370920, Note_on_c, 0, 63, 0
2, 371040, Note_on_c, 0, 60, 58
2, 371160, Note_on_c, 0, 60, 0
2, 371520, Note_on_c, 0, 75, 56
2, 371640, Note_on_c, 0, 75, 0
2, 371760, Note_on_c, 0, 72, 51
2, 371880, Note_on_c, 0, 72, 0
2, 372000, Note_on_c, 0, 68, 53
2, 372120, Note_on_c, 0, 68, 0
2, 372240, Note_on_c, 0, 63, 51
2, 372360, Note_on_c, 0, 63, 0
2, 372480, Note_on_c, 0, 60, 55
2, 372600, Note_on_c, 0, 60, 0
2, 373200, Note_on_c, 0, 60, 46
2, 373440, Note_on_c, 0, 60, 0
2, 373440, Note_on_c, 0, 63, 48
2, 373680, Note_on_c, 0, 63, 0
2, 373680, Note_on_c, 0, 68, 49
2, 373920, Note_on_c, 0, 68, 0
2, 373920, Note_on_c, 0, 72, 51
2, 374160, Note_on_c, 0, 72, 0
2, 374160, Note_on_c, 0, 75, 52
2, 374400, Note_on_c, 0, 75, 0
2, 374400, Note_on_c, 0, 77, 55
2, 374640, Note_on_c, 0, 77, 0
2, 374640, Note_on_c, 0, 75, 52
2, 374880, Note_on_c, 0, 75, 0
2, 374880, Note_on_c, 0, 72, 51
2, 375120, Note_on_c, 0, 72, 0
2, 375120, Note_on_c, 0, 68, 49
2, 375360, Note_on_c, 0, 68, 0
2, 375360, Note_on_c, 0, 72, 51
2, 375600, Note_on_c, 0, 72, 0
2, 375600, Note_on_c, 0, 75, 55
2, 375840, Note_on_c, 0, 75, 0
2, 375840, Note_on_c, 0, 80, 58
2, 375960, Note_on_c, 0, 80, 0
2, 376320, Note_on_c, 0, 84, 55
2, 376320, Note_on_c, 0, 80, 55
2, 376440, Note_on_c, 0, 80, 0
2, 376440, Note_on_c, 0, 84, 0
2, 376800, Note_on_c, 0, 87, 55
2, 376800, Note_on_c, 0, 84, 55
2, 376800, Note_on_c, 0, 80, 55
2, 376920, Note_on_c, 0, 80, 0
2, 376920, Note_on_c, 0, 84, 0
2, 376920, Note_on_c, 0, 87, 0
2, 377280, Note_on_c, 0, 92, 57
2, 377280, Note_on_c, 0, 84, 57
2, 377280, Note_on_c, 0, 80, 57
2, 377400, Note_on_c, 0, 80, 0
2, 377400, Note_on_c, 0, 84, 0
2, 377400, Note_on_c, 0, 92, 0
2, 377400, End_track
3, 0, Start_track
3, 0, Title_t, "Piano left"
3, 0, Program_c, 0, 0
3, 0, Control_c, 0, 7, 100
3, 0, Control_c, 0, 10, 64
3, 0, Control_c, 0, 64, 127
3, 0, Note_on_c, 0, 44, 37
3, 480, Note_on_c, 0, 44, 0
3, 480, Note_on_c, 0, 56, 27
3, 480, Note_on_c, 0, 60, 32
3, 480, Note_on_c, 0, 51, 27
3, 960, Note_on_c, 0, 51, 0
3, 960, Note_on_c, 0, 60, 0
3, 960, Note_on_c, 0, 56, 0
3, 960, Note_on_c, 0, 51, 24
3, 960, Note_on_c, 0, 60, 27
3, 960, Note_on_c, 0, 56, 24
3, 1440, Note_on_c, 0, 56, 0
3, 1440, Note_on_c, 0, 60, 0
3, 1440, Note_on_c, 0, 51, 0
3, 1440, Note_on_c, 0, 39, 44
3, 1451, Control_c, 0, 64, 0
3, 1564, Control_c, 0, 64, 127
3, 1920, Note_on_c, 0, 39, 0
3, 1920, Note_on_c, 0, 51, 19
3, 1920, Note_on_c, 0, 60, 22
3, 1920, Note_on_c, 0, 56, 19
3, 2400, Note_on_c, 0, 56, 0
3, 2400, Note_on_c, 0, 60, 0
3, 2400, Note_on_c, 0, 51, 0
3, 2400, Note_on_c, 0, 51, 26
3, 2400, Note_on_c, 0, 60, 29
3, 2400, Note_on_c, 0, 56, 26
3, 2880, Note_on_c, 0, 56, 0
3, 2880, Note_on_c, 0, 60, 0
3, 2880, Note_on_c, 0, 51, 0
3, 2880, Control_c, 0, 64, 0
3, 2880, Note_on_c, 0, 46, 39
3, 3040, Control_c, 0, 64, 127
3, 3360, Note_on_c, 0, 46, 0
3, 3360, Note_on_c, 0, 61, 34
3, 3360, Note_on_c, 0, 55, 30
3, 3360, Note_on_c, 0, 51, 30
3, 3840, Note_on_c, 0, 51, 0
3, 3840, Note_on_c, 0, 55, 0
3, 3840, Note_on_c, 0, 61, 0
3, 3840, Note_on_c, 0, 61, 25
3, 3840, Note_on_c, 0, 55, 22
3, 3840, Note_on_c, 0, 51, 22
3, 4320, Note_on_c, 0, 51, 0
3, 4320, Note_on_c, 0, 55, 0
3, 4320, Note_on_c, 0, 61, 0
3, 4320, Note_on_c, 0, 39, 39
3, 4342, Control_c, 0, 64, 0
3, 4587, Control_c, 0, 64, 127
3, 4800, Note_on_c, 0, 39, 0
3, 4800, Note_on_c, 0, 61, 23
3, 4800, Note_on_c, 0, 55, 20
3, 4800, Note_on_c, 0, 51, 20
3, 5280, Note_on_c, 0, 51, 0
3, 5280, Note_on_c, 0, 55, 0
3, 5280, Note_on_c, 0, 61, 0
3, 5280, Note_on_c, 0, 51, 27
3, 5280, Note_on_c, 0, 55, 27
3, 5280, Note_on_c, 0, 61, 32
3, 5760, Note_on_c, 0, 61, 0
3, 5760, Note_on_c, 0, 55, 0
3, 5760, Note_on_c, 0, 51, 0
3, 5760, Control_c, 0, 64, 0
3, 5760, Note_on_c, 0, 44, 50
3, 5893, Control_c, 0, 64, 127
3, 6240, Note_on_c, 0, 44, 0
3, 6240, Note_on_c, 0, 56, 33
3, 6240, Note_on_c, 0, 60, 36
3, 6240, Note_on_c, 0, 51, 33
3, 6720, Note_on_c, 0, 51, 0
3, 6720, Note_on_c, 0, 60, 0
3, 6720, Note_on_c, 0, 56, 0
3, 6720, Note_on_c, 0, 60, 33
3, 6720, Note_on_c, 0, 56, 27
3, 6720, Note_on_c, 0, 51, 27
3, 7200, Note_on_c, 0, 51, 0
3, 7200, Note_on_c, 0, 56, 0
3, 7200, Note_on_c, 0, 60, 0
3, 7200, Note_on_c, 0, 39, 55
3, 7210, Control_c, 0, 64, 0
3, 7291, Control_c, 0, 64, 127
3, 7680, Note_on_c, 0, 39, 0
3, 7680, Note_on_c, 0, 56, 27
3, 7680, Note_on_c, 0, 60, 32
3, 7680, Note_on_c, 0, 54, 27
3, 8160, Note_on_c, 0, 54, 0
3, 8160, Note_on_c, 0, 60, 0
3, 8160, Note_on_c, 0, 56, 0
3, 8160, Note_on_c, 0, 56, 34
3, 8160, Note_on_c, 0, 60, 37
3, 8160, Note_on_c, 0, 54, 34
3, 8640, Note_on_c, 0, 54, 0
3, 8640, Note_on_c, 0, 60, 0
3, 8640, Note_on_c, 0, 56, 0
3, 8640, Control_c, 0, 64, 0
3, 8640, Note_on_c, 0, 44, 57
3, 8714, Control_c, 0, 64, 127
3, 8970, Note_on_c, 0, 44, 0
3, 8970, Note_on_c, 0, 53, 31
3, 9000, Note_on_c, 0, 56, 37
3, 9030, Note_on_c, 0, 59, 44
3, 9450, Note_on_c, 0, 59, 0
3, 9450, Note_on_c, 0, 56, 0
3, 9450, Note_on_c, 0, 53, 0
3, 9450, Note_on_c, 0, 53, 33
3, 9480, Note_on_c, 0, 56, 40
3, 9510, Note_on_c, 0, 59, 45
3, 10080, Note_on_c, 0, 59, 0
3, 10080, Note_on_c, 0, 56, 0
3, 10080, Note_on_c, 0, 53, 0
3, 10080, Control_c, 0, 64, 0
3, 10080, Note_on_c, 0, 44, 63
3, 10347, Control_c, 0, 64, 127
3, 10560, Note_on_c, 0, 44, 0
3, 10560, Note_on_c, 0, 56, 22
3, 10560, Note_on_c, 0, 60, 25
3, 10560, Note_on_c, 0, 51, 22
3, 11040, Note_on_c, 0, 51, 0
3, 11040, Note_on_c, 0, 60, 0
3, 11040, Note_on_c, 0, 56, 0
3, 11040, Note_on_c, 0, 56, 22
3, 11040, Note_on_c, 0, 60, 25
3, 11040, Note_on_c, 0, 51, 22
3, 11520, Note_on_c, 0, 51, 0
3, 11520, Note_on_c, 0, 60, 0
3, 11520, Note_on_c, 0, 56, 0
3, 11520, Control_c, 0, 64, 0
3, 11520, Note_on_c, 0, 45, 37
3, 11680, Control_c, 0, 64, 127
3, 12000, Note_on_c, 0, 45, 0
3, 12000, Note_on_c, 0, 53, 27
3, 12000, Note_on_c, 0, 63, 32
3, 12000, Note_on_c, 0, 60, 27
3, 12480, Note_on_c, 0, 60, 0
3, 12480, Note_on_c, 0, 63, 0
3, 12480, Note_on_c, 0, 53, 0
3, 12480, Note_on_c, 0, 63, 27
3, 12480, Note_on_c, 0, 60, 24
3, 12480, Note_on_c, 0, 53, 24
3, 12960, Note_on_c, 0, 53, 0
3, 12960, Note_on_c, 0, 60, 0
3, 12960, Note_on_c, 0, 63, 0
3, 12960, Note_on_c, 0, 46, 37
3, 12972, Control_c, 0, 64, 0
3, 13109, Control_c, 0, 64, 127
3, 13440, Note_on_c, 0, 46, 0
3, 13440, Note_on_c, 0, 58, 27
3, 13440, Note_on_c, 0, 61, 32
3, 13440, Note_on_c, 0, 53, 27
3, 13920, Note_on_c, 0, 53, 0
3, 13920, Note_on_c, 0, 61, 0
3, 13920, Note_on_c, 0, 58, 0
3, 13920, Control_c, 0, 64, 0
3, 13920, Note_on_c, 0, 61, 27
3, 13920, Note_on_c, 0, 58, 24
3, 13920, Note_on_c, 0, 53, 24
3, 14400, Note_on_c, 0, 53, 0
3, 14400, Note_on_c, 0, 58, 0
3, 14400, Note_on_c, 0, 61, 0
3, 14400, Note_on_c, 0, 43, 37
3, 14560, Control_c, 0, 64, 127
3, 14880, Note_on_c, 0, 43, 0
3, 14880, Note_on_c, 0, 58, 27
3, 14880, Note_on_c, 0, 61, 32
3, 14880, Note_on_c, 0, 51, 27
3, 15360, Note_on_c, 0, 51, 0
3, 15360, Note_on_c, 0, 61, 0
3, 15360, Note_on_c, 0, 58, 0
3, 15360, Note_on_c, 0, 61, 27
3, 15360, Note_on_c, 0, 58, 24
3, 15360, Note_on_c, 0, 51, 24
3, 15840, Note_on_c, 0, 51, 0
3, 15840, Note_on_c, 0, 58, 0
3, 15840, Note_on_c, 0, 61, 0
3, 15840, Note_on_c, 0, 44, 37
3, 15852, Control_c, 0, 64, 0
3, 15989, Control_c, 0, 64, 127
3, 16320, Note_on_c, 0, 44, 0
3, 16320, Note_on_c, 0, 51, 27
3, 16320, Note_on_c, 0, 60, 32
3, 16320, Note_on_c, 0, 56, 27
3, 16800, Note_on_c, 0, 56, 0
3, 16800, Note_on_c, 0, 60, 0
3, 16800, Note_on_c, 0, 51, 0
3, 16800, Control_c, 0, 64, 0
3, 16800, Note_on_c, 0, 60, 27
3, 16800, Note_on_c, 0, 56, 24
3, 16800, Note_on_c, 0, 51, 24
3, 17280, Note_on_c, 0, 51, 0
3, 17280, Note_on_c, 0, 56, 0
3, 17280, Note_on_c, 0, 60, 0
3, 17280, Note_on_c, 0, 42, 37
3, 17371, Control_c, 0, 64, 127
3, 17760, Note_on_c, 0, 42, 0
3, 17760, Note_on_c, 0, 56, 36
3, 17760, Note_on_c, 0, 54, 31
3, 18240, Note_on_c, 0, 54, 0
3, 18240, Note_on_c, 0, 56, 0
3, 18240, Note_on_c, 0, 54, 27
3, 18240, Note_on_c, 0, 56, 30
3, 18720, Note_on_c, 0, 56, 0
3, 18720, Note_on_c, 0, 54, 0
3, 18720, Note_on_c, 0, 41, 44
3, 18734, Control_c, 0, 64, 0
3, 19067, Control_c, 0, 64, 127
3, 19200, Note_on_c, 0, 41, 0
3, 19200, Note_on_c, 0, 56, 28
3, 19200, Note_on_c, 0, 53, 25
3, 19680, Note_on_c, 0, 53, 0
3, 19680, Note_on_c, 0, 56, 0
3, 19680, Note_on_c, 0, 53, 29
3, 19680, Note_on_c, 0, 56, 33
3, 20160, Note_on_c, 0, 56, 0
3, 20160, Note_on_c, 0, 53, 0
3, 20160, Control_c, 0, 64, 0
3, 20160, Note_on_c, 0, 40, 37
3, 20309, Control_c, 0, 64, 127
3, 20640, Note_on_c, 0, 40, 0
3, 20640, Note_on_c, 0, 52, 31
3, 20640, Note_on_c, 0, 56, 36
3, 21120, Note_on_c, 0, 56, 0
3, 21120, Note_on_c, 0, 52, 0
3, 21120, Note_on_c, 0, 52, 27
3, 21120, Note_on_c, 0, 56, 30
3, 21600, Note_on_c, 0, 56, 0
3, 21600, Note_on_c, 0, 52, 0
3, 21600, Note_on_c, 0, 39, 37
3, 21614, Control_c, 0, 64, 0
3, 21782, Control_c, 0, 64, 127
3, 22080, Note_on_c, 0, 39, 0
3, 22080, Note_on_c, 0, 51, 29
3, 22080, Note_on_c, 0, 58, 34
3, 22560, Note_on_c, 0, 58, 0
3, 22560, Note_on_c, 0, 51, 0
3, 22560, Note_on_c, 0, 58, 28
3, 22560, Note_on_c, 0, 51, 25
3, 23040, Note_on_c, 0, 51, 0
3, 23040, Note_on_c, 0, 58, 0
3, 23040, Control_c, 0, 64, 0
3, 23040, Note_on_c, 0, 44, 37
3, 23360, Control_c, 0, 64, 127
3, 23520, Note_on_c, 0, 44, 0
3, 23520, Note_on_c, 0, 56, 27
3, 23520, Note_on_c, 0, 60, 32
3, 23520, Note_on_c, 0, 51, 27
3, 24000, Note_on_c, 0, 51, 0
3, 24000, Note_on_c, 0, 60, 0
3, 24000, Note_on_c, 0, 56, 0
3, 24000, Note_on_c, 0, 51, 24
3, 24000, Note_on_c, 0, 60, 27
3, 24000, Note_on_c, 0, 56, 24
3, 24480, Note_on_c, 0, 56, 0
3, 24480, Note_on_c, 0, 60, 0
3, 24480, Note_on_c, 0, 51, 0
3, 24480, Note_on_c, 0, 39, 44
3, 24493, Control_c, 0, 64, 0
3, 24587, Control_c, 0, 64, 127
3, 24960, Note_on_c, 0, 39, 0
3, 24960, Note_on_c, 0, 51, 19
3, 24960, Note_on_c, 0, 60, 22
3, 24960, Note_on_c, 0, 56, 19
3, 25440, Note_on_c, 0, 56, 0
3, 25440, Note_on_c, 0, 60, 0
3, 25440, Note_on_c, 0, 51, 0
3, 25440, Note_on_c, 0, 51, 26
3, 25440, Note_on_c, 0, 60, 29
3, 25440, Note_on_c, 0, 56, 26
3, 25920, Note_on_c, 0, 56, 0
3, 25920, Note_on_c, 0, 60, 0
3, 25920, Note_on_c, 0, 51, 0
3, 25920, Control_c, 0, 64, 0
3, 25920, Note_on_c, 0, 46, 39
3, 26240, Control_c, 0, 64, 127
3, 26400, Note_on_c, 0, 46, 0
3, 26400, Note_on_c, 0, 61, 34
3, 26400, Note_on_c, 0, 55, 30
3, 26400, Note_on_c, 0, 51, 30
3, 26880, Note_on_c, 0, 51, 0
3, 26880, Note_on_c, 0, 55, 0
3, 26880, Note_on_c, 0, 61, 0
3, 26880, Note_on_c, 0, 61, 25
3, 26880, Note_on_c, 0, 55, 22
3, 26880, Note_on_c, 0, 51, 22
3, 27360, Note_on_c, 0, 51, 0
3, 27360, Note_on_c, 0, 55, 0
3, 27360, Note_on_c, 0, 61, 0
3, 27360, Note_on_c, 0, 39, 39
3, 27374, Control_c, 0, 64, 0
3, 27627, Control_c, 0, 64, 127
3, 27840, Note_on_c, 0, 39, 0
3, 27840, Note_on_c, 0, 61, 23
3, 27840, Note_on_c, 0, 55, 20
3, 27840, Note_on_c, 0, 51, 20
3, 28320, Note_on_c, 0, 51, 0
3, 28320, Note_on_c, 0, 55, 0
3, 28320, Note_on_c, 0, 61, 0
3, 28320, Note_on_c, 0, 51, 27
3, 28320, Note_on_c, 0, 55, 27
3, 28320, Note_on_c, 0, 61, 32
3, 28800, Note_on_c, 0, 61, 0
3, 28800, Note_on_c, 0, 55, 0
3, 28800, Note_on_c, 0, 51, 0
3, 28800, Control_c, 0, 64, 0
3, 28800, Note_on_c, 0, 44, 38
3, 29147, Control_c, 0, 64, 127
3, 29280, Note_on_c, 0, 44, 0
3, 29280, Note_on_c, 0, 56, 30
3, 29280, Note_on_c, 0, 60, 34
3, 29280, Note_on_c, 0, 51, 30
3, 29760, Note_on_c, 0, 51, 0
3, 29760, Note_on_c, 0, 60, 0
3, 29760, Note_on_c, 0, 56, 0
3, 29760, Note_on_c, 0, 60, 30
3, 29760, Note_on_c, 0, 56, 26
3, 29760, Note_on_c, 0, 51, 26
3, 30240, Note_on_c, 0, 51, 0
3, 30240, Note_on_c, 0, 56, 0
3, 30240, Note_on_c, 0, 60, 0
3, 30240, Note_on_c, 0, 39, 55
3, 30251, Control_c, 0, 64, 0
3, 30409, Control_c, 0, 64, 127
3, 30720, Note_on_c, 0, 39, 0
3, 30720, Note_on_c, 0, 56, 27
3, 30720, Note_on_c, 0, 60, 32
3, 30720, Note_on_c, 0, 54, 27
3, 31200, Note_on_c, 0, 54, 0
3, 31200, Note_on_c, 0, 60, 0
3, 31200, Note_on_c, 0, 56, 0
3, 31200, Note_on_c, 0, 56, 34
3, 31200, Note_on_c, 0, 60, 37
3, 31200, Note_on_c, 0, 54, 34
3, 31680, Note_on_c, 0, 54, 0
3, 31680, Note_on_c, 0, 60, 0
3, 31680, Note_on_c, 0, 56, 0
3, 31680, Note_on_c, 0, 44, 56
3, 31691, Control_c, 0, 64, 0
3, 31754, Control_c, 0, 64, 127
3, 32010, Note_on_c, 0, 44, 0
3, 32010, Note_on_c, 0, 53, 29
3, 32040, Note_on_c, 0, 56, 36
3, 32070, Note_on_c, 0, 59, 44
3, 32490, Note_on_c, 0, 59, 0
3, 32490, Note_on_c, 0, 56, 0
3, 32490, Note_on_c, 0, 53, 0
3, 32490, Note_on_c, 0, 53, 33
3, 32520, Note_on_c, 0, 56, 39
3, 32550, Note_on_c, 0, 59, 45
3, 33120, Note_on_c, 0, 59, 0
3, 33120, Note_on_c, 0, 56, 0
3, 33120, Note_on_c, 0, 53, 0
3, 33120, Note_on_c, 0, 44, 59
3, 33132, Control_c, 0, 64, 0
3, 33387, Control_c, 0, 64, 127
3, 33600, Note_on_c, 0, 44, 0
3, 33600, Note_on_c, 0, 56, 22
3, 33600, Note_on_c, 0, 60, 25
3, 33600, Note_on_c, 0, 51, 22
3, 34080, Note_on_c, 0, 51, 0
3, 34080, Note_on_c, 0, 60, 0
3, 34080, Note_on_c, 0, 56, 0
3, 34080, Note_on_c, 0, 56, 22
3, 34080, Note_on_c, 0, 60, 25
3, 34080, Note_on_c, 0, 51, 22
3, 34560, Note_on_c, 0, 51, 0
3, 34560, Note_on_c, 0, 60, 0
3, 34560, Note_on_c, 0, 56, 0
3, 34560, Control_c, 0, 64, 0
3, 34560, Note_on_c, 0, 45, 37
3, 34720, Control_c, 0, 64, 127
3, 35040, Note_on_c, 0, 45, 0
3, 35040, Note_on_c, 0, 53, 31
3, 35040, Note_on_c, 0, 63, 36
3, 35040, Note_on_c, 0, 60, 31
3, 35520, Note_on_c, 0, 60, 0
3, 35520, Note_on_c, 0, 63, 0
3, 35520, Note_on_c, 0, 53, 0
3, 35520, Note_on_c, 0, 63, 30
3, 35520, Note_on_c, 0, 60, 27
3, 35520, Note_on_c, 0, 53, 27
3, 36000, Note_on_c, 0, 53, 0
3, 36000, Note_on_c, 0, 60, 0
3, 36000, Note_on_c, 0, 63, 0
3, 36000, Note_on_c, 0, 46, 37
3, 36013, Control_c, 0, 64, 0
3, 36149, Control_c, 0, 64, 127
3, 36480, Note_on_c, 0, 46, 0
3, 36480, Note_on_c, 0, 58, 31
3, 36480, Note_on_c, 0, 61, 36
3, 36480, Note_on_c, 0, 53, 31
3, 36960, Note_on_c, 0, 53, 0
3, 36960, Note_on_c, 0, 61, 0
3, 36960, Note_on_c, 0, 58, 0
3, 36960, Control_c, 0, 64, 0
3, 36960, Note_on_c, 0, 61, 30
3, 36960, Note_on_c, 0, 58, 27
3, 36960, Note_on_c, 0, 53, 27
3, 37440, Note_on_c, 0, 53, 0
3, 37440, Note_on_c, 0, 58, 0
3, 37440, Note_on_c, 0, 61, 0
3, 37440, Note_on_c, 0, 47, 42
3, 37600, Control_c, 0, 64, 127
3, 37920, Note_on_c, 0, 47, 0
3, 37920, Note_on_c, 0, 55, 33
3, 37920, Note_on_c, 0, 62, 33
3, 37920, Note_on_c, 0, 65, 37
3, 38400, Note_on_c, 0, 65, 0
3, 38400, Note_on_c, 0, 62, 0
3, 38400, Note_on_c, 0, 55, 0
3, 38400, Note_on_c, 0, 65, 31
3, 38400, Note_on_c, 0, 62, 28
3, 38400, Note_on_c, 0, 55, 28
3, 38880, Note_on_c, 0, 55, 0
3, 38880, Note_on_c, 0, 62, 0
3, 38880, Note_on_c, 0, 65, 0
3, 38880, Note_on_c, 0, 48, 38
3, 38896, Control_c, 0, 64, 0
3, 39029, Control_c, 0, 64, 127
3, 39360, Note_on_c, 0, 48, 0
3, 39360, Note_on_c, 0, 55, 33
3, 39360, Note_on_c, 0, 64, 37
3, 39360, Note_on_c, 0, 60, 33
3, 39840, Note_on_c, 0, 60, 0
3, 39840, Note_on_c, 0, 64, 0
3, 39840, Note_on_c, 0, 55, 0
3, 39840, Control_c, 0, 64, 0
3, 39840, Note_on_c, 0, 64, 31
3, 39840, Note_on_c, 0, 60, 28
3, 39840, Note_on_c, 0, 55, 28
3, 40320, Note_on_c, 0, 55, 0
3, 40320, Note_on_c, 0, 60, 0
3, 40320, Note_on_c, 0, 64, 0
3, 40320, Note_on_c, 0, 48, 44
3, 40469, Control_c, 0, 64, 127
3, 40800, Note_on_c, 0, 48, 0
3, 40800, Note_on_c, 0, 56, 37
3, 40800, Note_on_c, 0, 62, 42
3, 40800, Note_on_c, 0, 60, 37
3, 41280, Note_on_c, 0, 60, 0
3, 41280, Note_on_c, 0, 62, 0
3, 41280, Note_on_c, 0, 56, 0
3, 41280, Note_on_c, 0, 62, 36
3, 41280, Note_on_c, 0, 60, 31
3, 41280, Note_on_c, 0, 56, 31
3, 41760, Note_on_c, 0, 56, 0
3, 41760, Note_on_c, 0, 60, 0
3, 41760, Note_on_c, 0, 62, 0
3, 41760, Note_on_c, 0, 48, 45
3, 41773, Control_c, 0, 64, 0
3, 41965, Control_c, 0, 64, 127
3, 42240, Note_on_c, 0, 48, 0
3, 42240, Note_on_c, 0, 55, 26
3, 42240, Note_on_c, 0, 60, 26
3, 42240, Note_on_c, 0, 64, 29
3, 42720, Note_on_c, 0, 64, 0
3, 42720, Note_on_c, 0, 60, 0
3, 42720, Note_on_c, 0, 55, 0
3, 42720, Note_on_c, 0, 60, 35
3, 42720, Note_on_c, 0, 64, 38
3, 42720, Note_on_c, 0, 55, 35
3, 43200, Note_on_c, 0, 55, 0
3, 43200, Note_on_c, 0, 64, 0
3, 43200, Note_on_c, 0, 60, 0
3, 43200, Control_c, 0, 64, 0
3, 43200, Note_on_c, 0, 48, 46
3, 43451, Control_c, 0, 64, 127
3, 43680, Note_on_c, 0, 48, 0
3, 43680, Note_on_c, 0, 53, 39
3, 43680, Note_on_c, 0, 56, 39
3, 43680, Note_on_c, 0, 62, 45
3, 44160, Note_on_c, 0, 62, 0
3, 44160, Note_on_c, 0, 56, 0
3, 44160, Note_on_c, 0, 53, 0
3, 44160, Note_on_c, 0, 53, 29
3, 44160, Note_on_c, 0, 62, 34
3, 44160, Note_on_c, 0, 56, 29
3, 44640, Note_on_c, 0, 56, 0
3, 44640, Note_on_c, 0, 62, 0
3, 44640, Note_on_c, 0, 53, 0
3, 44640, Note_on_c, 0, 48, 46
3, 44656, Control_c, 0, 64, 0
3, 44907, Control_c, 0, 64, 127
3, 45120, Note_on_c, 0, 48, 0
3, 45120, Note_on_c, 0, 55, 27
3, 45120, Note_on_c, 0, 60, 30
3, 45600, Note_on_c, 0, 60, 0
3, 45600, Note_on_c, 0, 55, 0
3, 45600, Note_on_c, 0, 60, 42
3, 45600, Note_on_c, 0, 55, 37
3, 46080, Note_on_c, 0, 55, 0
3, 46080, Note_on_c, 0, 60, 0
3, 46080, Control_c, 0, 64, 0
3, 46080, Note_on_c, 0, 48, 45
3, 46262, Control_c, 0, 64, 127
3, 46560, Note_on_c, 0, 48, 0
3, 46560, Note_on_c, 0, 60, 39
3, 46560, Note_on_c, 0, 62, 45
3, 46560, Note_on_c, 0, 56, 39
3, 47040, Note_on_c, 0, 56, 0
3, 47040, Note_on_c, 0, 62, 0
3, 47040, Note_on_c, 0, 60, 0
3, 47040, Note_on_c, 0, 62, 39
3, 47040, Note_on_c, 0, 60, 35
3, 47040, Note_on_c, 0, 56, 35
3, 47520, Note_on_c, 0, 56, 0
3, 47520, Note_on_c, 0, 60, 0
3, 47520, Note_on_c, 0, 62, 0
3, 47520, Note_on_c, 0, 48, 44
3, 47540, Control_c, 0, 64, 0
3, 47771, Control_c, 0, 64, 127
3, 48000, Note_on_c, 0, 48, 0
3, 48000, Note_on_c, 0, 60, 35
3, 48000, Note_on_c, 0, 64, 38
3, 48000, Note_on_c, 0, 55, 35
3, 48480, Note_on_c, 0, 55, 0
3, 48480, Note_on_c, 0, 64, 0
3, 48480, Note_on_c, 0, 60, 0
3, 48480, Note_on_c, 0, 60, 38
3, 48480, Note_on_c, 0, 64, 43
3, 48480, Note_on_c, 0, 55, 38
3, 48960, Note_on_c, 0, 55, 0
3, 48960, Note_on_c, 0, 64, 0
3, 48960, Note_on_c, 0, 60, 0
3, 48960, Note_on_c, 0, 48, 44
3, 48973, Control_c, 0, 64, 0
3, 49109, Control_c, 0, 64, 127
3, 49440, Note_on_c, 0, 48, 0
3, 49440, Note_on_c, 0, 53, 35
3, 49440, Note_on_c, 0, 62, 39
3, 49440, Note_on_c, 0, 56, 35
3, 49920, Note_on_c, 0, 56, 0
3, 49920, Note_on_c, 0, 62, 0
3, 49920, Note_on_c, 0, 53, 0
3, 49920, Note_on_c, 0, 62, 36
3, 49920, Note_on_c, 0, 56, 31
3, 49920, Note_on_c, 0, 53, 31
3, 50400, Note_on_c, 0, 53, 0
3, 50400, Note_on_c, 0, 56, 0
3, 50400, Note_on_c, 0, 62, 0
3, 50400, Note_on_c, 0, 48, 44
3, 50408, Control_c, 0, 64, 0
3, 50651, Control_c, 0, 64, 127
3, 50880, Note_on_c, 0, 48, 0
3, 50880, Note_on_c, 0, 60, 29
3, 50880, Note_on_c, 0, 64, 34
3, 50880, Note_on_c, 0, 55, 29
3, 51360, Note_on_c, 0, 55, 0
3, 51360, Note_on_c, 0, 64, 0
3, 51360, Note_on_c, 0, 60, 0
3, 51840, Note_on_c, 0, 48, 44
3, 51848, Control_c, 0, 64, 0
3, 51989, Control_c, 0, 64, 127
3, 52320, Note_on_c, 0, 48, 0
3, 52320, Note_on_c, 0, 55, 29
3, 52320, Note_on_c, 0, 64, 34
3, 52320, Note_on_c, 0, 60, 29
3, 52800, Note_on_c, 0, 60, 0
3, 52800, Note_on_c, 0, 64, 0
3, 52800, Note_on_c, 0, 55, 0
3, 53280, Note_on_c, 0, 48, 44
3, 53289, Control_c, 0, 64, 0
3, 53429, Control_c, 0, 64, 127
3, 53760, Note_on_c, 0, 48, 0
3, 53760, Note_on_c, 0, 60, 29
3, 53760, Note_on_c, 0, 64, 34
3, 53760, Note_on_c, 0, 55, 29
3, 54240, Note_on_c, 0, 55, 0
3, 54240, Note_on_c, 0, 64, 0
3, 54240, Note_on_c, 0, 60, 0
3, 54256, Control_c, 0, 64, 0
3, 54366, Control_c, 0, 64, 127
3, 55215, Control_c, 0, 64, 0
3, 55383, Control_c, 0, 64, 127
3, 56160, Control_c, 0, 64, 0
3, 56160, Note_on_c, 0, 58, 44
3, 56286, Control_c, 0, 64, 127
3, 56640, Note_on_c, 0, 58, 0
3, 56640, Note_on_c, 0, 61, 33
3, 56640, Note_on_c, 0, 65, 37
3, 57120, Note_on_c, 0, 65, 0
3, 57120, Note_on_c, 0, 61, 0
3, 57120, Note_on_c, 0, 61, 34
3, 57120, Note_on_c, 0, 65, 38
3, 57600, Note_on_c, 0, 65, 0
3, 57600, Note_on_c, 0, 61, 0
3, 57600, Control_c, 0, 64, 0
3, 57600, Note_on_c, 0, 56, 46
3, 57737, Control_c, 0, 64, 127
3, 58080, Note_on_c, 0, 56, 0
3, 58080, Note_on_c, 0, 65, 38
3, 58080, Note_on_c, 0, 61, 34
3, 58080, Note_on_c, 0, 58, 34
3, 58560, Note_on_c, 0, 58, 0
3, 58560, Note_on_c, 0, 61, 0
3, 58560, Note_on_c, 0, 65, 0
3, 58560, Note_on_c, 0, 65, 39
3, 58560, Note_on_c, 0, 61, 35
3, 58560, Note_on_c, 0, 58, 35
3, 59040, Note_on_c, 0, 58, 0
3, 59040, Note_on_c, 0, 61, 0
3, 59040, Note_on_c, 0, 65, 0
3, 59040, Note_on_c, 0, 55, 49
3, 59050, Control_c, 0, 64, 0
3, 59177, Control_c, 0, 64, 127
3, 59520, Note_on_c, 0, 55, 0
3, 59520, Note_on_c, 0, 62, 36
3, 59520, Note_on_c, 0, 59, 36
3, 59520, Note_on_c, 0, 65, 40
3, 60000, Note_on_c, 0, 65, 0
3, 60000, Note_on_c, 0, 59, 0
3, 60000, Note_on_c, 0, 62, 0
3, 60000, Note_on_c, 0, 65, 41
3, 60000, Note_on_c, 0, 62, 36
3, 60000, Note_on_c, 0, 59, 36
3, 60480, Note_on_c, 0, 59, 0
3, 60480, Note_on_c, 0, 62, 0
3, 60480, Note_on_c, 0, 65, 0
3, 60480, Control_c, 0, 64, 0
3, 60480, Note_on_c, 0, 48, 55
3, 60663, Control_c, 0, 64, 127
3, 60960, Note_on_c, 0, 48, 0
3, 60960, Note_on_c, 0, 67, 44
3, 60960, Note_on_c, 0, 60, 44
3, 60960, Note_on_c, 0, 55, 44
3, 61440, Note_on_c, 0, 55, 0
3, 61440, Note_on_c, 0, 60, 0
3, 61440, Note_on_c, 0, 67, 0
3, 61440, Note_on_c, 0, 60, 49
3, 61440, Note_on_c, 0, 55, 49
3, 61440, Note_on_c, 0, 67, 49
3, 61920, Note_on_c, 0, 67, 0
3, 61920, Note_on_c, 0, 55, 0
3, 61920, Note_on_c, 0, 60, 0
3, 61920, Note_on_c, 0, 53, 49
3, 61932, Control_c, 0, 64, 0
3, 62057, Control_c, 0, 64, 127
3, 62400, Note_on_c, 0, 53, 0
3, 62400, Note_on_c, 0, 65, 40
3, 62400, Note_on_c, 0, 60, 36
3, 62400, Note_on_c, 0, 57, 36
3, 62880, Note_on_c, 0, 57, 0
3, 62880, Note_on_c, 0, 60, 0
3, 62880, Note_on_c, 0, 65, 0
3, 62880, Note_on_c, 0, 65, 41
3, 62880, Note_on_c, 0, 60, 36
3, 62880, Note_on_c, 0, 57, 36
3, 63360, Note_on_c, 0, 57, 0
3, 63360, Note_on_c, 0, 60, 0
3, 63360, Note_on_c, 0, 65, 0
3, 63360, Note_on_c, 0, 46, 52
3, 63373, Control_c, 0, 64, 0
3, 63543, Control_c, 0, 64, 127
3, 63840, Note_on_c, 0, 46, 0
3, 63840, Note_on_c, 0, 61, 39
3, 63840, Note_on_c, 0, 58, 39
3, 63840, Note_on_c, 0, 65, 39
3, 64320, Note_on_c, 0, 65, 0
3, 64320, Note_on_c, 0, 58, 0
3, 64320, Note_on_c, 0, 61, 0
3, 64320, Note_on_c, 0, 61, 44
3, 64320, Note_on_c, 0, 58, 44
3, 64320, Note_on_c, 0, 65, 44
3, 64800, Note_on_c, 0, 65, 0
3, 64800, Note_on_c, 0, 58, 0
3, 64800, Note_on_c, 0, 61, 0
3, 64800, Note_on_c, 0, 49, 48
3, 64811, Control_c, 0, 64, 0
3, 64983, Control_c, 0, 64, 127
3, 65280, Note_on_c, 0, 49, 0
3, 65280, Note_on_c, 0, 65, 39
3, 65280, Note_on_c, 0, 58, 39
3, 65280, Note_on_c, 0, 61, 39
3, 65760, Note_on_c, 0, 61, 0
3, 65760, Note_on_c, 0, 58, 0
3, 65760, Note_on_c, 0, 65, 0
3, 65760, Note_on_c, 0, 65, 39
3, 65760, Note_on_c, 0, 58, 39
3, 65760, Note_on_c, 0, 61, 39
3, 66240, Note_on_c, 0, 61, 0
3, 66240, Note_on_c, 0, 58, 0
3, 66240, Note_on_c, 0, 65, 0
3, 66240, Note_on_c, 0, 51, 48
3, 66253, Control_c, 0, 64, 0
3, 66343, Control_c, 0, 64, 127
3, 66720, Note_on_c, 0, 51, 0
3, 66720, Note_on_c, 0, 61, 35
3, 66720, Note_on_c, 0, 63, 39
3, 66720, Note_on_c, 0, 58, 35
3, 67200, Note_on_c, 0, 58, 0
3, 67200, Note_on_c, 0, 63, 0
3, 67200, Note_on_c, 0, 61, 0
3, 67200, Note_on_c, 0, 61, 36
3, 67200, Note_on_c, 0, 63, 40
3, 67200, Note_on_c, 0, 58, 36
3, 67680, Note_on_c, 0, 58, 0
3, 67680, Note_on_c, 0, 63, 0
3, 67680, Note_on_c, 0, 61, 0
3, 67680, Note_on_c, 0, 58, 45
3, 67692, Control_c, 0, 64, 0
3, 67806, Control_c, 0, 64, 127
3, 68160, Note_on_c, 0, 58, 0
3, 68160, Note_on_c, 0, 65, 38
3, 68160, Note_on_c, 0, 61, 34
3, 68640, Note_on_c, 0, 61, 0
3, 68640, Note_on_c, 0, 65, 0
3, 68640, Note_on_c, 0, 61, 35
3, 68640, Note_on_c, 0, 65, 39
3, 69120, Note_on_c, 0, 65, 0
3, 69120, Note_on_c, 0, 61, 0
3, 69120, Note_on_c, 0, 56, 48
3, 69132, Control_c, 0, 64, 0
3, 69257, Control_c, 0, 64, 127
3, 69600, Note_on_c, 0, 56, 0
3, 69600, Note_on_c, 0, 61, 36
3, 69600, Note_on_c, 0, 58, 36
3, 69600, Note_on_c, 0, 65, 40
3, 70080, Note_on_c, 0, 65, 0
3, 70080, Note_on_c, 0, 58, 0
3, 70080, Note_on_c, 0, 61, 0
3, 70080, Note_on_c, 0, 61, 37
3, 70080, Note_on_c, 0, 58, 37
3, 70080, Note_on_c, 0, 65, 41
3, 70560, Note_on_c, 0, 65, 0
3, 70560, Note_on_c, 0, 58, 0
3, 70560, Note_on_c, 0, 61, 0
3, 70560, Note_on_c, 0, 55, 52
3, 70569, Control_c, 0, 64, 0
3, 70697, Control_c, 0, 64, 127
3, 71040, Note_on_c, 0, 55, 0
3, 71040, Note_on_c, 0, 65, 43
3, 71040, Note_on_c, 0, 59, 39
3, 71040, Note_on_c, 0, 62, 39
3, 71520, Note_on_c, 0, 62, 0
3, 71520, Note_on_c, 0, 59, 0
3, 71520, Note_on_c, 0, 65, 0
3, 71520, Note_on_c, 0, 62, 39
3, 71520, Note_on_c, 0, 59, 39
3, 71520, Note_on_c, 0, 65, 44
3, 72000, Note_on_c, 0, 65, 0
3, 72000, Note_on_c, 0, 59, 0
3, 72000, Note_on_c, 0, 62, 0
3, 72000, Note_on_c, 0, 48, 58
3, 72010, Control_c, 0, 64, 0
3, 72183, Control_c, 0, 64, 127
3, 72480, Note_on_c, 0, 48, 0
3, 72480, Note_on_c, 0, 60, 49
3, 72480, Note_on_c, 0, 55, 49
3, 72480, Note_on_c, 0, 67, 49
3, 72960, Note_on_c, 0, 67, 0
3, 72960, Note_on_c, 0, 55, 0
3, 72960, Note_on_c, 0, 60, 0
3, 72960, Note_on_c, 0, 67, 49
3, 72960, Note_on_c, 0, 60, 49
3, 72960, Note_on_c, 0, 55, 49
3, 73440, Note_on_c, 0, 55, 0
3, 73440, Note_on_c, 0, 60, 0
3, 73440, Note_on_c, 0, 67, 0
3, 73440, Note_on_c, 0, 53, 49
3, 73450, Control_c, 0, 64, 0
3, 73577, Control_c, 0, 64, 127
3, 73920, Note_on_c, 0, 53, 0
3, 73920, Note_on_c, 0, 60, 36
3, 73920, Note_on_c, 0, 57, 36
3, 73920, Note_on_c, 0, 65, 40
3, 74400, Note_on_c, 0, 65, 0
3, 74400, Note_on_c, 0, 57, 0
3, 74400, Note_on_c, 0, 60, 0
3, 74400, Note_on_c, 0, 65, 41
3, 74400, Note_on_c, 0, 60, 36
3, 74400, Note_on_c, 0, 57, 36
3, 74880, Note_on_c, 0, 57, 0
3, 74880, Note_on_c, 0, 60, 0
3, 74880, Note_on_c, 0, 65, 0
3, 74880, Note_on_c, 0, 46, 52
3, 74892, Control_c, 0, 64, 0
3, 75063, Control_c, 0, 64, 127
3, 75360, Note_on_c, 0, 46, 0
3, 75360, Note_on_c, 0, 61, 39
3, 75360, Note_on_c, 0, 58, 39
3, 75360, Note_on_c, 0, 65, 39
3, 75840, Note_on_c, 0, 65, 0
3, 75840, Note_on_c, 0, 58, 0
3, 75840, Note_on_c, 0, 61, 0
3, 75840, Note_on_c, 0, 61, 44
3, 75840, Note_on_c, 0, 58, 44
3, 75840, Note_on_c, 0, 65, 44
3, 76320, Note_on_c, 0, 65, 0
3, 76320, Note_on_c, 0, 58, 0
3, 76320, Note_on_c, 0, 61, 0
3, 76320, Note_on_c, 0, 49, 48
3, 76331, Control_c, 0, 64, 0
3, 76503, Control_c, 0, 64, 127
3, 76800, Note_on_c, 0, 49, 0
3, 76800, Note_on_c, 0, 65, 39
3, 76800, Note_on_c, 0, 58, 39
3, 76800, Note_on_c, 0, 61, 39
3, 77280, Note_on_c, 0, 61, 0
3, 77280, Note_on_c, 0, 58, 0
3, 77280, Note_on_c, 0, 65, 0
3, 77280, Note_on_c, 0, 61, 39
3, 77280, Note_on_c, 0, 58, 39
3, 77280, Note_on_c, 0, 65, 39
3, 77760, Note_on_c, 0, 65, 0
3, 77760, Note_on_c, 0, 58, 0
3, 77760, Note_on_c, 0, 61, 0
3, 77760, Note_on_c, 0, 51, 45
3, 77771, Control_c, 0, 64, 0
3, 77943, Control_c, 0, 64, 127
3, 78240, Note_on_c, 0, 51, 0
3, 78240, Note_on_c, 0, 61, 37
3, 78240, Note_on_c, 0, 58, 37
3, 78240, Note_on_c, 0, 63, 37
3, 78720, Note_on_c, 0, 63, 0
3, 78720, Note_on_c, 0, 58, 0
3, 78720, Note_on_c, 0, 61, 0
3, 78720, Note_on_c, 0, 63, 37
3, 78720, Note_on_c, 0, 58, 37
3, 78720, Note_on_c, 0, 61, 37
3, 79029, Control_c, 0, 64, 0
3, 79200, Note_on_c, 0, 61, 0
3, 79200, Note_on_c, 0, 58, 0
3, 79200, Note_on_c, 0, 63, 0
3, 79200, Note_on_c, 0, 44, 37
3, 79413, Control_c, 0, 64, 127
3, 79680, Note_on_c, 0, 44, 0
3, 79680, Note_on_c, 0, 51, 27
3, 79680, Note_on_c, 0, 56, 27
3, 79680, Note_on_c, 0, 60, 32
3, 80160, Note_on_c, 0, 60, 0
3, 80160, Note_on_c, 0, 56, 0
3, 80160, Note_on_c, 0, 51, 0
3, 80160, Note_on_c, 0, 51, 24
3, 80160, Note_on_c, 0, 60, 27
3, 80160, Note_on_c, 0, 56, 24
3, 80640, Note_on_c, 0, 56, 0
3, 80640, Note_on_c, 0, 60, 0
3, 80640, Note_on_c, 0, 51, 0
3, 80640, Note_on_c, 0, 39, 44
3, 80655, Control_c, 0, 64, 0
3, 80827, Control_c, 0, 64, 127
3, 81120, Note_on_c, 0, 39, 0
3, 81120, Note_on_c, 0, 51, 19
3, 81120, Note_on_c, 0, 56, 19
3, 81120, Note_on_c, 0, 60, 22
3, 81600, Note_on_c, 0, 60, 0
3, 81600, Note_on_c, 0, 56, 0
3, 81600, Note_on_c, 0, 51, 0
3, 81600, Note_on_c, 0, 51, 26
3, 81600, Note_on_c, 0, 56, 26
3, 81600, Note_on_c, 0, 60, 29
3, 82080, Note_on_c, 0, 60, 0
3, 82080, Note_on_c, 0, 56, 0
3, 82080, Note_on_c, 0, 51, 0
3, 82080, Control_c, 0, 64, 0
3, 82080, Note_on_c, 0, 46, 39
3, 82320, Control_c, 0, 64, 127
3, 82560, Note_on_c, 0, 46, 0
3, 82560, Note_on_c, 0, 51, 30
3, 82560, Note_on_c, 0, 61, 34
3, 82560, Note_on_c, 0, 55, 30
3, 83040, Note_on_c, 0, 55, 0
3, 83040, Note_on_c, 0, 61, 0
3, 83040, Note_on_c, 0, 51, 0
3, 83040, Note_on_c, 0, 51, 22
3, 83040, Note_on_c, 0, 61, 25
3, 83040, Note_on_c, 0, 55, 22
3, 83520, Note_on_c, 0, 55, 0
3, 83520, Note_on_c, 0, 61, 0
3, 83520, Note_on_c, 0, 51, 0
3, 83520, Note_on_c, 0, 39, 39
3, 83535, Control_c, 0, 64, 0
3, 83787, Control_c, 0, 64, 127
3, 84000, Note_on_c, 0, 39, 0
3, 84000, Note_on_c, 0, 61, 23
3, 84000, Note_on_c, 0, 51, 20
3, 84000, Note_on_c, 0, 55, 20
3, 84480, Note_on_c, 0, 55, 0
3, 84480, Note_on_c, 0, 51, 0
3, 84480, Note_on_c, 0, 61, 0
3, 84480, Note_on_c, 0, 61, 32
3, 84480, Note_on_c, 0, 51, 27
3, 84480, Note_on_c, 0, 55, 27
3, 84960, Note_on_c, 0, 55, 0
3, 84960, Note_on_c, 0, 51, 0
3, 84960, Note_on_c, 0, 61, 0
3, 84960, Note_on_c, 0, 44, 51
3, 84967, Control_c, 0, 64, 0
3, 85226, Control_c, 0, 64, 127
3, 85440, Note_on_c, 0, 44, 0
3, 85440, Note_on_c, 0, 51, 33
3, 85440, Note_on_c, 0, 56, 33
3, 85440, Note_on_c, 0, 60, 36
3, 85920, Note_on_c, 0, 60, 0
3, 85920, Note_on_c, 0, 56, 0
3, 85920, Note_on_c, 0, 51, 0
3, 85920, Note_on_c, 0, 51, 27
3, 85920, Note_on_c, 0, 60, 33
3, 85920, Note_on_c, 0, 56, 27
3, 86400, Note_on_c, 0, 56, 0
3, 86400, Note_on_c, 0, 60, 0
3, 86400, Note_on_c, 0, 51, 0
3, 86400, Note_on_c, 0, 39, 59
3, 86420, Control_c, 0, 64, 0
3, 86502, Control_c, 0, 64, 127
3, 86880, Note_on_c, 0, 39, 0
3, 86880, Note_on_c, 0, 54, 27
3, 86880, Note_on_c, 0, 56, 27
3, 86880, Note_on_c, 0, 60, 32
3, 87360, Note_on_c, 0, 60, 0
3, 87360, Note_on_c, 0, 56, 0
3, 87360, Note_on_c, 0, 54, 0
3, 87360, Note_on_c, 0, 54, 34
3, 87360, Note_on_c, 0, 56, 34
3, 87360, Note_on_c, 0, 60, 37
3, 87840, Note_on_c, 0, 60, 0
3, 87840, Note_on_c, 0, 56, 0
3, 87840, Note_on_c, 0, 54, 0
3, 87840, Note_on_c, 0, 44, 52
3, 87850, Control_c, 0, 64, 0
3, 87920, Control_c, 0, 64, 127
3, 88170, Note_on_c, 0, 44, 0
3, 88170, Note_on_c, 0, 53, 31
3, 88200, Note_on_c, 0, 56, 37
3, 88230, Note_on_c, 0, 59, 44
3, 88650, Note_on_c, 0, 59, 0
3, 88650, Note_on_c, 0, 56, 0
3, 88650, Note_on_c, 0, 53, 0
3, 88650, Note_on_c, 0, 53, 33
3, 88680, Note_on_c, 0, 56, 40
3, 88710, Note_on_c, 0, 59, 45
3, 89280, Note_on_c, 0, 59, 0
3, 89280, Note_on_c, 0, 56, 0
3, 89280, Note_on_c, 0, 53, 0
3, 89280, Note_on_c, 0, 44, 57
3, 89292, Control_c, 0, 64, 0
3, 89547, Control_c, 0, 64, 127
3, 89760, Note_on_c, 0, 44, 0
3, 89760, Note_on_c, 0, 51, 22
3, 89760, Note_on_c, 0, 56, 22
3, 89760, Note_on_c, 0, 60, 25
3, 90240, Note_on_c, 0, 60, 0
3, 90240, Note_on_c, 0, 56, 0
3, 90240, Note_on_c, 0, 51, 0
3, 90240, Note_on_c, 0, 51, 22
3, 90240, Note_on_c, 0, 56, 22
3, 90240, Note_on_c, 0, 60, 25
3, 90720, Note_on_c, 0, 60, 0
3, 90720, Note_on_c, 0, 56, 0
3, 90720, Note_on_c, 0, 51, 0
3, 90720, Control_c, 0, 64, 0
3, 90720, Note_on_c, 0, 45, 37
3, 90880, Control_c, 0, 64, 127
3, 91200, Note_on_c, 0, 45, 0
3, 91200, Note_on_c, 0, 53, 31
3, 91200, Note_on_c, 0, 60, 31
3, 91200, Note_on_c, 0, 63, 36
3, 91680, Note_on_c, 0, 63, 0
3, 91680, Note_on_c, 0, 60, 0
3, 91680, Note_on_c, 0, 53, 0
3, 91680, Note_on_c, 0, 53, 27
3, 91680, Note_on_c, 0, 63, 30
3, 91680, Note_on_c, 0, 60, 27
3, 92160, Note_on_c, 0, 60, 0
3, 92160, Note_on_c, 0, 63, 0
3, 92160, Note_on_c, 0, 53, 0
3, 92160, Note_on_c, 0, 46, 37
3, 92179, Control_c, 0, 64, 0
3, 92372, Control_c, 0, 64, 127
3, 92640, Note_on_c, 0, 46, 0
3, 92640, Note_on_c, 0, 53, 31
3, 92640, Note_on_c, 0, 58, 31
3, 92640, Note_on_c, 0, 61, 36
3, 93120, Note_on_c, 0, 61, 0
3, 93120, Note_on_c, 0, 58, 0
3, 93120, Note_on_c, 0, 53, 0
3, 93120, Note_on_c, 0, 53, 27
3, 93120, Note_on_c, 0, 61, 30
3, 93120, Note_on_c, 0, 58, 27
3, 93600, Note_on_c, 0, 58, 0
3, 93600, Note_on_c, 0, 61, 0
3, 93600, Note_on_c, 0, 53, 0
3, 93600, Note_on_c, 0, 43, 37
3, 93606, Control_c, 0, 64, 0
3, 93760, Control_c, 0, 64, 127
3, 94080, Note_on_c, 0, 43, 0
3, 94080, Note_on_c, 0, 51, 31
3, 94080, Note_on_c, 0, 58, 31
3, 94080, Note_on_c, 0, 61, 36
3, 94560, Note_on_c, 0, 61, 0
3, 94560, Note_on_c, 0, 58, 0
3, 94560, Note_on_c, 0, 51, 0
3, 94560, Note_on_c, 0, 51, 27
3, 94560, Note_on_c, 0, 61, 30
3, 94560, Note_on_c, 0, 58, 27
3, 95040, Note_on_c, 0, 58, 0
3, 95040, Note_on_c, 0, 61, 0
3, 95040, Note_on_c, 0, 51, 0
3, 95040, Note_on_c, 0, 44, 37
3, 95049, Control_c, 0, 64, 0
3, 95294, Control_c, 0, 64, 127
3, 95520, Note_on_c, 0, 44, 0
3, 95520, Note_on_c, 0, 51, 31
3, 95520, Note_on_c, 0, 56, 31
3, 95520, Note_on_c, 0, 60, 36
3, 96000, Note_on_c, 0, 60, 0
3, 96000, Note_on_c, 0, 56, 0
3, 96000, Note_on_c, 0, 51, 0
3, 96000, Note_on_c, 0, 51, 27
3, 96000, Note_on_c, 0, 60, 30
3, 96000, Note_on_c, 0, 56, 27
3, 96480, Note_on_c, 0, 56, 0
3, 96480, Note_on_c, 0, 60, 0
3, 96480, Note_on_c, 0, 51, 0
3, 96480, Note_on_c, 0, 42, 37
3, 96486, Control_c, 0, 64, 0
3, 96594, Control_c, 0, 64, 127
3, 96960, Note_on_c, 0, 42, 0
3, 96960, Note_on_c, 0, 54, 31
3, 96960, Note_on_c, 0, 56, 36
3, 97440, Note_on_c, 0, 56, 0
3, 97440, Note_on_c, 0, 54, 0
3, 97440, Note_on_c, 0, 56, 30
3, 97440, Note_on_c, 0, 54, 27
3, 97920, Note_on_c, 0, 54, 0
3, 97920, Note_on_c, 0, 56, 0
3, 97920, Note_on_c, 0, 41, 44
3, 97923, Control_c, 0, 64, 0
3, 98240, Control_c, 0, 64, 127
3, 98400, Note_on_c, 0, 41, 0
3, 98400, Note_on_c, 0, 53, 25
3, 98400, Note_on_c, 0, 56, 28
3, 98880, Note_on_c, 0, 56, 0
3, 98880, Note_on_c, 0, 53, 0
3, 98880, Note_on_c, 0, 53, 29
3, 98880, Note_on_c, 0, 56, 33
3, 99360, Note_on_c, 0, 56, 0
3, 99360, Note_on_c, 0, 53, 0
3, 99360, Note_on_c, 0, 40, 37
3, 99370, Control_c, 0, 64, 0
3, 99509, Control_c, 0, 64, 127
3, 99840, Note_on_c, 0, 40, 0
3, 99840, Note_on_c, 0, 52, 31
3, 99840, Note_on_c, 0, 56, 36
3, 100320, Note_on_c, 0, 56, 0
3, 100320, Note_on_c, 0, 52, 0
3, 100320, Note_on_c, 0, 52, 27
3, 100320, Note_on_c, 0, 56, 30
3, 100800, Note_on_c, 0, 56, 0
3, 100800, Note_on_c, 0, 52, 0
3, 100800, Note_on_c, 0, 39, 37
3, 100808, Control_c, 0, 64, 0
3, 100982, Control_c, 0, 64, 127
3, 101280, Note_on_c, 0, 39, 0
3, 101280, Note_on_c, 0, 51, 29
3, 101280, Note_on_c, 0, 58, 34
3, 101760, Note_on_c, 0, 58, 0
3, 101760, Note_on_c, 0, 51, 0
3, 101760, Note_on_c, 0, 58, 28
3, 101760, Note_on_c, 0, 51, 25
3, 102240, Note_on_c, 0, 51, 0
3, 102240, Note_on_c, 0, 58, 0
3, 102240, Control_c, 0, 64, 0
3, 102240, Note_on_c, 0, 44, 37
3, 102560, Control_c, 0, 64, 127
3, 102720, Note_on_c, 0, 44, 0
3, 102720, Note_on_c, 0, 51, 27
3, 102720, Note_on_c, 0, 56, 27
3, 102720, Note_on_c, 0, 60, 32
3, 103200, Note_on_c, 0, 60, 0
3, 103200, Note_on_c, 0, 56, 0
3, 103200, Note_on_c, 0, 51, 0
3, 103200, Note_on_c, 0, 51, 24
3, 103200, Note_on_c, 0, 60, 27
3, 103200, Note_on_c, 0, 56, 24
3, 103680, Note_on_c, 0, 56, 0
3, 103680, Note_on_c, 0, 60, 0
3, 103680, Note_on_c, 0, 51, 0
3, 103680, Note_on_c, 0, 39, 44
3, 103693, Control_c, 0, 64, 0
3, 103920, Control_c, 0, 64, 127
3, 104160, Note_on_c, 0, 39, 0
3, 104160, Note_on_c, 0, 51, 19
3, 104160, Note_on_c, 0, 56, 19
3, 104160, Note_on_c, 0, 60, 22
3, 104640, Note_on_c, 0, 60, 0
3, 104640, Note_on_c, 0, 56, 0
3, 104640, Note_on_c, 0, 51, 0
3, 104640, Note_on_c, 0, 51, 26
3, 104640, Note_on_c, 0, 56, 26
3, 104640, Note_on_c, 0, 60, 29
3, 105120, Note_on_c, 0, 60, 0
3, 105120, Note_on_c, 0, 56, 0
3, 105120, Note_on_c, 0, 51, 0
3, 105120, Note_on_c, 0, 46, 39
3, 105126, Control_c, 0, 64, 0
3, 105387, Control_c, 0, 64, 127
3, 105600, Note_on_c, 0, 46, 0
3, 105600, Note_on_c, 0, 51, 30
3, 105600, Note_on_c, 0, 61, 34
3, 105600, Note_on_c, 0, 55, 30
3, 106080, Note_on_c, 0, 55, 0
3, 106080, Note_on_c, 0, 61, 0
3, 106080, Note_on_c, 0, 51, 0
3, 106080, Note_on_c, 0, 51, 22
3, 106080, Note_on_c, 0, 61, 25
3, 106080, Note_on_c, 0, 55, 22
3, 106560, Note_on_c, 0, 55, 0
3, 106560, Note_on_c, 0, 61, 0
3, 106560, Note_on_c, 0, 51, 0
3, 106560, Note_on_c, 0, 39, 39
3, 106573, Control_c, 0, 64, 0
3, 106827, Control_c, 0, 64, 127
3, 107040, Note_on_c, 0, 39, 0
3, 107040, Note_on_c, 0, 61, 23
3, 107040, Note_on_c, 0, 51, 20
3, 107040, Note_on_c, 0, 55, 20
3, 107520, Note_on_c, 0, 55, 0
3, 107520, Note_on_c, 0, 51, 0
3, 107520, Note_on_c, 0, 61, 0
3, 107520, Note_on_c, 0, 61, 32
3, 107520, Note_on_c, 0, 51, 27
3, 107520, Note_on_c, 0, 55, 27
3, 108000, Note_on_c, 0, 55, 0
3, 108000, Note_on_c, 0, 51, 0
3, 108000, Note_on_c, 0, 61, 0
3, 108000, Note_on_c, 0, 44, 38
3, 108008, Control_c, 0, 64, 0
3, 108347, Control_c, 0, 64, 127
3, 108480, Note_on_c, 0, 44, 0
3, 108480, Note_on_c, 0, 51, 30
3, 108480, Note_on_c, 0, 56, 30
3, 108480, Note_on_c, 0, 60, 34
3, 108960, Note_on_c, 0, 60, 0
3, 108960, Note_on_c, 0, 56, 0
3, 108960, Note_on_c, 0, 51, 0
3, 108960, Note_on_c, 0, 51, 26
3, 108960, Note_on_c, 0, 60, 30
3, 108960, Note_on_c, 0, 56, 26
3, 109440, Note_on_c, 0, 56, 0
3, 109440, Note_on_c, 0, 60, 0
3, 109440, Note_on_c, 0, 51, 0
3, 109440, Note_on_c, 0, 39, 55
3, 109450, Control_c, 0, 64, 0
3, 109539, Control_c, 0, 64, 127
3, 109920, Note_on_c, 0, 39, 0
3, 109920, Note_on_c, 0, 54, 27
3, 109920, Note_on_c, 0, 56, 27
3, 109920, Note_on_c, 0, 60, 32
3, 110400, Note_on_c, 0, 60, 0
3, 110400, Note_on_c, 0, 56, 0
3, 110400, Note_on_c, 0, 54, 0
3, 110400, Note_on_c, 0, 54, 34
3, 110400, Note_on_c, 0, 56, 34
3, 110400, Note_on_c, 0, 60, 37
3, 110880, Note_on_c, 0, 60, 0
3, 110880, Note_on_c, 0, 56, 0
3, 110880, Note_on_c, 0, 54, 0
3, 110880, Note_on_c, 0, 44, 57
3, 110889, Control_c, 0, 64, 0
3, 110946, Control_c, 0, 64, 127
3, 111210, Note_on_c, 0, 44, 0
3, 111210, Note_on_c, 0, 53, 29
3, 111240, Note_on_c, 0, 56, 36
3, 111270, Note_on_c, 0, 59, 44
3, 111690, Note_on_c, 0, 59, 0
3, 111690, Note_on_c, 0, 56, 0
3, 111690, Note_on_c, 0, 53, 0
3, 111690, Note_on_c, 0, 53, 33
3, 111720, Note_on_c, 0, 56, 39
3, 111750, Note_on_c, 0, 59, 45
3, 112320, Note_on_c, 0, 59, 0
3, 112320, Note_on_c, 0, 56, 0
3, 112320, Note_on_c, 0, 53, 0
3, 112320, Note_on_c, 0, 44, 63
3, 112327, Control_c, 0, 64, 0
3, 112720, Control_c, 0, 64, 127
3, 112800, Note_on_c, 0, 44, 0
3, 112800, Note_on_c, 0, 51, 22
3, 112800, Note_on_c, 0, 56, 22
3, 112800, Note_on_c, 0, 60, 25
3, 113280, Note_on_c, 0, 60, 0
3, 113280, Note_on_c, 0, 56, 0
3, 113280, Note_on_c, 0, 51, 0
3, 113280, Note_on_c, 0, 51, 22
3, 113280, Note_on_c, 0, 56, 22
3, 113280, Note_on_c, 0, 60, 25
3, 113760, Note_on_c, 0, 60, 0
3, 113760, Note_on_c, 0, 56, 0
3, 113760, Note_on_c, 0, 51, 0
3, 113760, Note_on_c, 0, 45, 37
3, 113765, Control_c, 0, 64, 0
3, 113920, Control_c, 0, 64, 127
3, 114240, Note_on_c, 0, 45, 0
3, 114240, Note_on_c, 0, 53, 31
3, 114240, Note_on_c, 0, 60, 31
3, 114240, Note_on_c, 0, 63, 36
3, 114720, Note_on_c, 0, 63, 0
3, 114720, Note_on_c, 0, 60, 0
3, 114720, Note_on_c, 0, 53, 0
3, 114720, Note_on_c, 0, 53, 27
3, 114720, Note_on_c, 0, 63, 30
3, 114720, Note_on_c, 0, 60, 27
3, 115200, Note_on_c, 0, 60, 0
3, 115200, Note_on_c, 0, 63, 0
3, 115200, Note_on_c, 0, 53, 0
3, 115200, Note_on_c, 0, 46, 37
3, 115209, Control_c, 0, 64, 0
3, 115349, Control_c, 0, 64, 127
3, 115680, Note_on_c, 0, 46, 0
3, 115680, Note_on_c, 0, 53, 31
3, 115680, Note_on_c, 0, 58, 31
3, 115680, Note_on_c, 0, 61, 36
3, 116160, Note_on_c, 0, 61, 0
3, 116160, Note_on_c, 0, 58, 0
3, 116160, Note_on_c, 0, 53, 0
3, 116160, Control_c, 0, 64, 0
3, 116160, Note_on_c, 0, 53, 27
3, 116160, Note_on_c, 0, 61, 30
3, 116160, Note_on_c, 0, 58, 27
3, 116640, Note_on_c, 0, 58, 0
3, 116640, Note_on_c, 0, 61, 0
3, 116640, Note_on_c, 0, 53, 0
3, 116640, Note_on_c, 0, 47, 42
3, 116800, Control_c, 0, 64, 127
3, 117120, Note_on_c, 0, 47, 0
3, 117120, Note_on_c, 0, 65, 37
3, 117120, Note_on_c, 0, 55, 33
3, 117120, Note_on_c, 0, 62, 33
3, 117600, Note_on_c, 0, 62, 0
3, 117600, Note_on_c, 0, 55, 0
3, 117600, Note_on_c, 0, 65, 0
3, 117600, Note_on_c, 0, 55, 28
3, 117600, Note_on_c, 0, 65, 31
3, 117600, Note_on_c, 0, 62, 28
3, 118080, Note_on_c, 0, 62, 0
3, 118080, Note_on_c, 0, 65, 0
3, 118080, Note_on_c, 0, 55, 0
3, 118080, Note_on_c, 0, 48, 38
3, 118092, Control_c, 0, 64, 0
3, 118229, Control_c, 0, 64, 127
3, 118560, Note_on_c, 0, 48, 0
3, 118560, Note_on_c, 0, 55, 33
3, 118560, Note_on_c, 0, 60, 33
3, 118560, Note_on_c, 0, 64, 37
3, 119040, Note_on_c, 0, 64, 0
3, 119040, Note_on_c, 0, 60, 0
3, 119040, Note_on_c, 0, 55, 0
3, 119040, Control_c, 0, 64, 0
3, 119040, Note_on_c, 0, 55, 28
3, 119040, Note_on_c, 0, 64, 31
3, 119040, Note_on_c, 0, 60, 28
3, 119520, Note_on_c, 0, 60, 0
3, 119520, Note_on_c, 0, 64, 0
3, 119520, Note_on_c, 0, 55, 0
3, 119520, Note_on_c, 0, 49, 45
3, 119680, Control_c, 0, 64, 127
3, 120000, Note_on_c, 0, 49, 0
3, 120000, Note_on_c, 0, 65, 39
3, 120000, Note_on_c, 0, 58, 35
3, 120000, Note_on_c, 0, 61, 35
3, 120480, Note_on_c, 0, 61, 0
3, 120480, Note_on_c, 0, 58, 0
3, 120480, Note_on_c, 0, 65, 0
3, 120480, Note_on_c, 0, 58, 29
3, 120480, Note_on_c, 0, 65, 34
3, 120480, Note_on_c, 0, 61, 29
3, 120960, Note_on_c, 0, 61, 0
3, 120960, Note_on_c, 0, 65, 0
3, 120960, Note_on_c, 0, 58, 0
3, 120960, Note_on_c, 0, 50, 40
3, 120970, Control_c, 0, 64, 0
3, 121109, Control_c, 0, 64, 127
3, 121440, Note_on_c, 0, 50, 0
3, 121440, Note_on_c, 0, 56, 35
3, 121440, Note_on_c, 0, 59, 35
3, 121440, Note_on_c, 0, 65, 39
3, 121920, Note_on_c, 0, 65, 0
3, 121920, Note_on_c, 0, 59, 0
3, 121920, Note_on_c, 0, 56, 0
3, 121920, Control_c, 0, 64, 0
3, 121920, Note_on_c, 0, 56, 29
3, 121920, Note_on_c, 0, 65, 34
3, 121920, Note_on_c, 0, 59, 29
3, 122400, Note_on_c, 0, 59, 0
3, 122400, Note_on_c, 0, 65, 0
3, 122400, Note_on_c, 0, 56, 0
3, 122400, Note_on_c, 0, 51, 36
3, 122549, Control_c, 0, 64, 127
3, 122880, Note_on_c, 0, 51, 0
3, 122880, Note_on_c, 0, 55, 30
3, 122880, Note_on_c, 0, 61, 30
3, 122880, Note_on_c, 0, 63, 35
3, 123360, Note_on_c, 0, 63, 0
3, 123360, Note_on_c, 0, 61, 0
3, 123360, Note_on_c, 0, 55, 0
3, 123360, Note_on_c, 0, 55, 26
3, 123360, Note_on_c, 0, 63, 29
3, 123360, Note_on_c, 0, 61, 26
3, 123840, Note_on_c, 0, 61, 0
3, 123840, Note_on_c, 0, 63, 0
3, 123840, Note_on_c, 0, 55, 0
3, 123840, Note_on_c, 0, 44, 31
3, 123847, Control_c, 0, 64, 0
3, 124052, Control_c, 0, 64, 127
3, 124320, Note_on_c, 0, 44, 0
3, 124320, Note_on_c, 0, 51, 27
3, 124320, Note_on_c, 0, 56, 27
3, 124320, Note_on_c, 0, 60, 30
3, 124800, Note_on_c, 0, 60, 0
3, 124800, Note_on_c, 0, 56, 0
3, 124800, Note_on_c, 0, 51, 0
3, 124800, Control_c, 0, 64, 0
3, 124800, Note_on_c, 0, 51, 23
3, 124800, Note_on_c, 0, 60, 26
3, 124800, Note_on_c, 0, 56, 23
3, 125280, Note_on_c, 0, 56, 0
3, 125280, Note_on_c, 0, 60, 0
3, 125280, Note_on_c, 0, 51, 0
3, 125280, Note_on_c, 0, 59, 47
3, 125760, Note_on_c, 0, 52, 39
3, 125931, Control_c, 0, 64, 127
3, 126000, Note_on_c, 0, 59, 0
3, 126000, Note_on_c, 0, 58, 44
3, 126240, Note_on_c, 0, 58, 0
3, 126240, Note_on_c, 0, 61, 47
3, 126480, Note_on_c, 0, 61, 0
3, 126480, Note_on_c, 0, 58, 42
3, 126720, Note_on_c, 0, 58, 0
3, 126720, Note_on_c, 0, 59, 46
3, 126729, Control_c, 0, 64, 0
3, 127120, Control_c, 0, 64, 127
3, 127200, Note_on_c, 0, 52, 0
3, 127200, Note_on_c, 0, 51, 47
3, 128160, Note_on_c, 0, 59, 0
3, 128160, Note_on_c, 0, 59, 47
3, 128169, Control_c, 0, 64, 0
3, 128533, Control_c, 0, 64, 127
3, 128640, Note_on_c, 0, 51, 0
3, 128640, Note_on_c, 0, 49, 45
3, 129600, Note_on_c, 0, 59, 0
3, 129600, Note_on_c, 0, 59, 47
3, 129608, Control_c, 0, 64, 0
3, 129737, Control_c, 0, 64, 127
3, 130080, Note_on_c, 0, 49, 0
3, 130080, Note_on_c, 0, 47, 48
3, 131040, Note_on_c, 0, 47, 0
3, 131040, Note_on_c, 0, 59, 0
3, 131040, Note_on_c, 0, 59, 47
3, 131051, Control_c, 0, 64, 0
3, 131520, Note_on_c, 0, 52, 39
3, 131691, Control_c, 0, 64, 127
3, 131760, Note_on_c, 0, 59, 0
3, 131760, Note_on_c, 0, 58, 44
3, 132000, Note_on_c, 0, 58, 0
3, 132000, Note_on_c, 0, 61, 47
3, 132240, Note_on_c, 0, 61, 0
3, 132240, Note_on_c, 0, 58, 42
3, 132480, Note_on_c, 0, 58, 0
3, 132480, Note_on_c, 0, 59, 46
3, 132490, Control_c, 0, 64, 0
3, 132720, Control_c, 0, 64, 127
3, 132960, Note_on_c, 0, 52, 0
3, 132960, Note_on_c, 0, 51, 47
3, 133920, Note_on_c, 0, 59, 0
3, 133920, Note_on_c, 0, 59, 47
3, 133929, Control_c, 0, 64, 0
3, 134293, Control_c, 0, 64, 127
3, 134400, Note_on_c, 0, 51, 0
3, 134400, Note_on_c, 0, 49, 45
3, 135360, Note_on_c, 0, 59, 0
3, 135360, Note_on_c, 0, 59, 47
3, 135370, Control_c, 0, 64, 0
3, 135558, Control_c, 0, 64, 127
3, 135840, Note_on_c, 0, 49, 0
3, 135840, Note_on_c, 0, 47, 48
3, 136800, Note_on_c, 0, 47, 0
3, 136800, Note_on_c, 0, 59, 0
3, 136800, Control_c, 0, 64, 0
3, 136800, Note_on_c, 0, 59, 47
3, 137280, Note_on_c, 0, 52, 39
3, 137451, Control_c, 0, 64, 127
3, 137520, Note_on_c, 0, 59, 0
3, 137520, Note_on_c, 0, 58, 44
3, 137760, Note_on_c, 0, 58, 0
3, 137760, Note_on_c, 0, 61, 47
3, 138000, Note_on_c, 0, 61, 0
3, 138000, Note_on_c, 0, 58, 42
3, 138240, Note_on_c, 0, 58, 0
3, 138240, Note_on_c, 0, 59, 46
3, 138249, Control_c, 0, 64, 0
3, 138720, Note_on_c, 0, 52, 0
3, 138720, Control_c, 0, 64, 127
3, 138720, Note_on_c, 0, 51, 47
3, 139680, Note_on_c, 0, 59, 0
3, 139680, Note_on_c, 0, 59, 47
3, 139692, Control_c, 0, 64, 0
3, 139920, Control_c, 0, 64, 127
3, 140160, Note_on_c, 0, 51, 0
3, 140160, Note_on_c, 0, 49, 45
3, 141120, Note_on_c, 0, 59, 0
3, 141120, Note_on_c, 0, 59, 47
3, 141129, Control_c, 0, 64, 0
3, 141269, Control_c, 0, 64, 127
3, 141600, Note_on_c, 0, 49, 0
3, 141600, Note_on_c, 0, 47, 48
3, 142560, Note_on_c, 0, 47, 0
3, 142560, Note_on_c, 0, 59, 0
3, 142560, Control_c, 0, 64, 0
3, 142560, Note_on_c, 0, 59, 47
3, 143040, Note_on_c, 0, 52, 39
3, 143211, Control_c, 0, 64, 127
3, 143280, Note_on_c, 0, 59, 0
3, 143280, Note_on_c, 0, 58, 44
3, 143520, Note_on_c, 0, 58, 0
3, 143520, Note_on_c, 0, 61, 47
3, 143760, Note_on_c, 0, 61, 0
3, 143760, Note_on_c, 0, 58, 42
3, 144000, Note_on_c, 0, 58, 0
3, 144000, Note_on_c, 0, 59, 46
3, 144010, Control_c, 0, 64, 0
3, 144427, Control_c, 0, 64, 127
3, 144480, Note_on_c, 0, 52, 0
3, 144480, Note_on_c, 0, 51, 47
3, 145440, Note_on_c, 0, 59, 0
3, 145440, Note_on_c, 0, 58, 47
3, 145448, Control_c, 0, 64, 0
3, 145783, Control_c, 0, 64, 127
3, 145920, Note_on_c, 0, 51, 0
3, 145920, Note_on_c, 0, 51, 45
3, 146880, Note_on_c, 0, 51, 0
3, 146880, Note_on_c, 0, 58, 0
3, 146880, Note_on_c, 0, 44, 51
3, 146890, Control_c, 0, 64, 0
3, 147074, Control_c, 0, 64, 127
3, 147360, Note_on_c, 0, 44, 0
3, 147360, Note_on_c, 0, 51, 36
3, 147360, Note_on_c, 0, 56, 36
3, 147360, Note_on_c, 0, 59, 42
3, 147840, Note_on_c, 0, 59, 0
3, 147840, Note_on_c, 0, 56, 0
3, 147840, Note_on_c, 0, 51, 0
3, 147857, Control_c, 0, 64, 0
3, 148320, Note_on_c, 0, 54, 57
3, 148447, Control_c, 0, 64, 127
3, 148800, Note_on_c, 0, 54, 0
3, 148800, Note_on_c, 0, 61, 46
3, 148800, Note_on_c, 0, 57, 46
3, 148800, Note_on_c, 0, 66, 52
3, 149760, Note_on_c, 0, 66, 0
3, 149760, Note_on_c, 0, 57, 0
3, 149760, Note_on_c, 0, 61, 0
3, 149760, Note_on_c, 0, 52, 57
3, 149769, Control_c, 0, 64, 0
3, 150107, Control_c, 0, 64, 127
3, 150240, Note_on_c, 0, 52, 0
3, 150240, Note_on_c, 0, 57, 45
3, 150240, Note_on_c, 0, 61, 51
3, 151200, Note_on_c, 0, 61, 0
3, 151200, Note_on_c, 0, 57, 0
3, 151200, Note_on_c, 0, 51, 57
3, 151218, Control_c, 0, 64, 0
3, 151851, Control_c, 0, 64, 127
3, 151920, Note_on_c, 0, 51, 0
3, 151920, Note_on_c, 0, 49, 53
3, 152160, Note_on_c, 0, 49, 0
3, 152160, Note_on_c, 0, 52, 58
3, 152400, Note_on_c, 0, 52, 0
3, 152400, Note_on_c, 0, 51, 53
3, 152640, Note_on_c, 0, 51, 0
3, 152640, Control_c, 0, 64, 0
3, 152640, Note_on_c, 0, 49, 56
3, 152760, Note_on_c, 0, 49, 0
3, 153120, Note_on_c, 0, 48, 52
3, 153240, Note_on_c, 0, 48, 0
3, 153600, Note_on_c, 0, 47, 52
3, 153720, Note_on_c, 0, 47, 0
3, 154080, Note_on_c, 0, 46, 52
3, 154560, Note_on_c, 0, 46, 0
3, 154560, Note_on_c, 0, 61, 44
3, 154560, Note_on_c, 0, 52, 39
3, 154560, Note_on_c, 0, 54, 39
3, 154731, Control_c, 0, 64, 127
3, 155520, Note_on_c, 0, 54, 0
3, 155520, Note_on_c, 0, 52, 0
3, 155520, Note_on_c, 0, 61, 0
3, 155520, Note_on_c, 0, 45, 50
3, 155533, Control_c, 0, 64, 0
3, 155706, Control_c, 0, 64, 127
3, 156000, Note_on_c, 0, 45, 0
3, 156000, Note_on_c, 0, 51, 34
3, 156000, Note_on_c, 0, 54, 34
3, 156000, Note_on_c, 0, 59, 39
3, 156960, Note_on_c, 0, 59, 0
3, 156960, Note_on_c, 0, 54, 0
3, 156960, Note_on_c, 0, 51, 0
3, 156960, Control_c, 0, 64, 0
3, 156960, Note_on_c, 0, 44, 56
3, 157486, Control_c, 0, 64, 127
3, 157669, Note_on_c, 0, 43, 51
3, 157680, Note_on_c, 0, 44, 0
3, 157909, Note_on_c, 0, 43, 0
3, 157920, Note_on_c, 0, 45, 57
3, 158149, Note_on_c, 0, 44, 52
3, 158160, Note_on_c, 0, 45, 0
3, 158389, Note_on_c, 0, 44, 0
3, 158400, Note_on_c, 0, 49, 56
3, 158409, Control_c, 0, 64, 0
3, 158667, Control_c, 0, 64, 127
3, 158880, Note_on_c, 0, 49, 0
3, 158880, Note_on_c, 0, 47, 53
3, 159360, Note_on_c, 0, 47, 0
3, 159360, Note_on_c, 0, 40, 53
3, 159840, Note_on_c, 0, 40, 0
3, 159840, Control_c, 0, 64, 0
3, 159840, Note_on_c, 0, 54, 57
3, 160080, Control_c, 0, 64, 127
3, 160320, Note_on_c, 0, 54, 0
3, 160320, Note_on_c, 0, 61, 46
3, 160320, Note_on_c, 0, 57, 46
3, 160320, Note_on_c, 0, 66, 52
3, 161280, Note_on_c, 0, 66, 0
3, 161280, Note_on_c, 0, 57, 0
3, 161280, Note_on_c, 0, 61, 0
3, 161280, Note_on_c, 0, 52, 57
3, 161291, Control_c, 0, 64, 0
3, 161440, Control_c, 0, 64, 127
3, 161760, Note_on_c, 0, 52, 0
3, 161760, Note_on_c, 0, 57, 45
3, 161760, Note_on_c, 0, 61, 51
3, 162720, Note_on_c, 0, 61, 0
3, 162720, Note_on_c, 0, 57, 0
3, 162720, Control_c, 0, 64, 0
3, 162720, Note_on_c, 0, 51, 57
3, 163371, Control_c, 0, 64, 127
3, 163440, Note_on_c, 0, 51, 0
3, 163440, Note_on_c, 0, 49, 53
3, 163680, Note_on_c, 0, 49, 0
3, 163680, Note_on_c, 0, 52, 58
3, 163920, Note_on_c, 0, 52, 0
3, 163920, Note_on_c, 0, 51, 53
3, 164160, Note_on_c, 0, 51, 0
3, 164160, Control_c, 0, 64, 0
3, 164160, Note_on_c, 0, 49, 56
3, 164280, Note_on_c, 0, 49, 0
3, 164640, Note_on_c, 0, 48, 52
3, 164760, Note_on_c, 0, 48, 0
3, 165120, Note_on_c, 0, 47, 52
3, 165240, Note_on_c, 0, 47, 0
3, 165600, Note_on_c, 0, 46, 52
3, 166080, Note_on_c, 0, 46, 0
3, 166080, Note_on_c, 0, 61, 44
3, 166080, Note_on_c, 0, 52, 39
3, 166080, Note_on_c, 0, 54, 39
3, 166251, Control_c, 0, 64, 127
3, 167040, Note_on_c, 0, 54, 0
3, 167040, Note_on_c, 0, 52, 0
3, 167040, Note_on_c, 0, 61, 0
3, 167040, Note_on_c, 0, 45, 50
3, 167050, Control_c, 0, 64, 0
3, 167333, Control_c, 0, 64, 127
3, 167520, Note_on_c, 0, 45, 0
3, 167520, Note_on_c, 0, 51, 34
3, 167520, Note_on_c, 0, 54, 34
3, 167520, Note_on_c, 0, 59, 39
3, 168480, Note_on_c, 0, 59, 0
3, 168480, Note_on_c, 0, 54, 0
3, 168480, Note_on_c, 0, 51, 0
3, 168480, Control_c, 0, 64, 0
3, 168480, Note_on_c, 0, 44, 56
3, 169029, Control_c, 0, 64, 127
3, 169189, Note_on_c, 0, 43, 51
3, 169200, Note_on_c, 0, 44, 0
3, 169429, Note_on_c, 0, 43, 0
3, 169440, Note_on_c, 0, 45, 57
3, 169669, Note_on_c, 0, 44, 52
3, 169680, Note_on_c, 0, 45, 0
3, 169909, Note_on_c, 0, 44, 0
3, 169920, Control_c, 0, 64, 0
3, 169920, Note_on_c, 0, 51, 56
3, 170040, Note_on_c, 0, 51, 0
3, 170400, Note_on_c, 0, 49, 52
3, 170520, Note_on_c, 0, 49, 0
3, 170880, Note_on_c, 0, 47, 52
3, 171000, Note_on_c, 0, 47, 0
3, 171360, Note_on_c, 0, 59, 47
3, 171840, Note_on_c, 0, 52, 39
3, 172011, Control_c, 0, 64, 127
3, 172080, Note_on_c, 0, 59, 0
3, 172080, Note_on_c, 0, 58, 44
3, 172320, Note_on_c, 0, 58, 0
3, 172320, Note_on_c, 0, 61, 47
3, 172560, Note_on_c, 0, 61, 0
3, 172560, Note_on_c, 0, 58, 42
3, 172800, Note_on_c, 0, 58, 0
3, 172800, Note_on_c, 0, 59, 46
3, 172813, Control_c, 0, 64, 0
3, 173147, Control_c, 0, 64, 127
3, 173280, Note_on_c, 0, 52, 0
3, 173280, Note_on_c, 0, 51, 47
3, 174240, Note_on_c, 0, 59, 0
3, 174240, Note_on_c, 0, 59, 47
3, 174250, Control_c, 0, 64, 0
3, 174453, Control_c, 0, 64, 127
3, 174720, Note_on_c, 0, 51, 0
3, 174720, Note_on_c, 0, 49, 45
3, 175680, Note_on_c, 0, 59, 0
3, 175680, Note_on_c, 0, 59, 47
3, 175693, Control_c, 0, 64, 0
3, 175788, Control_c, 0, 64, 127
3, 176160, Note_on_c, 0, 49, 0
3, 176160, Note_on_c, 0, 47, 48
3, 176949, Control_c, 0, 64, 0
3, 177120, Note_on_c, 0, 47, 0
3, 177120, Note_on_c, 0, 59, 0
3, 177120, Note_on_c, 0, 59, 47
3, 177600, Note_on_c, 0, 52, 39
3, 177771, Control_c, 0, 64, 127
3, 177840, Note_on_c, 0, 59, 0
3, 177840, Note_on_c, 0, 58, 44
3, 178080, Note_on_c, 0, 58, 0
3, 178080, Note_on_c, 0, 61, 47
3, 178320, Note_on_c, 0, 61, 0
3, 178320, Note_on_c, 0, 58, 42
3, 178560, Note_on_c, 0, 58, 0
3, 178560, Note_on_c, 0, 59, 46
3, 178573, Control_c, 0, 64, 0
3, 178800, Control_c, 0, 64, 127
3, 179040, Note_on_c, 0, 52, 0
3, 179040, Note_on_c, 0, 51, 47
3, 180000, Note_on_c, 0, 59, 0
3, 180000, Note_on_c, 0, 59, 47
3, 180009, Control_c, 0, 64, 0
3, 180320, Control_c, 0, 64, 127
3, 180480, Note_on_c, 0, 51, 0
3, 180480, Note_on_c, 0, 49, 45
3, 181440, Note_on_c, 0, 59, 0
3, 181440, Note_on_c, 0, 59, 47
3, 181453, Control_c, 0, 64, 0
3, 181567, Control_c, 0, 64, 127
3, 181920, Note_on_c, 0, 49, 0
3, 181920, Note_on_c, 0, 47, 48
3, 182880, Note_on_c, 0, 47, 0
3, 182880, Note_on_c, 0, 59, 0
3, 182880, Control_c, 0, 64, 0
3, 182880, Note_on_c, 0, 59, 47
3, 183360, Note_on_c, 0, 52, 39
3, 183383, Control_c, 0, 64, 127
3, 183600, Note_on_c, 0, 59, 0
3, 183600, Note_on_c, 0, 58, 44
3, 183840, Note_on_c, 0, 58, 0
3, 183840, Note_on_c, 0, 61, 47
3, 184080, Note_on_c, 0, 61, 0
3, 184080, Note_on_c, 0, 58, 42
3, 184320, Note_on_c, 0, 58, 0
3, 184320, Note_on_c, 0, 59, 46
3, 184333, Control_c, 0, 64, 0
3, 184720, Control_c, 0, 64, 127
3, 184800, Note_on_c, 0, 52, 0
3, 184800, Note_on_c, 0, 51, 47
3, 185760, Note_on_c, 0, 59, 0
3, 185760, Note_on_c, 0, 59, 47
3, 185773, Control_c, 0, 64, 0
3, 186000, Control_c, 0, 64, 127
3, 186240, Note_on_c, 0, 51, 0
3, 186240, Note_on_c, 0, 49, 45
3, 187200, Note_on_c, 0, 59, 0
3, 187200, Note_on_c, 0, 59, 47
3, 187213, Control_c, 0, 64, 0
3, 187337, Control_c, 0, 64, 127
3, 187680, Note_on_c, 0, 49, 0
3, 187680, Note_on_c, 0, 47, 48
3, 188640, Note_on_c, 0, 47, 0
3, 188640, Note_on_c, 0, 59, 0
3, 188640, Control_c, 0, 64, 0
3, 188640, Note_on_c, 0, 59, 47
3, 189120, Note_on_c, 0, 52, 39
3, 189291, Control_c, 0, 64, 127
3, 189360, Note_on_c, 0, 59, 0
3, 189360, Note_on_c, 0, 58, 44
3, 189600, Note_on_c, 0, 58, 0
3, 189600, Note_on_c, 0, 61, 47
3, 189840, Note_on_c, 0, 61, 0
3, 189840, Note_on_c, 0, 58, 42
3, 190080, Note_on_c, 0, 58, 0
3, 190080, Note_on_c, 0, 59, 46
3, 190093, Control_c, 0, 64, 0
3, 190480, Control_c, 0, 64, 127
3, 190560, Note_on_c, 0, 52, 0
3, 190560, Note_on_c, 0, 51, 47
3, 191520, Note_on_c, 0, 59, 0
3, 191520, Note_on_c, 0, 58, 50
3, 191520, Note_on_c, 0, 61, 50
3, 191529, Control_c, 0, 64, 0
3, 191817, Control_c, 0, 64, 127
3, 192000, Note_on_c, 0, 51, 0
3, 192000, Note_on_c, 0, 51, 48
3, 192960, Note_on_c, 0, 61, 0
3, 192960, Note_on_c, 0, 58, 0
3, 192960, Note_on_c, 0, 59, 52
3, 192960, Note_on_c, 0, 63, 52
3, 192970, Control_c, 0, 64, 0
3, 193227, Control_c, 0, 64, 127
3, 193440, Note_on_c, 0, 51, 0
3, 193440, Note_on_c, 0, 51, 49
3, 194400, Note_on_c, 0, 63, 0
3, 194400, Note_on_c, 0, 59, 0
3, 194400, Control_c, 0, 64, 0
3, 194400, Note_on_c, 0, 55, 47
3, 194400, Note_on_c, 0, 61, 47
3, 194400, Note_on_c, 0, 63, 52
3, 194720, Control_c, 0, 64, 127
3, 194880, Note_on_c, 0, 51, 0
3, 194880, Note_on_c, 0, 51, 49
3, 195840, Note_on_c, 0, 55, 0
3, 195840, Note_on_c, 0, 63, 0
3, 195840, Note_on_c, 0, 61, 0
3, 195840, Note_on_c, 0, 56, 41
3, 195840, Note_on_c, 0, 59, 41
3, 195840, Note_on_c, 0, 63, 47
3, 195851, Control_c, 0, 64, 0
3, 196053, Control_c, 0, 64, 127
3, 196320, Note_on_c, 0, 51, 0
3, 196320, Note_on_c, 0, 51, 49
3, 197280, Note_on_c, 0, 51, 0
3, 197280, Note_on_c, 0, 63, 0
3, 197280, Note_on_c, 0, 59, 0
3, 197280, Note_on_c, 0, 56, 0
3, 197280, Control_c, 0, 64, 0
3, 197280, Note_on_c, 0, 59, 44
3, 197280, Note_on_c, 0, 63, 44
3, 197280, Note_on_c, 0, 68, 49
3, 197600, Control_c, 0, 64, 127
3, 197760, Note_on_c, 0, 51, 51
3, 198720, Note_on_c, 0, 51, 0
3, 198720, Note_on_c, 0, 59, 0
3, 198720, Note_on_c, 0, 63, 0
3, 198720, Note_on_c, 0, 68, 0
3, 198720, Note_on_c, 0, 58, 44
3, 198720, Note_on_c, 0, 61, 44
3, 198720, Note_on_c, 0, 67, 49
3, 198731, Control_c, 0, 64, 0
3, 198986, Control_c, 0, 64, 127
3, 199200, Note_on_c, 0, 51, 51
3, 200160, Note_on_c, 0, 51, 0
3, 200160, Note_on_c, 0, 58, 0
3, 200160, Note_on_c, 0, 61, 0
3, 200160, Note_on_c, 0, 67, 0
3, 200160, Control_c, 0, 64, 0
3, 200160, Note_on_c, 0, 55, 41
3, 200160, Note_on_c, 0, 61, 41
3, 200160, Note_on_c, 0, 63, 47
3, 200480, Control_c, 0, 64, 127
3, 200640, Note_on_c, 0, 51, 49
3, 201600, Note_on_c, 0, 63, 0
3, 201600, Note_on_c, 0, 55, 0
3, 201600, Note_on_c, 0, 61, 0
3, 201600, Note_on_c, 0, 56, 41
3, 201600, Note_on_c, 0, 59, 41
3, 201600, Note_on_c, 0, 63, 47
3, 201613, Control_c, 0, 64, 0
3, 201866, Control_c, 0, 64, 127
3, 202080, Note_on_c, 0, 51, 0
3, 202080, Note_on_c, 0, 51, 49
3, 203040, Note_on_c, 0, 51, 0
3, 203040, Note_on_c, 0, 63, 0
3, 203040, Note_on_c, 0, 59, 0
3, 203040, Note_on_c, 0, 56, 0
3, 203040, Control_c, 0, 64, 0
3, 203040, Note_on_c, 0, 59, 44
3, 203040, Note_on_c, 0, 63, 44
3, 203040, Note_on_c, 0, 68, 49
3, 203360, Control_c, 0, 64, 127
3, 203520, Note_on_c, 0, 51, 51
3, 204480, Note_on_c, 0, 51, 0
3, 204480, Note_on_c, 0, 59, 0
3, 204480, Note_on_c, 0, 63, 0
3, 204480, Note_on_c, 0, 68, 0
3, 204480, Note_on_c, 0, 58, 44
3, 204480, Note_on_c, 0, 61, 44
3, 204480, Note_on_c, 0, 67, 49
3, 204491, Control_c, 0, 64, 0
3, 204640, Control_c, 0, 64, 127
3, 204960, Note_on_c, 0, 51, 51
3, 205920, Note_on_c, 0, 51, 0
3, 205920, Note_on_c, 0, 58, 0
3, 205920, Note_on_c, 0, 61, 0
3, 205920, Note_on_c, 0, 67, 0
3, 205920, Note_on_c, 0, 58, 44
3, 205920, Note_on_c, 0, 61, 44
3, 205920, Note_on_c, 0, 67, 49
3, 205931, Control_c, 0, 64, 0
3, 206080, Control_c, 0, 64, 127
3, 206400, Note_on_c, 0, 51, 51
3, 207360, Note_on_c, 0, 51, 0
3, 207360, Note_on_c, 0, 58, 0
3, 207360, Note_on_c, 0, 61, 0
3, 207360, Note_on_c, 0, 67, 0
3, 207366, Control_c, 0, 64, 0
3, 207531, Control_c, 0, 64, 127
3, 208811, Control_c, 0, 64, 0
3, 208880, Control_c, 0, 64, 127
3, 210250, Control_c, 0, 64, 0
3, 210365, Control_c, 0, 64, 127
3, 211692, Control_c, 0, 64, 0
3, 211817, Control_c, 0, 64, 127
3, 212169, Control_c, 0, 64, 0
3, 212331, Control_c, 0, 64, 127
3, 213120, Control_c, 0, 64, 0
3, 213120, Note_on_c, 0, 44, 37
3, 213413, Control_c, 0, 64, 127
3, 213600, Note_on_c, 0, 44, 0
3, 213600, Note_on_c, 0, 51, 27
3, 213600, Note_on_c, 0, 56, 27
3, 213600, Note_on_c, 0, 60, 32
3, 214080, Note_on_c, 0, 60, 0
3, 214080, Note_on_c, 0, 56, 0
3, 214080, Note_on_c, 0, 51, 0
3, 214080, Note_on_c, 0, 51, 24
3, 214080, Note_on_c, 0, 60, 27
3, 214080, Note_on_c, 0, 56, 24
3, 214560, Note_on_c, 0, 56, 0
3, 214560, Note_on_c, 0, 60, 0
3, 214560, Note_on_c, 0, 51, 0
3, 214560, Control_c, 0, 64, 0
3, 214560, Note_on_c, 0, 39, 44
3, 214826, Control_c, 0, 64, 127
3, 215040, Note_on_c, 0, 39, 0
3, 215040, Note_on_c, 0, 51, 19
3, 215040, Note_on_c, 0, 56, 19
3, 215040, Note_on_c, 0, 60, 22
3, 215520, Note_on_c, 0, 60, 0
3, 215520, Note_on_c, 0, 56, 0
3, 215520, Note_on_c, 0, 51, 0
3, 215520, Note_on_c, 0, 51, 26
3, 215520, Note_on_c, 0, 56, 26
3, 215520, Note_on_c, 0, 60, 29
3, 216000, Note_on_c, 0, 60, 0
3, 216000, Note_on_c, 0, 56, 0
3, 216000, Note_on_c, 0, 51, 0
3, 216000, Control_c, 0, 64, 0
3, 216000, Note_on_c, 0, 46, 39
3, 216240, Control_c, 0, 64, 127
3, 216480, Note_on_c, 0, 46, 0
3, 216480, Note_on_c, 0, 51, 30
3, 216480, Note_on_c, 0, 61, 34
3, 216480, Note_on_c, 0, 55, 30
3, 216960, Note_on_c, 0, 55, 0
3, 216960, Note_on_c, 0, 61, 0
3, 216960, Note_on_c, 0, 51, 0
3, 216960, Note_on_c, 0, 51, 22
3, 216960, Note_on_c, 0, 61, 25
3, 216960, Note_on_c, 0, 55, 22
3, 217440, Note_on_c, 0, 55, 0
3, 217440, Note_on_c, 0, 61, 0
3, 217440, Note_on_c, 0, 51, 0
3, 217440, Note_on_c, 0, 39, 39
3, 217455, Control_c, 0, 64, 0
3, 217707, Control_c, 0, 64, 127
3, 217920, Note_on_c, 0, 39, 0
3, 217920, Note_on_c, 0, 61, 23
3, 217920, Note_on_c, 0, 51, 20
3, 217920, Note_on_c, 0, 55, 20
3, 218400, Note_on_c, 0, 55, 0
3, 218400, Note_on_c, 0, 51, 0
3, 218400, Note_on_c, 0, 61, 0
3, 218400, Note_on_c, 0, 61, 32
3, 218400, Note_on_c, 0, 51, 27
3, 218400, Note_on_c, 0, 55, 27
3, 218880, Note_on_c, 0, 55, 0
3, 218880, Note_on_c, 0, 51, 0
3, 218880, Note_on_c, 0, 61, 0
3, 218880, Control_c, 0, 64, 0
3, 218880, Note_on_c, 0, 44, 38
3, 219093, Control_c, 0, 64, 127
3, 219360, Note_on_c, 0, 44, 0
3, 219360, Note_on_c, 0, 51, 30
3, 219360, Note_on_c, 0, 56, 30
3, 219360, Note_on_c, 0, 60, 34
3, 219840, Note_on_c, 0, 60, 0
3, 219840, Note_on_c, 0, 56, 0
3, 219840, Note_on_c, 0, 51, 0
3, 219840, Note_on_c, 0, 51, 26
3, 219840, Note_on_c, 0, 60, 30
3, 219840, Note_on_c, 0, 56, 26
3, 220320, Note_on_c, 0, 56, 0
3, 220320, Note_on_c, 0, 60, 0
3, 220320, Note_on_c, 0, 51, 0
3, 220320, Note_on_c, 0, 39, 55
3, 220332, Control_c, 0, 64, 0
3, 220462, Control_c, 0, 64, 127
3, 220800, Note_on_c, 0, 39, 0
3, 220800, Note_on_c, 0, 54, 27
3, 220800, Note_on_c, 0, 56, 27
3, 220800, Note_on_c, 0, 60, 32
3, 221280, Note_on_c, 0, 60, 0
3, 221280, Note_on_c, 0, 56, 0
3, 221280, Note_on_c, 0, 54, 0
3, 221280, Note_on_c, 0, 54, 34
3, 221280, Note_on_c, 0, 56, 34
3, 221280, Note_on_c, 0, 60, 37
3, 221760, Note_on_c, 0, 60, 0
3, 221760, Note_on_c, 0, 56, 0
3, 221760, Note_on_c, 0, 54, 0
3, 221760, Control_c, 0, 64, 0
3, 221760, Note_on_c, 0, 44, 56
3, 221871, Control_c, 0, 64, 127
3, 222090, Note_on_c, 0, 44, 0
3, 222090, Note_on_c, 0, 53, 31
3, 222120, Note_on_c, 0, 56, 37
3, 222150, Note_on_c, 0, 59, 44
3, 222570, Note_on_c, 0, 59, 0
3, 222570, Note_on_c, 0, 56, 0
3, 222570, Note_on_c, 0, 53, 0
3, 222570, Note_on_c, 0, 53, 33
3, 222600, Note_on_c, 0, 56, 40
3, 222630, Note_on_c, 0, 59, 45
3, 223200, Note_on_c, 0, 59, 0
3, 223200, Note_on_c, 0, 56, 0
3, 223200, Note_on_c, 0, 53, 0
3, 223200, Note_on_c, 0, 44, 60
3, 223207, Control_c, 0, 64, 0
3, 223627, Control_c, 0, 64, 127
3, 223680, Note_on_c, 0, 44, 0
3, 223680, Note_on_c, 0, 51, 22
3, 223680, Note_on_c, 0, 56, 22
3, 223680, Note_on_c, 0, 60, 25
3, 224160, Note_on_c, 0, 60, 0
3, 224160, Note_on_c, 0, 56, 0
3, 224160, Note_on_c, 0, 51, 0
3, 224160, Note_on_c, 0, 51, 22
3, 224160, Note_on_c, 0, 56, 22
3, 224160, Note_on_c, 0, 60, 25
3, 224640, Note_on_c, 0, 60, 0
3, 224640, Note_on_c, 0, 56, 0
3, 224640, Note_on_c, 0, 51, 0
3, 224640, Control_c, 0, 64, 0
3, 224640, Note_on_c, 0, 45, 37
3, 224800, Control_c, 0, 64, 127
3, 225120, Note_on_c, 0, 45, 0
3, 225120, Note_on_c, 0, 53, 31
3, 225120, Note_on_c, 0, 60, 31
3, 225120, Note_on_c, 0, 63, 36
3, 225600, Note_on_c, 0, 63, 0
3, 225600, Note_on_c, 0, 60, 0
3, 225600, Note_on_c, 0, 53, 0
3, 225600, Note_on_c, 0, 53, 27
3, 225600, Note_on_c, 0, 63, 30
3, 225600, Note_on_c, 0, 60, 27
3, 226080, Note_on_c, 0, 60, 0
3, 226080, Note_on_c, 0, 63, 0
3, 226080, Note_on_c, 0, 53, 0
3, 226080, Note_on_c, 0, 46, 37
3, 226095, Control_c, 0, 64, 0
3, 226229, Control_c, 0, 64, 127
3, 226560, Note_on_c, 0, 46, 0
3, 226560, Note_on_c, 0, 53, 31
3, 226560, Note_on_c, 0, 58, 31
3, 226560, Note_on_c, 0, 61, 36
3, 227040, Note_on_c, 0, 61, 0
3, 227040, Note_on_c, 0, 58, 0
3, 227040, Note_on_c, 0, 53, 0
3, 227040, Note_on_c, 0, 53, 27
3, 227040, Note_on_c, 0, 61, 30
3, 227040, Note_on_c, 0, 58, 27
3, 227520, Note_on_c, 0, 58, 0
3, 227520, Note_on_c, 0, 61, 0
3, 227520, Note_on_c, 0, 53, 0
3, 227520, Control_c, 0, 64, 0
3, 227520, Note_on_c, 0, 43, 37
3, 227680, Control_c, 0, 64, 127
3, 228000, Note_on_c, 0, 43, 0
3, 228000, Note_on_c, 0, 51, 31
3, 228000, Note_on_c, 0, 58, 31
3, 228000, Note_on_c, 0, 61, 36
3, 228480, Note_on_c, 0, 61, 0
3, 228480, Note_on_c, 0, 58, 0
3, 228480, Note_on_c, 0, 51, 0
3, 228480, Note_on_c, 0, 51, 27
3, 228480, Note_on_c, 0, 61, 30
3, 228480, Note_on_c, 0, 58, 27
3, 228960, Note_on_c, 0, 58, 0
3, 228960, Note_on_c, 0, 61, 0
3, 228960, Note_on_c, 0, 51, 0
3, 228960, Note_on_c, 0, 44, 37
3, 228971, Control_c, 0, 64, 0
3, 229109, Control_c, 0, 64, 127
3, 229440, Note_on_c, 0, 44, 0
3, 229440, Note_on_c, 0, 51, 31
3, 229440, Note_on_c, 0, 56, 31
3, 229440, Note_on_c, 0, 60, 36
3, 229920, Note_on_c, 0, 60, 0
3, 229920, Note_on_c, 0, 56, 0
3, 229920, Note_on_c, 0, 51, 0
3, 229920, Note_on_c, 0, 51, 27
3, 229920, Note_on_c, 0, 60, 30
3, 229920, Note_on_c, 0, 56, 27
3, 230400, Note_on_c, 0, 56, 0
3, 230400, Note_on_c, 0, 60, 0
3, 230400, Note_on_c, 0, 51, 0
3, 230400, Control_c, 0, 64, 0
3, 230400, Note_on_c, 0, 42, 37
3, 230530, Control_c, 0, 64, 127
3, 230880, Note_on_c, 0, 42, 0
3, 230880, Note_on_c, 0, 54, 31
3, 230880, Note_on_c, 0, 56, 36
3, 231360, Note_on_c, 0, 56, 0
3, 231360, Note_on_c, 0, 54, 0
3, 231360, Note_on_c, 0, 56, 30
3, 231360, Note_on_c, 0, 54, 27
3, 231840, Note_on_c, 0, 54, 0
3, 231840, Note_on_c, 0, 56, 0
3, 231840, Note_on_c, 0, 41, 44
3, 231851, Control_c, 0, 64, 0
3, 232186, Control_c, 0, 64, 127
3, 232320, Note_on_c, 0, 41, 0
3, 232320, Note_on_c, 0, 53, 25
3, 232320, Note_on_c, 0, 56, 28
3, 232800, Note_on_c, 0, 56, 0
3, 232800, Note_on_c, 0, 53, 0
3, 232800, Note_on_c, 0, 53, 29
3, 232800, Note_on_c, 0, 56, 33
3, 233280, Note_on_c, 0, 56, 0
3, 233280, Note_on_c, 0, 53, 0
3, 233280, Note_on_c, 0, 40, 37
3, 233292, Control_c, 0, 64, 0
3, 233429, Control_c, 0, 64, 127
3, 233760, Note_on_c, 0, 40, 0
3, 233760, Note_on_c, 0, 52, 31
3, 233760, Note_on_c, 0, 56, 36
3, 234240, Note_on_c, 0, 56, 0
3, 234240, Note_on_c, 0, 52, 0
3, 234240, Note_on_c, 0, 52, 27
3, 234240, Note_on_c, 0, 56, 30
3, 234720, Note_on_c, 0, 56, 0
3, 234720, Note_on_c, 0, 52, 0
3, 234720, Note_on_c, 0, 39, 37
3, 234733, Control_c, 0, 64, 0
3, 234973, Control_c, 0, 64, 127
3, 235200, Note_on_c, 0, 39, 0
3, 235200, Note_on_c, 0, 51, 29
3, 235200, Note_on_c, 0, 58, 34
3, 235680, Note_on_c, 0, 58, 0
3, 235680, Note_on_c, 0, 51, 0
3, 235680, Note_on_c, 0, 58, 28
3, 235680, Note_on_c, 0, 51, 25
3, 236160, Note_on_c, 0, 51, 0
3, 236160, Note_on_c, 0, 58, 0
3, 236160, Control_c, 0, 64, 0
3, 236160, Note_on_c, 0, 44, 37
3, 236480, Control_c, 0, 64, 127
3, 236640, Note_on_c, 0, 44, 0
3, 236640, Note_on_c, 0, 51, 27
3, 236640, Note_on_c, 0, 56, 27
3, 236640, Note_on_c, 0, 60, 32
3, 237120, Note_on_c, 0, 60, 0
3, 237120, Note_on_c, 0, 56, 0
3, 237120, Note_on_c, 0, 51, 0
3, 237120, Note_on_c, 0, 51, 24
3, 237120, Note_on_c, 0, 60, 27
3, 237120, Note_on_c, 0, 56, 24
3, 237600, Note_on_c, 0, 56, 0
3, 237600, Note_on_c, 0, 60, 0
3, 237600, Note_on_c, 0, 51, 0
3, 237600, Control_c, 0, 64, 0
3, 237600, Note_on_c, 0, 39, 44
3, 237840, Control_c, 0, 64, 127
3, 238080, Note_on_c, 0, 39, 0
3, 238080, Note_on_c, 0, 51, 19
3, 238080, Note_on_c, 0, 56, 19
3, 238080, Note_on_c, 0, 60, 22
3, 238560, Note_on_c, 0, 60, 0
3, 238560, Note_on_c, 0, 56, 0
3, 238560, Note_on_c, 0, 51, 0
3, 238560, Note_on_c, 0, 51, 26
3, 238560, Note_on_c, 0, 56, 26
3, 238560, Note_on_c, 0, 60, 29
3, 239040, Note_on_c, 0, 60, 0
3, 239040, Note_on_c, 0, 56, 0
3, 239040, Note_on_c, 0, 51, 0
3, 239040, Control_c, 0, 64, 0
3, 239040, Note_on_c, 0, 46, 39
3, 239200, Control_c, 0, 64, 127
3, 239520, Note_on_c, 0, 46, 0
3, 239520, Note_on_c, 0, 51, 30
3, 239520, Note_on_c, 0, 61, 34
3, 239520, Note_on_c, 0, 55, 30
3, 240000, Note_on_c, 0, 55, 0
3, 240000, Note_on_c, 0, 61, 0
3, 240000, Note_on_c, 0, 51, 0
3, 240000, Note_on_c, 0, 51, 22
3, 240000, Note_on_c, 0, 61, 25
3, 240000, Note_on_c, 0, 55, 22
3, 240480, Note_on_c, 0, 55, 0
3, 240480, Note_on_c, 0, 61, 0
3, 240480, Note_on_c, 0, 51, 0
3, 240480, Note_on_c, 0, 39, 39
3, 240503, Control_c, 0, 64, 0
3, 240747, Control_c, 0, 64, 127
3, 240960, Note_on_c, 0, 39, 0
3, 240960, Note_on_c, 0, 61, 23
3, 240960, Note_on_c, 0, 51, 20
3, 240960, Note_on_c, 0, 55, 20
3, 241440, Note_on_c, 0, 55, 0
3, 241440, Note_on_c, 0, 51, 0
3, 241440, Note_on_c, 0, 61, 0
3, 241440, Note_on_c, 0, 61, 32
3, 241440, Note_on_c, 0, 51, 27
3, 241440, Note_on_c, 0, 55, 27
3, 241920, Note_on_c, 0, 55, 0
3, 241920, Note_on_c, 0, 51, 0
3, 241920, Note_on_c, 0, 61, 0
3, 241920, Control_c, 0, 64, 0
3, 241920, Note_on_c, 0, 44, 38
3, 242187, Control_c, 0, 64, 127
3, 242400, Note_on_c, 0, 44, 0
3, 242400, Note_on_c, 0, 51, 30
3, 242400, Note_on_c, 0, 56, 30
3, 242400, Note_on_c, 0, 60, 34
3, 242880, Note_on_c, 0, 60, 0
3, 242880, Note_on_c, 0, 56, 0
3, 242880, Note_on_c, 0, 51, 0
3, 242880, Note_on_c, 0, 51, 26
3, 242880, Note_on_c, 0, 60, 30
3, 242880, Note_on_c, 0, 56, 26
3, 243360, Note_on_c, 0, 56, 0
3, 243360, Note_on_c, 0, 60, 0
3, 243360, Note_on_c, 0, 51, 0
3, 243360, Note_on_c, 0, 39, 55
3, 243370, Control_c, 0, 64, 0
3, 243581, Control_c, 0, 64, 127
3, 243840, Note_on_c, 0, 39, 0
3, 243840, Note_on_c, 0, 54, 27
3, 243840, Note_on_c, 0, 56, 27
3, 243840, Note_on_c, 0, 60, 32
3, 244320, Note_on_c, 0, 60, 0
3, 244320, Note_on_c, 0, 56, 0
3, 244320, Note_on_c, 0, 54, 0
3, 244320, Note_on_c, 0, 54, 34
3, 244320, Note_on_c, 0, 56, 34
3, 244320, Note_on_c, 0, 60, 37
3, 244800, Note_on_c, 0, 60, 0
3, 244800, Note_on_c, 0, 56, 0
3, 244800, Note_on_c, 0, 54, 0
3, 244800, Note_on_c, 0, 44, 60
3, 244810, Control_c, 0, 64, 0
3, 244863, Control_c, 0, 64, 127
3, 245130, Note_on_c, 0, 44, 0
3, 245130, Note_on_c, 0, 53, 29
3, 245160, Note_on_c, 0, 56, 36
3, 245190, Note_on_c, 0, 59, 44
3, 245610, Note_on_c, 0, 59, 0
3, 245610, Note_on_c, 0, 56, 0
3, 245610, Note_on_c, 0, 53, 0
3, 245610, Note_on_c, 0, 53, 33
3, 245640, Note_on_c, 0, 56, 39
3, 245670, Note_on_c, 0, 59, 45
3, 246240, Note_on_c, 0, 59, 0
3, 246240, Note_on_c, 0, 56, 0
3, 246240, Note_on_c, 0, 53, 0
3, 246240, Note_on_c, 0, 44, 63
3, 246250, Control_c, 0, 64, 0
3, 246507, Control_c, 0, 64, 127
3, 246720, Note_on_c, 0, 44, 0
3, 246720, Note_on_c, 0, 51, 22
3, 246720, Note_on_c, 0, 56, 22
3, 246720, Note_on_c, 0, 60, 25
3, 247200, Note_on_c, 0, 60, 0
3, 247200, Note_on_c, 0, 56, 0
3, 247200, Note_on_c, 0, 51, 0
3, 247200, Note_on_c, 0, 51, 22
3, 247200, Note_on_c, 0, 56, 22
3, 247200, Note_on_c, 0, 60, 25
3, 247680, Note_on_c, 0, 60, 0
3, 247680, Note_on_c, 0, 56, 0
3, 247680, Note_on_c, 0, 51, 0
3, 247680, Control_c, 0, 64, 0
3, 247680, Note_on_c, 0, 45, 37
3, 247840, Control_c, 0, 64, 127
3, 248160, Note_on_c, 0, 45, 0
3, 248160, Note_on_c, 0, 53, 31
3, 248160, Note_on_c, 0, 60, 31
3, 248160, Note_on_c, 0, 63, 36
3, 248640, Note_on_c, 0, 63, 0
3, 248640, Note_on_c, 0, 60, 0
3, 248640, Note_on_c, 0, 53, 0
3, 248640, Note_on_c, 0, 53, 27
3, 248640, Note_on_c, 0, 63, 30
3, 248640, Note_on_c, 0, 60, 27
3, 249120, Note_on_c, 0, 60, 0
3, 249120, Note_on_c, 0, 63, 0
3, 249120, Note_on_c, 0, 53, 0
3, 249120, Note_on_c, 0, 46, 37
3, 249133, Control_c, 0, 64, 0
3, 249269, Control_c, 0, 64, 127
3, 249600, Note_on_c, 0, 46, 0
3, 249600, Note_on_c, 0, 53, 31
3, 249600, Note_on_c, 0, 58, 31
3, 249600, Note_on_c, 0, 61, 36
3, 250080, Note_on_c, 0, 61, 0
3, 250080, Note_on_c, 0, 58, 0
3, 250080, Note_on_c, 0, 53, 0
3, 250080, Control_c, 0, 64, 0
3, 250080, Note_on_c, 0, 53, 27
3, 250080, Note_on_c, 0, 61, 30
3, 250080, Note_on_c, 0, 58, 27
3, 250560, Note_on_c, 0, 58, 0
3, 250560, Note_on_c, 0, 61, 0
3, 250560, Note_on_c, 0, 53, 0
3, 250560, Note_on_c, 0, 47, 42
3, 250720, Control_c, 0, 64, 127
3, 251040, Note_on_c, 0, 47, 0
3, 251040, Note_on_c, 0, 65, 37
3, 251040, Note_on_c, 0, 55, 33
3, 251040, Note_on_c, 0, 62, 33
3, 251520, Note_on_c, 0, 62, 0
3, 251520, Note_on_c, 0, 55, 0
3, 251520, Note_on_c, 0, 65, 0
3, 251520, Note_on_c, 0, 55, 28
3, 251520, Note_on_c, 0, 65, 31
3, 251520, Note_on_c, 0, 62, 28
3, 252000, Note_on_c, 0, 62, 0
3, 252000, Note_on_c, 0, 65, 0
3, 252000, Note_on_c, 0, 55, 0
3, 252000, Note_on_c, 0, 48, 38
3, 252011, Control_c, 0, 64, 0
3, 252149, Control_c, 0, 64, 127
3, 252480, Note_on_c, 0, 48, 0
3, 252480, Note_on_c, 0, 55, 33
3, 252480, Note_on_c, 0, 60, 33
3, 252480, Note_on_c, 0, 64, 37
3, 252960, Note_on_c, 0, 64, 0
3, 252960, Note_on_c, 0, 60, 0
3, 252960, Note_on_c, 0, 55, 0
3, 252960, Control_c, 0, 64, 0
3, 252960, Note_on_c, 0, 55, 28
3, 252960, Note_on_c, 0, 64, 31
3, 252960, Note_on_c, 0, 60, 28
3, 253440, Note_on_c, 0, 60, 0
3, 253440, Note_on_c, 0, 64, 0
3, 253440, Note_on_c, 0, 55, 0
3, 253440, Note_on_c, 0, 48, 44
3, 253506, Control_c, 0, 64, 127
3, 253920, Note_on_c, 0, 48, 0
3, 253920, Note_on_c, 0, 56, 37
3, 253920, Note_on_c, 0, 60, 37
3, 253920, Note_on_c, 0, 62, 42
3, 254400, Note_on_c, 0, 62, 0
3, 254400, Note_on_c, 0, 60, 0
3, 254400, Note_on_c, 0, 56, 0
3, 254400, Note_on_c, 0, 56, 31
3, 254400, Note_on_c, 0, 62, 36
3, 254400, Note_on_c, 0, 60, 31
3, 254880, Note_on_c, 0, 60, 0
3, 254880, Note_on_c, 0, 62, 0
3, 254880, Note_on_c, 0, 56, 0
3, 254880, Note_on_c, 0, 48, 45
3, 254892, Control_c, 0, 64, 0
3, 255063, Control_c, 0, 64, 127
3, 255360, Note_on_c, 0, 48, 0
3, 255360, Note_on_c, 0, 55, 26
3, 255360, Note_on_c, 0, 60, 26
3, 255360, Note_on_c, 0, 64, 29
3, 255840, Note_on_c, 0, 64, 0
3, 255840, Note_on_c, 0, 60, 0
3, 255840, Note_on_c, 0, 55, 0
3, 255840, Note_on_c, 0, 55, 35
3, 255840, Note_on_c, 0, 60, 35
3, 255840, Note_on_c, 0, 64, 38
3, 256320, Note_on_c, 0, 64, 0
3, 256320, Note_on_c, 0, 60, 0
3, 256320, Note_on_c, 0, 55, 0
3, 256320, Control_c, 0, 64, 0
3, 256320, Note_on_c, 0, 48, 46
3, 256571, Control_c, 0, 64, 127
3, 256800, Note_on_c, 0, 48, 0
3, 256800, Note_on_c, 0, 53, 39
3, 256800, Note_on_c, 0, 62, 45
3, 256800, Note_on_c, 0, 56, 39
3, 257280, Note_on_c, 0, 56, 0
3, 257280, Note_on_c, 0, 62, 0
3, 257280, Note_on_c, 0, 53, 0
3, 257280, Note_on_c, 0, 53, 29
3, 257280, Note_on_c, 0, 62, 34
3, 257280, Note_on_c, 0, 56, 29
3, 257760, Note_on_c, 0, 56, 0
3, 257760, Note_on_c, 0, 62, 0
3, 257760, Note_on_c, 0, 53, 0
3, 257760, Note_on_c, 0, 48, 46
3, 257772, Control_c, 0, 64, 0
3, 258027, Control_c, 0, 64, 127
3, 258240, Note_on_c, 0, 48, 0
3, 258240, Note_on_c, 0, 60, 30
3, 258240, Note_on_c, 0, 55, 27
3, 258720, Note_on_c, 0, 55, 0
3, 258720, Note_on_c, 0, 60, 0
3, 258720, Note_on_c, 0, 60, 42
3, 258720, Note_on_c, 0, 55, 37
3, 259200, Note_on_c, 0, 55, 0
3, 259200, Note_on_c, 0, 60, 0
3, 259200, Control_c, 0, 64, 0
3, 259200, Note_on_c, 0, 48, 45
3, 259333, Control_c, 0, 64, 127
3, 259680, Note_on_c, 0, 48, 0
3, 259680, Note_on_c, 0, 56, 39
3, 259680, Note_on_c, 0, 60, 39
3, 259680, Note_on_c, 0, 62, 45
3, 260160, Note_on_c, 0, 62, 0
3, 260160, Note_on_c, 0, 60, 0
3, 260160, Note_on_c, 0, 56, 0
3, 260160, Note_on_c, 0, 56, 35
3, 260160, Note_on_c, 0, 62, 39
3, 260160, Note_on_c, 0, 60, 35
3, 260640, Note_on_c, 0, 60, 0
3, 260640, Note_on_c, 0, 62, 0
3, 260640, Note_on_c, 0, 56, 0
3, 260640, Note_on_c, 0, 48, 44
3, 260652, Control_c, 0, 64, 0
3, 260869, Control_c, 0, 64, 127
3, 261120, Note_on_c, 0, 48, 0
3, 261120, Note_on_c, 0, 55, 35
3, 261120, Note_on_c, 0, 60, 35
3, 261120, Note_on_c, 0, 64, 38
3, 261600, Note_on_c, 0, 64, 0
3, 261600, Note_on_c, 0, 60, 0
3, 261600, Note_on_c, 0, 55, 0
3, 261600, Note_on_c, 0, 55, 40
3, 261600, Note_on_c, 0, 60, 40
3, 261600, Note_on_c, 0, 64, 46
3, 262080, Note_on_c, 0, 64, 0
3, 262080, Note_on_c, 0, 60, 0
3, 262080, Note_on_c, 0, 55, 0
3, 262080, Control_c, 0, 64, 0
3, 262080, Note_on_c, 0, 48, 44
3, 262229, Control_c, 0, 64, 127
3, 262560, Note_on_c, 0, 48, 0
3, 262560, Note_on_c, 0, 53, 37
3, 262560, Note_on_c, 0, 56, 37
3, 262560, Note_on_c, 0, 62, 42
3, 263040, Note_on_c, 0, 62, 0
3, 263040, Note_on_c, 0, 56, 0
3, 263040, Note_on_c, 0, 53, 0
3, 263040, Note_on_c, 0, 53, 31
3, 263040, Note_on_c, 0, 62, 36
3, 263040, Note_on_c, 0, 56, 31
3, 263520, Note_on_c, 0, 56, 0
3, 263520, Note_on_c, 0, 62, 0
3, 263520, Note_on_c, 0, 53, 0
3, 263520, Note_on_c, 0, 48, 44
3, 263532, Control_c, 0, 64, 0
3, 263669, Control_c, 0, 64, 127
3, 264000, Note_on_c, 0, 48, 0
3, 264000, Note_on_c, 0, 55, 29
3, 264000, Note_on_c, 0, 60, 29
3, 264000, Note_on_c, 0, 64, 34
3, 264480, Note_on_c, 0, 64, 0
3, 264480, Note_on_c, 0, 60, 0
3, 264480, Note_on_c, 0, 55, 0
3, 264480, Control_c, 0, 64, 0
3, 264960, Note_on_c, 0, 48, 44
3, 265109, Control_c, 0, 64, 127
3, 265440, Note_on_c, 0, 48, 0
3, 265440, Note_on_c, 0, 55, 29
3, 265440, Note_on_c, 0, 60, 29
3, 265440, Note_on_c, 0, 64, 34
3, 265920, Note_on_c, 0, 64, 0
3, 265920, Note_on_c, 0, 60, 0
3, 265920, Note_on_c, 0, 55, 0
3, 265920, Control_c, 0, 64, 0
3, 266400, Note_on_c, 0, 48, 44
3, 266549, Control_c, 0, 64, 127
3, 266880, Note_on_c, 0, 48, 0
3, 266880, Note_on_c, 0, 55, 29
3, 266880, Note_on_c, 0, 60, 29
3, 266880, Note_on_c, 0, 64, 34
3, 267360, Note_on_c, 0, 64, 0
3, 267360, Note_on_c, 0, 60, 0
3, 267360, Note_on_c, 0, 55, 0
3, 267374, Control_c, 0, 64, 0
3, 267508, Control_c, 0, 64, 127
3, 268331, Control_c, 0, 64, 0
3, 268434, Control_c, 0, 64, 127
3, 269280, Note_on_c, 0, 58, 44
3, 269288, Control_c, 0, 64, 0
3, 269440, Control_c, 0, 64, 127
3, 269760, Note_on_c, 0, 58, 0
3, 269760, Note_on_c, 0, 65, 37
3, 269760, Note_on_c, 0, 61, 33
3, 270240, Note_on_c, 0, 61, 0
3, 270240, Note_on_c, 0, 65, 0
3, 270240, Note_on_c, 0, 65, 38
3, 270240, Note_on_c, 0, 61, 34
3, 270720, Note_on_c, 0, 61, 0
3, 270720, Note_on_c, 0, 65, 0
3, 270720, Note_on_c, 0, 56, 46
3, 270732, Control_c, 0, 64, 0
3, 270857, Control_c, 0, 64, 127
3, 271200, Note_on_c, 0, 56, 0
3, 271200, Note_on_c, 0, 65, 38
3, 271200, Note_on_c, 0, 61, 34
3, 271200, Note_on_c, 0, 58, 34
3, 271680, Note_on_c, 0, 58, 0
3, 271680, Note_on_c, 0, 61, 0
3, 271680, Note_on_c, 0, 65, 0
3, 271680, Note_on_c, 0, 65, 39
3, 271680, Note_on_c, 0, 61, 35
3, 271680, Note_on_c, 0, 58, 35
3, 272160, Note_on_c, 0, 58, 0
3, 272160, Note_on_c, 0, 61, 0
3, 272160, Note_on_c, 0, 65, 0
3, 272160, Note_on_c, 0, 55, 49
3, 272170, Control_c, 0, 64, 0
3, 272297, Control_c, 0, 64, 127
3, 272640, Note_on_c, 0, 55, 0
3, 272640, Note_on_c, 0, 65, 40
3, 272640, Note_on_c, 0, 62, 36
3, 272640, Note_on_c, 0, 59, 36
3, 273120, Note_on_c, 0, 59, 0
3, 273120, Note_on_c, 0, 62, 0
3, 273120, Note_on_c, 0, 65, 0
3, 273120, Note_on_c, 0, 65, 41
3, 273120, Note_on_c, 0, 62, 36
3, 273120, Note_on_c, 0, 59, 36
3, 273600, Note_on_c, 0, 59, 0
3, 273600, Note_on_c, 0, 62, 0
3, 273600, Note_on_c, 0, 65, 0
3, 273600, Control_c, 0, 64, 0
3, 273600, Note_on_c, 0, 48, 55
3, 273783, Control_c, 0, 64, 127
3, 274080, Note_on_c, 0, 48, 0
3, 274080, Note_on_c, 0, 67, 44
3, 274080, Note_on_c, 0, 60, 44
3, 274080, Note_on_c, 0, 55, 44
3, 274560, Note_on_c, 0, 55, 0
3, 274560, Note_on_c, 0, 60, 0
3, 274560, Note_on_c, 0, 67, 0
3, 274560, Note_on_c, 0, 67, 49
3, 274560, Note_on_c, 0, 60, 49
3, 274560, Note_on_c, 0, 55, 49
3, 275040, Note_on_c, 0, 55, 0
3, 275040, Note_on_c, 0, 60, 0
3, 275040, Note_on_c, 0, 67, 0
3, 275040, Note_on_c, 0, 53, 49
3, 275050, Control_c, 0, 64, 0
3, 275177, Control_c, 0, 64, 127
3, 275520, Note_on_c, 0, 53, 0
3, 275520, Note_on_c, 0, 65, 40
3, 275520, Note_on_c, 0, 60, 36
3, 275520, Note_on_c, 0, 57, 36
3, 276000, Note_on_c, 0, 57, 0
3, 276000, Note_on_c, 0, 60, 0
3, 276000, Note_on_c, 0, 65, 0
3, 276000, Note_on_c, 0, 65, 41
3, 276000, Note_on_c, 0, 60, 36
3, 276000, Note_on_c, 0, 57, 36
3, 276480, Note_on_c, 0, 57, 0
3, 276480, Note_on_c, 0, 60, 0
3, 276480, Note_on_c, 0, 65, 0
3, 276480, Note_on_c, 0, 46, 52
3, 276491, Control_c, 0, 64, 0
3, 276663, Control_c, 0, 64, 127
3, 276960, Note_on_c, 0, 46, 0
3, 276960, Note_on_c, 0, 65, 39
3, 276960, Note_on_c, 0, 61, 39
3, 276960, Note_on_c, 0, 58, 39
3, 277440, Note_on_c, 0, 58, 0
3, 277440, Note_on_c, 0, 61, 0
3, 277440, Note_on_c, 0, 65, 0
3, 277440, Note_on_c, 0, 65, 44
3, 277440, Note_on_c, 0, 61, 44
3, 277440, Note_on_c, 0, 58, 44
3, 277920, Note_on_c, 0, 58, 0
3, 277920, Note_on_c, 0, 61, 0
3, 277920, Note_on_c, 0, 65, 0
3, 277920, Note_on_c, 0, 49, 48
3, 277927, Control_c, 0, 64, 0
3, 278103, Control_c, 0, 64, 127
3, 278400, Note_on_c, 0, 49, 0
3, 278400, Note_on_c, 0, 65, 39
3, 278400, Note_on_c, 0, 61, 39
3, 278400, Note_on_c, 0, 58, 39
3, 278880, Note_on_c, 0, 58, 0
3, 278880, Note_on_c, 0, 61, 0
3, 278880, Note_on_c, 0, 65, 0
3, 278880, Note_on_c, 0, 65, 39
3, 278880, Note_on_c, 0, 61, 39
3, 278880, Note_on_c, 0, 58, 39
3, 279360, Note_on_c, 0, 58, 0
3, 279360, Note_on_c, 0, 61, 0
3, 279360, Note_on_c, 0, 65, 0
3, 279360, Note_on_c, 0, 51, 48
3, 279375, Control_c, 0, 64, 0
3, 279463, Control_c, 0, 64, 127
3, 279840, Note_on_c, 0, 51, 0
3, 279840, Note_on_c, 0, 58, 35
3, 279840, Note_on_c, 0, 61, 35
3, 279840, Note_on_c, 0, 63, 39
3, 280320, Note_on_c, 0, 63, 0
3, 280320, Note_on_c, 0, 61, 0
3, 280320, Note_on_c, 0, 58, 0
3, 280320, Note_on_c, 0, 58, 35
3, 280320, Note_on_c, 0, 61, 35
3, 280320, Note_on_c, 0, 63, 39
3, 280800, Note_on_c, 0, 63, 0
3, 280800, Note_on_c, 0, 61, 0
3, 280800, Note_on_c, 0, 58, 0
3, 280800, Note_on_c, 0, 58, 44
3, 280810, Control_c, 0, 64, 0
3, 280903, Control_c, 0, 64, 127
3, 281280, Note_on_c, 0, 58, 0
3, 281280, Note_on_c, 0, 65, 37
3, 281280, Note_on_c, 0, 61, 33
3, 281760, Note_on_c, 0, 61, 0
3, 281760, Note_on_c, 0, 65, 0
3, 281760, Note_on_c, 0, 65, 38
3, 281760, Note_on_c, 0, 61, 34
3, 282240, Note_on_c, 0, 61, 0
3, 282240, Note_on_c, 0, 65, 0
3, 282240, Note_on_c, 0, 56, 46
3, 282251, Control_c, 0, 64, 0
3, 282377, Control_c, 0, 64, 127
3, 282720, Note_on_c, 0, 56, 0
3, 282720, Note_on_c, 0, 65, 38
3, 282720, Note_on_c, 0, 61, 34
3, 282720, Note_on_c, 0, 58, 34
3, 283200, Note_on_c, 0, 58, 0
3, 283200, Note_on_c, 0, 61, 0
3, 283200, Note_on_c, 0, 65, 0
3, 283200, Note_on_c, 0, 65, 39
3, 283200, Note_on_c, 0, 61, 35
3, 283200, Note_on_c, 0, 58, 35
3, 283680, Note_on_c, 0, 58, 0
3, 283680, Note_on_c, 0, 61, 0
3, 283680, Note_on_c, 0, 65, 0
3, 283680, Note_on_c, 0, 55, 49
3, 283688, Control_c, 0, 64, 0
3, 283817, Control_c, 0, 64, 127
3, 284160, Note_on_c, 0, 55, 0
3, 284160, Note_on_c, 0, 65, 40
3, 284160, Note_on_c, 0, 62, 36
3, 284160, Note_on_c, 0, 59, 36
3, 284640, Note_on_c, 0, 59, 0
3, 284640, Note_on_c, 0, 62, 0
3, 284640, Note_on_c, 0, 65, 0
3, 284640, Note_on_c, 0, 65, 41
3, 284640, Note_on_c, 0, 62, 36
3, 284640, Note_on_c, 0, 59, 36
3, 285120, Note_on_c, 0, 59, 0
3, 285120, Note_on_c, 0, 62, 0
3, 285120, Note_on_c, 0, 65, 0
3, 285120, Note_on_c, 0, 48, 55
3, 285128, Control_c, 0, 64, 0
3, 285303, Control_c, 0, 64, 127
3, 285600, Note_on_c, 0, 48, 0
3, 285600, Note_on_c, 0, 67, 49
3, 285600, Note_on_c, 0, 60, 49
3, 285600, Note_on_c, 0, 55, 49
3, 286080, Note_on_c, 0, 55, 0
3, 286080, Note_on_c, 0, 60, 0
3, 286080, Note_on_c, 0, 67, 0
3, 286080, Note_on_c, 0, 67, 49
3, 286080, Note_on_c, 0, 60, 49
3, 286080, Note_on_c, 0, 55, 49
3, 286560, Note_on_c, 0, 55, 0
3, 286560, Note_on_c, 0, 60, 0
3, 286560, Note_on_c, 0, 67, 0
3, 286560, Note_on_c, 0, 53, 49
3, 286569, Control_c, 0, 64, 0
3, 286697, Control_c, 0, 64, 127
3, 287040, Note_on_c, 0, 53, 0
3, 287040, Note_on_c, 0, 65, 40
3, 287040, Note_on_c, 0, 60, 36
3, 287040, Note_on_c, 0, 57, 36
3, 287520, Note_on_c, 0, 57, 0
3, 287520, Note_on_c, 0, 60, 0
3, 287520, Note_on_c, 0, 65, 0
3, 287520, Note_on_c, 0, 65, 41
3, 287520, Note_on_c, 0, 60, 36
3, 287520, Note_on_c, 0, 57, 36
3, 288000, Note_on_c, 0, 57, 0
3, 288000, Note_on_c, 0, 60, 0
3, 288000, Note_on_c, 0, 65, 0
3, 288000, Note_on_c, 0, 46, 52
3, 288010, Control_c, 0, 64, 0
3, 288183, Control_c, 0, 64, 127
3, 288480, Note_on_c, 0, 46, 0
3, 288480, Note_on_c, 0, 65, 39
3, 288480, Note_on_c, 0, 61, 39
3, 288480, Note_on_c, 0, 58, 39
3, 288960, Note_on_c, 0, 58, 0
3, 288960, Note_on_c, 0, 61, 0
3, 288960, Note_on_c, 0, 65, 0
3, 288960, Note_on_c, 0, 65, 44
3, 288960, Note_on_c, 0, 61, 44
3, 288960, Note_on_c, 0, 58, 44
3, 289440, Note_on_c, 0, 58, 0
3, 289440, Note_on_c, 0, 61, 0
3, 289440, Note_on_c, 0, 65, 0
3, 289440, Note_on_c, 0, 49, 48
3, 289449, Control_c, 0, 64, 0
3, 289623, Control_c, 0, 64, 127
3, 289920, Note_on_c, 0, 49, 0
3, 289920, Note_on_c, 0, 65, 39
3, 289920, Note_on_c, 0, 61, 39
3, 289920, Note_on_c, 0, 58, 39
3, 290400, Note_on_c, 0, 58, 0
3, 290400, Note_on_c, 0, 61, 0
3, 290400, Note_on_c, 0, 65, 0
3, 290400, Note_on_c, 0, 65, 39
3, 290400, Note_on_c, 0, 61, 39
3, 290400, Note_on_c, 0, 58, 39
3, 290880, Note_on_c, 0, 58, 0
3, 290880, Note_on_c, 0, 61, 0
3, 290880, Note_on_c, 0, 65, 0
3, 290880, Note_on_c, 0, 51, 45
3, 290889, Control_c, 0, 64, 0
3, 291063, Control_c, 0, 64, 127
3, 291360, Note_on_c, 0, 51, 0
3, 291360, Note_on_c, 0, 63, 37
3, 291360, Note_on_c, 0, 61, 37
3, 291360, Note_on_c, 0, 58, 37
3, 291840, Note_on_c, 0, 58, 0
3, 291840, Note_on_c, 0, 61, 0
3, 291840, Note_on_c, 0, 63, 0
3, 291840, Note_on_c, 0, 63, 37
3, 291840, Note_on_c, 0, 61, 37
3, 291840, Note_on_c, 0, 58, 37
3, 292320, Note_on_c, 0, 58, 0
3, 292320, Note_on_c, 0, 61, 0
3, 292320, Note_on_c, 0, 63, 0
3, 292320, Control_c, 0, 64, 0
3, 292320, Note_on_c, 0, 44, 37
3, 292533, Control_c, 0, 64, 127
3, 292800, Note_on_c, 0, 44, 0
3, 292800, Note_on_c, 0, 51, 31
3, 292800, Note_on_c, 0, 56, 31
3, 292800, Note_on_c, 0, 60, 36
3, 293280, Note_on_c, 0, 60, 0
3, 293280, Note_on_c, 0, 56, 0
3, 293280, Note_on_c, 0, 51, 0
3, 293280, Note_on_c, 0, 51, 27
3, 293280, Note_on_c, 0, 60, 30
3, 293280, Note_on_c, 0, 56, 27
3, 293760, Note_on_c, 0, 56, 0
3, 293760, Note_on_c, 0, 60, 0
3, 293760, Note_on_c, 0, 51, 0
3, 293760, Note_on_c, 0, 39, 44
3, 293771, Control_c, 0, 64, 0
3, 294026, Control_c, 0, 64, 127
3, 294240, Note_on_c, 0, 39, 0
3, 294240, Note_on_c, 0, 51, 22
3, 294240, Note_on_c, 0, 56, 22
3, 294240, Note_on_c, 0, 60, 25
3, 294720, Note_on_c, 0, 60, 0
3, 294720, Note_on_c, 0, 56, 0
3, 294720, Note_on_c, 0, 51, 0
3, 294720, Note_on_c, 0, 51, 29
3, 294720, Note_on_c, 0, 56, 29
3, 294720, Note_on_c, 0, 60, 33
3, 295200, Note_on_c, 0, 60, 0
3, 295200, Note_on_c, 0, 56, 0
3, 295200, Note_on_c, 0, 51, 0
3, 295200, Control_c, 0, 64, 0
3, 295200, Note_on_c, 0, 46, 39
3, 295440, Control_c, 0, 64, 127
3, 295680, Note_on_c, 0, 46, 0
3, 295680, Note_on_c, 0, 51, 34
3, 295680, Note_on_c, 0, 61, 38
3, 295680, Note_on_c, 0, 55, 34
3, 296160, Note_on_c, 0, 55, 0
3, 296160, Note_on_c, 0, 61, 0
3, 296160, Note_on_c, 0, 51, 0
3, 296160, Note_on_c, 0, 51, 25
3, 296160, Note_on_c, 0, 61, 28
3, 296160, Note_on_c, 0, 55, 25
3, 296640, Note_on_c, 0, 55, 0
3, 296640, Note_on_c, 0, 61, 0
3, 296640, Note_on_c, 0, 51, 0
3, 296640, Note_on_c, 0, 39, 39
3, 296652, Control_c, 0, 64, 0
3, 296907, Control_c, 0, 64, 127
3, 297120, Note_on_c, 0, 39, 0
3, 297120, Note_on_c, 0, 61, 26
3, 297120, Note_on_c, 0, 51, 23
3, 297120, Note_on_c, 0, 55, 23
3, 297600, Note_on_c, 0, 55, 0
3, 297600, Note_on_c, 0, 51, 0
3, 297600, Note_on_c, 0, 61, 0
3, 297600, Note_on_c, 0, 61, 36
3, 297600, Note_on_c, 0, 51, 31
3, 297600, Note_on_c, 0, 55, 31
3, 298080, Note_on_c, 0, 55, 0
3, 298080, Note_on_c, 0, 51, 0
3, 298080, Note_on_c, 0, 61, 0
3, 298080, Control_c, 0, 64, 0
3, 298080, Note_on_c, 0, 44, 38
3, 298373, Control_c, 0, 64, 127
3, 298560, Note_on_c, 0, 44, 0
3, 298560, Note_on_c, 0, 51, 34
3, 298560, Note_on_c, 0, 56, 34
3, 298560, Note_on_c, 0, 60, 38
3, 299040, Note_on_c, 0, 60, 0
3, 299040, Note_on_c, 0, 56, 0
3, 299040, Note_on_c, 0, 51, 0
3, 299040, Note_on_c, 0, 51, 29
3, 299040, Note_on_c, 0, 60, 34
3, 299040, Note_on_c, 0, 56, 29
3, 299520, Note_on_c, 0, 56, 0
3, 299520, Note_on_c, 0, 60, 0
3, 299520, Note_on_c, 0, 51, 0
3, 299520, Note_on_c, 0, 39, 55
3, 299530, Control_c, 0, 64, 0
3, 299662, Control_c, 0, 64, 127
3, 300000, Note_on_c, 0, 39, 0
3, 300000, Note_on_c, 0, 54, 31
3, 300000, Note_on_c, 0, 56, 31
3, 300000, Note_on_c, 0, 60, 36
3, 300480, Note_on_c, 0, 60, 0
3, 300480, Note_on_c, 0, 56, 0
3, 300480, Note_on_c, 0, 54, 0
3, 300480, Note_on_c, 0, 54, 38
3, 300480, Note_on_c, 0, 56, 38
3, 300480, Note_on_c, 0, 60, 42
3, 300960, Note_on_c, 0, 60, 0
3, 300960, Note_on_c, 0, 56, 0
3, 300960, Note_on_c, 0, 54, 0
3, 300960, Control_c, 0, 64, 0
3, 300960, Note_on_c, 0, 44, 55
3, 301057, Control_c, 0, 64, 127
3, 301290, Note_on_c, 0, 44, 0
3, 301290, Note_on_c, 0, 53, 31
3, 301320, Note_on_c, 0, 56, 37
3, 301350, Note_on_c, 0, 59, 44
3, 301770, Note_on_c, 0, 59, 0
3, 301770, Note_on_c, 0, 56, 0
3, 301770, Note_on_c, 0, 53, 0
3, 301770, Note_on_c, 0, 53, 33
3, 301800, Note_on_c, 0, 56, 40
3, 301830, Note_on_c, 0, 59, 45
3, 302400, Note_on_c, 0, 59, 0
3, 302400, Note_on_c, 0, 56, 0
3, 302400, Note_on_c, 0, 53, 0
3, 302400, Control_c, 0, 64, 0
3, 302400, Note_on_c, 0, 44, 60
3, 302720, Control_c, 0, 64, 127
3, 302880, Note_on_c, 0, 44, 0
3, 302880, Note_on_c, 0, 51, 27
3, 302880, Note_on_c, 0, 56, 27
3, 302880, Note_on_c, 0, 60, 30
3, 303360, Note_on_c, 0, 60, 0
3, 303360, Note_on_c, 0, 56, 0
3, 303360, Note_on_c, 0, 51, 0
3, 303360, Note_on_c, 0, 51, 27
3, 303360, Note_on_c, 0, 56, 27
3, 303360, Note_on_c, 0, 60, 30
3, 303840, Note_on_c, 0, 60, 0
3, 303840, Note_on_c, 0, 56, 0
3, 303840, Note_on_c, 0, 51, 0
3, 303840, Control_c, 0, 64, 0
3, 303840, Note_on_c, 0, 45, 37
3, 304000, Control_c, 0, 64, 127
3, 304320, Note_on_c, 0, 45, 0
3, 304320, Note_on_c, 0, 53, 31
3, 304320, Note_on_c, 0, 60, 31
3, 304320, Note_on_c, 0, 63, 36
3, 304800, Note_on_c, 0, 63, 0
3, 304800, Note_on_c, 0, 60, 0
3, 304800, Note_on_c, 0, 53, 0
3, 304800, Note_on_c, 0, 53, 27
3, 304800, Note_on_c, 0, 63, 30
3, 304800, Note_on_c, 0, 60, 27
3, 305280, Note_on_c, 0, 60, 0
3, 305280, Note_on_c, 0, 63, 0
3, 305280, Note_on_c, 0, 53, 0
3, 305280, Note_on_c, 0, 46, 37
3, 305292, Control_c, 0, 64, 0
3, 305520, Control_c, 0, 64, 127
3, 305760, Note_on_c, 0, 46, 0
3, 305760, Note_on_c, 0, 53, 31
3, 305760, Note_on_c, 0, 58, 31
3, 305760, Note_on_c, 0, 61, 36
3, 306240, Note_on_c, 0, 61, 0
3, 306240, Note_on_c, 0, 58, 0
3, 306240, Note_on_c, 0, 53, 0
3, 306240, Control_c, 0, 64, 0
3, 306240, Note_on_c, 0, 53, 27
3, 306240, Note_on_c, 0, 61, 30
3, 306240, Note_on_c, 0, 58, 27
3, 306720, Note_on_c, 0, 58, 0
3, 306720, Note_on_c, 0, 61, 0
3, 306720, Note_on_c, 0, 53, 0
3, 306720, Note_on_c, 0, 43, 37
3, 306880, Control_c, 0, 64, 127
3, 307200, Note_on_c, 0, 43, 0
3, 307200, Note_on_c, 0, 51, 31
3, 307200, Note_on_c, 0, 58, 31
3, 307200, Note_on_c, 0, 61, 36
3, 307680, Note_on_c, 0, 61, 0
3, 307680, Note_on_c, 0, 58, 0
3, 307680, Note_on_c, 0, 51, 0
3, 307680, Note_on_c, 0, 51, 27
3, 307680, Note_on_c, 0, 61, 30
3, 307680, Note_on_c, 0, 58, 27
3, 308160, Note_on_c, 0, 58, 0
3, 308160, Note_on_c, 0, 61, 0
3, 308160, Note_on_c, 0, 51, 0
3, 308160, Note_on_c, 0, 44, 37
3, 308171, Control_c, 0, 64, 0
3, 308309, Control_c, 0, 64, 127
3, 308640, Note_on_c, 0, 44, 0
3, 308640, Note_on_c, 0, 51, 31
3, 308640, Note_on_c, 0, 56, 31
3, 308640, Note_on_c, 0, 60, 36
3, 309120, Note_on_c, 0, 60, 0
3, 309120, Note_on_c, 0, 56, 0
3, 309120, Note_on_c, 0, 51, 0
3, 309120, Control_c, 0, 64, 0
3, 309120, Note_on_c, 0, 51, 27
3, 309120, Note_on_c, 0, 60, 30
3, 309120, Note_on_c, 0, 56, 27
3, 309600, Note_on_c, 0, 56, 0
3, 309600, Note_on_c, 0, 60, 0
3, 309600, Note_on_c, 0, 51, 0
3, 309600, Note_on_c, 0, 42, 37
3, 309717, Control_c, 0, 64, 127
3, 310080, Note_on_c, 0, 42, 0
3, 310080, Note_on_c, 0, 54, 31
3, 310080, Note_on_c, 0, 56, 36
3, 310560, Note_on_c, 0, 56, 0
3, 310560, Note_on_c, 0, 54, 0
3, 310560, Note_on_c, 0, 56, 30
3, 310560, Note_on_c, 0, 54, 27
3, 311040, Note_on_c, 0, 54, 0
3, 311040, Note_on_c, 0, 56, 0
3, 311040, Control_c, 0, 64, 0
3, 311040, Note_on_c, 0, 41, 44
3, 311280, Control_c, 0, 64, 127
3, 311520, Note_on_c, 0, 41, 0
3, 311520, Note_on_c, 0, 53, 25
3, 311520, Note_on_c, 0, 56, 28
3, 312000, Note_on_c, 0, 56, 0
3, 312000, Note_on_c, 0, 53, 0
3, 312000, Note_on_c, 0, 53, 29
3, 312000, Note_on_c, 0, 56, 33
3, 312480, Note_on_c, 0, 56, 0
3, 312480, Note_on_c, 0, 53, 0
3, 312480, Note_on_c, 0, 40, 37
3, 312495, Control_c, 0, 64, 0
3, 312709, Control_c, 0, 64, 127
3, 312960, Note_on_c, 0, 40, 0
3, 312960, Note_on_c, 0, 52, 31
3, 312960, Note_on_c, 0, 56, 36
3, 313440, Note_on_c, 0, 56, 0
3, 313440, Note_on_c, 0, 52, 0
3, 313440, Note_on_c, 0, 52, 27
3, 313440, Note_on_c, 0, 56, 30
3, 313920, Note_on_c, 0, 56, 0
3, 313920, Note_on_c, 0, 52, 0
3, 313920, Note_on_c, 0, 39, 37
3, 313929, Control_c, 0, 64, 0
3, 314173, Control_c, 0, 64, 127
3, 314400, Note_on_c, 0, 39, 0
3, 314400, Note_on_c, 0, 51, 29
3, 314400, Note_on_c, 0, 58, 34
3, 314880, Note_on_c, 0, 58, 0
3, 314880, Note_on_c, 0, 51, 0
3, 314880, Note_on_c, 0, 58, 28
3, 314880, Note_on_c, 0, 51, 25
3, 315360, Note_on_c, 0, 51, 0
3, 315360, Note_on_c, 0, 58, 0
3, 315360, Control_c, 0, 64, 0
3, 315360, Note_on_c, 0, 44, 37
3, 315680, Control_c, 0, 64, 127
3, 315840, Note_on_c, 0, 44, 0
3, 315840, Note_on_c, 0, 51, 27
3, 315840, Note_on_c, 0, 56, 27
3, 315840, Note_on_c, 0, 60, 32
3, 316320, Note_on_c, 0, 60, 0
3, 316320, Note_on_c, 0, 56, 0
3, 316320, Note_on_c, 0, 51, 0
3, 316320, Note_on_c, 0, 51, 24
3, 316320, Note_on_c, 0, 60, 27
3, 316320, Note_on_c, 0, 56, 24
3, 316800, Note_on_c, 0, 56, 0
3, 316800, Note_on_c, 0, 60, 0
3, 316800, Note_on_c, 0, 51, 0
3, 316800, Note_on_c, 0, 39, 44
3, 316816, Control_c, 0, 64, 0
3, 317013, Control_c, 0, 64, 127
3, 317280, Note_on_c, 0, 39, 0
3, 317280, Note_on_c, 0, 51, 19
3, 317280, Note_on_c, 0, 56, 19
3, 317280, Note_on_c, 0, 60, 22
3, 317760, Note_on_c, 0, 60, 0
3, 317760, Note_on_c, 0, 56, 0
3, 317760, Note_on_c, 0, 51, 0
3, 317760, Note_on_c, 0, 51, 26
3, 317760, Note_on_c, 0, 56, 26
3, 317760, Note_on_c, 0, 60, 29
3, 318240, Note_on_c, 0, 60, 0
3, 318240, Note_on_c, 0, 56, 0
3, 318240, Note_on_c, 0, 51, 0
3, 318240, Control_c, 0, 64, 0
3, 318240, Note_on_c, 0, 46, 39
3, 318533, Control_c, 0, 64, 127
3, 318720, Note_on_c, 0, 46, 0
3, 318720, Note_on_c, 0, 51, 30
3, 318720, Note_on_c, 0, 61, 34
3, 318720, Note_on_c, 0, 55, 30
3, 319200, Note_on_c, 0, 55, 0
3, 319200, Note_on_c, 0, 61, 0
3, 319200, Note_on_c, 0, 51, 0
3, 319200, Note_on_c, 0, 51, 22
3, 319200, Note_on_c, 0, 61, 25
3, 319200, Note_on_c, 0, 55, 22
3, 319680, Note_on_c, 0, 55, 0
3, 319680, Note_on_c, 0, 61, 0
3, 319680, Note_on_c, 0, 51, 0
3, 319680, Note_on_c, 0, 39, 39
3, 319692, Control_c, 0, 64, 0
3, 319947, Control_c, 0, 64, 127
3, 320160, Note_on_c, 0, 39, 0
3, 320160, Note_on_c, 0, 61, 23
3, 320160, Note_on_c, 0, 51, 20
3, 320160, Note_on_c, 0, 55, 20
3, 320640, Note_on_c, 0, 55, 0
3, 320640, Note_on_c, 0, 51, 0
3, 320640, Note_on_c, 0, 61, 0
3, 320640, Note_on_c, 0, 61, 32
3, 320640, Note_on_c, 0, 51, 27
3, 320640, Note_on_c, 0, 55, 27
3, 321120, Note_on_c, 0, 55, 0
3, 321120, Note_on_c, 0, 51, 0
3, 321120, Note_on_c, 0, 61, 0
3, 321120, Note_on_c, 0, 44, 38
3, 321127, Control_c, 0, 64, 0
3, 321387, Control_c, 0, 64, 127
3, 321600, Note_on_c, 0, 44, 0
3, 321600, Note_on_c, 0, 51, 30
3, 321600, Note_on_c, 0, 56, 30
3, 321600, Note_on_c, 0, 60, 34
3, 322080, Note_on_c, 0, 60, 0
3, 322080, Note_on_c, 0, 56, 0
3, 322080, Note_on_c, 0, 51, 0
3, 322080, Note_on_c, 0, 51, 26
3, 322080, Note_on_c, 0, 60, 30
3, 322080, Note_on_c, 0, 56, 26
3, 322560, Note_on_c, 0, 56, 0
3, 322560, Note_on_c, 0, 60, 0
3, 322560, Note_on_c, 0, 51, 0
3, 322560, Note_on_c, 0, 39, 59
3, 322568, Control_c, 0, 64, 0
3, 322729, Control_c, 0, 64, 127
3, 323040, Note_on_c, 0, 39, 0
3, 323040, Note_on_c, 0, 54, 27
3, 323040, Note_on_c, 0, 56, 27
3, 323040, Note_on_c, 0, 60, 32
3, 323520, Note_on_c, 0, 60, 0
3, 323520, Note_on_c, 0, 56, 0
3, 323520, Note_on_c, 0, 54, 0
3, 323520, Note_on_c, 0, 54, 34
3, 323520, Note_on_c, 0, 56, 34
3, 323520, Note_on_c, 0, 60, 37
3, 324000, Note_on_c, 0, 60, 0
3, 324000, Note_on_c, 0, 56, 0
3, 324000, Note_on_c, 0, 54, 0
3, 324000, Note_on_c, 0, 44, 60
3, 324010, Control_c, 0, 64, 0
3, 324103, Control_c, 0, 64, 127
3, 324330, Note_on_c, 0, 44, 0
3, 324330, Note_on_c, 0, 53, 29
3, 324360, Note_on_c, 0, 56, 36
3, 324390, Note_on_c, 0, 59, 44
3, 324810, Note_on_c, 0, 59, 0
3, 324810, Note_on_c, 0, 56, 0
3, 324810, Note_on_c, 0, 53, 0
3, 324810, Note_on_c, 0, 53, 33
3, 324840, Note_on_c, 0, 56, 39
3, 324870, Note_on_c, 0, 59, 45
3, 325440, Note_on_c, 0, 59, 0
3, 325440, Note_on_c, 0, 56, 0
3, 325440, Note_on_c, 0, 53, 0
3, 325440, Note_on_c, 0, 44, 68
3, 325450, Control_c, 0, 64, 0
3, 325707, Control_c, 0, 64, 127
3, 325920, Note_on_c, 0, 44, 0
3, 325920, Note_on_c, 0, 51, 22
3, 325920, Note_on_c, 0, 56, 22
3, 325920, Note_on_c, 0, 60, 25
3, 326400, Note_on_c, 0, 60, 0
3, 326400, Note_on_c, 0, 56, 0
3, 326400, Note_on_c, 0, 51, 0
3, 326400, Note_on_c, 0, 51, 22
3, 326400, Note_on_c, 0, 56, 22
3, 326400, Note_on_c, 0, 60, 25
3, 326880, Note_on_c, 0, 60, 0
3, 326880, Note_on_c, 0, 56, 0
3, 326880, Note_on_c, 0, 51, 0
3, 326880, Control_c, 0, 64, 0
3, 326880, Note_on_c, 0, 45, 37
3, 327040, Control_c, 0, 64, 127
3, 327360, Note_on_c, 0, 45, 0
3, 327360, Note_on_c, 0, 53, 31
3, 327360, Note_on_c, 0, 60, 31
3, 327360, Note_on_c, 0, 63, 36
3, 327840, Note_on_c, 0, 63, 0
3, 327840, Note_on_c, 0, 60, 0
3, 327840, Note_on_c, 0, 53, 0
3, 327840, Note_on_c, 0, 53, 27
3, 327840, Note_on_c, 0, 63, 30
3, 327840, Note_on_c, 0, 60, 27
3, 328320, Note_on_c, 0, 60, 0
3, 328320, Note_on_c, 0, 63, 0
3, 328320, Note_on_c, 0, 53, 0
3, 328320, Note_on_c, 0, 46, 37
3, 328333, Control_c, 0, 64, 0
3, 328588, Control_c, 0, 64, 127
3, 328800, Note_on_c, 0, 46, 0
3, 328800, Note_on_c, 0, 53, 31
3, 328800, Note_on_c, 0, 58, 31
3, 328800, Note_on_c, 0, 61, 36
3, 329280, Note_on_c, 0, 61, 0
3, 329280, Note_on_c, 0, 58, 0
3, 329280, Note_on_c, 0, 53, 0
3, 329280, Control_c, 0, 64, 0
3, 329280, Note_on_c, 0, 53, 27
3, 329280, Note_on_c, 0, 61, 30
3, 329280, Note_on_c, 0, 58, 27
3, 329760, Note_on_c, 0, 58, 0
3, 329760, Note_on_c, 0, 61, 0
3, 329760, Note_on_c, 0, 53, 0
3, 329760, Note_on_c, 0, 47, 42
3, 329920, Control_c, 0, 64, 127
3, 330240, Note_on_c, 0, 47, 0
3, 330240, Note_on_c, 0, 65, 37
3, 330240, Note_on_c, 0, 55, 33
3, 330240, Note_on_c, 0, 62, 33
3, 330720, Note_on_c, 0, 62, 0
3, 330720, Note_on_c, 0, 55, 0
3, 330720, Note_on_c, 0, 65, 0
3, 330720, Note_on_c, 0, 55, 28
3, 330720, Note_on_c, 0, 65, 31
3, 330720, Note_on_c, 0, 62, 28
3, 331200, Note_on_c, 0, 62, 0
3, 331200, Note_on_c, 0, 65, 0
3, 331200, Note_on_c, 0, 55, 0
3, 331200, Note_on_c, 0, 48, 38
3, 331208, Control_c, 0, 64, 0
3, 331349, Control_c, 0, 64, 127
3, 331680, Note_on_c, 0, 48, 0
3, 331680, Note_on_c, 0, 55, 33
3, 331680, Note_on_c, 0, 60, 33
3, 331680, Note_on_c, 0, 64, 37
3, 332160, Note_on_c, 0, 64, 0
3, 332160, Note_on_c, 0, 60, 0
3, 332160, Note_on_c, 0, 55, 0
3, 332160, Control_c, 0, 64, 0
3, 332160, Note_on_c, 0, 55, 28
3, 332160, Note_on_c, 0, 64, 31
3, 332160, Note_on_c, 0, 60, 28
3, 332640, Note_on_c, 0, 60, 0
3, 332640, Note_on_c, 0, 64, 0
3, 332640, Note_on_c, 0, 55, 0
3, 332640, Note_on_c, 0, 49, 45
3, 332800, Control_c, 0, 64, 127
3, 333120, Note_on_c, 0, 49, 0
3, 333120, Note_on_c, 0, 65, 39
3, 333120, Note_on_c, 0, 58, 35
3, 333120, Note_on_c, 0, 61, 35
3, 333600, Note_on_c, 0, 61, 0
3, 333600, Note_on_c, 0, 58, 0
3, 333600, Note_on_c, 0, 65, 0
3, 333600, Note_on_c, 0, 58, 29
3, 333600, Note_on_c, 0, 65, 34
3, 333600, Note_on_c, 0, 61, 29
3, 334080, Note_on_c, 0, 61, 0
3, 334080, Note_on_c, 0, 65, 0
3, 334080, Note_on_c, 0, 58, 0
3, 334080, Note_on_c, 0, 50, 40
3, 334088, Control_c, 0, 64, 0
3, 334229, Control_c, 0, 64, 127
3, 334560, Note_on_c, 0, 50, 0
3, 334560, Note_on_c, 0, 56, 35
3, 334560, Note_on_c, 0, 59, 35
3, 334560, Note_on_c, 0, 65, 39
3, 335040, Note_on_c, 0, 65, 0
3, 335040, Note_on_c, 0, 59, 0
3, 335040, Note_on_c, 0, 56, 0
3, 335040, Control_c, 0, 64, 0
3, 335040, Note_on_c, 0, 56, 29
3, 335040, Note_on_c, 0, 65, 34
3, 335040, Note_on_c, 0, 59, 29
3, 335520, Note_on_c, 0, 59, 0
3, 335520, Note_on_c, 0, 65, 0
3, 335520, Note_on_c, 0, 56, 0
3, 335520, Note_on_c, 0, 51, 36
3, 335669, Control_c, 0, 64, 127
3, 336000, Note_on_c, 0, 51, 0
3, 336000, Note_on_c, 0, 55, 30
3, 336000, Note_on_c, 0, 61, 30
3, 336000, Note_on_c, 0, 63, 35
3, 336480, Note_on_c, 0, 63, 0
3, 336480, Note_on_c, 0, 61, 0
3, 336480, Note_on_c, 0, 55, 0
3, 336480, Control_c, 0, 64, 0
3, 336480, Note_on_c, 0, 55, 26
3, 336480, Note_on_c, 0, 63, 29
3, 336480, Note_on_c, 0, 61, 26
3, 336960, Note_on_c, 0, 61, 0
3, 336960, Note_on_c, 0, 63, 0
3, 336960, Note_on_c, 0, 55, 0
3, 336960, Note_on_c, 0, 44, 31
3, 337109, Control_c, 0, 64, 127
3, 337440, Note_on_c, 0, 44, 0
3, 337440, Note_on_c, 0, 51, 27
3, 337440, Note_on_c, 0, 56, 27
3, 337440, Note_on_c, 0, 60, 30
3, 337920, Note_on_c, 0, 60, 0
3, 337920, Note_on_c, 0, 56, 0
3, 337920, Note_on_c, 0, 51, 0
3, 337920, Control_c, 0, 64, 0
3, 337920, Note_on_c, 0, 51, 23
3, 337920, Note_on_c, 0, 60, 26
3, 337920, Note_on_c, 0, 56, 23
3, 338400, Note_on_c, 0, 56, 0
3, 338400, Note_on_c, 0, 60, 0
3, 338400, Note_on_c, 0, 51, 0
3, 338400, Note_on_c, 0, 44, 37
3, 338606, Control_c, 0, 64, 127
3, 338880, Note_on_c, 0, 50, 31
3, 338880, Note_on_c, 0, 53, 31
3, 338880, Note_on_c, 0, 56, 36
3, 339360, Note_on_c, 0, 56, 0
3, 339360, Note_on_c, 0, 53, 0
3, 339360, Note_on_c, 0, 50, 0
3, 339360, Note_on_c, 0, 50, 27
3, 339360, Note_on_c, 0, 56, 30
3, 339360, Note_on_c, 0, 53, 27
3, 339840, Note_on_c, 0, 53, 0
3, 339840, Note_on_c, 0, 44, 0
3, 339840, Note_on_c, 0, 50, 0
3, 339840, Note_on_c, 0, 56, 0
3, 339840, Note_on_c, 0, 44, 44
3, 339849, Control_c, 0, 64, 0
3, 340114, Control_c, 0, 64, 127
3, 340320, Note_on_c, 0, 50, 22
3, 340320, Note_on_c, 0, 53, 22
3, 340320, Note_on_c, 0, 56, 25
3, 340800, Note_on_c, 0, 56, 0
3, 340800, Note_on_c, 0, 53, 0
3, 340800, Note_on_c, 0, 50, 0
3, 340800, Note_on_c, 0, 50, 29
3, 340800, Note_on_c, 0, 53, 29
3, 340800, Note_on_c, 0, 56, 33
3, 341280, Note_on_c, 0, 56, 0
3, 341280, Note_on_c, 0, 44, 0
3, 341280, Note_on_c, 0, 50, 0
3, 341280, Note_on_c, 0, 53, 0
3, 341280, Note_on_c, 0, 39, 53
3, 341280, Note_on_c, 0, 51, 53
3, 341281, Control_c, 0, 64, 0
3, 341493, Control_c, 0, 64, 127
3, 341760, Note_on_c, 0, 51, 0
3, 341760, Note_on_c, 0, 39, 0
3, 341760, Note_on_c, 0, 41, 58
3, 341760, Note_on_c, 0, 53, 58
3, 341779, Control_c, 0, 64, 0
3, 342000, Control_c, 0, 64, 127
3, 342720, Note_on_c, 0, 53, 0
3, 342720, Note_on_c, 0, 41, 0
3, 342720, Note_on_c, 0, 43, 62
3, 342720, Note_on_c, 0, 55, 62
3, 342734, Control_c, 0, 64, 0
3, 343040, Control_c, 0, 64, 127
3, 343680, Note_on_c, 0, 55, 0
3, 343680, Note_on_c, 0, 43, 0
3, 343680, Note_on_c, 0, 44, 57
3, 343680, Note_on_c, 0, 56, 57
3, 344160, Note_on_c, 0, 56, 0
3, 344160, Note_on_c, 0, 44, 0
3, 344160, Control_c, 0, 64, 0
3, 344160, Note_on_c, 0, 50, 63
3, 344343, Control_c, 0, 64, 127
3, 344640, Note_on_c, 0, 52, 37
3, 344640, Note_on_c, 0, 56, 42
3, 345120, Note_on_c, 0, 56, 0
3, 345120, Note_on_c, 0, 52, 0
3, 345120, Note_on_c, 0, 56, 36
3, 345120, Note_on_c, 0, 52, 31
3, 345600, Note_on_c, 0, 52, 0
3, 345600, Note_on_c, 0, 56, 0
3, 345600, Note_on_c, 0, 50, 0
3, 345600, Note_on_c, 0, 50, 48
3, 345607, Control_c, 0, 64, 0
3, 345828, Control_c, 0, 64, 127
3, 346080, Note_on_c, 0, 52, 24
3, 346080, Note_on_c, 0, 56, 27
3, 346560, Note_on_c, 0, 56, 0
3, 346560, Note_on_c, 0, 52, 0
3, 346560, Note_on_c, 0, 52, 31
3, 346560, Note_on_c, 0, 56, 36
3, 347040, Note_on_c, 0, 56, 0
3, 347040, Note_on_c, 0, 52, 0
3, 347040, Note_on_c, 0, 50, 0
3, 347040, Note_on_c, 0, 39, 58
3, 347040, Note_on_c, 0, 51, 58
3, 347054, Control_c, 0, 64, 0
3, 347200, Control_c, 0, 64, 127
3, 347520, Note_on_c, 0, 51, 0
3, 347520, Note_on_c, 0, 39, 0
3, 347520, Note_on_c, 0, 41, 63
3, 347520, Note_on_c, 0, 53, 63
3, 347535, Control_c, 0, 64, 0
3, 347760, Control_c, 0, 64, 127
3, 348480, Note_on_c, 0, 53, 0
3, 348480, Note_on_c, 0, 41, 0
3, 348480, Note_on_c, 0, 43, 69
3, 348480, Note_on_c, 0, 55, 69
3, 348497, Control_c, 0, 64, 0
3, 348693, Control_c, 0, 64, 127
3, 349440, Note_on_c, 0, 55, 0
3, 349440, Note_on_c, 0, 43, 0
3, 349440, Note_on_c, 0, 44, 63
3, 349440, Note_on_c, 0, 56, 63
3, 349920, Note_on_c, 0, 56, 0
3, 349920, Note_on_c, 0, 44, 0
3, 349920, Control_c, 0, 64, 0
3, 349920, Note_on_c, 0, 56, 63
3, 350057, Control_c, 0, 64, 127
3, 350400, Note_on_c, 0, 62, 41
3, 350400, Note_on_c, 0, 65, 41
3, 350400, Note_on_c, 0, 68, 47
3, 350880, Note_on_c, 0, 68, 0
3, 350880, Note_on_c, 0, 65, 0
3, 350880, Note_on_c, 0, 62, 0
3, 350880, Note_on_c, 0, 62, 36
3, 350880, Note_on_c, 0, 68, 40
3, 350880, Note_on_c, 0, 65, 36
3, 351360, Note_on_c, 0, 65, 0
3, 351360, Note_on_c, 0, 56, 0
3, 351360, Note_on_c, 0, 62, 0
3, 351360, Note_on_c, 0, 68, 0
3, 351360, Note_on_c, 0, 56, 55
3, 351377, Control_c, 0, 64, 0
3, 351547, Control_c, 0, 64, 127
3, 351840, Note_on_c, 0, 62, 27
3, 351840, Note_on_c, 0, 65, 27
3, 351840, Note_on_c, 0, 68, 30
3, 352320, Note_on_c, 0, 68, 0
3, 352320, Note_on_c, 0, 65, 0
3, 352320, Note_on_c, 0, 62, 0
3, 352320, Note_on_c, 0, 62, 36
3, 352320, Note_on_c, 0, 65, 36
3, 352320, Note_on_c, 0, 68, 40
3, 352800, Note_on_c, 0, 68, 0
3, 352800, Note_on_c, 0, 56, 0
3, 352800, Note_on_c, 0, 62, 0
3, 352800, Note_on_c, 0, 65, 0
3, 352800, Control_c, 0, 64, 0
3, 352800, Note_on_c, 0, 51, 68
3, 352800, Note_on_c, 0, 63, 68
3, 352960, Control_c, 0, 64, 127
3, 353280, Note_on_c, 0, 63, 0
3, 353280, Note_on_c, 0, 51, 0
3, 353280, Note_on_c, 0, 53, 73
3, 353280, Note_on_c, 0, 65, 73
3, 353295, Control_c, 0, 64, 0
3, 353520, Control_c, 0, 64, 127
3, 354240, Note_on_c, 0, 65, 0
3, 354240, Note_on_c, 0, 53, 0
3, 354240, Note_on_c, 0, 55, 79
3, 354240, Note_on_c, 0, 67, 79
3, 354246, Control_c, 0, 64, 0
3, 354586, Control_c, 0, 64, 127
3, 355200, Note_on_c, 0, 67, 0
3, 355200, Note_on_c, 0, 55, 0
3, 355200, Note_on_c, 0, 56, 74
3, 355200, Note_on_c, 0, 68, 74
3, 355680, Note_on_c, 0, 68, 0
3, 355680, Note_on_c, 0, 56, 0
3, 355680, Control_c, 0, 64, 0
3, 355680, Note_on_c, 0, 62, 71
3, 355931, Control_c, 0, 64, 127
3, 356160, Note_on_c, 0, 64, 43
3, 356160, Note_on_c, 0, 68, 50
3, 356640, Note_on_c, 0, 68, 0
3, 356640, Note_on_c, 0, 64, 0
3, 356640, Note_on_c, 0, 68, 42
3, 356640, Note_on_c, 0, 64, 38
3, 357120, Note_on_c, 0, 64, 0
3, 357120, Note_on_c, 0, 68, 0
3, 357120, Note_on_c, 0, 62, 0
3, 357120, Note_on_c, 0, 62, 61
3, 357135, Control_c, 0, 64, 0
3, 357325, Control_c, 0, 64, 127
3, 357600, Note_on_c, 0, 64, 30
3, 357600, Note_on_c, 0, 68, 36
3, 358080, Note_on_c, 0, 68, 0
3, 358080, Note_on_c, 0, 64, 0
3, 358080, Note_on_c, 0, 64, 40
3, 358080, Note_on_c, 0, 68, 46
3, 358560, Note_on_c, 0, 68, 0
3, 358560, Note_on_c, 0, 64, 0
3, 358560, Note_on_c, 0, 62, 0
3, 358560, Control_c, 0, 64, 0
3, 358560, Note_on_c, 0, 51, 76
3, 358560, Note_on_c, 0, 63, 76
3, 358720, Control_c, 0, 64, 127
3, 359040, Note_on_c, 0, 63, 0
3, 359040, Note_on_c, 0, 51, 0
3, 359040, Note_on_c, 0, 53, 84
3, 359040, Note_on_c, 0, 65, 84
3, 359060, Control_c, 0, 64, 0
3, 359280, Control_c, 0, 64, 127
3, 360000, Note_on_c, 0, 65, 0
3, 360000, Note_on_c, 0, 53, 0
3, 360000, Note_on_c, 0, 55, 91
3, 360000, Note_on_c, 0, 67, 91
3, 360008, Control_c, 0, 64, 0
3, 360266, Control_c, 0, 64, 127
3, 360960, Note_on_c, 0, 67, 0
3, 360960, Note_on_c, 0, 55, 0
3, 360960, Note_on_c, 0, 56, 84
3, 360960, Note_on_c, 0, 68, 84
3, 361440, Note_on_c, 0, 68, 0
3, 361440, Note_on_c, 0, 56, 0
3, 361440, Control_c, 0, 64, 0
3, 361440, Note_on_c, 0, 56, 89
3, 361680, Control_c, 0, 64, 127
3, 361920, Note_on_c, 0, 56, 0
3, 361920, Note_on_c, 0, 62, 64
3, 361920, Note_on_c, 0, 64, 64
3, 361920, Note_on_c, 0, 68, 64
3, 361920, Note_on_c, 0, 71, 72
3, 362880, Note_on_c, 0, 71, 0
3, 362880, Note_on_c, 0, 62, 0
3, 362880, Note_on_c, 0, 64, 0
3, 362880, Note_on_c, 0, 68, 0
3, 362880, Note_on_c, 0, 63, 73
3, 362880, Note_on_c, 0, 68, 73
3, 362880, Note_on_c, 0, 72, 73
3, 362887, Control_c, 0, 64, 0
3, 362972, Control_c, 0, 64, 127
3, 363360, Note_on_c, 0, 72, 0
3, 363360, Note_on_c, 0, 68, 0
3, 363360, Note_on_c, 0, 63, 0
3, 363932, Control_c, 0, 64, 0
3, 364320, Note_on_c, 0, 44, 80
3, 364373, Control_c, 0, 64, 127
3, 364800, Note_on_c, 0, 44, 0
3, 364800, Note_on_c, 0, 50, 57
3, 364800, Note_on_c, 0, 52, 57
3, 364800, Note_on_c, 0, 56, 57
3, 364800, Note_on_c, 0, 59, 65
3, 365760, Note_on_c, 0, 59, 0
3, 365760, Note_on_c, 0, 50, 0
3, 365760, Note_on_c, 0, 52, 0
3, 365760, Note_on_c, 0, 56, 0
3, 365760, Note_on_c, 0, 51, 70
3, 365760, Note_on_c, 0, 56, 70
3, 365760, Note_on_c, 0, 60, 70
3, 365769, Control_c, 0, 64, 0
3, 365852, Control_c, 0, 64, 127
3, 366240, Note_on_c, 0, 60, 0
3, 366240, Note_on_c, 0, 56, 0
3, 366240, Note_on_c, 0, 51, 0
3, 366812, Control_c, 0, 64, 0
3, 367200, Note_on_c, 0, 44, 65
3, 367292, Control_c, 0, 64, 127
3, 367680, Note_on_c, 0, 44, 0
3, 367680, Note_on_c, 0, 51, 51
3, 367680, Note_on_c, 0, 56, 51
3, 367680, Note_on_c, 0, 60, 51
3, 368160, Note_on_c, 0, 60, 0
3, 368160, Note_on_c, 0, 56, 0
3, 368160, Note_on_c, 0, 51, 0
3, 368252, Control_c, 0, 64, 0
3, 368640, Note_on_c, 0, 44, 58
3, 368732, Control_c, 0, 64, 127
3, 369120, Note_on_c, 0, 44, 0
3, 369120, Note_on_c, 0, 51, 45
3, 369120, Note_on_c, 0, 56, 45
3, 369120, Note_on_c, 0, 60, 45
3, 369600, Note_on_c, 0, 60, 0
3, 369600, Note_on_c, 0, 56, 0
3, 369600, Note_on_c, 0, 51, 0
3, 369692, Control_c, 0, 64, 0
3, 370080, Note_on_c, 0, 44, 53
3, 370172, Control_c, 0, 64, 127
3, 370560, Note_on_c, 0, 44, 0
3, 370560, Note_on_c, 0, 51, 41
3, 370560, Note_on_c, 0, 56, 41
3, 370560, Note_on_c, 0, 60, 41
3, 371040, Note_on_c, 0, 60, 0
3, 371040, Note_on_c, 0, 56, 0
3, 371040, Note_on_c, 0, 51, 0
3, 371132, Control_c, 0, 64, 0
3, 371520, Note_on_c, 0, 44, 49
3, 371612, Control_c, 0, 64, 127
3, 372000, Note_on_c, 0, 44, 0
3, 372000, Note_on_c, 0, 51, 39
3, 372000, Note_on_c, 0, 56, 39
3, 372000, Note_on_c, 0, 60, 39
3, 372480, Note_on_c, 0, 60, 0
3, 372480, Note_on_c, 0, 56, 0
3, 372480, Note_on_c, 0, 51, 0
3, 372572, Control_c, 0, 64, 0
3, 372960, Note_on_c, 0, 44, 49
3, 373002, Control_c, 0, 64, 127
3, 373440, Note_on_c, 0, 44, 0
3, 373440, Note_on_c, 0, 51, 39
3, 373440, Note_on_c, 0, 56, 39
3, 373440, Note_on_c, 0, 60, 39
3, 374880, Note_on_c, 0, 60, 0
3, 374880, Note_on_c, 0, 56, 0
3, 374880, Note_on_c, 0, 51, 0
3, 374880, Note_on_c, 0, 56, 35
3, 374880, Note_on_c, 0, 60, 35
3, 374880, Note_on_c, 0, 63, 35
3, 375000, Note_on_c, 0, 63, 0
3, 375000, Note_on_c, 0, 60, 0
3, 375000, Note_on_c, 0, 56, 0
3, 375360, Note_on_c, 0, 56, 35
3, 375360, Note_on_c, 0, 60, 35
3, 375360, Note_on_c, 0, 63, 35
3, 375480, Note_on_c, 0, 63, 0
3, 375480, Note_on_c, 0, 60, 0
3, 375480, Note_on_c, 0, 56, 0
3, 375840, Control_c, 0, 64, 0
3, 375840, Note_on_c, 0, 56, 37
3, 375840, Note_on_c, 0, 60, 37
3, 375840, Note_on_c, 0, 63, 37
3, 375960, Note_on_c, 0, 63, 0
3, 375960, Note_on_c, 0, 60, 0
3, 375960, Note_on_c, 0, 56, 0
3, 376320, Note_on_c, 0, 68, 35
3, 376320, Note_on_c, 0, 72, 35
3, 376320, Note_on_c, 0, 75, 35
3, 376440, Note_on_c, 0, 75, 0
3, 376440, Note_on_c, 0, 72, 0
3, 376440, Note_on_c, 0, 68, 0
3, 376800, Note_on_c, 0, 68, 35
3, 376800, Note_on_c, 0, 72, 35
3, 376800, Note_on_c, 0, 75, 35
3, 376920, Note_on_c, 0, 75, 0
3, 376920, Note_on_c, 0, 72, 0
3, 376920, Note_on_c, 0, 68, 0
3, 377280, Note_on_c, 0, 68, 39
3, 377280, Note_on_c, 0, 72, 39
3, 377280, Note_on_c, 0, 75, 39
3, 377400, Note_on_c, 0, 75, 0
3, 377400, Note_on_c, 0, 72, 0
3, 377400, Note_on_c, 0, 68, 0
3, 377400, End_track
4, 0, Start_track
4, 0, Title_t, "Tschaikowsky: The Seasons: December"
4, 0, End_track
5, 0, Start_track
5, 0, Title_t, "Copyright © 2000 by Bernd Krüger"
5, 0, End_track
6, 0, Start_track
6, 0, Title_t, "http://www.piano-midi.de"
6, 0, End_track
7, 0, Start_track
7, 0, Title_t, "Edition: 2008-09-28"
7, 0, End_track
8, 0, Start_track
8, 0, End_track
0, 0, End_of_file
