0, 0, Header, 1, 8, 480
1, 0, Start_track
1, 0, Title_t, "Espana Op. 165"
1, 0, Title_t, "Tango"
1, 0, Copyright_t, "Copyright © 2001 by Bernd Krueger"
1, 0, Text_t, "Isaac Albeniz"
1, 0, Text_t, "Andantino"
1, 0, Text_t, "Fertiggestellt 28.01.2001\012"
1, 0, Text_t, "Normierung: 23.12.2002\012"
1, 0, Text_t, "Update am 29.8.2010\012"
1, 0, Text_t, "Dauer: 2:08 Minuten\012"
1, 0, SMPTE_offset, 96, 0, 3, 0, 0
1, 0, Time_signature, 2, 2, 24, 8
1, 0, Key_signature, 2, "major"
1, 0, Tempo, 958466
1, 360, Tempo, 932836
1, 720, Tempo, 1069138
1, 960, Tempo, 958466
1, 1320, Tempo, 932836
1, 1680, Tempo, 1014542
1, 1920, Tempo, 837170
1, 2240, Tempo, 1000000
1, 2340, Tempo, 895522
1, 2400, Tempo, 965251
1, 2420, Tempo, 1007218
1, 2640, Tempo, 1044932
1, 2880, Tempo, 916031
1, 3240, Tempo, 882353
1, 3360, Tempo, 1007218
1, 3600, Tempo, 1021972
1, 3720, Tempo, 1148545
1, 3840, Tempo, 914355
1, 4212, Tempo, 874126
1, 4320, Tempo, 971975
1, 4340, Tempo, 944882
1, 4560, Tempo, 1103144
1, 4680, Tempo, 1158301
1, 4800, Tempo, 945477
1, 5160, Tempo, 875912
1, 5280, Tempo, 971975
1, 5520, Tempo, 1103144
1, 5760, Tempo, 945477
1, 6120, Tempo, 971975
1, 6480, Tempo, 958466
1, 6720, Tempo, 916031
1, 6840, Tempo, 1139385
1, 6960, Tempo, 1139385
1, 7080, Tempo, 888889
1, 7200, Tempo, 1007218
1, 7440, Tempo, 1071429
1, 7560, Tempo, 1090909
1, 7680, Tempo, 1021972
1, 8040, Tempo, 902256
1, 8160, Tempo, 1000000
1, 8400, Tempo, 1052632
1, 8640, Tempo, 1043478
1, 8880, Tempo, 992884
1, 9000, Tempo, 932836
1, 9120, Tempo, 1029513
1, 9360, Tempo, 983607
1, 9600, Tempo, 909091
1, 9760, Tempo, 952381
1, 9920, Tempo, 916031
1, 10080, Tempo, 967742
1, 10320, Tempo, 1034483
1, 10560, Tempo, 945477
1, 10800, Tempo, 1021972
1, 11040, Tempo, 945477
1, 11360, Tempo, 999833
1, 11520, Tempo, 932836
1, 11680, Tempo, 908403
1, 11840, Tempo, 939114
1, 12240, Tempo, 965251
1, 12480, Tempo, 932836
1, 12800, Tempo, 971975
1, 13200, Tempo, 1029513
1, 13440, Tempo, 920387
1, 13600, Tempo, 958466
1, 13760, Tempo, 923077
1, 13920, Tempo, 999833
1, 14160, Tempo, 1069138
1, 14400, Tempo, 945477
1, 14640, Tempo, 1021972
1, 14880, Tempo, 945477
1, 15200, Tempo, 978793
1, 15360, Tempo, 896727
1, 15520, Tempo, 944882
1, 15680, Tempo, 975610
1, 15840, Tempo, 999833
1, 16080, Tempo, 1029513
1, 16640, Tempo, 971975
1, 16680, Tempo, 909091
1, 16800, Tempo, 1034483
1, 17040, Tempo, 1121495
1, 17280, Tempo, 837170
1, 17600, Tempo, 1000000
1, 17700, Tempo, 895522
1, 17760, Tempo, 965251
1, 17780, Tempo, 1007218
1, 18000, Tempo, 1044932
1, 18240, Tempo, 916031
1, 18600, Tempo, 882353
1, 18720, Tempo, 1007218
1, 18960, Tempo, 1021972
1, 19080, Tempo, 1148545
1, 19200, Tempo, 914355
1, 19572, Tempo, 874126
1, 19680, Tempo, 952381
1, 19920, Tempo, 1103144
1, 20040, Tempo, 1158301
1, 20160, Tempo, 945477
1, 20520, Tempo, 875912
1, 20640, Tempo, 971975
1, 20880, Tempo, 1061947
1, 21000, Tempo, 1100917
1, 21120, Tempo, 945477
1, 21480, Tempo, 971975
1, 21840, Tempo, 1052632
1, 22080, Tempo, 1016949
1, 22320, Tempo, 1139385
1, 22440, Tempo, 888889
1, 22560, Tempo, 944882
1, 22800, Tempo, 1103144
1, 23040, Tempo, 945477
1, 23400, Tempo, 971975
1, 23520, Tempo, 1000000
1, 23760, Tempo, 1008403
1, 24000, Tempo, 983607
1, 24240, Tempo, 1139385
1, 24360, Tempo, 888889
1, 24480, Tempo, 930233
1, 24720, Tempo, 975610
1, 24960, Tempo, 896727
1, 25120, Tempo, 944882
1, 25280, Tempo, 975610
1, 25440, Tempo, 999833
1, 25680, Tempo, 1029513
1, 25920, Tempo, 983607
1, 26240, Tempo, 971975
1, 26280, Tempo, 909091
1, 26400, Tempo, 1007218
1, 26640, Tempo, 975610
1, 26880, Tempo, 896727
1, 27040, Tempo, 944882
1, 27200, Tempo, 975610
1, 27360, Tempo, 999833
1, 27600, Tempo, 1029513
1, 27840, Tempo, 983607
1, 28160, Tempo, 971975
1, 28200, Tempo, 909091
1, 28320, Tempo, 1007218
1, 28560, Tempo, 975610
1, 28800, Tempo, 896727
1, 28960, Tempo, 944882
1, 29120, Tempo, 975610
1, 29280, Tempo, 999833
1, 29520, Tempo, 1029513
1, 29760, Tempo, 983607
1, 30080, Tempo, 971975
1, 30120, Tempo, 909091
1, 30240, Tempo, 1007218
1, 30480, Tempo, 975610
1, 30720, Tempo, 896727
1, 30880, Tempo, 1318681
1, 30960, Tempo, 930233
1, 31040, Tempo, 975610
1, 31200, Tempo, 1008403
1, 31440, Tempo, 1029513
1, 31680, Tempo, 983607
1, 32000, Tempo, 971975
1, 32040, Tempo, 909091
1, 32160, Tempo, 1007218
1, 32400, Tempo, 975610
1, 32640, Tempo, 896727
1, 32800, Tempo, 1132075
1, 32880, Tempo, 930233
1, 32960, Tempo, 975610
1, 33120, Tempo, 999833
1, 33360, Tempo, 1029513
1, 33600, Tempo, 896727
1, 33760, Tempo, 1132075
1, 33840, Tempo, 930233
1, 33920, Tempo, 975610
1, 34080, Tempo, 1132075
1, 34240, Tempo, 1081081
1, 34400, Tempo, 1025641
1, 34560, Tempo, 896727
1, 34720, Tempo, 1132075
1, 34800, Tempo, 930233
1, 34880, Tempo, 975610
1, 35040, Tempo, 1132075
1, 35200, Tempo, 1000000
1, 35280, Tempo, 1029513
1, 35520, Tempo, 896727
1, 35840, Tempo, 960000
1, 36000, Tempo, 1052632
1, 36120, Tempo, 1052632
1, 36160, Tempo, 1188119
1, 36240, Tempo, 1034483
1, 36480, Tempo, 896727
1, 36640, Tempo, 1132075
1, 36720, Tempo, 930233
1, 36800, Tempo, 975610
1, 36960, Tempo, 999833
1, 37200, Tempo, 1029513
1, 37920, Tempo, 923077
1, 38240, Tempo, 983607
1, 38400, Tempo, 923077
1, 38720, Tempo, 975610
1, 38880, Tempo, 952381
1, 39120, Tempo, 1008403
1, 39360, Tempo, 1052632
1, 39840, Tempo, 923077
1, 40160, Tempo, 983607
1, 40320, Tempo, 923077
1, 40640, Tempo, 1090909
1, 40800, Tempo, 1153846
1, 41040, Tempo, 1318681
1, 41280, Tempo, 916031
1, 41600, Tempo, 1000000
1, 41700, Tempo, 895522
1, 41760, Tempo, 1025641
1, 42000, Tempo, 1081081
1, 42240, Tempo, 916031
1, 42600, Tempo, 882353
1, 42720, Tempo, 1007218
1, 42960, Tempo, 1021972
1, 43080, Tempo, 1148545
1, 43200, Tempo, 914355
1, 43572, Tempo, 874126
1, 43680, Tempo, 971975
1, 43700, Tempo, 944882
1, 43920, Tempo, 1103144
1, 44040, Tempo, 1158301
1, 44160, Tempo, 945477
1, 44520, Tempo, 875912
1, 44640, Tempo, 971975
1, 44880, Tempo, 1103144
1, 45120, Tempo, 945477
1, 45480, Tempo, 971975
1, 45840, Tempo, 958466
1, 46080, Tempo, 916031
1, 46200, Tempo, 1139385
1, 46320, Tempo, 1139385
1, 46440, Tempo, 888889
1, 46560, Tempo, 1007218
1, 46800, Tempo, 1071429
1, 46920, Tempo, 1090909
1, 47040, Tempo, 1021972
1, 47400, Tempo, 902256
1, 47520, Tempo, 1000000
1, 47760, Tempo, 1052632
1, 48000, Tempo, 1043478
1, 48240, Tempo, 992884
1, 48360, Tempo, 932836
1, 48480, Tempo, 1029513
1, 48720, Tempo, 991736
1, 48840, Tempo, 1061947
1, 48960, Tempo, 944882
1, 49080, Tempo, 937500
1, 49200, Tempo, 930233
1, 49320, Tempo, 923077
1, 49440, Tempo, 909091
1, 49540, Tempo, 916031
1, 49620, Tempo, 923077
1, 49700, Tempo, 930233
1, 49760, Tempo, 999833
1, 49920, Tempo, 945477
1, 50400, Tempo, 945477
1, 50720, Tempo, 999833
1, 50880, Tempo, 944882
1, 51000, Tempo, 937500
1, 51120, Tempo, 930233
1, 51240, Tempo, 923077
1, 51360, Tempo, 909091
1, 51460, Tempo, 916031
1, 51540, Tempo, 923077
1, 51620, Tempo, 930233
1, 51680, Tempo, 999833
1, 51840, Tempo, 945477
1, 52320, Tempo, 1000000
1, 52480, Tempo, 944882
1, 52640, Tempo, 999833
1, 52800, Tempo, 944882
1, 52960, Tempo, 960000
1, 53120, Tempo, 991736
1, 53280, Tempo, 1016949
1, 53520, Tempo, 1052632
1, 53760, Tempo, 991736
1, 54080, Tempo, 1052632
1, 54240, Tempo, 1142857
1, 54480, Tempo, 1379310
1, 54720, Tempo, 1016949
1, 54880, Tempo, 1061947
1, 55040, Tempo, 1212121
1, 55200, Tempo, 1263158
1, 55440, Tempo, 1666667
1, 55680, Tempo, 1153846
1, 56040, Tempo, 1111111
1, 56400, Tempo, 1318681
1, 56640, Tempo, 1237113
1, 57000, Tempo, 1142857
1, 57120, Tempo, 1333333
1, 57360, Tempo, 1538462
1, 57600, Tempo, 1212121
1, 60480, Tempo, 1000000
1, 60480, End_track
2, 0, Start_track
2, 0, Title_t, "Piano right"
2, 0, Program_c, 0, 0
2, 0, Control_c, 0, 7, 100
2, 0, Control_c, 0, 10, 64
2, 0, Text_t, "bdca426d104a26ac9dcb070447587523"
2, 0, Control_c, 0, 91, 127
2, 360, Note_on_c, 0, 57, 49
2, 480, Note_on_c, 0, 57, 0
2, 480, Note_on_c, 0, 69, 55
2, 480, Note_on_c, 0, 66, 49
2, 480, Note_on_c, 0, 62, 49
2, 960, Note_on_c, 0, 62, 0
2, 960, Note_on_c, 0, 66, 0
2, 960, Note_on_c, 0, 69, 0
2, 1320, Note_on_c, 0, 57, 46
2, 1440, Note_on_c, 0, 57, 0
2, 1440, Note_on_c, 0, 62, 48
2, 1440, Note_on_c, 0, 66, 48
2, 1440, Note_on_c, 0, 69, 54
2, 1920, Note_on_c, 0, 69, 0
2, 1920, Note_on_c, 0, 66, 0
2, 1920, Note_on_c, 0, 62, 0
2, 1920, Note_on_c, 0, 57, 45
2, 1920, Note_on_c, 0, 62, 45
2, 1920, Note_on_c, 0, 66, 65
2, 2080, Note_on_c, 0, 66, 0
2, 2080, Note_on_c, 0, 66, 60
2, 2240, Note_on_c, 0, 66, 0
2, 2240, Note_on_c, 0, 66, 57
2, 2280, Note_on_c, 0, 62, 0
2, 2280, Note_on_c, 0, 57, 0
2, 2340, Note_on_c, 0, 66, 0
2, 2340, Note_on_c, 0, 66, 55
2, 2370, Note_on_c, 0, 66, 0
2, 2370, Note_on_c, 0, 69, 49
2, 2400, Note_on_c, 0, 69, 0
2, 2400, Note_on_c, 0, 67, 58
2, 2640, Note_on_c, 0, 67, 0
2, 2640, Note_on_c, 0, 66, 60
2, 2880, Note_on_c, 0, 66, 0
2, 2880, Note_on_c, 0, 57, 38
2, 2880, Note_on_c, 0, 62, 38
2, 2880, Note_on_c, 0, 66, 38
2, 2880, Note_on_c, 0, 69, 63
2, 3600, Note_on_c, 0, 69, 0
2, 3600, Note_on_c, 0, 57, 0
2, 3600, Note_on_c, 0, 62, 0
2, 3600, Note_on_c, 0, 66, 0
2, 3600, Note_on_c, 0, 66, 56
2, 3600, Note_on_c, 0, 74, 63
2, 3720, Note_on_c, 0, 74, 0
2, 3720, Note_on_c, 0, 76, 70
2, 3840, Note_on_c, 0, 76, 0
2, 3840, Note_on_c, 0, 66, 0
2, 3840, Note_on_c, 0, 66, 52
2, 3840, Note_on_c, 0, 78, 75
2, 4200, Note_on_c, 0, 78, 0
2, 4200, Note_on_c, 0, 73, 67
2, 4260, Note_on_c, 0, 76, 55
2, 4320, Note_on_c, 0, 76, 0
2, 4320, Note_on_c, 0, 73, 0
2, 4320, Note_on_c, 0, 74, 75
2, 4560, Note_on_c, 0, 74, 0
2, 4560, Note_on_c, 0, 66, 0
2, 4560, Note_on_c, 0, 65, 46
2, 4560, Note_on_c, 0, 71, 68
2, 4680, Note_on_c, 0, 65, 0
2, 4680, Note_on_c, 0, 66, 45
2, 4800, Note_on_c, 0, 66, 0
2, 4800, Note_on_c, 0, 71, 0
2, 4800, Note_on_c, 0, 61, 50
2, 4800, Note_on_c, 0, 67, 60
2, 5520, Note_on_c, 0, 67, 0
2, 5520, Note_on_c, 0, 61, 0
2, 5520, Note_on_c, 0, 64, 50
2, 5520, Note_on_c, 0, 67, 60
2, 5640, Note_on_c, 0, 67, 0
2, 5640, Note_on_c, 0, 64, 0
2, 5640, Note_on_c, 0, 66, 50
2, 5640, Note_on_c, 0, 69, 60
2, 5760, Note_on_c, 0, 69, 0
2, 5760, Note_on_c, 0, 66, 0
2, 5760, Note_on_c, 0, 67, 56
2, 5760, Note_on_c, 0, 71, 67
2, 6120, Note_on_c, 0, 71, 0
2, 6120, Note_on_c, 0, 67, 0
2, 6120, Note_on_c, 0, 73, 63
2, 6120, Note_on_c, 0, 69, 53
2, 6240, Note_on_c, 0, 69, 0
2, 6240, Note_on_c, 0, 73, 0
2, 6240, Note_on_c, 0, 73, 57
2, 6240, Note_on_c, 0, 76, 68
2, 6480, Note_on_c, 0, 76, 0
2, 6480, Note_on_c, 0, 73, 0
2, 6480, Note_on_c, 0, 71, 53
2, 6480, Note_on_c, 0, 74, 63
2, 6720, Note_on_c, 0, 74, 0
2, 6720, Note_on_c, 0, 71, 0
2, 6720, Note_on_c, 0, 71, 56
2, 6720, Note_on_c, 0, 74, 67
2, 6780, Note_on_c, 0, 74, 0
2, 6780, Note_on_c, 0, 71, 0
2, 6780, Note_on_c, 0, 73, 49
2, 6780, Note_on_c, 0, 76, 58
2, 6840, Note_on_c, 0, 76, 0
2, 6840, Note_on_c, 0, 73, 0
2, 6840, Note_on_c, 0, 71, 51
2, 6840, Note_on_c, 0, 74, 61
2, 6960, Note_on_c, 0, 74, 0
2, 6960, Note_on_c, 0, 71, 0
2, 6960, Note_on_c, 0, 73, 56
2, 6960, Note_on_c, 0, 69, 47
2, 7440, Note_on_c, 0, 69, 0
2, 7440, Note_on_c, 0, 73, 0
2, 7440, Note_on_c, 0, 73, 56
2, 7440, Note_on_c, 0, 76, 67
2, 7560, Note_on_c, 0, 76, 0
2, 7560, Note_on_c, 0, 73, 0
2, 7560, Note_on_c, 0, 67, 49
2, 7560, Note_on_c, 0, 71, 58
2, 7680, Note_on_c, 0, 71, 0
2, 7680, Note_on_c, 0, 67, 0
2, 7680, Note_on_c, 0, 71, 54
2, 7680, Note_on_c, 0, 74, 64
2, 8040, Note_on_c, 0, 74, 0
2, 8040, Note_on_c, 0, 71, 0
2, 8040, Note_on_c, 0, 66, 48
2, 8040, Note_on_c, 0, 69, 57
2, 8130, Note_on_c, 0, 69, 0
2, 8130, Note_on_c, 0, 66, 0
2, 8160, Note_on_c, 0, 69, 51
2, 8160, Note_on_c, 0, 73, 61
2, 8280, Note_on_c, 0, 73, 0
2, 8280, Note_on_c, 0, 69, 0
2, 8400, Note_on_c, 0, 64, 45
2, 8400, Note_on_c, 0, 67, 54
2, 8520, Note_on_c, 0, 67, 0
2, 8520, Note_on_c, 0, 64, 0
2, 8640, Note_on_c, 0, 65, 49
2, 8640, Note_on_c, 0, 71, 58
2, 8880, Note_on_c, 0, 71, 0
2, 8880, Note_on_c, 0, 65, 0
2, 8880, Note_on_c, 0, 69, 54
2, 8880, Note_on_c, 0, 66, 45
2, 9360, Note_on_c, 0, 66, 0
2, 9360, Note_on_c, 0, 69, 0
2, 9360, Note_on_c, 0, 62, 61
2, 9360, Note_on_c, 0, 74, 70
2, 9600, Note_on_c, 0, 74, 0
2, 9600, Note_on_c, 0, 62, 0
2, 9600, Note_on_c, 0, 62, 54
2, 9600, Note_on_c, 0, 74, 76
2, 9760, Note_on_c, 0, 74, 0
2, 9760, Note_on_c, 0, 73, 72
2, 9920, Note_on_c, 0, 73, 0
2, 9920, Note_on_c, 0, 71, 66
2, 10080, Note_on_c, 0, 71, 0
2, 10080, Note_on_c, 0, 62, 0
2, 10080, Note_on_c, 0, 67, 36
2, 10080, Note_on_c, 0, 62, 36
2, 10080, Note_on_c, 0, 73, 77
2, 10320, Note_on_c, 0, 73, 0
2, 10320, Note_on_c, 0, 71, 66
2, 10560, Note_on_c, 0, 71, 0
2, 10560, Note_on_c, 0, 62, 0
2, 10560, Note_on_c, 0, 67, 0
2, 10560, Note_on_c, 0, 74, 75
2, 10560, Note_on_c, 0, 62, 54
2, 10800, Note_on_c, 0, 74, 0
2, 10800, Note_on_c, 0, 66, 66
2, 10980, Note_on_c, 0, 67, 57
2, 11040, Note_on_c, 0, 67, 0
2, 11040, Note_on_c, 0, 66, 0
2, 11040, Note_on_c, 0, 62, 0
2, 11040, Note_on_c, 0, 66, 65
2, 11200, Note_on_c, 0, 66, 0
2, 11200, Note_on_c, 0, 65, 61
2, 11360, Note_on_c, 0, 65, 0
2, 11360, Note_on_c, 0, 66, 67
2, 11520, Note_on_c, 0, 66, 0
2, 11520, Note_on_c, 0, 62, 50
2, 11520, Note_on_c, 0, 67, 71
2, 11680, Note_on_c, 0, 67, 0
2, 11680, Note_on_c, 0, 71, 66
2, 11840, Note_on_c, 0, 71, 0
2, 11840, Note_on_c, 0, 74, 68
2, 12000, Note_on_c, 0, 74, 0
2, 12000, Note_on_c, 0, 62, 0
2, 12000, Note_on_c, 0, 73, 71
2, 12240, Note_on_c, 0, 73, 0
2, 12240, Note_on_c, 0, 71, 66
2, 12480, Note_on_c, 0, 71, 0
2, 12480, Note_on_c, 0, 74, 72
2, 12480, Note_on_c, 0, 62, 51
2, 12480, Note_on_c, 0, 66, 51
2, 13200, Note_on_c, 0, 66, 0
2, 13200, Note_on_c, 0, 62, 0
2, 13200, Note_on_c, 0, 74, 0
2, 13200, Note_on_c, 0, 68, 54
2, 13200, Note_on_c, 0, 78, 68
2, 13440, Note_on_c, 0, 78, 0
2, 13440, Note_on_c, 0, 68, 0
2, 13440, Note_on_c, 0, 69, 51
2, 13440, Note_on_c, 0, 78, 72
2, 13600, Note_on_c, 0, 78, 0
2, 13600, Note_on_c, 0, 69, 0
2, 13600, Note_on_c, 0, 76, 67
2, 13760, Note_on_c, 0, 76, 0
2, 13760, Note_on_c, 0, 67, 55
2, 13760, Note_on_c, 0, 73, 67
2, 13920, Note_on_c, 0, 73, 0
2, 13920, Note_on_c, 0, 67, 0
2, 13920, Note_on_c, 0, 68, 50
2, 13920, Note_on_c, 0, 74, 73
2, 14160, Note_on_c, 0, 74, 0
2, 14160, Note_on_c, 0, 71, 65
2, 14400, Note_on_c, 0, 71, 0
2, 14400, Note_on_c, 0, 68, 0
2, 14400, Note_on_c, 0, 69, 49
2, 14400, Note_on_c, 0, 76, 72
2, 14400, Note_on_c, 0, 64, 47
2, 14640, Note_on_c, 0, 76, 0
2, 14640, Note_on_c, 0, 73, 66
2, 14880, Note_on_c, 0, 73, 0
2, 14880, Note_on_c, 0, 64, 0
2, 14880, Note_on_c, 0, 69, 0
2, 14880, Note_on_c, 0, 61, 46
2, 14880, Note_on_c, 0, 66, 46
2, 14880, Note_on_c, 0, 69, 64
2, 15040, Note_on_c, 0, 69, 0
2, 15040, Note_on_c, 0, 71, 64
2, 15200, Note_on_c, 0, 71, 0
2, 15200, Note_on_c, 0, 73, 71
2, 15360, Note_on_c, 0, 73, 0
2, 15360, Note_on_c, 0, 66, 0
2, 15360, Note_on_c, 0, 61, 0
2, 15360, Note_on_c, 0, 69, 36
2, 15360, Note_on_c, 0, 62, 38
2, 15360, Note_on_c, 0, 76, 72
2, 15520, Note_on_c, 0, 76, 0
2, 15520, Note_on_c, 0, 74, 68
2, 15680, Note_on_c, 0, 74, 0
2, 15680, Note_on_c, 0, 73, 65
2, 15840, Note_on_c, 0, 73, 0
2, 15840, Note_on_c, 0, 62, 0
2, 15840, Note_on_c, 0, 69, 0
2, 15840, Note_on_c, 0, 73, 66
2, 15840, Note_on_c, 0, 68, 47
2, 15840, Note_on_c, 0, 62, 47
2, 16080, Note_on_c, 0, 73, 0
2, 16080, Note_on_c, 0, 71, 59
2, 16320, Note_on_c, 0, 71, 0
2, 16320, Note_on_c, 0, 62, 0
2, 16320, Note_on_c, 0, 68, 0
2, 16320, Note_on_c, 0, 61, 46
2, 16320, Note_on_c, 0, 69, 62
2, 16800, Note_on_c, 0, 69, 0
2, 16800, Note_on_c, 0, 61, 0
2, 17280, Note_on_c, 0, 57, 41
2, 17280, Note_on_c, 0, 62, 41
2, 17280, Note_on_c, 0, 66, 69
2, 17440, Note_on_c, 0, 66, 0
2, 17440, Note_on_c, 0, 66, 60
2, 17600, Note_on_c, 0, 66, 0
2, 17600, Note_on_c, 0, 66, 56
2, 17640, Note_on_c, 0, 62, 0
2, 17640, Note_on_c, 0, 57, 0
2, 17700, Note_on_c, 0, 66, 0
2, 17700, Note_on_c, 0, 66, 50
2, 17730, Note_on_c, 0, 66, 0
2, 17730, Note_on_c, 0, 69, 45
2, 17760, Note_on_c, 0, 69, 0
2, 17760, Note_on_c, 0, 67, 58
2, 18000, Note_on_c, 0, 67, 0
2, 18000, Note_on_c, 0, 66, 59
2, 18240, Note_on_c, 0, 66, 0
2, 18240, Note_on_c, 0, 62, 34
2, 18240, Note_on_c, 0, 57, 34
2, 18240, Note_on_c, 0, 66, 34
2, 18240, Note_on_c, 0, 69, 60
2, 18960, Note_on_c, 0, 69, 0
2, 18960, Note_on_c, 0, 62, 0
2, 18960, Note_on_c, 0, 57, 0
2, 18960, Note_on_c, 0, 66, 0
2, 18960, Note_on_c, 0, 66, 54
2, 18960, Note_on_c, 0, 74, 64
2, 19080, Note_on_c, 0, 74, 0
2, 19080, Note_on_c, 0, 76, 70
2, 19200, Note_on_c, 0, 76, 0
2, 19200, Note_on_c, 0, 66, 0
2, 19200, Note_on_c, 0, 78, 75
2, 19560, Note_on_c, 0, 78, 0
2, 19560, Note_on_c, 0, 73, 64
2, 19620, Note_on_c, 0, 76, 54
2, 19680, Note_on_c, 0, 76, 0
2, 19680, Note_on_c, 0, 73, 0
2, 19680, Note_on_c, 0, 74, 72
2, 19920, Note_on_c, 0, 74, 0
2, 19920, Note_on_c, 0, 65, 45
2, 19920, Note_on_c, 0, 71, 66
2, 20040, Note_on_c, 0, 65, 0
2, 20040, Note_on_c, 0, 66, 47
2, 20160, Note_on_c, 0, 66, 0
2, 20160, Note_on_c, 0, 71, 0
2, 20160, Note_on_c, 0, 61, 48
2, 20160, Note_on_c, 0, 67, 57
2, 20880, Note_on_c, 0, 67, 0
2, 20880, Note_on_c, 0, 61, 0
2, 20880, Note_on_c, 0, 64, 50
2, 20880, Note_on_c, 0, 67, 60
2, 21000, Note_on_c, 0, 67, 0
2, 21000, Note_on_c, 0, 64, 0
2, 21000, Note_on_c, 0, 66, 53
2, 21000, Note_on_c, 0, 70, 63
2, 21120, Note_on_c, 0, 70, 0
2, 21120, Note_on_c, 0, 66, 0
2, 21120, Note_on_c, 0, 67, 57
2, 21120, Note_on_c, 0, 71, 68
2, 21480, Note_on_c, 0, 71, 0
2, 21480, Note_on_c, 0, 67, 0
2, 21480, Note_on_c, 0, 70, 56
2, 21480, Note_on_c, 0, 73, 67
2, 21600, Note_on_c, 0, 73, 0
2, 21600, Note_on_c, 0, 70, 0
2, 21600, Note_on_c, 0, 76, 70
2, 21600, Note_on_c, 0, 73, 54
2, 21840, Note_on_c, 0, 73, 0
2, 21840, Note_on_c, 0, 76, 0
2, 21840, Note_on_c, 0, 74, 67
2, 21840, Note_on_c, 0, 67, 45
2, 21840, Note_on_c, 0, 64, 45
2, 22080, Note_on_c, 0, 64, 0
2, 22080, Note_on_c, 0, 67, 0
2, 22080, Note_on_c, 0, 74, 0
2, 22080, Note_on_c, 0, 64, 47
2, 22080, Note_on_c, 0, 66, 47
2, 22080, Note_on_c, 0, 70, 47
2, 22080, Note_on_c, 0, 74, 70
2, 22320, Note_on_c, 0, 74, 0
2, 22320, Note_on_c, 0, 73, 64
2, 22560, Note_on_c, 0, 73, 0
2, 22560, Note_on_c, 0, 70, 0
2, 22560, Note_on_c, 0, 66, 0
2, 22560, Note_on_c, 0, 64, 0
2, 22800, Note_on_c, 0, 66, 56
2, 22800, Note_on_c, 0, 70, 63
2, 22920, Note_on_c, 0, 70, 0
2, 22920, Note_on_c, 0, 72, 68
2, 23040, Note_on_c, 0, 72, 0
2, 23040, Note_on_c, 0, 66, 0
2, 23040, Note_on_c, 0, 66, 61
2, 23040, Note_on_c, 0, 73, 75
2, 23400, Note_on_c, 0, 73, 0
2, 23400, Note_on_c, 0, 74, 71
2, 23520, Note_on_c, 0, 74, 0
2, 23520, Note_on_c, 0, 66, 0
2, 23520, Note_on_c, 0, 78, 76
2, 23520, Note_on_c, 0, 70, 57
2, 23760, Note_on_c, 0, 78, 0
2, 23760, Note_on_c, 0, 76, 71
2, 24000, Note_on_c, 0, 76, 0
2, 24000, Note_on_c, 0, 70, 0
2, 24000, Note_on_c, 0, 65, 55
2, 24000, Note_on_c, 0, 71, 57
2, 24000, Note_on_c, 0, 73, 65
2, 24240, Note_on_c, 0, 73, 0
2, 24240, Note_on_c, 0, 65, 0
2, 24240, Note_on_c, 0, 66, 52
2, 24240, Note_on_c, 0, 74, 70
2, 24480, Note_on_c, 0, 74, 0
2, 24480, Note_on_c, 0, 66, 0
2, 24480, Note_on_c, 0, 71, 0
2, 24720, Note_on_c, 0, 74, 74
2, 24960, Note_on_c, 0, 74, 0
2, 24960, Note_on_c, 0, 67, 41
2, 24960, Note_on_c, 0, 71, 41
2, 24960, Note_on_c, 0, 73, 76
2, 25120, Note_on_c, 0, 73, 0
2, 25120, Note_on_c, 0, 76, 68
2, 25280, Note_on_c, 0, 76, 0
2, 25280, Note_on_c, 0, 78, 65
2, 25440, Note_on_c, 0, 78, 0
2, 25440, Note_on_c, 0, 76, 71
2, 25680, Note_on_c, 0, 76, 0
2, 25680, Note_on_c, 0, 71, 66
2, 25920, Note_on_c, 0, 71, 0
2, 25920, Note_on_c, 0, 71, 0
2, 25920, Note_on_c, 0, 67, 0
2, 25920, Note_on_c, 0, 66, 50
2, 25920, Note_on_c, 0, 71, 50
2, 25920, Note_on_c, 0, 74, 71
2, 26640, Note_on_c, 0, 74, 0
2, 26640, Note_on_c, 0, 74, 74
2, 26880, Note_on_c, 0, 74, 0
2, 26880, Note_on_c, 0, 71, 0
2, 26880, Note_on_c, 0, 66, 0
2, 26880, Note_on_c, 0, 67, 41
2, 26880, Note_on_c, 0, 71, 41
2, 26880, Note_on_c, 0, 73, 76
2, 27040, Note_on_c, 0, 73, 0
2, 27040, Note_on_c, 0, 76, 71
2, 27200, Note_on_c, 0, 76, 0
2, 27200, Note_on_c, 0, 78, 69
2, 27360, Note_on_c, 0, 78, 0
2, 27360, Note_on_c, 0, 76, 71
2, 27600, Note_on_c, 0, 76, 0
2, 27600, Note_on_c, 0, 71, 69
2, 27840, Note_on_c, 0, 71, 0
2, 27840, Note_on_c, 0, 71, 0
2, 27840, Note_on_c, 0, 67, 0
2, 27840, Note_on_c, 0, 66, 50
2, 27840, Note_on_c, 0, 71, 50
2, 27840, Note_on_c, 0, 74, 71
2, 28560, Note_on_c, 0, 74, 0
2, 28560, Note_on_c, 0, 74, 68
2, 28800, Note_on_c, 0, 74, 0
2, 28800, Note_on_c, 0, 71, 0
2, 28800, Note_on_c, 0, 66, 0
2, 28800, Note_on_c, 0, 62, 38
2, 28800, Note_on_c, 0, 66, 38
2, 28800, Note_on_c, 0, 71, 71
2, 28960, Note_on_c, 0, 71, 0
2, 28960, Note_on_c, 0, 73, 68
2, 29120, Note_on_c, 0, 73, 0
2, 29120, Note_on_c, 0, 74, 64
2, 29280, Note_on_c, 0, 74, 0
2, 29280, Note_on_c, 0, 71, 70
2, 29520, Note_on_c, 0, 71, 0
2, 29520, Note_on_c, 0, 66, 64
2, 29760, Note_on_c, 0, 66, 0
2, 29760, Note_on_c, 0, 66, 0
2, 29760, Note_on_c, 0, 62, 0
2, 29760, Note_on_c, 0, 66, 47
2, 29760, Note_on_c, 0, 61, 47
2, 29760, Note_on_c, 0, 70, 68
2, 30480, Note_on_c, 0, 70, 0
2, 30480, Note_on_c, 0, 70, 57
2, 30720, Note_on_c, 0, 70, 0
2, 30720, Note_on_c, 0, 61, 0
2, 30720, Note_on_c, 0, 66, 0
2, 30720, Note_on_c, 0, 68, 57
2, 30720, Note_on_c, 0, 65, 36
2, 30880, Note_on_c, 0, 68, 0
2, 30880, Note_on_c, 0, 70, 63
2, 30980, Note_on_c, 0, 73, 45
2, 31040, Note_on_c, 0, 73, 0
2, 31040, Note_on_c, 0, 70, 0
2, 31040, Note_on_c, 0, 71, 51
2, 31200, Note_on_c, 0, 71, 0
2, 31200, Note_on_c, 0, 65, 0
2, 31200, Note_on_c, 0, 70, 60
2, 31440, Note_on_c, 0, 70, 0
2, 31440, Note_on_c, 0, 68, 52
2, 31680, Note_on_c, 0, 68, 0
2, 31680, Note_on_c, 0, 73, 58
2, 31680, Note_on_c, 0, 61, 44
2, 31680, Note_on_c, 0, 66, 44
2, 31680, Note_on_c, 0, 70, 44
2, 32400, Note_on_c, 0, 73, 0
2, 32400, Note_on_c, 0, 70, 48
2, 32640, Note_on_c, 0, 70, 0
2, 32640, Note_on_c, 0, 70, 0
2, 32640, Note_on_c, 0, 66, 0
2, 32640, Note_on_c, 0, 61, 0
2, 32640, Note_on_c, 0, 71, 48
2, 32640, Note_on_c, 0, 65, 34
2, 32800, Note_on_c, 0, 71, 0
2, 32800, Note_on_c, 0, 73, 53
2, 32960, Note_on_c, 0, 73, 0
2, 32960, Note_on_c, 0, 77, 51
2, 33120, Note_on_c, 0, 77, 0
2, 33120, Note_on_c, 0, 75, 53
2, 33180, Note_on_c, 0, 75, 0
2, 33180, Note_on_c, 0, 77, 46
2, 33240, Note_on_c, 0, 77, 0
2, 33240, Note_on_c, 0, 75, 46
2, 33360, Note_on_c, 0, 75, 0
2, 33360, Note_on_c, 0, 73, 51
2, 33600, Note_on_c, 0, 73, 0
2, 33600, Note_on_c, 0, 65, 0
2, 33600, Note_on_c, 0, 70, 34
2, 33600, Note_on_c, 0, 61, 48
2, 33760, Note_on_c, 0, 61, 0
2, 33760, Note_on_c, 0, 63, 53
2, 33920, Note_on_c, 0, 63, 0
2, 33920, Note_on_c, 0, 65, 51
2, 34080, Note_on_c, 0, 65, 0
2, 34080, Note_on_c, 0, 63, 47
2, 34120, Note_on_c, 0, 63, 0
2, 34120, Note_on_c, 0, 65, 37
2, 34160, Note_on_c, 0, 65, 0
2, 34160, Note_on_c, 0, 63, 37
2, 34240, Note_on_c, 0, 63, 0
2, 34240, Note_on_c, 0, 61, 40
2, 34400, Note_on_c, 0, 61, 0
2, 34400, Note_on_c, 0, 70, 0
2, 34400, Note_on_c, 0, 70, 47
2, 34400, Note_on_c, 0, 66, 40
2, 34560, Note_on_c, 0, 66, 0
2, 34560, Note_on_c, 0, 70, 0
2, 34560, Note_on_c, 0, 71, 34
2, 34560, Note_on_c, 0, 66, 48
2, 34720, Note_on_c, 0, 66, 0
2, 34720, Note_on_c, 0, 65, 52
2, 34880, Note_on_c, 0, 65, 0
2, 34880, Note_on_c, 0, 63, 48
2, 35040, Note_on_c, 0, 63, 0
2, 35040, Note_on_c, 0, 71, 0
2, 35040, Note_on_c, 0, 65, 46
2, 35040, Note_on_c, 0, 71, 46
2, 35280, Note_on_c, 0, 65, 0
2, 35280, Note_on_c, 0, 61, 46
2, 35520, Note_on_c, 0, 61, 0
2, 35520, Note_on_c, 0, 71, 0
2, 35520, Note_on_c, 0, 66, 34
2, 35520, Note_on_c, 0, 70, 48
2, 35680, Note_on_c, 0, 70, 0
2, 35680, Note_on_c, 0, 71, 53
2, 35840, Note_on_c, 0, 71, 0
2, 35840, Note_on_c, 0, 72, 54
2, 36000, Note_on_c, 0, 72, 0
2, 36000, Note_on_c, 0, 73, 57
2, 36100, Note_on_c, 0, 77, 46
2, 36160, Note_on_c, 0, 77, 0
2, 36160, Note_on_c, 0, 73, 0
2, 36160, Note_on_c, 0, 75, 49
2, 36320, Note_on_c, 0, 75, 0
2, 36320, Note_on_c, 0, 73, 48
2, 36480, Note_on_c, 0, 73, 0
2, 36480, Note_on_c, 0, 66, 0
2, 36480, Note_on_c, 0, 65, 34
2, 36480, Note_on_c, 0, 71, 48
2, 36640, Note_on_c, 0, 71, 0
2, 36640, Note_on_c, 0, 73, 53
2, 36800, Note_on_c, 0, 73, 0
2, 36800, Note_on_c, 0, 77, 51
2, 36960, Note_on_c, 0, 77, 0
2, 36960, Note_on_c, 0, 75, 55
2, 37020, Note_on_c, 0, 75, 0
2, 37020, Note_on_c, 0, 77, 48
2, 37080, Note_on_c, 0, 77, 0
2, 37080, Note_on_c, 0, 75, 47
2, 37200, Note_on_c, 0, 75, 0
2, 37200, Note_on_c, 0, 73, 51
2, 37440, Note_on_c, 0, 73, 0
2, 37440, Note_on_c, 0, 65, 0
2, 37440, Note_on_c, 0, 66, 44
2, 37440, Note_on_c, 0, 61, 44
2, 37440, Note_on_c, 0, 70, 52
2, 37920, Note_on_c, 0, 70, 0
2, 37920, Note_on_c, 0, 61, 0
2, 37920, Note_on_c, 0, 66, 0
2, 37920, Note_on_c, 0, 62, 44
2, 37920, Note_on_c, 0, 66, 44
2, 37920, Note_on_c, 0, 69, 57
2, 38080, Note_on_c, 0, 69, 0
2, 38080, Note_on_c, 0, 74, 50
2, 38240, Note_on_c, 0, 74, 0
2, 38240, Note_on_c, 0, 71, 50
2, 38400, Note_on_c, 0, 71, 0
2, 38400, Note_on_c, 0, 66, 0
2, 38400, Note_on_c, 0, 62, 0
2, 38400, Note_on_c, 0, 62, 40
2, 38400, Note_on_c, 0, 69, 52
2, 38560, Note_on_c, 0, 69, 0
2, 38560, Note_on_c, 0, 67, 44
2, 38720, Note_on_c, 0, 67, 0
2, 38720, Note_on_c, 0, 74, 44
2, 38880, Note_on_c, 0, 74, 0
2, 38880, Note_on_c, 0, 62, 0
2, 38880, Note_on_c, 0, 65, 47
2, 38880, Note_on_c, 0, 61, 35
2, 39120, Note_on_c, 0, 65, 0
2, 39120, Note_on_c, 0, 73, 49
2, 39360, Note_on_c, 0, 73, 0
2, 39360, Note_on_c, 0, 61, 0
2, 39360, Note_on_c, 0, 61, 44
2, 39360, Note_on_c, 0, 66, 48
2, 39840, Note_on_c, 0, 66, 0
2, 39840, Note_on_c, 0, 61, 0
2, 39840, Note_on_c, 0, 60, 51
2, 39840, Note_on_c, 0, 63, 51
2, 39840, Note_on_c, 0, 66, 60
2, 40000, Note_on_c, 0, 66, 0
2, 40000, Note_on_c, 0, 69, 53
2, 40160, Note_on_c, 0, 69, 0
2, 40160, Note_on_c, 0, 67, 53
2, 40320, Note_on_c, 0, 67, 0
2, 40320, Note_on_c, 0, 63, 0
2, 40320, Note_on_c, 0, 60, 0
2, 40320, Note_on_c, 0, 59, 47
2, 40320, Note_on_c, 0, 66, 56
2, 40480, Note_on_c, 0, 66, 0
2, 40480, Note_on_c, 0, 64, 51
2, 40640, Note_on_c, 0, 64, 0
2, 40640, Note_on_c, 0, 71, 50
2, 40800, Note_on_c, 0, 71, 0
2, 40800, Note_on_c, 0, 59, 0
2, 40800, Note_on_c, 0, 64, 50
2, 40800, Note_on_c, 0, 61, 42
2, 41040, Note_on_c, 0, 64, 0
2, 41040, Note_on_c, 0, 65, 46
2, 41280, Note_on_c, 0, 65, 0
2, 41280, Note_on_c, 0, 61, 0
2, 41280, Note_on_c, 0, 57, 32
2, 41280, Note_on_c, 0, 62, 32
2, 41280, Note_on_c, 0, 66, 51
2, 41440, Note_on_c, 0, 66, 0
2, 41440, Note_on_c, 0, 66, 49
2, 41600, Note_on_c, 0, 66, 0
2, 41600, Note_on_c, 0, 66, 45
2, 41640, Note_on_c, 0, 62, 0
2, 41640, Note_on_c, 0, 57, 0
2, 41700, Note_on_c, 0, 66, 0
2, 41700, Note_on_c, 0, 66, 40
2, 41730, Note_on_c, 0, 66, 0
2, 41730, Note_on_c, 0, 69, 37
2, 41760, Note_on_c, 0, 69, 0
2, 41760, Note_on_c, 0, 67, 53
2, 42000, Note_on_c, 0, 67, 0
2, 42000, Note_on_c, 0, 66, 48
2, 42240, Note_on_c, 0, 66, 0
2, 42240, Note_on_c, 0, 66, 30
2, 42240, Note_on_c, 0, 57, 30
2, 42240, Note_on_c, 0, 62, 30
2, 42240, Note_on_c, 0, 69, 49
2, 42960, Note_on_c, 0, 69, 0
2, 42960, Note_on_c, 0, 66, 0
2, 42960, Note_on_c, 0, 57, 0
2, 42960, Note_on_c, 0, 62, 0
2, 42960, Note_on_c, 0, 66, 47
2, 42960, Note_on_c, 0, 74, 51
2, 43080, Note_on_c, 0, 74, 0
2, 43080, Note_on_c, 0, 76, 57
2, 43200, Note_on_c, 0, 76, 0
2, 43200, Note_on_c, 0, 66, 0
2, 43200, Note_on_c, 0, 66, 49
2, 43200, Note_on_c, 0, 78, 60
2, 43560, Note_on_c, 0, 78, 0
2, 43560, Note_on_c, 0, 73, 51
2, 43620, Note_on_c, 0, 76, 42
2, 43680, Note_on_c, 0, 76, 0
2, 43680, Note_on_c, 0, 73, 0
2, 43680, Note_on_c, 0, 74, 58
2, 43920, Note_on_c, 0, 74, 0
2, 43920, Note_on_c, 0, 66, 0
2, 43920, Note_on_c, 0, 71, 52
2, 43920, Note_on_c, 0, 65, 39
2, 44040, Note_on_c, 0, 65, 0
2, 44040, Note_on_c, 0, 66, 41
2, 44160, Note_on_c, 0, 66, 0
2, 44160, Note_on_c, 0, 71, 0
2, 44160, Note_on_c, 0, 61, 42
2, 44160, Note_on_c, 0, 67, 46
2, 44880, Note_on_c, 0, 67, 0
2, 44880, Note_on_c, 0, 61, 0
2, 44880, Note_on_c, 0, 64, 42
2, 44880, Note_on_c, 0, 67, 46
2, 45000, Note_on_c, 0, 67, 0
2, 45000, Note_on_c, 0, 64, 0
2, 45000, Note_on_c, 0, 66, 42
2, 45000, Note_on_c, 0, 69, 46
2, 45120, Note_on_c, 0, 69, 0
2, 45120, Note_on_c, 0, 66, 0
2, 45120, Note_on_c, 0, 67, 47
2, 45120, Note_on_c, 0, 71, 51
2, 45480, Note_on_c, 0, 71, 0
2, 45480, Note_on_c, 0, 67, 0
2, 45480, Note_on_c, 0, 69, 45
2, 45480, Note_on_c, 0, 73, 49
2, 45600, Note_on_c, 0, 73, 0
2, 45600, Note_on_c, 0, 69, 0
2, 45600, Note_on_c, 0, 73, 48
2, 45600, Note_on_c, 0, 76, 52
2, 45840, Note_on_c, 0, 76, 0
2, 45840, Note_on_c, 0, 73, 0
2, 45840, Note_on_c, 0, 71, 45
2, 45840, Note_on_c, 0, 74, 49
2, 46080, Note_on_c, 0, 74, 0
2, 46080, Note_on_c, 0, 71, 0
2, 46080, Note_on_c, 0, 74, 51
2, 46080, Note_on_c, 0, 71, 47
2, 46140, Note_on_c, 0, 71, 0
2, 46140, Note_on_c, 0, 74, 0
2, 46140, Note_on_c, 0, 73, 41
2, 46140, Note_on_c, 0, 76, 45
2, 46200, Note_on_c, 0, 76, 0
2, 46200, Note_on_c, 0, 73, 0
2, 46200, Note_on_c, 0, 71, 43
2, 46200, Note_on_c, 0, 74, 47
2, 46320, Note_on_c, 0, 74, 0
2, 46320, Note_on_c, 0, 71, 0
2, 46320, Note_on_c, 0, 69, 40
2, 46320, Note_on_c, 0, 73, 40
2, 46800, Note_on_c, 0, 73, 0
2, 46800, Note_on_c, 0, 69, 0
2, 46800, Note_on_c, 0, 73, 47
2, 46800, Note_on_c, 0, 76, 51
2, 46920, Note_on_c, 0, 76, 0
2, 46920, Note_on_c, 0, 73, 0
2, 46920, Note_on_c, 0, 67, 41
2, 46920, Note_on_c, 0, 71, 45
2, 47040, Note_on_c, 0, 71, 0
2, 47040, Note_on_c, 0, 67, 0
2, 47040, Note_on_c, 0, 74, 49
2, 47040, Note_on_c, 0, 71, 45
2, 47400, Note_on_c, 0, 71, 0
2, 47400, Note_on_c, 0, 74, 0
2, 47400, Note_on_c, 0, 66, 40
2, 47400, Note_on_c, 0, 69, 44
2, 47490, Note_on_c, 0, 69, 0
2, 47490, Note_on_c, 0, 66, 0
2, 47520, Note_on_c, 0, 69, 43
2, 47520, Note_on_c, 0, 73, 47
2, 47640, Note_on_c, 0, 73, 0
2, 47640, Note_on_c, 0, 69, 0
2, 47760, Note_on_c, 0, 64, 37
2, 47760, Note_on_c, 0, 67, 40
2, 47880, Note_on_c, 0, 67, 0
2, 47880, Note_on_c, 0, 64, 0
2, 48000, Note_on_c, 0, 65, 41
2, 48000, Note_on_c, 0, 71, 45
2, 48240, Note_on_c, 0, 71, 0
2, 48240, Note_on_c, 0, 65, 0
2, 48240, Note_on_c, 0, 66, 37
2, 48240, Note_on_c, 0, 69, 40
2, 48720, Note_on_c, 0, 69, 0
2, 48720, Note_on_c, 0, 66, 0
2, 48720, Note_on_c, 0, 62, 58
2, 48720, Note_on_c, 0, 74, 58
2, 48960, Note_on_c, 0, 74, 0
2, 48960, Note_on_c, 0, 62, 0
2, 48960, Note_on_c, 0, 74, 62
2, 48960, Note_on_c, 0, 64, 62
2, 49120, Note_on_c, 0, 64, 0
2, 49120, Note_on_c, 0, 65, 56
2, 49280, Note_on_c, 0, 65, 0
2, 49280, Note_on_c, 0, 69, 56
2, 49440, Note_on_c, 0, 69, 0
2, 49440, Note_on_c, 0, 70, 58
2, 49600, Note_on_c, 0, 74, 0
2, 49600, Note_on_c, 0, 74, 62
2, 49680, Note_on_c, 0, 70, 0
2, 49760, Note_on_c, 0, 74, 0
2, 49760, Note_on_c, 0, 76, 64
2, 49920, Note_on_c, 0, 76, 0
2, 49920, Note_on_c, 0, 79, 66
2, 49920, Note_on_c, 0, 69, 66
2, 50080, Note_on_c, 0, 79, 0
2, 50080, Note_on_c, 0, 77, 64
2, 50240, Note_on_c, 0, 77, 0
2, 50240, Note_on_c, 0, 72, 61
2, 50400, Note_on_c, 0, 72, 0
2, 50400, Note_on_c, 0, 69, 0
2, 50400, Note_on_c, 0, 69, 47
2, 50440, Note_on_c, 0, 69, 0
2, 50440, Note_on_c, 0, 70, 39
2, 50480, Note_on_c, 0, 70, 0
2, 50480, Note_on_c, 0, 69, 59
2, 50560, Note_on_c, 0, 69, 0
2, 50560, Note_on_c, 0, 67, 61
2, 50720, Note_on_c, 0, 67, 0
2, 50720, Note_on_c, 0, 65, 58
2, 50880, Note_on_c, 0, 65, 0
2, 50880, Note_on_c, 0, 61, 61
2, 50880, Note_on_c, 0, 70, 58
2, 51040, Note_on_c, 0, 61, 0
2, 51040, Note_on_c, 0, 62, 53
2, 51200, Note_on_c, 0, 62, 0
2, 51200, Note_on_c, 0, 66, 52
2, 51360, Note_on_c, 0, 66, 0
2, 51360, Note_on_c, 0, 67, 58
2, 51520, Note_on_c, 0, 70, 0
2, 51520, Note_on_c, 0, 70, 62
2, 51600, Note_on_c, 0, 67, 0
2, 51680, Note_on_c, 0, 70, 0
2, 51680, Note_on_c, 0, 73, 64
2, 51840, Note_on_c, 0, 73, 0
2, 51840, Note_on_c, 0, 76, 66
2, 51840, Note_on_c, 0, 66, 66
2, 52000, Note_on_c, 0, 76, 0
2, 52000, Note_on_c, 0, 74, 64
2, 52160, Note_on_c, 0, 74, 0
2, 52160, Note_on_c, 0, 65, 61
2, 52320, Note_on_c, 0, 65, 0
2, 52320, Note_on_c, 0, 66, 0
2, 52320, Note_on_c, 0, 66, 56
2, 52420, Note_on_c, 0, 69, 48
2, 52480, Note_on_c, 0, 69, 0
2, 52480, Note_on_c, 0, 66, 0
2, 52480, Note_on_c, 0, 62, 53
2, 52480, Note_on_c, 0, 67, 53
2, 52640, Note_on_c, 0, 67, 0
2, 52640, Note_on_c, 0, 66, 50
2, 52800, Note_on_c, 0, 66, 0
2, 52800, Note_on_c, 0, 62, 0
2, 52800, Note_on_c, 0, 60, 46
2, 52800, Note_on_c, 0, 63, 46
2, 52800, Note_on_c, 0, 66, 54
2, 52960, Note_on_c, 0, 66, 0
2, 52960, Note_on_c, 0, 67, 49
2, 53120, Note_on_c, 0, 67, 0
2, 53120, Note_on_c, 0, 69, 49
2, 53280, Note_on_c, 0, 69, 0
2, 53280, Note_on_c, 0, 67, 52
2, 53520, Note_on_c, 0, 67, 0
2, 53520, Note_on_c, 0, 66, 50
2, 53760, Note_on_c, 0, 66, 0
2, 53760, Note_on_c, 0, 63, 0
2, 53760, Note_on_c, 0, 60, 0
2, 53760, Note_on_c, 0, 66, 54
2, 53760, Note_on_c, 0, 59, 46
2, 53920, Note_on_c, 0, 66, 0
2, 53920, Note_on_c, 0, 71, 52
2, 54080, Note_on_c, 0, 71, 0
2, 54080, Note_on_c, 0, 66, 51
2, 54240, Note_on_c, 0, 66, 0
2, 54240, Note_on_c, 0, 64, 50
2, 54480, Note_on_c, 0, 64, 0
2, 54480, Note_on_c, 0, 59, 0
2, 54880, Note_on_c, 0, 61, 50
2, 54880, Note_on_c, 0, 67, 50
2, 55040, Note_on_c, 0, 67, 0
2, 55040, Note_on_c, 0, 66, 46
2, 55200, Note_on_c, 0, 66, 0
2, 55200, Note_on_c, 0, 66, 50
2, 55440, Note_on_c, 0, 66, 0
2, 55440, Note_on_c, 0, 64, 45
2, 55680, Note_on_c, 0, 64, 0
2, 55680, Note_on_c, 0, 61, 0
2, 56040, Note_on_c, 0, 57, 33
2, 56160, Note_on_c, 0, 57, 0
2, 56160, Note_on_c, 0, 62, 39
2, 56160, Note_on_c, 0, 66, 39
2, 56160, Note_on_c, 0, 69, 39
2, 56640, Note_on_c, 0, 69, 0
2, 56640, Note_on_c, 0, 66, 0
2, 56640, Note_on_c, 0, 62, 0
2, 57000, Note_on_c, 0, 57, 33
2, 57120, Note_on_c, 0, 57, 0
2, 57120, Note_on_c, 0, 62, 39
2, 57120, Note_on_c, 0, 66, 39
2, 57120, Note_on_c, 0, 69, 39
2, 57600, Note_on_c, 0, 69, 0
2, 57600, Note_on_c, 0, 66, 0
2, 57600, Note_on_c, 0, 62, 0
2, 57600, Note_on_c, 0, 54, 27
2, 57600, Note_on_c, 0, 57, 27
2, 57600, Note_on_c, 0, 66, 33
2, 57600, Note_on_c, 0, 62, 33
2, 58560, Note_on_c, 0, 62, 0
2, 58560, Note_on_c, 0, 54, 0
2, 58560, Note_on_c, 0, 57, 0
2, 58560, Note_on_c, 0, 66, 0
2, 58560, Note_on_c, 0, 86, 37
2, 58560, Note_on_c, 0, 81, 37
2, 58560, Note_on_c, 0, 74, 33
2, 59520, Note_on_c, 0, 74, 0
2, 59520, Note_on_c, 0, 81, 0
2, 59520, Note_on_c, 0, 86, 0
2, 59520, End_track
3, 0, Start_track
3, 0, Title_t, "Piano left"
3, 0, Program_c, 0, 0
3, 0, Control_c, 0, 7, 100
3, 0, Control_c, 0, 10, 64
3, 0, Control_c, 0, 64, 127
3, 0, Note_on_c, 0, 38, 53
3, 0, Note_on_c, 0, 50, 53
3, 720, Note_on_c, 0, 50, 0
3, 720, Note_on_c, 0, 38, 0
3, 720, Note_on_c, 0, 33, 51
3, 720, Note_on_c, 0, 45, 51
3, 960, Note_on_c, 0, 45, 0
3, 960, Note_on_c, 0, 33, 0
3, 960, Note_on_c, 0, 38, 54
3, 960, Note_on_c, 0, 50, 54
3, 971, Control_c, 0, 64, 0
3, 1080, Control_c, 0, 64, 127
3, 1680, Note_on_c, 0, 50, 0
3, 1680, Note_on_c, 0, 38, 0
3, 1680, Note_on_c, 0, 33, 49
3, 1680, Note_on_c, 0, 45, 49
3, 1920, Note_on_c, 0, 45, 0
3, 1920, Note_on_c, 0, 33, 0
3, 1920, Note_on_c, 0, 50, 44
3, 1932, Control_c, 0, 64, 0
3, 1980, Control_c, 0, 64, 127
3, 2340, Note_on_c, 0, 56, 41
3, 2349, Control_c, 0, 64, 0
3, 2400, Note_on_c, 0, 56, 0
3, 2400, Note_on_c, 0, 50, 0
3, 2400, Note_on_c, 0, 57, 45
3, 2446, Control_c, 0, 64, 127
3, 2640, Note_on_c, 0, 57, 0
3, 2640, Note_on_c, 0, 45, 45
3, 2880, Note_on_c, 0, 45, 0
3, 2880, Note_on_c, 0, 50, 39
3, 2889, Control_c, 0, 64, 0
3, 2946, Control_c, 0, 64, 127
3, 3300, Note_on_c, 0, 56, 46
3, 3309, Control_c, 0, 64, 0
3, 3360, Note_on_c, 0, 56, 0
3, 3360, Note_on_c, 0, 50, 0
3, 3360, Note_on_c, 0, 57, 50
3, 3406, Control_c, 0, 64, 127
3, 3600, Note_on_c, 0, 57, 0
3, 3600, Note_on_c, 0, 45, 46
3, 3840, Note_on_c, 0, 45, 0
3, 3840, Note_on_c, 0, 50, 49
3, 3848, Control_c, 0, 64, 0
3, 3920, Control_c, 0, 64, 127
3, 4260, Note_on_c, 0, 56, 41
3, 4269, Control_c, 0, 64, 0
3, 4320, Note_on_c, 0, 56, 0
3, 4320, Note_on_c, 0, 50, 0
3, 4320, Note_on_c, 0, 57, 46
3, 4366, Control_c, 0, 64, 127
3, 4560, Note_on_c, 0, 57, 0
3, 4560, Note_on_c, 0, 51, 45
3, 4800, Note_on_c, 0, 51, 0
3, 4800, Note_on_c, 0, 52, 45
3, 4809, Control_c, 0, 64, 0
3, 4892, Control_c, 0, 64, 127
3, 5220, Note_on_c, 0, 56, 43
3, 5224, Control_c, 0, 64, 0
3, 5280, Note_on_c, 0, 56, 0
3, 5280, Note_on_c, 0, 52, 0
3, 5280, Note_on_c, 0, 57, 47
3, 5326, Control_c, 0, 64, 127
3, 5520, Note_on_c, 0, 57, 0
3, 5520, Note_on_c, 0, 45, 45
3, 5760, Note_on_c, 0, 45, 0
3, 5760, Note_on_c, 0, 49, 45
3, 5773, Control_c, 0, 64, 0
3, 5857, Control_c, 0, 64, 127
3, 6180, Note_on_c, 0, 56, 46
3, 6183, Control_c, 0, 64, 0
3, 6240, Note_on_c, 0, 56, 0
3, 6240, Note_on_c, 0, 49, 0
3, 6240, Note_on_c, 0, 57, 52
3, 6286, Control_c, 0, 64, 127
3, 6480, Note_on_c, 0, 57, 0
3, 6480, Note_on_c, 0, 45, 45
3, 6720, Note_on_c, 0, 45, 0
3, 6720, Note_on_c, 0, 52, 45
3, 6732, Control_c, 0, 64, 0
3, 6817, Control_c, 0, 64, 127
3, 7140, Note_on_c, 0, 56, 46
3, 7144, Control_c, 0, 64, 0
3, 7200, Note_on_c, 0, 56, 0
3, 7200, Note_on_c, 0, 52, 0
3, 7200, Note_on_c, 0, 57, 52
3, 7246, Control_c, 0, 64, 127
3, 7440, Note_on_c, 0, 57, 0
3, 7440, Note_on_c, 0, 45, 45
3, 7680, Note_on_c, 0, 45, 0
3, 7680, Note_on_c, 0, 49, 45
3, 7692, Control_c, 0, 64, 0
3, 7729, Control_c, 0, 64, 127
3, 8100, Note_on_c, 0, 56, 46
3, 8103, Control_c, 0, 64, 0
3, 8160, Note_on_c, 0, 56, 0
3, 8160, Note_on_c, 0, 49, 0
3, 8160, Note_on_c, 0, 57, 52
3, 8206, Control_c, 0, 64, 127
3, 8400, Note_on_c, 0, 57, 0
3, 8400, Note_on_c, 0, 45, 45
3, 8640, Note_on_c, 0, 45, 0
3, 8640, Note_on_c, 0, 50, 49
3, 8652, Control_c, 0, 64, 0
3, 8723, Control_c, 0, 64, 127
3, 8946, Control_c, 0, 64, 0
3, 8977, Control_c, 0, 64, 127
3, 9060, Note_on_c, 0, 56, 45
3, 9120, Note_on_c, 0, 56, 0
3, 9120, Note_on_c, 0, 50, 0
3, 9120, Note_on_c, 0, 57, 48
3, 9372, Control_c, 0, 64, 0
3, 9469, Control_c, 0, 64, 127
3, 9600, Note_on_c, 0, 57, 0
3, 9600, Note_on_c, 0, 47, 52
3, 9600, Note_on_c, 0, 54, 52
3, 10080, Note_on_c, 0, 54, 0
3, 10080, Note_on_c, 0, 47, 0
3, 10080, Note_on_c, 0, 47, 31
3, 10080, Note_on_c, 0, 53, 31
3, 10100, Control_c, 0, 64, 0
3, 10214, Control_c, 0, 64, 127
3, 10560, Note_on_c, 0, 53, 0
3, 10560, Note_on_c, 0, 47, 0
3, 10560, Note_on_c, 0, 47, 48
3, 10572, Control_c, 0, 64, 0
3, 10648, Control_c, 0, 64, 127
3, 10920, Note_on_c, 0, 47, 0
3, 10920, Note_on_c, 0, 54, 44
3, 11040, Note_on_c, 0, 54, 0
3, 11040, Note_on_c, 0, 62, 49
3, 11048, Control_c, 0, 64, 0
3, 11104, Control_c, 0, 64, 127
3, 11280, Note_on_c, 0, 62, 0
3, 11280, Note_on_c, 0, 54, 41
3, 11520, Note_on_c, 0, 54, 0
3, 11520, Note_on_c, 0, 47, 51
3, 11532, Control_c, 0, 64, 0
3, 11654, Control_c, 0, 64, 127
3, 11880, Note_on_c, 0, 47, 0
3, 11880, Note_on_c, 0, 55, 42
3, 12000, Note_on_c, 0, 55, 0
3, 12000, Note_on_c, 0, 62, 46
3, 12018, Control_c, 0, 64, 0
3, 12120, Control_c, 0, 64, 127
3, 12240, Note_on_c, 0, 62, 0
3, 12240, Note_on_c, 0, 55, 45
3, 12480, Note_on_c, 0, 55, 0
3, 12480, Note_on_c, 0, 47, 49
3, 12492, Control_c, 0, 64, 0
3, 12600, Control_c, 0, 64, 127
3, 12640, Note_on_c, 0, 47, 0
3, 12640, Note_on_c, 0, 53, 45
3, 12800, Note_on_c, 0, 53, 0
3, 12800, Note_on_c, 0, 54, 45
3, 12960, Note_on_c, 0, 54, 0
3, 12960, Note_on_c, 0, 59, 51
3, 13200, Note_on_c, 0, 59, 0
3, 13200, Note_on_c, 0, 62, 52
3, 13212, Control_c, 0, 64, 0
3, 13309, Control_c, 0, 64, 127
3, 13440, Note_on_c, 0, 62, 0
3, 13440, Note_on_c, 0, 61, 56
3, 13447, Control_c, 0, 64, 0
3, 13525, Control_c, 0, 64, 127
3, 13760, Note_on_c, 0, 61, 0
3, 13760, Note_on_c, 0, 58, 51
3, 13920, Note_on_c, 0, 58, 0
3, 13920, Note_on_c, 0, 59, 52
3, 13938, Control_c, 0, 64, 0
3, 14012, Control_c, 0, 64, 127
3, 14160, Note_on_c, 0, 59, 0
3, 14160, Note_on_c, 0, 62, 47
3, 14400, Note_on_c, 0, 62, 0
3, 14400, Note_on_c, 0, 61, 50
3, 14412, Control_c, 0, 64, 0
3, 14548, Control_c, 0, 64, 127
3, 14880, Note_on_c, 0, 61, 0
3, 14880, Note_on_c, 0, 54, 48
3, 14901, Control_c, 0, 64, 0
3, 15021, Control_c, 0, 64, 127
3, 15360, Note_on_c, 0, 54, 0
3, 15360, Note_on_c, 0, 47, 36
3, 15360, Note_on_c, 0, 53, 36
3, 15375, Control_c, 0, 64, 0
3, 15480, Control_c, 0, 64, 127
3, 15840, Note_on_c, 0, 53, 0
3, 15840, Note_on_c, 0, 47, 0
3, 15840, Note_on_c, 0, 40, 49
3, 15851, Control_c, 0, 64, 0
3, 15988, Control_c, 0, 64, 127
3, 16080, Note_on_c, 0, 40, 0
3, 16080, Note_on_c, 0, 52, 42
3, 16320, Note_on_c, 0, 52, 0
3, 16320, Note_on_c, 0, 45, 47
3, 16336, Control_c, 0, 64, 0
3, 16373, Control_c, 0, 64, 127
3, 16480, Note_on_c, 0, 45, 0
3, 16480, Note_on_c, 0, 56, 45
3, 16507, Control_c, 0, 64, 0
3, 16640, Note_on_c, 0, 56, 0
3, 16640, Note_on_c, 0, 57, 43
3, 16740, Note_on_c, 0, 61, 36
3, 16800, Note_on_c, 0, 61, 0
3, 16800, Note_on_c, 0, 57, 0
3, 16800, Note_on_c, 0, 59, 39
3, 17040, Note_on_c, 0, 59, 0
3, 17040, Note_on_c, 0, 57, 42
3, 17280, Note_on_c, 0, 57, 0
3, 17280, Note_on_c, 0, 50, 39
3, 17320, Control_c, 0, 64, 127
3, 17700, Note_on_c, 0, 56, 38
3, 17709, Control_c, 0, 64, 0
3, 17760, Note_on_c, 0, 56, 0
3, 17760, Note_on_c, 0, 50, 0
3, 17760, Note_on_c, 0, 57, 44
3, 17806, Control_c, 0, 64, 127
3, 18000, Note_on_c, 0, 57, 0
3, 18000, Note_on_c, 0, 45, 42
3, 18240, Note_on_c, 0, 45, 0
3, 18240, Note_on_c, 0, 50, 35
3, 18255, Control_c, 0, 64, 0
3, 18329, Control_c, 0, 64, 127
3, 18660, Note_on_c, 0, 56, 41
3, 18669, Control_c, 0, 64, 0
3, 18720, Note_on_c, 0, 56, 0
3, 18720, Note_on_c, 0, 50, 0
3, 18720, Note_on_c, 0, 57, 45
3, 18766, Control_c, 0, 64, 127
3, 18960, Note_on_c, 0, 57, 0
3, 18960, Note_on_c, 0, 45, 45
3, 19200, Note_on_c, 0, 45, 0
3, 19200, Note_on_c, 0, 50, 47
3, 19211, Control_c, 0, 64, 0
3, 19263, Control_c, 0, 64, 127
3, 19620, Note_on_c, 0, 56, 45
3, 19629, Control_c, 0, 64, 0
3, 19680, Note_on_c, 0, 56, 0
3, 19680, Note_on_c, 0, 50, 0
3, 19680, Note_on_c, 0, 57, 50
3, 19726, Control_c, 0, 64, 127
3, 19920, Note_on_c, 0, 57, 0
3, 19920, Note_on_c, 0, 51, 44
3, 20160, Note_on_c, 0, 51, 0
3, 20160, Note_on_c, 0, 52, 44
3, 20172, Control_c, 0, 64, 0
3, 20252, Control_c, 0, 64, 127
3, 20580, Note_on_c, 0, 58, 40
3, 20588, Control_c, 0, 64, 0
3, 20640, Note_on_c, 0, 58, 0
3, 20640, Note_on_c, 0, 52, 0
3, 20640, Note_on_c, 0, 59, 45
3, 20686, Control_c, 0, 64, 127
3, 20880, Note_on_c, 0, 59, 0
3, 20880, Note_on_c, 0, 55, 44
3, 21000, Note_on_c, 0, 55, 0
3, 21000, Note_on_c, 0, 52, 39
3, 21120, Note_on_c, 0, 52, 0
3, 21120, Note_on_c, 0, 49, 44
3, 21134, Control_c, 0, 64, 0
3, 21229, Control_c, 0, 64, 127
3, 21480, Note_on_c, 0, 49, 0
3, 21480, Note_on_c, 0, 59, 45
3, 21600, Note_on_c, 0, 59, 0
3, 21600, Note_on_c, 0, 67, 50
3, 21610, Control_c, 0, 64, 0
3, 21697, Control_c, 0, 64, 127
3, 21838, Note_on_c, 0, 67, 0
3, 21840, Note_on_c, 0, 59, 44
3, 22080, Note_on_c, 0, 59, 0
3, 22080, Note_on_c, 0, 42, 44
3, 22089, Control_c, 0, 64, 0
3, 22129, Control_c, 0, 64, 127
3, 22500, Note_on_c, 0, 53, 42
3, 22512, Control_c, 0, 64, 0
3, 22560, Note_on_c, 0, 53, 0
3, 22560, Note_on_c, 0, 42, 0
3, 22560, Note_on_c, 0, 54, 47
3, 22800, Note_on_c, 0, 54, 0
3, 22800, Note_on_c, 0, 64, 49
3, 22920, Note_on_c, 0, 64, 0
3, 22920, Note_on_c, 0, 57, 44
3, 23040, Note_on_c, 0, 57, 0
3, 23040, Note_on_c, 0, 58, 51
3, 23040, Note_on_c, 0, 66, 51
3, 23052, Control_c, 0, 64, 0
3, 23196, Control_c, 0, 64, 127
3, 23520, Note_on_c, 0, 66, 0
3, 23520, Note_on_c, 0, 58, 0
3, 23520, Note_on_c, 0, 54, 48
3, 23537, Control_c, 0, 64, 0
3, 23668, Control_c, 0, 64, 127
3, 24000, Note_on_c, 0, 54, 0
3, 24000, Note_on_c, 0, 47, 50
3, 24012, Control_c, 0, 64, 0
3, 24099, Control_c, 0, 64, 127
3, 24360, Note_on_c, 0, 54, 46
3, 24417, Control_c, 0, 64, 0
3, 24480, Note_on_c, 0, 54, 0
3, 24480, Note_on_c, 0, 62, 50
3, 24720, Note_on_c, 0, 62, 0
3, 24720, Note_on_c, 0, 54, 46
3, 24960, Note_on_c, 0, 54, 0
3, 24960, Note_on_c, 0, 47, 0
3, 24960, Note_on_c, 0, 47, 51
3, 25045, Control_c, 0, 64, 127
3, 25320, Note_on_c, 0, 55, 45
3, 25440, Note_on_c, 0, 55, 0
3, 25440, Note_on_c, 0, 61, 50
3, 25452, Control_c, 0, 64, 0
3, 25525, Control_c, 0, 64, 127
3, 25680, Note_on_c, 0, 61, 0
3, 25680, Note_on_c, 0, 55, 47
3, 25920, Note_on_c, 0, 55, 0
3, 25920, Note_on_c, 0, 47, 0
3, 25920, Note_on_c, 0, 47, 49
3, 25933, Control_c, 0, 64, 0
3, 25980, Control_c, 0, 64, 127
3, 26080, Note_on_c, 0, 53, 46
3, 26107, Control_c, 0, 64, 0
3, 26240, Note_on_c, 0, 53, 0
3, 26240, Note_on_c, 0, 54, 49
3, 26340, Note_on_c, 0, 57, 47
3, 26400, Note_on_c, 0, 57, 0
3, 26400, Note_on_c, 0, 54, 0
3, 26400, Note_on_c, 0, 55, 50
3, 26640, Note_on_c, 0, 55, 0
3, 26640, Note_on_c, 0, 54, 46
3, 26880, Note_on_c, 0, 54, 0
3, 26880, Note_on_c, 0, 47, 0
3, 26880, Note_on_c, 0, 47, 51
3, 26965, Control_c, 0, 64, 127
3, 27240, Note_on_c, 0, 55, 50
3, 27360, Note_on_c, 0, 55, 0
3, 27360, Note_on_c, 0, 61, 54
3, 27376, Control_c, 0, 64, 0
3, 27494, Control_c, 0, 64, 127
3, 27600, Note_on_c, 0, 61, 0
3, 27600, Note_on_c, 0, 55, 47
3, 27840, Note_on_c, 0, 55, 0
3, 27840, Note_on_c, 0, 47, 0
3, 27840, Note_on_c, 0, 47, 49
3, 27854, Control_c, 0, 64, 0
3, 27904, Control_c, 0, 64, 127
3, 28000, Note_on_c, 0, 53, 46
3, 28027, Control_c, 0, 64, 0
3, 28160, Note_on_c, 0, 53, 0
3, 28160, Note_on_c, 0, 54, 49
3, 28260, Note_on_c, 0, 57, 45
3, 28320, Note_on_c, 0, 57, 0
3, 28320, Note_on_c, 0, 54, 0
3, 28320, Note_on_c, 0, 55, 49
3, 28560, Note_on_c, 0, 55, 0
3, 28560, Note_on_c, 0, 54, 43
3, 28800, Note_on_c, 0, 54, 0
3, 28800, Note_on_c, 0, 47, 0
3, 28800, Note_on_c, 0, 44, 48
3, 28885, Control_c, 0, 64, 127
3, 29160, Note_on_c, 0, 49, 36
3, 29280, Note_on_c, 0, 49, 0
3, 29280, Note_on_c, 0, 50, 42
3, 29294, Control_c, 0, 64, 0
3, 29379, Control_c, 0, 64, 127
3, 29520, Note_on_c, 0, 50, 0
3, 29520, Note_on_c, 0, 56, 40
3, 29760, Note_on_c, 0, 56, 0
3, 29760, Note_on_c, 0, 44, 0
3, 29760, Note_on_c, 0, 37, 46
3, 29774, Control_c, 0, 64, 0
3, 29812, Control_c, 0, 64, 127
3, 29920, Note_on_c, 0, 37, 0
3, 29920, Note_on_c, 0, 48, 42
3, 29947, Control_c, 0, 64, 0
3, 30080, Note_on_c, 0, 48, 0
3, 30080, Note_on_c, 0, 49, 41
3, 30180, Note_on_c, 0, 53, 34
3, 30240, Note_on_c, 0, 53, 0
3, 30240, Note_on_c, 0, 49, 0
3, 30240, Note_on_c, 0, 51, 39
3, 30480, Note_on_c, 0, 51, 0
3, 30480, Note_on_c, 0, 49, 43
3, 30720, Note_on_c, 0, 49, 0
3, 30720, Note_on_c, 0, 59, 45
3, 30720, Note_on_c, 0, 49, 45
3, 30763, Control_c, 0, 64, 127
3, 30880, Note_on_c, 0, 59, 0
3, 30880, Note_on_c, 0, 61, 46
3, 30980, Note_on_c, 0, 65, 28
3, 31040, Note_on_c, 0, 65, 0
3, 31040, Note_on_c, 0, 61, 0
3, 31040, Note_on_c, 0, 63, 32
3, 31200, Note_on_c, 0, 63, 0
3, 31200, Note_on_c, 0, 61, 40
3, 31214, Control_c, 0, 64, 0
3, 31295, Control_c, 0, 64, 127
3, 31440, Note_on_c, 0, 61, 0
3, 31440, Note_on_c, 0, 59, 35
3, 31680, Note_on_c, 0, 59, 0
3, 31680, Note_on_c, 0, 49, 0
3, 31680, Note_on_c, 0, 42, 41
3, 31688, Control_c, 0, 64, 0
3, 31777, Control_c, 0, 64, 127
3, 32100, Note_on_c, 0, 48, 29
3, 32109, Control_c, 0, 64, 0
3, 32160, Note_on_c, 0, 48, 0
3, 32160, Note_on_c, 0, 49, 34
3, 32400, Note_on_c, 0, 49, 0
3, 32400, Note_on_c, 0, 61, 36
3, 32640, Note_on_c, 0, 61, 0
3, 32640, Note_on_c, 0, 42, 0
3, 32640, Note_on_c, 0, 42, 45
3, 32683, Control_c, 0, 64, 127
3, 33000, Note_on_c, 0, 49, 36
3, 33120, Note_on_c, 0, 49, 0
3, 33120, Note_on_c, 0, 59, 38
3, 33135, Control_c, 0, 64, 0
3, 33217, Control_c, 0, 64, 127
3, 33360, Note_on_c, 0, 59, 0
3, 33360, Note_on_c, 0, 42, 0
3, 33360, Note_on_c, 0, 54, 33
3, 33600, Note_on_c, 0, 54, 0
3, 33600, Note_on_c, 0, 42, 45
3, 33613, Control_c, 0, 64, 0
3, 33689, Control_c, 0, 64, 127
3, 33960, Note_on_c, 0, 49, 36
3, 34080, Note_on_c, 0, 49, 0
3, 34080, Note_on_c, 0, 58, 38
3, 34092, Control_c, 0, 64, 0
3, 34166, Control_c, 0, 64, 127
3, 34320, Note_on_c, 0, 58, 0
3, 34320, Note_on_c, 0, 42, 0
3, 34320, Note_on_c, 0, 49, 33
3, 34560, Note_on_c, 0, 49, 0
3, 34560, Note_on_c, 0, 42, 45
3, 34570, Control_c, 0, 64, 0
3, 34675, Control_c, 0, 64, 127
3, 34920, Note_on_c, 0, 49, 36
3, 35040, Note_on_c, 0, 49, 0
3, 35040, Note_on_c, 0, 56, 38
3, 35050, Control_c, 0, 64, 0
3, 35132, Control_c, 0, 64, 127
3, 35280, Note_on_c, 0, 56, 0
3, 35280, Note_on_c, 0, 42, 0
3, 35280, Note_on_c, 0, 49, 33
3, 35520, Note_on_c, 0, 49, 0
3, 35520, Note_on_c, 0, 42, 45
3, 35527, Control_c, 0, 64, 0
3, 35583, Control_c, 0, 64, 127
3, 35880, Note_on_c, 0, 49, 37
3, 36000, Note_on_c, 0, 49, 0
3, 36000, Note_on_c, 0, 58, 44
3, 36012, Control_c, 0, 64, 0
3, 36083, Control_c, 0, 64, 127
3, 36240, Note_on_c, 0, 58, 0
3, 36240, Note_on_c, 0, 42, 0
3, 36240, Note_on_c, 0, 54, 33
3, 36480, Note_on_c, 0, 54, 0
3, 36480, Note_on_c, 0, 42, 45
3, 36492, Control_c, 0, 64, 0
3, 36555, Control_c, 0, 64, 127
3, 36840, Note_on_c, 0, 49, 36
3, 36960, Note_on_c, 0, 49, 0
3, 36960, Note_on_c, 0, 59, 38
3, 36977, Control_c, 0, 64, 0
3, 37032, Control_c, 0, 64, 127
3, 37200, Note_on_c, 0, 59, 0
3, 37200, Note_on_c, 0, 42, 0
3, 37200, Note_on_c, 0, 54, 33
3, 37440, Note_on_c, 0, 54, 0
3, 37440, Note_on_c, 0, 42, 45
3, 37452, Control_c, 0, 64, 0
3, 37567, Control_c, 0, 64, 127
3, 37920, Note_on_c, 0, 42, 0
3, 37920, Note_on_c, 0, 50, 35
3, 37920, Note_on_c, 0, 60, 35
3, 37935, Control_c, 0, 64, 0
3, 38019, Control_c, 0, 64, 127
3, 38400, Note_on_c, 0, 60, 0
3, 38400, Note_on_c, 0, 50, 0
3, 38400, Note_on_c, 0, 55, 38
3, 38400, Note_on_c, 0, 60, 38
3, 38413, Control_c, 0, 64, 0
3, 38492, Control_c, 0, 64, 127
3, 38720, Note_on_c, 0, 60, 0
3, 38720, Note_on_c, 0, 59, 34
3, 38880, Note_on_c, 0, 59, 0
3, 38880, Note_on_c, 0, 55, 0
3, 38880, Note_on_c, 0, 49, 35
3, 38880, Note_on_c, 0, 59, 35
3, 38894, Control_c, 0, 64, 0
3, 39025, Control_c, 0, 64, 127
3, 39360, Note_on_c, 0, 59, 0
3, 39360, Note_on_c, 0, 49, 0
3, 39360, Note_on_c, 0, 54, 37
3, 39360, Note_on_c, 0, 58, 37
3, 39373, Control_c, 0, 64, 0
3, 39487, Control_c, 0, 64, 127
3, 39840, Note_on_c, 0, 58, 0
3, 39840, Note_on_c, 0, 54, 0
3, 39840, Note_on_c, 0, 47, 35
3, 39840, Note_on_c, 0, 57, 35
3, 39861, Control_c, 0, 64, 0
3, 39988, Control_c, 0, 64, 127
3, 40320, Note_on_c, 0, 57, 0
3, 40320, Note_on_c, 0, 47, 0
3, 40320, Note_on_c, 0, 52, 45
3, 40320, Note_on_c, 0, 57, 45
3, 40330, Control_c, 0, 64, 0
3, 40426, Control_c, 0, 64, 127
3, 40640, Note_on_c, 0, 57, 0
3, 40640, Note_on_c, 0, 55, 34
3, 40800, Note_on_c, 0, 55, 0
3, 40800, Note_on_c, 0, 52, 0
3, 40800, Note_on_c, 0, 45, 35
3, 40800, Note_on_c, 0, 55, 35
3, 40814, Control_c, 0, 64, 0
3, 40874, Control_c, 0, 64, 127
3, 41280, Note_on_c, 0, 55, 0
3, 41280, Note_on_c, 0, 45, 0
3, 41280, Note_on_c, 0, 38, 28
3, 41293, Control_c, 0, 64, 0
3, 41349, Control_c, 0, 64, 127
3, 41700, Note_on_c, 0, 56, 33
3, 41709, Control_c, 0, 64, 0
3, 41760, Note_on_c, 0, 56, 0
3, 41760, Note_on_c, 0, 38, 0
3, 41760, Note_on_c, 0, 57, 36
3, 41806, Control_c, 0, 64, 127
3, 42000, Note_on_c, 0, 57, 0
3, 42000, Note_on_c, 0, 45, 35
3, 42240, Note_on_c, 0, 45, 0
3, 42240, Note_on_c, 0, 38, 28
3, 42256, Control_c, 0, 64, 0
3, 42363, Control_c, 0, 64, 127
3, 42660, Note_on_c, 0, 56, 33
3, 42669, Control_c, 0, 64, 0
3, 42720, Note_on_c, 0, 56, 0
3, 42720, Note_on_c, 0, 38, 0
3, 42720, Note_on_c, 0, 57, 39
3, 42766, Control_c, 0, 64, 127
3, 42960, Note_on_c, 0, 57, 0
3, 42960, Note_on_c, 0, 45, 37
3, 43200, Note_on_c, 0, 45, 0
3, 43200, Note_on_c, 0, 50, 38
3, 43213, Control_c, 0, 64, 0
3, 43275, Control_c, 0, 64, 127
3, 43620, Note_on_c, 0, 56, 33
3, 43629, Control_c, 0, 64, 0
3, 43680, Note_on_c, 0, 56, 0
3, 43680, Note_on_c, 0, 50, 0
3, 43680, Note_on_c, 0, 57, 37
3, 43726, Control_c, 0, 64, 127
3, 43920, Note_on_c, 0, 57, 0
3, 43920, Note_on_c, 0, 51, 36
3, 44160, Note_on_c, 0, 51, 0
3, 44160, Note_on_c, 0, 52, 36
3, 44171, Control_c, 0, 64, 0
3, 44209, Control_c, 0, 64, 127
3, 44580, Note_on_c, 0, 56, 35
3, 44586, Control_c, 0, 64, 0
3, 44640, Note_on_c, 0, 56, 0
3, 44640, Note_on_c, 0, 52, 0
3, 44640, Note_on_c, 0, 57, 39
3, 44686, Control_c, 0, 64, 127
3, 44880, Note_on_c, 0, 57, 0
3, 44880, Note_on_c, 0, 45, 36
3, 45120, Note_on_c, 0, 45, 0
3, 45120, Note_on_c, 0, 49, 36
3, 45133, Control_c, 0, 64, 0
3, 45229, Control_c, 0, 64, 127
3, 45540, Note_on_c, 0, 56, 37
3, 45546, Control_c, 0, 64, 0
3, 45600, Note_on_c, 0, 56, 0
3, 45600, Note_on_c, 0, 49, 0
3, 45600, Note_on_c, 0, 57, 41
3, 45646, Control_c, 0, 64, 127
3, 45840, Note_on_c, 0, 57, 0
3, 45840, Note_on_c, 0, 45, 36
3, 46080, Note_on_c, 0, 45, 0
3, 46080, Note_on_c, 0, 52, 36
3, 46089, Control_c, 0, 64, 0
3, 46175, Control_c, 0, 64, 127
3, 46500, Note_on_c, 0, 56, 37
3, 46506, Control_c, 0, 64, 0
3, 46560, Note_on_c, 0, 56, 0
3, 46560, Note_on_c, 0, 52, 0
3, 46560, Note_on_c, 0, 57, 41
3, 46606, Control_c, 0, 64, 127
3, 46800, Note_on_c, 0, 57, 0
3, 46800, Note_on_c, 0, 45, 36
3, 47040, Note_on_c, 0, 45, 0
3, 47040, Note_on_c, 0, 49, 36
3, 47055, Control_c, 0, 64, 0
3, 47183, Control_c, 0, 64, 127
3, 47460, Note_on_c, 0, 56, 33
3, 47470, Control_c, 0, 64, 0
3, 47520, Note_on_c, 0, 56, 0
3, 47520, Note_on_c, 0, 49, 0
3, 47520, Note_on_c, 0, 57, 38
3, 47566, Control_c, 0, 64, 127
3, 47760, Note_on_c, 0, 57, 0
3, 47760, Note_on_c, 0, 45, 36
3, 48000, Note_on_c, 0, 45, 0
3, 48000, Note_on_c, 0, 50, 38
3, 48009, Control_c, 0, 64, 0
3, 48072, Control_c, 0, 64, 127
3, 48255, Control_c, 0, 64, 0
3, 48337, Control_c, 0, 64, 127
3, 48420, Note_on_c, 0, 56, 37
3, 48480, Note_on_c, 0, 56, 0
3, 48480, Note_on_c, 0, 50, 0
3, 48480, Note_on_c, 0, 57, 39
3, 48720, Note_on_c, 0, 57, 0
3, 48720, Note_on_c, 0, 54, 52
3, 48736, Control_c, 0, 64, 0
3, 48772, Control_c, 0, 64, 127
3, 48840, Note_on_c, 0, 54, 0
3, 48840, Note_on_c, 0, 50, 48
3, 48960, Note_on_c, 0, 50, 0
3, 48960, Note_on_c, 0, 46, 56
3, 48974, Control_c, 0, 64, 0
3, 49075, Control_c, 0, 64, 127
3, 49320, Note_on_c, 0, 46, 0
3, 49320, Note_on_c, 0, 53, 48
3, 49440, Note_on_c, 0, 53, 0
3, 49440, Note_on_c, 0, 62, 60
3, 49452, Control_c, 0, 64, 0
3, 49532, Control_c, 0, 64, 127
3, 49680, Note_on_c, 0, 62, 0
3, 49680, Note_on_c, 0, 53, 52
3, 49920, Note_on_c, 0, 53, 0
3, 49920, Note_on_c, 0, 41, 62
3, 49930, Control_c, 0, 64, 0
3, 49987, Control_c, 0, 64, 127
3, 50280, Note_on_c, 0, 41, 0
3, 50280, Note_on_c, 0, 47, 48
3, 50400, Note_on_c, 0, 47, 0
3, 50400, Note_on_c, 0, 48, 60
3, 50417, Control_c, 0, 64, 0
3, 50434, Control_c, 0, 64, 127
3, 50640, Note_on_c, 0, 48, 0
3, 50640, Note_on_c, 0, 57, 50
3, 50880, Note_on_c, 0, 57, 0
3, 50880, Note_on_c, 0, 43, 56
3, 50889, Control_c, 0, 64, 0
3, 50979, Control_c, 0, 64, 127
3, 51240, Note_on_c, 0, 43, 0
3, 51240, Note_on_c, 0, 50, 48
3, 51360, Note_on_c, 0, 50, 0
3, 51360, Note_on_c, 0, 58, 60
3, 51375, Control_c, 0, 64, 0
3, 51459, Control_c, 0, 64, 127
3, 51600, Note_on_c, 0, 58, 0
3, 51600, Note_on_c, 0, 50, 53
3, 51840, Note_on_c, 0, 50, 0
3, 51840, Note_on_c, 0, 38, 62
3, 51852, Control_c, 0, 64, 0
3, 51907, Control_c, 0, 64, 127
3, 52260, Note_on_c, 0, 38, 0
3, 52260, Note_on_c, 0, 44, 48
3, 52320, Note_on_c, 0, 44, 0
3, 52320, Note_on_c, 0, 45, 56
3, 52330, Control_c, 0, 64, 0
3, 52389, Control_c, 0, 64, 127
3, 52480, Note_on_c, 0, 45, 0
3, 52480, Note_on_c, 0, 58, 37
3, 52640, Note_on_c, 0, 58, 0
3, 52640, Note_on_c, 0, 57, 34
3, 52800, Note_on_c, 0, 57, 0
3, 52800, Note_on_c, 0, 47, 37
3, 52800, Note_on_c, 0, 57, 42
3, 52814, Control_c, 0, 64, 0
3, 52956, Control_c, 0, 64, 127
3, 53760, Note_on_c, 0, 57, 0
3, 53760, Note_on_c, 0, 47, 0
3, 53760, Note_on_c, 0, 52, 37
3, 53760, Note_on_c, 0, 57, 46
3, 53778, Control_c, 0, 64, 0
3, 53859, Control_c, 0, 64, 127
3, 54240, Note_on_c, 0, 57, 0
3, 54240, Note_on_c, 0, 55, 42
3, 54254, Control_c, 0, 64, 0
3, 54480, Note_on_c, 0, 55, 0
3, 54480, Note_on_c, 0, 52, 0
3, 54720, Note_on_c, 0, 45, 43
3, 54777, Control_c, 0, 64, 127
3, 54880, Note_on_c, 0, 58, 41
3, 55040, Note_on_c, 0, 58, 0
3, 55040, Note_on_c, 0, 57, 38
3, 55200, Note_on_c, 0, 57, 0
3, 55200, Note_on_c, 0, 57, 42
3, 55216, Control_c, 0, 64, 0
3, 55296, Control_c, 0, 64, 127
3, 55440, Note_on_c, 0, 57, 0
3, 55440, Note_on_c, 0, 55, 39
3, 55680, Note_on_c, 0, 55, 0
3, 55680, Note_on_c, 0, 45, 0
3, 55680, Note_on_c, 0, 38, 38
3, 55685, Control_c, 0, 64, 0
3, 55864, Control_c, 0, 64, 127
3, 56400, Note_on_c, 0, 38, 0
3, 56400, Note_on_c, 0, 33, 35
3, 56640, Note_on_c, 0, 33, 0
3, 56640, Note_on_c, 0, 38, 38
3, 57360, Note_on_c, 0, 38, 0
3, 57360, Note_on_c, 0, 33, 35
3, 57600, Note_on_c, 0, 33, 0
3, 57600, Note_on_c, 0, 38, 25
3, 57600, Note_on_c, 0, 45, 25
3, 57600, Note_on_c, 0, 50, 30
3, 58560, Note_on_c, 0, 50, 0
3, 58560, Note_on_c, 0, 45, 0
3, 58560, Note_on_c, 0, 38, 0
3, 58560, Note_on_c, 0, 62, 31
3, 58560, Note_on_c, 0, 69, 31
3, 58560, Note_on_c, 0, 78, 35
3, 59520, Note_on_c, 0, 78, 0
3, 59520, Note_on_c, 0, 69, 0
3, 59520, Note_on_c, 0, 62, 0
3, 60107, Control_c, 0, 64, 0
3, 60107, End_track
4, 0, Start_track
4, 0, Title_t, "Albeniz :Espana Op. 165 Tango"
4, 0, End_track
5, 0, Start_track
5, 0, Title_t, "Copyright © 2001 by Bernd Krüger"
5, 0, End_track
6, 0, Start_track
6, 0, Title_t, "http://www.piano-midi.de"
6, 0, End_track
7, 0, Start_track
7, 0, Title_t, "Edition: 2010-08-29"
7, 0, End_track
8, 0, Start_track
8, 0, Title_t, "Spur 7"
8, 0, End_track
0, 0, End_of_file
