0, 0, Header, 1, 9, 480
1, 0, Start_track
1, 0, Title_t, "Suite espagnole"
1, 0, Title_t, "Castilla"
1, 0, Copyright_t, "Copyright © 2001 by Bernd Krueger"
1, 0, Text_t, "Isaac Albeniz"
1, 0, Text_t, "Seguidillas"
1, 0, Text_t, "Fertiggestellt am 26.5.2001\012"
1, 0, Text_t, "Normierung: 23.12.2002\012"
1, 0, Text_t, "Update am 19.9.2010\012"
1, 0, Text_t, "Dauer:2:35 Minuten\012"
1, 0, SMPTE_offset, 96, 0, 3, 0, 0
1, 0, Time_signature, 3, 2, 24, 8
1, 0, Key_signature, 6, "major"
1, 0, Tempo, 357675
1, 480, Tempo, 354129
1, 520, Tempo, 355303
1, 960, Tempo, 361272
1, 1440, Tempo, 357675
1, 1480, Tempo, 354129
1, 1920, Tempo, 358852
1, 2400, Tempo, 362494
1, 2880, Tempo, 356464
1, 3360, Tempo, 358852
1, 3840, Tempo, 362494
1, 4320, Tempo, 362582
1, 4800, Tempo, 368437
1, 5280, Tempo, 376979
1, 5760, Tempo, 334262
1, 6000, Tempo, 362494
1, 6240, Tempo, 340870
1, 6480, Tempo, 361424
1, 6960, Tempo, 367467
1, 7200, Tempo, 328138
1, 7440, Tempo, 362494
1, 7680, Tempo, 340870
1, 7920, Tempo, 361424
1, 8880, Tempo, 357675
1, 9040, Tempo, 356464
1, 9160, Tempo, 355303
1, 9280, Tempo, 354129
1, 9440, Tempo, 352962
1, 9560, Tempo, 351803
1, 9680, Tempo, 350672
1, 9800, Tempo, 349508
1, 9840, Tempo, 370005
1, 10080, Tempo, 357675
1, 10560, Tempo, 363702
1, 11280, Tempo, 367467
1, 11520, Tempo, 337401
1, 11760, Tempo, 362494
1, 12000, Tempo, 342916
1, 12240, Tempo, 361424
1, 12720, Tempo, 368732
1, 12960, Tempo, 334262
1, 13200, Tempo, 362494
1, 13440, Tempo, 342916
1, 13680, Tempo, 361424
1, 14400, Tempo, 363702
1, 14640, Tempo, 362494
1, 14880, Tempo, 357675
1, 15000, Tempo, 356464
1, 15080, Tempo, 355303
1, 15160, Tempo, 354129
1, 15240, Tempo, 352962
1, 15320, Tempo, 351803
1, 15400, Tempo, 350672
1, 15480, Tempo, 349508
1, 15560, Tempo, 348392
1, 15600, Tempo, 371264
1, 15840, Tempo, 363702
1, 16800, Tempo, 368732
1, 17280, Tempo, 363702
1, 17760, Tempo, 361272
1, 17840, Tempo, 362494
1, 17920, Tempo, 363702
1, 17960, Tempo, 364986
1, 18040, Tempo, 366211
1, 18080, Tempo, 367467
1, 18160, Tempo, 368732
1, 18240, Tempo, 370005
1, 18280, Tempo, 371264
1, 18360, Tempo, 372578
1, 18400, Tempo, 373855
1, 18480, Tempo, 375164
1, 18560, Tempo, 376506
1, 18600, Tempo, 377810
1, 18680, Tempo, 379171
1, 18720, Tempo, 380493
1, 19681, Tempo, 403714
1, 20160, Tempo, 460936
1, 20400, Tempo, 400882
1, 20640, Tempo, 411015
1, 21120, Tempo, 374508
1, 21360, Tempo, 388576
1, 21600, Tempo, 389914
1, 22080, Tempo, 375752
1, 22320, Tempo, 391236
1, 22560, Tempo, 409556
1, 23040, Tempo, 402307
1, 23280, Tempo, 388576
1, 23520, Tempo, 402307
1, 24000, Tempo, 411015
1, 24240, Tempo, 439593
1, 24480, Tempo, 417043
1, 24720, Tempo, 362494
1, 24960, Tempo, 339866
1, 25200, Tempo, 361424
1, 25680, Tempo, 367467
1, 25920, Tempo, 328138
1, 26160, Tempo, 362494
1, 26400, Tempo, 342916
1, 26640, Tempo, 361424
1, 27600, Tempo, 357675
1, 27760, Tempo, 356464
1, 27880, Tempo, 355303
1, 28000, Tempo, 354129
1, 28160, Tempo, 352962
1, 28280, Tempo, 351803
1, 28400, Tempo, 350672
1, 28520, Tempo, 349508
1, 28560, Tempo, 370005
1, 28800, Tempo, 357675
1, 29280, Tempo, 363702
1, 30000, Tempo, 367467
1, 30240, Tempo, 337401
1, 30480, Tempo, 362494
1, 30720, Tempo, 342916
1, 30960, Tempo, 361424
1, 31440, Tempo, 368732
1, 31680, Tempo, 334262
1, 31920, Tempo, 362494
1, 32160, Tempo, 346041
1, 32440, Tempo, 361424
1, 33120, Tempo, 363702
1, 33360, Tempo, 362494
1, 33600, Tempo, 357675
1, 33720, Tempo, 356464
1, 33800, Tempo, 355303
1, 33880, Tempo, 354129
1, 33960, Tempo, 352962
1, 34040, Tempo, 351803
1, 34120, Tempo, 350672
1, 34200, Tempo, 349508
1, 34280, Tempo, 348392
1, 34320, Tempo, 371264
1, 34560, Tempo, 363702
1, 35520, Tempo, 368732
1, 36000, Tempo, 363702
1, 36480, Tempo, 361272
1, 36560, Tempo, 362494
1, 36640, Tempo, 363702
1, 36680, Tempo, 364986
1, 36760, Tempo, 366211
1, 36800, Tempo, 367467
1, 36880, Tempo, 368732
1, 36960, Tempo, 370005
1, 37000, Tempo, 371264
1, 37080, Tempo, 372578
1, 37120, Tempo, 373855
1, 37200, Tempo, 375164
1, 37280, Tempo, 376506
1, 37320, Tempo, 377810
1, 37400, Tempo, 379171
1, 37440, Tempo, 380493
1, 38880, Tempo, 460936
1, 39120, Tempo, 400882
1, 39360, Tempo, 411015
1, 39840, Tempo, 374508
1, 40080, Tempo, 388576
1, 40320, Tempo, 389914
1, 40800, Tempo, 375752
1, 41040, Tempo, 391236
1, 41280, Tempo, 409556
1, 41760, Tempo, 400882
1, 42000, Tempo, 385927
1, 42240, Tempo, 402307
1, 42720, Tempo, 412513
1, 42960, Tempo, 439593
1, 43200, Tempo, 417043
1, 43440, Tempo, 362494
1, 43680, Tempo, 339866
1, 43920, Tempo, 361424
1, 44400, Tempo, 367467
1, 44640, Tempo, 328138
1, 44880, Tempo, 362494
1, 45120, Tempo, 342916
1, 45360, Tempo, 361424
1, 46320, Tempo, 357675
1, 46480, Tempo, 356464
1, 46600, Tempo, 355303
1, 46720, Tempo, 354129
1, 46880, Tempo, 352962
1, 47000, Tempo, 351803
1, 47120, Tempo, 350672
1, 47240, Tempo, 349508
1, 47280, Tempo, 370005
1, 47520, Tempo, 357675
1, 48000, Tempo, 363702
1, 48720, Tempo, 367467
1, 48960, Tempo, 337401
1, 49200, Tempo, 362494
1, 49440, Tempo, 342916
1, 49680, Tempo, 361424
1, 50160, Tempo, 368732
1, 50400, Tempo, 334262
1, 50640, Tempo, 362494
1, 50880, Tempo, 346041
1, 51160, Tempo, 361424
1, 51840, Tempo, 363702
1, 52080, Tempo, 362494
1, 52320, Tempo, 357675
1, 52440, Tempo, 356464
1, 52520, Tempo, 355303
1, 52600, Tempo, 354129
1, 52680, Tempo, 352962
1, 52760, Tempo, 351803
1, 52840, Tempo, 350672
1, 52920, Tempo, 349508
1, 53000, Tempo, 348392
1, 53040, Tempo, 371264
1, 53280, Tempo, 363702
1, 54240, Tempo, 368732
1, 54720, Tempo, 363702
1, 55200, Tempo, 361272
1, 55280, Tempo, 362494
1, 55360, Tempo, 363702
1, 55400, Tempo, 364986
1, 55480, Tempo, 366211
1, 55520, Tempo, 367467
1, 55600, Tempo, 368732
1, 55680, Tempo, 370005
1, 55720, Tempo, 371264
1, 55800, Tempo, 372578
1, 55840, Tempo, 373855
1, 55920, Tempo, 375164
1, 56000, Tempo, 376506
1, 56040, Tempo, 377810
1, 56120, Tempo, 379171
1, 56160, Tempo, 380493
1, 57600, Tempo, 460936
1, 57840, Tempo, 400882
1, 58080, Tempo, 411015
1, 58560, Tempo, 374508
1, 58800, Tempo, 388576
1, 59040, Tempo, 389914
1, 59520, Tempo, 375752
1, 59760, Tempo, 391236
1, 60000, Tempo, 409556
1, 60480, Tempo, 402307
1, 60720, Tempo, 388576
1, 60960, Tempo, 402307
1, 61440, Tempo, 411015
1, 61680, Tempo, 439593
1, 61920, Tempo, 417043
1, 62160, Tempo, 362494
1, 62400, Tempo, 339866
1, 62640, Tempo, 361424
1, 63120, Tempo, 367467
1, 63360, Tempo, 328138
1, 63600, Tempo, 362494
1, 63840, Tempo, 342916
1, 64080, Tempo, 361424
1, 65040, Tempo, 357675
1, 65200, Tempo, 356464
1, 65320, Tempo, 355303
1, 65440, Tempo, 354129
1, 65600, Tempo, 352962
1, 65720, Tempo, 351803
1, 65840, Tempo, 350672
1, 65960, Tempo, 349508
1, 66000, Tempo, 370005
1, 66240, Tempo, 357675
1, 66720, Tempo, 363702
1, 67440, Tempo, 367467
1, 67680, Tempo, 337401
1, 67920, Tempo, 362494
1, 68160, Tempo, 342916
1, 68400, Tempo, 361424
1, 68880, Tempo, 368732
1, 69120, Tempo, 334262
1, 69360, Tempo, 362494
1, 69600, Tempo, 346041
1, 69880, Tempo, 361424
1, 70560, Tempo, 363702
1, 70800, Tempo, 362494
1, 71040, Tempo, 357675
1, 71160, Tempo, 356464
1, 71240, Tempo, 355303
1, 71320, Tempo, 354129
1, 71400, Tempo, 352962
1, 71480, Tempo, 351803
1, 71560, Tempo, 350672
1, 71640, Tempo, 349508
1, 71720, Tempo, 348392
1, 71760, Tempo, 371264
1, 72000, Tempo, 363702
1, 72960, Tempo, 368732
1, 73440, Tempo, 363702
1, 73920, Tempo, 361272
1, 74000, Tempo, 362494
1, 74080, Tempo, 363702
1, 74120, Tempo, 364986
1, 74200, Tempo, 366211
1, 74240, Tempo, 367467
1, 74320, Tempo, 368732
1, 74400, Tempo, 370005
1, 74440, Tempo, 371264
1, 74520, Tempo, 372578
1, 74560, Tempo, 373855
1, 74640, Tempo, 375164
1, 74720, Tempo, 376506
1, 74760, Tempo, 377810
1, 74840, Tempo, 379171
1, 74880, Tempo, 380493
1, 76320, Key_signature, 4, "major"
1, 76320, Tempo, 364919
1, 76560, Tempo, 372047
1, 77280, Tempo, 366077
1, 77520, Tempo, 382044
1, 77640, Tempo, 361424
1, 77760, Tempo, 387247
1, 78240, Tempo, 379507
1, 78480, Tempo, 391236
1, 78720, Tempo, 391236
1, 79200, Tempo, 379507
1, 79440, Tempo, 408052
1, 79680, Tempo, 387247
1, 80200, Tempo, 395309
1, 80640, Tempo, 378239
1, 80880, Tempo, 366077
1, 81120, Tempo, 345006
1, 81360, Tempo, 361424
1, 81600, Tempo, 369663
1, 81840, Tempo, 385927
1, 81960, Tempo, 436205
1, 82080, Tempo, 364919
1, 82320, Tempo, 372047
1, 83040, Tempo, 366077
1, 83280, Tempo, 382044
1, 83400, Tempo, 362582
1, 83520, Tempo, 387247
1, 84000, Tempo, 382044
1, 84240, Tempo, 393959
1, 84480, Tempo, 391236
1, 84960, Tempo, 376979
1, 85200, Tempo, 393959
1, 85440, Tempo, 384640
1, 86160, Tempo, 415541
1, 86400, Tempo, 380783
1, 86640, Tempo, 366077
1, 86880, Tempo, 348169
1, 87120, Tempo, 367264
1, 87360, Tempo, 376979
1, 87600, Tempo, 395309
1, 87720, Tempo, 436205
1, 87840, Tempo, 364919
1, 88080, Tempo, 372047
1, 88800, Tempo, 366077
1, 89040, Tempo, 382044
1, 89160, Tempo, 362582
1, 89280, Tempo, 387247
1, 89760, Tempo, 382044
1, 90000, Tempo, 393959
1, 90240, Tempo, 391236
1, 90720, Tempo, 376979
1, 90960, Tempo, 406614
1, 91200, Tempo, 384640
1, 91680, Tempo, 391236
1, 91920, Tempo, 417043
1, 92160, Tempo, 389914
1, 92400, Tempo, 373274
1, 92640, Tempo, 350304
1, 92880, Tempo, 366077
1, 93120, Tempo, 374508
1, 93360, Tempo, 396694
1, 93480, Tempo, 439593
1, 93600, Tempo, 389914
1, 93840, Tempo, 378239
1, 94080, Tempo, 367264
1, 94320, Tempo, 375752
1, 94800, Tempo, 385927
1, 95040, Tempo, 378239
1, 95280, Tempo, 366077
1, 95520, Tempo, 364919
1, 95640, Tempo, 366077
1, 95760, Tempo, 367264
1, 95880, Tempo, 368437
1, 96000, Tempo, 369663
1, 96120, Tempo, 370851
1, 96240, Tempo, 372047
1, 96360, Tempo, 373274
1, 96480, Tempo, 380783
1, 96720, Tempo, 388576
1, 97200, Tempo, 393959
1, 97440, Tempo, 380783
1, 97920, Tempo, 389914
1, 99360, Key_signature, 0, "major"
1, 99360, Tempo, 334262
1, 99600, Tempo, 362494
1, 99840, Tempo, 340870
1, 100080, Tempo, 361424
1, 100560, Tempo, 367467
1, 100800, Tempo, 328138
1, 101040, Tempo, 362494
1, 101280, Tempo, 340870
1, 101520, Tempo, 361424
1, 102480, Tempo, 357675
1, 102640, Tempo, 356464
1, 102760, Tempo, 355303
1, 102880, Tempo, 354129
1, 103040, Tempo, 352962
1, 103160, Tempo, 351803
1, 103280, Tempo, 350672
1, 103400, Tempo, 349508
1, 103440, Tempo, 370005
1, 103680, Tempo, 357675
1, 104160, Tempo, 363702
1, 104880, Tempo, 367467
1, 105120, Tempo, 334262
1, 105360, Tempo, 362494
1, 105600, Tempo, 340870
1, 105840, Tempo, 361424
1, 106320, Tempo, 367467
1, 106560, Tempo, 328138
1, 106800, Tempo, 362494
1, 107040, Tempo, 340870
1, 107280, Tempo, 361424
1, 108240, Tempo, 357675
1, 108400, Tempo, 356464
1, 108520, Tempo, 355303
1, 108640, Tempo, 354129
1, 108800, Tempo, 352962
1, 108920, Tempo, 351803
1, 109040, Tempo, 350672
1, 109160, Tempo, 349508
1, 109200, Tempo, 370005
1, 109440, Tempo, 357675
1, 109920, Tempo, 363702
1, 110640, Tempo, 367467
1, 110880, Tempo, 368550
1, 111120, Tempo, 352879
1, 111360, Tempo, 358017
1, 111600, Tempo, 352485
1, 111840, Tempo, 352485
1, 112080, Tempo, 361424
1, 112320, Tempo, 352485
1, 112560, Tempo, 358017
1, 112800, Tempo, 352485
1, 113040, Tempo, 364919
1, 113280, Tempo, 355787
1, 113520, Tempo, 361424
1, 113760, Tempo, 352485
1, 114000, Tempo, 360295
1, 114240, Tempo, 354673
1, 114480, Tempo, 360295
1, 114720, Tempo, 352485
1, 114960, Tempo, 367264
1, 115200, Tempo, 362582
1, 115440, Tempo, 356909
1, 115520, Tempo, 358017
1, 115600, Tempo, 359152
1, 115680, Tempo, 360295
1, 115760, Tempo, 361424
1, 115840, Tempo, 362582
1, 115920, Tempo, 363725
1, 116000, Tempo, 364919
1, 116080, Tempo, 366077
1, 116160, Tempo, 367264
1, 116240, Tempo, 368437
1, 116320, Tempo, 369663
1, 116400, Tempo, 370851
1, 116440, Tempo, 372047
1, 116480, Tempo, 372347
1, 116600, Tempo, 373646
1, 116640, Tempo, 368550
1, 116880, Tempo, 352879
1, 117120, Tempo, 361424
1, 117360, Tempo, 354673
1, 117600, Tempo, 352485
1, 117840, Tempo, 361424
1, 118080, Tempo, 352485
1, 118320, Tempo, 358017
1, 118560, Tempo, 353565
1, 118800, Tempo, 364919
1, 119040, Tempo, 356909
1, 119280, Tempo, 362582
1, 119520, Tempo, 353565
1, 119760, Tempo, 362582
1, 120000, Tempo, 358017
1, 120240, Tempo, 362582
1, 120480, Tempo, 353565
1, 120720, Tempo, 368437
1, 120960, Tempo, 363725
1, 121200, Tempo, 355787
1, 121280, Tempo, 356909
1, 121360, Tempo, 358017
1, 121440, Tempo, 359152
1, 121520, Tempo, 360295
1, 121560, Tempo, 361424
1, 121640, Tempo, 362582
1, 121720, Tempo, 363725
1, 121800, Tempo, 364919
1, 121880, Tempo, 366077
1, 121920, Tempo, 367264
1, 122000, Tempo, 368437
1, 122080, Tempo, 369663
1, 122160, Tempo, 370851
1, 122240, Tempo, 372047
1, 122280, Tempo, 373274
1, 122360, Tempo, 373646
1, 122400, Tempo, 368550
1, 122640, Tempo, 352879
1, 122880, Tempo, 361424
1, 123360, Tempo, 352485
1, 123600, Tempo, 361424
1, 123840, Tempo, 352485
1, 124080, Tempo, 358017
1, 124320, Tempo, 358017
1, 124560, Tempo, 364919
1, 124800, Tempo, 363725
1, 125040, Tempo, 368550
1, 125280, Tempo, 368550
1, 125520, Tempo, 352879
1, 125760, Tempo, 361424
1, 126240, Tempo, 352485
1, 126480, Tempo, 361424
1, 126720, Tempo, 352485
1, 126960, Tempo, 358017
1, 127200, Tempo, 358017
1, 127440, Tempo, 364919
1, 127680, Tempo, 363725
1, 127920, Tempo, 368550
1, 128160, Tempo, 368550
1, 128400, Tempo, 352879
1, 128640, Tempo, 361424
1, 129120, Tempo, 352485
1, 129360, Tempo, 361424
1, 129600, Tempo, 352485
1, 129840, Tempo, 358017
1, 130080, Tempo, 358017
1, 130320, Tempo, 364919
1, 130560, Tempo, 363725
1, 130800, Tempo, 368550
1, 131040, Tempo, 352485
1, 131280, Tempo, 358017
1, 131520, Tempo, 358017
1, 131760, Tempo, 364919
1, 132000, Tempo, 363725
1, 132240, Tempo, 368550
1, 132480, Tempo, 352485
1, 132720, Tempo, 364919
1, 132960, Tempo, 361424
1, 133040, Tempo, 362582
1, 133080, Tempo, 363725
1, 133120, Tempo, 364919
1, 133160, Tempo, 366077
1, 133240, Tempo, 367264
1, 133280, Tempo, 368437
1, 133320, Tempo, 369663
1, 133360, Tempo, 370851
1, 133400, Tempo, 372047
1, 133480, Tempo, 373274
1, 133520, Tempo, 374508
1, 133560, Tempo, 375752
1, 133600, Tempo, 376979
1, 133640, Tempo, 378239
1, 133720, Tempo, 379507
1, 133760, Tempo, 380783
1, 133800, Tempo, 382044
1, 133840, Tempo, 383338
1, 133880, Tempo, 384640
1, 133920, Key_signature, 5, "major"
1, 133920, Tempo, 374508
1, 134160, Tempo, 362582
1, 134400, Tempo, 358017
1, 134880, Tempo, 356909
1, 135120, Tempo, 366077
1, 135360, Tempo, 352485
1, 135600, Tempo, 358017
1, 135840, Tempo, 352485
1, 136080, Tempo, 364919
1, 136320, Tempo, 359152
1, 136560, Tempo, 373274
1, 136800, Tempo, 368437
1, 137040, Tempo, 352485
1, 137280, Tempo, 355787
1, 137520, Tempo, 356909
1, 137760, Tempo, 356909
1, 138000, Tempo, 366077
1, 138240, Tempo, 352485
1, 138480, Tempo, 358017
1, 138720, Tempo, 352485
1, 138960, Tempo, 364919
1, 139200, Tempo, 359152
1, 139440, Tempo, 372047
1, 139680, Tempo, 368437
1, 139920, Tempo, 352485
1, 140160, Tempo, 355787
1, 140400, Tempo, 356909
1, 140640, Tempo, 356909
1, 140880, Tempo, 366077
1, 141120, Tempo, 368437
1, 141360, Tempo, 352485
1, 141600, Tempo, 355787
1, 141840, Tempo, 356909
1, 142080, Tempo, 356909
1, 142320, Tempo, 366077
1, 142800, Tempo, 359152
1, 143280, Tempo, 370851
1, 143520, Tempo, 363725
1, 143760, Tempo, 370851
1, 144000, Tempo, 364919
1, 144040, Tempo, 367264
1, 144120, Tempo, 368437
1, 144200, Tempo, 369663
1, 144280, Tempo, 370851
1, 144360, Tempo, 372047
1, 144440, Tempo, 373274
1, 144520, Tempo, 374508
1, 144600, Tempo, 375752
1, 144680, Tempo, 376979
1, 144720, Tempo, 378239
1, 144800, Tempo, 379507
1, 144880, Tempo, 380783
1, 144960, Tempo, 382044
1, 145040, Tempo, 383338
1, 145120, Tempo, 384640
1, 145200, Tempo, 385927
1, 145280, Tempo, 387247
1, 145360, Tempo, 388576
1, 145400, Tempo, 389914
1, 145440, Key_signature, 6, "major"
1, 145440, Tempo, 389914
1, 145680, Tempo, 374508
1, 145920, Tempo, 362582
1, 146400, Tempo, 356909
1, 146640, Tempo, 366077
1, 146880, Tempo, 361424
1, 147120, Tempo, 358017
1, 147360, Tempo, 352485
1, 147600, Tempo, 364919
1, 147840, Tempo, 359152
1, 148080, Tempo, 373274
1, 148320, Tempo, 367264
1, 148560, Tempo, 368437
1, 148800, Tempo, 362582
1, 149280, Tempo, 356909
1, 149520, Tempo, 366077
1, 149760, Tempo, 361424
1, 150000, Tempo, 358017
1, 150240, Tempo, 352485
1, 150480, Tempo, 364919
1, 150720, Tempo, 359152
1, 150960, Tempo, 373274
1, 151200, Tempo, 380783
1, 151440, Tempo, 368437
1, 151680, Tempo, 362582
1, 152160, Tempo, 356909
1, 152400, Tempo, 366077
1, 152640, Tempo, 361424
1, 152880, Tempo, 358017
1, 153120, Tempo, 352485
1, 153360, Tempo, 364919
1, 153600, Tempo, 359152
1, 153840, Tempo, 373274
1, 154080, Tempo, 367264
1, 154320, Tempo, 368437
1, 154560, Tempo, 362582
1, 155040, Tempo, 356909
1, 155280, Tempo, 366077
1, 155520, Tempo, 361424
1, 155760, Tempo, 358017
1, 156000, Tempo, 352485
1, 156240, Tempo, 364919
1, 156480, Tempo, 359152
1, 156720, Tempo, 373274
1, 156960, Tempo, 334262
1, 157200, Tempo, 362494
1, 157440, Tempo, 340870
1, 157680, Tempo, 361424
1, 158160, Tempo, 367467
1, 158400, Tempo, 358017
1, 158640, Tempo, 368437
1, 158880, Tempo, 362582
1, 159360, Tempo, 356909
1, 159600, Tempo, 375752
1, 159840, Tempo, 334262
1, 160080, Tempo, 362494
1, 160320, Tempo, 340870
1, 160560, Tempo, 361424
1, 161040, Tempo, 373274
1, 161280, Tempo, 354024
1, 161520, Tempo, 362319
1, 161760, Tempo, 358123
1, 162240, Tempo, 356909
1, 162480, Tempo, 366077
1, 162720, Tempo, 334262
1, 162960, Tempo, 362494
1, 163200, Tempo, 340870
1, 163440, Tempo, 361424
1, 163920, Tempo, 373274
1, 164160, Tempo, 383338
1, 164400, Tempo, 373274
1, 164640, Tempo, 359152
1, 164880, Tempo, 364919
1, 165120, Tempo, 360295
1, 165360, Tempo, 368437
1, 165600, Tempo, 358017
1, 165840, Tempo, 364919
1, 166080, Tempo, 364919
1, 166120, Tempo, 368437
1, 166200, Tempo, 369663
1, 166240, Tempo, 370851
1, 166320, Tempo, 372047
1, 166360, Tempo, 373274
1, 166440, Tempo, 374508
1, 166480, Tempo, 375752
1, 166560, Tempo, 376979
1, 166600, Tempo, 378239
1, 166680, Tempo, 379507
1, 166720, Tempo, 380783
1, 166800, Tempo, 382044
1, 166840, Tempo, 383338
1, 166920, Tempo, 384640
1, 167040, Tempo, 396694
1, 167280, Tempo, 380783
1, 167760, Tempo, 392593
1, 168000, Tempo, 382044
1, 168240, Tempo, 389914
1, 168480, Tempo, 368437
1, 168720, Tempo, 362494
1, 168960, Tempo, 340870
1, 169200, Tempo, 361424
1, 169680, Tempo, 367467
1, 169920, Tempo, 354024
1, 170160, Tempo, 363394
1, 170400, Tempo, 358123
1, 170880, Tempo, 356909
1, 171120, Tempo, 375752
1, 171360, Tempo, 334262
1, 171600, Tempo, 362494
1, 171840, Tempo, 340870
1, 172080, Tempo, 361424
1, 172560, Tempo, 373274
1, 172800, Tempo, 357079
1, 173040, Tempo, 365542
1, 173280, Tempo, 359174
1, 173760, Tempo, 356909
1, 174000, Tempo, 366077
1, 174240, Tempo, 334262
1, 174480, Tempo, 362494
1, 174720, Tempo, 340870
1, 174960, Tempo, 361424
1, 175440, Tempo, 373274
1, 175680, Tempo, 383338
1, 175920, Tempo, 373274
1, 176160, Tempo, 359152
1, 176400, Tempo, 364919
1, 176640, Tempo, 360295
1, 176880, Tempo, 368437
1, 177120, Tempo, 358017
1, 177360, Tempo, 364919
1, 177600, Tempo, 364919
1, 177640, Tempo, 368437
1, 177720, Tempo, 369663
1, 177760, Tempo, 370851
1, 177840, Tempo, 372047
1, 177880, Tempo, 373274
1, 177960, Tempo, 374508
1, 178000, Tempo, 375752
1, 178080, Tempo, 376979
1, 178120, Tempo, 378239
1, 178200, Tempo, 379507
1, 178240, Tempo, 380783
1, 178320, Tempo, 382044
1, 178360, Tempo, 383338
1, 178440, Tempo, 384640
1, 178560, Tempo, 396694
1, 178800, Tempo, 380783
1, 179280, Tempo, 392593
1, 179520, Tempo, 382044
1, 179760, Tempo, 389914
1, 180000, Tempo, 398168
1, 180240, Tempo, 361446
1, 180480, Tempo, 372671
1, 180720, Tempo, 360360
1, 180960, Tempo, 372671
1, 181200, Tempo, 361446
1, 181360, Tempo, 371103
1, 181440, Tempo, 372671
1, 181480, Tempo, 372185
1, 181680, Tempo, 360360
1, 181920, Tempo, 371517
1, 182160, Tempo, 360360
1, 182400, Tempo, 383509
1, 183120, Tempo, 361446
1, 183360, Tempo, 371517
1, 183600, Tempo, 361446
1, 183840, Tempo, 371517
1, 184080, Tempo, 362538
1, 184320, Tempo, 371517
1, 184560, Tempo, 362538
1, 184800, Tempo, 371517
1, 185040, Tempo, 362538
1, 185280, Tempo, 384689
1, 185760, Tempo, 400909
1, 186000, Tempo, 361446
1, 186240, Tempo, 370370
1, 186480, Tempo, 362538
1, 186720, Tempo, 371517
1, 186960, Tempo, 363636
1, 187200, Tempo, 373297
1, 187440, Tempo, 363636
1, 187680, Tempo, 372671
1, 188160, Tempo, 383509
1, 188880, Tempo, 362538
1, 189120, Tempo, 371517
1, 189360, Tempo, 362538
1, 189600, Tempo, 371517
1, 189840, Tempo, 362538
1, 190000, Tempo, 371103
1, 190080, Tempo, 372185
1, 190320, Tempo, 362538
1, 190560, Tempo, 371517
1, 190800, Tempo, 363636
1, 191000, Tempo, 385852
1, 191040, Tempo, 399521
1, 191280, Tempo, 416696
1, 191520, Tempo, 404040
1, 191760, Tempo, 363636
1, 192000, Tempo, 372671
1, 192240, Tempo, 363636
1, 192480, Tempo, 369231
1, 192720, Tempo, 359281
1, 192960, Tempo, 368098
1, 193200, Tempo, 361446
1, 193440, Tempo, 369231
1, 193680, Tempo, 362538
1, 193960, Tempo, 380035
1, 194120, Tempo, 381194
1, 194160, Tempo, 398168
1, 196320, Tempo, 330287
1, 197320, Tempo, 398036
1, 197804, Tempo, 419668
1, 198522, Tempo, 410959
1, 198522, End_track
2, 0, Start_track
2, 0, Title_t, "Piano right"
2, 0, Program_c, 0, 0
2, 0, Control_c, 0, 7, 100
2, 0, Control_c, 0, 10, 64
2, 0, Text_t, "bdca426d104a26ac9dcb070447587523"
2, 0, Control_c, 0, 91, 127
2, 240, Note_on_c, 0, 71, 42
2, 240, Note_on_c, 0, 68, 42
2, 240, Note_on_c, 0, 75, 51
2, 360, Note_on_c, 0, 75, 0
2, 360, Note_on_c, 0, 68, 0
2, 360, Note_on_c, 0, 71, 0
2, 360, Note_on_c, 0, 66, 51
2, 480, Note_on_c, 0, 66, 0
2, 720, Note_on_c, 0, 75, 51
2, 720, Note_on_c, 0, 71, 42
2, 720, Note_on_c, 0, 68, 42
2, 840, Note_on_c, 0, 68, 0
2, 840, Note_on_c, 0, 71, 0
2, 840, Note_on_c, 0, 75, 0
2, 840, Note_on_c, 0, 66, 51
2, 960, Note_on_c, 0, 66, 0
2, 1200, Note_on_c, 0, 75, 51
2, 1200, Note_on_c, 0, 68, 42
2, 1200, Note_on_c, 0, 71, 42
2, 1320, Note_on_c, 0, 71, 0
2, 1320, Note_on_c, 0, 68, 0
2, 1320, Note_on_c, 0, 75, 0
2, 1320, Note_on_c, 0, 66, 51
2, 1440, Note_on_c, 0, 66, 0
2, 1680, Note_on_c, 0, 68, 44
2, 1680, Note_on_c, 0, 71, 44
2, 1680, Note_on_c, 0, 75, 52
2, 1800, Note_on_c, 0, 75, 0
2, 1800, Note_on_c, 0, 71, 0
2, 1800, Note_on_c, 0, 68, 0
2, 1800, Note_on_c, 0, 66, 52
2, 1920, Note_on_c, 0, 66, 0
2, 2160, Note_on_c, 0, 68, 44
2, 2160, Note_on_c, 0, 75, 52
2, 2160, Note_on_c, 0, 71, 44
2, 2280, Note_on_c, 0, 71, 0
2, 2280, Note_on_c, 0, 75, 0
2, 2280, Note_on_c, 0, 68, 0
2, 2280, Note_on_c, 0, 66, 52
2, 2400, Note_on_c, 0, 66, 0
2, 2640, Note_on_c, 0, 68, 44
2, 2640, Note_on_c, 0, 71, 44
2, 2640, Note_on_c, 0, 75, 52
2, 2760, Note_on_c, 0, 75, 0
2, 2760, Note_on_c, 0, 71, 0
2, 2760, Note_on_c, 0, 68, 0
2, 2760, Note_on_c, 0, 66, 52
2, 2880, Note_on_c, 0, 66, 0
2, 3120, Note_on_c, 0, 77, 42
2, 3120, Note_on_c, 0, 83, 42
2, 3120, Note_on_c, 0, 87, 51
2, 3240, Note_on_c, 0, 87, 0
2, 3240, Note_on_c, 0, 83, 0
2, 3240, Note_on_c, 0, 77, 0
2, 3240, Note_on_c, 0, 85, 51
2, 3360, Note_on_c, 0, 85, 0
2, 3600, Note_on_c, 0, 87, 51
2, 3600, Note_on_c, 0, 83, 42
2, 3600, Note_on_c, 0, 77, 42
2, 3720, Note_on_c, 0, 77, 0
2, 3720, Note_on_c, 0, 83, 0
2, 3720, Note_on_c, 0, 87, 0
2, 3720, Note_on_c, 0, 85, 51
2, 3840, Note_on_c, 0, 85, 0
2, 4080, Note_on_c, 0, 87, 51
2, 4080, Note_on_c, 0, 83, 42
2, 4080, Note_on_c, 0, 77, 42
2, 4200, Note_on_c, 0, 77, 0
2, 4200, Note_on_c, 0, 83, 0
2, 4200, Note_on_c, 0, 87, 0
2, 4200, Note_on_c, 0, 85, 51
2, 4320, Note_on_c, 0, 85, 0
2, 4560, Note_on_c, 0, 83, 44
2, 4560, Note_on_c, 0, 77, 44
2, 4560, Note_on_c, 0, 87, 52
2, 4680, Note_on_c, 0, 87, 0
2, 4680, Note_on_c, 0, 77, 0
2, 4680, Note_on_c, 0, 83, 0
2, 4680, Note_on_c, 0, 85, 52
2, 4800, Note_on_c, 0, 85, 0
2, 5040, Note_on_c, 0, 87, 52
2, 5040, Note_on_c, 0, 83, 44
2, 5040, Note_on_c, 0, 77, 44
2, 5160, Note_on_c, 0, 77, 0
2, 5160, Note_on_c, 0, 83, 0
2, 5160, Note_on_c, 0, 87, 0
2, 5160, Note_on_c, 0, 85, 52
2, 5280, Note_on_c, 0, 85, 0
2, 5520, Note_on_c, 0, 87, 52
2, 5520, Note_on_c, 0, 77, 44
2, 5520, Note_on_c, 0, 83, 44
2, 5640, Note_on_c, 0, 83, 0
2, 5640, Note_on_c, 0, 77, 0
2, 5640, Note_on_c, 0, 87, 0
2, 5640, Note_on_c, 0, 85, 52
2, 5760, Note_on_c, 0, 85, 0
2, 6000, Note_on_c, 0, 63, 35
2, 6000, Note_on_c, 0, 66, 35
2, 6000, Note_on_c, 0, 70, 35
2, 6120, Note_on_c, 0, 70, 0
2, 6120, Note_on_c, 0, 66, 0
2, 6120, Note_on_c, 0, 63, 0
2, 6120, Note_on_c, 0, 61, 35
2, 6238, Note_on_c, 0, 61, 0
2, 6480, Note_on_c, 0, 61, 35
2, 6480, Note_on_c, 0, 70, 35
2, 6480, Note_on_c, 0, 66, 35
2, 6540, Note_on_c, 0, 66, 0
2, 6540, Note_on_c, 0, 70, 0
2, 6540, Note_on_c, 0, 61, 0
2, 6960, Note_on_c, 0, 70, 35
2, 6960, Note_on_c, 0, 66, 35
2, 6960, Note_on_c, 0, 61, 35
2, 7020, Note_on_c, 0, 61, 0
2, 7020, Note_on_c, 0, 66, 0
2, 7020, Note_on_c, 0, 70, 0
2, 7440, Note_on_c, 0, 70, 35
2, 7440, Note_on_c, 0, 66, 35
2, 7440, Note_on_c, 0, 63, 35
2, 7560, Note_on_c, 0, 63, 0
2, 7560, Note_on_c, 0, 66, 0
2, 7560, Note_on_c, 0, 70, 0
2, 7560, Note_on_c, 0, 61, 35
2, 7678, Note_on_c, 0, 61, 0
2, 7920, Note_on_c, 0, 70, 35
2, 7920, Note_on_c, 0, 61, 35
2, 7920, Note_on_c, 0, 66, 35
2, 7980, Note_on_c, 0, 66, 0
2, 7980, Note_on_c, 0, 61, 0
2, 7980, Note_on_c, 0, 70, 0
2, 8400, Note_on_c, 0, 61, 35
2, 8400, Note_on_c, 0, 66, 35
2, 8400, Note_on_c, 0, 70, 35
2, 8460, Note_on_c, 0, 70, 0
2, 8460, Note_on_c, 0, 66, 0
2, 8460, Note_on_c, 0, 61, 0
2, 8880, Note_on_c, 0, 71, 35
2, 8880, Note_on_c, 0, 65, 35
2, 8880, Note_on_c, 0, 63, 35
2, 9000, Note_on_c, 0, 63, 0
2, 9000, Note_on_c, 0, 65, 0
2, 9000, Note_on_c, 0, 71, 0
2, 9000, Note_on_c, 0, 61, 35
2, 9118, Note_on_c, 0, 61, 0
2, 9360, Note_on_c, 0, 65, 36
2, 9360, Note_on_c, 0, 63, 36
2, 9360, Note_on_c, 0, 71, 36
2, 9480, Note_on_c, 0, 71, 0
2, 9480, Note_on_c, 0, 63, 0
2, 9480, Note_on_c, 0, 65, 0
2, 9480, Note_on_c, 0, 61, 36
2, 9600, Note_on_c, 0, 61, 0
2, 9840, Note_on_c, 0, 71, 38
2, 9840, Note_on_c, 0, 65, 38
2, 9840, Note_on_c, 0, 63, 38
2, 9960, Note_on_c, 0, 63, 0
2, 9960, Note_on_c, 0, 65, 0
2, 9960, Note_on_c, 0, 71, 0
2, 9960, Note_on_c, 0, 61, 38
2, 10080, Note_on_c, 0, 61, 0
2, 10320, Note_on_c, 0, 71, 39
2, 10320, Note_on_c, 0, 63, 39
2, 10320, Note_on_c, 0, 65, 39
2, 10440, Note_on_c, 0, 65, 0
2, 10440, Note_on_c, 0, 63, 0
2, 10440, Note_on_c, 0, 71, 0
2, 10440, Note_on_c, 0, 61, 39
2, 10560, Note_on_c, 0, 61, 0
2, 10800, Note_on_c, 0, 63, 41
2, 10800, Note_on_c, 0, 65, 41
2, 10800, Note_on_c, 0, 71, 41
2, 10920, Note_on_c, 0, 71, 0
2, 10920, Note_on_c, 0, 65, 0
2, 10920, Note_on_c, 0, 63, 0
2, 10920, Note_on_c, 0, 61, 42
2, 11038, Note_on_c, 0, 61, 0
2, 11280, Note_on_c, 0, 63, 43
2, 11280, Note_on_c, 0, 71, 43
2, 11280, Note_on_c, 0, 65, 43
2, 11400, Note_on_c, 0, 65, 0
2, 11400, Note_on_c, 0, 71, 0
2, 11400, Note_on_c, 0, 63, 0
2, 11400, Note_on_c, 0, 61, 44
2, 11520, Note_on_c, 0, 61, 0
2, 11760, Note_on_c, 0, 63, 35
2, 11760, Note_on_c, 0, 66, 35
2, 11760, Note_on_c, 0, 70, 35
2, 11880, Note_on_c, 0, 70, 0
2, 11880, Note_on_c, 0, 66, 0
2, 11880, Note_on_c, 0, 63, 0
2, 11880, Note_on_c, 0, 61, 35
2, 11998, Note_on_c, 0, 61, 0
2, 12240, Note_on_c, 0, 61, 35
2, 12240, Note_on_c, 0, 66, 35
2, 12240, Note_on_c, 0, 70, 35
2, 12300, Note_on_c, 0, 70, 0
2, 12300, Note_on_c, 0, 66, 0
2, 12300, Note_on_c, 0, 61, 0
2, 12720, Note_on_c, 0, 66, 35
2, 12720, Note_on_c, 0, 61, 35
2, 12720, Note_on_c, 0, 70, 35
2, 12780, Note_on_c, 0, 70, 0
2, 12780, Note_on_c, 0, 61, 0
2, 12780, Note_on_c, 0, 66, 0
2, 13200, Note_on_c, 0, 63, 35
2, 13200, Note_on_c, 0, 66, 35
2, 13200, Note_on_c, 0, 70, 35
2, 13320, Note_on_c, 0, 70, 0
2, 13320, Note_on_c, 0, 66, 0
2, 13320, Note_on_c, 0, 63, 0
2, 13320, Note_on_c, 0, 61, 35
2, 13438, Note_on_c, 0, 61, 0
2, 13680, Note_on_c, 0, 61, 35
2, 13680, Note_on_c, 0, 70, 35
2, 13680, Note_on_c, 0, 66, 35
2, 13740, Note_on_c, 0, 66, 0
2, 13740, Note_on_c, 0, 70, 0
2, 13740, Note_on_c, 0, 61, 0
2, 14160, Note_on_c, 0, 70, 35
2, 14160, Note_on_c, 0, 66, 35
2, 14160, Note_on_c, 0, 61, 35
2, 14220, Note_on_c, 0, 61, 0
2, 14220, Note_on_c, 0, 66, 0
2, 14220, Note_on_c, 0, 70, 0
2, 14640, Note_on_c, 0, 71, 35
2, 14640, Note_on_c, 0, 65, 35
2, 14640, Note_on_c, 0, 63, 35
2, 14760, Note_on_c, 0, 63, 0
2, 14760, Note_on_c, 0, 65, 0
2, 14760, Note_on_c, 0, 71, 0
2, 14760, Note_on_c, 0, 61, 35
2, 14880, Note_on_c, 0, 61, 0
2, 15120, Note_on_c, 0, 71, 36
2, 15120, Note_on_c, 0, 63, 36
2, 15120, Note_on_c, 0, 65, 36
2, 15240, Note_on_c, 0, 65, 0
2, 15240, Note_on_c, 0, 63, 0
2, 15240, Note_on_c, 0, 71, 0
2, 15240, Note_on_c, 0, 61, 36
2, 15360, Note_on_c, 0, 61, 0
2, 15600, Note_on_c, 0, 63, 38
2, 15600, Note_on_c, 0, 65, 38
2, 15600, Note_on_c, 0, 71, 38
2, 15720, Note_on_c, 0, 71, 0
2, 15720, Note_on_c, 0, 65, 0
2, 15720, Note_on_c, 0, 63, 0
2, 15720, Note_on_c, 0, 61, 38
2, 15840, Note_on_c, 0, 61, 0
2, 16080, Note_on_c, 0, 63, 39
2, 16080, Note_on_c, 0, 71, 39
2, 16080, Note_on_c, 0, 65, 39
2, 16200, Note_on_c, 0, 65, 0
2, 16200, Note_on_c, 0, 71, 0
2, 16200, Note_on_c, 0, 63, 0
2, 16200, Note_on_c, 0, 61, 39
2, 16320, Note_on_c, 0, 61, 0
2, 16560, Note_on_c, 0, 63, 41
2, 16560, Note_on_c, 0, 65, 41
2, 16560, Note_on_c, 0, 71, 41
2, 16680, Note_on_c, 0, 71, 0
2, 16680, Note_on_c, 0, 65, 0
2, 16680, Note_on_c, 0, 63, 0
2, 16680, Note_on_c, 0, 61, 42
2, 16800, Note_on_c, 0, 61, 0
2, 17040, Note_on_c, 0, 63, 43
2, 17040, Note_on_c, 0, 65, 43
2, 17040, Note_on_c, 0, 71, 43
2, 17160, Note_on_c, 0, 71, 0
2, 17160, Note_on_c, 0, 65, 0
2, 17160, Note_on_c, 0, 63, 0
2, 17160, Note_on_c, 0, 61, 44
2, 17280, Note_on_c, 0, 61, 0
2, 17280, Note_on_c, 0, 61, 58
2, 17280, Note_on_c, 0, 66, 58
2, 17640, Note_on_c, 0, 66, 0
2, 17640, Note_on_c, 0, 61, 0
2, 17640, Note_on_c, 0, 66, 55
2, 17640, Note_on_c, 0, 70, 55
2, 17760, Note_on_c, 0, 70, 0
2, 17760, Note_on_c, 0, 66, 0
2, 17760, Note_on_c, 0, 70, 57
2, 17760, Note_on_c, 0, 73, 57
2, 17880, Note_on_c, 0, 73, 0
2, 17880, Note_on_c, 0, 70, 0
2, 18000, Note_on_c, 0, 73, 61
2, 18000, Note_on_c, 0, 78, 61
2, 18120, Note_on_c, 0, 78, 0
2, 18120, Note_on_c, 0, 73, 0
2, 18240, Note_on_c, 0, 78, 66
2, 18240, Note_on_c, 0, 82, 66
2, 18360, Note_on_c, 0, 82, 0
2, 18360, Note_on_c, 0, 78, 0
2, 18480, Note_on_c, 0, 85, 63
2, 18480, Note_on_c, 0, 82, 63
2, 18600, Note_on_c, 0, 82, 0
2, 18600, Note_on_c, 0, 85, 0
2, 18720, Note_on_c, 0, 90, 76
2, 18720, Note_on_c, 0, 85, 76
2, 18960, Note_on_c, 0, 85, 0
2, 18960, Note_on_c, 0, 90, 0
2, 19200, Note_on_c, 0, 102, 85
2, 19200, Note_on_c, 0, 97, 85
2, 19200, Note_on_c, 0, 90, 85
2, 19680, Note_on_c, 0, 90, 0
2, 19680, Note_on_c, 0, 97, 0
2, 19680, Note_on_c, 0, 102, 0
2, 20160, Note_on_c, 0, 78, 67
2, 20160, Note_on_c, 0, 90, 67
2, 20400, Note_on_c, 0, 90, 0
2, 20400, Note_on_c, 0, 78, 0
2, 20400, Note_on_c, 0, 92, 69
2, 20400, Note_on_c, 0, 80, 69
2, 20640, Note_on_c, 0, 80, 0
2, 20640, Note_on_c, 0, 92, 0
2, 20640, Note_on_c, 0, 82, 71
2, 20640, Note_on_c, 0, 94, 71
2, 21120, Note_on_c, 0, 94, 0
2, 21120, Note_on_c, 0, 82, 0
2, 21120, Note_on_c, 0, 80, 68
2, 21120, Note_on_c, 0, 92, 68
2, 21360, Note_on_c, 0, 92, 0
2, 21360, Note_on_c, 0, 80, 0
2, 21360, Note_on_c, 0, 90, 65
2, 21360, Note_on_c, 0, 78, 65
2, 21480, Note_on_c, 0, 80, 53
2, 21480, Note_on_c, 0, 92, 53
2, 21540, Note_on_c, 0, 92, 0
2, 21540, Note_on_c, 0, 90, 0
2, 21540, Note_on_c, 0, 78, 0
2, 21540, Note_on_c, 0, 80, 0
2, 21540, Note_on_c, 0, 82, 53
2, 21540, Note_on_c, 0, 94, 53
2, 21600, Note_on_c, 0, 94, 0
2, 21600, Note_on_c, 0, 82, 0
2, 21600, Note_on_c, 0, 92, 68
2, 21600, Note_on_c, 0, 80, 68
2, 22080, Note_on_c, 0, 80, 0
2, 22080, Note_on_c, 0, 92, 0
2, 22080, Note_on_c, 0, 78, 59
2, 22080, Note_on_c, 0, 90, 59
2, 22320, Note_on_c, 0, 90, 0
2, 22320, Note_on_c, 0, 78, 0
2, 22320, Note_on_c, 0, 87, 57
2, 22320, Note_on_c, 0, 75, 57
2, 22560, Note_on_c, 0, 75, 0
2, 22560, Note_on_c, 0, 87, 0
2, 22560, Note_on_c, 0, 73, 55
2, 22560, Note_on_c, 0, 85, 55
2, 23040, Note_on_c, 0, 85, 0
2, 23040, Note_on_c, 0, 73, 0
2, 23040, Note_on_c, 0, 68, 62
2, 23040, Note_on_c, 0, 80, 62
2, 23040, Note_on_c, 0, 74, 62
2, 23280, Note_on_c, 0, 80, 0
2, 23280, Note_on_c, 0, 68, 0
2, 23280, Note_on_c, 0, 82, 64
2, 23280, Note_on_c, 0, 70, 64
2, 23520, Note_on_c, 0, 70, 0
2, 23520, Note_on_c, 0, 82, 0
2, 23520, Note_on_c, 0, 74, 0
2, 23520, Note_on_c, 0, 71, 66
2, 23520, Note_on_c, 0, 74, 66
2, 23520, Note_on_c, 0, 83, 66
2, 24000, Note_on_c, 0, 83, 0
2, 24000, Note_on_c, 0, 74, 0
2, 24000, Note_on_c, 0, 71, 0
2, 24000, Note_on_c, 0, 73, 59
2, 24000, Note_on_c, 0, 80, 59
2, 24000, Note_on_c, 0, 68, 59
2, 24240, Note_on_c, 0, 68, 0
2, 24240, Note_on_c, 0, 80, 0
2, 24240, Note_on_c, 0, 82, 53
2, 24240, Note_on_c, 0, 70, 53
2, 24480, Note_on_c, 0, 70, 0
2, 24480, Note_on_c, 0, 82, 0
2, 24480, Note_on_c, 0, 73, 0
2, 24480, Note_on_c, 0, 78, 62
2, 24480, Note_on_c, 0, 70, 62
2, 24480, Note_on_c, 0, 66, 62
2, 24720, Note_on_c, 0, 66, 0
2, 24720, Note_on_c, 0, 70, 0
2, 24720, Note_on_c, 0, 78, 0
2, 24720, Note_on_c, 0, 63, 35
2, 24720, Note_on_c, 0, 66, 35
2, 24720, Note_on_c, 0, 70, 35
2, 24840, Note_on_c, 0, 70, 0
2, 24840, Note_on_c, 0, 66, 0
2, 24840, Note_on_c, 0, 63, 0
2, 24840, Note_on_c, 0, 61, 35
2, 24960, Note_on_c, 0, 61, 0
2, 25200, Note_on_c, 0, 61, 35
2, 25200, Note_on_c, 0, 66, 35
2, 25200, Note_on_c, 0, 70, 35
2, 25260, Note_on_c, 0, 70, 0
2, 25260, Note_on_c, 0, 66, 0
2, 25260, Note_on_c, 0, 61, 0
2, 25680, Note_on_c, 0, 66, 35
2, 25680, Note_on_c, 0, 61, 35
2, 25680, Note_on_c, 0, 70, 35
2, 25740, Note_on_c, 0, 70, 0
2, 25740, Note_on_c, 0, 61, 0
2, 25740, Note_on_c, 0, 66, 0
2, 26160, Note_on_c, 0, 63, 35
2, 26160, Note_on_c, 0, 66, 35
2, 26160, Note_on_c, 0, 70, 35
2, 26280, Note_on_c, 0, 70, 0
2, 26280, Note_on_c, 0, 66, 0
2, 26280, Note_on_c, 0, 63, 0
2, 26280, Note_on_c, 0, 61, 35
2, 26398, Note_on_c, 0, 61, 0
2, 26640, Note_on_c, 0, 61, 35
2, 26640, Note_on_c, 0, 70, 35
2, 26640, Note_on_c, 0, 66, 35
2, 26700, Note_on_c, 0, 66, 0
2, 26700, Note_on_c, 0, 70, 0
2, 26700, Note_on_c, 0, 61, 0
2, 27120, Note_on_c, 0, 70, 35
2, 27120, Note_on_c, 0, 66, 35
2, 27120, Note_on_c, 0, 61, 35
2, 27180, Note_on_c, 0, 61, 0
2, 27180, Note_on_c, 0, 66, 0
2, 27180, Note_on_c, 0, 70, 0
2, 27600, Note_on_c, 0, 71, 35
2, 27600, Note_on_c, 0, 65, 35
2, 27600, Note_on_c, 0, 63, 35
2, 27720, Note_on_c, 0, 63, 0
2, 27720, Note_on_c, 0, 65, 0
2, 27720, Note_on_c, 0, 71, 0
2, 27720, Note_on_c, 0, 61, 35
2, 27840, Note_on_c, 0, 61, 0
2, 28080, Note_on_c, 0, 71, 36
2, 28080, Note_on_c, 0, 63, 36
2, 28080, Note_on_c, 0, 65, 36
2, 28200, Note_on_c, 0, 65, 0
2, 28200, Note_on_c, 0, 63, 0
2, 28200, Note_on_c, 0, 71, 0
2, 28200, Note_on_c, 0, 61, 36
2, 28320, Note_on_c, 0, 61, 0
2, 28560, Note_on_c, 0, 63, 38
2, 28560, Note_on_c, 0, 65, 38
2, 28560, Note_on_c, 0, 71, 38
2, 28680, Note_on_c, 0, 71, 0
2, 28680, Note_on_c, 0, 65, 0
2, 28680, Note_on_c, 0, 63, 0
2, 28680, Note_on_c, 0, 61, 38
2, 28800, Note_on_c, 0, 61, 0
2, 29040, Note_on_c, 0, 63, 39
2, 29040, Note_on_c, 0, 71, 39
2, 29040, Note_on_c, 0, 65, 39
2, 29160, Note_on_c, 0, 65, 0
2, 29160, Note_on_c, 0, 71, 0
2, 29160, Note_on_c, 0, 63, 0
2, 29160, Note_on_c, 0, 61, 39
2, 29280, Note_on_c, 0, 61, 0
2, 29520, Note_on_c, 0, 63, 41
2, 29520, Note_on_c, 0, 65, 41
2, 29520, Note_on_c, 0, 71, 41
2, 29640, Note_on_c, 0, 71, 0
2, 29640, Note_on_c, 0, 65, 0
2, 29640, Note_on_c, 0, 63, 0
2, 29640, Note_on_c, 0, 61, 42
2, 29760, Note_on_c, 0, 61, 0
2, 30000, Note_on_c, 0, 63, 43
2, 30000, Note_on_c, 0, 65, 43
2, 30000, Note_on_c, 0, 71, 43
2, 30120, Note_on_c, 0, 71, 0
2, 30120, Note_on_c, 0, 65, 0
2, 30120, Note_on_c, 0, 63, 0
2, 30120, Note_on_c, 0, 61, 44
2, 30240, Note_on_c, 0, 61, 0
2, 30480, Note_on_c, 0, 70, 35
2, 30480, Note_on_c, 0, 66, 35
2, 30480, Note_on_c, 0, 63, 35
2, 30600, Note_on_c, 0, 63, 0
2, 30600, Note_on_c, 0, 66, 0
2, 30600, Note_on_c, 0, 70, 0
2, 30600, Note_on_c, 0, 61, 35
2, 30718, Note_on_c, 0, 61, 0
2, 30960, Note_on_c, 0, 70, 35
2, 30960, Note_on_c, 0, 66, 35
2, 30960, Note_on_c, 0, 61, 35
2, 31020, Note_on_c, 0, 61, 0
2, 31020, Note_on_c, 0, 66, 0
2, 31020, Note_on_c, 0, 70, 0
2, 31440, Note_on_c, 0, 70, 35
2, 31440, Note_on_c, 0, 61, 35
2, 31440, Note_on_c, 0, 66, 35
2, 31500, Note_on_c, 0, 66, 0
2, 31500, Note_on_c, 0, 61, 0
2, 31500, Note_on_c, 0, 70, 0
2, 31920, Note_on_c, 0, 63, 35
2, 31920, Note_on_c, 0, 66, 35
2, 31920, Note_on_c, 0, 70, 35
2, 32040, Note_on_c, 0, 70, 0
2, 32040, Note_on_c, 0, 66, 0
2, 32040, Note_on_c, 0, 63, 0
2, 32040, Note_on_c, 0, 61, 35
2, 32158, Note_on_c, 0, 61, 0
2, 32400, Note_on_c, 0, 61, 35
2, 32400, Note_on_c, 0, 66, 35
2, 32400, Note_on_c, 0, 70, 35
2, 32460, Note_on_c, 0, 70, 0
2, 32460, Note_on_c, 0, 66, 0
2, 32460, Note_on_c, 0, 61, 0
2, 32880, Note_on_c, 0, 66, 35
2, 32880, Note_on_c, 0, 61, 35
2, 32880, Note_on_c, 0, 70, 35
2, 32940, Note_on_c, 0, 70, 0
2, 32940, Note_on_c, 0, 61, 0
2, 32940, Note_on_c, 0, 66, 0
2, 33360, Note_on_c, 0, 63, 35
2, 33360, Note_on_c, 0, 65, 35
2, 33360, Note_on_c, 0, 71, 35
2, 33480, Note_on_c, 0, 71, 0
2, 33480, Note_on_c, 0, 65, 0
2, 33480, Note_on_c, 0, 63, 0
2, 33480, Note_on_c, 0, 61, 35
2, 33600, Note_on_c, 0, 61, 0
2, 33840, Note_on_c, 0, 63, 36
2, 33840, Note_on_c, 0, 71, 36
2, 33840, Note_on_c, 0, 65, 36
2, 33960, Note_on_c, 0, 65, 0
2, 33960, Note_on_c, 0, 71, 0
2, 33960, Note_on_c, 0, 63, 0
2, 33960, Note_on_c, 0, 61, 36
2, 34080, Note_on_c, 0, 61, 0
2, 34320, Note_on_c, 0, 63, 38
2, 34320, Note_on_c, 0, 65, 38
2, 34320, Note_on_c, 0, 71, 38
2, 34440, Note_on_c, 0, 71, 0
2, 34440, Note_on_c, 0, 65, 0
2, 34440, Note_on_c, 0, 63, 0
2, 34440, Note_on_c, 0, 61, 38
2, 34560, Note_on_c, 0, 61, 0
2, 34800, Note_on_c, 0, 63, 39
2, 34800, Note_on_c, 0, 65, 39
2, 34800, Note_on_c, 0, 71, 39
2, 34920, Note_on_c, 0, 71, 0
2, 34920, Note_on_c, 0, 65, 0
2, 34920, Note_on_c, 0, 63, 0
2, 34920, Note_on_c, 0, 61, 39
2, 35040, Note_on_c, 0, 61, 0
2, 35280, Note_on_c, 0, 71, 41
2, 35280, Note_on_c, 0, 65, 41
2, 35280, Note_on_c, 0, 63, 41
2, 35400, Note_on_c, 0, 63, 0
2, 35400, Note_on_c, 0, 65, 0
2, 35400, Note_on_c, 0, 71, 0
2, 35400, Note_on_c, 0, 61, 42
2, 35518, Note_on_c, 0, 61, 0
2, 35760, Note_on_c, 0, 71, 43
2, 35760, Note_on_c, 0, 65, 43
2, 35760, Note_on_c, 0, 63, 43
2, 35880, Note_on_c, 0, 63, 0
2, 35880, Note_on_c, 0, 65, 0
2, 35880, Note_on_c, 0, 71, 0
2, 35880, Note_on_c, 0, 61, 44
2, 36000, Note_on_c, 0, 61, 0
2, 36000, Note_on_c, 0, 66, 58
2, 36000, Note_on_c, 0, 61, 58
2, 36360, Note_on_c, 0, 61, 0
2, 36360, Note_on_c, 0, 66, 0
2, 36360, Note_on_c, 0, 66, 55
2, 36360, Note_on_c, 0, 70, 55
2, 36480, Note_on_c, 0, 70, 0
2, 36480, Note_on_c, 0, 66, 0
2, 36480, Note_on_c, 0, 70, 57
2, 36480, Note_on_c, 0, 73, 57
2, 36600, Note_on_c, 0, 73, 0
2, 36600, Note_on_c, 0, 70, 0
2, 36720, Note_on_c, 0, 73, 61
2, 36720, Note_on_c, 0, 78, 61
2, 36840, Note_on_c, 0, 78, 0
2, 36840, Note_on_c, 0, 73, 0
2, 36960, Note_on_c, 0, 78, 66
2, 36960, Note_on_c, 0, 82, 66
2, 37080, Note_on_c, 0, 82, 0
2, 37080, Note_on_c, 0, 78, 0
2, 37200, Note_on_c, 0, 85, 63
2, 37200, Note_on_c, 0, 82, 63
2, 37320, Note_on_c, 0, 82, 0
2, 37320, Note_on_c, 0, 85, 0
2, 37440, Note_on_c, 0, 90, 76
2, 37440, Note_on_c, 0, 85, 76
2, 37680, Note_on_c, 0, 85, 0
2, 37680, Note_on_c, 0, 90, 0
2, 37920, Note_on_c, 0, 90, 85
2, 37920, Note_on_c, 0, 97, 85
2, 37920, Note_on_c, 0, 102, 85
2, 38400, Note_on_c, 0, 102, 0
2, 38400, Note_on_c, 0, 97, 0
2, 38400, Note_on_c, 0, 90, 0
2, 38880, Note_on_c, 0, 78, 61
2, 38880, Note_on_c, 0, 90, 61
2, 39120, Note_on_c, 0, 90, 0
2, 39120, Note_on_c, 0, 78, 0
2, 39120, Note_on_c, 0, 92, 63
2, 39120, Note_on_c, 0, 80, 63
2, 39360, Note_on_c, 0, 80, 0
2, 39360, Note_on_c, 0, 92, 0
2, 39360, Note_on_c, 0, 82, 66
2, 39360, Note_on_c, 0, 94, 66
2, 39840, Note_on_c, 0, 94, 0
2, 39840, Note_on_c, 0, 82, 0
2, 39840, Note_on_c, 0, 80, 62
2, 39840, Note_on_c, 0, 92, 62
2, 40080, Note_on_c, 0, 92, 0
2, 40080, Note_on_c, 0, 80, 0
2, 40080, Note_on_c, 0, 78, 60
2, 40080, Note_on_c, 0, 90, 60
2, 40200, Note_on_c, 0, 92, 49
2, 40200, Note_on_c, 0, 80, 49
2, 40260, Note_on_c, 0, 80, 0
2, 40260, Note_on_c, 0, 78, 0
2, 40260, Note_on_c, 0, 90, 0
2, 40260, Note_on_c, 0, 92, 0
2, 40260, Note_on_c, 0, 82, 49
2, 40260, Note_on_c, 0, 94, 49
2, 40320, Note_on_c, 0, 94, 0
2, 40320, Note_on_c, 0, 82, 0
2, 40320, Note_on_c, 0, 92, 62
2, 40320, Note_on_c, 0, 80, 62
2, 40800, Note_on_c, 0, 80, 0
2, 40800, Note_on_c, 0, 92, 0
2, 40800, Note_on_c, 0, 78, 58
2, 40800, Note_on_c, 0, 90, 58
2, 41040, Note_on_c, 0, 90, 0
2, 41040, Note_on_c, 0, 78, 0
2, 41040, Note_on_c, 0, 89, 56
2, 41040, Note_on_c, 0, 77, 56
2, 41280, Note_on_c, 0, 77, 0
2, 41280, Note_on_c, 0, 89, 0
2, 41280, Note_on_c, 0, 75, 53
2, 41280, Note_on_c, 0, 87, 53
2, 41760, Note_on_c, 0, 87, 0
2, 41760, Note_on_c, 0, 75, 0
2, 41760, Note_on_c, 0, 66, 57
2, 42000, Note_on_c, 0, 77, 54
2, 42240, Note_on_c, 0, 77, 0
2, 42240, Note_on_c, 0, 75, 62
2, 42720, Note_on_c, 0, 75, 0
2, 42720, Note_on_c, 0, 66, 0
2, 42720, Note_on_c, 0, 66, 60
2, 42720, Note_on_c, 0, 72, 60
2, 42960, Note_on_c, 0, 72, 0
2, 42960, Note_on_c, 0, 80, 56
2, 43200, Note_on_c, 0, 80, 0
2, 43200, Note_on_c, 0, 66, 0
2, 43200, Note_on_c, 0, 77, 57
2, 43200, Note_on_c, 0, 65, 57
2, 43440, Note_on_c, 0, 65, 0
2, 43440, Note_on_c, 0, 77, 0
2, 43440, Note_on_c, 0, 58, 35
2, 43440, Note_on_c, 0, 61, 35
2, 43440, Note_on_c, 0, 65, 35
2, 43560, Note_on_c, 0, 65, 0
2, 43560, Note_on_c, 0, 61, 0
2, 43560, Note_on_c, 0, 58, 0
2, 43560, Note_on_c, 0, 56, 35
2, 43675, Note_on_c, 0, 56, 0
2, 43920, Note_on_c, 0, 56, 35
2, 43920, Note_on_c, 0, 61, 35
2, 43920, Note_on_c, 0, 65, 35
2, 43980, Note_on_c, 0, 65, 0
2, 43980, Note_on_c, 0, 61, 0
2, 43980, Note_on_c, 0, 56, 0
2, 44400, Note_on_c, 0, 61, 35
2, 44400, Note_on_c, 0, 56, 35
2, 44400, Note_on_c, 0, 65, 35
2, 44460, Note_on_c, 0, 65, 0
2, 44460, Note_on_c, 0, 56, 0
2, 44460, Note_on_c, 0, 61, 0
2, 44880, Note_on_c, 0, 58, 35
2, 44880, Note_on_c, 0, 61, 35
2, 44880, Note_on_c, 0, 65, 35
2, 45000, Note_on_c, 0, 65, 0
2, 45000, Note_on_c, 0, 61, 0
2, 45000, Note_on_c, 0, 58, 0
2, 45000, Note_on_c, 0, 56, 35
2, 45110, Note_on_c, 0, 56, 0
2, 45360, Note_on_c, 0, 56, 35
2, 45360, Note_on_c, 0, 65, 35
2, 45360, Note_on_c, 0, 61, 35
2, 45420, Note_on_c, 0, 61, 0
2, 45420, Note_on_c, 0, 65, 0
2, 45420, Note_on_c, 0, 56, 0
2, 45840, Note_on_c, 0, 65, 35
2, 45840, Note_on_c, 0, 61, 35
2, 45840, Note_on_c, 0, 56, 35
2, 45900, Note_on_c, 0, 56, 0
2, 45900, Note_on_c, 0, 61, 0
2, 45900, Note_on_c, 0, 65, 0
2, 46320, Note_on_c, 0, 66, 35
2, 46320, Note_on_c, 0, 60, 35
2, 46320, Note_on_c, 0, 58, 35
2, 46440, Note_on_c, 0, 58, 0
2, 46440, Note_on_c, 0, 60, 0
2, 46440, Note_on_c, 0, 66, 0
2, 46440, Note_on_c, 0, 56, 35
2, 46550, Note_on_c, 0, 56, 0
2, 46800, Note_on_c, 0, 66, 36
2, 46800, Note_on_c, 0, 58, 36
2, 46800, Note_on_c, 0, 60, 36
2, 46920, Note_on_c, 0, 60, 0
2, 46920, Note_on_c, 0, 58, 0
2, 46920, Note_on_c, 0, 66, 0
2, 46920, Note_on_c, 0, 56, 36
2, 47040, Note_on_c, 0, 56, 0
2, 47280, Note_on_c, 0, 58, 38
2, 47280, Note_on_c, 0, 60, 38
2, 47280, Note_on_c, 0, 66, 38
2, 47400, Note_on_c, 0, 66, 0
2, 47400, Note_on_c, 0, 60, 0
2, 47400, Note_on_c, 0, 58, 0
2, 47400, Note_on_c, 0, 56, 38
2, 47520, Note_on_c, 0, 56, 0
2, 47760, Note_on_c, 0, 58, 39
2, 47760, Note_on_c, 0, 66, 39
2, 47760, Note_on_c, 0, 60, 39
2, 47880, Note_on_c, 0, 60, 0
2, 47880, Note_on_c, 0, 66, 0
2, 47880, Note_on_c, 0, 58, 0
2, 47880, Note_on_c, 0, 56, 39
2, 48000, Note_on_c, 0, 56, 0
2, 48240, Note_on_c, 0, 58, 41
2, 48240, Note_on_c, 0, 60, 41
2, 48240, Note_on_c, 0, 66, 41
2, 48360, Note_on_c, 0, 66, 0
2, 48360, Note_on_c, 0, 60, 0
2, 48360, Note_on_c, 0, 58, 0
2, 48360, Note_on_c, 0, 56, 42
2, 48470, Note_on_c, 0, 56, 0
2, 48720, Note_on_c, 0, 58, 43
2, 48720, Note_on_c, 0, 60, 43
2, 48720, Note_on_c, 0, 66, 43
2, 48840, Note_on_c, 0, 66, 0
2, 48840, Note_on_c, 0, 60, 0
2, 48840, Note_on_c, 0, 58, 0
2, 48840, Note_on_c, 0, 56, 44
2, 48960, Note_on_c, 0, 56, 0
2, 49200, Note_on_c, 0, 65, 35
2, 49200, Note_on_c, 0, 61, 35
2, 49200, Note_on_c, 0, 58, 35
2, 49320, Note_on_c, 0, 58, 0
2, 49320, Note_on_c, 0, 61, 0
2, 49320, Note_on_c, 0, 65, 0
2, 49320, Note_on_c, 0, 56, 35
2, 49430, Note_on_c, 0, 56, 0
2, 49680, Note_on_c, 0, 65, 35
2, 49680, Note_on_c, 0, 61, 35
2, 49680, Note_on_c, 0, 56, 35
2, 49740, Note_on_c, 0, 56, 0
2, 49740, Note_on_c, 0, 61, 0
2, 49740, Note_on_c, 0, 65, 0
2, 50160, Note_on_c, 0, 65, 35
2, 50160, Note_on_c, 0, 56, 35
2, 50160, Note_on_c, 0, 61, 35
2, 50220, Note_on_c, 0, 61, 0
2, 50220, Note_on_c, 0, 56, 0
2, 50220, Note_on_c, 0, 65, 0
2, 50640, Note_on_c, 0, 58, 35
2, 50640, Note_on_c, 0, 61, 35
2, 50640, Note_on_c, 0, 65, 35
2, 50760, Note_on_c, 0, 65, 0
2, 50760, Note_on_c, 0, 61, 0
2, 50760, Note_on_c, 0, 58, 0
2, 50760, Note_on_c, 0, 56, 35
2, 50870, Note_on_c, 0, 56, 0
2, 51120, Note_on_c, 0, 56, 35
2, 51120, Note_on_c, 0, 61, 35
2, 51120, Note_on_c, 0, 65, 35
2, 51180, Note_on_c, 0, 65, 0
2, 51180, Note_on_c, 0, 61, 0
2, 51180, Note_on_c, 0, 56, 0
2, 51600, Note_on_c, 0, 61, 35
2, 51600, Note_on_c, 0, 56, 35
2, 51600, Note_on_c, 0, 65, 35
2, 51660, Note_on_c, 0, 65, 0
2, 51660, Note_on_c, 0, 56, 0
2, 51660, Note_on_c, 0, 61, 0
2, 52080, Note_on_c, 0, 58, 35
2, 52080, Note_on_c, 0, 60, 35
2, 52080, Note_on_c, 0, 66, 35
2, 52200, Note_on_c, 0, 66, 0
2, 52200, Note_on_c, 0, 60, 0
2, 52200, Note_on_c, 0, 58, 0
2, 52200, Note_on_c, 0, 56, 35
2, 52310, Note_on_c, 0, 56, 0
2, 52560, Note_on_c, 0, 58, 36
2, 52560, Note_on_c, 0, 66, 36
2, 52560, Note_on_c, 0, 60, 36
2, 52680, Note_on_c, 0, 60, 0
2, 52680, Note_on_c, 0, 66, 0
2, 52680, Note_on_c, 0, 58, 0
2, 52680, Note_on_c, 0, 56, 36
2, 52800, Note_on_c, 0, 56, 0
2, 53040, Note_on_c, 0, 58, 38
2, 53040, Note_on_c, 0, 60, 38
2, 53040, Note_on_c, 0, 66, 38
2, 53160, Note_on_c, 0, 66, 0
2, 53160, Note_on_c, 0, 60, 0
2, 53160, Note_on_c, 0, 58, 0
2, 53160, Note_on_c, 0, 56, 38
2, 53280, Note_on_c, 0, 56, 0
2, 53520, Note_on_c, 0, 58, 39
2, 53520, Note_on_c, 0, 60, 39
2, 53520, Note_on_c, 0, 66, 39
2, 53640, Note_on_c, 0, 66, 0
2, 53640, Note_on_c, 0, 60, 0
2, 53640, Note_on_c, 0, 58, 0
2, 53640, Note_on_c, 0, 56, 39
2, 53760, Note_on_c, 0, 56, 0
2, 54000, Note_on_c, 0, 66, 41
2, 54000, Note_on_c, 0, 60, 41
2, 54000, Note_on_c, 0, 58, 41
2, 54120, Note_on_c, 0, 58, 0
2, 54120, Note_on_c, 0, 60, 0
2, 54120, Note_on_c, 0, 66, 0
2, 54120, Note_on_c, 0, 56, 42
2, 54230, Note_on_c, 0, 56, 0
2, 54480, Note_on_c, 0, 66, 43
2, 54480, Note_on_c, 0, 60, 43
2, 54480, Note_on_c, 0, 58, 43
2, 54600, Note_on_c, 0, 58, 0
2, 54600, Note_on_c, 0, 60, 0
2, 54600, Note_on_c, 0, 66, 0
2, 54600, Note_on_c, 0, 56, 44
2, 54720, Note_on_c, 0, 56, 0
2, 54720, Note_on_c, 0, 61, 58
2, 54720, Note_on_c, 0, 56, 58
2, 55080, Note_on_c, 0, 56, 0
2, 55080, Note_on_c, 0, 61, 0
2, 55080, Note_on_c, 0, 61, 55
2, 55080, Note_on_c, 0, 65, 55
2, 55198, Note_on_c, 0, 61, 0
2, 55200, Note_on_c, 0, 65, 0
2, 55200, Note_on_c, 0, 65, 57
2, 55200, Note_on_c, 0, 68, 57
2, 55320, Note_on_c, 0, 68, 0
2, 55320, Note_on_c, 0, 65, 0
2, 55440, Note_on_c, 0, 68, 61
2, 55440, Note_on_c, 0, 73, 61
2, 55560, Note_on_c, 0, 73, 0
2, 55560, Note_on_c, 0, 68, 0
2, 55680, Note_on_c, 0, 73, 66
2, 55680, Note_on_c, 0, 77, 66
2, 55800, Note_on_c, 0, 77, 0
2, 55800, Note_on_c, 0, 73, 0
2, 55920, Note_on_c, 0, 80, 63
2, 55920, Note_on_c, 0, 77, 63
2, 56040, Note_on_c, 0, 77, 0
2, 56040, Note_on_c, 0, 80, 0
2, 56160, Note_on_c, 0, 73, 76
2, 56160, Note_on_c, 0, 85, 76
2, 56160, Note_on_c, 0, 80, 76
2, 56400, Note_on_c, 0, 80, 0
2, 56400, Note_on_c, 0, 85, 0
2, 56400, Note_on_c, 0, 73, 0
2, 56640, Note_on_c, 0, 97, 85
2, 56640, Note_on_c, 0, 89, 85
2, 56640, Note_on_c, 0, 85, 85
2, 57120, Note_on_c, 0, 85, 0
2, 57120, Note_on_c, 0, 89, 0
2, 57120, Note_on_c, 0, 97, 0
2, 57600, Note_on_c, 0, 75, 61
2, 57600, Note_on_c, 0, 87, 61
2, 57840, Note_on_c, 0, 87, 0
2, 57840, Note_on_c, 0, 75, 0
2, 57840, Note_on_c, 0, 89, 63
2, 57840, Note_on_c, 0, 77, 63
2, 58080, Note_on_c, 0, 77, 0
2, 58080, Note_on_c, 0, 89, 0
2, 58080, Note_on_c, 0, 78, 66
2, 58080, Note_on_c, 0, 90, 66
2, 58560, Note_on_c, 0, 90, 0
2, 58560, Note_on_c, 0, 78, 0
2, 58560, Note_on_c, 0, 80, 62
2, 58560, Note_on_c, 0, 92, 62
2, 58800, Note_on_c, 0, 92, 0
2, 58800, Note_on_c, 0, 80, 0
2, 58800, Note_on_c, 0, 90, 60
2, 58800, Note_on_c, 0, 78, 60
2, 58920, Note_on_c, 0, 77, 49
2, 58920, Note_on_c, 0, 89, 49
2, 58980, Note_on_c, 0, 89, 0
2, 58980, Note_on_c, 0, 90, 0
2, 58980, Note_on_c, 0, 78, 0
2, 58980, Note_on_c, 0, 77, 0
2, 58980, Note_on_c, 0, 78, 49
2, 58980, Note_on_c, 0, 90, 49
2, 59040, Note_on_c, 0, 90, 0
2, 59040, Note_on_c, 0, 78, 0
2, 59040, Note_on_c, 0, 89, 62
2, 59040, Note_on_c, 0, 77, 62
2, 59520, Note_on_c, 0, 77, 0
2, 59520, Note_on_c, 0, 89, 0
2, 59520, Note_on_c, 0, 75, 55
2, 59520, Note_on_c, 0, 87, 55
2, 59760, Note_on_c, 0, 87, 0
2, 59760, Note_on_c, 0, 75, 0
2, 59760, Note_on_c, 0, 89, 52
2, 59760, Note_on_c, 0, 77, 52
2, 60000, Note_on_c, 0, 77, 0
2, 60000, Note_on_c, 0, 89, 0
2, 60000, Note_on_c, 0, 73, 50
2, 60000, Note_on_c, 0, 85, 50
2, 60480, Note_on_c, 0, 85, 0
2, 60480, Note_on_c, 0, 73, 0
2, 60480, Note_on_c, 0, 70, 52
2, 60480, Note_on_c, 0, 82, 52
2, 60480, Note_on_c, 0, 76, 52
2, 60720, Note_on_c, 0, 82, 0
2, 60720, Note_on_c, 0, 70, 0
2, 60720, Note_on_c, 0, 85, 54
2, 60720, Note_on_c, 0, 73, 54
2, 60960, Note_on_c, 0, 73, 0
2, 60960, Note_on_c, 0, 85, 0
2, 60960, Note_on_c, 0, 76, 0
2, 60960, Note_on_c, 0, 71, 56
2, 60960, Note_on_c, 0, 75, 56
2, 60960, Note_on_c, 0, 83, 56
2, 61440, Note_on_c, 0, 83, 0
2, 61440, Note_on_c, 0, 75, 0
2, 61440, Note_on_c, 0, 71, 0
2, 61440, Note_on_c, 0, 73, 50
2, 61440, Note_on_c, 0, 80, 50
2, 61440, Note_on_c, 0, 68, 50
2, 61680, Note_on_c, 0, 68, 0
2, 61680, Note_on_c, 0, 80, 0
2, 61680, Note_on_c, 0, 82, 45
2, 61680, Note_on_c, 0, 70, 45
2, 61920, Note_on_c, 0, 70, 0
2, 61920, Note_on_c, 0, 82, 0
2, 61920, Note_on_c, 0, 73, 0
2, 61920, Note_on_c, 0, 78, 52
2, 61920, Note_on_c, 0, 70, 52
2, 61920, Note_on_c, 0, 66, 52
2, 62160, Note_on_c, 0, 66, 0
2, 62160, Note_on_c, 0, 70, 0
2, 62160, Note_on_c, 0, 78, 0
2, 62160, Note_on_c, 0, 63, 35
2, 62160, Note_on_c, 0, 66, 35
2, 62160, Note_on_c, 0, 70, 35
2, 62280, Note_on_c, 0, 70, 0
2, 62280, Note_on_c, 0, 66, 0
2, 62280, Note_on_c, 0, 63, 0
2, 62280, Note_on_c, 0, 61, 35
2, 62390, Note_on_c, 0, 61, 0
2, 62640, Note_on_c, 0, 61, 35
2, 62640, Note_on_c, 0, 66, 35
2, 62640, Note_on_c, 0, 70, 35
2, 62700, Note_on_c, 0, 70, 0
2, 62700, Note_on_c, 0, 66, 0
2, 62700, Note_on_c, 0, 61, 0
2, 63120, Note_on_c, 0, 66, 35
2, 63120, Note_on_c, 0, 61, 35
2, 63120, Note_on_c, 0, 70, 35
2, 63180, Note_on_c, 0, 70, 0
2, 63180, Note_on_c, 0, 61, 0
2, 63180, Note_on_c, 0, 66, 0
2, 63600, Note_on_c, 0, 63, 35
2, 63600, Note_on_c, 0, 66, 35
2, 63600, Note_on_c, 0, 70, 35
2, 63720, Note_on_c, 0, 70, 0
2, 63720, Note_on_c, 0, 66, 0
2, 63720, Note_on_c, 0, 63, 0
2, 63720, Note_on_c, 0, 61, 35
2, 63830, Note_on_c, 0, 61, 0
2, 64080, Note_on_c, 0, 61, 35
2, 64080, Note_on_c, 0, 70, 35
2, 64080, Note_on_c, 0, 66, 35
2, 64140, Note_on_c, 0, 66, 0
2, 64140, Note_on_c, 0, 70, 0
2, 64140, Note_on_c, 0, 61, 0
2, 64560, Note_on_c, 0, 70, 35
2, 64560, Note_on_c, 0, 66, 35
2, 64560, Note_on_c, 0, 61, 35
2, 64620, Note_on_c, 0, 61, 0
2, 64620, Note_on_c, 0, 66, 0
2, 64620, Note_on_c, 0, 70, 0
2, 65040, Note_on_c, 0, 71, 35
2, 65040, Note_on_c, 0, 65, 35
2, 65040, Note_on_c, 0, 63, 35
2, 65160, Note_on_c, 0, 63, 0
2, 65160, Note_on_c, 0, 65, 0
2, 65160, Note_on_c, 0, 71, 0
2, 65160, Note_on_c, 0, 61, 35
2, 65270, Note_on_c, 0, 61, 0
2, 65520, Note_on_c, 0, 71, 36
2, 65520, Note_on_c, 0, 63, 36
2, 65520, Note_on_c, 0, 65, 36
2, 65640, Note_on_c, 0, 65, 0
2, 65640, Note_on_c, 0, 63, 0
2, 65640, Note_on_c, 0, 71, 0
2, 65640, Note_on_c, 0, 61, 36
2, 65760, Note_on_c, 0, 61, 0
2, 66000, Note_on_c, 0, 63, 38
2, 66000, Note_on_c, 0, 65, 38
2, 66000, Note_on_c, 0, 71, 38
2, 66120, Note_on_c, 0, 71, 0
2, 66120, Note_on_c, 0, 65, 0
2, 66120, Note_on_c, 0, 63, 0
2, 66120, Note_on_c, 0, 61, 38
2, 66240, Note_on_c, 0, 61, 0
2, 66480, Note_on_c, 0, 63, 39
2, 66480, Note_on_c, 0, 71, 39
2, 66480, Note_on_c, 0, 65, 39
2, 66600, Note_on_c, 0, 65, 0
2, 66600, Note_on_c, 0, 71, 0
2, 66600, Note_on_c, 0, 63, 0
2, 66600, Note_on_c, 0, 61, 39
2, 66720, Note_on_c, 0, 61, 0
2, 66960, Note_on_c, 0, 63, 41
2, 66960, Note_on_c, 0, 65, 41
2, 66960, Note_on_c, 0, 71, 41
2, 67080, Note_on_c, 0, 71, 0
2, 67080, Note_on_c, 0, 65, 0
2, 67080, Note_on_c, 0, 63, 0
2, 67080, Note_on_c, 0, 61, 42
2, 67200, Note_on_c, 0, 61, 0
2, 67440, Note_on_c, 0, 63, 43
2, 67440, Note_on_c, 0, 65, 43
2, 67440, Note_on_c, 0, 71, 43
2, 67560, Note_on_c, 0, 71, 0
2, 67560, Note_on_c, 0, 65, 0
2, 67560, Note_on_c, 0, 63, 0
2, 67560, Note_on_c, 0, 61, 44
2, 67680, Note_on_c, 0, 61, 0
2, 67920, Note_on_c, 0, 70, 35
2, 67920, Note_on_c, 0, 66, 35
2, 67920, Note_on_c, 0, 63, 35
2, 68040, Note_on_c, 0, 63, 0
2, 68040, Note_on_c, 0, 66, 0
2, 68040, Note_on_c, 0, 70, 0
2, 68040, Note_on_c, 0, 61, 35
2, 68150, Note_on_c, 0, 61, 0
2, 68400, Note_on_c, 0, 70, 35
2, 68400, Note_on_c, 0, 66, 35
2, 68400, Note_on_c, 0, 61, 35
2, 68460, Note_on_c, 0, 61, 0
2, 68460, Note_on_c, 0, 66, 0
2, 68460, Note_on_c, 0, 70, 0
2, 68880, Note_on_c, 0, 70, 35
2, 68880, Note_on_c, 0, 61, 35
2, 68880, Note_on_c, 0, 66, 35
2, 68940, Note_on_c, 0, 66, 0
2, 68940, Note_on_c, 0, 61, 0
2, 68940, Note_on_c, 0, 70, 0
2, 69360, Note_on_c, 0, 63, 35
2, 69360, Note_on_c, 0, 66, 35
2, 69360, Note_on_c, 0, 70, 35
2, 69480, Note_on_c, 0, 70, 0
2, 69480, Note_on_c, 0, 66, 0
2, 69480, Note_on_c, 0, 63, 0
2, 69480, Note_on_c, 0, 61, 35
2, 69590, Note_on_c, 0, 61, 0
2, 69840, Note_on_c, 0, 61, 35
2, 69840, Note_on_c, 0, 66, 35
2, 69840, Note_on_c, 0, 70, 35
2, 69900, Note_on_c, 0, 70, 0
2, 69900, Note_on_c, 0, 66, 0
2, 69900, Note_on_c, 0, 61, 0
2, 70320, Note_on_c, 0, 66, 35
2, 70320, Note_on_c, 0, 61, 35
2, 70320, Note_on_c, 0, 70, 35
2, 70380, Note_on_c, 0, 70, 0
2, 70380, Note_on_c, 0, 61, 0
2, 70380, Note_on_c, 0, 66, 0
2, 70800, Note_on_c, 0, 63, 35
2, 70800, Note_on_c, 0, 65, 35
2, 70800, Note_on_c, 0, 71, 35
2, 70920, Note_on_c, 0, 71, 0
2, 70920, Note_on_c, 0, 65, 0
2, 70920, Note_on_c, 0, 63, 0
2, 70920, Note_on_c, 0, 61, 35
2, 71030, Note_on_c, 0, 61, 0
2, 71280, Note_on_c, 0, 63, 36
2, 71280, Note_on_c, 0, 71, 36
2, 71280, Note_on_c, 0, 65, 36
2, 71400, Note_on_c, 0, 65, 0
2, 71400, Note_on_c, 0, 71, 0
2, 71400, Note_on_c, 0, 63, 0
2, 71400, Note_on_c, 0, 61, 36
2, 71520, Note_on_c, 0, 61, 0
2, 71760, Note_on_c, 0, 63, 38
2, 71760, Note_on_c, 0, 65, 38
2, 71760, Note_on_c, 0, 71, 38
2, 71880, Note_on_c, 0, 71, 0
2, 71880, Note_on_c, 0, 65, 0
2, 71880, Note_on_c, 0, 63, 0
2, 71880, Note_on_c, 0, 61, 38
2, 72000, Note_on_c, 0, 61, 0
2, 72240, Note_on_c, 0, 63, 39
2, 72240, Note_on_c, 0, 65, 39
2, 72240, Note_on_c, 0, 71, 39
2, 72360, Note_on_c, 0, 71, 0
2, 72360, Note_on_c, 0, 65, 0
2, 72360, Note_on_c, 0, 63, 0
2, 72360, Note_on_c, 0, 61, 39
2, 72480, Note_on_c, 0, 61, 0
2, 72720, Note_on_c, 0, 71, 41
2, 72720, Note_on_c, 0, 65, 41
2, 72720, Note_on_c, 0, 63, 41
2, 72840, Note_on_c, 0, 63, 0
2, 72840, Note_on_c, 0, 65, 0
2, 72840, Note_on_c, 0, 71, 0
2, 72840, Note_on_c, 0, 61, 42
2, 72960, Note_on_c, 0, 61, 0
2, 73200, Note_on_c, 0, 71, 43
2, 73200, Note_on_c, 0, 65, 43
2, 73200, Note_on_c, 0, 63, 43
2, 73320, Note_on_c, 0, 63, 0
2, 73320, Note_on_c, 0, 65, 0
2, 73320, Note_on_c, 0, 71, 0
2, 73320, Note_on_c, 0, 61, 44
2, 73440, Note_on_c, 0, 61, 0
2, 73440, Note_on_c, 0, 66, 58
2, 73440, Note_on_c, 0, 61, 58
2, 73800, Note_on_c, 0, 61, 0
2, 73800, Note_on_c, 0, 66, 0
2, 73800, Note_on_c, 0, 66, 55
2, 73800, Note_on_c, 0, 70, 55
2, 73920, Note_on_c, 0, 70, 0
2, 73920, Note_on_c, 0, 66, 0
2, 73920, Note_on_c, 0, 70, 57
2, 73920, Note_on_c, 0, 73, 57
2, 74040, Note_on_c, 0, 73, 0
2, 74040, Note_on_c, 0, 70, 0
2, 74160, Note_on_c, 0, 73, 61
2, 74160, Note_on_c, 0, 78, 61
2, 74280, Note_on_c, 0, 78, 0
2, 74280, Note_on_c, 0, 73, 0
2, 74400, Note_on_c, 0, 78, 66
2, 74400, Note_on_c, 0, 82, 66
2, 74520, Note_on_c, 0, 82, 0
2, 74520, Note_on_c, 0, 78, 0
2, 74640, Note_on_c, 0, 85, 63
2, 74640, Note_on_c, 0, 82, 63
2, 74760, Note_on_c, 0, 82, 0
2, 74760, Note_on_c, 0, 85, 0
2, 74880, Note_on_c, 0, 90, 76
2, 74880, Note_on_c, 0, 85, 76
2, 75120, Note_on_c, 0, 85, 0
2, 75120, Note_on_c, 0, 90, 0
2, 75360, Note_on_c, 0, 90, 85
2, 75360, Note_on_c, 0, 97, 85
2, 75360, Note_on_c, 0, 102, 85
2, 75840, Note_on_c, 0, 102, 0
2, 75840, Note_on_c, 0, 97, 0
2, 75840, Note_on_c, 0, 90, 0
2, 76320, Note_on_c, 0, 61, 50
2, 76320, Note_on_c, 0, 66, 50
2, 76440, Note_on_c, 0, 66, 0
2, 76440, Note_on_c, 0, 61, 0
2, 76560, Note_on_c, 0, 66, 46
2, 76560, Note_on_c, 0, 68, 46
2, 76680, Note_on_c, 0, 68, 0
2, 76680, Note_on_c, 0, 66, 0
2, 76800, Note_on_c, 0, 66, 53
2, 76800, Note_on_c, 0, 69, 53
2, 77280, Note_on_c, 0, 69, 0
2, 77280, Note_on_c, 0, 66, 0
2, 77280, Note_on_c, 0, 66, 48
2, 77280, Note_on_c, 0, 71, 48
2, 77400, Note_on_c, 0, 71, 0
2, 77400, Note_on_c, 0, 66, 0
2, 77520, Note_on_c, 0, 66, 37
2, 77520, Note_on_c, 0, 69, 44
2, 77640, Note_on_c, 0, 69, 0
2, 77640, Note_on_c, 0, 66, 0
2, 77640, Note_on_c, 0, 68, 37
2, 77700, Note_on_c, 0, 68, 0
2, 77700, Note_on_c, 0, 69, 37
2, 77760, Note_on_c, 0, 69, 0
2, 77760, Note_on_c, 0, 65, 39
2, 77760, Note_on_c, 0, 68, 47
2, 78240, Note_on_c, 0, 68, 0
2, 78240, Note_on_c, 0, 65, 0
2, 78240, Note_on_c, 0, 71, 61
2, 78240, Note_on_c, 0, 74, 61
2, 78480, Note_on_c, 0, 74, 0
2, 78480, Note_on_c, 0, 73, 57
2, 78720, Note_on_c, 0, 73, 0
2, 78720, Note_on_c, 0, 71, 0
2, 78720, Note_on_c, 0, 69, 60
2, 78720, Note_on_c, 0, 78, 60
2, 79200, Note_on_c, 0, 78, 0
2, 79200, Note_on_c, 0, 69, 0
2, 79200, Note_on_c, 0, 69, 50
2, 79200, Note_on_c, 0, 72, 50
2, 79200, Note_on_c, 0, 77, 61
2, 79440, Note_on_c, 0, 77, 0
2, 79440, Note_on_c, 0, 81, 59
2, 79680, Note_on_c, 0, 81, 0
2, 79680, Note_on_c, 0, 72, 0
2, 79680, Note_on_c, 0, 69, 0
2, 79680, Note_on_c, 0, 69, 45
2, 79680, Note_on_c, 0, 73, 45
2, 79680, Note_on_c, 0, 81, 56
2, 80160, Note_on_c, 0, 81, 0
2, 80160, Note_on_c, 0, 73, 0
2, 80160, Note_on_c, 0, 69, 0
2, 80160, Note_on_c, 0, 68, 45
2, 80160, Note_on_c, 0, 72, 45
2, 80160, Note_on_c, 0, 76, 55
2, 80640, Note_on_c, 0, 76, 0
2, 80640, Note_on_c, 0, 72, 0
2, 80640, Note_on_c, 0, 68, 0
2, 80880, Note_on_c, 0, 66, 38
2, 80880, Note_on_c, 0, 69, 38
2, 80880, Note_on_c, 0, 73, 38
2, 81000, Note_on_c, 0, 73, 0
2, 81000, Note_on_c, 0, 69, 0
2, 81000, Note_on_c, 0, 66, 0
2, 81000, Note_on_c, 0, 64, 38
2, 81110, Note_on_c, 0, 64, 0
2, 81360, Note_on_c, 0, 64, 38
2, 81360, Note_on_c, 0, 69, 38
2, 81360, Note_on_c, 0, 73, 38
2, 81420, Note_on_c, 0, 73, 0
2, 81420, Note_on_c, 0, 69, 0
2, 81420, Note_on_c, 0, 64, 0
2, 81840, Note_on_c, 0, 69, 38
2, 81840, Note_on_c, 0, 64, 38
2, 81840, Note_on_c, 0, 73, 38
2, 81840, Note_on_c, 0, 76, 38
2, 81900, Note_on_c, 0, 76, 0
2, 81900, Note_on_c, 0, 69, 0
2, 81900, Note_on_c, 0, 64, 0
2, 81900, Note_on_c, 0, 73, 0
2, 82080, Note_on_c, 0, 69, 45
2, 82080, Note_on_c, 0, 73, 55
2, 82200, Note_on_c, 0, 73, 0
2, 82200, Note_on_c, 0, 69, 0
2, 82320, Note_on_c, 0, 69, 41
2, 82320, Note_on_c, 0, 74, 50
2, 82440, Note_on_c, 0, 74, 0
2, 82440, Note_on_c, 0, 69, 0
2, 82560, Note_on_c, 0, 70, 47
2, 82560, Note_on_c, 0, 76, 58
2, 83040, Note_on_c, 0, 76, 0
2, 83040, Note_on_c, 0, 70, 0
2, 83040, Note_on_c, 0, 70, 48
2, 83040, Note_on_c, 0, 77, 52
2, 83160, Note_on_c, 0, 77, 0
2, 83160, Note_on_c, 0, 70, 0
2, 83280, Note_on_c, 0, 70, 37
2, 83280, Note_on_c, 0, 76, 48
2, 83400, Note_on_c, 0, 76, 0
2, 83400, Note_on_c, 0, 70, 0
2, 83400, Note_on_c, 0, 74, 46
2, 83460, Note_on_c, 0, 74, 0
2, 83460, Note_on_c, 0, 76, 45
2, 83520, Note_on_c, 0, 76, 0
2, 83520, Note_on_c, 0, 70, 44
2, 83520, Note_on_c, 0, 74, 57
2, 84000, Note_on_c, 0, 74, 0
2, 84000, Note_on_c, 0, 70, 0
2, 84000, Note_on_c, 0, 65, 54
2, 84000, Note_on_c, 0, 72, 54
2, 84120, Note_on_c, 0, 72, 0
2, 84120, Note_on_c, 0, 65, 0
2, 84240, Note_on_c, 0, 65, 50
2, 84240, Note_on_c, 0, 70, 50
2, 84360, Note_on_c, 0, 70, 0
2, 84360, Note_on_c, 0, 65, 0
2, 84480, Note_on_c, 0, 64, 55
2, 84480, Note_on_c, 0, 69, 55
2, 84960, Note_on_c, 0, 69, 0
2, 84960, Note_on_c, 0, 64, 0
2, 84960, Note_on_c, 0, 70, 46
2, 84960, Note_on_c, 0, 76, 57
2, 85200, Note_on_c, 0, 76, 0
2, 85200, Note_on_c, 0, 77, 61
2, 85440, Note_on_c, 0, 77, 0
2, 85440, Note_on_c, 0, 70, 0
2, 85440, Note_on_c, 0, 70, 54
2, 85440, Note_on_c, 0, 76, 60
2, 85440, Note_on_c, 0, 79, 66
2, 85920, Note_on_c, 0, 79, 0
2, 85920, Note_on_c, 0, 76, 0
2, 85920, Note_on_c, 0, 70, 0
2, 85920, Note_on_c, 0, 67, 49
2, 85920, Note_on_c, 0, 70, 49
2, 85920, Note_on_c, 0, 73, 60
2, 86160, Note_on_c, 0, 70, 0
2, 86160, Note_on_c, 0, 69, 53
2, 86400, Note_on_c, 0, 69, 0
2, 86400, Note_on_c, 0, 73, 0
2, 86400, Note_on_c, 0, 67, 0
2, 86640, Note_on_c, 0, 70, 45
2, 86640, Note_on_c, 0, 74, 45
2, 86640, Note_on_c, 0, 77, 45
2, 86760, Note_on_c, 0, 77, 0
2, 86760, Note_on_c, 0, 74, 0
2, 86760, Note_on_c, 0, 70, 0
2, 86760, Note_on_c, 0, 69, 45
2, 86880, Note_on_c, 0, 69, 0
2, 87120, Note_on_c, 0, 69, 45
2, 87120, Note_on_c, 0, 74, 45
2, 87120, Note_on_c, 0, 77, 45
2, 87180, Note_on_c, 0, 77, 0
2, 87180, Note_on_c, 0, 74, 0
2, 87180, Note_on_c, 0, 69, 0
2, 87600, Note_on_c, 0, 74, 45
2, 87600, Note_on_c, 0, 69, 45
2, 87600, Note_on_c, 0, 77, 45
2, 87600, Note_on_c, 0, 81, 45
2, 87660, Note_on_c, 0, 81, 0
2, 87660, Note_on_c, 0, 74, 0
2, 87660, Note_on_c, 0, 69, 0
2, 87660, Note_on_c, 0, 77, 0
2, 87840, Note_on_c, 0, 69, 45
2, 87840, Note_on_c, 0, 71, 45
2, 87840, Note_on_c, 0, 74, 55
2, 87960, Note_on_c, 0, 74, 0
2, 87960, Note_on_c, 0, 71, 0
2, 87960, Note_on_c, 0, 69, 0
2, 88080, Note_on_c, 0, 69, 41
2, 88080, Note_on_c, 0, 71, 41
2, 88080, Note_on_c, 0, 76, 50
2, 88200, Note_on_c, 0, 76, 0
2, 88200, Note_on_c, 0, 71, 0
2, 88200, Note_on_c, 0, 69, 0
2, 88320, Note_on_c, 0, 69, 47
2, 88320, Note_on_c, 0, 71, 47
2, 88320, Note_on_c, 0, 77, 58
2, 88800, Note_on_c, 0, 77, 0
2, 88800, Note_on_c, 0, 71, 0
2, 88800, Note_on_c, 0, 69, 0
2, 88800, Note_on_c, 0, 71, 48
2, 88800, Note_on_c, 0, 69, 48
2, 88800, Note_on_c, 0, 76, 52
2, 88920, Note_on_c, 0, 76, 0
2, 88920, Note_on_c, 0, 69, 0
2, 88920, Note_on_c, 0, 71, 0
2, 89040, Note_on_c, 0, 69, 37
2, 89040, Note_on_c, 0, 71, 37
2, 89040, Note_on_c, 0, 74, 48
2, 89160, Note_on_c, 0, 74, 0
2, 89160, Note_on_c, 0, 71, 0
2, 89160, Note_on_c, 0, 69, 0
2, 89160, Note_on_c, 0, 72, 46
2, 89220, Note_on_c, 0, 72, 0
2, 89220, Note_on_c, 0, 74, 45
2, 89280, Note_on_c, 0, 74, 0
2, 89280, Note_on_c, 0, 65, 44
2, 89280, Note_on_c, 0, 69, 44
2, 89280, Note_on_c, 0, 72, 57
2, 89760, Note_on_c, 0, 72, 0
2, 89760, Note_on_c, 0, 69, 0
2, 89760, Note_on_c, 0, 65, 0
2, 89760, Note_on_c, 0, 65, 54
2, 89760, Note_on_c, 0, 69, 54
2, 89760, Note_on_c, 0, 71, 54
2, 90000, Note_on_c, 0, 71, 0
2, 90000, Note_on_c, 0, 69, 0
2, 90000, Note_on_c, 0, 65, 0
2, 90000, Note_on_c, 0, 65, 50
2, 90000, Note_on_c, 0, 69, 50
2, 90000, Note_on_c, 0, 72, 50
2, 90240, Note_on_c, 0, 72, 0
2, 90240, Note_on_c, 0, 69, 0
2, 90240, Note_on_c, 0, 65, 0
2, 90240, Note_on_c, 0, 65, 55
2, 90240, Note_on_c, 0, 69, 55
2, 90240, Note_on_c, 0, 74, 55
2, 90720, Note_on_c, 0, 74, 0
2, 90720, Note_on_c, 0, 69, 0
2, 90720, Note_on_c, 0, 65, 0
2, 90720, Note_on_c, 0, 63, 46
2, 90720, Note_on_c, 0, 69, 57
2, 90960, Note_on_c, 0, 69, 0
2, 90960, Note_on_c, 0, 71, 61
2, 91200, Note_on_c, 0, 71, 0
2, 91200, Note_on_c, 0, 63, 0
2, 91200, Note_on_c, 0, 63, 54
2, 91200, Note_on_c, 0, 69, 60
2, 91200, Note_on_c, 0, 72, 66
2, 91680, Note_on_c, 0, 72, 0
2, 91680, Note_on_c, 0, 69, 0
2, 91680, Note_on_c, 0, 63, 0
2, 91680, Note_on_c, 0, 66, 49
2, 91680, Note_on_c, 0, 63, 49
2, 91680, Note_on_c, 0, 57, 41
2, 91680, Note_on_c, 0, 59, 41
2, 91680, Note_on_c, 0, 71, 60
2, 92160, Note_on_c, 0, 71, 0
2, 92160, Note_on_c, 0, 57, 0
2, 92160, Note_on_c, 0, 66, 0
2, 92160, Note_on_c, 0, 63, 0
2, 92160, Note_on_c, 0, 59, 0
2, 92400, Note_on_c, 0, 61, 45
2, 92400, Note_on_c, 0, 64, 45
2, 92400, Note_on_c, 0, 68, 45
2, 92520, Note_on_c, 0, 68, 0
2, 92520, Note_on_c, 0, 64, 0
2, 92520, Note_on_c, 0, 61, 0
2, 92520, Note_on_c, 0, 59, 45
2, 92640, Note_on_c, 0, 59, 0
2, 92880, Note_on_c, 0, 59, 45
2, 92880, Note_on_c, 0, 64, 45
2, 92880, Note_on_c, 0, 68, 45
2, 92940, Note_on_c, 0, 68, 0
2, 92940, Note_on_c, 0, 64, 0
2, 92940, Note_on_c, 0, 59, 0
2, 93360, Note_on_c, 0, 64, 45
2, 93360, Note_on_c, 0, 59, 45
2, 93360, Note_on_c, 0, 68, 45
2, 93360, Note_on_c, 0, 71, 45
2, 93420, Note_on_c, 0, 71, 0
2, 93420, Note_on_c, 0, 64, 0
2, 93420, Note_on_c, 0, 59, 0
2, 93420, Note_on_c, 0, 68, 0
2, 93840, Note_on_c, 0, 64, 63
2, 93840, Note_on_c, 0, 74, 63
2, 93840, Note_on_c, 0, 76, 63
2, 94080, Note_on_c, 0, 76, 0
2, 94080, Note_on_c, 0, 74, 0
2, 94080, Note_on_c, 0, 64, 0
2, 94080, Note_on_c, 0, 66, 67
2, 94080, Note_on_c, 0, 78, 67
2, 94320, Note_on_c, 0, 78, 0
2, 94320, Note_on_c, 0, 66, 0
2, 94320, Note_on_c, 0, 68, 63
2, 94320, Note_on_c, 0, 80, 63
2, 94560, Note_on_c, 0, 80, 0
2, 94560, Note_on_c, 0, 68, 0
2, 94560, Note_on_c, 0, 68, 68
2, 94560, Note_on_c, 0, 74, 68
2, 94560, Note_on_c, 0, 78, 68
2, 94800, Note_on_c, 0, 78, 0
2, 94800, Note_on_c, 0, 74, 0
2, 94800, Note_on_c, 0, 72, 63
2, 94800, Note_on_c, 0, 76, 63
2, 95040, Note_on_c, 0, 76, 0
2, 95040, Note_on_c, 0, 72, 0
2, 95040, Note_on_c, 0, 68, 0
2, 95040, Note_on_c, 0, 64, 56
2, 95040, Note_on_c, 0, 69, 56
2, 95040, Note_on_c, 0, 76, 67
2, 95280, Note_on_c, 0, 76, 0
2, 95280, Note_on_c, 0, 69, 0
2, 95280, Note_on_c, 0, 64, 0
2, 95280, Note_on_c, 0, 68, 53
2, 95280, Note_on_c, 0, 72, 63
2, 95400, Note_on_c, 0, 72, 0
2, 95400, Note_on_c, 0, 68, 0
2, 95520, Note_on_c, 0, 69, 56
2, 95520, Note_on_c, 0, 73, 67
2, 95640, Note_on_c, 0, 73, 0
2, 95640, Note_on_c, 0, 69, 0
2, 95760, Note_on_c, 0, 73, 59
2, 95760, Note_on_c, 0, 76, 70
2, 95880, Note_on_c, 0, 76, 0
2, 95880, Note_on_c, 0, 73, 0
2, 96000, Note_on_c, 0, 76, 62
2, 96000, Note_on_c, 0, 81, 74
2, 96120, Note_on_c, 0, 81, 0
2, 96120, Note_on_c, 0, 76, 0
2, 96240, Note_on_c, 0, 85, 78
2, 96240, Note_on_c, 0, 81, 66
2, 96360, Note_on_c, 0, 81, 0
2, 96360, Note_on_c, 0, 85, 0
2, 96480, Note_on_c, 0, 88, 81
2, 96480, Note_on_c, 0, 81, 68
2, 96720, Note_on_c, 0, 81, 0
2, 96720, Note_on_c, 0, 88, 0
2, 96720, Note_on_c, 0, 85, 65
2, 96720, Note_on_c, 0, 76, 55
2, 96960, Note_on_c, 0, 76, 0
2, 96960, Note_on_c, 0, 85, 0
2, 96960, Note_on_c, 0, 69, 64
2, 96960, Note_on_c, 0, 76, 74
2, 97200, Note_on_c, 0, 76, 0
2, 97200, Note_on_c, 0, 69, 0
2, 97200, Note_on_c, 0, 64, 54
2, 97200, Note_on_c, 0, 73, 64
2, 97440, Note_on_c, 0, 73, 0
2, 97440, Note_on_c, 0, 64, 0
2, 97440, Note_on_c, 0, 69, 63
2, 97440, Note_on_c, 0, 80, 77
2, 97680, Note_on_c, 0, 80, 0
2, 97680, Note_on_c, 0, 71, 70
2, 97920, Note_on_c, 0, 71, 0
2, 97920, Note_on_c, 0, 69, 0
2, 97920, Note_on_c, 0, 64, 64
2, 97920, Note_on_c, 0, 68, 76
2, 97920, Note_on_c, 0, 76, 76
2, 98160, Note_on_c, 0, 76, 0
2, 98160, Note_on_c, 0, 68, 0
2, 98160, Note_on_c, 0, 64, 0
2, 98400, Note_on_c, 0, 88, 97
2, 98400, Note_on_c, 0, 80, 81
2, 98400, Note_on_c, 0, 76, 80
2, 98640, Note_on_c, 0, 76, 0
2, 98640, Note_on_c, 0, 80, 0
2, 98640, Note_on_c, 0, 88, 0
2, 99600, Note_on_c, 0, 57, 35
2, 99600, Note_on_c, 0, 60, 35
2, 99600, Note_on_c, 0, 64, 35
2, 99720, Note_on_c, 0, 64, 0
2, 99720, Note_on_c, 0, 60, 0
2, 99720, Note_on_c, 0, 57, 0
2, 99720, Note_on_c, 0, 55, 35
2, 99830, Note_on_c, 0, 55, 0
2, 100080, Note_on_c, 0, 55, 35
2, 100080, Note_on_c, 0, 60, 35
2, 100080, Note_on_c, 0, 64, 35
2, 100140, Note_on_c, 0, 64, 0
2, 100140, Note_on_c, 0, 60, 0
2, 100140, Note_on_c, 0, 55, 0
2, 100560, Note_on_c, 0, 55, 35
2, 100560, Note_on_c, 0, 60, 35
2, 100560, Note_on_c, 0, 64, 35
2, 100620, Note_on_c, 0, 64, 0
2, 100620, Note_on_c, 0, 60, 0
2, 100620, Note_on_c, 0, 55, 0
2, 101040, Note_on_c, 0, 57, 35
2, 101040, Note_on_c, 0, 60, 35
2, 101040, Note_on_c, 0, 64, 35
2, 101160, Note_on_c, 0, 64, 0
2, 101160, Note_on_c, 0, 60, 0
2, 101160, Note_on_c, 0, 57, 0
2, 101160, Note_on_c, 0, 55, 35
2, 101270, Note_on_c, 0, 55, 0
2, 101520, Note_on_c, 0, 55, 35
2, 101520, Note_on_c, 0, 60, 35
2, 101520, Note_on_c, 0, 64, 35
2, 101580, Note_on_c, 0, 64, 0
2, 101580, Note_on_c, 0, 60, 0
2, 101580, Note_on_c, 0, 55, 0
2, 102000, Note_on_c, 0, 55, 35
2, 102000, Note_on_c, 0, 60, 35
2, 102000, Note_on_c, 0, 64, 35
2, 102060, Note_on_c, 0, 64, 0
2, 102060, Note_on_c, 0, 60, 0
2, 102060, Note_on_c, 0, 55, 0
2, 102480, Note_on_c, 0, 57, 35
2, 102480, Note_on_c, 0, 59, 35
2, 102480, Note_on_c, 0, 65, 35
2, 102600, Note_on_c, 0, 65, 0
2, 102600, Note_on_c, 0, 59, 0
2, 102600, Note_on_c, 0, 57, 0
2, 102600, Note_on_c, 0, 55, 35
2, 102710, Note_on_c, 0, 55, 0
2, 102960, Note_on_c, 0, 57, 36
2, 102960, Note_on_c, 0, 59, 36
2, 102960, Note_on_c, 0, 65, 36
2, 103080, Note_on_c, 0, 65, 0
2, 103080, Note_on_c, 0, 59, 0
2, 103080, Note_on_c, 0, 57, 0
2, 103080, Note_on_c, 0, 55, 36
2, 103200, Note_on_c, 0, 55, 0
2, 103440, Note_on_c, 0, 57, 38
2, 103440, Note_on_c, 0, 59, 38
2, 103440, Note_on_c, 0, 65, 38
2, 103560, Note_on_c, 0, 65, 0
2, 103560, Note_on_c, 0, 59, 0
2, 103560, Note_on_c, 0, 57, 0
2, 103560, Note_on_c, 0, 55, 38
2, 103680, Note_on_c, 0, 55, 0
2, 103920, Note_on_c, 0, 57, 39
2, 103920, Note_on_c, 0, 59, 39
2, 103920, Note_on_c, 0, 65, 39
2, 104040, Note_on_c, 0, 65, 0
2, 104040, Note_on_c, 0, 59, 0
2, 104040, Note_on_c, 0, 57, 0
2, 104040, Note_on_c, 0, 55, 39
2, 104160, Note_on_c, 0, 55, 0
2, 104400, Note_on_c, 0, 57, 41
2, 104400, Note_on_c, 0, 59, 41
2, 104400, Note_on_c, 0, 65, 41
2, 104520, Note_on_c, 0, 65, 0
2, 104520, Note_on_c, 0, 59, 0
2, 104520, Note_on_c, 0, 57, 0
2, 104520, Note_on_c, 0, 55, 42
2, 104630, Note_on_c, 0, 55, 0
2, 104880, Note_on_c, 0, 57, 43
2, 104880, Note_on_c, 0, 59, 43
2, 104880, Note_on_c, 0, 65, 43
2, 105000, Note_on_c, 0, 65, 0
2, 105000, Note_on_c, 0, 59, 0
2, 105000, Note_on_c, 0, 57, 0
2, 105000, Note_on_c, 0, 55, 44
2, 105120, Note_on_c, 0, 55, 0
2, 105360, Note_on_c, 0, 57, 29
2, 105360, Note_on_c, 0, 60, 29
2, 105360, Note_on_c, 0, 64, 29
2, 105480, Note_on_c, 0, 64, 0
2, 105480, Note_on_c, 0, 60, 0
2, 105480, Note_on_c, 0, 57, 0
2, 105480, Note_on_c, 0, 55, 29
2, 105590, Note_on_c, 0, 55, 0
2, 105840, Note_on_c, 0, 55, 29
2, 105840, Note_on_c, 0, 60, 29
2, 105840, Note_on_c, 0, 64, 29
2, 105900, Note_on_c, 0, 64, 0
2, 105900, Note_on_c, 0, 60, 0
2, 105900, Note_on_c, 0, 55, 0
2, 106320, Note_on_c, 0, 55, 29
2, 106320, Note_on_c, 0, 60, 29
2, 106320, Note_on_c, 0, 64, 29
2, 106380, Note_on_c, 0, 64, 0
2, 106380, Note_on_c, 0, 60, 0
2, 106380, Note_on_c, 0, 55, 0
2, 106800, Note_on_c, 0, 57, 29
2, 106800, Note_on_c, 0, 60, 29
2, 106800, Note_on_c, 0, 64, 29
2, 106920, Note_on_c, 0, 64, 0
2, 106920, Note_on_c, 0, 60, 0
2, 106920, Note_on_c, 0, 57, 0
2, 106920, Note_on_c, 0, 55, 29
2, 107030, Note_on_c, 0, 55, 0
2, 107280, Note_on_c, 0, 55, 29
2, 107280, Note_on_c, 0, 60, 29
2, 107280, Note_on_c, 0, 64, 29
2, 107340, Note_on_c, 0, 64, 0
2, 107340, Note_on_c, 0, 60, 0
2, 107340, Note_on_c, 0, 55, 0
2, 107760, Note_on_c, 0, 55, 29
2, 107760, Note_on_c, 0, 60, 29
2, 107760, Note_on_c, 0, 64, 29
2, 107820, Note_on_c, 0, 64, 0
2, 107820, Note_on_c, 0, 60, 0
2, 107820, Note_on_c, 0, 55, 0
2, 108240, Note_on_c, 0, 57, 29
2, 108240, Note_on_c, 0, 59, 29
2, 108240, Note_on_c, 0, 65, 29
2, 108360, Note_on_c, 0, 65, 0
2, 108360, Note_on_c, 0, 59, 0
2, 108360, Note_on_c, 0, 57, 0
2, 108360, Note_on_c, 0, 55, 29
2, 108470, Note_on_c, 0, 55, 0
2, 108720, Note_on_c, 0, 57, 30
2, 108720, Note_on_c, 0, 59, 30
2, 108720, Note_on_c, 0, 65, 30
2, 108840, Note_on_c, 0, 65, 0
2, 108840, Note_on_c, 0, 59, 0
2, 108840, Note_on_c, 0, 57, 0
2, 108840, Note_on_c, 0, 55, 30
2, 108960, Note_on_c, 0, 55, 0
2, 109200, Note_on_c, 0, 57, 32
2, 109200, Note_on_c, 0, 59, 32
2, 109200, Note_on_c, 0, 65, 32
2, 109320, Note_on_c, 0, 65, 0
2, 109320, Note_on_c, 0, 59, 0
2, 109320, Note_on_c, 0, 57, 0
2, 109320, Note_on_c, 0, 55, 32
2, 109440, Note_on_c, 0, 55, 0
2, 109680, Note_on_c, 0, 57, 33
2, 109680, Note_on_c, 0, 59, 33
2, 109680, Note_on_c, 0, 65, 33
2, 109800, Note_on_c, 0, 65, 0
2, 109800, Note_on_c, 0, 59, 0
2, 109800, Note_on_c, 0, 57, 0
2, 109800, Note_on_c, 0, 55, 33
2, 109920, Note_on_c, 0, 55, 0
2, 110160, Note_on_c, 0, 57, 34
2, 110160, Note_on_c, 0, 59, 34
2, 110160, Note_on_c, 0, 65, 34
2, 110280, Note_on_c, 0, 65, 0
2, 110280, Note_on_c, 0, 59, 0
2, 110280, Note_on_c, 0, 57, 0
2, 110280, Note_on_c, 0, 55, 35
2, 110400, Note_on_c, 0, 55, 0
2, 110640, Note_on_c, 0, 57, 36
2, 110640, Note_on_c, 0, 59, 36
2, 110640, Note_on_c, 0, 65, 36
2, 110760, Note_on_c, 0, 65, 0
2, 110760, Note_on_c, 0, 59, 0
2, 110760, Note_on_c, 0, 57, 0
2, 110760, Note_on_c, 0, 55, 37
2, 110880, Note_on_c, 0, 55, 0
2, 110880, Note_on_c, 0, 84, 54
2, 110880, Note_on_c, 0, 72, 54
2, 111000, Note_on_c, 0, 72, 0
2, 111000, Note_on_c, 0, 84, 0
2, 111120, Note_on_c, 0, 86, 56
2, 111120, Note_on_c, 0, 74, 56
2, 111240, Note_on_c, 0, 74, 0
2, 111240, Note_on_c, 0, 86, 0
2, 111360, Note_on_c, 0, 76, 59
2, 111360, Note_on_c, 0, 88, 59
2, 111840, Note_on_c, 0, 88, 0
2, 111840, Note_on_c, 0, 76, 0
2, 111840, Note_on_c, 0, 74, 55
2, 111840, Note_on_c, 0, 86, 55
2, 111960, Note_on_c, 0, 86, 0
2, 111960, Note_on_c, 0, 74, 0
2, 112080, Note_on_c, 0, 72, 51
2, 112080, Note_on_c, 0, 84, 51
2, 112200, Note_on_c, 0, 84, 0
2, 112200, Note_on_c, 0, 72, 0
2, 112200, Note_on_c, 0, 74, 44
2, 112200, Note_on_c, 0, 86, 44
2, 112260, Note_on_c, 0, 86, 0
2, 112260, Note_on_c, 0, 74, 0
2, 112260, Note_on_c, 0, 76, 44
2, 112260, Note_on_c, 0, 88, 44
2, 112320, Note_on_c, 0, 88, 0
2, 112320, Note_on_c, 0, 76, 0
2, 112320, Note_on_c, 0, 86, 55
2, 112320, Note_on_c, 0, 74, 55
2, 112800, Note_on_c, 0, 74, 0
2, 112800, Note_on_c, 0, 86, 0
2, 112800, Note_on_c, 0, 72, 52
2, 112800, Note_on_c, 0, 84, 52
2, 112920, Note_on_c, 0, 84, 0
2, 112920, Note_on_c, 0, 72, 0
2, 113040, Note_on_c, 0, 67, 50
2, 113040, Note_on_c, 0, 79, 50
2, 113160, Note_on_c, 0, 79, 0
2, 113160, Note_on_c, 0, 67, 0
2, 113280, Note_on_c, 0, 64, 56
2, 113280, Note_on_c, 0, 76, 56
2, 113520, Note_on_c, 0, 76, 0
2, 113520, Note_on_c, 0, 64, 0
2, 113520, Note_on_c, 0, 68, 45
2, 113520, Note_on_c, 0, 74, 45
2, 113760, Note_on_c, 0, 74, 0
2, 113760, Note_on_c, 0, 68, 0
2, 113760, Note_on_c, 0, 70, 45
2, 113760, Note_on_c, 0, 73, 45
2, 114000, Note_on_c, 0, 73, 0
2, 114000, Note_on_c, 0, 70, 0
2, 114000, Note_on_c, 0, 72, 47
2, 114000, Note_on_c, 0, 75, 47
2, 114240, Note_on_c, 0, 75, 0
2, 114240, Note_on_c, 0, 72, 0
2, 114240, Note_on_c, 0, 73, 49
2, 114240, Note_on_c, 0, 76, 49
2, 114480, Note_on_c, 0, 76, 0
2, 114480, Note_on_c, 0, 73, 0
2, 114480, Note_on_c, 0, 82, 51
2, 114480, Note_on_c, 0, 76, 51
2, 114720, Note_on_c, 0, 76, 0
2, 114720, Note_on_c, 0, 82, 0
2, 114720, Note_on_c, 0, 81, 53
2, 114720, Note_on_c, 0, 79, 53
2, 114960, Note_on_c, 0, 79, 0
2, 114960, Note_on_c, 0, 81, 0
2, 114960, Note_on_c, 0, 88, 54
2, 114960, Note_on_c, 0, 79, 54
2, 115200, Note_on_c, 0, 79, 0
2, 115200, Note_on_c, 0, 88, 0
2, 115200, Note_on_c, 0, 86, 59
2, 115200, Note_on_c, 0, 77, 59
2, 115440, Note_on_c, 0, 77, 0
2, 115440, Note_on_c, 0, 86, 0
2, 115440, Note_on_c, 0, 75, 54
2, 115440, Note_on_c, 0, 81, 54
2, 115680, Note_on_c, 0, 81, 0
2, 115680, Note_on_c, 0, 75, 0
2, 115680, Note_on_c, 0, 74, 57
2, 115680, Note_on_c, 0, 80, 57
2, 115920, Note_on_c, 0, 80, 0
2, 115920, Note_on_c, 0, 74, 0
2, 115920, Note_on_c, 0, 85, 51
2, 115920, Note_on_c, 0, 76, 51
2, 116160, Note_on_c, 0, 76, 0
2, 116160, Note_on_c, 0, 85, 0
2, 116160, Note_on_c, 0, 78, 60
2, 116160, Note_on_c, 0, 86, 60
2, 116640, Note_on_c, 0, 86, 0
2, 116640, Note_on_c, 0, 78, 0
2, 116640, Note_on_c, 0, 86, 64
2, 116640, Note_on_c, 0, 74, 55
2, 116760, Note_on_c, 0, 74, 0
2, 116760, Note_on_c, 0, 86, 0
2, 116880, Note_on_c, 0, 88, 67
2, 116880, Note_on_c, 0, 76, 56
2, 117000, Note_on_c, 0, 76, 0
2, 117000, Note_on_c, 0, 88, 0
2, 117120, Note_on_c, 0, 77, 59
2, 117120, Note_on_c, 0, 89, 70
2, 117600, Note_on_c, 0, 89, 0
2, 117600, Note_on_c, 0, 77, 0
2, 117600, Note_on_c, 0, 76, 56
2, 117600, Note_on_c, 0, 88, 66
2, 117720, Note_on_c, 0, 88, 0
2, 117720, Note_on_c, 0, 76, 0
2, 117840, Note_on_c, 0, 74, 51
2, 117840, Note_on_c, 0, 86, 61
2, 117960, Note_on_c, 0, 86, 0
2, 117960, Note_on_c, 0, 74, 0
2, 117960, Note_on_c, 0, 76, 44
2, 117960, Note_on_c, 0, 88, 52
2, 118020, Note_on_c, 0, 88, 0
2, 118020, Note_on_c, 0, 76, 0
2, 118020, Note_on_c, 0, 77, 44
2, 118020, Note_on_c, 0, 89, 52
2, 118080, Note_on_c, 0, 89, 0
2, 118080, Note_on_c, 0, 77, 0
2, 118080, Note_on_c, 0, 88, 66
2, 118080, Note_on_c, 0, 76, 56
2, 118560, Note_on_c, 0, 76, 0
2, 118560, Note_on_c, 0, 88, 0
2, 118560, Note_on_c, 0, 74, 52
2, 118560, Note_on_c, 0, 86, 62
2, 118680, Note_on_c, 0, 86, 0
2, 118680, Note_on_c, 0, 74, 0
2, 118800, Note_on_c, 0, 69, 49
2, 118800, Note_on_c, 0, 81, 58
2, 118920, Note_on_c, 0, 81, 0
2, 118920, Note_on_c, 0, 69, 0
2, 119040, Note_on_c, 0, 65, 46
2, 119040, Note_on_c, 0, 77, 55
2, 119160, Note_on_c, 0, 77, 0
2, 119160, Note_on_c, 0, 65, 0
2, 119280, Note_on_c, 0, 69, 49
2, 119280, Note_on_c, 0, 76, 58
2, 119520, Note_on_c, 0, 76, 0
2, 119520, Note_on_c, 0, 69, 0
2, 119520, Note_on_c, 0, 69, 45
2, 119520, Note_on_c, 0, 75, 45
2, 119760, Note_on_c, 0, 75, 0
2, 119760, Note_on_c, 0, 69, 0
2, 119760, Note_on_c, 0, 72, 47
2, 119760, Note_on_c, 0, 76, 47
2, 120000, Note_on_c, 0, 76, 0
2, 120000, Note_on_c, 0, 72, 0
2, 120000, Note_on_c, 0, 75, 49
2, 120000, Note_on_c, 0, 78, 49
2, 120240, Note_on_c, 0, 78, 0
2, 120240, Note_on_c, 0, 75, 0
2, 120240, Note_on_c, 0, 81, 51
2, 120240, Note_on_c, 0, 79, 51
2, 120480, Note_on_c, 0, 79, 0
2, 120480, Note_on_c, 0, 81, 0
2, 120480, Note_on_c, 0, 84, 53
2, 120480, Note_on_c, 0, 78, 53
2, 120720, Note_on_c, 0, 78, 0
2, 120720, Note_on_c, 0, 84, 0
2, 120720, Note_on_c, 0, 83, 54
2, 120720, Note_on_c, 0, 81, 54
2, 120960, Note_on_c, 0, 81, 0
2, 120960, Note_on_c, 0, 83, 0
2, 120960, Note_on_c, 0, 91, 59
2, 120960, Note_on_c, 0, 79, 59
2, 121200, Note_on_c, 0, 79, 0
2, 121200, Note_on_c, 0, 91, 0
2, 121200, Note_on_c, 0, 75, 54
2, 121200, Note_on_c, 0, 84, 54
2, 121440, Note_on_c, 0, 84, 0
2, 121440, Note_on_c, 0, 75, 0
2, 121440, Note_on_c, 0, 76, 57
2, 121440, Note_on_c, 0, 83, 57
2, 121680, Note_on_c, 0, 83, 0
2, 121680, Note_on_c, 0, 76, 0
2, 121680, Note_on_c, 0, 87, 51
2, 121680, Note_on_c, 0, 81, 51
2, 121920, Note_on_c, 0, 81, 0
2, 121920, Note_on_c, 0, 87, 0
2, 121920, Note_on_c, 0, 79, 60
2, 121920, Note_on_c, 0, 88, 60
2, 122400, Note_on_c, 0, 88, 0
2, 122400, Note_on_c, 0, 79, 0
2, 122400, Note_on_c, 0, 88, 64
2, 122400, Note_on_c, 0, 76, 55
2, 122520, Note_on_c, 0, 76, 0
2, 122520, Note_on_c, 0, 88, 0
2, 122640, Note_on_c, 0, 90, 67
2, 122640, Note_on_c, 0, 78, 56
2, 122760, Note_on_c, 0, 78, 0
2, 122760, Note_on_c, 0, 90, 0
2, 122880, Note_on_c, 0, 79, 59
2, 122880, Note_on_c, 0, 91, 70
2, 123360, Note_on_c, 0, 91, 0
2, 123360, Note_on_c, 0, 79, 0
2, 123360, Note_on_c, 0, 78, 56
2, 123360, Note_on_c, 0, 90, 66
2, 123480, Note_on_c, 0, 90, 0
2, 123480, Note_on_c, 0, 78, 0
2, 123600, Note_on_c, 0, 76, 51
2, 123600, Note_on_c, 0, 88, 61
2, 123720, Note_on_c, 0, 88, 0
2, 123720, Note_on_c, 0, 76, 0
2, 123720, Note_on_c, 0, 78, 44
2, 123720, Note_on_c, 0, 90, 52
2, 123780, Note_on_c, 0, 90, 0
2, 123780, Note_on_c, 0, 78, 0
2, 123780, Note_on_c, 0, 79, 44
2, 123780, Note_on_c, 0, 91, 52
2, 123840, Note_on_c, 0, 91, 0
2, 123840, Note_on_c, 0, 79, 0
2, 123840, Note_on_c, 0, 90, 66
2, 123840, Note_on_c, 0, 78, 56
2, 124320, Note_on_c, 0, 78, 0
2, 124320, Note_on_c, 0, 90, 0
2, 124320, Note_on_c, 0, 76, 52
2, 124320, Note_on_c, 0, 88, 62
2, 124440, Note_on_c, 0, 88, 0
2, 124440, Note_on_c, 0, 76, 0
2, 124560, Note_on_c, 0, 71, 49
2, 124560, Note_on_c, 0, 83, 58
2, 124680, Note_on_c, 0, 83, 0
2, 124680, Note_on_c, 0, 71, 0
2, 124800, Note_on_c, 0, 67, 46
2, 124800, Note_on_c, 0, 79, 55
2, 125280, Note_on_c, 0, 79, 0
2, 125280, Note_on_c, 0, 67, 0
2, 125280, Note_on_c, 0, 91, 70
2, 125280, Note_on_c, 0, 79, 59
2, 125400, Note_on_c, 0, 79, 0
2, 125400, Note_on_c, 0, 91, 0
2, 125520, Note_on_c, 0, 93, 73
2, 125520, Note_on_c, 0, 81, 61
2, 125640, Note_on_c, 0, 81, 0
2, 125640, Note_on_c, 0, 93, 0
2, 125760, Note_on_c, 0, 82, 64
2, 125760, Note_on_c, 0, 94, 77
2, 126240, Note_on_c, 0, 94, 0
2, 126240, Note_on_c, 0, 82, 0
2, 126240, Note_on_c, 0, 81, 61
2, 126240, Note_on_c, 0, 93, 72
2, 126360, Note_on_c, 0, 93, 0
2, 126360, Note_on_c, 0, 81, 0
2, 126480, Note_on_c, 0, 79, 56
2, 126480, Note_on_c, 0, 91, 67
2, 126600, Note_on_c, 0, 91, 0
2, 126600, Note_on_c, 0, 79, 0
2, 126600, Note_on_c, 0, 81, 48
2, 126600, Note_on_c, 0, 93, 57
2, 126660, Note_on_c, 0, 93, 0
2, 126660, Note_on_c, 0, 81, 0
2, 126660, Note_on_c, 0, 82, 48
2, 126660, Note_on_c, 0, 94, 57
2, 126720, Note_on_c, 0, 94, 0
2, 126720, Note_on_c, 0, 82, 0
2, 126720, Note_on_c, 0, 93, 72
2, 126720, Note_on_c, 0, 81, 61
2, 127200, Note_on_c, 0, 81, 0
2, 127200, Note_on_c, 0, 93, 0
2, 127200, Note_on_c, 0, 79, 57
2, 127200, Note_on_c, 0, 91, 68
2, 127320, Note_on_c, 0, 91, 0
2, 127320, Note_on_c, 0, 79, 0
2, 127440, Note_on_c, 0, 74, 53
2, 127440, Note_on_c, 0, 86, 63
2, 127560, Note_on_c, 0, 86, 0
2, 127560, Note_on_c, 0, 74, 0
2, 127680, Note_on_c, 0, 70, 50
2, 127680, Note_on_c, 0, 82, 60
2, 128160, Note_on_c, 0, 82, 0
2, 128160, Note_on_c, 0, 70, 0
2, 128160, Note_on_c, 0, 94, 77
2, 128160, Note_on_c, 0, 82, 64
2, 128280, Note_on_c, 0, 82, 0
2, 128280, Note_on_c, 0, 94, 0
2, 128400, Note_on_c, 0, 96, 80
2, 128400, Note_on_c, 0, 84, 67
2, 128520, Note_on_c, 0, 84, 0
2, 128520, Note_on_c, 0, 96, 0
2, 128640, Note_on_c, 0, 85, 70
2, 128640, Note_on_c, 0, 97, 84
2, 128760, Note_on_c, 0, 97, 0
2, 128760, Note_on_c, 0, 85, 0
2, 128880, Note_on_c, 0, 99, 75
2, 128880, Note_on_c, 0, 87, 62
2, 129000, Note_on_c, 0, 87, 0
2, 129000, Note_on_c, 0, 99, 0
2, 129120, Note_on_c, 0, 85, 67
2, 129120, Note_on_c, 0, 97, 79
2, 129240, Note_on_c, 0, 97, 0
2, 129240, Note_on_c, 0, 85, 0
2, 129360, Note_on_c, 0, 84, 61
2, 129360, Note_on_c, 0, 96, 73
2, 129480, Note_on_c, 0, 96, 0
2, 129480, Note_on_c, 0, 84, 0
2, 129600, Note_on_c, 0, 95, 79
2, 129600, Note_on_c, 0, 83, 67
2, 129720, Note_on_c, 0, 83, 0
2, 129720, Note_on_c, 0, 95, 0
2, 129840, Note_on_c, 0, 94, 70
2, 129840, Note_on_c, 0, 82, 59
2, 129960, Note_on_c, 0, 82, 0
2, 129960, Note_on_c, 0, 94, 0
2, 130080, Note_on_c, 0, 79, 62
2, 130080, Note_on_c, 0, 91, 74
2, 130200, Note_on_c, 0, 91, 0
2, 130200, Note_on_c, 0, 79, 0
2, 130320, Note_on_c, 0, 76, 58
2, 130320, Note_on_c, 0, 88, 69
2, 130440, Note_on_c, 0, 88, 0
2, 130440, Note_on_c, 0, 76, 0
2, 130560, Note_on_c, 0, 73, 55
2, 130560, Note_on_c, 0, 85, 66
2, 130680, Note_on_c, 0, 85, 0
2, 130680, Note_on_c, 0, 73, 0
2, 130800, Note_on_c, 0, 82, 55
2, 130800, Note_on_c, 0, 70, 55
2, 130920, Note_on_c, 0, 70, 0
2, 130920, Note_on_c, 0, 82, 0
2, 131040, Note_on_c, 0, 88, 75
2, 131040, Note_on_c, 0, 76, 67
2, 131160, Note_on_c, 0, 76, 0
2, 131160, Note_on_c, 0, 88, 0
2, 131280, Note_on_c, 0, 85, 67
2, 131280, Note_on_c, 0, 73, 59
2, 131400, Note_on_c, 0, 73, 0
2, 131400, Note_on_c, 0, 85, 0
2, 131520, Note_on_c, 0, 70, 58
2, 131520, Note_on_c, 0, 82, 70
2, 131640, Note_on_c, 0, 82, 0
2, 131640, Note_on_c, 0, 70, 0
2, 131760, Note_on_c, 0, 67, 58
2, 131760, Note_on_c, 0, 79, 69
2, 131880, Note_on_c, 0, 79, 0
2, 131880, Note_on_c, 0, 67, 0
2, 132000, Note_on_c, 0, 64, 55
2, 132000, Note_on_c, 0, 76, 66
2, 132120, Note_on_c, 0, 76, 0
2, 132120, Note_on_c, 0, 64, 0
2, 132240, Note_on_c, 0, 73, 55
2, 132240, Note_on_c, 0, 61, 55
2, 132360, Note_on_c, 0, 61, 0
2, 132360, Note_on_c, 0, 73, 0
2, 132480, Note_on_c, 0, 82, 71
2, 132480, Note_on_c, 0, 70, 60
2, 132600, Note_on_c, 0, 70, 0
2, 132600, Note_on_c, 0, 82, 0
2, 132720, Note_on_c, 0, 79, 63
2, 132720, Note_on_c, 0, 67, 53
2, 132840, Note_on_c, 0, 67, 0
2, 132840, Note_on_c, 0, 79, 0
2, 132960, Note_on_c, 0, 64, 52
2, 132960, Note_on_c, 0, 76, 63
2, 133080, Note_on_c, 0, 76, 0
2, 133080, Note_on_c, 0, 64, 0
2, 133200, Note_on_c, 0, 61, 52
2, 133200, Note_on_c, 0, 73, 62
2, 133320, Note_on_c, 0, 73, 0
2, 133320, Note_on_c, 0, 61, 0
2, 133440, Note_on_c, 0, 61, 49
2, 133440, Note_on_c, 0, 58, 49
2, 133440, Note_on_c, 0, 70, 59
2, 133680, Note_on_c, 0, 70, 0
2, 133680, Note_on_c, 0, 58, 0
2, 133680, Note_on_c, 0, 61, 0
2, 133680, Note_on_c, 0, 67, 49
2, 133680, Note_on_c, 0, 73, 49
2, 133680, Note_on_c, 0, 61, 49
2, 133920, Note_on_c, 0, 61, 0
2, 133920, Note_on_c, 0, 73, 0
2, 133920, Note_on_c, 0, 67, 0
2, 133920, Note_on_c, 0, 71, 54
2, 133920, Note_on_c, 0, 59, 45
2, 134160, Note_on_c, 0, 59, 0
2, 134160, Note_on_c, 0, 71, 0
2, 134160, Note_on_c, 0, 73, 56
2, 134160, Note_on_c, 0, 61, 47
2, 134400, Note_on_c, 0, 61, 0
2, 134400, Note_on_c, 0, 73, 0
2, 134400, Note_on_c, 0, 71, 59
2, 134400, Note_on_c, 0, 63, 50
2, 134400, Note_on_c, 0, 75, 59
2, 134880, Note_on_c, 0, 75, 0
2, 134880, Note_on_c, 0, 63, 0
2, 134880, Note_on_c, 0, 71, 0
2, 134880, Note_on_c, 0, 61, 46
2, 134880, Note_on_c, 0, 73, 55
2, 135120, Note_on_c, 0, 73, 0
2, 135120, Note_on_c, 0, 61, 0
2, 135120, Note_on_c, 0, 59, 43
2, 135120, Note_on_c, 0, 71, 51
2, 135360, Note_on_c, 0, 71, 0
2, 135360, Note_on_c, 0, 59, 0
2, 135360, Note_on_c, 0, 67, 55
2, 135360, Note_on_c, 0, 73, 55
2, 135360, Note_on_c, 0, 61, 46
2, 135840, Note_on_c, 0, 61, 0
2, 135840, Note_on_c, 0, 73, 0
2, 135840, Note_on_c, 0, 67, 0
2, 135840, Note_on_c, 0, 59, 44
2, 135840, Note_on_c, 0, 71, 52
2, 136080, Note_on_c, 0, 71, 0
2, 136080, Note_on_c, 0, 59, 0
2, 136080, Note_on_c, 0, 58, 42
2, 136080, Note_on_c, 0, 70, 50
2, 136320, Note_on_c, 0, 70, 0
2, 136320, Note_on_c, 0, 58, 0
2, 136320, Note_on_c, 0, 55, 45
2, 136320, Note_on_c, 0, 67, 53
2, 136800, Note_on_c, 0, 67, 0
2, 136800, Note_on_c, 0, 55, 0
2, 136800, Note_on_c, 0, 71, 56
2, 136800, Note_on_c, 0, 59, 47
2, 137040, Note_on_c, 0, 59, 0
2, 137040, Note_on_c, 0, 71, 0
2, 137040, Note_on_c, 0, 73, 58
2, 137040, Note_on_c, 0, 61, 49
2, 137280, Note_on_c, 0, 61, 0
2, 137280, Note_on_c, 0, 73, 0
2, 137280, Note_on_c, 0, 71, 61
2, 137280, Note_on_c, 0, 63, 52
2, 137280, Note_on_c, 0, 75, 61
2, 137760, Note_on_c, 0, 75, 0
2, 137760, Note_on_c, 0, 63, 0
2, 137760, Note_on_c, 0, 71, 0
2, 137760, Note_on_c, 0, 61, 48
2, 137760, Note_on_c, 0, 73, 57
2, 138000, Note_on_c, 0, 73, 0
2, 138000, Note_on_c, 0, 61, 0
2, 138000, Note_on_c, 0, 59, 45
2, 138000, Note_on_c, 0, 71, 53
2, 138240, Note_on_c, 0, 71, 0
2, 138240, Note_on_c, 0, 59, 0
2, 138240, Note_on_c, 0, 67, 57
2, 138240, Note_on_c, 0, 73, 57
2, 138240, Note_on_c, 0, 61, 48
2, 138720, Note_on_c, 0, 61, 0
2, 138720, Note_on_c, 0, 73, 0
2, 138720, Note_on_c, 0, 67, 0
2, 138720, Note_on_c, 0, 59, 47
2, 138720, Note_on_c, 0, 71, 55
2, 138960, Note_on_c, 0, 71, 0
2, 138960, Note_on_c, 0, 59, 0
2, 138960, Note_on_c, 0, 58, 46
2, 138960, Note_on_c, 0, 70, 54
2, 139200, Note_on_c, 0, 70, 0
2, 139200, Note_on_c, 0, 58, 0
2, 139200, Note_on_c, 0, 55, 49
2, 139200, Note_on_c, 0, 67, 58
2, 139680, Note_on_c, 0, 67, 0
2, 139680, Note_on_c, 0, 55, 0
2, 139680, Note_on_c, 0, 71, 67
2, 139680, Note_on_c, 0, 59, 56
2, 139920, Note_on_c, 0, 59, 0
2, 139920, Note_on_c, 0, 71, 0
2, 139920, Note_on_c, 0, 73, 70
2, 139920, Note_on_c, 0, 61, 58
2, 140160, Note_on_c, 0, 61, 0
2, 140160, Note_on_c, 0, 73, 0
2, 140160, Note_on_c, 0, 71, 65
2, 140160, Note_on_c, 0, 63, 63
2, 140160, Note_on_c, 0, 75, 73
2, 140640, Note_on_c, 0, 75, 0
2, 140640, Note_on_c, 0, 63, 0
2, 140640, Note_on_c, 0, 71, 0
2, 140640, Note_on_c, 0, 61, 57
2, 140640, Note_on_c, 0, 73, 69
2, 140880, Note_on_c, 0, 73, 0
2, 140880, Note_on_c, 0, 61, 0
2, 140880, Note_on_c, 0, 59, 53
2, 140880, Note_on_c, 0, 71, 64
2, 141120, Note_on_c, 0, 71, 0
2, 141120, Note_on_c, 0, 59, 0
2, 141120, Note_on_c, 0, 69, 58
2, 141120, Note_on_c, 0, 75, 70
2, 141120, Note_on_c, 0, 63, 58
2, 141360, Note_on_c, 0, 63, 0
2, 141360, Note_on_c, 0, 75, 0
2, 141360, Note_on_c, 0, 77, 73
2, 141360, Note_on_c, 0, 65, 60
2, 141600, Note_on_c, 0, 65, 0
2, 141600, Note_on_c, 0, 77, 0
2, 141600, Note_on_c, 0, 69, 0
2, 141600, Note_on_c, 0, 69, 68
2, 141600, Note_on_c, 0, 66, 66
2, 141600, Note_on_c, 0, 78, 76
2, 142080, Note_on_c, 0, 78, 0
2, 142080, Note_on_c, 0, 66, 0
2, 142080, Note_on_c, 0, 65, 59
2, 142080, Note_on_c, 0, 77, 72
2, 142200, Note_on_c, 0, 77, 0
2, 142200, Note_on_c, 0, 65, 0
2, 142320, Note_on_c, 0, 63, 55
2, 142320, Note_on_c, 0, 75, 67
2, 142440, Note_on_c, 0, 75, 0
2, 142440, Note_on_c, 0, 63, 0
2, 142560, Note_on_c, 0, 69, 0
2, 142560, Note_on_c, 0, 61, 64
2, 142560, Note_on_c, 0, 66, 64
2, 142560, Note_on_c, 0, 70, 64
2, 142560, Note_on_c, 0, 73, 75
2, 142680, Note_on_c, 0, 73, 0
2, 142680, Note_on_c, 0, 61, 0
2, 142680, Note_on_c, 0, 66, 0
2, 142680, Note_on_c, 0, 70, 0
2, 142800, Note_on_c, 0, 63, 59
2, 142800, Note_on_c, 0, 75, 71
2, 142920, Note_on_c, 0, 75, 0
2, 142920, Note_on_c, 0, 63, 0
2, 143040, Note_on_c, 0, 65, 66
2, 143040, Note_on_c, 0, 70, 66
2, 143040, Note_on_c, 0, 77, 77
2, 143160, Note_on_c, 0, 77, 0
2, 143160, Note_on_c, 0, 70, 0
2, 143160, Note_on_c, 0, 65, 0
2, 143280, Note_on_c, 0, 66, 61
2, 143280, Note_on_c, 0, 78, 74
2, 143400, Note_on_c, 0, 78, 0
2, 143400, Note_on_c, 0, 66, 0
2, 143520, Note_on_c, 0, 68, 68
2, 143520, Note_on_c, 0, 80, 79
2, 143640, Note_on_c, 0, 80, 0
2, 143640, Note_on_c, 0, 68, 0
2, 143760, Note_on_c, 0, 70, 64
2, 143760, Note_on_c, 0, 82, 76
2, 143880, Note_on_c, 0, 82, 0
2, 143880, Note_on_c, 0, 70, 0
2, 144000, Note_on_c, 0, 71, 71
2, 144000, Note_on_c, 0, 77, 84
2, 144000, Note_on_c, 0, 83, 84
2, 144120, Note_on_c, 0, 83, 0
2, 144120, Note_on_c, 0, 77, 0
2, 144120, Note_on_c, 0, 71, 0
2, 144240, Note_on_c, 0, 72, 66
2, 144240, Note_on_c, 0, 84, 78
2, 144360, Note_on_c, 0, 84, 0
2, 144360, Note_on_c, 0, 72, 0
2, 144480, Note_on_c, 0, 73, 72
2, 144480, Note_on_c, 0, 77, 85
2, 144480, Note_on_c, 0, 83, 85
2, 144480, Note_on_c, 0, 85, 85
2, 144600, Note_on_c, 0, 85, 0
2, 144600, Note_on_c, 0, 73, 0
2, 144600, Note_on_c, 0, 77, 0
2, 144600, Note_on_c, 0, 83, 0
2, 144720, Note_on_c, 0, 86, 81
2, 144720, Note_on_c, 0, 74, 69
2, 144840, Note_on_c, 0, 74, 0
2, 144840, Note_on_c, 0, 86, 0
2, 144960, Note_on_c, 0, 87, 89
2, 144960, Note_on_c, 0, 83, 89
2, 144960, Note_on_c, 0, 75, 75
2, 145080, Note_on_c, 0, 75, 0
2, 145080, Note_on_c, 0, 83, 0
2, 145080, Note_on_c, 0, 87, 0
2, 145200, Note_on_c, 0, 89, 85
2, 145200, Note_on_c, 0, 77, 71
2, 145320, Note_on_c, 0, 77, 0
2, 145320, Note_on_c, 0, 89, 0
2, 145440, Note_on_c, 0, 78, 61
2, 145440, Note_on_c, 0, 90, 86
2, 145440, Note_on_c, 0, 85, 61
2, 145680, Note_on_c, 0, 85, 0
2, 145680, Note_on_c, 0, 90, 0
2, 145680, Note_on_c, 0, 78, 0
2, 145680, Note_on_c, 0, 92, 89
2, 145680, Note_on_c, 0, 80, 63
2, 145920, Note_on_c, 0, 80, 0
2, 145920, Note_on_c, 0, 92, 0
2, 145920, Note_on_c, 0, 85, 79
2, 145920, Note_on_c, 0, 82, 68
2, 145920, Note_on_c, 0, 94, 94
2, 146400, Note_on_c, 0, 94, 0
2, 146400, Note_on_c, 0, 82, 0
2, 146400, Note_on_c, 0, 85, 0
2, 146400, Note_on_c, 0, 80, 62
2, 146400, Note_on_c, 0, 92, 88
2, 146640, Note_on_c, 0, 92, 0
2, 146640, Note_on_c, 0, 80, 0
2, 146640, Note_on_c, 0, 78, 57
2, 146640, Note_on_c, 0, 90, 81
2, 146760, Note_on_c, 0, 90, 0
2, 146760, Note_on_c, 0, 78, 0
2, 146760, Note_on_c, 0, 92, 75
2, 146820, Note_on_c, 0, 92, 0
2, 146820, Note_on_c, 0, 94, 75
2, 146880, Note_on_c, 0, 94, 0
2, 146880, Note_on_c, 0, 86, 88
2, 146880, Note_on_c, 0, 92, 88
2, 146880, Note_on_c, 0, 80, 62
2, 147360, Note_on_c, 0, 80, 0
2, 147360, Note_on_c, 0, 92, 0
2, 147360, Note_on_c, 0, 86, 0
2, 147360, Note_on_c, 0, 78, 59
2, 147360, Note_on_c, 0, 90, 83
2, 147600, Note_on_c, 0, 90, 0
2, 147600, Note_on_c, 0, 78, 0
2, 147600, Note_on_c, 0, 76, 56
2, 147600, Note_on_c, 0, 88, 80
2, 147840, Note_on_c, 0, 88, 0
2, 147840, Note_on_c, 0, 76, 0
2, 147840, Note_on_c, 0, 78, 61
2, 147840, Note_on_c, 0, 74, 61
2, 147840, Note_on_c, 0, 86, 84
2, 148320, Note_on_c, 0, 86, 0
2, 148320, Note_on_c, 0, 74, 0
2, 148320, Note_on_c, 0, 78, 0
2, 148320, Note_on_c, 0, 82, 64
2, 148320, Note_on_c, 0, 73, 64
2, 148320, Note_on_c, 0, 85, 76
2, 148320, Note_on_c, 0, 78, 64
2, 148560, Note_on_c, 0, 78, 0
2, 148560, Note_on_c, 0, 82, 0
2, 148560, Note_on_c, 0, 73, 0
2, 148560, Note_on_c, 0, 85, 0
2, 148560, Note_on_c, 0, 87, 78
2, 148560, Note_on_c, 0, 75, 66
2, 148800, Note_on_c, 0, 75, 0
2, 148800, Note_on_c, 0, 87, 0
2, 148800, Note_on_c, 0, 82, 68
2, 148800, Note_on_c, 0, 77, 68
2, 148800, Note_on_c, 0, 89, 80
2, 149280, Note_on_c, 0, 89, 0
2, 149280, Note_on_c, 0, 77, 0
2, 149280, Note_on_c, 0, 82, 0
2, 149280, Note_on_c, 0, 75, 64
2, 149280, Note_on_c, 0, 87, 76
2, 149520, Note_on_c, 0, 87, 0
2, 149520, Note_on_c, 0, 75, 0
2, 149520, Note_on_c, 0, 73, 59
2, 149520, Note_on_c, 0, 85, 70
2, 149760, Note_on_c, 0, 85, 0
2, 149760, Note_on_c, 0, 73, 0
2, 149760, Note_on_c, 0, 74, 55
2, 149760, Note_on_c, 0, 83, 65
2, 149760, Note_on_c, 0, 71, 55
2, 151200, Note_on_c, 0, 71, 0
2, 151200, Note_on_c, 0, 83, 0
2, 151200, Note_on_c, 0, 74, 0
2, 151200, Note_on_c, 0, 78, 61
2, 151200, Note_on_c, 0, 90, 86
2, 151200, Note_on_c, 0, 85, 61
2, 151440, Note_on_c, 0, 85, 0
2, 151440, Note_on_c, 0, 90, 0
2, 151440, Note_on_c, 0, 78, 0
2, 151440, Note_on_c, 0, 92, 89
2, 151440, Note_on_c, 0, 80, 63
2, 151680, Note_on_c, 0, 80, 0
2, 151680, Note_on_c, 0, 92, 0
2, 151680, Note_on_c, 0, 85, 79
2, 151680, Note_on_c, 0, 82, 68
2, 151680, Note_on_c, 0, 94, 94
2, 152160, Note_on_c, 0, 94, 0
2, 152160, Note_on_c, 0, 82, 0
2, 152160, Note_on_c, 0, 85, 0
2, 152160, Note_on_c, 0, 80, 62
2, 152160, Note_on_c, 0, 92, 88
2, 152400, Note_on_c, 0, 92, 0
2, 152400, Note_on_c, 0, 80, 0
2, 152400, Note_on_c, 0, 78, 57
2, 152400, Note_on_c, 0, 90, 81
2, 152520, Note_on_c, 0, 90, 0
2, 152520, Note_on_c, 0, 78, 0
2, 152520, Note_on_c, 0, 92, 75
2, 152580, Note_on_c, 0, 92, 0
2, 152580, Note_on_c, 0, 94, 75
2, 152640, Note_on_c, 0, 94, 0
2, 152640, Note_on_c, 0, 86, 88
2, 152640, Note_on_c, 0, 92, 88
2, 152640, Note_on_c, 0, 80, 62
2, 153120, Note_on_c, 0, 80, 0
2, 153120, Note_on_c, 0, 92, 0
2, 153120, Note_on_c, 0, 86, 0
2, 153120, Note_on_c, 0, 78, 59
2, 153120, Note_on_c, 0, 90, 83
2, 153360, Note_on_c, 0, 90, 0
2, 153360, Note_on_c, 0, 78, 0
2, 153360, Note_on_c, 0, 76, 56
2, 153360, Note_on_c, 0, 88, 80
2, 153600, Note_on_c, 0, 88, 0
2, 153600, Note_on_c, 0, 76, 0
2, 153600, Note_on_c, 0, 78, 61
2, 153600, Note_on_c, 0, 74, 61
2, 153600, Note_on_c, 0, 86, 84
2, 154080, Note_on_c, 0, 86, 0
2, 154080, Note_on_c, 0, 74, 0
2, 154080, Note_on_c, 0, 78, 0
2, 154080, Note_on_c, 0, 82, 64
2, 154080, Note_on_c, 0, 73, 64
2, 154080, Note_on_c, 0, 85, 76
2, 154080, Note_on_c, 0, 78, 64
2, 154320, Note_on_c, 0, 78, 0
2, 154320, Note_on_c, 0, 82, 0
2, 154320, Note_on_c, 0, 73, 0
2, 154320, Note_on_c, 0, 85, 0
2, 154320, Note_on_c, 0, 87, 78
2, 154320, Note_on_c, 0, 75, 66
2, 154560, Note_on_c, 0, 75, 0
2, 154560, Note_on_c, 0, 87, 0
2, 154560, Note_on_c, 0, 82, 68
2, 154560, Note_on_c, 0, 77, 68
2, 154560, Note_on_c, 0, 89, 80
2, 155040, Note_on_c, 0, 89, 0
2, 155040, Note_on_c, 0, 77, 0
2, 155040, Note_on_c, 0, 82, 0
2, 155040, Note_on_c, 0, 75, 64
2, 155040, Note_on_c, 0, 87, 76
2, 155280, Note_on_c, 0, 87, 0
2, 155280, Note_on_c, 0, 75, 0
2, 155280, Note_on_c, 0, 73, 59
2, 155280, Note_on_c, 0, 85, 70
2, 155520, Note_on_c, 0, 85, 0
2, 155520, Note_on_c, 0, 73, 0
2, 155520, Note_on_c, 0, 74, 55
2, 155520, Note_on_c, 0, 83, 65
2, 155520, Note_on_c, 0, 71, 55
2, 156960, Note_on_c, 0, 71, 0
2, 156960, Note_on_c, 0, 83, 0
2, 156960, Note_on_c, 0, 74, 0
2, 157200, Note_on_c, 0, 63, 35
2, 157200, Note_on_c, 0, 66, 35
2, 157200, Note_on_c, 0, 70, 35
2, 157320, Note_on_c, 0, 70, 0
2, 157320, Note_on_c, 0, 66, 0
2, 157320, Note_on_c, 0, 63, 0
2, 157320, Note_on_c, 0, 61, 35
2, 157430, Note_on_c, 0, 61, 0
2, 157680, Note_on_c, 0, 61, 35
2, 157680, Note_on_c, 0, 66, 35
2, 157680, Note_on_c, 0, 70, 35
2, 157740, Note_on_c, 0, 70, 0
2, 157740, Note_on_c, 0, 66, 0
2, 157740, Note_on_c, 0, 61, 0
2, 158160, Note_on_c, 0, 61, 35
2, 158160, Note_on_c, 0, 66, 35
2, 158160, Note_on_c, 0, 70, 35
2, 158220, Note_on_c, 0, 70, 0
2, 158220, Note_on_c, 0, 66, 0
2, 158220, Note_on_c, 0, 61, 0
2, 158640, Note_on_c, 0, 83, 53
2, 158640, Note_on_c, 0, 77, 47
2, 158640, Note_on_c, 0, 73, 44
2, 158640, Note_on_c, 0, 85, 60
2, 158880, Note_on_c, 0, 85, 0
2, 158880, Note_on_c, 0, 83, 0
2, 158880, Note_on_c, 0, 77, 0
2, 158880, Note_on_c, 0, 73, 0
2, 158880, Note_on_c, 0, 75, 48
2, 158880, Note_on_c, 0, 87, 68
2, 159120, Note_on_c, 0, 87, 0
2, 159120, Note_on_c, 0, 75, 0
2, 159120, Note_on_c, 0, 77, 54
2, 159120, Note_on_c, 0, 89, 64
2, 159360, Note_on_c, 0, 89, 0
2, 159360, Note_on_c, 0, 77, 0
2, 159360, Note_on_c, 0, 75, 57
2, 159360, Note_on_c, 0, 87, 68
2, 159600, Note_on_c, 0, 87, 0
2, 159600, Note_on_c, 0, 75, 0
2, 159600, Note_on_c, 0, 73, 55
2, 159600, Note_on_c, 0, 85, 65
2, 159840, Note_on_c, 0, 85, 0
2, 159840, Note_on_c, 0, 73, 0
2, 160080, Note_on_c, 0, 63, 35
2, 160080, Note_on_c, 0, 66, 35
2, 160080, Note_on_c, 0, 70, 35
2, 160200, Note_on_c, 0, 70, 0
2, 160200, Note_on_c, 0, 66, 0
2, 160200, Note_on_c, 0, 63, 0
2, 160200, Note_on_c, 0, 61, 35
2, 160310, Note_on_c, 0, 61, 0
2, 160560, Note_on_c, 0, 61, 35
2, 160560, Note_on_c, 0, 66, 35
2, 160560, Note_on_c, 0, 70, 35
2, 160620, Note_on_c, 0, 70, 0
2, 160620, Note_on_c, 0, 66, 0
2, 160620, Note_on_c, 0, 61, 0
2, 161040, Note_on_c, 0, 61, 35
2, 161040, Note_on_c, 0, 66, 35
2, 161040, Note_on_c, 0, 70, 35
2, 161100, Note_on_c, 0, 70, 0
2, 161100, Note_on_c, 0, 66, 0
2, 161100, Note_on_c, 0, 61, 0
2, 161520, Note_on_c, 0, 83, 49
2, 161520, Note_on_c, 0, 77, 46
2, 161520, Note_on_c, 0, 73, 44
2, 161520, Note_on_c, 0, 85, 60
2, 161760, Note_on_c, 0, 85, 0
2, 161760, Note_on_c, 0, 83, 0
2, 161760, Note_on_c, 0, 77, 0
2, 161760, Note_on_c, 0, 73, 0
2, 161760, Note_on_c, 0, 75, 48
2, 161760, Note_on_c, 0, 87, 68
2, 162000, Note_on_c, 0, 87, 0
2, 162000, Note_on_c, 0, 75, 0
2, 162000, Note_on_c, 0, 77, 54
2, 162000, Note_on_c, 0, 89, 64
2, 162240, Note_on_c, 0, 89, 0
2, 162240, Note_on_c, 0, 77, 0
2, 162240, Note_on_c, 0, 75, 57
2, 162240, Note_on_c, 0, 87, 68
2, 162480, Note_on_c, 0, 87, 0
2, 162480, Note_on_c, 0, 75, 0
2, 162480, Note_on_c, 0, 73, 55
2, 162480, Note_on_c, 0, 85, 65
2, 162720, Note_on_c, 0, 85, 0
2, 162720, Note_on_c, 0, 73, 0
2, 162960, Note_on_c, 0, 63, 35
2, 162960, Note_on_c, 0, 66, 35
2, 162960, Note_on_c, 0, 70, 35
2, 163080, Note_on_c, 0, 70, 0
2, 163080, Note_on_c, 0, 66, 0
2, 163080, Note_on_c, 0, 63, 0
2, 163080, Note_on_c, 0, 61, 35
2, 163190, Note_on_c, 0, 61, 0
2, 163440, Note_on_c, 0, 61, 35
2, 163440, Note_on_c, 0, 66, 35
2, 163440, Note_on_c, 0, 70, 35
2, 163500, Note_on_c, 0, 70, 0
2, 163500, Note_on_c, 0, 66, 0
2, 163500, Note_on_c, 0, 61, 0
2, 163920, Note_on_c, 0, 61, 35
2, 163920, Note_on_c, 0, 66, 35
2, 163920, Note_on_c, 0, 70, 35
2, 163980, Note_on_c, 0, 70, 0
2, 163980, Note_on_c, 0, 66, 0
2, 163980, Note_on_c, 0, 61, 0
2, 164400, Note_on_c, 0, 74, 73
2, 164400, Note_on_c, 0, 62, 61
2, 164400, Note_on_c, 0, 69, 61
2, 164520, Note_on_c, 0, 69, 0
2, 164520, Note_on_c, 0, 62, 0
2, 164520, Note_on_c, 0, 74, 0
2, 164640, Note_on_c, 0, 64, 66
2, 164640, Note_on_c, 0, 76, 79
2, 164760, Note_on_c, 0, 76, 0
2, 164760, Note_on_c, 0, 64, 0
2, 164880, Note_on_c, 0, 66, 62
2, 164880, Note_on_c, 0, 78, 74
2, 165000, Note_on_c, 0, 78, 0
2, 165000, Note_on_c, 0, 66, 0
2, 165120, Note_on_c, 0, 67, 66
2, 165120, Note_on_c, 0, 74, 66
2, 165120, Note_on_c, 0, 79, 79
2, 165240, Note_on_c, 0, 79, 0
2, 165240, Note_on_c, 0, 74, 0
2, 165240, Note_on_c, 0, 67, 0
2, 165360, Note_on_c, 0, 69, 61
2, 165360, Note_on_c, 0, 81, 73
2, 165480, Note_on_c, 0, 81, 0
2, 165480, Note_on_c, 0, 69, 0
2, 165600, Note_on_c, 0, 70, 66
2, 165600, Note_on_c, 0, 74, 66
2, 165600, Note_on_c, 0, 82, 79
2, 165720, Note_on_c, 0, 82, 0
2, 165720, Note_on_c, 0, 74, 0
2, 165720, Note_on_c, 0, 70, 0
2, 165840, Note_on_c, 0, 71, 67
2, 165840, Note_on_c, 0, 83, 80
2, 165960, Note_on_c, 0, 83, 0
2, 165960, Note_on_c, 0, 71, 0
2, 166080, Note_on_c, 0, 86, 83
2, 166080, Note_on_c, 0, 74, 71
2, 166200, Note_on_c, 0, 74, 0
2, 166200, Note_on_c, 0, 86, 0
2, 166320, Note_on_c, 0, 91, 83
2, 166320, Note_on_c, 0, 79, 71
2, 166440, Note_on_c, 0, 79, 0
2, 166440, Note_on_c, 0, 91, 0
2, 166560, Note_on_c, 0, 95, 84
2, 166560, Note_on_c, 0, 83, 71
2, 166680, Note_on_c, 0, 83, 0
2, 166680, Note_on_c, 0, 95, 0
2, 166800, Note_on_c, 0, 98, 86
2, 166800, Note_on_c, 0, 86, 73
2, 166920, Note_on_c, 0, 86, 0
2, 166920, Note_on_c, 0, 98, 0
2, 167280, Note_on_c, 0, 59, 50
2, 167280, Note_on_c, 0, 61, 50
2, 167400, Note_on_c, 0, 61, 0
2, 167400, Note_on_c, 0, 59, 0
2, 167520, Note_on_c, 0, 59, 54
2, 167520, Note_on_c, 0, 63, 54
2, 167640, Note_on_c, 0, 63, 0
2, 167640, Note_on_c, 0, 59, 0
2, 167760, Note_on_c, 0, 59, 50
2, 167760, Note_on_c, 0, 65, 50
2, 167880, Note_on_c, 0, 65, 0
2, 167880, Note_on_c, 0, 59, 0
2, 167880, Note_on_c, 0, 63, 45
2, 167940, Note_on_c, 0, 63, 0
2, 167940, Note_on_c, 0, 65, 46
2, 168000, Note_on_c, 0, 65, 0
2, 168000, Note_on_c, 0, 59, 54
2, 168000, Note_on_c, 0, 63, 54
2, 168120, Note_on_c, 0, 63, 0
2, 168120, Note_on_c, 0, 59, 0
2, 168240, Note_on_c, 0, 59, 50
2, 168240, Note_on_c, 0, 61, 50
2, 168360, Note_on_c, 0, 61, 0
2, 168360, Note_on_c, 0, 59, 0
2, 168720, Note_on_c, 0, 63, 35
2, 168720, Note_on_c, 0, 66, 35
2, 168720, Note_on_c, 0, 70, 35
2, 168840, Note_on_c, 0, 70, 0
2, 168840, Note_on_c, 0, 66, 0
2, 168840, Note_on_c, 0, 63, 0
2, 168840, Note_on_c, 0, 61, 35
2, 168950, Note_on_c, 0, 61, 0
2, 169200, Note_on_c, 0, 61, 35
2, 169200, Note_on_c, 0, 66, 35
2, 169200, Note_on_c, 0, 70, 35
2, 169260, Note_on_c, 0, 70, 0
2, 169260, Note_on_c, 0, 66, 0
2, 169260, Note_on_c, 0, 61, 0
2, 169680, Note_on_c, 0, 61, 35
2, 169680, Note_on_c, 0, 66, 35
2, 169680, Note_on_c, 0, 70, 35
2, 169740, Note_on_c, 0, 70, 0
2, 169740, Note_on_c, 0, 66, 0
2, 169740, Note_on_c, 0, 61, 0
2, 170160, Note_on_c, 0, 83, 53
2, 170160, Note_on_c, 0, 77, 47
2, 170160, Note_on_c, 0, 73, 44
2, 170160, Note_on_c, 0, 85, 60
2, 170400, Note_on_c, 0, 85, 0
2, 170400, Note_on_c, 0, 83, 0
2, 170400, Note_on_c, 0, 77, 0
2, 170400, Note_on_c, 0, 73, 0
2, 170400, Note_on_c, 0, 75, 48
2, 170400, Note_on_c, 0, 87, 68
2, 170640, Note_on_c, 0, 87, 0
2, 170640, Note_on_c, 0, 75, 0
2, 170640, Note_on_c, 0, 77, 54
2, 170640, Note_on_c, 0, 89, 64
2, 170880, Note_on_c, 0, 89, 0
2, 170880, Note_on_c, 0, 77, 0
2, 170880, Note_on_c, 0, 75, 57
2, 170880, Note_on_c, 0, 87, 68
2, 171120, Note_on_c, 0, 87, 0
2, 171120, Note_on_c, 0, 75, 0
2, 171120, Note_on_c, 0, 73, 55
2, 171120, Note_on_c, 0, 85, 65
2, 171360, Note_on_c, 0, 85, 0
2, 171360, Note_on_c, 0, 73, 0
2, 171600, Note_on_c, 0, 63, 35
2, 171600, Note_on_c, 0, 66, 35
2, 171600, Note_on_c, 0, 70, 35
2, 171720, Note_on_c, 0, 70, 0
2, 171720, Note_on_c, 0, 66, 0
2, 171720, Note_on_c, 0, 63, 0
2, 171720, Note_on_c, 0, 61, 35
2, 171830, Note_on_c, 0, 61, 0
2, 172080, Note_on_c, 0, 61, 35
2, 172080, Note_on_c, 0, 66, 35
2, 172080, Note_on_c, 0, 70, 35
2, 172140, Note_on_c, 0, 70, 0
2, 172140, Note_on_c, 0, 66, 0
2, 172140, Note_on_c, 0, 61, 0
2, 172560, Note_on_c, 0, 61, 35
2, 172560, Note_on_c, 0, 66, 35
2, 172560, Note_on_c, 0, 70, 35
2, 172620, Note_on_c, 0, 70, 0
2, 172620, Note_on_c, 0, 66, 0
2, 172620, Note_on_c, 0, 61, 0
2, 173040, Note_on_c, 0, 83, 49
2, 173040, Note_on_c, 0, 77, 46
2, 173040, Note_on_c, 0, 73, 44
2, 173040, Note_on_c, 0, 85, 60
2, 173280, Note_on_c, 0, 85, 0
2, 173280, Note_on_c, 0, 83, 0
2, 173280, Note_on_c, 0, 77, 0
2, 173280, Note_on_c, 0, 73, 0
2, 173280, Note_on_c, 0, 75, 48
2, 173280, Note_on_c, 0, 87, 68
2, 173520, Note_on_c, 0, 87, 0
2, 173520, Note_on_c, 0, 75, 0
2, 173520, Note_on_c, 0, 77, 54
2, 173520, Note_on_c, 0, 89, 64
2, 173760, Note_on_c, 0, 89, 0
2, 173760, Note_on_c, 0, 77, 0
2, 173760, Note_on_c, 0, 75, 57
2, 173760, Note_on_c, 0, 87, 68
2, 174000, Note_on_c, 0, 87, 0
2, 174000, Note_on_c, 0, 75, 0
2, 174000, Note_on_c, 0, 73, 55
2, 174000, Note_on_c, 0, 85, 65
2, 174240, Note_on_c, 0, 85, 0
2, 174240, Note_on_c, 0, 73, 0
2, 174480, Note_on_c, 0, 63, 35
2, 174480, Note_on_c, 0, 66, 35
2, 174480, Note_on_c, 0, 70, 35
2, 174600, Note_on_c, 0, 70, 0
2, 174600, Note_on_c, 0, 66, 0
2, 174600, Note_on_c, 0, 63, 0
2, 174600, Note_on_c, 0, 61, 35
2, 174710, Note_on_c, 0, 61, 0
2, 174960, Note_on_c, 0, 61, 35
2, 174960, Note_on_c, 0, 66, 35
2, 174960, Note_on_c, 0, 70, 35
2, 175020, Note_on_c, 0, 70, 0
2, 175020, Note_on_c, 0, 66, 0
2, 175020, Note_on_c, 0, 61, 0
2, 175440, Note_on_c, 0, 61, 35
2, 175440, Note_on_c, 0, 66, 35
2, 175440, Note_on_c, 0, 70, 35
2, 175500, Note_on_c, 0, 70, 0
2, 175500, Note_on_c, 0, 66, 0
2, 175500, Note_on_c, 0, 61, 0
2, 175920, Note_on_c, 0, 74, 73
2, 175920, Note_on_c, 0, 62, 61
2, 175920, Note_on_c, 0, 69, 61
2, 176040, Note_on_c, 0, 69, 0
2, 176040, Note_on_c, 0, 62, 0
2, 176040, Note_on_c, 0, 74, 0
2, 176160, Note_on_c, 0, 64, 66
2, 176160, Note_on_c, 0, 76, 79
2, 176280, Note_on_c, 0, 76, 0
2, 176280, Note_on_c, 0, 64, 0
2, 176400, Note_on_c, 0, 66, 62
2, 176400, Note_on_c, 0, 78, 74
2, 176520, Note_on_c, 0, 78, 0
2, 176520, Note_on_c, 0, 66, 0
2, 176640, Note_on_c, 0, 67, 66
2, 176640, Note_on_c, 0, 74, 66
2, 176640, Note_on_c, 0, 79, 79
2, 176760, Note_on_c, 0, 79, 0
2, 176760, Note_on_c, 0, 74, 0
2, 176760, Note_on_c, 0, 67, 0
2, 176880, Note_on_c, 0, 69, 61
2, 176880, Note_on_c, 0, 81, 73
2, 177000, Note_on_c, 0, 81, 0
2, 177000, Note_on_c, 0, 69, 0
2, 177120, Note_on_c, 0, 70, 66
2, 177120, Note_on_c, 0, 74, 66
2, 177120, Note_on_c, 0, 82, 79
2, 177240, Note_on_c, 0, 82, 0
2, 177240, Note_on_c, 0, 74, 0
2, 177240, Note_on_c, 0, 70, 0
2, 177360, Note_on_c, 0, 71, 61
2, 177360, Note_on_c, 0, 83, 77
2, 177480, Note_on_c, 0, 83, 0
2, 177480, Note_on_c, 0, 71, 0
2, 177600, Note_on_c, 0, 86, 83
2, 177600, Note_on_c, 0, 74, 71
2, 177720, Note_on_c, 0, 74, 0
2, 177720, Note_on_c, 0, 86, 0
2, 177840, Note_on_c, 0, 91, 83
2, 177840, Note_on_c, 0, 79, 71
2, 177960, Note_on_c, 0, 79, 0
2, 177960, Note_on_c, 0, 91, 0
2, 178080, Note_on_c, 0, 95, 84
2, 178080, Note_on_c, 0, 83, 71
2, 178200, Note_on_c, 0, 83, 0
2, 178200, Note_on_c, 0, 95, 0
2, 178320, Note_on_c, 0, 98, 86
2, 178320, Note_on_c, 0, 86, 73
2, 178440, Note_on_c, 0, 86, 0
2, 178440, Note_on_c, 0, 98, 0
2, 178800, Note_on_c, 0, 59, 50
2, 178800, Note_on_c, 0, 61, 50
2, 178920, Note_on_c, 0, 61, 0
2, 178920, Note_on_c, 0, 59, 0
2, 179040, Note_on_c, 0, 59, 54
2, 179040, Note_on_c, 0, 63, 54
2, 179160, Note_on_c, 0, 63, 0
2, 179160, Note_on_c, 0, 59, 0
2, 179280, Note_on_c, 0, 59, 50
2, 179280, Note_on_c, 0, 65, 50
2, 179400, Note_on_c, 0, 65, 0
2, 179400, Note_on_c, 0, 59, 0
2, 179400, Note_on_c, 0, 63, 45
2, 179460, Note_on_c, 0, 63, 0
2, 179460, Note_on_c, 0, 65, 46
2, 179520, Note_on_c, 0, 65, 0
2, 179520, Note_on_c, 0, 59, 54
2, 179520, Note_on_c, 0, 63, 54
2, 179640, Note_on_c, 0, 63, 0
2, 179640, Note_on_c, 0, 59, 0
2, 179760, Note_on_c, 0, 59, 50
2, 179760, Note_on_c, 0, 61, 50
2, 179880, Note_on_c, 0, 61, 0
2, 179880, Note_on_c, 0, 59, 0
2, 180000, Note_on_c, 0, 58, 76
2, 180000, Note_on_c, 0, 66, 79
2, 180120, Note_on_c, 0, 66, 0
2, 180120, Note_on_c, 0, 58, 0
2, 180240, Note_on_c, 0, 90, 57
2, 180240, Note_on_c, 0, 85, 48
2, 180240, Note_on_c, 0, 82, 48
2, 180360, Note_on_c, 0, 82, 0
2, 180360, Note_on_c, 0, 85, 0
2, 180360, Note_on_c, 0, 90, 0
2, 180360, Note_on_c, 0, 78, 57
2, 180480, Note_on_c, 0, 78, 0
2, 180720, Note_on_c, 0, 90, 57
2, 180720, Note_on_c, 0, 85, 48
2, 180720, Note_on_c, 0, 82, 48
2, 180840, Note_on_c, 0, 82, 0
2, 180840, Note_on_c, 0, 85, 0
2, 180840, Note_on_c, 0, 90, 0
2, 180840, Note_on_c, 0, 78, 57
2, 180960, Note_on_c, 0, 78, 0
2, 181200, Note_on_c, 0, 90, 57
2, 181200, Note_on_c, 0, 85, 48
2, 181200, Note_on_c, 0, 82, 48
2, 181320, Note_on_c, 0, 82, 0
2, 181320, Note_on_c, 0, 85, 0
2, 181320, Note_on_c, 0, 90, 0
2, 181320, Note_on_c, 0, 78, 57
2, 181440, Note_on_c, 0, 78, 0
2, 181680, Note_on_c, 0, 90, 57
2, 181680, Note_on_c, 0, 85, 48
2, 181680, Note_on_c, 0, 82, 48
2, 181800, Note_on_c, 0, 82, 0
2, 181800, Note_on_c, 0, 85, 0
2, 181800, Note_on_c, 0, 90, 0
2, 181800, Note_on_c, 0, 78, 57
2, 181920, Note_on_c, 0, 78, 0
2, 182160, Note_on_c, 0, 90, 57
2, 182160, Note_on_c, 0, 85, 48
2, 182160, Note_on_c, 0, 82, 48
2, 182280, Note_on_c, 0, 82, 0
2, 182280, Note_on_c, 0, 85, 0
2, 182280, Note_on_c, 0, 90, 0
2, 182280, Note_on_c, 0, 78, 57
2, 182400, Note_on_c, 0, 78, 0
2, 182640, Note_on_c, 0, 78, 54
2, 182640, Note_on_c, 0, 90, 64
2, 182640, Note_on_c, 0, 85, 54
2, 182640, Note_on_c, 0, 82, 54
2, 182760, Note_on_c, 0, 82, 0
2, 182760, Note_on_c, 0, 78, 0
2, 182760, Note_on_c, 0, 90, 0
2, 182760, Note_on_c, 0, 85, 0
2, 182880, Note_on_c, 0, 93, 91
2, 182880, Note_on_c, 0, 84, 77
2, 182880, Note_on_c, 0, 81, 77
2, 183000, Note_on_c, 0, 81, 0
2, 183000, Note_on_c, 0, 84, 0
2, 183000, Note_on_c, 0, 93, 0
2, 183120, Note_on_c, 0, 74, 51
2, 183120, Note_on_c, 0, 69, 43
2, 183120, Note_on_c, 0, 66, 43
2, 183240, Note_on_c, 0, 66, 0
2, 183240, Note_on_c, 0, 69, 0
2, 183240, Note_on_c, 0, 74, 0
2, 183240, Note_on_c, 0, 62, 51
2, 183360, Note_on_c, 0, 62, 0
2, 183600, Note_on_c, 0, 74, 51
2, 183600, Note_on_c, 0, 69, 43
2, 183600, Note_on_c, 0, 66, 43
2, 183720, Note_on_c, 0, 66, 0
2, 183720, Note_on_c, 0, 69, 0
2, 183720, Note_on_c, 0, 74, 0
2, 183720, Note_on_c, 0, 62, 51
2, 183840, Note_on_c, 0, 62, 0
2, 184080, Note_on_c, 0, 74, 51
2, 184080, Note_on_c, 0, 69, 43
2, 184080, Note_on_c, 0, 66, 43
2, 184200, Note_on_c, 0, 66, 0
2, 184200, Note_on_c, 0, 69, 0
2, 184200, Note_on_c, 0, 74, 0
2, 184200, Note_on_c, 0, 62, 51
2, 184320, Note_on_c, 0, 62, 0
2, 184560, Note_on_c, 0, 74, 51
2, 184560, Note_on_c, 0, 69, 43
2, 184560, Note_on_c, 0, 66, 43
2, 184680, Note_on_c, 0, 66, 0
2, 184680, Note_on_c, 0, 69, 0
2, 184680, Note_on_c, 0, 74, 0
2, 184680, Note_on_c, 0, 62, 51
2, 184800, Note_on_c, 0, 62, 0
2, 185040, Note_on_c, 0, 74, 51
2, 185040, Note_on_c, 0, 69, 43
2, 185040, Note_on_c, 0, 66, 43
2, 185160, Note_on_c, 0, 66, 0
2, 185160, Note_on_c, 0, 69, 0
2, 185160, Note_on_c, 0, 74, 0
2, 185160, Note_on_c, 0, 62, 51
2, 185280, Note_on_c, 0, 62, 0
2, 185520, Note_on_c, 0, 62, 48
2, 185520, Note_on_c, 0, 74, 57
2, 185520, Note_on_c, 0, 69, 48
2, 185520, Note_on_c, 0, 66, 48
2, 185640, Note_on_c, 0, 66, 0
2, 185640, Note_on_c, 0, 62, 0
2, 185640, Note_on_c, 0, 74, 0
2, 185640, Note_on_c, 0, 69, 0
2, 185760, Note_on_c, 0, 66, 76
2, 185760, Note_on_c, 0, 70, 76
2, 185760, Note_on_c, 0, 73, 76
2, 185760, Note_on_c, 0, 78, 91
2, 185880, Note_on_c, 0, 78, 0
2, 185880, Note_on_c, 0, 66, 0
2, 185880, Note_on_c, 0, 70, 0
2, 185880, Note_on_c, 0, 73, 0
2, 186000, Note_on_c, 0, 90, 57
2, 186000, Note_on_c, 0, 85, 48
2, 186000, Note_on_c, 0, 82, 48
2, 186120, Note_on_c, 0, 82, 0
2, 186120, Note_on_c, 0, 85, 0
2, 186120, Note_on_c, 0, 90, 0
2, 186120, Note_on_c, 0, 78, 57
2, 186240, Note_on_c, 0, 78, 0
2, 186480, Note_on_c, 0, 90, 57
2, 186480, Note_on_c, 0, 85, 48
2, 186480, Note_on_c, 0, 82, 48
2, 186600, Note_on_c, 0, 82, 0
2, 186600, Note_on_c, 0, 85, 0
2, 186600, Note_on_c, 0, 90, 0
2, 186600, Note_on_c, 0, 78, 57
2, 186720, Note_on_c, 0, 78, 0
2, 186960, Note_on_c, 0, 90, 57
2, 186960, Note_on_c, 0, 85, 48
2, 186960, Note_on_c, 0, 82, 48
2, 187080, Note_on_c, 0, 82, 0
2, 187080, Note_on_c, 0, 85, 0
2, 187080, Note_on_c, 0, 90, 0
2, 187080, Note_on_c, 0, 78, 57
2, 187200, Note_on_c, 0, 78, 0
2, 187440, Note_on_c, 0, 90, 57
2, 187440, Note_on_c, 0, 85, 48
2, 187440, Note_on_c, 0, 82, 48
2, 187560, Note_on_c, 0, 82, 0
2, 187560, Note_on_c, 0, 85, 0
2, 187560, Note_on_c, 0, 90, 0
2, 187560, Note_on_c, 0, 78, 57
2, 187680, Note_on_c, 0, 78, 0
2, 187920, Note_on_c, 0, 90, 57
2, 187920, Note_on_c, 0, 85, 48
2, 187920, Note_on_c, 0, 82, 48
2, 188040, Note_on_c, 0, 82, 0
2, 188040, Note_on_c, 0, 85, 0
2, 188040, Note_on_c, 0, 90, 0
2, 188040, Note_on_c, 0, 78, 57
2, 188160, Note_on_c, 0, 78, 0
2, 188400, Note_on_c, 0, 78, 54
2, 188400, Note_on_c, 0, 90, 64
2, 188400, Note_on_c, 0, 85, 54
2, 188400, Note_on_c, 0, 82, 54
2, 188520, Note_on_c, 0, 82, 0
2, 188520, Note_on_c, 0, 78, 0
2, 188520, Note_on_c, 0, 90, 0
2, 188520, Note_on_c, 0, 85, 0
2, 188640, Note_on_c, 0, 90, 91
2, 188640, Note_on_c, 0, 94, 91
2, 188640, Note_on_c, 0, 87, 76
2, 188640, Note_on_c, 0, 82, 76
2, 188760, Note_on_c, 0, 82, 0
2, 188760, Note_on_c, 0, 90, 0
2, 188760, Note_on_c, 0, 94, 0
2, 188760, Note_on_c, 0, 87, 0
2, 188880, Note_on_c, 0, 75, 51
2, 188880, Note_on_c, 0, 70, 43
2, 188880, Note_on_c, 0, 66, 43
2, 189000, Note_on_c, 0, 66, 0
2, 189000, Note_on_c, 0, 70, 0
2, 189000, Note_on_c, 0, 75, 0
2, 189000, Note_on_c, 0, 63, 51
2, 189120, Note_on_c, 0, 63, 0
2, 189360, Note_on_c, 0, 75, 51
2, 189360, Note_on_c, 0, 70, 43
2, 189360, Note_on_c, 0, 66, 43
2, 189480, Note_on_c, 0, 66, 0
2, 189480, Note_on_c, 0, 70, 0
2, 189480, Note_on_c, 0, 75, 0
2, 189480, Note_on_c, 0, 63, 51
2, 189600, Note_on_c, 0, 63, 0
2, 189840, Note_on_c, 0, 75, 51
2, 189840, Note_on_c, 0, 70, 43
2, 189840, Note_on_c, 0, 66, 43
2, 189960, Note_on_c, 0, 66, 0
2, 189960, Note_on_c, 0, 70, 0
2, 189960, Note_on_c, 0, 75, 0
2, 189960, Note_on_c, 0, 63, 51
2, 190080, Note_on_c, 0, 63, 0
2, 190320, Note_on_c, 0, 75, 51
2, 190320, Note_on_c, 0, 70, 43
2, 190320, Note_on_c, 0, 66, 43
2, 190440, Note_on_c, 0, 66, 0
2, 190440, Note_on_c, 0, 70, 0
2, 190440, Note_on_c, 0, 75, 0
2, 190440, Note_on_c, 0, 63, 51
2, 190560, Note_on_c, 0, 63, 0
2, 190800, Note_on_c, 0, 75, 51
2, 190800, Note_on_c, 0, 70, 43
2, 190800, Note_on_c, 0, 66, 43
2, 190920, Note_on_c, 0, 66, 0
2, 190920, Note_on_c, 0, 70, 0
2, 190920, Note_on_c, 0, 75, 0
2, 190920, Note_on_c, 0, 63, 51
2, 191040, Note_on_c, 0, 63, 0
2, 191040, Note_on_c, 0, 87, 74
2, 191040, Note_on_c, 0, 83, 74
2, 191040, Note_on_c, 0, 78, 63
2, 191040, Note_on_c, 0, 75, 63
2, 191160, Note_on_c, 0, 75, 0
2, 191160, Note_on_c, 0, 87, 0
2, 191160, Note_on_c, 0, 83, 0
2, 191160, Note_on_c, 0, 78, 0
2, 191280, Note_on_c, 0, 78, 64
2, 191280, Note_on_c, 0, 83, 64
2, 191280, Note_on_c, 0, 87, 77
2, 191280, Note_on_c, 0, 90, 77
2, 191400, Note_on_c, 0, 90, 0
2, 191400, Note_on_c, 0, 78, 0
2, 191400, Note_on_c, 0, 83, 0
2, 191400, Note_on_c, 0, 87, 0
2, 191520, Note_on_c, 0, 94, 82
2, 191520, Note_on_c, 0, 90, 82
2, 191520, Note_on_c, 0, 85, 69
2, 191520, Note_on_c, 0, 82, 69
2, 191640, Note_on_c, 0, 82, 0
2, 191640, Note_on_c, 0, 94, 0
2, 191640, Note_on_c, 0, 90, 0
2, 191640, Note_on_c, 0, 85, 0
2, 191760, Note_on_c, 0, 71, 57
2, 191760, Note_on_c, 0, 66, 48
2, 191760, Note_on_c, 0, 63, 48
2, 191880, Note_on_c, 0, 63, 0
2, 191880, Note_on_c, 0, 66, 0
2, 191880, Note_on_c, 0, 71, 0
2, 191880, Note_on_c, 0, 61, 57
2, 191990, Note_on_c, 0, 61, 0
2, 192240, Note_on_c, 0, 73, 59
2, 192240, Note_on_c, 0, 71, 49
2, 192240, Note_on_c, 0, 68, 49
2, 192360, Note_on_c, 0, 68, 0
2, 192360, Note_on_c, 0, 71, 0
2, 192360, Note_on_c, 0, 73, 0
2, 192360, Note_on_c, 0, 66, 59
2, 192470, Note_on_c, 0, 66, 0
2, 192720, Note_on_c, 0, 82, 61
2, 192720, Note_on_c, 0, 78, 51
2, 192720, Note_on_c, 0, 75, 51
2, 192840, Note_on_c, 0, 75, 0
2, 192840, Note_on_c, 0, 78, 0
2, 192840, Note_on_c, 0, 82, 0
2, 192840, Note_on_c, 0, 73, 62
2, 192950, Note_on_c, 0, 73, 0
2, 193200, Note_on_c, 0, 85, 63
2, 193200, Note_on_c, 0, 83, 53
2, 193200, Note_on_c, 0, 80, 53
2, 193320, Note_on_c, 0, 80, 0
2, 193320, Note_on_c, 0, 83, 0
2, 193320, Note_on_c, 0, 85, 0
2, 193320, Note_on_c, 0, 78, 64
2, 193430, Note_on_c, 0, 78, 0
2, 193680, Note_on_c, 0, 94, 66
2, 193680, Note_on_c, 0, 90, 55
2, 193680, Note_on_c, 0, 87, 55
2, 193800, Note_on_c, 0, 87, 0
2, 193800, Note_on_c, 0, 90, 0
2, 193800, Note_on_c, 0, 94, 0
2, 193800, Note_on_c, 0, 85, 66
2, 193910, Note_on_c, 0, 85, 0
2, 194160, Note_on_c, 0, 97, 68
2, 194160, Note_on_c, 0, 95, 57
2, 194160, Note_on_c, 0, 92, 57
2, 194280, Note_on_c, 0, 92, 0
2, 194280, Note_on_c, 0, 95, 0
2, 194280, Note_on_c, 0, 97, 0
2, 194280, Note_on_c, 0, 90, 68
2, 194390, Note_on_c, 0, 90, 0
2, 195360, Note_on_c, 0, 90, 92
2, 195360, Note_on_c, 0, 86, 92
2, 195360, Note_on_c, 0, 83, 77
2, 195360, Note_on_c, 0, 78, 77
2, 195600, Note_on_c, 0, 78, 0
2, 195600, Note_on_c, 0, 90, 0
2, 195600, Note_on_c, 0, 86, 0
2, 195600, Note_on_c, 0, 83, 0
2, 195840, Note_on_c, 0, 94, 97
2, 195840, Note_on_c, 0, 90, 97
2, 195840, Note_on_c, 0, 85, 82
2, 195840, Note_on_c, 0, 82, 82
2, 196080, Note_on_c, 0, 82, 0
2, 196080, Note_on_c, 0, 94, 0
2, 196080, Note_on_c, 0, 90, 0
2, 196080, Note_on_c, 0, 85, 0
2, 197280, Note_on_c, 0, 90, 82
2, 197280, Note_on_c, 0, 97, 82
2, 197280, Note_on_c, 0, 102, 97
2, 197520, Note_on_c, 0, 102, 0
2, 197520, Note_on_c, 0, 97, 0
2, 197520, Note_on_c, 0, 90, 0
2, 197520, End_track
3, 0, Start_track
3, 0, Title_t, "Piano left"
3, 0, Program_c, 0, 0
3, 0, Control_c, 0, 7, 100
3, 0, Control_c, 0, 10, 64
3, 0, Control_c, 0, 64, 0
3, 0, Note_on_c, 0, 61, 75
3, 106, Control_c, 0, 64, 127
3, 120, Note_on_c, 0, 61, 0
3, 480, Note_on_c, 0, 68, 72
3, 600, Note_on_c, 0, 68, 0
3, 960, Note_on_c, 0, 73, 72
3, 1080, Note_on_c, 0, 73, 0
3, 1440, Note_on_c, 0, 80, 72
3, 1453, Control_c, 0, 64, 0
3, 1525, Control_c, 0, 64, 127
3, 1560, Note_on_c, 0, 80, 0
3, 1920, Note_on_c, 0, 73, 71
3, 2040, Note_on_c, 0, 73, 0
3, 2400, Note_on_c, 0, 68, 71
3, 2520, Note_on_c, 0, 68, 0
3, 2880, Note_on_c, 0, 61, 75
3, 2888, Control_c, 0, 64, 0
3, 2958, Control_c, 0, 64, 127
3, 3000, Note_on_c, 0, 61, 0
3, 3360, Note_on_c, 0, 71, 45
3, 3360, Note_on_c, 0, 77, 64
3, 3360, Note_on_c, 0, 68, 45
3, 3480, Note_on_c, 0, 68, 0
3, 3480, Note_on_c, 0, 77, 0
3, 3480, Note_on_c, 0, 71, 0
3, 3840, Note_on_c, 0, 61, 72
3, 3960, Note_on_c, 0, 61, 0
3, 4320, Note_on_c, 0, 71, 45
3, 4320, Note_on_c, 0, 77, 68
3, 4320, Note_on_c, 0, 68, 45
3, 4328, Control_c, 0, 64, 0
3, 4405, Control_c, 0, 64, 127
3, 4440, Note_on_c, 0, 68, 0
3, 4440, Note_on_c, 0, 77, 0
3, 4440, Note_on_c, 0, 71, 0
3, 4800, Note_on_c, 0, 61, 74
3, 4920, Note_on_c, 0, 61, 0
3, 5280, Note_on_c, 0, 71, 45
3, 5280, Note_on_c, 0, 77, 67
3, 5280, Note_on_c, 0, 68, 45
3, 5400, Note_on_c, 0, 68, 0
3, 5400, Note_on_c, 0, 77, 0
3, 5400, Note_on_c, 0, 71, 0
3, 5760, Control_c, 0, 64, 0
3, 5760, Note_on_c, 0, 54, 51
3, 5852, Control_c, 0, 64, 127
3, 5880, Note_on_c, 0, 54, 0
3, 6240, Note_on_c, 0, 61, 49
3, 6244, Control_c, 0, 64, 0
3, 6300, Note_on_c, 0, 61, 0
3, 6491, Control_c, 0, 64, 127
3, 6614, Control_c, 0, 64, 0
3, 6720, Note_on_c, 0, 49, 49
3, 6780, Note_on_c, 0, 49, 0
3, 6999, Control_c, 0, 64, 127
3, 7073, Control_c, 0, 64, 0
3, 7200, Note_on_c, 0, 54, 51
3, 7260, Control_c, 0, 64, 127
3, 7320, Note_on_c, 0, 54, 0
3, 7680, Note_on_c, 0, 61, 49
3, 7686, Control_c, 0, 64, 0
3, 7740, Note_on_c, 0, 61, 0
3, 7969, Control_c, 0, 64, 127
3, 8096, Control_c, 0, 64, 0
3, 8160, Note_on_c, 0, 49, 49
3, 8220, Note_on_c, 0, 49, 0
3, 8428, Control_c, 0, 64, 127
3, 8541, Control_c, 0, 64, 0
3, 8640, Note_on_c, 0, 56, 51
3, 8691, Control_c, 0, 64, 127
3, 8760, Note_on_c, 0, 56, 0
3, 9120, Note_on_c, 0, 61, 51
3, 9470, Note_on_c, 0, 61, 0
3, 9600, Note_on_c, 0, 63, 55
3, 9830, Note_on_c, 0, 63, 0
3, 10080, Note_on_c, 0, 65, 58
3, 10089, Control_c, 0, 64, 0
3, 10162, Control_c, 0, 64, 127
3, 10310, Note_on_c, 0, 65, 0
3, 10560, Note_on_c, 0, 68, 61
3, 10800, Note_on_c, 0, 68, 0
3, 11040, Note_on_c, 0, 61, 58
3, 11390, Note_on_c, 0, 61, 0
3, 11520, Note_on_c, 0, 54, 51
3, 11523, Control_c, 0, 64, 0
3, 11612, Control_c, 0, 64, 127
3, 11640, Note_on_c, 0, 54, 0
3, 12000, Note_on_c, 0, 61, 49
3, 12010, Control_c, 0, 64, 0
3, 12060, Note_on_c, 0, 61, 0
3, 12279, Control_c, 0, 64, 127
3, 12434, Control_c, 0, 64, 0
3, 12480, Note_on_c, 0, 49, 49
3, 12540, Note_on_c, 0, 49, 0
3, 12752, Control_c, 0, 64, 127
3, 12875, Control_c, 0, 64, 0
3, 12960, Note_on_c, 0, 54, 51
3, 13002, Control_c, 0, 64, 127
3, 13080, Note_on_c, 0, 54, 0
3, 13440, Note_on_c, 0, 61, 49
3, 13446, Control_c, 0, 64, 0
3, 13500, Note_on_c, 0, 61, 0
3, 13705, Control_c, 0, 64, 127
3, 13864, Control_c, 0, 64, 0
3, 13920, Note_on_c, 0, 49, 49
3, 13980, Note_on_c, 0, 49, 0
3, 14202, Control_c, 0, 64, 127
3, 14329, Control_c, 0, 64, 0
3, 14400, Note_on_c, 0, 56, 51
3, 14457, Control_c, 0, 64, 127
3, 14520, Note_on_c, 0, 56, 0
3, 14880, Note_on_c, 0, 61, 51
3, 15230, Note_on_c, 0, 61, 0
3, 15360, Note_on_c, 0, 63, 55
3, 15590, Note_on_c, 0, 63, 0
3, 15840, Note_on_c, 0, 65, 58
3, 15941, Control_c, 0, 64, 0
3, 16011, Control_c, 0, 64, 127
3, 16070, Note_on_c, 0, 65, 0
3, 16320, Note_on_c, 0, 68, 61
3, 16800, Note_on_c, 0, 68, 0
3, 16800, Note_on_c, 0, 61, 58
3, 17150, Note_on_c, 0, 61, 0
3, 17280, Note_on_c, 0, 54, 54
3, 17280, Note_on_c, 0, 58, 54
3, 17280, Control_c, 0, 64, 0
3, 17400, Control_c, 0, 64, 127
3, 17640, Note_on_c, 0, 58, 0
3, 17640, Note_on_c, 0, 54, 0
3, 17640, Note_on_c, 0, 61, 50
3, 17760, Note_on_c, 0, 61, 0
3, 17760, Note_on_c, 0, 66, 50
3, 17781, Control_c, 0, 64, 0
3, 17880, Note_on_c, 0, 66, 0
3, 18000, Note_on_c, 0, 70, 54
3, 18120, Note_on_c, 0, 70, 0
3, 18240, Note_on_c, 0, 73, 56
3, 18360, Note_on_c, 0, 73, 0
3, 18480, Note_on_c, 0, 78, 54
3, 18600, Note_on_c, 0, 78, 0
3, 18720, Note_on_c, 0, 82, 63
3, 18840, Note_on_c, 0, 82, 0
3, 19133, Control_c, 0, 64, 127
3, 19140, Note_on_c, 0, 42, 58
3, 19170, Note_on_c, 0, 49, 61
3, 19200, Note_on_c, 0, 58, 70
3, 19680, Note_on_c, 0, 58, 0
3, 19680, Note_on_c, 0, 49, 0
3, 19680, Note_on_c, 0, 42, 0
3, 19684, Control_c, 0, 64, 0
3, 20160, Note_on_c, 0, 66, 53
3, 20192, Control_c, 0, 64, 127
3, 20400, Note_on_c, 0, 66, 0
3, 20400, Note_on_c, 0, 68, 55
3, 20640, Note_on_c, 0, 68, 0
3, 20640, Note_on_c, 0, 70, 56
3, 20649, Control_c, 0, 64, 0
3, 20736, Control_c, 0, 64, 127
3, 21092, Control_c, 0, 64, 0
3, 21120, Note_on_c, 0, 70, 0
3, 21120, Note_on_c, 0, 68, 54
3, 21148, Control_c, 0, 64, 127
3, 21360, Note_on_c, 0, 68, 0
3, 21360, Note_on_c, 0, 66, 50
3, 21496, Control_c, 0, 64, 0
3, 21526, Control_c, 0, 64, 127
3, 21600, Note_on_c, 0, 66, 0
3, 21600, Note_on_c, 0, 68, 56
3, 21619, Control_c, 0, 64, 0
3, 21769, Control_c, 0, 64, 127
3, 22080, Note_on_c, 0, 68, 0
3, 22080, Note_on_c, 0, 66, 54
3, 22088, Control_c, 0, 64, 0
3, 22193, Control_c, 0, 64, 127
3, 22320, Note_on_c, 0, 66, 0
3, 22320, Note_on_c, 0, 63, 50
3, 22560, Note_on_c, 0, 63, 0
3, 22560, Note_on_c, 0, 61, 47
3, 22571, Control_c, 0, 64, 0
3, 22673, Control_c, 0, 64, 127
3, 23040, Note_on_c, 0, 61, 0
3, 23040, Note_on_c, 0, 59, 59
3, 23040, Note_on_c, 0, 66, 59
3, 23046, Control_c, 0, 64, 0
3, 23167, Control_c, 0, 64, 127
3, 23520, Note_on_c, 0, 66, 0
3, 23520, Note_on_c, 0, 59, 0
3, 23520, Note_on_c, 0, 56, 56
3, 23520, Note_on_c, 0, 66, 56
3, 23539, Control_c, 0, 64, 0
3, 23619, Control_c, 0, 64, 127
3, 23940, Note_on_c, 0, 66, 0
3, 23940, Note_on_c, 0, 56, 0
3, 23940, Note_on_c, 0, 49, 42
3, 23970, Note_on_c, 0, 59, 43
3, 24000, Note_on_c, 0, 65, 54
3, 24016, Control_c, 0, 64, 0
3, 24127, Control_c, 0, 64, 127
3, 24480, Note_on_c, 0, 65, 0
3, 24480, Note_on_c, 0, 59, 0
3, 24480, Note_on_c, 0, 49, 0
3, 24480, Note_on_c, 0, 54, 54
3, 24480, Note_on_c, 0, 61, 54
3, 24480, Control_c, 0, 64, 0
3, 24586, Control_c, 0, 64, 127
3, 24730, Control_c, 0, 64, 0
3, 24773, Control_c, 0, 64, 127
3, 24957, Control_c, 0, 64, 0
3, 24960, Note_on_c, 0, 61, 0
3, 24960, Note_on_c, 0, 54, 0
3, 24960, Note_on_c, 0, 61, 49
3, 25020, Note_on_c, 0, 61, 0
3, 25211, Control_c, 0, 64, 127
3, 25334, Control_c, 0, 64, 0
3, 25440, Note_on_c, 0, 49, 49
3, 25500, Note_on_c, 0, 49, 0
3, 25719, Control_c, 0, 64, 127
3, 25793, Control_c, 0, 64, 0
3, 25920, Note_on_c, 0, 54, 51
3, 25955, Control_c, 0, 64, 127
3, 26040, Note_on_c, 0, 54, 0
3, 26400, Note_on_c, 0, 61, 49
3, 26402, Control_c, 0, 64, 0
3, 26460, Note_on_c, 0, 61, 0
3, 26689, Control_c, 0, 64, 127
3, 26816, Control_c, 0, 64, 0
3, 26880, Note_on_c, 0, 49, 49
3, 26940, Note_on_c, 0, 49, 0
3, 27148, Control_c, 0, 64, 127
3, 27261, Control_c, 0, 64, 0
3, 27360, Note_on_c, 0, 56, 51
3, 27411, Control_c, 0, 64, 127
3, 27480, Note_on_c, 0, 56, 0
3, 27840, Note_on_c, 0, 61, 51
3, 28190, Note_on_c, 0, 61, 0
3, 28320, Note_on_c, 0, 63, 55
3, 28550, Note_on_c, 0, 63, 0
3, 28800, Note_on_c, 0, 65, 58
3, 28807, Control_c, 0, 64, 0
3, 28889, Control_c, 0, 64, 127
3, 29030, Note_on_c, 0, 65, 0
3, 29280, Note_on_c, 0, 68, 61
3, 29760, Note_on_c, 0, 68, 0
3, 29760, Note_on_c, 0, 61, 58
3, 30110, Note_on_c, 0, 61, 0
3, 30240, Note_on_c, 0, 54, 51
3, 30245, Control_c, 0, 64, 0
3, 30328, Control_c, 0, 64, 127
3, 30360, Note_on_c, 0, 54, 0
3, 30720, Note_on_c, 0, 61, 49
3, 30731, Control_c, 0, 64, 0
3, 30780, Note_on_c, 0, 61, 0
3, 30995, Control_c, 0, 64, 127
3, 31154, Control_c, 0, 64, 0
3, 31200, Note_on_c, 0, 49, 49
3, 31260, Note_on_c, 0, 49, 0
3, 31472, Control_c, 0, 64, 127
3, 31595, Control_c, 0, 64, 0
3, 31680, Note_on_c, 0, 54, 51
3, 31719, Control_c, 0, 64, 127
3, 31800, Note_on_c, 0, 54, 0
3, 32160, Note_on_c, 0, 61, 49
3, 32164, Control_c, 0, 64, 0
3, 32220, Note_on_c, 0, 61, 0
3, 32421, Control_c, 0, 64, 127
3, 32584, Control_c, 0, 64, 0
3, 32640, Note_on_c, 0, 49, 49
3, 32700, Note_on_c, 0, 49, 0
3, 32905, Control_c, 0, 64, 127
3, 33049, Control_c, 0, 64, 0
3, 33120, Note_on_c, 0, 56, 51
3, 33189, Control_c, 0, 64, 127
3, 33240, Note_on_c, 0, 56, 0
3, 33600, Note_on_c, 0, 61, 51
3, 33950, Note_on_c, 0, 61, 0
3, 34080, Note_on_c, 0, 63, 55
3, 34310, Note_on_c, 0, 63, 0
3, 34560, Note_on_c, 0, 65, 58
3, 34569, Control_c, 0, 64, 0
3, 34623, Control_c, 0, 64, 127
3, 34790, Note_on_c, 0, 65, 0
3, 35040, Note_on_c, 0, 68, 61
3, 35520, Note_on_c, 0, 68, 0
3, 35520, Note_on_c, 0, 61, 58
3, 35750, Note_on_c, 0, 61, 0
3, 36000, Control_c, 0, 64, 0
3, 36000, Note_on_c, 0, 58, 54
3, 36000, Note_on_c, 0, 54, 54
3, 36120, Control_c, 0, 64, 127
3, 36360, Note_on_c, 0, 54, 0
3, 36360, Note_on_c, 0, 58, 0
3, 36360, Note_on_c, 0, 61, 50
3, 36480, Note_on_c, 0, 61, 0
3, 36480, Note_on_c, 0, 66, 50
3, 36501, Control_c, 0, 64, 0
3, 36600, Note_on_c, 0, 66, 0
3, 36720, Note_on_c, 0, 70, 54
3, 36840, Note_on_c, 0, 70, 0
3, 36960, Note_on_c, 0, 73, 56
3, 37080, Note_on_c, 0, 73, 0
3, 37200, Note_on_c, 0, 78, 54
3, 37320, Note_on_c, 0, 78, 0
3, 37440, Note_on_c, 0, 82, 63
3, 37560, Note_on_c, 0, 82, 0
3, 37853, Control_c, 0, 64, 127
3, 37860, Note_on_c, 0, 42, 58
3, 37890, Note_on_c, 0, 49, 61
3, 37920, Note_on_c, 0, 58, 70
3, 38280, Control_c, 0, 64, 0
3, 38400, Note_on_c, 0, 58, 0
3, 38400, Note_on_c, 0, 49, 0
3, 38400, Note_on_c, 0, 42, 0
3, 38880, Note_on_c, 0, 63, 49
3, 38912, Control_c, 0, 64, 127
3, 39120, Note_on_c, 0, 63, 0
3, 39120, Note_on_c, 0, 65, 50
3, 39360, Note_on_c, 0, 65, 0
3, 39360, Note_on_c, 0, 66, 51
3, 39372, Control_c, 0, 64, 0
3, 39438, Control_c, 0, 64, 127
3, 39840, Note_on_c, 0, 66, 0
3, 39840, Note_on_c, 0, 65, 49
3, 39854, Control_c, 0, 64, 0
3, 39925, Control_c, 0, 64, 127
3, 40080, Note_on_c, 0, 65, 0
3, 40080, Note_on_c, 0, 63, 46
3, 40216, Control_c, 0, 64, 0
3, 40253, Control_c, 0, 64, 127
3, 40320, Note_on_c, 0, 63, 0
3, 40320, Note_on_c, 0, 65, 51
3, 40338, Control_c, 0, 64, 0
3, 40475, Control_c, 0, 64, 127
3, 40800, Note_on_c, 0, 65, 0
3, 40800, Note_on_c, 0, 63, 49
3, 40817, Control_c, 0, 64, 0
3, 40956, Control_c, 0, 64, 127
3, 41040, Note_on_c, 0, 63, 0
3, 41040, Note_on_c, 0, 58, 46
3, 41280, Note_on_c, 0, 58, 0
3, 41280, Control_c, 0, 64, 0
3, 41280, Note_on_c, 0, 54, 42
3, 41464, Control_c, 0, 64, 127
3, 41760, Note_on_c, 0, 54, 0
3, 41760, Note_on_c, 0, 51, 55
3, 41760, Note_on_c, 0, 61, 55
3, 41760, Control_c, 0, 64, 0
3, 41763, Control_c, 0, 64, 0
3, 41909, Control_c, 0, 64, 127
3, 42240, Note_on_c, 0, 85, 58
3, 42257, Control_c, 0, 64, 0
3, 42446, Control_c, 0, 64, 127
3, 42720, Note_on_c, 0, 85, 0
3, 42720, Note_on_c, 0, 61, 0
3, 42720, Note_on_c, 0, 51, 0
3, 42720, Note_on_c, 0, 56, 39
3, 42720, Note_on_c, 0, 63, 49
3, 42729, Control_c, 0, 64, 0
3, 42847, Control_c, 0, 64, 127
3, 43200, Note_on_c, 0, 63, 0
3, 43200, Note_on_c, 0, 56, 0
3, 43200, Note_on_c, 0, 49, 53
3, 43200, Note_on_c, 0, 56, 53
3, 43206, Control_c, 0, 64, 0
3, 43285, Control_c, 0, 64, 127
3, 43451, Control_c, 0, 64, 0
3, 43493, Control_c, 0, 64, 127
3, 43680, Note_on_c, 0, 56, 0
3, 43680, Note_on_c, 0, 49, 0
3, 43680, Control_c, 0, 64, 0
3, 43680, Note_on_c, 0, 56, 49
3, 43740, Note_on_c, 0, 56, 0
3, 43931, Control_c, 0, 64, 127
3, 44054, Control_c, 0, 64, 0
3, 44160, Note_on_c, 0, 44, 49
3, 44220, Note_on_c, 0, 44, 0
3, 44439, Control_c, 0, 64, 127
3, 44513, Control_c, 0, 64, 0
3, 44640, Note_on_c, 0, 49, 51
3, 44668, Control_c, 0, 64, 127
3, 44760, Note_on_c, 0, 49, 0
3, 45088, Control_c, 0, 64, 0
3, 45120, Note_on_c, 0, 56, 49
3, 45180, Note_on_c, 0, 56, 0
3, 45409, Control_c, 0, 64, 127
3, 45536, Control_c, 0, 64, 0
3, 45600, Note_on_c, 0, 44, 49
3, 45660, Note_on_c, 0, 44, 0
3, 45868, Control_c, 0, 64, 127
3, 45981, Control_c, 0, 64, 0
3, 46080, Note_on_c, 0, 48, 51
3, 46117, Control_c, 0, 64, 127
3, 46200, Note_on_c, 0, 48, 0
3, 46560, Note_on_c, 0, 56, 51
3, 46680, Note_on_c, 0, 56, 0
3, 47040, Note_on_c, 0, 58, 55
3, 47160, Note_on_c, 0, 58, 0
3, 47520, Note_on_c, 0, 60, 58
3, 47523, Control_c, 0, 64, 0
3, 47591, Control_c, 0, 64, 127
3, 47640, Note_on_c, 0, 60, 0
3, 48000, Note_on_c, 0, 63, 61
3, 48120, Note_on_c, 0, 63, 0
3, 48480, Note_on_c, 0, 56, 58
3, 48600, Note_on_c, 0, 56, 0
3, 48960, Note_on_c, 0, 49, 51
3, 48964, Control_c, 0, 64, 0
3, 49080, Note_on_c, 0, 49, 0
3, 49080, Control_c, 0, 64, 127
3, 49440, Note_on_c, 0, 56, 49
3, 49451, Control_c, 0, 64, 0
3, 49500, Note_on_c, 0, 56, 0
3, 49719, Control_c, 0, 64, 127
3, 49920, Note_on_c, 0, 44, 49
3, 49938, Control_c, 0, 64, 0
3, 49980, Note_on_c, 0, 44, 0
3, 50192, Control_c, 0, 64, 127
3, 50315, Control_c, 0, 64, 0
3, 50400, Note_on_c, 0, 49, 51
3, 50439, Control_c, 0, 64, 127
3, 50520, Note_on_c, 0, 49, 0
3, 50880, Note_on_c, 0, 56, 49
3, 50884, Control_c, 0, 64, 0
3, 50940, Note_on_c, 0, 56, 0
3, 51155, Control_c, 0, 64, 127
3, 51360, Note_on_c, 0, 44, 49
3, 51364, Control_c, 0, 64, 0
3, 51420, Note_on_c, 0, 44, 0
3, 51632, Control_c, 0, 64, 127
3, 51769, Control_c, 0, 64, 0
3, 51840, Note_on_c, 0, 51, 51
3, 51890, Control_c, 0, 64, 127
3, 51960, Note_on_c, 0, 51, 0
3, 52320, Note_on_c, 0, 56, 51
3, 52440, Note_on_c, 0, 56, 0
3, 52800, Note_on_c, 0, 58, 55
3, 52920, Note_on_c, 0, 58, 0
3, 53280, Note_on_c, 0, 60, 58
3, 53305, Control_c, 0, 64, 0
3, 53332, Control_c, 0, 64, 127
3, 53400, Note_on_c, 0, 60, 0
3, 53760, Note_on_c, 0, 63, 61
3, 53880, Note_on_c, 0, 63, 0
3, 54240, Note_on_c, 0, 56, 58
3, 54360, Note_on_c, 0, 56, 0
3, 54720, Note_on_c, 0, 49, 54
3, 54720, Note_on_c, 0, 53, 54
3, 54720, Control_c, 0, 64, 0
3, 54840, Control_c, 0, 64, 127
3, 55080, Note_on_c, 0, 53, 0
3, 55080, Note_on_c, 0, 49, 0
3, 55080, Note_on_c, 0, 56, 50
3, 55200, Note_on_c, 0, 56, 0
3, 55200, Note_on_c, 0, 61, 50
3, 55221, Control_c, 0, 64, 0
3, 55320, Note_on_c, 0, 61, 0
3, 55440, Note_on_c, 0, 65, 54
3, 55560, Note_on_c, 0, 65, 0
3, 55680, Note_on_c, 0, 68, 56
3, 55800, Note_on_c, 0, 68, 0
3, 55920, Note_on_c, 0, 73, 54
3, 56040, Note_on_c, 0, 73, 0
3, 56100, Note_on_c, 0, 61, 56
3, 56130, Note_on_c, 0, 68, 56
3, 56160, Note_on_c, 0, 77, 63
3, 56192, Control_c, 0, 64, 127
3, 56400, Note_on_c, 0, 77, 0
3, 56400, Note_on_c, 0, 68, 0
3, 56400, Note_on_c, 0, 61, 0
3, 56404, Control_c, 0, 64, 0
3, 56640, Note_on_c, 0, 37, 58
3, 56640, Note_on_c, 0, 49, 70
3, 56718, Control_c, 0, 64, 127
3, 57120, Note_on_c, 0, 49, 0
3, 57120, Note_on_c, 0, 37, 0
3, 57131, Control_c, 0, 64, 0
3, 57600, Note_on_c, 0, 71, 49
3, 57664, Control_c, 0, 64, 127
3, 57840, Note_on_c, 0, 71, 0
3, 57840, Note_on_c, 0, 73, 50
3, 58080, Note_on_c, 0, 73, 0
3, 58080, Note_on_c, 0, 75, 51
3, 58098, Control_c, 0, 64, 0
3, 58183, Control_c, 0, 64, 127
3, 58560, Note_on_c, 0, 75, 0
3, 58560, Note_on_c, 0, 77, 49
3, 58579, Control_c, 0, 64, 0
3, 58670, Control_c, 0, 64, 127
3, 58800, Note_on_c, 0, 77, 0
3, 58800, Note_on_c, 0, 75, 46
3, 58934, Control_c, 0, 64, 0
3, 58969, Control_c, 0, 64, 127
3, 59040, Note_on_c, 0, 75, 0
3, 59040, Note_on_c, 0, 73, 51
3, 59057, Control_c, 0, 64, 0
3, 59195, Control_c, 0, 64, 127
3, 59520, Note_on_c, 0, 73, 0
3, 59520, Note_on_c, 0, 71, 49
3, 59542, Control_c, 0, 64, 0
3, 59661, Control_c, 0, 64, 127
3, 59760, Note_on_c, 0, 71, 0
3, 59760, Note_on_c, 0, 73, 46
3, 60000, Note_on_c, 0, 73, 0
3, 60000, Note_on_c, 0, 70, 42
3, 60014, Control_c, 0, 64, 0
3, 60198, Control_c, 0, 64, 127
3, 60480, Note_on_c, 0, 70, 0
3, 60480, Note_on_c, 0, 51, 43
3, 60480, Note_on_c, 0, 67, 43
3, 60480, Note_on_c, 0, 61, 43
3, 60491, Control_c, 0, 64, 0
3, 60536, Control_c, 0, 64, 127
3, 60720, Note_on_c, 0, 67, 0
3, 60720, Note_on_c, 0, 63, 39
3, 60960, Note_on_c, 0, 61, 0
3, 60960, Note_on_c, 0, 51, 0
3, 60960, Note_on_c, 0, 56, 44
3, 60960, Note_on_c, 0, 68, 44
3, 60973, Control_c, 0, 64, 0
3, 61108, Control_c, 0, 64, 127
3, 61380, Note_on_c, 0, 68, 0
3, 61380, Note_on_c, 0, 56, 0
3, 61380, Note_on_c, 0, 63, 0
3, 61380, Note_on_c, 0, 49, 35
3, 61410, Note_on_c, 0, 59, 36
3, 61440, Note_on_c, 0, 65, 45
3, 61459, Control_c, 0, 64, 0
3, 61567, Control_c, 0, 64, 127
3, 61920, Note_on_c, 0, 65, 0
3, 61920, Note_on_c, 0, 59, 0
3, 61920, Note_on_c, 0, 49, 0
3, 61920, Note_on_c, 0, 54, 45
3, 61920, Note_on_c, 0, 61, 45
3, 61925, Control_c, 0, 64, 0
3, 62001, Control_c, 0, 64, 127
3, 62164, Control_c, 0, 64, 0
3, 62206, Control_c, 0, 64, 127
3, 62270, Note_on_c, 0, 61, 0
3, 62400, Note_on_c, 0, 54, 0
3, 62400, Note_on_c, 0, 61, 49
3, 62404, Control_c, 0, 64, 0
3, 62460, Note_on_c, 0, 61, 0
3, 62651, Control_c, 0, 64, 127
3, 62774, Control_c, 0, 64, 0
3, 62880, Note_on_c, 0, 49, 49
3, 62940, Note_on_c, 0, 49, 0
3, 63159, Control_c, 0, 64, 127
3, 63233, Control_c, 0, 64, 0
3, 63360, Note_on_c, 0, 54, 51
3, 63424, Control_c, 0, 64, 127
3, 63480, Note_on_c, 0, 54, 0
3, 63840, Note_on_c, 0, 61, 49
3, 63854, Control_c, 0, 64, 0
3, 63900, Note_on_c, 0, 61, 0
3, 64129, Control_c, 0, 64, 127
3, 64256, Control_c, 0, 64, 0
3, 64320, Note_on_c, 0, 49, 49
3, 64380, Note_on_c, 0, 49, 0
3, 64588, Control_c, 0, 64, 127
3, 64701, Control_c, 0, 64, 0
3, 64800, Note_on_c, 0, 56, 51
3, 64844, Control_c, 0, 64, 127
3, 64920, Note_on_c, 0, 56, 0
3, 65280, Note_on_c, 0, 61, 51
3, 65630, Note_on_c, 0, 61, 0
3, 65760, Note_on_c, 0, 63, 55
3, 65990, Note_on_c, 0, 63, 0
3, 66240, Note_on_c, 0, 65, 58
3, 66247, Control_c, 0, 64, 0
3, 66316, Control_c, 0, 64, 127
3, 66470, Note_on_c, 0, 65, 0
3, 66720, Note_on_c, 0, 68, 61
3, 67200, Note_on_c, 0, 68, 0
3, 67200, Note_on_c, 0, 61, 58
3, 67550, Note_on_c, 0, 61, 0
3, 67611, Control_c, 0, 64, 0
3, 67680, Note_on_c, 0, 54, 51
3, 67751, Control_c, 0, 64, 127
3, 67800, Note_on_c, 0, 54, 0
3, 68160, Note_on_c, 0, 61, 49
3, 68174, Control_c, 0, 64, 0
3, 68220, Note_on_c, 0, 61, 0
3, 68428, Control_c, 0, 64, 127
3, 68594, Control_c, 0, 64, 0
3, 68640, Note_on_c, 0, 49, 49
3, 68700, Note_on_c, 0, 49, 0
3, 68912, Control_c, 0, 64, 127
3, 69035, Control_c, 0, 64, 0
3, 69120, Note_on_c, 0, 54, 51
3, 69169, Control_c, 0, 64, 127
3, 69240, Note_on_c, 0, 54, 0
3, 69600, Note_on_c, 0, 61, 49
3, 69606, Control_c, 0, 64, 0
3, 69660, Note_on_c, 0, 61, 0
3, 69889, Control_c, 0, 64, 127
3, 70024, Control_c, 0, 64, 0
3, 70080, Note_on_c, 0, 49, 49
3, 70140, Note_on_c, 0, 49, 0
3, 70362, Control_c, 0, 64, 127
3, 70489, Control_c, 0, 64, 0
3, 70560, Note_on_c, 0, 56, 51
3, 70604, Control_c, 0, 64, 127
3, 70680, Note_on_c, 0, 56, 0
3, 71040, Note_on_c, 0, 61, 51
3, 71390, Note_on_c, 0, 61, 0
3, 71520, Note_on_c, 0, 63, 55
3, 71750, Note_on_c, 0, 63, 0
3, 72000, Note_on_c, 0, 65, 58
3, 72016, Control_c, 0, 64, 0
3, 72095, Control_c, 0, 64, 127
3, 72230, Note_on_c, 0, 65, 0
3, 72480, Note_on_c, 0, 68, 61
3, 72960, Note_on_c, 0, 68, 0
3, 72960, Note_on_c, 0, 61, 58
3, 73310, Note_on_c, 0, 61, 0
3, 73440, Note_on_c, 0, 54, 54
3, 73440, Note_on_c, 0, 58, 54
3, 73443, Control_c, 0, 64, 0
3, 73560, Control_c, 0, 64, 127
3, 73800, Note_on_c, 0, 58, 0
3, 73800, Note_on_c, 0, 54, 0
3, 73800, Note_on_c, 0, 61, 50
3, 73920, Note_on_c, 0, 61, 0
3, 73920, Note_on_c, 0, 66, 50
3, 73941, Control_c, 0, 64, 0
3, 74040, Note_on_c, 0, 66, 0
3, 74160, Note_on_c, 0, 70, 54
3, 74280, Note_on_c, 0, 70, 0
3, 74400, Note_on_c, 0, 73, 56
3, 74520, Note_on_c, 0, 73, 0
3, 74640, Note_on_c, 0, 78, 54
3, 74760, Note_on_c, 0, 78, 0
3, 74880, Note_on_c, 0, 82, 63
3, 75000, Note_on_c, 0, 82, 0
3, 75300, Note_on_c, 0, 42, 58
3, 75330, Note_on_c, 0, 49, 61
3, 75360, Note_on_c, 0, 58, 70
3, 75392, Control_c, 0, 64, 127
3, 75840, Note_on_c, 0, 58, 0
3, 75840, Note_on_c, 0, 49, 0
3, 75840, Note_on_c, 0, 42, 0
3, 75844, Control_c, 0, 64, 0
3, 76320, Note_on_c, 0, 54, 32
3, 76320, Note_on_c, 0, 57, 40
3, 76440, Note_on_c, 0, 57, 0
3, 76440, Note_on_c, 0, 54, 0
3, 76560, Note_on_c, 0, 54, 28
3, 76560, Note_on_c, 0, 59, 35
3, 76680, Note_on_c, 0, 59, 0
3, 76680, Note_on_c, 0, 54, 0
3, 76800, Note_on_c, 0, 54, 36
3, 76800, Note_on_c, 0, 61, 45
3, 77280, Note_on_c, 0, 61, 0
3, 77280, Note_on_c, 0, 54, 0
3, 77280, Note_on_c, 0, 54, 32
3, 77280, Note_on_c, 0, 62, 40
3, 77400, Note_on_c, 0, 62, 0
3, 77400, Note_on_c, 0, 54, 0
3, 77520, Note_on_c, 0, 54, 28
3, 77520, Note_on_c, 0, 61, 35
3, 77640, Note_on_c, 0, 61, 0
3, 77640, Note_on_c, 0, 54, 0
3, 77760, Note_on_c, 0, 54, 41
3, 77760, Note_on_c, 0, 59, 41
3, 78240, Note_on_c, 0, 59, 0
3, 78240, Note_on_c, 0, 54, 0
3, 78240, Note_on_c, 0, 54, 42
3, 78240, Note_on_c, 0, 65, 53
3, 78297, Control_c, 0, 64, 127
3, 78720, Note_on_c, 0, 65, 0
3, 78720, Note_on_c, 0, 54, 0
3, 78720, Note_on_c, 0, 66, 50
3, 78720, Note_on_c, 0, 54, 40
3, 78746, Control_c, 0, 64, 0
3, 78880, Control_c, 0, 64, 127
3, 79200, Note_on_c, 0, 54, 0
3, 79200, Note_on_c, 0, 66, 0
3, 79200, Note_on_c, 0, 65, 53
3, 79200, Note_on_c, 0, 53, 42
3, 79207, Control_c, 0, 64, 0
3, 79337, Control_c, 0, 64, 127
3, 79440, Note_on_c, 0, 65, 0
3, 79440, Note_on_c, 0, 63, 49
3, 79680, Note_on_c, 0, 63, 0
3, 79680, Note_on_c, 0, 53, 0
3, 79680, Note_on_c, 0, 52, 40
3, 79680, Note_on_c, 0, 64, 50
3, 79690, Control_c, 0, 64, 0
3, 79840, Control_c, 0, 64, 127
3, 80160, Note_on_c, 0, 64, 0
3, 80160, Note_on_c, 0, 52, 0
3, 80160, Note_on_c, 0, 62, 45
3, 80160, Note_on_c, 0, 52, 36
3, 80171, Control_c, 0, 64, 0
3, 80343, Control_c, 0, 64, 127
3, 80640, Note_on_c, 0, 52, 0
3, 80640, Note_on_c, 0, 62, 0
3, 80640, Control_c, 0, 64, 0
3, 80640, Note_on_c, 0, 57, 56
3, 80725, Control_c, 0, 64, 127
3, 80880, Note_on_c, 0, 57, 0
3, 81120, Note_on_c, 0, 76, 57
3, 81131, Control_c, 0, 64, 0
3, 81360, Note_on_c, 0, 76, 0
3, 81371, Control_c, 0, 64, 127
3, 81494, Control_c, 0, 64, 0
3, 81600, Note_on_c, 0, 52, 53
3, 81879, Control_c, 0, 64, 127
3, 81953, Control_c, 0, 64, 0
3, 82080, Note_on_c, 0, 52, 0
3, 82080, Note_on_c, 0, 57, 32
3, 82080, Note_on_c, 0, 64, 40
3, 82200, Note_on_c, 0, 64, 0
3, 82200, Note_on_c, 0, 57, 0
3, 82320, Note_on_c, 0, 57, 28
3, 82320, Note_on_c, 0, 65, 35
3, 82440, Note_on_c, 0, 65, 0
3, 82440, Note_on_c, 0, 57, 0
3, 82560, Note_on_c, 0, 57, 36
3, 82560, Note_on_c, 0, 67, 45
3, 83040, Note_on_c, 0, 67, 0
3, 83040, Note_on_c, 0, 57, 0
3, 83040, Note_on_c, 0, 57, 32
3, 83040, Note_on_c, 0, 69, 40
3, 83160, Note_on_c, 0, 69, 0
3, 83160, Note_on_c, 0, 57, 0
3, 83280, Note_on_c, 0, 57, 28
3, 83280, Note_on_c, 0, 67, 35
3, 83400, Note_on_c, 0, 67, 0
3, 83400, Note_on_c, 0, 57, 0
3, 83520, Note_on_c, 0, 57, 31
3, 83520, Note_on_c, 0, 65, 39
3, 84000, Note_on_c, 0, 65, 0
3, 84000, Note_on_c, 0, 57, 0
3, 84000, Note_on_c, 0, 57, 36
3, 84000, Note_on_c, 0, 64, 45
3, 84120, Note_on_c, 0, 64, 0
3, 84120, Note_on_c, 0, 57, 0
3, 84240, Note_on_c, 0, 57, 31
3, 84240, Note_on_c, 0, 62, 39
3, 84360, Note_on_c, 0, 62, 0
3, 84360, Note_on_c, 0, 57, 0
3, 84480, Note_on_c, 0, 61, 44
3, 84480, Note_on_c, 0, 57, 35
3, 84617, Control_c, 0, 64, 127
3, 84960, Note_on_c, 0, 57, 0
3, 84960, Note_on_c, 0, 61, 0
3, 84960, Note_on_c, 0, 67, 45
3, 84966, Control_c, 0, 64, 0
3, 85097, Control_c, 0, 64, 127
3, 85200, Note_on_c, 0, 67, 0
3, 85200, Note_on_c, 0, 62, 48
3, 85440, Note_on_c, 0, 62, 0
3, 85440, Note_on_c, 0, 61, 53
3, 85456, Control_c, 0, 64, 0
3, 85600, Control_c, 0, 64, 127
3, 85920, Note_on_c, 0, 61, 0
3, 85920, Note_on_c, 0, 57, 49
3, 85931, Control_c, 0, 64, 0
3, 86103, Control_c, 0, 64, 127
3, 86400, Note_on_c, 0, 57, 0
3, 86400, Note_on_c, 0, 62, 70
3, 86410, Control_c, 0, 64, 0
3, 86485, Control_c, 0, 64, 127
3, 86640, Note_on_c, 0, 62, 0
3, 86880, Note_on_c, 0, 81, 69
3, 86894, Control_c, 0, 64, 0
3, 87120, Note_on_c, 0, 81, 0
3, 87131, Control_c, 0, 64, 127
3, 87254, Control_c, 0, 64, 0
3, 87360, Note_on_c, 0, 69, 66
3, 87639, Control_c, 0, 64, 127
3, 87713, Control_c, 0, 64, 0
3, 87840, Note_on_c, 0, 69, 0
3, 87840, Note_on_c, 0, 65, 40
3, 87960, Note_on_c, 0, 65, 0
3, 88080, Note_on_c, 0, 64, 35
3, 88200, Note_on_c, 0, 64, 0
3, 88320, Note_on_c, 0, 62, 45
3, 88800, Note_on_c, 0, 62, 0
3, 88800, Note_on_c, 0, 64, 40
3, 88920, Note_on_c, 0, 64, 0
3, 89040, Note_on_c, 0, 65, 35
3, 89160, Note_on_c, 0, 65, 0
3, 89280, Note_on_c, 0, 64, 39
3, 89760, Note_on_c, 0, 64, 0
3, 89760, Note_on_c, 0, 62, 45
3, 89874, Control_c, 0, 64, 127
3, 90000, Note_on_c, 0, 62, 0
3, 90000, Note_on_c, 0, 60, 39
3, 90240, Note_on_c, 0, 60, 0
3, 90240, Note_on_c, 0, 59, 44
3, 90260, Control_c, 0, 64, 0
3, 90423, Control_c, 0, 64, 127
3, 90720, Note_on_c, 0, 59, 0
3, 90720, Control_c, 0, 64, 0
3, 90720, Note_on_c, 0, 53, 45
3, 90720, Note_on_c, 0, 59, 45
3, 90890, Control_c, 0, 64, 127
3, 91200, Note_on_c, 0, 59, 0
3, 91200, Note_on_c, 0, 53, 0
3, 91200, Note_on_c, 0, 77, 59
3, 91209, Control_c, 0, 64, 0
3, 91360, Control_c, 0, 64, 127
3, 91680, Note_on_c, 0, 77, 0
3, 91680, Note_on_c, 0, 78, 55
3, 91698, Control_c, 0, 64, 0
3, 91920, Note_on_c, 0, 35, 60
3, 91920, Note_on_c, 0, 47, 60
3, 92033, Control_c, 0, 64, 127
3, 92160, Note_on_c, 0, 47, 0
3, 92160, Note_on_c, 0, 35, 0
3, 92160, Note_on_c, 0, 78, 0
3, 92160, Note_on_c, 0, 28, 70
3, 92160, Note_on_c, 0, 40, 70
3, 92165, Control_c, 0, 64, 0
3, 92245, Control_c, 0, 64, 127
3, 92400, Note_on_c, 0, 40, 0
3, 92400, Note_on_c, 0, 28, 0
3, 92640, Note_on_c, 0, 71, 70
3, 92654, Control_c, 0, 64, 0
3, 92880, Note_on_c, 0, 71, 0
3, 92891, Control_c, 0, 64, 127
3, 93014, Control_c, 0, 64, 0
3, 93120, Note_on_c, 0, 47, 66
3, 93399, Control_c, 0, 64, 127
3, 93473, Control_c, 0, 64, 0
3, 93600, Note_on_c, 0, 47, 0
3, 93600, Note_on_c, 0, 45, 66
3, 93600, Note_on_c, 0, 52, 66
3, 93672, Control_c, 0, 64, 127
3, 94080, Note_on_c, 0, 52, 0
3, 94080, Note_on_c, 0, 45, 0
3, 94080, Note_on_c, 0, 62, 58
3, 94097, Control_c, 0, 64, 0
3, 94210, Control_c, 0, 64, 127
3, 94320, Note_on_c, 0, 62, 0
3, 94560, Note_on_c, 0, 40, 59
3, 94576, Control_c, 0, 64, 0
3, 94709, Control_c, 0, 64, 127
3, 94800, Note_on_c, 0, 40, 0
3, 95040, Note_on_c, 0, 45, 56
3, 95040, Note_on_c, 0, 52, 56
3, 95040, Note_on_c, 0, 61, 56
3, 95050, Control_c, 0, 64, 0
3, 95153, Control_c, 0, 64, 127
3, 95280, Note_on_c, 0, 61, 0
3, 95280, Note_on_c, 0, 52, 0
3, 95280, Note_on_c, 0, 45, 0
3, 95280, Note_on_c, 0, 63, 51
3, 95400, Note_on_c, 0, 63, 0
3, 95428, Control_c, 0, 64, 0
3, 95520, Note_on_c, 0, 64, 55
3, 95640, Note_on_c, 0, 64, 0
3, 95760, Note_on_c, 0, 69, 58
3, 95880, Note_on_c, 0, 69, 0
3, 96000, Note_on_c, 0, 73, 62
3, 96120, Note_on_c, 0, 73, 0
3, 96240, Note_on_c, 0, 76, 65
3, 96360, Note_on_c, 0, 76, 0
3, 96480, Note_on_c, 0, 66, 69
3, 96480, Note_on_c, 0, 73, 69
3, 96678, Control_c, 0, 64, 127
3, 96720, Note_on_c, 0, 73, 0
3, 96720, Note_on_c, 0, 66, 0
3, 96960, Note_on_c, 0, 78, 60
3, 97440, Note_on_c, 0, 78, 0
3, 97440, Note_on_c, 0, 59, 59
3, 97440, Note_on_c, 0, 63, 63
3, 97455, Control_c, 0, 64, 0
3, 97596, Control_c, 0, 64, 127
3, 97680, Note_on_c, 0, 59, 0
3, 97680, Note_on_c, 0, 47, 53
3, 97920, Note_on_c, 0, 47, 0
3, 97920, Note_on_c, 0, 63, 0
3, 97920, Note_on_c, 0, 52, 63
3, 97934, Control_c, 0, 64, 0
3, 98075, Control_c, 0, 64, 127
3, 98160, Note_on_c, 0, 52, 0
3, 98400, Note_on_c, 0, 40, 69
3, 98640, Note_on_c, 0, 40, 0
3, 98711, Control_c, 0, 64, 0
3, 99360, Control_c, 0, 64, 127
3, 99360, Note_on_c, 0, 48, 51
3, 99480, Note_on_c, 0, 48, 0
3, 99840, Note_on_c, 0, 55, 49
3, 99851, Control_c, 0, 64, 0
3, 99900, Note_on_c, 0, 55, 0
3, 100091, Control_c, 0, 64, 127
3, 100320, Note_on_c, 0, 43, 49
3, 100334, Control_c, 0, 64, 0
3, 100380, Note_on_c, 0, 43, 0
3, 100599, Control_c, 0, 64, 127
3, 100673, Control_c, 0, 64, 0
3, 100800, Note_on_c, 0, 48, 51
3, 100860, Control_c, 0, 64, 127
3, 100920, Note_on_c, 0, 48, 0
3, 101280, Note_on_c, 0, 55, 49
3, 101283, Control_c, 0, 64, 0
3, 101340, Note_on_c, 0, 55, 0
3, 101569, Control_c, 0, 64, 127
3, 101696, Control_c, 0, 64, 0
3, 101760, Note_on_c, 0, 43, 49
3, 101820, Note_on_c, 0, 43, 0
3, 102028, Control_c, 0, 64, 127
3, 102141, Control_c, 0, 64, 0
3, 102240, Note_on_c, 0, 50, 51
3, 102316, Control_c, 0, 64, 127
3, 102360, Note_on_c, 0, 50, 0
3, 102720, Note_on_c, 0, 55, 51
3, 103070, Note_on_c, 0, 55, 0
3, 103200, Note_on_c, 0, 57, 55
3, 103680, Note_on_c, 0, 57, 0
3, 103680, Note_on_c, 0, 59, 58
3, 103697, Control_c, 0, 64, 0
3, 103851, Control_c, 0, 64, 127
3, 103910, Note_on_c, 0, 59, 0
3, 104160, Note_on_c, 0, 62, 59
3, 104640, Note_on_c, 0, 62, 0
3, 104640, Note_on_c, 0, 55, 58
3, 104890, Note_on_c, 0, 55, 0
3, 105120, Control_c, 0, 64, 0
3, 105120, Note_on_c, 0, 48, 43
3, 105222, Control_c, 0, 64, 127
3, 105240, Note_on_c, 0, 48, 0
3, 105600, Note_on_c, 0, 55, 41
3, 105611, Control_c, 0, 64, 0
3, 105660, Note_on_c, 0, 55, 0
3, 105851, Control_c, 0, 64, 127
3, 105974, Control_c, 0, 64, 0
3, 106080, Note_on_c, 0, 43, 41
3, 106140, Note_on_c, 0, 43, 0
3, 106359, Control_c, 0, 64, 127
3, 106433, Control_c, 0, 64, 0
3, 106560, Note_on_c, 0, 48, 43
3, 106599, Control_c, 0, 64, 127
3, 106680, Note_on_c, 0, 48, 0
3, 107040, Note_on_c, 0, 55, 41
3, 107058, Control_c, 0, 64, 0
3, 107100, Note_on_c, 0, 55, 0
3, 107329, Control_c, 0, 64, 127
3, 107456, Control_c, 0, 64, 0
3, 107520, Note_on_c, 0, 43, 41
3, 107580, Note_on_c, 0, 43, 0
3, 107788, Control_c, 0, 64, 127
3, 107901, Control_c, 0, 64, 0
3, 108000, Note_on_c, 0, 50, 43
3, 108057, Control_c, 0, 64, 127
3, 108120, Note_on_c, 0, 50, 0
3, 108480, Note_on_c, 0, 55, 43
3, 108830, Note_on_c, 0, 55, 0
3, 108960, Note_on_c, 0, 57, 46
3, 109190, Note_on_c, 0, 57, 0
3, 109440, Note_on_c, 0, 59, 49
3, 109464, Control_c, 0, 64, 0
3, 109573, Control_c, 0, 64, 127
3, 109670, Note_on_c, 0, 59, 0
3, 109920, Note_on_c, 0, 62, 50
3, 110400, Note_on_c, 0, 62, 0
3, 110400, Note_on_c, 0, 55, 49
3, 110750, Note_on_c, 0, 55, 0
3, 110880, Control_c, 0, 64, 0
3, 110880, Note_on_c, 0, 64, 44
3, 111000, Note_on_c, 0, 64, 0
3, 111120, Note_on_c, 0, 67, 45
3, 111240, Note_on_c, 0, 67, 0
3, 111360, Note_on_c, 0, 72, 45
3, 111395, Control_c, 0, 64, 127
3, 111480, Note_on_c, 0, 72, 0
3, 111600, Note_on_c, 0, 71, 43
3, 111720, Note_on_c, 0, 71, 0
3, 111840, Note_on_c, 0, 70, 44
3, 111854, Control_c, 0, 64, 0
3, 111960, Note_on_c, 0, 70, 0
3, 112080, Note_on_c, 0, 69, 41
3, 112200, Note_on_c, 0, 69, 0
3, 112249, Control_c, 0, 64, 127
3, 112320, Note_on_c, 0, 68, 45
3, 112327, Control_c, 0, 64, 0
3, 112376, Control_c, 0, 64, 127
3, 112440, Note_on_c, 0, 68, 0
3, 112560, Note_on_c, 0, 66, 42
3, 112680, Note_on_c, 0, 66, 0
3, 112800, Note_on_c, 0, 67, 44
3, 112817, Control_c, 0, 64, 0
3, 112920, Note_on_c, 0, 67, 0
3, 113040, Note_on_c, 0, 64, 41
3, 113160, Note_on_c, 0, 64, 0
3, 113280, Note_on_c, 0, 60, 37
3, 113360, Control_c, 0, 64, 127
3, 113400, Note_on_c, 0, 60, 0
3, 113520, Note_on_c, 0, 58, 37
3, 113760, Note_on_c, 0, 58, 0
3, 113760, Note_on_c, 0, 57, 34
3, 113776, Control_c, 0, 64, 0
3, 113897, Control_c, 0, 64, 127
3, 114000, Note_on_c, 0, 57, 0
3, 114000, Note_on_c, 0, 66, 36
3, 114240, Note_on_c, 0, 66, 0
3, 114240, Note_on_c, 0, 67, 37
3, 114250, Control_c, 0, 64, 0
3, 114377, Control_c, 0, 64, 127
3, 114480, Note_on_c, 0, 67, 0
3, 114480, Note_on_c, 0, 62, 39
3, 114720, Note_on_c, 0, 62, 0
3, 114720, Note_on_c, 0, 61, 41
3, 114730, Control_c, 0, 64, 0
3, 114857, Control_c, 0, 64, 127
3, 114960, Note_on_c, 0, 61, 0
3, 114960, Note_on_c, 0, 57, 43
3, 115200, Note_on_c, 0, 57, 0
3, 115200, Note_on_c, 0, 62, 45
3, 115210, Control_c, 0, 64, 0
3, 115326, Control_c, 0, 64, 127
3, 115440, Note_on_c, 0, 72, 42
3, 115680, Note_on_c, 0, 72, 0
3, 115680, Note_on_c, 0, 71, 44
3, 115694, Control_c, 0, 64, 0
3, 115794, Control_c, 0, 64, 127
3, 115920, Note_on_c, 0, 71, 0
3, 115920, Note_on_c, 0, 70, 45
3, 116160, Note_on_c, 0, 70, 0
3, 116160, Note_on_c, 0, 69, 47
3, 116177, Control_c, 0, 64, 0
3, 116309, Control_c, 0, 64, 127
3, 116400, Note_on_c, 0, 62, 0
3, 116400, Note_on_c, 0, 57, 37
3, 116640, Note_on_c, 0, 57, 0
3, 116640, Note_on_c, 0, 69, 0
3, 116640, Control_c, 0, 64, 0
3, 116640, Note_on_c, 0, 65, 48
3, 116760, Note_on_c, 0, 65, 0
3, 116880, Note_on_c, 0, 69, 49
3, 117000, Note_on_c, 0, 69, 0
3, 117120, Note_on_c, 0, 74, 49
3, 117155, Control_c, 0, 64, 127
3, 117240, Note_on_c, 0, 74, 0
3, 117360, Note_on_c, 0, 73, 47
3, 117480, Note_on_c, 0, 73, 0
3, 117600, Note_on_c, 0, 72, 48
3, 117611, Control_c, 0, 64, 0
3, 117720, Note_on_c, 0, 72, 0
3, 117840, Note_on_c, 0, 71, 45
3, 117960, Note_on_c, 0, 71, 0
3, 117985, Control_c, 0, 64, 127
3, 118080, Note_on_c, 0, 70, 49
3, 118097, Control_c, 0, 64, 0
3, 118136, Control_c, 0, 64, 127
3, 118200, Note_on_c, 0, 70, 0
3, 118320, Note_on_c, 0, 68, 46
3, 118440, Note_on_c, 0, 68, 0
3, 118560, Note_on_c, 0, 69, 48
3, 118572, Control_c, 0, 64, 0
3, 118680, Note_on_c, 0, 69, 0
3, 118800, Note_on_c, 0, 65, 45
3, 118920, Note_on_c, 0, 65, 0
3, 119040, Note_on_c, 0, 62, 40
3, 119120, Control_c, 0, 64, 127
3, 119160, Note_on_c, 0, 62, 0
3, 119280, Note_on_c, 0, 60, 40
3, 119520, Note_on_c, 0, 60, 0
3, 119520, Note_on_c, 0, 59, 34
3, 119524, Control_c, 0, 64, 0
3, 119623, Control_c, 0, 64, 127
3, 119760, Note_on_c, 0, 67, 36
3, 120000, Note_on_c, 0, 67, 0
3, 120000, Note_on_c, 0, 69, 37
3, 120009, Control_c, 0, 64, 0
3, 120126, Control_c, 0, 64, 127
3, 120240, Note_on_c, 0, 69, 0
3, 120240, Note_on_c, 0, 64, 39
3, 120480, Note_on_c, 0, 64, 0
3, 120480, Note_on_c, 0, 63, 41
3, 120500, Control_c, 0, 64, 0
3, 120640, Control_c, 0, 64, 127
3, 120720, Note_on_c, 0, 63, 0
3, 120720, Note_on_c, 0, 59, 0
3, 120720, Note_on_c, 0, 59, 43
3, 120960, Note_on_c, 0, 59, 0
3, 120960, Note_on_c, 0, 64, 45
3, 120975, Control_c, 0, 64, 0
3, 121086, Control_c, 0, 64, 127
3, 121200, Note_on_c, 0, 69, 42
3, 121440, Note_on_c, 0, 69, 0
3, 121440, Note_on_c, 0, 67, 44
3, 121454, Control_c, 0, 64, 0
3, 121554, Control_c, 0, 64, 127
3, 121680, Note_on_c, 0, 67, 0
3, 121680, Note_on_c, 0, 72, 45
3, 121920, Note_on_c, 0, 72, 0
3, 121920, Note_on_c, 0, 71, 47
3, 121937, Control_c, 0, 64, 0
3, 122069, Control_c, 0, 64, 127
3, 122160, Note_on_c, 0, 64, 0
3, 122160, Note_on_c, 0, 59, 37
3, 122400, Note_on_c, 0, 59, 0
3, 122400, Note_on_c, 0, 71, 0
3, 122400, Note_on_c, 0, 67, 48
3, 122404, Control_c, 0, 64, 0
3, 122520, Note_on_c, 0, 67, 0
3, 122640, Note_on_c, 0, 71, 49
3, 122760, Note_on_c, 0, 71, 0
3, 122880, Note_on_c, 0, 76, 49
3, 122915, Control_c, 0, 64, 127
3, 123000, Note_on_c, 0, 76, 0
3, 123120, Note_on_c, 0, 75, 47
3, 123240, Note_on_c, 0, 75, 0
3, 123360, Note_on_c, 0, 74, 48
3, 123371, Control_c, 0, 64, 0
3, 123480, Note_on_c, 0, 74, 0
3, 123600, Note_on_c, 0, 73, 45
3, 123720, Note_on_c, 0, 73, 0
3, 123755, Control_c, 0, 64, 127
3, 123840, Note_on_c, 0, 72, 49
3, 123860, Control_c, 0, 64, 0
3, 123896, Control_c, 0, 64, 127
3, 123960, Note_on_c, 0, 72, 0
3, 124080, Note_on_c, 0, 70, 46
3, 124200, Note_on_c, 0, 70, 0
3, 124320, Note_on_c, 0, 71, 48
3, 124332, Control_c, 0, 64, 0
3, 124440, Note_on_c, 0, 71, 0
3, 124560, Note_on_c, 0, 67, 45
3, 124680, Note_on_c, 0, 67, 0
3, 124800, Note_on_c, 0, 64, 40
3, 124834, Control_c, 0, 64, 127
3, 124920, Note_on_c, 0, 64, 0
3, 125040, Note_on_c, 0, 59, 40
3, 125160, Note_on_c, 0, 59, 0
3, 125280, Note_on_c, 0, 70, 52
3, 125291, Control_c, 0, 64, 0
3, 125400, Note_on_c, 0, 70, 0
3, 125520, Note_on_c, 0, 74, 53
3, 125640, Note_on_c, 0, 74, 0
3, 125760, Note_on_c, 0, 79, 53
3, 125795, Control_c, 0, 64, 127
3, 125880, Note_on_c, 0, 79, 0
3, 126000, Note_on_c, 0, 78, 51
3, 126120, Note_on_c, 0, 78, 0
3, 126240, Note_on_c, 0, 77, 52
3, 126254, Control_c, 0, 64, 0
3, 126360, Note_on_c, 0, 77, 0
3, 126480, Note_on_c, 0, 76, 49
3, 126600, Note_on_c, 0, 76, 0
3, 126618, Control_c, 0, 64, 127
3, 126720, Note_on_c, 0, 75, 53
3, 126731, Control_c, 0, 64, 0
3, 126776, Control_c, 0, 64, 127
3, 126840, Note_on_c, 0, 75, 0
3, 126960, Note_on_c, 0, 73, 50
3, 127080, Note_on_c, 0, 73, 0
3, 127200, Note_on_c, 0, 74, 52
3, 127212, Control_c, 0, 64, 0
3, 127320, Note_on_c, 0, 74, 0
3, 127440, Note_on_c, 0, 70, 49
3, 127560, Note_on_c, 0, 70, 0
3, 127680, Note_on_c, 0, 67, 44
3, 127800, Note_on_c, 0, 67, 0
3, 127800, Control_c, 0, 64, 127
3, 127920, Note_on_c, 0, 62, 44
3, 128040, Note_on_c, 0, 62, 0
3, 128160, Control_c, 0, 64, 0
3, 128160, Note_on_c, 0, 79, 57
3, 128246, Control_c, 0, 64, 127
3, 128280, Note_on_c, 0, 79, 0
3, 128400, Note_on_c, 0, 81, 58
3, 128520, Note_on_c, 0, 81, 0
3, 128640, Note_on_c, 0, 82, 58
3, 128658, Control_c, 0, 64, 0
3, 128720, Control_c, 0, 64, 127
3, 128760, Note_on_c, 0, 82, 0
3, 128880, Note_on_c, 0, 84, 56
3, 129000, Note_on_c, 0, 84, 0
3, 129120, Note_on_c, 0, 82, 57
3, 129134, Control_c, 0, 64, 0
3, 129229, Control_c, 0, 64, 127
3, 129240, Note_on_c, 0, 82, 0
3, 129360, Note_on_c, 0, 81, 53
3, 129480, Note_on_c, 0, 81, 0
3, 129600, Note_on_c, 0, 80, 58
3, 129609, Control_c, 0, 64, 0
3, 129656, Control_c, 0, 64, 127
3, 129720, Note_on_c, 0, 80, 0
3, 129840, Note_on_c, 0, 79, 55
3, 129960, Note_on_c, 0, 79, 0
3, 130080, Note_on_c, 0, 76, 57
3, 130096, Control_c, 0, 64, 0
3, 130200, Note_on_c, 0, 76, 0
3, 130206, Control_c, 0, 64, 127
3, 130320, Note_on_c, 0, 73, 53
3, 130440, Note_on_c, 0, 73, 0
3, 130560, Note_on_c, 0, 70, 48
3, 130577, Control_c, 0, 64, 0
3, 130680, Note_on_c, 0, 70, 0
3, 130680, Control_c, 0, 64, 127
3, 130800, Note_on_c, 0, 67, 48
3, 130920, Note_on_c, 0, 67, 0
3, 131040, Control_c, 0, 64, 0
3, 131040, Note_on_c, 0, 73, 58
3, 131096, Control_c, 0, 64, 127
3, 131160, Note_on_c, 0, 73, 0
3, 131280, Note_on_c, 0, 70, 55
3, 131400, Note_on_c, 0, 70, 0
3, 131520, Note_on_c, 0, 67, 54
3, 131536, Control_c, 0, 64, 0
3, 131640, Note_on_c, 0, 67, 0
3, 131646, Control_c, 0, 64, 127
3, 131760, Note_on_c, 0, 64, 53
3, 131880, Note_on_c, 0, 64, 0
3, 132000, Note_on_c, 0, 61, 48
3, 132017, Control_c, 0, 64, 0
3, 132120, Note_on_c, 0, 61, 0
3, 132120, Control_c, 0, 64, 127
3, 132240, Note_on_c, 0, 58, 48
3, 132360, Note_on_c, 0, 58, 0
3, 132480, Note_on_c, 0, 67, 52
3, 132490, Control_c, 0, 64, 0
3, 132536, Control_c, 0, 64, 127
3, 132600, Note_on_c, 0, 67, 0
3, 132720, Note_on_c, 0, 64, 49
3, 132840, Note_on_c, 0, 64, 0
3, 132960, Note_on_c, 0, 61, 48
3, 132976, Control_c, 0, 64, 0
3, 133080, Note_on_c, 0, 61, 0
3, 133086, Control_c, 0, 64, 127
3, 133200, Note_on_c, 0, 58, 47
3, 133320, Note_on_c, 0, 58, 0
3, 133440, Note_on_c, 0, 55, 43
3, 133457, Control_c, 0, 64, 0
3, 133560, Control_c, 0, 64, 127
3, 133680, Note_on_c, 0, 55, 0
3, 133680, Note_on_c, 0, 52, 43
3, 133920, Note_on_c, 0, 52, 0
3, 133920, Note_on_c, 0, 35, 44
3, 133931, Control_c, 0, 64, 0
3, 134057, Control_c, 0, 64, 127
3, 134160, Note_on_c, 0, 35, 0
3, 134160, Note_on_c, 0, 42, 45
3, 134400, Note_on_c, 0, 42, 0
3, 134400, Note_on_c, 0, 43, 45
3, 134415, Control_c, 0, 64, 0
3, 134549, Control_c, 0, 64, 127
3, 134640, Note_on_c, 0, 43, 0
3, 134640, Note_on_c, 0, 42, 43
3, 134880, Note_on_c, 0, 42, 0
3, 134880, Note_on_c, 0, 47, 44
3, 134897, Control_c, 0, 64, 0
3, 135075, Control_c, 0, 64, 127
3, 135120, Note_on_c, 0, 47, 0
3, 135120, Note_on_c, 0, 51, 41
3, 135360, Note_on_c, 0, 51, 0
3, 135360, Note_on_c, 0, 52, 45
3, 135375, Control_c, 0, 64, 0
3, 135452, Control_c, 0, 64, 127
3, 135600, Note_on_c, 0, 52, 0
3, 135600, Note_on_c, 0, 54, 39
3, 135840, Note_on_c, 0, 54, 0
3, 135840, Note_on_c, 0, 55, 44
3, 135852, Control_c, 0, 64, 0
3, 135966, Control_c, 0, 64, 127
3, 136080, Note_on_c, 0, 55, 0
3, 136080, Note_on_c, 0, 52, 41
3, 136320, Note_on_c, 0, 52, 0
3, 136320, Note_on_c, 0, 58, 37
3, 136336, Control_c, 0, 64, 0
3, 136469, Control_c, 0, 64, 127
3, 136560, Note_on_c, 0, 58, 0
3, 136560, Note_on_c, 0, 59, 37
3, 136800, Note_on_c, 0, 59, 0
3, 136800, Note_on_c, 0, 35, 46
3, 136804, Control_c, 0, 64, 0
3, 136920, Control_c, 0, 64, 127
3, 137040, Note_on_c, 0, 35, 0
3, 137040, Note_on_c, 0, 42, 47
3, 137280, Note_on_c, 0, 42, 0
3, 137280, Note_on_c, 0, 43, 47
3, 137295, Control_c, 0, 64, 0
3, 137417, Control_c, 0, 64, 127
3, 137520, Note_on_c, 0, 43, 0
3, 137520, Note_on_c, 0, 42, 45
3, 137760, Note_on_c, 0, 42, 0
3, 137760, Note_on_c, 0, 47, 46
3, 137776, Control_c, 0, 64, 0
3, 137932, Control_c, 0, 64, 127
3, 138000, Note_on_c, 0, 47, 0
3, 138000, Note_on_c, 0, 51, 43
3, 138240, Note_on_c, 0, 51, 0
3, 138240, Note_on_c, 0, 52, 47
3, 138247, Control_c, 0, 64, 0
3, 138366, Control_c, 0, 64, 127
3, 138480, Note_on_c, 0, 52, 0
3, 138480, Note_on_c, 0, 54, 38
3, 138720, Note_on_c, 0, 54, 0
3, 138720, Note_on_c, 0, 55, 47
3, 138732, Control_c, 0, 64, 0
3, 138869, Control_c, 0, 64, 127
3, 138960, Note_on_c, 0, 55, 0
3, 138960, Note_on_c, 0, 52, 45
3, 139200, Note_on_c, 0, 52, 0
3, 139200, Note_on_c, 0, 58, 40
3, 139216, Control_c, 0, 64, 0
3, 139349, Control_c, 0, 64, 127
3, 139440, Note_on_c, 0, 58, 0
3, 139440, Note_on_c, 0, 59, 40
3, 139680, Note_on_c, 0, 59, 0
3, 139680, Note_on_c, 0, 35, 54
3, 139686, Control_c, 0, 64, 0
3, 139800, Control_c, 0, 64, 127
3, 139920, Note_on_c, 0, 35, 0
3, 139920, Note_on_c, 0, 42, 56
3, 140160, Note_on_c, 0, 42, 0
3, 140160, Note_on_c, 0, 43, 56
3, 140176, Control_c, 0, 64, 0
3, 140286, Control_c, 0, 64, 127
3, 140400, Note_on_c, 0, 43, 0
3, 140400, Note_on_c, 0, 42, 53
3, 140640, Note_on_c, 0, 42, 0
3, 140640, Note_on_c, 0, 47, 54
3, 140655, Control_c, 0, 64, 0
3, 140766, Control_c, 0, 64, 127
3, 140880, Note_on_c, 0, 47, 0
3, 140880, Note_on_c, 0, 51, 51
3, 141120, Note_on_c, 0, 51, 0
3, 141120, Note_on_c, 0, 48, 56
3, 141128, Control_c, 0, 64, 0
3, 141240, Control_c, 0, 64, 127
3, 141360, Note_on_c, 0, 48, 0
3, 141360, Note_on_c, 0, 56, 58
3, 141600, Note_on_c, 0, 56, 0
3, 141600, Note_on_c, 0, 57, 58
3, 141617, Control_c, 0, 64, 0
3, 141671, Control_c, 0, 64, 127
3, 141840, Note_on_c, 0, 57, 0
3, 141840, Note_on_c, 0, 60, 55
3, 142080, Note_on_c, 0, 60, 0
3, 142080, Note_on_c, 0, 63, 56
3, 142096, Control_c, 0, 64, 0
3, 142200, Control_c, 0, 64, 127
3, 142320, Note_on_c, 0, 63, 0
3, 142320, Note_on_c, 0, 66, 53
3, 142560, Note_on_c, 0, 66, 0
3, 142560, Note_on_c, 0, 49, 55
3, 142565, Control_c, 0, 64, 0
3, 142657, Control_c, 0, 64, 127
3, 142800, Note_on_c, 0, 49, 0
3, 143040, Note_on_c, 0, 66, 51
3, 143040, Note_on_c, 0, 58, 51
3, 143040, Note_on_c, 0, 61, 51
3, 143058, Control_c, 0, 64, 0
3, 143109, Control_c, 0, 64, 127
3, 143280, Note_on_c, 0, 61, 0
3, 143280, Note_on_c, 0, 58, 0
3, 143280, Note_on_c, 0, 66, 0
3, 143520, Note_on_c, 0, 49, 54
3, 143542, Control_c, 0, 64, 0
3, 143589, Control_c, 0, 64, 127
3, 143760, Note_on_c, 0, 49, 0
3, 144000, Note_on_c, 0, 37, 61
3, 144011, Control_c, 0, 64, 0
3, 144052, Control_c, 0, 64, 127
3, 144240, Note_on_c, 0, 37, 0
3, 144480, Note_on_c, 0, 71, 47
3, 144480, Note_on_c, 0, 65, 42
3, 144480, Note_on_c, 0, 61, 40
3, 144496, Control_c, 0, 64, 0
3, 144594, Control_c, 0, 64, 127
3, 144720, Note_on_c, 0, 61, 0
3, 144720, Note_on_c, 0, 65, 0
3, 144720, Note_on_c, 0, 71, 0
3, 144960, Note_on_c, 0, 37, 61
3, 144960, Note_on_c, 0, 49, 61
3, 144976, Control_c, 0, 64, 0
3, 145044, Control_c, 0, 64, 127
3, 145440, Note_on_c, 0, 49, 0
3, 145440, Note_on_c, 0, 37, 0
3, 145440, Note_on_c, 0, 42, 70
3, 145447, Control_c, 0, 64, 0
3, 145521, Control_c, 0, 64, 127
3, 145680, Note_on_c, 0, 42, 0
3, 145680, Note_on_c, 0, 49, 63
3, 145680, Note_on_c, 0, 58, 75
3, 145691, Control_c, 0, 64, 0
3, 145772, Control_c, 0, 64, 127
3, 146160, Note_on_c, 0, 58, 0
3, 146160, Note_on_c, 0, 49, 0
3, 146160, Note_on_c, 0, 49, 57
3, 146160, Note_on_c, 0, 58, 68
3, 146400, Note_on_c, 0, 58, 0
3, 146400, Note_on_c, 0, 49, 0
3, 146400, Note_on_c, 0, 42, 70
3, 146421, Control_c, 0, 64, 0
3, 146480, Control_c, 0, 64, 127
3, 146640, Note_on_c, 0, 42, 0
3, 146640, Note_on_c, 0, 49, 55
3, 146640, Note_on_c, 0, 58, 65
3, 146880, Note_on_c, 0, 58, 0
3, 146880, Note_on_c, 0, 49, 0
3, 146880, Note_on_c, 0, 42, 72
3, 146889, Control_c, 0, 64, 0
3, 146949, Control_c, 0, 64, 127
3, 147120, Note_on_c, 0, 42, 0
3, 147120, Note_on_c, 0, 50, 54
3, 147120, Note_on_c, 0, 59, 63
3, 147600, Note_on_c, 0, 59, 0
3, 147600, Note_on_c, 0, 50, 0
3, 147600, Note_on_c, 0, 50, 55
3, 147600, Note_on_c, 0, 59, 65
3, 147840, Note_on_c, 0, 59, 0
3, 147840, Note_on_c, 0, 50, 0
3, 147840, Note_on_c, 0, 42, 59
3, 148080, Note_on_c, 0, 42, 0
3, 148080, Note_on_c, 0, 50, 50
3, 148080, Note_on_c, 0, 59, 59
3, 148320, Note_on_c, 0, 59, 0
3, 148320, Note_on_c, 0, 50, 0
3, 148320, Note_on_c, 0, 42, 63
3, 148326, Control_c, 0, 64, 0
3, 148447, Control_c, 0, 64, 127
3, 148560, Note_on_c, 0, 42, 0
3, 148560, Note_on_c, 0, 49, 56
3, 148560, Note_on_c, 0, 58, 67
3, 149040, Note_on_c, 0, 58, 0
3, 149040, Note_on_c, 0, 49, 0
3, 149040, Note_on_c, 0, 49, 51
3, 149040, Note_on_c, 0, 58, 61
3, 149280, Note_on_c, 0, 58, 0
3, 149280, Note_on_c, 0, 49, 0
3, 149280, Note_on_c, 0, 42, 63
3, 149520, Note_on_c, 0, 42, 0
3, 149520, Note_on_c, 0, 49, 49
3, 149520, Note_on_c, 0, 58, 58
3, 149760, Note_on_c, 0, 58, 0
3, 149760, Note_on_c, 0, 49, 0
3, 149760, Note_on_c, 0, 42, 64
3, 149769, Control_c, 0, 64, 0
3, 149887, Control_c, 0, 64, 127
3, 150000, Note_on_c, 0, 42, 0
3, 150000, Note_on_c, 0, 53, 48
3, 150000, Note_on_c, 0, 62, 56
3, 150480, Note_on_c, 0, 62, 0
3, 150480, Note_on_c, 0, 53, 0
3, 150480, Note_on_c, 0, 53, 46
3, 150480, Note_on_c, 0, 62, 55
3, 150720, Note_on_c, 0, 62, 0
3, 150720, Note_on_c, 0, 53, 0
3, 150720, Note_on_c, 0, 42, 50
3, 150960, Note_on_c, 0, 42, 0
3, 150960, Note_on_c, 0, 53, 42
3, 150960, Note_on_c, 0, 62, 50
3, 151200, Note_on_c, 0, 62, 0
3, 151200, Note_on_c, 0, 53, 0
3, 151200, Note_on_c, 0, 42, 70
3, 151214, Control_c, 0, 64, 0
3, 151288, Control_c, 0, 64, 127
3, 151440, Note_on_c, 0, 42, 0
3, 151440, Note_on_c, 0, 49, 63
3, 151440, Note_on_c, 0, 58, 75
3, 151691, Control_c, 0, 64, 0
3, 151786, Control_c, 0, 64, 127
3, 151920, Note_on_c, 0, 58, 0
3, 151920, Note_on_c, 0, 49, 0
3, 151920, Note_on_c, 0, 49, 57
3, 151920, Note_on_c, 0, 58, 68
3, 152160, Note_on_c, 0, 58, 0
3, 152160, Note_on_c, 0, 49, 0
3, 152160, Note_on_c, 0, 42, 70
3, 152171, Control_c, 0, 64, 0
3, 152240, Control_c, 0, 64, 127
3, 152400, Note_on_c, 0, 42, 0
3, 152400, Note_on_c, 0, 49, 55
3, 152400, Note_on_c, 0, 58, 65
3, 152640, Note_on_c, 0, 58, 0
3, 152640, Note_on_c, 0, 49, 0
3, 152640, Control_c, 0, 64, 0
3, 152640, Note_on_c, 0, 42, 72
3, 152696, Control_c, 0, 64, 127
3, 152880, Note_on_c, 0, 42, 0
3, 152880, Note_on_c, 0, 50, 54
3, 152880, Note_on_c, 0, 59, 63
3, 153360, Note_on_c, 0, 59, 0
3, 153360, Note_on_c, 0, 50, 0
3, 153360, Note_on_c, 0, 50, 55
3, 153360, Note_on_c, 0, 59, 65
3, 153600, Note_on_c, 0, 59, 0
3, 153600, Note_on_c, 0, 50, 0
3, 153600, Note_on_c, 0, 42, 59
3, 153840, Note_on_c, 0, 42, 0
3, 153840, Note_on_c, 0, 50, 50
3, 153840, Note_on_c, 0, 59, 59
3, 154080, Note_on_c, 0, 59, 0
3, 154080, Note_on_c, 0, 50, 0
3, 154080, Note_on_c, 0, 42, 63
3, 154094, Control_c, 0, 64, 0
3, 154236, Control_c, 0, 64, 127
3, 154320, Note_on_c, 0, 42, 0
3, 154320, Note_on_c, 0, 49, 56
3, 154320, Note_on_c, 0, 58, 67
3, 154800, Note_on_c, 0, 58, 0
3, 154800, Note_on_c, 0, 49, 0
3, 154800, Note_on_c, 0, 49, 51
3, 154800, Note_on_c, 0, 58, 61
3, 155040, Note_on_c, 0, 58, 0
3, 155040, Note_on_c, 0, 49, 0
3, 155040, Note_on_c, 0, 42, 63
3, 155280, Note_on_c, 0, 42, 0
3, 155280, Note_on_c, 0, 49, 49
3, 155280, Note_on_c, 0, 58, 58
3, 155520, Note_on_c, 0, 58, 0
3, 155520, Note_on_c, 0, 49, 0
3, 155520, Note_on_c, 0, 42, 64
3, 155528, Control_c, 0, 64, 0
3, 155690, Control_c, 0, 64, 127
3, 155760, Note_on_c, 0, 42, 0
3, 155760, Note_on_c, 0, 53, 48
3, 155760, Note_on_c, 0, 62, 56
3, 156240, Note_on_c, 0, 62, 0
3, 156240, Note_on_c, 0, 53, 0
3, 156240, Note_on_c, 0, 53, 46
3, 156240, Note_on_c, 0, 62, 55
3, 156480, Note_on_c, 0, 62, 0
3, 156480, Note_on_c, 0, 53, 0
3, 156480, Note_on_c, 0, 42, 50
3, 156720, Note_on_c, 0, 42, 0
3, 156720, Note_on_c, 0, 53, 42
3, 156720, Note_on_c, 0, 62, 50
3, 156960, Note_on_c, 0, 62, 0
3, 156960, Note_on_c, 0, 53, 0
3, 156960, Control_c, 0, 64, 0
3, 156960, Note_on_c, 0, 54, 51
3, 157063, Control_c, 0, 64, 127
3, 157080, Note_on_c, 0, 54, 0
3, 157440, Note_on_c, 0, 61, 49
3, 157454, Control_c, 0, 64, 0
3, 157500, Note_on_c, 0, 61, 0
3, 157691, Control_c, 0, 64, 127
3, 157814, Control_c, 0, 64, 0
3, 157920, Note_on_c, 0, 49, 49
3, 157980, Note_on_c, 0, 49, 0
3, 158199, Control_c, 0, 64, 127
3, 158273, Control_c, 0, 64, 0
3, 158400, Note_on_c, 0, 56, 48
3, 158514, Control_c, 0, 64, 127
3, 158640, Note_on_c, 0, 56, 0
3, 158640, Note_on_c, 0, 61, 44
3, 158640, Note_on_c, 0, 65, 44
3, 158640, Note_on_c, 0, 71, 53
3, 159120, Note_on_c, 0, 71, 0
3, 159120, Note_on_c, 0, 65, 0
3, 159120, Note_on_c, 0, 61, 0
3, 159120, Note_on_c, 0, 61, 32
3, 159120, Note_on_c, 0, 65, 32
3, 159120, Note_on_c, 0, 71, 45
3, 159360, Note_on_c, 0, 71, 0
3, 159360, Note_on_c, 0, 65, 0
3, 159360, Note_on_c, 0, 61, 0
3, 159360, Note_on_c, 0, 49, 53
3, 159600, Note_on_c, 0, 49, 0
3, 159600, Note_on_c, 0, 61, 31
3, 159600, Note_on_c, 0, 65, 31
3, 159600, Note_on_c, 0, 71, 43
3, 159840, Note_on_c, 0, 71, 0
3, 159840, Note_on_c, 0, 65, 0
3, 159840, Note_on_c, 0, 61, 0
3, 159840, Control_c, 0, 64, 0
3, 159840, Note_on_c, 0, 54, 51
3, 159939, Control_c, 0, 64, 127
3, 159960, Note_on_c, 0, 54, 0
3, 160320, Note_on_c, 0, 61, 49
3, 160324, Control_c, 0, 64, 0
3, 160380, Note_on_c, 0, 61, 0
3, 160571, Control_c, 0, 64, 127
3, 160694, Control_c, 0, 64, 0
3, 160800, Note_on_c, 0, 49, 49
3, 160860, Note_on_c, 0, 49, 0
3, 161079, Control_c, 0, 64, 127
3, 161153, Control_c, 0, 64, 0
3, 161280, Note_on_c, 0, 56, 48
3, 161470, Control_c, 0, 64, 127
3, 161520, Note_on_c, 0, 56, 0
3, 161520, Note_on_c, 0, 61, 44
3, 161520, Note_on_c, 0, 65, 44
3, 161520, Note_on_c, 0, 71, 53
3, 162000, Note_on_c, 0, 71, 0
3, 162000, Note_on_c, 0, 65, 0
3, 162000, Note_on_c, 0, 61, 0
3, 162000, Note_on_c, 0, 61, 32
3, 162000, Note_on_c, 0, 65, 32
3, 162000, Note_on_c, 0, 71, 45
3, 162240, Note_on_c, 0, 71, 0
3, 162240, Note_on_c, 0, 65, 0
3, 162240, Note_on_c, 0, 61, 0
3, 162240, Note_on_c, 0, 49, 53
3, 162480, Note_on_c, 0, 49, 0
3, 162480, Note_on_c, 0, 61, 31
3, 162480, Note_on_c, 0, 65, 31
3, 162480, Note_on_c, 0, 71, 43
3, 162720, Note_on_c, 0, 71, 0
3, 162720, Note_on_c, 0, 65, 0
3, 162720, Note_on_c, 0, 61, 0
3, 162720, Control_c, 0, 64, 0
3, 162720, Note_on_c, 0, 54, 51
3, 162819, Control_c, 0, 64, 127
3, 162840, Note_on_c, 0, 54, 0
3, 163200, Note_on_c, 0, 61, 49
3, 163214, Control_c, 0, 64, 0
3, 163260, Note_on_c, 0, 61, 0
3, 163451, Control_c, 0, 64, 127
3, 163574, Control_c, 0, 64, 0
3, 163680, Note_on_c, 0, 49, 49
3, 163740, Note_on_c, 0, 49, 0
3, 163959, Control_c, 0, 64, 127
3, 164033, Control_c, 0, 64, 0
3, 164160, Note_on_c, 0, 42, 58
3, 164189, Control_c, 0, 64, 127
3, 164640, Note_on_c, 0, 42, 0
3, 164640, Note_on_c, 0, 50, 52
3, 164640, Note_on_c, 0, 60, 52
3, 165120, Note_on_c, 0, 60, 0
3, 165120, Note_on_c, 0, 50, 0
3, 165120, Note_on_c, 0, 38, 52
3, 165132, Control_c, 0, 64, 0
3, 165194, Control_c, 0, 64, 127
3, 165600, Note_on_c, 0, 38, 0
3, 165600, Note_on_c, 0, 43, 59
3, 165612, Control_c, 0, 64, 0
3, 165686, Control_c, 0, 64, 127
3, 166080, Note_on_c, 0, 43, 0
3, 166080, Note_on_c, 0, 50, 55
3, 166080, Note_on_c, 0, 59, 55
3, 166560, Note_on_c, 0, 59, 0
3, 166560, Note_on_c, 0, 50, 0
3, 166560, Note_on_c, 0, 43, 55
3, 166577, Control_c, 0, 64, 0
3, 166669, Control_c, 0, 64, 127
3, 167040, Note_on_c, 0, 43, 0
3, 167040, Control_c, 0, 64, 0
3, 167040, Note_on_c, 0, 49, 50
3, 167280, Note_on_c, 0, 53, 38
3, 167340, Note_on_c, 0, 53, 0
3, 167520, Note_on_c, 0, 54, 45
3, 167580, Note_on_c, 0, 54, 0
3, 167760, Note_on_c, 0, 56, 39
3, 167820, Note_on_c, 0, 56, 0
3, 168000, Note_on_c, 0, 54, 44
3, 168060, Note_on_c, 0, 54, 0
3, 168240, Note_on_c, 0, 53, 40
3, 168300, Note_on_c, 0, 53, 0
3, 168480, Note_on_c, 0, 49, 0
3, 168480, Note_on_c, 0, 54, 51
3, 168546, Control_c, 0, 64, 127
3, 168600, Note_on_c, 0, 54, 0
3, 168960, Note_on_c, 0, 61, 49
3, 168964, Control_c, 0, 64, 0
3, 169020, Note_on_c, 0, 61, 0
3, 169211, Control_c, 0, 64, 127
3, 169334, Control_c, 0, 64, 0
3, 169440, Note_on_c, 0, 49, 49
3, 169500, Note_on_c, 0, 49, 0
3, 169719, Control_c, 0, 64, 127
3, 169793, Control_c, 0, 64, 0
3, 169920, Note_on_c, 0, 56, 48
3, 169966, Control_c, 0, 64, 127
3, 170160, Note_on_c, 0, 56, 0
3, 170160, Note_on_c, 0, 61, 44
3, 170160, Note_on_c, 0, 65, 44
3, 170160, Note_on_c, 0, 71, 53
3, 170640, Note_on_c, 0, 71, 0
3, 170640, Note_on_c, 0, 65, 0
3, 170640, Note_on_c, 0, 61, 0
3, 170640, Note_on_c, 0, 61, 32
3, 170640, Note_on_c, 0, 65, 32
3, 170640, Note_on_c, 0, 71, 45
3, 170880, Note_on_c, 0, 71, 0
3, 170880, Note_on_c, 0, 65, 0
3, 170880, Note_on_c, 0, 61, 0
3, 170880, Note_on_c, 0, 49, 53
3, 171120, Note_on_c, 0, 49, 0
3, 171120, Note_on_c, 0, 61, 31
3, 171120, Note_on_c, 0, 65, 31
3, 171120, Note_on_c, 0, 71, 43
3, 171360, Note_on_c, 0, 71, 0
3, 171360, Note_on_c, 0, 65, 0
3, 171360, Note_on_c, 0, 61, 0
3, 171360, Control_c, 0, 64, 0
3, 171360, Note_on_c, 0, 54, 51
3, 171452, Control_c, 0, 64, 127
3, 171480, Note_on_c, 0, 54, 0
3, 171840, Note_on_c, 0, 61, 49
3, 171847, Control_c, 0, 64, 0
3, 171900, Note_on_c, 0, 61, 0
3, 172091, Control_c, 0, 64, 127
3, 172214, Control_c, 0, 64, 0
3, 172320, Note_on_c, 0, 49, 49
3, 172380, Note_on_c, 0, 49, 0
3, 172599, Control_c, 0, 64, 127
3, 172673, Control_c, 0, 64, 0
3, 172800, Note_on_c, 0, 56, 48
3, 172846, Control_c, 0, 64, 127
3, 173040, Note_on_c, 0, 56, 0
3, 173040, Note_on_c, 0, 61, 44
3, 173040, Note_on_c, 0, 65, 44
3, 173040, Note_on_c, 0, 71, 53
3, 173520, Note_on_c, 0, 71, 0
3, 173520, Note_on_c, 0, 65, 0
3, 173520, Note_on_c, 0, 61, 0
3, 173520, Note_on_c, 0, 61, 32
3, 173520, Note_on_c, 0, 65, 32
3, 173520, Note_on_c, 0, 71, 45
3, 173760, Note_on_c, 0, 71, 0
3, 173760, Note_on_c, 0, 65, 0
3, 173760, Note_on_c, 0, 61, 0
3, 173760, Note_on_c, 0, 49, 53
3, 174000, Note_on_c, 0, 49, 0
3, 174000, Note_on_c, 0, 61, 31
3, 174000, Note_on_c, 0, 65, 31
3, 174000, Note_on_c, 0, 71, 43
3, 174240, Note_on_c, 0, 71, 0
3, 174240, Note_on_c, 0, 65, 0
3, 174240, Note_on_c, 0, 61, 0
3, 174240, Control_c, 0, 64, 0
3, 174240, Note_on_c, 0, 54, 51
3, 174360, Note_on_c, 0, 54, 0
3, 174360, Control_c, 0, 64, 127
3, 174720, Note_on_c, 0, 61, 49
3, 174731, Control_c, 0, 64, 0
3, 174780, Note_on_c, 0, 61, 0
3, 174971, Control_c, 0, 64, 127
3, 175094, Control_c, 0, 64, 0
3, 175200, Note_on_c, 0, 49, 49
3, 175260, Note_on_c, 0, 49, 0
3, 175479, Control_c, 0, 64, 127
3, 175553, Control_c, 0, 64, 0
3, 175680, Note_on_c, 0, 42, 58
3, 175772, Control_c, 0, 64, 127
3, 176160, Note_on_c, 0, 42, 0
3, 176160, Note_on_c, 0, 50, 52
3, 176160, Note_on_c, 0, 60, 52
3, 176640, Note_on_c, 0, 60, 0
3, 176640, Note_on_c, 0, 50, 0
3, 176640, Note_on_c, 0, 38, 52
3, 176659, Control_c, 0, 64, 0
3, 176714, Control_c, 0, 64, 127
3, 177120, Note_on_c, 0, 38, 0
3, 177120, Control_c, 0, 64, 0
3, 177120, Note_on_c, 0, 43, 59
3, 177206, Control_c, 0, 64, 127
3, 177600, Note_on_c, 0, 43, 0
3, 177600, Note_on_c, 0, 50, 55
3, 177600, Note_on_c, 0, 59, 55
3, 178080, Note_on_c, 0, 59, 0
3, 178080, Note_on_c, 0, 50, 0
3, 178080, Note_on_c, 0, 43, 55
3, 178099, Control_c, 0, 64, 0
3, 178189, Control_c, 0, 64, 127
3, 178560, Note_on_c, 0, 43, 0
3, 178560, Control_c, 0, 64, 0
3, 178560, Note_on_c, 0, 49, 50
3, 178800, Note_on_c, 0, 53, 38
3, 178860, Note_on_c, 0, 53, 0
3, 179040, Note_on_c, 0, 54, 45
3, 179100, Note_on_c, 0, 54, 0
3, 179280, Note_on_c, 0, 56, 39
3, 179340, Note_on_c, 0, 56, 0
3, 179520, Note_on_c, 0, 54, 44
3, 179580, Note_on_c, 0, 54, 0
3, 179760, Note_on_c, 0, 53, 40
3, 179820, Note_on_c, 0, 53, 0
3, 180000, Note_on_c, 0, 49, 0
3, 180000, Note_on_c, 0, 42, 61
3, 180000, Note_on_c, 0, 49, 61
3, 180071, Control_c, 0, 64, 127
3, 180240, Note_on_c, 0, 49, 0
3, 180240, Note_on_c, 0, 42, 0
3, 180480, Note_on_c, 0, 80, 69
3, 180600, Note_on_c, 0, 80, 0
3, 180960, Note_on_c, 0, 80, 69
3, 181080, Note_on_c, 0, 80, 0
3, 181440, Note_on_c, 0, 80, 69
3, 181560, Note_on_c, 0, 80, 0
3, 181920, Note_on_c, 0, 80, 69
3, 182040, Note_on_c, 0, 80, 0
3, 182400, Note_on_c, 0, 80, 69
3, 182520, Note_on_c, 0, 80, 0
3, 182880, Note_on_c, 0, 54, 73
3, 182880, Note_on_c, 0, 50, 73
3, 182880, Note_on_c, 0, 42, 62
3, 182887, Control_c, 0, 64, 0
3, 183006, Control_c, 0, 64, 127
3, 183120, Note_on_c, 0, 42, 0
3, 183120, Note_on_c, 0, 50, 0
3, 183120, Note_on_c, 0, 54, 0
3, 183360, Note_on_c, 0, 64, 64
3, 183480, Note_on_c, 0, 64, 0
3, 183840, Note_on_c, 0, 64, 64
3, 183960, Note_on_c, 0, 64, 0
3, 184320, Note_on_c, 0, 64, 64
3, 184440, Note_on_c, 0, 64, 0
3, 184800, Note_on_c, 0, 64, 64
3, 184920, Note_on_c, 0, 64, 0
3, 185280, Note_on_c, 0, 64, 64
3, 185400, Note_on_c, 0, 64, 0
3, 185760, Note_on_c, 0, 49, 61
3, 185760, Note_on_c, 0, 42, 61
3, 185760, Note_on_c, 0, 54, 73
3, 185769, Control_c, 0, 64, 0
3, 185880, Control_c, 0, 64, 127
3, 186000, Note_on_c, 0, 54, 0
3, 186000, Note_on_c, 0, 42, 0
3, 186000, Note_on_c, 0, 49, 0
3, 186240, Note_on_c, 0, 80, 68
3, 186360, Note_on_c, 0, 80, 0
3, 186720, Note_on_c, 0, 80, 68
3, 186840, Note_on_c, 0, 80, 0
3, 187200, Note_on_c, 0, 80, 68
3, 187320, Note_on_c, 0, 80, 0
3, 187680, Note_on_c, 0, 80, 68
3, 187800, Note_on_c, 0, 80, 0
3, 188160, Note_on_c, 0, 80, 68
3, 188280, Note_on_c, 0, 80, 0
3, 188640, Note_on_c, 0, 51, 73
3, 188640, Note_on_c, 0, 46, 61
3, 188640, Note_on_c, 0, 39, 61
3, 188650, Control_c, 0, 64, 0
3, 188720, Control_c, 0, 64, 127
3, 188880, Note_on_c, 0, 39, 0
3, 188880, Note_on_c, 0, 46, 0
3, 188880, Note_on_c, 0, 51, 0
3, 189120, Note_on_c, 0, 65, 64
3, 189240, Note_on_c, 0, 65, 0
3, 189600, Note_on_c, 0, 65, 64
3, 189720, Note_on_c, 0, 65, 0
3, 190080, Note_on_c, 0, 65, 64
3, 190200, Note_on_c, 0, 65, 0
3, 190560, Note_on_c, 0, 65, 64
3, 190680, Note_on_c, 0, 65, 0
3, 191040, Note_on_c, 0, 47, 52
3, 191040, Note_on_c, 0, 54, 62
3, 191040, Note_on_c, 0, 59, 62
3, 191054, Control_c, 0, 64, 0
3, 191139, Control_c, 0, 64, 127
3, 191160, Note_on_c, 0, 59, 0
3, 191160, Note_on_c, 0, 54, 0
3, 191160, Note_on_c, 0, 47, 0
3, 191280, Note_on_c, 0, 47, 51
3, 191280, Note_on_c, 0, 54, 61
3, 191280, Note_on_c, 0, 59, 61
3, 191400, Note_on_c, 0, 59, 0
3, 191400, Note_on_c, 0, 54, 0
3, 191400, Note_on_c, 0, 47, 0
3, 191520, Note_on_c, 0, 42, 58
3, 191520, Note_on_c, 0, 49, 58
3, 191520, Note_on_c, 0, 54, 69
3, 191527, Control_c, 0, 64, 0
3, 191628, Control_c, 0, 64, 127
3, 191760, Note_on_c, 0, 54, 0
3, 191760, Note_on_c, 0, 49, 0
3, 191760, Note_on_c, 0, 42, 0
3, 192000, Note_on_c, 0, 61, 68
3, 192120, Note_on_c, 0, 61, 0
3, 192480, Note_on_c, 0, 66, 72
3, 192600, Note_on_c, 0, 66, 0
3, 192960, Note_on_c, 0, 73, 73
3, 193080, Note_on_c, 0, 73, 0
3, 193440, Note_on_c, 0, 78, 77
3, 193560, Note_on_c, 0, 78, 0
3, 193920, Note_on_c, 0, 85, 79
3, 194040, Note_on_c, 0, 85, 0
3, 194400, Note_on_c, 0, 90, 90
3, 194587, Control_c, 0, 64, 0
3, 194640, Note_on_c, 0, 90, 0
3, 195314, Control_c, 0, 64, 127
3, 195360, Note_on_c, 0, 47, 55
3, 195360, Note_on_c, 0, 54, 55
3, 195360, Note_on_c, 0, 59, 66
3, 195600, Note_on_c, 0, 59, 0
3, 195600, Note_on_c, 0, 54, 0
3, 195600, Note_on_c, 0, 47, 0
3, 195611, Control_c, 0, 64, 0
3, 195780, Note_on_c, 0, 42, 61
3, 195810, Note_on_c, 0, 49, 61
3, 195840, Note_on_c, 0, 58, 73
3, 195967, Control_c, 0, 64, 127
3, 196080, Note_on_c, 0, 58, 0
3, 196080, Note_on_c, 0, 49, 0
3, 196080, Note_on_c, 0, 42, 0
3, 196345, Control_c, 0, 64, 0
3, 197220, Note_on_c, 0, 54, 62
3, 197250, Note_on_c, 0, 61, 62
3, 197280, Note_on_c, 0, 70, 73
3, 197351, Control_c, 0, 64, 127
3, 197520, Note_on_c, 0, 70, 0
3, 197520, Note_on_c, 0, 61, 0
3, 197520, Note_on_c, 0, 54, 0
3, 197781, Control_c, 0, 64, 0
3, 197781, End_track
4, 0, Start_track
4, 0, Title_t, "Albeniz :Suite espagnole Castilla"
4, 0, End_track
5, 0, Start_track
5, 0, Title_t, "Copyright © 2001 by Bernd Krüger"
5, 0, End_track
6, 0, Start_track
6, 0, Title_t, "http://www.piano-midi.de"
6, 0, End_track
7, 0, Start_track
7, 0, Title_t, "Edition:  2010-09-19"
7, 0, End_track
8, 0, Start_track
8, 0, Title_t, "Spur 7"
8, 0, End_track
9, 0, Start_track
9, 0, Title_t, "Spur 8"
9, 0, End_track
0, 0, End_of_file
