0, 0, Header, 1, 9, 480
1, 0, Start_track
1, 0, Title_t, "Suite espagnole"
1, 0, Title_t, "Cadiz"
1, 0, Copyright_t, "Copyright © 2001 by Bernd Krueger"
1, 0, Text_t, "Isaac Albeniz"
1, 0, Text_t, "Allegretto, ma non troppo"
1, 0, Text_t, "Fertiggestellt am 16.4.2001\012"
1, 0, Text_t, "Normierung: 23.12.2002 \012"
1, 0, Text_t, "Update am 11.9.2010\012"
1, 0, Text_t, "Dauer: 3:40 Minuten\012"
1, 0, SMPTE_offset, 96, 0, 3, 0, 0
1, 0, Time_signature, 3, 2, 24, 8
1, 0, Key_signature, -5, "major"
1, 0, Tempo, 619003
1, 240, Tempo, 449438
1, 280, Tempo, 454545
1, 320, Tempo, 459770
1, 360, Tempo, 466926
1, 400, Tempo, 472441
1, 440, Tempo, 480000
1, 480, Tempo, 670766
1, 720, Tempo, 591133
1, 1000, Tempo, 606061
1, 1200, Tempo, 656312
1, 1440, Tempo, 619003
1, 1680, Tempo, 456274
1, 1720, Tempo, 459770
1, 1760, Tempo, 465116
1, 1800, Tempo, 470588
1, 1840, Tempo, 476190
1, 1880, Tempo, 481928
1, 1920, Tempo, 667111
1, 2160, Tempo, 582524
1, 2400, Tempo, 605022
1, 2640, Tempo, 689576
1, 2880, Tempo, 619003
1, 3120, Tempo, 449438
1, 3160, Tempo, 454545
1, 3200, Tempo, 459770
1, 3240, Tempo, 465116
1, 3280, Tempo, 470588
1, 3320, Tempo, 478088
1, 3360, Tempo, 667111
1, 3600, Tempo, 579710
1, 3840, Tempo, 603015
1, 4080, Tempo, 656312
1, 4320, Tempo, 619003
1, 4560, Tempo, 463320
1, 4600, Tempo, 466926
1, 4640, Tempo, 472441
1, 4680, Tempo, 478088
1, 4720, Tempo, 483871
1, 4760, Tempo, 489796
1, 4800, Tempo, 670766
1, 5040, Tempo, 606061
1, 5280, Tempo, 615385
1, 5520, Tempo, 693642
1, 5760, Tempo, 767165
1, 6000, Tempo, 458015
1, 6040, Tempo, 461538
1, 6080, Tempo, 466926
1, 6120, Tempo, 472441
1, 6160, Tempo, 478088
1, 6200, Tempo, 483871
1, 6240, Tempo, 667111
1, 6480, Tempo, 585366
1, 6720, Tempo, 603015
1, 6960, Tempo, 656312
1, 7200, Tempo, 693481
1, 7440, Tempo, 466926
1, 7480, Tempo, 470588
1, 7520, Tempo, 474308
1, 7560, Tempo, 480000
1, 7600, Tempo, 483871
1, 7640, Tempo, 489796
1, 7680, Tempo, 670766
1, 7920, Tempo, 588235
1, 8160, Tempo, 618557
1, 8400, Tempo, 656312
1, 8640, Tempo, 613748
1, 8880, Tempo, 594059
1, 9120, Tempo, 579710
1, 9360, Tempo, 594059
1, 9600, Tempo, 606061
1, 9840, Tempo, 642674
1, 10080, Tempo, 619963
1, 10320, Tempo, 604656
1, 10560, Tempo, 646064
1, 10800, Tempo, 582524
1, 11040, Tempo, 632711
1, 11280, Tempo, 642674
1, 11520, Tempo, 767165
1, 11760, Tempo, 459770
1, 11800, Tempo, 463320
1, 11840, Tempo, 468750
1, 11880, Tempo, 472441
1, 11920, Tempo, 478088
1, 11960, Tempo, 483871
1, 12000, Tempo, 667111
1, 12240, Tempo, 574163
1, 12480, Tempo, 603015
1, 12720, Tempo, 656312
1, 12960, Tempo, 693481
1, 13200, Tempo, 485162
1, 13440, Tempo, 670766
1, 13680, Tempo, 585366
1, 13920, Tempo, 618557
1, 14160, Tempo, 656312
1, 14400, Tempo, 613748
1, 14640, Tempo, 594059
1, 14880, Tempo, 585366
1, 15120, Tempo, 594059
1, 15360, Tempo, 606061
1, 15600, Tempo, 642674
1, 15840, Tempo, 619963
1, 16320, Tempo, 646064
1, 16560, Tempo, 582524
1, 16800, Tempo, 632711
1, 17040, Tempo, 642674
1, 17280, Tempo, 767165
1, 17520, Tempo, 477631
1, 17760, Tempo, 667111
1, 18000, Tempo, 600000
1, 18240, Tempo, 618557
1, 18480, Tempo, 656312
1, 18720, Tempo, 710059
1, 18960, Tempo, 477631
1, 19200, Tempo, 648649
1, 19440, Tempo, 607472
1, 19920, Tempo, 656312
1, 20160, Tempo, 767165
1, 20400, Tempo, 477631
1, 20640, Tempo, 663497
1, 20880, Tempo, 662252
1, 21120, Tempo, 645161
1, 21360, Tempo, 674157
1, 21600, Tempo, 701754
1, 21840, Tempo, 477631
1, 22080, Tempo, 670391
1, 22320, Tempo, 618557
1, 22560, Tempo, 631579
1, 22800, Tempo, 645161
1, 23040, Tempo, 652174
1, 23280, Tempo, 652884
1, 23520, Tempo, 648649
1, 23760, Tempo, 628272
1, 24000, Tempo, 655738
1, 24180, Tempo, 634921
1, 24240, Tempo, 621762
1, 24480, Tempo, 634921
1, 24720, Tempo, 645161
1, 24960, Tempo, 632711
1, 25200, Tempo, 642674
1, 25440, Tempo, 616840
1, 25680, Tempo, 648649
1, 25860, Tempo, 748503
1, 25920, Tempo, 663497
1, 26160, Tempo, 545455
1, 26180, Tempo, 550459
1, 26200, Tempo, 555556
1, 26220, Tempo, 560748
1, 26240, Tempo, 566038
1, 26260, Tempo, 574163
1, 26280, Tempo, 579710
1, 26300, Tempo, 585366
1, 26320, Tempo, 591133
1, 26340, Tempo, 597015
1, 26360, Tempo, 606061
1, 26400, Tempo, 663497
1, 26640, Tempo, 629459
1, 26880, Tempo, 649491
1, 27120, Tempo, 632711
1, 27360, Tempo, 667111
1, 27840, Tempo, 733496
1, 28044, Tempo, 680272
1, 28096, Tempo, 686499
1, 28147, Tempo, 692841
1, 28181, Tempo, 699301
1, 28233, Tempo, 705882
1, 28267, Tempo, 712589
1, 28318, Tempo, 719424
1, 28370, Tempo, 726392
1, 28404, Tempo, 733496
1, 28456, Tempo, 740741
1, 28490, Tempo, 748130
1, 28541, Tempo, 755668
1, 28593, Tempo, 763359
1, 28627, Tempo, 771208
1, 28678, Tempo, 779221
1, 28713, Tempo, 787402
1, 28764, Tempo, 795756
1, 28798, Tempo, 804290
1, 28800, Tempo, 863309
1, 29040, Tempo, 504202
1, 29080, Tempo, 508475
1, 29120, Tempo, 515021
1, 29160, Tempo, 521739
1, 29200, Tempo, 528634
1, 29240, Tempo, 535714
1, 29280, Tempo, 685714
1, 29520, Tempo, 579710
1, 29760, Tempo, 603015
1, 30000, Tempo, 674157
1, 30240, Tempo, 718563
1, 30480, Tempo, 493827
1, 30520, Tempo, 497925
1, 30560, Tempo, 502092
1, 30600, Tempo, 506329
1, 30640, Tempo, 510638
1, 30680, Tempo, 517241
1, 30720, Tempo, 670766
1, 30960, Tempo, 585366
1, 31200, Tempo, 615385
1, 31440, Tempo, 656312
1, 31680, Tempo, 613748
1, 31920, Tempo, 591133
1, 32160, Tempo, 585366
1, 32400, Tempo, 615385
1, 32640, Tempo, 600000
1, 32880, Tempo, 642674
1, 33120, Tempo, 619963
1, 33360, Tempo, 604656
1, 33600, Tempo, 646064
1, 33840, Tempo, 585366
1, 34080, Tempo, 632711
1, 34320, Tempo, 642674
1, 34560, Tempo, 767165
1, 34800, Tempo, 461538
1, 34840, Tempo, 465116
1, 34880, Tempo, 468750
1, 34920, Tempo, 474308
1, 34960, Tempo, 478088
1, 35000, Tempo, 483871
1, 35040, Tempo, 667111
1, 35280, Tempo, 582524
1, 35520, Tempo, 603015
1, 35760, Tempo, 656312
1, 36000, Tempo, 693481
1, 36240, Tempo, 485162
1, 36480, Tempo, 670766
1, 36720, Tempo, 603015
1, 36960, Tempo, 618557
1, 37200, Tempo, 656312
1, 37440, Tempo, 613748
1, 37680, Tempo, 601685
1, 37920, Tempo, 593003
1, 38160, Tempo, 604656
1, 38400, Tempo, 600000
1, 38640, Tempo, 642674
1, 38880, Tempo, 619963
1, 39360, Tempo, 686499
1, 39600, Tempo, 755668
1, 39840, Tempo, 641711
1, 40080, Tempo, 662983
1, 40320, Key_signature, 4, "major"
1, 40320, Tempo, 767165
1, 40560, Tempo, 477631
1, 40800, Tempo, 667111
1, 41040, Tempo, 591133
1, 41280, Tempo, 621762
1, 41520, Tempo, 656312
1, 41760, Tempo, 591133
1, 42000, Tempo, 579710
1, 42240, Tempo, 618557
1, 42480, Tempo, 591133
1, 42720, Tempo, 606061
1, 42960, Tempo, 656312
1, 43200, Tempo, 767165
1, 43440, Tempo, 458015
1, 43480, Tempo, 463320
1, 43520, Tempo, 468750
1, 43560, Tempo, 474308
1, 43600, Tempo, 480000
1, 43640, Tempo, 485830
1, 43680, Tempo, 667111
1, 43920, Tempo, 600000
1, 44160, Tempo, 618557
1, 44400, Tempo, 656312
1, 44640, Tempo, 628272
1, 44880, Tempo, 609137
1, 45120, Tempo, 634921
1, 45360, Tempo, 680272
1, 45600, Tempo, 645161
1, 45840, Tempo, 686499
1, 46080, Key_signature, -5, "major"
1, 46080, Tempo, 609137
1, 46320, Tempo, 579710
1, 46560, Tempo, 625000
1, 46800, Tempo, 606061
1, 47040, Tempo, 634921
1, 47280, Tempo, 628272
1, 47520, Tempo, 606061
1, 47760, Tempo, 585366
1, 48000, Tempo, 638298
1, 48240, Tempo, 606061
1, 48480, Tempo, 618557
1, 48720, Tempo, 655738
1, 48960, Tempo, 621762
1, 49200, Tempo, 597015
1, 49440, Tempo, 631579
1, 49680, Tempo, 609137
1, 49920, Tempo, 628272
1, 50400, Tempo, 681818
1, 50640, Tempo, 566038
1, 50880, Tempo, 663497
1, 51120, Tempo, 719424
1, 51360, Tempo, 662252
1, 51600, Tempo, 680272
1, 51840, Tempo, 619003
1, 52080, Tempo, 447761
1, 52120, Tempo, 452830
1, 52160, Tempo, 458015
1, 52200, Tempo, 465116
1, 52240, Tempo, 470588
1, 52280, Tempo, 478088
1, 52320, Tempo, 670766
1, 52560, Tempo, 571429
1, 52800, Tempo, 603015
1, 53040, Tempo, 656312
1, 53280, Tempo, 619003
1, 53520, Tempo, 447761
1, 53560, Tempo, 452830
1, 53600, Tempo, 459770
1, 53640, Tempo, 465116
1, 53680, Tempo, 472441
1, 53720, Tempo, 480000
1, 53760, Tempo, 667111
1, 54000, Tempo, 576923
1, 54240, Tempo, 603015
1, 54480, Tempo, 689576
1, 54720, Tempo, 619003
1, 54960, Tempo, 451128
1, 55000, Tempo, 454545
1, 55040, Tempo, 459770
1, 55080, Tempo, 465116
1, 55120, Tempo, 470588
1, 55160, Tempo, 476190
1, 55200, Tempo, 667111
1, 55440, Tempo, 585366
1, 55680, Tempo, 603015
1, 55920, Tempo, 656312
1, 56160, Tempo, 619003
1, 56400, Tempo, 459770
1, 56440, Tempo, 465116
1, 56480, Tempo, 470588
1, 56520, Tempo, 476190
1, 56560, Tempo, 481928
1, 56600, Tempo, 487805
1, 56640, Tempo, 670766
1, 56880, Tempo, 634249
1, 57120, Tempo, 650759
1, 57360, Tempo, 674157
1, 57600, Key_signature, 4, "major"
1, 57600, Tempo, 621762
1, 57840, Tempo, 560748
1, 58080, Tempo, 600000
1, 58320, Tempo, 585366
1, 58560, Tempo, 603015
1, 58800, Tempo, 588235
1, 59040, Tempo, 625000
1, 59280, Tempo, 540541
1, 59520, Tempo, 612245
1, 59760, Tempo, 594059
1, 60000, Tempo, 612245
1, 60240, Tempo, 631579
1, 60480, Tempo, 600000
1, 60720, Tempo, 533333
1, 60960, Tempo, 600000
1, 61200, Tempo, 585366
1, 61440, Tempo, 603015
1, 61680, Tempo, 588235
1, 61920, Tempo, 609137
1, 62160, Tempo, 538117
1, 62400, Tempo, 612245
1, 62640, Tempo, 594059
1, 62880, Tempo, 612245
1, 63360, Tempo, 597015
1, 63600, Tempo, 515021
1, 63840, Tempo, 600000
1, 64080, Tempo, 585366
1, 64320, Tempo, 603015
1, 64560, Tempo, 588235
1, 64800, Tempo, 597015
1, 65040, Tempo, 517241
1, 65280, Tempo, 600000
1, 65520, Tempo, 585366
1, 65760, Tempo, 603015
1, 66000, Tempo, 588235
1, 66240, Tempo, 597015
1, 66480, Tempo, 517241
1, 66720, Tempo, 600000
1, 66960, Tempo, 585366
1, 67200, Tempo, 588235
1, 67440, Tempo, 603015
1, 67680, Tempo, 585366
1, 67920, Tempo, 606061
1, 68400, Tempo, 612245
1, 69120, Tempo, 621762
1, 69360, Tempo, 538117
1, 69600, Tempo, 600000
1, 69840, Tempo, 585366
1, 70080, Tempo, 603015
1, 70320, Tempo, 588235
1, 70560, Tempo, 609137
1, 70800, Tempo, 540541
1, 71040, Tempo, 612245
1, 71280, Tempo, 594059
1, 71520, Tempo, 612245
1, 71760, Tempo, 631579
1, 72000, Tempo, 600000
1, 72240, Tempo, 533333
1, 72480, Tempo, 600000
1, 72720, Tempo, 585366
1, 72960, Tempo, 603015
1, 73200, Tempo, 588235
1, 73440, Tempo, 609137
1, 73680, Tempo, 538117
1, 73920, Tempo, 612245
1, 74160, Tempo, 594059
1, 74400, Tempo, 612245
1, 74880, Tempo, 597015
1, 75120, Tempo, 515021
1, 75360, Tempo, 600000
1, 75600, Tempo, 585366
1, 75840, Tempo, 603015
1, 76080, Tempo, 588235
1, 76320, Tempo, 597015
1, 76560, Tempo, 517241
1, 76800, Tempo, 600000
1, 77040, Tempo, 585366
1, 77280, Tempo, 603015
1, 77520, Tempo, 588235
1, 77760, Tempo, 618557
1, 78000, Tempo, 545455
1, 78240, Tempo, 600000
1, 78480, Tempo, 585366
1, 78720, Tempo, 606061
1, 78960, Tempo, 648649
1, 79080, Tempo, 591133
1, 79200, Tempo, 615385
1, 79440, Tempo, 574163
1, 79680, Tempo, 645161
1, 79920, Tempo, 662983
1, 80640, Tempo, 625000
1, 81360, Tempo, 618557
1, 81640, Tempo, 606061
1, 82080, Tempo, 645161
1, 82320, Tempo, 571429
1, 82560, Tempo, 621762
1, 82800, Tempo, 574163
1, 83040, Tempo, 621762
1, 83280, Tempo, 655738
1, 83520, Tempo, 638298
1, 83760, Tempo, 588235
1, 84000, Tempo, 648649
1, 84240, Tempo, 634921
1, 84480, Tempo, 621762
1, 84760, Tempo, 638298
1, 84960, Tempo, 612245
1, 85200, Tempo, 648649
1, 85440, Tempo, 648649
1, 85680, Tempo, 674157
1, 86400, Tempo, 625000
1, 87120, Tempo, 618557
1, 87400, Tempo, 606061
1, 87840, Tempo, 645161
1, 88080, Tempo, 571429
1, 88320, Tempo, 641711
1, 88560, Tempo, 600000
1, 88800, Tempo, 652174
1, 89040, Tempo, 763359
1, 89280, Tempo, 631579
1, 89520, Tempo, 576923
1, 89760, Tempo, 603015
1, 90000, Tempo, 628272
1, 90240, Tempo, 603015
1, 90720, Tempo, 615385
1, 90960, Tempo, 585366
1, 91200, Tempo, 600000
1, 91440, Tempo, 625000
1, 92160, Tempo, 645161
1, 92400, Tempo, 571429
1, 92640, Tempo, 645161
1, 92880, Tempo, 609137
1, 93120, Tempo, 621762
1, 93360, Tempo, 655738
1, 93840, Tempo, 609137
1, 94080, Tempo, 579710
1, 94480, Tempo, 634921
1, 94560, Tempo, 603015
1, 94920, Tempo, 641711
1, 95040, Tempo, 645161
1, 95280, Tempo, 571429
1, 95520, Tempo, 645161
1, 95760, Tempo, 609137
1, 96000, Tempo, 621762
1, 96240, Tempo, 655738
1, 96480, Tempo, 600000
1, 96720, Tempo, 615385
1, 96960, Tempo, 582524
1, 97360, Tempo, 634921
1, 97440, Tempo, 603015
1, 97800, Tempo, 641711
1, 97920, Tempo, 631579
1, 98160, Tempo, 609137
1, 98400, Tempo, 579710
1, 98800, Tempo, 634921
1, 98880, Tempo, 588235
1, 99240, Tempo, 641711
1, 99360, Tempo, 603015
1, 99480, Tempo, 588235
1, 99720, Tempo, 674157
1, 99770, Tempo, 608519
1, 99838, Tempo, 613497
1, 99890, Tempo, 618557
1, 99958, Tempo, 623701
1, 100010, Tempo, 628931
1, 100078, Tempo, 634249
1, 100130, Tempo, 639659
1, 100198, Tempo, 645161
1, 100250, Tempo, 650759
1, 100301, Tempo, 656455
1, 100318, Tempo, 656455
1, 100370, Tempo, 662252
1, 100404, Tempo, 668151
1, 100438, Tempo, 674157
1, 100473, Tempo, 680272
1, 100524, Tempo, 686499
1, 100558, Tempo, 692841
1, 100560, Tempo, 733496
1, 100680, Tempo, 821918
1, 100800, Tempo, 677966
1, 101040, Tempo, 645161
1, 101280, Tempo, 670391
1, 101520, Tempo, 652174
1, 101760, Tempo, 674157
1, 102000, Tempo, 689655
1, 102240, Tempo, 662983
1, 103680, Key_signature, -5, "major"
1, 103680, Tempo, 619003
1, 103920, Tempo, 449438
1, 103960, Tempo, 454545
1, 104000, Tempo, 459770
1, 104040, Tempo, 466926
1, 104080, Tempo, 472441
1, 104120, Tempo, 480000
1, 104160, Tempo, 670766
1, 104400, Tempo, 591133
1, 104640, Tempo, 603015
1, 104880, Tempo, 656312
1, 105120, Tempo, 619003
1, 105360, Tempo, 456274
1, 105400, Tempo, 459770
1, 105440, Tempo, 465116
1, 105480, Tempo, 470588
1, 105520, Tempo, 476190
1, 105560, Tempo, 481928
1, 105600, Tempo, 667111
1, 105840, Tempo, 585366
1, 106080, Tempo, 603015
1, 106320, Tempo, 689576
1, 106560, Tempo, 619003
1, 106800, Tempo, 449438
1, 106840, Tempo, 454545
1, 106880, Tempo, 459770
1, 106920, Tempo, 465116
1, 106960, Tempo, 470588
1, 107000, Tempo, 478088
1, 107040, Tempo, 667111
1, 107280, Tempo, 585366
1, 107520, Tempo, 603015
1, 107760, Tempo, 656312
1, 108000, Tempo, 619003
1, 108240, Tempo, 463320
1, 108280, Tempo, 466926
1, 108320, Tempo, 472441
1, 108360, Tempo, 478088
1, 108400, Tempo, 483871
1, 108440, Tempo, 489796
1, 108480, Tempo, 670766
1, 108720, Tempo, 600000
1, 108960, Tempo, 618557
1, 109200, Tempo, 718563
1, 109440, Tempo, 767165
1, 109680, Tempo, 458015
1, 109720, Tempo, 461538
1, 109760, Tempo, 466926
1, 109800, Tempo, 472441
1, 109840, Tempo, 478088
1, 109880, Tempo, 483871
1, 109920, Tempo, 667111
1, 110160, Tempo, 574163
1, 110400, Tempo, 603015
1, 110640, Tempo, 656312
1, 110880, Tempo, 693481
1, 111120, Tempo, 466926
1, 111160, Tempo, 470588
1, 111200, Tempo, 474308
1, 111240, Tempo, 480000
1, 111280, Tempo, 483871
1, 111320, Tempo, 489796
1, 111360, Tempo, 670766
1, 111600, Tempo, 600000
1, 111840, Tempo, 618557
1, 112080, Tempo, 656312
1, 112320, Tempo, 613748
1, 112560, Tempo, 591133
1, 112800, Tempo, 582524
1, 113040, Tempo, 604656
1, 113280, Tempo, 613748
1, 113520, Tempo, 642674
1, 113760, Tempo, 619963
1, 114000, Tempo, 604656
1, 114240, Tempo, 646064
1, 114480, Tempo, 579710
1, 114720, Tempo, 632711
1, 114960, Tempo, 642674
1, 115200, Tempo, 767165
1, 115440, Tempo, 459770
1, 115480, Tempo, 463320
1, 115520, Tempo, 468750
1, 115560, Tempo, 472441
1, 115600, Tempo, 478088
1, 115640, Tempo, 483871
1, 115680, Tempo, 667111
1, 115920, Tempo, 571429
1, 116160, Tempo, 603015
1, 116400, Tempo, 656312
1, 116640, Tempo, 693481
1, 116880, Tempo, 485162
1, 117120, Tempo, 670766
1, 117360, Tempo, 588235
1, 117600, Tempo, 615385
1, 117840, Tempo, 656312
1, 118080, Tempo, 613748
1, 118320, Tempo, 591133
1, 118560, Tempo, 582524
1, 118800, Tempo, 604656
1, 119040, Tempo, 613748
1, 119280, Tempo, 642674
1, 119520, Tempo, 619963
1, 120000, Tempo, 646064
1, 120240, Tempo, 601685
1, 120480, Tempo, 632711
1, 120720, Tempo, 642674
1, 120960, Tempo, 767165
1, 121200, Tempo, 477631
1, 121440, Tempo, 667111
1, 121680, Tempo, 591133
1, 121920, Tempo, 621762
1, 122160, Tempo, 656312
1, 122400, Tempo, 710059
1, 122640, Tempo, 477631
1, 122880, Tempo, 648649
1, 123120, Tempo, 579710
1, 123360, Tempo, 603015
1, 123600, Tempo, 656312
1, 123840, Tempo, 767165
1, 124080, Tempo, 477631
1, 124320, Tempo, 680272
1, 124560, Tempo, 629459
1, 124800, Tempo, 650759
1, 125040, Tempo, 674157
1, 125280, Tempo, 701754
1, 125520, Tempo, 477631
1, 125760, Tempo, 670391
1, 126000, Tempo, 618557
1, 126240, Tempo, 631579
1, 126480, Tempo, 645161
1, 126720, Tempo, 652174
1, 126960, Tempo, 652884
1, 127200, Tempo, 648649
1, 127440, Tempo, 628272
1, 127680, Tempo, 655738
1, 127860, Tempo, 634921
1, 127920, Tempo, 621762
1, 128160, Tempo, 634921
1, 128400, Tempo, 645161
1, 128640, Tempo, 632711
1, 128880, Tempo, 642674
1, 129120, Tempo, 616840
1, 129360, Tempo, 648649
1, 129540, Tempo, 748503
1, 129600, Tempo, 663497
1, 129840, Tempo, 545455
1, 129860, Tempo, 550459
1, 129880, Tempo, 555556
1, 129900, Tempo, 560748
1, 129920, Tempo, 566038
1, 129940, Tempo, 574163
1, 129960, Tempo, 579710
1, 129980, Tempo, 585366
1, 130000, Tempo, 591133
1, 130020, Tempo, 597015
1, 130040, Tempo, 606061
1, 130080, Tempo, 663497
1, 130320, Tempo, 629459
1, 130560, Tempo, 649491
1, 130800, Tempo, 632711
1, 131040, Tempo, 667111
1, 131520, Tempo, 719424
1, 131760, Tempo, 678196
1, 131776, Tempo, 692841
1, 131827, Tempo, 699301
1, 131878, Tempo, 705882
1, 131913, Tempo, 712589
1, 131964, Tempo, 719424
1, 132016, Tempo, 726392
1, 132050, Tempo, 733496
1, 132101, Tempo, 740741
1, 132153, Tempo, 748130
1, 132187, Tempo, 755668
1, 132238, Tempo, 763359
1, 132240, Tempo, 859599
1, 132461, Tempo, 804290
1, 132480, Tempo, 863309
1, 132720, Tempo, 504202
1, 132760, Tempo, 508475
1, 132800, Tempo, 515021
1, 132840, Tempo, 521739
1, 132880, Tempo, 528634
1, 132920, Tempo, 535714
1, 132960, Tempo, 685714
1, 133200, Tempo, 574163
1, 133440, Tempo, 603015
1, 133680, Tempo, 674157
1, 133920, Tempo, 718563
1, 134160, Tempo, 493827
1, 134200, Tempo, 497925
1, 134240, Tempo, 502092
1, 134280, Tempo, 506329
1, 134320, Tempo, 510638
1, 134360, Tempo, 517241
1, 134400, Tempo, 670766
1, 134640, Tempo, 591133
1, 134880, Tempo, 618557
1, 135120, Tempo, 656312
1, 135360, Tempo, 613748
1, 135600, Tempo, 594059
1, 135840, Tempo, 585366
1, 136080, Tempo, 597015
1, 136320, Tempo, 594059
1, 136560, Tempo, 642674
1, 136800, Tempo, 619963
1, 137040, Tempo, 604656
1, 137280, Tempo, 646064
1, 137520, Tempo, 585366
1, 137760, Tempo, 632711
1, 138000, Tempo, 642674
1, 138240, Tempo, 767165
1, 138480, Tempo, 461538
1, 138520, Tempo, 465116
1, 138560, Tempo, 468750
1, 138600, Tempo, 474308
1, 138640, Tempo, 478088
1, 138680, Tempo, 483871
1, 138720, Tempo, 667111
1, 138960, Tempo, 579710
1, 139200, Tempo, 603015
1, 139440, Tempo, 656312
1, 139680, Tempo, 693481
1, 139920, Tempo, 485162
1, 140160, Tempo, 670766
1, 140400, Tempo, 594059
1, 140640, Tempo, 618557
1, 140880, Tempo, 656312
1, 141120, Tempo, 613748
1, 141360, Tempo, 594059
1, 141600, Tempo, 585366
1, 141840, Tempo, 604656
1, 142080, Tempo, 613748
1, 142320, Tempo, 642674
1, 142560, Tempo, 619963
1, 143040, Tempo, 674157
1, 143280, Tempo, 705882
1, 143520, Tempo, 631579
1, 143760, Tempo, 652174
1, 144000, Key_signature, 4, "major"
1, 144000, Tempo, 767165
1, 144240, Tempo, 477631
1, 144480, Tempo, 667111
1, 144720, Tempo, 597015
1, 144960, Tempo, 621762
1, 145200, Tempo, 656312
1, 145440, Tempo, 609137
1, 145680, Tempo, 594059
1, 145920, Tempo, 618557
1, 146160, Tempo, 579710
1, 146400, Tempo, 603015
1, 146640, Tempo, 656312
1, 146880, Tempo, 767165
1, 147120, Tempo, 458015
1, 147160, Tempo, 463320
1, 147200, Tempo, 468750
1, 147240, Tempo, 474308
1, 147280, Tempo, 480000
1, 147320, Tempo, 485830
1, 147360, Tempo, 667111
1, 147600, Tempo, 594059
1, 147840, Tempo, 618557
1, 148080, Tempo, 656312
1, 148320, Tempo, 609137
1, 148560, Tempo, 594059
1, 148800, Tempo, 618557
1, 149040, Tempo, 634249
1, 149280, Tempo, 650759
1, 149520, Tempo, 692841
1, 149760, Key_signature, -5, "major"
1, 149760, Tempo, 609137
1, 150000, Tempo, 579710
1, 150240, Tempo, 625000
1, 150480, Tempo, 606061
1, 150720, Tempo, 634921
1, 150960, Tempo, 628272
1, 151200, Tempo, 603015
1, 151440, Tempo, 585366
1, 151680, Tempo, 638298
1, 151920, Tempo, 606061
1, 152160, Tempo, 618557
1, 152400, Tempo, 648649
1, 152640, Tempo, 621762
1, 152880, Tempo, 600000
1, 153120, Tempo, 631579
1, 153360, Tempo, 615385
1, 153600, Tempo, 628272
1, 154080, Tempo, 681818
1, 154320, Tempo, 566038
1, 154560, Tempo, 719424
1, 154800, Tempo, 645161
1, 155040, Tempo, 662252
1, 155280, Tempo, 686499
1, 155520, Tempo, 619003
1, 155760, Tempo, 447761
1, 155800, Tempo, 452830
1, 155840, Tempo, 458015
1, 155880, Tempo, 465116
1, 155920, Tempo, 470588
1, 155960, Tempo, 478088
1, 156000, Tempo, 670766
1, 156240, Tempo, 591133
1, 156480, Tempo, 603015
1, 156720, Tempo, 656312
1, 156960, Tempo, 619003
1, 157200, Tempo, 447761
1, 157240, Tempo, 452830
1, 157280, Tempo, 459770
1, 157320, Tempo, 465116
1, 157360, Tempo, 472441
1, 157400, Tempo, 480000
1, 157440, Tempo, 667111
1, 157680, Tempo, 588235
1, 157920, Tempo, 603015
1, 158160, Tempo, 689576
1, 158400, Tempo, 619003
1, 158640, Tempo, 451128
1, 158680, Tempo, 454545
1, 158720, Tempo, 459770
1, 158760, Tempo, 465116
1, 158800, Tempo, 470588
1, 158840, Tempo, 476190
1, 158880, Tempo, 667111
1, 159120, Tempo, 579710
1, 159360, Tempo, 603015
1, 159600, Tempo, 656312
1, 159840, Tempo, 619003
1, 160080, Tempo, 459770
1, 160120, Tempo, 465116
1, 160160, Tempo, 470588
1, 160200, Tempo, 476190
1, 160240, Tempo, 481928
1, 160280, Tempo, 487805
1, 160320, Tempo, 670766
1, 160560, Tempo, 600000
1, 160800, Tempo, 618557
1, 161040, Tempo, 652955
1, 161280, Tempo, 722892
1, 161520, Tempo, 677966
1, 161541, Tempo, 699301
1, 161798, Tempo, 692841
1, 162038, Tempo, 686499
1, 162278, Tempo, 680272
1, 162518, Tempo, 674157
1, 162741, Tempo, 656455
1, 162760, Tempo, 655738
1, 162775, Tempo, 662252
1, 162826, Tempo, 668151
1, 162861, Tempo, 674157
1, 162912, Tempo, 680272
1, 162946, Tempo, 686499
1, 162981, Tempo, 692841
1, 163032, Tempo, 699301
1, 163066, Tempo, 705882
1, 163101, Tempo, 712589
1, 163152, Tempo, 719424
1, 163186, Tempo, 726392
1, 163221, Tempo, 733496
1, 163238, Tempo, 680272
1, 163255, Tempo, 712589
1, 163289, Tempo, 719424
1, 163324, Tempo, 726392
1, 163358, Tempo, 733496
1, 163375, Tempo, 740741
1, 163409, Tempo, 748130
1, 163444, Tempo, 755668
1, 163478, Tempo, 763359
1, 163495, Tempo, 771208
1, 163529, Tempo, 779221
1, 163564, Tempo, 787402
1, 163598, Tempo, 795756
1, 163615, Tempo, 804290
1, 163649, Tempo, 813008
1, 163684, Tempo, 821918
1, 163701, Tempo, 831025
1, 163718, Tempo, 840336
1, 163735, Tempo, 849858
1, 163752, Tempo, 859599
1, 163769, Tempo, 879765
1, 163786, Tempo, 890208
1, 163804, Tempo, 900901
1, 163821, Tempo, 911854
1, 163838, Tempo, 923077
1, 163855, Tempo, 946372
1, 163872, Tempo, 958466
1, 163889, Tempo, 970874
1, 163906, Tempo, 983607
1, 163924, Tempo, 996678
1, 163941, Tempo, 1023891
1, 163958, Tempo, 1038062
1, 163975, Tempo, 1052632
1, 163992, Tempo, 1067616
1, 164009, Tempo, 1083032
1, 164026, Tempo, 1115242
1, 164040, Tempo, 1435407
1, 164160, Tempo, 733496
1, 165600, Tempo, 857143
1, 167040, Tempo, 625000
1, 167040, End_track
2, 0, Start_track
2, 0, Title_t, "Piano right"
2, 0, Program_c, 0, 0
2, 0, Control_c, 0, 7, 100
2, 0, Control_c, 0, 10, 64
2, 0, Text_t, "bdca426d104a26ac9dcb070447587523"
2, 0, Control_c, 0, 91, 127
2, 240, Note_on_c, 0, 68, 39
2, 320, Note_on_c, 0, 65, 39
2, 340, Note_on_c, 0, 68, 0
2, 400, Note_on_c, 0, 61, 39
2, 420, Note_on_c, 0, 65, 0
2, 480, Note_on_c, 0, 56, 44
2, 500, Note_on_c, 0, 61, 0
2, 600, Note_on_c, 0, 56, 0
2, 720, Note_on_c, 0, 56, 33
2, 720, Note_on_c, 0, 68, 40
2, 720, Note_on_c, 0, 61, 33
2, 720, Note_on_c, 0, 65, 39
2, 1200, Note_on_c, 0, 65, 0
2, 1200, Note_on_c, 0, 56, 0
2, 1200, Note_on_c, 0, 68, 0
2, 1200, Note_on_c, 0, 61, 0
2, 1200, Note_on_c, 0, 56, 36
2, 1200, Note_on_c, 0, 59, 36
2, 1200, Note_on_c, 0, 68, 43
2, 1200, Note_on_c, 0, 65, 43
2, 1440, Note_on_c, 0, 65, 0
2, 1440, Note_on_c, 0, 56, 0
2, 1440, Note_on_c, 0, 59, 0
2, 1440, Note_on_c, 0, 68, 0
2, 1680, Note_on_c, 0, 68, 39
2, 1760, Note_on_c, 0, 66, 39
2, 1780, Note_on_c, 0, 68, 0
2, 1840, Note_on_c, 0, 60, 39
2, 1860, Note_on_c, 0, 66, 0
2, 1920, Note_on_c, 0, 56, 44
2, 1940, Note_on_c, 0, 60, 0
2, 2040, Note_on_c, 0, 56, 0
2, 2160, Note_on_c, 0, 66, 41
2, 2160, Note_on_c, 0, 68, 42
2, 2160, Note_on_c, 0, 60, 34
2, 2160, Note_on_c, 0, 56, 34
2, 2640, Note_on_c, 0, 56, 0
2, 2640, Note_on_c, 0, 66, 0
2, 2640, Note_on_c, 0, 68, 0
2, 2640, Note_on_c, 0, 60, 0
2, 2640, Note_on_c, 0, 56, 32
2, 2640, Note_on_c, 0, 68, 38
2, 2640, Note_on_c, 0, 64, 38
2, 2880, Note_on_c, 0, 64, 0
2, 2880, Note_on_c, 0, 68, 0
2, 2880, Note_on_c, 0, 56, 0
2, 3120, Note_on_c, 0, 68, 27
2, 3200, Note_on_c, 0, 65, 27
2, 3220, Note_on_c, 0, 68, 0
2, 3280, Note_on_c, 0, 61, 27
2, 3300, Note_on_c, 0, 65, 0
2, 3360, Note_on_c, 0, 56, 30
2, 3380, Note_on_c, 0, 61, 0
2, 3480, Note_on_c, 0, 56, 0
2, 3600, Note_on_c, 0, 65, 27
2, 3600, Note_on_c, 0, 68, 29
2, 3600, Note_on_c, 0, 61, 27
2, 3600, Note_on_c, 0, 56, 27
2, 4080, Note_on_c, 0, 56, 0
2, 4080, Note_on_c, 0, 65, 0
2, 4080, Note_on_c, 0, 68, 0
2, 4080, Note_on_c, 0, 61, 0
2, 4080, Note_on_c, 0, 56, 26
2, 4080, Note_on_c, 0, 68, 26
2, 4080, Note_on_c, 0, 65, 26
2, 4080, Note_on_c, 0, 59, 26
2, 4320, Note_on_c, 0, 59, 0
2, 4320, Note_on_c, 0, 56, 0
2, 4320, Note_on_c, 0, 68, 0
2, 4320, Note_on_c, 0, 65, 0
2, 4560, Note_on_c, 0, 68, 27
2, 4640, Note_on_c, 0, 66, 27
2, 4660, Note_on_c, 0, 68, 0
2, 4720, Note_on_c, 0, 60, 27
2, 4740, Note_on_c, 0, 66, 0
2, 4800, Note_on_c, 0, 56, 30
2, 4820, Note_on_c, 0, 60, 0
2, 4920, Note_on_c, 0, 56, 0
2, 5040, Note_on_c, 0, 60, 31
2, 5040, Note_on_c, 0, 68, 33
2, 5040, Note_on_c, 0, 66, 31
2, 5040, Note_on_c, 0, 56, 31
2, 5520, Note_on_c, 0, 56, 0
2, 5520, Note_on_c, 0, 60, 0
2, 5520, Note_on_c, 0, 68, 0
2, 5520, Note_on_c, 0, 66, 0
2, 5520, Note_on_c, 0, 68, 31
2, 5520, Note_on_c, 0, 64, 31
2, 5520, Note_on_c, 0, 56, 31
2, 5740, Note_on_c, 0, 56, 0
2, 5740, Note_on_c, 0, 64, 0
2, 5740, Note_on_c, 0, 68, 0
2, 5760, Note_on_c, 0, 77, 46
2, 5760, Note_on_c, 0, 65, 45
2, 6000, Note_on_c, 0, 65, 0
2, 6000, Note_on_c, 0, 77, 0
2, 6240, Note_on_c, 0, 65, 45
2, 6240, Note_on_c, 0, 77, 47
2, 6960, Note_on_c, 0, 77, 0
2, 6960, Note_on_c, 0, 65, 0
2, 6960, Note_on_c, 0, 77, 41
2, 6960, Note_on_c, 0, 65, 41
2, 7200, Note_on_c, 0, 65, 0
2, 7200, Note_on_c, 0, 77, 0
2, 7200, Note_on_c, 0, 65, 46
2, 7200, Note_on_c, 0, 77, 46
2, 7560, Note_on_c, 0, 77, 0
2, 7560, Note_on_c, 0, 65, 0
2, 7560, Note_on_c, 0, 80, 43
2, 7560, Note_on_c, 0, 68, 43
2, 7680, Note_on_c, 0, 68, 0
2, 7680, Note_on_c, 0, 80, 0
2, 7680, Note_on_c, 0, 80, 43
2, 7680, Note_on_c, 0, 68, 43
2, 8640, Note_on_c, 0, 68, 0
2, 8640, Note_on_c, 0, 80, 0
2, 8880, Note_on_c, 0, 78, 55
2, 8880, Note_on_c, 0, 66, 55
2, 9120, Note_on_c, 0, 80, 58
2, 9120, Note_on_c, 0, 68, 58
2, 9140, Note_on_c, 0, 66, 0
2, 9140, Note_on_c, 0, 78, 0
2, 9360, Note_on_c, 0, 70, 61
2, 9360, Note_on_c, 0, 82, 61
2, 9380, Note_on_c, 0, 80, 0
2, 9380, Note_on_c, 0, 68, 0
2, 9600, Note_on_c, 0, 73, 64
2, 9600, Note_on_c, 0, 85, 64
2, 9620, Note_on_c, 0, 70, 0
2, 9620, Note_on_c, 0, 82, 0
2, 9840, Note_on_c, 0, 72, 62
2, 9840, Note_on_c, 0, 84, 62
2, 9860, Note_on_c, 0, 73, 0
2, 9860, Note_on_c, 0, 85, 0
2, 10080, Note_on_c, 0, 75, 71
2, 10080, Note_on_c, 0, 87, 71
2, 10100, Note_on_c, 0, 72, 0
2, 10100, Note_on_c, 0, 84, 0
2, 10320, Note_on_c, 0, 70, 56
2, 10320, Note_on_c, 0, 82, 56
2, 10340, Note_on_c, 0, 75, 0
2, 10340, Note_on_c, 0, 87, 0
2, 10560, Note_on_c, 0, 80, 55
2, 10560, Note_on_c, 0, 68, 55
2, 10580, Note_on_c, 0, 70, 0
2, 10580, Note_on_c, 0, 82, 0
2, 11520, Note_on_c, 0, 80, 0
2, 11520, Note_on_c, 0, 68, 0
2, 11520, Note_on_c, 0, 77, 53
2, 11520, Note_on_c, 0, 65, 53
2, 11760, Note_on_c, 0, 65, 0
2, 11760, Note_on_c, 0, 77, 0
2, 12000, Note_on_c, 0, 77, 53
2, 12000, Note_on_c, 0, 65, 53
2, 12720, Note_on_c, 0, 65, 0
2, 12720, Note_on_c, 0, 77, 0
2, 12720, Note_on_c, 0, 77, 49
2, 12720, Note_on_c, 0, 65, 49
2, 12960, Note_on_c, 0, 65, 0
2, 12960, Note_on_c, 0, 77, 0
2, 12960, Note_on_c, 0, 65, 55
2, 12960, Note_on_c, 0, 77, 55
2, 13320, Note_on_c, 0, 77, 0
2, 13320, Note_on_c, 0, 65, 0
2, 13320, Note_on_c, 0, 80, 51
2, 13320, Note_on_c, 0, 68, 51
2, 13440, Note_on_c, 0, 68, 0
2, 13440, Note_on_c, 0, 80, 0
2, 13440, Note_on_c, 0, 68, 51
2, 13440, Note_on_c, 0, 80, 51
2, 14400, Note_on_c, 0, 80, 0
2, 14400, Note_on_c, 0, 68, 0
2, 14640, Note_on_c, 0, 78, 55
2, 14640, Note_on_c, 0, 66, 55
2, 14880, Note_on_c, 0, 68, 58
2, 14880, Note_on_c, 0, 80, 58
2, 14900, Note_on_c, 0, 66, 0
2, 14900, Note_on_c, 0, 78, 0
2, 15120, Note_on_c, 0, 82, 61
2, 15120, Note_on_c, 0, 70, 61
2, 15140, Note_on_c, 0, 68, 0
2, 15140, Note_on_c, 0, 80, 0
2, 15360, Note_on_c, 0, 73, 64
2, 15360, Note_on_c, 0, 85, 64
2, 15380, Note_on_c, 0, 82, 0
2, 15380, Note_on_c, 0, 70, 0
2, 15600, Note_on_c, 0, 84, 62
2, 15600, Note_on_c, 0, 72, 62
2, 15620, Note_on_c, 0, 73, 0
2, 15620, Note_on_c, 0, 85, 0
2, 15840, Note_on_c, 0, 78, 59
2, 15840, Note_on_c, 0, 90, 68
2, 15860, Note_on_c, 0, 84, 0
2, 15860, Note_on_c, 0, 72, 0
2, 16080, Note_on_c, 0, 70, 56
2, 16080, Note_on_c, 0, 82, 56
2, 16100, Note_on_c, 0, 78, 0
2, 16100, Note_on_c, 0, 90, 0
2, 16320, Note_on_c, 0, 68, 55
2, 16320, Note_on_c, 0, 80, 55
2, 16340, Note_on_c, 0, 70, 0
2, 16340, Note_on_c, 0, 82, 0
2, 17280, Note_on_c, 0, 68, 0
2, 17280, Note_on_c, 0, 80, 0
2, 17280, Note_on_c, 0, 85, 58
2, 17280, Note_on_c, 0, 73, 58
2, 17520, Note_on_c, 0, 73, 0
2, 17520, Note_on_c, 0, 85, 0
2, 17760, Note_on_c, 0, 73, 58
2, 17760, Note_on_c, 0, 85, 58
2, 18480, Note_on_c, 0, 85, 0
2, 18480, Note_on_c, 0, 73, 0
2, 18480, Note_on_c, 0, 84, 53
2, 18480, Note_on_c, 0, 72, 53
2, 18720, Note_on_c, 0, 72, 0
2, 18720, Note_on_c, 0, 84, 0
2, 18720, Note_on_c, 0, 84, 58
2, 18720, Note_on_c, 0, 72, 58
2, 19200, Note_on_c, 0, 72, 0
2, 19200, Note_on_c, 0, 84, 0
2, 19200, Note_on_c, 0, 82, 55
2, 19200, Note_on_c, 0, 70, 55
2, 19440, Note_on_c, 0, 70, 0
2, 19440, Note_on_c, 0, 82, 0
2, 19440, Note_on_c, 0, 77, 55
2, 19440, Note_on_c, 0, 65, 55
2, 19680, Note_on_c, 0, 65, 0
2, 19680, Note_on_c, 0, 77, 0
2, 19680, Note_on_c, 0, 68, 58
2, 19680, Note_on_c, 0, 80, 58
2, 19920, Note_on_c, 0, 80, 0
2, 19920, Note_on_c, 0, 68, 0
2, 19920, Note_on_c, 0, 82, 53
2, 19920, Note_on_c, 0, 70, 53
2, 20160, Note_on_c, 0, 70, 0
2, 20160, Note_on_c, 0, 82, 0
2, 20160, Note_on_c, 0, 80, 58
2, 20160, Note_on_c, 0, 68, 58
2, 20640, Note_on_c, 0, 68, 0
2, 20640, Note_on_c, 0, 80, 0
2, 20640, Note_on_c, 0, 66, 58
2, 20640, Note_on_c, 0, 78, 58
2, 20880, Note_on_c, 0, 78, 0
2, 20880, Note_on_c, 0, 66, 0
2, 20880, Note_on_c, 0, 71, 57
2, 20880, Note_on_c, 0, 74, 57
2, 21060, Note_on_c, 0, 74, 0
2, 21060, Note_on_c, 0, 71, 0
2, 21060, Note_on_c, 0, 71, 53
2, 21120, Note_on_c, 0, 78, 58
2, 21360, Note_on_c, 0, 78, 0
2, 21360, Note_on_c, 0, 71, 0
2, 21360, Note_on_c, 0, 71, 54
2, 21360, Note_on_c, 0, 77, 54
2, 21540, Note_on_c, 0, 77, 0
2, 21540, Note_on_c, 0, 71, 0
2, 21540, Note_on_c, 0, 66, 41
2, 21600, Note_on_c, 0, 77, 56
2, 22080, Note_on_c, 0, 77, 0
2, 22080, Note_on_c, 0, 75, 56
2, 23040, Note_on_c, 0, 75, 0
2, 23040, Note_on_c, 0, 66, 0
2, 23040, Note_on_c, 0, 67, 47
2, 23040, Note_on_c, 0, 73, 56
2, 23040, Note_on_c, 0, 65, 47
2, 23280, Note_on_c, 0, 65, 0
2, 23280, Note_on_c, 0, 73, 0
2, 23280, Note_on_c, 0, 67, 0
2, 23280, Note_on_c, 0, 67, 45
2, 23280, Note_on_c, 0, 63, 45
2, 23280, Note_on_c, 0, 72, 53
2, 23520, Note_on_c, 0, 72, 0
2, 23520, Note_on_c, 0, 63, 0
2, 23520, Note_on_c, 0, 67, 0
2, 23520, Note_on_c, 0, 61, 45
2, 23520, Note_on_c, 0, 72, 53
2, 23520, Note_on_c, 0, 67, 45
2, 24000, Note_on_c, 0, 67, 0
2, 24000, Note_on_c, 0, 72, 0
2, 24000, Note_on_c, 0, 61, 0
2, 24000, Note_on_c, 0, 61, 47
2, 24000, Note_on_c, 0, 67, 47
2, 24000, Note_on_c, 0, 70, 56
2, 24180, Note_on_c, 0, 70, 0
2, 24180, Note_on_c, 0, 67, 0
2, 24180, Note_on_c, 0, 61, 0
2, 24180, Note_on_c, 0, 61, 35
2, 24210, Note_on_c, 0, 67, 42
2, 24240, Note_on_c, 0, 75, 55
2, 24480, Note_on_c, 0, 75, 0
2, 24480, Note_on_c, 0, 67, 0
2, 24480, Note_on_c, 0, 61, 0
2, 24480, Note_on_c, 0, 63, 54
2, 24480, Note_on_c, 0, 68, 54
2, 24720, Note_on_c, 0, 68, 0
2, 24720, Note_on_c, 0, 63, 0
2, 24720, Note_on_c, 0, 65, 49
2, 24720, Note_on_c, 0, 70, 49
2, 24960, Note_on_c, 0, 70, 0
2, 24960, Note_on_c, 0, 65, 0
2, 24960, Note_on_c, 0, 73, 54
2, 24960, Note_on_c, 0, 68, 54
2, 25200, Note_on_c, 0, 68, 0
2, 25200, Note_on_c, 0, 73, 0
2, 25200, Note_on_c, 0, 67, 50
2, 25200, Note_on_c, 0, 72, 50
2, 25380, Note_on_c, 0, 72, 0
2, 25380, Note_on_c, 0, 67, 0
2, 25380, Note_on_c, 0, 68, 50
2, 25440, Note_on_c, 0, 75, 55
2, 25680, Note_on_c, 0, 75, 0
2, 25680, Note_on_c, 0, 68, 0
2, 25680, Note_on_c, 0, 72, 50
2, 25680, Note_on_c, 0, 67, 50
2, 25860, Note_on_c, 0, 67, 0
2, 25860, Note_on_c, 0, 72, 0
2, 25860, Note_on_c, 0, 61, 41
2, 25890, Note_on_c, 0, 67, 41
2, 25920, Note_on_c, 0, 73, 56
2, 26400, Note_on_c, 0, 73, 0
2, 26400, Note_on_c, 0, 67, 0
2, 26400, Note_on_c, 0, 61, 0
2, 26400, Note_on_c, 0, 67, 55
2, 26400, Note_on_c, 0, 65, 55
2, 26400, Note_on_c, 0, 73, 55
2, 26880, Note_on_c, 0, 73, 0
2, 26880, Note_on_c, 0, 65, 0
2, 26880, Note_on_c, 0, 67, 0
2, 26880, Note_on_c, 0, 61, 52
2, 26880, Note_on_c, 0, 72, 52
2, 26880, Note_on_c, 0, 67, 52
2, 27360, Note_on_c, 0, 67, 0
2, 27360, Note_on_c, 0, 72, 0
2, 27360, Note_on_c, 0, 61, 0
2, 27360, Note_on_c, 0, 68, 54
2, 27360, Note_on_c, 0, 63, 48
2, 27600, Note_on_c, 0, 63, 0
2, 27600, Note_on_c, 0, 68, 0
2, 27600, Note_on_c, 0, 65, 48
2, 27600, Note_on_c, 0, 70, 54
2, 27840, Note_on_c, 0, 70, 0
2, 27840, Note_on_c, 0, 65, 0
2, 27840, Note_on_c, 0, 72, 59
2, 27840, Note_on_c, 0, 66, 53
2, 28080, Note_on_c, 0, 66, 0
2, 28080, Note_on_c, 0, 72, 0
2, 28080, Note_on_c, 0, 72, 54
2, 28080, Note_on_c, 0, 78, 59
2, 28320, Note_on_c, 0, 78, 0
2, 28320, Note_on_c, 0, 72, 0
2, 28320, Note_on_c, 0, 72, 52
2, 28320, Note_on_c, 0, 77, 58
2, 28560, Note_on_c, 0, 77, 0
2, 28560, Note_on_c, 0, 72, 0
2, 28560, Note_on_c, 0, 72, 45
2, 28560, Note_on_c, 0, 76, 54
2, 28800, Note_on_c, 0, 76, 0
2, 28800, Note_on_c, 0, 72, 0
2, 28800, Note_on_c, 0, 65, 50
2, 28800, Note_on_c, 0, 77, 56
2, 29040, Note_on_c, 0, 77, 0
2, 29040, Note_on_c, 0, 65, 0
2, 29280, Note_on_c, 0, 65, 55
2, 29280, Note_on_c, 0, 77, 62
2, 30000, Note_on_c, 0, 77, 0
2, 30000, Note_on_c, 0, 65, 0
2, 30000, Note_on_c, 0, 77, 63
2, 30000, Note_on_c, 0, 65, 56
2, 30240, Note_on_c, 0, 65, 0
2, 30240, Note_on_c, 0, 77, 0
2, 30240, Note_on_c, 0, 65, 61
2, 30240, Note_on_c, 0, 77, 68
2, 30600, Note_on_c, 0, 77, 0
2, 30600, Note_on_c, 0, 65, 0
2, 30600, Note_on_c, 0, 68, 61
2, 30600, Note_on_c, 0, 80, 68
2, 30720, Note_on_c, 0, 80, 0
2, 30720, Note_on_c, 0, 68, 0
2, 30720, Note_on_c, 0, 68, 61
2, 30720, Note_on_c, 0, 80, 68
2, 31680, Note_on_c, 0, 80, 0
2, 31680, Note_on_c, 0, 68, 0
2, 31920, Note_on_c, 0, 78, 69
2, 31920, Note_on_c, 0, 66, 61
2, 32160, Note_on_c, 0, 68, 63
2, 32160, Note_on_c, 0, 80, 71
2, 32180, Note_on_c, 0, 66, 0
2, 32180, Note_on_c, 0, 78, 0
2, 32400, Note_on_c, 0, 82, 73
2, 32400, Note_on_c, 0, 70, 66
2, 32420, Note_on_c, 0, 68, 0
2, 32420, Note_on_c, 0, 80, 0
2, 32640, Note_on_c, 0, 73, 69
2, 32640, Note_on_c, 0, 85, 77
2, 32660, Note_on_c, 0, 82, 0
2, 32660, Note_on_c, 0, 70, 0
2, 32880, Note_on_c, 0, 84, 72
2, 32880, Note_on_c, 0, 72, 64
2, 32900, Note_on_c, 0, 73, 0
2, 32900, Note_on_c, 0, 85, 0
2, 33120, Note_on_c, 0, 87, 83
2, 33120, Note_on_c, 0, 75, 72
2, 33140, Note_on_c, 0, 84, 0
2, 33140, Note_on_c, 0, 72, 0
2, 33360, Note_on_c, 0, 70, 62
2, 33360, Note_on_c, 0, 82, 70
2, 33380, Note_on_c, 0, 87, 0
2, 33380, Note_on_c, 0, 75, 0
2, 33600, Note_on_c, 0, 80, 66
2, 33600, Note_on_c, 0, 68, 59
2, 33620, Note_on_c, 0, 70, 0
2, 33620, Note_on_c, 0, 82, 0
2, 34560, Note_on_c, 0, 80, 0
2, 34560, Note_on_c, 0, 68, 0
2, 34560, Note_on_c, 0, 77, 45
2, 34560, Note_on_c, 0, 65, 45
2, 34800, Note_on_c, 0, 65, 0
2, 34800, Note_on_c, 0, 77, 0
2, 35040, Note_on_c, 0, 65, 45
2, 35040, Note_on_c, 0, 77, 45
2, 35760, Note_on_c, 0, 77, 0
2, 35760, Note_on_c, 0, 65, 0
2, 35760, Note_on_c, 0, 65, 41
2, 35760, Note_on_c, 0, 77, 41
2, 36000, Note_on_c, 0, 77, 0
2, 36000, Note_on_c, 0, 65, 0
2, 36000, Note_on_c, 0, 65, 46
2, 36000, Note_on_c, 0, 77, 46
2, 36360, Note_on_c, 0, 77, 0
2, 36360, Note_on_c, 0, 65, 0
2, 36360, Note_on_c, 0, 68, 43
2, 36360, Note_on_c, 0, 80, 43
2, 36480, Note_on_c, 0, 80, 0
2, 36480, Note_on_c, 0, 68, 0
2, 36480, Note_on_c, 0, 80, 43
2, 36480, Note_on_c, 0, 68, 43
2, 37440, Note_on_c, 0, 68, 0
2, 37440, Note_on_c, 0, 80, 0
2, 37680, Note_on_c, 0, 78, 55
2, 37680, Note_on_c, 0, 66, 55
2, 37920, Note_on_c, 0, 80, 57
2, 37920, Note_on_c, 0, 68, 57
2, 37940, Note_on_c, 0, 66, 0
2, 37940, Note_on_c, 0, 78, 0
2, 38160, Note_on_c, 0, 82, 59
2, 38160, Note_on_c, 0, 70, 59
2, 38180, Note_on_c, 0, 80, 0
2, 38180, Note_on_c, 0, 68, 0
2, 38400, Note_on_c, 0, 73, 61
2, 38400, Note_on_c, 0, 85, 61
2, 38420, Note_on_c, 0, 82, 0
2, 38420, Note_on_c, 0, 70, 0
2, 38640, Note_on_c, 0, 84, 58
2, 38640, Note_on_c, 0, 72, 58
2, 38660, Note_on_c, 0, 73, 0
2, 38660, Note_on_c, 0, 85, 0
2, 38880, Note_on_c, 0, 78, 65
2, 38880, Note_on_c, 0, 90, 65
2, 38900, Note_on_c, 0, 84, 0
2, 38900, Note_on_c, 0, 72, 0
2, 39120, Note_on_c, 0, 70, 56
2, 39120, Note_on_c, 0, 82, 56
2, 39140, Note_on_c, 0, 78, 0
2, 39140, Note_on_c, 0, 90, 0
2, 39360, Note_on_c, 0, 68, 55
2, 39360, Note_on_c, 0, 80, 55
2, 39380, Note_on_c, 0, 70, 0
2, 39380, Note_on_c, 0, 82, 0
2, 39840, Note_on_c, 0, 68, 0
2, 39840, Note_on_c, 0, 80, 0
2, 39840, Note_on_c, 0, 69, 33
2, 39840, Note_on_c, 0, 75, 33
2, 39840, Note_on_c, 0, 80, 40
2, 40080, Note_on_c, 0, 75, 0
2, 40080, Note_on_c, 0, 69, 0
2, 40080, Note_on_c, 0, 79, 37
2, 40100, Note_on_c, 0, 80, 0
2, 40320, Note_on_c, 0, 79, 0
2, 40320, Note_on_c, 0, 68, 45
2, 40320, Note_on_c, 0, 80, 49
2, 40560, Note_on_c, 0, 80, 0
2, 40560, Note_on_c, 0, 68, 0
2, 40800, Note_on_c, 0, 68, 52
2, 40800, Note_on_c, 0, 80, 52
2, 41520, Note_on_c, 0, 80, 0
2, 41520, Note_on_c, 0, 68, 0
2, 41520, Note_on_c, 0, 80, 53
2, 41520, Note_on_c, 0, 68, 53
2, 41760, Note_on_c, 0, 68, 0
2, 41760, Note_on_c, 0, 80, 0
2, 41760, Note_on_c, 0, 71, 52
2, 41760, Note_on_c, 0, 83, 58
2, 42000, Note_on_c, 0, 83, 0
2, 42000, Note_on_c, 0, 71, 0
2, 42000, Note_on_c, 0, 69, 52
2, 42000, Note_on_c, 0, 81, 58
2, 42240, Note_on_c, 0, 81, 0
2, 42240, Note_on_c, 0, 69, 0
2, 42240, Note_on_c, 0, 85, 65
2, 42240, Note_on_c, 0, 73, 58
2, 42480, Note_on_c, 0, 73, 0
2, 42480, Note_on_c, 0, 85, 0
2, 42480, Note_on_c, 0, 75, 54
2, 42480, Note_on_c, 0, 87, 61
2, 42720, Note_on_c, 0, 87, 0
2, 42720, Note_on_c, 0, 75, 0
2, 42720, Note_on_c, 0, 80, 64
2, 42720, Note_on_c, 0, 92, 72
2, 42960, Note_on_c, 0, 92, 0
2, 42960, Note_on_c, 0, 80, 0
2, 42960, Note_on_c, 0, 78, 61
2, 42960, Note_on_c, 0, 90, 68
2, 43200, Note_on_c, 0, 90, 0
2, 43200, Note_on_c, 0, 78, 0
2, 43200, Note_on_c, 0, 80, 49
2, 43200, Note_on_c, 0, 68, 49
2, 43440, Note_on_c, 0, 68, 0
2, 43440, Note_on_c, 0, 80, 0
2, 43680, Note_on_c, 0, 68, 49
2, 43680, Note_on_c, 0, 80, 49
2, 44400, Note_on_c, 0, 80, 0
2, 44400, Note_on_c, 0, 68, 0
2, 44400, Note_on_c, 0, 80, 45
2, 44400, Note_on_c, 0, 68, 45
2, 44640, Note_on_c, 0, 68, 0
2, 44640, Note_on_c, 0, 80, 0
2, 44640, Note_on_c, 0, 83, 49
2, 44640, Note_on_c, 0, 71, 49
2, 44880, Note_on_c, 0, 71, 0
2, 44880, Note_on_c, 0, 83, 0
2, 44880, Note_on_c, 0, 81, 49
2, 44880, Note_on_c, 0, 69, 49
2, 45120, Note_on_c, 0, 69, 0
2, 45120, Note_on_c, 0, 81, 0
2, 45120, Note_on_c, 0, 73, 51
2, 45120, Note_on_c, 0, 85, 51
2, 45360, Note_on_c, 0, 85, 0
2, 45360, Note_on_c, 0, 73, 0
2, 45360, Note_on_c, 0, 75, 48
2, 45360, Note_on_c, 0, 87, 48
2, 45540, Note_on_c, 0, 87, 0
2, 45540, Note_on_c, 0, 75, 0
2, 45540, Note_on_c, 0, 80, 48
2, 45600, Note_on_c, 0, 92, 55
2, 45840, Note_on_c, 0, 92, 0
2, 45840, Note_on_c, 0, 80, 0
2, 45840, Note_on_c, 0, 90, 52
2, 45840, Note_on_c, 0, 78, 52
2, 46080, Note_on_c, 0, 78, 0
2, 46080, Note_on_c, 0, 90, 0
2, 46080, Note_on_c, 0, 80, 63
2, 46080, Note_on_c, 0, 68, 53
2, 46560, Note_on_c, 0, 68, 0
2, 46560, Note_on_c, 0, 80, 0
2, 46560, Note_on_c, 0, 80, 58
2, 46560, Note_on_c, 0, 68, 49
2, 46560, Note_on_c, 0, 78, 58
2, 47040, Note_on_c, 0, 78, 0
2, 47040, Note_on_c, 0, 68, 0
2, 47040, Note_on_c, 0, 80, 0
2, 47040, Note_on_c, 0, 68, 56
2, 47040, Note_on_c, 0, 76, 66
2, 47040, Note_on_c, 0, 80, 66
2, 47520, Note_on_c, 0, 76, 0
2, 47520, Note_on_c, 0, 77, 66
2, 47760, Note_on_c, 0, 77, 0
2, 47760, Note_on_c, 0, 80, 0
2, 47760, Note_on_c, 0, 68, 0
2, 47760, Note_on_c, 0, 72, 57
2, 47760, Note_on_c, 0, 66, 48
2, 47760, Note_on_c, 0, 75, 57
2, 48000, Note_on_c, 0, 75, 0
2, 48000, Note_on_c, 0, 66, 0
2, 48000, Note_on_c, 0, 72, 0
2, 48000, Note_on_c, 0, 65, 53
2, 48000, Note_on_c, 0, 73, 63
2, 48240, Note_on_c, 0, 73, 0
2, 48240, Note_on_c, 0, 65, 0
2, 48240, Note_on_c, 0, 72, 56
2, 48240, Note_on_c, 0, 69, 56
2, 48240, Note_on_c, 0, 63, 47
2, 48480, Note_on_c, 0, 63, 0
2, 48480, Note_on_c, 0, 69, 0
2, 48480, Note_on_c, 0, 72, 0
2, 48480, Note_on_c, 0, 61, 51
2, 48480, Note_on_c, 0, 70, 60
2, 48720, Note_on_c, 0, 70, 0
2, 48720, Note_on_c, 0, 61, 0
2, 48720, Note_on_c, 0, 68, 53
2, 48720, Note_on_c, 0, 65, 53
2, 48960, Note_on_c, 0, 65, 0
2, 48960, Note_on_c, 0, 68, 0
2, 48960, Note_on_c, 0, 66, 58
2, 49200, Note_on_c, 0, 66, 0
2, 49200, Note_on_c, 0, 68, 55
2, 49440, Note_on_c, 0, 68, 0
2, 49440, Note_on_c, 0, 69, 55
2, 49680, Note_on_c, 0, 69, 0
2, 49680, Note_on_c, 0, 70, 60
2, 49920, Note_on_c, 0, 70, 0
2, 49920, Note_on_c, 0, 73, 65
2, 50160, Note_on_c, 0, 73, 0
2, 50160, Note_on_c, 0, 66, 58
2, 50340, Note_on_c, 0, 66, 0
2, 50340, Note_on_c, 0, 60, 50
2, 50370, Note_on_c, 0, 66, 51
2, 50400, Note_on_c, 0, 70, 58
2, 50820, Note_on_c, 0, 70, 0
2, 50820, Note_on_c, 0, 66, 0
2, 50820, Note_on_c, 0, 60, 0
2, 50820, Note_on_c, 0, 66, 48
2, 50880, Note_on_c, 0, 77, 58
2, 51600, Note_on_c, 0, 77, 0
2, 51600, Note_on_c, 0, 72, 53
2, 51840, Note_on_c, 0, 72, 0
2, 51840, Note_on_c, 0, 66, 0
2, 52080, Note_on_c, 0, 68, 46
2, 52160, Note_on_c, 0, 65, 46
2, 52180, Note_on_c, 0, 68, 0
2, 52240, Note_on_c, 0, 61, 46
2, 52260, Note_on_c, 0, 65, 0
2, 52320, Note_on_c, 0, 56, 52
2, 52340, Note_on_c, 0, 61, 0
2, 52440, Note_on_c, 0, 56, 0
2, 52560, Note_on_c, 0, 61, 39
2, 52560, Note_on_c, 0, 68, 48
2, 52560, Note_on_c, 0, 65, 46
2, 52560, Note_on_c, 0, 56, 39
2, 53040, Note_on_c, 0, 56, 0
2, 53040, Note_on_c, 0, 61, 0
2, 53040, Note_on_c, 0, 68, 0
2, 53040, Note_on_c, 0, 65, 0
2, 53040, Note_on_c, 0, 65, 51
2, 53040, Note_on_c, 0, 68, 51
2, 53040, Note_on_c, 0, 59, 43
2, 53040, Note_on_c, 0, 56, 43
2, 53280, Note_on_c, 0, 56, 0
2, 53280, Note_on_c, 0, 65, 0
2, 53280, Note_on_c, 0, 68, 0
2, 53280, Note_on_c, 0, 59, 0
2, 53520, Note_on_c, 0, 68, 46
2, 53600, Note_on_c, 0, 66, 46
2, 53620, Note_on_c, 0, 68, 0
2, 53680, Note_on_c, 0, 60, 46
2, 53700, Note_on_c, 0, 66, 0
2, 53760, Note_on_c, 0, 56, 52
2, 53780, Note_on_c, 0, 60, 0
2, 53880, Note_on_c, 0, 56, 0
2, 54000, Note_on_c, 0, 56, 41
2, 54000, Note_on_c, 0, 60, 41
2, 54000, Note_on_c, 0, 66, 49
2, 54000, Note_on_c, 0, 68, 51
2, 54480, Note_on_c, 0, 68, 0
2, 54480, Note_on_c, 0, 56, 0
2, 54480, Note_on_c, 0, 60, 0
2, 54480, Note_on_c, 0, 66, 0
2, 54480, Note_on_c, 0, 64, 45
2, 54480, Note_on_c, 0, 56, 38
2, 54480, Note_on_c, 0, 68, 45
2, 54720, Note_on_c, 0, 68, 0
2, 54720, Note_on_c, 0, 56, 0
2, 54720, Note_on_c, 0, 64, 0
2, 54960, Note_on_c, 0, 68, 27
2, 55040, Note_on_c, 0, 65, 27
2, 55060, Note_on_c, 0, 68, 0
2, 55120, Note_on_c, 0, 61, 27
2, 55140, Note_on_c, 0, 65, 0
2, 55200, Note_on_c, 0, 56, 30
2, 55220, Note_on_c, 0, 61, 0
2, 55320, Note_on_c, 0, 56, 0
2, 55440, Note_on_c, 0, 56, 27
2, 55440, Note_on_c, 0, 61, 27
2, 55440, Note_on_c, 0, 65, 27
2, 55440, Note_on_c, 0, 68, 28
2, 55920, Note_on_c, 0, 68, 0
2, 55920, Note_on_c, 0, 56, 0
2, 55920, Note_on_c, 0, 61, 0
2, 55920, Note_on_c, 0, 65, 0
2, 55920, Note_on_c, 0, 59, 26
2, 55920, Note_on_c, 0, 68, 26
2, 55920, Note_on_c, 0, 65, 26
2, 55920, Note_on_c, 0, 56, 26
2, 56160, Note_on_c, 0, 56, 0
2, 56160, Note_on_c, 0, 59, 0
2, 56160, Note_on_c, 0, 68, 0
2, 56160, Note_on_c, 0, 65, 0
2, 56400, Note_on_c, 0, 68, 27
2, 56480, Note_on_c, 0, 66, 27
2, 56500, Note_on_c, 0, 68, 0
2, 56560, Note_on_c, 0, 60, 27
2, 56580, Note_on_c, 0, 66, 0
2, 56640, Note_on_c, 0, 56, 30
2, 56660, Note_on_c, 0, 60, 0
2, 56760, Note_on_c, 0, 56, 0
2, 56880, Note_on_c, 0, 56, 31
2, 56880, Note_on_c, 0, 60, 31
2, 56880, Note_on_c, 0, 68, 31
2, 56880, Note_on_c, 0, 66, 31
2, 57360, Note_on_c, 0, 66, 0
2, 57360, Note_on_c, 0, 56, 0
2, 57360, Note_on_c, 0, 60, 0
2, 57360, Note_on_c, 0, 68, 0
2, 57360, Note_on_c, 0, 56, 31
2, 57360, Note_on_c, 0, 64, 31
2, 57360, Note_on_c, 0, 68, 31
2, 57600, Note_on_c, 0, 68, 0
2, 57600, Note_on_c, 0, 64, 0
2, 57600, Note_on_c, 0, 56, 0
2, 57600, Note_on_c, 0, 64, 40
2, 57600, Note_on_c, 0, 68, 40
2, 57720, Note_on_c, 0, 68, 0
2, 57720, Note_on_c, 0, 64, 0
2, 57840, Note_on_c, 0, 64, 41
2, 57840, Note_on_c, 0, 68, 41
2, 57960, Note_on_c, 0, 68, 0
2, 57960, Note_on_c, 0, 64, 0
2, 58080, Note_on_c, 0, 64, 40
2, 58080, Note_on_c, 0, 68, 40
2, 58200, Note_on_c, 0, 68, 0
2, 58200, Note_on_c, 0, 64, 0
2, 58320, Note_on_c, 0, 64, 42
2, 58320, Note_on_c, 0, 68, 42
2, 58440, Note_on_c, 0, 68, 0
2, 58440, Note_on_c, 0, 64, 0
2, 58560, Note_on_c, 0, 64, 45
2, 58560, Note_on_c, 0, 68, 45
2, 58680, Note_on_c, 0, 68, 0
2, 58680, Note_on_c, 0, 64, 0
2, 58800, Note_on_c, 0, 64, 48
2, 58800, Note_on_c, 0, 68, 48
2, 58920, Note_on_c, 0, 68, 0
2, 58920, Note_on_c, 0, 64, 0
2, 59040, Note_on_c, 0, 64, 50
2, 59040, Note_on_c, 0, 68, 50
2, 59160, Note_on_c, 0, 68, 0
2, 59160, Note_on_c, 0, 64, 0
2, 59280, Note_on_c, 0, 64, 45
2, 59280, Note_on_c, 0, 68, 45
2, 59400, Note_on_c, 0, 68, 0
2, 59400, Note_on_c, 0, 64, 0
2, 59520, Note_on_c, 0, 64, 47
2, 59520, Note_on_c, 0, 68, 47
2, 59640, Note_on_c, 0, 68, 0
2, 59640, Note_on_c, 0, 64, 0
2, 59760, Note_on_c, 0, 64, 32
2, 59760, Note_on_c, 0, 68, 32
2, 59880, Note_on_c, 0, 68, 0
2, 59880, Note_on_c, 0, 64, 0
2, 60000, Note_on_c, 0, 64, 29
2, 60000, Note_on_c, 0, 68, 29
2, 60120, Note_on_c, 0, 68, 0
2, 60120, Note_on_c, 0, 64, 0
2, 60240, Note_on_c, 0, 64, 28
2, 60240, Note_on_c, 0, 68, 28
2, 60360, Note_on_c, 0, 68, 0
2, 60360, Note_on_c, 0, 64, 0
2, 60480, Note_on_c, 0, 76, 33
2, 60480, Note_on_c, 0, 64, 24
2, 60480, Note_on_c, 0, 68, 24
2, 60600, Note_on_c, 0, 68, 0
2, 60600, Note_on_c, 0, 64, 0
2, 60720, Note_on_c, 0, 64, 24
2, 60720, Note_on_c, 0, 68, 24
2, 60840, Note_on_c, 0, 68, 0
2, 60840, Note_on_c, 0, 64, 0
2, 60960, Note_on_c, 0, 64, 24
2, 60960, Note_on_c, 0, 68, 24
2, 61080, Note_on_c, 0, 68, 0
2, 61080, Note_on_c, 0, 64, 0
2, 61200, Note_on_c, 0, 64, 24
2, 61200, Note_on_c, 0, 68, 24
2, 61320, Note_on_c, 0, 68, 0
2, 61320, Note_on_c, 0, 64, 0
2, 61440, Note_on_c, 0, 64, 27
2, 61440, Note_on_c, 0, 68, 27
2, 61560, Note_on_c, 0, 68, 0
2, 61560, Note_on_c, 0, 64, 0
2, 61680, Note_on_c, 0, 64, 28
2, 61680, Note_on_c, 0, 68, 28
2, 61800, Note_on_c, 0, 68, 0
2, 61800, Note_on_c, 0, 64, 0
2, 61920, Note_on_c, 0, 64, 30
2, 61920, Note_on_c, 0, 68, 30
2, 62040, Note_on_c, 0, 68, 0
2, 62040, Note_on_c, 0, 64, 0
2, 62160, Note_on_c, 0, 64, 27
2, 62160, Note_on_c, 0, 68, 27
2, 62280, Note_on_c, 0, 68, 0
2, 62280, Note_on_c, 0, 64, 0
2, 62400, Note_on_c, 0, 64, 27
2, 62400, Note_on_c, 0, 68, 27
2, 62520, Note_on_c, 0, 68, 0
2, 62520, Note_on_c, 0, 64, 0
2, 62640, Note_on_c, 0, 64, 23
2, 62640, Note_on_c, 0, 68, 23
2, 62760, Note_on_c, 0, 68, 0
2, 62760, Note_on_c, 0, 64, 0
2, 62880, Note_on_c, 0, 64, 21
2, 62880, Note_on_c, 0, 68, 21
2, 63000, Note_on_c, 0, 68, 0
2, 63000, Note_on_c, 0, 64, 0
2, 63120, Note_on_c, 0, 64, 21
2, 63120, Note_on_c, 0, 68, 21
2, 63240, Note_on_c, 0, 68, 0
2, 63240, Note_on_c, 0, 64, 0
2, 63360, Note_on_c, 0, 76, 0
2, 63360, Note_on_c, 0, 69, 54
2, 63360, Note_on_c, 0, 76, 73
2, 63600, Note_on_c, 0, 76, 0
2, 63600, Note_on_c, 0, 75, 64
2, 63680, Note_on_c, 0, 76, 63
2, 63700, Note_on_c, 0, 75, 0
2, 63760, Note_on_c, 0, 75, 63
2, 63780, Note_on_c, 0, 76, 0
2, 63840, Note_on_c, 0, 75, 0
2, 63840, Note_on_c, 0, 73, 74
2, 64080, Note_on_c, 0, 73, 0
2, 64080, Note_on_c, 0, 75, 63
2, 64320, Note_on_c, 0, 75, 0
2, 64320, Note_on_c, 0, 69, 0
2, 64320, Note_on_c, 0, 64, 50
2, 64320, Note_on_c, 0, 76, 70
2, 64560, Note_on_c, 0, 76, 0
2, 64560, Note_on_c, 0, 73, 62
2, 64800, Note_on_c, 0, 73, 0
2, 64800, Note_on_c, 0, 64, 0
2, 64800, Note_on_c, 0, 69, 38
2, 64800, Note_on_c, 0, 76, 47
2, 65040, Note_on_c, 0, 76, 0
2, 65040, Note_on_c, 0, 75, 42
2, 65120, Note_on_c, 0, 76, 41
2, 65140, Note_on_c, 0, 75, 0
2, 65200, Note_on_c, 0, 75, 41
2, 65220, Note_on_c, 0, 76, 0
2, 65280, Note_on_c, 0, 75, 0
2, 65280, Note_on_c, 0, 73, 48
2, 65520, Note_on_c, 0, 73, 0
2, 65520, Note_on_c, 0, 75, 41
2, 65760, Note_on_c, 0, 75, 0
2, 65760, Note_on_c, 0, 69, 0
2, 65760, Note_on_c, 0, 64, 35
2, 65760, Note_on_c, 0, 76, 45
2, 66000, Note_on_c, 0, 76, 0
2, 66000, Note_on_c, 0, 73, 40
2, 66240, Note_on_c, 0, 73, 0
2, 66240, Note_on_c, 0, 64, 0
2, 66240, Note_on_c, 0, 64, 38
2, 66240, Note_on_c, 0, 71, 47
2, 66480, Note_on_c, 0, 71, 0
2, 66480, Note_on_c, 0, 69, 42
2, 66560, Note_on_c, 0, 71, 41
2, 66580, Note_on_c, 0, 69, 0
2, 66640, Note_on_c, 0, 69, 41
2, 66660, Note_on_c, 0, 71, 0
2, 66720, Note_on_c, 0, 69, 0
2, 66720, Note_on_c, 0, 64, 0
2, 66720, Note_on_c, 0, 63, 35
2, 66720, Note_on_c, 0, 68, 48
2, 66960, Note_on_c, 0, 63, 0
2, 66960, Note_on_c, 0, 63, 39
2, 67200, Note_on_c, 0, 63, 0
2, 67200, Note_on_c, 0, 68, 0
2, 67200, Note_on_c, 0, 64, 41
2, 67200, Note_on_c, 0, 69, 46
2, 67440, Note_on_c, 0, 69, 0
2, 67440, Note_on_c, 0, 64, 0
2, 67440, Note_on_c, 0, 66, 44
2, 67440, Note_on_c, 0, 71, 49
2, 67680, Note_on_c, 0, 71, 0
2, 67680, Note_on_c, 0, 66, 0
2, 67680, Note_on_c, 0, 68, 46
2, 67680, Note_on_c, 0, 73, 52
2, 67920, Note_on_c, 0, 73, 0
2, 67920, Note_on_c, 0, 68, 0
2, 67920, Note_on_c, 0, 66, 44
2, 67920, Note_on_c, 0, 71, 49
2, 68160, Note_on_c, 0, 71, 0
2, 68160, Note_on_c, 0, 66, 0
2, 68160, Note_on_c, 0, 64, 43
2, 68160, Note_on_c, 0, 69, 48
2, 68400, Note_on_c, 0, 69, 0
2, 68400, Note_on_c, 0, 64, 0
2, 68400, Note_on_c, 0, 66, 41
2, 68400, Note_on_c, 0, 71, 46
2, 68640, Note_on_c, 0, 71, 0
2, 68640, Note_on_c, 0, 66, 0
2, 68640, Note_on_c, 0, 63, 40
2, 68640, Note_on_c, 0, 68, 45
2, 69120, Note_on_c, 0, 68, 0
2, 69120, Note_on_c, 0, 63, 0
2, 69120, Note_on_c, 0, 64, 30
2, 69120, Note_on_c, 0, 68, 30
2, 69240, Note_on_c, 0, 68, 0
2, 69240, Note_on_c, 0, 64, 0
2, 69360, Note_on_c, 0, 64, 30
2, 69360, Note_on_c, 0, 68, 30
2, 69480, Note_on_c, 0, 68, 0
2, 69480, Note_on_c, 0, 64, 0
2, 69600, Note_on_c, 0, 64, 30
2, 69600, Note_on_c, 0, 68, 30
2, 69720, Note_on_c, 0, 68, 0
2, 69720, Note_on_c, 0, 64, 0
2, 69840, Note_on_c, 0, 64, 31
2, 69840, Note_on_c, 0, 68, 31
2, 69960, Note_on_c, 0, 68, 0
2, 69960, Note_on_c, 0, 64, 0
2, 70080, Note_on_c, 0, 64, 34
2, 70080, Note_on_c, 0, 68, 34
2, 70200, Note_on_c, 0, 68, 0
2, 70200, Note_on_c, 0, 64, 0
2, 70320, Note_on_c, 0, 64, 36
2, 70320, Note_on_c, 0, 68, 36
2, 70440, Note_on_c, 0, 68, 0
2, 70440, Note_on_c, 0, 64, 0
2, 70560, Note_on_c, 0, 64, 38
2, 70560, Note_on_c, 0, 68, 38
2, 70680, Note_on_c, 0, 68, 0
2, 70680, Note_on_c, 0, 64, 0
2, 70800, Note_on_c, 0, 64, 34
2, 70800, Note_on_c, 0, 68, 34
2, 70920, Note_on_c, 0, 68, 0
2, 70920, Note_on_c, 0, 64, 0
2, 71040, Note_on_c, 0, 64, 35
2, 71040, Note_on_c, 0, 68, 35
2, 71160, Note_on_c, 0, 68, 0
2, 71160, Note_on_c, 0, 64, 0
2, 71280, Note_on_c, 0, 64, 25
2, 71280, Note_on_c, 0, 68, 25
2, 71400, Note_on_c, 0, 68, 0
2, 71400, Note_on_c, 0, 64, 0
2, 71520, Note_on_c, 0, 64, 24
2, 71520, Note_on_c, 0, 68, 24
2, 71640, Note_on_c, 0, 68, 0
2, 71640, Note_on_c, 0, 64, 0
2, 71760, Note_on_c, 0, 64, 23
2, 71760, Note_on_c, 0, 68, 23
2, 71880, Note_on_c, 0, 68, 0
2, 71880, Note_on_c, 0, 64, 0
2, 72000, Note_on_c, 0, 76, 33
2, 72000, Note_on_c, 0, 64, 24
2, 72000, Note_on_c, 0, 68, 24
2, 72120, Note_on_c, 0, 68, 0
2, 72120, Note_on_c, 0, 64, 0
2, 72240, Note_on_c, 0, 64, 24
2, 72240, Note_on_c, 0, 68, 24
2, 72360, Note_on_c, 0, 68, 0
2, 72360, Note_on_c, 0, 64, 0
2, 72480, Note_on_c, 0, 64, 24
2, 72480, Note_on_c, 0, 68, 24
2, 72600, Note_on_c, 0, 68, 0
2, 72600, Note_on_c, 0, 64, 0
2, 72720, Note_on_c, 0, 64, 24
2, 72720, Note_on_c, 0, 68, 24
2, 72840, Note_on_c, 0, 68, 0
2, 72840, Note_on_c, 0, 64, 0
2, 72960, Note_on_c, 0, 64, 27
2, 72960, Note_on_c, 0, 68, 27
2, 73080, Note_on_c, 0, 68, 0
2, 73080, Note_on_c, 0, 64, 0
2, 73200, Note_on_c, 0, 64, 28
2, 73200, Note_on_c, 0, 68, 28
2, 73320, Note_on_c, 0, 68, 0
2, 73320, Note_on_c, 0, 64, 0
2, 73440, Note_on_c, 0, 64, 30
2, 73440, Note_on_c, 0, 68, 30
2, 73560, Note_on_c, 0, 68, 0
2, 73560, Note_on_c, 0, 64, 0
2, 73680, Note_on_c, 0, 64, 27
2, 73680, Note_on_c, 0, 68, 27
2, 73800, Note_on_c, 0, 68, 0
2, 73800, Note_on_c, 0, 64, 0
2, 73920, Note_on_c, 0, 64, 27
2, 73920, Note_on_c, 0, 68, 27
2, 74040, Note_on_c, 0, 68, 0
2, 74040, Note_on_c, 0, 64, 0
2, 74160, Note_on_c, 0, 64, 23
2, 74160, Note_on_c, 0, 68, 23
2, 74280, Note_on_c, 0, 68, 0
2, 74280, Note_on_c, 0, 64, 0
2, 74400, Note_on_c, 0, 64, 21
2, 74400, Note_on_c, 0, 68, 21
2, 74520, Note_on_c, 0, 68, 0
2, 74520, Note_on_c, 0, 64, 0
2, 74640, Note_on_c, 0, 64, 21
2, 74640, Note_on_c, 0, 68, 21
2, 74760, Note_on_c, 0, 68, 0
2, 74760, Note_on_c, 0, 64, 0
2, 74880, Note_on_c, 0, 76, 0
2, 74880, Note_on_c, 0, 69, 54
2, 74880, Note_on_c, 0, 76, 73
2, 75120, Note_on_c, 0, 76, 0
2, 75120, Note_on_c, 0, 75, 64
2, 75200, Note_on_c, 0, 76, 63
2, 75220, Note_on_c, 0, 75, 0
2, 75280, Note_on_c, 0, 75, 63
2, 75300, Note_on_c, 0, 76, 0
2, 75360, Note_on_c, 0, 75, 0
2, 75360, Note_on_c, 0, 73, 74
2, 75600, Note_on_c, 0, 73, 0
2, 75600, Note_on_c, 0, 75, 63
2, 75840, Note_on_c, 0, 75, 0
2, 75840, Note_on_c, 0, 69, 0
2, 75840, Note_on_c, 0, 64, 50
2, 75840, Note_on_c, 0, 76, 70
2, 76080, Note_on_c, 0, 76, 0
2, 76080, Note_on_c, 0, 73, 62
2, 76320, Note_on_c, 0, 73, 0
2, 76320, Note_on_c, 0, 64, 0
2, 76320, Note_on_c, 0, 69, 38
2, 76320, Note_on_c, 0, 76, 47
2, 76560, Note_on_c, 0, 76, 0
2, 76560, Note_on_c, 0, 75, 42
2, 76640, Note_on_c, 0, 76, 41
2, 76660, Note_on_c, 0, 75, 0
2, 76720, Note_on_c, 0, 75, 41
2, 76740, Note_on_c, 0, 76, 0
2, 76800, Note_on_c, 0, 75, 0
2, 76800, Note_on_c, 0, 73, 48
2, 77040, Note_on_c, 0, 73, 0
2, 77040, Note_on_c, 0, 75, 41
2, 77280, Note_on_c, 0, 75, 0
2, 77280, Note_on_c, 0, 69, 0
2, 77280, Note_on_c, 0, 64, 35
2, 77280, Note_on_c, 0, 76, 45
2, 77520, Note_on_c, 0, 76, 0
2, 77520, Note_on_c, 0, 73, 40
2, 77760, Note_on_c, 0, 73, 0
2, 77760, Note_on_c, 0, 64, 0
2, 77760, Note_on_c, 0, 61, 34
2, 77760, Note_on_c, 0, 64, 34
2, 78000, Note_on_c, 0, 64, 0
2, 78000, Note_on_c, 0, 61, 0
2, 78000, Note_on_c, 0, 61, 30
2, 78000, Note_on_c, 0, 64, 30
2, 78240, Note_on_c, 0, 64, 0
2, 78240, Note_on_c, 0, 61, 0
2, 78240, Note_on_c, 0, 60, 34
2, 78240, Note_on_c, 0, 64, 34
2, 78480, Note_on_c, 0, 64, 0
2, 78480, Note_on_c, 0, 60, 0
2, 78480, Note_on_c, 0, 61, 30
2, 78480, Note_on_c, 0, 64, 30
2, 78720, Note_on_c, 0, 64, 0
2, 78720, Note_on_c, 0, 61, 0
2, 78720, Note_on_c, 0, 63, 48
2, 78720, Note_on_c, 0, 68, 48
2, 78960, Note_on_c, 0, 68, 0
2, 78960, Note_on_c, 0, 63, 0
2, 78960, Note_on_c, 0, 61, 44
2, 78960, Note_on_c, 0, 66, 44
2, 79080, Note_on_c, 0, 66, 0
2, 79080, Note_on_c, 0, 61, 0
2, 79140, Note_on_c, 0, 57, 41
2, 79170, Note_on_c, 0, 60, 41
2, 79200, Note_on_c, 0, 64, 48
2, 79440, Note_on_c, 0, 64, 0
2, 79440, Note_on_c, 0, 63, 42
2, 79520, Note_on_c, 0, 64, 42
2, 79540, Note_on_c, 0, 63, 0
2, 79600, Note_on_c, 0, 63, 42
2, 79620, Note_on_c, 0, 64, 0
2, 79680, Note_on_c, 0, 57, 0
2, 79680, Note_on_c, 0, 60, 0
2, 79680, Note_on_c, 0, 56, 47
2, 79680, Note_on_c, 0, 61, 47
2, 79700, Note_on_c, 0, 63, 0
2, 79920, Note_on_c, 0, 61, 0
2, 79920, Note_on_c, 0, 56, 0
2, 79920, Note_on_c, 0, 57, 45
2, 80100, Note_on_c, 0, 57, 0
2, 80100, Note_on_c, 0, 56, 45
2, 80160, Note_on_c, 0, 61, 45
2, 80640, Note_on_c, 0, 61, 0
2, 80640, Note_on_c, 0, 56, 0
2, 80640, Note_on_c, 0, 60, 36
2, 80640, Note_on_c, 0, 63, 36
2, 80880, Note_on_c, 0, 63, 0
2, 80880, Note_on_c, 0, 60, 0
2, 80880, Note_on_c, 0, 60, 36
2, 80880, Note_on_c, 0, 63, 36
2, 81120, Note_on_c, 0, 63, 0
2, 81120, Note_on_c, 0, 60, 0
2, 81120, Note_on_c, 0, 63, 36
2, 81120, Note_on_c, 0, 61, 36
2, 81360, Note_on_c, 0, 61, 0
2, 81360, Note_on_c, 0, 63, 0
2, 81360, Note_on_c, 0, 61, 36
2, 81360, Note_on_c, 0, 63, 36
2, 81600, Note_on_c, 0, 63, 0
2, 81600, Note_on_c, 0, 61, 0
2, 81600, Note_on_c, 0, 61, 41
2, 81600, Note_on_c, 0, 63, 41
2, 81840, Note_on_c, 0, 63, 0
2, 81840, Note_on_c, 0, 61, 0
2, 81840, Note_on_c, 0, 61, 39
2, 81840, Note_on_c, 0, 63, 39
2, 82080, Note_on_c, 0, 63, 0
2, 82080, Note_on_c, 0, 61, 0
2, 82080, Note_on_c, 0, 60, 45
2, 82080, Note_on_c, 0, 63, 45
2, 82320, Note_on_c, 0, 63, 0
2, 82320, Note_on_c, 0, 60, 0
2, 82320, Note_on_c, 0, 61, 45
2, 82320, Note_on_c, 0, 63, 45
2, 82560, Note_on_c, 0, 61, 0
2, 82560, Note_on_c, 0, 60, 45
2, 82800, Note_on_c, 0, 60, 0
2, 82800, Note_on_c, 0, 63, 0
2, 82800, Note_on_c, 0, 73, 48
2, 82800, Note_on_c, 0, 75, 48
2, 83040, Note_on_c, 0, 73, 0
2, 83040, Note_on_c, 0, 72, 47
2, 83280, Note_on_c, 0, 72, 0
2, 83280, Note_on_c, 0, 75, 0
2, 83280, Note_on_c, 0, 80, 63
2, 83520, Note_on_c, 0, 80, 0
2, 83520, Note_on_c, 0, 69, 66
2, 83520, Note_on_c, 0, 72, 66
2, 83520, Note_on_c, 0, 80, 66
2, 84000, Note_on_c, 0, 80, 0
2, 84000, Note_on_c, 0, 78, 62
2, 84240, Note_on_c, 0, 78, 0
2, 84240, Note_on_c, 0, 72, 0
2, 84240, Note_on_c, 0, 69, 0
2, 84240, Note_on_c, 0, 69, 58
2, 84240, Note_on_c, 0, 72, 58
2, 84480, Note_on_c, 0, 72, 0
2, 84480, Note_on_c, 0, 69, 0
2, 84480, Note_on_c, 0, 69, 50
2, 84480, Note_on_c, 0, 72, 50
2, 84480, Note_on_c, 0, 76, 63
2, 84720, Note_on_c, 0, 76, 0
2, 84720, Note_on_c, 0, 75, 57
2, 84960, Note_on_c, 0, 75, 0
2, 84960, Note_on_c, 0, 72, 0
2, 84960, Note_on_c, 0, 69, 0
2, 84960, Note_on_c, 0, 68, 52
2, 84960, Note_on_c, 0, 73, 58
2, 85040, Note_on_c, 0, 75, 54
2, 85060, Note_on_c, 0, 73, 0
2, 85120, Note_on_c, 0, 73, 55
2, 85140, Note_on_c, 0, 75, 0
2, 85200, Note_on_c, 0, 68, 0
2, 85200, Note_on_c, 0, 66, 52
2, 85200, Note_on_c, 0, 71, 58
2, 85220, Note_on_c, 0, 73, 0
2, 85320, Note_on_c, 0, 64, 51
2, 85320, Note_on_c, 0, 69, 57
2, 85340, Note_on_c, 0, 71, 0
2, 85340, Note_on_c, 0, 66, 0
2, 85440, Note_on_c, 0, 63, 47
2, 85440, Note_on_c, 0, 68, 53
2, 85460, Note_on_c, 0, 64, 0
2, 85460, Note_on_c, 0, 69, 0
2, 85680, Note_on_c, 0, 63, 0
2, 85680, Note_on_c, 0, 64, 45
2, 85920, Note_on_c, 0, 64, 0
2, 85920, Note_on_c, 0, 68, 0
2, 85920, Note_on_c, 0, 63, 49
2, 85920, Note_on_c, 0, 68, 55
2, 86400, Note_on_c, 0, 68, 0
2, 86400, Note_on_c, 0, 63, 0
2, 86400, Note_on_c, 0, 60, 32
2, 86400, Note_on_c, 0, 63, 32
2, 86640, Note_on_c, 0, 63, 0
2, 86640, Note_on_c, 0, 60, 0
2, 86640, Note_on_c, 0, 60, 32
2, 86640, Note_on_c, 0, 63, 32
2, 86880, Note_on_c, 0, 63, 0
2, 86880, Note_on_c, 0, 60, 0
2, 86880, Note_on_c, 0, 63, 32
2, 86880, Note_on_c, 0, 61, 32
2, 87120, Note_on_c, 0, 61, 0
2, 87120, Note_on_c, 0, 63, 0
2, 87120, Note_on_c, 0, 61, 32
2, 87120, Note_on_c, 0, 63, 32
2, 87360, Note_on_c, 0, 63, 0
2, 87360, Note_on_c, 0, 61, 0
2, 87360, Note_on_c, 0, 61, 36
2, 87360, Note_on_c, 0, 63, 36
2, 87600, Note_on_c, 0, 63, 0
2, 87600, Note_on_c, 0, 61, 0
2, 87600, Note_on_c, 0, 61, 35
2, 87600, Note_on_c, 0, 63, 35
2, 87840, Note_on_c, 0, 63, 0
2, 87840, Note_on_c, 0, 61, 0
2, 87840, Note_on_c, 0, 60, 40
2, 87840, Note_on_c, 0, 63, 40
2, 88080, Note_on_c, 0, 63, 0
2, 88080, Note_on_c, 0, 60, 0
2, 88080, Note_on_c, 0, 61, 40
2, 88080, Note_on_c, 0, 63, 40
2, 88320, Note_on_c, 0, 61, 0
2, 88320, Note_on_c, 0, 60, 40
2, 88560, Note_on_c, 0, 60, 0
2, 88560, Note_on_c, 0, 63, 0
2, 88560, Note_on_c, 0, 73, 43
2, 88560, Note_on_c, 0, 75, 43
2, 88800, Note_on_c, 0, 73, 0
2, 88800, Note_on_c, 0, 72, 40
2, 89040, Note_on_c, 0, 72, 0
2, 89040, Note_on_c, 0, 75, 0
2, 89040, Note_on_c, 0, 71, 43
2, 89040, Note_on_c, 0, 75, 43
2, 89280, Note_on_c, 0, 75, 0
2, 89280, Note_on_c, 0, 71, 0
2, 89280, Note_on_c, 0, 71, 45
2, 89280, Note_on_c, 0, 76, 45
2, 89520, Note_on_c, 0, 76, 0
2, 89520, Note_on_c, 0, 75, 42
2, 89600, Note_on_c, 0, 76, 42
2, 89620, Note_on_c, 0, 75, 0
2, 89680, Note_on_c, 0, 75, 42
2, 89700, Note_on_c, 0, 76, 0
2, 89760, Note_on_c, 0, 71, 0
2, 89760, Note_on_c, 0, 73, 45
2, 89780, Note_on_c, 0, 75, 0
2, 90120, Note_on_c, 0, 73, 0
2, 90120, Note_on_c, 0, 73, 42
2, 90240, Note_on_c, 0, 73, 0
2, 90240, Note_on_c, 0, 71, 48
2, 90240, Note_on_c, 0, 75, 48
2, 90360, Note_on_c, 0, 75, 0
2, 90360, Note_on_c, 0, 78, 45
2, 90480, Note_on_c, 0, 78, 0
2, 90480, Note_on_c, 0, 75, 47
2, 90600, Note_on_c, 0, 75, 0
2, 90600, Note_on_c, 0, 71, 0
2, 90600, Note_on_c, 0, 71, 45
2, 90720, Note_on_c, 0, 71, 0
2, 90720, Note_on_c, 0, 73, 46
2, 90840, Note_on_c, 0, 73, 0
2, 90960, Note_on_c, 0, 73, 43
2, 91040, Note_on_c, 0, 75, 43
2, 91060, Note_on_c, 0, 73, 0
2, 91120, Note_on_c, 0, 73, 43
2, 91140, Note_on_c, 0, 75, 0
2, 91200, Note_on_c, 0, 71, 46
2, 91220, Note_on_c, 0, 73, 0
2, 91320, Note_on_c, 0, 71, 0
2, 91320, Note_on_c, 0, 76, 42
2, 91440, Note_on_c, 0, 76, 0
2, 91440, Note_on_c, 0, 73, 44
2, 91560, Note_on_c, 0, 73, 0
2, 91560, Note_on_c, 0, 75, 43
2, 91680, Note_on_c, 0, 75, 0
2, 91680, Note_on_c, 0, 71, 43
2, 92160, Note_on_c, 0, 71, 0
2, 92160, Note_on_c, 0, 61, 53
2, 92160, Note_on_c, 0, 63, 53
2, 92640, Note_on_c, 0, 61, 0
2, 92640, Note_on_c, 0, 60, 53
2, 93120, Note_on_c, 0, 60, 0
2, 93120, Note_on_c, 0, 63, 0
2, 93120, Note_on_c, 0, 63, 57
2, 93120, Note_on_c, 0, 61, 57
2, 93600, Note_on_c, 0, 61, 0
2, 93600, Note_on_c, 0, 60, 53
2, 93830, Note_on_c, 0, 63, 0
2, 93840, Note_on_c, 0, 60, 0
2, 93840, Note_on_c, 0, 87, 48
2, 93960, Note_on_c, 0, 87, 0
2, 93960, Note_on_c, 0, 88, 45
2, 94080, Note_on_c, 0, 88, 0
2, 94080, Note_on_c, 0, 90, 48
2, 94200, Note_on_c, 0, 90, 0
2, 94200, Note_on_c, 0, 92, 45
2, 94320, Note_on_c, 0, 92, 0
2, 94320, Note_on_c, 0, 90, 45
2, 94440, Note_on_c, 0, 90, 0
2, 94440, Note_on_c, 0, 87, 45
2, 94560, Note_on_c, 0, 87, 0
2, 94560, Note_on_c, 0, 84, 48
2, 94680, Note_on_c, 0, 84, 0
2, 94680, Note_on_c, 0, 88, 45
2, 94800, Note_on_c, 0, 88, 0
2, 94800, Note_on_c, 0, 87, 45
2, 94920, Note_on_c, 0, 87, 0
2, 94920, Note_on_c, 0, 81, 45
2, 95040, Note_on_c, 0, 81, 0
2, 95040, Note_on_c, 0, 80, 55
2, 95280, Note_on_c, 0, 80, 0
2, 95520, Note_on_c, 0, 63, 53
2, 95520, Note_on_c, 0, 60, 53
2, 96000, Note_on_c, 0, 60, 0
2, 96000, Note_on_c, 0, 63, 0
2, 96000, Note_on_c, 0, 63, 57
2, 96000, Note_on_c, 0, 61, 57
2, 96480, Note_on_c, 0, 61, 0
2, 96480, Note_on_c, 0, 60, 53
2, 96710, Note_on_c, 0, 63, 0
2, 96720, Note_on_c, 0, 60, 0
2, 96720, Note_on_c, 0, 87, 62
2, 96840, Note_on_c, 0, 87, 0
2, 96840, Note_on_c, 0, 88, 58
2, 96960, Note_on_c, 0, 88, 0
2, 96960, Note_on_c, 0, 90, 62
2, 97080, Note_on_c, 0, 90, 0
2, 97080, Note_on_c, 0, 92, 58
2, 97200, Note_on_c, 0, 92, 0
2, 97200, Note_on_c, 0, 90, 58
2, 97320, Note_on_c, 0, 90, 0
2, 97320, Note_on_c, 0, 87, 58
2, 97440, Note_on_c, 0, 87, 0
2, 97440, Note_on_c, 0, 84, 66
2, 97560, Note_on_c, 0, 84, 0
2, 97560, Note_on_c, 0, 88, 63
2, 97680, Note_on_c, 0, 88, 0
2, 97680, Note_on_c, 0, 87, 61
2, 97800, Note_on_c, 0, 87, 0
2, 97800, Note_on_c, 0, 81, 61
2, 97920, Note_on_c, 0, 81, 0
2, 97920, Note_on_c, 0, 80, 66
2, 98160, Note_on_c, 0, 80, 0
2, 98160, Note_on_c, 0, 78, 68
2, 98280, Note_on_c, 0, 78, 0
2, 98280, Note_on_c, 0, 80, 63
2, 98400, Note_on_c, 0, 80, 0
2, 98400, Note_on_c, 0, 81, 68
2, 98520, Note_on_c, 0, 81, 0
2, 98520, Note_on_c, 0, 85, 63
2, 98640, Note_on_c, 0, 85, 0
2, 98640, Note_on_c, 0, 83, 63
2, 98760, Note_on_c, 0, 83, 0
2, 98760, Note_on_c, 0, 80, 63
2, 98880, Note_on_c, 0, 80, 0
2, 98880, Note_on_c, 0, 78, 68
2, 99000, Note_on_c, 0, 78, 0
2, 99000, Note_on_c, 0, 81, 63
2, 99120, Note_on_c, 0, 81, 0
2, 99120, Note_on_c, 0, 80, 63
2, 99240, Note_on_c, 0, 80, 0
2, 99240, Note_on_c, 0, 76, 63
2, 99360, Note_on_c, 0, 76, 0
2, 99360, Note_on_c, 0, 75, 68
2, 99480, Note_on_c, 0, 75, 0
2, 99480, Note_on_c, 0, 76, 66
2, 99600, Note_on_c, 0, 76, 0
2, 99600, Note_on_c, 0, 78, 66
2, 99720, Note_on_c, 0, 78, 0
2, 99720, Note_on_c, 0, 80, 66
2, 99840, Note_on_c, 0, 80, 0
2, 99840, Note_on_c, 0, 78, 72
2, 99960, Note_on_c, 0, 78, 0
2, 99960, Note_on_c, 0, 75, 69
2, 100080, Note_on_c, 0, 75, 0
2, 100080, Note_on_c, 0, 76, 70
2, 100200, Note_on_c, 0, 76, 0
2, 100200, Note_on_c, 0, 73, 68
2, 100320, Note_on_c, 0, 73, 0
2, 100320, Note_on_c, 0, 75, 68
2, 100440, Note_on_c, 0, 75, 0
2, 100440, Note_on_c, 0, 71, 65
2, 100560, Note_on_c, 0, 71, 0
2, 100560, Note_on_c, 0, 73, 68
2, 100680, Note_on_c, 0, 73, 0
2, 100680, Note_on_c, 0, 69, 64
2, 100800, Note_on_c, 0, 69, 0
2, 100800, Note_on_c, 0, 68, 68
2, 101040, Note_on_c, 0, 68, 0
2, 101040, Note_on_c, 0, 61, 68
2, 101040, Note_on_c, 0, 66, 68
2, 101120, Note_on_c, 0, 66, 0
2, 101120, Note_on_c, 0, 68, 58
2, 101200, Note_on_c, 0, 68, 0
2, 101200, Note_on_c, 0, 69, 57
2, 101280, Note_on_c, 0, 69, 0
2, 101280, Note_on_c, 0, 61, 0
2, 101280, Note_on_c, 0, 63, 63
2, 101280, Note_on_c, 0, 68, 63
2, 101360, Note_on_c, 0, 68, 0
2, 101360, Note_on_c, 0, 69, 54
2, 101440, Note_on_c, 0, 69, 0
2, 101440, Note_on_c, 0, 68, 55
2, 101520, Note_on_c, 0, 68, 0
2, 101520, Note_on_c, 0, 63, 0
2, 101520, Note_on_c, 0, 61, 68
2, 101520, Note_on_c, 0, 66, 68
2, 101600, Note_on_c, 0, 66, 0
2, 101600, Note_on_c, 0, 68, 56
2, 101680, Note_on_c, 0, 68, 0
2, 101680, Note_on_c, 0, 69, 56
2, 101760, Note_on_c, 0, 69, 0
2, 101760, Note_on_c, 0, 61, 0
2, 101760, Note_on_c, 0, 63, 59
2, 101760, Note_on_c, 0, 68, 59
2, 101840, Note_on_c, 0, 68, 0
2, 101840, Note_on_c, 0, 69, 55
2, 101920, Note_on_c, 0, 69, 0
2, 101920, Note_on_c, 0, 68, 55
2, 102000, Note_on_c, 0, 68, 0
2, 102000, Note_on_c, 0, 63, 0
2, 102000, Note_on_c, 0, 61, 65
2, 102000, Note_on_c, 0, 66, 65
2, 102080, Note_on_c, 0, 66, 0
2, 102080, Note_on_c, 0, 68, 55
2, 102160, Note_on_c, 0, 68, 0
2, 102160, Note_on_c, 0, 69, 55
2, 102240, Note_on_c, 0, 69, 0
2, 102240, Note_on_c, 0, 61, 0
2, 102240, Note_on_c, 0, 63, 68
2, 102240, Note_on_c, 0, 68, 68
2, 102480, Note_on_c, 0, 68, 0
2, 102480, Note_on_c, 0, 63, 0
2, 103920, Note_on_c, 0, 68, 55
2, 104000, Note_on_c, 0, 65, 55
2, 104020, Note_on_c, 0, 68, 0
2, 104080, Note_on_c, 0, 61, 55
2, 104100, Note_on_c, 0, 65, 0
2, 104160, Note_on_c, 0, 56, 62
2, 104180, Note_on_c, 0, 61, 0
2, 104280, Note_on_c, 0, 56, 0
2, 104400, Note_on_c, 0, 56, 46
2, 104400, Note_on_c, 0, 61, 46
2, 104400, Note_on_c, 0, 65, 55
2, 104400, Note_on_c, 0, 68, 57
2, 104880, Note_on_c, 0, 68, 0
2, 104880, Note_on_c, 0, 56, 0
2, 104880, Note_on_c, 0, 61, 0
2, 104880, Note_on_c, 0, 65, 0
2, 104880, Note_on_c, 0, 56, 51
2, 104880, Note_on_c, 0, 59, 51
2, 104880, Note_on_c, 0, 65, 61
2, 104880, Note_on_c, 0, 68, 61
2, 105120, Note_on_c, 0, 68, 0
2, 105120, Note_on_c, 0, 56, 0
2, 105120, Note_on_c, 0, 59, 0
2, 105120, Note_on_c, 0, 65, 0
2, 105360, Note_on_c, 0, 68, 55
2, 105440, Note_on_c, 0, 66, 55
2, 105460, Note_on_c, 0, 68, 0
2, 105520, Note_on_c, 0, 60, 55
2, 105540, Note_on_c, 0, 66, 0
2, 105600, Note_on_c, 0, 56, 62
2, 105620, Note_on_c, 0, 60, 0
2, 105720, Note_on_c, 0, 56, 0
2, 105840, Note_on_c, 0, 56, 49
2, 105840, Note_on_c, 0, 60, 49
2, 105840, Note_on_c, 0, 66, 58
2, 105840, Note_on_c, 0, 68, 60
2, 106320, Note_on_c, 0, 68, 0
2, 106320, Note_on_c, 0, 56, 0
2, 106320, Note_on_c, 0, 60, 0
2, 106320, Note_on_c, 0, 66, 0
2, 106320, Note_on_c, 0, 56, 45
2, 106320, Note_on_c, 0, 64, 54
2, 106320, Note_on_c, 0, 68, 54
2, 106560, Note_on_c, 0, 68, 0
2, 106560, Note_on_c, 0, 64, 0
2, 106560, Note_on_c, 0, 56, 0
2, 106800, Note_on_c, 0, 68, 30
2, 106880, Note_on_c, 0, 65, 30
2, 106900, Note_on_c, 0, 68, 0
2, 106960, Note_on_c, 0, 61, 30
2, 106980, Note_on_c, 0, 65, 0
2, 107040, Note_on_c, 0, 56, 34
2, 107060, Note_on_c, 0, 61, 0
2, 107160, Note_on_c, 0, 56, 0
2, 107280, Note_on_c, 0, 56, 30
2, 107280, Note_on_c, 0, 61, 30
2, 107280, Note_on_c, 0, 65, 30
2, 107280, Note_on_c, 0, 68, 32
2, 107760, Note_on_c, 0, 68, 0
2, 107760, Note_on_c, 0, 56, 0
2, 107760, Note_on_c, 0, 61, 0
2, 107760, Note_on_c, 0, 65, 0
2, 107760, Note_on_c, 0, 56, 29
2, 107760, Note_on_c, 0, 59, 29
2, 107760, Note_on_c, 0, 65, 29
2, 107760, Note_on_c, 0, 68, 29
2, 108000, Note_on_c, 0, 68, 0
2, 108000, Note_on_c, 0, 56, 0
2, 108000, Note_on_c, 0, 59, 0
2, 108000, Note_on_c, 0, 65, 0
2, 108240, Note_on_c, 0, 68, 30
2, 108320, Note_on_c, 0, 66, 30
2, 108340, Note_on_c, 0, 68, 0
2, 108400, Note_on_c, 0, 60, 30
2, 108420, Note_on_c, 0, 66, 0
2, 108480, Note_on_c, 0, 56, 34
2, 108500, Note_on_c, 0, 60, 0
2, 108600, Note_on_c, 0, 56, 0
2, 108720, Note_on_c, 0, 56, 35
2, 108720, Note_on_c, 0, 60, 35
2, 108720, Note_on_c, 0, 66, 35
2, 108720, Note_on_c, 0, 68, 37
2, 109200, Note_on_c, 0, 68, 0
2, 109200, Note_on_c, 0, 56, 0
2, 109200, Note_on_c, 0, 60, 0
2, 109200, Note_on_c, 0, 66, 0
2, 109200, Note_on_c, 0, 56, 35
2, 109200, Note_on_c, 0, 64, 35
2, 109200, Note_on_c, 0, 68, 35
2, 109410, Note_on_c, 0, 68, 0
2, 109410, Note_on_c, 0, 64, 0
2, 109410, Note_on_c, 0, 56, 0
2, 109440, Note_on_c, 0, 77, 45
2, 109440, Note_on_c, 0, 65, 45
2, 109680, Note_on_c, 0, 65, 0
2, 109680, Note_on_c, 0, 77, 0
2, 109920, Note_on_c, 0, 65, 45
2, 109920, Note_on_c, 0, 77, 47
2, 110640, Note_on_c, 0, 77, 0
2, 110640, Note_on_c, 0, 65, 0
2, 110640, Note_on_c, 0, 65, 41
2, 110640, Note_on_c, 0, 77, 41
2, 110880, Note_on_c, 0, 77, 0
2, 110880, Note_on_c, 0, 65, 0
2, 110880, Note_on_c, 0, 65, 46
2, 110880, Note_on_c, 0, 77, 46
2, 111240, Note_on_c, 0, 77, 0
2, 111240, Note_on_c, 0, 65, 0
2, 111240, Note_on_c, 0, 68, 43
2, 111240, Note_on_c, 0, 80, 43
2, 111360, Note_on_c, 0, 80, 0
2, 111360, Note_on_c, 0, 68, 0
2, 111360, Note_on_c, 0, 68, 43
2, 111360, Note_on_c, 0, 80, 43
2, 112320, Note_on_c, 0, 80, 0
2, 112320, Note_on_c, 0, 68, 0
2, 112560, Note_on_c, 0, 78, 55
2, 112560, Note_on_c, 0, 66, 55
2, 112800, Note_on_c, 0, 68, 58
2, 112800, Note_on_c, 0, 80, 58
2, 112820, Note_on_c, 0, 66, 0
2, 112820, Note_on_c, 0, 78, 0
2, 113040, Note_on_c, 0, 70, 61
2, 113040, Note_on_c, 0, 82, 61
2, 113060, Note_on_c, 0, 68, 0
2, 113060, Note_on_c, 0, 80, 0
2, 113280, Note_on_c, 0, 73, 64
2, 113280, Note_on_c, 0, 85, 64
2, 113300, Note_on_c, 0, 70, 0
2, 113300, Note_on_c, 0, 82, 0
2, 113520, Note_on_c, 0, 72, 62
2, 113520, Note_on_c, 0, 84, 62
2, 113540, Note_on_c, 0, 73, 0
2, 113540, Note_on_c, 0, 85, 0
2, 113760, Note_on_c, 0, 75, 71
2, 113760, Note_on_c, 0, 87, 71
2, 113780, Note_on_c, 0, 72, 0
2, 113780, Note_on_c, 0, 84, 0
2, 114000, Note_on_c, 0, 70, 56
2, 114000, Note_on_c, 0, 82, 56
2, 114020, Note_on_c, 0, 75, 0
2, 114020, Note_on_c, 0, 87, 0
2, 114240, Note_on_c, 0, 68, 55
2, 114240, Note_on_c, 0, 80, 55
2, 114260, Note_on_c, 0, 70, 0
2, 114260, Note_on_c, 0, 82, 0
2, 115200, Note_on_c, 0, 68, 0
2, 115200, Note_on_c, 0, 80, 0
2, 115200, Note_on_c, 0, 77, 45
2, 115200, Note_on_c, 0, 65, 45
2, 115440, Note_on_c, 0, 65, 0
2, 115440, Note_on_c, 0, 77, 0
2, 115680, Note_on_c, 0, 65, 45
2, 115680, Note_on_c, 0, 77, 45
2, 116400, Note_on_c, 0, 77, 0
2, 116400, Note_on_c, 0, 65, 0
2, 116400, Note_on_c, 0, 65, 41
2, 116400, Note_on_c, 0, 77, 41
2, 116640, Note_on_c, 0, 77, 0
2, 116640, Note_on_c, 0, 65, 0
2, 116640, Note_on_c, 0, 65, 46
2, 116640, Note_on_c, 0, 77, 46
2, 117000, Note_on_c, 0, 77, 0
2, 117000, Note_on_c, 0, 65, 0
2, 117000, Note_on_c, 0, 68, 43
2, 117000, Note_on_c, 0, 80, 43
2, 117120, Note_on_c, 0, 80, 0
2, 117120, Note_on_c, 0, 68, 0
2, 117120, Note_on_c, 0, 68, 43
2, 117120, Note_on_c, 0, 80, 43
2, 118080, Note_on_c, 0, 80, 0
2, 118080, Note_on_c, 0, 68, 0
2, 118320, Note_on_c, 0, 78, 55
2, 118320, Note_on_c, 0, 66, 55
2, 118560, Note_on_c, 0, 68, 58
2, 118560, Note_on_c, 0, 80, 58
2, 118580, Note_on_c, 0, 66, 0
2, 118580, Note_on_c, 0, 78, 0
2, 118800, Note_on_c, 0, 70, 61
2, 118800, Note_on_c, 0, 82, 61
2, 118820, Note_on_c, 0, 68, 0
2, 118820, Note_on_c, 0, 80, 0
2, 119040, Note_on_c, 0, 73, 64
2, 119040, Note_on_c, 0, 85, 64
2, 119060, Note_on_c, 0, 70, 0
2, 119060, Note_on_c, 0, 82, 0
2, 119280, Note_on_c, 0, 72, 62
2, 119280, Note_on_c, 0, 84, 62
2, 119300, Note_on_c, 0, 73, 0
2, 119300, Note_on_c, 0, 85, 0
2, 119520, Note_on_c, 0, 78, 65
2, 119520, Note_on_c, 0, 90, 69
2, 119540, Note_on_c, 0, 72, 0
2, 119540, Note_on_c, 0, 84, 0
2, 119760, Note_on_c, 0, 70, 56
2, 119760, Note_on_c, 0, 82, 56
2, 119780, Note_on_c, 0, 78, 0
2, 119780, Note_on_c, 0, 90, 0
2, 120000, Note_on_c, 0, 68, 55
2, 120000, Note_on_c, 0, 80, 55
2, 120020, Note_on_c, 0, 70, 0
2, 120020, Note_on_c, 0, 82, 0
2, 120960, Note_on_c, 0, 68, 0
2, 120960, Note_on_c, 0, 80, 0
2, 120960, Note_on_c, 0, 85, 58
2, 120960, Note_on_c, 0, 73, 58
2, 121200, Note_on_c, 0, 73, 0
2, 121200, Note_on_c, 0, 85, 0
2, 121440, Note_on_c, 0, 73, 58
2, 121440, Note_on_c, 0, 85, 58
2, 122160, Note_on_c, 0, 85, 0
2, 122160, Note_on_c, 0, 73, 0
2, 122160, Note_on_c, 0, 72, 53
2, 122160, Note_on_c, 0, 84, 53
2, 122400, Note_on_c, 0, 84, 0
2, 122400, Note_on_c, 0, 72, 0
2, 122400, Note_on_c, 0, 84, 58
2, 122400, Note_on_c, 0, 72, 58
2, 122880, Note_on_c, 0, 72, 0
2, 122880, Note_on_c, 0, 84, 0
2, 122880, Note_on_c, 0, 70, 55
2, 122880, Note_on_c, 0, 82, 55
2, 123120, Note_on_c, 0, 82, 0
2, 123120, Note_on_c, 0, 70, 0
2, 123120, Note_on_c, 0, 65, 55
2, 123120, Note_on_c, 0, 77, 55
2, 123360, Note_on_c, 0, 77, 0
2, 123360, Note_on_c, 0, 65, 0
2, 123360, Note_on_c, 0, 68, 58
2, 123360, Note_on_c, 0, 80, 58
2, 123600, Note_on_c, 0, 80, 0
2, 123600, Note_on_c, 0, 68, 0
2, 123600, Note_on_c, 0, 70, 53
2, 123600, Note_on_c, 0, 82, 53
2, 123840, Note_on_c, 0, 82, 0
2, 123840, Note_on_c, 0, 70, 0
2, 123840, Note_on_c, 0, 80, 58
2, 123840, Note_on_c, 0, 68, 58
2, 124320, Note_on_c, 0, 68, 0
2, 124320, Note_on_c, 0, 80, 0
2, 124320, Note_on_c, 0, 66, 58
2, 124320, Note_on_c, 0, 78, 58
2, 124560, Note_on_c, 0, 78, 0
2, 124560, Note_on_c, 0, 66, 0
2, 124560, Note_on_c, 0, 71, 57
2, 124560, Note_on_c, 0, 74, 57
2, 124740, Note_on_c, 0, 74, 0
2, 124740, Note_on_c, 0, 71, 0
2, 124740, Note_on_c, 0, 71, 53
2, 124800, Note_on_c, 0, 78, 58
2, 125040, Note_on_c, 0, 78, 0
2, 125040, Note_on_c, 0, 71, 0
2, 125040, Note_on_c, 0, 71, 54
2, 125040, Note_on_c, 0, 77, 54
2, 125220, Note_on_c, 0, 77, 0
2, 125220, Note_on_c, 0, 71, 0
2, 125220, Note_on_c, 0, 66, 41
2, 125280, Note_on_c, 0, 77, 56
2, 125760, Note_on_c, 0, 77, 0
2, 125760, Note_on_c, 0, 75, 56
2, 126720, Note_on_c, 0, 75, 0
2, 126720, Note_on_c, 0, 66, 0
2, 126720, Note_on_c, 0, 67, 47
2, 126720, Note_on_c, 0, 65, 47
2, 126720, Note_on_c, 0, 73, 56
2, 126960, Note_on_c, 0, 73, 0
2, 126960, Note_on_c, 0, 65, 0
2, 126960, Note_on_c, 0, 67, 0
2, 126960, Note_on_c, 0, 63, 45
2, 126960, Note_on_c, 0, 67, 45
2, 126960, Note_on_c, 0, 72, 53
2, 127200, Note_on_c, 0, 72, 0
2, 127200, Note_on_c, 0, 67, 0
2, 127200, Note_on_c, 0, 63, 0
2, 127200, Note_on_c, 0, 61, 45
2, 127200, Note_on_c, 0, 67, 45
2, 127200, Note_on_c, 0, 72, 53
2, 127680, Note_on_c, 0, 72, 0
2, 127680, Note_on_c, 0, 67, 0
2, 127680, Note_on_c, 0, 61, 0
2, 127680, Note_on_c, 0, 61, 47
2, 127680, Note_on_c, 0, 67, 47
2, 127680, Note_on_c, 0, 70, 56
2, 127860, Note_on_c, 0, 70, 0
2, 127860, Note_on_c, 0, 67, 0
2, 127860, Note_on_c, 0, 61, 0
2, 127860, Note_on_c, 0, 61, 35
2, 127890, Note_on_c, 0, 67, 42
2, 127920, Note_on_c, 0, 75, 55
2, 128160, Note_on_c, 0, 75, 0
2, 128160, Note_on_c, 0, 67, 0
2, 128160, Note_on_c, 0, 61, 0
2, 128160, Note_on_c, 0, 63, 45
2, 128160, Note_on_c, 0, 68, 45
2, 128400, Note_on_c, 0, 68, 0
2, 128400, Note_on_c, 0, 63, 0
2, 128400, Note_on_c, 0, 65, 41
2, 128400, Note_on_c, 0, 70, 41
2, 128640, Note_on_c, 0, 70, 0
2, 128640, Note_on_c, 0, 65, 0
2, 128640, Note_on_c, 0, 68, 45
2, 128640, Note_on_c, 0, 73, 45
2, 128880, Note_on_c, 0, 73, 0
2, 128880, Note_on_c, 0, 68, 0
2, 128880, Note_on_c, 0, 67, 42
2, 128880, Note_on_c, 0, 72, 42
2, 129060, Note_on_c, 0, 72, 0
2, 129060, Note_on_c, 0, 67, 0
2, 129060, Note_on_c, 0, 68, 42
2, 129120, Note_on_c, 0, 75, 46
2, 129360, Note_on_c, 0, 75, 0
2, 129360, Note_on_c, 0, 68, 0
2, 129360, Note_on_c, 0, 67, 42
2, 129360, Note_on_c, 0, 72, 42
2, 129540, Note_on_c, 0, 72, 0
2, 129540, Note_on_c, 0, 67, 0
2, 129540, Note_on_c, 0, 61, 34
2, 129570, Note_on_c, 0, 67, 34
2, 129600, Note_on_c, 0, 73, 47
2, 130080, Note_on_c, 0, 73, 0
2, 130080, Note_on_c, 0, 67, 0
2, 130080, Note_on_c, 0, 61, 0
2, 130080, Note_on_c, 0, 65, 46
2, 130080, Note_on_c, 0, 67, 46
2, 130080, Note_on_c, 0, 73, 46
2, 130560, Note_on_c, 0, 73, 0
2, 130560, Note_on_c, 0, 67, 0
2, 130560, Note_on_c, 0, 65, 0
2, 130560, Note_on_c, 0, 61, 44
2, 130560, Note_on_c, 0, 67, 44
2, 130560, Note_on_c, 0, 72, 44
2, 131040, Note_on_c, 0, 72, 0
2, 131040, Note_on_c, 0, 67, 0
2, 131040, Note_on_c, 0, 61, 0
2, 131040, Note_on_c, 0, 63, 45
2, 131040, Note_on_c, 0, 68, 45
2, 131280, Note_on_c, 0, 68, 0
2, 131280, Note_on_c, 0, 63, 0
2, 131280, Note_on_c, 0, 65, 42
2, 131280, Note_on_c, 0, 70, 42
2, 131520, Note_on_c, 0, 70, 0
2, 131520, Note_on_c, 0, 65, 0
2, 131520, Note_on_c, 0, 66, 48
2, 131520, Note_on_c, 0, 72, 48
2, 131760, Note_on_c, 0, 72, 0
2, 131760, Note_on_c, 0, 66, 0
2, 131760, Note_on_c, 0, 72, 47
2, 131760, Note_on_c, 0, 78, 53
2, 132000, Note_on_c, 0, 78, 0
2, 132000, Note_on_c, 0, 72, 0
2, 132000, Note_on_c, 0, 72, 41
2, 132000, Note_on_c, 0, 77, 46
2, 132240, Note_on_c, 0, 77, 0
2, 132240, Note_on_c, 0, 72, 0
2, 132240, Note_on_c, 0, 72, 34
2, 132240, Note_on_c, 0, 76, 38
2, 132480, Note_on_c, 0, 76, 0
2, 132480, Note_on_c, 0, 72, 0
2, 132480, Note_on_c, 0, 77, 52
2, 132480, Note_on_c, 0, 65, 46
2, 132720, Note_on_c, 0, 65, 0
2, 132720, Note_on_c, 0, 77, 0
2, 132960, Note_on_c, 0, 65, 55
2, 132960, Note_on_c, 0, 77, 62
2, 133680, Note_on_c, 0, 77, 0
2, 133680, Note_on_c, 0, 65, 0
2, 133680, Note_on_c, 0, 65, 56
2, 133680, Note_on_c, 0, 77, 63
2, 133920, Note_on_c, 0, 77, 0
2, 133920, Note_on_c, 0, 65, 0
2, 133920, Note_on_c, 0, 65, 63
2, 133920, Note_on_c, 0, 77, 71
2, 134280, Note_on_c, 0, 77, 0
2, 134280, Note_on_c, 0, 65, 0
2, 134280, Note_on_c, 0, 68, 60
2, 134280, Note_on_c, 0, 80, 67
2, 134400, Note_on_c, 0, 80, 0
2, 134400, Note_on_c, 0, 68, 0
2, 134400, Note_on_c, 0, 68, 60
2, 134400, Note_on_c, 0, 80, 67
2, 135360, Note_on_c, 0, 80, 0
2, 135360, Note_on_c, 0, 68, 0
2, 135600, Note_on_c, 0, 78, 66
2, 135600, Note_on_c, 0, 66, 59
2, 135840, Note_on_c, 0, 68, 61
2, 135840, Note_on_c, 0, 80, 68
2, 135860, Note_on_c, 0, 66, 0
2, 135860, Note_on_c, 0, 78, 0
2, 136080, Note_on_c, 0, 70, 63
2, 136080, Note_on_c, 0, 82, 70
2, 136100, Note_on_c, 0, 68, 0
2, 136100, Note_on_c, 0, 80, 0
2, 136320, Note_on_c, 0, 73, 65
2, 136320, Note_on_c, 0, 85, 73
2, 136340, Note_on_c, 0, 70, 0
2, 136340, Note_on_c, 0, 82, 0
2, 136560, Note_on_c, 0, 72, 62
2, 136560, Note_on_c, 0, 84, 69
2, 136580, Note_on_c, 0, 73, 0
2, 136580, Note_on_c, 0, 85, 0
2, 136800, Note_on_c, 0, 75, 70
2, 136800, Note_on_c, 0, 87, 83
2, 136820, Note_on_c, 0, 72, 0
2, 136820, Note_on_c, 0, 84, 0
2, 137040, Note_on_c, 0, 70, 60
2, 137040, Note_on_c, 0, 82, 67
2, 137060, Note_on_c, 0, 75, 0
2, 137060, Note_on_c, 0, 87, 0
2, 137280, Note_on_c, 0, 68, 56
2, 137280, Note_on_c, 0, 80, 63
2, 137300, Note_on_c, 0, 70, 0
2, 137300, Note_on_c, 0, 82, 0
2, 138240, Note_on_c, 0, 68, 0
2, 138240, Note_on_c, 0, 80, 0
2, 138240, Note_on_c, 0, 77, 45
2, 138240, Note_on_c, 0, 65, 45
2, 138480, Note_on_c, 0, 65, 0
2, 138480, Note_on_c, 0, 77, 0
2, 138720, Note_on_c, 0, 65, 45
2, 138720, Note_on_c, 0, 77, 45
2, 139440, Note_on_c, 0, 77, 0
2, 139440, Note_on_c, 0, 65, 0
2, 139440, Note_on_c, 0, 65, 41
2, 139440, Note_on_c, 0, 77, 41
2, 139680, Note_on_c, 0, 77, 0
2, 139680, Note_on_c, 0, 65, 0
2, 139680, Note_on_c, 0, 65, 46
2, 139680, Note_on_c, 0, 77, 46
2, 140040, Note_on_c, 0, 77, 0
2, 140040, Note_on_c, 0, 65, 0
2, 140040, Note_on_c, 0, 68, 43
2, 140040, Note_on_c, 0, 80, 43
2, 140160, Note_on_c, 0, 80, 0
2, 140160, Note_on_c, 0, 68, 0
2, 140160, Note_on_c, 0, 68, 43
2, 140160, Note_on_c, 0, 80, 43
2, 141120, Note_on_c, 0, 80, 0
2, 141120, Note_on_c, 0, 68, 0
2, 141360, Note_on_c, 0, 78, 55
2, 141360, Note_on_c, 0, 66, 55
2, 141600, Note_on_c, 0, 68, 57
2, 141600, Note_on_c, 0, 80, 57
2, 141620, Note_on_c, 0, 66, 0
2, 141620, Note_on_c, 0, 78, 0
2, 141840, Note_on_c, 0, 70, 59
2, 141840, Note_on_c, 0, 82, 59
2, 141860, Note_on_c, 0, 68, 0
2, 141860, Note_on_c, 0, 80, 0
2, 142080, Note_on_c, 0, 73, 61
2, 142080, Note_on_c, 0, 85, 61
2, 142100, Note_on_c, 0, 70, 0
2, 142100, Note_on_c, 0, 82, 0
2, 142320, Note_on_c, 0, 72, 58
2, 142320, Note_on_c, 0, 84, 58
2, 142340, Note_on_c, 0, 73, 0
2, 142340, Note_on_c, 0, 85, 0
2, 142560, Note_on_c, 0, 78, 65
2, 142560, Note_on_c, 0, 90, 65
2, 142580, Note_on_c, 0, 72, 0
2, 142580, Note_on_c, 0, 84, 0
2, 142800, Note_on_c, 0, 70, 56
2, 142800, Note_on_c, 0, 82, 56
2, 142820, Note_on_c, 0, 78, 0
2, 142820, Note_on_c, 0, 90, 0
2, 143040, Note_on_c, 0, 68, 55
2, 143040, Note_on_c, 0, 80, 55
2, 143060, Note_on_c, 0, 70, 0
2, 143060, Note_on_c, 0, 82, 0
2, 143520, Note_on_c, 0, 68, 0
2, 143520, Note_on_c, 0, 80, 0
2, 143520, Note_on_c, 0, 69, 33
2, 143520, Note_on_c, 0, 75, 33
2, 143520, Note_on_c, 0, 80, 40
2, 143760, Note_on_c, 0, 75, 0
2, 143760, Note_on_c, 0, 69, 0
2, 143760, Note_on_c, 0, 79, 37
2, 143780, Note_on_c, 0, 80, 0
2, 144000, Note_on_c, 0, 79, 0
2, 144000, Note_on_c, 0, 80, 49
2, 144000, Note_on_c, 0, 68, 49
2, 144240, Note_on_c, 0, 68, 0
2, 144240, Note_on_c, 0, 80, 0
2, 144480, Note_on_c, 0, 68, 52
2, 144480, Note_on_c, 0, 80, 52
2, 145200, Note_on_c, 0, 80, 0
2, 145200, Note_on_c, 0, 68, 0
2, 145200, Note_on_c, 0, 68, 53
2, 145200, Note_on_c, 0, 80, 53
2, 145440, Note_on_c, 0, 80, 0
2, 145440, Note_on_c, 0, 68, 0
2, 145440, Note_on_c, 0, 83, 58
2, 145440, Note_on_c, 0, 71, 52
2, 145680, Note_on_c, 0, 71, 0
2, 145680, Note_on_c, 0, 83, 0
2, 145680, Note_on_c, 0, 69, 52
2, 145680, Note_on_c, 0, 81, 58
2, 145920, Note_on_c, 0, 81, 0
2, 145920, Note_on_c, 0, 69, 0
2, 145920, Note_on_c, 0, 73, 58
2, 145920, Note_on_c, 0, 85, 65
2, 146160, Note_on_c, 0, 85, 0
2, 146160, Note_on_c, 0, 73, 0
2, 146160, Note_on_c, 0, 75, 54
2, 146160, Note_on_c, 0, 87, 61
2, 146400, Note_on_c, 0, 87, 0
2, 146400, Note_on_c, 0, 75, 0
2, 146400, Note_on_c, 0, 80, 64
2, 146400, Note_on_c, 0, 92, 72
2, 146640, Note_on_c, 0, 92, 0
2, 146640, Note_on_c, 0, 80, 0
2, 146640, Note_on_c, 0, 78, 61
2, 146640, Note_on_c, 0, 90, 68
2, 146880, Note_on_c, 0, 90, 0
2, 146880, Note_on_c, 0, 78, 0
2, 146880, Note_on_c, 0, 80, 49
2, 146880, Note_on_c, 0, 68, 49
2, 147120, Note_on_c, 0, 68, 0
2, 147120, Note_on_c, 0, 80, 0
2, 147360, Note_on_c, 0, 68, 49
2, 147360, Note_on_c, 0, 80, 49
2, 148080, Note_on_c, 0, 80, 0
2, 148080, Note_on_c, 0, 68, 0
2, 148080, Note_on_c, 0, 68, 45
2, 148080, Note_on_c, 0, 80, 45
2, 148320, Note_on_c, 0, 80, 0
2, 148320, Note_on_c, 0, 68, 0
2, 148320, Note_on_c, 0, 83, 49
2, 148320, Note_on_c, 0, 71, 49
2, 148560, Note_on_c, 0, 71, 0
2, 148560, Note_on_c, 0, 83, 0
2, 148560, Note_on_c, 0, 69, 49
2, 148560, Note_on_c, 0, 81, 49
2, 148800, Note_on_c, 0, 81, 0
2, 148800, Note_on_c, 0, 69, 0
2, 148800, Note_on_c, 0, 73, 51
2, 148800, Note_on_c, 0, 85, 51
2, 149040, Note_on_c, 0, 85, 0
2, 149040, Note_on_c, 0, 73, 0
2, 149040, Note_on_c, 0, 75, 48
2, 149040, Note_on_c, 0, 87, 48
2, 149220, Note_on_c, 0, 87, 0
2, 149220, Note_on_c, 0, 75, 0
2, 149220, Note_on_c, 0, 80, 48
2, 149280, Note_on_c, 0, 92, 55
2, 149520, Note_on_c, 0, 92, 0
2, 149520, Note_on_c, 0, 80, 0
2, 149520, Note_on_c, 0, 78, 52
2, 149520, Note_on_c, 0, 90, 52
2, 149760, Note_on_c, 0, 90, 0
2, 149760, Note_on_c, 0, 78, 0
2, 149760, Note_on_c, 0, 80, 63
2, 149760, Note_on_c, 0, 68, 53
2, 150240, Note_on_c, 0, 68, 0
2, 150240, Note_on_c, 0, 80, 0
2, 150240, Note_on_c, 0, 78, 58
2, 150240, Note_on_c, 0, 68, 49
2, 150240, Note_on_c, 0, 80, 58
2, 150720, Note_on_c, 0, 80, 0
2, 150720, Note_on_c, 0, 68, 0
2, 150720, Note_on_c, 0, 78, 0
2, 150720, Note_on_c, 0, 68, 56
2, 150720, Note_on_c, 0, 76, 66
2, 150720, Note_on_c, 0, 80, 66
2, 151200, Note_on_c, 0, 76, 0
2, 151200, Note_on_c, 0, 77, 66
2, 151440, Note_on_c, 0, 77, 0
2, 151440, Note_on_c, 0, 80, 0
2, 151440, Note_on_c, 0, 68, 0
2, 151440, Note_on_c, 0, 66, 48
2, 151440, Note_on_c, 0, 72, 57
2, 151440, Note_on_c, 0, 75, 57
2, 151680, Note_on_c, 0, 75, 0
2, 151680, Note_on_c, 0, 72, 0
2, 151680, Note_on_c, 0, 66, 0
2, 151680, Note_on_c, 0, 65, 53
2, 151680, Note_on_c, 0, 73, 63
2, 151920, Note_on_c, 0, 73, 0
2, 151920, Note_on_c, 0, 65, 0
2, 151920, Note_on_c, 0, 63, 47
2, 151920, Note_on_c, 0, 69, 56
2, 151920, Note_on_c, 0, 72, 56
2, 152160, Note_on_c, 0, 72, 0
2, 152160, Note_on_c, 0, 69, 0
2, 152160, Note_on_c, 0, 63, 0
2, 152160, Note_on_c, 0, 61, 51
2, 152160, Note_on_c, 0, 70, 60
2, 152400, Note_on_c, 0, 70, 0
2, 152400, Note_on_c, 0, 61, 0
2, 152400, Note_on_c, 0, 65, 53
2, 152400, Note_on_c, 0, 68, 53
2, 152640, Note_on_c, 0, 68, 0
2, 152640, Note_on_c, 0, 65, 0
2, 152640, Note_on_c, 0, 66, 58
2, 152880, Note_on_c, 0, 66, 0
2, 152880, Note_on_c, 0, 68, 55
2, 153120, Note_on_c, 0, 68, 0
2, 153120, Note_on_c, 0, 69, 55
2, 153360, Note_on_c, 0, 69, 0
2, 153360, Note_on_c, 0, 70, 60
2, 153600, Note_on_c, 0, 70, 0
2, 153600, Note_on_c, 0, 73, 65
2, 153840, Note_on_c, 0, 73, 0
2, 153840, Note_on_c, 0, 66, 58
2, 154020, Note_on_c, 0, 66, 0
2, 154020, Note_on_c, 0, 60, 50
2, 154050, Note_on_c, 0, 66, 51
2, 154080, Note_on_c, 0, 70, 58
2, 154500, Note_on_c, 0, 70, 0
2, 154500, Note_on_c, 0, 66, 0
2, 154500, Note_on_c, 0, 60, 0
2, 154500, Note_on_c, 0, 66, 48
2, 154560, Note_on_c, 0, 77, 58
2, 155280, Note_on_c, 0, 77, 0
2, 155280, Note_on_c, 0, 72, 53
2, 155520, Note_on_c, 0, 72, 0
2, 155520, Note_on_c, 0, 66, 0
2, 155760, Note_on_c, 0, 68, 39
2, 155840, Note_on_c, 0, 65, 39
2, 155860, Note_on_c, 0, 68, 0
2, 155920, Note_on_c, 0, 61, 39
2, 155940, Note_on_c, 0, 65, 0
2, 156000, Note_on_c, 0, 56, 44
2, 156020, Note_on_c, 0, 61, 0
2, 156120, Note_on_c, 0, 56, 0
2, 156240, Note_on_c, 0, 56, 33
2, 156240, Note_on_c, 0, 61, 33
2, 156240, Note_on_c, 0, 68, 40
2, 156240, Note_on_c, 0, 65, 39
2, 156720, Note_on_c, 0, 65, 0
2, 156720, Note_on_c, 0, 56, 0
2, 156720, Note_on_c, 0, 61, 0
2, 156720, Note_on_c, 0, 68, 0
2, 156720, Note_on_c, 0, 56, 36
2, 156720, Note_on_c, 0, 59, 36
2, 156720, Note_on_c, 0, 65, 43
2, 156720, Note_on_c, 0, 68, 43
2, 156960, Note_on_c, 0, 68, 0
2, 156960, Note_on_c, 0, 56, 0
2, 156960, Note_on_c, 0, 59, 0
2, 156960, Note_on_c, 0, 65, 0
2, 157200, Note_on_c, 0, 68, 39
2, 157280, Note_on_c, 0, 66, 39
2, 157300, Note_on_c, 0, 68, 0
2, 157360, Note_on_c, 0, 60, 39
2, 157380, Note_on_c, 0, 66, 0
2, 157440, Note_on_c, 0, 56, 44
2, 157460, Note_on_c, 0, 60, 0
2, 157560, Note_on_c, 0, 56, 0
2, 157680, Note_on_c, 0, 56, 34
2, 157680, Note_on_c, 0, 60, 34
2, 157680, Note_on_c, 0, 66, 41
2, 157680, Note_on_c, 0, 68, 43
2, 158160, Note_on_c, 0, 68, 0
2, 158160, Note_on_c, 0, 56, 0
2, 158160, Note_on_c, 0, 60, 0
2, 158160, Note_on_c, 0, 66, 0
2, 158160, Note_on_c, 0, 56, 32
2, 158160, Note_on_c, 0, 64, 38
2, 158160, Note_on_c, 0, 68, 38
2, 158400, Note_on_c, 0, 68, 0
2, 158400, Note_on_c, 0, 64, 0
2, 158400, Note_on_c, 0, 56, 0
2, 158640, Note_on_c, 0, 68, 27
2, 158720, Note_on_c, 0, 65, 27
2, 158740, Note_on_c, 0, 68, 0
2, 158800, Note_on_c, 0, 61, 27
2, 158820, Note_on_c, 0, 65, 0
2, 158880, Note_on_c, 0, 56, 30
2, 158900, Note_on_c, 0, 61, 0
2, 159000, Note_on_c, 0, 56, 0
2, 159120, Note_on_c, 0, 56, 27
2, 159120, Note_on_c, 0, 61, 27
2, 159120, Note_on_c, 0, 65, 27
2, 159120, Note_on_c, 0, 68, 28
2, 159600, Note_on_c, 0, 68, 0
2, 159600, Note_on_c, 0, 56, 0
2, 159600, Note_on_c, 0, 61, 0
2, 159600, Note_on_c, 0, 65, 0
2, 159600, Note_on_c, 0, 56, 26
2, 159600, Note_on_c, 0, 59, 26
2, 159600, Note_on_c, 0, 65, 26
2, 159600, Note_on_c, 0, 68, 26
2, 159840, Note_on_c, 0, 68, 0
2, 159840, Note_on_c, 0, 56, 0
2, 159840, Note_on_c, 0, 59, 0
2, 159840, Note_on_c, 0, 65, 0
2, 160080, Note_on_c, 0, 68, 27
2, 160160, Note_on_c, 0, 66, 27
2, 160180, Note_on_c, 0, 68, 0
2, 160240, Note_on_c, 0, 60, 27
2, 160260, Note_on_c, 0, 66, 0
2, 160320, Note_on_c, 0, 56, 30
2, 160340, Note_on_c, 0, 60, 0
2, 160440, Note_on_c, 0, 56, 0
2, 160560, Note_on_c, 0, 56, 31
2, 160560, Note_on_c, 0, 60, 31
2, 160560, Note_on_c, 0, 66, 31
2, 160560, Note_on_c, 0, 68, 33
2, 161040, Note_on_c, 0, 68, 0
2, 161040, Note_on_c, 0, 56, 0
2, 161040, Note_on_c, 0, 60, 0
2, 161040, Note_on_c, 0, 66, 0
2, 161040, Note_on_c, 0, 56, 31
2, 161040, Note_on_c, 0, 64, 31
2, 161040, Note_on_c, 0, 68, 31
2, 161280, Note_on_c, 0, 68, 0
2, 161280, Note_on_c, 0, 64, 0
2, 161280, Note_on_c, 0, 56, 0
2, 161280, Note_on_c, 0, 56, 31
2, 161280, Note_on_c, 0, 65, 31
2, 161280, Note_on_c, 0, 68, 31
2, 161520, Note_on_c, 0, 68, 0
2, 161520, Note_on_c, 0, 65, 0
2, 161520, Note_on_c, 0, 56, 0
2, 161640, Note_on_c, 0, 65, 33
2, 161640, Note_on_c, 0, 61, 33
2, 161700, Note_on_c, 0, 61, 0
2, 161700, Note_on_c, 0, 65, 0
2, 161880, Note_on_c, 0, 68, 33
2, 161880, Note_on_c, 0, 65, 33
2, 161940, Note_on_c, 0, 65, 0
2, 161940, Note_on_c, 0, 68, 0
2, 162120, Note_on_c, 0, 73, 33
2, 162120, Note_on_c, 0, 68, 33
2, 162180, Note_on_c, 0, 68, 0
2, 162180, Note_on_c, 0, 73, 0
2, 162360, Note_on_c, 0, 77, 32
2, 162360, Note_on_c, 0, 73, 32
2, 162420, Note_on_c, 0, 73, 0
2, 162420, Note_on_c, 0, 77, 0
2, 162600, Note_on_c, 0, 80, 32
2, 162600, Note_on_c, 0, 77, 32
2, 162660, Note_on_c, 0, 77, 0
2, 162660, Note_on_c, 0, 80, 0
2, 162840, Note_on_c, 0, 85, 31
2, 162840, Note_on_c, 0, 80, 31
2, 162900, Note_on_c, 0, 80, 0
2, 162900, Note_on_c, 0, 85, 0
2, 163080, Note_on_c, 0, 73, 31
2, 163080, Note_on_c, 0, 77, 31
2, 163140, Note_on_c, 0, 77, 0
2, 163140, Note_on_c, 0, 73, 0
2, 163320, Note_on_c, 0, 80, 30
2, 163320, Note_on_c, 0, 77, 30
2, 163380, Note_on_c, 0, 77, 0
2, 163380, Note_on_c, 0, 80, 0
2, 163560, Note_on_c, 0, 85, 30
2, 163560, Note_on_c, 0, 80, 30
2, 163620, Note_on_c, 0, 80, 0
2, 163620, Note_on_c, 0, 85, 0
2, 163800, Note_on_c, 0, 89, 30
2, 163800, Note_on_c, 0, 85, 30
2, 163860, Note_on_c, 0, 85, 0
2, 163860, Note_on_c, 0, 89, 0
2, 164040, Note_on_c, 0, 92, 29
2, 164040, Note_on_c, 0, 89, 29
2, 164100, Note_on_c, 0, 89, 0
2, 164100, Note_on_c, 0, 92, 0
2, 164130, Note_on_c, 0, 85, 29
2, 164145, Note_on_c, 0, 89, 35
2, 164160, Note_on_c, 0, 97, 35
2, 165600, Note_on_c, 0, 97, 0
2, 165600, Note_on_c, 0, 89, 0
2, 165600, Note_on_c, 0, 85, 0
2, 165600, Note_on_c, 0, 65, 26
2, 165600, Note_on_c, 0, 61, 20
2, 165600, Note_on_c, 0, 53, 20
2, 167040, Note_on_c, 0, 53, 0
2, 167040, Note_on_c, 0, 61, 0
2, 167040, Note_on_c, 0, 65, 0
2, 167040, End_track
3, 0, Start_track
3, 0, Title_t, "Piano left"
3, 0, Program_c, 0, 0
3, 0, Control_c, 0, 7, 100
3, 0, Control_c, 0, 10, 64
3, 0, Note_on_c, 0, 49, 34
3, 43, Control_c, 0, 64, 127
3, 482, Control_c, 0, 64, 0
3, 741, Control_c, 0, 64, 127
3, 960, Note_on_c, 0, 49, 0
3, 960, Note_on_c, 0, 44, 34
3, 1200, Note_on_c, 0, 44, 0
3, 1200, Note_on_c, 0, 50, 39
3, 1214, Control_c, 0, 64, 0
3, 1440, Note_on_c, 0, 50, 0
3, 1440, Note_on_c, 0, 51, 49
3, 1525, Control_c, 0, 64, 127
3, 1937, Control_c, 0, 64, 0
3, 2206, Control_c, 0, 64, 127
3, 2400, Note_on_c, 0, 51, 0
3, 2400, Note_on_c, 0, 44, 39
3, 2640, Note_on_c, 0, 44, 0
3, 2640, Note_on_c, 0, 48, 35
3, 2658, Control_c, 0, 64, 0
3, 2880, Note_on_c, 0, 48, 0
3, 2880, Note_on_c, 0, 49, 27
3, 2940, Control_c, 0, 64, 127
3, 3370, Control_c, 0, 64, 0
3, 3621, Control_c, 0, 64, 127
3, 3840, Note_on_c, 0, 49, 0
3, 3840, Note_on_c, 0, 44, 27
3, 4080, Note_on_c, 0, 44, 0
3, 4080, Note_on_c, 0, 50, 31
3, 4087, Control_c, 0, 64, 0
3, 4320, Note_on_c, 0, 50, 0
3, 4320, Note_on_c, 0, 51, 36
3, 4405, Control_c, 0, 64, 127
3, 4815, Control_c, 0, 64, 0
3, 5086, Control_c, 0, 64, 127
3, 5280, Note_on_c, 0, 51, 0
3, 5280, Note_on_c, 0, 44, 31
3, 5520, Note_on_c, 0, 44, 0
3, 5520, Note_on_c, 0, 48, 34
3, 5534, Control_c, 0, 64, 0
3, 5740, Note_on_c, 0, 48, 0
3, 5760, Note_on_c, 0, 49, 39
3, 5880, Note_on_c, 0, 49, 0
3, 5880, Control_c, 0, 64, 127
3, 6000, Note_on_c, 0, 55, 32
3, 6080, Note_on_c, 0, 56, 32
3, 6100, Note_on_c, 0, 55, 0
3, 6160, Note_on_c, 0, 61, 31
3, 6180, Note_on_c, 0, 56, 0
3, 6240, Note_on_c, 0, 61, 0
3, 6246, Control_c, 0, 64, 0
3, 6343, Control_c, 0, 64, 127
3, 6480, Note_on_c, 0, 68, 42
3, 6720, Note_on_c, 0, 68, 0
3, 6720, Note_on_c, 0, 44, 38
3, 6840, Note_on_c, 0, 44, 0
3, 6960, Control_c, 0, 64, 0
3, 6960, Note_on_c, 0, 61, 34
3, 6960, Note_on_c, 0, 68, 34
3, 6960, Note_on_c, 0, 56, 34
3, 7080, Note_on_c, 0, 56, 0
3, 7080, Note_on_c, 0, 68, 0
3, 7080, Note_on_c, 0, 61, 0
3, 7200, Note_on_c, 0, 49, 39
3, 7220, Control_c, 0, 64, 127
3, 7320, Note_on_c, 0, 49, 0
3, 7440, Note_on_c, 0, 55, 32
3, 7520, Note_on_c, 0, 56, 32
3, 7540, Note_on_c, 0, 55, 0
3, 7600, Note_on_c, 0, 61, 31
3, 7620, Note_on_c, 0, 56, 0
3, 7680, Note_on_c, 0, 65, 38
3, 7686, Control_c, 0, 64, 0
3, 7700, Note_on_c, 0, 61, 0
3, 7800, Note_on_c, 0, 65, 0
3, 7826, Control_c, 0, 64, 127
3, 7920, Note_on_c, 0, 56, 40
3, 7920, Note_on_c, 0, 65, 40
3, 7920, Note_on_c, 0, 61, 40
3, 8160, Note_on_c, 0, 61, 0
3, 8160, Note_on_c, 0, 65, 0
3, 8160, Note_on_c, 0, 56, 0
3, 8160, Note_on_c, 0, 44, 38
3, 8280, Note_on_c, 0, 44, 0
3, 8323, Control_c, 0, 64, 0
3, 8400, Note_on_c, 0, 61, 30
3, 8400, Note_on_c, 0, 65, 30
3, 8400, Note_on_c, 0, 56, 30
3, 8520, Note_on_c, 0, 56, 0
3, 8520, Note_on_c, 0, 65, 0
3, 8520, Note_on_c, 0, 61, 0
3, 8640, Note_on_c, 0, 51, 46
3, 8686, Control_c, 0, 64, 127
3, 8760, Note_on_c, 0, 51, 0
3, 8880, Note_on_c, 0, 55, 38
3, 8960, Note_on_c, 0, 56, 38
3, 8980, Note_on_c, 0, 55, 0
3, 9040, Note_on_c, 0, 60, 37
3, 9060, Note_on_c, 0, 56, 0
3, 9120, Note_on_c, 0, 66, 45
3, 9137, Control_c, 0, 64, 0
3, 9140, Note_on_c, 0, 60, 0
3, 9212, Control_c, 0, 64, 127
3, 9240, Note_on_c, 0, 66, 0
3, 9360, Note_on_c, 0, 56, 49
3, 9360, Note_on_c, 0, 66, 49
3, 9360, Note_on_c, 0, 60, 49
3, 9600, Note_on_c, 0, 60, 0
3, 9600, Note_on_c, 0, 66, 0
3, 9600, Note_on_c, 0, 56, 0
3, 9600, Note_on_c, 0, 44, 47
3, 9608, Control_c, 0, 64, 0
3, 9689, Control_c, 0, 64, 127
3, 9720, Note_on_c, 0, 44, 0
3, 9840, Note_on_c, 0, 66, 38
3, 9840, Note_on_c, 0, 56, 38
3, 9840, Note_on_c, 0, 60, 38
3, 9960, Note_on_c, 0, 60, 0
3, 9960, Note_on_c, 0, 56, 0
3, 9960, Note_on_c, 0, 66, 0
3, 10080, Note_on_c, 0, 51, 53
3, 10080, Control_c, 0, 64, 0
3, 10157, Control_c, 0, 64, 127
3, 10200, Note_on_c, 0, 51, 0
3, 10320, Note_on_c, 0, 55, 38
3, 10400, Note_on_c, 0, 56, 38
3, 10420, Note_on_c, 0, 55, 0
3, 10480, Note_on_c, 0, 60, 37
3, 10500, Note_on_c, 0, 56, 0
3, 10560, Note_on_c, 0, 66, 45
3, 10580, Note_on_c, 0, 60, 0
3, 10587, Control_c, 0, 64, 0
3, 10680, Note_on_c, 0, 66, 0
3, 10697, Control_c, 0, 64, 127
3, 10800, Note_on_c, 0, 56, 43
3, 10800, Note_on_c, 0, 66, 43
3, 10800, Note_on_c, 0, 60, 43
3, 11040, Note_on_c, 0, 60, 0
3, 11040, Note_on_c, 0, 66, 0
3, 11040, Note_on_c, 0, 56, 0
3, 11040, Note_on_c, 0, 44, 37
3, 11160, Note_on_c, 0, 44, 0
3, 11160, Control_c, 0, 64, 0
3, 11280, Note_on_c, 0, 60, 36
3, 11280, Note_on_c, 0, 56, 36
3, 11280, Note_on_c, 0, 66, 36
3, 11400, Note_on_c, 0, 66, 0
3, 11400, Note_on_c, 0, 56, 0
3, 11400, Note_on_c, 0, 60, 0
3, 11520, Note_on_c, 0, 49, 46
3, 11583, Control_c, 0, 64, 127
3, 11640, Note_on_c, 0, 49, 0
3, 11760, Note_on_c, 0, 55, 38
3, 11840, Note_on_c, 0, 56, 38
3, 11860, Note_on_c, 0, 55, 0
3, 11920, Note_on_c, 0, 61, 37
3, 11940, Note_on_c, 0, 56, 0
3, 12000, Note_on_c, 0, 61, 0
3, 12012, Control_c, 0, 64, 0
3, 12103, Control_c, 0, 64, 127
3, 12240, Note_on_c, 0, 68, 50
3, 12480, Note_on_c, 0, 68, 0
3, 12480, Note_on_c, 0, 44, 45
3, 12600, Note_on_c, 0, 44, 0
3, 12720, Note_on_c, 0, 68, 40
3, 12720, Note_on_c, 0, 61, 40
3, 12720, Note_on_c, 0, 56, 40
3, 12726, Control_c, 0, 64, 0
3, 12840, Note_on_c, 0, 56, 0
3, 12840, Note_on_c, 0, 61, 0
3, 12840, Note_on_c, 0, 68, 0
3, 12960, Note_on_c, 0, 49, 46
3, 13015, Control_c, 0, 64, 127
3, 13080, Note_on_c, 0, 49, 0
3, 13200, Note_on_c, 0, 55, 38
3, 13280, Note_on_c, 0, 56, 38
3, 13300, Note_on_c, 0, 55, 0
3, 13360, Note_on_c, 0, 61, 37
3, 13380, Note_on_c, 0, 56, 0
3, 13440, Note_on_c, 0, 65, 45
3, 13447, Control_c, 0, 64, 0
3, 13460, Note_on_c, 0, 61, 0
3, 13520, Control_c, 0, 64, 127
3, 13560, Note_on_c, 0, 65, 0
3, 13680, Note_on_c, 0, 61, 48
3, 13680, Note_on_c, 0, 65, 48
3, 13680, Note_on_c, 0, 56, 48
3, 13920, Note_on_c, 0, 56, 0
3, 13920, Note_on_c, 0, 65, 0
3, 13920, Note_on_c, 0, 61, 0
3, 13920, Note_on_c, 0, 44, 45
3, 14040, Note_on_c, 0, 44, 0
3, 14049, Control_c, 0, 64, 0
3, 14160, Note_on_c, 0, 65, 36
3, 14160, Note_on_c, 0, 56, 36
3, 14160, Note_on_c, 0, 61, 36
3, 14280, Note_on_c, 0, 61, 0
3, 14280, Note_on_c, 0, 56, 0
3, 14280, Note_on_c, 0, 65, 0
3, 14400, Note_on_c, 0, 51, 46
3, 14446, Control_c, 0, 64, 127
3, 14520, Note_on_c, 0, 51, 0
3, 14640, Note_on_c, 0, 55, 38
3, 14720, Note_on_c, 0, 56, 38
3, 14740, Note_on_c, 0, 55, 0
3, 14800, Note_on_c, 0, 60, 37
3, 14820, Note_on_c, 0, 56, 0
3, 14880, Note_on_c, 0, 66, 45
3, 14895, Control_c, 0, 64, 0
3, 14900, Note_on_c, 0, 60, 0
3, 14966, Control_c, 0, 64, 127
3, 15000, Note_on_c, 0, 66, 0
3, 15120, Note_on_c, 0, 60, 49
3, 15120, Note_on_c, 0, 66, 49
3, 15120, Note_on_c, 0, 56, 49
3, 15360, Note_on_c, 0, 56, 0
3, 15360, Note_on_c, 0, 66, 0
3, 15360, Note_on_c, 0, 60, 0
3, 15360, Note_on_c, 0, 44, 47
3, 15366, Control_c, 0, 64, 0
3, 15457, Control_c, 0, 64, 127
3, 15480, Note_on_c, 0, 44, 0
3, 15600, Note_on_c, 0, 60, 38
3, 15600, Note_on_c, 0, 66, 38
3, 15600, Note_on_c, 0, 56, 38
3, 15720, Note_on_c, 0, 56, 0
3, 15720, Note_on_c, 0, 66, 0
3, 15720, Note_on_c, 0, 60, 0
3, 15840, Control_c, 0, 64, 0
3, 15840, Note_on_c, 0, 51, 53
3, 15894, Control_c, 0, 64, 127
3, 15960, Note_on_c, 0, 51, 0
3, 16080, Note_on_c, 0, 55, 38
3, 16160, Note_on_c, 0, 56, 38
3, 16180, Note_on_c, 0, 55, 0
3, 16240, Note_on_c, 0, 60, 37
3, 16260, Note_on_c, 0, 56, 0
3, 16320, Note_on_c, 0, 66, 45
3, 16340, Note_on_c, 0, 60, 0
3, 16347, Control_c, 0, 64, 0
3, 16440, Note_on_c, 0, 66, 0
3, 16457, Control_c, 0, 64, 127
3, 16560, Note_on_c, 0, 60, 43
3, 16560, Note_on_c, 0, 56, 43
3, 16560, Note_on_c, 0, 66, 43
3, 16800, Note_on_c, 0, 66, 0
3, 16800, Note_on_c, 0, 56, 0
3, 16800, Note_on_c, 0, 60, 0
3, 16800, Note_on_c, 0, 44, 37
3, 16920, Note_on_c, 0, 44, 0
3, 16923, Control_c, 0, 64, 0
3, 17040, Note_on_c, 0, 64, 36
3, 17040, Note_on_c, 0, 56, 36
3, 17040, Note_on_c, 0, 60, 36
3, 17160, Note_on_c, 0, 60, 0
3, 17160, Note_on_c, 0, 56, 0
3, 17160, Note_on_c, 0, 64, 0
3, 17280, Note_on_c, 0, 53, 50
3, 17343, Control_c, 0, 64, 127
3, 17400, Note_on_c, 0, 53, 0
3, 17520, Note_on_c, 0, 57, 41
3, 17600, Note_on_c, 0, 61, 41
3, 17620, Note_on_c, 0, 57, 0
3, 17680, Note_on_c, 0, 65, 40
3, 17700, Note_on_c, 0, 61, 0
3, 17760, Note_on_c, 0, 65, 0
3, 17760, Note_on_c, 0, 69, 55
3, 17774, Control_c, 0, 64, 0
3, 17880, Note_on_c, 0, 69, 0
3, 17923, Control_c, 0, 64, 127
3, 18000, Note_on_c, 0, 65, 49
3, 18000, Note_on_c, 0, 61, 49
3, 18240, Note_on_c, 0, 61, 0
3, 18240, Note_on_c, 0, 65, 0
3, 18240, Note_on_c, 0, 53, 49
3, 18360, Note_on_c, 0, 53, 0
3, 18480, Note_on_c, 0, 57, 44
3, 18480, Note_on_c, 0, 63, 44
3, 18495, Control_c, 0, 64, 0
3, 18600, Note_on_c, 0, 63, 0
3, 18600, Note_on_c, 0, 57, 0
3, 18720, Note_on_c, 0, 54, 50
3, 18783, Control_c, 0, 64, 127
3, 18840, Note_on_c, 0, 54, 0
3, 18960, Note_on_c, 0, 60, 41
3, 19040, Note_on_c, 0, 61, 41
3, 19060, Note_on_c, 0, 60, 0
3, 19120, Note_on_c, 0, 66, 40
3, 19140, Note_on_c, 0, 61, 0
3, 19200, Note_on_c, 0, 66, 0
3, 19211, Control_c, 0, 64, 0
3, 19303, Control_c, 0, 64, 127
3, 19440, Note_on_c, 0, 62, 55
3, 19680, Note_on_c, 0, 62, 0
3, 19680, Note_on_c, 0, 50, 49
3, 19800, Note_on_c, 0, 50, 0
3, 19920, Note_on_c, 0, 65, 44
3, 19920, Note_on_c, 0, 58, 44
3, 20040, Note_on_c, 0, 58, 0
3, 20040, Note_on_c, 0, 65, 0
3, 20160, Control_c, 0, 64, 0
3, 20160, Note_on_c, 0, 51, 50
3, 20235, Control_c, 0, 64, 127
3, 20280, Note_on_c, 0, 51, 0
3, 20400, Note_on_c, 0, 57, 41
3, 20480, Note_on_c, 0, 58, 41
3, 20500, Note_on_c, 0, 57, 0
3, 20560, Note_on_c, 0, 63, 40
3, 20580, Note_on_c, 0, 58, 0
3, 20640, Note_on_c, 0, 63, 0
3, 20658, Control_c, 0, 64, 0
3, 20880, Note_on_c, 0, 58, 50
3, 20952, Control_c, 0, 64, 127
3, 21120, Note_on_c, 0, 70, 46
3, 21360, Note_on_c, 0, 70, 0
3, 21360, Note_on_c, 0, 68, 43
3, 21363, Control_c, 0, 64, 0
3, 21600, Note_on_c, 0, 68, 0
3, 21600, Note_on_c, 0, 58, 0
3, 21600, Note_on_c, 0, 51, 46
3, 21663, Control_c, 0, 64, 127
3, 21720, Note_on_c, 0, 51, 0
3, 21840, Note_on_c, 0, 57, 38
3, 21920, Note_on_c, 0, 58, 38
3, 21940, Note_on_c, 0, 57, 0
3, 22000, Note_on_c, 0, 59, 37
3, 22020, Note_on_c, 0, 58, 0
3, 22074, Note_on_c, 0, 58, 50
3, 22080, Note_on_c, 0, 59, 0
3, 22086, Control_c, 0, 64, 0
3, 22314, Note_on_c, 0, 58, 0
3, 22323, Note_on_c, 0, 62, 50
3, 22372, Control_c, 0, 64, 127
3, 22563, Note_on_c, 0, 62, 0
3, 22563, Note_on_c, 0, 65, 55
3, 22803, Note_on_c, 0, 65, 0
3, 22803, Note_on_c, 0, 63, 51
3, 23040, Note_on_c, 0, 39, 46
3, 23043, Note_on_c, 0, 63, 0
3, 23046, Control_c, 0, 64, 0
3, 23135, Control_c, 0, 64, 127
3, 23160, Note_on_c, 0, 39, 0
3, 23280, Note_on_c, 0, 50, 38
3, 23360, Note_on_c, 0, 51, 38
3, 23380, Note_on_c, 0, 50, 0
3, 23440, Note_on_c, 0, 53, 37
3, 23460, Note_on_c, 0, 51, 0
3, 23520, Note_on_c, 0, 53, 0
3, 23520, Note_on_c, 0, 51, 50
3, 23528, Control_c, 0, 64, 0
3, 23640, Note_on_c, 0, 51, 0
3, 23760, Note_on_c, 0, 51, 50
3, 23829, Control_c, 0, 64, 127
3, 24240, Note_on_c, 0, 51, 0
3, 24240, Note_on_c, 0, 51, 46
3, 24248, Control_c, 0, 64, 0
3, 24480, Note_on_c, 0, 51, 0
3, 24480, Note_on_c, 0, 60, 49
3, 24480, Note_on_c, 0, 51, 49
3, 24597, Control_c, 0, 64, 127
3, 24720, Note_on_c, 0, 60, 0
3, 24720, Note_on_c, 0, 61, 46
3, 24960, Note_on_c, 0, 61, 0
3, 24960, Note_on_c, 0, 65, 49
3, 24971, Control_c, 0, 64, 0
3, 25045, Control_c, 0, 64, 127
3, 25200, Note_on_c, 0, 65, 0
3, 25200, Note_on_c, 0, 63, 45
3, 25440, Note_on_c, 0, 63, 0
3, 25440, Note_on_c, 0, 67, 48
3, 25459, Control_c, 0, 64, 0
3, 25567, Control_c, 0, 64, 127
3, 25680, Note_on_c, 0, 67, 0
3, 25680, Note_on_c, 0, 63, 45
3, 25920, Note_on_c, 0, 63, 0
3, 25920, Note_on_c, 0, 51, 0
3, 25920, Control_c, 0, 64, 0
3, 25920, Note_on_c, 0, 51, 46
3, 26026, Control_c, 0, 64, 127
3, 26040, Note_on_c, 0, 51, 0
3, 26160, Note_on_c, 0, 62, 38
3, 26240, Note_on_c, 0, 63, 38
3, 26260, Note_on_c, 0, 62, 0
3, 26320, Note_on_c, 0, 65, 37
3, 26340, Note_on_c, 0, 63, 0
3, 26400, Note_on_c, 0, 65, 0
3, 26400, Note_on_c, 0, 63, 43
3, 26410, Control_c, 0, 64, 0
3, 26520, Note_on_c, 0, 63, 0
3, 26640, Control_c, 0, 64, 127
3, 26640, Note_on_c, 0, 63, 50
3, 27120, Note_on_c, 0, 63, 0
3, 27120, Note_on_c, 0, 63, 46
3, 27360, Note_on_c, 0, 63, 0
3, 27360, Note_on_c, 0, 60, 49
3, 27360, Note_on_c, 0, 56, 49
3, 27373, Control_c, 0, 64, 0
3, 27509, Control_c, 0, 64, 127
3, 27600, Note_on_c, 0, 60, 0
3, 27600, Note_on_c, 0, 61, 46
3, 27840, Note_on_c, 0, 61, 0
3, 27840, Note_on_c, 0, 63, 49
3, 27856, Control_c, 0, 64, 0
3, 28000, Control_c, 0, 64, 127
3, 28080, Note_on_c, 0, 63, 0
3, 28080, Note_on_c, 0, 70, 50
3, 28320, Note_on_c, 0, 70, 0
3, 28320, Note_on_c, 0, 68, 50
3, 28329, Control_c, 0, 64, 0
3, 28412, Control_c, 0, 64, 127
3, 28560, Note_on_c, 0, 68, 0
3, 28560, Note_on_c, 0, 66, 47
3, 28800, Note_on_c, 0, 66, 0
3, 28800, Note_on_c, 0, 56, 0
3, 28800, Note_on_c, 0, 49, 55
3, 28810, Control_c, 0, 64, 0
3, 28863, Control_c, 0, 64, 127
3, 28920, Note_on_c, 0, 49, 0
3, 29040, Note_on_c, 0, 55, 49
3, 29120, Note_on_c, 0, 56, 49
3, 29140, Note_on_c, 0, 55, 0
3, 29200, Note_on_c, 0, 61, 48
3, 29220, Note_on_c, 0, 56, 0
3, 29280, Note_on_c, 0, 61, 0
3, 29297, Control_c, 0, 64, 0
3, 29383, Control_c, 0, 64, 127
3, 29520, Note_on_c, 0, 68, 61
3, 29760, Note_on_c, 0, 68, 0
3, 29760, Note_on_c, 0, 44, 59
3, 29880, Note_on_c, 0, 44, 0
3, 30000, Control_c, 0, 64, 0
3, 30000, Note_on_c, 0, 61, 52
3, 30000, Note_on_c, 0, 56, 52
3, 30000, Note_on_c, 0, 68, 52
3, 30120, Note_on_c, 0, 68, 0
3, 30120, Note_on_c, 0, 56, 0
3, 30120, Note_on_c, 0, 61, 0
3, 30240, Note_on_c, 0, 49, 60
3, 30260, Control_c, 0, 64, 127
3, 30360, Note_on_c, 0, 49, 0
3, 30480, Note_on_c, 0, 55, 49
3, 30560, Note_on_c, 0, 56, 49
3, 30580, Note_on_c, 0, 55, 0
3, 30640, Note_on_c, 0, 61, 48
3, 30660, Note_on_c, 0, 56, 0
3, 30720, Note_on_c, 0, 65, 60
3, 30733, Control_c, 0, 64, 0
3, 30740, Note_on_c, 0, 61, 0
3, 30795, Control_c, 0, 64, 127
3, 30840, Note_on_c, 0, 65, 0
3, 30960, Note_on_c, 0, 56, 57
3, 30960, Note_on_c, 0, 65, 57
3, 30960, Note_on_c, 0, 61, 57
3, 31200, Note_on_c, 0, 61, 0
3, 31200, Note_on_c, 0, 65, 0
3, 31200, Note_on_c, 0, 56, 0
3, 31200, Note_on_c, 0, 44, 61
3, 31320, Note_on_c, 0, 44, 0
3, 31440, Note_on_c, 0, 61, 49
3, 31440, Note_on_c, 0, 56, 49
3, 31440, Note_on_c, 0, 65, 49
3, 31443, Control_c, 0, 64, 0
3, 31560, Note_on_c, 0, 65, 0
3, 31560, Note_on_c, 0, 56, 0
3, 31560, Note_on_c, 0, 61, 0
3, 31680, Note_on_c, 0, 51, 57
3, 31732, Control_c, 0, 64, 127
3, 31800, Note_on_c, 0, 51, 0
3, 31920, Note_on_c, 0, 55, 47
3, 32000, Note_on_c, 0, 56, 47
3, 32020, Note_on_c, 0, 55, 0
3, 32080, Note_on_c, 0, 60, 46
3, 32100, Note_on_c, 0, 56, 0
3, 32160, Note_on_c, 0, 66, 56
3, 32177, Control_c, 0, 64, 0
3, 32180, Note_on_c, 0, 60, 0
3, 32255, Control_c, 0, 64, 127
3, 32280, Note_on_c, 0, 66, 0
3, 32400, Note_on_c, 0, 56, 59
3, 32400, Note_on_c, 0, 66, 59
3, 32400, Note_on_c, 0, 60, 59
3, 32640, Note_on_c, 0, 60, 0
3, 32640, Note_on_c, 0, 66, 0
3, 32640, Note_on_c, 0, 56, 0
3, 32640, Note_on_c, 0, 44, 56
3, 32648, Control_c, 0, 64, 0
3, 32732, Control_c, 0, 64, 127
3, 32760, Note_on_c, 0, 44, 0
3, 32880, Note_on_c, 0, 66, 44
3, 32880, Note_on_c, 0, 56, 44
3, 32880, Note_on_c, 0, 60, 44
3, 33000, Note_on_c, 0, 60, 0
3, 33000, Note_on_c, 0, 56, 0
3, 33000, Note_on_c, 0, 66, 0
3, 33120, Note_on_c, 0, 51, 60
3, 33129, Control_c, 0, 64, 0
3, 33174, Control_c, 0, 64, 127
3, 33240, Note_on_c, 0, 51, 0
3, 33360, Note_on_c, 0, 55, 47
3, 33440, Note_on_c, 0, 56, 47
3, 33460, Note_on_c, 0, 55, 0
3, 33520, Note_on_c, 0, 60, 44
3, 33540, Note_on_c, 0, 56, 0
3, 33600, Note_on_c, 0, 66, 55
3, 33620, Note_on_c, 0, 60, 0
3, 33626, Control_c, 0, 64, 0
3, 33720, Note_on_c, 0, 66, 0
3, 33737, Control_c, 0, 64, 127
3, 33840, Note_on_c, 0, 56, 51
3, 33840, Note_on_c, 0, 66, 51
3, 33840, Note_on_c, 0, 60, 51
3, 34080, Note_on_c, 0, 60, 0
3, 34080, Note_on_c, 0, 66, 0
3, 34080, Note_on_c, 0, 56, 0
3, 34080, Note_on_c, 0, 44, 42
3, 34200, Note_on_c, 0, 44, 0
3, 34212, Control_c, 0, 64, 0
3, 34320, Note_on_c, 0, 60, 40
3, 34320, Note_on_c, 0, 66, 40
3, 34320, Note_on_c, 0, 56, 40
3, 34440, Note_on_c, 0, 56, 0
3, 34440, Note_on_c, 0, 66, 0
3, 34440, Note_on_c, 0, 60, 0
3, 34560, Note_on_c, 0, 49, 39
3, 34623, Control_c, 0, 64, 127
3, 34680, Note_on_c, 0, 49, 0
3, 34800, Note_on_c, 0, 55, 32
3, 34880, Note_on_c, 0, 56, 32
3, 34900, Note_on_c, 0, 55, 0
3, 34960, Note_on_c, 0, 61, 31
3, 34980, Note_on_c, 0, 56, 0
3, 35040, Note_on_c, 0, 61, 0
3, 35049, Control_c, 0, 64, 0
3, 35143, Control_c, 0, 64, 127
3, 35280, Note_on_c, 0, 68, 42
3, 35520, Note_on_c, 0, 68, 0
3, 35520, Note_on_c, 0, 44, 38
3, 35640, Note_on_c, 0, 44, 0
3, 35760, Note_on_c, 0, 68, 34
3, 35760, Note_on_c, 0, 56, 34
3, 35760, Note_on_c, 0, 61, 34
3, 35770, Control_c, 0, 64, 0
3, 35880, Note_on_c, 0, 61, 0
3, 35880, Note_on_c, 0, 56, 0
3, 35880, Note_on_c, 0, 68, 0
3, 36000, Note_on_c, 0, 49, 39
3, 36055, Control_c, 0, 64, 127
3, 36120, Note_on_c, 0, 49, 0
3, 36240, Note_on_c, 0, 55, 32
3, 36320, Note_on_c, 0, 56, 32
3, 36340, Note_on_c, 0, 55, 0
3, 36400, Note_on_c, 0, 61, 31
3, 36420, Note_on_c, 0, 56, 0
3, 36480, Note_on_c, 0, 65, 38
3, 36495, Control_c, 0, 64, 0
3, 36500, Note_on_c, 0, 61, 0
3, 36566, Control_c, 0, 64, 127
3, 36600, Note_on_c, 0, 65, 0
3, 36720, Note_on_c, 0, 61, 40
3, 36720, Note_on_c, 0, 56, 40
3, 36720, Note_on_c, 0, 65, 40
3, 36960, Note_on_c, 0, 65, 0
3, 36960, Note_on_c, 0, 56, 0
3, 36960, Note_on_c, 0, 61, 0
3, 36960, Note_on_c, 0, 44, 38
3, 37080, Note_on_c, 0, 44, 0
3, 37086, Control_c, 0, 64, 0
3, 37200, Note_on_c, 0, 65, 30
3, 37200, Note_on_c, 0, 56, 30
3, 37200, Note_on_c, 0, 61, 30
3, 37320, Note_on_c, 0, 61, 0
3, 37320, Note_on_c, 0, 56, 0
3, 37320, Note_on_c, 0, 65, 0
3, 37440, Note_on_c, 0, 51, 46
3, 37492, Control_c, 0, 64, 127
3, 37560, Note_on_c, 0, 51, 0
3, 37680, Note_on_c, 0, 55, 38
3, 37760, Note_on_c, 0, 56, 38
3, 37780, Note_on_c, 0, 55, 0
3, 37840, Note_on_c, 0, 60, 37
3, 37860, Note_on_c, 0, 56, 0
3, 37920, Note_on_c, 0, 66, 45
3, 37931, Control_c, 0, 64, 0
3, 37940, Note_on_c, 0, 60, 0
3, 38012, Control_c, 0, 64, 127
3, 38040, Note_on_c, 0, 66, 0
3, 38160, Note_on_c, 0, 60, 48
3, 38160, Note_on_c, 0, 56, 48
3, 38160, Note_on_c, 0, 66, 48
3, 38400, Note_on_c, 0, 66, 0
3, 38400, Note_on_c, 0, 56, 0
3, 38400, Note_on_c, 0, 60, 0
3, 38400, Note_on_c, 0, 44, 45
3, 38410, Control_c, 0, 64, 0
3, 38512, Control_c, 0, 64, 127
3, 38520, Note_on_c, 0, 44, 0
3, 38640, Note_on_c, 0, 60, 36
3, 38640, Note_on_c, 0, 56, 36
3, 38640, Note_on_c, 0, 66, 36
3, 38760, Note_on_c, 0, 66, 0
3, 38760, Note_on_c, 0, 56, 0
3, 38760, Note_on_c, 0, 60, 0
3, 38880, Control_c, 0, 64, 0
3, 38880, Note_on_c, 0, 51, 49
3, 38940, Control_c, 0, 64, 127
3, 39000, Note_on_c, 0, 51, 0
3, 39120, Note_on_c, 0, 55, 38
3, 39200, Note_on_c, 0, 56, 38
3, 39220, Note_on_c, 0, 55, 0
3, 39280, Note_on_c, 0, 60, 37
3, 39300, Note_on_c, 0, 56, 0
3, 39360, Note_on_c, 0, 66, 45
3, 39380, Note_on_c, 0, 60, 0
3, 39381, Control_c, 0, 64, 0
3, 39480, Note_on_c, 0, 66, 0
3, 39497, Control_c, 0, 64, 127
3, 39600, Note_on_c, 0, 60, 43
3, 39600, Note_on_c, 0, 66, 43
3, 39600, Note_on_c, 0, 56, 43
3, 39840, Note_on_c, 0, 56, 0
3, 39840, Note_on_c, 0, 66, 0
3, 39840, Note_on_c, 0, 60, 0
3, 39840, Note_on_c, 0, 47, 33
3, 39846, Control_c, 0, 64, 0
3, 39955, Control_c, 0, 64, 127
3, 40020, Note_on_c, 0, 58, 23
3, 40080, Note_on_c, 0, 58, 0
3, 40080, Note_on_c, 0, 59, 28
3, 40200, Note_on_c, 0, 59, 0
3, 40320, Note_on_c, 0, 47, 0
3, 40320, Note_on_c, 0, 52, 42
3, 40320, Control_c, 0, 64, 0
3, 40383, Control_c, 0, 64, 127
3, 40440, Note_on_c, 0, 52, 0
3, 40560, Note_on_c, 0, 58, 36
3, 40640, Note_on_c, 0, 59, 36
3, 40660, Note_on_c, 0, 58, 0
3, 40720, Note_on_c, 0, 61, 36
3, 40740, Note_on_c, 0, 59, 0
3, 40800, Note_on_c, 0, 61, 0
3, 40800, Note_on_c, 0, 59, 49
3, 40813, Control_c, 0, 64, 0
3, 40903, Control_c, 0, 64, 127
3, 40920, Note_on_c, 0, 59, 0
3, 41040, Note_on_c, 0, 59, 44
3, 41280, Note_on_c, 0, 59, 0
3, 41280, Note_on_c, 0, 47, 44
3, 41400, Note_on_c, 0, 47, 0
3, 41520, Note_on_c, 0, 59, 44
3, 41520, Note_on_c, 0, 53, 44
3, 41520, Note_on_c, 0, 62, 44
3, 41640, Note_on_c, 0, 62, 0
3, 41640, Note_on_c, 0, 53, 0
3, 41640, Note_on_c, 0, 59, 0
3, 41760, Note_on_c, 0, 54, 50
3, 41766, Control_c, 0, 64, 0
3, 41860, Control_c, 0, 64, 127
3, 41880, Note_on_c, 0, 54, 0
3, 42000, Note_on_c, 0, 58, 41
3, 42080, Note_on_c, 0, 59, 41
3, 42100, Note_on_c, 0, 58, 0
3, 42160, Note_on_c, 0, 61, 40
3, 42180, Note_on_c, 0, 59, 0
3, 42240, Note_on_c, 0, 61, 0
3, 42240, Note_on_c, 0, 59, 55
3, 42252, Control_c, 0, 64, 0
3, 42343, Control_c, 0, 64, 127
3, 42360, Note_on_c, 0, 59, 0
3, 42480, Note_on_c, 0, 59, 56
3, 42720, Note_on_c, 0, 59, 0
3, 42720, Note_on_c, 0, 47, 51
3, 42840, Note_on_c, 0, 47, 0
3, 42960, Note_on_c, 0, 63, 47
3, 42960, Note_on_c, 0, 59, 47
3, 42960, Note_on_c, 0, 69, 47
3, 43080, Note_on_c, 0, 69, 0
3, 43080, Note_on_c, 0, 59, 0
3, 43080, Note_on_c, 0, 63, 0
3, 43200, Note_on_c, 0, 52, 42
3, 43210, Control_c, 0, 64, 0
3, 43320, Note_on_c, 0, 52, 0
3, 43320, Control_c, 0, 64, 127
3, 43440, Note_on_c, 0, 58, 34
3, 43520, Note_on_c, 0, 59, 34
3, 43540, Note_on_c, 0, 58, 0
3, 43600, Note_on_c, 0, 61, 34
3, 43620, Note_on_c, 0, 59, 0
3, 43680, Note_on_c, 0, 61, 0
3, 43680, Note_on_c, 0, 59, 46
3, 43690, Control_c, 0, 64, 0
3, 43783, Control_c, 0, 64, 127
3, 43800, Note_on_c, 0, 59, 0
3, 43920, Note_on_c, 0, 59, 41
3, 44160, Note_on_c, 0, 59, 0
3, 44160, Note_on_c, 0, 47, 41
3, 44280, Note_on_c, 0, 47, 0
3, 44400, Note_on_c, 0, 59, 37
3, 44400, Note_on_c, 0, 53, 37
3, 44400, Note_on_c, 0, 62, 37
3, 44520, Note_on_c, 0, 62, 0
3, 44520, Note_on_c, 0, 53, 0
3, 44520, Note_on_c, 0, 59, 0
3, 44640, Note_on_c, 0, 54, 42
3, 44646, Control_c, 0, 64, 0
3, 44703, Control_c, 0, 64, 127
3, 44760, Note_on_c, 0, 54, 0
3, 44880, Note_on_c, 0, 58, 34
3, 44960, Note_on_c, 0, 59, 34
3, 44980, Note_on_c, 0, 58, 0
3, 45040, Note_on_c, 0, 61, 34
3, 45060, Note_on_c, 0, 59, 0
3, 45120, Note_on_c, 0, 61, 0
3, 45120, Note_on_c, 0, 59, 46
3, 45138, Control_c, 0, 64, 0
3, 45223, Control_c, 0, 64, 127
3, 45240, Note_on_c, 0, 59, 0
3, 45360, Note_on_c, 0, 59, 46
3, 45600, Note_on_c, 0, 59, 0
3, 45600, Note_on_c, 0, 47, 48
3, 45720, Note_on_c, 0, 47, 0
3, 45840, Note_on_c, 0, 63, 43
3, 45840, Note_on_c, 0, 59, 43
3, 45840, Note_on_c, 0, 69, 43
3, 45960, Note_on_c, 0, 69, 0
3, 45960, Note_on_c, 0, 59, 0
3, 45960, Note_on_c, 0, 63, 0
3, 46080, Control_c, 0, 64, 0
3, 46080, Note_on_c, 0, 64, 69
3, 46232, Control_c, 0, 64, 127
3, 46320, Note_on_c, 0, 64, 0
3, 46320, Note_on_c, 0, 63, 56
3, 46400, Note_on_c, 0, 64, 56
3, 46420, Note_on_c, 0, 63, 0
3, 46480, Note_on_c, 0, 63, 56
3, 46500, Note_on_c, 0, 64, 0
3, 46560, Note_on_c, 0, 63, 0
3, 46560, Note_on_c, 0, 62, 66
3, 46574, Control_c, 0, 64, 0
3, 46663, Control_c, 0, 64, 127
3, 46800, Note_on_c, 0, 62, 0
3, 46800, Note_on_c, 0, 63, 53
3, 47040, Note_on_c, 0, 63, 0
3, 47040, Note_on_c, 0, 60, 60
3, 47049, Control_c, 0, 64, 0
3, 47121, Control_c, 0, 64, 127
3, 47280, Note_on_c, 0, 60, 0
3, 47280, Note_on_c, 0, 56, 55
3, 47520, Note_on_c, 0, 56, 0
3, 47520, Note_on_c, 0, 61, 60
3, 47528, Control_c, 0, 64, 0
3, 47760, Note_on_c, 0, 61, 0
3, 47760, Note_on_c, 0, 57, 55
3, 47817, Control_c, 0, 64, 127
3, 48000, Note_on_c, 0, 57, 0
3, 48000, Note_on_c, 0, 58, 58
3, 48017, Control_c, 0, 64, 0
3, 48103, Control_c, 0, 64, 127
3, 48240, Note_on_c, 0, 58, 0
3, 48240, Note_on_c, 0, 53, 54
3, 48251, Control_c, 0, 64, 0
3, 48331, Control_c, 0, 64, 127
3, 48480, Note_on_c, 0, 53, 0
3, 48480, Note_on_c, 0, 54, 57
3, 48491, Control_c, 0, 64, 0
3, 48572, Control_c, 0, 64, 127
3, 48720, Note_on_c, 0, 54, 0
3, 48720, Note_on_c, 0, 50, 53
3, 48720, Note_on_c, 0, 59, 53
3, 48732, Control_c, 0, 64, 0
3, 48823, Control_c, 0, 64, 127
3, 48960, Note_on_c, 0, 59, 0
3, 48960, Note_on_c, 0, 50, 0
3, 48960, Control_c, 0, 64, 0
3, 48960, Note_on_c, 0, 58, 49
3, 48960, Note_on_c, 0, 51, 49
3, 49076, Control_c, 0, 64, 127
3, 49458, Control_c, 0, 64, 0
3, 49539, Control_c, 0, 64, 127
3, 49939, Control_c, 0, 64, 0
3, 50016, Control_c, 0, 64, 127
3, 50400, Note_on_c, 0, 51, 0
3, 50400, Note_on_c, 0, 58, 0
3, 50400, Control_c, 0, 64, 0
3, 50400, Note_on_c, 0, 44, 50
3, 50509, Control_c, 0, 64, 127
3, 50640, Note_on_c, 0, 44, 0
3, 50640, Note_on_c, 0, 55, 41
3, 50720, Note_on_c, 0, 56, 41
3, 50740, Note_on_c, 0, 55, 0
3, 50800, Note_on_c, 0, 58, 40
3, 50820, Note_on_c, 0, 56, 0
3, 50880, Note_on_c, 0, 58, 0
3, 50880, Note_on_c, 0, 56, 50
3, 50888, Control_c, 0, 64, 0
3, 51120, Note_on_c, 0, 56, 0
3, 51120, Note_on_c, 0, 56, 50
3, 51129, Control_c, 0, 64, 127
3, 51360, Note_on_c, 0, 56, 0
3, 51360, Note_on_c, 0, 44, 46
3, 51600, Note_on_c, 0, 56, 43
3, 51840, Note_on_c, 0, 56, 0
3, 51840, Note_on_c, 0, 44, 0
3, 51840, Control_c, 0, 64, 0
3, 51840, Note_on_c, 0, 49, 40
3, 51928, Control_c, 0, 64, 127
3, 52341, Control_c, 0, 64, 0
3, 52581, Control_c, 0, 64, 127
3, 52800, Note_on_c, 0, 49, 0
3, 52800, Note_on_c, 0, 44, 40
3, 53040, Note_on_c, 0, 44, 0
3, 53040, Note_on_c, 0, 50, 47
3, 53054, Control_c, 0, 64, 0
3, 53280, Note_on_c, 0, 50, 0
3, 53280, Note_on_c, 0, 51, 58
3, 53365, Control_c, 0, 64, 127
3, 53768, Control_c, 0, 64, 0
3, 54046, Control_c, 0, 64, 127
3, 54240, Note_on_c, 0, 51, 0
3, 54240, Note_on_c, 0, 44, 47
3, 54480, Note_on_c, 0, 44, 0
3, 54480, Note_on_c, 0, 48, 42
3, 54493, Control_c, 0, 64, 0
3, 54720, Note_on_c, 0, 48, 0
3, 54720, Note_on_c, 0, 49, 27
3, 54780, Control_c, 0, 64, 127
3, 55211, Control_c, 0, 64, 0
3, 55532, Control_c, 0, 64, 127
3, 55680, Note_on_c, 0, 49, 0
3, 55680, Note_on_c, 0, 44, 27
3, 55920, Note_on_c, 0, 44, 0
3, 55920, Note_on_c, 0, 50, 31
3, 55934, Control_c, 0, 64, 0
3, 56160, Note_on_c, 0, 50, 0
3, 56160, Note_on_c, 0, 51, 36
3, 56245, Control_c, 0, 64, 127
3, 56652, Control_c, 0, 64, 0
3, 56926, Control_c, 0, 64, 127
3, 57120, Note_on_c, 0, 51, 0
3, 57120, Note_on_c, 0, 44, 31
3, 57360, Note_on_c, 0, 44, 0
3, 57360, Note_on_c, 0, 48, 34
3, 57600, Note_on_c, 0, 48, 0
3, 57600, Control_c, 0, 64, 0
3, 57600, Note_on_c, 0, 61, 63
3, 57663, Control_c, 0, 64, 127
3, 57840, Note_on_c, 0, 61, 0
3, 57840, Note_on_c, 0, 59, 56
3, 57920, Note_on_c, 0, 61, 56
3, 57940, Note_on_c, 0, 59, 0
3, 58000, Note_on_c, 0, 59, 56
3, 58020, Note_on_c, 0, 61, 0
3, 58080, Note_on_c, 0, 59, 0
3, 58080, Note_on_c, 0, 57, 62
3, 58090, Control_c, 0, 64, 0
3, 58183, Control_c, 0, 64, 127
3, 58320, Note_on_c, 0, 57, 0
3, 58320, Note_on_c, 0, 59, 56
3, 58560, Note_on_c, 0, 59, 0
3, 58560, Note_on_c, 0, 61, 63
3, 58577, Control_c, 0, 64, 0
3, 58645, Control_c, 0, 64, 127
3, 58800, Note_on_c, 0, 61, 0
3, 58800, Note_on_c, 0, 63, 58
3, 59040, Note_on_c, 0, 63, 0
3, 59040, Note_on_c, 0, 61, 68
3, 59048, Control_c, 0, 64, 0
3, 59103, Control_c, 0, 64, 127
3, 59280, Note_on_c, 0, 61, 0
3, 59280, Note_on_c, 0, 60, 52
3, 59360, Note_on_c, 0, 61, 52
3, 59380, Note_on_c, 0, 60, 0
3, 59440, Note_on_c, 0, 60, 52
3, 59460, Note_on_c, 0, 61, 0
3, 59520, Note_on_c, 0, 60, 0
3, 59520, Note_on_c, 0, 56, 57
3, 59535, Control_c, 0, 64, 0
3, 59623, Control_c, 0, 64, 127
3, 60480, Note_on_c, 0, 56, 0
3, 60480, Control_c, 0, 64, 0
3, 60480, Note_on_c, 0, 61, 34
3, 60586, Control_c, 0, 64, 127
3, 60720, Note_on_c, 0, 61, 0
3, 60720, Note_on_c, 0, 59, 30
3, 60800, Note_on_c, 0, 61, 30
3, 60820, Note_on_c, 0, 59, 0
3, 60880, Note_on_c, 0, 59, 30
3, 60900, Note_on_c, 0, 61, 0
3, 60960, Note_on_c, 0, 59, 0
3, 60960, Note_on_c, 0, 57, 33
3, 60971, Control_c, 0, 64, 0
3, 61063, Control_c, 0, 64, 127
3, 61200, Note_on_c, 0, 57, 0
3, 61200, Note_on_c, 0, 59, 30
3, 61440, Note_on_c, 0, 59, 0
3, 61440, Note_on_c, 0, 61, 34
3, 61450, Control_c, 0, 64, 0
3, 61539, Control_c, 0, 64, 127
3, 61680, Note_on_c, 0, 61, 0
3, 61680, Note_on_c, 0, 63, 31
3, 61920, Note_on_c, 0, 63, 0
3, 61920, Control_c, 0, 64, 0
3, 61920, Note_on_c, 0, 61, 39
3, 61983, Control_c, 0, 64, 127
3, 62160, Note_on_c, 0, 61, 0
3, 62160, Note_on_c, 0, 60, 28
3, 62240, Note_on_c, 0, 61, 28
3, 62260, Note_on_c, 0, 60, 0
3, 62320, Note_on_c, 0, 60, 28
3, 62340, Note_on_c, 0, 61, 0
3, 62400, Note_on_c, 0, 60, 0
3, 62400, Note_on_c, 0, 56, 30
3, 62406, Control_c, 0, 64, 0
3, 62503, Control_c, 0, 64, 127
3, 63360, Note_on_c, 0, 56, 0
3, 63360, Note_on_c, 0, 54, 46
3, 63360, Note_on_c, 0, 61, 52
3, 63369, Control_c, 0, 64, 0
3, 63494, Control_c, 0, 64, 127
3, 63851, Control_c, 0, 64, 0
3, 63974, Control_c, 0, 64, 127
3, 64320, Note_on_c, 0, 61, 0
3, 64320, Note_on_c, 0, 54, 0
3, 64320, Note_on_c, 0, 49, 47
3, 64320, Note_on_c, 0, 56, 47
3, 64334, Control_c, 0, 64, 0
3, 64416, Control_c, 0, 64, 127
3, 64800, Note_on_c, 0, 56, 0
3, 64800, Note_on_c, 0, 49, 0
3, 64800, Note_on_c, 0, 54, 37
3, 64800, Note_on_c, 0, 61, 37
3, 64805, Control_c, 0, 64, 0
3, 64991, Control_c, 0, 64, 127
3, 65292, Control_c, 0, 64, 0
3, 65414, Control_c, 0, 64, 127
3, 65760, Note_on_c, 0, 61, 0
3, 65760, Note_on_c, 0, 54, 0
3, 65760, Note_on_c, 0, 49, 33
3, 65760, Note_on_c, 0, 56, 33
3, 65776, Control_c, 0, 64, 0
3, 65880, Control_c, 0, 64, 127
3, 66240, Note_on_c, 0, 56, 0
3, 66240, Note_on_c, 0, 49, 0
3, 66240, Note_on_c, 0, 56, 37
3, 66240, Note_on_c, 0, 63, 41
3, 66244, Control_c, 0, 64, 0
3, 66413, Control_c, 0, 64, 127
3, 66480, Note_on_c, 0, 63, 0
3, 66480, Note_on_c, 0, 61, 37
3, 66720, Note_on_c, 0, 61, 0
3, 66720, Note_on_c, 0, 60, 41
3, 66729, Control_c, 0, 64, 0
3, 66854, Control_c, 0, 64, 127
3, 67200, Note_on_c, 0, 60, 0
3, 67200, Note_on_c, 0, 61, 34
3, 67218, Control_c, 0, 64, 0
3, 67306, Control_c, 0, 64, 127
3, 67440, Note_on_c, 0, 61, 0
3, 67440, Note_on_c, 0, 63, 36
3, 67680, Note_on_c, 0, 63, 0
3, 67680, Note_on_c, 0, 64, 39
3, 67683, Control_c, 0, 64, 0
3, 67840, Control_c, 0, 64, 127
3, 67920, Note_on_c, 0, 64, 0
3, 67920, Note_on_c, 0, 63, 36
3, 68160, Note_on_c, 0, 63, 0
3, 68160, Note_on_c, 0, 61, 39
3, 68177, Control_c, 0, 64, 0
3, 68275, Control_c, 0, 64, 127
3, 68400, Note_on_c, 0, 61, 0
3, 68400, Note_on_c, 0, 63, 34
3, 68640, Note_on_c, 0, 63, 0
3, 68640, Note_on_c, 0, 60, 37
3, 68646, Control_c, 0, 64, 0
3, 68800, Control_c, 0, 64, 127
3, 68880, Note_on_c, 0, 60, 0
3, 68880, Note_on_c, 0, 56, 0
3, 68880, Note_on_c, 0, 56, 34
3, 69120, Note_on_c, 0, 56, 0
3, 69120, Control_c, 0, 64, 0
3, 69120, Note_on_c, 0, 61, 48
3, 69219, Control_c, 0, 64, 127
3, 69360, Note_on_c, 0, 61, 0
3, 69360, Note_on_c, 0, 59, 41
3, 69440, Note_on_c, 0, 61, 41
3, 69460, Note_on_c, 0, 59, 0
3, 69520, Note_on_c, 0, 59, 41
3, 69540, Note_on_c, 0, 61, 0
3, 69600, Note_on_c, 0, 59, 0
3, 69600, Note_on_c, 0, 57, 47
3, 69614, Control_c, 0, 64, 0
3, 69703, Control_c, 0, 64, 127
3, 69840, Note_on_c, 0, 57, 0
3, 69840, Note_on_c, 0, 59, 41
3, 70080, Note_on_c, 0, 59, 0
3, 70080, Note_on_c, 0, 61, 48
3, 70090, Control_c, 0, 64, 0
3, 70176, Control_c, 0, 64, 127
3, 70320, Note_on_c, 0, 61, 0
3, 70320, Note_on_c, 0, 63, 43
3, 70560, Note_on_c, 0, 63, 0
3, 70560, Note_on_c, 0, 61, 53
3, 70568, Control_c, 0, 64, 0
3, 70623, Control_c, 0, 64, 127
3, 70800, Note_on_c, 0, 61, 0
3, 70800, Note_on_c, 0, 60, 39
3, 70880, Note_on_c, 0, 61, 39
3, 70900, Note_on_c, 0, 60, 0
3, 70960, Note_on_c, 0, 60, 39
3, 70980, Note_on_c, 0, 61, 0
3, 71040, Note_on_c, 0, 60, 0
3, 71040, Note_on_c, 0, 56, 42
3, 71050, Control_c, 0, 64, 0
3, 71143, Control_c, 0, 64, 127
3, 72000, Note_on_c, 0, 56, 0
3, 72000, Note_on_c, 0, 61, 34
3, 72009, Control_c, 0, 64, 0
3, 72127, Control_c, 0, 64, 127
3, 72240, Note_on_c, 0, 61, 0
3, 72240, Note_on_c, 0, 59, 30
3, 72320, Note_on_c, 0, 61, 30
3, 72340, Note_on_c, 0, 59, 0
3, 72400, Note_on_c, 0, 59, 30
3, 72420, Note_on_c, 0, 61, 0
3, 72480, Note_on_c, 0, 59, 0
3, 72480, Note_on_c, 0, 57, 33
3, 72499, Control_c, 0, 64, 0
3, 72583, Control_c, 0, 64, 127
3, 72720, Note_on_c, 0, 57, 0
3, 72720, Note_on_c, 0, 59, 30
3, 72960, Note_on_c, 0, 59, 0
3, 72960, Note_on_c, 0, 61, 34
3, 72971, Control_c, 0, 64, 0
3, 73041, Control_c, 0, 64, 127
3, 73200, Note_on_c, 0, 61, 0
3, 73200, Note_on_c, 0, 63, 31
3, 73440, Note_on_c, 0, 63, 0
3, 73440, Note_on_c, 0, 61, 39
3, 73451, Control_c, 0, 64, 0
3, 73540, Control_c, 0, 64, 127
3, 73680, Note_on_c, 0, 61, 0
3, 73680, Note_on_c, 0, 60, 28
3, 73760, Note_on_c, 0, 61, 28
3, 73780, Note_on_c, 0, 60, 0
3, 73840, Note_on_c, 0, 60, 28
3, 73860, Note_on_c, 0, 61, 0
3, 73920, Note_on_c, 0, 60, 0
3, 73920, Note_on_c, 0, 56, 30
3, 73935, Control_c, 0, 64, 0
3, 74023, Control_c, 0, 64, 127
3, 74880, Note_on_c, 0, 56, 0
3, 74880, Note_on_c, 0, 54, 47
3, 74880, Note_on_c, 0, 61, 52
3, 74888, Control_c, 0, 64, 0
3, 74997, Control_c, 0, 64, 127
3, 75372, Control_c, 0, 64, 0
3, 75494, Control_c, 0, 64, 127
3, 75840, Note_on_c, 0, 61, 0
3, 75840, Note_on_c, 0, 54, 0
3, 75840, Note_on_c, 0, 49, 47
3, 75840, Note_on_c, 0, 56, 47
3, 75853, Control_c, 0, 64, 0
3, 75921, Control_c, 0, 64, 127
3, 76320, Note_on_c, 0, 56, 0
3, 76320, Note_on_c, 0, 49, 0
3, 76320, Note_on_c, 0, 54, 37
3, 76320, Note_on_c, 0, 61, 37
3, 76334, Control_c, 0, 64, 0
3, 76465, Control_c, 0, 64, 127
3, 76816, Control_c, 0, 64, 0
3, 76934, Control_c, 0, 64, 127
3, 77280, Note_on_c, 0, 61, 0
3, 77280, Note_on_c, 0, 54, 0
3, 77280, Note_on_c, 0, 49, 33
3, 77280, Note_on_c, 0, 56, 33
3, 77297, Control_c, 0, 64, 0
3, 77368, Control_c, 0, 64, 127
3, 77760, Note_on_c, 0, 56, 0
3, 77760, Note_on_c, 0, 49, 0
3, 77760, Note_on_c, 0, 59, 51
3, 77776, Control_c, 0, 64, 0
3, 77866, Control_c, 0, 64, 127
3, 78000, Note_on_c, 0, 59, 0
3, 78000, Note_on_c, 0, 57, 46
3, 78080, Note_on_c, 0, 59, 45
3, 78100, Note_on_c, 0, 57, 0
3, 78160, Note_on_c, 0, 57, 45
3, 78180, Note_on_c, 0, 59, 0
3, 78240, Note_on_c, 0, 57, 0
3, 78240, Note_on_c, 0, 56, 52
3, 78264, Control_c, 0, 64, 0
3, 78343, Control_c, 0, 64, 127
3, 78720, Note_on_c, 0, 56, 0
3, 78720, Note_on_c, 0, 59, 41
3, 78735, Control_c, 0, 64, 0
3, 78823, Control_c, 0, 64, 127
3, 78960, Note_on_c, 0, 59, 0
3, 78960, Note_on_c, 0, 57, 39
3, 79080, Note_on_c, 0, 57, 0
3, 79080, Note_on_c, 0, 44, 37
3, 79110, Note_on_c, 0, 54, 45
3, 79209, Control_c, 0, 64, 0
3, 79320, Control_c, 0, 64, 127
3, 79680, Note_on_c, 0, 54, 0
3, 79680, Note_on_c, 0, 44, 0
3, 79680, Note_on_c, 0, 49, 40
3, 79680, Note_on_c, 0, 52, 40
3, 79696, Control_c, 0, 64, 0
3, 79754, Control_c, 0, 64, 127
3, 79920, Note_on_c, 0, 52, 0
3, 79920, Note_on_c, 0, 54, 39
3, 80160, Note_on_c, 0, 54, 0
3, 80160, Note_on_c, 0, 52, 40
3, 80175, Control_c, 0, 64, 0
3, 80283, Control_c, 0, 64, 127
3, 80640, Note_on_c, 0, 52, 0
3, 80640, Note_on_c, 0, 49, 0
3, 80640, Note_on_c, 0, 56, 50
3, 80648, Control_c, 0, 64, 0
3, 80866, Control_c, 0, 64, 127
3, 81137, Control_c, 0, 64, 0
3, 81233, Control_c, 0, 64, 127
3, 81360, Note_on_c, 0, 56, 0
3, 81360, Note_on_c, 0, 54, 50
3, 81480, Note_on_c, 0, 54, 0
3, 81480, Note_on_c, 0, 56, 48
3, 81600, Note_on_c, 0, 56, 0
3, 81600, Note_on_c, 0, 57, 52
3, 81720, Note_on_c, 0, 57, 0
3, 81720, Note_on_c, 0, 59, 50
3, 81840, Note_on_c, 0, 59, 0
3, 81840, Note_on_c, 0, 57, 50
3, 81960, Note_on_c, 0, 57, 0
3, 81960, Note_on_c, 0, 54, 46
3, 82080, Note_on_c, 0, 54, 0
3, 82080, Note_on_c, 0, 56, 52
3, 82092, Control_c, 0, 64, 0
3, 82186, Control_c, 0, 64, 127
3, 82320, Note_on_c, 0, 56, 0
3, 82320, Note_on_c, 0, 57, 47
3, 82400, Note_on_c, 0, 59, 47
3, 82420, Note_on_c, 0, 57, 0
3, 82480, Note_on_c, 0, 57, 47
3, 82500, Note_on_c, 0, 59, 0
3, 82560, Note_on_c, 0, 56, 52
3, 82579, Control_c, 0, 64, 0
3, 82580, Note_on_c, 0, 57, 0
3, 82666, Control_c, 0, 64, 127
3, 82800, Note_on_c, 0, 56, 0
3, 82800, Note_on_c, 0, 69, 54
3, 82880, Note_on_c, 0, 71, 54
3, 82900, Note_on_c, 0, 69, 0
3, 82960, Note_on_c, 0, 69, 55
3, 82980, Note_on_c, 0, 71, 0
3, 83040, Note_on_c, 0, 68, 65
3, 83059, Control_c, 0, 64, 0
3, 83060, Note_on_c, 0, 69, 0
3, 83146, Control_c, 0, 64, 127
3, 83280, Note_on_c, 0, 68, 0
3, 83520, Note_on_c, 0, 44, 57
3, 83524, Control_c, 0, 64, 0
3, 83633, Control_c, 0, 64, 127
3, 83640, Note_on_c, 0, 44, 0
3, 83760, Note_on_c, 0, 63, 51
3, 83840, Note_on_c, 0, 64, 51
3, 83860, Note_on_c, 0, 63, 0
3, 83920, Note_on_c, 0, 63, 51
3, 83940, Note_on_c, 0, 64, 0
3, 84000, Note_on_c, 0, 56, 60
3, 84013, Control_c, 0, 64, 0
3, 84020, Note_on_c, 0, 63, 0
3, 84085, Control_c, 0, 64, 127
3, 84240, Note_on_c, 0, 63, 50
3, 84480, Note_on_c, 0, 63, 0
3, 84480, Note_on_c, 0, 68, 53
3, 84501, Control_c, 0, 64, 0
3, 84583, Control_c, 0, 64, 127
3, 84720, Note_on_c, 0, 68, 0
3, 84720, Note_on_c, 0, 66, 50
3, 84960, Note_on_c, 0, 66, 0
3, 84960, Note_on_c, 0, 64, 56
3, 84965, Control_c, 0, 64, 0
3, 85034, Control_c, 0, 64, 127
3, 85200, Note_on_c, 0, 64, 0
3, 85200, Note_on_c, 0, 63, 52
3, 85320, Note_on_c, 0, 63, 0
3, 85320, Note_on_c, 0, 61, 52
3, 85440, Note_on_c, 0, 61, 0
3, 85440, Note_on_c, 0, 60, 55
3, 85452, Control_c, 0, 64, 0
3, 85528, Control_c, 0, 64, 127
3, 85680, Note_on_c, 0, 60, 0
3, 85680, Note_on_c, 0, 61, 53
3, 85920, Note_on_c, 0, 61, 0
3, 85920, Note_on_c, 0, 60, 53
3, 85936, Control_c, 0, 64, 0
3, 86054, Control_c, 0, 64, 127
3, 86400, Note_on_c, 0, 60, 0
3, 86400, Note_on_c, 0, 56, 0
3, 86400, Note_on_c, 0, 56, 45
3, 86407, Control_c, 0, 64, 0
3, 86527, Control_c, 0, 64, 127
3, 86901, Control_c, 0, 64, 0
3, 87028, Control_c, 0, 64, 127
3, 87120, Note_on_c, 0, 56, 0
3, 87120, Note_on_c, 0, 54, 45
3, 87240, Note_on_c, 0, 54, 0
3, 87240, Note_on_c, 0, 56, 43
3, 87360, Note_on_c, 0, 56, 0
3, 87360, Note_on_c, 0, 57, 46
3, 87480, Note_on_c, 0, 57, 0
3, 87480, Note_on_c, 0, 59, 45
3, 87600, Note_on_c, 0, 59, 0
3, 87600, Note_on_c, 0, 57, 45
3, 87720, Note_on_c, 0, 57, 0
3, 87720, Note_on_c, 0, 54, 41
3, 87840, Note_on_c, 0, 54, 0
3, 87840, Note_on_c, 0, 56, 46
3, 87845, Control_c, 0, 64, 0
3, 87953, Control_c, 0, 64, 127
3, 88080, Note_on_c, 0, 56, 0
3, 88080, Note_on_c, 0, 57, 42
3, 88160, Note_on_c, 0, 59, 42
3, 88180, Note_on_c, 0, 57, 0
3, 88240, Note_on_c, 0, 57, 42
3, 88260, Note_on_c, 0, 59, 0
3, 88320, Note_on_c, 0, 56, 46
3, 88334, Control_c, 0, 64, 0
3, 88340, Note_on_c, 0, 57, 0
3, 88454, Control_c, 0, 64, 127
3, 88560, Note_on_c, 0, 56, 0
3, 88560, Note_on_c, 0, 69, 48
3, 88640, Note_on_c, 0, 71, 48
3, 88660, Note_on_c, 0, 69, 0
3, 88720, Note_on_c, 0, 69, 48
3, 88740, Note_on_c, 0, 71, 0
3, 88800, Note_on_c, 0, 68, 50
3, 88810, Control_c, 0, 64, 0
3, 88820, Note_on_c, 0, 69, 0
3, 88856, Control_c, 0, 64, 127
3, 89040, Note_on_c, 0, 68, 0
3, 89040, Note_on_c, 0, 59, 30
3, 89040, Note_on_c, 0, 69, 39
3, 89056, Control_c, 0, 64, 0
3, 89107, Control_c, 0, 64, 127
3, 89280, Note_on_c, 0, 69, 0
3, 89280, Note_on_c, 0, 59, 0
3, 89280, Note_on_c, 0, 64, 40
3, 89280, Note_on_c, 0, 68, 40
3, 89296, Control_c, 0, 64, 0
3, 89386, Control_c, 0, 64, 127
3, 89760, Note_on_c, 0, 68, 0
3, 89760, Note_on_c, 0, 69, 40
3, 89776, Control_c, 0, 64, 0
3, 89919, Control_c, 0, 64, 127
3, 90240, Note_on_c, 0, 69, 0
3, 90240, Note_on_c, 0, 66, 42
3, 90256, Control_c, 0, 64, 0
3, 90328, Control_c, 0, 64, 127
3, 90480, Note_on_c, 0, 66, 0
3, 90480, Note_on_c, 0, 69, 39
3, 90720, Note_on_c, 0, 69, 0
3, 90720, Note_on_c, 0, 64, 0
3, 90720, Note_on_c, 0, 69, 41
3, 90720, Note_on_c, 0, 64, 41
3, 90729, Control_c, 0, 64, 0
3, 90801, Control_c, 0, 64, 127
3, 91200, Note_on_c, 0, 69, 0
3, 91200, Note_on_c, 0, 68, 41
3, 91221, Control_c, 0, 64, 0
3, 91306, Control_c, 0, 64, 127
3, 91440, Note_on_c, 0, 68, 0
3, 91440, Note_on_c, 0, 69, 39
3, 91680, Note_on_c, 0, 69, 0
3, 91680, Note_on_c, 0, 68, 39
3, 91693, Control_c, 0, 64, 0
3, 91789, Control_c, 0, 64, 127
3, 92160, Note_on_c, 0, 68, 0
3, 92160, Note_on_c, 0, 64, 0
3, 92160, Note_on_c, 0, 57, 62
3, 92171, Control_c, 0, 64, 0
3, 92220, Control_c, 0, 64, 127
3, 92400, Note_on_c, 0, 57, 0
3, 92400, Note_on_c, 0, 57, 56
3, 92480, Note_on_c, 0, 59, 56
3, 92500, Note_on_c, 0, 57, 0
3, 92560, Note_on_c, 0, 57, 56
3, 92580, Note_on_c, 0, 59, 0
3, 92640, Note_on_c, 0, 56, 62
3, 92654, Control_c, 0, 64, 0
3, 92660, Note_on_c, 0, 57, 0
3, 92753, Control_c, 0, 64, 127
3, 92880, Note_on_c, 0, 56, 0
3, 92880, Note_on_c, 0, 51, 58
3, 92980, Note_on_c, 0, 51, 0
3, 93000, Note_on_c, 0, 56, 58
3, 93100, Note_on_c, 0, 56, 0
3, 93120, Note_on_c, 0, 57, 62
3, 93141, Control_c, 0, 64, 0
3, 93279, Control_c, 0, 64, 127
3, 93360, Note_on_c, 0, 57, 0
3, 93360, Note_on_c, 0, 57, 56
3, 93440, Note_on_c, 0, 59, 56
3, 93460, Note_on_c, 0, 57, 0
3, 93520, Note_on_c, 0, 57, 56
3, 93540, Note_on_c, 0, 59, 0
3, 93600, Note_on_c, 0, 56, 62
3, 93606, Control_c, 0, 64, 0
3, 93620, Note_on_c, 0, 57, 0
3, 93703, Control_c, 0, 64, 127
3, 93840, Note_on_c, 0, 56, 0
3, 93840, Note_on_c, 0, 63, 38
3, 93848, Control_c, 0, 64, 0
3, 93909, Control_c, 0, 64, 127
3, 93960, Note_on_c, 0, 63, 0
3, 93960, Note_on_c, 0, 64, 35
3, 94080, Note_on_c, 0, 64, 0
3, 94080, Note_on_c, 0, 66, 38
3, 94200, Note_on_c, 0, 66, 0
3, 94200, Note_on_c, 0, 68, 35
3, 94320, Note_on_c, 0, 68, 0
3, 94320, Note_on_c, 0, 66, 35
3, 94440, Note_on_c, 0, 66, 0
3, 94440, Note_on_c, 0, 63, 35
3, 94560, Note_on_c, 0, 63, 0
3, 94560, Note_on_c, 0, 60, 38
3, 94680, Note_on_c, 0, 60, 0
3, 94680, Note_on_c, 0, 64, 35
3, 94800, Note_on_c, 0, 64, 0
3, 94800, Note_on_c, 0, 63, 35
3, 94920, Note_on_c, 0, 63, 0
3, 94920, Note_on_c, 0, 57, 35
3, 95040, Note_on_c, 0, 57, 0
3, 95040, Note_on_c, 0, 56, 57
3, 95048, Control_c, 0, 64, 0
3, 95160, Control_c, 0, 64, 127
3, 95280, Note_on_c, 0, 56, 0
3, 95280, Note_on_c, 0, 57, 56
3, 95360, Note_on_c, 0, 59, 56
3, 95380, Note_on_c, 0, 57, 0
3, 95440, Note_on_c, 0, 57, 56
3, 95460, Note_on_c, 0, 59, 0
3, 95520, Note_on_c, 0, 56, 62
3, 95540, Note_on_c, 0, 57, 0
3, 95545, Control_c, 0, 64, 0
3, 95640, Control_c, 0, 64, 127
3, 95760, Note_on_c, 0, 56, 0
3, 95760, Note_on_c, 0, 51, 58
3, 95860, Note_on_c, 0, 51, 0
3, 95880, Note_on_c, 0, 56, 58
3, 95980, Note_on_c, 0, 56, 0
3, 96000, Note_on_c, 0, 57, 62
3, 96028, Control_c, 0, 64, 0
3, 96056, Control_c, 0, 64, 127
3, 96240, Note_on_c, 0, 57, 0
3, 96240, Note_on_c, 0, 57, 56
3, 96320, Note_on_c, 0, 59, 56
3, 96340, Note_on_c, 0, 57, 0
3, 96400, Note_on_c, 0, 57, 56
3, 96420, Note_on_c, 0, 59, 0
3, 96480, Control_c, 0, 64, 0
3, 96480, Note_on_c, 0, 56, 62
3, 96500, Note_on_c, 0, 57, 0
3, 96571, Control_c, 0, 64, 127
3, 96720, Note_on_c, 0, 56, 0
3, 96720, Note_on_c, 0, 63, 49
3, 96732, Control_c, 0, 64, 0
3, 96789, Control_c, 0, 64, 127
3, 96840, Note_on_c, 0, 63, 0
3, 96840, Note_on_c, 0, 64, 46
3, 96960, Note_on_c, 0, 64, 0
3, 96960, Note_on_c, 0, 66, 49
3, 97080, Note_on_c, 0, 66, 0
3, 97080, Note_on_c, 0, 68, 46
3, 97200, Note_on_c, 0, 68, 0
3, 97200, Note_on_c, 0, 66, 46
3, 97320, Note_on_c, 0, 66, 0
3, 97320, Note_on_c, 0, 63, 46
3, 97440, Note_on_c, 0, 63, 0
3, 97440, Note_on_c, 0, 60, 54
3, 97560, Note_on_c, 0, 60, 0
3, 97560, Note_on_c, 0, 64, 48
3, 97680, Note_on_c, 0, 64, 0
3, 97680, Note_on_c, 0, 63, 48
3, 97800, Note_on_c, 0, 63, 0
3, 97800, Note_on_c, 0, 57, 48
3, 97920, Note_on_c, 0, 57, 0
3, 97920, Control_c, 0, 64, 0
3, 97920, Note_on_c, 0, 56, 62
3, 98160, Note_on_c, 0, 56, 0
3, 98160, Note_on_c, 0, 54, 54
3, 98252, Control_c, 0, 64, 127
3, 98280, Note_on_c, 0, 54, 0
3, 98280, Note_on_c, 0, 56, 50
3, 98400, Note_on_c, 0, 56, 0
3, 98400, Note_on_c, 0, 57, 54
3, 98520, Note_on_c, 0, 57, 0
3, 98520, Note_on_c, 0, 61, 50
3, 98640, Note_on_c, 0, 61, 0
3, 98640, Note_on_c, 0, 59, 50
3, 98760, Note_on_c, 0, 59, 0
3, 98760, Note_on_c, 0, 56, 50
3, 98880, Note_on_c, 0, 56, 0
3, 98880, Note_on_c, 0, 54, 54
3, 99000, Note_on_c, 0, 54, 0
3, 99000, Note_on_c, 0, 57, 50
3, 99120, Note_on_c, 0, 57, 0
3, 99120, Note_on_c, 0, 56, 50
3, 99240, Note_on_c, 0, 56, 0
3, 99240, Note_on_c, 0, 52, 50
3, 99360, Note_on_c, 0, 52, 0
3, 99360, Note_on_c, 0, 51, 54
3, 99368, Control_c, 0, 64, 0
3, 99452, Control_c, 0, 64, 127
3, 99480, Note_on_c, 0, 51, 0
3, 99480, Note_on_c, 0, 52, 52
3, 99600, Note_on_c, 0, 52, 0
3, 99600, Note_on_c, 0, 54, 52
3, 99720, Note_on_c, 0, 54, 0
3, 99720, Note_on_c, 0, 56, 52
3, 99840, Note_on_c, 0, 56, 0
3, 99840, Note_on_c, 0, 54, 57
3, 99847, Control_c, 0, 64, 0
3, 99925, Control_c, 0, 64, 127
3, 99960, Note_on_c, 0, 54, 0
3, 99960, Note_on_c, 0, 51, 55
3, 100080, Note_on_c, 0, 51, 0
3, 100080, Note_on_c, 0, 52, 56
3, 100200, Note_on_c, 0, 52, 0
3, 100200, Note_on_c, 0, 49, 54
3, 100320, Note_on_c, 0, 49, 0
3, 100320, Note_on_c, 0, 51, 54
3, 100336, Control_c, 0, 64, 0
3, 100433, Control_c, 0, 64, 127
3, 100440, Note_on_c, 0, 51, 0
3, 100440, Note_on_c, 0, 47, 52
3, 100560, Note_on_c, 0, 47, 0
3, 100560, Note_on_c, 0, 49, 54
3, 100680, Note_on_c, 0, 49, 0
3, 100680, Note_on_c, 0, 45, 51
3, 100800, Note_on_c, 0, 45, 0
3, 100800, Control_c, 0, 64, 0
3, 100800, Note_on_c, 0, 44, 68
3, 100913, Control_c, 0, 64, 127
3, 101040, Note_on_c, 0, 44, 0
3, 101040, Note_on_c, 0, 51, 49
3, 101040, Note_on_c, 0, 57, 58
3, 101049, Control_c, 0, 64, 0
3, 101083, Control_c, 0, 64, 127
3, 101280, Note_on_c, 0, 57, 0
3, 101280, Note_on_c, 0, 51, 0
3, 101280, Note_on_c, 0, 56, 44
3, 101280, Note_on_c, 0, 60, 52
3, 101294, Control_c, 0, 64, 0
3, 101344, Control_c, 0, 64, 127
3, 101520, Note_on_c, 0, 60, 0
3, 101520, Note_on_c, 0, 56, 0
3, 101520, Note_on_c, 0, 51, 48
3, 101520, Note_on_c, 0, 57, 57
3, 101531, Control_c, 0, 64, 0
3, 101580, Control_c, 0, 64, 127
3, 101760, Note_on_c, 0, 57, 0
3, 101760, Note_on_c, 0, 51, 0
3, 101760, Note_on_c, 0, 56, 42
3, 101760, Note_on_c, 0, 60, 50
3, 101774, Control_c, 0, 64, 0
3, 101809, Control_c, 0, 64, 127
3, 102000, Note_on_c, 0, 60, 0
3, 102000, Note_on_c, 0, 56, 0
3, 102000, Note_on_c, 0, 51, 46
3, 102000, Note_on_c, 0, 57, 55
3, 102007, Control_c, 0, 64, 0
3, 102043, Control_c, 0, 64, 127
3, 102219, Control_c, 0, 64, 0
3, 102240, Note_on_c, 0, 57, 0
3, 102240, Note_on_c, 0, 51, 0
3, 102240, Note_on_c, 0, 56, 42
3, 102240, Note_on_c, 0, 60, 50
3, 102389, Control_c, 0, 64, 127
3, 102480, Note_on_c, 0, 60, 0
3, 102480, Note_on_c, 0, 56, 0
3, 102480, Note_on_c, 0, 56, 57
3, 102960, Note_on_c, 0, 56, 0
3, 102960, Note_on_c, 0, 56, 65
3, 103440, Note_on_c, 0, 56, 0
3, 103440, Note_on_c, 0, 56, 68
3, 103680, Note_on_c, 0, 56, 0
3, 103680, Note_on_c, 0, 49, 48
3, 103688, Control_c, 0, 64, 0
3, 103783, Control_c, 0, 64, 127
3, 104176, Control_c, 0, 64, 0
3, 104474, Control_c, 0, 64, 127
3, 104640, Note_on_c, 0, 49, 0
3, 104640, Note_on_c, 0, 44, 48
3, 104880, Note_on_c, 0, 44, 0
3, 104880, Note_on_c, 0, 50, 56
3, 105120, Note_on_c, 0, 50, 0
3, 105120, Note_on_c, 0, 51, 69
3, 105134, Control_c, 0, 64, 0
3, 105286, Control_c, 0, 64, 127
3, 105619, Control_c, 0, 64, 0
3, 105886, Control_c, 0, 64, 127
3, 106080, Note_on_c, 0, 51, 0
3, 106080, Note_on_c, 0, 44, 56
3, 106320, Note_on_c, 0, 44, 0
3, 106320, Note_on_c, 0, 48, 50
3, 106327, Control_c, 0, 64, 0
3, 106560, Note_on_c, 0, 48, 0
3, 106560, Note_on_c, 0, 49, 30
3, 106673, Control_c, 0, 64, 127
3, 107048, Control_c, 0, 64, 0
3, 107301, Control_c, 0, 64, 127
3, 107520, Note_on_c, 0, 49, 0
3, 107520, Note_on_c, 0, 44, 30
3, 107760, Note_on_c, 0, 44, 0
3, 107760, Note_on_c, 0, 50, 35
3, 107771, Control_c, 0, 64, 0
3, 108000, Note_on_c, 0, 50, 0
3, 108000, Note_on_c, 0, 51, 40
3, 108085, Control_c, 0, 64, 127
3, 108495, Control_c, 0, 64, 0
3, 108766, Control_c, 0, 64, 127
3, 108960, Note_on_c, 0, 51, 0
3, 108960, Note_on_c, 0, 44, 35
3, 109200, Note_on_c, 0, 44, 0
3, 109200, Note_on_c, 0, 48, 39
3, 109214, Control_c, 0, 64, 0
3, 109410, Note_on_c, 0, 48, 0
3, 109440, Note_on_c, 0, 49, 39
3, 109503, Control_c, 0, 64, 127
3, 109560, Note_on_c, 0, 49, 0
3, 109680, Note_on_c, 0, 55, 32
3, 109760, Note_on_c, 0, 56, 32
3, 109780, Note_on_c, 0, 55, 0
3, 109840, Note_on_c, 0, 61, 31
3, 109860, Note_on_c, 0, 56, 0
3, 109920, Note_on_c, 0, 61, 0
3, 109936, Control_c, 0, 64, 0
3, 110023, Control_c, 0, 64, 127
3, 110160, Note_on_c, 0, 68, 42
3, 110400, Note_on_c, 0, 68, 0
3, 110400, Note_on_c, 0, 44, 38
3, 110520, Note_on_c, 0, 44, 0
3, 110640, Note_on_c, 0, 68, 34
3, 110640, Note_on_c, 0, 61, 34
3, 110640, Note_on_c, 0, 56, 34
3, 110652, Control_c, 0, 64, 0
3, 110760, Note_on_c, 0, 56, 0
3, 110760, Note_on_c, 0, 61, 0
3, 110760, Note_on_c, 0, 68, 0
3, 110880, Note_on_c, 0, 49, 39
3, 110960, Control_c, 0, 64, 127
3, 111000, Note_on_c, 0, 49, 0
3, 111120, Note_on_c, 0, 55, 32
3, 111200, Note_on_c, 0, 56, 32
3, 111220, Note_on_c, 0, 55, 0
3, 111280, Note_on_c, 0, 61, 31
3, 111300, Note_on_c, 0, 56, 0
3, 111360, Note_on_c, 0, 65, 38
3, 111376, Control_c, 0, 64, 0
3, 111380, Note_on_c, 0, 61, 0
3, 111440, Control_c, 0, 64, 127
3, 111480, Note_on_c, 0, 65, 0
3, 111600, Note_on_c, 0, 56, 40
3, 111600, Note_on_c, 0, 61, 40
3, 111600, Note_on_c, 0, 65, 40
3, 111840, Note_on_c, 0, 65, 0
3, 111840, Note_on_c, 0, 61, 0
3, 111840, Note_on_c, 0, 56, 0
3, 111840, Note_on_c, 0, 44, 38
3, 111960, Note_on_c, 0, 44, 0
3, 111972, Control_c, 0, 64, 0
3, 112080, Note_on_c, 0, 65, 30
3, 112080, Note_on_c, 0, 61, 30
3, 112080, Note_on_c, 0, 56, 30
3, 112200, Note_on_c, 0, 56, 0
3, 112200, Note_on_c, 0, 61, 0
3, 112200, Note_on_c, 0, 65, 0
3, 112320, Note_on_c, 0, 51, 46
3, 112377, Control_c, 0, 64, 127
3, 112440, Note_on_c, 0, 51, 0
3, 112560, Note_on_c, 0, 55, 38
3, 112640, Note_on_c, 0, 56, 38
3, 112660, Note_on_c, 0, 55, 0
3, 112720, Note_on_c, 0, 60, 37
3, 112740, Note_on_c, 0, 56, 0
3, 112800, Note_on_c, 0, 66, 45
3, 112820, Note_on_c, 0, 60, 0
3, 112822, Control_c, 0, 64, 0
3, 112883, Control_c, 0, 64, 127
3, 112920, Note_on_c, 0, 66, 0
3, 113040, Note_on_c, 0, 56, 49
3, 113040, Note_on_c, 0, 60, 49
3, 113040, Note_on_c, 0, 66, 49
3, 113280, Note_on_c, 0, 66, 0
3, 113280, Note_on_c, 0, 60, 0
3, 113280, Note_on_c, 0, 56, 0
3, 113280, Note_on_c, 0, 44, 47
3, 113287, Control_c, 0, 64, 0
3, 113400, Note_on_c, 0, 44, 0
3, 113446, Control_c, 0, 64, 127
3, 113520, Note_on_c, 0, 66, 38
3, 113520, Note_on_c, 0, 60, 38
3, 113520, Note_on_c, 0, 56, 38
3, 113640, Note_on_c, 0, 56, 0
3, 113640, Note_on_c, 0, 60, 0
3, 113640, Note_on_c, 0, 66, 0
3, 113760, Control_c, 0, 64, 0
3, 113760, Note_on_c, 0, 51, 53
3, 113817, Control_c, 0, 64, 127
3, 113880, Note_on_c, 0, 51, 0
3, 114000, Note_on_c, 0, 55, 38
3, 114080, Note_on_c, 0, 56, 38
3, 114100, Note_on_c, 0, 55, 0
3, 114160, Note_on_c, 0, 60, 37
3, 114180, Note_on_c, 0, 56, 0
3, 114240, Note_on_c, 0, 66, 45
3, 114260, Note_on_c, 0, 60, 0
3, 114266, Control_c, 0, 64, 0
3, 114360, Note_on_c, 0, 66, 0
3, 114377, Control_c, 0, 64, 127
3, 114480, Note_on_c, 0, 56, 43
3, 114480, Note_on_c, 0, 60, 43
3, 114480, Note_on_c, 0, 66, 43
3, 114720, Note_on_c, 0, 66, 0
3, 114720, Note_on_c, 0, 60, 0
3, 114720, Note_on_c, 0, 56, 0
3, 114720, Note_on_c, 0, 44, 37
3, 114840, Note_on_c, 0, 44, 0
3, 114846, Control_c, 0, 64, 0
3, 114960, Note_on_c, 0, 66, 36
3, 114960, Note_on_c, 0, 60, 36
3, 114960, Note_on_c, 0, 56, 36
3, 115080, Note_on_c, 0, 56, 0
3, 115080, Note_on_c, 0, 60, 0
3, 115080, Note_on_c, 0, 66, 0
3, 115200, Note_on_c, 0, 49, 39
3, 115263, Control_c, 0, 64, 127
3, 115320, Note_on_c, 0, 49, 0
3, 115440, Note_on_c, 0, 55, 32
3, 115520, Note_on_c, 0, 56, 32
3, 115540, Note_on_c, 0, 55, 0
3, 115600, Note_on_c, 0, 61, 31
3, 115620, Note_on_c, 0, 56, 0
3, 115680, Note_on_c, 0, 61, 0
3, 115692, Control_c, 0, 64, 0
3, 115783, Control_c, 0, 64, 127
3, 115920, Note_on_c, 0, 68, 42
3, 116160, Note_on_c, 0, 68, 0
3, 116160, Note_on_c, 0, 44, 38
3, 116280, Note_on_c, 0, 44, 0
3, 116400, Note_on_c, 0, 68, 34
3, 116400, Note_on_c, 0, 61, 34
3, 116400, Note_on_c, 0, 56, 34
3, 116408, Control_c, 0, 64, 0
3, 116520, Note_on_c, 0, 56, 0
3, 116520, Note_on_c, 0, 61, 0
3, 116520, Note_on_c, 0, 68, 0
3, 116640, Note_on_c, 0, 49, 39
3, 116697, Control_c, 0, 64, 127
3, 116760, Note_on_c, 0, 49, 0
3, 116880, Note_on_c, 0, 55, 32
3, 116960, Note_on_c, 0, 56, 32
3, 116980, Note_on_c, 0, 55, 0
3, 117040, Note_on_c, 0, 61, 31
3, 117060, Note_on_c, 0, 56, 0
3, 117120, Note_on_c, 0, 65, 38
3, 117129, Control_c, 0, 64, 0
3, 117140, Note_on_c, 0, 61, 0
3, 117206, Control_c, 0, 64, 127
3, 117240, Note_on_c, 0, 65, 0
3, 117360, Note_on_c, 0, 56, 40
3, 117360, Note_on_c, 0, 61, 40
3, 117360, Note_on_c, 0, 65, 40
3, 117600, Note_on_c, 0, 65, 0
3, 117600, Note_on_c, 0, 61, 0
3, 117600, Note_on_c, 0, 56, 0
3, 117600, Note_on_c, 0, 44, 38
3, 117720, Note_on_c, 0, 44, 0
3, 117726, Control_c, 0, 64, 0
3, 117840, Note_on_c, 0, 65, 30
3, 117840, Note_on_c, 0, 61, 30
3, 117840, Note_on_c, 0, 56, 30
3, 117960, Note_on_c, 0, 56, 0
3, 117960, Note_on_c, 0, 61, 0
3, 117960, Note_on_c, 0, 65, 0
3, 118080, Note_on_c, 0, 51, 46
3, 118132, Control_c, 0, 64, 127
3, 118200, Note_on_c, 0, 51, 0
3, 118320, Note_on_c, 0, 55, 38
3, 118400, Note_on_c, 0, 56, 38
3, 118420, Note_on_c, 0, 55, 0
3, 118480, Note_on_c, 0, 60, 37
3, 118500, Note_on_c, 0, 56, 0
3, 118560, Note_on_c, 0, 66, 45
3, 118577, Control_c, 0, 64, 0
3, 118580, Note_on_c, 0, 60, 0
3, 118646, Control_c, 0, 64, 127
3, 118680, Note_on_c, 0, 66, 0
3, 118800, Note_on_c, 0, 56, 49
3, 118800, Note_on_c, 0, 60, 49
3, 118800, Note_on_c, 0, 66, 49
3, 119040, Note_on_c, 0, 66, 0
3, 119040, Note_on_c, 0, 60, 0
3, 119040, Note_on_c, 0, 56, 0
3, 119040, Note_on_c, 0, 44, 47
3, 119049, Control_c, 0, 64, 0
3, 119157, Control_c, 0, 64, 127
3, 119160, Note_on_c, 0, 44, 0
3, 119280, Note_on_c, 0, 66, 38
3, 119280, Note_on_c, 0, 60, 38
3, 119280, Note_on_c, 0, 56, 38
3, 119400, Note_on_c, 0, 56, 0
3, 119400, Note_on_c, 0, 60, 0
3, 119400, Note_on_c, 0, 66, 0
3, 119520, Control_c, 0, 64, 0
3, 119520, Note_on_c, 0, 51, 53
3, 119560, Control_c, 0, 64, 127
3, 119640, Note_on_c, 0, 51, 0
3, 119760, Note_on_c, 0, 55, 38
3, 119840, Note_on_c, 0, 56, 38
3, 119860, Note_on_c, 0, 55, 0
3, 119920, Note_on_c, 0, 60, 37
3, 119940, Note_on_c, 0, 56, 0
3, 120000, Note_on_c, 0, 66, 45
3, 120020, Note_on_c, 0, 60, 0
3, 120028, Control_c, 0, 64, 0
3, 120120, Note_on_c, 0, 66, 0
3, 120137, Control_c, 0, 64, 127
3, 120240, Note_on_c, 0, 56, 43
3, 120240, Note_on_c, 0, 60, 43
3, 120240, Note_on_c, 0, 66, 43
3, 120480, Note_on_c, 0, 66, 0
3, 120480, Note_on_c, 0, 60, 0
3, 120480, Note_on_c, 0, 56, 0
3, 120480, Note_on_c, 0, 44, 37
3, 120600, Note_on_c, 0, 44, 0
3, 120643, Control_c, 0, 64, 0
3, 120720, Note_on_c, 0, 64, 36
3, 120720, Note_on_c, 0, 60, 36
3, 120720, Note_on_c, 0, 56, 36
3, 120840, Note_on_c, 0, 56, 0
3, 120840, Note_on_c, 0, 60, 0
3, 120840, Note_on_c, 0, 64, 0
3, 120960, Note_on_c, 0, 53, 50
3, 121023, Control_c, 0, 64, 127
3, 121080, Note_on_c, 0, 53, 0
3, 121200, Note_on_c, 0, 57, 41
3, 121280, Note_on_c, 0, 61, 41
3, 121300, Note_on_c, 0, 57, 0
3, 121360, Note_on_c, 0, 65, 40
3, 121380, Note_on_c, 0, 61, 0
3, 121440, Note_on_c, 0, 65, 0
3, 121440, Note_on_c, 0, 69, 55
3, 121455, Control_c, 0, 64, 0
3, 121543, Control_c, 0, 64, 127
3, 121560, Note_on_c, 0, 69, 0
3, 121680, Note_on_c, 0, 61, 49
3, 121680, Note_on_c, 0, 65, 49
3, 121920, Note_on_c, 0, 65, 0
3, 121920, Note_on_c, 0, 61, 0
3, 121920, Note_on_c, 0, 53, 49
3, 122040, Note_on_c, 0, 53, 0
3, 122160, Note_on_c, 0, 63, 44
3, 122160, Note_on_c, 0, 57, 44
3, 122162, Control_c, 0, 64, 0
3, 122280, Note_on_c, 0, 57, 0
3, 122280, Note_on_c, 0, 63, 0
3, 122400, Note_on_c, 0, 54, 50
3, 122463, Control_c, 0, 64, 127
3, 122520, Note_on_c, 0, 54, 0
3, 122640, Note_on_c, 0, 60, 41
3, 122720, Note_on_c, 0, 61, 41
3, 122740, Note_on_c, 0, 60, 0
3, 122800, Note_on_c, 0, 66, 40
3, 122820, Note_on_c, 0, 61, 0
3, 122880, Note_on_c, 0, 66, 0
3, 122894, Control_c, 0, 64, 0
3, 122983, Control_c, 0, 64, 127
3, 123120, Note_on_c, 0, 62, 55
3, 123360, Note_on_c, 0, 62, 0
3, 123360, Note_on_c, 0, 50, 49
3, 123480, Note_on_c, 0, 50, 0
3, 123600, Note_on_c, 0, 65, 44
3, 123600, Note_on_c, 0, 58, 44
3, 123720, Note_on_c, 0, 58, 0
3, 123720, Note_on_c, 0, 65, 0
3, 123840, Note_on_c, 0, 51, 50
3, 123845, Control_c, 0, 64, 0
3, 123903, Control_c, 0, 64, 127
3, 123960, Note_on_c, 0, 51, 0
3, 124080, Note_on_c, 0, 57, 41
3, 124160, Note_on_c, 0, 58, 41
3, 124180, Note_on_c, 0, 57, 0
3, 124240, Note_on_c, 0, 63, 40
3, 124260, Note_on_c, 0, 58, 0
3, 124320, Note_on_c, 0, 63, 0
3, 124335, Control_c, 0, 64, 0
3, 124560, Note_on_c, 0, 58, 50
3, 124623, Control_c, 0, 64, 127
3, 124800, Note_on_c, 0, 70, 46
3, 125040, Note_on_c, 0, 70, 0
3, 125040, Note_on_c, 0, 68, 43
3, 125054, Control_c, 0, 64, 0
3, 125280, Note_on_c, 0, 68, 0
3, 125280, Note_on_c, 0, 58, 0
3, 125280, Note_on_c, 0, 51, 46
3, 125343, Control_c, 0, 64, 127
3, 125400, Note_on_c, 0, 51, 0
3, 125520, Note_on_c, 0, 57, 38
3, 125600, Note_on_c, 0, 58, 38
3, 125620, Note_on_c, 0, 57, 0
3, 125680, Note_on_c, 0, 59, 37
3, 125700, Note_on_c, 0, 58, 0
3, 125760, Note_on_c, 0, 59, 0
3, 125760, Note_on_c, 0, 58, 50
3, 125783, Control_c, 0, 64, 0
3, 125892, Control_c, 0, 64, 127
3, 126000, Note_on_c, 0, 58, 0
3, 126000, Note_on_c, 0, 62, 50
3, 126240, Note_on_c, 0, 62, 0
3, 126240, Note_on_c, 0, 65, 55
3, 126480, Note_on_c, 0, 65, 0
3, 126480, Note_on_c, 0, 63, 51
3, 126720, Note_on_c, 0, 63, 0
3, 126720, Control_c, 0, 64, 0
3, 126720, Note_on_c, 0, 39, 46
3, 126783, Control_c, 0, 64, 127
3, 126840, Note_on_c, 0, 39, 0
3, 126960, Note_on_c, 0, 50, 38
3, 127040, Note_on_c, 0, 51, 38
3, 127060, Note_on_c, 0, 50, 0
3, 127120, Note_on_c, 0, 53, 37
3, 127140, Note_on_c, 0, 51, 0
3, 127200, Note_on_c, 0, 53, 0
3, 127200, Note_on_c, 0, 51, 50
3, 127217, Control_c, 0, 64, 0
3, 127320, Note_on_c, 0, 51, 0
3, 127440, Note_on_c, 0, 51, 50
3, 127486, Control_c, 0, 64, 127
3, 127920, Note_on_c, 0, 51, 0
3, 127920, Note_on_c, 0, 51, 46
3, 128160, Note_on_c, 0, 51, 0
3, 128160, Control_c, 0, 64, 0
3, 128160, Note_on_c, 0, 51, 41
3, 128160, Note_on_c, 0, 60, 41
3, 128277, Control_c, 0, 64, 127
3, 128400, Note_on_c, 0, 60, 0
3, 128400, Note_on_c, 0, 61, 39
3, 128640, Note_on_c, 0, 61, 0
3, 128640, Note_on_c, 0, 65, 41
3, 128654, Control_c, 0, 64, 0
3, 128725, Control_c, 0, 64, 127
3, 128880, Note_on_c, 0, 65, 0
3, 128880, Note_on_c, 0, 63, 38
3, 129120, Note_on_c, 0, 63, 0
3, 129120, Note_on_c, 0, 67, 40
3, 129141, Control_c, 0, 64, 0
3, 129226, Control_c, 0, 64, 127
3, 129360, Note_on_c, 0, 67, 0
3, 129360, Note_on_c, 0, 63, 38
3, 129600, Note_on_c, 0, 63, 0
3, 129600, Note_on_c, 0, 51, 0
3, 129600, Note_on_c, 0, 51, 39
3, 129611, Control_c, 0, 64, 0
3, 129700, Control_c, 0, 64, 127
3, 129720, Note_on_c, 0, 51, 0
3, 129840, Note_on_c, 0, 62, 32
3, 129920, Note_on_c, 0, 63, 32
3, 129940, Note_on_c, 0, 62, 0
3, 130000, Note_on_c, 0, 65, 31
3, 130020, Note_on_c, 0, 63, 0
3, 130080, Note_on_c, 0, 65, 0
3, 130080, Note_on_c, 0, 63, 36
3, 130095, Control_c, 0, 64, 0
3, 130200, Note_on_c, 0, 63, 0
3, 130320, Note_on_c, 0, 63, 42
3, 130375, Control_c, 0, 64, 127
3, 130800, Note_on_c, 0, 63, 0
3, 130800, Note_on_c, 0, 63, 39
3, 131040, Note_on_c, 0, 63, 0
3, 131040, Note_on_c, 0, 56, 41
3, 131040, Note_on_c, 0, 60, 41
3, 131048, Control_c, 0, 64, 0
3, 131235, Control_c, 0, 64, 127
3, 131280, Note_on_c, 0, 60, 0
3, 131280, Note_on_c, 0, 61, 40
3, 131520, Note_on_c, 0, 61, 0
3, 131520, Note_on_c, 0, 63, 44
3, 131536, Control_c, 0, 64, 0
3, 131623, Control_c, 0, 64, 127
3, 131760, Note_on_c, 0, 63, 0
3, 131760, Note_on_c, 0, 70, 47
3, 132000, Note_on_c, 0, 70, 0
3, 132000, Note_on_c, 0, 68, 44
3, 132012, Control_c, 0, 64, 0
3, 132137, Control_c, 0, 64, 127
3, 132240, Note_on_c, 0, 68, 0
3, 132240, Note_on_c, 0, 66, 36
3, 132480, Note_on_c, 0, 66, 0
3, 132480, Note_on_c, 0, 56, 0
3, 132480, Note_on_c, 0, 49, 54
3, 132489, Control_c, 0, 64, 0
3, 132543, Control_c, 0, 64, 127
3, 132600, Note_on_c, 0, 49, 0
3, 132720, Note_on_c, 0, 55, 49
3, 132800, Note_on_c, 0, 56, 49
3, 132820, Note_on_c, 0, 55, 0
3, 132880, Note_on_c, 0, 61, 48
3, 132900, Note_on_c, 0, 56, 0
3, 132960, Note_on_c, 0, 61, 0
3, 132976, Control_c, 0, 64, 0
3, 133063, Control_c, 0, 64, 127
3, 133200, Note_on_c, 0, 68, 59
3, 133440, Note_on_c, 0, 68, 0
3, 133440, Note_on_c, 0, 44, 58
3, 133560, Note_on_c, 0, 44, 0
3, 133680, Note_on_c, 0, 68, 52
3, 133680, Note_on_c, 0, 61, 52
3, 133680, Note_on_c, 0, 56, 52
3, 133694, Control_c, 0, 64, 0
3, 133800, Note_on_c, 0, 56, 0
3, 133800, Note_on_c, 0, 61, 0
3, 133800, Note_on_c, 0, 68, 0
3, 133920, Note_on_c, 0, 49, 59
3, 133940, Control_c, 0, 64, 127
3, 134040, Note_on_c, 0, 49, 0
3, 134160, Note_on_c, 0, 55, 49
3, 134240, Note_on_c, 0, 56, 49
3, 134260, Note_on_c, 0, 55, 0
3, 134320, Note_on_c, 0, 61, 48
3, 134340, Note_on_c, 0, 56, 0
3, 134400, Note_on_c, 0, 65, 59
3, 134408, Control_c, 0, 64, 0
3, 134420, Note_on_c, 0, 61, 0
3, 134480, Control_c, 0, 64, 127
3, 134520, Note_on_c, 0, 65, 0
3, 134640, Note_on_c, 0, 56, 56
3, 134640, Note_on_c, 0, 61, 56
3, 134640, Note_on_c, 0, 65, 56
3, 134880, Note_on_c, 0, 65, 0
3, 134880, Note_on_c, 0, 61, 0
3, 134880, Note_on_c, 0, 56, 0
3, 134880, Note_on_c, 0, 44, 61
3, 135000, Note_on_c, 0, 44, 0
3, 135009, Control_c, 0, 64, 0
3, 135120, Note_on_c, 0, 65, 49
3, 135120, Note_on_c, 0, 61, 49
3, 135120, Note_on_c, 0, 56, 49
3, 135240, Note_on_c, 0, 56, 0
3, 135240, Note_on_c, 0, 61, 0
3, 135240, Note_on_c, 0, 65, 0
3, 135360, Note_on_c, 0, 51, 55
3, 135417, Control_c, 0, 64, 127
3, 135480, Note_on_c, 0, 51, 0
3, 135600, Note_on_c, 0, 55, 45
3, 135680, Note_on_c, 0, 56, 45
3, 135700, Note_on_c, 0, 55, 0
3, 135760, Note_on_c, 0, 60, 44
3, 135780, Note_on_c, 0, 56, 0
3, 135840, Note_on_c, 0, 66, 53
3, 135852, Control_c, 0, 64, 0
3, 135860, Note_on_c, 0, 60, 0
3, 135920, Control_c, 0, 64, 127
3, 135960, Note_on_c, 0, 66, 0
3, 136080, Note_on_c, 0, 56, 57
3, 136080, Note_on_c, 0, 60, 57
3, 136080, Note_on_c, 0, 66, 57
3, 136317, Control_c, 0, 64, 0
3, 136320, Note_on_c, 0, 66, 0
3, 136320, Note_on_c, 0, 60, 0
3, 136320, Note_on_c, 0, 56, 0
3, 136324, Note_on_c, 0, 44, 53
3, 136444, Note_on_c, 0, 44, 0
3, 136449, Control_c, 0, 64, 127
3, 136560, Note_on_c, 0, 66, 42
3, 136560, Note_on_c, 0, 60, 42
3, 136560, Note_on_c, 0, 56, 42
3, 136680, Note_on_c, 0, 56, 0
3, 136680, Note_on_c, 0, 60, 0
3, 136680, Note_on_c, 0, 66, 0
3, 136800, Note_on_c, 0, 51, 58
3, 136803, Control_c, 0, 64, 0
3, 136863, Control_c, 0, 64, 127
3, 136920, Note_on_c, 0, 51, 0
3, 137040, Note_on_c, 0, 55, 45
3, 137120, Note_on_c, 0, 56, 45
3, 137140, Note_on_c, 0, 55, 0
3, 137200, Note_on_c, 0, 60, 42
3, 137220, Note_on_c, 0, 56, 0
3, 137280, Note_on_c, 0, 66, 52
3, 137300, Note_on_c, 0, 60, 0
3, 137308, Control_c, 0, 64, 0
3, 137400, Note_on_c, 0, 66, 0
3, 137417, Control_c, 0, 64, 127
3, 137520, Note_on_c, 0, 56, 49
3, 137520, Note_on_c, 0, 60, 49
3, 137520, Note_on_c, 0, 66, 49
3, 137760, Note_on_c, 0, 66, 0
3, 137760, Note_on_c, 0, 60, 0
3, 137760, Note_on_c, 0, 56, 0
3, 137760, Note_on_c, 0, 44, 41
3, 137880, Note_on_c, 0, 44, 0
3, 137883, Control_c, 0, 64, 0
3, 138000, Note_on_c, 0, 66, 39
3, 138000, Note_on_c, 0, 60, 39
3, 138000, Note_on_c, 0, 56, 39
3, 138120, Note_on_c, 0, 56, 0
3, 138120, Note_on_c, 0, 60, 0
3, 138120, Note_on_c, 0, 66, 0
3, 138240, Note_on_c, 0, 49, 39
3, 138303, Control_c, 0, 64, 127
3, 138360, Note_on_c, 0, 49, 0
3, 138480, Note_on_c, 0, 55, 32
3, 138560, Note_on_c, 0, 56, 32
3, 138580, Note_on_c, 0, 55, 0
3, 138640, Note_on_c, 0, 61, 31
3, 138660, Note_on_c, 0, 56, 0
3, 138720, Note_on_c, 0, 61, 0
3, 138735, Control_c, 0, 64, 0
3, 138823, Control_c, 0, 64, 127
3, 138960, Note_on_c, 0, 68, 42
3, 139200, Note_on_c, 0, 68, 0
3, 139200, Note_on_c, 0, 44, 38
3, 139320, Note_on_c, 0, 44, 0
3, 139440, Note_on_c, 0, 68, 34
3, 139440, Note_on_c, 0, 61, 34
3, 139440, Note_on_c, 0, 56, 34
3, 139450, Control_c, 0, 64, 0
3, 139560, Note_on_c, 0, 56, 0
3, 139560, Note_on_c, 0, 61, 0
3, 139560, Note_on_c, 0, 68, 0
3, 139680, Note_on_c, 0, 49, 39
3, 139726, Control_c, 0, 64, 127
3, 139800, Note_on_c, 0, 49, 0
3, 139920, Note_on_c, 0, 55, 32
3, 140000, Note_on_c, 0, 56, 32
3, 140020, Note_on_c, 0, 55, 0
3, 140080, Note_on_c, 0, 61, 31
3, 140100, Note_on_c, 0, 56, 0
3, 140160, Note_on_c, 0, 65, 38
3, 140177, Control_c, 0, 64, 0
3, 140180, Note_on_c, 0, 61, 0
3, 140255, Control_c, 0, 64, 127
3, 140280, Note_on_c, 0, 65, 0
3, 140400, Note_on_c, 0, 56, 40
3, 140400, Note_on_c, 0, 61, 40
3, 140400, Note_on_c, 0, 65, 40
3, 140640, Note_on_c, 0, 65, 0
3, 140640, Note_on_c, 0, 61, 0
3, 140640, Note_on_c, 0, 56, 0
3, 140640, Note_on_c, 0, 44, 38
3, 140760, Note_on_c, 0, 44, 0
3, 140803, Control_c, 0, 64, 0
3, 140880, Note_on_c, 0, 65, 30
3, 140880, Note_on_c, 0, 61, 30
3, 140880, Note_on_c, 0, 56, 30
3, 141000, Note_on_c, 0, 56, 0
3, 141000, Note_on_c, 0, 61, 0
3, 141000, Note_on_c, 0, 65, 0
3, 141120, Note_on_c, 0, 51, 46
3, 141169, Control_c, 0, 64, 127
3, 141240, Note_on_c, 0, 51, 0
3, 141360, Note_on_c, 0, 55, 38
3, 141440, Note_on_c, 0, 56, 38
3, 141460, Note_on_c, 0, 55, 0
3, 141520, Note_on_c, 0, 60, 37
3, 141540, Note_on_c, 0, 56, 0
3, 141600, Note_on_c, 0, 66, 45
3, 141615, Control_c, 0, 64, 0
3, 141620, Note_on_c, 0, 60, 0
3, 141677, Control_c, 0, 64, 127
3, 141720, Note_on_c, 0, 66, 0
3, 141840, Note_on_c, 0, 56, 48
3, 141840, Note_on_c, 0, 60, 48
3, 141840, Note_on_c, 0, 66, 48
3, 142080, Note_on_c, 0, 66, 0
3, 142080, Note_on_c, 0, 60, 0
3, 142080, Note_on_c, 0, 56, 0
3, 142080, Note_on_c, 0, 44, 45
3, 142086, Control_c, 0, 64, 0
3, 142200, Note_on_c, 0, 44, 0
3, 142217, Control_c, 0, 64, 127
3, 142320, Note_on_c, 0, 66, 36
3, 142320, Note_on_c, 0, 60, 36
3, 142320, Note_on_c, 0, 56, 36
3, 142440, Note_on_c, 0, 56, 0
3, 142440, Note_on_c, 0, 60, 0
3, 142440, Note_on_c, 0, 66, 0
3, 142560, Note_on_c, 0, 51, 49
3, 142566, Control_c, 0, 64, 0
3, 142614, Control_c, 0, 64, 127
3, 142680, Note_on_c, 0, 51, 0
3, 142800, Note_on_c, 0, 55, 38
3, 142880, Note_on_c, 0, 56, 38
3, 142900, Note_on_c, 0, 55, 0
3, 142960, Note_on_c, 0, 60, 37
3, 142980, Note_on_c, 0, 56, 0
3, 143040, Note_on_c, 0, 66, 45
3, 143060, Note_on_c, 0, 60, 0
3, 143068, Control_c, 0, 64, 0
3, 143160, Note_on_c, 0, 66, 0
3, 143177, Control_c, 0, 64, 127
3, 143280, Note_on_c, 0, 56, 43
3, 143280, Note_on_c, 0, 60, 43
3, 143280, Note_on_c, 0, 66, 43
3, 143520, Note_on_c, 0, 66, 0
3, 143520, Note_on_c, 0, 60, 0
3, 143520, Note_on_c, 0, 56, 0
3, 143520, Note_on_c, 0, 47, 33
3, 143522, Control_c, 0, 64, 0
3, 143669, Control_c, 0, 64, 127
3, 143700, Note_on_c, 0, 58, 23
3, 143760, Note_on_c, 0, 58, 0
3, 143760, Note_on_c, 0, 59, 28
3, 143880, Note_on_c, 0, 59, 0
3, 144000, Note_on_c, 0, 47, 0
3, 144000, Note_on_c, 0, 52, 42
3, 144011, Control_c, 0, 64, 0
3, 144063, Control_c, 0, 64, 127
3, 144120, Note_on_c, 0, 52, 0
3, 144240, Note_on_c, 0, 58, 36
3, 144320, Note_on_c, 0, 59, 36
3, 144340, Note_on_c, 0, 58, 0
3, 144400, Note_on_c, 0, 61, 36
3, 144420, Note_on_c, 0, 59, 0
3, 144480, Note_on_c, 0, 61, 0
3, 144480, Note_on_c, 0, 59, 49
3, 144489, Control_c, 0, 64, 0
3, 144583, Control_c, 0, 64, 127
3, 144600, Note_on_c, 0, 59, 0
3, 144720, Note_on_c, 0, 59, 44
3, 144960, Note_on_c, 0, 59, 0
3, 144960, Note_on_c, 0, 47, 44
3, 145080, Note_on_c, 0, 47, 0
3, 145200, Note_on_c, 0, 59, 44
3, 145200, Note_on_c, 0, 62, 44
3, 145200, Note_on_c, 0, 53, 44
3, 145320, Note_on_c, 0, 53, 0
3, 145320, Note_on_c, 0, 62, 0
3, 145320, Note_on_c, 0, 59, 0
3, 145440, Note_on_c, 0, 54, 50
3, 145448, Control_c, 0, 64, 0
3, 145503, Control_c, 0, 64, 127
3, 145560, Note_on_c, 0, 54, 0
3, 145680, Note_on_c, 0, 58, 41
3, 145760, Note_on_c, 0, 59, 41
3, 145780, Note_on_c, 0, 58, 0
3, 145840, Note_on_c, 0, 61, 40
3, 145860, Note_on_c, 0, 59, 0
3, 145920, Note_on_c, 0, 61, 0
3, 145920, Note_on_c, 0, 59, 55
3, 145929, Control_c, 0, 64, 0
3, 146023, Control_c, 0, 64, 127
3, 146040, Note_on_c, 0, 59, 0
3, 146160, Note_on_c, 0, 59, 56
3, 146400, Note_on_c, 0, 59, 0
3, 146400, Note_on_c, 0, 47, 51
3, 146520, Note_on_c, 0, 47, 0
3, 146640, Note_on_c, 0, 63, 47
3, 146640, Note_on_c, 0, 69, 47
3, 146640, Note_on_c, 0, 59, 47
3, 146760, Note_on_c, 0, 59, 0
3, 146760, Note_on_c, 0, 69, 0
3, 146760, Note_on_c, 0, 63, 0
3, 146880, Note_on_c, 0, 52, 42
3, 146888, Control_c, 0, 64, 0
3, 146995, Control_c, 0, 64, 127
3, 147000, Note_on_c, 0, 52, 0
3, 147120, Note_on_c, 0, 58, 34
3, 147200, Note_on_c, 0, 59, 34
3, 147220, Note_on_c, 0, 58, 0
3, 147280, Note_on_c, 0, 61, 34
3, 147300, Note_on_c, 0, 59, 0
3, 147360, Note_on_c, 0, 61, 0
3, 147360, Note_on_c, 0, 59, 46
3, 147377, Control_c, 0, 64, 0
3, 147463, Control_c, 0, 64, 127
3, 147480, Note_on_c, 0, 59, 0
3, 147600, Note_on_c, 0, 59, 41
3, 147840, Note_on_c, 0, 59, 0
3, 147840, Note_on_c, 0, 47, 41
3, 147960, Note_on_c, 0, 47, 0
3, 148080, Note_on_c, 0, 59, 37
3, 148080, Note_on_c, 0, 62, 37
3, 148080, Note_on_c, 0, 53, 37
3, 148200, Note_on_c, 0, 53, 0
3, 148200, Note_on_c, 0, 62, 0
3, 148200, Note_on_c, 0, 59, 0
3, 148320, Note_on_c, 0, 54, 42
3, 148325, Control_c, 0, 64, 0
3, 148417, Control_c, 0, 64, 127
3, 148440, Note_on_c, 0, 54, 0
3, 148560, Note_on_c, 0, 58, 34
3, 148640, Note_on_c, 0, 59, 34
3, 148660, Note_on_c, 0, 58, 0
3, 148720, Note_on_c, 0, 61, 34
3, 148740, Note_on_c, 0, 59, 0
3, 148800, Note_on_c, 0, 61, 0
3, 148800, Note_on_c, 0, 59, 46
3, 148809, Control_c, 0, 64, 0
3, 148903, Control_c, 0, 64, 127
3, 148920, Note_on_c, 0, 59, 0
3, 149040, Note_on_c, 0, 59, 46
3, 149280, Note_on_c, 0, 59, 0
3, 149280, Note_on_c, 0, 47, 48
3, 149400, Note_on_c, 0, 47, 0
3, 149520, Note_on_c, 0, 63, 43
3, 149520, Note_on_c, 0, 69, 43
3, 149520, Note_on_c, 0, 59, 43
3, 149640, Note_on_c, 0, 59, 0
3, 149640, Note_on_c, 0, 69, 0
3, 149640, Note_on_c, 0, 63, 0
3, 149760, Control_c, 0, 64, 0
3, 149760, Note_on_c, 0, 64, 69
3, 149866, Control_c, 0, 64, 127
3, 150000, Note_on_c, 0, 64, 0
3, 150000, Note_on_c, 0, 63, 56
3, 150080, Note_on_c, 0, 64, 56
3, 150100, Note_on_c, 0, 63, 0
3, 150160, Note_on_c, 0, 63, 56
3, 150180, Note_on_c, 0, 64, 0
3, 150240, Note_on_c, 0, 63, 0
3, 150240, Note_on_c, 0, 62, 66
3, 150247, Control_c, 0, 64, 0
3, 150343, Control_c, 0, 64, 127
3, 150480, Note_on_c, 0, 62, 0
3, 150480, Note_on_c, 0, 63, 53
3, 150720, Note_on_c, 0, 63, 0
3, 150720, Note_on_c, 0, 60, 60
3, 150727, Control_c, 0, 64, 0
3, 150812, Control_c, 0, 64, 127
3, 150960, Note_on_c, 0, 60, 0
3, 150960, Note_on_c, 0, 56, 55
3, 151172, Control_c, 0, 64, 0
3, 151200, Note_on_c, 0, 56, 0
3, 151200, Note_on_c, 0, 61, 60
3, 151440, Note_on_c, 0, 61, 0
3, 151440, Note_on_c, 0, 57, 55
3, 151500, Control_c, 0, 64, 127
3, 151680, Note_on_c, 0, 57, 0
3, 151680, Note_on_c, 0, 58, 58
3, 151687, Control_c, 0, 64, 0
3, 151749, Control_c, 0, 64, 127
3, 151920, Note_on_c, 0, 58, 0
3, 151920, Note_on_c, 0, 53, 54
3, 151933, Control_c, 0, 64, 0
3, 152023, Control_c, 0, 64, 127
3, 152160, Note_on_c, 0, 53, 0
3, 152160, Note_on_c, 0, 54, 57
3, 152177, Control_c, 0, 64, 0
3, 152263, Control_c, 0, 64, 127
3, 152400, Note_on_c, 0, 54, 0
3, 152400, Note_on_c, 0, 50, 53
3, 152400, Note_on_c, 0, 59, 53
3, 152416, Control_c, 0, 64, 0
3, 152514, Control_c, 0, 64, 127
3, 152640, Note_on_c, 0, 59, 0
3, 152640, Note_on_c, 0, 50, 0
3, 152640, Note_on_c, 0, 51, 49
3, 152640, Note_on_c, 0, 58, 49
3, 152646, Control_c, 0, 64, 0
3, 152803, Control_c, 0, 64, 127
3, 153141, Control_c, 0, 64, 0
3, 153187, Control_c, 0, 64, 127
3, 153619, Control_c, 0, 64, 0
3, 153692, Control_c, 0, 64, 127
3, 154080, Note_on_c, 0, 58, 0
3, 154080, Note_on_c, 0, 51, 0
3, 154080, Note_on_c, 0, 44, 50
3, 154083, Control_c, 0, 64, 0
3, 154143, Control_c, 0, 64, 127
3, 154320, Note_on_c, 0, 44, 0
3, 154320, Note_on_c, 0, 55, 41
3, 154400, Note_on_c, 0, 56, 41
3, 154420, Note_on_c, 0, 55, 0
3, 154480, Note_on_c, 0, 58, 40
3, 154500, Note_on_c, 0, 56, 0
3, 154560, Note_on_c, 0, 58, 0
3, 154560, Note_on_c, 0, 56, 50
3, 154571, Control_c, 0, 64, 0
3, 154669, Control_c, 0, 64, 127
3, 154800, Note_on_c, 0, 56, 0
3, 154800, Note_on_c, 0, 56, 50
3, 155040, Note_on_c, 0, 56, 0
3, 155040, Note_on_c, 0, 44, 46
3, 155280, Note_on_c, 0, 56, 43
3, 155520, Note_on_c, 0, 56, 0
3, 155520, Note_on_c, 0, 44, 0
3, 155520, Control_c, 0, 64, 0
3, 155520, Note_on_c, 0, 49, 34
3, 155608, Control_c, 0, 64, 127
3, 156009, Control_c, 0, 64, 0
3, 156261, Control_c, 0, 64, 127
3, 156480, Note_on_c, 0, 49, 0
3, 156480, Note_on_c, 0, 44, 34
3, 156720, Note_on_c, 0, 44, 0
3, 156720, Note_on_c, 0, 50, 39
3, 156731, Control_c, 0, 64, 0
3, 156960, Note_on_c, 0, 50, 0
3, 156960, Note_on_c, 0, 51, 49
3, 157087, Control_c, 0, 64, 127
3, 157454, Control_c, 0, 64, 0
3, 157765, Control_c, 0, 64, 127
3, 157920, Note_on_c, 0, 51, 0
3, 157920, Note_on_c, 0, 44, 39
3, 158160, Note_on_c, 0, 44, 0
3, 158160, Note_on_c, 0, 48, 35
3, 158174, Control_c, 0, 64, 0
3, 158400, Note_on_c, 0, 48, 0
3, 158400, Note_on_c, 0, 49, 27
3, 158499, Control_c, 0, 64, 127
3, 158894, Control_c, 0, 64, 0
3, 159141, Control_c, 0, 64, 127
3, 159360, Note_on_c, 0, 49, 0
3, 159360, Note_on_c, 0, 44, 27
3, 159600, Note_on_c, 0, 44, 0
3, 159600, Note_on_c, 0, 50, 31
3, 159619, Control_c, 0, 64, 0
3, 159840, Note_on_c, 0, 50, 0
3, 159840, Note_on_c, 0, 51, 36
3, 159925, Control_c, 0, 64, 127
3, 160331, Control_c, 0, 64, 0
3, 160606, Control_c, 0, 64, 127
3, 160800, Note_on_c, 0, 51, 0
3, 160800, Note_on_c, 0, 44, 31
3, 161040, Note_on_c, 0, 44, 0
3, 161040, Note_on_c, 0, 48, 34
3, 161055, Control_c, 0, 64, 0
3, 161280, Note_on_c, 0, 48, 0
3, 161280, Note_on_c, 0, 49, 31
3, 161358, Control_c, 0, 64, 127
3, 161520, Note_on_c, 0, 49, 0
3, 161520, Note_on_c, 0, 56, 32
3, 161580, Note_on_c, 0, 56, 0
3, 161760, Note_on_c, 0, 61, 32
3, 161820, Note_on_c, 0, 61, 0
3, 162000, Note_on_c, 0, 65, 31
3, 162060, Note_on_c, 0, 65, 0
3, 162240, Note_on_c, 0, 68, 31
3, 162300, Note_on_c, 0, 68, 0
3, 162480, Note_on_c, 0, 73, 30
3, 162540, Note_on_c, 0, 73, 0
3, 162720, Note_on_c, 0, 77, 30
3, 162780, Note_on_c, 0, 77, 0
3, 162960, Note_on_c, 0, 68, 29
3, 163020, Note_on_c, 0, 68, 0
3, 163200, Note_on_c, 0, 73, 29
3, 163260, Note_on_c, 0, 73, 0
3, 163440, Note_on_c, 0, 77, 29
3, 163500, Note_on_c, 0, 77, 0
3, 163680, Note_on_c, 0, 80, 28
3, 163740, Note_on_c, 0, 80, 0
3, 163920, Note_on_c, 0, 85, 28
3, 163980, Note_on_c, 0, 85, 0
3, 164100, Note_on_c, 0, 73, 28
3, 164125, Note_on_c, 0, 80, 28
3, 165600, Note_on_c, 0, 73, 0
3, 165600, Note_on_c, 0, 37, 17
3, 165600, Note_on_c, 0, 44, 17
3, 165600, Note_on_c, 0, 49, 22
3, 165610, Note_on_c, 0, 80, 0
3, 167040, Note_on_c, 0, 37, 0
3, 167040, Note_on_c, 0, 44, 0
3, 167040, Note_on_c, 0, 49, 0
3, 168187, Control_c, 0, 64, 0
3, 168187, End_track
4, 0, Start_track
4, 0, Title_t, "Albeniz :Suite espagnole Cadiz"
4, 0, End_track
5, 0, Start_track
5, 0, Title_t, "Copyright © 2001 by Bernd Krüger"
5, 0, End_track
6, 0, Start_track
6, 0, Title_t, "http://www.piano-midi.de"
6, 0, End_track
7, 0, Start_track
7, 0, Title_t, "Edition: 2010-09-11"
7, 0, End_track
8, 0, Start_track
8, 0, Title_t, "Spur 7"
8, 0, End_track
9, 0, Start_track
9, 0, Title_t, "Spur 8"
9, 0, End_track
0, 0, End_of_file
