0, 0, Header, 1, 8, 480
1, 0, Start_track
1, 0, Title_t, "Espana Op. 165"
1, 0, Title_t, "Malaguena"
1, 0, Copyright_t, "Copyright © 2001 by Bernd Krueger"
1, 0, Text_t, "Isaac Albeniz"
1, 0, Text_t, "Allegretto"
1, 0, Text_t, "Fertiggestellt am 28.01.2001\012"
1, 0, Text_t, "Normierung: 23.12.2002\012"
1, 0, Text_t, "Update am 30.8.2010\012"
1, 0, Text_t, "Dauer: 2:56  Minuten\012"
1, 0, SMPTE_offset, 96, 0, 3, 0, 0
1, 0, Time_signature, 3, 3, 12, 8
1, 0, Key_signature, 1, "major"
1, 0, Tempo, 504202
1, 480, Tempo, 491803
1, 720, Tempo, 501966
1, 960, Tempo, 495213
1, 1200, Tempo, 518359
1, 1440, Tempo, 504202
1, 2400, Tempo, 499667
1, 2640, Tempo, 513567
1, 2880, Tempo, 504202
1, 3840, Tempo, 497430
1, 4080, Tempo, 518359
1, 4320, Tempo, 504202
1, 5280, Tempo, 511160
1, 5520, Tempo, 518359
1, 5760, Tempo, 504202
1, 6240, Tempo, 508863
1, 6280, Tempo, 511160
1, 6300, Tempo, 513567
1, 6320, Tempo, 515952
1, 6340, Tempo, 518359
1, 6360, Tempo, 520788
1, 6380, Tempo, 523286
1, 6400, Tempo, 525716
1, 6420, Tempo, 528216
1, 6440, Tempo, 530739
1, 6460, Tempo, 533286
1, 6480, Tempo, 504202
1, 6960, Tempo, 518359
1, 7200, Tempo, 504202
1, 8160, Tempo, 499667
1, 8400, Tempo, 518359
1, 8640, Tempo, 504202
1, 9360, Tempo, 504202
1, 9840, Tempo, 511160
1, 10080, Tempo, 504202
1, 10800, Tempo, 508863
1, 10900, Tempo, 511160
1, 10980, Tempo, 513567
1, 11080, Tempo, 515952
1, 11160, Tempo, 518359
1, 11240, Tempo, 520788
1, 11340, Tempo, 523286
1, 11420, Tempo, 525716
1, 11500, Tempo, 528216
1, 11520, Tempo, 526316
1, 11760, Tempo, 508475
1, 12000, Tempo, 491803
1, 12240, Tempo, 502092
1, 12480, Tempo, 497430
1, 12720, Tempo, 518359
1, 12960, Tempo, 538455
1, 13200, Tempo, 504202
1, 13440, Tempo, 493827
1, 13680, Tempo, 502092
1, 13920, Tempo, 497430
1, 14160, Tempo, 518359
1, 14400, Tempo, 497430
1, 14640, Tempo, 511160
1, 14880, Tempo, 499667
1, 15120, Tempo, 508863
1, 15360, Tempo, 504202
1, 15600, Tempo, 513567
1, 15840, Tempo, 493827
1, 16080, Tempo, 502092
1, 16560, Tempo, 495213
1, 17040, Tempo, 504202
1, 17220, Tempo, 554631
1, 17280, Tempo, 504202
1, 18240, Tempo, 497430
1, 18480, Tempo, 518359
1, 18720, Tempo, 504202
1, 19680, Tempo, 511160
1, 19860, Tempo, 513567
1, 19920, Tempo, 518359
1, 20160, Tempo, 504202
1, 20640, Tempo, 508863
1, 20680, Tempo, 511160
1, 20700, Tempo, 513567
1, 20720, Tempo, 515952
1, 20740, Tempo, 518359
1, 20760, Tempo, 520788
1, 20780, Tempo, 523286
1, 20800, Tempo, 525716
1, 20820, Tempo, 528216
1, 20840, Tempo, 530739
1, 20860, Tempo, 533286
1, 20880, Tempo, 504202
1, 21360, Tempo, 518359
1, 21600, Tempo, 504202
1, 22560, Tempo, 499667
1, 22800, Tempo, 518359
1, 23040, Tempo, 504202
1, 23760, Tempo, 504202
1, 24240, Tempo, 511160
1, 24480, Tempo, 504202
1, 25200, Tempo, 508863
1, 25300, Tempo, 511160
1, 25380, Tempo, 513567
1, 25480, Tempo, 515952
1, 25560, Tempo, 518359
1, 25640, Tempo, 520788
1, 25740, Tempo, 523286
1, 25820, Tempo, 525716
1, 25900, Tempo, 528216
1, 25920, Tempo, 519481
1, 26160, Tempo, 510638
1, 26400, Tempo, 504202
1, 26880, Tempo, 497430
1, 27120, Tempo, 518359
1, 27360, Tempo, 538455
1, 27600, Tempo, 504202
1, 28320, Tempo, 497430
1, 28560, Tempo, 518359
1, 28800, Tempo, 538455
1, 29040, Tempo, 504202
1, 29760, Tempo, 497430
1, 30000, Tempo, 518359
1, 30240, Tempo, 538455
1, 30480, Tempo, 504202
1, 31200, Tempo, 497430
1, 31440, Tempo, 518359
1, 31680, Tempo, 497430
1, 31920, Tempo, 511160
1, 32160, Tempo, 499667
1, 32400, Tempo, 508863
1, 32640, Tempo, 504202
1, 32880, Tempo, 513567
1, 33840, Tempo, 495213
1, 34320, Tempo, 520788
1, 34560, Tempo, 550863
1, 34620, Tempo, 548246
1, 34660, Tempo, 545653
1, 34700, Tempo, 543036
1, 34760, Tempo, 540443
1, 34800, Tempo, 537972
1, 34840, Tempo, 535427
1, 34900, Tempo, 533002
1, 34940, Tempo, 530457
1, 34980, Tempo, 528030
1, 35020, Tempo, 525624
1, 35140, Tempo, 525624
1, 35280, Tempo, 540443
1, 35520, Tempo, 520969
1, 35760, Tempo, 535427
1, 35880, Tempo, 550863
1, 36020, Tempo, 548246
1, 36080, Tempo, 550863
1, 36140, Tempo, 553454
1, 36200, Tempo, 556174
1, 36260, Tempo, 558815
1, 36320, Tempo, 561482
1, 36380, Tempo, 564387
1, 36440, Tempo, 567108
1, 36720, Tempo, 550863
1, 36780, Tempo, 548246
1, 36840, Tempo, 545653
1, 36900, Tempo, 543036
1, 36940, Tempo, 540443
1, 37000, Tempo, 537972
1, 37060, Tempo, 535427
1, 37100, Tempo, 533002
1, 37160, Tempo, 530457
1, 37220, Tempo, 528030
1, 37260, Tempo, 525624
1, 37300, Tempo, 525624
1, 37320, Tempo, 543036
1, 37420, Tempo, 528030
1, 37480, Tempo, 530457
1, 37540, Tempo, 533002
1, 37600, Tempo, 535427
1, 37660, Tempo, 537972
1, 37720, Tempo, 540443
1, 37780, Tempo, 543036
1, 37800, Tempo, 567108
1, 37900, Tempo, 545653
1, 37960, Tempo, 543036
1, 38000, Tempo, 540443
1, 38040, Tempo, 537972
1, 38080, Tempo, 535427
1, 38120, Tempo, 533002
1, 38160, Tempo, 530457
1, 38200, Tempo, 528030
1, 38240, Tempo, 525624
1, 38280, Tempo, 523286
1, 38320, Tempo, 528030
1, 38440, Tempo, 530457
1, 38560, Tempo, 533002
1, 38680, Tempo, 535427
1, 38760, Tempo, 575540
1, 38872, Tempo, 545653
1, 38880, Tempo, 540443
1, 39000, Tempo, 537972
1, 39120, Tempo, 535427
1, 39240, Tempo, 533002
1, 39340, Tempo, 530457
1, 39360, Tempo, 548246
1, 39600, Tempo, 537972
1, 39604, Tempo, 543036
1, 39620, Tempo, 535427
1, 39840, Tempo, 533002
1, 40040, Tempo, 530457
1, 40080, Tempo, 545653
1, 40320, Tempo, 575540
1, 40460, Tempo, 540443
1, 40620, Tempo, 537972
1, 40780, Tempo, 535427
1, 40800, Tempo, 548246
1, 41040, Tempo, 537972
1, 41200, Tempo, 535427
1, 41340, Tempo, 533002
1, 41480, Tempo, 530457
1, 41520, Tempo, 545653
1, 41760, Tempo, 561482
1, 41900, Tempo, 543036
1, 41920, Tempo, 537972
1, 42020, Tempo, 535427
1, 42100, Tempo, 533002
1, 42180, Tempo, 530457
1, 42260, Tempo, 528030
1, 42300, Tempo, 530457
1, 42340, Tempo, 533002
1, 42380, Tempo, 535427
1, 42420, Tempo, 537972
1, 42464, Tempo, 543036
1, 42480, Tempo, 556174
1, 42620, Tempo, 535427
1, 42680, Tempo, 533002
1, 42740, Tempo, 530457
1, 42800, Tempo, 528030
1, 42860, Tempo, 525624
1, 42900, Tempo, 525624
1, 42940, Tempo, 528030
1, 42980, Tempo, 530457
1, 43020, Tempo, 533002
1, 43040, Tempo, 535427
1, 43080, Tempo, 537972
1, 43120, Tempo, 540443
1, 43160, Tempo, 543036
1, 43180, Tempo, 545653
1, 43200, Tempo, 567108
1, 43320, Tempo, 545653
1, 43420, Tempo, 543036
1, 43500, Tempo, 540443
1, 43580, Tempo, 537972
1, 43660, Tempo, 535427
1, 43680, Tempo, 545653
1, 43720, Tempo, 548246
1, 43760, Tempo, 550863
1, 43800, Tempo, 553454
1, 43824, Tempo, 556174
1, 43864, Tempo, 558815
1, 43904, Tempo, 561482
1, 43932, Tempo, 564387
1, 44040, Tempo, 561482
1, 44080, Tempo, 564387
1, 44120, Tempo, 567108
1, 44144, Tempo, 569963
1, 44184, Tempo, 572738
1, 44212, Tempo, 575540
1, 44252, Tempo, 578481
1, 44292, Tempo, 581452
1, 44320, Tempo, 584454
1, 44360, Tempo, 587372
1, 44384, Tempo, 590377
1, 44424, Tempo, 593354
1, 44464, Tempo, 596540
1, 44492, Tempo, 599640
1, 44532, Tempo, 602773
1, 44560, Tempo, 951475
1, 44640, Tempo, 714286
1, 45360, Time_signature, 3, 2, 24, 8
1, 45360, Tempo, 810811
1, 45600, Tempo, 833333
1, 45840, Tempo, 810811
1, 47040, Tempo, 827586
1, 47280, Tempo, 800000
1, 48000, Tempo, 784314
1, 48240, Tempo, 821918
1, 48960, Tempo, 764331
1, 49200, Tempo, 833333
1, 49680, Tempo, 1153846
1, 49920, Tempo, 1061947
1, 50600, Tempo, 1061947
1, 50640, Tempo, 1071429
1, 50680, Tempo, 1081081
1, 50720, Tempo, 1090909
1, 50760, Tempo, 1111111
1, 50800, Tempo, 1121495
1, 50840, Tempo, 1132075
1, 50880, Tempo, 1142857
1, 50920, Tempo, 1165049
1, 50960, Tempo, 1176471
1, 51000, Tempo, 1188119
1, 51040, Tempo, 1200000
1, 51080, Tempo, 1224490
1, 51120, Tempo, 1578947
1, 51360, Tempo, 882353
1, 51600, Tempo, 810811
1, 52320, Tempo, 784314
1, 52560, Tempo, 810811
1, 53280, Tempo, 789474
1, 53520, Tempo, 839161
1, 53760, Tempo, 869565
1, 54000, Tempo, 701754
1, 54120, Tempo, 745342
1, 54240, Tempo, 779221
1, 54360, Tempo, 863309
1, 54480, Tempo, 810811
1, 55440, Tempo, 1153846
1, 55680, Tempo, 1061947
1, 56360, Tempo, 1061947
1, 56400, Tempo, 1071429
1, 56440, Tempo, 1081081
1, 56480, Tempo, 1090909
1, 56520, Tempo, 1111111
1, 56560, Tempo, 1121495
1, 56600, Tempo, 1132075
1, 56640, Tempo, 1142857
1, 56680, Tempo, 1165049
1, 56720, Tempo, 1176471
1, 56760, Tempo, 1188119
1, 56800, Tempo, 1200000
1, 56840, Tempo, 1224490
1, 56880, Tempo, 1578947
1, 57120, Tempo, 882353
1, 57360, Tempo, 810811
1, 58560, Tempo, 784314
1, 58800, Tempo, 764331
1, 59280, Tempo, 794702
1, 59520, Tempo, 821918
1, 59760, Tempo, 722892
1, 59940, Tempo, 789474
1, 59960, Tempo, 750000
1, 59980, Tempo, 754717
1, 60000, Tempo, 764331
1, 60020, Tempo, 774194
1, 60040, Tempo, 779221
1, 60060, Tempo, 789474
1, 60080, Tempo, 800000
1, 60100, Tempo, 810811
1, 60120, Tempo, 816327
1, 60140, Tempo, 827586
1, 60160, Tempo, 839161
1, 60180, Tempo, 851064
1, 60240, Tempo, 810811
1, 61200, Tempo, 1153846
1, 61440, Tempo, 1061947
1, 62120, Tempo, 1061947
1, 62160, Tempo, 1071429
1, 62200, Tempo, 1081081
1, 62240, Tempo, 1090909
1, 62280, Tempo, 1111111
1, 62320, Tempo, 1121495
1, 62360, Tempo, 1132075
1, 62400, Tempo, 1142857
1, 62440, Tempo, 1165049
1, 62480, Tempo, 1176471
1, 62520, Tempo, 1188119
1, 62560, Tempo, 1200000
1, 62600, Tempo, 1224490
1, 62640, Tempo, 1578947
1, 62880, Tempo, 882353
1, 63120, Tempo, 810811
1, 64320, Tempo, 789474
1, 64560, Tempo, 769231
1, 65040, Tempo, 794702
1, 65280, Tempo, 764331
1, 65520, Tempo, 727273
1, 65760, Tempo, 759494
1, 65880, Tempo, 845070
1, 66000, Tempo, 810811
1, 66960, Tempo, 1153846
1, 67200, Tempo, 1061947
1, 67880, Tempo, 1061947
1, 67920, Tempo, 1071429
1, 67960, Tempo, 1081081
1, 68000, Tempo, 1090909
1, 68040, Tempo, 1111111
1, 68080, Tempo, 1121495
1, 68120, Tempo, 1132075
1, 68160, Tempo, 1142857
1, 68200, Tempo, 1165049
1, 68240, Tempo, 1176471
1, 68280, Tempo, 1188119
1, 68320, Tempo, 1200000
1, 68360, Tempo, 1224490
1, 68520, Tempo, 857143
1, 68880, Tempo, 774194
1, 69120, Tempo, 789474
1, 69240, Tempo, 833333
1, 69360, Tempo, 779221
1, 69600, Tempo, 816327
1, 69720, Tempo, 857143
1, 69840, Tempo, 857143
1, 69880, Tempo, 863309
1, 69900, Tempo, 869565
1, 69920, Tempo, 875912
1, 69960, Tempo, 882353
1, 69980, Tempo, 888889
1, 70000, Tempo, 895522
1, 70020, Tempo, 902256
1, 70060, Tempo, 909091
1, 70080, Tempo, 916031
1, 70100, Tempo, 923077
1, 70140, Tempo, 930233
1, 70160, Tempo, 937500
1, 70180, Tempo, 944882
1, 70200, Tempo, 952381
1, 70320, Tempo, 888889
1, 71280, Tempo, 1153846
1, 71520, Tempo, 1061947
1, 72200, Tempo, 1061947
1, 72240, Tempo, 1071429
1, 72280, Tempo, 1081081
1, 72320, Tempo, 1090909
1, 72360, Tempo, 1111111
1, 72400, Tempo, 1121495
1, 72440, Tempo, 1132075
1, 72480, Tempo, 1142857
1, 72520, Tempo, 1165049
1, 72560, Tempo, 1176471
1, 72600, Tempo, 1188119
1, 72640, Tempo, 1200000
1, 72680, Tempo, 1224490
1, 74160, Time_signature, 10, 2, 24, 8
1, 74160, Tempo, 1153846
1, 74280, Tempo, 1090909
1, 75120, Tempo, 1090909
1, 75180, Tempo, 1100917
1, 75240, Tempo, 1111111
1, 75300, Tempo, 1121495
1, 75360, Tempo, 1132075
1, 75400, Tempo, 1142857
1, 75460, Tempo, 1153846
1, 75520, Tempo, 1165049
1, 75580, Tempo, 1176471
1, 75620, Tempo, 1463415
1, 76080, Tempo, 983607
1, 76560, Tempo, 937500
1, 77040, Tempo, 967742
1, 77280, Tempo, 1016949
1, 77520, Tempo, 944882
1, 77540, Tempo, 952381
1, 77560, Tempo, 960000
1, 77580, Tempo, 967742
1, 77600, Tempo, 975610
1, 77620, Tempo, 983607
1, 77640, Tempo, 991736
1, 77660, Tempo, 1000000
1, 78000, Tempo, 944882
1, 78020, Tempo, 952381
1, 78040, Tempo, 960000
1, 78060, Tempo, 975610
1, 78080, Tempo, 983607
1, 78100, Tempo, 991736
1, 78120, Tempo, 1008403
1, 78140, Tempo, 1016949
1, 78160, Tempo, 1034483
1, 78200, Tempo, 1043478
1, 78240, Tempo, 1052632
1, 78300, Tempo, 1061947
1, 78340, Tempo, 1071429
1, 78400, Tempo, 1081081
1, 78440, Tempo, 1090909
1, 78468, Tempo, 1481481
1, 78528, Tempo, 1463415
1, 78584, Tempo, 1445783
1, 78640, Tempo, 1428571
1, 78648, Tempo, 1428571
1, 78652, Tempo, 1558442
1, 78800, Tempo, 1428571
1, 78808, Tempo, 1445783
1, 78812, Tempo, 1463415
1, 78816, Tempo, 1481481
1, 78824, Tempo, 1518987
1, 78828, Tempo, 1538462
1, 78836, Tempo, 1558442
1, 78840, Tempo, 1600000
1, 78848, Tempo, 1621622
1, 78852, Tempo, 1643836
1, 78856, Tempo, 1690141
1, 78864, Tempo, 1714286
1, 78868, Tempo, 1739130
1, 78876, Tempo, 1791045
1, 78880, Tempo, 1818182
1, 78888, Tempo, 1846154
1, 78892, Tempo, 1904762
1, 78896, Tempo, 1935484
1, 78904, Tempo, 1967213
1, 78908, Tempo, 2033898
1, 78916, Tempo, 2068966
1, 78920, Tempo, 2105263
1, 78928, Tempo, 2181818
1, 78940, Tempo, 7500000
1, 78960, Time_signature, 3, 3, 12, 8
1, 78960, Tempo, 513611
1, 79440, Tempo, 504286
1, 79920, Tempo, 482354
1, 80160, Tempo, 518403
1, 80400, Tempo, 504286
1, 81360, Tempo, 499750
1, 81600, Tempo, 513611
1, 81840, Tempo, 504286
1, 82800, Tempo, 497471
1, 83040, Tempo, 518403
1, 83280, Tempo, 504286
1, 84240, Tempo, 511247
1, 84480, Tempo, 518403
1, 84720, Tempo, 504286
1, 85200, Tempo, 508906
1, 85240, Tempo, 511247
1, 85260, Tempo, 513611
1, 85280, Tempo, 515996
1, 85300, Tempo, 518403
1, 85320, Tempo, 520833
1, 85340, Tempo, 523286
1, 85360, Tempo, 525762
1, 85380, Tempo, 528309
1, 85400, Tempo, 530833
1, 85420, Tempo, 533381
1, 85440, Tempo, 504286
1, 85920, Tempo, 518403
1, 86160, Tempo, 504286
1, 87120, Tempo, 499750
1, 87360, Tempo, 518403
1, 87600, Tempo, 504286
1, 88320, Tempo, 504286
1, 88800, Tempo, 511247
1, 89040, Tempo, 504286
1, 89760, Tempo, 508906
1, 89860, Tempo, 511247
1, 89940, Tempo, 513611
1, 90040, Tempo, 515996
1, 90120, Tempo, 518403
1, 90200, Tempo, 520833
1, 90300, Tempo, 523286
1, 90380, Tempo, 525762
1, 90460, Tempo, 528309
1, 90480, Tempo, 538551
1, 90720, Tempo, 504286
1, 91440, Tempo, 497471
1, 91680, Tempo, 518403
1, 91920, Tempo, 538551
1, 92160, Tempo, 504286
1, 92880, Tempo, 497471
1, 93120, Tempo, 518403
1, 93360, Tempo, 497471
1, 93600, Tempo, 511247
1, 93840, Tempo, 499750
1, 94080, Tempo, 508906
1, 94320, Tempo, 504286
1, 94560, Tempo, 513611
1, 94800, Tempo, 504286
1, 95520, Tempo, 495254
1, 96000, Tempo, 504286
1, 96180, Tempo, 554682
1, 96240, Tempo, 504286
1, 97200, Tempo, 497471
1, 97440, Tempo, 518403
1, 97680, Tempo, 504286
1, 98640, Tempo, 511247
1, 98820, Tempo, 513611
1, 98880, Tempo, 518403
1, 99120, Tempo, 504286
1, 99600, Tempo, 508906
1, 99640, Tempo, 511247
1, 99660, Tempo, 513611
1, 99680, Tempo, 515996
1, 99700, Tempo, 518403
1, 99720, Tempo, 520833
1, 99740, Tempo, 523286
1, 99760, Tempo, 525762
1, 99780, Tempo, 528309
1, 99800, Tempo, 530833
1, 99820, Tempo, 533381
1, 99840, Tempo, 504286
1, 100320, Tempo, 518403
1, 100560, Tempo, 504286
1, 101520, Tempo, 499750
1, 101760, Tempo, 518403
1, 102000, Tempo, 504286
1, 102720, Tempo, 504286
1, 103200, Tempo, 511247
1, 103440, Tempo, 504286
1, 104160, Tempo, 508906
1, 104260, Tempo, 511247
1, 104340, Tempo, 513611
1, 104440, Tempo, 515996
1, 104520, Tempo, 518403
1, 104600, Tempo, 520833
1, 104700, Tempo, 523286
1, 104780, Tempo, 525762
1, 104860, Tempo, 528309
1, 104880, Tempo, 538551
1, 105120, Tempo, 512821
1, 105360, Tempo, 504202
1, 105840, Tempo, 497471
1, 106080, Tempo, 518403
1, 106320, Tempo, 538551
1, 106560, Tempo, 504286
1, 107280, Tempo, 497471
1, 107520, Tempo, 518403
1, 107760, Tempo, 538551
1, 108000, Tempo, 504286
1, 108720, Tempo, 497471
1, 108960, Tempo, 518403
1, 109200, Tempo, 538551
1, 109440, Tempo, 504286
1, 110160, Tempo, 497471
1, 110400, Tempo, 518403
1, 110640, Tempo, 497471
1, 110880, Tempo, 511247
1, 111120, Tempo, 499750
1, 111360, Tempo, 508906
1, 111600, Tempo, 504286
1, 111840, Tempo, 513611
1, 112800, Tempo, 495254
1, 113280, Tempo, 520833
1, 113520, Tempo, 551521
1, 113580, Tempo, 548898
1, 113620, Tempo, 546249
1, 113660, Tempo, 543675
1, 113720, Tempo, 541126
1, 113760, Tempo, 538600
1, 113800, Tempo, 536097
1, 113860, Tempo, 533618
1, 113900, Tempo, 531114
1, 113940, Tempo, 528634
1, 113980, Tempo, 526223
1, 114100, Tempo, 526223
1, 114240, Tempo, 541126
1, 114480, Tempo, 521558
1, 114720, Tempo, 536097
1, 114840, Tempo, 551521
1, 114980, Tempo, 548898
1, 115040, Tempo, 551521
1, 115100, Tempo, 554170
1, 115160, Tempo, 556845
1, 115220, Tempo, 559493
1, 115280, Tempo, 562166
1, 115340, Tempo, 565025
1, 115400, Tempo, 567805
1, 115680, Tempo, 551521
1, 115740, Tempo, 548898
1, 115800, Tempo, 546249
1, 115860, Tempo, 543675
1, 115900, Tempo, 541126
1, 115960, Tempo, 538600
1, 116020, Tempo, 536097
1, 116060, Tempo, 533618
1, 116120, Tempo, 531114
1, 116180, Tempo, 528634
1, 116220, Tempo, 526223
1, 116260, Tempo, 526223
1, 116280, Tempo, 543675
1, 116380, Tempo, 528634
1, 116440, Tempo, 531114
1, 116500, Tempo, 533618
1, 116560, Tempo, 536097
1, 116620, Tempo, 538600
1, 116680, Tempo, 541126
1, 116740, Tempo, 543675
1, 116760, Tempo, 567805
1, 116860, Tempo, 546249
1, 116920, Tempo, 543675
1, 116960, Tempo, 541126
1, 117000, Tempo, 538600
1, 117040, Tempo, 536097
1, 117080, Tempo, 533618
1, 117120, Tempo, 531114
1, 117160, Tempo, 528634
1, 117200, Tempo, 526223
1, 117240, Tempo, 523880
1, 117280, Tempo, 528634
1, 117400, Tempo, 531114
1, 117520, Tempo, 533618
1, 117640, Tempo, 536097
1, 117720, Tempo, 576203
1, 117832, Tempo, 546249
1, 117840, Tempo, 541126
1, 117960, Tempo, 538600
1, 118080, Tempo, 536097
1, 118200, Tempo, 533618
1, 118300, Tempo, 531114
1, 118320, Tempo, 548898
1, 118560, Tempo, 538600
1, 118564, Tempo, 543675
1, 118580, Tempo, 536097
1, 118800, Tempo, 533618
1, 119000, Tempo, 531114
1, 119040, Tempo, 546249
1, 119280, Tempo, 576203
1, 119420, Tempo, 541126
1, 119580, Tempo, 538600
1, 119740, Tempo, 536097
1, 119760, Tempo, 548898
1, 120000, Tempo, 538600
1, 120160, Tempo, 536097
1, 120300, Tempo, 533618
1, 120440, Tempo, 531114
1, 120480, Tempo, 546249
1, 120720, Tempo, 562166
1, 120860, Tempo, 543675
1, 120880, Tempo, 538600
1, 120980, Tempo, 536097
1, 121060, Tempo, 533618
1, 121140, Tempo, 531114
1, 121220, Tempo, 528634
1, 121260, Tempo, 531114
1, 121300, Tempo, 533618
1, 121340, Tempo, 536097
1, 121380, Tempo, 538600
1, 121424, Tempo, 543675
1, 121440, Tempo, 556845
1, 121580, Tempo, 536097
1, 121640, Tempo, 533618
1, 121700, Tempo, 531114
1, 121760, Tempo, 528634
1, 121820, Tempo, 526223
1, 121860, Tempo, 526223
1, 121900, Tempo, 528634
1, 121940, Tempo, 531114
1, 121980, Tempo, 533618
1, 122000, Tempo, 536097
1, 122040, Tempo, 538600
1, 122080, Tempo, 541126
1, 122120, Tempo, 543675
1, 122140, Tempo, 546249
1, 122160, Tempo, 567805
1, 122280, Tempo, 546249
1, 122380, Tempo, 543675
1, 122460, Tempo, 541126
1, 122540, Tempo, 538600
1, 122620, Tempo, 536097
1, 122640, Tempo, 546249
1, 122680, Tempo, 548898
1, 122720, Tempo, 551521
1, 122760, Tempo, 554170
1, 122784, Tempo, 556845
1, 122824, Tempo, 559493
1, 122864, Tempo, 562166
1, 122892, Tempo, 565025
1, 123000, Tempo, 562166
1, 123040, Tempo, 565025
1, 123080, Tempo, 567805
1, 123104, Tempo, 570613
1, 123144, Tempo, 573394
1, 123172, Tempo, 576203
1, 123212, Tempo, 579151
1, 123252, Tempo, 582129
1, 123280, Tempo, 585080
1, 123320, Tempo, 588005
1, 123344, Tempo, 591017
1, 123384, Tempo, 594059
1, 123424, Tempo, 597253
1, 123452, Tempo, 600420
1, 123492, Tempo, 603500
1, 123520, Tempo, 952835
1, 123600, Tempo, 978793
1, 124080, Tempo, 991736
1, 124320, Time_signature, 3, 2, 24, 8
1, 124320, Tempo, 923077
1, 124380, Tempo, 916031
1, 124440, Tempo, 909091
1, 124480, Tempo, 902256
1, 124520, Tempo, 869565
1, 124540, Tempo, 895522
1, 124560, Tempo, 902256
1, 124580, Tempo, 909091
1, 124600, Tempo, 916031
1, 124620, Tempo, 923077
1, 124640, Tempo, 930233
1, 124660, Tempo, 937500
1, 124680, Tempo, 944882
1, 124700, Tempo, 952381
1, 124720, Tempo, 960000
1, 124740, Tempo, 967742
1, 124760, Tempo, 975610
1, 124780, Tempo, 983607
1, 124800, Tempo, 1237113
1, 125280, Tempo, 1043478
1, 125520, Tempo, 1100917
1, 125640, Tempo, 1176471
1, 125760, Tempo, 1100917
1, 126240, Tempo, 1263158
1, 127200, Tempo, 1000000
1, 127200, End_track
2, 0, Start_track
2, 0, Title_t, "Piano right"
2, 0, Program_c, 0, 0
2, 0, Control_c, 0, 7, 100
2, 0, Control_c, 0, 10, 64
2, 0, Note_on_c, 0, 71, 58
2, 0, Text_t, "bdca426d104a26ac9dcb070447587523"
2, 0, Control_c, 0, 91, 127
2, 0, Control_c, 0, 64, 0
2, 120, Note_on_c, 0, 71, 0
2, 240, Note_on_c, 0, 75, 55
2, 360, Note_on_c, 0, 75, 0
2, 480, Note_on_c, 0, 78, 55
2, 600, Note_on_c, 0, 78, 0
2, 720, Note_on_c, 0, 76, 59
2, 800, Note_on_c, 0, 76, 0
2, 800, Note_on_c, 0, 78, 55
2, 880, Note_on_c, 0, 78, 0
2, 880, Note_on_c, 0, 76, 55
2, 960, Note_on_c, 0, 76, 0
2, 960, Note_on_c, 0, 72, 59
2, 1080, Note_on_c, 0, 72, 0
2, 1200, Note_on_c, 0, 81, 55
2, 1320, Note_on_c, 0, 81, 0
2, 1440, Note_on_c, 0, 71, 58
2, 1560, Note_on_c, 0, 71, 0
2, 1680, Note_on_c, 0, 75, 55
2, 1800, Note_on_c, 0, 75, 0
2, 1920, Note_on_c, 0, 78, 55
2, 2040, Note_on_c, 0, 78, 0
2, 2160, Note_on_c, 0, 76, 59
2, 2240, Note_on_c, 0, 76, 0
2, 2240, Note_on_c, 0, 78, 55
2, 2320, Note_on_c, 0, 78, 0
2, 2320, Note_on_c, 0, 76, 55
2, 2400, Note_on_c, 0, 76, 0
2, 2400, Note_on_c, 0, 72, 59
2, 2520, Note_on_c, 0, 72, 0
2, 2640, Note_on_c, 0, 81, 53
2, 2760, Note_on_c, 0, 81, 0
2, 2880, Note_on_c, 0, 71, 58
2, 3000, Note_on_c, 0, 71, 0
2, 3120, Note_on_c, 0, 75, 55
2, 3240, Note_on_c, 0, 75, 0
2, 3360, Note_on_c, 0, 78, 55
2, 3480, Note_on_c, 0, 78, 0
2, 3600, Note_on_c, 0, 76, 59
2, 3680, Note_on_c, 0, 76, 0
2, 3680, Note_on_c, 0, 78, 55
2, 3760, Note_on_c, 0, 78, 0
2, 3760, Note_on_c, 0, 76, 55
2, 3840, Note_on_c, 0, 76, 0
2, 3840, Note_on_c, 0, 72, 59
2, 3960, Note_on_c, 0, 72, 0
2, 4080, Note_on_c, 0, 81, 55
2, 4200, Note_on_c, 0, 81, 0
2, 4320, Note_on_c, 0, 71, 58
2, 4440, Note_on_c, 0, 71, 0
2, 4560, Note_on_c, 0, 75, 55
2, 4680, Note_on_c, 0, 75, 0
2, 4800, Note_on_c, 0, 78, 55
2, 4920, Note_on_c, 0, 78, 0
2, 5040, Note_on_c, 0, 76, 59
2, 5120, Note_on_c, 0, 76, 0
2, 5120, Note_on_c, 0, 78, 55
2, 5200, Note_on_c, 0, 78, 0
2, 5200, Note_on_c, 0, 76, 55
2, 5280, Note_on_c, 0, 76, 0
2, 5280, Note_on_c, 0, 72, 59
2, 5400, Note_on_c, 0, 72, 0
2, 5520, Note_on_c, 0, 81, 55
2, 5640, Note_on_c, 0, 81, 0
2, 5760, Note_on_c, 0, 71, 58
2, 5880, Note_on_c, 0, 71, 0
2, 6000, Note_on_c, 0, 75, 55
2, 6120, Note_on_c, 0, 75, 0
2, 6240, Note_on_c, 0, 78, 55
2, 6360, Note_on_c, 0, 78, 0
2, 6480, Note_on_c, 0, 76, 59
2, 6560, Note_on_c, 0, 76, 0
2, 6560, Note_on_c, 0, 78, 55
2, 6640, Note_on_c, 0, 78, 0
2, 6640, Note_on_c, 0, 76, 55
2, 6720, Note_on_c, 0, 76, 0
2, 6720, Note_on_c, 0, 72, 59
2, 6840, Note_on_c, 0, 72, 0
2, 6960, Note_on_c, 0, 81, 55
2, 7080, Note_on_c, 0, 81, 0
2, 7200, Note_on_c, 0, 71, 58
2, 7320, Note_on_c, 0, 71, 0
2, 7440, Note_on_c, 0, 75, 55
2, 7560, Note_on_c, 0, 75, 0
2, 7680, Note_on_c, 0, 78, 55
2, 7800, Note_on_c, 0, 78, 0
2, 7920, Note_on_c, 0, 76, 59
2, 8000, Note_on_c, 0, 76, 0
2, 8000, Note_on_c, 0, 78, 55
2, 8080, Note_on_c, 0, 78, 0
2, 8080, Note_on_c, 0, 76, 55
2, 8160, Note_on_c, 0, 76, 0
2, 8160, Note_on_c, 0, 72, 59
2, 8280, Note_on_c, 0, 72, 0
2, 8400, Note_on_c, 0, 81, 55
2, 8520, Note_on_c, 0, 81, 0
2, 8640, Note_on_c, 0, 71, 58
2, 8760, Note_on_c, 0, 71, 0
2, 8880, Note_on_c, 0, 75, 55
2, 9000, Note_on_c, 0, 75, 0
2, 9120, Note_on_c, 0, 78, 55
2, 9240, Note_on_c, 0, 78, 0
2, 9360, Note_on_c, 0, 72, 63
2, 9480, Note_on_c, 0, 72, 0
2, 9600, Note_on_c, 0, 79, 58
2, 9720, Note_on_c, 0, 79, 0
2, 9840, Note_on_c, 0, 84, 59
2, 9960, Note_on_c, 0, 84, 0
2, 10080, Note_on_c, 0, 78, 71
2, 10200, Note_on_c, 0, 78, 0
2, 10320, Note_on_c, 0, 83, 61
2, 10440, Note_on_c, 0, 83, 0
2, 10560, Note_on_c, 0, 90, 63
2, 10680, Note_on_c, 0, 90, 0
2, 10800, Note_on_c, 0, 88, 74
2, 11040, Note_on_c, 0, 88, 0
2, 11040, Note_on_c, 0, 93, 75
2, 11280, Note_on_c, 0, 93, 0
2, 11280, Note_on_c, 0, 100, 80
2, 11460, Note_on_c, 0, 87, 67
2, 11490, Note_on_c, 0, 95, 74
2, 11520, Note_on_c, 0, 100, 0
2, 11520, Note_on_c, 0, 102, 88
2, 11760, Note_on_c, 0, 102, 0
2, 11760, Note_on_c, 0, 95, 0
2, 11760, Note_on_c, 0, 87, 0
2, 11760, Note_on_c, 0, 75, 72
2, 11880, Note_on_c, 0, 75, 0
2, 12000, Note_on_c, 0, 78, 71
2, 12120, Note_on_c, 0, 78, 0
2, 12240, Note_on_c, 0, 76, 77
2, 12320, Note_on_c, 0, 76, 0
2, 12320, Note_on_c, 0, 78, 70
2, 12400, Note_on_c, 0, 78, 0
2, 12400, Note_on_c, 0, 76, 69
2, 12480, Note_on_c, 0, 76, 0
2, 12480, Note_on_c, 0, 72, 77
2, 12600, Note_on_c, 0, 72, 0
2, 12720, Note_on_c, 0, 81, 71
2, 12840, Note_on_c, 0, 81, 0
2, 12960, Note_on_c, 0, 71, 79
2, 13080, Note_on_c, 0, 71, 0
2, 13200, Note_on_c, 0, 75, 72
2, 13320, Note_on_c, 0, 75, 0
2, 13440, Note_on_c, 0, 78, 71
2, 13560, Note_on_c, 0, 78, 0
2, 13680, Note_on_c, 0, 76, 77
2, 13760, Note_on_c, 0, 76, 0
2, 13760, Note_on_c, 0, 78, 70
2, 13840, Note_on_c, 0, 78, 0
2, 13840, Note_on_c, 0, 76, 69
2, 13920, Note_on_c, 0, 76, 0
2, 13920, Note_on_c, 0, 72, 77
2, 14040, Note_on_c, 0, 72, 0
2, 14160, Note_on_c, 0, 81, 71
2, 14280, Note_on_c, 0, 81, 0
2, 14400, Note_on_c, 0, 83, 74
2, 14400, Note_on_c, 0, 78, 74
2, 14640, Note_on_c, 0, 78, 0
2, 14640, Note_on_c, 0, 83, 0
2, 14640, Note_on_c, 0, 80, 67
2, 14640, Note_on_c, 0, 77, 67
2, 14880, Note_on_c, 0, 77, 0
2, 14880, Note_on_c, 0, 80, 0
2, 14880, Note_on_c, 0, 81, 71
2, 14880, Note_on_c, 0, 76, 71
2, 15120, Note_on_c, 0, 76, 0
2, 15120, Note_on_c, 0, 81, 0
2, 15120, Note_on_c, 0, 78, 67
2, 15120, Note_on_c, 0, 75, 67
2, 15360, Note_on_c, 0, 75, 0
2, 15360, Note_on_c, 0, 78, 0
2, 15360, Note_on_c, 0, 74, 70
2, 15360, Note_on_c, 0, 79, 70
2, 15600, Note_on_c, 0, 79, 0
2, 15600, Note_on_c, 0, 74, 0
2, 15600, Note_on_c, 0, 72, 58
2, 15600, Note_on_c, 0, 74, 58
2, 15840, Note_on_c, 0, 74, 0
2, 15840, Note_on_c, 0, 72, 0
2, 15840, Note_on_c, 0, 71, 69
2, 15840, Note_on_c, 0, 74, 69
2, 15960, Note_on_c, 0, 74, 0
2, 15960, Note_on_c, 0, 71, 0
2, 16080, Note_on_c, 0, 67, 63
2, 16200, Note_on_c, 0, 67, 0
2, 16320, Note_on_c, 0, 71, 60
2, 16440, Note_on_c, 0, 71, 0
2, 16560, Note_on_c, 0, 69, 63
2, 16620, Note_on_c, 0, 69, 0
2, 16680, Note_on_c, 0, 69, 58
2, 16740, Note_on_c, 0, 69, 0
2, 16800, Note_on_c, 0, 76, 64
2, 16920, Note_on_c, 0, 76, 0
2, 17040, Note_on_c, 0, 76, 59
2, 17040, Note_on_c, 0, 81, 59
2, 17160, Note_on_c, 0, 81, 0
2, 17160, Note_on_c, 0, 76, 0
2, 17280, Note_on_c, 0, 71, 58
2, 17400, Note_on_c, 0, 71, 0
2, 17520, Note_on_c, 0, 75, 55
2, 17640, Note_on_c, 0, 75, 0
2, 17760, Note_on_c, 0, 78, 55
2, 17880, Note_on_c, 0, 78, 0
2, 18000, Note_on_c, 0, 76, 59
2, 18080, Note_on_c, 0, 76, 0
2, 18080, Note_on_c, 0, 78, 55
2, 18160, Note_on_c, 0, 78, 0
2, 18160, Note_on_c, 0, 76, 55
2, 18240, Note_on_c, 0, 76, 0
2, 18240, Note_on_c, 0, 72, 59
2, 18360, Note_on_c, 0, 72, 0
2, 18480, Note_on_c, 0, 81, 55
2, 18600, Note_on_c, 0, 81, 0
2, 18720, Note_on_c, 0, 71, 58
2, 18840, Note_on_c, 0, 71, 0
2, 18960, Note_on_c, 0, 75, 55
2, 19080, Note_on_c, 0, 75, 0
2, 19200, Note_on_c, 0, 78, 55
2, 19320, Note_on_c, 0, 78, 0
2, 19440, Note_on_c, 0, 76, 59
2, 19520, Note_on_c, 0, 76, 0
2, 19520, Note_on_c, 0, 78, 55
2, 19600, Note_on_c, 0, 78, 0
2, 19600, Note_on_c, 0, 76, 55
2, 19680, Note_on_c, 0, 76, 0
2, 19680, Note_on_c, 0, 72, 59
2, 19800, Note_on_c, 0, 72, 0
2, 19920, Note_on_c, 0, 81, 55
2, 20040, Note_on_c, 0, 81, 0
2, 20160, Note_on_c, 0, 71, 58
2, 20280, Note_on_c, 0, 71, 0
2, 20400, Note_on_c, 0, 75, 55
2, 20520, Note_on_c, 0, 75, 0
2, 20640, Note_on_c, 0, 78, 55
2, 20760, Note_on_c, 0, 78, 0
2, 20880, Note_on_c, 0, 76, 59
2, 20960, Note_on_c, 0, 76, 0
2, 20960, Note_on_c, 0, 78, 55
2, 21040, Note_on_c, 0, 78, 0
2, 21040, Note_on_c, 0, 76, 55
2, 21120, Note_on_c, 0, 76, 0
2, 21120, Note_on_c, 0, 72, 59
2, 21240, Note_on_c, 0, 72, 0
2, 21360, Note_on_c, 0, 81, 55
2, 21480, Note_on_c, 0, 81, 0
2, 21600, Note_on_c, 0, 71, 58
2, 21720, Note_on_c, 0, 71, 0
2, 21840, Note_on_c, 0, 75, 55
2, 21960, Note_on_c, 0, 75, 0
2, 22080, Note_on_c, 0, 78, 55
2, 22200, Note_on_c, 0, 78, 0
2, 22320, Note_on_c, 0, 76, 59
2, 22400, Note_on_c, 0, 76, 0
2, 22400, Note_on_c, 0, 78, 55
2, 22480, Note_on_c, 0, 78, 0
2, 22480, Note_on_c, 0, 76, 55
2, 22560, Note_on_c, 0, 76, 0
2, 22560, Note_on_c, 0, 72, 59
2, 22680, Note_on_c, 0, 72, 0
2, 22800, Note_on_c, 0, 81, 55
2, 22920, Note_on_c, 0, 81, 0
2, 23040, Note_on_c, 0, 71, 58
2, 23160, Note_on_c, 0, 71, 0
2, 23280, Note_on_c, 0, 75, 55
2, 23400, Note_on_c, 0, 75, 0
2, 23520, Note_on_c, 0, 78, 55
2, 23640, Note_on_c, 0, 78, 0
2, 23760, Note_on_c, 0, 72, 63
2, 23880, Note_on_c, 0, 72, 0
2, 24000, Note_on_c, 0, 79, 58
2, 24120, Note_on_c, 0, 79, 0
2, 24240, Note_on_c, 0, 84, 59
2, 24360, Note_on_c, 0, 84, 0
2, 24480, Note_on_c, 0, 78, 71
2, 24600, Note_on_c, 0, 78, 0
2, 24720, Note_on_c, 0, 83, 61
2, 24840, Note_on_c, 0, 83, 0
2, 24960, Note_on_c, 0, 90, 63
2, 25080, Note_on_c, 0, 90, 0
2, 25200, Note_on_c, 0, 88, 74
2, 25440, Note_on_c, 0, 88, 0
2, 25440, Note_on_c, 0, 93, 75
2, 25680, Note_on_c, 0, 93, 0
2, 25680, Note_on_c, 0, 100, 80
2, 25860, Note_on_c, 0, 87, 67
2, 25890, Note_on_c, 0, 95, 74
2, 25920, Note_on_c, 0, 100, 0
2, 25920, Note_on_c, 0, 102, 88
2, 26160, Note_on_c, 0, 102, 0
2, 26160, Note_on_c, 0, 95, 0
2, 26160, Note_on_c, 0, 87, 0
2, 26160, Note_on_c, 0, 75, 72
2, 26280, Note_on_c, 0, 75, 0
2, 26400, Note_on_c, 0, 78, 71
2, 26520, Note_on_c, 0, 78, 0
2, 26640, Note_on_c, 0, 76, 77
2, 26720, Note_on_c, 0, 76, 0
2, 26720, Note_on_c, 0, 78, 70
2, 26800, Note_on_c, 0, 78, 0
2, 26800, Note_on_c, 0, 76, 69
2, 26880, Note_on_c, 0, 76, 0
2, 26880, Note_on_c, 0, 72, 77
2, 27000, Note_on_c, 0, 72, 0
2, 27120, Note_on_c, 0, 81, 71
2, 27240, Note_on_c, 0, 81, 0
2, 27360, Note_on_c, 0, 71, 79
2, 27480, Note_on_c, 0, 71, 0
2, 27600, Note_on_c, 0, 75, 72
2, 27720, Note_on_c, 0, 75, 0
2, 27840, Note_on_c, 0, 78, 71
2, 27960, Note_on_c, 0, 78, 0
2, 28080, Note_on_c, 0, 76, 77
2, 28160, Note_on_c, 0, 76, 0
2, 28160, Note_on_c, 0, 78, 70
2, 28240, Note_on_c, 0, 78, 0
2, 28240, Note_on_c, 0, 76, 69
2, 28320, Note_on_c, 0, 76, 0
2, 28320, Note_on_c, 0, 72, 77
2, 28440, Note_on_c, 0, 72, 0
2, 28560, Note_on_c, 0, 81, 71
2, 28680, Note_on_c, 0, 81, 0
2, 29040, Note_on_c, 0, 75, 75
2, 29160, Note_on_c, 0, 75, 0
2, 29280, Note_on_c, 0, 78, 74
2, 29400, Note_on_c, 0, 78, 0
2, 29520, Note_on_c, 0, 76, 56
2, 29520, Note_on_c, 0, 84, 72
2, 29600, Note_on_c, 0, 84, 0
2, 29600, Note_on_c, 0, 86, 66
2, 29680, Note_on_c, 0, 86, 0
2, 29680, Note_on_c, 0, 84, 66
2, 29760, Note_on_c, 0, 84, 0
2, 29760, Note_on_c, 0, 81, 73
2, 29880, Note_on_c, 0, 81, 0
2, 30000, Note_on_c, 0, 84, 67
2, 30120, Note_on_c, 0, 84, 0
2, 30240, Note_on_c, 0, 76, 0
2, 30480, Note_on_c, 0, 75, 75
2, 30600, Note_on_c, 0, 75, 0
2, 30720, Note_on_c, 0, 78, 74
2, 30840, Note_on_c, 0, 78, 0
2, 30960, Note_on_c, 0, 76, 56
2, 30960, Note_on_c, 0, 84, 72
2, 31040, Note_on_c, 0, 84, 0
2, 31040, Note_on_c, 0, 86, 66
2, 31120, Note_on_c, 0, 86, 0
2, 31120, Note_on_c, 0, 84, 66
2, 31200, Note_on_c, 0, 84, 0
2, 31200, Note_on_c, 0, 81, 73
2, 31320, Note_on_c, 0, 81, 0
2, 31440, Note_on_c, 0, 84, 67
2, 31560, Note_on_c, 0, 84, 0
2, 31680, Note_on_c, 0, 76, 0
2, 31920, Note_on_c, 0, 77, 67
2, 31920, Note_on_c, 0, 80, 67
2, 32160, Note_on_c, 0, 80, 0
2, 32160, Note_on_c, 0, 77, 0
2, 32160, Note_on_c, 0, 81, 71
2, 32160, Note_on_c, 0, 76, 71
2, 32400, Note_on_c, 0, 76, 0
2, 32400, Note_on_c, 0, 81, 0
2, 32400, Note_on_c, 0, 75, 67
2, 32400, Note_on_c, 0, 78, 67
2, 32640, Note_on_c, 0, 78, 0
2, 32640, Note_on_c, 0, 75, 0
2, 32640, Note_on_c, 0, 74, 70
2, 32640, Note_on_c, 0, 79, 70
2, 32880, Note_on_c, 0, 79, 0
2, 32880, Note_on_c, 0, 74, 0
2, 32880, Note_on_c, 0, 72, 58
2, 32880, Note_on_c, 0, 74, 58
2, 33120, Note_on_c, 0, 74, 0
2, 33120, Note_on_c, 0, 72, 0
2, 33120, Note_on_c, 0, 71, 71
2, 33120, Note_on_c, 0, 74, 71
2, 33240, Note_on_c, 0, 74, 0
2, 33240, Note_on_c, 0, 71, 0
2, 33360, Note_on_c, 0, 67, 64
2, 33480, Note_on_c, 0, 67, 0
2, 33600, Note_on_c, 0, 71, 62
2, 33720, Note_on_c, 0, 71, 0
2, 33840, Note_on_c, 0, 69, 64
2, 33900, Note_on_c, 0, 69, 0
2, 33960, Note_on_c, 0, 69, 60
2, 34020, Note_on_c, 0, 69, 0
2, 34080, Note_on_c, 0, 76, 66
2, 34200, Note_on_c, 0, 76, 0
2, 34320, Note_on_c, 0, 76, 61
2, 34320, Note_on_c, 0, 81, 61
2, 34440, Note_on_c, 0, 81, 0
2, 34440, Note_on_c, 0, 76, 0
2, 34560, Note_on_c, 0, 83, 61
2, 34680, Note_on_c, 0, 83, 0
2, 34680, Note_on_c, 0, 85, 62
2, 34800, Note_on_c, 0, 85, 0
2, 34800, Note_on_c, 0, 87, 64
2, 34920, Note_on_c, 0, 87, 0
2, 34920, Note_on_c, 0, 88, 66
2, 35040, Note_on_c, 0, 88, 0
2, 35040, Note_on_c, 0, 90, 68
2, 35160, Note_on_c, 0, 90, 0
2, 35160, Note_on_c, 0, 91, 69
2, 35280, Note_on_c, 0, 91, 0
2, 35280, Note_on_c, 0, 93, 71
2, 35520, Note_on_c, 0, 93, 0
2, 35520, Note_on_c, 0, 91, 70
2, 35600, Note_on_c, 0, 91, 0
2, 35600, Note_on_c, 0, 93, 66
2, 35680, Note_on_c, 0, 93, 0
2, 35680, Note_on_c, 0, 91, 66
2, 35760, Note_on_c, 0, 91, 0
2, 35760, Note_on_c, 0, 90, 71
2, 35880, Note_on_c, 0, 90, 0
2, 35880, Note_on_c, 0, 88, 66
2, 36000, Note_on_c, 0, 88, 0
2, 36000, Note_on_c, 0, 90, 69
2, 36120, Note_on_c, 0, 90, 0
2, 36120, Note_on_c, 0, 91, 58
2, 36240, Note_on_c, 0, 91, 0
2, 36240, Note_on_c, 0, 90, 62
2, 36360, Note_on_c, 0, 90, 0
2, 36360, Note_on_c, 0, 86, 60
2, 36480, Note_on_c, 0, 86, 0
2, 36480, Note_on_c, 0, 83, 58
2, 36720, Note_on_c, 0, 83, 0
2, 36720, Note_on_c, 0, 84, 58
2, 36840, Note_on_c, 0, 84, 0
2, 36840, Note_on_c, 0, 86, 60
2, 36960, Note_on_c, 0, 86, 0
2, 36960, Note_on_c, 0, 88, 61
2, 37080, Note_on_c, 0, 88, 0
2, 37080, Note_on_c, 0, 90, 63
2, 37200, Note_on_c, 0, 90, 0
2, 37200, Note_on_c, 0, 91, 66
2, 37320, Note_on_c, 0, 91, 0
2, 37320, Note_on_c, 0, 88, 68
2, 37440, Note_on_c, 0, 88, 0
2, 37440, Note_on_c, 0, 86, 70
2, 37560, Note_on_c, 0, 86, 0
2, 37560, Note_on_c, 0, 88, 69
2, 37680, Note_on_c, 0, 88, 0
2, 37680, Note_on_c, 0, 86, 64
2, 37800, Note_on_c, 0, 86, 0
2, 37800, Note_on_c, 0, 83, 60
2, 37920, Note_on_c, 0, 83, 0
2, 37920, Note_on_c, 0, 79, 59
2, 38040, Note_on_c, 0, 79, 0
2, 38040, Note_on_c, 0, 81, 63
2, 38160, Note_on_c, 0, 81, 0
2, 38160, Note_on_c, 0, 83, 68
2, 38280, Note_on_c, 0, 83, 0
2, 38280, Note_on_c, 0, 86, 67
2, 38400, Note_on_c, 0, 86, 0
2, 38400, Note_on_c, 0, 84, 66
2, 38520, Note_on_c, 0, 84, 0
2, 38520, Note_on_c, 0, 83, 64
2, 38640, Note_on_c, 0, 83, 0
2, 38640, Note_on_c, 0, 84, 62
2, 38760, Note_on_c, 0, 84, 0
2, 38760, Note_on_c, 0, 88, 61
2, 38880, Note_on_c, 0, 88, 0
2, 38960, Note_on_c, 0, 75, 45
2, 38960, Note_on_c, 0, 83, 53
2, 39040, Note_on_c, 0, 83, 0
2, 39040, Note_on_c, 0, 75, 0
2, 39040, Note_on_c, 0, 71, 53
2, 39120, Note_on_c, 0, 71, 0
2, 39200, Note_on_c, 0, 75, 45
2, 39200, Note_on_c, 0, 83, 53
2, 39280, Note_on_c, 0, 83, 0
2, 39280, Note_on_c, 0, 75, 0
2, 39280, Note_on_c, 0, 71, 53
2, 39360, Note_on_c, 0, 71, 0
2, 39440, Note_on_c, 0, 75, 45
2, 39440, Note_on_c, 0, 83, 53
2, 39520, Note_on_c, 0, 83, 0
2, 39520, Note_on_c, 0, 75, 0
2, 39520, Note_on_c, 0, 71, 53
2, 39600, Note_on_c, 0, 71, 0
2, 39680, Note_on_c, 0, 76, 45
2, 39680, Note_on_c, 0, 81, 53
2, 39760, Note_on_c, 0, 81, 0
2, 39760, Note_on_c, 0, 76, 0
2, 39760, Note_on_c, 0, 72, 53
2, 39840, Note_on_c, 0, 72, 0
2, 39920, Note_on_c, 0, 76, 45
2, 39920, Note_on_c, 0, 81, 53
2, 40000, Note_on_c, 0, 81, 0
2, 40000, Note_on_c, 0, 76, 0
2, 40000, Note_on_c, 0, 72, 53
2, 40080, Note_on_c, 0, 72, 0
2, 40160, Note_on_c, 0, 76, 45
2, 40160, Note_on_c, 0, 81, 53
2, 40240, Note_on_c, 0, 81, 0
2, 40240, Note_on_c, 0, 76, 0
2, 40240, Note_on_c, 0, 72, 53
2, 40320, Note_on_c, 0, 72, 0
2, 40400, Note_on_c, 0, 75, 45
2, 40400, Note_on_c, 0, 83, 53
2, 40480, Note_on_c, 0, 83, 0
2, 40480, Note_on_c, 0, 75, 0
2, 40480, Note_on_c, 0, 71, 53
2, 40560, Note_on_c, 0, 71, 0
2, 40640, Note_on_c, 0, 83, 53
2, 40640, Note_on_c, 0, 75, 45
2, 40720, Note_on_c, 0, 75, 0
2, 40720, Note_on_c, 0, 83, 0
2, 40720, Note_on_c, 0, 71, 53
2, 40800, Note_on_c, 0, 71, 0
2, 40880, Note_on_c, 0, 83, 53
2, 40880, Note_on_c, 0, 75, 45
2, 40960, Note_on_c, 0, 75, 0
2, 40960, Note_on_c, 0, 83, 0
2, 40960, Note_on_c, 0, 71, 53
2, 41040, Note_on_c, 0, 71, 0
2, 41120, Note_on_c, 0, 81, 53
2, 41120, Note_on_c, 0, 76, 45
2, 41200, Note_on_c, 0, 76, 0
2, 41200, Note_on_c, 0, 81, 0
2, 41200, Note_on_c, 0, 72, 53
2, 41280, Note_on_c, 0, 72, 0
2, 41360, Note_on_c, 0, 76, 45
2, 41360, Note_on_c, 0, 81, 53
2, 41440, Note_on_c, 0, 81, 0
2, 41440, Note_on_c, 0, 76, 0
2, 41440, Note_on_c, 0, 72, 53
2, 41520, Note_on_c, 0, 72, 0
2, 41600, Note_on_c, 0, 76, 45
2, 41600, Note_on_c, 0, 81, 53
2, 41680, Note_on_c, 0, 81, 0
2, 41680, Note_on_c, 0, 76, 0
2, 41680, Note_on_c, 0, 72, 53
2, 41760, Note_on_c, 0, 72, 0
2, 41840, Note_on_c, 0, 75, 45
2, 41840, Note_on_c, 0, 83, 53
2, 41920, Note_on_c, 0, 83, 0
2, 41920, Note_on_c, 0, 75, 0
2, 41920, Note_on_c, 0, 71, 52
2, 42000, Note_on_c, 0, 71, 0
2, 42080, Note_on_c, 0, 83, 53
2, 42080, Note_on_c, 0, 75, 45
2, 42160, Note_on_c, 0, 75, 0
2, 42160, Note_on_c, 0, 83, 0
2, 42160, Note_on_c, 0, 71, 55
2, 42240, Note_on_c, 0, 71, 0
2, 42320, Note_on_c, 0, 75, 46
2, 42320, Note_on_c, 0, 83, 57
2, 42400, Note_on_c, 0, 83, 0
2, 42400, Note_on_c, 0, 75, 0
2, 42400, Note_on_c, 0, 71, 56
2, 42480, Note_on_c, 0, 71, 0
2, 42560, Note_on_c, 0, 83, 57
2, 42560, Note_on_c, 0, 75, 48
2, 42640, Note_on_c, 0, 75, 0
2, 42640, Note_on_c, 0, 83, 0
2, 42640, Note_on_c, 0, 71, 56
2, 42720, Note_on_c, 0, 71, 0
2, 42800, Note_on_c, 0, 83, 53
2, 42800, Note_on_c, 0, 75, 46
2, 42880, Note_on_c, 0, 75, 0
2, 42880, Note_on_c, 0, 83, 0
2, 42880, Note_on_c, 0, 71, 53
2, 42960, Note_on_c, 0, 71, 0
2, 43040, Note_on_c, 0, 75, 44
2, 43040, Note_on_c, 0, 83, 51
2, 43120, Note_on_c, 0, 83, 0
2, 43120, Note_on_c, 0, 75, 0
2, 43120, Note_on_c, 0, 71, 49
2, 43200, Note_on_c, 0, 71, 0
2, 43280, Note_on_c, 0, 75, 41
2, 43280, Note_on_c, 0, 83, 49
2, 43360, Note_on_c, 0, 83, 0
2, 43360, Note_on_c, 0, 75, 0
2, 43360, Note_on_c, 0, 71, 48
2, 43440, Note_on_c, 0, 71, 0
2, 43520, Note_on_c, 0, 75, 39
2, 43520, Note_on_c, 0, 83, 47
2, 43600, Note_on_c, 0, 83, 0
2, 43600, Note_on_c, 0, 75, 0
2, 43600, Note_on_c, 0, 71, 46
2, 43680, Note_on_c, 0, 71, 0
2, 43760, Note_on_c, 0, 83, 46
2, 43760, Note_on_c, 0, 75, 39
2, 43840, Note_on_c, 0, 75, 0
2, 43840, Note_on_c, 0, 83, 0
2, 43840, Note_on_c, 0, 71, 45
2, 43920, Note_on_c, 0, 71, 0
2, 44000, Note_on_c, 0, 75, 37
2, 44000, Note_on_c, 0, 83, 44
2, 44080, Note_on_c, 0, 83, 0
2, 44080, Note_on_c, 0, 75, 0
2, 44080, Note_on_c, 0, 71, 44
2, 44160, Note_on_c, 0, 71, 0
2, 44240, Note_on_c, 0, 83, 42
2, 44240, Note_on_c, 0, 75, 36
2, 44320, Note_on_c, 0, 75, 0
2, 44320, Note_on_c, 0, 83, 0
2, 44320, Note_on_c, 0, 71, 42
2, 44400, Note_on_c, 0, 71, 0
2, 44480, Note_on_c, 0, 75, 35
2, 44480, Note_on_c, 0, 83, 41
2, 44560, Note_on_c, 0, 83, 0
2, 44560, Note_on_c, 0, 75, 0
2, 44560, Note_on_c, 0, 71, 40
2, 44638, Note_on_c, 0, 71, 0
2, 44640, Note_on_c, 0, 99, 41
2, 44640, Note_on_c, 0, 90, 41
2, 44640, Note_on_c, 0, 87, 41
2, 45360, Note_on_c, 0, 87, 0
2, 45360, Note_on_c, 0, 90, 0
2, 45360, Note_on_c, 0, 99, 0
2, 45600, Note_on_c, 0, 71, 58
2, 45840, Note_on_c, 0, 71, 0
2, 45840, Note_on_c, 0, 76, 62
2, 47040, Note_on_c, 0, 76, 0
2, 47040, Note_on_c, 0, 74, 56
2, 47280, Note_on_c, 0, 74, 0
2, 47280, Note_on_c, 0, 76, 63
2, 48000, Note_on_c, 0, 76, 0
2, 48000, Note_on_c, 0, 74, 55
2, 48240, Note_on_c, 0, 74, 0
2, 48240, Note_on_c, 0, 76, 61
2, 48960, Note_on_c, 0, 76, 0
2, 48960, Note_on_c, 0, 74, 56
2, 49040, Note_on_c, 0, 74, 0
2, 49040, Note_on_c, 0, 76, 53
2, 49120, Note_on_c, 0, 76, 0
2, 49120, Note_on_c, 0, 74, 50
2, 49200, Note_on_c, 0, 74, 0
2, 49200, Note_on_c, 0, 71, 44
2, 49680, Note_on_c, 0, 71, 0
2, 49800, Note_on_c, 0, 59, 39
2, 49920, Note_on_c, 0, 59, 0
2, 49920, Note_on_c, 0, 62, 39
2, 50040, Note_on_c, 0, 62, 0
2, 50040, Note_on_c, 0, 67, 39
2, 50160, Note_on_c, 0, 67, 0
2, 50160, Note_on_c, 0, 71, 41
2, 50280, Note_on_c, 0, 71, 0
2, 50280, Note_on_c, 0, 74, 40
2, 50400, Note_on_c, 0, 74, 0
2, 50400, Note_on_c, 0, 79, 37
2, 50520, Note_on_c, 0, 79, 0
2, 50520, Note_on_c, 0, 83, 37
2, 50640, Note_on_c, 0, 83, 0
2, 50640, Note_on_c, 0, 86, 41
2, 50760, Note_on_c, 0, 86, 0
2, 50760, Note_on_c, 0, 91, 39
2, 50880, Note_on_c, 0, 91, 0
2, 50880, Note_on_c, 0, 95, 39
2, 51000, Note_on_c, 0, 95, 0
2, 51000, Note_on_c, 0, 98, 39
2, 51120, Note_on_c, 0, 98, 0
2, 51360, Note_on_c, 0, 71, 45
2, 51600, Note_on_c, 0, 71, 0
2, 51600, Note_on_c, 0, 76, 49
2, 52320, Note_on_c, 0, 76, 0
2, 52320, Note_on_c, 0, 74, 46
2, 52560, Note_on_c, 0, 74, 0
2, 52560, Note_on_c, 0, 76, 52
2, 53280, Note_on_c, 0, 76, 0
2, 53280, Note_on_c, 0, 74, 51
2, 53520, Note_on_c, 0, 74, 0
2, 53520, Note_on_c, 0, 76, 56
2, 53760, Note_on_c, 0, 76, 0
2, 53760, Note_on_c, 0, 74, 53
2, 54000, Note_on_c, 0, 74, 0
2, 54000, Note_on_c, 0, 76, 56
2, 54120, Note_on_c, 0, 76, 0
2, 54120, Note_on_c, 0, 78, 52
2, 54240, Note_on_c, 0, 78, 0
2, 54240, Note_on_c, 0, 76, 55
2, 54360, Note_on_c, 0, 76, 0
2, 54360, Note_on_c, 0, 74, 51
2, 54480, Note_on_c, 0, 74, 0
2, 54480, Note_on_c, 0, 72, 47
2, 55440, Note_on_c, 0, 72, 0
2, 55560, Note_on_c, 0, 52, 39
2, 55680, Note_on_c, 0, 52, 0
2, 55680, Note_on_c, 0, 55, 39
2, 55800, Note_on_c, 0, 55, 0
2, 55800, Note_on_c, 0, 60, 39
2, 55920, Note_on_c, 0, 60, 0
2, 55920, Note_on_c, 0, 64, 41
2, 56040, Note_on_c, 0, 64, 0
2, 56040, Note_on_c, 0, 67, 40
2, 56160, Note_on_c, 0, 67, 0
2, 56160, Note_on_c, 0, 72, 37
2, 56280, Note_on_c, 0, 72, 0
2, 56280, Note_on_c, 0, 76, 37
2, 56400, Note_on_c, 0, 76, 0
2, 56400, Note_on_c, 0, 79, 41
2, 56520, Note_on_c, 0, 79, 0
2, 56520, Note_on_c, 0, 84, 39
2, 56640, Note_on_c, 0, 84, 0
2, 56640, Note_on_c, 0, 88, 39
2, 56760, Note_on_c, 0, 88, 0
2, 56760, Note_on_c, 0, 100, 39
2, 56880, Note_on_c, 0, 100, 0
2, 57120, Note_on_c, 0, 72, 50
2, 57360, Note_on_c, 0, 72, 0
2, 57360, Note_on_c, 0, 76, 55
2, 58560, Note_on_c, 0, 76, 0
2, 58560, Note_on_c, 0, 74, 55
2, 58800, Note_on_c, 0, 74, 0
2, 58800, Note_on_c, 0, 76, 58
2, 59280, Note_on_c, 0, 76, 0
2, 59280, Note_on_c, 0, 78, 60
2, 59520, Note_on_c, 0, 78, 0
2, 59520, Note_on_c, 0, 79, 62
2, 59760, Note_on_c, 0, 79, 0
2, 59760, Note_on_c, 0, 76, 62
2, 59856, Note_on_c, 0, 76, 0
2, 59856, Note_on_c, 0, 78, 57
2, 59952, Note_on_c, 0, 78, 0
2, 59952, Note_on_c, 0, 76, 60
2, 60048, Note_on_c, 0, 76, 0
2, 60048, Note_on_c, 0, 74, 56
2, 60144, Note_on_c, 0, 74, 0
2, 60144, Note_on_c, 0, 72, 52
2, 60240, Note_on_c, 0, 72, 0
2, 60240, Note_on_c, 0, 71, 49
2, 61200, Note_on_c, 0, 71, 0
2, 61320, Note_on_c, 0, 59, 39
2, 61440, Note_on_c, 0, 59, 0
2, 61440, Note_on_c, 0, 62, 39
2, 61560, Note_on_c, 0, 62, 0
2, 61560, Note_on_c, 0, 67, 39
2, 61680, Note_on_c, 0, 67, 0
2, 61680, Note_on_c, 0, 71, 41
2, 61800, Note_on_c, 0, 71, 0
2, 61800, Note_on_c, 0, 74, 40
2, 61920, Note_on_c, 0, 74, 0
2, 61920, Note_on_c, 0, 79, 37
2, 62040, Note_on_c, 0, 79, 0
2, 62040, Note_on_c, 0, 83, 37
2, 62160, Note_on_c, 0, 83, 0
2, 62160, Note_on_c, 0, 86, 41
2, 62280, Note_on_c, 0, 86, 0
2, 62280, Note_on_c, 0, 91, 39
2, 62400, Note_on_c, 0, 91, 0
2, 62400, Note_on_c, 0, 95, 39
2, 62520, Note_on_c, 0, 95, 0
2, 62520, Note_on_c, 0, 98, 39
2, 62640, Note_on_c, 0, 98, 0
2, 62880, Note_on_c, 0, 71, 55
2, 63120, Note_on_c, 0, 71, 0
2, 63120, Note_on_c, 0, 74, 60
2, 64320, Note_on_c, 0, 74, 0
2, 64320, Note_on_c, 0, 72, 56
2, 64560, Note_on_c, 0, 72, 0
2, 64560, Note_on_c, 0, 71, 55
2, 65040, Note_on_c, 0, 71, 0
2, 65040, Note_on_c, 0, 69, 53
2, 65280, Note_on_c, 0, 69, 0
2, 65280, Note_on_c, 0, 71, 53
2, 65520, Note_on_c, 0, 71, 0
2, 65520, Note_on_c, 0, 72, 58
2, 65640, Note_on_c, 0, 72, 0
2, 65640, Note_on_c, 0, 74, 51
2, 65760, Note_on_c, 0, 74, 0
2, 65760, Note_on_c, 0, 72, 56
2, 65880, Note_on_c, 0, 72, 0
2, 65880, Note_on_c, 0, 71, 48
2, 66000, Note_on_c, 0, 71, 0
2, 66000, Note_on_c, 0, 69, 46
2, 66960, Note_on_c, 0, 69, 0
2, 67080, Note_on_c, 0, 50, 39
2, 67200, Note_on_c, 0, 50, 0
2, 67200, Note_on_c, 0, 54, 39
2, 67320, Note_on_c, 0, 54, 0
2, 67320, Note_on_c, 0, 60, 39
2, 67440, Note_on_c, 0, 60, 0
2, 67440, Note_on_c, 0, 62, 41
2, 67560, Note_on_c, 0, 62, 0
2, 67560, Note_on_c, 0, 66, 40
2, 67680, Note_on_c, 0, 66, 0
2, 67680, Note_on_c, 0, 72, 37
2, 67800, Note_on_c, 0, 72, 0
2, 67800, Note_on_c, 0, 74, 37
2, 67920, Note_on_c, 0, 74, 0
2, 67920, Note_on_c, 0, 78, 41
2, 68040, Note_on_c, 0, 78, 0
2, 68040, Note_on_c, 0, 84, 39
2, 68160, Note_on_c, 0, 84, 0
2, 68160, Note_on_c, 0, 86, 39
2, 68280, Note_on_c, 0, 86, 0
2, 68280, Note_on_c, 0, 90, 39
2, 68400, Note_on_c, 0, 90, 0
2, 68520, Note_on_c, 0, 72, 52
2, 68640, Note_on_c, 0, 72, 0
2, 68640, Note_on_c, 0, 74, 55
2, 68760, Note_on_c, 0, 74, 0
2, 68760, Note_on_c, 0, 76, 58
2, 68880, Note_on_c, 0, 76, 0
2, 68880, Note_on_c, 0, 78, 62
2, 68960, Note_on_c, 0, 78, 0
2, 68960, Note_on_c, 0, 79, 49
2, 69040, Note_on_c, 0, 79, 0
2, 69040, Note_on_c, 0, 78, 49
2, 69120, Note_on_c, 0, 78, 0
2, 69120, Note_on_c, 0, 76, 60
2, 69240, Note_on_c, 0, 76, 0
2, 69240, Note_on_c, 0, 74, 50
2, 69360, Note_on_c, 0, 74, 0
2, 69360, Note_on_c, 0, 76, 61
2, 69440, Note_on_c, 0, 76, 0
2, 69440, Note_on_c, 0, 78, 49
2, 69520, Note_on_c, 0, 78, 0
2, 69520, Note_on_c, 0, 76, 48
2, 69600, Note_on_c, 0, 76, 0
2, 69600, Note_on_c, 0, 74, 57
2, 69720, Note_on_c, 0, 74, 0
2, 69720, Note_on_c, 0, 72, 52
2, 69840, Note_on_c, 0, 72, 0
2, 69840, Note_on_c, 0, 74, 52
2, 69960, Note_on_c, 0, 74, 0
2, 69960, Note_on_c, 0, 76, 49
2, 70080, Note_on_c, 0, 76, 0
2, 70080, Note_on_c, 0, 74, 51
2, 70200, Note_on_c, 0, 74, 0
2, 70200, Note_on_c, 0, 72, 45
2, 70320, Note_on_c, 0, 72, 0
2, 70320, Note_on_c, 0, 71, 40
2, 71280, Note_on_c, 0, 71, 0
2, 71400, Note_on_c, 0, 59, 39
2, 71520, Note_on_c, 0, 59, 0
2, 71520, Note_on_c, 0, 62, 39
2, 71640, Note_on_c, 0, 62, 0
2, 71640, Note_on_c, 0, 67, 39
2, 71760, Note_on_c, 0, 67, 0
2, 71760, Note_on_c, 0, 71, 41
2, 71880, Note_on_c, 0, 71, 0
2, 71880, Note_on_c, 0, 74, 40
2, 72000, Note_on_c, 0, 74, 0
2, 72000, Note_on_c, 0, 79, 37
2, 72120, Note_on_c, 0, 79, 0
2, 72120, Note_on_c, 0, 83, 37
2, 72240, Note_on_c, 0, 83, 0
2, 72240, Note_on_c, 0, 86, 41
2, 72360, Note_on_c, 0, 86, 0
2, 72360, Note_on_c, 0, 91, 39
2, 72480, Note_on_c, 0, 91, 0
2, 72480, Note_on_c, 0, 95, 39
2, 72600, Note_on_c, 0, 95, 0
2, 72600, Note_on_c, 0, 98, 39
2, 72720, Note_on_c, 0, 98, 0
2, 72720, Note_on_c, 0, 71, 55
2, 73200, Note_on_c, 0, 71, 0
2, 73200, Note_on_c, 0, 76, 60
2, 74160, Note_on_c, 0, 76, 0
2, 74640, Note_on_c, 0, 64, 47
2, 74760, Note_on_c, 0, 64, 0
2, 74760, Note_on_c, 0, 66, 39
2, 74880, Note_on_c, 0, 66, 0
2, 74880, Note_on_c, 0, 69, 39
2, 75000, Note_on_c, 0, 69, 0
2, 75000, Note_on_c, 0, 72, 39
2, 75120, Note_on_c, 0, 72, 0
2, 75600, Note_on_c, 0, 88, 50
2, 76080, Note_on_c, 0, 88, 0
2, 76080, Note_on_c, 0, 74, 57
2, 76560, Note_on_c, 0, 74, 0
2, 76560, Note_on_c, 0, 76, 61
2, 76800, Note_on_c, 0, 76, 0
2, 76800, Note_on_c, 0, 74, 59
2, 77040, Note_on_c, 0, 74, 0
2, 77040, Note_on_c, 0, 72, 56
2, 77280, Note_on_c, 0, 72, 0
2, 77280, Note_on_c, 0, 71, 52
2, 77520, Note_on_c, 0, 71, 0
2, 77520, Note_on_c, 0, 72, 55
2, 77600, Note_on_c, 0, 72, 0
2, 77600, Note_on_c, 0, 74, 57
2, 77680, Note_on_c, 0, 74, 0
2, 77680, Note_on_c, 0, 72, 57
2, 77760, Note_on_c, 0, 72, 0
2, 77760, Note_on_c, 0, 71, 56
2, 77840, Note_on_c, 0, 71, 0
2, 77840, Note_on_c, 0, 69, 55
2, 77920, Note_on_c, 0, 69, 0
2, 77920, Note_on_c, 0, 67, 53
2, 78000, Note_on_c, 0, 67, 0
2, 78000, Note_on_c, 0, 66, 56
2, 78068, Note_on_c, 0, 67, 56
2, 78070, Note_on_c, 0, 66, 0
2, 78137, Note_on_c, 0, 66, 55
2, 78138, Note_on_c, 0, 67, 0
2, 78205, Note_on_c, 0, 64, 51
2, 78207, Note_on_c, 0, 66, 0
2, 78274, Note_on_c, 0, 62, 51
2, 78275, Note_on_c, 0, 64, 0
2, 78342, Note_on_c, 0, 60, 47
2, 78344, Note_on_c, 0, 62, 0
2, 78411, Note_on_c, 0, 62, 47
2, 78412, Note_on_c, 0, 60, 0
2, 78480, Note_on_c, 0, 63, 49
2, 78481, Note_on_c, 0, 62, 0
2, 78528, Note_on_c, 0, 64, 51
2, 78530, Note_on_c, 0, 63, 0
2, 78576, Note_on_c, 0, 66, 52
2, 78578, Note_on_c, 0, 64, 0
2, 78624, Note_on_c, 0, 69, 55
2, 78626, Note_on_c, 0, 66, 0
2, 78672, Note_on_c, 0, 67, 55
2, 78674, Note_on_c, 0, 69, 0
2, 78720, Note_on_c, 0, 66, 53
2, 78722, Note_on_c, 0, 67, 0
2, 78768, Note_on_c, 0, 64, 52
2, 78770, Note_on_c, 0, 66, 0
2, 78816, Note_on_c, 0, 63, 49
2, 78818, Note_on_c, 0, 64, 0
2, 78864, Note_on_c, 0, 64, 50
2, 78866, Note_on_c, 0, 63, 0
2, 78912, Note_on_c, 0, 60, 45
2, 78914, Note_on_c, 0, 64, 0
2, 78960, Note_on_c, 0, 71, 58
2, 78962, Note_on_c, 0, 60, 0
2, 79080, Note_on_c, 0, 71, 0
2, 79200, Note_on_c, 0, 75, 55
2, 79320, Note_on_c, 0, 75, 0
2, 79440, Note_on_c, 0, 78, 55
2, 79560, Note_on_c, 0, 78, 0
2, 79680, Note_on_c, 0, 76, 59
2, 79760, Note_on_c, 0, 76, 0
2, 79760, Note_on_c, 0, 78, 55
2, 79840, Note_on_c, 0, 78, 0
2, 79840, Note_on_c, 0, 76, 55
2, 79920, Note_on_c, 0, 76, 0
2, 79920, Note_on_c, 0, 72, 59
2, 80040, Note_on_c, 0, 72, 0
2, 80160, Note_on_c, 0, 81, 55
2, 80280, Note_on_c, 0, 81, 0
2, 80400, Note_on_c, 0, 71, 58
2, 80520, Note_on_c, 0, 71, 0
2, 80640, Note_on_c, 0, 75, 55
2, 80760, Note_on_c, 0, 75, 0
2, 80880, Note_on_c, 0, 78, 55
2, 81000, Note_on_c, 0, 78, 0
2, 81120, Note_on_c, 0, 76, 59
2, 81200, Note_on_c, 0, 76, 0
2, 81200, Note_on_c, 0, 78, 55
2, 81280, Note_on_c, 0, 78, 0
2, 81280, Note_on_c, 0, 76, 55
2, 81360, Note_on_c, 0, 76, 0
2, 81360, Note_on_c, 0, 72, 59
2, 81480, Note_on_c, 0, 72, 0
2, 81600, Note_on_c, 0, 81, 53
2, 81720, Note_on_c, 0, 81, 0
2, 81840, Note_on_c, 0, 71, 58
2, 81960, Note_on_c, 0, 71, 0
2, 82080, Note_on_c, 0, 75, 55
2, 82200, Note_on_c, 0, 75, 0
2, 82320, Note_on_c, 0, 78, 55
2, 82440, Note_on_c, 0, 78, 0
2, 82560, Note_on_c, 0, 76, 59
2, 82640, Note_on_c, 0, 76, 0
2, 82640, Note_on_c, 0, 78, 55
2, 82720, Note_on_c, 0, 78, 0
2, 82720, Note_on_c, 0, 76, 55
2, 82800, Note_on_c, 0, 76, 0
2, 82800, Note_on_c, 0, 72, 59
2, 82920, Note_on_c, 0, 72, 0
2, 83040, Note_on_c, 0, 81, 55
2, 83160, Note_on_c, 0, 81, 0
2, 83280, Note_on_c, 0, 71, 58
2, 83400, Note_on_c, 0, 71, 0
2, 83520, Note_on_c, 0, 75, 55
2, 83640, Note_on_c, 0, 75, 0
2, 83760, Note_on_c, 0, 78, 55
2, 83880, Note_on_c, 0, 78, 0
2, 84000, Note_on_c, 0, 76, 59
2, 84080, Note_on_c, 0, 76, 0
2, 84080, Note_on_c, 0, 78, 55
2, 84160, Note_on_c, 0, 78, 0
2, 84160, Note_on_c, 0, 76, 55
2, 84240, Note_on_c, 0, 76, 0
2, 84240, Note_on_c, 0, 72, 59
2, 84360, Note_on_c, 0, 72, 0
2, 84480, Note_on_c, 0, 81, 55
2, 84600, Note_on_c, 0, 81, 0
2, 84720, Note_on_c, 0, 71, 58
2, 84840, Note_on_c, 0, 71, 0
2, 84960, Note_on_c, 0, 75, 55
2, 85080, Note_on_c, 0, 75, 0
2, 85200, Note_on_c, 0, 78, 55
2, 85320, Note_on_c, 0, 78, 0
2, 85440, Note_on_c, 0, 76, 59
2, 85520, Note_on_c, 0, 76, 0
2, 85520, Note_on_c, 0, 78, 55
2, 85600, Note_on_c, 0, 78, 0
2, 85600, Note_on_c, 0, 76, 55
2, 85680, Note_on_c, 0, 76, 0
2, 85680, Note_on_c, 0, 72, 59
2, 85800, Note_on_c, 0, 72, 0
2, 85920, Note_on_c, 0, 81, 55
2, 86040, Note_on_c, 0, 81, 0
2, 86160, Note_on_c, 0, 71, 58
2, 86280, Note_on_c, 0, 71, 0
2, 86400, Note_on_c, 0, 75, 55
2, 86520, Note_on_c, 0, 75, 0
2, 86640, Note_on_c, 0, 78, 55
2, 86760, Note_on_c, 0, 78, 0
2, 86880, Note_on_c, 0, 76, 59
2, 86960, Note_on_c, 0, 76, 0
2, 86960, Note_on_c, 0, 78, 55
2, 87040, Note_on_c, 0, 78, 0
2, 87040, Note_on_c, 0, 76, 55
2, 87120, Note_on_c, 0, 76, 0
2, 87120, Note_on_c, 0, 72, 59
2, 87240, Note_on_c, 0, 72, 0
2, 87360, Note_on_c, 0, 81, 55
2, 87480, Note_on_c, 0, 81, 0
2, 87600, Note_on_c, 0, 71, 58
2, 87720, Note_on_c, 0, 71, 0
2, 87840, Note_on_c, 0, 75, 55
2, 87960, Note_on_c, 0, 75, 0
2, 88080, Note_on_c, 0, 78, 55
2, 88200, Note_on_c, 0, 78, 0
2, 88320, Note_on_c, 0, 72, 63
2, 88440, Note_on_c, 0, 72, 0
2, 88560, Note_on_c, 0, 79, 58
2, 88680, Note_on_c, 0, 79, 0
2, 88800, Note_on_c, 0, 84, 59
2, 88920, Note_on_c, 0, 84, 0
2, 89040, Note_on_c, 0, 78, 71
2, 89160, Note_on_c, 0, 78, 0
2, 89280, Note_on_c, 0, 83, 61
2, 89400, Note_on_c, 0, 83, 0
2, 89520, Note_on_c, 0, 90, 63
2, 89640, Note_on_c, 0, 90, 0
2, 89760, Note_on_c, 0, 88, 74
2, 90000, Note_on_c, 0, 88, 0
2, 90000, Note_on_c, 0, 93, 75
2, 90240, Note_on_c, 0, 93, 0
2, 90240, Note_on_c, 0, 100, 80
2, 90420, Note_on_c, 0, 87, 67
2, 90450, Note_on_c, 0, 95, 74
2, 90480, Note_on_c, 0, 100, 0
2, 90480, Note_on_c, 0, 102, 88
2, 90720, Note_on_c, 0, 102, 0
2, 90720, Note_on_c, 0, 95, 0
2, 90720, Note_on_c, 0, 87, 0
2, 90720, Note_on_c, 0, 75, 72
2, 90840, Note_on_c, 0, 75, 0
2, 90960, Note_on_c, 0, 78, 71
2, 91080, Note_on_c, 0, 78, 0
2, 91200, Note_on_c, 0, 76, 77
2, 91280, Note_on_c, 0, 76, 0
2, 91280, Note_on_c, 0, 78, 70
2, 91360, Note_on_c, 0, 78, 0
2, 91360, Note_on_c, 0, 76, 69
2, 91440, Note_on_c, 0, 76, 0
2, 91440, Note_on_c, 0, 72, 77
2, 91560, Note_on_c, 0, 72, 0
2, 91680, Note_on_c, 0, 81, 71
2, 91800, Note_on_c, 0, 81, 0
2, 91920, Note_on_c, 0, 71, 79
2, 92040, Note_on_c, 0, 71, 0
2, 92160, Note_on_c, 0, 75, 72
2, 92280, Note_on_c, 0, 75, 0
2, 92400, Note_on_c, 0, 78, 71
2, 92520, Note_on_c, 0, 78, 0
2, 92640, Note_on_c, 0, 76, 77
2, 92720, Note_on_c, 0, 76, 0
2, 92720, Note_on_c, 0, 78, 70
2, 92800, Note_on_c, 0, 78, 0
2, 92800, Note_on_c, 0, 76, 69
2, 92880, Note_on_c, 0, 76, 0
2, 92880, Note_on_c, 0, 72, 77
2, 93000, Note_on_c, 0, 72, 0
2, 93120, Note_on_c, 0, 81, 71
2, 93240, Note_on_c, 0, 81, 0
2, 93360, Note_on_c, 0, 78, 74
2, 93360, Note_on_c, 0, 83, 74
2, 93600, Note_on_c, 0, 83, 0
2, 93600, Note_on_c, 0, 78, 0
2, 93600, Note_on_c, 0, 77, 67
2, 93600, Note_on_c, 0, 80, 67
2, 93840, Note_on_c, 0, 80, 0
2, 93840, Note_on_c, 0, 77, 0
2, 93840, Note_on_c, 0, 76, 71
2, 93840, Note_on_c, 0, 81, 71
2, 94080, Note_on_c, 0, 81, 0
2, 94080, Note_on_c, 0, 76, 0
2, 94080, Note_on_c, 0, 75, 67
2, 94080, Note_on_c, 0, 78, 67
2, 94320, Note_on_c, 0, 78, 0
2, 94320, Note_on_c, 0, 75, 0
2, 94320, Note_on_c, 0, 74, 70
2, 94320, Note_on_c, 0, 79, 70
2, 94560, Note_on_c, 0, 79, 0
2, 94560, Note_on_c, 0, 74, 0
2, 94560, Note_on_c, 0, 74, 58
2, 94560, Note_on_c, 0, 72, 58
2, 94800, Note_on_c, 0, 72, 0
2, 94800, Note_on_c, 0, 74, 0
2, 94800, Note_on_c, 0, 71, 69
2, 94800, Note_on_c, 0, 74, 69
2, 94920, Note_on_c, 0, 74, 0
2, 94920, Note_on_c, 0, 71, 0
2, 95040, Note_on_c, 0, 67, 63
2, 95160, Note_on_c, 0, 67, 0
2, 95280, Note_on_c, 0, 71, 60
2, 95400, Note_on_c, 0, 71, 0
2, 95520, Note_on_c, 0, 69, 63
2, 95580, Note_on_c, 0, 69, 0
2, 95640, Note_on_c, 0, 69, 58
2, 95700, Note_on_c, 0, 69, 0
2, 95760, Note_on_c, 0, 76, 64
2, 95880, Note_on_c, 0, 76, 0
2, 96000, Note_on_c, 0, 81, 59
2, 96000, Note_on_c, 0, 76, 59
2, 96120, Note_on_c, 0, 76, 0
2, 96120, Note_on_c, 0, 81, 0
2, 96240, Note_on_c, 0, 71, 58
2, 96360, Note_on_c, 0, 71, 0
2, 96480, Note_on_c, 0, 75, 55
2, 96600, Note_on_c, 0, 75, 0
2, 96720, Note_on_c, 0, 78, 55
2, 96840, Note_on_c, 0, 78, 0
2, 96960, Note_on_c, 0, 76, 59
2, 97040, Note_on_c, 0, 76, 0
2, 97040, Note_on_c, 0, 78, 55
2, 97120, Note_on_c, 0, 78, 0
2, 97120, Note_on_c, 0, 76, 55
2, 97200, Note_on_c, 0, 76, 0
2, 97200, Note_on_c, 0, 72, 59
2, 97320, Note_on_c, 0, 72, 0
2, 97440, Note_on_c, 0, 81, 55
2, 97560, Note_on_c, 0, 81, 0
2, 97680, Note_on_c, 0, 71, 58
2, 97800, Note_on_c, 0, 71, 0
2, 97920, Note_on_c, 0, 75, 55
2, 98040, Note_on_c, 0, 75, 0
2, 98160, Note_on_c, 0, 78, 55
2, 98280, Note_on_c, 0, 78, 0
2, 98400, Note_on_c, 0, 76, 59
2, 98480, Note_on_c, 0, 76, 0
2, 98480, Note_on_c, 0, 78, 55
2, 98560, Note_on_c, 0, 78, 0
2, 98560, Note_on_c, 0, 76, 55
2, 98640, Note_on_c, 0, 76, 0
2, 98640, Note_on_c, 0, 72, 59
2, 98760, Note_on_c, 0, 72, 0
2, 98880, Note_on_c, 0, 81, 55
2, 99000, Note_on_c, 0, 81, 0
2, 99120, Note_on_c, 0, 71, 58
2, 99240, Note_on_c, 0, 71, 0
2, 99360, Note_on_c, 0, 75, 55
2, 99480, Note_on_c, 0, 75, 0
2, 99600, Note_on_c, 0, 78, 55
2, 99720, Note_on_c, 0, 78, 0
2, 99840, Note_on_c, 0, 76, 59
2, 99920, Note_on_c, 0, 76, 0
2, 99920, Note_on_c, 0, 78, 55
2, 100000, Note_on_c, 0, 78, 0
2, 100000, Note_on_c, 0, 76, 55
2, 100080, Note_on_c, 0, 76, 0
2, 100080, Note_on_c, 0, 72, 59
2, 100200, Note_on_c, 0, 72, 0
2, 100320, Note_on_c, 0, 81, 55
2, 100440, Note_on_c, 0, 81, 0
2, 100560, Note_on_c, 0, 71, 58
2, 100680, Note_on_c, 0, 71, 0
2, 100800, Note_on_c, 0, 75, 55
2, 100920, Note_on_c, 0, 75, 0
2, 101040, Note_on_c, 0, 78, 55
2, 101160, Note_on_c, 0, 78, 0
2, 101280, Note_on_c, 0, 76, 59
2, 101360, Note_on_c, 0, 76, 0
2, 101360, Note_on_c, 0, 78, 55
2, 101440, Note_on_c, 0, 78, 0
2, 101440, Note_on_c, 0, 76, 55
2, 101520, Note_on_c, 0, 76, 0
2, 101520, Note_on_c, 0, 72, 59
2, 101640, Note_on_c, 0, 72, 0
2, 101760, Note_on_c, 0, 81, 55
2, 101880, Note_on_c, 0, 81, 0
2, 102000, Note_on_c, 0, 71, 58
2, 102120, Note_on_c, 0, 71, 0
2, 102240, Note_on_c, 0, 75, 55
2, 102360, Note_on_c, 0, 75, 0
2, 102480, Note_on_c, 0, 78, 55
2, 102600, Note_on_c, 0, 78, 0
2, 102720, Note_on_c, 0, 72, 63
2, 102840, Note_on_c, 0, 72, 0
2, 102960, Note_on_c, 0, 79, 58
2, 103080, Note_on_c, 0, 79, 0
2, 103200, Note_on_c, 0, 84, 59
2, 103320, Note_on_c, 0, 84, 0
2, 103440, Note_on_c, 0, 78, 71
2, 103560, Note_on_c, 0, 78, 0
2, 103680, Note_on_c, 0, 83, 61
2, 103800, Note_on_c, 0, 83, 0
2, 103920, Note_on_c, 0, 90, 63
2, 104040, Note_on_c, 0, 90, 0
2, 104160, Note_on_c, 0, 88, 74
2, 104400, Note_on_c, 0, 88, 0
2, 104400, Note_on_c, 0, 93, 75
2, 104640, Note_on_c, 0, 93, 0
2, 104640, Note_on_c, 0, 100, 80
2, 104820, Note_on_c, 0, 87, 67
2, 104850, Note_on_c, 0, 95, 74
2, 104880, Note_on_c, 0, 100, 0
2, 104880, Note_on_c, 0, 102, 88
2, 105120, Note_on_c, 0, 102, 0
2, 105120, Note_on_c, 0, 95, 0
2, 105120, Note_on_c, 0, 87, 0
2, 105120, Note_on_c, 0, 75, 72
2, 105240, Note_on_c, 0, 75, 0
2, 105360, Note_on_c, 0, 78, 71
2, 105480, Note_on_c, 0, 78, 0
2, 105600, Note_on_c, 0, 76, 77
2, 105680, Note_on_c, 0, 76, 0
2, 105680, Note_on_c, 0, 78, 70
2, 105760, Note_on_c, 0, 78, 0
2, 105760, Note_on_c, 0, 76, 69
2, 105840, Note_on_c, 0, 76, 0
2, 105840, Note_on_c, 0, 72, 77
2, 105960, Note_on_c, 0, 72, 0
2, 106080, Note_on_c, 0, 81, 71
2, 106200, Note_on_c, 0, 81, 0
2, 106320, Note_on_c, 0, 71, 79
2, 106440, Note_on_c, 0, 71, 0
2, 106560, Note_on_c, 0, 75, 72
2, 106680, Note_on_c, 0, 75, 0
2, 106800, Note_on_c, 0, 78, 71
2, 106920, Note_on_c, 0, 78, 0
2, 107040, Note_on_c, 0, 76, 77
2, 107120, Note_on_c, 0, 76, 0
2, 107120, Note_on_c, 0, 78, 70
2, 107200, Note_on_c, 0, 78, 0
2, 107200, Note_on_c, 0, 76, 69
2, 107280, Note_on_c, 0, 76, 0
2, 107280, Note_on_c, 0, 72, 77
2, 107400, Note_on_c, 0, 72, 0
2, 107520, Note_on_c, 0, 81, 71
2, 107640, Note_on_c, 0, 81, 0
2, 108000, Note_on_c, 0, 75, 75
2, 108120, Note_on_c, 0, 75, 0
2, 108240, Note_on_c, 0, 78, 74
2, 108360, Note_on_c, 0, 78, 0
2, 108480, Note_on_c, 0, 76, 56
2, 108480, Note_on_c, 0, 84, 72
2, 108560, Note_on_c, 0, 84, 0
2, 108560, Note_on_c, 0, 86, 66
2, 108640, Note_on_c, 0, 86, 0
2, 108640, Note_on_c, 0, 84, 66
2, 108720, Note_on_c, 0, 84, 0
2, 108720, Note_on_c, 0, 81, 73
2, 108840, Note_on_c, 0, 81, 0
2, 108960, Note_on_c, 0, 84, 67
2, 109080, Note_on_c, 0, 84, 0
2, 109200, Note_on_c, 0, 76, 0
2, 109440, Note_on_c, 0, 75, 75
2, 109560, Note_on_c, 0, 75, 0
2, 109680, Note_on_c, 0, 78, 74
2, 109800, Note_on_c, 0, 78, 0
2, 109920, Note_on_c, 0, 76, 56
2, 109920, Note_on_c, 0, 84, 72
2, 110000, Note_on_c, 0, 84, 0
2, 110000, Note_on_c, 0, 86, 66
2, 110080, Note_on_c, 0, 86, 0
2, 110080, Note_on_c, 0, 84, 66
2, 110160, Note_on_c, 0, 84, 0
2, 110160, Note_on_c, 0, 81, 73
2, 110280, Note_on_c, 0, 81, 0
2, 110400, Note_on_c, 0, 84, 67
2, 110520, Note_on_c, 0, 84, 0
2, 110640, Note_on_c, 0, 76, 0
2, 110880, Note_on_c, 0, 77, 67
2, 110880, Note_on_c, 0, 80, 67
2, 111120, Note_on_c, 0, 80, 0
2, 111120, Note_on_c, 0, 77, 0
2, 111120, Note_on_c, 0, 81, 71
2, 111120, Note_on_c, 0, 76, 71
2, 111360, Note_on_c, 0, 76, 0
2, 111360, Note_on_c, 0, 81, 0
2, 111360, Note_on_c, 0, 75, 67
2, 111360, Note_on_c, 0, 78, 67
2, 111600, Note_on_c, 0, 78, 0
2, 111600, Note_on_c, 0, 75, 0
2, 111600, Note_on_c, 0, 74, 70
2, 111600, Note_on_c, 0, 79, 70
2, 111840, Note_on_c, 0, 79, 0
2, 111840, Note_on_c, 0, 74, 0
2, 111840, Note_on_c, 0, 74, 58
2, 111840, Note_on_c, 0, 72, 58
2, 112080, Note_on_c, 0, 72, 0
2, 112080, Note_on_c, 0, 74, 0
2, 112080, Note_on_c, 0, 74, 71
2, 112080, Note_on_c, 0, 71, 71
2, 112200, Note_on_c, 0, 71, 0
2, 112200, Note_on_c, 0, 74, 0
2, 112320, Note_on_c, 0, 67, 64
2, 112440, Note_on_c, 0, 67, 0
2, 112560, Note_on_c, 0, 71, 62
2, 112680, Note_on_c, 0, 71, 0
2, 112800, Note_on_c, 0, 69, 64
2, 112860, Note_on_c, 0, 69, 0
2, 112920, Note_on_c, 0, 69, 60
2, 112980, Note_on_c, 0, 69, 0
2, 113040, Note_on_c, 0, 76, 66
2, 113160, Note_on_c, 0, 76, 0
2, 113280, Note_on_c, 0, 81, 61
2, 113280, Note_on_c, 0, 76, 61
2, 113400, Note_on_c, 0, 76, 0
2, 113400, Note_on_c, 0, 81, 0
2, 113520, Note_on_c, 0, 83, 61
2, 113640, Note_on_c, 0, 83, 0
2, 113640, Note_on_c, 0, 85, 62
2, 113760, Note_on_c, 0, 85, 0
2, 113760, Note_on_c, 0, 87, 64
2, 113880, Note_on_c, 0, 87, 0
2, 113880, Note_on_c, 0, 88, 66
2, 114000, Note_on_c, 0, 88, 0
2, 114000, Note_on_c, 0, 90, 68
2, 114120, Note_on_c, 0, 90, 0
2, 114120, Note_on_c, 0, 91, 69
2, 114240, Note_on_c, 0, 91, 0
2, 114240, Note_on_c, 0, 93, 71
2, 114480, Note_on_c, 0, 93, 0
2, 114480, Note_on_c, 0, 91, 70
2, 114560, Note_on_c, 0, 91, 0
2, 114560, Note_on_c, 0, 93, 66
2, 114640, Note_on_c, 0, 93, 0
2, 114640, Note_on_c, 0, 91, 66
2, 114720, Note_on_c, 0, 91, 0
2, 114720, Note_on_c, 0, 90, 71
2, 114840, Note_on_c, 0, 90, 0
2, 114840, Note_on_c, 0, 88, 66
2, 114960, Note_on_c, 0, 88, 0
2, 114960, Note_on_c, 0, 90, 69
2, 115080, Note_on_c, 0, 90, 0
2, 115080, Note_on_c, 0, 91, 58
2, 115200, Note_on_c, 0, 91, 0
2, 115200, Note_on_c, 0, 90, 62
2, 115320, Note_on_c, 0, 90, 0
2, 115320, Note_on_c, 0, 86, 60
2, 115440, Note_on_c, 0, 86, 0
2, 115440, Note_on_c, 0, 83, 58
2, 115680, Note_on_c, 0, 83, 0
2, 115680, Note_on_c, 0, 84, 58
2, 115800, Note_on_c, 0, 84, 0
2, 115800, Note_on_c, 0, 86, 60
2, 115920, Note_on_c, 0, 86, 0
2, 115920, Note_on_c, 0, 88, 61
2, 116040, Note_on_c, 0, 88, 0
2, 116040, Note_on_c, 0, 90, 63
2, 116160, Note_on_c, 0, 90, 0
2, 116160, Note_on_c, 0, 91, 66
2, 116280, Note_on_c, 0, 91, 0
2, 116280, Note_on_c, 0, 88, 68
2, 116400, Note_on_c, 0, 88, 0
2, 116400, Note_on_c, 0, 86, 70
2, 116520, Note_on_c, 0, 86, 0
2, 116520, Note_on_c, 0, 88, 69
2, 116640, Note_on_c, 0, 88, 0
2, 116640, Note_on_c, 0, 86, 64
2, 116760, Note_on_c, 0, 86, 0
2, 116760, Note_on_c, 0, 83, 60
2, 116880, Note_on_c, 0, 83, 0
2, 116880, Note_on_c, 0, 79, 59
2, 117000, Note_on_c, 0, 79, 0
2, 117000, Note_on_c, 0, 81, 63
2, 117120, Note_on_c, 0, 81, 0
2, 117120, Note_on_c, 0, 83, 68
2, 117240, Note_on_c, 0, 83, 0
2, 117240, Note_on_c, 0, 86, 67
2, 117360, Note_on_c, 0, 86, 0
2, 117360, Note_on_c, 0, 84, 66
2, 117480, Note_on_c, 0, 84, 0
2, 117480, Note_on_c, 0, 83, 64
2, 117600, Note_on_c, 0, 83, 0
2, 117600, Note_on_c, 0, 84, 62
2, 117720, Note_on_c, 0, 84, 0
2, 117720, Note_on_c, 0, 88, 61
2, 117840, Note_on_c, 0, 88, 0
2, 117920, Note_on_c, 0, 75, 45
2, 117920, Note_on_c, 0, 83, 53
2, 118000, Note_on_c, 0, 83, 0
2, 118000, Note_on_c, 0, 75, 0
2, 118000, Note_on_c, 0, 71, 53
2, 118080, Note_on_c, 0, 71, 0
2, 118160, Note_on_c, 0, 83, 53
2, 118160, Note_on_c, 0, 75, 45
2, 118240, Note_on_c, 0, 75, 0
2, 118240, Note_on_c, 0, 83, 0
2, 118240, Note_on_c, 0, 71, 53
2, 118320, Note_on_c, 0, 71, 0
2, 118400, Note_on_c, 0, 75, 45
2, 118400, Note_on_c, 0, 83, 53
2, 118480, Note_on_c, 0, 83, 0
2, 118480, Note_on_c, 0, 75, 0
2, 118480, Note_on_c, 0, 71, 53
2, 118560, Note_on_c, 0, 71, 0
2, 118640, Note_on_c, 0, 76, 45
2, 118640, Note_on_c, 0, 81, 53
2, 118720, Note_on_c, 0, 81, 0
2, 118720, Note_on_c, 0, 76, 0
2, 118720, Note_on_c, 0, 72, 53
2, 118800, Note_on_c, 0, 72, 0
2, 118880, Note_on_c, 0, 81, 53
2, 118880, Note_on_c, 0, 76, 45
2, 118960, Note_on_c, 0, 76, 0
2, 118960, Note_on_c, 0, 81, 0
2, 118960, Note_on_c, 0, 72, 53
2, 119040, Note_on_c, 0, 72, 0
2, 119120, Note_on_c, 0, 76, 45
2, 119120, Note_on_c, 0, 81, 53
2, 119200, Note_on_c, 0, 81, 0
2, 119200, Note_on_c, 0, 76, 0
2, 119200, Note_on_c, 0, 72, 53
2, 119280, Note_on_c, 0, 72, 0
2, 119360, Note_on_c, 0, 83, 53
2, 119360, Note_on_c, 0, 75, 45
2, 119440, Note_on_c, 0, 75, 0
2, 119440, Note_on_c, 0, 83, 0
2, 119440, Note_on_c, 0, 71, 53
2, 119520, Note_on_c, 0, 71, 0
2, 119600, Note_on_c, 0, 75, 45
2, 119600, Note_on_c, 0, 83, 53
2, 119680, Note_on_c, 0, 83, 0
2, 119680, Note_on_c, 0, 75, 0
2, 119680, Note_on_c, 0, 71, 53
2, 119760, Note_on_c, 0, 71, 0
2, 119840, Note_on_c, 0, 75, 45
2, 119840, Note_on_c, 0, 83, 53
2, 119920, Note_on_c, 0, 83, 0
2, 119920, Note_on_c, 0, 75, 0
2, 119920, Note_on_c, 0, 71, 53
2, 120000, Note_on_c, 0, 71, 0
2, 120080, Note_on_c, 0, 81, 53
2, 120080, Note_on_c, 0, 76, 45
2, 120160, Note_on_c, 0, 76, 0
2, 120160, Note_on_c, 0, 81, 0
2, 120160, Note_on_c, 0, 72, 53
2, 120240, Note_on_c, 0, 72, 0
2, 120320, Note_on_c, 0, 81, 53
2, 120320, Note_on_c, 0, 76, 45
2, 120400, Note_on_c, 0, 76, 0
2, 120400, Note_on_c, 0, 81, 0
2, 120400, Note_on_c, 0, 72, 53
2, 120480, Note_on_c, 0, 72, 0
2, 120560, Note_on_c, 0, 81, 53
2, 120560, Note_on_c, 0, 76, 45
2, 120640, Note_on_c, 0, 76, 0
2, 120640, Note_on_c, 0, 81, 0
2, 120640, Note_on_c, 0, 72, 53
2, 120720, Note_on_c, 0, 72, 0
2, 120800, Note_on_c, 0, 75, 45
2, 120800, Note_on_c, 0, 83, 53
2, 120880, Note_on_c, 0, 83, 0
2, 120880, Note_on_c, 0, 75, 0
2, 120880, Note_on_c, 0, 71, 52
2, 120960, Note_on_c, 0, 71, 0
2, 121040, Note_on_c, 0, 75, 45
2, 121040, Note_on_c, 0, 83, 53
2, 121120, Note_on_c, 0, 83, 0
2, 121120, Note_on_c, 0, 75, 0
2, 121120, Note_on_c, 0, 71, 55
2, 121200, Note_on_c, 0, 71, 0
2, 121280, Note_on_c, 0, 75, 46
2, 121280, Note_on_c, 0, 83, 57
2, 121360, Note_on_c, 0, 83, 0
2, 121360, Note_on_c, 0, 75, 0
2, 121360, Note_on_c, 0, 71, 56
2, 121440, Note_on_c, 0, 71, 0
2, 121520, Note_on_c, 0, 75, 48
2, 121520, Note_on_c, 0, 83, 57
2, 121600, Note_on_c, 0, 83, 0
2, 121600, Note_on_c, 0, 75, 0
2, 121600, Note_on_c, 0, 71, 56
2, 121680, Note_on_c, 0, 71, 0
2, 121760, Note_on_c, 0, 83, 53
2, 121760, Note_on_c, 0, 75, 46
2, 121840, Note_on_c, 0, 75, 0
2, 121840, Note_on_c, 0, 83, 0
2, 121840, Note_on_c, 0, 71, 53
2, 121920, Note_on_c, 0, 71, 0
2, 122000, Note_on_c, 0, 75, 44
2, 122000, Note_on_c, 0, 83, 51
2, 122080, Note_on_c, 0, 83, 0
2, 122080, Note_on_c, 0, 75, 0
2, 122080, Note_on_c, 0, 71, 49
2, 122160, Note_on_c, 0, 71, 0
2, 122240, Note_on_c, 0, 83, 49
2, 122240, Note_on_c, 0, 75, 41
2, 122320, Note_on_c, 0, 75, 0
2, 122320, Note_on_c, 0, 83, 0
2, 122320, Note_on_c, 0, 71, 48
2, 122400, Note_on_c, 0, 71, 0
2, 122480, Note_on_c, 0, 83, 47
2, 122480, Note_on_c, 0, 75, 39
2, 122560, Note_on_c, 0, 75, 0
2, 122560, Note_on_c, 0, 83, 0
2, 122560, Note_on_c, 0, 71, 46
2, 122640, Note_on_c, 0, 71, 0
2, 122720, Note_on_c, 0, 75, 39
2, 122720, Note_on_c, 0, 83, 46
2, 122800, Note_on_c, 0, 83, 0
2, 122800, Note_on_c, 0, 75, 0
2, 122800, Note_on_c, 0, 71, 45
2, 122880, Note_on_c, 0, 71, 0
2, 122960, Note_on_c, 0, 75, 37
2, 122960, Note_on_c, 0, 83, 44
2, 123040, Note_on_c, 0, 83, 0
2, 123040, Note_on_c, 0, 75, 0
2, 123040, Note_on_c, 0, 71, 44
2, 123120, Note_on_c, 0, 71, 0
2, 123200, Note_on_c, 0, 83, 42
2, 123200, Note_on_c, 0, 75, 36
2, 123280, Note_on_c, 0, 75, 0
2, 123280, Note_on_c, 0, 83, 0
2, 123280, Note_on_c, 0, 71, 42
2, 123360, Note_on_c, 0, 71, 0
2, 123440, Note_on_c, 0, 83, 41
2, 123440, Note_on_c, 0, 75, 35
2, 123520, Note_on_c, 0, 75, 0
2, 123520, Note_on_c, 0, 83, 0
2, 123520, Note_on_c, 0, 71, 40
2, 123598, Note_on_c, 0, 71, 0
2, 123600, Note_on_c, 0, 90, 41
2, 123600, Note_on_c, 0, 87, 41
2, 123600, Note_on_c, 0, 99, 41
2, 124320, Note_on_c, 0, 99, 0
2, 124320, Note_on_c, 0, 87, 0
2, 124320, Note_on_c, 0, 90, 0
2, 124320, Note_on_c, 0, 71, 46
2, 124800, Note_on_c, 0, 71, 0
2, 124800, Note_on_c, 0, 69, 49
2, 125280, Note_on_c, 0, 69, 0
2, 125280, Note_on_c, 0, 67, 47
2, 125376, Note_on_c, 0, 67, 0
2, 125400, Note_on_c, 0, 69, 45
2, 125496, Note_on_c, 0, 69, 0
2, 125520, Note_on_c, 0, 71, 46
2, 125616, Note_on_c, 0, 71, 0
2, 125640, Note_on_c, 0, 72, 45
2, 125736, Note_on_c, 0, 72, 0
2, 125760, Note_on_c, 0, 63, 37
2, 125760, Note_on_c, 0, 71, 45
2, 126240, Note_on_c, 0, 71, 0
2, 126240, Note_on_c, 0, 63, 0
2, 126240, Note_on_c, 0, 87, 44
2, 126240, Note_on_c, 0, 78, 36
2, 126240, Note_on_c, 0, 75, 36
2, 127200, Note_on_c, 0, 75, 0
2, 127200, Note_on_c, 0, 78, 0
2, 127200, Note_on_c, 0, 87, 0
2, 127200, End_track
3, 0, Start_track
3, 0, Title_t, "Piano left"
3, 0, Program_c, 0, 0
3, 0, Control_c, 0, 7, 100
3, 0, Control_c, 0, 10, 64
3, 0, Note_on_c, 0, 59, 49
3, 120, Note_on_c, 0, 59, 0
3, 240, Note_on_c, 0, 63, 46
3, 360, Note_on_c, 0, 63, 0
3, 480, Note_on_c, 0, 66, 46
3, 600, Note_on_c, 0, 66, 0
3, 720, Note_on_c, 0, 64, 49
3, 800, Note_on_c, 0, 64, 0
3, 800, Note_on_c, 0, 66, 46
3, 880, Note_on_c, 0, 66, 0
3, 880, Note_on_c, 0, 64, 46
3, 960, Note_on_c, 0, 64, 0
3, 960, Note_on_c, 0, 60, 49
3, 1080, Note_on_c, 0, 60, 0
3, 1200, Note_on_c, 0, 69, 46
3, 1320, Note_on_c, 0, 69, 0
3, 1440, Note_on_c, 0, 59, 49
3, 1560, Note_on_c, 0, 59, 0
3, 1680, Note_on_c, 0, 63, 46
3, 1800, Note_on_c, 0, 63, 0
3, 1920, Note_on_c, 0, 66, 46
3, 2040, Note_on_c, 0, 66, 0
3, 2160, Note_on_c, 0, 64, 49
3, 2240, Note_on_c, 0, 64, 0
3, 2240, Note_on_c, 0, 66, 46
3, 2320, Note_on_c, 0, 66, 0
3, 2320, Note_on_c, 0, 64, 46
3, 2400, Note_on_c, 0, 64, 0
3, 2400, Note_on_c, 0, 60, 49
3, 2520, Note_on_c, 0, 60, 0
3, 2640, Note_on_c, 0, 69, 46
3, 2760, Note_on_c, 0, 69, 0
3, 2820, Note_on_c, 0, 59, 49
3, 2880, Note_on_c, 0, 59, 0
3, 2880, Note_on_c, 0, 66, 49
3, 2920, Control_c, 0, 64, 127
3, 4332, Control_c, 0, 64, 0
3, 4492, Control_c, 0, 64, 127
3, 5280, Note_on_c, 0, 66, 0
3, 5287, Note_on_c, 0, 67, 52
3, 5527, Note_on_c, 0, 67, 0
3, 5534, Note_on_c, 0, 66, 49
3, 5760, Note_on_c, 0, 69, 49
3, 5768, Control_c, 0, 64, 0
3, 5774, Note_on_c, 0, 66, 0
3, 5841, Control_c, 0, 64, 127
3, 6240, Note_on_c, 0, 69, 0
3, 6240, Note_on_c, 0, 67, 49
3, 6320, Note_on_c, 0, 67, 0
3, 6320, Note_on_c, 0, 69, 45
3, 6400, Note_on_c, 0, 69, 0
3, 6400, Note_on_c, 0, 67, 45
3, 6480, Note_on_c, 0, 67, 0
3, 6480, Note_on_c, 0, 66, 49
3, 6487, Control_c, 0, 64, 0
3, 6533, Control_c, 0, 64, 127
3, 7217, Control_c, 0, 64, 0
3, 7343, Control_c, 0, 64, 127
3, 8647, Control_c, 0, 64, 0
3, 8732, Control_c, 0, 64, 127
3, 9360, Note_on_c, 0, 66, 0
3, 9360, Note_on_c, 0, 64, 49
3, 9368, Control_c, 0, 64, 0
3, 9406, Control_c, 0, 64, 127
3, 9960, Note_on_c, 0, 64, 0
3, 9960, Note_on_c, 0, 66, 51
3, 10020, Note_on_c, 0, 66, 0
3, 10020, Note_on_c, 0, 64, 53
3, 10080, Note_on_c, 0, 64, 0
3, 10080, Note_on_c, 0, 62, 56
3, 10093, Control_c, 0, 64, 0
3, 10193, Control_c, 0, 64, 127
3, 10800, Note_on_c, 0, 62, 0
3, 10800, Note_on_c, 0, 60, 60
3, 10800, Note_on_c, 0, 66, 60
3, 10808, Control_c, 0, 64, 0
3, 10857, Control_c, 0, 64, 127
3, 11457, Control_c, 0, 64, 0
3, 11494, Control_c, 0, 64, 127
3, 11520, Note_on_c, 0, 66, 0
3, 11520, Note_on_c, 0, 60, 0
3, 11520, Note_on_c, 0, 59, 70
3, 11760, Note_on_c, 0, 69, 61
3, 11781, Control_c, 0, 64, 0
3, 11880, Note_on_c, 0, 69, 0
3, 12000, Note_on_c, 0, 66, 61
3, 12120, Note_on_c, 0, 66, 0
3, 12240, Note_on_c, 0, 67, 71
3, 12360, Note_on_c, 0, 67, 0
3, 12480, Note_on_c, 0, 64, 64
3, 12600, Note_on_c, 0, 64, 0
3, 12720, Note_on_c, 0, 67, 64
3, 12840, Note_on_c, 0, 67, 0
3, 12960, Note_on_c, 0, 66, 69
3, 13080, Note_on_c, 0, 66, 0
3, 13200, Note_on_c, 0, 69, 61
3, 13320, Note_on_c, 0, 69, 0
3, 13440, Note_on_c, 0, 66, 61
3, 13560, Note_on_c, 0, 66, 0
3, 13680, Note_on_c, 0, 67, 69
3, 13800, Note_on_c, 0, 67, 0
3, 13920, Note_on_c, 0, 64, 64
3, 14040, Note_on_c, 0, 64, 0
3, 14160, Note_on_c, 0, 67, 64
3, 14280, Note_on_c, 0, 67, 0
3, 14400, Note_on_c, 0, 59, 0
3, 14400, Note_on_c, 0, 63, 62
3, 14446, Control_c, 0, 64, 127
3, 14640, Note_on_c, 0, 63, 0
3, 14640, Note_on_c, 0, 62, 61
3, 14880, Note_on_c, 0, 62, 0
3, 14880, Note_on_c, 0, 61, 59
3, 14896, Control_c, 0, 64, 0
3, 15017, Control_c, 0, 64, 127
3, 15120, Note_on_c, 0, 61, 0
3, 15120, Note_on_c, 0, 60, 53
3, 15360, Note_on_c, 0, 60, 0
3, 15360, Note_on_c, 0, 59, 56
3, 15370, Control_c, 0, 64, 0
3, 15463, Control_c, 0, 64, 127
3, 15600, Note_on_c, 0, 59, 0
3, 15600, Note_on_c, 0, 54, 50
3, 15840, Note_on_c, 0, 54, 0
3, 15840, Control_c, 0, 64, 0
3, 15840, Note_on_c, 0, 55, 55
3, 15960, Note_on_c, 0, 55, 0
3, 16080, Note_on_c, 0, 59, 50
3, 16200, Note_on_c, 0, 59, 0
3, 16320, Note_on_c, 0, 55, 50
3, 16440, Note_on_c, 0, 55, 0
3, 16560, Note_on_c, 0, 60, 61
3, 16680, Note_on_c, 0, 60, 0
3, 16800, Note_on_c, 0, 66, 57
3, 16920, Note_on_c, 0, 66, 0
3, 17040, Note_on_c, 0, 60, 57
3, 17160, Note_on_c, 0, 60, 0
3, 17220, Note_on_c, 0, 59, 49
3, 17280, Note_on_c, 0, 59, 0
3, 17280, Note_on_c, 0, 66, 49
3, 17320, Control_c, 0, 64, 127
3, 18730, Control_c, 0, 64, 0
3, 18823, Control_c, 0, 64, 127
3, 19680, Note_on_c, 0, 66, 0
3, 19680, Note_on_c, 0, 67, 52
3, 19920, Note_on_c, 0, 67, 0
3, 19920, Note_on_c, 0, 66, 49
3, 20160, Note_on_c, 0, 66, 0
3, 20160, Note_on_c, 0, 69, 49
3, 20169, Control_c, 0, 64, 0
3, 20241, Control_c, 0, 64, 127
3, 20640, Note_on_c, 0, 69, 0
3, 20640, Note_on_c, 0, 67, 49
3, 20720, Note_on_c, 0, 67, 0
3, 20720, Note_on_c, 0, 69, 45
3, 20800, Note_on_c, 0, 69, 0
3, 20800, Note_on_c, 0, 67, 45
3, 20880, Note_on_c, 0, 67, 0
3, 20880, Note_on_c, 0, 66, 49
3, 20893, Control_c, 0, 64, 0
3, 20933, Control_c, 0, 64, 127
3, 21607, Control_c, 0, 64, 0
3, 21755, Control_c, 0, 64, 127
3, 23051, Control_c, 0, 64, 0
3, 23143, Control_c, 0, 64, 127
3, 23760, Note_on_c, 0, 66, 0
3, 23760, Note_on_c, 0, 64, 49
3, 23771, Control_c, 0, 64, 0
3, 23852, Control_c, 0, 64, 127
3, 24360, Note_on_c, 0, 64, 0
3, 24360, Note_on_c, 0, 66, 51
3, 24420, Note_on_c, 0, 66, 0
3, 24420, Note_on_c, 0, 64, 53
3, 24480, Note_on_c, 0, 64, 0
3, 24480, Note_on_c, 0, 62, 56
3, 24493, Control_c, 0, 64, 0
3, 24678, Control_c, 0, 64, 127
3, 25200, Note_on_c, 0, 62, 0
3, 25200, Note_on_c, 0, 60, 60
3, 25200, Note_on_c, 0, 66, 60
3, 25212, Control_c, 0, 64, 0
3, 25289, Control_c, 0, 64, 127
3, 25920, Note_on_c, 0, 66, 0
3, 25920, Note_on_c, 0, 60, 0
3, 25920, Note_on_c, 0, 59, 70
3, 25931, Control_c, 0, 64, 0
3, 25977, Control_c, 0, 64, 127
3, 26160, Note_on_c, 0, 69, 61
3, 26181, Control_c, 0, 64, 0
3, 26280, Note_on_c, 0, 69, 0
3, 26400, Note_on_c, 0, 66, 61
3, 26520, Note_on_c, 0, 66, 0
3, 26640, Note_on_c, 0, 67, 71
3, 26760, Note_on_c, 0, 67, 0
3, 26880, Note_on_c, 0, 64, 64
3, 27000, Note_on_c, 0, 64, 0
3, 27120, Note_on_c, 0, 67, 64
3, 27240, Note_on_c, 0, 67, 0
3, 27360, Note_on_c, 0, 66, 69
3, 27480, Note_on_c, 0, 66, 0
3, 27600, Note_on_c, 0, 69, 61
3, 27720, Note_on_c, 0, 69, 0
3, 27840, Note_on_c, 0, 66, 61
3, 27960, Note_on_c, 0, 66, 0
3, 28080, Note_on_c, 0, 67, 69
3, 28200, Note_on_c, 0, 67, 0
3, 28320, Note_on_c, 0, 64, 64
3, 28440, Note_on_c, 0, 64, 0
3, 28560, Note_on_c, 0, 67, 64
3, 28680, Note_on_c, 0, 67, 0
3, 28720, Note_on_c, 0, 59, 0
3, 28722, Control_c, 0, 64, 127
3, 28740, Note_on_c, 0, 59, 62
3, 28800, Note_on_c, 0, 59, 0
3, 28800, Note_on_c, 0, 71, 82
3, 29520, Note_on_c, 0, 71, 0
3, 29520, Note_on_c, 0, 69, 61
3, 29529, Control_c, 0, 64, 0
3, 29594, Control_c, 0, 64, 127
3, 29760, Note_on_c, 0, 69, 0
3, 29760, Note_on_c, 0, 66, 56
3, 30000, Note_on_c, 0, 66, 0
3, 30000, Note_on_c, 0, 69, 55
3, 30240, Note_on_c, 0, 69, 0
3, 30240, Note_on_c, 0, 71, 82
3, 30252, Control_c, 0, 64, 0
3, 30377, Control_c, 0, 64, 127
3, 30960, Note_on_c, 0, 71, 0
3, 30960, Note_on_c, 0, 69, 61
3, 30971, Control_c, 0, 64, 0
3, 31024, Control_c, 0, 64, 127
3, 31200, Note_on_c, 0, 69, 0
3, 31200, Note_on_c, 0, 66, 56
3, 31440, Note_on_c, 0, 66, 0
3, 31440, Note_on_c, 0, 69, 55
3, 31680, Note_on_c, 0, 69, 0
3, 31680, Note_on_c, 0, 71, 62
3, 31692, Control_c, 0, 64, 0
3, 31817, Control_c, 0, 64, 127
3, 31920, Note_on_c, 0, 71, 0
3, 31920, Note_on_c, 0, 74, 61
3, 32160, Note_on_c, 0, 74, 0
3, 32160, Note_on_c, 0, 73, 59
3, 32171, Control_c, 0, 64, 0
3, 32263, Control_c, 0, 64, 127
3, 32400, Note_on_c, 0, 73, 0
3, 32400, Note_on_c, 0, 72, 53
3, 32640, Note_on_c, 0, 72, 0
3, 32640, Note_on_c, 0, 71, 56
3, 32652, Control_c, 0, 64, 0
3, 32812, Control_c, 0, 64, 127
3, 32880, Note_on_c, 0, 71, 0
3, 32880, Note_on_c, 0, 66, 50
3, 33120, Note_on_c, 0, 66, 0
3, 33120, Control_c, 0, 64, 0
3, 33120, Note_on_c, 0, 55, 57
3, 33240, Note_on_c, 0, 55, 0
3, 33360, Note_on_c, 0, 59, 51
3, 33480, Note_on_c, 0, 59, 0
3, 33600, Note_on_c, 0, 55, 51
3, 33720, Note_on_c, 0, 55, 0
3, 33840, Note_on_c, 0, 60, 62
3, 33960, Note_on_c, 0, 60, 0
3, 34080, Note_on_c, 0, 66, 59
3, 34200, Note_on_c, 0, 66, 0
3, 34320, Note_on_c, 0, 60, 59
3, 34440, Note_on_c, 0, 60, 0
3, 34560, Note_on_c, 0, 59, 48
3, 34617, Control_c, 0, 64, 127
3, 34680, Note_on_c, 0, 59, 0
3, 34680, Note_on_c, 0, 61, 49
3, 34800, Note_on_c, 0, 61, 0
3, 34800, Note_on_c, 0, 63, 51
3, 34920, Note_on_c, 0, 63, 0
3, 34920, Note_on_c, 0, 64, 52
3, 35040, Note_on_c, 0, 64, 0
3, 35040, Note_on_c, 0, 66, 53
3, 35160, Note_on_c, 0, 66, 0
3, 35160, Note_on_c, 0, 67, 55
3, 35280, Note_on_c, 0, 67, 0
3, 35280, Note_on_c, 0, 69, 57
3, 35297, Control_c, 0, 64, 0
3, 35354, Control_c, 0, 64, 127
3, 35520, Note_on_c, 0, 69, 0
3, 35520, Note_on_c, 0, 67, 56
3, 35600, Note_on_c, 0, 67, 0
3, 35600, Note_on_c, 0, 69, 52
3, 35680, Note_on_c, 0, 69, 0
3, 35680, Note_on_c, 0, 67, 52
3, 35760, Note_on_c, 0, 67, 0
3, 35760, Note_on_c, 0, 66, 57
3, 35880, Note_on_c, 0, 66, 0
3, 35880, Note_on_c, 0, 64, 52
3, 36000, Note_on_c, 0, 64, 0
3, 36000, Note_on_c, 0, 66, 55
3, 36008, Control_c, 0, 64, 0
3, 36092, Control_c, 0, 64, 127
3, 36120, Note_on_c, 0, 66, 0
3, 36120, Note_on_c, 0, 67, 46
3, 36240, Note_on_c, 0, 67, 0
3, 36240, Note_on_c, 0, 66, 49
3, 36360, Note_on_c, 0, 66, 0
3, 36360, Note_on_c, 0, 62, 48
3, 36480, Note_on_c, 0, 62, 0
3, 36480, Note_on_c, 0, 59, 46
3, 36720, Note_on_c, 0, 59, 0
3, 36720, Note_on_c, 0, 60, 46
3, 36731, Control_c, 0, 64, 0
3, 36805, Control_c, 0, 64, 127
3, 36840, Note_on_c, 0, 60, 0
3, 36840, Note_on_c, 0, 62, 48
3, 36960, Note_on_c, 0, 62, 0
3, 36960, Note_on_c, 0, 64, 48
3, 37080, Note_on_c, 0, 64, 0
3, 37080, Note_on_c, 0, 66, 50
3, 37200, Note_on_c, 0, 66, 0
3, 37200, Note_on_c, 0, 67, 52
3, 37320, Note_on_c, 0, 67, 0
3, 37320, Note_on_c, 0, 64, 53
3, 37440, Note_on_c, 0, 64, 0
3, 37440, Note_on_c, 0, 62, 56
3, 37448, Control_c, 0, 64, 0
3, 37525, Control_c, 0, 64, 127
3, 37560, Note_on_c, 0, 62, 0
3, 37560, Note_on_c, 0, 64, 55
3, 37680, Note_on_c, 0, 64, 0
3, 37680, Note_on_c, 0, 62, 51
3, 37800, Note_on_c, 0, 62, 0
3, 37800, Note_on_c, 0, 59, 48
3, 37920, Note_on_c, 0, 59, 0
3, 37920, Note_on_c, 0, 55, 47
3, 37929, Control_c, 0, 64, 0
3, 38026, Control_c, 0, 64, 127
3, 38040, Note_on_c, 0, 55, 0
3, 38040, Note_on_c, 0, 57, 50
3, 38160, Note_on_c, 0, 57, 0
3, 38160, Note_on_c, 0, 59, 53
3, 38280, Note_on_c, 0, 59, 0
3, 38280, Note_on_c, 0, 62, 52
3, 38400, Note_on_c, 0, 62, 0
3, 38400, Note_on_c, 0, 60, 52
3, 38520, Note_on_c, 0, 60, 0
3, 38520, Note_on_c, 0, 59, 51
3, 38640, Note_on_c, 0, 59, 0
3, 38640, Note_on_c, 0, 60, 49
3, 38760, Note_on_c, 0, 60, 0
3, 38760, Note_on_c, 0, 64, 48
3, 38880, Note_on_c, 0, 64, 0
3, 38880, Note_on_c, 0, 59, 59
3, 38897, Control_c, 0, 64, 0
3, 38922, Control_c, 0, 64, 127
3, 39000, Note_on_c, 0, 59, 0
3, 39120, Note_on_c, 0, 66, 53
3, 39240, Note_on_c, 0, 66, 0
3, 39360, Note_on_c, 0, 75, 66
3, 39420, Note_on_c, 0, 75, 0
3, 39600, Note_on_c, 0, 59, 57
3, 39609, Control_c, 0, 64, 0
3, 39635, Control_c, 0, 64, 127
3, 39720, Note_on_c, 0, 59, 0
3, 39840, Note_on_c, 0, 66, 53
3, 39960, Note_on_c, 0, 66, 0
3, 40080, Note_on_c, 0, 76, 53
3, 40140, Note_on_c, 0, 76, 0
3, 40320, Note_on_c, 0, 59, 59
3, 40338, Control_c, 0, 64, 0
3, 40362, Control_c, 0, 64, 127
3, 40440, Note_on_c, 0, 59, 0
3, 40560, Note_on_c, 0, 66, 53
3, 40680, Note_on_c, 0, 66, 0
3, 40800, Note_on_c, 0, 75, 66
3, 40860, Note_on_c, 0, 75, 0
3, 41040, Note_on_c, 0, 59, 57
3, 41057, Control_c, 0, 64, 0
3, 41120, Control_c, 0, 64, 127
3, 41160, Note_on_c, 0, 59, 0
3, 41280, Note_on_c, 0, 66, 53
3, 41400, Note_on_c, 0, 66, 0
3, 41520, Note_on_c, 0, 76, 53
3, 41580, Note_on_c, 0, 76, 0
3, 41760, Note_on_c, 0, 59, 59
3, 41777, Control_c, 0, 64, 0
3, 41802, Control_c, 0, 64, 127
3, 41880, Note_on_c, 0, 59, 0
3, 42000, Note_on_c, 0, 66, 55
3, 42120, Note_on_c, 0, 66, 0
3, 42240, Note_on_c, 0, 75, 68
3, 42300, Note_on_c, 0, 75, 0
3, 42480, Note_on_c, 0, 78, 64
3, 42600, Note_on_c, 0, 78, 0
3, 42720, Note_on_c, 0, 75, 55
3, 42780, Note_on_c, 0, 75, 0
3, 42960, Note_on_c, 0, 78, 53
3, 43080, Note_on_c, 0, 78, 0
3, 43200, Note_on_c, 0, 75, 55
3, 43260, Note_on_c, 0, 75, 0
3, 43440, Note_on_c, 0, 78, 47
3, 43560, Note_on_c, 0, 78, 0
3, 43680, Note_on_c, 0, 75, 47
3, 43740, Note_on_c, 0, 75, 0
3, 43920, Note_on_c, 0, 78, 50
3, 44040, Note_on_c, 0, 78, 0
3, 44160, Note_on_c, 0, 75, 42
3, 44220, Note_on_c, 0, 75, 0
3, 44400, Note_on_c, 0, 78, 42
3, 44520, Note_on_c, 0, 78, 0
3, 44640, Note_on_c, 0, 83, 37
3, 44640, Note_on_c, 0, 78, 37
3, 44640, Note_on_c, 0, 71, 37
3, 44643, Control_c, 0, 64, 0
3, 44814, Control_c, 0, 64, 127
3, 45360, Note_on_c, 0, 71, 0
3, 45360, Note_on_c, 0, 78, 0
3, 45360, Note_on_c, 0, 83, 0
3, 45360, Control_c, 0, 64, 0
3, 45530, Control_c, 0, 64, 127
3, 48258, Control_c, 0, 64, 0
3, 48356, Control_c, 0, 64, 127
3, 49216, Control_c, 0, 64, 0
3, 49334, Control_c, 0, 64, 127
3, 49680, Note_on_c, 0, 43, 32
3, 49690, Control_c, 0, 64, 0
3, 49793, Control_c, 0, 64, 127
3, 49800, Note_on_c, 0, 43, 0
3, 49800, Note_on_c, 0, 50, 29
3, 49920, Note_on_c, 0, 50, 0
3, 49920, Note_on_c, 0, 55, 29
3, 50040, Note_on_c, 0, 55, 0
3, 50040, Note_on_c, 0, 59, 29
3, 50160, Note_on_c, 0, 59, 0
3, 50160, Note_on_c, 0, 62, 32
3, 50280, Note_on_c, 0, 62, 0
3, 50280, Note_on_c, 0, 67, 27
3, 50400, Note_on_c, 0, 67, 0
3, 50400, Note_on_c, 0, 71, 27
3, 50520, Note_on_c, 0, 71, 0
3, 50520, Note_on_c, 0, 74, 27
3, 50640, Note_on_c, 0, 74, 0
3, 50640, Note_on_c, 0, 79, 30
3, 50760, Note_on_c, 0, 79, 0
3, 50760, Note_on_c, 0, 83, 27
3, 50880, Note_on_c, 0, 83, 0
3, 50880, Note_on_c, 0, 86, 27
3, 51000, Note_on_c, 0, 86, 0
3, 51000, Note_on_c, 0, 91, 27
3, 51120, Note_on_c, 0, 91, 0
3, 51120, Control_c, 0, 64, 0
3, 51346, Control_c, 0, 64, 127
3, 54017, Control_c, 0, 64, 0
3, 54184, Control_c, 0, 64, 127
3, 54499, Control_c, 0, 64, 0
3, 54649, Control_c, 0, 64, 127
3, 55440, Note_on_c, 0, 36, 32
3, 55448, Control_c, 0, 64, 0
3, 55553, Control_c, 0, 64, 127
3, 55560, Note_on_c, 0, 36, 0
3, 55560, Note_on_c, 0, 43, 29
3, 55680, Note_on_c, 0, 43, 0
3, 55680, Note_on_c, 0, 48, 29
3, 55800, Note_on_c, 0, 48, 0
3, 55800, Note_on_c, 0, 52, 29
3, 55920, Note_on_c, 0, 52, 0
3, 55920, Note_on_c, 0, 55, 32
3, 56040, Note_on_c, 0, 55, 0
3, 56040, Note_on_c, 0, 60, 27
3, 56160, Note_on_c, 0, 60, 0
3, 56160, Note_on_c, 0, 64, 27
3, 56280, Note_on_c, 0, 64, 0
3, 56280, Note_on_c, 0, 67, 27
3, 56400, Note_on_c, 0, 67, 0
3, 56400, Note_on_c, 0, 72, 30
3, 56520, Note_on_c, 0, 72, 0
3, 56520, Note_on_c, 0, 76, 27
3, 56640, Note_on_c, 0, 76, 0
3, 56640, Note_on_c, 0, 79, 27
3, 56760, Note_on_c, 0, 79, 0
3, 56760, Note_on_c, 0, 84, 27
3, 56880, Note_on_c, 0, 84, 0
3, 56880, Control_c, 0, 64, 0
3, 57064, Control_c, 0, 64, 127
3, 59779, Control_c, 0, 64, 0
3, 59876, Control_c, 0, 64, 127
3, 60259, Control_c, 0, 64, 0
3, 60360, Control_c, 0, 64, 127
3, 61200, Note_on_c, 0, 43, 32
3, 61208, Control_c, 0, 64, 0
3, 61320, Note_on_c, 0, 43, 0
3, 61320, Note_on_c, 0, 50, 29
3, 61348, Control_c, 0, 64, 127
3, 61440, Note_on_c, 0, 50, 0
3, 61440, Note_on_c, 0, 55, 29
3, 61560, Note_on_c, 0, 55, 0
3, 61560, Note_on_c, 0, 59, 29
3, 61680, Note_on_c, 0, 59, 0
3, 61680, Note_on_c, 0, 62, 32
3, 61800, Note_on_c, 0, 62, 0
3, 61800, Note_on_c, 0, 67, 27
3, 61920, Note_on_c, 0, 67, 0
3, 61920, Note_on_c, 0, 71, 27
3, 62040, Note_on_c, 0, 71, 0
3, 62040, Note_on_c, 0, 74, 27
3, 62160, Note_on_c, 0, 74, 0
3, 62160, Note_on_c, 0, 79, 30
3, 62280, Note_on_c, 0, 79, 0
3, 62280, Note_on_c, 0, 83, 27
3, 62400, Note_on_c, 0, 83, 0
3, 62400, Note_on_c, 0, 86, 27
3, 62520, Note_on_c, 0, 86, 0
3, 62520, Note_on_c, 0, 91, 27
3, 62640, Note_on_c, 0, 91, 0
3, 62640, Control_c, 0, 64, 0
3, 62880, Control_c, 0, 64, 127
3, 65536, Control_c, 0, 64, 0
3, 65598, Control_c, 0, 64, 127
3, 66016, Control_c, 0, 64, 0
3, 66169, Control_c, 0, 64, 127
3, 66960, Note_on_c, 0, 38, 32
3, 66965, Control_c, 0, 64, 0
3, 67052, Control_c, 0, 64, 127
3, 67080, Note_on_c, 0, 38, 0
3, 67080, Note_on_c, 0, 45, 29
3, 67200, Note_on_c, 0, 45, 0
3, 67200, Note_on_c, 0, 50, 29
3, 67320, Note_on_c, 0, 50, 0
3, 67320, Note_on_c, 0, 54, 29
3, 67440, Note_on_c, 0, 54, 0
3, 67440, Note_on_c, 0, 57, 32
3, 67560, Note_on_c, 0, 57, 0
3, 67560, Note_on_c, 0, 62, 27
3, 67680, Note_on_c, 0, 62, 0
3, 67680, Note_on_c, 0, 66, 27
3, 67800, Note_on_c, 0, 66, 0
3, 67800, Note_on_c, 0, 69, 27
3, 67920, Note_on_c, 0, 69, 0
3, 67920, Note_on_c, 0, 74, 30
3, 68040, Note_on_c, 0, 74, 0
3, 68040, Note_on_c, 0, 78, 27
3, 68160, Note_on_c, 0, 78, 0
3, 68160, Note_on_c, 0, 81, 27
3, 68280, Note_on_c, 0, 81, 0
3, 68280, Note_on_c, 0, 84, 27
3, 68400, Note_on_c, 0, 84, 0
3, 68414, Control_c, 0, 64, 0
3, 68506, Control_c, 0, 64, 127
3, 68892, Control_c, 0, 64, 0
3, 68944, Control_c, 0, 64, 127
3, 69375, Control_c, 0, 64, 0
3, 69403, Control_c, 0, 64, 127
3, 69854, Control_c, 0, 64, 0
3, 69918, Control_c, 0, 64, 127
3, 70331, Control_c, 0, 64, 0
3, 70518, Control_c, 0, 64, 127
3, 71280, Note_on_c, 0, 43, 32
3, 71289, Control_c, 0, 64, 0
3, 71400, Note_on_c, 0, 43, 0
3, 71400, Note_on_c, 0, 50, 29
3, 71428, Control_c, 0, 64, 127
3, 71520, Note_on_c, 0, 50, 0
3, 71520, Note_on_c, 0, 55, 29
3, 71640, Note_on_c, 0, 55, 0
3, 71640, Note_on_c, 0, 59, 29
3, 71760, Note_on_c, 0, 59, 0
3, 71760, Note_on_c, 0, 62, 32
3, 71880, Note_on_c, 0, 62, 0
3, 71880, Note_on_c, 0, 67, 27
3, 72000, Note_on_c, 0, 67, 0
3, 72000, Note_on_c, 0, 71, 27
3, 72120, Note_on_c, 0, 71, 0
3, 72120, Note_on_c, 0, 74, 27
3, 72240, Note_on_c, 0, 74, 0
3, 72240, Note_on_c, 0, 79, 30
3, 72360, Note_on_c, 0, 79, 0
3, 72360, Note_on_c, 0, 83, 27
3, 72480, Note_on_c, 0, 83, 0
3, 72480, Note_on_c, 0, 86, 27
3, 72600, Note_on_c, 0, 86, 0
3, 72600, Note_on_c, 0, 91, 27
3, 72720, Note_on_c, 0, 91, 0
3, 72729, Control_c, 0, 64, 0
3, 73014, Control_c, 0, 64, 127
3, 74160, Note_on_c, 0, 45, 42
3, 74169, Control_c, 0, 64, 0
3, 74238, Control_c, 0, 64, 127
3, 74280, Note_on_c, 0, 45, 0
3, 74280, Note_on_c, 0, 54, 38
3, 74400, Note_on_c, 0, 54, 0
3, 74400, Note_on_c, 0, 57, 38
3, 74520, Note_on_c, 0, 57, 0
3, 74520, Note_on_c, 0, 60, 38
3, 74640, Note_on_c, 0, 60, 0
3, 75120, Note_on_c, 0, 76, 48
3, 75240, Note_on_c, 0, 76, 0
3, 75240, Note_on_c, 0, 78, 41
3, 75360, Note_on_c, 0, 78, 0
3, 75360, Note_on_c, 0, 81, 42
3, 75480, Note_on_c, 0, 81, 0
3, 75480, Note_on_c, 0, 84, 42
3, 75600, Note_on_c, 0, 84, 0
3, 76095, Control_c, 0, 64, 0
3, 76175, Control_c, 0, 64, 127
3, 77532, Control_c, 0, 64, 0
3, 77569, Control_c, 0, 64, 127
3, 78498, Control_c, 0, 64, 0
3, 78523, Control_c, 0, 64, 127
3, 78960, Control_c, 0, 64, 0
3, 78960, Note_on_c, 0, 59, 49
3, 79080, Note_on_c, 0, 59, 0
3, 79200, Note_on_c, 0, 63, 46
3, 79320, Note_on_c, 0, 63, 0
3, 79440, Note_on_c, 0, 66, 46
3, 79560, Note_on_c, 0, 66, 0
3, 79680, Note_on_c, 0, 64, 49
3, 79760, Note_on_c, 0, 64, 0
3, 79760, Note_on_c, 0, 66, 46
3, 79840, Note_on_c, 0, 66, 0
3, 79840, Note_on_c, 0, 64, 46
3, 79920, Note_on_c, 0, 64, 0
3, 79920, Note_on_c, 0, 60, 49
3, 80040, Note_on_c, 0, 60, 0
3, 80160, Note_on_c, 0, 69, 46
3, 80280, Note_on_c, 0, 69, 0
3, 80400, Note_on_c, 0, 59, 49
3, 80520, Note_on_c, 0, 59, 0
3, 80640, Note_on_c, 0, 63, 46
3, 80760, Note_on_c, 0, 63, 0
3, 80880, Note_on_c, 0, 66, 46
3, 81000, Note_on_c, 0, 66, 0
3, 81120, Note_on_c, 0, 64, 49
3, 81200, Note_on_c, 0, 64, 0
3, 81200, Note_on_c, 0, 66, 46
3, 81280, Note_on_c, 0, 66, 0
3, 81280, Note_on_c, 0, 64, 46
3, 81360, Note_on_c, 0, 64, 0
3, 81360, Note_on_c, 0, 60, 49
3, 81480, Note_on_c, 0, 60, 0
3, 81600, Note_on_c, 0, 69, 46
3, 81720, Note_on_c, 0, 69, 0
3, 81780, Note_on_c, 0, 59, 49
3, 81840, Note_on_c, 0, 59, 0
3, 81840, Note_on_c, 0, 66, 49
3, 81880, Control_c, 0, 64, 127
3, 83288, Control_c, 0, 64, 0
3, 83383, Control_c, 0, 64, 127
3, 84240, Note_on_c, 0, 66, 0
3, 84240, Note_on_c, 0, 67, 52
3, 84480, Note_on_c, 0, 67, 0
3, 84480, Note_on_c, 0, 66, 49
3, 84720, Note_on_c, 0, 66, 0
3, 84720, Note_on_c, 0, 69, 49
3, 84727, Control_c, 0, 64, 0
3, 84816, Control_c, 0, 64, 127
3, 85200, Note_on_c, 0, 69, 0
3, 85200, Note_on_c, 0, 67, 49
3, 85280, Note_on_c, 0, 67, 0
3, 85280, Note_on_c, 0, 69, 45
3, 85360, Note_on_c, 0, 69, 0
3, 85360, Note_on_c, 0, 67, 45
3, 85440, Note_on_c, 0, 67, 0
3, 85440, Note_on_c, 0, 66, 49
3, 85447, Control_c, 0, 64, 0
3, 85493, Control_c, 0, 64, 127
3, 86169, Control_c, 0, 64, 0
3, 86309, Control_c, 0, 64, 127
3, 87611, Control_c, 0, 64, 0
3, 87715, Control_c, 0, 64, 127
3, 88320, Note_on_c, 0, 66, 0
3, 88320, Note_on_c, 0, 64, 49
3, 88328, Control_c, 0, 64, 0
3, 88440, Control_c, 0, 64, 127
3, 88920, Note_on_c, 0, 64, 0
3, 88920, Note_on_c, 0, 66, 51
3, 88980, Note_on_c, 0, 66, 0
3, 88980, Note_on_c, 0, 64, 53
3, 89040, Note_on_c, 0, 64, 0
3, 89040, Note_on_c, 0, 62, 56
3, 89048, Control_c, 0, 64, 0
3, 89153, Control_c, 0, 64, 127
3, 89760, Note_on_c, 0, 62, 0
3, 89760, Note_on_c, 0, 60, 60
3, 89760, Note_on_c, 0, 66, 60
3, 89767, Control_c, 0, 64, 0
3, 89817, Control_c, 0, 64, 127
3, 90480, Note_on_c, 0, 66, 0
3, 90480, Note_on_c, 0, 60, 0
3, 90480, Note_on_c, 0, 59, 70
3, 90491, Control_c, 0, 64, 0
3, 90540, Control_c, 0, 64, 127
3, 90720, Note_on_c, 0, 69, 61
3, 90741, Control_c, 0, 64, 0
3, 90840, Note_on_c, 0, 69, 0
3, 90960, Note_on_c, 0, 66, 61
3, 91080, Note_on_c, 0, 66, 0
3, 91200, Note_on_c, 0, 67, 71
3, 91320, Note_on_c, 0, 67, 0
3, 91440, Note_on_c, 0, 64, 64
3, 91560, Note_on_c, 0, 64, 0
3, 91680, Note_on_c, 0, 67, 64
3, 91800, Note_on_c, 0, 67, 0
3, 91920, Note_on_c, 0, 66, 69
3, 92040, Note_on_c, 0, 66, 0
3, 92160, Note_on_c, 0, 69, 61
3, 92280, Note_on_c, 0, 69, 0
3, 92400, Note_on_c, 0, 66, 61
3, 92520, Note_on_c, 0, 66, 0
3, 92640, Note_on_c, 0, 67, 69
3, 92760, Note_on_c, 0, 67, 0
3, 92880, Note_on_c, 0, 64, 64
3, 93000, Note_on_c, 0, 64, 0
3, 93120, Note_on_c, 0, 67, 64
3, 93240, Note_on_c, 0, 67, 0
3, 93360, Note_on_c, 0, 59, 0
3, 93360, Note_on_c, 0, 63, 62
3, 93452, Control_c, 0, 64, 127
3, 93600, Note_on_c, 0, 63, 0
3, 93600, Note_on_c, 0, 62, 61
3, 93840, Note_on_c, 0, 62, 0
3, 93840, Note_on_c, 0, 61, 59
3, 93859, Control_c, 0, 64, 0
3, 93989, Control_c, 0, 64, 127
3, 94080, Note_on_c, 0, 61, 0
3, 94080, Note_on_c, 0, 60, 53
3, 94320, Note_on_c, 0, 60, 0
3, 94320, Note_on_c, 0, 59, 56
3, 94332, Control_c, 0, 64, 0
3, 94457, Control_c, 0, 64, 127
3, 94560, Note_on_c, 0, 59, 0
3, 94560, Note_on_c, 0, 54, 50
3, 94800, Note_on_c, 0, 54, 0
3, 94800, Control_c, 0, 64, 0
3, 94800, Note_on_c, 0, 55, 55
3, 94920, Note_on_c, 0, 55, 0
3, 95040, Note_on_c, 0, 59, 50
3, 95160, Note_on_c, 0, 59, 0
3, 95280, Note_on_c, 0, 55, 50
3, 95400, Note_on_c, 0, 55, 0
3, 95520, Note_on_c, 0, 60, 61
3, 95640, Note_on_c, 0, 60, 0
3, 95760, Note_on_c, 0, 66, 57
3, 95880, Note_on_c, 0, 66, 0
3, 96000, Note_on_c, 0, 60, 57
3, 96120, Note_on_c, 0, 60, 0
3, 96180, Note_on_c, 0, 59, 49
3, 96240, Note_on_c, 0, 59, 0
3, 96240, Note_on_c, 0, 66, 49
3, 96280, Control_c, 0, 64, 127
3, 97689, Control_c, 0, 64, 0
3, 97783, Control_c, 0, 64, 127
3, 98640, Note_on_c, 0, 66, 0
3, 98640, Note_on_c, 0, 67, 52
3, 98880, Note_on_c, 0, 67, 0
3, 98880, Note_on_c, 0, 66, 49
3, 99120, Note_on_c, 0, 66, 0
3, 99120, Note_on_c, 0, 69, 49
3, 99124, Control_c, 0, 64, 0
3, 99205, Control_c, 0, 64, 127
3, 99600, Note_on_c, 0, 69, 0
3, 99600, Note_on_c, 0, 67, 49
3, 99680, Note_on_c, 0, 67, 0
3, 99680, Note_on_c, 0, 69, 45
3, 99760, Note_on_c, 0, 69, 0
3, 99760, Note_on_c, 0, 67, 45
3, 99840, Note_on_c, 0, 67, 0
3, 99840, Note_on_c, 0, 66, 49
3, 99849, Control_c, 0, 64, 0
3, 99893, Control_c, 0, 64, 127
3, 100568, Control_c, 0, 64, 0
3, 100669, Control_c, 0, 64, 127
3, 102010, Control_c, 0, 64, 0
3, 102120, Control_c, 0, 64, 127
3, 102720, Note_on_c, 0, 66, 0
3, 102720, Note_on_c, 0, 64, 49
3, 102738, Control_c, 0, 64, 0
3, 102812, Control_c, 0, 64, 127
3, 103320, Note_on_c, 0, 64, 0
3, 103320, Note_on_c, 0, 66, 51
3, 103380, Note_on_c, 0, 66, 0
3, 103380, Note_on_c, 0, 64, 53
3, 103440, Note_on_c, 0, 64, 0
3, 103440, Note_on_c, 0, 62, 56
3, 103450, Control_c, 0, 64, 0
3, 103588, Control_c, 0, 64, 127
3, 104160, Note_on_c, 0, 62, 0
3, 104160, Note_on_c, 0, 60, 60
3, 104160, Note_on_c, 0, 66, 60
3, 104172, Control_c, 0, 64, 0
3, 104217, Control_c, 0, 64, 127
3, 104880, Note_on_c, 0, 66, 0
3, 104880, Note_on_c, 0, 60, 0
3, 104880, Note_on_c, 0, 59, 70
3, 104887, Control_c, 0, 64, 0
3, 104944, Control_c, 0, 64, 127
3, 105120, Note_on_c, 0, 69, 61
3, 105141, Control_c, 0, 64, 0
3, 105240, Note_on_c, 0, 69, 0
3, 105360, Note_on_c, 0, 66, 61
3, 105480, Note_on_c, 0, 66, 0
3, 105600, Note_on_c, 0, 67, 71
3, 105720, Note_on_c, 0, 67, 0
3, 105840, Note_on_c, 0, 64, 64
3, 105960, Note_on_c, 0, 64, 0
3, 106080, Note_on_c, 0, 67, 64
3, 106200, Note_on_c, 0, 67, 0
3, 106320, Note_on_c, 0, 66, 69
3, 106440, Note_on_c, 0, 66, 0
3, 106560, Note_on_c, 0, 69, 61
3, 106680, Note_on_c, 0, 69, 0
3, 106800, Note_on_c, 0, 66, 61
3, 106920, Note_on_c, 0, 66, 0
3, 107040, Note_on_c, 0, 67, 69
3, 107160, Note_on_c, 0, 67, 0
3, 107280, Note_on_c, 0, 64, 64
3, 107400, Note_on_c, 0, 64, 0
3, 107520, Note_on_c, 0, 67, 64
3, 107640, Note_on_c, 0, 67, 0
3, 107680, Note_on_c, 0, 59, 0
3, 107682, Control_c, 0, 64, 127
3, 107700, Note_on_c, 0, 59, 62
3, 107760, Note_on_c, 0, 59, 0
3, 107760, Note_on_c, 0, 71, 82
3, 108480, Note_on_c, 0, 71, 0
3, 108480, Note_on_c, 0, 69, 61
3, 108492, Control_c, 0, 64, 0
3, 108540, Control_c, 0, 64, 127
3, 108720, Note_on_c, 0, 69, 0
3, 108720, Note_on_c, 0, 66, 56
3, 108960, Note_on_c, 0, 66, 0
3, 108960, Note_on_c, 0, 69, 55
3, 109200, Note_on_c, 0, 69, 0
3, 109200, Note_on_c, 0, 71, 82
3, 109213, Control_c, 0, 64, 0
3, 109297, Control_c, 0, 64, 127
3, 109920, Note_on_c, 0, 71, 0
3, 109920, Note_on_c, 0, 69, 61
3, 109931, Control_c, 0, 64, 0
3, 109970, Control_c, 0, 64, 127
3, 110160, Note_on_c, 0, 69, 0
3, 110160, Note_on_c, 0, 66, 56
3, 110400, Note_on_c, 0, 66, 0
3, 110400, Note_on_c, 0, 69, 55
3, 110640, Note_on_c, 0, 69, 0
3, 110640, Note_on_c, 0, 71, 62
3, 110651, Control_c, 0, 64, 0
3, 110766, Control_c, 0, 64, 127
3, 110880, Note_on_c, 0, 71, 0
3, 110880, Note_on_c, 0, 74, 61
3, 111120, Note_on_c, 0, 74, 0
3, 111120, Note_on_c, 0, 73, 59
3, 111127, Control_c, 0, 64, 0
3, 111235, Control_c, 0, 64, 127
3, 111360, Note_on_c, 0, 73, 0
3, 111360, Note_on_c, 0, 72, 53
3, 111600, Note_on_c, 0, 72, 0
3, 111600, Note_on_c, 0, 71, 56
3, 111615, Control_c, 0, 64, 0
3, 111715, Control_c, 0, 64, 127
3, 111840, Note_on_c, 0, 71, 0
3, 111840, Note_on_c, 0, 66, 50
3, 112080, Note_on_c, 0, 66, 0
3, 112080, Note_on_c, 0, 55, 57
3, 112094, Control_c, 0, 64, 0
3, 112200, Note_on_c, 0, 55, 0
3, 112320, Note_on_c, 0, 59, 51
3, 112440, Note_on_c, 0, 59, 0
3, 112560, Note_on_c, 0, 55, 51
3, 112680, Note_on_c, 0, 55, 0
3, 112800, Note_on_c, 0, 60, 62
3, 112920, Note_on_c, 0, 60, 0
3, 113040, Note_on_c, 0, 66, 59
3, 113160, Note_on_c, 0, 66, 0
3, 113280, Note_on_c, 0, 60, 59
3, 113400, Note_on_c, 0, 60, 0
3, 113520, Note_on_c, 0, 59, 48
3, 113583, Control_c, 0, 64, 127
3, 113640, Note_on_c, 0, 59, 0
3, 113640, Note_on_c, 0, 61, 49
3, 113760, Note_on_c, 0, 61, 0
3, 113760, Note_on_c, 0, 63, 51
3, 113880, Note_on_c, 0, 63, 0
3, 113880, Note_on_c, 0, 64, 52
3, 114000, Note_on_c, 0, 64, 0
3, 114000, Note_on_c, 0, 66, 53
3, 114120, Note_on_c, 0, 66, 0
3, 114120, Note_on_c, 0, 67, 55
3, 114240, Note_on_c, 0, 67, 0
3, 114240, Note_on_c, 0, 69, 57
3, 114256, Control_c, 0, 64, 0
3, 114314, Control_c, 0, 64, 127
3, 114480, Note_on_c, 0, 69, 0
3, 114480, Note_on_c, 0, 67, 56
3, 114560, Note_on_c, 0, 67, 0
3, 114560, Note_on_c, 0, 69, 52
3, 114640, Note_on_c, 0, 69, 0
3, 114640, Note_on_c, 0, 67, 52
3, 114720, Note_on_c, 0, 67, 0
3, 114720, Note_on_c, 0, 66, 57
3, 114840, Note_on_c, 0, 66, 0
3, 114840, Note_on_c, 0, 64, 52
3, 114960, Note_on_c, 0, 64, 0
3, 114960, Note_on_c, 0, 66, 55
3, 114972, Control_c, 0, 64, 0
3, 115073, Control_c, 0, 64, 127
3, 115080, Note_on_c, 0, 66, 0
3, 115080, Note_on_c, 0, 67, 46
3, 115200, Note_on_c, 0, 67, 0
3, 115200, Note_on_c, 0, 66, 49
3, 115320, Note_on_c, 0, 66, 0
3, 115320, Note_on_c, 0, 62, 48
3, 115440, Note_on_c, 0, 62, 0
3, 115440, Note_on_c, 0, 59, 46
3, 115680, Note_on_c, 0, 59, 0
3, 115680, Note_on_c, 0, 60, 46
3, 115692, Control_c, 0, 64, 0
3, 115758, Control_c, 0, 64, 127
3, 115800, Note_on_c, 0, 60, 0
3, 115800, Note_on_c, 0, 62, 48
3, 115920, Note_on_c, 0, 62, 0
3, 115920, Note_on_c, 0, 64, 48
3, 116040, Note_on_c, 0, 64, 0
3, 116040, Note_on_c, 0, 66, 50
3, 116160, Note_on_c, 0, 66, 0
3, 116160, Note_on_c, 0, 67, 52
3, 116280, Note_on_c, 0, 67, 0
3, 116280, Note_on_c, 0, 64, 53
3, 116400, Note_on_c, 0, 64, 0
3, 116400, Note_on_c, 0, 62, 56
3, 116412, Control_c, 0, 64, 0
3, 116499, Control_c, 0, 64, 127
3, 116520, Note_on_c, 0, 62, 0
3, 116520, Note_on_c, 0, 64, 55
3, 116640, Note_on_c, 0, 64, 0
3, 116640, Note_on_c, 0, 62, 51
3, 116760, Note_on_c, 0, 62, 0
3, 116760, Note_on_c, 0, 59, 48
3, 116880, Note_on_c, 0, 59, 0
3, 116880, Note_on_c, 0, 55, 47
3, 116891, Control_c, 0, 64, 0
3, 116979, Control_c, 0, 64, 127
3, 117000, Note_on_c, 0, 55, 0
3, 117000, Note_on_c, 0, 57, 50
3, 117120, Note_on_c, 0, 57, 0
3, 117120, Note_on_c, 0, 59, 53
3, 117240, Note_on_c, 0, 59, 0
3, 117240, Note_on_c, 0, 62, 52
3, 117360, Note_on_c, 0, 62, 0
3, 117360, Note_on_c, 0, 60, 52
3, 117480, Note_on_c, 0, 60, 0
3, 117480, Note_on_c, 0, 59, 51
3, 117600, Note_on_c, 0, 59, 0
3, 117600, Note_on_c, 0, 60, 49
3, 117720, Note_on_c, 0, 60, 0
3, 117720, Note_on_c, 0, 64, 48
3, 117840, Note_on_c, 0, 64, 0
3, 117840, Note_on_c, 0, 59, 59
3, 117859, Control_c, 0, 64, 0
3, 117882, Control_c, 0, 64, 127
3, 117960, Note_on_c, 0, 59, 0
3, 118080, Note_on_c, 0, 66, 53
3, 118200, Note_on_c, 0, 66, 0
3, 118320, Note_on_c, 0, 75, 66
3, 118380, Note_on_c, 0, 75, 0
3, 118560, Note_on_c, 0, 59, 57
3, 118572, Control_c, 0, 64, 0
3, 118620, Control_c, 0, 64, 127
3, 118680, Note_on_c, 0, 59, 0
3, 118800, Note_on_c, 0, 66, 53
3, 118920, Note_on_c, 0, 66, 0
3, 119040, Note_on_c, 0, 76, 53
3, 119100, Note_on_c, 0, 76, 0
3, 119280, Note_on_c, 0, 59, 59
3, 119299, Control_c, 0, 64, 0
3, 119322, Control_c, 0, 64, 127
3, 119400, Note_on_c, 0, 59, 0
3, 119520, Note_on_c, 0, 66, 53
3, 119640, Note_on_c, 0, 66, 0
3, 119760, Note_on_c, 0, 75, 66
3, 119820, Note_on_c, 0, 75, 0
3, 120000, Note_on_c, 0, 59, 57
3, 120019, Control_c, 0, 64, 0
3, 120080, Control_c, 0, 64, 127
3, 120120, Note_on_c, 0, 59, 0
3, 120240, Note_on_c, 0, 66, 53
3, 120360, Note_on_c, 0, 66, 0
3, 120480, Note_on_c, 0, 76, 53
3, 120540, Note_on_c, 0, 76, 0
3, 120720, Note_on_c, 0, 59, 59
3, 120738, Control_c, 0, 64, 0
3, 120762, Control_c, 0, 64, 127
3, 120840, Note_on_c, 0, 59, 0
3, 120960, Note_on_c, 0, 66, 55
3, 121080, Note_on_c, 0, 66, 0
3, 121200, Note_on_c, 0, 75, 68
3, 121260, Note_on_c, 0, 75, 0
3, 121440, Note_on_c, 0, 78, 64
3, 121560, Note_on_c, 0, 78, 0
3, 121680, Note_on_c, 0, 75, 55
3, 121740, Note_on_c, 0, 75, 0
3, 121920, Note_on_c, 0, 78, 53
3, 122040, Note_on_c, 0, 78, 0
3, 122160, Note_on_c, 0, 75, 55
3, 122220, Note_on_c, 0, 75, 0
3, 122400, Note_on_c, 0, 78, 47
3, 122520, Note_on_c, 0, 78, 0
3, 122640, Note_on_c, 0, 75, 47
3, 122700, Note_on_c, 0, 75, 0
3, 122880, Note_on_c, 0, 78, 50
3, 123000, Note_on_c, 0, 78, 0
3, 123120, Note_on_c, 0, 75, 42
3, 123180, Note_on_c, 0, 75, 0
3, 123360, Note_on_c, 0, 78, 42
3, 123480, Note_on_c, 0, 78, 0
3, 123600, Control_c, 0, 64, 0
3, 123600, Note_on_c, 0, 83, 37
3, 123600, Note_on_c, 0, 78, 37
3, 123600, Note_on_c, 0, 71, 37
3, 123774, Control_c, 0, 64, 127
3, 124318, Note_on_c, 0, 71, 0
3, 124320, Note_on_c, 0, 78, 0
3, 124320, Note_on_c, 0, 83, 0
3, 124320, Note_on_c, 0, 48, 49
3, 124323, Control_c, 0, 64, 0
3, 124359, Control_c, 0, 64, 127
3, 124416, Note_on_c, 0, 48, 0
3, 124416, Note_on_c, 0, 54, 44
3, 124512, Note_on_c, 0, 54, 0
3, 124512, Note_on_c, 0, 60, 40
3, 124608, Note_on_c, 0, 60, 0
3, 124608, Note_on_c, 0, 64, 44
3, 124704, Note_on_c, 0, 64, 0
3, 124704, Note_on_c, 0, 66, 47
3, 124800, Note_on_c, 0, 66, 0
3, 125294, Control_c, 0, 64, 0
3, 125368, Control_c, 0, 64, 127
3, 125760, Note_on_c, 0, 47, 27
3, 125760, Note_on_c, 0, 54, 32
3, 125772, Control_c, 0, 64, 0
3, 126035, Control_c, 0, 64, 127
3, 126240, Note_on_c, 0, 54, 0
3, 126240, Note_on_c, 0, 47, 0
3, 126240, Note_on_c, 0, 59, 27
3, 126240, Note_on_c, 0, 66, 27
3, 126240, Note_on_c, 0, 71, 32
3, 127200, Note_on_c, 0, 71, 0
3, 127200, Note_on_c, 0, 66, 0
3, 127200, Note_on_c, 0, 59, 0
3, 128187, Control_c, 0, 64, 0
3, 128187, End_track
4, 0, Start_track
4, 0, Title_t, "Albeniz :Espana Op. 165 Malaguena"
4, 0, End_track
5, 0, Start_track
5, 0, Title_t, "Copyright © 2001 by Bernd Krüger"
5, 0, End_track
6, 0, Start_track
6, 0, Title_t, "http://www.piano-midi.de"
6, 0, End_track
7, 0, Start_track
7, 0, Title_t, "Edition: 2010-08-30"
7, 0, End_track
8, 0, Start_track
8, 0, Title_t, "Spur 7"
8, 0, End_track
0, 0, End_of_file
