0, 0, Header, 1, 9, 480
1, 0, Start_track
1, 0, Title_t, "Petite Suite"
1, 0, Title_t, "4. Mazurka"
1, 0, Copyright_t, "Copyright © 2000 by Bernd Krueger"
1, 0, Text_t, "Alexander Borodin"
1, 0, Text_t, "Fertiggestellt am 25.6.2000\012"
1, 0, Text_t, "Normierung: 23.12.2002\012"
1, 0, Text_t, "Dauer: 3:12 Minuten\012"
1, 0, SMPTE_offset, 96, 0, 3, 0, 0
1, 0, Time_signature, 3, 2, 24, 8
1, 0, Key_signature, -5, "major"
1, 0, Tempo, 478088
1, 0, Marker_t, "Allegretto"
1, 480, Tempo, 480000
1, 960, Tempo, 468750
1, 1200, Tempo, 454545
1, 1440, Tempo, 458015
1, 1920, Tempo, 470588
1, 2400, Tempo, 449438
1, 2640, Tempo, 466926
1, 2880, Tempo, 458015
1, 3240, Tempo, 474308
1, 3360, Tempo, 441176
1, 3600, Tempo, 452830
1, 3840, Tempo, 447761
1, 4080, Tempo, 458015
1, 4320, Tempo, 456274
1, 4680, Tempo, 474308
1, 4800, Tempo, 450417
1, 5040, Tempo, 462036
1, 5520, Tempo, 472441
1, 5760, Tempo, 476190
1, 6240, Tempo, 461538
1, 6720, Tempo, 454545
1, 6960, Tempo, 442804
1, 7200, Tempo, 456274
1, 7680, Tempo, 470588
1, 8160, Tempo, 441176
1, 8400, Tempo, 456274
1, 8640, Tempo, 444444
1, 9120, Tempo, 447761
1, 9360, Tempo, 458015
1, 9600, Tempo, 451128
1, 9840, Tempo, 468970
1, 10080, Tempo, 462036
1, 10560, Tempo, 454545
1, 11040, Tempo, 474308
1, 11520, Tempo, 470588
1, 12000, Tempo, 458015
1, 12480, Tempo, 449438
1, 12720, Tempo, 441176
1, 12960, Tempo, 452830
1, 13440, Tempo, 460158
1, 13920, Tempo, 439560
1, 14160, Tempo, 463320
1, 14400, Tempo, 451128
1, 14760, Tempo, 441112
1, 14880, Tempo, 444444
1, 15120, Tempo, 456274
1, 15360, Tempo, 448464
1, 15600, Tempo, 456274
1, 15840, Tempo, 446163
1, 16200, Tempo, 463786
1, 16320, Tempo, 437956
1, 16560, Tempo, 449573
1, 17040, Tempo, 461965
1, 17280, Tempo, 463786
1, 17760, Tempo, 458365
1, 18240, Tempo, 444444
1, 18480, Tempo, 439560
1, 18720, Tempo, 450113
1, 19200, Tempo, 460158
1, 19680, Tempo, 497183
1, 19980, Tempo, 586682
1, 20160, Tempo, 432994
1, 20520, Tempo, 463786
1, 20640, Tempo, 434594
1, 20880, Tempo, 451773
1, 21120, Tempo, 442804
1, 21360, Tempo, 458575
1, 21600, Tempo, 451773
1, 21960, Tempo, 463786
1, 22080, Tempo, 436205
1, 22320, Tempo, 451773
1, 22560, Tempo, 476190
1, 22860, Tempo, 447861
1, 23040, Tempo, 454787
1, 23400, Tempo, 463786
1, 23520, Tempo, 440432
1, 23760, Tempo, 451773
1, 24000, Tempo, 448464
1, 24240, Tempo, 497183
1, 24480, Tempo, 475059
1, 24840, Tempo, 501463
1, 24960, Tempo, 486894
1, 25200, Tempo, 521512
1, 25440, Tempo, 503609
1, 25920, Tempo, 478088
1, 26400, Tempo, 480000
1, 26880, Tempo, 468750
1, 27120, Tempo, 454545
1, 27360, Tempo, 458015
1, 27840, Tempo, 470588
1, 28320, Tempo, 449438
1, 28560, Tempo, 466926
1, 28800, Tempo, 458015
1, 29160, Tempo, 474308
1, 29280, Tempo, 441176
1, 29520, Tempo, 452830
1, 29760, Tempo, 447761
1, 30000, Tempo, 458015
1, 30240, Tempo, 456274
1, 30600, Tempo, 474308
1, 30720, Tempo, 450417
1, 30960, Tempo, 462036
1, 31440, Tempo, 472441
1, 31680, Tempo, 476190
1, 32160, Tempo, 461538
1, 32640, Tempo, 454545
1, 32880, Tempo, 444444
1, 33120, Tempo, 456274
1, 33600, Tempo, 470588
1, 34080, Tempo, 444444
1, 34320, Tempo, 456274
1, 34560, Tempo, 447761
1, 35040, Tempo, 451128
1, 35280, Tempo, 458015
1, 35520, Tempo, 451128
1, 35760, Tempo, 468970
1, 36000, Tempo, 462036
1, 36480, Tempo, 454545
1, 36960, Tempo, 474308
1, 37440, Tempo, 470588
1, 37920, Tempo, 458015
1, 38400, Tempo, 449438
1, 38640, Tempo, 436967
1, 39360, Tempo, 461929
1, 39840, Tempo, 441176
1, 40080, Tempo, 452830
1, 40320, Tempo, 449573
1, 40680, Tempo, 442804
1, 40800, Tempo, 437956
1, 41040, Tempo, 447761
1, 41280, Tempo, 444444
1, 41520, Tempo, 460335
1, 41760, Tempo, 447861
1, 42120, Tempo, 465585
1, 42240, Tempo, 439496
1, 42480, Tempo, 451297
1, 42960, Tempo, 463750
1, 43200, Tempo, 465585
1, 43680, Tempo, 460123
1, 44160, Tempo, 444444
1, 44400, Tempo, 441176
1, 44640, Tempo, 451841
1, 45120, Tempo, 461929
1, 45600, Tempo, 484731
1, 45960, Tempo, 547845
1, 46080, Tempo, 434657
1, 46440, Tempo, 465585
1, 46560, Tempo, 436268
1, 46800, Tempo, 453515
1, 47040, Tempo, 444444
1, 47280, Tempo, 460335
1, 47400, Tempo, 480769
1, 47520, Tempo, 456552
1, 47880, Tempo, 465585
1, 48000, Tempo, 442119
1, 48240, Tempo, 453515
1, 48480, Tempo, 450180
1, 48720, Tempo, 463750
1, 48960, Tempo, 456552
1, 49320, Tempo, 465585
1, 49440, Tempo, 442119
1, 49680, Tempo, 453515
1, 49920, Tempo, 450180
1, 50160, Tempo, 478813
1, 50400, Tempo, 456552
1, 50760, Tempo, 465585
1, 50880, Tempo, 442119
1, 51120, Tempo, 453515
1, 51360, Tempo, 451297
1, 51400, Tempo, 453035
1, 51440, Tempo, 454787
1, 51480, Tempo, 456552
1, 51520, Tempo, 458330
1, 51560, Tempo, 460123
1, 51600, Tempo, 461929
1, 51640, Tempo, 463750
1, 51680, Tempo, 465585
1, 51720, Tempo, 467435
1, 51760, Tempo, 469263
1, 51800, Tempo, 473037
1, 51840, Tempo, 456552
1, 52200, Tempo, 465585
1, 52320, Tempo, 442119
1, 52560, Tempo, 453515
1, 52800, Tempo, 450180
1, 53040, Tempo, 499127
1, 53280, Tempo, 476872
1, 53640, Tempo, 503356
1, 53760, Tempo, 488759
1, 54000, Tempo, 523515
1, 54240, Tempo, 499127
1, 54720, Tempo, 489556
1, 55200, Tempo, 479425
1, 55680, Tempo, 499667
1, 56160, Tempo, 489356
1, 56640, Tempo, 479425
1, 57120, Tempo, 485319
1, 57600, Tempo, 483364
1, 58080, Tempo, 475587
1, 58560, Tempo, 489556
1, 59040, Tempo, 483364
1, 59520, Tempo, 479425
1, 60000, Tempo, 489556
1, 60480, Tempo, 460794
1, 61320, Tempo, 506073
1, 61480, Tempo, 465983
1, 61520, Tempo, 467836
1, 61600, Tempo, 469741
1, 61640, Tempo, 471661
1, 61680, Tempo, 508259
1, 61920, Tempo, 475587
1, 62400, Tempo, 458996
1, 62880, Tempo, 475587
1, 63360, Tempo, 468055
1, 63840, Tempo, 462570
1, 64320, Tempo, 480577
1, 64800, Tempo, 473672
1, 65280, Tempo, 462570
1, 65760, Tempo, 480577
1, 66240, Tempo, 452318
1, 67080, Tempo, 496771
1, 67240, Tempo, 457387
1, 67280, Tempo, 459242
1, 67360, Tempo, 461113
1, 67400, Tempo, 462963
1, 67480, Tempo, 464864
1, 67520, Tempo, 466781
1, 67600, Tempo, 468713
1, 67640, Tempo, 470625
1, 67680, Tempo, 491360
1, 68160, Tempo, 481386
1, 68520, Tempo, 491360
1, 68640, Tempo, 555967
1, 69120, Tempo, 877193
1, 69600, Tempo, 676666
1, 72000, Key_signature, 3, "major"
1, 72000, Tempo, 476115
1, 72480, Tempo, 458400
1, 72960, Tempo, 467108
1, 73920, Tempo, 461858
1, 74400, Tempo, 467108
1, 75360, Tempo, 458400
1, 75840, Tempo, 463571
1, 76320, Tempo, 477973
1, 76800, Tempo, 468860
1, 77280, Tempo, 476115
1, 78240, Tempo, 465333
1, 78720, Tempo, 463571
1, 78960, Tempo, 472478
1, 79680, Tempo, 463571
1, 80160, Tempo, 468860
1, 81600, Tempo, 479808
1, 83520, Tempo, 467108
1, 84000, Tempo, 463571
1, 84480, Tempo, 477973
1, 84960, Tempo, 468860
1, 85440, Tempo, 463571
1, 85680, Tempo, 468860
1, 85920, Tempo, 477973
1, 86400, Tempo, 468860
1, 86880, Tempo, 465333
1, 87360, Tempo, 468860
1, 88320, Tempo, 465333
1, 88560, Tempo, 474271
1, 88800, Tempo, 481696
1, 89280, Tempo, 470662
1, 89760, Tempo, 463571
1, 90000, Tempo, 470662
1, 90240, Tempo, 465333
1, 90480, Tempo, 477973
1, 90720, Tempo, 476115
1, 91200, Tempo, 465333
1, 91680, Tempo, 468860
1, 91920, Tempo, 481696
1, 92400, Tempo, 495254
1, 92640, Tempo, 481696
1, 92880, Tempo, 472478
1, 93360, Tempo, 483598
1, 94080, Tempo, 495254
1, 94320, Tempo, 497224
1, 94560, Tempo, 499251
1, 94800, Tempo, 531538
1, 95000, Tempo, 503313
1, 95040, Tempo, 476115
1, 95520, Tempo, 458400
1, 96000, Tempo, 467108
1, 96960, Tempo, 461858
1, 97440, Tempo, 467108
1, 98400, Tempo, 458400
1, 98880, Tempo, 463571
1, 99360, Tempo, 477973
1, 99840, Tempo, 468860
1, 100320, Tempo, 476115
1, 101280, Tempo, 465333
1, 101760, Tempo, 463571
1, 102000, Tempo, 472478
1, 102720, Tempo, 463571
1, 103200, Tempo, 468860
1, 103680, Tempo, 474271
1, 104160, Tempo, 465333
1, 104640, Tempo, 463571
1, 104880, Tempo, 472478
1, 105600, Tempo, 463571
1, 106080, Tempo, 468860
1, 106560, Tempo, 477973
1, 107040, Tempo, 468860
1, 107520, Tempo, 476115
1, 108000, Tempo, 468860
1, 108480, Tempo, 468860
1, 108960, Tempo, 483598
1, 109440, Tempo, 477973
1, 109920, Tempo, 476115
1, 110400, Tempo, 476115
1, 110880, Tempo, 468860
1, 111360, Tempo, 476115
1, 111840, Tempo, 485476
1, 112320, Tempo, 468860
1, 112800, Tempo, 470662
1, 113280, Tempo, 491280
1, 113760, Tempo, 479808
1, 114240, Tempo, 487409
1, 114720, Tempo, 493259
1, 118040, Tempo, 503313
1, 118200, Tempo, 505391
1, 118320, Tempo, 507485
1, 118440, Tempo, 509554
1, 118560, Tempo, 511683
1, 118680, Tempo, 513831
1, 118800, Tempo, 515952
1, 118920, Tempo, 518135
1, 119040, Tempo, 520291
1, 119160, Tempo, 522512
1, 119280, Tempo, 524751
1, 119400, Tempo, 526963
1, 119520, Tempo, 529241
1, 120960, Key_signature, -5, "major"
1, 120960, Tempo, 495868
1, 121440, Tempo, 485830
1, 121920, Tempo, 474308
1, 122160, Tempo, 458015
1, 122400, Tempo, 458015
1, 122880, Tempo, 470588
1, 123360, Tempo, 452830
1, 123600, Tempo, 466926
1, 123840, Tempo, 458015
1, 124200, Tempo, 474308
1, 124320, Tempo, 444444
1, 124560, Tempo, 452830
1, 124800, Tempo, 451128
1, 125040, Tempo, 458015
1, 125280, Tempo, 456274
1, 125640, Tempo, 474308
1, 125760, Tempo, 450417
1, 126000, Tempo, 462036
1, 126480, Tempo, 472441
1, 126720, Tempo, 476190
1, 127200, Tempo, 461538
1, 127680, Tempo, 451128
1, 127920, Tempo, 444444
1, 128160, Tempo, 456274
1, 128640, Tempo, 470588
1, 129120, Tempo, 439560
1, 129360, Tempo, 451128
1, 129600, Tempo, 444444
1, 130080, Tempo, 451128
1, 130320, Tempo, 458015
1, 130560, Tempo, 451128
1, 130800, Tempo, 468970
1, 131040, Tempo, 462036
1, 131520, Tempo, 454545
1, 132000, Tempo, 474308
1, 132480, Tempo, 470588
1, 132960, Tempo, 456274
1, 133440, Tempo, 449438
1, 133680, Tempo, 441176
1, 133920, Tempo, 452830
1, 134400, Tempo, 460158
1, 134880, Tempo, 439560
1, 135120, Tempo, 463320
1, 135360, Tempo, 451128
1, 135720, Tempo, 441112
1, 135840, Tempo, 444444
1, 136080, Tempo, 456274
1, 136320, Tempo, 448464
1, 136560, Tempo, 456274
1, 136800, Tempo, 446163
1, 137160, Tempo, 463786
1, 137280, Tempo, 437956
1, 137520, Tempo, 449573
1, 138000, Tempo, 461965
1, 138240, Tempo, 463786
1, 138720, Tempo, 458365
1, 139200, Tempo, 444444
1, 139440, Tempo, 439560
1, 139680, Tempo, 450113
1, 140160, Tempo, 460158
1, 140640, Tempo, 497183
1, 140940, Tempo, 586682
1, 141120, Tempo, 432994
1, 141480, Tempo, 463786
1, 141600, Tempo, 434594
1, 141840, Tempo, 451773
1, 142080, Tempo, 442804
1, 142320, Tempo, 458575
1, 142560, Tempo, 451773
1, 142920, Tempo, 463786
1, 143040, Tempo, 436205
1, 143280, Tempo, 451773
1, 143520, Tempo, 476190
1, 143820, Tempo, 447861
1, 144000, Tempo, 454787
1, 144360, Tempo, 463786
1, 144480, Tempo, 440432
1, 144720, Tempo, 451773
1, 144960, Tempo, 448464
1, 145200, Tempo, 497183
1, 145440, Tempo, 475059
1, 145800, Tempo, 501463
1, 145920, Tempo, 486894
1, 146160, Tempo, 521512
1, 146400, Tempo, 503609
1, 146880, Tempo, 478088
1, 147360, Tempo, 480000
1, 147840, Tempo, 468750
1, 148080, Tempo, 454545
1, 148320, Tempo, 458015
1, 148800, Tempo, 470588
1, 149280, Tempo, 449438
1, 149520, Tempo, 466926
1, 149760, Tempo, 458015
1, 150120, Tempo, 474308
1, 150240, Tempo, 441176
1, 150480, Tempo, 452830
1, 150720, Tempo, 447761
1, 150960, Tempo, 458015
1, 151200, Tempo, 456274
1, 151560, Tempo, 474308
1, 151680, Tempo, 450417
1, 151920, Tempo, 462036
1, 152400, Tempo, 472441
1, 152640, Tempo, 476190
1, 153120, Tempo, 461538
1, 153600, Tempo, 454545
1, 153840, Tempo, 449438
1, 154080, Tempo, 456274
1, 154560, Tempo, 470588
1, 155040, Tempo, 444444
1, 155280, Tempo, 456274
1, 155520, Tempo, 447761
1, 156000, Tempo, 451128
1, 156240, Tempo, 458015
1, 156480, Tempo, 451128
1, 156720, Tempo, 468970
1, 156960, Tempo, 462036
1, 157440, Tempo, 454545
1, 157920, Tempo, 474308
1, 158400, Tempo, 470588
1, 158880, Tempo, 458015
1, 159360, Tempo, 449438
1, 159600, Tempo, 436967
1, 160320, Tempo, 461929
1, 160800, Tempo, 441176
1, 161040, Tempo, 452830
1, 161280, Tempo, 449573
1, 161640, Tempo, 442804
1, 161760, Tempo, 437956
1, 162000, Tempo, 447761
1, 162240, Tempo, 444444
1, 162480, Tempo, 460335
1, 162720, Tempo, 447861
1, 163080, Tempo, 465585
1, 163200, Tempo, 439496
1, 163440, Tempo, 451297
1, 163920, Tempo, 463750
1, 164160, Tempo, 465585
1, 164640, Tempo, 460123
1, 165120, Tempo, 444444
1, 165360, Tempo, 441176
1, 165600, Tempo, 451841
1, 166080, Tempo, 461929
1, 166560, Tempo, 484731
1, 166920, Tempo, 547845
1, 167040, Tempo, 434657
1, 167400, Tempo, 465585
1, 167520, Tempo, 436268
1, 167760, Tempo, 453515
1, 168000, Tempo, 444444
1, 168240, Tempo, 460335
1, 168360, Tempo, 480769
1, 168480, Tempo, 456552
1, 168840, Tempo, 465585
1, 168960, Tempo, 442119
1, 169200, Tempo, 453515
1, 169440, Tempo, 450180
1, 169680, Tempo, 463750
1, 169920, Tempo, 456552
1, 170280, Tempo, 465585
1, 170400, Tempo, 442119
1, 170640, Tempo, 453515
1, 170880, Tempo, 450180
1, 171120, Tempo, 478813
1, 171360, Tempo, 456552
1, 171720, Tempo, 465585
1, 171840, Tempo, 442119
1, 172080, Tempo, 453515
1, 172320, Tempo, 451297
1, 172360, Tempo, 453035
1, 172400, Tempo, 454787
1, 172440, Tempo, 456552
1, 172480, Tempo, 458330
1, 172520, Tempo, 460123
1, 172560, Tempo, 461929
1, 172600, Tempo, 463750
1, 172640, Tempo, 465585
1, 172680, Tempo, 467435
1, 172720, Tempo, 469263
1, 172760, Tempo, 473037
1, 172800, Tempo, 456552
1, 173160, Tempo, 465585
1, 173280, Tempo, 442119
1, 173520, Tempo, 453515
1, 173760, Tempo, 450180
1, 174000, Tempo, 499127
1, 174240, Tempo, 476872
1, 174600, Tempo, 503356
1, 174720, Tempo, 488759
1, 174960, Tempo, 523515
1, 175200, Tempo, 499127
1, 176160, Tempo, 479425
1, 176640, Tempo, 499667
1, 177120, Tempo, 489356
1, 177600, Tempo, 479425
1, 178080, Tempo, 485319
1, 178560, Tempo, 483364
1, 179040, Tempo, 475587
1, 179520, Tempo, 489556
1, 180000, Tempo, 483364
1, 180480, Tempo, 479425
1, 180960, Tempo, 489556
1, 181440, Tempo, 460794
1, 182280, Tempo, 506073
1, 182440, Tempo, 465983
1, 182480, Tempo, 467836
1, 182560, Tempo, 469741
1, 182600, Tempo, 471661
1, 182640, Tempo, 508259
1, 182880, Tempo, 475587
1, 183360, Tempo, 458996
1, 183840, Tempo, 475587
1, 184320, Tempo, 468055
1, 184800, Tempo, 462570
1, 185280, Tempo, 480577
1, 185760, Tempo, 473672
1, 186240, Tempo, 462570
1, 186720, Tempo, 480577
1, 187200, Tempo, 452318
1, 188040, Tempo, 496771
1, 188200, Tempo, 457387
1, 188240, Tempo, 459242
1, 188320, Tempo, 461113
1, 188360, Tempo, 462963
1, 188440, Tempo, 464864
1, 188480, Tempo, 466781
1, 188560, Tempo, 468713
1, 188600, Tempo, 470625
1, 188640, Tempo, 491360
1, 189120, Tempo, 481386
1, 189480, Tempo, 491360
1, 189600, Tempo, 555967
1, 190080, Tempo, 877193
1, 191520, Marker_t, "Fine"
1, 192960, Tempo, 1000000
1, 192960, End_track
2, 0, Start_track
2, 0, MIDI_port, 0
2, 0, Title_t, "Piano right"
2, 0, Program_c, 0, 0
2, 0, Control_c, 0, 7, 100
2, 0, Control_c, 0, 64, 0
2, 0, Control_c, 0, 91, 127
2, 0, Text_t, "bdca426d104a26ac9dcb070447587523"
2, 480, Note_on_c, 0, 56, 34
2, 480, Note_on_c, 0, 54, 28
2, 720, Note_on_c, 0, 54, 0
2, 720, Note_on_c, 0, 56, 0
2, 960, Note_on_c, 0, 54, 28
2, 960, Note_on_c, 0, 56, 34
2, 1200, Note_on_c, 0, 56, 0
2, 1200, Note_on_c, 0, 54, 0
2, 1920, Note_on_c, 0, 61, 33
2, 1920, Note_on_c, 0, 65, 39
2, 2160, Note_on_c, 0, 65, 0
2, 2160, Note_on_c, 0, 61, 0
2, 2400, Note_on_c, 0, 61, 35
2, 2400, Note_on_c, 0, 65, 41
2, 2640, Note_on_c, 0, 65, 0
2, 2640, Note_on_c, 0, 61, 0
2, 3360, Note_on_c, 0, 68, 40
2, 3360, Note_on_c, 0, 63, 34
2, 3360, Note_on_c, 0, 66, 34
2, 3600, Note_on_c, 0, 66, 0
2, 3600, Note_on_c, 0, 63, 0
2, 3600, Note_on_c, 0, 68, 0
2, 3840, Note_on_c, 0, 66, 34
2, 3840, Note_on_c, 0, 68, 40
2, 3840, Note_on_c, 0, 63, 34
2, 4080, Note_on_c, 0, 63, 0
2, 4080, Note_on_c, 0, 68, 0
2, 4080, Note_on_c, 0, 66, 0
2, 4800, Note_on_c, 0, 65, 30
2, 4800, Note_on_c, 0, 68, 36
2, 4800, Note_on_c, 0, 61, 30
2, 5040, Note_on_c, 0, 61, 0
2, 5040, Note_on_c, 0, 68, 0
2, 5040, Note_on_c, 0, 65, 0
2, 5280, Note_on_c, 0, 68, 35
2, 5280, Note_on_c, 0, 65, 29
2, 5280, Note_on_c, 0, 61, 29
2, 5520, Note_on_c, 0, 61, 0
2, 5520, Note_on_c, 0, 65, 0
2, 5520, Note_on_c, 0, 68, 0
2, 6240, Note_on_c, 0, 54, 28
2, 6240, Note_on_c, 0, 56, 34
2, 6480, Note_on_c, 0, 56, 0
2, 6480, Note_on_c, 0, 54, 0
2, 6720, Note_on_c, 0, 54, 28
2, 6720, Note_on_c, 0, 56, 34
2, 6960, Note_on_c, 0, 56, 0
2, 6960, Note_on_c, 0, 54, 0
2, 7680, Note_on_c, 0, 65, 39
2, 7680, Note_on_c, 0, 61, 33
2, 7920, Note_on_c, 0, 61, 0
2, 7920, Note_on_c, 0, 65, 0
2, 8160, Note_on_c, 0, 65, 41
2, 8160, Note_on_c, 0, 61, 35
2, 8400, Note_on_c, 0, 61, 0
2, 8400, Note_on_c, 0, 65, 0
2, 9120, Note_on_c, 0, 64, 34
2, 9120, Note_on_c, 0, 67, 40
2, 9360, Note_on_c, 0, 67, 0
2, 9360, Note_on_c, 0, 64, 0
2, 9600, Note_on_c, 0, 64, 34
2, 9600, Note_on_c, 0, 67, 40
2, 9840, Note_on_c, 0, 67, 0
2, 9840, Note_on_c, 0, 64, 0
2, 10560, Note_on_c, 0, 65, 30
2, 10560, Note_on_c, 0, 69, 36
2, 10800, Note_on_c, 0, 69, 0
2, 10800, Note_on_c, 0, 65, 0
2, 11040, Note_on_c, 0, 69, 35
2, 11040, Note_on_c, 0, 65, 29
2, 11280, Note_on_c, 0, 65, 0
2, 11280, Note_on_c, 0, 69, 0
2, 11520, Note_on_c, 0, 62, 55
2, 11760, Note_on_c, 0, 62, 0
2, 12000, Note_on_c, 0, 69, 62
2, 12000, Note_on_c, 0, 64, 41
2, 12720, Note_on_c, 0, 69, 0
2, 12720, Note_on_c, 0, 67, 55
2, 12960, Note_on_c, 0, 67, 0
2, 12960, Note_on_c, 0, 64, 0
2, 12960, Note_on_c, 0, 69, 63
2, 12960, Note_on_c, 0, 65, 41
2, 13320, Note_on_c, 0, 69, 0
2, 13320, Note_on_c, 0, 70, 62
2, 13440, Note_on_c, 0, 70, 0
2, 13440, Note_on_c, 0, 72, 60
2, 13920, Note_on_c, 0, 72, 0
2, 13920, Note_on_c, 0, 65, 0
2, 13920, Note_on_c, 0, 74, 60
2, 13920, Note_on_c, 0, 65, 41
2, 14160, Note_on_c, 0, 74, 0
2, 14160, Note_on_c, 0, 77, 56
2, 14400, Note_on_c, 0, 77, 0
2, 14400, Note_on_c, 0, 65, 0
2, 14400, Note_on_c, 0, 70, 43
2, 14400, Note_on_c, 0, 77, 59
2, 14760, Note_on_c, 0, 77, 0
2, 14760, Note_on_c, 0, 76, 56
2, 14820, Note_on_c, 0, 76, 0
2, 14820, Note_on_c, 0, 77, 56
2, 14880, Note_on_c, 0, 77, 0
2, 14880, Note_on_c, 0, 70, 0
2, 14880, Note_on_c, 0, 70, 42
2, 14880, Note_on_c, 0, 76, 65
2, 15120, Note_on_c, 0, 76, 0
2, 15120, Note_on_c, 0, 74, 60
2, 15360, Note_on_c, 0, 74, 0
2, 15360, Note_on_c, 0, 70, 0
2, 15360, Note_on_c, 0, 76, 65
2, 15360, Note_on_c, 0, 70, 43
2, 15600, Note_on_c, 0, 76, 0
2, 15600, Note_on_c, 0, 72, 59
2, 15840, Note_on_c, 0, 72, 0
2, 15840, Note_on_c, 0, 70, 0
2, 15840, Note_on_c, 0, 74, 60
2, 15840, Note_on_c, 0, 65, 41
2, 16200, Note_on_c, 0, 74, 0
2, 16200, Note_on_c, 0, 72, 49
2, 16260, Note_on_c, 0, 72, 0
2, 16260, Note_on_c, 0, 74, 44
2, 16320, Note_on_c, 0, 74, 0
2, 16320, Note_on_c, 0, 65, 0
2, 16320, Note_on_c, 0, 72, 58
2, 16320, Note_on_c, 0, 65, 41
2, 16560, Note_on_c, 0, 72, 0
2, 16560, Note_on_c, 0, 69, 52
2, 16800, Note_on_c, 0, 69, 0
2, 16800, Note_on_c, 0, 65, 0
2, 16800, Note_on_c, 0, 65, 56
2, 17040, Note_on_c, 0, 69, 50
2, 17280, Note_on_c, 0, 69, 0
2, 17280, Note_on_c, 0, 65, 0
2, 17280, Note_on_c, 0, 62, 55
2, 17520, Note_on_c, 0, 62, 0
2, 17760, Note_on_c, 0, 69, 62
2, 17760, Note_on_c, 0, 64, 41
2, 18480, Note_on_c, 0, 69, 0
2, 18480, Note_on_c, 0, 67, 58
2, 18720, Note_on_c, 0, 67, 0
2, 18720, Note_on_c, 0, 64, 0
2, 18720, Note_on_c, 0, 65, 41
2, 18720, Note_on_c, 0, 69, 63
2, 19080, Note_on_c, 0, 69, 0
2, 19080, Note_on_c, 0, 70, 61
2, 19200, Note_on_c, 0, 70, 0
2, 19200, Note_on_c, 0, 72, 62
2, 19680, Note_on_c, 0, 72, 0
2, 19680, Note_on_c, 0, 65, 0
2, 19680, Note_on_c, 0, 74, 64
2, 19680, Note_on_c, 0, 65, 44
2, 19980, Note_on_c, 0, 65, 0
2, 19980, Note_on_c, 0, 74, 0
2, 20040, Note_on_c, 0, 64, 55
2, 20100, Note_on_c, 0, 70, 60
2, 20160, Note_on_c, 0, 74, 69
2, 20520, Note_on_c, 0, 74, 0
2, 20520, Note_on_c, 0, 70, 0
2, 20520, Note_on_c, 0, 64, 0
2, 20520, Note_on_c, 0, 72, 53
2, 20580, Note_on_c, 0, 72, 0
2, 20580, Note_on_c, 0, 74, 55
2, 20640, Note_on_c, 0, 74, 0
2, 20640, Note_on_c, 0, 72, 59
2, 20880, Note_on_c, 0, 72, 0
2, 20880, Note_on_c, 0, 70, 51
2, 21120, Note_on_c, 0, 70, 0
2, 21120, Note_on_c, 0, 69, 55
2, 21360, Note_on_c, 0, 69, 0
2, 21360, Note_on_c, 0, 67, 48
2, 21600, Note_on_c, 0, 67, 0
2, 21600, Note_on_c, 0, 72, 62
2, 21600, Note_on_c, 0, 69, 44
2, 21600, Note_on_c, 0, 64, 44
2, 21960, Note_on_c, 0, 64, 0
2, 21960, Note_on_c, 0, 69, 0
2, 21960, Note_on_c, 0, 72, 0
2, 21960, Note_on_c, 0, 67, 52
2, 22020, Note_on_c, 0, 67, 0
2, 22020, Note_on_c, 0, 69, 47
2, 22080, Note_on_c, 0, 69, 0
2, 22080, Note_on_c, 0, 67, 59
2, 22320, Note_on_c, 0, 67, 0
2, 22320, Note_on_c, 0, 65, 55
2, 22560, Note_on_c, 0, 65, 0
2, 22560, Note_on_c, 0, 64, 57
2, 22860, Note_on_c, 0, 64, 0
2, 22920, Note_on_c, 0, 58, 46
2, 22980, Note_on_c, 0, 62, 50
2, 23040, Note_on_c, 0, 69, 57
2, 23400, Note_on_c, 0, 69, 0
2, 23400, Note_on_c, 0, 62, 0
2, 23400, Note_on_c, 0, 58, 0
2, 23400, Note_on_c, 0, 67, 41
2, 23460, Note_on_c, 0, 67, 0
2, 23460, Note_on_c, 0, 69, 40
2, 23520, Note_on_c, 0, 69, 0
2, 23520, Note_on_c, 0, 67, 47
2, 23760, Note_on_c, 0, 67, 0
2, 23760, Note_on_c, 0, 65, 40
2, 24000, Note_on_c, 0, 65, 0
2, 24000, Note_on_c, 0, 64, 46
2, 24240, Note_on_c, 0, 64, 0
2, 24240, Note_on_c, 0, 62, 40
2, 24480, Note_on_c, 0, 62, 0
2, 24480, Note_on_c, 0, 58, 38
2, 24480, Note_on_c, 0, 60, 38
2, 25920, Note_on_c, 0, 60, 0
2, 25920, Note_on_c, 0, 58, 0
2, 26400, Note_on_c, 0, 56, 34
2, 26400, Note_on_c, 0, 54, 28
2, 26640, Note_on_c, 0, 54, 0
2, 26640, Note_on_c, 0, 56, 0
2, 26880, Note_on_c, 0, 54, 28
2, 26880, Note_on_c, 0, 56, 34
2, 27120, Note_on_c, 0, 56, 0
2, 27120, Note_on_c, 0, 54, 0
2, 27840, Note_on_c, 0, 65, 39
2, 27840, Note_on_c, 0, 61, 33
2, 28080, Note_on_c, 0, 61, 0
2, 28080, Note_on_c, 0, 65, 0
2, 28320, Note_on_c, 0, 61, 35
2, 28320, Note_on_c, 0, 65, 41
2, 28560, Note_on_c, 0, 65, 0
2, 28560, Note_on_c, 0, 61, 0
2, 29280, Note_on_c, 0, 63, 34
2, 29280, Note_on_c, 0, 68, 40
2, 29280, Note_on_c, 0, 66, 34
2, 29520, Note_on_c, 0, 66, 0
2, 29520, Note_on_c, 0, 68, 0
2, 29520, Note_on_c, 0, 63, 0
2, 29760, Note_on_c, 0, 66, 34
2, 29760, Note_on_c, 0, 68, 40
2, 29760, Note_on_c, 0, 63, 34
2, 30000, Note_on_c, 0, 63, 0
2, 30000, Note_on_c, 0, 68, 0
2, 30000, Note_on_c, 0, 66, 0
2, 30720, Note_on_c, 0, 68, 36
2, 30720, Note_on_c, 0, 65, 30
2, 30720, Note_on_c, 0, 61, 30
2, 30960, Note_on_c, 0, 61, 0
2, 30960, Note_on_c, 0, 65, 0
2, 30960, Note_on_c, 0, 68, 0
2, 31200, Note_on_c, 0, 65, 29
2, 31200, Note_on_c, 0, 61, 29
2, 31200, Note_on_c, 0, 68, 35
2, 31440, Note_on_c, 0, 68, 0
2, 31440, Note_on_c, 0, 61, 0
2, 31440, Note_on_c, 0, 65, 0
2, 32160, Note_on_c, 0, 56, 34
2, 32160, Note_on_c, 0, 54, 28
2, 32400, Note_on_c, 0, 54, 0
2, 32400, Note_on_c, 0, 56, 0
2, 32640, Note_on_c, 0, 54, 28
2, 32640, Note_on_c, 0, 56, 34
2, 32880, Note_on_c, 0, 56, 0
2, 32880, Note_on_c, 0, 54, 0
2, 33600, Note_on_c, 0, 65, 39
2, 33600, Note_on_c, 0, 61, 33
2, 33840, Note_on_c, 0, 61, 0
2, 33840, Note_on_c, 0, 65, 0
2, 34080, Note_on_c, 0, 65, 41
2, 34080, Note_on_c, 0, 61, 35
2, 34320, Note_on_c, 0, 61, 0
2, 34320, Note_on_c, 0, 65, 0
2, 35040, Note_on_c, 0, 64, 34
2, 35040, Note_on_c, 0, 67, 40
2, 35280, Note_on_c, 0, 67, 0
2, 35280, Note_on_c, 0, 64, 0
2, 35520, Note_on_c, 0, 64, 34
2, 35520, Note_on_c, 0, 67, 40
2, 35760, Note_on_c, 0, 67, 0
2, 35760, Note_on_c, 0, 64, 0
2, 36480, Note_on_c, 0, 65, 30
2, 36480, Note_on_c, 0, 68, 36
2, 36720, Note_on_c, 0, 68, 0
2, 36720, Note_on_c, 0, 65, 0
2, 36960, Note_on_c, 0, 68, 35
2, 36960, Note_on_c, 0, 65, 29
2, 37200, Note_on_c, 0, 65, 0
2, 37200, Note_on_c, 0, 68, 0
2, 37440, Note_on_c, 0, 70, 60
2, 37680, Note_on_c, 0, 70, 0
2, 37920, Note_on_c, 0, 72, 46
2, 37920, Note_on_c, 0, 77, 70
2, 38640, Note_on_c, 0, 77, 0
2, 38640, Note_on_c, 0, 75, 60
2, 38880, Note_on_c, 0, 75, 0
2, 38880, Note_on_c, 0, 72, 0
2, 38880, Note_on_c, 0, 77, 70
2, 38880, Note_on_c, 0, 73, 46
2, 39240, Note_on_c, 0, 77, 0
2, 39240, Note_on_c, 0, 78, 68
2, 39360, Note_on_c, 0, 78, 0
2, 39360, Note_on_c, 0, 80, 65
2, 39840, Note_on_c, 0, 80, 0
2, 39840, Note_on_c, 0, 73, 0
2, 39840, Note_on_c, 0, 73, 40
2, 39840, Note_on_c, 0, 80, 40
2, 39840, Note_on_c, 0, 82, 66
2, 40080, Note_on_c, 0, 82, 0
2, 40080, Note_on_c, 0, 85, 62
2, 40320, Note_on_c, 0, 85, 0
2, 40320, Note_on_c, 0, 80, 0
2, 40320, Note_on_c, 0, 73, 0
2, 40320, Note_on_c, 0, 78, 49
2, 40320, Note_on_c, 0, 73, 49
2, 40320, Note_on_c, 0, 85, 66
2, 40680, Note_on_c, 0, 85, 0
2, 40680, Note_on_c, 0, 84, 59
2, 40740, Note_on_c, 0, 84, 0
2, 40740, Note_on_c, 0, 85, 57
2, 40800, Note_on_c, 0, 85, 0
2, 40800, Note_on_c, 0, 73, 0
2, 40800, Note_on_c, 0, 78, 0
2, 40800, Note_on_c, 0, 84, 67
2, 40800, Note_on_c, 0, 72, 41
2, 40800, Note_on_c, 0, 78, 41
2, 41040, Note_on_c, 0, 84, 0
2, 41040, Note_on_c, 0, 82, 64
2, 41280, Note_on_c, 0, 82, 0
2, 41280, Note_on_c, 0, 78, 0
2, 41280, Note_on_c, 0, 72, 0
2, 41280, Note_on_c, 0, 72, 43
2, 41280, Note_on_c, 0, 84, 67
2, 41280, Note_on_c, 0, 78, 43
2, 41520, Note_on_c, 0, 84, 0
2, 41520, Note_on_c, 0, 80, 63
2, 41760, Note_on_c, 0, 80, 0
2, 41760, Note_on_c, 0, 78, 0
2, 41760, Note_on_c, 0, 72, 0
2, 41760, Note_on_c, 0, 82, 66
2, 41760, Note_on_c, 0, 73, 46
2, 42120, Note_on_c, 0, 82, 0
2, 42120, Note_on_c, 0, 80, 55
2, 42180, Note_on_c, 0, 80, 0
2, 42180, Note_on_c, 0, 82, 50
2, 42240, Note_on_c, 0, 82, 0
2, 42240, Note_on_c, 0, 73, 0
2, 42240, Note_on_c, 0, 80, 66
2, 42240, Note_on_c, 0, 73, 44
2, 42480, Note_on_c, 0, 80, 0
2, 42480, Note_on_c, 0, 77, 57
2, 42720, Note_on_c, 0, 77, 0
2, 42720, Note_on_c, 0, 73, 0
2, 42720, Note_on_c, 0, 73, 63
2, 42960, Note_on_c, 0, 77, 56
2, 43200, Note_on_c, 0, 77, 0
2, 43200, Note_on_c, 0, 73, 0
2, 43200, Note_on_c, 0, 70, 60
2, 43440, Note_on_c, 0, 70, 0
2, 43680, Note_on_c, 0, 77, 70
2, 43680, Note_on_c, 0, 72, 46
2, 44400, Note_on_c, 0, 77, 0
2, 44400, Note_on_c, 0, 75, 65
2, 44640, Note_on_c, 0, 75, 0
2, 44640, Note_on_c, 0, 72, 0
2, 44640, Note_on_c, 0, 77, 70
2, 44640, Note_on_c, 0, 73, 46
2, 45000, Note_on_c, 0, 77, 0
2, 45000, Note_on_c, 0, 78, 68
2, 45120, Note_on_c, 0, 78, 0
2, 45120, Note_on_c, 0, 80, 66
2, 45600, Note_on_c, 0, 80, 0
2, 45600, Note_on_c, 0, 73, 0
2, 45600, Note_on_c, 0, 80, 49
2, 45600, Note_on_c, 0, 82, 70
2, 45600, Note_on_c, 0, 73, 49
2, 45960, Note_on_c, 0, 73, 0
2, 45960, Note_on_c, 0, 82, 0
2, 45960, Note_on_c, 0, 80, 0
2, 45960, Note_on_c, 0, 72, 60
2, 46020, Note_on_c, 0, 78, 68
2, 46080, Note_on_c, 0, 82, 74
2, 46440, Note_on_c, 0, 82, 0
2, 46440, Note_on_c, 0, 78, 0
2, 46440, Note_on_c, 0, 72, 0
2, 46440, Note_on_c, 0, 80, 56
2, 46500, Note_on_c, 0, 80, 0
2, 46500, Note_on_c, 0, 82, 58
2, 46560, Note_on_c, 0, 82, 0
2, 46560, Note_on_c, 0, 80, 67
2, 46800, Note_on_c, 0, 80, 0
2, 46800, Note_on_c, 0, 78, 57
2, 47040, Note_on_c, 0, 78, 0
2, 47040, Note_on_c, 0, 77, 58
2, 47280, Note_on_c, 0, 77, 0
2, 47280, Note_on_c, 0, 75, 55
2, 47400, Note_on_c, 0, 75, 0
2, 47400, Note_on_c, 0, 66, 43
2, 47460, Note_on_c, 0, 70, 56
2, 47520, Note_on_c, 0, 77, 68
2, 47880, Note_on_c, 0, 77, 0
2, 47880, Note_on_c, 0, 70, 0
2, 47880, Note_on_c, 0, 66, 0
2, 47880, Note_on_c, 0, 75, 52
2, 47940, Note_on_c, 0, 75, 0
2, 47940, Note_on_c, 0, 77, 55
2, 48000, Note_on_c, 0, 77, 0
2, 48000, Note_on_c, 0, 75, 58
2, 48240, Note_on_c, 0, 75, 0
2, 48240, Note_on_c, 0, 73, 52
2, 48480, Note_on_c, 0, 73, 0
2, 48480, Note_on_c, 0, 72, 57
2, 48720, Note_on_c, 0, 72, 0
2, 48720, Note_on_c, 0, 70, 52
2, 48960, Note_on_c, 0, 70, 0
2, 48960, Note_on_c, 0, 63, 54
2, 48960, Note_on_c, 0, 70, 59
2, 48960, Note_on_c, 0, 66, 54
2, 49320, Note_on_c, 0, 66, 0
2, 49320, Note_on_c, 0, 70, 0
2, 49320, Note_on_c, 0, 63, 0
2, 49320, Note_on_c, 0, 68, 54
2, 49380, Note_on_c, 0, 68, 0
2, 49380, Note_on_c, 0, 70, 54
2, 49440, Note_on_c, 0, 70, 0
2, 49440, Note_on_c, 0, 68, 59
2, 49680, Note_on_c, 0, 68, 0
2, 49680, Note_on_c, 0, 66, 53
2, 49920, Note_on_c, 0, 66, 0
2, 49920, Note_on_c, 0, 65, 55
2, 49920, Note_on_c, 0, 63, 48
2, 50400, Note_on_c, 0, 63, 0
2, 50400, Note_on_c, 0, 65, 0
2, 50400, Note_on_c, 0, 68, 59
2, 50400, Note_on_c, 0, 61, 54
2, 50760, Note_on_c, 0, 61, 0
2, 50760, Note_on_c, 0, 68, 0
2, 50760, Note_on_c, 0, 66, 46
2, 50820, Note_on_c, 0, 66, 0
2, 50820, Note_on_c, 0, 68, 52
2, 50880, Note_on_c, 0, 68, 0
2, 50880, Note_on_c, 0, 66, 58
2, 51120, Note_on_c, 0, 66, 0
2, 51120, Note_on_c, 0, 65, 49
2, 51360, Note_on_c, 0, 65, 0
2, 51360, Note_on_c, 0, 61, 54
2, 51360, Note_on_c, 0, 63, 59
2, 51600, Note_on_c, 0, 63, 0
2, 51600, Note_on_c, 0, 64, 62
2, 51780, Note_on_c, 0, 64, 0
2, 51780, Note_on_c, 0, 61, 57
2, 51840, Note_on_c, 0, 61, 0
2, 51840, Note_on_c, 0, 65, 70
2, 52200, Note_on_c, 0, 65, 0
2, 52200, Note_on_c, 0, 61, 0
2, 52200, Note_on_c, 0, 63, 58
2, 52260, Note_on_c, 0, 63, 0
2, 52260, Note_on_c, 0, 65, 59
2, 52320, Note_on_c, 0, 65, 0
2, 52320, Note_on_c, 0, 63, 64
2, 52560, Note_on_c, 0, 63, 0
2, 52560, Note_on_c, 0, 61, 48
2, 52800, Note_on_c, 0, 61, 0
2, 52800, Note_on_c, 0, 60, 61
2, 53040, Note_on_c, 0, 60, 0
2, 53040, Note_on_c, 0, 58, 55
2, 53280, Note_on_c, 0, 58, 0
2, 53280, Note_on_c, 0, 56, 48
2, 53280, Note_on_c, 0, 54, 48
2, 54720, Note_on_c, 0, 54, 0
2, 54720, Note_on_c, 0, 56, 0
2, 55200, Note_on_c, 0, 53, 49
2, 55200, Note_on_c, 0, 61, 49
2, 56160, Note_on_c, 0, 61, 0
2, 56160, Note_on_c, 0, 53, 0
2, 56160, Note_on_c, 0, 58, 49
2, 56160, Note_on_c, 0, 54, 49
2, 56340, Note_on_c, 0, 54, 0
2, 56340, Note_on_c, 0, 58, 0
2, 56640, Note_on_c, 0, 65, 55
2, 57600, Note_on_c, 0, 65, 0
2, 57600, Note_on_c, 0, 59, 49
2, 57600, Note_on_c, 0, 54, 49
2, 57780, Note_on_c, 0, 54, 0
2, 57780, Note_on_c, 0, 59, 0
2, 58080, Note_on_c, 0, 65, 55
2, 59040, Note_on_c, 0, 65, 0
2, 59040, Note_on_c, 0, 54, 49
2, 59040, Note_on_c, 0, 60, 49
2, 59220, Note_on_c, 0, 60, 0
2, 59220, Note_on_c, 0, 54, 0
2, 59520, Note_on_c, 0, 65, 55
2, 60420, Note_on_c, 0, 65, 0
2, 60420, Note_on_c, 0, 56, 46
2, 60480, Note_on_c, 0, 56, 0
2, 60480, Note_on_c, 0, 61, 46
2, 60480, Note_on_c, 0, 65, 51
2, 60720, Note_on_c, 0, 65, 0
2, 60720, Note_on_c, 0, 61, 0
2, 60720, Note_on_c, 0, 60, 50
2, 60960, Note_on_c, 0, 60, 0
2, 60960, Note_on_c, 0, 59, 49
2, 61200, Note_on_c, 0, 59, 0
2, 61200, Note_on_c, 0, 58, 48
2, 61320, Note_on_c, 0, 57, 41
2, 61380, Note_on_c, 0, 57, 0
2, 61380, Note_on_c, 0, 58, 0
2, 61380, Note_on_c, 0, 58, 37
2, 61440, Note_on_c, 0, 58, 0
2, 61440, Note_on_c, 0, 57, 47
2, 61680, Note_on_c, 0, 57, 0
2, 61680, Note_on_c, 0, 56, 46
2, 61920, Note_on_c, 0, 56, 0
2, 61920, Note_on_c, 0, 70, 49
2, 61920, Note_on_c, 0, 66, 49
2, 62100, Note_on_c, 0, 66, 0
2, 62100, Note_on_c, 0, 70, 0
2, 62400, Note_on_c, 0, 77, 57
2, 63360, Note_on_c, 0, 77, 0
2, 63360, Note_on_c, 0, 66, 49
2, 63360, Note_on_c, 0, 71, 49
2, 63540, Note_on_c, 0, 71, 0
2, 63540, Note_on_c, 0, 66, 0
2, 63840, Note_on_c, 0, 77, 57
2, 64800, Note_on_c, 0, 77, 0
2, 64800, Note_on_c, 0, 72, 49
2, 64800, Note_on_c, 0, 66, 49
2, 64980, Note_on_c, 0, 66, 0
2, 64980, Note_on_c, 0, 72, 0
2, 65280, Note_on_c, 0, 77, 56
2, 66180, Note_on_c, 0, 77, 0
2, 66180, Note_on_c, 0, 68, 47
2, 66240, Note_on_c, 0, 68, 0
2, 66240, Note_on_c, 0, 77, 51
2, 66240, Note_on_c, 0, 73, 51
2, 66480, Note_on_c, 0, 73, 0
2, 66480, Note_on_c, 0, 77, 0
2, 66480, Note_on_c, 0, 72, 50
2, 66720, Note_on_c, 0, 72, 0
2, 66720, Note_on_c, 0, 71, 49
2, 66960, Note_on_c, 0, 71, 0
2, 66960, Note_on_c, 0, 70, 48
2, 67080, Note_on_c, 0, 69, 41
2, 67140, Note_on_c, 0, 69, 0
2, 67140, Note_on_c, 0, 70, 0
2, 67140, Note_on_c, 0, 70, 37
2, 67200, Note_on_c, 0, 70, 0
2, 67200, Note_on_c, 0, 69, 47
2, 67440, Note_on_c, 0, 69, 0
2, 67440, Note_on_c, 0, 68, 46
2, 67680, Note_on_c, 0, 68, 0
2, 67680, Note_on_c, 0, 69, 42
2, 67680, Note_on_c, 0, 73, 41
2, 68040, Note_on_c, 0, 69, 0
2, 68040, Note_on_c, 0, 68, 37
2, 68100, Note_on_c, 0, 68, 0
2, 68100, Note_on_c, 0, 69, 34
2, 68160, Note_on_c, 0, 69, 0
2, 68160, Note_on_c, 0, 68, 42
2, 68400, Note_on_c, 0, 68, 0
2, 68400, Note_on_c, 0, 67, 35
2, 68640, Note_on_c, 0, 67, 0
2, 68640, Note_on_c, 0, 68, 38
2, 68820, Note_on_c, 0, 68, 0
2, 68880, Note_on_c, 0, 68, 34
2, 69000, Note_on_c, 0, 68, 36
2, 69040, Note_on_c, 0, 68, 0
2, 69060, Note_on_c, 0, 73, 38
2, 69120, Note_on_c, 0, 73, 0
2, 69120, Note_on_c, 0, 80, 40
2, 70560, Note_on_c, 0, 80, 0
2, 70560, Note_on_c, 0, 73, 0
2, 70560, Note_on_c, 0, 68, 0
2, 71040, Note_on_c, 0, 61, 29
2, 72000, Note_on_c, 0, 61, 0
2, 72000, Note_on_c, 0, 57, 34
2, 72000, Note_on_c, 0, 61, 46
2, 72360, Note_on_c, 0, 61, 0
2, 72360, Note_on_c, 0, 61, 44
2, 72420, Note_on_c, 0, 61, 0
2, 72420, Note_on_c, 0, 64, 37
2, 72480, Note_on_c, 0, 64, 0
2, 72480, Note_on_c, 0, 62, 49
2, 73200, Note_on_c, 0, 62, 0
2, 73200, Note_on_c, 0, 61, 46
2, 73440, Note_on_c, 0, 61, 0
2, 73440, Note_on_c, 0, 57, 0
2, 73440, Note_on_c, 0, 57, 36
2, 73440, Note_on_c, 0, 59, 49
2, 73800, Note_on_c, 0, 59, 0
2, 73800, Note_on_c, 0, 61, 45
2, 73920, Note_on_c, 0, 61, 0
2, 73920, Note_on_c, 0, 62, 49
2, 74640, Note_on_c, 0, 62, 0
2, 74640, Note_on_c, 0, 61, 46
2, 74880, Note_on_c, 0, 61, 0
2, 74880, Note_on_c, 0, 57, 0
2, 74880, Note_on_c, 0, 57, 36
2, 74880, Note_on_c, 0, 59, 49
2, 75120, Note_on_c, 0, 59, 0
2, 75120, Note_on_c, 0, 61, 45
2, 75240, Note_on_c, 0, 62, 39
2, 75300, Note_on_c, 0, 62, 0
2, 75300, Note_on_c, 0, 61, 0
2, 75300, Note_on_c, 0, 64, 35
2, 75360, Note_on_c, 0, 64, 0
2, 75360, Note_on_c, 0, 57, 0
2, 75360, Note_on_c, 0, 57, 36
2, 75360, Note_on_c, 0, 59, 36
2, 75360, Note_on_c, 0, 62, 49
2, 75600, Note_on_c, 0, 62, 0
2, 75600, Note_on_c, 0, 61, 45
2, 75840, Note_on_c, 0, 61, 0
2, 75840, Note_on_c, 0, 59, 0
2, 75840, Note_on_c, 0, 57, 0
2, 75840, Note_on_c, 0, 57, 35
2, 75840, Note_on_c, 0, 59, 35
2, 75840, Note_on_c, 0, 62, 48
2, 76320, Note_on_c, 0, 62, 0
2, 76320, Note_on_c, 0, 59, 0
2, 76320, Note_on_c, 0, 57, 0
2, 76320, Note_on_c, 0, 57, 41
2, 76320, Note_on_c, 0, 60, 41
2, 76320, Note_on_c, 0, 63, 56
2, 76800, Note_on_c, 0, 63, 0
2, 76800, Note_on_c, 0, 69, 56
2, 77760, Note_on_c, 0, 69, 0
2, 77760, Note_on_c, 0, 60, 0
2, 77760, Note_on_c, 0, 57, 0
2, 77760, Note_on_c, 0, 59, 41
2, 77760, Note_on_c, 0, 64, 56
2, 78240, Note_on_c, 0, 64, 0
2, 78240, Note_on_c, 0, 59, 51
2, 78480, Note_on_c, 0, 59, 0
2, 78480, Note_on_c, 0, 61, 49
2, 78720, Note_on_c, 0, 61, 0
2, 78720, Note_on_c, 0, 59, 0
2, 78720, Note_on_c, 0, 58, 40
2, 78720, Note_on_c, 0, 61, 40
2, 78720, Note_on_c, 0, 66, 55
2, 78960, Note_on_c, 0, 66, 0
2, 78960, Note_on_c, 0, 64, 51
2, 79200, Note_on_c, 0, 64, 0
2, 79200, Note_on_c, 0, 61, 0
2, 79200, Note_on_c, 0, 58, 0
2, 79200, Note_on_c, 0, 57, 41
2, 79200, Note_on_c, 0, 64, 56
2, 79560, Note_on_c, 0, 64, 0
2, 79560, Note_on_c, 0, 62, 49
2, 79620, Note_on_c, 0, 62, 0
2, 79620, Note_on_c, 0, 64, 45
2, 79680, Note_on_c, 0, 64, 0
2, 79680, Note_on_c, 0, 57, 0
2, 79680, Note_on_c, 0, 57, 35
2, 79680, Note_on_c, 0, 62, 51
2, 79920, Note_on_c, 0, 62, 0
2, 79920, Note_on_c, 0, 61, 49
2, 80160, Note_on_c, 0, 61, 0
2, 80160, Note_on_c, 0, 57, 0
2, 80160, Note_on_c, 0, 57, 39
2, 80160, Note_on_c, 0, 62, 53
2, 80640, Note_on_c, 0, 62, 0
2, 80640, Note_on_c, 0, 57, 0
2, 80640, Note_on_c, 0, 54, 42
2, 80640, Note_on_c, 0, 61, 50
2, 81000, Note_on_c, 0, 61, 0
2, 81000, Note_on_c, 0, 61, 50
2, 81120, Note_on_c, 0, 61, 0
2, 81120, Note_on_c, 0, 54, 0
2, 81120, Note_on_c, 0, 54, 40
2, 81120, Note_on_c, 0, 59, 51
2, 81600, Note_on_c, 0, 66, 63
2, 82080, Note_on_c, 0, 66, 0
2, 82080, Note_on_c, 0, 59, 0
2, 82080, Note_on_c, 0, 54, 0
2, 82080, Note_on_c, 0, 54, 44
2, 82080, Note_on_c, 0, 59, 44
2, 82080, Note_on_c, 0, 68, 68
2, 82560, Note_on_c, 0, 54, 0
2, 83040, Note_on_c, 0, 68, 0
2, 83040, Note_on_c, 0, 61, 60
2, 83520, Note_on_c, 0, 61, 0
2, 83520, Note_on_c, 0, 59, 0
2, 83520, Note_on_c, 0, 69, 72
2, 84000, Note_on_c, 0, 57, 46
2, 84000, Note_on_c, 0, 63, 46
2, 84480, Note_on_c, 0, 63, 0
2, 84480, Note_on_c, 0, 57, 0
2, 84480, Note_on_c, 0, 69, 0
2, 84480, Note_on_c, 0, 57, 46
2, 84480, Note_on_c, 0, 63, 46
2, 84480, Note_on_c, 0, 68, 69
2, 84720, Note_on_c, 0, 68, 0
2, 84720, Note_on_c, 0, 66, 61
2, 84960, Note_on_c, 0, 66, 0
2, 84960, Note_on_c, 0, 63, 0
2, 84960, Note_on_c, 0, 57, 0
2, 84960, Note_on_c, 0, 66, 64
2, 85320, Note_on_c, 0, 64, 52
2, 85380, Note_on_c, 0, 64, 0
2, 85380, Note_on_c, 0, 66, 0
2, 85380, Note_on_c, 0, 66, 51
2, 85440, Note_on_c, 0, 66, 0
2, 85440, Note_on_c, 0, 57, 40
2, 85440, Note_on_c, 0, 64, 62
2, 85680, Note_on_c, 0, 64, 0
2, 85680, Note_on_c, 0, 63, 58
2, 85920, Note_on_c, 0, 63, 0
2, 85920, Note_on_c, 0, 57, 0
2, 85920, Note_on_c, 0, 57, 45
2, 85920, Note_on_c, 0, 64, 68
2, 86400, Note_on_c, 0, 64, 0
2, 86400, Note_on_c, 0, 57, 0
2, 86400, Note_on_c, 0, 69, 70
2, 86880, Note_on_c, 0, 57, 47
2, 86880, Note_on_c, 0, 64, 47
2, 87360, Note_on_c, 0, 64, 0
2, 87360, Note_on_c, 0, 57, 0
2, 87360, Note_on_c, 0, 69, 0
2, 87360, Note_on_c, 0, 57, 46
2, 87360, Note_on_c, 0, 64, 46
2, 87360, Note_on_c, 0, 68, 69
2, 87600, Note_on_c, 0, 68, 0
2, 87600, Note_on_c, 0, 67, 61
2, 87840, Note_on_c, 0, 67, 0
2, 87840, Note_on_c, 0, 64, 0
2, 87840, Note_on_c, 0, 57, 0
2, 87840, Note_on_c, 0, 67, 66
2, 88200, Note_on_c, 0, 66, 58
2, 88260, Note_on_c, 0, 66, 0
2, 88260, Note_on_c, 0, 67, 0
2, 88260, Note_on_c, 0, 67, 53
2, 88320, Note_on_c, 0, 67, 0
2, 88320, Note_on_c, 0, 57, 41
2, 88320, Note_on_c, 0, 62, 41
2, 88320, Note_on_c, 0, 66, 63
2, 88560, Note_on_c, 0, 66, 0
2, 88560, Note_on_c, 0, 65, 60
2, 88800, Note_on_c, 0, 65, 0
2, 88800, Note_on_c, 0, 62, 0
2, 88800, Note_on_c, 0, 57, 0
2, 88800, Note_on_c, 0, 57, 42
2, 88800, Note_on_c, 0, 62, 42
2, 88800, Note_on_c, 0, 66, 64
2, 89280, Note_on_c, 0, 66, 0
2, 89280, Note_on_c, 0, 62, 0
2, 89280, Note_on_c, 0, 57, 0
2, 89280, Note_on_c, 0, 73, 74
2, 89760, Note_on_c, 0, 61, 42
2, 89760, Note_on_c, 0, 68, 42
2, 90240, Note_on_c, 0, 68, 0
2, 90240, Note_on_c, 0, 61, 0
2, 90240, Note_on_c, 0, 73, 0
2, 90240, Note_on_c, 0, 61, 42
2, 90240, Note_on_c, 0, 68, 42
2, 90240, Note_on_c, 0, 72, 64
2, 90480, Note_on_c, 0, 72, 0
2, 90480, Note_on_c, 0, 71, 60
2, 90720, Note_on_c, 0, 71, 0
2, 90720, Note_on_c, 0, 68, 0
2, 90720, Note_on_c, 0, 61, 0
2, 90720, Note_on_c, 0, 69, 70
2, 91200, Note_on_c, 0, 57, 41
2, 91200, Note_on_c, 0, 61, 41
2, 91680, Note_on_c, 0, 61, 0
2, 91680, Note_on_c, 0, 57, 0
2, 91680, Note_on_c, 0, 69, 0
2, 91680, Note_on_c, 0, 57, 41
2, 91680, Note_on_c, 0, 61, 41
2, 91680, Note_on_c, 0, 68, 68
2, 91920, Note_on_c, 0, 68, 0
2, 91920, Note_on_c, 0, 66, 62
2, 92160, Note_on_c, 0, 66, 0
2, 92160, Note_on_c, 0, 61, 0
2, 92160, Note_on_c, 0, 57, 0
2, 92160, Note_on_c, 0, 66, 69
2, 92640, Note_on_c, 0, 57, 46
2, 92640, Note_on_c, 0, 63, 51
2, 92880, Note_on_c, 0, 66, 0
2, 92880, Note_on_c, 0, 66, 62
2, 93120, Note_on_c, 0, 66, 0
2, 93120, Note_on_c, 0, 63, 0
2, 93120, Note_on_c, 0, 57, 0
2, 93120, Note_on_c, 0, 57, 40
2, 93120, Note_on_c, 0, 63, 40
2, 93120, Note_on_c, 0, 68, 64
2, 93360, Note_on_c, 0, 68, 0
2, 93360, Note_on_c, 0, 66, 62
2, 93600, Note_on_c, 0, 66, 0
2, 93600, Note_on_c, 0, 63, 0
2, 93600, Note_on_c, 0, 57, 0
2, 93600, Note_on_c, 0, 66, 68
2, 94080, Note_on_c, 0, 56, 41
2, 94080, Note_on_c, 0, 62, 47
2, 94320, Note_on_c, 0, 66, 0
2, 94320, Note_on_c, 0, 64, 52
2, 94560, Note_on_c, 0, 64, 0
2, 94560, Note_on_c, 0, 62, 0
2, 94560, Note_on_c, 0, 56, 0
2, 94560, Note_on_c, 0, 57, 34
2, 94560, Note_on_c, 0, 63, 52
2, 94800, Note_on_c, 0, 63, 0
2, 94800, Note_on_c, 0, 57, 0
2, 94800, Note_on_c, 0, 59, 27
2, 94800, Note_on_c, 0, 62, 42
2, 95040, Note_on_c, 0, 62, 0
2, 95040, Note_on_c, 0, 59, 0
2, 95040, Note_on_c, 0, 61, 49
2, 95040, Note_on_c, 0, 69, 49
2, 95040, Note_on_c, 0, 73, 64
2, 95400, Note_on_c, 0, 73, 0
2, 95400, Note_on_c, 0, 69, 0
2, 95400, Note_on_c, 0, 61, 0
2, 95400, Note_on_c, 0, 73, 62
2, 95460, Note_on_c, 0, 73, 0
2, 95460, Note_on_c, 0, 76, 52
2, 95520, Note_on_c, 0, 76, 0
2, 95520, Note_on_c, 0, 69, 49
2, 95520, Note_on_c, 0, 74, 72
2, 96240, Note_on_c, 0, 74, 0
2, 96240, Note_on_c, 0, 73, 64
2, 96480, Note_on_c, 0, 73, 0
2, 96480, Note_on_c, 0, 69, 0
2, 96480, Note_on_c, 0, 62, 39
2, 96480, Note_on_c, 0, 69, 45
2, 96480, Note_on_c, 0, 71, 72
2, 96840, Note_on_c, 0, 71, 0
2, 96840, Note_on_c, 0, 73, 63
2, 96960, Note_on_c, 0, 73, 0
2, 96960, Note_on_c, 0, 69, 0
2, 96960, Note_on_c, 0, 62, 0
2, 96960, Note_on_c, 0, 71, 53
2, 96960, Note_on_c, 0, 69, 47
2, 96960, Note_on_c, 0, 74, 72
2, 97680, Note_on_c, 0, 74, 0
2, 97680, Note_on_c, 0, 73, 64
2, 97920, Note_on_c, 0, 73, 0
2, 97920, Note_on_c, 0, 69, 0
2, 97920, Note_on_c, 0, 71, 0
2, 97920, Note_on_c, 0, 62, 36
2, 97920, Note_on_c, 0, 69, 36
2, 97920, Note_on_c, 0, 71, 72
2, 98160, Note_on_c, 0, 71, 0
2, 98160, Note_on_c, 0, 73, 63
2, 98280, Note_on_c, 0, 74, 51
2, 98340, Note_on_c, 0, 74, 0
2, 98340, Note_on_c, 0, 73, 0
2, 98340, Note_on_c, 0, 76, 49
2, 98400, Note_on_c, 0, 76, 0
2, 98400, Note_on_c, 0, 69, 0
2, 98400, Note_on_c, 0, 62, 0
2, 98400, Note_on_c, 0, 69, 51
2, 98400, Note_on_c, 0, 71, 51
2, 98400, Note_on_c, 0, 74, 72
2, 98640, Note_on_c, 0, 74, 0
2, 98640, Note_on_c, 0, 73, 63
2, 98880, Note_on_c, 0, 73, 0
2, 98880, Note_on_c, 0, 71, 0
2, 98880, Note_on_c, 0, 69, 0
2, 98880, Note_on_c, 0, 69, 51
2, 98880, Note_on_c, 0, 71, 51
2, 98880, Note_on_c, 0, 74, 70
2, 99360, Note_on_c, 0, 74, 0
2, 99360, Note_on_c, 0, 71, 0
2, 99360, Note_on_c, 0, 69, 0
2, 99360, Note_on_c, 0, 69, 61
2, 99360, Note_on_c, 0, 72, 61
2, 99360, Note_on_c, 0, 75, 81
2, 99840, Note_on_c, 0, 75, 0
2, 99840, Note_on_c, 0, 81, 79
2, 100800, Note_on_c, 0, 81, 0
2, 100800, Note_on_c, 0, 72, 0
2, 100800, Note_on_c, 0, 69, 0
2, 100800, Note_on_c, 0, 76, 81
2, 101280, Note_on_c, 0, 76, 0
2, 101280, Note_on_c, 0, 64, 53
2, 101280, Note_on_c, 0, 71, 73
2, 101520, Note_on_c, 0, 71, 0
2, 101520, Note_on_c, 0, 73, 72
2, 101760, Note_on_c, 0, 73, 0
2, 101760, Note_on_c, 0, 64, 0
2, 101760, Note_on_c, 0, 70, 58
2, 101760, Note_on_c, 0, 73, 58
2, 101760, Note_on_c, 0, 78, 77
2, 102000, Note_on_c, 0, 78, 0
2, 102000, Note_on_c, 0, 76, 73
2, 102240, Note_on_c, 0, 76, 0
2, 102240, Note_on_c, 0, 73, 0
2, 102240, Note_on_c, 0, 70, 0
2, 102240, Note_on_c, 0, 76, 81
2, 102600, Note_on_c, 0, 76, 0
2, 102600, Note_on_c, 0, 74, 72
2, 102660, Note_on_c, 0, 74, 0
2, 102660, Note_on_c, 0, 76, 63
2, 102720, Note_on_c, 0, 76, 0
2, 102720, Note_on_c, 0, 69, 56
2, 102720, Note_on_c, 0, 74, 75
2, 102960, Note_on_c, 0, 74, 0
2, 102960, Note_on_c, 0, 73, 72
2, 103200, Note_on_c, 0, 73, 0
2, 103200, Note_on_c, 0, 69, 0
2, 103200, Note_on_c, 0, 62, 57
2, 103200, Note_on_c, 0, 69, 57
2, 103200, Note_on_c, 0, 74, 77
2, 103680, Note_on_c, 0, 74, 0
2, 103680, Note_on_c, 0, 69, 0
2, 103680, Note_on_c, 0, 62, 0
2, 103680, Note_on_c, 0, 73, 74
2, 104160, Note_on_c, 0, 73, 0
2, 104160, Note_on_c, 0, 61, 50
2, 104160, Note_on_c, 0, 68, 67
2, 104400, Note_on_c, 0, 68, 0
2, 104400, Note_on_c, 0, 70, 66
2, 104640, Note_on_c, 0, 70, 0
2, 104640, Note_on_c, 0, 61, 0
2, 104640, Note_on_c, 0, 67, 52
2, 104640, Note_on_c, 0, 70, 52
2, 104640, Note_on_c, 0, 74, 73
2, 104880, Note_on_c, 0, 74, 0
2, 104880, Note_on_c, 0, 73, 67
2, 105120, Note_on_c, 0, 73, 0
2, 105120, Note_on_c, 0, 70, 0
2, 105120, Note_on_c, 0, 67, 0
2, 105120, Note_on_c, 0, 73, 74
2, 105480, Note_on_c, 0, 73, 0
2, 105480, Note_on_c, 0, 71, 59
2, 105540, Note_on_c, 0, 71, 0
2, 105540, Note_on_c, 0, 73, 51
2, 105600, Note_on_c, 0, 73, 0
2, 105600, Note_on_c, 0, 66, 46
2, 105600, Note_on_c, 0, 71, 62
2, 105840, Note_on_c, 0, 71, 0
2, 105840, Note_on_c, 0, 70, 59
2, 106080, Note_on_c, 0, 70, 0
2, 106080, Note_on_c, 0, 66, 0
2, 106080, Note_on_c, 0, 59, 46
2, 106080, Note_on_c, 0, 66, 46
2, 106080, Note_on_c, 0, 71, 62
2, 106560, Note_on_c, 0, 71, 0
2, 106560, Note_on_c, 0, 66, 0
2, 106560, Note_on_c, 0, 59, 0
2, 106560, Note_on_c, 0, 71, 68
2, 106920, Note_on_c, 0, 71, 0
2, 106920, Note_on_c, 0, 71, 61
2, 107040, Note_on_c, 0, 71, 0
2, 107040, Note_on_c, 0, 59, 52
2, 107040, Note_on_c, 0, 66, 70
2, 107520, Note_on_c, 0, 66, 0
2, 107520, Note_on_c, 0, 68, 61
2, 108000, Note_on_c, 0, 68, 0
2, 108000, Note_on_c, 0, 59, 0
2, 108000, Note_on_c, 0, 66, 49
2, 108000, Note_on_c, 0, 68, 66
2, 108480, Note_on_c, 0, 68, 0
2, 108480, Note_on_c, 0, 66, 0
2, 108480, Note_on_c, 0, 65, 44
2, 108480, Note_on_c, 0, 73, 59
2, 109440, Note_on_c, 0, 73, 0
2, 109440, Note_on_c, 0, 65, 0
2, 109440, Note_on_c, 0, 71, 63
2, 109800, Note_on_c, 0, 71, 0
2, 109800, Note_on_c, 0, 71, 58
2, 109920, Note_on_c, 0, 71, 0
2, 109920, Note_on_c, 0, 59, 47
2, 109920, Note_on_c, 0, 66, 62
2, 110400, Note_on_c, 0, 66, 0
2, 110400, Note_on_c, 0, 68, 55
2, 110880, Note_on_c, 0, 68, 0
2, 110880, Note_on_c, 0, 59, 0
2, 110880, Note_on_c, 0, 66, 44
2, 110880, Note_on_c, 0, 68, 59
2, 111360, Note_on_c, 0, 68, 0
2, 111360, Note_on_c, 0, 66, 0
2, 111360, Note_on_c, 0, 65, 39
2, 111360, Note_on_c, 0, 73, 52
2, 112320, Note_on_c, 0, 73, 0
2, 112320, Note_on_c, 0, 65, 0
2, 112320, Note_on_c, 0, 66, 44
2, 112320, Note_on_c, 0, 68, 59
2, 112800, Note_on_c, 0, 68, 0
2, 112800, Note_on_c, 0, 66, 0
2, 112800, Note_on_c, 0, 65, 39
2, 112800, Note_on_c, 0, 73, 52
2, 113760, Note_on_c, 0, 73, 0
2, 113760, Note_on_c, 0, 65, 0
2, 113760, Note_on_c, 0, 66, 44
2, 113760, Note_on_c, 0, 68, 59
2, 114240, Note_on_c, 0, 68, 0
2, 114240, Note_on_c, 0, 66, 0
2, 114240, Note_on_c, 0, 65, 39
2, 114240, Note_on_c, 0, 73, 52
2, 115200, Note_on_c, 0, 73, 0
2, 115200, Note_on_c, 0, 65, 0
2, 115680, Note_on_c, 0, 68, 39
2, 115680, Note_on_c, 0, 66, 35
2, 116640, Note_on_c, 0, 66, 0
2, 116640, Note_on_c, 0, 68, 0
2, 117120, Note_on_c, 0, 68, 39
2, 117120, Note_on_c, 0, 66, 35
2, 118080, Note_on_c, 0, 66, 0
2, 118080, Note_on_c, 0, 68, 0
2, 118560, Note_on_c, 0, 68, 38
2, 118560, Note_on_c, 0, 66, 34
2, 119520, Note_on_c, 0, 66, 0
2, 119520, Note_on_c, 0, 68, 0
2, 120000, Note_on_c, 0, 56, 34
2, 120000, Note_on_c, 0, 54, 28
2, 120240, Note_on_c, 0, 54, 0
2, 120240, Note_on_c, 0, 56, 0
2, 120480, Note_on_c, 0, 56, 34
2, 120480, Note_on_c, 0, 54, 28
2, 120720, Note_on_c, 0, 54, 0
2, 120720, Note_on_c, 0, 56, 0
2, 121440, Note_on_c, 0, 56, 34
2, 121440, Note_on_c, 0, 54, 28
2, 121680, Note_on_c, 0, 54, 0
2, 121680, Note_on_c, 0, 56, 0
2, 121920, Note_on_c, 0, 56, 34
2, 121920, Note_on_c, 0, 54, 28
2, 122160, Note_on_c, 0, 54, 0
2, 122160, Note_on_c, 0, 56, 0
2, 122880, Note_on_c, 0, 61, 33
2, 122880, Note_on_c, 0, 65, 39
2, 123120, Note_on_c, 0, 65, 0
2, 123120, Note_on_c, 0, 61, 0
2, 123360, Note_on_c, 0, 61, 35
2, 123360, Note_on_c, 0, 65, 41
2, 123600, Note_on_c, 0, 65, 0
2, 123600, Note_on_c, 0, 61, 0
2, 124320, Note_on_c, 0, 68, 40
2, 124320, Note_on_c, 0, 66, 34
2, 124320, Note_on_c, 0, 63, 34
2, 124560, Note_on_c, 0, 63, 0
2, 124560, Note_on_c, 0, 66, 0
2, 124560, Note_on_c, 0, 68, 0
2, 124800, Note_on_c, 0, 68, 40
2, 124800, Note_on_c, 0, 66, 34
2, 124800, Note_on_c, 0, 63, 34
2, 125040, Note_on_c, 0, 63, 0
2, 125040, Note_on_c, 0, 66, 0
2, 125040, Note_on_c, 0, 68, 0
2, 125760, Note_on_c, 0, 68, 36
2, 125760, Note_on_c, 0, 61, 30
2, 125760, Note_on_c, 0, 65, 30
2, 126000, Note_on_c, 0, 65, 0
2, 126000, Note_on_c, 0, 61, 0
2, 126000, Note_on_c, 0, 68, 0
2, 126240, Note_on_c, 0, 61, 29
2, 126240, Note_on_c, 0, 65, 29
2, 126240, Note_on_c, 0, 68, 35
2, 126480, Note_on_c, 0, 68, 0
2, 126480, Note_on_c, 0, 65, 0
2, 126480, Note_on_c, 0, 61, 0
2, 127200, Note_on_c, 0, 56, 34
2, 127200, Note_on_c, 0, 54, 28
2, 127440, Note_on_c, 0, 54, 0
2, 127440, Note_on_c, 0, 56, 0
2, 127680, Note_on_c, 0, 56, 34
2, 127680, Note_on_c, 0, 54, 28
2, 127920, Note_on_c, 0, 54, 0
2, 127920, Note_on_c, 0, 56, 0
2, 128640, Note_on_c, 0, 61, 33
2, 128640, Note_on_c, 0, 65, 39
2, 128880, Note_on_c, 0, 65, 0
2, 128880, Note_on_c, 0, 61, 0
2, 129120, Note_on_c, 0, 61, 35
2, 129120, Note_on_c, 0, 65, 41
2, 129360, Note_on_c, 0, 65, 0
2, 129360, Note_on_c, 0, 61, 0
2, 130080, Note_on_c, 0, 67, 40
2, 130080, Note_on_c, 0, 64, 34
2, 130320, Note_on_c, 0, 64, 0
2, 130320, Note_on_c, 0, 67, 0
2, 130560, Note_on_c, 0, 67, 40
2, 130560, Note_on_c, 0, 64, 34
2, 130800, Note_on_c, 0, 64, 0
2, 130800, Note_on_c, 0, 67, 0
2, 131520, Note_on_c, 0, 69, 36
2, 131520, Note_on_c, 0, 65, 30
2, 131760, Note_on_c, 0, 65, 0
2, 131760, Note_on_c, 0, 69, 0
2, 132000, Note_on_c, 0, 65, 29
2, 132000, Note_on_c, 0, 69, 35
2, 132240, Note_on_c, 0, 69, 0
2, 132240, Note_on_c, 0, 65, 0
2, 132480, Note_on_c, 0, 62, 55
2, 132720, Note_on_c, 0, 62, 0
2, 132960, Note_on_c, 0, 64, 41
2, 132960, Note_on_c, 0, 69, 62
2, 133680, Note_on_c, 0, 69, 0
2, 133680, Note_on_c, 0, 67, 55
2, 133920, Note_on_c, 0, 67, 0
2, 133920, Note_on_c, 0, 64, 0
2, 133920, Note_on_c, 0, 65, 41
2, 133920, Note_on_c, 0, 69, 63
2, 134280, Note_on_c, 0, 69, 0
2, 134280, Note_on_c, 0, 70, 59
2, 134400, Note_on_c, 0, 70, 0
2, 134400, Note_on_c, 0, 72, 61
2, 134880, Note_on_c, 0, 72, 0
2, 134880, Note_on_c, 0, 65, 0
2, 134880, Note_on_c, 0, 65, 41
2, 134880, Note_on_c, 0, 74, 60
2, 135120, Note_on_c, 0, 74, 0
2, 135120, Note_on_c, 0, 77, 57
2, 135360, Note_on_c, 0, 77, 0
2, 135360, Note_on_c, 0, 65, 0
2, 135360, Note_on_c, 0, 70, 43
2, 135360, Note_on_c, 0, 77, 61
2, 135720, Note_on_c, 0, 77, 0
2, 135720, Note_on_c, 0, 76, 56
2, 135780, Note_on_c, 0, 76, 0
2, 135780, Note_on_c, 0, 77, 56
2, 135840, Note_on_c, 0, 77, 0
2, 135840, Note_on_c, 0, 70, 0
2, 135840, Note_on_c, 0, 70, 42
2, 135840, Note_on_c, 0, 76, 65
2, 136080, Note_on_c, 0, 76, 0
2, 136080, Note_on_c, 0, 74, 60
2, 136320, Note_on_c, 0, 74, 0
2, 136320, Note_on_c, 0, 70, 0
2, 136320, Note_on_c, 0, 70, 43
2, 136320, Note_on_c, 0, 76, 65
2, 136560, Note_on_c, 0, 76, 0
2, 136560, Note_on_c, 0, 72, 59
2, 136800, Note_on_c, 0, 72, 0
2, 136800, Note_on_c, 0, 70, 0
2, 136800, Note_on_c, 0, 65, 41
2, 136800, Note_on_c, 0, 74, 60
2, 137160, Note_on_c, 0, 74, 0
2, 137160, Note_on_c, 0, 72, 49
2, 137220, Note_on_c, 0, 72, 0
2, 137220, Note_on_c, 0, 74, 44
2, 137280, Note_on_c, 0, 74, 0
2, 137280, Note_on_c, 0, 65, 0
2, 137280, Note_on_c, 0, 65, 41
2, 137280, Note_on_c, 0, 72, 58
2, 137520, Note_on_c, 0, 72, 0
2, 137520, Note_on_c, 0, 69, 52
2, 137760, Note_on_c, 0, 69, 0
2, 137760, Note_on_c, 0, 65, 0
2, 137760, Note_on_c, 0, 65, 56
2, 138000, Note_on_c, 0, 69, 50
2, 138240, Note_on_c, 0, 69, 0
2, 138240, Note_on_c, 0, 65, 0
2, 138240, Note_on_c, 0, 62, 55
2, 138480, Note_on_c, 0, 62, 0
2, 138720, Note_on_c, 0, 64, 41
2, 138720, Note_on_c, 0, 69, 62
2, 139440, Note_on_c, 0, 69, 0
2, 139440, Note_on_c, 0, 67, 58
2, 139680, Note_on_c, 0, 67, 0
2, 139680, Note_on_c, 0, 64, 0
2, 139680, Note_on_c, 0, 65, 41
2, 139680, Note_on_c, 0, 69, 63
2, 140040, Note_on_c, 0, 69, 0
2, 140040, Note_on_c, 0, 70, 61
2, 140160, Note_on_c, 0, 70, 0
2, 140160, Note_on_c, 0, 72, 64
2, 140640, Note_on_c, 0, 72, 0
2, 140640, Note_on_c, 0, 65, 0
2, 140640, Note_on_c, 0, 65, 44
2, 140640, Note_on_c, 0, 74, 64
2, 140940, Note_on_c, 0, 74, 0
2, 140940, Note_on_c, 0, 65, 0
2, 141000, Note_on_c, 0, 64, 55
2, 141060, Note_on_c, 0, 70, 60
2, 141120, Note_on_c, 0, 74, 69
2, 141480, Note_on_c, 0, 74, 0
2, 141480, Note_on_c, 0, 70, 0
2, 141480, Note_on_c, 0, 64, 0
2, 141480, Note_on_c, 0, 72, 53
2, 141540, Note_on_c, 0, 72, 0
2, 141540, Note_on_c, 0, 74, 55
2, 141600, Note_on_c, 0, 74, 0
2, 141600, Note_on_c, 0, 72, 59
2, 141840, Note_on_c, 0, 72, 0
2, 141840, Note_on_c, 0, 70, 51
2, 142080, Note_on_c, 0, 70, 0
2, 142080, Note_on_c, 0, 69, 55
2, 142320, Note_on_c, 0, 69, 0
2, 142320, Note_on_c, 0, 67, 51
2, 142560, Note_on_c, 0, 67, 0
2, 142560, Note_on_c, 0, 69, 44
2, 142560, Note_on_c, 0, 64, 44
2, 142560, Note_on_c, 0, 72, 62
2, 142920, Note_on_c, 0, 72, 0
2, 142920, Note_on_c, 0, 64, 0
2, 142920, Note_on_c, 0, 69, 0
2, 142920, Note_on_c, 0, 67, 51
2, 142980, Note_on_c, 0, 67, 0
2, 142980, Note_on_c, 0, 69, 47
2, 143040, Note_on_c, 0, 69, 0
2, 143040, Note_on_c, 0, 67, 59
2, 143280, Note_on_c, 0, 67, 0
2, 143280, Note_on_c, 0, 65, 55
2, 143520, Note_on_c, 0, 65, 0
2, 143520, Note_on_c, 0, 64, 59
2, 143820, Note_on_c, 0, 64, 0
2, 143880, Note_on_c, 0, 58, 46
2, 143940, Note_on_c, 0, 62, 50
2, 144000, Note_on_c, 0, 69, 57
2, 144360, Note_on_c, 0, 69, 0
2, 144360, Note_on_c, 0, 62, 0
2, 144360, Note_on_c, 0, 58, 0
2, 144360, Note_on_c, 0, 67, 41
2, 144420, Note_on_c, 0, 67, 0
2, 144420, Note_on_c, 0, 69, 40
2, 144480, Note_on_c, 0, 69, 0
2, 144480, Note_on_c, 0, 67, 47
2, 144720, Note_on_c, 0, 67, 0
2, 144720, Note_on_c, 0, 65, 40
2, 144960, Note_on_c, 0, 65, 0
2, 144960, Note_on_c, 0, 64, 46
2, 145200, Note_on_c, 0, 64, 0
2, 145200, Note_on_c, 0, 62, 40
2, 145440, Note_on_c, 0, 62, 0
2, 145440, Note_on_c, 0, 58, 38
2, 145440, Note_on_c, 0, 60, 38
2, 146880, Note_on_c, 0, 60, 0
2, 146880, Note_on_c, 0, 58, 0
2, 147360, Note_on_c, 0, 56, 34
2, 147360, Note_on_c, 0, 54, 28
2, 147600, Note_on_c, 0, 54, 0
2, 147600, Note_on_c, 0, 56, 0
2, 147840, Note_on_c, 0, 56, 34
2, 147840, Note_on_c, 0, 54, 28
2, 148080, Note_on_c, 0, 54, 0
2, 148080, Note_on_c, 0, 56, 0
2, 148800, Note_on_c, 0, 61, 33
2, 148800, Note_on_c, 0, 65, 39
2, 149040, Note_on_c, 0, 65, 0
2, 149040, Note_on_c, 0, 61, 0
2, 149280, Note_on_c, 0, 61, 35
2, 149280, Note_on_c, 0, 65, 41
2, 149520, Note_on_c, 0, 65, 0
2, 149520, Note_on_c, 0, 61, 0
2, 150240, Note_on_c, 0, 68, 40
2, 150240, Note_on_c, 0, 66, 34
2, 150240, Note_on_c, 0, 63, 34
2, 150480, Note_on_c, 0, 63, 0
2, 150480, Note_on_c, 0, 66, 0
2, 150480, Note_on_c, 0, 68, 0
2, 150720, Note_on_c, 0, 68, 40
2, 150720, Note_on_c, 0, 66, 34
2, 150720, Note_on_c, 0, 63, 34
2, 150960, Note_on_c, 0, 63, 0
2, 150960, Note_on_c, 0, 66, 0
2, 150960, Note_on_c, 0, 68, 0
2, 151680, Note_on_c, 0, 68, 36
2, 151680, Note_on_c, 0, 61, 30
2, 151680, Note_on_c, 0, 65, 30
2, 151920, Note_on_c, 0, 65, 0
2, 151920, Note_on_c, 0, 61, 0
2, 151920, Note_on_c, 0, 68, 0
2, 152160, Note_on_c, 0, 61, 29
2, 152160, Note_on_c, 0, 65, 29
2, 152160, Note_on_c, 0, 68, 35
2, 152400, Note_on_c, 0, 68, 0
2, 152400, Note_on_c, 0, 65, 0
2, 152400, Note_on_c, 0, 61, 0
2, 153120, Note_on_c, 0, 56, 34
2, 153120, Note_on_c, 0, 54, 28
2, 153360, Note_on_c, 0, 54, 0
2, 153360, Note_on_c, 0, 56, 0
2, 153600, Note_on_c, 0, 56, 34
2, 153600, Note_on_c, 0, 54, 28
2, 153840, Note_on_c, 0, 54, 0
2, 153840, Note_on_c, 0, 56, 0
2, 154560, Note_on_c, 0, 61, 33
2, 154560, Note_on_c, 0, 65, 39
2, 154800, Note_on_c, 0, 65, 0
2, 154800, Note_on_c, 0, 61, 0
2, 155040, Note_on_c, 0, 61, 35
2, 155040, Note_on_c, 0, 65, 41
2, 155280, Note_on_c, 0, 65, 0
2, 155280, Note_on_c, 0, 61, 0
2, 156000, Note_on_c, 0, 67, 40
2, 156000, Note_on_c, 0, 64, 34
2, 156240, Note_on_c, 0, 64, 0
2, 156240, Note_on_c, 0, 67, 0
2, 156480, Note_on_c, 0, 67, 40
2, 156480, Note_on_c, 0, 64, 34
2, 156720, Note_on_c, 0, 64, 0
2, 156720, Note_on_c, 0, 67, 0
2, 157440, Note_on_c, 0, 68, 36
2, 157440, Note_on_c, 0, 65, 30
2, 157680, Note_on_c, 0, 65, 0
2, 157680, Note_on_c, 0, 68, 0
2, 157920, Note_on_c, 0, 65, 29
2, 157920, Note_on_c, 0, 68, 35
2, 158160, Note_on_c, 0, 68, 0
2, 158160, Note_on_c, 0, 65, 0
2, 158400, Note_on_c, 0, 70, 60
2, 158640, Note_on_c, 0, 70, 0
2, 158880, Note_on_c, 0, 72, 46
2, 158880, Note_on_c, 0, 77, 70
2, 159600, Note_on_c, 0, 77, 0
2, 159600, Note_on_c, 0, 75, 60
2, 159840, Note_on_c, 0, 75, 0
2, 159840, Note_on_c, 0, 72, 0
2, 159840, Note_on_c, 0, 73, 46
2, 159840, Note_on_c, 0, 77, 70
2, 160200, Note_on_c, 0, 77, 0
2, 160200, Note_on_c, 0, 78, 63
2, 160320, Note_on_c, 0, 78, 0
2, 160320, Note_on_c, 0, 80, 67
2, 160800, Note_on_c, 0, 80, 0
2, 160800, Note_on_c, 0, 73, 0
2, 160800, Note_on_c, 0, 80, 40
2, 160800, Note_on_c, 0, 73, 40
2, 160800, Note_on_c, 0, 82, 63
2, 161040, Note_on_c, 0, 82, 0
2, 161040, Note_on_c, 0, 85, 62
2, 161280, Note_on_c, 0, 85, 0
2, 161280, Note_on_c, 0, 73, 0
2, 161280, Note_on_c, 0, 80, 0
2, 161280, Note_on_c, 0, 73, 49
2, 161280, Note_on_c, 0, 78, 49
2, 161280, Note_on_c, 0, 85, 66
2, 161640, Note_on_c, 0, 85, 0
2, 161640, Note_on_c, 0, 84, 59
2, 161700, Note_on_c, 0, 84, 0
2, 161700, Note_on_c, 0, 85, 57
2, 161760, Note_on_c, 0, 85, 0
2, 161760, Note_on_c, 0, 78, 0
2, 161760, Note_on_c, 0, 73, 0
2, 161760, Note_on_c, 0, 72, 41
2, 161760, Note_on_c, 0, 78, 41
2, 161760, Note_on_c, 0, 84, 67
2, 162000, Note_on_c, 0, 84, 0
2, 162000, Note_on_c, 0, 82, 64
2, 162240, Note_on_c, 0, 82, 0
2, 162240, Note_on_c, 0, 78, 0
2, 162240, Note_on_c, 0, 72, 0
2, 162240, Note_on_c, 0, 72, 43
2, 162240, Note_on_c, 0, 78, 43
2, 162240, Note_on_c, 0, 84, 67
2, 162480, Note_on_c, 0, 84, 0
2, 162480, Note_on_c, 0, 80, 63
2, 162720, Note_on_c, 0, 80, 0
2, 162720, Note_on_c, 0, 78, 0
2, 162720, Note_on_c, 0, 72, 0
2, 162720, Note_on_c, 0, 73, 46
2, 162720, Note_on_c, 0, 82, 66
2, 163080, Note_on_c, 0, 82, 0
2, 163080, Note_on_c, 0, 80, 55
2, 163140, Note_on_c, 0, 80, 0
2, 163140, Note_on_c, 0, 82, 50
2, 163200, Note_on_c, 0, 82, 0
2, 163200, Note_on_c, 0, 73, 0
2, 163200, Note_on_c, 0, 73, 46
2, 163200, Note_on_c, 0, 80, 66
2, 163440, Note_on_c, 0, 80, 0
2, 163440, Note_on_c, 0, 77, 57
2, 163680, Note_on_c, 0, 77, 0
2, 163680, Note_on_c, 0, 73, 0
2, 163680, Note_on_c, 0, 73, 63
2, 163920, Note_on_c, 0, 77, 56
2, 164160, Note_on_c, 0, 77, 0
2, 164160, Note_on_c, 0, 73, 0
2, 164160, Note_on_c, 0, 70, 60
2, 164400, Note_on_c, 0, 70, 0
2, 164640, Note_on_c, 0, 72, 46
2, 164640, Note_on_c, 0, 77, 70
2, 165360, Note_on_c, 0, 77, 0
2, 165360, Note_on_c, 0, 75, 65
2, 165600, Note_on_c, 0, 75, 0
2, 165600, Note_on_c, 0, 72, 0
2, 165600, Note_on_c, 0, 73, 46
2, 165600, Note_on_c, 0, 77, 70
2, 165960, Note_on_c, 0, 77, 0
2, 165960, Note_on_c, 0, 78, 66
2, 166080, Note_on_c, 0, 78, 0
2, 166080, Note_on_c, 0, 80, 69
2, 166560, Note_on_c, 0, 80, 0
2, 166560, Note_on_c, 0, 73, 0
2, 166560, Note_on_c, 0, 80, 49
2, 166560, Note_on_c, 0, 73, 49
2, 166560, Note_on_c, 0, 82, 70
2, 166920, Note_on_c, 0, 82, 0
2, 166920, Note_on_c, 0, 73, 0
2, 166920, Note_on_c, 0, 80, 0
2, 166920, Note_on_c, 0, 72, 60
2, 166980, Note_on_c, 0, 78, 68
2, 167040, Note_on_c, 0, 82, 75
2, 167400, Note_on_c, 0, 82, 0
2, 167400, Note_on_c, 0, 78, 0
2, 167400, Note_on_c, 0, 72, 0
2, 167400, Note_on_c, 0, 80, 57
2, 167460, Note_on_c, 0, 80, 0
2, 167460, Note_on_c, 0, 82, 55
2, 167520, Note_on_c, 0, 82, 0
2, 167520, Note_on_c, 0, 80, 67
2, 167760, Note_on_c, 0, 80, 0
2, 167760, Note_on_c, 0, 78, 57
2, 168000, Note_on_c, 0, 78, 0
2, 168000, Note_on_c, 0, 77, 60
2, 168240, Note_on_c, 0, 77, 0
2, 168240, Note_on_c, 0, 75, 55
2, 168360, Note_on_c, 0, 75, 0
2, 168360, Note_on_c, 0, 66, 43
2, 168420, Note_on_c, 0, 70, 56
2, 168480, Note_on_c, 0, 77, 68
2, 168840, Note_on_c, 0, 77, 0
2, 168840, Note_on_c, 0, 70, 0
2, 168840, Note_on_c, 0, 66, 0
2, 168840, Note_on_c, 0, 75, 52
2, 168900, Note_on_c, 0, 75, 0
2, 168900, Note_on_c, 0, 77, 56
2, 168960, Note_on_c, 0, 77, 0
2, 168960, Note_on_c, 0, 75, 60
2, 169200, Note_on_c, 0, 75, 0
2, 169200, Note_on_c, 0, 73, 52
2, 169440, Note_on_c, 0, 73, 0
2, 169440, Note_on_c, 0, 72, 57
2, 169680, Note_on_c, 0, 72, 0
2, 169680, Note_on_c, 0, 70, 52
2, 169920, Note_on_c, 0, 70, 0
2, 169920, Note_on_c, 0, 63, 54
2, 169920, Note_on_c, 0, 66, 54
2, 169920, Note_on_c, 0, 70, 59
2, 170280, Note_on_c, 0, 70, 0
2, 170280, Note_on_c, 0, 66, 0
2, 170280, Note_on_c, 0, 63, 0
2, 170280, Note_on_c, 0, 68, 54
2, 170340, Note_on_c, 0, 68, 0
2, 170340, Note_on_c, 0, 70, 54
2, 170400, Note_on_c, 0, 70, 0
2, 170400, Note_on_c, 0, 68, 59
2, 170640, Note_on_c, 0, 68, 0
2, 170640, Note_on_c, 0, 66, 53
2, 170880, Note_on_c, 0, 66, 0
2, 170880, Note_on_c, 0, 63, 48
2, 170880, Note_on_c, 0, 65, 55
2, 171360, Note_on_c, 0, 65, 0
2, 171360, Note_on_c, 0, 63, 0
2, 171360, Note_on_c, 0, 61, 54
2, 171360, Note_on_c, 0, 68, 59
2, 171720, Note_on_c, 0, 68, 0
2, 171720, Note_on_c, 0, 61, 0
2, 171720, Note_on_c, 0, 66, 46
2, 171780, Note_on_c, 0, 66, 0
2, 171780, Note_on_c, 0, 68, 52
2, 171840, Note_on_c, 0, 68, 0
2, 171840, Note_on_c, 0, 66, 58
2, 172080, Note_on_c, 0, 66, 0
2, 172080, Note_on_c, 0, 65, 49
2, 172320, Note_on_c, 0, 65, 0
2, 172320, Note_on_c, 0, 61, 54
2, 172320, Note_on_c, 0, 63, 59
2, 172560, Note_on_c, 0, 63, 0
2, 172560, Note_on_c, 0, 64, 62
2, 172740, Note_on_c, 0, 64, 0
2, 172740, Note_on_c, 0, 61, 57
2, 172800, Note_on_c, 0, 61, 0
2, 172800, Note_on_c, 0, 65, 70
2, 173160, Note_on_c, 0, 65, 0
2, 173160, Note_on_c, 0, 61, 0
2, 173160, Note_on_c, 0, 63, 58
2, 173220, Note_on_c, 0, 63, 0
2, 173220, Note_on_c, 0, 65, 59
2, 173280, Note_on_c, 0, 65, 0
2, 173280, Note_on_c, 0, 63, 64
2, 173520, Note_on_c, 0, 63, 0
2, 173520, Note_on_c, 0, 61, 48
2, 173760, Note_on_c, 0, 61, 0
2, 173760, Note_on_c, 0, 60, 61
2, 174000, Note_on_c, 0, 60, 0
2, 174000, Note_on_c, 0, 58, 55
2, 174240, Note_on_c, 0, 58, 0
2, 174240, Note_on_c, 0, 54, 48
2, 174240, Note_on_c, 0, 56, 48
2, 175680, Note_on_c, 0, 56, 0
2, 175680, Note_on_c, 0, 54, 0
2, 176160, Note_on_c, 0, 53, 49
2, 176160, Note_on_c, 0, 61, 49
2, 177120, Note_on_c, 0, 61, 0
2, 177120, Note_on_c, 0, 53, 0
2, 177120, Note_on_c, 0, 54, 49
2, 177120, Note_on_c, 0, 58, 49
2, 177300, Note_on_c, 0, 58, 0
2, 177300, Note_on_c, 0, 54, 0
2, 177600, Note_on_c, 0, 65, 55
2, 178560, Note_on_c, 0, 65, 0
2, 178560, Note_on_c, 0, 54, 49
2, 178560, Note_on_c, 0, 59, 49
2, 178740, Note_on_c, 0, 59, 0
2, 178740, Note_on_c, 0, 54, 0
2, 179040, Note_on_c, 0, 65, 55
2, 180000, Note_on_c, 0, 65, 0
2, 180000, Note_on_c, 0, 54, 49
2, 180000, Note_on_c, 0, 60, 49
2, 180180, Note_on_c, 0, 60, 0
2, 180180, Note_on_c, 0, 54, 0
2, 180480, Note_on_c, 0, 65, 55
2, 181380, Note_on_c, 0, 65, 0
2, 181380, Note_on_c, 0, 56, 46
2, 181440, Note_on_c, 0, 56, 0
2, 181440, Note_on_c, 0, 61, 46
2, 181440, Note_on_c, 0, 65, 51
2, 181680, Note_on_c, 0, 65, 0
2, 181680, Note_on_c, 0, 61, 0
2, 181680, Note_on_c, 0, 60, 50
2, 181920, Note_on_c, 0, 60, 0
2, 181920, Note_on_c, 0, 59, 49
2, 182160, Note_on_c, 0, 59, 0
2, 182160, Note_on_c, 0, 58, 48
2, 182280, Note_on_c, 0, 57, 41
2, 182340, Note_on_c, 0, 57, 0
2, 182340, Note_on_c, 0, 58, 0
2, 182340, Note_on_c, 0, 58, 37
2, 182400, Note_on_c, 0, 58, 0
2, 182400, Note_on_c, 0, 57, 47
2, 182640, Note_on_c, 0, 57, 0
2, 182640, Note_on_c, 0, 56, 46
2, 182880, Note_on_c, 0, 56, 0
2, 182880, Note_on_c, 0, 66, 49
2, 182880, Note_on_c, 0, 70, 49
2, 183060, Note_on_c, 0, 70, 0
2, 183060, Note_on_c, 0, 66, 0
2, 183360, Note_on_c, 0, 77, 57
2, 184320, Note_on_c, 0, 77, 0
2, 184320, Note_on_c, 0, 66, 49
2, 184320, Note_on_c, 0, 71, 49
2, 184500, Note_on_c, 0, 71, 0
2, 184500, Note_on_c, 0, 66, 0
2, 184800, Note_on_c, 0, 77, 57
2, 185760, Note_on_c, 0, 77, 0
2, 185760, Note_on_c, 0, 66, 49
2, 185760, Note_on_c, 0, 72, 49
2, 185940, Note_on_c, 0, 72, 0
2, 185940, Note_on_c, 0, 66, 0
2, 186240, Note_on_c, 0, 77, 56
2, 187140, Note_on_c, 0, 77, 0
2, 187140, Note_on_c, 0, 68, 47
2, 187200, Note_on_c, 0, 68, 0
2, 187200, Note_on_c, 0, 73, 51
2, 187200, Note_on_c, 0, 77, 51
2, 187440, Note_on_c, 0, 77, 0
2, 187440, Note_on_c, 0, 73, 0
2, 187440, Note_on_c, 0, 72, 50
2, 187680, Note_on_c, 0, 72, 0
2, 187680, Note_on_c, 0, 71, 49
2, 187920, Note_on_c, 0, 71, 0
2, 187920, Note_on_c, 0, 70, 48
2, 188040, Note_on_c, 0, 69, 41
2, 188100, Note_on_c, 0, 69, 0
2, 188100, Note_on_c, 0, 70, 0
2, 188100, Note_on_c, 0, 70, 37
2, 188160, Note_on_c, 0, 70, 0
2, 188160, Note_on_c, 0, 69, 47
2, 188400, Note_on_c, 0, 69, 0
2, 188400, Note_on_c, 0, 68, 46
2, 188640, Note_on_c, 0, 68, 0
2, 188640, Note_on_c, 0, 73, 41
2, 188640, Note_on_c, 0, 69, 42
2, 189000, Note_on_c, 0, 69, 0
2, 189000, Note_on_c, 0, 68, 37
2, 189060, Note_on_c, 0, 68, 0
2, 189060, Note_on_c, 0, 69, 34
2, 189120, Note_on_c, 0, 69, 0
2, 189120, Note_on_c, 0, 68, 42
2, 189360, Note_on_c, 0, 68, 0
2, 189360, Note_on_c, 0, 67, 35
2, 189600, Note_on_c, 0, 67, 0
2, 189600, Note_on_c, 0, 68, 38
2, 189780, Note_on_c, 0, 68, 0
2, 189840, Note_on_c, 0, 68, 34
2, 189960, Note_on_c, 0, 68, 36
2, 190000, Note_on_c, 0, 68, 0
2, 190020, Note_on_c, 0, 73, 38
2, 190080, Note_on_c, 0, 73, 0
2, 190080, Note_on_c, 0, 80, 40
2, 191520, Note_on_c, 0, 80, 0
2, 191520, Note_on_c, 0, 73, 0
2, 191520, Note_on_c, 0, 68, 0
2, 191520, End_track
3, 0, Start_track
3, 0, MIDI_port, 0
3, 0, Title_t, "Piano left"
3, 0, Program_c, 0, 0
3, 0, Control_c, 0, 7, 100
3, 0, Note_on_c, 0, 48, 44
3, 240, Note_on_c, 0, 48, 0
3, 417, Control_c, 0, 64, 127
3, 480, Note_on_c, 0, 53, 49
3, 771, Control_c, 0, 64, 0
3, 1200, Note_on_c, 0, 53, 0
3, 1200, Note_on_c, 0, 51, 44
3, 1440, Note_on_c, 0, 51, 0
3, 1440, Note_on_c, 0, 53, 49
3, 1454, Control_c, 0, 64, 127
3, 1800, Note_on_c, 0, 53, 0
3, 1800, Note_on_c, 0, 54, 45
3, 1878, Control_c, 0, 64, 0
3, 1920, Note_on_c, 0, 54, 0
3, 1920, Note_on_c, 0, 56, 48
3, 2400, Note_on_c, 0, 56, 0
3, 2400, Note_on_c, 0, 58, 47
3, 2640, Note_on_c, 0, 58, 0
3, 2640, Note_on_c, 0, 61, 49
3, 2880, Note_on_c, 0, 61, 0
3, 2880, Control_c, 0, 64, 127
3, 2880, Note_on_c, 0, 61, 53
3, 3240, Note_on_c, 0, 61, 0
3, 3240, Note_on_c, 0, 60, 47
3, 3300, Note_on_c, 0, 60, 0
3, 3300, Note_on_c, 0, 61, 50
3, 3360, Note_on_c, 0, 61, 0
3, 3360, Note_on_c, 0, 60, 55
3, 3587, Control_c, 0, 64, 0
3, 3600, Note_on_c, 0, 60, 0
3, 3600, Note_on_c, 0, 58, 50
3, 3840, Note_on_c, 0, 58, 0
3, 3840, Note_on_c, 0, 60, 54
3, 4080, Note_on_c, 0, 60, 0
3, 4080, Note_on_c, 0, 56, 49
3, 4320, Note_on_c, 0, 56, 0
3, 4320, Note_on_c, 0, 58, 52
3, 4391, Control_c, 0, 64, 127
3, 4680, Note_on_c, 0, 58, 0
3, 4680, Note_on_c, 0, 56, 44
3, 4740, Note_on_c, 0, 56, 0
3, 4740, Note_on_c, 0, 58, 44
3, 4744, Control_c, 0, 64, 0
3, 4800, Note_on_c, 0, 58, 0
3, 4800, Note_on_c, 0, 56, 52
3, 4828, Control_c, 0, 64, 127
3, 5040, Note_on_c, 0, 56, 0
3, 5040, Note_on_c, 0, 53, 46
3, 5280, Note_on_c, 0, 53, 0
3, 5280, Note_on_c, 0, 49, 49
3, 5478, Control_c, 0, 64, 0
3, 5520, Note_on_c, 0, 49, 0
3, 5520, Note_on_c, 0, 53, 45
3, 5760, Note_on_c, 0, 53, 0
3, 5760, Note_on_c, 0, 48, 48
3, 6000, Note_on_c, 0, 48, 0
3, 6177, Control_c, 0, 64, 127
3, 6240, Note_on_c, 0, 53, 52
3, 6531, Control_c, 0, 64, 0
3, 6960, Note_on_c, 0, 53, 0
3, 6960, Note_on_c, 0, 51, 46
3, 7200, Note_on_c, 0, 51, 0
3, 7200, Note_on_c, 0, 53, 50
3, 7214, Control_c, 0, 64, 127
3, 7560, Note_on_c, 0, 53, 0
3, 7560, Note_on_c, 0, 54, 47
3, 7638, Control_c, 0, 64, 0
3, 7680, Note_on_c, 0, 54, 0
3, 7680, Note_on_c, 0, 56, 52
3, 8160, Note_on_c, 0, 56, 0
3, 8160, Note_on_c, 0, 58, 46
3, 8400, Note_on_c, 0, 58, 0
3, 8400, Note_on_c, 0, 61, 49
3, 8640, Note_on_c, 0, 61, 0
3, 8640, Control_c, 0, 64, 127
3, 8640, Note_on_c, 0, 61, 53
3, 9120, Note_on_c, 0, 61, 0
3, 9120, Note_on_c, 0, 60, 54
3, 9347, Control_c, 0, 64, 0
3, 9360, Note_on_c, 0, 60, 0
3, 9360, Note_on_c, 0, 61, 50
3, 9600, Note_on_c, 0, 61, 0
3, 9600, Note_on_c, 0, 60, 54
3, 9840, Note_on_c, 0, 60, 0
3, 9840, Note_on_c, 0, 58, 49
3, 10080, Note_on_c, 0, 58, 0
3, 10080, Note_on_c, 0, 57, 52
3, 10151, Control_c, 0, 64, 127
3, 10440, Note_on_c, 0, 57, 0
3, 10440, Note_on_c, 0, 58, 44
3, 10504, Control_c, 0, 64, 0
3, 10560, Note_on_c, 0, 58, 0
3, 10560, Note_on_c, 0, 60, 52
3, 10588, Control_c, 0, 64, 127
3, 11040, Note_on_c, 0, 60, 0
3, 11040, Note_on_c, 0, 48, 49
3, 11238, Control_c, 0, 64, 0
3, 11280, Note_on_c, 0, 48, 0
3, 11520, Note_on_c, 0, 59, 41
3, 11977, Control_c, 0, 64, 127
3, 12000, Note_on_c, 0, 60, 43
3, 12354, Control_c, 0, 64, 0
3, 12480, Note_on_c, 0, 59, 0
3, 12480, Note_on_c, 0, 58, 41
3, 12960, Note_on_c, 0, 58, 0
3, 12960, Note_on_c, 0, 60, 0
3, 12960, Note_on_c, 0, 57, 41
3, 13002, Control_c, 0, 64, 127
3, 13440, Note_on_c, 0, 60, 45
3, 13468, Control_c, 0, 64, 0
3, 13920, Note_on_c, 0, 57, 0
3, 13920, Note_on_c, 0, 56, 44
3, 14400, Note_on_c, 0, 56, 0
3, 14400, Note_on_c, 0, 60, 0
3, 14400, Control_c, 0, 64, 127
3, 14400, Note_on_c, 0, 54, 46
3, 14880, Note_on_c, 0, 60, 51
3, 15117, Control_c, 0, 64, 0
3, 15360, Note_on_c, 0, 54, 0
3, 15360, Note_on_c, 0, 48, 47
3, 15840, Note_on_c, 0, 48, 0
3, 15840, Note_on_c, 0, 56, 44
3, 15914, Control_c, 0, 64, 127
3, 16274, Control_c, 0, 64, 0
3, 16320, Note_on_c, 0, 56, 0
3, 16320, Note_on_c, 0, 57, 44
3, 16363, Control_c, 0, 64, 127
3, 16800, Note_on_c, 0, 57, 0
3, 16800, Note_on_c, 0, 48, 36
3, 17011, Control_c, 0, 64, 0
3, 17280, Note_on_c, 0, 48, 0
3, 17280, Note_on_c, 0, 60, 0
3, 17280, Note_on_c, 0, 59, 41
3, 17749, Control_c, 0, 64, 127
3, 17760, Note_on_c, 0, 60, 46
3, 18114, Control_c, 0, 64, 0
3, 18240, Note_on_c, 0, 59, 0
3, 18240, Note_on_c, 0, 58, 41
3, 18720, Note_on_c, 0, 58, 0
3, 18720, Note_on_c, 0, 60, 0
3, 18720, Note_on_c, 0, 57, 41
3, 18738, Control_c, 0, 64, 127
3, 19165, Control_c, 0, 64, 0
3, 19200, Note_on_c, 0, 60, 50
3, 19680, Note_on_c, 0, 57, 0
3, 19680, Note_on_c, 0, 56, 44
3, 19980, Note_on_c, 0, 56, 0
3, 19980, Note_on_c, 0, 60, 0
3, 19980, Note_on_c, 0, 55, 46
3, 20001, Control_c, 0, 64, 127
3, 20615, Control_c, 0, 64, 0
3, 20640, Note_on_c, 0, 55, 0
3, 20640, Note_on_c, 0, 60, 51
3, 20644, Control_c, 0, 64, 127
3, 21508, Control_c, 0, 64, 0
3, 21600, Note_on_c, 0, 60, 0
3, 21600, Note_on_c, 0, 58, 44
3, 21686, Control_c, 0, 64, 127
3, 22034, Control_c, 0, 64, 0
3, 22080, Note_on_c, 0, 58, 0
3, 22080, Note_on_c, 0, 60, 40
3, 22120, Control_c, 0, 64, 127
3, 22771, Control_c, 0, 64, 0
3, 22860, Note_on_c, 0, 60, 0
3, 22860, Control_c, 0, 64, 127
3, 22860, Note_on_c, 0, 53, 46
3, 23497, Control_c, 0, 64, 0
3, 23520, Note_on_c, 0, 53, 0
3, 23520, Note_on_c, 0, 58, 38
3, 23529, Control_c, 0, 64, 127
3, 24403, Control_c, 0, 64, 0
3, 24480, Note_on_c, 0, 58, 0
3, 24480, Note_on_c, 0, 53, 45
3, 24543, Control_c, 0, 64, 127
3, 24840, Note_on_c, 0, 53, 0
3, 24840, Note_on_c, 0, 52, 38
3, 24900, Note_on_c, 0, 52, 0
3, 24900, Note_on_c, 0, 53, 34
3, 24929, Control_c, 0, 64, 0
3, 24960, Note_on_c, 0, 53, 0
3, 24960, Note_on_c, 0, 52, 42
3, 25003, Control_c, 0, 64, 127
3, 25200, Note_on_c, 0, 52, 0
3, 25200, Note_on_c, 0, 50, 39
3, 25417, Control_c, 0, 64, 0
3, 25440, Note_on_c, 0, 50, 0
3, 25440, Note_on_c, 0, 48, 37
3, 25920, Note_on_c, 0, 48, 0
3, 25920, Note_on_c, 0, 48, 41
3, 26160, Note_on_c, 0, 48, 0
3, 26337, Control_c, 0, 64, 127
3, 26400, Note_on_c, 0, 53, 51
3, 26691, Control_c, 0, 64, 0
3, 27120, Note_on_c, 0, 53, 0
3, 27120, Note_on_c, 0, 51, 46
3, 27360, Note_on_c, 0, 51, 0
3, 27360, Note_on_c, 0, 53, 51
3, 27374, Control_c, 0, 64, 127
3, 27720, Note_on_c, 0, 53, 0
3, 27720, Note_on_c, 0, 54, 46
3, 27798, Control_c, 0, 64, 0
3, 27840, Note_on_c, 0, 54, 0
3, 27840, Note_on_c, 0, 56, 51
3, 28320, Note_on_c, 0, 56, 0
3, 28320, Note_on_c, 0, 58, 47
3, 28560, Note_on_c, 0, 58, 0
3, 28560, Note_on_c, 0, 61, 50
3, 28800, Note_on_c, 0, 61, 0
3, 28800, Control_c, 0, 64, 127
3, 28800, Note_on_c, 0, 61, 53
3, 29160, Note_on_c, 0, 61, 0
3, 29160, Note_on_c, 0, 60, 47
3, 29220, Note_on_c, 0, 60, 0
3, 29220, Note_on_c, 0, 61, 52
3, 29280, Note_on_c, 0, 61, 0
3, 29280, Note_on_c, 0, 60, 54
3, 29507, Control_c, 0, 64, 0
3, 29520, Note_on_c, 0, 60, 0
3, 29520, Note_on_c, 0, 58, 50
3, 29760, Note_on_c, 0, 58, 0
3, 29760, Note_on_c, 0, 60, 54
3, 30000, Note_on_c, 0, 60, 0
3, 30000, Note_on_c, 0, 56, 49
3, 30240, Note_on_c, 0, 56, 0
3, 30240, Note_on_c, 0, 58, 52
3, 30311, Control_c, 0, 64, 127
3, 30600, Note_on_c, 0, 58, 0
3, 30600, Note_on_c, 0, 56, 44
3, 30660, Note_on_c, 0, 56, 0
3, 30660, Note_on_c, 0, 58, 44
3, 30664, Control_c, 0, 64, 0
3, 30720, Note_on_c, 0, 58, 0
3, 30720, Note_on_c, 0, 56, 52
3, 30748, Control_c, 0, 64, 127
3, 30960, Note_on_c, 0, 56, 0
3, 30960, Note_on_c, 0, 53, 46
3, 31200, Note_on_c, 0, 53, 0
3, 31200, Note_on_c, 0, 49, 49
3, 31398, Control_c, 0, 64, 0
3, 31440, Note_on_c, 0, 49, 0
3, 31440, Note_on_c, 0, 53, 45
3, 31680, Note_on_c, 0, 53, 0
3, 31680, Note_on_c, 0, 48, 47
3, 31920, Note_on_c, 0, 48, 0
3, 32097, Control_c, 0, 64, 127
3, 32160, Note_on_c, 0, 53, 52
3, 32451, Control_c, 0, 64, 0
3, 32880, Note_on_c, 0, 53, 0
3, 32880, Note_on_c, 0, 51, 48
3, 33120, Note_on_c, 0, 51, 0
3, 33120, Note_on_c, 0, 53, 52
3, 33134, Control_c, 0, 64, 127
3, 33480, Note_on_c, 0, 53, 0
3, 33480, Note_on_c, 0, 54, 47
3, 33558, Control_c, 0, 64, 0
3, 33600, Note_on_c, 0, 54, 0
3, 33600, Note_on_c, 0, 56, 52
3, 34080, Note_on_c, 0, 56, 0
3, 34080, Note_on_c, 0, 58, 47
3, 34320, Note_on_c, 0, 58, 0
3, 34320, Note_on_c, 0, 61, 50
3, 34560, Note_on_c, 0, 61, 0
3, 34560, Control_c, 0, 64, 127
3, 34560, Note_on_c, 0, 61, 53
3, 35040, Note_on_c, 0, 61, 0
3, 35040, Note_on_c, 0, 60, 54
3, 35267, Control_c, 0, 64, 0
3, 35280, Note_on_c, 0, 60, 0
3, 35280, Note_on_c, 0, 61, 50
3, 35520, Note_on_c, 0, 61, 0
3, 35520, Note_on_c, 0, 60, 54
3, 35760, Note_on_c, 0, 60, 0
3, 35760, Note_on_c, 0, 58, 49
3, 36000, Note_on_c, 0, 58, 0
3, 36000, Note_on_c, 0, 56, 52
3, 36071, Control_c, 0, 64, 127
3, 36360, Note_on_c, 0, 56, 0
3, 36360, Note_on_c, 0, 58, 44
3, 36424, Control_c, 0, 64, 0
3, 36480, Note_on_c, 0, 58, 0
3, 36480, Note_on_c, 0, 60, 52
3, 36508, Control_c, 0, 64, 127
3, 36960, Note_on_c, 0, 60, 0
3, 36960, Note_on_c, 0, 48, 49
3, 37158, Control_c, 0, 64, 0
3, 37200, Note_on_c, 0, 48, 0
3, 37440, Note_on_c, 0, 43, 38
3, 37440, Note_on_c, 0, 55, 46
3, 37897, Control_c, 0, 64, 127
3, 37920, Note_on_c, 0, 56, 51
3, 38274, Control_c, 0, 64, 0
3, 38400, Note_on_c, 0, 55, 0
3, 38400, Note_on_c, 0, 43, 0
3, 38400, Note_on_c, 0, 42, 38
3, 38400, Note_on_c, 0, 54, 46
3, 38880, Note_on_c, 0, 54, 0
3, 38880, Note_on_c, 0, 42, 0
3, 38880, Note_on_c, 0, 56, 0
3, 38880, Note_on_c, 0, 41, 38
3, 38880, Note_on_c, 0, 53, 46
3, 38922, Control_c, 0, 64, 127
3, 39360, Note_on_c, 0, 56, 56
3, 39388, Control_c, 0, 64, 0
3, 39840, Note_on_c, 0, 53, 0
3, 39840, Note_on_c, 0, 41, 0
3, 39840, Note_on_c, 0, 40, 41
3, 39840, Note_on_c, 0, 52, 49
3, 40320, Note_on_c, 0, 52, 0
3, 40320, Note_on_c, 0, 40, 0
3, 40320, Note_on_c, 0, 56, 0
3, 40320, Note_on_c, 0, 39, 43
3, 40320, Control_c, 0, 64, 127
3, 40320, Note_on_c, 0, 51, 52
3, 40800, Note_on_c, 0, 56, 57
3, 41037, Control_c, 0, 64, 0
3, 41280, Note_on_c, 0, 51, 0
3, 41280, Note_on_c, 0, 39, 0
3, 41280, Note_on_c, 0, 32, 44
3, 41280, Note_on_c, 0, 44, 53
3, 41760, Note_on_c, 0, 44, 0
3, 41760, Note_on_c, 0, 32, 0
3, 41760, Note_on_c, 0, 56, 0
3, 41760, Note_on_c, 0, 40, 41
3, 41760, Note_on_c, 0, 52, 49
3, 41834, Control_c, 0, 64, 127
3, 42194, Control_c, 0, 64, 0
3, 42240, Note_on_c, 0, 52, 0
3, 42240, Note_on_c, 0, 40, 0
3, 42240, Note_on_c, 0, 41, 41
3, 42240, Note_on_c, 0, 53, 49
3, 42283, Control_c, 0, 64, 127
3, 42720, Note_on_c, 0, 53, 0
3, 42720, Note_on_c, 0, 41, 0
3, 42720, Note_on_c, 0, 32, 33
3, 42720, Note_on_c, 0, 44, 38
3, 42931, Control_c, 0, 64, 0
3, 43200, Note_on_c, 0, 44, 0
3, 43200, Note_on_c, 0, 32, 0
3, 43200, Note_on_c, 0, 43, 38
3, 43200, Note_on_c, 0, 55, 46
3, 43669, Control_c, 0, 64, 127
3, 43680, Note_on_c, 0, 56, 51
3, 44034, Control_c, 0, 64, 0
3, 44160, Note_on_c, 0, 55, 0
3, 44160, Note_on_c, 0, 43, 0
3, 44160, Note_on_c, 0, 42, 38
3, 44160, Note_on_c, 0, 54, 46
3, 44640, Note_on_c, 0, 54, 0
3, 44640, Note_on_c, 0, 42, 0
3, 44640, Note_on_c, 0, 56, 0
3, 44640, Note_on_c, 0, 41, 38
3, 44640, Note_on_c, 0, 53, 46
3, 44658, Control_c, 0, 64, 127
3, 45085, Control_c, 0, 64, 0
3, 45120, Note_on_c, 0, 56, 56
3, 45600, Note_on_c, 0, 53, 0
3, 45600, Note_on_c, 0, 41, 0
3, 45600, Note_on_c, 0, 40, 41
3, 45600, Note_on_c, 0, 52, 49
3, 45921, Control_c, 0, 64, 127
3, 45960, Note_on_c, 0, 52, 0
3, 45960, Note_on_c, 0, 40, 0
3, 45960, Note_on_c, 0, 56, 0
3, 46080, Note_on_c, 0, 39, 43
3, 46080, Note_on_c, 0, 51, 52
3, 46535, Control_c, 0, 64, 0
3, 46560, Note_on_c, 0, 51, 0
3, 46560, Note_on_c, 0, 39, 0
3, 46560, Note_on_c, 0, 56, 57
3, 46564, Control_c, 0, 64, 127
3, 47428, Control_c, 0, 64, 0
3, 47520, Note_on_c, 0, 56, 0
3, 47520, Note_on_c, 0, 37, 43
3, 47520, Control_c, 0, 64, 127
3, 47520, Note_on_c, 0, 49, 52
3, 47977, Control_c, 0, 64, 0
3, 48000, Note_on_c, 0, 49, 0
3, 48000, Note_on_c, 0, 37, 0
3, 48000, Note_on_c, 0, 54, 55
3, 48009, Control_c, 0, 64, 127
3, 48896, Control_c, 0, 64, 0
3, 48960, Note_on_c, 0, 54, 0
3, 48960, Note_on_c, 0, 36, 43
3, 48960, Control_c, 0, 64, 127
3, 48960, Note_on_c, 0, 48, 52
3, 49417, Control_c, 0, 64, 0
3, 49440, Note_on_c, 0, 48, 0
3, 49440, Note_on_c, 0, 36, 0
3, 49440, Note_on_c, 0, 51, 57
3, 49449, Control_c, 0, 64, 127
3, 49920, Note_on_c, 0, 51, 0
3, 49920, Note_on_c, 0, 35, 41
3, 49920, Note_on_c, 0, 47, 48
3, 50336, Control_c, 0, 64, 0
3, 50400, Note_on_c, 0, 47, 0
3, 50400, Note_on_c, 0, 35, 0
3, 50400, Note_on_c, 0, 34, 43
3, 50400, Control_c, 0, 64, 127
3, 50400, Note_on_c, 0, 46, 52
3, 50857, Control_c, 0, 64, 0
3, 50880, Note_on_c, 0, 46, 0
3, 50880, Note_on_c, 0, 34, 0
3, 50880, Note_on_c, 0, 49, 57
3, 50889, Control_c, 0, 64, 127
3, 51360, Note_on_c, 0, 49, 0
3, 51360, Note_on_c, 0, 33, 43
3, 51360, Note_on_c, 0, 45, 52
3, 51776, Control_c, 0, 64, 0
3, 51840, Note_on_c, 0, 45, 0
3, 51840, Note_on_c, 0, 33, 0
3, 51840, Note_on_c, 0, 32, 49
3, 51840, Control_c, 0, 64, 127
3, 51840, Note_on_c, 0, 44, 57
3, 52297, Control_c, 0, 64, 0
3, 52320, Note_on_c, 0, 44, 0
3, 52320, Note_on_c, 0, 32, 0
3, 52320, Note_on_c, 0, 56, 63
3, 52329, Control_c, 0, 64, 127
3, 53216, Control_c, 0, 64, 0
3, 53280, Note_on_c, 0, 56, 0
3, 53280, Note_on_c, 0, 53, 57
3, 53343, Control_c, 0, 64, 127
3, 53640, Note_on_c, 0, 53, 0
3, 53640, Note_on_c, 0, 51, 48
3, 53700, Note_on_c, 0, 51, 0
3, 53700, Note_on_c, 0, 53, 41
3, 53729, Control_c, 0, 64, 0
3, 53760, Note_on_c, 0, 53, 0
3, 53760, Note_on_c, 0, 51, 52
3, 53803, Control_c, 0, 64, 127
3, 54000, Note_on_c, 0, 51, 0
3, 54000, Note_on_c, 0, 49, 49
3, 54217, Control_c, 0, 64, 0
3, 54240, Note_on_c, 0, 49, 0
3, 54240, Note_on_c, 0, 48, 46
3, 54720, Note_on_c, 0, 48, 0
3, 54720, Note_on_c, 0, 49, 49
3, 54907, Control_c, 0, 64, 127
3, 55200, Note_on_c, 0, 44, 41
3, 55680, Note_on_c, 0, 44, 0
3, 55680, Note_on_c, 0, 37, 38
3, 55733, Control_c, 0, 64, 0
3, 56160, Note_on_c, 0, 37, 0
3, 56160, Note_on_c, 0, 49, 0
3, 56160, Note_on_c, 0, 51, 49
3, 56400, Control_c, 0, 64, 127
3, 57120, Note_on_c, 0, 51, 0
3, 57120, Note_on_c, 0, 37, 34
3, 57247, Control_c, 0, 64, 0
3, 57600, Note_on_c, 0, 37, 0
3, 57600, Note_on_c, 0, 51, 49
3, 57822, Control_c, 0, 64, 127
3, 58560, Note_on_c, 0, 51, 0
3, 58560, Note_on_c, 0, 37, 35
3, 58655, Control_c, 0, 64, 0
3, 59040, Note_on_c, 0, 37, 0
3, 59040, Note_on_c, 0, 51, 49
3, 59262, Control_c, 0, 64, 127
3, 60000, Note_on_c, 0, 51, 0
3, 60000, Note_on_c, 0, 37, 38
3, 60282, Control_c, 0, 64, 0
3, 60480, Note_on_c, 0, 37, 0
3, 60480, Note_on_c, 0, 53, 49
3, 60510, Control_c, 0, 64, 127
3, 61440, Note_on_c, 0, 53, 0
3, 61440, Note_on_c, 0, 37, 37
3, 61740, Control_c, 0, 64, 0
3, 61920, Note_on_c, 0, 37, 0
3, 61920, Note_on_c, 0, 63, 49
3, 62132, Control_c, 0, 64, 127
3, 62880, Note_on_c, 0, 63, 0
3, 62880, Note_on_c, 0, 49, 36
3, 63007, Control_c, 0, 64, 0
3, 63360, Note_on_c, 0, 49, 0
3, 63360, Note_on_c, 0, 63, 49
3, 63604, Control_c, 0, 64, 127
3, 64320, Note_on_c, 0, 63, 0
3, 64320, Note_on_c, 0, 49, 34
3, 64415, Control_c, 0, 64, 0
3, 64800, Note_on_c, 0, 49, 0
3, 64800, Note_on_c, 0, 63, 49
3, 65068, Control_c, 0, 64, 127
3, 65760, Note_on_c, 0, 63, 0
3, 65760, Note_on_c, 0, 49, 36
3, 66042, Control_c, 0, 64, 0
3, 66240, Note_on_c, 0, 49, 0
3, 66240, Note_on_c, 0, 65, 49
3, 66270, Control_c, 0, 64, 127
3, 67200, Note_on_c, 0, 65, 0
3, 67200, Note_on_c, 0, 49, 34
3, 67500, Control_c, 0, 64, 0
3, 67680, Note_on_c, 0, 49, 0
3, 67680, Note_on_c, 0, 65, 39
3, 67698, Control_c, 0, 64, 127
3, 68640, Control_c, 0, 64, 127
3, 68951, Control_c, 0, 64, 0
3, 68996, Control_c, 0, 64, 127
3, 69600, Note_on_c, 0, 65, 0
3, 69600, Note_on_c, 0, 61, 31
3, 71040, Note_on_c, 0, 61, 0
3, 71707, Control_c, 0, 64, 0
3, 72000, Note_on_c, 0, 52, 35
3, 72014, Control_c, 0, 64, 127
3, 72480, Note_on_c, 0, 45, 29
3, 72960, Note_on_c, 0, 45, 0
3, 72960, Note_on_c, 0, 45, 29
3, 73271, Control_c, 0, 64, 0
3, 73440, Note_on_c, 0, 45, 0
3, 73440, Note_on_c, 0, 52, 0
3, 73440, Note_on_c, 0, 53, 36
3, 73567, Control_c, 0, 64, 127
3, 73920, Note_on_c, 0, 45, 29
3, 74400, Note_on_c, 0, 45, 0
3, 74400, Note_on_c, 0, 45, 29
3, 74654, Control_c, 0, 64, 0
3, 74880, Note_on_c, 0, 45, 0
3, 74880, Note_on_c, 0, 53, 0
3, 74880, Note_on_c, 0, 53, 36
3, 74894, Control_c, 0, 64, 127
3, 75247, Control_c, 0, 64, 0
3, 75279, Control_c, 0, 64, 127
3, 75360, Note_on_c, 0, 45, 30
3, 75840, Note_on_c, 0, 45, 0
3, 75840, Note_on_c, 0, 45, 30
3, 76239, Control_c, 0, 64, 0
3, 76320, Note_on_c, 0, 45, 0
3, 76320, Note_on_c, 0, 53, 0
3, 76320, Note_on_c, 0, 54, 36
3, 76480, Control_c, 0, 64, 127
3, 76800, Note_on_c, 0, 45, 30
3, 77280, Note_on_c, 0, 45, 0
3, 77280, Note_on_c, 0, 45, 30
3, 77440, Control_c, 0, 64, 0
3, 77760, Note_on_c, 0, 45, 0
3, 77760, Note_on_c, 0, 54, 0
3, 77760, Control_c, 0, 64, 127
3, 77760, Note_on_c, 0, 44, 38
3, 78240, Note_on_c, 0, 52, 36
3, 78292, Control_c, 0, 64, 0
3, 78720, Note_on_c, 0, 44, 0
3, 78720, Note_on_c, 0, 43, 33
3, 78746, Control_c, 0, 64, 127
3, 79070, Control_c, 0, 64, 0
3, 79200, Note_on_c, 0, 43, 0
3, 79200, Note_on_c, 0, 52, 0
3, 79200, Note_on_c, 0, 42, 39
3, 79214, Control_c, 0, 64, 127
3, 79680, Note_on_c, 0, 50, 36
3, 80160, Note_on_c, 0, 42, 0
3, 80160, Note_on_c, 0, 42, 31
3, 80506, Control_c, 0, 64, 0
3, 80640, Note_on_c, 0, 42, 0
3, 80640, Note_on_c, 0, 50, 0
3, 80640, Note_on_c, 0, 38, 39
3, 80675, Control_c, 0, 64, 127
3, 81106, Control_c, 0, 64, 0
3, 81120, Note_on_c, 0, 47, 39
3, 81191, Control_c, 0, 64, 127
3, 81600, Note_on_c, 0, 38, 0
3, 81600, Note_on_c, 0, 38, 46
3, 81939, Control_c, 0, 64, 0
3, 82080, Note_on_c, 0, 38, 0
3, 82080, Note_on_c, 0, 47, 0
3, 82080, Note_on_c, 0, 37, 45
3, 82107, Control_c, 0, 64, 127
3, 82560, Note_on_c, 0, 53, 39
3, 82613, Control_c, 0, 64, 0
3, 83040, Note_on_c, 0, 37, 0
3, 83040, Note_on_c, 0, 49, 33
3, 83520, Note_on_c, 0, 49, 0
3, 83520, Note_on_c, 0, 53, 0
3, 83520, Note_on_c, 0, 36, 39
3, 83520, Note_on_c, 0, 48, 39
3, 83661, Control_c, 0, 64, 127
3, 84000, Note_on_c, 0, 51, 42
3, 84240, Control_c, 0, 64, 0
3, 84480, Note_on_c, 0, 51, 0
3, 84480, Note_on_c, 0, 48, 0
3, 84480, Note_on_c, 0, 36, 0
3, 84480, Note_on_c, 0, 36, 36
3, 84480, Note_on_c, 0, 48, 36
3, 84960, Note_on_c, 0, 48, 0
3, 84960, Note_on_c, 0, 36, 0
3, 84960, Note_on_c, 0, 37, 39
3, 84960, Note_on_c, 0, 49, 39
3, 85154, Control_c, 0, 64, 127
3, 85440, Note_on_c, 0, 52, 42
3, 85783, Control_c, 0, 64, 0
3, 85920, Note_on_c, 0, 52, 0
3, 85920, Note_on_c, 0, 49, 0
3, 85920, Note_on_c, 0, 37, 0
3, 85920, Note_on_c, 0, 37, 36
3, 85920, Note_on_c, 0, 49, 36
3, 86400, Note_on_c, 0, 49, 0
3, 86400, Note_on_c, 0, 37, 0
3, 86400, Note_on_c, 0, 37, 39
3, 86400, Note_on_c, 0, 49, 39
3, 86503, Control_c, 0, 64, 127
3, 86880, Note_on_c, 0, 52, 42
3, 87177, Control_c, 0, 64, 0
3, 87360, Note_on_c, 0, 52, 0
3, 87360, Note_on_c, 0, 49, 0
3, 87360, Note_on_c, 0, 37, 0
3, 87360, Note_on_c, 0, 37, 35
3, 87360, Note_on_c, 0, 49, 35
3, 87840, Note_on_c, 0, 49, 0
3, 87840, Note_on_c, 0, 37, 0
3, 87840, Note_on_c, 0, 38, 39
3, 87840, Note_on_c, 0, 50, 39
3, 87943, Control_c, 0, 64, 127
3, 88320, Note_on_c, 0, 54, 42
3, 88640, Control_c, 0, 64, 0
3, 88800, Note_on_c, 0, 54, 0
3, 88800, Note_on_c, 0, 50, 0
3, 88800, Note_on_c, 0, 38, 0
3, 88800, Note_on_c, 0, 38, 36
3, 88800, Note_on_c, 0, 50, 36
3, 89280, Note_on_c, 0, 50, 0
3, 89280, Note_on_c, 0, 38, 0
3, 89280, Note_on_c, 0, 41, 46
3, 89394, Control_c, 0, 64, 127
3, 89760, Note_on_c, 0, 49, 37
3, 89760, Note_on_c, 0, 56, 37
3, 90183, Control_c, 0, 64, 0
3, 90240, Note_on_c, 0, 56, 0
3, 90240, Note_on_c, 0, 49, 0
3, 90240, Note_on_c, 0, 49, 45
3, 90240, Note_on_c, 0, 56, 45
3, 90720, Note_on_c, 0, 56, 0
3, 90720, Note_on_c, 0, 49, 0
3, 90720, Note_on_c, 0, 41, 0
3, 90720, Note_on_c, 0, 42, 44
3, 90791, Control_c, 0, 64, 127
3, 91200, Note_on_c, 0, 49, 38
3, 91200, Note_on_c, 0, 54, 38
3, 91680, Note_on_c, 0, 54, 0
3, 91680, Note_on_c, 0, 49, 0
3, 91680, Note_on_c, 0, 49, 37
3, 91680, Note_on_c, 0, 54, 37
3, 91751, Control_c, 0, 64, 0
3, 92160, Note_on_c, 0, 54, 0
3, 92160, Note_on_c, 0, 49, 0
3, 92160, Note_on_c, 0, 42, 0
3, 92160, Note_on_c, 0, 35, 44
3, 92160, Note_on_c, 0, 47, 44
3, 92216, Control_c, 0, 64, 127
3, 92640, Note_on_c, 0, 51, 39
3, 92993, Control_c, 0, 64, 0
3, 93120, Note_on_c, 0, 51, 0
3, 93120, Note_on_c, 0, 47, 0
3, 93120, Note_on_c, 0, 35, 0
3, 93120, Note_on_c, 0, 35, 44
3, 93120, Note_on_c, 0, 47, 44
3, 93600, Note_on_c, 0, 47, 0
3, 93600, Note_on_c, 0, 35, 0
3, 93600, Note_on_c, 0, 40, 42
3, 93703, Control_c, 0, 64, 127
3, 94080, Note_on_c, 0, 52, 38
3, 94491, Control_c, 0, 64, 0
3, 94560, Note_on_c, 0, 52, 0
3, 94560, Note_on_c, 0, 54, 37
3, 94800, Note_on_c, 0, 54, 0
3, 94800, Note_on_c, 0, 56, 30
3, 95040, Note_on_c, 0, 56, 0
3, 95040, Note_on_c, 0, 40, 0
3, 95040, Note_on_c, 0, 45, 40
3, 95040, Note_on_c, 0, 52, 40
3, 95040, Note_on_c, 0, 57, 51
3, 95146, Control_c, 0, 64, 127
3, 95520, Note_on_c, 0, 52, 38
3, 95520, Note_on_c, 0, 64, 45
3, 96000, Note_on_c, 0, 57, 0
3, 96000, Note_on_c, 0, 45, 0
3, 96000, Note_on_c, 0, 52, 0
3, 96000, Note_on_c, 0, 45, 35
3, 96000, Note_on_c, 0, 52, 35
3, 96000, Note_on_c, 0, 57, 41
3, 96311, Control_c, 0, 64, 0
3, 96480, Note_on_c, 0, 57, 0
3, 96480, Note_on_c, 0, 45, 0
3, 96480, Note_on_c, 0, 64, 0
3, 96480, Note_on_c, 0, 52, 0
3, 96480, Note_on_c, 0, 52, 0
3, 96480, Note_on_c, 0, 45, 30
3, 96480, Note_on_c, 0, 53, 32
3, 96480, Note_on_c, 0, 57, 38
3, 96607, Control_c, 0, 64, 127
3, 96960, Note_on_c, 0, 53, 0
3, 96960, Note_on_c, 0, 53, 31
3, 96960, Note_on_c, 0, 65, 43
3, 97440, Note_on_c, 0, 57, 0
3, 97440, Note_on_c, 0, 45, 0
3, 97440, Note_on_c, 0, 45, 35
3, 97440, Note_on_c, 0, 53, 35
3, 97440, Note_on_c, 0, 57, 41
3, 97694, Control_c, 0, 64, 0
3, 97920, Note_on_c, 0, 57, 0
3, 97920, Note_on_c, 0, 45, 0
3, 97920, Note_on_c, 0, 65, 0
3, 97920, Note_on_c, 0, 53, 0
3, 97920, Note_on_c, 0, 53, 0
3, 97920, Note_on_c, 0, 45, 36
3, 97920, Note_on_c, 0, 53, 36
3, 97920, Note_on_c, 0, 57, 45
3, 97934, Control_c, 0, 64, 127
3, 98287, Control_c, 0, 64, 0
3, 98319, Control_c, 0, 64, 127
3, 98400, Note_on_c, 0, 53, 42
3, 98400, Note_on_c, 0, 65, 51
3, 98880, Note_on_c, 0, 65, 0
3, 98880, Note_on_c, 0, 57, 0
3, 98880, Note_on_c, 0, 45, 0
3, 98880, Note_on_c, 0, 53, 0
3, 98880, Note_on_c, 0, 53, 0
3, 98880, Note_on_c, 0, 45, 36
3, 98880, Note_on_c, 0, 53, 36
3, 98880, Note_on_c, 0, 57, 42
3, 99279, Control_c, 0, 64, 0
3, 99360, Note_on_c, 0, 57, 0
3, 99360, Note_on_c, 0, 53, 0
3, 99360, Note_on_c, 0, 45, 0
3, 99360, Note_on_c, 0, 45, 41
3, 99360, Note_on_c, 0, 54, 41
3, 99360, Note_on_c, 0, 57, 51
3, 99520, Control_c, 0, 64, 127
3, 99840, Note_on_c, 0, 54, 0
3, 99840, Note_on_c, 0, 54, 36
3, 99840, Note_on_c, 0, 66, 42
3, 100320, Note_on_c, 0, 57, 0
3, 100320, Note_on_c, 0, 45, 0
3, 100320, Note_on_c, 0, 45, 36
3, 100320, Note_on_c, 0, 54, 36
3, 100320, Note_on_c, 0, 57, 42
3, 100480, Control_c, 0, 64, 0
3, 100800, Note_on_c, 0, 57, 0
3, 100800, Note_on_c, 0, 45, 0
3, 100800, Note_on_c, 0, 66, 0
3, 100800, Note_on_c, 0, 54, 0
3, 100800, Note_on_c, 0, 54, 0
3, 100800, Control_c, 0, 64, 127
3, 100800, Note_on_c, 0, 44, 55
3, 101280, Note_on_c, 0, 52, 41
3, 101280, Note_on_c, 0, 59, 50
3, 101332, Control_c, 0, 64, 0
3, 101760, Note_on_c, 0, 59, 0
3, 101760, Note_on_c, 0, 52, 0
3, 101760, Note_on_c, 0, 44, 0
3, 101760, Note_on_c, 0, 43, 37
3, 101760, Note_on_c, 0, 61, 47
3, 101786, Control_c, 0, 64, 127
3, 102110, Control_c, 0, 64, 0
3, 102240, Note_on_c, 0, 61, 0
3, 102240, Note_on_c, 0, 43, 0
3, 102240, Note_on_c, 0, 42, 57
3, 102254, Control_c, 0, 64, 127
3, 102720, Note_on_c, 0, 50, 41
3, 102720, Note_on_c, 0, 57, 51
3, 103200, Note_on_c, 0, 57, 0
3, 103200, Note_on_c, 0, 50, 0
3, 103200, Note_on_c, 0, 42, 0
3, 103200, Note_on_c, 0, 50, 37
3, 103200, Note_on_c, 0, 57, 46
3, 103546, Control_c, 0, 64, 0
3, 103680, Note_on_c, 0, 57, 0
3, 103680, Note_on_c, 0, 50, 0
3, 103680, Control_c, 0, 64, 127
3, 103680, Note_on_c, 0, 41, 51
3, 104160, Note_on_c, 0, 49, 39
3, 104160, Note_on_c, 0, 56, 48
3, 104212, Control_c, 0, 64, 0
3, 104640, Note_on_c, 0, 56, 0
3, 104640, Note_on_c, 0, 49, 0
3, 104640, Note_on_c, 0, 41, 0
3, 104640, Note_on_c, 0, 40, 33
3, 104640, Note_on_c, 0, 58, 41
3, 104666, Control_c, 0, 64, 127
3, 104990, Control_c, 0, 64, 0
3, 105120, Note_on_c, 0, 58, 0
3, 105120, Note_on_c, 0, 40, 0
3, 105120, Note_on_c, 0, 39, 51
3, 105134, Control_c, 0, 64, 127
3, 105600, Note_on_c, 0, 47, 39
3, 105600, Note_on_c, 0, 54, 48
3, 106080, Note_on_c, 0, 54, 0
3, 106080, Note_on_c, 0, 47, 0
3, 106080, Note_on_c, 0, 47, 33
3, 106080, Note_on_c, 0, 54, 40
3, 106426, Control_c, 0, 64, 0
3, 106560, Note_on_c, 0, 54, 0
3, 106560, Note_on_c, 0, 47, 0
3, 106560, Note_on_c, 0, 39, 0
3, 106560, Note_on_c, 0, 38, 49
3, 106588, Control_c, 0, 64, 127
3, 107040, Note_on_c, 0, 56, 50
3, 107520, Note_on_c, 0, 56, 0
3, 107520, Note_on_c, 0, 50, 47
3, 107647, Control_c, 0, 64, 0
3, 108000, Note_on_c, 0, 50, 0
3, 108000, Note_on_c, 0, 38, 0
3, 108000, Note_on_c, 0, 37, 46
3, 108051, Control_c, 0, 64, 127
3, 108379, Control_c, 0, 64, 0
3, 108480, Note_on_c, 0, 59, 50
3, 108531, Control_c, 0, 64, 127
3, 108960, Note_on_c, 0, 59, 0
3, 108960, Note_on_c, 0, 49, 34
3, 109061, Control_c, 0, 64, 0
3, 109440, Note_on_c, 0, 49, 0
3, 109440, Note_on_c, 0, 37, 0
3, 109440, Note_on_c, 0, 38, 44
3, 109468, Control_c, 0, 64, 127
3, 109920, Note_on_c, 0, 56, 45
3, 110400, Note_on_c, 0, 56, 0
3, 110400, Note_on_c, 0, 50, 41
3, 110527, Control_c, 0, 64, 0
3, 110880, Note_on_c, 0, 50, 0
3, 110880, Note_on_c, 0, 38, 0
3, 110880, Note_on_c, 0, 37, 40
3, 110931, Control_c, 0, 64, 127
3, 111259, Control_c, 0, 64, 0
3, 111360, Note_on_c, 0, 59, 45
3, 111411, Control_c, 0, 64, 127
3, 111840, Note_on_c, 0, 59, 0
3, 111840, Note_on_c, 0, 49, 29
3, 112320, Note_on_c, 0, 37, 0
3, 112320, Control_c, 0, 64, 0
3, 112371, Control_c, 0, 64, 127
3, 112699, Control_c, 0, 64, 0
3, 112800, Note_on_c, 0, 49, 0
3, 112800, Note_on_c, 0, 59, 45
3, 112851, Control_c, 0, 64, 127
3, 113280, Note_on_c, 0, 59, 0
3, 113280, Note_on_c, 0, 49, 29
3, 113760, Control_c, 0, 64, 0
3, 113811, Control_c, 0, 64, 127
3, 114240, Note_on_c, 0, 49, 0
3, 114240, Note_on_c, 0, 59, 45
3, 114695, Control_c, 0, 64, 0
3, 114720, Note_on_c, 0, 59, 0
3, 114720, Note_on_c, 0, 49, 29
3, 115200, Note_on_c, 0, 49, 0
3, 115200, Control_c, 0, 64, 127
3, 115200, Note_on_c, 0, 60, 42
3, 116160, Note_on_c, 0, 60, 0
3, 116160, Note_on_c, 0, 49, 27
3, 116640, Note_on_c, 0, 49, 0
3, 116640, Note_on_c, 0, 60, 42
3, 117600, Note_on_c, 0, 60, 0
3, 117600, Note_on_c, 0, 49, 28
3, 118080, Note_on_c, 0, 49, 0
3, 118080, Note_on_c, 0, 60, 45
3, 119040, Note_on_c, 0, 60, 0
3, 119040, Note_on_c, 0, 49, 27
3, 119520, Note_on_c, 0, 49, 0
3, 119520, Note_on_c, 0, 60, 45
3, 120480, Note_on_c, 0, 60, 0
3, 120480, Note_on_c, 0, 49, 26
3, 120644, Control_c, 0, 64, 0
3, 120960, Note_on_c, 0, 49, 0
3, 120960, Note_on_c, 0, 48, 39
3, 121200, Note_on_c, 0, 48, 0
3, 121377, Control_c, 0, 64, 127
3, 121440, Note_on_c, 0, 53, 47
3, 121731, Control_c, 0, 64, 0
3, 122160, Note_on_c, 0, 53, 0
3, 122160, Note_on_c, 0, 51, 44
3, 122400, Note_on_c, 0, 51, 0
3, 122400, Note_on_c, 0, 53, 50
3, 122414, Control_c, 0, 64, 127
3, 122760, Note_on_c, 0, 53, 0
3, 122760, Note_on_c, 0, 54, 47
3, 122838, Control_c, 0, 64, 0
3, 122880, Note_on_c, 0, 54, 0
3, 122880, Note_on_c, 0, 56, 50
3, 123360, Note_on_c, 0, 56, 0
3, 123360, Note_on_c, 0, 58, 47
3, 123600, Note_on_c, 0, 58, 0
3, 123600, Note_on_c, 0, 61, 52
3, 123840, Note_on_c, 0, 61, 0
3, 123840, Control_c, 0, 64, 127
3, 123840, Note_on_c, 0, 61, 55
3, 124200, Note_on_c, 0, 61, 0
3, 124200, Note_on_c, 0, 60, 47
3, 124260, Note_on_c, 0, 60, 0
3, 124260, Note_on_c, 0, 61, 52
3, 124320, Note_on_c, 0, 61, 0
3, 124320, Note_on_c, 0, 60, 54
3, 124547, Control_c, 0, 64, 0
3, 124560, Note_on_c, 0, 60, 0
3, 124560, Note_on_c, 0, 58, 50
3, 124800, Note_on_c, 0, 58, 0
3, 124800, Note_on_c, 0, 60, 54
3, 125040, Note_on_c, 0, 60, 0
3, 125040, Note_on_c, 0, 56, 49
3, 125280, Note_on_c, 0, 56, 0
3, 125280, Note_on_c, 0, 58, 52
3, 125351, Control_c, 0, 64, 127
3, 125640, Note_on_c, 0, 58, 0
3, 125640, Note_on_c, 0, 56, 44
3, 125700, Note_on_c, 0, 56, 0
3, 125700, Note_on_c, 0, 58, 44
3, 125704, Control_c, 0, 64, 0
3, 125760, Note_on_c, 0, 58, 0
3, 125760, Note_on_c, 0, 56, 52
3, 125788, Control_c, 0, 64, 127
3, 126000, Note_on_c, 0, 56, 0
3, 126000, Note_on_c, 0, 53, 46
3, 126240, Note_on_c, 0, 53, 0
3, 126240, Note_on_c, 0, 49, 49
3, 126438, Control_c, 0, 64, 0
3, 126480, Note_on_c, 0, 49, 0
3, 126480, Note_on_c, 0, 53, 45
3, 126720, Note_on_c, 0, 53, 0
3, 126720, Note_on_c, 0, 48, 49
3, 126960, Note_on_c, 0, 48, 0
3, 127137, Control_c, 0, 64, 127
3, 127200, Note_on_c, 0, 53, 52
3, 127491, Control_c, 0, 64, 0
3, 127920, Note_on_c, 0, 53, 0
3, 127920, Note_on_c, 0, 51, 48
3, 128160, Note_on_c, 0, 51, 0
3, 128160, Note_on_c, 0, 53, 55
3, 128174, Control_c, 0, 64, 127
3, 128520, Note_on_c, 0, 53, 0
3, 128520, Note_on_c, 0, 54, 50
3, 128598, Control_c, 0, 64, 0
3, 128640, Note_on_c, 0, 54, 0
3, 128640, Note_on_c, 0, 56, 53
3, 129120, Note_on_c, 0, 56, 0
3, 129120, Note_on_c, 0, 58, 47
3, 129360, Note_on_c, 0, 58, 0
3, 129360, Note_on_c, 0, 61, 49
3, 129600, Note_on_c, 0, 61, 0
3, 129600, Control_c, 0, 64, 127
3, 129600, Note_on_c, 0, 61, 54
3, 130080, Note_on_c, 0, 61, 0
3, 130080, Note_on_c, 0, 60, 54
3, 130307, Control_c, 0, 64, 0
3, 130320, Note_on_c, 0, 60, 0
3, 130320, Note_on_c, 0, 61, 50
3, 130560, Note_on_c, 0, 61, 0
3, 130560, Note_on_c, 0, 60, 54
3, 130800, Note_on_c, 0, 60, 0
3, 130800, Note_on_c, 0, 58, 49
3, 131040, Note_on_c, 0, 58, 0
3, 131040, Note_on_c, 0, 57, 52
3, 131111, Control_c, 0, 64, 127
3, 131400, Note_on_c, 0, 57, 0
3, 131400, Note_on_c, 0, 58, 44
3, 131464, Control_c, 0, 64, 0
3, 131520, Note_on_c, 0, 58, 0
3, 131520, Note_on_c, 0, 60, 52
3, 131548, Control_c, 0, 64, 127
3, 132000, Note_on_c, 0, 60, 0
3, 132000, Note_on_c, 0, 48, 49
3, 132198, Control_c, 0, 64, 0
3, 132240, Note_on_c, 0, 48, 0
3, 132480, Note_on_c, 0, 59, 41
3, 132937, Control_c, 0, 64, 127
3, 132960, Note_on_c, 0, 60, 48
3, 133314, Control_c, 0, 64, 0
3, 133440, Note_on_c, 0, 59, 0
3, 133440, Note_on_c, 0, 58, 41
3, 133920, Note_on_c, 0, 58, 0
3, 133920, Note_on_c, 0, 60, 0
3, 133920, Note_on_c, 0, 57, 41
3, 133962, Control_c, 0, 64, 127
3, 134400, Note_on_c, 0, 60, 50
3, 134428, Control_c, 0, 64, 0
3, 134880, Note_on_c, 0, 57, 0
3, 134880, Note_on_c, 0, 56, 44
3, 135360, Note_on_c, 0, 56, 0
3, 135360, Note_on_c, 0, 60, 0
3, 135360, Control_c, 0, 64, 127
3, 135360, Note_on_c, 0, 54, 46
3, 135840, Note_on_c, 0, 60, 51
3, 136077, Control_c, 0, 64, 0
3, 136320, Note_on_c, 0, 54, 0
3, 136320, Note_on_c, 0, 48, 47
3, 136800, Note_on_c, 0, 48, 0
3, 136800, Note_on_c, 0, 56, 44
3, 136874, Control_c, 0, 64, 127
3, 137234, Control_c, 0, 64, 0
3, 137280, Note_on_c, 0, 56, 0
3, 137280, Note_on_c, 0, 57, 44
3, 137323, Control_c, 0, 64, 127
3, 137760, Note_on_c, 0, 57, 0
3, 137760, Note_on_c, 0, 48, 36
3, 137971, Control_c, 0, 64, 0
3, 138240, Note_on_c, 0, 48, 0
3, 138240, Note_on_c, 0, 60, 0
3, 138240, Note_on_c, 0, 59, 41
3, 138709, Control_c, 0, 64, 127
3, 138720, Note_on_c, 0, 60, 48
3, 139074, Control_c, 0, 64, 0
3, 139200, Note_on_c, 0, 59, 0
3, 139200, Note_on_c, 0, 58, 41
3, 139680, Note_on_c, 0, 58, 0
3, 139680, Note_on_c, 0, 60, 0
3, 139680, Note_on_c, 0, 57, 41
3, 139698, Control_c, 0, 64, 127
3, 140125, Control_c, 0, 64, 0
3, 140160, Note_on_c, 0, 60, 50
3, 140640, Note_on_c, 0, 57, 0
3, 140640, Note_on_c, 0, 56, 44
3, 140940, Note_on_c, 0, 56, 0
3, 140940, Note_on_c, 0, 60, 0
3, 140940, Note_on_c, 0, 55, 46
3, 140961, Control_c, 0, 64, 127
3, 141575, Control_c, 0, 64, 0
3, 141600, Note_on_c, 0, 55, 0
3, 141600, Note_on_c, 0, 60, 51
3, 141604, Control_c, 0, 64, 127
3, 142468, Control_c, 0, 64, 0
3, 142560, Note_on_c, 0, 60, 0
3, 142560, Note_on_c, 0, 58, 44
3, 142646, Control_c, 0, 64, 127
3, 142994, Control_c, 0, 64, 0
3, 143040, Note_on_c, 0, 58, 0
3, 143040, Note_on_c, 0, 60, 40
3, 143080, Control_c, 0, 64, 127
3, 143731, Control_c, 0, 64, 0
3, 143820, Note_on_c, 0, 60, 0
3, 143820, Control_c, 0, 64, 127
3, 143820, Note_on_c, 0, 53, 46
3, 144457, Control_c, 0, 64, 0
3, 144480, Note_on_c, 0, 53, 0
3, 144480, Note_on_c, 0, 58, 38
3, 144489, Control_c, 0, 64, 127
3, 145363, Control_c, 0, 64, 0
3, 145440, Note_on_c, 0, 58, 0
3, 145440, Note_on_c, 0, 53, 45
3, 145503, Control_c, 0, 64, 127
3, 145800, Note_on_c, 0, 53, 0
3, 145800, Note_on_c, 0, 52, 38
3, 145860, Note_on_c, 0, 52, 0
3, 145860, Note_on_c, 0, 53, 34
3, 145889, Control_c, 0, 64, 0
3, 145920, Note_on_c, 0, 53, 0
3, 145920, Note_on_c, 0, 52, 42
3, 145963, Control_c, 0, 64, 127
3, 146160, Note_on_c, 0, 52, 0
3, 146160, Note_on_c, 0, 50, 39
3, 146377, Control_c, 0, 64, 0
3, 146400, Note_on_c, 0, 50, 0
3, 146400, Note_on_c, 0, 48, 37
3, 146880, Note_on_c, 0, 48, 0
3, 146880, Note_on_c, 0, 48, 41
3, 147120, Note_on_c, 0, 48, 0
3, 147297, Control_c, 0, 64, 127
3, 147360, Note_on_c, 0, 53, 52
3, 147651, Control_c, 0, 64, 0
3, 148080, Note_on_c, 0, 53, 0
3, 148080, Note_on_c, 0, 51, 47
3, 148320, Note_on_c, 0, 51, 0
3, 148320, Note_on_c, 0, 53, 52
3, 148334, Control_c, 0, 64, 127
3, 148680, Note_on_c, 0, 53, 0
3, 148680, Note_on_c, 0, 54, 50
3, 148758, Control_c, 0, 64, 0
3, 148800, Note_on_c, 0, 54, 0
3, 148800, Note_on_c, 0, 56, 53
3, 149280, Note_on_c, 0, 56, 0
3, 149280, Note_on_c, 0, 58, 46
3, 149520, Note_on_c, 0, 58, 0
3, 149520, Note_on_c, 0, 61, 49
3, 149760, Note_on_c, 0, 61, 0
3, 149760, Control_c, 0, 64, 127
3, 149760, Note_on_c, 0, 61, 53
3, 150120, Note_on_c, 0, 61, 0
3, 150120, Note_on_c, 0, 60, 47
3, 150180, Note_on_c, 0, 60, 0
3, 150180, Note_on_c, 0, 61, 52
3, 150240, Note_on_c, 0, 61, 0
3, 150240, Note_on_c, 0, 60, 54
3, 150467, Control_c, 0, 64, 0
3, 150480, Note_on_c, 0, 60, 0
3, 150480, Note_on_c, 0, 58, 50
3, 150720, Note_on_c, 0, 58, 0
3, 150720, Note_on_c, 0, 60, 54
3, 150960, Note_on_c, 0, 60, 0
3, 150960, Note_on_c, 0, 56, 49
3, 151200, Note_on_c, 0, 56, 0
3, 151200, Note_on_c, 0, 58, 52
3, 151271, Control_c, 0, 64, 127
3, 151560, Note_on_c, 0, 58, 0
3, 151560, Note_on_c, 0, 56, 44
3, 151620, Note_on_c, 0, 56, 0
3, 151620, Note_on_c, 0, 58, 44
3, 151624, Control_c, 0, 64, 0
3, 151680, Note_on_c, 0, 58, 0
3, 151680, Note_on_c, 0, 56, 52
3, 151708, Control_c, 0, 64, 127
3, 151920, Note_on_c, 0, 56, 0
3, 151920, Note_on_c, 0, 53, 46
3, 152160, Note_on_c, 0, 53, 0
3, 152160, Note_on_c, 0, 49, 49
3, 152358, Control_c, 0, 64, 0
3, 152400, Note_on_c, 0, 49, 0
3, 152400, Note_on_c, 0, 53, 45
3, 152640, Note_on_c, 0, 53, 0
3, 152640, Note_on_c, 0, 48, 49
3, 152880, Note_on_c, 0, 48, 0
3, 153057, Control_c, 0, 64, 127
3, 153120, Note_on_c, 0, 53, 53
3, 153411, Control_c, 0, 64, 0
3, 153840, Note_on_c, 0, 53, 0
3, 153840, Note_on_c, 0, 51, 47
3, 154080, Note_on_c, 0, 51, 0
3, 154080, Note_on_c, 0, 53, 52
3, 154094, Control_c, 0, 64, 127
3, 154440, Note_on_c, 0, 53, 0
3, 154440, Note_on_c, 0, 54, 47
3, 154518, Control_c, 0, 64, 0
3, 154560, Note_on_c, 0, 54, 0
3, 154560, Note_on_c, 0, 56, 53
3, 155040, Note_on_c, 0, 56, 0
3, 155040, Note_on_c, 0, 58, 46
3, 155280, Note_on_c, 0, 58, 0
3, 155280, Note_on_c, 0, 61, 52
3, 155520, Note_on_c, 0, 61, 0
3, 155520, Control_c, 0, 64, 127
3, 155520, Note_on_c, 0, 61, 55
3, 156000, Note_on_c, 0, 61, 0
3, 156000, Note_on_c, 0, 60, 54
3, 156227, Control_c, 0, 64, 0
3, 156240, Note_on_c, 0, 60, 0
3, 156240, Note_on_c, 0, 61, 50
3, 156480, Note_on_c, 0, 61, 0
3, 156480, Note_on_c, 0, 60, 54
3, 156720, Note_on_c, 0, 60, 0
3, 156720, Note_on_c, 0, 58, 49
3, 156960, Note_on_c, 0, 58, 0
3, 156960, Note_on_c, 0, 56, 52
3, 157031, Control_c, 0, 64, 127
3, 157320, Note_on_c, 0, 56, 0
3, 157320, Note_on_c, 0, 58, 44
3, 157384, Control_c, 0, 64, 0
3, 157440, Note_on_c, 0, 58, 0
3, 157440, Note_on_c, 0, 60, 52
3, 157468, Control_c, 0, 64, 127
3, 157920, Note_on_c, 0, 60, 0
3, 157920, Note_on_c, 0, 48, 49
3, 158118, Control_c, 0, 64, 0
3, 158160, Note_on_c, 0, 48, 0
3, 158400, Note_on_c, 0, 43, 38
3, 158400, Note_on_c, 0, 55, 46
3, 158857, Control_c, 0, 64, 127
3, 158880, Note_on_c, 0, 56, 50
3, 159234, Control_c, 0, 64, 0
3, 159360, Note_on_c, 0, 55, 0
3, 159360, Note_on_c, 0, 43, 0
3, 159360, Note_on_c, 0, 42, 38
3, 159360, Note_on_c, 0, 54, 46
3, 159840, Note_on_c, 0, 54, 0
3, 159840, Note_on_c, 0, 42, 0
3, 159840, Note_on_c, 0, 56, 0
3, 159840, Note_on_c, 0, 41, 38
3, 159840, Note_on_c, 0, 53, 46
3, 159882, Control_c, 0, 64, 127
3, 160320, Note_on_c, 0, 56, 56
3, 160348, Control_c, 0, 64, 0
3, 160800, Note_on_c, 0, 53, 0
3, 160800, Note_on_c, 0, 41, 0
3, 160800, Note_on_c, 0, 40, 41
3, 160800, Note_on_c, 0, 52, 49
3, 161280, Note_on_c, 0, 52, 0
3, 161280, Note_on_c, 0, 40, 0
3, 161280, Note_on_c, 0, 56, 0
3, 161280, Note_on_c, 0, 39, 43
3, 161280, Control_c, 0, 64, 127
3, 161280, Note_on_c, 0, 51, 52
3, 161760, Note_on_c, 0, 56, 57
3, 161997, Control_c, 0, 64, 0
3, 162240, Note_on_c, 0, 51, 0
3, 162240, Note_on_c, 0, 39, 0
3, 162240, Note_on_c, 0, 32, 44
3, 162240, Note_on_c, 0, 44, 53
3, 162720, Note_on_c, 0, 44, 0
3, 162720, Note_on_c, 0, 32, 0
3, 162720, Note_on_c, 0, 56, 0
3, 162720, Note_on_c, 0, 40, 41
3, 162720, Note_on_c, 0, 52, 49
3, 162794, Control_c, 0, 64, 127
3, 163154, Control_c, 0, 64, 0
3, 163200, Note_on_c, 0, 52, 0
3, 163200, Note_on_c, 0, 40, 0
3, 163200, Note_on_c, 0, 41, 41
3, 163200, Note_on_c, 0, 53, 49
3, 163243, Control_c, 0, 64, 127
3, 163680, Note_on_c, 0, 53, 0
3, 163680, Note_on_c, 0, 41, 0
3, 163680, Note_on_c, 0, 32, 33
3, 163680, Note_on_c, 0, 44, 38
3, 163891, Control_c, 0, 64, 0
3, 164160, Note_on_c, 0, 44, 0
3, 164160, Note_on_c, 0, 32, 0
3, 164160, Note_on_c, 0, 43, 38
3, 164160, Note_on_c, 0, 55, 46
3, 164629, Control_c, 0, 64, 127
3, 164640, Note_on_c, 0, 56, 54
3, 164994, Control_c, 0, 64, 0
3, 165120, Note_on_c, 0, 55, 0
3, 165120, Note_on_c, 0, 43, 0
3, 165120, Note_on_c, 0, 42, 38
3, 165120, Note_on_c, 0, 54, 46
3, 165600, Note_on_c, 0, 54, 0
3, 165600, Note_on_c, 0, 42, 0
3, 165600, Note_on_c, 0, 56, 0
3, 165600, Note_on_c, 0, 41, 38
3, 165600, Note_on_c, 0, 53, 46
3, 165618, Control_c, 0, 64, 127
3, 166045, Control_c, 0, 64, 0
3, 166080, Note_on_c, 0, 56, 56
3, 166560, Note_on_c, 0, 53, 0
3, 166560, Note_on_c, 0, 41, 0
3, 166560, Note_on_c, 0, 40, 41
3, 166560, Note_on_c, 0, 52, 49
3, 166881, Control_c, 0, 64, 127
3, 166920, Note_on_c, 0, 52, 0
3, 166920, Note_on_c, 0, 40, 0
3, 166920, Note_on_c, 0, 56, 0
3, 167040, Note_on_c, 0, 39, 43
3, 167040, Note_on_c, 0, 51, 52
3, 167495, Control_c, 0, 64, 0
3, 167520, Note_on_c, 0, 51, 0
3, 167520, Note_on_c, 0, 39, 0
3, 167520, Note_on_c, 0, 56, 57
3, 167524, Control_c, 0, 64, 127
3, 168388, Control_c, 0, 64, 0
3, 168480, Note_on_c, 0, 56, 0
3, 168480, Note_on_c, 0, 37, 43
3, 168480, Control_c, 0, 64, 127
3, 168480, Note_on_c, 0, 49, 52
3, 168937, Control_c, 0, 64, 0
3, 168960, Note_on_c, 0, 49, 0
3, 168960, Note_on_c, 0, 37, 0
3, 168960, Note_on_c, 0, 54, 55
3, 168969, Control_c, 0, 64, 127
3, 169856, Control_c, 0, 64, 0
3, 169920, Note_on_c, 0, 54, 0
3, 169920, Note_on_c, 0, 36, 43
3, 169920, Control_c, 0, 64, 127
3, 169920, Note_on_c, 0, 48, 52
3, 170377, Control_c, 0, 64, 0
3, 170400, Note_on_c, 0, 48, 0
3, 170400, Note_on_c, 0, 36, 0
3, 170400, Note_on_c, 0, 51, 57
3, 170409, Control_c, 0, 64, 127
3, 170880, Note_on_c, 0, 51, 0
3, 170880, Note_on_c, 0, 35, 41
3, 170880, Note_on_c, 0, 47, 48
3, 171296, Control_c, 0, 64, 0
3, 171360, Note_on_c, 0, 47, 0
3, 171360, Note_on_c, 0, 35, 0
3, 171360, Note_on_c, 0, 34, 43
3, 171360, Control_c, 0, 64, 127
3, 171360, Note_on_c, 0, 46, 52
3, 171817, Control_c, 0, 64, 0
3, 171840, Note_on_c, 0, 46, 0
3, 171840, Note_on_c, 0, 34, 0
3, 171840, Note_on_c, 0, 49, 57
3, 171849, Control_c, 0, 64, 127
3, 172320, Note_on_c, 0, 49, 0
3, 172320, Note_on_c, 0, 33, 43
3, 172320, Note_on_c, 0, 45, 52
3, 172736, Control_c, 0, 64, 0
3, 172800, Note_on_c, 0, 45, 0
3, 172800, Note_on_c, 0, 33, 0
3, 172800, Note_on_c, 0, 32, 49
3, 172800, Control_c, 0, 64, 127
3, 172800, Note_on_c, 0, 44, 57
3, 173257, Control_c, 0, 64, 0
3, 173280, Note_on_c, 0, 44, 0
3, 173280, Note_on_c, 0, 32, 0
3, 173280, Note_on_c, 0, 56, 63
3, 173289, Control_c, 0, 64, 127
3, 174176, Control_c, 0, 64, 0
3, 174240, Note_on_c, 0, 56, 0
3, 174240, Note_on_c, 0, 53, 60
3, 174303, Control_c, 0, 64, 127
3, 174600, Note_on_c, 0, 53, 0
3, 174600, Note_on_c, 0, 51, 48
3, 174660, Note_on_c, 0, 51, 0
3, 174660, Note_on_c, 0, 53, 41
3, 174689, Control_c, 0, 64, 0
3, 174720, Note_on_c, 0, 53, 0
3, 174720, Note_on_c, 0, 51, 52
3, 174763, Control_c, 0, 64, 127
3, 174960, Note_on_c, 0, 51, 0
3, 174960, Note_on_c, 0, 49, 49
3, 175177, Control_c, 0, 64, 0
3, 175200, Note_on_c, 0, 49, 0
3, 175200, Note_on_c, 0, 48, 46
3, 175680, Note_on_c, 0, 48, 0
3, 175680, Note_on_c, 0, 49, 49
3, 175867, Control_c, 0, 64, 127
3, 176160, Note_on_c, 0, 44, 41
3, 176640, Note_on_c, 0, 44, 0
3, 176640, Note_on_c, 0, 37, 33
3, 176693, Control_c, 0, 64, 0
3, 177120, Note_on_c, 0, 37, 0
3, 177120, Note_on_c, 0, 49, 0
3, 177120, Note_on_c, 0, 51, 49
3, 177360, Control_c, 0, 64, 127
3, 178080, Note_on_c, 0, 51, 0
3, 178080, Note_on_c, 0, 37, 33
3, 178207, Control_c, 0, 64, 0
3, 178560, Note_on_c, 0, 37, 0
3, 178560, Note_on_c, 0, 51, 49
3, 178782, Control_c, 0, 64, 127
3, 179520, Note_on_c, 0, 51, 0
3, 179520, Note_on_c, 0, 37, 34
3, 179615, Control_c, 0, 64, 0
3, 180000, Note_on_c, 0, 37, 0
3, 180000, Note_on_c, 0, 51, 49
3, 180222, Control_c, 0, 64, 127
3, 180960, Note_on_c, 0, 51, 0
3, 180960, Note_on_c, 0, 37, 31
3, 181242, Control_c, 0, 64, 0
3, 181440, Note_on_c, 0, 37, 0
3, 181440, Note_on_c, 0, 53, 49
3, 181470, Control_c, 0, 64, 127
3, 182400, Note_on_c, 0, 53, 0
3, 182400, Note_on_c, 0, 37, 37
3, 182700, Control_c, 0, 64, 0
3, 182880, Note_on_c, 0, 37, 0
3, 182880, Note_on_c, 0, 63, 49
3, 183092, Control_c, 0, 64, 127
3, 183840, Note_on_c, 0, 63, 0
3, 183840, Note_on_c, 0, 49, 31
3, 183967, Control_c, 0, 64, 0
3, 184320, Note_on_c, 0, 49, 0
3, 184320, Note_on_c, 0, 63, 49
3, 184564, Control_c, 0, 64, 127
3, 185280, Note_on_c, 0, 63, 0
3, 185280, Note_on_c, 0, 49, 33
3, 185375, Control_c, 0, 64, 0
3, 185760, Note_on_c, 0, 49, 0
3, 185760, Note_on_c, 0, 63, 49
3, 186028, Control_c, 0, 64, 127
3, 186720, Note_on_c, 0, 63, 0
3, 186720, Note_on_c, 0, 49, 34
3, 187002, Control_c, 0, 64, 0
3, 187200, Note_on_c, 0, 49, 0
3, 187200, Note_on_c, 0, 65, 49
3, 187230, Control_c, 0, 64, 127
3, 188160, Note_on_c, 0, 65, 0
3, 188160, Note_on_c, 0, 49, 34
3, 188460, Control_c, 0, 64, 0
3, 188640, Note_on_c, 0, 49, 0
3, 188640, Note_on_c, 0, 65, 39
3, 188658, Control_c, 0, 64, 127
3, 189600, Control_c, 0, 64, 127
3, 189911, Control_c, 0, 64, 0
3, 189956, Control_c, 0, 64, 127
3, 190560, Note_on_c, 0, 65, 0
3, 190560, Note_on_c, 0, 61, 31
3, 191360, Control_c, 0, 64, 0
3, 191520, Note_on_c, 0, 61, 0
3, 191520, End_track
4, 0, Start_track
4, 0, MIDI_port, 0
4, 0, Title_t, "Borodin: Petite Suite, Mazurka 2"
4, 0, End_track
5, 0, Start_track
5, 0, MIDI_port, 0
5, 0, Title_t, "Copyright © 2000 by Bernd Krüger"
5, 0, End_track
6, 0, Start_track
6, 0, MIDI_port, 0
6, 0, Title_t, "email: bernd.krueger@piano-midi.de"
6, 0, End_track
7, 0, Start_track
7, 0, MIDI_port, 0
7, 0, Title_t, "http://www.piano-midi.de"
7, 0, End_track
8, 0, Start_track
8, 0, MIDI_port, 0
8, 0, Title_t, "Edition: 21.8.00"
8, 0, End_track
9, 0, Start_track
9, 0, MIDI_port, 0
9, 0, End_track
0, 0, End_of_file
