0, 0, Header, 1, 10, 480
1, 0, Start_track
1, 0, Title_t, "Petite Suite"
1, 0, Title_t, "7. Nocturne"
1, 0, Copyright_t, "Copyright © 2000 by Bernd Krueger"
1, 0, Text_t, "Alexander Borodin"
1, 0, Text_t, "Fertiggestellt am 25.6.2000\012"
1, 0, Text_t, "Update am 21.8.2000\012"
1, 0, Text_t, "Normierung: 23.12.2002\012"
1, 0, Text_t, "Dauer: 2:08 Minuten\012"
1, 0, SMPTE_offset, 96, 0, 3, 0, 0
1, 0, Time_signature, 4, 2, 24, 8
1, 0, Key_signature, -6, "major"
1, 0, Tempo, 740101
1, 0, Marker_t, "Nocturne"
1, 1440, Tempo, 740101
1, 1920, Tempo, 727185
1, 2640, Tempo, 748970
1, 2880, Tempo, 727185
1, 3360, Tempo, 731440
1, 3600, Tempo, 758246
1, 3840, Tempo, 727185
1, 4560, Tempo, 748970
1, 4800, Tempo, 727185
1, 5280, Tempo, 735745
1, 5520, Tempo, 762873
1, 5760, Tempo, 727185
1, 6240, Tempo, 744602
1, 6480, Tempo, 772300
1, 6720, Tempo, 807428
1, 7200, Tempo, 1554807
1, 7680, Tempo, 727185
1, 7920, Tempo, 706464
1, 8160, Tempo, 727185
1, 8400, Tempo, 748970
1, 8640, Tempo, 727185
1, 8880, Tempo, 718649
1, 9120, Tempo, 731440
1, 9360, Tempo, 735745
1, 9600, Tempo, 718649
1, 9840, Tempo, 710480
1, 10080, Tempo, 718649
1, 10320, Tempo, 718649
1, 10560, Tempo, 727185
1, 10800, Tempo, 714626
1, 11040, Tempo, 727185
1, 11280, Tempo, 735745
1, 11520, Tempo, 718649
1, 11760, Tempo, 710480
1, 12000, Tempo, 718649
1, 12240, Tempo, 727185
1, 12440, Tempo, 710480
1, 12720, Tempo, 714626
1, 12960, Tempo, 722979
1, 13200, Tempo, 740101
1, 13440, Tempo, 718649
1, 13680, Tempo, 710480
1, 13920, Tempo, 718649
1, 14160, Tempo, 710059
1, 14400, Tempo, 727185
1, 14640, Tempo, 714626
1, 14880, Tempo, 722804
1, 15120, Tempo, 714286
1, 15360, Tempo, 718649
1, 15600, Tempo, 710480
1, 15840, Tempo, 718649
1, 16080, Tempo, 727185
1, 16320, Tempo, 714626
1, 16560, Tempo, 714626
1, 16800, Tempo, 731440
1, 17040, Tempo, 748970
1, 17280, Tempo, 718649
1, 17520, Tempo, 710480
1, 17760, Tempo, 718649
1, 18000, Tempo, 714286
1, 18240, Tempo, 727185
1, 18480, Tempo, 714626
1, 18720, Tempo, 731440
1, 18960, Tempo, 767558
1, 19200, Key_signature, -1, "major"
1, 19200, Tempo, 718649
1, 19440, Tempo, 710480
1, 19680, Tempo, 718649
1, 19920, Tempo, 727185
1, 20160, Tempo, 727185
1, 20400, Tempo, 714626
1, 20640, Tempo, 731440
1, 20880, Tempo, 767558
1, 21120, Tempo, 718649
1, 21360, Tempo, 710480
1, 21600, Tempo, 722892
1, 21840, Tempo, 705882
1, 22080, Tempo, 714286
1, 22320, Tempo, 702412
1, 22560, Tempo, 710480
1, 22800, Tempo, 722979
1, 23040, Tempo, 710480
1, 23280, Tempo, 694686
1, 23520, Tempo, 706464
1, 23760, Tempo, 686970
1, 24000, Tempo, 698568
1, 24480, Tempo, 727185
1, 24720, Tempo, 812788
1, 24840, Tempo, 727185
1, 24960, Tempo, 718649
1, 25200, Tempo, 710480
1, 25440, Tempo, 718649
1, 25680, Tempo, 702412
1, 25920, Tempo, 718649
1, 26160, Tempo, 702412
1, 26400, Tempo, 718649
1, 26640, Tempo, 710480
1, 26880, Tempo, 718649
1, 27120, Tempo, 698568
1, 27360, Tempo, 718649
1, 27600, Tempo, 694686
1, 28080, Tempo, 714626
1, 28320, Tempo, 731440
1, 28560, Tempo, 772300
1, 28800, Tempo, 718649
1, 29040, Tempo, 702412
1, 29320, Tempo, 710480
1, 29520, Tempo, 702412
1, 29760, Tempo, 722979
1, 30000, Tempo, 706464
1, 30240, Tempo, 714626
1, 30480, Tempo, 714626
1, 30720, Tempo, 718649
1, 30960, Tempo, 702412
1, 31200, Tempo, 714286
1, 31440, Tempo, 698568
1, 32160, Tempo, 722979
1, 32400, Tempo, 812788
1, 32520, Tempo, 727185
1, 32640, Tempo, 718649
1, 32880, Tempo, 694686
1, 33120, Tempo, 714626
1, 33360, Tempo, 706464
1, 33600, Tempo, 722979
1, 33840, Tempo, 706464
1, 34080, Tempo, 706464
1, 34320, Tempo, 714626
1, 34560, Tempo, 718649
1, 34800, Tempo, 710480
1, 35040, Tempo, 718649
1, 35280, Tempo, 718649
1, 35320, Tempo, 714626
1, 35520, Tempo, 727185
1, 35760, Tempo, 714626
1, 36000, Tempo, 727185
1, 36240, Tempo, 748970
1, 36480, Tempo, 718649
1, 36720, Tempo, 710480
1, 36960, Tempo, 718649
1, 37200, Tempo, 748970
1, 37440, Tempo, 727185
1, 37680, Tempo, 718649
1, 38160, Tempo, 772300
1, 38400, Tempo, 744602
1, 38880, Tempo, 875657
1, 39840, Tempo, 777202
1, 40320, Tempo, 762873
1, 40800, Tempo, 791975
1, 41280, Tempo, 781963
1, 41760, Tempo, 812788
1, 42000, Tempo, 863434
1, 43680, Tempo, 740101
1, 44160, Key_signature, -6, "major"
1, 44160, Tempo, 727185
1, 44880, Tempo, 748970
1, 45120, Tempo, 727185
1, 45600, Tempo, 731440
1, 45840, Tempo, 758246
1, 46080, Tempo, 727185
1, 46800, Tempo, 748970
1, 47040, Tempo, 727185
1, 47520, Tempo, 735745
1, 47760, Tempo, 762873
1, 48000, Tempo, 727185
1, 48480, Tempo, 744602
1, 48720, Tempo, 772300
1, 48960, Tempo, 807428
1, 49440, Tempo, 1554807
1, 49920, Tempo, 727185
1, 50160, Tempo, 706464
1, 50400, Tempo, 727185
1, 50640, Tempo, 748970
1, 50880, Tempo, 727185
1, 51120, Tempo, 718649
1, 51360, Tempo, 731440
1, 51600, Tempo, 735745
1, 51840, Tempo, 718649
1, 52080, Tempo, 710480
1, 52320, Tempo, 718649
1, 52560, Tempo, 718649
1, 52800, Tempo, 727185
1, 53040, Tempo, 714626
1, 53280, Tempo, 727185
1, 53520, Tempo, 714286
1, 53760, Tempo, 718649
1, 54000, Tempo, 710480
1, 54240, Tempo, 718649
1, 54480, Tempo, 727185
1, 54680, Tempo, 710480
1, 54960, Tempo, 714626
1, 55200, Tempo, 722979
1, 55440, Tempo, 740101
1, 55680, Tempo, 718649
1, 55920, Tempo, 710480
1, 56160, Tempo, 718649
1, 56400, Tempo, 718649
1, 56640, Tempo, 727185
1, 56880, Tempo, 714626
1, 57120, Tempo, 727185
1, 57360, Tempo, 722979
1, 57600, Tempo, 718649
1, 57840, Tempo, 710480
1, 58080, Tempo, 718649
1, 58320, Tempo, 727185
1, 58560, Tempo, 714626
1, 58800, Tempo, 714626
1, 59040, Tempo, 731440
1, 59280, Tempo, 748970
1, 59520, Tempo, 718649
1, 59760, Tempo, 710480
1, 60000, Tempo, 718649
1, 60240, Tempo, 727185
1, 60480, Tempo, 727185
1, 60720, Tempo, 714626
1, 60960, Tempo, 731440
1, 61200, Tempo, 767558
1, 61440, Tempo, 718649
1, 61680, Tempo, 710480
1, 61920, Tempo, 718649
1, 62160, Tempo, 727185
1, 62400, Tempo, 727185
1, 62640, Tempo, 714626
1, 62880, Tempo, 731440
1, 63120, Tempo, 767558
1, 63240, Tempo, 702412
1, 63360, Tempo, 714626
1, 63600, Tempo, 690767
1, 63840, Tempo, 702412
1, 64080, Tempo, 722979
1, 64320, Tempo, 694686
1, 64560, Tempo, 679425
1, 64800, Tempo, 694686
1, 65040, Tempo, 744602
1, 65160, Tempo, 710480
1, 65280, Tempo, 698568
1, 65520, Tempo, 675676
1, 65760, Tempo, 690767
1, 66000, Tempo, 706464
1, 66240, Tempo, 694686
1, 66480, Tempo, 679425
1, 66720, Tempo, 694686
1, 66960, Tempo, 740101
1, 67140, Tempo, 706464
1, 67200, Tempo, 694686
1, 67440, Tempo, 675676
1, 67680, Tempo, 686970
1, 67920, Tempo, 706464
1, 68160, Tempo, 694686
1, 68400, Tempo, 679425
1, 68640, Tempo, 694686
1, 68880, Tempo, 722979
1, 69000, Tempo, 710480
1, 69120, Tempo, 698568
1, 69360, Tempo, 675676
1, 69600, Tempo, 690767
1, 69840, Tempo, 706464
1, 70080, Tempo, 694686
1, 70320, Tempo, 679425
1, 70560, Tempo, 694686
1, 70800, Tempo, 710480
1, 71040, Tempo, 698568
1, 71280, Tempo, 679425
1, 71520, Tempo, 694686
1, 71760, Tempo, 698568
1, 72000, Tempo, 702412
1, 72240, Tempo, 690767
1, 72480, Tempo, 694686
1, 72720, Tempo, 710480
1, 72960, Tempo, 698568
1, 73200, Tempo, 679425
1, 73440, Tempo, 694686
1, 73680, Tempo, 698568
1, 73920, Tempo, 702412
1, 74160, Tempo, 690767
1, 74400, Tempo, 706464
1, 74640, Tempo, 722979
1, 74880, Tempo, 710480
1, 75120, Tempo, 698568
1, 75360, Tempo, 714626
1, 75600, Tempo, 706464
1, 75840, Tempo, 727185
1, 76080, Tempo, 714626
1, 76320, Tempo, 727185
1, 76560, Tempo, 735745
1, 76800, Tempo, 718649
1, 77040, Tempo, 710480
1, 77280, Tempo, 740101
1, 77520, Tempo, 718649
1, 77760, Tempo, 744602
1, 78000, Tempo, 727185
1, 78240, Tempo, 748970
1, 78480, Tempo, 772300
1, 78960, Tempo, 817996
1, 79200, Tempo, 1036090
1, 80642, Tempo, 1000000
1, 80642, Marker_t, "Fine"
1, 82560, Tempo, 1200000
1, 82560, End_track
2, 0, Start_track
2, 0, MIDI_port, 0
2, 0, Title_t, "Piano right"
2, 0, Program_c, 0, 0
2, 0, Control_c, 0, 7, 100
2, 0, Control_c, 0, 64, 0
2, 0, Control_c, 0, 91, 127
2, 0, Text_t, "bdca426d104a26ac9dcb070447587523"
2, 1679, Control_c, 0, 91, 127
2, 1680, Note_on_c, 0, 68, 51
2, 1920, Note_on_c, 0, 68, 0
2, 1920, Note_on_c, 0, 63, 46
2, 1920, Note_on_c, 0, 59, 46
2, 1920, Note_on_c, 0, 68, 55
2, 2160, Note_on_c, 0, 68, 0
2, 2160, Note_on_c, 0, 70, 49
2, 2400, Note_on_c, 0, 70, 0
2, 2400, Note_on_c, 0, 70, 51
2, 2640, Note_on_c, 0, 70, 0
2, 2640, Note_on_c, 0, 59, 0
2, 2640, Note_on_c, 0, 63, 0
2, 2640, Note_on_c, 0, 68, 49
2, 2640, Note_on_c, 0, 59, 49
2, 2640, Note_on_c, 0, 63, 49
2, 2880, Note_on_c, 0, 63, 0
2, 2880, Note_on_c, 0, 59, 0
2, 2880, Note_on_c, 0, 68, 0
2, 2880, Note_on_c, 0, 59, 46
2, 2880, Note_on_c, 0, 63, 46
2, 2880, Note_on_c, 0, 68, 55
2, 3120, Note_on_c, 0, 68, 0
2, 3120, Note_on_c, 0, 70, 51
2, 3360, Note_on_c, 0, 70, 0
2, 3360, Note_on_c, 0, 70, 52
2, 3600, Note_on_c, 0, 70, 0
2, 3600, Note_on_c, 0, 63, 0
2, 3600, Note_on_c, 0, 59, 0
2, 3600, Note_on_c, 0, 68, 56
2, 3600, Note_on_c, 0, 59, 47
2, 3600, Note_on_c, 0, 62, 47
2, 3840, Note_on_c, 0, 62, 0
2, 3840, Note_on_c, 0, 59, 0
2, 3840, Note_on_c, 0, 68, 0
2, 3840, Note_on_c, 0, 59, 49
2, 3840, Note_on_c, 0, 62, 49
2, 3840, Note_on_c, 0, 68, 58
2, 4080, Note_on_c, 0, 68, 0
2, 4080, Note_on_c, 0, 70, 53
2, 4320, Note_on_c, 0, 70, 0
2, 4320, Note_on_c, 0, 70, 55
2, 4560, Note_on_c, 0, 70, 0
2, 4560, Note_on_c, 0, 62, 0
2, 4560, Note_on_c, 0, 59, 0
2, 4560, Note_on_c, 0, 62, 48
2, 4560, Note_on_c, 0, 59, 48
2, 4560, Note_on_c, 0, 68, 57
2, 4800, Note_on_c, 0, 68, 0
2, 4800, Note_on_c, 0, 59, 0
2, 4800, Note_on_c, 0, 62, 0
2, 4800, Note_on_c, 0, 59, 50
2, 4800, Note_on_c, 0, 63, 50
2, 4800, Note_on_c, 0, 68, 60
2, 5040, Note_on_c, 0, 68, 0
2, 5040, Note_on_c, 0, 70, 56
2, 5280, Note_on_c, 0, 70, 0
2, 5280, Note_on_c, 0, 70, 56
2, 5520, Note_on_c, 0, 70, 0
2, 5520, Note_on_c, 0, 63, 0
2, 5520, Note_on_c, 0, 59, 0
2, 5520, Note_on_c, 0, 64, 50
2, 5520, Note_on_c, 0, 59, 50
2, 5520, Note_on_c, 0, 68, 60
2, 5760, Note_on_c, 0, 68, 0
2, 5760, Note_on_c, 0, 59, 0
2, 5760, Note_on_c, 0, 64, 0
2, 5760, Note_on_c, 0, 59, 52
2, 5760, Note_on_c, 0, 65, 52
2, 5760, Note_on_c, 0, 68, 62
2, 6000, Note_on_c, 0, 68, 0
2, 6000, Note_on_c, 0, 70, 57
2, 6240, Note_on_c, 0, 70, 0
2, 6240, Note_on_c, 0, 70, 58
2, 6480, Note_on_c, 0, 70, 0
2, 6480, Note_on_c, 0, 68, 47
2, 6720, Note_on_c, 0, 68, 0
2, 6720, Note_on_c, 0, 68, 51
2, 6960, Note_on_c, 0, 68, 0
2, 6960, Note_on_c, 0, 73, 42
2, 7200, Note_on_c, 0, 73, 0
2, 7200, Note_on_c, 0, 65, 0
2, 7200, Note_on_c, 0, 59, 0
2, 7200, Note_on_c, 0, 73, 40
2, 7680, Note_on_c, 0, 73, 0
2, 9360, Note_on_c, 0, 58, 40
2, 9360, Note_on_c, 0, 66, 46
2, 9600, Note_on_c, 0, 66, 0
2, 9600, Note_on_c, 0, 58, 0
2, 9600, Note_on_c, 0, 66, 49
2, 9600, Note_on_c, 0, 58, 41
2, 9840, Note_on_c, 0, 70, 44
2, 10080, Note_on_c, 0, 70, 0
2, 10080, Note_on_c, 0, 70, 46
2, 10320, Note_on_c, 0, 70, 0
2, 10320, Note_on_c, 0, 58, 0
2, 10320, Note_on_c, 0, 66, 0
2, 10320, Note_on_c, 0, 58, 39
2, 10320, Note_on_c, 0, 65, 44
2, 10560, Note_on_c, 0, 65, 0
2, 10560, Note_on_c, 0, 58, 0
2, 10560, Note_on_c, 0, 65, 48
2, 10560, Note_on_c, 0, 58, 42
2, 10800, Note_on_c, 0, 70, 45
2, 11040, Note_on_c, 0, 70, 0
2, 11040, Note_on_c, 0, 70, 47
2, 11280, Note_on_c, 0, 70, 0
2, 11280, Note_on_c, 0, 58, 0
2, 11280, Note_on_c, 0, 65, 0
2, 11280, Note_on_c, 0, 58, 38
2, 11280, Note_on_c, 0, 63, 42
2, 11520, Note_on_c, 0, 63, 0
2, 11520, Note_on_c, 0, 58, 0
2, 11520, Note_on_c, 0, 63, 49
2, 11520, Note_on_c, 0, 58, 44
2, 11760, Note_on_c, 0, 70, 44
2, 12000, Note_on_c, 0, 70, 0
2, 12000, Note_on_c, 0, 70, 46
2, 12240, Note_on_c, 0, 70, 0
2, 12240, Note_on_c, 0, 58, 0
2, 12240, Note_on_c, 0, 63, 0
2, 12240, Note_on_c, 0, 61, 44
2, 12240, Note_on_c, 0, 58, 39
2, 12420, Note_on_c, 0, 58, 0
2, 12420, Note_on_c, 0, 61, 0
2, 12480, Note_on_c, 0, 58, 42
2, 12480, Note_on_c, 0, 63, 48
2, 12660, Note_on_c, 0, 63, 0
2, 12660, Note_on_c, 0, 58, 0
2, 12720, Note_on_c, 0, 58, 42
2, 12720, Note_on_c, 0, 65, 42
2, 12900, Note_on_c, 0, 65, 0
2, 12900, Note_on_c, 0, 58, 0
2, 12960, Note_on_c, 0, 66, 48
2, 12960, Note_on_c, 0, 58, 42
2, 13140, Note_on_c, 0, 58, 0
2, 13140, Note_on_c, 0, 66, 0
2, 13200, Note_on_c, 0, 58, 44
2, 13200, Note_on_c, 0, 70, 44
2, 13380, Note_on_c, 0, 70, 0
2, 13380, Note_on_c, 0, 58, 0
2, 13440, Note_on_c, 0, 59, 44
2, 13440, Note_on_c, 0, 68, 49
2, 13680, Note_on_c, 0, 71, 44
2, 13920, Note_on_c, 0, 71, 0
2, 13920, Note_on_c, 0, 71, 46
2, 14160, Note_on_c, 0, 71, 0
2, 14160, Note_on_c, 0, 68, 0
2, 14160, Note_on_c, 0, 59, 0
2, 14160, Note_on_c, 0, 66, 44
2, 14160, Note_on_c, 0, 59, 39
2, 14400, Note_on_c, 0, 59, 0
2, 14400, Note_on_c, 0, 66, 0
2, 14400, Note_on_c, 0, 59, 42
2, 14400, Note_on_c, 0, 66, 48
2, 14640, Note_on_c, 0, 71, 45
2, 14880, Note_on_c, 0, 71, 0
2, 14880, Note_on_c, 0, 71, 47
2, 15120, Note_on_c, 0, 71, 0
2, 15120, Note_on_c, 0, 66, 0
2, 15120, Note_on_c, 0, 59, 0
2, 15120, Note_on_c, 0, 65, 42
2, 15120, Note_on_c, 0, 59, 38
2, 15360, Note_on_c, 0, 59, 0
2, 15360, Note_on_c, 0, 65, 0
2, 15360, Note_on_c, 0, 59, 44
2, 15360, Note_on_c, 0, 65, 49
2, 15600, Note_on_c, 0, 71, 44
2, 15840, Note_on_c, 0, 71, 0
2, 15840, Note_on_c, 0, 71, 46
2, 16080, Note_on_c, 0, 71, 0
2, 16080, Note_on_c, 0, 65, 0
2, 16080, Note_on_c, 0, 59, 0
2, 16080, Note_on_c, 0, 65, 44
2, 16080, Note_on_c, 0, 59, 39
2, 16200, Note_on_c, 0, 65, 0
2, 16320, Note_on_c, 0, 59, 0
2, 16320, Note_on_c, 0, 59, 42
2, 16320, Note_on_c, 0, 66, 48
2, 16500, Note_on_c, 0, 66, 0
2, 16560, Note_on_c, 0, 65, 42
2, 16740, Note_on_c, 0, 65, 0
2, 16800, Note_on_c, 0, 66, 48
2, 16980, Note_on_c, 0, 66, 0
2, 17040, Note_on_c, 0, 68, 44
2, 17220, Note_on_c, 0, 68, 0
2, 17280, Note_on_c, 0, 59, 0
2, 17280, Note_on_c, 0, 58, 44
2, 17280, Note_on_c, 0, 66, 49
2, 17520, Note_on_c, 0, 70, 44
2, 17760, Note_on_c, 0, 70, 0
2, 17760, Note_on_c, 0, 70, 50
2, 18000, Note_on_c, 0, 70, 0
2, 18000, Note_on_c, 0, 66, 0
2, 18000, Note_on_c, 0, 58, 0
2, 18000, Note_on_c, 0, 58, 44
2, 18000, Note_on_c, 0, 65, 48
2, 18240, Note_on_c, 0, 65, 0
2, 18240, Note_on_c, 0, 58, 0
2, 18240, Note_on_c, 0, 58, 50
2, 18240, Note_on_c, 0, 65, 57
2, 18480, Note_on_c, 0, 70, 55
2, 18720, Note_on_c, 0, 70, 0
2, 18720, Note_on_c, 0, 70, 61
2, 18960, Note_on_c, 0, 70, 0
2, 18960, Note_on_c, 0, 65, 0
2, 18960, Note_on_c, 0, 58, 0
2, 18960, Note_on_c, 0, 64, 57
2, 18960, Note_on_c, 0, 58, 50
2, 19200, Note_on_c, 0, 58, 0
2, 19200, Note_on_c, 0, 64, 0
2, 19200, Note_on_c, 0, 58, 62
2, 19200, Note_on_c, 0, 64, 70
2, 19440, Note_on_c, 0, 70, 62
2, 19680, Note_on_c, 0, 70, 0
2, 19680, Note_on_c, 0, 70, 66
2, 19920, Note_on_c, 0, 70, 0
2, 19920, Note_on_c, 0, 64, 0
2, 19920, Note_on_c, 0, 58, 0
2, 19920, Note_on_c, 0, 64, 62
2, 19920, Note_on_c, 0, 58, 56
2, 20160, Note_on_c, 0, 58, 0
2, 20160, Note_on_c, 0, 64, 0
2, 20160, Note_on_c, 0, 58, 59
2, 20160, Note_on_c, 0, 64, 66
2, 20400, Note_on_c, 0, 72, 59
2, 20640, Note_on_c, 0, 72, 0
2, 20640, Note_on_c, 0, 64, 0
2, 20640, Note_on_c, 0, 72, 58
2, 20880, Note_on_c, 0, 72, 0
2, 20880, Note_on_c, 0, 58, 0
2, 20880, Note_on_c, 0, 70, 49
2, 20880, Note_on_c, 0, 64, 49
2, 21120, Note_on_c, 0, 64, 0
2, 21120, Note_on_c, 0, 70, 0
2, 21120, Note_on_c, 0, 65, 45
2, 21120, Note_on_c, 0, 69, 50
2, 21120, Note_on_c, 0, 60, 45
2, 21840, Note_on_c, 0, 60, 0
2, 21840, Note_on_c, 0, 69, 0
2, 21840, Note_on_c, 0, 65, 0
2, 21840, Note_on_c, 0, 60, 42
2, 21840, Note_on_c, 0, 67, 48
2, 21840, Note_on_c, 0, 72, 48
2, 22080, Note_on_c, 0, 72, 0
2, 22080, Note_on_c, 0, 67, 0
2, 22080, Note_on_c, 0, 60, 0
2, 22080, Note_on_c, 0, 72, 50
2, 22080, Note_on_c, 0, 67, 50
2, 22080, Note_on_c, 0, 60, 45
2, 22800, Note_on_c, 0, 60, 0
2, 22800, Note_on_c, 0, 67, 0
2, 22800, Note_on_c, 0, 72, 0
2, 22800, Note_on_c, 0, 69, 52
2, 22800, Note_on_c, 0, 65, 52
2, 22800, Note_on_c, 0, 74, 58
2, 23040, Note_on_c, 0, 74, 0
2, 23040, Note_on_c, 0, 65, 0
2, 23040, Note_on_c, 0, 69, 0
2, 23040, Note_on_c, 0, 65, 55
2, 23040, Note_on_c, 0, 69, 55
2, 23040, Note_on_c, 0, 74, 62
2, 23760, Note_on_c, 0, 74, 0
2, 23760, Note_on_c, 0, 69, 0
2, 23760, Note_on_c, 0, 65, 0
2, 23760, Note_on_c, 0, 77, 56
2, 23760, Note_on_c, 0, 69, 49
2, 23760, Note_on_c, 0, 72, 49
2, 23940, Note_on_c, 0, 72, 0
2, 23940, Note_on_c, 0, 69, 0
2, 23940, Note_on_c, 0, 77, 0
2, 24000, Note_on_c, 0, 65, 55
2, 24000, Note_on_c, 0, 69, 55
2, 24000, Note_on_c, 0, 74, 60
2, 24180, Note_on_c, 0, 74, 0
2, 24180, Note_on_c, 0, 69, 0
2, 24180, Note_on_c, 0, 65, 0
2, 24240, Note_on_c, 0, 72, 50
2, 24240, Note_on_c, 0, 64, 45
2, 24240, Note_on_c, 0, 67, 45
2, 24420, Note_on_c, 0, 67, 0
2, 24420, Note_on_c, 0, 64, 0
2, 24420, Note_on_c, 0, 72, 0
2, 24480, Note_on_c, 0, 60, 46
2, 24480, Note_on_c, 0, 65, 46
2, 24480, Note_on_c, 0, 69, 51
2, 24660, Note_on_c, 0, 69, 0
2, 24660, Note_on_c, 0, 65, 0
2, 24660, Note_on_c, 0, 60, 0
2, 24720, Note_on_c, 0, 58, 40
2, 24720, Note_on_c, 0, 67, 45
2, 24720, Note_on_c, 0, 62, 40
2, 24900, Note_on_c, 0, 62, 0
2, 24900, Note_on_c, 0, 67, 0
2, 24900, Note_on_c, 0, 58, 0
2, 24960, Note_on_c, 0, 62, 45
2, 24960, Note_on_c, 0, 58, 45
2, 24960, Note_on_c, 0, 67, 50
2, 25200, Note_on_c, 0, 58, 0
2, 25680, Note_on_c, 0, 67, 0
2, 25680, Note_on_c, 0, 62, 0
2, 25680, Note_on_c, 0, 62, 42
2, 25680, Note_on_c, 0, 67, 48
2, 25680, Note_on_c, 0, 70, 48
2, 25920, Note_on_c, 0, 70, 0
2, 25920, Note_on_c, 0, 67, 0
2, 25920, Note_on_c, 0, 62, 0
2, 25920, Note_on_c, 0, 62, 45
2, 25920, Note_on_c, 0, 70, 50
2, 25920, Note_on_c, 0, 67, 50
2, 26640, Note_on_c, 0, 67, 0
2, 26640, Note_on_c, 0, 70, 0
2, 26640, Note_on_c, 0, 62, 0
2, 26640, Note_on_c, 0, 67, 52
2, 26640, Note_on_c, 0, 70, 52
2, 26640, Note_on_c, 0, 74, 58
2, 26880, Note_on_c, 0, 74, 0
2, 26880, Note_on_c, 0, 70, 0
2, 26880, Note_on_c, 0, 67, 0
2, 26880, Note_on_c, 0, 67, 55
2, 26880, Note_on_c, 0, 70, 55
2, 26880, Note_on_c, 0, 74, 62
2, 27600, Note_on_c, 0, 74, 0
2, 27600, Note_on_c, 0, 70, 0
2, 27600, Note_on_c, 0, 67, 0
2, 27600, Note_on_c, 0, 70, 50
2, 27600, Note_on_c, 0, 67, 50
2, 27600, Note_on_c, 0, 74, 50
2, 27600, Note_on_c, 0, 77, 57
2, 27780, Note_on_c, 0, 77, 0
2, 27780, Note_on_c, 0, 70, 0
2, 27780, Note_on_c, 0, 67, 0
2, 27780, Note_on_c, 0, 74, 0
2, 27840, Note_on_c, 0, 67, 56
2, 27840, Note_on_c, 0, 77, 62
2, 27840, Note_on_c, 0, 70, 56
2, 27840, Note_on_c, 0, 74, 56
2, 28020, Note_on_c, 0, 74, 0
2, 28020, Note_on_c, 0, 67, 0
2, 28020, Note_on_c, 0, 77, 0
2, 28020, Note_on_c, 0, 70, 0
2, 28080, Note_on_c, 0, 67, 46
2, 28080, Note_on_c, 0, 70, 46
2, 28080, Note_on_c, 0, 76, 52
2, 28260, Note_on_c, 0, 76, 0
2, 28260, Note_on_c, 0, 70, 0
2, 28260, Note_on_c, 0, 67, 0
2, 28320, Note_on_c, 0, 67, 49
2, 28320, Note_on_c, 0, 77, 55
2, 28320, Note_on_c, 0, 74, 49
2, 28320, Note_on_c, 0, 70, 49
2, 28500, Note_on_c, 0, 70, 0
2, 28500, Note_on_c, 0, 67, 0
2, 28500, Note_on_c, 0, 77, 0
2, 28500, Note_on_c, 0, 74, 0
2, 28560, Note_on_c, 0, 72, 42
2, 28560, Note_on_c, 0, 70, 42
2, 28560, Note_on_c, 0, 67, 42
2, 28560, Note_on_c, 0, 79, 48
2, 28680, Note_on_c, 0, 65, 39
2, 28740, Note_on_c, 0, 79, 0
2, 28740, Note_on_c, 0, 67, 0
2, 28740, Note_on_c, 0, 72, 0
2, 28740, Note_on_c, 0, 70, 0
2, 28740, Note_on_c, 0, 72, 45
2, 28800, Note_on_c, 0, 81, 50
2, 29520, Note_on_c, 0, 81, 0
2, 29520, Note_on_c, 0, 72, 0
2, 29520, Note_on_c, 0, 65, 0
2, 29520, Note_on_c, 0, 84, 52
2, 29520, Note_on_c, 0, 72, 47
2, 29520, Note_on_c, 0, 79, 52
2, 29760, Note_on_c, 0, 79, 0
2, 29760, Note_on_c, 0, 72, 0
2, 29760, Note_on_c, 0, 84, 0
2, 29760, Note_on_c, 0, 84, 56
2, 29760, Note_on_c, 0, 79, 56
2, 29760, Note_on_c, 0, 72, 50
2, 30480, Note_on_c, 0, 72, 0
2, 30480, Note_on_c, 0, 79, 0
2, 30480, Note_on_c, 0, 84, 0
2, 30480, Note_on_c, 0, 86, 64
2, 30480, Note_on_c, 0, 77, 59
2, 30480, Note_on_c, 0, 81, 59
2, 30720, Note_on_c, 0, 81, 0
2, 30720, Note_on_c, 0, 77, 0
2, 30720, Note_on_c, 0, 86, 0
2, 30720, Note_on_c, 0, 77, 61
2, 30720, Note_on_c, 0, 81, 61
2, 30720, Note_on_c, 0, 86, 69
2, 31440, Note_on_c, 0, 86, 0
2, 31440, Note_on_c, 0, 81, 0
2, 31440, Note_on_c, 0, 77, 0
2, 31440, Note_on_c, 0, 81, 55
2, 31440, Note_on_c, 0, 84, 55
2, 31440, Note_on_c, 0, 89, 62
2, 31620, Note_on_c, 0, 89, 0
2, 31620, Note_on_c, 0, 84, 0
2, 31620, Note_on_c, 0, 81, 0
2, 31680, Note_on_c, 0, 81, 59
2, 31680, Note_on_c, 0, 77, 59
2, 31680, Note_on_c, 0, 86, 66
2, 31860, Note_on_c, 0, 86, 0
2, 31860, Note_on_c, 0, 77, 0
2, 31860, Note_on_c, 0, 81, 0
2, 31920, Note_on_c, 0, 76, 48
2, 31920, Note_on_c, 0, 79, 48
2, 31920, Note_on_c, 0, 84, 52
2, 32100, Note_on_c, 0, 84, 0
2, 32100, Note_on_c, 0, 79, 0
2, 32100, Note_on_c, 0, 76, 0
2, 32160, Note_on_c, 0, 81, 51
2, 32160, Note_on_c, 0, 77, 46
2, 32160, Note_on_c, 0, 72, 46
2, 32340, Note_on_c, 0, 72, 0
2, 32340, Note_on_c, 0, 77, 0
2, 32340, Note_on_c, 0, 81, 0
2, 32400, Note_on_c, 0, 70, 39
2, 32400, Note_on_c, 0, 74, 39
2, 32400, Note_on_c, 0, 79, 44
2, 32580, Note_on_c, 0, 79, 0
2, 32580, Note_on_c, 0, 74, 0
2, 32580, Note_on_c, 0, 70, 0
2, 32640, Note_on_c, 0, 79, 50
2, 32640, Note_on_c, 0, 70, 45
2, 32640, Note_on_c, 0, 74, 45
2, 33360, Note_on_c, 0, 74, 0
2, 33360, Note_on_c, 0, 70, 0
2, 33360, Note_on_c, 0, 79, 0
2, 33360, Note_on_c, 0, 70, 48
2, 33360, Note_on_c, 0, 67, 42
2, 33360, Note_on_c, 0, 74, 48
2, 33600, Note_on_c, 0, 74, 0
2, 33600, Note_on_c, 0, 67, 0
2, 33600, Note_on_c, 0, 70, 0
2, 33600, Note_on_c, 0, 74, 50
2, 33600, Note_on_c, 0, 70, 50
2, 33600, Note_on_c, 0, 67, 45
2, 34320, Note_on_c, 0, 67, 0
2, 34320, Note_on_c, 0, 70, 0
2, 34320, Note_on_c, 0, 74, 0
2, 34320, Note_on_c, 0, 70, 49
2, 34320, Note_on_c, 0, 60, 49
2, 34320, Note_on_c, 0, 67, 49
2, 34320, Note_on_c, 0, 72, 55
2, 34560, Note_on_c, 0, 72, 0
2, 34560, Note_on_c, 0, 70, 0
2, 34560, Note_on_c, 0, 60, 0
2, 34560, Note_on_c, 0, 67, 0
2, 34560, Note_on_c, 0, 60, 47
2, 34560, Note_on_c, 0, 72, 52
2, 34560, Note_on_c, 0, 67, 47
2, 34560, Note_on_c, 0, 70, 47
2, 35280, Note_on_c, 0, 70, 0
2, 35280, Note_on_c, 0, 60, 0
2, 35280, Note_on_c, 0, 72, 0
2, 35280, Note_on_c, 0, 67, 0
2, 35280, Note_on_c, 0, 66, 49
2, 35280, Note_on_c, 0, 60, 49
2, 35280, Note_on_c, 0, 70, 56
2, 35280, Note_on_c, 0, 72, 56
2, 35520, Note_on_c, 0, 72, 0
2, 35520, Note_on_c, 0, 66, 0
2, 35520, Note_on_c, 0, 60, 0
2, 35520, Note_on_c, 0, 70, 0
2, 35520, Note_on_c, 0, 60, 53
2, 35520, Note_on_c, 0, 66, 53
2, 35520, Note_on_c, 0, 70, 59
2, 35520, Note_on_c, 0, 72, 59
2, 36240, Note_on_c, 0, 72, 0
2, 36240, Note_on_c, 0, 60, 0
2, 36240, Note_on_c, 0, 66, 0
2, 36240, Note_on_c, 0, 70, 0
2, 36240, Note_on_c, 0, 70, 59
2, 36240, Note_on_c, 0, 66, 59
2, 36240, Note_on_c, 0, 61, 59
2, 36240, Note_on_c, 0, 73, 66
2, 36480, Note_on_c, 0, 73, 0
2, 36480, Note_on_c, 0, 70, 0
2, 36480, Note_on_c, 0, 66, 0
2, 36480, Note_on_c, 0, 61, 0
2, 36480, Note_on_c, 0, 61, 61
2, 36480, Note_on_c, 0, 73, 70
2, 36480, Note_on_c, 0, 66, 61
2, 36480, Note_on_c, 0, 70, 61
2, 37200, Note_on_c, 0, 70, 0
2, 37200, Note_on_c, 0, 61, 0
2, 37200, Note_on_c, 0, 73, 0
2, 37200, Note_on_c, 0, 66, 0
2, 37200, Note_on_c, 0, 66, 61
2, 37200, Note_on_c, 0, 63, 61
2, 37200, Note_on_c, 0, 70, 69
2, 37200, Note_on_c, 0, 75, 69
2, 37440, Note_on_c, 0, 75, 0
2, 37440, Note_on_c, 0, 66, 0
2, 37440, Note_on_c, 0, 63, 0
2, 37440, Note_on_c, 0, 70, 0
2, 37440, Note_on_c, 0, 63, 67
2, 37440, Note_on_c, 0, 66, 67
2, 37440, Note_on_c, 0, 75, 74
2, 37440, Note_on_c, 0, 70, 74
2, 38160, Note_on_c, 0, 70, 0
2, 38160, Note_on_c, 0, 63, 0
2, 38160, Note_on_c, 0, 66, 0
2, 38160, Note_on_c, 0, 75, 0
2, 38160, Note_on_c, 0, 63, 52
2, 38400, Note_on_c, 0, 63, 0
2, 38400, Note_on_c, 0, 63, 58
2, 38640, Note_on_c, 0, 70, 45
2, 38880, Note_on_c, 0, 70, 0
2, 38880, Note_on_c, 0, 70, 39
2, 39840, Note_on_c, 0, 70, 0
2, 39840, Note_on_c, 0, 63, 0
2, 41520, Note_on_c, 0, 63, 41
2, 41760, Note_on_c, 0, 63, 0
2, 41760, Note_on_c, 0, 63, 48
2, 42000, Note_on_c, 0, 70, 41
2, 42240, Note_on_c, 0, 70, 0
2, 42240, Note_on_c, 0, 70, 42
2, 43680, Note_on_c, 0, 70, 0
2, 43680, Note_on_c, 0, 63, 0
2, 43920, Note_on_c, 0, 68, 51
2, 44160, Note_on_c, 0, 68, 0
2, 44160, Note_on_c, 0, 59, 46
2, 44160, Note_on_c, 0, 63, 46
2, 44160, Note_on_c, 0, 68, 55
2, 44400, Note_on_c, 0, 68, 0
2, 44400, Note_on_c, 0, 70, 49
2, 44640, Note_on_c, 0, 70, 0
2, 44640, Note_on_c, 0, 70, 51
2, 44880, Note_on_c, 0, 70, 0
2, 44880, Note_on_c, 0, 63, 0
2, 44880, Note_on_c, 0, 59, 0
2, 44880, Note_on_c, 0, 63, 49
2, 44880, Note_on_c, 0, 59, 49
2, 44880, Note_on_c, 0, 68, 49
2, 45120, Note_on_c, 0, 68, 0
2, 45120, Note_on_c, 0, 59, 0
2, 45120, Note_on_c, 0, 63, 0
2, 45120, Note_on_c, 0, 59, 46
2, 45120, Note_on_c, 0, 63, 46
2, 45120, Note_on_c, 0, 68, 55
2, 45360, Note_on_c, 0, 68, 0
2, 45360, Note_on_c, 0, 70, 51
2, 45600, Note_on_c, 0, 70, 0
2, 45600, Note_on_c, 0, 70, 52
2, 45840, Note_on_c, 0, 70, 0
2, 45840, Note_on_c, 0, 63, 0
2, 45840, Note_on_c, 0, 59, 0
2, 45840, Note_on_c, 0, 59, 47
2, 45840, Note_on_c, 0, 62, 47
2, 45840, Note_on_c, 0, 68, 56
2, 46080, Note_on_c, 0, 68, 0
2, 46080, Note_on_c, 0, 62, 0
2, 46080, Note_on_c, 0, 59, 0
2, 46080, Note_on_c, 0, 59, 49
2, 46080, Note_on_c, 0, 62, 49
2, 46080, Note_on_c, 0, 68, 58
2, 46320, Note_on_c, 0, 68, 0
2, 46320, Note_on_c, 0, 70, 53
2, 46560, Note_on_c, 0, 70, 0
2, 46560, Note_on_c, 0, 70, 55
2, 46800, Note_on_c, 0, 70, 0
2, 46800, Note_on_c, 0, 62, 0
2, 46800, Note_on_c, 0, 59, 0
2, 46800, Note_on_c, 0, 59, 48
2, 46800, Note_on_c, 0, 62, 48
2, 46800, Note_on_c, 0, 68, 57
2, 47040, Note_on_c, 0, 68, 0
2, 47040, Note_on_c, 0, 62, 0
2, 47040, Note_on_c, 0, 59, 0
2, 47040, Note_on_c, 0, 68, 60
2, 47040, Note_on_c, 0, 59, 50
2, 47040, Note_on_c, 0, 63, 50
2, 47280, Note_on_c, 0, 68, 0
2, 47280, Note_on_c, 0, 70, 56
2, 47520, Note_on_c, 0, 70, 0
2, 47520, Note_on_c, 0, 70, 56
2, 47760, Note_on_c, 0, 70, 0
2, 47760, Note_on_c, 0, 63, 0
2, 47760, Note_on_c, 0, 59, 0
2, 47760, Note_on_c, 0, 59, 50
2, 47760, Note_on_c, 0, 64, 50
2, 47760, Note_on_c, 0, 68, 60
2, 48000, Note_on_c, 0, 68, 0
2, 48000, Note_on_c, 0, 64, 0
2, 48000, Note_on_c, 0, 59, 0
2, 48000, Note_on_c, 0, 65, 52
2, 48000, Note_on_c, 0, 68, 62
2, 48000, Note_on_c, 0, 59, 52
2, 48240, Note_on_c, 0, 68, 0
2, 48240, Note_on_c, 0, 70, 57
2, 48480, Note_on_c, 0, 70, 0
2, 48480, Note_on_c, 0, 70, 58
2, 48720, Note_on_c, 0, 70, 0
2, 48720, Note_on_c, 0, 68, 47
2, 48960, Note_on_c, 0, 68, 0
2, 48960, Note_on_c, 0, 68, 51
2, 49200, Note_on_c, 0, 68, 0
2, 49200, Note_on_c, 0, 73, 42
2, 49440, Note_on_c, 0, 73, 0
2, 49440, Note_on_c, 0, 59, 0
2, 49440, Note_on_c, 0, 65, 0
2, 49440, Note_on_c, 0, 73, 40
2, 49920, Note_on_c, 0, 73, 0
2, 51600, Note_on_c, 0, 66, 46
2, 51600, Note_on_c, 0, 58, 38
2, 51840, Note_on_c, 0, 58, 0
2, 51840, Note_on_c, 0, 66, 0
2, 51840, Note_on_c, 0, 58, 40
2, 51840, Note_on_c, 0, 66, 49
2, 52080, Note_on_c, 0, 70, 44
2, 52320, Note_on_c, 0, 70, 0
2, 52320, Note_on_c, 0, 70, 46
2, 52560, Note_on_c, 0, 70, 0
2, 52560, Note_on_c, 0, 66, 0
2, 52560, Note_on_c, 0, 58, 0
2, 52560, Note_on_c, 0, 58, 39
2, 52560, Note_on_c, 0, 65, 44
2, 52800, Note_on_c, 0, 65, 0
2, 52800, Note_on_c, 0, 58, 0
2, 52800, Note_on_c, 0, 65, 48
2, 52800, Note_on_c, 0, 58, 42
2, 53040, Note_on_c, 0, 70, 45
2, 53280, Note_on_c, 0, 70, 0
2, 53280, Note_on_c, 0, 70, 47
2, 53520, Note_on_c, 0, 70, 0
2, 53520, Note_on_c, 0, 58, 0
2, 53520, Note_on_c, 0, 65, 0
2, 53520, Note_on_c, 0, 58, 38
2, 53520, Note_on_c, 0, 63, 42
2, 53760, Note_on_c, 0, 63, 0
2, 53760, Note_on_c, 0, 58, 0
2, 53760, Note_on_c, 0, 63, 49
2, 53760, Note_on_c, 0, 58, 44
2, 54000, Note_on_c, 0, 70, 44
2, 54240, Note_on_c, 0, 70, 0
2, 54240, Note_on_c, 0, 70, 46
2, 54480, Note_on_c, 0, 70, 0
2, 54480, Note_on_c, 0, 58, 0
2, 54480, Note_on_c, 0, 63, 0
2, 54480, Note_on_c, 0, 58, 39
2, 54480, Note_on_c, 0, 61, 44
2, 54660, Note_on_c, 0, 61, 0
2, 54660, Note_on_c, 0, 58, 0
2, 54720, Note_on_c, 0, 63, 48
2, 54720, Note_on_c, 0, 58, 42
2, 54900, Note_on_c, 0, 58, 0
2, 54900, Note_on_c, 0, 63, 0
2, 54960, Note_on_c, 0, 58, 42
2, 54960, Note_on_c, 0, 65, 42
2, 55140, Note_on_c, 0, 65, 0
2, 55140, Note_on_c, 0, 58, 0
2, 55200, Note_on_c, 0, 58, 42
2, 55200, Note_on_c, 0, 66, 48
2, 55380, Note_on_c, 0, 66, 0
2, 55380, Note_on_c, 0, 58, 0
2, 55440, Note_on_c, 0, 58, 44
2, 55440, Note_on_c, 0, 70, 44
2, 55620, Note_on_c, 0, 70, 0
2, 55620, Note_on_c, 0, 58, 0
2, 55680, Note_on_c, 0, 59, 44
2, 55680, Note_on_c, 0, 68, 49
2, 55920, Note_on_c, 0, 71, 44
2, 56160, Note_on_c, 0, 71, 0
2, 56160, Note_on_c, 0, 71, 46
2, 56400, Note_on_c, 0, 71, 0
2, 56400, Note_on_c, 0, 68, 0
2, 56400, Note_on_c, 0, 59, 0
2, 56400, Note_on_c, 0, 59, 39
2, 56400, Note_on_c, 0, 66, 44
2, 56640, Note_on_c, 0, 66, 0
2, 56640, Note_on_c, 0, 59, 0
2, 56640, Note_on_c, 0, 59, 42
2, 56640, Note_on_c, 0, 66, 48
2, 56880, Note_on_c, 0, 71, 45
2, 57120, Note_on_c, 0, 71, 0
2, 57120, Note_on_c, 0, 71, 47
2, 57360, Note_on_c, 0, 71, 0
2, 57360, Note_on_c, 0, 66, 0
2, 57360, Note_on_c, 0, 59, 0
2, 57360, Note_on_c, 0, 59, 38
2, 57360, Note_on_c, 0, 65, 42
2, 57600, Note_on_c, 0, 65, 0
2, 57600, Note_on_c, 0, 59, 0
2, 57600, Note_on_c, 0, 59, 44
2, 57600, Note_on_c, 0, 65, 49
2, 57840, Note_on_c, 0, 71, 44
2, 58080, Note_on_c, 0, 71, 0
2, 58080, Note_on_c, 0, 71, 46
2, 58320, Note_on_c, 0, 71, 0
2, 58320, Note_on_c, 0, 65, 0
2, 58320, Note_on_c, 0, 59, 0
2, 58320, Note_on_c, 0, 65, 44
2, 58320, Note_on_c, 0, 59, 39
2, 58440, Note_on_c, 0, 65, 0
2, 58560, Note_on_c, 0, 59, 0
2, 58560, Note_on_c, 0, 59, 42
2, 58560, Note_on_c, 0, 66, 48
2, 58740, Note_on_c, 0, 66, 0
2, 58800, Note_on_c, 0, 65, 42
2, 58980, Note_on_c, 0, 65, 0
2, 59040, Note_on_c, 0, 66, 48
2, 59220, Note_on_c, 0, 66, 0
2, 59280, Note_on_c, 0, 68, 44
2, 59460, Note_on_c, 0, 68, 0
2, 59520, Note_on_c, 0, 59, 0
2, 59520, Note_on_c, 0, 58, 44
2, 59520, Note_on_c, 0, 66, 49
2, 59760, Note_on_c, 0, 70, 44
2, 60000, Note_on_c, 0, 70, 0
2, 60000, Note_on_c, 0, 70, 48
2, 60240, Note_on_c, 0, 70, 0
2, 60240, Note_on_c, 0, 66, 0
2, 60240, Note_on_c, 0, 58, 0
2, 60240, Note_on_c, 0, 58, 41
2, 60240, Note_on_c, 0, 65, 46
2, 60480, Note_on_c, 0, 65, 0
2, 60480, Note_on_c, 0, 58, 0
2, 60480, Note_on_c, 0, 58, 45
2, 60480, Note_on_c, 0, 65, 50
2, 60720, Note_on_c, 0, 70, 45
2, 60960, Note_on_c, 0, 70, 0
2, 60960, Note_on_c, 0, 70, 50
2, 61200, Note_on_c, 0, 70, 0
2, 61200, Note_on_c, 0, 65, 0
2, 61200, Note_on_c, 0, 58, 0
2, 61200, Note_on_c, 0, 58, 48
2, 61200, Note_on_c, 0, 63, 48
2, 61440, Note_on_c, 0, 63, 0
2, 61440, Note_on_c, 0, 58, 0
2, 61440, Note_on_c, 0, 58, 48
2, 61440, Note_on_c, 0, 63, 53
2, 61680, Note_on_c, 0, 70, 49
2, 61920, Note_on_c, 0, 70, 0
2, 61920, Note_on_c, 0, 70, 53
2, 62160, Note_on_c, 0, 70, 0
2, 62160, Note_on_c, 0, 63, 0
2, 62160, Note_on_c, 0, 58, 0
2, 62160, Note_on_c, 0, 63, 53
2, 62160, Note_on_c, 0, 57, 48
2, 62400, Note_on_c, 0, 57, 0
2, 62400, Note_on_c, 0, 63, 0
2, 62400, Note_on_c, 0, 57, 56
2, 62400, Note_on_c, 0, 63, 63
2, 62640, Note_on_c, 0, 69, 61
2, 62880, Note_on_c, 0, 69, 0
2, 62880, Note_on_c, 0, 69, 70
2, 63120, Note_on_c, 0, 69, 0
2, 63120, Note_on_c, 0, 63, 0
2, 63120, Note_on_c, 0, 57, 0
2, 63120, Note_on_c, 0, 63, 67
2, 63120, Note_on_c, 0, 57, 59
2, 63360, Note_on_c, 0, 57, 0
2, 63360, Note_on_c, 0, 63, 0
2, 63360, Note_on_c, 0, 58, 44
2, 63360, Note_on_c, 0, 66, 49
2, 63600, Note_on_c, 0, 70, 44
2, 63840, Note_on_c, 0, 70, 0
2, 63840, Note_on_c, 0, 70, 46
2, 64080, Note_on_c, 0, 70, 0
2, 64080, Note_on_c, 0, 66, 0
2, 64080, Note_on_c, 0, 58, 0
2, 64080, Note_on_c, 0, 66, 44
2, 64080, Note_on_c, 0, 58, 39
2, 64320, Note_on_c, 0, 58, 0
2, 64320, Note_on_c, 0, 66, 0
2, 64320, Note_on_c, 0, 58, 42
2, 64320, Note_on_c, 0, 66, 48
2, 64560, Note_on_c, 0, 70, 45
2, 64800, Note_on_c, 0, 70, 0
2, 64800, Note_on_c, 0, 70, 47
2, 65040, Note_on_c, 0, 70, 0
2, 65040, Note_on_c, 0, 66, 0
2, 65040, Note_on_c, 0, 58, 0
2, 65040, Note_on_c, 0, 58, 38
2, 65040, Note_on_c, 0, 66, 42
2, 65220, Note_on_c, 0, 66, 0
2, 65220, Note_on_c, 0, 58, 0
2, 65280, Note_on_c, 0, 59, 44
2, 65280, Note_on_c, 0, 63, 49
2, 65520, Note_on_c, 0, 70, 44
2, 65760, Note_on_c, 0, 70, 0
2, 65760, Note_on_c, 0, 70, 46
2, 66000, Note_on_c, 0, 70, 0
2, 66000, Note_on_c, 0, 63, 0
2, 66000, Note_on_c, 0, 59, 0
2, 66000, Note_on_c, 0, 59, 39
2, 66000, Note_on_c, 0, 63, 44
2, 66240, Note_on_c, 0, 63, 0
2, 66240, Note_on_c, 0, 59, 0
2, 66240, Note_on_c, 0, 59, 42
2, 66240, Note_on_c, 0, 63, 48
2, 66480, Note_on_c, 0, 70, 45
2, 66720, Note_on_c, 0, 70, 0
2, 66720, Note_on_c, 0, 70, 47
2, 66960, Note_on_c, 0, 70, 0
2, 66960, Note_on_c, 0, 63, 0
2, 66960, Note_on_c, 0, 59, 0
2, 66960, Note_on_c, 0, 59, 38
2, 66960, Note_on_c, 0, 63, 42
2, 67140, Note_on_c, 0, 63, 0
2, 67140, Note_on_c, 0, 59, 0
2, 67200, Note_on_c, 0, 58, 44
2, 67200, Note_on_c, 0, 66, 49
2, 67440, Note_on_c, 0, 70, 44
2, 67680, Note_on_c, 0, 70, 0
2, 67680, Note_on_c, 0, 70, 46
2, 67920, Note_on_c, 0, 70, 0
2, 67920, Note_on_c, 0, 66, 0
2, 67920, Note_on_c, 0, 58, 0
2, 67920, Note_on_c, 0, 66, 44
2, 67920, Note_on_c, 0, 58, 39
2, 68160, Note_on_c, 0, 58, 0
2, 68160, Note_on_c, 0, 66, 0
2, 68160, Note_on_c, 0, 58, 42
2, 68160, Note_on_c, 0, 66, 48
2, 68400, Note_on_c, 0, 70, 45
2, 68640, Note_on_c, 0, 70, 0
2, 68640, Note_on_c, 0, 70, 47
2, 68880, Note_on_c, 0, 70, 0
2, 68880, Note_on_c, 0, 66, 0
2, 68880, Note_on_c, 0, 58, 0
2, 68880, Note_on_c, 0, 58, 48
2, 68880, Note_on_c, 0, 66, 42
2, 69120, Note_on_c, 0, 66, 0
2, 69120, Note_on_c, 0, 58, 0
2, 69120, Note_on_c, 0, 59, 44
2, 69120, Note_on_c, 0, 63, 49
2, 69360, Note_on_c, 0, 70, 44
2, 69600, Note_on_c, 0, 70, 0
2, 69600, Note_on_c, 0, 70, 46
2, 69840, Note_on_c, 0, 70, 0
2, 69840, Note_on_c, 0, 63, 0
2, 69840, Note_on_c, 0, 59, 0
2, 69840, Note_on_c, 0, 59, 39
2, 69840, Note_on_c, 0, 63, 44
2, 70080, Note_on_c, 0, 63, 0
2, 70080, Note_on_c, 0, 59, 0
2, 70080, Note_on_c, 0, 59, 42
2, 70080, Note_on_c, 0, 63, 48
2, 70320, Note_on_c, 0, 70, 45
2, 70560, Note_on_c, 0, 70, 0
2, 70560, Note_on_c, 0, 70, 47
2, 70800, Note_on_c, 0, 70, 0
2, 70800, Note_on_c, 0, 63, 0
2, 70800, Note_on_c, 0, 59, 0
2, 70800, Note_on_c, 0, 59, 38
2, 70800, Note_on_c, 0, 63, 42
2, 71040, Note_on_c, 0, 63, 0
2, 71040, Note_on_c, 0, 59, 0
2, 71040, Note_on_c, 0, 58, 44
2, 71040, Note_on_c, 0, 66, 49
2, 71280, Note_on_c, 0, 70, 44
2, 71520, Note_on_c, 0, 70, 0
2, 71520, Note_on_c, 0, 70, 46
2, 71760, Note_on_c, 0, 70, 0
2, 71760, Note_on_c, 0, 66, 0
2, 71760, Note_on_c, 0, 58, 0
2, 71760, Note_on_c, 0, 58, 39
2, 71760, Note_on_c, 0, 66, 44
2, 72000, Note_on_c, 0, 66, 0
2, 72000, Note_on_c, 0, 58, 0
2, 72000, Note_on_c, 0, 58, 42
2, 72000, Note_on_c, 0, 66, 48
2, 72240, Note_on_c, 0, 70, 45
2, 72480, Note_on_c, 0, 70, 0
2, 72480, Note_on_c, 0, 70, 47
2, 72720, Note_on_c, 0, 70, 0
2, 72720, Note_on_c, 0, 66, 0
2, 72720, Note_on_c, 0, 58, 0
2, 72720, Note_on_c, 0, 66, 42
2, 72720, Note_on_c, 0, 58, 48
2, 72960, Note_on_c, 0, 58, 0
2, 72960, Note_on_c, 0, 66, 0
2, 72960, Note_on_c, 0, 58, 41
2, 72960, Note_on_c, 0, 66, 46
2, 73200, Note_on_c, 0, 70, 40
2, 73440, Note_on_c, 0, 70, 0
2, 73440, Note_on_c, 0, 70, 41
2, 73680, Note_on_c, 0, 70, 0
2, 73680, Note_on_c, 0, 66, 0
2, 73680, Note_on_c, 0, 58, 0
2, 73680, Note_on_c, 0, 66, 39
2, 73680, Note_on_c, 0, 58, 35
2, 73920, Note_on_c, 0, 58, 0
2, 73920, Note_on_c, 0, 66, 0
2, 73920, Note_on_c, 0, 66, 41
2, 73920, Note_on_c, 0, 58, 37
2, 74160, Note_on_c, 0, 70, 38
2, 74400, Note_on_c, 0, 70, 0
2, 74400, Note_on_c, 0, 70, 39
2, 74640, Note_on_c, 0, 70, 0
2, 74640, Note_on_c, 0, 58, 0
2, 74640, Note_on_c, 0, 66, 0
2, 74640, Note_on_c, 0, 58, 39
2, 74640, Note_on_c, 0, 66, 34
2, 74880, Note_on_c, 0, 66, 0
2, 74880, Note_on_c, 0, 58, 0
2, 74880, Note_on_c, 0, 66, 39
2, 75120, Note_on_c, 0, 66, 0
2, 75120, Note_on_c, 0, 70, 34
2, 75360, Note_on_c, 0, 70, 0
2, 75360, Note_on_c, 0, 70, 39
2, 75600, Note_on_c, 0, 70, 0
2, 75600, Note_on_c, 0, 66, 34
2, 75840, Note_on_c, 0, 66, 0
2, 75840, Note_on_c, 0, 73, 39
2, 75840, Note_on_c, 0, 66, 39
2, 76080, Note_on_c, 0, 66, 0
2, 76080, Note_on_c, 0, 70, 33
2, 76320, Note_on_c, 0, 70, 0
2, 76320, Note_on_c, 0, 70, 39
2, 76560, Note_on_c, 0, 70, 0
2, 76560, Note_on_c, 0, 66, 33
2, 76800, Note_on_c, 0, 66, 0
2, 76800, Note_on_c, 0, 73, 0
2, 76800, Note_on_c, 0, 66, 37
2, 77040, Note_on_c, 0, 66, 0
2, 77040, Note_on_c, 0, 70, 30
2, 77280, Note_on_c, 0, 70, 0
2, 77280, Note_on_c, 0, 70, 36
2, 77520, Note_on_c, 0, 70, 0
2, 77520, Note_on_c, 0, 66, 28
2, 77760, Note_on_c, 0, 66, 0
2, 77760, Note_on_c, 0, 73, 35
2, 77760, Note_on_c, 0, 66, 35
2, 78000, Note_on_c, 0, 66, 0
2, 78000, Note_on_c, 0, 70, 28
2, 78240, Note_on_c, 0, 70, 0
2, 78240, Note_on_c, 0, 70, 34
2, 78480, Note_on_c, 0, 70, 0
2, 78480, Note_on_c, 0, 66, 28
2, 78720, Note_on_c, 0, 66, 0
2, 78720, Note_on_c, 0, 73, 0
2, 78960, Note_on_c, 0, 70, 31
2, 79200, Note_on_c, 0, 70, 0
2, 79200, Note_on_c, 0, 70, 30
2, 79440, Note_on_c, 0, 70, 0
2, 79440, End_track
3, 0, Start_track
3, 0, MIDI_port, 0
3, 0, Title_t, "Piano left"
3, 0, Program_c, 0, 0
3, 0, Control_c, 0, 7, 100
3, 1679, Control_c, 0, 91, 127
3, 1920, Control_c, 0, 64, 127
3, 1920, Note_on_c, 0, 54, 45
3, 2640, Note_on_c, 0, 54, 0
3, 2640, Note_on_c, 0, 54, 39
3, 2665, Control_c, 0, 64, 0
3, 2880, Note_on_c, 0, 54, 0
3, 2880, Note_on_c, 0, 53, 45
3, 2971, Control_c, 0, 64, 127
3, 3600, Note_on_c, 0, 53, 0
3, 3600, Note_on_c, 0, 53, 45
3, 3650, Control_c, 0, 64, 0
3, 3840, Note_on_c, 0, 53, 0
3, 3840, Note_on_c, 0, 52, 49
3, 3910, Control_c, 0, 64, 127
3, 4510, Control_c, 0, 64, 0
3, 4560, Note_on_c, 0, 52, 0
3, 4560, Note_on_c, 0, 52, 49
3, 4800, Note_on_c, 0, 52, 0
3, 4800, Note_on_c, 0, 51, 53
3, 4910, Control_c, 0, 64, 127
3, 5490, Control_c, 0, 64, 0
3, 5520, Note_on_c, 0, 51, 0
3, 5520, Note_on_c, 0, 50, 49
3, 5760, Note_on_c, 0, 50, 0
3, 5760, Note_on_c, 0, 49, 53
3, 6000, Control_c, 0, 64, 127
3, 6649, Control_c, 0, 64, 0
3, 6692, Control_c, 0, 64, 127
3, 7200, Note_on_c, 0, 49, 0
3, 7539, Control_c, 0, 64, 0
3, 7680, Note_on_c, 0, 42, 29
3, 7680, Control_c, 0, 64, 127
3, 7680, Note_on_c, 0, 49, 33
3, 7920, Note_on_c, 0, 37, 27
3, 8160, Note_on_c, 0, 37, 0
3, 8160, Note_on_c, 0, 37, 30
3, 8400, Note_on_c, 0, 37, 0
3, 8400, Note_on_c, 0, 49, 0
3, 8400, Note_on_c, 0, 42, 0
3, 8400, Note_on_c, 0, 42, 26
3, 8400, Note_on_c, 0, 49, 29
3, 8425, Control_c, 0, 64, 0
3, 8640, Note_on_c, 0, 49, 0
3, 8640, Note_on_c, 0, 42, 0
3, 8640, Note_on_c, 0, 42, 29
3, 8640, Note_on_c, 0, 49, 33
3, 8731, Control_c, 0, 64, 127
3, 8880, Note_on_c, 0, 37, 26
3, 9120, Note_on_c, 0, 37, 0
3, 9120, Note_on_c, 0, 37, 29
3, 9360, Note_on_c, 0, 37, 0
3, 9360, Note_on_c, 0, 49, 0
3, 9360, Note_on_c, 0, 42, 0
3, 9360, Note_on_c, 0, 42, 26
3, 9360, Note_on_c, 0, 49, 29
3, 9410, Control_c, 0, 64, 0
3, 9600, Note_on_c, 0, 49, 0
3, 9600, Note_on_c, 0, 42, 0
3, 9600, Note_on_c, 0, 42, 29
3, 9600, Control_c, 0, 64, 127
3, 9600, Note_on_c, 0, 49, 33
3, 9840, Note_on_c, 0, 37, 27
3, 10080, Note_on_c, 0, 37, 0
3, 10080, Note_on_c, 0, 37, 30
3, 10320, Note_on_c, 0, 37, 0
3, 10320, Note_on_c, 0, 49, 0
3, 10320, Note_on_c, 0, 42, 0
3, 10320, Note_on_c, 0, 49, 28
3, 10320, Note_on_c, 0, 42, 25
3, 10560, Note_on_c, 0, 42, 0
3, 10560, Note_on_c, 0, 49, 0
3, 10560, Control_c, 0, 64, 0
3, 10560, Note_on_c, 0, 42, 29
3, 10560, Note_on_c, 0, 49, 33
3, 10651, Control_c, 0, 64, 127
3, 10800, Note_on_c, 0, 37, 26
3, 11040, Note_on_c, 0, 37, 0
3, 11040, Note_on_c, 0, 37, 29
3, 11280, Note_on_c, 0, 37, 0
3, 11280, Note_on_c, 0, 49, 0
3, 11280, Note_on_c, 0, 42, 0
3, 11280, Note_on_c, 0, 42, 26
3, 11280, Note_on_c, 0, 49, 29
3, 11520, Note_on_c, 0, 49, 0
3, 11520, Note_on_c, 0, 42, 0
3, 11520, Control_c, 0, 64, 0
3, 11520, Note_on_c, 0, 42, 29
3, 11520, Control_c, 0, 64, 127
3, 11520, Note_on_c, 0, 49, 33
3, 11760, Note_on_c, 0, 37, 27
3, 12000, Note_on_c, 0, 37, 0
3, 12000, Note_on_c, 0, 37, 30
3, 12233, Control_c, 0, 64, 0
3, 12240, Note_on_c, 0, 37, 0
3, 12240, Note_on_c, 0, 49, 0
3, 12240, Note_on_c, 0, 42, 0
3, 12240, Note_on_c, 0, 49, 28
3, 12240, Note_on_c, 0, 42, 25
3, 12480, Note_on_c, 0, 42, 0
3, 12480, Note_on_c, 0, 49, 0
3, 12480, Note_on_c, 0, 42, 29
3, 12480, Note_on_c, 0, 49, 33
3, 12720, Note_on_c, 0, 37, 26
3, 12960, Note_on_c, 0, 37, 0
3, 12960, Note_on_c, 0, 37, 29
3, 13200, Note_on_c, 0, 37, 0
3, 13200, Note_on_c, 0, 49, 0
3, 13200, Note_on_c, 0, 42, 0
3, 13200, Note_on_c, 0, 42, 26
3, 13200, Note_on_c, 0, 49, 29
3, 13440, Note_on_c, 0, 49, 0
3, 13440, Note_on_c, 0, 42, 0
3, 13440, Note_on_c, 0, 42, 29
3, 13440, Note_on_c, 0, 49, 33
3, 13482, Control_c, 0, 64, 127
3, 13680, Note_on_c, 0, 37, 27
3, 13920, Note_on_c, 0, 37, 0
3, 13920, Note_on_c, 0, 37, 30
3, 14160, Note_on_c, 0, 37, 0
3, 14160, Note_on_c, 0, 49, 0
3, 14160, Note_on_c, 0, 42, 0
3, 14160, Note_on_c, 0, 49, 28
3, 14160, Note_on_c, 0, 42, 25
3, 14400, Note_on_c, 0, 42, 0
3, 14400, Note_on_c, 0, 49, 0
3, 14400, Control_c, 0, 64, 0
3, 14400, Note_on_c, 0, 42, 29
3, 14400, Note_on_c, 0, 49, 33
3, 14491, Control_c, 0, 64, 127
3, 14640, Note_on_c, 0, 37, 26
3, 14880, Note_on_c, 0, 37, 0
3, 14880, Note_on_c, 0, 37, 29
3, 15120, Note_on_c, 0, 37, 0
3, 15120, Note_on_c, 0, 49, 0
3, 15120, Note_on_c, 0, 42, 0
3, 15120, Note_on_c, 0, 42, 26
3, 15120, Note_on_c, 0, 49, 29
3, 15360, Note_on_c, 0, 49, 0
3, 15360, Note_on_c, 0, 42, 0
3, 15360, Control_c, 0, 64, 0
3, 15360, Note_on_c, 0, 42, 29
3, 15360, Control_c, 0, 64, 127
3, 15360, Note_on_c, 0, 49, 33
3, 15600, Note_on_c, 0, 37, 27
3, 15840, Note_on_c, 0, 37, 0
3, 15840, Note_on_c, 0, 37, 30
3, 16055, Control_c, 0, 64, 0
3, 16080, Note_on_c, 0, 37, 0
3, 16080, Note_on_c, 0, 49, 0
3, 16080, Note_on_c, 0, 42, 0
3, 16080, Note_on_c, 0, 49, 28
3, 16080, Note_on_c, 0, 42, 25
3, 16320, Note_on_c, 0, 42, 0
3, 16320, Note_on_c, 0, 49, 0
3, 16320, Note_on_c, 0, 39, 35
3, 16320, Note_on_c, 0, 49, 27
3, 16500, Note_on_c, 0, 39, 0
3, 16560, Note_on_c, 0, 37, 30
3, 16740, Note_on_c, 0, 37, 0
3, 16800, Note_on_c, 0, 39, 36
3, 16980, Note_on_c, 0, 39, 0
3, 17040, Note_on_c, 0, 41, 30
3, 17220, Note_on_c, 0, 41, 0
3, 17280, Note_on_c, 0, 49, 0
3, 17280, Note_on_c, 0, 42, 29
3, 17280, Control_c, 0, 64, 127
3, 17280, Note_on_c, 0, 49, 33
3, 17520, Note_on_c, 0, 37, 27
3, 17760, Note_on_c, 0, 37, 0
3, 17760, Note_on_c, 0, 37, 33
3, 18000, Note_on_c, 0, 37, 0
3, 18000, Note_on_c, 0, 49, 0
3, 18000, Note_on_c, 0, 42, 0
3, 18000, Note_on_c, 0, 49, 30
3, 18000, Note_on_c, 0, 42, 27
3, 18240, Note_on_c, 0, 42, 0
3, 18240, Note_on_c, 0, 49, 0
3, 18240, Control_c, 0, 64, 0
3, 18240, Note_on_c, 0, 42, 34
3, 18240, Note_on_c, 0, 49, 39
3, 18331, Control_c, 0, 64, 127
3, 18480, Note_on_c, 0, 37, 33
3, 18720, Note_on_c, 0, 37, 0
3, 18720, Note_on_c, 0, 37, 38
3, 18960, Note_on_c, 0, 37, 0
3, 18960, Note_on_c, 0, 49, 0
3, 18960, Note_on_c, 0, 42, 0
3, 18960, Note_on_c, 0, 42, 34
3, 18960, Note_on_c, 0, 48, 39
3, 19195, Control_c, 0, 64, 0
3, 19200, Note_on_c, 0, 48, 0
3, 19200, Note_on_c, 0, 42, 0
3, 19200, Note_on_c, 0, 42, 41
3, 19200, Control_c, 0, 64, 127
3, 19200, Note_on_c, 0, 48, 47
3, 19440, Note_on_c, 0, 36, 37
3, 19680, Note_on_c, 0, 36, 0
3, 19680, Note_on_c, 0, 36, 44
3, 19920, Note_on_c, 0, 36, 0
3, 19920, Note_on_c, 0, 48, 0
3, 19920, Note_on_c, 0, 42, 0
3, 19920, Note_on_c, 0, 48, 39
3, 19920, Note_on_c, 0, 43, 35
3, 20160, Note_on_c, 0, 43, 0
3, 20160, Note_on_c, 0, 48, 0
3, 20160, Control_c, 0, 64, 0
3, 20160, Note_on_c, 0, 43, 39
3, 20160, Note_on_c, 0, 48, 46
3, 20251, Control_c, 0, 64, 127
3, 20400, Note_on_c, 0, 36, 34
3, 20640, Note_on_c, 0, 36, 0
3, 20640, Note_on_c, 0, 36, 37
3, 20880, Note_on_c, 0, 36, 0
3, 20880, Note_on_c, 0, 48, 0
3, 20880, Note_on_c, 0, 43, 0
3, 20880, Note_on_c, 0, 43, 30
3, 20880, Note_on_c, 0, 48, 33
3, 20971, Control_c, 0, 64, 0
3, 21120, Note_on_c, 0, 48, 0
3, 21120, Note_on_c, 0, 43, 0
3, 21120, Note_on_c, 0, 41, 50
3, 21120, Note_on_c, 0, 53, 50
3, 21332, Control_c, 0, 64, 127
3, 21360, Note_on_c, 0, 57, 44
3, 21600, Note_on_c, 0, 57, 0
3, 21600, Note_on_c, 0, 57, 48
3, 21840, Note_on_c, 0, 57, 0
3, 21840, Note_on_c, 0, 53, 0
3, 21840, Note_on_c, 0, 52, 48
3, 21981, Control_c, 0, 64, 0
3, 22080, Note_on_c, 0, 52, 0
3, 22080, Note_on_c, 0, 52, 50
3, 22193, Control_c, 0, 64, 127
3, 22320, Note_on_c, 0, 57, 46
3, 22560, Note_on_c, 0, 57, 0
3, 22560, Note_on_c, 0, 57, 49
3, 22800, Note_on_c, 0, 57, 0
3, 22800, Note_on_c, 0, 52, 0
3, 22800, Note_on_c, 0, 50, 53
3, 22828, Control_c, 0, 64, 0
3, 23040, Note_on_c, 0, 50, 0
3, 23040, Note_on_c, 0, 50, 56
3, 23068, Control_c, 0, 64, 127
3, 23280, Note_on_c, 0, 57, 47
3, 23520, Note_on_c, 0, 57, 0
3, 23520, Note_on_c, 0, 57, 49
3, 23711, Control_c, 0, 64, 0
3, 23760, Note_on_c, 0, 57, 0
3, 23760, Note_on_c, 0, 50, 0
3, 23760, Note_on_c, 0, 48, 48
3, 23940, Note_on_c, 0, 48, 0
3, 24000, Note_on_c, 0, 50, 53
3, 24180, Note_on_c, 0, 50, 0
3, 24240, Note_on_c, 0, 52, 46
3, 24420, Note_on_c, 0, 52, 0
3, 24480, Note_on_c, 0, 53, 49
3, 24660, Note_on_c, 0, 53, 0
3, 24720, Note_on_c, 0, 55, 44
3, 24865, Control_c, 0, 64, 127
3, 24900, Note_on_c, 0, 55, 0
3, 24900, Note_on_c, 0, 41, 0
3, 24900, Note_on_c, 0, 41, 50
3, 24960, Note_on_c, 0, 55, 50
3, 25200, Note_on_c, 0, 58, 44
3, 25440, Note_on_c, 0, 58, 0
3, 25440, Note_on_c, 0, 58, 48
3, 25680, Note_on_c, 0, 58, 0
3, 25680, Note_on_c, 0, 55, 0
3, 25680, Note_on_c, 0, 53, 48
3, 25821, Control_c, 0, 64, 0
3, 25920, Note_on_c, 0, 53, 0
3, 25920, Note_on_c, 0, 53, 50
3, 26033, Control_c, 0, 64, 127
3, 26160, Note_on_c, 0, 58, 46
3, 26400, Note_on_c, 0, 58, 0
3, 26400, Note_on_c, 0, 58, 49
3, 26640, Note_on_c, 0, 58, 0
3, 26640, Note_on_c, 0, 53, 0
3, 26640, Note_on_c, 0, 52, 53
3, 26668, Control_c, 0, 64, 0
3, 26880, Note_on_c, 0, 52, 0
3, 26880, Note_on_c, 0, 52, 56
3, 26908, Control_c, 0, 64, 127
3, 27120, Note_on_c, 0, 58, 47
3, 27360, Note_on_c, 0, 58, 0
3, 27360, Note_on_c, 0, 58, 49
3, 27551, Control_c, 0, 64, 0
3, 27600, Note_on_c, 0, 58, 0
3, 27600, Note_on_c, 0, 52, 0
3, 27600, Note_on_c, 0, 50, 48
3, 27780, Note_on_c, 0, 50, 0
3, 27840, Note_on_c, 0, 50, 53
3, 28020, Note_on_c, 0, 50, 0
3, 28080, Note_on_c, 0, 48, 46
3, 28260, Note_on_c, 0, 48, 0
3, 28320, Note_on_c, 0, 50, 49
3, 28500, Note_on_c, 0, 50, 0
3, 28560, Note_on_c, 0, 52, 44
3, 28740, Note_on_c, 0, 52, 0
3, 28800, Note_on_c, 0, 41, 0
3, 28800, Note_on_c, 0, 41, 50
3, 28800, Note_on_c, 0, 53, 50
3, 29012, Control_c, 0, 64, 127
3, 29040, Note_on_c, 0, 57, 44
3, 29280, Note_on_c, 0, 57, 0
3, 29280, Note_on_c, 0, 57, 49
3, 29520, Note_on_c, 0, 57, 0
3, 29520, Note_on_c, 0, 53, 0
3, 29520, Note_on_c, 0, 52, 52
3, 29661, Control_c, 0, 64, 0
3, 29760, Note_on_c, 0, 52, 0
3, 29760, Note_on_c, 0, 52, 56
3, 29873, Control_c, 0, 64, 127
3, 30000, Note_on_c, 0, 57, 52
3, 30240, Note_on_c, 0, 57, 0
3, 30240, Note_on_c, 0, 57, 57
3, 30480, Note_on_c, 0, 57, 0
3, 30480, Note_on_c, 0, 52, 0
3, 30480, Note_on_c, 0, 50, 60
3, 30508, Control_c, 0, 64, 0
3, 30720, Note_on_c, 0, 50, 0
3, 30720, Note_on_c, 0, 50, 63
3, 30748, Control_c, 0, 64, 127
3, 30960, Note_on_c, 0, 57, 53
3, 31200, Note_on_c, 0, 57, 0
3, 31200, Note_on_c, 0, 57, 56
3, 31391, Control_c, 0, 64, 0
3, 31440, Note_on_c, 0, 57, 0
3, 31440, Note_on_c, 0, 50, 0
3, 31440, Note_on_c, 0, 48, 55
3, 31620, Note_on_c, 0, 48, 0
3, 31680, Note_on_c, 0, 50, 59
3, 31860, Note_on_c, 0, 50, 0
3, 31920, Note_on_c, 0, 52, 49
3, 32100, Note_on_c, 0, 52, 0
3, 32160, Note_on_c, 0, 53, 50
3, 32340, Note_on_c, 0, 53, 0
3, 32400, Note_on_c, 0, 55, 44
3, 32545, Control_c, 0, 64, 127
3, 32580, Note_on_c, 0, 55, 0
3, 32580, Note_on_c, 0, 41, 0
3, 32580, Note_on_c, 0, 41, 50
3, 32640, Note_on_c, 0, 55, 50
3, 32880, Note_on_c, 0, 58, 44
3, 33120, Note_on_c, 0, 58, 0
3, 33120, Note_on_c, 0, 58, 48
3, 33360, Note_on_c, 0, 58, 0
3, 33360, Note_on_c, 0, 55, 0
3, 33360, Note_on_c, 0, 53, 48
3, 33501, Control_c, 0, 64, 0
3, 33600, Note_on_c, 0, 53, 0
3, 33600, Note_on_c, 0, 41, 0
3, 33600, Note_on_c, 0, 53, 50
3, 33713, Control_c, 0, 64, 127
3, 33840, Note_on_c, 0, 58, 46
3, 34080, Note_on_c, 0, 58, 0
3, 34080, Note_on_c, 0, 58, 50
3, 34320, Note_on_c, 0, 58, 0
3, 34320, Note_on_c, 0, 53, 0
3, 34320, Note_on_c, 0, 52, 55
3, 34348, Control_c, 0, 64, 0
3, 34560, Note_on_c, 0, 52, 0
3, 34560, Note_on_c, 0, 52, 52
3, 34601, Control_c, 0, 64, 127
3, 34800, Note_on_c, 0, 58, 47
3, 35040, Note_on_c, 0, 58, 0
3, 35040, Note_on_c, 0, 58, 55
3, 35280, Note_on_c, 0, 58, 0
3, 35280, Note_on_c, 0, 52, 0
3, 35280, Note_on_c, 0, 51, 56
3, 35421, Control_c, 0, 64, 0
3, 35520, Note_on_c, 0, 51, 0
3, 35520, Note_on_c, 0, 51, 59
3, 35633, Control_c, 0, 64, 127
3, 35760, Note_on_c, 0, 58, 57
3, 36000, Note_on_c, 0, 58, 0
3, 36000, Note_on_c, 0, 58, 61
3, 36240, Note_on_c, 0, 58, 0
3, 36240, Note_on_c, 0, 51, 0
3, 36240, Note_on_c, 0, 49, 66
3, 36268, Control_c, 0, 64, 0
3, 36480, Note_on_c, 0, 49, 0
3, 36480, Note_on_c, 0, 49, 70
3, 36594, Control_c, 0, 64, 127
3, 36720, Note_on_c, 0, 58, 60
3, 36960, Note_on_c, 0, 58, 0
3, 36960, Note_on_c, 0, 58, 67
3, 37200, Note_on_c, 0, 58, 0
3, 37200, Note_on_c, 0, 49, 0
3, 37200, Note_on_c, 0, 48, 69
3, 37341, Control_c, 0, 64, 0
3, 37440, Note_on_c, 0, 48, 0
3, 37440, Note_on_c, 0, 48, 74
3, 37543, Control_c, 0, 64, 127
3, 37680, Note_on_c, 0, 58, 62
3, 37920, Note_on_c, 0, 58, 0
3, 37920, Note_on_c, 0, 58, 69
3, 39480, Control_c, 0, 64, 0
3, 39840, Note_on_c, 0, 58, 0
3, 39840, Note_on_c, 0, 48, 0
3, 40000, Control_c, 0, 64, 127
3, 40080, Note_on_c, 0, 47, 34
3, 40320, Note_on_c, 0, 47, 0
3, 40320, Note_on_c, 0, 47, 39
3, 40560, Note_on_c, 0, 56, 33
3, 40800, Note_on_c, 0, 56, 0
3, 40800, Note_on_c, 0, 56, 33
3, 41429, Control_c, 0, 64, 0
3, 41486, Control_c, 0, 64, 127
3, 43547, Control_c, 0, 64, 0
3, 43680, Note_on_c, 0, 56, 0
3, 43680, Note_on_c, 0, 47, 0
3, 44160, Control_c, 0, 64, 127
3, 44160, Note_on_c, 0, 54, 45
3, 44880, Note_on_c, 0, 54, 0
3, 44880, Note_on_c, 0, 54, 39
3, 44905, Control_c, 0, 64, 0
3, 45120, Note_on_c, 0, 54, 0
3, 45120, Note_on_c, 0, 53, 45
3, 45211, Control_c, 0, 64, 127
3, 45840, Note_on_c, 0, 53, 0
3, 45840, Note_on_c, 0, 53, 45
3, 45890, Control_c, 0, 64, 0
3, 46080, Note_on_c, 0, 53, 0
3, 46080, Note_on_c, 0, 52, 49
3, 46150, Control_c, 0, 64, 127
3, 46750, Control_c, 0, 64, 0
3, 46800, Note_on_c, 0, 52, 0
3, 46800, Note_on_c, 0, 52, 49
3, 47040, Note_on_c, 0, 52, 0
3, 47040, Note_on_c, 0, 51, 53
3, 47150, Control_c, 0, 64, 127
3, 47730, Control_c, 0, 64, 0
3, 47760, Note_on_c, 0, 51, 0
3, 47760, Note_on_c, 0, 50, 49
3, 48000, Note_on_c, 0, 50, 0
3, 48000, Note_on_c, 0, 49, 53
3, 48240, Control_c, 0, 64, 127
3, 48889, Control_c, 0, 64, 0
3, 48932, Control_c, 0, 64, 127
3, 49440, Note_on_c, 0, 49, 0
3, 49779, Control_c, 0, 64, 0
3, 49920, Note_on_c, 0, 42, 29
3, 49920, Control_c, 0, 64, 127
3, 49920, Note_on_c, 0, 49, 33
3, 50160, Note_on_c, 0, 37, 27
3, 50400, Note_on_c, 0, 37, 0
3, 50400, Note_on_c, 0, 37, 30
3, 50640, Note_on_c, 0, 37, 0
3, 50640, Note_on_c, 0, 49, 0
3, 50640, Note_on_c, 0, 42, 0
3, 50640, Note_on_c, 0, 42, 26
3, 50640, Note_on_c, 0, 49, 29
3, 50665, Control_c, 0, 64, 0
3, 50880, Note_on_c, 0, 49, 0
3, 50880, Note_on_c, 0, 42, 0
3, 50880, Note_on_c, 0, 42, 29
3, 50880, Note_on_c, 0, 49, 33
3, 50971, Control_c, 0, 64, 127
3, 51120, Note_on_c, 0, 37, 26
3, 51360, Note_on_c, 0, 37, 0
3, 51360, Note_on_c, 0, 37, 29
3, 51600, Note_on_c, 0, 37, 0
3, 51600, Note_on_c, 0, 49, 0
3, 51600, Note_on_c, 0, 42, 0
3, 51600, Note_on_c, 0, 42, 26
3, 51600, Note_on_c, 0, 49, 29
3, 51650, Control_c, 0, 64, 0
3, 51840, Note_on_c, 0, 49, 0
3, 51840, Note_on_c, 0, 42, 0
3, 51840, Note_on_c, 0, 42, 29
3, 51840, Control_c, 0, 64, 127
3, 51840, Note_on_c, 0, 49, 33
3, 52080, Note_on_c, 0, 37, 27
3, 52320, Note_on_c, 0, 37, 0
3, 52320, Note_on_c, 0, 37, 30
3, 52560, Note_on_c, 0, 37, 0
3, 52560, Note_on_c, 0, 49, 0
3, 52560, Note_on_c, 0, 42, 0
3, 52560, Note_on_c, 0, 49, 28
3, 52560, Note_on_c, 0, 42, 25
3, 52800, Note_on_c, 0, 42, 0
3, 52800, Note_on_c, 0, 49, 0
3, 52800, Control_c, 0, 64, 0
3, 52800, Note_on_c, 0, 42, 29
3, 52800, Note_on_c, 0, 49, 33
3, 52891, Control_c, 0, 64, 127
3, 53040, Note_on_c, 0, 37, 26
3, 53280, Note_on_c, 0, 37, 0
3, 53280, Note_on_c, 0, 37, 29
3, 53520, Note_on_c, 0, 37, 0
3, 53520, Note_on_c, 0, 49, 0
3, 53520, Note_on_c, 0, 42, 0
3, 53520, Note_on_c, 0, 42, 26
3, 53520, Note_on_c, 0, 49, 29
3, 53760, Note_on_c, 0, 49, 0
3, 53760, Note_on_c, 0, 42, 0
3, 53760, Control_c, 0, 64, 0
3, 53760, Note_on_c, 0, 42, 29
3, 53760, Control_c, 0, 64, 127
3, 53760, Note_on_c, 0, 49, 33
3, 54000, Note_on_c, 0, 37, 27
3, 54240, Note_on_c, 0, 37, 0
3, 54240, Note_on_c, 0, 37, 30
3, 54473, Control_c, 0, 64, 0
3, 54480, Note_on_c, 0, 37, 0
3, 54480, Note_on_c, 0, 49, 0
3, 54480, Note_on_c, 0, 42, 0
3, 54480, Note_on_c, 0, 49, 28
3, 54480, Note_on_c, 0, 42, 25
3, 54720, Note_on_c, 0, 42, 0
3, 54720, Note_on_c, 0, 49, 0
3, 54720, Note_on_c, 0, 42, 29
3, 54720, Note_on_c, 0, 49, 33
3, 54960, Note_on_c, 0, 37, 26
3, 55200, Note_on_c, 0, 37, 0
3, 55200, Note_on_c, 0, 37, 29
3, 55440, Note_on_c, 0, 37, 0
3, 55440, Note_on_c, 0, 49, 0
3, 55440, Note_on_c, 0, 42, 0
3, 55440, Note_on_c, 0, 42, 26
3, 55440, Note_on_c, 0, 49, 29
3, 55680, Note_on_c, 0, 49, 0
3, 55680, Note_on_c, 0, 42, 0
3, 55680, Note_on_c, 0, 42, 29
3, 55680, Control_c, 0, 64, 127
3, 55680, Note_on_c, 0, 49, 33
3, 55920, Note_on_c, 0, 37, 27
3, 56160, Note_on_c, 0, 37, 0
3, 56160, Note_on_c, 0, 37, 30
3, 56400, Note_on_c, 0, 37, 0
3, 56400, Note_on_c, 0, 49, 0
3, 56400, Note_on_c, 0, 42, 0
3, 56400, Note_on_c, 0, 49, 28
3, 56400, Note_on_c, 0, 42, 25
3, 56640, Note_on_c, 0, 42, 0
3, 56640, Note_on_c, 0, 49, 0
3, 56640, Control_c, 0, 64, 0
3, 56640, Note_on_c, 0, 42, 29
3, 56640, Note_on_c, 0, 49, 33
3, 56731, Control_c, 0, 64, 127
3, 56880, Note_on_c, 0, 37, 26
3, 57120, Note_on_c, 0, 37, 0
3, 57120, Note_on_c, 0, 37, 29
3, 57360, Note_on_c, 0, 37, 0
3, 57360, Note_on_c, 0, 49, 0
3, 57360, Note_on_c, 0, 42, 0
3, 57360, Note_on_c, 0, 42, 26
3, 57360, Note_on_c, 0, 49, 29
3, 57600, Note_on_c, 0, 49, 0
3, 57600, Note_on_c, 0, 42, 0
3, 57600, Control_c, 0, 64, 0
3, 57600, Note_on_c, 0, 42, 29
3, 57600, Control_c, 0, 64, 127
3, 57600, Note_on_c, 0, 49, 33
3, 57840, Note_on_c, 0, 37, 27
3, 58080, Note_on_c, 0, 37, 0
3, 58080, Note_on_c, 0, 37, 30
3, 58295, Control_c, 0, 64, 0
3, 58320, Note_on_c, 0, 37, 0
3, 58320, Note_on_c, 0, 49, 0
3, 58320, Note_on_c, 0, 42, 0
3, 58320, Note_on_c, 0, 49, 28
3, 58320, Note_on_c, 0, 42, 25
3, 58560, Note_on_c, 0, 42, 0
3, 58560, Note_on_c, 0, 49, 0
3, 58560, Note_on_c, 0, 39, 35
3, 58560, Note_on_c, 0, 49, 27
3, 58740, Note_on_c, 0, 39, 0
3, 58800, Note_on_c, 0, 37, 30
3, 58980, Note_on_c, 0, 37, 0
3, 59040, Note_on_c, 0, 39, 36
3, 59220, Note_on_c, 0, 39, 0
3, 59280, Note_on_c, 0, 41, 30
3, 59460, Note_on_c, 0, 41, 0
3, 59520, Note_on_c, 0, 49, 0
3, 59520, Note_on_c, 0, 42, 29
3, 59520, Control_c, 0, 64, 127
3, 59520, Note_on_c, 0, 49, 33
3, 59760, Note_on_c, 0, 37, 27
3, 60000, Note_on_c, 0, 37, 0
3, 60000, Note_on_c, 0, 37, 31
3, 60240, Note_on_c, 0, 37, 0
3, 60240, Note_on_c, 0, 49, 0
3, 60240, Note_on_c, 0, 42, 0
3, 60240, Note_on_c, 0, 49, 29
3, 60240, Note_on_c, 0, 42, 26
3, 60480, Note_on_c, 0, 42, 0
3, 60480, Note_on_c, 0, 49, 0
3, 60480, Control_c, 0, 64, 0
3, 60480, Note_on_c, 0, 42, 31
3, 60480, Note_on_c, 0, 49, 36
3, 60571, Control_c, 0, 64, 127
3, 60720, Note_on_c, 0, 37, 29
3, 60960, Note_on_c, 0, 37, 0
3, 60960, Note_on_c, 0, 37, 34
3, 61200, Note_on_c, 0, 37, 0
3, 61200, Note_on_c, 0, 49, 0
3, 61200, Note_on_c, 0, 42, 0
3, 61200, Note_on_c, 0, 42, 24
3, 61200, Note_on_c, 0, 47, 27
3, 61327, Control_c, 0, 64, 0
3, 61440, Note_on_c, 0, 47, 0
3, 61440, Note_on_c, 0, 42, 0
3, 61440, Note_on_c, 0, 42, 30
3, 61440, Control_c, 0, 64, 127
3, 61440, Note_on_c, 0, 47, 35
3, 61680, Note_on_c, 0, 35, 31
3, 61920, Note_on_c, 0, 35, 0
3, 61920, Note_on_c, 0, 35, 35
3, 62160, Note_on_c, 0, 35, 0
3, 62160, Note_on_c, 0, 47, 0
3, 62160, Note_on_c, 0, 42, 0
3, 62160, Note_on_c, 0, 48, 34
3, 62160, Note_on_c, 0, 42, 30
3, 62400, Note_on_c, 0, 42, 0
3, 62400, Note_on_c, 0, 48, 0
3, 62400, Note_on_c, 0, 42, 38
3, 62400, Note_on_c, 0, 48, 42
3, 62446, Control_c, 0, 64, 0
3, 62491, Control_c, 0, 64, 127
3, 62640, Note_on_c, 0, 36, 36
3, 62880, Note_on_c, 0, 36, 0
3, 62880, Note_on_c, 0, 36, 45
3, 63120, Note_on_c, 0, 36, 0
3, 63120, Note_on_c, 0, 48, 0
3, 63120, Note_on_c, 0, 42, 0
3, 63120, Note_on_c, 0, 42, 40
3, 63120, Note_on_c, 0, 48, 45
3, 63247, Control_c, 0, 64, 0
3, 63296, Control_c, 0, 64, 127
3, 63300, Note_on_c, 0, 37, 53
3, 63360, Note_on_c, 0, 48, 0
3, 63360, Note_on_c, 0, 42, 0
3, 63360, Note_on_c, 0, 54, 56
3, 63840, Note_on_c, 0, 54, 0
3, 63840, Note_on_c, 0, 53, 52
3, 64285, Control_c, 0, 64, 0
3, 64320, Note_on_c, 0, 53, 0
3, 64320, Note_on_c, 0, 51, 56
3, 64334, Control_c, 0, 64, 127
3, 64800, Note_on_c, 0, 51, 0
3, 64800, Note_on_c, 0, 49, 51
3, 65096, Control_c, 0, 64, 0
3, 65160, Note_on_c, 0, 37, 47
3, 65174, Control_c, 0, 64, 127
3, 65220, Note_on_c, 0, 49, 0
3, 65280, Note_on_c, 0, 37, 0
3, 65280, Note_on_c, 0, 58, 66
3, 65760, Note_on_c, 0, 58, 0
3, 65760, Note_on_c, 0, 56, 57
3, 66120, Note_on_c, 0, 56, 0
3, 66120, Note_on_c, 0, 54, 53
3, 66134, Control_c, 0, 64, 0
3, 66233, Control_c, 0, 64, 127
3, 66240, Note_on_c, 0, 54, 0
3, 66240, Note_on_c, 0, 54, 59
3, 66480, Note_on_c, 0, 54, 0
3, 66480, Note_on_c, 0, 53, 53
3, 66720, Note_on_c, 0, 53, 0
3, 66720, Note_on_c, 0, 51, 57
3, 66960, Note_on_c, 0, 51, 0
3, 66960, Note_on_c, 0, 53, 52
3, 67009, Control_c, 0, 64, 0
3, 67126, Control_c, 0, 64, 127
3, 67140, Note_on_c, 0, 53, 0
3, 67140, Note_on_c, 0, 37, 0
3, 67140, Note_on_c, 0, 37, 47
3, 67200, Note_on_c, 0, 54, 56
3, 67680, Note_on_c, 0, 54, 0
3, 67680, Note_on_c, 0, 49, 52
3, 67920, Note_on_c, 0, 49, 0
3, 67920, Note_on_c, 0, 50, 47
3, 68125, Control_c, 0, 64, 0
3, 68160, Note_on_c, 0, 50, 0
3, 68160, Note_on_c, 0, 51, 56
3, 68174, Control_c, 0, 64, 127
3, 68400, Note_on_c, 0, 51, 0
3, 68400, Note_on_c, 0, 48, 48
3, 68640, Note_on_c, 0, 48, 0
3, 68640, Note_on_c, 0, 49, 51
3, 68936, Control_c, 0, 64, 0
3, 69000, Note_on_c, 0, 37, 47
3, 69014, Control_c, 0, 64, 127
3, 69120, Note_on_c, 0, 49, 0
3, 69120, Note_on_c, 0, 37, 0
3, 69120, Note_on_c, 0, 58, 66
3, 69600, Note_on_c, 0, 58, 0
3, 69600, Note_on_c, 0, 56, 57
3, 69960, Note_on_c, 0, 56, 0
3, 69960, Note_on_c, 0, 54, 53
3, 69974, Control_c, 0, 64, 0
3, 70073, Control_c, 0, 64, 127
3, 70080, Note_on_c, 0, 54, 0
3, 70080, Note_on_c, 0, 54, 59
3, 70320, Note_on_c, 0, 54, 0
3, 70320, Note_on_c, 0, 53, 53
3, 70560, Note_on_c, 0, 53, 0
3, 70560, Note_on_c, 0, 51, 57
3, 70800, Note_on_c, 0, 51, 0
3, 70800, Note_on_c, 0, 53, 52
3, 70849, Control_c, 0, 64, 0
3, 70980, Note_on_c, 0, 37, 0
3, 71040, Note_on_c, 0, 53, 0
3, 71040, Note_on_c, 0, 42, 48
3, 71040, Note_on_c, 0, 49, 55
3, 71086, Control_c, 0, 64, 127
3, 71700, Control_c, 0, 64, 0
3, 71760, Note_on_c, 0, 49, 0
3, 71760, Note_on_c, 0, 42, 0
3, 71760, Note_on_c, 0, 36, 47
3, 71940, Note_on_c, 0, 36, 0
3, 72000, Note_on_c, 0, 37, 53
3, 72180, Note_on_c, 0, 37, 0
3, 72240, Note_on_c, 0, 42, 48
3, 72420, Note_on_c, 0, 42, 0
3, 72480, Note_on_c, 0, 46, 51
3, 72660, Note_on_c, 0, 46, 0
3, 72720, Note_on_c, 0, 49, 48
3, 72900, Note_on_c, 0, 49, 0
3, 72960, Note_on_c, 0, 51, 51
3, 73006, Control_c, 0, 64, 127
3, 73620, Control_c, 0, 64, 0
3, 73680, Note_on_c, 0, 51, 0
3, 73680, Note_on_c, 0, 48, 41
3, 73860, Note_on_c, 0, 48, 0
3, 73920, Note_on_c, 0, 49, 47
3, 74100, Note_on_c, 0, 49, 0
3, 74160, Note_on_c, 0, 54, 40
3, 74340, Note_on_c, 0, 54, 0
3, 74400, Note_on_c, 0, 58, 42
3, 74580, Note_on_c, 0, 58, 0
3, 74640, Note_on_c, 0, 61, 39
3, 74820, Note_on_c, 0, 61, 0
3, 74880, Note_on_c, 0, 63, 41
3, 74894, Control_c, 0, 64, 127
3, 75784, Control_c, 0, 64, 0
3, 75840, Note_on_c, 0, 63, 0
3, 75840, Note_on_c, 0, 58, 39
3, 75868, Control_c, 0, 64, 127
3, 76800, Note_on_c, 0, 58, 0
3, 76800, Control_c, 0, 64, 0
3, 76800, Note_on_c, 0, 63, 39
3, 76885, Control_c, 0, 64, 127
3, 77704, Control_c, 0, 64, 0
3, 77760, Note_on_c, 0, 63, 0
3, 77760, Control_c, 0, 64, 127
3, 77760, Note_on_c, 0, 58, 35
3, 78720, Note_on_c, 0, 58, 0
3, 78720, Note_on_c, 0, 66, 28
3, 80456, Control_c, 0, 64, 0
3, 80640, Note_on_c, 0, 66, 0
3, 80640, End_track
4, 0, Start_track
4, 0, MIDI_port, 0
4, 0, Title_t, "Borodin: Petite Suite, Nocturne"
4, 0, End_track
5, 0, Start_track
5, 0, MIDI_port, 0
5, 0, Title_t, "Copyright © 2000 by Bernd Krüger"
5, 0, End_track
6, 0, Start_track
6, 0, MIDI_port, 0
6, 0, Title_t, "email: bernd.krueger@piano-midi.de"
6, 0, End_track
7, 0, Start_track
7, 0, MIDI_port, 0
7, 0, Title_t, "http://www.piano-midi.de"
7, 0, End_track
8, 0, Start_track
8, 0, MIDI_port, 0
8, 0, Title_t, "Edition: 21.8.00"
8, 0, End_track
9, 0, Start_track
9, 0, MIDI_port, 0
9, 0, End_track
10, 0, Start_track
10, 0, MIDI_port, 0
10, 0, End_track
0, 0, End_of_file
