0, 0, Header, 1, 17, 480
1, 0, Start_track
1, 0, Title_t, "Brahms: Intermezzo Opus 117 Nr. 2"
1, 0, Copyright_t, "Copyright © 2010 by Bernd Krueger"
1, 0, Text_t, "Bernd Krueger"
1, 0, Text_t, "Andante non troppo e con molto espressione"
1, 0, Text_t, "Erstellt: 26.10.2010\012"
1, 0, Text_t, "Dauer: 3:47 Minuten\012"
1, 0, Time_signature, 3, 3, 12, 8
1, 0, Key_signature, -5, "major"
1, 0, Tempo, 1625135
1, 360, Tempo, 1803969
1, 420, Marker_t, "Teil 1"
1, 480, Tempo, 1605136
1, 600, Tempo, 1671309
1, 720, Tempo, 1605136
1, 1140, Tempo, 1803969
1, 1200, Tempo, 1605136
1, 1320, Tempo, 1755413
1, 1440, Tempo, 1605136
1, 1860, Tempo, 1694915
1, 1920, Tempo, 1605136
1, 2040, Tempo, 1648352
1, 2160, Tempo, 1605136
1, 2580, Tempo, 1803969
1, 2640, Tempo, 1645639
1, 2760, Tempo, 1604278
1, 2880, Tempo, 1605136
1, 3300, Tempo, 1755413
1, 3360, Tempo, 1605136
1, 3540, Tempo, 1755413
1, 3600, Tempo, 1605136
1, 3780, Tempo, 1755413
1, 3840, Tempo, 1605136
1, 4020, Tempo, 1605136
1, 4260, Tempo, 1908397
1, 4320, Tempo, 1666204
1, 4380, Tempo, 1645639
1, 4440, Tempo, 1648352
1, 4560, Tempo, 1625135
1, 4620, Tempo, 1605136
1, 4740, Tempo, 1605136
1, 4800, Tempo, 1605136
1, 4980, Tempo, 1803969
1, 5040, Tempo, 1626016
1, 5160, Tempo, 1583113
1, 5280, Tempo, 1558846
1, 5400, Tempo, 1538856
1, 5520, Tempo, 1522843
1, 5640, Tempo, 1645639
1, 5700, Tempo, 1562500
1, 5880, Tempo, 1522843
1, 5892, Tempo, 1522843
1, 6048, Tempo, 1542416
1, 6192, Tempo, 1562500
1, 6348, Tempo, 1583113
1, 6492, Tempo, 1604278
1, 6900, Tempo, 1803969
1, 6960, Tempo, 1605136
1, 7080, Tempo, 1671309
1, 7200, Tempo, 1605136
1, 7620, Tempo, 1648352
1, 7680, Tempo, 1605136
1, 7800, Tempo, 1604278
1, 7920, Tempo, 1605136
1, 8340, Tempo, 1803969
1, 8400, Tempo, 1562500
1, 8520, Tempo, 1604278
1, 8580, Tempo, 1666204
1, 8640, Tempo, 1605136
1, 9060, Tempo, 1803969
1, 9120, Tempo, 1645639
1, 9240, Tempo, 1694915
1, 9360, Tempo, 1605136
1, 9780, Tempo, 1648352
1, 9840, Tempo, 1605136
1, 10020, Tempo, 1755413
1, 10080, Tempo, 1605136
1, 10260, Tempo, 1755413
1, 10320, Tempo, 1605136
1, 10500, Tempo, 1605136
1, 10740, Tempo, 1908397
1, 10800, Tempo, 1666204
1, 10860, Tempo, 1645639
1, 10920, Tempo, 1755413
1, 11040, Tempo, 1625135
1, 11100, Tempo, 1605136
1, 11220, Tempo, 1605136
1, 11280, Tempo, 1605136
1, 11460, Tempo, 1803969
1, 11520, Tempo, 1562500
1, 11640, Tempo, 1542416
1, 11760, Tempo, 1562500
1, 11880, Tempo, 1645639
1, 12000, Tempo, 1605136
1, 12120, Tempo, 1645639
1, 12240, Tempo, 1626016
1, 12420, Tempo, 1648352
1, 12600, Tempo, 1694915
1, 12660, Tempo, 1796407
1, 12720, Tempo, 1626016
1, 12960, Tempo, 1605136
1, 13140, Tempo, 1755413
1, 13200, Tempo, 1605136
1, 13380, Tempo, 1605136
1, 13620, Tempo, 1908397
1, 13680, Tempo, 1666204
1, 13740, Tempo, 1645639
1, 13800, Tempo, 1755413
1, 13920, Tempo, 1625135
1, 13980, Tempo, 1605136
1, 14100, Tempo, 1605136
1, 14160, Tempo, 1605136
1, 14340, Tempo, 1803969
1, 14400, Tempo, 1605136
1, 14520, Tempo, 1625135
1, 14640, Tempo, 1605136
1, 14760, Tempo, 1645639
1, 14880, Tempo, 1605136
1, 15000, Tempo, 1645639
1, 15124, Tempo, 1687764
1, 15214, Tempo, 1709889
1, 15289, Tempo, 1732102
1, 15364, Tempo, 1732102
1, 15409, Tempo, 1755413
1, 15454, Tempo, 1779359
1, 15499, Tempo, 1803969
1, 15529, Tempo, 1828711
1, 15574, Tempo, 1854714
1, 15604, Tempo, 1854714
1, 15634, Tempo, 1881468
1, 15664, Tempo, 1908397
1, 15694, Tempo, 1936733
1, 15724, Tempo, 1965924
1, 15754, Tempo, 1995344
1, 15784, Tempo, 2026342
1, 15814, Tempo, 1995344
1, 15859, Tempo, 2026342
1, 15889, Tempo, 2058319
1, 15919, Tempo, 2091321
1, 15964, Tempo, 2124646
1, 15994, Tempo, 2159827
1, 16024, Tempo, 2196193
1, 16069, Tempo, 2232974
1, 16080, Tempo, 2564103
1, 16200, Tempo, 1671309
1, 16200, Marker_t, "Teil 2"
1, 16260, Tempo, 1648352
1, 16320, Tempo, 1744186
1, 16560, Tempo, 1604278
1, 16800, Tempo, 1694915
1, 16920, Tempo, 1562500
1, 17040, Tempo, 1671309
1, 17160, Tempo, 1542416
1, 17520, Tempo, 1583113
1, 17640, Tempo, 1694915
1, 17700, Tempo, 1626016
1, 17760, Tempo, 1583113
1, 17880, Tempo, 1694915
1, 18000, Tempo, 1583113
1, 18240, Tempo, 1635323
1, 18360, Tempo, 1456664
1, 18420, Tempo, 1541624
1, 18480, Tempo, 1863933
1, 18540, Tempo, 1729605
1, 18600, Tempo, 1405481
1, 18720, Tempo, 1613337
1, 18900, Tempo, 1481847
1, 18960, Tempo, 1600427
1, 19380, Tempo, 1500375
1, 19440, Tempo, 1600427
1, 20040, Tempo, 1729605
1, 20160, Tempo, 1613337
1, 20400, Tempo, 1558846
1, 20520, Tempo, 1644286
1, 20640, Tempo, 1579363
1, 20820, Tempo, 2128414
1, 20869, Tempo, 1591934
1, 20880, Tempo, 1635323
1, 21097, Tempo, 1571092
1, 21121, Tempo, 1613337
1, 21169, Tempo, 1635323
1, 21217, Tempo, 1657917
1, 21265, Tempo, 1681143
1, 21313, Tempo, 1705030
1, 21349, Tempo, 1729605
1, 21361, Tempo, 1705030
1, 21385, Tempo, 1729605
1, 21397, Tempo, 1754899
1, 21409, Tempo, 1780944
1, 21421, Tempo, 1807773
1, 21433, Tempo, 1835424
1, 21445, Tempo, 1863933
1, 21457, Tempo, 1893342
1, 21469, Tempo, 1923693
1, 21481, Tempo, 1955034
1, 21505, Tempo, 1987413
1, 21517, Tempo, 2020882
1, 21529, Tempo, 2055498
1, 21541, Tempo, 2091321
1, 21553, Tempo, 2128414
1, 21565, Tempo, 2166847
1, 21577, Tempo, 2206694
1, 21589, Tempo, 2248033
1, 21601, Tempo, 2290951
1, 21960, Tempo, 1671309
1, 22020, Tempo, 1648352
1, 22080, Tempo, 1744186
1, 22320, Tempo, 1604278
1, 22560, Tempo, 1694915
1, 22680, Tempo, 1562500
1, 22800, Tempo, 1671309
1, 22920, Tempo, 1542416
1, 23280, Tempo, 1583113
1, 23400, Tempo, 1694915
1, 23460, Tempo, 1626016
1, 23520, Tempo, 1583113
1, 23640, Tempo, 1694915
1, 23760, Tempo, 1583113
1, 24000, Tempo, 1635323
1, 24060, Tempo, 1522070
1, 24120, Tempo, 1456664
1, 24180, Tempo, 1492909
1, 24240, Tempo, 1863933
1, 24300, Tempo, 1603421
1, 24360, Tempo, 1405481
1, 24480, Tempo, 1613337
1, 24660, Tempo, 1500375
1, 24720, Tempo, 1600427
1, 25080, Tempo, 1667130
1, 25200, Tempo, 1579363
1, 25800, Tempo, 1729605
1, 25920, Tempo, 1613337
1, 26580, Tempo, 2314815
1, 26629, Tempo, 1591934
1, 26640, Tempo, 1635323
1, 26857, Tempo, 1571092
1, 26881, Tempo, 1613337
1, 26929, Tempo, 1635323
1, 26977, Tempo, 1657917
1, 27025, Tempo, 1681143
1, 27073, Tempo, 1705030
1, 27109, Tempo, 1729605
1, 27121, Tempo, 1705030
1, 27145, Tempo, 1729605
1, 27157, Tempo, 1754899
1, 27169, Tempo, 1780944
1, 27181, Tempo, 1807773
1, 27193, Tempo, 1835424
1, 27205, Tempo, 1863933
1, 27217, Tempo, 1893342
1, 27229, Tempo, 1923693
1, 27240, Tempo, 2314815
1, 27337, Tempo, 2206694
1, 27349, Tempo, 2248033
1, 27360, Tempo, 2228826
1, 27361, Tempo, 2290951
1, 27600, Tempo, 3047232
1, 27780, Tempo, 1519372
1, 27840, Tempo, 1600427
1, 28020, Tempo, 1481847
1, 28020, Marker_t, "Teil 3"
1, 28080, Tempo, 1579363
1, 28320, Tempo, 1511716
1, 28500, Tempo, 1591934
1, 28560, Tempo, 1492909
1, 28740, Tempo, 1635323
1, 28800, Tempo, 1456664
1, 28980, Tempo, 1613337
1, 29040, Tempo, 1474564
1, 29220, Tempo, 1591934
1, 29280, Tempo, 1474564
1, 29460, Tempo, 1531003
1, 29520, Tempo, 1456664
1, 29700, Tempo, 1613337
1, 29760, Tempo, 1474564
1, 29940, Tempo, 1591934
1, 30000, Tempo, 1492909
1, 30180, Tempo, 1657917
1, 30240, Tempo, 1439194
1, 30420, Tempo, 1422138
1, 30480, Tempo, 1550788
1, 30540, Tempo, 1439194
1, 30900, Tempo, 1613337
1, 30942, Tempo, 1412097
1, 31092, Tempo, 1395673
1, 31242, Tempo, 1379628
1, 31392, Tempo, 1363946
1, 31620, Tempo, 1463772
1, 31680, Tempo, 1363946
1, 31884, Tempo, 1327727
1, 31887, Tempo, 1333630
1, 31902, Tempo, 1363946
1, 32037, Tempo, 1379628
1, 32172, Tempo, 1395673
1, 32307, Tempo, 1412097
1, 32337, Tempo, 1428912
1, 32340, Tempo, 1657917
1, 32389, Tempo, 1389210
1, 32412, Tempo, 1373312
1, 32652, Tempo, 1389210
1, 32880, Tempo, 1395673
1, 32940, Tempo, 1428912
1, 33000, Tempo, 1395673
1, 33108, Tempo, 1389210
1, 33120, Tempo, 1422138
1, 33252, Tempo, 1439194
1, 33372, Tempo, 1456664
1, 33396, Tempo, 1474564
1, 33444, Tempo, 1492909
1, 33504, Tempo, 1511716
1, 33564, Tempo, 1531003
1, 33612, Tempo, 1550788
1, 33672, Tempo, 1571092
1, 33720, Tempo, 1591934
1, 33720, Tempo, 1463772
1, 34080, Tempo, 1579363
1, 34200, Tempo, 1531003
1, 34320, Tempo, 1591934
1, 34440, Tempo, 1690617
1, 34560, Tempo, 1846722
1, 34680, Tempo, 2308580
1, 34800, Tempo, 2501042
1, 34920, Tempo, 1562907
1, 34980, Tempo, 1439194
1, 35280, Tempo, 1439194
1, 35517, Tempo, 1363946
1, 35532, Tempo, 1333630
1, 35772, Tempo, 1348618
1, 35986, Tempo, 1333630
1, 36061, Tempo, 1348618
1, 36136, Tempo, 1363946
1, 36211, Tempo, 1379628
1, 36286, Tempo, 1395673
1, 36361, Tempo, 1412097
1, 36436, Tempo, 1428912
1, 36511, Tempo, 1446132
1, 36586, Tempo, 1463772
1, 36661, Tempo, 1481847
1, 36720, Tempo, 1538856
1, 36960, Tempo, 1622060
1, 37020, Tempo, 1600427
1, 37080, Tempo, 1622060
1, 37200, Tempo, 1622060
1, 37320, Tempo, 1765225
1, 37380, Tempo, 1579363
1, 37440, Tempo, 1605136
1, 37860, Tempo, 1803969
1, 37920, Tempo, 1605136
1, 38040, Tempo, 1755413
1, 38160, Tempo, 1605136
1, 38580, Tempo, 1694915
1, 38640, Tempo, 1605136
1, 38760, Tempo, 1648352
1, 38880, Tempo, 1605136
1, 39300, Tempo, 1803969
1, 39360, Tempo, 1645639
1, 39480, Tempo, 1604278
1, 39600, Tempo, 1605136
1, 40020, Tempo, 1755413
1, 40080, Tempo, 1605136
1, 40260, Tempo, 1755413
1, 40320, Tempo, 1605136
1, 40500, Tempo, 1755413
1, 40560, Tempo, 1605136
1, 40740, Tempo, 1605136
1, 40980, Tempo, 1908397
1, 41040, Tempo, 1666204
1, 41100, Tempo, 1645639
1, 41160, Tempo, 1648352
1, 41280, Tempo, 1625135
1, 41340, Tempo, 1605136
1, 41460, Tempo, 1605136
1, 41520, Tempo, 1605136
1, 41700, Tempo, 1803969
1, 41760, Tempo, 1626016
1, 41880, Tempo, 1583113
1, 42000, Tempo, 1542416
1, 42120, Tempo, 1522843
1, 42240, Tempo, 1522843
1, 42360, Tempo, 1645639
1, 42420, Tempo, 1562500
1, 42600, Tempo, 1522843
1, 42612, Tempo, 1522843
1, 42768, Tempo, 1542416
1, 42912, Tempo, 1562500
1, 43068, Tempo, 1583113
1, 43212, Tempo, 1604278
1, 43680, Tempo, 1605136
1, 43800, Tempo, 1671309
1, 43920, Tempo, 1605136
1, 44340, Tempo, 1648352
1, 44400, Tempo, 1605136
1, 44520, Tempo, 1604278
1, 44640, Tempo, 1605136
1, 45060, Tempo, 1803969
1, 45120, Tempo, 1562500
1, 45240, Tempo, 1604278
1, 45300, Tempo, 1666204
1, 45360, Tempo, 1605136
1, 45780, Tempo, 1803969
1, 45840, Tempo, 1645639
1, 45960, Tempo, 1694915
1, 46080, Tempo, 1605136
1, 46500, Tempo, 1648352
1, 46560, Tempo, 1605136
1, 46740, Tempo, 1755413
1, 46800, Tempo, 1605136
1, 47220, Tempo, 1648352
1, 47280, Tempo, 1605136
1, 47460, Tempo, 1755413
1, 47520, Tempo, 1605136
1, 47940, Tempo, 1648352
1, 48000, Tempo, 1605136
1, 48180, Tempo, 1755413
1, 48240, Tempo, 1645639
1, 48360, Tempo, 1580611
1, 48480, Tempo, 1538856
1, 48600, Tempo, 1558846
1, 48660, Tempo, 1558846
1, 48720, Tempo, 1623377
1, 48840, Tempo, 1716247
1, 48960, Tempo, 1623377
1, 49080, Tempo, 1601708
1, 49200, Tempo, 1538856
1, 49320, Tempo, 1579363
1, 49440, Tempo, 1716247
1, 49560, Tempo, 1645639
1, 49620, Tempo, 2108222
1, 49680, Tempo, 1623377
1, 49800, Tempo, 1558846
1, 49920, Tempo, 1601708
1, 50040, Tempo, 1558846
1, 50160, Tempo, 1605136
1, 50280, Tempo, 1558846
1, 50400, Tempo, 1583531
1, 50520, Tempo, 1542416
1, 50640, Tempo, 1562500
1, 50760, Tempo, 1645639
1, 50880, Tempo, 1605136
1, 51000, Tempo, 1692047
1, 51120, Tempo, 1623377
1, 51124, Tempo, 1692047
1, 51179, Tempo, 1716247
1, 51227, Tempo, 1741149
1, 51282, Tempo, 1766784
1, 51331, Tempo, 1793186
1, 51379, Tempo, 1820388
1, 51434, Tempo, 1848429
1, 51483, Tempo, 1877347
1, 51531, Tempo, 1907184
1, 51586, Tempo, 1937984
1, 51634, Tempo, 1969796
1, 51683, Tempo, 2002670
1, 51738, Tempo, 2036660
1, 51786, Tempo, 2071823
1, 51835, Tempo, 2108222
1, 52200, Tempo, 1850709
1, 52200, Marker_t, "Piu Adagio"
1, 52320, Tempo, 2074689
1, 52440, Tempo, 2039429
1, 52560, Tempo, 2005348
1, 52800, Tempo, 1972387
1, 52920, Tempo, 1822600
1, 53040, Tempo, 1822600
1, 53160, Tempo, 1768868
1, 53280, Tempo, 1879699
1, 53400, Tempo, 1795332
1, 53520, Tempo, 1850709
1, 53640, Tempo, 1850709
1, 53760, Tempo, 2074689
1, 53880, Tempo, 2039429
1, 54000, Tempo, 2005348
1, 54240, Tempo, 1972387
1, 54360, Tempo, 1822600
1, 54480, Tempo, 1822600
1, 54600, Tempo, 1768868
1, 54720, Tempo, 1879699
1, 54840, Tempo, 1795332
1, 54960, Tempo, 1850709
1, 55080, Tempo, 1850709
1, 55200, Tempo, 2074689
1, 55320, Tempo, 2039429
1, 55440, Tempo, 2005348
1, 55680, Tempo, 1972387
1, 55800, Tempo, 1850709
1, 55920, Tempo, 2074689
1, 56040, Tempo, 2039429
1, 56160, Tempo, 2005348
1, 56400, Tempo, 1972387
1, 56520, Tempo, 1850709
1, 56640, Tempo, 2074689
1, 56760, Tempo, 2039429
1, 56880, Tempo, 2005348
1, 57120, Tempo, 1972387
1, 57240, Tempo, 1850709
1, 57360, Tempo, 2074689
1, 57480, Tempo, 2039429
1, 57600, Tempo, 2005348
1, 57840, Tempo, 1972387
1, 57960, Tempo, 2111189
1, 58080, Tempo, 2228826
1, 58200, Tempo, 2457002
1, 58320, Tempo, 2314815
1, 58560, Tempo, 2407705
1, 58680, Tempo, 2508361
1, 58800, Tempo, 2801120
1, 58920, Tempo, 3444317
1, 59040, Tempo, 2737226
1, 59280, Tempo, 2868069
1, 59520, Tempo, 3257329
1, 59760, Tempo, 2617801
1, 59880, Tempo, 2449980
1, 60000, Tempo, 2353864
1, 60961, Tempo, 2676182
1, 60985, Tempo, 2737226
1, 61004, Tempo, 2801120
1, 61022, Tempo, 2868069
1, 61040, Tempo, 2938296
1, 61058, Tempo, 3012048
1, 61080, Tempo, 4140787
1, 61080, End_track
2, 0, Start_track
2, 0, Title_t, "Piano right"
2, 0, Program_c, 0, 0
2, 420, Note_on_c, 0, 73, 38
2, 480, Note_on_c, 0, 73, 0
2, 480, Note_on_c, 0, 72, 42
2, 540, Note_on_c, 0, 72, 0
2, 540, Note_on_c, 0, 66, 27
2, 600, Note_on_c, 0, 66, 0
2, 600, Note_on_c, 0, 60, 26
2, 660, Note_on_c, 0, 60, 0
2, 660, Note_on_c, 0, 72, 34
2, 720, Note_on_c, 0, 72, 0
2, 720, Note_on_c, 0, 70, 41
2, 780, Note_on_c, 0, 65, 27
2, 840, Note_on_c, 0, 65, 0
2, 840, Note_on_c, 0, 58, 27
2, 900, Note_on_c, 0, 58, 0
2, 960, Note_on_c, 0, 70, 0
2, 1140, Note_on_c, 0, 70, 38
2, 1200, Note_on_c, 0, 72, 42
2, 1220, Note_on_c, 0, 70, 0
2, 1260, Note_on_c, 0, 72, 0
2, 1260, Note_on_c, 0, 66, 27
2, 1320, Note_on_c, 0, 66, 0
2, 1320, Note_on_c, 0, 60, 26
2, 1380, Note_on_c, 0, 60, 0
2, 1380, Note_on_c, 0, 72, 43
2, 1440, Note_on_c, 0, 72, 0
2, 1440, Note_on_c, 0, 77, 47
2, 1500, Note_on_c, 0, 70, 27
2, 1560, Note_on_c, 0, 70, 0
2, 1560, Note_on_c, 0, 65, 27
2, 1620, Note_on_c, 0, 65, 0
2, 1680, Note_on_c, 0, 77, 0
2, 1860, Note_on_c, 0, 77, 43
2, 1920, Note_on_c, 0, 77, 0
2, 1920, Note_on_c, 0, 80, 56
2, 1980, Note_on_c, 0, 80, 0
2, 1980, Note_on_c, 0, 73, 27
2, 2040, Note_on_c, 0, 73, 0
2, 2040, Note_on_c, 0, 68, 34
2, 2100, Note_on_c, 0, 68, 0
2, 2100, Note_on_c, 0, 80, 39
2, 2160, Note_on_c, 0, 80, 0
2, 2160, Note_on_c, 0, 78, 49
2, 2220, Note_on_c, 0, 78, 0
2, 2220, Note_on_c, 0, 73, 27
2, 2280, Note_on_c, 0, 73, 0
2, 2280, Note_on_c, 0, 66, 27
2, 2340, Note_on_c, 0, 66, 0
2, 2580, Note_on_c, 0, 73, 38
2, 2640, Note_on_c, 0, 78, 42
2, 2660, Note_on_c, 0, 73, 0
2, 2700, Note_on_c, 0, 78, 0
2, 2700, Note_on_c, 0, 72, 27
2, 2760, Note_on_c, 0, 72, 0
2, 2760, Note_on_c, 0, 66, 26
2, 2820, Note_on_c, 0, 66, 0
2, 2820, Note_on_c, 0, 78, 34
2, 2880, Note_on_c, 0, 78, 0
2, 2880, Note_on_c, 0, 77, 41
2, 2940, Note_on_c, 0, 77, 0
2, 2940, Note_on_c, 0, 72, 27
2, 3000, Note_on_c, 0, 72, 0
2, 3000, Note_on_c, 0, 65, 25
2, 3060, Note_on_c, 0, 65, 0
2, 3300, Note_on_c, 0, 72, 34
2, 3360, Note_on_c, 0, 72, 0
2, 3360, Note_on_c, 0, 77, 41
2, 3420, Note_on_c, 0, 77, 0
2, 3420, Note_on_c, 0, 70, 27
2, 3480, Note_on_c, 0, 70, 0
2, 3480, Note_on_c, 0, 65, 27
2, 3540, Note_on_c, 0, 65, 0
2, 3540, Note_on_c, 0, 77, 34
2, 3600, Note_on_c, 0, 77, 0
2, 3600, Note_on_c, 0, 75, 41
2, 3660, Note_on_c, 0, 75, 0
2, 3660, Note_on_c, 0, 70, 27
2, 3720, Note_on_c, 0, 70, 0
2, 3720, Note_on_c, 0, 63, 27
2, 3780, Note_on_c, 0, 63, 0
2, 3780, Note_on_c, 0, 73, 34
2, 3840, Note_on_c, 0, 73, 0
2, 3840, Note_on_c, 0, 72, 41
2, 3900, Note_on_c, 0, 72, 0
2, 3900, Note_on_c, 0, 66, 27
2, 3960, Note_on_c, 0, 66, 0
2, 3960, Note_on_c, 0, 60, 27
2, 4020, Note_on_c, 0, 60, 0
2, 4260, Note_on_c, 0, 77, 38
2, 4320, Note_on_c, 0, 75, 42
2, 4340, Note_on_c, 0, 77, 0
2, 4380, Note_on_c, 0, 75, 0
2, 4380, Note_on_c, 0, 69, 27
2, 4440, Note_on_c, 0, 69, 0
2, 4440, Note_on_c, 0, 63, 26
2, 4500, Note_on_c, 0, 63, 0
2, 4500, Note_on_c, 0, 73, 34
2, 4560, Note_on_c, 0, 73, 0
2, 4560, Note_on_c, 0, 72, 41
2, 4620, Note_on_c, 0, 72, 0
2, 4620, Note_on_c, 0, 69, 27
2, 4680, Note_on_c, 0, 69, 0
2, 4680, Note_on_c, 0, 63, 27
2, 4740, Note_on_c, 0, 63, 0
2, 4980, Note_on_c, 0, 78, 38
2, 5040, Note_on_c, 0, 77, 42
2, 5060, Note_on_c, 0, 78, 0
2, 5100, Note_on_c, 0, 72, 27
2, 5160, Note_on_c, 0, 72, 0
2, 5160, Note_on_c, 0, 69, 26
2, 5220, Note_on_c, 0, 69, 0
2, 5220, Note_on_c, 0, 65, 24
2, 5280, Note_on_c, 0, 65, 0
2, 5280, Note_on_c, 0, 77, 0
2, 5280, Note_on_c, 0, 76, 42
2, 5340, Note_on_c, 0, 72, 27
2, 5400, Note_on_c, 0, 72, 0
2, 5400, Note_on_c, 0, 69, 26
2, 5460, Note_on_c, 0, 69, 0
2, 5460, Note_on_c, 0, 65, 24
2, 5520, Note_on_c, 0, 65, 0
2, 5520, Note_on_c, 0, 76, 0
2, 5520, Note_on_c, 0, 75, 42
2, 5580, Note_on_c, 0, 72, 27
2, 5640, Note_on_c, 0, 72, 0
2, 5640, Note_on_c, 0, 69, 26
2, 5700, Note_on_c, 0, 69, 0
2, 5700, Note_on_c, 0, 65, 24
2, 5760, Note_on_c, 0, 65, 0
2, 5760, Note_on_c, 0, 75, 0
2, 5760, Note_on_c, 0, 73, 41
2, 5820, Note_on_c, 0, 69, 33
2, 5880, Note_on_c, 0, 66, 28
2, 5940, Note_on_c, 0, 61, 22
2, 6000, Note_on_c, 0, 61, 0
2, 6880, Note_on_c, 0, 73, 0
2, 6880, Note_on_c, 0, 69, 0
2, 6880, Note_on_c, 0, 66, 0
2, 6900, Note_on_c, 0, 73, 38
2, 6960, Note_on_c, 0, 72, 42
2, 6980, Note_on_c, 0, 73, 0
2, 7020, Note_on_c, 0, 72, 0
2, 7020, Note_on_c, 0, 66, 27
2, 7080, Note_on_c, 0, 66, 0
2, 7080, Note_on_c, 0, 60, 26
2, 7140, Note_on_c, 0, 60, 0
2, 7140, Note_on_c, 0, 72, 34
2, 7200, Note_on_c, 0, 72, 0
2, 7200, Note_on_c, 0, 70, 41
2, 7260, Note_on_c, 0, 65, 27
2, 7320, Note_on_c, 0, 65, 0
2, 7320, Note_on_c, 0, 58, 27
2, 7380, Note_on_c, 0, 58, 0
2, 7440, Note_on_c, 0, 70, 0
2, 7620, Note_on_c, 0, 70, 38
2, 7680, Note_on_c, 0, 72, 42
2, 7690, Note_on_c, 0, 70, 0
2, 7740, Note_on_c, 0, 72, 0
2, 7740, Note_on_c, 0, 66, 27
2, 7800, Note_on_c, 0, 66, 0
2, 7800, Note_on_c, 0, 60, 26
2, 7860, Note_on_c, 0, 60, 0
2, 7860, Note_on_c, 0, 72, 34
2, 7920, Note_on_c, 0, 72, 0
2, 7920, Note_on_c, 0, 77, 46
2, 7980, Note_on_c, 0, 72, 27
2, 8040, Note_on_c, 0, 65, 27
2, 8100, Note_on_c, 0, 65, 0
2, 8160, Note_on_c, 0, 72, 0
2, 8160, Note_on_c, 0, 77, 0
2, 8340, Note_on_c, 0, 77, 46
2, 8400, Note_on_c, 0, 82, 54
2, 8410, Note_on_c, 0, 77, 0
2, 8460, Note_on_c, 0, 82, 0
2, 8460, Note_on_c, 0, 76, 33
2, 8520, Note_on_c, 0, 76, 0
2, 8520, Note_on_c, 0, 70, 41
2, 8580, Note_on_c, 0, 70, 0
2, 8580, Note_on_c, 0, 82, 49
2, 8640, Note_on_c, 0, 82, 0
2, 8640, Note_on_c, 0, 81, 60
2, 8700, Note_on_c, 0, 81, 0
2, 8700, Note_on_c, 0, 75, 32
2, 8760, Note_on_c, 0, 75, 0
2, 8760, Note_on_c, 0, 69, 32
2, 8820, Note_on_c, 0, 69, 0
2, 9060, Note_on_c, 0, 77, 45
2, 9120, Note_on_c, 0, 77, 0
2, 9120, Note_on_c, 0, 80, 52
2, 9180, Note_on_c, 0, 80, 0
2, 9180, Note_on_c, 0, 74, 33
2, 9240, Note_on_c, 0, 74, 0
2, 9240, Note_on_c, 0, 68, 32
2, 9300, Note_on_c, 0, 68, 0
2, 9300, Note_on_c, 0, 80, 43
2, 9360, Note_on_c, 0, 80, 0
2, 9360, Note_on_c, 0, 79, 51
2, 9420, Note_on_c, 0, 79, 0
2, 9420, Note_on_c, 0, 73, 32
2, 9480, Note_on_c, 0, 73, 0
2, 9480, Note_on_c, 0, 67, 32
2, 9540, Note_on_c, 0, 67, 0
2, 9780, Note_on_c, 0, 75, 41
2, 9840, Note_on_c, 0, 75, 0
2, 9840, Note_on_c, 0, 78, 49
2, 9900, Note_on_c, 0, 78, 0
2, 9900, Note_on_c, 0, 72, 32
2, 9960, Note_on_c, 0, 72, 0
2, 9960, Note_on_c, 0, 66, 32
2, 10020, Note_on_c, 0, 66, 0
2, 10020, Note_on_c, 0, 78, 41
2, 10080, Note_on_c, 0, 78, 0
2, 10080, Note_on_c, 0, 77, 49
2, 10140, Note_on_c, 0, 77, 0
2, 10140, Note_on_c, 0, 71, 32
2, 10200, Note_on_c, 0, 71, 0
2, 10200, Note_on_c, 0, 65, 32
2, 10260, Note_on_c, 0, 65, 0
2, 10260, Note_on_c, 0, 75, 41
2, 10320, Note_on_c, 0, 75, 0
2, 10320, Note_on_c, 0, 73, 49
2, 10380, Note_on_c, 0, 73, 0
2, 10380, Note_on_c, 0, 71, 32
2, 10440, Note_on_c, 0, 71, 0
2, 10440, Note_on_c, 0, 65, 32
2, 10500, Note_on_c, 0, 65, 0
2, 10740, Note_on_c, 0, 76, 45
2, 10800, Note_on_c, 0, 77, 50
2, 10810, Note_on_c, 0, 76, 0
2, 10860, Note_on_c, 0, 77, 0
2, 10860, Note_on_c, 0, 68, 32
2, 10920, Note_on_c, 0, 68, 0
2, 10920, Note_on_c, 0, 65, 31
2, 10980, Note_on_c, 0, 65, 0
2, 10980, Note_on_c, 0, 73, 41
2, 11040, Note_on_c, 0, 73, 0
2, 11040, Note_on_c, 0, 72, 49
2, 11100, Note_on_c, 0, 72, 0
2, 11100, Note_on_c, 0, 68, 32
2, 11160, Note_on_c, 0, 68, 0
2, 11160, Note_on_c, 0, 65, 32
2, 11220, Note_on_c, 0, 65, 0
2, 11460, Note_on_c, 0, 72, 45
2, 11520, Note_on_c, 0, 72, 0
2, 11520, Note_on_c, 0, 73, 50
2, 11580, Note_on_c, 0, 67, 32
2, 11640, Note_on_c, 0, 67, 0
2, 11640, Note_on_c, 0, 64, 31
2, 11700, Note_on_c, 0, 64, 0
2, 11700, Note_on_c, 0, 60, 29
2, 11760, Note_on_c, 0, 60, 0
2, 11760, Note_on_c, 0, 73, 0
2, 11760, Note_on_c, 0, 70, 50
2, 11820, Note_on_c, 0, 67, 32
2, 11880, Note_on_c, 0, 67, 0
2, 11880, Note_on_c, 0, 61, 31
2, 11940, Note_on_c, 0, 61, 0
2, 11940, Note_on_c, 0, 60, 29
2, 12000, Note_on_c, 0, 60, 0
2, 12000, Note_on_c, 0, 70, 0
2, 12000, Note_on_c, 0, 67, 50
2, 12060, Note_on_c, 0, 64, 32
2, 12120, Note_on_c, 0, 64, 0
2, 12120, Note_on_c, 0, 58, 31
2, 12180, Note_on_c, 0, 58, 0
2, 12180, Note_on_c, 0, 60, 29
2, 12240, Note_on_c, 0, 60, 0
2, 12240, Note_on_c, 0, 67, 0
2, 12240, Note_on_c, 0, 70, 49
2, 12300, Note_on_c, 0, 65, 39
2, 12360, Note_on_c, 0, 65, 0
2, 12360, Note_on_c, 0, 60, 34
2, 12420, Note_on_c, 0, 60, 0
2, 12420, Note_on_c, 0, 53, 27
2, 12480, Note_on_c, 0, 53, 0
2, 12600, Note_on_c, 0, 68, 51
2, 12660, Note_on_c, 0, 68, 0
2, 12660, Note_on_c, 0, 80, 54
2, 12720, Note_on_c, 0, 80, 0
2, 12720, Note_on_c, 0, 78, 58
2, 12780, Note_on_c, 0, 78, 0
2, 12780, Note_on_c, 0, 72, 32
2, 12840, Note_on_c, 0, 72, 0
2, 12840, Note_on_c, 0, 66, 39
2, 12900, Note_on_c, 0, 66, 0
2, 12900, Note_on_c, 0, 78, 49
2, 12960, Note_on_c, 0, 78, 0
2, 12960, Note_on_c, 0, 70, 0
2, 12960, Note_on_c, 0, 77, 49
2, 13020, Note_on_c, 0, 77, 0
2, 13020, Note_on_c, 0, 71, 32
2, 13080, Note_on_c, 0, 71, 0
2, 13080, Note_on_c, 0, 65, 32
2, 13140, Note_on_c, 0, 65, 0
2, 13140, Note_on_c, 0, 75, 41
2, 13200, Note_on_c, 0, 75, 0
2, 13200, Note_on_c, 0, 73, 49
2, 13260, Note_on_c, 0, 73, 0
2, 13260, Note_on_c, 0, 71, 32
2, 13320, Note_on_c, 0, 71, 0
2, 13320, Note_on_c, 0, 65, 32
2, 13380, Note_on_c, 0, 65, 0
2, 13620, Note_on_c, 0, 74, 45
2, 13680, Note_on_c, 0, 73, 50
2, 13690, Note_on_c, 0, 74, 0
2, 13740, Note_on_c, 0, 73, 0
2, 13740, Note_on_c, 0, 68, 31
2, 13800, Note_on_c, 0, 68, 0
2, 13800, Note_on_c, 0, 65, 30
2, 13860, Note_on_c, 0, 65, 0
2, 13860, Note_on_c, 0, 72, 39
2, 13920, Note_on_c, 0, 72, 0
2, 13920, Note_on_c, 0, 71, 47
2, 13980, Note_on_c, 0, 71, 0
2, 13980, Note_on_c, 0, 68, 31
2, 14040, Note_on_c, 0, 68, 0
2, 14040, Note_on_c, 0, 62, 30
2, 14100, Note_on_c, 0, 62, 0
2, 14340, Note_on_c, 0, 73, 41
2, 14400, Note_on_c, 0, 73, 0
2, 14400, Note_on_c, 0, 71, 46
2, 14460, Note_on_c, 0, 68, 29
2, 14520, Note_on_c, 0, 68, 0
2, 14520, Note_on_c, 0, 62, 28
2, 14580, Note_on_c, 0, 62, 0
2, 14640, Note_on_c, 0, 71, 0
2, 14640, Note_on_c, 0, 69, 45
2, 14700, Note_on_c, 0, 66, 28
2, 14760, Note_on_c, 0, 66, 0
2, 14760, Note_on_c, 0, 61, 27
2, 14820, Note_on_c, 0, 61, 0
2, 14880, Note_on_c, 0, 69, 0
2, 14880, Note_on_c, 0, 68, 44
2, 14940, Note_on_c, 0, 65, 27
2, 15000, Note_on_c, 0, 65, 0
2, 15000, Note_on_c, 0, 59, 26
2, 15060, Note_on_c, 0, 59, 0
2, 15120, Note_on_c, 0, 68, 0
2, 15120, Note_on_c, 0, 66, 41
2, 15180, Note_on_c, 0, 62, 33
2, 15240, Note_on_c, 0, 57, 28
2, 15600, Note_on_c, 0, 62, 0
2, 15600, Note_on_c, 0, 61, 28
2, 16200, Note_on_c, 0, 61, 0
2, 16200, Note_on_c, 0, 57, 0
2, 16200, Note_on_c, 0, 66, 0
2, 16200, Note_on_c, 0, 56, 29
2, 16200, Note_on_c, 0, 60, 29
2, 16200, Note_on_c, 0, 65, 37
2, 16320, Note_on_c, 0, 65, 0
2, 16320, Note_on_c, 0, 56, 0
2, 16320, Note_on_c, 0, 54, 27
2, 16320, Note_on_c, 0, 63, 34
2, 16440, Note_on_c, 0, 63, 0
2, 16440, Note_on_c, 0, 54, 0
2, 16440, Note_on_c, 0, 60, 0
2, 16440, Note_on_c, 0, 54, 29
2, 16440, Note_on_c, 0, 60, 29
2, 16440, Note_on_c, 0, 63, 37
2, 16560, Note_on_c, 0, 63, 0
2, 16560, Note_on_c, 0, 60, 0
2, 16560, Note_on_c, 0, 54, 0
2, 16560, Note_on_c, 0, 53, 26
2, 16560, Note_on_c, 0, 61, 37
2, 16920, Note_on_c, 0, 61, 0
2, 16920, Note_on_c, 0, 53, 0
2, 16920, Note_on_c, 0, 73, 40
2, 16920, Note_on_c, 0, 65, 34
2, 17040, Note_on_c, 0, 65, 0
2, 17040, Note_on_c, 0, 73, 0
2, 17040, Note_on_c, 0, 66, 30
2, 17040, Note_on_c, 0, 72, 30
2, 17040, Note_on_c, 0, 75, 37
2, 17160, Note_on_c, 0, 75, 0
2, 17160, Note_on_c, 0, 72, 0
2, 17160, Note_on_c, 0, 66, 0
2, 17160, Note_on_c, 0, 75, 39
2, 17160, Note_on_c, 0, 72, 34
2, 17160, Note_on_c, 0, 66, 34
2, 17220, Note_on_c, 0, 66, 0
2, 17220, Note_on_c, 0, 72, 0
2, 17220, Note_on_c, 0, 75, 0
2, 17220, Note_on_c, 0, 65, 29
2, 17250, Note_on_c, 0, 77, 30
2, 17280, Note_on_c, 0, 80, 42
2, 17640, Note_on_c, 0, 80, 0
2, 17640, Note_on_c, 0, 77, 0
2, 17640, Note_on_c, 0, 65, 0
2, 17640, Note_on_c, 0, 77, 40
2, 17640, Note_on_c, 0, 73, 34
2, 17700, Note_on_c, 0, 73, 0
2, 17700, Note_on_c, 0, 77, 0
2, 17700, Note_on_c, 0, 66, 33
2, 17730, Note_on_c, 0, 78, 34
2, 17760, Note_on_c, 0, 82, 42
2, 17880, Note_on_c, 0, 82, 0
2, 17880, Note_on_c, 0, 66, 0
2, 17880, Note_on_c, 0, 72, 35
2, 17880, Note_on_c, 0, 75, 42
2, 17910, Note_on_c, 0, 78, 0
2, 17940, Note_on_c, 0, 75, 0
2, 17940, Note_on_c, 0, 72, 0
2, 17940, Note_on_c, 0, 65, 29
2, 17970, Note_on_c, 0, 77, 30
2, 18000, Note_on_c, 0, 80, 42
2, 18300, Note_on_c, 0, 80, 0
2, 18300, Note_on_c, 0, 77, 0
2, 18300, Note_on_c, 0, 65, 0
2, 18300, Note_on_c, 0, 61, 27
2, 18330, Note_on_c, 0, 73, 26
2, 18360, Note_on_c, 0, 77, 39
2, 18420, Note_on_c, 0, 61, 0
2, 18480, Note_on_c, 0, 77, 0
2, 18480, Note_on_c, 0, 73, 0
2, 18480, Note_on_c, 0, 72, 35
2, 18480, Note_on_c, 0, 68, 29
2, 18540, Note_on_c, 0, 68, 0
2, 18540, Note_on_c, 0, 72, 0
2, 18540, Note_on_c, 0, 58, 26
2, 18570, Note_on_c, 0, 70, 34
2, 18600, Note_on_c, 0, 73, 42
2, 18720, Note_on_c, 0, 73, 0
2, 18720, Note_on_c, 0, 70, 0
2, 18720, Note_on_c, 0, 58, 0
2, 18720, Note_on_c, 0, 65, 29
2, 18720, Note_on_c, 0, 68, 29
2, 19080, Note_on_c, 0, 68, 0
2, 19080, Note_on_c, 0, 65, 0
2, 19080, Note_on_c, 0, 66, 30
2, 19080, Note_on_c, 0, 63, 30
2, 19200, Note_on_c, 0, 63, 0
2, 19200, Note_on_c, 0, 66, 0
2, 19200, Note_on_c, 0, 66, 31
2, 19200, Note_on_c, 0, 63, 31
2, 19320, Note_on_c, 0, 58, 30
2, 19440, Note_on_c, 0, 58, 0
2, 19440, Note_on_c, 0, 63, 0
2, 19440, Note_on_c, 0, 66, 0
2, 19440, Note_on_c, 0, 65, 42
2, 19440, Note_on_c, 0, 68, 42
2, 19440, Note_on_c, 0, 59, 40
2, 19560, Note_on_c, 0, 58, 31
2, 19572, Note_on_c, 0, 59, 0
2, 19680, Note_on_c, 0, 65, 0
2, 19680, Note_on_c, 0, 68, 0
2, 19680, Note_on_c, 0, 63, 39
2, 19680, Note_on_c, 0, 66, 39
2, 19680, Note_on_c, 0, 57, 34
2, 19692, Note_on_c, 0, 58, 0
2, 19800, Note_on_c, 0, 58, 31
2, 19812, Note_on_c, 0, 57, 0
2, 19920, Note_on_c, 0, 63, 0
2, 19920, Note_on_c, 0, 66, 0
2, 19920, Note_on_c, 0, 59, 37
2, 19920, Note_on_c, 0, 66, 39
2, 19920, Note_on_c, 0, 63, 39
2, 19932, Note_on_c, 0, 58, 0
2, 20040, Note_on_c, 0, 60, 31
2, 20052, Note_on_c, 0, 59, 0
2, 20160, Note_on_c, 0, 63, 0
2, 20160, Note_on_c, 0, 66, 0
2, 20160, Note_on_c, 0, 60, 0
2, 20160, Note_on_c, 0, 63, 37
2, 20160, Note_on_c, 0, 66, 42
2, 20160, Note_on_c, 0, 56, 42
2, 20280, Note_on_c, 0, 61, 32
2, 20292, Note_on_c, 0, 63, 0
2, 20400, Note_on_c, 0, 66, 0
2, 20400, Note_on_c, 0, 56, 0
2, 20400, Note_on_c, 0, 65, 40
2, 20400, Note_on_c, 0, 56, 40
2, 20400, Note_on_c, 0, 60, 39
2, 20412, Note_on_c, 0, 61, 0
2, 20520, Note_on_c, 0, 61, 34
2, 20532, Note_on_c, 0, 60, 0
2, 20640, Note_on_c, 0, 65, 0
2, 20640, Note_on_c, 0, 56, 0
2, 20640, Note_on_c, 0, 65, 44
2, 20640, Note_on_c, 0, 53, 44
2, 20640, Note_on_c, 0, 60, 46
2, 20652, Note_on_c, 0, 61, 0
2, 20760, Note_on_c, 0, 58, 38
2, 20772, Note_on_c, 0, 60, 0
2, 20880, Note_on_c, 0, 65, 0
2, 20880, Note_on_c, 0, 53, 0
2, 20880, Note_on_c, 0, 58, 0
2, 20880, Note_on_c, 0, 57, 51
2, 20880, Note_on_c, 0, 65, 56
2, 20880, Note_on_c, 0, 53, 56
2, 21000, Note_on_c, 0, 58, 39
2, 21012, Note_on_c, 0, 57, 0
2, 21120, Note_on_c, 0, 65, 0
2, 21120, Note_on_c, 0, 53, 0
2, 21120, Note_on_c, 0, 61, 43
2, 21120, Note_on_c, 0, 51, 45
2, 21120, Note_on_c, 0, 63, 45
2, 21132, Note_on_c, 0, 58, 0
2, 21240, Note_on_c, 0, 60, 33
2, 21252, Note_on_c, 0, 61, 0
2, 21360, Note_on_c, 0, 63, 0
2, 21360, Note_on_c, 0, 51, 0
2, 21360, Note_on_c, 0, 64, 38
2, 21360, Note_on_c, 0, 52, 38
2, 21360, Note_on_c, 0, 58, 39
2, 21372, Note_on_c, 0, 60, 0
2, 21480, Note_on_c, 0, 60, 28
2, 21492, Note_on_c, 0, 58, 0
2, 21600, Note_on_c, 0, 64, 0
2, 21600, Note_on_c, 0, 52, 0
2, 21600, Note_on_c, 0, 60, 0
2, 21600, Note_on_c, 0, 65, 33
2, 21600, Note_on_c, 0, 53, 33
2, 21600, Note_on_c, 0, 58, 24
2, 21840, Note_on_c, 0, 58, 0
2, 21840, Note_on_c, 0, 57, 21
2, 21960, Note_on_c, 0, 57, 0
2, 21960, Note_on_c, 0, 53, 0
2, 21960, Note_on_c, 0, 65, 0
2, 21960, Note_on_c, 0, 56, 29
2, 21960, Note_on_c, 0, 60, 29
2, 21960, Note_on_c, 0, 65, 37
2, 22080, Note_on_c, 0, 65, 0
2, 22080, Note_on_c, 0, 56, 0
2, 22080, Note_on_c, 0, 54, 27
2, 22080, Note_on_c, 0, 63, 34
2, 22200, Note_on_c, 0, 63, 0
2, 22200, Note_on_c, 0, 54, 0
2, 22200, Note_on_c, 0, 60, 0
2, 22200, Note_on_c, 0, 54, 29
2, 22200, Note_on_c, 0, 60, 29
2, 22200, Note_on_c, 0, 63, 37
2, 22320, Note_on_c, 0, 63, 0
2, 22320, Note_on_c, 0, 60, 0
2, 22320, Note_on_c, 0, 54, 0
2, 22320, Note_on_c, 0, 53, 26
2, 22320, Note_on_c, 0, 61, 37
2, 22680, Note_on_c, 0, 61, 0
2, 22680, Note_on_c, 0, 53, 0
2, 22680, Note_on_c, 0, 73, 38
2, 22680, Note_on_c, 0, 65, 32
2, 22800, Note_on_c, 0, 65, 0
2, 22800, Note_on_c, 0, 73, 0
2, 22800, Note_on_c, 0, 66, 28
2, 22800, Note_on_c, 0, 72, 28
2, 22800, Note_on_c, 0, 75, 35
2, 22920, Note_on_c, 0, 75, 0
2, 22920, Note_on_c, 0, 72, 0
2, 22920, Note_on_c, 0, 66, 0
2, 22920, Note_on_c, 0, 75, 37
2, 22920, Note_on_c, 0, 72, 32
2, 22920, Note_on_c, 0, 66, 32
2, 22980, Note_on_c, 0, 66, 0
2, 22980, Note_on_c, 0, 72, 0
2, 22980, Note_on_c, 0, 75, 0
2, 22980, Note_on_c, 0, 65, 27
2, 23010, Note_on_c, 0, 77, 28
2, 23040, Note_on_c, 0, 80, 39
2, 23400, Note_on_c, 0, 80, 0
2, 23400, Note_on_c, 0, 77, 0
2, 23400, Note_on_c, 0, 65, 0
2, 23400, Note_on_c, 0, 77, 40
2, 23400, Note_on_c, 0, 73, 34
2, 23460, Note_on_c, 0, 73, 0
2, 23460, Note_on_c, 0, 77, 0
2, 23460, Note_on_c, 0, 66, 37
2, 23490, Note_on_c, 0, 78, 41
2, 23520, Note_on_c, 0, 82, 46
2, 23640, Note_on_c, 0, 82, 0
2, 23640, Note_on_c, 0, 66, 0
2, 23640, Note_on_c, 0, 71, 35
2, 23640, Note_on_c, 0, 75, 42
2, 23670, Note_on_c, 0, 78, 0
2, 23700, Note_on_c, 0, 75, 0
2, 23700, Note_on_c, 0, 71, 0
2, 23700, Note_on_c, 0, 65, 29
2, 23730, Note_on_c, 0, 77, 30
2, 23760, Note_on_c, 0, 80, 42
2, 24060, Note_on_c, 0, 80, 0
2, 24060, Note_on_c, 0, 77, 0
2, 24060, Note_on_c, 0, 65, 0
2, 24060, Note_on_c, 0, 61, 30
2, 24090, Note_on_c, 0, 73, 33
2, 24120, Note_on_c, 0, 77, 39
2, 24180, Note_on_c, 0, 61, 0
2, 24240, Note_on_c, 0, 77, 0
2, 24240, Note_on_c, 0, 73, 0
2, 24240, Note_on_c, 0, 71, 35
2, 24240, Note_on_c, 0, 68, 29
2, 24300, Note_on_c, 0, 68, 0
2, 24300, Note_on_c, 0, 71, 0
2, 24300, Note_on_c, 0, 58, 19
2, 24330, Note_on_c, 0, 70, 30
2, 24360, Note_on_c, 0, 73, 38
2, 24480, Note_on_c, 0, 73, 0
2, 24480, Note_on_c, 0, 70, 0
2, 24480, Note_on_c, 0, 58, 0
2, 24480, Note_on_c, 0, 65, 31
2, 24480, Note_on_c, 0, 69, 40
2, 24840, Note_on_c, 0, 69, 0
2, 24840, Note_on_c, 0, 65, 0
2, 24840, Note_on_c, 0, 70, 37
2, 24840, Note_on_c, 0, 66, 37
2, 24960, Note_on_c, 0, 66, 0
2, 24960, Note_on_c, 0, 70, 0
2, 24960, Note_on_c, 0, 70, 37
2, 24960, Note_on_c, 0, 66, 37
2, 25080, Note_on_c, 0, 61, 29
2, 25200, Note_on_c, 0, 61, 0
2, 25200, Note_on_c, 0, 66, 0
2, 25200, Note_on_c, 0, 70, 0
2, 25200, Note_on_c, 0, 66, 40
2, 25200, Note_on_c, 0, 69, 40
2, 25200, Note_on_c, 0, 62, 39
2, 25320, Note_on_c, 0, 61, 29
2, 25332, Note_on_c, 0, 62, 0
2, 25440, Note_on_c, 0, 66, 0
2, 25440, Note_on_c, 0, 69, 0
2, 25440, Note_on_c, 0, 66, 37
2, 25440, Note_on_c, 0, 70, 37
2, 25440, Note_on_c, 0, 60, 33
2, 25452, Note_on_c, 0, 61, 0
2, 25560, Note_on_c, 0, 61, 29
2, 25572, Note_on_c, 0, 60, 0
2, 25680, Note_on_c, 0, 66, 0
2, 25680, Note_on_c, 0, 70, 0
2, 25680, Note_on_c, 0, 62, 36
2, 25680, Note_on_c, 0, 70, 38
2, 25680, Note_on_c, 0, 66, 38
2, 25692, Note_on_c, 0, 61, 0
2, 25800, Note_on_c, 0, 61, 30
2, 25812, Note_on_c, 0, 62, 0
2, 25920, Note_on_c, 0, 66, 0
2, 25920, Note_on_c, 0, 70, 0
2, 25920, Note_on_c, 0, 61, 0
2, 25920, Note_on_c, 0, 63, 37
2, 25920, Note_on_c, 0, 71, 48
2, 25920, Note_on_c, 0, 68, 44
2, 26040, Note_on_c, 0, 61, 33
2, 26052, Note_on_c, 0, 63, 0
2, 26160, Note_on_c, 0, 71, 0
2, 26160, Note_on_c, 0, 68, 0
2, 26160, Note_on_c, 0, 70, 42
2, 26160, Note_on_c, 0, 66, 42
2, 26160, Note_on_c, 0, 60, 40
2, 26172, Note_on_c, 0, 61, 0
2, 26280, Note_on_c, 0, 61, 36
2, 26292, Note_on_c, 0, 60, 0
2, 26400, Note_on_c, 0, 70, 0
2, 26400, Note_on_c, 0, 66, 0
2, 26400, Note_on_c, 0, 67, 47
2, 26400, Note_on_c, 0, 55, 47
2, 26400, Note_on_c, 0, 63, 49
2, 26412, Note_on_c, 0, 61, 0
2, 26520, Note_on_c, 0, 61, 40
2, 26532, Note_on_c, 0, 63, 0
2, 26640, Note_on_c, 0, 67, 0
2, 26640, Note_on_c, 0, 55, 0
2, 26640, Note_on_c, 0, 61, 0
2, 26640, Note_on_c, 0, 65, 56
2, 26640, Note_on_c, 0, 68, 62
2, 26640, Note_on_c, 0, 56, 62
2, 26760, Note_on_c, 0, 65, 0
2, 26760, Note_on_c, 0, 61, 41
2, 26880, Note_on_c, 0, 56, 0
2, 26880, Note_on_c, 0, 68, 0
2, 26880, Note_on_c, 0, 60, 45
2, 26880, Note_on_c, 0, 54, 47
2, 26880, Note_on_c, 0, 66, 47
2, 26892, Note_on_c, 0, 61, 0
2, 27000, Note_on_c, 0, 60, 0
2, 27000, Note_on_c, 0, 58, 34
2, 27120, Note_on_c, 0, 56, 38
2, 27132, Note_on_c, 0, 58, 0
2, 27240, Note_on_c, 0, 60, 30
2, 27252, Note_on_c, 0, 56, 0
2, 27360, Note_on_c, 0, 66, 0
2, 27360, Note_on_c, 0, 54, 0
2, 27360, Note_on_c, 0, 60, 0
2, 27360, Note_on_c, 0, 65, 32
2, 27360, Note_on_c, 0, 53, 32
2, 27360, Note_on_c, 0, 63, 23
2, 27600, Note_on_c, 0, 63, 0
2, 27600, Note_on_c, 0, 61, 20
2, 27720, Note_on_c, 0, 61, 0
2, 27780, Note_on_c, 0, 53, 0
2, 27780, Note_on_c, 0, 65, 0
2, 27780, Note_on_c, 0, 73, 25
2, 27780, Note_on_c, 0, 61, 21
2, 27840, Note_on_c, 0, 61, 0
2, 27840, Note_on_c, 0, 73, 0
2, 27840, Note_on_c, 0, 72, 29
2, 27840, Note_on_c, 0, 60, 24
2, 27900, Note_on_c, 0, 60, 0
2, 27900, Note_on_c, 0, 72, 0
2, 28020, Note_on_c, 0, 72, 28
2, 28020, Note_on_c, 0, 60, 23
2, 28080, Note_on_c, 0, 60, 0
2, 28080, Note_on_c, 0, 72, 0
2, 28080, Note_on_c, 0, 58, 12
2, 28080, Note_on_c, 0, 70, 15
2, 28320, Note_on_c, 0, 70, 0
2, 28320, Note_on_c, 0, 58, 0
2, 28320, Note_on_c, 0, 65, 31
2, 28560, Note_on_c, 0, 65, 0
2, 28740, Note_on_c, 0, 77, 27
2, 28800, Note_on_c, 0, 76, 34
2, 28810, Note_on_c, 0, 77, 0
2, 28860, Note_on_c, 0, 76, 0
2, 28860, Note_on_c, 0, 73, 28
2, 28920, Note_on_c, 0, 73, 0
2, 28920, Note_on_c, 0, 64, 29
2, 28980, Note_on_c, 0, 64, 0
2, 28980, Note_on_c, 0, 76, 24
2, 29040, Note_on_c, 0, 75, 31
2, 29050, Note_on_c, 0, 76, 0
2, 29100, Note_on_c, 0, 75, 0
2, 29100, Note_on_c, 0, 73, 25
2, 29160, Note_on_c, 0, 73, 0
2, 29160, Note_on_c, 0, 63, 25
2, 29220, Note_on_c, 0, 63, 0
2, 29460, Note_on_c, 0, 80, 27
2, 29520, Note_on_c, 0, 78, 34
2, 29530, Note_on_c, 0, 80, 0
2, 29580, Note_on_c, 0, 78, 0
2, 29580, Note_on_c, 0, 75, 28
2, 29640, Note_on_c, 0, 75, 0
2, 29640, Note_on_c, 0, 66, 29
2, 29700, Note_on_c, 0, 66, 0
2, 29700, Note_on_c, 0, 78, 24
2, 29760, Note_on_c, 0, 77, 31
2, 29770, Note_on_c, 0, 78, 0
2, 29820, Note_on_c, 0, 77, 0
2, 29820, Note_on_c, 0, 75, 25
2, 29880, Note_on_c, 0, 75, 0
2, 29880, Note_on_c, 0, 65, 25
2, 29940, Note_on_c, 0, 65, 0
2, 30180, Note_on_c, 0, 82, 27
2, 30240, Note_on_c, 0, 80, 34
2, 30250, Note_on_c, 0, 82, 0
2, 30300, Note_on_c, 0, 80, 0
2, 30300, Note_on_c, 0, 77, 28
2, 30360, Note_on_c, 0, 77, 0
2, 30360, Note_on_c, 0, 68, 30
2, 30420, Note_on_c, 0, 68, 0
2, 30540, Note_on_c, 0, 82, 37
2, 30600, Note_on_c, 0, 80, 45
2, 30610, Note_on_c, 0, 82, 0
2, 30660, Note_on_c, 0, 80, 0
2, 30660, Note_on_c, 0, 77, 41
2, 30720, Note_on_c, 0, 77, 0
2, 30720, Note_on_c, 0, 68, 51
2, 30780, Note_on_c, 0, 68, 0
2, 30900, Note_on_c, 0, 82, 49
2, 30960, Note_on_c, 0, 80, 43
2, 30966, Note_on_c, 0, 82, 0
2, 31020, Note_on_c, 0, 80, 0
2, 31020, Note_on_c, 0, 77, 32
2, 31080, Note_on_c, 0, 77, 0
2, 31080, Note_on_c, 0, 71, 28
2, 31140, Note_on_c, 0, 70, 31
2, 31146, Note_on_c, 0, 71, 0
2, 31200, Note_on_c, 0, 68, 36
2, 31206, Note_on_c, 0, 70, 0
2, 31260, Note_on_c, 0, 68, 0
2, 31260, Note_on_c, 0, 65, 29
2, 31320, Note_on_c, 0, 65, 0
2, 31320, Note_on_c, 0, 59, 27
2, 31386, Note_on_c, 0, 59, 0
2, 32100, Note_on_c, 0, 60, 32
2, 32160, Note_on_c, 0, 61, 36
2, 32166, Note_on_c, 0, 60, 0
2, 32220, Note_on_c, 0, 61, 0
2, 32220, Note_on_c, 0, 68, 32
2, 32280, Note_on_c, 0, 68, 0
2, 32280, Note_on_c, 0, 71, 26
2, 32340, Note_on_c, 0, 71, 0
2, 32340, Note_on_c, 0, 80, 34
2, 32400, Note_on_c, 0, 79, 34
2, 32406, Note_on_c, 0, 80, 0
2, 32460, Note_on_c, 0, 79, 0
2, 32460, Note_on_c, 0, 76, 30
2, 32520, Note_on_c, 0, 76, 0
2, 32520, Note_on_c, 0, 70, 27
2, 32580, Note_on_c, 0, 68, 28
2, 32586, Note_on_c, 0, 70, 0
2, 32640, Note_on_c, 0, 67, 33
2, 32646, Note_on_c, 0, 68, 0
2, 32700, Note_on_c, 0, 67, 0
2, 32700, Note_on_c, 0, 64, 27
2, 32760, Note_on_c, 0, 64, 0
2, 32760, Note_on_c, 0, 58, 24
2, 32826, Note_on_c, 0, 58, 0
2, 33540, Note_on_c, 0, 59, 25
2, 33600, Note_on_c, 0, 60, 28
2, 33606, Note_on_c, 0, 59, 0
2, 33660, Note_on_c, 0, 60, 0
2, 33660, Note_on_c, 0, 67, 24
2, 33720, Note_on_c, 0, 67, 0
2, 33720, Note_on_c, 0, 76, 27
2, 33720, Note_on_c, 0, 79, 27
2, 33720, Note_on_c, 0, 82, 27
2, 33720, Note_on_c, 0, 85, 34
2, 33720, Note_on_c, 0, 70, 20
2, 33780, Note_on_c, 0, 70, 0
2, 33840, Note_on_c, 0, 85, 0
2, 33840, Note_on_c, 0, 84, 33
2, 33960, Note_on_c, 0, 84, 0
2, 33960, Note_on_c, 0, 82, 0
2, 33960, Note_on_c, 0, 79, 0
2, 33960, Note_on_c, 0, 76, 0
2, 33960, Note_on_c, 0, 67, 20
2, 33960, Note_on_c, 0, 64, 20
2, 33960, Note_on_c, 0, 59, 26
2, 34080, Note_on_c, 0, 59, 0
2, 34080, Note_on_c, 0, 60, 24
2, 34200, Note_on_c, 0, 60, 0
2, 34200, Note_on_c, 0, 64, 0
2, 34200, Note_on_c, 0, 67, 0
2, 34200, Note_on_c, 0, 63, 22
2, 34200, Note_on_c, 0, 66, 22
2, 34200, Note_on_c, 0, 70, 22
2, 34200, Note_on_c, 0, 73, 28
2, 34320, Note_on_c, 0, 73, 0
2, 34320, Note_on_c, 0, 72, 27
2, 34440, Note_on_c, 0, 72, 0
2, 34440, Note_on_c, 0, 70, 0
2, 34440, Note_on_c, 0, 66, 0
2, 34440, Note_on_c, 0, 63, 0
2, 34680, Note_on_c, 0, 51, 17
2, 34680, Note_on_c, 0, 53, 17
2, 34680, Note_on_c, 0, 57, 17
2, 34680, Note_on_c, 0, 61, 22
2, 34800, Note_on_c, 0, 61, 0
2, 34800, Note_on_c, 0, 60, 21
2, 35280, Note_on_c, 0, 60, 0
2, 35280, Note_on_c, 0, 57, 0
2, 35280, Note_on_c, 0, 53, 0
2, 35280, Note_on_c, 0, 51, 0
2, 35400, Note_on_c, 0, 85, 25
2, 35460, Note_on_c, 0, 85, 0
2, 35460, Note_on_c, 0, 75, 19
2, 35520, Note_on_c, 0, 75, 0
2, 35520, Note_on_c, 0, 84, 25
2, 35580, Note_on_c, 0, 84, 0
2, 35580, Note_on_c, 0, 78, 19
2, 35640, Note_on_c, 0, 78, 0
2, 35640, Note_on_c, 0, 82, 25
2, 35700, Note_on_c, 0, 82, 0
2, 35700, Note_on_c, 0, 72, 19
2, 35760, Note_on_c, 0, 72, 0
2, 35760, Note_on_c, 0, 81, 25
2, 35820, Note_on_c, 0, 81, 0
2, 35820, Note_on_c, 0, 75, 19
2, 35880, Note_on_c, 0, 75, 0
2, 35880, Note_on_c, 0, 80, 24
2, 35940, Note_on_c, 0, 80, 0
2, 35940, Note_on_c, 0, 69, 19
2, 36000, Note_on_c, 0, 69, 0
2, 36000, Note_on_c, 0, 78, 25
2, 36060, Note_on_c, 0, 78, 0
2, 36060, Note_on_c, 0, 72, 19
2, 36120, Note_on_c, 0, 72, 0
2, 36120, Note_on_c, 0, 77, 25
2, 36180, Note_on_c, 0, 77, 0
2, 36180, Note_on_c, 0, 66, 19
2, 36240, Note_on_c, 0, 66, 0
2, 36240, Note_on_c, 0, 75, 25
2, 36300, Note_on_c, 0, 75, 0
2, 36300, Note_on_c, 0, 69, 19
2, 36360, Note_on_c, 0, 69, 0
2, 36600, Note_on_c, 0, 73, 24
2, 36660, Note_on_c, 0, 73, 0
2, 36660, Note_on_c, 0, 63, 19
2, 36720, Note_on_c, 0, 63, 0
2, 36720, Note_on_c, 0, 72, 25
2, 36780, Note_on_c, 0, 72, 0
2, 36780, Note_on_c, 0, 66, 19
2, 36840, Note_on_c, 0, 66, 0
2, 37080, Note_on_c, 0, 73, 22
2, 37140, Note_on_c, 0, 73, 0
2, 37140, Note_on_c, 0, 65, 19
2, 37200, Note_on_c, 0, 65, 0
2, 37200, Note_on_c, 0, 71, 25
2, 37260, Note_on_c, 0, 71, 0
2, 37260, Note_on_c, 0, 68, 19
2, 37320, Note_on_c, 0, 68, 0
2, 37320, Note_on_c, 0, 59, 25
2, 37380, Note_on_c, 0, 59, 0
2, 37380, Note_on_c, 0, 71, 34
2, 37440, Note_on_c, 0, 71, 0
2, 37440, Note_on_c, 0, 70, 41
2, 37500, Note_on_c, 0, 68, 27
2, 37560, Note_on_c, 0, 68, 0
2, 37560, Note_on_c, 0, 70, 0
2, 37560, Note_on_c, 0, 58, 27
2, 37620, Note_on_c, 0, 58, 0
2, 37860, Note_on_c, 0, 70, 38
2, 37920, Note_on_c, 0, 71, 42
2, 37930, Note_on_c, 0, 70, 0
2, 37980, Note_on_c, 0, 71, 0
2, 37980, Note_on_c, 0, 68, 27
2, 38040, Note_on_c, 0, 68, 0
2, 38040, Note_on_c, 0, 59, 26
2, 38100, Note_on_c, 0, 59, 0
2, 38100, Note_on_c, 0, 71, 34
2, 38160, Note_on_c, 0, 71, 0
2, 38160, Note_on_c, 0, 77, 41
2, 38220, Note_on_c, 0, 77, 0
2, 38220, Note_on_c, 0, 68, 27
2, 38280, Note_on_c, 0, 68, 0
2, 38280, Note_on_c, 0, 65, 27
2, 38340, Note_on_c, 0, 65, 0
2, 38580, Note_on_c, 0, 77, 43
2, 38640, Note_on_c, 0, 80, 53
2, 38650, Note_on_c, 0, 77, 0
2, 38700, Note_on_c, 0, 80, 0
2, 38700, Note_on_c, 0, 74, 32
2, 38760, Note_on_c, 0, 74, 0
2, 38760, Note_on_c, 0, 68, 42
2, 38820, Note_on_c, 0, 68, 0
2, 38820, Note_on_c, 0, 80, 47
2, 38880, Note_on_c, 0, 80, 0
2, 38880, Note_on_c, 0, 78, 58
2, 38940, Note_on_c, 0, 78, 0
2, 38940, Note_on_c, 0, 75, 32
2, 39000, Note_on_c, 0, 75, 0
2, 39000, Note_on_c, 0, 66, 32
2, 39060, Note_on_c, 0, 66, 0
2, 39300, Note_on_c, 0, 73, 45
2, 39360, Note_on_c, 0, 78, 50
2, 39370, Note_on_c, 0, 73, 0
2, 39420, Note_on_c, 0, 78, 0
2, 39420, Note_on_c, 0, 72, 32
2, 39480, Note_on_c, 0, 72, 0
2, 39480, Note_on_c, 0, 66, 31
2, 39540, Note_on_c, 0, 66, 0
2, 39540, Note_on_c, 0, 78, 41
2, 39600, Note_on_c, 0, 78, 0
2, 39600, Note_on_c, 0, 77, 49
2, 39660, Note_on_c, 0, 77, 0
2, 39660, Note_on_c, 0, 72, 32
2, 39720, Note_on_c, 0, 72, 0
2, 39720, Note_on_c, 0, 65, 32
2, 39780, Note_on_c, 0, 65, 0
2, 40020, Note_on_c, 0, 72, 41
2, 40080, Note_on_c, 0, 72, 0
2, 40080, Note_on_c, 0, 77, 49
2, 40140, Note_on_c, 0, 77, 0
2, 40140, Note_on_c, 0, 70, 32
2, 40200, Note_on_c, 0, 70, 0
2, 40200, Note_on_c, 0, 65, 32
2, 40260, Note_on_c, 0, 65, 0
2, 40260, Note_on_c, 0, 77, 41
2, 40320, Note_on_c, 0, 77, 0
2, 40320, Note_on_c, 0, 75, 49
2, 40380, Note_on_c, 0, 75, 0
2, 40380, Note_on_c, 0, 70, 32
2, 40440, Note_on_c, 0, 70, 0
2, 40440, Note_on_c, 0, 63, 32
2, 40500, Note_on_c, 0, 63, 0
2, 40500, Note_on_c, 0, 73, 41
2, 40560, Note_on_c, 0, 73, 0
2, 40560, Note_on_c, 0, 72, 49
2, 40620, Note_on_c, 0, 72, 0
2, 40620, Note_on_c, 0, 66, 32
2, 40680, Note_on_c, 0, 66, 0
2, 40680, Note_on_c, 0, 60, 32
2, 40740, Note_on_c, 0, 60, 0
2, 40980, Note_on_c, 0, 77, 45
2, 41040, Note_on_c, 0, 75, 50
2, 41050, Note_on_c, 0, 77, 0
2, 41100, Note_on_c, 0, 75, 0
2, 41100, Note_on_c, 0, 69, 32
2, 41160, Note_on_c, 0, 69, 0
2, 41160, Note_on_c, 0, 63, 31
2, 41220, Note_on_c, 0, 63, 0
2, 41220, Note_on_c, 0, 73, 41
2, 41280, Note_on_c, 0, 73, 0
2, 41280, Note_on_c, 0, 72, 49
2, 41340, Note_on_c, 0, 72, 0
2, 41340, Note_on_c, 0, 69, 32
2, 41400, Note_on_c, 0, 69, 0
2, 41400, Note_on_c, 0, 63, 32
2, 41460, Note_on_c, 0, 63, 0
2, 41700, Note_on_c, 0, 78, 45
2, 41760, Note_on_c, 0, 78, 0
2, 41760, Note_on_c, 0, 77, 50
2, 41820, Note_on_c, 0, 72, 31
2, 41880, Note_on_c, 0, 72, 0
2, 41880, Note_on_c, 0, 69, 30
2, 41940, Note_on_c, 0, 69, 0
2, 41940, Note_on_c, 0, 65, 28
2, 42000, Note_on_c, 0, 65, 0
2, 42000, Note_on_c, 0, 77, 0
2, 42000, Note_on_c, 0, 76, 47
2, 42060, Note_on_c, 0, 72, 30
2, 42120, Note_on_c, 0, 72, 0
2, 42120, Note_on_c, 0, 69, 28
2, 42180, Note_on_c, 0, 69, 0
2, 42180, Note_on_c, 0, 65, 26
2, 42240, Note_on_c, 0, 65, 0
2, 42240, Note_on_c, 0, 76, 0
2, 42240, Note_on_c, 0, 75, 45
2, 42300, Note_on_c, 0, 72, 28
2, 42360, Note_on_c, 0, 72, 0
2, 42360, Note_on_c, 0, 69, 27
2, 42420, Note_on_c, 0, 69, 0
2, 42420, Note_on_c, 0, 65, 25
2, 42480, Note_on_c, 0, 65, 0
2, 42480, Note_on_c, 0, 75, 0
2, 42480, Note_on_c, 0, 73, 41
2, 42540, Note_on_c, 0, 69, 33
2, 42600, Note_on_c, 0, 66, 28
2, 42660, Note_on_c, 0, 61, 22
2, 42720, Note_on_c, 0, 61, 0
2, 43260, Note_on_c, 0, 85, 32
2, 43320, Note_on_c, 0, 85, 0
2, 43320, Note_on_c, 0, 83, 29
2, 43380, Note_on_c, 0, 83, 0
2, 43380, Note_on_c, 0, 81, 28
2, 43440, Note_on_c, 0, 81, 0
2, 43440, Note_on_c, 0, 66, 0
2, 43440, Note_on_c, 0, 69, 0
2, 43440, Note_on_c, 0, 73, 0
2, 43440, Note_on_c, 0, 80, 31
2, 43500, Note_on_c, 0, 80, 0
2, 43500, Note_on_c, 0, 78, 28
2, 43560, Note_on_c, 0, 78, 0
2, 43560, Note_on_c, 0, 75, 28
2, 43620, Note_on_c, 0, 75, 0
2, 43620, Note_on_c, 0, 73, 28
2, 43680, Note_on_c, 0, 73, 0
2, 43680, Note_on_c, 0, 72, 35
2, 43740, Note_on_c, 0, 72, 0
2, 43740, Note_on_c, 0, 66, 27
2, 43800, Note_on_c, 0, 66, 0
2, 43800, Note_on_c, 0, 60, 26
2, 43860, Note_on_c, 0, 60, 0
2, 43860, Note_on_c, 0, 72, 34
2, 43920, Note_on_c, 0, 72, 0
2, 43920, Note_on_c, 0, 70, 41
2, 43980, Note_on_c, 0, 65, 27
2, 44040, Note_on_c, 0, 65, 0
2, 44040, Note_on_c, 0, 58, 27
2, 44100, Note_on_c, 0, 58, 0
2, 44160, Note_on_c, 0, 70, 0
2, 44340, Note_on_c, 0, 70, 40
2, 44400, Note_on_c, 0, 70, 0
2, 44400, Note_on_c, 0, 73, 47
2, 44460, Note_on_c, 0, 73, 0
2, 44460, Note_on_c, 0, 66, 32
2, 44520, Note_on_c, 0, 66, 0
2, 44520, Note_on_c, 0, 58, 31
2, 44580, Note_on_c, 0, 58, 0
2, 44580, Note_on_c, 0, 73, 45
2, 44640, Note_on_c, 0, 73, 0
2, 44640, Note_on_c, 0, 78, 58
2, 44700, Note_on_c, 0, 78, 0
2, 44700, Note_on_c, 0, 71, 32
2, 44760, Note_on_c, 0, 71, 0
2, 44760, Note_on_c, 0, 66, 32
2, 44820, Note_on_c, 0, 66, 0
2, 45060, Note_on_c, 0, 75, 47
2, 45120, Note_on_c, 0, 75, 0
2, 45120, Note_on_c, 0, 73, 56
2, 45180, Note_on_c, 0, 73, 0
2, 45180, Note_on_c, 0, 67, 33
2, 45240, Note_on_c, 0, 67, 0
2, 45240, Note_on_c, 0, 58, 43
2, 45300, Note_on_c, 0, 58, 0
2, 45300, Note_on_c, 0, 70, 49
2, 45360, Note_on_c, 0, 70, 0
2, 45360, Note_on_c, 0, 71, 60
2, 45420, Note_on_c, 0, 71, 0
2, 45420, Note_on_c, 0, 66, 32
2, 45480, Note_on_c, 0, 66, 0
2, 45480, Note_on_c, 0, 59, 32
2, 45540, Note_on_c, 0, 59, 0
2, 45780, Note_on_c, 0, 71, 51
2, 45840, Note_on_c, 0, 71, 0
2, 45840, Note_on_c, 0, 72, 47
2, 45840, Note_on_c, 0, 75, 57
2, 45900, Note_on_c, 0, 75, 0
2, 45900, Note_on_c, 0, 72, 0
2, 45900, Note_on_c, 0, 68, 36
2, 45960, Note_on_c, 0, 68, 0
2, 45960, Note_on_c, 0, 60, 36
2, 46020, Note_on_c, 0, 60, 0
2, 46020, Note_on_c, 0, 75, 50
2, 46080, Note_on_c, 0, 75, 0
2, 46080, Note_on_c, 0, 80, 62
2, 46140, Note_on_c, 0, 80, 0
2, 46140, Note_on_c, 0, 73, 35
2, 46200, Note_on_c, 0, 73, 0
2, 46200, Note_on_c, 0, 68, 35
2, 46260, Note_on_c, 0, 68, 0
2, 46500, Note_on_c, 0, 73, 49
2, 46560, Note_on_c, 0, 73, 0
2, 46560, Note_on_c, 0, 80, 58
2, 46620, Note_on_c, 0, 80, 0
2, 46620, Note_on_c, 0, 73, 38
2, 46680, Note_on_c, 0, 73, 0
2, 46680, Note_on_c, 0, 68, 39
2, 46740, Note_on_c, 0, 68, 0
2, 46740, Note_on_c, 0, 80, 51
2, 46800, Note_on_c, 0, 80, 0
2, 46800, Note_on_c, 0, 85, 70
2, 46860, Note_on_c, 0, 85, 0
2, 46860, Note_on_c, 0, 79, 38
2, 46920, Note_on_c, 0, 79, 0
2, 46920, Note_on_c, 0, 73, 38
2, 46980, Note_on_c, 0, 73, 0
2, 47220, Note_on_c, 0, 73, 53
2, 47280, Note_on_c, 0, 73, 0
2, 47280, Note_on_c, 0, 78, 61
2, 47340, Note_on_c, 0, 78, 0
2, 47340, Note_on_c, 0, 72, 42
2, 47400, Note_on_c, 0, 72, 0
2, 47400, Note_on_c, 0, 66, 42
2, 47460, Note_on_c, 0, 66, 0
2, 47460, Note_on_c, 0, 78, 56
2, 47520, Note_on_c, 0, 78, 0
2, 47520, Note_on_c, 0, 83, 66
2, 47580, Note_on_c, 0, 83, 0
2, 47580, Note_on_c, 0, 77, 41
2, 47640, Note_on_c, 0, 77, 0
2, 47640, Note_on_c, 0, 71, 41
2, 47700, Note_on_c, 0, 71, 0
2, 47940, Note_on_c, 0, 71, 53
2, 48000, Note_on_c, 0, 71, 0
2, 48000, Note_on_c, 0, 76, 66
2, 48060, Note_on_c, 0, 76, 0
2, 48060, Note_on_c, 0, 70, 44
2, 48120, Note_on_c, 0, 70, 0
2, 48120, Note_on_c, 0, 64, 45
2, 48180, Note_on_c, 0, 64, 0
2, 48180, Note_on_c, 0, 76, 49
2, 48240, Note_on_c, 0, 76, 0
2, 48240, Note_on_c, 0, 81, 69
2, 48300, Note_on_c, 0, 75, 47
2, 48360, Note_on_c, 0, 75, 0
2, 48360, Note_on_c, 0, 69, 46
2, 48420, Note_on_c, 0, 69, 0
2, 48480, Note_on_c, 0, 81, 0
2, 48480, Note_on_c, 0, 78, 69
2, 48540, Note_on_c, 0, 75, 47
2, 48600, Note_on_c, 0, 75, 0
2, 48600, Note_on_c, 0, 69, 46
2, 48660, Note_on_c, 0, 69, 0
2, 48720, Note_on_c, 0, 78, 0
2, 48720, Note_on_c, 0, 75, 69
2, 48780, Note_on_c, 0, 69, 47
2, 48840, Note_on_c, 0, 69, 0
2, 48840, Note_on_c, 0, 66, 46
2, 48900, Note_on_c, 0, 66, 0
2, 48960, Note_on_c, 0, 75, 0
2, 48960, Note_on_c, 0, 69, 69
2, 49020, Note_on_c, 0, 63, 43
2, 49080, Note_on_c, 0, 63, 0
2, 49080, Note_on_c, 0, 57, 42
2, 49140, Note_on_c, 0, 57, 0
2, 49200, Note_on_c, 0, 69, 0
2, 49200, Note_on_c, 0, 68, 66
2, 49260, Note_on_c, 0, 63, 43
2, 49320, Note_on_c, 0, 63, 0
2, 49320, Note_on_c, 0, 57, 42
2, 49380, Note_on_c, 0, 57, 0
2, 49440, Note_on_c, 0, 68, 0
2, 49440, Note_on_c, 0, 66, 66
2, 49500, Note_on_c, 0, 63, 43
2, 49560, Note_on_c, 0, 63, 0
2, 49560, Note_on_c, 0, 57, 42
2, 49620, Note_on_c, 0, 57, 0
2, 49650, Note_on_c, 0, 57, 36
2, 49650, Note_on_c, 0, 63, 36
2, 49650, Note_on_c, 0, 65, 42
2, 49680, Note_on_c, 0, 65, 0
2, 49680, Note_on_c, 0, 66, 0
2, 49680, Note_on_c, 0, 57, 0
2, 49680, Note_on_c, 0, 63, 0
2, 49680, Note_on_c, 0, 87, 76
2, 49740, Note_on_c, 0, 81, 47
2, 49800, Note_on_c, 0, 81, 0
2, 49800, Note_on_c, 0, 75, 46
2, 49860, Note_on_c, 0, 75, 0
2, 49920, Note_on_c, 0, 87, 0
2, 49920, Note_on_c, 0, 81, 69
2, 49980, Note_on_c, 0, 75, 47
2, 50040, Note_on_c, 0, 75, 0
2, 50040, Note_on_c, 0, 69, 46
2, 50100, Note_on_c, 0, 69, 0
2, 50160, Note_on_c, 0, 81, 0
2, 50160, Note_on_c, 0, 75, 70
2, 50220, Note_on_c, 0, 69, 47
2, 50280, Note_on_c, 0, 69, 0
2, 50280, Note_on_c, 0, 63, 46
2, 50340, Note_on_c, 0, 63, 0
2, 50400, Note_on_c, 0, 75, 0
2, 50400, Note_on_c, 0, 69, 65
2, 50460, Note_on_c, 0, 63, 40
2, 50520, Note_on_c, 0, 63, 0
2, 50520, Note_on_c, 0, 57, 39
2, 50580, Note_on_c, 0, 57, 0
2, 50640, Note_on_c, 0, 69, 0
2, 50640, Note_on_c, 0, 68, 63
2, 50700, Note_on_c, 0, 63, 39
2, 50760, Note_on_c, 0, 63, 0
2, 50760, Note_on_c, 0, 57, 37
2, 50820, Note_on_c, 0, 57, 0
2, 50880, Note_on_c, 0, 68, 0
2, 50880, Note_on_c, 0, 66, 61
2, 50940, Note_on_c, 0, 63, 37
2, 51000, Note_on_c, 0, 63, 0
2, 51000, Note_on_c, 0, 57, 36
2, 51060, Note_on_c, 0, 57, 0
2, 51120, Note_on_c, 0, 66, 0
2, 51120, Note_on_c, 0, 65, 58
2, 51180, Note_on_c, 0, 60, 35
2, 51240, Note_on_c, 0, 60, 0
2, 51240, Note_on_c, 0, 57, 33
2, 51300, Note_on_c, 0, 57, 0
2, 51360, Note_on_c, 0, 65, 0
2, 51360, Note_on_c, 0, 64, 52
2, 51420, Note_on_c, 0, 60, 31
2, 51480, Note_on_c, 0, 60, 0
2, 51480, Note_on_c, 0, 57, 29
2, 51540, Note_on_c, 0, 57, 0
2, 51600, Note_on_c, 0, 64, 0
2, 51600, Note_on_c, 0, 63, 46
2, 51680, Note_on_c, 0, 60, 28
2, 51760, Note_on_c, 0, 57, 26
2, 52200, Note_on_c, 0, 57, 0
2, 52200, Note_on_c, 0, 60, 0
2, 52200, Note_on_c, 0, 63, 0
2, 52200, Note_on_c, 0, 53, 29
2, 52200, Note_on_c, 0, 57, 29
2, 52200, Note_on_c, 0, 62, 37
2, 52320, Note_on_c, 0, 62, 0
2, 52320, Note_on_c, 0, 60, 34
2, 52440, Note_on_c, 0, 60, 0
2, 52440, Note_on_c, 0, 57, 0
2, 52440, Note_on_c, 0, 53, 0
2, 52440, Note_on_c, 0, 53, 29
2, 52440, Note_on_c, 0, 57, 29
2, 52440, Note_on_c, 0, 60, 37
2, 52560, Note_on_c, 0, 60, 0
2, 52560, Note_on_c, 0, 57, 0
2, 52560, Note_on_c, 0, 58, 37
2, 52920, Note_on_c, 0, 58, 0
2, 52920, Note_on_c, 0, 53, 0
2, 52920, Note_on_c, 0, 76, 39
2, 53040, Note_on_c, 0, 76, 0
2, 53040, Note_on_c, 0, 77, 34
2, 53160, Note_on_c, 0, 77, 0
2, 53160, Note_on_c, 0, 74, 38
2, 53280, Note_on_c, 0, 74, 0
2, 53280, Note_on_c, 0, 70, 31
2, 53400, Note_on_c, 0, 70, 0
2, 53400, Note_on_c, 0, 65, 32
2, 53520, Note_on_c, 0, 65, 0
2, 53520, Note_on_c, 0, 62, 25
2, 53640, Note_on_c, 0, 62, 0
2, 53640, Note_on_c, 0, 56, 29
2, 53640, Note_on_c, 0, 61, 29
2, 53640, Note_on_c, 0, 65, 37
2, 53760, Note_on_c, 0, 65, 0
2, 53760, Note_on_c, 0, 61, 0
2, 53760, Note_on_c, 0, 56, 0
2, 53760, Note_on_c, 0, 57, 29
2, 53760, Note_on_c, 0, 60, 29
2, 53760, Note_on_c, 0, 63, 34
2, 53880, Note_on_c, 0, 63, 0
2, 53880, Note_on_c, 0, 60, 0
2, 53880, Note_on_c, 0, 57, 0
2, 53880, Note_on_c, 0, 57, 29
2, 53880, Note_on_c, 0, 60, 29
2, 53880, Note_on_c, 0, 63, 37
2, 54000, Note_on_c, 0, 63, 0
2, 54000, Note_on_c, 0, 60, 0
2, 54000, Note_on_c, 0, 57, 0
2, 54000, Note_on_c, 0, 56, 29
2, 54000, Note_on_c, 0, 61, 37
2, 54360, Note_on_c, 0, 61, 0
2, 54360, Note_on_c, 0, 56, 0
2, 54360, Note_on_c, 0, 79, 39
2, 54480, Note_on_c, 0, 79, 0
2, 54480, Note_on_c, 0, 80, 34
2, 54600, Note_on_c, 0, 80, 0
2, 54600, Note_on_c, 0, 77, 38
2, 54720, Note_on_c, 0, 77, 0
2, 54720, Note_on_c, 0, 73, 31
2, 54840, Note_on_c, 0, 73, 0
2, 54840, Note_on_c, 0, 68, 32
2, 54960, Note_on_c, 0, 68, 0
2, 54960, Note_on_c, 0, 65, 25
2, 55080, Note_on_c, 0, 65, 0
2, 55080, Note_on_c, 0, 73, 68
2, 55200, Note_on_c, 0, 73, 0
2, 55200, Note_on_c, 0, 60, 43
2, 55200, Note_on_c, 0, 66, 43
2, 55200, Note_on_c, 0, 72, 49
2, 55320, Note_on_c, 0, 72, 0
2, 55320, Note_on_c, 0, 72, 63
2, 55440, Note_on_c, 0, 72, 0
2, 55440, Note_on_c, 0, 66, 0
2, 55440, Note_on_c, 0, 60, 0
2, 55440, Note_on_c, 0, 58, 43
2, 55440, Note_on_c, 0, 65, 43
2, 55440, Note_on_c, 0, 70, 70
2, 55800, Note_on_c, 0, 70, 0
2, 55800, Note_on_c, 0, 70, 68
2, 55920, Note_on_c, 0, 70, 0
2, 55920, Note_on_c, 0, 65, 0
2, 55920, Note_on_c, 0, 58, 0
2, 55920, Note_on_c, 0, 59, 43
2, 55920, Note_on_c, 0, 65, 43
2, 55920, Note_on_c, 0, 71, 49
2, 56040, Note_on_c, 0, 71, 0
2, 56040, Note_on_c, 0, 71, 65
2, 56160, Note_on_c, 0, 71, 0
2, 56160, Note_on_c, 0, 65, 0
2, 56160, Note_on_c, 0, 59, 0
2, 56160, Note_on_c, 0, 60, 43
2, 56160, Note_on_c, 0, 64, 43
2, 56160, Note_on_c, 0, 72, 70
2, 56520, Note_on_c, 0, 72, 0
2, 56520, Note_on_c, 0, 72, 62
2, 56640, Note_on_c, 0, 72, 0
2, 56640, Note_on_c, 0, 64, 0
2, 56640, Note_on_c, 0, 60, 0
2, 56640, Note_on_c, 0, 58, 40
2, 56640, Note_on_c, 0, 64, 40
2, 56640, Note_on_c, 0, 70, 46
2, 56760, Note_on_c, 0, 70, 0
2, 56760, Note_on_c, 0, 70, 60
2, 56880, Note_on_c, 0, 70, 0
2, 56880, Note_on_c, 0, 64, 0
2, 56880, Note_on_c, 0, 58, 0
2, 56880, Note_on_c, 0, 56, 39
2, 56880, Note_on_c, 0, 65, 39
2, 56880, Note_on_c, 0, 68, 64
2, 57240, Note_on_c, 0, 68, 0
2, 57240, Note_on_c, 0, 68, 60
2, 57360, Note_on_c, 0, 68, 0
2, 57360, Note_on_c, 0, 65, 0
2, 57360, Note_on_c, 0, 56, 0
2, 57360, Note_on_c, 0, 57, 37
2, 57360, Note_on_c, 0, 63, 37
2, 57360, Note_on_c, 0, 69, 43
2, 57480, Note_on_c, 0, 69, 0
2, 57480, Note_on_c, 0, 69, 51
2, 57600, Note_on_c, 0, 69, 0
2, 57600, Note_on_c, 0, 63, 0
2, 57600, Note_on_c, 0, 57, 0
2, 57600, Note_on_c, 0, 58, 36
2, 57600, Note_on_c, 0, 62, 36
2, 57600, Note_on_c, 0, 70, 59
2, 57960, Note_on_c, 0, 70, 0
2, 57960, Note_on_c, 0, 58, 52
2, 58080, Note_on_c, 0, 62, 0
2, 58080, Note_on_c, 0, 58, 0
2, 58080, Note_on_c, 0, 61, 38
2, 58200, Note_on_c, 0, 61, 0
2, 58200, Note_on_c, 0, 61, 50
2, 58320, Note_on_c, 0, 61, 0
2, 58320, Note_on_c, 0, 58, 0
2, 58320, Note_on_c, 0, 60, 44
2, 58320, Note_on_c, 0, 53, 32
2, 58320, Note_on_c, 0, 58, 32
2, 58320, Note_on_c, 0, 65, 52
2, 58680, Note_on_c, 0, 65, 0
2, 58680, Note_on_c, 0, 60, 0
2, 58680, Note_on_c, 0, 53, 39
2, 58800, Note_on_c, 0, 53, 0
2, 58800, Note_on_c, 0, 53, 0
2, 58800, Note_on_c, 0, 60, 32
2, 58920, Note_on_c, 0, 60, 0
2, 58920, Note_on_c, 0, 60, 33
2, 59040, Note_on_c, 0, 60, 0
2, 59040, Note_on_c, 0, 58, 0
2, 59040, Note_on_c, 0, 63, 27
2, 59040, Note_on_c, 0, 57, 22
2, 59040, Note_on_c, 0, 54, 22
2, 59280, Note_on_c, 0, 54, 0
2, 59280, Note_on_c, 0, 57, 0
2, 59280, Note_on_c, 0, 63, 0
2, 59280, Note_on_c, 0, 61, 24
2, 59280, Note_on_c, 0, 57, 20
2, 59280, Note_on_c, 0, 53, 20
2, 59520, Note_on_c, 0, 53, 0
2, 59520, Note_on_c, 0, 57, 0
2, 59520, Note_on_c, 0, 61, 0
2, 59520, Note_on_c, 0, 60, 22
2, 59520, Note_on_c, 0, 57, 18
2, 59520, Note_on_c, 0, 51, 18
2, 60240, Note_on_c, 0, 51, 0
2, 60240, Note_on_c, 0, 57, 0
2, 60240, Note_on_c, 0, 60, 0
2, 60240, Note_on_c, 0, 58, 22
2, 60475, Note_on_c, 0, 58, 0
2, 60600, Note_on_c, 0, 61, 25
2, 60720, Note_on_c, 0, 61, 0
2, 60720, Note_on_c, 0, 65, 20
2, 60840, Note_on_c, 0, 65, 0
2, 60840, Note_on_c, 0, 70, 20
2, 60960, Note_on_c, 0, 70, 0
2, 60960, Note_on_c, 0, 73, 20
2, 61080, Note_on_c, 0, 73, 0
2, 61080, Note_on_c, 0, 89, 20
2, 61080, Note_on_c, 0, 77, 17
2, 61200, Note_on_c, 0, 77, 0
2, 61200, Note_on_c, 0, 89, 0
2, 61200, Note_on_c, 0, 82, 18
2, 61200, Note_on_c, 0, 94, 22
2, 61920, Note_on_c, 0, 94, 0
2, 61920, Note_on_c, 0, 82, 0
2, 61920, End_track
3, 0, Start_track
3, 0, Title_t, "Piano left"
3, 0, Program_c, 0, 0
3, 480, Note_on_c, 0, 39, 25
3, 540, Note_on_c, 0, 39, 0
3, 720, Note_on_c, 0, 37, 29
3, 840, Note_on_c, 0, 37, 0
3, 900, Note_on_c, 0, 52, 28
3, 960, Note_on_c, 0, 53, 31
3, 970, Note_on_c, 0, 52, 0
3, 1020, Note_on_c, 0, 53, 0
3, 1020, Note_on_c, 0, 58, 20
3, 1080, Note_on_c, 0, 58, 0
3, 1080, Note_on_c, 0, 65, 19
3, 1140, Note_on_c, 0, 65, 0
3, 1200, Note_on_c, 0, 39, 25
3, 1260, Note_on_c, 0, 39, 0
3, 1440, Note_on_c, 0, 37, 29
3, 1560, Note_on_c, 0, 37, 0
3, 1620, Note_on_c, 0, 57, 28
3, 1680, Note_on_c, 0, 58, 31
3, 1690, Note_on_c, 0, 57, 0
3, 1740, Note_on_c, 0, 58, 0
3, 1740, Note_on_c, 0, 65, 20
3, 1800, Note_on_c, 0, 65, 0
3, 1800, Note_on_c, 0, 70, 19
3, 1860, Note_on_c, 0, 70, 0
3, 1920, Note_on_c, 0, 34, 25
3, 2040, Note_on_c, 0, 34, 0
3, 2160, Note_on_c, 0, 39, 29
3, 2280, Note_on_c, 0, 39, 0
3, 2340, Note_on_c, 0, 57, 26
3, 2400, Note_on_c, 0, 58, 31
3, 2410, Note_on_c, 0, 57, 0
3, 2460, Note_on_c, 0, 58, 0
3, 2460, Note_on_c, 0, 61, 20
3, 2520, Note_on_c, 0, 61, 0
3, 2520, Note_on_c, 0, 70, 19
3, 2580, Note_on_c, 0, 70, 0
3, 2640, Note_on_c, 0, 32, 25
3, 2760, Note_on_c, 0, 32, 0
3, 2880, Note_on_c, 0, 37, 29
3, 3000, Note_on_c, 0, 37, 0
3, 3060, Note_on_c, 0, 55, 22
3, 3120, Note_on_c, 0, 56, 27
3, 3130, Note_on_c, 0, 55, 0
3, 3180, Note_on_c, 0, 56, 0
3, 3180, Note_on_c, 0, 60, 18
3, 3240, Note_on_c, 0, 60, 0
3, 3240, Note_on_c, 0, 68, 17
3, 3300, Note_on_c, 0, 68, 0
3, 3360, Note_on_c, 0, 30, 29
3, 3480, Note_on_c, 0, 30, 0
3, 3600, Note_on_c, 0, 36, 29
3, 3720, Note_on_c, 0, 36, 0
3, 3840, Note_on_c, 0, 39, 29
3, 3960, Note_on_c, 0, 39, 0
3, 4020, Note_on_c, 0, 53, 26
3, 4080, Note_on_c, 0, 54, 31
3, 4090, Note_on_c, 0, 53, 0
3, 4140, Note_on_c, 0, 54, 0
3, 4140, Note_on_c, 0, 58, 20
3, 4200, Note_on_c, 0, 58, 0
3, 4200, Note_on_c, 0, 66, 19
3, 4260, Note_on_c, 0, 66, 0
3, 4320, Note_on_c, 0, 29, 25
3, 4440, Note_on_c, 0, 29, 0
3, 4560, Note_on_c, 0, 41, 29
3, 4680, Note_on_c, 0, 41, 0
3, 4740, Note_on_c, 0, 52, 28
3, 4800, Note_on_c, 0, 53, 31
3, 4810, Note_on_c, 0, 52, 0
3, 4860, Note_on_c, 0, 53, 0
3, 4860, Note_on_c, 0, 57, 20
3, 4920, Note_on_c, 0, 57, 0
3, 4920, Note_on_c, 0, 65, 19
3, 4980, Note_on_c, 0, 65, 0
3, 6000, Note_on_c, 0, 57, 24
3, 6060, Note_on_c, 0, 57, 0
3, 6060, Note_on_c, 0, 54, 24
3, 6120, Note_on_c, 0, 54, 0
3, 6120, Note_on_c, 0, 49, 24
3, 6180, Note_on_c, 0, 49, 0
3, 6180, Note_on_c, 0, 45, 22
3, 6240, Note_on_c, 0, 45, 0
3, 6240, Note_on_c, 0, 42, 22
3, 6300, Note_on_c, 0, 42, 0
3, 6300, Note_on_c, 0, 37, 22
3, 6360, Note_on_c, 0, 37, 0
3, 6360, Note_on_c, 0, 33, 22
3, 6420, Note_on_c, 0, 33, 0
3, 6420, Note_on_c, 0, 30, 22
3, 6480, Note_on_c, 0, 30, 0
3, 6480, Note_on_c, 0, 27, 22
3, 6540, Note_on_c, 0, 27, 0
3, 6540, Note_on_c, 0, 39, 21
3, 6600, Note_on_c, 0, 39, 0
3, 6600, Note_on_c, 0, 42, 22
3, 6660, Note_on_c, 0, 42, 0
3, 6660, Note_on_c, 0, 45, 23
3, 6720, Note_on_c, 0, 45, 0
3, 6720, Note_on_c, 0, 51, 24
3, 6780, Note_on_c, 0, 51, 0
3, 6780, Note_on_c, 0, 54, 26
3, 6840, Note_on_c, 0, 54, 0
3, 6840, Note_on_c, 0, 57, 27
3, 6900, Note_on_c, 0, 57, 0
3, 6960, Note_on_c, 0, 39, 25
3, 7080, Note_on_c, 0, 39, 0
3, 7200, Note_on_c, 0, 37, 29
3, 7320, Note_on_c, 0, 37, 0
3, 7380, Note_on_c, 0, 52, 28
3, 7440, Note_on_c, 0, 53, 31
3, 7450, Note_on_c, 0, 52, 0
3, 7500, Note_on_c, 0, 53, 0
3, 7500, Note_on_c, 0, 58, 20
3, 7560, Note_on_c, 0, 58, 0
3, 7560, Note_on_c, 0, 65, 19
3, 7620, Note_on_c, 0, 65, 0
3, 7680, Note_on_c, 0, 39, 25
3, 7800, Note_on_c, 0, 39, 0
3, 7920, Note_on_c, 0, 37, 29
3, 8040, Note_on_c, 0, 37, 0
3, 8100, Note_on_c, 0, 57, 28
3, 8160, Note_on_c, 0, 58, 31
3, 8170, Note_on_c, 0, 57, 0
3, 8220, Note_on_c, 0, 58, 0
3, 8220, Note_on_c, 0, 65, 20
3, 8280, Note_on_c, 0, 65, 0
3, 8280, Note_on_c, 0, 70, 19
3, 8340, Note_on_c, 0, 70, 0
3, 8400, Note_on_c, 0, 36, 30
3, 8520, Note_on_c, 0, 36, 0
3, 8640, Note_on_c, 0, 41, 35
3, 8760, Note_on_c, 0, 41, 0
3, 8820, Note_on_c, 0, 59, 38
3, 8880, Note_on_c, 0, 60, 42
3, 8890, Note_on_c, 0, 59, 0
3, 8940, Note_on_c, 0, 60, 0
3, 8940, Note_on_c, 0, 63, 38
3, 9000, Note_on_c, 0, 63, 0
3, 9000, Note_on_c, 0, 72, 23
3, 9060, Note_on_c, 0, 72, 0
3, 9120, Note_on_c, 0, 34, 30
3, 9240, Note_on_c, 0, 34, 0
3, 9360, Note_on_c, 0, 39, 35
3, 9480, Note_on_c, 0, 39, 0
3, 9540, Note_on_c, 0, 57, 31
3, 9600, Note_on_c, 0, 58, 37
3, 9610, Note_on_c, 0, 57, 0
3, 9660, Note_on_c, 0, 58, 0
3, 9660, Note_on_c, 0, 61, 21
3, 9720, Note_on_c, 0, 61, 0
3, 9720, Note_on_c, 0, 70, 20
3, 9780, Note_on_c, 0, 70, 0
3, 9840, Note_on_c, 0, 32, 35
3, 9960, Note_on_c, 0, 32, 0
3, 10080, Note_on_c, 0, 37, 35
3, 10200, Note_on_c, 0, 37, 0
3, 10320, Note_on_c, 0, 49, 35
3, 10440, Note_on_c, 0, 49, 0
3, 10500, Note_on_c, 0, 55, 33
3, 10560, Note_on_c, 0, 56, 37
3, 10570, Note_on_c, 0, 55, 0
3, 10620, Note_on_c, 0, 56, 0
3, 10620, Note_on_c, 0, 59, 24
3, 10680, Note_on_c, 0, 59, 0
3, 10680, Note_on_c, 0, 68, 23
3, 10740, Note_on_c, 0, 68, 0
3, 10800, Note_on_c, 0, 36, 30
3, 10920, Note_on_c, 0, 36, 0
3, 11040, Note_on_c, 0, 48, 35
3, 11160, Note_on_c, 0, 48, 0
3, 11220, Note_on_c, 0, 52, 33
3, 11280, Note_on_c, 0, 53, 37
3, 11290, Note_on_c, 0, 52, 0
3, 11340, Note_on_c, 0, 53, 0
3, 11340, Note_on_c, 0, 56, 24
3, 11400, Note_on_c, 0, 56, 0
3, 11400, Note_on_c, 0, 65, 23
3, 11460, Note_on_c, 0, 65, 0
3, 12480, Note_on_c, 0, 48, 32
3, 12540, Note_on_c, 0, 48, 0
3, 12540, Note_on_c, 0, 44, 33
3, 12600, Note_on_c, 0, 44, 0
3, 12600, Note_on_c, 0, 41, 42
3, 12660, Note_on_c, 0, 41, 0
3, 12660, Note_on_c, 0, 36, 45
3, 12720, Note_on_c, 0, 36, 0
3, 12720, Note_on_c, 0, 32, 55
3, 12780, Note_on_c, 0, 32, 0
3, 12780, Note_on_c, 0, 44, 34
3, 12840, Note_on_c, 0, 44, 0
3, 12960, Note_on_c, 0, 37, 35
3, 13080, Note_on_c, 0, 37, 0
3, 13200, Note_on_c, 0, 49, 35
3, 13320, Note_on_c, 0, 49, 0
3, 13380, Note_on_c, 0, 55, 28
3, 13440, Note_on_c, 0, 56, 37
3, 13450, Note_on_c, 0, 55, 0
3, 13500, Note_on_c, 0, 56, 0
3, 13500, Note_on_c, 0, 59, 24
3, 13560, Note_on_c, 0, 59, 0
3, 13560, Note_on_c, 0, 68, 23
3, 13620, Note_on_c, 0, 68, 0
3, 13680, Note_on_c, 0, 37, 30
3, 13800, Note_on_c, 0, 37, 0
3, 13920, Note_on_c, 0, 49, 33
3, 14040, Note_on_c, 0, 49, 0
3, 14100, Note_on_c, 0, 52, 31
3, 14160, Note_on_c, 0, 53, 35
3, 14170, Note_on_c, 0, 52, 0
3, 14220, Note_on_c, 0, 53, 0
3, 14220, Note_on_c, 0, 56, 22
3, 14280, Note_on_c, 0, 56, 0
3, 14280, Note_on_c, 0, 65, 21
3, 14340, Note_on_c, 0, 65, 0
3, 14580, Note_on_c, 0, 30, 26
3, 14640, Note_on_c, 0, 30, 0
3, 14820, Note_on_c, 0, 30, 25
3, 14880, Note_on_c, 0, 30, 0
3, 15060, Note_on_c, 0, 30, 24
3, 15120, Note_on_c, 0, 30, 0
3, 15300, Note_on_c, 0, 54, 22
3, 15360, Note_on_c, 0, 54, 0
3, 15360, Note_on_c, 0, 50, 22
3, 15420, Note_on_c, 0, 50, 0
3, 15420, Note_on_c, 0, 45, 22
3, 15480, Note_on_c, 0, 45, 0
3, 15480, Note_on_c, 0, 42, 22
3, 15540, Note_on_c, 0, 42, 0
3, 15540, Note_on_c, 0, 38, 19
3, 15600, Note_on_c, 0, 38, 0
3, 15600, Note_on_c, 0, 33, 18
3, 15660, Note_on_c, 0, 33, 0
3, 15660, Note_on_c, 0, 30, 18
3, 15720, Note_on_c, 0, 30, 0
3, 15720, Note_on_c, 0, 33, 17
3, 15780, Note_on_c, 0, 33, 0
3, 15780, Note_on_c, 0, 38, 17
3, 15840, Note_on_c, 0, 38, 0
3, 15840, Note_on_c, 0, 42, 16
3, 15920, Note_on_c, 0, 42, 0
3, 15920, Note_on_c, 0, 45, 15
3, 16000, Note_on_c, 0, 45, 0
3, 16000, Note_on_c, 0, 50, 13
3, 16080, Note_on_c, 0, 50, 0
3, 16080, Note_on_c, 0, 54, 15
3, 16200, Note_on_c, 0, 54, 0
3, 16200, Note_on_c, 0, 32, 20
3, 16440, Note_on_c, 0, 32, 0
3, 16440, Note_on_c, 0, 37, 17
3, 16680, Note_on_c, 0, 43, 22
3, 16740, Note_on_c, 0, 37, 0
3, 16800, Note_on_c, 0, 43, 0
3, 16800, Note_on_c, 0, 44, 21
3, 16920, Note_on_c, 0, 56, 22
3, 17160, Note_on_c, 0, 44, 0
3, 17160, Note_on_c, 0, 49, 25
3, 17400, Note_on_c, 0, 56, 0
3, 17400, Note_on_c, 0, 60, 22
3, 17520, Note_on_c, 0, 60, 0
3, 17520, Note_on_c, 0, 61, 26
3, 17760, Note_on_c, 0, 49, 0
3, 17760, Note_on_c, 0, 49, 22
3, 17760, Note_on_c, 0, 56, 22
3, 18000, Note_on_c, 0, 61, 0
3, 18120, Note_on_c, 0, 56, 0
3, 18120, Note_on_c, 0, 55, 22
3, 18240, Note_on_c, 0, 55, 0
3, 18240, Note_on_c, 0, 56, 26
3, 18480, Note_on_c, 0, 49, 0
3, 18480, Note_on_c, 0, 46, 19
3, 18480, Note_on_c, 0, 53, 19
3, 18720, Note_on_c, 0, 53, 0
3, 18720, Note_on_c, 0, 46, 0
3, 18720, Note_on_c, 0, 56, 0
3, 18720, Note_on_c, 0, 39, 26
3, 18840, Note_on_c, 0, 39, 0
3, 18840, Note_on_c, 0, 46, 22
3, 18960, Note_on_c, 0, 46, 0
3, 18960, Note_on_c, 0, 51, 23
3, 19080, Note_on_c, 0, 51, 0
3, 19080, Note_on_c, 0, 58, 24
3, 19200, Note_on_c, 0, 58, 0
3, 19320, Note_on_c, 0, 46, 30
3, 19440, Note_on_c, 0, 46, 0
3, 19440, Note_on_c, 0, 38, 30
3, 19440, Note_on_c, 0, 47, 33
3, 19560, Note_on_c, 0, 46, 26
3, 19572, Note_on_c, 0, 47, 0
3, 19680, Note_on_c, 0, 38, 0
3, 19680, Note_on_c, 0, 45, 28
3, 19680, Note_on_c, 0, 39, 28
3, 19692, Note_on_c, 0, 46, 0
3, 19800, Note_on_c, 0, 46, 26
3, 19812, Note_on_c, 0, 45, 0
3, 19920, Note_on_c, 0, 39, 0
3, 19920, Note_on_c, 0, 47, 31
3, 19920, Note_on_c, 0, 39, 28
3, 19932, Note_on_c, 0, 46, 0
3, 20040, Note_on_c, 0, 48, 26
3, 20052, Note_on_c, 0, 47, 0
3, 20160, Note_on_c, 0, 48, 0
3, 20160, Note_on_c, 0, 39, 0
3, 20160, Note_on_c, 0, 51, 31
3, 20160, Note_on_c, 0, 41, 30
3, 20280, Note_on_c, 0, 49, 27
3, 20292, Note_on_c, 0, 51, 0
3, 20400, Note_on_c, 0, 41, 0
3, 20400, Note_on_c, 0, 41, 31
3, 20400, Note_on_c, 0, 48, 32
3, 20412, Note_on_c, 0, 49, 0
3, 20520, Note_on_c, 0, 49, 30
3, 20532, Note_on_c, 0, 48, 0
3, 20640, Note_on_c, 0, 41, 0
3, 20640, Note_on_c, 0, 37, 33
3, 20640, Note_on_c, 0, 48, 39
3, 20652, Note_on_c, 0, 49, 0
3, 20760, Note_on_c, 0, 46, 32
3, 20772, Note_on_c, 0, 48, 0
3, 20880, Note_on_c, 0, 46, 0
3, 20880, Note_on_c, 0, 37, 0
3, 20880, Note_on_c, 0, 45, 43
3, 20880, Note_on_c, 0, 42, 39
3, 21000, Note_on_c, 0, 46, 32
3, 21012, Note_on_c, 0, 45, 0
3, 21120, Note_on_c, 0, 42, 0
3, 21120, Note_on_c, 0, 49, 36
3, 21120, Note_on_c, 0, 42, 34
3, 21132, Note_on_c, 0, 46, 0
3, 21240, Note_on_c, 0, 48, 28
3, 21252, Note_on_c, 0, 49, 0
3, 21360, Note_on_c, 0, 42, 0
3, 21360, Note_on_c, 0, 46, 33
3, 21360, Note_on_c, 0, 42, 30
3, 21372, Note_on_c, 0, 48, 0
3, 21480, Note_on_c, 0, 48, 24
3, 21492, Note_on_c, 0, 46, 0
3, 21600, Note_on_c, 0, 42, 0
3, 21600, Note_on_c, 0, 41, 24
3, 21960, Note_on_c, 0, 41, 0
3, 21960, Note_on_c, 0, 48, 0
3, 21960, Note_on_c, 0, 32, 20
3, 22200, Note_on_c, 0, 32, 0
3, 22200, Note_on_c, 0, 37, 17
3, 22380, Note_on_c, 0, 37, 0
3, 22440, Note_on_c, 0, 43, 22
3, 22560, Note_on_c, 0, 43, 0
3, 22560, Note_on_c, 0, 44, 21
3, 22680, Note_on_c, 0, 56, 20
3, 22920, Note_on_c, 0, 44, 0
3, 22920, Note_on_c, 0, 49, 23
3, 23160, Note_on_c, 0, 58, 22
3, 23280, Note_on_c, 0, 58, 0
3, 23280, Note_on_c, 0, 59, 26
3, 23520, Note_on_c, 0, 49, 0
3, 23520, Note_on_c, 0, 49, 35
3, 23880, Note_on_c, 0, 59, 0
3, 23880, Note_on_c, 0, 58, 22
3, 24000, Note_on_c, 0, 58, 0
3, 24000, Note_on_c, 0, 59, 26
3, 24240, Note_on_c, 0, 49, 0
3, 24240, Note_on_c, 0, 56, 0
3, 24240, Note_on_c, 0, 49, 19
3, 24240, Note_on_c, 0, 53, 19
3, 24480, Note_on_c, 0, 53, 0
3, 24480, Note_on_c, 0, 49, 0
3, 24480, Note_on_c, 0, 59, 0
3, 24480, Note_on_c, 0, 42, 35
3, 24600, Note_on_c, 0, 42, 0
3, 24600, Note_on_c, 0, 49, 29
3, 24720, Note_on_c, 0, 49, 0
3, 24720, Note_on_c, 0, 54, 29
3, 24840, Note_on_c, 0, 54, 0
3, 24840, Note_on_c, 0, 61, 29
3, 24960, Note_on_c, 0, 61, 0
3, 25080, Note_on_c, 0, 49, 29
3, 25200, Note_on_c, 0, 49, 0
3, 25200, Note_on_c, 0, 42, 28
3, 25200, Note_on_c, 0, 50, 32
3, 25320, Note_on_c, 0, 49, 25
3, 25332, Note_on_c, 0, 50, 0
3, 25440, Note_on_c, 0, 42, 0
3, 25440, Note_on_c, 0, 48, 27
3, 25440, Note_on_c, 0, 42, 27
3, 25452, Note_on_c, 0, 49, 0
3, 25560, Note_on_c, 0, 49, 25
3, 25572, Note_on_c, 0, 48, 0
3, 25680, Note_on_c, 0, 42, 0
3, 25680, Note_on_c, 0, 50, 30
3, 25680, Note_on_c, 0, 42, 28
3, 25692, Note_on_c, 0, 49, 0
3, 25800, Note_on_c, 0, 49, 26
3, 25812, Note_on_c, 0, 50, 0
3, 25920, Note_on_c, 0, 49, 0
3, 25920, Note_on_c, 0, 42, 0
3, 25920, Note_on_c, 0, 51, 31
3, 25920, Note_on_c, 0, 41, 29
3, 26040, Note_on_c, 0, 49, 28
3, 26052, Note_on_c, 0, 51, 0
3, 26160, Note_on_c, 0, 41, 0
3, 26160, Note_on_c, 0, 42, 31
3, 26160, Note_on_c, 0, 48, 34
3, 26172, Note_on_c, 0, 49, 0
3, 26280, Note_on_c, 0, 49, 31
3, 26292, Note_on_c, 0, 48, 0
3, 26400, Note_on_c, 0, 42, 0
3, 26400, Note_on_c, 0, 46, 35
3, 26400, Note_on_c, 0, 51, 41
3, 26412, Note_on_c, 0, 49, 0
3, 26520, Note_on_c, 0, 51, 0
3, 26520, Note_on_c, 0, 49, 35
3, 26640, Note_on_c, 0, 46, 0
3, 26640, Note_on_c, 0, 44, 42
3, 26760, Note_on_c, 0, 49, 0
3, 26760, Note_on_c, 0, 53, 35
3, 26880, Note_on_c, 0, 44, 0
3, 26880, Note_on_c, 0, 51, 37
3, 26880, Note_on_c, 0, 44, 36
3, 26892, Note_on_c, 0, 53, 0
3, 27000, Note_on_c, 0, 49, 29
3, 27012, Note_on_c, 0, 51, 0
3, 27120, Note_on_c, 0, 48, 33
3, 27132, Note_on_c, 0, 49, 0
3, 27240, Note_on_c, 0, 48, 0
3, 27240, Note_on_c, 0, 44, 0
3, 27240, Note_on_c, 0, 44, 26
3, 27360, Note_on_c, 0, 37, 23
3, 27780, Note_on_c, 0, 37, 0
3, 27780, Note_on_c, 0, 44, 0
3, 27780, Note_on_c, 0, 49, 15
3, 27840, Note_on_c, 0, 49, 0
3, 27840, Note_on_c, 0, 48, 24
3, 27900, Note_on_c, 0, 48, 0
3, 28020, Note_on_c, 0, 48, 15
3, 28080, Note_on_c, 0, 48, 0
3, 28080, Note_on_c, 0, 46, 22
3, 28260, Note_on_c, 0, 46, 0
3, 28260, Note_on_c, 0, 40, 21
3, 28320, Note_on_c, 0, 40, 0
3, 28320, Note_on_c, 0, 41, 26
3, 28380, Note_on_c, 0, 41, 0
3, 28380, Note_on_c, 0, 45, 21
3, 28440, Note_on_c, 0, 45, 0
3, 28440, Note_on_c, 0, 53, 25
3, 28500, Note_on_c, 0, 53, 0
3, 28500, Note_on_c, 0, 41, 21
3, 28560, Note_on_c, 0, 41, 0
3, 28560, Note_on_c, 0, 42, 28
3, 28620, Note_on_c, 0, 42, 0
3, 28620, Note_on_c, 0, 46, 21
3, 28680, Note_on_c, 0, 46, 0
3, 28680, Note_on_c, 0, 54, 21
3, 28740, Note_on_c, 0, 54, 0
3, 28980, Note_on_c, 0, 54, 21
3, 29040, Note_on_c, 0, 55, 26
3, 29050, Note_on_c, 0, 54, 0
3, 29100, Note_on_c, 0, 55, 0
3, 29100, Note_on_c, 0, 58, 21
3, 29160, Note_on_c, 0, 58, 0
3, 29160, Note_on_c, 0, 67, 25
3, 29220, Note_on_c, 0, 67, 0
3, 29220, Note_on_c, 0, 55, 21
3, 29280, Note_on_c, 0, 56, 28
3, 29290, Note_on_c, 0, 55, 0
3, 29340, Note_on_c, 0, 56, 0
3, 29340, Note_on_c, 0, 60, 21
3, 29400, Note_on_c, 0, 60, 0
3, 29400, Note_on_c, 0, 68, 21
3, 29460, Note_on_c, 0, 68, 0
3, 29700, Note_on_c, 0, 44, 21
3, 29760, Note_on_c, 0, 45, 26
3, 29770, Note_on_c, 0, 44, 0
3, 29820, Note_on_c, 0, 45, 0
3, 29820, Note_on_c, 0, 48, 21
3, 29880, Note_on_c, 0, 48, 0
3, 29880, Note_on_c, 0, 57, 25
3, 29940, Note_on_c, 0, 57, 0
3, 29940, Note_on_c, 0, 45, 21
3, 30000, Note_on_c, 0, 46, 28
3, 30010, Note_on_c, 0, 45, 0
3, 30060, Note_on_c, 0, 46, 0
3, 30060, Note_on_c, 0, 50, 21
3, 30120, Note_on_c, 0, 50, 0
3, 30120, Note_on_c, 0, 58, 21
3, 30180, Note_on_c, 0, 58, 0
3, 30300, Note_on_c, 0, 58, 21
3, 30360, Note_on_c, 0, 58, 0
3, 30360, Note_on_c, 0, 59, 28
3, 30420, Note_on_c, 0, 59, 0
3, 30420, Note_on_c, 0, 62, 23
3, 30480, Note_on_c, 0, 62, 0
3, 30480, Note_on_c, 0, 71, 35
3, 30540, Note_on_c, 0, 71, 0
3, 30540, Note_on_c, 0, 59, 29
3, 30600, Note_on_c, 0, 60, 38
3, 30610, Note_on_c, 0, 59, 0
3, 30660, Note_on_c, 0, 60, 0
3, 30660, Note_on_c, 0, 65, 26
3, 30720, Note_on_c, 0, 65, 0
3, 30720, Note_on_c, 0, 72, 38
3, 30780, Note_on_c, 0, 72, 0
3, 30780, Note_on_c, 0, 60, 31
3, 30840, Note_on_c, 0, 61, 41
3, 30846, Note_on_c, 0, 60, 0
3, 30900, Note_on_c, 0, 65, 30
3, 30906, Note_on_c, 0, 61, 0
3, 30960, Note_on_c, 0, 73, 29
3, 30966, Note_on_c, 0, 65, 0
3, 31020, Note_on_c, 0, 73, 0
3, 31380, Note_on_c, 0, 58, 29
3, 31440, Note_on_c, 0, 56, 31
3, 31446, Note_on_c, 0, 58, 0
3, 31500, Note_on_c, 0, 53, 28
3, 31506, Note_on_c, 0, 56, 0
3, 31560, Note_on_c, 0, 53, 0
3, 31560, Note_on_c, 0, 47, 29
3, 31620, Note_on_c, 0, 47, 0
3, 31620, Note_on_c, 0, 36, 27
3, 31680, Note_on_c, 0, 37, 34
3, 31686, Note_on_c, 0, 36, 0
3, 31740, Note_on_c, 0, 37, 0
3, 31740, Note_on_c, 0, 44, 30
3, 31800, Note_on_c, 0, 44, 0
3, 31800, Note_on_c, 0, 47, 30
3, 31860, Note_on_c, 0, 48, 36
3, 31866, Note_on_c, 0, 47, 0
3, 31920, Note_on_c, 0, 49, 29
3, 31926, Note_on_c, 0, 48, 0
3, 31980, Note_on_c, 0, 49, 0
3, 31980, Note_on_c, 0, 56, 26
3, 32040, Note_on_c, 0, 56, 0
3, 32040, Note_on_c, 0, 59, 30
3, 32106, Note_on_c, 0, 59, 0
3, 32820, Note_on_c, 0, 56, 26
3, 32880, Note_on_c, 0, 55, 27
3, 32886, Note_on_c, 0, 56, 0
3, 32940, Note_on_c, 0, 55, 0
3, 32940, Note_on_c, 0, 52, 24
3, 33000, Note_on_c, 0, 52, 0
3, 33000, Note_on_c, 0, 46, 25
3, 33060, Note_on_c, 0, 46, 0
3, 33060, Note_on_c, 0, 35, 22
3, 33120, Note_on_c, 0, 36, 28
3, 33126, Note_on_c, 0, 35, 0
3, 33180, Note_on_c, 0, 36, 0
3, 33180, Note_on_c, 0, 43, 25
3, 33240, Note_on_c, 0, 43, 0
3, 33240, Note_on_c, 0, 46, 25
3, 33300, Note_on_c, 0, 47, 29
3, 33306, Note_on_c, 0, 46, 0
3, 33360, Note_on_c, 0, 48, 23
3, 33366, Note_on_c, 0, 47, 0
3, 33420, Note_on_c, 0, 48, 0
3, 33420, Note_on_c, 0, 55, 21
3, 33480, Note_on_c, 0, 55, 0
3, 33480, Note_on_c, 0, 58, 23
3, 33546, Note_on_c, 0, 58, 0
3, 34440, Note_on_c, 0, 54, 16
3, 34440, Note_on_c, 0, 51, 16
3, 34440, Note_on_c, 0, 47, 20
3, 34560, Note_on_c, 0, 47, 0
3, 34560, Note_on_c, 0, 48, 18
3, 34680, Note_on_c, 0, 48, 0
3, 34680, Note_on_c, 0, 51, 0
3, 34680, Note_on_c, 0, 54, 0
3, 34920, Note_on_c, 0, 28, 22
3, 35040, Note_on_c, 0, 28, 0
3, 35040, Note_on_c, 0, 29, 22
3, 35220, Note_on_c, 0, 29, 0
3, 35220, Note_on_c, 0, 41, 19
3, 35280, Note_on_c, 0, 41, 0
3, 35280, Note_on_c, 0, 45, 22
3, 35340, Note_on_c, 0, 45, 0
3, 35340, Note_on_c, 0, 48, 22
3, 35400, Note_on_c, 0, 48, 0
3, 35400, Note_on_c, 0, 51, 19
3, 35460, Note_on_c, 0, 51, 0
3, 35460, Note_on_c, 0, 54, 19
3, 35520, Note_on_c, 0, 54, 0
3, 35520, Note_on_c, 0, 57, 19
3, 35580, Note_on_c, 0, 57, 0
3, 35580, Note_on_c, 0, 60, 22
3, 35640, Note_on_c, 0, 60, 0
3, 35640, Note_on_c, 0, 66, 19
3, 35700, Note_on_c, 0, 66, 0
3, 35700, Note_on_c, 0, 63, 19
3, 35760, Note_on_c, 0, 63, 0
3, 35760, Note_on_c, 0, 54, 22
3, 35820, Note_on_c, 0, 54, 0
3, 35820, Note_on_c, 0, 57, 19
3, 35880, Note_on_c, 0, 57, 0
3, 35880, Note_on_c, 0, 63, 19
3, 35940, Note_on_c, 0, 63, 0
3, 35940, Note_on_c, 0, 60, 19
3, 36000, Note_on_c, 0, 60, 0
3, 36000, Note_on_c, 0, 51, 22
3, 36060, Note_on_c, 0, 51, 0
3, 36060, Note_on_c, 0, 54, 21
3, 36120, Note_on_c, 0, 54, 0
3, 36120, Note_on_c, 0, 60, 21
3, 36180, Note_on_c, 0, 60, 0
3, 36180, Note_on_c, 0, 57, 21
3, 36240, Note_on_c, 0, 57, 0
3, 36240, Note_on_c, 0, 48, 24
3, 36300, Note_on_c, 0, 48, 0
3, 36300, Note_on_c, 0, 51, 19
3, 36360, Note_on_c, 0, 51, 0
3, 36360, Note_on_c, 0, 57, 19
3, 36420, Note_on_c, 0, 57, 0
3, 36420, Note_on_c, 0, 54, 19
3, 36480, Note_on_c, 0, 54, 0
3, 36480, Note_on_c, 0, 51, 24
3, 36540, Note_on_c, 0, 51, 0
3, 36540, Note_on_c, 0, 48, 19
3, 36600, Note_on_c, 0, 48, 0
3, 36600, Note_on_c, 0, 45, 19
3, 36660, Note_on_c, 0, 45, 0
3, 36660, Note_on_c, 0, 42, 19
3, 36720, Note_on_c, 0, 42, 0
3, 36720, Note_on_c, 0, 39, 22
3, 36780, Note_on_c, 0, 39, 0
3, 36780, Note_on_c, 0, 45, 20
3, 36840, Note_on_c, 0, 45, 0
3, 36840, Note_on_c, 0, 54, 20
3, 36900, Note_on_c, 0, 54, 0
3, 37080, Note_on_c, 0, 39, 22
3, 37140, Note_on_c, 0, 39, 0
3, 37140, Note_on_c, 0, 44, 21
3, 37200, Note_on_c, 0, 44, 0
3, 37200, Note_on_c, 0, 53, 21
3, 37320, Note_on_c, 0, 53, 0
3, 37440, Note_on_c, 0, 38, 29
3, 37560, Note_on_c, 0, 38, 0
3, 37620, Note_on_c, 0, 52, 26
3, 37680, Note_on_c, 0, 53, 31
3, 37690, Note_on_c, 0, 52, 0
3, 37740, Note_on_c, 0, 53, 0
3, 37740, Note_on_c, 0, 56, 20
3, 37800, Note_on_c, 0, 56, 0
3, 37800, Note_on_c, 0, 65, 19
3, 37860, Note_on_c, 0, 65, 0
3, 37920, Note_on_c, 0, 39, 25
3, 38040, Note_on_c, 0, 39, 0
3, 38160, Note_on_c, 0, 38, 29
3, 38280, Note_on_c, 0, 38, 0
3, 38340, Note_on_c, 0, 57, 28
3, 38400, Note_on_c, 0, 58, 32
3, 38410, Note_on_c, 0, 57, 0
3, 38460, Note_on_c, 0, 58, 0
3, 38460, Note_on_c, 0, 65, 20
3, 38520, Note_on_c, 0, 65, 0
3, 38520, Note_on_c, 0, 70, 19
3, 38580, Note_on_c, 0, 70, 0
3, 38640, Note_on_c, 0, 34, 30
3, 38760, Note_on_c, 0, 34, 0
3, 38880, Note_on_c, 0, 39, 35
3, 39000, Note_on_c, 0, 39, 0
3, 39060, Note_on_c, 0, 57, 33
3, 39120, Note_on_c, 0, 58, 37
3, 39130, Note_on_c, 0, 57, 0
3, 39180, Note_on_c, 0, 58, 0
3, 39180, Note_on_c, 0, 61, 24
3, 39240, Note_on_c, 0, 61, 0
3, 39240, Note_on_c, 0, 70, 23
3, 39300, Note_on_c, 0, 70, 0
3, 39360, Note_on_c, 0, 32, 30
3, 39480, Note_on_c, 0, 32, 0
3, 39600, Note_on_c, 0, 37, 35
3, 39720, Note_on_c, 0, 37, 0
3, 39780, Note_on_c, 0, 55, 26
3, 39840, Note_on_c, 0, 56, 29
3, 39850, Note_on_c, 0, 55, 0
3, 39900, Note_on_c, 0, 56, 0
3, 39900, Note_on_c, 0, 60, 18
3, 39960, Note_on_c, 0, 60, 0
3, 39960, Note_on_c, 0, 68, 18
3, 40020, Note_on_c, 0, 68, 0
3, 40080, Note_on_c, 0, 30, 35
3, 40200, Note_on_c, 0, 30, 0
3, 40320, Note_on_c, 0, 36, 35
3, 40440, Note_on_c, 0, 36, 0
3, 40560, Note_on_c, 0, 39, 35
3, 40680, Note_on_c, 0, 39, 0
3, 40740, Note_on_c, 0, 53, 33
3, 40800, Note_on_c, 0, 54, 37
3, 40810, Note_on_c, 0, 53, 0
3, 40860, Note_on_c, 0, 54, 0
3, 40860, Note_on_c, 0, 58, 24
3, 40920, Note_on_c, 0, 58, 0
3, 40920, Note_on_c, 0, 66, 23
3, 40980, Note_on_c, 0, 66, 0
3, 41040, Note_on_c, 0, 29, 30
3, 41160, Note_on_c, 0, 29, 0
3, 41280, Note_on_c, 0, 41, 35
3, 41340, Note_on_c, 0, 41, 0
3, 41460, Note_on_c, 0, 52, 33
3, 41520, Note_on_c, 0, 53, 37
3, 41530, Note_on_c, 0, 52, 0
3, 41580, Note_on_c, 0, 53, 0
3, 41580, Note_on_c, 0, 57, 24
3, 41640, Note_on_c, 0, 57, 0
3, 41640, Note_on_c, 0, 65, 23
3, 41700, Note_on_c, 0, 65, 0
3, 42720, Note_on_c, 0, 57, 24
3, 42780, Note_on_c, 0, 57, 0
3, 42780, Note_on_c, 0, 54, 24
3, 42840, Note_on_c, 0, 54, 0
3, 42840, Note_on_c, 0, 49, 24
3, 42900, Note_on_c, 0, 49, 0
3, 42900, Note_on_c, 0, 45, 22
3, 42960, Note_on_c, 0, 45, 0
3, 42960, Note_on_c, 0, 42, 22
3, 43020, Note_on_c, 0, 42, 0
3, 43020, Note_on_c, 0, 37, 22
3, 43080, Note_on_c, 0, 37, 0
3, 43080, Note_on_c, 0, 33, 22
3, 43140, Note_on_c, 0, 33, 0
3, 43140, Note_on_c, 0, 30, 22
3, 43200, Note_on_c, 0, 30, 0
3, 43200, Note_on_c, 0, 27, 22
3, 43320, Note_on_c, 0, 27, 0
3, 43320, Note_on_c, 0, 39, 21
3, 43380, Note_on_c, 0, 39, 0
3, 43380, Note_on_c, 0, 42, 22
3, 43440, Note_on_c, 0, 42, 0
3, 43440, Note_on_c, 0, 45, 23
3, 43500, Note_on_c, 0, 45, 0
3, 43500, Note_on_c, 0, 51, 24
3, 43560, Note_on_c, 0, 51, 0
3, 43560, Note_on_c, 0, 54, 26
3, 43620, Note_on_c, 0, 54, 0
3, 43620, Note_on_c, 0, 57, 27
3, 43680, Note_on_c, 0, 57, 0
3, 43680, Note_on_c, 0, 39, 25
3, 43800, Note_on_c, 0, 39, 0
3, 43920, Note_on_c, 0, 37, 29
3, 44040, Note_on_c, 0, 37, 0
3, 44100, Note_on_c, 0, 52, 28
3, 44160, Note_on_c, 0, 53, 31
3, 44170, Note_on_c, 0, 52, 0
3, 44220, Note_on_c, 0, 53, 0
3, 44220, Note_on_c, 0, 58, 20
3, 44280, Note_on_c, 0, 58, 0
3, 44280, Note_on_c, 0, 65, 19
3, 44340, Note_on_c, 0, 65, 0
3, 44400, Note_on_c, 0, 40, 30
3, 44520, Note_on_c, 0, 40, 0
3, 44640, Note_on_c, 0, 39, 35
3, 44760, Note_on_c, 0, 39, 0
3, 44820, Note_on_c, 0, 53, 33
3, 44880, Note_on_c, 0, 54, 37
3, 44890, Note_on_c, 0, 53, 0
3, 44940, Note_on_c, 0, 54, 0
3, 44940, Note_on_c, 0, 59, 24
3, 45000, Note_on_c, 0, 59, 0
3, 45000, Note_on_c, 0, 66, 23
3, 45060, Note_on_c, 0, 66, 0
3, 45120, Note_on_c, 0, 40, 30
3, 45240, Note_on_c, 0, 40, 0
3, 45360, Note_on_c, 0, 39, 35
3, 45480, Note_on_c, 0, 39, 0
3, 45540, Note_on_c, 0, 53, 33
3, 45600, Note_on_c, 0, 54, 37
3, 45610, Note_on_c, 0, 53, 0
3, 45660, Note_on_c, 0, 54, 0
3, 45660, Note_on_c, 0, 59, 24
3, 45720, Note_on_c, 0, 59, 0
3, 45720, Note_on_c, 0, 66, 23
3, 45780, Note_on_c, 0, 66, 0
3, 45840, Note_on_c, 0, 42, 33
3, 45960, Note_on_c, 0, 42, 0
3, 46080, Note_on_c, 0, 41, 42
3, 46200, Note_on_c, 0, 41, 0
3, 46260, Note_on_c, 0, 55, 38
3, 46320, Note_on_c, 0, 56, 48
3, 46330, Note_on_c, 0, 55, 0
3, 46380, Note_on_c, 0, 56, 0
3, 46380, Note_on_c, 0, 61, 26
3, 46440, Note_on_c, 0, 61, 0
3, 46440, Note_on_c, 0, 68, 25
3, 46500, Note_on_c, 0, 68, 0
3, 46560, Note_on_c, 0, 40, 41
3, 46680, Note_on_c, 0, 40, 0
3, 46800, Note_on_c, 0, 39, 45
3, 46920, Note_on_c, 0, 39, 0
3, 46980, Note_on_c, 0, 57, 38
3, 47040, Note_on_c, 0, 58, 45
3, 47050, Note_on_c, 0, 57, 0
3, 47100, Note_on_c, 0, 58, 0
3, 47100, Note_on_c, 0, 61, 28
3, 47160, Note_on_c, 0, 61, 0
3, 47160, Note_on_c, 0, 70, 27
3, 47220, Note_on_c, 0, 70, 0
3, 47280, Note_on_c, 0, 38, 45
3, 47400, Note_on_c, 0, 38, 0
3, 47520, Note_on_c, 0, 37, 48
3, 47640, Note_on_c, 0, 37, 0
3, 47700, Note_on_c, 0, 55, 42
3, 47760, Note_on_c, 0, 56, 48
3, 47770, Note_on_c, 0, 55, 0
3, 47820, Note_on_c, 0, 56, 0
3, 47820, Note_on_c, 0, 59, 30
3, 47880, Note_on_c, 0, 59, 0
3, 47880, Note_on_c, 0, 68, 29
3, 47940, Note_on_c, 0, 68, 0
3, 48000, Note_on_c, 0, 36, 47
3, 48120, Note_on_c, 0, 36, 0
3, 48240, Note_on_c, 0, 35, 51
3, 48360, Note_on_c, 0, 35, 0
3, 48420, Note_on_c, 0, 59, 42
3, 48480, Note_on_c, 0, 59, 0
3, 48660, Note_on_c, 0, 47, 42
3, 48720, Note_on_c, 0, 47, 0
3, 48900, Note_on_c, 0, 35, 42
3, 48960, Note_on_c, 0, 35, 0
3, 49140, Note_on_c, 0, 47, 39
3, 49200, Note_on_c, 0, 47, 0
3, 49380, Note_on_c, 0, 35, 39
3, 49440, Note_on_c, 0, 35, 0
3, 49620, Note_on_c, 0, 47, 39
3, 49680, Note_on_c, 0, 47, 0
3, 49680, Note_on_c, 0, 36, 42
3, 49680, Note_on_c, 0, 41, 42
3, 49680, Note_on_c, 0, 48, 51
3, 49800, Note_on_c, 0, 48, 0
3, 49800, Note_on_c, 0, 41, 0
3, 49800, Note_on_c, 0, 36, 0
3, 49860, Note_on_c, 0, 65, 42
3, 49860, Note_on_c, 0, 60, 36
3, 49920, Note_on_c, 0, 60, 0
3, 49920, Note_on_c, 0, 65, 0
3, 50100, Note_on_c, 0, 60, 42
3, 50100, Note_on_c, 0, 53, 36
3, 50160, Note_on_c, 0, 53, 0
3, 50160, Note_on_c, 0, 60, 0
3, 50340, Note_on_c, 0, 48, 36
3, 50340, Note_on_c, 0, 53, 42
3, 50400, Note_on_c, 0, 53, 0
3, 50400, Note_on_c, 0, 48, 0
3, 50580, Note_on_c, 0, 41, 30
3, 50580, Note_on_c, 0, 48, 36
3, 50640, Note_on_c, 0, 48, 0
3, 50640, Note_on_c, 0, 41, 0
3, 50820, Note_on_c, 0, 29, 35
3, 50880, Note_on_c, 0, 29, 0
3, 51060, Note_on_c, 0, 41, 28
3, 51060, Note_on_c, 0, 48, 33
3, 51120, Note_on_c, 0, 48, 0
3, 51120, Note_on_c, 0, 41, 0
3, 51300, Note_on_c, 0, 29, 30
3, 51360, Note_on_c, 0, 29, 0
3, 51540, Note_on_c, 0, 41, 23
3, 51540, Note_on_c, 0, 48, 27
3, 51600, Note_on_c, 0, 48, 0
3, 51600, Note_on_c, 0, 41, 0
3, 51840, Note_on_c, 0, 29, 25
3, 52200, Note_on_c, 0, 29, 0
3, 52200, Note_on_c, 0, 41, 24
3, 52320, Note_on_c, 0, 51, 20
3, 52440, Note_on_c, 0, 51, 0
3, 52440, Note_on_c, 0, 41, 0
3, 52440, Note_on_c, 0, 51, 20
3, 52440, Note_on_c, 0, 41, 17
3, 52560, Note_on_c, 0, 51, 0
3, 52560, Note_on_c, 0, 50, 22
3, 52680, Note_on_c, 0, 41, 0
3, 52680, Note_on_c, 0, 40, 22
3, 52800, Note_on_c, 0, 40, 0
3, 52800, Note_on_c, 0, 41, 21
3, 53640, Note_on_c, 0, 41, 0
3, 53640, Note_on_c, 0, 50, 0
3, 53640, Note_on_c, 0, 41, 24
3, 53760, Note_on_c, 0, 54, 20
3, 53880, Note_on_c, 0, 54, 0
3, 53880, Note_on_c, 0, 41, 0
3, 53880, Note_on_c, 0, 54, 20
3, 53880, Note_on_c, 0, 41, 17
3, 54000, Note_on_c, 0, 54, 0
3, 54000, Note_on_c, 0, 53, 22
3, 54120, Note_on_c, 0, 41, 0
3, 54120, Note_on_c, 0, 40, 22
3, 54240, Note_on_c, 0, 40, 0
3, 54240, Note_on_c, 0, 41, 21
3, 55080, Note_on_c, 0, 41, 0
3, 55080, Note_on_c, 0, 53, 0
3, 55080, Note_on_c, 0, 41, 36
3, 55200, Note_on_c, 0, 51, 25
3, 55200, Note_on_c, 0, 57, 30
3, 55320, Note_on_c, 0, 41, 0
3, 55320, Note_on_c, 0, 41, 26
3, 55440, Note_on_c, 0, 57, 0
3, 55440, Note_on_c, 0, 51, 0
3, 55440, Note_on_c, 0, 50, 25
3, 55440, Note_on_c, 0, 53, 32
3, 55560, Note_on_c, 0, 41, 0
3, 55560, Note_on_c, 0, 40, 58
3, 55680, Note_on_c, 0, 40, 0
3, 55680, Note_on_c, 0, 41, 51
3, 55920, Note_on_c, 0, 53, 0
3, 55920, Note_on_c, 0, 50, 0
3, 55920, Note_on_c, 0, 49, 25
3, 55920, Note_on_c, 0, 53, 30
3, 56160, Note_on_c, 0, 53, 0
3, 56160, Note_on_c, 0, 49, 0
3, 56160, Note_on_c, 0, 48, 25
3, 56160, Note_on_c, 0, 55, 32
3, 56280, Note_on_c, 0, 41, 0
3, 56280, Note_on_c, 0, 40, 56
3, 56400, Note_on_c, 0, 40, 0
3, 56400, Note_on_c, 0, 41, 49
3, 56640, Note_on_c, 0, 55, 0
3, 56640, Note_on_c, 0, 48, 0
3, 56640, Note_on_c, 0, 48, 23
3, 56640, Note_on_c, 0, 55, 28
3, 56880, Note_on_c, 0, 55, 0
3, 56880, Note_on_c, 0, 48, 0
3, 56880, Note_on_c, 0, 49, 23
3, 56880, Note_on_c, 0, 53, 29
3, 57000, Note_on_c, 0, 41, 0
3, 57000, Note_on_c, 0, 40, 50
3, 57120, Note_on_c, 0, 40, 0
3, 57120, Note_on_c, 0, 41, 44
3, 57360, Note_on_c, 0, 53, 0
3, 57360, Note_on_c, 0, 49, 0
3, 57360, Note_on_c, 0, 47, 22
3, 57360, Note_on_c, 0, 53, 26
3, 57600, Note_on_c, 0, 53, 0
3, 57600, Note_on_c, 0, 47, 0
3, 57600, Note_on_c, 0, 46, 21
3, 57600, Note_on_c, 0, 53, 27
3, 57720, Note_on_c, 0, 41, 0
3, 57720, Note_on_c, 0, 40, 46
3, 57840, Note_on_c, 0, 40, 0
3, 57840, Note_on_c, 0, 41, 40
3, 58080, Note_on_c, 0, 53, 0
3, 58080, Note_on_c, 0, 46, 0
3, 58080, Note_on_c, 0, 46, 19
3, 58080, Note_on_c, 0, 53, 23
3, 58320, Note_on_c, 0, 53, 0
3, 58320, Note_on_c, 0, 46, 0
3, 58320, Note_on_c, 0, 48, 24
3, 58440, Note_on_c, 0, 41, 0
3, 58440, Note_on_c, 0, 40, 40
3, 58560, Note_on_c, 0, 40, 0
3, 58560, Note_on_c, 0, 41, 34
3, 59040, Note_on_c, 0, 41, 0
3, 59040, Note_on_c, 0, 48, 0
3, 59040, Note_on_c, 0, 29, 25
3, 59640, Note_on_c, 0, 29, 0
3, 59760, Note_on_c, 0, 22, 25
3, 59880, Note_on_c, 0, 22, 0
3, 59880, Note_on_c, 0, 34, 21
3, 60000, Note_on_c, 0, 34, 0
3, 60000, Note_on_c, 0, 41, 21
3, 60120, Note_on_c, 0, 41, 0
3, 60120, Note_on_c, 0, 46, 21
3, 60240, Note_on_c, 0, 46, 0
3, 60240, Note_on_c, 0, 49, 21
3, 60360, Note_on_c, 0, 49, 0
3, 60360, Note_on_c, 0, 53, 21
3, 60480, Note_on_c, 0, 53, 0
3, 60480, Note_on_c, 0, 46, 22
3, 60480, Note_on_c, 0, 58, 26
3, 60600, Note_on_c, 0, 58, 0
3, 60960, Note_on_c, 0, 46, 0
3, 60960, Note_on_c, 0, 34, 19
3, 61200, Note_on_c, 0, 34, 0
3, 61200, Note_on_c, 0, 49, 19
3, 61200, Note_on_c, 0, 41, 16
3, 61200, Note_on_c, 0, 34, 16
3, 61920, Note_on_c, 0, 34, 0
3, 61920, Note_on_c, 0, 41, 0
3, 61920, Note_on_c, 0, 49, 0
3, 61920, End_track
4, 0, Start_track
4, 0, Title_t, "Pedale"
4, 0, Program_c, 0, 0
4, 519, Control_c, 0, 64, 127
4, 723, Control_c, 0, 64, 0
4, 755, Control_c, 0, 64, 127
4, 912, Control_c, 0, 64, 0
4, 989, Control_c, 0, 64, 127
4, 1160, Control_c, 0, 64, 0
4, 1239, Control_c, 0, 64, 127
4, 1443, Control_c, 0, 64, 0
4, 1475, Control_c, 0, 64, 127
4, 1632, Control_c, 0, 64, 0
4, 1723, Control_c, 0, 64, 127
4, 1880, Control_c, 0, 64, 0
4, 1917, Control_c, 0, 64, 127
4, 2163, Control_c, 0, 64, 0
4, 2195, Control_c, 0, 64, 127
4, 2352, Control_c, 0, 64, 0
4, 2443, Control_c, 0, 64, 127
4, 2600, Control_c, 0, 64, 0
4, 2679, Control_c, 0, 64, 127
4, 2883, Control_c, 0, 64, 0
4, 2915, Control_c, 0, 64, 127
4, 3072, Control_c, 0, 64, 0
4, 3163, Control_c, 0, 64, 127
4, 3320, Control_c, 0, 64, 0
4, 3360, Control_c, 0, 64, 127
4, 3603, Control_c, 0, 64, 0
4, 3635, Control_c, 0, 64, 127
4, 3843, Control_c, 0, 64, 0
4, 3875, Control_c, 0, 64, 127
4, 4032, Control_c, 0, 64, 0
4, 4123, Control_c, 0, 64, 127
4, 4280, Control_c, 0, 64, 0
4, 4359, Control_c, 0, 64, 127
4, 4563, Control_c, 0, 64, 0
4, 4595, Control_c, 0, 64, 127
4, 4752, Control_c, 0, 64, 0
4, 4843, Control_c, 0, 64, 127
4, 5000, Control_c, 0, 64, 0
4, 5069, Control_c, 0, 64, 127
4, 5299, Control_c, 0, 64, 0
4, 5335, Control_c, 0, 64, 127
4, 5537, Control_c, 0, 64, 0
4, 5580, Control_c, 0, 64, 127
4, 5760, Control_c, 0, 64, 0
4, 5795, Control_c, 0, 64, 127
4, 6480, Control_c, 0, 64, 0
4, 6515, Control_c, 0, 64, 127
4, 6916, Control_c, 0, 64, 0
4, 6999, Control_c, 0, 64, 127
4, 7203, Control_c, 0, 64, 0
4, 7235, Control_c, 0, 64, 127
4, 7392, Control_c, 0, 64, 0
4, 7483, Control_c, 0, 64, 127
4, 7640, Control_c, 0, 64, 0
4, 7719, Control_c, 0, 64, 127
4, 7923, Control_c, 0, 64, 0
4, 7955, Control_c, 0, 64, 127
4, 8112, Control_c, 0, 64, 0
4, 8203, Control_c, 0, 64, 127
4, 8360, Control_c, 0, 64, 0
4, 8439, Control_c, 0, 64, 127
4, 8643, Control_c, 0, 64, 0
4, 8675, Control_c, 0, 64, 127
4, 8832, Control_c, 0, 64, 0
4, 8923, Control_c, 0, 64, 127
4, 9080, Control_c, 0, 64, 0
4, 9159, Control_c, 0, 64, 127
4, 9363, Control_c, 0, 64, 0
4, 9395, Control_c, 0, 64, 127
4, 9552, Control_c, 0, 64, 0
4, 9643, Control_c, 0, 64, 127
4, 9800, Control_c, 0, 64, 0
4, 9840, Control_c, 0, 64, 127
4, 10083, Control_c, 0, 64, 0
4, 10115, Control_c, 0, 64, 127
4, 10323, Control_c, 0, 64, 0
4, 10355, Control_c, 0, 64, 127
4, 10512, Control_c, 0, 64, 0
4, 10603, Control_c, 0, 64, 127
4, 10760, Control_c, 0, 64, 0
4, 10839, Control_c, 0, 64, 127
4, 11043, Control_c, 0, 64, 0
4, 11075, Control_c, 0, 64, 127
4, 11232, Control_c, 0, 64, 0
4, 11323, Control_c, 0, 64, 127
4, 11480, Control_c, 0, 64, 0
4, 11549, Control_c, 0, 64, 127
4, 11779, Control_c, 0, 64, 0
4, 11815, Control_c, 0, 64, 127
4, 12017, Control_c, 0, 64, 0
4, 12060, Control_c, 0, 64, 127
4, 12240, Control_c, 0, 64, 0
4, 12275, Control_c, 0, 64, 127
4, 12737, Control_c, 0, 64, 0
4, 12777, Control_c, 0, 64, 127
4, 12963, Control_c, 0, 64, 0
4, 12995, Control_c, 0, 64, 127
4, 13203, Control_c, 0, 64, 0
4, 13235, Control_c, 0, 64, 127
4, 13392, Control_c, 0, 64, 0
4, 13483, Control_c, 0, 64, 127
4, 13640, Control_c, 0, 64, 0
4, 13719, Control_c, 0, 64, 127
4, 13923, Control_c, 0, 64, 0
4, 13955, Control_c, 0, 64, 127
4, 14112, Control_c, 0, 64, 0
4, 14203, Control_c, 0, 64, 127
4, 14360, Control_c, 0, 64, 0
4, 14429, Control_c, 0, 64, 127
4, 14659, Control_c, 0, 64, 0
4, 14695, Control_c, 0, 64, 127
4, 14897, Control_c, 0, 64, 0
4, 14940, Control_c, 0, 64, 127
4, 15120, Control_c, 0, 64, 0
4, 15155, Control_c, 0, 64, 127
4, 16200, Control_c, 0, 64, 0
4, 16239, Control_c, 0, 64, 127
4, 16330, Control_c, 0, 64, 0
4, 16368, Control_c, 0, 64, 127
4, 16449, Control_c, 0, 64, 0
4, 16486, Control_c, 0, 64, 127
4, 16581, Control_c, 0, 64, 0
4, 16966, Control_c, 0, 64, 127
4, 17061, Control_c, 0, 64, 0
4, 17203, Control_c, 0, 64, 127
4, 17284, Control_c, 0, 64, 0
4, 17771, Control_c, 0, 64, 127
4, 17883, Control_c, 0, 64, 0
4, 17930, Control_c, 0, 64, 127
4, 18000, Control_c, 0, 64, 0
4, 18293, Control_c, 0, 64, 127
4, 18501, Control_c, 0, 64, 0
4, 18540, Control_c, 0, 64, 127
4, 18618, Control_c, 0, 64, 0
4, 18664, Control_c, 0, 64, 127
4, 18720, Control_c, 0, 64, 0
4, 18791, Control_c, 0, 64, 127
4, 19440, Control_c, 0, 64, 0
4, 21680, Control_c, 0, 64, 127
4, 21859, Control_c, 0, 64, 0
4, 22000, Control_c, 0, 64, 127
4, 22100, Control_c, 0, 64, 0
4, 22120, Control_c, 0, 64, 127
4, 22223, Control_c, 0, 64, 0
4, 22269, Control_c, 0, 64, 127
4, 22324, Control_c, 0, 64, 0
4, 22712, Control_c, 0, 64, 127
4, 22816, Control_c, 0, 64, 0
4, 22864, Control_c, 0, 64, 127
4, 22924, Control_c, 0, 64, 0
4, 22959, Control_c, 0, 64, 127
4, 23040, Control_c, 0, 64, 0
4, 23412, Control_c, 0, 64, 127
4, 23531, Control_c, 0, 64, 0
4, 23563, Control_c, 0, 64, 127
4, 23659, Control_c, 0, 64, 0
4, 23686, Control_c, 0, 64, 127
4, 23760, Control_c, 0, 64, 0
4, 24177, Control_c, 0, 64, 127
4, 24260, Control_c, 0, 64, 0
4, 24295, Control_c, 0, 64, 127
4, 24377, Control_c, 0, 64, 0
4, 24432, Control_c, 0, 64, 127
4, 24480, Control_c, 0, 64, 0
4, 24572, Control_c, 0, 64, 127
4, 24966, Control_c, 0, 64, 0
4, 25035, Control_c, 0, 64, 127
4, 25200, Control_c, 0, 64, 0
4, 27420, Control_c, 0, 64, 127
4, 27613, Control_c, 0, 64, 0
4, 28357, Control_c, 0, 64, 127
4, 28569, Control_c, 0, 64, 0
4, 28592, Control_c, 0, 64, 127
4, 28715, Control_c, 0, 64, 0
4, 28800, Control_c, 0, 64, 127
4, 28993, Control_c, 0, 64, 0
4, 29083, Control_c, 0, 64, 127
4, 29227, Control_c, 0, 64, 0
4, 29320, Control_c, 0, 64, 127
4, 29400, Control_c, 0, 64, 0
4, 29520, Control_c, 0, 64, 127
4, 29713, Control_c, 0, 64, 0
4, 29803, Control_c, 0, 64, 127
4, 29947, Control_c, 0, 64, 0
4, 30040, Control_c, 0, 64, 127
4, 30120, Control_c, 0, 64, 0
4, 30240, Control_c, 0, 64, 127
4, 30367, Control_c, 0, 64, 0
4, 30635, Control_c, 0, 64, 127
4, 30732, Control_c, 0, 64, 0
4, 30969, Control_c, 0, 64, 127
4, 31084, Control_c, 0, 64, 0
4, 31226, Control_c, 0, 64, 127
4, 31323, Control_c, 0, 64, 0
4, 31460, Control_c, 0, 64, 127
4, 31565, Control_c, 0, 64, 0
4, 31695, Control_c, 0, 64, 127
4, 31805, Control_c, 0, 64, 0
4, 31960, Control_c, 0, 64, 127
4, 32052, Control_c, 0, 64, 0
4, 32192, Control_c, 0, 64, 127
4, 32295, Control_c, 0, 64, 0
4, 32409, Control_c, 0, 64, 127
4, 32524, Control_c, 0, 64, 0
4, 32666, Control_c, 0, 64, 127
4, 32763, Control_c, 0, 64, 0
4, 32900, Control_c, 0, 64, 127
4, 33005, Control_c, 0, 64, 0
4, 33135, Control_c, 0, 64, 127
4, 33245, Control_c, 0, 64, 0
4, 33400, Control_c, 0, 64, 127
4, 33492, Control_c, 0, 64, 0
4, 33632, Control_c, 0, 64, 127
4, 33735, Control_c, 0, 64, 0
4, 33763, Control_c, 0, 64, 127
4, 33849, Control_c, 0, 64, 0
4, 34006, Control_c, 0, 64, 127
4, 34096, Control_c, 0, 64, 0
4, 34271, Control_c, 0, 64, 127
4, 34334, Control_c, 0, 64, 0
4, 34486, Control_c, 0, 64, 127
4, 34570, Control_c, 0, 64, 0
4, 34730, Control_c, 0, 64, 127
4, 34817, Control_c, 0, 64, 0
4, 35079, Control_c, 0, 64, 127
4, 35280, Control_c, 0, 64, 0
4, 35312, Control_c, 0, 64, 127
4, 35528, Control_c, 0, 64, 0
4, 35563, Control_c, 0, 64, 127
4, 35773, Control_c, 0, 64, 0
4, 35803, Control_c, 0, 64, 127
4, 36000, Control_c, 0, 64, 0
4, 36037, Control_c, 0, 64, 127
4, 36255, Control_c, 0, 64, 0
4, 36283, Control_c, 0, 64, 127
4, 36367, Control_c, 0, 64, 0
4, 36403, Control_c, 0, 64, 127
4, 36491, Control_c, 0, 64, 0
4, 36532, Control_c, 0, 64, 127
4, 36608, Control_c, 0, 64, 0
4, 36635, Control_c, 0, 64, 127
4, 36720, Control_c, 0, 64, 0
4, 36763, Control_c, 0, 64, 127
4, 36900, Control_c, 0, 64, 0
4, 37120, Control_c, 0, 64, 127
4, 37443, Control_c, 0, 64, 0
4, 37475, Control_c, 0, 64, 127
4, 37632, Control_c, 0, 64, 0
4, 37723, Control_c, 0, 64, 127
4, 37880, Control_c, 0, 64, 0
4, 37959, Control_c, 0, 64, 127
4, 38163, Control_c, 0, 64, 0
4, 38195, Control_c, 0, 64, 127
4, 38352, Control_c, 0, 64, 0
4, 38443, Control_c, 0, 64, 127
4, 38600, Control_c, 0, 64, 0
4, 38679, Control_c, 0, 64, 127
4, 38883, Control_c, 0, 64, 0
4, 38915, Control_c, 0, 64, 127
4, 39072, Control_c, 0, 64, 0
4, 39163, Control_c, 0, 64, 127
4, 39320, Control_c, 0, 64, 0
4, 39399, Control_c, 0, 64, 127
4, 39603, Control_c, 0, 64, 0
4, 39635, Control_c, 0, 64, 127
4, 39792, Control_c, 0, 64, 0
4, 39883, Control_c, 0, 64, 127
4, 40040, Control_c, 0, 64, 0
4, 40080, Control_c, 0, 64, 127
4, 40323, Control_c, 0, 64, 0
4, 40355, Control_c, 0, 64, 127
4, 40563, Control_c, 0, 64, 0
4, 40595, Control_c, 0, 64, 127
4, 40752, Control_c, 0, 64, 0
4, 40843, Control_c, 0, 64, 127
4, 41000, Control_c, 0, 64, 0
4, 41079, Control_c, 0, 64, 127
4, 41283, Control_c, 0, 64, 0
4, 41315, Control_c, 0, 64, 127
4, 41472, Control_c, 0, 64, 0
4, 41563, Control_c, 0, 64, 127
4, 41720, Control_c, 0, 64, 0
4, 41789, Control_c, 0, 64, 127
4, 42019, Control_c, 0, 64, 0
4, 42055, Control_c, 0, 64, 127
4, 42257, Control_c, 0, 64, 0
4, 42300, Control_c, 0, 64, 127
4, 42480, Control_c, 0, 64, 0
4, 42515, Control_c, 0, 64, 127
4, 43200, Control_c, 0, 64, 0
4, 43235, Control_c, 0, 64, 127
4, 43688, Control_c, 0, 64, 0
4, 43719, Control_c, 0, 64, 127
4, 43923, Control_c, 0, 64, 0
4, 43955, Control_c, 0, 64, 127
4, 44112, Control_c, 0, 64, 0
4, 44203, Control_c, 0, 64, 127
4, 44360, Control_c, 0, 64, 0
4, 44439, Control_c, 0, 64, 127
4, 44643, Control_c, 0, 64, 0
4, 44675, Control_c, 0, 64, 127
4, 44832, Control_c, 0, 64, 0
4, 44923, Control_c, 0, 64, 127
4, 45080, Control_c, 0, 64, 0
4, 45159, Control_c, 0, 64, 127
4, 45363, Control_c, 0, 64, 0
4, 45395, Control_c, 0, 64, 127
4, 45552, Control_c, 0, 64, 0
4, 45643, Control_c, 0, 64, 127
4, 45800, Control_c, 0, 64, 0
4, 45879, Control_c, 0, 64, 127
4, 46083, Control_c, 0, 64, 0
4, 46115, Control_c, 0, 64, 127
4, 46272, Control_c, 0, 64, 0
4, 46363, Control_c, 0, 64, 127
4, 46520, Control_c, 0, 64, 0
4, 46560, Control_c, 0, 64, 127
4, 46803, Control_c, 0, 64, 0
4, 46835, Control_c, 0, 64, 127
4, 46992, Control_c, 0, 64, 0
4, 47083, Control_c, 0, 64, 127
4, 47240, Control_c, 0, 64, 0
4, 47280, Control_c, 0, 64, 127
4, 47523, Control_c, 0, 64, 0
4, 47555, Control_c, 0, 64, 127
4, 47712, Control_c, 0, 64, 0
4, 47803, Control_c, 0, 64, 127
4, 47960, Control_c, 0, 64, 0
4, 48000, Control_c, 0, 64, 127
4, 48249, Control_c, 0, 64, 0
4, 48289, Control_c, 0, 64, 127
4, 48969, Control_c, 0, 64, 0
4, 49009, Control_c, 0, 64, 127
4, 49689, Control_c, 0, 64, 0
4, 49729, Control_c, 0, 64, 127
4, 50409, Control_c, 0, 64, 0
4, 50449, Control_c, 0, 64, 127
4, 51129, Control_c, 0, 64, 0
4, 51169, Control_c, 0, 64, 127
4, 51840, Control_c, 0, 64, 0
4, 51960, Control_c, 0, 64, 127
4, 52200, Control_c, 0, 64, 0
4, 52252, Control_c, 0, 64, 127
4, 52337, Control_c, 0, 64, 0
4, 52395, Control_c, 0, 64, 127
4, 52455, Control_c, 0, 64, 0
4, 52492, Control_c, 0, 64, 127
4, 52568, Control_c, 0, 64, 0
4, 52932, Control_c, 0, 64, 127
4, 53640, Control_c, 0, 64, 0
4, 53710, Control_c, 0, 64, 127
4, 53776, Control_c, 0, 64, 0
4, 53830, Control_c, 0, 64, 127
4, 53893, Control_c, 0, 64, 0
4, 53936, Control_c, 0, 64, 127
4, 54000, Control_c, 0, 64, 0
4, 54372, Control_c, 0, 64, 127
4, 55080, Control_c, 0, 64, 0
4, 55144, Control_c, 0, 64, 127
4, 55210, Control_c, 0, 64, 0
4, 55299, Control_c, 0, 64, 127
4, 55443, Control_c, 0, 64, 0
4, 55863, Control_c, 0, 64, 127
4, 55935, Control_c, 0, 64, 0
4, 56006, Control_c, 0, 64, 127
4, 56177, Control_c, 0, 64, 0
4, 56617, Control_c, 0, 64, 127
4, 56880, Control_c, 0, 64, 0
4, 57315, Control_c, 0, 64, 127
4, 57372, Control_c, 0, 64, 0
4, 57440, Control_c, 0, 64, 127
4, 57606, Control_c, 0, 64, 0
4, 58023, Control_c, 0, 64, 127
4, 58320, Control_c, 0, 64, 0
4, 58663, Control_c, 0, 64, 127
4, 59040, Control_c, 0, 64, 0
4, 59153, Control_c, 0, 64, 127
4, 59297, Control_c, 0, 64, 0
4, 59372, Control_c, 0, 64, 127
4, 59534, Control_c, 0, 64, 0
4, 59598, Control_c, 0, 64, 127
4, 59760, Control_c, 0, 64, 0
4, 59817, Control_c, 0, 64, 127
4, 62440, Control_c, 0, 64, 0
4, 62440, End_track
5, 0, Start_track
5, 0, Title_t, "Brahms: Intermezzo  Opus 117 No. 2"
5, 0, End_track
6, 0, Start_track
6, 0, Title_t, "Copyright © 2010 by Bernd Krueger"
6, 0, End_track
7, 0, Start_track
7, 0, Title_t, "http://www.piano-midi.de/"
7, 0, End_track
8, 0, Start_track
8, 0, Title_t, "Edition: 2010-10-26"
8, 0, End_track
9, 0, Start_track
9, 0, Title_t, "Spur 8"
9, 0, End_track
10, 0, Start_track
10, 0, Title_t, "Spur 9"
10, 0, End_track
11, 0, Start_track
11, 0, Title_t, "Spur 10"
11, 0, End_track
12, 0, Start_track
12, 0, Title_t, "Spur 11"
12, 0, End_track
13, 0, Start_track
13, 0, Title_t, "Spur 12"
13, 0, End_track
14, 0, Start_track
14, 0, Title_t, "Spur 13"
14, 0, End_track
15, 0, Start_track
15, 0, Title_t, "Spur 14"
15, 0, End_track
16, 0, Start_track
16, 0, Title_t, "Spur 15"
16, 0, End_track
17, 0, Start_track
17, 0, Title_t, "Spur 16"
17, 0, End_track
0, 0, End_of_file
