0, 0, Header, 1, 17, 480
1, 0, Start_track
1, 0, Title_t, "Sonate in C 2. Satz"
1, 0, Copyright_t, "Copyright © 2009 by Bernd Krueger"
1, 0, Text_t, "Johannes Brahms"
1, 0, Text_t, "Andante"
1, 0, Text_t, "Erstellt: 25.4.2009\012"
1, 0, Text_t, "Dauer: 4:42 Minuten\012"
1, 0, Time_signature, 2, 2, 24, 8
1, 0, Key_signature, -3, "major"
1, 0, Tempo, 741565
1, 720, Tempo, 1503383
1, 1680, Tempo, 1647899
1, 1920, Tempo, 1769390
1, 2160, Tempo, 1880288
1, 2400, Tempo, 2149767
1, 2880, Tempo, 1582696
1, 3360, Tempo, 1503383
1, 4200, Tempo, 1880288
1, 4320, Tempo, 3893576
1, 4560, Tempo, 1542020
1, 5520, Tempo, 1647899
1, 5760, Tempo, 1769390
1, 6000, Tempo, 1880288
1, 6240, Tempo, 2229654
1, 6720, Tempo, 1582696
1, 7200, Tempo, 1503383
1, 8040, Tempo, 1880288
1, 8160, Tempo, 3350084
1, 8400, Tempo, 1562093
1, 8640, Tempo, 1743679
1, 8880, Tempo, 1603849
1, 9000, Tempo, 1823154
1, 9120, Tempo, 1718705
1, 9600, Tempo, 1743679
1, 9840, Tempo, 1603849
1, 9960, Tempo, 1823154
1, 10080, Tempo, 1718705
1, 11040, Tempo, 1603849
1, 11280, Tempo, 1795870
1, 11520, Tempo, 1694437
1, 11880, Tempo, 1880288
1, 12000, Tempo, 3172924
1, 12240, Tempo, 1503383
1, 13200, Tempo, 1647899
1, 13440, Tempo, 1769390
1, 13680, Tempo, 1880288
1, 13920, Tempo, 2149767
1, 14400, Tempo, 1582696
1, 14880, Tempo, 1503383
1, 15720, Tempo, 1880288
1, 15840, Tempo, 3893576
1, 16320, Tempo, 1603849
1, 17040, Tempo, 1503383
1, 18000, Tempo, 1562093
1, 18240, Tempo, 1582696
1, 18480, Tempo, 1647899
1, 18720, Tempo, 2509410
1, 18840, Tempo, 1769390
1, 18960, Tempo, 1769390
1, 19200, Tempo, 1582696
1, 19680, Tempo, 1503383
1, 20520, Tempo, 1880288
1, 20640, Tempo, 1743679
1, 21120, Tempo, 1562093
1, 21240, Tempo, 1503383
1, 21480, Tempo, 1670844
1, 21600, Tempo, 1582696
1, 22080, Tempo, 1562093
1, 22160, Tempo, 1582696
1, 22320, Tempo, 1647899
1, 22560, Tempo, 1484781
1, 22680, Tempo, 1647899
1, 22800, Tempo, 1769390
1, 24240, Tempo, 1503383
1, 24360, Tempo, 1880288
1, 24480, Tempo, 3893576
1, 24960, Tempo, 1603849
1, 25680, Tempo, 1503383
1, 26640, Tempo, 1562093
1, 26880, Tempo, 1582696
1, 27120, Tempo, 1647899
1, 27360, Tempo, 2509410
1, 27480, Tempo, 1769390
1, 27600, Tempo, 1769390
1, 27840, Tempo, 1582696
1, 28080, Tempo, 1647899
1, 28320, Tempo, 2509410
1, 28440, Tempo, 1769390
1, 28560, Tempo, 1769390
1, 28770, Tempo, 1503383
1, 29520, Tempo, 1562093
1, 29730, Tempo, 1503383
1, 30160, Tempo, 1694437
1, 30240, Tempo, 1647899
1, 30480, Tempo, 1769390
1, 30720, Tempo, 1503383
1, 30960, Tempo, 1562093
1, 31680, Tempo, 1503383
1, 31920, Tempo, 1562093
1, 32080, Tempo, 1823154
1, 32160, Tempo, 1823154
1, 32320, Tempo, 1562093
1, 32640, Tempo, 1503383
1, 33360, Tempo, 1503383
1, 34320, Tempo, 1562093
1, 34560, Tempo, 1582696
1, 34800, Tempo, 1647899
1, 35040, Tempo, 2509410
1, 35160, Tempo, 1769390
1, 35280, Tempo, 1769390
1, 35520, Tempo, 1582696
1, 35760, Tempo, 1647899
1, 36000, Tempo, 2509410
1, 36120, Tempo, 1769390
1, 36240, Tempo, 1769390
1, 36450, Tempo, 1503383
1, 37200, Tempo, 1562093
1, 37410, Tempo, 1503383
1, 37840, Tempo, 1694437
1, 37920, Tempo, 1647899
1, 38160, Tempo, 1769390
1, 38400, Tempo, 1503383
1, 38640, Tempo, 1562093
1, 39360, Tempo, 1503383
1, 39600, Tempo, 1562093
1, 39760, Tempo, 1823154
1, 39840, Tempo, 1823154
1, 40000, Tempo, 2040122
1, 40320, Tempo, 1743679
1, 40560, Tempo, 1603849
1, 40680, Tempo, 1823154
1, 40800, Tempo, 1718705
1, 41280, Tempo, 1743679
1, 41520, Tempo, 1603849
1, 41640, Tempo, 2271867
1, 41760, Tempo, 1718705
1, 42720, Tempo, 1603849
1, 42960, Tempo, 1941119
1, 43200, Tempo, 1694437
1, 43560, Tempo, 1880288
1, 43680, Tempo, 3172924
1, 44160, Time_signature, 4, 4, 6, 8
1, 44160, Tempo, 1743679
1, 44400, Tempo, 1603849
1, 44520, Tempo, 1823154
1, 44640, Time_signature, 3, 4, 6, 8
1, 44640, Tempo, 2006018
1, 44760, Tempo, 1582696
1, 45000, Tempo, 1522456
1, 45120, Tempo, 1694437
1, 45180, Tempo, 1484781
1, 45240, Tempo, 1522456
1, 45300, Tempo, 1647899
1, 45360, Tempo, 1562093
1, 45720, Time_signature, 4, 4, 6, 8
1, 45720, Tempo, 1743679
1, 45960, Tempo, 1603849
1, 46080, Tempo, 1823154
1, 46200, Time_signature, 3, 4, 6, 8
1, 46200, Tempo, 1973035
1, 46320, Tempo, 1582696
1, 46560, Tempo, 1522456
1, 46680, Tempo, 1694437
1, 46740, Tempo, 1484781
1, 46800, Tempo, 1522456
1, 46860, Tempo, 1647899
1, 46920, Tempo, 1562093
1, 47280, Time_signature, 2, 2, 24, 8
1, 47280, Tempo, 1503383
1, 47520, Tempo, 1562093
1, 48240, Tempo, 1503383
1, 48480, Tempo, 1562093
1, 48640, Tempo, 1823154
1, 48720, Tempo, 1823154
1, 48880, Tempo, 2040122
1, 49200, Tempo, 1542020
1, 49920, Tempo, 1503383
1, 50080, Tempo, 1694437
1, 50160, Key_signature, 0, "major"
1, 50160, Tempo, 1503383
1, 50880, Tempo, 1562093
1, 51120, Tempo, 1542020
1, 51360, Tempo, 1625576
1, 51600, Tempo, 1647899
1, 51720, Tempo, 1769390
1, 51840, Tempo, 1670844
1, 52080, Tempo, 1562093
1, 52240, Tempo, 1694437
1, 52320, Tempo, 1562093
1, 52560, Tempo, 1582696
1, 53040, Tempo, 1718705
1, 53280, Tempo, 1851280
1, 53360, Tempo, 1769390
1, 53440, Tempo, 2149767
1, 53520, Tempo, 2006018
1, 53600, Tempo, 2618944
1, 53680, Tempo, 4647560
1, 53760, Tempo, 1503383
1, 53920, Tempo, 1694437
1, 54000, Tempo, 1503383
1, 54720, Tempo, 1562093
1, 54960, Tempo, 1542020
1, 55200, Tempo, 1582696
1, 55440, Tempo, 1522456
1, 55520, Tempo, 1670844
1, 55560, Tempo, 1769390
1, 55600, Tempo, 1603849
1, 55680, Tempo, 1625576
1, 55920, Tempo, 1562093
1, 56160, Tempo, 1562093
1, 56320, Tempo, 1670844
1, 56400, Tempo, 1562093
1, 56640, Tempo, 1562093
1, 56800, Tempo, 1670844
1, 56880, Tempo, 1542020
1, 57120, Tempo, 1582696
1, 57360, Tempo, 1795870
1, 57520, Tempo, 1973035
1, 57680, Tempo, 2315708
1, 57840, Tempo, 1484781
1, 58240, Tempo, 1647899
1, 58320, Tempo, 1484781
1, 58560, Tempo, 1582696
1, 58800, Tempo, 1466634
1, 59200, Tempo, 1647899
1, 59280, Tempo, 1448925
1, 59760, Tempo, 1431639
1, 60160, Tempo, 1603849
1, 60240, Tempo, 1448925
1, 60640, Tempo, 1522456
1, 60720, Tempo, 1448925
1, 61167, Tempo, 1466634
1, 61263, Tempo, 1484781
1, 61340, Tempo, 1503383
1, 61416, Tempo, 1522456
1, 61512, Tempo, 1542020
1, 61589, Tempo, 1562093
1, 61666, Tempo, 1582696
1, 61680, Tempo, 1718705
1, 61760, Tempo, 1466634
1, 62080, Tempo, 1603849
1, 62160, Tempo, 1448925
1, 62560, Tempo, 1625576
1, 62640, Tempo, 1466634
1, 63040, Tempo, 1670844
1, 63120, Tempo, 1484781
1, 63129, Tempo, 1484781
1, 63149, Tempo, 1484781
1, 63206, Tempo, 1503383
1, 63245, Tempo, 1522456
1, 63302, Tempo, 1542020
1, 63341, Tempo, 1562093
1, 63398, Tempo, 1582696
1, 63437, Tempo, 1603849
1, 63520, Tempo, 2111932
1, 63600, Tempo, 1694437
1, 63629, Tempo, 1743679
1, 64070, Tempo, 1694437
1, 64109, Tempo, 1718705
1, 64128, Tempo, 1743679
1, 64166, Tempo, 1769390
1, 64185, Tempo, 1795870
1, 64205, Tempo, 1823154
1, 64243, Tempo, 1851280
1, 64262, Tempo, 1880288
1, 64301, Tempo, 1910220
1, 64320, Tempo, 1941119
1, 64339, Tempo, 1973035
1, 64377, Tempo, 2006018
1, 64397, Tempo, 2040122
1, 64435, Tempo, 2075406
1, 64454, Tempo, 2111932
1, 64473, Tempo, 2149767
1, 64512, Tempo, 2188982
1, 64531, Tempo, 2229654
1, 64550, Tempo, 2271867
1, 64560, Tempo, 1851280
1, 64800, Tempo, 1694437
1, 65280, Tempo, 1582696
1, 65520, Tempo, 1562093
1, 66240, Tempo, 1647899
1, 66480, Tempo, 1582696
1, 67200, Tempo, 1582696
1, 67440, Tempo, 1562093
1, 68160, Tempo, 1647899
1, 68400, Tempo, 1582696
1, 69120, Tempo, 1582696
1, 69360, Tempo, 1562093
1, 70080, Tempo, 1647899
1, 70320, Tempo, 1582696
1, 71040, Tempo, 1582696
1, 71280, Tempo, 1562093
1, 72000, Tempo, 1647899
1, 72240, Tempo, 1582696
1, 72480, Tempo, 1522456
1, 72720, Tempo, 1582696
1, 72960, Tempo, 1625576
1, 73200, Tempo, 1582696
1, 73440, Tempo, 1522456
1, 73680, Tempo, 1582696
1, 73920, Tempo, 1625576
1, 74160, Tempo, 1582696
1, 74400, Tempo, 1522456
1, 74640, Tempo, 1603849
1, 74880, Tempo, 1743679
1, 75120, Tempo, 1694437
1, 75360, Tempo, 1625576
1, 75600, Tempo, 1718705
1, 75840, Tempo, 1851280
1, 76080, Tempo, 1910220
1, 76320, Tempo, 2075406
1, 76560, Tempo, 2229654
1, 76800, Tempo, 3656307
1, 77040, Tempo, 3259098
1, 77040, End_track
2, 0, Start_track
2, 0, Title_t, "Piano right"
2, 0, Program_c, 0, 0
2, 2880, Note_on_c, 0, 55, 34
2, 2880, Note_on_c, 0, 60, 40
2, 3336, Note_on_c, 0, 60, 0
2, 3336, Note_on_c, 0, 55, 0
2, 3360, Note_on_c, 0, 60, 31
2, 3360, Note_on_c, 0, 67, 37
2, 3816, Note_on_c, 0, 67, 0
2, 3816, Note_on_c, 0, 60, 0
2, 3840, Note_on_c, 0, 60, 34
2, 3840, Note_on_c, 0, 63, 40
2, 4080, Note_on_c, 0, 63, 0
2, 4080, Note_on_c, 0, 60, 0
2, 4080, Note_on_c, 0, 59, 31
2, 4080, Note_on_c, 0, 62, 37
2, 4260, Note_on_c, 0, 62, 0
2, 4260, Note_on_c, 0, 59, 0
2, 4260, Note_on_c, 0, 63, 34
2, 4320, Note_on_c, 0, 63, 0
2, 4320, Note_on_c, 0, 55, 34
2, 4320, Note_on_c, 0, 60, 40
2, 4540, Note_on_c, 0, 60, 0
2, 4540, Note_on_c, 0, 55, 0
2, 6720, Note_on_c, 0, 55, 34
2, 6720, Note_on_c, 0, 60, 40
2, 7176, Note_on_c, 0, 60, 0
2, 7176, Note_on_c, 0, 55, 0
2, 7200, Note_on_c, 0, 60, 31
2, 7200, Note_on_c, 0, 67, 37
2, 7656, Note_on_c, 0, 67, 0
2, 7656, Note_on_c, 0, 60, 0
2, 7680, Note_on_c, 0, 60, 34
2, 7680, Note_on_c, 0, 63, 40
2, 7920, Note_on_c, 0, 63, 0
2, 7920, Note_on_c, 0, 60, 0
2, 7920, Note_on_c, 0, 59, 31
2, 7920, Note_on_c, 0, 62, 37
2, 8100, Note_on_c, 0, 62, 0
2, 8100, Note_on_c, 0, 59, 0
2, 8100, Note_on_c, 0, 63, 34
2, 8160, Note_on_c, 0, 63, 0
2, 8160, Note_on_c, 0, 55, 34
2, 8160, Note_on_c, 0, 60, 40
2, 8630, Note_on_c, 0, 60, 0
2, 8630, Note_on_c, 0, 55, 0
2, 8640, Note_on_c, 0, 55, 34
2, 8640, Note_on_c, 0, 60, 40
2, 8860, Note_on_c, 0, 60, 0
2, 8860, Note_on_c, 0, 55, 0
2, 8880, Note_on_c, 0, 55, 31
2, 8880, Note_on_c, 0, 59, 37
2, 8990, Note_on_c, 0, 59, 0
2, 8990, Note_on_c, 0, 55, 0
2, 9000, Note_on_c, 0, 55, 34
2, 9000, Note_on_c, 0, 60, 34
2, 9110, Note_on_c, 0, 60, 0
2, 9110, Note_on_c, 0, 55, 0
2, 9120, Note_on_c, 0, 55, 34
2, 9120, Note_on_c, 0, 62, 40
2, 9590, Note_on_c, 0, 62, 0
2, 9590, Note_on_c, 0, 55, 0
2, 9600, Note_on_c, 0, 55, 34
2, 9600, Note_on_c, 0, 60, 40
2, 9820, Note_on_c, 0, 60, 0
2, 9820, Note_on_c, 0, 55, 0
2, 9840, Note_on_c, 0, 55, 31
2, 9840, Note_on_c, 0, 59, 37
2, 9950, Note_on_c, 0, 59, 0
2, 9950, Note_on_c, 0, 55, 0
2, 9960, Note_on_c, 0, 55, 34
2, 9960, Note_on_c, 0, 60, 34
2, 10070, Note_on_c, 0, 60, 0
2, 10070, Note_on_c, 0, 55, 0
2, 10080, Note_on_c, 0, 59, 34
2, 10080, Note_on_c, 0, 62, 40
2, 10550, Note_on_c, 0, 62, 0
2, 10550, Note_on_c, 0, 59, 0
2, 10560, Note_on_c, 0, 55, 34
2, 10560, Note_on_c, 0, 60, 40
2, 11025, Note_on_c, 0, 60, 0
2, 11025, Note_on_c, 0, 55, 0
2, 11040, Note_on_c, 0, 58, 35
2, 11040, Note_on_c, 0, 67, 42
2, 11268, Note_on_c, 0, 67, 0
2, 11268, Note_on_c, 0, 58, 0
2, 11280, Note_on_c, 0, 58, 37
2, 11280, Note_on_c, 0, 67, 44
2, 11508, Note_on_c, 0, 67, 0
2, 11508, Note_on_c, 0, 58, 0
2, 11520, Note_on_c, 0, 60, 37
2, 11520, Note_on_c, 0, 63, 44
2, 11760, Note_on_c, 0, 63, 0
2, 11760, Note_on_c, 0, 60, 0
2, 11760, Note_on_c, 0, 59, 31
2, 11760, Note_on_c, 0, 62, 37
2, 11940, Note_on_c, 0, 62, 0
2, 11940, Note_on_c, 0, 59, 0
2, 11940, Note_on_c, 0, 63, 34
2, 12000, Note_on_c, 0, 63, 0
2, 12000, Note_on_c, 0, 55, 34
2, 12000, Note_on_c, 0, 60, 40
2, 12240, Note_on_c, 0, 55, 31
2, 12304, Note_on_c, 0, 55, 0
2, 12320, Note_on_c, 0, 55, 31
2, 12384, Note_on_c, 0, 55, 0
2, 12400, Note_on_c, 0, 55, 26
2, 12464, Note_on_c, 0, 55, 0
2, 12470, Note_on_c, 0, 60, 0
2, 12470, Note_on_c, 0, 55, 0
2, 12480, Note_on_c, 0, 55, 37
2, 12600, Note_on_c, 0, 60, 37
2, 12720, Note_on_c, 0, 60, 0
2, 12840, Note_on_c, 0, 62, 37
2, 12960, Note_on_c, 0, 62, 0
2, 13080, Note_on_c, 0, 63, 37
2, 13200, Note_on_c, 0, 63, 0
2, 13320, Note_on_c, 0, 60, 39
2, 13440, Note_on_c, 0, 60, 0
2, 13560, Note_on_c, 0, 59, 33
2, 13680, Note_on_c, 0, 59, 0
2, 13800, Note_on_c, 0, 60, 32
2, 13920, Note_on_c, 0, 60, 0
2, 14040, Note_on_c, 0, 62, 28
2, 14400, Note_on_c, 0, 62, 0
2, 14400, Note_on_c, 0, 55, 0
2, 14400, Note_on_c, 0, 55, 34
2, 14400, Note_on_c, 0, 60, 40
2, 14856, Note_on_c, 0, 60, 0
2, 14856, Note_on_c, 0, 55, 0
2, 14880, Note_on_c, 0, 60, 31
2, 14880, Note_on_c, 0, 67, 37
2, 15336, Note_on_c, 0, 67, 0
2, 15336, Note_on_c, 0, 60, 0
2, 15360, Note_on_c, 0, 60, 34
2, 15360, Note_on_c, 0, 63, 40
2, 15600, Note_on_c, 0, 63, 0
2, 15600, Note_on_c, 0, 60, 0
2, 15600, Note_on_c, 0, 59, 31
2, 15600, Note_on_c, 0, 62, 37
2, 15780, Note_on_c, 0, 62, 0
2, 15780, Note_on_c, 0, 59, 0
2, 15780, Note_on_c, 0, 63, 34
2, 15840, Note_on_c, 0, 63, 0
2, 15840, Note_on_c, 0, 60, 40
2, 17040, Note_on_c, 0, 60, 0
2, 17040, Note_on_c, 0, 67, 31
2, 17104, Note_on_c, 0, 67, 0
2, 17120, Note_on_c, 0, 67, 31
2, 17184, Note_on_c, 0, 67, 0
2, 17200, Note_on_c, 0, 67, 26
2, 17264, Note_on_c, 0, 67, 0
2, 17280, Note_on_c, 0, 67, 37
2, 17360, Note_on_c, 0, 60, 28
2, 17360, Note_on_c, 0, 72, 33
2, 17424, Note_on_c, 0, 72, 0
2, 17424, Note_on_c, 0, 60, 0
2, 17440, Note_on_c, 0, 60, 28
2, 17440, Note_on_c, 0, 72, 33
2, 17504, Note_on_c, 0, 72, 0
2, 17504, Note_on_c, 0, 60, 0
2, 17600, Note_on_c, 0, 62, 27
2, 17600, Note_on_c, 0, 74, 32
2, 17664, Note_on_c, 0, 74, 0
2, 17664, Note_on_c, 0, 62, 0
2, 17680, Note_on_c, 0, 62, 27
2, 17680, Note_on_c, 0, 74, 32
2, 17744, Note_on_c, 0, 74, 0
2, 17744, Note_on_c, 0, 62, 0
2, 17840, Note_on_c, 0, 63, 28
2, 17840, Note_on_c, 0, 75, 34
2, 17904, Note_on_c, 0, 75, 0
2, 17904, Note_on_c, 0, 63, 0
2, 17920, Note_on_c, 0, 63, 28
2, 17920, Note_on_c, 0, 75, 34
2, 17984, Note_on_c, 0, 75, 0
2, 17984, Note_on_c, 0, 63, 0
2, 18080, Note_on_c, 0, 60, 28
2, 18080, Note_on_c, 0, 72, 33
2, 18144, Note_on_c, 0, 72, 0
2, 18144, Note_on_c, 0, 60, 0
2, 18160, Note_on_c, 0, 60, 28
2, 18160, Note_on_c, 0, 72, 33
2, 18224, Note_on_c, 0, 72, 0
2, 18224, Note_on_c, 0, 60, 0
2, 18320, Note_on_c, 0, 59, 31
2, 18320, Note_on_c, 0, 71, 37
2, 18384, Note_on_c, 0, 71, 0
2, 18384, Note_on_c, 0, 59, 0
2, 18400, Note_on_c, 0, 59, 32
2, 18400, Note_on_c, 0, 71, 38
2, 18464, Note_on_c, 0, 71, 0
2, 18464, Note_on_c, 0, 59, 0
2, 18560, Note_on_c, 0, 62, 42
2, 18560, Note_on_c, 0, 74, 49
2, 18624, Note_on_c, 0, 74, 0
2, 18624, Note_on_c, 0, 62, 0
2, 18640, Note_on_c, 0, 62, 42
2, 18640, Note_on_c, 0, 74, 50
2, 18704, Note_on_c, 0, 74, 0
2, 18704, Note_on_c, 0, 62, 0
2, 18720, Note_on_c, 0, 67, 0
2, 18840, Note_on_c, 0, 68, 56
2, 18840, Note_on_c, 0, 80, 65
2, 19200, Note_on_c, 0, 80, 0
2, 19200, Note_on_c, 0, 68, 0
2, 19200, Note_on_c, 0, 68, 38
2, 19200, Note_on_c, 0, 73, 45
2, 19651, Note_on_c, 0, 73, 0
2, 19651, Note_on_c, 0, 68, 0
2, 19680, Note_on_c, 0, 68, 39
2, 19680, Note_on_c, 0, 72, 39
2, 19680, Note_on_c, 0, 75, 39
2, 19680, Note_on_c, 0, 80, 47
2, 20131, Note_on_c, 0, 80, 0
2, 20131, Note_on_c, 0, 75, 0
2, 20155, Note_on_c, 0, 72, 0
2, 20155, Note_on_c, 0, 68, 0
2, 20160, Note_on_c, 0, 68, 28
2, 20160, Note_on_c, 0, 73, 28
2, 20160, Note_on_c, 0, 80, 40
2, 20400, Note_on_c, 0, 80, 0
2, 20400, Note_on_c, 0, 73, 0
2, 20400, Note_on_c, 0, 68, 0
2, 20400, Note_on_c, 0, 65, 26
2, 20400, Note_on_c, 0, 71, 26
2, 20400, Note_on_c, 0, 74, 37
2, 20573, Note_on_c, 0, 75, 34
2, 20580, Note_on_c, 0, 74, 0
2, 20580, Note_on_c, 0, 65, 0
2, 20580, Note_on_c, 0, 71, 0
2, 20633, Note_on_c, 0, 75, 0
2, 20640, Note_on_c, 0, 63, 34
2, 20640, Note_on_c, 0, 72, 40
2, 21120, Note_on_c, 0, 72, 0
2, 21120, Note_on_c, 0, 63, 0
2, 21240, Note_on_c, 0, 55, 30
2, 21240, Note_on_c, 0, 60, 30
2, 21300, Note_on_c, 0, 60, 0
2, 21300, Note_on_c, 0, 55, 0
2, 21360, Note_on_c, 0, 55, 34
2, 21360, Note_on_c, 0, 59, 34
2, 21420, Note_on_c, 0, 59, 0
2, 21420, Note_on_c, 0, 55, 0
2, 21480, Note_on_c, 0, 55, 30
2, 21480, Note_on_c, 0, 60, 30
2, 21540, Note_on_c, 0, 60, 0
2, 21540, Note_on_c, 0, 55, 0
2, 21720, Note_on_c, 0, 55, 33
2, 21720, Note_on_c, 0, 59, 33
2, 21720, Note_on_c, 0, 62, 33
2, 21780, Note_on_c, 0, 62, 0
2, 21780, Note_on_c, 0, 59, 0
2, 21780, Note_on_c, 0, 55, 0
2, 21840, Note_on_c, 0, 67, 60
2, 22160, Note_on_c, 0, 60, 31
2, 22160, Note_on_c, 0, 72, 37
2, 22224, Note_on_c, 0, 72, 0
2, 22224, Note_on_c, 0, 60, 0
2, 22240, Note_on_c, 0, 60, 32
2, 22240, Note_on_c, 0, 72, 38
2, 22304, Note_on_c, 0, 72, 0
2, 22304, Note_on_c, 0, 60, 0
2, 22400, Note_on_c, 0, 59, 45
2, 22400, Note_on_c, 0, 71, 53
2, 22464, Note_on_c, 0, 71, 0
2, 22464, Note_on_c, 0, 59, 0
2, 22480, Note_on_c, 0, 60, 47
2, 22480, Note_on_c, 0, 72, 56
2, 22544, Note_on_c, 0, 72, 0
2, 22544, Note_on_c, 0, 60, 0
2, 22680, Note_on_c, 0, 62, 57
2, 22680, Note_on_c, 0, 74, 65
2, 22740, Note_on_c, 0, 74, 0
2, 22740, Note_on_c, 0, 62, 0
2, 22800, Note_on_c, 0, 67, 0
2, 22800, Note_on_c, 0, 68, 56
2, 22800, Note_on_c, 0, 80, 65
2, 23040, Note_on_c, 0, 73, 48
2, 23500, Note_on_c, 0, 73, 0
2, 23520, Note_on_c, 0, 80, 0
2, 23520, Note_on_c, 0, 68, 0
2, 23520, Note_on_c, 0, 69, 51
2, 23520, Note_on_c, 0, 72, 51
2, 23520, Note_on_c, 0, 75, 51
2, 23520, Note_on_c, 0, 81, 61
2, 23860, Note_on_c, 0, 81, 0
2, 23860, Note_on_c, 0, 69, 0
2, 23860, Note_on_c, 0, 72, 0
2, 23860, Note_on_c, 0, 75, 0
2, 23880, Note_on_c, 0, 69, 35
2, 23880, Note_on_c, 0, 72, 35
2, 23880, Note_on_c, 0, 75, 35
2, 23880, Note_on_c, 0, 81, 42
2, 23980, Note_on_c, 0, 81, 0
2, 23980, Note_on_c, 0, 69, 0
2, 23980, Note_on_c, 0, 72, 0
2, 23980, Note_on_c, 0, 75, 0
2, 24000, Note_on_c, 0, 72, 30
2, 24000, Note_on_c, 0, 75, 30
2, 24000, Note_on_c, 0, 79, 36
2, 24120, Note_on_c, 0, 79, 0
2, 24120, Note_on_c, 0, 75, 0
2, 24120, Note_on_c, 0, 72, 0
2, 24240, Note_on_c, 0, 59, 31
2, 24240, Note_on_c, 0, 62, 37
2, 24420, Note_on_c, 0, 62, 0
2, 24420, Note_on_c, 0, 59, 0
2, 24420, Note_on_c, 0, 63, 34
2, 24480, Note_on_c, 0, 63, 0
2, 24480, Note_on_c, 0, 60, 40
2, 25680, Note_on_c, 0, 60, 0
2, 25680, Note_on_c, 0, 79, 40
2, 25760, Note_on_c, 0, 79, 0
2, 25760, Note_on_c, 0, 91, 49
2, 25840, Note_on_c, 0, 91, 0
2, 25840, Note_on_c, 0, 89, 43
2, 25890, Note_on_c, 0, 89, 0
2, 25920, Note_on_c, 0, 87, 51
2, 26000, Note_on_c, 0, 87, 0
2, 26000, Note_on_c, 0, 86, 43
2, 26080, Note_on_c, 0, 86, 0
2, 26080, Note_on_c, 0, 84, 43
2, 26160, Note_on_c, 0, 84, 0
2, 26160, Note_on_c, 0, 83, 50
2, 26240, Note_on_c, 0, 83, 0
2, 26240, Note_on_c, 0, 84, 40
2, 26320, Note_on_c, 0, 84, 0
2, 26320, Note_on_c, 0, 86, 40
2, 26400, Note_on_c, 0, 86, 0
2, 26400, Note_on_c, 0, 84, 49
2, 26420, Note_on_c, 0, 84, 0
2, 26420, Note_on_c, 0, 86, 45
2, 26440, Note_on_c, 0, 86, 0
2, 26440, Note_on_c, 0, 84, 51
2, 26480, Note_on_c, 0, 84, 0
2, 26480, Note_on_c, 0, 79, 42
2, 26560, Note_on_c, 0, 79, 0
2, 26560, Note_on_c, 0, 77, 42
2, 26640, Note_on_c, 0, 77, 0
2, 26640, Note_on_c, 0, 75, 47
2, 26720, Note_on_c, 0, 75, 0
2, 26720, Note_on_c, 0, 74, 40
2, 26800, Note_on_c, 0, 74, 0
2, 26800, Note_on_c, 0, 72, 40
2, 26880, Note_on_c, 0, 72, 0
2, 26880, Note_on_c, 0, 74, 46
2, 26960, Note_on_c, 0, 74, 0
2, 26960, Note_on_c, 0, 79, 38
2, 27040, Note_on_c, 0, 79, 0
2, 27040, Note_on_c, 0, 67, 38
2, 27120, Note_on_c, 0, 67, 0
2, 27120, Note_on_c, 0, 66, 42
2, 27200, Note_on_c, 0, 66, 0
2, 27200, Note_on_c, 0, 69, 37
2, 27280, Note_on_c, 0, 69, 0
2, 27280, Note_on_c, 0, 72, 37
2, 27360, Note_on_c, 0, 72, 0
2, 27360, Note_on_c, 0, 70, 49
2, 27380, Note_on_c, 0, 70, 0
2, 27380, Note_on_c, 0, 72, 45
2, 27400, Note_on_c, 0, 72, 0
2, 27400, Note_on_c, 0, 70, 51
2, 27440, Note_on_c, 0, 70, 0
2, 27440, Note_on_c, 0, 69, 36
2, 27520, Note_on_c, 0, 69, 0
2, 27520, Note_on_c, 0, 67, 38
2, 27840, Note_on_c, 0, 67, 0
2, 27840, Note_on_c, 0, 69, 46
2, 27920, Note_on_c, 0, 69, 0
2, 27920, Note_on_c, 0, 62, 38
2, 28000, Note_on_c, 0, 62, 0
2, 28000, Note_on_c, 0, 74, 38
2, 28080, Note_on_c, 0, 74, 0
2, 28080, Note_on_c, 0, 73, 46
2, 28160, Note_on_c, 0, 73, 0
2, 28160, Note_on_c, 0, 76, 37
2, 28240, Note_on_c, 0, 76, 0
2, 28240, Note_on_c, 0, 79, 39
2, 28320, Note_on_c, 0, 79, 0
2, 28320, Note_on_c, 0, 77, 49
2, 28340, Note_on_c, 0, 77, 0
2, 28340, Note_on_c, 0, 79, 45
2, 28360, Note_on_c, 0, 79, 0
2, 28360, Note_on_c, 0, 77, 51
2, 28400, Note_on_c, 0, 77, 0
2, 28400, Note_on_c, 0, 76, 36
2, 28480, Note_on_c, 0, 76, 0
2, 28480, Note_on_c, 0, 74, 38
2, 28770, Note_on_c, 0, 74, 0
2, 28800, Note_on_c, 0, 74, 44
2, 28800, Note_on_c, 0, 70, 51
2, 28880, Note_on_c, 0, 70, 0
2, 28880, Note_on_c, 0, 69, 43
2, 28960, Note_on_c, 0, 69, 0
2, 28960, Note_on_c, 0, 67, 43
2, 29040, Note_on_c, 0, 67, 0
2, 29040, Note_on_c, 0, 66, 50
2, 29120, Note_on_c, 0, 66, 0
2, 29120, Note_on_c, 0, 67, 40
2, 29200, Note_on_c, 0, 67, 0
2, 29200, Note_on_c, 0, 69, 40
2, 29280, Note_on_c, 0, 69, 0
2, 29280, Note_on_c, 0, 74, 0
2, 29280, Note_on_c, 0, 79, 42
2, 29280, Note_on_c, 0, 70, 51
2, 29360, Note_on_c, 0, 70, 0
2, 29360, Note_on_c, 0, 69, 42
2, 29440, Note_on_c, 0, 69, 0
2, 29440, Note_on_c, 0, 70, 42
2, 29520, Note_on_c, 0, 70, 0
2, 29520, Note_on_c, 0, 75, 47
2, 29600, Note_on_c, 0, 75, 0
2, 29600, Note_on_c, 0, 70, 40
2, 29680, Note_on_c, 0, 70, 0
2, 29680, Note_on_c, 0, 67, 40
2, 29730, Note_on_c, 0, 67, 0
2, 29760, Note_on_c, 0, 79, 0
2, 29760, Note_on_c, 0, 77, 44
2, 29760, Note_on_c, 0, 74, 51
2, 29840, Note_on_c, 0, 74, 0
2, 29840, Note_on_c, 0, 72, 43
2, 29920, Note_on_c, 0, 72, 0
2, 29920, Note_on_c, 0, 70, 43
2, 30000, Note_on_c, 0, 70, 0
2, 30000, Note_on_c, 0, 77, 0
2, 30000, Note_on_c, 0, 75, 42
2, 30000, Note_on_c, 0, 69, 50
2, 30080, Note_on_c, 0, 69, 0
2, 30080, Note_on_c, 0, 70, 40
2, 30160, Note_on_c, 0, 70, 0
2, 30160, Note_on_c, 0, 69, 40
2, 30240, Note_on_c, 0, 69, 0
2, 30240, Note_on_c, 0, 75, 0
2, 30240, Note_on_c, 0, 74, 47
2, 30240, Note_on_c, 0, 70, 49
2, 30260, Note_on_c, 0, 70, 0
2, 30260, Note_on_c, 0, 72, 45
2, 30280, Note_on_c, 0, 72, 0
2, 30280, Note_on_c, 0, 70, 51
2, 30320, Note_on_c, 0, 70, 0
2, 30320, Note_on_c, 0, 69, 42
2, 30400, Note_on_c, 0, 69, 0
2, 30400, Note_on_c, 0, 67, 42
2, 30720, Note_on_c, 0, 67, 0
2, 30720, Note_on_c, 0, 74, 0
2, 30720, Note_on_c, 0, 74, 47
2, 30720, Note_on_c, 0, 70, 49
2, 30740, Note_on_c, 0, 70, 0
2, 30740, Note_on_c, 0, 72, 45
2, 30760, Note_on_c, 0, 72, 0
2, 30760, Note_on_c, 0, 70, 51
2, 30800, Note_on_c, 0, 70, 0
2, 30800, Note_on_c, 0, 69, 42
2, 30880, Note_on_c, 0, 69, 0
2, 30880, Note_on_c, 0, 67, 42
2, 30960, Note_on_c, 0, 67, 0
2, 30960, Note_on_c, 0, 66, 47
2, 31040, Note_on_c, 0, 66, 0
2, 31040, Note_on_c, 0, 67, 42
2, 31120, Note_on_c, 0, 67, 0
2, 31120, Note_on_c, 0, 69, 45
2, 31200, Note_on_c, 0, 69, 0
2, 31200, Note_on_c, 0, 74, 0
2, 31200, Note_on_c, 0, 79, 51
2, 31200, Note_on_c, 0, 70, 49
2, 31280, Note_on_c, 0, 70, 0
2, 31280, Note_on_c, 0, 69, 43
2, 31360, Note_on_c, 0, 69, 0
2, 31360, Note_on_c, 0, 70, 43
2, 31440, Note_on_c, 0, 70, 0
2, 31440, Note_on_c, 0, 79, 0
2, 31440, Note_on_c, 0, 77, 50
2, 31440, Note_on_c, 0, 74, 47
2, 31520, Note_on_c, 0, 74, 0
2, 31520, Note_on_c, 0, 75, 41
2, 31600, Note_on_c, 0, 75, 0
2, 31600, Note_on_c, 0, 74, 39
2, 31680, Note_on_c, 0, 74, 0
2, 31680, Note_on_c, 0, 77, 0
2, 31680, Note_on_c, 0, 75, 51
2, 31680, Note_on_c, 0, 72, 49
2, 31700, Note_on_c, 0, 72, 0
2, 31700, Note_on_c, 0, 74, 45
2, 31720, Note_on_c, 0, 74, 0
2, 31720, Note_on_c, 0, 72, 51
2, 31760, Note_on_c, 0, 72, 0
2, 31760, Note_on_c, 0, 71, 42
2, 31840, Note_on_c, 0, 71, 0
2, 31840, Note_on_c, 0, 70, 42
2, 31920, Note_on_c, 0, 70, 0
2, 31920, Note_on_c, 0, 75, 0
2, 31920, Note_on_c, 0, 68, 47
2, 31920, Note_on_c, 0, 74, 50
2, 32000, Note_on_c, 0, 68, 0
2, 32000, Note_on_c, 0, 67, 42
2, 32080, Note_on_c, 0, 67, 0
2, 32080, Note_on_c, 0, 65, 45
2, 32160, Note_on_c, 0, 65, 0
2, 32160, Note_on_c, 0, 74, 0
2, 32160, Note_on_c, 0, 72, 47
2, 32160, Note_on_c, 0, 63, 49
2, 32180, Note_on_c, 0, 63, 0
2, 32180, Note_on_c, 0, 65, 45
2, 32200, Note_on_c, 0, 65, 0
2, 32200, Note_on_c, 0, 63, 51
2, 32240, Note_on_c, 0, 63, 0
2, 32240, Note_on_c, 0, 62, 42
2, 32320, Note_on_c, 0, 62, 0
2, 32320, Note_on_c, 0, 60, 42
2, 32640, Note_on_c, 0, 72, 0
2, 33360, Note_on_c, 0, 60, 0
2, 33360, Note_on_c, 0, 71, 39
2, 33360, Note_on_c, 0, 74, 39
2, 33360, Note_on_c, 0, 79, 47
2, 33360, Note_on_c, 0, 77, 39
2, 33600, Note_on_c, 0, 77, 0
2, 33600, Note_on_c, 0, 71, 0
2, 33600, Note_on_c, 0, 74, 0
2, 33600, Note_on_c, 0, 79, 0
2, 33600, Note_on_c, 0, 84, 48
2, 33600, Note_on_c, 0, 79, 40
2, 33600, Note_on_c, 0, 75, 40
2, 33600, Note_on_c, 0, 72, 40
2, 33828, Note_on_c, 0, 72, 0
2, 33828, Note_on_c, 0, 84, 0
2, 33828, Note_on_c, 0, 79, 0
2, 33828, Note_on_c, 0, 75, 0
2, 33840, Note_on_c, 0, 86, 52
2, 33840, Note_on_c, 0, 79, 44
2, 33840, Note_on_c, 0, 77, 44
2, 33840, Note_on_c, 0, 74, 44
2, 34068, Note_on_c, 0, 74, 0
2, 34068, Note_on_c, 0, 86, 0
2, 34068, Note_on_c, 0, 79, 0
2, 34068, Note_on_c, 0, 77, 0
2, 34080, Note_on_c, 0, 87, 53
2, 34080, Note_on_c, 0, 79, 45
2, 34080, Note_on_c, 0, 75, 45
2, 34308, Note_on_c, 0, 75, 0
2, 34308, Note_on_c, 0, 79, 0
2, 34308, Note_on_c, 0, 87, 0
2, 34320, Note_on_c, 0, 84, 52
2, 34320, Note_on_c, 0, 79, 44
2, 34320, Note_on_c, 0, 72, 44
2, 34548, Note_on_c, 0, 72, 0
2, 34548, Note_on_c, 0, 79, 0
2, 34548, Note_on_c, 0, 84, 0
2, 34560, Note_on_c, 0, 83, 55
2, 34560, Note_on_c, 0, 79, 46
2, 34560, Note_on_c, 0, 74, 46
2, 34560, Note_on_c, 0, 71, 46
2, 34788, Note_on_c, 0, 71, 0
2, 34788, Note_on_c, 0, 83, 0
2, 34788, Note_on_c, 0, 79, 0
2, 34788, Note_on_c, 0, 74, 0
2, 34800, Note_on_c, 0, 86, 50
2, 34800, Note_on_c, 0, 84, 42
2, 34800, Note_on_c, 0, 81, 42
2, 34800, Note_on_c, 0, 74, 42
2, 35028, Note_on_c, 0, 74, 0
2, 35028, Note_on_c, 0, 86, 0
2, 35028, Note_on_c, 0, 84, 0
2, 35028, Note_on_c, 0, 81, 0
2, 35040, Note_on_c, 0, 91, 55
2, 35040, Note_on_c, 0, 86, 46
2, 35040, Note_on_c, 0, 82, 46
2, 35040, Note_on_c, 0, 79, 46
2, 35520, Note_on_c, 0, 79, 0
2, 35520, Note_on_c, 0, 91, 0
2, 35520, Note_on_c, 0, 86, 0
2, 35520, Note_on_c, 0, 82, 0
2, 35520, Note_on_c, 0, 90, 61
2, 35520, Note_on_c, 0, 86, 51
2, 35520, Note_on_c, 0, 81, 51
2, 35520, Note_on_c, 0, 78, 51
2, 35748, Note_on_c, 0, 78, 0
2, 35748, Note_on_c, 0, 90, 0
2, 35748, Note_on_c, 0, 86, 0
2, 35748, Note_on_c, 0, 81, 0
2, 35760, Note_on_c, 0, 93, 54
2, 35760, Note_on_c, 0, 91, 45
2, 35760, Note_on_c, 0, 88, 45
2, 35760, Note_on_c, 0, 81, 45
2, 35988, Note_on_c, 0, 81, 0
2, 35988, Note_on_c, 0, 93, 0
2, 35988, Note_on_c, 0, 91, 0
2, 35988, Note_on_c, 0, 88, 0
2, 36000, Note_on_c, 0, 98, 63
2, 36000, Note_on_c, 0, 93, 53
2, 36000, Note_on_c, 0, 89, 53
2, 36000, Note_on_c, 0, 86, 53
2, 36480, Note_on_c, 0, 86, 0
2, 36480, Note_on_c, 0, 98, 0
2, 36480, Note_on_c, 0, 93, 0
2, 36480, Note_on_c, 0, 89, 0
2, 36480, Note_on_c, 0, 65, 48
2, 36480, Note_on_c, 0, 74, 57
2, 36960, Note_on_c, 0, 74, 0
2, 36960, Note_on_c, 0, 65, 0
2, 36960, Note_on_c, 0, 67, 50
2, 36960, Note_on_c, 0, 70, 50
2, 36960, Note_on_c, 0, 79, 59
2, 37440, Note_on_c, 0, 79, 0
2, 37440, Note_on_c, 0, 70, 0
2, 37440, Note_on_c, 0, 67, 0
2, 37440, Note_on_c, 0, 77, 44
2, 37440, Note_on_c, 0, 74, 49
2, 37460, Note_on_c, 0, 74, 0
2, 37460, Note_on_c, 0, 75, 45
2, 37480, Note_on_c, 0, 75, 0
2, 37480, Note_on_c, 0, 74, 51
2, 37520, Note_on_c, 0, 74, 0
2, 37520, Note_on_c, 0, 72, 43
2, 37600, Note_on_c, 0, 72, 0
2, 37600, Note_on_c, 0, 70, 43
2, 37680, Note_on_c, 0, 70, 0
2, 37680, Note_on_c, 0, 77, 0
2, 37680, Note_on_c, 0, 75, 42
2, 37680, Note_on_c, 0, 69, 50
2, 37760, Note_on_c, 0, 69, 0
2, 37760, Note_on_c, 0, 70, 40
2, 37840, Note_on_c, 0, 70, 0
2, 37840, Note_on_c, 0, 72, 40
2, 37920, Note_on_c, 0, 72, 0
2, 37920, Note_on_c, 0, 75, 0
2, 37920, Note_on_c, 0, 74, 47
2, 37920, Note_on_c, 0, 70, 49
2, 37940, Note_on_c, 0, 70, 0
2, 37940, Note_on_c, 0, 72, 45
2, 37960, Note_on_c, 0, 72, 0
2, 37960, Note_on_c, 0, 70, 51
2, 38000, Note_on_c, 0, 70, 0
2, 38000, Note_on_c, 0, 69, 42
2, 38080, Note_on_c, 0, 69, 0
2, 38080, Note_on_c, 0, 67, 42
2, 38400, Note_on_c, 0, 67, 0
2, 38400, Note_on_c, 0, 74, 0
2, 38400, Note_on_c, 0, 65, 39
2, 38400, Note_on_c, 0, 74, 47
2, 38880, Note_on_c, 0, 74, 0
2, 38880, Note_on_c, 0, 65, 0
2, 38880, Note_on_c, 0, 79, 51
2, 38880, Note_on_c, 0, 67, 41
2, 39120, Note_on_c, 0, 67, 0
2, 39120, Note_on_c, 0, 79, 0
2, 39120, Note_on_c, 0, 77, 50
2, 39120, Note_on_c, 0, 70, 49
2, 39140, Note_on_c, 0, 70, 0
2, 39140, Note_on_c, 0, 72, 45
2, 39160, Note_on_c, 0, 72, 0
2, 39160, Note_on_c, 0, 70, 51
2, 39200, Note_on_c, 0, 70, 0
2, 39200, Note_on_c, 0, 69, 41
2, 39280, Note_on_c, 0, 69, 0
2, 39280, Note_on_c, 0, 70, 39
2, 39360, Note_on_c, 0, 70, 0
2, 39360, Note_on_c, 0, 77, 0
2, 39360, Note_on_c, 0, 72, 49
2, 39360, Note_on_c, 0, 75, 51
2, 39380, Note_on_c, 0, 72, 0
2, 39380, Note_on_c, 0, 74, 45
2, 39400, Note_on_c, 0, 74, 0
2, 39400, Note_on_c, 0, 72, 51
2, 39440, Note_on_c, 0, 72, 0
2, 39440, Note_on_c, 0, 71, 42
2, 39520, Note_on_c, 0, 71, 0
2, 39520, Note_on_c, 0, 70, 42
2, 39600, Note_on_c, 0, 70, 0
2, 39600, Note_on_c, 0, 75, 0
2, 39600, Note_on_c, 0, 74, 50
2, 39600, Note_on_c, 0, 68, 49
2, 39620, Note_on_c, 0, 68, 0
2, 39620, Note_on_c, 0, 70, 45
2, 39640, Note_on_c, 0, 70, 0
2, 39640, Note_on_c, 0, 68, 51
2, 39680, Note_on_c, 0, 68, 0
2, 39680, Note_on_c, 0, 67, 42
2, 39760, Note_on_c, 0, 67, 0
2, 39760, Note_on_c, 0, 65, 45
2, 39840, Note_on_c, 0, 65, 0
2, 39840, Note_on_c, 0, 74, 0
2, 39840, Note_on_c, 0, 63, 49
2, 39840, Note_on_c, 0, 72, 47
2, 39860, Note_on_c, 0, 63, 0
2, 39860, Note_on_c, 0, 65, 45
2, 39880, Note_on_c, 0, 65, 0
2, 39880, Note_on_c, 0, 63, 51
2, 39920, Note_on_c, 0, 63, 0
2, 39920, Note_on_c, 0, 62, 42
2, 40000, Note_on_c, 0, 62, 0
2, 40000, Note_on_c, 0, 60, 42
2, 40320, Note_on_c, 0, 60, 0
2, 40320, Note_on_c, 0, 72, 0
2, 40320, Note_on_c, 0, 56, 34
2, 40320, Note_on_c, 0, 60, 40
2, 40540, Note_on_c, 0, 60, 0
2, 40540, Note_on_c, 0, 56, 0
2, 40560, Note_on_c, 0, 55, 31
2, 40560, Note_on_c, 0, 58, 37
2, 40670, Note_on_c, 0, 58, 0
2, 40670, Note_on_c, 0, 55, 0
2, 40680, Note_on_c, 0, 56, 34
2, 40680, Note_on_c, 0, 60, 34
2, 40790, Note_on_c, 0, 60, 0
2, 40790, Note_on_c, 0, 56, 0
2, 40800, Note_on_c, 0, 56, 34
2, 40800, Note_on_c, 0, 61, 40
2, 41270, Note_on_c, 0, 61, 0
2, 41270, Note_on_c, 0, 56, 0
2, 41280, Note_on_c, 0, 56, 28
2, 41280, Note_on_c, 0, 60, 40
2, 41500, Note_on_c, 0, 60, 0
2, 41500, Note_on_c, 0, 56, 0
2, 41520, Note_on_c, 0, 55, 39
2, 41520, Note_on_c, 0, 58, 47
2, 41630, Note_on_c, 0, 58, 0
2, 41630, Note_on_c, 0, 55, 0
2, 41640, Note_on_c, 0, 56, 36
2, 41640, Note_on_c, 0, 60, 43
2, 41750, Note_on_c, 0, 60, 0
2, 41750, Note_on_c, 0, 56, 0
2, 41760, Note_on_c, 0, 58, 49
2, 41760, Note_on_c, 0, 63, 58
2, 42230, Note_on_c, 0, 63, 0
2, 42230, Note_on_c, 0, 58, 0
2, 42240, Note_on_c, 0, 56, 38
2, 42240, Note_on_c, 0, 60, 45
2, 42705, Note_on_c, 0, 60, 0
2, 42705, Note_on_c, 0, 56, 0
2, 42720, Note_on_c, 0, 61, 42
2, 42720, Note_on_c, 0, 68, 50
2, 42948, Note_on_c, 0, 68, 0
2, 42948, Note_on_c, 0, 61, 0
2, 42960, Note_on_c, 0, 62, 47
2, 42960, Note_on_c, 0, 68, 56
2, 43188, Note_on_c, 0, 68, 0
2, 43188, Note_on_c, 0, 62, 0
2, 43200, Note_on_c, 0, 63, 46
2, 43200, Note_on_c, 0, 67, 55
2, 43440, Note_on_c, 0, 67, 0
2, 43440, Note_on_c, 0, 63, 0
2, 43440, Note_on_c, 0, 59, 31
2, 43440, Note_on_c, 0, 62, 37
2, 43620, Note_on_c, 0, 62, 0
2, 43620, Note_on_c, 0, 59, 0
2, 43620, Note_on_c, 0, 63, 34
2, 43680, Note_on_c, 0, 63, 0
2, 43680, Note_on_c, 0, 55, 34
2, 43680, Note_on_c, 0, 60, 40
2, 44150, Note_on_c, 0, 60, 0
2, 44150, Note_on_c, 0, 55, 0
2, 44160, Note_on_c, 0, 56, 34
2, 44160, Note_on_c, 0, 60, 40
2, 44380, Note_on_c, 0, 60, 0
2, 44380, Note_on_c, 0, 56, 0
2, 44400, Note_on_c, 0, 55, 31
2, 44400, Note_on_c, 0, 58, 37
2, 44510, Note_on_c, 0, 58, 0
2, 44510, Note_on_c, 0, 55, 0
2, 44520, Note_on_c, 0, 56, 34
2, 44520, Note_on_c, 0, 60, 34
2, 44630, Note_on_c, 0, 60, 0
2, 44630, Note_on_c, 0, 56, 0
2, 44647, Note_on_c, 0, 56, 34
2, 44647, Note_on_c, 0, 61, 40
2, 44820, Note_on_c, 0, 80, 28
2, 44820, Note_on_c, 0, 85, 28
2, 44820, Note_on_c, 0, 92, 34
2, 44865, Note_on_c, 0, 92, 0
2, 44865, Note_on_c, 0, 80, 0
2, 44865, Note_on_c, 0, 85, 0
2, 44880, Note_on_c, 0, 82, 24
2, 44880, Note_on_c, 0, 85, 24
2, 44880, Note_on_c, 0, 91, 29
2, 44925, Note_on_c, 0, 91, 0
2, 44925, Note_on_c, 0, 82, 0
2, 44925, Note_on_c, 0, 85, 0
2, 44940, Note_on_c, 0, 80, 23
2, 44940, Note_on_c, 0, 85, 23
2, 44940, Note_on_c, 0, 89, 28
2, 44985, Note_on_c, 0, 89, 0
2, 44985, Note_on_c, 0, 80, 0
2, 44985, Note_on_c, 0, 85, 0
2, 45000, Note_on_c, 0, 80, 28
2, 45000, Note_on_c, 0, 85, 28
2, 45000, Note_on_c, 0, 89, 34
2, 45007, Note_on_c, 0, 61, 0
2, 45007, Note_on_c, 0, 56, 0
2, 45045, Note_on_c, 0, 85, 0
2, 45045, Note_on_c, 0, 80, 0
2, 45045, Note_on_c, 0, 89, 0
2, 45060, Note_on_c, 0, 79, 28
2, 45060, Note_on_c, 0, 87, 30
2, 45105, Note_on_c, 0, 87, 0
2, 45105, Note_on_c, 0, 79, 0
2, 45120, Note_on_c, 0, 79, 25
2, 45120, Note_on_c, 0, 85, 25
2, 45120, Note_on_c, 0, 87, 30
2, 45165, Note_on_c, 0, 87, 0
2, 45165, Note_on_c, 0, 85, 0
2, 45165, Note_on_c, 0, 79, 0
2, 45180, Note_on_c, 0, 80, 28
2, 45180, Note_on_c, 0, 85, 28
2, 45180, Note_on_c, 0, 92, 34
2, 45225, Note_on_c, 0, 92, 0
2, 45225, Note_on_c, 0, 85, 0
2, 45225, Note_on_c, 0, 80, 0
2, 45240, Note_on_c, 0, 82, 22
2, 45240, Note_on_c, 0, 85, 22
2, 45240, Note_on_c, 0, 91, 27
2, 45285, Note_on_c, 0, 91, 0
2, 45285, Note_on_c, 0, 85, 0
2, 45285, Note_on_c, 0, 82, 0
2, 45300, Note_on_c, 0, 80, 22
2, 45300, Note_on_c, 0, 85, 22
2, 45300, Note_on_c, 0, 89, 27
2, 45345, Note_on_c, 0, 89, 0
2, 45345, Note_on_c, 0, 85, 0
2, 45345, Note_on_c, 0, 80, 0
2, 45360, Note_on_c, 0, 80, 28
2, 45360, Note_on_c, 0, 85, 28
2, 45360, Note_on_c, 0, 89, 34
2, 45405, Note_on_c, 0, 89, 0
2, 45405, Note_on_c, 0, 85, 0
2, 45405, Note_on_c, 0, 80, 0
2, 45420, Note_on_c, 0, 79, 30
2, 45420, Note_on_c, 0, 87, 34
2, 45465, Note_on_c, 0, 87, 0
2, 45465, Note_on_c, 0, 79, 0
2, 45480, Note_on_c, 0, 79, 25
2, 45480, Note_on_c, 0, 85, 25
2, 45480, Note_on_c, 0, 87, 30
2, 45525, Note_on_c, 0, 87, 0
2, 45525, Note_on_c, 0, 85, 0
2, 45525, Note_on_c, 0, 79, 0
2, 45720, Note_on_c, 0, 56, 34
2, 45720, Note_on_c, 0, 60, 40
2, 45940, Note_on_c, 0, 60, 0
2, 45940, Note_on_c, 0, 56, 0
2, 45960, Note_on_c, 0, 55, 31
2, 45960, Note_on_c, 0, 58, 37
2, 46070, Note_on_c, 0, 58, 0
2, 46070, Note_on_c, 0, 55, 0
2, 46080, Note_on_c, 0, 56, 34
2, 46080, Note_on_c, 0, 60, 34
2, 46190, Note_on_c, 0, 60, 0
2, 46190, Note_on_c, 0, 56, 0
2, 46200, Note_on_c, 0, 58, 34
2, 46200, Note_on_c, 0, 63, 40
2, 46380, Note_on_c, 0, 82, 28
2, 46380, Note_on_c, 0, 87, 28
2, 46380, Note_on_c, 0, 94, 34
2, 46425, Note_on_c, 0, 94, 0
2, 46425, Note_on_c, 0, 82, 0
2, 46425, Note_on_c, 0, 87, 0
2, 46440, Note_on_c, 0, 84, 24
2, 46440, Note_on_c, 0, 87, 24
2, 46440, Note_on_c, 0, 93, 29
2, 46485, Note_on_c, 0, 93, 0
2, 46485, Note_on_c, 0, 84, 0
2, 46485, Note_on_c, 0, 87, 0
2, 46500, Note_on_c, 0, 82, 23
2, 46500, Note_on_c, 0, 87, 23
2, 46500, Note_on_c, 0, 91, 28
2, 46545, Note_on_c, 0, 91, 0
2, 46545, Note_on_c, 0, 82, 0
2, 46545, Note_on_c, 0, 87, 0
2, 46560, Note_on_c, 0, 63, 0
2, 46560, Note_on_c, 0, 58, 0
2, 46560, Note_on_c, 0, 82, 28
2, 46560, Note_on_c, 0, 87, 28
2, 46560, Note_on_c, 0, 91, 34
2, 46605, Note_on_c, 0, 91, 0
2, 46605, Note_on_c, 0, 87, 0
2, 46605, Note_on_c, 0, 82, 0
2, 46620, Note_on_c, 0, 81, 28
2, 46620, Note_on_c, 0, 89, 30
2, 46665, Note_on_c, 0, 89, 0
2, 46665, Note_on_c, 0, 81, 0
2, 46680, Note_on_c, 0, 81, 25
2, 46680, Note_on_c, 0, 87, 25
2, 46680, Note_on_c, 0, 89, 30
2, 46725, Note_on_c, 0, 89, 0
2, 46725, Note_on_c, 0, 87, 0
2, 46725, Note_on_c, 0, 81, 0
2, 46740, Note_on_c, 0, 82, 28
2, 46740, Note_on_c, 0, 87, 28
2, 46740, Note_on_c, 0, 94, 34
2, 46785, Note_on_c, 0, 94, 0
2, 46785, Note_on_c, 0, 87, 0
2, 46785, Note_on_c, 0, 82, 0
2, 46800, Note_on_c, 0, 84, 22
2, 46800, Note_on_c, 0, 87, 22
2, 46800, Note_on_c, 0, 93, 27
2, 46845, Note_on_c, 0, 93, 0
2, 46845, Note_on_c, 0, 87, 0
2, 46845, Note_on_c, 0, 84, 0
2, 46860, Note_on_c, 0, 82, 22
2, 46860, Note_on_c, 0, 87, 22
2, 46860, Note_on_c, 0, 91, 27
2, 46905, Note_on_c, 0, 91, 0
2, 46905, Note_on_c, 0, 87, 0
2, 46905, Note_on_c, 0, 82, 0
2, 46920, Note_on_c, 0, 82, 28
2, 46920, Note_on_c, 0, 87, 28
2, 46920, Note_on_c, 0, 91, 34
2, 46965, Note_on_c, 0, 91, 0
2, 46965, Note_on_c, 0, 87, 0
2, 46965, Note_on_c, 0, 82, 0
2, 46980, Note_on_c, 0, 81, 30
2, 46980, Note_on_c, 0, 89, 34
2, 47025, Note_on_c, 0, 89, 0
2, 47025, Note_on_c, 0, 81, 0
2, 47040, Note_on_c, 0, 81, 25
2, 47040, Note_on_c, 0, 87, 25
2, 47040, Note_on_c, 0, 89, 30
2, 47085, Note_on_c, 0, 89, 0
2, 47085, Note_on_c, 0, 87, 0
2, 47085, Note_on_c, 0, 81, 0
2, 47280, Note_on_c, 0, 65, 39
2, 47280, Note_on_c, 0, 74, 47
2, 47760, Note_on_c, 0, 74, 0
2, 47760, Note_on_c, 0, 65, 0
2, 47760, Note_on_c, 0, 79, 51
2, 47760, Note_on_c, 0, 67, 41
2, 48000, Note_on_c, 0, 67, 0
2, 48000, Note_on_c, 0, 79, 0
2, 48000, Note_on_c, 0, 77, 50
2, 48000, Note_on_c, 0, 70, 49
2, 48020, Note_on_c, 0, 70, 0
2, 48020, Note_on_c, 0, 72, 45
2, 48040, Note_on_c, 0, 72, 0
2, 48040, Note_on_c, 0, 70, 51
2, 48080, Note_on_c, 0, 70, 0
2, 48080, Note_on_c, 0, 69, 41
2, 48160, Note_on_c, 0, 69, 0
2, 48160, Note_on_c, 0, 70, 39
2, 48240, Note_on_c, 0, 70, 0
2, 48240, Note_on_c, 0, 77, 0
2, 48240, Note_on_c, 0, 72, 49
2, 48240, Note_on_c, 0, 75, 51
2, 48260, Note_on_c, 0, 72, 0
2, 48260, Note_on_c, 0, 74, 45
2, 48280, Note_on_c, 0, 74, 0
2, 48280, Note_on_c, 0, 72, 51
2, 48320, Note_on_c, 0, 72, 0
2, 48320, Note_on_c, 0, 71, 42
2, 48400, Note_on_c, 0, 71, 0
2, 48400, Note_on_c, 0, 70, 42
2, 48480, Note_on_c, 0, 70, 0
2, 48480, Note_on_c, 0, 75, 0
2, 48480, Note_on_c, 0, 74, 50
2, 48480, Note_on_c, 0, 68, 49
2, 48500, Note_on_c, 0, 68, 0
2, 48500, Note_on_c, 0, 70, 45
2, 48520, Note_on_c, 0, 70, 0
2, 48520, Note_on_c, 0, 68, 51
2, 48560, Note_on_c, 0, 68, 0
2, 48560, Note_on_c, 0, 67, 42
2, 48640, Note_on_c, 0, 67, 0
2, 48640, Note_on_c, 0, 65, 45
2, 48720, Note_on_c, 0, 65, 0
2, 48720, Note_on_c, 0, 74, 0
2, 48720, Note_on_c, 0, 63, 49
2, 48720, Note_on_c, 0, 72, 47
2, 48740, Note_on_c, 0, 63, 0
2, 48740, Note_on_c, 0, 65, 45
2, 48760, Note_on_c, 0, 65, 0
2, 48760, Note_on_c, 0, 63, 51
2, 48800, Note_on_c, 0, 63, 0
2, 48800, Note_on_c, 0, 62, 42
2, 48880, Note_on_c, 0, 62, 0
2, 48880, Note_on_c, 0, 60, 42
2, 49920, Note_on_c, 0, 60, 0
2, 49920, Note_on_c, 0, 72, 0
2, 49920, Note_on_c, 0, 79, 81
2, 50000, Note_on_c, 0, 65, 60
2, 50000, Note_on_c, 0, 71, 60
2, 50080, Note_on_c, 0, 71, 0
2, 50080, Note_on_c, 0, 65, 0
2, 50080, Note_on_c, 0, 79, 0
2, 50080, Note_on_c, 0, 77, 63
2, 50160, Note_on_c, 0, 77, 0
2, 50160, Note_on_c, 0, 76, 75
2, 50240, Note_on_c, 0, 67, 50
2, 50240, Note_on_c, 0, 72, 50
2, 50320, Note_on_c, 0, 72, 0
2, 50320, Note_on_c, 0, 67, 0
2, 50320, Note_on_c, 0, 64, 50
2, 50400, Note_on_c, 0, 64, 0
2, 50400, Note_on_c, 0, 76, 0
2, 50400, Note_on_c, 0, 74, 71
2, 50480, Note_on_c, 0, 67, 50
2, 50480, Note_on_c, 0, 71, 50
2, 50560, Note_on_c, 0, 71, 0
2, 50560, Note_on_c, 0, 67, 0
2, 50560, Note_on_c, 0, 65, 50
2, 50640, Note_on_c, 0, 65, 0
2, 50640, Note_on_c, 0, 74, 0
2, 50640, Note_on_c, 0, 72, 77
2, 50720, Note_on_c, 0, 67, 50
2, 50800, Note_on_c, 0, 67, 0
2, 50800, Note_on_c, 0, 60, 50
2, 50880, Note_on_c, 0, 60, 0
2, 50880, Note_on_c, 0, 72, 0
2, 50880, Note_on_c, 0, 69, 72
2, 50960, Note_on_c, 0, 64, 50
2, 51040, Note_on_c, 0, 64, 0
2, 51040, Note_on_c, 0, 60, 50
2, 51120, Note_on_c, 0, 60, 0
2, 51120, Note_on_c, 0, 69, 0
2, 51120, Note_on_c, 0, 67, 76
2, 51200, Note_on_c, 0, 55, 50
2, 51200, Note_on_c, 0, 62, 50
2, 51280, Note_on_c, 0, 62, 0
2, 51280, Note_on_c, 0, 55, 0
2, 51280, Note_on_c, 0, 67, 0
2, 51280, Note_on_c, 0, 65, 64
2, 51360, Note_on_c, 0, 65, 0
2, 51360, Note_on_c, 0, 64, 68
2, 51440, Note_on_c, 0, 60, 50
2, 51520, Note_on_c, 0, 60, 0
2, 51520, Note_on_c, 0, 55, 50
2, 51600, Note_on_c, 0, 55, 0
2, 51600, Note_on_c, 0, 64, 0
2, 51600, Note_on_c, 0, 62, 59
2, 51680, Note_on_c, 0, 59, 50
2, 51760, Note_on_c, 0, 59, 0
2, 51760, Note_on_c, 0, 55, 50
2, 51840, Note_on_c, 0, 55, 0
2, 51840, Note_on_c, 0, 59, 50
2, 51920, Note_on_c, 0, 59, 0
2, 51920, Note_on_c, 0, 55, 50
2, 51990, Note_on_c, 0, 62, 0
2, 52000, Note_on_c, 0, 55, 0
2, 52000, Note_on_c, 0, 62, 54
2, 52080, Note_on_c, 0, 62, 0
2, 52080, Note_on_c, 0, 64, 65
2, 52160, Note_on_c, 0, 60, 50
2, 52240, Note_on_c, 0, 60, 0
2, 52240, Note_on_c, 0, 55, 50
2, 52320, Note_on_c, 0, 55, 0
2, 52320, Note_on_c, 0, 64, 0
2, 52320, Note_on_c, 0, 67, 70
2, 52400, Note_on_c, 0, 64, 50
2, 52480, Note_on_c, 0, 64, 0
2, 52480, Note_on_c, 0, 60, 50
2, 52560, Note_on_c, 0, 60, 0
2, 52560, Note_on_c, 0, 67, 0
2, 52560, Note_on_c, 0, 65, 75
2, 52640, Note_on_c, 0, 59, 50
2, 52720, Note_on_c, 0, 59, 0
2, 52720, Note_on_c, 0, 65, 0
2, 52720, Note_on_c, 0, 60, 50
2, 52720, Note_on_c, 0, 64, 65
2, 52800, Note_on_c, 0, 64, 0
2, 52800, Note_on_c, 0, 60, 0
2, 52800, Note_on_c, 0, 62, 71
2, 52880, Note_on_c, 0, 59, 50
2, 52960, Note_on_c, 0, 59, 0
2, 52960, Note_on_c, 0, 55, 50
2, 53040, Note_on_c, 0, 55, 0
2, 53040, Note_on_c, 0, 62, 0
2, 53040, Note_on_c, 0, 60, 69
2, 53120, Note_on_c, 0, 55, 50
2, 53200, Note_on_c, 0, 55, 0
2, 53200, Note_on_c, 0, 52, 50
2, 53280, Note_on_c, 0, 52, 0
2, 53280, Note_on_c, 0, 60, 0
2, 53280, Note_on_c, 0, 62, 74
2, 53360, Note_on_c, 0, 55, 50
2, 53360, Note_on_c, 0, 59, 50
2, 53440, Note_on_c, 0, 59, 0
2, 53440, Note_on_c, 0, 55, 0
2, 53440, Note_on_c, 0, 53, 50
2, 53520, Note_on_c, 0, 53, 0
2, 53520, Note_on_c, 0, 62, 0
2, 53520, Note_on_c, 0, 64, 76
2, 53600, Note_on_c, 0, 55, 50
2, 53600, Note_on_c, 0, 60, 50
2, 53680, Note_on_c, 0, 60, 0
2, 53680, Note_on_c, 0, 55, 0
2, 53680, Note_on_c, 0, 52, 50
2, 53760, Note_on_c, 0, 52, 0
2, 53760, Note_on_c, 0, 64, 0
2, 53760, Note_on_c, 0, 79, 81
2, 53840, Note_on_c, 0, 65, 50
2, 53840, Note_on_c, 0, 71, 60
2, 53920, Note_on_c, 0, 71, 0
2, 53920, Note_on_c, 0, 65, 0
2, 53920, Note_on_c, 0, 79, 0
2, 53920, Note_on_c, 0, 77, 63
2, 54000, Note_on_c, 0, 77, 0
2, 54000, Note_on_c, 0, 76, 75
2, 54080, Note_on_c, 0, 67, 50
2, 54080, Note_on_c, 0, 72, 50
2, 54160, Note_on_c, 0, 72, 0
2, 54160, Note_on_c, 0, 67, 0
2, 54160, Note_on_c, 0, 64, 50
2, 54240, Note_on_c, 0, 64, 0
2, 54240, Note_on_c, 0, 76, 0
2, 54240, Note_on_c, 0, 74, 71
2, 54320, Note_on_c, 0, 67, 50
2, 54320, Note_on_c, 0, 71, 50
2, 54400, Note_on_c, 0, 71, 0
2, 54400, Note_on_c, 0, 67, 0
2, 54400, Note_on_c, 0, 65, 50
2, 54480, Note_on_c, 0, 65, 0
2, 54480, Note_on_c, 0, 74, 0
2, 54480, Note_on_c, 0, 72, 77
2, 54560, Note_on_c, 0, 67, 50
2, 54640, Note_on_c, 0, 67, 0
2, 54640, Note_on_c, 0, 60, 50
2, 54720, Note_on_c, 0, 60, 0
2, 54720, Note_on_c, 0, 72, 0
2, 54720, Note_on_c, 0, 69, 72
2, 54800, Note_on_c, 0, 64, 50
2, 54880, Note_on_c, 0, 64, 0
2, 54880, Note_on_c, 0, 60, 50
2, 54960, Note_on_c, 0, 60, 0
2, 54960, Note_on_c, 0, 69, 0
2, 54960, Note_on_c, 0, 67, 76
2, 55040, Note_on_c, 0, 55, 50
2, 55040, Note_on_c, 0, 62, 50
2, 55120, Note_on_c, 0, 62, 0
2, 55120, Note_on_c, 0, 55, 0
2, 55120, Note_on_c, 0, 67, 0
2, 55120, Note_on_c, 0, 65, 64
2, 55200, Note_on_c, 0, 65, 0
2, 55200, Note_on_c, 0, 64, 68
2, 55280, Note_on_c, 0, 60, 50
2, 55360, Note_on_c, 0, 60, 0
2, 55360, Note_on_c, 0, 55, 50
2, 55440, Note_on_c, 0, 55, 0
2, 55440, Note_on_c, 0, 64, 0
2, 55440, Note_on_c, 0, 62, 59
2, 55520, Note_on_c, 0, 59, 42
2, 55600, Note_on_c, 0, 59, 0
2, 55600, Note_on_c, 0, 55, 43
2, 55680, Note_on_c, 0, 55, 0
2, 55680, Note_on_c, 0, 59, 50
2, 55760, Note_on_c, 0, 59, 0
2, 55760, Note_on_c, 0, 55, 50
2, 55840, Note_on_c, 0, 55, 0
2, 55840, Note_on_c, 0, 59, 39
2, 55920, Note_on_c, 0, 59, 0
2, 55920, Note_on_c, 0, 62, 0
2, 55920, Note_on_c, 0, 60, 55
2, 56000, Note_on_c, 0, 56, 34
2, 56080, Note_on_c, 0, 56, 0
2, 56080, Note_on_c, 0, 51, 34
2, 56160, Note_on_c, 0, 51, 0
2, 56160, Note_on_c, 0, 56, 39
2, 56240, Note_on_c, 0, 56, 0
2, 56240, Note_on_c, 0, 51, 33
2, 56320, Note_on_c, 0, 51, 0
2, 56320, Note_on_c, 0, 56, 33
2, 56400, Note_on_c, 0, 56, 0
2, 56400, Note_on_c, 0, 60, 0
2, 56400, Note_on_c, 0, 65, 55
2, 56480, Note_on_c, 0, 58, 34
2, 56560, Note_on_c, 0, 58, 0
2, 56560, Note_on_c, 0, 56, 34
2, 56640, Note_on_c, 0, 56, 0
2, 56640, Note_on_c, 0, 58, 39
2, 56720, Note_on_c, 0, 58, 0
2, 56720, Note_on_c, 0, 56, 33
2, 56800, Note_on_c, 0, 56, 0
2, 56800, Note_on_c, 0, 58, 33
2, 56880, Note_on_c, 0, 58, 0
2, 56880, Note_on_c, 0, 65, 0
2, 56880, Note_on_c, 0, 63, 52
2, 56960, Note_on_c, 0, 56, 42
2, 57040, Note_on_c, 0, 56, 0
2, 57040, Note_on_c, 0, 51, 39
2, 57120, Note_on_c, 0, 51, 0
2, 57120, Note_on_c, 0, 63, 0
2, 57120, Note_on_c, 0, 61, 49
2, 57200, Note_on_c, 0, 55, 38
2, 57280, Note_on_c, 0, 55, 0
2, 57280, Note_on_c, 0, 51, 38
2, 57360, Note_on_c, 0, 51, 0
2, 57360, Note_on_c, 0, 61, 0
2, 57360, Note_on_c, 0, 60, 46
2, 57440, Note_on_c, 0, 55, 38
2, 57520, Note_on_c, 0, 51, 29
2, 57600, Note_on_c, 0, 51, 0
2, 57600, Note_on_c, 0, 55, 0
2, 57600, Note_on_c, 0, 54, 40
2, 57680, Note_on_c, 0, 51, 29
2, 57760, Note_on_c, 0, 51, 0
2, 57760, Note_on_c, 0, 54, 0
2, 57760, Note_on_c, 0, 54, 45
2, 57840, Note_on_c, 0, 54, 0
2, 57840, Note_on_c, 0, 60, 0
2, 57840, Note_on_c, 0, 60, 46
2, 57920, Note_on_c, 0, 55, 38
2, 58000, Note_on_c, 0, 55, 0
2, 58000, Note_on_c, 0, 52, 38
2, 58080, Note_on_c, 0, 52, 0
2, 58080, Note_on_c, 0, 60, 0
2, 58080, Note_on_c, 0, 59, 46
2, 58160, Note_on_c, 0, 53, 40
2, 58240, Note_on_c, 0, 53, 0
2, 58240, Note_on_c, 0, 59, 0
2, 58240, Note_on_c, 0, 60, 46
2, 58240, Note_on_c, 0, 52, 46
2, 58320, Note_on_c, 0, 52, 0
2, 58320, Note_on_c, 0, 60, 0
2, 58320, Note_on_c, 0, 62, 51
2, 58400, Note_on_c, 0, 59, 40
2, 58480, Note_on_c, 0, 59, 0
2, 58480, Note_on_c, 0, 57, 40
2, 58560, Note_on_c, 0, 57, 0
2, 58560, Note_on_c, 0, 59, 40
2, 58800, Note_on_c, 0, 59, 0
2, 58800, Note_on_c, 0, 62, 0
2, 58800, Note_on_c, 0, 72, 56
2, 58880, Note_on_c, 0, 67, 43
2, 58960, Note_on_c, 0, 67, 0
2, 58960, Note_on_c, 0, 60, 44
2, 59040, Note_on_c, 0, 60, 0
2, 59040, Note_on_c, 0, 72, 0
2, 59040, Note_on_c, 0, 71, 54
2, 59120, Note_on_c, 0, 62, 30
2, 59120, Note_on_c, 0, 67, 41
2, 59200, Note_on_c, 0, 67, 0
2, 59200, Note_on_c, 0, 62, 0
2, 59200, Note_on_c, 0, 71, 0
2, 59200, Note_on_c, 0, 72, 50
2, 59200, Note_on_c, 0, 60, 50
2, 59280, Note_on_c, 0, 60, 0
2, 59280, Note_on_c, 0, 72, 0
2, 59280, Note_on_c, 0, 74, 58
2, 59360, Note_on_c, 0, 71, 44
2, 59440, Note_on_c, 0, 71, 0
2, 59440, Note_on_c, 0, 67, 44
2, 59520, Note_on_c, 0, 67, 0
2, 59520, Note_on_c, 0, 71, 56
2, 59600, Note_on_c, 0, 71, 0
2, 59600, Note_on_c, 0, 67, 49
2, 59680, Note_on_c, 0, 67, 0
2, 59680, Note_on_c, 0, 71, 54
2, 59760, Note_on_c, 0, 71, 0
2, 59760, Note_on_c, 0, 74, 0
2, 59760, Note_on_c, 0, 76, 66
2, 59840, Note_on_c, 0, 72, 54
2, 59920, Note_on_c, 0, 72, 0
2, 59920, Note_on_c, 0, 67, 50
2, 60000, Note_on_c, 0, 67, 0
2, 60000, Note_on_c, 0, 72, 56
2, 60080, Note_on_c, 0, 72, 0
2, 60080, Note_on_c, 0, 67, 58
2, 60160, Note_on_c, 0, 67, 0
2, 60160, Note_on_c, 0, 72, 62
2, 60240, Note_on_c, 0, 72, 0
2, 60240, Note_on_c, 0, 76, 0
2, 60240, Note_on_c, 0, 81, 73
2, 60320, Note_on_c, 0, 76, 52
2, 60400, Note_on_c, 0, 76, 0
2, 60400, Note_on_c, 0, 72, 52
2, 60480, Note_on_c, 0, 72, 0
2, 60480, Note_on_c, 0, 81, 0
2, 60480, Note_on_c, 0, 81, 72
2, 60560, Note_on_c, 0, 74, 53
2, 60640, Note_on_c, 0, 74, 0
2, 60640, Note_on_c, 0, 69, 54
2, 60720, Note_on_c, 0, 69, 0
2, 60720, Note_on_c, 0, 81, 0
2, 60720, Note_on_c, 0, 79, 72
2, 60800, Note_on_c, 0, 76, 52
2, 60800, Note_on_c, 0, 72, 52
2, 60880, Note_on_c, 0, 72, 0
2, 60880, Note_on_c, 0, 76, 0
2, 60880, Note_on_c, 0, 67, 52
2, 60960, Note_on_c, 0, 67, 0
2, 60960, Note_on_c, 0, 79, 0
2, 60960, Note_on_c, 0, 77, 70
2, 61040, Note_on_c, 0, 71, 52
2, 61120, Note_on_c, 0, 71, 0
2, 61120, Note_on_c, 0, 67, 52
2, 61200, Note_on_c, 0, 67, 0
2, 61200, Note_on_c, 0, 77, 0
2, 61200, Note_on_c, 0, 76, 67
2, 61280, Note_on_c, 0, 72, 54
2, 61360, Note_on_c, 0, 72, 0
2, 61360, Note_on_c, 0, 66, 52
2, 61440, Note_on_c, 0, 66, 0
2, 61440, Note_on_c, 0, 67, 49
2, 61520, Note_on_c, 0, 67, 0
2, 61520, Note_on_c, 0, 64, 46
2, 61600, Note_on_c, 0, 64, 0
2, 61600, Note_on_c, 0, 60, 44
2, 61680, Note_on_c, 0, 60, 0
2, 61680, Note_on_c, 0, 76, 0
2, 61760, Note_on_c, 0, 57, 37
2, 61760, Note_on_c, 0, 60, 37
2, 61760, Note_on_c, 0, 62, 44
2, 61820, Note_on_c, 0, 62, 0
2, 61820, Note_on_c, 0, 60, 0
2, 61820, Note_on_c, 0, 57, 0
2, 61840, Note_on_c, 0, 57, 36
2, 61840, Note_on_c, 0, 60, 36
2, 61840, Note_on_c, 0, 62, 43
2, 61900, Note_on_c, 0, 62, 0
2, 61900, Note_on_c, 0, 60, 0
2, 61900, Note_on_c, 0, 57, 0
2, 61920, Note_on_c, 0, 57, 43
2, 61920, Note_on_c, 0, 60, 43
2, 61920, Note_on_c, 0, 65, 51
2, 61980, Note_on_c, 0, 65, 0
2, 61980, Note_on_c, 0, 60, 0
2, 61980, Note_on_c, 0, 57, 0
2, 62000, Note_on_c, 0, 57, 37
2, 62000, Note_on_c, 0, 60, 44
2, 62000, Note_on_c, 0, 61, 37
2, 62060, Note_on_c, 0, 61, 0
2, 62060, Note_on_c, 0, 60, 0
2, 62060, Note_on_c, 0, 57, 0
2, 62080, Note_on_c, 0, 57, 36
2, 62080, Note_on_c, 0, 60, 36
2, 62080, Note_on_c, 0, 62, 44
2, 62140, Note_on_c, 0, 62, 0
2, 62140, Note_on_c, 0, 60, 0
2, 62140, Note_on_c, 0, 57, 0
2, 62240, Note_on_c, 0, 60, 43
2, 62240, Note_on_c, 0, 62, 43
2, 62240, Note_on_c, 0, 69, 52
2, 62300, Note_on_c, 0, 69, 0
2, 62300, Note_on_c, 0, 62, 0
2, 62300, Note_on_c, 0, 60, 0
2, 62320, Note_on_c, 0, 60, 44
2, 62320, Note_on_c, 0, 62, 44
2, 62320, Note_on_c, 0, 69, 52
2, 62380, Note_on_c, 0, 69, 0
2, 62380, Note_on_c, 0, 62, 0
2, 62380, Note_on_c, 0, 60, 0
2, 62400, Note_on_c, 0, 60, 51
2, 62400, Note_on_c, 0, 62, 51
2, 62400, Note_on_c, 0, 69, 61
2, 62460, Note_on_c, 0, 69, 0
2, 62460, Note_on_c, 0, 62, 0
2, 62460, Note_on_c, 0, 60, 0
2, 62480, Note_on_c, 0, 60, 46
2, 62480, Note_on_c, 0, 62, 46
2, 62480, Note_on_c, 0, 68, 55
2, 62540, Note_on_c, 0, 68, 0
2, 62540, Note_on_c, 0, 62, 0
2, 62540, Note_on_c, 0, 60, 0
2, 62560, Note_on_c, 0, 60, 47
2, 62560, Note_on_c, 0, 62, 47
2, 62560, Note_on_c, 0, 69, 56
2, 62620, Note_on_c, 0, 69, 0
2, 62620, Note_on_c, 0, 62, 0
2, 62620, Note_on_c, 0, 60, 0
2, 62720, Note_on_c, 0, 62, 51
2, 62720, Note_on_c, 0, 66, 51
2, 62720, Note_on_c, 0, 72, 60
2, 62780, Note_on_c, 0, 72, 0
2, 62780, Note_on_c, 0, 66, 0
2, 62780, Note_on_c, 0, 62, 0
2, 62800, Note_on_c, 0, 62, 51
2, 62800, Note_on_c, 0, 66, 51
2, 62800, Note_on_c, 0, 72, 60
2, 62860, Note_on_c, 0, 72, 0
2, 62860, Note_on_c, 0, 66, 0
2, 62860, Note_on_c, 0, 62, 0
2, 62880, Note_on_c, 0, 62, 59
2, 62880, Note_on_c, 0, 66, 59
2, 62880, Note_on_c, 0, 72, 70
2, 62940, Note_on_c, 0, 72, 0
2, 62940, Note_on_c, 0, 66, 0
2, 62940, Note_on_c, 0, 62, 0
2, 62960, Note_on_c, 0, 62, 52
2, 62960, Note_on_c, 0, 66, 52
2, 62960, Note_on_c, 0, 71, 62
2, 63020, Note_on_c, 0, 71, 0
2, 63020, Note_on_c, 0, 66, 0
2, 63020, Note_on_c, 0, 62, 0
2, 63040, Note_on_c, 0, 62, 53
2, 63040, Note_on_c, 0, 66, 53
2, 63040, Note_on_c, 0, 72, 62
2, 63100, Note_on_c, 0, 72, 0
2, 63100, Note_on_c, 0, 66, 0
2, 63100, Note_on_c, 0, 62, 0
2, 63200, Note_on_c, 0, 72, 62
2, 63200, Note_on_c, 0, 75, 62
2, 63200, Note_on_c, 0, 78, 74
2, 63260, Note_on_c, 0, 78, 0
2, 63260, Note_on_c, 0, 75, 0
2, 63260, Note_on_c, 0, 72, 0
2, 63280, Note_on_c, 0, 72, 63
2, 63280, Note_on_c, 0, 75, 63
2, 63280, Note_on_c, 0, 78, 75
2, 63340, Note_on_c, 0, 78, 0
2, 63340, Note_on_c, 0, 75, 0
2, 63340, Note_on_c, 0, 72, 0
2, 63360, Note_on_c, 0, 72, 71
2, 63360, Note_on_c, 0, 75, 71
2, 63360, Note_on_c, 0, 78, 85
2, 63420, Note_on_c, 0, 78, 0
2, 63420, Note_on_c, 0, 75, 0
2, 63420, Note_on_c, 0, 72, 0
2, 63440, Note_on_c, 0, 72, 65
2, 63440, Note_on_c, 0, 75, 65
2, 63440, Note_on_c, 0, 77, 78
2, 63500, Note_on_c, 0, 77, 0
2, 63500, Note_on_c, 0, 75, 0
2, 63500, Note_on_c, 0, 72, 0
2, 63520, Note_on_c, 0, 72, 66
2, 63520, Note_on_c, 0, 75, 66
2, 63520, Note_on_c, 0, 78, 79
2, 63570, Note_on_c, 0, 78, 0
2, 63570, Note_on_c, 0, 75, 0
2, 63570, Note_on_c, 0, 72, 0
2, 63600, Note_on_c, 0, 72, 77
2, 63600, Note_on_c, 0, 76, 77
2, 63600, Note_on_c, 0, 79, 91
2, 63660, Note_on_c, 0, 79, 0
2, 63660, Note_on_c, 0, 76, 0
2, 63660, Note_on_c, 0, 72, 0
2, 63680, Note_on_c, 0, 72, 68
2, 63680, Note_on_c, 0, 76, 80
2, 63740, Note_on_c, 0, 76, 0
2, 63740, Note_on_c, 0, 72, 0
2, 63760, Note_on_c, 0, 67, 68
2, 63760, Note_on_c, 0, 72, 80
2, 63820, Note_on_c, 0, 72, 0
2, 63820, Note_on_c, 0, 67, 0
2, 63840, Note_on_c, 0, 64, 76
2, 63840, Note_on_c, 0, 67, 90
2, 63900, Note_on_c, 0, 67, 0
2, 63900, Note_on_c, 0, 64, 0
2, 63920, Note_on_c, 0, 60, 63
2, 63920, Note_on_c, 0, 64, 75
2, 63980, Note_on_c, 0, 64, 0
2, 63980, Note_on_c, 0, 60, 0
2, 64000, Note_on_c, 0, 57, 63
2, 64000, Note_on_c, 0, 60, 75
2, 64060, Note_on_c, 0, 60, 0
2, 64060, Note_on_c, 0, 57, 0
2, 64080, Note_on_c, 0, 55, 89
2, 64560, Note_on_c, 0, 55, 0
2, 66240, Note_on_c, 0, 67, 31
2, 66240, Note_on_c, 0, 72, 31
2, 66240, Note_on_c, 0, 76, 37
2, 66468, Note_on_c, 0, 76, 0
2, 66468, Note_on_c, 0, 72, 0
2, 66468, Note_on_c, 0, 67, 0
2, 66480, Note_on_c, 0, 65, 37
2, 66480, Note_on_c, 0, 72, 37
2, 66480, Note_on_c, 0, 76, 44
2, 66708, Note_on_c, 0, 76, 0
2, 66708, Note_on_c, 0, 72, 0
2, 66708, Note_on_c, 0, 65, 0
2, 66720, Note_on_c, 0, 72, 37
2, 66720, Note_on_c, 0, 76, 37
2, 66720, Note_on_c, 0, 77, 44
2, 66948, Note_on_c, 0, 77, 0
2, 66948, Note_on_c, 0, 76, 0
2, 66948, Note_on_c, 0, 72, 0
2, 66960, Note_on_c, 0, 81, 44
2, 66960, Note_on_c, 0, 72, 37
2, 66960, Note_on_c, 0, 76, 37
2, 67188, Note_on_c, 0, 76, 0
2, 67188, Note_on_c, 0, 72, 0
2, 67188, Note_on_c, 0, 81, 0
2, 67200, Note_on_c, 0, 65, 34
2, 67200, Note_on_c, 0, 72, 34
2, 67200, Note_on_c, 0, 76, 41
2, 67428, Note_on_c, 0, 76, 0
2, 67428, Note_on_c, 0, 72, 0
2, 67428, Note_on_c, 0, 65, 0
2, 67440, Note_on_c, 0, 65, 37
2, 67440, Note_on_c, 0, 71, 37
2, 67440, Note_on_c, 0, 74, 44
2, 67680, Note_on_c, 0, 74, 0
2, 67680, Note_on_c, 0, 71, 0
2, 67680, Note_on_c, 0, 65, 0
2, 67680, Note_on_c, 0, 65, 35
2, 67680, Note_on_c, 0, 71, 35
2, 67680, Note_on_c, 0, 74, 42
2, 67920, Note_on_c, 0, 74, 0
2, 67920, Note_on_c, 0, 71, 0
2, 67920, Note_on_c, 0, 65, 0
2, 68160, Note_on_c, 0, 65, 31
2, 68160, Note_on_c, 0, 71, 31
2, 68160, Note_on_c, 0, 74, 37
2, 68388, Note_on_c, 0, 74, 0
2, 68388, Note_on_c, 0, 71, 0
2, 68388, Note_on_c, 0, 65, 0
2, 68400, Note_on_c, 0, 64, 37
2, 68400, Note_on_c, 0, 71, 37
2, 68400, Note_on_c, 0, 74, 44
2, 68628, Note_on_c, 0, 74, 0
2, 68628, Note_on_c, 0, 71, 0
2, 68628, Note_on_c, 0, 64, 0
2, 68640, Note_on_c, 0, 71, 37
2, 68640, Note_on_c, 0, 74, 37
2, 68640, Note_on_c, 0, 76, 44
2, 68868, Note_on_c, 0, 76, 0
2, 68868, Note_on_c, 0, 74, 0
2, 68868, Note_on_c, 0, 71, 0
2, 68880, Note_on_c, 0, 79, 44
2, 68880, Note_on_c, 0, 71, 37
2, 68880, Note_on_c, 0, 74, 37
2, 69108, Note_on_c, 0, 74, 0
2, 69108, Note_on_c, 0, 71, 0
2, 69108, Note_on_c, 0, 79, 0
2, 69120, Note_on_c, 0, 64, 34
2, 69120, Note_on_c, 0, 71, 34
2, 69120, Note_on_c, 0, 74, 41
2, 69348, Note_on_c, 0, 74, 0
2, 69348, Note_on_c, 0, 71, 0
2, 69348, Note_on_c, 0, 64, 0
2, 69360, Note_on_c, 0, 64, 37
2, 69360, Note_on_c, 0, 69, 37
2, 69360, Note_on_c, 0, 72, 44
2, 69600, Note_on_c, 0, 72, 0
2, 69600, Note_on_c, 0, 69, 0
2, 69600, Note_on_c, 0, 64, 0
2, 69600, Note_on_c, 0, 64, 35
2, 69600, Note_on_c, 0, 69, 35
2, 69600, Note_on_c, 0, 72, 42
2, 69840, Note_on_c, 0, 72, 0
2, 69840, Note_on_c, 0, 69, 0
2, 69840, Note_on_c, 0, 64, 0
2, 70080, Note_on_c, 0, 64, 31
2, 70080, Note_on_c, 0, 69, 31
2, 70080, Note_on_c, 0, 72, 37
2, 70308, Note_on_c, 0, 72, 0
2, 70308, Note_on_c, 0, 69, 0
2, 70308, Note_on_c, 0, 64, 0
2, 70320, Note_on_c, 0, 62, 31
2, 70320, Note_on_c, 0, 69, 37
2, 70320, Note_on_c, 0, 72, 44
2, 70548, Note_on_c, 0, 72, 0
2, 70548, Note_on_c, 0, 69, 0
2, 70548, Note_on_c, 0, 62, 0
2, 70560, Note_on_c, 0, 69, 37
2, 70560, Note_on_c, 0, 72, 37
2, 70560, Note_on_c, 0, 74, 44
2, 70788, Note_on_c, 0, 74, 0
2, 70788, Note_on_c, 0, 72, 0
2, 70788, Note_on_c, 0, 69, 0
2, 70800, Note_on_c, 0, 77, 44
2, 70800, Note_on_c, 0, 69, 37
2, 70800, Note_on_c, 0, 72, 37
2, 71028, Note_on_c, 0, 72, 0
2, 71028, Note_on_c, 0, 69, 0
2, 71028, Note_on_c, 0, 77, 0
2, 71040, Note_on_c, 0, 62, 34
2, 71040, Note_on_c, 0, 69, 34
2, 71040, Note_on_c, 0, 72, 41
2, 71268, Note_on_c, 0, 72, 0
2, 71268, Note_on_c, 0, 69, 0
2, 71268, Note_on_c, 0, 62, 0
2, 71280, Note_on_c, 0, 62, 37
2, 71280, Note_on_c, 0, 67, 37
2, 71280, Note_on_c, 0, 71, 44
2, 71520, Note_on_c, 0, 71, 0
2, 71520, Note_on_c, 0, 67, 0
2, 71520, Note_on_c, 0, 62, 0
2, 71520, Note_on_c, 0, 62, 35
2, 71520, Note_on_c, 0, 67, 35
2, 71520, Note_on_c, 0, 71, 42
2, 71760, Note_on_c, 0, 71, 0
2, 71760, Note_on_c, 0, 67, 0
2, 71760, Note_on_c, 0, 62, 0
2, 72000, Note_on_c, 0, 55, 37
2, 72228, Note_on_c, 0, 55, 0
2, 72240, Note_on_c, 0, 58, 43
2, 72240, Note_on_c, 0, 52, 31
2, 72240, Note_on_c, 0, 60, 44
2, 72468, Note_on_c, 0, 60, 0
2, 72468, Note_on_c, 0, 52, 0
2, 72480, Note_on_c, 0, 53, 37
2, 72480, Note_on_c, 0, 62, 44
2, 72708, Note_on_c, 0, 62, 0
2, 72708, Note_on_c, 0, 53, 0
2, 72720, Note_on_c, 0, 64, 44
2, 72720, Note_on_c, 0, 55, 37
2, 72948, Note_on_c, 0, 55, 0
2, 72948, Note_on_c, 0, 64, 0
2, 72960, Note_on_c, 0, 52, 34
2, 72960, Note_on_c, 0, 60, 41
2, 73188, Note_on_c, 0, 60, 0
2, 73188, Note_on_c, 0, 52, 0
2, 73200, Note_on_c, 0, 58, 0
2, 73200, Note_on_c, 0, 57, 51
2, 73200, Note_on_c, 0, 65, 44
2, 73428, Note_on_c, 0, 65, 0
2, 73428, Note_on_c, 0, 57, 0
2, 73440, Note_on_c, 0, 57, 37
2, 73440, Note_on_c, 0, 60, 37
2, 73440, Note_on_c, 0, 67, 44
2, 73668, Note_on_c, 0, 67, 0
2, 73668, Note_on_c, 0, 60, 0
2, 73680, Note_on_c, 0, 69, 44
2, 73680, Note_on_c, 0, 65, 37
2, 73908, Note_on_c, 0, 65, 0
2, 73908, Note_on_c, 0, 69, 0
2, 73920, Note_on_c, 0, 53, 41
2, 74148, Note_on_c, 0, 53, 0
2, 74160, Note_on_c, 0, 57, 0
2, 74160, Note_on_c, 0, 56, 43
2, 74160, Note_on_c, 0, 50, 31
2, 74160, Note_on_c, 0, 59, 44
2, 74388, Note_on_c, 0, 59, 0
2, 74388, Note_on_c, 0, 50, 0
2, 74400, Note_on_c, 0, 52, 37
2, 74400, Note_on_c, 0, 60, 44
2, 74628, Note_on_c, 0, 60, 0
2, 74628, Note_on_c, 0, 52, 0
2, 74640, Note_on_c, 0, 62, 44
2, 74640, Note_on_c, 0, 53, 37
2, 74868, Note_on_c, 0, 53, 0
2, 74868, Note_on_c, 0, 62, 0
2, 74880, Note_on_c, 0, 50, 34
2, 74880, Note_on_c, 0, 59, 41
2, 75108, Note_on_c, 0, 59, 0
2, 75108, Note_on_c, 0, 50, 0
2, 75120, Note_on_c, 0, 56, 0
2, 75120, Note_on_c, 0, 55, 38
2, 75120, Note_on_c, 0, 52, 38
2, 75120, Note_on_c, 0, 60, 45
2, 75590, Note_on_c, 0, 60, 0
2, 75590, Note_on_c, 0, 52, 0
2, 75590, Note_on_c, 0, 55, 0
2, 75600, Note_on_c, 0, 60, 39
2, 75600, Note_on_c, 0, 58, 33
2, 75600, Note_on_c, 0, 55, 33
2, 76080, Note_on_c, 0, 55, 0
2, 76080, Note_on_c, 0, 58, 0
2, 76080, Note_on_c, 0, 53, 32
2, 76080, Note_on_c, 0, 57, 38
2, 76560, Note_on_c, 0, 57, 0
2, 76560, Note_on_c, 0, 53, 0
2, 76560, Note_on_c, 0, 53, 30
2, 76560, Note_on_c, 0, 50, 25
2, 77040, Note_on_c, 0, 50, 0
2, 77040, Note_on_c, 0, 53, 0
2, 77040, Note_on_c, 0, 60, 0
2, 77040, Note_on_c, 0, 52, 21
2, 77040, Note_on_c, 0, 55, 21
2, 77040, Note_on_c, 0, 60, 25
2, 77760, Note_on_c, 0, 60, 0
2, 77760, Note_on_c, 0, 55, 0
2, 77760, Note_on_c, 0, 52, 0
2, 77760, End_track
3, 0, Start_track
3, 0, Title_t, "Piano left"
3, 0, Program_c, 0, 0
3, 720, Note_on_c, 0, 55, 44
3, 960, Note_on_c, 0, 55, 0
3, 960, Note_on_c, 0, 60, 50
3, 1200, Note_on_c, 0, 60, 0
3, 1200, Note_on_c, 0, 62, 43
3, 1440, Note_on_c, 0, 62, 0
3, 1440, Note_on_c, 0, 63, 43
3, 1680, Note_on_c, 0, 63, 0
3, 1680, Note_on_c, 0, 60, 36
3, 1920, Note_on_c, 0, 60, 0
3, 1920, Note_on_c, 0, 59, 38
3, 2160, Note_on_c, 0, 60, 35
3, 2170, Note_on_c, 0, 59, 0
3, 2400, Note_on_c, 0, 62, 35
3, 2410, Note_on_c, 0, 60, 0
3, 2870, Note_on_c, 0, 62, 0
3, 2880, Note_on_c, 0, 48, 27
3, 2880, Note_on_c, 0, 51, 32
3, 3336, Note_on_c, 0, 51, 0
3, 3336, Note_on_c, 0, 48, 0
3, 3360, Note_on_c, 0, 51, 27
3, 3360, Note_on_c, 0, 55, 32
3, 3816, Note_on_c, 0, 55, 0
3, 3816, Note_on_c, 0, 51, 0
3, 3840, Note_on_c, 0, 55, 30
3, 4080, Note_on_c, 0, 55, 0
3, 4080, Note_on_c, 0, 43, 21
3, 4080, Note_on_c, 0, 53, 25
3, 4320, Note_on_c, 0, 53, 0
3, 4320, Note_on_c, 0, 43, 0
3, 4320, Note_on_c, 0, 48, 25
3, 4320, Note_on_c, 0, 51, 30
3, 4540, Note_on_c, 0, 51, 0
3, 4540, Note_on_c, 0, 48, 0
3, 4560, Note_on_c, 0, 55, 44
3, 4800, Note_on_c, 0, 55, 0
3, 4800, Note_on_c, 0, 60, 50
3, 5040, Note_on_c, 0, 60, 0
3, 5040, Note_on_c, 0, 62, 43
3, 5280, Note_on_c, 0, 62, 0
3, 5280, Note_on_c, 0, 63, 43
3, 5520, Note_on_c, 0, 63, 0
3, 5520, Note_on_c, 0, 60, 36
3, 5760, Note_on_c, 0, 60, 0
3, 5760, Note_on_c, 0, 59, 38
3, 6000, Note_on_c, 0, 60, 35
3, 6010, Note_on_c, 0, 59, 0
3, 6240, Note_on_c, 0, 62, 35
3, 6250, Note_on_c, 0, 60, 0
3, 6710, Note_on_c, 0, 62, 0
3, 6720, Note_on_c, 0, 48, 27
3, 6720, Note_on_c, 0, 51, 32
3, 7176, Note_on_c, 0, 51, 0
3, 7176, Note_on_c, 0, 48, 0
3, 7200, Note_on_c, 0, 39, 27
3, 7200, Note_on_c, 0, 48, 32
3, 7656, Note_on_c, 0, 48, 0
3, 7656, Note_on_c, 0, 39, 0
3, 7680, Note_on_c, 0, 43, 21
3, 7680, Note_on_c, 0, 55, 30
3, 7908, Note_on_c, 0, 43, 0
3, 7913, Note_on_c, 0, 55, 0
3, 7920, Note_on_c, 0, 43, 21
3, 7920, Note_on_c, 0, 53, 25
3, 8160, Note_on_c, 0, 53, 0
3, 8160, Note_on_c, 0, 43, 0
3, 8160, Note_on_c, 0, 36, 25
3, 8160, Note_on_c, 0, 51, 30
3, 8630, Note_on_c, 0, 51, 0
3, 8630, Note_on_c, 0, 36, 0
3, 8640, Note_on_c, 0, 48, 28
3, 8640, Note_on_c, 0, 51, 34
3, 8860, Note_on_c, 0, 51, 0
3, 8860, Note_on_c, 0, 48, 0
3, 8880, Note_on_c, 0, 50, 26
3, 8880, Note_on_c, 0, 53, 31
3, 8990, Note_on_c, 0, 53, 0
3, 8990, Note_on_c, 0, 50, 0
3, 9000, Note_on_c, 0, 48, 24
3, 9000, Note_on_c, 0, 51, 29
3, 9110, Note_on_c, 0, 51, 0
3, 9110, Note_on_c, 0, 48, 0
3, 9120, Note_on_c, 0, 47, 28
3, 9120, Note_on_c, 0, 50, 34
3, 9590, Note_on_c, 0, 50, 0
3, 9600, Note_on_c, 0, 47, 0
3, 9600, Note_on_c, 0, 48, 28
3, 9600, Note_on_c, 0, 51, 34
3, 9820, Note_on_c, 0, 51, 0
3, 9820, Note_on_c, 0, 48, 0
3, 9840, Note_on_c, 0, 50, 26
3, 9840, Note_on_c, 0, 53, 31
3, 9950, Note_on_c, 0, 53, 0
3, 9950, Note_on_c, 0, 50, 0
3, 9960, Note_on_c, 0, 48, 24
3, 9960, Note_on_c, 0, 51, 29
3, 10070, Note_on_c, 0, 51, 0
3, 10070, Note_on_c, 0, 48, 0
3, 10080, Note_on_c, 0, 43, 28
3, 10080, Note_on_c, 0, 50, 34
3, 10550, Note_on_c, 0, 50, 0
3, 10560, Note_on_c, 0, 43, 0
3, 10560, Note_on_c, 0, 48, 28
3, 10560, Note_on_c, 0, 51, 34
3, 11025, Note_on_c, 0, 51, 0
3, 11025, Note_on_c, 0, 48, 0
3, 11040, Note_on_c, 0, 39, 30
3, 11040, Note_on_c, 0, 46, 30
3, 11040, Note_on_c, 0, 51, 36
3, 11268, Note_on_c, 0, 51, 0
3, 11268, Note_on_c, 0, 46, 0
3, 11268, Note_on_c, 0, 39, 0
3, 11280, Note_on_c, 0, 39, 30
3, 11280, Note_on_c, 0, 46, 30
3, 11280, Note_on_c, 0, 51, 36
3, 11508, Note_on_c, 0, 51, 0
3, 11508, Note_on_c, 0, 46, 0
3, 11508, Note_on_c, 0, 39, 0
3, 11520, Note_on_c, 0, 43, 23
3, 11520, Note_on_c, 0, 55, 33
3, 11748, Note_on_c, 0, 43, 0
3, 11753, Note_on_c, 0, 55, 0
3, 11760, Note_on_c, 0, 43, 21
3, 11760, Note_on_c, 0, 53, 25
3, 12000, Note_on_c, 0, 53, 0
3, 12000, Note_on_c, 0, 43, 0
3, 12000, Note_on_c, 0, 36, 25
3, 12000, Note_on_c, 0, 51, 30
3, 12240, Note_on_c, 0, 43, 35
3, 12470, Note_on_c, 0, 51, 0
3, 12470, Note_on_c, 0, 36, 0
3, 12480, Note_on_c, 0, 43, 0
3, 12480, Note_on_c, 0, 48, 40
3, 12720, Note_on_c, 0, 48, 0
3, 12720, Note_on_c, 0, 50, 34
3, 12960, Note_on_c, 0, 50, 0
3, 12960, Note_on_c, 0, 51, 34
3, 13200, Note_on_c, 0, 51, 0
3, 13200, Note_on_c, 0, 48, 28
3, 13440, Note_on_c, 0, 48, 0
3, 13440, Note_on_c, 0, 47, 30
3, 13680, Note_on_c, 0, 48, 28
3, 13690, Note_on_c, 0, 47, 0
3, 13920, Note_on_c, 0, 50, 28
3, 13930, Note_on_c, 0, 48, 0
3, 14390, Note_on_c, 0, 50, 0
3, 14400, Note_on_c, 0, 48, 27
3, 14400, Note_on_c, 0, 51, 32
3, 14856, Note_on_c, 0, 51, 0
3, 14856, Note_on_c, 0, 48, 0
3, 14880, Note_on_c, 0, 51, 27
3, 14880, Note_on_c, 0, 55, 32
3, 15336, Note_on_c, 0, 55, 0
3, 15336, Note_on_c, 0, 51, 0
3, 15360, Note_on_c, 0, 55, 30
3, 15360, Note_on_c, 0, 43, 25
3, 15590, Note_on_c, 0, 43, 0
3, 15590, Note_on_c, 0, 55, 0
3, 15600, Note_on_c, 0, 55, 27
3, 15600, Note_on_c, 0, 43, 27
3, 15600, Note_on_c, 0, 53, 27
3, 15664, Note_on_c, 0, 55, 0
3, 15680, Note_on_c, 0, 55, 27
3, 15744, Note_on_c, 0, 55, 0
3, 15760, Note_on_c, 0, 55, 23
3, 15824, Note_on_c, 0, 55, 0
3, 15840, Note_on_c, 0, 53, 0
3, 15840, Note_on_c, 0, 43, 0
3, 15840, Note_on_c, 0, 44, 30
3, 15840, Note_on_c, 0, 54, 30
3, 15840, Note_on_c, 0, 36, 25
3, 15840, Note_on_c, 0, 51, 30
3, 16200, Note_on_c, 0, 54, 0
3, 16200, Note_on_c, 0, 44, 0
3, 16200, Note_on_c, 0, 43, 22
3, 16200, Note_on_c, 0, 55, 28
3, 17040, Note_on_c, 0, 55, 0
3, 17040, Note_on_c, 0, 51, 0
3, 17040, Note_on_c, 0, 36, 0
3, 17040, Note_on_c, 0, 43, 0
3, 17040, Note_on_c, 0, 43, 35
3, 17040, Note_on_c, 0, 55, 31
3, 17104, Note_on_c, 0, 55, 0
3, 17120, Note_on_c, 0, 55, 31
3, 17184, Note_on_c, 0, 55, 0
3, 17200, Note_on_c, 0, 55, 26
3, 17264, Note_on_c, 0, 55, 0
3, 17280, Note_on_c, 0, 43, 0
3, 17280, Note_on_c, 0, 55, 29
3, 17280, Note_on_c, 0, 48, 40
3, 17520, Note_on_c, 0, 48, 0
3, 17520, Note_on_c, 0, 50, 34
3, 17760, Note_on_c, 0, 50, 0
3, 17760, Note_on_c, 0, 51, 34
3, 18000, Note_on_c, 0, 51, 0
3, 18000, Note_on_c, 0, 48, 28
3, 18240, Note_on_c, 0, 48, 0
3, 18240, Note_on_c, 0, 47, 30
3, 18480, Note_on_c, 0, 50, 45
3, 18490, Note_on_c, 0, 47, 0
3, 18720, Note_on_c, 0, 55, 0
3, 18720, Note_on_c, 0, 56, 64
3, 18730, Note_on_c, 0, 50, 0
3, 19190, Note_on_c, 0, 56, 0
3, 19200, Note_on_c, 0, 53, 31
3, 19200, Note_on_c, 0, 56, 31
3, 19200, Note_on_c, 0, 61, 31
3, 19200, Note_on_c, 0, 65, 37
3, 19651, Note_on_c, 0, 65, 0
3, 19651, Note_on_c, 0, 61, 0
3, 19675, Note_on_c, 0, 56, 0
3, 19675, Note_on_c, 0, 53, 0
3, 19680, Note_on_c, 0, 54, 32
3, 19680, Note_on_c, 0, 56, 32
3, 19680, Note_on_c, 0, 60, 32
3, 19680, Note_on_c, 0, 63, 32
3, 19680, Note_on_c, 0, 66, 38
3, 20131, Note_on_c, 0, 66, 0
3, 20131, Note_on_c, 0, 63, 0
3, 20155, Note_on_c, 0, 54, 0
3, 20155, Note_on_c, 0, 56, 0
3, 20155, Note_on_c, 0, 60, 0
3, 20160, Note_on_c, 0, 53, 27
3, 20160, Note_on_c, 0, 56, 27
3, 20160, Note_on_c, 0, 61, 27
3, 20160, Note_on_c, 0, 65, 32
3, 20400, Note_on_c, 0, 65, 0
3, 20400, Note_on_c, 0, 53, 0
3, 20400, Note_on_c, 0, 56, 0
3, 20400, Note_on_c, 0, 61, 0
3, 20400, Note_on_c, 0, 67, 27
3, 20400, Note_on_c, 0, 55, 22
3, 20464, Note_on_c, 0, 67, 0
3, 20480, Note_on_c, 0, 67, 27
3, 20544, Note_on_c, 0, 67, 0
3, 20560, Note_on_c, 0, 67, 23
3, 20624, Note_on_c, 0, 67, 0
3, 20640, Note_on_c, 0, 55, 0
3, 20640, Note_on_c, 0, 60, 21
3, 20640, Note_on_c, 0, 67, 30
3, 21120, Note_on_c, 0, 67, 0
3, 21120, Note_on_c, 0, 60, 0
3, 21120, Note_on_c, 0, 48, 32
3, 21120, Note_on_c, 0, 51, 32
3, 21240, Note_on_c, 0, 51, 0
3, 21240, Note_on_c, 0, 48, 0
3, 21360, Note_on_c, 0, 50, 31
3, 21360, Note_on_c, 0, 53, 31
3, 21420, Note_on_c, 0, 53, 0
3, 21420, Note_on_c, 0, 50, 0
3, 21480, Note_on_c, 0, 48, 26
3, 21480, Note_on_c, 0, 51, 26
3, 21540, Note_on_c, 0, 51, 0
3, 21540, Note_on_c, 0, 48, 0
3, 21600, Note_on_c, 0, 43, 33
3, 21600, Note_on_c, 0, 50, 33
3, 21720, Note_on_c, 0, 50, 0
3, 21720, Note_on_c, 0, 43, 0
3, 22080, Note_on_c, 0, 51, 35
3, 22080, Note_on_c, 0, 48, 35
3, 22080, Note_on_c, 0, 55, 35
3, 22200, Note_on_c, 0, 55, 0
3, 22200, Note_on_c, 0, 48, 0
3, 22200, Note_on_c, 0, 51, 0
3, 22320, Note_on_c, 0, 53, 37
3, 22320, Note_on_c, 0, 50, 37
3, 22320, Note_on_c, 0, 55, 37
3, 22380, Note_on_c, 0, 55, 0
3, 22380, Note_on_c, 0, 50, 0
3, 22380, Note_on_c, 0, 53, 0
3, 22440, Note_on_c, 0, 50, 34
3, 22440, Note_on_c, 0, 48, 34
3, 22440, Note_on_c, 0, 55, 34
3, 22500, Note_on_c, 0, 55, 0
3, 22500, Note_on_c, 0, 48, 0
3, 22500, Note_on_c, 0, 50, 0
3, 22560, Note_on_c, 0, 47, 44
3, 22560, Note_on_c, 0, 50, 44
3, 22560, Note_on_c, 0, 55, 44
3, 22680, Note_on_c, 0, 55, 0
3, 22680, Note_on_c, 0, 50, 0
3, 22680, Note_on_c, 0, 47, 0
3, 23040, Note_on_c, 0, 53, 31
3, 23040, Note_on_c, 0, 56, 31
3, 23040, Note_on_c, 0, 61, 31
3, 23040, Note_on_c, 0, 65, 37
3, 23500, Note_on_c, 0, 65, 0
3, 23500, Note_on_c, 0, 53, 0
3, 23500, Note_on_c, 0, 56, 0
3, 23500, Note_on_c, 0, 61, 0
3, 23520, Note_on_c, 0, 66, 43
3, 23520, Note_on_c, 0, 63, 36
3, 23520, Note_on_c, 0, 60, 36
3, 23520, Note_on_c, 0, 54, 36
3, 23860, Note_on_c, 0, 54, 0
3, 23860, Note_on_c, 0, 66, 0
3, 23860, Note_on_c, 0, 63, 0
3, 23860, Note_on_c, 0, 60, 0
3, 23880, Note_on_c, 0, 54, 31
3, 23880, Note_on_c, 0, 60, 31
3, 23880, Note_on_c, 0, 63, 31
3, 23880, Note_on_c, 0, 66, 37
3, 23980, Note_on_c, 0, 66, 0
3, 23980, Note_on_c, 0, 54, 0
3, 23980, Note_on_c, 0, 60, 0
3, 23980, Note_on_c, 0, 63, 0
3, 24000, Note_on_c, 0, 67, 32
3, 24000, Note_on_c, 0, 63, 27
3, 24000, Note_on_c, 0, 60, 27
3, 24000, Note_on_c, 0, 55, 27
3, 24120, Note_on_c, 0, 55, 0
3, 24120, Note_on_c, 0, 67, 0
3, 24120, Note_on_c, 0, 63, 0
3, 24120, Note_on_c, 0, 60, 0
3, 24240, Note_on_c, 0, 55, 27
3, 24240, Note_on_c, 0, 43, 27
3, 24240, Note_on_c, 0, 53, 27
3, 24304, Note_on_c, 0, 55, 0
3, 24320, Note_on_c, 0, 55, 27
3, 24384, Note_on_c, 0, 55, 0
3, 24400, Note_on_c, 0, 55, 23
3, 24464, Note_on_c, 0, 55, 0
3, 24480, Note_on_c, 0, 53, 0
3, 24480, Note_on_c, 0, 43, 0
3, 24480, Note_on_c, 0, 44, 30
3, 24480, Note_on_c, 0, 54, 30
3, 24480, Note_on_c, 0, 36, 25
3, 24480, Note_on_c, 0, 51, 30
3, 24840, Note_on_c, 0, 54, 0
3, 24840, Note_on_c, 0, 44, 0
3, 24840, Note_on_c, 0, 43, 24
3, 24840, Note_on_c, 0, 55, 28
3, 25680, Note_on_c, 0, 55, 0
3, 25680, Note_on_c, 0, 51, 0
3, 25680, Note_on_c, 0, 36, 0
3, 25680, Note_on_c, 0, 43, 0
3, 25680, Note_on_c, 0, 31, 29
3, 25680, Note_on_c, 0, 43, 35
3, 25920, Note_on_c, 0, 43, 0
3, 25920, Note_on_c, 0, 31, 0
3, 25920, Note_on_c, 0, 36, 34
3, 25920, Note_on_c, 0, 48, 40
3, 26160, Note_on_c, 0, 48, 0
3, 26160, Note_on_c, 0, 36, 0
3, 26160, Note_on_c, 0, 38, 28
3, 26160, Note_on_c, 0, 50, 34
3, 26400, Note_on_c, 0, 50, 0
3, 26400, Note_on_c, 0, 38, 0
3, 26400, Note_on_c, 0, 39, 28
3, 26400, Note_on_c, 0, 51, 34
3, 26640, Note_on_c, 0, 51, 0
3, 26640, Note_on_c, 0, 39, 0
3, 26640, Note_on_c, 0, 36, 23
3, 26640, Note_on_c, 0, 48, 28
3, 26880, Note_on_c, 0, 48, 0
3, 26880, Note_on_c, 0, 36, 0
3, 26880, Note_on_c, 0, 35, 25
3, 26880, Note_on_c, 0, 47, 30
3, 27120, Note_on_c, 0, 35, 0
3, 27120, Note_on_c, 0, 38, 32
3, 27120, Note_on_c, 0, 50, 38
3, 27130, Note_on_c, 0, 47, 0
3, 27360, Note_on_c, 0, 38, 0
3, 27360, Note_on_c, 0, 43, 36
3, 27360, Note_on_c, 0, 55, 43
3, 27370, Note_on_c, 0, 50, 0
3, 27830, Note_on_c, 0, 55, 0
3, 27840, Note_on_c, 0, 43, 0
3, 27840, Note_on_c, 0, 42, 25
3, 27840, Note_on_c, 0, 54, 30
3, 28080, Note_on_c, 0, 42, 0
3, 28080, Note_on_c, 0, 45, 32
3, 28080, Note_on_c, 0, 57, 38
3, 28090, Note_on_c, 0, 54, 0
3, 28320, Note_on_c, 0, 45, 0
3, 28320, Note_on_c, 0, 50, 36
3, 28320, Note_on_c, 0, 62, 43
3, 28330, Note_on_c, 0, 57, 0
3, 28770, Note_on_c, 0, 62, 0
3, 28770, Note_on_c, 0, 50, 0
3, 28800, Note_on_c, 0, 62, 45
3, 28800, Note_on_c, 0, 58, 38
3, 29260, Note_on_c, 0, 58, 0
3, 29260, Note_on_c, 0, 62, 0
3, 29280, Note_on_c, 0, 51, 34
3, 29280, Note_on_c, 0, 63, 40
3, 29280, Note_on_c, 0, 58, 34
3, 29740, Note_on_c, 0, 58, 0
3, 29740, Note_on_c, 0, 63, 0
3, 29740, Note_on_c, 0, 51, 0
3, 29760, Note_on_c, 0, 53, 41
3, 29760, Note_on_c, 0, 62, 49
3, 29760, Note_on_c, 0, 58, 41
3, 30000, Note_on_c, 0, 58, 0
3, 30000, Note_on_c, 0, 62, 0
3, 30000, Note_on_c, 0, 53, 0
3, 30000, Note_on_c, 0, 54, 36
3, 30000, Note_on_c, 0, 60, 43
3, 30240, Note_on_c, 0, 60, 0
3, 30240, Note_on_c, 0, 54, 0
3, 30240, Note_on_c, 0, 58, 49
3, 30240, Note_on_c, 0, 55, 41
3, 30720, Note_on_c, 0, 55, 0
3, 30720, Note_on_c, 0, 58, 0
3, 30720, Note_on_c, 0, 62, 46
3, 30720, Note_on_c, 0, 58, 39
3, 31180, Note_on_c, 0, 58, 0
3, 31180, Note_on_c, 0, 62, 0
3, 31200, Note_on_c, 0, 51, 36
3, 31200, Note_on_c, 0, 63, 43
3, 31200, Note_on_c, 0, 58, 36
3, 31420, Note_on_c, 0, 58, 0
3, 31420, Note_on_c, 0, 63, 0
3, 31420, Note_on_c, 0, 51, 0
3, 31440, Note_on_c, 0, 62, 40
3, 31440, Note_on_c, 0, 58, 34
3, 31440, Note_on_c, 0, 53, 34
3, 31680, Note_on_c, 0, 53, 0
3, 31680, Note_on_c, 0, 58, 0
3, 31680, Note_on_c, 0, 62, 0
3, 31680, Note_on_c, 0, 55, 39
3, 31680, Note_on_c, 0, 60, 39
3, 31680, Note_on_c, 0, 63, 47
3, 31900, Note_on_c, 0, 63, 0
3, 31900, Note_on_c, 0, 60, 0
3, 31900, Note_on_c, 0, 55, 0
3, 31920, Note_on_c, 0, 65, 40
3, 31920, Note_on_c, 0, 59, 34
3, 31920, Note_on_c, 0, 55, 34
3, 32140, Note_on_c, 0, 55, 0
3, 32140, Note_on_c, 0, 59, 0
3, 32140, Note_on_c, 0, 65, 0
3, 32160, Note_on_c, 0, 48, 38
3, 32160, Note_on_c, 0, 55, 45
3, 33360, Note_on_c, 0, 55, 0
3, 33360, Note_on_c, 0, 48, 0
3, 33360, Note_on_c, 0, 55, 36
3, 33440, Note_on_c, 0, 55, 0
3, 33440, Note_on_c, 0, 67, 44
3, 33520, Note_on_c, 0, 67, 0
3, 33520, Note_on_c, 0, 65, 38
3, 33600, Note_on_c, 0, 65, 0
3, 33600, Note_on_c, 0, 63, 44
3, 33620, Note_on_c, 0, 63, 0
3, 33620, Note_on_c, 0, 65, 40
3, 33640, Note_on_c, 0, 65, 0
3, 33640, Note_on_c, 0, 63, 45
3, 33680, Note_on_c, 0, 63, 0
3, 33680, Note_on_c, 0, 62, 38
3, 33760, Note_on_c, 0, 62, 0
3, 33760, Note_on_c, 0, 60, 38
3, 33840, Note_on_c, 0, 60, 0
3, 33840, Note_on_c, 0, 59, 45
3, 33920, Note_on_c, 0, 59, 0
3, 33920, Note_on_c, 0, 60, 36
3, 34000, Note_on_c, 0, 60, 0
3, 34000, Note_on_c, 0, 62, 36
3, 34080, Note_on_c, 0, 62, 0
3, 34080, Note_on_c, 0, 60, 44
3, 34100, Note_on_c, 0, 60, 0
3, 34100, Note_on_c, 0, 62, 40
3, 34120, Note_on_c, 0, 62, 0
3, 34120, Note_on_c, 0, 60, 45
3, 34160, Note_on_c, 0, 60, 0
3, 34160, Note_on_c, 0, 55, 37
3, 34240, Note_on_c, 0, 55, 0
3, 34240, Note_on_c, 0, 53, 37
3, 34320, Note_on_c, 0, 53, 0
3, 34320, Note_on_c, 0, 51, 42
3, 34400, Note_on_c, 0, 51, 0
3, 34400, Note_on_c, 0, 50, 36
3, 34480, Note_on_c, 0, 50, 0
3, 34480, Note_on_c, 0, 48, 36
3, 34560, Note_on_c, 0, 48, 0
3, 34560, Note_on_c, 0, 50, 41
3, 34640, Note_on_c, 0, 50, 0
3, 34640, Note_on_c, 0, 43, 34
3, 34720, Note_on_c, 0, 43, 0
3, 34720, Note_on_c, 0, 55, 34
3, 34800, Note_on_c, 0, 55, 0
3, 34800, Note_on_c, 0, 54, 37
3, 34880, Note_on_c, 0, 54, 0
3, 34880, Note_on_c, 0, 57, 33
3, 34960, Note_on_c, 0, 57, 0
3, 34960, Note_on_c, 0, 60, 33
3, 35040, Note_on_c, 0, 60, 0
3, 35040, Note_on_c, 0, 58, 44
3, 35060, Note_on_c, 0, 58, 0
3, 35060, Note_on_c, 0, 60, 40
3, 35080, Note_on_c, 0, 60, 0
3, 35080, Note_on_c, 0, 58, 45
3, 35120, Note_on_c, 0, 58, 0
3, 35120, Note_on_c, 0, 57, 32
3, 35200, Note_on_c, 0, 57, 0
3, 35200, Note_on_c, 0, 55, 34
3, 35520, Note_on_c, 0, 55, 0
3, 35520, Note_on_c, 0, 57, 41
3, 35600, Note_on_c, 0, 57, 0
3, 35600, Note_on_c, 0, 50, 34
3, 35680, Note_on_c, 0, 50, 0
3, 35680, Note_on_c, 0, 62, 34
3, 35760, Note_on_c, 0, 62, 0
3, 35760, Note_on_c, 0, 61, 41
3, 35840, Note_on_c, 0, 61, 0
3, 35840, Note_on_c, 0, 64, 33
3, 35920, Note_on_c, 0, 64, 0
3, 35920, Note_on_c, 0, 67, 35
3, 36000, Note_on_c, 0, 67, 0
3, 36000, Note_on_c, 0, 65, 44
3, 36020, Note_on_c, 0, 65, 0
3, 36020, Note_on_c, 0, 67, 40
3, 36040, Note_on_c, 0, 67, 0
3, 36040, Note_on_c, 0, 65, 45
3, 36080, Note_on_c, 0, 65, 0
3, 36080, Note_on_c, 0, 64, 32
3, 36160, Note_on_c, 0, 64, 0
3, 36160, Note_on_c, 0, 62, 34
3, 36450, Note_on_c, 0, 62, 0
3, 36480, Note_on_c, 0, 58, 44
3, 36500, Note_on_c, 0, 58, 0
3, 36500, Note_on_c, 0, 60, 40
3, 36520, Note_on_c, 0, 60, 0
3, 36520, Note_on_c, 0, 58, 45
3, 36560, Note_on_c, 0, 58, 0
3, 36560, Note_on_c, 0, 57, 38
3, 36640, Note_on_c, 0, 57, 0
3, 36640, Note_on_c, 0, 55, 38
3, 36720, Note_on_c, 0, 55, 0
3, 36720, Note_on_c, 0, 53, 45
3, 36800, Note_on_c, 0, 53, 0
3, 36800, Note_on_c, 0, 55, 36
3, 36880, Note_on_c, 0, 55, 0
3, 36880, Note_on_c, 0, 57, 36
3, 36960, Note_on_c, 0, 57, 0
3, 36960, Note_on_c, 0, 51, 37
3, 36960, Note_on_c, 0, 58, 45
3, 37040, Note_on_c, 0, 58, 0
3, 37040, Note_on_c, 0, 57, 37
3, 37120, Note_on_c, 0, 57, 0
3, 37120, Note_on_c, 0, 58, 37
3, 37200, Note_on_c, 0, 58, 0
3, 37200, Note_on_c, 0, 63, 42
3, 37280, Note_on_c, 0, 63, 0
3, 37280, Note_on_c, 0, 58, 36
3, 37360, Note_on_c, 0, 58, 0
3, 37360, Note_on_c, 0, 55, 36
3, 37410, Note_on_c, 0, 55, 0
3, 37440, Note_on_c, 0, 51, 0
3, 37440, Note_on_c, 0, 50, 39
3, 37440, Note_on_c, 0, 58, 45
3, 37520, Note_on_c, 0, 58, 0
3, 37520, Note_on_c, 0, 57, 38
3, 37600, Note_on_c, 0, 57, 0
3, 37600, Note_on_c, 0, 55, 38
3, 37680, Note_on_c, 0, 55, 0
3, 37680, Note_on_c, 0, 50, 0
3, 37680, Note_on_c, 0, 54, 45
3, 37760, Note_on_c, 0, 55, 36
3, 37840, Note_on_c, 0, 55, 0
3, 37840, Note_on_c, 0, 57, 36
3, 37920, Note_on_c, 0, 57, 0
3, 37920, Note_on_c, 0, 54, 0
3, 37920, Note_on_c, 0, 55, 40
3, 38000, Note_on_c, 0, 57, 37
3, 38080, Note_on_c, 0, 57, 0
3, 38080, Note_on_c, 0, 58, 37
3, 38400, Note_on_c, 0, 58, 0
3, 38400, Note_on_c, 0, 55, 0
3, 38400, Note_on_c, 0, 58, 44
3, 38420, Note_on_c, 0, 58, 0
3, 38420, Note_on_c, 0, 60, 40
3, 38440, Note_on_c, 0, 60, 0
3, 38440, Note_on_c, 0, 58, 45
3, 38480, Note_on_c, 0, 58, 0
3, 38480, Note_on_c, 0, 57, 37
3, 38560, Note_on_c, 0, 57, 0
3, 38560, Note_on_c, 0, 55, 37
3, 38640, Note_on_c, 0, 55, 0
3, 38640, Note_on_c, 0, 53, 42
3, 38720, Note_on_c, 0, 53, 0
3, 38720, Note_on_c, 0, 55, 37
3, 38800, Note_on_c, 0, 55, 0
3, 38800, Note_on_c, 0, 57, 40
3, 38880, Note_on_c, 0, 57, 0
3, 38880, Note_on_c, 0, 51, 45
3, 38880, Note_on_c, 0, 58, 44
3, 38960, Note_on_c, 0, 58, 0
3, 38960, Note_on_c, 0, 57, 38
3, 39040, Note_on_c, 0, 57, 0
3, 39040, Note_on_c, 0, 58, 38
3, 39120, Note_on_c, 0, 58, 0
3, 39120, Note_on_c, 0, 51, 0
3, 39120, Note_on_c, 0, 53, 45
3, 39120, Note_on_c, 0, 62, 42
3, 39200, Note_on_c, 0, 62, 0
3, 39200, Note_on_c, 0, 60, 36
3, 39280, Note_on_c, 0, 60, 0
3, 39280, Note_on_c, 0, 62, 35
3, 39360, Note_on_c, 0, 62, 0
3, 39360, Note_on_c, 0, 53, 0
3, 39360, Note_on_c, 0, 63, 40
3, 39360, Note_on_c, 0, 55, 45
3, 39440, Note_on_c, 0, 63, 0
3, 39440, Note_on_c, 0, 62, 37
3, 39520, Note_on_c, 0, 62, 0
3, 39520, Note_on_c, 0, 63, 37
3, 39600, Note_on_c, 0, 63, 0
3, 39600, Note_on_c, 0, 55, 0
3, 39600, Note_on_c, 0, 55, 45
3, 39600, Note_on_c, 0, 65, 42
3, 39680, Note_on_c, 0, 65, 0
3, 39680, Note_on_c, 0, 62, 37
3, 39760, Note_on_c, 0, 62, 0
3, 39760, Note_on_c, 0, 59, 40
3, 39840, Note_on_c, 0, 59, 0
3, 39840, Note_on_c, 0, 55, 0
3, 39840, Note_on_c, 0, 60, 45
3, 39840, Note_on_c, 0, 48, 42
3, 39920, Note_on_c, 0, 60, 0
3, 39920, Note_on_c, 0, 55, 37
3, 40000, Note_on_c, 0, 55, 0
3, 40000, Note_on_c, 0, 51, 37
3, 40320, Note_on_c, 0, 51, 0
3, 40320, Note_on_c, 0, 48, 0
3, 40320, Note_on_c, 0, 44, 28
3, 40320, Note_on_c, 0, 51, 34
3, 40540, Note_on_c, 0, 51, 0
3, 40540, Note_on_c, 0, 44, 0
3, 40560, Note_on_c, 0, 46, 26
3, 40560, Note_on_c, 0, 51, 31
3, 40670, Note_on_c, 0, 51, 0
3, 40670, Note_on_c, 0, 46, 0
3, 40680, Note_on_c, 0, 44, 24
3, 40680, Note_on_c, 0, 51, 29
3, 40790, Note_on_c, 0, 51, 0
3, 40790, Note_on_c, 0, 44, 0
3, 40800, Note_on_c, 0, 41, 28
3, 40800, Note_on_c, 0, 53, 34
3, 41270, Note_on_c, 0, 53, 0
3, 41280, Note_on_c, 0, 41, 0
3, 41280, Note_on_c, 0, 44, 33
3, 41280, Note_on_c, 0, 51, 39
3, 41500, Note_on_c, 0, 51, 0
3, 41500, Note_on_c, 0, 44, 0
3, 41520, Note_on_c, 0, 46, 34
3, 41520, Note_on_c, 0, 51, 41
3, 41630, Note_on_c, 0, 51, 0
3, 41630, Note_on_c, 0, 46, 0
3, 41640, Note_on_c, 0, 44, 33
3, 41640, Note_on_c, 0, 51, 39
3, 41750, Note_on_c, 0, 51, 0
3, 41750, Note_on_c, 0, 44, 0
3, 41760, Note_on_c, 0, 43, 44
3, 41760, Note_on_c, 0, 55, 52
3, 42230, Note_on_c, 0, 55, 0
3, 42240, Note_on_c, 0, 43, 0
3, 42240, Note_on_c, 0, 44, 32
3, 42240, Note_on_c, 0, 51, 38
3, 42705, Note_on_c, 0, 51, 0
3, 42705, Note_on_c, 0, 44, 0
3, 42720, Note_on_c, 0, 41, 34
3, 42720, Note_on_c, 0, 53, 40
3, 42948, Note_on_c, 0, 53, 0
3, 42948, Note_on_c, 0, 41, 0
3, 42960, Note_on_c, 0, 41, 38
3, 42960, Note_on_c, 0, 53, 45
3, 43188, Note_on_c, 0, 53, 0
3, 43188, Note_on_c, 0, 41, 0
3, 43200, Note_on_c, 0, 48, 40
3, 43200, Note_on_c, 0, 43, 40
3, 43200, Note_on_c, 0, 55, 48
3, 43428, Note_on_c, 0, 43, 0
3, 43433, Note_on_c, 0, 55, 0
3, 43440, Note_on_c, 0, 48, 0
3, 43440, Note_on_c, 0, 43, 21
3, 43440, Note_on_c, 0, 53, 25
3, 43680, Note_on_c, 0, 53, 0
3, 43680, Note_on_c, 0, 43, 0
3, 43680, Note_on_c, 0, 48, 25
3, 43680, Note_on_c, 0, 51, 30
3, 44150, Note_on_c, 0, 51, 0
3, 44150, Note_on_c, 0, 48, 0
3, 44160, Note_on_c, 0, 44, 28
3, 44160, Note_on_c, 0, 51, 34
3, 44380, Note_on_c, 0, 51, 0
3, 44380, Note_on_c, 0, 44, 0
3, 44400, Note_on_c, 0, 46, 26
3, 44400, Note_on_c, 0, 51, 31
3, 44510, Note_on_c, 0, 51, 0
3, 44510, Note_on_c, 0, 46, 0
3, 44520, Note_on_c, 0, 44, 24
3, 44520, Note_on_c, 0, 51, 29
3, 44630, Note_on_c, 0, 51, 0
3, 44630, Note_on_c, 0, 44, 0
3, 44647, Note_on_c, 0, 41, 28
3, 44647, Note_on_c, 0, 53, 34
3, 44820, Note_on_c, 0, 65, 30
3, 44820, Note_on_c, 0, 73, 30
3, 44820, Note_on_c, 0, 77, 36
3, 44865, Note_on_c, 0, 77, 0
3, 44865, Note_on_c, 0, 65, 0
3, 44865, Note_on_c, 0, 73, 0
3, 44880, Note_on_c, 0, 67, 25
3, 44880, Note_on_c, 0, 73, 25
3, 44880, Note_on_c, 0, 75, 30
3, 44925, Note_on_c, 0, 75, 0
3, 44925, Note_on_c, 0, 67, 0
3, 44925, Note_on_c, 0, 73, 0
3, 44940, Note_on_c, 0, 68, 23
3, 44940, Note_on_c, 0, 73, 28
3, 44985, Note_on_c, 0, 73, 0
3, 44985, Note_on_c, 0, 68, 0
3, 45000, Note_on_c, 0, 68, 28
3, 45000, Note_on_c, 0, 73, 34
3, 45007, Note_on_c, 0, 53, 0
3, 45007, Note_on_c, 0, 41, 0
3, 45045, Note_on_c, 0, 68, 0
3, 45060, Note_on_c, 0, 70, 28
3, 45086, Note_on_c, 0, 73, 0
3, 45105, Note_on_c, 0, 70, 0
3, 45120, Note_on_c, 0, 70, 23
3, 45120, Note_on_c, 0, 73, 28
3, 45165, Note_on_c, 0, 73, 0
3, 45165, Note_on_c, 0, 70, 0
3, 45180, Note_on_c, 0, 65, 28
3, 45180, Note_on_c, 0, 73, 28
3, 45180, Note_on_c, 0, 77, 34
3, 45225, Note_on_c, 0, 77, 0
3, 45225, Note_on_c, 0, 73, 0
3, 45225, Note_on_c, 0, 65, 0
3, 45240, Note_on_c, 0, 67, 24
3, 45240, Note_on_c, 0, 73, 24
3, 45240, Note_on_c, 0, 75, 29
3, 45285, Note_on_c, 0, 75, 0
3, 45285, Note_on_c, 0, 73, 0
3, 45285, Note_on_c, 0, 67, 0
3, 45300, Note_on_c, 0, 68, 28
3, 45300, Note_on_c, 0, 73, 34
3, 45345, Note_on_c, 0, 73, 0
3, 45345, Note_on_c, 0, 68, 0
3, 45360, Note_on_c, 0, 68, 25
3, 45360, Note_on_c, 0, 73, 30
3, 45405, Note_on_c, 0, 68, 0
3, 45420, Note_on_c, 0, 70, 30
3, 45446, Note_on_c, 0, 73, 0
3, 45465, Note_on_c, 0, 70, 0
3, 45480, Note_on_c, 0, 70, 25
3, 45480, Note_on_c, 0, 73, 30
3, 45525, Note_on_c, 0, 73, 0
3, 45525, Note_on_c, 0, 70, 0
3, 45720, Note_on_c, 0, 44, 28
3, 45720, Note_on_c, 0, 51, 34
3, 45940, Note_on_c, 0, 51, 0
3, 45940, Note_on_c, 0, 44, 0
3, 45960, Note_on_c, 0, 46, 26
3, 45960, Note_on_c, 0, 51, 31
3, 46070, Note_on_c, 0, 51, 0
3, 46070, Note_on_c, 0, 46, 0
3, 46080, Note_on_c, 0, 44, 24
3, 46080, Note_on_c, 0, 51, 29
3, 46190, Note_on_c, 0, 51, 0
3, 46190, Note_on_c, 0, 44, 0
3, 46200, Note_on_c, 0, 43, 28
3, 46200, Note_on_c, 0, 55, 34
3, 46380, Note_on_c, 0, 67, 30
3, 46380, Note_on_c, 0, 75, 30
3, 46380, Note_on_c, 0, 79, 36
3, 46425, Note_on_c, 0, 79, 0
3, 46425, Note_on_c, 0, 67, 0
3, 46425, Note_on_c, 0, 75, 0
3, 46440, Note_on_c, 0, 69, 25
3, 46440, Note_on_c, 0, 75, 25
3, 46440, Note_on_c, 0, 77, 30
3, 46485, Note_on_c, 0, 77, 0
3, 46485, Note_on_c, 0, 69, 0
3, 46485, Note_on_c, 0, 75, 0
3, 46500, Note_on_c, 0, 70, 23
3, 46500, Note_on_c, 0, 75, 28
3, 46545, Note_on_c, 0, 75, 0
3, 46545, Note_on_c, 0, 70, 0
3, 46560, Note_on_c, 0, 55, 0
3, 46560, Note_on_c, 0, 43, 0
3, 46560, Note_on_c, 0, 70, 28
3, 46560, Note_on_c, 0, 75, 34
3, 46605, Note_on_c, 0, 70, 0
3, 46620, Note_on_c, 0, 72, 28
3, 46646, Note_on_c, 0, 75, 0
3, 46665, Note_on_c, 0, 72, 0
3, 46680, Note_on_c, 0, 72, 23
3, 46680, Note_on_c, 0, 75, 28
3, 46725, Note_on_c, 0, 75, 0
3, 46725, Note_on_c, 0, 72, 0
3, 46740, Note_on_c, 0, 67, 28
3, 46740, Note_on_c, 0, 75, 28
3, 46740, Note_on_c, 0, 79, 34
3, 46785, Note_on_c, 0, 79, 0
3, 46785, Note_on_c, 0, 75, 0
3, 46785, Note_on_c, 0, 67, 0
3, 46800, Note_on_c, 0, 69, 24
3, 46800, Note_on_c, 0, 75, 24
3, 46800, Note_on_c, 0, 77, 29
3, 46845, Note_on_c, 0, 77, 0
3, 46845, Note_on_c, 0, 75, 0
3, 46845, Note_on_c, 0, 69, 0
3, 46860, Note_on_c, 0, 70, 28
3, 46860, Note_on_c, 0, 75, 34
3, 46905, Note_on_c, 0, 75, 0
3, 46905, Note_on_c, 0, 70, 0
3, 46920, Note_on_c, 0, 70, 25
3, 46920, Note_on_c, 0, 75, 30
3, 46965, Note_on_c, 0, 70, 0
3, 46980, Note_on_c, 0, 72, 30
3, 47006, Note_on_c, 0, 75, 0
3, 47025, Note_on_c, 0, 72, 0
3, 47040, Note_on_c, 0, 72, 25
3, 47040, Note_on_c, 0, 75, 30
3, 47085, Note_on_c, 0, 75, 0
3, 47085, Note_on_c, 0, 72, 0
3, 47280, Note_on_c, 0, 58, 44
3, 47300, Note_on_c, 0, 58, 0
3, 47300, Note_on_c, 0, 60, 40
3, 47320, Note_on_c, 0, 60, 0
3, 47320, Note_on_c, 0, 58, 45
3, 47360, Note_on_c, 0, 58, 0
3, 47360, Note_on_c, 0, 57, 37
3, 47440, Note_on_c, 0, 57, 0
3, 47440, Note_on_c, 0, 55, 37
3, 47520, Note_on_c, 0, 55, 0
3, 47520, Note_on_c, 0, 53, 42
3, 47600, Note_on_c, 0, 53, 0
3, 47600, Note_on_c, 0, 55, 37
3, 47680, Note_on_c, 0, 55, 0
3, 47680, Note_on_c, 0, 57, 40
3, 47760, Note_on_c, 0, 57, 0
3, 47760, Note_on_c, 0, 51, 45
3, 47760, Note_on_c, 0, 58, 44
3, 47840, Note_on_c, 0, 58, 0
3, 47840, Note_on_c, 0, 57, 38
3, 47920, Note_on_c, 0, 57, 0
3, 47920, Note_on_c, 0, 58, 38
3, 48000, Note_on_c, 0, 58, 0
3, 48000, Note_on_c, 0, 51, 0
3, 48000, Note_on_c, 0, 53, 45
3, 48000, Note_on_c, 0, 62, 42
3, 48080, Note_on_c, 0, 62, 0
3, 48080, Note_on_c, 0, 60, 36
3, 48160, Note_on_c, 0, 60, 0
3, 48160, Note_on_c, 0, 62, 35
3, 48240, Note_on_c, 0, 62, 0
3, 48240, Note_on_c, 0, 53, 0
3, 48240, Note_on_c, 0, 63, 40
3, 48240, Note_on_c, 0, 55, 45
3, 48320, Note_on_c, 0, 63, 0
3, 48320, Note_on_c, 0, 62, 37
3, 48400, Note_on_c, 0, 62, 0
3, 48400, Note_on_c, 0, 63, 37
3, 48480, Note_on_c, 0, 63, 0
3, 48480, Note_on_c, 0, 55, 0
3, 48480, Note_on_c, 0, 55, 45
3, 48480, Note_on_c, 0, 65, 42
3, 48560, Note_on_c, 0, 65, 0
3, 48560, Note_on_c, 0, 62, 37
3, 48640, Note_on_c, 0, 62, 0
3, 48640, Note_on_c, 0, 59, 40
3, 48720, Note_on_c, 0, 59, 0
3, 48720, Note_on_c, 0, 55, 0
3, 48720, Note_on_c, 0, 60, 45
3, 48720, Note_on_c, 0, 48, 42
3, 48800, Note_on_c, 0, 60, 0
3, 48800, Note_on_c, 0, 55, 37
3, 48880, Note_on_c, 0, 55, 0
3, 48880, Note_on_c, 0, 51, 37
3, 49920, Note_on_c, 0, 51, 0
3, 49920, Note_on_c, 0, 48, 0
3, 49920, Note_on_c, 0, 31, 56
3, 49920, Note_on_c, 0, 43, 56
3, 50160, Note_on_c, 0, 43, 0
3, 50160, Note_on_c, 0, 31, 0
3, 50160, Note_on_c, 0, 36, 62
3, 50160, Note_on_c, 0, 48, 62
3, 50400, Note_on_c, 0, 48, 0
3, 50400, Note_on_c, 0, 36, 0
3, 50400, Note_on_c, 0, 38, 53
3, 50400, Note_on_c, 0, 50, 53
3, 50640, Note_on_c, 0, 50, 0
3, 50640, Note_on_c, 0, 38, 0
3, 50640, Note_on_c, 0, 40, 60
3, 50640, Note_on_c, 0, 52, 60
3, 50880, Note_on_c, 0, 52, 0
3, 50880, Note_on_c, 0, 40, 0
3, 50880, Note_on_c, 0, 36, 52
3, 50880, Note_on_c, 0, 48, 52
3, 51120, Note_on_c, 0, 48, 0
3, 51120, Note_on_c, 0, 36, 0
3, 51120, Note_on_c, 0, 35, 62
3, 51120, Note_on_c, 0, 47, 62
3, 51360, Note_on_c, 0, 35, 0
3, 51360, Note_on_c, 0, 36, 43
3, 51360, Note_on_c, 0, 48, 43
3, 51370, Note_on_c, 0, 47, 0
3, 51600, Note_on_c, 0, 36, 0
3, 51600, Note_on_c, 0, 31, 53
3, 51600, Note_on_c, 0, 43, 53
3, 51610, Note_on_c, 0, 48, 0
3, 52070, Note_on_c, 0, 43, 0
3, 52080, Note_on_c, 0, 31, 0
3, 52080, Note_on_c, 0, 36, 45
3, 52080, Note_on_c, 0, 48, 53
3, 52560, Note_on_c, 0, 48, 0
3, 52560, Note_on_c, 0, 36, 0
3, 52560, Note_on_c, 0, 43, 49
3, 52560, Note_on_c, 0, 55, 58
3, 53040, Note_on_c, 0, 55, 0
3, 53040, Note_on_c, 0, 43, 0
3, 53040, Note_on_c, 0, 40, 45
3, 53040, Note_on_c, 0, 52, 53
3, 53280, Note_on_c, 0, 52, 0
3, 53280, Note_on_c, 0, 40, 0
3, 53280, Note_on_c, 0, 38, 47
3, 53280, Note_on_c, 0, 50, 56
3, 53520, Note_on_c, 0, 50, 0
3, 53520, Note_on_c, 0, 38, 0
3, 53520, Note_on_c, 0, 48, 60
3, 53520, Note_on_c, 0, 36, 51
3, 53760, Note_on_c, 0, 36, 0
3, 53760, Note_on_c, 0, 48, 0
3, 53760, Note_on_c, 0, 31, 56
3, 53760, Note_on_c, 0, 43, 56
3, 54000, Note_on_c, 0, 43, 0
3, 54000, Note_on_c, 0, 31, 0
3, 54000, Note_on_c, 0, 36, 62
3, 54000, Note_on_c, 0, 48, 62
3, 54240, Note_on_c, 0, 48, 0
3, 54240, Note_on_c, 0, 36, 0
3, 54240, Note_on_c, 0, 38, 53
3, 54240, Note_on_c, 0, 50, 53
3, 54480, Note_on_c, 0, 50, 0
3, 54480, Note_on_c, 0, 38, 0
3, 54480, Note_on_c, 0, 40, 60
3, 54480, Note_on_c, 0, 52, 60
3, 54720, Note_on_c, 0, 52, 0
3, 54720, Note_on_c, 0, 40, 0
3, 54720, Note_on_c, 0, 36, 52
3, 54720, Note_on_c, 0, 48, 52
3, 54960, Note_on_c, 0, 48, 0
3, 54960, Note_on_c, 0, 36, 0
3, 54960, Note_on_c, 0, 35, 62
3, 54960, Note_on_c, 0, 47, 62
3, 55200, Note_on_c, 0, 35, 0
3, 55200, Note_on_c, 0, 36, 43
3, 55200, Note_on_c, 0, 48, 43
3, 55210, Note_on_c, 0, 47, 0
3, 55440, Note_on_c, 0, 36, 0
3, 55440, Note_on_c, 0, 31, 53
3, 55440, Note_on_c, 0, 43, 53
3, 55450, Note_on_c, 0, 48, 0
3, 55910, Note_on_c, 0, 43, 0
3, 55920, Note_on_c, 0, 31, 0
3, 55920, Note_on_c, 0, 32, 35
3, 55920, Note_on_c, 0, 44, 42
3, 56400, Note_on_c, 0, 44, 0
3, 56400, Note_on_c, 0, 32, 0
3, 56400, Note_on_c, 0, 37, 35
3, 56400, Note_on_c, 0, 49, 42
3, 56880, Note_on_c, 0, 49, 0
3, 56880, Note_on_c, 0, 37, 0
3, 56880, Note_on_c, 0, 36, 44
3, 56880, Note_on_c, 0, 48, 44
3, 57120, Note_on_c, 0, 36, 0
3, 57120, Note_on_c, 0, 34, 29
3, 57120, Note_on_c, 0, 46, 29
3, 57130, Note_on_c, 0, 48, 0
3, 57360, Note_on_c, 0, 34, 0
3, 57360, Note_on_c, 0, 32, 42
3, 57360, Note_on_c, 0, 44, 42
3, 57370, Note_on_c, 0, 46, 0
3, 57830, Note_on_c, 0, 44, 0
3, 57840, Note_on_c, 0, 32, 0
3, 57840, Note_on_c, 0, 31, 42
3, 57840, Note_on_c, 0, 43, 42
3, 58320, Note_on_c, 0, 43, 0
3, 58320, Note_on_c, 0, 31, 0
3, 58320, Note_on_c, 0, 43, 42
3, 58440, Note_on_c, 0, 50, 42
3, 58560, Note_on_c, 0, 50, 0
3, 58560, Note_on_c, 0, 55, 51
3, 58680, Note_on_c, 0, 55, 0
3, 58680, Note_on_c, 0, 53, 48
3, 58800, Note_on_c, 0, 53, 0
3, 58800, Note_on_c, 0, 43, 0
3, 58800, Note_on_c, 0, 52, 55
3, 58800, Note_on_c, 0, 43, 55
3, 59040, Note_on_c, 0, 52, 0
3, 59040, Note_on_c, 0, 53, 55
3, 59160, Note_on_c, 0, 53, 0
3, 59160, Note_on_c, 0, 52, 49
3, 59280, Note_on_c, 0, 52, 0
3, 59280, Note_on_c, 0, 50, 54
3, 59520, Note_on_c, 0, 50, 0
3, 59520, Note_on_c, 0, 55, 50
3, 59760, Note_on_c, 0, 55, 0
3, 59760, Note_on_c, 0, 43, 0
3, 59760, Note_on_c, 0, 48, 45
3, 59760, Note_on_c, 0, 60, 54
3, 60000, Note_on_c, 0, 60, 0
3, 60000, Note_on_c, 0, 58, 57
3, 60240, Note_on_c, 0, 58, 0
3, 60240, Note_on_c, 0, 48, 0
3, 60240, Note_on_c, 0, 53, 52
3, 60240, Note_on_c, 0, 57, 62
3, 60480, Note_on_c, 0, 57, 0
3, 60480, Note_on_c, 0, 59, 55
3, 60720, Note_on_c, 0, 59, 0
3, 60720, Note_on_c, 0, 53, 0
3, 60720, Note_on_c, 0, 52, 45
3, 60720, Note_on_c, 0, 60, 54
3, 60960, Note_on_c, 0, 60, 0
3, 60960, Note_on_c, 0, 52, 0
3, 60960, Note_on_c, 0, 50, 38
3, 60960, Note_on_c, 0, 59, 45
3, 61200, Note_on_c, 0, 59, 0
3, 61200, Note_on_c, 0, 50, 0
3, 61200, Note_on_c, 0, 48, 36
3, 61200, Note_on_c, 0, 60, 44
3, 61680, Note_on_c, 0, 60, 0
3, 61680, Note_on_c, 0, 48, 0
3, 61680, Note_on_c, 0, 41, 36
3, 61680, Note_on_c, 0, 48, 36
3, 61680, Note_on_c, 0, 53, 43
3, 62160, Note_on_c, 0, 53, 0
3, 62160, Note_on_c, 0, 48, 0
3, 62160, Note_on_c, 0, 41, 0
3, 62160, Note_on_c, 0, 42, 43
3, 62160, Note_on_c, 0, 50, 43
3, 62160, Note_on_c, 0, 54, 51
3, 62640, Note_on_c, 0, 54, 0
3, 62640, Note_on_c, 0, 50, 0
3, 62640, Note_on_c, 0, 42, 0
3, 62640, Note_on_c, 0, 45, 50
3, 62640, Note_on_c, 0, 50, 50
3, 62640, Note_on_c, 0, 57, 59
3, 63120, Note_on_c, 0, 57, 0
3, 63120, Note_on_c, 0, 50, 0
3, 63120, Note_on_c, 0, 45, 0
3, 63120, Note_on_c, 0, 44, 66
3, 63120, Note_on_c, 0, 51, 66
3, 63120, Note_on_c, 0, 56, 78
3, 63180, Note_on_c, 0, 56, 0
3, 63180, Note_on_c, 0, 51, 0
3, 63180, Note_on_c, 0, 44, 0
3, 63200, Note_on_c, 0, 60, 52
3, 63200, Note_on_c, 0, 63, 52
3, 63200, Note_on_c, 0, 66, 62
3, 63260, Note_on_c, 0, 66, 0
3, 63260, Note_on_c, 0, 63, 0
3, 63260, Note_on_c, 0, 60, 0
3, 63280, Note_on_c, 0, 60, 53
3, 63280, Note_on_c, 0, 63, 53
3, 63280, Note_on_c, 0, 66, 63
3, 63340, Note_on_c, 0, 66, 0
3, 63340, Note_on_c, 0, 63, 0
3, 63340, Note_on_c, 0, 60, 0
3, 63360, Note_on_c, 0, 60, 64
3, 63360, Note_on_c, 0, 63, 64
3, 63360, Note_on_c, 0, 66, 76
3, 63420, Note_on_c, 0, 66, 0
3, 63420, Note_on_c, 0, 63, 0
3, 63420, Note_on_c, 0, 60, 0
3, 63440, Note_on_c, 0, 60, 56
3, 63440, Note_on_c, 0, 63, 56
3, 63440, Note_on_c, 0, 65, 66
3, 63500, Note_on_c, 0, 65, 0
3, 63500, Note_on_c, 0, 63, 0
3, 63500, Note_on_c, 0, 60, 0
3, 63520, Note_on_c, 0, 60, 57
3, 63520, Note_on_c, 0, 63, 57
3, 63520, Note_on_c, 0, 66, 67
3, 63570, Note_on_c, 0, 66, 0
3, 63570, Note_on_c, 0, 63, 0
3, 63570, Note_on_c, 0, 60, 0
3, 63570, Note_on_c, 0, 43, 61
3, 63570, Note_on_c, 0, 52, 61
3, 63570, Note_on_c, 0, 55, 68
3, 63600, Note_on_c, 0, 55, 0
3, 63600, Note_on_c, 0, 52, 0
3, 63600, Note_on_c, 0, 43, 0
3, 63600, Note_on_c, 0, 64, 62
3, 63600, Note_on_c, 0, 67, 73
3, 63660, Note_on_c, 0, 67, 0
3, 63660, Note_on_c, 0, 64, 0
3, 63680, Note_on_c, 0, 60, 55
3, 63680, Note_on_c, 0, 67, 65
3, 63740, Note_on_c, 0, 67, 0
3, 63740, Note_on_c, 0, 60, 0
3, 63760, Note_on_c, 0, 55, 56
3, 63760, Note_on_c, 0, 64, 66
3, 63820, Note_on_c, 0, 64, 0
3, 63820, Note_on_c, 0, 55, 0
3, 63840, Note_on_c, 0, 52, 63
3, 63840, Note_on_c, 0, 60, 75
3, 63900, Note_on_c, 0, 60, 0
3, 63900, Note_on_c, 0, 52, 0
3, 63920, Note_on_c, 0, 48, 53
3, 63920, Note_on_c, 0, 55, 62
3, 63980, Note_on_c, 0, 55, 0
3, 63980, Note_on_c, 0, 48, 0
3, 64000, Note_on_c, 0, 45, 53
3, 64000, Note_on_c, 0, 52, 62
3, 64060, Note_on_c, 0, 52, 0
3, 64060, Note_on_c, 0, 45, 0
3, 64080, Note_on_c, 0, 43, 63
3, 64080, Note_on_c, 0, 53, 75
3, 64140, Note_on_c, 0, 53, 0
3, 64160, Note_on_c, 0, 50, 66
3, 64220, Note_on_c, 0, 50, 0
3, 64240, Note_on_c, 0, 47, 66
3, 64300, Note_on_c, 0, 47, 0
3, 64320, Note_on_c, 0, 43, 69
3, 64380, Note_on_c, 0, 43, 0
3, 64400, Note_on_c, 0, 41, 59
3, 64460, Note_on_c, 0, 41, 0
3, 64480, Note_on_c, 0, 38, 59
3, 64540, Note_on_c, 0, 38, 0
3, 64560, Note_on_c, 0, 43, 0
3, 64560, Note_on_c, 0, 36, 40
3, 64788, Note_on_c, 0, 36, 0
3, 64800, Note_on_c, 0, 36, 36
3, 65028, Note_on_c, 0, 36, 0
3, 65040, Note_on_c, 0, 36, 32
3, 65268, Note_on_c, 0, 36, 0
3, 65280, Note_on_c, 0, 48, 37
3, 65280, Note_on_c, 0, 55, 37
3, 65508, Note_on_c, 0, 55, 0
3, 65508, Note_on_c, 0, 48, 0
3, 65520, Note_on_c, 0, 48, 42
3, 65520, Note_on_c, 0, 59, 42
3, 65748, Note_on_c, 0, 59, 0
3, 65748, Note_on_c, 0, 48, 0
3, 65760, Note_on_c, 0, 48, 36
3, 65760, Note_on_c, 0, 60, 36
3, 65988, Note_on_c, 0, 60, 0
3, 65988, Note_on_c, 0, 48, 0
3, 66000, Note_on_c, 0, 48, 36
3, 66000, Note_on_c, 0, 64, 36
3, 66228, Note_on_c, 0, 64, 0
3, 66228, Note_on_c, 0, 48, 0
3, 66240, Note_on_c, 0, 48, 30
3, 66240, Note_on_c, 0, 59, 30
3, 66468, Note_on_c, 0, 59, 0
3, 66468, Note_on_c, 0, 48, 0
3, 66480, Note_on_c, 0, 48, 42
3, 66480, Note_on_c, 0, 57, 42
3, 66708, Note_on_c, 0, 48, 0
3, 66720, Note_on_c, 0, 48, 36
3, 66948, Note_on_c, 0, 48, 0
3, 66960, Note_on_c, 0, 57, 0
3, 66960, Note_on_c, 0, 48, 36
3, 67188, Note_on_c, 0, 48, 0
3, 67200, Note_on_c, 0, 48, 37
3, 67200, Note_on_c, 0, 57, 37
3, 67428, Note_on_c, 0, 57, 0
3, 67428, Note_on_c, 0, 48, 0
3, 67440, Note_on_c, 0, 48, 42
3, 67440, Note_on_c, 0, 57, 42
3, 67668, Note_on_c, 0, 57, 0
3, 67668, Note_on_c, 0, 48, 0
3, 67680, Note_on_c, 0, 48, 36
3, 67680, Note_on_c, 0, 59, 36
3, 67908, Note_on_c, 0, 59, 0
3, 67908, Note_on_c, 0, 48, 0
3, 67920, Note_on_c, 0, 48, 36
3, 67920, Note_on_c, 0, 62, 36
3, 68148, Note_on_c, 0, 62, 0
3, 68148, Note_on_c, 0, 48, 0
3, 68160, Note_on_c, 0, 48, 30
3, 68160, Note_on_c, 0, 57, 30
3, 68388, Note_on_c, 0, 57, 0
3, 68388, Note_on_c, 0, 48, 0
3, 68400, Note_on_c, 0, 48, 42
3, 68400, Note_on_c, 0, 55, 42
3, 68628, Note_on_c, 0, 48, 0
3, 68640, Note_on_c, 0, 48, 36
3, 68868, Note_on_c, 0, 48, 0
3, 68880, Note_on_c, 0, 55, 0
3, 68880, Note_on_c, 0, 48, 36
3, 69108, Note_on_c, 0, 48, 0
3, 69120, Note_on_c, 0, 48, 37
3, 69120, Note_on_c, 0, 55, 37
3, 69348, Note_on_c, 0, 55, 0
3, 69348, Note_on_c, 0, 48, 0
3, 69360, Note_on_c, 0, 48, 42
3, 69360, Note_on_c, 0, 55, 42
3, 69588, Note_on_c, 0, 55, 0
3, 69588, Note_on_c, 0, 48, 0
3, 69600, Note_on_c, 0, 48, 36
3, 69600, Note_on_c, 0, 57, 36
3, 69828, Note_on_c, 0, 57, 0
3, 69828, Note_on_c, 0, 48, 0
3, 69840, Note_on_c, 0, 48, 36
3, 69840, Note_on_c, 0, 60, 36
3, 70068, Note_on_c, 0, 60, 0
3, 70068, Note_on_c, 0, 48, 0
3, 70080, Note_on_c, 0, 48, 30
3, 70080, Note_on_c, 0, 55, 30
3, 70308, Note_on_c, 0, 55, 0
3, 70308, Note_on_c, 0, 48, 0
3, 70320, Note_on_c, 0, 48, 42
3, 70320, Note_on_c, 0, 53, 42
3, 70548, Note_on_c, 0, 48, 0
3, 70560, Note_on_c, 0, 48, 36
3, 70788, Note_on_c, 0, 48, 0
3, 70800, Note_on_c, 0, 53, 0
3, 70800, Note_on_c, 0, 48, 36
3, 71028, Note_on_c, 0, 48, 0
3, 71040, Note_on_c, 0, 48, 37
3, 71040, Note_on_c, 0, 53, 37
3, 71268, Note_on_c, 0, 53, 0
3, 71268, Note_on_c, 0, 48, 0
3, 71280, Note_on_c, 0, 48, 42
3, 71280, Note_on_c, 0, 53, 42
3, 71508, Note_on_c, 0, 53, 0
3, 71508, Note_on_c, 0, 48, 0
3, 71520, Note_on_c, 0, 48, 36
3, 71520, Note_on_c, 0, 57, 36
3, 71748, Note_on_c, 0, 57, 0
3, 71748, Note_on_c, 0, 48, 0
3, 71760, Note_on_c, 0, 48, 36
3, 71760, Note_on_c, 0, 55, 36
3, 71988, Note_on_c, 0, 55, 0
3, 71988, Note_on_c, 0, 48, 0
3, 72000, Note_on_c, 0, 48, 30
3, 72000, Note_on_c, 0, 53, 30
3, 72228, Note_on_c, 0, 53, 0
3, 72228, Note_on_c, 0, 48, 0
3, 72240, Note_on_c, 0, 36, 42
3, 72240, Note_on_c, 0, 48, 42
3, 72468, Note_on_c, 0, 48, 0
3, 72468, Note_on_c, 0, 36, 0
3, 72480, Note_on_c, 0, 43, 36
3, 72480, Note_on_c, 0, 36, 36
3, 72708, Note_on_c, 0, 36, 0
3, 72708, Note_on_c, 0, 43, 0
3, 72720, Note_on_c, 0, 48, 42
3, 72720, Note_on_c, 0, 36, 36
3, 72948, Note_on_c, 0, 36, 0
3, 72948, Note_on_c, 0, 48, 0
3, 72960, Note_on_c, 0, 36, 37
3, 72960, Note_on_c, 0, 43, 37
3, 73188, Note_on_c, 0, 43, 0
3, 73188, Note_on_c, 0, 36, 0
3, 73200, Note_on_c, 0, 36, 42
3, 73200, Note_on_c, 0, 48, 42
3, 73428, Note_on_c, 0, 48, 0
3, 73428, Note_on_c, 0, 36, 0
3, 73440, Note_on_c, 0, 43, 36
3, 73440, Note_on_c, 0, 36, 36
3, 73668, Note_on_c, 0, 36, 0
3, 73668, Note_on_c, 0, 43, 0
3, 73680, Note_on_c, 0, 48, 42
3, 73680, Note_on_c, 0, 36, 36
3, 73908, Note_on_c, 0, 36, 0
3, 73908, Note_on_c, 0, 48, 0
3, 73920, Note_on_c, 0, 36, 37
3, 73920, Note_on_c, 0, 43, 37
3, 74148, Note_on_c, 0, 43, 0
3, 74148, Note_on_c, 0, 36, 0
3, 74160, Note_on_c, 0, 36, 42
3, 74160, Note_on_c, 0, 48, 42
3, 74388, Note_on_c, 0, 48, 0
3, 74388, Note_on_c, 0, 36, 0
3, 74400, Note_on_c, 0, 43, 36
3, 74400, Note_on_c, 0, 36, 36
3, 74628, Note_on_c, 0, 36, 0
3, 74628, Note_on_c, 0, 43, 0
3, 74640, Note_on_c, 0, 48, 42
3, 74640, Note_on_c, 0, 36, 36
3, 74868, Note_on_c, 0, 36, 0
3, 74868, Note_on_c, 0, 48, 0
3, 74880, Note_on_c, 0, 36, 37
3, 74880, Note_on_c, 0, 43, 37
3, 75108, Note_on_c, 0, 43, 0
3, 75108, Note_on_c, 0, 36, 0
3, 75120, Note_on_c, 0, 36, 39
3, 75120, Note_on_c, 0, 48, 39
3, 75348, Note_on_c, 0, 48, 0
3, 75348, Note_on_c, 0, 36, 0
3, 75360, Note_on_c, 0, 43, 33
3, 75360, Note_on_c, 0, 36, 33
3, 75588, Note_on_c, 0, 36, 0
3, 75588, Note_on_c, 0, 43, 0
3, 75600, Note_on_c, 0, 48, 38
3, 75600, Note_on_c, 0, 36, 32
3, 75828, Note_on_c, 0, 36, 0
3, 75828, Note_on_c, 0, 48, 0
3, 75840, Note_on_c, 0, 36, 32
3, 75840, Note_on_c, 0, 43, 32
3, 76068, Note_on_c, 0, 43, 0
3, 76068, Note_on_c, 0, 36, 0
3, 76080, Note_on_c, 0, 36, 35
3, 76080, Note_on_c, 0, 48, 35
3, 76308, Note_on_c, 0, 48, 0
3, 76308, Note_on_c, 0, 36, 0
3, 76320, Note_on_c, 0, 43, 28
3, 76320, Note_on_c, 0, 36, 28
3, 76548, Note_on_c, 0, 36, 0
3, 76548, Note_on_c, 0, 43, 0
3, 76560, Note_on_c, 0, 48, 33
3, 76560, Note_on_c, 0, 36, 28
3, 76788, Note_on_c, 0, 36, 0
3, 76788, Note_on_c, 0, 48, 0
3, 76800, Note_on_c, 0, 36, 28
3, 76800, Note_on_c, 0, 43, 28
3, 77028, Note_on_c, 0, 43, 0
3, 77028, Note_on_c, 0, 36, 0
3, 77040, Note_on_c, 0, 36, 25
3, 77040, Note_on_c, 0, 43, 25
3, 77040, Note_on_c, 0, 48, 30
3, 77760, Note_on_c, 0, 48, 0
3, 77760, Note_on_c, 0, 43, 0
3, 77760, Note_on_c, 0, 36, 0
3, 77760, End_track
4, 0, Start_track
4, 0, Title_t, "Pedale"
4, 0, Program_c, 0, 0
4, 2880, Control_c, 0, 64, 127
4, 3840, Control_c, 0, 64, 0
4, 3889, Control_c, 0, 64, 127
4, 4088, Control_c, 0, 64, 0
4, 4122, Control_c, 0, 64, 127
4, 4330, Control_c, 0, 64, 0
4, 4366, Control_c, 0, 64, 127
4, 4542, Control_c, 0, 64, 0
4, 6720, Control_c, 0, 64, 127
4, 7680, Control_c, 0, 64, 0
4, 7729, Control_c, 0, 64, 127
4, 7928, Control_c, 0, 64, 0
4, 7962, Control_c, 0, 64, 127
4, 8170, Control_c, 0, 64, 0
4, 8206, Control_c, 0, 64, 127
4, 8382, Control_c, 0, 64, 0
4, 8685, Control_c, 0, 64, 127
4, 8887, Control_c, 0, 64, 0
4, 8937, Control_c, 0, 64, 127
4, 9005, Control_c, 0, 64, 0
4, 9057, Control_c, 0, 64, 127
4, 9131, Control_c, 0, 64, 0
4, 9194, Control_c, 0, 64, 127
4, 9600, Control_c, 0, 64, 0
4, 9645, Control_c, 0, 64, 127
4, 9847, Control_c, 0, 64, 0
4, 9897, Control_c, 0, 64, 127
4, 9965, Control_c, 0, 64, 0
4, 10017, Control_c, 0, 64, 127
4, 10091, Control_c, 0, 64, 0
4, 10154, Control_c, 0, 64, 127
4, 10560, Control_c, 0, 64, 0
4, 10743, Control_c, 0, 64, 127
4, 11053, Control_c, 0, 64, 0
4, 11195, Control_c, 0, 64, 127
4, 11520, Control_c, 0, 64, 0
4, 11569, Control_c, 0, 64, 127
4, 11768, Control_c, 0, 64, 0
4, 11802, Control_c, 0, 64, 127
4, 12010, Control_c, 0, 64, 0
4, 12046, Control_c, 0, 64, 127
4, 12222, Control_c, 0, 64, 0
4, 12254, Control_c, 0, 64, 127
4, 12480, Control_c, 0, 64, 0
4, 12564, Control_c, 0, 64, 127
4, 12723, Control_c, 0, 64, 0
4, 12797, Control_c, 0, 64, 127
4, 12967, Control_c, 0, 64, 0
4, 13037, Control_c, 0, 64, 127
4, 13206, Control_c, 0, 64, 0
4, 13277, Control_c, 0, 64, 127
4, 13440, Control_c, 0, 64, 0
4, 13503, Control_c, 0, 64, 127
4, 13693, Control_c, 0, 64, 0
4, 13783, Control_c, 0, 64, 127
4, 13932, Control_c, 0, 64, 0
4, 14011, Control_c, 0, 64, 127
4, 14400, Control_c, 0, 64, 0
4, 14640, Control_c, 0, 64, 127
4, 15360, Control_c, 0, 64, 0
4, 15409, Control_c, 0, 64, 127
4, 15608, Control_c, 0, 64, 0
4, 15642, Control_c, 0, 64, 127
4, 15850, Control_c, 0, 64, 0
4, 15886, Control_c, 0, 64, 127
4, 16211, Control_c, 0, 64, 0
4, 17079, Control_c, 0, 64, 127
4, 17286, Control_c, 0, 64, 0
4, 17319, Control_c, 0, 64, 127
4, 17528, Control_c, 0, 64, 0
4, 17580, Control_c, 0, 64, 127
4, 17772, Control_c, 0, 64, 0
4, 17816, Control_c, 0, 64, 127
4, 18009, Control_c, 0, 64, 0
4, 18056, Control_c, 0, 64, 127
4, 18240, Control_c, 0, 64, 0
4, 18293, Control_c, 0, 64, 127
4, 18486, Control_c, 0, 64, 0
4, 18526, Control_c, 0, 64, 127
4, 18727, Control_c, 0, 64, 0
4, 18783, Control_c, 0, 64, 127
4, 19205, Control_c, 0, 64, 0
4, 19413, Control_c, 0, 64, 127
4, 19686, Control_c, 0, 64, 0
4, 19874, Control_c, 0, 64, 127
4, 20160, Control_c, 0, 64, 0
4, 20209, Control_c, 0, 64, 127
4, 20408, Control_c, 0, 64, 0
4, 20442, Control_c, 0, 64, 127
4, 20650, Control_c, 0, 64, 0
4, 20686, Control_c, 0, 64, 127
4, 21011, Control_c, 0, 64, 0
4, 21653, Control_c, 0, 64, 127
4, 22082, Control_c, 0, 64, 0
4, 22133, Control_c, 0, 64, 127
4, 22327, Control_c, 0, 64, 0
4, 22898, Control_c, 0, 64, 127
4, 23524, Control_c, 0, 64, 0
4, 23602, Control_c, 0, 64, 127
4, 24005, Control_c, 0, 64, 0
4, 24248, Control_c, 0, 64, 0
4, 24282, Control_c, 0, 64, 127
4, 24490, Control_c, 0, 64, 0
4, 24526, Control_c, 0, 64, 127
4, 24851, Control_c, 0, 64, 0
4, 25712, Control_c, 0, 64, 127
4, 25890, Note_on_c, 0, 87, 51
4, 25905, Note_on_c, 0, 87, 0
4, 25905, Note_on_c, 0, 89, 51
4, 25920, Note_on_c, 0, 89, 0
4, 25920, Control_c, 0, 64, 0
4, 25957, Control_c, 0, 64, 127
4, 26174, Control_c, 0, 64, 0
4, 26208, Control_c, 0, 64, 127
4, 26407, Control_c, 0, 64, 0
4, 26445, Control_c, 0, 64, 127
4, 26655, Control_c, 0, 64, 0
4, 26680, Control_c, 0, 64, 127
4, 26880, Control_c, 0, 64, 0
4, 26920, Control_c, 0, 64, 127
4, 27125, Control_c, 0, 64, 0
4, 27157, Control_c, 0, 64, 127
4, 27374, Control_c, 0, 64, 0
4, 27391, Control_c, 0, 64, 127
4, 27452, Control_c, 0, 64, 0
4, 27483, Control_c, 0, 64, 127
4, 27530, Control_c, 0, 64, 0
4, 27840, Control_c, 0, 64, 0
4, 27880, Control_c, 0, 64, 127
4, 28085, Control_c, 0, 64, 0
4, 28117, Control_c, 0, 64, 127
4, 28334, Control_c, 0, 64, 0
4, 28351, Control_c, 0, 64, 127
4, 28412, Control_c, 0, 64, 0
4, 28443, Control_c, 0, 64, 127
4, 28490, Control_c, 0, 64, 0
4, 28770, Note_on_c, 0, 70, 51
4, 28785, Note_on_c, 0, 70, 0
4, 28785, Note_on_c, 0, 72, 51
4, 28800, Note_on_c, 0, 72, 0
4, 29545, Control_c, 0, 64, 127
4, 29730, Note_on_c, 0, 74, 51
4, 29745, Note_on_c, 0, 74, 0
4, 29745, Note_on_c, 0, 75, 51
4, 29760, Note_on_c, 0, 75, 0
4, 29760, Control_c, 0, 64, 0
4, 29828, Control_c, 0, 64, 127
4, 30007, Control_c, 0, 64, 0
4, 30043, Control_c, 0, 64, 127
4, 30248, Control_c, 0, 64, 0
4, 30277, Control_c, 0, 64, 127
4, 30331, Control_c, 0, 64, 0
4, 30720, Control_c, 0, 64, 127
4, 30808, Control_c, 0, 64, 0
4, 31251, Control_c, 0, 64, 127
4, 31450, Control_c, 0, 64, 0
4, 31505, Control_c, 0, 64, 127
4, 31688, Control_c, 0, 64, 0
4, 31717, Control_c, 0, 64, 127
4, 31771, Control_c, 0, 64, 0
4, 32183, Control_c, 0, 64, 127
4, 32247, Control_c, 0, 64, 0
4, 32371, Control_c, 0, 64, 127
4, 33092, Control_c, 0, 64, 0
4, 33406, Control_c, 0, 64, 127
4, 33600, Control_c, 0, 64, 0
4, 33631, Control_c, 0, 64, 127
4, 33685, Control_c, 0, 64, 0
4, 34091, Control_c, 0, 64, 127
4, 34168, Control_c, 0, 64, 0
4, 34580, Control_c, 0, 64, 127
4, 34811, Control_c, 0, 64, 0
4, 34863, Control_c, 0, 64, 127
4, 35049, Control_c, 0, 64, 0
4, 35080, Control_c, 0, 64, 127
4, 35130, Control_c, 0, 64, 0
4, 35523, Control_c, 0, 64, 127
4, 35768, Control_c, 0, 64, 0
4, 35797, Control_c, 0, 64, 127
4, 36010, Control_c, 0, 64, 0
4, 36034, Control_c, 0, 64, 127
4, 36088, Control_c, 0, 64, 0
4, 36125, Control_c, 0, 64, 127
4, 36175, Control_c, 0, 64, 0
4, 36220, Control_c, 0, 64, 127
4, 36480, Control_c, 0, 64, 0
4, 36511, Control_c, 0, 64, 127
4, 36566, Control_c, 0, 64, 0
4, 37214, Control_c, 0, 64, 127
4, 37440, Control_c, 0, 64, 0
4, 37477, Control_c, 0, 64, 127
4, 37531, Control_c, 0, 64, 0
4, 37957, Control_c, 0, 64, 127
4, 38005, Control_c, 0, 64, 0
4, 38417, Control_c, 0, 64, 127
4, 38488, Control_c, 0, 64, 0
4, 39148, Control_c, 0, 64, 127
4, 39214, Control_c, 0, 64, 0
4, 39360, Control_c, 0, 64, 127
4, 39445, Control_c, 0, 64, 0
4, 39645, Control_c, 0, 64, 127
4, 39690, Control_c, 0, 64, 0
4, 39883, Control_c, 0, 64, 127
4, 39928, Control_c, 0, 64, 0
4, 40365, Control_c, 0, 64, 127
4, 40567, Control_c, 0, 64, 0
4, 40617, Control_c, 0, 64, 127
4, 40685, Control_c, 0, 64, 0
4, 40737, Control_c, 0, 64, 127
4, 40811, Control_c, 0, 64, 0
4, 40874, Control_c, 0, 64, 127
4, 41280, Control_c, 0, 64, 0
4, 41325, Control_c, 0, 64, 127
4, 41527, Control_c, 0, 64, 0
4, 41577, Control_c, 0, 64, 127
4, 41645, Control_c, 0, 64, 0
4, 41697, Control_c, 0, 64, 127
4, 41771, Control_c, 0, 64, 0
4, 41834, Control_c, 0, 64, 127
4, 42240, Control_c, 0, 64, 0
4, 42423, Control_c, 0, 64, 127
4, 42733, Control_c, 0, 64, 0
4, 42875, Control_c, 0, 64, 127
4, 43200, Control_c, 0, 64, 0
4, 43249, Control_c, 0, 64, 127
4, 43448, Control_c, 0, 64, 0
4, 43482, Control_c, 0, 64, 127
4, 43690, Control_c, 0, 64, 0
4, 43726, Control_c, 0, 64, 127
4, 44160, Control_c, 0, 64, 0
4, 44205, Control_c, 0, 64, 127
4, 44407, Control_c, 0, 64, 0
4, 44457, Control_c, 0, 64, 127
4, 44525, Control_c, 0, 64, 0
4, 44577, Control_c, 0, 64, 127
4, 44658, Control_c, 0, 64, 0
4, 44721, Control_c, 0, 64, 127
4, 45000, Control_c, 0, 64, 0
4, 45031, Control_c, 0, 64, 127
4, 45171, Control_c, 0, 64, 0
4, 45211, Control_c, 0, 64, 127
4, 45360, Control_c, 0, 64, 0
4, 45394, Control_c, 0, 64, 127
4, 45508, Control_c, 0, 64, 0
4, 45720, Control_c, 0, 64, 0
4, 45765, Control_c, 0, 64, 127
4, 45967, Control_c, 0, 64, 0
4, 46017, Control_c, 0, 64, 127
4, 46085, Control_c, 0, 64, 0
4, 46137, Control_c, 0, 64, 127
4, 46218, Control_c, 0, 64, 0
4, 46281, Control_c, 0, 64, 127
4, 46560, Control_c, 0, 64, 0
4, 46591, Control_c, 0, 64, 127
4, 46731, Control_c, 0, 64, 0
4, 46771, Control_c, 0, 64, 127
4, 46920, Control_c, 0, 64, 0
4, 46954, Control_c, 0, 64, 127
4, 47068, Control_c, 0, 64, 0
4, 47297, Control_c, 0, 64, 127
4, 47368, Control_c, 0, 64, 0
4, 48028, Control_c, 0, 64, 127
4, 48094, Control_c, 0, 64, 0
4, 48240, Control_c, 0, 64, 127
4, 48325, Control_c, 0, 64, 0
4, 48525, Control_c, 0, 64, 127
4, 48570, Control_c, 0, 64, 0
4, 48763, Control_c, 0, 64, 127
4, 48808, Control_c, 0, 64, 0
4, 49952, Control_c, 0, 64, 127
4, 50160, Control_c, 0, 64, 0
4, 50197, Control_c, 0, 64, 127
4, 50414, Control_c, 0, 64, 0
4, 50448, Control_c, 0, 64, 127
4, 50647, Control_c, 0, 64, 0
4, 50685, Control_c, 0, 64, 127
4, 50895, Control_c, 0, 64, 0
4, 50920, Control_c, 0, 64, 127
4, 51120, Control_c, 0, 64, 0
4, 51160, Control_c, 0, 64, 127
4, 51365, Control_c, 0, 64, 0
4, 51397, Control_c, 0, 64, 127
4, 51614, Control_c, 0, 64, 0
4, 51631, Control_c, 0, 64, 127
4, 51692, Control_c, 0, 64, 0
4, 51723, Control_c, 0, 64, 127
4, 52080, Control_c, 0, 64, 0
4, 52122, Control_c, 0, 64, 127
4, 52572, Control_c, 0, 64, 0
4, 52609, Control_c, 0, 64, 127
4, 52818, Control_c, 0, 64, 0
4, 52846, Control_c, 0, 64, 127
4, 53040, Control_c, 0, 64, 0
4, 53086, Control_c, 0, 64, 127
4, 53286, Control_c, 0, 64, 0
4, 53319, Control_c, 0, 64, 127
4, 53526, Control_c, 0, 64, 0
4, 53552, Control_c, 0, 64, 127
4, 53762, Control_c, 0, 64, 0
4, 53840, Control_c, 0, 64, 127
4, 54000, Control_c, 0, 64, 0
4, 54037, Control_c, 0, 64, 127
4, 54254, Control_c, 0, 64, 0
4, 54288, Control_c, 0, 64, 127
4, 54487, Control_c, 0, 64, 0
4, 54525, Control_c, 0, 64, 127
4, 54735, Control_c, 0, 64, 0
4, 54760, Control_c, 0, 64, 127
4, 54960, Control_c, 0, 64, 0
4, 55000, Control_c, 0, 64, 127
4, 55205, Control_c, 0, 64, 0
4, 55237, Control_c, 0, 64, 127
4, 55454, Control_c, 0, 64, 0
4, 55471, Control_c, 0, 64, 127
4, 55532, Control_c, 0, 64, 0
4, 55563, Control_c, 0, 64, 127
4, 55920, Control_c, 0, 64, 0
4, 55962, Control_c, 0, 64, 127
4, 56400, Control_c, 0, 64, 0
4, 56442, Control_c, 0, 64, 127
4, 56880, Control_c, 0, 64, 0
4, 56920, Control_c, 0, 64, 127
4, 57125, Control_c, 0, 64, 0
4, 57157, Control_c, 0, 64, 127
4, 57374, Control_c, 0, 64, 0
4, 57391, Control_c, 0, 64, 127
4, 57452, Control_c, 0, 64, 0
4, 57483, Control_c, 0, 64, 127
4, 57618, Control_c, 0, 64, 0
4, 57654, Control_c, 0, 64, 127
4, 57840, Control_c, 0, 64, 0
4, 57882, Control_c, 0, 64, 127
4, 58091, Control_c, 0, 64, 0
4, 58136, Control_c, 0, 64, 127
4, 58329, Control_c, 0, 64, 0
4, 58376, Control_c, 0, 64, 127
4, 58563, Control_c, 0, 64, 0
4, 58595, Control_c, 0, 64, 127
4, 58817, Control_c, 0, 64, 0
4, 58856, Control_c, 0, 64, 127
4, 59047, Control_c, 0, 64, 0
4, 59075, Control_c, 0, 64, 127
4, 59289, Control_c, 0, 64, 0
4, 59350, Control_c, 0, 64, 127
4, 59760, Control_c, 0, 64, 0
4, 59806, Control_c, 0, 64, 127
4, 60253, Control_c, 0, 64, 0
4, 60296, Control_c, 0, 64, 127
4, 60488, Control_c, 0, 64, 0
4, 60526, Control_c, 0, 64, 127
4, 60720, Control_c, 0, 64, 0
4, 60760, Control_c, 0, 64, 127
4, 60968, Control_c, 0, 64, 0
4, 61011, Control_c, 0, 64, 127
4, 61210, Control_c, 0, 64, 0
4, 61254, Control_c, 0, 64, 127
4, 61451, Control_c, 0, 64, 0
4, 61480, Control_c, 0, 64, 127
4, 61680, Control_c, 0, 64, 0
4, 61732, Control_c, 0, 64, 127
4, 62167, Control_c, 0, 64, 0
4, 62197, Control_c, 0, 64, 127
4, 62646, Control_c, 0, 64, 0
4, 62679, Control_c, 0, 64, 127
4, 63129, Control_c, 0, 64, 0
4, 63147, Control_c, 0, 64, 127
4, 63580, Control_c, 0, 64, 0
4, 63600, Control_c, 0, 64, 127
4, 64089, Control_c, 0, 64, 0
4, 64133, Control_c, 0, 64, 127
4, 64560, Control_c, 0, 64, 0
4, 75120, Control_c, 0, 64, 127
4, 75607, Control_c, 0, 64, 0
4, 75742, Control_c, 0, 64, 127
4, 76086, Control_c, 0, 64, 0
4, 76207, Control_c, 0, 64, 127
4, 76572, Control_c, 0, 64, 0
4, 76701, Control_c, 0, 64, 127
4, 77040, Control_c, 0, 64, 0
4, 77167, Control_c, 0, 64, 127
4, 78560, Control_c, 0, 64, 0
4, 78560, End_track
5, 0, Start_track
5, 0, Title_t, "Brahms: Sonata in C 2. movement"
5, 0, End_track
6, 0, Start_track
6, 0, Title_t, "Copyright © 2009 by Bernd Krueger"
6, 0, End_track
7, 0, Start_track
7, 0, Title_t, "http://www.piano-midi.de/"
7, 0, End_track
8, 0, Start_track
8, 0, Title_t, "Edition: 2009-04-25"
8, 0, End_track
9, 0, Start_track
9, 0, End_track
10, 0, Start_track
10, 0, End_track
11, 0, Start_track
11, 0, End_track
12, 0, Start_track
12, 0, End_track
13, 0, Start_track
13, 0, End_track
14, 0, Start_track
14, 0, End_track
15, 0, Start_track
15, 0, End_track
16, 0, Start_track
16, 0, End_track
17, 0, Start_track
17, 0, End_track
0, 0, End_of_file
