0, 0, Header, 1, 7, 480
1, 0, Start_track
1, 0, Title_t, "Etueden Opus 109"
1, 0, Title_t, "Agitato"
1, 0, Copyright_t, "Copyright © 2012 by Bernd Krueger"
1, 0, Text_t, "Friedrich Burgmueller"
1, 0, Text_t, "Allegro vivace"
1, 0, Text_t, "Erstellt: 22.3.2012\012"
1, 0, Text_t, "Dauer: 1:33 Minuten\012"
1, 0, SMPTE_offset, 96, 0, 3, 0, 0
1, 0, Time_signature, 4, 2, 24, 8
1, 0, Key_signature, 1, "major"
1, 0, Tempo, 416118
1, 0, Marker_t, "Teil 1"
1, 120, Tempo, 429523
1, 240, Tempo, 414680
1, 360, Tempo, 427991
1, 480, Tempo, 413508
1, 600, Tempo, 426470
1, 720, Tempo, 413252
1, 840, Tempo, 420492
1, 960, Tempo, 405132
1, 1080, Tempo, 480769
1, 1200, Tempo, 410425
1, 1320, Tempo, 421971
1, 1440, Tempo, 410425
1, 1560, Tempo, 421971
1, 1680, Tempo, 410425
1, 1800, Tempo, 407914
1, 1920, Tempo, 399813
1, 2040, Tempo, 442576
1, 2160, Tempo, 402064
1, 2280, Tempo, 406725
1, 2400, Tempo, 399813
1, 2520, Tempo, 406725
1, 2640, Tempo, 399813
1, 2660, Tempo, 402064
1, 2760, Tempo, 404394
1, 2880, Tempo, 399813
1, 3000, Tempo, 406725
1, 3120, Tempo, 399813
1, 3240, Tempo, 403226
1, 3360, Tempo, 399813
1, 3480, Tempo, 405570
1, 3600, Tempo, 399813
1, 3720, Tempo, 410762
1, 3840, Tempo, 417915
1, 3960, Tempo, 461290
1, 4080, Tempo, 402064
1, 4200, Tempo, 406725
1, 4320, Tempo, 399813
1, 4440, Tempo, 406725
1, 4560, Tempo, 399813
1, 4580, Tempo, 402064
1, 4680, Tempo, 404394
1, 4800, Tempo, 399813
1, 4920, Tempo, 406725
1, 5040, Tempo, 399813
1, 5160, Tempo, 403226
1, 5280, Tempo, 399813
1, 5400, Tempo, 405570
1, 5520, Tempo, 399813
1, 5760, Tempo, 399813
1, 5880, Tempo, 422327
1, 6000, Tempo, 402064
1, 6120, Tempo, 406725
1, 6240, Tempo, 399813
1, 6360, Tempo, 406725
1, 6480, Tempo, 399813
1, 6500, Tempo, 402064
1, 6600, Tempo, 404394
1, 6720, Tempo, 399813
1, 6840, Tempo, 415024
1, 6960, Tempo, 406587
1, 7080, Tempo, 415024
1, 7200, Tempo, 407969
1, 7320, Tempo, 415024
1, 7440, Tempo, 422327
1, 7680, Tempo, 429892
1, 7800, Tempo, 459524
1, 7920, Tempo, 425230
1, 8040, Tempo, 414938
1, 8160, Tempo, 406587
1, 8280, Tempo, 419375
1, 8400, Tempo, 407969
1, 8520, Tempo, 412173
1, 8640, Tempo, 399813
1, 8760, Tempo, 406725
1, 8880, Tempo, 399813
1, 9000, Tempo, 403226
1, 9120, Tempo, 399813
1, 9240, Tempo, 405570
1, 9360, Tempo, 399813
1, 9600, Tempo, 405132
1, 9720, Tempo, 425230
1, 9840, Tempo, 402064
1, 9960, Tempo, 406725
1, 10080, Tempo, 399813
1, 10200, Tempo, 406725
1, 10320, Tempo, 399813
1, 10340, Tempo, 402064
1, 10440, Tempo, 404394
1, 10560, Tempo, 399813
1, 10680, Tempo, 406725
1, 10800, Tempo, 399813
1, 10920, Tempo, 403226
1, 11040, Tempo, 399813
1, 11160, Tempo, 405570
1, 11280, Tempo, 406587
1, 11520, Tempo, 423819
1, 11640, Tempo, 459524
1, 11760, Tempo, 405214
1, 11880, Tempo, 415024
1, 12000, Tempo, 405214
1, 12120, Tempo, 412173
1, 12240, Tempo, 399813
1, 12260, Tempo, 402064
1, 12360, Tempo, 404394
1, 12480, Tempo, 399813
1, 12600, Tempo, 406725
1, 12720, Tempo, 399813
1, 12840, Tempo, 403226
1, 12960, Tempo, 399813
1, 13080, Tempo, 405570
1, 13200, Tempo, 399813
1, 13440, Tempo, 399813
1, 13560, Tempo, 425230
1, 13680, Tempo, 406504
1, 13800, Tempo, 414938
1, 13920, Tempo, 406504
1, 14040, Tempo, 417827
1, 14160, Tempo, 407886
1, 14180, Tempo, 402064
1, 14280, Tempo, 416378
1, 14400, Tempo, 407886
1, 14520, Tempo, 424959
1, 14640, Tempo, 417566
1, 14760, Tempo, 438949
1, 14880, Tempo, 426470
1, 15000, Tempo, 448799
1, 15120, Tempo, 435761
1, 15240, Tempo, 457352
1, 15360, Tempo, 435761
1, 15360, Marker_t, "Teil 1 Wiederholung"
1, 15480, Tempo, 447127
1, 15600, Tempo, 431065
1, 15720, Tempo, 438949
1, 15840, Tempo, 420492
1, 15960, Tempo, 432620
1, 16080, Tempo, 419024
1, 16200, Tempo, 429523
1, 16320, Tempo, 417566
1, 16440, Tempo, 480769
1, 16560, Tempo, 414680
1, 16680, Tempo, 423460
1, 16800, Tempo, 410425
1, 16920, Tempo, 420492
1, 17040, Tempo, 403769
1, 17160, Tempo, 407914
1, 17280, Tempo, 399813
1, 17400, Tempo, 442576
1, 17520, Tempo, 402064
1, 17640, Tempo, 406725
1, 17760, Tempo, 399813
1, 17880, Tempo, 406725
1, 18000, Tempo, 399813
1, 18020, Tempo, 402064
1, 18120, Tempo, 404394
1, 18240, Tempo, 399813
1, 18360, Tempo, 406725
1, 18480, Tempo, 399813
1, 18600, Tempo, 403226
1, 18720, Tempo, 399813
1, 18840, Tempo, 405570
1, 18960, Tempo, 399813
1, 19080, Tempo, 410762
1, 19200, Tempo, 417915
1, 19320, Tempo, 461290
1, 19440, Tempo, 402064
1, 19560, Tempo, 406725
1, 19680, Tempo, 399813
1, 19800, Tempo, 406725
1, 19920, Tempo, 399813
1, 19940, Tempo, 402064
1, 20040, Tempo, 404394
1, 20160, Tempo, 399813
1, 20280, Tempo, 406725
1, 20400, Tempo, 399813
1, 20520, Tempo, 403226
1, 20640, Tempo, 399813
1, 20760, Tempo, 405570
1, 20880, Tempo, 399813
1, 21120, Tempo, 399813
1, 21240, Tempo, 422327
1, 21360, Tempo, 402064
1, 21480, Tempo, 406725
1, 21600, Tempo, 399813
1, 21720, Tempo, 406725
1, 21840, Tempo, 399813
1, 21860, Tempo, 402064
1, 21960, Tempo, 404394
1, 22080, Tempo, 399813
1, 22200, Tempo, 415024
1, 22320, Tempo, 406587
1, 22440, Tempo, 415024
1, 22560, Tempo, 407969
1, 22680, Tempo, 415024
1, 22800, Tempo, 422327
1, 23040, Tempo, 429892
1, 23160, Tempo, 459524
1, 23280, Tempo, 425230
1, 23400, Tempo, 414938
1, 23520, Tempo, 406587
1, 23640, Tempo, 419375
1, 23760, Tempo, 407969
1, 23880, Tempo, 412173
1, 24000, Tempo, 399813
1, 24120, Tempo, 406725
1, 24240, Tempo, 399813
1, 24360, Tempo, 403226
1, 24480, Tempo, 399813
1, 24600, Tempo, 405570
1, 24720, Tempo, 399813
1, 24960, Tempo, 405132
1, 25080, Tempo, 425230
1, 25200, Tempo, 402064
1, 25320, Tempo, 406725
1, 25440, Tempo, 399813
1, 25560, Tempo, 406725
1, 25680, Tempo, 399813
1, 25700, Tempo, 402064
1, 25800, Tempo, 404394
1, 25920, Tempo, 399813
1, 26040, Tempo, 406725
1, 26160, Tempo, 399813
1, 26280, Tempo, 403226
1, 26400, Tempo, 399813
1, 26520, Tempo, 405570
1, 26640, Tempo, 406587
1, 26880, Tempo, 423819
1, 27000, Tempo, 459524
1, 27120, Tempo, 405214
1, 27240, Tempo, 415024
1, 27360, Tempo, 405214
1, 27480, Tempo, 412173
1, 27600, Tempo, 399813
1, 27620, Tempo, 402064
1, 27720, Tempo, 404394
1, 27840, Tempo, 399813
1, 27960, Tempo, 406725
1, 28080, Tempo, 399813
1, 28200, Tempo, 403226
1, 28320, Tempo, 399813
1, 28440, Tempo, 405570
1, 28560, Tempo, 399813
1, 28800, Tempo, 399813
1, 28920, Tempo, 425230
1, 29040, Tempo, 406504
1, 29160, Tempo, 414938
1, 29280, Tempo, 406504
1, 29400, Tempo, 417827
1, 29520, Tempo, 407886
1, 29540, Tempo, 402064
1, 29640, Tempo, 416378
1, 29760, Tempo, 407886
1, 29880, Tempo, 423460
1, 30000, Tempo, 417566
1, 30120, Tempo, 440561
1, 30240, Tempo, 427991
1, 30360, Tempo, 445467
1, 30480, Tempo, 435761
1, 30600, Tempo, 457352
1, 30720, Tempo, 423460
1, 30720, Marker_t, "Teil 2"
1, 30840, Tempo, 434185
1, 30960, Tempo, 416118
1, 31080, Tempo, 425230
1, 31200, Tempo, 413508
1, 31320, Tempo, 417827
1, 31440, Tempo, 406256
1, 31560, Tempo, 420492
1, 31680, Tempo, 410425
1, 31800, Tempo, 440950
1, 31920, Tempo, 410425
1, 32040, Tempo, 420492
1, 32160, Tempo, 409026
1, 32280, Tempo, 421971
1, 32400, Tempo, 407636
1, 32520, Tempo, 413252
1, 32640, Tempo, 399813
1, 32760, Tempo, 442576
1, 32880, Tempo, 402064
1, 33000, Tempo, 406725
1, 33120, Tempo, 399813
1, 33240, Tempo, 406725
1, 33360, Tempo, 399813
1, 33380, Tempo, 402064
1, 33480, Tempo, 404394
1, 33600, Tempo, 399813
1, 33720, Tempo, 406725
1, 33840, Tempo, 399813
1, 33960, Tempo, 403226
1, 34080, Tempo, 399813
1, 34200, Tempo, 405570
1, 34320, Tempo, 399813
1, 34440, Tempo, 410762
1, 34560, Tempo, 414938
1, 34680, Tempo, 426743
1, 34800, Tempo, 413508
1, 34920, Tempo, 425230
1, 35040, Tempo, 413508
1, 35160, Tempo, 417827
1, 35280, Tempo, 405132
1, 35400, Tempo, 412088
1, 35520, Tempo, 405132
1, 35640, Tempo, 440950
1, 35760, Tempo, 405132
1, 35880, Tempo, 412088
1, 36000, Tempo, 402414
1, 36120, Tempo, 412088
1, 36240, Tempo, 403769
1, 36360, Tempo, 407914
1, 36480, Tempo, 399813
1, 36600, Tempo, 460865
1, 36720, Tempo, 402064
1, 36840, Tempo, 406725
1, 36960, Tempo, 399813
1, 37080, Tempo, 406725
1, 37200, Tempo, 399813
1, 37220, Tempo, 402064
1, 37320, Tempo, 404394
1, 37440, Tempo, 399813
1, 37560, Tempo, 406725
1, 37680, Tempo, 399813
1, 37800, Tempo, 403226
1, 37920, Tempo, 407636
1, 38040, Tempo, 419024
1, 38160, Tempo, 407636
1, 38280, Tempo, 423460
1, 38400, Tempo, 414938
1, 38520, Tempo, 426743
1, 38640, Tempo, 413508
1, 38760, Tempo, 425230
1, 38880, Tempo, 413508
1, 39000, Tempo, 417827
1, 39120, Tempo, 405132
1, 39240, Tempo, 412088
1, 39360, Tempo, 405132
1, 39480, Tempo, 440950
1, 39600, Tempo, 405132
1, 39720, Tempo, 412088
1, 39840, Tempo, 402414
1, 39960, Tempo, 412088
1, 40080, Tempo, 403769
1, 40200, Tempo, 407914
1, 40320, Tempo, 414938
1, 40440, Tempo, 426743
1, 40560, Tempo, 413508
1, 40680, Tempo, 425230
1, 40800, Tempo, 413508
1, 40920, Tempo, 417827
1, 41040, Tempo, 405132
1, 41160, Tempo, 412088
1, 41280, Tempo, 405132
1, 41400, Tempo, 440950
1, 41520, Tempo, 405132
1, 41640, Tempo, 412088
1, 41760, Tempo, 402414
1, 41880, Tempo, 412088
1, 42000, Tempo, 403769
1, 42120, Tempo, 407914
1, 42240, Tempo, 414938
1, 42360, Tempo, 426743
1, 42480, Tempo, 413508
1, 42600, Tempo, 425230
1, 42720, Tempo, 413508
1, 42840, Tempo, 417827
1, 42960, Tempo, 405132
1, 43080, Tempo, 412088
1, 43200, Tempo, 405132
1, 43320, Tempo, 416464
1, 43440, Tempo, 405132
1, 43560, Tempo, 418702
1, 43680, Tempo, 410116
1, 43800, Tempo, 418702
1, 43920, Tempo, 410116
1, 44040, Tempo, 418702
1, 44160, Tempo, 414938
1, 44280, Tempo, 429892
1, 44400, Tempo, 413508
1, 44520, Tempo, 425230
1, 44640, Tempo, 413508
1, 44760, Tempo, 417827
1, 44880, Tempo, 406587
1, 45000, Tempo, 420846
1, 45120, Tempo, 413252
1, 45240, Tempo, 431065
1, 45360, Tempo, 420492
1, 45480, Tempo, 442184
1, 45600, Tempo, 429523
1, 45720, Tempo, 445467
1, 45840, Tempo, 460865
1, 45960, Tempo, 528309
1, 46080, Tempo, 1967213
1, 46320, Tempo, 420492
1, 46440, Tempo, 437350
1, 46560, Tempo, 423460
1, 46680, Tempo, 431065
1, 46800, Tempo, 419024
1, 46920, Tempo, 427991
1, 47040, Tempo, 416118
1, 47160, Tempo, 440950
1, 47280, Tempo, 410987
1, 47400, Tempo, 421082
1, 47520, Tempo, 406807
1, 47640, Tempo, 419610
1, 47760, Tempo, 406807
1, 47880, Tempo, 415254
1, 48000, Tempo, 399813
1, 48120, Tempo, 442576
1, 48240, Tempo, 402064
1, 48360, Tempo, 406725
1, 48480, Tempo, 399813
1, 48600, Tempo, 406725
1, 48720, Tempo, 399813
1, 48740, Tempo, 402064
1, 48840, Tempo, 404394
1, 48960, Tempo, 399813
1, 49080, Tempo, 406725
1, 49200, Tempo, 399813
1, 49320, Tempo, 403226
1, 49440, Tempo, 399813
1, 49560, Tempo, 405570
1, 49680, Tempo, 399813
1, 49800, Tempo, 410762
1, 49920, Tempo, 429892
1, 50040, Tempo, 477821
1, 50160, Tempo, 402064
1, 50280, Tempo, 406725
1, 50400, Tempo, 399813
1, 50520, Tempo, 406725
1, 50640, Tempo, 399813
1, 50660, Tempo, 402064
1, 50760, Tempo, 404394
1, 50880, Tempo, 399813
1, 51000, Tempo, 406725
1, 51120, Tempo, 399813
1, 51240, Tempo, 403226
1, 51360, Tempo, 399813
1, 51480, Tempo, 405570
1, 51600, Tempo, 399813
1, 51840, Tempo, 399813
1, 51960, Tempo, 422327
1, 52080, Tempo, 402064
1, 52200, Tempo, 406725
1, 52320, Tempo, 399813
1, 52440, Tempo, 406725
1, 52560, Tempo, 399813
1, 52580, Tempo, 402064
1, 52680, Tempo, 404394
1, 52800, Tempo, 399813
1, 52920, Tempo, 415024
1, 53040, Tempo, 406587
1, 53160, Tempo, 415024
1, 53280, Tempo, 407969
1, 53400, Tempo, 415024
1, 53520, Tempo, 422327
1, 53760, Tempo, 429892
1, 53880, Tempo, 459524
1, 54000, Tempo, 425230
1, 54120, Tempo, 414938
1, 54240, Tempo, 406587
1, 54360, Tempo, 419375
1, 54480, Tempo, 407969
1, 54600, Tempo, 412173
1, 54720, Tempo, 399813
1, 54840, Tempo, 406725
1, 54960, Tempo, 399813
1, 55080, Tempo, 403226
1, 55200, Tempo, 399813
1, 55320, Tempo, 405570
1, 55440, Tempo, 399813
1, 55680, Tempo, 405132
1, 55800, Tempo, 425230
1, 55920, Tempo, 402064
1, 56040, Tempo, 406725
1, 56160, Tempo, 399813
1, 56280, Tempo, 406725
1, 56400, Tempo, 399813
1, 56420, Tempo, 402064
1, 56520, Tempo, 404394
1, 56640, Tempo, 399813
1, 56760, Tempo, 406725
1, 56880, Tempo, 399813
1, 57000, Tempo, 403226
1, 57120, Tempo, 399813
1, 57240, Tempo, 405570
1, 57360, Tempo, 406587
1, 57600, Tempo, 423819
1, 57720, Tempo, 459524
1, 57840, Tempo, 405214
1, 57960, Tempo, 415024
1, 58080, Tempo, 405214
1, 58200, Tempo, 412173
1, 58320, Tempo, 399813
1, 58340, Tempo, 402064
1, 58440, Tempo, 404394
1, 58560, Tempo, 399813
1, 58680, Tempo, 406725
1, 58800, Tempo, 399813
1, 58920, Tempo, 403226
1, 59040, Tempo, 399813
1, 59160, Tempo, 405570
1, 59280, Tempo, 399813
1, 59520, Tempo, 399813
1, 59640, Tempo, 425230
1, 59760, Tempo, 406504
1, 59880, Tempo, 414938
1, 60000, Tempo, 406504
1, 60120, Tempo, 417827
1, 60240, Tempo, 407886
1, 60260, Tempo, 402064
1, 60360, Tempo, 423460
1, 60480, Tempo, 414680
1, 60600, Tempo, 431065
1, 60720, Tempo, 420492
1, 60840, Tempo, 440561
1, 60960, Tempo, 427991
1, 61080, Tempo, 443820
1, 61200, Tempo, 431065
1, 61320, Tempo, 450484
1, 61440, Tempo, 421082
1, 61440, Marker_t, "Teil 2 Wiederholung"
1, 61560, Tempo, 436395
1, 61680, Tempo, 418148
1, 61800, Tempo, 430138
1, 61920, Tempo, 413508
1, 62040, Tempo, 419610
1, 62160, Tempo, 406807
1, 62280, Tempo, 412088
1, 62400, Tempo, 405132
1, 62520, Tempo, 440950
1, 62640, Tempo, 408191
1, 62760, Tempo, 418148
1, 62880, Tempo, 406807
1, 63000, Tempo, 418148
1, 63120, Tempo, 406807
1, 63240, Tempo, 407914
1, 63360, Tempo, 399813
1, 63480, Tempo, 450484
1, 63600, Tempo, 402064
1, 63720, Tempo, 406725
1, 63840, Tempo, 399813
1, 63960, Tempo, 406725
1, 64080, Tempo, 399813
1, 64100, Tempo, 402064
1, 64200, Tempo, 404394
1, 64320, Tempo, 399813
1, 64440, Tempo, 406725
1, 64560, Tempo, 399813
1, 64680, Tempo, 403226
1, 64800, Tempo, 399813
1, 64920, Tempo, 405570
1, 65040, Tempo, 399813
1, 65160, Tempo, 410762
1, 65280, Tempo, 414938
1, 65400, Tempo, 426743
1, 65520, Tempo, 413508
1, 65640, Tempo, 425230
1, 65760, Tempo, 413508
1, 65880, Tempo, 417827
1, 66000, Tempo, 405132
1, 66120, Tempo, 412088
1, 66240, Tempo, 405132
1, 66360, Tempo, 440950
1, 66480, Tempo, 405132
1, 66600, Tempo, 412088
1, 66720, Tempo, 402414
1, 66840, Tempo, 412088
1, 66960, Tempo, 403769
1, 67080, Tempo, 407914
1, 67200, Tempo, 399813
1, 67320, Tempo, 460865
1, 67440, Tempo, 402064
1, 67560, Tempo, 406725
1, 67680, Tempo, 399813
1, 67800, Tempo, 406725
1, 67920, Tempo, 399813
1, 67940, Tempo, 402064
1, 68040, Tempo, 404394
1, 68160, Tempo, 399813
1, 68280, Tempo, 406725
1, 68400, Tempo, 399813
1, 68520, Tempo, 403226
1, 68640, Tempo, 404068
1, 68760, Tempo, 415254
1, 68880, Tempo, 404068
1, 69000, Tempo, 418148
1, 69120, Tempo, 414938
1, 69240, Tempo, 426743
1, 69360, Tempo, 413508
1, 69480, Tempo, 425230
1, 69600, Tempo, 413508
1, 69720, Tempo, 417827
1, 69840, Tempo, 405132
1, 69960, Tempo, 412088
1, 70080, Tempo, 405132
1, 70200, Tempo, 440950
1, 70320, Tempo, 405132
1, 70440, Tempo, 412088
1, 70560, Tempo, 402414
1, 70680, Tempo, 412088
1, 70800, Tempo, 403769
1, 70920, Tempo, 407914
1, 71040, Tempo, 414938
1, 71160, Tempo, 426743
1, 71280, Tempo, 413508
1, 71400, Tempo, 425230
1, 71520, Tempo, 413508
1, 71640, Tempo, 417827
1, 71760, Tempo, 405132
1, 71880, Tempo, 412088
1, 72000, Tempo, 405132
1, 72120, Tempo, 440950
1, 72240, Tempo, 405132
1, 72360, Tempo, 412088
1, 72480, Tempo, 402414
1, 72600, Tempo, 412088
1, 72720, Tempo, 403769
1, 72840, Tempo, 407914
1, 72960, Tempo, 414938
1, 73080, Tempo, 426743
1, 73200, Tempo, 413508
1, 73320, Tempo, 425230
1, 73440, Tempo, 413508
1, 73560, Tempo, 417827
1, 73680, Tempo, 405132
1, 73800, Tempo, 412088
1, 73920, Tempo, 405132
1, 74040, Tempo, 416464
1, 74160, Tempo, 405132
1, 74280, Tempo, 412088
1, 74400, Tempo, 402414
1, 74520, Tempo, 412088
1, 74640, Tempo, 403769
1, 74760, Tempo, 407914
1, 74880, Tempo, 414938
1, 75000, Tempo, 429892
1, 75120, Tempo, 413508
1, 75240, Tempo, 425230
1, 75360, Tempo, 413508
1, 75480, Tempo, 417827
1, 75600, Tempo, 406587
1, 75720, Tempo, 424959
1, 75840, Tempo, 414680
1, 75960, Tempo, 432620
1, 76080, Tempo, 420492
1, 76200, Tempo, 440561
1, 76320, Tempo, 427991
1, 76440, Tempo, 445467
1, 76560, Tempo, 459102
1, 76680, Tempo, 528309
1, 76800, Tempo, 1935484
1, 77040, Tempo, 429523
1, 77160, Tempo, 443820
1, 77280, Tempo, 421971
1, 77400, Tempo, 435761
1, 77520, Tempo, 417566
1, 77640, Tempo, 427991
1, 77760, Tempo, 416118
1, 77880, Tempo, 468750
1, 78000, Tempo, 414680
1, 78120, Tempo, 421053
1, 78240, Tempo, 409556
1, 78360, Tempo, 421053
1, 78480, Tempo, 408163
1, 78600, Tempo, 407914
1, 78720, Tempo, 399813
1, 78840, Tempo, 442576
1, 78960, Tempo, 402064
1, 79080, Tempo, 406725
1, 79200, Tempo, 399813
1, 79320, Tempo, 406725
1, 79440, Tempo, 399813
1, 79460, Tempo, 402064
1, 79560, Tempo, 404394
1, 79680, Tempo, 399813
1, 79800, Tempo, 406725
1, 79920, Tempo, 399813
1, 80040, Tempo, 403226
1, 80160, Tempo, 399813
1, 80280, Tempo, 405570
1, 80400, Tempo, 399813
1, 80520, Tempo, 410762
1, 80640, Tempo, 429892
1, 80760, Tempo, 477821
1, 80880, Tempo, 402064
1, 81000, Tempo, 406725
1, 81120, Tempo, 399813
1, 81240, Tempo, 406725
1, 81360, Tempo, 399813
1, 81380, Tempo, 402064
1, 81480, Tempo, 404394
1, 81600, Tempo, 399813
1, 81720, Tempo, 406725
1, 81840, Tempo, 399813
1, 81960, Tempo, 403226
1, 82080, Tempo, 399813
1, 82200, Tempo, 405570
1, 82320, Tempo, 399813
1, 82560, Tempo, 399813
1, 82680, Tempo, 422327
1, 82800, Tempo, 402064
1, 82920, Tempo, 406725
1, 83040, Tempo, 399813
1, 83160, Tempo, 406725
1, 83280, Tempo, 399813
1, 83300, Tempo, 402064
1, 83400, Tempo, 404394
1, 83520, Tempo, 399813
1, 83640, Tempo, 415024
1, 83760, Tempo, 406587
1, 83880, Tempo, 415024
1, 84000, Tempo, 407969
1, 84120, Tempo, 415024
1, 84240, Tempo, 425532
1, 84480, Tempo, 436364
1, 84600, Tempo, 470588
1, 84720, Tempo, 425230
1, 84840, Tempo, 414938
1, 84960, Tempo, 406587
1, 85080, Tempo, 419375
1, 85200, Tempo, 407969
1, 85320, Tempo, 412173
1, 85440, Tempo, 399813
1, 85560, Tempo, 406725
1, 85680, Tempo, 399813
1, 85800, Tempo, 403226
1, 85920, Tempo, 399813
1, 86040, Tempo, 405570
1, 86160, Tempo, 399813
1, 86400, Tempo, 405132
1, 86520, Tempo, 462642
1, 86640, Tempo, 402064
1, 86760, Tempo, 406725
1, 86880, Tempo, 399813
1, 87000, Tempo, 406725
1, 87120, Tempo, 399813
1, 87140, Tempo, 402064
1, 87240, Tempo, 404394
1, 87360, Tempo, 399813
1, 87480, Tempo, 406725
1, 87600, Tempo, 399813
1, 87720, Tempo, 403226
1, 87840, Tempo, 399813
1, 87960, Tempo, 405570
1, 88080, Tempo, 406587
1, 88320, Tempo, 423819
1, 88440, Tempo, 459524
1, 88560, Tempo, 405214
1, 88680, Tempo, 415024
1, 88800, Tempo, 405214
1, 88920, Tempo, 412173
1, 89040, Tempo, 399813
1, 89060, Tempo, 402064
1, 89160, Tempo, 404394
1, 89280, Tempo, 399813
1, 89400, Tempo, 406725
1, 89520, Tempo, 399813
1, 89640, Tempo, 403226
1, 89760, Tempo, 399813
1, 89880, Tempo, 405570
1, 90000, Tempo, 399813
1, 90240, Tempo, 399813
1, 90240, Marker_t, "Finale"
1, 90360, Tempo, 425230
1, 90480, Tempo, 406504
1, 90600, Tempo, 414938
1, 90720, Tempo, 406504
1, 90840, Tempo, 417827
1, 90960, Tempo, 407886
1, 90980, Tempo, 402064
1, 91080, Tempo, 416378
1, 91200, Tempo, 407886
1, 91320, Tempo, 420757
1, 91440, Tempo, 413593
1, 91560, Tempo, 431437
1, 91680, Tempo, 420846
1, 91800, Tempo, 436142
1, 91920, Tempo, 423819
1, 92040, Tempo, 445865
1, 92160, Tempo, 399813
1, 92280, Tempo, 425230
1, 92400, Tempo, 406504
1, 92520, Tempo, 414938
1, 92640, Tempo, 406504
1, 92760, Tempo, 417827
1, 92880, Tempo, 407886
1, 92900, Tempo, 402064
1, 93000, Tempo, 416378
1, 93120, Tempo, 407886
1, 93240, Tempo, 420757
1, 93360, Tempo, 413593
1, 93480, Tempo, 431437
1, 93600, Tempo, 420846
1, 93720, Tempo, 436142
1, 93840, Tempo, 423819
1, 93960, Tempo, 445865
1, 94080, Tempo, 399813
1, 94200, Tempo, 425230
1, 94320, Tempo, 406504
1, 94440, Tempo, 414938
1, 94560, Tempo, 406504
1, 94680, Tempo, 417827
1, 94800, Tempo, 407886
1, 94820, Tempo, 402064
1, 94920, Tempo, 416378
1, 95040, Tempo, 403796
1, 95160, Tempo, 420757
1, 95280, Tempo, 403524
1, 95400, Tempo, 416118
1, 95520, Tempo, 407636
1, 95640, Tempo, 423759
1, 95760, Tempo, 407636
1, 95880, Tempo, 431375
1, 96000, Tempo, 399813
1, 96120, Tempo, 425230
1, 96240, Tempo, 400828
1, 96360, Tempo, 414938
1, 96480, Tempo, 400828
1, 96600, Tempo, 417827
1, 96720, Tempo, 407886
1, 96740, Tempo, 402064
1, 96840, Tempo, 416378
1, 96960, Tempo, 400828
1, 97080, Tempo, 414680
1, 97200, Tempo, 402172
1, 97320, Tempo, 431437
1, 97440, Tempo, 410706
1, 97560, Tempo, 420787
1, 97680, Tempo, 410706
1, 97800, Tempo, 425260
1, 97920, Tempo, 399813
1, 98040, Tempo, 425230
1, 98160, Tempo, 406504
1, 98280, Tempo, 414938
1, 98400, Tempo, 406504
1, 98520, Tempo, 417827
1, 98640, Tempo, 407886
1, 98660, Tempo, 402064
1, 98760, Tempo, 416378
1, 98880, Tempo, 407886
1, 99000, Tempo, 432620
1, 99120, Tempo, 423460
1, 99240, Tempo, 447127
1, 99360, Tempo, 435761
1, 99480, Tempo, 460865
1, 99600, Tempo, 479272
1, 99720, Tempo, 499210
1, 99720, End_track
2, 0, Start_track
2, 0, Title_t, "Piano right"
2, 0, Program_c, 0, 0
2, 0, Control_c, 0, 7, 127
2, 0, Control_c, 0, 10, 64
2, 1200, Note_on_c, 0, 79, 58
2, 1680, Note_on_c, 0, 79, 0
2, 1680, Note_on_c, 0, 79, 57
2, 2160, Note_on_c, 0, 79, 0
2, 2160, Note_on_c, 0, 79, 64
2, 2640, Note_on_c, 0, 79, 0
2, 2640, Note_on_c, 0, 78, 55
2, 3120, Note_on_c, 0, 78, 0
2, 3120, Note_on_c, 0, 77, 56
2, 3600, Note_on_c, 0, 77, 0
2, 3600, Note_on_c, 0, 78, 62
2, 4080, Note_on_c, 0, 78, 0
2, 4080, Note_on_c, 0, 83, 64
2, 4560, Note_on_c, 0, 83, 0
2, 4560, Note_on_c, 0, 79, 63
2, 5040, Note_on_c, 0, 79, 0
2, 5040, Note_on_c, 0, 78, 57
2, 5520, Note_on_c, 0, 78, 0
2, 5520, Note_on_c, 0, 76, 57
2, 6000, Note_on_c, 0, 76, 0
2, 6000, Note_on_c, 0, 79, 64
2, 6480, Note_on_c, 0, 79, 0
2, 6480, Note_on_c, 0, 78, 63
2, 6960, Note_on_c, 0, 78, 0
2, 6960, Note_on_c, 0, 77, 57
2, 7440, Note_on_c, 0, 77, 0
2, 7440, Note_on_c, 0, 78, 57
2, 7920, Note_on_c, 0, 78, 0
2, 7920, Note_on_c, 0, 79, 64
2, 8400, Note_on_c, 0, 79, 0
2, 8400, Note_on_c, 0, 79, 63
2, 8880, Note_on_c, 0, 79, 0
2, 8880, Note_on_c, 0, 80, 70
2, 9360, Note_on_c, 0, 80, 0
2, 9360, Note_on_c, 0, 80, 70
2, 9840, Note_on_c, 0, 80, 0
2, 9840, Note_on_c, 0, 81, 72
2, 10320, Note_on_c, 0, 81, 0
2, 10320, Note_on_c, 0, 76, 63
2, 10800, Note_on_c, 0, 76, 0
2, 10800, Note_on_c, 0, 75, 57
2, 11280, Note_on_c, 0, 75, 0
2, 11280, Note_on_c, 0, 76, 57
2, 11760, Note_on_c, 0, 76, 0
2, 11760, Note_on_c, 0, 79, 64
2, 12240, Note_on_c, 0, 79, 0
2, 12240, Note_on_c, 0, 78, 63
2, 12720, Note_on_c, 0, 78, 0
2, 12720, Note_on_c, 0, 76, 57
2, 13200, Note_on_c, 0, 76, 0
2, 13200, Note_on_c, 0, 75, 57
2, 13680, Note_on_c, 0, 75, 0
2, 13680, Note_on_c, 0, 76, 55
2, 13800, Note_on_c, 0, 76, 0
2, 16560, Note_on_c, 0, 79, 58
2, 17040, Note_on_c, 0, 79, 0
2, 17040, Note_on_c, 0, 79, 57
2, 17520, Note_on_c, 0, 79, 0
2, 17520, Note_on_c, 0, 79, 64
2, 18000, Note_on_c, 0, 79, 0
2, 18000, Note_on_c, 0, 78, 55
2, 18480, Note_on_c, 0, 78, 0
2, 18480, Note_on_c, 0, 77, 56
2, 18960, Note_on_c, 0, 77, 0
2, 18960, Note_on_c, 0, 78, 62
2, 19440, Note_on_c, 0, 78, 0
2, 19440, Note_on_c, 0, 83, 64
2, 19920, Note_on_c, 0, 83, 0
2, 19920, Note_on_c, 0, 79, 63
2, 20400, Note_on_c, 0, 79, 0
2, 20400, Note_on_c, 0, 78, 57
2, 20880, Note_on_c, 0, 78, 0
2, 20880, Note_on_c, 0, 76, 57
2, 21360, Note_on_c, 0, 76, 0
2, 21360, Note_on_c, 0, 79, 64
2, 21840, Note_on_c, 0, 79, 0
2, 21840, Note_on_c, 0, 78, 63
2, 22320, Note_on_c, 0, 78, 0
2, 22320, Note_on_c, 0, 77, 57
2, 22800, Note_on_c, 0, 77, 0
2, 22800, Note_on_c, 0, 78, 57
2, 23280, Note_on_c, 0, 78, 0
2, 23280, Note_on_c, 0, 79, 64
2, 23760, Note_on_c, 0, 79, 0
2, 23760, Note_on_c, 0, 79, 63
2, 24240, Note_on_c, 0, 79, 0
2, 24240, Note_on_c, 0, 80, 70
2, 24720, Note_on_c, 0, 80, 0
2, 24720, Note_on_c, 0, 80, 70
2, 25200, Note_on_c, 0, 80, 0
2, 25200, Note_on_c, 0, 81, 70
2, 25680, Note_on_c, 0, 81, 0
2, 25680, Note_on_c, 0, 76, 63
2, 26160, Note_on_c, 0, 76, 0
2, 26160, Note_on_c, 0, 75, 57
2, 26640, Note_on_c, 0, 75, 0
2, 26640, Note_on_c, 0, 76, 57
2, 27120, Note_on_c, 0, 76, 0
2, 27120, Note_on_c, 0, 79, 64
2, 27600, Note_on_c, 0, 79, 0
2, 27600, Note_on_c, 0, 78, 63
2, 28080, Note_on_c, 0, 78, 0
2, 28080, Note_on_c, 0, 76, 57
2, 28560, Note_on_c, 0, 76, 0
2, 28560, Note_on_c, 0, 75, 57
2, 29040, Note_on_c, 0, 75, 0
2, 29040, Note_on_c, 0, 76, 55
2, 29160, Note_on_c, 0, 76, 0
2, 30960, Note_on_c, 0, 62, 45
2, 31440, Note_on_c, 0, 62, 0
2, 31440, Note_on_c, 0, 67, 45
2, 31920, Note_on_c, 0, 67, 0
2, 31920, Note_on_c, 0, 69, 58
2, 32400, Note_on_c, 0, 69, 0
2, 32400, Note_on_c, 0, 71, 57
2, 32880, Note_on_c, 0, 71, 0
2, 32880, Note_on_c, 0, 71, 64
2, 33360, Note_on_c, 0, 71, 0
2, 33360, Note_on_c, 0, 69, 55
2, 33840, Note_on_c, 0, 69, 0
2, 33840, Note_on_c, 0, 68, 56
2, 34320, Note_on_c, 0, 68, 0
2, 34320, Note_on_c, 0, 69, 62
2, 34800, Note_on_c, 0, 69, 0
2, 34800, Note_on_c, 0, 62, 51
2, 35280, Note_on_c, 0, 62, 0
2, 35280, Note_on_c, 0, 67, 54
2, 35760, Note_on_c, 0, 67, 0
2, 35760, Note_on_c, 0, 69, 63
2, 36240, Note_on_c, 0, 69, 0
2, 36240, Note_on_c, 0, 71, 66
2, 36720, Note_on_c, 0, 71, 0
2, 36720, Note_on_c, 0, 74, 69
2, 37200, Note_on_c, 0, 74, 0
2, 37200, Note_on_c, 0, 73, 64
2, 37680, Note_on_c, 0, 73, 0
2, 37680, Note_on_c, 0, 72, 68
2, 38160, Note_on_c, 0, 72, 0
2, 38160, Note_on_c, 0, 69, 64
2, 38640, Note_on_c, 0, 69, 0
2, 38640, Note_on_c, 0, 71, 58
2, 39120, Note_on_c, 0, 71, 0
2, 39120, Note_on_c, 0, 71, 66
2, 39600, Note_on_c, 0, 71, 0
2, 39600, Note_on_c, 0, 76, 72
2, 40080, Note_on_c, 0, 76, 0
2, 40080, Note_on_c, 0, 71, 65
2, 40560, Note_on_c, 0, 71, 0
2, 40560, Note_on_c, 0, 72, 63
2, 41040, Note_on_c, 0, 72, 0
2, 41040, Note_on_c, 0, 72, 69
2, 41520, Note_on_c, 0, 72, 0
2, 41520, Note_on_c, 0, 79, 76
2, 42000, Note_on_c, 0, 79, 0
2, 42000, Note_on_c, 0, 74, 72
2, 42480, Note_on_c, 0, 74, 0
2, 42480, Note_on_c, 0, 76, 71
2, 42960, Note_on_c, 0, 76, 0
2, 42960, Note_on_c, 0, 76, 69
2, 43440, Note_on_c, 0, 76, 0
2, 43440, Note_on_c, 0, 76, 73
2, 43920, Note_on_c, 0, 76, 0
2, 43920, Note_on_c, 0, 76, 66
2, 44400, Note_on_c, 0, 76, 0
2, 44400, Note_on_c, 0, 75, 71
2, 44880, Note_on_c, 0, 75, 0
2, 44880, Note_on_c, 0, 71, 72
2, 45360, Note_on_c, 0, 71, 0
2, 45360, Note_on_c, 0, 71, 78
2, 45840, Note_on_c, 0, 71, 0
2, 45840, Note_on_c, 0, 71, 83
2, 45990, Note_on_c, 0, 59, 66
2, 46020, Note_on_c, 0, 64, 66
2, 46050, Note_on_c, 0, 67, 66
2, 46080, Note_on_c, 0, 71, 0
2, 46080, Note_on_c, 0, 71, 83
2, 46320, Note_on_c, 0, 71, 0
2, 46320, Note_on_c, 0, 67, 0
2, 46320, Note_on_c, 0, 64, 0
2, 46320, Note_on_c, 0, 59, 0
2, 47280, Note_on_c, 0, 79, 58
2, 47760, Note_on_c, 0, 79, 0
2, 47760, Note_on_c, 0, 79, 57
2, 48240, Note_on_c, 0, 79, 0
2, 48240, Note_on_c, 0, 79, 64
2, 48720, Note_on_c, 0, 79, 0
2, 48720, Note_on_c, 0, 78, 55
2, 49200, Note_on_c, 0, 78, 0
2, 49200, Note_on_c, 0, 77, 56
2, 49680, Note_on_c, 0, 77, 0
2, 49680, Note_on_c, 0, 78, 62
2, 50160, Note_on_c, 0, 78, 0
2, 50160, Note_on_c, 0, 84, 69
2, 50640, Note_on_c, 0, 84, 0
2, 50640, Note_on_c, 0, 83, 66
2, 51120, Note_on_c, 0, 83, 0
2, 51120, Note_on_c, 0, 79, 57
2, 51600, Note_on_c, 0, 79, 0
2, 51600, Note_on_c, 0, 76, 57
2, 52080, Note_on_c, 0, 76, 0
2, 52080, Note_on_c, 0, 79, 64
2, 52560, Note_on_c, 0, 79, 0
2, 52560, Note_on_c, 0, 78, 63
2, 53040, Note_on_c, 0, 78, 0
2, 53040, Note_on_c, 0, 77, 57
2, 53520, Note_on_c, 0, 77, 0
2, 53520, Note_on_c, 0, 78, 57
2, 54000, Note_on_c, 0, 78, 0
2, 54000, Note_on_c, 0, 79, 64
2, 54480, Note_on_c, 0, 79, 0
2, 54480, Note_on_c, 0, 79, 63
2, 54960, Note_on_c, 0, 79, 0
2, 54960, Note_on_c, 0, 80, 70
2, 55440, Note_on_c, 0, 80, 0
2, 55440, Note_on_c, 0, 80, 70
2, 55920, Note_on_c, 0, 80, 0
2, 55920, Note_on_c, 0, 81, 73
2, 56400, Note_on_c, 0, 81, 0
2, 56400, Note_on_c, 0, 76, 63
2, 56880, Note_on_c, 0, 76, 0
2, 56880, Note_on_c, 0, 75, 57
2, 57360, Note_on_c, 0, 75, 0
2, 57360, Note_on_c, 0, 76, 57
2, 57840, Note_on_c, 0, 76, 0
2, 57840, Note_on_c, 0, 79, 64
2, 58320, Note_on_c, 0, 79, 0
2, 58320, Note_on_c, 0, 78, 63
2, 58800, Note_on_c, 0, 78, 0
2, 58800, Note_on_c, 0, 76, 57
2, 59280, Note_on_c, 0, 76, 0
2, 59280, Note_on_c, 0, 75, 57
2, 59760, Note_on_c, 0, 75, 0
2, 59760, Note_on_c, 0, 76, 55
2, 59880, Note_on_c, 0, 76, 0
2, 61680, Note_on_c, 0, 62, 45
2, 62160, Note_on_c, 0, 62, 0
2, 62160, Note_on_c, 0, 67, 45
2, 62640, Note_on_c, 0, 67, 0
2, 62640, Note_on_c, 0, 69, 58
2, 63120, Note_on_c, 0, 69, 0
2, 63120, Note_on_c, 0, 71, 57
2, 63600, Note_on_c, 0, 71, 0
2, 63600, Note_on_c, 0, 71, 64
2, 64080, Note_on_c, 0, 71, 0
2, 64080, Note_on_c, 0, 69, 55
2, 64560, Note_on_c, 0, 69, 0
2, 64560, Note_on_c, 0, 68, 56
2, 65040, Note_on_c, 0, 68, 0
2, 65040, Note_on_c, 0, 69, 62
2, 65520, Note_on_c, 0, 69, 0
2, 65520, Note_on_c, 0, 62, 51
2, 66000, Note_on_c, 0, 62, 0
2, 66000, Note_on_c, 0, 67, 54
2, 66480, Note_on_c, 0, 67, 0
2, 66480, Note_on_c, 0, 69, 63
2, 66960, Note_on_c, 0, 69, 0
2, 66960, Note_on_c, 0, 71, 61
2, 67440, Note_on_c, 0, 71, 0
2, 67440, Note_on_c, 0, 74, 71
2, 67920, Note_on_c, 0, 74, 0
2, 67920, Note_on_c, 0, 73, 64
2, 68400, Note_on_c, 0, 73, 0
2, 68400, Note_on_c, 0, 72, 68
2, 68880, Note_on_c, 0, 72, 0
2, 68880, Note_on_c, 0, 69, 64
2, 69360, Note_on_c, 0, 69, 0
2, 69360, Note_on_c, 0, 71, 58
2, 69840, Note_on_c, 0, 71, 0
2, 69840, Note_on_c, 0, 71, 66
2, 70320, Note_on_c, 0, 71, 0
2, 70320, Note_on_c, 0, 76, 72
2, 70800, Note_on_c, 0, 76, 0
2, 70800, Note_on_c, 0, 71, 65
2, 71280, Note_on_c, 0, 71, 0
2, 71280, Note_on_c, 0, 72, 63
2, 71760, Note_on_c, 0, 72, 0
2, 71760, Note_on_c, 0, 72, 69
2, 72240, Note_on_c, 0, 72, 0
2, 72240, Note_on_c, 0, 79, 73
2, 72720, Note_on_c, 0, 79, 0
2, 72720, Note_on_c, 0, 74, 66
2, 73200, Note_on_c, 0, 74, 0
2, 73200, Note_on_c, 0, 76, 71
2, 73680, Note_on_c, 0, 76, 0
2, 73680, Note_on_c, 0, 76, 69
2, 74160, Note_on_c, 0, 76, 0
2, 74160, Note_on_c, 0, 76, 73
2, 74640, Note_on_c, 0, 76, 0
2, 74640, Note_on_c, 0, 76, 66
2, 75120, Note_on_c, 0, 76, 0
2, 75120, Note_on_c, 0, 75, 71
2, 75600, Note_on_c, 0, 75, 0
2, 75600, Note_on_c, 0, 71, 72
2, 76080, Note_on_c, 0, 71, 0
2, 76080, Note_on_c, 0, 71, 78
2, 76560, Note_on_c, 0, 71, 0
2, 76560, Note_on_c, 0, 71, 83
2, 76710, Note_on_c, 0, 59, 66
2, 76740, Note_on_c, 0, 64, 66
2, 76770, Note_on_c, 0, 67, 66
2, 76800, Note_on_c, 0, 71, 0
2, 76800, Note_on_c, 0, 71, 83
2, 77040, Note_on_c, 0, 71, 0
2, 77040, Note_on_c, 0, 67, 0
2, 77040, Note_on_c, 0, 64, 0
2, 77040, Note_on_c, 0, 59, 0
2, 78000, Note_on_c, 0, 79, 58
2, 78480, Note_on_c, 0, 79, 0
2, 78480, Note_on_c, 0, 79, 57
2, 78960, Note_on_c, 0, 79, 0
2, 78960, Note_on_c, 0, 79, 64
2, 79440, Note_on_c, 0, 79, 0
2, 79440, Note_on_c, 0, 78, 55
2, 79920, Note_on_c, 0, 78, 0
2, 79920, Note_on_c, 0, 77, 56
2, 80400, Note_on_c, 0, 77, 0
2, 80400, Note_on_c, 0, 78, 62
2, 80880, Note_on_c, 0, 78, 0
2, 80880, Note_on_c, 0, 84, 69
2, 81360, Note_on_c, 0, 84, 0
2, 81360, Note_on_c, 0, 83, 66
2, 81840, Note_on_c, 0, 83, 0
2, 81840, Note_on_c, 0, 79, 57
2, 82320, Note_on_c, 0, 79, 0
2, 82320, Note_on_c, 0, 76, 57
2, 82800, Note_on_c, 0, 76, 0
2, 82800, Note_on_c, 0, 79, 64
2, 83280, Note_on_c, 0, 79, 0
2, 83280, Note_on_c, 0, 78, 63
2, 83760, Note_on_c, 0, 78, 0
2, 83760, Note_on_c, 0, 77, 57
2, 84240, Note_on_c, 0, 77, 0
2, 84240, Note_on_c, 0, 78, 57
2, 84720, Note_on_c, 0, 78, 0
2, 84720, Note_on_c, 0, 79, 64
2, 85200, Note_on_c, 0, 79, 0
2, 85200, Note_on_c, 0, 79, 63
2, 85680, Note_on_c, 0, 79, 0
2, 85680, Note_on_c, 0, 80, 70
2, 86160, Note_on_c, 0, 80, 0
2, 86160, Note_on_c, 0, 80, 70
2, 86640, Note_on_c, 0, 80, 0
2, 86640, Note_on_c, 0, 81, 69
2, 87120, Note_on_c, 0, 81, 0
2, 87120, Note_on_c, 0, 76, 63
2, 87600, Note_on_c, 0, 76, 0
2, 87600, Note_on_c, 0, 75, 57
2, 88080, Note_on_c, 0, 75, 0
2, 88080, Note_on_c, 0, 76, 57
2, 88560, Note_on_c, 0, 76, 0
2, 88560, Note_on_c, 0, 79, 64
2, 89040, Note_on_c, 0, 79, 0
2, 89040, Note_on_c, 0, 78, 63
2, 89520, Note_on_c, 0, 78, 0
2, 89520, Note_on_c, 0, 76, 57
2, 90000, Note_on_c, 0, 76, 0
2, 90000, Note_on_c, 0, 75, 57
2, 90480, Note_on_c, 0, 75, 0
2, 90480, Note_on_c, 0, 76, 55
2, 90960, Note_on_c, 0, 76, 0
2, 90960, Note_on_c, 0, 76, 61
2, 91440, Note_on_c, 0, 76, 0
2, 91440, Note_on_c, 0, 76, 64
2, 91920, Note_on_c, 0, 76, 0
2, 91920, Note_on_c, 0, 76, 58
2, 92400, Note_on_c, 0, 76, 0
2, 92400, Note_on_c, 0, 76, 54
2, 92880, Note_on_c, 0, 76, 0
2, 92880, Note_on_c, 0, 76, 56
2, 93360, Note_on_c, 0, 76, 0
2, 93360, Note_on_c, 0, 76, 61
2, 93840, Note_on_c, 0, 76, 0
2, 93840, Note_on_c, 0, 76, 57
2, 94320, Note_on_c, 0, 76, 0
2, 94320, Note_on_c, 0, 76, 63
2, 94800, Note_on_c, 0, 76, 0
2, 94800, Note_on_c, 0, 71, 66
2, 95280, Note_on_c, 0, 71, 0
2, 95280, Note_on_c, 0, 67, 70
2, 95760, Note_on_c, 0, 67, 0
2, 95760, Note_on_c, 0, 64, 64
2, 96240, Note_on_c, 0, 64, 0
2, 96240, Note_on_c, 0, 59, 63
2, 96720, Note_on_c, 0, 59, 0
2, 96720, Note_on_c, 0, 59, 65
2, 97200, Note_on_c, 0, 59, 0
2, 97200, Note_on_c, 0, 55, 68
2, 97680, Note_on_c, 0, 55, 0
2, 97680, Note_on_c, 0, 52, 63
2, 97920, Note_on_c, 0, 52, 0
2, 100800, Note_on_c, 0, 67, 70
2, 100800, Note_on_c, 0, 71, 70
2, 100800, Note_on_c, 0, 76, 70
2, 100800, Note_on_c, 0, 79, 88
2, 101040, Note_on_c, 0, 79, 0
2, 101040, Note_on_c, 0, 67, 0
2, 101040, Note_on_c, 0, 71, 0
2, 101040, Note_on_c, 0, 76, 0
2, 101760, Note_on_c, 0, 52, 92
2, 102720, Note_on_c, 0, 52, 0
2, 102720, End_track
3, 0, Start_track
3, 0, Title_t, "Piano left"
3, 0, Program_c, 0, 0
3, 0, Control_c, 0, 7, 127
3, 0, Control_c, 0, 10, 64
3, 0, Note_on_c, 0, 64, 28
3, 92, Control_c, 0, 64, 127
3, 120, Note_on_c, 0, 64, 0
3, 120, Note_on_c, 0, 67, 21
3, 240, Note_on_c, 0, 67, 0
3, 240, Note_on_c, 0, 71, 36
3, 360, Note_on_c, 0, 71, 0
3, 360, Note_on_c, 0, 67, 22
3, 480, Note_on_c, 0, 67, 0
3, 480, Note_on_c, 0, 64, 29
3, 600, Note_on_c, 0, 64, 0
3, 600, Note_on_c, 0, 67, 22
3, 720, Note_on_c, 0, 67, 0
3, 720, Note_on_c, 0, 71, 39
3, 840, Note_on_c, 0, 71, 0
3, 840, Note_on_c, 0, 67, 23
3, 960, Note_on_c, 0, 67, 0
3, 960, Note_on_c, 0, 64, 32
3, 1080, Note_on_c, 0, 64, 0
3, 1080, Note_on_c, 0, 67, 26
3, 1200, Note_on_c, 0, 67, 0
3, 1320, Note_on_c, 0, 71, 24
3, 1440, Note_on_c, 0, 71, 0
3, 1440, Note_on_c, 0, 64, 37
3, 1560, Note_on_c, 0, 64, 0
3, 1560, Note_on_c, 0, 67, 29
3, 1680, Note_on_c, 0, 67, 0
3, 1800, Note_on_c, 0, 71, 28
3, 1920, Note_on_c, 0, 71, 0
3, 1920, Note_on_c, 0, 63, 36
3, 1947, Control_c, 0, 64, 0
3, 1983, Control_c, 0, 64, 127
3, 2040, Note_on_c, 0, 63, 0
3, 2040, Note_on_c, 0, 69, 29
3, 2160, Note_on_c, 0, 69, 0
3, 2280, Note_on_c, 0, 71, 29
3, 2400, Note_on_c, 0, 71, 0
3, 2400, Note_on_c, 0, 63, 37
3, 2520, Note_on_c, 0, 63, 0
3, 2520, Note_on_c, 0, 69, 30
3, 2640, Note_on_c, 0, 69, 0
3, 2760, Note_on_c, 0, 71, 28
3, 2880, Note_on_c, 0, 71, 0
3, 2880, Note_on_c, 0, 63, 37
3, 3000, Note_on_c, 0, 63, 0
3, 3000, Note_on_c, 0, 69, 30
3, 3120, Note_on_c, 0, 69, 0
3, 3240, Note_on_c, 0, 71, 28
3, 3360, Note_on_c, 0, 71, 0
3, 3360, Note_on_c, 0, 63, 37
3, 3480, Note_on_c, 0, 63, 0
3, 3480, Note_on_c, 0, 69, 30
3, 3600, Note_on_c, 0, 69, 0
3, 3720, Note_on_c, 0, 71, 28
3, 3840, Note_on_c, 0, 71, 0
3, 3840, Note_on_c, 0, 64, 36
3, 3852, Control_c, 0, 64, 0
3, 3903, Control_c, 0, 64, 127
3, 3960, Note_on_c, 0, 64, 0
3, 3960, Note_on_c, 0, 67, 29
3, 4080, Note_on_c, 0, 67, 0
3, 4200, Note_on_c, 0, 71, 41
3, 4320, Note_on_c, 0, 71, 0
3, 4320, Note_on_c, 0, 64, 47
3, 4440, Note_on_c, 0, 64, 0
3, 4440, Note_on_c, 0, 67, 40
3, 4560, Note_on_c, 0, 67, 0
3, 4680, Note_on_c, 0, 71, 39
3, 4800, Note_on_c, 0, 71, 0
3, 4800, Note_on_c, 0, 64, 46
3, 4920, Note_on_c, 0, 64, 0
3, 4920, Note_on_c, 0, 67, 38
3, 5040, Note_on_c, 0, 67, 0
3, 5160, Note_on_c, 0, 71, 28
3, 5280, Note_on_c, 0, 71, 0
3, 5280, Note_on_c, 0, 64, 37
3, 5400, Note_on_c, 0, 64, 0
3, 5400, Note_on_c, 0, 67, 30
3, 5520, Note_on_c, 0, 67, 0
3, 5640, Note_on_c, 0, 71, 28
3, 5760, Note_on_c, 0, 71, 0
3, 5760, Note_on_c, 0, 63, 36
3, 5770, Control_c, 0, 64, 0
3, 5823, Control_c, 0, 64, 127
3, 5880, Note_on_c, 0, 63, 0
3, 5880, Note_on_c, 0, 69, 29
3, 6000, Note_on_c, 0, 69, 0
3, 6120, Note_on_c, 0, 71, 36
3, 6240, Note_on_c, 0, 71, 0
3, 6240, Note_on_c, 0, 63, 41
3, 6360, Note_on_c, 0, 63, 0
3, 6360, Note_on_c, 0, 69, 34
3, 6480, Note_on_c, 0, 69, 0
3, 6600, Note_on_c, 0, 71, 34
3, 6720, Note_on_c, 0, 71, 0
3, 6720, Note_on_c, 0, 63, 40
3, 6840, Note_on_c, 0, 63, 0
3, 6840, Note_on_c, 0, 69, 35
3, 6960, Note_on_c, 0, 69, 0
3, 7080, Note_on_c, 0, 71, 28
3, 7200, Note_on_c, 0, 71, 0
3, 7200, Note_on_c, 0, 63, 37
3, 7320, Note_on_c, 0, 63, 0
3, 7320, Note_on_c, 0, 69, 30
3, 7440, Note_on_c, 0, 69, 0
3, 7560, Note_on_c, 0, 71, 28
3, 7680, Note_on_c, 0, 71, 0
3, 7680, Note_on_c, 0, 64, 36
3, 7690, Control_c, 0, 64, 0
3, 7743, Control_c, 0, 64, 127
3, 7800, Note_on_c, 0, 64, 0
3, 7800, Note_on_c, 0, 67, 29
3, 7920, Note_on_c, 0, 67, 0
3, 8040, Note_on_c, 0, 71, 36
3, 8160, Note_on_c, 0, 71, 0
3, 8160, Note_on_c, 0, 64, 41
3, 8280, Note_on_c, 0, 64, 0
3, 8280, Note_on_c, 0, 67, 34
3, 8400, Note_on_c, 0, 67, 0
3, 8520, Note_on_c, 0, 71, 39
3, 8640, Note_on_c, 0, 71, 0
3, 8640, Note_on_c, 0, 62, 47
3, 8653, Control_c, 0, 64, 0
3, 8709, Control_c, 0, 64, 127
3, 8760, Note_on_c, 0, 62, 0
3, 8760, Note_on_c, 0, 65, 40
3, 8880, Note_on_c, 0, 65, 0
3, 9000, Note_on_c, 0, 71, 38
3, 9120, Note_on_c, 0, 71, 0
3, 9120, Note_on_c, 0, 62, 50
3, 9240, Note_on_c, 0, 62, 0
3, 9240, Note_on_c, 0, 65, 42
3, 9360, Note_on_c, 0, 65, 0
3, 9480, Note_on_c, 0, 71, 46
3, 9600, Note_on_c, 0, 71, 0
3, 9600, Note_on_c, 0, 60, 53
3, 9623, Control_c, 0, 64, 0
3, 9680, Control_c, 0, 64, 127
3, 9720, Note_on_c, 0, 60, 0
3, 9720, Note_on_c, 0, 64, 45
3, 9840, Note_on_c, 0, 64, 0
3, 9960, Note_on_c, 0, 69, 36
3, 10080, Note_on_c, 0, 69, 0
3, 10080, Note_on_c, 0, 60, 41
3, 10200, Note_on_c, 0, 60, 0
3, 10200, Note_on_c, 0, 64, 34
3, 10320, Note_on_c, 0, 64, 0
3, 10440, Note_on_c, 0, 69, 34
3, 10560, Note_on_c, 0, 69, 0
3, 10560, Note_on_c, 0, 60, 40
3, 10680, Note_on_c, 0, 60, 0
3, 10680, Note_on_c, 0, 64, 35
3, 10800, Note_on_c, 0, 64, 0
3, 10920, Note_on_c, 0, 69, 28
3, 11040, Note_on_c, 0, 69, 0
3, 11040, Note_on_c, 0, 60, 37
3, 11160, Note_on_c, 0, 60, 0
3, 11160, Note_on_c, 0, 64, 30
3, 11280, Note_on_c, 0, 64, 0
3, 11400, Note_on_c, 0, 69, 28
3, 11520, Note_on_c, 0, 69, 0
3, 11520, Note_on_c, 0, 59, 36
3, 11524, Control_c, 0, 64, 0
3, 11583, Control_c, 0, 64, 127
3, 11640, Note_on_c, 0, 59, 0
3, 11640, Note_on_c, 0, 64, 29
3, 11760, Note_on_c, 0, 64, 0
3, 11880, Note_on_c, 0, 71, 36
3, 12000, Note_on_c, 0, 71, 0
3, 12000, Note_on_c, 0, 59, 41
3, 12009, Control_c, 0, 64, 0
3, 12052, Control_c, 0, 64, 127
3, 12120, Note_on_c, 0, 59, 0
3, 12120, Note_on_c, 0, 69, 34
3, 12240, Note_on_c, 0, 69, 0
3, 12360, Note_on_c, 0, 71, 34
3, 12480, Note_on_c, 0, 71, 0
3, 12480, Note_on_c, 0, 59, 40
3, 12488, Control_c, 0, 64, 0
3, 12549, Control_c, 0, 64, 127
3, 12600, Note_on_c, 0, 59, 0
3, 12600, Note_on_c, 0, 67, 35
3, 12720, Note_on_c, 0, 67, 0
3, 12840, Note_on_c, 0, 71, 28
3, 12960, Note_on_c, 0, 71, 0
3, 12960, Note_on_c, 0, 59, 37
3, 12975, Control_c, 0, 64, 0
3, 13035, Control_c, 0, 64, 127
3, 13080, Note_on_c, 0, 59, 0
3, 13080, Note_on_c, 0, 66, 30
3, 13200, Note_on_c, 0, 66, 0
3, 13320, Note_on_c, 0, 71, 28
3, 13440, Note_on_c, 0, 71, 0
3, 13440, Note_on_c, 0, 64, 36
3, 13449, Control_c, 0, 64, 0
3, 13503, Control_c, 0, 64, 127
3, 13560, Note_on_c, 0, 64, 0
3, 13560, Note_on_c, 0, 67, 29
3, 13680, Note_on_c, 0, 67, 0
3, 13800, Note_on_c, 0, 71, 33
3, 13920, Note_on_c, 0, 71, 0
3, 13920, Note_on_c, 0, 70, 38
3, 13932, Control_c, 0, 64, 0
3, 14023, Control_c, 0, 64, 127
3, 14040, Note_on_c, 0, 70, 0
3, 14040, Note_on_c, 0, 71, 29
3, 14160, Note_on_c, 0, 71, 0
3, 14160, Note_on_c, 0, 72, 42
3, 14280, Note_on_c, 0, 72, 0
3, 14280, Note_on_c, 0, 71, 30
3, 14400, Note_on_c, 0, 71, 0
3, 14400, Note_on_c, 0, 70, 38
3, 14406, Control_c, 0, 64, 0
3, 14469, Control_c, 0, 64, 127
3, 14520, Note_on_c, 0, 70, 0
3, 14520, Note_on_c, 0, 71, 34
3, 14640, Note_on_c, 0, 71, 0
3, 14640, Note_on_c, 0, 72, 42
3, 14760, Note_on_c, 0, 72, 0
3, 14760, Note_on_c, 0, 71, 26
3, 14880, Note_on_c, 0, 71, 0
3, 14880, Note_on_c, 0, 70, 34
3, 14895, Control_c, 0, 64, 0
3, 14955, Control_c, 0, 64, 127
3, 15000, Note_on_c, 0, 70, 0
3, 15000, Note_on_c, 0, 71, 27
3, 15120, Note_on_c, 0, 71, 0
3, 15120, Note_on_c, 0, 72, 39
3, 15240, Note_on_c, 0, 72, 0
3, 15240, Note_on_c, 0, 71, 24
3, 15360, Note_on_c, 0, 71, 0
3, 15360, Control_c, 0, 64, 0
3, 15360, Note_on_c, 0, 64, 28
3, 15452, Control_c, 0, 64, 127
3, 15480, Note_on_c, 0, 64, 0
3, 15480, Note_on_c, 0, 67, 21
3, 15600, Note_on_c, 0, 67, 0
3, 15600, Note_on_c, 0, 71, 35
3, 15720, Note_on_c, 0, 71, 0
3, 15720, Note_on_c, 0, 67, 22
3, 15840, Note_on_c, 0, 67, 0
3, 15840, Note_on_c, 0, 64, 29
3, 15960, Note_on_c, 0, 64, 0
3, 15960, Note_on_c, 0, 67, 22
3, 16080, Note_on_c, 0, 67, 0
3, 16080, Note_on_c, 0, 71, 36
3, 16200, Note_on_c, 0, 71, 0
3, 16200, Note_on_c, 0, 67, 23
3, 16320, Note_on_c, 0, 67, 0
3, 16320, Note_on_c, 0, 64, 32
3, 16440, Note_on_c, 0, 64, 0
3, 16440, Note_on_c, 0, 67, 26
3, 16560, Note_on_c, 0, 67, 0
3, 16680, Note_on_c, 0, 71, 24
3, 16800, Note_on_c, 0, 71, 0
3, 16800, Note_on_c, 0, 64, 37
3, 16920, Note_on_c, 0, 64, 0
3, 16920, Note_on_c, 0, 67, 29
3, 17040, Note_on_c, 0, 67, 0
3, 17160, Note_on_c, 0, 71, 28
3, 17280, Note_on_c, 0, 71, 0
3, 17280, Note_on_c, 0, 63, 36
3, 17307, Control_c, 0, 64, 0
3, 17343, Control_c, 0, 64, 127
3, 17400, Note_on_c, 0, 63, 0
3, 17400, Note_on_c, 0, 69, 29
3, 17520, Note_on_c, 0, 69, 0
3, 17640, Note_on_c, 0, 71, 29
3, 17760, Note_on_c, 0, 71, 0
3, 17760, Note_on_c, 0, 63, 37
3, 17880, Note_on_c, 0, 63, 0
3, 17880, Note_on_c, 0, 69, 30
3, 18000, Note_on_c, 0, 69, 0
3, 18120, Note_on_c, 0, 71, 28
3, 18240, Note_on_c, 0, 71, 0
3, 18240, Note_on_c, 0, 63, 37
3, 18360, Note_on_c, 0, 63, 0
3, 18360, Note_on_c, 0, 69, 30
3, 18480, Note_on_c, 0, 69, 0
3, 18600, Note_on_c, 0, 71, 28
3, 18720, Note_on_c, 0, 71, 0
3, 18720, Note_on_c, 0, 63, 37
3, 18840, Note_on_c, 0, 63, 0
3, 18840, Note_on_c, 0, 69, 30
3, 18960, Note_on_c, 0, 69, 0
3, 19080, Note_on_c, 0, 71, 28
3, 19200, Note_on_c, 0, 71, 0
3, 19200, Note_on_c, 0, 64, 36
3, 19212, Control_c, 0, 64, 0
3, 19263, Control_c, 0, 64, 127
3, 19320, Note_on_c, 0, 64, 0
3, 19320, Note_on_c, 0, 67, 29
3, 19440, Note_on_c, 0, 67, 0
3, 19560, Note_on_c, 0, 71, 39
3, 19680, Note_on_c, 0, 71, 0
3, 19680, Note_on_c, 0, 64, 46
3, 19800, Note_on_c, 0, 64, 0
3, 19800, Note_on_c, 0, 67, 39
3, 19920, Note_on_c, 0, 67, 0
3, 20040, Note_on_c, 0, 71, 37
3, 20160, Note_on_c, 0, 71, 0
3, 20160, Note_on_c, 0, 64, 43
3, 20280, Note_on_c, 0, 64, 0
3, 20280, Note_on_c, 0, 67, 38
3, 20400, Note_on_c, 0, 67, 0
3, 20520, Note_on_c, 0, 71, 28
3, 20640, Note_on_c, 0, 71, 0
3, 20640, Note_on_c, 0, 64, 37
3, 20760, Note_on_c, 0, 64, 0
3, 20760, Note_on_c, 0, 67, 30
3, 20880, Note_on_c, 0, 67, 0
3, 21000, Note_on_c, 0, 71, 28
3, 21120, Note_on_c, 0, 71, 0
3, 21120, Note_on_c, 0, 63, 36
3, 21130, Control_c, 0, 64, 0
3, 21183, Control_c, 0, 64, 127
3, 21240, Note_on_c, 0, 63, 0
3, 21240, Note_on_c, 0, 69, 29
3, 21360, Note_on_c, 0, 69, 0
3, 21480, Note_on_c, 0, 71, 36
3, 21600, Note_on_c, 0, 71, 0
3, 21600, Note_on_c, 0, 63, 41
3, 21720, Note_on_c, 0, 63, 0
3, 21720, Note_on_c, 0, 69, 34
3, 21840, Note_on_c, 0, 69, 0
3, 21960, Note_on_c, 0, 71, 34
3, 22080, Note_on_c, 0, 71, 0
3, 22080, Note_on_c, 0, 63, 40
3, 22200, Note_on_c, 0, 63, 0
3, 22200, Note_on_c, 0, 69, 35
3, 22320, Note_on_c, 0, 69, 0
3, 22440, Note_on_c, 0, 71, 28
3, 22560, Note_on_c, 0, 71, 0
3, 22560, Note_on_c, 0, 63, 37
3, 22680, Note_on_c, 0, 63, 0
3, 22680, Note_on_c, 0, 69, 30
3, 22800, Note_on_c, 0, 69, 0
3, 22920, Note_on_c, 0, 71, 28
3, 23040, Note_on_c, 0, 71, 0
3, 23040, Note_on_c, 0, 64, 36
3, 23050, Control_c, 0, 64, 0
3, 23103, Control_c, 0, 64, 127
3, 23160, Note_on_c, 0, 64, 0
3, 23160, Note_on_c, 0, 67, 29
3, 23280, Note_on_c, 0, 67, 0
3, 23400, Note_on_c, 0, 71, 36
3, 23520, Note_on_c, 0, 71, 0
3, 23520, Note_on_c, 0, 64, 41
3, 23640, Note_on_c, 0, 64, 0
3, 23640, Note_on_c, 0, 67, 34
3, 23760, Note_on_c, 0, 67, 0
3, 23880, Note_on_c, 0, 71, 39
3, 24000, Note_on_c, 0, 71, 0
3, 24000, Note_on_c, 0, 62, 47
3, 24013, Control_c, 0, 64, 0
3, 24069, Control_c, 0, 64, 127
3, 24120, Note_on_c, 0, 62, 0
3, 24120, Note_on_c, 0, 65, 40
3, 24240, Note_on_c, 0, 65, 0
3, 24360, Note_on_c, 0, 71, 38
3, 24480, Note_on_c, 0, 71, 0
3, 24480, Note_on_c, 0, 62, 50
3, 24600, Note_on_c, 0, 62, 0
3, 24600, Note_on_c, 0, 65, 42
3, 24720, Note_on_c, 0, 65, 0
3, 24840, Note_on_c, 0, 71, 45
3, 24960, Note_on_c, 0, 71, 0
3, 24960, Note_on_c, 0, 60, 52
3, 24983, Control_c, 0, 64, 0
3, 25040, Control_c, 0, 64, 127
3, 25080, Note_on_c, 0, 60, 0
3, 25080, Note_on_c, 0, 64, 43
3, 25200, Note_on_c, 0, 64, 0
3, 25320, Note_on_c, 0, 69, 39
3, 25440, Note_on_c, 0, 69, 0
3, 25440, Note_on_c, 0, 60, 46
3, 25560, Note_on_c, 0, 60, 0
3, 25560, Note_on_c, 0, 64, 38
3, 25680, Note_on_c, 0, 64, 0
3, 25800, Note_on_c, 0, 69, 34
3, 25920, Note_on_c, 0, 69, 0
3, 25920, Note_on_c, 0, 60, 40
3, 26040, Note_on_c, 0, 60, 0
3, 26040, Note_on_c, 0, 64, 35
3, 26160, Note_on_c, 0, 64, 0
3, 26280, Note_on_c, 0, 69, 28
3, 26400, Note_on_c, 0, 69, 0
3, 26400, Note_on_c, 0, 60, 37
3, 26520, Note_on_c, 0, 60, 0
3, 26520, Note_on_c, 0, 64, 30
3, 26640, Note_on_c, 0, 64, 0
3, 26760, Note_on_c, 0, 69, 28
3, 26880, Note_on_c, 0, 69, 0
3, 26880, Note_on_c, 0, 59, 36
3, 26884, Control_c, 0, 64, 0
3, 26943, Control_c, 0, 64, 127
3, 27000, Note_on_c, 0, 59, 0
3, 27000, Note_on_c, 0, 64, 29
3, 27120, Note_on_c, 0, 64, 0
3, 27240, Note_on_c, 0, 71, 36
3, 27360, Note_on_c, 0, 71, 0
3, 27360, Note_on_c, 0, 59, 41
3, 27369, Control_c, 0, 64, 0
3, 27412, Control_c, 0, 64, 127
3, 27480, Note_on_c, 0, 59, 0
3, 27480, Note_on_c, 0, 69, 34
3, 27600, Note_on_c, 0, 69, 0
3, 27720, Note_on_c, 0, 71, 34
3, 27840, Note_on_c, 0, 71, 0
3, 27840, Note_on_c, 0, 59, 40
3, 27848, Control_c, 0, 64, 0
3, 27909, Control_c, 0, 64, 127
3, 27960, Note_on_c, 0, 59, 0
3, 27960, Note_on_c, 0, 67, 35
3, 28080, Note_on_c, 0, 67, 0
3, 28200, Note_on_c, 0, 71, 28
3, 28320, Note_on_c, 0, 71, 0
3, 28320, Note_on_c, 0, 59, 37
3, 28335, Control_c, 0, 64, 0
3, 28395, Control_c, 0, 64, 127
3, 28440, Note_on_c, 0, 59, 0
3, 28440, Note_on_c, 0, 66, 30
3, 28560, Note_on_c, 0, 66, 0
3, 28680, Note_on_c, 0, 71, 28
3, 28800, Note_on_c, 0, 71, 0
3, 28800, Note_on_c, 0, 64, 36
3, 28809, Control_c, 0, 64, 0
3, 28863, Control_c, 0, 64, 127
3, 28920, Note_on_c, 0, 64, 0
3, 28920, Note_on_c, 0, 67, 29
3, 29040, Note_on_c, 0, 67, 0
3, 29160, Note_on_c, 0, 71, 33
3, 29280, Note_on_c, 0, 71, 0
3, 29280, Note_on_c, 0, 70, 38
3, 29292, Control_c, 0, 64, 0
3, 29383, Control_c, 0, 64, 127
3, 29400, Note_on_c, 0, 70, 0
3, 29400, Note_on_c, 0, 71, 29
3, 29520, Note_on_c, 0, 71, 0
3, 29520, Note_on_c, 0, 72, 42
3, 29640, Note_on_c, 0, 72, 0
3, 29640, Note_on_c, 0, 71, 30
3, 29760, Note_on_c, 0, 71, 0
3, 29760, Note_on_c, 0, 70, 38
3, 29766, Control_c, 0, 64, 0
3, 29829, Control_c, 0, 64, 127
3, 29880, Note_on_c, 0, 70, 0
3, 29880, Note_on_c, 0, 71, 35
3, 30000, Note_on_c, 0, 71, 0
3, 30000, Note_on_c, 0, 72, 43
3, 30120, Note_on_c, 0, 72, 0
3, 30120, Note_on_c, 0, 71, 28
3, 30240, Note_on_c, 0, 71, 0
3, 30240, Note_on_c, 0, 70, 37
3, 30255, Control_c, 0, 64, 0
3, 30315, Control_c, 0, 64, 127
3, 30360, Note_on_c, 0, 70, 0
3, 30360, Note_on_c, 0, 71, 30
3, 30480, Note_on_c, 0, 71, 0
3, 30480, Note_on_c, 0, 72, 37
3, 30600, Note_on_c, 0, 72, 0
3, 30600, Note_on_c, 0, 71, 28
3, 30720, Note_on_c, 0, 71, 0
3, 30720, Note_on_c, 0, 55, 35
3, 30725, Control_c, 0, 64, 0
3, 30812, Control_c, 0, 64, 127
3, 30840, Note_on_c, 0, 55, 0
3, 30840, Note_on_c, 0, 59, 27
3, 30960, Note_on_c, 0, 59, 0
3, 31080, Note_on_c, 0, 59, 27
3, 31200, Note_on_c, 0, 59, 0
3, 31200, Note_on_c, 0, 55, 35
3, 31320, Note_on_c, 0, 55, 0
3, 31320, Note_on_c, 0, 59, 26
3, 31440, Note_on_c, 0, 59, 0
3, 31560, Note_on_c, 0, 62, 27
3, 31680, Note_on_c, 0, 62, 0
3, 31680, Note_on_c, 0, 55, 36
3, 31800, Note_on_c, 0, 55, 0
3, 31800, Note_on_c, 0, 59, 29
3, 31920, Note_on_c, 0, 59, 0
3, 32040, Note_on_c, 0, 62, 26
3, 32160, Note_on_c, 0, 62, 0
3, 32160, Note_on_c, 0, 55, 39
3, 32280, Note_on_c, 0, 55, 0
3, 32280, Note_on_c, 0, 59, 31
3, 32400, Note_on_c, 0, 59, 0
3, 32520, Note_on_c, 0, 62, 29
3, 32640, Note_on_c, 0, 62, 0
3, 32640, Note_on_c, 0, 54, 36
3, 32667, Control_c, 0, 64, 0
3, 32703, Control_c, 0, 64, 127
3, 32760, Note_on_c, 0, 54, 0
3, 32760, Note_on_c, 0, 60, 29
3, 32880, Note_on_c, 0, 60, 0
3, 33000, Note_on_c, 0, 62, 29
3, 33120, Note_on_c, 0, 62, 0
3, 33120, Note_on_c, 0, 54, 37
3, 33240, Note_on_c, 0, 54, 0
3, 33240, Note_on_c, 0, 60, 30
3, 33360, Note_on_c, 0, 60, 0
3, 33480, Note_on_c, 0, 62, 28
3, 33600, Note_on_c, 0, 62, 0
3, 33600, Note_on_c, 0, 54, 37
3, 33720, Note_on_c, 0, 54, 0
3, 33720, Note_on_c, 0, 60, 30
3, 33840, Note_on_c, 0, 60, 0
3, 33960, Note_on_c, 0, 62, 28
3, 34080, Note_on_c, 0, 62, 0
3, 34080, Note_on_c, 0, 54, 37
3, 34200, Note_on_c, 0, 54, 0
3, 34200, Note_on_c, 0, 60, 30
3, 34320, Note_on_c, 0, 60, 0
3, 34440, Note_on_c, 0, 62, 28
3, 34560, Note_on_c, 0, 62, 0
3, 34560, Note_on_c, 0, 55, 35
3, 34565, Control_c, 0, 64, 0
3, 34652, Control_c, 0, 64, 127
3, 34680, Note_on_c, 0, 55, 0
3, 34680, Note_on_c, 0, 59, 27
3, 34800, Note_on_c, 0, 59, 0
3, 34920, Note_on_c, 0, 59, 27
3, 35040, Note_on_c, 0, 59, 0
3, 35040, Note_on_c, 0, 55, 35
3, 35160, Note_on_c, 0, 55, 0
3, 35160, Note_on_c, 0, 59, 26
3, 35280, Note_on_c, 0, 59, 0
3, 35400, Note_on_c, 0, 62, 27
3, 35520, Note_on_c, 0, 62, 0
3, 35520, Note_on_c, 0, 55, 36
3, 35640, Note_on_c, 0, 55, 0
3, 35640, Note_on_c, 0, 59, 29
3, 35760, Note_on_c, 0, 59, 0
3, 35880, Note_on_c, 0, 62, 26
3, 36000, Note_on_c, 0, 62, 0
3, 36000, Note_on_c, 0, 55, 39
3, 36120, Note_on_c, 0, 55, 0
3, 36120, Note_on_c, 0, 59, 35
3, 36240, Note_on_c, 0, 59, 0
3, 36360, Note_on_c, 0, 62, 42
3, 36480, Note_on_c, 0, 62, 0
3, 36480, Note_on_c, 0, 54, 50
3, 36507, Control_c, 0, 64, 0
3, 36543, Control_c, 0, 64, 127
3, 36600, Note_on_c, 0, 54, 0
3, 36600, Note_on_c, 0, 57, 46
3, 36720, Note_on_c, 0, 57, 0
3, 36840, Note_on_c, 0, 62, 47
3, 36960, Note_on_c, 0, 62, 0
3, 36960, Note_on_c, 0, 54, 56
3, 37080, Note_on_c, 0, 54, 0
3, 37080, Note_on_c, 0, 57, 48
3, 37200, Note_on_c, 0, 57, 0
3, 37320, Note_on_c, 0, 62, 37
3, 37440, Note_on_c, 0, 62, 0
3, 37440, Note_on_c, 0, 54, 45
3, 37560, Note_on_c, 0, 54, 0
3, 37560, Note_on_c, 0, 57, 33
3, 37680, Note_on_c, 0, 57, 0
3, 37800, Note_on_c, 0, 62, 28
3, 37920, Note_on_c, 0, 62, 0
3, 37920, Note_on_c, 0, 54, 37
3, 38040, Note_on_c, 0, 54, 0
3, 38040, Note_on_c, 0, 60, 30
3, 38160, Note_on_c, 0, 60, 0
3, 38280, Note_on_c, 0, 62, 28
3, 38400, Note_on_c, 0, 62, 0
3, 38400, Note_on_c, 0, 55, 35
3, 38405, Control_c, 0, 64, 0
3, 38492, Control_c, 0, 64, 127
3, 38520, Note_on_c, 0, 55, 0
3, 38520, Note_on_c, 0, 59, 27
3, 38640, Note_on_c, 0, 59, 0
3, 38760, Note_on_c, 0, 62, 36
3, 38880, Note_on_c, 0, 62, 0
3, 38880, Note_on_c, 0, 55, 46
3, 39000, Note_on_c, 0, 55, 0
3, 39000, Note_on_c, 0, 59, 37
3, 39120, Note_on_c, 0, 59, 0
3, 39240, Note_on_c, 0, 62, 39
3, 39360, Note_on_c, 0, 62, 0
3, 39360, Note_on_c, 0, 56, 48
3, 39368, Control_c, 0, 64, 0
3, 39480, Note_on_c, 0, 56, 0
3, 39480, Note_on_c, 0, 59, 39
3, 39480, Control_c, 0, 64, 127
3, 39600, Note_on_c, 0, 59, 0
3, 39720, Note_on_c, 0, 64, 46
3, 39840, Note_on_c, 0, 64, 0
3, 39840, Note_on_c, 0, 56, 53
3, 39960, Note_on_c, 0, 56, 0
3, 39960, Note_on_c, 0, 59, 45
3, 40080, Note_on_c, 0, 59, 0
3, 40200, Note_on_c, 0, 64, 37
3, 40320, Note_on_c, 0, 64, 0
3, 40320, Note_on_c, 0, 57, 44
3, 40325, Control_c, 0, 64, 0
3, 40412, Control_c, 0, 64, 127
3, 40440, Note_on_c, 0, 57, 0
3, 40440, Note_on_c, 0, 60, 27
3, 40560, Note_on_c, 0, 60, 0
3, 40680, Note_on_c, 0, 64, 39
3, 40800, Note_on_c, 0, 64, 0
3, 40800, Note_on_c, 0, 57, 50
3, 40920, Note_on_c, 0, 57, 0
3, 40920, Note_on_c, 0, 60, 40
3, 41040, Note_on_c, 0, 60, 0
3, 41160, Note_on_c, 0, 64, 47
3, 41280, Note_on_c, 0, 64, 0
3, 41280, Note_on_c, 0, 59, 56
3, 41288, Control_c, 0, 64, 0
3, 41400, Note_on_c, 0, 59, 0
3, 41400, Note_on_c, 0, 62, 49
3, 41400, Control_c, 0, 64, 127
3, 41520, Note_on_c, 0, 62, 0
3, 41640, Note_on_c, 0, 67, 56
3, 41760, Note_on_c, 0, 67, 0
3, 41760, Note_on_c, 0, 59, 62
3, 41880, Note_on_c, 0, 59, 0
3, 41880, Note_on_c, 0, 62, 56
3, 42000, Note_on_c, 0, 62, 0
3, 42120, Note_on_c, 0, 67, 46
3, 42240, Note_on_c, 0, 67, 0
3, 42240, Note_on_c, 0, 60, 56
3, 42245, Control_c, 0, 64, 0
3, 42332, Control_c, 0, 64, 127
3, 42360, Note_on_c, 0, 60, 0
3, 42360, Note_on_c, 0, 64, 47
3, 42480, Note_on_c, 0, 64, 0
3, 42600, Note_on_c, 0, 67, 45
3, 42720, Note_on_c, 0, 67, 0
3, 42720, Note_on_c, 0, 60, 54
3, 42840, Note_on_c, 0, 60, 0
3, 42840, Note_on_c, 0, 64, 45
3, 42960, Note_on_c, 0, 64, 0
3, 43080, Note_on_c, 0, 68, 47
3, 43200, Note_on_c, 0, 68, 0
3, 43200, Note_on_c, 0, 60, 56
3, 43208, Control_c, 0, 64, 0
3, 43320, Note_on_c, 0, 60, 0
3, 43320, Note_on_c, 0, 64, 48
3, 43320, Control_c, 0, 64, 127
3, 43440, Note_on_c, 0, 64, 0
3, 43560, Note_on_c, 0, 69, 50
3, 43680, Note_on_c, 0, 69, 0
3, 43680, Note_on_c, 0, 60, 58
3, 43800, Note_on_c, 0, 60, 0
3, 43800, Note_on_c, 0, 64, 49
3, 43920, Note_on_c, 0, 64, 0
3, 44040, Note_on_c, 0, 70, 40
3, 44160, Note_on_c, 0, 70, 0
3, 44160, Note_on_c, 0, 59, 44
3, 44165, Control_c, 0, 64, 0
3, 44252, Control_c, 0, 64, 127
3, 44280, Note_on_c, 0, 59, 0
3, 44280, Note_on_c, 0, 66, 37
3, 44400, Note_on_c, 0, 66, 0
3, 44520, Note_on_c, 0, 71, 45
3, 44640, Note_on_c, 0, 71, 0
3, 44640, Note_on_c, 0, 47, 62
3, 44760, Note_on_c, 0, 47, 0
3, 44760, Note_on_c, 0, 59, 45
3, 44880, Note_on_c, 0, 59, 0
3, 45000, Note_on_c, 0, 59, 54
3, 45120, Note_on_c, 0, 59, 0
3, 45120, Note_on_c, 0, 43, 69
3, 45128, Control_c, 0, 64, 0
3, 45240, Note_on_c, 0, 43, 0
3, 45240, Note_on_c, 0, 55, 52
3, 45240, Control_c, 0, 64, 127
3, 45360, Note_on_c, 0, 55, 0
3, 45480, Note_on_c, 0, 59, 58
3, 45600, Note_on_c, 0, 59, 0
3, 45600, Note_on_c, 0, 42, 71
3, 45610, Control_c, 0, 64, 0
3, 45713, Control_c, 0, 64, 127
3, 45720, Note_on_c, 0, 42, 0
3, 45720, Note_on_c, 0, 54, 57
3, 45840, Note_on_c, 0, 54, 0
3, 45960, Note_on_c, 0, 59, 50
3, 45985, Note_on_c, 0, 59, 0
3, 46080, Note_on_c, 0, 40, 71
3, 46080, Note_on_c, 0, 52, 71
3, 46080, Control_c, 0, 64, 0
3, 46130, Control_c, 0, 64, 127
3, 46320, Note_on_c, 0, 52, 0
3, 46320, Note_on_c, 0, 40, 0
3, 46320, Note_on_c, 0, 71, 37
3, 46334, Control_c, 0, 64, 0
3, 46391, Control_c, 0, 64, 127
3, 46440, Note_on_c, 0, 71, 0
3, 46440, Note_on_c, 0, 67, 22
3, 46560, Note_on_c, 0, 67, 0
3, 46560, Note_on_c, 0, 64, 28
3, 46680, Note_on_c, 0, 64, 0
3, 46680, Note_on_c, 0, 67, 21
3, 46800, Note_on_c, 0, 67, 0
3, 46800, Note_on_c, 0, 71, 37
3, 46920, Note_on_c, 0, 71, 0
3, 46920, Note_on_c, 0, 67, 22
3, 47040, Note_on_c, 0, 67, 0
3, 47040, Note_on_c, 0, 64, 30
3, 47160, Note_on_c, 0, 64, 0
3, 47160, Note_on_c, 0, 67, 25
3, 47280, Note_on_c, 0, 67, 0
3, 47400, Note_on_c, 0, 71, 23
3, 47520, Note_on_c, 0, 71, 0
3, 47520, Note_on_c, 0, 64, 36
3, 47640, Note_on_c, 0, 64, 0
3, 47640, Note_on_c, 0, 67, 29
3, 47760, Note_on_c, 0, 67, 0
3, 47880, Note_on_c, 0, 71, 28
3, 48000, Note_on_c, 0, 71, 0
3, 48000, Note_on_c, 0, 63, 36
3, 48027, Control_c, 0, 64, 0
3, 48063, Control_c, 0, 64, 127
3, 48120, Note_on_c, 0, 63, 0
3, 48120, Note_on_c, 0, 69, 29
3, 48240, Note_on_c, 0, 69, 0
3, 48360, Note_on_c, 0, 71, 29
3, 48480, Note_on_c, 0, 71, 0
3, 48480, Note_on_c, 0, 63, 37
3, 48600, Note_on_c, 0, 63, 0
3, 48600, Note_on_c, 0, 69, 30
3, 48720, Note_on_c, 0, 69, 0
3, 48840, Note_on_c, 0, 71, 28
3, 48960, Note_on_c, 0, 71, 0
3, 48960, Note_on_c, 0, 63, 37
3, 49080, Note_on_c, 0, 63, 0
3, 49080, Note_on_c, 0, 69, 30
3, 49200, Note_on_c, 0, 69, 0
3, 49320, Note_on_c, 0, 71, 28
3, 49440, Note_on_c, 0, 71, 0
3, 49440, Note_on_c, 0, 63, 37
3, 49560, Note_on_c, 0, 63, 0
3, 49560, Note_on_c, 0, 69, 30
3, 49680, Note_on_c, 0, 69, 0
3, 49800, Note_on_c, 0, 71, 28
3, 49920, Note_on_c, 0, 71, 0
3, 49920, Note_on_c, 0, 64, 36
3, 49932, Control_c, 0, 64, 0
3, 49983, Control_c, 0, 64, 127
3, 50040, Note_on_c, 0, 64, 0
3, 50040, Note_on_c, 0, 67, 29
3, 50160, Note_on_c, 0, 67, 0
3, 50280, Note_on_c, 0, 71, 41
3, 50400, Note_on_c, 0, 71, 0
3, 50400, Note_on_c, 0, 64, 47
3, 50520, Note_on_c, 0, 64, 0
3, 50520, Note_on_c, 0, 67, 39
3, 50640, Note_on_c, 0, 67, 0
3, 50760, Note_on_c, 0, 71, 38
3, 50880, Note_on_c, 0, 71, 0
3, 50880, Note_on_c, 0, 64, 44
3, 51000, Note_on_c, 0, 64, 0
3, 51000, Note_on_c, 0, 67, 35
3, 51120, Note_on_c, 0, 67, 0
3, 51240, Note_on_c, 0, 71, 28
3, 51360, Note_on_c, 0, 71, 0
3, 51360, Note_on_c, 0, 64, 37
3, 51480, Note_on_c, 0, 64, 0
3, 51480, Note_on_c, 0, 67, 30
3, 51600, Note_on_c, 0, 67, 0
3, 51720, Note_on_c, 0, 71, 28
3, 51840, Note_on_c, 0, 71, 0
3, 51840, Note_on_c, 0, 63, 36
3, 51850, Control_c, 0, 64, 0
3, 51903, Control_c, 0, 64, 127
3, 51960, Note_on_c, 0, 63, 0
3, 51960, Note_on_c, 0, 69, 29
3, 52080, Note_on_c, 0, 69, 0
3, 52200, Note_on_c, 0, 71, 36
3, 52320, Note_on_c, 0, 71, 0
3, 52320, Note_on_c, 0, 63, 41
3, 52440, Note_on_c, 0, 63, 0
3, 52440, Note_on_c, 0, 69, 34
3, 52560, Note_on_c, 0, 69, 0
3, 52680, Note_on_c, 0, 71, 34
3, 52800, Note_on_c, 0, 71, 0
3, 52800, Note_on_c, 0, 63, 40
3, 52920, Note_on_c, 0, 63, 0
3, 52920, Note_on_c, 0, 69, 35
3, 53040, Note_on_c, 0, 69, 0
3, 53160, Note_on_c, 0, 71, 28
3, 53280, Note_on_c, 0, 71, 0
3, 53280, Note_on_c, 0, 63, 37
3, 53400, Note_on_c, 0, 63, 0
3, 53400, Note_on_c, 0, 69, 30
3, 53520, Note_on_c, 0, 69, 0
3, 53640, Note_on_c, 0, 71, 28
3, 53760, Note_on_c, 0, 71, 0
3, 53760, Note_on_c, 0, 64, 36
3, 53770, Control_c, 0, 64, 0
3, 53823, Control_c, 0, 64, 127
3, 53880, Note_on_c, 0, 64, 0
3, 53880, Note_on_c, 0, 67, 29
3, 54000, Note_on_c, 0, 67, 0
3, 54120, Note_on_c, 0, 71, 36
3, 54240, Note_on_c, 0, 71, 0
3, 54240, Note_on_c, 0, 64, 41
3, 54360, Note_on_c, 0, 64, 0
3, 54360, Note_on_c, 0, 67, 34
3, 54480, Note_on_c, 0, 67, 0
3, 54600, Note_on_c, 0, 71, 39
3, 54720, Note_on_c, 0, 71, 0
3, 54720, Note_on_c, 0, 62, 47
3, 54733, Control_c, 0, 64, 0
3, 54789, Control_c, 0, 64, 127
3, 54840, Note_on_c, 0, 62, 0
3, 54840, Note_on_c, 0, 65, 40
3, 54960, Note_on_c, 0, 65, 0
3, 55080, Note_on_c, 0, 71, 43
3, 55200, Note_on_c, 0, 71, 0
3, 55200, Note_on_c, 0, 62, 54
3, 55320, Note_on_c, 0, 62, 0
3, 55320, Note_on_c, 0, 65, 48
3, 55440, Note_on_c, 0, 65, 0
3, 55560, Note_on_c, 0, 71, 47
3, 55680, Note_on_c, 0, 71, 0
3, 55680, Note_on_c, 0, 60, 55
3, 55703, Control_c, 0, 64, 0
3, 55760, Control_c, 0, 64, 127
3, 55800, Note_on_c, 0, 60, 0
3, 55800, Note_on_c, 0, 64, 47
3, 55920, Note_on_c, 0, 64, 0
3, 56040, Note_on_c, 0, 69, 36
3, 56160, Note_on_c, 0, 69, 0
3, 56160, Note_on_c, 0, 60, 41
3, 56280, Note_on_c, 0, 60, 0
3, 56280, Note_on_c, 0, 64, 34
3, 56400, Note_on_c, 0, 64, 0
3, 56520, Note_on_c, 0, 69, 34
3, 56640, Note_on_c, 0, 69, 0
3, 56640, Note_on_c, 0, 60, 40
3, 56760, Note_on_c, 0, 60, 0
3, 56760, Note_on_c, 0, 64, 35
3, 56880, Note_on_c, 0, 64, 0
3, 57000, Note_on_c, 0, 69, 28
3, 57120, Note_on_c, 0, 69, 0
3, 57120, Note_on_c, 0, 60, 37
3, 57240, Note_on_c, 0, 60, 0
3, 57240, Note_on_c, 0, 64, 30
3, 57360, Note_on_c, 0, 64, 0
3, 57480, Note_on_c, 0, 69, 28
3, 57600, Note_on_c, 0, 69, 0
3, 57600, Note_on_c, 0, 59, 36
3, 57604, Control_c, 0, 64, 0
3, 57663, Control_c, 0, 64, 127
3, 57720, Note_on_c, 0, 59, 0
3, 57720, Note_on_c, 0, 64, 29
3, 57840, Note_on_c, 0, 64, 0
3, 57960, Note_on_c, 0, 71, 36
3, 58080, Note_on_c, 0, 71, 0
3, 58080, Note_on_c, 0, 59, 41
3, 58089, Control_c, 0, 64, 0
3, 58132, Control_c, 0, 64, 127
3, 58200, Note_on_c, 0, 59, 0
3, 58200, Note_on_c, 0, 69, 34
3, 58320, Note_on_c, 0, 69, 0
3, 58440, Note_on_c, 0, 71, 34
3, 58560, Note_on_c, 0, 71, 0
3, 58560, Note_on_c, 0, 59, 40
3, 58568, Control_c, 0, 64, 0
3, 58629, Control_c, 0, 64, 127
3, 58680, Note_on_c, 0, 59, 0
3, 58680, Note_on_c, 0, 67, 35
3, 58800, Note_on_c, 0, 67, 0
3, 58920, Note_on_c, 0, 71, 28
3, 59040, Note_on_c, 0, 71, 0
3, 59040, Note_on_c, 0, 59, 37
3, 59055, Control_c, 0, 64, 0
3, 59115, Control_c, 0, 64, 127
3, 59160, Note_on_c, 0, 59, 0
3, 59160, Note_on_c, 0, 66, 30
3, 59280, Note_on_c, 0, 66, 0
3, 59400, Note_on_c, 0, 71, 28
3, 59520, Note_on_c, 0, 71, 0
3, 59520, Note_on_c, 0, 64, 36
3, 59529, Control_c, 0, 64, 0
3, 59583, Control_c, 0, 64, 127
3, 59640, Note_on_c, 0, 64, 0
3, 59640, Note_on_c, 0, 67, 29
3, 59760, Note_on_c, 0, 67, 0
3, 59880, Note_on_c, 0, 71, 33
3, 60000, Note_on_c, 0, 71, 0
3, 60000, Note_on_c, 0, 70, 38
3, 60012, Control_c, 0, 64, 0
3, 60103, Control_c, 0, 64, 127
3, 60120, Note_on_c, 0, 70, 0
3, 60120, Note_on_c, 0, 71, 29
3, 60240, Note_on_c, 0, 71, 0
3, 60240, Note_on_c, 0, 72, 42
3, 60360, Note_on_c, 0, 72, 0
3, 60360, Note_on_c, 0, 71, 30
3, 60480, Note_on_c, 0, 71, 0
3, 60480, Note_on_c, 0, 70, 38
3, 60486, Control_c, 0, 64, 0
3, 60549, Control_c, 0, 64, 127
3, 60600, Note_on_c, 0, 70, 0
3, 60600, Note_on_c, 0, 71, 35
3, 60720, Note_on_c, 0, 71, 0
3, 60720, Note_on_c, 0, 72, 44
3, 60840, Note_on_c, 0, 72, 0
3, 60840, Note_on_c, 0, 71, 28
3, 60960, Note_on_c, 0, 71, 0
3, 60960, Note_on_c, 0, 70, 37
3, 60975, Control_c, 0, 64, 0
3, 61035, Control_c, 0, 64, 127
3, 61080, Note_on_c, 0, 70, 0
3, 61080, Note_on_c, 0, 71, 30
3, 61200, Note_on_c, 0, 71, 0
3, 61200, Note_on_c, 0, 72, 39
3, 61320, Note_on_c, 0, 72, 0
3, 61320, Note_on_c, 0, 71, 28
3, 61440, Note_on_c, 0, 71, 0
3, 61440, Note_on_c, 0, 55, 35
3, 61445, Control_c, 0, 64, 0
3, 61532, Control_c, 0, 64, 127
3, 61560, Note_on_c, 0, 55, 0
3, 61560, Note_on_c, 0, 59, 27
3, 61680, Note_on_c, 0, 59, 0
3, 61800, Note_on_c, 0, 59, 27
3, 61920, Note_on_c, 0, 59, 0
3, 61920, Note_on_c, 0, 55, 35
3, 62040, Note_on_c, 0, 55, 0
3, 62040, Note_on_c, 0, 59, 26
3, 62160, Note_on_c, 0, 59, 0
3, 62280, Note_on_c, 0, 62, 27
3, 62400, Note_on_c, 0, 62, 0
3, 62400, Note_on_c, 0, 55, 36
3, 62520, Note_on_c, 0, 55, 0
3, 62520, Note_on_c, 0, 59, 29
3, 62640, Note_on_c, 0, 59, 0
3, 62760, Note_on_c, 0, 62, 26
3, 62880, Note_on_c, 0, 62, 0
3, 62880, Note_on_c, 0, 55, 39
3, 63000, Note_on_c, 0, 55, 0
3, 63000, Note_on_c, 0, 59, 31
3, 63120, Note_on_c, 0, 59, 0
3, 63240, Note_on_c, 0, 62, 38
3, 63360, Note_on_c, 0, 62, 0
3, 63360, Note_on_c, 0, 54, 44
3, 63387, Control_c, 0, 64, 0
3, 63423, Control_c, 0, 64, 127
3, 63480, Note_on_c, 0, 54, 0
3, 63480, Note_on_c, 0, 60, 37
3, 63600, Note_on_c, 0, 60, 0
3, 63720, Note_on_c, 0, 62, 38
3, 63840, Note_on_c, 0, 62, 0
3, 63840, Note_on_c, 0, 54, 43
3, 63960, Note_on_c, 0, 54, 0
3, 63960, Note_on_c, 0, 60, 37
3, 64080, Note_on_c, 0, 60, 0
3, 64200, Note_on_c, 0, 62, 28
3, 64320, Note_on_c, 0, 62, 0
3, 64320, Note_on_c, 0, 54, 37
3, 64440, Note_on_c, 0, 54, 0
3, 64440, Note_on_c, 0, 60, 30
3, 64560, Note_on_c, 0, 60, 0
3, 64680, Note_on_c, 0, 62, 28
3, 64800, Note_on_c, 0, 62, 0
3, 64800, Note_on_c, 0, 54, 37
3, 64920, Note_on_c, 0, 54, 0
3, 64920, Note_on_c, 0, 60, 30
3, 65040, Note_on_c, 0, 60, 0
3, 65160, Note_on_c, 0, 62, 28
3, 65280, Note_on_c, 0, 62, 0
3, 65280, Note_on_c, 0, 55, 35
3, 65285, Control_c, 0, 64, 0
3, 65372, Control_c, 0, 64, 127
3, 65400, Note_on_c, 0, 55, 0
3, 65400, Note_on_c, 0, 59, 27
3, 65520, Note_on_c, 0, 59, 0
3, 65640, Note_on_c, 0, 59, 27
3, 65760, Note_on_c, 0, 59, 0
3, 65760, Note_on_c, 0, 55, 35
3, 65880, Note_on_c, 0, 55, 0
3, 65880, Note_on_c, 0, 59, 26
3, 66000, Note_on_c, 0, 59, 0
3, 66120, Note_on_c, 0, 62, 27
3, 66240, Note_on_c, 0, 62, 0
3, 66240, Note_on_c, 0, 55, 36
3, 66360, Note_on_c, 0, 55, 0
3, 66360, Note_on_c, 0, 59, 29
3, 66480, Note_on_c, 0, 59, 0
3, 66600, Note_on_c, 0, 62, 26
3, 66720, Note_on_c, 0, 62, 0
3, 66720, Note_on_c, 0, 55, 39
3, 66840, Note_on_c, 0, 55, 0
3, 66840, Note_on_c, 0, 59, 35
3, 66960, Note_on_c, 0, 59, 0
3, 67080, Note_on_c, 0, 62, 42
3, 67200, Note_on_c, 0, 62, 0
3, 67200, Note_on_c, 0, 54, 50
3, 67227, Control_c, 0, 64, 0
3, 67263, Control_c, 0, 64, 127
3, 67320, Note_on_c, 0, 54, 0
3, 67320, Note_on_c, 0, 57, 43
3, 67440, Note_on_c, 0, 57, 0
3, 67560, Note_on_c, 0, 62, 45
3, 67680, Note_on_c, 0, 62, 0
3, 67680, Note_on_c, 0, 54, 54
3, 67800, Note_on_c, 0, 54, 0
3, 67800, Note_on_c, 0, 57, 48
3, 67920, Note_on_c, 0, 57, 0
3, 68040, Note_on_c, 0, 62, 37
3, 68160, Note_on_c, 0, 62, 0
3, 68160, Note_on_c, 0, 54, 45
3, 68280, Note_on_c, 0, 54, 0
3, 68280, Note_on_c, 0, 57, 33
3, 68400, Note_on_c, 0, 57, 0
3, 68520, Note_on_c, 0, 62, 28
3, 68640, Note_on_c, 0, 62, 0
3, 68640, Note_on_c, 0, 54, 37
3, 68760, Note_on_c, 0, 54, 0
3, 68760, Note_on_c, 0, 60, 30
3, 68880, Note_on_c, 0, 60, 0
3, 69000, Note_on_c, 0, 62, 28
3, 69120, Note_on_c, 0, 62, 0
3, 69120, Note_on_c, 0, 55, 35
3, 69125, Control_c, 0, 64, 0
3, 69212, Control_c, 0, 64, 127
3, 69240, Note_on_c, 0, 55, 0
3, 69240, Note_on_c, 0, 59, 27
3, 69360, Note_on_c, 0, 59, 0
3, 69480, Note_on_c, 0, 62, 36
3, 69600, Note_on_c, 0, 62, 0
3, 69600, Note_on_c, 0, 55, 46
3, 69720, Note_on_c, 0, 55, 0
3, 69720, Note_on_c, 0, 59, 37
3, 69840, Note_on_c, 0, 59, 0
3, 69960, Note_on_c, 0, 62, 39
3, 70080, Note_on_c, 0, 62, 0
3, 70080, Note_on_c, 0, 56, 48
3, 70088, Control_c, 0, 64, 0
3, 70200, Note_on_c, 0, 56, 0
3, 70200, Note_on_c, 0, 59, 39
3, 70200, Control_c, 0, 64, 127
3, 70320, Note_on_c, 0, 59, 0
3, 70440, Note_on_c, 0, 64, 49
3, 70560, Note_on_c, 0, 64, 0
3, 70560, Note_on_c, 0, 56, 56
3, 70680, Note_on_c, 0, 56, 0
3, 70680, Note_on_c, 0, 59, 50
3, 70800, Note_on_c, 0, 59, 0
3, 70920, Note_on_c, 0, 64, 37
3, 71040, Note_on_c, 0, 64, 0
3, 71040, Note_on_c, 0, 57, 44
3, 71045, Control_c, 0, 64, 0
3, 71132, Control_c, 0, 64, 127
3, 71160, Note_on_c, 0, 57, 0
3, 71160, Note_on_c, 0, 60, 27
3, 71280, Note_on_c, 0, 60, 0
3, 71400, Note_on_c, 0, 64, 39
3, 71520, Note_on_c, 0, 64, 0
3, 71520, Note_on_c, 0, 57, 50
3, 71640, Note_on_c, 0, 57, 0
3, 71640, Note_on_c, 0, 60, 40
3, 71760, Note_on_c, 0, 60, 0
3, 71880, Note_on_c, 0, 64, 42
3, 72000, Note_on_c, 0, 64, 0
3, 72000, Note_on_c, 0, 59, 52
3, 72008, Control_c, 0, 64, 0
3, 72120, Note_on_c, 0, 59, 0
3, 72120, Note_on_c, 0, 62, 42
3, 72120, Control_c, 0, 64, 127
3, 72240, Note_on_c, 0, 62, 0
3, 72360, Note_on_c, 0, 67, 50
3, 72480, Note_on_c, 0, 67, 0
3, 72480, Note_on_c, 0, 59, 58
3, 72600, Note_on_c, 0, 59, 0
3, 72600, Note_on_c, 0, 62, 49
3, 72720, Note_on_c, 0, 62, 0
3, 72840, Note_on_c, 0, 67, 40
3, 72960, Note_on_c, 0, 67, 0
3, 72960, Note_on_c, 0, 60, 44
3, 72965, Control_c, 0, 64, 0
3, 73052, Control_c, 0, 64, 127
3, 73080, Note_on_c, 0, 60, 0
3, 73080, Note_on_c, 0, 64, 37
3, 73200, Note_on_c, 0, 64, 0
3, 73320, Note_on_c, 0, 67, 45
3, 73440, Note_on_c, 0, 67, 0
3, 73440, Note_on_c, 0, 60, 54
3, 73560, Note_on_c, 0, 60, 0
3, 73560, Note_on_c, 0, 64, 45
3, 73680, Note_on_c, 0, 64, 0
3, 73800, Note_on_c, 0, 68, 47
3, 73920, Note_on_c, 0, 68, 0
3, 73920, Note_on_c, 0, 60, 56
3, 73928, Control_c, 0, 64, 0
3, 74040, Note_on_c, 0, 60, 0
3, 74040, Note_on_c, 0, 64, 48
3, 74040, Control_c, 0, 64, 127
3, 74160, Note_on_c, 0, 64, 0
3, 74280, Note_on_c, 0, 69, 50
3, 74400, Note_on_c, 0, 69, 0
3, 74400, Note_on_c, 0, 60, 58
3, 74520, Note_on_c, 0, 60, 0
3, 74520, Note_on_c, 0, 64, 49
3, 74640, Note_on_c, 0, 64, 0
3, 74760, Note_on_c, 0, 70, 45
3, 74880, Note_on_c, 0, 70, 0
3, 74880, Note_on_c, 0, 59, 53
3, 74885, Control_c, 0, 64, 0
3, 74972, Control_c, 0, 64, 127
3, 75000, Note_on_c, 0, 59, 0
3, 75000, Note_on_c, 0, 66, 46
3, 75120, Note_on_c, 0, 66, 0
3, 75240, Note_on_c, 0, 71, 45
3, 75360, Note_on_c, 0, 71, 0
3, 75360, Note_on_c, 0, 47, 62
3, 75480, Note_on_c, 0, 47, 0
3, 75480, Note_on_c, 0, 59, 45
3, 75600, Note_on_c, 0, 59, 0
3, 75720, Note_on_c, 0, 59, 54
3, 75840, Note_on_c, 0, 59, 0
3, 75840, Note_on_c, 0, 43, 69
3, 75848, Control_c, 0, 64, 0
3, 75960, Note_on_c, 0, 43, 0
3, 75960, Note_on_c, 0, 55, 52
3, 75960, Control_c, 0, 64, 127
3, 76080, Note_on_c, 0, 55, 0
3, 76200, Note_on_c, 0, 59, 58
3, 76320, Note_on_c, 0, 59, 0
3, 76320, Note_on_c, 0, 42, 71
3, 76330, Control_c, 0, 64, 0
3, 76433, Control_c, 0, 64, 127
3, 76440, Note_on_c, 0, 42, 0
3, 76440, Note_on_c, 0, 54, 57
3, 76560, Note_on_c, 0, 54, 0
3, 76680, Note_on_c, 0, 59, 50
3, 76705, Note_on_c, 0, 59, 0
3, 76800, Note_on_c, 0, 40, 71
3, 76800, Note_on_c, 0, 52, 71
3, 76800, Control_c, 0, 64, 0
3, 76850, Control_c, 0, 64, 127
3, 77040, Note_on_c, 0, 52, 0
3, 77040, Note_on_c, 0, 40, 0
3, 77040, Note_on_c, 0, 71, 37
3, 77046, Control_c, 0, 64, 0
3, 77107, Control_c, 0, 64, 127
3, 77160, Note_on_c, 0, 71, 0
3, 77160, Note_on_c, 0, 67, 22
3, 77280, Note_on_c, 0, 67, 0
3, 77280, Note_on_c, 0, 64, 28
3, 77400, Note_on_c, 0, 64, 0
3, 77400, Note_on_c, 0, 67, 21
3, 77520, Note_on_c, 0, 67, 0
3, 77520, Note_on_c, 0, 71, 37
3, 77640, Note_on_c, 0, 71, 0
3, 77640, Note_on_c, 0, 67, 22
3, 77760, Note_on_c, 0, 67, 0
3, 77760, Note_on_c, 0, 64, 30
3, 77880, Note_on_c, 0, 64, 0
3, 77880, Note_on_c, 0, 67, 25
3, 78000, Note_on_c, 0, 67, 0
3, 78120, Note_on_c, 0, 71, 23
3, 78240, Note_on_c, 0, 71, 0
3, 78240, Note_on_c, 0, 64, 36
3, 78360, Note_on_c, 0, 64, 0
3, 78360, Note_on_c, 0, 67, 29
3, 78480, Note_on_c, 0, 67, 0
3, 78600, Note_on_c, 0, 71, 28
3, 78720, Note_on_c, 0, 71, 0
3, 78720, Note_on_c, 0, 63, 36
3, 78747, Control_c, 0, 64, 0
3, 78783, Control_c, 0, 64, 127
3, 78840, Note_on_c, 0, 63, 0
3, 78840, Note_on_c, 0, 69, 29
3, 78960, Note_on_c, 0, 69, 0
3, 79080, Note_on_c, 0, 71, 29
3, 79200, Note_on_c, 0, 71, 0
3, 79200, Note_on_c, 0, 63, 37
3, 79320, Note_on_c, 0, 63, 0
3, 79320, Note_on_c, 0, 69, 30
3, 79440, Note_on_c, 0, 69, 0
3, 79560, Note_on_c, 0, 71, 28
3, 79680, Note_on_c, 0, 71, 0
3, 79680, Note_on_c, 0, 63, 37
3, 79800, Note_on_c, 0, 63, 0
3, 79800, Note_on_c, 0, 69, 30
3, 79920, Note_on_c, 0, 69, 0
3, 80040, Note_on_c, 0, 71, 28
3, 80160, Note_on_c, 0, 71, 0
3, 80160, Note_on_c, 0, 63, 37
3, 80280, Note_on_c, 0, 63, 0
3, 80280, Note_on_c, 0, 69, 30
3, 80400, Note_on_c, 0, 69, 0
3, 80520, Note_on_c, 0, 71, 28
3, 80640, Note_on_c, 0, 71, 0
3, 80640, Note_on_c, 0, 64, 36
3, 80652, Control_c, 0, 64, 0
3, 80703, Control_c, 0, 64, 127
3, 80760, Note_on_c, 0, 64, 0
3, 80760, Note_on_c, 0, 67, 29
3, 80880, Note_on_c, 0, 67, 0
3, 81000, Note_on_c, 0, 71, 38
3, 81120, Note_on_c, 0, 71, 0
3, 81120, Note_on_c, 0, 64, 45
3, 81240, Note_on_c, 0, 64, 0
3, 81240, Note_on_c, 0, 67, 39
3, 81360, Note_on_c, 0, 67, 0
3, 81480, Note_on_c, 0, 71, 35
3, 81600, Note_on_c, 0, 71, 0
3, 81600, Note_on_c, 0, 64, 43
3, 81720, Note_on_c, 0, 64, 0
3, 81720, Note_on_c, 0, 67, 35
3, 81840, Note_on_c, 0, 67, 0
3, 81960, Note_on_c, 0, 71, 28
3, 82080, Note_on_c, 0, 71, 0
3, 82080, Note_on_c, 0, 64, 37
3, 82200, Note_on_c, 0, 64, 0
3, 82200, Note_on_c, 0, 67, 30
3, 82320, Note_on_c, 0, 67, 0
3, 82440, Note_on_c, 0, 71, 28
3, 82560, Note_on_c, 0, 71, 0
3, 82560, Note_on_c, 0, 63, 36
3, 82570, Control_c, 0, 64, 0
3, 82623, Control_c, 0, 64, 127
3, 82680, Note_on_c, 0, 63, 0
3, 82680, Note_on_c, 0, 69, 29
3, 82800, Note_on_c, 0, 69, 0
3, 82920, Note_on_c, 0, 71, 36
3, 83040, Note_on_c, 0, 71, 0
3, 83040, Note_on_c, 0, 63, 41
3, 83160, Note_on_c, 0, 63, 0
3, 83160, Note_on_c, 0, 69, 34
3, 83280, Note_on_c, 0, 69, 0
3, 83400, Note_on_c, 0, 71, 34
3, 83520, Note_on_c, 0, 71, 0
3, 83520, Note_on_c, 0, 63, 40
3, 83640, Note_on_c, 0, 63, 0
3, 83640, Note_on_c, 0, 69, 35
3, 83760, Note_on_c, 0, 69, 0
3, 83880, Note_on_c, 0, 71, 28
3, 84000, Note_on_c, 0, 71, 0
3, 84000, Note_on_c, 0, 63, 37
3, 84120, Note_on_c, 0, 63, 0
3, 84120, Note_on_c, 0, 69, 30
3, 84240, Note_on_c, 0, 69, 0
3, 84360, Note_on_c, 0, 71, 28
3, 84480, Note_on_c, 0, 71, 0
3, 84480, Note_on_c, 0, 64, 36
3, 84490, Control_c, 0, 64, 0
3, 84543, Control_c, 0, 64, 127
3, 84600, Note_on_c, 0, 64, 0
3, 84600, Note_on_c, 0, 67, 29
3, 84720, Note_on_c, 0, 67, 0
3, 84840, Note_on_c, 0, 71, 36
3, 84960, Note_on_c, 0, 71, 0
3, 84960, Note_on_c, 0, 64, 41
3, 85080, Note_on_c, 0, 64, 0
3, 85080, Note_on_c, 0, 67, 34
3, 85200, Note_on_c, 0, 67, 0
3, 85320, Note_on_c, 0, 71, 39
3, 85440, Note_on_c, 0, 71, 0
3, 85440, Note_on_c, 0, 62, 47
3, 85453, Control_c, 0, 64, 0
3, 85509, Control_c, 0, 64, 127
3, 85560, Note_on_c, 0, 62, 0
3, 85560, Note_on_c, 0, 65, 40
3, 85680, Note_on_c, 0, 65, 0
3, 85800, Note_on_c, 0, 71, 45
3, 85920, Note_on_c, 0, 71, 0
3, 85920, Note_on_c, 0, 62, 54
3, 86040, Note_on_c, 0, 62, 0
3, 86040, Note_on_c, 0, 65, 47
3, 86160, Note_on_c, 0, 65, 0
3, 86280, Note_on_c, 0, 71, 47
3, 86400, Note_on_c, 0, 71, 0
3, 86400, Note_on_c, 0, 60, 54
3, 86423, Control_c, 0, 64, 0
3, 86480, Control_c, 0, 64, 127
3, 86520, Note_on_c, 0, 60, 0
3, 86520, Note_on_c, 0, 64, 46
3, 86640, Note_on_c, 0, 64, 0
3, 86760, Note_on_c, 0, 69, 36
3, 86880, Note_on_c, 0, 69, 0
3, 86880, Note_on_c, 0, 60, 41
3, 87000, Note_on_c, 0, 60, 0
3, 87000, Note_on_c, 0, 64, 34
3, 87120, Note_on_c, 0, 64, 0
3, 87240, Note_on_c, 0, 69, 34
3, 87360, Note_on_c, 0, 69, 0
3, 87360, Note_on_c, 0, 60, 40
3, 87480, Note_on_c, 0, 60, 0
3, 87480, Note_on_c, 0, 64, 35
3, 87600, Note_on_c, 0, 64, 0
3, 87720, Note_on_c, 0, 69, 28
3, 87840, Note_on_c, 0, 69, 0
3, 87840, Note_on_c, 0, 60, 37
3, 87960, Note_on_c, 0, 60, 0
3, 87960, Note_on_c, 0, 64, 30
3, 88080, Note_on_c, 0, 64, 0
3, 88200, Note_on_c, 0, 69, 28
3, 88320, Note_on_c, 0, 69, 0
3, 88320, Note_on_c, 0, 59, 36
3, 88324, Control_c, 0, 64, 0
3, 88383, Control_c, 0, 64, 127
3, 88440, Note_on_c, 0, 59, 0
3, 88440, Note_on_c, 0, 64, 29
3, 88560, Note_on_c, 0, 64, 0
3, 88680, Note_on_c, 0, 71, 41
3, 88800, Note_on_c, 0, 71, 0
3, 88800, Note_on_c, 0, 59, 47
3, 88809, Control_c, 0, 64, 0
3, 88852, Control_c, 0, 64, 127
3, 88920, Note_on_c, 0, 59, 0
3, 88920, Note_on_c, 0, 69, 41
3, 89040, Note_on_c, 0, 69, 0
3, 89160, Note_on_c, 0, 71, 34
3, 89280, Note_on_c, 0, 71, 0
3, 89280, Note_on_c, 0, 59, 40
3, 89288, Control_c, 0, 64, 0
3, 89349, Control_c, 0, 64, 127
3, 89400, Note_on_c, 0, 59, 0
3, 89400, Note_on_c, 0, 67, 35
3, 89520, Note_on_c, 0, 67, 0
3, 89640, Note_on_c, 0, 71, 28
3, 89760, Note_on_c, 0, 71, 0
3, 89760, Note_on_c, 0, 59, 37
3, 89775, Control_c, 0, 64, 0
3, 89835, Control_c, 0, 64, 127
3, 89880, Note_on_c, 0, 59, 0
3, 89880, Note_on_c, 0, 66, 30
3, 90000, Note_on_c, 0, 66, 0
3, 90120, Note_on_c, 0, 71, 28
3, 90240, Note_on_c, 0, 71, 0
3, 90240, Note_on_c, 0, 64, 36
3, 90249, Control_c, 0, 64, 0
3, 90303, Control_c, 0, 64, 127
3, 90360, Note_on_c, 0, 64, 0
3, 90360, Note_on_c, 0, 67, 29
3, 90480, Note_on_c, 0, 67, 0
3, 90600, Note_on_c, 0, 71, 33
3, 90720, Note_on_c, 0, 71, 0
3, 90720, Note_on_c, 0, 64, 36
3, 90840, Note_on_c, 0, 64, 0
3, 90840, Note_on_c, 0, 67, 29
3, 90960, Note_on_c, 0, 67, 0
3, 91080, Note_on_c, 0, 71, 40
3, 91200, Note_on_c, 0, 71, 0
3, 91200, Note_on_c, 0, 64, 45
3, 91206, Control_c, 0, 64, 0
3, 91269, Control_c, 0, 64, 127
3, 91320, Note_on_c, 0, 64, 0
3, 91320, Note_on_c, 0, 69, 41
3, 91440, Note_on_c, 0, 69, 0
3, 91560, Note_on_c, 0, 72, 47
3, 91680, Note_on_c, 0, 72, 0
3, 91680, Note_on_c, 0, 64, 51
3, 91695, Control_c, 0, 64, 0
3, 91755, Control_c, 0, 64, 127
3, 91800, Note_on_c, 0, 64, 0
3, 91800, Note_on_c, 0, 66, 45
3, 91920, Note_on_c, 0, 66, 0
3, 92040, Note_on_c, 0, 69, 33
3, 92160, Note_on_c, 0, 69, 0
3, 92160, Note_on_c, 0, 64, 36
3, 92169, Control_c, 0, 64, 0
3, 92223, Control_c, 0, 64, 127
3, 92280, Note_on_c, 0, 64, 0
3, 92280, Note_on_c, 0, 67, 29
3, 92400, Note_on_c, 0, 67, 0
3, 92520, Note_on_c, 0, 71, 34
3, 92640, Note_on_c, 0, 71, 0
3, 92640, Note_on_c, 0, 64, 40
3, 92760, Note_on_c, 0, 64, 0
3, 92760, Note_on_c, 0, 67, 33
3, 92880, Note_on_c, 0, 67, 0
3, 93000, Note_on_c, 0, 71, 40
3, 93120, Note_on_c, 0, 71, 0
3, 93120, Note_on_c, 0, 64, 48
3, 93126, Control_c, 0, 64, 0
3, 93189, Control_c, 0, 64, 127
3, 93240, Note_on_c, 0, 64, 0
3, 93240, Note_on_c, 0, 69, 43
3, 93360, Note_on_c, 0, 69, 0
3, 93480, Note_on_c, 0, 72, 43
3, 93600, Note_on_c, 0, 72, 0
3, 93600, Note_on_c, 0, 64, 55
3, 93615, Control_c, 0, 64, 0
3, 93675, Control_c, 0, 64, 127
3, 93720, Note_on_c, 0, 64, 0
3, 93720, Note_on_c, 0, 66, 47
3, 93840, Note_on_c, 0, 66, 0
3, 93960, Note_on_c, 0, 69, 41
3, 94080, Note_on_c, 0, 69, 0
3, 94080, Note_on_c, 0, 64, 45
3, 94089, Control_c, 0, 64, 0
3, 94143, Control_c, 0, 64, 127
3, 94200, Note_on_c, 0, 64, 0
3, 94200, Note_on_c, 0, 67, 36
3, 94320, Note_on_c, 0, 67, 0
3, 94440, Note_on_c, 0, 71, 41
3, 94560, Note_on_c, 0, 71, 0
3, 94560, Note_on_c, 0, 64, 45
3, 94680, Note_on_c, 0, 64, 0
3, 94680, Note_on_c, 0, 67, 36
3, 94800, Note_on_c, 0, 67, 0
3, 94920, Note_on_c, 0, 67, 44
3, 95040, Note_on_c, 0, 67, 0
3, 95040, Note_on_c, 0, 59, 51
3, 95160, Note_on_c, 0, 59, 0
3, 95160, Note_on_c, 0, 64, 42
3, 95280, Note_on_c, 0, 64, 0
3, 95400, Note_on_c, 0, 64, 46
3, 95520, Note_on_c, 0, 64, 0
3, 95520, Note_on_c, 0, 55, 54
3, 95640, Note_on_c, 0, 55, 0
3, 95640, Note_on_c, 0, 59, 45
3, 95760, Note_on_c, 0, 59, 0
3, 95880, Note_on_c, 0, 59, 49
3, 96000, Note_on_c, 0, 59, 0
3, 96000, Note_on_c, 0, 52, 54
3, 96120, Note_on_c, 0, 52, 0
3, 96120, Note_on_c, 0, 55, 47
3, 96240, Note_on_c, 0, 55, 0
3, 96360, Note_on_c, 0, 55, 53
3, 96480, Note_on_c, 0, 55, 0
3, 96480, Note_on_c, 0, 52, 59
3, 96600, Note_on_c, 0, 52, 0
3, 96600, Note_on_c, 0, 55, 47
3, 96720, Note_on_c, 0, 55, 0
3, 96840, Note_on_c, 0, 55, 53
3, 96960, Note_on_c, 0, 55, 0
3, 96960, Note_on_c, 0, 47, 59
3, 97080, Note_on_c, 0, 47, 0
3, 97080, Note_on_c, 0, 52, 47
3, 97200, Note_on_c, 0, 52, 0
3, 97320, Note_on_c, 0, 52, 53
3, 97440, Note_on_c, 0, 52, 0
3, 97440, Note_on_c, 0, 43, 59
3, 97560, Note_on_c, 0, 43, 0
3, 97560, Note_on_c, 0, 47, 56
3, 97680, Note_on_c, 0, 47, 0
3, 97800, Note_on_c, 0, 47, 49
3, 97920, Note_on_c, 0, 47, 0
3, 97920, Note_on_c, 0, 40, 74
3, 98040, Note_on_c, 0, 43, 33
3, 98160, Note_on_c, 0, 43, 0
3, 98160, Note_on_c, 0, 47, 54
3, 98280, Note_on_c, 0, 47, 0
3, 98280, Note_on_c, 0, 43, 34
3, 98400, Note_on_c, 0, 43, 0
3, 98400, Note_on_c, 0, 40, 0
3, 98400, Note_on_c, 0, 40, 67
3, 98520, Note_on_c, 0, 43, 33
3, 98640, Note_on_c, 0, 43, 0
3, 98640, Note_on_c, 0, 47, 51
3, 98760, Note_on_c, 0, 47, 0
3, 98760, Note_on_c, 0, 43, 37
3, 98880, Note_on_c, 0, 43, 0
3, 98880, Note_on_c, 0, 40, 0
3, 98880, Note_on_c, 0, 40, 66
3, 99000, Note_on_c, 0, 43, 33
3, 99120, Note_on_c, 0, 43, 0
3, 99120, Note_on_c, 0, 47, 56
3, 99240, Note_on_c, 0, 47, 0
3, 99240, Note_on_c, 0, 43, 38
3, 99360, Note_on_c, 0, 43, 0
3, 99360, Note_on_c, 0, 40, 0
3, 99360, Note_on_c, 0, 40, 70
3, 99480, Note_on_c, 0, 43, 33
3, 99600, Note_on_c, 0, 43, 0
3, 99600, Note_on_c, 0, 47, 57
3, 99720, Note_on_c, 0, 47, 0
3, 99720, Note_on_c, 0, 43, 38
3, 99840, Note_on_c, 0, 43, 0
3, 99840, Note_on_c, 0, 40, 0
3, 99840, Note_on_c, 0, 40, 83
3, 100320, Note_on_c, 0, 40, 0
3, 100320, Control_c, 0, 64, 0
3, 100800, Note_on_c, 0, 64, 82
3, 100800, Note_on_c, 0, 59, 65
3, 100800, Note_on_c, 0, 52, 65
3, 100987, Control_c, 0, 64, 127
3, 101040, Note_on_c, 0, 52, 0
3, 101040, Note_on_c, 0, 59, 0
3, 101040, Note_on_c, 0, 64, 0
3, 101760, Note_on_c, 0, 40, 88
3, 101760, Note_on_c, 0, 28, 70
3, 102534, Control_c, 0, 64, 0
3, 102720, Note_on_c, 0, 28, 0
3, 102720, Note_on_c, 0, 40, 0
3, 102720, End_track
4, 0, Start_track
4, 0, Title_t, "Buegmueller: Etueden Op. 109 - Agitato"
4, 0, End_track
5, 0, Start_track
5, 0, Title_t, "Copyright © 2012 by Bernd Krüger"
5, 0, End_track
6, 0, Start_track
6, 0, Title_t, "http://piano-midi.de"
6, 0, End_track
7, 0, Start_track
7, 0, Title_t, "Edition: 2012-03-22"
7, 0, End_track
0, 0, End_of_file
