0, 0, Header, 1, 7, 480
1, 0, Start_track
1, 0, Title_t, "Etüde Opus 10 No. 5"
1, 0, Copyright_t, "Copyright © 1999 von Bernd Krüger. "
1, 0, Text_t, "Frederic Chopin"
1, 0, Text_t, "Allegro"
1, 0, Text_t, "Dauer: 1:50 Minuten\012"
1, 0, Text_t, "Fertiggestellt am 24.4.99\012"
1, 0, Text_t, "Normierung: 23.12.2002\012"
1, 0, Text_t, "Update am 12.6.2006\012"
1, 0, Time_signature, 4, 2, 24, 8
1, 0, Key_signature, 0, "major"
1, 0, Tempo, 344828
1, 0, Marker_t, "Allegro"
1, 2880, Tempo, 360360
1, 3720, Tempo, 431655
1, 3840, Tempo, 348837
1, 4800, Tempo, 358209
1, 5640, Tempo, 382166
1, 5760, Tempo, 348837
1, 7560, Tempo, 436364
1, 7680, Tempo, 353982
1, 8640, Tempo, 369231
1, 9120, Tempo, 377358
1, 9600, Tempo, 360360
1, 11400, Tempo, 392157
1, 11520, Tempo, 347826
1, 15240, Tempo, 410959
1, 15360, Tempo, 344828
1, 18240, Tempo, 349854
1, 19080, Tempo, 382166
1, 19200, Tempo, 346821
1, 21120, Tempo, 349854
1, 22920, Tempo, 371517
1, 23040, Tempo, 348837
1, 24960, Tempo, 351906
1, 26760, Tempo, 388350
1, 26880, Tempo, 345821
1, 30600, Tempo, 396040
1, 30720, Tempo, 344828
1, 32520, Tempo, 368098
1, 32640, Tempo, 349854
1, 33600, Tempo, 357143
1, 34440, Tempo, 379747
1, 34560, Tempo, 344828
1, 36480, Tempo, 348837
1, 41280, Tempo, 355030
1, 42120, Tempo, 366972
1, 42240, Tempo, 349854
1, 45960, Tempo, 365854
1, 46080, Tempo, 344828
1, 48000, Tempo, 346821
1, 48960, Tempo, 348837
1, 49920, Tempo, 344828
1, 53640, Tempo, 359281
1, 53760, Tempo, 344828
1, 55560, Tempo, 373832
1, 55680, Tempo, 346821
1, 60480, Tempo, 349854
1, 65280, Tempo, 344828
1, 69000, Tempo, 397351
1, 69120, Tempo, 347826
1, 71040, Tempo, 349854
1, 72840, Tempo, 372671
1, 72960, Tempo, 346821
1, 74880, Tempo, 348837
1, 78720, Tempo, 345821
1, 79680, Tempo, 349854
1, 80520, Tempo, 370370
1, 80640, Tempo, 345821
1, 81600, Tempo, 349854
1, 82440, Tempo, 365854
1, 82560, Tempo, 345821
1, 83520, Tempo, 349854
1, 84480, Tempo, 344828
1, 85920, Tempo, 360360
1, 86400, Tempo, 344828
1, 87840, Tempo, 363636
1, 88320, Tempo, 344828
1, 90240, Tempo, 347826
1, 91680, Tempo, 360360
1, 92160, Tempo, 344828
1, 95040, Tempo, 360360
1, 95880, Tempo, 431655
1, 96000, Tempo, 348837
1, 96960, Tempo, 358209
1, 97800, Tempo, 382166
1, 97920, Tempo, 348837
1, 99720, Tempo, 436364
1, 99840, Tempo, 353982
1, 100800, Tempo, 369231
1, 101280, Tempo, 377358
1, 101760, Tempo, 360360
1, 103560, Tempo, 392157
1, 103680, Tempo, 347826
1, 107400, Tempo, 410959
1, 107520, Tempo, 344828
1, 110400, Tempo, 349854
1, 111240, Tempo, 382166
1, 111360, Tempo, 346821
1, 113280, Tempo, 349854
1, 114720, Tempo, 357143
1, 115080, Tempo, 371517
1, 115200, Tempo, 348837
1, 117120, Tempo, 351906
1, 118920, Tempo, 388350
1, 119040, Tempo, 344828
1, 120000, Tempo, 347826
1, 120840, Tempo, 369231
1, 120960, Tempo, 344828
1, 121920, Tempo, 348837
1, 122760, Tempo, 364742
1, 122880, Tempo, 344828
1, 124800, Tempo, 346821
1, 126600, Tempo, 365854
1, 126720, Tempo, 344828
1, 130440, Tempo, 359281
1, 130560, Tempo, 344828
1, 132480, Tempo, 349854
1, 134280, Tempo, 366972
1, 134400, Tempo, 344828
1, 137280, Tempo, 348837
1, 138120, Tempo, 361446
1, 138240, Tempo, 344828
1, 140040, Tempo, 361446
1, 140160, Tempo, 344828
1, 141120, Tempo, 347826
1, 142080, Tempo, 344828
1, 144000, Tempo, 344828
1, 144480, Tempo, 345821
1, 144920, Tempo, 346821
1, 145360, Tempo, 347826
1, 145400, Tempo, 363636
1, 145920, Tempo, 346821
1, 146640, Tempo, 345821
1, 147360, Tempo, 344828
1, 147600, Tempo, 363636
1, 147840, Tempo, 347826
1, 148080, Tempo, 348837
1, 148320, Tempo, 349854
1, 148560, Tempo, 350877
1, 148800, Tempo, 351906
1, 149040, Tempo, 352941
1, 149280, Tempo, 353982
1, 149520, Tempo, 355030
1, 149640, Tempo, 375000
1, 149760, Tempo, 356083
1, 151680, Marker_t, "Fine"
1, 151680, End_track
2, 0, Start_track
2, 0, Title_t, "Piano right"
2, 0, Program_c, 0, 0
2, 0, Control_c, 0, 7, 100
2, 0, Control_c, 0, 10, 64
2, 0, Control_c, 0, 91, 127
2, 0, Text_t, "bdca426d104a26ac9dcb070447587523"
2, 480, Note_on_c, 0, 64, 90
2, 600, Note_on_c, 0, 64, 0
2, 600, Note_on_c, 0, 60, 77
2, 720, Note_on_c, 0, 60, 0
2, 720, Note_on_c, 0, 67, 80
2, 840, Note_on_c, 0, 67, 0
2, 840, Note_on_c, 0, 72, 78
2, 960, Note_on_c, 0, 72, 0
2, 960, Note_on_c, 0, 76, 93
2, 1080, Note_on_c, 0, 76, 0
2, 1080, Note_on_c, 0, 72, 79
2, 1200, Note_on_c, 0, 72, 0
2, 1200, Note_on_c, 0, 79, 82
2, 1320, Note_on_c, 0, 79, 0
2, 1320, Note_on_c, 0, 84, 80
2, 1440, Note_on_c, 0, 84, 0
2, 1440, Note_on_c, 0, 88, 93
2, 1560, Note_on_c, 0, 88, 0
2, 1560, Note_on_c, 0, 84, 80
2, 1680, Note_on_c, 0, 84, 0
2, 1680, Note_on_c, 0, 91, 83
2, 1800, Note_on_c, 0, 91, 0
2, 1800, Note_on_c, 0, 96, 81
2, 1920, Note_on_c, 0, 96, 0
2, 1920, Note_on_c, 0, 100, 95
2, 2040, Note_on_c, 0, 100, 0
2, 2040, Note_on_c, 0, 96, 80
2, 2160, Note_on_c, 0, 96, 0
2, 2160, Note_on_c, 0, 91, 84
2, 2280, Note_on_c, 0, 91, 0
2, 2280, Note_on_c, 0, 84, 80
2, 2400, Note_on_c, 0, 84, 0
2, 2400, Note_on_c, 0, 88, 94
2, 2520, Note_on_c, 0, 88, 0
2, 2520, Note_on_c, 0, 84, 80
2, 2640, Note_on_c, 0, 84, 0
2, 2640, Note_on_c, 0, 79, 83
2, 2760, Note_on_c, 0, 79, 0
2, 2760, Note_on_c, 0, 72, 79
2, 2880, Note_on_c, 0, 72, 0
2, 2880, Note_on_c, 0, 76, 93
2, 3000, Note_on_c, 0, 76, 0
2, 3000, Note_on_c, 0, 72, 79
2, 3120, Note_on_c, 0, 72, 0
2, 3120, Note_on_c, 0, 67, 81
2, 3240, Note_on_c, 0, 67, 0
2, 3240, Note_on_c, 0, 60, 78
2, 3360, Note_on_c, 0, 60, 0
2, 3360, Note_on_c, 0, 64, 92
2, 3480, Note_on_c, 0, 64, 0
2, 3480, Note_on_c, 0, 60, 76
2, 3600, Note_on_c, 0, 60, 0
2, 4320, Note_on_c, 0, 65, 91
2, 4440, Note_on_c, 0, 65, 0
2, 4440, Note_on_c, 0, 60, 77
2, 4560, Note_on_c, 0, 60, 0
2, 4560, Note_on_c, 0, 69, 80
2, 4680, Note_on_c, 0, 69, 0
2, 4680, Note_on_c, 0, 72, 78
2, 4800, Note_on_c, 0, 72, 0
2, 4800, Note_on_c, 0, 77, 93
2, 4920, Note_on_c, 0, 77, 0
2, 4920, Note_on_c, 0, 72, 78
2, 5040, Note_on_c, 0, 72, 0
2, 5040, Note_on_c, 0, 81, 82
2, 5160, Note_on_c, 0, 81, 0
2, 5160, Note_on_c, 0, 84, 80
2, 5280, Note_on_c, 0, 84, 0
2, 5280, Note_on_c, 0, 89, 94
2, 5400, Note_on_c, 0, 89, 0
2, 5400, Note_on_c, 0, 84, 81
2, 5520, Note_on_c, 0, 84, 0
2, 5520, Note_on_c, 0, 93, 83
2, 5640, Note_on_c, 0, 93, 0
2, 5640, Note_on_c, 0, 96, 80
2, 5760, Note_on_c, 0, 96, 0
2, 5760, Note_on_c, 0, 100, 96
2, 5880, Note_on_c, 0, 100, 0
2, 5880, Note_on_c, 0, 96, 80
2, 6000, Note_on_c, 0, 96, 0
2, 6000, Note_on_c, 0, 93, 84
2, 6120, Note_on_c, 0, 93, 0
2, 6120, Note_on_c, 0, 84, 80
2, 6240, Note_on_c, 0, 84, 0
2, 6240, Note_on_c, 0, 88, 95
2, 6360, Note_on_c, 0, 88, 0
2, 6360, Note_on_c, 0, 84, 80
2, 6480, Note_on_c, 0, 84, 0
2, 6480, Note_on_c, 0, 81, 83
2, 6600, Note_on_c, 0, 81, 0
2, 6600, Note_on_c, 0, 72, 79
2, 6720, Note_on_c, 0, 72, 0
2, 6720, Note_on_c, 0, 76, 93
2, 6840, Note_on_c, 0, 76, 0
2, 6840, Note_on_c, 0, 72, 78
2, 6960, Note_on_c, 0, 72, 0
2, 6960, Note_on_c, 0, 69, 81
2, 7080, Note_on_c, 0, 69, 0
2, 7080, Note_on_c, 0, 60, 77
2, 7200, Note_on_c, 0, 60, 0
2, 7200, Note_on_c, 0, 62, 92
2, 7320, Note_on_c, 0, 62, 0
2, 7320, Note_on_c, 0, 60, 76
2, 7440, Note_on_c, 0, 60, 0
2, 8160, Note_on_c, 0, 62, 90
2, 8280, Note_on_c, 0, 62, 0
2, 8280, Note_on_c, 0, 59, 77
2, 8400, Note_on_c, 0, 59, 0
2, 8400, Note_on_c, 0, 67, 80
2, 8520, Note_on_c, 0, 67, 0
2, 8520, Note_on_c, 0, 71, 78
2, 8640, Note_on_c, 0, 71, 0
2, 8640, Note_on_c, 0, 74, 93
2, 8760, Note_on_c, 0, 74, 0
2, 8760, Note_on_c, 0, 71, 79
2, 8880, Note_on_c, 0, 71, 0
2, 8880, Note_on_c, 0, 79, 82
2, 9000, Note_on_c, 0, 79, 0
2, 9000, Note_on_c, 0, 83, 80
2, 9120, Note_on_c, 0, 83, 0
2, 9120, Note_on_c, 0, 86, 94
2, 9240, Note_on_c, 0, 86, 0
2, 9240, Note_on_c, 0, 83, 80
2, 9360, Note_on_c, 0, 83, 0
2, 9360, Note_on_c, 0, 91, 83
2, 9480, Note_on_c, 0, 91, 0
2, 9480, Note_on_c, 0, 93, 79
2, 9600, Note_on_c, 0, 93, 0
2, 9600, Note_on_c, 0, 98, 97
2, 9720, Note_on_c, 0, 98, 0
2, 9720, Note_on_c, 0, 93, 80
2, 9840, Note_on_c, 0, 93, 0
2, 9840, Note_on_c, 0, 90, 84
2, 9960, Note_on_c, 0, 90, 0
2, 9960, Note_on_c, 0, 84, 80
2, 10080, Note_on_c, 0, 84, 0
2, 10080, Note_on_c, 0, 86, 95
2, 10200, Note_on_c, 0, 86, 0
2, 10200, Note_on_c, 0, 81, 80
2, 10320, Note_on_c, 0, 81, 0
2, 10320, Note_on_c, 0, 78, 82
2, 10440, Note_on_c, 0, 78, 0
2, 10440, Note_on_c, 0, 72, 79
2, 10560, Note_on_c, 0, 72, 0
2, 10560, Note_on_c, 0, 74, 94
2, 10680, Note_on_c, 0, 74, 0
2, 10680, Note_on_c, 0, 69, 77
2, 10800, Note_on_c, 0, 69, 0
2, 10800, Note_on_c, 0, 66, 81
2, 10920, Note_on_c, 0, 66, 0
2, 10920, Note_on_c, 0, 60, 77
2, 11040, Note_on_c, 0, 60, 0
2, 11040, Note_on_c, 0, 62, 80
2, 11160, Note_on_c, 0, 62, 0
2, 12000, Note_on_c, 0, 62, 91
2, 12120, Note_on_c, 0, 62, 0
2, 12120, Note_on_c, 0, 60, 76
2, 12240, Note_on_c, 0, 60, 0
2, 12240, Note_on_c, 0, 65, 80
2, 12360, Note_on_c, 0, 65, 0
2, 12360, Note_on_c, 0, 68, 77
2, 12480, Note_on_c, 0, 68, 0
2, 12480, Note_on_c, 0, 74, 92
2, 12600, Note_on_c, 0, 74, 0
2, 12600, Note_on_c, 0, 72, 78
2, 12720, Note_on_c, 0, 72, 0
2, 12720, Note_on_c, 0, 77, 82
2, 12840, Note_on_c, 0, 77, 0
2, 12840, Note_on_c, 0, 80, 79
2, 12960, Note_on_c, 0, 80, 0
2, 12960, Note_on_c, 0, 86, 93
2, 13080, Note_on_c, 0, 86, 0
2, 13080, Note_on_c, 0, 84, 80
2, 13200, Note_on_c, 0, 84, 0
2, 13200, Note_on_c, 0, 89, 83
2, 13320, Note_on_c, 0, 89, 0
2, 13320, Note_on_c, 0, 92, 80
2, 13440, Note_on_c, 0, 92, 0
2, 13440, Note_on_c, 0, 98, 95
2, 13560, Note_on_c, 0, 98, 0
2, 13560, Note_on_c, 0, 91, 79
2, 13680, Note_on_c, 0, 91, 0
2, 13680, Note_on_c, 0, 89, 84
2, 13800, Note_on_c, 0, 89, 0
2, 13800, Note_on_c, 0, 83, 79
2, 13920, Note_on_c, 0, 83, 0
2, 13920, Note_on_c, 0, 86, 94
2, 14040, Note_on_c, 0, 86, 0
2, 14040, Note_on_c, 0, 79, 79
2, 14160, Note_on_c, 0, 79, 0
2, 14160, Note_on_c, 0, 77, 83
2, 14280, Note_on_c, 0, 77, 0
2, 14280, Note_on_c, 0, 71, 78
2, 14400, Note_on_c, 0, 71, 0
2, 14400, Note_on_c, 0, 74, 93
2, 14520, Note_on_c, 0, 74, 0
2, 14520, Note_on_c, 0, 67, 77
2, 14640, Note_on_c, 0, 67, 0
2, 14640, Note_on_c, 0, 65, 81
2, 14760, Note_on_c, 0, 65, 0
2, 14760, Note_on_c, 0, 59, 77
2, 14880, Note_on_c, 0, 59, 0
2, 14880, Note_on_c, 0, 63, 95
2, 15000, Note_on_c, 0, 63, 0
2, 15840, Note_on_c, 0, 64, 85
2, 15960, Note_on_c, 0, 64, 0
2, 15960, Note_on_c, 0, 60, 76
2, 16080, Note_on_c, 0, 60, 0
2, 16080, Note_on_c, 0, 67, 80
2, 16200, Note_on_c, 0, 67, 0
2, 16200, Note_on_c, 0, 72, 78
2, 16320, Note_on_c, 0, 72, 0
2, 16320, Note_on_c, 0, 76, 89
2, 16440, Note_on_c, 0, 76, 0
2, 16440, Note_on_c, 0, 72, 78
2, 16560, Note_on_c, 0, 72, 0
2, 16560, Note_on_c, 0, 79, 82
2, 16680, Note_on_c, 0, 79, 0
2, 16680, Note_on_c, 0, 84, 79
2, 16800, Note_on_c, 0, 84, 0
2, 16800, Note_on_c, 0, 88, 90
2, 16920, Note_on_c, 0, 88, 0
2, 16920, Note_on_c, 0, 84, 80
2, 17040, Note_on_c, 0, 84, 0
2, 17040, Note_on_c, 0, 91, 83
2, 17160, Note_on_c, 0, 91, 0
2, 17160, Note_on_c, 0, 96, 80
2, 17280, Note_on_c, 0, 96, 0
2, 17280, Note_on_c, 0, 100, 92
2, 17400, Note_on_c, 0, 100, 0
2, 17400, Note_on_c, 0, 96, 80
2, 17520, Note_on_c, 0, 96, 0
2, 17520, Note_on_c, 0, 91, 84
2, 17640, Note_on_c, 0, 91, 0
2, 17640, Note_on_c, 0, 84, 80
2, 17760, Note_on_c, 0, 84, 0
2, 17760, Note_on_c, 0, 88, 92
2, 17880, Note_on_c, 0, 88, 0
2, 17880, Note_on_c, 0, 84, 81
2, 18000, Note_on_c, 0, 84, 0
2, 18000, Note_on_c, 0, 79, 83
2, 18120, Note_on_c, 0, 79, 0
2, 18120, Note_on_c, 0, 72, 79
2, 18240, Note_on_c, 0, 72, 0
2, 18240, Note_on_c, 0, 76, 90
2, 18360, Note_on_c, 0, 76, 0
2, 18360, Note_on_c, 0, 72, 78
2, 18480, Note_on_c, 0, 72, 0
2, 18480, Note_on_c, 0, 67, 81
2, 18600, Note_on_c, 0, 67, 0
2, 18600, Note_on_c, 0, 60, 77
2, 18720, Note_on_c, 0, 60, 0
2, 18720, Note_on_c, 0, 64, 89
2, 18840, Note_on_c, 0, 64, 0
2, 18840, Note_on_c, 0, 60, 77
2, 18960, Note_on_c, 0, 60, 0
2, 19680, Note_on_c, 0, 65, 87
2, 19800, Note_on_c, 0, 65, 0
2, 19800, Note_on_c, 0, 60, 76
2, 19920, Note_on_c, 0, 60, 0
2, 19920, Note_on_c, 0, 65, 80
2, 20040, Note_on_c, 0, 65, 0
2, 20040, Note_on_c, 0, 72, 77
2, 20160, Note_on_c, 0, 72, 0
2, 20160, Note_on_c, 0, 77, 89
2, 20280, Note_on_c, 0, 77, 0
2, 20280, Note_on_c, 0, 72, 77
2, 20400, Note_on_c, 0, 72, 0
2, 20400, Note_on_c, 0, 77, 82
2, 20520, Note_on_c, 0, 77, 0
2, 20520, Note_on_c, 0, 84, 79
2, 20640, Note_on_c, 0, 84, 0
2, 20640, Note_on_c, 0, 89, 92
2, 20760, Note_on_c, 0, 89, 0
2, 20760, Note_on_c, 0, 84, 80
2, 20880, Note_on_c, 0, 84, 0
2, 20880, Note_on_c, 0, 89, 83
2, 21000, Note_on_c, 0, 89, 0
2, 21000, Note_on_c, 0, 96, 80
2, 21120, Note_on_c, 0, 96, 0
2, 21120, Note_on_c, 0, 100, 93
2, 21240, Note_on_c, 0, 100, 0
2, 21240, Note_on_c, 0, 96, 80
2, 21360, Note_on_c, 0, 96, 0
2, 21360, Note_on_c, 0, 90, 84
2, 21480, Note_on_c, 0, 90, 0
2, 21480, Note_on_c, 0, 84, 79
2, 21600, Note_on_c, 0, 84, 0
2, 21600, Note_on_c, 0, 88, 93
2, 21720, Note_on_c, 0, 88, 0
2, 21720, Note_on_c, 0, 84, 80
2, 21840, Note_on_c, 0, 84, 0
2, 21840, Note_on_c, 0, 78, 83
2, 21960, Note_on_c, 0, 78, 0
2, 21960, Note_on_c, 0, 72, 79
2, 22080, Note_on_c, 0, 72, 0
2, 22080, Note_on_c, 0, 76, 90
2, 22200, Note_on_c, 0, 76, 0
2, 22200, Note_on_c, 0, 72, 79
2, 22320, Note_on_c, 0, 72, 0
2, 22320, Note_on_c, 0, 66, 81
2, 22440, Note_on_c, 0, 66, 0
2, 22440, Note_on_c, 0, 60, 78
2, 22560, Note_on_c, 0, 60, 0
2, 22560, Note_on_c, 0, 64, 89
2, 22680, Note_on_c, 0, 64, 0
2, 22680, Note_on_c, 0, 60, 77
2, 22800, Note_on_c, 0, 60, 0
2, 23520, Note_on_c, 0, 62, 81
2, 23640, Note_on_c, 0, 62, 0
2, 23640, Note_on_c, 0, 60, 73
2, 23760, Note_on_c, 0, 60, 0
2, 23760, Note_on_c, 0, 67, 76
2, 23880, Note_on_c, 0, 67, 0
2, 23880, Note_on_c, 0, 72, 74
2, 24000, Note_on_c, 0, 72, 0
2, 24000, Note_on_c, 0, 74, 86
2, 24120, Note_on_c, 0, 74, 0
2, 24120, Note_on_c, 0, 72, 74
2, 24240, Note_on_c, 0, 72, 0
2, 24240, Note_on_c, 0, 79, 77
2, 24360, Note_on_c, 0, 79, 0
2, 24360, Note_on_c, 0, 84, 75
2, 24480, Note_on_c, 0, 84, 0
2, 24480, Note_on_c, 0, 86, 88
2, 24600, Note_on_c, 0, 86, 0
2, 24600, Note_on_c, 0, 84, 76
2, 24720, Note_on_c, 0, 84, 0
2, 24720, Note_on_c, 0, 91, 78
2, 24840, Note_on_c, 0, 91, 0
2, 24840, Note_on_c, 0, 96, 76
2, 24960, Note_on_c, 0, 96, 0
2, 24960, Note_on_c, 0, 98, 89
2, 25080, Note_on_c, 0, 98, 0
2, 25080, Note_on_c, 0, 95, 76
2, 25200, Note_on_c, 0, 95, 0
2, 25200, Note_on_c, 0, 91, 79
2, 25320, Note_on_c, 0, 91, 0
2, 25320, Note_on_c, 0, 83, 75
2, 25440, Note_on_c, 0, 83, 0
2, 25440, Note_on_c, 0, 86, 87
2, 25560, Note_on_c, 0, 86, 0
2, 25560, Note_on_c, 0, 83, 75
2, 25680, Note_on_c, 0, 83, 0
2, 25680, Note_on_c, 0, 79, 78
2, 25800, Note_on_c, 0, 79, 0
2, 25800, Note_on_c, 0, 71, 74
2, 25920, Note_on_c, 0, 71, 0
2, 25920, Note_on_c, 0, 74, 86
2, 26040, Note_on_c, 0, 74, 0
2, 26040, Note_on_c, 0, 71, 75
2, 26160, Note_on_c, 0, 71, 0
2, 26160, Note_on_c, 0, 67, 76
2, 26280, Note_on_c, 0, 67, 0
2, 26280, Note_on_c, 0, 59, 74
2, 26400, Note_on_c, 0, 59, 0
2, 26400, Note_on_c, 0, 62, 83
2, 26520, Note_on_c, 0, 62, 0
2, 26520, Note_on_c, 0, 59, 73
2, 26640, Note_on_c, 0, 59, 0
2, 27360, Note_on_c, 0, 64, 77
2, 27480, Note_on_c, 0, 64, 0
2, 27480, Note_on_c, 0, 62, 70
2, 27600, Note_on_c, 0, 62, 0
2, 27600, Note_on_c, 0, 67, 75
2, 27720, Note_on_c, 0, 67, 0
2, 27720, Note_on_c, 0, 74, 72
2, 27840, Note_on_c, 0, 74, 0
2, 27840, Note_on_c, 0, 76, 77
2, 27960, Note_on_c, 0, 76, 0
2, 27960, Note_on_c, 0, 74, 72
2, 28080, Note_on_c, 0, 74, 0
2, 28080, Note_on_c, 0, 79, 74
2, 28200, Note_on_c, 0, 79, 0
2, 28200, Note_on_c, 0, 86, 72
2, 28320, Note_on_c, 0, 86, 0
2, 28320, Note_on_c, 0, 88, 80
2, 28440, Note_on_c, 0, 88, 0
2, 28440, Note_on_c, 0, 86, 72
2, 28560, Note_on_c, 0, 86, 0
2, 28560, Note_on_c, 0, 91, 74
2, 28680, Note_on_c, 0, 91, 0
2, 28680, Note_on_c, 0, 98, 72
2, 28800, Note_on_c, 0, 98, 0
2, 28800, Note_on_c, 0, 100, 78
2, 28920, Note_on_c, 0, 100, 0
2, 28920, Note_on_c, 0, 96, 69
2, 29040, Note_on_c, 0, 96, 0
2, 29040, Note_on_c, 0, 91, 73
2, 29160, Note_on_c, 0, 91, 0
2, 29160, Note_on_c, 0, 84, 69
2, 29280, Note_on_c, 0, 84, 0
2, 29280, Note_on_c, 0, 88, 78
2, 29400, Note_on_c, 0, 88, 0
2, 29400, Note_on_c, 0, 84, 68
2, 29520, Note_on_c, 0, 84, 0
2, 29520, Note_on_c, 0, 79, 71
2, 29640, Note_on_c, 0, 79, 0
2, 29640, Note_on_c, 0, 72, 65
2, 29760, Note_on_c, 0, 72, 0
2, 29760, Note_on_c, 0, 76, 75
2, 29880, Note_on_c, 0, 76, 0
2, 29880, Note_on_c, 0, 72, 66
2, 30000, Note_on_c, 0, 72, 0
2, 30000, Note_on_c, 0, 67, 69
2, 30120, Note_on_c, 0, 67, 0
2, 30120, Note_on_c, 0, 60, 64
2, 30240, Note_on_c, 0, 60, 0
2, 30240, Note_on_c, 0, 64, 71
2, 30360, Note_on_c, 0, 64, 0
2, 30360, Note_on_c, 0, 60, 64
2, 30480, Note_on_c, 0, 60, 0
2, 31080, Note_on_c, 0, 64, 53
2, 31200, Note_on_c, 0, 64, 0
2, 31200, Note_on_c, 0, 65, 59
2, 31320, Note_on_c, 0, 65, 0
2, 31320, Note_on_c, 0, 64, 51
2, 31440, Note_on_c, 0, 64, 0
2, 31440, Note_on_c, 0, 72, 54
2, 31560, Note_on_c, 0, 72, 0
2, 31560, Note_on_c, 0, 76, 52
2, 31680, Note_on_c, 0, 76, 0
2, 31680, Note_on_c, 0, 77, 61
2, 31800, Note_on_c, 0, 77, 0
2, 31800, Note_on_c, 0, 76, 51
2, 31920, Note_on_c, 0, 76, 0
2, 31920, Note_on_c, 0, 84, 56
2, 32040, Note_on_c, 0, 84, 0
2, 32040, Note_on_c, 0, 88, 52
2, 32160, Note_on_c, 0, 88, 0
2, 32160, Note_on_c, 0, 89, 62
2, 32280, Note_on_c, 0, 89, 0
2, 32280, Note_on_c, 0, 88, 54
2, 32400, Note_on_c, 0, 88, 0
2, 32400, Note_on_c, 0, 96, 56
2, 32520, Note_on_c, 0, 96, 0
2, 32520, Note_on_c, 0, 100, 52
2, 32640, Note_on_c, 0, 100, 0
2, 32640, Note_on_c, 0, 101, 63
2, 32760, Note_on_c, 0, 101, 0
2, 32760, Note_on_c, 0, 98, 53
2, 32880, Note_on_c, 0, 98, 0
2, 32880, Note_on_c, 0, 95, 56
2, 33000, Note_on_c, 0, 95, 0
2, 33000, Note_on_c, 0, 86, 53
2, 33120, Note_on_c, 0, 86, 0
2, 33120, Note_on_c, 0, 89, 62
2, 33240, Note_on_c, 0, 89, 0
2, 33240, Note_on_c, 0, 86, 53
2, 33360, Note_on_c, 0, 86, 0
2, 33360, Note_on_c, 0, 83, 56
2, 33480, Note_on_c, 0, 83, 0
2, 33480, Note_on_c, 0, 74, 52
2, 33600, Note_on_c, 0, 74, 0
2, 33600, Note_on_c, 0, 77, 61
2, 33720, Note_on_c, 0, 77, 0
2, 33720, Note_on_c, 0, 74, 51
2, 33840, Note_on_c, 0, 74, 0
2, 33840, Note_on_c, 0, 71, 55
2, 33960, Note_on_c, 0, 71, 0
2, 33960, Note_on_c, 0, 62, 51
2, 34080, Note_on_c, 0, 62, 0
2, 34080, Note_on_c, 0, 65, 60
2, 34200, Note_on_c, 0, 65, 0
2, 34200, Note_on_c, 0, 62, 50
2, 34320, Note_on_c, 0, 62, 0
2, 34320, Note_on_c, 0, 59, 54
2, 34440, Note_on_c, 0, 59, 0
2, 35040, Note_on_c, 0, 64, 64
2, 35160, Note_on_c, 0, 64, 0
2, 35160, Note_on_c, 0, 62, 51
2, 35280, Note_on_c, 0, 62, 0
2, 35280, Note_on_c, 0, 71, 55
2, 35400, Note_on_c, 0, 71, 0
2, 35400, Note_on_c, 0, 74, 53
2, 35520, Note_on_c, 0, 74, 0
2, 35520, Note_on_c, 0, 76, 66
2, 35640, Note_on_c, 0, 76, 0
2, 35640, Note_on_c, 0, 74, 52
2, 35760, Note_on_c, 0, 74, 0
2, 35760, Note_on_c, 0, 83, 58
2, 35880, Note_on_c, 0, 83, 0
2, 35880, Note_on_c, 0, 86, 53
2, 36000, Note_on_c, 0, 86, 0
2, 36000, Note_on_c, 0, 88, 66
2, 36120, Note_on_c, 0, 88, 0
2, 36120, Note_on_c, 0, 86, 54
2, 36240, Note_on_c, 0, 86, 0
2, 36240, Note_on_c, 0, 95, 59
2, 36360, Note_on_c, 0, 95, 0
2, 36360, Note_on_c, 0, 98, 55
2, 36480, Note_on_c, 0, 98, 0
2, 36480, Note_on_c, 0, 100, 68
2, 36600, Note_on_c, 0, 100, 0
2, 36600, Note_on_c, 0, 96, 57
2, 36720, Note_on_c, 0, 96, 0
2, 36720, Note_on_c, 0, 93, 59
2, 36840, Note_on_c, 0, 93, 0
2, 36840, Note_on_c, 0, 84, 57
2, 36960, Note_on_c, 0, 84, 0
2, 36960, Note_on_c, 0, 88, 71
2, 37080, Note_on_c, 0, 88, 0
2, 37080, Note_on_c, 0, 84, 58
2, 37200, Note_on_c, 0, 84, 0
2, 37200, Note_on_c, 0, 81, 63
2, 37320, Note_on_c, 0, 81, 0
2, 37320, Note_on_c, 0, 72, 61
2, 37440, Note_on_c, 0, 72, 0
2, 37440, Note_on_c, 0, 76, 74
2, 37560, Note_on_c, 0, 76, 0
2, 37560, Note_on_c, 0, 72, 61
2, 37680, Note_on_c, 0, 72, 0
2, 37680, Note_on_c, 0, 69, 66
2, 37800, Note_on_c, 0, 69, 0
2, 37800, Note_on_c, 0, 60, 61
2, 37920, Note_on_c, 0, 60, 0
2, 37920, Note_on_c, 0, 64, 77
2, 38040, Note_on_c, 0, 64, 0
2, 38040, Note_on_c, 0, 60, 63
2, 38160, Note_on_c, 0, 60, 0
2, 38880, Note_on_c, 0, 64, 82
2, 39000, Note_on_c, 0, 64, 0
2, 39000, Note_on_c, 0, 60, 67
2, 39120, Note_on_c, 0, 60, 0
2, 39120, Note_on_c, 0, 69, 72
2, 39240, Note_on_c, 0, 69, 0
2, 39240, Note_on_c, 0, 72, 68
2, 39360, Note_on_c, 0, 72, 0
2, 39360, Note_on_c, 0, 76, 82
2, 39480, Note_on_c, 0, 76, 0
2, 39480, Note_on_c, 0, 72, 69
2, 39600, Note_on_c, 0, 72, 0
2, 39600, Note_on_c, 0, 81, 73
2, 39720, Note_on_c, 0, 81, 0
2, 39720, Note_on_c, 0, 84, 70
2, 39840, Note_on_c, 0, 84, 0
2, 39840, Note_on_c, 0, 88, 83
2, 39960, Note_on_c, 0, 88, 0
2, 39960, Note_on_c, 0, 84, 71
2, 40080, Note_on_c, 0, 84, 0
2, 40080, Note_on_c, 0, 93, 74
2, 40200, Note_on_c, 0, 93, 0
2, 40200, Note_on_c, 0, 96, 71
2, 40320, Note_on_c, 0, 96, 0
2, 40320, Note_on_c, 0, 99, 86
2, 40440, Note_on_c, 0, 99, 0
2, 40440, Note_on_c, 0, 95, 71
2, 40560, Note_on_c, 0, 95, 0
2, 40560, Note_on_c, 0, 93, 75
2, 40680, Note_on_c, 0, 93, 0
2, 40680, Note_on_c, 0, 83, 68
2, 40800, Note_on_c, 0, 83, 0
2, 40800, Note_on_c, 0, 87, 78
2, 40920, Note_on_c, 0, 87, 0
2, 40920, Note_on_c, 0, 83, 63
2, 41040, Note_on_c, 0, 83, 0
2, 41040, Note_on_c, 0, 81, 67
2, 41160, Note_on_c, 0, 81, 0
2, 41160, Note_on_c, 0, 71, 62
2, 41280, Note_on_c, 0, 71, 0
2, 41280, Note_on_c, 0, 75, 72
2, 41400, Note_on_c, 0, 75, 0
2, 41400, Note_on_c, 0, 71, 59
2, 41520, Note_on_c, 0, 71, 0
2, 41520, Note_on_c, 0, 69, 63
2, 41640, Note_on_c, 0, 69, 0
2, 41640, Note_on_c, 0, 59, 55
2, 41760, Note_on_c, 0, 59, 0
2, 41760, Note_on_c, 0, 63, 61
2, 41880, Note_on_c, 0, 63, 0
2, 42720, Note_on_c, 0, 64, 61
2, 42840, Note_on_c, 0, 64, 0
2, 42840, Note_on_c, 0, 59, 50
2, 42960, Note_on_c, 0, 59, 0
2, 42960, Note_on_c, 0, 69, 54
2, 43080, Note_on_c, 0, 69, 0
2, 43080, Note_on_c, 0, 71, 49
2, 43200, Note_on_c, 0, 71, 0
2, 43200, Note_on_c, 0, 76, 62
2, 43320, Note_on_c, 0, 76, 0
2, 43320, Note_on_c, 0, 71, 50
2, 43440, Note_on_c, 0, 71, 0
2, 43440, Note_on_c, 0, 81, 54
2, 43560, Note_on_c, 0, 81, 0
2, 43560, Note_on_c, 0, 83, 50
2, 43680, Note_on_c, 0, 83, 0
2, 43680, Note_on_c, 0, 88, 62
2, 43800, Note_on_c, 0, 88, 0
2, 43800, Note_on_c, 0, 83, 50
2, 43920, Note_on_c, 0, 83, 0
2, 43920, Note_on_c, 0, 93, 54
2, 44040, Note_on_c, 0, 93, 0
2, 44040, Note_on_c, 0, 95, 50
2, 44160, Note_on_c, 0, 95, 0
2, 44160, Note_on_c, 0, 100, 62
2, 44280, Note_on_c, 0, 100, 0
2, 44280, Note_on_c, 0, 95, 49
2, 44400, Note_on_c, 0, 95, 0
2, 44400, Note_on_c, 0, 92, 54
2, 44520, Note_on_c, 0, 92, 0
2, 44520, Note_on_c, 0, 83, 49
2, 44640, Note_on_c, 0, 83, 0
2, 44640, Note_on_c, 0, 88, 61
2, 44760, Note_on_c, 0, 88, 0
2, 44760, Note_on_c, 0, 83, 50
2, 44880, Note_on_c, 0, 83, 0
2, 44880, Note_on_c, 0, 80, 54
2, 45000, Note_on_c, 0, 80, 0
2, 45000, Note_on_c, 0, 71, 50
2, 45120, Note_on_c, 0, 71, 0
2, 45120, Note_on_c, 0, 76, 61
2, 45240, Note_on_c, 0, 76, 0
2, 45240, Note_on_c, 0, 71, 50
2, 45360, Note_on_c, 0, 71, 0
2, 45360, Note_on_c, 0, 68, 54
2, 45480, Note_on_c, 0, 68, 0
2, 45480, Note_on_c, 0, 59, 50
2, 45600, Note_on_c, 0, 59, 0
2, 45600, Note_on_c, 0, 64, 53
2, 45720, Note_on_c, 0, 64, 0
2, 45720, Note_on_c, 0, 59, 50
2, 45840, Note_on_c, 0, 59, 0
2, 46560, Note_on_c, 0, 67, 61
2, 46680, Note_on_c, 0, 67, 0
2, 46680, Note_on_c, 0, 64, 50
2, 46800, Note_on_c, 0, 64, 0
2, 46800, Note_on_c, 0, 69, 54
2, 46920, Note_on_c, 0, 69, 0
2, 46920, Note_on_c, 0, 73, 51
2, 47040, Note_on_c, 0, 73, 0
2, 47040, Note_on_c, 0, 79, 62
2, 47160, Note_on_c, 0, 79, 0
2, 47160, Note_on_c, 0, 76, 50
2, 47280, Note_on_c, 0, 76, 0
2, 47280, Note_on_c, 0, 81, 55
2, 47400, Note_on_c, 0, 81, 0
2, 47400, Note_on_c, 0, 85, 50
2, 47520, Note_on_c, 0, 85, 0
2, 47520, Note_on_c, 0, 91, 63
2, 47640, Note_on_c, 0, 91, 0
2, 47640, Note_on_c, 0, 85, 52
2, 47760, Note_on_c, 0, 85, 0
2, 47760, Note_on_c, 0, 81, 57
2, 47880, Note_on_c, 0, 81, 0
2, 47880, Note_on_c, 0, 76, 52
2, 48000, Note_on_c, 0, 76, 0
2, 48000, Note_on_c, 0, 91, 65
2, 48120, Note_on_c, 0, 91, 0
2, 48120, Note_on_c, 0, 84, 52
2, 48240, Note_on_c, 0, 84, 0
2, 48240, Note_on_c, 0, 81, 57
2, 48360, Note_on_c, 0, 81, 0
2, 48360, Note_on_c, 0, 76, 52
2, 48480, Note_on_c, 0, 76, 0
2, 48480, Note_on_c, 0, 79, 65
2, 48600, Note_on_c, 0, 79, 0
2, 48600, Note_on_c, 0, 72, 53
2, 48720, Note_on_c, 0, 72, 0
2, 48720, Note_on_c, 0, 69, 57
2, 48840, Note_on_c, 0, 69, 0
2, 48840, Note_on_c, 0, 64, 53
2, 48960, Note_on_c, 0, 64, 0
2, 48960, Note_on_c, 0, 67, 65
2, 49080, Note_on_c, 0, 67, 0
2, 49080, Note_on_c, 0, 60, 53
2, 49200, Note_on_c, 0, 60, 0
2, 49440, Note_on_c, 0, 66, 64
2, 49560, Note_on_c, 0, 66, 0
2, 49560, Note_on_c, 0, 60, 56
2, 49680, Note_on_c, 0, 60, 0
2, 50400, Note_on_c, 0, 65, 72
2, 50520, Note_on_c, 0, 65, 0
2, 50520, Note_on_c, 0, 62, 59
2, 50640, Note_on_c, 0, 62, 0
2, 50640, Note_on_c, 0, 67, 64
2, 50760, Note_on_c, 0, 67, 0
2, 50760, Note_on_c, 0, 72, 62
2, 50880, Note_on_c, 0, 72, 0
2, 50880, Note_on_c, 0, 77, 73
2, 51000, Note_on_c, 0, 77, 0
2, 51000, Note_on_c, 0, 74, 63
2, 51120, Note_on_c, 0, 74, 0
2, 51120, Note_on_c, 0, 79, 67
2, 51240, Note_on_c, 0, 79, 0
2, 51240, Note_on_c, 0, 84, 62
2, 51360, Note_on_c, 0, 84, 0
2, 51360, Note_on_c, 0, 89, 72
2, 51480, Note_on_c, 0, 89, 0
2, 51480, Note_on_c, 0, 86, 64
2, 51600, Note_on_c, 0, 86, 0
2, 51600, Note_on_c, 0, 91, 67
2, 51720, Note_on_c, 0, 91, 0
2, 51720, Note_on_c, 0, 96, 64
2, 51840, Note_on_c, 0, 96, 0
2, 51840, Note_on_c, 0, 101, 74
2, 51960, Note_on_c, 0, 101, 0
2, 51960, Note_on_c, 0, 95, 64
2, 52080, Note_on_c, 0, 95, 0
2, 52080, Note_on_c, 0, 91, 68
2, 52200, Note_on_c, 0, 91, 0
2, 52200, Note_on_c, 0, 86, 64
2, 52320, Note_on_c, 0, 86, 0
2, 52320, Note_on_c, 0, 89, 74
2, 52440, Note_on_c, 0, 89, 0
2, 52440, Note_on_c, 0, 83, 65
2, 52560, Note_on_c, 0, 83, 0
2, 52560, Note_on_c, 0, 79, 68
2, 52680, Note_on_c, 0, 79, 0
2, 52680, Note_on_c, 0, 74, 64
2, 52800, Note_on_c, 0, 74, 0
2, 52800, Note_on_c, 0, 77, 72
2, 52920, Note_on_c, 0, 77, 0
2, 52920, Note_on_c, 0, 71, 64
2, 53040, Note_on_c, 0, 71, 0
2, 53040, Note_on_c, 0, 67, 68
2, 53160, Note_on_c, 0, 67, 0
2, 53160, Note_on_c, 0, 62, 68
2, 53280, Note_on_c, 0, 62, 0
2, 53280, Note_on_c, 0, 65, 72
2, 53400, Note_on_c, 0, 65, 0
2, 54240, Note_on_c, 0, 64, 80
2, 54360, Note_on_c, 0, 64, 0
2, 54360, Note_on_c, 0, 60, 72
2, 54480, Note_on_c, 0, 60, 0
2, 54480, Note_on_c, 0, 67, 76
2, 54600, Note_on_c, 0, 67, 0
2, 54600, Note_on_c, 0, 70, 73
2, 54720, Note_on_c, 0, 70, 0
2, 54720, Note_on_c, 0, 76, 85
2, 54840, Note_on_c, 0, 76, 0
2, 54840, Note_on_c, 0, 72, 73
2, 54960, Note_on_c, 0, 72, 0
2, 54960, Note_on_c, 0, 79, 77
2, 55080, Note_on_c, 0, 79, 0
2, 55080, Note_on_c, 0, 82, 73
2, 55200, Note_on_c, 0, 82, 0
2, 55200, Note_on_c, 0, 88, 86
2, 55320, Note_on_c, 0, 88, 0
2, 55320, Note_on_c, 0, 84, 75
2, 55440, Note_on_c, 0, 84, 0
2, 55440, Note_on_c, 0, 91, 78
2, 55560, Note_on_c, 0, 91, 0
2, 55560, Note_on_c, 0, 96, 75
2, 55680, Note_on_c, 0, 96, 0
2, 55680, Note_on_c, 0, 99, 89
2, 55800, Note_on_c, 0, 99, 0
2, 55800, Note_on_c, 0, 94, 75
2, 55920, Note_on_c, 0, 94, 0
2, 55920, Note_on_c, 0, 87, 79
2, 56040, Note_on_c, 0, 87, 0
2, 56040, Note_on_c, 0, 84, 74
2, 56160, Note_on_c, 0, 84, 0
2, 56160, Note_on_c, 0, 87, 87
2, 56280, Note_on_c, 0, 87, 0
2, 56280, Note_on_c, 0, 82, 74
2, 56400, Note_on_c, 0, 82, 0
2, 56400, Note_on_c, 0, 75, 78
2, 56520, Note_on_c, 0, 75, 0
2, 56520, Note_on_c, 0, 72, 73
2, 56640, Note_on_c, 0, 72, 0
2, 56640, Note_on_c, 0, 75, 85
2, 56760, Note_on_c, 0, 75, 0
2, 56760, Note_on_c, 0, 70, 74
2, 56880, Note_on_c, 0, 70, 0
2, 56880, Note_on_c, 0, 63, 76
2, 57000, Note_on_c, 0, 63, 0
2, 57000, Note_on_c, 0, 60, 73
2, 57120, Note_on_c, 0, 60, 0
2, 57120, Note_on_c, 0, 63, 83
2, 57240, Note_on_c, 0, 63, 0
2, 57240, Note_on_c, 0, 58, 72
2, 57360, Note_on_c, 0, 58, 0
2, 58080, Note_on_c, 0, 63, 79
2, 58200, Note_on_c, 0, 63, 0
2, 58200, Note_on_c, 0, 60, 71
2, 58320, Note_on_c, 0, 60, 0
2, 58320, Note_on_c, 0, 63, 76
2, 58440, Note_on_c, 0, 63, 0
2, 58440, Note_on_c, 0, 69, 73
2, 58560, Note_on_c, 0, 69, 0
2, 58560, Note_on_c, 0, 75, 82
2, 58680, Note_on_c, 0, 75, 0
2, 58680, Note_on_c, 0, 72, 75
2, 58800, Note_on_c, 0, 72, 0
2, 58800, Note_on_c, 0, 75, 77
2, 58920, Note_on_c, 0, 75, 0
2, 58920, Note_on_c, 0, 81, 74
2, 59040, Note_on_c, 0, 81, 0
2, 59040, Note_on_c, 0, 87, 85
2, 59160, Note_on_c, 0, 87, 0
2, 59160, Note_on_c, 0, 84, 75
2, 59280, Note_on_c, 0, 84, 0
2, 59280, Note_on_c, 0, 87, 78
2, 59400, Note_on_c, 0, 87, 0
2, 59400, Note_on_c, 0, 93, 75
2, 59520, Note_on_c, 0, 93, 0
2, 59520, Note_on_c, 0, 99, 86
2, 59640, Note_on_c, 0, 99, 0
2, 59640, Note_on_c, 0, 92, 73
2, 59760, Note_on_c, 0, 92, 0
2, 59760, Note_on_c, 0, 87, 77
2, 59880, Note_on_c, 0, 87, 0
2, 59880, Note_on_c, 0, 83, 73
2, 60000, Note_on_c, 0, 83, 0
2, 60000, Note_on_c, 0, 87, 85
2, 60120, Note_on_c, 0, 87, 0
2, 60120, Note_on_c, 0, 80, 71
2, 60240, Note_on_c, 0, 80, 0
2, 60240, Note_on_c, 0, 75, 76
2, 60360, Note_on_c, 0, 75, 0
2, 60360, Note_on_c, 0, 71, 71
2, 60480, Note_on_c, 0, 71, 0
2, 60480, Note_on_c, 0, 75, 80
2, 60600, Note_on_c, 0, 75, 0
2, 60600, Note_on_c, 0, 68, 70
2, 60720, Note_on_c, 0, 68, 0
2, 60720, Note_on_c, 0, 63, 72
2, 60840, Note_on_c, 0, 63, 0
2, 60840, Note_on_c, 0, 59, 67
2, 60960, Note_on_c, 0, 59, 0
2, 60960, Note_on_c, 0, 63, 71
2, 61080, Note_on_c, 0, 63, 0
2, 61920, Note_on_c, 0, 62, 76
2, 62040, Note_on_c, 0, 62, 0
2, 62040, Note_on_c, 0, 58, 64
2, 62160, Note_on_c, 0, 58, 0
2, 62160, Note_on_c, 0, 65, 69
2, 62280, Note_on_c, 0, 65, 0
2, 62280, Note_on_c, 0, 68, 65
2, 62400, Note_on_c, 0, 68, 0
2, 62400, Note_on_c, 0, 74, 76
2, 62520, Note_on_c, 0, 74, 0
2, 62520, Note_on_c, 0, 70, 66
2, 62640, Note_on_c, 0, 70, 0
2, 62640, Note_on_c, 0, 77, 71
2, 62760, Note_on_c, 0, 77, 0
2, 62760, Note_on_c, 0, 80, 67
2, 62880, Note_on_c, 0, 80, 0
2, 62880, Note_on_c, 0, 86, 76
2, 63000, Note_on_c, 0, 86, 0
2, 63000, Note_on_c, 0, 82, 65
2, 63120, Note_on_c, 0, 82, 0
2, 63120, Note_on_c, 0, 89, 71
2, 63240, Note_on_c, 0, 89, 0
2, 63240, Note_on_c, 0, 92, 67
2, 63360, Note_on_c, 0, 92, 0
2, 63360, Note_on_c, 0, 98, 83
2, 63480, Note_on_c, 0, 98, 0
2, 63480, Note_on_c, 0, 92, 70
2, 63600, Note_on_c, 0, 92, 0
2, 63600, Note_on_c, 0, 88, 74
2, 63720, Note_on_c, 0, 88, 0
2, 63720, Note_on_c, 0, 82, 70
2, 63840, Note_on_c, 0, 82, 0
2, 63840, Note_on_c, 0, 86, 84
2, 63960, Note_on_c, 0, 86, 0
2, 63960, Note_on_c, 0, 80, 71
2, 64080, Note_on_c, 0, 80, 0
2, 64080, Note_on_c, 0, 76, 76
2, 64200, Note_on_c, 0, 76, 0
2, 64200, Note_on_c, 0, 70, 71
2, 64320, Note_on_c, 0, 70, 0
2, 64320, Note_on_c, 0, 74, 87
2, 64440, Note_on_c, 0, 74, 0
2, 64440, Note_on_c, 0, 68, 72
2, 64560, Note_on_c, 0, 68, 0
2, 64560, Note_on_c, 0, 64, 76
2, 64680, Note_on_c, 0, 64, 0
2, 64680, Note_on_c, 0, 58, 70
2, 64800, Note_on_c, 0, 58, 0
2, 64800, Note_on_c, 0, 62, 86
2, 64920, Note_on_c, 0, 62, 0
2, 65760, Note_on_c, 0, 61, 81
2, 65880, Note_on_c, 0, 61, 0
2, 65880, Note_on_c, 0, 57, 70
2, 66000, Note_on_c, 0, 57, 0
2, 66000, Note_on_c, 0, 64, 76
2, 66120, Note_on_c, 0, 64, 0
2, 66120, Note_on_c, 0, 69, 74
2, 66240, Note_on_c, 0, 69, 0
2, 66240, Note_on_c, 0, 73, 83
2, 66360, Note_on_c, 0, 73, 0
2, 66360, Note_on_c, 0, 69, 74
2, 66480, Note_on_c, 0, 69, 0
2, 66480, Note_on_c, 0, 76, 77
2, 66600, Note_on_c, 0, 76, 0
2, 66600, Note_on_c, 0, 81, 73
2, 66720, Note_on_c, 0, 81, 0
2, 66720, Note_on_c, 0, 85, 85
2, 66840, Note_on_c, 0, 85, 0
2, 66840, Note_on_c, 0, 81, 74
2, 66960, Note_on_c, 0, 81, 0
2, 66960, Note_on_c, 0, 88, 78
2, 67080, Note_on_c, 0, 88, 0
2, 67080, Note_on_c, 0, 93, 74
2, 67200, Note_on_c, 0, 93, 0
2, 67200, Note_on_c, 0, 97, 87
2, 67320, Note_on_c, 0, 97, 0
2, 67320, Note_on_c, 0, 93, 74
2, 67440, Note_on_c, 0, 93, 0
2, 67440, Note_on_c, 0, 88, 79
2, 67560, Note_on_c, 0, 88, 0
2, 67560, Note_on_c, 0, 81, 74
2, 67680, Note_on_c, 0, 81, 0
2, 67680, Note_on_c, 0, 85, 85
2, 67800, Note_on_c, 0, 85, 0
2, 67800, Note_on_c, 0, 81, 72
2, 67920, Note_on_c, 0, 81, 0
2, 67920, Note_on_c, 0, 76, 77
2, 68040, Note_on_c, 0, 76, 0
2, 68040, Note_on_c, 0, 69, 72
2, 68160, Note_on_c, 0, 69, 0
2, 68160, Note_on_c, 0, 73, 86
2, 68280, Note_on_c, 0, 73, 0
2, 68280, Note_on_c, 0, 69, 72
2, 68400, Note_on_c, 0, 69, 0
2, 68400, Note_on_c, 0, 64, 74
2, 68520, Note_on_c, 0, 64, 0
2, 68520, Note_on_c, 0, 57, 69
2, 68640, Note_on_c, 0, 57, 0
2, 68640, Note_on_c, 0, 61, 84
2, 68760, Note_on_c, 0, 61, 0
2, 69600, Note_on_c, 0, 60, 74
2, 69720, Note_on_c, 0, 60, 0
2, 69720, Note_on_c, 0, 57, 68
2, 69840, Note_on_c, 0, 57, 0
2, 69840, Note_on_c, 0, 62, 71
2, 69960, Note_on_c, 0, 62, 0
2, 69960, Note_on_c, 0, 66, 66
2, 70080, Note_on_c, 0, 66, 0
2, 70080, Note_on_c, 0, 72, 74
2, 70200, Note_on_c, 0, 72, 0
2, 70200, Note_on_c, 0, 69, 66
2, 70320, Note_on_c, 0, 69, 0
2, 70320, Note_on_c, 0, 74, 71
2, 70440, Note_on_c, 0, 74, 0
2, 70440, Note_on_c, 0, 78, 68
2, 70560, Note_on_c, 0, 78, 0
2, 70560, Note_on_c, 0, 84, 75
2, 70680, Note_on_c, 0, 84, 0
2, 70680, Note_on_c, 0, 81, 67
2, 70800, Note_on_c, 0, 81, 0
2, 70800, Note_on_c, 0, 86, 70
2, 70920, Note_on_c, 0, 86, 0
2, 70920, Note_on_c, 0, 90, 67
2, 71040, Note_on_c, 0, 90, 0
2, 71040, Note_on_c, 0, 96, 76
2, 71160, Note_on_c, 0, 96, 0
2, 71160, Note_on_c, 0, 89, 68
2, 71280, Note_on_c, 0, 89, 0
2, 71280, Note_on_c, 0, 86, 71
2, 71400, Note_on_c, 0, 86, 0
2, 71400, Note_on_c, 0, 79, 68
2, 71520, Note_on_c, 0, 79, 0
2, 71520, Note_on_c, 0, 84, 73
2, 71640, Note_on_c, 0, 84, 0
2, 71640, Note_on_c, 0, 77, 66
2, 71760, Note_on_c, 0, 77, 0
2, 71760, Note_on_c, 0, 74, 69
2, 71880, Note_on_c, 0, 74, 0
2, 71880, Note_on_c, 0, 67, 63
2, 72000, Note_on_c, 0, 67, 0
2, 72000, Note_on_c, 0, 72, 74
2, 72120, Note_on_c, 0, 72, 0
2, 72120, Note_on_c, 0, 65, 63
2, 72240, Note_on_c, 0, 65, 0
2, 72240, Note_on_c, 0, 62, 66
2, 72360, Note_on_c, 0, 62, 0
2, 73680, Note_on_c, 0, 60, 61
2, 73800, Note_on_c, 0, 60, 0
2, 73800, Note_on_c, 0, 64, 65
2, 73920, Note_on_c, 0, 64, 0
2, 73920, Note_on_c, 0, 71, 72
2, 74040, Note_on_c, 0, 71, 0
2, 74040, Note_on_c, 0, 67, 61
2, 74160, Note_on_c, 0, 67, 0
2, 74160, Note_on_c, 0, 72, 66
2, 74280, Note_on_c, 0, 72, 0
2, 74280, Note_on_c, 0, 76, 61
2, 74400, Note_on_c, 0, 76, 0
2, 74400, Note_on_c, 0, 83, 73
2, 74520, Note_on_c, 0, 83, 0
2, 74520, Note_on_c, 0, 79, 64
2, 74640, Note_on_c, 0, 79, 0
2, 74640, Note_on_c, 0, 84, 66
2, 74760, Note_on_c, 0, 84, 0
2, 74760, Note_on_c, 0, 88, 63
2, 74880, Note_on_c, 0, 88, 0
2, 74880, Note_on_c, 0, 95, 75
2, 75000, Note_on_c, 0, 95, 0
2, 75000, Note_on_c, 0, 88, 65
2, 75120, Note_on_c, 0, 88, 0
2, 75120, Note_on_c, 0, 84, 67
2, 75240, Note_on_c, 0, 84, 0
2, 75240, Note_on_c, 0, 77, 67
2, 75360, Note_on_c, 0, 77, 0
2, 75360, Note_on_c, 0, 83, 74
2, 75480, Note_on_c, 0, 83, 0
2, 75480, Note_on_c, 0, 76, 64
2, 75600, Note_on_c, 0, 76, 0
2, 75600, Note_on_c, 0, 72, 66
2, 75720, Note_on_c, 0, 72, 0
2, 75720, Note_on_c, 0, 65, 61
2, 75840, Note_on_c, 0, 65, 0
2, 75840, Note_on_c, 0, 71, 73
2, 75960, Note_on_c, 0, 71, 0
2, 75960, Note_on_c, 0, 64, 66
2, 76080, Note_on_c, 0, 64, 0
2, 76080, Note_on_c, 0, 60, 61
2, 76200, Note_on_c, 0, 60, 0
2, 77640, Note_on_c, 0, 62, 66
2, 77760, Note_on_c, 0, 62, 0
2, 77760, Note_on_c, 0, 69, 74
2, 77880, Note_on_c, 0, 69, 0
2, 77880, Note_on_c, 0, 65, 64
2, 78000, Note_on_c, 0, 65, 0
2, 78000, Note_on_c, 0, 71, 68
2, 78120, Note_on_c, 0, 71, 0
2, 78120, Note_on_c, 0, 74, 63
2, 78240, Note_on_c, 0, 74, 0
2, 78240, Note_on_c, 0, 81, 74
2, 78360, Note_on_c, 0, 81, 0
2, 78360, Note_on_c, 0, 77, 64
2, 78480, Note_on_c, 0, 77, 0
2, 78480, Note_on_c, 0, 83, 68
2, 78600, Note_on_c, 0, 83, 0
2, 78600, Note_on_c, 0, 86, 64
2, 78720, Note_on_c, 0, 86, 0
2, 78720, Note_on_c, 0, 91, 75
2, 78840, Note_on_c, 0, 91, 0
2, 78840, Note_on_c, 0, 86, 65
2, 78960, Note_on_c, 0, 86, 0
2, 78960, Note_on_c, 0, 83, 68
2, 79080, Note_on_c, 0, 83, 0
2, 79080, Note_on_c, 0, 76, 65
2, 79200, Note_on_c, 0, 76, 0
2, 79200, Note_on_c, 0, 79, 75
2, 79320, Note_on_c, 0, 79, 0
2, 79320, Note_on_c, 0, 74, 65
2, 79440, Note_on_c, 0, 74, 0
2, 79440, Note_on_c, 0, 71, 68
2, 79560, Note_on_c, 0, 71, 0
2, 79560, Note_on_c, 0, 64, 64
2, 79680, Note_on_c, 0, 64, 0
2, 79680, Note_on_c, 0, 69, 75
2, 79800, Note_on_c, 0, 69, 0
2, 79800, Note_on_c, 0, 72, 64
2, 79920, Note_on_c, 0, 72, 0
2, 79920, Note_on_c, 0, 79, 68
2, 80040, Note_on_c, 0, 79, 0
2, 80040, Note_on_c, 0, 76, 64
2, 80160, Note_on_c, 0, 76, 0
2, 80160, Note_on_c, 0, 81, 75
2, 80280, Note_on_c, 0, 81, 0
2, 80280, Note_on_c, 0, 84, 65
2, 80400, Note_on_c, 0, 84, 0
2, 80400, Note_on_c, 0, 91, 69
2, 80520, Note_on_c, 0, 91, 0
2, 80520, Note_on_c, 0, 88, 65
2, 80640, Note_on_c, 0, 88, 0
2, 80640, Note_on_c, 0, 89, 76
2, 80760, Note_on_c, 0, 89, 0
2, 80760, Note_on_c, 0, 84, 67
2, 80880, Note_on_c, 0, 84, 0
2, 80880, Note_on_c, 0, 81, 70
2, 81000, Note_on_c, 0, 81, 0
2, 81000, Note_on_c, 0, 74, 66
2, 81120, Note_on_c, 0, 74, 0
2, 81120, Note_on_c, 0, 77, 77
2, 81240, Note_on_c, 0, 77, 0
2, 81240, Note_on_c, 0, 72, 67
2, 81360, Note_on_c, 0, 72, 0
2, 81360, Note_on_c, 0, 69, 72
2, 81480, Note_on_c, 0, 69, 0
2, 81480, Note_on_c, 0, 62, 67
2, 81600, Note_on_c, 0, 62, 0
2, 81600, Note_on_c, 0, 67, 78
2, 81720, Note_on_c, 0, 67, 0
2, 81720, Note_on_c, 0, 71, 66
2, 81840, Note_on_c, 0, 71, 0
2, 81840, Note_on_c, 0, 77, 72
2, 81960, Note_on_c, 0, 77, 0
2, 81960, Note_on_c, 0, 74, 68
2, 82080, Note_on_c, 0, 74, 0
2, 82080, Note_on_c, 0, 79, 78
2, 82200, Note_on_c, 0, 79, 0
2, 82200, Note_on_c, 0, 83, 68
2, 82320, Note_on_c, 0, 83, 0
2, 82320, Note_on_c, 0, 89, 74
2, 82440, Note_on_c, 0, 89, 0
2, 82440, Note_on_c, 0, 86, 68
2, 82560, Note_on_c, 0, 86, 0
2, 82560, Note_on_c, 0, 88, 80
2, 82680, Note_on_c, 0, 88, 0
2, 82680, Note_on_c, 0, 83, 70
2, 82800, Note_on_c, 0, 83, 0
2, 82800, Note_on_c, 0, 79, 75
2, 82920, Note_on_c, 0, 79, 0
2, 82920, Note_on_c, 0, 72, 70
2, 83040, Note_on_c, 0, 72, 0
2, 83040, Note_on_c, 0, 76, 83
2, 83160, Note_on_c, 0, 76, 0
2, 83160, Note_on_c, 0, 71, 70
2, 83280, Note_on_c, 0, 71, 0
2, 83280, Note_on_c, 0, 67, 76
2, 83400, Note_on_c, 0, 67, 0
2, 83400, Note_on_c, 0, 60, 70
2, 83520, Note_on_c, 0, 60, 0
2, 83520, Note_on_c, 0, 65, 86
2, 83640, Note_on_c, 0, 65, 0
2, 83640, Note_on_c, 0, 69, 71
2, 83760, Note_on_c, 0, 69, 0
2, 83760, Note_on_c, 0, 76, 77
2, 83880, Note_on_c, 0, 76, 0
2, 83880, Note_on_c, 0, 72, 71
2, 84000, Note_on_c, 0, 72, 0
2, 84000, Note_on_c, 0, 77, 86
2, 84120, Note_on_c, 0, 77, 0
2, 84120, Note_on_c, 0, 81, 73
2, 84240, Note_on_c, 0, 81, 0
2, 84240, Note_on_c, 0, 88, 79
2, 84360, Note_on_c, 0, 88, 0
2, 84360, Note_on_c, 0, 84, 75
2, 84480, Note_on_c, 0, 84, 0
2, 84480, Note_on_c, 0, 86, 90
2, 84600, Note_on_c, 0, 86, 0
2, 84600, Note_on_c, 0, 81, 76
2, 84720, Note_on_c, 0, 81, 0
2, 84720, Note_on_c, 0, 77, 80
2, 84840, Note_on_c, 0, 77, 0
2, 84840, Note_on_c, 0, 71, 75
2, 84960, Note_on_c, 0, 71, 0
2, 84960, Note_on_c, 0, 74, 90
2, 85080, Note_on_c, 0, 74, 0
2, 85080, Note_on_c, 0, 69, 76
2, 85200, Note_on_c, 0, 69, 0
2, 85200, Note_on_c, 0, 65, 80
2, 85320, Note_on_c, 0, 65, 0
2, 85320, Note_on_c, 0, 59, 74
2, 85440, Note_on_c, 0, 59, 0
2, 85440, Note_on_c, 0, 62, 90
2, 85560, Note_on_c, 0, 62, 0
2, 86400, Note_on_c, 0, 87, 91
2, 86520, Note_on_c, 0, 87, 0
2, 86520, Note_on_c, 0, 81, 75
2, 86640, Note_on_c, 0, 81, 0
2, 86640, Note_on_c, 0, 78, 80
2, 86760, Note_on_c, 0, 78, 0
2, 86760, Note_on_c, 0, 71, 75
2, 86880, Note_on_c, 0, 71, 0
2, 86880, Note_on_c, 0, 75, 91
2, 87000, Note_on_c, 0, 75, 0
2, 87000, Note_on_c, 0, 69, 76
2, 87120, Note_on_c, 0, 69, 0
2, 87120, Note_on_c, 0, 66, 80
2, 87240, Note_on_c, 0, 66, 0
2, 87240, Note_on_c, 0, 59, 74
2, 87360, Note_on_c, 0, 59, 0
2, 87360, Note_on_c, 0, 63, 91
2, 87480, Note_on_c, 0, 63, 0
2, 88800, Note_on_c, 0, 64, 91
2, 88920, Note_on_c, 0, 64, 0
2, 88920, Note_on_c, 0, 59, 76
2, 89040, Note_on_c, 0, 59, 0
2, 89040, Note_on_c, 0, 64, 80
2, 89160, Note_on_c, 0, 64, 0
2, 89160, Note_on_c, 0, 68, 77
2, 89280, Note_on_c, 0, 68, 0
2, 89280, Note_on_c, 0, 76, 91
2, 89400, Note_on_c, 0, 76, 0
2, 89400, Note_on_c, 0, 71, 76
2, 89520, Note_on_c, 0, 71, 0
2, 89520, Note_on_c, 0, 76, 80
2, 89640, Note_on_c, 0, 76, 0
2, 89640, Note_on_c, 0, 80, 76
2, 89760, Note_on_c, 0, 80, 0
2, 89760, Note_on_c, 0, 88, 91
2, 89880, Note_on_c, 0, 88, 0
2, 89880, Note_on_c, 0, 83, 75
2, 90000, Note_on_c, 0, 83, 0
2, 90000, Note_on_c, 0, 88, 80
2, 90120, Note_on_c, 0, 88, 0
2, 90120, Note_on_c, 0, 92, 75
2, 90240, Note_on_c, 0, 92, 0
2, 90240, Note_on_c, 0, 100, 91
2, 90360, Note_on_c, 0, 100, 0
2, 90360, Note_on_c, 0, 92, 77
2, 90480, Note_on_c, 0, 92, 0
2, 90480, Note_on_c, 0, 88, 79
2, 90600, Note_on_c, 0, 88, 0
2, 90600, Note_on_c, 0, 83, 74
2, 90720, Note_on_c, 0, 83, 0
2, 90720, Note_on_c, 0, 88, 88
2, 90840, Note_on_c, 0, 88, 0
2, 90840, Note_on_c, 0, 80, 72
2, 90960, Note_on_c, 0, 80, 0
2, 90960, Note_on_c, 0, 76, 76
2, 91080, Note_on_c, 0, 76, 0
2, 91080, Note_on_c, 0, 71, 69
2, 91200, Note_on_c, 0, 71, 0
2, 91200, Note_on_c, 0, 76, 85
2, 91320, Note_on_c, 0, 76, 0
2, 91320, Note_on_c, 0, 68, 69
2, 91440, Note_on_c, 0, 68, 0
2, 91440, Note_on_c, 0, 64, 72
2, 91560, Note_on_c, 0, 64, 0
2, 91560, Note_on_c, 0, 59, 67
2, 91680, Note_on_c, 0, 59, 0
2, 91680, Note_on_c, 0, 65, 80
2, 91800, Note_on_c, 0, 65, 0
2, 91800, Note_on_c, 0, 59, 65
2, 91920, Note_on_c, 0, 59, 0
2, 92640, Note_on_c, 0, 64, 72
2, 92760, Note_on_c, 0, 64, 0
2, 92760, Note_on_c, 0, 60, 63
2, 92880, Note_on_c, 0, 60, 0
2, 92880, Note_on_c, 0, 67, 68
2, 93000, Note_on_c, 0, 67, 0
2, 93000, Note_on_c, 0, 72, 65
2, 93120, Note_on_c, 0, 72, 0
2, 93120, Note_on_c, 0, 76, 76
2, 93240, Note_on_c, 0, 76, 0
2, 93240, Note_on_c, 0, 72, 64
2, 93360, Note_on_c, 0, 72, 0
2, 93360, Note_on_c, 0, 79, 70
2, 93480, Note_on_c, 0, 79, 0
2, 93480, Note_on_c, 0, 84, 64
2, 93600, Note_on_c, 0, 84, 0
2, 93600, Note_on_c, 0, 88, 77
2, 93720, Note_on_c, 0, 88, 0
2, 93720, Note_on_c, 0, 84, 65
2, 93840, Note_on_c, 0, 84, 0
2, 93840, Note_on_c, 0, 91, 70
2, 93960, Note_on_c, 0, 91, 0
2, 93960, Note_on_c, 0, 96, 65
2, 94080, Note_on_c, 0, 96, 0
2, 94080, Note_on_c, 0, 100, 77
2, 94200, Note_on_c, 0, 100, 0
2, 94200, Note_on_c, 0, 96, 66
2, 94320, Note_on_c, 0, 96, 0
2, 94320, Note_on_c, 0, 91, 71
2, 94440, Note_on_c, 0, 91, 0
2, 94440, Note_on_c, 0, 84, 68
2, 94560, Note_on_c, 0, 84, 0
2, 94560, Note_on_c, 0, 88, 77
2, 94680, Note_on_c, 0, 88, 0
2, 94680, Note_on_c, 0, 84, 66
2, 94800, Note_on_c, 0, 84, 0
2, 94800, Note_on_c, 0, 79, 70
2, 94920, Note_on_c, 0, 79, 0
2, 94920, Note_on_c, 0, 72, 65
2, 95040, Note_on_c, 0, 72, 0
2, 95040, Note_on_c, 0, 76, 76
2, 95160, Note_on_c, 0, 76, 0
2, 95160, Note_on_c, 0, 72, 65
2, 95280, Note_on_c, 0, 72, 0
2, 95280, Note_on_c, 0, 67, 69
2, 95400, Note_on_c, 0, 67, 0
2, 95400, Note_on_c, 0, 60, 63
2, 95520, Note_on_c, 0, 60, 0
2, 95520, Note_on_c, 0, 64, 75
2, 95640, Note_on_c, 0, 64, 0
2, 95640, Note_on_c, 0, 60, 63
2, 95760, Note_on_c, 0, 60, 0
2, 96480, Note_on_c, 0, 65, 78
2, 96600, Note_on_c, 0, 65, 0
2, 96600, Note_on_c, 0, 60, 64
2, 96720, Note_on_c, 0, 60, 0
2, 96720, Note_on_c, 0, 69, 69
2, 96840, Note_on_c, 0, 69, 0
2, 96840, Note_on_c, 0, 72, 67
2, 96960, Note_on_c, 0, 72, 0
2, 96960, Note_on_c, 0, 77, 82
2, 97080, Note_on_c, 0, 77, 0
2, 97080, Note_on_c, 0, 72, 68
2, 97200, Note_on_c, 0, 72, 0
2, 97200, Note_on_c, 0, 81, 73
2, 97320, Note_on_c, 0, 81, 0
2, 97320, Note_on_c, 0, 84, 69
2, 97440, Note_on_c, 0, 84, 0
2, 97440, Note_on_c, 0, 89, 83
2, 97560, Note_on_c, 0, 89, 0
2, 97560, Note_on_c, 0, 84, 69
2, 97680, Note_on_c, 0, 84, 0
2, 97680, Note_on_c, 0, 93, 74
2, 97800, Note_on_c, 0, 93, 0
2, 97800, Note_on_c, 0, 96, 70
2, 97920, Note_on_c, 0, 96, 0
2, 97920, Note_on_c, 0, 100, 88
2, 98040, Note_on_c, 0, 100, 0
2, 98040, Note_on_c, 0, 96, 70
2, 98160, Note_on_c, 0, 96, 0
2, 98160, Note_on_c, 0, 93, 77
2, 98280, Note_on_c, 0, 93, 0
2, 98280, Note_on_c, 0, 84, 71
2, 98400, Note_on_c, 0, 84, 0
2, 98400, Note_on_c, 0, 88, 89
2, 98520, Note_on_c, 0, 88, 0
2, 98520, Note_on_c, 0, 84, 72
2, 98640, Note_on_c, 0, 84, 0
2, 98640, Note_on_c, 0, 81, 79
2, 98760, Note_on_c, 0, 81, 0
2, 98760, Note_on_c, 0, 72, 73
2, 98880, Note_on_c, 0, 72, 0
2, 98880, Note_on_c, 0, 76, 89
2, 99000, Note_on_c, 0, 76, 0
2, 99000, Note_on_c, 0, 72, 73
2, 99120, Note_on_c, 0, 72, 0
2, 99120, Note_on_c, 0, 69, 78
2, 99240, Note_on_c, 0, 69, 0
2, 99240, Note_on_c, 0, 60, 72
2, 99360, Note_on_c, 0, 60, 0
2, 99360, Note_on_c, 0, 62, 90
2, 99480, Note_on_c, 0, 62, 0
2, 99480, Note_on_c, 0, 60, 72
2, 99600, Note_on_c, 0, 60, 0
2, 100320, Note_on_c, 0, 62, 91
2, 100440, Note_on_c, 0, 62, 0
2, 100440, Note_on_c, 0, 59, 75
2, 100560, Note_on_c, 0, 59, 0
2, 100560, Note_on_c, 0, 67, 80
2, 100680, Note_on_c, 0, 67, 0
2, 100680, Note_on_c, 0, 71, 76
2, 100800, Note_on_c, 0, 71, 0
2, 100800, Note_on_c, 0, 74, 93
2, 100920, Note_on_c, 0, 74, 0
2, 100920, Note_on_c, 0, 71, 76
2, 101040, Note_on_c, 0, 71, 0
2, 101040, Note_on_c, 0, 79, 82
2, 101160, Note_on_c, 0, 79, 0
2, 101160, Note_on_c, 0, 83, 76
2, 101280, Note_on_c, 0, 83, 0
2, 101280, Note_on_c, 0, 86, 94
2, 101400, Note_on_c, 0, 86, 0
2, 101400, Note_on_c, 0, 83, 76
2, 101520, Note_on_c, 0, 83, 0
2, 101520, Note_on_c, 0, 91, 83
2, 101640, Note_on_c, 0, 91, 0
2, 101640, Note_on_c, 0, 93, 76
2, 101760, Note_on_c, 0, 93, 0
2, 101760, Note_on_c, 0, 98, 96
2, 101880, Note_on_c, 0, 98, 0
2, 101880, Note_on_c, 0, 93, 77
2, 102000, Note_on_c, 0, 93, 0
2, 102000, Note_on_c, 0, 90, 84
2, 102120, Note_on_c, 0, 90, 0
2, 102120, Note_on_c, 0, 84, 76
2, 102240, Note_on_c, 0, 84, 0
2, 102240, Note_on_c, 0, 86, 95
2, 102360, Note_on_c, 0, 86, 0
2, 102360, Note_on_c, 0, 81, 76
2, 102480, Note_on_c, 0, 81, 0
2, 102480, Note_on_c, 0, 78, 83
2, 102600, Note_on_c, 0, 78, 0
2, 102600, Note_on_c, 0, 72, 77
2, 102720, Note_on_c, 0, 72, 0
2, 102720, Note_on_c, 0, 74, 93
2, 102840, Note_on_c, 0, 74, 0
2, 102840, Note_on_c, 0, 69, 77
2, 102960, Note_on_c, 0, 69, 0
2, 102960, Note_on_c, 0, 66, 81
2, 103080, Note_on_c, 0, 66, 0
2, 103080, Note_on_c, 0, 60, 76
2, 103200, Note_on_c, 0, 60, 0
2, 103200, Note_on_c, 0, 62, 91
2, 103320, Note_on_c, 0, 62, 0
2, 104160, Note_on_c, 0, 62, 91
2, 104280, Note_on_c, 0, 62, 0
2, 104280, Note_on_c, 0, 60, 74
2, 104400, Note_on_c, 0, 60, 0
2, 104400, Note_on_c, 0, 65, 80
2, 104520, Note_on_c, 0, 65, 0
2, 104520, Note_on_c, 0, 68, 76
2, 104640, Note_on_c, 0, 68, 0
2, 104640, Note_on_c, 0, 74, 93
2, 104760, Note_on_c, 0, 74, 0
2, 104760, Note_on_c, 0, 72, 76
2, 104880, Note_on_c, 0, 72, 0
2, 104880, Note_on_c, 0, 77, 82
2, 105000, Note_on_c, 0, 77, 0
2, 105000, Note_on_c, 0, 80, 77
2, 105120, Note_on_c, 0, 80, 0
2, 105120, Note_on_c, 0, 86, 94
2, 105240, Note_on_c, 0, 86, 0
2, 105240, Note_on_c, 0, 84, 78
2, 105360, Note_on_c, 0, 84, 0
2, 105360, Note_on_c, 0, 89, 83
2, 105480, Note_on_c, 0, 89, 0
2, 105480, Note_on_c, 0, 92, 76
2, 105600, Note_on_c, 0, 92, 0
2, 105600, Note_on_c, 0, 98, 95
2, 105720, Note_on_c, 0, 98, 0
2, 105720, Note_on_c, 0, 91, 78
2, 105840, Note_on_c, 0, 91, 0
2, 105840, Note_on_c, 0, 89, 84
2, 105960, Note_on_c, 0, 89, 0
2, 105960, Note_on_c, 0, 83, 77
2, 106080, Note_on_c, 0, 83, 0
2, 106080, Note_on_c, 0, 86, 94
2, 106200, Note_on_c, 0, 86, 0
2, 106200, Note_on_c, 0, 79, 78
2, 106320, Note_on_c, 0, 79, 0
2, 106320, Note_on_c, 0, 77, 83
2, 106440, Note_on_c, 0, 77, 0
2, 106440, Note_on_c, 0, 71, 77
2, 106560, Note_on_c, 0, 71, 0
2, 106560, Note_on_c, 0, 74, 92
2, 106680, Note_on_c, 0, 74, 0
2, 106680, Note_on_c, 0, 67, 77
2, 106800, Note_on_c, 0, 67, 0
2, 106800, Note_on_c, 0, 65, 81
2, 106920, Note_on_c, 0, 65, 0
2, 106920, Note_on_c, 0, 59, 75
2, 107040, Note_on_c, 0, 59, 0
2, 107040, Note_on_c, 0, 63, 91
2, 107160, Note_on_c, 0, 63, 0
2, 108000, Note_on_c, 0, 64, 92
2, 108120, Note_on_c, 0, 64, 0
2, 108120, Note_on_c, 0, 60, 75
2, 108240, Note_on_c, 0, 60, 0
2, 108240, Note_on_c, 0, 67, 80
2, 108360, Note_on_c, 0, 67, 0
2, 108360, Note_on_c, 0, 72, 76
2, 108480, Note_on_c, 0, 72, 0
2, 108480, Note_on_c, 0, 76, 93
2, 108600, Note_on_c, 0, 76, 0
2, 108600, Note_on_c, 0, 72, 76
2, 108720, Note_on_c, 0, 72, 0
2, 108720, Note_on_c, 0, 79, 82
2, 108840, Note_on_c, 0, 79, 0
2, 108840, Note_on_c, 0, 84, 76
2, 108960, Note_on_c, 0, 84, 0
2, 108960, Note_on_c, 0, 88, 94
2, 109080, Note_on_c, 0, 88, 0
2, 109080, Note_on_c, 0, 84, 78
2, 109200, Note_on_c, 0, 84, 0
2, 109200, Note_on_c, 0, 91, 83
2, 109320, Note_on_c, 0, 91, 0
2, 109320, Note_on_c, 0, 96, 78
2, 109440, Note_on_c, 0, 96, 0
2, 109440, Note_on_c, 0, 100, 96
2, 109560, Note_on_c, 0, 100, 0
2, 109560, Note_on_c, 0, 96, 77
2, 109680, Note_on_c, 0, 96, 0
2, 109680, Note_on_c, 0, 91, 84
2, 109800, Note_on_c, 0, 91, 0
2, 109800, Note_on_c, 0, 84, 77
2, 109920, Note_on_c, 0, 84, 0
2, 109920, Note_on_c, 0, 88, 95
2, 110040, Note_on_c, 0, 88, 0
2, 110040, Note_on_c, 0, 84, 76
2, 110160, Note_on_c, 0, 84, 0
2, 110160, Note_on_c, 0, 79, 83
2, 110280, Note_on_c, 0, 79, 0
2, 110280, Note_on_c, 0, 72, 76
2, 110400, Note_on_c, 0, 72, 0
2, 110400, Note_on_c, 0, 76, 94
2, 110520, Note_on_c, 0, 76, 0
2, 110520, Note_on_c, 0, 72, 77
2, 110640, Note_on_c, 0, 72, 0
2, 110640, Note_on_c, 0, 67, 81
2, 110760, Note_on_c, 0, 67, 0
2, 110760, Note_on_c, 0, 60, 77
2, 110880, Note_on_c, 0, 60, 0
2, 110880, Note_on_c, 0, 64, 92
2, 111000, Note_on_c, 0, 64, 0
2, 111000, Note_on_c, 0, 60, 76
2, 111120, Note_on_c, 0, 60, 0
2, 111840, Note_on_c, 0, 65, 85
2, 111960, Note_on_c, 0, 65, 0
2, 111960, Note_on_c, 0, 60, 75
2, 112080, Note_on_c, 0, 60, 0
2, 112080, Note_on_c, 0, 65, 80
2, 112200, Note_on_c, 0, 65, 0
2, 112200, Note_on_c, 0, 72, 76
2, 112320, Note_on_c, 0, 72, 0
2, 112320, Note_on_c, 0, 77, 88
2, 112440, Note_on_c, 0, 77, 0
2, 112440, Note_on_c, 0, 72, 76
2, 112560, Note_on_c, 0, 72, 0
2, 112560, Note_on_c, 0, 77, 82
2, 112680, Note_on_c, 0, 77, 0
2, 112680, Note_on_c, 0, 84, 77
2, 112800, Note_on_c, 0, 84, 0
2, 112800, Note_on_c, 0, 89, 90
2, 112920, Note_on_c, 0, 89, 0
2, 112920, Note_on_c, 0, 84, 78
2, 113040, Note_on_c, 0, 84, 0
2, 113040, Note_on_c, 0, 89, 83
2, 113160, Note_on_c, 0, 89, 0
2, 113160, Note_on_c, 0, 96, 78
2, 113280, Note_on_c, 0, 96, 0
2, 113280, Note_on_c, 0, 100, 92
2, 113400, Note_on_c, 0, 100, 0
2, 113400, Note_on_c, 0, 96, 78
2, 113520, Note_on_c, 0, 96, 0
2, 113520, Note_on_c, 0, 90, 84
2, 113640, Note_on_c, 0, 90, 0
2, 113640, Note_on_c, 0, 84, 78
2, 113760, Note_on_c, 0, 84, 0
2, 113760, Note_on_c, 0, 88, 91
2, 113880, Note_on_c, 0, 88, 0
2, 113880, Note_on_c, 0, 84, 79
2, 114000, Note_on_c, 0, 84, 0
2, 114000, Note_on_c, 0, 78, 83
2, 114120, Note_on_c, 0, 78, 0
2, 114120, Note_on_c, 0, 72, 76
2, 114240, Note_on_c, 0, 72, 0
2, 114240, Note_on_c, 0, 75, 90
2, 114360, Note_on_c, 0, 75, 0
2, 114360, Note_on_c, 0, 72, 78
2, 114480, Note_on_c, 0, 72, 0
2, 114480, Note_on_c, 0, 66, 81
2, 114600, Note_on_c, 0, 66, 0
2, 114600, Note_on_c, 0, 60, 75
2, 114720, Note_on_c, 0, 60, 0
2, 114720, Note_on_c, 0, 63, 86
2, 114840, Note_on_c, 0, 63, 0
2, 114840, Note_on_c, 0, 60, 74
2, 114960, Note_on_c, 0, 60, 0
2, 115680, Note_on_c, 0, 62, 78
2, 115800, Note_on_c, 0, 62, 0
2, 115800, Note_on_c, 0, 60, 71
2, 115920, Note_on_c, 0, 60, 0
2, 115920, Note_on_c, 0, 67, 76
2, 116040, Note_on_c, 0, 67, 0
2, 116040, Note_on_c, 0, 72, 73
2, 116160, Note_on_c, 0, 72, 0
2, 116160, Note_on_c, 0, 74, 83
2, 116280, Note_on_c, 0, 74, 0
2, 116280, Note_on_c, 0, 72, 74
2, 116400, Note_on_c, 0, 72, 0
2, 116400, Note_on_c, 0, 79, 76
2, 116520, Note_on_c, 0, 79, 0
2, 116520, Note_on_c, 0, 84, 72
2, 116640, Note_on_c, 0, 84, 0
2, 116640, Note_on_c, 0, 86, 85
2, 116760, Note_on_c, 0, 86, 0
2, 116760, Note_on_c, 0, 84, 75
2, 116880, Note_on_c, 0, 84, 0
2, 116880, Note_on_c, 0, 91, 77
2, 117000, Note_on_c, 0, 91, 0
2, 117000, Note_on_c, 0, 96, 71
2, 117120, Note_on_c, 0, 96, 0
2, 117120, Note_on_c, 0, 98, 87
2, 117240, Note_on_c, 0, 98, 0
2, 117240, Note_on_c, 0, 95, 73
2, 117360, Note_on_c, 0, 95, 0
2, 117360, Note_on_c, 0, 91, 78
2, 117480, Note_on_c, 0, 91, 0
2, 117480, Note_on_c, 0, 83, 73
2, 117600, Note_on_c, 0, 83, 0
2, 117600, Note_on_c, 0, 86, 83
2, 117720, Note_on_c, 0, 86, 0
2, 117720, Note_on_c, 0, 83, 73
2, 117840, Note_on_c, 0, 83, 0
2, 117840, Note_on_c, 0, 79, 76
2, 117960, Note_on_c, 0, 79, 0
2, 117960, Note_on_c, 0, 71, 71
2, 118080, Note_on_c, 0, 71, 0
2, 118080, Note_on_c, 0, 74, 82
2, 118200, Note_on_c, 0, 74, 0
2, 118200, Note_on_c, 0, 71, 70
2, 118320, Note_on_c, 0, 71, 0
2, 118320, Note_on_c, 0, 67, 74
2, 118440, Note_on_c, 0, 67, 0
2, 118440, Note_on_c, 0, 59, 70
2, 118560, Note_on_c, 0, 59, 0
2, 118560, Note_on_c, 0, 62, 80
2, 118680, Note_on_c, 0, 62, 0
2, 118680, Note_on_c, 0, 59, 68
2, 118800, Note_on_c, 0, 59, 0
2, 119520, Note_on_c, 0, 62, 75
2, 119640, Note_on_c, 0, 62, 0
2, 119640, Note_on_c, 0, 60, 68
2, 119760, Note_on_c, 0, 60, 0
2, 119760, Note_on_c, 0, 69, 73
2, 119880, Note_on_c, 0, 69, 0
2, 119880, Note_on_c, 0, 72, 69
2, 120000, Note_on_c, 0, 72, 0
2, 120000, Note_on_c, 0, 74, 77
2, 120120, Note_on_c, 0, 74, 0
2, 120120, Note_on_c, 0, 72, 70
2, 120240, Note_on_c, 0, 72, 0
2, 120240, Note_on_c, 0, 81, 73
2, 120360, Note_on_c, 0, 81, 0
2, 120360, Note_on_c, 0, 84, 72
2, 120480, Note_on_c, 0, 84, 0
2, 120480, Note_on_c, 0, 86, 81
2, 120600, Note_on_c, 0, 86, 0
2, 120600, Note_on_c, 0, 84, 72
2, 120720, Note_on_c, 0, 84, 0
2, 120720, Note_on_c, 0, 93, 74
2, 120840, Note_on_c, 0, 93, 0
2, 120840, Note_on_c, 0, 96, 69
2, 120960, Note_on_c, 0, 96, 0
2, 120960, Note_on_c, 0, 99, 82
2, 121080, Note_on_c, 0, 99, 0
2, 121080, Note_on_c, 0, 96, 70
2, 121200, Note_on_c, 0, 96, 0
2, 121200, Note_on_c, 0, 93, 75
2, 121320, Note_on_c, 0, 93, 0
2, 121320, Note_on_c, 0, 84, 69
2, 121440, Note_on_c, 0, 84, 0
2, 121440, Note_on_c, 0, 87, 81
2, 121560, Note_on_c, 0, 87, 0
2, 121560, Note_on_c, 0, 84, 70
2, 121680, Note_on_c, 0, 84, 0
2, 121680, Note_on_c, 0, 81, 74
2, 121800, Note_on_c, 0, 81, 0
2, 121800, Note_on_c, 0, 72, 70
2, 121920, Note_on_c, 0, 72, 0
2, 121920, Note_on_c, 0, 75, 79
2, 122040, Note_on_c, 0, 75, 0
2, 122040, Note_on_c, 0, 71, 70
2, 122160, Note_on_c, 0, 71, 0
2, 122160, Note_on_c, 0, 69, 71
2, 122280, Note_on_c, 0, 69, 0
2, 122280, Note_on_c, 0, 59, 67
2, 122400, Note_on_c, 0, 59, 0
2, 122400, Note_on_c, 0, 63, 78
2, 122520, Note_on_c, 0, 63, 0
2, 122520, Note_on_c, 0, 59, 67
2, 122640, Note_on_c, 0, 59, 0
2, 123360, Note_on_c, 0, 64, 74
2, 123480, Note_on_c, 0, 64, 0
2, 123480, Note_on_c, 0, 59, 66
2, 123600, Note_on_c, 0, 59, 0
2, 123600, Note_on_c, 0, 68, 70
2, 123720, Note_on_c, 0, 68, 0
2, 123720, Note_on_c, 0, 71, 66
2, 123840, Note_on_c, 0, 71, 0
2, 123840, Note_on_c, 0, 76, 78
2, 123960, Note_on_c, 0, 76, 0
2, 123960, Note_on_c, 0, 71, 66
2, 124080, Note_on_c, 0, 71, 0
2, 124080, Note_on_c, 0, 80, 71
2, 124200, Note_on_c, 0, 80, 0
2, 124200, Note_on_c, 0, 83, 67
2, 124320, Note_on_c, 0, 83, 0
2, 124320, Note_on_c, 0, 88, 80
2, 124440, Note_on_c, 0, 88, 0
2, 124440, Note_on_c, 0, 83, 68
2, 124560, Note_on_c, 0, 83, 0
2, 124560, Note_on_c, 0, 92, 71
2, 124680, Note_on_c, 0, 92, 0
2, 124680, Note_on_c, 0, 95, 68
2, 124800, Note_on_c, 0, 95, 0
2, 124800, Note_on_c, 0, 100, 81
2, 124920, Note_on_c, 0, 100, 0
2, 124920, Note_on_c, 0, 95, 69
2, 125040, Note_on_c, 0, 95, 0
2, 125040, Note_on_c, 0, 92, 71
2, 125160, Note_on_c, 0, 92, 0
2, 125160, Note_on_c, 0, 83, 65
2, 125280, Note_on_c, 0, 83, 0
2, 125280, Note_on_c, 0, 88, 79
2, 125400, Note_on_c, 0, 88, 0
2, 125400, Note_on_c, 0, 83, 66
2, 125520, Note_on_c, 0, 83, 0
2, 125520, Note_on_c, 0, 80, 69
2, 125640, Note_on_c, 0, 80, 0
2, 125640, Note_on_c, 0, 71, 62
2, 125760, Note_on_c, 0, 71, 0
2, 125760, Note_on_c, 0, 76, 75
2, 125880, Note_on_c, 0, 76, 0
2, 125880, Note_on_c, 0, 71, 62
2, 126000, Note_on_c, 0, 71, 0
2, 126000, Note_on_c, 0, 68, 65
2, 126120, Note_on_c, 0, 68, 0
2, 126120, Note_on_c, 0, 59, 60
2, 126240, Note_on_c, 0, 59, 0
2, 126240, Note_on_c, 0, 64, 70
2, 126360, Note_on_c, 0, 64, 0
2, 126360, Note_on_c, 0, 59, 59
2, 126480, Note_on_c, 0, 59, 0
2, 127200, Note_on_c, 0, 65, 62
2, 127320, Note_on_c, 0, 65, 0
2, 127320, Note_on_c, 0, 62, 50
2, 127440, Note_on_c, 0, 62, 0
2, 127440, Note_on_c, 0, 69, 54
2, 127560, Note_on_c, 0, 69, 0
2, 127560, Note_on_c, 0, 72, 52
2, 127680, Note_on_c, 0, 72, 0
2, 127680, Note_on_c, 0, 77, 63
2, 127800, Note_on_c, 0, 77, 0
2, 127800, Note_on_c, 0, 74, 51
2, 127920, Note_on_c, 0, 74, 0
2, 127920, Note_on_c, 0, 81, 55
2, 128040, Note_on_c, 0, 81, 0
2, 128040, Note_on_c, 0, 84, 52
2, 128160, Note_on_c, 0, 84, 0
2, 128160, Note_on_c, 0, 89, 63
2, 128280, Note_on_c, 0, 89, 0
2, 128280, Note_on_c, 0, 86, 53
2, 128400, Note_on_c, 0, 86, 0
2, 128400, Note_on_c, 0, 93, 56
2, 128520, Note_on_c, 0, 93, 0
2, 128520, Note_on_c, 0, 96, 53
2, 128640, Note_on_c, 0, 96, 0
2, 128640, Note_on_c, 0, 101, 64
2, 128760, Note_on_c, 0, 101, 0
2, 128760, Note_on_c, 0, 95, 53
2, 128880, Note_on_c, 0, 95, 0
2, 128880, Note_on_c, 0, 91, 57
2, 129000, Note_on_c, 0, 91, 0
2, 129000, Note_on_c, 0, 86, 52
2, 129120, Note_on_c, 0, 86, 0
2, 129120, Note_on_c, 0, 89, 63
2, 129240, Note_on_c, 0, 89, 0
2, 129240, Note_on_c, 0, 86, 50
2, 129360, Note_on_c, 0, 86, 0
2, 129360, Note_on_c, 0, 79, 56
2, 129480, Note_on_c, 0, 79, 0
2, 129480, Note_on_c, 0, 74, 51
2, 129600, Note_on_c, 0, 74, 0
2, 129600, Note_on_c, 0, 77, 62
2, 129720, Note_on_c, 0, 77, 0
2, 129720, Note_on_c, 0, 71, 52
2, 129840, Note_on_c, 0, 71, 0
2, 129840, Note_on_c, 0, 67, 55
2, 129960, Note_on_c, 0, 67, 0
2, 129960, Note_on_c, 0, 62, 52
2, 130080, Note_on_c, 0, 62, 0
2, 130080, Note_on_c, 0, 65, 62
2, 130200, Note_on_c, 0, 65, 0
2, 130200, Note_on_c, 0, 59, 50
2, 130320, Note_on_c, 0, 59, 0
2, 131040, Note_on_c, 0, 64, 63
2, 131160, Note_on_c, 0, 64, 0
2, 131160, Note_on_c, 0, 60, 53
2, 131280, Note_on_c, 0, 60, 0
2, 131280, Note_on_c, 0, 67, 57
2, 131400, Note_on_c, 0, 67, 0
2, 131400, Note_on_c, 0, 72, 52
2, 131520, Note_on_c, 0, 72, 0
2, 131520, Note_on_c, 0, 76, 65
2, 131640, Note_on_c, 0, 76, 0
2, 131640, Note_on_c, 0, 72, 52
2, 131760, Note_on_c, 0, 72, 0
2, 131760, Note_on_c, 0, 82, 58
2, 131880, Note_on_c, 0, 82, 0
2, 131880, Note_on_c, 0, 84, 53
2, 132000, Note_on_c, 0, 84, 0
2, 132000, Note_on_c, 0, 91, 70
2, 132120, Note_on_c, 0, 91, 0
2, 132120, Note_on_c, 0, 84, 61
2, 132240, Note_on_c, 0, 84, 0
2, 132240, Note_on_c, 0, 82, 63
2, 132360, Note_on_c, 0, 82, 0
2, 132360, Note_on_c, 0, 76, 63
2, 132480, Note_on_c, 0, 76, 0
2, 132480, Note_on_c, 0, 90, 70
2, 132600, Note_on_c, 0, 90, 0
2, 132600, Note_on_c, 0, 84, 61
2, 132720, Note_on_c, 0, 84, 0
2, 132720, Note_on_c, 0, 81, 63
2, 132840, Note_on_c, 0, 81, 0
2, 132840, Note_on_c, 0, 75, 61
2, 132960, Note_on_c, 0, 75, 0
2, 132960, Note_on_c, 0, 78, 68
2, 133080, Note_on_c, 0, 78, 0
2, 133080, Note_on_c, 0, 72, 62
2, 133200, Note_on_c, 0, 72, 0
2, 133200, Note_on_c, 0, 69, 63
2, 133320, Note_on_c, 0, 69, 0
2, 133320, Note_on_c, 0, 63, 61
2, 133440, Note_on_c, 0, 63, 0
2, 133440, Note_on_c, 0, 77, 68
2, 133560, Note_on_c, 0, 77, 0
2, 133560, Note_on_c, 0, 71, 60
2, 133680, Note_on_c, 0, 71, 0
2, 133680, Note_on_c, 0, 68, 60
2, 133800, Note_on_c, 0, 68, 0
2, 133800, Note_on_c, 0, 62, 58
2, 133920, Note_on_c, 0, 62, 0
2, 133920, Note_on_c, 0, 65, 70
2, 134040, Note_on_c, 0, 65, 0
2, 134040, Note_on_c, 0, 59, 61
2, 134160, Note_on_c, 0, 59, 0
2, 134880, Note_on_c, 0, 64, 71
2, 135000, Note_on_c, 0, 64, 0
2, 135000, Note_on_c, 0, 60, 65
2, 135120, Note_on_c, 0, 60, 0
2, 135120, Note_on_c, 0, 67, 69
2, 135240, Note_on_c, 0, 67, 0
2, 135240, Note_on_c, 0, 72, 65
2, 135360, Note_on_c, 0, 72, 0
2, 135360, Note_on_c, 0, 79, 75
2, 135480, Note_on_c, 0, 79, 0
2, 135480, Note_on_c, 0, 76, 67
2, 135600, Note_on_c, 0, 76, 0
2, 135600, Note_on_c, 0, 79, 73
2, 135720, Note_on_c, 0, 79, 0
2, 135720, Note_on_c, 0, 84, 68
2, 135840, Note_on_c, 0, 84, 0
2, 135840, Note_on_c, 0, 88, 80
2, 135960, Note_on_c, 0, 88, 0
2, 135960, Note_on_c, 0, 84, 72
2, 136080, Note_on_c, 0, 84, 0
2, 136080, Note_on_c, 0, 79, 77
2, 136200, Note_on_c, 0, 79, 0
2, 136200, Note_on_c, 0, 72, 73
2, 136320, Note_on_c, 0, 72, 0
2, 136320, Note_on_c, 0, 87, 86
2, 136440, Note_on_c, 0, 87, 0
2, 136440, Note_on_c, 0, 81, 75
2, 136560, Note_on_c, 0, 81, 0
2, 136560, Note_on_c, 0, 78, 79
2, 136680, Note_on_c, 0, 78, 0
2, 136680, Note_on_c, 0, 72, 73
2, 136800, Note_on_c, 0, 72, 0
2, 136800, Note_on_c, 0, 75, 84
2, 136920, Note_on_c, 0, 75, 0
2, 136920, Note_on_c, 0, 69, 70
2, 137040, Note_on_c, 0, 69, 0
2, 137040, Note_on_c, 0, 66, 76
2, 137160, Note_on_c, 0, 66, 0
2, 137160, Note_on_c, 0, 60, 71
2, 137280, Note_on_c, 0, 60, 0
2, 137280, Note_on_c, 0, 74, 80
2, 137400, Note_on_c, 0, 74, 0
2, 137400, Note_on_c, 0, 68, 70
2, 137520, Note_on_c, 0, 68, 0
2, 137520, Note_on_c, 0, 65, 72
2, 137640, Note_on_c, 0, 65, 0
2, 137640, Note_on_c, 0, 59, 68
2, 137760, Note_on_c, 0, 59, 0
2, 137760, Note_on_c, 0, 62, 80
2, 137880, Note_on_c, 0, 62, 0
2, 138960, Note_on_c, 0, 64, 69
2, 139080, Note_on_c, 0, 64, 0
2, 139080, Note_on_c, 0, 67, 64
2, 139200, Note_on_c, 0, 67, 0
2, 139200, Note_on_c, 0, 73, 75
2, 139320, Note_on_c, 0, 73, 0
2, 139320, Note_on_c, 0, 70, 66
2, 139440, Note_on_c, 0, 70, 0
2, 139440, Note_on_c, 0, 76, 73
2, 139560, Note_on_c, 0, 76, 0
2, 139560, Note_on_c, 0, 79, 69
2, 139680, Note_on_c, 0, 79, 0
2, 139680, Note_on_c, 0, 85, 80
2, 139800, Note_on_c, 0, 85, 0
2, 139800, Note_on_c, 0, 82, 71
2, 139920, Note_on_c, 0, 82, 0
2, 139920, Note_on_c, 0, 88, 77
2, 140040, Note_on_c, 0, 88, 0
2, 140040, Note_on_c, 0, 91, 73
2, 140160, Note_on_c, 0, 91, 0
2, 140160, Note_on_c, 0, 97, 84
2, 140280, Note_on_c, 0, 97, 0
2, 140280, Note_on_c, 0, 90, 75
2, 140400, Note_on_c, 0, 90, 0
2, 140400, Note_on_c, 0, 87, 79
2, 140520, Note_on_c, 0, 87, 0
2, 140520, Note_on_c, 0, 81, 72
2, 140640, Note_on_c, 0, 81, 0
2, 140640, Note_on_c, 0, 85, 82
2, 140760, Note_on_c, 0, 85, 0
2, 140760, Note_on_c, 0, 78, 71
2, 140880, Note_on_c, 0, 78, 0
2, 140880, Note_on_c, 0, 75, 76
2, 141000, Note_on_c, 0, 75, 0
2, 141000, Note_on_c, 0, 69, 69
2, 141120, Note_on_c, 0, 69, 0
2, 141120, Note_on_c, 0, 73, 81
2, 141240, Note_on_c, 0, 73, 0
2, 141240, Note_on_c, 0, 66, 68
2, 141360, Note_on_c, 0, 66, 0
2, 141360, Note_on_c, 0, 63, 72
2, 141480, Note_on_c, 0, 63, 0
2, 141480, Note_on_c, 0, 57, 68
2, 141600, Note_on_c, 0, 57, 0
2, 141600, Note_on_c, 0, 72, 78
2, 141720, Note_on_c, 0, 72, 0
2, 141720, Note_on_c, 0, 66, 65
2, 141840, Note_on_c, 0, 66, 0
2, 141840, Note_on_c, 0, 63, 69
2, 141960, Note_on_c, 0, 63, 0
2, 141960, Note_on_c, 0, 57, 64
2, 142080, Note_on_c, 0, 57, 0
2, 142200, Note_on_c, 0, 56, 68
2, 142320, Note_on_c, 0, 56, 0
2, 142320, Note_on_c, 0, 62, 64
2, 142440, Note_on_c, 0, 62, 0
2, 142440, Note_on_c, 0, 65, 69
2, 142560, Note_on_c, 0, 65, 0
2, 142560, Note_on_c, 0, 72, 76
2, 142680, Note_on_c, 0, 72, 0
2, 142680, Note_on_c, 0, 68, 68
2, 142800, Note_on_c, 0, 68, 0
2, 142800, Note_on_c, 0, 74, 72
2, 142920, Note_on_c, 0, 74, 0
2, 142920, Note_on_c, 0, 77, 69
2, 143040, Note_on_c, 0, 77, 0
2, 143040, Note_on_c, 0, 84, 78
2, 143160, Note_on_c, 0, 84, 0
2, 143160, Note_on_c, 0, 80, 71
2, 143280, Note_on_c, 0, 80, 0
2, 143280, Note_on_c, 0, 86, 75
2, 143400, Note_on_c, 0, 86, 0
2, 143400, Note_on_c, 0, 89, 72
2, 143520, Note_on_c, 0, 89, 0
2, 143520, Note_on_c, 0, 96, 81
2, 143640, Note_on_c, 0, 96, 0
2, 143640, Note_on_c, 0, 89, 74
2, 143760, Note_on_c, 0, 89, 0
2, 143760, Note_on_c, 0, 86, 78
2, 143880, Note_on_c, 0, 86, 0
2, 143880, Note_on_c, 0, 80, 74
2, 144000, Note_on_c, 0, 80, 0
2, 144000, Note_on_c, 0, 95, 86
2, 144120, Note_on_c, 0, 95, 0
2, 144120, Note_on_c, 0, 89, 74
2, 144240, Note_on_c, 0, 89, 0
2, 144240, Note_on_c, 0, 86, 79
2, 144360, Note_on_c, 0, 86, 0
2, 144360, Note_on_c, 0, 79, 74
2, 144480, Note_on_c, 0, 79, 0
2, 144480, Note_on_c, 0, 83, 81
2, 144600, Note_on_c, 0, 83, 0
2, 144600, Note_on_c, 0, 77, 73
2, 144720, Note_on_c, 0, 77, 0
2, 144720, Note_on_c, 0, 74, 76
2, 144840, Note_on_c, 0, 74, 0
2, 144840, Note_on_c, 0, 67, 71
2, 144960, Note_on_c, 0, 67, 0
2, 144960, Note_on_c, 0, 71, 77
2, 145080, Note_on_c, 0, 71, 0
2, 145080, Note_on_c, 0, 65, 69
2, 145200, Note_on_c, 0, 65, 0
2, 145200, Note_on_c, 0, 62, 73
2, 145320, Note_on_c, 0, 62, 0
2, 146640, Note_on_c, 0, 64, 72
2, 146760, Note_on_c, 0, 64, 0
2, 146760, Note_on_c, 0, 67, 68
2, 146880, Note_on_c, 0, 67, 0
2, 146880, Note_on_c, 0, 72, 83
2, 147000, Note_on_c, 0, 72, 0
2, 147000, Note_on_c, 0, 67, 70
2, 147120, Note_on_c, 0, 67, 0
2, 147120, Note_on_c, 0, 76, 75
2, 147240, Note_on_c, 0, 76, 0
2, 147240, Note_on_c, 0, 79, 72
2, 147360, Note_on_c, 0, 79, 0
2, 147360, Note_on_c, 0, 84, 87
2, 147480, Note_on_c, 0, 84, 0
2, 147480, Note_on_c, 0, 79, 72
2, 147600, Note_on_c, 0, 79, 0
2, 147600, Note_on_c, 0, 88, 78
2, 147720, Note_on_c, 0, 88, 0
2, 147720, Note_on_c, 0, 91, 75
2, 147840, Note_on_c, 0, 91, 0
2, 147840, Note_on_c, 0, 96, 91
2, 147960, Note_on_c, 0, 96, 0
2, 147960, Note_on_c, 0, 91, 75
2, 148080, Note_on_c, 0, 91, 0
2, 148080, Note_on_c, 0, 88, 80
2, 148200, Note_on_c, 0, 88, 0
2, 148200, Note_on_c, 0, 79, 75
2, 148320, Note_on_c, 0, 79, 0
2, 148320, Note_on_c, 0, 84, 91
2, 148440, Note_on_c, 0, 84, 0
2, 148440, Note_on_c, 0, 79, 73
2, 148560, Note_on_c, 0, 79, 0
2, 148560, Note_on_c, 0, 76, 78
2, 148680, Note_on_c, 0, 76, 0
2, 148680, Note_on_c, 0, 67, 74
2, 148800, Note_on_c, 0, 67, 0
2, 148800, Note_on_c, 0, 72, 89
2, 148920, Note_on_c, 0, 72, 0
2, 148920, Note_on_c, 0, 67, 77
2, 149040, Note_on_c, 0, 67, 0
2, 149040, Note_on_c, 0, 64, 71
2, 149160, Note_on_c, 0, 64, 0
2, 149160, End_track
3, 0, Start_track
3, 0, Title_t, "Piano left"
3, 0, Program_c, 0, 0
3, 0, Control_c, 0, 7, 100
3, 0, Control_c, 0, 10, 64
3, 0, Control_c, 0, 64, 127
3, 0, Note_on_c, 0, 36, 86
3, 0, Note_on_c, 0, 48, 103
3, 120, Note_on_c, 0, 48, 77
3, 240, Note_on_c, 0, 48, 0
3, 240, Note_on_c, 0, 55, 80
3, 360, Note_on_c, 0, 55, 0
3, 360, Note_on_c, 0, 60, 77
3, 480, Note_on_c, 0, 60, 0
3, 3600, Note_on_c, 0, 55, 80
3, 3720, Note_on_c, 0, 55, 0
3, 3720, Note_on_c, 0, 48, 77
3, 3820, Control_c, 0, 64, 0
3, 3840, Note_on_c, 0, 48, 0
3, 3840, Note_on_c, 0, 48, 0
3, 3840, Note_on_c, 0, 36, 0
3, 3840, Note_on_c, 0, 29, 88
3, 3840, Note_on_c, 0, 41, 104
3, 3889, Control_c, 0, 64, 127
3, 3960, Note_on_c, 0, 48, 80
3, 4080, Note_on_c, 0, 48, 0
3, 4080, Note_on_c, 0, 57, 80
3, 4200, Note_on_c, 0, 57, 0
3, 4200, Note_on_c, 0, 60, 77
3, 4320, Note_on_c, 0, 60, 0
3, 5760, Note_on_c, 0, 41, 0
3, 5760, Note_on_c, 0, 29, 0
3, 5760, Note_on_c, 0, 30, 85
3, 5760, Note_on_c, 0, 42, 101
3, 5765, Control_c, 0, 64, 0
3, 5880, Control_c, 0, 64, 127
3, 7440, Note_on_c, 0, 57, 80
3, 7560, Note_on_c, 0, 57, 0
3, 7560, Note_on_c, 0, 48, 77
3, 7660, Control_c, 0, 64, 0
3, 7680, Note_on_c, 0, 48, 0
3, 7680, Note_on_c, 0, 42, 0
3, 7680, Note_on_c, 0, 30, 0
3, 7680, Note_on_c, 0, 31, 85
3, 7680, Note_on_c, 0, 43, 101
3, 7772, Control_c, 0, 64, 127
3, 7800, Note_on_c, 0, 47, 80
3, 7920, Note_on_c, 0, 47, 0
3, 7920, Note_on_c, 0, 55, 77
3, 8040, Note_on_c, 0, 55, 0
3, 8040, Note_on_c, 0, 59, 80
3, 8160, Note_on_c, 0, 59, 0
3, 8640, Note_on_c, 0, 43, 0
3, 8640, Note_on_c, 0, 31, 0
3, 8640, Note_on_c, 0, 30, 86
3, 8640, Note_on_c, 0, 42, 102
3, 9120, Note_on_c, 0, 42, 0
3, 9120, Note_on_c, 0, 30, 0
3, 9120, Note_on_c, 0, 28, 82
3, 9120, Note_on_c, 0, 40, 97
3, 9580, Control_c, 0, 64, 0
3, 9600, Note_on_c, 0, 40, 0
3, 9600, Note_on_c, 0, 28, 0
3, 9600, Note_on_c, 0, 26, 86
3, 9600, Note_on_c, 0, 38, 102
3, 9703, Control_c, 0, 64, 127
3, 11160, Note_on_c, 0, 57, 80
3, 11280, Note_on_c, 0, 57, 0
3, 11280, Note_on_c, 0, 54, 80
3, 11400, Note_on_c, 0, 54, 0
3, 11400, Note_on_c, 0, 48, 80
3, 11500, Control_c, 0, 64, 0
3, 11520, Note_on_c, 0, 48, 0
3, 11520, Note_on_c, 0, 38, 0
3, 11520, Note_on_c, 0, 26, 0
3, 11520, Note_on_c, 0, 31, 85
3, 11520, Note_on_c, 0, 43, 101
3, 11601, Control_c, 0, 64, 127
3, 11640, Note_on_c, 0, 48, 77
3, 11760, Note_on_c, 0, 48, 0
3, 11760, Note_on_c, 0, 53, 80
3, 11880, Note_on_c, 0, 53, 0
3, 11880, Note_on_c, 0, 56, 77
3, 12000, Note_on_c, 0, 56, 0
3, 13443, Control_c, 0, 64, 0
3, 13520, Control_c, 0, 64, 127
3, 15000, Note_on_c, 0, 55, 77
3, 15120, Note_on_c, 0, 55, 0
3, 15120, Note_on_c, 0, 53, 80
3, 15240, Note_on_c, 0, 53, 0
3, 15240, Note_on_c, 0, 47, 77
3, 15340, Control_c, 0, 64, 0
3, 15360, Note_on_c, 0, 47, 0
3, 15360, Note_on_c, 0, 43, 0
3, 15360, Note_on_c, 0, 31, 0
3, 15360, Note_on_c, 0, 36, 85
3, 15360, Note_on_c, 0, 48, 101
3, 15480, Control_c, 0, 64, 127
3, 15480, Note_on_c, 0, 48, 76
3, 15600, Note_on_c, 0, 48, 0
3, 15600, Note_on_c, 0, 55, 80
3, 15720, Note_on_c, 0, 55, 0
3, 15720, Note_on_c, 0, 60, 76
3, 15840, Note_on_c, 0, 60, 0
3, 18960, Note_on_c, 0, 55, 80
3, 19080, Note_on_c, 0, 55, 0
3, 19080, Note_on_c, 0, 48, 77
3, 19180, Control_c, 0, 64, 0
3, 19200, Note_on_c, 0, 48, 0
3, 19200, Note_on_c, 0, 48, 0
3, 19200, Note_on_c, 0, 36, 0
3, 19200, Note_on_c, 0, 33, 86
3, 19200, Note_on_c, 0, 45, 103
3, 19306, Control_c, 0, 64, 127
3, 19320, Note_on_c, 0, 48, 77
3, 19440, Note_on_c, 0, 48, 0
3, 19440, Note_on_c, 0, 53, 80
3, 19560, Note_on_c, 0, 53, 0
3, 19560, Note_on_c, 0, 60, 77
3, 19680, Note_on_c, 0, 60, 0
3, 21126, Control_c, 0, 64, 0
3, 21200, Control_c, 0, 64, 127
3, 22800, Note_on_c, 0, 54, 80
3, 22920, Note_on_c, 0, 54, 0
3, 22920, Note_on_c, 0, 48, 77
3, 23020, Control_c, 0, 64, 0
3, 23040, Note_on_c, 0, 48, 0
3, 23040, Note_on_c, 0, 45, 0
3, 23040, Note_on_c, 0, 33, 0
3, 23040, Note_on_c, 0, 31, 81
3, 23040, Note_on_c, 0, 43, 96
3, 23160, Note_on_c, 0, 48, 73
3, 23167, Control_c, 0, 64, 127
3, 23280, Note_on_c, 0, 48, 0
3, 23280, Note_on_c, 0, 55, 76
3, 23400, Note_on_c, 0, 55, 0
3, 23400, Note_on_c, 0, 60, 74
3, 23520, Note_on_c, 0, 60, 0
3, 24966, Control_c, 0, 64, 0
3, 25059, Control_c, 0, 64, 127
3, 26640, Note_on_c, 0, 55, 76
3, 26760, Note_on_c, 0, 55, 0
3, 26760, Note_on_c, 0, 47, 71
3, 26860, Control_c, 0, 64, 0
3, 26880, Note_on_c, 0, 47, 0
3, 26880, Note_on_c, 0, 43, 0
3, 26880, Note_on_c, 0, 31, 0
3, 26880, Note_on_c, 0, 36, 81
3, 26880, Note_on_c, 0, 48, 96
3, 26964, Control_c, 0, 64, 127
3, 27000, Note_on_c, 0, 50, 76
3, 27120, Note_on_c, 0, 50, 0
3, 27120, Note_on_c, 0, 55, 73
3, 27240, Note_on_c, 0, 55, 0
3, 27240, Note_on_c, 0, 62, 76
3, 27360, Note_on_c, 0, 62, 0
3, 28811, Control_c, 0, 64, 0
3, 28913, Control_c, 0, 64, 127
3, 30480, Note_on_c, 0, 55, 67
3, 30600, Note_on_c, 0, 55, 0
3, 30600, Note_on_c, 0, 48, 60
3, 30700, Control_c, 0, 64, 0
3, 30720, Note_on_c, 0, 48, 0
3, 30720, Note_on_c, 0, 48, 0
3, 30720, Note_on_c, 0, 36, 0
3, 30720, Note_on_c, 0, 33, 58
3, 30720, Note_on_c, 0, 45, 69
3, 30804, Control_c, 0, 64, 127
3, 30840, Note_on_c, 0, 52, 50
3, 30960, Note_on_c, 0, 52, 0
3, 30960, Note_on_c, 0, 60, 54
3, 31080, Note_on_c, 0, 60, 0
3, 32640, Note_on_c, 0, 45, 0
3, 32640, Note_on_c, 0, 33, 0
3, 32640, Note_on_c, 0, 35, 58
3, 32640, Note_on_c, 0, 47, 69
3, 32643, Control_c, 0, 64, 0
3, 32753, Control_c, 0, 64, 127
3, 33600, Note_on_c, 0, 47, 0
3, 33600, Note_on_c, 0, 35, 0
3, 33600, Note_on_c, 0, 33, 58
3, 33600, Note_on_c, 0, 45, 69
3, 34440, Note_on_c, 0, 50, 51
3, 34540, Control_c, 0, 64, 0
3, 34560, Note_on_c, 0, 50, 0
3, 34560, Note_on_c, 0, 45, 0
3, 34560, Note_on_c, 0, 33, 0
3, 34560, Note_on_c, 0, 32, 58
3, 34560, Note_on_c, 0, 44, 69
3, 34680, Note_on_c, 0, 50, 51
3, 34701, Control_c, 0, 64, 127
3, 34800, Note_on_c, 0, 50, 0
3, 34800, Note_on_c, 0, 59, 54
3, 34920, Note_on_c, 0, 59, 0
3, 34920, Note_on_c, 0, 62, 51
3, 35040, Note_on_c, 0, 62, 0
3, 36480, Note_on_c, 0, 44, 0
3, 36480, Note_on_c, 0, 32, 0
3, 36480, Note_on_c, 0, 33, 60
3, 36480, Note_on_c, 0, 45, 72
3, 36490, Control_c, 0, 64, 0
3, 36557, Control_c, 0, 64, 127
3, 37440, Note_on_c, 0, 45, 0
3, 37440, Note_on_c, 0, 33, 0
3, 37440, Note_on_c, 0, 31, 67
3, 37440, Note_on_c, 0, 43, 79
3, 38160, Note_on_c, 0, 57, 69
3, 38280, Note_on_c, 0, 57, 0
3, 38280, Note_on_c, 0, 48, 64
3, 38380, Control_c, 0, 64, 0
3, 38400, Note_on_c, 0, 48, 0
3, 38400, Note_on_c, 0, 43, 0
3, 38400, Note_on_c, 0, 31, 0
3, 38400, Note_on_c, 0, 29, 76
3, 38400, Note_on_c, 0, 41, 90
3, 38513, Control_c, 0, 64, 127
3, 38520, Note_on_c, 0, 48, 65
3, 38640, Note_on_c, 0, 48, 0
3, 38640, Note_on_c, 0, 57, 72
3, 38760, Note_on_c, 0, 57, 0
3, 38760, Note_on_c, 0, 60, 66
3, 38880, Note_on_c, 0, 60, 0
3, 40329, Control_c, 0, 64, 0
3, 40417, Control_c, 0, 64, 127
3, 41880, Note_on_c, 0, 59, 57
3, 42000, Note_on_c, 0, 59, 0
3, 42000, Note_on_c, 0, 57, 56
3, 42120, Note_on_c, 0, 57, 0
3, 42120, Note_on_c, 0, 47, 52
3, 42220, Control_c, 0, 64, 0
3, 42240, Note_on_c, 0, 47, 0
3, 42240, Note_on_c, 0, 41, 0
3, 42240, Note_on_c, 0, 29, 0
3, 42240, Note_on_c, 0, 28, 57
3, 42240, Note_on_c, 0, 40, 68
3, 42353, Control_c, 0, 64, 127
3, 42360, Note_on_c, 0, 47, 50
3, 42480, Note_on_c, 0, 47, 0
3, 42480, Note_on_c, 0, 57, 54
3, 42600, Note_on_c, 0, 57, 0
3, 42600, Note_on_c, 0, 59, 50
3, 42720, Note_on_c, 0, 59, 0
3, 44165, Control_c, 0, 64, 0
3, 44257, Control_c, 0, 64, 127
3, 45840, Note_on_c, 0, 56, 54
3, 45960, Note_on_c, 0, 56, 0
3, 45960, Note_on_c, 0, 47, 49
3, 46060, Control_c, 0, 64, 0
3, 46080, Note_on_c, 0, 47, 0
3, 46080, Note_on_c, 0, 40, 0
3, 46080, Note_on_c, 0, 28, 0
3, 46080, Note_on_c, 0, 33, 57
3, 46080, Note_on_c, 0, 45, 68
3, 46160, Control_c, 0, 64, 127
3, 46200, Note_on_c, 0, 52, 50
3, 46320, Note_on_c, 0, 52, 0
3, 46320, Note_on_c, 0, 57, 54
3, 46440, Note_on_c, 0, 57, 0
3, 46440, Note_on_c, 0, 61, 50
3, 46560, Note_on_c, 0, 61, 0
3, 48000, Note_on_c, 0, 45, 0
3, 48000, Note_on_c, 0, 33, 0
3, 48000, Note_on_c, 0, 38, 58
3, 48000, Note_on_c, 0, 50, 69
3, 48009, Control_c, 0, 64, 0
3, 48051, Control_c, 0, 64, 127
3, 49200, Note_on_c, 0, 57, 57
3, 49320, Note_on_c, 0, 57, 0
3, 49320, Note_on_c, 0, 52, 53
3, 49440, Note_on_c, 0, 52, 0
3, 49680, Note_on_c, 0, 57, 56
3, 49800, Note_on_c, 0, 57, 0
3, 49800, Note_on_c, 0, 50, 52
3, 49900, Control_c, 0, 64, 0
3, 49920, Note_on_c, 0, 50, 0
3, 49920, Note_on_c, 0, 50, 0
3, 49920, Note_on_c, 0, 38, 0
3, 49920, Note_on_c, 0, 31, 67
3, 49920, Note_on_c, 0, 43, 80
3, 50040, Note_on_c, 0, 50, 59
3, 50068, Control_c, 0, 64, 127
3, 50160, Note_on_c, 0, 50, 0
3, 50160, Note_on_c, 0, 55, 64
3, 50280, Note_on_c, 0, 55, 0
3, 50280, Note_on_c, 0, 60, 60
3, 50400, Note_on_c, 0, 60, 0
3, 51847, Control_c, 0, 64, 0
3, 51967, Control_c, 0, 64, 127
3, 53400, Note_on_c, 0, 59, 62
3, 53520, Note_on_c, 0, 59, 0
3, 53520, Note_on_c, 0, 55, 67
3, 53640, Note_on_c, 0, 55, 0
3, 53640, Note_on_c, 0, 50, 64
3, 53740, Control_c, 0, 64, 0
3, 53760, Note_on_c, 0, 50, 0
3, 53760, Note_on_c, 0, 43, 0
3, 53760, Note_on_c, 0, 31, 0
3, 53760, Note_on_c, 0, 36, 80
3, 53760, Note_on_c, 0, 48, 95
3, 53863, Control_c, 0, 64, 127
3, 53880, Note_on_c, 0, 48, 71
3, 54000, Note_on_c, 0, 48, 0
3, 54000, Note_on_c, 0, 55, 76
3, 54120, Note_on_c, 0, 55, 0
3, 54120, Note_on_c, 0, 58, 72
3, 54240, Note_on_c, 0, 58, 0
3, 55680, Note_on_c, 0, 48, 0
3, 55680, Note_on_c, 0, 36, 0
3, 55680, Note_on_c, 0, 30, 81
3, 55680, Note_on_c, 0, 42, 96
3, 55687, Control_c, 0, 64, 0
3, 55800, Control_c, 0, 64, 127
3, 57360, Note_on_c, 0, 51, 76
3, 57480, Note_on_c, 0, 51, 0
3, 57480, Note_on_c, 0, 48, 72
3, 57580, Control_c, 0, 64, 0
3, 57600, Note_on_c, 0, 48, 0
3, 57600, Note_on_c, 0, 42, 0
3, 57600, Note_on_c, 0, 30, 0
3, 57600, Note_on_c, 0, 29, 81
3, 57600, Note_on_c, 0, 41, 97
3, 57697, Control_c, 0, 64, 127
3, 57720, Note_on_c, 0, 48, 72
3, 57840, Note_on_c, 0, 48, 0
3, 57840, Note_on_c, 0, 51, 76
3, 57960, Note_on_c, 0, 51, 0
3, 57960, Note_on_c, 0, 57, 73
3, 58080, Note_on_c, 0, 57, 0
3, 59520, Note_on_c, 0, 41, 0
3, 59520, Note_on_c, 0, 29, 0
3, 59520, Note_on_c, 0, 35, 85
3, 59520, Note_on_c, 0, 47, 100
3, 59524, Control_c, 0, 64, 0
3, 59600, Control_c, 0, 64, 127
3, 61080, Note_on_c, 0, 56, 65
3, 61200, Note_on_c, 0, 56, 0
3, 61200, Note_on_c, 0, 51, 69
3, 61320, Note_on_c, 0, 51, 0
3, 61320, Note_on_c, 0, 47, 66
3, 61420, Control_c, 0, 64, 0
3, 61440, Note_on_c, 0, 47, 0
3, 61440, Note_on_c, 0, 47, 0
3, 61440, Note_on_c, 0, 35, 0
3, 61440, Note_on_c, 0, 34, 84
3, 61537, Control_c, 0, 64, 127
3, 61560, Note_on_c, 0, 46, 66
3, 61680, Note_on_c, 0, 46, 0
3, 61680, Note_on_c, 0, 53, 70
3, 61800, Note_on_c, 0, 53, 0
3, 61800, Note_on_c, 0, 56, 67
3, 61920, Note_on_c, 0, 56, 0
3, 63360, Note_on_c, 0, 46, 87
3, 63366, Control_c, 0, 64, 0
3, 63451, Control_c, 0, 64, 127
3, 64920, Note_on_c, 0, 56, 71
3, 65040, Note_on_c, 0, 56, 0
3, 65040, Note_on_c, 0, 52, 76
3, 65160, Note_on_c, 0, 52, 0
3, 65160, Note_on_c, 0, 46, 72
3, 65260, Control_c, 0, 64, 0
3, 65280, Note_on_c, 0, 46, 0
3, 65280, Note_on_c, 0, 46, 0
3, 65280, Note_on_c, 0, 34, 0
3, 65280, Note_on_c, 0, 33, 78
3, 65280, Note_on_c, 0, 45, 94
3, 65377, Control_c, 0, 64, 127
3, 65400, Note_on_c, 0, 45, 72
3, 65520, Note_on_c, 0, 45, 0
3, 65520, Note_on_c, 0, 52, 76
3, 65640, Note_on_c, 0, 52, 0
3, 65640, Note_on_c, 0, 57, 72
3, 65760, Note_on_c, 0, 57, 0
3, 68760, Note_on_c, 0, 57, 68
3, 68880, Note_on_c, 0, 57, 0
3, 68880, Note_on_c, 0, 52, 72
3, 69000, Note_on_c, 0, 52, 0
3, 69000, Note_on_c, 0, 45, 68
3, 69100, Control_c, 0, 64, 0
3, 69120, Note_on_c, 0, 45, 0
3, 69120, Note_on_c, 0, 45, 0
3, 69120, Note_on_c, 0, 33, 0
3, 69120, Note_on_c, 0, 38, 90
3, 69200, Control_c, 0, 64, 127
3, 69240, Note_on_c, 0, 45, 69
3, 69360, Note_on_c, 0, 45, 0
3, 69360, Note_on_c, 0, 50, 72
3, 69480, Note_on_c, 0, 50, 0
3, 69480, Note_on_c, 0, 54, 69
3, 69600, Note_on_c, 0, 54, 0
3, 71040, Note_on_c, 0, 38, 0
3, 71040, Note_on_c, 0, 31, 75
3, 71040, Note_on_c, 0, 43, 84
3, 71046, Control_c, 0, 64, 0
3, 71146, Control_c, 0, 64, 127
3, 72360, Note_on_c, 0, 55, 62
3, 72480, Note_on_c, 0, 55, 0
3, 72480, Note_on_c, 0, 59, 76
3, 72600, Note_on_c, 0, 59, 0
3, 72600, Note_on_c, 0, 53, 64
3, 72720, Note_on_c, 0, 53, 0
3, 72720, Note_on_c, 0, 50, 61
3, 72840, Note_on_c, 0, 50, 0
3, 72840, Note_on_c, 0, 43, 64
3, 72940, Control_c, 0, 64, 0
3, 72960, Note_on_c, 0, 43, 0
3, 72960, Note_on_c, 0, 43, 0
3, 72960, Note_on_c, 0, 31, 0
3, 72960, Note_on_c, 0, 36, 79
3, 73055, Control_c, 0, 64, 127
3, 73080, Note_on_c, 0, 43, 64
3, 73200, Note_on_c, 0, 43, 0
3, 73200, Note_on_c, 0, 48, 61
3, 73320, Note_on_c, 0, 48, 0
3, 73320, Note_on_c, 0, 52, 64
3, 73440, Note_on_c, 0, 52, 0
3, 73440, Note_on_c, 0, 59, 74
3, 73560, Note_on_c, 0, 59, 0
3, 73560, Note_on_c, 0, 55, 61
3, 73680, Note_on_c, 0, 55, 0
3, 74880, Note_on_c, 0, 36, 0
3, 74880, Note_on_c, 0, 29, 66
3, 74880, Note_on_c, 0, 41, 78
3, 74889, Control_c, 0, 64, 0
3, 74972, Control_c, 0, 64, 127
3, 76200, Note_on_c, 0, 53, 62
3, 76320, Note_on_c, 0, 53, 0
3, 76320, Note_on_c, 0, 57, 74
3, 76440, Note_on_c, 0, 57, 0
3, 76440, Note_on_c, 0, 52, 60
3, 76560, Note_on_c, 0, 52, 0
3, 76560, Note_on_c, 0, 48, 64
3, 76680, Note_on_c, 0, 48, 0
3, 76680, Note_on_c, 0, 41, 61
3, 76780, Control_c, 0, 64, 0
3, 76800, Note_on_c, 0, 41, 0
3, 76800, Note_on_c, 0, 41, 0
3, 76800, Note_on_c, 0, 29, 0
3, 76800, Note_on_c, 0, 35, 84
3, 76863, Control_c, 0, 64, 127
3, 76920, Note_on_c, 0, 41, 65
3, 77040, Note_on_c, 0, 41, 0
3, 77040, Note_on_c, 0, 47, 68
3, 77160, Note_on_c, 0, 47, 0
3, 77160, Note_on_c, 0, 50, 64
3, 77280, Note_on_c, 0, 50, 0
3, 77280, Note_on_c, 0, 57, 77
3, 77400, Note_on_c, 0, 57, 0
3, 77400, Note_on_c, 0, 53, 63
3, 77520, Note_on_c, 0, 53, 0
3, 77520, Note_on_c, 0, 59, 68
3, 77640, Note_on_c, 0, 59, 0
3, 78720, Note_on_c, 0, 35, 0
3, 78720, Note_on_c, 0, 28, 72
3, 78720, Note_on_c, 0, 40, 85
3, 78723, Control_c, 0, 64, 0
3, 78819, Control_c, 0, 64, 127
3, 79680, Note_on_c, 0, 40, 0
3, 79680, Note_on_c, 0, 28, 0
3, 79680, Note_on_c, 0, 33, 72
3, 79680, Note_on_c, 0, 45, 85
3, 79693, Control_c, 0, 64, 0
3, 79814, Control_c, 0, 64, 127
3, 80640, Note_on_c, 0, 45, 0
3, 80640, Note_on_c, 0, 33, 0
3, 80640, Note_on_c, 0, 26, 74
3, 80640, Note_on_c, 0, 38, 88
3, 80650, Control_c, 0, 64, 0
3, 80746, Control_c, 0, 64, 127
3, 81600, Note_on_c, 0, 38, 0
3, 81600, Note_on_c, 0, 26, 0
3, 81600, Note_on_c, 0, 31, 74
3, 81600, Note_on_c, 0, 43, 88
3, 81609, Control_c, 0, 64, 0
3, 81684, Control_c, 0, 64, 127
3, 82560, Note_on_c, 0, 43, 0
3, 82560, Note_on_c, 0, 31, 0
3, 82560, Note_on_c, 0, 24, 80
3, 82560, Note_on_c, 0, 36, 94
3, 82570, Control_c, 0, 64, 0
3, 82673, Control_c, 0, 64, 127
3, 83520, Note_on_c, 0, 36, 0
3, 83520, Note_on_c, 0, 24, 0
3, 83520, Note_on_c, 0, 29, 82
3, 83520, Note_on_c, 0, 41, 97
3, 83530, Control_c, 0, 64, 0
3, 83619, Control_c, 0, 64, 127
3, 84480, Note_on_c, 0, 41, 0
3, 84480, Note_on_c, 0, 29, 0
3, 84480, Note_on_c, 0, 35, 85
3, 84480, Note_on_c, 0, 47, 101
3, 84487, Control_c, 0, 64, 0
3, 84557, Control_c, 0, 64, 127
3, 85560, Note_on_c, 0, 57, 75
3, 85680, Note_on_c, 0, 57, 0
3, 85680, Note_on_c, 0, 53, 80
3, 85800, Note_on_c, 0, 53, 0
3, 85800, Note_on_c, 0, 47, 75
3, 85920, Note_on_c, 0, 47, 0
3, 85920, Note_on_c, 0, 47, 0
3, 85920, Note_on_c, 0, 35, 0
3, 85920, Note_on_c, 0, 35, 102
3, 86380, Control_c, 0, 64, 0
3, 86400, Note_on_c, 0, 47, 100
3, 86463, Control_c, 0, 64, 127
3, 87480, Note_on_c, 0, 57, 75
3, 87600, Note_on_c, 0, 57, 0
3, 87600, Note_on_c, 0, 54, 80
3, 87720, Note_on_c, 0, 54, 0
3, 87720, Note_on_c, 0, 47, 76
3, 87840, Note_on_c, 0, 47, 0
3, 87840, Note_on_c, 0, 47, 0
3, 87840, Note_on_c, 0, 35, 0
3, 87840, Note_on_c, 0, 35, 93
3, 88300, Control_c, 0, 64, 0
3, 88320, Note_on_c, 0, 35, 0
3, 88320, Note_on_c, 0, 28, 84
3, 88320, Note_on_c, 0, 40, 100
3, 88394, Control_c, 0, 64, 127
3, 88440, Note_on_c, 0, 47, 76
3, 88560, Note_on_c, 0, 47, 0
3, 88560, Note_on_c, 0, 52, 80
3, 88680, Note_on_c, 0, 52, 0
3, 88680, Note_on_c, 0, 56, 76
3, 88800, Note_on_c, 0, 56, 0
3, 91680, Note_on_c, 0, 40, 0
3, 91680, Note_on_c, 0, 28, 0
3, 91680, Note_on_c, 0, 26, 74
3, 91680, Note_on_c, 0, 38, 88
3, 91691, Control_c, 0, 64, 0
3, 91737, Control_c, 0, 64, 127
3, 91920, Note_on_c, 0, 55, 69
3, 92040, Note_on_c, 0, 55, 0
3, 92040, Note_on_c, 0, 50, 64
3, 92140, Control_c, 0, 64, 0
3, 92160, Note_on_c, 0, 50, 0
3, 92160, Note_on_c, 0, 38, 0
3, 92160, Note_on_c, 0, 26, 0
3, 92160, Note_on_c, 0, 24, 72
3, 92160, Note_on_c, 0, 36, 85
3, 92252, Control_c, 0, 64, 127
3, 92280, Note_on_c, 0, 48, 64
3, 92400, Note_on_c, 0, 48, 0
3, 92400, Note_on_c, 0, 55, 68
3, 92520, Note_on_c, 0, 55, 0
3, 92520, Note_on_c, 0, 60, 63
3, 92640, Note_on_c, 0, 60, 0
3, 94080, Note_on_c, 0, 24, 0
3, 94080, Note_on_c, 0, 48, 78
3, 95760, Note_on_c, 0, 55, 68
3, 95880, Note_on_c, 0, 55, 0
3, 95880, Note_on_c, 0, 48, 63
3, 95980, Control_c, 0, 64, 0
3, 96000, Note_on_c, 0, 48, 0
3, 96000, Note_on_c, 0, 48, 0
3, 96000, Note_on_c, 0, 36, 0
3, 96000, Note_on_c, 0, 29, 72
3, 96000, Note_on_c, 0, 41, 85
3, 96099, Control_c, 0, 64, 127
3, 96120, Note_on_c, 0, 48, 64
3, 96240, Note_on_c, 0, 48, 0
3, 96240, Note_on_c, 0, 57, 68
3, 96360, Note_on_c, 0, 57, 0
3, 96360, Note_on_c, 0, 60, 64
3, 96480, Note_on_c, 0, 60, 0
3, 97920, Note_on_c, 0, 41, 0
3, 97920, Note_on_c, 0, 29, 0
3, 97920, Note_on_c, 0, 30, 77
3, 97920, Note_on_c, 0, 42, 91
3, 97930, Control_c, 0, 64, 0
3, 98004, Control_c, 0, 64, 127
3, 99600, Note_on_c, 0, 57, 79
3, 99720, Note_on_c, 0, 57, 0
3, 99720, Note_on_c, 0, 48, 71
3, 99820, Control_c, 0, 64, 0
3, 99840, Note_on_c, 0, 48, 0
3, 99840, Note_on_c, 0, 42, 0
3, 99840, Note_on_c, 0, 30, 0
3, 99840, Note_on_c, 0, 31, 85
3, 99840, Note_on_c, 0, 43, 101
3, 99903, Control_c, 0, 64, 127
3, 99960, Note_on_c, 0, 47, 75
3, 100080, Note_on_c, 0, 47, 0
3, 100080, Note_on_c, 0, 55, 80
3, 100200, Note_on_c, 0, 55, 0
3, 100200, Note_on_c, 0, 59, 75
3, 100320, Note_on_c, 0, 59, 0
3, 100800, Note_on_c, 0, 43, 0
3, 100800, Note_on_c, 0, 31, 0
3, 100800, Note_on_c, 0, 30, 86
3, 100800, Note_on_c, 0, 42, 102
3, 101280, Note_on_c, 0, 42, 0
3, 101280, Note_on_c, 0, 30, 0
3, 101280, Note_on_c, 0, 28, 86
3, 101280, Note_on_c, 0, 40, 103
3, 101760, Note_on_c, 0, 40, 0
3, 101760, Note_on_c, 0, 28, 0
3, 101760, Note_on_c, 0, 26, 85
3, 101760, Note_on_c, 0, 38, 101
3, 101763, Control_c, 0, 64, 0
3, 101857, Control_c, 0, 64, 127
3, 103320, Note_on_c, 0, 57, 75
3, 103440, Note_on_c, 0, 57, 0
3, 103440, Note_on_c, 0, 54, 80
3, 103560, Note_on_c, 0, 54, 0
3, 103560, Note_on_c, 0, 48, 74
3, 103660, Control_c, 0, 64, 0
3, 103680, Note_on_c, 0, 48, 0
3, 103680, Note_on_c, 0, 38, 0
3, 103680, Note_on_c, 0, 26, 0
3, 103680, Note_on_c, 0, 31, 86
3, 103680, Note_on_c, 0, 43, 102
3, 103754, Control_c, 0, 64, 127
3, 103800, Note_on_c, 0, 48, 75
3, 103920, Note_on_c, 0, 48, 0
3, 103920, Note_on_c, 0, 53, 80
3, 104040, Note_on_c, 0, 53, 0
3, 104040, Note_on_c, 0, 56, 74
3, 104160, Note_on_c, 0, 56, 0
3, 105606, Control_c, 0, 64, 0
3, 105674, Control_c, 0, 64, 127
3, 107160, Note_on_c, 0, 55, 74
3, 107280, Note_on_c, 0, 55, 0
3, 107280, Note_on_c, 0, 53, 80
3, 107400, Note_on_c, 0, 53, 0
3, 107400, Note_on_c, 0, 47, 75
3, 107500, Control_c, 0, 64, 0
3, 107520, Note_on_c, 0, 47, 0
3, 107520, Note_on_c, 0, 43, 0
3, 107520, Note_on_c, 0, 31, 0
3, 107520, Note_on_c, 0, 36, 79
3, 107520, Note_on_c, 0, 48, 95
3, 107612, Control_c, 0, 64, 127
3, 107640, Note_on_c, 0, 48, 75
3, 107760, Note_on_c, 0, 48, 0
3, 107760, Note_on_c, 0, 55, 80
3, 107880, Note_on_c, 0, 55, 0
3, 107880, Note_on_c, 0, 60, 75
3, 108000, Note_on_c, 0, 60, 0
3, 111120, Note_on_c, 0, 55, 80
3, 111240, Note_on_c, 0, 55, 0
3, 111240, Note_on_c, 0, 48, 74
3, 111340, Control_c, 0, 64, 0
3, 111360, Note_on_c, 0, 48, 0
3, 111360, Note_on_c, 0, 48, 0
3, 111360, Note_on_c, 0, 36, 0
3, 111360, Note_on_c, 0, 33, 84
3, 111360, Note_on_c, 0, 45, 100
3, 111473, Control_c, 0, 64, 127
3, 111480, Note_on_c, 0, 48, 75
3, 111600, Note_on_c, 0, 48, 0
3, 111600, Note_on_c, 0, 53, 80
3, 111720, Note_on_c, 0, 53, 0
3, 111720, Note_on_c, 0, 60, 75
3, 111840, Note_on_c, 0, 60, 0
3, 113285, Control_c, 0, 64, 0
3, 113371, Control_c, 0, 64, 127
3, 114246, Control_c, 0, 64, 0
3, 114313, Control_c, 0, 64, 127
3, 114720, Note_on_c, 0, 45, 0
3, 114720, Note_on_c, 0, 33, 0
3, 114720, Note_on_c, 0, 32, 85
3, 114720, Note_on_c, 0, 44, 101
3, 114960, Note_on_c, 0, 54, 80
3, 115080, Note_on_c, 0, 54, 0
3, 115080, Note_on_c, 0, 48, 73
3, 115180, Control_c, 0, 64, 0
3, 115200, Note_on_c, 0, 48, 0
3, 115200, Note_on_c, 0, 44, 0
3, 115200, Note_on_c, 0, 32, 0
3, 115200, Note_on_c, 0, 31, 80
3, 115200, Note_on_c, 0, 43, 95
3, 115313, Control_c, 0, 64, 127
3, 115320, Note_on_c, 0, 48, 70
3, 115440, Note_on_c, 0, 48, 0
3, 115440, Note_on_c, 0, 55, 76
3, 115560, Note_on_c, 0, 55, 0
3, 115560, Note_on_c, 0, 60, 71
3, 115680, Note_on_c, 0, 60, 0
3, 117126, Control_c, 0, 64, 0
3, 117212, Control_c, 0, 64, 127
3, 118800, Note_on_c, 0, 55, 73
3, 118920, Note_on_c, 0, 55, 0
3, 118920, Note_on_c, 0, 47, 68
3, 119020, Control_c, 0, 64, 0
3, 119040, Note_on_c, 0, 47, 0
3, 119040, Note_on_c, 0, 43, 0
3, 119040, Note_on_c, 0, 31, 0
3, 119040, Note_on_c, 0, 30, 77
3, 119040, Note_on_c, 0, 42, 92
3, 119112, Control_c, 0, 64, 127
3, 119160, Note_on_c, 0, 48, 69
3, 119280, Note_on_c, 0, 48, 0
3, 119280, Note_on_c, 0, 57, 73
3, 119400, Note_on_c, 0, 57, 0
3, 119400, Note_on_c, 0, 60, 69
3, 119520, Note_on_c, 0, 60, 0
3, 120960, Note_on_c, 0, 42, 0
3, 120960, Note_on_c, 0, 30, 0
3, 120960, Note_on_c, 0, 29, 75
3, 120960, Note_on_c, 0, 41, 90
3, 120965, Control_c, 0, 64, 0
3, 121045, Control_c, 0, 64, 127
3, 121924, Control_c, 0, 64, 0
3, 121992, Control_c, 0, 64, 127
3, 122640, Note_on_c, 0, 57, 71
3, 122760, Note_on_c, 0, 57, 0
3, 122760, Note_on_c, 0, 47, 66
3, 122860, Control_c, 0, 64, 0
3, 122880, Note_on_c, 0, 47, 0
3, 122880, Note_on_c, 0, 41, 0
3, 122880, Note_on_c, 0, 29, 0
3, 122880, Note_on_c, 0, 28, 76
3, 122880, Note_on_c, 0, 40, 90
3, 122948, Control_c, 0, 64, 127
3, 123000, Note_on_c, 0, 47, 66
3, 123120, Note_on_c, 0, 47, 0
3, 123120, Note_on_c, 0, 56, 71
3, 123240, Note_on_c, 0, 56, 0
3, 123240, Note_on_c, 0, 59, 66
3, 123360, Note_on_c, 0, 59, 0
3, 124800, Note_on_c, 0, 28, 0
3, 124800, Note_on_c, 0, 52, 88
3, 125760, Note_on_c, 0, 52, 0
3, 126480, Note_on_c, 0, 56, 62
3, 126600, Note_on_c, 0, 56, 0
3, 126600, Note_on_c, 0, 47, 55
3, 126700, Control_c, 0, 64, 0
3, 126720, Note_on_c, 0, 47, 0
3, 126720, Note_on_c, 0, 40, 0
3, 126720, Note_on_c, 0, 38, 65
3, 126819, Control_c, 0, 64, 127
3, 126840, Note_on_c, 0, 50, 50
3, 126960, Note_on_c, 0, 50, 0
3, 126960, Note_on_c, 0, 57, 54
3, 127080, Note_on_c, 0, 57, 0
3, 127080, Note_on_c, 0, 60, 49
3, 127200, Note_on_c, 0, 60, 0
3, 128640, Note_on_c, 0, 38, 0
3, 128640, Note_on_c, 0, 31, 56
3, 128640, Note_on_c, 0, 43, 67
3, 128646, Control_c, 0, 64, 0
3, 128746, Control_c, 0, 64, 127
3, 130320, Note_on_c, 0, 55, 54
3, 130440, Note_on_c, 0, 55, 0
3, 130440, Note_on_c, 0, 50, 50
3, 130540, Control_c, 0, 64, 0
3, 130560, Note_on_c, 0, 50, 0
3, 130560, Note_on_c, 0, 43, 0
3, 130560, Note_on_c, 0, 31, 0
3, 130560, Note_on_c, 0, 36, 70
3, 130651, Control_c, 0, 64, 127
3, 130680, Note_on_c, 0, 48, 52
3, 130800, Note_on_c, 0, 48, 0
3, 130800, Note_on_c, 0, 55, 56
3, 130920, Note_on_c, 0, 55, 0
3, 130920, Note_on_c, 0, 60, 51
3, 131040, Note_on_c, 0, 60, 0
3, 132480, Note_on_c, 0, 48, 75
3, 132485, Control_c, 0, 64, 0
3, 132583, Control_c, 0, 64, 127
3, 133450, Control_c, 0, 64, 0
3, 133525, Control_c, 0, 64, 127
3, 134160, Note_on_c, 0, 56, 61
3, 134280, Note_on_c, 0, 56, 0
3, 134280, Note_on_c, 0, 50, 57
3, 134380, Control_c, 0, 64, 0
3, 134400, Note_on_c, 0, 50, 0
3, 134400, Note_on_c, 0, 48, 0
3, 134400, Note_on_c, 0, 36, 0
3, 134400, Note_on_c, 0, 36, 79
3, 134513, Control_c, 0, 64, 127
3, 134520, Note_on_c, 0, 48, 60
3, 134640, Note_on_c, 0, 48, 0
3, 134640, Note_on_c, 0, 55, 64
3, 134760, Note_on_c, 0, 55, 0
3, 134760, Note_on_c, 0, 60, 60
3, 134880, Note_on_c, 0, 60, 0
3, 136300, Control_c, 0, 64, 0
3, 136320, Note_on_c, 0, 36, 0
3, 136320, Note_on_c, 0, 31, 80
3, 136320, Note_on_c, 0, 43, 95
3, 136400, Control_c, 0, 64, 127
3, 137288, Control_c, 0, 64, 0
3, 137348, Control_c, 0, 64, 127
3, 137880, Note_on_c, 0, 56, 66
3, 138000, Note_on_c, 0, 56, 0
3, 138000, Note_on_c, 0, 53, 69
3, 138120, Note_on_c, 0, 53, 0
3, 138120, Note_on_c, 0, 47, 64
3, 138220, Control_c, 0, 64, 0
3, 138240, Note_on_c, 0, 47, 0
3, 138240, Note_on_c, 0, 43, 0
3, 138240, Note_on_c, 0, 31, 0
3, 138240, Note_on_c, 0, 31, 74
3, 138240, Note_on_c, 0, 43, 88
3, 138337, Control_c, 0, 64, 127
3, 138360, Note_on_c, 0, 46, 60
3, 138480, Note_on_c, 0, 46, 0
3, 138480, Note_on_c, 0, 52, 64
3, 138600, Note_on_c, 0, 52, 0
3, 138600, Note_on_c, 0, 55, 61
3, 138720, Note_on_c, 0, 55, 0
3, 138720, Note_on_c, 0, 61, 76
3, 138840, Note_on_c, 0, 61, 0
3, 138840, Note_on_c, 0, 58, 64
3, 138960, Note_on_c, 0, 58, 0
3, 140164, Control_c, 0, 64, 0
3, 140280, Control_c, 0, 64, 127
3, 142060, Control_c, 0, 64, 0
3, 142080, Note_on_c, 0, 43, 0
3, 142080, Note_on_c, 0, 31, 0
3, 142080, Note_on_c, 0, 31, 75
3, 142080, Note_on_c, 0, 43, 89
3, 142200, Control_c, 0, 64, 127
3, 144004, Control_c, 0, 64, 0
3, 144106, Control_c, 0, 64, 127
3, 145320, Note_on_c, 0, 55, 69
3, 145440, Note_on_c, 0, 55, 0
3, 145440, Note_on_c, 0, 59, 80
3, 145560, Note_on_c, 0, 59, 0
3, 145560, Note_on_c, 0, 53, 66
3, 145680, Note_on_c, 0, 53, 0
3, 145680, Note_on_c, 0, 50, 69
3, 145800, Note_on_c, 0, 50, 0
3, 145800, Note_on_c, 0, 43, 68
3, 145900, Control_c, 0, 64, 0
3, 145920, Note_on_c, 0, 43, 0
3, 145920, Note_on_c, 0, 43, 0
3, 145920, Note_on_c, 0, 31, 0
3, 145920, Note_on_c, 0, 24, 85
3, 145920, Note_on_c, 0, 36, 102
3, 146040, Control_c, 0, 64, 127
3, 146040, Note_on_c, 0, 43, 66
3, 146160, Note_on_c, 0, 43, 0
3, 146160, Note_on_c, 0, 52, 68
3, 146280, Note_on_c, 0, 52, 0
3, 146280, Note_on_c, 0, 55, 65
3, 146400, Note_on_c, 0, 55, 0
3, 146400, Note_on_c, 0, 60, 78
3, 146520, Note_on_c, 0, 60, 0
3, 146520, Note_on_c, 0, 55, 71
3, 146640, Note_on_c, 0, 55, 0
3, 149160, Note_on_c, 0, 55, 73
3, 149280, Note_on_c, 0, 55, 0
3, 149280, Note_on_c, 0, 60, 86
3, 149400, Note_on_c, 0, 60, 0
3, 149400, Note_on_c, 0, 55, 73
3, 149520, Note_on_c, 0, 55, 0
3, 149520, Note_on_c, 0, 52, 76
3, 149640, Note_on_c, 0, 52, 0
3, 149640, Note_on_c, 0, 43, 70
3, 149760, Note_on_c, 0, 43, 0
3, 149760, Note_on_c, 0, 36, 0
3, 149760, Note_on_c, 0, 24, 0
3, 149760, Note_on_c, 0, 24, 85
3, 149760, Note_on_c, 0, 36, 102
3, 151680, Note_on_c, 0, 36, 0
3, 151680, Note_on_c, 0, 24, 0
3, 153120, Control_c, 0, 64, 0
3, 153120, End_track
4, 0, Start_track
4, 0, Title_t, "Chopin: Etude Op, 10, No. 1"
4, 0, End_track
5, 0, Start_track
5, 0, Title_t, "Copyright © 1999 by Bernd Krüger"
5, 0, End_track
6, 0, Start_track
6, 0, Title_t, "http://www.piano-midi.de"
6, 0, End_track
7, 0, Start_track
7, 0, Title_t, "Edition: 12.6.06"
7, 0, End_track
0, 0, End_of_file
