0, 0, Header, 1, 8, 480
1, 0, Start_track
1, 0, Title_t, "Chopin Prelude  No. 20, Opus 28"
1, 0, Copyright_t, "Copyright © 2002 by Bernd Krueger "
1, 0, Text_t, "Frederic Chopin"
1, 0, Text_t, "Largo"
1, 0, Text_t, "Fertiggestellt am 1.12.2002\012"
1, 0, Text_t, "Normierung: 23.12.2002\012"
1, 0, Text_t, "Überarbeitet am 18.06.2003\012"
1, 0, Text_t, "Update am 25.6.2010\012"
1, 0, Text_t, "Update am 22.2.2014\012"
1, 0, Text_t, "Dauer: 1:30 Minuten\012"
1, 0, SMPTE_offset, 96, 0, 3, 0, 0
1, 0, Time_signature, 4, 2, 24, 8
1, 0, Key_signature, -3, "major"
1, 0, Tempo, 1432323
1, 1480, Tempo, 1523616
1, 1960, Tempo, 1432323
1, 3240, Tempo, 1523616
1, 3840, Tempo, 1418104
1, 4360, Tempo, 1476378
1, 4800, Tempo, 1418104
1, 6240, Tempo, 1523616
1, 6720, Tempo, 1446829
1, 7200, Tempo, 1659751
1, 7680, Tempo, 1478197
1, 9120, Tempo, 1556420
1, 9600, Tempo, 1478197
1, 10920, Tempo, 1623816
1, 11040, Tempo, 1556420
1, 12000, Tempo, 1478197
1, 12480, Tempo, 1589404
1, 12960, Tempo, 1736614
1, 13440, Tempo, 1589825
1, 13920, Tempo, 1529052
1, 14400, Tempo, 1573564
1, 14760, Tempo, 1736614
1, 14880, Tempo, 1975634
1, 15360, Tempo, 1478197
1, 16320, Tempo, 1494396
1, 16680, Tempo, 1589404
1, 16800, Tempo, 1556420
1, 17280, Tempo, 1478197
1, 18480, Tempo, 1659751
1, 18720, Tempo, 1556420
1, 19200, Tempo, 1589404
1, 19680, Tempo, 1697313
1, 20160, Tempo, 1651528
1, 20520, Tempo, 1913876
1, 20640, Tempo, 2027027
1, 21120, Tempo, 1777778
1, 21600, Tempo, 1777778
1, 22080, Tempo, 1866252
1, 22440, Tempo, 2193784
1, 22560, Tempo, 1945525
1, 23040, Tempo, 1945525
1, 26588, Tempo, 1745201
1, 26589, Tempo, 1578947
1, 26589, End_track
2, 0, Start_track
2, 0, Title_t, "Piano right"
2, 0, Program_c, 0, 0
2, 0, Control_c, 0, 7, 100
2, 0, Control_c, 0, 10, 64
2, 0, Note_on_c, 0, 55, 76
2, 0, Note_on_c, 0, 67, 91
2, 0, Note_on_c, 0, 63, 91
2, 0, Note_on_c, 0, 60, 76
2, 0, Text_t, "bdca426d104a26ac9dcb070447587523"
2, 0, Control_c, 0, 91, 127
2, 0, Control_c, 0, 64, 0
2, 480, Note_on_c, 0, 60, 0
2, 480, Note_on_c, 0, 55, 0
2, 480, Note_on_c, 0, 67, 0
2, 480, Note_on_c, 0, 63, 0
2, 480, Note_on_c, 0, 60, 74
2, 480, Note_on_c, 0, 56, 74
2, 480, Note_on_c, 0, 63, 87
2, 480, Note_on_c, 0, 68, 87
2, 960, Note_on_c, 0, 68, 0
2, 960, Note_on_c, 0, 60, 0
2, 960, Note_on_c, 0, 56, 0
2, 960, Note_on_c, 0, 63, 0
2, 960, Note_on_c, 0, 67, 89
2, 960, Note_on_c, 0, 55, 75
2, 960, Note_on_c, 0, 63, 89
2, 960, Note_on_c, 0, 59, 75
2, 1320, Note_on_c, 0, 63, 0
2, 1320, Note_on_c, 0, 67, 0
2, 1320, Note_on_c, 0, 65, 79
2, 1320, Note_on_c, 0, 62, 79
2, 1440, Note_on_c, 0, 62, 0
2, 1440, Note_on_c, 0, 59, 0
2, 1440, Note_on_c, 0, 55, 0
2, 1440, Note_on_c, 0, 65, 0
2, 1440, Note_on_c, 0, 55, 69
2, 1440, Note_on_c, 0, 63, 82
2, 1440, Note_on_c, 0, 51, 69
2, 1440, Note_on_c, 0, 60, 82
2, 1896, Note_on_c, 0, 60, 0
2, 1896, Note_on_c, 0, 55, 0
2, 1896, Note_on_c, 0, 63, 0
2, 1896, Note_on_c, 0, 51, 0
2, 1920, Note_on_c, 0, 56, 76
2, 1920, Note_on_c, 0, 60, 91
2, 1920, Note_on_c, 0, 51, 76
2, 1920, Note_on_c, 0, 63, 91
2, 2400, Note_on_c, 0, 63, 0
2, 2400, Note_on_c, 0, 56, 0
2, 2400, Note_on_c, 0, 60, 0
2, 2400, Note_on_c, 0, 51, 0
2, 2400, Note_on_c, 0, 65, 89
2, 2400, Note_on_c, 0, 61, 89
2, 2400, Note_on_c, 0, 53, 76
2, 2400, Note_on_c, 0, 56, 76
2, 2880, Note_on_c, 0, 56, 0
2, 2880, Note_on_c, 0, 65, 0
2, 2880, Note_on_c, 0, 61, 0
2, 2880, Note_on_c, 0, 53, 0
2, 2880, Note_on_c, 0, 60, 89
2, 2880, Note_on_c, 0, 63, 89
2, 2880, Note_on_c, 0, 49, 68
2, 2880, Note_on_c, 0, 51, 75
2, 2880, Note_on_c, 0, 55, 75
2, 3240, Note_on_c, 0, 63, 0
2, 3240, Note_on_c, 0, 60, 0
2, 3240, Note_on_c, 0, 61, 82
2, 3240, Note_on_c, 0, 58, 82
2, 3360, Note_on_c, 0, 58, 0
2, 3360, Note_on_c, 0, 51, 0
2, 3360, Note_on_c, 0, 55, 0
2, 3360, Note_on_c, 0, 49, 0
2, 3360, Note_on_c, 0, 61, 0
2, 3360, Note_on_c, 0, 48, 72
2, 3360, Note_on_c, 0, 56, 85
2, 3360, Note_on_c, 0, 51, 72
2, 3360, Note_on_c, 0, 60, 85
2, 3816, Note_on_c, 0, 60, 0
2, 3816, Note_on_c, 0, 48, 0
2, 3816, Note_on_c, 0, 56, 0
2, 3816, Note_on_c, 0, 51, 0
2, 3840, Note_on_c, 0, 62, 86
2, 3840, Note_on_c, 0, 59, 86
2, 3840, Note_on_c, 0, 50, 72
2, 3840, Note_on_c, 0, 53, 72
2, 4320, Note_on_c, 0, 53, 0
2, 4320, Note_on_c, 0, 62, 0
2, 4320, Note_on_c, 0, 59, 0
2, 4320, Note_on_c, 0, 50, 0
2, 4320, Note_on_c, 0, 60, 87
2, 4320, Note_on_c, 0, 55, 73
2, 4320, Note_on_c, 0, 58, 73
2, 4320, Note_on_c, 0, 52, 73
2, 4320, Note_on_c, 0, 64, 87
2, 4800, Note_on_c, 0, 64, 0
2, 4800, Note_on_c, 0, 58, 0
2, 4800, Note_on_c, 0, 60, 0
2, 4800, Note_on_c, 0, 55, 0
2, 4800, Note_on_c, 0, 52, 0
2, 4800, Note_on_c, 0, 67, 90
2, 4800, Note_on_c, 0, 60, 79
2, 4800, Note_on_c, 0, 56, 72
2, 5160, Note_on_c, 0, 67, 0
2, 5160, Note_on_c, 0, 65, 80
2, 5280, Note_on_c, 0, 65, 0
2, 5280, Note_on_c, 0, 56, 0
2, 5280, Note_on_c, 0, 60, 0
2, 5280, Note_on_c, 0, 63, 90
2, 5280, Note_on_c, 0, 60, 90
2, 5280, Note_on_c, 0, 55, 76
2, 5760, Note_on_c, 0, 55, 0
2, 5760, Note_on_c, 0, 60, 0
2, 5760, Note_on_c, 0, 63, 0
2, 5760, Note_on_c, 0, 62, 92
2, 5760, Note_on_c, 0, 60, 92
2, 5760, Note_on_c, 0, 54, 76
2, 6240, Note_on_c, 0, 54, 0
2, 6240, Note_on_c, 0, 60, 0
2, 6240, Note_on_c, 0, 62, 0
2, 6240, Note_on_c, 0, 59, 76
2, 6240, Note_on_c, 0, 55, 76
2, 6240, Note_on_c, 0, 67, 93
2, 6240, Note_on_c, 0, 62, 93
2, 6720, Note_on_c, 0, 62, 0
2, 6720, Note_on_c, 0, 59, 0
2, 6720, Note_on_c, 0, 55, 0
2, 6720, Note_on_c, 0, 67, 0
2, 6720, Note_on_c, 0, 66, 81
2, 6720, Note_on_c, 0, 71, 90
2, 6720, Note_on_c, 0, 60, 70
2, 6720, Note_on_c, 0, 62, 70
2, 7080, Note_on_c, 0, 71, 0
2, 7080, Note_on_c, 0, 69, 76
2, 7200, Note_on_c, 0, 69, 0
2, 7200, Note_on_c, 0, 62, 0
2, 7200, Note_on_c, 0, 60, 0
2, 7200, Note_on_c, 0, 66, 0
2, 7200, Note_on_c, 0, 59, 68
2, 7200, Note_on_c, 0, 62, 80
2, 7200, Note_on_c, 0, 67, 80
2, 7656, Note_on_c, 0, 67, 0
2, 7656, Note_on_c, 0, 62, 0
2, 7656, Note_on_c, 0, 59, 0
2, 7680, Note_on_c, 0, 63, 37
2, 7680, Note_on_c, 0, 75, 45
2, 7680, Note_on_c, 0, 67, 45
2, 8160, Note_on_c, 0, 67, 0
2, 8160, Note_on_c, 0, 75, 0
2, 8160, Note_on_c, 0, 63, 0
2, 8160, Note_on_c, 0, 75, 45
2, 8160, Note_on_c, 0, 68, 45
2, 8160, Note_on_c, 0, 63, 37
2, 8640, Note_on_c, 0, 63, 0
2, 8640, Note_on_c, 0, 68, 0
2, 8640, Note_on_c, 0, 75, 0
2, 8640, Note_on_c, 0, 62, 37
2, 8640, Note_on_c, 0, 68, 45
2, 8640, Note_on_c, 0, 74, 45
2, 9000, Note_on_c, 0, 68, 0
2, 9000, Note_on_c, 0, 66, 41
2, 9120, Note_on_c, 0, 66, 0
2, 9120, Note_on_c, 0, 74, 0
2, 9120, Note_on_c, 0, 62, 0
2, 9120, Note_on_c, 0, 67, 45
2, 9120, Note_on_c, 0, 74, 45
2, 9120, Note_on_c, 0, 62, 37
2, 9576, Note_on_c, 0, 62, 0
2, 9576, Note_on_c, 0, 74, 0
2, 9576, Note_on_c, 0, 67, 0
2, 9600, Note_on_c, 0, 72, 45
2, 9600, Note_on_c, 0, 60, 37
2, 9600, Note_on_c, 0, 67, 45
2, 10080, Note_on_c, 0, 67, 0
2, 10080, Note_on_c, 0, 60, 0
2, 10080, Note_on_c, 0, 72, 0
2, 10080, Note_on_c, 0, 62, 45
2, 10080, Note_on_c, 0, 66, 45
2, 10080, Note_on_c, 0, 60, 38
2, 10080, Note_on_c, 0, 74, 45
2, 10560, Note_on_c, 0, 74, 0
2, 10560, Note_on_c, 0, 62, 0
2, 10560, Note_on_c, 0, 66, 0
2, 10560, Note_on_c, 0, 60, 0
2, 10560, Note_on_c, 0, 62, 39
2, 10560, Note_on_c, 0, 71, 46
2, 10560, Note_on_c, 0, 67, 46
2, 10920, Note_on_c, 0, 67, 0
2, 10920, Note_on_c, 0, 71, 0
2, 10920, Note_on_c, 0, 62, 0
2, 10920, Note_on_c, 0, 60, 36
2, 10920, Note_on_c, 0, 69, 44
2, 11040, Note_on_c, 0, 69, 0
2, 11040, Note_on_c, 0, 60, 0
2, 11040, Note_on_c, 0, 62, 46
2, 11040, Note_on_c, 0, 59, 39
2, 11040, Note_on_c, 0, 67, 46
2, 11496, Note_on_c, 0, 67, 0
2, 11496, Note_on_c, 0, 59, 0
2, 11496, Note_on_c, 0, 62, 0
2, 11520, Note_on_c, 0, 67, 49
2, 11520, Note_on_c, 0, 72, 49
2, 11520, Note_on_c, 0, 60, 41
2, 12000, Note_on_c, 0, 60, 0
2, 12000, Note_on_c, 0, 72, 0
2, 12000, Note_on_c, 0, 67, 0
2, 12000, Note_on_c, 0, 56, 41
2, 12000, Note_on_c, 0, 60, 49
2, 12000, Note_on_c, 0, 68, 49
2, 12480, Note_on_c, 0, 68, 0
2, 12480, Note_on_c, 0, 60, 0
2, 12480, Note_on_c, 0, 56, 0
2, 12480, Note_on_c, 0, 55, 45
2, 12480, Note_on_c, 0, 62, 53
2, 12480, Note_on_c, 0, 67, 53
2, 12840, Note_on_c, 0, 67, 0
2, 12840, Note_on_c, 0, 65, 45
2, 12960, Note_on_c, 0, 65, 0
2, 12960, Note_on_c, 0, 62, 0
2, 12960, Note_on_c, 0, 55, 0
2, 12960, Note_on_c, 0, 63, 49
2, 12960, Note_on_c, 0, 55, 41
2, 12960, Note_on_c, 0, 60, 49
2, 13416, Note_on_c, 0, 60, 0
2, 13416, Note_on_c, 0, 55, 0
2, 13416, Note_on_c, 0, 63, 0
2, 13440, Note_on_c, 0, 60, 48
2, 13440, Note_on_c, 0, 63, 48
2, 13440, Note_on_c, 0, 56, 40
2, 13440, Note_on_c, 0, 51, 40
2, 13920, Note_on_c, 0, 51, 0
2, 13920, Note_on_c, 0, 60, 0
2, 13920, Note_on_c, 0, 63, 0
2, 13920, Note_on_c, 0, 56, 0
2, 13920, Note_on_c, 0, 56, 39
2, 13920, Note_on_c, 0, 61, 46
2, 13920, Note_on_c, 0, 53, 39
2, 13920, Note_on_c, 0, 65, 46
2, 14400, Note_on_c, 0, 65, 0
2, 14400, Note_on_c, 0, 56, 0
2, 14400, Note_on_c, 0, 61, 0
2, 14400, Note_on_c, 0, 53, 0
2, 14400, Note_on_c, 0, 59, 48
2, 14400, Note_on_c, 0, 55, 40
2, 14400, Note_on_c, 0, 63, 48
2, 14400, Note_on_c, 0, 53, 40
2, 14760, Note_on_c, 0, 63, 0
2, 14760, Note_on_c, 0, 62, 44
2, 14880, Note_on_c, 0, 62, 0
2, 14880, Note_on_c, 0, 53, 0
2, 14880, Note_on_c, 0, 55, 0
2, 14880, Note_on_c, 0, 59, 0
2, 14880, Note_on_c, 0, 51, 36
2, 14880, Note_on_c, 0, 55, 44
2, 14880, Note_on_c, 0, 60, 44
2, 15336, Note_on_c, 0, 60, 0
2, 15336, Note_on_c, 0, 55, 0
2, 15336, Note_on_c, 0, 51, 0
2, 15360, Note_on_c, 0, 67, 29
2, 15360, Note_on_c, 0, 75, 29
2, 15360, Note_on_c, 0, 63, 24
2, 15840, Note_on_c, 0, 63, 0
2, 15840, Note_on_c, 0, 75, 0
2, 15840, Note_on_c, 0, 67, 0
2, 15840, Note_on_c, 0, 75, 29
2, 15840, Note_on_c, 0, 63, 24
2, 15840, Note_on_c, 0, 68, 29
2, 16320, Note_on_c, 0, 68, 0
2, 16320, Note_on_c, 0, 63, 0
2, 16320, Note_on_c, 0, 75, 0
2, 16320, Note_on_c, 0, 62, 24
2, 16320, Note_on_c, 0, 74, 29
2, 16320, Note_on_c, 0, 68, 29
2, 16680, Note_on_c, 0, 68, 0
2, 16680, Note_on_c, 0, 66, 27
2, 16800, Note_on_c, 0, 66, 0
2, 16800, Note_on_c, 0, 74, 0
2, 16800, Note_on_c, 0, 62, 0
2, 16800, Note_on_c, 0, 62, 24
2, 16800, Note_on_c, 0, 74, 29
2, 16800, Note_on_c, 0, 67, 29
2, 17256, Note_on_c, 0, 67, 0
2, 17256, Note_on_c, 0, 74, 0
2, 17256, Note_on_c, 0, 62, 0
2, 17280, Note_on_c, 0, 60, 24
2, 17280, Note_on_c, 0, 72, 29
2, 17280, Note_on_c, 0, 67, 29
2, 17760, Note_on_c, 0, 67, 0
2, 17760, Note_on_c, 0, 72, 0
2, 17760, Note_on_c, 0, 60, 0
2, 17760, Note_on_c, 0, 74, 30
2, 17760, Note_on_c, 0, 66, 30
2, 17760, Note_on_c, 0, 62, 30
2, 17760, Note_on_c, 0, 60, 25
2, 18240, Note_on_c, 0, 60, 0
2, 18240, Note_on_c, 0, 74, 0
2, 18240, Note_on_c, 0, 66, 0
2, 18240, Note_on_c, 0, 62, 0
2, 18240, Note_on_c, 0, 67, 31
2, 18240, Note_on_c, 0, 62, 26
2, 18240, Note_on_c, 0, 71, 31
2, 18600, Note_on_c, 0, 71, 0
2, 18600, Note_on_c, 0, 62, 0
2, 18600, Note_on_c, 0, 67, 0
2, 18600, Note_on_c, 0, 60, 24
2, 18600, Note_on_c, 0, 69, 28
2, 18720, Note_on_c, 0, 69, 0
2, 18720, Note_on_c, 0, 60, 0
2, 18720, Note_on_c, 0, 62, 31
2, 18720, Note_on_c, 0, 59, 26
2, 18720, Note_on_c, 0, 67, 31
2, 19176, Note_on_c, 0, 67, 0
2, 19176, Note_on_c, 0, 59, 0
2, 19176, Note_on_c, 0, 62, 0
2, 19200, Note_on_c, 0, 72, 41
2, 19200, Note_on_c, 0, 60, 35
2, 19200, Note_on_c, 0, 67, 41
2, 19680, Note_on_c, 0, 67, 0
2, 19680, Note_on_c, 0, 60, 0
2, 19680, Note_on_c, 0, 72, 0
2, 19680, Note_on_c, 0, 60, 41
2, 19680, Note_on_c, 0, 56, 35
2, 19680, Note_on_c, 0, 68, 41
2, 20160, Note_on_c, 0, 68, 0
2, 20160, Note_on_c, 0, 56, 0
2, 20160, Note_on_c, 0, 60, 0
2, 20160, Note_on_c, 0, 67, 45
2, 20160, Note_on_c, 0, 62, 45
2, 20160, Note_on_c, 0, 55, 37
2, 20520, Note_on_c, 0, 67, 0
2, 20520, Note_on_c, 0, 65, 38
2, 20640, Note_on_c, 0, 65, 0
2, 20640, Note_on_c, 0, 55, 0
2, 20640, Note_on_c, 0, 62, 0
2, 20640, Note_on_c, 0, 63, 41
2, 20640, Note_on_c, 0, 60, 41
2, 20640, Note_on_c, 0, 55, 35
2, 21090, Note_on_c, 0, 55, 0
2, 21090, Note_on_c, 0, 60, 0
2, 21090, Note_on_c, 0, 63, 0
2, 21120, Note_on_c, 0, 60, 40
2, 21120, Note_on_c, 0, 56, 34
2, 21120, Note_on_c, 0, 51, 34
2, 21120, Note_on_c, 0, 63, 40
2, 21600, Note_on_c, 0, 63, 0
2, 21600, Note_on_c, 0, 60, 0
2, 21600, Note_on_c, 0, 56, 0
2, 21600, Note_on_c, 0, 51, 0
2, 21600, Note_on_c, 0, 65, 39
2, 21600, Note_on_c, 0, 56, 33
2, 21600, Note_on_c, 0, 53, 33
2, 21600, Note_on_c, 0, 61, 39
2, 22080, Note_on_c, 0, 61, 0
2, 22080, Note_on_c, 0, 65, 0
2, 22080, Note_on_c, 0, 56, 0
2, 22080, Note_on_c, 0, 53, 0
2, 22080, Note_on_c, 0, 63, 40
2, 22080, Note_on_c, 0, 59, 40
2, 22080, Note_on_c, 0, 53, 34
2, 22080, Note_on_c, 0, 55, 34
2, 22440, Note_on_c, 0, 63, 0
2, 22440, Note_on_c, 0, 62, 36
2, 22560, Note_on_c, 0, 62, 0
2, 22560, Note_on_c, 0, 55, 0
2, 22560, Note_on_c, 0, 53, 0
2, 22560, Note_on_c, 0, 59, 0
2, 22560, Note_on_c, 0, 55, 36
2, 22560, Note_on_c, 0, 51, 30
2, 22560, Note_on_c, 0, 60, 36
2, 23040, Note_on_c, 0, 60, 0
2, 23040, Note_on_c, 0, 51, 0
2, 23040, Note_on_c, 0, 55, 0
2, 23040, Note_on_c, 0, 72, 63
2, 23040, Note_on_c, 0, 67, 52
2, 23040, Note_on_c, 0, 60, 52
2, 23040, Note_on_c, 0, 63, 52
2, 24960, Note_on_c, 0, 63, 0
2, 24960, Note_on_c, 0, 72, 0
2, 24960, Note_on_c, 0, 67, 0
2, 24960, Note_on_c, 0, 60, 0
2, 24960, End_track
3, 0, Start_track
3, 0, Title_t, "Piano left"
3, 0, Program_c, 0, 0
3, 0, Control_c, 0, 7, 100
3, 0, Control_c, 0, 10, 64
3, 0, Note_on_c, 0, 36, 66
3, 0, Note_on_c, 0, 48, 79
3, 56, Control_c, 0, 64, 127
3, 480, Note_on_c, 0, 48, 0
3, 480, Note_on_c, 0, 36, 0
3, 480, Note_on_c, 0, 29, 64
3, 480, Note_on_c, 0, 41, 78
3, 495, Control_c, 0, 64, 0
3, 579, Control_c, 0, 64, 127
3, 960, Note_on_c, 0, 41, 0
3, 960, Note_on_c, 0, 29, 0
3, 960, Note_on_c, 0, 31, 64
3, 960, Note_on_c, 0, 43, 77
3, 975, Control_c, 0, 64, 0
3, 1052, Control_c, 0, 64, 127
3, 1440, Note_on_c, 0, 43, 0
3, 1440, Note_on_c, 0, 31, 0
3, 1440, Note_on_c, 0, 36, 56
3, 1440, Note_on_c, 0, 43, 56
3, 1440, Note_on_c, 0, 48, 66
3, 1456, Control_c, 0, 64, 0
3, 1518, Control_c, 0, 64, 127
3, 1896, Note_on_c, 0, 48, 0
3, 1896, Note_on_c, 0, 43, 0
3, 1896, Note_on_c, 0, 36, 0
3, 1920, Note_on_c, 0, 32, 66
3, 1920, Note_on_c, 0, 44, 79
3, 1926, Control_c, 0, 64, 0
3, 1976, Control_c, 0, 64, 127
3, 2400, Note_on_c, 0, 44, 0
3, 2400, Note_on_c, 0, 32, 0
3, 2400, Note_on_c, 0, 25, 66
3, 2400, Note_on_c, 0, 37, 80
3, 2416, Control_c, 0, 64, 0
3, 2499, Control_c, 0, 64, 127
3, 2880, Note_on_c, 0, 37, 0
3, 2880, Note_on_c, 0, 25, 0
3, 2880, Note_on_c, 0, 27, 64
3, 2880, Note_on_c, 0, 39, 77
3, 2897, Control_c, 0, 64, 0
3, 2972, Control_c, 0, 64, 127
3, 3360, Note_on_c, 0, 39, 0
3, 3360, Note_on_c, 0, 27, 0
3, 3360, Note_on_c, 0, 32, 57
3, 3360, Note_on_c, 0, 44, 69
3, 3377, Control_c, 0, 64, 0
3, 3438, Control_c, 0, 64, 127
3, 3816, Note_on_c, 0, 44, 0
3, 3816, Note_on_c, 0, 32, 0
3, 3840, Note_on_c, 0, 31, 62
3, 3840, Note_on_c, 0, 43, 75
3, 3850, Control_c, 0, 64, 0
3, 3896, Control_c, 0, 64, 127
3, 4320, Note_on_c, 0, 43, 0
3, 4320, Note_on_c, 0, 31, 0
3, 4320, Note_on_c, 0, 24, 64
3, 4320, Note_on_c, 0, 36, 78
3, 4335, Control_c, 0, 64, 0
3, 4419, Control_c, 0, 64, 127
3, 4800, Note_on_c, 0, 36, 0
3, 4800, Note_on_c, 0, 24, 0
3, 4800, Note_on_c, 0, 29, 66
3, 4800, Note_on_c, 0, 41, 79
3, 4816, Control_c, 0, 64, 0
3, 4892, Control_c, 0, 64, 127
3, 5280, Note_on_c, 0, 41, 0
3, 5280, Note_on_c, 0, 29, 0
3, 5280, Note_on_c, 0, 36, 61
3, 5280, Note_on_c, 0, 48, 73
3, 5297, Control_c, 0, 64, 0
3, 5358, Control_c, 0, 64, 127
3, 5760, Note_on_c, 0, 48, 0
3, 5760, Note_on_c, 0, 36, 0
3, 5760, Note_on_c, 0, 45, 66
3, 5760, Note_on_c, 0, 38, 66
3, 5760, Note_on_c, 0, 50, 79
3, 5768, Control_c, 0, 64, 0
3, 5816, Control_c, 0, 64, 127
3, 6240, Note_on_c, 0, 50, 0
3, 6240, Note_on_c, 0, 38, 0
3, 6240, Note_on_c, 0, 45, 0
3, 6240, Note_on_c, 0, 31, 69
3, 6240, Note_on_c, 0, 43, 83
3, 6255, Control_c, 0, 64, 0
3, 6339, Control_c, 0, 64, 127
3, 6720, Note_on_c, 0, 43, 0
3, 6720, Note_on_c, 0, 31, 0
3, 6720, Note_on_c, 0, 26, 60
3, 6720, Note_on_c, 0, 38, 73
3, 6728, Control_c, 0, 64, 0
3, 6794, Control_c, 0, 64, 127
3, 7200, Note_on_c, 0, 38, 0
3, 7200, Note_on_c, 0, 26, 0
3, 7200, Note_on_c, 0, 31, 54
3, 7200, Note_on_c, 0, 43, 66
3, 7217, Control_c, 0, 64, 0
3, 7278, Control_c, 0, 64, 127
3, 7656, Note_on_c, 0, 43, 0
3, 7656, Note_on_c, 0, 31, 0
3, 7660, Control_c, 0, 64, 0
3, 7680, Note_on_c, 0, 36, 30
3, 7680, Note_on_c, 0, 48, 36
3, 7743, Control_c, 0, 64, 127
3, 8160, Note_on_c, 0, 48, 0
3, 8160, Note_on_c, 0, 36, 0
3, 8160, Note_on_c, 0, 48, 27
3, 8160, Note_on_c, 0, 60, 32
3, 8177, Control_c, 0, 64, 0
3, 8223, Control_c, 0, 64, 127
3, 8640, Note_on_c, 0, 60, 0
3, 8640, Note_on_c, 0, 48, 0
3, 8640, Note_on_c, 0, 47, 30
3, 8640, Note_on_c, 0, 59, 36
3, 8656, Control_c, 0, 64, 0
3, 8731, Control_c, 0, 64, 127
3, 9120, Note_on_c, 0, 59, 0
3, 9120, Note_on_c, 0, 47, 0
3, 9120, Note_on_c, 0, 46, 28
3, 9120, Note_on_c, 0, 58, 34
3, 9130, Control_c, 0, 64, 0
3, 9223, Control_c, 0, 64, 127
3, 9576, Note_on_c, 0, 58, 0
3, 9576, Note_on_c, 0, 46, 0
3, 9600, Note_on_c, 0, 45, 30
3, 9600, Note_on_c, 0, 57, 36
3, 9604, Control_c, 0, 64, 0
3, 9646, Control_c, 0, 64, 127
3, 10080, Note_on_c, 0, 57, 0
3, 10080, Note_on_c, 0, 45, 0
3, 10080, Note_on_c, 0, 44, 28
3, 10080, Note_on_c, 0, 56, 34
3, 10096, Control_c, 0, 64, 0
3, 10160, Control_c, 0, 64, 127
3, 10560, Note_on_c, 0, 56, 0
3, 10560, Note_on_c, 0, 44, 0
3, 10560, Note_on_c, 0, 43, 31
3, 10560, Note_on_c, 0, 55, 37
3, 10576, Control_c, 0, 64, 0
3, 10669, Control_c, 0, 64, 127
3, 11040, Note_on_c, 0, 55, 0
3, 11040, Note_on_c, 0, 43, 0
3, 11040, Note_on_c, 0, 41, 28
3, 11040, Note_on_c, 0, 53, 34
3, 11056, Control_c, 0, 64, 0
3, 11149, Control_c, 0, 64, 127
3, 11496, Note_on_c, 0, 53, 0
3, 11496, Note_on_c, 0, 41, 0
3, 11520, Note_on_c, 0, 39, 33
3, 11520, Note_on_c, 0, 51, 39
3, 11532, Control_c, 0, 64, 0
3, 11612, Control_c, 0, 64, 127
3, 12000, Note_on_c, 0, 51, 0
3, 12000, Note_on_c, 0, 39, 0
3, 12000, Note_on_c, 0, 41, 36
3, 12000, Note_on_c, 0, 53, 43
3, 12012, Control_c, 0, 64, 0
3, 12099, Control_c, 0, 64, 127
3, 12480, Note_on_c, 0, 53, 0
3, 12480, Note_on_c, 0, 41, 0
3, 12480, Note_on_c, 0, 35, 36
3, 12480, Note_on_c, 0, 47, 44
3, 12494, Control_c, 0, 64, 0
3, 12558, Control_c, 0, 64, 127
3, 12960, Note_on_c, 0, 47, 0
3, 12960, Note_on_c, 0, 35, 0
3, 12960, Note_on_c, 0, 36, 33
3, 12960, Note_on_c, 0, 48, 39
3, 12975, Control_c, 0, 64, 0
3, 13066, Control_c, 0, 64, 127
3, 13416, Note_on_c, 0, 48, 0
3, 13416, Note_on_c, 0, 36, 0
3, 13440, Control_c, 0, 64, 0
3, 13440, Note_on_c, 0, 32, 33
3, 13440, Note_on_c, 0, 44, 39
3, 13567, Control_c, 0, 64, 127
3, 13920, Note_on_c, 0, 44, 0
3, 13920, Note_on_c, 0, 32, 0
3, 13920, Note_on_c, 0, 25, 28
3, 13920, Note_on_c, 0, 37, 34
3, 13935, Control_c, 0, 64, 0
3, 14026, Control_c, 0, 64, 127
3, 14400, Note_on_c, 0, 37, 0
3, 14400, Note_on_c, 0, 25, 0
3, 14400, Note_on_c, 0, 31, 33
3, 14400, Note_on_c, 0, 43, 39
3, 14442, Control_c, 0, 64, 0
3, 14506, Control_c, 0, 64, 127
3, 14880, Note_on_c, 0, 43, 0
3, 14880, Note_on_c, 0, 31, 0
3, 14880, Note_on_c, 0, 24, 27
3, 14880, Note_on_c, 0, 36, 32
3, 14896, Control_c, 0, 64, 0
3, 14986, Control_c, 0, 64, 127
3, 15336, Note_on_c, 0, 36, 0
3, 15336, Note_on_c, 0, 24, 0
3, 15340, Control_c, 0, 64, 0
3, 15360, Note_on_c, 0, 36, 19
3, 15360, Note_on_c, 0, 48, 24
3, 15423, Control_c, 0, 64, 127
3, 15840, Note_on_c, 0, 48, 0
3, 15840, Note_on_c, 0, 36, 0
3, 15840, Note_on_c, 0, 48, 17
3, 15840, Note_on_c, 0, 60, 21
3, 15857, Control_c, 0, 64, 0
3, 15903, Control_c, 0, 64, 127
3, 16320, Note_on_c, 0, 60, 0
3, 16320, Note_on_c, 0, 48, 0
3, 16320, Note_on_c, 0, 47, 19
3, 16320, Note_on_c, 0, 59, 24
3, 16337, Control_c, 0, 64, 0
3, 16411, Control_c, 0, 64, 127
3, 16800, Note_on_c, 0, 59, 0
3, 16800, Note_on_c, 0, 47, 0
3, 16800, Note_on_c, 0, 46, 18
3, 16800, Note_on_c, 0, 58, 22
3, 16808, Control_c, 0, 64, 0
3, 16886, Control_c, 0, 64, 127
3, 17256, Note_on_c, 0, 58, 0
3, 17256, Note_on_c, 0, 46, 0
3, 17280, Note_on_c, 0, 45, 19
3, 17280, Note_on_c, 0, 57, 24
3, 17289, Control_c, 0, 64, 0
3, 17366, Control_c, 0, 64, 127
3, 17760, Note_on_c, 0, 57, 0
3, 17760, Note_on_c, 0, 45, 0
3, 17760, Note_on_c, 0, 44, 18
3, 17760, Note_on_c, 0, 56, 22
3, 17779, Control_c, 0, 64, 0
3, 17840, Control_c, 0, 64, 127
3, 18240, Note_on_c, 0, 56, 0
3, 18240, Note_on_c, 0, 44, 0
3, 18240, Note_on_c, 0, 43, 20
3, 18240, Note_on_c, 0, 55, 24
3, 18254, Control_c, 0, 64, 0
3, 18349, Control_c, 0, 64, 127
3, 18720, Note_on_c, 0, 55, 0
3, 18720, Note_on_c, 0, 43, 0
3, 18720, Note_on_c, 0, 41, 18
3, 18720, Note_on_c, 0, 53, 22
3, 18738, Control_c, 0, 64, 0
3, 18829, Control_c, 0, 64, 127
3, 19176, Note_on_c, 0, 53, 0
3, 19176, Note_on_c, 0, 41, 0
3, 19200, Note_on_c, 0, 39, 27
3, 19200, Note_on_c, 0, 51, 33
3, 19207, Control_c, 0, 64, 0
3, 19327, Control_c, 0, 64, 127
3, 19680, Note_on_c, 0, 51, 0
3, 19680, Note_on_c, 0, 39, 0
3, 19680, Note_on_c, 0, 41, 30
3, 19680, Note_on_c, 0, 53, 36
3, 19693, Control_c, 0, 64, 0
3, 19779, Control_c, 0, 64, 127
3, 20160, Note_on_c, 0, 53, 0
3, 20160, Note_on_c, 0, 41, 0
3, 20160, Note_on_c, 0, 35, 30
3, 20160, Note_on_c, 0, 47, 36
3, 20174, Control_c, 0, 64, 0
3, 20238, Control_c, 0, 64, 127
3, 20640, Note_on_c, 0, 47, 0
3, 20640, Note_on_c, 0, 35, 0
3, 20640, Note_on_c, 0, 36, 27
3, 20640, Note_on_c, 0, 48, 33
3, 20656, Control_c, 0, 64, 0
3, 20774, Control_c, 0, 64, 127
3, 21090, Note_on_c, 0, 48, 0
3, 21090, Note_on_c, 0, 36, 0
3, 21120, Note_on_c, 0, 32, 27
3, 21120, Note_on_c, 0, 44, 33
3, 21132, Control_c, 0, 64, 0
3, 21240, Control_c, 0, 64, 127
3, 21600, Note_on_c, 0, 44, 0
3, 21600, Note_on_c, 0, 32, 0
3, 21600, Note_on_c, 0, 25, 24
3, 21600, Note_on_c, 0, 37, 28
3, 21615, Control_c, 0, 64, 0
3, 21706, Control_c, 0, 64, 127
3, 22080, Note_on_c, 0, 37, 0
3, 22080, Note_on_c, 0, 25, 0
3, 22080, Note_on_c, 0, 31, 27
3, 22080, Note_on_c, 0, 43, 33
3, 22092, Control_c, 0, 64, 0
3, 22186, Control_c, 0, 64, 127
3, 22560, Note_on_c, 0, 43, 0
3, 22560, Note_on_c, 0, 31, 0
3, 22560, Note_on_c, 0, 24, 22
3, 22560, Note_on_c, 0, 36, 27
3, 22574, Control_c, 0, 64, 0
3, 22666, Control_c, 0, 64, 127
3, 23040, Note_on_c, 0, 36, 0
3, 23040, Note_on_c, 0, 24, 0
3, 23040, Note_on_c, 0, 48, 37
3, 23040, Note_on_c, 0, 55, 47
3, 24960, Note_on_c, 0, 55, 0
3, 24960, Note_on_c, 0, 48, 0
3, 26587, Control_c, 0, 64, 0
3, 26587, End_track
4, 0, Start_track
4, 0, Title_t, "Chopin: Prelude No.20 in C Minor Op. 28"
4, 0, End_track
5, 0, Start_track
5, 0, Title_t, "Copyright © 2002 by Bernd Krueger"
5, 0, End_track
6, 0, Start_track
6, 0, Title_t, "http://www.piano-midi.de"
6, 0, End_track
7, 0, Start_track
7, 0, Title_t, "Edition: 2014-02-22"
7, 0, End_track
8, 0, Start_track
8, 0, Title_t, "Spur 7"
8, 0, End_track
0, 0, End_of_file
