0, 0, Header, 1, 8, 480
1, 0, Start_track
1, 0, Title_t, "Chopin Mazurka Opus 7 No. 2"
1, 0, Copyright_t, "Copyright © 2003 by Bernd Krueger "
1, 0, Text_t, "Frederic Chopin"
1, 0, Text_t, "Vivo ma non troppo"
1, 0, Text_t, "Fertiggestellt am 5.7.2003\012"
1, 0, Text_t, "Update am 7.7.2010\012"
1, 0, Text_t, "Update am 11.2.1014\012"
1, 0, Text_t, "Dauer: 2:42 Minuten\012"
1, 0, SMPTE_offset, 96, 0, 3, 0, 0
1, 0, Time_signature, 3, 2, 24, 8
1, 0, Key_signature, 0, "major"
1, 0, Tempo, 416667
1, 960, Tempo, 430108
1, 1440, Tempo, 416667
1, 2160, Tempo, 425532
1, 2400, Tempo, 447761
1, 2640, Tempo, 545455
1, 2880, Tempo, 428571
1, 2920, Tempo, 421053
1, 3600, Tempo, 431655
1, 4320, Tempo, 422535
1, 4800, Tempo, 431655
1, 5280, Tempo, 442804
1, 5520, Tempo, 483871
1, 5760, Tempo, 431655
1, 7200, Tempo, 415225
1, 8160, Tempo, 415225
1, 8640, Tempo, 430108
1, 9120, Tempo, 419580
1, 9600, Tempo, 425532
1, 10080, Tempo, 418118
1, 11040, Tempo, 433213
1, 12000, Tempo, 504202
1, 12480, Tempo, 430108
1, 12960, Tempo, 416667
1, 13440, Tempo, 430108
1, 13680, Tempo, 425532
1, 13920, Tempo, 437956
1, 14160, Tempo, 591716
1, 14400, Tempo, 428571
1, 14440, Tempo, 421053
1, 15120, Tempo, 431655
1, 15840, Tempo, 422535
1, 16320, Tempo, 431655
1, 16800, Tempo, 449438
1, 17040, Tempo, 524017
1, 17280, Tempo, 422535
1, 17760, Tempo, 431655
1, 18720, Tempo, 415225
1, 19200, Tempo, 452830
1, 19680, Tempo, 481928
1, 20160, Tempo, 519481
1, 20640, Tempo, 481928
1, 21120, Tempo, 535714
1, 21600, Tempo, 427046
1, 22080, Tempo, 444444
1, 22560, Tempo, 449438
1, 23520, Tempo, 508475
1, 24000, Tempo, 430108
1, 24480, Tempo, 416667
1, 24960, Tempo, 430108
1, 25200, Tempo, 425532
1, 25440, Tempo, 447761
1, 25680, Tempo, 606061
1, 25920, Tempo, 428571
1, 25960, Tempo, 421053
1, 26640, Tempo, 431655
1, 27360, Tempo, 422535
1, 27840, Tempo, 431655
1, 28320, Tempo, 442804
1, 28560, Tempo, 483871
1, 28800, Tempo, 431655
1, 30240, Tempo, 415225
1, 31200, Tempo, 415225
1, 31680, Tempo, 430108
1, 32160, Tempo, 419580
1, 32640, Tempo, 425532
1, 33120, Tempo, 418118
1, 34080, Tempo, 433213
1, 35040, Tempo, 490998
1, 35520, Tempo, 430108
1, 36000, Tempo, 416667
1, 36480, Tempo, 430108
1, 36720, Tempo, 425532
1, 36960, Tempo, 437956
1, 37200, Tempo, 489796
1, 37440, Tempo, 428571
1, 37480, Tempo, 421053
1, 38160, Tempo, 431655
1, 38880, Tempo, 422535
1, 39360, Tempo, 431655
1, 39840, Tempo, 449438
1, 40080, Tempo, 552995
1, 40320, Tempo, 422535
1, 40800, Tempo, 431655
1, 41760, Tempo, 415225
1, 42240, Tempo, 452830
1, 42720, Tempo, 476190
1, 43200, Tempo, 517241
1, 43680, Tempo, 481928
1, 44160, Tempo, 535714
1, 44640, Tempo, 427046
1, 45120, Tempo, 444444
1, 45600, Tempo, 449438
1, 46560, Tempo, 560748
1, 47040, Tempo, 444444
1, 47520, Tempo, 439560
1, 48000, Tempo, 439560
1, 48240, Tempo, 425532
1, 48480, Tempo, 436364
1, 48720, Tempo, 463320
1, 48960, Tempo, 428571
1, 49440, Tempo, 416667
1, 49680, Tempo, 431655
1, 50400, Tempo, 439560
1, 50880, Tempo, 439560
1, 51120, Tempo, 425532
1, 51360, Tempo, 436364
1, 51600, Tempo, 463320
1, 51840, Tempo, 431655
1, 52320, Tempo, 416667
1, 52560, Tempo, 431655
1, 52800, Tempo, 439560
1, 53280, Tempo, 419580
1, 53760, Tempo, 401606
1, 54000, Tempo, 431655
1, 54240, Tempo, 436364
1, 54720, Tempo, 422535
1, 55200, Tempo, 408163
1, 55440, Tempo, 431655
1, 55680, Tempo, 437956
1, 56160, Tempo, 424028
1, 56640, Tempo, 412655
1, 56880, Tempo, 431655
1, 57120, Tempo, 436364
1, 57600, Tempo, 428571
1, 57640, Tempo, 436364
1, 58080, Tempo, 431655
1, 58320, Tempo, 444444
1, 58560, Tempo, 454545
1, 58800, Tempo, 458015
1, 59040, Tempo, 427046
1, 59520, Tempo, 437956
1, 59760, Tempo, 425532
1, 60000, Tempo, 437956
1, 60240, Tempo, 569260
1, 60480, Tempo, 428571
1, 60520, Tempo, 421053
1, 61200, Tempo, 431655
1, 61920, Tempo, 422535
1, 62400, Tempo, 431655
1, 62880, Tempo, 449438
1, 63120, Tempo, 502092
1, 63360, Tempo, 422535
1, 63840, Tempo, 431655
1, 64800, Tempo, 415225
1, 65280, Tempo, 456274
1, 65320, Tempo, 454545
1, 65760, Tempo, 481928
1, 66240, Tempo, 528634
1, 66720, Tempo, 481928
1, 67200, Tempo, 535714
1, 67680, Tempo, 427046
1, 68160, Tempo, 444444
1, 68640, Tempo, 449438
1, 69600, Tempo, 573614
1, 70080, Tempo, 444444
1, 70560, Tempo, 439560
1, 71040, Tempo, 439560
1, 71280, Tempo, 425532
1, 71520, Tempo, 436364
1, 71760, Tempo, 463320
1, 72000, Tempo, 428571
1, 72480, Tempo, 416667
1, 72720, Tempo, 431655
1, 73440, Tempo, 439560
1, 73920, Tempo, 439560
1, 74160, Tempo, 425532
1, 74400, Tempo, 436364
1, 74640, Tempo, 463320
1, 74880, Tempo, 431655
1, 75360, Tempo, 416667
1, 75600, Tempo, 431655
1, 75840, Tempo, 436364
1, 76320, Tempo, 418118
1, 76800, Tempo, 399467
1, 77040, Tempo, 431655
1, 77280, Tempo, 436364
1, 77760, Tempo, 422535
1, 78240, Tempo, 401606
1, 78480, Tempo, 431655
1, 78720, Tempo, 434783
1, 79200, Tempo, 425532
1, 79680, Tempo, 408163
1, 79920, Tempo, 431655
1, 80160, Tempo, 436364
1, 80640, Tempo, 442804
1, 80680, Tempo, 436364
1, 81120, Tempo, 428571
1, 81360, Tempo, 444444
1, 81600, Tempo, 459770
1, 81840, Tempo, 478088
1, 82080, Tempo, 430108
1, 82560, Tempo, 430108
1, 82800, Tempo, 425532
1, 83040, Tempo, 437956
1, 83280, Tempo, 587084
1, 83520, Tempo, 428571
1, 83560, Tempo, 421053
1, 84240, Tempo, 431655
1, 84960, Tempo, 422535
1, 85440, Tempo, 431655
1, 85920, Tempo, 449438
1, 86160, Tempo, 530973
1, 86400, Tempo, 422535
1, 86880, Tempo, 431655
1, 87840, Tempo, 415225
1, 88320, Tempo, 456274
1, 88800, Tempo, 478088
1, 89280, Tempo, 560748
1, 89760, Tempo, 481928
1, 90240, Tempo, 535714
1, 90720, Tempo, 427046
1, 91200, Tempo, 444444
1, 91680, Tempo, 449438
1, 92640, Tempo, 472441
1, 93600, Key_signature, 3, "major"
1, 93600, Tempo, 438116
1, 94080, Tempo, 423669
1, 94560, Tempo, 431593
1, 95040, Tempo, 429984
1, 95520, Tempo, 426803
1, 96000, Tempo, 433213
1, 96480, Tempo, 436459
1, 96960, Tempo, 428388
1, 97440, Tempo, 433213
1, 97920, Tempo, 426803
1, 98400, Tempo, 431593
1, 99120, Tempo, 446097
1, 99360, Tempo, 381194
1, 99840, Tempo, 423669
1, 100320, Tempo, 431593
1, 100800, Tempo, 405954
1, 101280, Tempo, 426803
1, 101760, Tempo, 433213
1, 102040, Tempo, 441176
1, 102240, Tempo, 385109
1, 102720, Tempo, 428388
1, 103200, Tempo, 433213
1, 103680, Tempo, 389105
1, 104160, Tempo, 431593
1, 105100, Tempo, 438116
1, 105580, Tempo, 423669
1, 106060, Tempo, 431593
1, 106540, Tempo, 429984
1, 106560, Tempo, 395257
1, 107020, Tempo, 426803
1, 107500, Tempo, 433213
1, 108000, Tempo, 438116
1, 108460, Tempo, 423669
1, 108940, Tempo, 431593
1, 109420, Tempo, 429984
1, 109440, Tempo, 391134
1, 109900, Tempo, 426803
1, 109920, Tempo, 433213
1, 110380, Tempo, 433213
1, 110880, Tempo, 438116
1, 111340, Tempo, 423669
1, 111820, Tempo, 431593
1, 112300, Tempo, 429984
1, 112320, Tempo, 391134
1, 112780, Tempo, 426803
1, 113260, Tempo, 433213
1, 113280, Tempo, 441469
1, 113760, Tempo, 449438
1, 114000, Tempo, 472441
1, 115200, Tempo, 461538
1, 115440, Tempo, 540541
1, 115680, Tempo, 470588
1, 116640, Tempo, 438116
1, 117120, Tempo, 423669
1, 117600, Tempo, 431593
1, 118080, Tempo, 429984
1, 118560, Tempo, 426803
1, 119040, Tempo, 433213
1, 119520, Tempo, 436459
1, 120000, Tempo, 428388
1, 120480, Tempo, 433213
1, 120960, Tempo, 426803
1, 121440, Tempo, 431593
1, 122400, Tempo, 379267
1, 122880, Tempo, 423669
1, 123360, Tempo, 431593
1, 123840, Tempo, 385109
1, 124320, Tempo, 426803
1, 124800, Tempo, 433213
1, 125280, Tempo, 383142
1, 125760, Tempo, 428388
1, 126240, Tempo, 433213
1, 126720, Tempo, 387097
1, 127200, Tempo, 431593
1, 128140, Tempo, 438116
1, 128160, Tempo, 438116
1, 128620, Tempo, 423669
1, 129100, Tempo, 431593
1, 129580, Tempo, 429984
1, 129600, Tempo, 383142
1, 130060, Tempo, 426803
1, 130540, Tempo, 433213
1, 131040, Tempo, 438116
1, 131500, Tempo, 423669
1, 131980, Tempo, 431593
1, 132460, Tempo, 429984
1, 132480, Tempo, 387097
1, 132940, Tempo, 426803
1, 132960, Tempo, 433213
1, 133420, Tempo, 433213
1, 133920, Tempo, 438116
1, 134380, Tempo, 423669
1, 134860, Tempo, 431593
1, 135340, Tempo, 429984
1, 135360, Tempo, 389105
1, 135820, Tempo, 426803
1, 136300, Tempo, 433213
1, 136320, Tempo, 441469
1, 136800, Tempo, 446595
1, 136840, Tempo, 452830
1, 137040, Tempo, 474308
1, 138240, Tempo, 511073
1, 138480, Tempo, 582524
1, 138720, Tempo, 472441
1, 139680, Tempo, 438116
1, 140160, Tempo, 423669
1, 140640, Tempo, 431593
1, 141120, Tempo, 429984
1, 141600, Tempo, 426803
1, 142080, Tempo, 433213
1, 142560, Tempo, 436459
1, 143040, Tempo, 428388
1, 143520, Tempo, 433213
1, 144000, Tempo, 426803
1, 144480, Tempo, 431593
1, 145440, Tempo, 381194
1, 145920, Tempo, 423669
1, 146400, Tempo, 431593
1, 146880, Tempo, 381194
1, 147360, Tempo, 426803
1, 147840, Tempo, 433213
1, 148320, Tempo, 383142
1, 148800, Tempo, 428388
1, 149280, Tempo, 433213
1, 149760, Tempo, 443164
1, 150240, Tempo, 884956
1, 150720, Tempo, 458015
1, 151200, Key_signature, 0, "major"
1, 151200, Tempo, 416667
1, 151680, Tempo, 430108
1, 151920, Tempo, 425532
1, 152160, Tempo, 447761
1, 152400, Tempo, 610998
1, 152640, Tempo, 428571
1, 152680, Tempo, 421053
1, 153360, Tempo, 431655
1, 154080, Tempo, 422535
1, 154560, Tempo, 431655
1, 155040, Tempo, 442804
1, 155280, Tempo, 483871
1, 155520, Tempo, 431655
1, 156960, Tempo, 415225
1, 157920, Tempo, 415225
1, 158400, Tempo, 430108
1, 158880, Tempo, 419580
1, 159360, Tempo, 425532
1, 159840, Tempo, 418118
1, 160800, Tempo, 433213
1, 161760, Tempo, 458015
1, 162240, Tempo, 430108
1, 162720, Tempo, 416667
1, 163200, Tempo, 430108
1, 163440, Tempo, 425532
1, 163680, Tempo, 437956
1, 163920, Tempo, 659341
1, 164160, Tempo, 428571
1, 164200, Tempo, 421053
1, 164880, Tempo, 431655
1, 165600, Tempo, 422535
1, 166080, Tempo, 431655
1, 166560, Tempo, 449438
1, 166800, Tempo, 521739
1, 167040, Tempo, 422535
1, 167520, Tempo, 431655
1, 168480, Tempo, 415225
1, 168960, Tempo, 456274
1, 169440, Tempo, 494234
1, 169920, Tempo, 582524
1, 170400, Tempo, 529101
1, 170880, Tempo, 564972
1, 171360, Tempo, 478469
1, 171840, Tempo, 500835
1, 172320, Tempo, 525394
1, 172800, Tempo, 573614
1, 173280, Tempo, 536673
1, 174240, Tempo, 600000
1, 174240, End_track
2, 0, Start_track
2, 0, Title_t, "Piano right"
2, 0, Program_c, 0, 0
2, 0, Control_c, 0, 7, 100
2, 0, Control_c, 0, 10, 64
2, 0, Control_c, 0, 91, 127
2, 0, Text_t, "bdca426d104a26ac9dcb070447587523"
2, 960, Note_on_c, 0, 76, 45
2, 1440, Note_on_c, 0, 76, 0
2, 1440, Note_on_c, 0, 77, 46
2, 1800, Note_on_c, 0, 77, 0
2, 1800, Note_on_c, 0, 76, 45
2, 1920, Note_on_c, 0, 76, 0
2, 1920, Note_on_c, 0, 74, 45
2, 2400, Note_on_c, 0, 74, 0
2, 2400, Note_on_c, 0, 77, 48
2, 2876, Note_on_c, 0, 77, 0
2, 2880, Note_on_c, 0, 77, 47
2, 3840, Note_on_c, 0, 77, 0
2, 3840, Note_on_c, 0, 76, 43
2, 4320, Note_on_c, 0, 76, 0
2, 4320, Note_on_c, 0, 74, 42
2, 4400, Note_on_c, 0, 74, 0
2, 4400, Note_on_c, 0, 76, 43
2, 4480, Note_on_c, 0, 76, 0
2, 4480, Note_on_c, 0, 74, 44
2, 4560, Note_on_c, 0, 74, 0
2, 4560, Note_on_c, 0, 73, 45
2, 4800, Note_on_c, 0, 73, 0
2, 4800, Note_on_c, 0, 74, 47
2, 5040, Note_on_c, 0, 74, 0
2, 5040, Note_on_c, 0, 75, 45
2, 5280, Note_on_c, 0, 75, 0
2, 5280, Note_on_c, 0, 76, 50
2, 5520, Note_on_c, 0, 76, 0
2, 5520, Note_on_c, 0, 71, 50
2, 5760, Note_on_c, 0, 71, 0
2, 5760, Note_on_c, 0, 74, 54
2, 6720, Note_on_c, 0, 74, 0
2, 6720, Note_on_c, 0, 72, 45
2, 7200, Note_on_c, 0, 72, 0
2, 7200, Note_on_c, 0, 69, 62
2, 7360, Note_on_c, 0, 69, 0
2, 7360, Note_on_c, 0, 71, 57
2, 7520, Note_on_c, 0, 71, 0
2, 7520, Note_on_c, 0, 69, 57
2, 7680, Note_on_c, 0, 69, 0
2, 7680, Note_on_c, 0, 68, 63
2, 7920, Note_on_c, 0, 68, 0
2, 8160, Note_on_c, 0, 69, 67
2, 8400, Note_on_c, 0, 69, 0
2, 8640, Note_on_c, 0, 71, 70
2, 8880, Note_on_c, 0, 71, 0
2, 9120, Note_on_c, 0, 76, 72
2, 10080, Note_on_c, 0, 76, 0
2, 10080, Note_on_c, 0, 71, 76
2, 10320, Note_on_c, 0, 71, 0
2, 10320, Note_on_c, 0, 67, 73
2, 10560, Note_on_c, 0, 67, 0
2, 10560, Note_on_c, 0, 64, 76
2, 10800, Note_on_c, 0, 64, 0
2, 10800, Note_on_c, 0, 71, 71
2, 11040, Note_on_c, 0, 71, 0
2, 11040, Note_on_c, 0, 63, 73
2, 11520, Note_on_c, 0, 63, 0
2, 11520, Note_on_c, 0, 64, 76
2, 12480, Note_on_c, 0, 64, 0
2, 12480, Note_on_c, 0, 76, 45
2, 12960, Note_on_c, 0, 76, 0
2, 12960, Note_on_c, 0, 77, 46
2, 13320, Note_on_c, 0, 77, 0
2, 13320, Note_on_c, 0, 76, 45
2, 13440, Note_on_c, 0, 76, 0
2, 13440, Note_on_c, 0, 74, 45
2, 13920, Note_on_c, 0, 74, 0
2, 13920, Note_on_c, 0, 77, 48
2, 14394, Note_on_c, 0, 77, 0
2, 14400, Note_on_c, 0, 77, 47
2, 15360, Note_on_c, 0, 77, 0
2, 15360, Note_on_c, 0, 76, 43
2, 15840, Note_on_c, 0, 76, 0
2, 15840, Note_on_c, 0, 74, 42
2, 15920, Note_on_c, 0, 74, 0
2, 15920, Note_on_c, 0, 76, 43
2, 16000, Note_on_c, 0, 76, 0
2, 16000, Note_on_c, 0, 74, 44
2, 16080, Note_on_c, 0, 74, 0
2, 16080, Note_on_c, 0, 73, 45
2, 16320, Note_on_c, 0, 73, 0
2, 16320, Note_on_c, 0, 74, 47
2, 16560, Note_on_c, 0, 74, 0
2, 16560, Note_on_c, 0, 75, 45
2, 16800, Note_on_c, 0, 75, 0
2, 16800, Note_on_c, 0, 76, 47
2, 17040, Note_on_c, 0, 76, 0
2, 17040, Note_on_c, 0, 71, 42
2, 17154, Note_on_c, 0, 71, 0
2, 17160, Note_on_c, 0, 71, 47
2, 17280, Note_on_c, 0, 71, 0
2, 17280, Note_on_c, 0, 74, 51
2, 18240, Note_on_c, 0, 74, 0
2, 18240, Note_on_c, 0, 72, 45
2, 18720, Note_on_c, 0, 72, 0
2, 18720, Note_on_c, 0, 69, 46
2, 18880, Note_on_c, 0, 69, 0
2, 18880, Note_on_c, 0, 70, 43
2, 19040, Note_on_c, 0, 70, 0
2, 19040, Note_on_c, 0, 69, 43
2, 19200, Note_on_c, 0, 69, 0
2, 19200, Note_on_c, 0, 67, 47
2, 19680, Note_on_c, 0, 67, 0
2, 19680, Note_on_c, 0, 69, 51
2, 20160, Note_on_c, 0, 69, 0
2, 20160, Note_on_c, 0, 70, 53
2, 20640, Note_on_c, 0, 70, 0
2, 20640, Note_on_c, 0, 74, 54
2, 21120, Note_on_c, 0, 74, 0
2, 21600, Note_on_c, 0, 69, 48
2, 21960, Note_on_c, 0, 69, 0
2, 21960, Note_on_c, 0, 68, 44
2, 22080, Note_on_c, 0, 68, 0
2, 22080, Note_on_c, 0, 62, 40
2, 22080, Note_on_c, 0, 64, 48
2, 22560, Note_on_c, 0, 64, 0
2, 22560, Note_on_c, 0, 62, 0
2, 22560, Note_on_c, 0, 68, 45
2, 22560, Note_on_c, 0, 62, 38
2, 23040, Note_on_c, 0, 62, 0
2, 23040, Note_on_c, 0, 68, 0
2, 23040, Note_on_c, 0, 60, 39
2, 23040, Note_on_c, 0, 69, 46
2, 23520, Note_on_c, 0, 60, 0
2, 24000, Note_on_c, 0, 69, 0
2, 24000, Note_on_c, 0, 76, 45
2, 24480, Note_on_c, 0, 76, 0
2, 24480, Note_on_c, 0, 77, 46
2, 24840, Note_on_c, 0, 77, 0
2, 24840, Note_on_c, 0, 76, 45
2, 24960, Note_on_c, 0, 76, 0
2, 24960, Note_on_c, 0, 74, 45
2, 25440, Note_on_c, 0, 74, 0
2, 25440, Note_on_c, 0, 77, 48
2, 25920, Note_on_c, 0, 77, 0
2, 25920, Note_on_c, 0, 77, 47
2, 26880, Note_on_c, 0, 77, 0
2, 26880, Note_on_c, 0, 76, 43
2, 27360, Note_on_c, 0, 76, 0
2, 27360, Note_on_c, 0, 74, 42
2, 27440, Note_on_c, 0, 74, 0
2, 27440, Note_on_c, 0, 76, 43
2, 27520, Note_on_c, 0, 76, 0
2, 27520, Note_on_c, 0, 74, 44
2, 27600, Note_on_c, 0, 74, 0
2, 27600, Note_on_c, 0, 73, 45
2, 27840, Note_on_c, 0, 73, 0
2, 27840, Note_on_c, 0, 74, 47
2, 28080, Note_on_c, 0, 74, 0
2, 28080, Note_on_c, 0, 75, 45
2, 28320, Note_on_c, 0, 75, 0
2, 28320, Note_on_c, 0, 76, 53
2, 28560, Note_on_c, 0, 76, 0
2, 28560, Note_on_c, 0, 71, 48
2, 28800, Note_on_c, 0, 71, 0
2, 28800, Note_on_c, 0, 74, 58
2, 29760, Note_on_c, 0, 74, 0
2, 29760, Note_on_c, 0, 72, 45
2, 30240, Note_on_c, 0, 72, 0
2, 30240, Note_on_c, 0, 69, 62
2, 30400, Note_on_c, 0, 69, 0
2, 30400, Note_on_c, 0, 71, 57
2, 30560, Note_on_c, 0, 71, 0
2, 30560, Note_on_c, 0, 69, 57
2, 30720, Note_on_c, 0, 69, 0
2, 30720, Note_on_c, 0, 68, 63
2, 30960, Note_on_c, 0, 68, 0
2, 31200, Note_on_c, 0, 69, 67
2, 31440, Note_on_c, 0, 69, 0
2, 31680, Note_on_c, 0, 71, 70
2, 31920, Note_on_c, 0, 71, 0
2, 32160, Note_on_c, 0, 76, 72
2, 33120, Note_on_c, 0, 76, 0
2, 33120, Note_on_c, 0, 71, 76
2, 33360, Note_on_c, 0, 71, 0
2, 33360, Note_on_c, 0, 67, 73
2, 33600, Note_on_c, 0, 67, 0
2, 33600, Note_on_c, 0, 64, 76
2, 33840, Note_on_c, 0, 64, 0
2, 33840, Note_on_c, 0, 71, 71
2, 34080, Note_on_c, 0, 71, 0
2, 34080, Note_on_c, 0, 63, 73
2, 34560, Note_on_c, 0, 63, 0
2, 34560, Note_on_c, 0, 64, 76
2, 35520, Note_on_c, 0, 64, 0
2, 35520, Note_on_c, 0, 76, 45
2, 36000, Note_on_c, 0, 76, 0
2, 36000, Note_on_c, 0, 77, 46
2, 36360, Note_on_c, 0, 77, 0
2, 36360, Note_on_c, 0, 76, 45
2, 36480, Note_on_c, 0, 76, 0
2, 36480, Note_on_c, 0, 74, 45
2, 36960, Note_on_c, 0, 74, 0
2, 36960, Note_on_c, 0, 77, 48
2, 37440, Note_on_c, 0, 77, 0
2, 37440, Note_on_c, 0, 77, 47
2, 38400, Note_on_c, 0, 77, 0
2, 38400, Note_on_c, 0, 76, 43
2, 38880, Note_on_c, 0, 76, 0
2, 38880, Note_on_c, 0, 74, 42
2, 38960, Note_on_c, 0, 74, 0
2, 38960, Note_on_c, 0, 76, 43
2, 39040, Note_on_c, 0, 76, 0
2, 39040, Note_on_c, 0, 74, 44
2, 39120, Note_on_c, 0, 74, 0
2, 39120, Note_on_c, 0, 73, 45
2, 39360, Note_on_c, 0, 73, 0
2, 39360, Note_on_c, 0, 74, 47
2, 39600, Note_on_c, 0, 74, 0
2, 39600, Note_on_c, 0, 75, 45
2, 39840, Note_on_c, 0, 75, 0
2, 39840, Note_on_c, 0, 76, 47
2, 40080, Note_on_c, 0, 76, 0
2, 40080, Note_on_c, 0, 71, 42
2, 40194, Note_on_c, 0, 71, 0
2, 40200, Note_on_c, 0, 71, 42
2, 40320, Note_on_c, 0, 71, 0
2, 40320, Note_on_c, 0, 74, 46
2, 41280, Note_on_c, 0, 74, 0
2, 41280, Note_on_c, 0, 72, 45
2, 41760, Note_on_c, 0, 72, 0
2, 41760, Note_on_c, 0, 69, 46
2, 41920, Note_on_c, 0, 69, 0
2, 41920, Note_on_c, 0, 70, 43
2, 42080, Note_on_c, 0, 70, 0
2, 42080, Note_on_c, 0, 69, 43
2, 42240, Note_on_c, 0, 69, 0
2, 42240, Note_on_c, 0, 67, 47
2, 42720, Note_on_c, 0, 67, 0
2, 42720, Note_on_c, 0, 69, 54
2, 43200, Note_on_c, 0, 69, 0
2, 43200, Note_on_c, 0, 70, 62
2, 43680, Note_on_c, 0, 70, 0
2, 43680, Note_on_c, 0, 74, 59
2, 44160, Note_on_c, 0, 74, 0
2, 44640, Note_on_c, 0, 69, 48
2, 45000, Note_on_c, 0, 69, 0
2, 45000, Note_on_c, 0, 68, 44
2, 45120, Note_on_c, 0, 68, 0
2, 45120, Note_on_c, 0, 62, 40
2, 45120, Note_on_c, 0, 64, 48
2, 45600, Note_on_c, 0, 64, 0
2, 45600, Note_on_c, 0, 62, 0
2, 45600, Note_on_c, 0, 68, 45
2, 45600, Note_on_c, 0, 62, 38
2, 46080, Note_on_c, 0, 62, 0
2, 46080, Note_on_c, 0, 68, 0
2, 46080, Note_on_c, 0, 60, 39
2, 46080, Note_on_c, 0, 69, 46
2, 46560, Note_on_c, 0, 60, 0
2, 47040, Note_on_c, 0, 69, 0
2, 47040, Note_on_c, 0, 71, 51
2, 47520, Note_on_c, 0, 71, 0
2, 47520, Note_on_c, 0, 72, 52
2, 47760, Note_on_c, 0, 72, 0
2, 47760, Note_on_c, 0, 74, 53
2, 48000, Note_on_c, 0, 74, 0
2, 48000, Note_on_c, 0, 75, 55
2, 48475, Note_on_c, 0, 75, 0
2, 48480, Note_on_c, 0, 75, 60
2, 48840, Note_on_c, 0, 75, 0
2, 48840, Note_on_c, 0, 77, 55
2, 48960, Note_on_c, 0, 77, 0
2, 48960, Note_on_c, 0, 75, 62
2, 49920, Note_on_c, 0, 75, 0
2, 49920, Note_on_c, 0, 74, 54
2, 50400, Note_on_c, 0, 74, 0
2, 50400, Note_on_c, 0, 72, 52
2, 50640, Note_on_c, 0, 72, 0
2, 50640, Note_on_c, 0, 74, 54
2, 50880, Note_on_c, 0, 74, 0
2, 50880, Note_on_c, 0, 75, 57
2, 51356, Note_on_c, 0, 75, 0
2, 51360, Note_on_c, 0, 75, 66
2, 51720, Note_on_c, 0, 75, 0
2, 51720, Note_on_c, 0, 77, 62
2, 51840, Note_on_c, 0, 77, 0
2, 51840, Note_on_c, 0, 75, 76
2, 52800, Note_on_c, 0, 75, 0
2, 52800, Note_on_c, 0, 74, 67
2, 53280, Note_on_c, 0, 74, 0
2, 53280, Note_on_c, 0, 82, 86
2, 54240, Note_on_c, 0, 82, 0
2, 54240, Note_on_c, 0, 73, 66
2, 54720, Note_on_c, 0, 73, 0
2, 54720, Note_on_c, 0, 81, 76
2, 55680, Note_on_c, 0, 81, 0
2, 55680, Note_on_c, 0, 72, 62
2, 56160, Note_on_c, 0, 72, 0
2, 56160, Note_on_c, 0, 80, 76
2, 57120, Note_on_c, 0, 80, 0
2, 57120, Note_on_c, 0, 71, 56
2, 57600, Note_on_c, 0, 71, 0
2, 57600, Note_on_c, 0, 79, 67
2, 58320, Note_on_c, 0, 79, 0
2, 58320, Note_on_c, 0, 70, 54
2, 58560, Note_on_c, 0, 70, 0
2, 58560, Note_on_c, 0, 69, 45
2, 58800, Note_on_c, 0, 69, 0
2, 58800, Note_on_c, 0, 76, 45
2, 59040, Note_on_c, 0, 76, 0
2, 59040, Note_on_c, 0, 77, 46
2, 59280, Note_on_c, 0, 77, 0
2, 59280, Note_on_c, 0, 76, 45
2, 59520, Note_on_c, 0, 76, 0
2, 59520, Note_on_c, 0, 74, 45
2, 60000, Note_on_c, 0, 74, 0
2, 60000, Note_on_c, 0, 77, 48
2, 60480, Note_on_c, 0, 77, 0
2, 60480, Note_on_c, 0, 77, 47
2, 61440, Note_on_c, 0, 77, 0
2, 61440, Note_on_c, 0, 76, 43
2, 61920, Note_on_c, 0, 76, 0
2, 61920, Note_on_c, 0, 74, 42
2, 62000, Note_on_c, 0, 74, 0
2, 62000, Note_on_c, 0, 76, 43
2, 62080, Note_on_c, 0, 76, 0
2, 62080, Note_on_c, 0, 74, 44
2, 62160, Note_on_c, 0, 74, 0
2, 62160, Note_on_c, 0, 73, 45
2, 62400, Note_on_c, 0, 73, 0
2, 62400, Note_on_c, 0, 74, 47
2, 62640, Note_on_c, 0, 74, 0
2, 62640, Note_on_c, 0, 75, 45
2, 62880, Note_on_c, 0, 75, 0
2, 62880, Note_on_c, 0, 76, 49
2, 63120, Note_on_c, 0, 76, 0
2, 63120, Note_on_c, 0, 71, 46
2, 63360, Note_on_c, 0, 71, 0
2, 63360, Note_on_c, 0, 74, 55
2, 64320, Note_on_c, 0, 74, 0
2, 64320, Note_on_c, 0, 72, 45
2, 64800, Note_on_c, 0, 72, 0
2, 64800, Note_on_c, 0, 69, 46
2, 64960, Note_on_c, 0, 69, 0
2, 64960, Note_on_c, 0, 70, 43
2, 65120, Note_on_c, 0, 70, 0
2, 65120, Note_on_c, 0, 69, 43
2, 65280, Note_on_c, 0, 69, 0
2, 65280, Note_on_c, 0, 67, 47
2, 65760, Note_on_c, 0, 67, 0
2, 65760, Note_on_c, 0, 69, 51
2, 66240, Note_on_c, 0, 69, 0
2, 66240, Note_on_c, 0, 70, 53
2, 66720, Note_on_c, 0, 70, 0
2, 66720, Note_on_c, 0, 74, 54
2, 67200, Note_on_c, 0, 74, 0
2, 67680, Note_on_c, 0, 69, 48
2, 68040, Note_on_c, 0, 69, 0
2, 68040, Note_on_c, 0, 68, 44
2, 68160, Note_on_c, 0, 68, 0
2, 68160, Note_on_c, 0, 62, 40
2, 68160, Note_on_c, 0, 64, 48
2, 68640, Note_on_c, 0, 64, 0
2, 68640, Note_on_c, 0, 62, 0
2, 68640, Note_on_c, 0, 68, 45
2, 68640, Note_on_c, 0, 62, 38
2, 69120, Note_on_c, 0, 62, 0
2, 69120, Note_on_c, 0, 68, 0
2, 69120, Note_on_c, 0, 60, 39
2, 69120, Note_on_c, 0, 69, 46
2, 69600, Note_on_c, 0, 60, 0
2, 70080, Note_on_c, 0, 69, 0
2, 70080, Note_on_c, 0, 71, 51
2, 70560, Note_on_c, 0, 71, 0
2, 70560, Note_on_c, 0, 72, 52
2, 70800, Note_on_c, 0, 72, 0
2, 70800, Note_on_c, 0, 74, 53
2, 71040, Note_on_c, 0, 74, 0
2, 71040, Note_on_c, 0, 75, 55
2, 71516, Note_on_c, 0, 75, 0
2, 71520, Note_on_c, 0, 75, 60
2, 71880, Note_on_c, 0, 75, 0
2, 71880, Note_on_c, 0, 77, 55
2, 72000, Note_on_c, 0, 77, 0
2, 72000, Note_on_c, 0, 75, 62
2, 72960, Note_on_c, 0, 75, 0
2, 72960, Note_on_c, 0, 74, 54
2, 73440, Note_on_c, 0, 74, 0
2, 73440, Note_on_c, 0, 72, 52
2, 73680, Note_on_c, 0, 72, 0
2, 73680, Note_on_c, 0, 74, 54
2, 73920, Note_on_c, 0, 74, 0
2, 73920, Note_on_c, 0, 75, 57
2, 74396, Note_on_c, 0, 75, 0
2, 74400, Note_on_c, 0, 75, 66
2, 74760, Note_on_c, 0, 75, 0
2, 74760, Note_on_c, 0, 77, 62
2, 74880, Note_on_c, 0, 77, 0
2, 74880, Note_on_c, 0, 75, 76
2, 75840, Note_on_c, 0, 75, 0
2, 75840, Note_on_c, 0, 74, 62
2, 76320, Note_on_c, 0, 74, 0
2, 76320, Note_on_c, 0, 82, 81
2, 77280, Note_on_c, 0, 82, 0
2, 77280, Note_on_c, 0, 73, 62
2, 77760, Note_on_c, 0, 73, 0
2, 77760, Note_on_c, 0, 81, 76
2, 78720, Note_on_c, 0, 81, 0
2, 78720, Note_on_c, 0, 72, 55
2, 79200, Note_on_c, 0, 72, 0
2, 79200, Note_on_c, 0, 80, 71
2, 80160, Note_on_c, 0, 80, 0
2, 80160, Note_on_c, 0, 71, 42
2, 80640, Note_on_c, 0, 71, 0
2, 80640, Note_on_c, 0, 79, 56
2, 81360, Note_on_c, 0, 79, 0
2, 81360, Note_on_c, 0, 70, 47
2, 81600, Note_on_c, 0, 70, 0
2, 81600, Note_on_c, 0, 69, 45
2, 81840, Note_on_c, 0, 69, 0
2, 81840, Note_on_c, 0, 76, 45
2, 82080, Note_on_c, 0, 76, 0
2, 82080, Note_on_c, 0, 77, 46
2, 82320, Note_on_c, 0, 77, 0
2, 82320, Note_on_c, 0, 76, 45
2, 82560, Note_on_c, 0, 76, 0
2, 82560, Note_on_c, 0, 74, 45
2, 83040, Note_on_c, 0, 74, 0
2, 83040, Note_on_c, 0, 77, 48
2, 83514, Note_on_c, 0, 77, 0
2, 83520, Note_on_c, 0, 77, 47
2, 84480, Note_on_c, 0, 77, 0
2, 84480, Note_on_c, 0, 76, 43
2, 84960, Note_on_c, 0, 76, 0
2, 84960, Note_on_c, 0, 74, 42
2, 85040, Note_on_c, 0, 74, 0
2, 85040, Note_on_c, 0, 76, 43
2, 85120, Note_on_c, 0, 76, 0
2, 85120, Note_on_c, 0, 74, 44
2, 85200, Note_on_c, 0, 74, 0
2, 85200, Note_on_c, 0, 73, 45
2, 85440, Note_on_c, 0, 73, 0
2, 85440, Note_on_c, 0, 74, 47
2, 85680, Note_on_c, 0, 74, 0
2, 85680, Note_on_c, 0, 75, 45
2, 85920, Note_on_c, 0, 75, 0
2, 85920, Note_on_c, 0, 76, 53
2, 86160, Note_on_c, 0, 76, 0
2, 86160, Note_on_c, 0, 71, 46
2, 86400, Note_on_c, 0, 71, 0
2, 86400, Note_on_c, 0, 74, 54
2, 87360, Note_on_c, 0, 74, 0
2, 87360, Note_on_c, 0, 72, 45
2, 87840, Note_on_c, 0, 72, 0
2, 87840, Note_on_c, 0, 69, 46
2, 88000, Note_on_c, 0, 69, 0
2, 88000, Note_on_c, 0, 70, 43
2, 88160, Note_on_c, 0, 70, 0
2, 88160, Note_on_c, 0, 69, 43
2, 88320, Note_on_c, 0, 69, 0
2, 88320, Note_on_c, 0, 67, 47
2, 88800, Note_on_c, 0, 67, 0
2, 88800, Note_on_c, 0, 69, 51
2, 89280, Note_on_c, 0, 69, 0
2, 89280, Note_on_c, 0, 70, 61
2, 89760, Note_on_c, 0, 70, 0
2, 89760, Note_on_c, 0, 74, 61
2, 90240, Note_on_c, 0, 74, 0
2, 90720, Note_on_c, 0, 69, 48
2, 91080, Note_on_c, 0, 69, 0
2, 91080, Note_on_c, 0, 68, 44
2, 91200, Note_on_c, 0, 68, 0
2, 91200, Note_on_c, 0, 62, 40
2, 91200, Note_on_c, 0, 64, 48
2, 91680, Note_on_c, 0, 64, 0
2, 91680, Note_on_c, 0, 62, 0
2, 91680, Note_on_c, 0, 68, 45
2, 91680, Note_on_c, 0, 62, 38
2, 92160, Note_on_c, 0, 62, 0
2, 92160, Note_on_c, 0, 68, 0
2, 92160, Note_on_c, 0, 69, 46
2, 92640, Note_on_c, 0, 61, 25
2, 92640, Note_on_c, 0, 64, 30
2, 93120, Note_on_c, 0, 64, 0
2, 93120, Note_on_c, 0, 61, 0
2, 93120, Note_on_c, 0, 69, 0
2, 93120, Note_on_c, 0, 61, 26
2, 93120, Note_on_c, 0, 64, 31
2, 93600, Note_on_c, 0, 64, 0
2, 93600, Note_on_c, 0, 61, 0
2, 93600, Note_on_c, 0, 67, 45
2, 93600, Note_on_c, 0, 73, 54
2, 93840, Note_on_c, 0, 73, 0
2, 93960, Note_on_c, 0, 73, 49
2, 94080, Note_on_c, 0, 73, 0
2, 94080, Note_on_c, 0, 67, 0
2, 94080, Note_on_c, 0, 66, 45
2, 94080, Note_on_c, 0, 74, 54
2, 94560, Note_on_c, 0, 74, 0
2, 94560, Note_on_c, 0, 66, 0
2, 94560, Note_on_c, 0, 65, 44
2, 94560, Note_on_c, 0, 71, 53
2, 95040, Note_on_c, 0, 71, 0
2, 95040, Note_on_c, 0, 65, 0
2, 95040, Note_on_c, 0, 62, 45
2, 95040, Note_on_c, 0, 68, 54
2, 95400, Note_on_c, 0, 68, 0
2, 95400, Note_on_c, 0, 64, 51
2, 95520, Note_on_c, 0, 64, 0
2, 95520, Note_on_c, 0, 62, 0
2, 95520, Note_on_c, 0, 61, 45
2, 95520, Note_on_c, 0, 69, 54
2, 96240, Note_on_c, 0, 69, 0
2, 96240, Note_on_c, 0, 61, 0
2, 96240, Note_on_c, 0, 68, 45
2, 96240, Note_on_c, 0, 71, 54
2, 96480, Note_on_c, 0, 71, 0
2, 96480, Note_on_c, 0, 68, 0
2, 96480, Note_on_c, 0, 67, 45
2, 96480, Note_on_c, 0, 73, 54
2, 96840, Note_on_c, 0, 73, 0
2, 96840, Note_on_c, 0, 76, 54
2, 96960, Note_on_c, 0, 76, 0
2, 96960, Note_on_c, 0, 67, 0
2, 96960, Note_on_c, 0, 66, 47
2, 96960, Note_on_c, 0, 74, 56
2, 97320, Note_on_c, 0, 74, 0
2, 97320, Note_on_c, 0, 66, 0
2, 97440, Note_on_c, 0, 65, 45
2, 97440, Note_on_c, 0, 71, 54
2, 97920, Note_on_c, 0, 71, 0
2, 97920, Note_on_c, 0, 65, 0
2, 97920, Note_on_c, 0, 62, 45
2, 97920, Note_on_c, 0, 68, 54
2, 98080, Note_on_c, 0, 68, 0
2, 98080, Note_on_c, 0, 66, 56
2, 98240, Note_on_c, 0, 66, 0
2, 98240, Note_on_c, 0, 64, 57
2, 98400, Note_on_c, 0, 64, 0
2, 98400, Note_on_c, 0, 62, 0
2, 98400, Note_on_c, 0, 61, 52
2, 98400, Note_on_c, 0, 69, 62
2, 99120, Note_on_c, 0, 69, 0
2, 99120, Note_on_c, 0, 61, 0
2, 99120, Note_on_c, 0, 68, 45
2, 99120, Note_on_c, 0, 71, 54
2, 99360, Note_on_c, 0, 71, 0
2, 99360, Note_on_c, 0, 68, 0
2, 99360, Note_on_c, 0, 67, 44
2, 99360, Note_on_c, 0, 73, 52
2, 99420, Note_on_c, 0, 73, 0
2, 99420, Note_on_c, 0, 67, 0
2, 99520, Note_on_c, 0, 67, 45
2, 99520, Note_on_c, 0, 73, 54
2, 99580, Note_on_c, 0, 73, 0
2, 99580, Note_on_c, 0, 67, 0
2, 99680, Note_on_c, 0, 67, 46
2, 99680, Note_on_c, 0, 73, 55
2, 99740, Note_on_c, 0, 73, 0
2, 99740, Note_on_c, 0, 67, 0
2, 99840, Note_on_c, 0, 66, 50
2, 99840, Note_on_c, 0, 74, 59
2, 100080, Note_on_c, 0, 74, 0
2, 100080, Note_on_c, 0, 66, 0
2, 100320, Note_on_c, 0, 65, 44
2, 100320, Note_on_c, 0, 71, 53
2, 100800, Note_on_c, 0, 71, 0
2, 100800, Note_on_c, 0, 65, 0
2, 100800, Note_on_c, 0, 62, 45
2, 100800, Note_on_c, 0, 68, 54
2, 100860, Note_on_c, 0, 68, 0
2, 100860, Note_on_c, 0, 62, 0
2, 100960, Note_on_c, 0, 62, 43
2, 100960, Note_on_c, 0, 66, 51
2, 101020, Note_on_c, 0, 66, 0
2, 101020, Note_on_c, 0, 62, 0
2, 101120, Note_on_c, 0, 62, 43
2, 101120, Note_on_c, 0, 64, 51
2, 101180, Note_on_c, 0, 64, 0
2, 101180, Note_on_c, 0, 62, 0
2, 101280, Note_on_c, 0, 61, 45
2, 101280, Note_on_c, 0, 69, 54
2, 102000, Note_on_c, 0, 69, 0
2, 102000, Note_on_c, 0, 61, 0
2, 102000, Note_on_c, 0, 68, 45
2, 102000, Note_on_c, 0, 71, 54
2, 102240, Note_on_c, 0, 71, 0
2, 102240, Note_on_c, 0, 68, 0
2, 102240, Note_on_c, 0, 67, 43
2, 102240, Note_on_c, 0, 73, 51
2, 102300, Note_on_c, 0, 73, 0
2, 102300, Note_on_c, 0, 67, 0
2, 102400, Note_on_c, 0, 67, 45
2, 102400, Note_on_c, 0, 74, 54
2, 102460, Note_on_c, 0, 74, 0
2, 102460, Note_on_c, 0, 67, 0
2, 102560, Note_on_c, 0, 67, 47
2, 102560, Note_on_c, 0, 76, 56
2, 102620, Note_on_c, 0, 76, 0
2, 102620, Note_on_c, 0, 67, 0
2, 102720, Note_on_c, 0, 66, 51
2, 102720, Note_on_c, 0, 74, 61
2, 102960, Note_on_c, 0, 74, 0
2, 102960, Note_on_c, 0, 66, 0
2, 103200, Note_on_c, 0, 65, 45
2, 103200, Note_on_c, 0, 71, 54
2, 103680, Note_on_c, 0, 71, 0
2, 103680, Note_on_c, 0, 65, 0
2, 103680, Note_on_c, 0, 62, 45
2, 103680, Note_on_c, 0, 68, 54
2, 103740, Note_on_c, 0, 68, 0
2, 103740, Note_on_c, 0, 62, 0
2, 103840, Note_on_c, 0, 62, 45
2, 103840, Note_on_c, 0, 66, 56
2, 103900, Note_on_c, 0, 66, 0
2, 103900, Note_on_c, 0, 62, 0
2, 104000, Note_on_c, 0, 62, 45
2, 104000, Note_on_c, 0, 64, 57
2, 104060, Note_on_c, 0, 64, 0
2, 104060, Note_on_c, 0, 62, 0
2, 104160, Note_on_c, 0, 61, 51
2, 104160, Note_on_c, 0, 69, 61
2, 105120, Note_on_c, 0, 69, 0
2, 105120, Note_on_c, 0, 61, 0
2, 105120, Note_on_c, 0, 73, 80
2, 105120, Note_on_c, 0, 69, 68
2, 105360, Note_on_c, 0, 69, 0
2, 105360, Note_on_c, 0, 73, 0
2, 105480, Note_on_c, 0, 73, 75
2, 105480, Note_on_c, 0, 69, 64
2, 105600, Note_on_c, 0, 69, 0
2, 105600, Note_on_c, 0, 73, 0
2, 105600, Note_on_c, 0, 74, 79
2, 105600, Note_on_c, 0, 71, 67
2, 105960, Note_on_c, 0, 71, 0
2, 105960, Note_on_c, 0, 74, 0
2, 106080, Note_on_c, 0, 71, 72
2, 106080, Note_on_c, 0, 68, 60
2, 106440, Note_on_c, 0, 68, 0
2, 106440, Note_on_c, 0, 71, 0
2, 106560, Note_on_c, 0, 69, 65
2, 106560, Note_on_c, 0, 73, 77
2, 106720, Note_on_c, 0, 73, 0
2, 106720, Note_on_c, 0, 69, 0
2, 106720, Note_on_c, 0, 68, 60
2, 106720, Note_on_c, 0, 71, 72
2, 106880, Note_on_c, 0, 71, 0
2, 106880, Note_on_c, 0, 68, 0
2, 106880, Note_on_c, 0, 69, 72
2, 106880, Note_on_c, 0, 66, 60
2, 107040, Note_on_c, 0, 66, 0
2, 107040, Note_on_c, 0, 69, 0
2, 107040, Note_on_c, 0, 71, 66
2, 107040, Note_on_c, 0, 74, 78
2, 107400, Note_on_c, 0, 74, 0
2, 107400, Note_on_c, 0, 71, 0
2, 107520, Note_on_c, 0, 68, 61
2, 107520, Note_on_c, 0, 71, 73
2, 107880, Note_on_c, 0, 71, 0
2, 107880, Note_on_c, 0, 68, 0
2, 108000, Note_on_c, 0, 73, 80
2, 108000, Note_on_c, 0, 69, 68
2, 108240, Note_on_c, 0, 69, 0
2, 108240, Note_on_c, 0, 73, 0
2, 108360, Note_on_c, 0, 73, 75
2, 108360, Note_on_c, 0, 69, 64
2, 108480, Note_on_c, 0, 69, 0
2, 108480, Note_on_c, 0, 73, 0
2, 108480, Note_on_c, 0, 74, 79
2, 108480, Note_on_c, 0, 71, 67
2, 108840, Note_on_c, 0, 71, 0
2, 108840, Note_on_c, 0, 74, 0
2, 108960, Note_on_c, 0, 71, 72
2, 108960, Note_on_c, 0, 68, 60
2, 109320, Note_on_c, 0, 68, 0
2, 109320, Note_on_c, 0, 71, 0
2, 109440, Note_on_c, 0, 69, 65
2, 109440, Note_on_c, 0, 73, 77
2, 109600, Note_on_c, 0, 73, 0
2, 109600, Note_on_c, 0, 69, 0
2, 109600, Note_on_c, 0, 68, 60
2, 109600, Note_on_c, 0, 71, 72
2, 109760, Note_on_c, 0, 71, 0
2, 109760, Note_on_c, 0, 68, 0
2, 109760, Note_on_c, 0, 69, 72
2, 109760, Note_on_c, 0, 66, 60
2, 109920, Note_on_c, 0, 66, 0
2, 109920, Note_on_c, 0, 69, 0
2, 109920, Note_on_c, 0, 78, 75
2, 109920, Note_on_c, 0, 90, 89
2, 110400, Note_on_c, 0, 90, 0
2, 110400, Note_on_c, 0, 78, 0
2, 110400, Note_on_c, 0, 78, 70
2, 110400, Note_on_c, 0, 90, 83
2, 110880, Note_on_c, 0, 90, 0
2, 110880, Note_on_c, 0, 78, 0
2, 110880, Note_on_c, 0, 73, 80
2, 110880, Note_on_c, 0, 69, 68
2, 111120, Note_on_c, 0, 69, 0
2, 111120, Note_on_c, 0, 73, 0
2, 111240, Note_on_c, 0, 73, 75
2, 111240, Note_on_c, 0, 69, 64
2, 111360, Note_on_c, 0, 69, 0
2, 111360, Note_on_c, 0, 73, 0
2, 111360, Note_on_c, 0, 74, 79
2, 111360, Note_on_c, 0, 71, 67
2, 111720, Note_on_c, 0, 71, 0
2, 111720, Note_on_c, 0, 74, 0
2, 111840, Note_on_c, 0, 71, 72
2, 111840, Note_on_c, 0, 68, 60
2, 112200, Note_on_c, 0, 68, 0
2, 112200, Note_on_c, 0, 71, 0
2, 112320, Note_on_c, 0, 69, 65
2, 112320, Note_on_c, 0, 73, 77
2, 112480, Note_on_c, 0, 73, 0
2, 112480, Note_on_c, 0, 69, 0
2, 112480, Note_on_c, 0, 68, 60
2, 112480, Note_on_c, 0, 71, 72
2, 112640, Note_on_c, 0, 71, 0
2, 112640, Note_on_c, 0, 68, 0
2, 112640, Note_on_c, 0, 69, 72
2, 112640, Note_on_c, 0, 66, 60
2, 112800, Note_on_c, 0, 66, 0
2, 112800, Note_on_c, 0, 69, 0
2, 112800, Note_on_c, 0, 71, 66
2, 112800, Note_on_c, 0, 74, 78
2, 113160, Note_on_c, 0, 74, 0
2, 113160, Note_on_c, 0, 71, 0
2, 113280, Note_on_c, 0, 68, 61
2, 113280, Note_on_c, 0, 71, 73
2, 113640, Note_on_c, 0, 71, 0
2, 113640, Note_on_c, 0, 68, 0
2, 113760, Note_on_c, 0, 69, 57
2, 113760, Note_on_c, 0, 73, 68
2, 114000, Note_on_c, 0, 73, 0
2, 114000, Note_on_c, 0, 75, 71
2, 114240, Note_on_c, 0, 75, 0
2, 114240, Note_on_c, 0, 69, 0
2, 114240, Note_on_c, 0, 68, 62
2, 114240, Note_on_c, 0, 76, 74
2, 115200, Note_on_c, 0, 76, 0
2, 115200, Note_on_c, 0, 68, 0
2, 115200, Note_on_c, 0, 69, 57
2, 115200, Note_on_c, 0, 73, 68
2, 115440, Note_on_c, 0, 73, 0
2, 115440, Note_on_c, 0, 75, 71
2, 115560, Note_on_c, 0, 75, 0
2, 115560, Note_on_c, 0, 78, 69
2, 115680, Note_on_c, 0, 78, 0
2, 115680, Note_on_c, 0, 69, 0
2, 115680, Note_on_c, 0, 68, 62
2, 115680, Note_on_c, 0, 76, 74
2, 116400, Note_on_c, 0, 76, 0
2, 116400, Note_on_c, 0, 74, 70
2, 116640, Note_on_c, 0, 74, 0
2, 116640, Note_on_c, 0, 68, 0
2, 116640, Note_on_c, 0, 67, 50
2, 116640, Note_on_c, 0, 73, 60
2, 116880, Note_on_c, 0, 73, 0
2, 117000, Note_on_c, 0, 73, 55
2, 117120, Note_on_c, 0, 73, 0
2, 117120, Note_on_c, 0, 67, 0
2, 117120, Note_on_c, 0, 66, 51
2, 117120, Note_on_c, 0, 74, 61
2, 117600, Note_on_c, 0, 74, 0
2, 117600, Note_on_c, 0, 66, 0
2, 117600, Note_on_c, 0, 65, 49
2, 117600, Note_on_c, 0, 71, 59
2, 118080, Note_on_c, 0, 71, 0
2, 118080, Note_on_c, 0, 65, 0
2, 118080, Note_on_c, 0, 62, 50
2, 118080, Note_on_c, 0, 68, 60
2, 118440, Note_on_c, 0, 68, 0
2, 118440, Note_on_c, 0, 64, 57
2, 118560, Note_on_c, 0, 64, 0
2, 118560, Note_on_c, 0, 62, 0
2, 118560, Note_on_c, 0, 61, 50
2, 118560, Note_on_c, 0, 69, 60
2, 119280, Note_on_c, 0, 69, 0
2, 119280, Note_on_c, 0, 61, 0
2, 119280, Note_on_c, 0, 68, 50
2, 119280, Note_on_c, 0, 71, 60
2, 119520, Note_on_c, 0, 71, 0
2, 119520, Note_on_c, 0, 68, 0
2, 119520, Note_on_c, 0, 67, 51
2, 119520, Note_on_c, 0, 73, 61
2, 119880, Note_on_c, 0, 73, 0
2, 119880, Note_on_c, 0, 76, 60
2, 120000, Note_on_c, 0, 76, 0
2, 120000, Note_on_c, 0, 67, 0
2, 120000, Note_on_c, 0, 66, 53
2, 120000, Note_on_c, 0, 74, 63
2, 120480, Note_on_c, 0, 74, 0
2, 120480, Note_on_c, 0, 66, 0
2, 120480, Note_on_c, 0, 65, 50
2, 120480, Note_on_c, 0, 71, 60
2, 120960, Note_on_c, 0, 71, 0
2, 120960, Note_on_c, 0, 65, 0
2, 120960, Note_on_c, 0, 62, 51
2, 120960, Note_on_c, 0, 68, 61
2, 121120, Note_on_c, 0, 68, 0
2, 121120, Note_on_c, 0, 66, 63
2, 121280, Note_on_c, 0, 66, 0
2, 121280, Note_on_c, 0, 64, 64
2, 121440, Note_on_c, 0, 64, 0
2, 121440, Note_on_c, 0, 62, 0
2, 121440, Note_on_c, 0, 61, 58
2, 121440, Note_on_c, 0, 69, 69
2, 122160, Note_on_c, 0, 69, 0
2, 122160, Note_on_c, 0, 61, 0
2, 122160, Note_on_c, 0, 68, 50
2, 122160, Note_on_c, 0, 71, 60
2, 122400, Note_on_c, 0, 71, 0
2, 122400, Note_on_c, 0, 68, 0
2, 122400, Note_on_c, 0, 67, 49
2, 122400, Note_on_c, 0, 73, 58
2, 122460, Note_on_c, 0, 73, 0
2, 122460, Note_on_c, 0, 67, 0
2, 122560, Note_on_c, 0, 67, 50
2, 122560, Note_on_c, 0, 73, 60
2, 122620, Note_on_c, 0, 73, 0
2, 122620, Note_on_c, 0, 67, 0
2, 122720, Note_on_c, 0, 67, 52
2, 122720, Note_on_c, 0, 73, 62
2, 122780, Note_on_c, 0, 73, 0
2, 122780, Note_on_c, 0, 67, 0
2, 122880, Note_on_c, 0, 66, 56
2, 122880, Note_on_c, 0, 74, 66
2, 123120, Note_on_c, 0, 74, 0
2, 123120, Note_on_c, 0, 66, 0
2, 123360, Note_on_c, 0, 65, 49
2, 123360, Note_on_c, 0, 71, 59
2, 123840, Note_on_c, 0, 71, 0
2, 123840, Note_on_c, 0, 65, 0
2, 123840, Note_on_c, 0, 62, 51
2, 123840, Note_on_c, 0, 68, 61
2, 123900, Note_on_c, 0, 68, 0
2, 123900, Note_on_c, 0, 62, 0
2, 124000, Note_on_c, 0, 62, 48
2, 124000, Note_on_c, 0, 66, 57
2, 124060, Note_on_c, 0, 66, 0
2, 124060, Note_on_c, 0, 62, 0
2, 124160, Note_on_c, 0, 62, 48
2, 124160, Note_on_c, 0, 64, 57
2, 124220, Note_on_c, 0, 64, 0
2, 124220, Note_on_c, 0, 62, 0
2, 124320, Note_on_c, 0, 61, 50
2, 124320, Note_on_c, 0, 69, 60
2, 125040, Note_on_c, 0, 69, 0
2, 125040, Note_on_c, 0, 61, 0
2, 125040, Note_on_c, 0, 68, 50
2, 125040, Note_on_c, 0, 71, 60
2, 125280, Note_on_c, 0, 71, 0
2, 125280, Note_on_c, 0, 68, 0
2, 125280, Note_on_c, 0, 67, 48
2, 125280, Note_on_c, 0, 73, 57
2, 125340, Note_on_c, 0, 73, 0
2, 125340, Note_on_c, 0, 67, 0
2, 125440, Note_on_c, 0, 67, 50
2, 125440, Note_on_c, 0, 74, 60
2, 125500, Note_on_c, 0, 74, 0
2, 125500, Note_on_c, 0, 67, 0
2, 125600, Note_on_c, 0, 67, 53
2, 125600, Note_on_c, 0, 76, 63
2, 125660, Note_on_c, 0, 76, 0
2, 125660, Note_on_c, 0, 67, 0
2, 125760, Note_on_c, 0, 66, 57
2, 125760, Note_on_c, 0, 74, 68
2, 126000, Note_on_c, 0, 74, 0
2, 126000, Note_on_c, 0, 66, 0
2, 126240, Note_on_c, 0, 65, 50
2, 126240, Note_on_c, 0, 71, 60
2, 126720, Note_on_c, 0, 71, 0
2, 126720, Note_on_c, 0, 65, 0
2, 126720, Note_on_c, 0, 62, 51
2, 126720, Note_on_c, 0, 68, 61
2, 126780, Note_on_c, 0, 68, 0
2, 126780, Note_on_c, 0, 62, 0
2, 126880, Note_on_c, 0, 62, 51
2, 126880, Note_on_c, 0, 66, 63
2, 126940, Note_on_c, 0, 66, 0
2, 126940, Note_on_c, 0, 62, 0
2, 127040, Note_on_c, 0, 62, 51
2, 127040, Note_on_c, 0, 64, 64
2, 127100, Note_on_c, 0, 64, 0
2, 127100, Note_on_c, 0, 62, 0
2, 127200, Note_on_c, 0, 61, 57
2, 127200, Note_on_c, 0, 69, 68
2, 128160, Note_on_c, 0, 69, 0
2, 128160, Note_on_c, 0, 61, 0
2, 128160, Note_on_c, 0, 73, 80
2, 128160, Note_on_c, 0, 69, 68
2, 128400, Note_on_c, 0, 69, 0
2, 128400, Note_on_c, 0, 73, 0
2, 128520, Note_on_c, 0, 73, 75
2, 128520, Note_on_c, 0, 69, 64
2, 128640, Note_on_c, 0, 69, 0
2, 128640, Note_on_c, 0, 73, 0
2, 128640, Note_on_c, 0, 74, 79
2, 128640, Note_on_c, 0, 71, 67
2, 129000, Note_on_c, 0, 71, 0
2, 129000, Note_on_c, 0, 74, 0
2, 129120, Note_on_c, 0, 71, 72
2, 129120, Note_on_c, 0, 68, 60
2, 129480, Note_on_c, 0, 68, 0
2, 129480, Note_on_c, 0, 71, 0
2, 129600, Note_on_c, 0, 69, 65
2, 129600, Note_on_c, 0, 73, 77
2, 129760, Note_on_c, 0, 73, 0
2, 129760, Note_on_c, 0, 69, 0
2, 129760, Note_on_c, 0, 68, 60
2, 129760, Note_on_c, 0, 71, 72
2, 129920, Note_on_c, 0, 71, 0
2, 129920, Note_on_c, 0, 68, 0
2, 129920, Note_on_c, 0, 69, 72
2, 129920, Note_on_c, 0, 66, 60
2, 130080, Note_on_c, 0, 66, 0
2, 130080, Note_on_c, 0, 69, 0
2, 130080, Note_on_c, 0, 71, 66
2, 130080, Note_on_c, 0, 74, 78
2, 130440, Note_on_c, 0, 74, 0
2, 130440, Note_on_c, 0, 71, 0
2, 130560, Note_on_c, 0, 68, 61
2, 130560, Note_on_c, 0, 71, 73
2, 130920, Note_on_c, 0, 71, 0
2, 130920, Note_on_c, 0, 68, 0
2, 131040, Note_on_c, 0, 73, 80
2, 131040, Note_on_c, 0, 69, 68
2, 131280, Note_on_c, 0, 69, 0
2, 131280, Note_on_c, 0, 73, 0
2, 131400, Note_on_c, 0, 73, 75
2, 131400, Note_on_c, 0, 69, 64
2, 131520, Note_on_c, 0, 69, 0
2, 131520, Note_on_c, 0, 73, 0
2, 131520, Note_on_c, 0, 74, 79
2, 131520, Note_on_c, 0, 71, 67
2, 131880, Note_on_c, 0, 71, 0
2, 131880, Note_on_c, 0, 74, 0
2, 132000, Note_on_c, 0, 71, 72
2, 132000, Note_on_c, 0, 68, 60
2, 132360, Note_on_c, 0, 68, 0
2, 132360, Note_on_c, 0, 71, 0
2, 132480, Note_on_c, 0, 69, 65
2, 132480, Note_on_c, 0, 73, 77
2, 132640, Note_on_c, 0, 73, 0
2, 132640, Note_on_c, 0, 69, 0
2, 132640, Note_on_c, 0, 68, 60
2, 132640, Note_on_c, 0, 71, 72
2, 132800, Note_on_c, 0, 71, 0
2, 132800, Note_on_c, 0, 68, 0
2, 132800, Note_on_c, 0, 69, 72
2, 132800, Note_on_c, 0, 66, 60
2, 132960, Note_on_c, 0, 66, 0
2, 132960, Note_on_c, 0, 69, 0
2, 132960, Note_on_c, 0, 78, 75
2, 132960, Note_on_c, 0, 90, 89
2, 133440, Note_on_c, 0, 90, 0
2, 133440, Note_on_c, 0, 78, 0
2, 133440, Note_on_c, 0, 78, 70
2, 133440, Note_on_c, 0, 90, 83
2, 133920, Note_on_c, 0, 90, 0
2, 133920, Note_on_c, 0, 78, 0
2, 133920, Note_on_c, 0, 73, 80
2, 133920, Note_on_c, 0, 69, 68
2, 134160, Note_on_c, 0, 69, 0
2, 134160, Note_on_c, 0, 73, 0
2, 134280, Note_on_c, 0, 73, 75
2, 134280, Note_on_c, 0, 69, 64
2, 134400, Note_on_c, 0, 69, 0
2, 134400, Note_on_c, 0, 73, 0
2, 134400, Note_on_c, 0, 74, 79
2, 134400, Note_on_c, 0, 71, 67
2, 134760, Note_on_c, 0, 71, 0
2, 134760, Note_on_c, 0, 74, 0
2, 134880, Note_on_c, 0, 71, 72
2, 134880, Note_on_c, 0, 68, 60
2, 135240, Note_on_c, 0, 68, 0
2, 135240, Note_on_c, 0, 71, 0
2, 135360, Note_on_c, 0, 69, 65
2, 135360, Note_on_c, 0, 73, 77
2, 135520, Note_on_c, 0, 73, 0
2, 135520, Note_on_c, 0, 69, 0
2, 135520, Note_on_c, 0, 68, 60
2, 135520, Note_on_c, 0, 71, 72
2, 135680, Note_on_c, 0, 71, 0
2, 135680, Note_on_c, 0, 68, 0
2, 135680, Note_on_c, 0, 69, 72
2, 135680, Note_on_c, 0, 66, 60
2, 135840, Note_on_c, 0, 66, 0
2, 135840, Note_on_c, 0, 69, 0
2, 135840, Note_on_c, 0, 71, 66
2, 135840, Note_on_c, 0, 74, 78
2, 136200, Note_on_c, 0, 74, 0
2, 136200, Note_on_c, 0, 71, 0
2, 136320, Note_on_c, 0, 68, 61
2, 136320, Note_on_c, 0, 71, 73
2, 136680, Note_on_c, 0, 71, 0
2, 136680, Note_on_c, 0, 68, 0
2, 136800, Note_on_c, 0, 69, 57
2, 136800, Note_on_c, 0, 73, 68
2, 137040, Note_on_c, 0, 73, 0
2, 137040, Note_on_c, 0, 75, 71
2, 137280, Note_on_c, 0, 75, 0
2, 137280, Note_on_c, 0, 69, 0
2, 137280, Note_on_c, 0, 68, 62
2, 137280, Note_on_c, 0, 76, 74
2, 138240, Note_on_c, 0, 76, 0
2, 138240, Note_on_c, 0, 68, 0
2, 138240, Note_on_c, 0, 69, 57
2, 138240, Note_on_c, 0, 73, 68
2, 138480, Note_on_c, 0, 73, 0
2, 138480, Note_on_c, 0, 75, 71
2, 138600, Note_on_c, 0, 75, 0
2, 138600, Note_on_c, 0, 78, 69
2, 138720, Note_on_c, 0, 78, 0
2, 138720, Note_on_c, 0, 69, 0
2, 138720, Note_on_c, 0, 68, 62
2, 138720, Note_on_c, 0, 76, 74
2, 139440, Note_on_c, 0, 76, 0
2, 139440, Note_on_c, 0, 74, 70
2, 139680, Note_on_c, 0, 74, 0
2, 139680, Note_on_c, 0, 68, 0
2, 139680, Note_on_c, 0, 67, 50
2, 139680, Note_on_c, 0, 73, 60
2, 139920, Note_on_c, 0, 73, 0
2, 140040, Note_on_c, 0, 73, 55
2, 140160, Note_on_c, 0, 73, 0
2, 140160, Note_on_c, 0, 67, 0
2, 140160, Note_on_c, 0, 66, 51
2, 140160, Note_on_c, 0, 74, 61
2, 140640, Note_on_c, 0, 74, 0
2, 140640, Note_on_c, 0, 66, 0
2, 140640, Note_on_c, 0, 65, 49
2, 140640, Note_on_c, 0, 71, 59
2, 141120, Note_on_c, 0, 71, 0
2, 141120, Note_on_c, 0, 65, 0
2, 141120, Note_on_c, 0, 62, 50
2, 141120, Note_on_c, 0, 68, 60
2, 141480, Note_on_c, 0, 68, 0
2, 141480, Note_on_c, 0, 64, 57
2, 141600, Note_on_c, 0, 64, 0
2, 141600, Note_on_c, 0, 62, 0
2, 141600, Note_on_c, 0, 61, 50
2, 141600, Note_on_c, 0, 69, 60
2, 142320, Note_on_c, 0, 69, 0
2, 142320, Note_on_c, 0, 61, 0
2, 142320, Note_on_c, 0, 68, 50
2, 142320, Note_on_c, 0, 71, 60
2, 142560, Note_on_c, 0, 71, 0
2, 142560, Note_on_c, 0, 68, 0
2, 142560, Note_on_c, 0, 67, 51
2, 142560, Note_on_c, 0, 73, 61
2, 142920, Note_on_c, 0, 73, 0
2, 142920, Note_on_c, 0, 76, 60
2, 143040, Note_on_c, 0, 76, 0
2, 143040, Note_on_c, 0, 67, 0
2, 143040, Note_on_c, 0, 66, 53
2, 143040, Note_on_c, 0, 74, 63
2, 143520, Note_on_c, 0, 74, 0
2, 143520, Note_on_c, 0, 66, 0
2, 143520, Note_on_c, 0, 65, 50
2, 143520, Note_on_c, 0, 71, 60
2, 144000, Note_on_c, 0, 71, 0
2, 144000, Note_on_c, 0, 65, 0
2, 144000, Note_on_c, 0, 62, 51
2, 144000, Note_on_c, 0, 68, 61
2, 144160, Note_on_c, 0, 68, 0
2, 144160, Note_on_c, 0, 66, 63
2, 144320, Note_on_c, 0, 66, 0
2, 144320, Note_on_c, 0, 64, 64
2, 144480, Note_on_c, 0, 64, 0
2, 144480, Note_on_c, 0, 62, 0
2, 144480, Note_on_c, 0, 61, 58
2, 144480, Note_on_c, 0, 69, 69
2, 145200, Note_on_c, 0, 69, 0
2, 145200, Note_on_c, 0, 61, 0
2, 145200, Note_on_c, 0, 68, 50
2, 145200, Note_on_c, 0, 71, 60
2, 145440, Note_on_c, 0, 71, 0
2, 145440, Note_on_c, 0, 68, 0
2, 145440, Note_on_c, 0, 67, 49
2, 145440, Note_on_c, 0, 73, 58
2, 145500, Note_on_c, 0, 73, 0
2, 145500, Note_on_c, 0, 67, 0
2, 145600, Note_on_c, 0, 67, 50
2, 145600, Note_on_c, 0, 73, 60
2, 145660, Note_on_c, 0, 73, 0
2, 145660, Note_on_c, 0, 67, 0
2, 145760, Note_on_c, 0, 67, 52
2, 145760, Note_on_c, 0, 73, 62
2, 145820, Note_on_c, 0, 73, 0
2, 145820, Note_on_c, 0, 67, 0
2, 145920, Note_on_c, 0, 66, 56
2, 145920, Note_on_c, 0, 74, 66
2, 146160, Note_on_c, 0, 74, 0
2, 146160, Note_on_c, 0, 66, 0
2, 146400, Note_on_c, 0, 65, 49
2, 146400, Note_on_c, 0, 71, 59
2, 146880, Note_on_c, 0, 71, 0
2, 146880, Note_on_c, 0, 65, 0
2, 146880, Note_on_c, 0, 62, 51
2, 146880, Note_on_c, 0, 68, 61
2, 146940, Note_on_c, 0, 68, 0
2, 146940, Note_on_c, 0, 62, 0
2, 147040, Note_on_c, 0, 62, 48
2, 147040, Note_on_c, 0, 66, 57
2, 147100, Note_on_c, 0, 66, 0
2, 147100, Note_on_c, 0, 62, 0
2, 147200, Note_on_c, 0, 62, 48
2, 147200, Note_on_c, 0, 64, 57
2, 147260, Note_on_c, 0, 64, 0
2, 147260, Note_on_c, 0, 62, 0
2, 147360, Note_on_c, 0, 61, 50
2, 147360, Note_on_c, 0, 69, 60
2, 148080, Note_on_c, 0, 69, 0
2, 148080, Note_on_c, 0, 61, 0
2, 148080, Note_on_c, 0, 68, 50
2, 148080, Note_on_c, 0, 71, 60
2, 148320, Note_on_c, 0, 71, 0
2, 148320, Note_on_c, 0, 68, 0
2, 148320, Note_on_c, 0, 67, 48
2, 148320, Note_on_c, 0, 73, 57
2, 148380, Note_on_c, 0, 73, 0
2, 148380, Note_on_c, 0, 67, 0
2, 148480, Note_on_c, 0, 67, 50
2, 148480, Note_on_c, 0, 74, 60
2, 148540, Note_on_c, 0, 74, 0
2, 148540, Note_on_c, 0, 67, 0
2, 148640, Note_on_c, 0, 67, 53
2, 148640, Note_on_c, 0, 76, 63
2, 148700, Note_on_c, 0, 76, 0
2, 148700, Note_on_c, 0, 67, 0
2, 148800, Note_on_c, 0, 66, 57
2, 148800, Note_on_c, 0, 74, 68
2, 149040, Note_on_c, 0, 74, 0
2, 149040, Note_on_c, 0, 66, 0
2, 149280, Note_on_c, 0, 65, 50
2, 149280, Note_on_c, 0, 71, 60
2, 149760, Note_on_c, 0, 71, 0
2, 149760, Note_on_c, 0, 65, 0
2, 149760, Note_on_c, 0, 62, 51
2, 149760, Note_on_c, 0, 68, 61
2, 149820, Note_on_c, 0, 68, 0
2, 149820, Note_on_c, 0, 62, 0
2, 149920, Note_on_c, 0, 62, 51
2, 149920, Note_on_c, 0, 66, 63
2, 149980, Note_on_c, 0, 66, 0
2, 149980, Note_on_c, 0, 62, 0
2, 150080, Note_on_c, 0, 62, 51
2, 150080, Note_on_c, 0, 64, 64
2, 150140, Note_on_c, 0, 64, 0
2, 150140, Note_on_c, 0, 62, 0
2, 150240, Note_on_c, 0, 61, 57
2, 150240, Note_on_c, 0, 69, 68
2, 150720, Note_on_c, 0, 69, 0
2, 150720, Note_on_c, 0, 61, 0
2, 150720, Note_on_c, 0, 76, 45
2, 151200, Note_on_c, 0, 76, 0
2, 151200, Note_on_c, 0, 77, 46
2, 151560, Note_on_c, 0, 77, 0
2, 151560, Note_on_c, 0, 76, 45
2, 151680, Note_on_c, 0, 76, 0
2, 151680, Note_on_c, 0, 74, 45
2, 152160, Note_on_c, 0, 74, 0
2, 152160, Note_on_c, 0, 77, 48
2, 152635, Note_on_c, 0, 77, 0
2, 152640, Note_on_c, 0, 77, 47
2, 153600, Note_on_c, 0, 77, 0
2, 153600, Note_on_c, 0, 76, 43
2, 154080, Note_on_c, 0, 76, 0
2, 154080, Note_on_c, 0, 74, 42
2, 154160, Note_on_c, 0, 74, 0
2, 154160, Note_on_c, 0, 76, 43
2, 154240, Note_on_c, 0, 76, 0
2, 154240, Note_on_c, 0, 74, 44
2, 154320, Note_on_c, 0, 74, 0
2, 154320, Note_on_c, 0, 73, 45
2, 154560, Note_on_c, 0, 73, 0
2, 154560, Note_on_c, 0, 74, 47
2, 154800, Note_on_c, 0, 74, 0
2, 154800, Note_on_c, 0, 75, 45
2, 155040, Note_on_c, 0, 75, 0
2, 155040, Note_on_c, 0, 76, 51
2, 155280, Note_on_c, 0, 76, 0
2, 155280, Note_on_c, 0, 71, 46
2, 155520, Note_on_c, 0, 71, 0
2, 155520, Note_on_c, 0, 74, 54
2, 156480, Note_on_c, 0, 74, 0
2, 156480, Note_on_c, 0, 72, 45
2, 156960, Note_on_c, 0, 72, 0
2, 156960, Note_on_c, 0, 69, 62
2, 157120, Note_on_c, 0, 69, 0
2, 157120, Note_on_c, 0, 71, 57
2, 157280, Note_on_c, 0, 71, 0
2, 157280, Note_on_c, 0, 69, 57
2, 157440, Note_on_c, 0, 69, 0
2, 157440, Note_on_c, 0, 68, 63
2, 157680, Note_on_c, 0, 68, 0
2, 157920, Note_on_c, 0, 69, 67
2, 158160, Note_on_c, 0, 69, 0
2, 158400, Note_on_c, 0, 71, 70
2, 158640, Note_on_c, 0, 71, 0
2, 158880, Note_on_c, 0, 76, 72
2, 159840, Note_on_c, 0, 76, 0
2, 159840, Note_on_c, 0, 71, 76
2, 160080, Note_on_c, 0, 71, 0
2, 160080, Note_on_c, 0, 67, 73
2, 160320, Note_on_c, 0, 67, 0
2, 160320, Note_on_c, 0, 64, 76
2, 160560, Note_on_c, 0, 64, 0
2, 160560, Note_on_c, 0, 71, 71
2, 160800, Note_on_c, 0, 71, 0
2, 160800, Note_on_c, 0, 63, 73
2, 161280, Note_on_c, 0, 63, 0
2, 161280, Note_on_c, 0, 64, 76
2, 162240, Note_on_c, 0, 64, 0
2, 162240, Note_on_c, 0, 76, 45
2, 162720, Note_on_c, 0, 76, 0
2, 162720, Note_on_c, 0, 77, 46
2, 163080, Note_on_c, 0, 77, 0
2, 163080, Note_on_c, 0, 76, 45
2, 163200, Note_on_c, 0, 76, 0
2, 163200, Note_on_c, 0, 74, 45
2, 163680, Note_on_c, 0, 74, 0
2, 163680, Note_on_c, 0, 77, 48
2, 164156, Note_on_c, 0, 77, 0
2, 164160, Note_on_c, 0, 77, 47
2, 165120, Note_on_c, 0, 77, 0
2, 165120, Note_on_c, 0, 76, 43
2, 165600, Note_on_c, 0, 76, 0
2, 165600, Note_on_c, 0, 74, 42
2, 165680, Note_on_c, 0, 74, 0
2, 165680, Note_on_c, 0, 76, 43
2, 165760, Note_on_c, 0, 76, 0
2, 165760, Note_on_c, 0, 74, 44
2, 165840, Note_on_c, 0, 74, 0
2, 165840, Note_on_c, 0, 73, 45
2, 166080, Note_on_c, 0, 73, 0
2, 166080, Note_on_c, 0, 74, 47
2, 166320, Note_on_c, 0, 74, 0
2, 166320, Note_on_c, 0, 75, 45
2, 166560, Note_on_c, 0, 75, 0
2, 166560, Note_on_c, 0, 76, 47
2, 166800, Note_on_c, 0, 76, 0
2, 166800, Note_on_c, 0, 71, 42
2, 166915, Note_on_c, 0, 71, 0
2, 166920, Note_on_c, 0, 71, 42
2, 167040, Note_on_c, 0, 71, 0
2, 167040, Note_on_c, 0, 74, 53
2, 168000, Note_on_c, 0, 74, 0
2, 168000, Note_on_c, 0, 72, 45
2, 168480, Note_on_c, 0, 72, 0
2, 168480, Note_on_c, 0, 69, 41
2, 168640, Note_on_c, 0, 69, 0
2, 168640, Note_on_c, 0, 70, 38
2, 168800, Note_on_c, 0, 70, 0
2, 168800, Note_on_c, 0, 69, 38
2, 168960, Note_on_c, 0, 69, 0
2, 168960, Note_on_c, 0, 67, 42
2, 169440, Note_on_c, 0, 67, 0
2, 169440, Note_on_c, 0, 69, 45
2, 169920, Note_on_c, 0, 69, 0
2, 169920, Note_on_c, 0, 70, 47
2, 170400, Note_on_c, 0, 70, 0
2, 170400, Note_on_c, 0, 74, 48
2, 170880, Note_on_c, 0, 74, 0
2, 171360, Note_on_c, 0, 69, 40
2, 171720, Note_on_c, 0, 69, 0
2, 171720, Note_on_c, 0, 68, 37
2, 171840, Note_on_c, 0, 68, 0
2, 171840, Note_on_c, 0, 62, 34
2, 171840, Note_on_c, 0, 64, 40
2, 172320, Note_on_c, 0, 64, 0
2, 172320, Note_on_c, 0, 62, 0
2, 172320, Note_on_c, 0, 68, 38
2, 172320, Note_on_c, 0, 62, 32
2, 172800, Note_on_c, 0, 62, 0
2, 172800, Note_on_c, 0, 68, 0
2, 172800, Note_on_c, 0, 60, 33
2, 172800, Note_on_c, 0, 69, 39
2, 173280, Note_on_c, 0, 60, 0
2, 173760, Note_on_c, 0, 69, 0
2, 173760, End_track
3, 0, Start_track
3, 0, Title_t, "Piano left"
3, 0, Program_c, 0, 0
3, 0, Control_c, 0, 7, 100
3, 0, Control_c, 0, 10, 64
3, 0, Control_c, 0, 64, 0
3, 1920, Note_on_c, 0, 65, 27
3, 1920, Note_on_c, 0, 62, 22
3, 1920, Note_on_c, 0, 57, 22
3, 1984, Control_c, 0, 64, 127
3, 2400, Note_on_c, 0, 57, 0
3, 2400, Note_on_c, 0, 62, 0
3, 2400, Note_on_c, 0, 65, 0
3, 2400, Note_on_c, 0, 65, 27
3, 2400, Note_on_c, 0, 62, 22
3, 2400, Note_on_c, 0, 57, 22
3, 2880, Note_on_c, 0, 57, 0
3, 2880, Note_on_c, 0, 62, 0
3, 2880, Note_on_c, 0, 65, 0
3, 2888, Control_c, 0, 64, 0
3, 3174, Control_c, 0, 64, 127
3, 3360, Note_on_c, 0, 65, 25
3, 3360, Note_on_c, 0, 60, 21
3, 3360, Note_on_c, 0, 57, 21
3, 3840, Note_on_c, 0, 57, 0
3, 3840, Note_on_c, 0, 60, 0
3, 3840, Note_on_c, 0, 65, 0
3, 3840, Note_on_c, 0, 64, 25
3, 3840, Note_on_c, 0, 60, 21
3, 3840, Note_on_c, 0, 57, 21
3, 3849, Control_c, 0, 64, 0
3, 4320, Note_on_c, 0, 57, 0
3, 4320, Note_on_c, 0, 60, 0
3, 4320, Note_on_c, 0, 64, 0
3, 4800, Note_on_c, 0, 62, 28
3, 4800, Note_on_c, 0, 52, 23
3, 4800, Note_on_c, 0, 56, 23
3, 5280, Note_on_c, 0, 56, 0
3, 5280, Note_on_c, 0, 52, 0
3, 5280, Note_on_c, 0, 62, 0
3, 5280, Note_on_c, 0, 62, 25
3, 5280, Note_on_c, 0, 56, 21
3, 5280, Note_on_c, 0, 52, 21
3, 5760, Note_on_c, 0, 52, 0
3, 5760, Note_on_c, 0, 56, 0
3, 5760, Note_on_c, 0, 62, 0
3, 6240, Note_on_c, 0, 45, 30
3, 6320, Control_c, 0, 64, 127
3, 6720, Note_on_c, 0, 45, 0
3, 6720, Note_on_c, 0, 60, 28
3, 6720, Note_on_c, 0, 52, 22
3, 7200, Note_on_c, 0, 52, 0
3, 7200, Note_on_c, 0, 60, 0
3, 7202, Control_c, 0, 64, 0
3, 7292, Control_c, 0, 64, 127
3, 7680, Note_on_c, 0, 52, 39
3, 7680, Note_on_c, 0, 60, 46
3, 7688, Control_c, 0, 64, 0
3, 7920, Note_on_c, 0, 60, 0
3, 7920, Note_on_c, 0, 52, 0
3, 8160, Note_on_c, 0, 45, 48
3, 8400, Note_on_c, 0, 45, 0
3, 9120, Note_on_c, 0, 52, 41
3, 9120, Note_on_c, 0, 59, 49
3, 9120, Note_on_c, 0, 55, 41
3, 9247, Control_c, 0, 64, 127
3, 9600, Note_on_c, 0, 55, 0
3, 9600, Note_on_c, 0, 59, 0
3, 9600, Note_on_c, 0, 52, 0
3, 9600, Note_on_c, 0, 47, 56
3, 10080, Note_on_c, 0, 47, 0
3, 10088, Control_c, 0, 64, 0
3, 10236, Control_c, 0, 64, 127
3, 10560, Note_on_c, 0, 47, 45
3, 10560, Note_on_c, 0, 55, 45
3, 10560, Note_on_c, 0, 59, 54
3, 11040, Note_on_c, 0, 59, 0
3, 11040, Note_on_c, 0, 55, 0
3, 11040, Note_on_c, 0, 47, 0
3, 11040, Note_on_c, 0, 47, 41
3, 11040, Note_on_c, 0, 54, 41
3, 11040, Note_on_c, 0, 59, 49
3, 11050, Control_c, 0, 64, 0
3, 11181, Control_c, 0, 64, 127
3, 11520, Note_on_c, 0, 59, 0
3, 11520, Note_on_c, 0, 54, 0
3, 11520, Note_on_c, 0, 47, 0
3, 11520, Note_on_c, 0, 52, 45
3, 11520, Note_on_c, 0, 55, 45
3, 11520, Note_on_c, 0, 59, 54
3, 11532, Control_c, 0, 64, 0
3, 11707, Control_c, 0, 64, 127
3, 12000, Note_on_c, 0, 59, 0
3, 12000, Note_on_c, 0, 55, 0
3, 12000, Note_on_c, 0, 52, 0
3, 12000, Note_on_c, 0, 40, 50
3, 12480, Note_on_c, 0, 40, 0
3, 12498, Control_c, 0, 64, 0
3, 13440, Note_on_c, 0, 65, 27
3, 13440, Note_on_c, 0, 62, 22
3, 13440, Note_on_c, 0, 57, 22
3, 13504, Control_c, 0, 64, 127
3, 13920, Note_on_c, 0, 57, 0
3, 13920, Note_on_c, 0, 62, 0
3, 13920, Note_on_c, 0, 65, 0
3, 13920, Note_on_c, 0, 65, 27
3, 13920, Note_on_c, 0, 62, 22
3, 13920, Note_on_c, 0, 57, 22
3, 14400, Note_on_c, 0, 57, 0
3, 14400, Note_on_c, 0, 62, 0
3, 14400, Note_on_c, 0, 65, 0
3, 14400, Control_c, 0, 64, 0
3, 14720, Control_c, 0, 64, 127
3, 14880, Note_on_c, 0, 65, 25
3, 14880, Note_on_c, 0, 60, 21
3, 14880, Note_on_c, 0, 57, 21
3, 15360, Note_on_c, 0, 57, 0
3, 15360, Note_on_c, 0, 60, 0
3, 15360, Note_on_c, 0, 65, 0
3, 15360, Note_on_c, 0, 64, 25
3, 15360, Note_on_c, 0, 60, 21
3, 15360, Note_on_c, 0, 57, 21
3, 15378, Control_c, 0, 64, 0
3, 15840, Note_on_c, 0, 57, 0
3, 15840, Note_on_c, 0, 60, 0
3, 15840, Note_on_c, 0, 64, 0
3, 16320, Note_on_c, 0, 62, 28
3, 16320, Note_on_c, 0, 52, 23
3, 16320, Note_on_c, 0, 56, 23
3, 16800, Note_on_c, 0, 56, 0
3, 16800, Note_on_c, 0, 52, 0
3, 16800, Note_on_c, 0, 62, 0
3, 16800, Note_on_c, 0, 62, 25
3, 16800, Note_on_c, 0, 56, 21
3, 16800, Note_on_c, 0, 52, 21
3, 17280, Note_on_c, 0, 52, 0
3, 17280, Note_on_c, 0, 56, 0
3, 17280, Note_on_c, 0, 62, 0
3, 17760, Note_on_c, 0, 53, 21
3, 17760, Note_on_c, 0, 57, 21
3, 17760, Note_on_c, 0, 62, 28
3, 17840, Control_c, 0, 64, 127
3, 18240, Note_on_c, 0, 62, 0
3, 18240, Note_on_c, 0, 57, 0
3, 18240, Note_on_c, 0, 53, 0
3, 18240, Note_on_c, 0, 57, 21
3, 18240, Note_on_c, 0, 60, 26
3, 18240, Note_on_c, 0, 53, 21
3, 18720, Note_on_c, 0, 53, 0
3, 18720, Note_on_c, 0, 60, 0
3, 18720, Note_on_c, 0, 57, 0
3, 18728, Control_c, 0, 64, 0
3, 18812, Control_c, 0, 64, 127
3, 19200, Note_on_c, 0, 60, 29
3, 19200, Note_on_c, 0, 53, 29
3, 19200, Note_on_c, 0, 63, 34
3, 19208, Control_c, 0, 64, 0
3, 19680, Note_on_c, 0, 63, 0
3, 19680, Note_on_c, 0, 53, 0
3, 19680, Note_on_c, 0, 60, 0
3, 19680, Note_on_c, 0, 53, 29
3, 19680, Note_on_c, 0, 60, 29
3, 19680, Note_on_c, 0, 63, 34
3, 20160, Note_on_c, 0, 63, 0
3, 20160, Note_on_c, 0, 60, 0
3, 20160, Note_on_c, 0, 53, 0
3, 20160, Note_on_c, 0, 58, 34
3, 20160, Note_on_c, 0, 62, 37
3, 20320, Control_c, 0, 64, 127
3, 20640, Note_on_c, 0, 62, 0
3, 20640, Note_on_c, 0, 65, 37
3, 21120, Note_on_c, 0, 65, 0
3, 21120, Note_on_c, 0, 58, 0
3, 21141, Control_c, 0, 64, 0
3, 21671, Control_c, 0, 64, 127
3, 22080, Note_on_c, 0, 52, 29
3, 22080, Note_on_c, 0, 59, 35
3, 22092, Control_c, 0, 64, 0
3, 22155, Control_c, 0, 64, 127
3, 22560, Note_on_c, 0, 59, 0
3, 22560, Note_on_c, 0, 52, 0
3, 22560, Note_on_c, 0, 52, 26
3, 22560, Note_on_c, 0, 59, 31
3, 22570, Control_c, 0, 64, 0
3, 22701, Control_c, 0, 64, 127
3, 23040, Note_on_c, 0, 59, 0
3, 23040, Note_on_c, 0, 52, 0
3, 23040, Note_on_c, 0, 45, 29
3, 23040, Note_on_c, 0, 52, 35
3, 23046, Control_c, 0, 64, 0
3, 23307, Control_c, 0, 64, 127
3, 23520, Note_on_c, 0, 52, 0
3, 23520, Note_on_c, 0, 45, 0
3, 23520, Note_on_c, 0, 33, 36
3, 24000, Note_on_c, 0, 33, 0
3, 24007, Control_c, 0, 64, 0
3, 24960, Note_on_c, 0, 65, 27
3, 24960, Note_on_c, 0, 62, 22
3, 24960, Note_on_c, 0, 57, 22
3, 25052, Control_c, 0, 64, 127
3, 25440, Note_on_c, 0, 57, 0
3, 25440, Note_on_c, 0, 62, 0
3, 25440, Note_on_c, 0, 65, 0
3, 25440, Note_on_c, 0, 65, 27
3, 25440, Note_on_c, 0, 62, 22
3, 25440, Note_on_c, 0, 57, 22
3, 25920, Note_on_c, 0, 57, 0
3, 25920, Note_on_c, 0, 62, 0
3, 25920, Note_on_c, 0, 65, 0
3, 25925, Control_c, 0, 64, 0
3, 26267, Control_c, 0, 64, 127
3, 26400, Note_on_c, 0, 65, 25
3, 26400, Note_on_c, 0, 60, 21
3, 26400, Note_on_c, 0, 57, 21
3, 26880, Note_on_c, 0, 57, 0
3, 26880, Note_on_c, 0, 60, 0
3, 26880, Note_on_c, 0, 65, 0
3, 26880, Note_on_c, 0, 64, 25
3, 26880, Note_on_c, 0, 60, 21
3, 26880, Note_on_c, 0, 57, 21
3, 26887, Control_c, 0, 64, 0
3, 27360, Note_on_c, 0, 57, 0
3, 27360, Note_on_c, 0, 60, 0
3, 27360, Note_on_c, 0, 64, 0
3, 27840, Note_on_c, 0, 62, 28
3, 27840, Note_on_c, 0, 52, 23
3, 27840, Note_on_c, 0, 56, 23
3, 28320, Note_on_c, 0, 56, 0
3, 28320, Note_on_c, 0, 52, 0
3, 28320, Note_on_c, 0, 62, 0
3, 28320, Note_on_c, 0, 62, 25
3, 28320, Note_on_c, 0, 56, 21
3, 28320, Note_on_c, 0, 52, 21
3, 28800, Note_on_c, 0, 52, 0
3, 28800, Note_on_c, 0, 56, 0
3, 28800, Note_on_c, 0, 62, 0
3, 29280, Note_on_c, 0, 45, 30
3, 29360, Control_c, 0, 64, 127
3, 29760, Note_on_c, 0, 45, 0
3, 29760, Note_on_c, 0, 60, 28
3, 29760, Note_on_c, 0, 52, 22
3, 30240, Note_on_c, 0, 52, 0
3, 30240, Note_on_c, 0, 60, 0
3, 30247, Control_c, 0, 64, 0
3, 30332, Control_c, 0, 64, 127
3, 30720, Note_on_c, 0, 52, 39
3, 30720, Note_on_c, 0, 60, 46
3, 30729, Control_c, 0, 64, 0
3, 30960, Note_on_c, 0, 60, 0
3, 30960, Note_on_c, 0, 52, 0
3, 31200, Note_on_c, 0, 45, 48
3, 31440, Note_on_c, 0, 45, 0
3, 32160, Note_on_c, 0, 52, 41
3, 32160, Note_on_c, 0, 59, 49
3, 32160, Note_on_c, 0, 55, 41
3, 32287, Control_c, 0, 64, 127
3, 32640, Note_on_c, 0, 55, 0
3, 32640, Note_on_c, 0, 59, 0
3, 32640, Note_on_c, 0, 52, 0
3, 32640, Note_on_c, 0, 47, 56
3, 33120, Note_on_c, 0, 47, 0
3, 33125, Control_c, 0, 64, 0
3, 33276, Control_c, 0, 64, 127
3, 33600, Note_on_c, 0, 47, 45
3, 33600, Note_on_c, 0, 55, 45
3, 33600, Note_on_c, 0, 59, 54
3, 34080, Note_on_c, 0, 59, 0
3, 34080, Note_on_c, 0, 55, 0
3, 34080, Note_on_c, 0, 47, 0
3, 34080, Note_on_c, 0, 47, 41
3, 34080, Note_on_c, 0, 54, 41
3, 34080, Note_on_c, 0, 59, 49
3, 34091, Control_c, 0, 64, 0
3, 34221, Control_c, 0, 64, 127
3, 34560, Note_on_c, 0, 59, 0
3, 34560, Note_on_c, 0, 54, 0
3, 34560, Note_on_c, 0, 47, 0
3, 34560, Note_on_c, 0, 52, 45
3, 34560, Note_on_c, 0, 55, 45
3, 34560, Note_on_c, 0, 59, 54
3, 34568, Control_c, 0, 64, 0
3, 34854, Control_c, 0, 64, 127
3, 35040, Note_on_c, 0, 59, 0
3, 35040, Note_on_c, 0, 55, 0
3, 35040, Note_on_c, 0, 52, 0
3, 35040, Note_on_c, 0, 40, 50
3, 35520, Note_on_c, 0, 40, 0
3, 35534, Control_c, 0, 64, 0
3, 36480, Note_on_c, 0, 65, 27
3, 36480, Note_on_c, 0, 62, 22
3, 36480, Note_on_c, 0, 57, 22
3, 36572, Control_c, 0, 64, 127
3, 36960, Note_on_c, 0, 57, 0
3, 36960, Note_on_c, 0, 62, 0
3, 36960, Note_on_c, 0, 65, 0
3, 36960, Note_on_c, 0, 65, 27
3, 36960, Note_on_c, 0, 62, 22
3, 36960, Note_on_c, 0, 57, 22
3, 37440, Note_on_c, 0, 57, 0
3, 37440, Note_on_c, 0, 62, 0
3, 37440, Note_on_c, 0, 65, 0
3, 37450, Control_c, 0, 64, 0
3, 37707, Control_c, 0, 64, 127
3, 37920, Note_on_c, 0, 65, 25
3, 37920, Note_on_c, 0, 60, 21
3, 37920, Note_on_c, 0, 57, 21
3, 38400, Note_on_c, 0, 57, 0
3, 38400, Note_on_c, 0, 60, 0
3, 38400, Note_on_c, 0, 65, 0
3, 38400, Note_on_c, 0, 64, 25
3, 38400, Note_on_c, 0, 60, 21
3, 38400, Note_on_c, 0, 57, 21
3, 38410, Control_c, 0, 64, 0
3, 38880, Note_on_c, 0, 57, 0
3, 38880, Note_on_c, 0, 60, 0
3, 38880, Note_on_c, 0, 64, 0
3, 39360, Note_on_c, 0, 62, 28
3, 39360, Note_on_c, 0, 52, 23
3, 39360, Note_on_c, 0, 56, 23
3, 39840, Note_on_c, 0, 56, 0
3, 39840, Note_on_c, 0, 52, 0
3, 39840, Note_on_c, 0, 62, 0
3, 39840, Note_on_c, 0, 62, 25
3, 39840, Note_on_c, 0, 56, 21
3, 39840, Note_on_c, 0, 52, 21
3, 40320, Note_on_c, 0, 52, 0
3, 40320, Note_on_c, 0, 56, 0
3, 40320, Note_on_c, 0, 62, 0
3, 40800, Note_on_c, 0, 53, 21
3, 40800, Note_on_c, 0, 57, 21
3, 40800, Note_on_c, 0, 62, 28
3, 40880, Control_c, 0, 64, 127
3, 41280, Note_on_c, 0, 62, 0
3, 41280, Note_on_c, 0, 57, 0
3, 41280, Note_on_c, 0, 53, 0
3, 41280, Note_on_c, 0, 57, 21
3, 41280, Note_on_c, 0, 60, 26
3, 41280, Note_on_c, 0, 53, 21
3, 41760, Note_on_c, 0, 53, 0
3, 41760, Note_on_c, 0, 60, 0
3, 41760, Note_on_c, 0, 57, 0
3, 41768, Control_c, 0, 64, 0
3, 41852, Control_c, 0, 64, 127
3, 42240, Note_on_c, 0, 60, 29
3, 42240, Note_on_c, 0, 53, 29
3, 42240, Note_on_c, 0, 63, 34
3, 42257, Control_c, 0, 64, 0
3, 42720, Note_on_c, 0, 63, 0
3, 42720, Note_on_c, 0, 53, 0
3, 42720, Note_on_c, 0, 60, 0
3, 42720, Note_on_c, 0, 53, 29
3, 42720, Note_on_c, 0, 60, 29
3, 42720, Note_on_c, 0, 63, 34
3, 43200, Note_on_c, 0, 63, 0
3, 43200, Note_on_c, 0, 60, 0
3, 43200, Note_on_c, 0, 53, 0
3, 43200, Note_on_c, 0, 58, 34
3, 43200, Note_on_c, 0, 62, 37
3, 43360, Control_c, 0, 64, 127
3, 43680, Note_on_c, 0, 62, 0
3, 43680, Note_on_c, 0, 65, 37
3, 44160, Note_on_c, 0, 65, 0
3, 44160, Note_on_c, 0, 58, 0
3, 44176, Control_c, 0, 64, 0
3, 44711, Control_c, 0, 64, 127
3, 45120, Note_on_c, 0, 52, 29
3, 45120, Note_on_c, 0, 59, 35
3, 45132, Control_c, 0, 64, 0
3, 45223, Control_c, 0, 64, 127
3, 45600, Note_on_c, 0, 59, 0
3, 45600, Note_on_c, 0, 52, 0
3, 45600, Note_on_c, 0, 52, 26
3, 45600, Note_on_c, 0, 59, 31
3, 45604, Control_c, 0, 64, 0
3, 45741, Control_c, 0, 64, 127
3, 46080, Note_on_c, 0, 59, 0
3, 46080, Note_on_c, 0, 52, 0
3, 46080, Note_on_c, 0, 45, 29
3, 46080, Note_on_c, 0, 52, 35
3, 46097, Control_c, 0, 64, 0
3, 46267, Control_c, 0, 64, 127
3, 46560, Note_on_c, 0, 52, 0
3, 46560, Note_on_c, 0, 45, 0
3, 46560, Note_on_c, 0, 33, 30
3, 47040, Note_on_c, 0, 33, 0
3, 47054, Control_c, 0, 64, 0
3, 48000, Note_on_c, 0, 66, 32
3, 48000, Note_on_c, 0, 60, 27
3, 48000, Note_on_c, 0, 56, 27
3, 48106, Control_c, 0, 64, 127
3, 48480, Note_on_c, 0, 56, 0
3, 48480, Note_on_c, 0, 60, 0
3, 48480, Note_on_c, 0, 66, 0
3, 48480, Note_on_c, 0, 66, 32
3, 48480, Note_on_c, 0, 60, 27
3, 48480, Note_on_c, 0, 56, 27
3, 48960, Note_on_c, 0, 56, 0
3, 48960, Note_on_c, 0, 60, 0
3, 48960, Note_on_c, 0, 66, 0
3, 48967, Control_c, 0, 64, 0
3, 49189, Control_c, 0, 64, 127
3, 49440, Note_on_c, 0, 66, 33
3, 49440, Note_on_c, 0, 60, 27
3, 49440, Note_on_c, 0, 55, 27
3, 49920, Note_on_c, 0, 55, 0
3, 49920, Note_on_c, 0, 60, 0
3, 49920, Note_on_c, 0, 66, 0
3, 49920, Note_on_c, 0, 67, 33
3, 49920, Note_on_c, 0, 59, 27
3, 49920, Note_on_c, 0, 55, 27
3, 49924, Control_c, 0, 64, 0
3, 50400, Note_on_c, 0, 55, 0
3, 50400, Note_on_c, 0, 59, 0
3, 50400, Note_on_c, 0, 67, 0
3, 50880, Note_on_c, 0, 66, 36
3, 50880, Note_on_c, 0, 60, 30
3, 50880, Note_on_c, 0, 56, 30
3, 50986, Control_c, 0, 64, 127
3, 51360, Note_on_c, 0, 56, 0
3, 51360, Note_on_c, 0, 60, 0
3, 51360, Note_on_c, 0, 66, 0
3, 51360, Note_on_c, 0, 66, 38
3, 51360, Note_on_c, 0, 60, 31
3, 51360, Note_on_c, 0, 56, 31
3, 51840, Note_on_c, 0, 56, 0
3, 51840, Note_on_c, 0, 60, 0
3, 51840, Note_on_c, 0, 66, 0
3, 51847, Control_c, 0, 64, 0
3, 52039, Control_c, 0, 64, 127
3, 52320, Note_on_c, 0, 65, 48
3, 52320, Note_on_c, 0, 59, 40
3, 52320, Note_on_c, 0, 56, 40
3, 52800, Note_on_c, 0, 56, 0
3, 52800, Note_on_c, 0, 59, 0
3, 52800, Note_on_c, 0, 65, 0
3, 52800, Note_on_c, 0, 65, 48
3, 52800, Note_on_c, 0, 58, 40
3, 52800, Note_on_c, 0, 56, 40
3, 52810, Control_c, 0, 64, 0
3, 53280, Note_on_c, 0, 56, 0
3, 53280, Note_on_c, 0, 58, 0
3, 53280, Note_on_c, 0, 65, 0
3, 53417, Control_c, 0, 64, 127
3, 53760, Note_on_c, 0, 65, 59
3, 53760, Note_on_c, 0, 58, 48
3, 53760, Note_on_c, 0, 55, 48
3, 54240, Note_on_c, 0, 55, 0
3, 54240, Note_on_c, 0, 58, 0
3, 54240, Note_on_c, 0, 65, 0
3, 54240, Note_on_c, 0, 64, 55
3, 54240, Note_on_c, 0, 58, 46
3, 54240, Note_on_c, 0, 55, 46
3, 54252, Control_c, 0, 64, 0
3, 54720, Note_on_c, 0, 55, 0
3, 54720, Note_on_c, 0, 58, 0
3, 54720, Note_on_c, 0, 64, 0
3, 54857, Control_c, 0, 64, 127
3, 55200, Note_on_c, 0, 64, 54
3, 55200, Note_on_c, 0, 57, 42
3, 55200, Note_on_c, 0, 55, 42
3, 55680, Note_on_c, 0, 55, 0
3, 55680, Note_on_c, 0, 57, 0
3, 55680, Note_on_c, 0, 64, 0
3, 55680, Note_on_c, 0, 63, 48
3, 55680, Note_on_c, 0, 57, 40
3, 55680, Note_on_c, 0, 54, 40
3, 55691, Control_c, 0, 64, 0
3, 56160, Note_on_c, 0, 54, 0
3, 56160, Note_on_c, 0, 57, 0
3, 56160, Note_on_c, 0, 63, 0
3, 56412, Control_c, 0, 64, 127
3, 56640, Note_on_c, 0, 63, 44
3, 56640, Note_on_c, 0, 56, 35
3, 56640, Note_on_c, 0, 53, 35
3, 57120, Note_on_c, 0, 53, 0
3, 57120, Note_on_c, 0, 56, 0
3, 57120, Note_on_c, 0, 63, 0
3, 57120, Note_on_c, 0, 62, 39
3, 57120, Note_on_c, 0, 56, 32
3, 57120, Note_on_c, 0, 53, 32
3, 57128, Control_c, 0, 64, 0
3, 57600, Note_on_c, 0, 53, 0
3, 57600, Note_on_c, 0, 56, 0
3, 57600, Note_on_c, 0, 62, 0
3, 57737, Control_c, 0, 64, 127
3, 58080, Note_on_c, 0, 62, 36
3, 58080, Note_on_c, 0, 55, 29
3, 58080, Note_on_c, 0, 52, 29
3, 58560, Note_on_c, 0, 52, 0
3, 58560, Note_on_c, 0, 55, 0
3, 58560, Note_on_c, 0, 62, 0
3, 58560, Note_on_c, 0, 61, 28
3, 58560, Note_on_c, 0, 55, 22
3, 58560, Note_on_c, 0, 52, 22
3, 58563, Control_c, 0, 64, 0
3, 59040, Note_on_c, 0, 52, 0
3, 59040, Note_on_c, 0, 55, 0
3, 59040, Note_on_c, 0, 61, 0
3, 59040, Note_on_c, 0, 50, 22
3, 59040, Note_on_c, 0, 53, 22
3, 59040, Note_on_c, 0, 62, 28
3, 59520, Note_on_c, 0, 62, 0
3, 59520, Note_on_c, 0, 53, 0
3, 59520, Note_on_c, 0, 50, 0
3, 59520, Note_on_c, 0, 65, 27
3, 59520, Note_on_c, 0, 62, 22
3, 59520, Note_on_c, 0, 57, 22
3, 59718, Control_c, 0, 64, 127
3, 60000, Note_on_c, 0, 57, 0
3, 60000, Note_on_c, 0, 62, 0
3, 60000, Note_on_c, 0, 65, 0
3, 60000, Note_on_c, 0, 65, 27
3, 60000, Note_on_c, 0, 62, 22
3, 60000, Note_on_c, 0, 57, 22
3, 60480, Note_on_c, 0, 57, 0
3, 60480, Note_on_c, 0, 62, 0
3, 60480, Note_on_c, 0, 65, 0
3, 60486, Control_c, 0, 64, 0
3, 60774, Control_c, 0, 64, 127
3, 60960, Note_on_c, 0, 65, 25
3, 60960, Note_on_c, 0, 60, 21
3, 60960, Note_on_c, 0, 57, 21
3, 61440, Note_on_c, 0, 57, 0
3, 61440, Note_on_c, 0, 60, 0
3, 61440, Note_on_c, 0, 65, 0
3, 61440, Note_on_c, 0, 64, 25
3, 61440, Note_on_c, 0, 60, 21
3, 61440, Note_on_c, 0, 57, 21
3, 61450, Control_c, 0, 64, 0
3, 61920, Note_on_c, 0, 57, 0
3, 61920, Note_on_c, 0, 60, 0
3, 61920, Note_on_c, 0, 64, 0
3, 62400, Note_on_c, 0, 62, 28
3, 62400, Note_on_c, 0, 52, 23
3, 62400, Note_on_c, 0, 56, 23
3, 62880, Note_on_c, 0, 56, 0
3, 62880, Note_on_c, 0, 52, 0
3, 62880, Note_on_c, 0, 62, 0
3, 62880, Note_on_c, 0, 62, 25
3, 62880, Note_on_c, 0, 56, 21
3, 62880, Note_on_c, 0, 52, 21
3, 63360, Note_on_c, 0, 52, 0
3, 63360, Note_on_c, 0, 56, 0
3, 63360, Note_on_c, 0, 62, 0
3, 63840, Note_on_c, 0, 53, 21
3, 63840, Note_on_c, 0, 57, 21
3, 63840, Note_on_c, 0, 62, 28
3, 63920, Control_c, 0, 64, 127
3, 64320, Note_on_c, 0, 62, 0
3, 64320, Note_on_c, 0, 57, 0
3, 64320, Note_on_c, 0, 53, 0
3, 64320, Note_on_c, 0, 57, 21
3, 64320, Note_on_c, 0, 60, 26
3, 64320, Note_on_c, 0, 53, 21
3, 64800, Note_on_c, 0, 53, 0
3, 64800, Note_on_c, 0, 60, 0
3, 64800, Note_on_c, 0, 57, 0
3, 64806, Control_c, 0, 64, 0
3, 64892, Control_c, 0, 64, 127
3, 65280, Note_on_c, 0, 60, 29
3, 65280, Note_on_c, 0, 53, 29
3, 65280, Note_on_c, 0, 63, 34
3, 65291, Control_c, 0, 64, 0
3, 65760, Note_on_c, 0, 63, 0
3, 65760, Note_on_c, 0, 53, 0
3, 65760, Note_on_c, 0, 60, 0
3, 65760, Note_on_c, 0, 53, 29
3, 65760, Note_on_c, 0, 60, 29
3, 65760, Note_on_c, 0, 63, 34
3, 66240, Note_on_c, 0, 63, 0
3, 66240, Note_on_c, 0, 60, 0
3, 66240, Note_on_c, 0, 53, 0
3, 66240, Note_on_c, 0, 58, 34
3, 66240, Note_on_c, 0, 62, 37
3, 66400, Control_c, 0, 64, 127
3, 66720, Note_on_c, 0, 62, 0
3, 66720, Note_on_c, 0, 65, 37
3, 67200, Note_on_c, 0, 65, 0
3, 67200, Note_on_c, 0, 58, 0
3, 67213, Control_c, 0, 64, 0
3, 67751, Control_c, 0, 64, 127
3, 68160, Note_on_c, 0, 52, 29
3, 68160, Note_on_c, 0, 59, 35
3, 68170, Control_c, 0, 64, 0
3, 68275, Control_c, 0, 64, 127
3, 68640, Note_on_c, 0, 59, 0
3, 68640, Note_on_c, 0, 52, 0
3, 68640, Note_on_c, 0, 52, 26
3, 68640, Note_on_c, 0, 59, 31
3, 68650, Control_c, 0, 64, 0
3, 68781, Control_c, 0, 64, 127
3, 69120, Note_on_c, 0, 59, 0
3, 69120, Note_on_c, 0, 52, 0
3, 69120, Control_c, 0, 64, 0
3, 69120, Note_on_c, 0, 45, 29
3, 69120, Note_on_c, 0, 52, 35
3, 69360, Control_c, 0, 64, 127
3, 69600, Note_on_c, 0, 52, 0
3, 69600, Note_on_c, 0, 45, 0
3, 69600, Note_on_c, 0, 33, 30
3, 70080, Note_on_c, 0, 33, 0
3, 70084, Control_c, 0, 64, 0
3, 71040, Note_on_c, 0, 66, 32
3, 71040, Note_on_c, 0, 60, 27
3, 71040, Note_on_c, 0, 56, 27
3, 71146, Control_c, 0, 64, 127
3, 71520, Note_on_c, 0, 56, 0
3, 71520, Note_on_c, 0, 60, 0
3, 71520, Note_on_c, 0, 66, 0
3, 71520, Note_on_c, 0, 66, 32
3, 71520, Note_on_c, 0, 60, 27
3, 71520, Note_on_c, 0, 56, 27
3, 72000, Note_on_c, 0, 56, 0
3, 72000, Note_on_c, 0, 60, 0
3, 72000, Note_on_c, 0, 66, 0
3, 72007, Control_c, 0, 64, 0
3, 72229, Control_c, 0, 64, 127
3, 72480, Note_on_c, 0, 66, 33
3, 72480, Note_on_c, 0, 60, 27
3, 72480, Note_on_c, 0, 55, 27
3, 72960, Note_on_c, 0, 55, 0
3, 72960, Note_on_c, 0, 60, 0
3, 72960, Note_on_c, 0, 66, 0
3, 72960, Note_on_c, 0, 67, 33
3, 72960, Note_on_c, 0, 59, 27
3, 72960, Note_on_c, 0, 55, 27
3, 72965, Control_c, 0, 64, 0
3, 73440, Note_on_c, 0, 55, 0
3, 73440, Note_on_c, 0, 59, 0
3, 73440, Note_on_c, 0, 67, 0
3, 73920, Note_on_c, 0, 66, 36
3, 73920, Note_on_c, 0, 60, 30
3, 73920, Note_on_c, 0, 56, 30
3, 74026, Control_c, 0, 64, 127
3, 74400, Note_on_c, 0, 56, 0
3, 74400, Note_on_c, 0, 60, 0
3, 74400, Note_on_c, 0, 66, 0
3, 74400, Note_on_c, 0, 66, 38
3, 74400, Note_on_c, 0, 60, 31
3, 74400, Note_on_c, 0, 56, 31
3, 74880, Note_on_c, 0, 56, 0
3, 74880, Note_on_c, 0, 60, 0
3, 74880, Note_on_c, 0, 66, 0
3, 74887, Control_c, 0, 64, 0
3, 75017, Control_c, 0, 64, 127
3, 75360, Note_on_c, 0, 65, 48
3, 75360, Note_on_c, 0, 59, 40
3, 75360, Note_on_c, 0, 56, 40
3, 75840, Note_on_c, 0, 56, 0
3, 75840, Note_on_c, 0, 59, 0
3, 75840, Note_on_c, 0, 65, 0
3, 75840, Note_on_c, 0, 65, 48
3, 75840, Note_on_c, 0, 58, 40
3, 75840, Note_on_c, 0, 56, 40
3, 75848, Control_c, 0, 64, 0
3, 76320, Note_on_c, 0, 56, 0
3, 76320, Note_on_c, 0, 58, 0
3, 76320, Note_on_c, 0, 65, 0
3, 76457, Control_c, 0, 64, 127
3, 76800, Note_on_c, 0, 65, 59
3, 76800, Note_on_c, 0, 58, 48
3, 76800, Note_on_c, 0, 55, 48
3, 77280, Note_on_c, 0, 55, 0
3, 77280, Note_on_c, 0, 58, 0
3, 77280, Note_on_c, 0, 65, 0
3, 77280, Note_on_c, 0, 64, 55
3, 77280, Note_on_c, 0, 58, 46
3, 77280, Note_on_c, 0, 55, 46
3, 77291, Control_c, 0, 64, 0
3, 77760, Note_on_c, 0, 55, 0
3, 77760, Note_on_c, 0, 58, 0
3, 77760, Note_on_c, 0, 64, 0
3, 77897, Control_c, 0, 64, 127
3, 78240, Note_on_c, 0, 64, 54
3, 78240, Note_on_c, 0, 57, 42
3, 78240, Note_on_c, 0, 55, 42
3, 78720, Note_on_c, 0, 55, 0
3, 78720, Note_on_c, 0, 57, 0
3, 78720, Note_on_c, 0, 64, 0
3, 78720, Note_on_c, 0, 63, 48
3, 78720, Note_on_c, 0, 57, 40
3, 78720, Note_on_c, 0, 54, 40
3, 78729, Control_c, 0, 64, 0
3, 79200, Note_on_c, 0, 54, 0
3, 79200, Note_on_c, 0, 57, 0
3, 79200, Note_on_c, 0, 63, 0
3, 79337, Control_c, 0, 64, 127
3, 79680, Note_on_c, 0, 63, 44
3, 79680, Note_on_c, 0, 56, 35
3, 79680, Note_on_c, 0, 53, 35
3, 80160, Note_on_c, 0, 53, 0
3, 80160, Note_on_c, 0, 56, 0
3, 80160, Note_on_c, 0, 63, 0
3, 80160, Note_on_c, 0, 62, 39
3, 80160, Note_on_c, 0, 56, 32
3, 80160, Note_on_c, 0, 53, 32
3, 80169, Control_c, 0, 64, 0
3, 80640, Note_on_c, 0, 53, 0
3, 80640, Note_on_c, 0, 56, 0
3, 80640, Note_on_c, 0, 62, 0
3, 80777, Control_c, 0, 64, 127
3, 81120, Note_on_c, 0, 62, 36
3, 81120, Note_on_c, 0, 55, 29
3, 81120, Note_on_c, 0, 52, 29
3, 81600, Note_on_c, 0, 52, 0
3, 81600, Note_on_c, 0, 55, 0
3, 81600, Note_on_c, 0, 62, 0
3, 81600, Note_on_c, 0, 61, 28
3, 81600, Note_on_c, 0, 55, 22
3, 81600, Note_on_c, 0, 52, 22
3, 81608, Control_c, 0, 64, 0
3, 82080, Note_on_c, 0, 52, 0
3, 82080, Note_on_c, 0, 55, 0
3, 82080, Note_on_c, 0, 61, 0
3, 82080, Note_on_c, 0, 50, 22
3, 82080, Note_on_c, 0, 53, 22
3, 82080, Note_on_c, 0, 62, 28
3, 82560, Note_on_c, 0, 62, 0
3, 82560, Note_on_c, 0, 53, 0
3, 82560, Note_on_c, 0, 50, 0
3, 82560, Note_on_c, 0, 65, 27
3, 82560, Note_on_c, 0, 62, 22
3, 82560, Note_on_c, 0, 57, 22
3, 82659, Control_c, 0, 64, 127
3, 83040, Note_on_c, 0, 57, 0
3, 83040, Note_on_c, 0, 62, 0
3, 83040, Note_on_c, 0, 65, 0
3, 83040, Note_on_c, 0, 65, 27
3, 83040, Note_on_c, 0, 62, 22
3, 83040, Note_on_c, 0, 57, 22
3, 83520, Note_on_c, 0, 57, 0
3, 83520, Note_on_c, 0, 62, 0
3, 83520, Note_on_c, 0, 65, 0
3, 83530, Control_c, 0, 64, 0
3, 83840, Control_c, 0, 64, 127
3, 84000, Note_on_c, 0, 65, 25
3, 84000, Note_on_c, 0, 60, 21
3, 84000, Note_on_c, 0, 57, 21
3, 84480, Note_on_c, 0, 57, 0
3, 84480, Note_on_c, 0, 60, 0
3, 84480, Note_on_c, 0, 65, 0
3, 84480, Note_on_c, 0, 64, 25
3, 84480, Note_on_c, 0, 60, 21
3, 84480, Note_on_c, 0, 57, 21
3, 84487, Control_c, 0, 64, 0
3, 84960, Note_on_c, 0, 57, 0
3, 84960, Note_on_c, 0, 60, 0
3, 84960, Note_on_c, 0, 64, 0
3, 85440, Note_on_c, 0, 62, 28
3, 85440, Note_on_c, 0, 52, 23
3, 85440, Note_on_c, 0, 56, 23
3, 85920, Note_on_c, 0, 56, 0
3, 85920, Note_on_c, 0, 52, 0
3, 85920, Note_on_c, 0, 62, 0
3, 85920, Note_on_c, 0, 62, 25
3, 85920, Note_on_c, 0, 56, 21
3, 85920, Note_on_c, 0, 52, 21
3, 86400, Note_on_c, 0, 52, 0
3, 86400, Note_on_c, 0, 56, 0
3, 86400, Note_on_c, 0, 62, 0
3, 86880, Note_on_c, 0, 53, 21
3, 86880, Note_on_c, 0, 57, 21
3, 86880, Note_on_c, 0, 62, 28
3, 86960, Control_c, 0, 64, 127
3, 87360, Note_on_c, 0, 62, 0
3, 87360, Note_on_c, 0, 57, 0
3, 87360, Note_on_c, 0, 53, 0
3, 87360, Note_on_c, 0, 57, 21
3, 87360, Note_on_c, 0, 60, 26
3, 87360, Note_on_c, 0, 53, 21
3, 87840, Note_on_c, 0, 53, 0
3, 87840, Note_on_c, 0, 60, 0
3, 87840, Note_on_c, 0, 57, 0
3, 87848, Control_c, 0, 64, 0
3, 87932, Control_c, 0, 64, 127
3, 88320, Note_on_c, 0, 60, 29
3, 88320, Note_on_c, 0, 53, 29
3, 88320, Note_on_c, 0, 63, 34
3, 88331, Control_c, 0, 64, 0
3, 88800, Note_on_c, 0, 63, 0
3, 88800, Note_on_c, 0, 53, 0
3, 88800, Note_on_c, 0, 60, 0
3, 88800, Note_on_c, 0, 53, 29
3, 88800, Note_on_c, 0, 60, 29
3, 88800, Note_on_c, 0, 63, 34
3, 89280, Note_on_c, 0, 63, 0
3, 89280, Note_on_c, 0, 60, 0
3, 89280, Note_on_c, 0, 53, 0
3, 89280, Note_on_c, 0, 58, 34
3, 89280, Note_on_c, 0, 62, 37
3, 89440, Control_c, 0, 64, 127
3, 89760, Note_on_c, 0, 62, 0
3, 89760, Note_on_c, 0, 65, 37
3, 90240, Note_on_c, 0, 65, 0
3, 90240, Note_on_c, 0, 58, 0
3, 90250, Control_c, 0, 64, 0
3, 90791, Control_c, 0, 64, 127
3, 91200, Note_on_c, 0, 52, 29
3, 91200, Note_on_c, 0, 59, 35
3, 91217, Control_c, 0, 64, 0
3, 91315, Control_c, 0, 64, 127
3, 91680, Note_on_c, 0, 59, 0
3, 91680, Note_on_c, 0, 52, 0
3, 91680, Note_on_c, 0, 52, 26
3, 91680, Note_on_c, 0, 59, 31
3, 91686, Control_c, 0, 64, 0
3, 91821, Control_c, 0, 64, 127
3, 92160, Note_on_c, 0, 59, 0
3, 92160, Note_on_c, 0, 52, 0
3, 92165, Control_c, 0, 64, 0
3, 92526, Control_c, 0, 64, 127
3, 92640, Note_on_c, 0, 45, 19
3, 92640, Note_on_c, 0, 57, 22
3, 93120, Note_on_c, 0, 57, 0
3, 93120, Note_on_c, 0, 45, 0
3, 93120, Note_on_c, 0, 45, 20
3, 93120, Note_on_c, 0, 57, 23
3, 93607, Control_c, 0, 64, 0
3, 94080, Note_on_c, 0, 57, 0
3, 94080, Note_on_c, 0, 45, 0
3, 94080, Note_on_c, 0, 50, 36
3, 94560, Note_on_c, 0, 50, 0
3, 94560, Note_on_c, 0, 38, 36
3, 95040, Note_on_c, 0, 38, 0
3, 95040, Note_on_c, 0, 40, 42
3, 95111, Control_c, 0, 64, 127
3, 95520, Note_on_c, 0, 40, 0
3, 95520, Note_on_c, 0, 45, 35
3, 95536, Control_c, 0, 64, 0
3, 95690, Control_c, 0, 64, 127
3, 96000, Note_on_c, 0, 45, 0
3, 96000, Note_on_c, 0, 52, 39
3, 96250, Control_c, 0, 64, 0
3, 96480, Note_on_c, 0, 52, 0
3, 96480, Note_on_c, 0, 57, 44
3, 96565, Control_c, 0, 64, 127
3, 96960, Note_on_c, 0, 57, 0
3, 96960, Control_c, 0, 64, 0
3, 96960, Note_on_c, 0, 50, 41
3, 97320, Note_on_c, 0, 50, 0
3, 97440, Note_on_c, 0, 38, 36
3, 97920, Note_on_c, 0, 38, 0
3, 97920, Note_on_c, 0, 40, 41
3, 97984, Control_c, 0, 64, 127
3, 98400, Note_on_c, 0, 40, 0
3, 98400, Note_on_c, 0, 45, 36
3, 98416, Control_c, 0, 64, 0
3, 98527, Control_c, 0, 64, 127
3, 98880, Note_on_c, 0, 45, 0
3, 98880, Note_on_c, 0, 52, 41
3, 99134, Control_c, 0, 64, 0
3, 99360, Note_on_c, 0, 52, 0
3, 99360, Note_on_c, 0, 57, 44
3, 99840, Note_on_c, 0, 57, 0
3, 99840, Note_on_c, 0, 50, 36
3, 100080, Note_on_c, 0, 50, 0
3, 100320, Note_on_c, 0, 38, 36
3, 100800, Note_on_c, 0, 38, 0
3, 100800, Note_on_c, 0, 40, 42
3, 101280, Note_on_c, 0, 40, 0
3, 101280, Note_on_c, 0, 45, 35
3, 101315, Control_c, 0, 64, 127
3, 101760, Note_on_c, 0, 45, 0
3, 101760, Note_on_c, 0, 52, 39
3, 102012, Control_c, 0, 64, 0
3, 102240, Note_on_c, 0, 52, 0
3, 102240, Note_on_c, 0, 57, 44
3, 102720, Note_on_c, 0, 57, 0
3, 102720, Note_on_c, 0, 50, 41
3, 102960, Note_on_c, 0, 50, 0
3, 103200, Note_on_c, 0, 38, 36
3, 103680, Note_on_c, 0, 38, 0
3, 103680, Note_on_c, 0, 40, 41
3, 104160, Note_on_c, 0, 40, 0
3, 104160, Note_on_c, 0, 45, 36
3, 104195, Control_c, 0, 64, 127
3, 104640, Note_on_c, 0, 45, 0
3, 104640, Note_on_c, 0, 57, 41
3, 105120, Note_on_c, 0, 57, 0
3, 105120, Note_on_c, 0, 54, 58
3, 105120, Note_on_c, 0, 61, 70
3, 105135, Control_c, 0, 64, 0
3, 105360, Note_on_c, 0, 61, 0
3, 105480, Note_on_c, 0, 61, 63
3, 105600, Note_on_c, 0, 61, 0
3, 105600, Note_on_c, 0, 62, 69
3, 105692, Control_c, 0, 64, 127
3, 105960, Note_on_c, 0, 62, 0
3, 106080, Note_on_c, 0, 59, 63
3, 106433, Control_c, 0, 64, 0
3, 106440, Note_on_c, 0, 59, 0
3, 106560, Note_on_c, 0, 54, 0
3, 106560, Note_on_c, 0, 54, 55
3, 106560, Note_on_c, 0, 61, 66
3, 106720, Note_on_c, 0, 61, 0
3, 106720, Note_on_c, 0, 59, 57
3, 106880, Note_on_c, 0, 59, 0
3, 106880, Note_on_c, 0, 57, 57
3, 107040, Note_on_c, 0, 57, 0
3, 107040, Note_on_c, 0, 62, 66
3, 107146, Control_c, 0, 64, 127
3, 107400, Note_on_c, 0, 62, 0
3, 107520, Note_on_c, 0, 59, 57
3, 107880, Note_on_c, 0, 59, 0
3, 107880, Control_c, 0, 64, 0
3, 108000, Note_on_c, 0, 54, 0
3, 108000, Note_on_c, 0, 54, 58
3, 108000, Note_on_c, 0, 61, 70
3, 108240, Note_on_c, 0, 61, 0
3, 108360, Note_on_c, 0, 61, 63
3, 108480, Note_on_c, 0, 61, 0
3, 108480, Note_on_c, 0, 62, 69
3, 108572, Control_c, 0, 64, 127
3, 108840, Note_on_c, 0, 62, 0
3, 108960, Note_on_c, 0, 59, 63
3, 109320, Note_on_c, 0, 59, 0
3, 109362, Control_c, 0, 64, 0
3, 109440, Note_on_c, 0, 54, 0
3, 109440, Note_on_c, 0, 54, 55
3, 109440, Note_on_c, 0, 61, 66
3, 109600, Note_on_c, 0, 61, 0
3, 109600, Note_on_c, 0, 59, 57
3, 109760, Note_on_c, 0, 59, 0
3, 109760, Note_on_c, 0, 57, 57
3, 109920, Note_on_c, 0, 57, 0
3, 109920, Note_on_c, 0, 54, 0
3, 109920, Note_on_c, 0, 42, 75
3, 109920, Note_on_c, 0, 54, 75
3, 110026, Control_c, 0, 64, 127
3, 110400, Note_on_c, 0, 54, 0
3, 110400, Note_on_c, 0, 42, 0
3, 110400, Note_on_c, 0, 42, 65
3, 110400, Note_on_c, 0, 54, 65
3, 110880, Note_on_c, 0, 54, 0
3, 110880, Note_on_c, 0, 42, 0
3, 110880, Note_on_c, 0, 54, 58
3, 110880, Note_on_c, 0, 61, 70
3, 110882, Control_c, 0, 64, 0
3, 111120, Note_on_c, 0, 61, 0
3, 111240, Note_on_c, 0, 61, 63
3, 111360, Note_on_c, 0, 61, 0
3, 111360, Note_on_c, 0, 62, 69
3, 111452, Control_c, 0, 64, 127
3, 111720, Note_on_c, 0, 62, 0
3, 111840, Note_on_c, 0, 59, 63
3, 112172, Control_c, 0, 64, 0
3, 112200, Note_on_c, 0, 59, 0
3, 112320, Note_on_c, 0, 54, 0
3, 112320, Note_on_c, 0, 54, 55
3, 112320, Note_on_c, 0, 61, 66
3, 112480, Note_on_c, 0, 61, 0
3, 112480, Note_on_c, 0, 59, 57
3, 112640, Note_on_c, 0, 59, 0
3, 112640, Note_on_c, 0, 57, 57
3, 112800, Note_on_c, 0, 57, 0
3, 112800, Note_on_c, 0, 62, 66
3, 112906, Control_c, 0, 64, 127
3, 113160, Note_on_c, 0, 62, 0
3, 113280, Note_on_c, 0, 59, 57
3, 113584, Control_c, 0, 64, 0
3, 113640, Note_on_c, 0, 59, 0
3, 113760, Note_on_c, 0, 61, 53
3, 114000, Note_on_c, 0, 61, 0
3, 114000, Note_on_c, 0, 59, 57
3, 114240, Note_on_c, 0, 54, 0
3, 114240, Note_on_c, 0, 52, 51
3, 115200, Note_on_c, 0, 59, 0
3, 115200, Note_on_c, 0, 61, 53
3, 115440, Note_on_c, 0, 61, 0
3, 115440, Note_on_c, 0, 59, 57
3, 115680, Note_on_c, 0, 52, 0
3, 115680, Note_on_c, 0, 52, 51
3, 115760, Control_c, 0, 64, 127
3, 116640, Note_on_c, 0, 52, 0
3, 116640, Note_on_c, 0, 59, 0
3, 116640, Control_c, 0, 64, 0
3, 116640, Note_on_c, 0, 57, 49
3, 117120, Note_on_c, 0, 57, 0
3, 117120, Note_on_c, 0, 50, 40
3, 117600, Note_on_c, 0, 50, 0
3, 117600, Note_on_c, 0, 38, 40
3, 118080, Note_on_c, 0, 38, 0
3, 118080, Note_on_c, 0, 40, 47
3, 118200, Control_c, 0, 64, 127
3, 118560, Note_on_c, 0, 40, 0
3, 118560, Note_on_c, 0, 45, 39
3, 118576, Control_c, 0, 64, 0
3, 118673, Control_c, 0, 64, 127
3, 119040, Note_on_c, 0, 45, 0
3, 119040, Note_on_c, 0, 52, 44
3, 119291, Control_c, 0, 64, 0
3, 119520, Note_on_c, 0, 52, 0
3, 119520, Note_on_c, 0, 57, 49
3, 119577, Control_c, 0, 64, 127
3, 120000, Note_on_c, 0, 57, 0
3, 120000, Note_on_c, 0, 50, 46
3, 120014, Control_c, 0, 64, 0
3, 120480, Note_on_c, 0, 50, 0
3, 120480, Note_on_c, 0, 38, 40
3, 120960, Note_on_c, 0, 38, 0
3, 120960, Note_on_c, 0, 40, 46
3, 121059, Control_c, 0, 64, 127
3, 121440, Note_on_c, 0, 40, 0
3, 121440, Note_on_c, 0, 45, 40
3, 121456, Control_c, 0, 64, 0
3, 121560, Control_c, 0, 64, 127
3, 121920, Note_on_c, 0, 45, 0
3, 121920, Note_on_c, 0, 52, 46
3, 122176, Control_c, 0, 64, 0
3, 122400, Note_on_c, 0, 52, 0
3, 122400, Note_on_c, 0, 57, 49
3, 122880, Note_on_c, 0, 57, 0
3, 122880, Note_on_c, 0, 50, 40
3, 123360, Note_on_c, 0, 50, 0
3, 123360, Note_on_c, 0, 38, 40
3, 123840, Note_on_c, 0, 38, 0
3, 123840, Note_on_c, 0, 40, 47
3, 124320, Note_on_c, 0, 40, 0
3, 124320, Note_on_c, 0, 45, 39
3, 124374, Control_c, 0, 64, 127
3, 124800, Note_on_c, 0, 45, 0
3, 124800, Note_on_c, 0, 52, 44
3, 125053, Control_c, 0, 64, 0
3, 125280, Note_on_c, 0, 52, 0
3, 125280, Note_on_c, 0, 57, 49
3, 125760, Note_on_c, 0, 57, 0
3, 125760, Note_on_c, 0, 50, 46
3, 126240, Note_on_c, 0, 50, 0
3, 126240, Note_on_c, 0, 38, 40
3, 126720, Note_on_c, 0, 38, 0
3, 126720, Note_on_c, 0, 40, 46
3, 127200, Note_on_c, 0, 40, 0
3, 127200, Note_on_c, 0, 45, 40
3, 127257, Control_c, 0, 64, 127
3, 127680, Note_on_c, 0, 45, 0
3, 127680, Note_on_c, 0, 57, 46
3, 128160, Note_on_c, 0, 57, 0
3, 128160, Note_on_c, 0, 54, 58
3, 128160, Note_on_c, 0, 61, 70
3, 128164, Control_c, 0, 64, 0
3, 128400, Note_on_c, 0, 61, 0
3, 128520, Note_on_c, 0, 61, 63
3, 128640, Note_on_c, 0, 61, 0
3, 128640, Note_on_c, 0, 62, 69
3, 128732, Control_c, 0, 64, 127
3, 129000, Note_on_c, 0, 62, 0
3, 129120, Note_on_c, 0, 59, 63
3, 129480, Note_on_c, 0, 59, 0
3, 129522, Control_c, 0, 64, 0
3, 129600, Note_on_c, 0, 54, 0
3, 129600, Note_on_c, 0, 54, 55
3, 129600, Note_on_c, 0, 61, 66
3, 129760, Note_on_c, 0, 61, 0
3, 129760, Note_on_c, 0, 59, 57
3, 129920, Note_on_c, 0, 59, 0
3, 129920, Note_on_c, 0, 57, 57
3, 130080, Note_on_c, 0, 57, 0
3, 130080, Note_on_c, 0, 62, 66
3, 130186, Control_c, 0, 64, 127
3, 130440, Note_on_c, 0, 62, 0
3, 130560, Note_on_c, 0, 59, 57
3, 130920, Note_on_c, 0, 59, 0
3, 131005, Control_c, 0, 64, 0
3, 131040, Note_on_c, 0, 54, 0
3, 131040, Note_on_c, 0, 54, 58
3, 131040, Note_on_c, 0, 61, 70
3, 131280, Note_on_c, 0, 61, 0
3, 131400, Note_on_c, 0, 61, 63
3, 131520, Note_on_c, 0, 61, 0
3, 131520, Note_on_c, 0, 62, 69
3, 131612, Control_c, 0, 64, 127
3, 131880, Note_on_c, 0, 62, 0
3, 132000, Note_on_c, 0, 59, 63
3, 132360, Note_on_c, 0, 59, 0
3, 132402, Control_c, 0, 64, 0
3, 132480, Note_on_c, 0, 54, 0
3, 132480, Note_on_c, 0, 54, 55
3, 132480, Note_on_c, 0, 61, 66
3, 132640, Note_on_c, 0, 61, 0
3, 132640, Note_on_c, 0, 59, 57
3, 132800, Note_on_c, 0, 59, 0
3, 132800, Note_on_c, 0, 57, 57
3, 132960, Note_on_c, 0, 57, 0
3, 132960, Note_on_c, 0, 54, 0
3, 132960, Note_on_c, 0, 42, 75
3, 132960, Note_on_c, 0, 54, 75
3, 133066, Control_c, 0, 64, 127
3, 133440, Note_on_c, 0, 54, 0
3, 133440, Note_on_c, 0, 42, 0
3, 133440, Note_on_c, 0, 42, 65
3, 133440, Note_on_c, 0, 54, 65
3, 133920, Note_on_c, 0, 54, 0
3, 133920, Note_on_c, 0, 42, 0
3, 133920, Note_on_c, 0, 54, 58
3, 133920, Note_on_c, 0, 61, 70
3, 133923, Control_c, 0, 64, 0
3, 134160, Note_on_c, 0, 61, 0
3, 134280, Note_on_c, 0, 61, 63
3, 134400, Note_on_c, 0, 61, 0
3, 134400, Note_on_c, 0, 62, 69
3, 134492, Control_c, 0, 64, 127
3, 134760, Note_on_c, 0, 62, 0
3, 134880, Note_on_c, 0, 59, 63
3, 135240, Note_on_c, 0, 59, 0
3, 135282, Control_c, 0, 64, 0
3, 135360, Note_on_c, 0, 54, 0
3, 135360, Note_on_c, 0, 54, 55
3, 135360, Note_on_c, 0, 61, 66
3, 135520, Note_on_c, 0, 61, 0
3, 135520, Note_on_c, 0, 59, 57
3, 135680, Note_on_c, 0, 59, 0
3, 135680, Note_on_c, 0, 57, 57
3, 135840, Note_on_c, 0, 57, 0
3, 135840, Note_on_c, 0, 62, 66
3, 135946, Control_c, 0, 64, 127
3, 136200, Note_on_c, 0, 62, 0
3, 136320, Note_on_c, 0, 59, 57
3, 136680, Note_on_c, 0, 59, 0
3, 136765, Control_c, 0, 64, 0
3, 136800, Note_on_c, 0, 61, 53
3, 137040, Note_on_c, 0, 61, 0
3, 137040, Note_on_c, 0, 59, 57
3, 137280, Note_on_c, 0, 54, 0
3, 137280, Note_on_c, 0, 52, 51
3, 138240, Note_on_c, 0, 59, 0
3, 138240, Note_on_c, 0, 61, 53
3, 138480, Note_on_c, 0, 61, 0
3, 138480, Note_on_c, 0, 59, 57
3, 138720, Note_on_c, 0, 52, 0
3, 138720, Note_on_c, 0, 52, 51
3, 138892, Control_c, 0, 64, 127
3, 139680, Note_on_c, 0, 52, 0
3, 139680, Note_on_c, 0, 59, 0
3, 139680, Note_on_c, 0, 57, 49
3, 139685, Control_c, 0, 64, 0
3, 140160, Note_on_c, 0, 57, 0
3, 140160, Note_on_c, 0, 50, 40
3, 140640, Note_on_c, 0, 50, 0
3, 140640, Note_on_c, 0, 38, 40
3, 141120, Note_on_c, 0, 38, 0
3, 141120, Note_on_c, 0, 40, 47
3, 141219, Control_c, 0, 64, 127
3, 141600, Note_on_c, 0, 40, 0
3, 141600, Note_on_c, 0, 45, 39
3, 141616, Control_c, 0, 64, 0
3, 141784, Control_c, 0, 64, 127
3, 142080, Note_on_c, 0, 45, 0
3, 142080, Note_on_c, 0, 52, 44
3, 142330, Control_c, 0, 64, 0
3, 142560, Note_on_c, 0, 52, 0
3, 142560, Note_on_c, 0, 57, 49
3, 143040, Note_on_c, 0, 57, 0
3, 143040, Note_on_c, 0, 50, 46
3, 143520, Note_on_c, 0, 50, 0
3, 143520, Note_on_c, 0, 38, 40
3, 144000, Note_on_c, 0, 38, 0
3, 144000, Note_on_c, 0, 40, 46
3, 144127, Control_c, 0, 64, 127
3, 144480, Note_on_c, 0, 40, 0
3, 144480, Note_on_c, 0, 45, 40
3, 144493, Control_c, 0, 64, 0
3, 144657, Control_c, 0, 64, 127
3, 144960, Note_on_c, 0, 45, 0
3, 144960, Note_on_c, 0, 52, 46
3, 145207, Control_c, 0, 64, 0
3, 145440, Note_on_c, 0, 52, 0
3, 145440, Note_on_c, 0, 57, 49
3, 145920, Note_on_c, 0, 57, 0
3, 145920, Note_on_c, 0, 50, 40
3, 146400, Note_on_c, 0, 50, 0
3, 146400, Note_on_c, 0, 38, 40
3, 146880, Note_on_c, 0, 38, 0
3, 146880, Note_on_c, 0, 40, 47
3, 147360, Note_on_c, 0, 40, 0
3, 147360, Note_on_c, 0, 45, 39
3, 147477, Control_c, 0, 64, 127
3, 147840, Note_on_c, 0, 45, 0
3, 147840, Note_on_c, 0, 52, 44
3, 148091, Control_c, 0, 64, 0
3, 148320, Note_on_c, 0, 52, 0
3, 148320, Note_on_c, 0, 57, 49
3, 148800, Note_on_c, 0, 57, 0
3, 148800, Note_on_c, 0, 50, 46
3, 149280, Note_on_c, 0, 50, 0
3, 149280, Note_on_c, 0, 38, 40
3, 149760, Note_on_c, 0, 38, 0
3, 149760, Note_on_c, 0, 40, 46
3, 150240, Note_on_c, 0, 40, 0
3, 150240, Note_on_c, 0, 33, 34
3, 150240, Note_on_c, 0, 45, 40
3, 150344, Control_c, 0, 64, 127
3, 150720, Note_on_c, 0, 45, 0
3, 150720, Note_on_c, 0, 33, 0
3, 150737, Control_c, 0, 64, 0
3, 151680, Note_on_c, 0, 65, 27
3, 151680, Note_on_c, 0, 62, 22
3, 151680, Note_on_c, 0, 57, 22
3, 151793, Control_c, 0, 64, 127
3, 152160, Note_on_c, 0, 57, 0
3, 152160, Note_on_c, 0, 62, 0
3, 152160, Note_on_c, 0, 65, 0
3, 152160, Note_on_c, 0, 65, 27
3, 152160, Note_on_c, 0, 62, 22
3, 152160, Note_on_c, 0, 57, 22
3, 152640, Note_on_c, 0, 57, 0
3, 152640, Note_on_c, 0, 62, 0
3, 152640, Note_on_c, 0, 65, 0
3, 152645, Control_c, 0, 64, 0
3, 153014, Control_c, 0, 64, 127
3, 153120, Note_on_c, 0, 65, 25
3, 153120, Note_on_c, 0, 60, 21
3, 153120, Note_on_c, 0, 57, 21
3, 153600, Note_on_c, 0, 57, 0
3, 153600, Note_on_c, 0, 60, 0
3, 153600, Note_on_c, 0, 65, 0
3, 153600, Note_on_c, 0, 64, 25
3, 153600, Note_on_c, 0, 60, 21
3, 153600, Note_on_c, 0, 57, 21
3, 153619, Control_c, 0, 64, 0
3, 154080, Note_on_c, 0, 57, 0
3, 154080, Note_on_c, 0, 60, 0
3, 154080, Note_on_c, 0, 64, 0
3, 154560, Note_on_c, 0, 62, 28
3, 154560, Note_on_c, 0, 52, 23
3, 154560, Note_on_c, 0, 56, 23
3, 155040, Note_on_c, 0, 56, 0
3, 155040, Note_on_c, 0, 52, 0
3, 155040, Note_on_c, 0, 62, 0
3, 155040, Note_on_c, 0, 62, 25
3, 155040, Note_on_c, 0, 56, 21
3, 155040, Note_on_c, 0, 52, 21
3, 155520, Note_on_c, 0, 52, 0
3, 155520, Note_on_c, 0, 56, 0
3, 155520, Note_on_c, 0, 62, 0
3, 156000, Note_on_c, 0, 45, 30
3, 156080, Control_c, 0, 64, 127
3, 156480, Note_on_c, 0, 45, 0
3, 156480, Note_on_c, 0, 60, 28
3, 156480, Note_on_c, 0, 52, 22
3, 156960, Note_on_c, 0, 52, 0
3, 156960, Note_on_c, 0, 60, 0
3, 156964, Control_c, 0, 64, 0
3, 157052, Control_c, 0, 64, 127
3, 157440, Note_on_c, 0, 52, 39
3, 157440, Note_on_c, 0, 60, 46
3, 157450, Control_c, 0, 64, 0
3, 157680, Note_on_c, 0, 60, 0
3, 157680, Note_on_c, 0, 52, 0
3, 157920, Note_on_c, 0, 45, 48
3, 158160, Note_on_c, 0, 45, 0
3, 158880, Note_on_c, 0, 52, 41
3, 158880, Note_on_c, 0, 59, 49
3, 158880, Note_on_c, 0, 55, 41
3, 159007, Control_c, 0, 64, 127
3, 159360, Note_on_c, 0, 55, 0
3, 159360, Note_on_c, 0, 59, 0
3, 159360, Note_on_c, 0, 52, 0
3, 159360, Note_on_c, 0, 47, 56
3, 159840, Note_on_c, 0, 47, 0
3, 159848, Control_c, 0, 64, 0
3, 160024, Control_c, 0, 64, 127
3, 160320, Note_on_c, 0, 47, 45
3, 160320, Note_on_c, 0, 55, 45
3, 160320, Note_on_c, 0, 59, 54
3, 160800, Note_on_c, 0, 59, 0
3, 160800, Note_on_c, 0, 55, 0
3, 160800, Note_on_c, 0, 47, 0
3, 160800, Note_on_c, 0, 47, 41
3, 160800, Note_on_c, 0, 54, 41
3, 160800, Note_on_c, 0, 59, 49
3, 160809, Control_c, 0, 64, 0
3, 160941, Control_c, 0, 64, 127
3, 161280, Note_on_c, 0, 59, 0
3, 161280, Note_on_c, 0, 54, 0
3, 161280, Note_on_c, 0, 47, 0
3, 161280, Note_on_c, 0, 52, 45
3, 161280, Note_on_c, 0, 55, 45
3, 161280, Note_on_c, 0, 59, 54
3, 161284, Control_c, 0, 64, 0
3, 161467, Control_c, 0, 64, 127
3, 161760, Note_on_c, 0, 59, 0
3, 161760, Note_on_c, 0, 55, 0
3, 161760, Note_on_c, 0, 52, 0
3, 161760, Note_on_c, 0, 40, 50
3, 162240, Note_on_c, 0, 40, 0
3, 162254, Control_c, 0, 64, 0
3, 163200, Note_on_c, 0, 65, 27
3, 163200, Note_on_c, 0, 62, 22
3, 163200, Note_on_c, 0, 57, 22
3, 163391, Control_c, 0, 64, 127
3, 163680, Note_on_c, 0, 57, 0
3, 163680, Note_on_c, 0, 62, 0
3, 163680, Note_on_c, 0, 65, 0
3, 163680, Note_on_c, 0, 65, 27
3, 163680, Note_on_c, 0, 62, 22
3, 163680, Note_on_c, 0, 57, 22
3, 164160, Note_on_c, 0, 57, 0
3, 164160, Note_on_c, 0, 62, 0
3, 164160, Note_on_c, 0, 65, 0
3, 164169, Control_c, 0, 64, 0
3, 164374, Control_c, 0, 64, 127
3, 164640, Note_on_c, 0, 65, 25
3, 164640, Note_on_c, 0, 60, 21
3, 164640, Note_on_c, 0, 57, 21
3, 165120, Note_on_c, 0, 57, 0
3, 165120, Note_on_c, 0, 60, 0
3, 165120, Note_on_c, 0, 65, 0
3, 165120, Note_on_c, 0, 64, 25
3, 165120, Note_on_c, 0, 60, 21
3, 165120, Note_on_c, 0, 57, 21
3, 165134, Control_c, 0, 64, 0
3, 165600, Note_on_c, 0, 57, 0
3, 165600, Note_on_c, 0, 60, 0
3, 165600, Note_on_c, 0, 64, 0
3, 166080, Note_on_c, 0, 62, 28
3, 166080, Note_on_c, 0, 52, 23
3, 166080, Note_on_c, 0, 56, 23
3, 166560, Note_on_c, 0, 56, 0
3, 166560, Note_on_c, 0, 52, 0
3, 166560, Note_on_c, 0, 62, 0
3, 166560, Note_on_c, 0, 62, 25
3, 166560, Note_on_c, 0, 56, 21
3, 166560, Note_on_c, 0, 52, 21
3, 167040, Note_on_c, 0, 52, 0
3, 167040, Note_on_c, 0, 56, 0
3, 167040, Note_on_c, 0, 62, 0
3, 167520, Note_on_c, 0, 53, 21
3, 167520, Note_on_c, 0, 57, 21
3, 167520, Note_on_c, 0, 62, 28
3, 167600, Control_c, 0, 64, 127
3, 168000, Note_on_c, 0, 62, 0
3, 168000, Note_on_c, 0, 57, 0
3, 168000, Note_on_c, 0, 53, 0
3, 168000, Note_on_c, 0, 57, 21
3, 168000, Note_on_c, 0, 60, 26
3, 168000, Note_on_c, 0, 53, 21
3, 168480, Note_on_c, 0, 53, 0
3, 168480, Note_on_c, 0, 60, 0
3, 168480, Note_on_c, 0, 57, 0
3, 168488, Control_c, 0, 64, 0
3, 168572, Control_c, 0, 64, 127
3, 168960, Note_on_c, 0, 60, 26
3, 168960, Note_on_c, 0, 53, 26
3, 168960, Note_on_c, 0, 63, 30
3, 168968, Control_c, 0, 64, 0
3, 169440, Note_on_c, 0, 63, 0
3, 169440, Note_on_c, 0, 53, 0
3, 169440, Note_on_c, 0, 60, 0
3, 169440, Note_on_c, 0, 53, 26
3, 169440, Note_on_c, 0, 60, 26
3, 169440, Note_on_c, 0, 63, 30
3, 169920, Note_on_c, 0, 63, 0
3, 169920, Note_on_c, 0, 60, 0
3, 169920, Note_on_c, 0, 53, 0
3, 169920, Note_on_c, 0, 58, 30
3, 169920, Note_on_c, 0, 62, 33
3, 170080, Control_c, 0, 64, 127
3, 170400, Note_on_c, 0, 62, 0
3, 170400, Note_on_c, 0, 65, 33
3, 170880, Note_on_c, 0, 65, 0
3, 170880, Note_on_c, 0, 58, 0
3, 170885, Control_c, 0, 64, 0
3, 171431, Control_c, 0, 64, 127
3, 171840, Note_on_c, 0, 52, 24
3, 171840, Note_on_c, 0, 59, 29
3, 171856, Control_c, 0, 64, 0
3, 171966, Control_c, 0, 64, 127
3, 172320, Note_on_c, 0, 59, 0
3, 172320, Note_on_c, 0, 52, 0
3, 172320, Note_on_c, 0, 52, 22
3, 172320, Note_on_c, 0, 59, 26
3, 172329, Control_c, 0, 64, 0
3, 172461, Control_c, 0, 64, 127
3, 172800, Note_on_c, 0, 59, 0
3, 172800, Note_on_c, 0, 52, 0
3, 172800, Control_c, 0, 64, 0
3, 172800, Note_on_c, 0, 45, 24
3, 172800, Note_on_c, 0, 52, 29
3, 172987, Control_c, 0, 64, 127
3, 173280, Note_on_c, 0, 52, 0
3, 173280, Note_on_c, 0, 45, 0
3, 173280, Note_on_c, 0, 33, 25
3, 173760, Note_on_c, 0, 33, 0
3, 173814, Control_c, 0, 64, 0
3, 173814, End_track
4, 0, Start_track
4, 0, Title_t, "Chopin: Mazurka Opus 7 No 2"
4, 0, End_track
5, 0, Start_track
5, 0, Title_t, "Copyright © 2003 by Bernd Krueger"
5, 0, End_track
6, 0, Start_track
6, 0, Title_t, "http://www.piano-midi.de"
6, 0, End_track
7, 0, Start_track
7, 0, Title_t, "Edition: 2014-02-11"
7, 0, End_track
8, 0, Start_track
8, 0, Title_t, "Spur 7"
8, 0, End_track
0, 0, End_of_file
