0, 0, Header, 1, 8, 480
1, 0, Start_track
1, 0, Title_t, "Prelude No. 8"
1, 0, Copyright_t, "Copyright © 1997 by Bernd Krueger http://www.piano-midi.de"
1, 0, Text_t, "Frederic Chopin"
1, 0, Text_t, "Molto agitato"
1, 0, Text_t, "Fertiggestellt am 6.5.97\012"
1, 0, Text_t, "Korrekturen am 27.8.98\012"
1, 0, Text_t, "Anpassungen an Digitalpiano am 18.12.98\012"
1, 0, Text_t, "Update am 11.4.99\012"
1, 0, Text_t, "Normierung: 23.12.2002\012"
1, 0, Text_t, "Update am 10.6.2010\012"
1, 0, Text_t, "Update am 20.2.2014\012"
1, 0, Text_t, "Dauer: 1:31 Minuten\012"
1, 0, SMPTE_offset, 96, 0, 3, 0, 0
1, 0, Time_signature, 4, 2, 24, 8
1, 0, Key_signature, 3, "major"
1, 0, Tempo, 666667
1, 80, Tempo, 662983
1, 140, Tempo, 659341
1, 220, Tempo, 655738
1, 280, Tempo, 652174
1, 360, Tempo, 648649
1, 420, Tempo, 645161
1, 480, Tempo, 641711
1, 560, Tempo, 638298
1, 620, Tempo, 634921
1, 700, Tempo, 631579
1, 760, Tempo, 628272
1, 840, Tempo, 625000
1, 900, Tempo, 621762
1, 960, Tempo, 615385
1, 1060, Tempo, 618557
1, 1160, Tempo, 621762
1, 1240, Tempo, 625000
1, 1340, Tempo, 628272
1, 1400, Tempo, 631579
1, 1480, Tempo, 634921
1, 1540, Tempo, 638298
1, 1600, Tempo, 641711
1, 1660, Tempo, 645161
1, 1720, Tempo, 648649
1, 1780, Tempo, 652174
1, 1840, Tempo, 655738
1, 1900, Tempo, 638298
1, 2040, Tempo, 634921
1, 2160, Tempo, 631579
1, 2280, Tempo, 628272
1, 2400, Tempo, 625000
1, 2520, Tempo, 621762
1, 2640, Tempo, 618557
1, 2760, Tempo, 615385
1, 2880, Tempo, 612245
1, 2920, Tempo, 609137
1, 3020, Tempo, 612245
1, 3100, Tempo, 615385
1, 3180, Tempo, 618557
1, 3260, Tempo, 621762
1, 3340, Tempo, 625000
1, 3420, Tempo, 628272
1, 3500, Tempo, 631579
1, 3580, Tempo, 634921
1, 3660, Tempo, 638298
1, 3740, Tempo, 641711
1, 3820, Tempo, 606061
1, 3840, Tempo, 611746
1, 3960, Tempo, 608643
1, 4080, Tempo, 605571
1, 4200, Tempo, 602531
1, 4320, Tempo, 599520
1, 4440, Tempo, 596540
1, 4560, Tempo, 593589
1, 4680, Tempo, 590667
1, 4800, Tempo, 587774
1, 4820, Tempo, 585366
1, 4880, Tempo, 588235
1, 4940, Tempo, 591133
1, 5000, Tempo, 594059
1, 5060, Tempo, 597015
1, 5120, Tempo, 600000
1, 5160, Tempo, 603015
1, 5220, Tempo, 606061
1, 5280, Tempo, 609137
1, 5340, Tempo, 612245
1, 5400, Tempo, 615385
1, 5440, Tempo, 618557
1, 5500, Tempo, 621762
1, 5560, Tempo, 625000
1, 5620, Tempo, 628272
1, 5680, Tempo, 631579
1, 5720, Tempo, 634921
1, 5740, Tempo, 618557
1, 5760, Tempo, 638298
1, 6000, Tempo, 641711
1, 6240, Tempo, 645161
1, 6480, Tempo, 648649
1, 6700, Tempo, 645161
1, 6720, Tempo, 645161
1, 6740, Tempo, 648649
1, 6760, Tempo, 652174
1, 6780, Tempo, 655738
1, 6800, Tempo, 659341
1, 6820, Tempo, 662983
1, 6840, Tempo, 666667
1, 6860, Tempo, 670391
1, 6880, Tempo, 674157
1, 6900, Tempo, 677966
1, 6920, Tempo, 681818
1, 6940, Tempo, 685714
1, 6960, Tempo, 689655
1, 6980, Tempo, 693642
1, 7000, Tempo, 697674
1, 7020, Tempo, 701754
1, 7040, Tempo, 705882
1, 7060, Tempo, 710059
1, 7080, Tempo, 714286
1, 7100, Tempo, 718563
1, 7120, Tempo, 722892
1, 7140, Tempo, 727273
1, 7160, Tempo, 731707
1, 7180, Tempo, 736196
1, 7200, Tempo, 740741
1, 7220, Tempo, 745342
1, 7240, Tempo, 750000
1, 7260, Tempo, 754717
1, 7280, Tempo, 759494
1, 7300, Tempo, 764331
1, 7320, Tempo, 769231
1, 7340, Tempo, 774194
1, 7360, Tempo, 779221
1, 7380, Tempo, 784314
1, 7400, Tempo, 789474
1, 7420, Tempo, 794702
1, 7440, Tempo, 800000
1, 7460, Tempo, 805369
1, 7480, Tempo, 810811
1, 7500, Tempo, 816327
1, 7520, Tempo, 821918
1, 7540, Tempo, 827586
1, 7560, Tempo, 833333
1, 7580, Tempo, 839161
1, 7600, Tempo, 845070
1, 7620, Tempo, 851064
1, 7640, Tempo, 857143
1, 7660, Tempo, 810811
1, 7680, Tempo, 591133
1, 7740, Tempo, 588235
1, 7800, Tempo, 585366
1, 7860, Tempo, 582524
1, 7920, Tempo, 579710
1, 7980, Tempo, 576923
1, 8020, Tempo, 574163
1, 8080, Tempo, 571429
1, 8140, Tempo, 568720
1, 8200, Tempo, 566038
1, 8260, Tempo, 563380
1, 8320, Tempo, 560748
1, 8360, Tempo, 558140
1, 8420, Tempo, 555556
1, 8480, Tempo, 552995
1, 8540, Tempo, 550459
1, 8600, Tempo, 547945
1, 8620, Tempo, 550459
1, 8660, Tempo, 552995
1, 8680, Tempo, 555556
1, 8720, Tempo, 558140
1, 8740, Tempo, 560748
1, 8760, Tempo, 563380
1, 8800, Tempo, 566038
1, 8820, Tempo, 568720
1, 8860, Tempo, 571429
1, 8880, Tempo, 574163
1, 8900, Tempo, 576923
1, 8940, Tempo, 579710
1, 8960, Tempo, 582524
1, 8980, Tempo, 585366
1, 9020, Tempo, 588235
1, 9040, Tempo, 591133
1, 9080, Tempo, 594059
1, 9100, Tempo, 597015
1, 9120, Tempo, 600000
1, 9160, Tempo, 603015
1, 9180, Tempo, 606061
1, 9220, Tempo, 609137
1, 9240, Tempo, 612245
1, 9260, Tempo, 615385
1, 9300, Tempo, 618557
1, 9320, Tempo, 621762
1, 9340, Tempo, 625000
1, 9380, Tempo, 628272
1, 9400, Tempo, 631579
1, 9440, Tempo, 634921
1, 9460, Tempo, 638298
1, 9480, Tempo, 641711
1, 9520, Tempo, 645161
1, 9540, Tempo, 648649
1, 9560, Tempo, 652174
1, 9600, Tempo, 552995
1, 9640, Tempo, 566038
1, 9660, Tempo, 566038
1, 9720, Tempo, 563380
1, 9780, Tempo, 560748
1, 9840, Tempo, 558140
1, 9900, Tempo, 555556
1, 9960, Tempo, 552995
1, 10020, Tempo, 550459
1, 10080, Tempo, 547945
1, 10140, Tempo, 545455
1, 10200, Tempo, 542986
1, 10260, Tempo, 540541
1, 10320, Tempo, 538117
1, 10380, Tempo, 535714
1, 10440, Tempo, 533333
1, 10500, Tempo, 530973
1, 10540, Tempo, 528634
1, 10560, Tempo, 526316
1, 10580, Tempo, 528634
1, 10600, Tempo, 530973
1, 10620, Tempo, 533333
1, 10640, Tempo, 535714
1, 10660, Tempo, 538117
1, 10680, Tempo, 542986
1, 10700, Tempo, 545455
1, 10720, Tempo, 547945
1, 10740, Tempo, 550459
1, 10760, Tempo, 552995
1, 10780, Tempo, 555556
1, 10800, Tempo, 560748
1, 10820, Tempo, 563380
1, 10840, Tempo, 566038
1, 10860, Tempo, 568720
1, 10880, Tempo, 571429
1, 10900, Tempo, 574163
1, 10920, Tempo, 579710
1, 10940, Tempo, 582524
1, 10960, Tempo, 585366
1, 10980, Tempo, 588235
1, 11000, Tempo, 591133
1, 11020, Tempo, 597015
1, 11040, Tempo, 600000
1, 11060, Tempo, 603015
1, 11080, Tempo, 606061
1, 11100, Tempo, 609137
1, 11120, Tempo, 612245
1, 11140, Tempo, 618557
1, 11160, Tempo, 621762
1, 11180, Tempo, 625000
1, 11200, Tempo, 628272
1, 11220, Tempo, 631579
1, 11240, Tempo, 634921
1, 11260, Tempo, 641711
1, 11280, Tempo, 645161
1, 11300, Tempo, 648649
1, 11320, Tempo, 652174
1, 11340, Tempo, 655738
1, 11360, Tempo, 659341
1, 11380, Tempo, 666667
1, 11400, Tempo, 670391
1, 11420, Tempo, 674157
1, 11440, Tempo, 677966
1, 11460, Tempo, 681818
1, 11480, Tempo, 689655
1, 11500, Tempo, 641711
1, 11520, Tempo, 585366
1, 11600, Tempo, 582524
1, 11680, Tempo, 579710
1, 11760, Tempo, 576923
1, 11840, Tempo, 574163
1, 11920, Tempo, 571429
1, 12000, Tempo, 568720
1, 12080, Tempo, 566038
1, 12160, Tempo, 563380
1, 12240, Tempo, 560748
1, 12320, Tempo, 558140
1, 12400, Tempo, 555556
1, 12460, Tempo, 552995
1, 12500, Tempo, 558140
1, 12600, Tempo, 560748
1, 12680, Tempo, 563380
1, 12760, Tempo, 566038
1, 12860, Tempo, 568720
1, 12940, Tempo, 571429
1, 13020, Tempo, 574163
1, 13100, Tempo, 576923
1, 13200, Tempo, 579710
1, 13280, Tempo, 582524
1, 13360, Tempo, 585366
1, 13440, Tempo, 588235
1, 13540, Tempo, 606061
1, 13640, Tempo, 609137
1, 13740, Tempo, 612245
1, 13840, Tempo, 615385
1, 13900, Tempo, 618557
1, 13960, Tempo, 621762
1, 14020, Tempo, 625000
1, 14080, Tempo, 628272
1, 14140, Tempo, 631579
1, 14180, Tempo, 634921
1, 14240, Tempo, 638298
1, 14300, Tempo, 641711
1, 14360, Tempo, 645161
1, 14400, Tempo, 648649
1, 14416, Tempo, 652174
1, 14456, Tempo, 659341
1, 14488, Tempo, 666667
1, 14520, Tempo, 674157
1, 14560, Tempo, 681818
1, 14632, Tempo, 689655
1, 14696, Tempo, 697674
1, 14792, Tempo, 705882
1, 14936, Tempo, 714286
1, 15016, Tempo, 722892
1, 15088, Tempo, 731707
1, 15112, Tempo, 740741
1, 15152, Tempo, 750000
1, 15192, Tempo, 759494
1, 15240, Tempo, 769231
1, 15280, Tempo, 779221
1, 15312, Tempo, 789474
1, 15360, Tempo, 489796
1, 15500, Tempo, 491803
1, 15640, Tempo, 493827
1, 15760, Tempo, 495868
1, 15900, Tempo, 497925
1, 16020, Tempo, 500000
1, 16160, Tempo, 502092
1, 16280, Tempo, 504202
1, 16420, Tempo, 506329
1, 16540, Tempo, 508475
1, 16680, Tempo, 510638
1, 16800, Tempo, 512821
1, 16820, Tempo, 563380
1, 17140, Tempo, 552995
1, 17220, Tempo, 555556
1, 17280, Tempo, 558140
1, 17288, Tempo, 600000
1, 17300, Tempo, 519481
1, 17380, Tempo, 521739
1, 17460, Tempo, 524017
1, 17540, Tempo, 526316
1, 17620, Tempo, 528634
1, 17700, Tempo, 530973
1, 17780, Tempo, 530973
1, 17840, Tempo, 533333
1, 17900, Tempo, 535714
1, 17960, Tempo, 538117
1, 18000, Tempo, 540541
1, 18060, Tempo, 542986
1, 18120, Tempo, 545455
1, 18160, Tempo, 547945
1, 18220, Tempo, 550459
1, 18280, Tempo, 552995
1, 18340, Tempo, 555556
1, 18380, Tempo, 558140
1, 18440, Tempo, 560748
1, 18500, Tempo, 563380
1, 18540, Tempo, 566038
1, 18600, Tempo, 568720
1, 18660, Tempo, 571429
1, 18700, Tempo, 574163
1, 18720, Tempo, 625000
1, 18740, Tempo, 701754
1, 19200, Tempo, 603015
1, 19360, Tempo, 600000
1, 19520, Tempo, 603015
1, 19680, Tempo, 606061
1, 19840, Tempo, 609137
1, 20000, Tempo, 612245
1, 20140, Tempo, 612245
1, 20200, Tempo, 615385
1, 20260, Tempo, 618557
1, 20320, Tempo, 621762
1, 20360, Tempo, 625000
1, 20420, Tempo, 628272
1, 20480, Tempo, 631579
1, 20540, Tempo, 634921
1, 20580, Tempo, 638298
1, 20640, Tempo, 641711
1, 20700, Tempo, 645161
1, 20740, Tempo, 648649
1, 20800, Tempo, 652174
1, 20860, Tempo, 655738
1, 20920, Tempo, 659341
1, 20960, Tempo, 662983
1, 21020, Tempo, 666667
1, 21080, Tempo, 670391
1, 21100, Tempo, 526316
1, 21120, Tempo, 533333
1, 21580, Tempo, 568720
1, 21600, Tempo, 568720
1, 22060, Tempo, 582524
1, 22080, Tempo, 566038
1, 22120, Tempo, 568720
1, 22140, Tempo, 571429
1, 22180, Tempo, 574163
1, 22200, Tempo, 576923
1, 22240, Tempo, 579710
1, 22260, Tempo, 582524
1, 22300, Tempo, 585366
1, 22320, Tempo, 588235
1, 22360, Tempo, 591133
1, 22380, Tempo, 594059
1, 22420, Tempo, 597015
1, 22440, Tempo, 600000
1, 22480, Tempo, 603015
1, 22500, Tempo, 606061
1, 22540, Tempo, 609137
1, 22560, Tempo, 612245
1, 22920, Tempo, 641711
1, 23040, Tempo, 576923
1, 23960, Tempo, 579710
1, 24120, Tempo, 582524
1, 24260, Tempo, 585366
1, 24400, Tempo, 588235
1, 24540, Tempo, 591133
1, 24680, Tempo, 594059
1, 24820, Tempo, 597015
1, 24960, Tempo, 597015
1, 25040, Tempo, 600000
1, 25100, Tempo, 603015
1, 25180, Tempo, 606061
1, 25240, Tempo, 609137
1, 25300, Tempo, 612245
1, 25380, Tempo, 615385
1, 25440, Tempo, 618557
1, 25500, Tempo, 621762
1, 25580, Tempo, 625000
1, 25640, Tempo, 628272
1, 25700, Tempo, 631579
1, 25780, Tempo, 634921
1, 25840, Tempo, 638298
1, 25900, Tempo, 641711
1, 25920, Tempo, 645161
1, 25940, Tempo, 648649
1, 25960, Tempo, 652174
1, 25980, Tempo, 655738
1, 26000, Tempo, 662983
1, 26020, Tempo, 666667
1, 26040, Tempo, 670391
1, 26060, Tempo, 674157
1, 26080, Tempo, 681818
1, 26100, Tempo, 685714
1, 26120, Tempo, 689655
1, 26140, Tempo, 693642
1, 26160, Tempo, 701754
1, 26180, Tempo, 705882
1, 26200, Tempo, 710059
1, 26220, Tempo, 714286
1, 26240, Tempo, 722892
1, 26260, Tempo, 727273
1, 26280, Tempo, 731707
1, 26300, Tempo, 736196
1, 26320, Tempo, 745342
1, 26340, Tempo, 750000
1, 26360, Tempo, 754717
1, 26380, Tempo, 759494
1, 26400, Tempo, 769231
1, 26860, Tempo, 563380
1, 26960, Tempo, 560748
1, 27060, Tempo, 558140
1, 27160, Tempo, 555556
1, 27260, Tempo, 552995
1, 27360, Tempo, 550459
1, 27460, Tempo, 547945
1, 27560, Tempo, 545455
1, 27660, Tempo, 542986
1, 27760, Tempo, 540541
1, 28020, Tempo, 538117
1, 28040, Tempo, 542986
1, 28060, Tempo, 545455
1, 28080, Tempo, 550459
1, 28100, Tempo, 555556
1, 28120, Tempo, 558140
1, 28140, Tempo, 563380
1, 28160, Tempo, 566038
1, 28180, Tempo, 571429
1, 28200, Tempo, 574163
1, 28220, Tempo, 579710
1, 28240, Tempo, 585366
1, 28260, Tempo, 588235
1, 28280, Tempo, 594059
1, 28300, Tempo, 597015
1, 28320, Tempo, 603015
1, 28340, Tempo, 606061
1, 28360, Tempo, 612245
1, 28380, Tempo, 618557
1, 28400, Tempo, 621762
1, 28420, Tempo, 628272
1, 28440, Tempo, 631579
1, 28460, Tempo, 638298
1, 28480, Tempo, 641711
1, 28500, Tempo, 648649
1, 28520, Tempo, 655738
1, 28540, Tempo, 659341
1, 28560, Tempo, 666667
1, 28580, Tempo, 670391
1, 28600, Tempo, 677966
1, 28620, Tempo, 681818
1, 28640, Tempo, 689655
1, 28660, Tempo, 697674
1, 28680, Tempo, 701754
1, 28700, Tempo, 710059
1, 28720, Tempo, 714286
1, 28740, Tempo, 722892
1, 28760, Tempo, 563380
1, 28920, Tempo, 560748
1, 29040, Tempo, 558140
1, 29160, Tempo, 555556
1, 29280, Tempo, 552995
1, 29440, Tempo, 550459
1, 29560, Tempo, 547945
1, 29680, Tempo, 545455
1, 29800, Tempo, 542986
1, 29920, Tempo, 540541
1, 29940, Tempo, 533333
1, 29960, Tempo, 538117
1, 29980, Tempo, 542986
1, 30000, Tempo, 545455
1, 30020, Tempo, 550459
1, 30040, Tempo, 555556
1, 30060, Tempo, 560748
1, 30080, Tempo, 563380
1, 30100, Tempo, 568720
1, 30120, Tempo, 574163
1, 30140, Tempo, 576923
1, 30160, Tempo, 582524
1, 30180, Tempo, 588235
1, 30200, Tempo, 594059
1, 30220, Tempo, 597015
1, 30240, Tempo, 603015
1, 30260, Tempo, 609137
1, 30280, Tempo, 615385
1, 30300, Tempo, 618557
1, 30320, Tempo, 625000
1, 30340, Tempo, 631579
1, 30360, Tempo, 638298
1, 30380, Tempo, 641711
1, 30400, Tempo, 648649
1, 30420, Tempo, 655738
1, 30440, Tempo, 659341
1, 30460, Tempo, 666667
1, 30480, Tempo, 674157
1, 30500, Tempo, 681818
1, 30520, Tempo, 685714
1, 30540, Tempo, 693642
1, 30560, Tempo, 701754
1, 30580, Tempo, 710059
1, 30600, Tempo, 714286
1, 30620, Tempo, 722892
1, 30640, Tempo, 731707
1, 30660, Tempo, 740741
1, 30720, Tempo, 600000
1, 30880, Tempo, 597015
1, 31020, Tempo, 594059
1, 31160, Tempo, 591133
1, 31300, Tempo, 588235
1, 31440, Tempo, 585366
1, 31600, Tempo, 582524
1, 31740, Tempo, 579710
1, 31880, Tempo, 576923
1, 32020, Tempo, 574163
1, 32140, Tempo, 571429
1, 32180, Tempo, 574163
1, 32200, Tempo, 576923
1, 32240, Tempo, 579710
1, 32260, Tempo, 582524
1, 32300, Tempo, 585366
1, 32320, Tempo, 588235
1, 32360, Tempo, 591133
1, 32380, Tempo, 594059
1, 32400, Tempo, 597015
1, 32440, Tempo, 600000
1, 32460, Tempo, 603015
1, 32500, Tempo, 606061
1, 32520, Tempo, 609137
1, 32560, Tempo, 612245
1, 32580, Tempo, 615385
1, 32620, Tempo, 618557
1, 32640, Tempo, 594059
1, 32720, Tempo, 591133
1, 32800, Tempo, 588235
1, 32880, Tempo, 585366
1, 32940, Tempo, 582524
1, 33020, Tempo, 579710
1, 33100, Tempo, 576923
1, 33160, Tempo, 574163
1, 33240, Tempo, 571429
1, 33320, Tempo, 568720
1, 33380, Tempo, 566038
1, 33460, Tempo, 563380
1, 33540, Tempo, 560748
1, 33600, Tempo, 555556
1, 33620, Tempo, 560748
1, 33640, Tempo, 566038
1, 33660, Tempo, 571429
1, 33680, Tempo, 576923
1, 33700, Tempo, 585366
1, 33720, Tempo, 591133
1, 33740, Tempo, 597015
1, 33760, Tempo, 603015
1, 33780, Tempo, 609137
1, 33800, Tempo, 618557
1, 33820, Tempo, 625000
1, 33840, Tempo, 631579
1, 33860, Tempo, 638298
1, 33880, Tempo, 648649
1, 33900, Tempo, 655738
1, 33920, Tempo, 662983
1, 33940, Tempo, 670391
1, 33960, Tempo, 677966
1, 33980, Tempo, 689655
1, 34000, Tempo, 697674
1, 34020, Tempo, 705882
1, 34040, Tempo, 714286
1, 34080, Tempo, 789474
1, 34480, Tempo, 745342
1, 34520, Tempo, 740741
1, 34560, Tempo, 697674
1, 34620, Tempo, 693642
1, 34660, Tempo, 689655
1, 34720, Tempo, 685714
1, 34760, Tempo, 681818
1, 34800, Tempo, 677966
1, 34860, Tempo, 674157
1, 34900, Tempo, 670391
1, 34940, Tempo, 666667
1, 35000, Tempo, 662983
1, 35040, Tempo, 659341
1, 35080, Tempo, 655738
1, 35140, Tempo, 652174
1, 35180, Tempo, 648649
1, 35220, Tempo, 645161
1, 35280, Tempo, 641711
1, 35320, Tempo, 638298
1, 35360, Tempo, 634921
1, 35420, Tempo, 631579
1, 35460, Tempo, 628272
1, 35500, Tempo, 621762
1, 35620, Tempo, 625000
1, 35740, Tempo, 628272
1, 35860, Tempo, 631579
1, 35980, Tempo, 634921
1, 36100, Tempo, 638298
1, 36220, Tempo, 641711
1, 36340, Tempo, 645161
1, 36460, Tempo, 585366
1, 36520, Tempo, 582524
1, 36580, Tempo, 579710
1, 36620, Tempo, 576923
1, 36680, Tempo, 574163
1, 36720, Tempo, 571429
1, 36780, Tempo, 568720
1, 36820, Tempo, 566038
1, 36880, Tempo, 563380
1, 36920, Tempo, 560748
1, 36980, Tempo, 558140
1, 37020, Tempo, 555556
1, 37080, Tempo, 552995
1, 37120, Tempo, 550459
1, 37180, Tempo, 547945
1, 37220, Tempo, 545455
1, 37280, Tempo, 542986
1, 37320, Tempo, 540541
1, 37380, Tempo, 538117
1, 37420, Tempo, 535714
1, 37500, Tempo, 538117
1, 37580, Tempo, 540541
1, 37640, Tempo, 542986
1, 37720, Tempo, 545455
1, 37800, Tempo, 547945
1, 37860, Tempo, 550459
1, 37940, Tempo, 552995
1, 38000, Tempo, 555556
1, 38080, Tempo, 558140
1, 38160, Tempo, 560748
1, 38220, Tempo, 563380
1, 38300, Tempo, 566038
1, 38360, Tempo, 568720
1, 39360, Tempo, 566038
1, 39420, Tempo, 568720
1, 39480, Tempo, 571429
1, 39520, Tempo, 574163
1, 39580, Tempo, 576923
1, 39620, Tempo, 579710
1, 39680, Tempo, 582524
1, 39720, Tempo, 585366
1, 39780, Tempo, 588235
1, 39820, Tempo, 591133
1, 39840, Tempo, 612245
1, 39864, Tempo, 618557
1, 39936, Tempo, 631579
1, 39968, Tempo, 652174
1, 40016, Tempo, 666667
1, 40024, Tempo, 674157
1, 40072, Tempo, 689655
1, 40120, Tempo, 697674
1, 40160, Tempo, 705882
1, 40176, Tempo, 714286
1, 40232, Tempo, 722892
1, 40256, Tempo, 731707
1, 40296, Tempo, 740741
1, 40304, Tempo, 750000
1, 40320, Tempo, 600000
1, 41240, Tempo, 600000
1, 41280, Tempo, 603015
1, 41320, Tempo, 606061
1, 41360, Tempo, 609137
1, 41400, Tempo, 612245
1, 41440, Tempo, 615385
1, 41480, Tempo, 618557
1, 41520, Tempo, 621762
1, 41560, Tempo, 625000
1, 41600, Tempo, 628272
1, 41640, Tempo, 631579
1, 41680, Tempo, 634921
1, 41720, Tempo, 638298
1, 41740, Tempo, 641711
1, 41832, Tempo, 681818
1, 41896, Tempo, 689655
1, 41912, Tempo, 697674
1, 41952, Tempo, 705882
1, 42024, Tempo, 714286
1, 42064, Tempo, 722892
1, 42144, Tempo, 731707
1, 42240, Tempo, 634921
1, 43200, Tempo, 582524
1, 44160, Tempo, 582524
1, 44280, Tempo, 585366
1, 44400, Tempo, 588235
1, 44500, Tempo, 591133
1, 44620, Tempo, 594059
1, 44720, Tempo, 597015
1, 44840, Tempo, 600000
1, 44940, Tempo, 603015
1, 45060, Tempo, 606061
1, 45160, Tempo, 609137
1, 45280, Tempo, 612245
1, 45380, Tempo, 615385
1, 45500, Tempo, 618557
1, 45600, Tempo, 621762
1, 48940, Tempo, 618557
1, 48960, Tempo, 621762
1, 48980, Tempo, 625000
1, 49000, Tempo, 631579
1, 49020, Tempo, 634921
1, 49040, Tempo, 641711
1, 49060, Tempo, 645161
1, 49080, Tempo, 648649
1, 49100, Tempo, 655738
1, 49120, Tempo, 659341
1, 49140, Tempo, 666667
1, 49160, Tempo, 670391
1, 49180, Tempo, 677966
1, 49200, Tempo, 681818
1, 49220, Tempo, 685714
1, 49240, Tempo, 693642
1, 49260, Tempo, 697674
1, 49280, Tempo, 705882
1, 49300, Tempo, 710059
1, 49320, Tempo, 714286
1, 49340, Tempo, 722892
1, 49360, Tempo, 727273
1, 49380, Tempo, 736196
1, 49400, Tempo, 740741
1, 49720, Tempo, 1090909
1, 49920, Tempo, 845070
1, 49980, Tempo, 827586
1, 50000, Tempo, 821918
1, 50040, Tempo, 816327
1, 50060, Tempo, 810811
1, 50080, Tempo, 805369
1, 50120, Tempo, 800000
1, 50140, Tempo, 794702
1, 50160, Tempo, 789474
1, 50200, Tempo, 784314
1, 50220, Tempo, 779221
1, 50240, Tempo, 774194
1, 50280, Tempo, 769231
1, 50300, Tempo, 764331
1, 50320, Tempo, 759494
1, 50360, Tempo, 754717
1, 50380, Tempo, 750000
1, 50400, Tempo, 745342
1, 50440, Tempo, 740741
1, 50460, Tempo, 736196
1, 50480, Tempo, 731707
1, 50520, Tempo, 727273
1, 50540, Tempo, 722892
1, 50560, Tempo, 718563
1, 50600, Tempo, 714286
1, 50620, Tempo, 710059
1, 50640, Tempo, 705882
1, 50680, Tempo, 701754
1, 50700, Tempo, 697674
1, 50720, Tempo, 693642
1, 50760, Tempo, 689655
1, 50780, Tempo, 685714
1, 50800, Tempo, 681818
1, 50840, Tempo, 677966
1, 50860, Tempo, 674157
1, 50880, Tempo, 670391
1, 50900, Tempo, 666667
1, 51340, Tempo, 662983
1, 51360, Tempo, 662983
1, 51440, Tempo, 666667
1, 51520, Tempo, 670391
1, 51600, Tempo, 674157
1, 51680, Tempo, 677966
1, 51760, Tempo, 681818
1, 51840, Tempo, 685714
1, 51860, Tempo, 689655
1, 51920, Tempo, 685714
1, 51980, Tempo, 681818
1, 52020, Tempo, 677966
1, 52080, Tempo, 674157
1, 52120, Tempo, 670391
1, 52180, Tempo, 666667
1, 52240, Tempo, 662983
1, 52280, Tempo, 659341
1, 52340, Tempo, 655738
1, 52380, Tempo, 652174
1, 52440, Tempo, 648649
1, 52500, Tempo, 645161
1, 52540, Tempo, 641711
1, 52600, Tempo, 638298
1, 52640, Tempo, 634921
1, 52700, Tempo, 631579
1, 52760, Tempo, 628272
1, 52800, Tempo, 625000
1, 52860, Tempo, 621762
1, 52900, Tempo, 618557
1, 52952, Tempo, 645161
1, 52992, Tempo, 652174
1, 53016, Tempo, 659341
1, 53048, Tempo, 674157
1, 53072, Tempo, 681818
1, 53080, Tempo, 689655
1, 53096, Tempo, 697674
1, 53112, Tempo, 705882
1, 53128, Tempo, 714286
1, 53136, Tempo, 722892
1, 53168, Tempo, 731707
1, 53184, Tempo, 750000
1, 53200, Tempo, 759494
1, 53224, Tempo, 769231
1, 53264, Tempo, 800000
1, 53272, Tempo, 810811
1, 53760, Tempo, 631579
1, 56872, Tempo, 638298
1, 56920, Tempo, 645161
1, 56936, Tempo, 652174
1, 56968, Tempo, 659341
1, 57008, Tempo, 674157
1, 57032, Tempo, 681818
1, 57048, Tempo, 689655
1, 57056, Tempo, 697674
1, 57112, Tempo, 705882
1, 57120, Tempo, 754717
1, 57600, Tempo, 634921
1, 59528, Tempo, 638298
1, 60024, Tempo, 645161
1, 60064, Tempo, 652174
1, 60096, Tempo, 659341
1, 60760, Tempo, 666667
1, 60824, Tempo, 674157
1, 60840, Tempo, 681818
1, 60848, Tempo, 689655
1, 60872, Tempo, 697674
1, 60912, Tempo, 705882
1, 60968, Tempo, 714286
1, 61184, Tempo, 722892
1, 61432, Tempo, 731707
1, 62400, Tempo, 740741
1, 62480, Tempo, 750000
1, 62512, Tempo, 759494
1, 62552, Tempo, 779221
1, 62584, Tempo, 800000
1, 62600, Tempo, 810811
1, 62648, Tempo, 833333
1, 62688, Tempo, 869565
1, 62720, Tempo, 895522
1, 62736, Tempo, 909091
1, 62752, Tempo, 923077
1, 62776, Tempo, 937500
1, 62792, Tempo, 952381
1, 62808, Tempo, 967742
1, 62832, Tempo, 1000000
1, 62848, Tempo, 1016949
1, 62880, Tempo, 1263158
1, 63360, Tempo, 1445783
1, 63600, Tempo, 1224490
1, 63840, Tempo, 1395349
1, 63840, End_track
2, 0, Start_track
2, 0, Title_t, "Piano right"
2, 0, Program_c, 0, 0
2, 0, Control_c, 0, 7, 100
2, 0, Control_c, 0, 10, 64
2, 0, Control_c, 0, 91, 127
2, 0, Text_t, "bdca426d104a26ac9dcb070447587523"
2, 0, Control_c, 0, 91, 127
2, 60, Note_on_c, 0, 73, 53
2, 120, Note_on_c, 0, 73, 0
2, 120, Note_on_c, 0, 68, 61
2, 180, Note_on_c, 0, 68, 0
2, 180, Note_on_c, 0, 71, 51
2, 240, Note_on_c, 0, 71, 0
2, 240, Note_on_c, 0, 69, 55
2, 300, Note_on_c, 0, 69, 0
2, 300, Note_on_c, 0, 66, 46
2, 360, Note_on_c, 0, 66, 0
2, 420, Note_on_c, 0, 74, 48
2, 480, Note_on_c, 0, 74, 0
2, 540, Note_on_c, 0, 73, 50
2, 600, Note_on_c, 0, 73, 0
2, 600, Note_on_c, 0, 68, 63
2, 660, Note_on_c, 0, 68, 0
2, 660, Note_on_c, 0, 71, 53
2, 720, Note_on_c, 0, 71, 0
2, 720, Note_on_c, 0, 69, 57
2, 780, Note_on_c, 0, 69, 0
2, 780, Note_on_c, 0, 68, 44
2, 840, Note_on_c, 0, 68, 0
2, 900, Note_on_c, 0, 78, 53
2, 960, Note_on_c, 0, 78, 0
2, 1020, Note_on_c, 0, 78, 53
2, 1080, Note_on_c, 0, 78, 0
2, 1080, Note_on_c, 0, 70, 64
2, 1140, Note_on_c, 0, 70, 0
2, 1140, Note_on_c, 0, 73, 52
2, 1200, Note_on_c, 0, 73, 0
2, 1200, Note_on_c, 0, 71, 58
2, 1260, Note_on_c, 0, 71, 0
2, 1260, Note_on_c, 0, 68, 46
2, 1320, Note_on_c, 0, 68, 0
2, 1380, Note_on_c, 0, 77, 50
2, 1440, Note_on_c, 0, 77, 0
2, 1500, Note_on_c, 0, 81, 45
2, 1560, Note_on_c, 0, 81, 0
2, 1560, Note_on_c, 0, 72, 60
2, 1620, Note_on_c, 0, 72, 0
2, 1620, Note_on_c, 0, 74, 45
2, 1680, Note_on_c, 0, 74, 0
2, 1680, Note_on_c, 0, 73, 52
2, 1740, Note_on_c, 0, 73, 0
2, 1740, Note_on_c, 0, 71, 44
2, 1800, Note_on_c, 0, 71, 0
2, 1860, Note_on_c, 0, 80, 48
2, 1920, Note_on_c, 0, 80, 0
2, 1980, Note_on_c, 0, 73, 56
2, 2040, Note_on_c, 0, 73, 0
2, 2040, Note_on_c, 0, 68, 65
2, 2100, Note_on_c, 0, 68, 0
2, 2100, Note_on_c, 0, 71, 44
2, 2160, Note_on_c, 0, 71, 0
2, 2160, Note_on_c, 0, 69, 56
2, 2220, Note_on_c, 0, 69, 0
2, 2220, Note_on_c, 0, 66, 45
2, 2280, Note_on_c, 0, 66, 0
2, 2340, Note_on_c, 0, 74, 48
2, 2400, Note_on_c, 0, 74, 0
2, 2460, Note_on_c, 0, 73, 53
2, 2520, Note_on_c, 0, 73, 0
2, 2520, Note_on_c, 0, 68, 65
2, 2580, Note_on_c, 0, 68, 0
2, 2580, Note_on_c, 0, 71, 52
2, 2640, Note_on_c, 0, 71, 0
2, 2640, Note_on_c, 0, 69, 59
2, 2700, Note_on_c, 0, 69, 0
2, 2700, Note_on_c, 0, 68, 52
2, 2760, Note_on_c, 0, 68, 0
2, 2820, Note_on_c, 0, 78, 52
2, 2880, Note_on_c, 0, 78, 0
2, 2940, Note_on_c, 0, 78, 60
2, 3000, Note_on_c, 0, 78, 0
2, 3000, Note_on_c, 0, 70, 69
2, 3060, Note_on_c, 0, 70, 0
2, 3060, Note_on_c, 0, 73, 48
2, 3120, Note_on_c, 0, 73, 0
2, 3120, Note_on_c, 0, 71, 62
2, 3180, Note_on_c, 0, 71, 0
2, 3180, Note_on_c, 0, 68, 46
2, 3240, Note_on_c, 0, 68, 0
2, 3300, Note_on_c, 0, 77, 55
2, 3360, Note_on_c, 0, 77, 0
2, 3420, Note_on_c, 0, 81, 55
2, 3480, Note_on_c, 0, 81, 0
2, 3480, Note_on_c, 0, 72, 65
2, 3540, Note_on_c, 0, 72, 0
2, 3540, Note_on_c, 0, 74, 53
2, 3600, Note_on_c, 0, 74, 0
2, 3600, Note_on_c, 0, 73, 60
2, 3660, Note_on_c, 0, 73, 0
2, 3660, Note_on_c, 0, 71, 46
2, 3720, Note_on_c, 0, 71, 0
2, 3780, Note_on_c, 0, 80, 52
2, 3840, Note_on_c, 0, 80, 0
2, 3900, Note_on_c, 0, 85, 55
2, 3960, Note_on_c, 0, 85, 0
2, 3960, Note_on_c, 0, 80, 63
2, 4020, Note_on_c, 0, 80, 0
2, 4020, Note_on_c, 0, 83, 53
2, 4080, Note_on_c, 0, 83, 0
2, 4080, Note_on_c, 0, 81, 62
2, 4140, Note_on_c, 0, 81, 0
2, 4140, Note_on_c, 0, 78, 53
2, 4200, Note_on_c, 0, 78, 0
2, 4260, Note_on_c, 0, 87, 57
2, 4320, Note_on_c, 0, 87, 0
2, 4380, Note_on_c, 0, 85, 51
2, 4440, Note_on_c, 0, 85, 0
2, 4440, Note_on_c, 0, 77, 60
2, 4500, Note_on_c, 0, 77, 0
2, 4500, Note_on_c, 0, 80, 52
2, 4560, Note_on_c, 0, 80, 0
2, 4560, Note_on_c, 0, 78, 59
2, 4620, Note_on_c, 0, 78, 0
2, 4620, Note_on_c, 0, 74, 48
2, 4680, Note_on_c, 0, 74, 0
2, 4740, Note_on_c, 0, 84, 55
2, 4800, Note_on_c, 0, 84, 0
2, 4860, Note_on_c, 0, 83, 46
2, 4920, Note_on_c, 0, 83, 0
2, 4920, Note_on_c, 0, 78, 60
2, 4980, Note_on_c, 0, 78, 0
2, 4980, Note_on_c, 0, 81, 47
2, 5040, Note_on_c, 0, 81, 0
2, 5040, Note_on_c, 0, 79, 56
2, 5100, Note_on_c, 0, 79, 0
2, 5100, Note_on_c, 0, 76, 47
2, 5160, Note_on_c, 0, 76, 0
2, 5220, Note_on_c, 0, 85, 55
2, 5280, Note_on_c, 0, 85, 0
2, 5340, Note_on_c, 0, 83, 45
2, 5400, Note_on_c, 0, 83, 0
2, 5400, Note_on_c, 0, 75, 51
2, 5460, Note_on_c, 0, 75, 0
2, 5460, Note_on_c, 0, 78, 45
2, 5520, Note_on_c, 0, 78, 0
2, 5520, Note_on_c, 0, 76, 52
2, 5580, Note_on_c, 0, 76, 0
2, 5580, Note_on_c, 0, 73, 47
2, 5640, Note_on_c, 0, 73, 0
2, 5700, Note_on_c, 0, 82, 50
2, 5760, Note_on_c, 0, 82, 0
2, 5820, Note_on_c, 0, 81, 51
2, 5880, Note_on_c, 0, 81, 0
2, 5880, Note_on_c, 0, 74, 60
2, 5940, Note_on_c, 0, 74, 0
2, 5940, Note_on_c, 0, 77, 44
2, 6000, Note_on_c, 0, 77, 0
2, 6000, Note_on_c, 0, 75, 51
2, 6060, Note_on_c, 0, 75, 0
2, 6060, Note_on_c, 0, 72, 44
2, 6120, Note_on_c, 0, 72, 0
2, 6180, Note_on_c, 0, 83, 48
2, 6240, Note_on_c, 0, 83, 0
2, 6300, Note_on_c, 0, 81, 45
2, 6360, Note_on_c, 0, 81, 0
2, 6360, Note_on_c, 0, 73, 50
2, 6420, Note_on_c, 0, 73, 0
2, 6420, Note_on_c, 0, 76, 42
2, 6480, Note_on_c, 0, 76, 0
2, 6480, Note_on_c, 0, 74, 48
2, 6540, Note_on_c, 0, 74, 0
2, 6540, Note_on_c, 0, 71, 42
2, 6600, Note_on_c, 0, 71, 0
2, 6660, Note_on_c, 0, 80, 47
2, 6720, Note_on_c, 0, 80, 0
2, 6780, Note_on_c, 0, 78, 42
2, 6840, Note_on_c, 0, 78, 0
2, 6840, Note_on_c, 0, 70, 48
2, 6900, Note_on_c, 0, 70, 0
2, 6900, Note_on_c, 0, 73, 42
2, 6960, Note_on_c, 0, 73, 0
2, 6960, Note_on_c, 0, 71, 47
2, 7020, Note_on_c, 0, 71, 0
2, 7020, Note_on_c, 0, 68, 38
2, 7080, Note_on_c, 0, 68, 0
2, 7140, Note_on_c, 0, 77, 45
2, 7200, Note_on_c, 0, 77, 0
2, 7260, Note_on_c, 0, 74, 37
2, 7320, Note_on_c, 0, 74, 0
2, 7320, Note_on_c, 0, 67, 47
2, 7380, Note_on_c, 0, 67, 0
2, 7380, Note_on_c, 0, 69, 37
2, 7440, Note_on_c, 0, 69, 0
2, 7440, Note_on_c, 0, 68, 46
2, 7500, Note_on_c, 0, 68, 0
2, 7500, Note_on_c, 0, 65, 36
2, 7560, Note_on_c, 0, 65, 0
2, 7620, Note_on_c, 0, 73, 42
2, 7680, Note_on_c, 0, 73, 0
2, 7740, Note_on_c, 0, 73, 54
2, 7800, Note_on_c, 0, 73, 0
2, 7800, Note_on_c, 0, 68, 62
2, 7860, Note_on_c, 0, 68, 0
2, 7860, Note_on_c, 0, 71, 46
2, 7920, Note_on_c, 0, 71, 0
2, 7920, Note_on_c, 0, 69, 53
2, 7980, Note_on_c, 0, 69, 0
2, 7980, Note_on_c, 0, 66, 37
2, 8040, Note_on_c, 0, 66, 0
2, 8100, Note_on_c, 0, 74, 40
2, 8160, Note_on_c, 0, 74, 0
2, 8220, Note_on_c, 0, 73, 46
2, 8280, Note_on_c, 0, 73, 0
2, 8280, Note_on_c, 0, 68, 57
2, 8340, Note_on_c, 0, 68, 0
2, 8340, Note_on_c, 0, 71, 38
2, 8400, Note_on_c, 0, 71, 0
2, 8400, Note_on_c, 0, 69, 47
2, 8460, Note_on_c, 0, 69, 0
2, 8460, Note_on_c, 0, 68, 38
2, 8520, Note_on_c, 0, 68, 0
2, 8580, Note_on_c, 0, 78, 46
2, 8640, Note_on_c, 0, 78, 0
2, 8700, Note_on_c, 0, 78, 55
2, 8760, Note_on_c, 0, 78, 0
2, 8760, Note_on_c, 0, 70, 64
2, 8820, Note_on_c, 0, 70, 0
2, 8820, Note_on_c, 0, 73, 44
2, 8880, Note_on_c, 0, 73, 0
2, 8880, Note_on_c, 0, 71, 51
2, 8940, Note_on_c, 0, 71, 0
2, 8940, Note_on_c, 0, 68, 42
2, 9000, Note_on_c, 0, 68, 0
2, 9060, Note_on_c, 0, 77, 48
2, 9120, Note_on_c, 0, 77, 0
2, 9180, Note_on_c, 0, 81, 49
2, 9240, Note_on_c, 0, 81, 0
2, 9240, Note_on_c, 0, 72, 56
2, 9300, Note_on_c, 0, 72, 0
2, 9300, Note_on_c, 0, 74, 44
2, 9360, Note_on_c, 0, 74, 0
2, 9360, Note_on_c, 0, 73, 48
2, 9420, Note_on_c, 0, 73, 0
2, 9420, Note_on_c, 0, 71, 38
2, 9480, Note_on_c, 0, 71, 0
2, 9540, Note_on_c, 0, 80, 45
2, 9600, Note_on_c, 0, 80, 0
2, 9660, Note_on_c, 0, 73, 52
2, 9720, Note_on_c, 0, 73, 0
2, 9720, Note_on_c, 0, 68, 59
2, 9780, Note_on_c, 0, 68, 0
2, 9780, Note_on_c, 0, 71, 37
2, 9840, Note_on_c, 0, 71, 0
2, 9840, Note_on_c, 0, 69, 53
2, 9900, Note_on_c, 0, 69, 0
2, 9900, Note_on_c, 0, 66, 40
2, 9960, Note_on_c, 0, 66, 0
2, 10020, Note_on_c, 0, 74, 45
2, 10080, Note_on_c, 0, 74, 0
2, 10140, Note_on_c, 0, 73, 42
2, 10200, Note_on_c, 0, 73, 0
2, 10200, Note_on_c, 0, 68, 48
2, 10260, Note_on_c, 0, 68, 0
2, 10260, Note_on_c, 0, 71, 42
2, 10320, Note_on_c, 0, 71, 0
2, 10320, Note_on_c, 0, 69, 48
2, 10380, Note_on_c, 0, 69, 0
2, 10380, Note_on_c, 0, 68, 42
2, 10440, Note_on_c, 0, 68, 0
2, 10500, Note_on_c, 0, 81, 48
2, 10560, Note_on_c, 0, 81, 0
2, 10620, Note_on_c, 0, 81, 50
2, 10680, Note_on_c, 0, 81, 0
2, 10680, Note_on_c, 0, 73, 59
2, 10740, Note_on_c, 0, 73, 0
2, 10740, Note_on_c, 0, 76, 46
2, 10800, Note_on_c, 0, 76, 0
2, 10800, Note_on_c, 0, 74, 51
2, 10860, Note_on_c, 0, 74, 0
2, 10860, Note_on_c, 0, 71, 42
2, 10920, Note_on_c, 0, 71, 0
2, 10980, Note_on_c, 0, 80, 48
2, 11040, Note_on_c, 0, 80, 0
2, 11100, Note_on_c, 0, 85, 46
2, 11160, Note_on_c, 0, 85, 0
2, 11160, Note_on_c, 0, 75, 55
2, 11220, Note_on_c, 0, 75, 0
2, 11220, Note_on_c, 0, 78, 47
2, 11280, Note_on_c, 0, 78, 0
2, 11280, Note_on_c, 0, 76, 55
2, 11340, Note_on_c, 0, 76, 0
2, 11340, Note_on_c, 0, 74, 47
2, 11400, Note_on_c, 0, 74, 0
2, 11460, Note_on_c, 0, 83, 51
2, 11520, Note_on_c, 0, 83, 0
2, 11580, Note_on_c, 0, 88, 56
2, 11640, Note_on_c, 0, 88, 0
2, 11640, Note_on_c, 0, 83, 62
2, 11700, Note_on_c, 0, 83, 0
2, 11700, Note_on_c, 0, 86, 47
2, 11760, Note_on_c, 0, 86, 0
2, 11760, Note_on_c, 0, 84, 55
2, 11820, Note_on_c, 0, 84, 0
2, 11820, Note_on_c, 0, 81, 47
2, 11880, Note_on_c, 0, 81, 0
2, 11940, Note_on_c, 0, 90, 51
2, 12000, Note_on_c, 0, 90, 0
2, 12060, Note_on_c, 0, 88, 51
2, 12120, Note_on_c, 0, 88, 0
2, 12120, Note_on_c, 0, 80, 57
2, 12180, Note_on_c, 0, 80, 0
2, 12180, Note_on_c, 0, 83, 44
2, 12240, Note_on_c, 0, 83, 0
2, 12240, Note_on_c, 0, 81, 52
2, 12300, Note_on_c, 0, 81, 0
2, 12300, Note_on_c, 0, 78, 46
2, 12360, Note_on_c, 0, 78, 0
2, 12420, Note_on_c, 0, 87, 50
2, 12480, Note_on_c, 0, 87, 0
2, 12540, Note_on_c, 0, 86, 44
2, 12600, Note_on_c, 0, 86, 0
2, 12600, Note_on_c, 0, 79, 53
2, 12660, Note_on_c, 0, 79, 0
2, 12660, Note_on_c, 0, 82, 48
2, 12720, Note_on_c, 0, 82, 0
2, 12720, Note_on_c, 0, 80, 50
2, 12780, Note_on_c, 0, 80, 0
2, 12780, Note_on_c, 0, 77, 47
2, 12840, Note_on_c, 0, 77, 0
2, 12900, Note_on_c, 0, 88, 47
2, 12960, Note_on_c, 0, 88, 0
2, 13020, Note_on_c, 0, 86, 42
2, 13080, Note_on_c, 0, 86, 0
2, 13080, Note_on_c, 0, 78, 47
2, 13140, Note_on_c, 0, 78, 0
2, 13140, Note_on_c, 0, 81, 42
2, 13200, Note_on_c, 0, 81, 0
2, 13200, Note_on_c, 0, 79, 47
2, 13260, Note_on_c, 0, 79, 0
2, 13260, Note_on_c, 0, 76, 40
2, 13320, Note_on_c, 0, 76, 0
2, 13380, Note_on_c, 0, 85, 45
2, 13440, Note_on_c, 0, 85, 0
2, 13500, Note_on_c, 0, 84, 44
2, 13560, Note_on_c, 0, 84, 0
2, 13560, Note_on_c, 0, 77, 52
2, 13620, Note_on_c, 0, 77, 0
2, 13620, Note_on_c, 0, 80, 42
2, 13680, Note_on_c, 0, 80, 0
2, 13680, Note_on_c, 0, 78, 48
2, 13740, Note_on_c, 0, 78, 0
2, 13740, Note_on_c, 0, 75, 40
2, 13800, Note_on_c, 0, 75, 0
2, 13860, Note_on_c, 0, 86, 40
2, 13920, Note_on_c, 0, 86, 0
2, 13980, Note_on_c, 0, 84, 42
2, 14040, Note_on_c, 0, 84, 0
2, 14040, Note_on_c, 0, 76, 47
2, 14100, Note_on_c, 0, 76, 0
2, 14100, Note_on_c, 0, 79, 40
2, 14160, Note_on_c, 0, 79, 0
2, 14160, Note_on_c, 0, 77, 47
2, 14220, Note_on_c, 0, 77, 0
2, 14220, Note_on_c, 0, 74, 40
2, 14280, Note_on_c, 0, 74, 0
2, 14340, Note_on_c, 0, 83, 40
2, 14400, Note_on_c, 0, 83, 0
2, 14460, Note_on_c, 0, 83, 37
2, 14520, Note_on_c, 0, 83, 0
2, 14520, Note_on_c, 0, 75, 46
2, 14580, Note_on_c, 0, 75, 0
2, 14580, Note_on_c, 0, 78, 36
2, 14640, Note_on_c, 0, 78, 0
2, 14640, Note_on_c, 0, 76, 45
2, 14700, Note_on_c, 0, 76, 0
2, 14700, Note_on_c, 0, 73, 37
2, 14760, Note_on_c, 0, 73, 0
2, 14820, Note_on_c, 0, 82, 42
2, 14880, Note_on_c, 0, 82, 0
2, 14940, Note_on_c, 0, 82, 37
2, 15000, Note_on_c, 0, 82, 0
2, 15000, Note_on_c, 0, 75, 44
2, 15060, Note_on_c, 0, 75, 0
2, 15060, Note_on_c, 0, 78, 37
2, 15120, Note_on_c, 0, 78, 0
2, 15120, Note_on_c, 0, 76, 44
2, 15180, Note_on_c, 0, 76, 0
2, 15180, Note_on_c, 0, 73, 37
2, 15240, Note_on_c, 0, 73, 0
2, 15300, Note_on_c, 0, 82, 42
2, 15360, Note_on_c, 0, 82, 0
2, 15420, Note_on_c, 0, 83, 54
2, 15480, Note_on_c, 0, 83, 0
2, 15480, Note_on_c, 0, 76, 59
2, 15540, Note_on_c, 0, 76, 0
2, 15540, Note_on_c, 0, 79, 38
2, 15600, Note_on_c, 0, 79, 0
2, 15600, Note_on_c, 0, 77, 54
2, 15660, Note_on_c, 0, 77, 0
2, 15660, Note_on_c, 0, 74, 44
2, 15720, Note_on_c, 0, 74, 0
2, 15780, Note_on_c, 0, 81, 44
2, 15840, Note_on_c, 0, 81, 0
2, 15900, Note_on_c, 0, 81, 46
2, 15960, Note_on_c, 0, 81, 0
2, 15960, Note_on_c, 0, 73, 56
2, 16020, Note_on_c, 0, 73, 0
2, 16020, Note_on_c, 0, 76, 37
2, 16080, Note_on_c, 0, 76, 0
2, 16080, Note_on_c, 0, 74, 50
2, 16140, Note_on_c, 0, 74, 0
2, 16140, Note_on_c, 0, 71, 44
2, 16200, Note_on_c, 0, 71, 0
2, 16260, Note_on_c, 0, 80, 44
2, 16320, Note_on_c, 0, 80, 0
2, 16380, Note_on_c, 0, 80, 38
2, 16440, Note_on_c, 0, 80, 0
2, 16440, Note_on_c, 0, 73, 50
2, 16500, Note_on_c, 0, 73, 0
2, 16500, Note_on_c, 0, 75, 38
2, 16560, Note_on_c, 0, 75, 0
2, 16560, Note_on_c, 0, 74, 45
2, 16620, Note_on_c, 0, 74, 0
2, 16620, Note_on_c, 0, 71, 40
2, 16680, Note_on_c, 0, 71, 0
2, 16740, Note_on_c, 0, 79, 46
2, 16800, Note_on_c, 0, 79, 0
2, 16860, Note_on_c, 0, 79, 42
2, 16920, Note_on_c, 0, 79, 0
2, 16920, Note_on_c, 0, 74, 46
2, 16980, Note_on_c, 0, 74, 0
2, 16980, Note_on_c, 0, 76, 42
2, 17040, Note_on_c, 0, 76, 0
2, 17040, Note_on_c, 0, 75, 47
2, 17100, Note_on_c, 0, 75, 0
2, 17100, Note_on_c, 0, 74, 46
2, 17160, Note_on_c, 0, 74, 0
2, 17220, Note_on_c, 0, 84, 46
2, 17280, Note_on_c, 0, 84, 0
2, 17340, Note_on_c, 0, 84, 53
2, 17400, Note_on_c, 0, 84, 0
2, 17400, Note_on_c, 0, 78, 61
2, 17460, Note_on_c, 0, 78, 0
2, 17460, Note_on_c, 0, 80, 42
2, 17520, Note_on_c, 0, 80, 0
2, 17520, Note_on_c, 0, 79, 48
2, 17580, Note_on_c, 0, 79, 0
2, 17580, Note_on_c, 0, 75, 44
2, 17640, Note_on_c, 0, 75, 0
2, 17700, Note_on_c, 0, 83, 48
2, 17760, Note_on_c, 0, 83, 0
2, 17820, Note_on_c, 0, 83, 51
2, 17880, Note_on_c, 0, 83, 0
2, 17880, Note_on_c, 0, 75, 62
2, 17940, Note_on_c, 0, 75, 0
2, 17940, Note_on_c, 0, 78, 45
2, 18000, Note_on_c, 0, 78, 0
2, 18000, Note_on_c, 0, 76, 52
2, 18060, Note_on_c, 0, 76, 0
2, 18060, Note_on_c, 0, 73, 45
2, 18120, Note_on_c, 0, 73, 0
2, 18180, Note_on_c, 0, 82, 50
2, 18240, Note_on_c, 0, 82, 0
2, 18300, Note_on_c, 0, 82, 46
2, 18360, Note_on_c, 0, 82, 0
2, 18360, Note_on_c, 0, 75, 55
2, 18420, Note_on_c, 0, 75, 0
2, 18420, Note_on_c, 0, 77, 48
2, 18480, Note_on_c, 0, 77, 0
2, 18480, Note_on_c, 0, 76, 55
2, 18540, Note_on_c, 0, 76, 0
2, 18540, Note_on_c, 0, 73, 47
2, 18600, Note_on_c, 0, 73, 0
2, 18660, Note_on_c, 0, 81, 51
2, 18720, Note_on_c, 0, 81, 0
2, 18780, Note_on_c, 0, 81, 47
2, 18840, Note_on_c, 0, 81, 0
2, 18840, Note_on_c, 0, 76, 59
2, 18900, Note_on_c, 0, 76, 0
2, 18900, Note_on_c, 0, 79, 50
2, 18960, Note_on_c, 0, 79, 0
2, 18960, Note_on_c, 0, 77, 56
2, 19020, Note_on_c, 0, 77, 0
2, 19020, Note_on_c, 0, 76, 48
2, 19080, Note_on_c, 0, 76, 0
2, 19140, Note_on_c, 0, 86, 52
2, 19200, Note_on_c, 0, 86, 0
2, 19260, Note_on_c, 0, 86, 58
2, 19320, Note_on_c, 0, 86, 0
2, 19320, Note_on_c, 0, 76, 68
2, 19380, Note_on_c, 0, 76, 0
2, 19380, Note_on_c, 0, 79, 47
2, 19440, Note_on_c, 0, 79, 0
2, 19440, Note_on_c, 0, 77, 56
2, 19500, Note_on_c, 0, 77, 0
2, 19500, Note_on_c, 0, 75, 47
2, 19560, Note_on_c, 0, 75, 0
2, 19620, Note_on_c, 0, 84, 55
2, 19680, Note_on_c, 0, 84, 0
2, 19740, Note_on_c, 0, 84, 55
2, 19800, Note_on_c, 0, 84, 0
2, 19800, Note_on_c, 0, 76, 66
2, 19860, Note_on_c, 0, 76, 0
2, 19860, Note_on_c, 0, 79, 50
2, 19920, Note_on_c, 0, 79, 0
2, 19920, Note_on_c, 0, 77, 56
2, 19980, Note_on_c, 0, 77, 0
2, 19980, Note_on_c, 0, 74, 47
2, 20040, Note_on_c, 0, 74, 0
2, 20100, Note_on_c, 0, 82, 55
2, 20160, Note_on_c, 0, 82, 0
2, 20220, Note_on_c, 0, 82, 50
2, 20280, Note_on_c, 0, 82, 0
2, 20280, Note_on_c, 0, 73, 60
2, 20340, Note_on_c, 0, 73, 0
2, 20340, Note_on_c, 0, 75, 48
2, 20400, Note_on_c, 0, 75, 0
2, 20400, Note_on_c, 0, 74, 57
2, 20460, Note_on_c, 0, 74, 0
2, 20460, Note_on_c, 0, 72, 46
2, 20520, Note_on_c, 0, 72, 0
2, 20580, Note_on_c, 0, 81, 55
2, 20640, Note_on_c, 0, 81, 0
2, 20700, Note_on_c, 0, 81, 50
2, 20760, Note_on_c, 0, 81, 0
2, 20760, Note_on_c, 0, 73, 59
2, 20820, Note_on_c, 0, 73, 0
2, 20820, Note_on_c, 0, 75, 50
2, 20880, Note_on_c, 0, 75, 0
2, 20880, Note_on_c, 0, 74, 60
2, 20940, Note_on_c, 0, 74, 0
2, 20940, Note_on_c, 0, 71, 50
2, 21000, Note_on_c, 0, 71, 0
2, 21060, Note_on_c, 0, 79, 57
2, 21120, Note_on_c, 0, 79, 0
2, 21180, Note_on_c, 0, 79, 51
2, 21240, Note_on_c, 0, 79, 0
2, 21240, Note_on_c, 0, 69, 68
2, 21300, Note_on_c, 0, 69, 0
2, 21300, Note_on_c, 0, 72, 51
2, 21360, Note_on_c, 0, 72, 0
2, 21360, Note_on_c, 0, 70, 60
2, 21420, Note_on_c, 0, 70, 0
2, 21420, Note_on_c, 0, 68, 51
2, 21480, Note_on_c, 0, 68, 0
2, 21540, Note_on_c, 0, 77, 59
2, 21600, Note_on_c, 0, 77, 0
2, 21660, Note_on_c, 0, 76, 50
2, 21720, Note_on_c, 0, 76, 0
2, 21720, Note_on_c, 0, 69, 67
2, 21780, Note_on_c, 0, 69, 0
2, 21780, Note_on_c, 0, 72, 52
2, 21840, Note_on_c, 0, 72, 0
2, 21840, Note_on_c, 0, 70, 61
2, 21900, Note_on_c, 0, 70, 0
2, 21900, Note_on_c, 0, 68, 52
2, 21960, Note_on_c, 0, 68, 0
2, 22020, Note_on_c, 0, 77, 60
2, 22080, Note_on_c, 0, 77, 0
2, 22140, Note_on_c, 0, 77, 55
2, 22200, Note_on_c, 0, 77, 0
2, 22200, Note_on_c, 0, 69, 62
2, 22260, Note_on_c, 0, 69, 0
2, 22260, Note_on_c, 0, 71, 52
2, 22320, Note_on_c, 0, 71, 0
2, 22320, Note_on_c, 0, 70, 63
2, 22380, Note_on_c, 0, 70, 0
2, 22380, Note_on_c, 0, 68, 52
2, 22440, Note_on_c, 0, 68, 0
2, 22500, Note_on_c, 0, 77, 61
2, 22560, Note_on_c, 0, 77, 0
2, 22620, Note_on_c, 0, 78, 56
2, 22680, Note_on_c, 0, 78, 0
2, 22680, Note_on_c, 0, 74, 64
2, 22740, Note_on_c, 0, 74, 0
2, 22740, Note_on_c, 0, 77, 57
2, 22800, Note_on_c, 0, 77, 0
2, 22800, Note_on_c, 0, 75, 64
2, 22860, Note_on_c, 0, 75, 0
2, 22860, Note_on_c, 0, 70, 55
2, 22920, Note_on_c, 0, 70, 0
2, 22980, Note_on_c, 0, 78, 62
2, 23040, Note_on_c, 0, 78, 0
2, 23100, Note_on_c, 0, 78, 62
2, 23160, Note_on_c, 0, 78, 0
2, 23160, Note_on_c, 0, 67, 79
2, 23220, Note_on_c, 0, 67, 0
2, 23220, Note_on_c, 0, 70, 66
2, 23280, Note_on_c, 0, 70, 0
2, 23280, Note_on_c, 0, 68, 73
2, 23340, Note_on_c, 0, 68, 0
2, 23340, Note_on_c, 0, 66, 71
2, 23400, Note_on_c, 0, 66, 0
2, 23460, Note_on_c, 0, 76, 64
2, 23520, Note_on_c, 0, 76, 0
2, 23580, Note_on_c, 0, 76, 59
2, 23640, Note_on_c, 0, 76, 0
2, 23640, Note_on_c, 0, 67, 66
2, 23700, Note_on_c, 0, 67, 0
2, 23700, Note_on_c, 0, 70, 61
2, 23760, Note_on_c, 0, 70, 0
2, 23760, Note_on_c, 0, 68, 70
2, 23820, Note_on_c, 0, 68, 0
2, 23820, Note_on_c, 0, 64, 62
2, 23880, Note_on_c, 0, 64, 0
2, 23940, Note_on_c, 0, 68, 64
2, 24000, Note_on_c, 0, 68, 0
2, 24060, Note_on_c, 0, 71, 61
2, 24120, Note_on_c, 0, 71, 0
2, 24120, Note_on_c, 0, 65, 66
2, 24180, Note_on_c, 0, 65, 0
2, 24180, Note_on_c, 0, 68, 63
2, 24240, Note_on_c, 0, 68, 0
2, 24240, Note_on_c, 0, 66, 71
2, 24300, Note_on_c, 0, 66, 0
2, 24300, Note_on_c, 0, 63, 62
2, 24360, Note_on_c, 0, 63, 0
2, 24420, Note_on_c, 0, 71, 66
2, 24480, Note_on_c, 0, 71, 0
2, 24540, Note_on_c, 0, 70, 62
2, 24600, Note_on_c, 0, 70, 0
2, 24600, Note_on_c, 0, 65, 69
2, 24660, Note_on_c, 0, 65, 0
2, 24660, Note_on_c, 0, 68, 61
2, 24720, Note_on_c, 0, 68, 0
2, 24720, Note_on_c, 0, 66, 71
2, 24780, Note_on_c, 0, 66, 0
2, 24780, Note_on_c, 0, 63, 63
2, 24840, Note_on_c, 0, 63, 0
2, 24900, Note_on_c, 0, 71, 69
2, 24960, Note_on_c, 0, 71, 0
2, 25020, Note_on_c, 0, 72, 66
2, 25080, Note_on_c, 0, 72, 0
2, 25080, Note_on_c, 0, 65, 73
2, 25140, Note_on_c, 0, 65, 0
2, 25140, Note_on_c, 0, 68, 70
2, 25200, Note_on_c, 0, 68, 0
2, 25200, Note_on_c, 0, 66, 78
2, 25260, Note_on_c, 0, 66, 0
2, 25260, Note_on_c, 0, 64, 77
2, 25320, Note_on_c, 0, 64, 0
2, 25380, Note_on_c, 0, 72, 70
2, 25440, Note_on_c, 0, 72, 0
2, 25500, Note_on_c, 0, 73, 64
2, 25560, Note_on_c, 0, 73, 0
2, 25560, Note_on_c, 0, 65, 73
2, 25620, Note_on_c, 0, 65, 0
2, 25620, Note_on_c, 0, 68, 64
2, 25680, Note_on_c, 0, 68, 0
2, 25680, Note_on_c, 0, 66, 72
2, 25740, Note_on_c, 0, 66, 0
2, 25740, Note_on_c, 0, 64, 63
2, 25800, Note_on_c, 0, 64, 0
2, 25860, Note_on_c, 0, 74, 71
2, 25920, Note_on_c, 0, 74, 0
2, 25980, Note_on_c, 0, 74, 69
2, 26040, Note_on_c, 0, 74, 0
2, 26040, Note_on_c, 0, 65, 77
2, 26100, Note_on_c, 0, 65, 0
2, 26100, Note_on_c, 0, 68, 71
2, 26160, Note_on_c, 0, 68, 0
2, 26160, Note_on_c, 0, 66, 77
2, 26220, Note_on_c, 0, 66, 0
2, 26220, Note_on_c, 0, 64, 69
2, 26280, Note_on_c, 0, 64, 0
2, 26340, Note_on_c, 0, 74, 72
2, 26400, Note_on_c, 0, 74, 0
2, 26460, Note_on_c, 0, 75, 69
2, 26520, Note_on_c, 0, 75, 0
2, 26520, Note_on_c, 0, 70, 77
2, 26580, Note_on_c, 0, 70, 0
2, 26580, Note_on_c, 0, 73, 71
2, 26640, Note_on_c, 0, 73, 0
2, 26640, Note_on_c, 0, 71, 77
2, 26700, Note_on_c, 0, 71, 0
2, 26700, Note_on_c, 0, 66, 72
2, 26760, Note_on_c, 0, 66, 0
2, 26820, Note_on_c, 0, 75, 73
2, 26880, Note_on_c, 0, 75, 0
2, 26940, Note_on_c, 0, 75, 66
2, 27000, Note_on_c, 0, 75, 0
2, 27000, Note_on_c, 0, 68, 73
2, 27060, Note_on_c, 0, 68, 0
2, 27060, Note_on_c, 0, 73, 70
2, 27120, Note_on_c, 0, 73, 0
2, 27120, Note_on_c, 0, 71, 77
2, 27180, Note_on_c, 0, 71, 0
2, 27180, Note_on_c, 0, 68, 66
2, 27240, Note_on_c, 0, 68, 0
2, 27300, Note_on_c, 0, 75, 70
2, 27360, Note_on_c, 0, 75, 0
2, 27420, Note_on_c, 0, 74, 66
2, 27480, Note_on_c, 0, 74, 0
2, 27480, Note_on_c, 0, 68, 75
2, 27540, Note_on_c, 0, 68, 0
2, 27540, Note_on_c, 0, 73, 71
2, 27600, Note_on_c, 0, 73, 0
2, 27600, Note_on_c, 0, 71, 77
2, 27660, Note_on_c, 0, 71, 0
2, 27660, Note_on_c, 0, 68, 71
2, 27720, Note_on_c, 0, 68, 0
2, 27780, Note_on_c, 0, 75, 72
2, 27840, Note_on_c, 0, 75, 0
2, 27900, Note_on_c, 0, 77, 72
2, 27960, Note_on_c, 0, 77, 0
2, 27960, Note_on_c, 0, 70, 80
2, 28020, Note_on_c, 0, 70, 0
2, 28020, Note_on_c, 0, 75, 70
2, 28080, Note_on_c, 0, 75, 0
2, 28080, Note_on_c, 0, 74, 77
2, 28140, Note_on_c, 0, 74, 0
2, 28140, Note_on_c, 0, 70, 71
2, 28200, Note_on_c, 0, 70, 0
2, 28260, Note_on_c, 0, 77, 75
2, 28320, Note_on_c, 0, 77, 0
2, 28380, Note_on_c, 0, 78, 69
2, 28440, Note_on_c, 0, 78, 0
2, 28440, Note_on_c, 0, 70, 73
2, 28500, Note_on_c, 0, 70, 0
2, 28500, Note_on_c, 0, 75, 66
2, 28560, Note_on_c, 0, 75, 0
2, 28560, Note_on_c, 0, 74, 72
2, 28620, Note_on_c, 0, 74, 0
2, 28620, Note_on_c, 0, 70, 66
2, 28680, Note_on_c, 0, 70, 0
2, 28740, Note_on_c, 0, 77, 71
2, 28800, Note_on_c, 0, 77, 0
2, 28860, Note_on_c, 0, 75, 71
2, 28920, Note_on_c, 0, 75, 0
2, 28920, Note_on_c, 0, 68, 80
2, 28980, Note_on_c, 0, 68, 0
2, 28980, Note_on_c, 0, 73, 64
2, 29040, Note_on_c, 0, 73, 0
2, 29040, Note_on_c, 0, 71, 71
2, 29100, Note_on_c, 0, 71, 0
2, 29100, Note_on_c, 0, 68, 63
2, 29160, Note_on_c, 0, 68, 0
2, 29220, Note_on_c, 0, 75, 70
2, 29280, Note_on_c, 0, 75, 0
2, 29340, Note_on_c, 0, 74, 64
2, 29400, Note_on_c, 0, 74, 0
2, 29400, Note_on_c, 0, 68, 71
2, 29460, Note_on_c, 0, 68, 0
2, 29460, Note_on_c, 0, 73, 63
2, 29520, Note_on_c, 0, 73, 0
2, 29520, Note_on_c, 0, 71, 71
2, 29580, Note_on_c, 0, 71, 0
2, 29580, Note_on_c, 0, 68, 66
2, 29640, Note_on_c, 0, 68, 0
2, 29700, Note_on_c, 0, 75, 71
2, 29760, Note_on_c, 0, 75, 0
2, 29820, Note_on_c, 0, 77, 69
2, 29880, Note_on_c, 0, 77, 0
2, 29880, Note_on_c, 0, 70, 73
2, 29940, Note_on_c, 0, 70, 0
2, 29940, Note_on_c, 0, 75, 66
2, 30000, Note_on_c, 0, 75, 0
2, 30000, Note_on_c, 0, 74, 75
2, 30060, Note_on_c, 0, 74, 0
2, 30060, Note_on_c, 0, 70, 69
2, 30120, Note_on_c, 0, 70, 0
2, 30180, Note_on_c, 0, 77, 72
2, 30240, Note_on_c, 0, 77, 0
2, 30300, Note_on_c, 0, 82, 57
2, 30360, Note_on_c, 0, 82, 0
2, 30360, Note_on_c, 0, 76, 64
2, 30420, Note_on_c, 0, 76, 0
2, 30420, Note_on_c, 0, 78, 60
2, 30480, Note_on_c, 0, 78, 0
2, 30480, Note_on_c, 0, 77, 57
2, 30540, Note_on_c, 0, 77, 0
2, 30540, Note_on_c, 0, 74, 52
2, 30600, Note_on_c, 0, 74, 0
2, 30660, Note_on_c, 0, 82, 45
2, 30720, Note_on_c, 0, 82, 0
2, 30780, Note_on_c, 0, 75, 38
2, 30840, Note_on_c, 0, 75, 0
2, 30840, Note_on_c, 0, 68, 47
2, 30900, Note_on_c, 0, 68, 0
2, 30900, Note_on_c, 0, 73, 40
2, 30960, Note_on_c, 0, 73, 0
2, 30960, Note_on_c, 0, 71, 47
2, 31020, Note_on_c, 0, 71, 0
2, 31020, Note_on_c, 0, 68, 40
2, 31080, Note_on_c, 0, 68, 0
2, 31140, Note_on_c, 0, 75, 44
2, 31200, Note_on_c, 0, 75, 0
2, 31260, Note_on_c, 0, 74, 40
2, 31320, Note_on_c, 0, 74, 0
2, 31320, Note_on_c, 0, 68, 48
2, 31380, Note_on_c, 0, 68, 0
2, 31380, Note_on_c, 0, 73, 40
2, 31440, Note_on_c, 0, 73, 0
2, 31440, Note_on_c, 0, 71, 46
2, 31500, Note_on_c, 0, 71, 0
2, 31500, Note_on_c, 0, 68, 37
2, 31560, Note_on_c, 0, 68, 0
2, 31620, Note_on_c, 0, 75, 44
2, 31680, Note_on_c, 0, 75, 0
2, 31740, Note_on_c, 0, 77, 38
2, 31800, Note_on_c, 0, 77, 0
2, 31800, Note_on_c, 0, 70, 45
2, 31860, Note_on_c, 0, 70, 0
2, 31860, Note_on_c, 0, 75, 38
2, 31920, Note_on_c, 0, 75, 0
2, 31920, Note_on_c, 0, 74, 47
2, 31980, Note_on_c, 0, 74, 0
2, 31980, Note_on_c, 0, 70, 38
2, 32040, Note_on_c, 0, 70, 0
2, 32100, Note_on_c, 0, 77, 44
2, 32160, Note_on_c, 0, 77, 0
2, 32220, Note_on_c, 0, 78, 38
2, 32280, Note_on_c, 0, 78, 0
2, 32280, Note_on_c, 0, 70, 47
2, 32340, Note_on_c, 0, 70, 0
2, 32340, Note_on_c, 0, 75, 38
2, 32400, Note_on_c, 0, 75, 0
2, 32400, Note_on_c, 0, 74, 46
2, 32460, Note_on_c, 0, 74, 0
2, 32460, Note_on_c, 0, 70, 38
2, 32520, Note_on_c, 0, 70, 0
2, 32580, Note_on_c, 0, 77, 44
2, 32640, Note_on_c, 0, 77, 0
2, 32700, Note_on_c, 0, 75, 40
2, 32760, Note_on_c, 0, 75, 0
2, 32760, Note_on_c, 0, 68, 46
2, 32820, Note_on_c, 0, 68, 0
2, 32820, Note_on_c, 0, 73, 40
2, 32880, Note_on_c, 0, 73, 0
2, 32880, Note_on_c, 0, 71, 47
2, 32940, Note_on_c, 0, 71, 0
2, 32940, Note_on_c, 0, 68, 40
2, 33000, Note_on_c, 0, 68, 0
2, 33060, Note_on_c, 0, 75, 46
2, 33120, Note_on_c, 0, 75, 0
2, 33180, Note_on_c, 0, 74, 40
2, 33240, Note_on_c, 0, 74, 0
2, 33240, Note_on_c, 0, 68, 46
2, 33300, Note_on_c, 0, 68, 0
2, 33300, Note_on_c, 0, 73, 40
2, 33360, Note_on_c, 0, 73, 0
2, 33360, Note_on_c, 0, 71, 48
2, 33420, Note_on_c, 0, 71, 0
2, 33420, Note_on_c, 0, 68, 40
2, 33480, Note_on_c, 0, 68, 0
2, 33540, Note_on_c, 0, 75, 47
2, 33600, Note_on_c, 0, 75, 0
2, 33660, Note_on_c, 0, 77, 44
2, 33720, Note_on_c, 0, 77, 0
2, 33720, Note_on_c, 0, 70, 48
2, 33780, Note_on_c, 0, 70, 0
2, 33780, Note_on_c, 0, 75, 45
2, 33840, Note_on_c, 0, 75, 0
2, 33840, Note_on_c, 0, 74, 50
2, 33900, Note_on_c, 0, 74, 0
2, 33900, Note_on_c, 0, 70, 45
2, 33960, Note_on_c, 0, 70, 0
2, 34020, Note_on_c, 0, 77, 48
2, 34080, Note_on_c, 0, 77, 0
2, 34140, Note_on_c, 0, 77, 44
2, 34200, Note_on_c, 0, 77, 0
2, 34200, Note_on_c, 0, 72, 51
2, 34260, Note_on_c, 0, 72, 0
2, 34260, Note_on_c, 0, 74, 45
2, 34320, Note_on_c, 0, 74, 0
2, 34320, Note_on_c, 0, 73, 51
2, 34380, Note_on_c, 0, 73, 0
2, 34380, Note_on_c, 0, 71, 45
2, 34440, Note_on_c, 0, 71, 0
2, 34500, Note_on_c, 0, 73, 46
2, 34560, Note_on_c, 0, 73, 0
2, 34620, Note_on_c, 0, 73, 47
2, 34680, Note_on_c, 0, 73, 0
2, 34680, Note_on_c, 0, 68, 57
2, 34740, Note_on_c, 0, 68, 0
2, 34740, Note_on_c, 0, 71, 50
2, 34800, Note_on_c, 0, 71, 0
2, 34800, Note_on_c, 0, 69, 59
2, 34860, Note_on_c, 0, 69, 0
2, 34860, Note_on_c, 0, 66, 50
2, 34920, Note_on_c, 0, 66, 0
2, 34980, Note_on_c, 0, 74, 55
2, 35040, Note_on_c, 0, 74, 0
2, 35100, Note_on_c, 0, 73, 47
2, 35160, Note_on_c, 0, 73, 0
2, 35160, Note_on_c, 0, 68, 56
2, 35220, Note_on_c, 0, 68, 0
2, 35220, Note_on_c, 0, 71, 48
2, 35280, Note_on_c, 0, 71, 0
2, 35280, Note_on_c, 0, 69, 57
2, 35340, Note_on_c, 0, 69, 0
2, 35340, Note_on_c, 0, 68, 47
2, 35400, Note_on_c, 0, 68, 0
2, 35460, Note_on_c, 0, 78, 56
2, 35520, Note_on_c, 0, 78, 0
2, 35580, Note_on_c, 0, 78, 48
2, 35640, Note_on_c, 0, 78, 0
2, 35640, Note_on_c, 0, 70, 60
2, 35700, Note_on_c, 0, 70, 0
2, 35700, Note_on_c, 0, 73, 48
2, 35760, Note_on_c, 0, 73, 0
2, 35760, Note_on_c, 0, 71, 61
2, 35820, Note_on_c, 0, 71, 0
2, 35820, Note_on_c, 0, 68, 51
2, 35880, Note_on_c, 0, 68, 0
2, 35940, Note_on_c, 0, 77, 59
2, 36000, Note_on_c, 0, 77, 0
2, 36060, Note_on_c, 0, 81, 51
2, 36120, Note_on_c, 0, 81, 0
2, 36120, Note_on_c, 0, 72, 63
2, 36180, Note_on_c, 0, 72, 0
2, 36180, Note_on_c, 0, 74, 55
2, 36240, Note_on_c, 0, 74, 0
2, 36240, Note_on_c, 0, 73, 63
2, 36300, Note_on_c, 0, 73, 0
2, 36300, Note_on_c, 0, 71, 60
2, 36360, Note_on_c, 0, 71, 0
2, 36420, Note_on_c, 0, 80, 60
2, 36480, Note_on_c, 0, 80, 0
2, 36540, Note_on_c, 0, 73, 52
2, 36600, Note_on_c, 0, 73, 0
2, 36600, Note_on_c, 0, 68, 60
2, 36660, Note_on_c, 0, 68, 0
2, 36660, Note_on_c, 0, 71, 51
2, 36720, Note_on_c, 0, 71, 0
2, 36720, Note_on_c, 0, 69, 61
2, 36780, Note_on_c, 0, 69, 0
2, 36780, Note_on_c, 0, 66, 51
2, 36840, Note_on_c, 0, 66, 0
2, 36900, Note_on_c, 0, 74, 60
2, 36960, Note_on_c, 0, 74, 0
2, 37020, Note_on_c, 0, 73, 55
2, 37080, Note_on_c, 0, 73, 0
2, 37080, Note_on_c, 0, 68, 63
2, 37140, Note_on_c, 0, 68, 0
2, 37140, Note_on_c, 0, 71, 52
2, 37200, Note_on_c, 0, 71, 0
2, 37200, Note_on_c, 0, 69, 63
2, 37260, Note_on_c, 0, 69, 0
2, 37260, Note_on_c, 0, 68, 52
2, 37320, Note_on_c, 0, 68, 0
2, 37380, Note_on_c, 0, 81, 62
2, 37440, Note_on_c, 0, 81, 0
2, 37500, Note_on_c, 0, 81, 56
2, 37560, Note_on_c, 0, 81, 0
2, 37560, Note_on_c, 0, 73, 64
2, 37620, Note_on_c, 0, 73, 0
2, 37620, Note_on_c, 0, 76, 52
2, 37680, Note_on_c, 0, 76, 0
2, 37680, Note_on_c, 0, 74, 64
2, 37740, Note_on_c, 0, 74, 0
2, 37740, Note_on_c, 0, 71, 55
2, 37800, Note_on_c, 0, 71, 0
2, 37860, Note_on_c, 0, 80, 62
2, 37920, Note_on_c, 0, 80, 0
2, 37980, Note_on_c, 0, 85, 56
2, 38040, Note_on_c, 0, 85, 0
2, 38040, Note_on_c, 0, 75, 66
2, 38100, Note_on_c, 0, 75, 0
2, 38100, Note_on_c, 0, 78, 59
2, 38160, Note_on_c, 0, 78, 0
2, 38160, Note_on_c, 0, 76, 69
2, 38220, Note_on_c, 0, 76, 0
2, 38220, Note_on_c, 0, 74, 59
2, 38280, Note_on_c, 0, 74, 0
2, 38340, Note_on_c, 0, 83, 69
2, 38400, Note_on_c, 0, 83, 0
2, 38460, Note_on_c, 0, 83, 61
2, 38520, Note_on_c, 0, 83, 0
2, 38520, Note_on_c, 0, 75, 70
2, 38580, Note_on_c, 0, 75, 0
2, 38580, Note_on_c, 0, 78, 60
2, 38640, Note_on_c, 0, 78, 0
2, 38640, Note_on_c, 0, 76, 70
2, 38700, Note_on_c, 0, 76, 0
2, 38700, Note_on_c, 0, 73, 60
2, 38760, Note_on_c, 0, 73, 0
2, 38820, Note_on_c, 0, 82, 71
2, 38880, Note_on_c, 0, 82, 0
2, 38940, Note_on_c, 0, 86, 62
2, 39000, Note_on_c, 0, 86, 0
2, 39000, Note_on_c, 0, 77, 71
2, 39060, Note_on_c, 0, 77, 0
2, 39060, Note_on_c, 0, 79, 63
2, 39120, Note_on_c, 0, 79, 0
2, 39120, Note_on_c, 0, 78, 71
2, 39180, Note_on_c, 0, 78, 0
2, 39180, Note_on_c, 0, 76, 63
2, 39240, Note_on_c, 0, 76, 0
2, 39300, Note_on_c, 0, 85, 72
2, 39360, Note_on_c, 0, 85, 0
2, 39420, Note_on_c, 0, 85, 63
2, 39480, Note_on_c, 0, 85, 0
2, 39480, Note_on_c, 0, 77, 73
2, 39540, Note_on_c, 0, 77, 0
2, 39540, Note_on_c, 0, 80, 66
2, 39600, Note_on_c, 0, 80, 0
2, 39600, Note_on_c, 0, 78, 73
2, 39660, Note_on_c, 0, 78, 0
2, 39660, Note_on_c, 0, 75, 63
2, 39720, Note_on_c, 0, 75, 0
2, 39780, Note_on_c, 0, 84, 73
2, 39840, Note_on_c, 0, 84, 0
2, 39900, Note_on_c, 0, 89, 64
2, 39960, Note_on_c, 0, 89, 0
2, 39960, Note_on_c, 0, 80, 75
2, 40020, Note_on_c, 0, 80, 0
2, 40020, Note_on_c, 0, 83, 69
2, 40080, Note_on_c, 0, 83, 0
2, 40080, Note_on_c, 0, 81, 75
2, 40140, Note_on_c, 0, 81, 0
2, 40140, Note_on_c, 0, 80, 69
2, 40200, Note_on_c, 0, 80, 0
2, 40260, Note_on_c, 0, 90, 77
2, 40320, Note_on_c, 0, 90, 0
2, 40380, Note_on_c, 0, 92, 70
2, 40440, Note_on_c, 0, 92, 0
2, 40440, Note_on_c, 0, 86, 81
2, 40500, Note_on_c, 0, 86, 0
2, 40500, Note_on_c, 0, 89, 71
2, 40560, Note_on_c, 0, 89, 0
2, 40560, Note_on_c, 0, 87, 78
2, 40620, Note_on_c, 0, 87, 0
2, 40620, Note_on_c, 0, 84, 72
2, 40680, Note_on_c, 0, 84, 0
2, 40740, Note_on_c, 0, 93, 77
2, 40800, Note_on_c, 0, 93, 0
2, 40860, Note_on_c, 0, 92, 71
2, 40920, Note_on_c, 0, 92, 0
2, 40920, Note_on_c, 0, 86, 77
2, 40980, Note_on_c, 0, 86, 0
2, 40980, Note_on_c, 0, 89, 75
2, 41040, Note_on_c, 0, 89, 0
2, 41040, Note_on_c, 0, 87, 71
2, 41100, Note_on_c, 0, 87, 0
2, 41100, Note_on_c, 0, 84, 69
2, 41160, Note_on_c, 0, 84, 0
2, 41220, Note_on_c, 0, 93, 77
2, 41280, Note_on_c, 0, 93, 0
2, 41340, Note_on_c, 0, 92, 70
2, 41400, Note_on_c, 0, 92, 0
2, 41400, Note_on_c, 0, 85, 77
2, 41460, Note_on_c, 0, 85, 0
2, 41460, Note_on_c, 0, 88, 72
2, 41520, Note_on_c, 0, 88, 0
2, 41520, Note_on_c, 0, 86, 78
2, 41580, Note_on_c, 0, 86, 0
2, 41580, Note_on_c, 0, 84, 71
2, 41640, Note_on_c, 0, 84, 0
2, 41700, Note_on_c, 0, 93, 77
2, 41760, Note_on_c, 0, 93, 0
2, 41820, Note_on_c, 0, 92, 75
2, 41880, Note_on_c, 0, 92, 0
2, 41880, Note_on_c, 0, 85, 82
2, 41940, Note_on_c, 0, 85, 0
2, 41940, Note_on_c, 0, 88, 75
2, 42000, Note_on_c, 0, 88, 0
2, 42000, Note_on_c, 0, 86, 78
2, 42060, Note_on_c, 0, 86, 0
2, 42060, Note_on_c, 0, 84, 71
2, 42120, Note_on_c, 0, 84, 0
2, 42180, Note_on_c, 0, 93, 77
2, 42240, Note_on_c, 0, 93, 0
2, 42300, Note_on_c, 0, 93, 70
2, 42360, Note_on_c, 0, 93, 0
2, 42360, Note_on_c, 0, 89, 77
2, 42420, Note_on_c, 0, 89, 0
2, 42420, Note_on_c, 0, 92, 70
2, 42480, Note_on_c, 0, 92, 0
2, 42480, Note_on_c, 0, 90, 77
2, 42540, Note_on_c, 0, 90, 0
2, 42540, Note_on_c, 0, 85, 66
2, 42600, Note_on_c, 0, 85, 0
2, 42660, Note_on_c, 0, 93, 70
2, 42720, Note_on_c, 0, 93, 0
2, 42780, Note_on_c, 0, 92, 69
2, 42840, Note_on_c, 0, 92, 0
2, 42840, Note_on_c, 0, 87, 78
2, 42900, Note_on_c, 0, 87, 0
2, 42900, Note_on_c, 0, 90, 71
2, 42960, Note_on_c, 0, 90, 0
2, 42960, Note_on_c, 0, 88, 77
2, 43020, Note_on_c, 0, 88, 0
2, 43020, Note_on_c, 0, 85, 69
2, 43080, Note_on_c, 0, 85, 0
2, 43140, Note_on_c, 0, 92, 72
2, 43200, Note_on_c, 0, 92, 0
2, 43260, Note_on_c, 0, 88, 64
2, 43320, Note_on_c, 0, 88, 0
2, 43320, Note_on_c, 0, 83, 73
2, 43380, Note_on_c, 0, 83, 0
2, 43380, Note_on_c, 0, 86, 66
2, 43440, Note_on_c, 0, 86, 0
2, 43440, Note_on_c, 0, 85, 71
2, 43500, Note_on_c, 0, 85, 0
2, 43500, Note_on_c, 0, 81, 63
2, 43560, Note_on_c, 0, 81, 0
2, 43620, Note_on_c, 0, 88, 71
2, 43680, Note_on_c, 0, 88, 0
2, 43740, Note_on_c, 0, 85, 64
2, 43800, Note_on_c, 0, 85, 0
2, 43800, Note_on_c, 0, 80, 71
2, 43860, Note_on_c, 0, 80, 0
2, 43860, Note_on_c, 0, 83, 64
2, 43920, Note_on_c, 0, 83, 0
2, 43920, Note_on_c, 0, 81, 70
2, 43980, Note_on_c, 0, 81, 0
2, 43980, Note_on_c, 0, 78, 62
2, 44040, Note_on_c, 0, 78, 0
2, 44100, Note_on_c, 0, 85, 63
2, 44160, Note_on_c, 0, 85, 0
2, 44220, Note_on_c, 0, 80, 59
2, 44280, Note_on_c, 0, 80, 0
2, 44280, Note_on_c, 0, 75, 69
2, 44340, Note_on_c, 0, 75, 0
2, 44340, Note_on_c, 0, 78, 61
2, 44400, Note_on_c, 0, 78, 0
2, 44400, Note_on_c, 0, 76, 66
2, 44460, Note_on_c, 0, 76, 0
2, 44460, Note_on_c, 0, 73, 62
2, 44520, Note_on_c, 0, 73, 0
2, 44580, Note_on_c, 0, 80, 62
2, 44640, Note_on_c, 0, 80, 0
2, 44700, Note_on_c, 0, 78, 57
2, 44760, Note_on_c, 0, 78, 0
2, 44760, Note_on_c, 0, 73, 64
2, 44820, Note_on_c, 0, 73, 0
2, 44820, Note_on_c, 0, 76, 57
2, 44880, Note_on_c, 0, 76, 0
2, 44880, Note_on_c, 0, 74, 64
2, 44940, Note_on_c, 0, 74, 0
2, 44940, Note_on_c, 0, 69, 52
2, 45000, Note_on_c, 0, 69, 0
2, 45060, Note_on_c, 0, 78, 61
2, 45120, Note_on_c, 0, 78, 0
2, 45180, Note_on_c, 0, 76, 55
2, 45240, Note_on_c, 0, 76, 0
2, 45240, Note_on_c, 0, 71, 64
2, 45300, Note_on_c, 0, 71, 0
2, 45300, Note_on_c, 0, 74, 59
2, 45360, Note_on_c, 0, 74, 0
2, 45360, Note_on_c, 0, 73, 63
2, 45420, Note_on_c, 0, 73, 0
2, 45420, Note_on_c, 0, 69, 56
2, 45480, Note_on_c, 0, 69, 0
2, 45540, Note_on_c, 0, 76, 60
2, 45600, Note_on_c, 0, 76, 0
2, 45660, Note_on_c, 0, 74, 52
2, 45720, Note_on_c, 0, 74, 0
2, 45720, Note_on_c, 0, 69, 62
2, 45780, Note_on_c, 0, 69, 0
2, 45780, Note_on_c, 0, 73, 52
2, 45840, Note_on_c, 0, 73, 0
2, 45840, Note_on_c, 0, 71, 61
2, 45900, Note_on_c, 0, 71, 0
2, 45900, Note_on_c, 0, 67, 55
2, 45960, Note_on_c, 0, 67, 0
2, 46020, Note_on_c, 0, 74, 60
2, 46080, Note_on_c, 0, 74, 0
2, 46140, Note_on_c, 0, 73, 60
2, 46200, Note_on_c, 0, 73, 0
2, 46200, Note_on_c, 0, 68, 70
2, 46260, Note_on_c, 0, 68, 0
2, 46260, Note_on_c, 0, 71, 59
2, 46320, Note_on_c, 0, 71, 0
2, 46320, Note_on_c, 0, 69, 64
2, 46380, Note_on_c, 0, 69, 0
2, 46380, Note_on_c, 0, 66, 61
2, 46440, Note_on_c, 0, 66, 0
2, 46500, Note_on_c, 0, 73, 60
2, 46560, Note_on_c, 0, 73, 0
2, 46620, Note_on_c, 0, 73, 51
2, 46680, Note_on_c, 0, 73, 0
2, 46680, Note_on_c, 0, 68, 60
2, 46740, Note_on_c, 0, 68, 0
2, 46740, Note_on_c, 0, 71, 51
2, 46800, Note_on_c, 0, 71, 0
2, 46800, Note_on_c, 0, 69, 59
2, 46860, Note_on_c, 0, 69, 0
2, 46860, Note_on_c, 0, 66, 51
2, 46920, Note_on_c, 0, 66, 0
2, 46980, Note_on_c, 0, 73, 57
2, 47040, Note_on_c, 0, 73, 0
2, 47100, Note_on_c, 0, 73, 52
2, 47160, Note_on_c, 0, 73, 0
2, 47160, Note_on_c, 0, 68, 62
2, 47220, Note_on_c, 0, 68, 0
2, 47220, Note_on_c, 0, 71, 52
2, 47280, Note_on_c, 0, 71, 0
2, 47280, Note_on_c, 0, 69, 60
2, 47340, Note_on_c, 0, 69, 0
2, 47340, Note_on_c, 0, 66, 52
2, 47400, Note_on_c, 0, 66, 0
2, 47460, Note_on_c, 0, 73, 56
2, 47520, Note_on_c, 0, 73, 0
2, 47580, Note_on_c, 0, 73, 51
2, 47640, Note_on_c, 0, 73, 0
2, 47640, Note_on_c, 0, 68, 60
2, 47700, Note_on_c, 0, 68, 0
2, 47700, Note_on_c, 0, 71, 52
2, 47760, Note_on_c, 0, 71, 0
2, 47760, Note_on_c, 0, 69, 59
2, 47820, Note_on_c, 0, 69, 0
2, 47820, Note_on_c, 0, 66, 48
2, 47880, Note_on_c, 0, 66, 0
2, 47940, Note_on_c, 0, 73, 55
2, 48000, Note_on_c, 0, 73, 0
2, 48060, Note_on_c, 0, 73, 48
2, 48120, Note_on_c, 0, 73, 0
2, 48120, Note_on_c, 0, 67, 60
2, 48180, Note_on_c, 0, 67, 0
2, 48180, Note_on_c, 0, 69, 47
2, 48240, Note_on_c, 0, 69, 0
2, 48240, Note_on_c, 0, 68, 55
2, 48300, Note_on_c, 0, 68, 0
2, 48300, Note_on_c, 0, 66, 47
2, 48360, Note_on_c, 0, 66, 0
2, 48420, Note_on_c, 0, 73, 51
2, 48480, Note_on_c, 0, 73, 0
2, 48540, Note_on_c, 0, 73, 50
2, 48600, Note_on_c, 0, 73, 0
2, 48600, Note_on_c, 0, 67, 57
2, 48660, Note_on_c, 0, 67, 0
2, 48660, Note_on_c, 0, 69, 48
2, 48720, Note_on_c, 0, 69, 0
2, 48720, Note_on_c, 0, 68, 55
2, 48780, Note_on_c, 0, 68, 0
2, 48780, Note_on_c, 0, 66, 46
2, 48840, Note_on_c, 0, 66, 0
2, 48900, Note_on_c, 0, 73, 50
2, 48960, Note_on_c, 0, 73, 0
2, 49020, Note_on_c, 0, 73, 45
2, 49080, Note_on_c, 0, 73, 0
2, 49080, Note_on_c, 0, 67, 50
2, 49140, Note_on_c, 0, 67, 0
2, 49140, Note_on_c, 0, 69, 42
2, 49200, Note_on_c, 0, 69, 0
2, 49200, Note_on_c, 0, 68, 48
2, 49260, Note_on_c, 0, 68, 0
2, 49260, Note_on_c, 0, 65, 42
2, 49320, Note_on_c, 0, 65, 0
2, 49380, Note_on_c, 0, 73, 46
2, 49440, Note_on_c, 0, 73, 0
2, 49500, Note_on_c, 0, 73, 38
2, 49560, Note_on_c, 0, 73, 0
2, 49560, Note_on_c, 0, 67, 44
2, 49620, Note_on_c, 0, 67, 0
2, 49620, Note_on_c, 0, 69, 36
2, 49680, Note_on_c, 0, 69, 0
2, 49680, Note_on_c, 0, 68, 44
2, 49740, Note_on_c, 0, 68, 0
2, 49740, Note_on_c, 0, 65, 38
2, 49800, Note_on_c, 0, 65, 0
2, 49860, Note_on_c, 0, 73, 38
2, 49920, Note_on_c, 0, 73, 0
2, 49980, Note_on_c, 0, 73, 35
2, 50040, Note_on_c, 0, 73, 0
2, 50040, Note_on_c, 0, 68, 40
2, 50100, Note_on_c, 0, 68, 0
2, 50100, Note_on_c, 0, 71, 35
2, 50160, Note_on_c, 0, 71, 0
2, 50160, Note_on_c, 0, 69, 40
2, 50220, Note_on_c, 0, 69, 0
2, 50220, Note_on_c, 0, 66, 35
2, 50280, Note_on_c, 0, 66, 0
2, 50340, Note_on_c, 0, 73, 38
2, 50400, Note_on_c, 0, 73, 0
2, 50460, Note_on_c, 0, 73, 34
2, 50520, Note_on_c, 0, 73, 0
2, 50520, Note_on_c, 0, 68, 37
2, 50580, Note_on_c, 0, 68, 0
2, 50580, Note_on_c, 0, 71, 31
2, 50640, Note_on_c, 0, 71, 0
2, 50640, Note_on_c, 0, 69, 37
2, 50700, Note_on_c, 0, 69, 0
2, 50700, Note_on_c, 0, 66, 30
2, 50760, Note_on_c, 0, 66, 0
2, 50820, Note_on_c, 0, 73, 37
2, 50880, Note_on_c, 0, 73, 0
2, 50940, Note_on_c, 0, 73, 31
2, 51000, Note_on_c, 0, 73, 0
2, 51000, Note_on_c, 0, 68, 37
2, 51060, Note_on_c, 0, 68, 0
2, 51060, Note_on_c, 0, 71, 31
2, 51120, Note_on_c, 0, 71, 0
2, 51120, Note_on_c, 0, 69, 37
2, 51180, Note_on_c, 0, 69, 0
2, 51180, Note_on_c, 0, 66, 36
2, 51240, Note_on_c, 0, 66, 0
2, 51300, Note_on_c, 0, 73, 38
2, 51360, Note_on_c, 0, 73, 0
2, 51420, Note_on_c, 0, 73, 34
2, 51480, Note_on_c, 0, 73, 0
2, 51480, Note_on_c, 0, 68, 38
2, 51540, Note_on_c, 0, 68, 0
2, 51540, Note_on_c, 0, 71, 34
2, 51600, Note_on_c, 0, 71, 0
2, 51600, Note_on_c, 0, 69, 38
2, 51660, Note_on_c, 0, 69, 0
2, 51660, Note_on_c, 0, 66, 34
2, 51720, Note_on_c, 0, 66, 0
2, 51780, Note_on_c, 0, 73, 38
2, 51840, Note_on_c, 0, 73, 0
2, 51900, Note_on_c, 0, 74, 34
2, 51960, Note_on_c, 0, 74, 0
2, 51960, Note_on_c, 0, 70, 37
2, 52020, Note_on_c, 0, 70, 0
2, 52020, Note_on_c, 0, 73, 31
2, 52080, Note_on_c, 0, 73, 0
2, 52080, Note_on_c, 0, 71, 37
2, 52140, Note_on_c, 0, 71, 0
2, 52140, Note_on_c, 0, 66, 31
2, 52200, Note_on_c, 0, 66, 0
2, 52260, Note_on_c, 0, 74, 38
2, 52320, Note_on_c, 0, 74, 0
2, 52380, Note_on_c, 0, 74, 34
2, 52440, Note_on_c, 0, 74, 0
2, 52440, Note_on_c, 0, 70, 38
2, 52500, Note_on_c, 0, 70, 0
2, 52500, Note_on_c, 0, 73, 34
2, 52560, Note_on_c, 0, 73, 0
2, 52560, Note_on_c, 0, 71, 40
2, 52620, Note_on_c, 0, 71, 0
2, 52620, Note_on_c, 0, 66, 35
2, 52680, Note_on_c, 0, 66, 0
2, 52740, Note_on_c, 0, 74, 42
2, 52800, Note_on_c, 0, 74, 0
2, 52860, Note_on_c, 0, 74, 37
2, 52920, Note_on_c, 0, 74, 0
2, 52920, Note_on_c, 0, 70, 44
2, 52980, Note_on_c, 0, 70, 0
2, 52980, Note_on_c, 0, 73, 36
2, 53040, Note_on_c, 0, 73, 0
2, 53040, Note_on_c, 0, 71, 44
2, 53100, Note_on_c, 0, 71, 0
2, 53100, Note_on_c, 0, 66, 35
2, 53160, Note_on_c, 0, 66, 0
2, 53220, Note_on_c, 0, 74, 44
2, 53280, Note_on_c, 0, 74, 0
2, 53340, Note_on_c, 0, 78, 46
2, 53400, Note_on_c, 0, 78, 0
2, 53400, Note_on_c, 0, 70, 51
2, 53460, Note_on_c, 0, 70, 0
2, 53460, Note_on_c, 0, 73, 45
2, 53520, Note_on_c, 0, 73, 0
2, 53520, Note_on_c, 0, 71, 48
2, 53580, Note_on_c, 0, 71, 0
2, 53580, Note_on_c, 0, 66, 42
2, 53640, Note_on_c, 0, 66, 0
2, 53700, Note_on_c, 0, 74, 36
2, 53760, Note_on_c, 0, 74, 0
2, 53820, Note_on_c, 0, 73, 28
2, 53880, Note_on_c, 0, 73, 0
2, 53880, Note_on_c, 0, 68, 36
2, 53940, Note_on_c, 0, 68, 0
2, 53940, Note_on_c, 0, 71, 29
2, 54000, Note_on_c, 0, 71, 0
2, 54000, Note_on_c, 0, 70, 35
2, 54060, Note_on_c, 0, 70, 0
2, 54060, Note_on_c, 0, 66, 30
2, 54120, Note_on_c, 0, 66, 0
2, 54180, Note_on_c, 0, 73, 35
2, 54240, Note_on_c, 0, 73, 0
2, 54300, Note_on_c, 0, 73, 27
2, 54360, Note_on_c, 0, 73, 0
2, 54360, Note_on_c, 0, 68, 34
2, 54420, Note_on_c, 0, 68, 0
2, 54420, Note_on_c, 0, 71, 27
2, 54480, Note_on_c, 0, 71, 0
2, 54480, Note_on_c, 0, 70, 34
2, 54540, Note_on_c, 0, 70, 0
2, 54540, Note_on_c, 0, 66, 28
2, 54600, Note_on_c, 0, 66, 0
2, 54660, Note_on_c, 0, 73, 34
2, 54720, Note_on_c, 0, 73, 0
2, 54780, Note_on_c, 0, 73, 28
2, 54840, Note_on_c, 0, 73, 0
2, 54840, Note_on_c, 0, 68, 34
2, 54900, Note_on_c, 0, 68, 0
2, 54900, Note_on_c, 0, 71, 28
2, 54960, Note_on_c, 0, 71, 0
2, 54960, Note_on_c, 0, 70, 34
2, 55020, Note_on_c, 0, 70, 0
2, 55020, Note_on_c, 0, 66, 28
2, 55080, Note_on_c, 0, 66, 0
2, 55140, Note_on_c, 0, 73, 31
2, 55200, Note_on_c, 0, 73, 0
2, 55260, Note_on_c, 0, 73, 28
2, 55320, Note_on_c, 0, 73, 0
2, 55320, Note_on_c, 0, 68, 31
2, 55380, Note_on_c, 0, 68, 0
2, 55380, Note_on_c, 0, 71, 27
2, 55440, Note_on_c, 0, 71, 0
2, 55440, Note_on_c, 0, 70, 31
2, 55500, Note_on_c, 0, 70, 0
2, 55500, Note_on_c, 0, 66, 25
2, 55560, Note_on_c, 0, 66, 0
2, 55620, Note_on_c, 0, 73, 31
2, 55680, Note_on_c, 0, 73, 0
2, 55740, Note_on_c, 0, 75, 22
2, 55800, Note_on_c, 0, 75, 0
2, 55800, Note_on_c, 0, 70, 28
2, 55860, Note_on_c, 0, 70, 0
2, 55860, Note_on_c, 0, 73, 22
2, 55920, Note_on_c, 0, 73, 0
2, 55920, Note_on_c, 0, 71, 29
2, 55980, Note_on_c, 0, 71, 0
2, 55980, Note_on_c, 0, 66, 23
2, 56040, Note_on_c, 0, 66, 0
2, 56100, Note_on_c, 0, 75, 29
2, 56160, Note_on_c, 0, 75, 0
2, 56220, Note_on_c, 0, 75, 23
2, 56280, Note_on_c, 0, 75, 0
2, 56280, Note_on_c, 0, 70, 29
2, 56340, Note_on_c, 0, 70, 0
2, 56340, Note_on_c, 0, 73, 23
2, 56400, Note_on_c, 0, 73, 0
2, 56400, Note_on_c, 0, 71, 30
2, 56460, Note_on_c, 0, 71, 0
2, 56460, Note_on_c, 0, 66, 23
2, 56520, Note_on_c, 0, 66, 0
2, 56580, Note_on_c, 0, 75, 30
2, 56640, Note_on_c, 0, 75, 0
2, 56700, Note_on_c, 0, 75, 27
2, 56760, Note_on_c, 0, 75, 0
2, 56760, Note_on_c, 0, 70, 31
2, 56820, Note_on_c, 0, 70, 0
2, 56820, Note_on_c, 0, 73, 27
2, 56880, Note_on_c, 0, 73, 0
2, 56880, Note_on_c, 0, 71, 31
2, 56940, Note_on_c, 0, 71, 0
2, 56940, Note_on_c, 0, 66, 30
2, 57000, Note_on_c, 0, 66, 0
2, 57060, Note_on_c, 0, 75, 34
2, 57120, Note_on_c, 0, 75, 0
2, 57180, Note_on_c, 0, 78, 37
2, 57240, Note_on_c, 0, 78, 0
2, 57240, Note_on_c, 0, 70, 38
2, 57300, Note_on_c, 0, 70, 0
2, 57300, Note_on_c, 0, 73, 36
2, 57360, Note_on_c, 0, 73, 0
2, 57360, Note_on_c, 0, 71, 36
2, 57420, Note_on_c, 0, 71, 0
2, 57420, Note_on_c, 0, 66, 34
2, 57480, Note_on_c, 0, 66, 0
2, 57540, Note_on_c, 0, 75, 27
2, 57600, Note_on_c, 0, 75, 0
2, 57660, Note_on_c, 0, 73, 20
2, 57720, Note_on_c, 0, 73, 0
2, 57720, Note_on_c, 0, 68, 27
2, 57780, Note_on_c, 0, 68, 0
2, 57780, Note_on_c, 0, 71, 22
2, 57840, Note_on_c, 0, 71, 0
2, 57840, Note_on_c, 0, 70, 27
2, 57900, Note_on_c, 0, 70, 0
2, 57900, Note_on_c, 0, 66, 23
2, 57960, Note_on_c, 0, 66, 0
2, 58020, Note_on_c, 0, 73, 27
2, 58080, Note_on_c, 0, 73, 0
2, 58140, Note_on_c, 0, 73, 23
2, 58200, Note_on_c, 0, 73, 0
2, 58200, Note_on_c, 0, 68, 28
2, 58260, Note_on_c, 0, 68, 0
2, 58260, Note_on_c, 0, 71, 23
2, 58320, Note_on_c, 0, 71, 0
2, 58320, Note_on_c, 0, 70, 28
2, 58380, Note_on_c, 0, 70, 0
2, 58380, Note_on_c, 0, 66, 22
2, 58440, Note_on_c, 0, 66, 0
2, 58500, Note_on_c, 0, 73, 29
2, 58560, Note_on_c, 0, 73, 0
2, 58620, Note_on_c, 0, 73, 25
2, 58680, Note_on_c, 0, 73, 0
2, 58680, Note_on_c, 0, 68, 29
2, 58740, Note_on_c, 0, 68, 0
2, 58740, Note_on_c, 0, 71, 23
2, 58800, Note_on_c, 0, 71, 0
2, 58800, Note_on_c, 0, 70, 29
2, 58860, Note_on_c, 0, 70, 0
2, 58860, Note_on_c, 0, 66, 23
2, 58920, Note_on_c, 0, 66, 0
2, 58980, Note_on_c, 0, 73, 29
2, 59040, Note_on_c, 0, 73, 0
2, 59100, Note_on_c, 0, 73, 23
2, 59160, Note_on_c, 0, 73, 0
2, 59160, Note_on_c, 0, 68, 30
2, 59220, Note_on_c, 0, 68, 0
2, 59220, Note_on_c, 0, 71, 23
2, 59280, Note_on_c, 0, 71, 0
2, 59280, Note_on_c, 0, 70, 30
2, 59340, Note_on_c, 0, 70, 0
2, 59340, Note_on_c, 0, 66, 23
2, 59400, Note_on_c, 0, 66, 0
2, 59460, Note_on_c, 0, 73, 29
2, 59520, Note_on_c, 0, 73, 0
2, 59580, Note_on_c, 0, 73, 23
2, 59640, Note_on_c, 0, 73, 0
2, 59640, Note_on_c, 0, 68, 29
2, 59700, Note_on_c, 0, 68, 0
2, 59700, Note_on_c, 0, 71, 23
2, 59760, Note_on_c, 0, 71, 0
2, 59760, Note_on_c, 0, 69, 29
2, 59820, Note_on_c, 0, 69, 0
2, 59820, Note_on_c, 0, 66, 25
2, 59880, Note_on_c, 0, 66, 0
2, 59940, Note_on_c, 0, 73, 29
2, 60000, Note_on_c, 0, 73, 0
2, 60060, Note_on_c, 0, 73, 22
2, 60120, Note_on_c, 0, 73, 0
2, 60120, Note_on_c, 0, 68, 29
2, 60180, Note_on_c, 0, 68, 0
2, 60180, Note_on_c, 0, 71, 23
2, 60240, Note_on_c, 0, 71, 0
2, 60240, Note_on_c, 0, 69, 28
2, 60300, Note_on_c, 0, 69, 0
2, 60300, Note_on_c, 0, 66, 23
2, 60360, Note_on_c, 0, 66, 0
2, 60420, Note_on_c, 0, 73, 28
2, 60480, Note_on_c, 0, 73, 0
2, 60540, Note_on_c, 0, 73, 22
2, 60600, Note_on_c, 0, 73, 0
2, 60600, Note_on_c, 0, 68, 28
2, 60660, Note_on_c, 0, 68, 0
2, 60660, Note_on_c, 0, 71, 23
2, 60720, Note_on_c, 0, 71, 0
2, 60720, Note_on_c, 0, 69, 27
2, 60780, Note_on_c, 0, 69, 0
2, 60780, Note_on_c, 0, 66, 22
2, 60840, Note_on_c, 0, 66, 0
2, 60900, Note_on_c, 0, 73, 27
2, 60960, Note_on_c, 0, 73, 0
2, 61020, Note_on_c, 0, 73, 22
2, 61080, Note_on_c, 0, 73, 0
2, 61080, Note_on_c, 0, 68, 27
2, 61140, Note_on_c, 0, 68, 0
2, 61140, Note_on_c, 0, 71, 22
2, 61200, Note_on_c, 0, 71, 0
2, 61200, Note_on_c, 0, 69, 27
2, 61260, Note_on_c, 0, 69, 0
2, 61260, Note_on_c, 0, 66, 23
2, 61320, Note_on_c, 0, 66, 0
2, 61380, Note_on_c, 0, 73, 27
2, 61440, Note_on_c, 0, 73, 0
2, 61440, End_track
3, 0, Start_track
3, 0, Title_t, "Piano right Main"
3, 0, Program_c, 0, 0
3, 0, Control_c, 0, 7, 100
3, 0, Control_c, 0, 10, 64
3, 0, Control_c, 0, 91, 127
3, 0, Note_on_c, 0, 61, 77
3, 360, Note_on_c, 0, 61, 0
3, 360, Note_on_c, 0, 62, 59
3, 480, Note_on_c, 0, 62, 0
3, 480, Note_on_c, 0, 61, 73
3, 840, Note_on_c, 0, 61, 0
3, 840, Note_on_c, 0, 66, 74
3, 960, Note_on_c, 0, 66, 0
3, 960, Note_on_c, 0, 66, 89
3, 1320, Note_on_c, 0, 66, 0
3, 1320, Note_on_c, 0, 65, 62
3, 1440, Note_on_c, 0, 65, 0
3, 1440, Note_on_c, 0, 69, 82
3, 1800, Note_on_c, 0, 69, 0
3, 1800, Note_on_c, 0, 68, 52
3, 1920, Note_on_c, 0, 68, 0
3, 1920, Note_on_c, 0, 61, 80
3, 2280, Note_on_c, 0, 61, 0
3, 2280, Note_on_c, 0, 62, 52
3, 2400, Note_on_c, 0, 62, 0
3, 2400, Note_on_c, 0, 61, 75
3, 2760, Note_on_c, 0, 61, 0
3, 2760, Note_on_c, 0, 66, 73
3, 2880, Note_on_c, 0, 66, 0
3, 2880, Note_on_c, 0, 66, 83
3, 3240, Note_on_c, 0, 66, 0
3, 3240, Note_on_c, 0, 65, 73
3, 3360, Note_on_c, 0, 65, 0
3, 3360, Note_on_c, 0, 69, 83
3, 3720, Note_on_c, 0, 69, 0
3, 3720, Note_on_c, 0, 68, 55
3, 3840, Note_on_c, 0, 68, 0
3, 3840, Note_on_c, 0, 73, 83
3, 4200, Note_on_c, 0, 73, 0
3, 4200, Note_on_c, 0, 75, 62
3, 4320, Note_on_c, 0, 75, 0
3, 4320, Note_on_c, 0, 73, 80
3, 4680, Note_on_c, 0, 73, 0
3, 4680, Note_on_c, 0, 72, 60
3, 4800, Note_on_c, 0, 72, 0
3, 4800, Note_on_c, 0, 71, 77
3, 5160, Note_on_c, 0, 71, 0
3, 5160, Note_on_c, 0, 73, 57
3, 5280, Note_on_c, 0, 73, 0
3, 5280, Note_on_c, 0, 71, 73
3, 5640, Note_on_c, 0, 71, 0
3, 5640, Note_on_c, 0, 70, 57
3, 5760, Note_on_c, 0, 70, 0
3, 5760, Note_on_c, 0, 69, 75
3, 6120, Note_on_c, 0, 69, 0
3, 6120, Note_on_c, 0, 71, 59
3, 6240, Note_on_c, 0, 71, 0
3, 6240, Note_on_c, 0, 69, 73
3, 6600, Note_on_c, 0, 69, 0
3, 6600, Note_on_c, 0, 68, 59
3, 6720, Note_on_c, 0, 68, 0
3, 6720, Note_on_c, 0, 66, 74
3, 7080, Note_on_c, 0, 66, 0
3, 7080, Note_on_c, 0, 65, 57
3, 7200, Note_on_c, 0, 65, 0
3, 7200, Note_on_c, 0, 62, 72
3, 7560, Note_on_c, 0, 62, 0
3, 7560, Note_on_c, 0, 61, 63
3, 7680, Note_on_c, 0, 61, 0
3, 7680, Note_on_c, 0, 61, 84
3, 8040, Note_on_c, 0, 61, 0
3, 8040, Note_on_c, 0, 62, 63
3, 8160, Note_on_c, 0, 62, 0
3, 8160, Note_on_c, 0, 61, 75
3, 8520, Note_on_c, 0, 61, 0
3, 8520, Note_on_c, 0, 66, 71
3, 8640, Note_on_c, 0, 66, 0
3, 8640, Note_on_c, 0, 66, 84
3, 9000, Note_on_c, 0, 66, 0
3, 9000, Note_on_c, 0, 65, 59
3, 9120, Note_on_c, 0, 65, 0
3, 9120, Note_on_c, 0, 69, 77
3, 9480, Note_on_c, 0, 69, 0
3, 9480, Note_on_c, 0, 68, 56
3, 9600, Note_on_c, 0, 68, 0
3, 9600, Note_on_c, 0, 61, 81
3, 9960, Note_on_c, 0, 61, 0
3, 9960, Note_on_c, 0, 62, 58
3, 10080, Note_on_c, 0, 62, 0
3, 10080, Note_on_c, 0, 61, 75
3, 10440, Note_on_c, 0, 61, 0
3, 10440, Note_on_c, 0, 66, 71
3, 10560, Note_on_c, 0, 66, 0
3, 10560, Note_on_c, 0, 69, 85
3, 10920, Note_on_c, 0, 69, 0
3, 10920, Note_on_c, 0, 68, 58
3, 11040, Note_on_c, 0, 68, 0
3, 11040, Note_on_c, 0, 73, 83
3, 11400, Note_on_c, 0, 73, 0
3, 11400, Note_on_c, 0, 71, 66
3, 11520, Note_on_c, 0, 71, 0
3, 11520, Note_on_c, 0, 76, 79
3, 11880, Note_on_c, 0, 76, 0
3, 11880, Note_on_c, 0, 78, 59
3, 12000, Note_on_c, 0, 78, 0
3, 12000, Note_on_c, 0, 76, 75
3, 12360, Note_on_c, 0, 76, 0
3, 12360, Note_on_c, 0, 75, 60
3, 12480, Note_on_c, 0, 75, 0
3, 12480, Note_on_c, 0, 74, 75
3, 12840, Note_on_c, 0, 74, 0
3, 12840, Note_on_c, 0, 76, 55
3, 12960, Note_on_c, 0, 76, 0
3, 12960, Note_on_c, 0, 74, 73
3, 13320, Note_on_c, 0, 74, 0
3, 13320, Note_on_c, 0, 73, 55
3, 13440, Note_on_c, 0, 73, 0
3, 13440, Note_on_c, 0, 72, 76
3, 13800, Note_on_c, 0, 72, 0
3, 13800, Note_on_c, 0, 74, 55
3, 13920, Note_on_c, 0, 74, 0
3, 13920, Note_on_c, 0, 72, 73
3, 14280, Note_on_c, 0, 72, 0
3, 14280, Note_on_c, 0, 71, 55
3, 14400, Note_on_c, 0, 71, 0
3, 14400, Note_on_c, 0, 71, 73
3, 14760, Note_on_c, 0, 71, 0
3, 14760, Note_on_c, 0, 70, 53
3, 14880, Note_on_c, 0, 70, 0
3, 14880, Note_on_c, 0, 70, 67
3, 15240, Note_on_c, 0, 70, 0
3, 15240, Note_on_c, 0, 70, 58
3, 15360, Note_on_c, 0, 70, 0
3, 15360, Note_on_c, 0, 70, 81
3, 15720, Note_on_c, 0, 70, 0
3, 15720, Note_on_c, 0, 69, 58
3, 15840, Note_on_c, 0, 69, 0
3, 15840, Note_on_c, 0, 69, 78
3, 16200, Note_on_c, 0, 69, 0
3, 16200, Note_on_c, 0, 68, 58
3, 16320, Note_on_c, 0, 68, 0
3, 16320, Note_on_c, 0, 68, 83
3, 16680, Note_on_c, 0, 68, 0
3, 16680, Note_on_c, 0, 67, 62
3, 16800, Note_on_c, 0, 67, 0
3, 16800, Note_on_c, 0, 67, 80
3, 17160, Note_on_c, 0, 67, 0
3, 17160, Note_on_c, 0, 72, 62
3, 17280, Note_on_c, 0, 72, 0
3, 17280, Note_on_c, 0, 72, 85
3, 17640, Note_on_c, 0, 72, 0
3, 17640, Note_on_c, 0, 71, 66
3, 17760, Note_on_c, 0, 71, 0
3, 17760, Note_on_c, 0, 71, 82
3, 18120, Note_on_c, 0, 71, 0
3, 18120, Note_on_c, 0, 70, 61
3, 18240, Note_on_c, 0, 70, 0
3, 18240, Note_on_c, 0, 70, 84
3, 18600, Note_on_c, 0, 70, 0
3, 18600, Note_on_c, 0, 69, 62
3, 18720, Note_on_c, 0, 69, 0
3, 18720, Note_on_c, 0, 69, 82
3, 19080, Note_on_c, 0, 69, 0
3, 19080, Note_on_c, 0, 74, 70
3, 19200, Note_on_c, 0, 74, 0
3, 19200, Note_on_c, 0, 74, 90
3, 19560, Note_on_c, 0, 74, 0
3, 19560, Note_on_c, 0, 72, 70
3, 19680, Note_on_c, 0, 72, 0
3, 19680, Note_on_c, 0, 72, 83
3, 20040, Note_on_c, 0, 72, 0
3, 20040, Note_on_c, 0, 70, 66
3, 20160, Note_on_c, 0, 70, 0
3, 20160, Note_on_c, 0, 70, 93
3, 20520, Note_on_c, 0, 70, 0
3, 20520, Note_on_c, 0, 69, 70
3, 20640, Note_on_c, 0, 69, 0
3, 20640, Note_on_c, 0, 69, 88
3, 21000, Note_on_c, 0, 69, 0
3, 21000, Note_on_c, 0, 67, 72
3, 21120, Note_on_c, 0, 67, 0
3, 21120, Note_on_c, 0, 67, 93
3, 21480, Note_on_c, 0, 67, 0
3, 21480, Note_on_c, 0, 65, 77
3, 21600, Note_on_c, 0, 65, 0
3, 21600, Note_on_c, 0, 64, 90
3, 21960, Note_on_c, 0, 64, 0
3, 21960, Note_on_c, 0, 65, 78
3, 22080, Note_on_c, 0, 65, 0
3, 22080, Note_on_c, 0, 65, 97
3, 22440, Note_on_c, 0, 65, 0
3, 22440, Note_on_c, 0, 65, 78
3, 22560, Note_on_c, 0, 65, 0
3, 22560, Note_on_c, 0, 66, 93
3, 22920, Note_on_c, 0, 66, 0
3, 22920, Note_on_c, 0, 66, 77
3, 23040, Note_on_c, 0, 66, 0
3, 23040, Note_on_c, 0, 66, 99
3, 23400, Note_on_c, 0, 66, 0
3, 23400, Note_on_c, 0, 64, 78
3, 23520, Note_on_c, 0, 64, 0
3, 23520, Note_on_c, 0, 64, 93
3, 23880, Note_on_c, 0, 64, 0
3, 23880, Note_on_c, 0, 56, 78
3, 24000, Note_on_c, 0, 56, 0
3, 24000, Note_on_c, 0, 59, 94
3, 24360, Note_on_c, 0, 59, 0
3, 24360, Note_on_c, 0, 59, 73
3, 24480, Note_on_c, 0, 59, 0
3, 24480, Note_on_c, 0, 58, 92
3, 24840, Note_on_c, 0, 58, 0
3, 24840, Note_on_c, 0, 59, 72
3, 24960, Note_on_c, 0, 59, 0
3, 24960, Note_on_c, 0, 60, 96
3, 25320, Note_on_c, 0, 60, 0
3, 25320, Note_on_c, 0, 60, 78
3, 25440, Note_on_c, 0, 60, 0
3, 25440, Note_on_c, 0, 61, 92
3, 25800, Note_on_c, 0, 61, 0
3, 25800, Note_on_c, 0, 62, 84
3, 25920, Note_on_c, 0, 62, 0
3, 25920, Note_on_c, 0, 62, 96
3, 26280, Note_on_c, 0, 62, 0
3, 26280, Note_on_c, 0, 62, 82
3, 26400, Note_on_c, 0, 62, 0
3, 26400, Note_on_c, 0, 63, 98
3, 26760, Note_on_c, 0, 63, 0
3, 26760, Note_on_c, 0, 63, 80
3, 26880, Note_on_c, 0, 63, 0
3, 26880, Note_on_c, 0, 63, 103
3, 27240, Note_on_c, 0, 63, 0
3, 27240, Note_on_c, 0, 63, 85
3, 27360, Note_on_c, 0, 63, 0
3, 27360, Note_on_c, 0, 62, 97
3, 27720, Note_on_c, 0, 62, 0
3, 27720, Note_on_c, 0, 63, 78
3, 27840, Note_on_c, 0, 63, 0
3, 27840, Note_on_c, 0, 65, 100
3, 28200, Note_on_c, 0, 65, 0
3, 28200, Note_on_c, 0, 65, 82
3, 28320, Note_on_c, 0, 65, 0
3, 28320, Note_on_c, 0, 66, 95
3, 28680, Note_on_c, 0, 66, 0
3, 28680, Note_on_c, 0, 65, 80
3, 28800, Note_on_c, 0, 65, 0
3, 28800, Note_on_c, 0, 63, 102
3, 29160, Note_on_c, 0, 63, 0
3, 29160, Note_on_c, 0, 63, 83
3, 29280, Note_on_c, 0, 63, 0
3, 29280, Note_on_c, 0, 62, 96
3, 29640, Note_on_c, 0, 62, 0
3, 29640, Note_on_c, 0, 63, 84
3, 29760, Note_on_c, 0, 63, 0
3, 29760, Note_on_c, 0, 65, 97
3, 30120, Note_on_c, 0, 65, 0
3, 30120, Note_on_c, 0, 65, 79
3, 30240, Note_on_c, 0, 65, 0
3, 30240, Note_on_c, 0, 70, 93
3, 30600, Note_on_c, 0, 70, 0
3, 30600, Note_on_c, 0, 70, 81
3, 30720, Note_on_c, 0, 70, 0
3, 30720, Note_on_c, 0, 63, 80
3, 31080, Note_on_c, 0, 63, 0
3, 31080, Note_on_c, 0, 63, 62
3, 31200, Note_on_c, 0, 63, 0
3, 31200, Note_on_c, 0, 62, 77
3, 31560, Note_on_c, 0, 62, 0
3, 31560, Note_on_c, 0, 63, 64
3, 31680, Note_on_c, 0, 63, 0
3, 31680, Note_on_c, 0, 65, 81
3, 32040, Note_on_c, 0, 65, 0
3, 32040, Note_on_c, 0, 65, 67
3, 32160, Note_on_c, 0, 65, 0
3, 32160, Note_on_c, 0, 66, 85
3, 32520, Note_on_c, 0, 66, 0
3, 32520, Note_on_c, 0, 65, 62
3, 32640, Note_on_c, 0, 65, 0
3, 32640, Note_on_c, 0, 63, 81
3, 33000, Note_on_c, 0, 63, 0
3, 33000, Note_on_c, 0, 63, 66
3, 33120, Note_on_c, 0, 63, 0
3, 33120, Note_on_c, 0, 62, 78
3, 33480, Note_on_c, 0, 62, 0
3, 33480, Note_on_c, 0, 63, 66
3, 33600, Note_on_c, 0, 63, 0
3, 33600, Note_on_c, 0, 65, 84
3, 33960, Note_on_c, 0, 65, 0
3, 33960, Note_on_c, 0, 65, 67
3, 34080, Note_on_c, 0, 65, 0
3, 34080, Note_on_c, 0, 65, 86
3, 34440, Note_on_c, 0, 65, 0
3, 34440, Note_on_c, 0, 61, 77
3, 34560, Note_on_c, 0, 61, 0
3, 34560, Note_on_c, 0, 61, 92
3, 34920, Note_on_c, 0, 61, 0
3, 34920, Note_on_c, 0, 62, 71
3, 35040, Note_on_c, 0, 62, 0
3, 35040, Note_on_c, 0, 61, 83
3, 35400, Note_on_c, 0, 61, 0
3, 35400, Note_on_c, 0, 66, 75
3, 35520, Note_on_c, 0, 66, 0
3, 35520, Note_on_c, 0, 66, 93
3, 35880, Note_on_c, 0, 66, 0
3, 35880, Note_on_c, 0, 65, 70
3, 36000, Note_on_c, 0, 65, 0
3, 36000, Note_on_c, 0, 69, 84
3, 36360, Note_on_c, 0, 69, 0
3, 36360, Note_on_c, 0, 68, 67
3, 36480, Note_on_c, 0, 68, 0
3, 36480, Note_on_c, 0, 61, 93
3, 36840, Note_on_c, 0, 61, 0
3, 36840, Note_on_c, 0, 62, 70
3, 36960, Note_on_c, 0, 62, 0
3, 36960, Note_on_c, 0, 61, 86
3, 37320, Note_on_c, 0, 61, 0
3, 37320, Note_on_c, 0, 66, 79
3, 37440, Note_on_c, 0, 66, 0
3, 37440, Note_on_c, 0, 69, 91
3, 37800, Note_on_c, 0, 69, 0
3, 37800, Note_on_c, 0, 68, 75
3, 37920, Note_on_c, 0, 68, 0
3, 37920, Note_on_c, 0, 73, 100
3, 38280, Note_on_c, 0, 73, 0
3, 38280, Note_on_c, 0, 71, 78
3, 38400, Note_on_c, 0, 71, 0
3, 38400, Note_on_c, 0, 71, 101
3, 38760, Note_on_c, 0, 71, 0
3, 38760, Note_on_c, 0, 70, 84
3, 38880, Note_on_c, 0, 70, 0
3, 38880, Note_on_c, 0, 74, 98
3, 39240, Note_on_c, 0, 74, 0
3, 39240, Note_on_c, 0, 73, 79
3, 39360, Note_on_c, 0, 73, 0
3, 39360, Note_on_c, 0, 73, 107
3, 39720, Note_on_c, 0, 73, 0
3, 39720, Note_on_c, 0, 72, 84
3, 39840, Note_on_c, 0, 72, 0
3, 39840, Note_on_c, 0, 77, 105
3, 40200, Note_on_c, 0, 77, 0
3, 40200, Note_on_c, 0, 78, 84
3, 40320, Note_on_c, 0, 78, 0
3, 40320, Note_on_c, 0, 80, 108
3, 40680, Note_on_c, 0, 80, 0
3, 40680, Note_on_c, 0, 81, 95
3, 40800, Note_on_c, 0, 81, 0
3, 40800, Note_on_c, 0, 80, 106
3, 41160, Note_on_c, 0, 80, 0
3, 41160, Note_on_c, 0, 81, 89
3, 41280, Note_on_c, 0, 81, 0
3, 41280, Note_on_c, 0, 80, 109
3, 41640, Note_on_c, 0, 80, 0
3, 41640, Note_on_c, 0, 81, 92
3, 41760, Note_on_c, 0, 81, 0
3, 41760, Note_on_c, 0, 80, 104
3, 42120, Note_on_c, 0, 80, 0
3, 42120, Note_on_c, 0, 81, 86
3, 42240, Note_on_c, 0, 81, 0
3, 42240, Note_on_c, 0, 81, 109
3, 42600, Note_on_c, 0, 81, 0
3, 42600, Note_on_c, 0, 81, 90
3, 42720, Note_on_c, 0, 81, 0
3, 42720, Note_on_c, 0, 80, 105
3, 43080, Note_on_c, 0, 80, 0
3, 43080, Note_on_c, 0, 80, 86
3, 43200, Note_on_c, 0, 80, 0
3, 43200, Note_on_c, 0, 76, 106
3, 43560, Note_on_c, 0, 76, 0
3, 43560, Note_on_c, 0, 76, 94
3, 43680, Note_on_c, 0, 76, 0
3, 43680, Note_on_c, 0, 73, 100
3, 44040, Note_on_c, 0, 73, 0
3, 44040, Note_on_c, 0, 73, 86
3, 44160, Note_on_c, 0, 73, 0
3, 44160, Note_on_c, 0, 68, 100
3, 44520, Note_on_c, 0, 68, 0
3, 44520, Note_on_c, 0, 68, 84
3, 44640, Note_on_c, 0, 68, 0
3, 44640, Note_on_c, 0, 66, 96
3, 45000, Note_on_c, 0, 66, 0
3, 45000, Note_on_c, 0, 66, 83
3, 45120, Note_on_c, 0, 66, 0
3, 45120, Note_on_c, 0, 64, 100
3, 45480, Note_on_c, 0, 64, 0
3, 45480, Note_on_c, 0, 64, 79
3, 45600, Note_on_c, 0, 64, 0
3, 45600, Note_on_c, 0, 62, 90
3, 45960, Note_on_c, 0, 62, 0
3, 45960, Note_on_c, 0, 62, 76
3, 46080, Note_on_c, 0, 62, 0
3, 46080, Note_on_c, 0, 61, 89
3, 46440, Note_on_c, 0, 61, 0
3, 46440, Note_on_c, 0, 61, 73
3, 46560, Note_on_c, 0, 61, 0
3, 46560, Note_on_c, 0, 61, 87
3, 46920, Note_on_c, 0, 61, 0
3, 46920, Note_on_c, 0, 61, 73
3, 47040, Note_on_c, 0, 61, 0
3, 47040, Note_on_c, 0, 61, 89
3, 47400, Note_on_c, 0, 61, 0
3, 47400, Note_on_c, 0, 61, 72
3, 47520, Note_on_c, 0, 61, 0
3, 47520, Note_on_c, 0, 61, 85
3, 47880, Note_on_c, 0, 61, 0
3, 47880, Note_on_c, 0, 61, 61
3, 48000, Note_on_c, 0, 61, 0
3, 48000, Note_on_c, 0, 61, 89
3, 48360, Note_on_c, 0, 61, 0
3, 48360, Note_on_c, 0, 61, 58
3, 48480, Note_on_c, 0, 61, 0
3, 48480, Note_on_c, 0, 61, 79
3, 48840, Note_on_c, 0, 61, 0
3, 48840, Note_on_c, 0, 61, 58
3, 48960, Note_on_c, 0, 61, 0
3, 48960, Note_on_c, 0, 61, 79
3, 49320, Note_on_c, 0, 61, 0
3, 49320, Note_on_c, 0, 61, 55
3, 49440, Note_on_c, 0, 61, 0
3, 49440, Note_on_c, 0, 61, 73
3, 49800, Note_on_c, 0, 61, 0
3, 49800, Note_on_c, 0, 61, 50
3, 49920, Note_on_c, 0, 61, 0
3, 49920, Note_on_c, 0, 61, 69
3, 50280, Note_on_c, 0, 61, 0
3, 50280, Note_on_c, 0, 61, 52
3, 50400, Note_on_c, 0, 61, 0
3, 50400, Note_on_c, 0, 61, 68
3, 50760, Note_on_c, 0, 61, 0
3, 50760, Note_on_c, 0, 61, 50
3, 50880, Note_on_c, 0, 61, 0
3, 50880, Note_on_c, 0, 61, 69
3, 51240, Note_on_c, 0, 61, 0
3, 51240, Note_on_c, 0, 61, 49
3, 51360, Note_on_c, 0, 61, 0
3, 51360, Note_on_c, 0, 61, 71
3, 51720, Note_on_c, 0, 61, 0
3, 51720, Note_on_c, 0, 61, 49
3, 51840, Note_on_c, 0, 61, 0
3, 51840, Note_on_c, 0, 62, 66
3, 52200, Note_on_c, 0, 62, 0
3, 52200, Note_on_c, 0, 62, 49
3, 52320, Note_on_c, 0, 62, 0
3, 52320, Note_on_c, 0, 62, 63
3, 52680, Note_on_c, 0, 62, 0
3, 52680, Note_on_c, 0, 62, 49
3, 52800, Note_on_c, 0, 62, 0
3, 52800, Note_on_c, 0, 62, 69
3, 53160, Note_on_c, 0, 62, 0
3, 53160, Note_on_c, 0, 62, 50
3, 53280, Note_on_c, 0, 62, 0
3, 53280, Note_on_c, 0, 66, 71
3, 53640, Note_on_c, 0, 66, 0
3, 53640, Note_on_c, 0, 62, 47
3, 53760, Note_on_c, 0, 62, 0
3, 53760, Note_on_c, 0, 61, 59
3, 54120, Note_on_c, 0, 61, 0
3, 54120, Note_on_c, 0, 61, 41
3, 54240, Note_on_c, 0, 61, 0
3, 54240, Note_on_c, 0, 61, 58
3, 54600, Note_on_c, 0, 61, 0
3, 54600, Note_on_c, 0, 61, 41
3, 54720, Note_on_c, 0, 61, 0
3, 54720, Note_on_c, 0, 61, 58
3, 55080, Note_on_c, 0, 61, 0
3, 55080, Note_on_c, 0, 61, 40
3, 55200, Note_on_c, 0, 61, 0
3, 55200, Note_on_c, 0, 61, 58
3, 55560, Note_on_c, 0, 61, 0
3, 55560, Note_on_c, 0, 61, 36
3, 55680, Note_on_c, 0, 61, 0
3, 55680, Note_on_c, 0, 63, 56
3, 56040, Note_on_c, 0, 63, 0
3, 56040, Note_on_c, 0, 63, 38
3, 56160, Note_on_c, 0, 63, 0
3, 56160, Note_on_c, 0, 63, 58
3, 56520, Note_on_c, 0, 63, 0
3, 56520, Note_on_c, 0, 63, 40
3, 56640, Note_on_c, 0, 63, 0
3, 56640, Note_on_c, 0, 63, 61
3, 57000, Note_on_c, 0, 63, 0
3, 57000, Note_on_c, 0, 63, 41
3, 57120, Note_on_c, 0, 63, 0
3, 57120, Note_on_c, 0, 66, 63
3, 57480, Note_on_c, 0, 66, 0
3, 57480, Note_on_c, 0, 63, 37
3, 57600, Note_on_c, 0, 63, 0
3, 57600, Note_on_c, 0, 61, 57
3, 57960, Note_on_c, 0, 61, 0
3, 57960, Note_on_c, 0, 61, 37
3, 58080, Note_on_c, 0, 61, 0
3, 58080, Note_on_c, 0, 61, 56
3, 58440, Note_on_c, 0, 61, 0
3, 58440, Note_on_c, 0, 61, 37
3, 58560, Note_on_c, 0, 61, 0
3, 58560, Note_on_c, 0, 61, 57
3, 58920, Note_on_c, 0, 61, 0
3, 58920, Note_on_c, 0, 61, 41
3, 59040, Note_on_c, 0, 61, 0
3, 59040, Note_on_c, 0, 61, 61
3, 59400, Note_on_c, 0, 61, 0
3, 59400, Note_on_c, 0, 61, 38
3, 59520, Note_on_c, 0, 61, 0
3, 59520, Note_on_c, 0, 61, 58
3, 59880, Note_on_c, 0, 61, 0
3, 59880, Note_on_c, 0, 61, 38
3, 60000, Note_on_c, 0, 61, 0
3, 60000, Note_on_c, 0, 61, 55
3, 60360, Note_on_c, 0, 61, 0
3, 60360, Note_on_c, 0, 61, 34
3, 60480, Note_on_c, 0, 61, 0
3, 60480, Note_on_c, 0, 61, 49
3, 60840, Note_on_c, 0, 61, 0
3, 60840, Note_on_c, 0, 61, 34
3, 60960, Note_on_c, 0, 61, 0
3, 60960, Note_on_c, 0, 61, 44
3, 61320, Note_on_c, 0, 61, 0
3, 61320, Note_on_c, 0, 61, 36
3, 61440, Note_on_c, 0, 61, 0
3, 61440, Note_on_c, 0, 73, 46
3, 61440, Note_on_c, 0, 64, 39
3, 61440, Note_on_c, 0, 61, 39
3, 62400, Note_on_c, 0, 61, 0
3, 62400, Note_on_c, 0, 64, 0
3, 62400, Note_on_c, 0, 73, 0
3, 62400, Note_on_c, 0, 62, 36
3, 62400, Note_on_c, 0, 67, 36
3, 62400, Note_on_c, 0, 71, 43
3, 62880, Note_on_c, 0, 71, 0
3, 62880, Note_on_c, 0, 67, 0
3, 62880, Note_on_c, 0, 62, 0
3, 62880, Note_on_c, 0, 59, 33
3, 62880, Note_on_c, 0, 61, 33
3, 62880, Note_on_c, 0, 65, 39
3, 63360, Note_on_c, 0, 65, 0
3, 63360, Note_on_c, 0, 61, 0
3, 63360, Note_on_c, 0, 59, 0
3, 63360, Note_on_c, 0, 65, 29
3, 63480, Note_on_c, 0, 65, 0
3, 63840, Note_on_c, 0, 61, 25
3, 63960, Note_on_c, 0, 66, 22
3, 65280, Note_on_c, 0, 66, 0
3, 65280, Note_on_c, 0, 61, 0
3, 65280, End_track
4, 0, Start_track
4, 0, Title_t, "Piano left"
4, 0, Program_c, 0, 0
4, 0, Control_c, 0, 7, 100
4, 0, Control_c, 0, 10, 64
4, 0, Control_c, 0, 64, 127
4, 0, Control_c, 0, 91, 127
4, 0, Note_on_c, 0, 57, 44
4, 80, Note_on_c, 0, 57, 0
4, 80, Note_on_c, 0, 49, 37
4, 160, Note_on_c, 0, 49, 0
4, 160, Note_on_c, 0, 54, 39
4, 240, Note_on_c, 0, 54, 0
4, 240, Note_on_c, 0, 42, 34
4, 480, Note_on_c, 0, 42, 0
4, 480, Note_on_c, 0, 57, 47
4, 490, Control_c, 0, 64, 0
4, 512, Control_c, 0, 64, 127
4, 560, Note_on_c, 0, 57, 0
4, 560, Note_on_c, 0, 49, 40
4, 640, Note_on_c, 0, 49, 0
4, 640, Note_on_c, 0, 54, 44
4, 720, Note_on_c, 0, 54, 0
4, 720, Note_on_c, 0, 45, 37
4, 960, Note_on_c, 0, 45, 0
4, 960, Note_on_c, 0, 62, 57
4, 973, Control_c, 0, 64, 0
4, 1015, Control_c, 0, 64, 127
4, 1040, Note_on_c, 0, 62, 0
4, 1040, Note_on_c, 0, 56, 49
4, 1120, Note_on_c, 0, 56, 0
4, 1120, Note_on_c, 0, 59, 52
4, 1200, Note_on_c, 0, 59, 0
4, 1200, Note_on_c, 0, 50, 45
4, 1440, Note_on_c, 0, 50, 0
4, 1440, Note_on_c, 0, 61, 53
4, 1449, Control_c, 0, 64, 0
4, 1492, Control_c, 0, 64, 127
4, 1520, Note_on_c, 0, 61, 0
4, 1520, Note_on_c, 0, 53, 42
4, 1600, Note_on_c, 0, 53, 0
4, 1600, Note_on_c, 0, 59, 50
4, 1680, Note_on_c, 0, 59, 0
4, 1680, Note_on_c, 0, 49, 39
4, 1920, Note_on_c, 0, 49, 0
4, 1920, Note_on_c, 0, 57, 53
4, 1924, Control_c, 0, 64, 0
4, 1963, Control_c, 0, 64, 127
4, 2000, Note_on_c, 0, 57, 0
4, 2000, Note_on_c, 0, 49, 39
4, 2080, Note_on_c, 0, 49, 0
4, 2080, Note_on_c, 0, 54, 48
4, 2160, Note_on_c, 0, 54, 0
4, 2160, Note_on_c, 0, 42, 36
4, 2400, Note_on_c, 0, 42, 0
4, 2400, Note_on_c, 0, 57, 51
4, 2408, Control_c, 0, 64, 0
4, 2449, Control_c, 0, 64, 127
4, 2480, Note_on_c, 0, 57, 0
4, 2480, Note_on_c, 0, 49, 38
4, 2560, Note_on_c, 0, 49, 0
4, 2560, Note_on_c, 0, 54, 46
4, 2640, Note_on_c, 0, 54, 0
4, 2640, Note_on_c, 0, 45, 36
4, 2880, Note_on_c, 0, 45, 0
4, 2880, Note_on_c, 0, 62, 57
4, 2887, Control_c, 0, 64, 0
4, 2912, Control_c, 0, 64, 127
4, 2960, Note_on_c, 0, 62, 0
4, 2960, Note_on_c, 0, 56, 45
4, 3040, Note_on_c, 0, 56, 0
4, 3040, Note_on_c, 0, 59, 51
4, 3120, Note_on_c, 0, 59, 0
4, 3120, Note_on_c, 0, 50, 41
4, 3360, Note_on_c, 0, 50, 0
4, 3360, Note_on_c, 0, 61, 50
4, 3371, Control_c, 0, 64, 0
4, 3409, Control_c, 0, 64, 127
4, 3440, Note_on_c, 0, 61, 0
4, 3440, Note_on_c, 0, 53, 41
4, 3520, Note_on_c, 0, 53, 0
4, 3520, Note_on_c, 0, 59, 44
4, 3600, Note_on_c, 0, 59, 0
4, 3600, Note_on_c, 0, 49, 37
4, 3840, Note_on_c, 0, 49, 0
4, 3840, Note_on_c, 0, 69, 57
4, 3851, Control_c, 0, 64, 0
4, 3883, Control_c, 0, 64, 127
4, 3920, Note_on_c, 0, 69, 0
4, 3920, Note_on_c, 0, 63, 46
4, 4000, Note_on_c, 0, 63, 0
4, 4000, Note_on_c, 0, 66, 55
4, 4080, Note_on_c, 0, 66, 0
4, 4080, Note_on_c, 0, 57, 49
4, 4320, Note_on_c, 0, 57, 0
4, 4320, Note_on_c, 0, 68, 57
4, 4332, Control_c, 0, 64, 0
4, 4369, Control_c, 0, 64, 127
4, 4400, Note_on_c, 0, 68, 0
4, 4400, Note_on_c, 0, 63, 50
4, 4480, Note_on_c, 0, 63, 0
4, 4480, Note_on_c, 0, 66, 57
4, 4560, Note_on_c, 0, 66, 0
4, 4560, Note_on_c, 0, 56, 46
4, 4800, Note_on_c, 0, 56, 0
4, 4800, Note_on_c, 0, 67, 59
4, 4806, Control_c, 0, 64, 0
4, 4840, Control_c, 0, 64, 127
4, 4880, Note_on_c, 0, 67, 0
4, 4880, Note_on_c, 0, 61, 49
4, 4960, Note_on_c, 0, 61, 0
4, 4960, Note_on_c, 0, 64, 57
4, 5040, Note_on_c, 0, 64, 0
4, 5040, Note_on_c, 0, 55, 44
4, 5280, Note_on_c, 0, 55, 0
4, 5280, Note_on_c, 0, 66, 57
4, 5293, Control_c, 0, 64, 0
4, 5335, Control_c, 0, 64, 127
4, 5360, Note_on_c, 0, 66, 0
4, 5360, Note_on_c, 0, 61, 47
4, 5440, Note_on_c, 0, 61, 0
4, 5440, Note_on_c, 0, 64, 53
4, 5520, Note_on_c, 0, 64, 0
4, 5520, Note_on_c, 0, 54, 46
4, 5760, Note_on_c, 0, 54, 0
4, 5760, Note_on_c, 0, 65, 58
4, 5769, Control_c, 0, 64, 0
4, 5806, Control_c, 0, 64, 127
4, 5840, Note_on_c, 0, 65, 0
4, 5840, Note_on_c, 0, 60, 49
4, 5920, Note_on_c, 0, 60, 0
4, 5920, Note_on_c, 0, 63, 55
4, 6000, Note_on_c, 0, 63, 0
4, 6000, Note_on_c, 0, 53, 45
4, 6240, Note_on_c, 0, 53, 0
4, 6240, Note_on_c, 0, 65, 55
4, 6244, Control_c, 0, 64, 0
4, 6297, Control_c, 0, 64, 127
4, 6320, Note_on_c, 0, 65, 0
4, 6320, Note_on_c, 0, 59, 48
4, 6400, Note_on_c, 0, 59, 0
4, 6400, Note_on_c, 0, 62, 52
4, 6480, Note_on_c, 0, 62, 0
4, 6480, Note_on_c, 0, 53, 46
4, 6720, Note_on_c, 0, 53, 0
4, 6720, Note_on_c, 0, 62, 57
4, 6732, Control_c, 0, 64, 0
4, 6769, Control_c, 0, 64, 127
4, 6800, Note_on_c, 0, 62, 0
4, 6800, Note_on_c, 0, 56, 51
4, 6880, Note_on_c, 0, 56, 0
4, 6880, Note_on_c, 0, 59, 53
4, 6960, Note_on_c, 0, 59, 0
4, 6960, Note_on_c, 0, 50, 48
4, 7200, Note_on_c, 0, 50, 0
4, 7200, Note_on_c, 0, 59, 58
4, 7212, Control_c, 0, 64, 0
4, 7240, Control_c, 0, 64, 127
4, 7280, Note_on_c, 0, 59, 0
4, 7280, Note_on_c, 0, 49, 46
4, 7360, Note_on_c, 0, 49, 0
4, 7360, Note_on_c, 0, 53, 51
4, 7440, Note_on_c, 0, 53, 0
4, 7440, Note_on_c, 0, 37, 42
4, 7680, Note_on_c, 0, 37, 0
4, 7680, Note_on_c, 0, 57, 56
4, 7689, Control_c, 0, 64, 0
4, 7729, Control_c, 0, 64, 127
4, 7760, Note_on_c, 0, 57, 0
4, 7760, Note_on_c, 0, 49, 44
4, 7840, Note_on_c, 0, 49, 0
4, 7840, Note_on_c, 0, 54, 50
4, 7920, Note_on_c, 0, 54, 0
4, 7920, Note_on_c, 0, 42, 38
4, 8160, Note_on_c, 0, 42, 0
4, 8160, Note_on_c, 0, 57, 59
4, 8163, Control_c, 0, 64, 0
4, 8203, Control_c, 0, 64, 127
4, 8240, Note_on_c, 0, 57, 0
4, 8240, Note_on_c, 0, 49, 49
4, 8320, Note_on_c, 0, 49, 0
4, 8320, Note_on_c, 0, 54, 53
4, 8400, Note_on_c, 0, 54, 0
4, 8400, Note_on_c, 0, 45, 45
4, 8640, Note_on_c, 0, 45, 0
4, 8640, Note_on_c, 0, 62, 60
4, 8646, Control_c, 0, 64, 0
4, 8695, Control_c, 0, 64, 127
4, 8720, Note_on_c, 0, 62, 0
4, 8720, Note_on_c, 0, 56, 49
4, 8800, Note_on_c, 0, 56, 0
4, 8800, Note_on_c, 0, 59, 55
4, 8880, Note_on_c, 0, 59, 0
4, 8880, Note_on_c, 0, 50, 44
4, 9120, Note_on_c, 0, 50, 0
4, 9120, Note_on_c, 0, 61, 56
4, 9127, Control_c, 0, 64, 0
4, 9169, Control_c, 0, 64, 127
4, 9200, Note_on_c, 0, 61, 0
4, 9200, Note_on_c, 0, 53, 39
4, 9280, Note_on_c, 0, 53, 0
4, 9280, Note_on_c, 0, 59, 48
4, 9360, Note_on_c, 0, 59, 0
4, 9360, Note_on_c, 0, 49, 37
4, 9600, Note_on_c, 0, 49, 0
4, 9600, Note_on_c, 0, 57, 58
4, 9605, Control_c, 0, 64, 0
4, 9646, Control_c, 0, 64, 127
4, 9680, Note_on_c, 0, 57, 0
4, 9680, Note_on_c, 0, 49, 40
4, 9760, Note_on_c, 0, 49, 0
4, 9760, Note_on_c, 0, 54, 50
4, 9840, Note_on_c, 0, 54, 0
4, 9840, Note_on_c, 0, 42, 40
4, 10080, Note_on_c, 0, 42, 0
4, 10080, Note_on_c, 0, 57, 57
4, 10092, Control_c, 0, 64, 0
4, 10129, Control_c, 0, 64, 127
4, 10160, Note_on_c, 0, 57, 0
4, 10160, Note_on_c, 0, 49, 40
4, 10240, Note_on_c, 0, 49, 0
4, 10240, Note_on_c, 0, 54, 48
4, 10320, Note_on_c, 0, 54, 0
4, 10320, Note_on_c, 0, 45, 39
4, 10560, Note_on_c, 0, 45, 0
4, 10560, Note_on_c, 0, 65, 60
4, 10569, Control_c, 0, 64, 0
4, 10609, Control_c, 0, 64, 127
4, 10640, Note_on_c, 0, 65, 0
4, 10640, Note_on_c, 0, 59, 42
4, 10720, Note_on_c, 0, 59, 0
4, 10720, Note_on_c, 0, 62, 49
4, 10800, Note_on_c, 0, 62, 0
4, 10800, Note_on_c, 0, 53, 41
4, 11040, Note_on_c, 0, 53, 0
4, 11040, Note_on_c, 0, 64, 58
4, 11055, Control_c, 0, 64, 0
4, 11097, Control_c, 0, 64, 127
4, 11120, Note_on_c, 0, 64, 0
4, 11120, Note_on_c, 0, 56, 44
4, 11200, Note_on_c, 0, 56, 0
4, 11200, Note_on_c, 0, 62, 50
4, 11280, Note_on_c, 0, 62, 0
4, 11280, Note_on_c, 0, 52, 42
4, 11520, Note_on_c, 0, 52, 0
4, 11520, Note_on_c, 0, 72, 58
4, 11526, Control_c, 0, 64, 0
4, 11563, Control_c, 0, 64, 127
4, 11600, Note_on_c, 0, 72, 0
4, 11600, Note_on_c, 0, 66, 46
4, 11680, Note_on_c, 0, 66, 0
4, 11680, Note_on_c, 0, 69, 50
4, 11760, Note_on_c, 0, 69, 0
4, 11760, Note_on_c, 0, 60, 42
4, 12000, Note_on_c, 0, 60, 0
4, 12000, Note_on_c, 0, 71, 59
4, 12006, Control_c, 0, 64, 0
4, 12037, Control_c, 0, 64, 127
4, 12080, Note_on_c, 0, 71, 0
4, 12080, Note_on_c, 0, 66, 46
4, 12160, Note_on_c, 0, 66, 0
4, 12160, Note_on_c, 0, 69, 50
4, 12240, Note_on_c, 0, 69, 0
4, 12240, Note_on_c, 0, 59, 41
4, 12480, Note_on_c, 0, 59, 0
4, 12480, Note_on_c, 0, 70, 57
4, 12490, Control_c, 0, 64, 0
4, 12535, Control_c, 0, 64, 127
4, 12560, Note_on_c, 0, 70, 0
4, 12560, Note_on_c, 0, 65, 46
4, 12640, Note_on_c, 0, 65, 0
4, 12640, Note_on_c, 0, 68, 51
4, 12720, Note_on_c, 0, 68, 0
4, 12720, Note_on_c, 0, 58, 44
4, 12960, Note_on_c, 0, 58, 0
4, 12960, Note_on_c, 0, 69, 57
4, 12971, Control_c, 0, 64, 0
4, 13006, Control_c, 0, 64, 127
4, 13040, Note_on_c, 0, 69, 0
4, 13040, Note_on_c, 0, 64, 45
4, 13120, Note_on_c, 0, 64, 0
4, 13120, Note_on_c, 0, 67, 51
4, 13200, Note_on_c, 0, 67, 0
4, 13200, Note_on_c, 0, 57, 40
4, 13440, Note_on_c, 0, 57, 0
4, 13440, Note_on_c, 0, 68, 52
4, 13447, Control_c, 0, 64, 0
4, 13480, Control_c, 0, 64, 127
4, 13520, Note_on_c, 0, 68, 0
4, 13520, Note_on_c, 0, 63, 46
4, 13600, Note_on_c, 0, 63, 0
4, 13600, Note_on_c, 0, 66, 51
4, 13680, Note_on_c, 0, 66, 0
4, 13680, Note_on_c, 0, 56, 42
4, 13920, Note_on_c, 0, 56, 0
4, 13920, Note_on_c, 0, 67, 55
4, 13929, Control_c, 0, 64, 0
4, 13963, Control_c, 0, 64, 127
4, 14000, Note_on_c, 0, 67, 0
4, 14000, Note_on_c, 0, 62, 45
4, 14080, Note_on_c, 0, 62, 0
4, 14080, Note_on_c, 0, 65, 49
4, 14160, Note_on_c, 0, 65, 0
4, 14160, Note_on_c, 0, 55, 40
4, 14400, Note_on_c, 0, 55, 0
4, 14400, Note_on_c, 0, 67, 55
4, 14408, Control_c, 0, 64, 0
4, 14449, Control_c, 0, 64, 127
4, 14480, Note_on_c, 0, 67, 0
4, 14480, Note_on_c, 0, 61, 42
4, 14560, Note_on_c, 0, 61, 0
4, 14560, Note_on_c, 0, 64, 49
4, 14640, Note_on_c, 0, 64, 0
4, 14640, Note_on_c, 0, 55, 42
4, 14880, Note_on_c, 0, 55, 0
4, 14880, Note_on_c, 0, 66, 53
4, 14895, Control_c, 0, 64, 0
4, 14940, Control_c, 0, 64, 127
4, 14960, Note_on_c, 0, 66, 0
4, 14960, Note_on_c, 0, 61, 40
4, 15040, Note_on_c, 0, 61, 0
4, 15040, Note_on_c, 0, 64, 47
4, 15120, Note_on_c, 0, 64, 0
4, 15120, Note_on_c, 0, 54, 40
4, 15360, Note_on_c, 0, 54, 0
4, 15360, Note_on_c, 0, 65, 52
4, 15366, Control_c, 0, 64, 0
4, 15394, Control_c, 0, 64, 127
4, 15440, Note_on_c, 0, 65, 0
4, 15440, Note_on_c, 0, 58, 40
4, 15520, Note_on_c, 0, 58, 0
4, 15520, Note_on_c, 0, 62, 49
4, 15600, Note_on_c, 0, 62, 0
4, 15600, Note_on_c, 0, 53, 39
4, 15840, Note_on_c, 0, 53, 0
4, 15840, Note_on_c, 0, 65, 51
4, 15847, Control_c, 0, 64, 0
4, 15879, Control_c, 0, 64, 127
4, 15920, Note_on_c, 0, 65, 0
4, 15920, Note_on_c, 0, 59, 41
4, 16000, Note_on_c, 0, 59, 0
4, 16000, Note_on_c, 0, 62, 48
4, 16080, Note_on_c, 0, 62, 0
4, 16080, Note_on_c, 0, 53, 41
4, 16320, Note_on_c, 0, 53, 0
4, 16320, Note_on_c, 0, 65, 53
4, 16330, Control_c, 0, 64, 0
4, 16368, Control_c, 0, 64, 127
4, 16400, Note_on_c, 0, 65, 0
4, 16400, Note_on_c, 0, 55, 42
4, 16480, Note_on_c, 0, 55, 0
4, 16480, Note_on_c, 0, 59, 49
4, 16560, Note_on_c, 0, 59, 0
4, 16560, Note_on_c, 0, 53, 41
4, 16800, Note_on_c, 0, 53, 0
4, 16800, Note_on_c, 0, 63, 53
4, 16804, Control_c, 0, 64, 0
4, 16848, Control_c, 0, 64, 127
4, 16880, Note_on_c, 0, 63, 0
4, 16880, Note_on_c, 0, 55, 45
4, 16960, Note_on_c, 0, 55, 0
4, 16960, Note_on_c, 0, 60, 50
4, 17040, Note_on_c, 0, 60, 0
4, 17040, Note_on_c, 0, 53, 41
4, 17280, Note_on_c, 0, 53, 0
4, 17280, Note_on_c, 0, 67, 56
4, 17291, Control_c, 0, 64, 0
4, 17320, Control_c, 0, 64, 127
4, 17360, Note_on_c, 0, 67, 0
4, 17360, Note_on_c, 0, 60, 46
4, 17440, Note_on_c, 0, 60, 0
4, 17440, Note_on_c, 0, 63, 50
4, 17520, Note_on_c, 0, 63, 0
4, 17520, Note_on_c, 0, 53, 40
4, 17760, Note_on_c, 0, 53, 0
4, 17760, Note_on_c, 0, 67, 55
4, 17768, Control_c, 0, 64, 0
4, 17809, Control_c, 0, 64, 127
4, 17840, Note_on_c, 0, 67, 0
4, 17840, Note_on_c, 0, 61, 45
4, 17920, Note_on_c, 0, 61, 0
4, 17920, Note_on_c, 0, 64, 51
4, 18000, Note_on_c, 0, 64, 0
4, 18000, Note_on_c, 0, 53, 39
4, 18240, Note_on_c, 0, 53, 0
4, 18240, Note_on_c, 0, 67, 55
4, 18248, Control_c, 0, 64, 0
4, 18289, Control_c, 0, 64, 127
4, 18320, Note_on_c, 0, 67, 0
4, 18320, Note_on_c, 0, 57, 48
4, 18400, Note_on_c, 0, 57, 0
4, 18400, Note_on_c, 0, 61, 52
4, 18480, Note_on_c, 0, 61, 0
4, 18480, Note_on_c, 0, 53, 40
4, 18720, Note_on_c, 0, 53, 0
4, 18720, Note_on_c, 0, 65, 56
4, 18729, Control_c, 0, 64, 0
4, 18772, Control_c, 0, 64, 127
4, 18800, Note_on_c, 0, 65, 0
4, 18800, Note_on_c, 0, 57, 50
4, 18880, Note_on_c, 0, 57, 0
4, 18880, Note_on_c, 0, 62, 52
4, 18960, Note_on_c, 0, 62, 0
4, 18960, Note_on_c, 0, 53, 47
4, 19200, Note_on_c, 0, 53, 0
4, 19200, Note_on_c, 0, 65, 61
4, 19212, Control_c, 0, 64, 0
4, 19252, Control_c, 0, 64, 127
4, 19280, Note_on_c, 0, 65, 0
4, 19280, Note_on_c, 0, 57, 51
4, 19360, Note_on_c, 0, 57, 0
4, 19360, Note_on_c, 0, 63, 57
4, 19440, Note_on_c, 0, 63, 0
4, 19440, Note_on_c, 0, 53, 48
4, 19680, Note_on_c, 0, 53, 0
4, 19680, Note_on_c, 0, 62, 62
4, 19689, Control_c, 0, 64, 0
4, 19717, Control_c, 0, 64, 127
4, 19760, Note_on_c, 0, 62, 0
4, 19760, Note_on_c, 0, 53, 49
4, 19840, Note_on_c, 0, 53, 0
4, 19840, Note_on_c, 0, 58, 57
4, 19920, Note_on_c, 0, 58, 0
4, 19920, Note_on_c, 0, 46, 47
4, 20160, Note_on_c, 0, 46, 0
4, 20160, Note_on_c, 0, 62, 58
4, 20169, Control_c, 0, 64, 0
4, 20200, Control_c, 0, 64, 127
4, 20240, Note_on_c, 0, 62, 0
4, 20240, Note_on_c, 0, 54, 51
4, 20320, Note_on_c, 0, 54, 0
4, 20320, Note_on_c, 0, 60, 58
4, 20400, Note_on_c, 0, 60, 0
4, 20400, Note_on_c, 0, 50, 49
4, 20640, Note_on_c, 0, 50, 0
4, 20640, Note_on_c, 0, 58, 61
4, 20646, Control_c, 0, 64, 0
4, 20700, Control_c, 0, 64, 127
4, 20720, Note_on_c, 0, 58, 0
4, 20720, Note_on_c, 0, 50, 50
4, 20800, Note_on_c, 0, 50, 0
4, 20800, Note_on_c, 0, 55, 56
4, 20880, Note_on_c, 0, 55, 0
4, 20880, Note_on_c, 0, 43, 45
4, 21120, Note_on_c, 0, 43, 0
4, 21120, Note_on_c, 0, 58, 62
4, 21129, Control_c, 0, 64, 0
4, 21163, Control_c, 0, 64, 127
4, 21200, Note_on_c, 0, 58, 0
4, 21200, Note_on_c, 0, 50, 56
4, 21280, Note_on_c, 0, 50, 0
4, 21280, Note_on_c, 0, 56, 63
4, 21360, Note_on_c, 0, 56, 0
4, 21360, Note_on_c, 0, 46, 53
4, 21600, Note_on_c, 0, 46, 0
4, 21600, Note_on_c, 0, 58, 62
4, 21607, Control_c, 0, 64, 0
4, 21655, Control_c, 0, 64, 127
4, 21680, Note_on_c, 0, 58, 0
4, 21680, Note_on_c, 0, 50, 58
4, 21760, Note_on_c, 0, 50, 0
4, 21760, Note_on_c, 0, 56, 63
4, 21840, Note_on_c, 0, 56, 0
4, 21840, Note_on_c, 0, 46, 56
4, 22080, Note_on_c, 0, 46, 0
4, 22080, Note_on_c, 0, 56, 64
4, 22092, Control_c, 0, 64, 0
4, 22135, Control_c, 0, 64, 127
4, 22160, Note_on_c, 0, 56, 0
4, 22160, Note_on_c, 0, 46, 58
4, 22240, Note_on_c, 0, 46, 0
4, 22240, Note_on_c, 0, 50, 64
4, 22320, Note_on_c, 0, 50, 0
4, 22320, Note_on_c, 0, 39, 58
4, 22560, Note_on_c, 0, 39, 0
4, 22560, Note_on_c, 0, 54, 67
4, 22575, Control_c, 0, 64, 0
4, 22609, Control_c, 0, 64, 127
4, 22640, Note_on_c, 0, 54, 0
4, 22640, Note_on_c, 0, 46, 60
4, 22720, Note_on_c, 0, 46, 0
4, 22720, Note_on_c, 0, 51, 63
4, 22800, Note_on_c, 0, 51, 0
4, 22800, Note_on_c, 0, 39, 57
4, 23040, Note_on_c, 0, 39, 0
4, 23040, Note_on_c, 0, 56, 65
4, 23045, Control_c, 0, 64, 0
4, 23083, Control_c, 0, 64, 127
4, 23120, Note_on_c, 0, 56, 0
4, 23120, Note_on_c, 0, 44, 56
4, 23200, Note_on_c, 0, 44, 0
4, 23200, Note_on_c, 0, 49, 64
4, 23280, Note_on_c, 0, 49, 0
4, 23280, Note_on_c, 0, 40, 56
4, 23520, Note_on_c, 0, 40, 0
4, 23520, Note_on_c, 0, 56, 65
4, 23532, Control_c, 0, 64, 0
4, 23566, Control_c, 0, 64, 127
4, 23600, Note_on_c, 0, 56, 0
4, 23600, Note_on_c, 0, 44, 63
4, 23680, Note_on_c, 0, 44, 0
4, 23680, Note_on_c, 0, 49, 66
4, 23760, Note_on_c, 0, 49, 0
4, 23760, Note_on_c, 0, 40, 60
4, 24000, Note_on_c, 0, 40, 0
4, 24000, Note_on_c, 0, 54, 69
4, 24012, Control_c, 0, 64, 0
4, 24060, Control_c, 0, 64, 127
4, 24080, Note_on_c, 0, 54, 0
4, 24080, Note_on_c, 0, 47, 63
4, 24160, Note_on_c, 0, 47, 0
4, 24160, Note_on_c, 0, 51, 66
4, 24240, Note_on_c, 0, 51, 0
4, 24240, Note_on_c, 0, 42, 57
4, 24480, Note_on_c, 0, 42, 0
4, 24480, Note_on_c, 0, 54, 70
4, 24489, Control_c, 0, 64, 0
4, 24532, Control_c, 0, 64, 127
4, 24560, Note_on_c, 0, 54, 0
4, 24560, Note_on_c, 0, 47, 63
4, 24640, Note_on_c, 0, 47, 0
4, 24640, Note_on_c, 0, 51, 69
4, 24720, Note_on_c, 0, 51, 0
4, 24720, Note_on_c, 0, 42, 63
4, 24960, Note_on_c, 0, 42, 0
4, 24960, Note_on_c, 0, 54, 77
4, 24967, Control_c, 0, 64, 0
4, 24997, Control_c, 0, 64, 127
4, 25040, Note_on_c, 0, 54, 0
4, 25040, Note_on_c, 0, 46, 65
4, 25120, Note_on_c, 0, 46, 0
4, 25120, Note_on_c, 0, 52, 72
4, 25200, Note_on_c, 0, 52, 0
4, 25200, Note_on_c, 0, 42, 64
4, 25440, Note_on_c, 0, 42, 0
4, 25440, Note_on_c, 0, 54, 75
4, 25446, Control_c, 0, 64, 0
4, 25489, Control_c, 0, 64, 127
4, 25520, Note_on_c, 0, 54, 0
4, 25520, Note_on_c, 0, 46, 63
4, 25600, Note_on_c, 0, 46, 0
4, 25600, Note_on_c, 0, 52, 72
4, 25680, Note_on_c, 0, 52, 0
4, 25680, Note_on_c, 0, 42, 64
4, 25920, Note_on_c, 0, 42, 0
4, 25920, Note_on_c, 0, 52, 81
4, 25928, Control_c, 0, 64, 0
4, 25966, Control_c, 0, 64, 127
4, 26000, Note_on_c, 0, 52, 0
4, 26000, Note_on_c, 0, 42, 65
4, 26080, Note_on_c, 0, 42, 0
4, 26080, Note_on_c, 0, 46, 72
4, 26160, Note_on_c, 0, 46, 0
4, 26160, Note_on_c, 0, 35, 65
4, 26400, Note_on_c, 0, 35, 0
4, 26400, Note_on_c, 0, 51, 75
4, 26406, Control_c, 0, 64, 0
4, 26437, Control_c, 0, 64, 127
4, 26480, Note_on_c, 0, 51, 0
4, 26480, Note_on_c, 0, 42, 64
4, 26560, Note_on_c, 0, 42, 0
4, 26560, Note_on_c, 0, 47, 70
4, 26640, Note_on_c, 0, 47, 0
4, 26640, Note_on_c, 0, 35, 61
4, 26880, Note_on_c, 0, 35, 0
4, 26880, Note_on_c, 0, 56, 77
4, 26886, Control_c, 0, 64, 0
4, 26926, Control_c, 0, 64, 127
4, 26960, Note_on_c, 0, 56, 0
4, 26960, Note_on_c, 0, 47, 66
4, 27040, Note_on_c, 0, 47, 0
4, 27040, Note_on_c, 0, 51, 73
4, 27120, Note_on_c, 0, 51, 0
4, 27120, Note_on_c, 0, 41, 67
4, 27360, Note_on_c, 0, 41, 0
4, 27360, Note_on_c, 0, 56, 76
4, 27367, Control_c, 0, 64, 0
4, 27415, Control_c, 0, 64, 127
4, 27440, Note_on_c, 0, 56, 0
4, 27440, Note_on_c, 0, 47, 70
4, 27520, Note_on_c, 0, 47, 0
4, 27520, Note_on_c, 0, 51, 77
4, 27600, Note_on_c, 0, 51, 0
4, 27600, Note_on_c, 0, 41, 72
4, 27840, Note_on_c, 0, 41, 0
4, 27840, Note_on_c, 0, 62, 83
4, 27855, Control_c, 0, 64, 0
4, 27883, Control_c, 0, 64, 127
4, 27920, Note_on_c, 0, 62, 0
4, 27920, Note_on_c, 0, 53, 71
4, 28000, Note_on_c, 0, 53, 0
4, 28000, Note_on_c, 0, 58, 77
4, 28080, Note_on_c, 0, 58, 0
4, 28080, Note_on_c, 0, 46, 71
4, 28320, Note_on_c, 0, 46, 0
4, 28320, Note_on_c, 0, 62, 79
4, 28329, Control_c, 0, 64, 0
4, 28369, Control_c, 0, 64, 127
4, 28400, Note_on_c, 0, 62, 0
4, 28400, Note_on_c, 0, 53, 72
4, 28480, Note_on_c, 0, 53, 0
4, 28480, Note_on_c, 0, 58, 76
4, 28560, Note_on_c, 0, 58, 0
4, 28560, Note_on_c, 0, 46, 71
4, 28800, Note_on_c, 0, 46, 0
4, 28800, Note_on_c, 0, 56, 82
4, 28811, Control_c, 0, 64, 0
4, 28837, Control_c, 0, 64, 95
4, 28880, Note_on_c, 0, 56, 0
4, 28880, Note_on_c, 0, 47, 72
4, 28960, Note_on_c, 0, 47, 0
4, 28960, Note_on_c, 0, 51, 76
4, 29040, Note_on_c, 0, 51, 0
4, 29040, Note_on_c, 0, 41, 72
4, 29280, Note_on_c, 0, 41, 0
4, 29280, Note_on_c, 0, 56, 77
4, 29292, Control_c, 0, 64, 0
4, 29335, Control_c, 0, 64, 127
4, 29360, Note_on_c, 0, 56, 0
4, 29360, Note_on_c, 0, 47, 68
4, 29440, Note_on_c, 0, 47, 0
4, 29440, Note_on_c, 0, 51, 73
4, 29520, Note_on_c, 0, 51, 0
4, 29520, Note_on_c, 0, 41, 65
4, 29760, Note_on_c, 0, 41, 0
4, 29760, Note_on_c, 0, 62, 82
4, 29767, Control_c, 0, 64, 0
4, 29806, Control_c, 0, 64, 127
4, 29840, Note_on_c, 0, 62, 0
4, 29840, Note_on_c, 0, 53, 71
4, 29920, Note_on_c, 0, 53, 0
4, 29920, Note_on_c, 0, 58, 77
4, 30000, Note_on_c, 0, 58, 0
4, 30000, Note_on_c, 0, 46, 70
4, 30240, Note_on_c, 0, 46, 0
4, 30240, Note_on_c, 0, 62, 75
4, 30255, Control_c, 0, 64, 0
4, 30283, Control_c, 0, 64, 127
4, 30320, Note_on_c, 0, 62, 0
4, 30320, Note_on_c, 0, 53, 66
4, 30400, Note_on_c, 0, 53, 0
4, 30400, Note_on_c, 0, 58, 72
4, 30480, Note_on_c, 0, 58, 0
4, 30480, Note_on_c, 0, 46, 66
4, 30720, Note_on_c, 0, 46, 0
4, 30720, Note_on_c, 0, 56, 59
4, 30730, Control_c, 0, 64, 0
4, 30763, Control_c, 0, 64, 127
4, 30800, Note_on_c, 0, 56, 0
4, 30800, Note_on_c, 0, 47, 48
4, 30880, Note_on_c, 0, 47, 0
4, 30880, Note_on_c, 0, 51, 55
4, 30960, Note_on_c, 0, 51, 0
4, 30960, Note_on_c, 0, 41, 42
4, 31200, Note_on_c, 0, 41, 0
4, 31200, Note_on_c, 0, 56, 56
4, 31209, Control_c, 0, 64, 0
4, 31249, Control_c, 0, 64, 127
4, 31280, Note_on_c, 0, 56, 0
4, 31280, Note_on_c, 0, 47, 48
4, 31360, Note_on_c, 0, 47, 0
4, 31360, Note_on_c, 0, 51, 53
4, 31440, Note_on_c, 0, 51, 0
4, 31440, Note_on_c, 0, 41, 41
4, 31680, Note_on_c, 0, 41, 0
4, 31680, Note_on_c, 0, 62, 56
4, 31695, Control_c, 0, 64, 0
4, 31740, Control_c, 0, 64, 127
4, 31760, Note_on_c, 0, 62, 0
4, 31760, Note_on_c, 0, 53, 44
4, 31840, Note_on_c, 0, 53, 0
4, 31840, Note_on_c, 0, 58, 52
4, 31920, Note_on_c, 0, 58, 0
4, 31920, Note_on_c, 0, 46, 42
4, 32160, Note_on_c, 0, 46, 0
4, 32160, Note_on_c, 0, 62, 56
4, 32170, Control_c, 0, 64, 0
4, 32209, Control_c, 0, 64, 127
4, 32240, Note_on_c, 0, 62, 0
4, 32240, Note_on_c, 0, 53, 48
4, 32320, Note_on_c, 0, 53, 0
4, 32320, Note_on_c, 0, 58, 53
4, 32400, Note_on_c, 0, 58, 0
4, 32400, Note_on_c, 0, 46, 45
4, 32640, Note_on_c, 0, 46, 0
4, 32640, Note_on_c, 0, 56, 58
4, 32650, Control_c, 0, 64, 0
4, 32683, Control_c, 0, 64, 127
4, 32720, Note_on_c, 0, 56, 0
4, 32720, Note_on_c, 0, 47, 49
4, 32800, Note_on_c, 0, 47, 0
4, 32800, Note_on_c, 0, 51, 52
4, 32880, Note_on_c, 0, 51, 0
4, 32880, Note_on_c, 0, 41, 45
4, 33120, Note_on_c, 0, 41, 0
4, 33120, Note_on_c, 0, 56, 57
4, 33126, Control_c, 0, 64, 0
4, 33157, Control_c, 0, 64, 127
4, 33200, Note_on_c, 0, 56, 0
4, 33200, Note_on_c, 0, 47, 47
4, 33280, Note_on_c, 0, 47, 0
4, 33280, Note_on_c, 0, 51, 53
4, 33360, Note_on_c, 0, 51, 0
4, 33360, Note_on_c, 0, 41, 47
4, 33600, Note_on_c, 0, 41, 0
4, 33600, Note_on_c, 0, 62, 60
4, 33615, Control_c, 0, 64, 0
4, 33655, Control_c, 0, 64, 127
4, 33680, Note_on_c, 0, 62, 0
4, 33680, Note_on_c, 0, 53, 53
4, 33760, Note_on_c, 0, 53, 0
4, 33760, Note_on_c, 0, 58, 58
4, 33840, Note_on_c, 0, 58, 0
4, 33840, Note_on_c, 0, 46, 50
4, 34080, Note_on_c, 0, 46, 0
4, 34080, Note_on_c, 0, 59, 61
4, 34091, Control_c, 0, 64, 0
4, 34126, Control_c, 0, 64, 127
4, 34160, Note_on_c, 0, 59, 0
4, 34160, Note_on_c, 0, 49, 53
4, 34240, Note_on_c, 0, 49, 0
4, 34240, Note_on_c, 0, 53, 62
4, 34320, Note_on_c, 0, 53, 0
4, 34320, Note_on_c, 0, 44, 55
4, 34560, Note_on_c, 0, 44, 0
4, 34560, Note_on_c, 0, 57, 64
4, 34568, Control_c, 0, 64, 0
4, 34612, Control_c, 0, 64, 127
4, 34640, Note_on_c, 0, 57, 0
4, 34640, Note_on_c, 0, 49, 55
4, 34720, Note_on_c, 0, 49, 0
4, 34720, Note_on_c, 0, 54, 59
4, 34800, Note_on_c, 0, 54, 0
4, 34800, Note_on_c, 0, 42, 57
4, 35040, Note_on_c, 0, 42, 0
4, 35040, Note_on_c, 0, 57, 66
4, 35048, Control_c, 0, 64, 0
4, 35083, Control_c, 0, 64, 127
4, 35120, Note_on_c, 0, 57, 0
4, 35120, Note_on_c, 0, 49, 55
4, 35200, Note_on_c, 0, 49, 0
4, 35200, Note_on_c, 0, 54, 61
4, 35280, Note_on_c, 0, 54, 0
4, 35280, Note_on_c, 0, 45, 56
4, 35520, Note_on_c, 0, 45, 0
4, 35520, Note_on_c, 0, 62, 70
4, 35532, Control_c, 0, 64, 0
4, 35569, Control_c, 0, 64, 127
4, 35600, Note_on_c, 0, 62, 0
4, 35600, Note_on_c, 0, 56, 59
4, 35680, Note_on_c, 0, 56, 0
4, 35680, Note_on_c, 0, 59, 64
4, 35760, Note_on_c, 0, 59, 0
4, 35760, Note_on_c, 0, 54, 59
4, 36000, Note_on_c, 0, 54, 0
4, 36000, Note_on_c, 0, 61, 70
4, 36006, Control_c, 0, 64, 0
4, 36052, Control_c, 0, 64, 127
4, 36080, Note_on_c, 0, 61, 0
4, 36080, Note_on_c, 0, 53, 59
4, 36160, Note_on_c, 0, 53, 0
4, 36160, Note_on_c, 0, 59, 66
4, 36240, Note_on_c, 0, 59, 0
4, 36240, Note_on_c, 0, 49, 58
4, 36480, Note_on_c, 0, 49, 0
4, 36480, Note_on_c, 0, 57, 73
4, 36486, Control_c, 0, 64, 0
4, 36529, Control_c, 0, 64, 127
4, 36560, Note_on_c, 0, 57, 0
4, 36560, Note_on_c, 0, 49, 60
4, 36640, Note_on_c, 0, 49, 0
4, 36640, Note_on_c, 0, 54, 68
4, 36720, Note_on_c, 0, 54, 0
4, 36720, Note_on_c, 0, 42, 58
4, 36960, Note_on_c, 0, 42, 0
4, 36960, Note_on_c, 0, 57, 73
4, 36971, Control_c, 0, 64, 0
4, 36995, Control_c, 0, 64, 127
4, 37040, Note_on_c, 0, 57, 0
4, 37040, Note_on_c, 0, 49, 60
4, 37120, Note_on_c, 0, 49, 0
4, 37120, Note_on_c, 0, 54, 64
4, 37200, Note_on_c, 0, 54, 0
4, 37200, Note_on_c, 0, 45, 58
4, 37440, Note_on_c, 0, 45, 0
4, 37440, Note_on_c, 0, 65, 72
4, 37449, Control_c, 0, 64, 0
4, 37489, Control_c, 0, 64, 127
4, 37520, Note_on_c, 0, 65, 0
4, 37520, Note_on_c, 0, 59, 60
4, 37600, Note_on_c, 0, 59, 0
4, 37600, Note_on_c, 0, 62, 66
4, 37680, Note_on_c, 0, 62, 0
4, 37680, Note_on_c, 0, 53, 58
4, 37920, Note_on_c, 0, 53, 0
4, 37920, Note_on_c, 0, 64, 74
4, 37932, Control_c, 0, 64, 0
4, 37963, Control_c, 0, 64, 127
4, 38000, Note_on_c, 0, 64, 0
4, 38000, Note_on_c, 0, 56, 59
4, 38080, Note_on_c, 0, 56, 0
4, 38080, Note_on_c, 0, 62, 66
4, 38160, Note_on_c, 0, 62, 0
4, 38160, Note_on_c, 0, 52, 60
4, 38400, Note_on_c, 0, 52, 0
4, 38400, Note_on_c, 0, 67, 78
4, 38413, Control_c, 0, 64, 0
4, 38449, Control_c, 0, 64, 127
4, 38480, Note_on_c, 0, 67, 0
4, 38480, Note_on_c, 0, 61, 66
4, 38560, Note_on_c, 0, 61, 0
4, 38560, Note_on_c, 0, 64, 73
4, 38640, Note_on_c, 0, 64, 0
4, 38640, Note_on_c, 0, 55, 62
4, 38880, Note_on_c, 0, 55, 0
4, 38880, Note_on_c, 0, 66, 82
4, 38889, Control_c, 0, 64, 0
4, 38935, Control_c, 0, 64, 127
4, 38960, Note_on_c, 0, 66, 0
4, 38960, Note_on_c, 0, 58, 70
4, 39040, Note_on_c, 0, 58, 0
4, 39040, Note_on_c, 0, 64, 77
4, 39120, Note_on_c, 0, 64, 0
4, 39120, Note_on_c, 0, 54, 68
4, 39360, Note_on_c, 0, 54, 0
4, 39360, Note_on_c, 0, 69, 86
4, 39367, Control_c, 0, 64, 0
4, 39412, Control_c, 0, 64, 127
4, 39440, Note_on_c, 0, 69, 0
4, 39440, Note_on_c, 0, 63, 72
4, 39520, Note_on_c, 0, 63, 0
4, 39520, Note_on_c, 0, 66, 79
4, 39600, Note_on_c, 0, 66, 0
4, 39600, Note_on_c, 0, 57, 73
4, 39840, Note_on_c, 0, 57, 0
4, 39840, Note_on_c, 0, 72, 86
4, 39852, Control_c, 0, 64, 0
4, 39892, Control_c, 0, 64, 127
4, 39920, Note_on_c, 0, 72, 0
4, 39920, Note_on_c, 0, 66, 74
4, 40000, Note_on_c, 0, 66, 0
4, 40000, Note_on_c, 0, 69, 79
4, 40080, Note_on_c, 0, 69, 0
4, 40080, Note_on_c, 0, 60, 74
4, 40320, Note_on_c, 0, 60, 0
4, 40320, Note_on_c, 0, 78, 89
4, 40330, Control_c, 0, 64, 0
4, 40369, Control_c, 0, 64, 127
4, 40400, Note_on_c, 0, 78, 0
4, 40400, Note_on_c, 0, 69, 76
4, 40480, Note_on_c, 0, 69, 0
4, 40480, Note_on_c, 0, 72, 84
4, 40560, Note_on_c, 0, 72, 0
4, 40560, Note_on_c, 0, 63, 76
4, 40800, Note_on_c, 0, 63, 0
4, 40800, Note_on_c, 0, 78, 85
4, 40880, Note_on_c, 0, 78, 0
4, 40880, Note_on_c, 0, 69, 78
4, 40960, Note_on_c, 0, 69, 0
4, 40960, Note_on_c, 0, 72, 87
4, 41040, Note_on_c, 0, 72, 0
4, 41040, Note_on_c, 0, 63, 78
4, 41280, Note_on_c, 0, 63, 0
4, 41280, Note_on_c, 0, 78, 88
4, 41292, Control_c, 0, 64, 0
4, 41340, Control_c, 0, 64, 127
4, 41360, Note_on_c, 0, 78, 0
4, 41360, Note_on_c, 0, 69, 78
4, 41440, Note_on_c, 0, 69, 0
4, 41440, Note_on_c, 0, 72, 87
4, 41520, Note_on_c, 0, 72, 0
4, 41520, Note_on_c, 0, 62, 77
4, 41760, Note_on_c, 0, 62, 0
4, 41760, Note_on_c, 0, 78, 90
4, 41840, Note_on_c, 0, 78, 0
4, 41840, Note_on_c, 0, 69, 81
4, 41920, Note_on_c, 0, 69, 0
4, 41920, Note_on_c, 0, 72, 87
4, 42000, Note_on_c, 0, 72, 0
4, 42000, Note_on_c, 0, 62, 77
4, 42240, Note_on_c, 0, 62, 0
4, 42240, Note_on_c, 0, 78, 89
4, 42249, Control_c, 0, 64, 0
4, 42275, Control_c, 0, 64, 127
4, 42320, Note_on_c, 0, 78, 0
4, 42320, Note_on_c, 0, 69, 76
4, 42400, Note_on_c, 0, 69, 0
4, 42400, Note_on_c, 0, 73, 83
4, 42480, Note_on_c, 0, 73, 0
4, 42480, Note_on_c, 0, 61, 75
4, 42720, Note_on_c, 0, 61, 0
4, 42720, Note_on_c, 0, 76, 87
4, 42728, Control_c, 0, 64, 0
4, 42760, Control_c, 0, 64, 127
4, 42800, Note_on_c, 0, 76, 0
4, 42800, Note_on_c, 0, 68, 77
4, 42880, Note_on_c, 0, 68, 0
4, 42880, Note_on_c, 0, 73, 83
4, 42960, Note_on_c, 0, 73, 0
4, 42960, Note_on_c, 0, 61, 74
4, 43200, Note_on_c, 0, 61, 0
4, 43200, Note_on_c, 0, 73, 87
4, 43212, Control_c, 0, 64, 0
4, 43246, Control_c, 0, 64, 127
4, 43280, Note_on_c, 0, 73, 0
4, 43280, Note_on_c, 0, 64, 77
4, 43360, Note_on_c, 0, 64, 0
4, 43360, Note_on_c, 0, 69, 84
4, 43440, Note_on_c, 0, 69, 0
4, 43440, Note_on_c, 0, 57, 76
4, 43680, Note_on_c, 0, 57, 0
4, 43680, Note_on_c, 0, 69, 80
4, 43694, Control_c, 0, 64, 0
4, 43732, Control_c, 0, 64, 127
4, 43760, Note_on_c, 0, 69, 0
4, 43760, Note_on_c, 0, 61, 73
4, 43840, Note_on_c, 0, 61, 0
4, 43840, Note_on_c, 0, 66, 79
4, 43920, Note_on_c, 0, 66, 0
4, 43920, Note_on_c, 0, 54, 74
4, 44160, Note_on_c, 0, 54, 0
4, 44160, Note_on_c, 0, 64, 84
4, 44167, Control_c, 0, 64, 0
4, 44206, Control_c, 0, 64, 127
4, 44240, Note_on_c, 0, 64, 0
4, 44240, Note_on_c, 0, 56, 68
4, 44320, Note_on_c, 0, 56, 0
4, 44320, Note_on_c, 0, 61, 78
4, 44400, Note_on_c, 0, 61, 0
4, 44400, Note_on_c, 0, 49, 67
4, 44640, Note_on_c, 0, 49, 0
4, 44640, Note_on_c, 0, 62, 78
4, 44652, Control_c, 0, 64, 0
4, 44683, Control_c, 0, 64, 127
4, 44720, Note_on_c, 0, 62, 0
4, 44720, Note_on_c, 0, 54, 67
4, 44800, Note_on_c, 0, 54, 0
4, 44800, Note_on_c, 0, 57, 74
4, 44880, Note_on_c, 0, 57, 0
4, 44880, Note_on_c, 0, 50, 68
4, 45120, Note_on_c, 0, 50, 0
4, 45120, Note_on_c, 0, 61, 78
4, 45132, Control_c, 0, 64, 0
4, 45172, Control_c, 0, 64, 127
4, 45200, Note_on_c, 0, 61, 0
4, 45200, Note_on_c, 0, 52, 70
4, 45280, Note_on_c, 0, 52, 0
4, 45280, Note_on_c, 0, 57, 79
4, 45360, Note_on_c, 0, 57, 0
4, 45360, Note_on_c, 0, 45, 67
4, 45600, Note_on_c, 0, 45, 0
4, 45600, Note_on_c, 0, 59, 77
4, 45609, Control_c, 0, 64, 0
4, 45649, Control_c, 0, 64, 127
4, 45680, Note_on_c, 0, 59, 0
4, 45680, Note_on_c, 0, 50, 67
4, 45760, Note_on_c, 0, 50, 0
4, 45760, Note_on_c, 0, 55, 77
4, 45840, Note_on_c, 0, 55, 0
4, 45840, Note_on_c, 0, 47, 69
4, 46080, Note_on_c, 0, 47, 0
4, 46080, Note_on_c, 0, 57, 81
4, 46093, Control_c, 0, 64, 0
4, 46130, Control_c, 0, 64, 127
4, 46160, Note_on_c, 0, 57, 0
4, 46160, Note_on_c, 0, 45, 67
4, 46240, Note_on_c, 0, 45, 0
4, 46240, Note_on_c, 0, 49, 75
4, 46320, Note_on_c, 0, 49, 0
4, 46320, Note_on_c, 0, 37, 66
4, 46560, Note_on_c, 0, 37, 0
4, 46560, Note_on_c, 0, 57, 82
4, 46640, Note_on_c, 0, 57, 0
4, 46640, Note_on_c, 0, 45, 66
4, 46720, Note_on_c, 0, 45, 0
4, 46720, Note_on_c, 0, 49, 76
4, 46800, Note_on_c, 0, 49, 0
4, 46800, Note_on_c, 0, 37, 68
4, 47040, Note_on_c, 0, 37, 0
4, 47040, Note_on_c, 0, 56, 80
4, 47047, Control_c, 0, 64, 0
4, 47083, Control_c, 0, 64, 127
4, 47120, Note_on_c, 0, 56, 0
4, 47120, Note_on_c, 0, 45, 67
4, 47200, Note_on_c, 0, 45, 0
4, 47200, Note_on_c, 0, 49, 73
4, 47280, Note_on_c, 0, 49, 0
4, 47280, Note_on_c, 0, 37, 68
4, 47520, Note_on_c, 0, 37, 0
4, 47520, Note_on_c, 0, 54, 78
4, 47534, Control_c, 0, 64, 0
4, 47570, Control_c, 0, 64, 127
4, 47600, Note_on_c, 0, 54, 0
4, 47600, Note_on_c, 0, 45, 68
4, 47680, Note_on_c, 0, 45, 0
4, 47680, Note_on_c, 0, 49, 77
4, 47760, Note_on_c, 0, 49, 0
4, 47760, Note_on_c, 0, 37, 70
4, 48000, Note_on_c, 0, 37, 0
4, 48000, Note_on_c, 0, 54, 75
4, 48007, Control_c, 0, 64, 0
4, 48046, Control_c, 0, 64, 127
4, 48080, Note_on_c, 0, 54, 0
4, 48080, Note_on_c, 0, 44, 63
4, 48160, Note_on_c, 0, 44, 0
4, 48160, Note_on_c, 0, 49, 64
4, 48240, Note_on_c, 0, 49, 0
4, 48240, Note_on_c, 0, 37, 57
4, 48480, Note_on_c, 0, 37, 0
4, 48480, Note_on_c, 0, 54, 73
4, 48560, Note_on_c, 0, 54, 0
4, 48560, Note_on_c, 0, 44, 61
4, 48640, Note_on_c, 0, 44, 0
4, 48640, Note_on_c, 0, 49, 66
4, 48720, Note_on_c, 0, 49, 0
4, 48720, Note_on_c, 0, 37, 58
4, 48960, Note_on_c, 0, 37, 0
4, 48960, Note_on_c, 0, 53, 75
4, 48967, Control_c, 0, 64, 0
4, 48997, Control_c, 0, 64, 127
4, 49040, Note_on_c, 0, 53, 0
4, 49040, Note_on_c, 0, 44, 64
4, 49120, Note_on_c, 0, 44, 0
4, 49120, Note_on_c, 0, 49, 69
4, 49200, Note_on_c, 0, 49, 0
4, 49200, Note_on_c, 0, 37, 56
4, 49440, Note_on_c, 0, 37, 0
4, 49440, Note_on_c, 0, 53, 74
4, 49449, Control_c, 0, 64, 0
4, 49489, Control_c, 0, 64, 127
4, 49520, Note_on_c, 0, 53, 0
4, 49520, Note_on_c, 0, 44, 54
4, 49600, Note_on_c, 0, 44, 0
4, 49600, Note_on_c, 0, 49, 60
4, 49680, Note_on_c, 0, 49, 0
4, 49680, Note_on_c, 0, 37, 49
4, 49920, Note_on_c, 0, 37, 0
4, 49920, Note_on_c, 0, 57, 49
4, 49926, Control_c, 0, 64, 0
4, 49970, Control_c, 0, 64, 127
4, 50000, Note_on_c, 0, 57, 0
4, 50000, Note_on_c, 0, 49, 39
4, 50080, Note_on_c, 0, 49, 0
4, 50080, Note_on_c, 0, 54, 45
4, 50160, Note_on_c, 0, 54, 0
4, 50160, Note_on_c, 0, 42, 38
4, 50400, Note_on_c, 0, 42, 0
4, 50400, Note_on_c, 0, 57, 49
4, 50480, Note_on_c, 0, 57, 0
4, 50480, Note_on_c, 0, 49, 39
4, 50560, Note_on_c, 0, 49, 0
4, 50560, Note_on_c, 0, 54, 44
4, 50640, Note_on_c, 0, 54, 0
4, 50640, Note_on_c, 0, 42, 37
4, 50880, Note_on_c, 0, 42, 0
4, 50880, Note_on_c, 0, 57, 49
4, 50960, Note_on_c, 0, 57, 0
4, 50960, Note_on_c, 0, 49, 39
4, 51040, Note_on_c, 0, 49, 0
4, 51040, Note_on_c, 0, 54, 45
4, 51120, Note_on_c, 0, 54, 0
4, 51120, Note_on_c, 0, 42, 38
4, 51360, Note_on_c, 0, 42, 0
4, 51360, Note_on_c, 0, 57, 49
4, 51440, Note_on_c, 0, 57, 0
4, 51440, Note_on_c, 0, 49, 39
4, 51520, Note_on_c, 0, 49, 0
4, 51520, Note_on_c, 0, 54, 49
4, 51600, Note_on_c, 0, 54, 0
4, 51600, Note_on_c, 0, 42, 45
4, 51840, Note_on_c, 0, 42, 0
4, 51840, Note_on_c, 0, 54, 49
4, 51849, Control_c, 0, 64, 0
4, 51892, Control_c, 0, 64, 127
4, 51920, Note_on_c, 0, 54, 0
4, 51920, Note_on_c, 0, 42, 41
4, 52000, Note_on_c, 0, 42, 0
4, 52000, Note_on_c, 0, 47, 49
4, 52080, Note_on_c, 0, 47, 0
4, 52080, Note_on_c, 0, 35, 39
4, 52320, Note_on_c, 0, 35, 0
4, 52320, Note_on_c, 0, 54, 49
4, 52400, Note_on_c, 0, 54, 0
4, 52400, Note_on_c, 0, 42, 40
4, 52480, Note_on_c, 0, 42, 0
4, 52480, Note_on_c, 0, 47, 45
4, 52560, Note_on_c, 0, 47, 0
4, 52560, Note_on_c, 0, 35, 39
4, 52800, Note_on_c, 0, 35, 0
4, 52800, Note_on_c, 0, 54, 49
4, 52880, Note_on_c, 0, 54, 0
4, 52880, Note_on_c, 0, 42, 41
4, 52960, Note_on_c, 0, 42, 0
4, 52960, Note_on_c, 0, 47, 49
4, 53040, Note_on_c, 0, 47, 0
4, 53040, Note_on_c, 0, 35, 39
4, 53280, Note_on_c, 0, 35, 0
4, 53280, Note_on_c, 0, 54, 50
4, 53360, Note_on_c, 0, 54, 0
4, 53360, Note_on_c, 0, 42, 41
4, 53440, Note_on_c, 0, 42, 0
4, 53440, Note_on_c, 0, 47, 46
4, 53520, Note_on_c, 0, 47, 0
4, 53520, Note_on_c, 0, 35, 40
4, 53760, Note_on_c, 0, 35, 0
4, 53760, Note_on_c, 0, 58, 39
4, 53772, Control_c, 0, 64, 0
4, 53812, Control_c, 0, 64, 127
4, 53840, Note_on_c, 0, 58, 0
4, 53840, Note_on_c, 0, 49, 36
4, 53920, Note_on_c, 0, 49, 0
4, 53920, Note_on_c, 0, 54, 37
4, 54000, Note_on_c, 0, 54, 0
4, 54000, Note_on_c, 0, 42, 35
4, 54240, Note_on_c, 0, 42, 0
4, 54240, Note_on_c, 0, 58, 39
4, 54320, Note_on_c, 0, 58, 0
4, 54320, Note_on_c, 0, 49, 35
4, 54400, Note_on_c, 0, 49, 0
4, 54400, Note_on_c, 0, 54, 36
4, 54480, Note_on_c, 0, 54, 0
4, 54480, Note_on_c, 0, 42, 34
4, 54720, Note_on_c, 0, 42, 0
4, 54720, Note_on_c, 0, 58, 39
4, 54800, Note_on_c, 0, 58, 0
4, 54800, Note_on_c, 0, 49, 34
4, 54880, Note_on_c, 0, 49, 0
4, 54880, Note_on_c, 0, 54, 37
4, 54960, Note_on_c, 0, 54, 0
4, 54960, Note_on_c, 0, 42, 31
4, 55200, Note_on_c, 0, 42, 0
4, 55200, Note_on_c, 0, 58, 39
4, 55280, Note_on_c, 0, 58, 0
4, 55280, Note_on_c, 0, 49, 31
4, 55360, Note_on_c, 0, 49, 0
4, 55360, Note_on_c, 0, 54, 38
4, 55440, Note_on_c, 0, 54, 0
4, 55440, Note_on_c, 0, 42, 33
4, 55680, Note_on_c, 0, 42, 0
4, 55680, Note_on_c, 0, 54, 39
4, 55691, Control_c, 0, 64, 0
4, 55717, Control_c, 0, 64, 127
4, 55760, Note_on_c, 0, 54, 0
4, 55760, Note_on_c, 0, 42, 34
4, 55840, Note_on_c, 0, 42, 0
4, 55840, Note_on_c, 0, 47, 36
4, 55920, Note_on_c, 0, 47, 0
4, 55920, Note_on_c, 0, 35, 33
4, 56160, Note_on_c, 0, 35, 0
4, 56160, Note_on_c, 0, 54, 39
4, 56240, Note_on_c, 0, 54, 0
4, 56240, Note_on_c, 0, 42, 34
4, 56320, Note_on_c, 0, 42, 0
4, 56320, Note_on_c, 0, 47, 37
4, 56400, Note_on_c, 0, 47, 0
4, 56400, Note_on_c, 0, 35, 33
4, 56640, Note_on_c, 0, 35, 0
4, 56640, Note_on_c, 0, 54, 38
4, 56720, Note_on_c, 0, 54, 0
4, 56720, Note_on_c, 0, 42, 36
4, 56800, Note_on_c, 0, 42, 0
4, 56800, Note_on_c, 0, 47, 38
4, 56880, Note_on_c, 0, 47, 0
4, 56880, Note_on_c, 0, 35, 34
4, 57120, Note_on_c, 0, 35, 0
4, 57120, Note_on_c, 0, 54, 40
4, 57200, Note_on_c, 0, 54, 0
4, 57200, Note_on_c, 0, 42, 34
4, 57280, Note_on_c, 0, 42, 0
4, 57280, Note_on_c, 0, 47, 39
4, 57360, Note_on_c, 0, 47, 0
4, 57360, Note_on_c, 0, 35, 36
4, 57600, Note_on_c, 0, 35, 0
4, 57600, Note_on_c, 0, 58, 39
4, 57614, Control_c, 0, 64, 0
4, 57666, Control_c, 0, 64, 127
4, 57680, Note_on_c, 0, 58, 0
4, 57680, Note_on_c, 0, 49, 34
4, 57760, Note_on_c, 0, 49, 0
4, 57760, Note_on_c, 0, 54, 38
4, 57840, Note_on_c, 0, 54, 0
4, 57840, Note_on_c, 0, 42, 34
4, 58080, Note_on_c, 0, 42, 0
4, 58080, Note_on_c, 0, 58, 39
4, 58160, Note_on_c, 0, 58, 0
4, 58160, Note_on_c, 0, 49, 31
4, 58240, Note_on_c, 0, 49, 0
4, 58240, Note_on_c, 0, 54, 37
4, 58320, Note_on_c, 0, 54, 0
4, 58320, Note_on_c, 0, 42, 31
4, 58560, Note_on_c, 0, 42, 0
4, 58560, Note_on_c, 0, 58, 39
4, 58640, Note_on_c, 0, 58, 0
4, 58640, Note_on_c, 0, 49, 34
4, 58720, Note_on_c, 0, 49, 0
4, 58720, Note_on_c, 0, 54, 39
4, 58800, Note_on_c, 0, 54, 0
4, 58800, Note_on_c, 0, 42, 35
4, 59040, Note_on_c, 0, 42, 0
4, 59040, Note_on_c, 0, 58, 39
4, 59120, Note_on_c, 0, 58, 0
4, 59120, Note_on_c, 0, 49, 34
4, 59200, Note_on_c, 0, 49, 0
4, 59200, Note_on_c, 0, 54, 38
4, 59280, Note_on_c, 0, 54, 0
4, 59280, Note_on_c, 0, 42, 34
4, 59520, Note_on_c, 0, 42, 0
4, 59520, Note_on_c, 0, 57, 39
4, 59531, Control_c, 0, 64, 0
4, 59584, Control_c, 0, 64, 127
4, 59600, Note_on_c, 0, 57, 0
4, 59600, Note_on_c, 0, 49, 33
4, 59680, Note_on_c, 0, 49, 0
4, 59680, Note_on_c, 0, 54, 37
4, 59760, Note_on_c, 0, 54, 0
4, 59760, Note_on_c, 0, 42, 35
4, 60000, Note_on_c, 0, 42, 0
4, 60000, Note_on_c, 0, 57, 39
4, 60080, Note_on_c, 0, 57, 0
4, 60080, Note_on_c, 0, 49, 35
4, 60160, Note_on_c, 0, 49, 0
4, 60160, Note_on_c, 0, 54, 39
4, 60240, Note_on_c, 0, 54, 0
4, 60240, Note_on_c, 0, 42, 36
4, 60480, Note_on_c, 0, 42, 0
4, 60480, Note_on_c, 0, 57, 37
4, 60560, Note_on_c, 0, 57, 0
4, 60560, Note_on_c, 0, 49, 34
4, 60640, Note_on_c, 0, 49, 0
4, 60640, Note_on_c, 0, 54, 37
4, 60720, Note_on_c, 0, 54, 0
4, 60720, Note_on_c, 0, 42, 33
4, 60960, Note_on_c, 0, 42, 0
4, 60960, Note_on_c, 0, 57, 35
4, 61040, Note_on_c, 0, 57, 0
4, 61040, Note_on_c, 0, 49, 30
4, 61120, Note_on_c, 0, 49, 0
4, 61120, Note_on_c, 0, 54, 34
4, 61200, Note_on_c, 0, 54, 0
4, 61200, Note_on_c, 0, 42, 31
4, 61440, Note_on_c, 0, 42, 0
4, 61440, Note_on_c, 0, 45, 31
4, 61440, Note_on_c, 0, 52, 31
4, 61440, Note_on_c, 0, 57, 37
4, 61448, Control_c, 0, 64, 0
4, 61738, Control_c, 0, 64, 127
4, 62400, Note_on_c, 0, 57, 0
4, 62400, Note_on_c, 0, 52, 0
4, 62400, Note_on_c, 0, 45, 0
4, 62400, Note_on_c, 0, 47, 27
4, 62400, Note_on_c, 0, 55, 32
4, 62412, Control_c, 0, 64, 0
4, 62566, Control_c, 0, 64, 127
4, 62880, Note_on_c, 0, 55, 0
4, 62880, Note_on_c, 0, 47, 0
4, 62880, Note_on_c, 0, 49, 23
4, 62880, Note_on_c, 0, 56, 28
4, 62890, Control_c, 0, 64, 0
4, 63029, Control_c, 0, 64, 127
4, 63360, Note_on_c, 0, 56, 0
4, 63360, Note_on_c, 0, 49, 0
4, 63364, Control_c, 0, 64, 0
4, 63429, Control_c, 0, 64, 127
4, 63480, Note_on_c, 0, 42, 31
4, 63600, Note_on_c, 0, 49, 31
4, 63720, Note_on_c, 0, 57, 31
4, 65280, Note_on_c, 0, 57, 0
4, 65280, Note_on_c, 0, 49, 0
4, 65280, Note_on_c, 0, 42, 0
4, 66854, Control_c, 0, 64, 0
4, 66854, End_track
5, 0, Start_track
5, 0, Title_t, "Chopin: Prelude No.8 in F#-, Op. 28"
5, 0, End_track
6, 0, Start_track
6, 0, Title_t, "Copyright © 1997 by Bernd Krueger"
6, 0, End_track
7, 0, Start_track
7, 0, Title_t, "http://www.piano-midi.de"
7, 0, End_track
8, 0, Start_track
8, 0, Title_t, "Edition: 2014-02-20"
8, 0, End_track
0, 0, End_of_file
