0, 0, Header, 1, 8, 480
1, 0, Start_track
1, 0, Title_t, "Etüde Opus 10 No. 5"
1, 0, Title_t, "Schwarze-Tasten-Etüde"
1, 0, Copyright_t, "Copyright © 1999 von Bernd Krüger."
1, 0, Text_t, "Chopin"
1, 0, Text_t, "Vivace"
1, 0, Text_t, "Fertiggestellt am 30.3.99\012"
1, 0, Text_t, "Update am 1.4.99\012"
1, 0, Text_t, "Update am 21.4.99\012"
1, 0, Text_t, "Normierung: 23.12.2002\012"
1, 0, Text_t, "Dauer: 1:31\012"
1, 0, Time_signature, 2, 2, 24, 8
1, 0, Key_signature, -6, "major"
1, 0, Tempo, 517241
1, 0, Marker_t, "Vivace"
1, 3360, Tempo, 530973
1, 3840, Tempo, 517241
1, 6480, Tempo, 538117
1, 7200, Tempo, 560748
1, 7680, Tempo, 530973
1, 7920, Tempo, 517241
1, 11040, Tempo, 526316
1, 11520, Tempo, 517241
1, 14160, Tempo, 533333
1, 14880, Tempo, 555556
1, 15360, Tempo, 528634
1, 15600, Tempo, 524017
1, 15840, Tempo, 512821
1, 16080, Tempo, 517241
1, 16320, Tempo, 528634
1, 16560, Tempo, 510638
1, 16800, Tempo, 517241
1, 17520, Tempo, 528634
1, 17760, Tempo, 512821
1, 19200, Tempo, 526316
1, 19680, Tempo, 517241
1, 20880, Tempo, 535714
1, 21120, Tempo, 524017
1, 21600, Tempo, 517241
1, 22080, Tempo, 528634
1, 22320, Tempo, 519481
1, 22800, Tempo, 533333
1, 23040, Tempo, 533333
1, 23280, Tempo, 524017
1, 24960, Tempo, 530973
1, 25440, Tempo, 524017
1, 28800, Tempo, 533333
1, 29760, Tempo, 550459
1, 30480, Tempo, 585366
1, 30720, Tempo, 530973
1, 32160, Tempo, 550459
1, 32640, Tempo, 530973
1, 34080, Tempo, 550459
1, 34560, Tempo, 530973
1, 37440, Tempo, 528634
1, 37560, Tempo, 530973
1, 37680, Tempo, 533333
1, 37800, Tempo, 535714
1, 37920, Tempo, 538117
1, 38000, Tempo, 540541
1, 38040, Tempo, 542986
1, 38080, Tempo, 545455
1, 38120, Tempo, 547945
1, 38200, Tempo, 550459
1, 38240, Tempo, 552995
1, 38280, Tempo, 555556
1, 38320, Tempo, 558140
1, 38400, Tempo, 582016
1, 38880, Tempo, 530035
1, 39840, Tempo, 539714
1, 40320, Tempo, 557414
1, 40800, Tempo, 530035
1, 41760, Tempo, 542152
1, 42240, Tempo, 552995
1, 42480, Tempo, 530973
1, 42720, Tempo, 542986
1, 42960, Tempo, 568128
1, 43200, Tempo, 549702
1, 43680, Tempo, 539714
1, 43920, Tempo, 549702
1, 44160, Tempo, 560067
1, 44400, Tempo, 547146
1, 44640, Tempo, 560067
1, 44880, Tempo, 574163
1, 45120, Tempo, 576369
1, 45840, Tempo, 615195
1, 46041, Tempo, 621762
1, 46080, Tempo, 538117
1, 46320, Tempo, 517241
1, 49440, Tempo, 530973
1, 49920, Tempo, 517241
1, 52320, Tempo, 530973
1, 52800, Tempo, 550459
1, 53280, Tempo, 552995
1, 53320, Tempo, 555556
1, 53360, Tempo, 560748
1, 53400, Tempo, 566038
1, 53440, Tempo, 571429
1, 53480, Tempo, 576923
1, 53520, Tempo, 579710
1, 53560, Tempo, 585366
1, 53600, Tempo, 591133
1, 53640, Tempo, 597015
1, 53680, Tempo, 603015
1, 53720, Tempo, 609137
1, 53760, Tempo, 530973
1, 54000, Tempo, 517241
1, 55680, Tempo, 530973
1, 55920, Tempo, 517241
1, 57600, Tempo, 542986
1, 57840, Tempo, 526316
1, 58560, Tempo, 540541
1, 58800, Tempo, 526316
1, 59280, Tempo, 535714
1, 60000, Tempo, 547945
1, 60480, Tempo, 547945
1, 60960, Tempo, 521739
1, 61000, Tempo, 547945
1, 61040, Tempo, 552995
1, 61080, Tempo, 558140
1, 61120, Tempo, 563380
1, 61160, Tempo, 571429
1, 61200, Tempo, 576923
1, 61240, Tempo, 582524
1, 61280, Tempo, 591133
1, 61320, Tempo, 597015
1, 61360, Tempo, 603015
1, 61400, Tempo, 1481481
1, 61440, Tempo, 1000000
1, 61540, Tempo, 689655
1, 61560, Tempo, 631579
1, 61580, Tempo, 628272
1, 61600, Tempo, 625000
1, 61620, Tempo, 618557
1, 61640, Tempo, 615385
1, 61660, Tempo, 612245
1, 61680, Tempo, 606061
1, 61700, Tempo, 603015
1, 61720, Tempo, 600000
1, 61740, Tempo, 594059
1, 61760, Tempo, 591133
1, 61780, Tempo, 588235
1, 61800, Tempo, 582524
1, 61820, Tempo, 579710
1, 61840, Tempo, 576923
1, 61860, Tempo, 571429
1, 61880, Tempo, 568720
1, 61900, Tempo, 566038
1, 61920, Tempo, 560748
1, 61940, Tempo, 555556
1, 61980, Tempo, 558140
1, 62000, Tempo, 560748
1, 62040, Tempo, 563380
1, 62060, Tempo, 566038
1, 62080, Tempo, 568720
1, 62120, Tempo, 571429
1, 62140, Tempo, 574163
1, 62160, Tempo, 576923
1, 62200, Tempo, 579710
1, 62220, Tempo, 582524
1, 62240, Tempo, 585366
1, 62280, Tempo, 588235
1, 62300, Tempo, 591133
1, 62320, Tempo, 594059
1, 62340, Tempo, 794702
1, 62388, Tempo, 769231
1, 62400, Tempo, 571429
1, 63360, Tempo, 517241
1, 65280, Tempo, 528634
1, 65760, Tempo, 517241
1, 66000, Tempo, 526316
1, 66240, Tempo, 512821
1, 66480, Tempo, 526316
1, 66720, Tempo, 512821
1, 66960, Tempo, 526316
1, 67200, Tempo, 517241
1, 68400, Tempo, 528634
1, 68640, Tempo, 517241
1, 69360, Tempo, 526316
1, 69600, Tempo, 512821
1, 69840, Tempo, 524017
1, 70080, Tempo, 512821
1, 70320, Tempo, 524017
1, 70560, Tempo, 517241
1, 71040, Tempo, 530973
1, 71520, Tempo, 521739
1, 74880, Tempo, 530973
1, 75120, Tempo, 521739
1, 76800, Tempo, 519481
1, 77120, Tempo, 521739
1, 77440, Tempo, 524017
1, 77760, Tempo, 526316
1, 78080, Tempo, 528634
1, 78400, Tempo, 530973
1, 78720, Tempo, 779221
1, 78820, Tempo, 600000
1, 78880, Tempo, 603015
1, 78940, Tempo, 606061
1, 79000, Tempo, 609137
1, 79060, Tempo, 612245
1, 79100, Tempo, 615385
1, 79160, Tempo, 618557
1, 79220, Tempo, 621762
1, 79280, Tempo, 625000
1, 79340, Tempo, 628272
1, 79380, Tempo, 631579
1, 79440, Tempo, 634921
1, 79500, Tempo, 638298
1, 79560, Tempo, 641711
1, 79620, Tempo, 645161
1, 79660, Tempo, 648649
1, 79680, Tempo, 701754
1, 80128, Tempo, 1463415
1, 80160, Tempo, 789474
1, 81600, Marker_t, "Fine"
1, 81600, End_track
2, 0, Start_track
2, 0, MIDI_port, 0
2, 0, Title_t, "Piano right"
2, 0, Program_c, 0, 0
2, 0, Control_c, 0, 7, 100
2, 0, Control_c, 0, 91, 127
2, 0, Control_c, 0, 64, 0
2, 1, Note_on_c, 0, 90, 99
2, 80, Note_on_c, 0, 94, 76
2, 81, Note_on_c, 0, 90, 0
2, 160, Note_on_c, 0, 94, 0
2, 160, Note_on_c, 0, 85, 69
2, 240, Note_on_c, 0, 85, 0
2, 240, Note_on_c, 0, 90, 93
2, 320, Note_on_c, 0, 90, 0
2, 320, Note_on_c, 0, 87, 79
2, 400, Note_on_c, 0, 87, 0
2, 400, Note_on_c, 0, 90, 73
2, 480, Note_on_c, 0, 90, 0
2, 480, Note_on_c, 0, 85, 92
2, 560, Note_on_c, 0, 85, 0
2, 560, Note_on_c, 0, 90, 78
2, 640, Note_on_c, 0, 90, 0
2, 640, Note_on_c, 0, 82, 71
2, 720, Note_on_c, 0, 82, 0
2, 720, Note_on_c, 0, 85, 84
2, 800, Note_on_c, 0, 85, 0
2, 800, Note_on_c, 0, 78, 72
2, 880, Note_on_c, 0, 78, 0
2, 880, Note_on_c, 0, 82, 68
2, 960, Note_on_c, 0, 82, 0
2, 960, Note_on_c, 0, 78, 74
2, 1040, Note_on_c, 0, 78, 0
2, 1040, Note_on_c, 0, 82, 64
2, 1120, Note_on_c, 0, 82, 0
2, 1120, Note_on_c, 0, 73, 58
2, 1200, Note_on_c, 0, 73, 0
2, 1200, Note_on_c, 0, 78, 71
2, 1280, Note_on_c, 0, 78, 0
2, 1280, Note_on_c, 0, 75, 63
2, 1360, Note_on_c, 0, 75, 0
2, 1360, Note_on_c, 0, 78, 57
2, 1440, Note_on_c, 0, 78, 0
2, 1440, Note_on_c, 0, 73, 69
2, 1520, Note_on_c, 0, 73, 0
2, 1520, Note_on_c, 0, 78, 56
2, 1600, Note_on_c, 0, 78, 0
2, 1600, Note_on_c, 0, 70, 56
2, 1680, Note_on_c, 0, 70, 0
2, 1680, Note_on_c, 0, 73, 67
2, 1760, Note_on_c, 0, 73, 0
2, 1760, Note_on_c, 0, 66, 55
2, 1840, Note_on_c, 0, 66, 0
2, 1840, Note_on_c, 0, 70, 53
2, 1920, Note_on_c, 0, 70, 0
2, 1920, Note_on_c, 0, 61, 74
2, 2000, Note_on_c, 0, 61, 0
2, 2000, Note_on_c, 0, 73, 69
2, 2080, Note_on_c, 0, 73, 0
2, 2080, Note_on_c, 0, 68, 63
2, 2160, Note_on_c, 0, 68, 0
2, 2160, Note_on_c, 0, 73, 75
2, 2240, Note_on_c, 0, 73, 0
2, 2240, Note_on_c, 0, 68, 67
2, 2320, Note_on_c, 0, 68, 0
2, 2320, Note_on_c, 0, 80, 61
2, 2400, Note_on_c, 0, 80, 0
2, 2400, Note_on_c, 0, 68, 75
2, 2480, Note_on_c, 0, 68, 0
2, 2480, Note_on_c, 0, 80, 68
2, 2560, Note_on_c, 0, 80, 0
2, 2560, Note_on_c, 0, 75, 61
2, 2640, Note_on_c, 0, 75, 0
2, 2640, Note_on_c, 0, 80, 81
2, 2720, Note_on_c, 0, 80, 0
2, 2720, Note_on_c, 0, 75, 74
2, 2800, Note_on_c, 0, 75, 0
2, 2800, Note_on_c, 0, 87, 70
2, 2880, Note_on_c, 0, 87, 0
2, 2880, Note_on_c, 0, 75, 82
2, 2960, Note_on_c, 0, 75, 0
2, 2960, Note_on_c, 0, 87, 73
2, 3040, Note_on_c, 0, 87, 0
2, 3040, Note_on_c, 0, 80, 68
2, 3120, Note_on_c, 0, 80, 0
2, 3120, Note_on_c, 0, 87, 86
2, 3200, Note_on_c, 0, 87, 0
2, 3200, Note_on_c, 0, 80, 69
2, 3280, Note_on_c, 0, 80, 0
2, 3280, Note_on_c, 0, 92, 67
2, 3360, Note_on_c, 0, 92, 0
2, 3360, Note_on_c, 0, 80, 89
2, 3440, Note_on_c, 0, 80, 0
2, 3440, Note_on_c, 0, 92, 77
2, 3520, Note_on_c, 0, 92, 0
2, 3520, Note_on_c, 0, 85, 75
2, 3600, Note_on_c, 0, 85, 0
2, 3600, Note_on_c, 0, 92, 92
2, 3680, Note_on_c, 0, 92, 0
2, 3680, Note_on_c, 0, 85, 83
2, 3760, Note_on_c, 0, 85, 0
2, 3760, Note_on_c, 0, 97, 78
2, 3840, Note_on_c, 0, 97, 0
2, 3840, Note_on_c, 0, 90, 96
2, 3920, Note_on_c, 0, 90, 0
2, 3920, Note_on_c, 0, 94, 78
2, 4000, Note_on_c, 0, 94, 0
2, 4000, Note_on_c, 0, 85, 75
2, 4080, Note_on_c, 0, 85, 0
2, 4080, Note_on_c, 0, 90, 95
2, 4160, Note_on_c, 0, 90, 0
2, 4160, Note_on_c, 0, 87, 77
2, 4240, Note_on_c, 0, 87, 0
2, 4240, Note_on_c, 0, 90, 74
2, 4320, Note_on_c, 0, 90, 0
2, 4320, Note_on_c, 0, 85, 95
2, 4400, Note_on_c, 0, 85, 0
2, 4400, Note_on_c, 0, 90, 76
2, 4480, Note_on_c, 0, 90, 0
2, 4480, Note_on_c, 0, 82, 74
2, 4560, Note_on_c, 0, 82, 0
2, 4560, Note_on_c, 0, 85, 85
2, 4640, Note_on_c, 0, 85, 0
2, 4640, Note_on_c, 0, 78, 75
2, 4720, Note_on_c, 0, 78, 0
2, 4720, Note_on_c, 0, 82, 70
2, 4800, Note_on_c, 0, 82, 0
2, 4800, Note_on_c, 0, 78, 74
2, 4880, Note_on_c, 0, 78, 0
2, 4880, Note_on_c, 0, 82, 69
2, 4960, Note_on_c, 0, 82, 0
2, 4960, Note_on_c, 0, 73, 65
2, 5040, Note_on_c, 0, 73, 0
2, 5040, Note_on_c, 0, 78, 74
2, 5120, Note_on_c, 0, 78, 0
2, 5120, Note_on_c, 0, 75, 69
2, 5200, Note_on_c, 0, 75, 0
2, 5200, Note_on_c, 0, 78, 66
2, 5280, Note_on_c, 0, 78, 0
2, 5280, Note_on_c, 0, 73, 74
2, 5360, Note_on_c, 0, 73, 0
2, 5360, Note_on_c, 0, 78, 67
2, 5440, Note_on_c, 0, 78, 0
2, 5440, Note_on_c, 0, 70, 70
2, 5520, Note_on_c, 0, 70, 0
2, 5520, Note_on_c, 0, 73, 74
2, 5600, Note_on_c, 0, 73, 0
2, 5600, Note_on_c, 0, 66, 65
2, 5680, Note_on_c, 0, 66, 0
2, 5680, Note_on_c, 0, 70, 68
2, 5760, Note_on_c, 0, 70, 0
2, 5760, Note_on_c, 0, 63, 77
2, 5840, Note_on_c, 0, 63, 0
2, 5840, Note_on_c, 0, 75, 69
2, 5920, Note_on_c, 0, 75, 0
2, 5920, Note_on_c, 0, 68, 66
2, 6000, Note_on_c, 0, 68, 0
2, 6000, Note_on_c, 0, 75, 77
2, 6080, Note_on_c, 0, 75, 0
2, 6080, Note_on_c, 0, 68, 67
2, 6160, Note_on_c, 0, 68, 0
2, 6160, Note_on_c, 0, 80, 71
2, 6240, Note_on_c, 0, 80, 0
2, 6240, Note_on_c, 0, 75, 77
2, 6320, Note_on_c, 0, 75, 0
2, 6320, Note_on_c, 0, 80, 74
2, 6400, Note_on_c, 0, 80, 0
2, 6400, Note_on_c, 0, 75, 70
2, 6480, Note_on_c, 0, 75, 0
2, 6480, Note_on_c, 0, 75, 82
2, 6560, Note_on_c, 0, 75, 0
2, 6560, Note_on_c, 0, 80, 73
2, 6640, Note_on_c, 0, 80, 0
2, 6640, Note_on_c, 0, 92, 75
2, 6720, Note_on_c, 0, 92, 0
2, 6720, Note_on_c, 0, 82, 88
2, 6800, Note_on_c, 0, 82, 0
2, 6800, Note_on_c, 0, 94, 78
2, 6880, Note_on_c, 0, 94, 0
2, 6880, Note_on_c, 0, 82, 70
2, 6960, Note_on_c, 0, 82, 0
2, 6960, Note_on_c, 0, 94, 81
2, 7040, Note_on_c, 0, 94, 0
2, 7040, Note_on_c, 0, 82, 75
2, 7120, Note_on_c, 0, 82, 0
2, 7120, Note_on_c, 0, 94, 70
2, 7200, Note_on_c, 0, 94, 0
2, 7200, Note_on_c, 0, 82, 68
2, 7280, Note_on_c, 0, 82, 0
2, 7280, Note_on_c, 0, 94, 62
2, 7360, Note_on_c, 0, 94, 0
2, 7360, Note_on_c, 0, 82, 53
2, 7440, Note_on_c, 0, 82, 0
2, 7440, Note_on_c, 0, 94, 59
2, 7520, Note_on_c, 0, 94, 0
2, 7520, Note_on_c, 0, 82, 53
2, 7600, Note_on_c, 0, 82, 0
2, 7600, Note_on_c, 0, 94, 45
2, 7680, Note_on_c, 0, 94, 0
2, 7680, Control_c, 0, 91, 127
2, 7680, Control_c, 0, 64, 0
2, 7681, Note_on_c, 0, 90, 96
2, 7760, Note_on_c, 0, 94, 73
2, 7761, Note_on_c, 0, 90, 0
2, 7840, Note_on_c, 0, 94, 0
2, 7840, Note_on_c, 0, 85, 67
2, 7920, Note_on_c, 0, 85, 0
2, 7920, Note_on_c, 0, 90, 90
2, 8000, Note_on_c, 0, 90, 0
2, 8000, Note_on_c, 0, 87, 67
2, 8080, Note_on_c, 0, 87, 0
2, 8080, Note_on_c, 0, 90, 59
2, 8160, Note_on_c, 0, 90, 0
2, 8160, Note_on_c, 0, 85, 93
2, 8240, Note_on_c, 0, 85, 0
2, 8240, Note_on_c, 0, 90, 68
2, 8320, Note_on_c, 0, 90, 0
2, 8320, Note_on_c, 0, 82, 66
2, 8400, Note_on_c, 0, 82, 0
2, 8400, Note_on_c, 0, 85, 84
2, 8480, Note_on_c, 0, 85, 0
2, 8480, Note_on_c, 0, 78, 66
2, 8560, Note_on_c, 0, 78, 0
2, 8560, Note_on_c, 0, 82, 63
2, 8640, Note_on_c, 0, 82, 0
2, 8640, Note_on_c, 0, 78, 74
2, 8720, Note_on_c, 0, 78, 0
2, 8720, Note_on_c, 0, 82, 66
2, 8800, Note_on_c, 0, 82, 0
2, 8800, Note_on_c, 0, 73, 63
2, 8880, Note_on_c, 0, 73, 0
2, 8880, Note_on_c, 0, 78, 68
2, 8960, Note_on_c, 0, 78, 0
2, 8960, Note_on_c, 0, 75, 65
2, 9040, Note_on_c, 0, 75, 0
2, 9040, Note_on_c, 0, 78, 62
2, 9120, Note_on_c, 0, 78, 0
2, 9120, Note_on_c, 0, 73, 74
2, 9200, Note_on_c, 0, 73, 0
2, 9200, Note_on_c, 0, 78, 65
2, 9280, Note_on_c, 0, 78, 0
2, 9280, Note_on_c, 0, 70, 61
2, 9360, Note_on_c, 0, 70, 0
2, 9360, Note_on_c, 0, 73, 74
2, 9440, Note_on_c, 0, 73, 0
2, 9440, Note_on_c, 0, 66, 67
2, 9520, Note_on_c, 0, 66, 0
2, 9520, Note_on_c, 0, 70, 65
2, 9600, Note_on_c, 0, 70, 0
2, 9600, Note_on_c, 0, 61, 74
2, 9680, Note_on_c, 0, 61, 0
2, 9680, Note_on_c, 0, 73, 71
2, 9760, Note_on_c, 0, 73, 0
2, 9760, Note_on_c, 0, 68, 67
2, 9840, Note_on_c, 0, 68, 0
2, 9840, Note_on_c, 0, 73, 75
2, 9920, Note_on_c, 0, 73, 0
2, 9920, Note_on_c, 0, 68, 70
2, 10000, Note_on_c, 0, 68, 0
2, 10000, Note_on_c, 0, 80, 65
2, 10080, Note_on_c, 0, 80, 0
2, 10080, Note_on_c, 0, 68, 72
2, 10160, Note_on_c, 0, 68, 0
2, 10160, Note_on_c, 0, 80, 70
2, 10240, Note_on_c, 0, 80, 0
2, 10240, Note_on_c, 0, 75, 67
2, 10320, Note_on_c, 0, 75, 0
2, 10320, Note_on_c, 0, 80, 78
2, 10400, Note_on_c, 0, 80, 0
2, 10400, Note_on_c, 0, 75, 74
2, 10480, Note_on_c, 0, 75, 0
2, 10480, Note_on_c, 0, 87, 72
2, 10560, Note_on_c, 0, 87, 0
2, 10560, Note_on_c, 0, 75, 82
2, 10640, Note_on_c, 0, 75, 0
2, 10640, Note_on_c, 0, 87, 78
2, 10720, Note_on_c, 0, 87, 0
2, 10720, Note_on_c, 0, 80, 78
2, 10800, Note_on_c, 0, 80, 0
2, 10800, Note_on_c, 0, 87, 80
2, 10880, Note_on_c, 0, 87, 0
2, 10880, Note_on_c, 0, 80, 77
2, 10960, Note_on_c, 0, 80, 0
2, 10960, Note_on_c, 0, 92, 73
2, 11040, Note_on_c, 0, 92, 0
2, 11040, Note_on_c, 0, 80, 88
2, 11120, Note_on_c, 0, 80, 0
2, 11120, Note_on_c, 0, 92, 81
2, 11200, Note_on_c, 0, 92, 0
2, 11200, Note_on_c, 0, 85, 73
2, 11280, Note_on_c, 0, 85, 0
2, 11280, Note_on_c, 0, 92, 92
2, 11360, Note_on_c, 0, 92, 0
2, 11360, Note_on_c, 0, 85, 83
2, 11440, Note_on_c, 0, 85, 0
2, 11440, Note_on_c, 0, 97, 83
2, 11520, Note_on_c, 0, 97, 0
2, 11520, Note_on_c, 0, 90, 98
2, 11600, Note_on_c, 0, 90, 0
2, 11600, Note_on_c, 0, 94, 74
2, 11680, Note_on_c, 0, 94, 0
2, 11680, Note_on_c, 0, 85, 70
2, 11760, Note_on_c, 0, 85, 0
2, 11760, Note_on_c, 0, 90, 93
2, 11840, Note_on_c, 0, 90, 0
2, 11840, Note_on_c, 0, 87, 72
2, 11920, Note_on_c, 0, 87, 0
2, 11920, Note_on_c, 0, 90, 73
2, 12000, Note_on_c, 0, 90, 0
2, 12000, Note_on_c, 0, 85, 96
2, 12080, Note_on_c, 0, 85, 0
2, 12080, Note_on_c, 0, 90, 75
2, 12160, Note_on_c, 0, 90, 0
2, 12160, Note_on_c, 0, 82, 68
2, 12240, Note_on_c, 0, 82, 0
2, 12240, Note_on_c, 0, 85, 84
2, 12320, Note_on_c, 0, 85, 0
2, 12320, Note_on_c, 0, 78, 69
2, 12400, Note_on_c, 0, 78, 0
2, 12400, Note_on_c, 0, 82, 64
2, 12480, Note_on_c, 0, 82, 0
2, 12480, Note_on_c, 0, 78, 74
2, 12560, Note_on_c, 0, 78, 0
2, 12560, Note_on_c, 0, 82, 68
2, 12640, Note_on_c, 0, 82, 0
2, 12640, Note_on_c, 0, 73, 62
2, 12720, Note_on_c, 0, 73, 0
2, 12720, Note_on_c, 0, 78, 71
2, 12800, Note_on_c, 0, 78, 0
2, 12800, Note_on_c, 0, 75, 65
2, 12880, Note_on_c, 0, 75, 0
2, 12880, Note_on_c, 0, 78, 67
2, 12960, Note_on_c, 0, 78, 0
2, 12960, Note_on_c, 0, 73, 74
2, 13040, Note_on_c, 0, 73, 0
2, 13040, Note_on_c, 0, 78, 65
2, 13120, Note_on_c, 0, 78, 0
2, 13120, Note_on_c, 0, 70, 59
2, 13200, Note_on_c, 0, 70, 0
2, 13200, Note_on_c, 0, 73, 74
2, 13280, Note_on_c, 0, 73, 0
2, 13280, Note_on_c, 0, 66, 65
2, 13360, Note_on_c, 0, 66, 0
2, 13360, Note_on_c, 0, 70, 59
2, 13440, Note_on_c, 0, 70, 0
2, 13440, Note_on_c, 0, 63, 77
2, 13520, Note_on_c, 0, 63, 0
2, 13520, Note_on_c, 0, 75, 74
2, 13600, Note_on_c, 0, 75, 0
2, 13600, Note_on_c, 0, 68, 67
2, 13680, Note_on_c, 0, 68, 0
2, 13680, Note_on_c, 0, 75, 77
2, 13760, Note_on_c, 0, 75, 0
2, 13760, Note_on_c, 0, 68, 67
2, 13840, Note_on_c, 0, 68, 0
2, 13840, Note_on_c, 0, 80, 70
2, 13920, Note_on_c, 0, 80, 0
2, 13920, Note_on_c, 0, 75, 75
2, 14000, Note_on_c, 0, 75, 0
2, 14000, Note_on_c, 0, 80, 71
2, 14080, Note_on_c, 0, 80, 0
2, 14080, Note_on_c, 0, 75, 67
2, 14160, Note_on_c, 0, 75, 0
2, 14160, Note_on_c, 0, 87, 82
2, 14240, Note_on_c, 0, 87, 0
2, 14240, Note_on_c, 0, 80, 79
2, 14320, Note_on_c, 0, 80, 0
2, 14320, Note_on_c, 0, 92, 74
2, 14400, Note_on_c, 0, 92, 0
2, 14400, Note_on_c, 0, 75, 85
2, 14480, Note_on_c, 0, 75, 0
2, 14480, Note_on_c, 0, 87, 74
2, 14560, Note_on_c, 0, 87, 0
2, 14560, Note_on_c, 0, 80, 71
2, 14640, Note_on_c, 0, 80, 0
2, 14640, Note_on_c, 0, 87, 88
2, 14720, Note_on_c, 0, 87, 0
2, 14720, Note_on_c, 0, 73, 76
2, 14800, Note_on_c, 0, 73, 0
2, 14800, Note_on_c, 0, 85, 72
2, 14880, Note_on_c, 0, 85, 0
2, 14880, Note_on_c, 0, 80, 81
2, 14960, Note_on_c, 0, 80, 0
2, 14960, Note_on_c, 0, 85, 73
2, 15040, Note_on_c, 0, 85, 0
2, 15040, Note_on_c, 0, 80, 67
2, 15120, Note_on_c, 0, 80, 0
2, 15120, Note_on_c, 0, 92, 70
2, 15200, Note_on_c, 0, 92, 0
2, 15200, Note_on_c, 0, 85, 66
2, 15280, Note_on_c, 0, 85, 0
2, 15280, Note_on_c, 0, 97, 64
2, 15360, Note_on_c, 0, 97, 0
2, 15360, Note_on_c, 0, 92, 72
2, 15440, Note_on_c, 0, 92, 0
2, 15440, Note_on_c, 0, 94, 67
2, 15520, Note_on_c, 0, 94, 0
2, 15520, Note_on_c, 0, 92, 61
2, 15600, Note_on_c, 0, 92, 0
2, 15600, Note_on_c, 0, 87, 72
2, 15680, Note_on_c, 0, 87, 0
2, 15680, Note_on_c, 0, 99, 67
2, 15760, Note_on_c, 0, 99, 0
2, 15760, Note_on_c, 0, 87, 58
2, 15840, Note_on_c, 0, 87, 0
2, 15840, Note_on_c, 0, 85, 78
2, 15920, Note_on_c, 0, 85, 0
2, 15920, Note_on_c, 0, 87, 74
2, 16000, Note_on_c, 0, 87, 0
2, 16000, Note_on_c, 0, 85, 68
2, 16080, Note_on_c, 0, 85, 0
2, 16080, Note_on_c, 0, 80, 75
2, 16160, Note_on_c, 0, 80, 0
2, 16160, Note_on_c, 0, 92, 71
2, 16240, Note_on_c, 0, 92, 0
2, 16240, Note_on_c, 0, 80, 66
2, 16320, Note_on_c, 0, 80, 0
2, 16320, Note_on_c, 0, 80, 72
2, 16400, Note_on_c, 0, 80, 0
2, 16400, Note_on_c, 0, 82, 67
2, 16480, Note_on_c, 0, 82, 0
2, 16480, Note_on_c, 0, 80, 65
2, 16560, Note_on_c, 0, 80, 0
2, 16560, Note_on_c, 0, 75, 72
2, 16640, Note_on_c, 0, 75, 0
2, 16640, Note_on_c, 0, 87, 67
2, 16720, Note_on_c, 0, 87, 0
2, 16720, Note_on_c, 0, 75, 67
2, 16800, Note_on_c, 0, 75, 0
2, 16800, Note_on_c, 0, 73, 75
2, 16880, Note_on_c, 0, 73, 0
2, 16880, Note_on_c, 0, 75, 68
2, 16960, Note_on_c, 0, 75, 0
2, 16960, Note_on_c, 0, 73, 67
2, 17040, Note_on_c, 0, 73, 0
2, 17040, Note_on_c, 0, 68, 72
2, 17360, Note_on_c, 0, 68, 0
2, 17360, Note_on_c, 0, 75, 70
2, 17440, Note_on_c, 0, 75, 0
2, 17440, Note_on_c, 0, 80, 67
2, 17520, Note_on_c, 0, 80, 0
2, 17520, Note_on_c, 0, 82, 74
2, 17600, Note_on_c, 0, 82, 0
2, 17600, Note_on_c, 0, 80, 70
2, 17680, Note_on_c, 0, 80, 0
2, 17680, Note_on_c, 0, 75, 67
2, 17760, Note_on_c, 0, 75, 0
2, 17760, Note_on_c, 0, 73, 71
2, 17840, Note_on_c, 0, 73, 0
2, 17840, Note_on_c, 0, 80, 73
2, 17920, Note_on_c, 0, 80, 0
2, 17920, Note_on_c, 0, 85, 72
2, 18000, Note_on_c, 0, 85, 0
2, 18000, Note_on_c, 0, 87, 74
2, 18080, Note_on_c, 0, 87, 0
2, 18080, Note_on_c, 0, 85, 69
2, 18160, Note_on_c, 0, 85, 0
2, 18160, Note_on_c, 0, 82, 67
2, 18240, Note_on_c, 0, 82, 0
2, 18240, Note_on_c, 0, 80, 72
2, 18320, Note_on_c, 0, 80, 0
2, 18320, Note_on_c, 0, 87, 69
2, 18400, Note_on_c, 0, 87, 0
2, 18400, Note_on_c, 0, 92, 67
2, 18480, Note_on_c, 0, 92, 0
2, 18480, Note_on_c, 0, 94, 72
2, 18560, Note_on_c, 0, 94, 0
2, 18560, Note_on_c, 0, 92, 64
2, 18640, Note_on_c, 0, 92, 0
2, 18640, Note_on_c, 0, 87, 59
2, 18720, Note_on_c, 0, 87, 0
2, 18720, Note_on_c, 0, 85, 77
2, 18800, Note_on_c, 0, 85, 0
2, 18800, Note_on_c, 0, 92, 73
2, 18880, Note_on_c, 0, 92, 0
2, 18880, Note_on_c, 0, 97, 68
2, 18960, Note_on_c, 0, 97, 0
2, 18960, Note_on_c, 0, 99, 72
2, 19040, Note_on_c, 0, 99, 0
2, 19040, Note_on_c, 0, 97, 68
2, 19120, Note_on_c, 0, 97, 0
2, 19120, Note_on_c, 0, 94, 68
2, 19200, Note_on_c, 0, 94, 0
2, 19200, Note_on_c, 0, 92, 72
2, 19280, Note_on_c, 0, 92, 0
2, 19280, Note_on_c, 0, 94, 69
2, 19360, Note_on_c, 0, 94, 0
2, 19360, Note_on_c, 0, 92, 63
2, 19440, Note_on_c, 0, 92, 0
2, 19440, Note_on_c, 0, 87, 72
2, 19520, Note_on_c, 0, 87, 0
2, 19520, Note_on_c, 0, 99, 67
2, 19600, Note_on_c, 0, 99, 0
2, 19600, Note_on_c, 0, 87, 72
2, 19680, Note_on_c, 0, 87, 0
2, 19680, Note_on_c, 0, 85, 81
2, 19760, Note_on_c, 0, 85, 0
2, 19760, Note_on_c, 0, 87, 73
2, 19840, Note_on_c, 0, 87, 0
2, 19840, Note_on_c, 0, 85, 67
2, 19920, Note_on_c, 0, 85, 0
2, 19920, Note_on_c, 0, 80, 77
2, 20000, Note_on_c, 0, 80, 0
2, 20000, Note_on_c, 0, 92, 75
2, 20080, Note_on_c, 0, 92, 0
2, 20080, Note_on_c, 0, 80, 67
2, 20160, Note_on_c, 0, 80, 0
2, 20160, Note_on_c, 0, 80, 79
2, 20240, Note_on_c, 0, 80, 0
2, 20240, Note_on_c, 0, 82, 70
2, 20320, Note_on_c, 0, 82, 0
2, 20320, Note_on_c, 0, 80, 65
2, 20400, Note_on_c, 0, 80, 0
2, 20400, Note_on_c, 0, 75, 73
2, 20480, Note_on_c, 0, 75, 0
2, 20480, Note_on_c, 0, 87, 68
2, 20560, Note_on_c, 0, 87, 0
2, 20560, Note_on_c, 0, 75, 65
2, 20640, Note_on_c, 0, 75, 0
2, 20640, Note_on_c, 0, 73, 75
2, 20720, Note_on_c, 0, 73, 0
2, 20720, Note_on_c, 0, 75, 69
2, 20800, Note_on_c, 0, 75, 0
2, 20800, Note_on_c, 0, 73, 63
2, 20880, Note_on_c, 0, 73, 0
2, 20880, Note_on_c, 0, 68, 75
2, 21200, Note_on_c, 0, 68, 0
2, 21200, Note_on_c, 0, 80, 67
2, 21280, Note_on_c, 0, 80, 0
2, 21280, Note_on_c, 0, 78, 64
2, 21360, Note_on_c, 0, 78, 0
2, 21360, Note_on_c, 0, 80, 75
2, 21440, Note_on_c, 0, 80, 0
2, 21440, Note_on_c, 0, 78, 68
2, 21520, Note_on_c, 0, 78, 0
2, 21520, Note_on_c, 0, 80, 65
2, 21600, Note_on_c, 0, 80, 0
2, 21600, Note_on_c, 0, 90, 82
2, 21680, Note_on_c, 0, 90, 0
2, 21680, Note_on_c, 0, 80, 71
2, 21760, Note_on_c, 0, 80, 0
2, 21760, Note_on_c, 0, 78, 65
2, 21840, Note_on_c, 0, 78, 0
2, 21840, Note_on_c, 0, 80, 74
2, 21920, Note_on_c, 0, 80, 0
2, 21920, Note_on_c, 0, 78, 67
2, 22000, Note_on_c, 0, 78, 0
2, 22000, Note_on_c, 0, 80, 64
2, 22080, Note_on_c, 0, 80, 0
2, 22080, Note_on_c, 0, 68, 64
2, 22160, Note_on_c, 0, 68, 0
2, 22160, Note_on_c, 0, 80, 68
2, 22240, Note_on_c, 0, 80, 0
2, 22240, Note_on_c, 0, 78, 63
2, 22320, Note_on_c, 0, 78, 0
2, 22320, Note_on_c, 0, 80, 71
2, 22400, Note_on_c, 0, 80, 0
2, 22400, Note_on_c, 0, 78, 65
2, 22480, Note_on_c, 0, 78, 0
2, 22480, Note_on_c, 0, 80, 62
2, 22560, Note_on_c, 0, 80, 0
2, 22560, Note_on_c, 0, 90, 81
2, 22640, Note_on_c, 0, 90, 0
2, 22640, Note_on_c, 0, 80, 67
2, 22720, Note_on_c, 0, 80, 0
2, 22720, Note_on_c, 0, 78, 63
2, 22800, Note_on_c, 0, 78, 0
2, 22800, Note_on_c, 0, 80, 69
2, 22880, Note_on_c, 0, 80, 0
2, 22880, Note_on_c, 0, 78, 67
2, 22960, Note_on_c, 0, 78, 0
2, 22960, Note_on_c, 0, 80, 64
2, 23040, Note_on_c, 0, 80, 0
2, 23040, Note_on_c, 0, 70, 70
2, 23120, Note_on_c, 0, 70, 0
2, 23120, Note_on_c, 0, 82, 74
2, 23200, Note_on_c, 0, 82, 0
2, 23200, Note_on_c, 0, 78, 66
2, 23280, Note_on_c, 0, 78, 0
2, 23280, Note_on_c, 0, 82, 74
2, 23360, Note_on_c, 0, 82, 0
2, 23360, Note_on_c, 0, 78, 70
2, 23440, Note_on_c, 0, 78, 0
2, 23440, Note_on_c, 0, 82, 66
2, 23520, Note_on_c, 0, 82, 0
2, 23520, Note_on_c, 0, 90, 83
2, 23600, Note_on_c, 0, 90, 0
2, 23600, Note_on_c, 0, 82, 71
2, 23680, Note_on_c, 0, 82, 0
2, 23680, Note_on_c, 0, 78, 68
2, 23760, Note_on_c, 0, 78, 0
2, 23760, Note_on_c, 0, 82, 77
2, 23840, Note_on_c, 0, 82, 0
2, 23840, Note_on_c, 0, 78, 72
2, 23920, Note_on_c, 0, 78, 0
2, 23920, Note_on_c, 0, 82, 67
2, 24000, Note_on_c, 0, 82, 0
2, 24000, Note_on_c, 0, 70, 73
2, 24080, Note_on_c, 0, 70, 0
2, 24080, Note_on_c, 0, 82, 75
2, 24160, Note_on_c, 0, 82, 0
2, 24160, Note_on_c, 0, 78, 72
2, 24240, Note_on_c, 0, 78, 0
2, 24240, Note_on_c, 0, 82, 78
2, 24320, Note_on_c, 0, 82, 0
2, 24320, Note_on_c, 0, 78, 72
2, 24400, Note_on_c, 0, 78, 0
2, 24400, Note_on_c, 0, 82, 67
2, 24480, Note_on_c, 0, 82, 0
2, 24480, Note_on_c, 0, 90, 85
2, 24560, Note_on_c, 0, 90, 0
2, 24560, Note_on_c, 0, 82, 74
2, 24640, Note_on_c, 0, 82, 0
2, 24640, Note_on_c, 0, 78, 71
2, 24720, Note_on_c, 0, 78, 0
2, 24720, Note_on_c, 0, 82, 80
2, 24800, Note_on_c, 0, 82, 0
2, 24800, Note_on_c, 0, 78, 77
2, 24880, Note_on_c, 0, 78, 0
2, 24880, Note_on_c, 0, 82, 74
2, 24960, Note_on_c, 0, 82, 0
2, 24960, Note_on_c, 0, 78, 80
2, 25040, Note_on_c, 0, 78, 0
2, 25040, Note_on_c, 0, 82, 77
2, 25120, Note_on_c, 0, 82, 0
2, 25120, Note_on_c, 0, 78, 78
2, 25200, Note_on_c, 0, 78, 0
2, 25200, Note_on_c, 0, 94, 87
2, 25280, Note_on_c, 0, 94, 0
2, 25280, Note_on_c, 0, 82, 76
2, 25360, Note_on_c, 0, 82, 0
2, 25360, Note_on_c, 0, 78, 70
2, 25440, Note_on_c, 0, 78, 0
2, 25440, Note_on_c, 0, 92, 89
2, 25520, Note_on_c, 0, 92, 0
2, 25520, Note_on_c, 0, 82, 70
2, 25600, Note_on_c, 0, 82, 0
2, 25600, Note_on_c, 0, 78, 73
2, 25680, Note_on_c, 0, 78, 0
2, 25680, Note_on_c, 0, 90, 89
2, 25760, Note_on_c, 0, 90, 0
2, 25760, Note_on_c, 0, 82, 78
2, 25840, Note_on_c, 0, 82, 0
2, 25840, Note_on_c, 0, 78, 73
2, 25920, Note_on_c, 0, 78, 0
2, 25920, Note_on_c, 0, 85, 80
2, 26000, Note_on_c, 0, 85, 0
2, 26000, Note_on_c, 0, 82, 73
2, 26080, Note_on_c, 0, 82, 0
2, 26080, Note_on_c, 0, 78, 76
2, 26160, Note_on_c, 0, 78, 0
2, 26160, Note_on_c, 0, 94, 90
2, 26240, Note_on_c, 0, 94, 0
2, 26240, Note_on_c, 0, 82, 76
2, 26320, Note_on_c, 0, 82, 0
2, 26320, Note_on_c, 0, 78, 79
2, 26400, Note_on_c, 0, 78, 0
2, 26400, Note_on_c, 0, 92, 94
2, 26480, Note_on_c, 0, 92, 0
2, 26480, Note_on_c, 0, 82, 77
2, 26560, Note_on_c, 0, 82, 0
2, 26560, Note_on_c, 0, 78, 76
2, 26640, Note_on_c, 0, 78, 0
2, 26640, Note_on_c, 0, 90, 95
2, 26720, Note_on_c, 0, 90, 0
2, 26720, Note_on_c, 0, 82, 76
2, 26800, Note_on_c, 0, 82, 0
2, 26800, Note_on_c, 0, 78, 79
2, 26880, Note_on_c, 0, 78, 0
2, 26880, Note_on_c, 0, 73, 87
2, 26960, Note_on_c, 0, 73, 0
2, 26960, Note_on_c, 0, 85, 78
2, 27040, Note_on_c, 0, 85, 0
2, 27040, Note_on_c, 0, 82, 75
2, 27120, Note_on_c, 0, 82, 0
2, 27120, Note_on_c, 0, 85, 88
2, 27200, Note_on_c, 0, 85, 0
2, 27200, Note_on_c, 0, 85, 75
2, 27280, Note_on_c, 0, 85, 0
2, 27280, Note_on_c, 0, 97, 80
2, 27360, Note_on_c, 0, 97, 0
2, 27360, Note_on_c, 0, 94, 94
2, 27440, Note_on_c, 0, 94, 0
2, 27440, Note_on_c, 0, 97, 77
2, 27520, Note_on_c, 0, 97, 0
2, 27520, Note_on_c, 0, 85, 76
2, 27600, Note_on_c, 0, 85, 0
2, 27600, Note_on_c, 0, 85, 89
2, 27680, Note_on_c, 0, 85, 0
2, 27680, Note_on_c, 0, 82, 77
2, 27760, Note_on_c, 0, 82, 0
2, 27760, Note_on_c, 0, 85, 82
2, 27840, Note_on_c, 0, 85, 0
2, 27840, Note_on_c, 0, 73, 89
2, 27920, Note_on_c, 0, 73, 0
2, 27920, Note_on_c, 0, 85, 85
2, 28000, Note_on_c, 0, 85, 0
2, 28000, Note_on_c, 0, 82, 81
2, 28080, Note_on_c, 0, 82, 0
2, 28080, Note_on_c, 0, 85, 90
2, 28160, Note_on_c, 0, 85, 0
2, 28160, Note_on_c, 0, 85, 85
2, 28240, Note_on_c, 0, 85, 0
2, 28240, Note_on_c, 0, 97, 85
2, 28320, Note_on_c, 0, 97, 0
2, 28320, Note_on_c, 0, 94, 101
2, 28400, Note_on_c, 0, 94, 0
2, 28400, Note_on_c, 0, 97, 86
2, 28480, Note_on_c, 0, 97, 0
2, 28480, Note_on_c, 0, 85, 84
2, 28560, Note_on_c, 0, 85, 0
2, 28560, Note_on_c, 0, 85, 93
2, 28640, Note_on_c, 0, 85, 0
2, 28640, Note_on_c, 0, 82, 85
2, 28720, Note_on_c, 0, 82, 0
2, 28720, Note_on_c, 0, 85, 80
2, 28800, Note_on_c, 0, 85, 0
2, 28800, Note_on_c, 0, 73, 94
2, 28880, Note_on_c, 0, 73, 0
2, 28880, Note_on_c, 0, 85, 85
2, 28960, Note_on_c, 0, 85, 0
2, 28960, Note_on_c, 0, 82, 81
2, 29040, Note_on_c, 0, 82, 0
2, 29040, Note_on_c, 0, 85, 94
2, 29120, Note_on_c, 0, 85, 0
2, 29120, Note_on_c, 0, 85, 84
2, 29200, Note_on_c, 0, 85, 0
2, 29200, Note_on_c, 0, 97, 80
2, 29280, Note_on_c, 0, 97, 0
2, 29280, Note_on_c, 0, 92, 95
2, 29360, Note_on_c, 0, 92, 0
2, 29360, Note_on_c, 0, 97, 85
2, 29440, Note_on_c, 0, 97, 0
2, 29440, Note_on_c, 0, 85, 83
2, 29520, Note_on_c, 0, 85, 0
2, 29520, Note_on_c, 0, 85, 95
2, 29600, Note_on_c, 0, 85, 0
2, 29600, Note_on_c, 0, 80, 90
2, 29680, Note_on_c, 0, 80, 0
2, 29680, Note_on_c, 0, 85, 86
2, 29760, Note_on_c, 0, 85, 0
2, 29760, Note_on_c, 0, 73, 97
2, 29840, Note_on_c, 0, 73, 0
2, 29840, Note_on_c, 0, 85, 90
2, 29920, Note_on_c, 0, 85, 0
2, 29920, Note_on_c, 0, 78, 85
2, 30000, Note_on_c, 0, 78, 0
2, 30000, Note_on_c, 0, 85, 93
2, 30080, Note_on_c, 0, 85, 0
2, 30080, Note_on_c, 0, 73, 87
2, 30160, Note_on_c, 0, 73, 0
2, 30160, Note_on_c, 0, 73, 84
2, 30240, Note_on_c, 0, 73, 0
2, 30240, Note_on_c, 0, 66, 95
2, 30320, Note_on_c, 0, 66, 0
2, 30320, Note_on_c, 0, 73, 90
2, 30400, Note_on_c, 0, 73, 0
2, 30400, Note_on_c, 0, 61, 85
2, 30480, Note_on_c, 0, 61, 0
2, 30480, Note_on_c, 0, 61, 100
2, 30560, Note_on_c, 0, 61, 0
2, 30560, Note_on_c, 0, 54, 89
2, 30640, Note_on_c, 0, 54, 0
2, 30640, Note_on_c, 0, 61, 85
2, 30720, Note_on_c, 0, 61, 0
2, 30720, Note_on_c, 0, 51, 74
2, 30800, Note_on_c, 0, 51, 0
2, 30800, Note_on_c, 0, 54, 71
2, 30880, Note_on_c, 0, 54, 0
2, 30880, Note_on_c, 0, 61, 72
2, 30960, Note_on_c, 0, 61, 0
2, 30960, Note_on_c, 0, 63, 77
2, 31040, Note_on_c, 0, 63, 0
2, 31040, Note_on_c, 0, 54, 70
2, 31120, Note_on_c, 0, 54, 0
2, 31120, Note_on_c, 0, 61, 72
2, 31200, Note_on_c, 0, 61, 0
2, 31200, Note_on_c, 0, 63, 81
2, 31280, Note_on_c, 0, 63, 0
2, 31280, Note_on_c, 0, 66, 78
2, 31360, Note_on_c, 0, 66, 0
2, 31360, Note_on_c, 0, 61, 75
2, 31440, Note_on_c, 0, 61, 0
2, 31440, Note_on_c, 0, 63, 83
2, 31520, Note_on_c, 0, 63, 0
2, 31520, Note_on_c, 0, 66, 77
2, 31600, Note_on_c, 0, 66, 0
2, 31600, Note_on_c, 0, 73, 73
2, 31680, Note_on_c, 0, 73, 0
2, 31680, Note_on_c, 0, 63, 87
2, 31760, Note_on_c, 0, 63, 0
2, 31760, Note_on_c, 0, 66, 80
2, 31840, Note_on_c, 0, 66, 0
2, 31840, Note_on_c, 0, 73, 77
2, 31920, Note_on_c, 0, 73, 0
2, 31920, Note_on_c, 0, 75, 89
2, 32000, Note_on_c, 0, 75, 0
2, 32000, Note_on_c, 0, 66, 78
2, 32080, Note_on_c, 0, 66, 0
2, 32080, Note_on_c, 0, 73, 75
2, 32160, Note_on_c, 0, 73, 0
2, 32160, Note_on_c, 0, 75, 89
2, 32240, Note_on_c, 0, 75, 0
2, 32240, Note_on_c, 0, 78, 78
2, 32320, Note_on_c, 0, 78, 0
2, 32320, Note_on_c, 0, 73, 76
2, 32400, Note_on_c, 0, 73, 0
2, 32400, Note_on_c, 0, 75, 89
2, 32480, Note_on_c, 0, 75, 0
2, 32480, Note_on_c, 0, 85, 78
2, 32560, Note_on_c, 0, 85, 0
2, 32560, Note_on_c, 0, 78, 75
2, 32640, Note_on_c, 0, 78, 0
2, 32640, Note_on_c, 0, 75, 89
2, 32720, Note_on_c, 0, 75, 0
2, 32720, Note_on_c, 0, 78, 81
2, 32800, Note_on_c, 0, 78, 0
2, 32800, Note_on_c, 0, 87, 86
2, 32880, Note_on_c, 0, 87, 0
2, 32880, Note_on_c, 0, 85, 85
2, 32960, Note_on_c, 0, 85, 0
2, 32960, Note_on_c, 0, 78, 78
2, 33040, Note_on_c, 0, 78, 0
2, 33040, Note_on_c, 0, 75, 84
2, 33120, Note_on_c, 0, 75, 0
2, 33120, Note_on_c, 0, 85, 81
2, 33200, Note_on_c, 0, 85, 0
2, 33200, Note_on_c, 0, 78, 76
2, 33280, Note_on_c, 0, 78, 0
2, 33280, Note_on_c, 0, 75, 71
2, 33360, Note_on_c, 0, 75, 0
2, 33360, Note_on_c, 0, 73, 78
2, 33440, Note_on_c, 0, 73, 0
2, 33440, Note_on_c, 0, 78, 71
2, 33520, Note_on_c, 0, 78, 0
2, 33520, Note_on_c, 0, 75, 75
2, 33600, Note_on_c, 0, 75, 0
2, 33600, Note_on_c, 0, 73, 74
2, 33680, Note_on_c, 0, 73, 0
2, 33680, Note_on_c, 0, 66, 69
2, 33760, Note_on_c, 0, 66, 0
2, 33760, Note_on_c, 0, 75, 72
2, 33840, Note_on_c, 0, 75, 0
2, 33840, Note_on_c, 0, 73, 71
2, 33920, Note_on_c, 0, 73, 0
2, 33920, Note_on_c, 0, 66, 66
2, 34000, Note_on_c, 0, 66, 0
2, 34000, Note_on_c, 0, 63, 69
2, 34080, Note_on_c, 0, 63, 0
2, 34080, Note_on_c, 0, 73, 67
2, 34160, Note_on_c, 0, 73, 0
2, 34160, Note_on_c, 0, 66, 61
2, 34240, Note_on_c, 0, 66, 0
2, 34240, Note_on_c, 0, 63, 65
2, 34320, Note_on_c, 0, 63, 0
2, 34320, Note_on_c, 0, 61, 64
2, 34400, Note_on_c, 0, 61, 0
2, 34400, Note_on_c, 0, 66, 59
2, 34480, Note_on_c, 0, 66, 0
2, 34480, Note_on_c, 0, 63, 62
2, 34560, Note_on_c, 0, 63, 0
2, 34560, Note_on_c, 0, 56, 52
2, 34640, Note_on_c, 0, 56, 0
2, 34640, Note_on_c, 0, 63, 54
2, 34720, Note_on_c, 0, 63, 0
2, 34720, Note_on_c, 0, 66, 54
2, 34800, Note_on_c, 0, 66, 0
2, 34800, Note_on_c, 0, 68, 56
2, 34880, Note_on_c, 0, 68, 0
2, 34880, Note_on_c, 0, 63, 56
2, 34960, Note_on_c, 0, 63, 0
2, 34960, Note_on_c, 0, 66, 54
2, 35040, Note_on_c, 0, 66, 0
2, 35040, Note_on_c, 0, 68, 58
2, 35120, Note_on_c, 0, 68, 0
2, 35120, Note_on_c, 0, 75, 58
2, 35200, Note_on_c, 0, 75, 0
2, 35200, Note_on_c, 0, 66, 56
2, 35280, Note_on_c, 0, 66, 0
2, 35280, Note_on_c, 0, 68, 60
2, 35360, Note_on_c, 0, 68, 0
2, 35360, Note_on_c, 0, 75, 60
2, 35440, Note_on_c, 0, 75, 0
2, 35440, Note_on_c, 0, 78, 58
2, 35520, Note_on_c, 0, 78, 0
2, 35520, Note_on_c, 0, 68, 62
2, 35600, Note_on_c, 0, 68, 0
2, 35600, Note_on_c, 0, 75, 58
2, 35680, Note_on_c, 0, 75, 0
2, 35680, Note_on_c, 0, 78, 62
2, 35760, Note_on_c, 0, 78, 0
2, 35760, Note_on_c, 0, 80, 62
2, 35840, Note_on_c, 0, 80, 0
2, 35840, Note_on_c, 0, 75, 54
2, 35920, Note_on_c, 0, 75, 0
2, 35920, Note_on_c, 0, 78, 58
2, 36000, Note_on_c, 0, 78, 0
2, 36000, Note_on_c, 0, 80, 62
2, 36080, Note_on_c, 0, 80, 0
2, 36080, Note_on_c, 0, 87, 65
2, 36160, Note_on_c, 0, 87, 0
2, 36160, Note_on_c, 0, 78, 60
2, 36240, Note_on_c, 0, 78, 0
2, 36240, Note_on_c, 0, 80, 62
2, 36320, Note_on_c, 0, 80, 0
2, 36320, Note_on_c, 0, 90, 58
2, 36400, Note_on_c, 0, 90, 0
2, 36400, Note_on_c, 0, 87, 59
2, 36480, Note_on_c, 0, 87, 0
2, 36480, Note_on_c, 0, 80, 59
2, 36560, Note_on_c, 0, 80, 0
2, 36560, Note_on_c, 0, 78, 59
2, 36640, Note_on_c, 0, 78, 0
2, 36640, Note_on_c, 0, 87, 58
2, 36720, Note_on_c, 0, 87, 0
2, 36720, Note_on_c, 0, 80, 58
2, 36800, Note_on_c, 0, 80, 0
2, 36800, Note_on_c, 0, 78, 57
2, 36880, Note_on_c, 0, 78, 0
2, 36880, Note_on_c, 0, 75, 56
2, 36960, Note_on_c, 0, 75, 0
2, 36960, Note_on_c, 0, 80, 56
2, 37040, Note_on_c, 0, 80, 0
2, 37040, Note_on_c, 0, 78, 56
2, 37120, Note_on_c, 0, 78, 0
2, 37120, Note_on_c, 0, 75, 54
2, 37200, Note_on_c, 0, 75, 0
2, 37200, Note_on_c, 0, 68, 54
2, 37280, Note_on_c, 0, 68, 0
2, 37280, Note_on_c, 0, 78, 52
2, 37360, Note_on_c, 0, 78, 0
2, 37360, Note_on_c, 0, 75, 52
2, 37440, Note_on_c, 0, 75, 0
2, 37440, Note_on_c, 0, 68, 52
2, 37520, Note_on_c, 0, 68, 0
2, 37520, Note_on_c, 0, 66, 51
2, 37600, Note_on_c, 0, 66, 0
2, 37600, Note_on_c, 0, 75, 51
2, 37680, Note_on_c, 0, 75, 0
2, 37680, Note_on_c, 0, 68, 50
2, 37760, Note_on_c, 0, 68, 0
2, 37760, Note_on_c, 0, 66, 49
2, 37840, Note_on_c, 0, 66, 0
2, 37840, Note_on_c, 0, 63, 49
2, 37920, Note_on_c, 0, 63, 0
2, 37920, Note_on_c, 0, 68, 48
2, 38000, Note_on_c, 0, 68, 0
2, 38000, Note_on_c, 0, 66, 48
2, 38080, Note_on_c, 0, 66, 0
2, 38080, Note_on_c, 0, 63, 48
2, 38160, Note_on_c, 0, 63, 0
2, 38160, Note_on_c, 0, 56, 46
2, 38240, Note_on_c, 0, 56, 0
2, 38240, Note_on_c, 0, 66, 46
2, 38320, Note_on_c, 0, 66, 0
2, 38320, Note_on_c, 0, 63, 44
2, 38400, Note_on_c, 0, 63, 0
2, 38400, Note_on_c, 0, 61, 65
2, 38480, Note_on_c, 0, 61, 0
2, 38480, Note_on_c, 0, 73, 59
2, 38560, Note_on_c, 0, 73, 0
2, 38560, Note_on_c, 0, 68, 55
2, 38640, Note_on_c, 0, 68, 0
2, 38640, Note_on_c, 0, 73, 65
2, 38720, Note_on_c, 0, 73, 0
2, 38720, Note_on_c, 0, 65, 59
2, 38800, Note_on_c, 0, 65, 0
2, 38800, Note_on_c, 0, 80, 58
2, 38880, Note_on_c, 0, 80, 0
2, 38880, Note_on_c, 0, 73, 70
2, 38960, Note_on_c, 0, 73, 0
2, 38960, Note_on_c, 0, 80, 66
2, 39040, Note_on_c, 0, 80, 0
2, 39040, Note_on_c, 0, 68, 66
2, 39120, Note_on_c, 0, 68, 0
2, 39120, Note_on_c, 0, 73, 70
2, 39200, Note_on_c, 0, 73, 0
2, 39200, Note_on_c, 0, 68, 66
2, 39280, Note_on_c, 0, 68, 0
2, 39280, Note_on_c, 0, 73, 62
2, 39360, Note_on_c, 0, 73, 0
2, 39360, Note_on_c, 0, 61, 65
2, 39440, Note_on_c, 0, 61, 0
2, 39440, Note_on_c, 0, 73, 63
2, 39520, Note_on_c, 0, 73, 0
2, 39520, Note_on_c, 0, 68, 58
2, 39600, Note_on_c, 0, 68, 0
2, 39600, Note_on_c, 0, 73, 65
2, 39680, Note_on_c, 0, 73, 0
2, 39680, Note_on_c, 0, 68, 63
2, 39760, Note_on_c, 0, 68, 0
2, 39760, Note_on_c, 0, 80, 57
2, 39840, Note_on_c, 0, 80, 0
2, 39840, Note_on_c, 0, 73, 65
2, 39920, Note_on_c, 0, 73, 0
2, 39920, Note_on_c, 0, 80, 59
2, 40000, Note_on_c, 0, 80, 0
2, 40000, Note_on_c, 0, 68, 55
2, 40080, Note_on_c, 0, 68, 0
2, 40080, Note_on_c, 0, 73, 65
2, 40160, Note_on_c, 0, 73, 0
2, 40160, Note_on_c, 0, 68, 63
2, 40240, Note_on_c, 0, 68, 0
2, 40240, Note_on_c, 0, 73, 58
2, 40320, Note_on_c, 0, 73, 0
2, 40320, Note_on_c, 0, 61, 65
2, 40400, Note_on_c, 0, 61, 0
2, 40400, Note_on_c, 0, 73, 58
2, 40480, Note_on_c, 0, 73, 0
2, 40480, Note_on_c, 0, 68, 56
2, 40560, Note_on_c, 0, 68, 0
2, 40560, Note_on_c, 0, 73, 65
2, 40640, Note_on_c, 0, 73, 0
2, 40640, Note_on_c, 0, 73, 58
2, 40720, Note_on_c, 0, 73, 0
2, 40720, Note_on_c, 0, 85, 55
2, 40800, Note_on_c, 0, 85, 0
2, 40800, Note_on_c, 0, 80, 71
2, 40880, Note_on_c, 0, 80, 0
2, 40880, Note_on_c, 0, 85, 64
2, 40960, Note_on_c, 0, 85, 0
2, 40960, Note_on_c, 0, 73, 62
2, 41040, Note_on_c, 0, 73, 0
2, 41040, Note_on_c, 0, 73, 71
2, 41120, Note_on_c, 0, 73, 0
2, 41120, Note_on_c, 0, 68, 67
2, 41200, Note_on_c, 0, 68, 0
2, 41200, Note_on_c, 0, 73, 62
2, 41280, Note_on_c, 0, 73, 0
2, 41280, Note_on_c, 0, 68, 65
2, 41360, Note_on_c, 0, 68, 0
2, 41360, Note_on_c, 0, 80, 59
2, 41440, Note_on_c, 0, 80, 0
2, 41440, Note_on_c, 0, 73, 54
2, 41520, Note_on_c, 0, 73, 0
2, 41520, Note_on_c, 0, 80, 65
2, 41600, Note_on_c, 0, 80, 0
2, 41600, Note_on_c, 0, 80, 58
2, 41680, Note_on_c, 0, 80, 0
2, 41680, Note_on_c, 0, 92, 59
2, 41760, Note_on_c, 0, 92, 0
2, 41760, Note_on_c, 0, 85, 65
2, 41840, Note_on_c, 0, 85, 0
2, 41840, Note_on_c, 0, 92, 57
2, 41920, Note_on_c, 0, 92, 0
2, 41920, Note_on_c, 0, 80, 60
2, 42000, Note_on_c, 0, 80, 0
2, 42000, Note_on_c, 0, 80, 65
2, 42080, Note_on_c, 0, 80, 0
2, 42080, Note_on_c, 0, 73, 63
2, 42160, Note_on_c, 0, 73, 0
2, 42160, Note_on_c, 0, 80, 56
2, 42240, Note_on_c, 0, 80, 0
2, 42240, Note_on_c, 0, 73, 65
2, 42320, Note_on_c, 0, 73, 0
2, 42320, Note_on_c, 0, 75, 62
2, 42400, Note_on_c, 0, 75, 0
2, 42400, Note_on_c, 0, 73, 57
2, 42480, Note_on_c, 0, 73, 0
2, 42480, Note_on_c, 0, 87, 64
2, 42560, Note_on_c, 0, 87, 0
2, 42560, Note_on_c, 0, 85, 61
2, 42640, Note_on_c, 0, 85, 0
2, 42640, Note_on_c, 0, 99, 61
2, 42720, Note_on_c, 0, 99, 0
2, 42720, Note_on_c, 0, 97, 73
2, 42800, Note_on_c, 0, 97, 0
2, 42800, Note_on_c, 0, 99, 65
2, 42880, Note_on_c, 0, 99, 0
2, 42880, Note_on_c, 0, 97, 66
2, 42960, Note_on_c, 0, 97, 0
2, 42960, Note_on_c, 0, 85, 80
2, 43040, Note_on_c, 0, 85, 0
2, 43040, Note_on_c, 0, 87, 75
2, 43120, Note_on_c, 0, 87, 0
2, 43120, Note_on_c, 0, 85, 70
2, 43200, Note_on_c, 0, 85, 0
2, 43200, Note_on_c, 0, 73, 81
2, 43280, Note_on_c, 0, 73, 0
2, 43280, Note_on_c, 0, 75, 77
2, 43360, Note_on_c, 0, 75, 0
2, 43360, Note_on_c, 0, 73, 73
2, 43440, Note_on_c, 0, 73, 0
2, 43440, Note_on_c, 0, 87, 78
2, 43520, Note_on_c, 0, 87, 0
2, 43520, Note_on_c, 0, 85, 70
2, 43600, Note_on_c, 0, 85, 0
2, 43600, Note_on_c, 0, 99, 74
2, 43680, Note_on_c, 0, 99, 0
2, 43680, Note_on_c, 0, 97, 73
2, 43760, Note_on_c, 0, 97, 0
2, 43760, Note_on_c, 0, 99, 70
2, 43840, Note_on_c, 0, 99, 0
2, 43840, Note_on_c, 0, 97, 66
2, 43920, Note_on_c, 0, 97, 0
2, 43920, Note_on_c, 0, 85, 70
2, 44000, Note_on_c, 0, 85, 0
2, 44000, Note_on_c, 0, 87, 67
2, 44080, Note_on_c, 0, 87, 0
2, 44080, Note_on_c, 0, 85, 66
2, 44160, Note_on_c, 0, 85, 0
2, 44160, Note_on_c, 0, 97, 65
2, 44240, Note_on_c, 0, 97, 0
2, 44240, Note_on_c, 0, 99, 65
2, 44320, Note_on_c, 0, 99, 0
2, 44320, Note_on_c, 0, 97, 62
2, 44400, Note_on_c, 0, 97, 0
2, 44400, Note_on_c, 0, 85, 66
2, 44480, Note_on_c, 0, 85, 0
2, 44480, Note_on_c, 0, 87, 69
2, 44560, Note_on_c, 0, 87, 0
2, 44560, Note_on_c, 0, 85, 65
2, 44640, Note_on_c, 0, 85, 0
2, 44640, Note_on_c, 0, 97, 71
2, 44720, Note_on_c, 0, 97, 0
2, 44720, Note_on_c, 0, 99, 68
2, 44800, Note_on_c, 0, 99, 0
2, 44800, Note_on_c, 0, 97, 72
2, 44880, Note_on_c, 0, 97, 0
2, 44880, Note_on_c, 0, 85, 75
2, 44960, Note_on_c, 0, 85, 0
2, 44960, Note_on_c, 0, 87, 72
2, 45040, Note_on_c, 0, 87, 0
2, 45040, Note_on_c, 0, 85, 68
2, 45120, Note_on_c, 0, 85, 0
2, 45120, Note_on_c, 0, 97, 79
2, 45200, Note_on_c, 0, 97, 0
2, 45200, Note_on_c, 0, 99, 75
2, 45280, Note_on_c, 0, 99, 0
2, 45280, Note_on_c, 0, 97, 70
2, 45360, Note_on_c, 0, 97, 0
2, 45360, Note_on_c, 0, 85, 74
2, 45440, Note_on_c, 0, 85, 0
2, 45440, Note_on_c, 0, 87, 69
2, 45520, Note_on_c, 0, 87, 0
2, 45520, Note_on_c, 0, 85, 68
2, 45600, Note_on_c, 0, 85, 0
2, 45600, Note_on_c, 0, 97, 71
2, 45680, Note_on_c, 0, 97, 0
2, 45680, Note_on_c, 0, 99, 67
2, 45760, Note_on_c, 0, 99, 0
2, 45760, Note_on_c, 0, 97, 64
2, 45840, Note_on_c, 0, 97, 0
2, 45840, Note_on_c, 0, 85, 67
2, 45920, Note_on_c, 0, 85, 0
2, 45920, Note_on_c, 0, 87, 66
2, 46000, Note_on_c, 0, 87, 0
2, 46000, Note_on_c, 0, 85, 65
2, 46080, Note_on_c, 0, 85, 0
2, 46080, Control_c, 0, 91, 127
2, 46080, Control_c, 0, 64, 0
2, 46081, Note_on_c, 0, 90, 96
2, 46160, Note_on_c, 0, 94, 70
2, 46161, Note_on_c, 0, 90, 0
2, 46240, Note_on_c, 0, 94, 0
2, 46240, Note_on_c, 0, 85, 70
2, 46320, Note_on_c, 0, 85, 0
2, 46320, Note_on_c, 0, 90, 92
2, 46400, Note_on_c, 0, 90, 0
2, 46400, Note_on_c, 0, 87, 74
2, 46480, Note_on_c, 0, 87, 0
2, 46480, Note_on_c, 0, 90, 70
2, 46560, Note_on_c, 0, 90, 0
2, 46560, Note_on_c, 0, 85, 97
2, 46640, Note_on_c, 0, 85, 0
2, 46640, Note_on_c, 0, 90, 74
2, 46720, Note_on_c, 0, 90, 0
2, 46720, Note_on_c, 0, 82, 71
2, 46800, Note_on_c, 0, 82, 0
2, 46800, Note_on_c, 0, 85, 84
2, 46880, Note_on_c, 0, 85, 0
2, 46880, Note_on_c, 0, 78, 73
2, 46960, Note_on_c, 0, 78, 0
2, 46960, Note_on_c, 0, 82, 70
2, 47040, Note_on_c, 0, 82, 0
2, 47040, Note_on_c, 0, 78, 74
2, 47120, Note_on_c, 0, 78, 0
2, 47120, Note_on_c, 0, 82, 69
2, 47200, Note_on_c, 0, 82, 0
2, 47200, Note_on_c, 0, 73, 66
2, 47280, Note_on_c, 0, 73, 0
2, 47280, Note_on_c, 0, 78, 69
2, 47360, Note_on_c, 0, 78, 0
2, 47360, Note_on_c, 0, 75, 66
2, 47440, Note_on_c, 0, 75, 0
2, 47440, Note_on_c, 0, 78, 63
2, 47520, Note_on_c, 0, 78, 0
2, 47520, Note_on_c, 0, 73, 74
2, 47600, Note_on_c, 0, 73, 0
2, 47600, Note_on_c, 0, 78, 68
2, 47680, Note_on_c, 0, 78, 0
2, 47680, Note_on_c, 0, 70, 63
2, 47760, Note_on_c, 0, 70, 0
2, 47760, Note_on_c, 0, 73, 74
2, 47840, Note_on_c, 0, 73, 0
2, 47840, Note_on_c, 0, 66, 64
2, 47920, Note_on_c, 0, 66, 0
2, 47920, Note_on_c, 0, 70, 61
2, 48000, Note_on_c, 0, 70, 0
2, 48000, Note_on_c, 0, 61, 74
2, 48080, Note_on_c, 0, 61, 0
2, 48080, Note_on_c, 0, 73, 72
2, 48160, Note_on_c, 0, 73, 0
2, 48160, Note_on_c, 0, 68, 67
2, 48240, Note_on_c, 0, 68, 0
2, 48240, Note_on_c, 0, 73, 75
2, 48320, Note_on_c, 0, 73, 0
2, 48320, Note_on_c, 0, 68, 66
2, 48400, Note_on_c, 0, 68, 0
2, 48400, Note_on_c, 0, 80, 67
2, 48480, Note_on_c, 0, 80, 0
2, 48480, Note_on_c, 0, 68, 72
2, 48560, Note_on_c, 0, 68, 0
2, 48560, Note_on_c, 0, 80, 73
2, 48640, Note_on_c, 0, 80, 0
2, 48640, Note_on_c, 0, 75, 71
2, 48720, Note_on_c, 0, 75, 0
2, 48720, Note_on_c, 0, 80, 78
2, 48800, Note_on_c, 0, 80, 0
2, 48800, Note_on_c, 0, 75, 76
2, 48880, Note_on_c, 0, 75, 0
2, 48880, Note_on_c, 0, 87, 72
2, 48960, Note_on_c, 0, 87, 0
2, 48960, Note_on_c, 0, 75, 82
2, 49040, Note_on_c, 0, 75, 0
2, 49040, Note_on_c, 0, 87, 77
2, 49120, Note_on_c, 0, 87, 0
2, 49120, Note_on_c, 0, 80, 72
2, 49200, Note_on_c, 0, 80, 0
2, 49200, Note_on_c, 0, 87, 86
2, 49280, Note_on_c, 0, 87, 0
2, 49280, Note_on_c, 0, 80, 74
2, 49360, Note_on_c, 0, 80, 0
2, 49360, Note_on_c, 0, 92, 75
2, 49440, Note_on_c, 0, 92, 0
2, 49440, Note_on_c, 0, 80, 88
2, 49520, Note_on_c, 0, 80, 0
2, 49520, Note_on_c, 0, 92, 81
2, 49600, Note_on_c, 0, 92, 0
2, 49600, Note_on_c, 0, 85, 77
2, 49680, Note_on_c, 0, 85, 0
2, 49680, Note_on_c, 0, 92, 89
2, 49760, Note_on_c, 0, 92, 0
2, 49760, Note_on_c, 0, 85, 85
2, 49840, Note_on_c, 0, 85, 0
2, 49840, Note_on_c, 0, 97, 83
2, 49920, Note_on_c, 0, 97, 0
2, 49920, Note_on_c, 0, 90, 97
2, 50000, Note_on_c, 0, 90, 0
2, 50000, Note_on_c, 0, 94, 74
2, 50080, Note_on_c, 0, 94, 0
2, 50080, Note_on_c, 0, 85, 71
2, 50160, Note_on_c, 0, 85, 0
2, 50160, Note_on_c, 0, 90, 94
2, 50240, Note_on_c, 0, 90, 0
2, 50240, Note_on_c, 0, 87, 75
2, 50320, Note_on_c, 0, 87, 0
2, 50320, Note_on_c, 0, 90, 73
2, 50400, Note_on_c, 0, 90, 0
2, 50400, Note_on_c, 0, 85, 95
2, 50480, Note_on_c, 0, 85, 0
2, 50480, Note_on_c, 0, 90, 76
2, 50560, Note_on_c, 0, 90, 0
2, 50560, Note_on_c, 0, 82, 73
2, 50640, Note_on_c, 0, 82, 0
2, 50640, Note_on_c, 0, 85, 86
2, 50720, Note_on_c, 0, 85, 0
2, 50720, Note_on_c, 0, 78, 77
2, 50800, Note_on_c, 0, 78, 0
2, 50800, Note_on_c, 0, 82, 73
2, 50880, Note_on_c, 0, 82, 0
2, 50880, Note_on_c, 0, 78, 74
2, 50960, Note_on_c, 0, 78, 0
2, 50960, Note_on_c, 0, 82, 66
2, 51040, Note_on_c, 0, 82, 0
2, 51040, Note_on_c, 0, 73, 64
2, 51120, Note_on_c, 0, 73, 0
2, 51120, Note_on_c, 0, 78, 70
2, 51200, Note_on_c, 0, 78, 0
2, 51200, Note_on_c, 0, 75, 67
2, 51280, Note_on_c, 0, 75, 0
2, 51280, Note_on_c, 0, 78, 67
2, 51360, Note_on_c, 0, 78, 0
2, 51360, Note_on_c, 0, 73, 74
2, 51440, Note_on_c, 0, 73, 0
2, 51440, Note_on_c, 0, 78, 62
2, 51520, Note_on_c, 0, 78, 0
2, 51520, Note_on_c, 0, 70, 55
2, 51600, Note_on_c, 0, 70, 0
2, 51600, Note_on_c, 0, 73, 74
2, 51680, Note_on_c, 0, 73, 0
2, 51680, Note_on_c, 0, 66, 64
2, 51760, Note_on_c, 0, 66, 0
2, 51760, Note_on_c, 0, 70, 60
2, 51840, Note_on_c, 0, 70, 0
2, 51840, Note_on_c, 0, 63, 74
2, 51920, Note_on_c, 0, 63, 0
2, 51920, Note_on_c, 0, 75, 71
2, 52000, Note_on_c, 0, 75, 0
2, 52000, Note_on_c, 0, 68, 67
2, 52080, Note_on_c, 0, 68, 0
2, 52080, Note_on_c, 0, 75, 74
2, 52160, Note_on_c, 0, 75, 0
2, 52160, Note_on_c, 0, 68, 72
2, 52240, Note_on_c, 0, 68, 0
2, 52240, Note_on_c, 0, 80, 67
2, 52320, Note_on_c, 0, 80, 0
2, 52320, Note_on_c, 0, 70, 74
2, 52400, Note_on_c, 0, 70, 0
2, 52400, Note_on_c, 0, 82, 85
2, 52480, Note_on_c, 0, 82, 0
2, 52480, Note_on_c, 0, 70, 72
2, 52560, Note_on_c, 0, 70, 0
2, 52560, Note_on_c, 0, 82, 74
2, 52640, Note_on_c, 0, 82, 0
2, 52640, Note_on_c, 0, 70, 70
2, 52720, Note_on_c, 0, 70, 0
2, 52720, Note_on_c, 0, 82, 66
2, 52800, Note_on_c, 0, 82, 0
2, 52800, Note_on_c, 0, 75, 74
2, 52880, Note_on_c, 0, 75, 0
2, 52880, Note_on_c, 0, 87, 70
2, 52960, Note_on_c, 0, 87, 0
2, 52960, Note_on_c, 0, 80, 70
2, 53040, Note_on_c, 0, 80, 0
2, 53040, Note_on_c, 0, 87, 71
2, 53120, Note_on_c, 0, 87, 0
2, 53120, Note_on_c, 0, 80, 69
2, 53200, Note_on_c, 0, 80, 0
2, 53200, Note_on_c, 0, 92, 69
2, 53280, Note_on_c, 0, 92, 0
2, 53280, Note_on_c, 0, 82, 72
2, 53360, Note_on_c, 0, 82, 0
2, 53360, Note_on_c, 0, 94, 79
2, 53440, Note_on_c, 0, 94, 0
2, 53440, Note_on_c, 0, 82, 69
2, 53520, Note_on_c, 0, 82, 0
2, 53520, Note_on_c, 0, 94, 72
2, 53600, Note_on_c, 0, 94, 0
2, 53600, Note_on_c, 0, 82, 72
2, 53680, Note_on_c, 0, 82, 0
2, 53680, Note_on_c, 0, 94, 70
2, 53760, Note_on_c, 0, 94, 0
2, 53760, Note_on_c, 0, 82, 74
2, 53840, Note_on_c, 0, 82, 0
2, 53840, Note_on_c, 0, 94, 72
2, 53920, Note_on_c, 0, 94, 0
2, 53920, Note_on_c, 0, 87, 72
2, 54000, Note_on_c, 0, 87, 0
2, 54000, Note_on_c, 0, 94, 74
2, 54080, Note_on_c, 0, 94, 0
2, 54080, Note_on_c, 0, 80, 69
2, 54160, Note_on_c, 0, 80, 0
2, 54160, Note_on_c, 0, 92, 67
2, 54240, Note_on_c, 0, 92, 0
2, 54240, Note_on_c, 0, 80, 75
2, 54320, Note_on_c, 0, 80, 0
2, 54320, Note_on_c, 0, 92, 73
2, 54400, Note_on_c, 0, 92, 0
2, 54400, Note_on_c, 0, 85, 70
2, 54480, Note_on_c, 0, 85, 0
2, 54480, Note_on_c, 0, 92, 77
2, 54560, Note_on_c, 0, 92, 0
2, 54560, Note_on_c, 0, 78, 69
2, 54640, Note_on_c, 0, 78, 0
2, 54640, Note_on_c, 0, 90, 70
2, 54720, Note_on_c, 0, 90, 0
2, 54720, Note_on_c, 0, 73, 77
2, 54800, Note_on_c, 0, 73, 0
2, 54800, Note_on_c, 0, 85, 72
2, 54880, Note_on_c, 0, 85, 0
2, 54880, Note_on_c, 0, 80, 69
2, 54960, Note_on_c, 0, 80, 0
2, 54960, Note_on_c, 0, 85, 78
2, 55040, Note_on_c, 0, 85, 0
2, 55040, Note_on_c, 0, 80, 72
2, 55120, Note_on_c, 0, 80, 0
2, 55120, Note_on_c, 0, 92, 75
2, 55200, Note_on_c, 0, 92, 0
2, 55200, Note_on_c, 0, 78, 78
2, 55280, Note_on_c, 0, 78, 0
2, 55280, Note_on_c, 0, 90, 74
2, 55360, Note_on_c, 0, 90, 0
2, 55360, Note_on_c, 0, 85, 72
2, 55440, Note_on_c, 0, 85, 0
2, 55440, Note_on_c, 0, 90, 80
2, 55520, Note_on_c, 0, 90, 0
2, 55520, Note_on_c, 0, 85, 74
2, 55600, Note_on_c, 0, 85, 0
2, 55600, Note_on_c, 0, 97, 78
2, 55680, Note_on_c, 0, 97, 0
2, 55680, Note_on_c, 0, 82, 80
2, 55760, Note_on_c, 0, 82, 0
2, 55760, Note_on_c, 0, 94, 74
2, 55840, Note_on_c, 0, 94, 0
2, 55840, Note_on_c, 0, 87, 71
2, 55920, Note_on_c, 0, 87, 0
2, 55920, Note_on_c, 0, 94, 81
2, 56000, Note_on_c, 0, 94, 0
2, 56000, Note_on_c, 0, 80, 79
2, 56080, Note_on_c, 0, 80, 0
2, 56080, Note_on_c, 0, 92, 76
2, 56160, Note_on_c, 0, 92, 0
2, 56160, Note_on_c, 0, 80, 82
2, 56240, Note_on_c, 0, 80, 0
2, 56240, Note_on_c, 0, 92, 76
2, 56320, Note_on_c, 0, 92, 0
2, 56320, Note_on_c, 0, 85, 73
2, 56400, Note_on_c, 0, 85, 0
2, 56400, Note_on_c, 0, 92, 82
2, 56480, Note_on_c, 0, 92, 0
2, 56480, Note_on_c, 0, 78, 74
2, 56560, Note_on_c, 0, 78, 0
2, 56560, Note_on_c, 0, 90, 70
2, 56640, Note_on_c, 0, 90, 0
2, 56640, Note_on_c, 0, 73, 83
2, 56720, Note_on_c, 0, 73, 0
2, 56720, Note_on_c, 0, 85, 74
2, 56800, Note_on_c, 0, 85, 0
2, 56800, Note_on_c, 0, 80, 71
2, 56880, Note_on_c, 0, 80, 0
2, 56880, Note_on_c, 0, 85, 83
2, 56960, Note_on_c, 0, 85, 0
2, 56960, Note_on_c, 0, 80, 76
2, 57040, Note_on_c, 0, 80, 0
2, 57040, Note_on_c, 0, 92, 82
2, 57120, Note_on_c, 0, 92, 0
2, 57120, Note_on_c, 0, 78, 86
2, 57200, Note_on_c, 0, 78, 0
2, 57200, Note_on_c, 0, 90, 76
2, 57280, Note_on_c, 0, 90, 0
2, 57280, Note_on_c, 0, 85, 73
2, 57360, Note_on_c, 0, 85, 0
2, 57360, Note_on_c, 0, 90, 87
2, 57440, Note_on_c, 0, 90, 0
2, 57440, Note_on_c, 0, 85, 79
2, 57520, Note_on_c, 0, 85, 0
2, 57520, Note_on_c, 0, 97, 75
2, 57600, Note_on_c, 0, 97, 0
2, 57600, Note_on_c, 0, 82, 83
2, 57680, Note_on_c, 0, 82, 0
2, 57680, Note_on_c, 0, 94, 74
2, 57760, Note_on_c, 0, 94, 0
2, 57760, Note_on_c, 0, 87, 75
2, 57840, Note_on_c, 0, 87, 0
2, 57840, Note_on_c, 0, 94, 86
2, 57920, Note_on_c, 0, 94, 0
2, 57920, Note_on_c, 0, 80, 77
2, 58000, Note_on_c, 0, 80, 0
2, 58000, Note_on_c, 0, 92, 74
2, 58080, Note_on_c, 0, 92, 0
2, 58080, Note_on_c, 0, 82, 87
2, 58160, Note_on_c, 0, 82, 0
2, 58160, Note_on_c, 0, 94, 80
2, 58240, Note_on_c, 0, 94, 0
2, 58240, Note_on_c, 0, 87, 74
2, 58320, Note_on_c, 0, 87, 0
2, 58320, Note_on_c, 0, 94, 84
2, 58400, Note_on_c, 0, 94, 0
2, 58400, Note_on_c, 0, 80, 78
2, 58480, Note_on_c, 0, 80, 0
2, 58480, Note_on_c, 0, 92, 74
2, 58560, Note_on_c, 0, 92, 0
2, 58560, Note_on_c, 0, 82, 92
2, 58640, Note_on_c, 0, 82, 0
2, 58640, Note_on_c, 0, 94, 85
2, 58720, Note_on_c, 0, 94, 0
2, 58720, Note_on_c, 0, 87, 81
2, 58800, Note_on_c, 0, 87, 0
2, 58800, Note_on_c, 0, 94, 93
2, 58880, Note_on_c, 0, 94, 0
2, 58880, Note_on_c, 0, 80, 85
2, 58960, Note_on_c, 0, 80, 0
2, 58960, Note_on_c, 0, 92, 90
2, 59040, Note_on_c, 0, 92, 0
2, 59040, Note_on_c, 0, 82, 94
2, 59120, Note_on_c, 0, 82, 0
2, 59120, Note_on_c, 0, 94, 86
2, 59200, Note_on_c, 0, 94, 0
2, 59200, Note_on_c, 0, 87, 83
2, 59280, Note_on_c, 0, 87, 0
2, 59280, Note_on_c, 0, 94, 97
2, 59360, Note_on_c, 0, 94, 0
2, 59360, Note_on_c, 0, 80, 80
2, 59440, Note_on_c, 0, 80, 0
2, 59440, Note_on_c, 0, 92, 88
2, 59520, Note_on_c, 0, 92, 0
2, 59520, Note_on_c, 0, 85, 98
2, 59600, Note_on_c, 0, 85, 0
2, 59600, Note_on_c, 0, 94, 90
2, 59680, Note_on_c, 0, 94, 0
2, 59680, Note_on_c, 0, 80, 87
2, 59760, Note_on_c, 0, 80, 0
2, 59760, Note_on_c, 0, 92, 100
2, 59840, Note_on_c, 0, 92, 0
2, 59840, Note_on_c, 0, 85, 90
2, 59920, Note_on_c, 0, 85, 0
2, 59920, Note_on_c, 0, 94, 92
2, 60000, Note_on_c, 0, 94, 0
2, 60000, Note_on_c, 0, 80, 103
2, 60080, Note_on_c, 0, 80, 0
2, 60080, Note_on_c, 0, 92, 93
2, 60160, Note_on_c, 0, 92, 0
2, 60160, Note_on_c, 0, 85, 86
2, 60240, Note_on_c, 0, 85, 0
2, 60240, Note_on_c, 0, 94, 94
2, 60320, Note_on_c, 0, 94, 0
2, 60320, Note_on_c, 0, 80, 90
2, 60400, Note_on_c, 0, 80, 0
2, 60400, Note_on_c, 0, 92, 86
2, 60480, Note_on_c, 0, 92, 0
2, 60480, Note_on_c, 0, 85, 96
2, 60560, Note_on_c, 0, 85, 0
2, 60560, Note_on_c, 0, 94, 91
2, 60640, Note_on_c, 0, 94, 0
2, 60640, Note_on_c, 0, 80, 85
2, 60720, Note_on_c, 0, 80, 0
2, 60720, Note_on_c, 0, 92, 89
2, 60800, Note_on_c, 0, 92, 0
2, 60800, Note_on_c, 0, 85, 82
2, 60880, Note_on_c, 0, 85, 0
2, 60880, Note_on_c, 0, 94, 75
2, 60960, Note_on_c, 0, 94, 0
2, 60960, Note_on_c, 0, 80, 85
2, 61040, Note_on_c, 0, 80, 0
2, 61040, Note_on_c, 0, 92, 77
2, 61120, Note_on_c, 0, 92, 0
2, 61120, Note_on_c, 0, 85, 71
2, 61200, Note_on_c, 0, 85, 0
2, 61200, Note_on_c, 0, 94, 75
2, 61280, Note_on_c, 0, 94, 0
2, 61280, Note_on_c, 0, 80, 68
2, 61360, Note_on_c, 0, 80, 0
2, 61360, Note_on_c, 0, 92, 64
2, 61440, Note_on_c, 0, 92, 0
2, 61440, Note_on_c, 0, 99, 57
2, 61520, Note_on_c, 0, 99, 0
2, 61560, Note_on_c, 0, 97, 57
2, 61600, Note_on_c, 0, 97, 0
2, 61600, Note_on_c, 0, 94, 52
2, 61680, Note_on_c, 0, 94, 0
2, 61680, Note_on_c, 0, 92, 57
2, 61760, Note_on_c, 0, 92, 0
2, 61760, Note_on_c, 0, 90, 57
2, 61840, Note_on_c, 0, 90, 0
2, 61840, Note_on_c, 0, 87, 54
2, 61920, Note_on_c, 0, 87, 0
2, 61920, Note_on_c, 0, 85, 57
2, 62000, Note_on_c, 0, 85, 0
2, 62000, Note_on_c, 0, 82, 57
2, 62080, Note_on_c, 0, 82, 0
2, 62080, Note_on_c, 0, 80, 53
2, 62160, Note_on_c, 0, 80, 0
2, 62160, Note_on_c, 0, 78, 57
2, 62240, Note_on_c, 0, 78, 0
2, 62240, Note_on_c, 0, 75, 57
2, 62320, Note_on_c, 0, 75, 0
2, 62320, Note_on_c, 0, 73, 54
2, 62400, Note_on_c, 0, 73, 0
2, 62400, Note_on_c, 0, 68, 65
2, 62880, Note_on_c, 0, 68, 0
2, 62880, Note_on_c, 0, 70, 69
2, 63240, Note_on_c, 0, 70, 0
2, 63240, Note_on_c, 0, 68, 64
2, 63360, Note_on_c, 0, 68, 0
2, 63360, Note_on_c, 0, 66, 71
2, 63840, Note_on_c, 0, 66, 0
2, 63840, Note_on_c, 0, 92, 63
2, 63920, Note_on_c, 0, 92, 0
2, 63920, Note_on_c, 0, 94, 53
2, 64000, Note_on_c, 0, 94, 0
2, 64000, Note_on_c, 0, 92, 57
2, 64080, Note_on_c, 0, 92, 0
2, 64080, Note_on_c, 0, 85, 59
2, 64160, Note_on_c, 0, 85, 0
2, 64160, Note_on_c, 0, 97, 59
2, 64240, Note_on_c, 0, 97, 0
2, 64240, Note_on_c, 0, 85, 54
2, 64320, Note_on_c, 0, 85, 0
2, 64320, Note_on_c, 0, 85, 63
2, 64400, Note_on_c, 0, 85, 0
2, 64400, Note_on_c, 0, 87, 63
2, 64480, Note_on_c, 0, 87, 0
2, 64480, Note_on_c, 0, 85, 63
2, 64560, Note_on_c, 0, 85, 0
2, 64560, Note_on_c, 0, 78, 58
2, 64640, Note_on_c, 0, 78, 0
2, 64640, Note_on_c, 0, 90, 55
2, 64720, Note_on_c, 0, 90, 0
2, 64720, Note_on_c, 0, 78, 58
2, 64800, Note_on_c, 0, 78, 0
2, 64800, Note_on_c, 0, 80, 63
2, 64880, Note_on_c, 0, 80, 0
2, 64880, Note_on_c, 0, 82, 54
2, 64960, Note_on_c, 0, 82, 0
2, 64960, Note_on_c, 0, 80, 56
2, 65040, Note_on_c, 0, 80, 0
2, 65040, Note_on_c, 0, 73, 78
2, 65360, Note_on_c, 0, 73, 0
2, 65360, Note_on_c, 0, 78, 62
2, 65440, Note_on_c, 0, 78, 0
2, 65440, Note_on_c, 0, 80, 57
2, 65520, Note_on_c, 0, 80, 0
2, 65520, Note_on_c, 0, 82, 66
2, 65600, Note_on_c, 0, 82, 0
2, 65600, Note_on_c, 0, 80, 64
2, 65680, Note_on_c, 0, 80, 0
2, 65680, Note_on_c, 0, 78, 57
2, 65760, Note_on_c, 0, 78, 0
2, 65760, Note_on_c, 0, 73, 62
2, 65840, Note_on_c, 0, 73, 0
2, 65840, Note_on_c, 0, 80, 64
2, 65920, Note_on_c, 0, 80, 0
2, 65920, Note_on_c, 0, 85, 61
2, 66000, Note_on_c, 0, 85, 0
2, 66000, Note_on_c, 0, 87, 67
2, 66080, Note_on_c, 0, 87, 0
2, 66080, Note_on_c, 0, 85, 65
2, 66160, Note_on_c, 0, 85, 0
2, 66160, Note_on_c, 0, 80, 59
2, 66240, Note_on_c, 0, 80, 0
2, 66240, Note_on_c, 0, 78, 66
2, 66320, Note_on_c, 0, 78, 0
2, 66320, Note_on_c, 0, 85, 63
2, 66400, Note_on_c, 0, 85, 0
2, 66400, Note_on_c, 0, 90, 59
2, 66480, Note_on_c, 0, 90, 0
2, 66480, Note_on_c, 0, 92, 64
2, 66560, Note_on_c, 0, 92, 0
2, 66560, Note_on_c, 0, 90, 64
2, 66640, Note_on_c, 0, 90, 0
2, 66640, Note_on_c, 0, 87, 57
2, 66720, Note_on_c, 0, 87, 0
2, 66720, Note_on_c, 0, 85, 70
2, 66800, Note_on_c, 0, 85, 0
2, 66800, Note_on_c, 0, 92, 67
2, 66880, Note_on_c, 0, 92, 0
2, 66880, Note_on_c, 0, 97, 65
2, 66960, Note_on_c, 0, 97, 0
2, 66960, Note_on_c, 0, 99, 74
2, 67040, Note_on_c, 0, 99, 0
2, 67040, Note_on_c, 0, 97, 67
2, 67120, Note_on_c, 0, 97, 0
2, 67120, Note_on_c, 0, 92, 62
2, 67200, Note_on_c, 0, 92, 0
2, 67200, Note_on_c, 0, 90, 62
2, 67280, Note_on_c, 0, 90, 0
2, 67280, Note_on_c, 0, 92, 57
2, 67360, Note_on_c, 0, 92, 0
2, 67360, Note_on_c, 0, 90, 56
2, 67440, Note_on_c, 0, 90, 0
2, 67440, Note_on_c, 0, 85, 63
2, 67520, Note_on_c, 0, 85, 0
2, 67520, Note_on_c, 0, 97, 59
2, 67600, Note_on_c, 0, 97, 0
2, 67600, Note_on_c, 0, 85, 59
2, 67680, Note_on_c, 0, 85, 0
2, 67680, Note_on_c, 0, 85, 63
2, 67760, Note_on_c, 0, 85, 0
2, 67760, Note_on_c, 0, 87, 60
2, 67840, Note_on_c, 0, 87, 0
2, 67840, Note_on_c, 0, 85, 57
2, 67920, Note_on_c, 0, 85, 0
2, 67920, Note_on_c, 0, 80, 59
2, 68000, Note_on_c, 0, 80, 0
2, 68000, Note_on_c, 0, 92, 59
2, 68080, Note_on_c, 0, 92, 0
2, 68080, Note_on_c, 0, 80, 59
2, 68160, Note_on_c, 0, 80, 0
2, 68160, Note_on_c, 0, 80, 63
2, 68240, Note_on_c, 0, 80, 0
2, 68240, Note_on_c, 0, 82, 59
2, 68320, Note_on_c, 0, 82, 0
2, 68320, Note_on_c, 0, 80, 55
2, 68400, Note_on_c, 0, 80, 0
2, 68400, Note_on_c, 0, 78, 58
2, 68480, Note_on_c, 0, 78, 0
2, 68480, Note_on_c, 0, 90, 58
2, 68560, Note_on_c, 0, 90, 0
2, 68560, Note_on_c, 0, 78, 55
2, 68640, Note_on_c, 0, 78, 0
2, 68640, Note_on_c, 0, 73, 63
2, 69200, Note_on_c, 0, 73, 0
2, 69200, Note_on_c, 0, 78, 64
2, 69280, Note_on_c, 0, 78, 0
2, 69280, Note_on_c, 0, 80, 62
2, 69360, Note_on_c, 0, 80, 0
2, 69360, Note_on_c, 0, 82, 70
2, 69440, Note_on_c, 0, 82, 0
2, 69440, Note_on_c, 0, 80, 64
2, 69520, Note_on_c, 0, 80, 0
2, 69520, Note_on_c, 0, 78, 61
2, 69600, Note_on_c, 0, 78, 0
2, 69600, Note_on_c, 0, 73, 69
2, 69680, Note_on_c, 0, 73, 0
2, 69680, Note_on_c, 0, 80, 66
2, 69760, Note_on_c, 0, 80, 0
2, 69760, Note_on_c, 0, 85, 64
2, 69840, Note_on_c, 0, 85, 0
2, 69840, Note_on_c, 0, 87, 73
2, 69920, Note_on_c, 0, 87, 0
2, 69920, Note_on_c, 0, 85, 67
2, 70000, Note_on_c, 0, 85, 0
2, 70000, Note_on_c, 0, 80, 65
2, 70080, Note_on_c, 0, 80, 0
2, 70080, Note_on_c, 0, 78, 74
2, 70160, Note_on_c, 0, 78, 0
2, 70160, Note_on_c, 0, 85, 71
2, 70240, Note_on_c, 0, 85, 0
2, 70240, Note_on_c, 0, 90, 70
2, 70320, Note_on_c, 0, 90, 0
2, 70320, Note_on_c, 0, 92, 76
2, 70400, Note_on_c, 0, 92, 0
2, 70400, Note_on_c, 0, 90, 70
2, 70480, Note_on_c, 0, 90, 0
2, 70480, Note_on_c, 0, 85, 70
2, 70560, Note_on_c, 0, 85, 0
2, 70560, Note_on_c, 0, 80, 79
2, 70640, Note_on_c, 0, 80, 0
2, 70640, Note_on_c, 0, 85, 81
2, 70720, Note_on_c, 0, 85, 0
2, 70720, Note_on_c, 0, 92, 78
2, 70800, Note_on_c, 0, 92, 0
2, 70800, Note_on_c, 0, 94, 86
2, 70880, Note_on_c, 0, 94, 0
2, 70880, Note_on_c, 0, 92, 78
2, 70960, Note_on_c, 0, 92, 0
2, 70960, Note_on_c, 0, 85, 74
2, 71040, Note_on_c, 0, 85, 0
2, 71040, Note_on_c, 0, 94, 87
2, 71120, Note_on_c, 0, 94, 0
2, 71120, Note_on_c, 0, 85, 77
2, 71200, Note_on_c, 0, 85, 0
2, 71200, Note_on_c, 0, 92, 71
2, 71280, Note_on_c, 0, 92, 0
2, 71280, Note_on_c, 0, 82, 83
2, 71360, Note_on_c, 0, 82, 0
2, 71360, Note_on_c, 0, 92, 78
2, 71440, Note_on_c, 0, 92, 0
2, 71440, Note_on_c, 0, 85, 70
2, 71520, Note_on_c, 0, 85, 0
2, 71520, Note_on_c, 0, 90, 83
2, 71600, Note_on_c, 0, 90, 0
2, 71600, Note_on_c, 0, 82, 76
2, 71680, Note_on_c, 0, 82, 0
2, 71680, Note_on_c, 0, 87, 72
2, 71760, Note_on_c, 0, 87, 0
2, 71760, Note_on_c, 0, 80, 83
2, 71840, Note_on_c, 0, 80, 0
2, 71840, Note_on_c, 0, 85, 76
2, 71920, Note_on_c, 0, 85, 0
2, 71920, Note_on_c, 0, 73, 72
2, 72000, Note_on_c, 0, 73, 0
2, 72000, Note_on_c, 0, 82, 83
2, 72080, Note_on_c, 0, 82, 0
2, 72080, Note_on_c, 0, 73, 78
2, 72160, Note_on_c, 0, 73, 0
2, 72160, Note_on_c, 0, 80, 74
2, 72240, Note_on_c, 0, 80, 0
2, 72240, Note_on_c, 0, 70, 83
2, 72320, Note_on_c, 0, 70, 0
2, 72320, Note_on_c, 0, 80, 72
2, 72400, Note_on_c, 0, 80, 0
2, 72400, Note_on_c, 0, 73, 72
2, 72480, Note_on_c, 0, 73, 0
2, 72480, Note_on_c, 0, 78, 83
2, 72560, Note_on_c, 0, 78, 0
2, 72560, Note_on_c, 0, 70, 78
2, 72640, Note_on_c, 0, 70, 0
2, 72640, Note_on_c, 0, 75, 74
2, 72720, Note_on_c, 0, 75, 0
2, 72720, Note_on_c, 0, 68, 83
2, 72800, Note_on_c, 0, 68, 0
2, 72800, Note_on_c, 0, 73, 77
2, 72880, Note_on_c, 0, 73, 0
2, 72880, Note_on_c, 0, 61, 76
2, 72960, Note_on_c, 0, 61, 0
2, 72960, Note_on_c, 0, 70, 87
2, 73040, Note_on_c, 0, 70, 0
2, 73040, Note_on_c, 0, 61, 82
2, 73120, Note_on_c, 0, 61, 0
2, 73120, Note_on_c, 0, 68, 77
2, 73200, Note_on_c, 0, 68, 0
2, 73200, Note_on_c, 0, 58, 88
2, 73280, Note_on_c, 0, 58, 0
2, 73280, Note_on_c, 0, 68, 77
2, 73360, Note_on_c, 0, 68, 0
2, 73360, Note_on_c, 0, 61, 81
2, 73440, Note_on_c, 0, 61, 0
2, 73440, Note_on_c, 0, 66, 93
2, 73520, Note_on_c, 0, 66, 0
2, 73520, Note_on_c, 0, 58, 87
2, 73600, Note_on_c, 0, 58, 0
2, 73600, Note_on_c, 0, 63, 86
2, 73680, Note_on_c, 0, 63, 0
2, 73680, Note_on_c, 0, 56, 97
2, 73760, Note_on_c, 0, 56, 0
2, 73760, Note_on_c, 0, 61, 91
2, 73840, Note_on_c, 0, 61, 0
2, 73840, Note_on_c, 0, 49, 88
2, 73920, Note_on_c, 0, 49, 0
2, 73920, Note_on_c, 0, 58, 101
2, 74000, Note_on_c, 0, 58, 0
2, 74000, Note_on_c, 0, 54, 92
2, 74080, Note_on_c, 0, 54, 0
2, 74080, Note_on_c, 0, 63, 87
2, 74160, Note_on_c, 0, 63, 0
2, 74160, Note_on_c, 0, 49, 101
2, 74240, Note_on_c, 0, 49, 0
2, 74240, Note_on_c, 0, 61, 92
2, 74320, Note_on_c, 0, 61, 0
2, 74320, Note_on_c, 0, 56, 86
2, 74400, Note_on_c, 0, 56, 0
2, 74400, Note_on_c, 0, 58, 101
2, 74480, Note_on_c, 0, 58, 0
2, 74480, Note_on_c, 0, 54, 93
2, 74560, Note_on_c, 0, 54, 0
2, 74560, Note_on_c, 0, 63, 89
2, 74640, Note_on_c, 0, 63, 0
2, 74640, Note_on_c, 0, 49, 101
2, 74720, Note_on_c, 0, 49, 0
2, 74720, Note_on_c, 0, 61, 93
2, 74800, Note_on_c, 0, 61, 0
2, 74800, Note_on_c, 0, 56, 89
2, 74880, Note_on_c, 0, 56, 0
2, 74880, Note_on_c, 0, 58, 101
2, 75120, Note_on_c, 0, 58, 0
2, 75120, Note_on_c, 0, 54, 48
2, 75120, Note_on_c, 0, 58, 60
2, 75200, Note_on_c, 0, 58, 0
2, 75200, Note_on_c, 0, 54, 0
2, 75200, Note_on_c, 0, 56, 59
2, 75280, Note_on_c, 0, 56, 0
2, 75280, Note_on_c, 0, 54, 54
2, 75360, Note_on_c, 0, 54, 0
2, 75360, Note_on_c, 0, 66, 63
2, 75360, Note_on_c, 0, 63, 50
2, 75440, Note_on_c, 0, 63, 0
2, 75440, Note_on_c, 0, 66, 0
2, 75440, Note_on_c, 0, 61, 60
2, 75520, Note_on_c, 0, 61, 0
2, 75520, Note_on_c, 0, 58, 56
2, 75600, Note_on_c, 0, 58, 0
2, 75600, Note_on_c, 0, 70, 64
2, 75600, Note_on_c, 0, 66, 50
2, 75680, Note_on_c, 0, 66, 0
2, 75680, Note_on_c, 0, 70, 0
2, 75680, Note_on_c, 0, 63, 62
2, 75760, Note_on_c, 0, 63, 0
2, 75760, Note_on_c, 0, 61, 58
2, 75840, Note_on_c, 0, 61, 0
2, 75840, Note_on_c, 0, 70, 52
2, 75840, Note_on_c, 0, 73, 66
2, 75920, Note_on_c, 0, 73, 0
2, 75920, Note_on_c, 0, 70, 0
2, 75920, Note_on_c, 0, 68, 64
2, 76000, Note_on_c, 0, 68, 0
2, 76000, Note_on_c, 0, 66, 58
2, 76080, Note_on_c, 0, 66, 0
2, 76080, Note_on_c, 0, 78, 69
2, 76080, Note_on_c, 0, 75, 55
2, 76160, Note_on_c, 0, 75, 0
2, 76160, Note_on_c, 0, 78, 0
2, 76160, Note_on_c, 0, 73, 59
2, 76240, Note_on_c, 0, 73, 0
2, 76240, Note_on_c, 0, 70, 59
2, 76320, Note_on_c, 0, 70, 0
2, 76320, Note_on_c, 0, 82, 70
2, 76320, Note_on_c, 0, 78, 55
2, 76400, Note_on_c, 0, 78, 0
2, 76400, Note_on_c, 0, 82, 0
2, 76400, Note_on_c, 0, 75, 65
2, 76480, Note_on_c, 0, 75, 0
2, 76480, Note_on_c, 0, 73, 64
2, 76560, Note_on_c, 0, 73, 0
2, 76560, Note_on_c, 0, 85, 71
2, 76560, Note_on_c, 0, 82, 56
2, 76640, Note_on_c, 0, 82, 0
2, 76640, Note_on_c, 0, 85, 0
2, 76640, Note_on_c, 0, 80, 67
2, 76720, Note_on_c, 0, 80, 0
2, 76720, Note_on_c, 0, 78, 67
2, 76800, Note_on_c, 0, 78, 0
2, 76800, Note_on_c, 0, 90, 73
2, 76800, Note_on_c, 0, 87, 58
2, 76880, Note_on_c, 0, 87, 0
2, 76880, Note_on_c, 0, 90, 0
2, 76880, Note_on_c, 0, 85, 67
2, 76960, Note_on_c, 0, 85, 0
2, 76960, Note_on_c, 0, 82, 65
2, 77040, Note_on_c, 0, 82, 0
2, 77040, Note_on_c, 0, 94, 75
2, 77040, Note_on_c, 0, 90, 59
2, 77120, Note_on_c, 0, 90, 0
2, 77120, Note_on_c, 0, 94, 0
2, 77120, Note_on_c, 0, 87, 69
2, 77200, Note_on_c, 0, 87, 0
2, 77200, Note_on_c, 0, 85, 66
2, 77280, Note_on_c, 0, 85, 0
2, 77280, Note_on_c, 0, 90, 78
2, 77280, Note_on_c, 0, 87, 62
2, 77360, Note_on_c, 0, 87, 0
2, 77360, Note_on_c, 0, 90, 0
2, 77360, Note_on_c, 0, 85, 70
2, 77440, Note_on_c, 0, 85, 0
2, 77440, Note_on_c, 0, 82, 69
2, 77520, Note_on_c, 0, 82, 0
2, 77520, Note_on_c, 0, 94, 78
2, 77520, Note_on_c, 0, 90, 62
2, 77600, Note_on_c, 0, 90, 0
2, 77600, Note_on_c, 0, 94, 0
2, 77600, Note_on_c, 0, 87, 71
2, 77680, Note_on_c, 0, 87, 0
2, 77680, Note_on_c, 0, 85, 70
2, 77760, Note_on_c, 0, 85, 0
2, 77760, Note_on_c, 0, 90, 81
2, 77760, Note_on_c, 0, 87, 64
2, 77840, Note_on_c, 0, 87, 0
2, 77840, Note_on_c, 0, 90, 0
2, 77840, Note_on_c, 0, 85, 74
2, 77920, Note_on_c, 0, 85, 0
2, 77920, Note_on_c, 0, 82, 73
2, 78000, Note_on_c, 0, 82, 0
2, 78000, Note_on_c, 0, 94, 81
2, 78000, Note_on_c, 0, 90, 64
2, 78080, Note_on_c, 0, 90, 0
2, 78080, Note_on_c, 0, 94, 0
2, 78080, Note_on_c, 0, 87, 75
2, 78160, Note_on_c, 0, 87, 0
2, 78160, Note_on_c, 0, 85, 74
2, 78240, Note_on_c, 0, 85, 0
2, 78240, Note_on_c, 0, 90, 82
2, 78240, Note_on_c, 0, 87, 65
2, 78320, Note_on_c, 0, 87, 0
2, 78320, Note_on_c, 0, 90, 0
2, 78320, Note_on_c, 0, 85, 75
2, 78400, Note_on_c, 0, 85, 0
2, 78400, Note_on_c, 0, 82, 75
2, 78480, Note_on_c, 0, 82, 0
2, 78480, Note_on_c, 0, 94, 85
2, 78480, Note_on_c, 0, 90, 67
2, 78560, Note_on_c, 0, 90, 0
2, 78560, Note_on_c, 0, 94, 0
2, 78560, Note_on_c, 0, 87, 77
2, 78640, Note_on_c, 0, 87, 0
2, 78640, Note_on_c, 0, 85, 75
2, 78720, Note_on_c, 0, 85, 0
2, 78720, Note_on_c, 0, 82, 89
2, 78720, Note_on_c, 0, 90, 89
2, 78800, Note_on_c, 0, 90, 0
2, 78800, Note_on_c, 0, 82, 0
2, 78880, Note_on_c, 0, 78, 94
2, 78880, Note_on_c, 0, 90, 94
2, 78960, Note_on_c, 0, 90, 0
2, 78960, Note_on_c, 0, 78, 0
2, 78960, Note_on_c, 0, 87, 94
2, 78960, Note_on_c, 0, 75, 94
2, 79040, Note_on_c, 0, 75, 0
2, 79040, Note_on_c, 0, 87, 0
2, 79040, Note_on_c, 0, 85, 95
2, 79040, Note_on_c, 0, 73, 95
2, 79120, Note_on_c, 0, 73, 0
2, 79120, Note_on_c, 0, 85, 0
2, 79120, Note_on_c, 0, 82, 96
2, 79120, Note_on_c, 0, 70, 96
2, 79200, Note_on_c, 0, 70, 0
2, 79200, Note_on_c, 0, 82, 0
2, 79200, Note_on_c, 0, 80, 97
2, 79200, Note_on_c, 0, 68, 97
2, 79280, Note_on_c, 0, 68, 0
2, 79280, Note_on_c, 0, 80, 0
2, 79280, Note_on_c, 0, 78, 98
2, 79280, Note_on_c, 0, 66, 98
2, 79360, Note_on_c, 0, 66, 0
2, 79360, Note_on_c, 0, 78, 0
2, 79360, Note_on_c, 0, 75, 98
2, 79360, Note_on_c, 0, 63, 98
2, 79440, Note_on_c, 0, 63, 0
2, 79440, Note_on_c, 0, 75, 0
2, 79440, Note_on_c, 0, 73, 100
2, 79440, Note_on_c, 0, 61, 100
2, 79520, Note_on_c, 0, 61, 0
2, 79520, Note_on_c, 0, 73, 0
2, 79520, Note_on_c, 0, 70, 101
2, 79520, Note_on_c, 0, 58, 101
2, 79600, Note_on_c, 0, 58, 0
2, 79600, Note_on_c, 0, 70, 0
2, 79600, Note_on_c, 0, 68, 103
2, 79600, Note_on_c, 0, 56, 103
2, 79680, Note_on_c, 0, 56, 0
2, 79680, Note_on_c, 0, 68, 0
2, 79680, Note_on_c, 0, 54, 111
2, 79680, Note_on_c, 0, 66, 111
2, 79800, Note_on_c, 0, 66, 0
2, 79800, Note_on_c, 0, 54, 0
2, 80160, Note_on_c, 0, 94, 118
2, 80160, Note_on_c, 0, 90, 108
2, 80160, Note_on_c, 0, 85, 108
2, 80160, Note_on_c, 0, 82, 108
2, 80640, Note_on_c, 0, 82, 0
2, 80640, Note_on_c, 0, 94, 0
2, 80640, Note_on_c, 0, 90, 0
2, 80640, Note_on_c, 0, 85, 0
2, 80640, Note_on_c, 0, 54, 112
2, 81600, Note_on_c, 0, 54, 0
2, 81600, End_track
3, 0, Start_track
3, 0, MIDI_port, 0
3, 0, Title_t, "Piano left"
3, 0, Program_c, 0, 0
3, 0, Control_c, 0, 7, 100
3, 0, Control_c, 0, 91, 127
3, 0, Control_c, 0, 64, 0
3, 0, Control_c, 0, 91, 127
3, 0, Control_c, 0, 64, 0
3, 0, Text_t, "bdca426d104a26ac9dcb070447587523"
3, 1, Note_on_c, 0, 54, 75
3, 1, Note_on_c, 0, 61, 75
3, 1, Note_on_c, 0, 58, 75
3, 1, Note_on_c, 0, 66, 89
3, 91, Note_on_c, 0, 66, 0
3, 91, Note_on_c, 0, 54, 0
3, 91, Note_on_c, 0, 61, 0
3, 91, Note_on_c, 0, 58, 0
3, 240, Note_on_c, 0, 54, 71
3, 240, Note_on_c, 0, 63, 71
3, 240, Note_on_c, 0, 59, 71
3, 240, Note_on_c, 0, 66, 84
3, 330, Note_on_c, 0, 66, 0
3, 330, Note_on_c, 0, 54, 0
3, 330, Note_on_c, 0, 63, 0
3, 330, Note_on_c, 0, 59, 0
3, 480, Note_on_c, 0, 54, 75
3, 480, Note_on_c, 0, 61, 75
3, 480, Note_on_c, 0, 58, 75
3, 480, Note_on_c, 0, 66, 89
3, 570, Note_on_c, 0, 66, 0
3, 570, Note_on_c, 0, 54, 0
3, 570, Note_on_c, 0, 61, 0
3, 570, Note_on_c, 0, 58, 0
3, 960, Note_on_c, 0, 42, 48
3, 960, Note_on_c, 0, 54, 57
3, 981, Control_c, 0, 64, 127
3, 1050, Note_on_c, 0, 54, 0
3, 1050, Note_on_c, 0, 42, 0
3, 1200, Note_on_c, 0, 66, 55
3, 1200, Note_on_c, 0, 63, 46
3, 1200, Note_on_c, 0, 59, 46
3, 1290, Note_on_c, 0, 59, 0
3, 1290, Note_on_c, 0, 63, 0
3, 1290, Note_on_c, 0, 66, 0
3, 1440, Note_on_c, 0, 66, 57
3, 1440, Note_on_c, 0, 61, 48
3, 1440, Note_on_c, 0, 58, 48
3, 1451, Control_c, 0, 64, 0
3, 1530, Note_on_c, 0, 58, 0
3, 1530, Note_on_c, 0, 61, 0
3, 1530, Note_on_c, 0, 66, 0
3, 1920, Note_on_c, 0, 37, 47
3, 1920, Note_on_c, 0, 49, 56
3, 1934, Control_c, 0, 64, 127
3, 2010, Note_on_c, 0, 49, 0
3, 2010, Note_on_c, 0, 37, 0
3, 2139, Control_c, 0, 64, 0
3, 2160, Note_on_c, 0, 65, 60
3, 2160, Note_on_c, 0, 61, 50
3, 2160, Note_on_c, 0, 56, 50
3, 2250, Note_on_c, 0, 56, 0
3, 2250, Note_on_c, 0, 61, 0
3, 2250, Note_on_c, 0, 65, 0
3, 2400, Note_on_c, 0, 63, 63
3, 2400, Note_on_c, 0, 59, 53
3, 2400, Note_on_c, 0, 56, 53
3, 2404, Control_c, 0, 64, 127
3, 2490, Note_on_c, 0, 56, 0
3, 2490, Note_on_c, 0, 59, 0
3, 2490, Note_on_c, 0, 63, 0
3, 2640, Note_on_c, 0, 44, 68
3, 2730, Note_on_c, 0, 44, 0
3, 2848, Control_c, 0, 64, 0
3, 2880, Note_on_c, 0, 49, 70
3, 2891, Control_c, 0, 64, 127
3, 3120, Note_on_c, 0, 63, 73
3, 3120, Note_on_c, 0, 59, 62
3, 3120, Note_on_c, 0, 56, 62
3, 3124, Control_c, 0, 64, 0
3, 3360, Note_on_c, 0, 56, 0
3, 3360, Note_on_c, 0, 59, 0
3, 3360, Note_on_c, 0, 63, 0
3, 3360, Note_on_c, 0, 61, 78
3, 3360, Note_on_c, 0, 59, 64
3, 3360, Note_on_c, 0, 56, 64
3, 3395, Control_c, 0, 64, 127
3, 3600, Note_on_c, 0, 56, 0
3, 3600, Note_on_c, 0, 49, 0
3, 3600, Note_on_c, 0, 61, 0
3, 3600, Note_on_c, 0, 59, 0
3, 3798, Control_c, 0, 64, 0
3, 3840, Note_on_c, 0, 58, 73
3, 3840, Note_on_c, 0, 66, 87
3, 3840, Note_on_c, 0, 61, 73
3, 3840, Note_on_c, 0, 54, 73
3, 3930, Note_on_c, 0, 54, 0
3, 3930, Note_on_c, 0, 58, 0
3, 3930, Note_on_c, 0, 66, 0
3, 3930, Note_on_c, 0, 61, 0
3, 4080, Note_on_c, 0, 66, 82
3, 4080, Note_on_c, 0, 63, 69
3, 4080, Note_on_c, 0, 59, 69
3, 4080, Note_on_c, 0, 54, 69
3, 4170, Note_on_c, 0, 54, 0
3, 4170, Note_on_c, 0, 66, 0
3, 4170, Note_on_c, 0, 63, 0
3, 4170, Note_on_c, 0, 59, 0
3, 4320, Note_on_c, 0, 66, 87
3, 4320, Note_on_c, 0, 61, 73
3, 4320, Note_on_c, 0, 58, 73
3, 4320, Note_on_c, 0, 54, 73
3, 4410, Note_on_c, 0, 54, 0
3, 4410, Note_on_c, 0, 66, 0
3, 4410, Note_on_c, 0, 61, 0
3, 4410, Note_on_c, 0, 58, 0
3, 4800, Note_on_c, 0, 42, 47
3, 4800, Note_on_c, 0, 54, 56
3, 4825, Control_c, 0, 64, 127
3, 4890, Note_on_c, 0, 54, 0
3, 4890, Note_on_c, 0, 42, 0
3, 5040, Note_on_c, 0, 66, 48
3, 5040, Note_on_c, 0, 63, 40
3, 5040, Note_on_c, 0, 59, 40
3, 5130, Note_on_c, 0, 59, 0
3, 5130, Note_on_c, 0, 63, 0
3, 5130, Note_on_c, 0, 66, 0
3, 5262, Control_c, 0, 64, 0
3, 5280, Note_on_c, 0, 66, 57
3, 5280, Note_on_c, 0, 61, 48
3, 5280, Note_on_c, 0, 58, 48
3, 5370, Note_on_c, 0, 58, 0
3, 5370, Note_on_c, 0, 61, 0
3, 5370, Note_on_c, 0, 66, 0
3, 5760, Note_on_c, 0, 47, 66
3, 6000, Note_on_c, 0, 47, 0
3, 6000, Note_on_c, 0, 63, 71
3, 6000, Note_on_c, 0, 56, 60
3, 6480, Note_on_c, 0, 56, 0
3, 6480, Note_on_c, 0, 63, 0
3, 6480, Note_on_c, 0, 47, 64
3, 6690, Note_on_c, 0, 47, 0
3, 6690, Note_on_c, 0, 46, 57
3, 6705, Note_on_c, 0, 53, 59
3, 6710, Control_c, 0, 64, 127
3, 6720, Note_on_c, 0, 62, 77
3, 6930, Note_on_c, 0, 62, 0
3, 6930, Note_on_c, 0, 53, 0
3, 6930, Note_on_c, 0, 46, 0
3, 6930, Note_on_c, 0, 58, 56
3, 6945, Note_on_c, 0, 65, 56
3, 6960, Note_on_c, 0, 74, 71
3, 7168, Control_c, 0, 64, 0
3, 7200, Note_on_c, 0, 74, 0
3, 7200, Note_on_c, 0, 65, 0
3, 7200, Note_on_c, 0, 58, 0
3, 7680, Control_c, 0, 91, 127
3, 7680, Control_c, 0, 64, 0
3, 7681, Note_on_c, 0, 66, 86
3, 7681, Note_on_c, 0, 61, 72
3, 7681, Note_on_c, 0, 58, 72
3, 7681, Note_on_c, 0, 54, 72
3, 7771, Note_on_c, 0, 54, 0
3, 7771, Note_on_c, 0, 66, 0
3, 7771, Note_on_c, 0, 61, 0
3, 7771, Note_on_c, 0, 58, 0
3, 7920, Note_on_c, 0, 66, 77
3, 7920, Note_on_c, 0, 63, 64
3, 7920, Note_on_c, 0, 59, 64
3, 7920, Note_on_c, 0, 54, 64
3, 8010, Note_on_c, 0, 54, 0
3, 8010, Note_on_c, 0, 66, 0
3, 8010, Note_on_c, 0, 63, 0
3, 8010, Note_on_c, 0, 59, 0
3, 8160, Note_on_c, 0, 66, 86
3, 8160, Note_on_c, 0, 61, 72
3, 8160, Note_on_c, 0, 58, 72
3, 8160, Note_on_c, 0, 54, 72
3, 8250, Note_on_c, 0, 54, 0
3, 8250, Note_on_c, 0, 66, 0
3, 8250, Note_on_c, 0, 61, 0
3, 8250, Note_on_c, 0, 58, 0
3, 8640, Note_on_c, 0, 54, 56
3, 8640, Note_on_c, 0, 42, 56
3, 8658, Control_c, 0, 64, 127
3, 8730, Note_on_c, 0, 42, 0
3, 8730, Note_on_c, 0, 54, 0
3, 8880, Note_on_c, 0, 66, 48
3, 8880, Note_on_c, 0, 63, 40
3, 8880, Note_on_c, 0, 59, 40
3, 8970, Note_on_c, 0, 59, 0
3, 8970, Note_on_c, 0, 63, 0
3, 8970, Note_on_c, 0, 66, 0
3, 9113, Control_c, 0, 64, 0
3, 9120, Note_on_c, 0, 66, 56
3, 9120, Note_on_c, 0, 61, 47
3, 9120, Note_on_c, 0, 58, 47
3, 9210, Note_on_c, 0, 58, 0
3, 9210, Note_on_c, 0, 61, 0
3, 9210, Note_on_c, 0, 66, 0
3, 9600, Note_on_c, 0, 37, 51
3, 9600, Note_on_c, 0, 49, 61
3, 9632, Control_c, 0, 64, 127
3, 9690, Note_on_c, 0, 49, 0
3, 9690, Note_on_c, 0, 37, 0
3, 9819, Control_c, 0, 64, 0
3, 9840, Note_on_c, 0, 65, 61
3, 9840, Note_on_c, 0, 61, 51
3, 9840, Note_on_c, 0, 56, 51
3, 9930, Note_on_c, 0, 56, 0
3, 9930, Note_on_c, 0, 61, 0
3, 9930, Note_on_c, 0, 65, 0
3, 10080, Note_on_c, 0, 63, 62
3, 10080, Note_on_c, 0, 59, 52
3, 10080, Note_on_c, 0, 56, 52
3, 10112, Control_c, 0, 64, 127
3, 10170, Note_on_c, 0, 56, 0
3, 10170, Note_on_c, 0, 59, 0
3, 10170, Note_on_c, 0, 63, 0
3, 10320, Note_on_c, 0, 44, 66
3, 10410, Note_on_c, 0, 44, 0
3, 10500, Control_c, 0, 64, 0
3, 10560, Note_on_c, 0, 49, 70
3, 10574, Control_c, 0, 64, 127
3, 10782, Control_c, 0, 64, 0
3, 10800, Note_on_c, 0, 63, 73
3, 10800, Note_on_c, 0, 59, 62
3, 10800, Note_on_c, 0, 56, 62
3, 11040, Note_on_c, 0, 56, 0
3, 11040, Note_on_c, 0, 59, 0
3, 11040, Note_on_c, 0, 63, 0
3, 11040, Note_on_c, 0, 61, 78
3, 11040, Note_on_c, 0, 59, 64
3, 11040, Note_on_c, 0, 56, 64
3, 11079, Control_c, 0, 64, 127
3, 11280, Note_on_c, 0, 56, 0
3, 11280, Note_on_c, 0, 49, 0
3, 11280, Note_on_c, 0, 61, 0
3, 11280, Note_on_c, 0, 59, 0
3, 11453, Control_c, 0, 64, 0
3, 11520, Note_on_c, 0, 66, 87
3, 11520, Note_on_c, 0, 58, 73
3, 11520, Note_on_c, 0, 61, 73
3, 11520, Note_on_c, 0, 54, 73
3, 11610, Note_on_c, 0, 54, 0
3, 11610, Note_on_c, 0, 66, 0
3, 11610, Note_on_c, 0, 58, 0
3, 11610, Note_on_c, 0, 61, 0
3, 11760, Note_on_c, 0, 54, 69
3, 11760, Note_on_c, 0, 63, 69
3, 11760, Note_on_c, 0, 59, 69
3, 11760, Note_on_c, 0, 66, 81
3, 11850, Note_on_c, 0, 66, 0
3, 11850, Note_on_c, 0, 54, 0
3, 11850, Note_on_c, 0, 63, 0
3, 11850, Note_on_c, 0, 59, 0
3, 12000, Note_on_c, 0, 54, 73
3, 12000, Note_on_c, 0, 61, 73
3, 12000, Note_on_c, 0, 58, 73
3, 12000, Note_on_c, 0, 66, 87
3, 12090, Note_on_c, 0, 66, 0
3, 12090, Note_on_c, 0, 54, 0
3, 12090, Note_on_c, 0, 61, 0
3, 12090, Note_on_c, 0, 58, 0
3, 12480, Note_on_c, 0, 42, 47
3, 12480, Note_on_c, 0, 54, 56
3, 12494, Control_c, 0, 64, 127
3, 12570, Note_on_c, 0, 54, 0
3, 12570, Note_on_c, 0, 42, 0
3, 12720, Note_on_c, 0, 59, 42
3, 12720, Note_on_c, 0, 66, 50
3, 12720, Note_on_c, 0, 63, 42
3, 12810, Note_on_c, 0, 63, 0
3, 12810, Note_on_c, 0, 66, 0
3, 12810, Note_on_c, 0, 59, 0
3, 12946, Control_c, 0, 64, 0
3, 12960, Note_on_c, 0, 66, 56
3, 12960, Note_on_c, 0, 61, 47
3, 12960, Note_on_c, 0, 58, 47
3, 13050, Note_on_c, 0, 58, 0
3, 13050, Note_on_c, 0, 61, 0
3, 13050, Note_on_c, 0, 66, 0
3, 13440, Note_on_c, 0, 48, 62
3, 13458, Control_c, 0, 64, 127
3, 13560, Note_on_c, 0, 48, 0
3, 13680, Note_on_c, 0, 63, 68
3, 13680, Note_on_c, 0, 56, 56
3, 14160, Note_on_c, 0, 56, 0
3, 14160, Note_on_c, 0, 63, 0
3, 14160, Note_on_c, 0, 44, 64
3, 14280, Note_on_c, 0, 44, 0
3, 14322, Control_c, 0, 64, 0
3, 14400, Note_on_c, 0, 49, 78
3, 14418, Control_c, 0, 64, 127
3, 14520, Note_on_c, 0, 49, 0
3, 14640, Note_on_c, 0, 65, 71
3, 14640, Note_on_c, 0, 56, 60
3, 14760, Note_on_c, 0, 56, 0
3, 14760, Note_on_c, 0, 65, 0
3, 15307, Control_c, 0, 64, 0
3, 15360, Note_on_c, 0, 60, 52
3, 15360, Note_on_c, 0, 68, 62
3, 15360, Note_on_c, 0, 66, 52
3, 15600, Note_on_c, 0, 66, 0
3, 15600, Note_on_c, 0, 68, 0
3, 15600, Note_on_c, 0, 60, 0
3, 15600, Note_on_c, 0, 56, 50
3, 15600, Note_on_c, 0, 68, 60
3, 15600, Note_on_c, 0, 66, 50
3, 15840, Note_on_c, 0, 66, 0
3, 15840, Note_on_c, 0, 68, 0
3, 15840, Note_on_c, 0, 56, 0
3, 15840, Note_on_c, 0, 61, 56
3, 15840, Note_on_c, 0, 65, 56
3, 15840, Note_on_c, 0, 70, 68
3, 16080, Note_on_c, 0, 70, 0
3, 16080, Note_on_c, 0, 65, 0
3, 16080, Note_on_c, 0, 61, 0
3, 16080, Note_on_c, 0, 56, 48
3, 16080, Note_on_c, 0, 65, 48
3, 16080, Note_on_c, 0, 68, 59
3, 16320, Note_on_c, 0, 68, 0
3, 16320, Note_on_c, 0, 65, 0
3, 16320, Note_on_c, 0, 56, 0
3, 16320, Note_on_c, 0, 60, 52
3, 16320, Note_on_c, 0, 66, 52
3, 16320, Note_on_c, 0, 70, 62
3, 16560, Note_on_c, 0, 70, 0
3, 16560, Note_on_c, 0, 66, 0
3, 16560, Note_on_c, 0, 60, 0
3, 16560, Note_on_c, 0, 56, 48
3, 16560, Note_on_c, 0, 68, 59
3, 16560, Note_on_c, 0, 66, 59
3, 16800, Note_on_c, 0, 66, 0
3, 16800, Note_on_c, 0, 68, 0
3, 16800, Note_on_c, 0, 56, 0
3, 16800, Note_on_c, 0, 61, 56
3, 16800, Note_on_c, 0, 65, 68
3, 17040, Note_on_c, 0, 65, 0
3, 17040, Note_on_c, 0, 61, 0
3, 17040, Note_on_c, 0, 56, 60
3, 17280, Note_on_c, 0, 56, 0
3, 17280, Note_on_c, 0, 48, 62
3, 17319, Control_c, 0, 64, 127
3, 17400, Note_on_c, 0, 48, 0
3, 17502, Control_c, 0, 64, 0
3, 17520, Note_on_c, 0, 66, 68
3, 17520, Note_on_c, 0, 63, 56
3, 17520, Note_on_c, 0, 56, 56
3, 17640, Note_on_c, 0, 56, 0
3, 17640, Note_on_c, 0, 63, 0
3, 17640, Note_on_c, 0, 66, 0
3, 17760, Note_on_c, 0, 65, 63
3, 17760, Note_on_c, 0, 61, 53
3, 17760, Note_on_c, 0, 56, 53
3, 17778, Control_c, 0, 64, 127
3, 17880, Note_on_c, 0, 56, 0
3, 17880, Note_on_c, 0, 61, 0
3, 17880, Note_on_c, 0, 65, 0
3, 18000, Note_on_c, 0, 49, 62
3, 18120, Note_on_c, 0, 49, 0
3, 18184, Control_c, 0, 64, 0
3, 18240, Note_on_c, 0, 44, 62
3, 18268, Control_c, 0, 64, 127
3, 18360, Note_on_c, 0, 44, 0
3, 18480, Note_on_c, 0, 66, 57
3, 18480, Note_on_c, 0, 60, 48
3, 18480, Note_on_c, 0, 56, 48
3, 18515, Control_c, 0, 64, 0
3, 18600, Note_on_c, 0, 56, 0
3, 18600, Note_on_c, 0, 60, 0
3, 18600, Note_on_c, 0, 66, 0
3, 18720, Note_on_c, 0, 37, 62
3, 18738, Control_c, 0, 64, 127
3, 18840, Note_on_c, 0, 37, 0
3, 18960, Note_on_c, 0, 65, 60
3, 18960, Note_on_c, 0, 61, 50
3, 18960, Note_on_c, 0, 56, 50
3, 19080, Note_on_c, 0, 56, 0
3, 19080, Note_on_c, 0, 61, 0
3, 19080, Note_on_c, 0, 65, 0
3, 19144, Control_c, 0, 64, 0
3, 19200, Note_on_c, 0, 44, 62
3, 19218, Control_c, 0, 64, 127
3, 19440, Note_on_c, 0, 44, 0
3, 19440, Note_on_c, 0, 60, 50
3, 19440, Note_on_c, 0, 68, 60
3, 19440, Note_on_c, 0, 66, 50
3, 19666, Control_c, 0, 64, 0
3, 19680, Note_on_c, 0, 66, 0
3, 19680, Note_on_c, 0, 68, 0
3, 19680, Note_on_c, 0, 60, 0
3, 19680, Note_on_c, 0, 61, 56
3, 19680, Note_on_c, 0, 65, 56
3, 19680, Note_on_c, 0, 70, 68
3, 19920, Note_on_c, 0, 70, 0
3, 19920, Note_on_c, 0, 65, 0
3, 19920, Note_on_c, 0, 61, 0
3, 19920, Note_on_c, 0, 56, 50
3, 19920, Note_on_c, 0, 65, 50
3, 19920, Note_on_c, 0, 68, 60
3, 20160, Note_on_c, 0, 68, 0
3, 20160, Note_on_c, 0, 65, 0
3, 20160, Note_on_c, 0, 56, 0
3, 20160, Note_on_c, 0, 60, 56
3, 20160, Note_on_c, 0, 66, 56
3, 20160, Note_on_c, 0, 70, 68
3, 20400, Note_on_c, 0, 70, 0
3, 20400, Note_on_c, 0, 66, 0
3, 20400, Note_on_c, 0, 60, 0
3, 20400, Note_on_c, 0, 56, 52
3, 20400, Note_on_c, 0, 68, 62
3, 20400, Note_on_c, 0, 66, 52
3, 20640, Note_on_c, 0, 66, 0
3, 20640, Note_on_c, 0, 68, 0
3, 20640, Note_on_c, 0, 56, 0
3, 20640, Note_on_c, 0, 61, 55
3, 20640, Note_on_c, 0, 65, 64
3, 20880, Note_on_c, 0, 65, 0
3, 20880, Note_on_c, 0, 61, 0
3, 20880, Note_on_c, 0, 56, 62
3, 21120, Note_on_c, 0, 56, 0
3, 21120, Note_on_c, 0, 48, 68
3, 21148, Control_c, 0, 64, 127
3, 21240, Note_on_c, 0, 48, 0
3, 21360, Note_on_c, 0, 66, 62
3, 21360, Note_on_c, 0, 63, 52
3, 21366, Note_on_c, 0, 56, 52
3, 21480, Note_on_c, 0, 63, 0
3, 21480, Note_on_c, 0, 66, 0
3, 21486, Note_on_c, 0, 56, 0
3, 21840, Note_on_c, 0, 36, 70
3, 22080, Note_on_c, 0, 36, 0
3, 22080, Note_on_c, 0, 48, 72
3, 22200, Note_on_c, 0, 48, 0
3, 22320, Note_on_c, 0, 63, 57
3, 22320, Note_on_c, 0, 56, 57
3, 22320, Note_on_c, 0, 66, 69
3, 22440, Note_on_c, 0, 66, 0
3, 22440, Note_on_c, 0, 56, 0
3, 22440, Note_on_c, 0, 63, 0
3, 22800, Note_on_c, 0, 36, 59
3, 22800, Note_on_c, 0, 48, 70
3, 22931, Control_c, 0, 64, 0
3, 23040, Note_on_c, 0, 48, 0
3, 23040, Note_on_c, 0, 36, 0
3, 23040, Note_on_c, 0, 37, 63
3, 23040, Note_on_c, 0, 49, 77
3, 23075, Control_c, 0, 64, 127
3, 23160, Note_on_c, 0, 49, 0
3, 23160, Note_on_c, 0, 37, 0
3, 23280, Note_on_c, 0, 66, 73
3, 23280, Note_on_c, 0, 61, 62
3, 23280, Note_on_c, 0, 58, 62
3, 23485, Control_c, 0, 64, 0
3, 23520, Note_on_c, 0, 58, 0
3, 23520, Note_on_c, 0, 61, 0
3, 23520, Note_on_c, 0, 66, 0
3, 23520, Note_on_c, 0, 36, 62
3, 23520, Note_on_c, 0, 48, 73
3, 23760, Note_on_c, 0, 48, 0
3, 23760, Note_on_c, 0, 36, 0
3, 23760, Note_on_c, 0, 37, 61
3, 23760, Note_on_c, 0, 49, 72
3, 24000, Note_on_c, 0, 49, 0
3, 24000, Note_on_c, 0, 37, 0
3, 24000, Note_on_c, 0, 38, 69
3, 24000, Note_on_c, 0, 50, 81
3, 24014, Control_c, 0, 64, 127
3, 24240, Note_on_c, 0, 50, 0
3, 24240, Note_on_c, 0, 38, 0
3, 24240, Note_on_c, 0, 66, 77
3, 24240, Note_on_c, 0, 58, 63
3, 24462, Control_c, 0, 64, 0
3, 24480, Note_on_c, 0, 58, 0
3, 24480, Note_on_c, 0, 66, 0
3, 24480, Note_on_c, 0, 37, 64
3, 24480, Note_on_c, 0, 49, 78
3, 24720, Note_on_c, 0, 49, 0
3, 24720, Note_on_c, 0, 37, 0
3, 24720, Note_on_c, 0, 38, 63
3, 24720, Note_on_c, 0, 50, 75
3, 24960, Note_on_c, 0, 50, 0
3, 24960, Note_on_c, 0, 38, 0
3, 24960, Note_on_c, 0, 39, 70
3, 24960, Note_on_c, 0, 51, 82
3, 24978, Control_c, 0, 64, 127
3, 25200, Note_on_c, 0, 51, 0
3, 25200, Note_on_c, 0, 39, 0
3, 25200, Note_on_c, 0, 66, 80
3, 25200, Note_on_c, 0, 58, 68
3, 25680, Note_on_c, 0, 58, 0
3, 25680, Note_on_c, 0, 66, 0
3, 25680, Note_on_c, 0, 39, 69
3, 25680, Note_on_c, 0, 51, 81
3, 25874, Control_c, 0, 64, 0
3, 25920, Note_on_c, 0, 51, 0
3, 25920, Note_on_c, 0, 39, 0
3, 25920, Note_on_c, 0, 40, 73
3, 25920, Note_on_c, 0, 52, 88
3, 25941, Control_c, 0, 64, 127
3, 26160, Note_on_c, 0, 52, 0
3, 26160, Note_on_c, 0, 40, 0
3, 26160, Note_on_c, 0, 66, 84
3, 26160, Note_on_c, 0, 58, 70
3, 26640, Note_on_c, 0, 58, 0
3, 26640, Note_on_c, 0, 66, 0
3, 26640, Note_on_c, 0, 40, 71
3, 26640, Note_on_c, 0, 52, 85
3, 26799, Control_c, 0, 64, 0
3, 26880, Note_on_c, 0, 52, 0
3, 26880, Note_on_c, 0, 40, 0
3, 26880, Note_on_c, 0, 41, 78
3, 26880, Note_on_c, 0, 53, 91
3, 26926, Control_c, 0, 64, 127
3, 27000, Note_on_c, 0, 53, 0
3, 27000, Note_on_c, 0, 41, 0
3, 27120, Note_on_c, 0, 65, 88
3, 27120, Note_on_c, 0, 61, 73
3, 27120, Note_on_c, 0, 58, 73
3, 27353, Control_c, 0, 64, 0
3, 27360, Note_on_c, 0, 58, 0
3, 27360, Note_on_c, 0, 61, 0
3, 27360, Note_on_c, 0, 65, 0
3, 27360, Note_on_c, 0, 40, 77
3, 27360, Note_on_c, 0, 52, 90
3, 27600, Note_on_c, 0, 52, 0
3, 27600, Note_on_c, 0, 40, 0
3, 27600, Note_on_c, 0, 41, 77
3, 27600, Note_on_c, 0, 53, 90
3, 27840, Note_on_c, 0, 53, 0
3, 27840, Note_on_c, 0, 41, 0
3, 27840, Note_on_c, 0, 42, 82
3, 27840, Note_on_c, 0, 54, 97
3, 27875, Control_c, 0, 64, 127
3, 27960, Note_on_c, 0, 54, 0
3, 27960, Note_on_c, 0, 42, 0
3, 28080, Note_on_c, 0, 61, 79
3, 28080, Note_on_c, 0, 64, 94
3, 28080, Note_on_c, 0, 58, 79
3, 28200, Note_on_c, 0, 58, 0
3, 28200, Note_on_c, 0, 64, 0
3, 28200, Note_on_c, 0, 61, 0
3, 28274, Control_c, 0, 64, 0
3, 28320, Note_on_c, 0, 41, 80
3, 28320, Note_on_c, 0, 53, 95
3, 28560, Note_on_c, 0, 53, 0
3, 28560, Note_on_c, 0, 41, 0
3, 28560, Note_on_c, 0, 42, 78
3, 28560, Note_on_c, 0, 54, 91
3, 28800, Note_on_c, 0, 54, 0
3, 28800, Note_on_c, 0, 42, 0
3, 28800, Note_on_c, 0, 43, 89
3, 28800, Note_on_c, 0, 55, 105
3, 28811, Control_c, 0, 64, 127
3, 29040, Note_on_c, 0, 55, 0
3, 29040, Note_on_c, 0, 43, 0
3, 29040, Note_on_c, 0, 64, 96
3, 29040, Note_on_c, 0, 61, 81
3, 29040, Note_on_c, 0, 55, 81
3, 29231, Control_c, 0, 64, 0
3, 29280, Note_on_c, 0, 55, 0
3, 29280, Note_on_c, 0, 61, 0
3, 29280, Note_on_c, 0, 64, 0
3, 29280, Note_on_c, 0, 44, 81
3, 29280, Note_on_c, 0, 56, 96
3, 29298, Control_c, 0, 64, 127
3, 29520, Note_on_c, 0, 56, 0
3, 29520, Note_on_c, 0, 44, 0
3, 29520, Note_on_c, 0, 65, 96
3, 29520, Note_on_c, 0, 61, 81
3, 29520, Note_on_c, 0, 56, 81
3, 29686, Control_c, 0, 64, 0
3, 29760, Note_on_c, 0, 56, 0
3, 29760, Note_on_c, 0, 61, 0
3, 29760, Note_on_c, 0, 65, 0
3, 29760, Note_on_c, 0, 45, 86
3, 29760, Note_on_c, 0, 57, 103
3, 29774, Control_c, 0, 64, 127
3, 30000, Note_on_c, 0, 57, 0
3, 30000, Note_on_c, 0, 45, 0
3, 30000, Note_on_c, 0, 66, 94
3, 30000, Note_on_c, 0, 63, 79
3, 30000, Note_on_c, 0, 57, 79
3, 30240, Note_on_c, 0, 57, 0
3, 30240, Note_on_c, 0, 63, 0
3, 30240, Note_on_c, 0, 66, 0
3, 30480, Note_on_c, 0, 33, 89
3, 30480, Note_on_c, 0, 45, 106
3, 30671, Control_c, 0, 64, 0
3, 30720, Note_on_c, 0, 45, 0
3, 30720, Note_on_c, 0, 33, 0
3, 30720, Note_on_c, 0, 32, 89
3, 30720, Note_on_c, 0, 44, 106
3, 30745, Control_c, 0, 64, 127
3, 31648, Control_c, 0, 64, 0
3, 31680, Note_on_c, 0, 44, 0
3, 31680, Note_on_c, 0, 32, 0
3, 31680, Control_c, 0, 64, 127
3, 32160, Note_on_c, 0, 66, 100
3, 32160, Note_on_c, 0, 61, 83
3, 32160, Note_on_c, 0, 56, 83
3, 32520, Note_on_c, 0, 56, 0
3, 32520, Note_on_c, 0, 61, 0
3, 32520, Note_on_c, 0, 66, 0
3, 32520, Note_on_c, 0, 66, 92
3, 32520, Note_on_c, 0, 61, 77
3, 32520, Note_on_c, 0, 56, 77
3, 32591, Control_c, 0, 64, 0
3, 32640, Note_on_c, 0, 56, 0
3, 32640, Note_on_c, 0, 61, 0
3, 32640, Note_on_c, 0, 66, 0
3, 32640, Note_on_c, 0, 56, 83
3, 32640, Note_on_c, 0, 66, 100
3, 32640, Note_on_c, 0, 61, 83
3, 32640, Control_c, 0, 64, 127
3, 33558, Control_c, 0, 64, 0
3, 33600, Note_on_c, 0, 61, 0
3, 33600, Note_on_c, 0, 66, 0
3, 33600, Note_on_c, 0, 56, 0
3, 33600, Control_c, 0, 64, 127
3, 34514, Control_c, 0, 64, 0
3, 34560, Note_on_c, 0, 32, 52
3, 34560, Note_on_c, 0, 44, 62
3, 34585, Control_c, 0, 64, 127
3, 35488, Control_c, 0, 64, 0
3, 35520, Note_on_c, 0, 44, 0
3, 35520, Note_on_c, 0, 32, 0
3, 35520, Control_c, 0, 64, 127
3, 36000, Note_on_c, 0, 56, 52
3, 36000, Note_on_c, 0, 66, 52
3, 36000, Note_on_c, 0, 60, 52
3, 36000, Note_on_c, 0, 68, 62
3, 36360, Note_on_c, 0, 68, 0
3, 36360, Note_on_c, 0, 56, 0
3, 36360, Note_on_c, 0, 66, 0
3, 36360, Note_on_c, 0, 60, 0
3, 36360, Note_on_c, 0, 68, 57
3, 36360, Note_on_c, 0, 66, 48
3, 36360, Note_on_c, 0, 60, 48
3, 36360, Note_on_c, 0, 56, 48
3, 36431, Control_c, 0, 64, 0
3, 36480, Note_on_c, 0, 56, 0
3, 36480, Note_on_c, 0, 68, 0
3, 36480, Note_on_c, 0, 66, 0
3, 36480, Note_on_c, 0, 60, 0
3, 36480, Note_on_c, 0, 68, 62
3, 36480, Control_c, 0, 64, 127
3, 36480, Note_on_c, 0, 66, 52
3, 36480, Note_on_c, 0, 60, 52
3, 36480, Note_on_c, 0, 56, 52
3, 37398, Control_c, 0, 64, 0
3, 37440, Note_on_c, 0, 56, 0
3, 37440, Note_on_c, 0, 68, 0
3, 37440, Note_on_c, 0, 66, 0
3, 37440, Note_on_c, 0, 60, 0
3, 37440, Control_c, 0, 64, 127
3, 38354, Control_c, 0, 64, 0
3, 38400, Note_on_c, 0, 37, 63
3, 38425, Control_c, 0, 64, 127
3, 38520, Note_on_c, 0, 37, 0
3, 38816, Control_c, 0, 64, 0
3, 38880, Control_c, 0, 64, 127
3, 38880, Note_on_c, 0, 65, 70
3, 38880, Note_on_c, 0, 56, 59
3, 39787, Control_c, 0, 64, 127
3, 39840, Note_on_c, 0, 56, 0
3, 39840, Note_on_c, 0, 65, 0
3, 39840, Control_c, 0, 64, 0
3, 39840, Note_on_c, 0, 64, 63
3, 39840, Note_on_c, 0, 55, 53
3, 40200, Note_on_c, 0, 55, 0
3, 40200, Note_on_c, 0, 64, 0
3, 40200, Note_on_c, 0, 65, 63
3, 40200, Note_on_c, 0, 56, 53
3, 40320, Note_on_c, 0, 56, 0
3, 40320, Note_on_c, 0, 65, 0
3, 40320, Note_on_c, 0, 49, 63
3, 40440, Note_on_c, 0, 49, 0
3, 40751, Control_c, 0, 64, 0
3, 40796, Control_c, 0, 64, 127
3, 40800, Note_on_c, 0, 65, 72
3, 40800, Note_on_c, 0, 56, 61
3, 41704, Control_c, 0, 64, 0
3, 41760, Note_on_c, 0, 56, 0
3, 41760, Note_on_c, 0, 65, 0
3, 41760, Note_on_c, 0, 64, 75
3, 41760, Note_on_c, 0, 55, 63
3, 41771, Control_c, 0, 64, 127
3, 42120, Note_on_c, 0, 55, 0
3, 42120, Note_on_c, 0, 64, 0
3, 42120, Note_on_c, 0, 56, 57
3, 42120, Note_on_c, 0, 65, 69
3, 42240, Note_on_c, 0, 65, 0
3, 42240, Note_on_c, 0, 56, 0
3, 42240, Note_on_c, 0, 53, 77
3, 42360, Note_on_c, 0, 53, 0
3, 42413, Control_c, 0, 64, 0
3, 42480, Note_on_c, 0, 65, 63
3, 42480, Note_on_c, 0, 56, 53
3, 42480, Note_on_c, 0, 61, 53
3, 42487, Control_c, 0, 64, 127
3, 42720, Note_on_c, 0, 61, 0
3, 42720, Note_on_c, 0, 56, 0
3, 42720, Note_on_c, 0, 65, 0
3, 42720, Note_on_c, 0, 57, 59
3, 42720, Note_on_c, 0, 61, 59
3, 42720, Note_on_c, 0, 66, 70
3, 42960, Note_on_c, 0, 66, 0
3, 42960, Note_on_c, 0, 61, 0
3, 42960, Note_on_c, 0, 57, 0
3, 42960, Note_on_c, 0, 58, 62
3, 42960, Note_on_c, 0, 61, 62
3, 42960, Note_on_c, 0, 67, 75
3, 43165, Control_c, 0, 64, 0
3, 43200, Note_on_c, 0, 67, 0
3, 43200, Note_on_c, 0, 61, 0
3, 43200, Note_on_c, 0, 58, 0
3, 43200, Note_on_c, 0, 59, 70
3, 43200, Note_on_c, 0, 61, 70
3, 43200, Note_on_c, 0, 68, 84
3, 43214, Control_c, 0, 64, 127
3, 43648, Control_c, 0, 64, 0
3, 43680, Note_on_c, 0, 68, 0
3, 43680, Note_on_c, 0, 61, 0
3, 43680, Note_on_c, 0, 59, 0
3, 43680, Note_on_c, 0, 58, 64
3, 43680, Note_on_c, 0, 61, 64
3, 43680, Note_on_c, 0, 67, 77
3, 43701, Control_c, 0, 64, 127
3, 43920, Note_on_c, 0, 67, 0
3, 43920, Note_on_c, 0, 61, 0
3, 43920, Note_on_c, 0, 58, 0
3, 43920, Note_on_c, 0, 57, 61
3, 43920, Note_on_c, 0, 61, 61
3, 43920, Note_on_c, 0, 66, 72
3, 44160, Note_on_c, 0, 66, 0
3, 44160, Note_on_c, 0, 61, 0
3, 44160, Note_on_c, 0, 57, 0
3, 44160, Note_on_c, 0, 56, 57
3, 44160, Note_on_c, 0, 61, 57
3, 44160, Note_on_c, 0, 65, 69
3, 44280, Note_on_c, 0, 65, 0
3, 44280, Note_on_c, 0, 61, 0
3, 44280, Note_on_c, 0, 56, 0
3, 44400, Note_on_c, 0, 49, 63
3, 44520, Note_on_c, 0, 49, 0
3, 44587, Control_c, 0, 64, 0
3, 44640, Note_on_c, 0, 59, 56
3, 44640, Note_on_c, 0, 61, 56
3, 44640, Note_on_c, 0, 65, 56
3, 44640, Note_on_c, 0, 68, 66
3, 44658, Control_c, 0, 64, 127
3, 44880, Note_on_c, 0, 68, 0
3, 44880, Note_on_c, 0, 70, 71
3, 45120, Note_on_c, 0, 70, 0
3, 45120, Note_on_c, 0, 65, 0
3, 45120, Note_on_c, 0, 61, 0
3, 45120, Note_on_c, 0, 59, 0
3, 45120, Note_on_c, 0, 59, 64
3, 45120, Note_on_c, 0, 61, 64
3, 45120, Note_on_c, 0, 65, 64
3, 45120, Note_on_c, 0, 71, 77
3, 45568, Control_c, 0, 64, 0
3, 45600, Note_on_c, 0, 71, 0
3, 45600, Note_on_c, 0, 70, 72
3, 45621, Control_c, 0, 64, 127
3, 45840, Note_on_c, 0, 70, 0
3, 45840, Note_on_c, 0, 68, 71
3, 46027, Control_c, 0, 64, 0
3, 46080, Note_on_c, 0, 68, 0
3, 46080, Note_on_c, 0, 59, 0
3, 46080, Note_on_c, 0, 61, 0
3, 46080, Note_on_c, 0, 65, 0
3, 46080, Control_c, 0, 91, 127
3, 46080, Control_c, 0, 64, 0
3, 46081, Note_on_c, 0, 54, 73
3, 46081, Note_on_c, 0, 66, 87
3, 46081, Note_on_c, 0, 61, 73
3, 46081, Note_on_c, 0, 58, 73
3, 46171, Note_on_c, 0, 58, 0
3, 46171, Note_on_c, 0, 54, 0
3, 46171, Note_on_c, 0, 66, 0
3, 46171, Note_on_c, 0, 61, 0
3, 46320, Note_on_c, 0, 63, 70
3, 46320, Note_on_c, 0, 59, 70
3, 46320, Note_on_c, 0, 54, 70
3, 46320, Note_on_c, 0, 66, 83
3, 46410, Note_on_c, 0, 66, 0
3, 46410, Note_on_c, 0, 63, 0
3, 46410, Note_on_c, 0, 59, 0
3, 46410, Note_on_c, 0, 54, 0
3, 46560, Note_on_c, 0, 61, 73
3, 46560, Note_on_c, 0, 66, 87
3, 46560, Note_on_c, 0, 58, 73
3, 46560, Note_on_c, 0, 54, 73
3, 46650, Note_on_c, 0, 54, 0
3, 46650, Note_on_c, 0, 61, 0
3, 46650, Note_on_c, 0, 66, 0
3, 46650, Note_on_c, 0, 58, 0
3, 47040, Note_on_c, 0, 42, 47
3, 47040, Note_on_c, 0, 54, 56
3, 47061, Control_c, 0, 64, 127
3, 47130, Note_on_c, 0, 54, 0
3, 47130, Note_on_c, 0, 42, 0
3, 47280, Note_on_c, 0, 66, 51
3, 47280, Note_on_c, 0, 63, 42
3, 47280, Note_on_c, 0, 59, 42
3, 47370, Note_on_c, 0, 59, 0
3, 47370, Note_on_c, 0, 63, 0
3, 47370, Note_on_c, 0, 66, 0
3, 47520, Note_on_c, 0, 66, 56
3, 47520, Note_on_c, 0, 61, 47
3, 47520, Note_on_c, 0, 58, 47
3, 47531, Control_c, 0, 64, 0
3, 47610, Note_on_c, 0, 58, 0
3, 47610, Note_on_c, 0, 61, 0
3, 47610, Note_on_c, 0, 66, 0
3, 48000, Note_on_c, 0, 37, 48
3, 48000, Note_on_c, 0, 49, 59
3, 48014, Control_c, 0, 64, 127
3, 48090, Note_on_c, 0, 49, 0
3, 48090, Note_on_c, 0, 37, 0
3, 48219, Control_c, 0, 64, 0
3, 48240, Note_on_c, 0, 61, 48
3, 48240, Note_on_c, 0, 65, 59
3, 48240, Note_on_c, 0, 56, 48
3, 48330, Note_on_c, 0, 56, 0
3, 48330, Note_on_c, 0, 65, 0
3, 48330, Note_on_c, 0, 61, 0
3, 48480, Note_on_c, 0, 59, 50
3, 48480, Note_on_c, 0, 63, 60
3, 48480, Note_on_c, 0, 56, 50
3, 48484, Control_c, 0, 64, 127
3, 48570, Note_on_c, 0, 56, 0
3, 48570, Note_on_c, 0, 63, 0
3, 48570, Note_on_c, 0, 59, 0
3, 48720, Note_on_c, 0, 44, 62
3, 48810, Note_on_c, 0, 44, 0
3, 48928, Control_c, 0, 64, 0
3, 48960, Note_on_c, 0, 49, 66
3, 48971, Control_c, 0, 64, 127
3, 49200, Note_on_c, 0, 63, 70
3, 49200, Note_on_c, 0, 59, 59
3, 49200, Note_on_c, 0, 56, 59
3, 49204, Control_c, 0, 64, 0
3, 49440, Note_on_c, 0, 56, 0
3, 49440, Note_on_c, 0, 59, 0
3, 49440, Note_on_c, 0, 63, 0
3, 49440, Note_on_c, 0, 61, 73
3, 49440, Note_on_c, 0, 59, 62
3, 49440, Note_on_c, 0, 56, 62
3, 49475, Control_c, 0, 64, 127
3, 49680, Note_on_c, 0, 56, 0
3, 49680, Note_on_c, 0, 49, 0
3, 49680, Note_on_c, 0, 61, 0
3, 49680, Note_on_c, 0, 59, 0
3, 49878, Control_c, 0, 64, 0
3, 49920, Note_on_c, 0, 54, 73
3, 49920, Note_on_c, 0, 58, 73
3, 49920, Note_on_c, 0, 61, 73
3, 49920, Note_on_c, 0, 66, 87
3, 50010, Note_on_c, 0, 66, 0
3, 50010, Note_on_c, 0, 54, 0
3, 50010, Note_on_c, 0, 58, 0
3, 50010, Note_on_c, 0, 61, 0
3, 50160, Note_on_c, 0, 66, 82
3, 50160, Note_on_c, 0, 63, 69
3, 50160, Note_on_c, 0, 59, 69
3, 50160, Note_on_c, 0, 54, 69
3, 50250, Note_on_c, 0, 54, 0
3, 50250, Note_on_c, 0, 66, 0
3, 50250, Note_on_c, 0, 63, 0
3, 50250, Note_on_c, 0, 59, 0
3, 50400, Note_on_c, 0, 61, 73
3, 50400, Note_on_c, 0, 66, 87
3, 50400, Note_on_c, 0, 58, 73
3, 50400, Note_on_c, 0, 54, 73
3, 50490, Note_on_c, 0, 54, 0
3, 50490, Note_on_c, 0, 61, 0
3, 50490, Note_on_c, 0, 66, 0
3, 50490, Note_on_c, 0, 58, 0
3, 50880, Note_on_c, 0, 42, 48
3, 50880, Note_on_c, 0, 54, 59
3, 50905, Control_c, 0, 64, 127
3, 50970, Note_on_c, 0, 54, 0
3, 50970, Note_on_c, 0, 42, 0
3, 51120, Note_on_c, 0, 66, 55
3, 51120, Note_on_c, 0, 63, 46
3, 51120, Note_on_c, 0, 59, 46
3, 51210, Note_on_c, 0, 59, 0
3, 51210, Note_on_c, 0, 63, 0
3, 51210, Note_on_c, 0, 66, 0
3, 51342, Control_c, 0, 64, 0
3, 51360, Note_on_c, 0, 66, 59
3, 51360, Note_on_c, 0, 61, 48
3, 51360, Note_on_c, 0, 58, 48
3, 51450, Note_on_c, 0, 58, 0
3, 51450, Note_on_c, 0, 61, 0
3, 51450, Note_on_c, 0, 66, 0
3, 51840, Note_on_c, 0, 47, 66
3, 51865, Control_c, 0, 64, 127
3, 51960, Note_on_c, 0, 47, 0
3, 52080, Note_on_c, 0, 63, 66
3, 52080, Note_on_c, 0, 56, 56
3, 52285, Control_c, 0, 64, 0
3, 52320, Note_on_c, 0, 56, 0
3, 52320, Note_on_c, 0, 63, 0
3, 52320, Note_on_c, 0, 53, 59
3, 52320, Note_on_c, 0, 58, 59
3, 52320, Note_on_c, 0, 62, 70
3, 52327, Control_c, 0, 64, 127
3, 52560, Note_on_c, 0, 62, 0
3, 52560, Note_on_c, 0, 58, 0
3, 52560, Note_on_c, 0, 53, 0
3, 52560, Note_on_c, 0, 46, 66
3, 52747, Control_c, 0, 64, 0
3, 52800, Note_on_c, 0, 46, 0
3, 52800, Note_on_c, 0, 47, 66
3, 52807, Control_c, 0, 64, 127
3, 52920, Note_on_c, 0, 47, 0
3, 53040, Note_on_c, 0, 63, 66
3, 53040, Note_on_c, 0, 56, 56
3, 53259, Control_c, 0, 64, 0
3, 53280, Note_on_c, 0, 56, 0
3, 53280, Note_on_c, 0, 63, 0
3, 53280, Note_on_c, 0, 53, 62
3, 53280, Note_on_c, 0, 58, 62
3, 53280, Note_on_c, 0, 62, 73
3, 53301, Control_c, 0, 64, 127
3, 53520, Note_on_c, 0, 62, 0
3, 53520, Note_on_c, 0, 58, 0
3, 53520, Note_on_c, 0, 53, 0
3, 53520, Note_on_c, 0, 46, 69
3, 53640, Note_on_c, 0, 46, 0
3, 53711, Control_c, 0, 64, 0
3, 53760, Note_on_c, 0, 47, 80
3, 53774, Control_c, 0, 64, 127
3, 53880, Note_on_c, 0, 47, 0
3, 54000, Note_on_c, 0, 68, 69
3, 54000, Note_on_c, 0, 59, 57
3, 54000, Note_on_c, 0, 63, 57
3, 54120, Note_on_c, 0, 63, 0
3, 54120, Note_on_c, 0, 59, 0
3, 54120, Note_on_c, 0, 68, 0
3, 54205, Control_c, 0, 64, 0
3, 54240, Note_on_c, 0, 49, 82
3, 54247, Control_c, 0, 64, 127
3, 54360, Note_on_c, 0, 49, 0
3, 54480, Note_on_c, 0, 66, 66
3, 54480, Note_on_c, 0, 61, 56
3, 54480, Note_on_c, 0, 58, 56
3, 54600, Note_on_c, 0, 58, 0
3, 54600, Note_on_c, 0, 61, 0
3, 54600, Note_on_c, 0, 66, 0
3, 54685, Control_c, 0, 64, 0
3, 54720, Note_on_c, 0, 47, 84
3, 54741, Control_c, 0, 64, 127
3, 54840, Note_on_c, 0, 47, 0
3, 54960, Note_on_c, 0, 59, 60
3, 54960, Note_on_c, 0, 65, 60
3, 54960, Note_on_c, 0, 61, 60
3, 54960, Note_on_c, 0, 68, 71
3, 55080, Note_on_c, 0, 68, 0
3, 55080, Note_on_c, 0, 59, 0
3, 55080, Note_on_c, 0, 65, 0
3, 55080, Note_on_c, 0, 61, 0
3, 55186, Control_c, 0, 64, 0
3, 55200, Note_on_c, 0, 46, 86
3, 55232, Control_c, 0, 64, 127
3, 55320, Note_on_c, 0, 46, 0
3, 55440, Note_on_c, 0, 61, 60
3, 55440, Note_on_c, 0, 70, 71
3, 55440, Note_on_c, 0, 58, 60
3, 55440, Note_on_c, 0, 66, 60
3, 55560, Note_on_c, 0, 66, 0
3, 55560, Note_on_c, 0, 61, 0
3, 55560, Note_on_c, 0, 70, 0
3, 55560, Note_on_c, 0, 58, 0
3, 55616, Control_c, 0, 64, 0
3, 55680, Note_on_c, 0, 47, 88
3, 55698, Control_c, 0, 64, 127
3, 55800, Note_on_c, 0, 47, 0
3, 55920, Note_on_c, 0, 68, 73
3, 55920, Note_on_c, 0, 63, 62
3, 55920, Note_on_c, 0, 59, 62
3, 56040, Note_on_c, 0, 59, 0
3, 56040, Note_on_c, 0, 63, 0
3, 56040, Note_on_c, 0, 68, 0
3, 56135, Control_c, 0, 64, 0
3, 56160, Note_on_c, 0, 49, 89
3, 56206, Control_c, 0, 64, 127
3, 56280, Note_on_c, 0, 49, 0
3, 56400, Note_on_c, 0, 66, 73
3, 56400, Note_on_c, 0, 61, 62
3, 56400, Note_on_c, 0, 58, 62
3, 56520, Note_on_c, 0, 58, 0
3, 56520, Note_on_c, 0, 61, 0
3, 56520, Note_on_c, 0, 66, 0
3, 56601, Control_c, 0, 64, 0
3, 56640, Note_on_c, 0, 47, 91
3, 56644, Control_c, 0, 64, 127
3, 56760, Note_on_c, 0, 47, 0
3, 56880, Note_on_c, 0, 59, 63
3, 56880, Note_on_c, 0, 65, 63
3, 56880, Note_on_c, 0, 61, 63
3, 56880, Note_on_c, 0, 68, 75
3, 57000, Note_on_c, 0, 68, 0
3, 57000, Note_on_c, 0, 59, 0
3, 57000, Note_on_c, 0, 65, 0
3, 57000, Note_on_c, 0, 61, 0
3, 57109, Control_c, 0, 64, 0
3, 57120, Note_on_c, 0, 46, 94
3, 57148, Control_c, 0, 64, 127
3, 57240, Note_on_c, 0, 46, 0
3, 57360, Note_on_c, 0, 58, 63
3, 57360, Note_on_c, 0, 66, 63
3, 57360, Note_on_c, 0, 61, 63
3, 57360, Note_on_c, 0, 70, 75
3, 57480, Note_on_c, 0, 70, 0
3, 57480, Note_on_c, 0, 58, 0
3, 57480, Note_on_c, 0, 66, 0
3, 57480, Note_on_c, 0, 61, 0
3, 57551, Control_c, 0, 64, 0
3, 57600, Note_on_c, 0, 47, 94
3, 57614, Control_c, 0, 64, 127
3, 57840, Note_on_c, 0, 47, 0
3, 57840, Note_on_c, 0, 63, 70
3, 57840, Note_on_c, 0, 56, 70
3, 57840, Note_on_c, 0, 68, 82
3, 58320, Note_on_c, 0, 68, 0
3, 58320, Note_on_c, 0, 56, 0
3, 58320, Note_on_c, 0, 63, 0
3, 58320, Note_on_c, 0, 47, 94
3, 58511, Control_c, 0, 64, 0
3, 58560, Note_on_c, 0, 47, 0
3, 58560, Note_on_c, 0, 48, 104
3, 58588, Control_c, 0, 64, 127
3, 58800, Note_on_c, 0, 48, 0
3, 58800, Note_on_c, 0, 68, 85
3, 58800, Note_on_c, 0, 63, 71
3, 58800, Note_on_c, 0, 66, 71
3, 58800, Note_on_c, 0, 56, 71
3, 59280, Note_on_c, 0, 56, 0
3, 59280, Note_on_c, 0, 68, 0
3, 59280, Note_on_c, 0, 63, 0
3, 59280, Note_on_c, 0, 66, 0
3, 59280, Note_on_c, 0, 48, 100
3, 59481, Control_c, 0, 64, 0
3, 59520, Note_on_c, 0, 48, 0
3, 59520, Note_on_c, 0, 49, 106
3, 59545, Control_c, 0, 64, 127
3, 59760, Note_on_c, 0, 49, 0
3, 60000, Note_on_c, 0, 61, 77
3, 60000, Note_on_c, 0, 66, 77
3, 60000, Note_on_c, 0, 56, 77
3, 60000, Note_on_c, 0, 68, 92
3, 60445, Control_c, 0, 64, 0
3, 60480, Note_on_c, 0, 68, 0
3, 60480, Note_on_c, 0, 61, 0
3, 60480, Note_on_c, 0, 66, 0
3, 60480, Note_on_c, 0, 56, 0
3, 60480, Note_on_c, 0, 73, 94
3, 60480, Control_c, 0, 64, 127
3, 60480, Note_on_c, 0, 66, 79
3, 60480, Note_on_c, 0, 68, 79
3, 60960, Note_on_c, 0, 68, 0
3, 60960, Note_on_c, 0, 66, 0
3, 60960, Note_on_c, 0, 73, 0
3, 61391, Control_c, 0, 64, 0
3, 61400, Note_on_c, 0, 37, 47
3, 61410, Note_on_c, 0, 37, 0
3, 61410, Note_on_c, 0, 49, 47
3, 61420, Note_on_c, 0, 56, 47
3, 61430, Note_on_c, 0, 61, 47
3, 61440, Note_on_c, 0, 66, 56
3, 62400, Note_on_c, 0, 66, 0
3, 62400, Note_on_c, 0, 49, 0
3, 62400, Note_on_c, 0, 56, 0
3, 62400, Note_on_c, 0, 61, 0
3, 62400, Note_on_c, 0, 49, 30
3, 62400, Note_on_c, 0, 59, 30
3, 62400, Note_on_c, 0, 66, 56
3, 62400, Note_on_c, 0, 49, 56
3, 62400, Note_on_c, 0, 63, 47
3, 62400, Note_on_c, 0, 56, 30
3, 62880, Note_on_c, 0, 63, 0
3, 62880, Note_on_c, 0, 66, 0
3, 62880, Note_on_c, 0, 65, 56
3, 62880, Note_on_c, 0, 61, 47
3, 63360, Note_on_c, 0, 61, 0
3, 63360, Note_on_c, 0, 56, 0
3, 63360, Note_on_c, 0, 59, 0
3, 63360, Note_on_c, 0, 49, 0
3, 63360, Note_on_c, 0, 65, 0
3, 63360, Note_on_c, 0, 49, 0
3, 63360, Note_on_c, 0, 54, 48
3, 63360, Note_on_c, 0, 58, 48
3, 63360, Note_on_c, 0, 66, 59
3, 63600, Note_on_c, 0, 66, 0
3, 63600, Note_on_c, 0, 58, 0
3, 63600, Note_on_c, 0, 61, 44
3, 63840, Note_on_c, 0, 61, 0
3, 63840, Note_on_c, 0, 59, 50
3, 63840, Note_on_c, 0, 68, 60
3, 64080, Note_on_c, 0, 68, 0
3, 64080, Note_on_c, 0, 59, 0
3, 64080, Note_on_c, 0, 56, 44
3, 64080, Note_on_c, 0, 65, 52
3, 64320, Note_on_c, 0, 65, 0
3, 64320, Note_on_c, 0, 56, 0
3, 64320, Note_on_c, 0, 54, 0
3, 64320, Note_on_c, 0, 66, 60
3, 64320, Note_on_c, 0, 58, 50
3, 64320, Note_on_c, 0, 54, 50
3, 64560, Note_on_c, 0, 58, 0
3, 64560, Note_on_c, 0, 66, 0
3, 64560, Note_on_c, 0, 61, 42
3, 64800, Note_on_c, 0, 61, 0
3, 64800, Note_on_c, 0, 59, 50
3, 64800, Note_on_c, 0, 68, 60
3, 65040, Note_on_c, 0, 68, 0
3, 65040, Note_on_c, 0, 59, 0
3, 65040, Note_on_c, 0, 65, 51
3, 65040, Note_on_c, 0, 56, 42
3, 65280, Note_on_c, 0, 56, 0
3, 65280, Note_on_c, 0, 65, 0
3, 65280, Note_on_c, 0, 54, 0
3, 65280, Note_on_c, 0, 54, 53
3, 65280, Note_on_c, 0, 66, 63
3, 65280, Note_on_c, 0, 58, 53
3, 65520, Note_on_c, 0, 58, 0
3, 65520, Note_on_c, 0, 66, 0
3, 65520, Note_on_c, 0, 54, 0
3, 65760, Note_on_c, 0, 63, 63
3, 65760, Note_on_c, 0, 53, 53
3, 65760, Note_on_c, 0, 59, 53
3, 66000, Note_on_c, 0, 59, 0
3, 66000, Note_on_c, 0, 53, 0
3, 66000, Note_on_c, 0, 63, 0
3, 66000, Note_on_c, 0, 49, 48
3, 66000, Note_on_c, 0, 61, 57
3, 66240, Note_on_c, 0, 61, 0
3, 66240, Note_on_c, 0, 49, 0
3, 66240, Note_on_c, 0, 63, 66
3, 66240, Note_on_c, 0, 58, 56
3, 66240, Note_on_c, 0, 54, 56
3, 66480, Note_on_c, 0, 54, 0
3, 66480, Note_on_c, 0, 58, 0
3, 66480, Note_on_c, 0, 63, 0
3, 66480, Note_on_c, 0, 49, 48
3, 66480, Note_on_c, 0, 61, 59
3, 66720, Note_on_c, 0, 61, 0
3, 66720, Note_on_c, 0, 49, 0
3, 66720, Note_on_c, 0, 59, 56
3, 66720, Note_on_c, 0, 53, 56
3, 66720, Note_on_c, 0, 63, 68
3, 66960, Note_on_c, 0, 63, 0
3, 66960, Note_on_c, 0, 53, 0
3, 66960, Note_on_c, 0, 59, 0
3, 66960, Note_on_c, 0, 61, 62
3, 66960, Note_on_c, 0, 49, 52
3, 67200, Note_on_c, 0, 49, 0
3, 67200, Note_on_c, 0, 61, 0
3, 67200, Note_on_c, 0, 66, 59
3, 67200, Note_on_c, 0, 54, 48
3, 67200, Note_on_c, 0, 58, 48
3, 67440, Note_on_c, 0, 58, 0
3, 67440, Note_on_c, 0, 66, 0
3, 67440, Note_on_c, 0, 61, 45
3, 67680, Note_on_c, 0, 61, 0
3, 67680, Note_on_c, 0, 68, 60
3, 67680, Note_on_c, 0, 59, 50
3, 67920, Note_on_c, 0, 59, 0
3, 67920, Note_on_c, 0, 68, 0
3, 67920, Note_on_c, 0, 56, 46
3, 67920, Note_on_c, 0, 65, 55
3, 68160, Note_on_c, 0, 65, 0
3, 68160, Note_on_c, 0, 56, 0
3, 68160, Note_on_c, 0, 54, 0
3, 68160, Note_on_c, 0, 58, 51
3, 68160, Note_on_c, 0, 66, 61
3, 68160, Note_on_c, 0, 54, 51
3, 68400, Note_on_c, 0, 66, 0
3, 68400, Note_on_c, 0, 58, 0
3, 68400, Note_on_c, 0, 61, 46
3, 68640, Note_on_c, 0, 61, 0
3, 68640, Note_on_c, 0, 59, 51
3, 68640, Note_on_c, 0, 68, 61
3, 68880, Note_on_c, 0, 68, 0
3, 68880, Note_on_c, 0, 59, 0
3, 68880, Note_on_c, 0, 56, 47
3, 68880, Note_on_c, 0, 65, 56
3, 69120, Note_on_c, 0, 65, 0
3, 69120, Note_on_c, 0, 56, 0
3, 69120, Note_on_c, 0, 54, 0
3, 69120, Note_on_c, 0, 58, 55
3, 69120, Note_on_c, 0, 66, 64
3, 69120, Note_on_c, 0, 54, 55
3, 69360, Note_on_c, 0, 54, 0
3, 69360, Note_on_c, 0, 66, 0
3, 69360, Note_on_c, 0, 58, 0
3, 69360, Note_on_c, 0, 61, 59
3, 69600, Note_on_c, 0, 61, 0
3, 69600, Note_on_c, 0, 63, 70
3, 69600, Note_on_c, 0, 59, 59
3, 69600, Note_on_c, 0, 53, 59
3, 69840, Note_on_c, 0, 53, 0
3, 69840, Note_on_c, 0, 59, 0
3, 69840, Note_on_c, 0, 63, 0
3, 69840, Note_on_c, 0, 49, 53
3, 69840, Note_on_c, 0, 61, 63
3, 70080, Note_on_c, 0, 61, 0
3, 70080, Note_on_c, 0, 49, 0
3, 70080, Note_on_c, 0, 54, 66
3, 70080, Note_on_c, 0, 63, 79
3, 70080, Note_on_c, 0, 58, 66
3, 70320, Note_on_c, 0, 58, 0
3, 70320, Note_on_c, 0, 63, 0
3, 70320, Note_on_c, 0, 54, 0
3, 70320, Note_on_c, 0, 61, 72
3, 70320, Note_on_c, 0, 49, 61
3, 70560, Note_on_c, 0, 49, 0
3, 70560, Note_on_c, 0, 61, 0
3, 70560, Note_on_c, 0, 53, 70
3, 70560, Note_on_c, 0, 59, 70
3, 70560, Note_on_c, 0, 63, 84
3, 70800, Note_on_c, 0, 63, 0
3, 70800, Note_on_c, 0, 59, 0
3, 70800, Note_on_c, 0, 53, 0
3, 70800, Note_on_c, 0, 61, 81
3, 70800, Note_on_c, 0, 49, 69
3, 71010, Note_on_c, 0, 49, 0
3, 71010, Note_on_c, 0, 61, 0
3, 71010, Note_on_c, 0, 54, 68
3, 71025, Note_on_c, 0, 61, 70
3, 71040, Note_on_c, 0, 70, 90
3, 71520, Note_on_c, 0, 70, 0
3, 71520, Note_on_c, 0, 61, 0
3, 71520, Note_on_c, 0, 54, 0
3, 71760, Note_on_c, 0, 49, 79
3, 71760, Note_on_c, 0, 59, 79
3, 71760, Note_on_c, 0, 56, 79
3, 71760, Note_on_c, 0, 65, 94
3, 72000, Note_on_c, 0, 65, 0
3, 72000, Note_on_c, 0, 49, 0
3, 72000, Note_on_c, 0, 59, 0
3, 72000, Note_on_c, 0, 56, 0
3, 72000, Note_on_c, 0, 54, 77
3, 72000, Note_on_c, 0, 58, 77
3, 72000, Note_on_c, 0, 66, 90
3, 72480, Note_on_c, 0, 66, 0
3, 72480, Note_on_c, 0, 58, 0
3, 72480, Note_on_c, 0, 54, 0
3, 72720, Note_on_c, 0, 37, 78
3, 72720, Note_on_c, 0, 47, 78
3, 72720, Note_on_c, 0, 53, 93
3, 72960, Note_on_c, 0, 53, 0
3, 72960, Note_on_c, 0, 47, 0
3, 72960, Note_on_c, 0, 37, 0
3, 72960, Note_on_c, 0, 42, 75
3, 72960, Note_on_c, 0, 46, 75
3, 72960, Note_on_c, 0, 54, 89
3, 73440, Note_on_c, 0, 54, 0
3, 73440, Note_on_c, 0, 46, 0
3, 73440, Note_on_c, 0, 42, 0
3, 73680, Note_on_c, 0, 37, 80
3, 73920, Note_on_c, 0, 37, 0
3, 73920, Note_on_c, 0, 30, 71
3, 73920, Note_on_c, 0, 42, 85
3, 74160, Note_on_c, 0, 42, 0
3, 74160, Note_on_c, 0, 30, 0
3, 74160, Note_on_c, 0, 25, 68
3, 74160, Note_on_c, 0, 37, 80
3, 74400, Note_on_c, 0, 37, 0
3, 74400, Note_on_c, 0, 25, 0
3, 74400, Note_on_c, 0, 30, 71
3, 74400, Note_on_c, 0, 42, 85
3, 74640, Note_on_c, 0, 42, 0
3, 74640, Note_on_c, 0, 30, 0
3, 74640, Note_on_c, 0, 25, 68
3, 74640, Note_on_c, 0, 37, 80
3, 74880, Note_on_c, 0, 37, 0
3, 74880, Note_on_c, 0, 25, 0
3, 74880, Note_on_c, 0, 30, 71
3, 74880, Note_on_c, 0, 42, 85
3, 75120, Note_on_c, 0, 42, 0
3, 75120, Note_on_c, 0, 30, 0
3, 75600, Note_on_c, 0, 42, 53
3, 75680, Note_on_c, 0, 42, 0
3, 75680, Note_on_c, 0, 49, 48
3, 75760, Note_on_c, 0, 49, 0
3, 75760, Note_on_c, 0, 58, 46
3, 75840, Note_on_c, 0, 58, 0
3, 75840, Note_on_c, 0, 42, 56
3, 75920, Note_on_c, 0, 42, 0
3, 75920, Note_on_c, 0, 49, 51
3, 76000, Note_on_c, 0, 49, 0
3, 76000, Note_on_c, 0, 58, 49
3, 76080, Note_on_c, 0, 58, 0
3, 76080, Note_on_c, 0, 46, 57
3, 76160, Note_on_c, 0, 46, 0
3, 76160, Note_on_c, 0, 54, 52
3, 76240, Note_on_c, 0, 54, 0
3, 76240, Note_on_c, 0, 61, 49
3, 76320, Note_on_c, 0, 61, 0
3, 76320, Note_on_c, 0, 49, 59
3, 76400, Note_on_c, 0, 49, 0
3, 76400, Note_on_c, 0, 58, 52
3, 76480, Note_on_c, 0, 58, 0
3, 76480, Note_on_c, 0, 66, 51
3, 76560, Note_on_c, 0, 66, 0
3, 76560, Note_on_c, 0, 54, 61
3, 76640, Note_on_c, 0, 54, 0
3, 76640, Note_on_c, 0, 61, 54
3, 76720, Note_on_c, 0, 61, 0
3, 76720, Note_on_c, 0, 70, 51
3, 76800, Note_on_c, 0, 70, 0
3, 76800, Note_on_c, 0, 58, 61
3, 76880, Note_on_c, 0, 58, 0
3, 76880, Note_on_c, 0, 66, 56
3, 76960, Note_on_c, 0, 66, 0
3, 76960, Note_on_c, 0, 73, 54
3, 77040, Note_on_c, 0, 73, 0
3, 77040, Note_on_c, 0, 61, 65
3, 77120, Note_on_c, 0, 61, 0
3, 77120, Note_on_c, 0, 70, 58
3, 77200, Note_on_c, 0, 70, 0
3, 77200, Note_on_c, 0, 78, 56
3, 77280, Note_on_c, 0, 78, 0
3, 77280, Note_on_c, 0, 66, 67
3, 77360, Note_on_c, 0, 66, 0
3, 77360, Note_on_c, 0, 70, 59
3, 77440, Note_on_c, 0, 70, 0
3, 77440, Note_on_c, 0, 78, 58
3, 77520, Note_on_c, 0, 78, 0
3, 77520, Note_on_c, 0, 61, 68
3, 77600, Note_on_c, 0, 61, 0
3, 77600, Note_on_c, 0, 73, 60
3, 77680, Note_on_c, 0, 73, 0
3, 77680, Note_on_c, 0, 78, 59
3, 77760, Note_on_c, 0, 78, 0
3, 77760, Note_on_c, 0, 66, 72
3, 77840, Note_on_c, 0, 66, 0
3, 77840, Note_on_c, 0, 70, 61
3, 77920, Note_on_c, 0, 70, 0
3, 77920, Note_on_c, 0, 78, 59
3, 78000, Note_on_c, 0, 78, 0
3, 78000, Note_on_c, 0, 61, 72
3, 78080, Note_on_c, 0, 61, 0
3, 78080, Note_on_c, 0, 70, 65
3, 78160, Note_on_c, 0, 70, 0
3, 78160, Note_on_c, 0, 78, 63
3, 78240, Note_on_c, 0, 78, 0
3, 78240, Note_on_c, 0, 66, 73
3, 78320, Note_on_c, 0, 66, 0
3, 78320, Note_on_c, 0, 70, 67
3, 78400, Note_on_c, 0, 70, 0
3, 78400, Note_on_c, 0, 78, 66
3, 78480, Note_on_c, 0, 78, 0
3, 78480, Note_on_c, 0, 61, 75
3, 78560, Note_on_c, 0, 61, 0
3, 78560, Note_on_c, 0, 70, 69
3, 78640, Note_on_c, 0, 70, 0
3, 78640, Note_on_c, 0, 78, 69
3, 78720, Note_on_c, 0, 78, 0
3, 78720, Note_on_c, 0, 66, 81
3, 78800, Note_on_c, 0, 66, 0
3, 78880, Note_on_c, 0, 54, 87
3, 78880, Note_on_c, 0, 66, 87
3, 78960, Note_on_c, 0, 66, 0
3, 78960, Note_on_c, 0, 54, 0
3, 78960, Note_on_c, 0, 63, 83
3, 78960, Note_on_c, 0, 51, 83
3, 79040, Note_on_c, 0, 51, 0
3, 79040, Note_on_c, 0, 63, 0
3, 79040, Note_on_c, 0, 61, 85
3, 79040, Note_on_c, 0, 49, 85
3, 79120, Note_on_c, 0, 49, 0
3, 79120, Note_on_c, 0, 61, 0
3, 79120, Note_on_c, 0, 58, 86
3, 79120, Note_on_c, 0, 46, 86
3, 79200, Note_on_c, 0, 46, 0
3, 79200, Note_on_c, 0, 58, 0
3, 79200, Note_on_c, 0, 56, 86
3, 79200, Note_on_c, 0, 44, 86
3, 79280, Note_on_c, 0, 44, 0
3, 79280, Note_on_c, 0, 56, 0
3, 79280, Note_on_c, 0, 54, 87
3, 79280, Note_on_c, 0, 42, 87
3, 79360, Note_on_c, 0, 42, 0
3, 79360, Note_on_c, 0, 54, 0
3, 79360, Note_on_c, 0, 51, 88
3, 79360, Note_on_c, 0, 39, 88
3, 79440, Note_on_c, 0, 39, 0
3, 79440, Note_on_c, 0, 51, 0
3, 79440, Note_on_c, 0, 37, 89
3, 79440, Note_on_c, 0, 49, 89
3, 79520, Note_on_c, 0, 49, 0
3, 79520, Note_on_c, 0, 37, 0
3, 79520, Note_on_c, 0, 34, 89
3, 79520, Note_on_c, 0, 46, 89
3, 79600, Note_on_c, 0, 46, 0
3, 79600, Note_on_c, 0, 34, 0
3, 79600, Note_on_c, 0, 32, 92
3, 79600, Note_on_c, 0, 44, 92
3, 79680, Note_on_c, 0, 44, 0
3, 79680, Note_on_c, 0, 32, 0
3, 79680, Note_on_c, 0, 30, 99
3, 79680, Note_on_c, 0, 42, 99
3, 79800, Note_on_c, 0, 42, 0
3, 79800, Note_on_c, 0, 30, 0
3, 80130, Note_on_c, 0, 54, 93
3, 80145, Note_on_c, 0, 61, 98
3, 80160, Note_on_c, 0, 70, 108
3, 80640, Note_on_c, 0, 70, 0
3, 80640, Note_on_c, 0, 61, 0
3, 80640, Note_on_c, 0, 54, 0
3, 80640, Note_on_c, 0, 30, 102
3, 80640, Note_on_c, 0, 42, 102
3, 81600, Note_on_c, 0, 42, 0
3, 81600, Note_on_c, 0, 30, 0
3, 81600, Control_c, 0, 64, 0
3, 81600, End_track
4, 0, Start_track
4, 0, MIDI_port, 0
4, 0, Title_t, "Chopin: Etude Op, 10, No. 5"
4, 0, End_track
5, 0, Start_track
5, 0, MIDI_port, 0
5, 0, Title_t, "Copyright © 1999 by Bernd Krüger"
5, 0, End_track
6, 0, Start_track
6, 0, MIDI_port, 0
6, 0, Title_t, "email: BKrueger@csi.com"
6, 0, End_track
7, 0, Start_track
7, 0, MIDI_port, 0
7, 0, Title_t, "http://www.piano-midi.de"
7, 0, End_track
8, 0, Start_track
8, 0, MIDI_port, 0
8, 0, Title_t, "Edition: 21.4.99"
8, 0, End_track
0, 0, End_of_file
