0, 0, Header, 1, 9, 480
1, 0, Start_track
1, 0, Title_t, "Chopin Prelude  No. 4, Opus 28"
1, 0, Copyright_t, "Copyright © 2002 by Bernd Krueger "
1, 0, Text_t, "Frederic Chopin"
1, 0, Text_t, "Largo"
1, 0, Text_t, "Fertiggestellt am 27.8.2002\012"
1, 0, Text_t, "Normierung: 23.12.2002\012"
1, 0, Text_t, "Update am 20.7.2003\012"
1, 0, Text_t, "Update am 5.6.2010\012"
1, 0, Text_t, "Update am 20.2.2014\012"
1, 0, Text_t, "Dauer: 1:45 Minuten\012"
1, 0, SMPTE_offset, 96, 0, 3, 0, 0
1, 0, Time_signature, 4, 2, 24, 8
1, 0, Key_signature, 1, "major"
1, 0, Tempo, 315789
1, 1440, Tempo, 1114827
1, 1800, Tempo, 1124649
1, 1920, Tempo, 1041848
1, 2160, Tempo, 916031
1, 2400, Tempo, 882353
1, 2640, Tempo, 895522
1, 2880, Tempo, 948467
1, 3120, Tempo, 977676
1, 3360, Tempo, 1000834
1, 3440, Tempo, 1008742
1, 3480, Tempo, 1016777
1, 3520, Tempo, 1024940
1, 3560, Tempo, 1033236
1, 3640, Tempo, 1041848
1, 3680, Tempo, 1050420
1, 3720, Tempo, 1059135
1, 3760, Tempo, 1067996
1, 3800, Tempo, 1145038
1, 3840, Tempo, 992884
1, 4080, Tempo, 934579
1, 4320, Tempo, 882613
1, 4800, Tempo, 920952
1, 5040, Tempo, 941472
1, 5280, Tempo, 970246
1, 5360, Tempo, 977676
1, 5400, Tempo, 985222
1, 5440, Tempo, 992884
1, 5480, Tempo, 1000834
1, 5520, Tempo, 1008742
1, 5600, Tempo, 1016777
1, 5640, Tempo, 1024940
1, 5680, Tempo, 1033236
1, 5720, Tempo, 1041848
1, 5760, Tempo, 1000834
1, 6000, Tempo, 962773
1, 6040, Tempo, 907853
1, 6240, Tempo, 870448
1, 6720, Tempo, 941472
1, 6960, Tempo, 962773
1, 7200, Tempo, 962773
1, 7280, Tempo, 970246
1, 7360, Tempo, 977676
1, 7440, Tempo, 985222
1, 7480, Tempo, 992884
1, 7560, Tempo, 1000834
1, 7640, Tempo, 1008742
1, 7680, Tempo, 977676
1, 7920, Tempo, 907853
1, 8160, Tempo, 845070
1, 8400, Tempo, 875912
1, 8640, Tempo, 923077
1, 8880, Tempo, 967742
1, 9120, Tempo, 962773
1, 9200, Tempo, 970246
1, 9280, Tempo, 977676
1, 9360, Tempo, 985222
1, 9400, Tempo, 992884
1, 9480, Tempo, 1000834
1, 9560, Tempo, 1008742
1, 9600, Tempo, 1016777
1, 9840, Tempo, 888757
1, 10560, Tempo, 864553
1, 10800, Tempo, 948467
1, 11040, Tempo, 962773
1, 11120, Tempo, 970246
1, 11160, Tempo, 977676
1, 11200, Tempo, 985222
1, 11240, Tempo, 992884
1, 11320, Tempo, 1000834
1, 11360, Tempo, 1008742
1, 11400, Tempo, 1016777
1, 11440, Tempo, 1024940
1, 11520, Tempo, 962773
1, 11760, Tempo, 894988
1, 12000, Tempo, 827586
1, 12480, Tempo, 920952
1, 12960, Tempo, 934579
1, 13040, Tempo, 941472
1, 13080, Tempo, 948467
1, 13120, Tempo, 955566
1, 13160, Tempo, 962773
1, 13200, Tempo, 970246
1, 13240, Tempo, 977676
1, 13280, Tempo, 985222
1, 13320, Tempo, 992884
1, 13360, Tempo, 1000834
1, 13400, Tempo, 1008742
1, 13440, Tempo, 1024940
1, 13680, Tempo, 920952
1, 13920, Tempo, 857143
1, 14400, Tempo, 914355
1, 14640, Tempo, 955566
1, 14880, Tempo, 1008742
1, 14920, Tempo, 1016777
1, 14960, Tempo, 1024940
1, 15000, Tempo, 1033236
1, 15040, Tempo, 1041848
1, 15080, Tempo, 1050420
1, 15120, Tempo, 1059135
1, 15160, Tempo, 1067996
1, 15200, Tempo, 1077006
1, 15240, Tempo, 1086366
1, 15280, Tempo, 1095690
1, 15320, Tempo, 1114827
1, 15360, Tempo, 1016777
1, 15600, Tempo, 941472
1, 15840, Tempo, 888757
1, 16320, Tempo, 920952
1, 16560, Tempo, 941472
1, 16800, Tempo, 970246
1, 16920, Tempo, 977676
1, 17000, Tempo, 985222
1, 17080, Tempo, 992884
1, 17160, Tempo, 1000834
1, 17240, Tempo, 1008742
1, 17520, Tempo, 927644
1, 17760, Tempo, 894988
1, 18000, Tempo, 876552
1, 18240, Tempo, 894988
1, 18280, Tempo, 920952
1, 18480, Tempo, 955566
1, 18960, Tempo, 1008742
1, 19200, Tempo, 970246
1, 19440, Tempo, 934579
1, 19680, Tempo, 901442
1, 20200, Tempo, 955566
1, 20640, Tempo, 970246
1, 20720, Tempo, 977676
1, 20760, Tempo, 985222
1, 20840, Tempo, 992884
1, 20880, Tempo, 1000834
1, 20920, Tempo, 1008742
1, 21000, Tempo, 1016777
1, 21040, Tempo, 1024940
1, 21080, Tempo, 1033236
1, 21360, Tempo, 934579
1, 21600, Tempo, 888757
1, 22080, Tempo, 927644
1, 22320, Tempo, 955566
1, 22560, Tempo, 970246
1, 22640, Tempo, 977676
1, 22720, Tempo, 985222
1, 22800, Tempo, 992884
1, 22880, Tempo, 1000834
1, 22960, Tempo, 1008742
1, 23000, Tempo, 1016777
1, 23280, Tempo, 962773
1, 23520, Tempo, 907853
1, 24000, Tempo, 864553
1, 24240, Tempo, 920952
1, 24480, Tempo, 941472
1, 24520, Tempo, 948467
1, 24560, Tempo, 955566
1, 24600, Tempo, 962773
1, 24640, Tempo, 970246
1, 24680, Tempo, 977676
1, 24720, Tempo, 992884
1, 24760, Tempo, 1000834
1, 24800, Tempo, 1008742
1, 24840, Tempo, 1016777
1, 24880, Tempo, 1024940
1, 24920, Tempo, 1041848
1, 24960, Tempo, 1041848
1, 25200, Tempo, 870448
1, 25440, Tempo, 882613
1, 25680, Tempo, 927644
1, 25920, Tempo, 977676
1, 26160, Tempo, 977676
1, 26400, Tempo, 1000834
1, 26480, Tempo, 1008742
1, 26520, Tempo, 1016777
1, 26560, Tempo, 1024940
1, 26600, Tempo, 1033236
1, 26680, Tempo, 1041848
1, 26720, Tempo, 1050420
1, 26760, Tempo, 1059135
1, 26800, Tempo, 1067996
1, 26840, Tempo, 1145038
1, 26880, Tempo, 992884
1, 27120, Tempo, 934579
1, 27360, Tempo, 888757
1, 27840, Tempo, 948467
1, 28080, Tempo, 985222
1, 28320, Tempo, 970246
1, 28400, Tempo, 977676
1, 28440, Tempo, 985222
1, 28480, Tempo, 992884
1, 28520, Tempo, 1000834
1, 28560, Tempo, 1008742
1, 28640, Tempo, 1016777
1, 28680, Tempo, 1024940
1, 28720, Tempo, 1033236
1, 28760, Tempo, 1041848
1, 28800, Tempo, 952381
1, 29040, Tempo, 869565
1, 29280, Tempo, 839161
1, 29520, Tempo, 816327
1, 29760, Tempo, 875912
1, 30000, Tempo, 888889
1, 30240, Tempo, 962773
1, 30280, Tempo, 909091
1, 30360, Tempo, 916031
1, 30400, Tempo, 923077
1, 30440, Tempo, 930233
1, 30480, Tempo, 937500
1, 30560, Tempo, 944882
1, 30600, Tempo, 952381
1, 30640, Tempo, 960000
1, 30680, Tempo, 967742
1, 30720, Tempo, 869565
1, 30960, Tempo, 833333
1, 31080, Tempo, 923077
1, 31200, Tempo, 816327
1, 31440, Tempo, 851064
1, 31480, Tempo, 851064
1, 31680, Tempo, 794702
1, 31920, Tempo, 821918
1, 32160, Tempo, 789474
1, 32400, Tempo, 833333
1, 32640, Tempo, 805369
1, 32880, Tempo, 769231
1, 33120, Tempo, 754717
1, 33360, Tempo, 784314
1, 33580, Tempo, 769231
1, 33600, Tempo, 769231
1, 33840, Tempo, 789474
1, 34080, Tempo, 784314
1, 34320, Tempo, 839161
1, 34560, Tempo, 810811
1, 34800, Tempo, 888889
1, 35000, Tempo, 927644
1, 35040, Tempo, 845070
1, 35080, Tempo, 851064
1, 35120, Tempo, 857143
1, 35160, Tempo, 863309
1, 35200, Tempo, 869565
1, 35220, Tempo, 875912
1, 35260, Tempo, 882353
1, 35300, Tempo, 888889
1, 35340, Tempo, 895522
1, 35360, Tempo, 902256
1, 35400, Tempo, 909091
1, 35440, Tempo, 916031
1, 35480, Tempo, 923077
1, 35500, Tempo, 930233
1, 35520, Tempo, 923077
1, 35540, Tempo, 895522
1, 35680, Tempo, 923077
1, 35700, Tempo, 888889
1, 35760, Tempo, 895522
1, 35800, Tempo, 902256
1, 35860, Tempo, 909091
1, 35900, Tempo, 916031
1, 35960, Tempo, 923077
1, 36000, Tempo, 930233
1, 36040, Tempo, 960000
1, 36080, Tempo, 967742
1, 36120, Tempo, 975610
1, 36140, Tempo, 983607
1, 36180, Tempo, 991736
1, 36220, Tempo, 1000000
1, 36240, Tempo, 1008403
1, 36280, Tempo, 1016949
1, 36320, Tempo, 1025641
1, 36340, Tempo, 1034483
1, 36380, Tempo, 1043478
1, 36420, Tempo, 1052632
1, 36440, Tempo, 1061947
1, 36480, Tempo, 975610
1, 36720, Tempo, 916031
1, 36960, Tempo, 882353
1, 37400, Tempo, 934579
1, 37440, Tempo, 941472
1, 37680, Tempo, 962773
1, 37920, Tempo, 970246
1, 38000, Tempo, 977676
1, 38080, Tempo, 985222
1, 38160, Tempo, 992884
1, 38240, Tempo, 1000834
1, 38320, Tempo, 1008742
1, 38360, Tempo, 1016777
1, 38400, Tempo, 1024940
1, 38640, Tempo, 962773
1, 38880, Tempo, 934579
1, 39120, Tempo, 901442
1, 39360, Tempo, 962773
1, 39800, Tempo, 970246
1, 39840, Tempo, 977676
1, 39880, Tempo, 985222
1, 39920, Tempo, 992884
1, 39960, Tempo, 1000834
1, 40000, Tempo, 1008742
1, 40040, Tempo, 1016777
1, 40080, Tempo, 1024940
1, 40120, Tempo, 1033236
1, 40160, Tempo, 1050420
1, 40200, Tempo, 1114827
1, 40240, Tempo, 1187884
1, 40280, Tempo, 1270917
1, 40320, Tempo, 1024940
1, 40560, Tempo, 962773
1, 40800, Tempo, 927644
1, 41280, Tempo, 962773
1, 41760, Tempo, 970246
1, 41840, Tempo, 977676
1, 41920, Tempo, 985222
1, 42000, Tempo, 992884
1, 42080, Tempo, 1000834
1, 42160, Tempo, 1008742
1, 42200, Tempo, 1016777
1, 42240, Tempo, 1024940
1, 42480, Tempo, 962773
1, 42720, Tempo, 941472
1, 43200, Tempo, 962773
1, 43640, Tempo, 977676
1, 43680, Tempo, 992884
1, 43720, Tempo, 1008742
1, 43760, Tempo, 1024940
1, 43800, Tempo, 1041848
1, 43840, Tempo, 1059135
1, 43880, Tempo, 1077006
1, 43920, Tempo, 1095690
1, 43960, Tempo, 1114827
1, 44000, Tempo, 1134859
1, 44040, Tempo, 1155402
1, 44080, Tempo, 1176932
1, 44120, Tempo, 1210410
1, 44160, Tempo, 1050420
1, 45120, Tempo, 1270917
1, 46080, Tempo, 1067996
1, 47040, Tempo, 1176932
1, 48000, Tempo, 1270917
1, 50694, Tempo, 1200000
1, 51840, Tempo, 857143
1, 51840, End_track
2, 0, Start_track
2, 0, Title_t, "Piano right"
2, 0, Program_c, 0, 0
2, 0, Control_c, 0, 7, 100
2, 0, Control_c, 0, 10, 64
2, 0, Control_c, 0, 91, 127
2, 0, Text_t, "bdca426d104a26ac9dcb070447587523"
2, 1440, Note_on_c, 0, 59, 55
2, 1800, Note_on_c, 0, 59, 0
2, 1800, Note_on_c, 0, 71, 52
2, 1920, Note_on_c, 0, 71, 0
2, 1920, Note_on_c, 0, 71, 62
2, 3360, Note_on_c, 0, 71, 0
2, 3370, Note_on_c, 0, 72, 58
2, 3850, Note_on_c, 0, 72, 0
2, 3850, Note_on_c, 0, 71, 62
2, 5290, Note_on_c, 0, 71, 0
2, 5290, Note_on_c, 0, 72, 58
2, 5770, Note_on_c, 0, 72, 0
2, 5770, Note_on_c, 0, 71, 62
2, 7200, Note_on_c, 0, 71, 0
2, 7200, Note_on_c, 0, 72, 59
2, 7680, Note_on_c, 0, 72, 0
2, 7680, Note_on_c, 0, 71, 64
2, 9120, Note_on_c, 0, 71, 0
2, 9125, Note_on_c, 0, 70, 58
2, 9605, Note_on_c, 0, 70, 0
2, 9605, Note_on_c, 0, 69, 62
2, 11045, Note_on_c, 0, 69, 0
2, 11045, Note_on_c, 0, 71, 63
2, 11525, Note_on_c, 0, 71, 0
2, 11525, Note_on_c, 0, 69, 66
2, 12965, Note_on_c, 0, 69, 0
2, 12965, Note_on_c, 0, 71, 67
2, 13445, Note_on_c, 0, 71, 0
2, 13445, Note_on_c, 0, 69, 67
2, 14880, Note_on_c, 0, 71, 66
2, 14885, Note_on_c, 0, 69, 0
2, 15240, Note_on_c, 0, 71, 0
2, 15240, Note_on_c, 0, 69, 57
2, 15360, Note_on_c, 0, 69, 0
2, 15370, Note_on_c, 0, 69, 62
2, 16800, Note_on_c, 0, 69, 0
2, 16800, Note_on_c, 0, 68, 62
2, 17760, Note_on_c, 0, 68, 0
2, 17760, Note_on_c, 0, 69, 65
2, 18000, Note_on_c, 0, 69, 0
2, 18000, Note_on_c, 0, 71, 69
2, 18240, Note_on_c, 0, 71, 0
2, 18240, Note_on_c, 0, 74, 74
2, 18480, Note_on_c, 0, 74, 0
2, 18480, Note_on_c, 0, 72, 65
2, 18720, Note_on_c, 0, 72, 0
2, 18720, Note_on_c, 0, 64, 68
2, 18960, Note_on_c, 0, 64, 0
2, 18960, Note_on_c, 0, 69, 62
2, 19200, Note_on_c, 0, 69, 0
2, 19200, Note_on_c, 0, 66, 62
2, 20640, Note_on_c, 0, 66, 0
2, 20640, Note_on_c, 0, 69, 57
2, 21120, Note_on_c, 0, 69, 0
2, 21120, Note_on_c, 0, 66, 62
2, 22500, Note_on_c, 0, 66, 0
2, 22500, Note_on_c, 0, 71, 52
2, 22560, Note_on_c, 0, 71, 0
2, 22560, Note_on_c, 0, 69, 62
2, 23040, Note_on_c, 0, 69, 0
2, 23040, Note_on_c, 0, 67, 62
2, 23280, Note_on_c, 0, 67, 0
2, 23280, Note_on_c, 0, 66, 46
2, 23520, Note_on_c, 0, 66, 0
2, 23520, Note_on_c, 0, 60, 54
2, 23760, Note_on_c, 0, 60, 0
2, 23760, Note_on_c, 0, 59, 42
2, 24000, Note_on_c, 0, 59, 0
2, 24000, Note_on_c, 0, 63, 64
2, 24240, Note_on_c, 0, 63, 0
2, 24240, Note_on_c, 0, 66, 59
2, 24480, Note_on_c, 0, 66, 0
2, 24480, Note_on_c, 0, 74, 65
2, 24640, Note_on_c, 0, 74, 0
2, 24640, Note_on_c, 0, 72, 62
2, 24800, Note_on_c, 0, 72, 0
2, 24800, Note_on_c, 0, 71, 57
2, 24960, Note_on_c, 0, 71, 0
2, 24960, Note_on_c, 0, 71, 62
2, 26400, Note_on_c, 0, 71, 0
2, 26410, Note_on_c, 0, 72, 68
2, 26890, Note_on_c, 0, 72, 0
2, 26890, Note_on_c, 0, 71, 71
2, 28325, Note_on_c, 0, 72, 74
2, 28330, Note_on_c, 0, 71, 0
2, 28805, Note_on_c, 0, 72, 0
2, 28805, Note_on_c, 0, 71, 76
2, 30240, Note_on_c, 0, 71, 0
2, 30240, Note_on_c, 0, 72, 77
2, 30720, Note_on_c, 0, 72, 0
2, 30720, Note_on_c, 0, 71, 84
2, 31080, Note_on_c, 0, 71, 0
2, 31080, Note_on_c, 0, 70, 78
2, 31200, Note_on_c, 0, 70, 0
2, 31200, Note_on_c, 0, 70, 85
2, 31440, Note_on_c, 0, 70, 0
2, 31440, Note_on_c, 0, 71, 70
2, 31500, Note_on_c, 0, 71, 0
2, 31500, Note_on_c, 0, 70, 73
2, 31560, Note_on_c, 0, 70, 0
2, 31560, Note_on_c, 0, 69, 76
2, 31620, Note_on_c, 0, 69, 0
2, 31620, Note_on_c, 0, 70, 79
2, 31680, Note_on_c, 0, 70, 0
2, 31680, Note_on_c, 0, 79, 88
2, 32160, Note_on_c, 0, 79, 0
2, 32160, Note_on_c, 0, 78, 91
2, 32520, Note_on_c, 0, 78, 0
2, 32520, Note_on_c, 0, 76, 77
2, 32640, Note_on_c, 0, 76, 0
2, 32640, Note_on_c, 0, 76, 89
2, 32880, Note_on_c, 0, 76, 0
2, 32880, Note_on_c, 0, 75, 86
2, 33120, Note_on_c, 0, 75, 0
2, 33120, Note_on_c, 0, 84, 92
2, 33360, Note_on_c, 0, 84, 0
2, 33360, Note_on_c, 0, 75, 85
2, 33600, Note_on_c, 0, 75, 0
2, 33600, Note_on_c, 0, 75, 88
2, 33840, Note_on_c, 0, 75, 0
2, 33840, Note_on_c, 0, 76, 82
2, 34080, Note_on_c, 0, 76, 0
2, 34080, Note_on_c, 0, 79, 85
2, 34320, Note_on_c, 0, 79, 0
2, 34320, Note_on_c, 0, 71, 77
2, 34560, Note_on_c, 0, 71, 0
2, 34560, Note_on_c, 0, 74, 80
2, 34800, Note_on_c, 0, 74, 0
2, 34800, Note_on_c, 0, 72, 69
2, 35040, Note_on_c, 0, 72, 0
2, 35040, Note_on_c, 0, 76, 77
2, 35200, Note_on_c, 0, 76, 0
2, 35200, Note_on_c, 0, 64, 67
2, 35360, Note_on_c, 0, 64, 0
2, 35360, Note_on_c, 0, 69, 67
2, 35520, Note_on_c, 0, 69, 0
2, 35520, Note_on_c, 0, 66, 73
2, 36240, Note_on_c, 0, 66, 0
2, 36240, Note_on_c, 0, 69, 69
2, 36480, Note_on_c, 0, 69, 0
2, 36480, Note_on_c, 0, 66, 64
2, 37860, Note_on_c, 0, 66, 0
2, 37860, Note_on_c, 0, 71, 47
2, 37920, Note_on_c, 0, 71, 0
2, 37920, Note_on_c, 0, 69, 57
2, 38400, Note_on_c, 0, 69, 0
2, 38400, Note_on_c, 0, 66, 57
2, 40200, Note_on_c, 0, 66, 0
2, 40200, Note_on_c, 0, 64, 52
2, 40320, Note_on_c, 0, 64, 0
2, 40320, Note_on_c, 0, 64, 57
2, 41760, Note_on_c, 0, 64, 0
2, 41760, Note_on_c, 0, 66, 52
2, 42240, Note_on_c, 0, 66, 0
2, 42240, Note_on_c, 0, 64, 52
2, 43680, Note_on_c, 0, 64, 0
2, 43680, Note_on_c, 0, 66, 47
2, 44160, Note_on_c, 0, 66, 0
2, 44160, Note_on_c, 0, 64, 47
2, 45120, Note_on_c, 0, 64, 0
2, 46080, Note_on_c, 0, 52, 28
2, 46080, Note_on_c, 0, 64, 33
2, 46080, Note_on_c, 0, 54, 28
2, 46080, Note_on_c, 0, 59, 28
2, 47040, Note_on_c, 0, 59, 0
2, 47040, Note_on_c, 0, 52, 0
2, 47040, Note_on_c, 0, 64, 0
2, 47040, Note_on_c, 0, 54, 0
2, 47040, Note_on_c, 0, 54, 28
2, 47040, Note_on_c, 0, 59, 28
2, 47040, Note_on_c, 0, 51, 28
2, 47040, Note_on_c, 0, 63, 33
2, 48000, Note_on_c, 0, 63, 0
2, 48000, Note_on_c, 0, 54, 0
2, 48000, Note_on_c, 0, 59, 0
2, 48000, Note_on_c, 0, 51, 0
2, 48000, Note_on_c, 0, 64, 33
2, 48000, Note_on_c, 0, 59, 28
2, 48000, Note_on_c, 0, 52, 28
2, 48000, Note_on_c, 0, 55, 28
2, 49920, Note_on_c, 0, 55, 0
2, 49920, Note_on_c, 0, 64, 0
2, 49920, Note_on_c, 0, 59, 0
2, 49920, Note_on_c, 0, 52, 0
2, 49920, End_track
3, 0, Start_track
3, 0, Title_t, "Piano left"
3, 0, Program_c, 0, 0
3, 0, Control_c, 0, 7, 100
3, 0, Control_c, 0, 10, 64
3, 0, Control_c, 0, 64, 0
3, 1920, Control_c, 0, 64, 127
3, 1920, Note_on_c, 0, 55, 21
3, 1920, Note_on_c, 0, 59, 25
3, 1920, Note_on_c, 0, 64, 31
3, 2136, Note_on_c, 0, 64, 0
3, 2136, Note_on_c, 0, 59, 0
3, 2136, Note_on_c, 0, 55, 0
3, 2160, Note_on_c, 0, 55, 18
3, 2160, Note_on_c, 0, 59, 22
3, 2160, Note_on_c, 0, 64, 27
3, 2376, Note_on_c, 0, 64, 0
3, 2376, Note_on_c, 0, 59, 0
3, 2376, Note_on_c, 0, 55, 0
3, 2400, Note_on_c, 0, 55, 18
3, 2400, Note_on_c, 0, 59, 22
3, 2400, Note_on_c, 0, 64, 27
3, 2616, Note_on_c, 0, 64, 0
3, 2616, Note_on_c, 0, 59, 0
3, 2616, Note_on_c, 0, 55, 0
3, 2640, Note_on_c, 0, 55, 18
3, 2640, Note_on_c, 0, 59, 22
3, 2640, Note_on_c, 0, 64, 27
3, 2856, Note_on_c, 0, 64, 0
3, 2856, Note_on_c, 0, 59, 0
3, 2856, Note_on_c, 0, 55, 0
3, 2880, Note_on_c, 0, 55, 18
3, 2880, Note_on_c, 0, 59, 22
3, 2880, Note_on_c, 0, 64, 27
3, 3096, Note_on_c, 0, 64, 0
3, 3096, Note_on_c, 0, 59, 0
3, 3096, Note_on_c, 0, 55, 0
3, 3120, Note_on_c, 0, 55, 18
3, 3120, Note_on_c, 0, 59, 22
3, 3120, Note_on_c, 0, 64, 27
3, 3336, Note_on_c, 0, 64, 0
3, 3336, Note_on_c, 0, 59, 0
3, 3336, Note_on_c, 0, 55, 0
3, 3360, Note_on_c, 0, 55, 16
3, 3360, Note_on_c, 0, 59, 19
3, 3360, Note_on_c, 0, 64, 24
3, 3372, Control_c, 0, 64, 0
3, 3473, Control_c, 0, 64, 127
3, 3576, Note_on_c, 0, 64, 0
3, 3576, Note_on_c, 0, 59, 0
3, 3576, Note_on_c, 0, 55, 0
3, 3600, Note_on_c, 0, 55, 16
3, 3600, Note_on_c, 0, 59, 19
3, 3600, Note_on_c, 0, 64, 24
3, 3816, Note_on_c, 0, 64, 0
3, 3816, Note_on_c, 0, 59, 0
3, 3816, Note_on_c, 0, 55, 0
3, 3840, Note_on_c, 0, 54, 21
3, 3840, Note_on_c, 0, 64, 31
3, 3840, Note_on_c, 0, 57, 25
3, 3849, Control_c, 0, 64, 0
3, 3931, Control_c, 0, 64, 127
3, 4056, Note_on_c, 0, 57, 0
3, 4056, Note_on_c, 0, 64, 0
3, 4056, Note_on_c, 0, 54, 0
3, 4080, Note_on_c, 0, 54, 18
3, 4080, Note_on_c, 0, 57, 22
3, 4080, Note_on_c, 0, 64, 27
3, 4296, Note_on_c, 0, 64, 0
3, 4296, Note_on_c, 0, 57, 0
3, 4296, Note_on_c, 0, 54, 0
3, 4320, Note_on_c, 0, 54, 18
3, 4320, Note_on_c, 0, 64, 27
3, 4320, Note_on_c, 0, 57, 22
3, 4536, Note_on_c, 0, 57, 0
3, 4536, Note_on_c, 0, 64, 0
3, 4536, Note_on_c, 0, 54, 0
3, 4560, Note_on_c, 0, 57, 22
3, 4560, Note_on_c, 0, 54, 18
3, 4560, Note_on_c, 0, 64, 27
3, 4776, Note_on_c, 0, 64, 0
3, 4776, Note_on_c, 0, 54, 0
3, 4776, Note_on_c, 0, 57, 0
3, 4800, Note_on_c, 0, 57, 22
3, 4800, Note_on_c, 0, 54, 18
3, 4800, Note_on_c, 0, 63, 27
3, 4817, Control_c, 0, 64, 0
3, 4903, Control_c, 0, 64, 127
3, 5016, Note_on_c, 0, 63, 0
3, 5016, Note_on_c, 0, 54, 0
3, 5016, Note_on_c, 0, 57, 0
3, 5040, Note_on_c, 0, 63, 27
3, 5040, Note_on_c, 0, 57, 22
3, 5040, Note_on_c, 0, 54, 18
3, 5256, Note_on_c, 0, 54, 0
3, 5256, Note_on_c, 0, 57, 0
3, 5256, Note_on_c, 0, 63, 0
3, 5280, Note_on_c, 0, 54, 16
3, 5280, Note_on_c, 0, 57, 19
3, 5280, Note_on_c, 0, 63, 24
3, 5296, Control_c, 0, 64, 0
3, 5406, Control_c, 0, 64, 127
3, 5496, Note_on_c, 0, 63, 0
3, 5496, Note_on_c, 0, 57, 0
3, 5496, Note_on_c, 0, 54, 0
3, 5520, Note_on_c, 0, 54, 16
3, 5520, Note_on_c, 0, 57, 19
3, 5520, Note_on_c, 0, 63, 24
3, 5736, Note_on_c, 0, 63, 0
3, 5736, Note_on_c, 0, 57, 0
3, 5736, Note_on_c, 0, 54, 0
3, 5760, Note_on_c, 0, 53, 21
3, 5760, Note_on_c, 0, 57, 25
3, 5760, Note_on_c, 0, 63, 31
3, 5770, Control_c, 0, 64, 0
3, 5884, Control_c, 0, 64, 127
3, 5976, Note_on_c, 0, 63, 0
3, 5976, Note_on_c, 0, 57, 0
3, 5976, Note_on_c, 0, 53, 0
3, 6000, Note_on_c, 0, 53, 18
3, 6000, Note_on_c, 0, 63, 27
3, 6000, Note_on_c, 0, 57, 22
3, 6216, Note_on_c, 0, 57, 0
3, 6216, Note_on_c, 0, 63, 0
3, 6216, Note_on_c, 0, 53, 0
3, 6240, Note_on_c, 0, 63, 27
3, 6240, Note_on_c, 0, 57, 22
3, 6240, Note_on_c, 0, 53, 18
3, 6456, Note_on_c, 0, 53, 0
3, 6456, Note_on_c, 0, 57, 0
3, 6456, Note_on_c, 0, 63, 0
3, 6480, Note_on_c, 0, 53, 18
3, 6480, Note_on_c, 0, 57, 22
3, 6480, Note_on_c, 0, 63, 27
3, 6696, Note_on_c, 0, 63, 0
3, 6696, Note_on_c, 0, 57, 0
3, 6696, Note_on_c, 0, 53, 0
3, 6720, Note_on_c, 0, 57, 22
3, 6720, Note_on_c, 0, 62, 27
3, 6720, Note_on_c, 0, 53, 18
3, 6733, Control_c, 0, 64, 0
3, 6828, Control_c, 0, 64, 127
3, 6936, Note_on_c, 0, 53, 0
3, 6936, Note_on_c, 0, 62, 0
3, 6936, Note_on_c, 0, 57, 0
3, 6960, Note_on_c, 0, 53, 18
3, 6960, Note_on_c, 0, 62, 27
3, 6960, Note_on_c, 0, 57, 22
3, 7176, Note_on_c, 0, 57, 0
3, 7176, Note_on_c, 0, 62, 0
3, 7176, Note_on_c, 0, 53, 0
3, 7200, Note_on_c, 0, 53, 16
3, 7200, Note_on_c, 0, 62, 24
3, 7200, Note_on_c, 0, 56, 19
3, 7213, Control_c, 0, 64, 0
3, 7291, Control_c, 0, 64, 127
3, 7416, Note_on_c, 0, 56, 0
3, 7416, Note_on_c, 0, 62, 0
3, 7416, Note_on_c, 0, 53, 0
3, 7440, Note_on_c, 0, 53, 16
3, 7440, Note_on_c, 0, 56, 19
3, 7440, Note_on_c, 0, 62, 24
3, 7656, Note_on_c, 0, 62, 0
3, 7656, Note_on_c, 0, 56, 0
3, 7656, Note_on_c, 0, 53, 0
3, 7680, Note_on_c, 0, 52, 21
3, 7680, Note_on_c, 0, 56, 25
3, 7680, Note_on_c, 0, 62, 31
3, 7689, Control_c, 0, 64, 0
3, 7760, Control_c, 0, 64, 127
3, 7896, Note_on_c, 0, 62, 0
3, 7896, Note_on_c, 0, 56, 0
3, 7896, Note_on_c, 0, 52, 0
3, 7920, Note_on_c, 0, 56, 22
3, 7920, Note_on_c, 0, 62, 27
3, 7920, Note_on_c, 0, 52, 18
3, 8136, Note_on_c, 0, 52, 0
3, 8136, Note_on_c, 0, 62, 0
3, 8136, Note_on_c, 0, 56, 0
3, 8160, Note_on_c, 0, 56, 22
3, 8160, Note_on_c, 0, 62, 27
3, 8160, Note_on_c, 0, 52, 18
3, 8376, Note_on_c, 0, 52, 0
3, 8376, Note_on_c, 0, 62, 0
3, 8376, Note_on_c, 0, 56, 0
3, 8400, Note_on_c, 0, 62, 27
3, 8400, Note_on_c, 0, 56, 22
3, 8400, Note_on_c, 0, 52, 18
3, 8616, Note_on_c, 0, 52, 0
3, 8616, Note_on_c, 0, 56, 0
3, 8616, Note_on_c, 0, 62, 0
3, 8640, Note_on_c, 0, 62, 27
3, 8640, Note_on_c, 0, 55, 22
3, 8640, Note_on_c, 0, 52, 18
3, 8651, Control_c, 0, 64, 0
3, 8731, Control_c, 0, 64, 127
3, 8856, Note_on_c, 0, 52, 0
3, 8856, Note_on_c, 0, 55, 0
3, 8856, Note_on_c, 0, 62, 0
3, 8880, Note_on_c, 0, 52, 18
3, 8880, Note_on_c, 0, 55, 22
3, 8880, Note_on_c, 0, 62, 27
3, 9096, Note_on_c, 0, 62, 0
3, 9096, Note_on_c, 0, 55, 0
3, 9096, Note_on_c, 0, 52, 0
3, 9120, Note_on_c, 0, 61, 24
3, 9120, Note_on_c, 0, 52, 16
3, 9120, Note_on_c, 0, 55, 19
3, 9134, Control_c, 0, 64, 0
3, 9223, Control_c, 0, 64, 127
3, 9336, Note_on_c, 0, 55, 0
3, 9336, Note_on_c, 0, 52, 0
3, 9336, Note_on_c, 0, 61, 0
3, 9360, Note_on_c, 0, 52, 16
3, 9360, Note_on_c, 0, 55, 19
3, 9360, Note_on_c, 0, 61, 24
3, 9576, Note_on_c, 0, 61, 0
3, 9576, Note_on_c, 0, 55, 0
3, 9576, Note_on_c, 0, 52, 0
3, 9600, Note_on_c, 0, 52, 21
3, 9600, Note_on_c, 0, 60, 31
3, 9600, Note_on_c, 0, 55, 25
3, 9608, Control_c, 0, 64, 0
3, 9701, Control_c, 0, 64, 127
3, 9816, Note_on_c, 0, 55, 0
3, 9816, Note_on_c, 0, 60, 0
3, 9816, Note_on_c, 0, 52, 0
3, 9840, Note_on_c, 0, 55, 22
3, 9840, Note_on_c, 0, 52, 18
3, 9840, Note_on_c, 0, 60, 27
3, 10056, Note_on_c, 0, 60, 0
3, 10056, Note_on_c, 0, 52, 0
3, 10056, Note_on_c, 0, 55, 0
3, 10080, Note_on_c, 0, 55, 23
3, 10080, Note_on_c, 0, 52, 18
3, 10080, Note_on_c, 0, 60, 28
3, 10296, Note_on_c, 0, 60, 0
3, 10296, Note_on_c, 0, 52, 0
3, 10296, Note_on_c, 0, 55, 0
3, 10320, Note_on_c, 0, 55, 23
3, 10320, Note_on_c, 0, 60, 28
3, 10320, Note_on_c, 0, 52, 19
3, 10536, Note_on_c, 0, 52, 0
3, 10536, Note_on_c, 0, 60, 0
3, 10536, Note_on_c, 0, 55, 0
3, 10560, Note_on_c, 0, 60, 31
3, 10560, Note_on_c, 0, 52, 20
3, 10560, Note_on_c, 0, 54, 26
3, 10573, Control_c, 0, 64, 0
3, 10674, Control_c, 0, 64, 127
3, 10776, Note_on_c, 0, 54, 0
3, 10776, Note_on_c, 0, 52, 0
3, 10776, Note_on_c, 0, 60, 0
3, 10800, Note_on_c, 0, 60, 34
3, 10800, Note_on_c, 0, 52, 22
3, 10800, Note_on_c, 0, 54, 26
3, 11016, Note_on_c, 0, 54, 0
3, 11016, Note_on_c, 0, 52, 0
3, 11016, Note_on_c, 0, 60, 0
3, 11040, Note_on_c, 0, 54, 23
3, 11040, Note_on_c, 0, 52, 19
3, 11040, Note_on_c, 0, 60, 31
3, 11055, Control_c, 0, 64, 0
3, 11154, Control_c, 0, 64, 127
3, 11256, Note_on_c, 0, 60, 0
3, 11256, Note_on_c, 0, 52, 0
3, 11256, Note_on_c, 0, 54, 0
3, 11280, Note_on_c, 0, 52, 19
3, 11280, Note_on_c, 0, 54, 25
3, 11280, Note_on_c, 0, 60, 32
3, 11496, Note_on_c, 0, 60, 0
3, 11496, Note_on_c, 0, 54, 0
3, 11496, Note_on_c, 0, 52, 0
3, 11520, Note_on_c, 0, 54, 34
3, 11520, Note_on_c, 0, 60, 39
3, 11520, Note_on_c, 0, 52, 27
3, 11530, Control_c, 0, 64, 0
3, 11634, Control_c, 0, 64, 127
3, 11736, Note_on_c, 0, 52, 0
3, 11736, Note_on_c, 0, 60, 0
3, 11736, Note_on_c, 0, 54, 0
3, 11760, Note_on_c, 0, 54, 27
3, 11760, Note_on_c, 0, 60, 35
3, 11760, Note_on_c, 0, 52, 23
3, 11976, Note_on_c, 0, 52, 0
3, 11976, Note_on_c, 0, 60, 0
3, 11976, Note_on_c, 0, 54, 0
3, 12000, Note_on_c, 0, 54, 27
3, 12000, Note_on_c, 0, 60, 35
3, 12000, Note_on_c, 0, 52, 22
3, 12216, Note_on_c, 0, 52, 0
3, 12216, Note_on_c, 0, 60, 0
3, 12216, Note_on_c, 0, 54, 0
3, 12240, Note_on_c, 0, 52, 22
3, 12240, Note_on_c, 0, 60, 34
3, 12240, Note_on_c, 0, 54, 26
3, 12456, Note_on_c, 0, 54, 0
3, 12456, Note_on_c, 0, 60, 0
3, 12456, Note_on_c, 0, 52, 0
3, 12480, Note_on_c, 0, 51, 26
3, 12480, Note_on_c, 0, 60, 32
3, 12480, Note_on_c, 0, 54, 26
3, 12496, Control_c, 0, 64, 0
3, 12606, Control_c, 0, 64, 127
3, 12696, Note_on_c, 0, 54, 0
3, 12696, Note_on_c, 0, 60, 0
3, 12696, Note_on_c, 0, 51, 0
3, 12720, Note_on_c, 0, 51, 25
3, 12720, Note_on_c, 0, 54, 25
3, 12720, Note_on_c, 0, 60, 32
3, 12936, Note_on_c, 0, 60, 0
3, 12936, Note_on_c, 0, 54, 0
3, 12936, Note_on_c, 0, 51, 0
3, 12960, Note_on_c, 0, 51, 20
3, 12960, Note_on_c, 0, 54, 20
3, 12960, Note_on_c, 0, 60, 27
3, 12973, Control_c, 0, 64, 0
3, 13097, Control_c, 0, 64, 127
3, 13176, Note_on_c, 0, 60, 0
3, 13176, Note_on_c, 0, 54, 0
3, 13176, Note_on_c, 0, 51, 0
3, 13200, Note_on_c, 0, 54, 20
3, 13200, Note_on_c, 0, 60, 26
3, 13200, Note_on_c, 0, 51, 20
3, 13416, Note_on_c, 0, 51, 0
3, 13416, Note_on_c, 0, 60, 0
3, 13416, Note_on_c, 0, 54, 0
3, 13440, Note_on_c, 0, 54, 29
3, 13440, Note_on_c, 0, 50, 25
3, 13440, Note_on_c, 0, 60, 37
3, 13450, Control_c, 0, 64, 0
3, 13539, Control_c, 0, 64, 127
3, 13656, Note_on_c, 0, 60, 0
3, 13656, Note_on_c, 0, 50, 0
3, 13656, Note_on_c, 0, 54, 0
3, 13680, Note_on_c, 0, 50, 20
3, 13680, Note_on_c, 0, 54, 26
3, 13680, Note_on_c, 0, 60, 32
3, 13896, Note_on_c, 0, 60, 0
3, 13896, Note_on_c, 0, 54, 0
3, 13896, Note_on_c, 0, 50, 0
3, 13920, Note_on_c, 0, 54, 26
3, 13920, Note_on_c, 0, 60, 32
3, 13920, Note_on_c, 0, 50, 20
3, 14136, Note_on_c, 0, 50, 0
3, 14136, Note_on_c, 0, 60, 0
3, 14136, Note_on_c, 0, 54, 0
3, 14160, Note_on_c, 0, 60, 32
3, 14160, Note_on_c, 0, 50, 20
3, 14160, Note_on_c, 0, 54, 26
3, 14376, Note_on_c, 0, 54, 0
3, 14376, Note_on_c, 0, 50, 0
3, 14376, Note_on_c, 0, 60, 0
3, 14400, Note_on_c, 0, 60, 32
3, 14400, Note_on_c, 0, 50, 20
3, 14400, Note_on_c, 0, 54, 26
3, 14616, Note_on_c, 0, 54, 0
3, 14616, Note_on_c, 0, 50, 0
3, 14616, Note_on_c, 0, 60, 0
3, 14640, Note_on_c, 0, 50, 20
3, 14640, Note_on_c, 0, 54, 26
3, 14640, Note_on_c, 0, 60, 32
3, 14856, Note_on_c, 0, 60, 0
3, 14856, Note_on_c, 0, 54, 0
3, 14856, Note_on_c, 0, 50, 0
3, 14880, Note_on_c, 0, 50, 17
3, 14880, Note_on_c, 0, 60, 26
3, 14880, Note_on_c, 0, 54, 20
3, 15096, Note_on_c, 0, 54, 0
3, 15096, Note_on_c, 0, 60, 0
3, 15096, Note_on_c, 0, 50, 0
3, 15120, Note_on_c, 0, 54, 20
3, 15120, Note_on_c, 0, 50, 17
3, 15120, Note_on_c, 0, 60, 26
3, 15336, Note_on_c, 0, 60, 0
3, 15336, Note_on_c, 0, 50, 0
3, 15336, Note_on_c, 0, 54, 0
3, 15360, Note_on_c, 0, 53, 25
3, 15360, Note_on_c, 0, 50, 21
3, 15360, Note_on_c, 0, 60, 31
3, 15371, Control_c, 0, 64, 0
3, 15463, Control_c, 0, 64, 127
3, 15576, Note_on_c, 0, 60, 0
3, 15576, Note_on_c, 0, 50, 0
3, 15576, Note_on_c, 0, 53, 0
3, 15600, Note_on_c, 0, 60, 27
3, 15600, Note_on_c, 0, 53, 22
3, 15600, Note_on_c, 0, 50, 18
3, 15816, Note_on_c, 0, 50, 0
3, 15816, Note_on_c, 0, 53, 0
3, 15816, Note_on_c, 0, 60, 0
3, 15840, Note_on_c, 0, 50, 18
3, 15840, Note_on_c, 0, 53, 22
3, 15840, Note_on_c, 0, 60, 27
3, 16056, Note_on_c, 0, 60, 0
3, 16056, Note_on_c, 0, 53, 0
3, 16056, Note_on_c, 0, 50, 0
3, 16080, Note_on_c, 0, 50, 18
3, 16080, Note_on_c, 0, 60, 27
3, 16080, Note_on_c, 0, 53, 22
3, 16296, Note_on_c, 0, 53, 0
3, 16296, Note_on_c, 0, 60, 0
3, 16296, Note_on_c, 0, 50, 0
3, 16320, Note_on_c, 0, 50, 18
3, 16320, Note_on_c, 0, 53, 22
3, 16320, Note_on_c, 0, 59, 27
3, 16331, Control_c, 0, 64, 0
3, 16423, Control_c, 0, 64, 127
3, 16536, Note_on_c, 0, 59, 0
3, 16536, Note_on_c, 0, 53, 0
3, 16536, Note_on_c, 0, 50, 0
3, 16560, Note_on_c, 0, 50, 18
3, 16560, Note_on_c, 0, 53, 22
3, 16560, Note_on_c, 0, 59, 27
3, 16776, Note_on_c, 0, 59, 0
3, 16776, Note_on_c, 0, 53, 0
3, 16776, Note_on_c, 0, 50, 0
3, 16800, Note_on_c, 0, 53, 19
3, 16800, Note_on_c, 0, 59, 24
3, 16800, Note_on_c, 0, 50, 16
3, 16811, Control_c, 0, 64, 0
3, 16915, Control_c, 0, 64, 127
3, 17016, Note_on_c, 0, 50, 0
3, 17016, Note_on_c, 0, 59, 0
3, 17016, Note_on_c, 0, 53, 0
3, 17040, Note_on_c, 0, 53, 19
3, 17040, Note_on_c, 0, 59, 24
3, 17040, Note_on_c, 0, 50, 16
3, 17256, Note_on_c, 0, 50, 0
3, 17256, Note_on_c, 0, 59, 0
3, 17256, Note_on_c, 0, 53, 0
3, 17280, Note_on_c, 0, 52, 29
3, 17280, Note_on_c, 0, 59, 29
3, 17280, Note_on_c, 0, 48, 24
3, 17291, Control_c, 0, 64, 0
3, 17421, Control_c, 0, 64, 127
3, 17496, Note_on_c, 0, 48, 0
3, 17496, Note_on_c, 0, 59, 0
3, 17496, Note_on_c, 0, 52, 0
3, 17520, Note_on_c, 0, 48, 23
3, 17520, Note_on_c, 0, 59, 28
3, 17520, Note_on_c, 0, 52, 28
3, 17736, Note_on_c, 0, 52, 0
3, 17736, Note_on_c, 0, 59, 0
3, 17736, Note_on_c, 0, 48, 0
3, 17760, Note_on_c, 0, 48, 26
3, 17760, Note_on_c, 0, 57, 32
3, 17760, Note_on_c, 0, 52, 32
3, 17774, Control_c, 0, 64, 0
3, 17901, Control_c, 0, 64, 127
3, 17976, Note_on_c, 0, 52, 0
3, 17976, Note_on_c, 0, 57, 0
3, 17976, Note_on_c, 0, 48, 0
3, 18000, Note_on_c, 0, 57, 35
3, 18000, Note_on_c, 0, 48, 27
3, 18000, Note_on_c, 0, 52, 35
3, 18216, Note_on_c, 0, 52, 0
3, 18216, Note_on_c, 0, 48, 0
3, 18216, Note_on_c, 0, 57, 0
3, 18240, Note_on_c, 0, 48, 27
3, 18240, Note_on_c, 0, 52, 35
3, 18240, Note_on_c, 0, 57, 35
3, 18249, Control_c, 0, 64, 0
3, 18381, Control_c, 0, 64, 127
3, 18456, Note_on_c, 0, 57, 0
3, 18456, Note_on_c, 0, 52, 0
3, 18456, Note_on_c, 0, 48, 0
3, 18480, Note_on_c, 0, 48, 26
3, 18480, Note_on_c, 0, 57, 32
3, 18480, Note_on_c, 0, 52, 32
3, 18696, Note_on_c, 0, 52, 0
3, 18696, Note_on_c, 0, 57, 0
3, 18696, Note_on_c, 0, 48, 0
3, 18720, Note_on_c, 0, 52, 26
3, 18720, Note_on_c, 0, 48, 20
3, 18720, Note_on_c, 0, 57, 26
3, 18734, Control_c, 0, 64, 0
3, 18918, Control_c, 0, 64, 127
3, 18936, Note_on_c, 0, 57, 0
3, 18936, Note_on_c, 0, 48, 0
3, 18936, Note_on_c, 0, 52, 0
3, 18960, Note_on_c, 0, 52, 25
3, 18960, Note_on_c, 0, 48, 20
3, 18960, Note_on_c, 0, 57, 25
3, 19176, Note_on_c, 0, 57, 0
3, 19176, Note_on_c, 0, 48, 0
3, 19176, Note_on_c, 0, 52, 0
3, 19200, Note_on_c, 0, 52, 29
3, 19200, Note_on_c, 0, 57, 29
3, 19200, Note_on_c, 0, 47, 24
3, 19213, Control_c, 0, 64, 0
3, 19291, Control_c, 0, 64, 127
3, 19416, Note_on_c, 0, 47, 0
3, 19416, Note_on_c, 0, 57, 0
3, 19416, Note_on_c, 0, 52, 0
3, 19440, Note_on_c, 0, 57, 27
3, 19440, Note_on_c, 0, 47, 22
3, 19440, Note_on_c, 0, 52, 27
3, 19656, Note_on_c, 0, 52, 0
3, 19656, Note_on_c, 0, 47, 0
3, 19656, Note_on_c, 0, 57, 0
3, 19680, Note_on_c, 0, 57, 27
3, 19680, Note_on_c, 0, 47, 22
3, 19680, Note_on_c, 0, 51, 27
3, 19691, Control_c, 0, 64, 0
3, 19771, Control_c, 0, 64, 127
3, 19896, Note_on_c, 0, 51, 0
3, 19896, Note_on_c, 0, 47, 0
3, 19896, Note_on_c, 0, 57, 0
3, 19920, Note_on_c, 0, 47, 22
3, 19920, Note_on_c, 0, 51, 27
3, 19920, Note_on_c, 0, 57, 27
3, 20136, Note_on_c, 0, 57, 0
3, 20136, Note_on_c, 0, 51, 0
3, 20136, Note_on_c, 0, 47, 0
3, 20160, Note_on_c, 0, 48, 22
3, 20160, Note_on_c, 0, 57, 27
3, 20160, Note_on_c, 0, 52, 27
3, 20177, Control_c, 0, 64, 0
3, 20286, Control_c, 0, 64, 127
3, 20376, Note_on_c, 0, 52, 0
3, 20376, Note_on_c, 0, 57, 0
3, 20376, Note_on_c, 0, 48, 0
3, 20400, Note_on_c, 0, 48, 22
3, 20400, Note_on_c, 0, 52, 27
3, 20400, Note_on_c, 0, 57, 27
3, 20616, Note_on_c, 0, 57, 0
3, 20616, Note_on_c, 0, 52, 0
3, 20616, Note_on_c, 0, 48, 0
3, 20640, Note_on_c, 0, 48, 19
3, 20640, Note_on_c, 0, 52, 23
3, 20640, Note_on_c, 0, 57, 23
3, 20856, Note_on_c, 0, 57, 0
3, 20856, Note_on_c, 0, 52, 0
3, 20856, Note_on_c, 0, 48, 0
3, 20880, Note_on_c, 0, 48, 19
3, 20880, Note_on_c, 0, 52, 23
3, 20880, Note_on_c, 0, 57, 23
3, 21096, Note_on_c, 0, 57, 0
3, 21096, Note_on_c, 0, 52, 0
3, 21096, Note_on_c, 0, 48, 0
3, 21120, Note_on_c, 0, 47, 24
3, 21120, Note_on_c, 0, 51, 29
3, 21120, Note_on_c, 0, 57, 29
3, 21134, Control_c, 0, 64, 0
3, 21176, Control_c, 0, 64, 127
3, 21336, Note_on_c, 0, 57, 0
3, 21336, Note_on_c, 0, 51, 0
3, 21336, Note_on_c, 0, 47, 0
3, 21360, Note_on_c, 0, 47, 22
3, 21360, Note_on_c, 0, 51, 27
3, 21360, Note_on_c, 0, 57, 27
3, 21576, Note_on_c, 0, 57, 0
3, 21576, Note_on_c, 0, 51, 0
3, 21576, Note_on_c, 0, 47, 0
3, 21600, Note_on_c, 0, 47, 22
3, 21600, Note_on_c, 0, 51, 27
3, 21600, Note_on_c, 0, 57, 27
3, 21816, Note_on_c, 0, 57, 0
3, 21816, Note_on_c, 0, 51, 0
3, 21816, Note_on_c, 0, 47, 0
3, 21840, Note_on_c, 0, 47, 22
3, 21840, Note_on_c, 0, 51, 27
3, 21840, Note_on_c, 0, 57, 27
3, 22056, Note_on_c, 0, 57, 0
3, 22056, Note_on_c, 0, 51, 0
3, 22056, Note_on_c, 0, 47, 0
3, 22080, Note_on_c, 0, 48, 22
3, 22080, Note_on_c, 0, 52, 27
3, 22080, Note_on_c, 0, 57, 27
3, 22094, Control_c, 0, 64, 0
3, 22190, Control_c, 0, 64, 127
3, 22296, Note_on_c, 0, 57, 0
3, 22296, Note_on_c, 0, 52, 0
3, 22296, Note_on_c, 0, 48, 0
3, 22320, Note_on_c, 0, 48, 22
3, 22320, Note_on_c, 0, 52, 27
3, 22320, Note_on_c, 0, 57, 27
3, 22536, Note_on_c, 0, 57, 0
3, 22536, Note_on_c, 0, 52, 0
3, 22536, Note_on_c, 0, 48, 0
3, 22560, Note_on_c, 0, 48, 19
3, 22560, Note_on_c, 0, 52, 23
3, 22560, Note_on_c, 0, 57, 23
3, 22776, Note_on_c, 0, 57, 0
3, 22776, Note_on_c, 0, 52, 0
3, 22776, Note_on_c, 0, 48, 0
3, 22800, Note_on_c, 0, 48, 19
3, 22800, Note_on_c, 0, 52, 23
3, 22800, Note_on_c, 0, 57, 23
3, 23016, Note_on_c, 0, 57, 0
3, 23016, Note_on_c, 0, 52, 0
3, 23016, Note_on_c, 0, 48, 0
3, 23040, Note_on_c, 0, 47, 24
3, 23040, Note_on_c, 0, 51, 29
3, 23040, Note_on_c, 0, 57, 29
3, 23050, Control_c, 0, 64, 0
3, 23520, Note_on_c, 0, 57, 0
3, 23520, Note_on_c, 0, 51, 0
3, 23520, Note_on_c, 0, 47, 0
3, 24960, Control_c, 0, 64, 127
3, 24960, Note_on_c, 0, 55, 21
3, 24960, Note_on_c, 0, 59, 25
3, 24960, Note_on_c, 0, 64, 31
3, 25176, Note_on_c, 0, 64, 0
3, 25176, Note_on_c, 0, 59, 0
3, 25176, Note_on_c, 0, 55, 0
3, 25200, Note_on_c, 0, 55, 18
3, 25200, Note_on_c, 0, 59, 22
3, 25200, Note_on_c, 0, 64, 27
3, 25416, Note_on_c, 0, 64, 0
3, 25416, Note_on_c, 0, 59, 0
3, 25416, Note_on_c, 0, 55, 0
3, 25440, Note_on_c, 0, 55, 18
3, 25440, Note_on_c, 0, 59, 22
3, 25440, Note_on_c, 0, 64, 29
3, 25656, Note_on_c, 0, 64, 0
3, 25656, Note_on_c, 0, 59, 0
3, 25656, Note_on_c, 0, 55, 0
3, 25680, Note_on_c, 0, 55, 19
3, 25680, Note_on_c, 0, 59, 24
3, 25680, Note_on_c, 0, 64, 29
3, 25896, Note_on_c, 0, 64, 0
3, 25896, Note_on_c, 0, 59, 0
3, 25896, Note_on_c, 0, 55, 0
3, 25920, Note_on_c, 0, 55, 19
3, 25920, Note_on_c, 0, 59, 25
3, 25920, Note_on_c, 0, 64, 31
3, 26136, Note_on_c, 0, 64, 0
3, 26136, Note_on_c, 0, 59, 0
3, 26136, Note_on_c, 0, 55, 0
3, 26160, Note_on_c, 0, 55, 20
3, 26160, Note_on_c, 0, 59, 26
3, 26160, Note_on_c, 0, 64, 32
3, 26376, Note_on_c, 0, 64, 0
3, 26376, Note_on_c, 0, 59, 0
3, 26376, Note_on_c, 0, 55, 0
3, 26400, Note_on_c, 0, 55, 20
3, 26400, Note_on_c, 0, 59, 24
3, 26400, Note_on_c, 0, 64, 32
3, 26411, Control_c, 0, 64, 0
3, 26541, Control_c, 0, 64, 127
3, 26616, Note_on_c, 0, 64, 0
3, 26616, Note_on_c, 0, 59, 0
3, 26616, Note_on_c, 0, 55, 0
3, 26640, Note_on_c, 0, 55, 20
3, 26640, Note_on_c, 0, 59, 26
3, 26640, Note_on_c, 0, 64, 33
3, 26856, Note_on_c, 0, 64, 0
3, 26856, Note_on_c, 0, 59, 0
3, 26856, Note_on_c, 0, 55, 0
3, 26880, Note_on_c, 0, 54, 23
3, 26880, Note_on_c, 0, 64, 35
3, 26880, Note_on_c, 0, 57, 28
3, 26890, Control_c, 0, 64, 0
3, 26971, Control_c, 0, 64, 127
3, 27096, Note_on_c, 0, 57, 0
3, 27096, Note_on_c, 0, 64, 0
3, 27096, Note_on_c, 0, 54, 0
3, 27120, Note_on_c, 0, 54, 20
3, 27120, Note_on_c, 0, 57, 25
3, 27120, Note_on_c, 0, 64, 32
3, 27336, Note_on_c, 0, 64, 0
3, 27336, Note_on_c, 0, 57, 0
3, 27336, Note_on_c, 0, 54, 0
3, 27360, Note_on_c, 0, 54, 21
3, 27360, Note_on_c, 0, 64, 33
3, 27360, Note_on_c, 0, 57, 26
3, 27576, Note_on_c, 0, 57, 0
3, 27576, Note_on_c, 0, 64, 0
3, 27576, Note_on_c, 0, 54, 0
3, 27600, Note_on_c, 0, 57, 27
3, 27600, Note_on_c, 0, 54, 22
3, 27600, Note_on_c, 0, 64, 35
3, 27816, Note_on_c, 0, 64, 0
3, 27816, Note_on_c, 0, 54, 0
3, 27816, Note_on_c, 0, 57, 0
3, 27840, Note_on_c, 0, 57, 28
3, 27840, Note_on_c, 0, 53, 22
3, 27840, Note_on_c, 0, 63, 35
3, 27857, Control_c, 0, 64, 0
3, 27943, Control_c, 0, 64, 127
3, 28056, Note_on_c, 0, 63, 0
3, 28056, Note_on_c, 0, 53, 0
3, 28056, Note_on_c, 0, 57, 0
3, 28080, Note_on_c, 0, 63, 38
3, 28080, Note_on_c, 0, 57, 29
3, 28080, Note_on_c, 0, 53, 24
3, 28296, Note_on_c, 0, 53, 0
3, 28296, Note_on_c, 0, 57, 0
3, 28296, Note_on_c, 0, 63, 0
3, 28320, Note_on_c, 0, 53, 24
3, 28320, Note_on_c, 0, 57, 27
3, 28320, Note_on_c, 0, 63, 38
3, 28336, Control_c, 0, 64, 0
3, 28446, Control_c, 0, 64, 127
3, 28536, Note_on_c, 0, 63, 0
3, 28536, Note_on_c, 0, 57, 0
3, 28536, Note_on_c, 0, 53, 0
3, 28560, Note_on_c, 0, 53, 25
3, 28560, Note_on_c, 0, 57, 30
3, 28560, Note_on_c, 0, 63, 38
3, 28776, Note_on_c, 0, 63, 0
3, 28776, Note_on_c, 0, 57, 0
3, 28776, Note_on_c, 0, 53, 0
3, 28800, Note_on_c, 0, 53, 30
3, 28800, Note_on_c, 0, 56, 37
3, 28800, Note_on_c, 0, 63, 45
3, 28808, Control_c, 0, 64, 0
3, 28915, Control_c, 0, 64, 127
3, 29016, Note_on_c, 0, 63, 0
3, 29016, Note_on_c, 0, 56, 0
3, 29016, Note_on_c, 0, 53, 0
3, 29040, Note_on_c, 0, 53, 26
3, 29040, Note_on_c, 0, 63, 40
3, 29040, Note_on_c, 0, 56, 33
3, 29256, Note_on_c, 0, 56, 0
3, 29256, Note_on_c, 0, 63, 0
3, 29256, Note_on_c, 0, 53, 0
3, 29280, Note_on_c, 0, 62, 41
3, 29280, Note_on_c, 0, 56, 34
3, 29280, Note_on_c, 0, 53, 27
3, 29295, Control_c, 0, 64, 0
3, 29429, Control_c, 0, 64, 127
3, 29496, Note_on_c, 0, 53, 0
3, 29496, Note_on_c, 0, 56, 0
3, 29496, Note_on_c, 0, 62, 0
3, 29520, Note_on_c, 0, 53, 27
3, 29520, Note_on_c, 0, 56, 36
3, 29520, Note_on_c, 0, 62, 41
3, 29736, Note_on_c, 0, 62, 0
3, 29736, Note_on_c, 0, 56, 0
3, 29736, Note_on_c, 0, 53, 0
3, 29760, Note_on_c, 0, 56, 36
3, 29760, Note_on_c, 0, 62, 44
3, 29760, Note_on_c, 0, 52, 29
3, 29775, Control_c, 0, 64, 0
3, 29863, Control_c, 0, 64, 127
3, 29976, Note_on_c, 0, 52, 0
3, 29976, Note_on_c, 0, 62, 0
3, 29976, Note_on_c, 0, 56, 0
3, 30000, Note_on_c, 0, 52, 29
3, 30000, Note_on_c, 0, 62, 45
3, 30000, Note_on_c, 0, 56, 37
3, 30216, Note_on_c, 0, 56, 0
3, 30216, Note_on_c, 0, 62, 0
3, 30216, Note_on_c, 0, 52, 0
3, 30240, Note_on_c, 0, 52, 27
3, 30240, Note_on_c, 0, 62, 40
3, 30240, Note_on_c, 0, 56, 31
3, 30256, Control_c, 0, 64, 0
3, 30400, Control_c, 0, 64, 127
3, 30456, Note_on_c, 0, 56, 0
3, 30456, Note_on_c, 0, 62, 0
3, 30456, Note_on_c, 0, 52, 0
3, 30480, Note_on_c, 0, 52, 27
3, 30480, Note_on_c, 0, 56, 31
3, 30480, Note_on_c, 0, 62, 41
3, 30696, Note_on_c, 0, 62, 0
3, 30696, Note_on_c, 0, 56, 0
3, 30696, Note_on_c, 0, 52, 0
3, 30720, Note_on_c, 0, 52, 42
3, 30720, Note_on_c, 0, 55, 42
3, 30720, Note_on_c, 0, 62, 50
3, 30729, Control_c, 0, 64, 0
3, 30771, Control_c, 0, 64, 127
3, 30936, Note_on_c, 0, 62, 0
3, 30936, Note_on_c, 0, 55, 0
3, 30936, Note_on_c, 0, 52, 0
3, 30960, Note_on_c, 0, 52, 36
3, 30960, Note_on_c, 0, 55, 36
3, 30960, Note_on_c, 0, 62, 42
3, 31176, Note_on_c, 0, 62, 0
3, 31176, Note_on_c, 0, 55, 0
3, 31176, Note_on_c, 0, 52, 0
3, 31200, Note_on_c, 0, 52, 38
3, 31200, Note_on_c, 0, 55, 38
3, 31200, Note_on_c, 0, 61, 45
3, 31210, Control_c, 0, 64, 0
3, 31272, Control_c, 0, 64, 127
3, 31416, Note_on_c, 0, 61, 0
3, 31416, Note_on_c, 0, 55, 0
3, 31416, Note_on_c, 0, 52, 0
3, 31440, Note_on_c, 0, 52, 46
3, 31440, Note_on_c, 0, 55, 46
3, 31440, Note_on_c, 0, 61, 55
3, 31656, Note_on_c, 0, 61, 0
3, 31656, Note_on_c, 0, 55, 0
3, 31656, Note_on_c, 0, 52, 0
3, 31680, Note_on_c, 0, 49, 46
3, 31680, Note_on_c, 0, 52, 46
3, 31680, Note_on_c, 0, 58, 56
3, 31688, Control_c, 0, 64, 0
3, 31752, Control_c, 0, 64, 127
3, 31896, Note_on_c, 0, 58, 0
3, 31896, Note_on_c, 0, 52, 0
3, 31896, Note_on_c, 0, 49, 0
3, 31920, Note_on_c, 0, 49, 43
3, 31920, Note_on_c, 0, 52, 43
3, 31920, Note_on_c, 0, 58, 52
3, 32136, Note_on_c, 0, 58, 0
3, 32136, Note_on_c, 0, 52, 0
3, 32136, Note_on_c, 0, 49, 0
3, 32160, Note_on_c, 0, 48, 43
3, 32160, Note_on_c, 0, 52, 43
3, 32160, Note_on_c, 0, 57, 52
3, 32174, Control_c, 0, 64, 0
3, 32217, Control_c, 0, 64, 127
3, 32376, Note_on_c, 0, 57, 0
3, 32376, Note_on_c, 0, 52, 0
3, 32376, Note_on_c, 0, 48, 0
3, 32400, Note_on_c, 0, 48, 45
3, 32400, Note_on_c, 0, 52, 45
3, 32400, Note_on_c, 0, 57, 54
3, 32616, Note_on_c, 0, 57, 0
3, 32616, Note_on_c, 0, 52, 0
3, 32616, Note_on_c, 0, 48, 0
3, 32640, Note_on_c, 0, 35, 57
3, 32640, Note_on_c, 0, 47, 69
3, 32651, Control_c, 0, 64, 0
3, 32789, Control_c, 0, 64, 127
3, 32856, Note_on_c, 0, 47, 0
3, 32856, Note_on_c, 0, 35, 0
3, 32880, Note_on_c, 0, 69, 54
3, 32880, Note_on_c, 0, 66, 54
3, 32880, Note_on_c, 0, 60, 45
3, 32880, Note_on_c, 0, 57, 45
3, 33096, Note_on_c, 0, 57, 0
3, 33096, Note_on_c, 0, 69, 0
3, 33096, Note_on_c, 0, 66, 0
3, 33096, Note_on_c, 0, 60, 0
3, 33120, Note_on_c, 0, 57, 45
3, 33120, Note_on_c, 0, 60, 45
3, 33120, Note_on_c, 0, 66, 54
3, 33120, Note_on_c, 0, 69, 54
3, 33336, Note_on_c, 0, 69, 0
3, 33336, Note_on_c, 0, 57, 0
3, 33336, Note_on_c, 0, 60, 0
3, 33336, Note_on_c, 0, 66, 0
3, 33360, Note_on_c, 0, 57, 45
3, 33360, Note_on_c, 0, 60, 45
3, 33360, Note_on_c, 0, 66, 54
3, 33360, Note_on_c, 0, 69, 54
3, 33576, Note_on_c, 0, 69, 0
3, 33576, Note_on_c, 0, 57, 0
3, 33576, Note_on_c, 0, 60, 0
3, 33576, Note_on_c, 0, 66, 0
3, 33600, Note_on_c, 0, 66, 57
3, 33600, Note_on_c, 0, 63, 57
3, 33600, Note_on_c, 0, 59, 47
3, 33600, Note_on_c, 0, 55, 47
3, 33609, Control_c, 0, 64, 0
3, 33691, Control_c, 0, 64, 127
3, 33816, Note_on_c, 0, 55, 0
3, 33816, Note_on_c, 0, 66, 0
3, 33816, Note_on_c, 0, 63, 0
3, 33816, Note_on_c, 0, 59, 0
3, 33840, Note_on_c, 0, 64, 49
3, 33840, Note_on_c, 0, 59, 41
3, 33840, Note_on_c, 0, 55, 41
3, 33854, Control_c, 0, 64, 0
3, 33931, Control_c, 0, 64, 127
3, 34056, Note_on_c, 0, 55, 0
3, 34056, Note_on_c, 0, 59, 0
3, 34056, Note_on_c, 0, 64, 0
3, 34080, Note_on_c, 0, 55, 41
3, 34080, Note_on_c, 0, 59, 41
3, 34080, Note_on_c, 0, 64, 49
3, 34091, Control_c, 0, 64, 0
3, 34183, Control_c, 0, 64, 127
3, 34296, Note_on_c, 0, 64, 0
3, 34296, Note_on_c, 0, 59, 0
3, 34296, Note_on_c, 0, 55, 0
3, 34320, Note_on_c, 0, 55, 41
3, 34320, Note_on_c, 0, 59, 41
3, 34320, Note_on_c, 0, 64, 49
3, 34536, Note_on_c, 0, 64, 0
3, 34536, Note_on_c, 0, 59, 0
3, 34536, Note_on_c, 0, 55, 0
3, 34560, Note_on_c, 0, 64, 53
3, 34560, Note_on_c, 0, 60, 44
3, 34560, Note_on_c, 0, 57, 44
3, 34569, Control_c, 0, 64, 0
3, 34652, Control_c, 0, 64, 127
3, 34776, Note_on_c, 0, 57, 0
3, 34776, Note_on_c, 0, 60, 0
3, 34776, Note_on_c, 0, 64, 0
3, 34800, Note_on_c, 0, 57, 38
3, 34800, Note_on_c, 0, 60, 38
3, 34800, Note_on_c, 0, 64, 46
3, 35016, Note_on_c, 0, 64, 0
3, 35016, Note_on_c, 0, 60, 0
3, 35016, Note_on_c, 0, 57, 0
3, 35040, Note_on_c, 0, 45, 44
3, 35054, Control_c, 0, 64, 0
3, 35167, Control_c, 0, 64, 127
3, 35256, Note_on_c, 0, 45, 0
3, 35280, Note_on_c, 0, 60, 44
3, 35280, Note_on_c, 0, 54, 37
3, 35280, Note_on_c, 0, 52, 37
3, 35496, Note_on_c, 0, 52, 0
3, 35496, Note_on_c, 0, 54, 0
3, 35496, Note_on_c, 0, 60, 0
3, 35520, Note_on_c, 0, 47, 38
3, 35520, Note_on_c, 0, 52, 38
3, 35520, Note_on_c, 0, 59, 46
3, 35534, Control_c, 0, 64, 0
3, 35612, Control_c, 0, 64, 127
3, 35736, Note_on_c, 0, 59, 0
3, 35736, Note_on_c, 0, 52, 0
3, 35736, Note_on_c, 0, 47, 0
3, 35760, Note_on_c, 0, 47, 33
3, 35760, Note_on_c, 0, 52, 33
3, 35760, Note_on_c, 0, 59, 38
3, 35976, Note_on_c, 0, 59, 0
3, 35976, Note_on_c, 0, 52, 0
3, 35976, Note_on_c, 0, 47, 0
3, 36000, Note_on_c, 0, 48, 33
3, 36000, Note_on_c, 0, 52, 33
3, 36000, Note_on_c, 0, 57, 38
3, 36015, Control_c, 0, 64, 0
3, 36085, Control_c, 0, 64, 127
3, 36216, Note_on_c, 0, 57, 0
3, 36216, Note_on_c, 0, 52, 0
3, 36216, Note_on_c, 0, 48, 0
3, 36240, Note_on_c, 0, 48, 29
3, 36240, Note_on_c, 0, 52, 29
3, 36240, Note_on_c, 0, 57, 36
3, 36456, Note_on_c, 0, 57, 0
3, 36456, Note_on_c, 0, 52, 0
3, 36456, Note_on_c, 0, 48, 0
3, 36480, Note_on_c, 0, 47, 24
3, 36480, Note_on_c, 0, 52, 29
3, 36480, Note_on_c, 0, 59, 29
3, 36490, Control_c, 0, 64, 0
3, 36536, Control_c, 0, 64, 127
3, 36696, Note_on_c, 0, 59, 0
3, 36696, Note_on_c, 0, 52, 0
3, 36696, Note_on_c, 0, 47, 0
3, 36720, Note_on_c, 0, 47, 22
3, 36720, Note_on_c, 0, 52, 27
3, 36720, Note_on_c, 0, 59, 27
3, 36936, Note_on_c, 0, 59, 0
3, 36936, Note_on_c, 0, 52, 0
3, 36936, Note_on_c, 0, 47, 0
3, 36960, Note_on_c, 0, 47, 22
3, 36960, Note_on_c, 0, 59, 27
3, 36964, Note_on_c, 0, 52, 27
3, 37176, Note_on_c, 0, 59, 0
3, 37176, Note_on_c, 0, 47, 0
3, 37180, Note_on_c, 0, 52, 0
3, 37200, Note_on_c, 0, 47, 22
3, 37200, Note_on_c, 0, 52, 27
3, 37200, Note_on_c, 0, 59, 27
3, 37416, Note_on_c, 0, 59, 0
3, 37416, Note_on_c, 0, 52, 0
3, 37416, Note_on_c, 0, 47, 0
3, 37440, Note_on_c, 0, 48, 22
3, 37440, Note_on_c, 0, 52, 27
3, 37440, Note_on_c, 0, 57, 27
3, 37455, Control_c, 0, 64, 0
3, 37539, Control_c, 0, 64, 127
3, 37656, Note_on_c, 0, 57, 0
3, 37656, Note_on_c, 0, 52, 0
3, 37656, Note_on_c, 0, 48, 0
3, 37680, Note_on_c, 0, 48, 22
3, 37680, Note_on_c, 0, 52, 27
3, 37680, Note_on_c, 0, 57, 27
3, 37896, Note_on_c, 0, 57, 0
3, 37896, Note_on_c, 0, 52, 0
3, 37896, Note_on_c, 0, 48, 0
3, 37920, Note_on_c, 0, 48, 19
3, 37920, Note_on_c, 0, 52, 23
3, 37920, Note_on_c, 0, 57, 23
3, 38136, Note_on_c, 0, 57, 0
3, 38136, Note_on_c, 0, 52, 0
3, 38136, Note_on_c, 0, 48, 0
3, 38160, Note_on_c, 0, 48, 19
3, 38160, Note_on_c, 0, 52, 23
3, 38160, Note_on_c, 0, 57, 23
3, 38376, Note_on_c, 0, 57, 0
3, 38376, Note_on_c, 0, 52, 0
3, 38376, Note_on_c, 0, 48, 0
3, 38400, Note_on_c, 0, 47, 24
3, 38400, Note_on_c, 0, 52, 29
3, 38400, Note_on_c, 0, 59, 29
3, 38413, Control_c, 0, 64, 0
3, 38534, Control_c, 0, 64, 127
3, 38616, Note_on_c, 0, 59, 0
3, 38616, Note_on_c, 0, 52, 0
3, 38616, Note_on_c, 0, 47, 0
3, 38640, Note_on_c, 0, 47, 22
3, 38640, Note_on_c, 0, 52, 27
3, 38640, Note_on_c, 0, 59, 27
3, 38856, Note_on_c, 0, 59, 0
3, 38856, Note_on_c, 0, 52, 0
3, 38856, Note_on_c, 0, 47, 0
3, 38880, Note_on_c, 0, 47, 22
3, 38880, Note_on_c, 0, 59, 27
3, 38884, Note_on_c, 0, 52, 27
3, 39096, Note_on_c, 0, 59, 0
3, 39096, Note_on_c, 0, 47, 0
3, 39100, Note_on_c, 0, 52, 0
3, 39120, Note_on_c, 0, 47, 22
3, 39120, Note_on_c, 0, 52, 27
3, 39120, Note_on_c, 0, 59, 27
3, 39336, Note_on_c, 0, 59, 0
3, 39336, Note_on_c, 0, 52, 0
3, 39336, Note_on_c, 0, 47, 0
3, 39360, Note_on_c, 0, 47, 22
3, 39360, Note_on_c, 0, 51, 27
3, 39360, Note_on_c, 0, 59, 27
3, 39374, Control_c, 0, 64, 0
3, 39466, Control_c, 0, 64, 127
3, 39576, Note_on_c, 0, 59, 0
3, 39576, Note_on_c, 0, 51, 0
3, 39576, Note_on_c, 0, 47, 0
3, 39600, Note_on_c, 0, 47, 22
3, 39600, Note_on_c, 0, 51, 27
3, 39600, Note_on_c, 0, 59, 27
3, 39816, Note_on_c, 0, 59, 0
3, 39816, Note_on_c, 0, 51, 0
3, 39816, Note_on_c, 0, 47, 0
3, 39840, Note_on_c, 0, 47, 19
3, 39840, Note_on_c, 0, 51, 23
3, 39840, Note_on_c, 0, 57, 23
3, 40056, Note_on_c, 0, 57, 0
3, 40056, Note_on_c, 0, 51, 0
3, 40056, Note_on_c, 0, 47, 0
3, 40080, Note_on_c, 0, 47, 19
3, 40080, Note_on_c, 0, 51, 23
3, 40080, Note_on_c, 0, 57, 23
3, 40296, Note_on_c, 0, 57, 0
3, 40296, Note_on_c, 0, 51, 0
3, 40296, Note_on_c, 0, 47, 0
3, 40320, Note_on_c, 0, 48, 32
3, 40320, Note_on_c, 0, 55, 32
3, 40335, Control_c, 0, 64, 0
3, 40435, Control_c, 0, 64, 127
3, 40536, Note_on_c, 0, 55, 0
3, 40536, Note_on_c, 0, 48, 0
3, 40560, Note_on_c, 0, 48, 29
3, 40560, Note_on_c, 0, 55, 29
3, 40776, Note_on_c, 0, 55, 0
3, 40776, Note_on_c, 0, 48, 0
3, 40800, Note_on_c, 0, 48, 29
3, 40800, Note_on_c, 0, 55, 29
3, 41016, Note_on_c, 0, 55, 0
3, 41016, Note_on_c, 0, 48, 0
3, 41040, Note_on_c, 0, 48, 28
3, 41040, Note_on_c, 0, 55, 28
3, 41256, Note_on_c, 0, 55, 0
3, 41256, Note_on_c, 0, 48, 0
3, 41280, Note_on_c, 0, 48, 28
3, 41280, Note_on_c, 0, 58, 28
3, 41292, Control_c, 0, 64, 0
3, 41440, Control_c, 0, 64, 127
3, 41496, Note_on_c, 0, 58, 0
3, 41496, Note_on_c, 0, 48, 0
3, 41520, Note_on_c, 0, 48, 28
3, 41520, Note_on_c, 0, 58, 28
3, 41736, Note_on_c, 0, 58, 0
3, 41736, Note_on_c, 0, 48, 0
3, 41760, Note_on_c, 0, 48, 19
3, 41760, Note_on_c, 0, 52, 23
3, 41760, Note_on_c, 0, 57, 23
3, 41774, Control_c, 0, 64, 0
3, 41875, Control_c, 0, 64, 127
3, 41976, Note_on_c, 0, 57, 0
3, 41976, Note_on_c, 0, 52, 0
3, 41976, Note_on_c, 0, 48, 0
3, 42000, Note_on_c, 0, 48, 19
3, 42000, Note_on_c, 0, 52, 23
3, 42000, Note_on_c, 0, 57, 23
3, 42216, Note_on_c, 0, 57, 0
3, 42216, Note_on_c, 0, 52, 0
3, 42216, Note_on_c, 0, 48, 0
3, 42240, Note_on_c, 0, 47, 24
3, 42240, Note_on_c, 0, 52, 29
3, 42240, Note_on_c, 0, 57, 29
3, 42249, Control_c, 0, 64, 0
3, 42377, Control_c, 0, 64, 127
3, 42456, Note_on_c, 0, 57, 0
3, 42456, Note_on_c, 0, 52, 0
3, 42456, Note_on_c, 0, 47, 0
3, 42480, Note_on_c, 0, 47, 22
3, 42480, Note_on_c, 0, 52, 27
3, 42480, Note_on_c, 0, 57, 27
3, 42696, Note_on_c, 0, 57, 0
3, 42696, Note_on_c, 0, 52, 0
3, 42696, Note_on_c, 0, 47, 0
3, 42720, Note_on_c, 0, 47, 22
3, 42720, Note_on_c, 0, 56, 27
3, 42724, Note_on_c, 0, 52, 27
3, 42728, Control_c, 0, 64, 0
3, 42835, Control_c, 0, 64, 127
3, 42936, Note_on_c, 0, 56, 0
3, 42936, Note_on_c, 0, 47, 0
3, 42940, Note_on_c, 0, 52, 0
3, 42960, Note_on_c, 0, 47, 22
3, 42960, Note_on_c, 0, 52, 27
3, 42960, Note_on_c, 0, 56, 27
3, 43176, Note_on_c, 0, 56, 0
3, 43176, Note_on_c, 0, 52, 0
3, 43176, Note_on_c, 0, 47, 0
3, 43200, Note_on_c, 0, 47, 22
3, 43200, Note_on_c, 0, 52, 27
3, 43200, Note_on_c, 0, 55, 27
3, 43216, Control_c, 0, 64, 0
3, 43349, Control_c, 0, 64, 127
3, 43416, Note_on_c, 0, 55, 0
3, 43416, Note_on_c, 0, 52, 0
3, 43416, Note_on_c, 0, 47, 0
3, 43440, Note_on_c, 0, 47, 22
3, 43440, Note_on_c, 0, 52, 27
3, 43440, Note_on_c, 0, 55, 27
3, 43656, Note_on_c, 0, 55, 0
3, 43656, Note_on_c, 0, 52, 0
3, 43656, Note_on_c, 0, 47, 0
3, 43680, Note_on_c, 0, 47, 19
3, 43680, Note_on_c, 0, 52, 23
3, 43680, Note_on_c, 0, 55, 23
3, 43690, Control_c, 0, 64, 0
3, 43829, Control_c, 0, 64, 127
3, 43896, Note_on_c, 0, 55, 0
3, 43896, Note_on_c, 0, 52, 0
3, 43896, Note_on_c, 0, 47, 0
3, 43920, Note_on_c, 0, 47, 19
3, 43920, Note_on_c, 0, 52, 23
3, 43920, Note_on_c, 0, 55, 23
3, 44136, Note_on_c, 0, 55, 0
3, 44136, Note_on_c, 0, 52, 0
3, 44136, Note_on_c, 0, 47, 0
3, 44160, Note_on_c, 0, 46, 24
3, 44160, Note_on_c, 0, 48, 29
3, 44160, Note_on_c, 0, 55, 29
3, 44168, Control_c, 0, 64, 0
3, 44601, Control_c, 0, 64, 127
3, 45120, Note_on_c, 0, 55, 0
3, 45120, Note_on_c, 0, 48, 0
3, 45120, Note_on_c, 0, 46, 0
3, 45122, Control_c, 0, 64, 0
3, 46080, Note_on_c, 0, 35, 19
3, 46080, Note_on_c, 0, 47, 23
3, 46374, Control_c, 0, 64, 127
3, 47040, Note_on_c, 0, 47, 0
3, 47040, Note_on_c, 0, 35, 0
3, 47040, Note_on_c, 0, 35, 19
3, 47040, Note_on_c, 0, 42, 23
3, 47040, Note_on_c, 0, 47, 23
3, 47053, Control_c, 0, 64, 0
3, 47413, Control_c, 0, 64, 127
3, 48000, Note_on_c, 0, 47, 0
3, 48000, Note_on_c, 0, 42, 0
3, 48000, Note_on_c, 0, 35, 0
3, 48000, Note_on_c, 0, 28, 19
3, 48000, Note_on_c, 0, 40, 23
3, 48009, Control_c, 0, 64, 0
3, 48374, Control_c, 0, 64, 127
3, 49920, Note_on_c, 0, 40, 0
3, 49920, Note_on_c, 0, 28, 0
3, 51173, Control_c, 0, 64, 0
3, 51173, End_track
4, 0, Start_track
4, 0, Title_t, "Chopin: Prelude No.4 in E Minor, Op. 28"
4, 0, End_track
5, 0, Start_track
5, 0, Title_t, "Copyright © 2002 by Bernd Krueger"
5, 0, End_track
6, 0, Start_track
6, 0, Title_t, "http://www.piano-midi.de"
6, 0, End_track
7, 0, Start_track
7, 0, Title_t, "Edition: 2014-02-20"
7, 0, End_track
8, 0, Start_track
8, 0, Title_t, "Spur 7"
8, 0, Control_c, 0, 7, 127
8, 0, Control_c, 0, 10, 64
8, 0, End_track
9, 0, Start_track
9, 0, Title_t, "Spur 8"
9, 0, Control_c, 0, 7, 127
9, 0, Control_c, 0, 10, 64
9, 0, End_track
0, 0, End_of_file
