0, 0, Header, 1, 17, 480
1, 0, Start_track
1, 0, Title_t, "Clementi: Sonatine Opus 36 Nr. 4, 1. Satz"
1, 0, Copyright_t, "Copyright © 2011 by Bernd Krueger"
1, 0, Text_t, "Muzio Clementi"
1, 0, Text_t, "Con spirito"
1, 0, Text_t, "Erstellt: 29.9.2011\012"
1, 0, Text_t, "Dauer: 3:19 Minuten\012"
1, 0, Time_signature, 3, 2, 24, 8
1, 0, Key_signature, -1, "major"
1, 0, Tempo, 465116
1, 0, Marker_t, "Teil 1"
1, 1200, Tempo, 495868
1, 1440, Tempo, 463320
1, 2400, Tempo, 452830
1, 2880, Tempo, 458015
1, 4080, Tempo, 502092
1, 4320, Tempo, 463320
1, 5520, Tempo, 512821
1, 5760, Tempo, 463320
1, 6960, Tempo, 480000
1, 7200, Tempo, 461538
1, 8640, Tempo, 452830
1, 9600, Tempo, 468750
1, 9840, Tempo, 489796
1, 10080, Tempo, 461538
1, 11040, Tempo, 474308
1, 11280, Tempo, 500000
1, 11520, Tempo, 459770
1, 12480, Tempo, 451128
1, 12840, Tempo, 515021
1, 12960, Tempo, 459770
1, 14160, Tempo, 483871
1, 14400, Tempo, 459770
1, 15600, Tempo, 504202
1, 15840, Tempo, 461538
1, 17040, Tempo, 530973
1, 17280, Tempo, 459770
1, 18000, Tempo, 444444
1, 18240, Tempo, 461538
1, 18480, Tempo, 483871
1, 18720, Tempo, 461538
1, 19440, Tempo, 447761
1, 19680, Tempo, 461538
1, 19920, Tempo, 495868
1, 20160, Tempo, 446097
1, 20280, Tempo, 451128
1, 20520, Tempo, 454545
1, 20640, Tempo, 461538
1, 21120, Tempo, 465116
1, 21480, Tempo, 487805
1, 21600, Tempo, 456274
1, 21720, Tempo, 463320
1, 22080, Tempo, 461538
1, 22560, Tempo, 452830
1, 22680, Tempo, 463320
1, 22920, Tempo, 506329
1, 23040, Tempo, 493827
1, 23160, Tempo, 449438
1, 23520, Tempo, 489796
1, 23640, Tempo, 452830
1, 24000, Tempo, 485830
1, 24120, Tempo, 456274
1, 24360, Tempo, 538117
1, 24480, Tempo, 458015
1, 25200, Tempo, 474308
1, 25680, Tempo, 504202
1, 25920, Tempo, 456274
1, 26640, Tempo, 476190
1, 27120, Tempo, 497925
1, 27360, Tempo, 452830
1, 28200, Tempo, 474308
1, 28560, Tempo, 500000
1, 28800, Tempo, 459770
1, 29520, Tempo, 472441
1, 30000, Tempo, 510638
1, 30240, Tempo, 461538
1, 31680, Tempo, 461538
1, 31920, Tempo, 437956
1, 32160, Tempo, 463320
1, 32640, Tempo, 480000
1, 32880, Tempo, 512821
1, 33120, Tempo, 463320
1, 33840, Tempo, 472441
1, 34320, Tempo, 512821
1, 34560, Tempo, 461538
1, 34800, Tempo, 444444
1, 35040, Tempo, 465116
1, 35280, Tempo, 480000
1, 35760, Tempo, 508475
1, 36000, Tempo, 463320
1, 36240, Tempo, 449438
1, 36480, Tempo, 461538
1, 36720, Tempo, 478088
1, 37200, Tempo, 502092
1, 37440, Tempo, 461538
1, 37800, Tempo, 504202
1, 37920, Tempo, 465116
1, 38400, Tempo, 480000
1, 38880, Tempo, 465116
1, 39600, Tempo, 472441
1, 40080, Tempo, 502092
1, 40320, Tempo, 463320
1, 41040, Tempo, 476190
1, 41280, Tempo, 485830
1, 41520, Tempo, 521739
1, 41760, Tempo, 489796
1, 43200, Tempo, 465116
1, 43200, Marker_t, "Teil 1 Wiederholung"
1, 44400, Tempo, 495868
1, 44640, Tempo, 463320
1, 45600, Tempo, 452830
1, 46080, Tempo, 458015
1, 47280, Tempo, 502092
1, 47520, Tempo, 463320
1, 48720, Tempo, 533333
1, 48960, Tempo, 463320
1, 50160, Tempo, 480000
1, 50400, Tempo, 461538
1, 51840, Tempo, 452830
1, 52800, Tempo, 468750
1, 53040, Tempo, 489796
1, 53280, Tempo, 461538
1, 54240, Tempo, 480000
1, 54480, Tempo, 512821
1, 54720, Tempo, 459770
1, 55680, Tempo, 444444
1, 56040, Tempo, 515021
1, 56160, Tempo, 459770
1, 57120, Tempo, 447761
1, 57360, Tempo, 483871
1, 57600, Tempo, 459770
1, 58800, Tempo, 504202
1, 59040, Tempo, 461538
1, 60240, Tempo, 530973
1, 60480, Tempo, 459770
1, 61200, Tempo, 439560
1, 61440, Tempo, 461538
1, 61680, Tempo, 483871
1, 61920, Tempo, 461538
1, 62640, Tempo, 447761
1, 62880, Tempo, 461538
1, 63120, Tempo, 478088
1, 63360, Tempo, 446097
1, 63480, Tempo, 451128
1, 63600, Tempo, 446097
1, 63720, Tempo, 454545
1, 63840, Tempo, 461538
1, 64320, Tempo, 465116
1, 64680, Tempo, 487805
1, 64800, Tempo, 456274
1, 64920, Tempo, 463320
1, 65280, Tempo, 461538
1, 65760, Tempo, 452830
1, 65880, Tempo, 463320
1, 66120, Tempo, 506329
1, 66240, Tempo, 493827
1, 66360, Tempo, 449438
1, 66720, Tempo, 489796
1, 66840, Tempo, 452830
1, 67200, Tempo, 485830
1, 67320, Tempo, 456274
1, 67560, Tempo, 588235
1, 67680, Tempo, 458015
1, 68400, Tempo, 481928
1, 68880, Tempo, 515021
1, 69000, Tempo, 512821
1, 69120, Tempo, 456274
1, 69840, Tempo, 476190
1, 70320, Tempo, 497925
1, 70560, Tempo, 452830
1, 71400, Tempo, 480000
1, 71760, Tempo, 508475
1, 72000, Tempo, 459770
1, 72720, Tempo, 472441
1, 73200, Tempo, 510638
1, 73440, Tempo, 461538
1, 74880, Tempo, 461538
1, 75120, Tempo, 437956
1, 75360, Tempo, 463320
1, 75840, Tempo, 480000
1, 76080, Tempo, 512821
1, 76320, Tempo, 463320
1, 77040, Tempo, 472441
1, 77520, Tempo, 512821
1, 77760, Tempo, 461538
1, 78000, Tempo, 444444
1, 78240, Tempo, 465116
1, 78480, Tempo, 480000
1, 78960, Tempo, 508475
1, 79200, Tempo, 463320
1, 79440, Tempo, 449438
1, 79680, Tempo, 461538
1, 79920, Tempo, 478088
1, 80400, Tempo, 502092
1, 80640, Tempo, 458015
1, 80760, Tempo, 452830
1, 81000, Tempo, 504202
1, 81120, Tempo, 465116
1, 81600, Tempo, 480000
1, 82080, Tempo, 465116
1, 82800, Tempo, 472441
1, 83280, Tempo, 489796
1, 83520, Tempo, 463320
1, 84240, Tempo, 476190
1, 84480, Tempo, 485830
1, 84720, Tempo, 521739
1, 84960, Tempo, 489796
1, 86400, Tempo, 459770
1, 86400, Marker_t, "Teil 2"
1, 86640, Tempo, 451128
1, 87120, Tempo, 444444
1, 87360, Tempo, 461538
1, 87600, Tempo, 483871
1, 87840, Tempo, 459770
1, 88080, Tempo, 451128
1, 88560, Tempo, 444444
1, 88800, Tempo, 461538
1, 89040, Tempo, 483871
1, 89280, Tempo, 459770
1, 89520, Tempo, 451128
1, 90000, Tempo, 444444
1, 90240, Tempo, 461538
1, 90480, Tempo, 483871
1, 90720, Tempo, 459770
1, 90960, Tempo, 451128
1, 91440, Tempo, 444444
1, 91680, Tempo, 446097
1, 91920, Tempo, 459770
1, 92160, Tempo, 459770
1, 92400, Tempo, 451128
1, 92880, Tempo, 444444
1, 93120, Tempo, 449438
1, 93360, Tempo, 480000
1, 93600, Tempo, 459770
1, 93840, Tempo, 451128
1, 94320, Tempo, 444444
1, 94440, Tempo, 470588
1, 94560, Tempo, 508475
1, 94680, Tempo, 444444
1, 94800, Tempo, 459770
1, 95040, Tempo, 459770
1, 95280, Tempo, 451128
1, 95760, Tempo, 444444
1, 96000, Tempo, 449438
1, 96240, Tempo, 481928
1, 96480, Tempo, 459770
1, 96720, Tempo, 451128
1, 96938, Tempo, 446097
1, 97053, Tempo, 444444
1, 97169, Tempo, 442804
1, 97265, Tempo, 441176
1, 97418, Tempo, 442804
1, 97457, Tempo, 444444
1, 97476, Tempo, 446097
1, 97495, Tempo, 447761
1, 97514, Tempo, 449438
1, 97533, Tempo, 451128
1, 97553, Tempo, 452830
1, 97572, Tempo, 454545
1, 97591, Tempo, 456274
1, 97610, Tempo, 458015
1, 97629, Tempo, 459770
1, 97649, Tempo, 461538
1, 97668, Tempo, 463320
1, 97706, Tempo, 465116
1, 97745, Tempo, 466926
1, 97783, Tempo, 468750
1, 97821, Tempo, 470588
1, 97860, Tempo, 472441
1, 97920, Tempo, 459770
1, 98160, Tempo, 451128
1, 98378, Tempo, 446097
1, 98493, Tempo, 444444
1, 98609, Tempo, 442804
1, 98705, Tempo, 441176
1, 98858, Tempo, 442804
1, 98897, Tempo, 444444
1, 98916, Tempo, 446097
1, 98935, Tempo, 447761
1, 98954, Tempo, 449438
1, 98973, Tempo, 451128
1, 98993, Tempo, 452830
1, 99012, Tempo, 454545
1, 99031, Tempo, 456274
1, 99050, Tempo, 458015
1, 99069, Tempo, 459770
1, 99089, Tempo, 461538
1, 99108, Tempo, 463320
1, 99146, Tempo, 465116
1, 99185, Tempo, 466926
1, 99223, Tempo, 468750
1, 99261, Tempo, 470588
1, 99285, Tempo, 459770
1, 99439, Tempo, 458015
1, 99593, Tempo, 456274
1, 99746, Tempo, 454545
1, 99900, Tempo, 452830
1, 100053, Tempo, 451128
1, 100111, Tempo, 452830
1, 100169, Tempo, 454545
1, 100207, Tempo, 456274
1, 100265, Tempo, 458015
1, 100284, Tempo, 461538
1, 100322, Tempo, 463320
1, 100341, Tempo, 465116
1, 100380, Tempo, 466926
1, 100399, Tempo, 468750
1, 100437, Tempo, 470588
1, 100457, Tempo, 472441
1, 100495, Tempo, 474308
1, 100514, Tempo, 476190
1, 100553, Tempo, 478088
1, 100572, Tempo, 480000
1, 100610, Tempo, 481928
1, 100629, Tempo, 483871
1, 100668, Tempo, 485830
1, 100687, Tempo, 487805
1, 100725, Tempo, 489796
1, 100745, Tempo, 491803
1, 100764, Tempo, 493827
1, 100783, Tempo, 470588
1, 100841, Tempo, 468750
1, 100898, Tempo, 466926
1, 100956, Tempo, 465116
1, 101013, Tempo, 463320
1, 101071, Tempo, 461538
1, 101129, Tempo, 459770
1, 101186, Tempo, 458015
1, 101225, Tempo, 456274
1, 101474, Tempo, 454545
1, 101760, Tempo, 483871
1, 102000, Tempo, 510638
1, 102223, Tempo, 550459
1, 102240, Tempo, 459770
1, 102480, Tempo, 451128
1, 102960, Tempo, 444444
1, 103200, Tempo, 449438
1, 103440, Tempo, 480000
1, 103680, Tempo, 463320
1, 103920, Tempo, 451128
1, 104400, Tempo, 444444
1, 104640, Tempo, 449438
1, 104880, Tempo, 452830
1, 105120, Tempo, 449438
1, 105360, Tempo, 451128
1, 105840, Tempo, 444444
1, 106080, Tempo, 449438
1, 106320, Tempo, 459770
1, 106560, Tempo, 449438
1, 106800, Tempo, 452830
1, 107040, Tempo, 437956
1, 107280, Tempo, 442804
1, 107520, Tempo, 433213
1, 107760, Tempo, 446097
1, 107880, Tempo, 472441
1, 108002, Tempo, 451128
1, 108098, Tempo, 452830
1, 108194, Tempo, 454545
1, 108290, Tempo, 456274
1, 108367, Tempo, 458015
1, 108463, Tempo, 459770
1, 108559, Tempo, 461538
1, 108655, Tempo, 463320
1, 108732, Tempo, 465116
1, 108828, Tempo, 466926
1, 108924, Tempo, 468750
1, 109001, Tempo, 470588
1, 109442, Tempo, 468750
1, 109519, Tempo, 470588
1, 109577, Tempo, 472441
1, 109634, Tempo, 474308
1, 109692, Tempo, 476190
1, 109749, Tempo, 478088
1, 109807, Tempo, 480000
1, 109865, Tempo, 481928
1, 109922, Tempo, 483871
1, 109961, Tempo, 485830
1, 109999, Tempo, 487805
1, 110037, Tempo, 489796
1, 110076, Tempo, 491803
1, 110114, Tempo, 493827
1, 110153, Tempo, 495868
1, 110172, Tempo, 497925
1, 110210, Tempo, 500000
1, 110249, Tempo, 502092
1, 110287, Tempo, 504202
1, 110325, Tempo, 506329
1, 110364, Tempo, 508475
1, 110383, Tempo, 510638
1, 110400, Tempo, 517241
1, 110640, Tempo, 547945
1, 110880, Tempo, 465116
1, 112080, Tempo, 495868
1, 112320, Tempo, 463320
1, 113280, Tempo, 452830
1, 113760, Tempo, 458015
1, 114960, Tempo, 502092
1, 115200, Tempo, 463320
1, 116400, Tempo, 512821
1, 116640, Tempo, 463320
1, 117840, Tempo, 480000
1, 118080, Tempo, 461538
1, 118800, Tempo, 447761
1, 119040, Tempo, 458015
1, 119520, Tempo, 452830
1, 119880, Tempo, 510638
1, 120000, Tempo, 449438
1, 120240, Tempo, 489796
1, 120480, Tempo, 474308
1, 120720, Tempo, 517241
1, 120960, Tempo, 452830
1, 121320, Tempo, 510638
1, 121440, Tempo, 449438
1, 121680, Tempo, 489796
1, 121920, Tempo, 474308
1, 122160, Tempo, 489796
1, 122400, Tempo, 463320
1, 122640, Tempo, 451128
1, 123240, Tempo, 478088
1, 123360, Tempo, 465116
1, 123600, Tempo, 485830
1, 123720, Tempo, 615385
1, 123840, Tempo, 497925
1, 124080, Tempo, 459770
1, 124680, Tempo, 478088
1, 124800, Tempo, 470588
1, 125040, Tempo, 491803
1, 125160, Tempo, 606061
1, 125280, Tempo, 493827
1, 125400, Tempo, 449438
1, 125760, Tempo, 489796
1, 125880, Tempo, 452830
1, 126240, Tempo, 485830
1, 126360, Tempo, 456274
1, 126600, Tempo, 538117
1, 126720, Tempo, 458015
1, 127440, Tempo, 474308
1, 127920, Tempo, 504202
1, 128160, Tempo, 456274
1, 128880, Tempo, 476190
1, 129360, Tempo, 497925
1, 129600, Tempo, 458015
1, 130320, Tempo, 474308
1, 130800, Tempo, 504202
1, 131040, Tempo, 456274
1, 131760, Tempo, 476190
1, 132240, Tempo, 497925
1, 132480, Tempo, 461538
1, 133920, Tempo, 458015
1, 134640, Tempo, 474308
1, 135120, Tempo, 504202
1, 135360, Tempo, 456274
1, 136080, Tempo, 476190
1, 136560, Tempo, 497925
1, 136800, Tempo, 458015
1, 137520, Tempo, 474308
1, 138000, Tempo, 504202
1, 138240, Tempo, 456274
1, 138960, Tempo, 476190
1, 139440, Tempo, 497925
1, 139680, Tempo, 461538
1, 140040, Tempo, 504202
1, 140160, Tempo, 465116
1, 140640, Tempo, 480000
1, 141120, Tempo, 465116
1, 141840, Tempo, 472441
1, 142320, Tempo, 502092
1, 142560, Tempo, 463320
1, 143280, Tempo, 476190
1, 143520, Tempo, 485830
1, 143760, Tempo, 521739
1, 144000, Tempo, 489796
1, 145440, Tempo, 459770
1, 145440, Marker_t, "Teil 2 Wiederholung"
1, 145680, Tempo, 451128
1, 145920, Tempo, 434783
1, 146160, Tempo, 444444
1, 146400, Tempo, 461538
1, 146640, Tempo, 483871
1, 146880, Tempo, 459770
1, 147120, Tempo, 451128
1, 147480, Tempo, 439560
1, 147600, Tempo, 444444
1, 147840, Tempo, 461538
1, 148080, Tempo, 483871
1, 148320, Tempo, 459770
1, 148560, Tempo, 451128
1, 148800, Tempo, 439560
1, 149040, Tempo, 444444
1, 149280, Tempo, 461538
1, 149520, Tempo, 483871
1, 149760, Tempo, 459770
1, 150000, Tempo, 451128
1, 150480, Tempo, 444444
1, 150720, Tempo, 446097
1, 150960, Tempo, 459770
1, 151200, Tempo, 459770
1, 151440, Tempo, 451128
1, 151920, Tempo, 444444
1, 152160, Tempo, 449438
1, 152400, Tempo, 493827
1, 152640, Tempo, 459770
1, 152880, Tempo, 451128
1, 153120, Tempo, 442804
1, 153360, Tempo, 444444
1, 153480, Tempo, 470588
1, 153600, Tempo, 508475
1, 153720, Tempo, 444444
1, 153840, Tempo, 459770
1, 154080, Tempo, 459770
1, 154320, Tempo, 451128
1, 154800, Tempo, 444444
1, 155040, Tempo, 449438
1, 155280, Tempo, 481928
1, 155520, Tempo, 459770
1, 155760, Tempo, 451128
1, 155978, Tempo, 446097
1, 156093, Tempo, 444444
1, 156209, Tempo, 442804
1, 156305, Tempo, 441176
1, 156458, Tempo, 442804
1, 156497, Tempo, 444444
1, 156516, Tempo, 446097
1, 156535, Tempo, 447761
1, 156554, Tempo, 449438
1, 156573, Tempo, 451128
1, 156593, Tempo, 452830
1, 156612, Tempo, 454545
1, 156631, Tempo, 456274
1, 156650, Tempo, 458015
1, 156669, Tempo, 459770
1, 156689, Tempo, 461538
1, 156708, Tempo, 463320
1, 156746, Tempo, 465116
1, 156785, Tempo, 466926
1, 156823, Tempo, 468750
1, 156861, Tempo, 470588
1, 156900, Tempo, 472441
1, 156960, Tempo, 459770
1, 157200, Tempo, 451128
1, 157418, Tempo, 446097
1, 157513, Tempo, 447761
1, 157633, Tempo, 446097
1, 157753, Tempo, 444444
1, 157873, Tempo, 442804
1, 157898, Tempo, 442804
1, 157937, Tempo, 444444
1, 157956, Tempo, 446097
1, 157975, Tempo, 447761
1, 157994, Tempo, 449438
1, 158013, Tempo, 451128
1, 158033, Tempo, 452830
1, 158052, Tempo, 454545
1, 158071, Tempo, 456274
1, 158090, Tempo, 458015
1, 158109, Tempo, 459770
1, 158129, Tempo, 461538
1, 158148, Tempo, 463320
1, 158186, Tempo, 465116
1, 158225, Tempo, 466926
1, 158263, Tempo, 468750
1, 158301, Tempo, 470588
1, 158325, Tempo, 459770
1, 158479, Tempo, 458015
1, 158633, Tempo, 456274
1, 158786, Tempo, 454545
1, 158940, Tempo, 452830
1, 159093, Tempo, 451128
1, 159151, Tempo, 452830
1, 159209, Tempo, 454545
1, 159247, Tempo, 456274
1, 159283, Tempo, 458015
1, 159343, Tempo, 459770
1, 159373, Tempo, 461538
1, 159403, Tempo, 463320
1, 159433, Tempo, 465116
1, 159463, Tempo, 466926
1, 159493, Tempo, 468750
1, 159523, Tempo, 470588
1, 159583, Tempo, 472441
1, 159613, Tempo, 474308
1, 159643, Tempo, 476190
1, 159673, Tempo, 478088
1, 159703, Tempo, 480000
1, 159733, Tempo, 481928
1, 159763, Tempo, 483871
1, 159765, Tempo, 489796
1, 159785, Tempo, 491803
1, 159804, Tempo, 493827
1, 159823, Tempo, 470588
1, 159881, Tempo, 468750
1, 159938, Tempo, 466926
1, 159996, Tempo, 465116
1, 160053, Tempo, 463320
1, 160111, Tempo, 461538
1, 160169, Tempo, 459770
1, 160226, Tempo, 458015
1, 160265, Tempo, 456274
1, 160514, Tempo, 454545
1, 160800, Tempo, 493827
1, 161040, Tempo, 524017
1, 161263, Tempo, 550459
1, 161280, Tempo, 459770
1, 161520, Tempo, 451128
1, 162000, Tempo, 444444
1, 162240, Tempo, 449438
1, 162480, Tempo, 480000
1, 162720, Tempo, 463320
1, 162960, Tempo, 451128
1, 163440, Tempo, 444444
1, 163680, Tempo, 449438
1, 163920, Tempo, 452830
1, 164160, Tempo, 449438
1, 164280, Tempo, 446097
1, 164400, Tempo, 451128
1, 164880, Tempo, 439560
1, 165120, Tempo, 449438
1, 165360, Tempo, 452830
1, 165600, Tempo, 447761
1, 165720, Tempo, 446097
1, 165840, Tempo, 452830
1, 166080, Tempo, 437956
1, 166320, Tempo, 442804
1, 166560, Tempo, 433213
1, 166800, Tempo, 446097
1, 166920, Tempo, 472441
1, 167042, Tempo, 451128
1, 167138, Tempo, 452830
1, 167234, Tempo, 454545
1, 167330, Tempo, 456274
1, 167407, Tempo, 458015
1, 167503, Tempo, 459770
1, 167599, Tempo, 461538
1, 167695, Tempo, 463320
1, 167772, Tempo, 465116
1, 167868, Tempo, 466926
1, 167964, Tempo, 468750
1, 168041, Tempo, 470588
1, 168482, Tempo, 468750
1, 168493, Tempo, 472441
1, 168553, Tempo, 474308
1, 168583, Tempo, 476190
1, 168613, Tempo, 478088
1, 168643, Tempo, 480000
1, 168673, Tempo, 481928
1, 168733, Tempo, 483871
1, 168763, Tempo, 485830
1, 168793, Tempo, 487805
1, 168823, Tempo, 489796
1, 168853, Tempo, 491803
1, 168913, Tempo, 493827
1, 168943, Tempo, 495868
1, 168973, Tempo, 497925
1, 169003, Tempo, 500000
1, 169033, Tempo, 502092
1, 169039, Tempo, 487805
1, 169063, Tempo, 500000
1, 169123, Tempo, 502092
1, 169153, Tempo, 504202
1, 169183, Tempo, 506329
1, 169213, Tempo, 508475
1, 169243, Tempo, 510638
1, 169273, Tempo, 512821
1, 169333, Tempo, 515021
1, 169363, Tempo, 517241
1, 169393, Tempo, 519481
1, 169423, Tempo, 521739
1, 169453, Tempo, 524017
1, 169483, Tempo, 526316
1, 169680, Tempo, 558140
1, 169920, Tempo, 465116
1, 171120, Tempo, 495868
1, 171360, Tempo, 463320
1, 172320, Tempo, 452830
1, 172800, Tempo, 458015
1, 174000, Tempo, 502092
1, 174240, Tempo, 463320
1, 175440, Tempo, 512821
1, 175680, Tempo, 463320
1, 176520, Tempo, 447761
1, 176760, Tempo, 463320
1, 176880, Tempo, 480000
1, 177120, Tempo, 461538
1, 177840, Tempo, 447761
1, 178080, Tempo, 458015
1, 178560, Tempo, 452830
1, 178680, Tempo, 449438
1, 178920, Tempo, 510638
1, 179040, Tempo, 449438
1, 179160, Tempo, 444444
1, 179280, Tempo, 489796
1, 179520, Tempo, 474308
1, 179760, Tempo, 517241
1, 180000, Tempo, 449438
1, 180360, Tempo, 510638
1, 180480, Tempo, 442804
1, 180720, Tempo, 489796
1, 180960, Tempo, 474308
1, 181200, Tempo, 489796
1, 181440, Tempo, 463320
1, 181680, Tempo, 451128
1, 182280, Tempo, 478088
1, 182400, Tempo, 465116
1, 182640, Tempo, 485830
1, 182760, Tempo, 585366
1, 182880, Tempo, 497925
1, 183120, Tempo, 459770
1, 183720, Tempo, 478088
1, 183840, Tempo, 470588
1, 184080, Tempo, 491803
1, 184200, Tempo, 621762
1, 184320, Tempo, 493827
1, 184440, Tempo, 449438
1, 184800, Tempo, 489796
1, 184920, Tempo, 441176
1, 185280, Tempo, 504202
1, 185400, Tempo, 456274
1, 185640, Tempo, 538117
1, 185760, Tempo, 458015
1, 186480, Tempo, 474308
1, 186960, Tempo, 504202
1, 187200, Tempo, 456274
1, 187920, Tempo, 476190
1, 188400, Tempo, 497925
1, 188640, Tempo, 481928
1, 188880, Tempo, 456274
1, 189360, Tempo, 474308
1, 189840, Tempo, 504202
1, 190080, Tempo, 456274
1, 190800, Tempo, 476190
1, 191280, Tempo, 497925
1, 191520, Tempo, 461538
1, 192960, Tempo, 458015
1, 193680, Tempo, 474308
1, 194160, Tempo, 504202
1, 194400, Tempo, 456274
1, 195120, Tempo, 476190
1, 195600, Tempo, 497925
1, 195840, Tempo, 483871
1, 196080, Tempo, 451128
1, 196200, Tempo, 458015
1, 196320, Tempo, 459770
1, 196560, Tempo, 474308
1, 197040, Tempo, 504202
1, 197280, Tempo, 456274
1, 198000, Tempo, 476190
1, 198480, Tempo, 497925
1, 198720, Tempo, 461538
1, 199080, Tempo, 504202
1, 199200, Tempo, 465116
1, 199680, Tempo, 480000
1, 200160, Tempo, 465116
1, 200880, Tempo, 481928
1, 201360, Tempo, 519481
1, 201600, Tempo, 470588
1, 202320, Tempo, 491803
1, 202560, Tempo, 512821
1, 202800, Tempo, 547945
1, 203040, Tempo, 524017
1, 203040, End_track
2, 0, Start_track
2, 0, Title_t, "Piano right"
2, 0, Program_c, 0, 0
2, 0, Note_on_c, 0, 65, 70
2, 960, Note_on_c, 0, 65, 0
2, 960, Note_on_c, 0, 69, 66
2, 1320, Note_on_c, 0, 69, 0
2, 1320, Note_on_c, 0, 65, 56
2, 1440, Note_on_c, 0, 65, 0
2, 1440, Note_on_c, 0, 72, 69
2, 2400, Note_on_c, 0, 72, 0
2, 2400, Note_on_c, 0, 70, 70
2, 2520, Note_on_c, 0, 70, 0
2, 2520, Note_on_c, 0, 69, 66
2, 2640, Note_on_c, 0, 69, 0
2, 2640, Note_on_c, 0, 67, 64
2, 2760, Note_on_c, 0, 67, 0
2, 2760, Note_on_c, 0, 65, 61
2, 2880, Note_on_c, 0, 65, 0
2, 2880, Note_on_c, 0, 64, 69
2, 3120, Note_on_c, 0, 64, 0
2, 3120, Note_on_c, 0, 67, 66
2, 3360, Note_on_c, 0, 67, 0
2, 3360, Note_on_c, 0, 70, 70
2, 3600, Note_on_c, 0, 70, 0
2, 3600, Note_on_c, 0, 74, 66
2, 3840, Note_on_c, 0, 74, 0
2, 3840, Note_on_c, 0, 72, 70
2, 4080, Note_on_c, 0, 72, 0
2, 4080, Note_on_c, 0, 70, 66
2, 4320, Note_on_c, 0, 70, 0
2, 4320, Note_on_c, 0, 64, 51
2, 4320, Note_on_c, 0, 68, 61
2, 4800, Note_on_c, 0, 68, 0
2, 4800, Note_on_c, 0, 64, 0
2, 4800, Note_on_c, 0, 65, 53
2, 4800, Note_on_c, 0, 69, 63
2, 5280, Note_on_c, 0, 69, 0
2, 5280, Note_on_c, 0, 65, 0
2, 5760, Note_on_c, 0, 74, 59
2, 5760, Note_on_c, 0, 77, 70
2, 6480, Note_on_c, 0, 77, 0
2, 6480, Note_on_c, 0, 79, 65
2, 6600, Note_on_c, 0, 79, 0
2, 6600, Note_on_c, 0, 77, 61
2, 6720, Note_on_c, 0, 77, 0
2, 6720, Note_on_c, 0, 74, 0
2, 6720, Note_on_c, 0, 76, 65
2, 6720, Note_on_c, 0, 72, 55
2, 6960, Note_on_c, 0, 72, 0
2, 6960, Note_on_c, 0, 76, 0
2, 6960, Note_on_c, 0, 74, 63
2, 6960, Note_on_c, 0, 70, 53
2, 7200, Note_on_c, 0, 70, 0
2, 7200, Note_on_c, 0, 74, 0
2, 7200, Note_on_c, 0, 69, 59
2, 7200, Note_on_c, 0, 72, 70
2, 7920, Note_on_c, 0, 72, 0
2, 7920, Note_on_c, 0, 74, 65
2, 8040, Note_on_c, 0, 74, 0
2, 8040, Note_on_c, 0, 72, 61
2, 8160, Note_on_c, 0, 72, 0
2, 8160, Note_on_c, 0, 69, 0
2, 8160, Note_on_c, 0, 70, 65
2, 8160, Note_on_c, 0, 67, 55
2, 8400, Note_on_c, 0, 67, 0
2, 8400, Note_on_c, 0, 70, 0
2, 8400, Note_on_c, 0, 69, 63
2, 8400, Note_on_c, 0, 65, 53
2, 8640, Note_on_c, 0, 65, 0
2, 8640, Note_on_c, 0, 69, 0
2, 8640, Note_on_c, 0, 67, 58
2, 8760, Note_on_c, 0, 67, 0
2, 8760, Note_on_c, 0, 69, 50
2, 8880, Note_on_c, 0, 69, 0
2, 8880, Note_on_c, 0, 67, 58
2, 9000, Note_on_c, 0, 67, 0
2, 9000, Note_on_c, 0, 66, 53
2, 9120, Note_on_c, 0, 66, 0
2, 9120, Note_on_c, 0, 67, 58
2, 9240, Note_on_c, 0, 67, 0
2, 9240, Note_on_c, 0, 69, 54
2, 9360, Note_on_c, 0, 69, 0
2, 9360, Note_on_c, 0, 70, 58
2, 9480, Note_on_c, 0, 70, 0
2, 9480, Note_on_c, 0, 72, 53
2, 9600, Note_on_c, 0, 72, 0
2, 9600, Note_on_c, 0, 74, 62
2, 9840, Note_on_c, 0, 74, 0
2, 9840, Note_on_c, 0, 65, 57
2, 10080, Note_on_c, 0, 65, 0
2, 10080, Note_on_c, 0, 65, 59
2, 10320, Note_on_c, 0, 65, 0
2, 10320, Note_on_c, 0, 64, 53
2, 10560, Note_on_c, 0, 64, 0
2, 10560, Note_on_c, 0, 62, 51
2, 10620, Note_on_c, 0, 62, 0
2, 10620, Note_on_c, 0, 64, 46
2, 10680, Note_on_c, 0, 64, 0
2, 10680, Note_on_c, 0, 62, 57
2, 10800, Note_on_c, 0, 62, 0
2, 10800, Note_on_c, 0, 60, 53
2, 11040, Note_on_c, 0, 60, 0
2, 11040, Note_on_c, 0, 62, 57
2, 11280, Note_on_c, 0, 62, 0
2, 11280, Note_on_c, 0, 64, 61
2, 11520, Note_on_c, 0, 64, 0
2, 11520, Note_on_c, 0, 57, 63
2, 11520, Note_on_c, 0, 65, 70
2, 12480, Note_on_c, 0, 65, 0
2, 12480, Note_on_c, 0, 57, 0
2, 12480, Note_on_c, 0, 69, 66
2, 12600, Note_on_c, 0, 69, 0
2, 12600, Note_on_c, 0, 65, 56
2, 12720, Note_on_c, 0, 65, 0
2, 12720, Note_on_c, 0, 69, 60
2, 12840, Note_on_c, 0, 69, 0
2, 12840, Note_on_c, 0, 65, 66
2, 12960, Note_on_c, 0, 65, 0
2, 12960, Note_on_c, 0, 72, 69
2, 13920, Note_on_c, 0, 72, 0
2, 13920, Note_on_c, 0, 70, 70
2, 14040, Note_on_c, 0, 70, 0
2, 14040, Note_on_c, 0, 69, 66
2, 14160, Note_on_c, 0, 69, 0
2, 14160, Note_on_c, 0, 67, 64
2, 14280, Note_on_c, 0, 67, 0
2, 14280, Note_on_c, 0, 65, 61
2, 14400, Note_on_c, 0, 65, 0
2, 14400, Note_on_c, 0, 64, 69
2, 14640, Note_on_c, 0, 64, 0
2, 14640, Note_on_c, 0, 67, 66
2, 14880, Note_on_c, 0, 67, 0
2, 14880, Note_on_c, 0, 70, 70
2, 15120, Note_on_c, 0, 70, 0
2, 15120, Note_on_c, 0, 74, 66
2, 15360, Note_on_c, 0, 74, 0
2, 15360, Note_on_c, 0, 72, 70
2, 15600, Note_on_c, 0, 72, 0
2, 15600, Note_on_c, 0, 70, 66
2, 15840, Note_on_c, 0, 70, 0
2, 15840, Note_on_c, 0, 64, 51
2, 15840, Note_on_c, 0, 68, 61
2, 16320, Note_on_c, 0, 68, 0
2, 16320, Note_on_c, 0, 64, 0
2, 16320, Note_on_c, 0, 65, 53
2, 16320, Note_on_c, 0, 69, 63
2, 16800, Note_on_c, 0, 69, 0
2, 16800, Note_on_c, 0, 65, 0
2, 17280, Note_on_c, 0, 77, 46
2, 18000, Note_on_c, 0, 77, 0
2, 18000, Note_on_c, 0, 81, 42
2, 18120, Note_on_c, 0, 81, 0
2, 18120, Note_on_c, 0, 77, 39
2, 18240, Note_on_c, 0, 77, 0
2, 18240, Note_on_c, 0, 76, 42
2, 18480, Note_on_c, 0, 76, 0
2, 18480, Note_on_c, 0, 79, 40
2, 18720, Note_on_c, 0, 79, 0
2, 18720, Note_on_c, 0, 71, 46
2, 19440, Note_on_c, 0, 71, 0
2, 19440, Note_on_c, 0, 74, 42
2, 19560, Note_on_c, 0, 74, 0
2, 19560, Note_on_c, 0, 71, 39
2, 19680, Note_on_c, 0, 71, 0
2, 19680, Note_on_c, 0, 72, 42
2, 19920, Note_on_c, 0, 72, 0
2, 19920, Note_on_c, 0, 67, 40
2, 20160, Note_on_c, 0, 67, 0
2, 20160, Note_on_c, 0, 77, 46
2, 20280, Note_on_c, 0, 77, 0
2, 20280, Note_on_c, 0, 79, 39
2, 20400, Note_on_c, 0, 79, 0
2, 20400, Note_on_c, 0, 77, 47
2, 20520, Note_on_c, 0, 77, 0
2, 20520, Note_on_c, 0, 76, 42
2, 20640, Note_on_c, 0, 76, 0
2, 20640, Note_on_c, 0, 77, 46
2, 20760, Note_on_c, 0, 77, 0
2, 20760, Note_on_c, 0, 81, 40
2, 20880, Note_on_c, 0, 81, 0
2, 20880, Note_on_c, 0, 79, 42
2, 21000, Note_on_c, 0, 79, 0
2, 21000, Note_on_c, 0, 77, 39
2, 21120, Note_on_c, 0, 77, 0
2, 21120, Note_on_c, 0, 76, 43
2, 21240, Note_on_c, 0, 76, 0
2, 21240, Note_on_c, 0, 79, 40
2, 21360, Note_on_c, 0, 79, 0
2, 21360, Note_on_c, 0, 76, 42
2, 21480, Note_on_c, 0, 76, 0
2, 21480, Note_on_c, 0, 72, 40
2, 21600, Note_on_c, 0, 72, 0
2, 21600, Note_on_c, 0, 71, 46
2, 21720, Note_on_c, 0, 71, 0
2, 21720, Note_on_c, 0, 72, 39
2, 21840, Note_on_c, 0, 72, 0
2, 21840, Note_on_c, 0, 71, 47
2, 21960, Note_on_c, 0, 71, 0
2, 21960, Note_on_c, 0, 69, 42
2, 22080, Note_on_c, 0, 69, 0
2, 22080, Note_on_c, 0, 71, 46
2, 22200, Note_on_c, 0, 71, 0
2, 22200, Note_on_c, 0, 74, 40
2, 22320, Note_on_c, 0, 74, 0
2, 22320, Note_on_c, 0, 72, 42
2, 22440, Note_on_c, 0, 72, 0
2, 22440, Note_on_c, 0, 71, 39
2, 22560, Note_on_c, 0, 71, 0
2, 22560, Note_on_c, 0, 72, 43
2, 22680, Note_on_c, 0, 72, 0
2, 22680, Note_on_c, 0, 76, 40
2, 22800, Note_on_c, 0, 76, 0
2, 22800, Note_on_c, 0, 79, 42
2, 22920, Note_on_c, 0, 79, 0
2, 22920, Note_on_c, 0, 84, 40
2, 23040, Note_on_c, 0, 84, 0
2, 23160, Note_on_c, 0, 81, 34
2, 23280, Note_on_c, 0, 81, 0
2, 23280, Note_on_c, 0, 77, 39
2, 23400, Note_on_c, 0, 77, 0
2, 23400, Note_on_c, 0, 74, 34
2, 23520, Note_on_c, 0, 74, 0
2, 23640, Note_on_c, 0, 79, 35
2, 23760, Note_on_c, 0, 79, 0
2, 23760, Note_on_c, 0, 76, 39
2, 23880, Note_on_c, 0, 76, 0
2, 23880, Note_on_c, 0, 72, 35
2, 24000, Note_on_c, 0, 72, 0
2, 24120, Note_on_c, 0, 77, 33
2, 24240, Note_on_c, 0, 77, 0
2, 24240, Note_on_c, 0, 74, 39
2, 24360, Note_on_c, 0, 74, 0
2, 24360, Note_on_c, 0, 71, 34
2, 24480, Note_on_c, 0, 71, 0
2, 24720, Note_on_c, 0, 72, 39
2, 24840, Note_on_c, 0, 72, 0
2, 24840, Note_on_c, 0, 74, 44
2, 24960, Note_on_c, 0, 74, 0
2, 24960, Note_on_c, 0, 76, 45
2, 25050, Note_on_c, 0, 76, 0
2, 25200, Note_on_c, 0, 72, 49
2, 25200, Note_on_c, 0, 76, 40
2, 25290, Note_on_c, 0, 76, 0
2, 25290, Note_on_c, 0, 72, 0
2, 25440, Note_on_c, 0, 72, 53
2, 25440, Note_on_c, 0, 76, 40
2, 25530, Note_on_c, 0, 76, 0
2, 25530, Note_on_c, 0, 72, 0
2, 25680, Note_on_c, 0, 72, 57
2, 25680, Note_on_c, 0, 76, 40
2, 25770, Note_on_c, 0, 76, 0
2, 25770, Note_on_c, 0, 72, 0
2, 25920, Note_on_c, 0, 79, 65
2, 25920, Note_on_c, 0, 76, 55
2, 26400, Note_on_c, 0, 76, 0
2, 26400, Note_on_c, 0, 79, 0
2, 26400, Note_on_c, 0, 77, 59
2, 26400, Note_on_c, 0, 74, 50
2, 27360, Note_on_c, 0, 74, 0
2, 27360, Note_on_c, 0, 77, 0
2, 27600, Note_on_c, 0, 72, 39
2, 27720, Note_on_c, 0, 72, 0
2, 27720, Note_on_c, 0, 74, 44
2, 27840, Note_on_c, 0, 74, 0
2, 27840, Note_on_c, 0, 76, 45
2, 27930, Note_on_c, 0, 76, 0
2, 28080, Note_on_c, 0, 76, 49
2, 28080, Note_on_c, 0, 72, 40
2, 28170, Note_on_c, 0, 72, 0
2, 28170, Note_on_c, 0, 76, 0
2, 28320, Note_on_c, 0, 76, 53
2, 28320, Note_on_c, 0, 72, 40
2, 28410, Note_on_c, 0, 72, 0
2, 28410, Note_on_c, 0, 76, 0
2, 28560, Note_on_c, 0, 76, 57
2, 28560, Note_on_c, 0, 72, 40
2, 28650, Note_on_c, 0, 72, 0
2, 28650, Note_on_c, 0, 76, 0
2, 28800, Note_on_c, 0, 79, 65
2, 28800, Note_on_c, 0, 76, 55
2, 29280, Note_on_c, 0, 76, 0
2, 29280, Note_on_c, 0, 79, 0
2, 29280, Note_on_c, 0, 77, 59
2, 29280, Note_on_c, 0, 74, 50
2, 30240, Note_on_c, 0, 74, 0
2, 30240, Note_on_c, 0, 77, 0
2, 30240, Note_on_c, 0, 72, 50
2, 30240, Note_on_c, 0, 76, 59
2, 30600, Note_on_c, 0, 76, 0
2, 30600, Note_on_c, 0, 72, 0
2, 30600, Note_on_c, 0, 77, 47
2, 30600, Note_on_c, 0, 74, 39
2, 30720, Note_on_c, 0, 74, 0
2, 30720, Note_on_c, 0, 77, 0
2, 30720, Note_on_c, 0, 76, 56
2, 30720, Note_on_c, 0, 72, 47
2, 31200, Note_on_c, 0, 72, 0
2, 31200, Note_on_c, 0, 76, 0
2, 31200, Note_on_c, 0, 74, 47
2, 31200, Note_on_c, 0, 71, 39
2, 31680, Note_on_c, 0, 71, 0
2, 31680, Note_on_c, 0, 74, 0
2, 31920, Note_on_c, 0, 72, 35
2, 32040, Note_on_c, 0, 72, 0
2, 32040, Note_on_c, 0, 67, 39
2, 32160, Note_on_c, 0, 67, 0
2, 32160, Note_on_c, 0, 64, 40
2, 32250, Note_on_c, 0, 64, 0
2, 32400, Note_on_c, 0, 64, 44
2, 32400, Note_on_c, 0, 60, 36
2, 32490, Note_on_c, 0, 60, 0
2, 32490, Note_on_c, 0, 64, 0
2, 32640, Note_on_c, 0, 64, 47
2, 32640, Note_on_c, 0, 60, 36
2, 32730, Note_on_c, 0, 60, 0
2, 32730, Note_on_c, 0, 64, 0
2, 32880, Note_on_c, 0, 64, 51
2, 32880, Note_on_c, 0, 60, 36
2, 32970, Note_on_c, 0, 60, 0
2, 32970, Note_on_c, 0, 64, 0
2, 33120, Note_on_c, 0, 67, 58
2, 33120, Note_on_c, 0, 64, 49
2, 33600, Note_on_c, 0, 64, 0
2, 33600, Note_on_c, 0, 67, 0
2, 33600, Note_on_c, 0, 65, 53
2, 33600, Note_on_c, 0, 62, 45
2, 34560, Note_on_c, 0, 62, 0
2, 34560, Note_on_c, 0, 65, 0
2, 34800, Note_on_c, 0, 72, 35
2, 34920, Note_on_c, 0, 72, 0
2, 34920, Note_on_c, 0, 67, 39
2, 35040, Note_on_c, 0, 67, 0
2, 35040, Note_on_c, 0, 64, 40
2, 35130, Note_on_c, 0, 64, 0
2, 35280, Note_on_c, 0, 64, 44
2, 35280, Note_on_c, 0, 60, 36
2, 35370, Note_on_c, 0, 60, 0
2, 35370, Note_on_c, 0, 64, 0
2, 35520, Note_on_c, 0, 64, 47
2, 35520, Note_on_c, 0, 60, 36
2, 35610, Note_on_c, 0, 60, 0
2, 35610, Note_on_c, 0, 64, 0
2, 35760, Note_on_c, 0, 64, 51
2, 35760, Note_on_c, 0, 60, 36
2, 35850, Note_on_c, 0, 60, 0
2, 35850, Note_on_c, 0, 64, 0
2, 36000, Note_on_c, 0, 67, 58
2, 36000, Note_on_c, 0, 64, 49
2, 36480, Note_on_c, 0, 64, 0
2, 36480, Note_on_c, 0, 67, 0
2, 36480, Note_on_c, 0, 65, 45
2, 36480, Note_on_c, 0, 62, 53
2, 37440, Note_on_c, 0, 62, 0
2, 37440, Note_on_c, 0, 65, 0
2, 37440, Note_on_c, 0, 64, 58
2, 37560, Note_on_c, 0, 64, 0
2, 37560, Note_on_c, 0, 60, 51
2, 37680, Note_on_c, 0, 60, 0
2, 37680, Note_on_c, 0, 65, 58
2, 37800, Note_on_c, 0, 65, 0
2, 37800, Note_on_c, 0, 62, 49
2, 37920, Note_on_c, 0, 62, 0
2, 37920, Note_on_c, 0, 64, 56
2, 37920, Note_on_c, 0, 60, 47
2, 38010, Note_on_c, 0, 60, 0
2, 38010, Note_on_c, 0, 64, 0
2, 38160, Note_on_c, 0, 64, 51
2, 38160, Note_on_c, 0, 60, 43
2, 38250, Note_on_c, 0, 60, 0
2, 38250, Note_on_c, 0, 64, 0
2, 38400, Note_on_c, 0, 62, 62
2, 38400, Note_on_c, 0, 59, 52
2, 38490, Note_on_c, 0, 59, 0
2, 38490, Note_on_c, 0, 62, 0
2, 38640, Note_on_c, 0, 62, 55
2, 38640, Note_on_c, 0, 59, 46
2, 38730, Note_on_c, 0, 59, 0
2, 38730, Note_on_c, 0, 62, 0
2, 38880, Note_on_c, 0, 60, 70
2, 39600, Note_on_c, 0, 60, 0
2, 39600, Note_on_c, 0, 62, 54
2, 39720, Note_on_c, 0, 62, 0
2, 39720, Note_on_c, 0, 64, 56
2, 39840, Note_on_c, 0, 64, 0
2, 39840, Note_on_c, 0, 65, 57
2, 39960, Note_on_c, 0, 65, 0
2, 39960, Note_on_c, 0, 67, 60
2, 40080, Note_on_c, 0, 67, 0
2, 40080, Note_on_c, 0, 69, 61
2, 40200, Note_on_c, 0, 69, 0
2, 40200, Note_on_c, 0, 71, 68
2, 40320, Note_on_c, 0, 71, 0
2, 40320, Note_on_c, 0, 72, 77
2, 41040, Note_on_c, 0, 72, 0
2, 41040, Note_on_c, 0, 74, 59
2, 41160, Note_on_c, 0, 74, 0
2, 41160, Note_on_c, 0, 76, 61
2, 41280, Note_on_c, 0, 76, 0
2, 41280, Note_on_c, 0, 77, 62
2, 41400, Note_on_c, 0, 77, 0
2, 41400, Note_on_c, 0, 79, 66
2, 41520, Note_on_c, 0, 79, 0
2, 41520, Note_on_c, 0, 81, 67
2, 41640, Note_on_c, 0, 81, 0
2, 41640, Note_on_c, 0, 83, 74
2, 41760, Note_on_c, 0, 83, 0
2, 41760, Note_on_c, 0, 84, 85
2, 42000, Note_on_c, 0, 84, 0
2, 42240, Note_on_c, 0, 64, 58
2, 42240, Note_on_c, 0, 67, 58
2, 42240, Note_on_c, 0, 72, 69
2, 42480, Note_on_c, 0, 72, 0
2, 42480, Note_on_c, 0, 67, 0
2, 42480, Note_on_c, 0, 64, 0
2, 43200, Note_on_c, 0, 65, 70
2, 44160, Note_on_c, 0, 65, 0
2, 44160, Note_on_c, 0, 69, 66
2, 44520, Note_on_c, 0, 69, 0
2, 44520, Note_on_c, 0, 65, 56
2, 44640, Note_on_c, 0, 65, 0
2, 44640, Note_on_c, 0, 72, 69
2, 45600, Note_on_c, 0, 72, 0
2, 45600, Note_on_c, 0, 70, 70
2, 45720, Note_on_c, 0, 70, 0
2, 45720, Note_on_c, 0, 69, 66
2, 45840, Note_on_c, 0, 69, 0
2, 45840, Note_on_c, 0, 67, 64
2, 45960, Note_on_c, 0, 67, 0
2, 45960, Note_on_c, 0, 65, 61
2, 46080, Note_on_c, 0, 65, 0
2, 46080, Note_on_c, 0, 64, 69
2, 46320, Note_on_c, 0, 64, 0
2, 46320, Note_on_c, 0, 67, 66
2, 46560, Note_on_c, 0, 67, 0
2, 46560, Note_on_c, 0, 70, 70
2, 46800, Note_on_c, 0, 70, 0
2, 46800, Note_on_c, 0, 74, 66
2, 47040, Note_on_c, 0, 74, 0
2, 47040, Note_on_c, 0, 72, 70
2, 47280, Note_on_c, 0, 72, 0
2, 47280, Note_on_c, 0, 70, 66
2, 47520, Note_on_c, 0, 70, 0
2, 47520, Note_on_c, 0, 64, 51
2, 47520, Note_on_c, 0, 68, 61
2, 48000, Note_on_c, 0, 68, 0
2, 48000, Note_on_c, 0, 64, 0
2, 48000, Note_on_c, 0, 65, 53
2, 48000, Note_on_c, 0, 69, 63
2, 48480, Note_on_c, 0, 69, 0
2, 48480, Note_on_c, 0, 65, 0
2, 48960, Note_on_c, 0, 74, 59
2, 48960, Note_on_c, 0, 77, 70
2, 49680, Note_on_c, 0, 77, 0
2, 49680, Note_on_c, 0, 79, 65
2, 49800, Note_on_c, 0, 79, 0
2, 49800, Note_on_c, 0, 77, 61
2, 49920, Note_on_c, 0, 77, 0
2, 49920, Note_on_c, 0, 74, 0
2, 49920, Note_on_c, 0, 76, 65
2, 49920, Note_on_c, 0, 72, 55
2, 50160, Note_on_c, 0, 72, 0
2, 50160, Note_on_c, 0, 76, 0
2, 50160, Note_on_c, 0, 74, 63
2, 50160, Note_on_c, 0, 70, 53
2, 50400, Note_on_c, 0, 70, 0
2, 50400, Note_on_c, 0, 74, 0
2, 50400, Note_on_c, 0, 69, 59
2, 50400, Note_on_c, 0, 72, 70
2, 51120, Note_on_c, 0, 72, 0
2, 51120, Note_on_c, 0, 74, 65
2, 51240, Note_on_c, 0, 74, 0
2, 51240, Note_on_c, 0, 72, 61
2, 51360, Note_on_c, 0, 72, 0
2, 51360, Note_on_c, 0, 69, 0
2, 51360, Note_on_c, 0, 70, 65
2, 51360, Note_on_c, 0, 67, 55
2, 51600, Note_on_c, 0, 67, 0
2, 51600, Note_on_c, 0, 70, 0
2, 51600, Note_on_c, 0, 69, 63
2, 51600, Note_on_c, 0, 65, 53
2, 51840, Note_on_c, 0, 65, 0
2, 51840, Note_on_c, 0, 69, 0
2, 51840, Note_on_c, 0, 67, 58
2, 51960, Note_on_c, 0, 67, 0
2, 51960, Note_on_c, 0, 69, 50
2, 52080, Note_on_c, 0, 69, 0
2, 52080, Note_on_c, 0, 67, 58
2, 52200, Note_on_c, 0, 67, 0
2, 52200, Note_on_c, 0, 66, 53
2, 52320, Note_on_c, 0, 66, 0
2, 52320, Note_on_c, 0, 67, 58
2, 52440, Note_on_c, 0, 67, 0
2, 52440, Note_on_c, 0, 69, 54
2, 52560, Note_on_c, 0, 69, 0
2, 52560, Note_on_c, 0, 70, 58
2, 52680, Note_on_c, 0, 70, 0
2, 52680, Note_on_c, 0, 72, 53
2, 52800, Note_on_c, 0, 72, 0
2, 52800, Note_on_c, 0, 74, 62
2, 53040, Note_on_c, 0, 74, 0
2, 53040, Note_on_c, 0, 65, 57
2, 53280, Note_on_c, 0, 65, 0
2, 53280, Note_on_c, 0, 65, 59
2, 53520, Note_on_c, 0, 65, 0
2, 53520, Note_on_c, 0, 64, 53
2, 53760, Note_on_c, 0, 64, 0
2, 53760, Note_on_c, 0, 62, 51
2, 53820, Note_on_c, 0, 62, 0
2, 53820, Note_on_c, 0, 64, 46
2, 53880, Note_on_c, 0, 64, 0
2, 53880, Note_on_c, 0, 62, 57
2, 54000, Note_on_c, 0, 62, 0
2, 54000, Note_on_c, 0, 60, 53
2, 54240, Note_on_c, 0, 60, 0
2, 54240, Note_on_c, 0, 62, 57
2, 54480, Note_on_c, 0, 62, 0
2, 54480, Note_on_c, 0, 64, 61
2, 54720, Note_on_c, 0, 64, 0
2, 54720, Note_on_c, 0, 57, 63
2, 54720, Note_on_c, 0, 65, 70
2, 55680, Note_on_c, 0, 65, 0
2, 55680, Note_on_c, 0, 57, 0
2, 55680, Note_on_c, 0, 69, 66
2, 55800, Note_on_c, 0, 69, 0
2, 55800, Note_on_c, 0, 65, 56
2, 55920, Note_on_c, 0, 65, 0
2, 55920, Note_on_c, 0, 69, 60
2, 56040, Note_on_c, 0, 69, 0
2, 56040, Note_on_c, 0, 65, 66
2, 56160, Note_on_c, 0, 65, 0
2, 56160, Note_on_c, 0, 72, 69
2, 57120, Note_on_c, 0, 72, 0
2, 57120, Note_on_c, 0, 70, 70
2, 57240, Note_on_c, 0, 70, 0
2, 57240, Note_on_c, 0, 69, 66
2, 57360, Note_on_c, 0, 69, 0
2, 57360, Note_on_c, 0, 67, 64
2, 57480, Note_on_c, 0, 67, 0
2, 57480, Note_on_c, 0, 65, 61
2, 57600, Note_on_c, 0, 65, 0
2, 57600, Note_on_c, 0, 64, 69
2, 57840, Note_on_c, 0, 64, 0
2, 57840, Note_on_c, 0, 67, 66
2, 58080, Note_on_c, 0, 67, 0
2, 58080, Note_on_c, 0, 70, 70
2, 58320, Note_on_c, 0, 70, 0
2, 58320, Note_on_c, 0, 74, 66
2, 58560, Note_on_c, 0, 74, 0
2, 58560, Note_on_c, 0, 72, 70
2, 58800, Note_on_c, 0, 72, 0
2, 58800, Note_on_c, 0, 70, 66
2, 59040, Note_on_c, 0, 70, 0
2, 59040, Note_on_c, 0, 64, 51
2, 59040, Note_on_c, 0, 68, 61
2, 59520, Note_on_c, 0, 68, 0
2, 59520, Note_on_c, 0, 64, 0
2, 59520, Note_on_c, 0, 65, 53
2, 59520, Note_on_c, 0, 69, 63
2, 60000, Note_on_c, 0, 69, 0
2, 60000, Note_on_c, 0, 65, 0
2, 60480, Note_on_c, 0, 77, 46
2, 61200, Note_on_c, 0, 77, 0
2, 61200, Note_on_c, 0, 81, 42
2, 61320, Note_on_c, 0, 81, 0
2, 61320, Note_on_c, 0, 77, 39
2, 61440, Note_on_c, 0, 77, 0
2, 61440, Note_on_c, 0, 76, 42
2, 61680, Note_on_c, 0, 76, 0
2, 61680, Note_on_c, 0, 79, 40
2, 61920, Note_on_c, 0, 79, 0
2, 61920, Note_on_c, 0, 71, 46
2, 62640, Note_on_c, 0, 71, 0
2, 62640, Note_on_c, 0, 74, 42
2, 62760, Note_on_c, 0, 74, 0
2, 62760, Note_on_c, 0, 71, 39
2, 62880, Note_on_c, 0, 71, 0
2, 62880, Note_on_c, 0, 72, 42
2, 63120, Note_on_c, 0, 72, 0
2, 63120, Note_on_c, 0, 67, 40
2, 63360, Note_on_c, 0, 67, 0
2, 63360, Note_on_c, 0, 77, 46
2, 63480, Note_on_c, 0, 77, 0
2, 63480, Note_on_c, 0, 79, 39
2, 63600, Note_on_c, 0, 79, 0
2, 63600, Note_on_c, 0, 77, 47
2, 63720, Note_on_c, 0, 77, 0
2, 63720, Note_on_c, 0, 76, 42
2, 63840, Note_on_c, 0, 76, 0
2, 63840, Note_on_c, 0, 77, 46
2, 63960, Note_on_c, 0, 77, 0
2, 63960, Note_on_c, 0, 81, 40
2, 64080, Note_on_c, 0, 81, 0
2, 64080, Note_on_c, 0, 79, 42
2, 64200, Note_on_c, 0, 79, 0
2, 64200, Note_on_c, 0, 77, 39
2, 64320, Note_on_c, 0, 77, 0
2, 64320, Note_on_c, 0, 76, 43
2, 64440, Note_on_c, 0, 76, 0
2, 64440, Note_on_c, 0, 79, 40
2, 64560, Note_on_c, 0, 79, 0
2, 64560, Note_on_c, 0, 76, 42
2, 64680, Note_on_c, 0, 76, 0
2, 64680, Note_on_c, 0, 72, 40
2, 64800, Note_on_c, 0, 72, 0
2, 64800, Note_on_c, 0, 71, 46
2, 64920, Note_on_c, 0, 71, 0
2, 64920, Note_on_c, 0, 72, 39
2, 65040, Note_on_c, 0, 72, 0
2, 65040, Note_on_c, 0, 71, 47
2, 65160, Note_on_c, 0, 71, 0
2, 65160, Note_on_c, 0, 69, 42
2, 65280, Note_on_c, 0, 69, 0
2, 65280, Note_on_c, 0, 71, 46
2, 65400, Note_on_c, 0, 71, 0
2, 65400, Note_on_c, 0, 74, 40
2, 65520, Note_on_c, 0, 74, 0
2, 65520, Note_on_c, 0, 72, 42
2, 65640, Note_on_c, 0, 72, 0
2, 65640, Note_on_c, 0, 71, 39
2, 65760, Note_on_c, 0, 71, 0
2, 65760, Note_on_c, 0, 72, 43
2, 65880, Note_on_c, 0, 72, 0
2, 65880, Note_on_c, 0, 76, 40
2, 66000, Note_on_c, 0, 76, 0
2, 66000, Note_on_c, 0, 79, 42
2, 66120, Note_on_c, 0, 79, 0
2, 66120, Note_on_c, 0, 84, 40
2, 66240, Note_on_c, 0, 84, 0
2, 66360, Note_on_c, 0, 81, 34
2, 66480, Note_on_c, 0, 81, 0
2, 66480, Note_on_c, 0, 77, 39
2, 66600, Note_on_c, 0, 77, 0
2, 66600, Note_on_c, 0, 74, 34
2, 66720, Note_on_c, 0, 74, 0
2, 66840, Note_on_c, 0, 79, 35
2, 66960, Note_on_c, 0, 79, 0
2, 66960, Note_on_c, 0, 76, 39
2, 67080, Note_on_c, 0, 76, 0
2, 67080, Note_on_c, 0, 72, 35
2, 67200, Note_on_c, 0, 72, 0
2, 67320, Note_on_c, 0, 77, 33
2, 67440, Note_on_c, 0, 77, 0
2, 67440, Note_on_c, 0, 74, 39
2, 67560, Note_on_c, 0, 74, 0
2, 67560, Note_on_c, 0, 71, 34
2, 67680, Note_on_c, 0, 71, 0
2, 67920, Note_on_c, 0, 72, 39
2, 68040, Note_on_c, 0, 72, 0
2, 68040, Note_on_c, 0, 74, 44
2, 68160, Note_on_c, 0, 74, 0
2, 68160, Note_on_c, 0, 76, 45
2, 68250, Note_on_c, 0, 76, 0
2, 68400, Note_on_c, 0, 72, 49
2, 68400, Note_on_c, 0, 76, 40
2, 68490, Note_on_c, 0, 76, 0
2, 68490, Note_on_c, 0, 72, 0
2, 68640, Note_on_c, 0, 72, 53
2, 68640, Note_on_c, 0, 76, 40
2, 68730, Note_on_c, 0, 76, 0
2, 68730, Note_on_c, 0, 72, 0
2, 68880, Note_on_c, 0, 72, 57
2, 68880, Note_on_c, 0, 76, 40
2, 68970, Note_on_c, 0, 76, 0
2, 68970, Note_on_c, 0, 72, 0
2, 69120, Note_on_c, 0, 79, 65
2, 69120, Note_on_c, 0, 76, 55
2, 69600, Note_on_c, 0, 76, 0
2, 69600, Note_on_c, 0, 79, 0
2, 69600, Note_on_c, 0, 77, 59
2, 69600, Note_on_c, 0, 74, 50
2, 70560, Note_on_c, 0, 74, 0
2, 70560, Note_on_c, 0, 77, 0
2, 70800, Note_on_c, 0, 72, 39
2, 70920, Note_on_c, 0, 72, 0
2, 70920, Note_on_c, 0, 74, 44
2, 71040, Note_on_c, 0, 74, 0
2, 71040, Note_on_c, 0, 76, 45
2, 71130, Note_on_c, 0, 76, 0
2, 71280, Note_on_c, 0, 72, 49
2, 71280, Note_on_c, 0, 76, 40
2, 71370, Note_on_c, 0, 76, 0
2, 71370, Note_on_c, 0, 72, 0
2, 71520, Note_on_c, 0, 72, 53
2, 71520, Note_on_c, 0, 76, 40
2, 71610, Note_on_c, 0, 76, 0
2, 71610, Note_on_c, 0, 72, 0
2, 71760, Note_on_c, 0, 72, 57
2, 71760, Note_on_c, 0, 76, 40
2, 71850, Note_on_c, 0, 76, 0
2, 71850, Note_on_c, 0, 72, 0
2, 72000, Note_on_c, 0, 79, 65
2, 72000, Note_on_c, 0, 76, 55
2, 72480, Note_on_c, 0, 76, 0
2, 72480, Note_on_c, 0, 79, 0
2, 72480, Note_on_c, 0, 77, 59
2, 72480, Note_on_c, 0, 74, 50
2, 73440, Note_on_c, 0, 74, 0
2, 73440, Note_on_c, 0, 77, 0
2, 73440, Note_on_c, 0, 72, 50
2, 73440, Note_on_c, 0, 76, 59
2, 73800, Note_on_c, 0, 76, 0
2, 73800, Note_on_c, 0, 72, 0
2, 73800, Note_on_c, 0, 77, 47
2, 73800, Note_on_c, 0, 74, 39
2, 73920, Note_on_c, 0, 74, 0
2, 73920, Note_on_c, 0, 77, 0
2, 73920, Note_on_c, 0, 76, 56
2, 73920, Note_on_c, 0, 72, 47
2, 74400, Note_on_c, 0, 72, 0
2, 74400, Note_on_c, 0, 76, 0
2, 74400, Note_on_c, 0, 74, 47
2, 74400, Note_on_c, 0, 71, 39
2, 74880, Note_on_c, 0, 71, 0
2, 74880, Note_on_c, 0, 74, 0
2, 75120, Note_on_c, 0, 72, 35
2, 75240, Note_on_c, 0, 72, 0
2, 75240, Note_on_c, 0, 67, 39
2, 75360, Note_on_c, 0, 67, 0
2, 75360, Note_on_c, 0, 64, 40
2, 75450, Note_on_c, 0, 64, 0
2, 75600, Note_on_c, 0, 64, 44
2, 75600, Note_on_c, 0, 60, 36
2, 75690, Note_on_c, 0, 60, 0
2, 75690, Note_on_c, 0, 64, 0
2, 75840, Note_on_c, 0, 64, 47
2, 75840, Note_on_c, 0, 60, 36
2, 75930, Note_on_c, 0, 60, 0
2, 75930, Note_on_c, 0, 64, 0
2, 76080, Note_on_c, 0, 64, 51
2, 76080, Note_on_c, 0, 60, 36
2, 76170, Note_on_c, 0, 60, 0
2, 76170, Note_on_c, 0, 64, 0
2, 76320, Note_on_c, 0, 67, 58
2, 76320, Note_on_c, 0, 64, 49
2, 76800, Note_on_c, 0, 64, 0
2, 76800, Note_on_c, 0, 67, 0
2, 76800, Note_on_c, 0, 65, 53
2, 76800, Note_on_c, 0, 62, 45
2, 77760, Note_on_c, 0, 62, 0
2, 77760, Note_on_c, 0, 65, 0
2, 78000, Note_on_c, 0, 72, 35
2, 78120, Note_on_c, 0, 72, 0
2, 78120, Note_on_c, 0, 67, 39
2, 78240, Note_on_c, 0, 67, 0
2, 78240, Note_on_c, 0, 64, 40
2, 78330, Note_on_c, 0, 64, 0
2, 78480, Note_on_c, 0, 64, 44
2, 78480, Note_on_c, 0, 60, 36
2, 78570, Note_on_c, 0, 60, 0
2, 78570, Note_on_c, 0, 64, 0
2, 78720, Note_on_c, 0, 64, 47
2, 78720, Note_on_c, 0, 60, 36
2, 78810, Note_on_c, 0, 60, 0
2, 78810, Note_on_c, 0, 64, 0
2, 78960, Note_on_c, 0, 64, 51
2, 78960, Note_on_c, 0, 60, 36
2, 79050, Note_on_c, 0, 60, 0
2, 79050, Note_on_c, 0, 64, 0
2, 79200, Note_on_c, 0, 67, 58
2, 79200, Note_on_c, 0, 64, 49
2, 79680, Note_on_c, 0, 64, 0
2, 79680, Note_on_c, 0, 67, 0
2, 79680, Note_on_c, 0, 65, 53
2, 79680, Note_on_c, 0, 62, 45
2, 80640, Note_on_c, 0, 62, 0
2, 80640, Note_on_c, 0, 65, 0
2, 80640, Note_on_c, 0, 64, 58
2, 80760, Note_on_c, 0, 64, 0
2, 80760, Note_on_c, 0, 60, 51
2, 80880, Note_on_c, 0, 60, 0
2, 80880, Note_on_c, 0, 65, 58
2, 81000, Note_on_c, 0, 65, 0
2, 81000, Note_on_c, 0, 62, 49
2, 81120, Note_on_c, 0, 62, 0
2, 81120, Note_on_c, 0, 64, 56
2, 81120, Note_on_c, 0, 60, 47
2, 81210, Note_on_c, 0, 60, 0
2, 81210, Note_on_c, 0, 64, 0
2, 81360, Note_on_c, 0, 64, 51
2, 81360, Note_on_c, 0, 60, 43
2, 81450, Note_on_c, 0, 60, 0
2, 81450, Note_on_c, 0, 64, 0
2, 81600, Note_on_c, 0, 62, 62
2, 81600, Note_on_c, 0, 59, 52
2, 81690, Note_on_c, 0, 59, 0
2, 81690, Note_on_c, 0, 62, 0
2, 81840, Note_on_c, 0, 62, 55
2, 81840, Note_on_c, 0, 59, 46
2, 81930, Note_on_c, 0, 59, 0
2, 81930, Note_on_c, 0, 62, 0
2, 82080, Note_on_c, 0, 60, 70
2, 82800, Note_on_c, 0, 60, 0
2, 82800, Note_on_c, 0, 62, 54
2, 82920, Note_on_c, 0, 62, 0
2, 82920, Note_on_c, 0, 64, 56
2, 83040, Note_on_c, 0, 64, 0
2, 83040, Note_on_c, 0, 65, 57
2, 83160, Note_on_c, 0, 65, 0
2, 83160, Note_on_c, 0, 67, 60
2, 83280, Note_on_c, 0, 67, 0
2, 83280, Note_on_c, 0, 69, 61
2, 83400, Note_on_c, 0, 69, 0
2, 83400, Note_on_c, 0, 71, 68
2, 83520, Note_on_c, 0, 71, 0
2, 83520, Note_on_c, 0, 72, 77
2, 84240, Note_on_c, 0, 72, 0
2, 84240, Note_on_c, 0, 74, 59
2, 84360, Note_on_c, 0, 74, 0
2, 84360, Note_on_c, 0, 76, 61
2, 84480, Note_on_c, 0, 76, 0
2, 84480, Note_on_c, 0, 77, 62
2, 84600, Note_on_c, 0, 77, 0
2, 84600, Note_on_c, 0, 79, 66
2, 84720, Note_on_c, 0, 79, 0
2, 84720, Note_on_c, 0, 81, 67
2, 84840, Note_on_c, 0, 81, 0
2, 84840, Note_on_c, 0, 83, 74
2, 84960, Note_on_c, 0, 83, 0
2, 84960, Note_on_c, 0, 84, 85
2, 85200, Note_on_c, 0, 84, 0
2, 85440, Note_on_c, 0, 64, 58
2, 85440, Note_on_c, 0, 67, 58
2, 85440, Note_on_c, 0, 72, 69
2, 85680, Note_on_c, 0, 72, 0
2, 85680, Note_on_c, 0, 67, 0
2, 85680, Note_on_c, 0, 64, 0
2, 86640, Note_on_c, 0, 64, 42
2, 86760, Note_on_c, 0, 64, 0
2, 86760, Note_on_c, 0, 67, 39
2, 86880, Note_on_c, 0, 67, 0
2, 86880, Note_on_c, 0, 72, 42
2, 86970, Note_on_c, 0, 72, 0
2, 87120, Note_on_c, 0, 72, 40
2, 87210, Note_on_c, 0, 72, 0
2, 87360, Note_on_c, 0, 72, 40
2, 87450, Note_on_c, 0, 72, 0
2, 87600, Note_on_c, 0, 72, 40
2, 87690, Note_on_c, 0, 72, 0
2, 88080, Note_on_c, 0, 65, 43
2, 88200, Note_on_c, 0, 65, 0
2, 88200, Note_on_c, 0, 71, 44
2, 88320, Note_on_c, 0, 71, 0
2, 88320, Note_on_c, 0, 74, 50
2, 88410, Note_on_c, 0, 74, 0
2, 88560, Note_on_c, 0, 74, 43
2, 88650, Note_on_c, 0, 74, 0
2, 88800, Note_on_c, 0, 74, 43
2, 88890, Note_on_c, 0, 74, 0
2, 89040, Note_on_c, 0, 74, 43
2, 89130, Note_on_c, 0, 74, 0
2, 89520, Note_on_c, 0, 67, 47
2, 89640, Note_on_c, 0, 67, 0
2, 89640, Note_on_c, 0, 70, 55
2, 89760, Note_on_c, 0, 70, 0
2, 89760, Note_on_c, 0, 76, 59
2, 89850, Note_on_c, 0, 76, 0
2, 90000, Note_on_c, 0, 76, 50
2, 90090, Note_on_c, 0, 76, 0
2, 90240, Note_on_c, 0, 76, 50
2, 90330, Note_on_c, 0, 76, 0
2, 90480, Note_on_c, 0, 76, 50
2, 90570, Note_on_c, 0, 76, 0
2, 90840, Note_on_c, 0, 69, 57
2, 90960, Note_on_c, 0, 69, 0
2, 90960, Note_on_c, 0, 73, 58
2, 91080, Note_on_c, 0, 73, 0
2, 91080, Note_on_c, 0, 76, 61
2, 91200, Note_on_c, 0, 76, 0
2, 91200, Note_on_c, 0, 81, 65
2, 91320, Note_on_c, 0, 81, 0
2, 91440, Note_on_c, 0, 81, 58
2, 91560, Note_on_c, 0, 81, 0
2, 91680, Note_on_c, 0, 81, 61
2, 91800, Note_on_c, 0, 81, 0
2, 91800, Note_on_c, 0, 82, 57
2, 91920, Note_on_c, 0, 82, 0
2, 91920, Note_on_c, 0, 81, 61
2, 92040, Note_on_c, 0, 81, 0
2, 92040, Note_on_c, 0, 79, 57
2, 92160, Note_on_c, 0, 79, 0
2, 92160, Note_on_c, 0, 77, 62
2, 92280, Note_on_c, 0, 77, 0
2, 92280, Note_on_c, 0, 81, 55
2, 92400, Note_on_c, 0, 81, 0
2, 92400, Note_on_c, 0, 79, 55
2, 92520, Note_on_c, 0, 79, 0
2, 92520, Note_on_c, 0, 77, 51
2, 92640, Note_on_c, 0, 77, 0
2, 92640, Note_on_c, 0, 76, 63
2, 92760, Note_on_c, 0, 76, 0
2, 92760, Note_on_c, 0, 79, 56
2, 92880, Note_on_c, 0, 79, 0
2, 92880, Note_on_c, 0, 77, 56
2, 93000, Note_on_c, 0, 77, 0
2, 93000, Note_on_c, 0, 76, 51
2, 93120, Note_on_c, 0, 76, 0
2, 93120, Note_on_c, 0, 74, 61
2, 93240, Note_on_c, 0, 74, 0
2, 93240, Note_on_c, 0, 77, 56
2, 93360, Note_on_c, 0, 77, 0
2, 93360, Note_on_c, 0, 76, 56
2, 93480, Note_on_c, 0, 76, 0
2, 93480, Note_on_c, 0, 74, 50
2, 93600, Note_on_c, 0, 74, 0
2, 93720, Note_on_c, 0, 69, 57
2, 93840, Note_on_c, 0, 69, 0
2, 93840, Note_on_c, 0, 73, 58
2, 93960, Note_on_c, 0, 73, 0
2, 93960, Note_on_c, 0, 76, 61
2, 94080, Note_on_c, 0, 76, 0
2, 94080, Note_on_c, 0, 81, 65
2, 94200, Note_on_c, 0, 81, 0
2, 94320, Note_on_c, 0, 81, 58
2, 94440, Note_on_c, 0, 81, 0
2, 94560, Note_on_c, 0, 81, 61
2, 94680, Note_on_c, 0, 81, 0
2, 94680, Note_on_c, 0, 88, 57
2, 94800, Note_on_c, 0, 88, 0
2, 94800, Note_on_c, 0, 85, 61
2, 94920, Note_on_c, 0, 85, 0
2, 94920, Note_on_c, 0, 79, 57
2, 95040, Note_on_c, 0, 79, 0
2, 95040, Note_on_c, 0, 77, 62
2, 95160, Note_on_c, 0, 77, 0
2, 95160, Note_on_c, 0, 81, 55
2, 95280, Note_on_c, 0, 81, 0
2, 95280, Note_on_c, 0, 77, 55
2, 95400, Note_on_c, 0, 77, 0
2, 95400, Note_on_c, 0, 81, 51
2, 95520, Note_on_c, 0, 81, 0
2, 95520, Note_on_c, 0, 76, 63
2, 95640, Note_on_c, 0, 76, 0
2, 95640, Note_on_c, 0, 79, 56
2, 95760, Note_on_c, 0, 79, 0
2, 95760, Note_on_c, 0, 76, 56
2, 95880, Note_on_c, 0, 76, 0
2, 95880, Note_on_c, 0, 79, 51
2, 96000, Note_on_c, 0, 79, 0
2, 96000, Note_on_c, 0, 74, 61
2, 96120, Note_on_c, 0, 74, 0
2, 96120, Note_on_c, 0, 77, 56
2, 96240, Note_on_c, 0, 77, 0
2, 96240, Note_on_c, 0, 74, 56
2, 96360, Note_on_c, 0, 74, 0
2, 96360, Note_on_c, 0, 77, 50
2, 96480, Note_on_c, 0, 77, 0
2, 96480, Note_on_c, 0, 72, 42
2, 96600, Note_on_c, 0, 72, 0
2, 96600, Note_on_c, 0, 75, 33
2, 96720, Note_on_c, 0, 75, 0
2, 96720, Note_on_c, 0, 72, 39
2, 96840, Note_on_c, 0, 72, 0
2, 96840, Note_on_c, 0, 75, 35
2, 96960, Note_on_c, 0, 75, 0
2, 96960, Note_on_c, 0, 72, 42
2, 97080, Note_on_c, 0, 72, 0
2, 97080, Note_on_c, 0, 75, 35
2, 97200, Note_on_c, 0, 75, 0
2, 97200, Note_on_c, 0, 72, 39
2, 97320, Note_on_c, 0, 72, 0
2, 97320, Note_on_c, 0, 75, 34
2, 97440, Note_on_c, 0, 75, 0
2, 97440, Note_on_c, 0, 72, 42
2, 97560, Note_on_c, 0, 72, 0
2, 97560, Note_on_c, 0, 74, 35
2, 97680, Note_on_c, 0, 74, 0
2, 97680, Note_on_c, 0, 72, 39
2, 97800, Note_on_c, 0, 72, 0
2, 97800, Note_on_c, 0, 74, 35
2, 97920, Note_on_c, 0, 74, 0
2, 97920, Note_on_c, 0, 72, 42
2, 98040, Note_on_c, 0, 72, 0
2, 98040, Note_on_c, 0, 74, 33
2, 98160, Note_on_c, 0, 74, 0
2, 98160, Note_on_c, 0, 72, 39
2, 98280, Note_on_c, 0, 72, 0
2, 98280, Note_on_c, 0, 74, 35
2, 98400, Note_on_c, 0, 74, 0
2, 98400, Note_on_c, 0, 69, 42
2, 98520, Note_on_c, 0, 69, 0
2, 98520, Note_on_c, 0, 74, 35
2, 98640, Note_on_c, 0, 74, 0
2, 98640, Note_on_c, 0, 69, 39
2, 98760, Note_on_c, 0, 69, 0
2, 98760, Note_on_c, 0, 74, 34
2, 98880, Note_on_c, 0, 74, 0
2, 98880, Note_on_c, 0, 70, 42
2, 99000, Note_on_c, 0, 70, 0
2, 99000, Note_on_c, 0, 74, 35
2, 99120, Note_on_c, 0, 74, 0
2, 99120, Note_on_c, 0, 70, 39
2, 99240, Note_on_c, 0, 70, 0
2, 99240, Note_on_c, 0, 74, 35
2, 99360, Note_on_c, 0, 74, 0
2, 99360, Note_on_c, 0, 70, 42
2, 99480, Note_on_c, 0, 70, 0
2, 99480, Note_on_c, 0, 73, 33
2, 99600, Note_on_c, 0, 73, 0
2, 99600, Note_on_c, 0, 70, 39
2, 99720, Note_on_c, 0, 70, 0
2, 99720, Note_on_c, 0, 73, 35
2, 99840, Note_on_c, 0, 73, 0
2, 99840, Note_on_c, 0, 70, 42
2, 99960, Note_on_c, 0, 70, 0
2, 99960, Note_on_c, 0, 72, 35
2, 100080, Note_on_c, 0, 72, 0
2, 100080, Note_on_c, 0, 70, 39
2, 100200, Note_on_c, 0, 70, 0
2, 100200, Note_on_c, 0, 72, 34
2, 100320, Note_on_c, 0, 72, 0
2, 100320, Note_on_c, 0, 70, 42
2, 100440, Note_on_c, 0, 70, 0
2, 100440, Note_on_c, 0, 72, 35
2, 100560, Note_on_c, 0, 72, 0
2, 100560, Note_on_c, 0, 70, 39
2, 100680, Note_on_c, 0, 70, 0
2, 100680, Note_on_c, 0, 72, 35
2, 100800, Note_on_c, 0, 72, 0
2, 100800, Note_on_c, 0, 70, 42
2, 100920, Note_on_c, 0, 70, 0
2, 100920, Note_on_c, 0, 72, 33
2, 101040, Note_on_c, 0, 72, 0
2, 101040, Note_on_c, 0, 70, 39
2, 101160, Note_on_c, 0, 70, 0
2, 101160, Note_on_c, 0, 72, 35
2, 101280, Note_on_c, 0, 72, 0
2, 101280, Note_on_c, 0, 67, 42
2, 101400, Note_on_c, 0, 67, 0
2, 101400, Note_on_c, 0, 72, 27
2, 101520, Note_on_c, 0, 72, 0
2, 101520, Note_on_c, 0, 67, 36
2, 101640, Note_on_c, 0, 67, 0
2, 101640, Note_on_c, 0, 72, 29
2, 101760, Note_on_c, 0, 72, 0
2, 101760, Note_on_c, 0, 69, 37
2, 101880, Note_on_c, 0, 69, 0
2, 101880, Note_on_c, 0, 72, 29
2, 102000, Note_on_c, 0, 72, 0
2, 102000, Note_on_c, 0, 69, 37
2, 102120, Note_on_c, 0, 69, 0
2, 102120, Note_on_c, 0, 72, 29
2, 102240, Note_on_c, 0, 72, 0
2, 102240, Note_on_c, 0, 71, 62
2, 102360, Note_on_c, 0, 71, 0
2, 102360, Note_on_c, 0, 77, 55
2, 102480, Note_on_c, 0, 77, 0
2, 102480, Note_on_c, 0, 71, 55
2, 102600, Note_on_c, 0, 71, 0
2, 102600, Note_on_c, 0, 77, 51
2, 102720, Note_on_c, 0, 77, 0
2, 102720, Note_on_c, 0, 71, 63
2, 102840, Note_on_c, 0, 71, 0
2, 102840, Note_on_c, 0, 77, 56
2, 102960, Note_on_c, 0, 77, 0
2, 102960, Note_on_c, 0, 71, 56
2, 103080, Note_on_c, 0, 71, 0
2, 103080, Note_on_c, 0, 77, 51
2, 103200, Note_on_c, 0, 77, 0
2, 103200, Note_on_c, 0, 71, 61
2, 103320, Note_on_c, 0, 71, 0
2, 103320, Note_on_c, 0, 77, 56
2, 103440, Note_on_c, 0, 77, 0
2, 103440, Note_on_c, 0, 71, 56
2, 103560, Note_on_c, 0, 71, 0
2, 103560, Note_on_c, 0, 77, 50
2, 103680, Note_on_c, 0, 77, 0
2, 103680, Note_on_c, 0, 76, 62
2, 103800, Note_on_c, 0, 76, 0
2, 103800, Note_on_c, 0, 72, 55
2, 103920, Note_on_c, 0, 72, 0
2, 103920, Note_on_c, 0, 71, 55
2, 104040, Note_on_c, 0, 71, 0
2, 104040, Note_on_c, 0, 72, 51
2, 104160, Note_on_c, 0, 72, 0
2, 104160, Note_on_c, 0, 74, 63
2, 104280, Note_on_c, 0, 74, 0
2, 104280, Note_on_c, 0, 72, 56
2, 104400, Note_on_c, 0, 72, 0
2, 104400, Note_on_c, 0, 71, 56
2, 104520, Note_on_c, 0, 71, 0
2, 104520, Note_on_c, 0, 72, 51
2, 104640, Note_on_c, 0, 72, 0
2, 104640, Note_on_c, 0, 77, 61
2, 104760, Note_on_c, 0, 77, 0
2, 104760, Note_on_c, 0, 74, 56
2, 104880, Note_on_c, 0, 74, 0
2, 104880, Note_on_c, 0, 72, 56
2, 105000, Note_on_c, 0, 72, 0
2, 105000, Note_on_c, 0, 74, 50
2, 105120, Note_on_c, 0, 74, 0
2, 105120, Note_on_c, 0, 79, 68
2, 105240, Note_on_c, 0, 79, 0
2, 105240, Note_on_c, 0, 76, 59
2, 105360, Note_on_c, 0, 76, 0
2, 105360, Note_on_c, 0, 74, 60
2, 105480, Note_on_c, 0, 74, 0
2, 105480, Note_on_c, 0, 76, 56
2, 105600, Note_on_c, 0, 76, 0
2, 105600, Note_on_c, 0, 77, 71
2, 105720, Note_on_c, 0, 77, 0
2, 105720, Note_on_c, 0, 76, 63
2, 105840, Note_on_c, 0, 76, 0
2, 105840, Note_on_c, 0, 74, 63
2, 105960, Note_on_c, 0, 74, 0
2, 105960, Note_on_c, 0, 76, 58
2, 106080, Note_on_c, 0, 76, 0
2, 106080, Note_on_c, 0, 81, 68
2, 106200, Note_on_c, 0, 81, 0
2, 106200, Note_on_c, 0, 77, 64
2, 106320, Note_on_c, 0, 77, 0
2, 106320, Note_on_c, 0, 76, 65
2, 106440, Note_on_c, 0, 76, 0
2, 106440, Note_on_c, 0, 77, 59
2, 106560, Note_on_c, 0, 77, 0
2, 106560, Note_on_c, 0, 82, 77
2, 106680, Note_on_c, 0, 82, 0
2, 106680, Note_on_c, 0, 81, 66
2, 106800, Note_on_c, 0, 81, 0
2, 106800, Note_on_c, 0, 79, 69
2, 106920, Note_on_c, 0, 79, 0
2, 106920, Note_on_c, 0, 81, 65
2, 107040, Note_on_c, 0, 81, 0
2, 107040, Note_on_c, 0, 82, 77
2, 107160, Note_on_c, 0, 82, 0
2, 107160, Note_on_c, 0, 81, 66
2, 107280, Note_on_c, 0, 81, 0
2, 107280, Note_on_c, 0, 79, 69
2, 107400, Note_on_c, 0, 79, 0
2, 107400, Note_on_c, 0, 81, 65
2, 107520, Note_on_c, 0, 81, 0
2, 107520, Note_on_c, 0, 82, 77
2, 107640, Note_on_c, 0, 82, 0
2, 107640, Note_on_c, 0, 81, 66
2, 107760, Note_on_c, 0, 81, 0
2, 107760, Note_on_c, 0, 79, 69
2, 107880, Note_on_c, 0, 79, 0
2, 107880, Note_on_c, 0, 81, 65
2, 108000, Note_on_c, 0, 81, 0
2, 108000, Note_on_c, 0, 82, 72
2, 108120, Note_on_c, 0, 82, 0
2, 108240, Note_on_c, 0, 81, 66
2, 108360, Note_on_c, 0, 81, 0
2, 108480, Note_on_c, 0, 79, 61
2, 108600, Note_on_c, 0, 79, 0
2, 108720, Note_on_c, 0, 77, 57
2, 108840, Note_on_c, 0, 77, 0
2, 108960, Note_on_c, 0, 76, 56
2, 109080, Note_on_c, 0, 76, 0
2, 109200, Note_on_c, 0, 74, 54
2, 109320, Note_on_c, 0, 74, 0
2, 109440, Note_on_c, 0, 72, 49
2, 109560, Note_on_c, 0, 72, 0
2, 109680, Note_on_c, 0, 71, 45
2, 109800, Note_on_c, 0, 71, 0
2, 109920, Note_on_c, 0, 70, 42
2, 110040, Note_on_c, 0, 70, 0
2, 110160, Note_on_c, 0, 69, 38
2, 110280, Note_on_c, 0, 69, 0
2, 110400, Note_on_c, 0, 68, 37
2, 110520, Note_on_c, 0, 68, 0
2, 110640, Note_on_c, 0, 67, 33
2, 110760, Note_on_c, 0, 67, 0
2, 110880, Note_on_c, 0, 65, 44
2, 111840, Note_on_c, 0, 65, 0
2, 111840, Note_on_c, 0, 69, 51
2, 112200, Note_on_c, 0, 69, 0
2, 112200, Note_on_c, 0, 65, 54
2, 112320, Note_on_c, 0, 65, 0
2, 112320, Note_on_c, 0, 72, 63
2, 113280, Note_on_c, 0, 72, 0
2, 113280, Note_on_c, 0, 70, 49
2, 113400, Note_on_c, 0, 70, 0
2, 113400, Note_on_c, 0, 69, 46
2, 113520, Note_on_c, 0, 69, 0
2, 113520, Note_on_c, 0, 67, 44
2, 113640, Note_on_c, 0, 67, 0
2, 113640, Note_on_c, 0, 65, 42
2, 113760, Note_on_c, 0, 65, 0
2, 113760, Note_on_c, 0, 64, 48
2, 114000, Note_on_c, 0, 64, 0
2, 114000, Note_on_c, 0, 67, 46
2, 114240, Note_on_c, 0, 67, 0
2, 114240, Note_on_c, 0, 70, 49
2, 114480, Note_on_c, 0, 70, 0
2, 114480, Note_on_c, 0, 74, 46
2, 114720, Note_on_c, 0, 74, 0
2, 114720, Note_on_c, 0, 72, 49
2, 114960, Note_on_c, 0, 72, 0
2, 114960, Note_on_c, 0, 70, 46
2, 115200, Note_on_c, 0, 70, 0
2, 115200, Note_on_c, 0, 64, 35
2, 115200, Note_on_c, 0, 68, 42
2, 115680, Note_on_c, 0, 68, 0
2, 115680, Note_on_c, 0, 64, 0
2, 115680, Note_on_c, 0, 65, 37
2, 115680, Note_on_c, 0, 69, 44
2, 116160, Note_on_c, 0, 69, 0
2, 116160, Note_on_c, 0, 65, 0
2, 116640, Note_on_c, 0, 75, 70
2, 117360, Note_on_c, 0, 75, 0
2, 117360, Note_on_c, 0, 79, 65
2, 117480, Note_on_c, 0, 79, 0
2, 117480, Note_on_c, 0, 75, 61
2, 117600, Note_on_c, 0, 75, 0
2, 117600, Note_on_c, 0, 74, 65
2, 117840, Note_on_c, 0, 74, 0
2, 117840, Note_on_c, 0, 77, 63
2, 118080, Note_on_c, 0, 77, 0
2, 118080, Note_on_c, 0, 69, 70
2, 118800, Note_on_c, 0, 69, 0
2, 118800, Note_on_c, 0, 72, 65
2, 118920, Note_on_c, 0, 72, 0
2, 118920, Note_on_c, 0, 69, 61
2, 119040, Note_on_c, 0, 69, 0
2, 119040, Note_on_c, 0, 70, 65
2, 119280, Note_on_c, 0, 70, 0
2, 119280, Note_on_c, 0, 72, 63
2, 119400, Note_on_c, 0, 72, 0
2, 119400, Note_on_c, 0, 74, 53
2, 119520, Note_on_c, 0, 74, 0
2, 119520, Note_on_c, 0, 75, 58
2, 119640, Note_on_c, 0, 75, 0
2, 119640, Note_on_c, 0, 77, 50
2, 119760, Note_on_c, 0, 77, 0
2, 119760, Note_on_c, 0, 75, 58
2, 119880, Note_on_c, 0, 75, 0
2, 119880, Note_on_c, 0, 74, 53
2, 120000, Note_on_c, 0, 74, 0
2, 120000, Note_on_c, 0, 75, 58
2, 120120, Note_on_c, 0, 75, 0
2, 120120, Note_on_c, 0, 79, 54
2, 120240, Note_on_c, 0, 79, 0
2, 120240, Note_on_c, 0, 77, 58
2, 120360, Note_on_c, 0, 77, 0
2, 120360, Note_on_c, 0, 75, 53
2, 120480, Note_on_c, 0, 75, 0
2, 120480, Note_on_c, 0, 74, 62
2, 120600, Note_on_c, 0, 74, 0
2, 120960, Note_on_c, 0, 72, 52
2, 121080, Note_on_c, 0, 72, 0
2, 121080, Note_on_c, 0, 74, 45
2, 121200, Note_on_c, 0, 74, 0
2, 121200, Note_on_c, 0, 72, 52
2, 121320, Note_on_c, 0, 72, 0
2, 121320, Note_on_c, 0, 71, 47
2, 121440, Note_on_c, 0, 71, 0
2, 121440, Note_on_c, 0, 72, 52
2, 121560, Note_on_c, 0, 72, 0
2, 121560, Note_on_c, 0, 75, 48
2, 121680, Note_on_c, 0, 75, 0
2, 121680, Note_on_c, 0, 74, 52
2, 121800, Note_on_c, 0, 74, 0
2, 121800, Note_on_c, 0, 72, 47
2, 121920, Note_on_c, 0, 72, 0
2, 121920, Note_on_c, 0, 70, 55
2, 122040, Note_on_c, 0, 70, 0
2, 122520, Note_on_c, 0, 71, 50
2, 122640, Note_on_c, 0, 71, 0
2, 122640, Note_on_c, 0, 72, 58
2, 122760, Note_on_c, 0, 72, 0
2, 122760, Note_on_c, 0, 71, 53
2, 122880, Note_on_c, 0, 71, 0
2, 122880, Note_on_c, 0, 79, 63
2, 123000, Note_on_c, 0, 79, 0
2, 123000, Note_on_c, 0, 71, 54
2, 123120, Note_on_c, 0, 71, 0
2, 123120, Note_on_c, 0, 72, 58
2, 123240, Note_on_c, 0, 72, 0
2, 123240, Note_on_c, 0, 71, 53
2, 123360, Note_on_c, 0, 71, 0
2, 123480, Note_on_c, 0, 69, 45
2, 123600, Note_on_c, 0, 69, 0
2, 123600, Note_on_c, 0, 72, 48
2, 123720, Note_on_c, 0, 72, 0
2, 123720, Note_on_c, 0, 77, 44
2, 123840, Note_on_c, 0, 77, 0
2, 123960, Note_on_c, 0, 71, 50
2, 124080, Note_on_c, 0, 71, 0
2, 124080, Note_on_c, 0, 72, 58
2, 124200, Note_on_c, 0, 72, 0
2, 124200, Note_on_c, 0, 71, 53
2, 124320, Note_on_c, 0, 71, 0
2, 124320, Note_on_c, 0, 79, 63
2, 124440, Note_on_c, 0, 79, 0
2, 124440, Note_on_c, 0, 71, 54
2, 124560, Note_on_c, 0, 71, 0
2, 124560, Note_on_c, 0, 72, 58
2, 124680, Note_on_c, 0, 72, 0
2, 124680, Note_on_c, 0, 71, 53
2, 124800, Note_on_c, 0, 71, 0
2, 124920, Note_on_c, 0, 69, 45
2, 125040, Note_on_c, 0, 69, 0
2, 125040, Note_on_c, 0, 72, 48
2, 125160, Note_on_c, 0, 72, 0
2, 125160, Note_on_c, 0, 77, 44
2, 125280, Note_on_c, 0, 77, 0
2, 125400, Note_on_c, 0, 74, 34
2, 125520, Note_on_c, 0, 74, 0
2, 125520, Note_on_c, 0, 70, 39
2, 125640, Note_on_c, 0, 70, 0
2, 125640, Note_on_c, 0, 67, 34
2, 125760, Note_on_c, 0, 67, 0
2, 125880, Note_on_c, 0, 72, 35
2, 126000, Note_on_c, 0, 72, 0
2, 126000, Note_on_c, 0, 69, 39
2, 126120, Note_on_c, 0, 69, 0
2, 126120, Note_on_c, 0, 65, 35
2, 126240, Note_on_c, 0, 65, 0
2, 126360, Note_on_c, 0, 70, 33
2, 126480, Note_on_c, 0, 70, 0
2, 126480, Note_on_c, 0, 67, 39
2, 126600, Note_on_c, 0, 67, 0
2, 126600, Note_on_c, 0, 64, 34
2, 126720, Note_on_c, 0, 64, 0
2, 126960, Note_on_c, 0, 65, 39
2, 127080, Note_on_c, 0, 65, 0
2, 127080, Note_on_c, 0, 67, 44
2, 127200, Note_on_c, 0, 67, 0
2, 127200, Note_on_c, 0, 69, 45
2, 127290, Note_on_c, 0, 69, 0
2, 127440, Note_on_c, 0, 69, 49
2, 127440, Note_on_c, 0, 65, 40
2, 127530, Note_on_c, 0, 65, 0
2, 127530, Note_on_c, 0, 69, 0
2, 127680, Note_on_c, 0, 69, 53
2, 127680, Note_on_c, 0, 65, 40
2, 127770, Note_on_c, 0, 65, 0
2, 127770, Note_on_c, 0, 69, 0
2, 127920, Note_on_c, 0, 69, 57
2, 127920, Note_on_c, 0, 65, 40
2, 128010, Note_on_c, 0, 65, 0
2, 128010, Note_on_c, 0, 69, 0
2, 128160, Note_on_c, 0, 72, 65
2, 128160, Note_on_c, 0, 69, 55
2, 128640, Note_on_c, 0, 69, 0
2, 128640, Note_on_c, 0, 72, 0
2, 128640, Note_on_c, 0, 70, 59
2, 128640, Note_on_c, 0, 67, 50
2, 129600, Note_on_c, 0, 67, 0
2, 129600, Note_on_c, 0, 70, 0
2, 129840, Note_on_c, 0, 77, 47
2, 129960, Note_on_c, 0, 77, 0
2, 129960, Note_on_c, 0, 72, 47
2, 130080, Note_on_c, 0, 72, 0
2, 130080, Note_on_c, 0, 69, 45
2, 130170, Note_on_c, 0, 69, 0
2, 130320, Note_on_c, 0, 69, 49
2, 130320, Note_on_c, 0, 65, 40
2, 130410, Note_on_c, 0, 65, 0
2, 130410, Note_on_c, 0, 69, 0
2, 130560, Note_on_c, 0, 69, 53
2, 130560, Note_on_c, 0, 65, 40
2, 130650, Note_on_c, 0, 65, 0
2, 130650, Note_on_c, 0, 69, 0
2, 130800, Note_on_c, 0, 69, 57
2, 130800, Note_on_c, 0, 65, 40
2, 130890, Note_on_c, 0, 65, 0
2, 130890, Note_on_c, 0, 69, 0
2, 131040, Note_on_c, 0, 72, 65
2, 131040, Note_on_c, 0, 69, 55
2, 131520, Note_on_c, 0, 69, 0
2, 131520, Note_on_c, 0, 72, 0
2, 131520, Note_on_c, 0, 70, 59
2, 131520, Note_on_c, 0, 67, 50
2, 132480, Note_on_c, 0, 67, 0
2, 132480, Note_on_c, 0, 70, 0
2, 132480, Note_on_c, 0, 65, 50
2, 132480, Note_on_c, 0, 69, 59
2, 132840, Note_on_c, 0, 69, 0
2, 132840, Note_on_c, 0, 65, 0
2, 132840, Note_on_c, 0, 70, 47
2, 132840, Note_on_c, 0, 67, 39
2, 132960, Note_on_c, 0, 67, 0
2, 132960, Note_on_c, 0, 70, 0
2, 132960, Note_on_c, 0, 69, 56
2, 132960, Note_on_c, 0, 65, 47
2, 133440, Note_on_c, 0, 65, 0
2, 133440, Note_on_c, 0, 69, 0
2, 133440, Note_on_c, 0, 67, 47
2, 133440, Note_on_c, 0, 64, 39
2, 133920, Note_on_c, 0, 64, 0
2, 133920, Note_on_c, 0, 67, 0
2, 134160, Note_on_c, 0, 77, 39
2, 134280, Note_on_c, 0, 77, 0
2, 134280, Note_on_c, 0, 79, 44
2, 134400, Note_on_c, 0, 79, 0
2, 134400, Note_on_c, 0, 81, 45
2, 134490, Note_on_c, 0, 81, 0
2, 134640, Note_on_c, 0, 81, 49
2, 134640, Note_on_c, 0, 77, 40
2, 134730, Note_on_c, 0, 77, 0
2, 134730, Note_on_c, 0, 81, 0
2, 134880, Note_on_c, 0, 81, 53
2, 134880, Note_on_c, 0, 77, 40
2, 134970, Note_on_c, 0, 77, 0
2, 134970, Note_on_c, 0, 81, 0
2, 135120, Note_on_c, 0, 81, 57
2, 135120, Note_on_c, 0, 77, 40
2, 135210, Note_on_c, 0, 77, 0
2, 135210, Note_on_c, 0, 81, 0
2, 135360, Note_on_c, 0, 84, 65
2, 135360, Note_on_c, 0, 81, 55
2, 135840, Note_on_c, 0, 81, 0
2, 135840, Note_on_c, 0, 84, 0
2, 135840, Note_on_c, 0, 82, 59
2, 135840, Note_on_c, 0, 79, 50
2, 136800, Note_on_c, 0, 79, 0
2, 136800, Note_on_c, 0, 82, 0
2, 137040, Note_on_c, 0, 89, 49
2, 137160, Note_on_c, 0, 89, 0
2, 137160, Note_on_c, 0, 84, 51
2, 137280, Note_on_c, 0, 84, 0
2, 137280, Note_on_c, 0, 81, 45
2, 137370, Note_on_c, 0, 81, 0
2, 137520, Note_on_c, 0, 81, 49
2, 137520, Note_on_c, 0, 77, 40
2, 137610, Note_on_c, 0, 77, 0
2, 137610, Note_on_c, 0, 81, 0
2, 137760, Note_on_c, 0, 81, 53
2, 137760, Note_on_c, 0, 77, 40
2, 137850, Note_on_c, 0, 77, 0
2, 137850, Note_on_c, 0, 81, 0
2, 138000, Note_on_c, 0, 81, 57
2, 138000, Note_on_c, 0, 77, 40
2, 138090, Note_on_c, 0, 77, 0
2, 138090, Note_on_c, 0, 81, 0
2, 138240, Note_on_c, 0, 84, 65
2, 138240, Note_on_c, 0, 81, 55
2, 138720, Note_on_c, 0, 81, 0
2, 138720, Note_on_c, 0, 84, 0
2, 138720, Note_on_c, 0, 82, 59
2, 138720, Note_on_c, 0, 79, 50
2, 139680, Note_on_c, 0, 79, 0
2, 139680, Note_on_c, 0, 82, 0
2, 139680, Note_on_c, 0, 81, 58
2, 139800, Note_on_c, 0, 81, 0
2, 139800, Note_on_c, 0, 77, 51
2, 139920, Note_on_c, 0, 77, 0
2, 139920, Note_on_c, 0, 82, 58
2, 140040, Note_on_c, 0, 82, 0
2, 140040, Note_on_c, 0, 79, 49
2, 140160, Note_on_c, 0, 79, 0
2, 140160, Note_on_c, 0, 81, 56
2, 140160, Note_on_c, 0, 77, 47
2, 140250, Note_on_c, 0, 77, 0
2, 140250, Note_on_c, 0, 81, 0
2, 140400, Note_on_c, 0, 81, 51
2, 140400, Note_on_c, 0, 77, 43
2, 140490, Note_on_c, 0, 77, 0
2, 140490, Note_on_c, 0, 81, 0
2, 140640, Note_on_c, 0, 79, 62
2, 140640, Note_on_c, 0, 76, 52
2, 140730, Note_on_c, 0, 76, 0
2, 140730, Note_on_c, 0, 79, 0
2, 140880, Note_on_c, 0, 79, 55
2, 140880, Note_on_c, 0, 76, 46
2, 140970, Note_on_c, 0, 76, 0
2, 140970, Note_on_c, 0, 79, 0
2, 141120, Note_on_c, 0, 77, 70
2, 141840, Note_on_c, 0, 77, 0
2, 141840, Note_on_c, 0, 76, 54
2, 141960, Note_on_c, 0, 76, 0
2, 141960, Note_on_c, 0, 74, 56
2, 142080, Note_on_c, 0, 74, 0
2, 142080, Note_on_c, 0, 72, 57
2, 142200, Note_on_c, 0, 72, 0
2, 142200, Note_on_c, 0, 70, 60
2, 142320, Note_on_c, 0, 70, 0
2, 142320, Note_on_c, 0, 69, 61
2, 142440, Note_on_c, 0, 69, 0
2, 142440, Note_on_c, 0, 67, 68
2, 142560, Note_on_c, 0, 67, 0
2, 142560, Note_on_c, 0, 65, 69
2, 143280, Note_on_c, 0, 65, 0
2, 143280, Note_on_c, 0, 64, 53
2, 143400, Note_on_c, 0, 64, 0
2, 143400, Note_on_c, 0, 62, 54
2, 143520, Note_on_c, 0, 62, 0
2, 143520, Note_on_c, 0, 60, 55
2, 143640, Note_on_c, 0, 60, 0
2, 143640, Note_on_c, 0, 58, 59
2, 143760, Note_on_c, 0, 58, 0
2, 143760, Note_on_c, 0, 57, 60
2, 143880, Note_on_c, 0, 57, 0
2, 143880, Note_on_c, 0, 55, 66
2, 144000, Note_on_c, 0, 55, 0
2, 144000, Note_on_c, 0, 53, 76
2, 144240, Note_on_c, 0, 53, 0
2, 144480, Note_on_c, 0, 57, 58
2, 144480, Note_on_c, 0, 60, 58
2, 144480, Note_on_c, 0, 65, 69
2, 144720, Note_on_c, 0, 65, 0
2, 144720, Note_on_c, 0, 60, 0
2, 144720, Note_on_c, 0, 57, 0
2, 145680, Note_on_c, 0, 64, 42
2, 145800, Note_on_c, 0, 64, 0
2, 145800, Note_on_c, 0, 67, 39
2, 145920, Note_on_c, 0, 67, 0
2, 145920, Note_on_c, 0, 72, 42
2, 146010, Note_on_c, 0, 72, 0
2, 146160, Note_on_c, 0, 72, 40
2, 146250, Note_on_c, 0, 72, 0
2, 146400, Note_on_c, 0, 72, 40
2, 146490, Note_on_c, 0, 72, 0
2, 146640, Note_on_c, 0, 72, 40
2, 146730, Note_on_c, 0, 72, 0
2, 147120, Note_on_c, 0, 65, 43
2, 147240, Note_on_c, 0, 65, 0
2, 147240, Note_on_c, 0, 71, 44
2, 147360, Note_on_c, 0, 71, 0
2, 147360, Note_on_c, 0, 74, 50
2, 147450, Note_on_c, 0, 74, 0
2, 147600, Note_on_c, 0, 74, 43
2, 147690, Note_on_c, 0, 74, 0
2, 147840, Note_on_c, 0, 74, 43
2, 147930, Note_on_c, 0, 74, 0
2, 148080, Note_on_c, 0, 74, 43
2, 148170, Note_on_c, 0, 74, 0
2, 148560, Note_on_c, 0, 67, 47
2, 148680, Note_on_c, 0, 67, 0
2, 148680, Note_on_c, 0, 70, 55
2, 148800, Note_on_c, 0, 70, 0
2, 148800, Note_on_c, 0, 76, 59
2, 148890, Note_on_c, 0, 76, 0
2, 149040, Note_on_c, 0, 76, 50
2, 149130, Note_on_c, 0, 76, 0
2, 149280, Note_on_c, 0, 76, 50
2, 149370, Note_on_c, 0, 76, 0
2, 149520, Note_on_c, 0, 76, 50
2, 149610, Note_on_c, 0, 76, 0
2, 149880, Note_on_c, 0, 69, 57
2, 150000, Note_on_c, 0, 69, 0
2, 150000, Note_on_c, 0, 73, 58
2, 150120, Note_on_c, 0, 73, 0
2, 150120, Note_on_c, 0, 76, 61
2, 150240, Note_on_c, 0, 76, 0
2, 150240, Note_on_c, 0, 81, 65
2, 150360, Note_on_c, 0, 81, 0
2, 150480, Note_on_c, 0, 81, 58
2, 150600, Note_on_c, 0, 81, 0
2, 150720, Note_on_c, 0, 81, 61
2, 150840, Note_on_c, 0, 81, 0
2, 150840, Note_on_c, 0, 82, 57
2, 150960, Note_on_c, 0, 82, 0
2, 150960, Note_on_c, 0, 81, 61
2, 151080, Note_on_c, 0, 81, 0
2, 151080, Note_on_c, 0, 79, 57
2, 151200, Note_on_c, 0, 79, 0
2, 151200, Note_on_c, 0, 77, 62
2, 151320, Note_on_c, 0, 77, 0
2, 151320, Note_on_c, 0, 81, 55
2, 151440, Note_on_c, 0, 81, 0
2, 151440, Note_on_c, 0, 79, 55
2, 151560, Note_on_c, 0, 79, 0
2, 151560, Note_on_c, 0, 77, 51
2, 151680, Note_on_c, 0, 77, 0
2, 151680, Note_on_c, 0, 76, 63
2, 151800, Note_on_c, 0, 76, 0
2, 151800, Note_on_c, 0, 79, 56
2, 151920, Note_on_c, 0, 79, 0
2, 151920, Note_on_c, 0, 77, 56
2, 152040, Note_on_c, 0, 77, 0
2, 152040, Note_on_c, 0, 76, 51
2, 152160, Note_on_c, 0, 76, 0
2, 152160, Note_on_c, 0, 74, 61
2, 152280, Note_on_c, 0, 74, 0
2, 152280, Note_on_c, 0, 77, 56
2, 152400, Note_on_c, 0, 77, 0
2, 152400, Note_on_c, 0, 76, 56
2, 152520, Note_on_c, 0, 76, 0
2, 152520, Note_on_c, 0, 74, 50
2, 152640, Note_on_c, 0, 74, 0
2, 152760, Note_on_c, 0, 69, 57
2, 152880, Note_on_c, 0, 69, 0
2, 152880, Note_on_c, 0, 73, 58
2, 153000, Note_on_c, 0, 73, 0
2, 153000, Note_on_c, 0, 76, 61
2, 153120, Note_on_c, 0, 76, 0
2, 153120, Note_on_c, 0, 81, 65
2, 153240, Note_on_c, 0, 81, 0
2, 153360, Note_on_c, 0, 81, 58
2, 153480, Note_on_c, 0, 81, 0
2, 153600, Note_on_c, 0, 81, 61
2, 153720, Note_on_c, 0, 81, 0
2, 153720, Note_on_c, 0, 88, 57
2, 153840, Note_on_c, 0, 88, 0
2, 153840, Note_on_c, 0, 85, 61
2, 153960, Note_on_c, 0, 85, 0
2, 153960, Note_on_c, 0, 79, 57
2, 154080, Note_on_c, 0, 79, 0
2, 154080, Note_on_c, 0, 77, 62
2, 154200, Note_on_c, 0, 77, 0
2, 154200, Note_on_c, 0, 81, 55
2, 154320, Note_on_c, 0, 81, 0
2, 154320, Note_on_c, 0, 77, 55
2, 154440, Note_on_c, 0, 77, 0
2, 154440, Note_on_c, 0, 81, 51
2, 154560, Note_on_c, 0, 81, 0
2, 154560, Note_on_c, 0, 76, 63
2, 154680, Note_on_c, 0, 76, 0
2, 154680, Note_on_c, 0, 79, 56
2, 154800, Note_on_c, 0, 79, 0
2, 154800, Note_on_c, 0, 76, 56
2, 154920, Note_on_c, 0, 76, 0
2, 154920, Note_on_c, 0, 79, 51
2, 155040, Note_on_c, 0, 79, 0
2, 155040, Note_on_c, 0, 74, 61
2, 155160, Note_on_c, 0, 74, 0
2, 155160, Note_on_c, 0, 77, 56
2, 155280, Note_on_c, 0, 77, 0
2, 155280, Note_on_c, 0, 74, 56
2, 155400, Note_on_c, 0, 74, 0
2, 155400, Note_on_c, 0, 77, 50
2, 155520, Note_on_c, 0, 77, 0
2, 155520, Note_on_c, 0, 72, 42
2, 155640, Note_on_c, 0, 72, 0
2, 155640, Note_on_c, 0, 75, 33
2, 155760, Note_on_c, 0, 75, 0
2, 155760, Note_on_c, 0, 72, 39
2, 155880, Note_on_c, 0, 72, 0
2, 155880, Note_on_c, 0, 75, 35
2, 156000, Note_on_c, 0, 75, 0
2, 156000, Note_on_c, 0, 72, 42
2, 156120, Note_on_c, 0, 72, 0
2, 156120, Note_on_c, 0, 75, 35
2, 156240, Note_on_c, 0, 75, 0
2, 156240, Note_on_c, 0, 72, 39
2, 156360, Note_on_c, 0, 72, 0
2, 156360, Note_on_c, 0, 75, 34
2, 156480, Note_on_c, 0, 75, 0
2, 156480, Note_on_c, 0, 72, 42
2, 156600, Note_on_c, 0, 72, 0
2, 156600, Note_on_c, 0, 74, 35
2, 156720, Note_on_c, 0, 74, 0
2, 156720, Note_on_c, 0, 72, 39
2, 156840, Note_on_c, 0, 72, 0
2, 156840, Note_on_c, 0, 74, 35
2, 156960, Note_on_c, 0, 74, 0
2, 156960, Note_on_c, 0, 72, 42
2, 157080, Note_on_c, 0, 72, 0
2, 157080, Note_on_c, 0, 74, 33
2, 157200, Note_on_c, 0, 74, 0
2, 157200, Note_on_c, 0, 72, 39
2, 157320, Note_on_c, 0, 72, 0
2, 157320, Note_on_c, 0, 74, 35
2, 157440, Note_on_c, 0, 74, 0
2, 157440, Note_on_c, 0, 69, 42
2, 157560, Note_on_c, 0, 69, 0
2, 157560, Note_on_c, 0, 74, 35
2, 157680, Note_on_c, 0, 74, 0
2, 157680, Note_on_c, 0, 69, 39
2, 157800, Note_on_c, 0, 69, 0
2, 157800, Note_on_c, 0, 74, 34
2, 157920, Note_on_c, 0, 74, 0
2, 157920, Note_on_c, 0, 70, 42
2, 158040, Note_on_c, 0, 70, 0
2, 158040, Note_on_c, 0, 74, 35
2, 158160, Note_on_c, 0, 74, 0
2, 158160, Note_on_c, 0, 70, 39
2, 158280, Note_on_c, 0, 70, 0
2, 158280, Note_on_c, 0, 74, 35
2, 158400, Note_on_c, 0, 74, 0
2, 158400, Note_on_c, 0, 70, 42
2, 158520, Note_on_c, 0, 70, 0
2, 158520, Note_on_c, 0, 73, 33
2, 158640, Note_on_c, 0, 73, 0
2, 158640, Note_on_c, 0, 70, 39
2, 158760, Note_on_c, 0, 70, 0
2, 158760, Note_on_c, 0, 73, 35
2, 158880, Note_on_c, 0, 73, 0
2, 158880, Note_on_c, 0, 70, 42
2, 159000, Note_on_c, 0, 70, 0
2, 159000, Note_on_c, 0, 72, 35
2, 159120, Note_on_c, 0, 72, 0
2, 159120, Note_on_c, 0, 70, 39
2, 159240, Note_on_c, 0, 70, 0
2, 159240, Note_on_c, 0, 72, 34
2, 159360, Note_on_c, 0, 72, 0
2, 159360, Note_on_c, 0, 70, 42
2, 159480, Note_on_c, 0, 70, 0
2, 159480, Note_on_c, 0, 72, 35
2, 159600, Note_on_c, 0, 72, 0
2, 159600, Note_on_c, 0, 70, 39
2, 159720, Note_on_c, 0, 70, 0
2, 159720, Note_on_c, 0, 72, 35
2, 159840, Note_on_c, 0, 72, 0
2, 159840, Note_on_c, 0, 70, 42
2, 159960, Note_on_c, 0, 70, 0
2, 159960, Note_on_c, 0, 72, 33
2, 160080, Note_on_c, 0, 72, 0
2, 160080, Note_on_c, 0, 70, 39
2, 160200, Note_on_c, 0, 70, 0
2, 160200, Note_on_c, 0, 72, 35
2, 160320, Note_on_c, 0, 72, 0
2, 160320, Note_on_c, 0, 67, 42
2, 160440, Note_on_c, 0, 67, 0
2, 160440, Note_on_c, 0, 72, 27
2, 160560, Note_on_c, 0, 72, 0
2, 160560, Note_on_c, 0, 67, 36
2, 160680, Note_on_c, 0, 67, 0
2, 160680, Note_on_c, 0, 72, 29
2, 160800, Note_on_c, 0, 72, 0
2, 160800, Note_on_c, 0, 69, 37
2, 160920, Note_on_c, 0, 69, 0
2, 160920, Note_on_c, 0, 72, 29
2, 161040, Note_on_c, 0, 72, 0
2, 161040, Note_on_c, 0, 69, 37
2, 161160, Note_on_c, 0, 69, 0
2, 161160, Note_on_c, 0, 72, 29
2, 161280, Note_on_c, 0, 72, 0
2, 161280, Note_on_c, 0, 71, 62
2, 161400, Note_on_c, 0, 71, 0
2, 161400, Note_on_c, 0, 77, 55
2, 161520, Note_on_c, 0, 77, 0
2, 161520, Note_on_c, 0, 71, 55
2, 161640, Note_on_c, 0, 71, 0
2, 161640, Note_on_c, 0, 77, 51
2, 161760, Note_on_c, 0, 77, 0
2, 161760, Note_on_c, 0, 71, 63
2, 161880, Note_on_c, 0, 71, 0
2, 161880, Note_on_c, 0, 77, 56
2, 162000, Note_on_c, 0, 77, 0
2, 162000, Note_on_c, 0, 71, 56
2, 162120, Note_on_c, 0, 71, 0
2, 162120, Note_on_c, 0, 77, 51
2, 162240, Note_on_c, 0, 77, 0
2, 162240, Note_on_c, 0, 71, 61
2, 162360, Note_on_c, 0, 71, 0
2, 162360, Note_on_c, 0, 77, 56
2, 162480, Note_on_c, 0, 77, 0
2, 162480, Note_on_c, 0, 71, 56
2, 162600, Note_on_c, 0, 71, 0
2, 162600, Note_on_c, 0, 77, 50
2, 162720, Note_on_c, 0, 77, 0
2, 162720, Note_on_c, 0, 76, 62
2, 162840, Note_on_c, 0, 76, 0
2, 162840, Note_on_c, 0, 72, 55
2, 162960, Note_on_c, 0, 72, 0
2, 162960, Note_on_c, 0, 71, 55
2, 163080, Note_on_c, 0, 71, 0
2, 163080, Note_on_c, 0, 72, 51
2, 163200, Note_on_c, 0, 72, 0
2, 163200, Note_on_c, 0, 74, 63
2, 163320, Note_on_c, 0, 74, 0
2, 163320, Note_on_c, 0, 72, 56
2, 163440, Note_on_c, 0, 72, 0
2, 163440, Note_on_c, 0, 71, 56
2, 163560, Note_on_c, 0, 71, 0
2, 163560, Note_on_c, 0, 72, 51
2, 163680, Note_on_c, 0, 72, 0
2, 163680, Note_on_c, 0, 77, 61
2, 163800, Note_on_c, 0, 77, 0
2, 163800, Note_on_c, 0, 74, 56
2, 163920, Note_on_c, 0, 74, 0
2, 163920, Note_on_c, 0, 72, 56
2, 164040, Note_on_c, 0, 72, 0
2, 164040, Note_on_c, 0, 74, 50
2, 164160, Note_on_c, 0, 74, 0
2, 164160, Note_on_c, 0, 79, 68
2, 164280, Note_on_c, 0, 79, 0
2, 164280, Note_on_c, 0, 76, 59
2, 164400, Note_on_c, 0, 76, 0
2, 164400, Note_on_c, 0, 74, 60
2, 164520, Note_on_c, 0, 74, 0
2, 164520, Note_on_c, 0, 76, 56
2, 164640, Note_on_c, 0, 76, 0
2, 164640, Note_on_c, 0, 77, 71
2, 164760, Note_on_c, 0, 77, 0
2, 164760, Note_on_c, 0, 76, 63
2, 164880, Note_on_c, 0, 76, 0
2, 164880, Note_on_c, 0, 74, 63
2, 165000, Note_on_c, 0, 74, 0
2, 165000, Note_on_c, 0, 76, 58
2, 165120, Note_on_c, 0, 76, 0
2, 165120, Note_on_c, 0, 81, 68
2, 165240, Note_on_c, 0, 81, 0
2, 165240, Note_on_c, 0, 77, 64
2, 165360, Note_on_c, 0, 77, 0
2, 165360, Note_on_c, 0, 76, 65
2, 165480, Note_on_c, 0, 76, 0
2, 165480, Note_on_c, 0, 77, 59
2, 165600, Note_on_c, 0, 77, 0
2, 165600, Note_on_c, 0, 82, 77
2, 165720, Note_on_c, 0, 82, 0
2, 165720, Note_on_c, 0, 81, 66
2, 165840, Note_on_c, 0, 81, 0
2, 165840, Note_on_c, 0, 79, 69
2, 165960, Note_on_c, 0, 79, 0
2, 165960, Note_on_c, 0, 81, 65
2, 166080, Note_on_c, 0, 81, 0
2, 166080, Note_on_c, 0, 82, 77
2, 166200, Note_on_c, 0, 82, 0
2, 166200, Note_on_c, 0, 81, 66
2, 166320, Note_on_c, 0, 81, 0
2, 166320, Note_on_c, 0, 79, 69
2, 166440, Note_on_c, 0, 79, 0
2, 166440, Note_on_c, 0, 81, 65
2, 166560, Note_on_c, 0, 81, 0
2, 166560, Note_on_c, 0, 82, 77
2, 166680, Note_on_c, 0, 82, 0
2, 166680, Note_on_c, 0, 81, 66
2, 166800, Note_on_c, 0, 81, 0
2, 166800, Note_on_c, 0, 79, 69
2, 166920, Note_on_c, 0, 79, 0
2, 166920, Note_on_c, 0, 81, 65
2, 167040, Note_on_c, 0, 81, 0
2, 167040, Note_on_c, 0, 82, 72
2, 167160, Note_on_c, 0, 82, 0
2, 167280, Note_on_c, 0, 81, 66
2, 167400, Note_on_c, 0, 81, 0
2, 167520, Note_on_c, 0, 79, 61
2, 167640, Note_on_c, 0, 79, 0
2, 167760, Note_on_c, 0, 77, 57
2, 167880, Note_on_c, 0, 77, 0
2, 168000, Note_on_c, 0, 76, 56
2, 168120, Note_on_c, 0, 76, 0
2, 168240, Note_on_c, 0, 74, 54
2, 168360, Note_on_c, 0, 74, 0
2, 168480, Note_on_c, 0, 72, 49
2, 168600, Note_on_c, 0, 72, 0
2, 168720, Note_on_c, 0, 71, 45
2, 168840, Note_on_c, 0, 71, 0
2, 168960, Note_on_c, 0, 70, 42
2, 169080, Note_on_c, 0, 70, 0
2, 169200, Note_on_c, 0, 69, 38
2, 169320, Note_on_c, 0, 69, 0
2, 169440, Note_on_c, 0, 68, 37
2, 169560, Note_on_c, 0, 68, 0
2, 169680, Note_on_c, 0, 67, 33
2, 169800, Note_on_c, 0, 67, 0
2, 169920, Note_on_c, 0, 65, 44
2, 170880, Note_on_c, 0, 65, 0
2, 170880, Note_on_c, 0, 69, 51
2, 171240, Note_on_c, 0, 69, 0
2, 171240, Note_on_c, 0, 65, 54
2, 171360, Note_on_c, 0, 65, 0
2, 171360, Note_on_c, 0, 72, 63
2, 172320, Note_on_c, 0, 72, 0
2, 172320, Note_on_c, 0, 70, 49
2, 172440, Note_on_c, 0, 70, 0
2, 172440, Note_on_c, 0, 69, 46
2, 172560, Note_on_c, 0, 69, 0
2, 172560, Note_on_c, 0, 67, 44
2, 172680, Note_on_c, 0, 67, 0
2, 172680, Note_on_c, 0, 65, 42
2, 172800, Note_on_c, 0, 65, 0
2, 172800, Note_on_c, 0, 64, 48
2, 173040, Note_on_c, 0, 64, 0
2, 173040, Note_on_c, 0, 67, 46
2, 173280, Note_on_c, 0, 67, 0
2, 173280, Note_on_c, 0, 70, 49
2, 173520, Note_on_c, 0, 70, 0
2, 173520, Note_on_c, 0, 74, 46
2, 173760, Note_on_c, 0, 74, 0
2, 173760, Note_on_c, 0, 72, 49
2, 174000, Note_on_c, 0, 72, 0
2, 174000, Note_on_c, 0, 70, 46
2, 174240, Note_on_c, 0, 70, 0
2, 174240, Note_on_c, 0, 64, 35
2, 174240, Note_on_c, 0, 68, 42
2, 174720, Note_on_c, 0, 68, 0
2, 174720, Note_on_c, 0, 64, 0
2, 174720, Note_on_c, 0, 65, 37
2, 174720, Note_on_c, 0, 69, 44
2, 175200, Note_on_c, 0, 69, 0
2, 175200, Note_on_c, 0, 65, 0
2, 175680, Note_on_c, 0, 75, 70
2, 176400, Note_on_c, 0, 75, 0
2, 176400, Note_on_c, 0, 79, 65
2, 176520, Note_on_c, 0, 79, 0
2, 176520, Note_on_c, 0, 75, 61
2, 176640, Note_on_c, 0, 75, 0
2, 176640, Note_on_c, 0, 74, 65
2, 176880, Note_on_c, 0, 74, 0
2, 176880, Note_on_c, 0, 77, 63
2, 177120, Note_on_c, 0, 77, 0
2, 177120, Note_on_c, 0, 69, 70
2, 177840, Note_on_c, 0, 69, 0
2, 177840, Note_on_c, 0, 72, 65
2, 177960, Note_on_c, 0, 72, 0
2, 177960, Note_on_c, 0, 69, 61
2, 178080, Note_on_c, 0, 69, 0
2, 178080, Note_on_c, 0, 70, 65
2, 178320, Note_on_c, 0, 70, 0
2, 178320, Note_on_c, 0, 72, 63
2, 178440, Note_on_c, 0, 72, 0
2, 178440, Note_on_c, 0, 74, 53
2, 178560, Note_on_c, 0, 74, 0
2, 178560, Note_on_c, 0, 75, 58
2, 178680, Note_on_c, 0, 75, 0
2, 178680, Note_on_c, 0, 77, 50
2, 178800, Note_on_c, 0, 77, 0
2, 178800, Note_on_c, 0, 75, 58
2, 178920, Note_on_c, 0, 75, 0
2, 178920, Note_on_c, 0, 74, 53
2, 179040, Note_on_c, 0, 74, 0
2, 179040, Note_on_c, 0, 75, 58
2, 179160, Note_on_c, 0, 75, 0
2, 179160, Note_on_c, 0, 79, 54
2, 179280, Note_on_c, 0, 79, 0
2, 179280, Note_on_c, 0, 77, 58
2, 179400, Note_on_c, 0, 77, 0
2, 179400, Note_on_c, 0, 75, 53
2, 179520, Note_on_c, 0, 75, 0
2, 179520, Note_on_c, 0, 74, 62
2, 179640, Note_on_c, 0, 74, 0
2, 180000, Note_on_c, 0, 72, 52
2, 180120, Note_on_c, 0, 72, 0
2, 180120, Note_on_c, 0, 74, 45
2, 180240, Note_on_c, 0, 74, 0
2, 180240, Note_on_c, 0, 72, 52
2, 180360, Note_on_c, 0, 72, 0
2, 180360, Note_on_c, 0, 71, 47
2, 180480, Note_on_c, 0, 71, 0
2, 180480, Note_on_c, 0, 72, 52
2, 180600, Note_on_c, 0, 72, 0
2, 180600, Note_on_c, 0, 75, 48
2, 180720, Note_on_c, 0, 75, 0
2, 180720, Note_on_c, 0, 74, 52
2, 180840, Note_on_c, 0, 74, 0
2, 180840, Note_on_c, 0, 72, 47
2, 180960, Note_on_c, 0, 72, 0
2, 180960, Note_on_c, 0, 70, 55
2, 181080, Note_on_c, 0, 70, 0
2, 181560, Note_on_c, 0, 71, 50
2, 181680, Note_on_c, 0, 71, 0
2, 181680, Note_on_c, 0, 72, 58
2, 181800, Note_on_c, 0, 72, 0
2, 181800, Note_on_c, 0, 71, 53
2, 181920, Note_on_c, 0, 71, 0
2, 181920, Note_on_c, 0, 79, 63
2, 182040, Note_on_c, 0, 79, 0
2, 182040, Note_on_c, 0, 71, 54
2, 182160, Note_on_c, 0, 71, 0
2, 182160, Note_on_c, 0, 72, 58
2, 182280, Note_on_c, 0, 72, 0
2, 182280, Note_on_c, 0, 71, 53
2, 182400, Note_on_c, 0, 71, 0
2, 182520, Note_on_c, 0, 69, 45
2, 182640, Note_on_c, 0, 69, 0
2, 182640, Note_on_c, 0, 72, 48
2, 182760, Note_on_c, 0, 72, 0
2, 182760, Note_on_c, 0, 77, 44
2, 182880, Note_on_c, 0, 77, 0
2, 183000, Note_on_c, 0, 71, 50
2, 183120, Note_on_c, 0, 71, 0
2, 183120, Note_on_c, 0, 72, 58
2, 183240, Note_on_c, 0, 72, 0
2, 183240, Note_on_c, 0, 71, 53
2, 183360, Note_on_c, 0, 71, 0
2, 183360, Note_on_c, 0, 79, 63
2, 183480, Note_on_c, 0, 79, 0
2, 183480, Note_on_c, 0, 71, 54
2, 183600, Note_on_c, 0, 71, 0
2, 183600, Note_on_c, 0, 72, 58
2, 183720, Note_on_c, 0, 72, 0
2, 183720, Note_on_c, 0, 71, 53
2, 183840, Note_on_c, 0, 71, 0
2, 183960, Note_on_c, 0, 69, 45
2, 184080, Note_on_c, 0, 69, 0
2, 184080, Note_on_c, 0, 72, 48
2, 184200, Note_on_c, 0, 72, 0
2, 184200, Note_on_c, 0, 77, 44
2, 184320, Note_on_c, 0, 77, 0
2, 184440, Note_on_c, 0, 74, 34
2, 184560, Note_on_c, 0, 74, 0
2, 184560, Note_on_c, 0, 70, 39
2, 184680, Note_on_c, 0, 70, 0
2, 184680, Note_on_c, 0, 67, 34
2, 184800, Note_on_c, 0, 67, 0
2, 184920, Note_on_c, 0, 72, 35
2, 185040, Note_on_c, 0, 72, 0
2, 185040, Note_on_c, 0, 69, 39
2, 185160, Note_on_c, 0, 69, 0
2, 185160, Note_on_c, 0, 65, 35
2, 185280, Note_on_c, 0, 65, 0
2, 185400, Note_on_c, 0, 70, 33
2, 185520, Note_on_c, 0, 70, 0
2, 185520, Note_on_c, 0, 67, 39
2, 185640, Note_on_c, 0, 67, 0
2, 185640, Note_on_c, 0, 64, 34
2, 185760, Note_on_c, 0, 64, 0
2, 186000, Note_on_c, 0, 65, 39
2, 186120, Note_on_c, 0, 65, 0
2, 186120, Note_on_c, 0, 67, 44
2, 186240, Note_on_c, 0, 67, 0
2, 186240, Note_on_c, 0, 69, 45
2, 186330, Note_on_c, 0, 69, 0
2, 186480, Note_on_c, 0, 69, 49
2, 186480, Note_on_c, 0, 65, 40
2, 186570, Note_on_c, 0, 65, 0
2, 186570, Note_on_c, 0, 69, 0
2, 186720, Note_on_c, 0, 69, 53
2, 186720, Note_on_c, 0, 65, 40
2, 186810, Note_on_c, 0, 65, 0
2, 186810, Note_on_c, 0, 69, 0
2, 186960, Note_on_c, 0, 69, 57
2, 186960, Note_on_c, 0, 65, 40
2, 187050, Note_on_c, 0, 65, 0
2, 187050, Note_on_c, 0, 69, 0
2, 187200, Note_on_c, 0, 72, 65
2, 187200, Note_on_c, 0, 69, 55
2, 187680, Note_on_c, 0, 69, 0
2, 187680, Note_on_c, 0, 72, 0
2, 187680, Note_on_c, 0, 70, 59
2, 187680, Note_on_c, 0, 67, 50
2, 188640, Note_on_c, 0, 67, 0
2, 188640, Note_on_c, 0, 70, 0
2, 188880, Note_on_c, 0, 77, 47
2, 189000, Note_on_c, 0, 77, 0
2, 189000, Note_on_c, 0, 72, 47
2, 189120, Note_on_c, 0, 72, 0
2, 189120, Note_on_c, 0, 69, 45
2, 189210, Note_on_c, 0, 69, 0
2, 189360, Note_on_c, 0, 69, 49
2, 189360, Note_on_c, 0, 65, 40
2, 189450, Note_on_c, 0, 65, 0
2, 189450, Note_on_c, 0, 69, 0
2, 189600, Note_on_c, 0, 69, 53
2, 189600, Note_on_c, 0, 65, 40
2, 189690, Note_on_c, 0, 65, 0
2, 189690, Note_on_c, 0, 69, 0
2, 189840, Note_on_c, 0, 69, 57
2, 189840, Note_on_c, 0, 65, 40
2, 189930, Note_on_c, 0, 65, 0
2, 189930, Note_on_c, 0, 69, 0
2, 190080, Note_on_c, 0, 72, 65
2, 190080, Note_on_c, 0, 69, 55
2, 190560, Note_on_c, 0, 69, 0
2, 190560, Note_on_c, 0, 72, 0
2, 190560, Note_on_c, 0, 70, 59
2, 190560, Note_on_c, 0, 67, 50
2, 191520, Note_on_c, 0, 67, 0
2, 191520, Note_on_c, 0, 70, 0
2, 191520, Note_on_c, 0, 65, 50
2, 191520, Note_on_c, 0, 69, 59
2, 191880, Note_on_c, 0, 69, 0
2, 191880, Note_on_c, 0, 65, 0
2, 191880, Note_on_c, 0, 70, 47
2, 191880, Note_on_c, 0, 67, 39
2, 192000, Note_on_c, 0, 67, 0
2, 192000, Note_on_c, 0, 70, 0
2, 192000, Note_on_c, 0, 69, 56
2, 192000, Note_on_c, 0, 65, 47
2, 192480, Note_on_c, 0, 65, 0
2, 192480, Note_on_c, 0, 69, 0
2, 192480, Note_on_c, 0, 67, 47
2, 192480, Note_on_c, 0, 64, 39
2, 192960, Note_on_c, 0, 64, 0
2, 192960, Note_on_c, 0, 67, 0
2, 193200, Note_on_c, 0, 77, 39
2, 193320, Note_on_c, 0, 77, 0
2, 193320, Note_on_c, 0, 79, 44
2, 193440, Note_on_c, 0, 79, 0
2, 193440, Note_on_c, 0, 81, 45
2, 193530, Note_on_c, 0, 81, 0
2, 193680, Note_on_c, 0, 81, 49
2, 193680, Note_on_c, 0, 77, 40
2, 193770, Note_on_c, 0, 77, 0
2, 193770, Note_on_c, 0, 81, 0
2, 193920, Note_on_c, 0, 81, 53
2, 193920, Note_on_c, 0, 77, 40
2, 194010, Note_on_c, 0, 77, 0
2, 194010, Note_on_c, 0, 81, 0
2, 194160, Note_on_c, 0, 81, 57
2, 194160, Note_on_c, 0, 77, 40
2, 194250, Note_on_c, 0, 77, 0
2, 194250, Note_on_c, 0, 81, 0
2, 194400, Note_on_c, 0, 84, 65
2, 194400, Note_on_c, 0, 81, 55
2, 194880, Note_on_c, 0, 81, 0
2, 194880, Note_on_c, 0, 84, 0
2, 194880, Note_on_c, 0, 82, 59
2, 194880, Note_on_c, 0, 79, 50
2, 195840, Note_on_c, 0, 79, 0
2, 195840, Note_on_c, 0, 82, 0
2, 196080, Note_on_c, 0, 89, 49
2, 196200, Note_on_c, 0, 89, 0
2, 196200, Note_on_c, 0, 84, 51
2, 196320, Note_on_c, 0, 84, 0
2, 196320, Note_on_c, 0, 81, 45
2, 196410, Note_on_c, 0, 81, 0
2, 196560, Note_on_c, 0, 81, 49
2, 196560, Note_on_c, 0, 77, 40
2, 196650, Note_on_c, 0, 77, 0
2, 196650, Note_on_c, 0, 81, 0
2, 196800, Note_on_c, 0, 81, 53
2, 196800, Note_on_c, 0, 77, 40
2, 196890, Note_on_c, 0, 77, 0
2, 196890, Note_on_c, 0, 81, 0
2, 197040, Note_on_c, 0, 81, 57
2, 197040, Note_on_c, 0, 77, 40
2, 197130, Note_on_c, 0, 77, 0
2, 197130, Note_on_c, 0, 81, 0
2, 197280, Note_on_c, 0, 84, 65
2, 197280, Note_on_c, 0, 81, 55
2, 197760, Note_on_c, 0, 81, 0
2, 197760, Note_on_c, 0, 84, 0
2, 197760, Note_on_c, 0, 82, 59
2, 197760, Note_on_c, 0, 79, 50
2, 198720, Note_on_c, 0, 79, 0
2, 198720, Note_on_c, 0, 82, 0
2, 198720, Note_on_c, 0, 81, 58
2, 198840, Note_on_c, 0, 81, 0
2, 198840, Note_on_c, 0, 77, 51
2, 198960, Note_on_c, 0, 77, 0
2, 198960, Note_on_c, 0, 82, 58
2, 199080, Note_on_c, 0, 82, 0
2, 199080, Note_on_c, 0, 79, 49
2, 199200, Note_on_c, 0, 79, 0
2, 199200, Note_on_c, 0, 81, 56
2, 199200, Note_on_c, 0, 77, 47
2, 199290, Note_on_c, 0, 77, 0
2, 199290, Note_on_c, 0, 81, 0
2, 199440, Note_on_c, 0, 81, 51
2, 199440, Note_on_c, 0, 77, 43
2, 199530, Note_on_c, 0, 77, 0
2, 199530, Note_on_c, 0, 81, 0
2, 199680, Note_on_c, 0, 79, 62
2, 199680, Note_on_c, 0, 76, 52
2, 199770, Note_on_c, 0, 76, 0
2, 199770, Note_on_c, 0, 79, 0
2, 199920, Note_on_c, 0, 79, 55
2, 199920, Note_on_c, 0, 76, 46
2, 200010, Note_on_c, 0, 76, 0
2, 200010, Note_on_c, 0, 79, 0
2, 200160, Note_on_c, 0, 77, 70
2, 200880, Note_on_c, 0, 77, 0
2, 200880, Note_on_c, 0, 76, 54
2, 201000, Note_on_c, 0, 76, 0
2, 201000, Note_on_c, 0, 74, 56
2, 201120, Note_on_c, 0, 74, 0
2, 201120, Note_on_c, 0, 72, 57
2, 201240, Note_on_c, 0, 72, 0
2, 201240, Note_on_c, 0, 70, 60
2, 201360, Note_on_c, 0, 70, 0
2, 201360, Note_on_c, 0, 69, 61
2, 201480, Note_on_c, 0, 69, 0
2, 201480, Note_on_c, 0, 67, 68
2, 201600, Note_on_c, 0, 67, 0
2, 201600, Note_on_c, 0, 65, 69
2, 202320, Note_on_c, 0, 65, 0
2, 202320, Note_on_c, 0, 64, 53
2, 202440, Note_on_c, 0, 64, 0
2, 202440, Note_on_c, 0, 62, 54
2, 202560, Note_on_c, 0, 62, 0
2, 202560, Note_on_c, 0, 60, 55
2, 202680, Note_on_c, 0, 60, 0
2, 202680, Note_on_c, 0, 58, 59
2, 202800, Note_on_c, 0, 58, 0
2, 202800, Note_on_c, 0, 57, 60
2, 202920, Note_on_c, 0, 57, 0
2, 202920, Note_on_c, 0, 55, 66
2, 203040, Note_on_c, 0, 55, 0
2, 203040, Note_on_c, 0, 53, 76
2, 203280, Note_on_c, 0, 53, 0
2, 203520, Note_on_c, 0, 57, 58
2, 203520, Note_on_c, 0, 60, 58
2, 203520, Note_on_c, 0, 65, 69
2, 203760, Note_on_c, 0, 65, 0
2, 203760, Note_on_c, 0, 60, 0
2, 203760, Note_on_c, 0, 57, 0
2, 203760, End_track
3, 0, Start_track
3, 0, Title_t, "Piano left"
3, 0, Program_c, 0, 0
3, 0, Note_on_c, 0, 41, 40
3, 240, Note_on_c, 0, 41, 0
3, 240, Note_on_c, 0, 53, 31
3, 480, Note_on_c, 0, 53, 0
3, 480, Note_on_c, 0, 41, 34
3, 720, Note_on_c, 0, 41, 0
3, 720, Note_on_c, 0, 53, 31
3, 960, Note_on_c, 0, 53, 0
3, 960, Note_on_c, 0, 41, 34
3, 1200, Note_on_c, 0, 41, 0
3, 1200, Note_on_c, 0, 53, 31
3, 1440, Note_on_c, 0, 53, 0
3, 1440, Note_on_c, 0, 41, 40
3, 1680, Note_on_c, 0, 41, 0
3, 1680, Note_on_c, 0, 53, 31
3, 1920, Note_on_c, 0, 53, 0
3, 1920, Note_on_c, 0, 41, 35
3, 2160, Note_on_c, 0, 41, 0
3, 2160, Note_on_c, 0, 53, 31
3, 2400, Note_on_c, 0, 53, 0
3, 2400, Note_on_c, 0, 41, 34
3, 2640, Note_on_c, 0, 41, 0
3, 2640, Note_on_c, 0, 53, 31
3, 2880, Note_on_c, 0, 53, 0
3, 2880, Note_on_c, 0, 41, 40
3, 3120, Note_on_c, 0, 41, 0
3, 3120, Note_on_c, 0, 53, 33
3, 3360, Note_on_c, 0, 53, 0
3, 3360, Note_on_c, 0, 41, 38
3, 3600, Note_on_c, 0, 41, 0
3, 3600, Note_on_c, 0, 53, 33
3, 3840, Note_on_c, 0, 53, 0
3, 3840, Note_on_c, 0, 41, 38
3, 4080, Note_on_c, 0, 41, 0
3, 4080, Note_on_c, 0, 53, 33
3, 4320, Note_on_c, 0, 53, 0
3, 4320, Note_on_c, 0, 41, 40
3, 4560, Note_on_c, 0, 41, 0
3, 4560, Note_on_c, 0, 53, 32
3, 4800, Note_on_c, 0, 53, 0
3, 4800, Note_on_c, 0, 41, 37
3, 5040, Note_on_c, 0, 41, 0
3, 5040, Note_on_c, 0, 53, 32
3, 5280, Note_on_c, 0, 53, 0
3, 5280, Note_on_c, 0, 41, 37
3, 5520, Note_on_c, 0, 41, 0
3, 5520, Note_on_c, 0, 53, 32
3, 5760, Note_on_c, 0, 53, 0
3, 5760, Note_on_c, 0, 41, 40
3, 6000, Note_on_c, 0, 41, 0
3, 6000, Note_on_c, 0, 53, 32
3, 6240, Note_on_c, 0, 53, 0
3, 6240, Note_on_c, 0, 53, 40
3, 6720, Note_on_c, 0, 53, 0
3, 7200, Note_on_c, 0, 41, 40
3, 7440, Note_on_c, 0, 41, 0
3, 7440, Note_on_c, 0, 53, 32
3, 7680, Note_on_c, 0, 53, 0
3, 7680, Note_on_c, 0, 53, 40
3, 8160, Note_on_c, 0, 53, 0
3, 8640, Note_on_c, 0, 46, 40
3, 9600, Note_on_c, 0, 46, 0
3, 9600, Note_on_c, 0, 47, 40
3, 10080, Note_on_c, 0, 47, 0
3, 10080, Note_on_c, 0, 48, 40
3, 10560, Note_on_c, 0, 48, 0
3, 10560, Note_on_c, 0, 36, 40
3, 11040, Note_on_c, 0, 36, 0
3, 11520, Note_on_c, 0, 41, 40
3, 11760, Note_on_c, 0, 41, 0
3, 11760, Note_on_c, 0, 53, 31
3, 12000, Note_on_c, 0, 53, 0
3, 12000, Note_on_c, 0, 41, 34
3, 12240, Note_on_c, 0, 41, 0
3, 12240, Note_on_c, 0, 53, 31
3, 12480, Note_on_c, 0, 53, 0
3, 12480, Note_on_c, 0, 41, 34
3, 12720, Note_on_c, 0, 41, 0
3, 12720, Note_on_c, 0, 53, 31
3, 12960, Note_on_c, 0, 53, 0
3, 12960, Note_on_c, 0, 41, 40
3, 13200, Note_on_c, 0, 41, 0
3, 13200, Note_on_c, 0, 53, 31
3, 13440, Note_on_c, 0, 53, 0
3, 13440, Note_on_c, 0, 41, 35
3, 13680, Note_on_c, 0, 41, 0
3, 13680, Note_on_c, 0, 53, 31
3, 13920, Note_on_c, 0, 53, 0
3, 13920, Note_on_c, 0, 41, 34
3, 14160, Note_on_c, 0, 41, 0
3, 14160, Note_on_c, 0, 53, 31
3, 14400, Note_on_c, 0, 53, 0
3, 14400, Note_on_c, 0, 41, 40
3, 14640, Note_on_c, 0, 41, 0
3, 14640, Note_on_c, 0, 53, 33
3, 14880, Note_on_c, 0, 53, 0
3, 14880, Note_on_c, 0, 41, 38
3, 15120, Note_on_c, 0, 41, 0
3, 15120, Note_on_c, 0, 53, 33
3, 15360, Note_on_c, 0, 53, 0
3, 15360, Note_on_c, 0, 41, 38
3, 15600, Note_on_c, 0, 41, 0
3, 15600, Note_on_c, 0, 53, 33
3, 15840, Note_on_c, 0, 53, 0
3, 15840, Note_on_c, 0, 41, 40
3, 16080, Note_on_c, 0, 41, 0
3, 16080, Note_on_c, 0, 53, 32
3, 16320, Note_on_c, 0, 53, 0
3, 16320, Note_on_c, 0, 41, 37
3, 16560, Note_on_c, 0, 41, 0
3, 16560, Note_on_c, 0, 53, 32
3, 16800, Note_on_c, 0, 53, 0
3, 16800, Note_on_c, 0, 41, 37
3, 17040, Note_on_c, 0, 41, 0
3, 17040, Note_on_c, 0, 53, 32
3, 17280, Note_on_c, 0, 53, 0
3, 17280, Note_on_c, 0, 59, 26
3, 17520, Note_on_c, 0, 59, 0
3, 17520, Note_on_c, 0, 55, 20
3, 17760, Note_on_c, 0, 55, 0
3, 17760, Note_on_c, 0, 59, 26
3, 18000, Note_on_c, 0, 59, 0
3, 18000, Note_on_c, 0, 55, 20
3, 18240, Note_on_c, 0, 55, 0
3, 18240, Note_on_c, 0, 60, 26
3, 18480, Note_on_c, 0, 60, 0
3, 18480, Note_on_c, 0, 55, 20
3, 18720, Note_on_c, 0, 55, 0
3, 18720, Note_on_c, 0, 65, 26
3, 18960, Note_on_c, 0, 65, 0
3, 18960, Note_on_c, 0, 55, 20
3, 19200, Note_on_c, 0, 55, 0
3, 19200, Note_on_c, 0, 65, 26
3, 19440, Note_on_c, 0, 65, 0
3, 19440, Note_on_c, 0, 55, 20
3, 19680, Note_on_c, 0, 55, 0
3, 19680, Note_on_c, 0, 64, 26
3, 19920, Note_on_c, 0, 64, 0
3, 19920, Note_on_c, 0, 55, 20
3, 20160, Note_on_c, 0, 55, 0
3, 20160, Note_on_c, 0, 59, 26
3, 20400, Note_on_c, 0, 59, 0
3, 20400, Note_on_c, 0, 55, 20
3, 20640, Note_on_c, 0, 55, 0
3, 20640, Note_on_c, 0, 59, 26
3, 20880, Note_on_c, 0, 59, 0
3, 20880, Note_on_c, 0, 55, 20
3, 21120, Note_on_c, 0, 55, 0
3, 21120, Note_on_c, 0, 60, 26
3, 21360, Note_on_c, 0, 60, 0
3, 21360, Note_on_c, 0, 55, 20
3, 21600, Note_on_c, 0, 55, 0
3, 21600, Note_on_c, 0, 65, 26
3, 21840, Note_on_c, 0, 65, 0
3, 21840, Note_on_c, 0, 55, 20
3, 22080, Note_on_c, 0, 55, 0
3, 22080, Note_on_c, 0, 65, 26
3, 22320, Note_on_c, 0, 65, 0
3, 22320, Note_on_c, 0, 55, 20
3, 22560, Note_on_c, 0, 55, 0
3, 22560, Note_on_c, 0, 64, 26
3, 22800, Note_on_c, 0, 64, 0
3, 22800, Note_on_c, 0, 60, 20
3, 23040, Note_on_c, 0, 60, 0
3, 23040, Note_on_c, 0, 65, 43
3, 23160, Note_on_c, 0, 65, 0
3, 23520, Note_on_c, 0, 67, 35
3, 23640, Note_on_c, 0, 67, 0
3, 24000, Note_on_c, 0, 55, 33
3, 24120, Note_on_c, 0, 55, 0
3, 24480, Note_on_c, 0, 60, 34
3, 24480, Note_on_c, 0, 64, 40
3, 24960, Note_on_c, 0, 64, 0
3, 24960, Note_on_c, 0, 60, 0
3, 26160, Note_on_c, 0, 67, 55
3, 26280, Note_on_c, 0, 67, 0
3, 26280, Note_on_c, 0, 66, 48
3, 26400, Note_on_c, 0, 66, 0
3, 26400, Note_on_c, 0, 67, 53
3, 26520, Note_on_c, 0, 67, 0
3, 26640, Note_on_c, 0, 55, 48
3, 26760, Note_on_c, 0, 55, 0
3, 26880, Note_on_c, 0, 57, 46
3, 27000, Note_on_c, 0, 57, 0
3, 27120, Note_on_c, 0, 59, 40
3, 27240, Note_on_c, 0, 59, 0
3, 27360, Note_on_c, 0, 60, 40
3, 27840, Note_on_c, 0, 60, 0
3, 29040, Note_on_c, 0, 67, 55
3, 29160, Note_on_c, 0, 67, 0
3, 29160, Note_on_c, 0, 66, 48
3, 29280, Note_on_c, 0, 66, 0
3, 29280, Note_on_c, 0, 67, 53
3, 29370, Note_on_c, 0, 67, 0
3, 29520, Note_on_c, 0, 55, 48
3, 29640, Note_on_c, 0, 55, 0
3, 29760, Note_on_c, 0, 57, 46
3, 29880, Note_on_c, 0, 57, 0
3, 30000, Note_on_c, 0, 59, 40
3, 30120, Note_on_c, 0, 59, 0
3, 30240, Note_on_c, 0, 60, 40
3, 30600, Note_on_c, 0, 60, 0
3, 30600, Note_on_c, 0, 53, 33
3, 30720, Note_on_c, 0, 53, 0
3, 30720, Note_on_c, 0, 55, 40
3, 31200, Note_on_c, 0, 55, 0
3, 31200, Note_on_c, 0, 43, 38
3, 31680, Note_on_c, 0, 43, 0
3, 31680, Note_on_c, 0, 48, 40
3, 32160, Note_on_c, 0, 48, 0
3, 33360, Note_on_c, 0, 55, 49
3, 33480, Note_on_c, 0, 55, 0
3, 33480, Note_on_c, 0, 54, 43
3, 33600, Note_on_c, 0, 54, 0
3, 33600, Note_on_c, 0, 55, 47
3, 33690, Note_on_c, 0, 55, 0
3, 33840, Note_on_c, 0, 43, 43
3, 33960, Note_on_c, 0, 43, 0
3, 34080, Note_on_c, 0, 45, 41
3, 34200, Note_on_c, 0, 45, 0
3, 34320, Note_on_c, 0, 47, 36
3, 34440, Note_on_c, 0, 47, 0
3, 34560, Note_on_c, 0, 48, 40
3, 35040, Note_on_c, 0, 48, 0
3, 36240, Note_on_c, 0, 55, 49
3, 36360, Note_on_c, 0, 55, 0
3, 36360, Note_on_c, 0, 54, 43
3, 36480, Note_on_c, 0, 54, 0
3, 36480, Note_on_c, 0, 55, 47
3, 36570, Note_on_c, 0, 55, 0
3, 36720, Note_on_c, 0, 43, 43
3, 36840, Note_on_c, 0, 43, 0
3, 36960, Note_on_c, 0, 45, 41
3, 37080, Note_on_c, 0, 45, 0
3, 37200, Note_on_c, 0, 47, 36
3, 37320, Note_on_c, 0, 47, 0
3, 37440, Note_on_c, 0, 48, 36
3, 37680, Note_on_c, 0, 48, 0
3, 37680, Note_on_c, 0, 41, 32
3, 37920, Note_on_c, 0, 41, 0
3, 37920, Note_on_c, 0, 43, 40
3, 38400, Note_on_c, 0, 43, 0
3, 38400, Note_on_c, 0, 43, 39
3, 38880, Note_on_c, 0, 43, 0
3, 38880, Note_on_c, 0, 36, 57
3, 39120, Note_on_c, 0, 36, 0
3, 39120, Note_on_c, 0, 48, 36
3, 39360, Note_on_c, 0, 48, 0
3, 39360, Note_on_c, 0, 48, 47
3, 39840, Note_on_c, 0, 48, 0
3, 40320, Note_on_c, 0, 36, 58
3, 40560, Note_on_c, 0, 36, 0
3, 40560, Note_on_c, 0, 48, 36
3, 40800, Note_on_c, 0, 48, 0
3, 40800, Note_on_c, 0, 48, 50
3, 41280, Note_on_c, 0, 48, 0
3, 41760, Note_on_c, 0, 48, 51
3, 41760, Note_on_c, 0, 36, 43
3, 42000, Note_on_c, 0, 36, 0
3, 42000, Note_on_c, 0, 48, 0
3, 42240, Note_on_c, 0, 48, 39
3, 42240, Note_on_c, 0, 36, 43
3, 42480, Note_on_c, 0, 36, 0
3, 42480, Note_on_c, 0, 48, 0
3, 43200, Note_on_c, 0, 41, 40
3, 43440, Note_on_c, 0, 41, 0
3, 43440, Note_on_c, 0, 53, 31
3, 43680, Note_on_c, 0, 53, 0
3, 43680, Note_on_c, 0, 41, 34
3, 43920, Note_on_c, 0, 41, 0
3, 43920, Note_on_c, 0, 53, 31
3, 44160, Note_on_c, 0, 53, 0
3, 44160, Note_on_c, 0, 41, 34
3, 44400, Note_on_c, 0, 41, 0
3, 44400, Note_on_c, 0, 53, 31
3, 44640, Note_on_c, 0, 53, 0
3, 44640, Note_on_c, 0, 41, 40
3, 44880, Note_on_c, 0, 41, 0
3, 44880, Note_on_c, 0, 53, 31
3, 45120, Note_on_c, 0, 53, 0
3, 45120, Note_on_c, 0, 41, 35
3, 45360, Note_on_c, 0, 41, 0
3, 45360, Note_on_c, 0, 53, 31
3, 45600, Note_on_c, 0, 53, 0
3, 45600, Note_on_c, 0, 41, 34
3, 45840, Note_on_c, 0, 41, 0
3, 45840, Note_on_c, 0, 53, 31
3, 46080, Note_on_c, 0, 53, 0
3, 46080, Note_on_c, 0, 41, 40
3, 46320, Note_on_c, 0, 41, 0
3, 46320, Note_on_c, 0, 53, 33
3, 46560, Note_on_c, 0, 53, 0
3, 46560, Note_on_c, 0, 41, 38
3, 46800, Note_on_c, 0, 41, 0
3, 46800, Note_on_c, 0, 53, 33
3, 47040, Note_on_c, 0, 53, 0
3, 47040, Note_on_c, 0, 41, 38
3, 47280, Note_on_c, 0, 41, 0
3, 47280, Note_on_c, 0, 53, 33
3, 47520, Note_on_c, 0, 53, 0
3, 47520, Note_on_c, 0, 41, 40
3, 47760, Note_on_c, 0, 41, 0
3, 47760, Note_on_c, 0, 53, 32
3, 48000, Note_on_c, 0, 53, 0
3, 48000, Note_on_c, 0, 41, 37
3, 48240, Note_on_c, 0, 41, 0
3, 48240, Note_on_c, 0, 53, 32
3, 48480, Note_on_c, 0, 53, 0
3, 48480, Note_on_c, 0, 41, 37
3, 48720, Note_on_c, 0, 41, 0
3, 48720, Note_on_c, 0, 53, 32
3, 48960, Note_on_c, 0, 53, 0
3, 48960, Note_on_c, 0, 41, 40
3, 49200, Note_on_c, 0, 41, 0
3, 49200, Note_on_c, 0, 53, 32
3, 49440, Note_on_c, 0, 53, 0
3, 49440, Note_on_c, 0, 53, 40
3, 49920, Note_on_c, 0, 53, 0
3, 50400, Note_on_c, 0, 41, 40
3, 50640, Note_on_c, 0, 41, 0
3, 50640, Note_on_c, 0, 53, 32
3, 50880, Note_on_c, 0, 53, 0
3, 50880, Note_on_c, 0, 53, 40
3, 51360, Note_on_c, 0, 53, 0
3, 51840, Note_on_c, 0, 46, 40
3, 52800, Note_on_c, 0, 46, 0
3, 52800, Note_on_c, 0, 47, 40
3, 53280, Note_on_c, 0, 47, 0
3, 53280, Note_on_c, 0, 48, 40
3, 53760, Note_on_c, 0, 48, 0
3, 53760, Note_on_c, 0, 36, 40
3, 54240, Note_on_c, 0, 36, 0
3, 54720, Note_on_c, 0, 41, 40
3, 54960, Note_on_c, 0, 41, 0
3, 54960, Note_on_c, 0, 53, 31
3, 55200, Note_on_c, 0, 53, 0
3, 55200, Note_on_c, 0, 41, 34
3, 55440, Note_on_c, 0, 41, 0
3, 55440, Note_on_c, 0, 53, 31
3, 55680, Note_on_c, 0, 53, 0
3, 55680, Note_on_c, 0, 41, 34
3, 55920, Note_on_c, 0, 41, 0
3, 55920, Note_on_c, 0, 53, 31
3, 56160, Note_on_c, 0, 53, 0
3, 56160, Note_on_c, 0, 41, 40
3, 56400, Note_on_c, 0, 41, 0
3, 56400, Note_on_c, 0, 53, 31
3, 56640, Note_on_c, 0, 53, 0
3, 56640, Note_on_c, 0, 41, 35
3, 56880, Note_on_c, 0, 41, 0
3, 56880, Note_on_c, 0, 53, 31
3, 57120, Note_on_c, 0, 53, 0
3, 57120, Note_on_c, 0, 41, 34
3, 57360, Note_on_c, 0, 41, 0
3, 57360, Note_on_c, 0, 53, 31
3, 57600, Note_on_c, 0, 53, 0
3, 57600, Note_on_c, 0, 41, 40
3, 57840, Note_on_c, 0, 41, 0
3, 57840, Note_on_c, 0, 53, 33
3, 58080, Note_on_c, 0, 53, 0
3, 58080, Note_on_c, 0, 41, 38
3, 58320, Note_on_c, 0, 41, 0
3, 58320, Note_on_c, 0, 53, 33
3, 58560, Note_on_c, 0, 53, 0
3, 58560, Note_on_c, 0, 41, 38
3, 58800, Note_on_c, 0, 41, 0
3, 58800, Note_on_c, 0, 53, 33
3, 59040, Note_on_c, 0, 53, 0
3, 59040, Note_on_c, 0, 41, 40
3, 59280, Note_on_c, 0, 41, 0
3, 59280, Note_on_c, 0, 53, 32
3, 59520, Note_on_c, 0, 53, 0
3, 59520, Note_on_c, 0, 41, 37
3, 59760, Note_on_c, 0, 41, 0
3, 59760, Note_on_c, 0, 53, 32
3, 60000, Note_on_c, 0, 53, 0
3, 60000, Note_on_c, 0, 41, 37
3, 60240, Note_on_c, 0, 41, 0
3, 60240, Note_on_c, 0, 53, 32
3, 60480, Note_on_c, 0, 53, 0
3, 60480, Note_on_c, 0, 59, 26
3, 60720, Note_on_c, 0, 59, 0
3, 60720, Note_on_c, 0, 55, 20
3, 60960, Note_on_c, 0, 55, 0
3, 60960, Note_on_c, 0, 59, 26
3, 61200, Note_on_c, 0, 59, 0
3, 61200, Note_on_c, 0, 55, 20
3, 61440, Note_on_c, 0, 55, 0
3, 61440, Note_on_c, 0, 60, 26
3, 61680, Note_on_c, 0, 60, 0
3, 61680, Note_on_c, 0, 55, 20
3, 61920, Note_on_c, 0, 55, 0
3, 61920, Note_on_c, 0, 65, 26
3, 62160, Note_on_c, 0, 65, 0
3, 62160, Note_on_c, 0, 55, 20
3, 62400, Note_on_c, 0, 55, 0
3, 62400, Note_on_c, 0, 65, 26
3, 62640, Note_on_c, 0, 65, 0
3, 62640, Note_on_c, 0, 55, 20
3, 62880, Note_on_c, 0, 55, 0
3, 62880, Note_on_c, 0, 64, 26
3, 63120, Note_on_c, 0, 64, 0
3, 63120, Note_on_c, 0, 55, 20
3, 63360, Note_on_c, 0, 55, 0
3, 63360, Note_on_c, 0, 59, 26
3, 63600, Note_on_c, 0, 59, 0
3, 63600, Note_on_c, 0, 55, 20
3, 63840, Note_on_c, 0, 55, 0
3, 63840, Note_on_c, 0, 59, 26
3, 64080, Note_on_c, 0, 59, 0
3, 64080, Note_on_c, 0, 55, 20
3, 64320, Note_on_c, 0, 55, 0
3, 64320, Note_on_c, 0, 60, 26
3, 64560, Note_on_c, 0, 60, 0
3, 64560, Note_on_c, 0, 55, 20
3, 64800, Note_on_c, 0, 55, 0
3, 64800, Note_on_c, 0, 65, 26
3, 65040, Note_on_c, 0, 65, 0
3, 65040, Note_on_c, 0, 55, 20
3, 65280, Note_on_c, 0, 55, 0
3, 65280, Note_on_c, 0, 65, 26
3, 65520, Note_on_c, 0, 65, 0
3, 65520, Note_on_c, 0, 55, 20
3, 65760, Note_on_c, 0, 55, 0
3, 65760, Note_on_c, 0, 64, 26
3, 66000, Note_on_c, 0, 64, 0
3, 66000, Note_on_c, 0, 60, 20
3, 66240, Note_on_c, 0, 60, 0
3, 66240, Note_on_c, 0, 65, 43
3, 66360, Note_on_c, 0, 65, 0
3, 66720, Note_on_c, 0, 67, 35
3, 66840, Note_on_c, 0, 67, 0
3, 67200, Note_on_c, 0, 55, 33
3, 67320, Note_on_c, 0, 55, 0
3, 67680, Note_on_c, 0, 60, 34
3, 67680, Note_on_c, 0, 64, 40
3, 68160, Note_on_c, 0, 64, 0
3, 68160, Note_on_c, 0, 60, 0
3, 69360, Note_on_c, 0, 67, 55
3, 69480, Note_on_c, 0, 67, 0
3, 69480, Note_on_c, 0, 66, 48
3, 69600, Note_on_c, 0, 66, 0
3, 69600, Note_on_c, 0, 67, 53
3, 69690, Note_on_c, 0, 67, 0
3, 69840, Note_on_c, 0, 55, 48
3, 69960, Note_on_c, 0, 55, 0
3, 70080, Note_on_c, 0, 57, 46
3, 70200, Note_on_c, 0, 57, 0
3, 70320, Note_on_c, 0, 59, 40
3, 70440, Note_on_c, 0, 59, 0
3, 70560, Note_on_c, 0, 60, 40
3, 71040, Note_on_c, 0, 60, 0
3, 72240, Note_on_c, 0, 67, 55
3, 72360, Note_on_c, 0, 67, 0
3, 72360, Note_on_c, 0, 66, 48
3, 72480, Note_on_c, 0, 66, 0
3, 72480, Note_on_c, 0, 67, 53
3, 72570, Note_on_c, 0, 67, 0
3, 72720, Note_on_c, 0, 55, 48
3, 72840, Note_on_c, 0, 55, 0
3, 72960, Note_on_c, 0, 57, 46
3, 73080, Note_on_c, 0, 57, 0
3, 73200, Note_on_c, 0, 59, 40
3, 73320, Note_on_c, 0, 59, 0
3, 73440, Note_on_c, 0, 60, 40
3, 73800, Note_on_c, 0, 60, 0
3, 73800, Note_on_c, 0, 53, 33
3, 73920, Note_on_c, 0, 53, 0
3, 73920, Note_on_c, 0, 55, 40
3, 74400, Note_on_c, 0, 55, 0
3, 74400, Note_on_c, 0, 43, 38
3, 74880, Note_on_c, 0, 43, 0
3, 74880, Note_on_c, 0, 48, 40
3, 75360, Note_on_c, 0, 48, 0
3, 76560, Note_on_c, 0, 55, 49
3, 76680, Note_on_c, 0, 55, 0
3, 76680, Note_on_c, 0, 54, 43
3, 76800, Note_on_c, 0, 54, 0
3, 76800, Note_on_c, 0, 55, 47
3, 76890, Note_on_c, 0, 55, 0
3, 77040, Note_on_c, 0, 43, 43
3, 77160, Note_on_c, 0, 43, 0
3, 77280, Note_on_c, 0, 45, 41
3, 77400, Note_on_c, 0, 45, 0
3, 77520, Note_on_c, 0, 47, 36
3, 77640, Note_on_c, 0, 47, 0
3, 77760, Note_on_c, 0, 48, 40
3, 78240, Note_on_c, 0, 48, 0
3, 79440, Note_on_c, 0, 55, 49
3, 79560, Note_on_c, 0, 55, 0
3, 79560, Note_on_c, 0, 54, 43
3, 79680, Note_on_c, 0, 54, 0
3, 79680, Note_on_c, 0, 55, 47
3, 79770, Note_on_c, 0, 55, 0
3, 79920, Note_on_c, 0, 43, 43
3, 80040, Note_on_c, 0, 43, 0
3, 80160, Note_on_c, 0, 45, 41
3, 80280, Note_on_c, 0, 45, 0
3, 80400, Note_on_c, 0, 47, 36
3, 80520, Note_on_c, 0, 47, 0
3, 80640, Note_on_c, 0, 48, 36
3, 80880, Note_on_c, 0, 48, 0
3, 80880, Note_on_c, 0, 41, 32
3, 81120, Note_on_c, 0, 41, 0
3, 81120, Note_on_c, 0, 43, 40
3, 81600, Note_on_c, 0, 43, 0
3, 81600, Note_on_c, 0, 43, 39
3, 82080, Note_on_c, 0, 43, 0
3, 82080, Note_on_c, 0, 36, 57
3, 82320, Note_on_c, 0, 36, 0
3, 82320, Note_on_c, 0, 48, 36
3, 82560, Note_on_c, 0, 48, 0
3, 82560, Note_on_c, 0, 48, 47
3, 83040, Note_on_c, 0, 48, 0
3, 83520, Note_on_c, 0, 36, 58
3, 83760, Note_on_c, 0, 36, 0
3, 83760, Note_on_c, 0, 48, 36
3, 84000, Note_on_c, 0, 48, 0
3, 84000, Note_on_c, 0, 48, 50
3, 84480, Note_on_c, 0, 48, 0
3, 84960, Note_on_c, 0, 48, 51
3, 84960, Note_on_c, 0, 36, 43
3, 85200, Note_on_c, 0, 36, 0
3, 85200, Note_on_c, 0, 48, 0
3, 85440, Note_on_c, 0, 48, 39
3, 85440, Note_on_c, 0, 36, 43
3, 85680, Note_on_c, 0, 36, 0
3, 85680, Note_on_c, 0, 48, 0
3, 86400, Note_on_c, 0, 60, 26
3, 87840, Note_on_c, 0, 60, 0
3, 87840, Note_on_c, 0, 60, 38
3, 89280, Note_on_c, 0, 60, 0
3, 89280, Note_on_c, 0, 60, 43
3, 90720, Note_on_c, 0, 60, 0
3, 90720, Note_on_c, 0, 61, 47
3, 90960, Note_on_c, 0, 61, 0
3, 90960, Note_on_c, 0, 57, 41
3, 91200, Note_on_c, 0, 57, 0
3, 91200, Note_on_c, 0, 61, 47
3, 91440, Note_on_c, 0, 61, 0
3, 91440, Note_on_c, 0, 57, 42
3, 91680, Note_on_c, 0, 57, 0
3, 91680, Note_on_c, 0, 61, 46
3, 91920, Note_on_c, 0, 61, 0
3, 91920, Note_on_c, 0, 57, 40
3, 92160, Note_on_c, 0, 57, 0
3, 92160, Note_on_c, 0, 62, 47
3, 92400, Note_on_c, 0, 62, 0
3, 92400, Note_on_c, 0, 57, 41
3, 92640, Note_on_c, 0, 57, 0
3, 92640, Note_on_c, 0, 64, 47
3, 92880, Note_on_c, 0, 64, 0
3, 92880, Note_on_c, 0, 57, 42
3, 93120, Note_on_c, 0, 57, 0
3, 93120, Note_on_c, 0, 65, 46
3, 93360, Note_on_c, 0, 65, 0
3, 93360, Note_on_c, 0, 57, 40
3, 93600, Note_on_c, 0, 57, 0
3, 93600, Note_on_c, 0, 61, 47
3, 93840, Note_on_c, 0, 61, 0
3, 93840, Note_on_c, 0, 57, 41
3, 94080, Note_on_c, 0, 57, 0
3, 94080, Note_on_c, 0, 61, 47
3, 94320, Note_on_c, 0, 61, 0
3, 94320, Note_on_c, 0, 57, 42
3, 94560, Note_on_c, 0, 57, 0
3, 94560, Note_on_c, 0, 61, 46
3, 94800, Note_on_c, 0, 61, 0
3, 94800, Note_on_c, 0, 57, 40
3, 95040, Note_on_c, 0, 57, 0
3, 95040, Note_on_c, 0, 62, 47
3, 95280, Note_on_c, 0, 62, 0
3, 95280, Note_on_c, 0, 57, 41
3, 95520, Note_on_c, 0, 57, 0
3, 95520, Note_on_c, 0, 64, 47
3, 95760, Note_on_c, 0, 64, 0
3, 95760, Note_on_c, 0, 57, 42
3, 96000, Note_on_c, 0, 57, 0
3, 96000, Note_on_c, 0, 65, 46
3, 96240, Note_on_c, 0, 65, 0
3, 96240, Note_on_c, 0, 57, 40
3, 96480, Note_on_c, 0, 57, 0
3, 96480, Note_on_c, 0, 66, 37
3, 96600, Note_on_c, 0, 66, 0
3, 96720, Note_on_c, 0, 66, 26
3, 96840, Note_on_c, 0, 66, 0
3, 96960, Note_on_c, 0, 66, 32
3, 97440, Note_on_c, 0, 66, 0
3, 97920, Note_on_c, 0, 67, 37
3, 98040, Note_on_c, 0, 67, 0
3, 98160, Note_on_c, 0, 67, 26
3, 98280, Note_on_c, 0, 67, 0
3, 98400, Note_on_c, 0, 67, 32
3, 98880, Note_on_c, 0, 67, 0
3, 99360, Note_on_c, 0, 64, 37
3, 99480, Note_on_c, 0, 64, 0
3, 99600, Note_on_c, 0, 64, 26
3, 99720, Note_on_c, 0, 64, 0
3, 99840, Note_on_c, 0, 64, 32
3, 100320, Note_on_c, 0, 64, 0
3, 100800, Note_on_c, 0, 65, 37
3, 100920, Note_on_c, 0, 65, 0
3, 101040, Note_on_c, 0, 65, 26
3, 101160, Note_on_c, 0, 65, 0
3, 101280, Note_on_c, 0, 65, 32
3, 101760, Note_on_c, 0, 65, 0
3, 102240, Note_on_c, 0, 55, 39
3, 102240, Note_on_c, 0, 62, 47
3, 102480, Note_on_c, 0, 62, 0
3, 102480, Note_on_c, 0, 55, 0
3, 102480, Note_on_c, 0, 55, 34
3, 102480, Note_on_c, 0, 62, 41
3, 102720, Note_on_c, 0, 62, 0
3, 102720, Note_on_c, 0, 55, 0
3, 102720, Note_on_c, 0, 55, 34
3, 102720, Note_on_c, 0, 62, 47
3, 102960, Note_on_c, 0, 62, 0
3, 102960, Note_on_c, 0, 55, 0
3, 102960, Note_on_c, 0, 55, 34
3, 102960, Note_on_c, 0, 62, 42
3, 103200, Note_on_c, 0, 62, 0
3, 103200, Note_on_c, 0, 55, 0
3, 103200, Note_on_c, 0, 55, 34
3, 103200, Note_on_c, 0, 62, 46
3, 103440, Note_on_c, 0, 62, 0
3, 103440, Note_on_c, 0, 55, 0
3, 103440, Note_on_c, 0, 55, 34
3, 103440, Note_on_c, 0, 62, 40
3, 103680, Note_on_c, 0, 62, 0
3, 103680, Note_on_c, 0, 55, 0
3, 103680, Note_on_c, 0, 48, 47
3, 103920, Note_on_c, 0, 48, 0
3, 103920, Note_on_c, 0, 60, 41
3, 104160, Note_on_c, 0, 60, 0
3, 104160, Note_on_c, 0, 48, 47
3, 104400, Note_on_c, 0, 48, 0
3, 104400, Note_on_c, 0, 60, 42
3, 104640, Note_on_c, 0, 60, 0
3, 104640, Note_on_c, 0, 48, 46
3, 104880, Note_on_c, 0, 48, 0
3, 104880, Note_on_c, 0, 60, 40
3, 105120, Note_on_c, 0, 60, 0
3, 105120, Note_on_c, 0, 48, 49
3, 105360, Note_on_c, 0, 48, 0
3, 105360, Note_on_c, 0, 60, 43
3, 105600, Note_on_c, 0, 60, 0
3, 105600, Note_on_c, 0, 48, 50
3, 105840, Note_on_c, 0, 48, 0
3, 105840, Note_on_c, 0, 60, 46
3, 106080, Note_on_c, 0, 60, 0
3, 106080, Note_on_c, 0, 48, 51
3, 106320, Note_on_c, 0, 48, 0
3, 106320, Note_on_c, 0, 60, 45
3, 106560, Note_on_c, 0, 60, 0
3, 106560, Note_on_c, 0, 48, 53
3, 106800, Note_on_c, 0, 48, 0
3, 106800, Note_on_c, 0, 60, 47
3, 107040, Note_on_c, 0, 60, 0
3, 107040, Note_on_c, 0, 48, 53
3, 107280, Note_on_c, 0, 48, 0
3, 107280, Note_on_c, 0, 60, 47
3, 107520, Note_on_c, 0, 60, 0
3, 107520, Note_on_c, 0, 48, 53
3, 107760, Note_on_c, 0, 48, 0
3, 107760, Note_on_c, 0, 60, 47
3, 108000, Note_on_c, 0, 60, 0
3, 108000, Note_on_c, 0, 48, 53
3, 108480, Note_on_c, 0, 48, 0
3, 110880, Note_on_c, 0, 41, 25
3, 111120, Note_on_c, 0, 41, 0
3, 111120, Note_on_c, 0, 53, 18
3, 111360, Note_on_c, 0, 53, 0
3, 111360, Note_on_c, 0, 41, 20
3, 111600, Note_on_c, 0, 41, 0
3, 111600, Note_on_c, 0, 53, 18
3, 111840, Note_on_c, 0, 53, 0
3, 111840, Note_on_c, 0, 41, 30
3, 112080, Note_on_c, 0, 41, 0
3, 112080, Note_on_c, 0, 53, 26
3, 112320, Note_on_c, 0, 53, 0
3, 112320, Note_on_c, 0, 41, 36
3, 112560, Note_on_c, 0, 41, 0
3, 112560, Note_on_c, 0, 53, 21
3, 112800, Note_on_c, 0, 53, 0
3, 112800, Note_on_c, 0, 41, 24
3, 113040, Note_on_c, 0, 41, 0
3, 113040, Note_on_c, 0, 53, 21
3, 113280, Note_on_c, 0, 53, 0
3, 113280, Note_on_c, 0, 41, 23
3, 113520, Note_on_c, 0, 41, 0
3, 113520, Note_on_c, 0, 53, 21
3, 113760, Note_on_c, 0, 53, 0
3, 113760, Note_on_c, 0, 41, 28
3, 114000, Note_on_c, 0, 41, 0
3, 114000, Note_on_c, 0, 53, 23
3, 114240, Note_on_c, 0, 53, 0
3, 114240, Note_on_c, 0, 41, 26
3, 114480, Note_on_c, 0, 41, 0
3, 114480, Note_on_c, 0, 53, 23
3, 114720, Note_on_c, 0, 53, 0
3, 114720, Note_on_c, 0, 41, 26
3, 114960, Note_on_c, 0, 41, 0
3, 114960, Note_on_c, 0, 53, 23
3, 115200, Note_on_c, 0, 53, 0
3, 115200, Note_on_c, 0, 41, 28
3, 115440, Note_on_c, 0, 41, 0
3, 115440, Note_on_c, 0, 53, 22
3, 115680, Note_on_c, 0, 53, 0
3, 115680, Note_on_c, 0, 41, 25
3, 115920, Note_on_c, 0, 41, 0
3, 115920, Note_on_c, 0, 53, 22
3, 116160, Note_on_c, 0, 53, 0
3, 116160, Note_on_c, 0, 41, 25
3, 116400, Note_on_c, 0, 41, 0
3, 116400, Note_on_c, 0, 53, 22
3, 116640, Note_on_c, 0, 53, 0
3, 116640, Note_on_c, 0, 57, 40
3, 116880, Note_on_c, 0, 57, 0
3, 116880, Note_on_c, 0, 53, 32
3, 117120, Note_on_c, 0, 53, 0
3, 117120, Note_on_c, 0, 57, 37
3, 117360, Note_on_c, 0, 57, 0
3, 117360, Note_on_c, 0, 53, 32
3, 117600, Note_on_c, 0, 53, 0
3, 117600, Note_on_c, 0, 58, 37
3, 117840, Note_on_c, 0, 58, 0
3, 117840, Note_on_c, 0, 53, 32
3, 118080, Note_on_c, 0, 53, 0
3, 118080, Note_on_c, 0, 63, 40
3, 118320, Note_on_c, 0, 63, 0
3, 118320, Note_on_c, 0, 53, 32
3, 118560, Note_on_c, 0, 53, 0
3, 118560, Note_on_c, 0, 63, 37
3, 118800, Note_on_c, 0, 63, 0
3, 118800, Note_on_c, 0, 53, 32
3, 119040, Note_on_c, 0, 53, 0
3, 119040, Note_on_c, 0, 62, 39
3, 119280, Note_on_c, 0, 62, 0
3, 119280, Note_on_c, 0, 53, 32
3, 119520, Note_on_c, 0, 53, 0
3, 119520, Note_on_c, 0, 57, 40
3, 119760, Note_on_c, 0, 57, 0
3, 119760, Note_on_c, 0, 53, 32
3, 120000, Note_on_c, 0, 53, 0
3, 120000, Note_on_c, 0, 57, 38
3, 120240, Note_on_c, 0, 57, 0
3, 120240, Note_on_c, 0, 53, 32
3, 120480, Note_on_c, 0, 53, 0
3, 120480, Note_on_c, 0, 58, 38
3, 120720, Note_on_c, 0, 58, 0
3, 120720, Note_on_c, 0, 53, 32
3, 120960, Note_on_c, 0, 53, 0
3, 120960, Note_on_c, 0, 54, 36
3, 121200, Note_on_c, 0, 54, 0
3, 121200, Note_on_c, 0, 62, 28
3, 121440, Note_on_c, 0, 62, 0
3, 121440, Note_on_c, 0, 54, 34
3, 121680, Note_on_c, 0, 54, 0
3, 121680, Note_on_c, 0, 62, 28
3, 121920, Note_on_c, 0, 62, 0
3, 121920, Note_on_c, 0, 55, 34
3, 122160, Note_on_c, 0, 55, 0
3, 122160, Note_on_c, 0, 62, 28
3, 122400, Note_on_c, 0, 62, 0
3, 122400, Note_on_c, 0, 52, 48
3, 122400, Note_on_c, 0, 55, 48
3, 122400, Note_on_c, 0, 60, 57
3, 123360, Note_on_c, 0, 60, 0
3, 123360, Note_on_c, 0, 55, 0
3, 123360, Note_on_c, 0, 52, 0
3, 123360, Note_on_c, 0, 53, 40
3, 123360, Note_on_c, 0, 57, 40
3, 123360, Note_on_c, 0, 60, 48
3, 123840, Note_on_c, 0, 60, 0
3, 123840, Note_on_c, 0, 57, 0
3, 123840, Note_on_c, 0, 53, 0
3, 123840, Note_on_c, 0, 52, 48
3, 123840, Note_on_c, 0, 55, 48
3, 123840, Note_on_c, 0, 60, 57
3, 124800, Note_on_c, 0, 60, 0
3, 124800, Note_on_c, 0, 55, 0
3, 124800, Note_on_c, 0, 52, 0
3, 124800, Note_on_c, 0, 57, 40
3, 124800, Note_on_c, 0, 53, 40
3, 124800, Note_on_c, 0, 60, 48
3, 125280, Note_on_c, 0, 60, 0
3, 125280, Note_on_c, 0, 53, 0
3, 125280, Note_on_c, 0, 57, 0
3, 125280, Note_on_c, 0, 58, 43
3, 125400, Note_on_c, 0, 58, 0
3, 125760, Note_on_c, 0, 60, 35
3, 125880, Note_on_c, 0, 60, 0
3, 126240, Note_on_c, 0, 48, 33
3, 126360, Note_on_c, 0, 48, 0
3, 126720, Note_on_c, 0, 53, 34
3, 126720, Note_on_c, 0, 57, 40
3, 127200, Note_on_c, 0, 57, 0
3, 127200, Note_on_c, 0, 53, 0
3, 128400, Note_on_c, 0, 60, 55
3, 128520, Note_on_c, 0, 60, 0
3, 128520, Note_on_c, 0, 59, 48
3, 128640, Note_on_c, 0, 59, 0
3, 128640, Note_on_c, 0, 60, 53
3, 128730, Note_on_c, 0, 60, 0
3, 128880, Note_on_c, 0, 48, 48
3, 129000, Note_on_c, 0, 48, 0
3, 129120, Note_on_c, 0, 50, 46
3, 129240, Note_on_c, 0, 50, 0
3, 129360, Note_on_c, 0, 52, 40
3, 129480, Note_on_c, 0, 52, 0
3, 129600, Note_on_c, 0, 53, 40
3, 130080, Note_on_c, 0, 53, 0
3, 131280, Note_on_c, 0, 60, 55
3, 131400, Note_on_c, 0, 60, 0
3, 131400, Note_on_c, 0, 59, 48
3, 131520, Note_on_c, 0, 59, 0
3, 131520, Note_on_c, 0, 60, 53
3, 131610, Note_on_c, 0, 60, 0
3, 131760, Note_on_c, 0, 48, 48
3, 131880, Note_on_c, 0, 48, 0
3, 132000, Note_on_c, 0, 50, 46
3, 132120, Note_on_c, 0, 50, 0
3, 132240, Note_on_c, 0, 52, 40
3, 132360, Note_on_c, 0, 52, 0
3, 132480, Note_on_c, 0, 53, 40
3, 132840, Note_on_c, 0, 53, 0
3, 132840, Note_on_c, 0, 46, 33
3, 132960, Note_on_c, 0, 46, 0
3, 132960, Note_on_c, 0, 48, 40
3, 133440, Note_on_c, 0, 48, 0
3, 133440, Note_on_c, 0, 36, 38
3, 133920, Note_on_c, 0, 36, 0
3, 133920, Note_on_c, 0, 41, 40
3, 134400, Note_on_c, 0, 41, 0
3, 135600, Note_on_c, 0, 72, 55
3, 135720, Note_on_c, 0, 72, 0
3, 135720, Note_on_c, 0, 71, 48
3, 135840, Note_on_c, 0, 71, 0
3, 135840, Note_on_c, 0, 72, 53
3, 135930, Note_on_c, 0, 72, 0
3, 136080, Note_on_c, 0, 60, 48
3, 136200, Note_on_c, 0, 60, 0
3, 136320, Note_on_c, 0, 62, 46
3, 136440, Note_on_c, 0, 62, 0
3, 136560, Note_on_c, 0, 64, 40
3, 136680, Note_on_c, 0, 64, 0
3, 136800, Note_on_c, 0, 65, 40
3, 137280, Note_on_c, 0, 65, 0
3, 138480, Note_on_c, 0, 72, 55
3, 138600, Note_on_c, 0, 72, 0
3, 138600, Note_on_c, 0, 71, 48
3, 138720, Note_on_c, 0, 71, 0
3, 138720, Note_on_c, 0, 72, 53
3, 138810, Note_on_c, 0, 72, 0
3, 138960, Note_on_c, 0, 60, 48
3, 139080, Note_on_c, 0, 60, 0
3, 139200, Note_on_c, 0, 62, 46
3, 139320, Note_on_c, 0, 62, 0
3, 139440, Note_on_c, 0, 64, 40
3, 139560, Note_on_c, 0, 64, 0
3, 139680, Note_on_c, 0, 65, 36
3, 139920, Note_on_c, 0, 65, 0
3, 139920, Note_on_c, 0, 58, 32
3, 140160, Note_on_c, 0, 58, 0
3, 140160, Note_on_c, 0, 60, 40
3, 140640, Note_on_c, 0, 60, 0
3, 140640, Note_on_c, 0, 48, 39
3, 141120, Note_on_c, 0, 48, 0
3, 141120, Note_on_c, 0, 53, 43
3, 141120, Note_on_c, 0, 57, 51
3, 141360, Note_on_c, 0, 57, 0
3, 141360, Note_on_c, 0, 53, 0
3, 141360, Note_on_c, 0, 53, 27
3, 141360, Note_on_c, 0, 57, 32
3, 141600, Note_on_c, 0, 57, 0
3, 141600, Note_on_c, 0, 53, 0
3, 141600, Note_on_c, 0, 53, 35
3, 141600, Note_on_c, 0, 57, 42
3, 142080, Note_on_c, 0, 57, 0
3, 142080, Note_on_c, 0, 53, 0
3, 142560, Note_on_c, 0, 53, 44
3, 142560, Note_on_c, 0, 57, 52
3, 142800, Note_on_c, 0, 57, 0
3, 142800, Note_on_c, 0, 53, 0
3, 142800, Note_on_c, 0, 53, 27
3, 142800, Note_on_c, 0, 57, 32
3, 143040, Note_on_c, 0, 57, 0
3, 143040, Note_on_c, 0, 53, 0
3, 143040, Note_on_c, 0, 53, 37
3, 143040, Note_on_c, 0, 57, 45
3, 143520, Note_on_c, 0, 57, 0
3, 143520, Note_on_c, 0, 53, 0
3, 144000, Note_on_c, 0, 41, 51
3, 144240, Note_on_c, 0, 41, 0
3, 144480, Note_on_c, 0, 53, 39
3, 144480, Note_on_c, 0, 41, 12
3, 144720, Note_on_c, 0, 41, 0
3, 144720, Note_on_c, 0, 53, 0
3, 145440, Note_on_c, 0, 60, 26
3, 146880, Note_on_c, 0, 60, 0
3, 146880, Note_on_c, 0, 60, 38
3, 148320, Note_on_c, 0, 60, 0
3, 148320, Note_on_c, 0, 60, 43
3, 149760, Note_on_c, 0, 60, 0
3, 149760, Note_on_c, 0, 61, 47
3, 150000, Note_on_c, 0, 61, 0
3, 150000, Note_on_c, 0, 57, 41
3, 150240, Note_on_c, 0, 57, 0
3, 150240, Note_on_c, 0, 61, 47
3, 150480, Note_on_c, 0, 61, 0
3, 150480, Note_on_c, 0, 57, 42
3, 150720, Note_on_c, 0, 57, 0
3, 150720, Note_on_c, 0, 61, 46
3, 150960, Note_on_c, 0, 61, 0
3, 150960, Note_on_c, 0, 57, 40
3, 151200, Note_on_c, 0, 57, 0
3, 151200, Note_on_c, 0, 62, 47
3, 151440, Note_on_c, 0, 62, 0
3, 151440, Note_on_c, 0, 57, 41
3, 151680, Note_on_c, 0, 57, 0
3, 151680, Note_on_c, 0, 64, 47
3, 151920, Note_on_c, 0, 64, 0
3, 151920, Note_on_c, 0, 57, 42
3, 152160, Note_on_c, 0, 57, 0
3, 152160, Note_on_c, 0, 65, 46
3, 152400, Note_on_c, 0, 65, 0
3, 152400, Note_on_c, 0, 57, 40
3, 152640, Note_on_c, 0, 57, 0
3, 152640, Note_on_c, 0, 61, 47
3, 152880, Note_on_c, 0, 61, 0
3, 152880, Note_on_c, 0, 57, 41
3, 153120, Note_on_c, 0, 57, 0
3, 153120, Note_on_c, 0, 61, 47
3, 153360, Note_on_c, 0, 61, 0
3, 153360, Note_on_c, 0, 57, 42
3, 153600, Note_on_c, 0, 57, 0
3, 153600, Note_on_c, 0, 61, 46
3, 153840, Note_on_c, 0, 61, 0
3, 153840, Note_on_c, 0, 57, 40
3, 154080, Note_on_c, 0, 57, 0
3, 154080, Note_on_c, 0, 62, 47
3, 154320, Note_on_c, 0, 62, 0
3, 154320, Note_on_c, 0, 57, 41
3, 154560, Note_on_c, 0, 57, 0
3, 154560, Note_on_c, 0, 64, 47
3, 154800, Note_on_c, 0, 64, 0
3, 154800, Note_on_c, 0, 57, 42
3, 155040, Note_on_c, 0, 57, 0
3, 155040, Note_on_c, 0, 65, 46
3, 155280, Note_on_c, 0, 65, 0
3, 155280, Note_on_c, 0, 57, 40
3, 155520, Note_on_c, 0, 57, 0
3, 155520, Note_on_c, 0, 66, 37
3, 155640, Note_on_c, 0, 66, 0
3, 155760, Note_on_c, 0, 66, 26
3, 155880, Note_on_c, 0, 66, 0
3, 156000, Note_on_c, 0, 66, 32
3, 156480, Note_on_c, 0, 66, 0
3, 156960, Note_on_c, 0, 67, 37
3, 157080, Note_on_c, 0, 67, 0
3, 157200, Note_on_c, 0, 67, 26
3, 157320, Note_on_c, 0, 67, 0
3, 157440, Note_on_c, 0, 67, 32
3, 157920, Note_on_c, 0, 67, 0
3, 158400, Note_on_c, 0, 64, 37
3, 158520, Note_on_c, 0, 64, 0
3, 158640, Note_on_c, 0, 64, 26
3, 158760, Note_on_c, 0, 64, 0
3, 158880, Note_on_c, 0, 64, 32
3, 159360, Note_on_c, 0, 64, 0
3, 159840, Note_on_c, 0, 65, 37
3, 159960, Note_on_c, 0, 65, 0
3, 160080, Note_on_c, 0, 65, 26
3, 160200, Note_on_c, 0, 65, 0
3, 160320, Note_on_c, 0, 65, 32
3, 160800, Note_on_c, 0, 65, 0
3, 161280, Note_on_c, 0, 55, 39
3, 161280, Note_on_c, 0, 62, 47
3, 161520, Note_on_c, 0, 62, 0
3, 161520, Note_on_c, 0, 55, 0
3, 161520, Note_on_c, 0, 55, 34
3, 161520, Note_on_c, 0, 62, 41
3, 161760, Note_on_c, 0, 62, 0
3, 161760, Note_on_c, 0, 55, 0
3, 161760, Note_on_c, 0, 55, 34
3, 161760, Note_on_c, 0, 62, 47
3, 162000, Note_on_c, 0, 62, 0
3, 162000, Note_on_c, 0, 55, 0
3, 162000, Note_on_c, 0, 55, 34
3, 162000, Note_on_c, 0, 62, 42
3, 162240, Note_on_c, 0, 62, 0
3, 162240, Note_on_c, 0, 55, 0
3, 162240, Note_on_c, 0, 55, 34
3, 162240, Note_on_c, 0, 62, 46
3, 162480, Note_on_c, 0, 62, 0
3, 162480, Note_on_c, 0, 55, 0
3, 162480, Note_on_c, 0, 55, 34
3, 162480, Note_on_c, 0, 62, 40
3, 162720, Note_on_c, 0, 62, 0
3, 162720, Note_on_c, 0, 55, 0
3, 162720, Note_on_c, 0, 48, 47
3, 162960, Note_on_c, 0, 48, 0
3, 162960, Note_on_c, 0, 60, 41
3, 163200, Note_on_c, 0, 60, 0
3, 163200, Note_on_c, 0, 48, 47
3, 163440, Note_on_c, 0, 48, 0
3, 163440, Note_on_c, 0, 60, 42
3, 163680, Note_on_c, 0, 60, 0
3, 163680, Note_on_c, 0, 48, 46
3, 163920, Note_on_c, 0, 48, 0
3, 163920, Note_on_c, 0, 60, 40
3, 164160, Note_on_c, 0, 60, 0
3, 164160, Note_on_c, 0, 48, 49
3, 164400, Note_on_c, 0, 48, 0
3, 164400, Note_on_c, 0, 60, 43
3, 164640, Note_on_c, 0, 60, 0
3, 164640, Note_on_c, 0, 48, 50
3, 164880, Note_on_c, 0, 48, 0
3, 164880, Note_on_c, 0, 60, 46
3, 165120, Note_on_c, 0, 60, 0
3, 165120, Note_on_c, 0, 48, 51
3, 165360, Note_on_c, 0, 48, 0
3, 165360, Note_on_c, 0, 60, 45
3, 165600, Note_on_c, 0, 60, 0
3, 165600, Note_on_c, 0, 48, 53
3, 165840, Note_on_c, 0, 48, 0
3, 165840, Note_on_c, 0, 60, 47
3, 166080, Note_on_c, 0, 60, 0
3, 166080, Note_on_c, 0, 48, 53
3, 166320, Note_on_c, 0, 48, 0
3, 166320, Note_on_c, 0, 60, 47
3, 166560, Note_on_c, 0, 60, 0
3, 166560, Note_on_c, 0, 48, 53
3, 166800, Note_on_c, 0, 48, 0
3, 166800, Note_on_c, 0, 60, 47
3, 167040, Note_on_c, 0, 60, 0
3, 167040, Note_on_c, 0, 48, 53
3, 167520, Note_on_c, 0, 48, 0
3, 169920, Note_on_c, 0, 41, 25
3, 170160, Note_on_c, 0, 41, 0
3, 170160, Note_on_c, 0, 53, 18
3, 170400, Note_on_c, 0, 53, 0
3, 170400, Note_on_c, 0, 41, 20
3, 170640, Note_on_c, 0, 41, 0
3, 170640, Note_on_c, 0, 53, 18
3, 170880, Note_on_c, 0, 53, 0
3, 170880, Note_on_c, 0, 41, 30
3, 171120, Note_on_c, 0, 41, 0
3, 171120, Note_on_c, 0, 53, 26
3, 171360, Note_on_c, 0, 53, 0
3, 171360, Note_on_c, 0, 41, 36
3, 171600, Note_on_c, 0, 41, 0
3, 171600, Note_on_c, 0, 53, 21
3, 171840, Note_on_c, 0, 53, 0
3, 171840, Note_on_c, 0, 41, 24
3, 172080, Note_on_c, 0, 41, 0
3, 172080, Note_on_c, 0, 53, 21
3, 172320, Note_on_c, 0, 53, 0
3, 172320, Note_on_c, 0, 41, 23
3, 172560, Note_on_c, 0, 41, 0
3, 172560, Note_on_c, 0, 53, 21
3, 172800, Note_on_c, 0, 53, 0
3, 172800, Note_on_c, 0, 41, 28
3, 173040, Note_on_c, 0, 41, 0
3, 173040, Note_on_c, 0, 53, 23
3, 173280, Note_on_c, 0, 53, 0
3, 173280, Note_on_c, 0, 41, 26
3, 173520, Note_on_c, 0, 41, 0
3, 173520, Note_on_c, 0, 53, 23
3, 173760, Note_on_c, 0, 53, 0
3, 173760, Note_on_c, 0, 41, 26
3, 174000, Note_on_c, 0, 41, 0
3, 174000, Note_on_c, 0, 53, 23
3, 174240, Note_on_c, 0, 53, 0
3, 174240, Note_on_c, 0, 41, 28
3, 174480, Note_on_c, 0, 41, 0
3, 174480, Note_on_c, 0, 53, 22
3, 174720, Note_on_c, 0, 53, 0
3, 174720, Note_on_c, 0, 41, 25
3, 174960, Note_on_c, 0, 41, 0
3, 174960, Note_on_c, 0, 53, 22
3, 175200, Note_on_c, 0, 53, 0
3, 175200, Note_on_c, 0, 41, 25
3, 175440, Note_on_c, 0, 41, 0
3, 175440, Note_on_c, 0, 53, 22
3, 175680, Note_on_c, 0, 53, 0
3, 175680, Note_on_c, 0, 57, 40
3, 175920, Note_on_c, 0, 57, 0
3, 175920, Note_on_c, 0, 53, 32
3, 176160, Note_on_c, 0, 53, 0
3, 176160, Note_on_c, 0, 57, 37
3, 176400, Note_on_c, 0, 57, 0
3, 176400, Note_on_c, 0, 53, 32
3, 176640, Note_on_c, 0, 53, 0
3, 176640, Note_on_c, 0, 58, 37
3, 176880, Note_on_c, 0, 58, 0
3, 176880, Note_on_c, 0, 53, 32
3, 177120, Note_on_c, 0, 53, 0
3, 177120, Note_on_c, 0, 63, 40
3, 177360, Note_on_c, 0, 63, 0
3, 177360, Note_on_c, 0, 53, 32
3, 177600, Note_on_c, 0, 53, 0
3, 177600, Note_on_c, 0, 63, 37
3, 177840, Note_on_c, 0, 63, 0
3, 177840, Note_on_c, 0, 53, 32
3, 178080, Note_on_c, 0, 53, 0
3, 178080, Note_on_c, 0, 62, 39
3, 178320, Note_on_c, 0, 62, 0
3, 178320, Note_on_c, 0, 53, 32
3, 178560, Note_on_c, 0, 53, 0
3, 178560, Note_on_c, 0, 57, 40
3, 178800, Note_on_c, 0, 57, 0
3, 178800, Note_on_c, 0, 53, 32
3, 179040, Note_on_c, 0, 53, 0
3, 179040, Note_on_c, 0, 57, 38
3, 179280, Note_on_c, 0, 57, 0
3, 179280, Note_on_c, 0, 53, 32
3, 179520, Note_on_c, 0, 53, 0
3, 179520, Note_on_c, 0, 58, 38
3, 179760, Note_on_c, 0, 58, 0
3, 179760, Note_on_c, 0, 53, 32
3, 180000, Note_on_c, 0, 53, 0
3, 180000, Note_on_c, 0, 54, 36
3, 180240, Note_on_c, 0, 54, 0
3, 180240, Note_on_c, 0, 62, 28
3, 180480, Note_on_c, 0, 62, 0
3, 180480, Note_on_c, 0, 54, 34
3, 180720, Note_on_c, 0, 54, 0
3, 180720, Note_on_c, 0, 62, 28
3, 180960, Note_on_c, 0, 62, 0
3, 180960, Note_on_c, 0, 55, 34
3, 181200, Note_on_c, 0, 55, 0
3, 181200, Note_on_c, 0, 62, 28
3, 181440, Note_on_c, 0, 62, 0
3, 181440, Note_on_c, 0, 60, 57
3, 181440, Note_on_c, 0, 55, 48
3, 181440, Note_on_c, 0, 52, 48
3, 182400, Note_on_c, 0, 52, 0
3, 182400, Note_on_c, 0, 55, 0
3, 182400, Note_on_c, 0, 60, 0
3, 182400, Note_on_c, 0, 60, 48
3, 182400, Note_on_c, 0, 57, 40
3, 182400, Note_on_c, 0, 53, 40
3, 182880, Note_on_c, 0, 53, 0
3, 182880, Note_on_c, 0, 57, 0
3, 182880, Note_on_c, 0, 60, 0
3, 182880, Note_on_c, 0, 55, 48
3, 182880, Note_on_c, 0, 52, 48
3, 182880, Note_on_c, 0, 60, 57
3, 183840, Note_on_c, 0, 60, 0
3, 183840, Note_on_c, 0, 52, 0
3, 183840, Note_on_c, 0, 55, 0
3, 183840, Note_on_c, 0, 57, 40
3, 183840, Note_on_c, 0, 60, 48
3, 183840, Note_on_c, 0, 53, 40
3, 184320, Note_on_c, 0, 53, 0
3, 184320, Note_on_c, 0, 60, 0
3, 184320, Note_on_c, 0, 57, 0
3, 184320, Note_on_c, 0, 58, 43
3, 184440, Note_on_c, 0, 58, 0
3, 184800, Note_on_c, 0, 60, 35
3, 184920, Note_on_c, 0, 60, 0
3, 185280, Note_on_c, 0, 48, 33
3, 185400, Note_on_c, 0, 48, 0
3, 185760, Note_on_c, 0, 57, 40
3, 185760, Note_on_c, 0, 53, 34
3, 186240, Note_on_c, 0, 53, 0
3, 186240, Note_on_c, 0, 57, 0
3, 187440, Note_on_c, 0, 60, 55
3, 187560, Note_on_c, 0, 60, 0
3, 187560, Note_on_c, 0, 59, 48
3, 187680, Note_on_c, 0, 59, 0
3, 187680, Note_on_c, 0, 60, 53
3, 187770, Note_on_c, 0, 60, 0
3, 187920, Note_on_c, 0, 48, 48
3, 188040, Note_on_c, 0, 48, 0
3, 188160, Note_on_c, 0, 50, 46
3, 188280, Note_on_c, 0, 50, 0
3, 188400, Note_on_c, 0, 52, 40
3, 188520, Note_on_c, 0, 52, 0
3, 188640, Note_on_c, 0, 53, 40
3, 189120, Note_on_c, 0, 53, 0
3, 190320, Note_on_c, 0, 60, 55
3, 190440, Note_on_c, 0, 60, 0
3, 190440, Note_on_c, 0, 59, 48
3, 190560, Note_on_c, 0, 59, 0
3, 190560, Note_on_c, 0, 60, 53
3, 190650, Note_on_c, 0, 60, 0
3, 190800, Note_on_c, 0, 48, 48
3, 190920, Note_on_c, 0, 48, 0
3, 191040, Note_on_c, 0, 50, 46
3, 191160, Note_on_c, 0, 50, 0
3, 191280, Note_on_c, 0, 52, 40
3, 191400, Note_on_c, 0, 52, 0
3, 191520, Note_on_c, 0, 53, 40
3, 191880, Note_on_c, 0, 53, 0
3, 191880, Note_on_c, 0, 46, 33
3, 192000, Note_on_c, 0, 46, 0
3, 192000, Note_on_c, 0, 48, 40
3, 192480, Note_on_c, 0, 48, 0
3, 192480, Note_on_c, 0, 36, 38
3, 192960, Note_on_c, 0, 36, 0
3, 192960, Note_on_c, 0, 41, 40
3, 193440, Note_on_c, 0, 41, 0
3, 194640, Note_on_c, 0, 72, 55
3, 194760, Note_on_c, 0, 72, 0
3, 194760, Note_on_c, 0, 71, 48
3, 194880, Note_on_c, 0, 71, 0
3, 194880, Note_on_c, 0, 72, 53
3, 194970, Note_on_c, 0, 72, 0
3, 195120, Note_on_c, 0, 60, 48
3, 195240, Note_on_c, 0, 60, 0
3, 195360, Note_on_c, 0, 62, 46
3, 195480, Note_on_c, 0, 62, 0
3, 195600, Note_on_c, 0, 64, 40
3, 195720, Note_on_c, 0, 64, 0
3, 195840, Note_on_c, 0, 65, 40
3, 196320, Note_on_c, 0, 65, 0
3, 197520, Note_on_c, 0, 72, 55
3, 197640, Note_on_c, 0, 72, 0
3, 197640, Note_on_c, 0, 71, 48
3, 197760, Note_on_c, 0, 71, 0
3, 197760, Note_on_c, 0, 72, 53
3, 197850, Note_on_c, 0, 72, 0
3, 198000, Note_on_c, 0, 60, 48
3, 198120, Note_on_c, 0, 60, 0
3, 198240, Note_on_c, 0, 62, 46
3, 198360, Note_on_c, 0, 62, 0
3, 198480, Note_on_c, 0, 64, 40
3, 198600, Note_on_c, 0, 64, 0
3, 198720, Note_on_c, 0, 65, 36
3, 198960, Note_on_c, 0, 65, 0
3, 198960, Note_on_c, 0, 58, 32
3, 199200, Note_on_c, 0, 58, 0
3, 199200, Note_on_c, 0, 60, 40
3, 199680, Note_on_c, 0, 60, 0
3, 199680, Note_on_c, 0, 48, 39
3, 200160, Note_on_c, 0, 48, 0
3, 200160, Note_on_c, 0, 57, 51
3, 200160, Note_on_c, 0, 53, 43
3, 200400, Note_on_c, 0, 53, 0
3, 200400, Note_on_c, 0, 57, 0
3, 200400, Note_on_c, 0, 57, 32
3, 200400, Note_on_c, 0, 53, 27
3, 200640, Note_on_c, 0, 53, 0
3, 200640, Note_on_c, 0, 57, 0
3, 200640, Note_on_c, 0, 53, 35
3, 200640, Note_on_c, 0, 57, 42
3, 201120, Note_on_c, 0, 57, 0
3, 201120, Note_on_c, 0, 53, 0
3, 201600, Note_on_c, 0, 53, 44
3, 201600, Note_on_c, 0, 57, 52
3, 201840, Note_on_c, 0, 57, 0
3, 201840, Note_on_c, 0, 53, 0
3, 201840, Note_on_c, 0, 53, 27
3, 201840, Note_on_c, 0, 57, 32
3, 202080, Note_on_c, 0, 57, 0
3, 202080, Note_on_c, 0, 53, 0
3, 202080, Note_on_c, 0, 53, 37
3, 202080, Note_on_c, 0, 57, 45
3, 202560, Note_on_c, 0, 57, 0
3, 202560, Note_on_c, 0, 53, 0
3, 203040, Note_on_c, 0, 41, 51
3, 203280, Note_on_c, 0, 41, 0
3, 203520, Note_on_c, 0, 53, 39
3, 203520, Note_on_c, 0, 41, 12
3, 203760, Note_on_c, 0, 41, 0
3, 203760, Note_on_c, 0, 53, 0
3, 203760, End_track
4, 0, Start_track
4, 0, Title_t, "Pedale"
4, 0, Program_c, 0, 0
4, 134, Control_c, 0, 64, 127
4, 1440, Control_c, 0, 64, 0
4, 1553, Control_c, 0, 64, 127
4, 2406, Control_c, 0, 64, 0
4, 4476, Control_c, 0, 64, 127
4, 4813, Control_c, 0, 64, 0
4, 4956, Control_c, 0, 64, 127
4, 5301, Control_c, 0, 64, 0
4, 5859, Control_c, 0, 64, 127
4, 6498, Control_c, 0, 64, 0
4, 7320, Control_c, 0, 64, 127
4, 7931, Control_c, 0, 64, 0
4, 11654, Control_c, 0, 64, 127
4, 12960, Control_c, 0, 64, 0
4, 13066, Control_c, 0, 64, 127
4, 13937, Control_c, 0, 64, 0
4, 15953, Control_c, 0, 64, 127
4, 16328, Control_c, 0, 64, 0
4, 16447, Control_c, 0, 64, 127
4, 16815, Control_c, 0, 64, 0
4, 30353, Control_c, 0, 64, 127
4, 30734, Control_c, 0, 64, 0
4, 30876, Control_c, 0, 64, 127
4, 31216, Control_c, 0, 64, 0
4, 31306, Control_c, 0, 64, 127
4, 31687, Control_c, 0, 64, 0
4, 31786, Control_c, 0, 64, 127
4, 32176, Control_c, 0, 64, 0
4, 34631, Control_c, 0, 64, 127
4, 35051, Control_c, 0, 64, 0
4, 39000, Control_c, 0, 64, 127
4, 39609, Control_c, 0, 64, 0
4, 40423, Control_c, 0, 64, 127
4, 41054, Control_c, 0, 64, 0
4, 43334, Control_c, 0, 64, 127
4, 44640, Control_c, 0, 64, 0
4, 44753, Control_c, 0, 64, 127
4, 45606, Control_c, 0, 64, 0
4, 47676, Control_c, 0, 64, 127
4, 48013, Control_c, 0, 64, 0
4, 48156, Control_c, 0, 64, 127
4, 48501, Control_c, 0, 64, 0
4, 49059, Control_c, 0, 64, 127
4, 49698, Control_c, 0, 64, 0
4, 50520, Control_c, 0, 64, 127
4, 51131, Control_c, 0, 64, 0
4, 54854, Control_c, 0, 64, 127
4, 56160, Control_c, 0, 64, 0
4, 56266, Control_c, 0, 64, 127
4, 57137, Control_c, 0, 64, 0
4, 59153, Control_c, 0, 64, 127
4, 59528, Control_c, 0, 64, 0
4, 59647, Control_c, 0, 64, 127
4, 60015, Control_c, 0, 64, 0
4, 73553, Control_c, 0, 64, 127
4, 73934, Control_c, 0, 64, 0
4, 74076, Control_c, 0, 64, 127
4, 74416, Control_c, 0, 64, 0
4, 74506, Control_c, 0, 64, 127
4, 74887, Control_c, 0, 64, 0
4, 74951, Control_c, 0, 64, 127
4, 75372, Control_c, 0, 64, 0
4, 77845, Control_c, 0, 64, 127
4, 78255, Control_c, 0, 64, 0
4, 82200, Control_c, 0, 64, 127
4, 82809, Control_c, 0, 64, 0
4, 83623, Control_c, 0, 64, 127
4, 84254, Control_c, 0, 64, 0
4, 86478, Control_c, 0, 64, 127
4, 86889, Control_c, 0, 64, 0
4, 87886, Control_c, 0, 64, 127
4, 88333, Control_c, 0, 64, 0
4, 89330, Control_c, 0, 64, 127
4, 89773, Control_c, 0, 64, 0
4, 90755, Control_c, 0, 64, 127
4, 91206, Control_c, 0, 64, 0
4, 93640, Control_c, 0, 64, 127
4, 94089, Control_c, 0, 64, 0
4, 96480, Control_c, 0, 64, 0
4, 97920, Control_c, 0, 64, 0
4, 99360, Control_c, 0, 64, 0
4, 100800, Control_c, 0, 64, 0
4, 102326, Control_c, 0, 64, 127
4, 103680, Control_c, 0, 64, 0
4, 111014, Control_c, 0, 64, 127
4, 112320, Control_c, 0, 64, 0
4, 112433, Control_c, 0, 64, 127
4, 113286, Control_c, 0, 64, 0
4, 115356, Control_c, 0, 64, 127
4, 115693, Control_c, 0, 64, 0
4, 115836, Control_c, 0, 64, 127
4, 116181, Control_c, 0, 64, 0
4, 116739, Control_c, 0, 64, 127
4, 117378, Control_c, 0, 64, 0
4, 118200, Control_c, 0, 64, 127
4, 118811, Control_c, 0, 64, 0
4, 122880, Control_c, 0, 64, 127
4, 123128, Control_c, 0, 64, 0
4, 123440, Control_c, 0, 64, 127
4, 123857, Control_c, 0, 64, 0
4, 124349, Control_c, 0, 64, 127
4, 124575, Control_c, 0, 64, 0
4, 124857, Control_c, 0, 64, 127
4, 125280, Control_c, 0, 64, 0
4, 129798, Control_c, 0, 64, 127
4, 130087, Control_c, 0, 64, 0
4, 132593, Control_c, 0, 64, 127
4, 132974, Control_c, 0, 64, 0
4, 133116, Control_c, 0, 64, 127
4, 133456, Control_c, 0, 64, 0
4, 133546, Control_c, 0, 64, 127
4, 133920, Control_c, 0, 64, 0
4, 136864, Control_c, 0, 64, 127
4, 137289, Control_c, 0, 64, 0
4, 141240, Control_c, 0, 64, 127
4, 141849, Control_c, 0, 64, 0
4, 142663, Control_c, 0, 64, 127
4, 143294, Control_c, 0, 64, 0
4, 145518, Control_c, 0, 64, 127
4, 145929, Control_c, 0, 64, 0
4, 146926, Control_c, 0, 64, 127
4, 147373, Control_c, 0, 64, 0
4, 148370, Control_c, 0, 64, 127
4, 148813, Control_c, 0, 64, 0
4, 149795, Control_c, 0, 64, 127
4, 150246, Control_c, 0, 64, 0
4, 152680, Control_c, 0, 64, 127
4, 153129, Control_c, 0, 64, 0
4, 155520, Control_c, 0, 64, 0
4, 156960, Control_c, 0, 64, 0
4, 158400, Control_c, 0, 64, 0
4, 159840, Control_c, 0, 64, 0
4, 161366, Control_c, 0, 64, 127
4, 162720, Control_c, 0, 64, 0
4, 170054, Control_c, 0, 64, 127
4, 171360, Control_c, 0, 64, 0
4, 171473, Control_c, 0, 64, 127
4, 172326, Control_c, 0, 64, 0
4, 174396, Control_c, 0, 64, 127
4, 174733, Control_c, 0, 64, 0
4, 174876, Control_c, 0, 64, 127
4, 175221, Control_c, 0, 64, 0
4, 175779, Control_c, 0, 64, 127
4, 176418, Control_c, 0, 64, 0
4, 177240, Control_c, 0, 64, 127
4, 177851, Control_c, 0, 64, 0
4, 181920, Control_c, 0, 64, 127
4, 182168, Control_c, 0, 64, 0
4, 182480, Control_c, 0, 64, 127
4, 182897, Control_c, 0, 64, 0
4, 183389, Control_c, 0, 64, 127
4, 183615, Control_c, 0, 64, 0
4, 183897, Control_c, 0, 64, 127
4, 184320, Control_c, 0, 64, 0
4, 188838, Control_c, 0, 64, 127
4, 189127, Control_c, 0, 64, 0
4, 191633, Control_c, 0, 64, 127
4, 192014, Control_c, 0, 64, 0
4, 192156, Control_c, 0, 64, 127
4, 192496, Control_c, 0, 64, 0
4, 192586, Control_c, 0, 64, 127
4, 192960, Control_c, 0, 64, 0
4, 195904, Control_c, 0, 64, 127
4, 196329, Control_c, 0, 64, 0
4, 200280, Control_c, 0, 64, 127
4, 200889, Control_c, 0, 64, 0
4, 201703, Control_c, 0, 64, 127
4, 202334, Control_c, 0, 64, 0
4, 202334, End_track
5, 0, Start_track
5, 0, Title_t, "Clementi: Sonatatina Opus 36, No. 4, 1. movement"
5, 0, End_track
6, 0, Start_track
6, 0, Title_t, "Copyright © 2010 by Bernd Krueger"
6, 0, End_track
7, 0, Start_track
7, 0, Title_t, "http://www.piano-midi.de/"
7, 0, End_track
8, 0, Start_track
8, 0, Title_t, "Edition: 2011-09-29"
8, 0, End_track
9, 0, Start_track
9, 0, Title_t, "Spur 8"
9, 0, End_track
10, 0, Start_track
10, 0, Title_t, "Spur 9"
10, 0, End_track
11, 0, Start_track
11, 0, Title_t, "Spur 10"
11, 0, End_track
12, 0, Start_track
12, 0, Title_t, "Spur 11"
12, 0, End_track
13, 0, Start_track
13, 0, Title_t, "Spur 12"
13, 0, End_track
14, 0, Start_track
14, 0, Title_t, "Spur 13"
14, 0, End_track
15, 0, Start_track
15, 0, Title_t, "Spur 14"
15, 0, End_track
16, 0, Start_track
16, 0, Title_t, "Spur 15"
16, 0, End_track
17, 0, Start_track
17, 0, Title_t, "Spur 16"
17, 0, End_track
0, 0, End_of_file
