0, 0, Header, 1, 17, 480
1, 0, Start_track
1, 0, Title_t, "Clementi: Sonatine Opus 36 Nr. 6, 2. Satz"
1, 0, Title_t, "Rondo"
1, 0, Copyright_t, "Copyright © 2011 by Bernd Krueger"
1, 0, Text_t, "Muzio Clementi"
1, 0, Text_t, "Allegretto spiritoso"
1, 0, Text_t, "Erstellt: 21.1.2011\012"
1, 0, Text_t, "Update: 3.7.2011\012"
1, 0, Text_t, "Dauer: 2:16 Minuten\012"
1, 0, Time_signature, 6, 3, 12, 8
1, 0, Key_signature, 2, "major"
1, 0, Tempo, 504414
1, 720, Tempo, 512777
1, 720, Marker_t, "Teil 1"
1, 1200, Tempo, 540151
1, 1440, Tempo, 503482
1, 1920, Tempo, 515154
1, 2160, Tempo, 503482
1, 3360, Tempo, 517554
1, 3600, Tempo, 503482
1, 3840, Tempo, 501211
1, 4920, Tempo, 512777
1, 5040, Tempo, 501211
1, 5520, Tempo, 534950
1, 5760, Tempo, 503482
1, 6240, Tempo, 540151
1, 6480, Tempo, 524888
1, 6960, Tempo, 540151
1, 7200, Tempo, 503482
1, 7680, Tempo, 515154
1, 7920, Tempo, 503482
1, 8640, Tempo, 505774
1, 9120, Tempo, 517554
1, 9360, Tempo, 503482
1, 9408, Tempo, 496771
1, 9504, Tempo, 499002
1, 9568, Tempo, 501211
1, 9664, Tempo, 503482
1, 9728, Tempo, 505774
1, 9792, Tempo, 508087
1, 9888, Tempo, 510421
1, 9952, Tempo, 512777
1, 10016, Tempo, 515154
1, 10080, Tempo, 503482
1, 10560, Tempo, 517554
1, 10800, Tempo, 503482
1, 11280, Tempo, 510421
1, 11520, Tempo, 503482
1, 11760, Tempo, 492368
1, 12120, Tempo, 550863
1, 12240, Tempo, 522421
1, 12720, Tempo, 540151
1, 12960, Tempo, 503482
1, 13440, Tempo, 515154
1, 13680, Tempo, 496730
1, 14040, Tempo, 502976
1, 14280, Tempo, 524980
1, 14400, Tempo, 509381
1, 14880, Tempo, 517554
1, 15120, Tempo, 503482
1, 15360, Tempo, 501211
1, 16440, Tempo, 529895
1, 16560, Tempo, 512777
1, 17040, Tempo, 534950
1, 17280, Tempo, 510421
1, 17760, Tempo, 540151
1, 18000, Tempo, 532434
1, 18480, Tempo, 550863
1, 18720, Tempo, 503482
1, 19200, Tempo, 515154
1, 19440, Tempo, 503482
1, 20160, Tempo, 505774
1, 20640, Tempo, 517554
1, 20880, Tempo, 503482
1, 20960, Tempo, 494560
1, 21056, Tempo, 496771
1, 21120, Tempo, 499002
1, 21216, Tempo, 501211
1, 21280, Tempo, 503482
1, 21376, Tempo, 505774
1, 21440, Tempo, 508087
1, 21536, Tempo, 510421
1, 21600, Tempo, 508087
1, 22080, Tempo, 522421
1, 22440, Tempo, 510421
1, 23280, Tempo, 492368
1, 23584, Tempo, 493868
1, 23712, Tempo, 495909
1, 23840, Tempo, 497967
1, 23968, Tempo, 500042
1, 24096, Tempo, 502134
1, 24224, Tempo, 504244
1, 24352, Tempo, 506372
1, 24448, Tempo, 508518
1, 24480, Tempo, 518179
1, 24960, Tempo, 517554
1, 25200, Tempo, 503482
1, 25680, Tempo, 510421
1, 25920, Tempo, 518179
1, 26640, Tempo, 495909
1, 26720, Tempo, 497967
1, 26848, Tempo, 500042
1, 26976, Tempo, 502134
1, 27104, Tempo, 504244
1, 27232, Tempo, 506372
1, 27328, Tempo, 508518
1, 27360, Tempo, 515952
1, 27840, Tempo, 517554
1, 28080, Tempo, 503482
1, 28560, Tempo, 510421
1, 29280, Tempo, 520427
1, 29520, Tempo, 509381
1, 30000, Tempo, 546498
1, 30240, Tempo, 507228
1, 30720, Tempo, 520427
1, 30960, Tempo, 507228
1, 31440, Tempo, 548998
1, 31680, Tempo, 507228
1, 31800, Tempo, 492651
1, 32160, Tempo, 518179
1, 32280, Tempo, 507228
1, 32760, Tempo, 496730
1, 33000, Tempo, 529614
1, 33120, Tempo, 507228
1, 33360, Tempo, 520427
1, 33840, Tempo, 539132
1, 34080, Tempo, 567161
1, 34320, Tempo, 610438
1, 35280, Tempo, 512777
1, 35280, Marker_t, "Teil 2"
1, 35760, Tempo, 540151
1, 36000, Tempo, 503482
1, 36480, Tempo, 515154
1, 36720, Tempo, 512777
1, 37200, Tempo, 540151
1, 37440, Tempo, 503482
1, 37920, Tempo, 515154
1, 38160, Tempo, 512777
1, 38640, Tempo, 540151
1, 38880, Tempo, 503482
1, 39360, Tempo, 515154
1, 39600, Tempo, 510421
1, 40080, Tempo, 520427
1, 40320, Tempo, 510421
1, 40800, Tempo, 520427
1, 41040, Tempo, 510421
1, 41520, Tempo, 520427
1, 41760, Tempo, 505093
1, 42240, Tempo, 520427
1, 42480, Tempo, 510421
1, 42960, Tempo, 520427
1, 43379, Tempo, 505093
1, 43603, Tempo, 507228
1, 43827, Tempo, 509381
1, 44051, Tempo, 511553
1, 44275, Tempo, 513743
1, 44400, Tempo, 534331
1, 44640, Tempo, 510421
1, 45120, Tempo, 520427
1, 45360, Tempo, 510421
1, 45840, Tempo, 520427
1, 46080, Tempo, 510421
1, 46560, Tempo, 520427
1, 46800, Tempo, 510421
1, 47280, Tempo, 520427
1, 47520, Tempo, 534331
1, 47640, Tempo, 502976
1, 48000, Tempo, 515154
1, 48120, Tempo, 527287
1, 48240, Tempo, 534331
1, 48360, Tempo, 502976
1, 48720, Tempo, 515154
1, 48840, Tempo, 527287
1, 48960, Tempo, 534331
1, 49080, Tempo, 502976
1, 49440, Tempo, 515154
1, 49560, Tempo, 527287
1, 49680, Tempo, 534331
1, 49800, Tempo, 502976
1, 50160, Tempo, 515154
1, 50400, Tempo, 534331
1, 50520, Tempo, 502976
1, 50880, Tempo, 515154
1, 51000, Tempo, 527287
1, 51120, Tempo, 534331
1, 51240, Tempo, 502976
1, 51600, Tempo, 515154
1, 51840, Tempo, 534331
1, 51960, Tempo, 511553
1, 52320, Tempo, 529614
1, 52440, Tempo, 548998
1, 52560, Tempo, 546498
1, 52578, Tempo, 546498
1, 52674, Tempo, 548998
1, 52754, Tempo, 551521
1, 52834, Tempo, 554068
1, 52914, Tempo, 556638
1, 52994, Tempo, 559232
1, 53074, Tempo, 561850
1, 53154, Tempo, 564493
1, 53160, Tempo, 613560
1, 53280, Tempo, 551521
1, 53520, Tempo, 541565
1, 54480, Tempo, 578090
1, 54720, Tempo, 548998
1, 54722, Tempo, 554068
1, 54745, Tempo, 531962
1, 54847, Tempo, 534331
1, 54922, Tempo, 536721
1, 54998, Tempo, 539132
1, 55074, Tempo, 541565
1, 55150, Tempo, 544020
1, 55225, Tempo, 546498
1, 55301, Tempo, 548998
1, 55402, Tempo, 551521
1, 55478, Tempo, 554068
1, 55554, Tempo, 556638
1, 55630, Tempo, 559232
1, 55680, Tempo, 556638
1, 55731, Tempo, 559232
1, 55756, Tempo, 561850
1, 55781, Tempo, 564493
1, 55807, Tempo, 567161
1, 55857, Tempo, 569855
1, 55882, Tempo, 572574
1, 55908, Tempo, 575319
1, 55933, Tempo, 578090
1, 55958, Tempo, 580889
1, 56160, Tempo, 542937
1, 57360, Tempo, 626370
1, 57600, Tempo, 564493
1, 57840, Tempo, 542937
1, 58320, Tempo, 522102
1, 58321, Tempo, 517152
1, 58333, Tempo, 524980
1, 58459, Tempo, 522694
1, 58560, Tempo, 520427
1, 58687, Tempo, 518179
1, 58788, Tempo, 515952
1, 58802, Tempo, 568451
1, 59040, Tempo, 527287
1, 59520, Tempo, 539132
1, 59760, Tempo, 522694
1, 60240, Tempo, 580889
1, 60480, Tempo, 532292
1, 61200, Tempo, 519615
1, 61800, Tempo, 545653
1, 61906, Tempo, 532292
1, 61986, Tempo, 529708
1, 62050, Tempo, 527148
1, 62114, Tempo, 524613
1, 62194, Tempo, 522102
1, 62258, Tempo, 519615
1, 62322, Tempo, 517152
1, 62594, Tempo, 517152
1, 62690, Tempo, 519615
1, 62770, Tempo, 522102
1, 62850, Tempo, 524613
1, 62882, Tempo, 519615
1, 62914, Tempo, 522102
1, 62946, Tempo, 524613
1, 62962, Tempo, 527148
1, 62994, Tempo, 529708
1, 63010, Tempo, 532292
1, 63042, Tempo, 534950
1, 63058, Tempo, 537586
1, 63090, Tempo, 540249
1, 63106, Tempo, 542937
1, 63138, Tempo, 545653
1, 63170, Tempo, 548396
1, 63186, Tempo, 551167
1, 63218, Tempo, 553965
1, 63234, Tempo, 556793
1, 63266, Tempo, 559649
1, 63282, Tempo, 562588
1, 63314, Tempo, 565504
1, 63330, Tempo, 568451
1, 63360, Tempo, 527148
1, 63840, Tempo, 551167
1, 64080, Tempo, 524613
1, 64320, Tempo, 517152
1, 64560, Tempo, 537586
1, 64800, Tempo, 522102
1, 65160, Tempo, 545653
1, 65280, Tempo, 519615
1, 66120, Tempo, 577478
1, 66240, Tempo, 517152
1, 66720, Tempo, 507485
1, 66840, Tempo, 542937
1, 66960, Tempo, 517152
1, 67440, Tempo, 527148
1, 67680, Tempo, 514712
1, 68160, Tempo, 527148
1, 68400, Tempo, 514712
1, 68880, Tempo, 527148
1, 69120, Tempo, 517152
1, 69600, Tempo, 507485
1, 69720, Tempo, 542937
1, 69840, Tempo, 517152
1, 70320, Tempo, 527148
1, 70560, Tempo, 514712
1, 71040, Tempo, 527148
1, 71280, Tempo, 514712
1, 71760, Tempo, 527148
1, 72000, Tempo, 500877
1, 72600, Tempo, 536721
1, 72720, Tempo, 502976
1, 73320, Tempo, 544020
1, 73440, Tempo, 500877
1, 74040, Tempo, 539132
1, 74160, Tempo, 500877
1, 74173, Tempo, 500877
1, 74274, Tempo, 502976
1, 74375, Tempo, 505093
1, 74476, Tempo, 507228
1, 74577, Tempo, 509381
1, 74678, Tempo, 511553
1, 74754, Tempo, 513743
1, 74760, Tempo, 554068
1, 74880, Tempo, 517152
1, 75360, Tempo, 507485
1, 75480, Tempo, 542937
1, 75600, Tempo, 517152
1, 76080, Tempo, 527148
1, 76320, Tempo, 514712
1, 76800, Tempo, 527148
1, 77040, Tempo, 514712
1, 77520, Tempo, 527148
1, 77760, Tempo, 517152
1, 78240, Tempo, 507485
1, 78360, Tempo, 542937
1, 78480, Tempo, 517152
1, 78960, Tempo, 527148
1, 79200, Tempo, 514712
1, 79680, Tempo, 527148
1, 79920, Tempo, 514712
1, 80400, Tempo, 527148
1, 80640, Tempo, 500877
1, 81240, Tempo, 536721
1, 81360, Tempo, 502976
1, 81960, Tempo, 544020
1, 82080, Tempo, 513743
1, 82193, Tempo, 511553
1, 82395, Tempo, 513743
1, 82597, Tempo, 515952
1, 82774, Tempo, 518179
1, 82976, Tempo, 520427
1, 83153, Tempo, 522694
1, 83355, Tempo, 524980
1, 83532, Tempo, 527287
1, 84840, Tempo, 556638
1, 84972, Tempo, 524980
1, 85023, Tempo, 524980
1, 85225, Tempo, 522694
1, 85427, Tempo, 520427
1, 85604, Tempo, 518179
1, 86008, Tempo, 513743
1, 86058, Tempo, 515952
1, 86109, Tempo, 518179
1, 86159, Tempo, 520427
1, 86210, Tempo, 522694
1, 86260, Tempo, 524980
1, 86311, Tempo, 527287
1, 86339, Tempo, 536721
1, 86491, Tempo, 534331
1, 86617, Tempo, 531962
1, 86744, Tempo, 529614
1, 86870, Tempo, 527287
1, 86996, Tempo, 524980
1, 87120, Tempo, 529614
1, 87128, Tempo, 531962
1, 87136, Tempo, 529614
1, 87144, Tempo, 527287
1, 87152, Tempo, 524980
1, 87160, Tempo, 520427
1, 87168, Tempo, 515952
1, 87184, Tempo, 518179
1, 87200, Tempo, 520427
1, 87208, Tempo, 524980
1, 87216, Tempo, 529614
1, 87224, Tempo, 531962
1, 87232, Tempo, 534331
1, 87240, Tempo, 536721
1, 87248, Tempo, 534331
1, 87256, Tempo, 531962
1, 87264, Tempo, 527287
1, 87272, Tempo, 522694
1, 87280, Tempo, 520427
1, 87296, Tempo, 522694
1, 87304, Tempo, 524980
1, 87312, Tempo, 527287
1, 87328, Tempo, 531962
1, 87336, Tempo, 527287
1, 87344, Tempo, 522694
1, 87352, Tempo, 520427
1, 87368, Tempo, 518179
1, 87376, Tempo, 515952
1, 87392, Tempo, 527287
1, 87400, Tempo, 529614
1, 87408, Tempo, 531962
1, 87424, Tempo, 534331
1, 87440, Tempo, 529614
1, 87448, Tempo, 520427
1, 87456, Tempo, 518179
1, 87464, Tempo, 515952
1, 87480, Tempo, 518179
1, 87488, Tempo, 520427
1, 87496, Tempo, 524980
1, 87504, Tempo, 527287
1, 87512, Tempo, 529614
1, 87520, Tempo, 531962
1, 87528, Tempo, 536721
1, 87536, Tempo, 531962
1, 87544, Tempo, 527287
1, 87552, Tempo, 524980
1, 87560, Tempo, 522694
1, 87600, Tempo, 538358
1, 87630, Tempo, 528867
1, 87660, Tempo, 550711
1, 87690, Tempo, 535954
1, 87720, Tempo, 535954
1, 87750, Tempo, 545703
1, 87780, Tempo, 540784
1, 87810, Tempo, 543232
1, 87840, Tempo, 531962
1, 87848, Tempo, 524980
1, 87856, Tempo, 522694
1, 87864, Tempo, 520427
1, 87896, Tempo, 524980
1, 87904, Tempo, 531962
1, 87920, Tempo, 534331
1, 87928, Tempo, 531962
1, 87936, Tempo, 527287
1, 87944, Tempo, 524980
1, 87952, Tempo, 522694
1, 87968, Tempo, 524980
1, 87976, Tempo, 527287
1, 87984, Tempo, 531962
1, 88032, Tempo, 529614
1, 88040, Tempo, 527287
1, 88048, Tempo, 524980
1, 88056, Tempo, 522694
1, 88072, Tempo, 534331
1, 88088, Tempo, 536721
1, 88120, Tempo, 534331
1, 88128, Tempo, 524980
1, 88144, Tempo, 520427
1, 88152, Tempo, 518179
1, 88184, Tempo, 531962
1, 88192, Tempo, 534331
1, 88216, Tempo, 527287
1, 88224, Tempo, 524980
1, 88240, Tempo, 527287
1, 88248, Tempo, 531962
1, 88280, Tempo, 529614
1, 88320, Tempo, 544020
1, 88328, Tempo, 539132
1, 88336, Tempo, 536721
1, 88344, Tempo, 534331
1, 88384, Tempo, 536721
1, 88408, Tempo, 539132
1, 88416, Tempo, 541565
1, 88424, Tempo, 544020
1, 88440, Tempo, 548998
1, 88456, Tempo, 546498
1, 88464, Tempo, 541565
1, 88480, Tempo, 539132
1, 88488, Tempo, 536721
1, 88504, Tempo, 541565
1, 88512, Tempo, 544020
1, 88520, Tempo, 548998
1, 88536, Tempo, 551521
1, 88552, Tempo, 548998
1, 88568, Tempo, 546498
1, 88576, Tempo, 539132
1, 88592, Tempo, 531962
1, 88600, Tempo, 534331
1, 88616, Tempo, 536721
1, 88624, Tempo, 539132
1, 88632, Tempo, 541565
1, 88664, Tempo, 536721
1, 88672, Tempo, 531962
1, 88680, Tempo, 529614
1, 88688, Tempo, 527287
1, 88704, Tempo, 546498
1, 88712, Tempo, 548998
1, 88720, Tempo, 544020
1, 88728, Tempo, 539132
1, 88736, Tempo, 536721
1, 88760, Tempo, 539132
1, 88800, Tempo, 521966
1, 88830, Tempo, 506543
1, 88860, Tempo, 521966
1, 88890, Tempo, 521966
1, 88920, Tempo, 515243
1, 88950, Tempo, 526547
1, 88980, Tempo, 515243
1, 89010, Tempo, 519706
1, 89040, Tempo, 551521
1, 89160, Tempo, 539132
1, 89396, Tempo, 529614
1, 89408, Tempo, 539132
1, 89536, Tempo, 536721
1, 89664, Tempo, 534331
1, 89784, Tempo, 531962
1, 89912, Tempo, 529614
1, 90032, Tempo, 527287
1, 90064, Tempo, 529614
1, 90096, Tempo, 531962
1, 90128, Tempo, 534331
1, 90152, Tempo, 536721
1, 90154, Tempo, 534331
1, 90179, Tempo, 539132
1, 90205, Tempo, 544020
1, 90230, Tempo, 548998
1, 90240, Tempo, 559232
1, 90256, Tempo, 561850
1, 90264, Tempo, 564493
1, 90272, Tempo, 567161
1, 90280, Tempo, 569855
1, 90296, Tempo, 572574
1, 90304, Tempo, 575319
1, 90312, Tempo, 578090
1, 90320, Tempo, 580889
1, 90336, Tempo, 583714
1, 90344, Tempo, 586568
1, 90352, Tempo, 589449
1, 90360, Tempo, 592359
1, 90376, Tempo, 595297
1, 90384, Tempo, 598265
1, 90392, Tempo, 601263
1, 90400, Tempo, 604290
1, 90416, Tempo, 607349
1, 90424, Tempo, 610438
1, 90432, Tempo, 613560
1, 90440, Tempo, 616713
1, 90456, Tempo, 619899
1, 90464, Tempo, 623118
1, 90472, Tempo, 626370
1, 90480, Tempo, 671968
1, 91440, Tempo, 526547
1, 91440, Marker_t, "Teil 1 D.C."
1, 91920, Tempo, 540151
1, 92160, Tempo, 503482
1, 92640, Tempo, 515154
1, 92880, Tempo, 503482
1, 94080, Tempo, 517554
1, 94320, Tempo, 503482
1, 94560, Tempo, 501211
1, 95640, Tempo, 512777
1, 95760, Tempo, 515243
1, 96000, Tempo, 524246
1, 96240, Tempo, 534950
1, 96480, Tempo, 503482
1, 96960, Tempo, 540151
1, 97200, Tempo, 524888
1, 97680, Tempo, 540151
1, 97920, Tempo, 503482
1, 98400, Tempo, 515154
1, 98640, Tempo, 503482
1, 99360, Tempo, 505774
1, 99840, Tempo, 517554
1, 100080, Tempo, 503482
1, 100128, Tempo, 496771
1, 100224, Tempo, 499002
1, 100288, Tempo, 501211
1, 100384, Tempo, 503482
1, 100448, Tempo, 505774
1, 100512, Tempo, 508087
1, 100608, Tempo, 510421
1, 100672, Tempo, 512777
1, 100736, Tempo, 515154
1, 100800, Tempo, 503482
1, 101280, Tempo, 517554
1, 101520, Tempo, 503482
1, 102000, Tempo, 510421
1, 102240, Tempo, 503482
1, 102480, Tempo, 492368
1, 102720, Tempo, 482121
1, 102840, Tempo, 561010
1, 102960, Tempo, 522421
1, 103440, Tempo, 540151
1, 103680, Tempo, 503482
1, 104160, Tempo, 515154
1, 104400, Tempo, 492005
1, 104760, Tempo, 508690
1, 105000, Tempo, 548196
1, 105120, Tempo, 513040
1, 105600, Tempo, 521966
1, 105840, Tempo, 503482
1, 106080, Tempo, 501211
1, 107160, Tempo, 529895
1, 107280, Tempo, 512777
1, 107520, Tempo, 524246
1, 107760, Tempo, 534950
1, 108000, Tempo, 510421
1, 108480, Tempo, 540151
1, 108720, Tempo, 545703
1, 109200, Tempo, 566305
1, 109440, Tempo, 503482
1, 109920, Tempo, 515154
1, 110160, Tempo, 503482
1, 110880, Tempo, 505774
1, 111360, Tempo, 517554
1, 111600, Tempo, 503482
1, 111680, Tempo, 494560
1, 111776, Tempo, 496771
1, 111840, Tempo, 499002
1, 111936, Tempo, 501211
1, 112000, Tempo, 503482
1, 112096, Tempo, 505774
1, 112160, Tempo, 508087
1, 112256, Tempo, 510421
1, 112320, Tempo, 508087
1, 112800, Tempo, 522421
1, 113160, Tempo, 510421
1, 114000, Tempo, 492368
1, 114304, Tempo, 493868
1, 114432, Tempo, 495909
1, 114560, Tempo, 497967
1, 114688, Tempo, 500042
1, 114816, Tempo, 502134
1, 114944, Tempo, 504244
1, 115072, Tempo, 506372
1, 115168, Tempo, 508518
1, 115200, Tempo, 518179
1, 115680, Tempo, 517554
1, 115920, Tempo, 503482
1, 116400, Tempo, 510421
1, 116640, Tempo, 518179
1, 117360, Tempo, 495909
1, 117440, Tempo, 497967
1, 117568, Tempo, 500042
1, 117696, Tempo, 502134
1, 117824, Tempo, 504244
1, 117952, Tempo, 506372
1, 118048, Tempo, 508518
1, 118080, Tempo, 515952
1, 118560, Tempo, 517554
1, 118800, Tempo, 503482
1, 119280, Tempo, 510421
1, 120000, Tempo, 520427
1, 120240, Tempo, 509381
1, 120720, Tempo, 546498
1, 120960, Tempo, 507228
1, 121440, Tempo, 520427
1, 121680, Tempo, 507228
1, 122160, Tempo, 548998
1, 122400, Tempo, 507228
1, 122520, Tempo, 492651
1, 122880, Tempo, 518179
1, 123000, Tempo, 507228
1, 123480, Tempo, 496730
1, 123720, Tempo, 529614
1, 123840, Tempo, 517019
1, 124080, Tempo, 535475
1, 124320, Tempo, 550206
1, 124560, Tempo, 585080
1, 124800, Tempo, 641368
1, 125040, Tempo, 856531
1, 125040, End_track
2, 0, Start_track
2, 0, Title_t, "Piano right"
2, 0, Program_c, 0, 0
2, 720, Note_on_c, 0, 69, 50
2, 720, Note_on_c, 0, 66, 42
2, 840, Note_on_c, 0, 66, 0
2, 840, Note_on_c, 0, 69, 0
2, 960, Note_on_c, 0, 69, 47
2, 960, Note_on_c, 0, 66, 39
2, 1080, Note_on_c, 0, 66, 0
2, 1080, Note_on_c, 0, 69, 0
2, 1200, Note_on_c, 0, 66, 39
2, 1200, Note_on_c, 0, 69, 47
2, 1320, Note_on_c, 0, 69, 0
2, 1320, Note_on_c, 0, 66, 0
2, 1440, Note_on_c, 0, 71, 58
2, 1440, Note_on_c, 0, 67, 49
2, 1920, Note_on_c, 0, 67, 0
2, 1920, Note_on_c, 0, 71, 0
2, 1920, Note_on_c, 0, 69, 46
2, 1920, Note_on_c, 0, 66, 39
2, 2160, Note_on_c, 0, 66, 0
2, 2160, Note_on_c, 0, 69, 0
2, 2160, Note_on_c, 0, 74, 50
2, 2400, Note_on_c, 0, 74, 0
2, 2400, Note_on_c, 0, 69, 48
2, 2640, Note_on_c, 0, 69, 0
2, 2640, Note_on_c, 0, 66, 48
2, 2880, Note_on_c, 0, 66, 0
2, 2880, Note_on_c, 0, 69, 50
2, 2880, Note_on_c, 0, 64, 50
2, 3120, Note_on_c, 0, 69, 0
2, 3120, Note_on_c, 0, 67, 47
2, 3360, Note_on_c, 0, 67, 0
2, 3360, Note_on_c, 0, 64, 0
2, 3360, Note_on_c, 0, 62, 39
2, 3360, Note_on_c, 0, 66, 47
2, 3600, Note_on_c, 0, 66, 0
2, 3600, Note_on_c, 0, 62, 0
2, 3600, Note_on_c, 0, 74, 42
2, 3600, Note_on_c, 0, 78, 50
2, 3840, Note_on_c, 0, 78, 0
2, 3840, Note_on_c, 0, 74, 0
2, 3840, Note_on_c, 0, 79, 50
2, 3840, Note_on_c, 0, 76, 42
2, 4080, Note_on_c, 0, 76, 0
2, 4080, Note_on_c, 0, 79, 0
2, 4080, Note_on_c, 0, 81, 55
2, 4080, Note_on_c, 0, 78, 46
2, 4320, Note_on_c, 0, 78, 0
2, 4320, Note_on_c, 0, 81, 0
2, 4320, Note_on_c, 0, 81, 57
2, 4320, Note_on_c, 0, 78, 48
2, 4560, Note_on_c, 0, 78, 0
2, 4560, Note_on_c, 0, 81, 0
2, 4560, Note_on_c, 0, 76, 45
2, 4560, Note_on_c, 0, 79, 53
2, 4740, Note_on_c, 0, 79, 0
2, 4740, Note_on_c, 0, 76, 0
2, 4800, Note_on_c, 0, 76, 40
2, 4800, Note_on_c, 0, 79, 48
2, 4920, Note_on_c, 0, 79, 0
2, 4920, Note_on_c, 0, 76, 0
2, 5040, Note_on_c, 0, 78, 50
2, 5040, Note_on_c, 0, 74, 42
2, 5280, Note_on_c, 0, 74, 0
2, 5280, Note_on_c, 0, 78, 0
2, 5280, Note_on_c, 0, 76, 47
2, 5280, Note_on_c, 0, 73, 39
2, 5520, Note_on_c, 0, 73, 0
2, 5520, Note_on_c, 0, 76, 0
2, 5520, Note_on_c, 0, 78, 47
2, 5520, Note_on_c, 0, 74, 39
2, 5640, Note_on_c, 0, 74, 0
2, 5640, Note_on_c, 0, 78, 0
2, 5760, Note_on_c, 0, 73, 39
2, 5760, Note_on_c, 0, 76, 47
2, 5940, Note_on_c, 0, 76, 0
2, 5940, Note_on_c, 0, 73, 0
2, 6480, Note_on_c, 0, 66, 34
2, 6480, Note_on_c, 0, 69, 40
2, 6600, Note_on_c, 0, 69, 0
2, 6600, Note_on_c, 0, 66, 0
2, 6720, Note_on_c, 0, 66, 31
2, 6720, Note_on_c, 0, 69, 37
2, 6840, Note_on_c, 0, 69, 0
2, 6840, Note_on_c, 0, 66, 0
2, 6960, Note_on_c, 0, 69, 37
2, 6960, Note_on_c, 0, 66, 31
2, 7080, Note_on_c, 0, 66, 0
2, 7080, Note_on_c, 0, 69, 0
2, 7200, Note_on_c, 0, 71, 46
2, 7200, Note_on_c, 0, 67, 39
2, 7680, Note_on_c, 0, 67, 0
2, 7680, Note_on_c, 0, 71, 0
2, 7680, Note_on_c, 0, 66, 30
2, 7680, Note_on_c, 0, 69, 36
2, 7920, Note_on_c, 0, 69, 0
2, 7920, Note_on_c, 0, 66, 0
2, 7920, Note_on_c, 0, 74, 40
2, 8160, Note_on_c, 0, 74, 0
2, 8160, Note_on_c, 0, 69, 38
2, 8400, Note_on_c, 0, 69, 0
2, 8400, Note_on_c, 0, 66, 38
2, 8640, Note_on_c, 0, 66, 0
2, 8640, Note_on_c, 0, 69, 40
2, 8640, Note_on_c, 0, 64, 34
2, 8880, Note_on_c, 0, 69, 0
2, 8880, Note_on_c, 0, 67, 37
2, 9120, Note_on_c, 0, 67, 0
2, 9120, Note_on_c, 0, 64, 0
2, 9120, Note_on_c, 0, 66, 37
2, 9120, Note_on_c, 0, 62, 31
2, 9360, Note_on_c, 0, 62, 0
2, 9360, Note_on_c, 0, 66, 0
2, 9360, Note_on_c, 0, 81, 46
2, 9480, Note_on_c, 0, 81, 0
2, 9480, Note_on_c, 0, 79, 43
2, 9600, Note_on_c, 0, 79, 0
2, 9600, Note_on_c, 0, 78, 43
2, 9720, Note_on_c, 0, 78, 0
2, 9720, Note_on_c, 0, 76, 42
2, 9840, Note_on_c, 0, 76, 0
2, 9840, Note_on_c, 0, 74, 42
2, 9960, Note_on_c, 0, 74, 0
2, 9960, Note_on_c, 0, 73, 42
2, 10080, Note_on_c, 0, 73, 0
2, 10080, Note_on_c, 0, 71, 40
2, 10200, Note_on_c, 0, 71, 0
2, 10320, Note_on_c, 0, 71, 37
2, 10440, Note_on_c, 0, 71, 0
2, 10560, Note_on_c, 0, 71, 37
2, 10680, Note_on_c, 0, 71, 0
2, 10770, Note_on_c, 0, 74, 32
2, 10800, Note_on_c, 0, 74, 0
2, 10800, Note_on_c, 0, 73, 42
2, 10920, Note_on_c, 0, 73, 0
2, 11040, Note_on_c, 0, 71, 38
2, 11160, Note_on_c, 0, 71, 0
2, 11280, Note_on_c, 0, 73, 38
2, 11400, Note_on_c, 0, 73, 0
2, 11520, Note_on_c, 0, 74, 38
2, 11640, Note_on_c, 0, 74, 0
2, 11760, Note_on_c, 0, 78, 55
2, 11880, Note_on_c, 0, 78, 0
2, 11880, Note_on_c, 0, 74, 49
2, 12000, Note_on_c, 0, 74, 0
2, 12000, Note_on_c, 0, 78, 59
2, 12120, Note_on_c, 0, 78, 0
2, 12120, Note_on_c, 0, 74, 51
2, 12240, Note_on_c, 0, 74, 0
2, 12240, Note_on_c, 0, 69, 59
2, 12360, Note_on_c, 0, 69, 0
2, 12480, Note_on_c, 0, 66, 50
2, 12480, Note_on_c, 0, 69, 61
2, 12600, Note_on_c, 0, 69, 0
2, 12600, Note_on_c, 0, 66, 0
2, 12720, Note_on_c, 0, 69, 61
2, 12720, Note_on_c, 0, 66, 50
2, 12840, Note_on_c, 0, 66, 0
2, 12840, Note_on_c, 0, 69, 0
2, 12960, Note_on_c, 0, 71, 75
2, 12960, Note_on_c, 0, 67, 63
2, 13440, Note_on_c, 0, 67, 0
2, 13440, Note_on_c, 0, 71, 0
2, 13440, Note_on_c, 0, 69, 59
2, 13440, Note_on_c, 0, 66, 50
2, 13680, Note_on_c, 0, 66, 0
2, 13680, Note_on_c, 0, 69, 0
2, 13680, Note_on_c, 0, 74, 65
2, 13800, Note_on_c, 0, 74, 0
2, 13800, Note_on_c, 0, 69, 49
2, 13920, Note_on_c, 0, 69, 0
2, 13920, Note_on_c, 0, 74, 62
2, 14040, Note_on_c, 0, 74, 0
2, 14040, Note_on_c, 0, 69, 49
2, 14160, Note_on_c, 0, 69, 0
2, 14160, Note_on_c, 0, 66, 62
2, 14280, Note_on_c, 0, 66, 0
2, 14400, Note_on_c, 0, 64, 56
2, 14400, Note_on_c, 0, 69, 65
2, 14640, Note_on_c, 0, 69, 0
2, 14640, Note_on_c, 0, 67, 61
2, 14880, Note_on_c, 0, 67, 0
2, 14880, Note_on_c, 0, 64, 0
2, 14880, Note_on_c, 0, 66, 61
2, 14880, Note_on_c, 0, 62, 50
2, 15120, Note_on_c, 0, 62, 0
2, 15120, Note_on_c, 0, 66, 0
2, 15120, Note_on_c, 0, 78, 65
2, 15120, Note_on_c, 0, 74, 54
2, 15360, Note_on_c, 0, 74, 0
2, 15360, Note_on_c, 0, 78, 0
2, 15360, Note_on_c, 0, 79, 61
2, 15360, Note_on_c, 0, 76, 51
2, 15600, Note_on_c, 0, 76, 0
2, 15600, Note_on_c, 0, 79, 0
2, 15600, Note_on_c, 0, 78, 54
2, 15600, Note_on_c, 0, 81, 64
2, 15840, Note_on_c, 0, 81, 0
2, 15840, Note_on_c, 0, 78, 0
2, 15840, Note_on_c, 0, 81, 70
2, 15840, Note_on_c, 0, 78, 59
2, 16080, Note_on_c, 0, 78, 0
2, 16080, Note_on_c, 0, 81, 0
2, 16080, Note_on_c, 0, 79, 62
2, 16080, Note_on_c, 0, 76, 52
2, 16260, Note_on_c, 0, 76, 0
2, 16260, Note_on_c, 0, 79, 0
2, 16320, Note_on_c, 0, 79, 62
2, 16320, Note_on_c, 0, 76, 52
2, 16440, Note_on_c, 0, 76, 0
2, 16440, Note_on_c, 0, 79, 0
2, 16560, Note_on_c, 0, 78, 65
2, 16560, Note_on_c, 0, 74, 54
2, 16800, Note_on_c, 0, 74, 0
2, 16800, Note_on_c, 0, 78, 0
2, 16800, Note_on_c, 0, 73, 50
2, 16800, Note_on_c, 0, 76, 61
2, 17040, Note_on_c, 0, 76, 0
2, 17040, Note_on_c, 0, 73, 0
2, 17040, Note_on_c, 0, 78, 61
2, 17040, Note_on_c, 0, 74, 50
2, 17160, Note_on_c, 0, 74, 0
2, 17160, Note_on_c, 0, 78, 0
2, 17280, Note_on_c, 0, 73, 50
2, 17280, Note_on_c, 0, 76, 61
2, 17460, Note_on_c, 0, 76, 0
2, 17460, Note_on_c, 0, 73, 0
2, 18000, Note_on_c, 0, 66, 56
2, 18000, Note_on_c, 0, 69, 67
2, 18120, Note_on_c, 0, 69, 0
2, 18120, Note_on_c, 0, 66, 0
2, 18240, Note_on_c, 0, 69, 61
2, 18240, Note_on_c, 0, 66, 51
2, 18360, Note_on_c, 0, 66, 0
2, 18360, Note_on_c, 0, 69, 0
2, 18480, Note_on_c, 0, 69, 61
2, 18480, Note_on_c, 0, 66, 51
2, 18600, Note_on_c, 0, 66, 0
2, 18600, Note_on_c, 0, 69, 0
2, 18720, Note_on_c, 0, 67, 64
2, 18720, Note_on_c, 0, 71, 77
2, 19200, Note_on_c, 0, 71, 0
2, 19200, Note_on_c, 0, 67, 0
2, 19200, Note_on_c, 0, 66, 50
2, 19200, Note_on_c, 0, 69, 60
2, 19440, Note_on_c, 0, 69, 0
2, 19440, Note_on_c, 0, 66, 0
2, 19440, Note_on_c, 0, 74, 67
2, 19680, Note_on_c, 0, 74, 0
2, 19680, Note_on_c, 0, 69, 63
2, 19920, Note_on_c, 0, 69, 0
2, 19920, Note_on_c, 0, 66, 63
2, 20160, Note_on_c, 0, 66, 0
2, 20160, Note_on_c, 0, 64, 56
2, 20160, Note_on_c, 0, 69, 67
2, 20400, Note_on_c, 0, 69, 0
2, 20400, Note_on_c, 0, 67, 61
2, 20640, Note_on_c, 0, 67, 0
2, 20640, Note_on_c, 0, 64, 0
2, 20640, Note_on_c, 0, 62, 51
2, 20640, Note_on_c, 0, 66, 61
2, 20880, Note_on_c, 0, 66, 0
2, 20880, Note_on_c, 0, 62, 0
2, 20880, Note_on_c, 0, 81, 65
2, 21000, Note_on_c, 0, 81, 0
2, 21000, Note_on_c, 0, 79, 64
2, 21120, Note_on_c, 0, 79, 0
2, 21120, Note_on_c, 0, 78, 61
2, 21240, Note_on_c, 0, 78, 0
2, 21240, Note_on_c, 0, 76, 58
2, 21360, Note_on_c, 0, 76, 0
2, 21360, Note_on_c, 0, 74, 57
2, 21480, Note_on_c, 0, 74, 0
2, 21480, Note_on_c, 0, 73, 57
2, 21600, Note_on_c, 0, 73, 0
2, 21600, Note_on_c, 0, 71, 66
2, 21720, Note_on_c, 0, 71, 0
2, 21840, Note_on_c, 0, 71, 60
2, 21960, Note_on_c, 0, 71, 0
2, 22080, Note_on_c, 0, 71, 60
2, 22200, Note_on_c, 0, 71, 0
2, 22290, Note_on_c, 0, 74, 51
2, 22320, Note_on_c, 0, 74, 0
2, 22320, Note_on_c, 0, 73, 68
2, 22440, Note_on_c, 0, 73, 0
2, 22560, Note_on_c, 0, 71, 62
2, 22680, Note_on_c, 0, 71, 0
2, 22800, Note_on_c, 0, 73, 62
2, 22920, Note_on_c, 0, 73, 0
2, 23040, Note_on_c, 0, 74, 62
2, 23160, Note_on_c, 0, 74, 0
2, 23280, Note_on_c, 0, 81, 56
2, 23400, Note_on_c, 0, 81, 0
2, 23400, Note_on_c, 0, 79, 55
2, 23520, Note_on_c, 0, 79, 0
2, 23520, Note_on_c, 0, 78, 53
2, 23640, Note_on_c, 0, 78, 0
2, 23640, Note_on_c, 0, 76, 51
2, 23760, Note_on_c, 0, 76, 0
2, 23760, Note_on_c, 0, 74, 50
2, 23880, Note_on_c, 0, 74, 0
2, 23880, Note_on_c, 0, 73, 49
2, 24000, Note_on_c, 0, 73, 0
2, 24000, Note_on_c, 0, 71, 48
2, 24120, Note_on_c, 0, 71, 0
2, 24120, Note_on_c, 0, 69, 44
2, 24240, Note_on_c, 0, 69, 0
2, 24240, Note_on_c, 0, 67, 42
2, 24360, Note_on_c, 0, 67, 0
2, 24360, Note_on_c, 0, 66, 42
2, 24480, Note_on_c, 0, 66, 0
2, 24480, Note_on_c, 0, 64, 46
2, 24600, Note_on_c, 0, 64, 0
2, 24720, Note_on_c, 0, 64, 45
2, 24840, Note_on_c, 0, 64, 0
2, 24960, Note_on_c, 0, 64, 45
2, 25080, Note_on_c, 0, 64, 0
2, 25140, Note_on_c, 0, 67, 39
2, 25170, Note_on_c, 0, 67, 0
2, 25170, Note_on_c, 0, 69, 39
2, 25200, Note_on_c, 0, 69, 0
2, 25200, Note_on_c, 0, 71, 51
2, 25440, Note_on_c, 0, 71, 0
2, 25440, Note_on_c, 0, 69, 46
2, 25680, Note_on_c, 0, 69, 0
2, 25680, Note_on_c, 0, 67, 46
2, 25920, Note_on_c, 0, 67, 0
2, 25920, Note_on_c, 0, 66, 46
2, 26160, Note_on_c, 0, 66, 0
2, 26640, Note_on_c, 0, 74, 50
2, 26760, Note_on_c, 0, 74, 0
2, 26760, Note_on_c, 0, 73, 49
2, 26880, Note_on_c, 0, 73, 0
2, 26880, Note_on_c, 0, 71, 48
2, 27000, Note_on_c, 0, 71, 0
2, 27000, Note_on_c, 0, 69, 44
2, 27120, Note_on_c, 0, 69, 0
2, 27120, Note_on_c, 0, 67, 42
2, 27240, Note_on_c, 0, 67, 0
2, 27240, Note_on_c, 0, 66, 42
2, 27360, Note_on_c, 0, 66, 0
2, 27360, Note_on_c, 0, 64, 46
2, 27480, Note_on_c, 0, 64, 0
2, 27600, Note_on_c, 0, 64, 45
2, 27720, Note_on_c, 0, 64, 0
2, 27840, Note_on_c, 0, 64, 45
2, 27960, Note_on_c, 0, 64, 0
2, 28020, Note_on_c, 0, 67, 39
2, 28050, Note_on_c, 0, 67, 0
2, 28050, Note_on_c, 0, 69, 39
2, 28080, Note_on_c, 0, 69, 0
2, 28080, Note_on_c, 0, 71, 51
2, 28320, Note_on_c, 0, 71, 0
2, 28320, Note_on_c, 0, 69, 46
2, 28560, Note_on_c, 0, 69, 0
2, 28560, Note_on_c, 0, 67, 46
2, 28800, Note_on_c, 0, 67, 0
2, 28800, Note_on_c, 0, 66, 57
2, 28920, Note_on_c, 0, 66, 0
2, 28920, Note_on_c, 0, 74, 46
2, 29040, Note_on_c, 0, 74, 0
2, 29040, Note_on_c, 0, 66, 56
2, 29160, Note_on_c, 0, 66, 0
2, 29160, Note_on_c, 0, 74, 46
2, 29280, Note_on_c, 0, 74, 0
2, 29280, Note_on_c, 0, 66, 57
2, 29400, Note_on_c, 0, 66, 0
2, 29400, Note_on_c, 0, 74, 47
2, 29520, Note_on_c, 0, 74, 0
2, 29520, Note_on_c, 0, 66, 67
2, 29640, Note_on_c, 0, 66, 0
2, 29640, Note_on_c, 0, 75, 52
2, 29760, Note_on_c, 0, 75, 0
2, 29760, Note_on_c, 0, 66, 65
2, 29880, Note_on_c, 0, 66, 0
2, 29880, Note_on_c, 0, 75, 56
2, 30000, Note_on_c, 0, 75, 0
2, 30000, Note_on_c, 0, 66, 66
2, 30120, Note_on_c, 0, 66, 0
2, 30120, Note_on_c, 0, 75, 54
2, 30240, Note_on_c, 0, 75, 0
2, 30240, Note_on_c, 0, 64, 69
2, 30360, Note_on_c, 0, 64, 0
2, 30360, Note_on_c, 0, 76, 55
2, 30480, Note_on_c, 0, 76, 0
2, 30480, Note_on_c, 0, 64, 68
2, 30600, Note_on_c, 0, 64, 0
2, 30600, Note_on_c, 0, 76, 57
2, 30720, Note_on_c, 0, 76, 0
2, 30720, Note_on_c, 0, 64, 70
2, 30840, Note_on_c, 0, 64, 0
2, 30840, Note_on_c, 0, 76, 62
2, 30960, Note_on_c, 0, 76, 0
2, 30960, Note_on_c, 0, 73, 81
2, 31080, Note_on_c, 0, 73, 0
2, 31080, Note_on_c, 0, 81, 66
2, 31200, Note_on_c, 0, 81, 0
2, 31200, Note_on_c, 0, 73, 77
2, 31320, Note_on_c, 0, 73, 0
2, 31320, Note_on_c, 0, 81, 65
2, 31440, Note_on_c, 0, 81, 0
2, 31440, Note_on_c, 0, 73, 79
2, 31560, Note_on_c, 0, 73, 0
2, 31560, Note_on_c, 0, 81, 69
2, 31680, Note_on_c, 0, 81, 0
2, 31680, Note_on_c, 0, 74, 81
2, 31800, Note_on_c, 0, 74, 0
2, 31920, Note_on_c, 0, 81, 73
2, 32040, Note_on_c, 0, 81, 0
2, 32040, Note_on_c, 0, 78, 62
2, 32160, Note_on_c, 0, 78, 0
2, 32160, Note_on_c, 0, 79, 72
2, 32280, Note_on_c, 0, 79, 0
2, 32280, Note_on_c, 0, 76, 65
2, 32400, Note_on_c, 0, 76, 0
2, 32400, Note_on_c, 0, 74, 78
2, 32520, Note_on_c, 0, 74, 0
2, 32640, Note_on_c, 0, 81, 77
2, 32760, Note_on_c, 0, 81, 0
2, 32760, Note_on_c, 0, 78, 63
2, 32880, Note_on_c, 0, 78, 0
2, 32880, Note_on_c, 0, 79, 70
2, 33000, Note_on_c, 0, 79, 0
2, 33000, Note_on_c, 0, 76, 64
2, 33120, Note_on_c, 0, 76, 0
2, 33120, Note_on_c, 0, 74, 77
2, 33240, Note_on_c, 0, 74, 0
2, 33360, Note_on_c, 0, 78, 74
2, 33360, Note_on_c, 0, 86, 88
2, 33480, Note_on_c, 0, 86, 0
2, 33480, Note_on_c, 0, 78, 0
2, 33600, Note_on_c, 0, 78, 68
2, 33600, Note_on_c, 0, 86, 80
2, 33720, Note_on_c, 0, 86, 0
2, 33720, Note_on_c, 0, 78, 0
2, 33840, Note_on_c, 0, 78, 74
2, 33840, Note_on_c, 0, 86, 88
2, 33960, Note_on_c, 0, 86, 0
2, 33960, Note_on_c, 0, 78, 0
2, 34080, Note_on_c, 0, 86, 81
2, 34080, Note_on_c, 0, 78, 68
2, 34200, Note_on_c, 0, 78, 0
2, 34200, Note_on_c, 0, 86, 0
2, 34320, Note_on_c, 0, 78, 68
2, 34320, Note_on_c, 0, 86, 81
2, 34440, Note_on_c, 0, 86, 0
2, 34440, Note_on_c, 0, 78, 0
2, 34560, Note_on_c, 0, 78, 74
2, 34560, Note_on_c, 0, 86, 89
2, 35040, Note_on_c, 0, 86, 0
2, 35040, Note_on_c, 0, 78, 0
2, 35280, Note_on_c, 0, 74, 42
2, 35280, Note_on_c, 0, 78, 50
2, 35400, Note_on_c, 0, 78, 0
2, 35400, Note_on_c, 0, 74, 0
2, 35520, Note_on_c, 0, 78, 47
2, 35520, Note_on_c, 0, 74, 39
2, 35640, Note_on_c, 0, 74, 0
2, 35640, Note_on_c, 0, 78, 0
2, 35760, Note_on_c, 0, 78, 47
2, 35760, Note_on_c, 0, 74, 39
2, 35880, Note_on_c, 0, 74, 0
2, 35880, Note_on_c, 0, 78, 0
2, 36000, Note_on_c, 0, 73, 49
2, 36000, Note_on_c, 0, 76, 58
2, 36480, Note_on_c, 0, 76, 0
2, 36480, Note_on_c, 0, 73, 0
2, 36480, Note_on_c, 0, 71, 39
2, 36480, Note_on_c, 0, 74, 46
2, 36720, Note_on_c, 0, 74, 0
2, 36720, Note_on_c, 0, 71, 0
2, 36720, Note_on_c, 0, 79, 50
2, 36720, Note_on_c, 0, 76, 42
2, 36840, Note_on_c, 0, 76, 0
2, 36840, Note_on_c, 0, 79, 0
2, 36960, Note_on_c, 0, 79, 47
2, 36960, Note_on_c, 0, 76, 39
2, 37080, Note_on_c, 0, 76, 0
2, 37080, Note_on_c, 0, 79, 0
2, 37200, Note_on_c, 0, 79, 47
2, 37200, Note_on_c, 0, 76, 39
2, 37320, Note_on_c, 0, 76, 0
2, 37320, Note_on_c, 0, 79, 0
2, 37440, Note_on_c, 0, 74, 49
2, 37440, Note_on_c, 0, 78, 58
2, 37920, Note_on_c, 0, 78, 0
2, 37920, Note_on_c, 0, 74, 0
2, 37920, Note_on_c, 0, 73, 39
2, 37920, Note_on_c, 0, 76, 46
2, 38160, Note_on_c, 0, 76, 0
2, 38160, Note_on_c, 0, 73, 0
2, 38160, Note_on_c, 0, 81, 50
2, 38160, Note_on_c, 0, 78, 42
2, 38280, Note_on_c, 0, 78, 0
2, 38280, Note_on_c, 0, 81, 0
2, 38400, Note_on_c, 0, 81, 47
2, 38400, Note_on_c, 0, 78, 39
2, 38520, Note_on_c, 0, 78, 0
2, 38520, Note_on_c, 0, 81, 0
2, 38640, Note_on_c, 0, 81, 47
2, 38640, Note_on_c, 0, 78, 39
2, 38760, Note_on_c, 0, 78, 0
2, 38760, Note_on_c, 0, 81, 0
2, 38880, Note_on_c, 0, 76, 49
2, 38880, Note_on_c, 0, 79, 58
2, 39360, Note_on_c, 0, 79, 0
2, 39360, Note_on_c, 0, 76, 0
2, 39360, Note_on_c, 0, 74, 39
2, 39360, Note_on_c, 0, 78, 46
2, 39600, Note_on_c, 0, 78, 0
2, 39600, Note_on_c, 0, 74, 0
2, 39600, Note_on_c, 0, 86, 65
2, 39720, Note_on_c, 0, 86, 0
2, 39720, Note_on_c, 0, 76, 52
2, 39840, Note_on_c, 0, 76, 0
2, 39840, Note_on_c, 0, 86, 62
2, 39960, Note_on_c, 0, 86, 0
2, 39960, Note_on_c, 0, 76, 52
2, 40080, Note_on_c, 0, 76, 0
2, 40080, Note_on_c, 0, 86, 62
2, 40200, Note_on_c, 0, 86, 0
2, 40200, Note_on_c, 0, 76, 54
2, 40320, Note_on_c, 0, 76, 0
2, 40320, Note_on_c, 0, 85, 65
2, 40440, Note_on_c, 0, 85, 0
2, 40440, Note_on_c, 0, 76, 52
2, 40560, Note_on_c, 0, 76, 0
2, 40560, Note_on_c, 0, 85, 63
2, 40680, Note_on_c, 0, 85, 0
2, 40680, Note_on_c, 0, 76, 52
2, 40800, Note_on_c, 0, 76, 0
2, 40800, Note_on_c, 0, 85, 63
2, 40920, Note_on_c, 0, 85, 0
2, 40920, Note_on_c, 0, 76, 54
2, 41040, Note_on_c, 0, 76, 0
2, 41040, Note_on_c, 0, 80, 65
2, 41160, Note_on_c, 0, 80, 0
2, 41160, Note_on_c, 0, 76, 52
2, 41280, Note_on_c, 0, 76, 0
2, 41280, Note_on_c, 0, 80, 64
2, 41400, Note_on_c, 0, 80, 0
2, 41400, Note_on_c, 0, 76, 52
2, 41520, Note_on_c, 0, 76, 0
2, 41520, Note_on_c, 0, 80, 63
2, 41640, Note_on_c, 0, 80, 0
2, 41640, Note_on_c, 0, 76, 54
2, 41760, Note_on_c, 0, 76, 0
2, 41760, Note_on_c, 0, 81, 65
2, 41880, Note_on_c, 0, 81, 0
2, 41880, Note_on_c, 0, 76, 56
2, 42000, Note_on_c, 0, 76, 0
2, 42000, Note_on_c, 0, 83, 68
2, 42120, Note_on_c, 0, 83, 0
2, 42120, Note_on_c, 0, 76, 56
2, 42240, Note_on_c, 0, 76, 0
2, 42240, Note_on_c, 0, 85, 70
2, 42360, Note_on_c, 0, 85, 0
2, 42360, Note_on_c, 0, 76, 58
2, 42480, Note_on_c, 0, 76, 0
2, 42480, Note_on_c, 0, 86, 72
2, 42600, Note_on_c, 0, 86, 0
2, 42600, Note_on_c, 0, 76, 56
2, 42720, Note_on_c, 0, 76, 0
2, 42720, Note_on_c, 0, 86, 68
2, 42840, Note_on_c, 0, 86, 0
2, 42840, Note_on_c, 0, 76, 58
2, 42960, Note_on_c, 0, 76, 0
2, 42960, Note_on_c, 0, 86, 65
2, 43080, Note_on_c, 0, 86, 0
2, 43080, Note_on_c, 0, 76, 58
2, 43200, Note_on_c, 0, 76, 0
2, 43200, Note_on_c, 0, 85, 65
2, 43320, Note_on_c, 0, 85, 0
2, 43320, Note_on_c, 0, 88, 64
2, 43440, Note_on_c, 0, 88, 0
2, 43440, Note_on_c, 0, 86, 65
2, 43560, Note_on_c, 0, 86, 0
2, 43560, Note_on_c, 0, 85, 61
2, 43680, Note_on_c, 0, 85, 0
2, 43680, Note_on_c, 0, 83, 65
2, 43800, Note_on_c, 0, 83, 0
2, 43800, Note_on_c, 0, 81, 61
2, 43920, Note_on_c, 0, 81, 0
2, 43920, Note_on_c, 0, 80, 66
2, 44040, Note_on_c, 0, 80, 0
2, 44040, Note_on_c, 0, 78, 62
2, 44160, Note_on_c, 0, 78, 0
2, 44160, Note_on_c, 0, 76, 64
2, 44280, Note_on_c, 0, 76, 0
2, 44280, Note_on_c, 0, 74, 68
2, 44400, Note_on_c, 0, 74, 0
2, 44400, Note_on_c, 0, 73, 70
2, 44520, Note_on_c, 0, 73, 0
2, 44520, Note_on_c, 0, 71, 71
2, 44640, Note_on_c, 0, 71, 0
2, 44640, Note_on_c, 0, 72, 65
2, 44760, Note_on_c, 0, 72, 0
2, 44760, Note_on_c, 0, 69, 52
2, 44880, Note_on_c, 0, 69, 0
2, 44880, Note_on_c, 0, 72, 63
2, 45000, Note_on_c, 0, 72, 0
2, 45000, Note_on_c, 0, 69, 52
2, 45120, Note_on_c, 0, 69, 0
2, 45120, Note_on_c, 0, 72, 63
2, 45240, Note_on_c, 0, 72, 0
2, 45240, Note_on_c, 0, 69, 54
2, 45360, Note_on_c, 0, 69, 0
2, 45360, Note_on_c, 0, 72, 72
2, 45480, Note_on_c, 0, 72, 0
2, 45480, Note_on_c, 0, 69, 52
2, 45600, Note_on_c, 0, 69, 0
2, 45600, Note_on_c, 0, 72, 64
2, 45720, Note_on_c, 0, 72, 0
2, 45720, Note_on_c, 0, 69, 52
2, 45840, Note_on_c, 0, 69, 0
2, 45840, Note_on_c, 0, 72, 63
2, 45960, Note_on_c, 0, 72, 0
2, 45960, Note_on_c, 0, 69, 54
2, 46080, Note_on_c, 0, 69, 0
2, 46080, Note_on_c, 0, 72, 65
2, 46200, Note_on_c, 0, 72, 0
2, 46200, Note_on_c, 0, 69, 52
2, 46320, Note_on_c, 0, 69, 0
2, 46320, Note_on_c, 0, 72, 63
2, 46440, Note_on_c, 0, 72, 0
2, 46440, Note_on_c, 0, 69, 52
2, 46560, Note_on_c, 0, 69, 0
2, 46560, Note_on_c, 0, 72, 63
2, 46680, Note_on_c, 0, 72, 0
2, 46680, Note_on_c, 0, 69, 54
2, 46800, Note_on_c, 0, 69, 0
2, 46800, Note_on_c, 0, 72, 72
2, 46920, Note_on_c, 0, 72, 0
2, 46920, Note_on_c, 0, 69, 52
2, 47040, Note_on_c, 0, 69, 0
2, 47040, Note_on_c, 0, 72, 64
2, 47160, Note_on_c, 0, 72, 0
2, 47160, Note_on_c, 0, 69, 52
2, 47280, Note_on_c, 0, 69, 0
2, 47280, Note_on_c, 0, 72, 63
2, 47400, Note_on_c, 0, 72, 0
2, 47400, Note_on_c, 0, 69, 54
2, 47520, Note_on_c, 0, 69, 0
2, 47520, Note_on_c, 0, 68, 61
2, 47520, Note_on_c, 0, 71, 68
2, 47640, Note_on_c, 0, 71, 0
2, 47640, Note_on_c, 0, 68, 0
2, 48240, Note_on_c, 0, 76, 62
2, 48240, Note_on_c, 0, 72, 62
2, 48360, Note_on_c, 0, 72, 0
2, 48360, Note_on_c, 0, 76, 0
2, 48480, Note_on_c, 0, 72, 53
2, 48480, Note_on_c, 0, 76, 53
2, 48600, Note_on_c, 0, 76, 0
2, 48600, Note_on_c, 0, 72, 0
2, 48720, Note_on_c, 0, 72, 53
2, 48720, Note_on_c, 0, 76, 53
2, 48840, Note_on_c, 0, 76, 0
2, 48840, Note_on_c, 0, 72, 0
2, 48960, Note_on_c, 0, 74, 68
2, 48960, Note_on_c, 0, 71, 61
2, 49080, Note_on_c, 0, 71, 0
2, 49080, Note_on_c, 0, 74, 0
2, 49680, Note_on_c, 0, 72, 62
2, 49680, Note_on_c, 0, 69, 62
2, 49800, Note_on_c, 0, 69, 0
2, 49800, Note_on_c, 0, 72, 0
2, 49920, Note_on_c, 0, 69, 53
2, 49920, Note_on_c, 0, 72, 53
2, 50040, Note_on_c, 0, 72, 0
2, 50040, Note_on_c, 0, 69, 0
2, 50160, Note_on_c, 0, 69, 53
2, 50160, Note_on_c, 0, 72, 53
2, 50280, Note_on_c, 0, 72, 0
2, 50280, Note_on_c, 0, 69, 0
2, 50400, Note_on_c, 0, 68, 61
2, 50400, Note_on_c, 0, 71, 68
2, 50520, Note_on_c, 0, 71, 0
2, 50520, Note_on_c, 0, 68, 0
2, 51120, Note_on_c, 0, 69, 62
2, 51120, Note_on_c, 0, 63, 62
2, 51240, Note_on_c, 0, 63, 0
2, 51240, Note_on_c, 0, 69, 0
2, 51360, Note_on_c, 0, 69, 53
2, 51360, Note_on_c, 0, 63, 53
2, 51480, Note_on_c, 0, 63, 0
2, 51480, Note_on_c, 0, 69, 0
2, 51600, Note_on_c, 0, 69, 53
2, 51600, Note_on_c, 0, 63, 53
2, 51720, Note_on_c, 0, 63, 0
2, 51720, Note_on_c, 0, 69, 0
2, 51840, Note_on_c, 0, 64, 54
2, 51840, Note_on_c, 0, 68, 61
2, 51960, Note_on_c, 0, 68, 0
2, 51960, Note_on_c, 0, 64, 0
2, 52080, Note_on_c, 0, 68, 46
2, 52080, Note_on_c, 0, 64, 46
2, 52200, Note_on_c, 0, 64, 0
2, 52200, Note_on_c, 0, 68, 0
2, 52320, Note_on_c, 0, 64, 45
2, 52320, Note_on_c, 0, 68, 45
2, 52440, Note_on_c, 0, 68, 0
2, 52440, Note_on_c, 0, 64, 0
2, 52560, Note_on_c, 0, 57, 51
2, 52560, Note_on_c, 0, 63, 51
2, 52680, Note_on_c, 0, 63, 0
2, 52680, Note_on_c, 0, 57, 0
2, 52800, Note_on_c, 0, 57, 42
2, 52800, Note_on_c, 0, 63, 42
2, 52920, Note_on_c, 0, 63, 0
2, 52920, Note_on_c, 0, 57, 0
2, 53040, Note_on_c, 0, 63, 41
2, 53040, Note_on_c, 0, 57, 41
2, 53160, Note_on_c, 0, 57, 0
2, 53160, Note_on_c, 0, 63, 0
2, 53280, Note_on_c, 0, 56, 46
2, 53520, Note_on_c, 0, 56, 0
2, 53520, Note_on_c, 0, 64, 37
2, 53760, Note_on_c, 0, 64, 0
2, 53760, Note_on_c, 0, 59, 37
2, 54000, Note_on_c, 0, 59, 0
2, 54000, Note_on_c, 0, 68, 45
2, 54240, Note_on_c, 0, 68, 0
2, 54240, Note_on_c, 0, 64, 38
2, 54480, Note_on_c, 0, 64, 0
2, 54480, Note_on_c, 0, 71, 40
2, 54720, Note_on_c, 0, 71, 0
2, 54720, Note_on_c, 0, 68, 41
2, 54960, Note_on_c, 0, 68, 0
2, 54960, Note_on_c, 0, 76, 47
2, 55200, Note_on_c, 0, 76, 0
2, 55200, Note_on_c, 0, 75, 46
2, 55440, Note_on_c, 0, 75, 0
2, 55440, Note_on_c, 0, 74, 43
2, 55680, Note_on_c, 0, 74, 0
2, 55680, Note_on_c, 0, 73, 42
2, 55920, Note_on_c, 0, 73, 0
2, 55920, Note_on_c, 0, 71, 40
2, 56160, Note_on_c, 0, 71, 0
2, 56160, Note_on_c, 0, 69, 40
2, 56640, Note_on_c, 0, 69, 0
2, 56640, Note_on_c, 0, 69, 40
2, 56820, Note_on_c, 0, 69, 0
2, 56820, Note_on_c, 0, 71, 37
2, 56880, Note_on_c, 0, 71, 0
2, 56880, Note_on_c, 0, 69, 40
2, 57120, Note_on_c, 0, 69, 0
2, 57120, Note_on_c, 0, 68, 38
2, 57360, Note_on_c, 0, 68, 0
2, 57360, Note_on_c, 0, 69, 37
2, 57600, Note_on_c, 0, 69, 0
2, 57600, Note_on_c, 0, 73, 40
2, 58080, Note_on_c, 0, 73, 0
2, 58080, Note_on_c, 0, 71, 35
2, 58320, Note_on_c, 0, 71, 0
2, 58320, Note_on_c, 0, 76, 39
2, 58560, Note_on_c, 0, 76, 0
2, 58560, Note_on_c, 0, 78, 43
2, 58800, Note_on_c, 0, 78, 0
2, 58800, Note_on_c, 0, 80, 48
2, 59040, Note_on_c, 0, 80, 0
2, 59040, Note_on_c, 0, 81, 58
2, 59280, Note_on_c, 0, 81, 0
2, 59280, Note_on_c, 0, 76, 42
2, 59520, Note_on_c, 0, 76, 0
2, 59520, Note_on_c, 0, 73, 38
2, 59760, Note_on_c, 0, 73, 0
2, 59760, Note_on_c, 0, 69, 41
2, 60000, Note_on_c, 0, 69, 0
2, 60000, Note_on_c, 0, 68, 39
2, 60240, Note_on_c, 0, 68, 0
2, 60240, Note_on_c, 0, 69, 37
2, 60480, Note_on_c, 0, 69, 0
2, 60480, Note_on_c, 0, 73, 40
2, 60960, Note_on_c, 0, 73, 0
2, 60960, Note_on_c, 0, 71, 38
2, 61200, Note_on_c, 0, 71, 0
2, 61200, Note_on_c, 0, 88, 45
2, 61320, Note_on_c, 0, 88, 0
2, 61320, Note_on_c, 0, 86, 43
2, 61440, Note_on_c, 0, 86, 0
2, 61440, Note_on_c, 0, 85, 41
2, 61560, Note_on_c, 0, 85, 0
2, 61560, Note_on_c, 0, 83, 40
2, 61680, Note_on_c, 0, 83, 0
2, 61680, Note_on_c, 0, 81, 40
2, 61800, Note_on_c, 0, 81, 0
2, 61800, Note_on_c, 0, 80, 39
2, 61920, Note_on_c, 0, 80, 0
2, 61920, Note_on_c, 0, 81, 40
2, 62040, Note_on_c, 0, 81, 0
2, 62040, Note_on_c, 0, 83, 41
2, 62160, Note_on_c, 0, 83, 0
2, 62160, Note_on_c, 0, 85, 44
2, 62280, Note_on_c, 0, 85, 0
2, 62280, Note_on_c, 0, 83, 40
2, 62400, Note_on_c, 0, 83, 0
2, 62400, Note_on_c, 0, 81, 40
2, 62520, Note_on_c, 0, 81, 0
2, 62520, Note_on_c, 0, 80, 38
2, 62640, Note_on_c, 0, 80, 0
2, 62640, Note_on_c, 0, 78, 45
2, 62760, Note_on_c, 0, 78, 0
2, 62760, Note_on_c, 0, 76, 40
2, 62880, Note_on_c, 0, 76, 0
2, 62880, Note_on_c, 0, 74, 40
2, 63000, Note_on_c, 0, 74, 0
2, 63000, Note_on_c, 0, 73, 38
2, 63120, Note_on_c, 0, 73, 0
2, 63120, Note_on_c, 0, 71, 40
2, 63240, Note_on_c, 0, 71, 0
2, 63240, Note_on_c, 0, 70, 40
2, 63360, Note_on_c, 0, 70, 0
2, 63360, Note_on_c, 0, 71, 48
2, 63540, Note_on_c, 0, 71, 0
2, 63600, Note_on_c, 0, 71, 40
2, 63780, Note_on_c, 0, 71, 0
2, 63840, Note_on_c, 0, 71, 40
2, 64020, Note_on_c, 0, 71, 0
2, 64080, Note_on_c, 0, 71, 42
2, 64320, Note_on_c, 0, 71, 0
2, 64320, Note_on_c, 0, 74, 40
2, 64560, Note_on_c, 0, 74, 0
2, 64560, Note_on_c, 0, 78, 40
2, 64800, Note_on_c, 0, 78, 0
2, 64800, Note_on_c, 0, 69, 44
2, 65280, Note_on_c, 0, 69, 0
2, 65280, Note_on_c, 0, 76, 43
2, 65400, Note_on_c, 0, 76, 0
2, 65400, Note_on_c, 0, 73, 40
2, 65520, Note_on_c, 0, 73, 0
2, 65520, Note_on_c, 0, 71, 47
2, 66000, Note_on_c, 0, 71, 0
2, 66000, Note_on_c, 0, 74, 46
2, 66120, Note_on_c, 0, 74, 0
2, 66120, Note_on_c, 0, 71, 40
2, 66240, Note_on_c, 0, 71, 0
2, 66240, Note_on_c, 0, 69, 44
2, 66720, Note_on_c, 0, 69, 0
2, 66720, Note_on_c, 0, 73, 41
2, 66840, Note_on_c, 0, 73, 0
2, 66840, Note_on_c, 0, 69, 39
2, 66960, Note_on_c, 0, 69, 0
2, 66960, Note_on_c, 0, 64, 44
2, 67080, Note_on_c, 0, 64, 0
2, 67200, Note_on_c, 0, 64, 41
2, 67320, Note_on_c, 0, 64, 0
2, 67440, Note_on_c, 0, 64, 41
2, 67560, Note_on_c, 0, 64, 0
2, 67680, Note_on_c, 0, 74, 44
2, 67920, Note_on_c, 0, 74, 0
2, 67920, Note_on_c, 0, 71, 40
2, 68160, Note_on_c, 0, 71, 0
2, 68160, Note_on_c, 0, 68, 40
2, 68400, Note_on_c, 0, 68, 0
2, 68400, Note_on_c, 0, 64, 44
2, 68640, Note_on_c, 0, 64, 0
2, 68640, Note_on_c, 0, 66, 41
2, 68880, Note_on_c, 0, 66, 0
2, 68880, Note_on_c, 0, 68, 41
2, 69120, Note_on_c, 0, 68, 0
2, 69120, Note_on_c, 0, 69, 44
2, 69600, Note_on_c, 0, 69, 0
2, 69600, Note_on_c, 0, 73, 41
2, 69720, Note_on_c, 0, 73, 0
2, 69720, Note_on_c, 0, 69, 39
2, 69840, Note_on_c, 0, 69, 0
2, 69840, Note_on_c, 0, 64, 44
2, 69960, Note_on_c, 0, 64, 0
2, 70080, Note_on_c, 0, 64, 41
2, 70200, Note_on_c, 0, 64, 0
2, 70320, Note_on_c, 0, 64, 41
2, 70440, Note_on_c, 0, 64, 0
2, 70560, Note_on_c, 0, 74, 49
2, 70800, Note_on_c, 0, 74, 0
2, 70800, Note_on_c, 0, 71, 42
2, 71040, Note_on_c, 0, 71, 0
2, 71040, Note_on_c, 0, 68, 42
2, 71280, Note_on_c, 0, 68, 0
2, 71280, Note_on_c, 0, 64, 50
2, 71520, Note_on_c, 0, 64, 0
2, 71520, Note_on_c, 0, 66, 52
2, 71760, Note_on_c, 0, 66, 0
2, 71760, Note_on_c, 0, 68, 56
2, 72000, Note_on_c, 0, 68, 0
2, 72000, Note_on_c, 0, 69, 64
2, 72120, Note_on_c, 0, 69, 0
2, 72120, Note_on_c, 0, 73, 50
2, 72240, Note_on_c, 0, 73, 0
2, 72240, Note_on_c, 0, 76, 55
2, 72360, Note_on_c, 0, 76, 0
2, 72360, Note_on_c, 0, 73, 50
2, 72480, Note_on_c, 0, 73, 0
2, 72480, Note_on_c, 0, 76, 55
2, 72600, Note_on_c, 0, 76, 0
2, 72600, Note_on_c, 0, 73, 50
2, 72720, Note_on_c, 0, 73, 0
2, 72720, Note_on_c, 0, 71, 62
2, 72840, Note_on_c, 0, 71, 0
2, 72840, Note_on_c, 0, 74, 50
2, 72960, Note_on_c, 0, 74, 0
2, 72960, Note_on_c, 0, 78, 54
2, 73080, Note_on_c, 0, 78, 0
2, 73080, Note_on_c, 0, 74, 50
2, 73200, Note_on_c, 0, 74, 0
2, 73200, Note_on_c, 0, 78, 54
2, 73320, Note_on_c, 0, 78, 0
2, 73320, Note_on_c, 0, 74, 50
2, 73440, Note_on_c, 0, 74, 0
2, 73440, Note_on_c, 0, 73, 64
2, 73560, Note_on_c, 0, 73, 0
2, 73560, Note_on_c, 0, 76, 50
2, 73680, Note_on_c, 0, 76, 0
2, 73680, Note_on_c, 0, 73, 55
2, 73800, Note_on_c, 0, 73, 0
2, 73800, Note_on_c, 0, 76, 50
2, 73920, Note_on_c, 0, 76, 0
2, 73920, Note_on_c, 0, 69, 55
2, 74040, Note_on_c, 0, 69, 0
2, 74040, Note_on_c, 0, 73, 50
2, 74160, Note_on_c, 0, 73, 0
2, 74160, Note_on_c, 0, 71, 62
2, 74280, Note_on_c, 0, 71, 0
2, 74280, Note_on_c, 0, 74, 50
2, 74400, Note_on_c, 0, 74, 0
2, 74400, Note_on_c, 0, 71, 54
2, 74520, Note_on_c, 0, 71, 0
2, 74520, Note_on_c, 0, 74, 50
2, 74640, Note_on_c, 0, 74, 0
2, 74640, Note_on_c, 0, 68, 54
2, 74760, Note_on_c, 0, 68, 0
2, 74760, Note_on_c, 0, 71, 50
2, 74880, Note_on_c, 0, 71, 0
2, 74880, Note_on_c, 0, 69, 44
2, 75240, Note_on_c, 0, 69, 0
2, 75240, Note_on_c, 0, 71, 39
2, 75360, Note_on_c, 0, 71, 0
2, 75360, Note_on_c, 0, 73, 41
2, 75480, Note_on_c, 0, 73, 0
2, 75480, Note_on_c, 0, 69, 39
2, 75600, Note_on_c, 0, 69, 0
2, 75600, Note_on_c, 0, 64, 44
2, 75840, Note_on_c, 0, 64, 0
2, 75840, Note_on_c, 0, 73, 41
2, 76080, Note_on_c, 0, 73, 0
2, 76080, Note_on_c, 0, 76, 41
2, 76320, Note_on_c, 0, 76, 0
2, 76320, Note_on_c, 0, 74, 44
2, 76560, Note_on_c, 0, 74, 0
2, 76560, Note_on_c, 0, 71, 40
2, 76800, Note_on_c, 0, 71, 0
2, 76800, Note_on_c, 0, 68, 40
2, 77040, Note_on_c, 0, 68, 0
2, 77040, Note_on_c, 0, 64, 44
2, 77280, Note_on_c, 0, 64, 0
2, 77280, Note_on_c, 0, 66, 41
2, 77520, Note_on_c, 0, 66, 0
2, 77520, Note_on_c, 0, 68, 41
2, 77760, Note_on_c, 0, 68, 0
2, 77760, Note_on_c, 0, 69, 44
2, 78120, Note_on_c, 0, 69, 0
2, 78120, Note_on_c, 0, 71, 39
2, 78240, Note_on_c, 0, 71, 0
2, 78240, Note_on_c, 0, 73, 41
2, 78360, Note_on_c, 0, 73, 0
2, 78360, Note_on_c, 0, 69, 39
2, 78480, Note_on_c, 0, 69, 0
2, 78480, Note_on_c, 0, 64, 44
2, 78720, Note_on_c, 0, 64, 0
2, 78720, Note_on_c, 0, 73, 41
2, 78960, Note_on_c, 0, 73, 0
2, 78960, Note_on_c, 0, 76, 41
2, 79200, Note_on_c, 0, 76, 0
2, 79200, Note_on_c, 0, 74, 44
2, 79440, Note_on_c, 0, 74, 0
2, 79440, Note_on_c, 0, 71, 40
2, 79560, Note_on_c, 0, 71, 0
2, 79560, Note_on_c, 0, 74, 35
2, 79680, Note_on_c, 0, 74, 0
2, 79680, Note_on_c, 0, 68, 40
2, 79800, Note_on_c, 0, 68, 0
2, 79800, Note_on_c, 0, 71, 37
2, 79920, Note_on_c, 0, 71, 0
2, 79920, Note_on_c, 0, 64, 44
2, 80160, Note_on_c, 0, 64, 0
2, 80160, Note_on_c, 0, 66, 41
2, 80400, Note_on_c, 0, 66, 0
2, 80400, Note_on_c, 0, 68, 41
2, 80640, Note_on_c, 0, 68, 0
2, 80640, Note_on_c, 0, 69, 64
2, 80760, Note_on_c, 0, 69, 0
2, 80760, Note_on_c, 0, 73, 50
2, 80880, Note_on_c, 0, 73, 0
2, 80880, Note_on_c, 0, 76, 55
2, 81000, Note_on_c, 0, 76, 0
2, 81000, Note_on_c, 0, 81, 50
2, 81120, Note_on_c, 0, 81, 0
2, 81120, Note_on_c, 0, 76, 55
2, 81240, Note_on_c, 0, 76, 0
2, 81240, Note_on_c, 0, 73, 50
2, 81360, Note_on_c, 0, 73, 0
2, 81360, Note_on_c, 0, 71, 62
2, 81480, Note_on_c, 0, 71, 0
2, 81480, Note_on_c, 0, 74, 50
2, 81600, Note_on_c, 0, 74, 0
2, 81600, Note_on_c, 0, 78, 54
2, 81720, Note_on_c, 0, 78, 0
2, 81720, Note_on_c, 0, 74, 50
2, 81840, Note_on_c, 0, 74, 0
2, 81840, Note_on_c, 0, 78, 54
2, 81960, Note_on_c, 0, 78, 0
2, 81960, Note_on_c, 0, 74, 50
2, 82080, Note_on_c, 0, 74, 0
2, 82080, Note_on_c, 0, 73, 57
2, 82200, Note_on_c, 0, 73, 0
2, 82200, Note_on_c, 0, 76, 59
2, 82320, Note_on_c, 0, 76, 0
2, 82320, Note_on_c, 0, 74, 57
2, 82440, Note_on_c, 0, 74, 0
2, 82440, Note_on_c, 0, 73, 56
2, 82560, Note_on_c, 0, 73, 0
2, 82560, Note_on_c, 0, 71, 56
2, 82680, Note_on_c, 0, 71, 0
2, 82680, Note_on_c, 0, 69, 53
2, 82800, Note_on_c, 0, 69, 0
2, 82800, Note_on_c, 0, 68, 55
2, 82920, Note_on_c, 0, 68, 0
2, 82920, Note_on_c, 0, 66, 54
2, 83040, Note_on_c, 0, 66, 0
2, 83040, Note_on_c, 0, 64, 54
2, 83160, Note_on_c, 0, 64, 0
2, 83160, Note_on_c, 0, 62, 54
2, 83280, Note_on_c, 0, 62, 0
2, 83280, Note_on_c, 0, 61, 52
2, 83400, Note_on_c, 0, 61, 0
2, 83400, Note_on_c, 0, 59, 50
2, 83520, Note_on_c, 0, 59, 0
2, 83520, Note_on_c, 0, 57, 54
2, 83640, Note_on_c, 0, 57, 0
2, 83640, Note_on_c, 0, 59, 49
2, 83760, Note_on_c, 0, 59, 0
2, 83760, Note_on_c, 0, 57, 52
2, 83880, Note_on_c, 0, 57, 0
2, 83880, Note_on_c, 0, 56, 47
2, 84000, Note_on_c, 0, 56, 0
2, 84000, Note_on_c, 0, 57, 50
2, 84120, Note_on_c, 0, 57, 0
2, 84120, Note_on_c, 0, 59, 51
2, 84240, Note_on_c, 0, 59, 0
2, 84240, Note_on_c, 0, 61, 54
2, 84360, Note_on_c, 0, 61, 0
2, 84360, Note_on_c, 0, 62, 53
2, 84480, Note_on_c, 0, 62, 0
2, 84480, Note_on_c, 0, 64, 54
2, 84600, Note_on_c, 0, 64, 0
2, 84600, Note_on_c, 0, 66, 50
2, 84720, Note_on_c, 0, 66, 0
2, 84720, Note_on_c, 0, 67, 54
2, 84840, Note_on_c, 0, 67, 0
2, 84840, Note_on_c, 0, 68, 55
2, 84960, Note_on_c, 0, 68, 0
2, 84960, Note_on_c, 0, 69, 58
2, 85080, Note_on_c, 0, 69, 0
2, 85080, Note_on_c, 0, 71, 47
2, 85200, Note_on_c, 0, 71, 0
2, 85200, Note_on_c, 0, 69, 54
2, 85320, Note_on_c, 0, 69, 0
2, 85320, Note_on_c, 0, 68, 50
2, 85440, Note_on_c, 0, 68, 0
2, 85440, Note_on_c, 0, 69, 57
2, 85560, Note_on_c, 0, 69, 0
2, 85560, Note_on_c, 0, 71, 53
2, 85680, Note_on_c, 0, 71, 0
2, 85680, Note_on_c, 0, 73, 57
2, 85800, Note_on_c, 0, 73, 0
2, 85800, Note_on_c, 0, 74, 58
2, 85920, Note_on_c, 0, 74, 0
2, 85920, Note_on_c, 0, 76, 59
2, 86040, Note_on_c, 0, 76, 0
2, 86040, Note_on_c, 0, 78, 60
2, 86160, Note_on_c, 0, 78, 0
2, 86160, Note_on_c, 0, 79, 61
2, 86280, Note_on_c, 0, 79, 0
2, 86280, Note_on_c, 0, 80, 64
2, 86400, Note_on_c, 0, 80, 0
2, 86400, Note_on_c, 0, 81, 40
2, 86460, Note_on_c, 0, 81, 0
2, 86460, Note_on_c, 0, 83, 36
2, 86520, Note_on_c, 0, 83, 0
2, 86520, Note_on_c, 0, 81, 40
2, 86580, Note_on_c, 0, 81, 0
2, 86580, Note_on_c, 0, 83, 37
2, 86640, Note_on_c, 0, 83, 0
2, 86640, Note_on_c, 0, 81, 41
2, 86700, Note_on_c, 0, 81, 0
2, 86700, Note_on_c, 0, 83, 38
2, 86760, Note_on_c, 0, 83, 0
2, 86760, Note_on_c, 0, 81, 42
2, 86820, Note_on_c, 0, 81, 0
2, 86820, Note_on_c, 0, 83, 38
2, 86880, Note_on_c, 0, 83, 0
2, 86880, Note_on_c, 0, 81, 43
2, 86940, Note_on_c, 0, 81, 0
2, 86940, Note_on_c, 0, 83, 38
2, 87000, Note_on_c, 0, 83, 0
2, 87000, Note_on_c, 0, 81, 45
2, 87060, Note_on_c, 0, 81, 0
2, 87060, Note_on_c, 0, 83, 39
2, 87120, Note_on_c, 0, 83, 0
2, 87120, Note_on_c, 0, 81, 45
2, 87180, Note_on_c, 0, 81, 0
2, 87180, Note_on_c, 0, 83, 41
2, 87240, Note_on_c, 0, 83, 0
2, 87240, Note_on_c, 0, 81, 45
2, 87300, Note_on_c, 0, 81, 0
2, 87300, Note_on_c, 0, 83, 41
2, 87360, Note_on_c, 0, 83, 0
2, 87360, Note_on_c, 0, 81, 45
2, 87420, Note_on_c, 0, 81, 0
2, 87420, Note_on_c, 0, 83, 41
2, 87480, Note_on_c, 0, 83, 0
2, 87480, Note_on_c, 0, 81, 45
2, 87540, Note_on_c, 0, 81, 0
2, 87540, Note_on_c, 0, 83, 41
2, 87600, Note_on_c, 0, 83, 0
2, 87600, Note_on_c, 0, 81, 45
2, 87660, Note_on_c, 0, 81, 0
2, 87660, Note_on_c, 0, 83, 40
2, 87720, Note_on_c, 0, 83, 0
2, 87720, Note_on_c, 0, 81, 46
2, 87780, Note_on_c, 0, 81, 0
2, 87780, Note_on_c, 0, 83, 40
2, 87840, Note_on_c, 0, 83, 0
2, 87840, Note_on_c, 0, 81, 45
2, 87900, Note_on_c, 0, 81, 0
2, 87900, Note_on_c, 0, 83, 41
2, 87960, Note_on_c, 0, 83, 0
2, 87960, Note_on_c, 0, 81, 44
2, 88020, Note_on_c, 0, 81, 0
2, 88020, Note_on_c, 0, 83, 40
2, 88080, Note_on_c, 0, 83, 0
2, 88080, Note_on_c, 0, 81, 44
2, 88140, Note_on_c, 0, 81, 0
2, 88140, Note_on_c, 0, 83, 40
2, 88200, Note_on_c, 0, 83, 0
2, 88200, Note_on_c, 0, 81, 43
2, 88260, Note_on_c, 0, 81, 0
2, 88260, Note_on_c, 0, 83, 39
2, 88320, Note_on_c, 0, 83, 0
2, 88320, Note_on_c, 0, 81, 43
2, 88380, Note_on_c, 0, 81, 0
2, 88380, Note_on_c, 0, 83, 38
2, 88440, Note_on_c, 0, 83, 0
2, 88440, Note_on_c, 0, 81, 43
2, 88500, Note_on_c, 0, 81, 0
2, 88500, Note_on_c, 0, 83, 37
2, 88560, Note_on_c, 0, 83, 0
2, 88560, Note_on_c, 0, 81, 42
2, 88620, Note_on_c, 0, 81, 0
2, 88620, Note_on_c, 0, 83, 38
2, 88680, Note_on_c, 0, 83, 0
2, 88680, Note_on_c, 0, 81, 41
2, 88740, Note_on_c, 0, 81, 0
2, 88740, Note_on_c, 0, 83, 37
2, 88800, Note_on_c, 0, 83, 0
2, 88800, Note_on_c, 0, 81, 40
2, 88860, Note_on_c, 0, 81, 0
2, 88860, Note_on_c, 0, 83, 37
2, 88920, Note_on_c, 0, 83, 0
2, 88920, Note_on_c, 0, 81, 40
2, 88980, Note_on_c, 0, 81, 0
2, 88980, Note_on_c, 0, 83, 36
2, 89040, Note_on_c, 0, 83, 0
2, 89040, Note_on_c, 0, 81, 40
2, 89100, Note_on_c, 0, 81, 0
2, 89100, Note_on_c, 0, 83, 35
2, 89160, Note_on_c, 0, 83, 0
2, 89160, Note_on_c, 0, 81, 40
2, 89220, Note_on_c, 0, 81, 0
2, 89220, Note_on_c, 0, 83, 34
2, 89280, Note_on_c, 0, 83, 0
2, 89280, Note_on_c, 0, 81, 39
2, 89340, Note_on_c, 0, 81, 0
2, 89340, Note_on_c, 0, 83, 35
2, 89400, Note_on_c, 0, 83, 0
2, 89400, Note_on_c, 0, 81, 38
2, 89460, Note_on_c, 0, 81, 0
2, 89460, Note_on_c, 0, 83, 34
2, 89520, Note_on_c, 0, 83, 0
2, 89520, Note_on_c, 0, 81, 38
2, 89580, Note_on_c, 0, 81, 0
2, 89580, Note_on_c, 0, 83, 34
2, 89640, Note_on_c, 0, 83, 0
2, 89640, Note_on_c, 0, 81, 37
2, 89700, Note_on_c, 0, 81, 0
2, 89700, Note_on_c, 0, 83, 34
2, 89760, Note_on_c, 0, 83, 0
2, 89760, Note_on_c, 0, 81, 36
2, 89820, Note_on_c, 0, 81, 0
2, 89820, Note_on_c, 0, 83, 32
2, 89880, Note_on_c, 0, 83, 0
2, 89880, Note_on_c, 0, 81, 37
2, 89940, Note_on_c, 0, 81, 0
2, 89940, Note_on_c, 0, 83, 32
2, 90000, Note_on_c, 0, 83, 0
2, 90000, Note_on_c, 0, 81, 36
2, 90060, Note_on_c, 0, 81, 0
2, 90060, Note_on_c, 0, 83, 32
2, 90120, Note_on_c, 0, 83, 0
2, 90120, Note_on_c, 0, 81, 35
2, 90180, Note_on_c, 0, 81, 0
2, 90180, Note_on_c, 0, 83, 31
2, 90240, Note_on_c, 0, 83, 0
2, 90240, Note_on_c, 0, 81, 35
2, 90320, Note_on_c, 0, 81, 0
2, 90320, Note_on_c, 0, 83, 30
2, 90400, Note_on_c, 0, 83, 0
2, 90400, Note_on_c, 0, 81, 29
2, 90480, Note_on_c, 0, 81, 0
2, 90480, Note_on_c, 0, 80, 46
2, 90600, Note_on_c, 0, 80, 0
2, 90600, Note_on_c, 0, 81, 41
2, 90720, Note_on_c, 0, 81, 0
2, 91440, Note_on_c, 0, 69, 50
2, 91440, Note_on_c, 0, 66, 42
2, 91560, Note_on_c, 0, 66, 0
2, 91560, Note_on_c, 0, 69, 0
2, 91680, Note_on_c, 0, 69, 47
2, 91680, Note_on_c, 0, 66, 39
2, 91800, Note_on_c, 0, 66, 0
2, 91800, Note_on_c, 0, 69, 0
2, 91920, Note_on_c, 0, 66, 39
2, 91920, Note_on_c, 0, 69, 47
2, 92040, Note_on_c, 0, 69, 0
2, 92040, Note_on_c, 0, 66, 0
2, 92160, Note_on_c, 0, 71, 58
2, 92160, Note_on_c, 0, 67, 49
2, 92640, Note_on_c, 0, 67, 0
2, 92640, Note_on_c, 0, 71, 0
2, 92640, Note_on_c, 0, 69, 46
2, 92640, Note_on_c, 0, 66, 39
2, 92880, Note_on_c, 0, 66, 0
2, 92880, Note_on_c, 0, 69, 0
2, 92880, Note_on_c, 0, 74, 50
2, 93120, Note_on_c, 0, 74, 0
2, 93120, Note_on_c, 0, 69, 48
2, 93360, Note_on_c, 0, 69, 0
2, 93360, Note_on_c, 0, 66, 48
2, 93600, Note_on_c, 0, 66, 0
2, 93600, Note_on_c, 0, 69, 50
2, 93600, Note_on_c, 0, 64, 50
2, 93840, Note_on_c, 0, 69, 0
2, 93840, Note_on_c, 0, 67, 47
2, 94080, Note_on_c, 0, 67, 0
2, 94080, Note_on_c, 0, 64, 0
2, 94080, Note_on_c, 0, 62, 39
2, 94080, Note_on_c, 0, 66, 47
2, 94320, Note_on_c, 0, 66, 0
2, 94320, Note_on_c, 0, 62, 0
2, 94320, Note_on_c, 0, 74, 42
2, 94320, Note_on_c, 0, 78, 50
2, 94560, Note_on_c, 0, 78, 0
2, 94560, Note_on_c, 0, 74, 0
2, 94560, Note_on_c, 0, 79, 50
2, 94560, Note_on_c, 0, 76, 42
2, 94800, Note_on_c, 0, 76, 0
2, 94800, Note_on_c, 0, 79, 0
2, 94800, Note_on_c, 0, 81, 55
2, 94800, Note_on_c, 0, 78, 46
2, 95040, Note_on_c, 0, 78, 0
2, 95040, Note_on_c, 0, 81, 0
2, 95040, Note_on_c, 0, 81, 57
2, 95040, Note_on_c, 0, 78, 48
2, 95280, Note_on_c, 0, 78, 0
2, 95280, Note_on_c, 0, 81, 0
2, 95280, Note_on_c, 0, 76, 45
2, 95280, Note_on_c, 0, 79, 53
2, 95460, Note_on_c, 0, 79, 0
2, 95460, Note_on_c, 0, 76, 0
2, 95520, Note_on_c, 0, 76, 40
2, 95520, Note_on_c, 0, 79, 48
2, 95640, Note_on_c, 0, 79, 0
2, 95640, Note_on_c, 0, 76, 0
2, 95760, Note_on_c, 0, 78, 50
2, 95760, Note_on_c, 0, 74, 42
2, 96000, Note_on_c, 0, 74, 0
2, 96000, Note_on_c, 0, 78, 0
2, 96000, Note_on_c, 0, 76, 47
2, 96000, Note_on_c, 0, 73, 39
2, 96240, Note_on_c, 0, 73, 0
2, 96240, Note_on_c, 0, 76, 0
2, 96240, Note_on_c, 0, 78, 47
2, 96240, Note_on_c, 0, 74, 39
2, 96360, Note_on_c, 0, 74, 0
2, 96360, Note_on_c, 0, 78, 0
2, 96480, Note_on_c, 0, 73, 39
2, 96480, Note_on_c, 0, 76, 47
2, 96660, Note_on_c, 0, 76, 0
2, 96660, Note_on_c, 0, 73, 0
2, 97200, Note_on_c, 0, 66, 34
2, 97200, Note_on_c, 0, 69, 40
2, 97320, Note_on_c, 0, 69, 0
2, 97320, Note_on_c, 0, 66, 0
2, 97440, Note_on_c, 0, 66, 31
2, 97440, Note_on_c, 0, 69, 37
2, 97560, Note_on_c, 0, 69, 0
2, 97560, Note_on_c, 0, 66, 0
2, 97680, Note_on_c, 0, 69, 37
2, 97680, Note_on_c, 0, 66, 31
2, 97800, Note_on_c, 0, 66, 0
2, 97800, Note_on_c, 0, 69, 0
2, 97920, Note_on_c, 0, 71, 46
2, 97920, Note_on_c, 0, 67, 39
2, 98400, Note_on_c, 0, 67, 0
2, 98400, Note_on_c, 0, 71, 0
2, 98400, Note_on_c, 0, 66, 30
2, 98400, Note_on_c, 0, 69, 36
2, 98640, Note_on_c, 0, 69, 0
2, 98640, Note_on_c, 0, 66, 0
2, 98640, Note_on_c, 0, 74, 40
2, 98880, Note_on_c, 0, 74, 0
2, 98880, Note_on_c, 0, 69, 38
2, 99120, Note_on_c, 0, 69, 0
2, 99120, Note_on_c, 0, 66, 38
2, 99360, Note_on_c, 0, 66, 0
2, 99360, Note_on_c, 0, 69, 40
2, 99360, Note_on_c, 0, 64, 34
2, 99600, Note_on_c, 0, 69, 0
2, 99600, Note_on_c, 0, 67, 37
2, 99840, Note_on_c, 0, 67, 0
2, 99840, Note_on_c, 0, 64, 0
2, 99840, Note_on_c, 0, 66, 37
2, 99840, Note_on_c, 0, 62, 31
2, 100080, Note_on_c, 0, 62, 0
2, 100080, Note_on_c, 0, 66, 0
2, 100080, Note_on_c, 0, 81, 46
2, 100200, Note_on_c, 0, 81, 0
2, 100200, Note_on_c, 0, 79, 43
2, 100320, Note_on_c, 0, 79, 0
2, 100320, Note_on_c, 0, 78, 43
2, 100440, Note_on_c, 0, 78, 0
2, 100440, Note_on_c, 0, 76, 42
2, 100560, Note_on_c, 0, 76, 0
2, 100560, Note_on_c, 0, 74, 42
2, 100680, Note_on_c, 0, 74, 0
2, 100680, Note_on_c, 0, 73, 42
2, 100800, Note_on_c, 0, 73, 0
2, 100800, Note_on_c, 0, 71, 40
2, 100920, Note_on_c, 0, 71, 0
2, 101040, Note_on_c, 0, 71, 37
2, 101160, Note_on_c, 0, 71, 0
2, 101280, Note_on_c, 0, 71, 37
2, 101400, Note_on_c, 0, 71, 0
2, 101490, Note_on_c, 0, 74, 32
2, 101520, Note_on_c, 0, 74, 0
2, 101520, Note_on_c, 0, 73, 42
2, 101640, Note_on_c, 0, 73, 0
2, 101760, Note_on_c, 0, 71, 38
2, 101880, Note_on_c, 0, 71, 0
2, 102000, Note_on_c, 0, 73, 38
2, 102120, Note_on_c, 0, 73, 0
2, 102240, Note_on_c, 0, 74, 38
2, 102360, Note_on_c, 0, 74, 0
2, 102480, Note_on_c, 0, 78, 55
2, 102600, Note_on_c, 0, 78, 0
2, 102600, Note_on_c, 0, 74, 49
2, 102720, Note_on_c, 0, 74, 0
2, 102720, Note_on_c, 0, 78, 59
2, 102840, Note_on_c, 0, 78, 0
2, 102840, Note_on_c, 0, 74, 51
2, 102960, Note_on_c, 0, 74, 0
2, 102960, Note_on_c, 0, 69, 59
2, 103080, Note_on_c, 0, 69, 0
2, 103200, Note_on_c, 0, 66, 50
2, 103200, Note_on_c, 0, 69, 61
2, 103320, Note_on_c, 0, 69, 0
2, 103320, Note_on_c, 0, 66, 0
2, 103440, Note_on_c, 0, 69, 61
2, 103440, Note_on_c, 0, 66, 50
2, 103560, Note_on_c, 0, 66, 0
2, 103560, Note_on_c, 0, 69, 0
2, 103680, Note_on_c, 0, 71, 75
2, 103680, Note_on_c, 0, 67, 63
2, 104160, Note_on_c, 0, 67, 0
2, 104160, Note_on_c, 0, 71, 0
2, 104160, Note_on_c, 0, 69, 59
2, 104160, Note_on_c, 0, 66, 50
2, 104400, Note_on_c, 0, 66, 0
2, 104400, Note_on_c, 0, 69, 0
2, 104400, Note_on_c, 0, 74, 65
2, 104520, Note_on_c, 0, 74, 0
2, 104520, Note_on_c, 0, 69, 49
2, 104640, Note_on_c, 0, 69, 0
2, 104640, Note_on_c, 0, 74, 62
2, 104760, Note_on_c, 0, 74, 0
2, 104760, Note_on_c, 0, 69, 49
2, 104880, Note_on_c, 0, 69, 0
2, 104880, Note_on_c, 0, 66, 62
2, 105000, Note_on_c, 0, 66, 0
2, 105120, Note_on_c, 0, 64, 56
2, 105120, Note_on_c, 0, 69, 65
2, 105360, Note_on_c, 0, 69, 0
2, 105360, Note_on_c, 0, 67, 61
2, 105600, Note_on_c, 0, 67, 0
2, 105600, Note_on_c, 0, 64, 0
2, 105600, Note_on_c, 0, 66, 61
2, 105600, Note_on_c, 0, 62, 50
2, 105840, Note_on_c, 0, 62, 0
2, 105840, Note_on_c, 0, 66, 0
2, 105840, Note_on_c, 0, 78, 65
2, 105840, Note_on_c, 0, 74, 54
2, 106080, Note_on_c, 0, 74, 0
2, 106080, Note_on_c, 0, 78, 0
2, 106080, Note_on_c, 0, 79, 61
2, 106080, Note_on_c, 0, 76, 51
2, 106320, Note_on_c, 0, 76, 0
2, 106320, Note_on_c, 0, 79, 0
2, 106320, Note_on_c, 0, 78, 54
2, 106320, Note_on_c, 0, 81, 64
2, 106560, Note_on_c, 0, 81, 0
2, 106560, Note_on_c, 0, 78, 0
2, 106560, Note_on_c, 0, 81, 70
2, 106560, Note_on_c, 0, 78, 59
2, 106800, Note_on_c, 0, 78, 0
2, 106800, Note_on_c, 0, 81, 0
2, 106800, Note_on_c, 0, 79, 62
2, 106800, Note_on_c, 0, 76, 52
2, 106980, Note_on_c, 0, 76, 0
2, 106980, Note_on_c, 0, 79, 0
2, 107040, Note_on_c, 0, 79, 62
2, 107040, Note_on_c, 0, 76, 52
2, 107160, Note_on_c, 0, 76, 0
2, 107160, Note_on_c, 0, 79, 0
2, 107280, Note_on_c, 0, 78, 65
2, 107280, Note_on_c, 0, 74, 54
2, 107520, Note_on_c, 0, 74, 0
2, 107520, Note_on_c, 0, 78, 0
2, 107520, Note_on_c, 0, 73, 50
2, 107520, Note_on_c, 0, 76, 61
2, 107760, Note_on_c, 0, 76, 0
2, 107760, Note_on_c, 0, 73, 0
2, 107760, Note_on_c, 0, 78, 61
2, 107760, Note_on_c, 0, 74, 50
2, 107880, Note_on_c, 0, 74, 0
2, 107880, Note_on_c, 0, 78, 0
2, 108000, Note_on_c, 0, 73, 50
2, 108000, Note_on_c, 0, 76, 61
2, 108180, Note_on_c, 0, 76, 0
2, 108180, Note_on_c, 0, 73, 0
2, 108720, Note_on_c, 0, 66, 56
2, 108720, Note_on_c, 0, 69, 67
2, 108840, Note_on_c, 0, 69, 0
2, 108840, Note_on_c, 0, 66, 0
2, 108960, Note_on_c, 0, 69, 61
2, 108960, Note_on_c, 0, 66, 51
2, 109080, Note_on_c, 0, 66, 0
2, 109080, Note_on_c, 0, 69, 0
2, 109200, Note_on_c, 0, 69, 61
2, 109200, Note_on_c, 0, 66, 51
2, 109320, Note_on_c, 0, 66, 0
2, 109320, Note_on_c, 0, 69, 0
2, 109440, Note_on_c, 0, 67, 64
2, 109440, Note_on_c, 0, 71, 77
2, 109920, Note_on_c, 0, 71, 0
2, 109920, Note_on_c, 0, 67, 0
2, 109920, Note_on_c, 0, 66, 50
2, 109920, Note_on_c, 0, 69, 60
2, 110160, Note_on_c, 0, 69, 0
2, 110160, Note_on_c, 0, 66, 0
2, 110160, Note_on_c, 0, 74, 67
2, 110400, Note_on_c, 0, 74, 0
2, 110400, Note_on_c, 0, 69, 63
2, 110640, Note_on_c, 0, 69, 0
2, 110640, Note_on_c, 0, 66, 63
2, 110880, Note_on_c, 0, 66, 0
2, 110880, Note_on_c, 0, 64, 56
2, 110880, Note_on_c, 0, 69, 67
2, 111120, Note_on_c, 0, 69, 0
2, 111120, Note_on_c, 0, 67, 61
2, 111360, Note_on_c, 0, 67, 0
2, 111360, Note_on_c, 0, 64, 0
2, 111360, Note_on_c, 0, 62, 51
2, 111360, Note_on_c, 0, 66, 61
2, 111600, Note_on_c, 0, 66, 0
2, 111600, Note_on_c, 0, 62, 0
2, 111600, Note_on_c, 0, 81, 65
2, 111720, Note_on_c, 0, 81, 0
2, 111720, Note_on_c, 0, 79, 64
2, 111840, Note_on_c, 0, 79, 0
2, 111840, Note_on_c, 0, 78, 61
2, 111960, Note_on_c, 0, 78, 0
2, 111960, Note_on_c, 0, 76, 58
2, 112080, Note_on_c, 0, 76, 0
2, 112080, Note_on_c, 0, 74, 57
2, 112200, Note_on_c, 0, 74, 0
2, 112200, Note_on_c, 0, 73, 57
2, 112320, Note_on_c, 0, 73, 0
2, 112320, Note_on_c, 0, 71, 66
2, 112440, Note_on_c, 0, 71, 0
2, 112560, Note_on_c, 0, 71, 60
2, 112680, Note_on_c, 0, 71, 0
2, 112800, Note_on_c, 0, 71, 60
2, 112920, Note_on_c, 0, 71, 0
2, 113010, Note_on_c, 0, 74, 51
2, 113040, Note_on_c, 0, 74, 0
2, 113040, Note_on_c, 0, 73, 68
2, 113160, Note_on_c, 0, 73, 0
2, 113280, Note_on_c, 0, 71, 62
2, 113400, Note_on_c, 0, 71, 0
2, 113520, Note_on_c, 0, 73, 62
2, 113640, Note_on_c, 0, 73, 0
2, 113760, Note_on_c, 0, 74, 62
2, 113880, Note_on_c, 0, 74, 0
2, 114000, Note_on_c, 0, 81, 56
2, 114120, Note_on_c, 0, 81, 0
2, 114120, Note_on_c, 0, 79, 55
2, 114240, Note_on_c, 0, 79, 0
2, 114240, Note_on_c, 0, 78, 53
2, 114360, Note_on_c, 0, 78, 0
2, 114360, Note_on_c, 0, 76, 51
2, 114480, Note_on_c, 0, 76, 0
2, 114480, Note_on_c, 0, 74, 50
2, 114600, Note_on_c, 0, 74, 0
2, 114600, Note_on_c, 0, 73, 49
2, 114720, Note_on_c, 0, 73, 0
2, 114720, Note_on_c, 0, 71, 48
2, 114840, Note_on_c, 0, 71, 0
2, 114840, Note_on_c, 0, 69, 44
2, 114960, Note_on_c, 0, 69, 0
2, 114960, Note_on_c, 0, 67, 42
2, 115080, Note_on_c, 0, 67, 0
2, 115080, Note_on_c, 0, 66, 42
2, 115200, Note_on_c, 0, 66, 0
2, 115200, Note_on_c, 0, 64, 46
2, 115320, Note_on_c, 0, 64, 0
2, 115440, Note_on_c, 0, 64, 45
2, 115560, Note_on_c, 0, 64, 0
2, 115680, Note_on_c, 0, 64, 45
2, 115800, Note_on_c, 0, 64, 0
2, 115860, Note_on_c, 0, 67, 39
2, 115890, Note_on_c, 0, 67, 0
2, 115890, Note_on_c, 0, 69, 39
2, 115920, Note_on_c, 0, 69, 0
2, 115920, Note_on_c, 0, 71, 51
2, 116160, Note_on_c, 0, 71, 0
2, 116160, Note_on_c, 0, 69, 46
2, 116400, Note_on_c, 0, 69, 0
2, 116400, Note_on_c, 0, 67, 46
2, 116640, Note_on_c, 0, 67, 0
2, 116640, Note_on_c, 0, 66, 46
2, 116880, Note_on_c, 0, 66, 0
2, 117360, Note_on_c, 0, 74, 50
2, 117480, Note_on_c, 0, 74, 0
2, 117480, Note_on_c, 0, 73, 49
2, 117600, Note_on_c, 0, 73, 0
2, 117600, Note_on_c, 0, 71, 48
2, 117720, Note_on_c, 0, 71, 0
2, 117720, Note_on_c, 0, 69, 44
2, 117840, Note_on_c, 0, 69, 0
2, 117840, Note_on_c, 0, 67, 42
2, 117960, Note_on_c, 0, 67, 0
2, 117960, Note_on_c, 0, 66, 42
2, 118080, Note_on_c, 0, 66, 0
2, 118080, Note_on_c, 0, 64, 46
2, 118200, Note_on_c, 0, 64, 0
2, 118320, Note_on_c, 0, 64, 45
2, 118440, Note_on_c, 0, 64, 0
2, 118560, Note_on_c, 0, 64, 45
2, 118680, Note_on_c, 0, 64, 0
2, 118740, Note_on_c, 0, 67, 39
2, 118770, Note_on_c, 0, 67, 0
2, 118770, Note_on_c, 0, 69, 39
2, 118800, Note_on_c, 0, 69, 0
2, 118800, Note_on_c, 0, 71, 51
2, 119040, Note_on_c, 0, 71, 0
2, 119040, Note_on_c, 0, 69, 46
2, 119280, Note_on_c, 0, 69, 0
2, 119280, Note_on_c, 0, 67, 46
2, 119520, Note_on_c, 0, 67, 0
2, 119520, Note_on_c, 0, 66, 57
2, 119640, Note_on_c, 0, 66, 0
2, 119640, Note_on_c, 0, 74, 46
2, 119760, Note_on_c, 0, 74, 0
2, 119760, Note_on_c, 0, 66, 56
2, 119880, Note_on_c, 0, 66, 0
2, 119880, Note_on_c, 0, 74, 46
2, 120000, Note_on_c, 0, 74, 0
2, 120000, Note_on_c, 0, 66, 57
2, 120120, Note_on_c, 0, 66, 0
2, 120120, Note_on_c, 0, 74, 47
2, 120240, Note_on_c, 0, 74, 0
2, 120240, Note_on_c, 0, 66, 67
2, 120360, Note_on_c, 0, 66, 0
2, 120360, Note_on_c, 0, 75, 52
2, 120480, Note_on_c, 0, 75, 0
2, 120480, Note_on_c, 0, 66, 65
2, 120600, Note_on_c, 0, 66, 0
2, 120600, Note_on_c, 0, 75, 56
2, 120720, Note_on_c, 0, 75, 0
2, 120720, Note_on_c, 0, 66, 66
2, 120840, Note_on_c, 0, 66, 0
2, 120840, Note_on_c, 0, 75, 54
2, 120960, Note_on_c, 0, 75, 0
2, 120960, Note_on_c, 0, 64, 69
2, 121080, Note_on_c, 0, 64, 0
2, 121080, Note_on_c, 0, 76, 55
2, 121200, Note_on_c, 0, 76, 0
2, 121200, Note_on_c, 0, 64, 68
2, 121320, Note_on_c, 0, 64, 0
2, 121320, Note_on_c, 0, 76, 57
2, 121440, Note_on_c, 0, 76, 0
2, 121440, Note_on_c, 0, 64, 70
2, 121560, Note_on_c, 0, 64, 0
2, 121560, Note_on_c, 0, 76, 62
2, 121680, Note_on_c, 0, 76, 0
2, 121680, Note_on_c, 0, 73, 81
2, 121800, Note_on_c, 0, 73, 0
2, 121800, Note_on_c, 0, 81, 66
2, 121920, Note_on_c, 0, 81, 0
2, 121920, Note_on_c, 0, 73, 77
2, 122040, Note_on_c, 0, 73, 0
2, 122040, Note_on_c, 0, 81, 65
2, 122160, Note_on_c, 0, 81, 0
2, 122160, Note_on_c, 0, 73, 79
2, 122280, Note_on_c, 0, 73, 0
2, 122280, Note_on_c, 0, 81, 69
2, 122400, Note_on_c, 0, 81, 0
2, 122400, Note_on_c, 0, 74, 81
2, 122520, Note_on_c, 0, 74, 0
2, 122640, Note_on_c, 0, 81, 73
2, 122760, Note_on_c, 0, 81, 0
2, 122760, Note_on_c, 0, 78, 62
2, 122880, Note_on_c, 0, 78, 0
2, 122880, Note_on_c, 0, 79, 72
2, 123000, Note_on_c, 0, 79, 0
2, 123000, Note_on_c, 0, 76, 65
2, 123120, Note_on_c, 0, 76, 0
2, 123120, Note_on_c, 0, 74, 78
2, 123240, Note_on_c, 0, 74, 0
2, 123360, Note_on_c, 0, 81, 77
2, 123480, Note_on_c, 0, 81, 0
2, 123480, Note_on_c, 0, 78, 63
2, 123600, Note_on_c, 0, 78, 0
2, 123600, Note_on_c, 0, 79, 70
2, 123720, Note_on_c, 0, 79, 0
2, 123720, Note_on_c, 0, 76, 64
2, 123840, Note_on_c, 0, 76, 0
2, 123840, Note_on_c, 0, 74, 77
2, 123960, Note_on_c, 0, 74, 0
2, 124080, Note_on_c, 0, 78, 74
2, 124080, Note_on_c, 0, 86, 88
2, 124200, Note_on_c, 0, 86, 0
2, 124200, Note_on_c, 0, 78, 0
2, 124320, Note_on_c, 0, 78, 68
2, 124320, Note_on_c, 0, 86, 80
2, 124440, Note_on_c, 0, 86, 0
2, 124440, Note_on_c, 0, 78, 0
2, 124560, Note_on_c, 0, 78, 74
2, 124560, Note_on_c, 0, 86, 88
2, 124680, Note_on_c, 0, 86, 0
2, 124680, Note_on_c, 0, 78, 0
2, 124800, Note_on_c, 0, 86, 81
2, 124800, Note_on_c, 0, 78, 68
2, 124920, Note_on_c, 0, 78, 0
2, 124920, Note_on_c, 0, 86, 0
2, 125040, Note_on_c, 0, 78, 68
2, 125040, Note_on_c, 0, 86, 81
2, 125160, Note_on_c, 0, 86, 0
2, 125160, Note_on_c, 0, 78, 0
2, 125280, Note_on_c, 0, 78, 74
2, 125280, Note_on_c, 0, 86, 89
2, 125760, Note_on_c, 0, 86, 0
2, 125760, Note_on_c, 0, 78, 0
2, 125760, End_track
3, 0, Start_track
3, 0, Title_t, "Piano left"
3, 0, Program_c, 0, 0
3, 1440, Note_on_c, 0, 50, 40
3, 1560, Note_on_c, 0, 50, 0
3, 1680, Note_on_c, 0, 50, 37
3, 1800, Note_on_c, 0, 50, 0
3, 1920, Note_on_c, 0, 50, 37
3, 2040, Note_on_c, 0, 50, 0
3, 2880, Note_on_c, 0, 50, 40
3, 3000, Note_on_c, 0, 50, 0
3, 3120, Note_on_c, 0, 50, 36
3, 3240, Note_on_c, 0, 50, 0
3, 3360, Note_on_c, 0, 50, 36
3, 3480, Note_on_c, 0, 50, 0
3, 4320, Note_on_c, 0, 67, 40
3, 4500, Note_on_c, 0, 67, 0
3, 4560, Note_on_c, 0, 67, 40
3, 4680, Note_on_c, 0, 67, 0
3, 4800, Note_on_c, 0, 67, 42
3, 4920, Note_on_c, 0, 67, 0
3, 5040, Note_on_c, 0, 68, 44
3, 5220, Note_on_c, 0, 68, 0
3, 5280, Note_on_c, 0, 68, 45
3, 5400, Note_on_c, 0, 68, 0
3, 5521, Note_on_c, 0, 68, 37
3, 5641, Note_on_c, 0, 68, 0
3, 5760, Note_on_c, 0, 69, 40
3, 5940, Note_on_c, 0, 69, 0
3, 6000, Note_on_c, 0, 69, 38
3, 6120, Note_on_c, 0, 69, 0
3, 6240, Note_on_c, 0, 69, 38
3, 6360, Note_on_c, 0, 69, 0
3, 7200, Note_on_c, 0, 50, 32
3, 7320, Note_on_c, 0, 50, 0
3, 7440, Note_on_c, 0, 50, 29
3, 7560, Note_on_c, 0, 50, 0
3, 7680, Note_on_c, 0, 50, 29
3, 7800, Note_on_c, 0, 50, 0
3, 8640, Note_on_c, 0, 50, 32
3, 8760, Note_on_c, 0, 50, 0
3, 8880, Note_on_c, 0, 50, 28
3, 9000, Note_on_c, 0, 50, 0
3, 9120, Note_on_c, 0, 50, 28
3, 9240, Note_on_c, 0, 50, 0
3, 10080, Note_on_c, 0, 67, 32
3, 10200, Note_on_c, 0, 67, 0
3, 10320, Note_on_c, 0, 67, 29
3, 10440, Note_on_c, 0, 67, 0
3, 10560, Note_on_c, 0, 67, 29
3, 10680, Note_on_c, 0, 67, 0
3, 10800, Note_on_c, 0, 57, 27
3, 10800, Note_on_c, 0, 67, 32
3, 10800, Note_on_c, 0, 64, 27
3, 10920, Note_on_c, 0, 64, 0
3, 10920, Note_on_c, 0, 67, 0
3, 10920, Note_on_c, 0, 57, 0
3, 11040, Note_on_c, 0, 64, 24
3, 11040, Note_on_c, 0, 57, 24
3, 11040, Note_on_c, 0, 67, 29
3, 11160, Note_on_c, 0, 67, 0
3, 11160, Note_on_c, 0, 57, 0
3, 11160, Note_on_c, 0, 64, 0
3, 11280, Note_on_c, 0, 57, 24
3, 11280, Note_on_c, 0, 64, 24
3, 11280, Note_on_c, 0, 67, 29
3, 11400, Note_on_c, 0, 67, 0
3, 11400, Note_on_c, 0, 64, 0
3, 11400, Note_on_c, 0, 57, 0
3, 11520, Note_on_c, 0, 66, 32
3, 11520, Note_on_c, 0, 62, 32
3, 12000, Note_on_c, 0, 62, 0
3, 12000, Note_on_c, 0, 66, 0
3, 12960, Note_on_c, 0, 38, 52
3, 13200, Note_on_c, 0, 38, 0
3, 13200, Note_on_c, 0, 50, 48
3, 13320, Note_on_c, 0, 50, 0
3, 13440, Note_on_c, 0, 50, 48
3, 13560, Note_on_c, 0, 50, 0
3, 14400, Note_on_c, 0, 38, 52
3, 14640, Note_on_c, 0, 38, 0
3, 14640, Note_on_c, 0, 50, 46
3, 14760, Note_on_c, 0, 50, 0
3, 14880, Note_on_c, 0, 50, 46
3, 15000, Note_on_c, 0, 50, 0
3, 15840, Note_on_c, 0, 55, 52
3, 16080, Note_on_c, 0, 55, 0
3, 16080, Note_on_c, 0, 67, 52
3, 16200, Note_on_c, 0, 67, 0
3, 16320, Note_on_c, 0, 67, 54
3, 16440, Note_on_c, 0, 67, 0
3, 16560, Note_on_c, 0, 56, 57
3, 16800, Note_on_c, 0, 56, 0
3, 16800, Note_on_c, 0, 68, 58
3, 16920, Note_on_c, 0, 68, 0
3, 17041, Note_on_c, 0, 68, 48
3, 17161, Note_on_c, 0, 68, 0
3, 17280, Note_on_c, 0, 57, 52
3, 17520, Note_on_c, 0, 57, 0
3, 17520, Note_on_c, 0, 69, 49
3, 17640, Note_on_c, 0, 69, 0
3, 17760, Note_on_c, 0, 69, 49
3, 17880, Note_on_c, 0, 69, 0
3, 18720, Note_on_c, 0, 38, 61
3, 18840, Note_on_c, 0, 38, 0
3, 18840, Note_on_c, 0, 50, 44
3, 18960, Note_on_c, 0, 50, 0
3, 18960, Note_on_c, 0, 49, 49
3, 19080, Note_on_c, 0, 49, 0
3, 19080, Note_on_c, 0, 50, 44
3, 19200, Note_on_c, 0, 50, 0
3, 19200, Note_on_c, 0, 49, 48
3, 19320, Note_on_c, 0, 49, 0
3, 19320, Note_on_c, 0, 50, 44
3, 19440, Note_on_c, 0, 50, 0
3, 19440, Note_on_c, 0, 38, 44
3, 19560, Note_on_c, 0, 38, 0
3, 20160, Note_on_c, 0, 38, 56
3, 20280, Note_on_c, 0, 38, 0
3, 20280, Note_on_c, 0, 50, 42
3, 20400, Note_on_c, 0, 50, 0
3, 20400, Note_on_c, 0, 49, 42
3, 20520, Note_on_c, 0, 49, 0
3, 20520, Note_on_c, 0, 50, 42
3, 20640, Note_on_c, 0, 50, 0
3, 20640, Note_on_c, 0, 49, 48
3, 20760, Note_on_c, 0, 49, 0
3, 20760, Note_on_c, 0, 50, 42
3, 20880, Note_on_c, 0, 50, 0
3, 20880, Note_on_c, 0, 38, 42
3, 21000, Note_on_c, 0, 38, 0
3, 21600, Note_on_c, 0, 43, 55
3, 21720, Note_on_c, 0, 43, 0
3, 21720, Note_on_c, 0, 55, 27
3, 21840, Note_on_c, 0, 55, 0
3, 21840, Note_on_c, 0, 52, 43
3, 21960, Note_on_c, 0, 52, 0
3, 21960, Note_on_c, 0, 55, 30
3, 22080, Note_on_c, 0, 55, 0
3, 22080, Note_on_c, 0, 52, 43
3, 22200, Note_on_c, 0, 52, 0
3, 22200, Note_on_c, 0, 55, 27
3, 22320, Note_on_c, 0, 55, 0
3, 22320, Note_on_c, 0, 52, 53
3, 22320, Note_on_c, 0, 45, 53
3, 22440, Note_on_c, 0, 45, 0
3, 22440, Note_on_c, 0, 52, 0
3, 22440, Note_on_c, 0, 55, 30
3, 22560, Note_on_c, 0, 55, 0
3, 22560, Note_on_c, 0, 45, 43
3, 22560, Note_on_c, 0, 52, 43
3, 22680, Note_on_c, 0, 52, 0
3, 22680, Note_on_c, 0, 45, 0
3, 22680, Note_on_c, 0, 55, 34
3, 22800, Note_on_c, 0, 55, 0
3, 22800, Note_on_c, 0, 52, 43
3, 22800, Note_on_c, 0, 45, 43
3, 22920, Note_on_c, 0, 45, 0
3, 22920, Note_on_c, 0, 52, 0
3, 22920, Note_on_c, 0, 55, 31
3, 23040, Note_on_c, 0, 55, 0
3, 23040, Note_on_c, 0, 50, 47
3, 23040, Note_on_c, 0, 54, 47
3, 23280, Note_on_c, 0, 54, 0
3, 23280, Note_on_c, 0, 50, 0
3, 24480, Note_on_c, 0, 62, 33
3, 24480, Note_on_c, 0, 55, 33
3, 24600, Note_on_c, 0, 55, 0
3, 24600, Note_on_c, 0, 62, 0
3, 24720, Note_on_c, 0, 62, 29
3, 24720, Note_on_c, 0, 55, 29
3, 24840, Note_on_c, 0, 55, 0
3, 24840, Note_on_c, 0, 62, 0
3, 24960, Note_on_c, 0, 62, 29
3, 24960, Note_on_c, 0, 55, 29
3, 25080, Note_on_c, 0, 55, 0
3, 25080, Note_on_c, 0, 62, 0
3, 25200, Note_on_c, 0, 57, 27
3, 25200, Note_on_c, 0, 61, 33
3, 25320, Note_on_c, 0, 61, 0
3, 25320, Note_on_c, 0, 57, 0
3, 25440, Note_on_c, 0, 61, 29
3, 25440, Note_on_c, 0, 57, 24
3, 25560, Note_on_c, 0, 57, 0
3, 25560, Note_on_c, 0, 61, 0
3, 25680, Note_on_c, 0, 57, 24
3, 25680, Note_on_c, 0, 61, 29
3, 25800, Note_on_c, 0, 61, 0
3, 25800, Note_on_c, 0, 57, 0
3, 25920, Note_on_c, 0, 59, 26
3, 25920, Note_on_c, 0, 62, 31
3, 26040, Note_on_c, 0, 62, 0
3, 26040, Note_on_c, 0, 59, 0
3, 26160, Note_on_c, 0, 59, 23
3, 26160, Note_on_c, 0, 62, 28
3, 26280, Note_on_c, 0, 62, 0
3, 26280, Note_on_c, 0, 59, 0
3, 26400, Note_on_c, 0, 62, 28
3, 26400, Note_on_c, 0, 59, 23
3, 26520, Note_on_c, 0, 59, 0
3, 26520, Note_on_c, 0, 62, 0
3, 26640, Note_on_c, 0, 62, 33
3, 26640, Note_on_c, 0, 54, 33
3, 26760, Note_on_c, 0, 54, 0
3, 26760, Note_on_c, 0, 62, 0
3, 26880, Note_on_c, 0, 62, 29
3, 26880, Note_on_c, 0, 54, 29
3, 27000, Note_on_c, 0, 54, 0
3, 27000, Note_on_c, 0, 62, 0
3, 27120, Note_on_c, 0, 62, 29
3, 27120, Note_on_c, 0, 54, 29
3, 27240, Note_on_c, 0, 54, 0
3, 27240, Note_on_c, 0, 62, 0
3, 27360, Note_on_c, 0, 62, 33
3, 27360, Note_on_c, 0, 55, 33
3, 27480, Note_on_c, 0, 55, 0
3, 27480, Note_on_c, 0, 62, 0
3, 27600, Note_on_c, 0, 62, 29
3, 27600, Note_on_c, 0, 55, 29
3, 27720, Note_on_c, 0, 55, 0
3, 27720, Note_on_c, 0, 62, 0
3, 27840, Note_on_c, 0, 55, 29
3, 27840, Note_on_c, 0, 62, 29
3, 27960, Note_on_c, 0, 62, 0
3, 27960, Note_on_c, 0, 55, 0
3, 28080, Note_on_c, 0, 57, 27
3, 28080, Note_on_c, 0, 61, 33
3, 28200, Note_on_c, 0, 61, 0
3, 28200, Note_on_c, 0, 57, 0
3, 28320, Note_on_c, 0, 57, 24
3, 28320, Note_on_c, 0, 61, 29
3, 28440, Note_on_c, 0, 61, 0
3, 28440, Note_on_c, 0, 57, 0
3, 28560, Note_on_c, 0, 57, 24
3, 28560, Note_on_c, 0, 61, 29
3, 28680, Note_on_c, 0, 61, 0
3, 28680, Note_on_c, 0, 57, 0
3, 28800, Note_on_c, 0, 59, 38
3, 28800, Note_on_c, 0, 62, 45
3, 28920, Note_on_c, 0, 62, 0
3, 28920, Note_on_c, 0, 59, 0
3, 29040, Note_on_c, 0, 59, 28
3, 29040, Note_on_c, 0, 62, 33
3, 29160, Note_on_c, 0, 62, 0
3, 29160, Note_on_c, 0, 59, 0
3, 29280, Note_on_c, 0, 59, 28
3, 29280, Note_on_c, 0, 62, 33
3, 29400, Note_on_c, 0, 62, 0
3, 29400, Note_on_c, 0, 59, 0
3, 29520, Note_on_c, 0, 60, 48
3, 29520, Note_on_c, 0, 57, 40
3, 29640, Note_on_c, 0, 57, 0
3, 29640, Note_on_c, 0, 60, 0
3, 29760, Note_on_c, 0, 57, 32
3, 29760, Note_on_c, 0, 60, 39
3, 29880, Note_on_c, 0, 60, 0
3, 29880, Note_on_c, 0, 57, 0
3, 30000, Note_on_c, 0, 60, 37
3, 30000, Note_on_c, 0, 57, 31
3, 30120, Note_on_c, 0, 57, 0
3, 30120, Note_on_c, 0, 60, 0
3, 30240, Note_on_c, 0, 55, 44
3, 30240, Note_on_c, 0, 59, 52
3, 30360, Note_on_c, 0, 59, 0
3, 30360, Note_on_c, 0, 55, 0
3, 30480, Note_on_c, 0, 55, 32
3, 30480, Note_on_c, 0, 59, 38
3, 30600, Note_on_c, 0, 59, 0
3, 30600, Note_on_c, 0, 55, 0
3, 30720, Note_on_c, 0, 55, 32
3, 30720, Note_on_c, 0, 59, 39
3, 30840, Note_on_c, 0, 59, 0
3, 30840, Note_on_c, 0, 55, 0
3, 30960, Note_on_c, 0, 57, 55
3, 30960, Note_on_c, 0, 45, 46
3, 31080, Note_on_c, 0, 45, 0
3, 31080, Note_on_c, 0, 57, 0
3, 31200, Note_on_c, 0, 57, 43
3, 31200, Note_on_c, 0, 45, 36
3, 31320, Note_on_c, 0, 45, 0
3, 31320, Note_on_c, 0, 57, 0
3, 31440, Note_on_c, 0, 45, 36
3, 31440, Note_on_c, 0, 57, 43
3, 31560, Note_on_c, 0, 57, 0
3, 31560, Note_on_c, 0, 45, 0
3, 31680, Note_on_c, 0, 50, 46
3, 31680, Note_on_c, 0, 54, 55
3, 31800, Note_on_c, 0, 54, 0
3, 31800, Note_on_c, 0, 50, 0
3, 32160, Note_on_c, 0, 45, 46
3, 32160, Note_on_c, 0, 57, 55
3, 32280, Note_on_c, 0, 57, 0
3, 32280, Note_on_c, 0, 45, 0
3, 32400, Note_on_c, 0, 50, 51
3, 32400, Note_on_c, 0, 54, 61
3, 32520, Note_on_c, 0, 54, 0
3, 32520, Note_on_c, 0, 50, 0
3, 32880, Note_on_c, 0, 57, 56
3, 32880, Note_on_c, 0, 45, 47
3, 33000, Note_on_c, 0, 45, 0
3, 33000, Note_on_c, 0, 57, 0
3, 33120, Note_on_c, 0, 54, 61
3, 33120, Note_on_c, 0, 50, 51
3, 33240, Note_on_c, 0, 50, 0
3, 33240, Note_on_c, 0, 54, 0
3, 33360, Note_on_c, 0, 50, 58
3, 33480, Note_on_c, 0, 50, 0
3, 33600, Note_on_c, 0, 45, 55
3, 33720, Note_on_c, 0, 45, 0
3, 33840, Note_on_c, 0, 42, 61
3, 33960, Note_on_c, 0, 42, 0
3, 34080, Note_on_c, 0, 45, 55
3, 34200, Note_on_c, 0, 45, 0
3, 34320, Note_on_c, 0, 42, 55
3, 34440, Note_on_c, 0, 42, 0
3, 34560, Note_on_c, 0, 38, 61
3, 35040, Note_on_c, 0, 38, 0
3, 36000, Note_on_c, 0, 67, 28
3, 36120, Note_on_c, 0, 67, 0
3, 36240, Note_on_c, 0, 67, 25
3, 36360, Note_on_c, 0, 67, 0
3, 36480, Note_on_c, 0, 67, 25
3, 36600, Note_on_c, 0, 67, 0
3, 37440, Note_on_c, 0, 57, 28
3, 37560, Note_on_c, 0, 57, 0
3, 37680, Note_on_c, 0, 57, 25
3, 37800, Note_on_c, 0, 57, 0
3, 37920, Note_on_c, 0, 57, 25
3, 38040, Note_on_c, 0, 57, 0
3, 38880, Note_on_c, 0, 47, 28
3, 39000, Note_on_c, 0, 47, 0
3, 39120, Note_on_c, 0, 47, 25
3, 39240, Note_on_c, 0, 47, 0
3, 39360, Note_on_c, 0, 47, 25
3, 39480, Note_on_c, 0, 47, 0
3, 39600, Note_on_c, 0, 56, 45
3, 39840, Note_on_c, 0, 56, 0
3, 39840, Note_on_c, 0, 59, 35
3, 40080, Note_on_c, 0, 59, 0
3, 40080, Note_on_c, 0, 52, 35
3, 40320, Note_on_c, 0, 52, 0
3, 40320, Note_on_c, 0, 57, 45
3, 40560, Note_on_c, 0, 57, 0
3, 40560, Note_on_c, 0, 61, 35
3, 40800, Note_on_c, 0, 61, 0
3, 40800, Note_on_c, 0, 52, 35
3, 41040, Note_on_c, 0, 52, 0
3, 41040, Note_on_c, 0, 59, 45
3, 41280, Note_on_c, 0, 59, 0
3, 41280, Note_on_c, 0, 62, 38
3, 41520, Note_on_c, 0, 62, 0
3, 41520, Note_on_c, 0, 52, 38
3, 41760, Note_on_c, 0, 52, 0
3, 41760, Note_on_c, 0, 61, 45
3, 42000, Note_on_c, 0, 61, 0
3, 42000, Note_on_c, 0, 59, 33
3, 42240, Note_on_c, 0, 59, 0
3, 42240, Note_on_c, 0, 57, 33
3, 42480, Note_on_c, 0, 57, 0
3, 42480, Note_on_c, 0, 56, 45
3, 42720, Note_on_c, 0, 56, 0
3, 42720, Note_on_c, 0, 59, 37
3, 42960, Note_on_c, 0, 59, 0
3, 42960, Note_on_c, 0, 52, 37
3, 43200, Note_on_c, 0, 52, 0
3, 43200, Note_on_c, 0, 57, 45
3, 43440, Note_on_c, 0, 57, 0
3, 43440, Note_on_c, 0, 61, 35
3, 43680, Note_on_c, 0, 61, 0
3, 43680, Note_on_c, 0, 52, 35
3, 43920, Note_on_c, 0, 52, 0
3, 43920, Note_on_c, 0, 59, 45
3, 44160, Note_on_c, 0, 59, 0
3, 44160, Note_on_c, 0, 62, 38
3, 44400, Note_on_c, 0, 62, 0
3, 44400, Note_on_c, 0, 52, 38
3, 44640, Note_on_c, 0, 52, 0
3, 44640, Note_on_c, 0, 45, 67
3, 44880, Note_on_c, 0, 45, 0
3, 44880, Note_on_c, 0, 57, 47
3, 45000, Note_on_c, 0, 57, 0
3, 45120, Note_on_c, 0, 57, 46
3, 45240, Note_on_c, 0, 57, 0
3, 45360, Note_on_c, 0, 43, 64
3, 45600, Note_on_c, 0, 43, 0
3, 45600, Note_on_c, 0, 55, 48
3, 45720, Note_on_c, 0, 55, 0
3, 45840, Note_on_c, 0, 55, 48
3, 45960, Note_on_c, 0, 55, 0
3, 46080, Note_on_c, 0, 41, 69
3, 46320, Note_on_c, 0, 41, 0
3, 46320, Note_on_c, 0, 53, 47
3, 46440, Note_on_c, 0, 53, 0
3, 46560, Note_on_c, 0, 53, 46
3, 46680, Note_on_c, 0, 53, 0
3, 46800, Note_on_c, 0, 39, 64
3, 47040, Note_on_c, 0, 39, 0
3, 47040, Note_on_c, 0, 51, 48
3, 47160, Note_on_c, 0, 51, 0
3, 47280, Note_on_c, 0, 51, 48
3, 47400, Note_on_c, 0, 51, 0
3, 47520, Note_on_c, 0, 40, 61
3, 47640, Note_on_c, 0, 40, 0
3, 47640, Note_on_c, 0, 52, 37
3, 47760, Note_on_c, 0, 52, 0
3, 47760, Note_on_c, 0, 51, 45
3, 47880, Note_on_c, 0, 51, 0
3, 47880, Note_on_c, 0, 52, 40
3, 48000, Note_on_c, 0, 52, 0
3, 48000, Note_on_c, 0, 51, 43
3, 48120, Note_on_c, 0, 51, 0
3, 48120, Note_on_c, 0, 52, 39
3, 48240, Note_on_c, 0, 52, 0
3, 48240, Note_on_c, 0, 40, 61
3, 48360, Note_on_c, 0, 40, 0
3, 48360, Note_on_c, 0, 52, 37
3, 48480, Note_on_c, 0, 52, 0
3, 48480, Note_on_c, 0, 51, 45
3, 48600, Note_on_c, 0, 51, 0
3, 48600, Note_on_c, 0, 52, 40
3, 48720, Note_on_c, 0, 52, 0
3, 48720, Note_on_c, 0, 51, 43
3, 48840, Note_on_c, 0, 51, 0
3, 48840, Note_on_c, 0, 52, 39
3, 48960, Note_on_c, 0, 52, 0
3, 48960, Note_on_c, 0, 40, 61
3, 49080, Note_on_c, 0, 40, 0
3, 49080, Note_on_c, 0, 52, 37
3, 49200, Note_on_c, 0, 52, 0
3, 49200, Note_on_c, 0, 51, 45
3, 49320, Note_on_c, 0, 51, 0
3, 49320, Note_on_c, 0, 52, 40
3, 49440, Note_on_c, 0, 52, 0
3, 49440, Note_on_c, 0, 51, 43
3, 49560, Note_on_c, 0, 51, 0
3, 49560, Note_on_c, 0, 52, 39
3, 49680, Note_on_c, 0, 52, 0
3, 49680, Note_on_c, 0, 40, 61
3, 49800, Note_on_c, 0, 40, 0
3, 49800, Note_on_c, 0, 52, 37
3, 49920, Note_on_c, 0, 52, 0
3, 49920, Note_on_c, 0, 51, 45
3, 50040, Note_on_c, 0, 51, 0
3, 50040, Note_on_c, 0, 52, 40
3, 50160, Note_on_c, 0, 52, 0
3, 50160, Note_on_c, 0, 51, 43
3, 50280, Note_on_c, 0, 51, 0
3, 50280, Note_on_c, 0, 52, 39
3, 50400, Note_on_c, 0, 52, 0
3, 50400, Note_on_c, 0, 40, 61
3, 50520, Note_on_c, 0, 40, 0
3, 50520, Note_on_c, 0, 52, 37
3, 50640, Note_on_c, 0, 52, 0
3, 50640, Note_on_c, 0, 51, 45
3, 50760, Note_on_c, 0, 51, 0
3, 50760, Note_on_c, 0, 52, 40
3, 50880, Note_on_c, 0, 52, 0
3, 50880, Note_on_c, 0, 51, 43
3, 51000, Note_on_c, 0, 51, 0
3, 51000, Note_on_c, 0, 52, 39
3, 51120, Note_on_c, 0, 52, 0
3, 51120, Note_on_c, 0, 40, 61
3, 51240, Note_on_c, 0, 40, 0
3, 51240, Note_on_c, 0, 52, 37
3, 51360, Note_on_c, 0, 52, 0
3, 51360, Note_on_c, 0, 51, 45
3, 51480, Note_on_c, 0, 51, 0
3, 51480, Note_on_c, 0, 52, 40
3, 51600, Note_on_c, 0, 52, 0
3, 51600, Note_on_c, 0, 51, 43
3, 51720, Note_on_c, 0, 51, 0
3, 51720, Note_on_c, 0, 52, 39
3, 51840, Note_on_c, 0, 52, 0
3, 51840, Note_on_c, 0, 40, 54
3, 51960, Note_on_c, 0, 40, 0
3, 51960, Note_on_c, 0, 52, 33
3, 52080, Note_on_c, 0, 52, 0
3, 52080, Note_on_c, 0, 51, 39
3, 52200, Note_on_c, 0, 51, 0
3, 52200, Note_on_c, 0, 52, 34
3, 52320, Note_on_c, 0, 52, 0
3, 52320, Note_on_c, 0, 51, 36
3, 52440, Note_on_c, 0, 51, 0
3, 52440, Note_on_c, 0, 52, 33
3, 52560, Note_on_c, 0, 52, 0
3, 52560, Note_on_c, 0, 40, 50
3, 52680, Note_on_c, 0, 40, 0
3, 52680, Note_on_c, 0, 52, 30
3, 52800, Note_on_c, 0, 52, 0
3, 52800, Note_on_c, 0, 51, 35
3, 52920, Note_on_c, 0, 51, 0
3, 52920, Note_on_c, 0, 52, 31
3, 53040, Note_on_c, 0, 52, 0
3, 53040, Note_on_c, 0, 51, 33
3, 53160, Note_on_c, 0, 51, 0
3, 53160, Note_on_c, 0, 52, 30
3, 53280, Note_on_c, 0, 52, 0
3, 53280, Note_on_c, 0, 40, 47
3, 53280, Note_on_c, 0, 52, 47
3, 54720, Note_on_c, 0, 52, 0
3, 54720, Note_on_c, 0, 40, 0
3, 56160, Note_on_c, 0, 61, 20
3, 56160, Note_on_c, 0, 64, 24
3, 56340, Note_on_c, 0, 64, 0
3, 56340, Note_on_c, 0, 61, 0
3, 56400, Note_on_c, 0, 64, 19
3, 56400, Note_on_c, 0, 61, 16
3, 56580, Note_on_c, 0, 61, 0
3, 56580, Note_on_c, 0, 64, 0
3, 56640, Note_on_c, 0, 64, 19
3, 56640, Note_on_c, 0, 61, 16
3, 56820, Note_on_c, 0, 61, 0
3, 56820, Note_on_c, 0, 64, 0
3, 56880, Note_on_c, 0, 61, 20
3, 56880, Note_on_c, 0, 64, 24
3, 57060, Note_on_c, 0, 64, 0
3, 57060, Note_on_c, 0, 61, 0
3, 57120, Note_on_c, 0, 64, 20
3, 57120, Note_on_c, 0, 61, 16
3, 57300, Note_on_c, 0, 61, 0
3, 57300, Note_on_c, 0, 64, 0
3, 57360, Note_on_c, 0, 64, 20
3, 57360, Note_on_c, 0, 61, 16
3, 57540, Note_on_c, 0, 61, 0
3, 57540, Note_on_c, 0, 64, 0
3, 57600, Note_on_c, 0, 62, 20
3, 57600, Note_on_c, 0, 64, 24
3, 57780, Note_on_c, 0, 64, 0
3, 57780, Note_on_c, 0, 62, 0
3, 57840, Note_on_c, 0, 64, 20
3, 57840, Note_on_c, 0, 62, 16
3, 58020, Note_on_c, 0, 62, 0
3, 58020, Note_on_c, 0, 64, 0
3, 58080, Note_on_c, 0, 64, 20
3, 58080, Note_on_c, 0, 62, 16
3, 58260, Note_on_c, 0, 62, 0
3, 58260, Note_on_c, 0, 64, 0
3, 58320, Note_on_c, 0, 64, 21
3, 58320, Note_on_c, 0, 62, 17
3, 58500, Note_on_c, 0, 62, 0
3, 58500, Note_on_c, 0, 64, 0
3, 58560, Note_on_c, 0, 64, 20
3, 58560, Note_on_c, 0, 62, 16
3, 58740, Note_on_c, 0, 62, 0
3, 58740, Note_on_c, 0, 64, 0
3, 58800, Note_on_c, 0, 64, 22
3, 58800, Note_on_c, 0, 62, 18
3, 58980, Note_on_c, 0, 62, 0
3, 58980, Note_on_c, 0, 64, 0
3, 59040, Note_on_c, 0, 64, 23
3, 59040, Note_on_c, 0, 61, 19
3, 59220, Note_on_c, 0, 61, 0
3, 59220, Note_on_c, 0, 64, 0
3, 59280, Note_on_c, 0, 64, 20
3, 59280, Note_on_c, 0, 61, 16
3, 59460, Note_on_c, 0, 61, 0
3, 59460, Note_on_c, 0, 64, 0
3, 59520, Note_on_c, 0, 64, 20
3, 59520, Note_on_c, 0, 61, 16
3, 59700, Note_on_c, 0, 61, 0
3, 59700, Note_on_c, 0, 64, 0
3, 59760, Note_on_c, 0, 61, 20
3, 59760, Note_on_c, 0, 64, 24
3, 59940, Note_on_c, 0, 64, 0
3, 59940, Note_on_c, 0, 61, 0
3, 60000, Note_on_c, 0, 64, 20
3, 60000, Note_on_c, 0, 61, 17
3, 60180, Note_on_c, 0, 61, 0
3, 60180, Note_on_c, 0, 64, 0
3, 60240, Note_on_c, 0, 64, 20
3, 60240, Note_on_c, 0, 61, 17
3, 60420, Note_on_c, 0, 61, 0
3, 60420, Note_on_c, 0, 64, 0
3, 60480, Note_on_c, 0, 62, 20
3, 60480, Note_on_c, 0, 64, 24
3, 60660, Note_on_c, 0, 64, 0
3, 60660, Note_on_c, 0, 62, 0
3, 60720, Note_on_c, 0, 64, 20
3, 60720, Note_on_c, 0, 62, 17
3, 60900, Note_on_c, 0, 62, 0
3, 60900, Note_on_c, 0, 64, 0
3, 60960, Note_on_c, 0, 64, 24
3, 60960, Note_on_c, 0, 62, 20
3, 61140, Note_on_c, 0, 62, 0
3, 61140, Note_on_c, 0, 64, 0
3, 61200, Note_on_c, 0, 62, 16
3, 61200, Note_on_c, 0, 64, 19
3, 61380, Note_on_c, 0, 64, 0
3, 61380, Note_on_c, 0, 62, 0
3, 61440, Note_on_c, 0, 64, 16
3, 61440, Note_on_c, 0, 62, 13
3, 61620, Note_on_c, 0, 62, 0
3, 61620, Note_on_c, 0, 64, 0
3, 61680, Note_on_c, 0, 64, 19
3, 61680, Note_on_c, 0, 62, 16
3, 61860, Note_on_c, 0, 62, 0
3, 61860, Note_on_c, 0, 64, 0
3, 61920, Note_on_c, 0, 64, 18
3, 61920, Note_on_c, 0, 61, 15
3, 62100, Note_on_c, 0, 61, 0
3, 62100, Note_on_c, 0, 64, 0
3, 62160, Note_on_c, 0, 64, 16
3, 62160, Note_on_c, 0, 61, 12
3, 62340, Note_on_c, 0, 61, 0
3, 62340, Note_on_c, 0, 64, 0
3, 62400, Note_on_c, 0, 64, 16
3, 62400, Note_on_c, 0, 61, 12
3, 62580, Note_on_c, 0, 61, 0
3, 62580, Note_on_c, 0, 64, 0
3, 62640, Note_on_c, 0, 61, 16
3, 62640, Note_on_c, 0, 64, 19
3, 62820, Note_on_c, 0, 64, 0
3, 62820, Note_on_c, 0, 61, 0
3, 62880, Note_on_c, 0, 64, 16
3, 62880, Note_on_c, 0, 61, 13
3, 63060, Note_on_c, 0, 61, 0
3, 63060, Note_on_c, 0, 64, 0
3, 63120, Note_on_c, 0, 64, 16
3, 63120, Note_on_c, 0, 61, 13
3, 63300, Note_on_c, 0, 61, 0
3, 63300, Note_on_c, 0, 64, 0
3, 63360, Note_on_c, 0, 62, 19
3, 63360, Note_on_c, 0, 66, 23
3, 63840, Note_on_c, 0, 66, 0
3, 63840, Note_on_c, 0, 62, 0
3, 64800, Note_on_c, 0, 52, 19
3, 64800, Note_on_c, 0, 61, 23
3, 64980, Note_on_c, 0, 61, 0
3, 64980, Note_on_c, 0, 52, 0
3, 65040, Note_on_c, 0, 61, 19
3, 65040, Note_on_c, 0, 52, 16
3, 65220, Note_on_c, 0, 52, 0
3, 65220, Note_on_c, 0, 61, 0
3, 65280, Note_on_c, 0, 61, 18
3, 65280, Note_on_c, 0, 52, 15
3, 65460, Note_on_c, 0, 52, 0
3, 65460, Note_on_c, 0, 61, 0
3, 65520, Note_on_c, 0, 52, 19
3, 65520, Note_on_c, 0, 56, 23
3, 65700, Note_on_c, 0, 56, 0
3, 65700, Note_on_c, 0, 52, 0
3, 65760, Note_on_c, 0, 52, 16
3, 65760, Note_on_c, 0, 56, 19
3, 65940, Note_on_c, 0, 56, 0
3, 65940, Note_on_c, 0, 52, 0
3, 66000, Note_on_c, 0, 52, 16
3, 66000, Note_on_c, 0, 56, 20
3, 66180, Note_on_c, 0, 56, 0
3, 66180, Note_on_c, 0, 52, 0
3, 66240, Note_on_c, 0, 45, 29
3, 66480, Note_on_c, 0, 52, 25
3, 66720, Note_on_c, 0, 52, 0
3, 66720, Note_on_c, 0, 57, 25
3, 66960, Note_on_c, 0, 57, 0
3, 66960, Note_on_c, 0, 45, 0
3, 66960, Note_on_c, 0, 45, 29
3, 67200, Note_on_c, 0, 52, 26
3, 67440, Note_on_c, 0, 52, 0
3, 67440, Note_on_c, 0, 57, 26
3, 67680, Note_on_c, 0, 57, 0
3, 67680, Note_on_c, 0, 45, 0
3, 67680, Note_on_c, 0, 45, 29
3, 67920, Note_on_c, 0, 52, 25
3, 68160, Note_on_c, 0, 52, 0
3, 68160, Note_on_c, 0, 57, 25
3, 68400, Note_on_c, 0, 57, 0
3, 68400, Note_on_c, 0, 45, 0
3, 68400, Note_on_c, 0, 45, 29
3, 68640, Note_on_c, 0, 52, 29
3, 68880, Note_on_c, 0, 52, 0
3, 68880, Note_on_c, 0, 57, 29
3, 69120, Note_on_c, 0, 57, 0
3, 69120, Note_on_c, 0, 45, 0
3, 69120, Note_on_c, 0, 45, 29
3, 69360, Note_on_c, 0, 52, 25
3, 69600, Note_on_c, 0, 52, 0
3, 69600, Note_on_c, 0, 57, 25
3, 69840, Note_on_c, 0, 57, 0
3, 69840, Note_on_c, 0, 45, 0
3, 69840, Note_on_c, 0, 45, 29
3, 70080, Note_on_c, 0, 52, 26
3, 70320, Note_on_c, 0, 52, 0
3, 70320, Note_on_c, 0, 57, 26
3, 70560, Note_on_c, 0, 57, 0
3, 70560, Note_on_c, 0, 45, 0
3, 70560, Note_on_c, 0, 45, 35
3, 70800, Note_on_c, 0, 52, 26
3, 71040, Note_on_c, 0, 52, 0
3, 71040, Note_on_c, 0, 57, 24
3, 71280, Note_on_c, 0, 57, 0
3, 71280, Note_on_c, 0, 45, 0
3, 71280, Note_on_c, 0, 45, 40
3, 71520, Note_on_c, 0, 52, 31
3, 71760, Note_on_c, 0, 52, 0
3, 71760, Note_on_c, 0, 57, 40
3, 72000, Note_on_c, 0, 57, 0
3, 72000, Note_on_c, 0, 45, 0
3, 72000, Note_on_c, 0, 45, 56
3, 72120, Note_on_c, 0, 45, 0
3, 72720, Note_on_c, 0, 38, 56
3, 72720, Note_on_c, 0, 50, 56
3, 72840, Note_on_c, 0, 50, 0
3, 72840, Note_on_c, 0, 38, 0
3, 73440, Note_on_c, 0, 40, 56
3, 73440, Note_on_c, 0, 52, 56
3, 73560, Note_on_c, 0, 52, 0
3, 73560, Note_on_c, 0, 40, 0
3, 74160, Note_on_c, 0, 40, 56
3, 74160, Note_on_c, 0, 52, 56
3, 74280, Note_on_c, 0, 52, 0
3, 74280, Note_on_c, 0, 40, 0
3, 74880, Note_on_c, 0, 45, 29
3, 75120, Note_on_c, 0, 52, 25
3, 75360, Note_on_c, 0, 52, 0
3, 75360, Note_on_c, 0, 57, 25
3, 75600, Note_on_c, 0, 57, 0
3, 75600, Note_on_c, 0, 45, 0
3, 75600, Note_on_c, 0, 45, 29
3, 75840, Note_on_c, 0, 52, 26
3, 76080, Note_on_c, 0, 52, 0
3, 76080, Note_on_c, 0, 57, 26
3, 76320, Note_on_c, 0, 57, 0
3, 76320, Note_on_c, 0, 45, 0
3, 76320, Note_on_c, 0, 45, 29
3, 76560, Note_on_c, 0, 52, 25
3, 76800, Note_on_c, 0, 52, 0
3, 76800, Note_on_c, 0, 57, 25
3, 77040, Note_on_c, 0, 57, 0
3, 77040, Note_on_c, 0, 45, 0
3, 77040, Note_on_c, 0, 45, 29
3, 77280, Note_on_c, 0, 52, 29
3, 77520, Note_on_c, 0, 52, 0
3, 77520, Note_on_c, 0, 57, 29
3, 77760, Note_on_c, 0, 57, 0
3, 77760, Note_on_c, 0, 45, 0
3, 77760, Note_on_c, 0, 45, 29
3, 78000, Note_on_c, 0, 52, 25
3, 78240, Note_on_c, 0, 52, 0
3, 78240, Note_on_c, 0, 57, 25
3, 78480, Note_on_c, 0, 57, 0
3, 78480, Note_on_c, 0, 45, 0
3, 78480, Note_on_c, 0, 45, 29
3, 78720, Note_on_c, 0, 52, 26
3, 78960, Note_on_c, 0, 52, 0
3, 78960, Note_on_c, 0, 57, 26
3, 79200, Note_on_c, 0, 57, 0
3, 79200, Note_on_c, 0, 45, 0
3, 79200, Note_on_c, 0, 45, 29
3, 79440, Note_on_c, 0, 52, 25
3, 79680, Note_on_c, 0, 52, 0
3, 79680, Note_on_c, 0, 57, 25
3, 79920, Note_on_c, 0, 57, 0
3, 79920, Note_on_c, 0, 45, 0
3, 79920, Note_on_c, 0, 45, 29
3, 80160, Note_on_c, 0, 52, 29
3, 80400, Note_on_c, 0, 52, 0
3, 80400, Note_on_c, 0, 57, 29
3, 80640, Note_on_c, 0, 57, 0
3, 80640, Note_on_c, 0, 45, 0
3, 80640, Note_on_c, 0, 45, 56
3, 80880, Note_on_c, 0, 45, 0
3, 80880, Note_on_c, 0, 57, 50
3, 81000, Note_on_c, 0, 57, 0
3, 81120, Note_on_c, 0, 57, 50
3, 81240, Note_on_c, 0, 57, 0
3, 81360, Note_on_c, 0, 38, 56
3, 81600, Note_on_c, 0, 38, 0
3, 81600, Note_on_c, 0, 50, 49
3, 81720, Note_on_c, 0, 50, 0
3, 81840, Note_on_c, 0, 50, 48
3, 81960, Note_on_c, 0, 50, 0
3, 82080, Note_on_c, 0, 40, 56
3, 82320, Note_on_c, 0, 40, 0
3, 82320, Note_on_c, 0, 52, 50
3, 82440, Note_on_c, 0, 52, 0
3, 82560, Note_on_c, 0, 52, 50
3, 82680, Note_on_c, 0, 52, 0
3, 82800, Note_on_c, 0, 40, 56
3, 83040, Note_on_c, 0, 40, 0
3, 83040, Note_on_c, 0, 52, 49
3, 83160, Note_on_c, 0, 52, 0
3, 83280, Note_on_c, 0, 52, 48
3, 83400, Note_on_c, 0, 52, 0
3, 83520, Note_on_c, 0, 33, 43
3, 83520, Note_on_c, 0, 45, 51
3, 84960, Note_on_c, 0, 45, 0
3, 84960, Note_on_c, 0, 33, 0
3, 87120, Note_on_c, 0, 61, 38
3, 87120, Note_on_c, 0, 64, 45
3, 87210, Note_on_c, 0, 64, 0
3, 87210, Note_on_c, 0, 61, 0
3, 87360, Note_on_c, 0, 61, 34
3, 87360, Note_on_c, 0, 64, 40
3, 87450, Note_on_c, 0, 64, 0
3, 87450, Note_on_c, 0, 61, 0
3, 87600, Note_on_c, 0, 64, 40
3, 87600, Note_on_c, 0, 61, 34
3, 87690, Note_on_c, 0, 61, 0
3, 87690, Note_on_c, 0, 64, 0
3, 87840, Note_on_c, 0, 59, 39
3, 87840, Note_on_c, 0, 62, 46
3, 88320, Note_on_c, 0, 62, 0
3, 88320, Note_on_c, 0, 59, 0
3, 88320, Note_on_c, 0, 57, 30
3, 88320, Note_on_c, 0, 61, 36
3, 88560, Note_on_c, 0, 61, 0
3, 88560, Note_on_c, 0, 57, 0
3, 88560, Note_on_c, 0, 67, 42
3, 88560, Note_on_c, 0, 64, 35
3, 88650, Note_on_c, 0, 64, 0
3, 88650, Note_on_c, 0, 67, 0
3, 88800, Note_on_c, 0, 64, 29
3, 88800, Note_on_c, 0, 67, 35
3, 88890, Note_on_c, 0, 67, 0
3, 88890, Note_on_c, 0, 64, 0
3, 89040, Note_on_c, 0, 67, 31
3, 89040, Note_on_c, 0, 64, 26
3, 89130, Note_on_c, 0, 64, 0
3, 89130, Note_on_c, 0, 67, 0
3, 89280, Note_on_c, 0, 62, 34
3, 89280, Note_on_c, 0, 66, 41
3, 90000, Note_on_c, 0, 66, 0
3, 90000, Note_on_c, 0, 62, 0
3, 90000, Note_on_c, 0, 64, 31
3, 90000, Note_on_c, 0, 61, 26
3, 90720, Note_on_c, 0, 61, 0
3, 90720, Note_on_c, 0, 64, 0
3, 92160, Note_on_c, 0, 50, 40
3, 92280, Note_on_c, 0, 50, 0
3, 92400, Note_on_c, 0, 50, 37
3, 92520, Note_on_c, 0, 50, 0
3, 92640, Note_on_c, 0, 50, 37
3, 92760, Note_on_c, 0, 50, 0
3, 93600, Note_on_c, 0, 50, 40
3, 93720, Note_on_c, 0, 50, 0
3, 93840, Note_on_c, 0, 50, 36
3, 93960, Note_on_c, 0, 50, 0
3, 94080, Note_on_c, 0, 50, 36
3, 94200, Note_on_c, 0, 50, 0
3, 95040, Note_on_c, 0, 67, 40
3, 95220, Note_on_c, 0, 67, 0
3, 95280, Note_on_c, 0, 67, 40
3, 95400, Note_on_c, 0, 67, 0
3, 95520, Note_on_c, 0, 67, 42
3, 95640, Note_on_c, 0, 67, 0
3, 95760, Note_on_c, 0, 68, 44
3, 95940, Note_on_c, 0, 68, 0
3, 96000, Note_on_c, 0, 68, 45
3, 96120, Note_on_c, 0, 68, 0
3, 96241, Note_on_c, 0, 68, 37
3, 96361, Note_on_c, 0, 68, 0
3, 96480, Note_on_c, 0, 69, 40
3, 96660, Note_on_c, 0, 69, 0
3, 96720, Note_on_c, 0, 69, 38
3, 96840, Note_on_c, 0, 69, 0
3, 96960, Note_on_c, 0, 69, 38
3, 97080, Note_on_c, 0, 69, 0
3, 97920, Note_on_c, 0, 50, 32
3, 98040, Note_on_c, 0, 50, 0
3, 98160, Note_on_c, 0, 50, 29
3, 98280, Note_on_c, 0, 50, 0
3, 98400, Note_on_c, 0, 50, 29
3, 98520, Note_on_c, 0, 50, 0
3, 99360, Note_on_c, 0, 50, 32
3, 99480, Note_on_c, 0, 50, 0
3, 99600, Note_on_c, 0, 50, 28
3, 99720, Note_on_c, 0, 50, 0
3, 99840, Note_on_c, 0, 50, 28
3, 99960, Note_on_c, 0, 50, 0
3, 100800, Note_on_c, 0, 67, 32
3, 100920, Note_on_c, 0, 67, 0
3, 101040, Note_on_c, 0, 67, 29
3, 101160, Note_on_c, 0, 67, 0
3, 101280, Note_on_c, 0, 67, 29
3, 101400, Note_on_c, 0, 67, 0
3, 101520, Note_on_c, 0, 57, 27
3, 101520, Note_on_c, 0, 67, 32
3, 101520, Note_on_c, 0, 64, 27
3, 101640, Note_on_c, 0, 64, 0
3, 101640, Note_on_c, 0, 67, 0
3, 101640, Note_on_c, 0, 57, 0
3, 101760, Note_on_c, 0, 64, 24
3, 101760, Note_on_c, 0, 57, 24
3, 101760, Note_on_c, 0, 67, 29
3, 101880, Note_on_c, 0, 67, 0
3, 101880, Note_on_c, 0, 57, 0
3, 101880, Note_on_c, 0, 64, 0
3, 102000, Note_on_c, 0, 57, 24
3, 102000, Note_on_c, 0, 64, 24
3, 102000, Note_on_c, 0, 67, 29
3, 102120, Note_on_c, 0, 67, 0
3, 102120, Note_on_c, 0, 64, 0
3, 102120, Note_on_c, 0, 57, 0
3, 102240, Note_on_c, 0, 66, 32
3, 102240, Note_on_c, 0, 62, 32
3, 102720, Note_on_c, 0, 62, 0
3, 102720, Note_on_c, 0, 66, 0
3, 103680, Note_on_c, 0, 38, 52
3, 103920, Note_on_c, 0, 38, 0
3, 103920, Note_on_c, 0, 50, 48
3, 104040, Note_on_c, 0, 50, 0
3, 104160, Note_on_c, 0, 50, 48
3, 104280, Note_on_c, 0, 50, 0
3, 105120, Note_on_c, 0, 38, 52
3, 105360, Note_on_c, 0, 38, 0
3, 105360, Note_on_c, 0, 50, 46
3, 105480, Note_on_c, 0, 50, 0
3, 105600, Note_on_c, 0, 50, 46
3, 105720, Note_on_c, 0, 50, 0
3, 106560, Note_on_c, 0, 55, 52
3, 106800, Note_on_c, 0, 55, 0
3, 106800, Note_on_c, 0, 67, 52
3, 106920, Note_on_c, 0, 67, 0
3, 107040, Note_on_c, 0, 67, 54
3, 107160, Note_on_c, 0, 67, 0
3, 107280, Note_on_c, 0, 56, 57
3, 107520, Note_on_c, 0, 56, 0
3, 107520, Note_on_c, 0, 68, 58
3, 107640, Note_on_c, 0, 68, 0
3, 107761, Note_on_c, 0, 68, 48
3, 107881, Note_on_c, 0, 68, 0
3, 108000, Note_on_c, 0, 57, 52
3, 108240, Note_on_c, 0, 57, 0
3, 108240, Note_on_c, 0, 69, 49
3, 108360, Note_on_c, 0, 69, 0
3, 108480, Note_on_c, 0, 69, 49
3, 108600, Note_on_c, 0, 69, 0
3, 109440, Note_on_c, 0, 38, 61
3, 109560, Note_on_c, 0, 38, 0
3, 109560, Note_on_c, 0, 50, 44
3, 109680, Note_on_c, 0, 50, 0
3, 109680, Note_on_c, 0, 49, 49
3, 109800, Note_on_c, 0, 49, 0
3, 109800, Note_on_c, 0, 50, 44
3, 109920, Note_on_c, 0, 50, 0
3, 109920, Note_on_c, 0, 49, 48
3, 110040, Note_on_c, 0, 49, 0
3, 110040, Note_on_c, 0, 50, 44
3, 110160, Note_on_c, 0, 50, 0
3, 110160, Note_on_c, 0, 38, 44
3, 110280, Note_on_c, 0, 38, 0
3, 110880, Note_on_c, 0, 38, 56
3, 111000, Note_on_c, 0, 38, 0
3, 111000, Note_on_c, 0, 50, 42
3, 111120, Note_on_c, 0, 50, 0
3, 111120, Note_on_c, 0, 49, 42
3, 111240, Note_on_c, 0, 49, 0
3, 111240, Note_on_c, 0, 50, 42
3, 111360, Note_on_c, 0, 50, 0
3, 111360, Note_on_c, 0, 49, 48
3, 111480, Note_on_c, 0, 49, 0
3, 111480, Note_on_c, 0, 50, 42
3, 111600, Note_on_c, 0, 50, 0
3, 111600, Note_on_c, 0, 38, 42
3, 111720, Note_on_c, 0, 38, 0
3, 112320, Note_on_c, 0, 43, 55
3, 112440, Note_on_c, 0, 43, 0
3, 112440, Note_on_c, 0, 55, 27
3, 112560, Note_on_c, 0, 55, 0
3, 112560, Note_on_c, 0, 52, 43
3, 112680, Note_on_c, 0, 52, 0
3, 112680, Note_on_c, 0, 55, 30
3, 112800, Note_on_c, 0, 55, 0
3, 112800, Note_on_c, 0, 52, 43
3, 112920, Note_on_c, 0, 52, 0
3, 112920, Note_on_c, 0, 55, 27
3, 113040, Note_on_c, 0, 55, 0
3, 113040, Note_on_c, 0, 52, 53
3, 113040, Note_on_c, 0, 45, 53
3, 113160, Note_on_c, 0, 45, 0
3, 113160, Note_on_c, 0, 52, 0
3, 113160, Note_on_c, 0, 55, 30
3, 113280, Note_on_c, 0, 55, 0
3, 113280, Note_on_c, 0, 45, 43
3, 113280, Note_on_c, 0, 52, 43
3, 113400, Note_on_c, 0, 52, 0
3, 113400, Note_on_c, 0, 45, 0
3, 113400, Note_on_c, 0, 55, 34
3, 113520, Note_on_c, 0, 55, 0
3, 113520, Note_on_c, 0, 52, 43
3, 113520, Note_on_c, 0, 45, 43
3, 113640, Note_on_c, 0, 45, 0
3, 113640, Note_on_c, 0, 52, 0
3, 113640, Note_on_c, 0, 55, 31
3, 113760, Note_on_c, 0, 55, 0
3, 113760, Note_on_c, 0, 50, 47
3, 113760, Note_on_c, 0, 54, 47
3, 114000, Note_on_c, 0, 54, 0
3, 114000, Note_on_c, 0, 50, 0
3, 115200, Note_on_c, 0, 62, 33
3, 115200, Note_on_c, 0, 55, 33
3, 115320, Note_on_c, 0, 55, 0
3, 115320, Note_on_c, 0, 62, 0
3, 115440, Note_on_c, 0, 62, 29
3, 115440, Note_on_c, 0, 55, 29
3, 115560, Note_on_c, 0, 55, 0
3, 115560, Note_on_c, 0, 62, 0
3, 115680, Note_on_c, 0, 62, 29
3, 115680, Note_on_c, 0, 55, 29
3, 115800, Note_on_c, 0, 55, 0
3, 115800, Note_on_c, 0, 62, 0
3, 115920, Note_on_c, 0, 57, 27
3, 115920, Note_on_c, 0, 61, 33
3, 116040, Note_on_c, 0, 61, 0
3, 116040, Note_on_c, 0, 57, 0
3, 116160, Note_on_c, 0, 61, 29
3, 116160, Note_on_c, 0, 57, 24
3, 116280, Note_on_c, 0, 57, 0
3, 116280, Note_on_c, 0, 61, 0
3, 116400, Note_on_c, 0, 57, 24
3, 116400, Note_on_c, 0, 61, 29
3, 116520, Note_on_c, 0, 61, 0
3, 116520, Note_on_c, 0, 57, 0
3, 116640, Note_on_c, 0, 59, 26
3, 116640, Note_on_c, 0, 62, 31
3, 116760, Note_on_c, 0, 62, 0
3, 116760, Note_on_c, 0, 59, 0
3, 116880, Note_on_c, 0, 59, 23
3, 116880, Note_on_c, 0, 62, 28
3, 117000, Note_on_c, 0, 62, 0
3, 117000, Note_on_c, 0, 59, 0
3, 117120, Note_on_c, 0, 62, 28
3, 117120, Note_on_c, 0, 59, 23
3, 117240, Note_on_c, 0, 59, 0
3, 117240, Note_on_c, 0, 62, 0
3, 117360, Note_on_c, 0, 62, 33
3, 117360, Note_on_c, 0, 54, 33
3, 117480, Note_on_c, 0, 54, 0
3, 117480, Note_on_c, 0, 62, 0
3, 117600, Note_on_c, 0, 62, 29
3, 117600, Note_on_c, 0, 54, 29
3, 117720, Note_on_c, 0, 54, 0
3, 117720, Note_on_c, 0, 62, 0
3, 117840, Note_on_c, 0, 62, 29
3, 117840, Note_on_c, 0, 54, 29
3, 117960, Note_on_c, 0, 54, 0
3, 117960, Note_on_c, 0, 62, 0
3, 118080, Note_on_c, 0, 62, 33
3, 118080, Note_on_c, 0, 55, 33
3, 118200, Note_on_c, 0, 55, 0
3, 118200, Note_on_c, 0, 62, 0
3, 118320, Note_on_c, 0, 62, 29
3, 118320, Note_on_c, 0, 55, 29
3, 118440, Note_on_c, 0, 55, 0
3, 118440, Note_on_c, 0, 62, 0
3, 118560, Note_on_c, 0, 55, 29
3, 118560, Note_on_c, 0, 62, 29
3, 118680, Note_on_c, 0, 62, 0
3, 118680, Note_on_c, 0, 55, 0
3, 118800, Note_on_c, 0, 57, 27
3, 118800, Note_on_c, 0, 61, 33
3, 118920, Note_on_c, 0, 61, 0
3, 118920, Note_on_c, 0, 57, 0
3, 119040, Note_on_c, 0, 57, 24
3, 119040, Note_on_c, 0, 61, 29
3, 119160, Note_on_c, 0, 61, 0
3, 119160, Note_on_c, 0, 57, 0
3, 119280, Note_on_c, 0, 57, 24
3, 119280, Note_on_c, 0, 61, 29
3, 119400, Note_on_c, 0, 61, 0
3, 119400, Note_on_c, 0, 57, 0
3, 119520, Note_on_c, 0, 59, 38
3, 119520, Note_on_c, 0, 62, 45
3, 119640, Note_on_c, 0, 62, 0
3, 119640, Note_on_c, 0, 59, 0
3, 119760, Note_on_c, 0, 59, 28
3, 119760, Note_on_c, 0, 62, 33
3, 119880, Note_on_c, 0, 62, 0
3, 119880, Note_on_c, 0, 59, 0
3, 120000, Note_on_c, 0, 59, 28
3, 120000, Note_on_c, 0, 62, 33
3, 120120, Note_on_c, 0, 62, 0
3, 120120, Note_on_c, 0, 59, 0
3, 120240, Note_on_c, 0, 60, 48
3, 120240, Note_on_c, 0, 57, 40
3, 120360, Note_on_c, 0, 57, 0
3, 120360, Note_on_c, 0, 60, 0
3, 120480, Note_on_c, 0, 57, 32
3, 120480, Note_on_c, 0, 60, 39
3, 120600, Note_on_c, 0, 60, 0
3, 120600, Note_on_c, 0, 57, 0
3, 120720, Note_on_c, 0, 60, 37
3, 120720, Note_on_c, 0, 57, 31
3, 120840, Note_on_c, 0, 57, 0
3, 120840, Note_on_c, 0, 60, 0
3, 120960, Note_on_c, 0, 55, 44
3, 120960, Note_on_c, 0, 59, 52
3, 121080, Note_on_c, 0, 59, 0
3, 121080, Note_on_c, 0, 55, 0
3, 121200, Note_on_c, 0, 55, 32
3, 121200, Note_on_c, 0, 59, 38
3, 121320, Note_on_c, 0, 59, 0
3, 121320, Note_on_c, 0, 55, 0
3, 121440, Note_on_c, 0, 55, 32
3, 121440, Note_on_c, 0, 59, 39
3, 121560, Note_on_c, 0, 59, 0
3, 121560, Note_on_c, 0, 55, 0
3, 121680, Note_on_c, 0, 57, 55
3, 121680, Note_on_c, 0, 45, 46
3, 121800, Note_on_c, 0, 45, 0
3, 121800, Note_on_c, 0, 57, 0
3, 121920, Note_on_c, 0, 57, 43
3, 121920, Note_on_c, 0, 45, 36
3, 122040, Note_on_c, 0, 45, 0
3, 122040, Note_on_c, 0, 57, 0
3, 122160, Note_on_c, 0, 45, 36
3, 122160, Note_on_c, 0, 57, 43
3, 122280, Note_on_c, 0, 57, 0
3, 122280, Note_on_c, 0, 45, 0
3, 122400, Note_on_c, 0, 50, 46
3, 122400, Note_on_c, 0, 54, 55
3, 122520, Note_on_c, 0, 54, 0
3, 122520, Note_on_c, 0, 50, 0
3, 122880, Note_on_c, 0, 45, 46
3, 122880, Note_on_c, 0, 57, 55
3, 123000, Note_on_c, 0, 57, 0
3, 123000, Note_on_c, 0, 45, 0
3, 123120, Note_on_c, 0, 50, 51
3, 123120, Note_on_c, 0, 54, 61
3, 123240, Note_on_c, 0, 54, 0
3, 123240, Note_on_c, 0, 50, 0
3, 123600, Note_on_c, 0, 57, 56
3, 123600, Note_on_c, 0, 45, 47
3, 123720, Note_on_c, 0, 45, 0
3, 123720, Note_on_c, 0, 57, 0
3, 123840, Note_on_c, 0, 54, 61
3, 123840, Note_on_c, 0, 50, 51
3, 123960, Note_on_c, 0, 50, 0
3, 123960, Note_on_c, 0, 54, 0
3, 124080, Note_on_c, 0, 50, 58
3, 124200, Note_on_c, 0, 50, 0
3, 124320, Note_on_c, 0, 45, 55
3, 124440, Note_on_c, 0, 45, 0
3, 124560, Note_on_c, 0, 42, 61
3, 124680, Note_on_c, 0, 42, 0
3, 124800, Note_on_c, 0, 45, 55
3, 124920, Note_on_c, 0, 45, 0
3, 125040, Note_on_c, 0, 42, 55
3, 125160, Note_on_c, 0, 42, 0
3, 125280, Note_on_c, 0, 38, 61
3, 125760, Note_on_c, 0, 38, 0
3, 125760, End_track
4, 0, Start_track
4, 0, Title_t, "Pedale"
4, 0, Program_c, 0, 0
4, 39650, Control_c, 0, 64, 127
4, 40360, Control_c, 0, 64, 0
4, 40429, Control_c, 0, 64, 127
4, 41056, Control_c, 0, 64, 0
4, 41126, Control_c, 0, 64, 127
4, 41768, Control_c, 0, 64, 0
4, 41831, Control_c, 0, 64, 127
4, 42012, Control_c, 0, 64, 0
4, 42092, Control_c, 0, 64, 127
4, 42256, Control_c, 0, 64, 0
4, 42332, Control_c, 0, 64, 127
4, 42498, Control_c, 0, 64, 0
4, 42565, Control_c, 0, 64, 127
4, 43214, Control_c, 0, 64, 0
4, 44680, Control_c, 0, 64, 0
4, 44749, Control_c, 0, 64, 127
4, 45376, Control_c, 0, 64, 0
4, 45446, Control_c, 0, 64, 127
4, 46120, Control_c, 0, 64, 0
4, 46189, Control_c, 0, 64, 127
4, 46816, Control_c, 0, 64, 0
4, 46886, Control_c, 0, 64, 127
4, 47520, Control_c, 0, 64, 0
4, 86428, Control_c, 0, 64, 127
4, 87152, Control_c, 0, 64, 0
4, 87886, Control_c, 0, 64, 127
4, 88334, Control_c, 0, 64, 0
4, 89280, Control_c, 0, 64, 127
4, 90006, Control_c, 0, 64, 0
4, 90053, Control_c, 0, 64, 127
4, 90498, Control_c, 0, 64, 0
4, 125374, Control_c, 0, 64, 127
4, 125867, Control_c, 0, 64, 0
4, 125867, End_track
5, 0, Start_track
5, 0, Title_t, "Clementi: Sonatatina Opus 26, No. 6, 2. movement"
5, 0, End_track
6, 0, Start_track
6, 0, Title_t, "Copyright © 2011 by Bernd Krueger"
6, 0, End_track
7, 0, Start_track
7, 0, Title_t, "http://www.piano-midi.de/"
7, 0, End_track
8, 0, Start_track
8, 0, Title_t, "Edition:  2010-07-03"
8, 0, End_track
9, 0, Start_track
9, 0, Title_t, "Spur 8"
9, 0, End_track
10, 0, Start_track
10, 0, Title_t, "Spur 9"
10, 0, End_track
11, 0, Start_track
11, 0, Title_t, "Spur 10"
11, 0, End_track
12, 0, Start_track
12, 0, Title_t, "Spur 11"
12, 0, End_track
13, 0, Start_track
13, 0, Title_t, "Spur 12"
13, 0, End_track
14, 0, Start_track
14, 0, Title_t, "Spur 13"
14, 0, End_track
15, 0, Start_track
15, 0, Title_t, "Spur 14"
15, 0, End_track
16, 0, Start_track
16, 0, Title_t, "Spur 15"
16, 0, End_track
17, 0, Start_track
17, 0, Title_t, "Spur 16"
17, 0, End_track
0, 0, End_of_file
