0, 0, Header, 1, 17, 480
1, 0, Start_track
1, 0, Title_t, "Debussy: Childrens Corner 3"
1, 0, Title_t, "Serenade of the Doll"
1, 0, Copyright_t, "Copyright © 2011 by Bernd Krueger"
1, 0, Text_t, "Bernd Krueger"
1, 0, Text_t, "Erstellt:  11.6.2011\012"
1, 0, Text_t, "Dauer: 2:45 Minuten\012"
1, 0, Time_signature, 3, 2, 24, 8
1, 0, Key_signature, 4, "major"
1, 0, Tempo, 450214
1, 1440, Tempo, 437095
1, 1464, Tempo, 446861
1, 1608, Tempo, 445203
1, 1728, Tempo, 443557
1, 1872, Tempo, 441924
1, 1992, Tempo, 440302
1, 2136, Tempo, 438693
1, 2256, Tempo, 437095
1, 2376, Tempo, 435508
1, 2880, Tempo, 433934
1, 3360, Tempo, 423221
1, 3840, Tempo, 437095
1, 4320, Tempo, 441924
1, 5280, Tempo, 432370
1, 5760, Tempo, 437095
1, 6720, Tempo, 450214
1, 7200, Tempo, 433934
1, 8640, Tempo, 437095
1, 9840, Tempo, 458821
1, 10080, Tempo, 438693
1, 11520, Tempo, 433934
1, 12000, Tempo, 423221
1, 12480, Tempo, 437095
1, 12960, Tempo, 441924
1, 13920, Tempo, 432370
1, 14400, Tempo, 433934
1, 14880, Tempo, 423221
1, 15360, Tempo, 437095
1, 15840, Tempo, 441924
1, 16800, Tempo, 432370
1, 17220, Tempo, 437095
1, 17280, Tempo, 455339
1, 17760, Tempo, 438693
1, 18240, Tempo, 432370
1, 18720, Tempo, 438693
1, 20640, Tempo, 433934
1, 21360, Tempo, 457073
1, 21600, Tempo, 433934
1, 22800, Tempo, 453618
1, 23040, Tempo, 433934
1, 24960, Tempo, 424719
1, 25440, Tempo, 435508
1, 25920, Tempo, 433934
1, 27120, Tempo, 453618
1, 27360, Tempo, 426227
1, 27840, Tempo, 432370
1, 28800, Tempo, 426227
1, 29280, Tempo, 432370
1, 30000, Tempo, 453618
1, 30240, Tempo, 426227
1, 30720, Tempo, 430818
1, 31440, Tempo, 446861
1, 31680, Tempo, 430818
1, 32160, Tempo, 437095
1, 32640, Tempo, 443557
1, 32880, Tempo, 475172
1, 33120, Tempo, 426227
1, 33600, Tempo, 432370
1, 34320, Tempo, 446861
1, 34560, Tempo, 433934
1, 36000, Tempo, 426227
1, 36240, Tempo, 415887
1, 36480, Tempo, 432370
1, 37200, Tempo, 446861
1, 37440, Tempo, 433934
1, 37680, Tempo, 448531
1, 37920, Tempo, 435508
1, 38640, Tempo, 471439
1, 38880, Tempo, 448531
1, 39120, Tempo, 435508
1, 39360, Tempo, 450214
1, 40080, Tempo, 492732
1, 40320, Tempo, 480885
1, 40560, Tempo, 498878
1, 40800, Tempo, 484770
1, 41520, Tempo, 529708
1, 41760, Tempo, 484770
1, 42240, Tempo, 464145
1, 43200, Tempo, 455339
1, 43680, Tempo, 440302
1, 44400, Tempo, 467763
1, 44640, Tempo, 453618
1, 45120, Tempo, 445203
1, 45600, Tempo, 438693
1, 45840, Tempo, 477061
1, 46080, Tempo, 451909
1, 47520, Tempo, 446861
1, 48720, Tempo, 471439
1, 48960, Tempo, 451909
1, 50160, Tempo, 477061
1, 50400, Tempo, 450214
1, 51600, Tempo, 477061
1, 51840, Tempo, 453618
1, 53040, Tempo, 477061
1, 53280, Tempo, 453618
1, 54480, Tempo, 478965
1, 54720, Tempo, 455339
1, 55200, Tempo, 440302
1, 55440, Tempo, 473298
1, 55680, Tempo, 455339
1, 56160, Tempo, 455339
1, 56640, Tempo, 440302
1, 56880, Tempo, 475172
1, 57120, Tempo, 455339
1, 58080, Tempo, 441924
1, 58320, Tempo, 475172
1, 58560, Tempo, 455339
1, 59040, Tempo, 478965
1, 59520, Tempo, 465947
1, 60000, Tempo, 503060
1, 60459, Tempo, 450214
1, 60651, Tempo, 448531
1, 60819, Tempo, 446861
1, 60987, Tempo, 445203
1, 61179, Tempo, 443557
1, 61347, Tempo, 441924
1, 61515, Tempo, 440302
1, 62400, Tempo, 433934
1, 63120, Tempo, 457073
1, 63360, Tempo, 450214
1, 63840, Tempo, 437095
1, 64080, Tempo, 450214
1, 64320, Tempo, 450214
1, 65280, Tempo, 424719
1, 65760, Tempo, 435508
1, 66000, Tempo, 498878
1, 66240, Tempo, 450214
1, 66480, Tempo, 443557
1, 67200, Tempo, 450214
1, 68160, Tempo, 424719
1, 68640, Tempo, 435508
1, 68880, Tempo, 465947
1, 69120, Tempo, 450214
1, 69600, Tempo, 437095
1, 69840, Tempo, 450214
1, 70080, Tempo, 450214
1, 71040, Tempo, 424719
1, 71520, Tempo, 435508
1, 71760, Tempo, 498878
1, 72000, Tempo, 450214
1, 72240, Tempo, 443557
1, 72960, Tempo, 450214
1, 73920, Tempo, 424719
1, 74400, Tempo, 435508
1, 74640, Tempo, 465947
1, 74880, Key_signature, 0, "major"
1, 74880, Tempo, 450214
1, 75360, Tempo, 437095
1, 75600, Tempo, 450214
1, 75840, Tempo, 450214
1, 76800, Tempo, 424719
1, 77280, Tempo, 435508
1, 77520, Tempo, 498878
1, 77760, Tempo, 450214
1, 78240, Tempo, 437095
1, 78480, Tempo, 450214
1, 78720, Tempo, 450214
1, 79680, Tempo, 424719
1, 80160, Tempo, 435508
1, 80400, Tempo, 498878
1, 80640, Tempo, 450214
1, 81120, Tempo, 437095
1, 81360, Tempo, 450214
1, 81600, Tempo, 450214
1, 82560, Tempo, 424719
1, 83040, Tempo, 435508
1, 83280, Tempo, 498878
1, 83520, Tempo, 450214
1, 84000, Tempo, 437095
1, 84240, Tempo, 450214
1, 84480, Tempo, 450214
1, 85440, Tempo, 424719
1, 85920, Tempo, 435508
1, 86160, Tempo, 498878
1, 86400, Tempo, 455339
1, 86880, Tempo, 448531
1, 87120, Tempo, 438693
1, 87840, Tempo, 441924
1, 88320, Tempo, 445203
1, 89040, Tempo, 484770
1, 89280, Tempo, 448531
1, 89760, Tempo, 460582
1, 90480, Tempo, 488719
1, 90720, Tempo, 462356
1, 90960, Tempo, 492732
1, 91200, Tempo, 529708
1, 91680, Tempo, 518269
1, 92160, Tempo, 450214
1, 93600, Tempo, 446861
1, 94080, Tempo, 441924
1, 95520, Tempo, 437095
1, 96480, Tempo, 437095
1, 97440, Tempo, 440302
1, 97920, Tempo, 435508
1, 98160, Tempo, 455339
1, 98400, Tempo, 440302
1, 99360, Tempo, 435508
1, 99600, Tempo, 455339
1, 99840, Tempo, 440302
1, 100800, Tempo, 435508
1, 101520, Tempo, 430818
1, 101760, Tempo, 421733
1, 102000, Tempo, 453618
1, 102240, Tempo, 424719
1, 102480, Tempo, 435508
1, 102720, Tempo, 440302
1, 102960, Tempo, 469594
1, 103200, Tempo, 440302
1, 103680, Tempo, 437095
1, 104160, Tempo, 432370
1, 104400, Tempo, 450214
1, 104640, Tempo, 440302
1, 105120, Tempo, 437095
1, 105600, Tempo, 432370
1, 105840, Tempo, 450214
1, 106080, Tempo, 440302
1, 106320, Tempo, 458821
1, 106560, Tempo, 437095
1, 107040, Tempo, 430818
1, 107280, Tempo, 423221
1, 107760, Tempo, 453618
1, 108000, Tempo, 435508
1, 108240, Tempo, 435508
1, 108480, Tempo, 440302
1, 108720, Tempo, 469594
1, 108960, Tempo, 440302
1, 109440, Tempo, 435508
1, 109680, Tempo, 435508
1, 109920, Tempo, 427746
1, 110400, Tempo, 467763
1, 110880, Tempo, 424719
1, 111360, Tempo, 435508
1, 112320, Tempo, 437095
1, 112800, Tempo, 430818
1, 113040, Tempo, 421733
1, 113520, Tempo, 451909
1, 113760, Tempo, 424719
1, 114240, Tempo, 435508
1, 115140, Tempo, 430818
1, 115200, Tempo, 424719
1, 115680, Tempo, 435508
1, 116580, Tempo, 430818
1, 116640, Tempo, 424719
1, 117120, Tempo, 435508
1, 117840, Tempo, 482820
1, 118080, Tempo, 458821
1, 118560, Tempo, 494764
1, 119040, Tempo, 482820
1, 119520, Key_signature, 4, "major"
1, 119520, Tempo, 455339
1, 120480, Tempo, 443557
1, 120960, Tempo, 455339
1, 121440, Tempo, 448531
1, 121920, Tempo, 453618
1, 122400, Tempo, 446861
1, 122880, Tempo, 441924
1, 123360, Tempo, 446861
1, 123840, Tempo, 438693
1, 124320, Tempo, 455339
1, 124800, Tempo, 465947
1, 125280, Tempo, 453618
1, 126720, Tempo, 462356
1, 127200, Tempo, 492732
1, 127680, Tempo, 516040
1, 128160, Tempo, 443557
1, 129600, Tempo, 445203
1, 130080, Tempo, 450214
1, 130560, Tempo, 455339
1, 131040, Tempo, 473298
1, 131520, Tempo, 496812
1, 132000, Tempo, 520517
1, 132480, Tempo, 453618
1, 135120, Tempo, 473298
1, 135360, Tempo, 451909
1, 136560, Tempo, 473298
1, 136800, Tempo, 450214
1, 137475, Tempo, 446861
1, 137619, Tempo, 445203
1, 137739, Tempo, 443557
1, 137859, Tempo, 441924
1, 137979, Tempo, 440302
1, 138099, Tempo, 438693
1, 138219, Tempo, 437095
1, 138480, Tempo, 482820
1, 138720, Tempo, 494764
1, 139660, Tempo, 453618
1, 140880, Tempo, 473298
1, 141120, Tempo, 451909
1, 142320, Tempo, 473298
1, 142560, Tempo, 450214
1, 143235, Tempo, 446861
1, 143379, Tempo, 445203
1, 143499, Tempo, 443557
1, 143619, Tempo, 441924
1, 143739, Tempo, 440302
1, 143859, Tempo, 438693
1, 143979, Tempo, 437095
1, 144240, Tempo, 482820
1, 144480, Tempo, 494764
1, 145920, Tempo, 457073
1, 146400, Tempo, 443557
1, 146499, Tempo, 441924
1, 146619, Tempo, 440302
1, 146739, Tempo, 438693
1, 146859, Tempo, 437095
1, 147120, Tempo, 482820
1, 147360, Tempo, 494764
1, 148800, Tempo, 457073
1, 149280, Tempo, 443557
1, 149379, Tempo, 441924
1, 149499, Tempo, 440302
1, 149619, Tempo, 438693
1, 149739, Tempo, 437095
1, 150000, Tempo, 482820
1, 150240, Tempo, 513831
1, 150720, Tempo, 492732
1, 151680, Tempo, 423221
1, 152160, Tempo, 437095
1, 152640, Tempo, 429277
1, 153120, Tempo, 423221
1, 153600, Tempo, 437095
1, 154080, Tempo, 430818
1, 154560, Tempo, 423221
1, 155040, Tempo, 437095
1, 155520, Tempo, 429277
1, 156000, Tempo, 423221
1, 156480, Tempo, 437095
1, 156960, Tempo, 430818
1, 157440, Tempo, 423221
1, 157920, Tempo, 437095
1, 158400, Tempo, 429277
1, 158880, Tempo, 423221
1, 159360, Tempo, 426227
1, 159840, Tempo, 429277
1, 160320, Tempo, 417333
1, 160800, Tempo, 437095
1, 161280, Tempo, 429277
1, 161760, Tempo, 423221
1, 162240, Tempo, 426227
1, 162720, Tempo, 429277
1, 163200, Tempo, 417333
1, 163680, Tempo, 437095
1, 164160, Tempo, 423221
1, 164640, Tempo, 420256
1, 165600, Tempo, 421733
1, 166560, Tempo, 432370
1, 166800, Tempo, 490717
1, 167040, Tempo, 433934
1, 167520, Tempo, 421733
1, 168480, Tempo, 415887
1, 168960, Tempo, 421733
1, 169920, Tempo, 421733
1, 172800, Tempo, 421733
1, 173280, Tempo, 418790
1, 173760, Tempo, 414451
1, 174000, Tempo, 448531
1, 174240, Tempo, 418790
1, 174240, End_track
2, 0, Start_track
2, 0, Title_t, "Piano right"
2, 0, Program_c, 0, 0
2, 240, Note_on_c, 0, 64, 19
2, 240, Note_on_c, 0, 71, 23
2, 360, Note_on_c, 0, 71, 0
2, 360, Note_on_c, 0, 64, 0
2, 720, Note_on_c, 0, 64, 19
2, 720, Note_on_c, 0, 71, 23
2, 840, Note_on_c, 0, 71, 0
2, 840, Note_on_c, 0, 64, 0
2, 1200, Note_on_c, 0, 64, 19
2, 1200, Note_on_c, 0, 71, 23
2, 1320, Note_on_c, 0, 71, 0
2, 1320, Note_on_c, 0, 64, 0
2, 1680, Note_on_c, 0, 64, 19
2, 1680, Note_on_c, 0, 71, 23
2, 1800, Note_on_c, 0, 71, 0
2, 1800, Note_on_c, 0, 64, 0
2, 2160, Note_on_c, 0, 64, 19
2, 2160, Note_on_c, 0, 71, 23
2, 2280, Note_on_c, 0, 71, 0
2, 2280, Note_on_c, 0, 64, 0
2, 2640, Note_on_c, 0, 64, 19
2, 2640, Note_on_c, 0, 71, 23
2, 2760, Note_on_c, 0, 71, 0
2, 2760, Note_on_c, 0, 64, 0
2, 2880, Note_on_c, 0, 64, 29
2, 3000, Note_on_c, 0, 64, 0
2, 3120, Note_on_c, 0, 64, 19
2, 3120, Note_on_c, 0, 71, 23
2, 3240, Note_on_c, 0, 71, 0
2, 3240, Note_on_c, 0, 64, 0
2, 3600, Note_on_c, 0, 64, 19
2, 3600, Note_on_c, 0, 71, 23
2, 3720, Note_on_c, 0, 71, 0
2, 3720, Note_on_c, 0, 64, 0
2, 4080, Note_on_c, 0, 64, 19
2, 4080, Note_on_c, 0, 71, 23
2, 4200, Note_on_c, 0, 71, 0
2, 4200, Note_on_c, 0, 64, 0
2, 4320, Note_on_c, 0, 64, 29
2, 4440, Note_on_c, 0, 64, 0
2, 4560, Note_on_c, 0, 64, 19
2, 4560, Note_on_c, 0, 71, 23
2, 4680, Note_on_c, 0, 71, 0
2, 4680, Note_on_c, 0, 64, 0
2, 5040, Note_on_c, 0, 64, 19
2, 5040, Note_on_c, 0, 71, 23
2, 5160, Note_on_c, 0, 71, 0
2, 5160, Note_on_c, 0, 64, 0
2, 5520, Note_on_c, 0, 64, 19
2, 5520, Note_on_c, 0, 71, 23
2, 5640, Note_on_c, 0, 71, 0
2, 5640, Note_on_c, 0, 64, 0
2, 6000, Note_on_c, 0, 64, 19
2, 6000, Note_on_c, 0, 71, 23
2, 6120, Note_on_c, 0, 71, 0
2, 6120, Note_on_c, 0, 64, 0
2, 6480, Note_on_c, 0, 64, 19
2, 6480, Note_on_c, 0, 71, 23
2, 6600, Note_on_c, 0, 71, 0
2, 6600, Note_on_c, 0, 64, 0
2, 6960, Note_on_c, 0, 64, 19
2, 6960, Note_on_c, 0, 71, 23
2, 7080, Note_on_c, 0, 71, 0
2, 7080, Note_on_c, 0, 64, 0
2, 7200, Note_on_c, 0, 64, 29
2, 7320, Note_on_c, 0, 64, 0
2, 7440, Note_on_c, 0, 64, 19
2, 7440, Note_on_c, 0, 71, 23
2, 7560, Note_on_c, 0, 71, 0
2, 7560, Note_on_c, 0, 64, 0
2, 7920, Note_on_c, 0, 64, 19
2, 7920, Note_on_c, 0, 71, 23
2, 8040, Note_on_c, 0, 71, 0
2, 8040, Note_on_c, 0, 64, 0
2, 8400, Note_on_c, 0, 64, 19
2, 8400, Note_on_c, 0, 71, 23
2, 8520, Note_on_c, 0, 71, 0
2, 8520, Note_on_c, 0, 64, 0
2, 8880, Note_on_c, 0, 71, 22
2, 8880, Note_on_c, 0, 64, 18
2, 9120, Note_on_c, 0, 64, 0
2, 9120, Note_on_c, 0, 71, 0
2, 9360, Note_on_c, 0, 71, 22
2, 9360, Note_on_c, 0, 64, 18
2, 9600, Note_on_c, 0, 64, 0
2, 9600, Note_on_c, 0, 71, 0
2, 9840, Note_on_c, 0, 71, 22
2, 9840, Note_on_c, 0, 64, 18
2, 9960, Note_on_c, 0, 64, 0
2, 9960, Note_on_c, 0, 71, 0
2, 10080, Note_on_c, 0, 59, 37
2, 10200, Note_on_c, 0, 59, 0
2, 10320, Note_on_c, 0, 71, 34
2, 10320, Note_on_c, 0, 64, 28
2, 10440, Note_on_c, 0, 64, 0
2, 10440, Note_on_c, 0, 71, 0
2, 10800, Note_on_c, 0, 64, 24
2, 10800, Note_on_c, 0, 71, 29
2, 10920, Note_on_c, 0, 71, 0
2, 10920, Note_on_c, 0, 64, 0
2, 11280, Note_on_c, 0, 64, 24
2, 11280, Note_on_c, 0, 71, 29
2, 11400, Note_on_c, 0, 71, 0
2, 11400, Note_on_c, 0, 64, 0
2, 11940, Note_on_c, 0, 70, 38
2, 12000, Note_on_c, 0, 70, 0
2, 12000, Note_on_c, 0, 75, 51
2, 12120, Note_on_c, 0, 75, 0
2, 12420, Note_on_c, 0, 75, 39
2, 12480, Note_on_c, 0, 75, 0
2, 12480, Note_on_c, 0, 80, 54
2, 12600, Note_on_c, 0, 80, 0
2, 12900, Note_on_c, 0, 68, 38
2, 12960, Note_on_c, 0, 68, 0
2, 12960, Note_on_c, 0, 73, 53
2, 13860, Note_on_c, 0, 70, 38
2, 13920, Note_on_c, 0, 70, 0
2, 13920, Note_on_c, 0, 73, 0
2, 13920, Note_on_c, 0, 75, 51
2, 14040, Note_on_c, 0, 75, 0
2, 14100, Note_on_c, 0, 63, 31
2, 14160, Note_on_c, 0, 63, 0
2, 14160, Note_on_c, 0, 68, 43
2, 14280, Note_on_c, 0, 68, 0
2, 14340, Note_on_c, 0, 68, 38
2, 14400, Note_on_c, 0, 68, 0
2, 14400, Note_on_c, 0, 73, 53
2, 14520, Note_on_c, 0, 73, 0
2, 14820, Note_on_c, 0, 70, 40
2, 14880, Note_on_c, 0, 70, 0
2, 14880, Note_on_c, 0, 75, 55
2, 15000, Note_on_c, 0, 75, 0
2, 15300, Note_on_c, 0, 75, 45
2, 15360, Note_on_c, 0, 75, 0
2, 15360, Note_on_c, 0, 80, 59
2, 15480, Note_on_c, 0, 80, 0
2, 15780, Note_on_c, 0, 68, 47
2, 15840, Note_on_c, 0, 68, 0
2, 15840, Note_on_c, 0, 73, 57
2, 16740, Note_on_c, 0, 63, 42
2, 16800, Note_on_c, 0, 73, 0
2, 16800, Note_on_c, 0, 68, 49
2, 17160, Note_on_c, 0, 68, 0
2, 17160, Note_on_c, 0, 63, 0
2, 17220, Note_on_c, 0, 61, 51
2, 17280, Note_on_c, 0, 66, 62
2, 17640, Note_on_c, 0, 66, 0
2, 17640, Note_on_c, 0, 61, 0
2, 17700, Note_on_c, 0, 63, 39
2, 17760, Note_on_c, 0, 68, 46
2, 18720, Note_on_c, 0, 68, 0
2, 18720, Note_on_c, 0, 63, 0
2, 18720, Note_on_c, 0, 59, 37
2, 18840, Note_on_c, 0, 59, 0
2, 18960, Note_on_c, 0, 71, 34
2, 18960, Note_on_c, 0, 66, 28
2, 19080, Note_on_c, 0, 66, 0
2, 19080, Note_on_c, 0, 71, 0
2, 19440, Note_on_c, 0, 59, 24
2, 19440, Note_on_c, 0, 66, 24
2, 19440, Note_on_c, 0, 71, 29
2, 19560, Note_on_c, 0, 71, 0
2, 19560, Note_on_c, 0, 66, 0
2, 19560, Note_on_c, 0, 59, 0
2, 19920, Note_on_c, 0, 59, 24
2, 19920, Note_on_c, 0, 66, 24
2, 19920, Note_on_c, 0, 71, 29
2, 20040, Note_on_c, 0, 71, 0
2, 20040, Note_on_c, 0, 66, 0
2, 20040, Note_on_c, 0, 59, 0
2, 20400, Note_on_c, 0, 59, 24
2, 20400, Note_on_c, 0, 66, 24
2, 20400, Note_on_c, 0, 71, 29
2, 20520, Note_on_c, 0, 71, 0
2, 20520, Note_on_c, 0, 66, 0
2, 20520, Note_on_c, 0, 59, 0
2, 20880, Note_on_c, 0, 71, 29
2, 20880, Note_on_c, 0, 61, 24
2, 20880, Note_on_c, 0, 66, 24
2, 21000, Note_on_c, 0, 66, 0
2, 21000, Note_on_c, 0, 61, 0
2, 21000, Note_on_c, 0, 71, 0
2, 21360, Note_on_c, 0, 64, 24
2, 21360, Note_on_c, 0, 66, 24
2, 21360, Note_on_c, 0, 71, 29
2, 21480, Note_on_c, 0, 71, 0
2, 21480, Note_on_c, 0, 66, 0
2, 21480, Note_on_c, 0, 64, 0
2, 21840, Note_on_c, 0, 63, 24
2, 21840, Note_on_c, 0, 66, 24
2, 21840, Note_on_c, 0, 71, 29
2, 21960, Note_on_c, 0, 71, 0
2, 21960, Note_on_c, 0, 66, 0
2, 21960, Note_on_c, 0, 63, 0
2, 22320, Note_on_c, 0, 71, 29
2, 22320, Note_on_c, 0, 63, 24
2, 22320, Note_on_c, 0, 66, 24
2, 22440, Note_on_c, 0, 66, 0
2, 22440, Note_on_c, 0, 63, 0
2, 22440, Note_on_c, 0, 71, 0
2, 22800, Note_on_c, 0, 62, 24
2, 22800, Note_on_c, 0, 66, 24
2, 22800, Note_on_c, 0, 71, 29
2, 22920, Note_on_c, 0, 71, 0
2, 22920, Note_on_c, 0, 66, 0
2, 22920, Note_on_c, 0, 62, 0
2, 23280, Note_on_c, 0, 61, 24
2, 23280, Note_on_c, 0, 66, 24
2, 23280, Note_on_c, 0, 71, 29
2, 23400, Note_on_c, 0, 71, 0
2, 23400, Note_on_c, 0, 66, 0
2, 23400, Note_on_c, 0, 61, 0
2, 23760, Note_on_c, 0, 61, 24
2, 23760, Note_on_c, 0, 66, 24
2, 23760, Note_on_c, 0, 71, 29
2, 23880, Note_on_c, 0, 71, 0
2, 23880, Note_on_c, 0, 66, 0
2, 23880, Note_on_c, 0, 61, 0
2, 24240, Note_on_c, 0, 61, 24
2, 24240, Note_on_c, 0, 66, 24
2, 24240, Note_on_c, 0, 71, 29
2, 24360, Note_on_c, 0, 71, 0
2, 24360, Note_on_c, 0, 66, 0
2, 24360, Note_on_c, 0, 61, 0
2, 24720, Note_on_c, 0, 61, 24
2, 24720, Note_on_c, 0, 66, 24
2, 24720, Note_on_c, 0, 71, 29
2, 24840, Note_on_c, 0, 71, 0
2, 24840, Note_on_c, 0, 66, 0
2, 24840, Note_on_c, 0, 61, 0
2, 25200, Note_on_c, 0, 63, 24
2, 25200, Note_on_c, 0, 66, 24
2, 25200, Note_on_c, 0, 71, 29
2, 25320, Note_on_c, 0, 71, 0
2, 25320, Note_on_c, 0, 66, 0
2, 25320, Note_on_c, 0, 63, 0
2, 25680, Note_on_c, 0, 66, 24
2, 25680, Note_on_c, 0, 71, 29
2, 25800, Note_on_c, 0, 71, 0
2, 25800, Note_on_c, 0, 66, 0
2, 26160, Note_on_c, 0, 68, 24
2, 26160, Note_on_c, 0, 71, 29
2, 26280, Note_on_c, 0, 71, 0
2, 26280, Note_on_c, 0, 68, 0
2, 26640, Note_on_c, 0, 71, 29
2, 26640, Note_on_c, 0, 68, 24
2, 26760, Note_on_c, 0, 68, 0
2, 26760, Note_on_c, 0, 71, 0
2, 27120, Note_on_c, 0, 68, 24
2, 27120, Note_on_c, 0, 71, 29
2, 27240, Note_on_c, 0, 71, 0
2, 27240, Note_on_c, 0, 68, 0
2, 27600, Note_on_c, 0, 63, 24
2, 27600, Note_on_c, 0, 68, 24
2, 27600, Note_on_c, 0, 71, 29
2, 27720, Note_on_c, 0, 71, 0
2, 27720, Note_on_c, 0, 68, 0
2, 27720, Note_on_c, 0, 63, 0
2, 28080, Note_on_c, 0, 63, 24
2, 28080, Note_on_c, 0, 68, 24
2, 28080, Note_on_c, 0, 71, 29
2, 28200, Note_on_c, 0, 71, 0
2, 28200, Note_on_c, 0, 68, 0
2, 28200, Note_on_c, 0, 63, 0
2, 28560, Note_on_c, 0, 63, 25
2, 28560, Note_on_c, 0, 68, 25
2, 28560, Note_on_c, 0, 71, 30
2, 28680, Note_on_c, 0, 71, 0
2, 28680, Note_on_c, 0, 68, 0
2, 28680, Note_on_c, 0, 63, 0
2, 29040, Note_on_c, 0, 65, 25
2, 29040, Note_on_c, 0, 68, 25
2, 29040, Note_on_c, 0, 71, 30
2, 29160, Note_on_c, 0, 71, 0
2, 29160, Note_on_c, 0, 68, 0
2, 29160, Note_on_c, 0, 65, 0
2, 29520, Note_on_c, 0, 65, 26
2, 29520, Note_on_c, 0, 68, 26
2, 29520, Note_on_c, 0, 71, 31
2, 29640, Note_on_c, 0, 71, 0
2, 29640, Note_on_c, 0, 68, 0
2, 29640, Note_on_c, 0, 65, 0
2, 30000, Note_on_c, 0, 65, 26
2, 30000, Note_on_c, 0, 68, 26
2, 30000, Note_on_c, 0, 71, 31
2, 30120, Note_on_c, 0, 71, 0
2, 30120, Note_on_c, 0, 68, 0
2, 30120, Note_on_c, 0, 65, 0
2, 30480, Note_on_c, 0, 63, 27
2, 30480, Note_on_c, 0, 68, 27
2, 30480, Note_on_c, 0, 71, 32
2, 30600, Note_on_c, 0, 71, 0
2, 30600, Note_on_c, 0, 68, 0
2, 30600, Note_on_c, 0, 63, 0
2, 30960, Note_on_c, 0, 63, 27
2, 30960, Note_on_c, 0, 68, 27
2, 30960, Note_on_c, 0, 71, 32
2, 31080, Note_on_c, 0, 71, 0
2, 31080, Note_on_c, 0, 68, 0
2, 31080, Note_on_c, 0, 63, 0
2, 31440, Note_on_c, 0, 63, 28
2, 31440, Note_on_c, 0, 68, 28
2, 31440, Note_on_c, 0, 71, 33
2, 31560, Note_on_c, 0, 71, 0
2, 31560, Note_on_c, 0, 68, 0
2, 31560, Note_on_c, 0, 63, 0
2, 31920, Note_on_c, 0, 65, 28
2, 31920, Note_on_c, 0, 68, 28
2, 31920, Note_on_c, 0, 71, 34
2, 32040, Note_on_c, 0, 71, 0
2, 32040, Note_on_c, 0, 68, 0
2, 32040, Note_on_c, 0, 65, 0
2, 32400, Note_on_c, 0, 65, 29
2, 32400, Note_on_c, 0, 68, 29
2, 32400, Note_on_c, 0, 71, 35
2, 32520, Note_on_c, 0, 71, 0
2, 32520, Note_on_c, 0, 68, 0
2, 32520, Note_on_c, 0, 65, 0
2, 32880, Note_on_c, 0, 65, 29
2, 32880, Note_on_c, 0, 68, 29
2, 32880, Note_on_c, 0, 71, 35
2, 33000, Note_on_c, 0, 71, 0
2, 33000, Note_on_c, 0, 68, 0
2, 33000, Note_on_c, 0, 65, 0
2, 33360, Note_on_c, 0, 71, 41
2, 33360, Note_on_c, 0, 68, 34
2, 33480, Note_on_c, 0, 68, 0
2, 33480, Note_on_c, 0, 71, 0
2, 33840, Note_on_c, 0, 68, 34
2, 33840, Note_on_c, 0, 71, 40
2, 33960, Note_on_c, 0, 71, 0
2, 33960, Note_on_c, 0, 68, 0
2, 34320, Note_on_c, 0, 68, 34
2, 34320, Note_on_c, 0, 71, 40
2, 34440, Note_on_c, 0, 71, 0
2, 34440, Note_on_c, 0, 68, 0
2, 34800, Note_on_c, 0, 68, 34
2, 34800, Note_on_c, 0, 71, 40
2, 34920, Note_on_c, 0, 71, 0
2, 34920, Note_on_c, 0, 68, 0
2, 35280, Note_on_c, 0, 71, 38
2, 35280, Note_on_c, 0, 68, 32
2, 35400, Note_on_c, 0, 68, 0
2, 35400, Note_on_c, 0, 71, 0
2, 35760, Note_on_c, 0, 71, 38
2, 35760, Note_on_c, 0, 68, 32
2, 35880, Note_on_c, 0, 68, 0
2, 35880, Note_on_c, 0, 71, 0
2, 36240, Note_on_c, 0, 71, 41
2, 36240, Note_on_c, 0, 68, 34
2, 36360, Note_on_c, 0, 68, 0
2, 36360, Note_on_c, 0, 71, 0
2, 36720, Note_on_c, 0, 68, 34
2, 36720, Note_on_c, 0, 71, 40
2, 36840, Note_on_c, 0, 71, 0
2, 36840, Note_on_c, 0, 68, 0
2, 37200, Note_on_c, 0, 68, 34
2, 37200, Note_on_c, 0, 71, 40
2, 37320, Note_on_c, 0, 71, 0
2, 37320, Note_on_c, 0, 68, 0
2, 37680, Note_on_c, 0, 68, 34
2, 37680, Note_on_c, 0, 71, 40
2, 37800, Note_on_c, 0, 71, 0
2, 37800, Note_on_c, 0, 68, 0
2, 38160, Note_on_c, 0, 71, 38
2, 38160, Note_on_c, 0, 68, 32
2, 38280, Note_on_c, 0, 68, 0
2, 38280, Note_on_c, 0, 71, 0
2, 38640, Note_on_c, 0, 71, 38
2, 38640, Note_on_c, 0, 68, 32
2, 38760, Note_on_c, 0, 68, 0
2, 38760, Note_on_c, 0, 71, 0
2, 39120, Note_on_c, 0, 71, 32
2, 39240, Note_on_c, 0, 71, 0
2, 39600, Note_on_c, 0, 71, 33
2, 39720, Note_on_c, 0, 71, 0
2, 40080, Note_on_c, 0, 71, 30
2, 40200, Note_on_c, 0, 71, 0
2, 40560, Note_on_c, 0, 71, 27
2, 40680, Note_on_c, 0, 71, 0
2, 41040, Note_on_c, 0, 71, 23
2, 41160, Note_on_c, 0, 71, 0
2, 41520, Note_on_c, 0, 71, 26
2, 41640, Note_on_c, 0, 71, 0
2, 41700, Note_on_c, 0, 59, 25
2, 41760, Note_on_c, 0, 64, 40
2, 42000, Note_on_c, 0, 64, 0
2, 42000, Note_on_c, 0, 59, 0
2, 42000, Note_on_c, 0, 71, 33
2, 42240, Note_on_c, 0, 71, 0
2, 42240, Note_on_c, 0, 75, 29
2, 42240, Note_on_c, 0, 80, 42
2, 42480, Note_on_c, 0, 80, 0
2, 42480, Note_on_c, 0, 75, 0
2, 42480, Note_on_c, 0, 75, 35
2, 42480, Note_on_c, 0, 68, 24
2, 42720, Note_on_c, 0, 68, 0
2, 42720, Note_on_c, 0, 75, 0
2, 42720, Note_on_c, 0, 80, 34
2, 42720, Note_on_c, 0, 85, 48
2, 42960, Note_on_c, 0, 85, 0
2, 42960, Note_on_c, 0, 80, 0
2, 42960, Note_on_c, 0, 75, 26
2, 42960, Note_on_c, 0, 80, 37
2, 43200, Note_on_c, 0, 80, 0
2, 43200, Note_on_c, 0, 75, 0
2, 43200, Note_on_c, 0, 78, 43
2, 43200, Note_on_c, 0, 73, 43
2, 43380, Note_on_c, 0, 73, 0
2, 43440, Note_on_c, 0, 66, 22
2, 43440, Note_on_c, 0, 73, 32
2, 43800, Note_on_c, 0, 73, 0
2, 43800, Note_on_c, 0, 66, 0
2, 43920, Note_on_c, 0, 73, 32
2, 43920, Note_on_c, 0, 66, 22
2, 44100, Note_on_c, 0, 66, 0
2, 44100, Note_on_c, 0, 73, 0
2, 44160, Note_on_c, 0, 78, 0
2, 44160, Note_on_c, 0, 75, 28
2, 44160, Note_on_c, 0, 80, 40
2, 44400, Note_on_c, 0, 80, 0
2, 44400, Note_on_c, 0, 75, 0
2, 44400, Note_on_c, 0, 68, 28
2, 44400, Note_on_c, 0, 73, 40
2, 44640, Note_on_c, 0, 73, 0
2, 44640, Note_on_c, 0, 68, 0
2, 44640, Note_on_c, 0, 78, 44
2, 44640, Note_on_c, 0, 73, 31
2, 44880, Note_on_c, 0, 73, 0
2, 44880, Note_on_c, 0, 78, 0
2, 44880, Note_on_c, 0, 66, 28
2, 44880, Note_on_c, 0, 73, 40
2, 45120, Note_on_c, 0, 73, 0
2, 45120, Note_on_c, 0, 66, 0
2, 45120, Note_on_c, 0, 80, 41
2, 45120, Note_on_c, 0, 75, 28
2, 45360, Note_on_c, 0, 75, 0
2, 45360, Note_on_c, 0, 80, 0
2, 45360, Note_on_c, 0, 68, 28
2, 45360, Note_on_c, 0, 75, 40
2, 45600, Note_on_c, 0, 75, 0
2, 45600, Note_on_c, 0, 68, 0
2, 45600, Note_on_c, 0, 80, 34
2, 45600, Note_on_c, 0, 85, 49
2, 45840, Note_on_c, 0, 85, 0
2, 45840, Note_on_c, 0, 80, 0
2, 45840, Note_on_c, 0, 80, 41
2, 45840, Note_on_c, 0, 75, 28
2, 46080, Note_on_c, 0, 75, 0
2, 46080, Note_on_c, 0, 80, 0
2, 46080, Note_on_c, 0, 78, 51
2, 46080, Note_on_c, 0, 73, 51
2, 46260, Note_on_c, 0, 73, 0
2, 46320, Note_on_c, 0, 73, 34
2, 46320, Note_on_c, 0, 66, 23
2, 46680, Note_on_c, 0, 66, 0
2, 46680, Note_on_c, 0, 73, 0
2, 46800, Note_on_c, 0, 73, 32
2, 46800, Note_on_c, 0, 66, 22
2, 47160, Note_on_c, 0, 66, 0
2, 47160, Note_on_c, 0, 73, 0
2, 47280, Note_on_c, 0, 73, 34
2, 47280, Note_on_c, 0, 66, 23
2, 47460, Note_on_c, 0, 66, 0
2, 47460, Note_on_c, 0, 73, 0
2, 47520, Note_on_c, 0, 78, 0
2, 47520, Note_on_c, 0, 80, 45
2, 47520, Note_on_c, 0, 75, 32
2, 47760, Note_on_c, 0, 75, 0
2, 47760, Note_on_c, 0, 75, 23
2, 47760, Note_on_c, 0, 68, 23
2, 48000, Note_on_c, 0, 68, 0
2, 48000, Note_on_c, 0, 75, 0
2, 48000, Note_on_c, 0, 80, 0
2, 48000, Note_on_c, 0, 73, 28
2, 48000, Note_on_c, 0, 78, 40
2, 48240, Note_on_c, 0, 73, 0
2, 48240, Note_on_c, 0, 73, 21
2, 48240, Note_on_c, 0, 66, 21
2, 48480, Note_on_c, 0, 66, 0
2, 48480, Note_on_c, 0, 73, 0
2, 48480, Note_on_c, 0, 78, 0
2, 48480, Note_on_c, 0, 80, 40
2, 48480, Note_on_c, 0, 75, 28
2, 48720, Note_on_c, 0, 75, 0
2, 48720, Note_on_c, 0, 75, 22
2, 48720, Note_on_c, 0, 68, 22
2, 48960, Note_on_c, 0, 68, 0
2, 48960, Note_on_c, 0, 75, 0
2, 48960, Note_on_c, 0, 80, 0
2, 48960, Note_on_c, 0, 64, 26
2, 48960, Note_on_c, 0, 68, 26
2, 48960, Note_on_c, 0, 73, 49
2, 49680, Note_on_c, 0, 73, 0
2, 49680, Note_on_c, 0, 75, 37
2, 49920, Note_on_c, 0, 75, 0
2, 49920, Note_on_c, 0, 73, 37
2, 50400, Note_on_c, 0, 73, 0
2, 50400, Note_on_c, 0, 68, 0
2, 50400, Note_on_c, 0, 64, 0
2, 50400, Note_on_c, 0, 64, 26
2, 50400, Note_on_c, 0, 67, 26
2, 50400, Note_on_c, 0, 75, 44
2, 51120, Note_on_c, 0, 75, 0
2, 51120, Note_on_c, 0, 73, 38
2, 51360, Note_on_c, 0, 73, 0
2, 51360, Note_on_c, 0, 75, 38
2, 51840, Note_on_c, 0, 75, 0
2, 51840, Note_on_c, 0, 67, 0
2, 51840, Note_on_c, 0, 64, 0
2, 51840, Note_on_c, 0, 64, 26
2, 51840, Note_on_c, 0, 71, 28
2, 51840, Note_on_c, 0, 73, 42
2, 52560, Note_on_c, 0, 73, 0
2, 52560, Note_on_c, 0, 75, 37
2, 52800, Note_on_c, 0, 75, 0
2, 52800, Note_on_c, 0, 73, 37
2, 53280, Note_on_c, 0, 73, 0
2, 53280, Note_on_c, 0, 71, 0
2, 53280, Note_on_c, 0, 64, 0
2, 53280, Note_on_c, 0, 64, 26
2, 53280, Note_on_c, 0, 70, 26
2, 53280, Note_on_c, 0, 75, 41
2, 54000, Note_on_c, 0, 75, 0
2, 54000, Note_on_c, 0, 73, 40
2, 54240, Note_on_c, 0, 73, 0
2, 54240, Note_on_c, 0, 75, 40
2, 54720, Note_on_c, 0, 75, 0
2, 54720, Note_on_c, 0, 70, 0
2, 54720, Note_on_c, 0, 64, 0
2, 54960, Note_on_c, 0, 68, 23
2, 54960, Note_on_c, 0, 64, 18
2, 54960, Note_on_c, 0, 59, 18
2, 55200, Note_on_c, 0, 59, 0
2, 55200, Note_on_c, 0, 64, 0
2, 55200, Note_on_c, 0, 68, 0
2, 55440, Note_on_c, 0, 68, 23
2, 55440, Note_on_c, 0, 64, 18
2, 55440, Note_on_c, 0, 59, 18
2, 55680, Note_on_c, 0, 59, 0
2, 55680, Note_on_c, 0, 64, 0
2, 55680, Note_on_c, 0, 68, 0
2, 55920, Note_on_c, 0, 68, 23
2, 55920, Note_on_c, 0, 64, 18
2, 55920, Note_on_c, 0, 59, 18
2, 56160, Note_on_c, 0, 59, 0
2, 56160, Note_on_c, 0, 64, 0
2, 56160, Note_on_c, 0, 68, 0
2, 56400, Note_on_c, 0, 67, 23
2, 56400, Note_on_c, 0, 64, 18
2, 56400, Note_on_c, 0, 59, 18
2, 56640, Note_on_c, 0, 59, 0
2, 56640, Note_on_c, 0, 64, 0
2, 56640, Note_on_c, 0, 67, 0
2, 56880, Note_on_c, 0, 67, 23
2, 56880, Note_on_c, 0, 64, 18
2, 56880, Note_on_c, 0, 59, 18
2, 57120, Note_on_c, 0, 59, 0
2, 57120, Note_on_c, 0, 64, 0
2, 57120, Note_on_c, 0, 67, 0
2, 57360, Note_on_c, 0, 67, 23
2, 57360, Note_on_c, 0, 64, 18
2, 57360, Note_on_c, 0, 59, 18
2, 57600, Note_on_c, 0, 59, 0
2, 57600, Note_on_c, 0, 64, 0
2, 57600, Note_on_c, 0, 67, 0
2, 57840, Note_on_c, 0, 66, 23
2, 57840, Note_on_c, 0, 64, 18
2, 57840, Note_on_c, 0, 59, 18
2, 58080, Note_on_c, 0, 59, 0
2, 58080, Note_on_c, 0, 64, 0
2, 58080, Note_on_c, 0, 66, 0
2, 58320, Note_on_c, 0, 66, 23
2, 58320, Note_on_c, 0, 64, 18
2, 58320, Note_on_c, 0, 59, 18
2, 58560, Note_on_c, 0, 59, 0
2, 58560, Note_on_c, 0, 64, 0
2, 58560, Note_on_c, 0, 66, 0
2, 58800, Note_on_c, 0, 66, 23
2, 58800, Note_on_c, 0, 64, 18
2, 58800, Note_on_c, 0, 59, 18
2, 59040, Note_on_c, 0, 59, 0
2, 59040, Note_on_c, 0, 64, 0
2, 59040, Note_on_c, 0, 66, 0
2, 59280, Note_on_c, 0, 66, 23
2, 59280, Note_on_c, 0, 64, 18
2, 59280, Note_on_c, 0, 58, 18
2, 59520, Note_on_c, 0, 58, 0
2, 59520, Note_on_c, 0, 64, 0
2, 59520, Note_on_c, 0, 66, 0
2, 59760, Note_on_c, 0, 66, 23
2, 59760, Note_on_c, 0, 64, 18
2, 59760, Note_on_c, 0, 58, 18
2, 60000, Note_on_c, 0, 58, 0
2, 60000, Note_on_c, 0, 64, 0
2, 60000, Note_on_c, 0, 66, 0
2, 60240, Note_on_c, 0, 66, 23
2, 60240, Note_on_c, 0, 64, 18
2, 60240, Note_on_c, 0, 58, 18
2, 60480, Note_on_c, 0, 58, 0
2, 60480, Note_on_c, 0, 64, 0
2, 60480, Note_on_c, 0, 66, 0
2, 60480, Note_on_c, 0, 59, 34
2, 60720, Note_on_c, 0, 59, 0
2, 60720, Note_on_c, 0, 71, 29
2, 60720, Note_on_c, 0, 66, 29
2, 60840, Note_on_c, 0, 66, 0
2, 60840, Note_on_c, 0, 71, 0
2, 61200, Note_on_c, 0, 66, 24
2, 61200, Note_on_c, 0, 59, 24
2, 61200, Note_on_c, 0, 71, 29
2, 61320, Note_on_c, 0, 71, 0
2, 61320, Note_on_c, 0, 59, 0
2, 61320, Note_on_c, 0, 66, 0
2, 61680, Note_on_c, 0, 59, 24
2, 61680, Note_on_c, 0, 71, 29
2, 61680, Note_on_c, 0, 66, 24
2, 61800, Note_on_c, 0, 66, 0
2, 61800, Note_on_c, 0, 71, 0
2, 61800, Note_on_c, 0, 59, 0
2, 62160, Note_on_c, 0, 59, 24
2, 62160, Note_on_c, 0, 66, 24
2, 62160, Note_on_c, 0, 71, 29
2, 62280, Note_on_c, 0, 71, 0
2, 62280, Note_on_c, 0, 66, 0
2, 62280, Note_on_c, 0, 59, 0
2, 62640, Note_on_c, 0, 59, 24
2, 62640, Note_on_c, 0, 66, 24
2, 62640, Note_on_c, 0, 71, 29
2, 62760, Note_on_c, 0, 71, 0
2, 62760, Note_on_c, 0, 66, 0
2, 62760, Note_on_c, 0, 59, 0
2, 63120, Note_on_c, 0, 59, 24
2, 63120, Note_on_c, 0, 66, 24
2, 63120, Note_on_c, 0, 71, 29
2, 63240, Note_on_c, 0, 71, 0
2, 63240, Note_on_c, 0, 66, 0
2, 63240, Note_on_c, 0, 59, 0
2, 63600, Note_on_c, 0, 71, 25
2, 63600, Note_on_c, 0, 66, 21
2, 63720, Note_on_c, 0, 66, 0
2, 63720, Note_on_c, 0, 71, 0
2, 64080, Note_on_c, 0, 66, 22
2, 64080, Note_on_c, 0, 71, 26
2, 64200, Note_on_c, 0, 71, 0
2, 64200, Note_on_c, 0, 66, 0
2, 64560, Note_on_c, 0, 71, 27
2, 64560, Note_on_c, 0, 66, 22
2, 64680, Note_on_c, 0, 66, 0
2, 64680, Note_on_c, 0, 71, 0
2, 65040, Note_on_c, 0, 66, 23
2, 65040, Note_on_c, 0, 71, 28
2, 65160, Note_on_c, 0, 71, 0
2, 65160, Note_on_c, 0, 66, 0
2, 65520, Note_on_c, 0, 66, 24
2, 65520, Note_on_c, 0, 71, 29
2, 65640, Note_on_c, 0, 71, 0
2, 65640, Note_on_c, 0, 66, 0
2, 66000, Note_on_c, 0, 71, 31
2, 66000, Note_on_c, 0, 66, 26
2, 66120, Note_on_c, 0, 66, 0
2, 66120, Note_on_c, 0, 71, 0
2, 66480, Note_on_c, 0, 71, 31
2, 66480, Note_on_c, 0, 67, 26
2, 66600, Note_on_c, 0, 67, 0
2, 66600, Note_on_c, 0, 71, 0
2, 66960, Note_on_c, 0, 67, 25
2, 66960, Note_on_c, 0, 71, 30
2, 67080, Note_on_c, 0, 71, 0
2, 67080, Note_on_c, 0, 67, 0
2, 67440, Note_on_c, 0, 71, 29
2, 67440, Note_on_c, 0, 67, 24
2, 67560, Note_on_c, 0, 67, 0
2, 67560, Note_on_c, 0, 71, 0
2, 67920, Note_on_c, 0, 67, 23
2, 67920, Note_on_c, 0, 71, 28
2, 68040, Note_on_c, 0, 71, 0
2, 68040, Note_on_c, 0, 67, 0
2, 68400, Note_on_c, 0, 67, 22
2, 68400, Note_on_c, 0, 71, 27
2, 68520, Note_on_c, 0, 71, 0
2, 68520, Note_on_c, 0, 67, 0
2, 68880, Note_on_c, 0, 71, 26
2, 68880, Note_on_c, 0, 67, 22
2, 69000, Note_on_c, 0, 67, 0
2, 69000, Note_on_c, 0, 71, 0
2, 69360, Note_on_c, 0, 71, 25
2, 69360, Note_on_c, 0, 66, 21
2, 69480, Note_on_c, 0, 66, 0
2, 69480, Note_on_c, 0, 71, 0
2, 69840, Note_on_c, 0, 66, 22
2, 69840, Note_on_c, 0, 71, 26
2, 69960, Note_on_c, 0, 71, 0
2, 69960, Note_on_c, 0, 66, 0
2, 70320, Note_on_c, 0, 71, 27
2, 70320, Note_on_c, 0, 66, 22
2, 70440, Note_on_c, 0, 66, 0
2, 70440, Note_on_c, 0, 71, 0
2, 70800, Note_on_c, 0, 66, 23
2, 70800, Note_on_c, 0, 71, 28
2, 70920, Note_on_c, 0, 71, 0
2, 70920, Note_on_c, 0, 66, 0
2, 71280, Note_on_c, 0, 66, 24
2, 71280, Note_on_c, 0, 71, 29
2, 71400, Note_on_c, 0, 71, 0
2, 71400, Note_on_c, 0, 66, 0
2, 71760, Note_on_c, 0, 71, 31
2, 71760, Note_on_c, 0, 66, 26
2, 71880, Note_on_c, 0, 66, 0
2, 71880, Note_on_c, 0, 71, 0
2, 72240, Note_on_c, 0, 71, 31
2, 72240, Note_on_c, 0, 69, 26
2, 72360, Note_on_c, 0, 69, 0
2, 72360, Note_on_c, 0, 71, 0
2, 72720, Note_on_c, 0, 69, 25
2, 72720, Note_on_c, 0, 71, 30
2, 72840, Note_on_c, 0, 71, 0
2, 72840, Note_on_c, 0, 69, 0
2, 73200, Note_on_c, 0, 71, 29
2, 73200, Note_on_c, 0, 67, 24
2, 73320, Note_on_c, 0, 67, 0
2, 73320, Note_on_c, 0, 71, 0
2, 73680, Note_on_c, 0, 67, 23
2, 73680, Note_on_c, 0, 71, 28
2, 73800, Note_on_c, 0, 71, 0
2, 73800, Note_on_c, 0, 67, 0
2, 74160, Note_on_c, 0, 65, 22
2, 74160, Note_on_c, 0, 71, 27
2, 74280, Note_on_c, 0, 71, 0
2, 74280, Note_on_c, 0, 65, 0
2, 74640, Note_on_c, 0, 67, 26
2, 74640, Note_on_c, 0, 65, 22
2, 74760, Note_on_c, 0, 65, 0
2, 74760, Note_on_c, 0, 67, 0
2, 75120, Note_on_c, 0, 67, 25
2, 75120, Note_on_c, 0, 65, 21
2, 75240, Note_on_c, 0, 65, 0
2, 75240, Note_on_c, 0, 67, 0
2, 75600, Note_on_c, 0, 65, 22
2, 75600, Note_on_c, 0, 67, 26
2, 75720, Note_on_c, 0, 67, 0
2, 75720, Note_on_c, 0, 65, 0
2, 76080, Note_on_c, 0, 67, 27
2, 76080, Note_on_c, 0, 65, 22
2, 76200, Note_on_c, 0, 65, 0
2, 76200, Note_on_c, 0, 67, 0
2, 76560, Note_on_c, 0, 64, 23
2, 76560, Note_on_c, 0, 69, 28
2, 76680, Note_on_c, 0, 69, 0
2, 76680, Note_on_c, 0, 64, 0
2, 77040, Note_on_c, 0, 69, 26
2, 77040, Note_on_c, 0, 64, 22
2, 77160, Note_on_c, 0, 64, 0
2, 77160, Note_on_c, 0, 69, 0
2, 77520, Note_on_c, 0, 64, 21
2, 77520, Note_on_c, 0, 69, 25
2, 77640, Note_on_c, 0, 69, 0
2, 77640, Note_on_c, 0, 64, 0
2, 78000, Note_on_c, 0, 67, 25
2, 78000, Note_on_c, 0, 65, 21
2, 78120, Note_on_c, 0, 65, 0
2, 78120, Note_on_c, 0, 67, 0
2, 78480, Note_on_c, 0, 65, 22
2, 78480, Note_on_c, 0, 67, 26
2, 78600, Note_on_c, 0, 67, 0
2, 78600, Note_on_c, 0, 65, 0
2, 78960, Note_on_c, 0, 67, 27
2, 78960, Note_on_c, 0, 65, 22
2, 79080, Note_on_c, 0, 65, 0
2, 79080, Note_on_c, 0, 67, 0
2, 79440, Note_on_c, 0, 69, 31
2, 79440, Note_on_c, 0, 64, 26
2, 79560, Note_on_c, 0, 64, 0
2, 79560, Note_on_c, 0, 69, 0
2, 79920, Note_on_c, 0, 69, 36
2, 79920, Note_on_c, 0, 65, 29
2, 80040, Note_on_c, 0, 65, 0
2, 80040, Note_on_c, 0, 69, 0
2, 80400, Note_on_c, 0, 67, 37
2, 80400, Note_on_c, 0, 69, 44
2, 80520, Note_on_c, 0, 69, 0
2, 80520, Note_on_c, 0, 67, 0
2, 80880, Note_on_c, 0, 70, 25
2, 80880, Note_on_c, 0, 68, 21
2, 81000, Note_on_c, 0, 68, 0
2, 81000, Note_on_c, 0, 70, 0
2, 81360, Note_on_c, 0, 68, 22
2, 81360, Note_on_c, 0, 70, 26
2, 81480, Note_on_c, 0, 70, 0
2, 81480, Note_on_c, 0, 68, 0
2, 81840, Note_on_c, 0, 70, 27
2, 81840, Note_on_c, 0, 68, 22
2, 81960, Note_on_c, 0, 68, 0
2, 81960, Note_on_c, 0, 70, 0
2, 82320, Note_on_c, 0, 67, 23
2, 82320, Note_on_c, 0, 72, 28
2, 82440, Note_on_c, 0, 72, 0
2, 82440, Note_on_c, 0, 67, 0
2, 82800, Note_on_c, 0, 72, 26
2, 82800, Note_on_c, 0, 67, 22
2, 82920, Note_on_c, 0, 67, 0
2, 82920, Note_on_c, 0, 72, 0
2, 83280, Note_on_c, 0, 67, 21
2, 83280, Note_on_c, 0, 72, 25
2, 83400, Note_on_c, 0, 72, 0
2, 83400, Note_on_c, 0, 67, 0
2, 83760, Note_on_c, 0, 70, 25
2, 83760, Note_on_c, 0, 68, 21
2, 83880, Note_on_c, 0, 68, 0
2, 83880, Note_on_c, 0, 70, 0
2, 84240, Note_on_c, 0, 68, 22
2, 84240, Note_on_c, 0, 70, 26
2, 84360, Note_on_c, 0, 70, 0
2, 84360, Note_on_c, 0, 68, 0
2, 84720, Note_on_c, 0, 70, 27
2, 84720, Note_on_c, 0, 68, 22
2, 84840, Note_on_c, 0, 68, 0
2, 84840, Note_on_c, 0, 70, 0
2, 85200, Note_on_c, 0, 72, 31
2, 85200, Note_on_c, 0, 67, 26
2, 85320, Note_on_c, 0, 67, 0
2, 85320, Note_on_c, 0, 72, 0
2, 85680, Note_on_c, 0, 72, 36
2, 85680, Note_on_c, 0, 68, 29
2, 85800, Note_on_c, 0, 68, 0
2, 85800, Note_on_c, 0, 72, 0
2, 86160, Note_on_c, 0, 70, 37
2, 86160, Note_on_c, 0, 72, 44
2, 86280, Note_on_c, 0, 72, 0
2, 86280, Note_on_c, 0, 70, 0
2, 86880, Note_on_c, 0, 72, 42
2, 87000, Note_on_c, 0, 72, 0
2, 87120, Note_on_c, 0, 75, 38
2, 87240, Note_on_c, 0, 75, 0
2, 87360, Note_on_c, 0, 74, 42
2, 87480, Note_on_c, 0, 74, 0
2, 87600, Note_on_c, 0, 72, 37
2, 87720, Note_on_c, 0, 72, 0
2, 87840, Note_on_c, 0, 70, 42
2, 87960, Note_on_c, 0, 70, 0
2, 88080, Note_on_c, 0, 68, 37
2, 88200, Note_on_c, 0, 68, 0
2, 88320, Note_on_c, 0, 67, 41
2, 88440, Note_on_c, 0, 67, 0
2, 88560, Note_on_c, 0, 65, 38
2, 88680, Note_on_c, 0, 65, 0
2, 88800, Note_on_c, 0, 63, 41
2, 88920, Note_on_c, 0, 63, 0
2, 89040, Note_on_c, 0, 62, 33
2, 89160, Note_on_c, 0, 62, 0
2, 89280, Note_on_c, 0, 60, 42
2, 89520, Note_on_c, 0, 60, 0
2, 89520, Note_on_c, 0, 63, 38
2, 89760, Note_on_c, 0, 63, 0
2, 89760, Note_on_c, 0, 63, 31
2, 89760, Note_on_c, 0, 67, 37
2, 89880, Note_on_c, 0, 67, 0
2, 89880, Note_on_c, 0, 63, 0
2, 90240, Note_on_c, 0, 63, 25
2, 90240, Note_on_c, 0, 67, 30
2, 90360, Note_on_c, 0, 67, 0
2, 90360, Note_on_c, 0, 63, 0
2, 90720, Note_on_c, 0, 60, 42
2, 90960, Note_on_c, 0, 60, 0
2, 90960, Note_on_c, 0, 63, 37
2, 91200, Note_on_c, 0, 63, 0
2, 91200, Note_on_c, 0, 63, 24
2, 91200, Note_on_c, 0, 67, 29
2, 91320, Note_on_c, 0, 67, 0
2, 91320, Note_on_c, 0, 63, 0
2, 91680, Note_on_c, 0, 62, 18
2, 91680, Note_on_c, 0, 67, 22
2, 91800, Note_on_c, 0, 67, 0
2, 91800, Note_on_c, 0, 62, 0
2, 97920, Note_on_c, 0, 60, 28
2, 97920, Note_on_c, 0, 63, 38
2, 98095, Note_on_c, 0, 63, 0
2, 98095, Note_on_c, 0, 60, 0
2, 98160, Note_on_c, 0, 66, 41
2, 98400, Note_on_c, 0, 70, 46
2, 98820, Note_on_c, 0, 60, 20
2, 98880, Note_on_c, 0, 63, 27
2, 99000, Note_on_c, 0, 63, 0
2, 99000, Note_on_c, 0, 60, 0
2, 99360, Note_on_c, 0, 70, 0
2, 99360, Note_on_c, 0, 66, 0
2, 99360, Note_on_c, 0, 62, 28
2, 99360, Note_on_c, 0, 65, 38
2, 99535, Note_on_c, 0, 65, 0
2, 99535, Note_on_c, 0, 62, 0
2, 99600, Note_on_c, 0, 68, 41
2, 99840, Note_on_c, 0, 72, 46
2, 100260, Note_on_c, 0, 62, 20
2, 100320, Note_on_c, 0, 65, 27
2, 100440, Note_on_c, 0, 65, 0
2, 100440, Note_on_c, 0, 62, 0
2, 100800, Note_on_c, 0, 72, 0
2, 100800, Note_on_c, 0, 68, 0
2, 100800, Note_on_c, 0, 60, 28
2, 100800, Note_on_c, 0, 63, 38
2, 101040, Note_on_c, 0, 66, 41
2, 101280, Note_on_c, 0, 66, 0
2, 101280, Note_on_c, 0, 70, 46
2, 101520, Note_on_c, 0, 70, 0
2, 101520, Note_on_c, 0, 63, 0
2, 101520, Note_on_c, 0, 60, 0
2, 101520, Note_on_c, 0, 60, 28
2, 101520, Note_on_c, 0, 63, 38
2, 101760, Note_on_c, 0, 66, 41
2, 102000, Note_on_c, 0, 66, 0
2, 102000, Note_on_c, 0, 70, 46
2, 102240, Note_on_c, 0, 70, 0
2, 102240, Note_on_c, 0, 63, 0
2, 102240, Note_on_c, 0, 60, 0
2, 102240, Note_on_c, 0, 62, 28
2, 102240, Note_on_c, 0, 65, 38
2, 102415, Note_on_c, 0, 65, 0
2, 102415, Note_on_c, 0, 62, 0
2, 102480, Note_on_c, 0, 68, 41
2, 102720, Note_on_c, 0, 72, 46
2, 102840, Note_on_c, 0, 72, 0
2, 102840, Note_on_c, 0, 68, 0
2, 103110, Note_on_c, 0, 62, 44
2, 103140, Note_on_c, 0, 65, 46
2, 103170, Note_on_c, 0, 68, 47
2, 103200, Note_on_c, 0, 72, 50
2, 103320, Note_on_c, 0, 72, 0
2, 103320, Note_on_c, 0, 62, 0
2, 103320, Note_on_c, 0, 65, 0
2, 103320, Note_on_c, 0, 68, 0
2, 104160, Note_on_c, 0, 62, 28
2, 104160, Note_on_c, 0, 65, 38
2, 104400, Note_on_c, 0, 68, 41
2, 104640, Note_on_c, 0, 72, 46
2, 105120, Note_on_c, 0, 72, 0
2, 105120, Note_on_c, 0, 62, 0
2, 105120, Note_on_c, 0, 65, 0
2, 105120, Note_on_c, 0, 68, 0
2, 105600, Note_on_c, 0, 64, 28
2, 105600, Note_on_c, 0, 67, 38
2, 105840, Note_on_c, 0, 70, 41
2, 106080, Note_on_c, 0, 74, 46
2, 106560, Note_on_c, 0, 74, 0
2, 106560, Note_on_c, 0, 64, 0
2, 106560, Note_on_c, 0, 67, 0
2, 106560, Note_on_c, 0, 70, 0
2, 106560, Note_on_c, 0, 62, 28
2, 106560, Note_on_c, 0, 65, 38
2, 106800, Note_on_c, 0, 68, 41
2, 107040, Note_on_c, 0, 68, 0
2, 107040, Note_on_c, 0, 72, 46
2, 107280, Note_on_c, 0, 72, 0
2, 107280, Note_on_c, 0, 65, 0
2, 107280, Note_on_c, 0, 62, 0
2, 107280, Note_on_c, 0, 62, 28
2, 107280, Note_on_c, 0, 65, 38
2, 107520, Note_on_c, 0, 68, 41
2, 107760, Note_on_c, 0, 68, 0
2, 107760, Note_on_c, 0, 72, 46
2, 108000, Note_on_c, 0, 72, 0
2, 108000, Note_on_c, 0, 65, 0
2, 108000, Note_on_c, 0, 62, 0
2, 108000, Note_on_c, 0, 64, 28
2, 108000, Note_on_c, 0, 67, 38
2, 108175, Note_on_c, 0, 67, 0
2, 108175, Note_on_c, 0, 64, 0
2, 108240, Note_on_c, 0, 70, 41
2, 108474, Note_on_c, 0, 74, 46
2, 108594, Note_on_c, 0, 74, 0
2, 108600, Note_on_c, 0, 70, 0
2, 108870, Note_on_c, 0, 64, 44
2, 108900, Note_on_c, 0, 67, 46
2, 108930, Note_on_c, 0, 70, 47
2, 108960, Note_on_c, 0, 74, 50
2, 109080, Note_on_c, 0, 74, 0
2, 109080, Note_on_c, 0, 64, 0
2, 109080, Note_on_c, 0, 67, 0
2, 109080, Note_on_c, 0, 70, 0
2, 109440, Note_on_c, 0, 64, 28
2, 109440, Note_on_c, 0, 67, 38
2, 109615, Note_on_c, 0, 67, 0
2, 109615, Note_on_c, 0, 64, 0
2, 109680, Note_on_c, 0, 70, 41
2, 109914, Note_on_c, 0, 74, 46
2, 110034, Note_on_c, 0, 74, 0
2, 110040, Note_on_c, 0, 70, 0
2, 110400, Note_on_c, 0, 67, 41
2, 110400, Note_on_c, 0, 70, 42
2, 110400, Note_on_c, 0, 77, 45
2, 110520, Note_on_c, 0, 77, 0
2, 110520, Note_on_c, 0, 70, 0
2, 110520, Note_on_c, 0, 67, 0
2, 110820, Note_on_c, 0, 70, 46
2, 110850, Note_on_c, 0, 73, 47
2, 110880, Note_on_c, 0, 80, 50
2, 111000, Note_on_c, 0, 80, 0
2, 111000, Note_on_c, 0, 73, 0
2, 111000, Note_on_c, 0, 70, 0
2, 112320, Note_on_c, 0, 64, 28
2, 112320, Note_on_c, 0, 67, 38
2, 112560, Note_on_c, 0, 70, 42
2, 112800, Note_on_c, 0, 70, 0
2, 112800, Note_on_c, 0, 74, 49
2, 113040, Note_on_c, 0, 74, 0
2, 113040, Note_on_c, 0, 67, 0
2, 113040, Note_on_c, 0, 64, 0
2, 113040, Note_on_c, 0, 67, 30
2, 113040, Note_on_c, 0, 70, 41
2, 113280, Note_on_c, 0, 70, 0
2, 113280, Note_on_c, 0, 73, 46
2, 113520, Note_on_c, 0, 73, 0
2, 113520, Note_on_c, 0, 77, 54
2, 113700, Note_on_c, 0, 77, 0
2, 113700, Note_on_c, 0, 70, 46
2, 113730, Note_on_c, 0, 73, 47
2, 113760, Note_on_c, 0, 67, 0
2, 113760, Note_on_c, 0, 80, 50
2, 113880, Note_on_c, 0, 80, 0
2, 113880, Note_on_c, 0, 73, 0
2, 113880, Note_on_c, 0, 70, 0
2, 115140, Note_on_c, 0, 70, 46
2, 115170, Note_on_c, 0, 73, 47
2, 115200, Note_on_c, 0, 80, 50
2, 115320, Note_on_c, 0, 80, 0
2, 115320, Note_on_c, 0, 73, 0
2, 115320, Note_on_c, 0, 70, 0
2, 116580, Note_on_c, 0, 70, 41
2, 116610, Note_on_c, 0, 73, 42
2, 116640, Note_on_c, 0, 80, 45
2, 116760, Note_on_c, 0, 80, 0
2, 116760, Note_on_c, 0, 73, 0
2, 116760, Note_on_c, 0, 70, 0
2, 119040, Note_on_c, 0, 80, 45
2, 119280, Note_on_c, 0, 80, 0
2, 119280, Note_on_c, 0, 85, 36
2, 119520, Note_on_c, 0, 85, 0
2, 119520, Note_on_c, 0, 73, 34
2, 119520, Note_on_c, 0, 78, 44
2, 119640, Note_on_c, 0, 73, 0
2, 120000, Note_on_c, 0, 73, 34
2, 120120, Note_on_c, 0, 73, 0
2, 120480, Note_on_c, 0, 78, 0
2, 120480, Note_on_c, 0, 73, 34
2, 120480, Note_on_c, 0, 80, 33
2, 120600, Note_on_c, 0, 73, 0
2, 120720, Note_on_c, 0, 80, 0
2, 120720, Note_on_c, 0, 85, 40
2, 120960, Note_on_c, 0, 85, 0
2, 120960, Note_on_c, 0, 78, 40
2, 120960, Note_on_c, 0, 73, 34
2, 121080, Note_on_c, 0, 73, 0
2, 121080, Note_on_c, 0, 78, 0
2, 121440, Note_on_c, 0, 80, 40
2, 121440, Note_on_c, 0, 73, 34
2, 121560, Note_on_c, 0, 73, 0
2, 121560, Note_on_c, 0, 80, 0
2, 121920, Note_on_c, 0, 73, 34
2, 122040, Note_on_c, 0, 73, 0
2, 122400, Note_on_c, 0, 73, 35
2, 122400, Note_on_c, 0, 78, 42
2, 122520, Note_on_c, 0, 73, 0
2, 122880, Note_on_c, 0, 73, 38
2, 123000, Note_on_c, 0, 73, 0
2, 123360, Note_on_c, 0, 73, 38
2, 123480, Note_on_c, 0, 73, 0
2, 123840, Note_on_c, 0, 78, 0
2, 123840, Note_on_c, 0, 72, 32
2, 123840, Note_on_c, 0, 80, 38
2, 123960, Note_on_c, 0, 80, 0
2, 123960, Note_on_c, 0, 72, 0
2, 124320, Note_on_c, 0, 73, 34
2, 124320, Note_on_c, 0, 78, 41
2, 124440, Note_on_c, 0, 78, 0
2, 124440, Note_on_c, 0, 73, 0
2, 124800, Note_on_c, 0, 74, 41
2, 124800, Note_on_c, 0, 80, 49
2, 124920, Note_on_c, 0, 80, 0
2, 124920, Note_on_c, 0, 74, 0
2, 125280, Note_on_c, 0, 73, 40
2, 125280, Note_on_c, 0, 68, 34
2, 125400, Note_on_c, 0, 68, 0
2, 125760, Note_on_c, 0, 68, 34
2, 125880, Note_on_c, 0, 68, 0
2, 126240, Note_on_c, 0, 68, 34
2, 126360, Note_on_c, 0, 68, 0
2, 126720, Note_on_c, 0, 73, 0
2, 126720, Note_on_c, 0, 67, 39
2, 126720, Note_on_c, 0, 75, 47
2, 126840, Note_on_c, 0, 75, 0
2, 126840, Note_on_c, 0, 67, 0
2, 127200, Note_on_c, 0, 68, 35
2, 127200, Note_on_c, 0, 73, 42
2, 127320, Note_on_c, 0, 73, 0
2, 127320, Note_on_c, 0, 68, 0
2, 127680, Note_on_c, 0, 69, 34
2, 127680, Note_on_c, 0, 75, 41
2, 127800, Note_on_c, 0, 75, 0
2, 127800, Note_on_c, 0, 69, 0
2, 128140, Note_on_c, 0, 61, 67
2, 128150, Note_on_c, 0, 64, 69
2, 128160, Note_on_c, 0, 68, 75
2, 128280, Note_on_c, 0, 68, 0
2, 128280, Note_on_c, 0, 64, 0
2, 128280, Note_on_c, 0, 61, 0
2, 128620, Note_on_c, 0, 61, 67
2, 128630, Note_on_c, 0, 64, 69
2, 128640, Note_on_c, 0, 68, 75
2, 128760, Note_on_c, 0, 68, 0
2, 128760, Note_on_c, 0, 64, 0
2, 128760, Note_on_c, 0, 61, 0
2, 129100, Note_on_c, 0, 61, 67
2, 129110, Note_on_c, 0, 64, 69
2, 129120, Note_on_c, 0, 68, 75
2, 129240, Note_on_c, 0, 68, 0
2, 129240, Note_on_c, 0, 64, 0
2, 129240, Note_on_c, 0, 61, 0
2, 129580, Note_on_c, 0, 61, 63
2, 129590, Note_on_c, 0, 64, 66
2, 129600, Note_on_c, 0, 68, 71
2, 129720, Note_on_c, 0, 68, 0
2, 129720, Note_on_c, 0, 64, 0
2, 129720, Note_on_c, 0, 61, 0
2, 130060, Note_on_c, 0, 61, 61
2, 130070, Note_on_c, 0, 64, 63
2, 130080, Note_on_c, 0, 68, 68
2, 130200, Note_on_c, 0, 68, 0
2, 130200, Note_on_c, 0, 64, 0
2, 130200, Note_on_c, 0, 61, 0
2, 130540, Note_on_c, 0, 61, 57
2, 130550, Note_on_c, 0, 64, 59
2, 130560, Note_on_c, 0, 68, 64
2, 130680, Note_on_c, 0, 68, 0
2, 130680, Note_on_c, 0, 64, 0
2, 130680, Note_on_c, 0, 61, 0
2, 131020, Note_on_c, 0, 61, 38
2, 131030, Note_on_c, 0, 63, 39
2, 131040, Note_on_c, 0, 68, 43
2, 131160, Note_on_c, 0, 68, 0
2, 131160, Note_on_c, 0, 63, 0
2, 131160, Note_on_c, 0, 61, 0
2, 131500, Note_on_c, 0, 61, 35
2, 131510, Note_on_c, 0, 63, 36
2, 131520, Note_on_c, 0, 68, 40
2, 131640, Note_on_c, 0, 68, 0
2, 131640, Note_on_c, 0, 63, 0
2, 131640, Note_on_c, 0, 61, 0
2, 131980, Note_on_c, 0, 61, 32
2, 131990, Note_on_c, 0, 63, 33
2, 132000, Note_on_c, 0, 68, 36
2, 132120, Note_on_c, 0, 68, 0
2, 132120, Note_on_c, 0, 63, 0
2, 132120, Note_on_c, 0, 61, 0
2, 132460, Note_on_c, 0, 57, 27
2, 132480, Note_on_c, 0, 59, 32
2, 132600, Note_on_c, 0, 59, 0
2, 132600, Note_on_c, 0, 57, 0
2, 132940, Note_on_c, 0, 57, 27
2, 132960, Note_on_c, 0, 59, 32
2, 133080, Note_on_c, 0, 59, 0
2, 133080, Note_on_c, 0, 57, 0
2, 133420, Note_on_c, 0, 57, 27
2, 133440, Note_on_c, 0, 59, 32
2, 133560, Note_on_c, 0, 59, 0
2, 133560, Note_on_c, 0, 57, 0
2, 133900, Note_on_c, 0, 56, 27
2, 133910, Note_on_c, 0, 59, 27
2, 133920, Note_on_c, 0, 61, 32
2, 134040, Note_on_c, 0, 61, 0
2, 134040, Note_on_c, 0, 59, 0
2, 134040, Note_on_c, 0, 56, 0
2, 134380, Note_on_c, 0, 56, 27
2, 134390, Note_on_c, 0, 59, 27
2, 134400, Note_on_c, 0, 61, 32
2, 134520, Note_on_c, 0, 61, 0
2, 134520, Note_on_c, 0, 59, 0
2, 134520, Note_on_c, 0, 56, 0
2, 134860, Note_on_c, 0, 56, 27
2, 134870, Note_on_c, 0, 59, 27
2, 134880, Note_on_c, 0, 61, 32
2, 135000, Note_on_c, 0, 61, 0
2, 135000, Note_on_c, 0, 59, 0
2, 135000, Note_on_c, 0, 56, 0
2, 135340, Note_on_c, 0, 56, 27
2, 135350, Note_on_c, 0, 59, 27
2, 135360, Note_on_c, 0, 61, 32
2, 135480, Note_on_c, 0, 61, 0
2, 135480, Note_on_c, 0, 59, 0
2, 135480, Note_on_c, 0, 56, 0
2, 135820, Note_on_c, 0, 56, 27
2, 135830, Note_on_c, 0, 59, 27
2, 135840, Note_on_c, 0, 61, 32
2, 135960, Note_on_c, 0, 61, 0
2, 135960, Note_on_c, 0, 59, 0
2, 135960, Note_on_c, 0, 56, 0
2, 136300, Note_on_c, 0, 56, 27
2, 136310, Note_on_c, 0, 59, 27
2, 136320, Note_on_c, 0, 61, 32
2, 136440, Note_on_c, 0, 61, 0
2, 136440, Note_on_c, 0, 59, 0
2, 136440, Note_on_c, 0, 56, 0
2, 136780, Note_on_c, 0, 55, 27
2, 136790, Note_on_c, 0, 58, 27
2, 136800, Note_on_c, 0, 62, 32
2, 136920, Note_on_c, 0, 62, 0
2, 136920, Note_on_c, 0, 58, 0
2, 136920, Note_on_c, 0, 55, 0
2, 137260, Note_on_c, 0, 55, 27
2, 137270, Note_on_c, 0, 58, 27
2, 137280, Note_on_c, 0, 62, 32
2, 137400, Note_on_c, 0, 62, 0
2, 137400, Note_on_c, 0, 58, 0
2, 137400, Note_on_c, 0, 55, 0
2, 138240, Note_on_c, 0, 55, 49
2, 138480, Note_on_c, 0, 55, 0
2, 138480, Note_on_c, 0, 57, 55
2, 138720, Note_on_c, 0, 57, 0
2, 138720, Note_on_c, 0, 58, 33
2, 138840, Note_on_c, 0, 58, 0
2, 139200, Note_on_c, 0, 60, 33
2, 139320, Note_on_c, 0, 60, 0
2, 139660, Note_on_c, 0, 56, 27
2, 139670, Note_on_c, 0, 59, 27
2, 139680, Note_on_c, 0, 61, 32
2, 139800, Note_on_c, 0, 61, 0
2, 139800, Note_on_c, 0, 59, 0
2, 139800, Note_on_c, 0, 56, 0
2, 140140, Note_on_c, 0, 56, 27
2, 140150, Note_on_c, 0, 59, 27
2, 140160, Note_on_c, 0, 61, 32
2, 140280, Note_on_c, 0, 61, 0
2, 140280, Note_on_c, 0, 59, 0
2, 140280, Note_on_c, 0, 56, 0
2, 140620, Note_on_c, 0, 56, 27
2, 140630, Note_on_c, 0, 59, 27
2, 140640, Note_on_c, 0, 61, 32
2, 140760, Note_on_c, 0, 61, 0
2, 140760, Note_on_c, 0, 59, 0
2, 140760, Note_on_c, 0, 56, 0
2, 141100, Note_on_c, 0, 56, 27
2, 141110, Note_on_c, 0, 59, 27
2, 141120, Note_on_c, 0, 61, 32
2, 141240, Note_on_c, 0, 61, 0
2, 141240, Note_on_c, 0, 59, 0
2, 141240, Note_on_c, 0, 56, 0
2, 141580, Note_on_c, 0, 56, 27
2, 141590, Note_on_c, 0, 59, 27
2, 141600, Note_on_c, 0, 61, 32
2, 141720, Note_on_c, 0, 61, 0
2, 141720, Note_on_c, 0, 59, 0
2, 141720, Note_on_c, 0, 56, 0
2, 142060, Note_on_c, 0, 56, 27
2, 142070, Note_on_c, 0, 59, 27
2, 142080, Note_on_c, 0, 61, 32
2, 142200, Note_on_c, 0, 61, 0
2, 142200, Note_on_c, 0, 59, 0
2, 142200, Note_on_c, 0, 56, 0
2, 142540, Note_on_c, 0, 55, 27
2, 142550, Note_on_c, 0, 58, 27
2, 142560, Note_on_c, 0, 62, 32
2, 142680, Note_on_c, 0, 62, 0
2, 142680, Note_on_c, 0, 58, 0
2, 142680, Note_on_c, 0, 55, 0
2, 143020, Note_on_c, 0, 55, 27
2, 143030, Note_on_c, 0, 58, 27
2, 143040, Note_on_c, 0, 62, 32
2, 143160, Note_on_c, 0, 62, 0
2, 143160, Note_on_c, 0, 58, 0
2, 143160, Note_on_c, 0, 55, 0
2, 144000, Note_on_c, 0, 55, 49
2, 144240, Note_on_c, 0, 55, 0
2, 144240, Note_on_c, 0, 57, 55
2, 144480, Note_on_c, 0, 57, 0
2, 144480, Note_on_c, 0, 58, 33
2, 144600, Note_on_c, 0, 58, 0
2, 144960, Note_on_c, 0, 60, 33
2, 145080, Note_on_c, 0, 60, 0
2, 146880, Note_on_c, 0, 67, 49
2, 147120, Note_on_c, 0, 67, 0
2, 147120, Note_on_c, 0, 69, 55
2, 147360, Note_on_c, 0, 69, 0
2, 147360, Note_on_c, 0, 70, 33
2, 147480, Note_on_c, 0, 70, 0
2, 147840, Note_on_c, 0, 72, 33
2, 147960, Note_on_c, 0, 72, 0
2, 149760, Note_on_c, 0, 79, 49
2, 150000, Note_on_c, 0, 79, 0
2, 150000, Note_on_c, 0, 81, 55
2, 150240, Note_on_c, 0, 81, 0
2, 150240, Note_on_c, 0, 82, 33
2, 150360, Note_on_c, 0, 82, 0
2, 150685, Note_on_c, 0, 71, 45
2, 150690, Note_on_c, 0, 75, 46
2, 150705, Note_on_c, 0, 78, 50
2, 150720, Note_on_c, 0, 83, 54
2, 150960, Note_on_c, 0, 83, 0
2, 150960, Note_on_c, 0, 78, 0
2, 150960, Note_on_c, 0, 75, 0
2, 150970, Note_on_c, 0, 71, 0
2, 153060, Note_on_c, 0, 63, 32
2, 153120, Note_on_c, 0, 63, 0
2, 153120, Note_on_c, 0, 68, 40
2, 153240, Note_on_c, 0, 68, 0
2, 153540, Note_on_c, 0, 68, 36
2, 153600, Note_on_c, 0, 68, 0
2, 153600, Note_on_c, 0, 73, 47
2, 153720, Note_on_c, 0, 73, 0
2, 154020, Note_on_c, 0, 61, 37
2, 154080, Note_on_c, 0, 61, 0
2, 154080, Note_on_c, 0, 66, 45
2, 155520, Note_on_c, 0, 66, 0
2, 155940, Note_on_c, 0, 70, 32
2, 156000, Note_on_c, 0, 70, 0
2, 156000, Note_on_c, 0, 75, 40
2, 156120, Note_on_c, 0, 75, 0
2, 156420, Note_on_c, 0, 75, 36
2, 156480, Note_on_c, 0, 75, 0
2, 156480, Note_on_c, 0, 80, 47
2, 156600, Note_on_c, 0, 80, 0
2, 156900, Note_on_c, 0, 68, 37
2, 156960, Note_on_c, 0, 68, 0
2, 156960, Note_on_c, 0, 73, 45
2, 158400, Note_on_c, 0, 73, 0
2, 158820, Note_on_c, 0, 63, 32
2, 158880, Note_on_c, 0, 63, 0
2, 158880, Note_on_c, 0, 68, 40
2, 159000, Note_on_c, 0, 68, 0
2, 159300, Note_on_c, 0, 68, 36
2, 159360, Note_on_c, 0, 68, 0
2, 159360, Note_on_c, 0, 73, 47
2, 159480, Note_on_c, 0, 73, 0
2, 159780, Note_on_c, 0, 61, 37
2, 159840, Note_on_c, 0, 61, 0
2, 159840, Note_on_c, 0, 66, 44
2, 159960, Note_on_c, 0, 66, 0
2, 160260, Note_on_c, 0, 70, 41
2, 160320, Note_on_c, 0, 70, 0
2, 160320, Note_on_c, 0, 75, 49
2, 160440, Note_on_c, 0, 75, 0
2, 160740, Note_on_c, 0, 75, 46
2, 160800, Note_on_c, 0, 75, 0
2, 160800, Note_on_c, 0, 80, 59
2, 160920, Note_on_c, 0, 80, 0
2, 161220, Note_on_c, 0, 68, 37
2, 161280, Note_on_c, 0, 68, 0
2, 161280, Note_on_c, 0, 73, 44
2, 161400, Note_on_c, 0, 73, 0
2, 161700, Note_on_c, 0, 63, 32
2, 161760, Note_on_c, 0, 63, 0
2, 161760, Note_on_c, 0, 68, 40
2, 161880, Note_on_c, 0, 68, 0
2, 162180, Note_on_c, 0, 68, 36
2, 162240, Note_on_c, 0, 68, 0
2, 162240, Note_on_c, 0, 73, 47
2, 162360, Note_on_c, 0, 73, 0
2, 162660, Note_on_c, 0, 61, 37
2, 162720, Note_on_c, 0, 61, 0
2, 162720, Note_on_c, 0, 66, 44
2, 162840, Note_on_c, 0, 66, 0
2, 163140, Note_on_c, 0, 70, 41
2, 163200, Note_on_c, 0, 70, 0
2, 163200, Note_on_c, 0, 75, 49
2, 163320, Note_on_c, 0, 75, 0
2, 163620, Note_on_c, 0, 75, 46
2, 163680, Note_on_c, 0, 75, 0
2, 163680, Note_on_c, 0, 80, 59
2, 163800, Note_on_c, 0, 80, 0
2, 164160, Note_on_c, 0, 73, 33
2, 164160, Note_on_c, 0, 68, 26
2, 164400, Note_on_c, 0, 68, 0
2, 164400, Note_on_c, 0, 73, 0
2, 164400, Note_on_c, 0, 64, 17
2, 164400, Note_on_c, 0, 71, 22
2, 164640, Note_on_c, 0, 71, 0
2, 164640, Note_on_c, 0, 64, 0
2, 164640, Note_on_c, 0, 63, 25
2, 164640, Note_on_c, 0, 68, 32
2, 164880, Note_on_c, 0, 68, 0
2, 164880, Note_on_c, 0, 63, 0
2, 164880, Note_on_c, 0, 64, 17
2, 164880, Note_on_c, 0, 71, 22
2, 165120, Note_on_c, 0, 71, 0
2, 165120, Note_on_c, 0, 64, 0
2, 165120, Note_on_c, 0, 68, 26
2, 165120, Note_on_c, 0, 73, 33
2, 165360, Note_on_c, 0, 73, 0
2, 165360, Note_on_c, 0, 68, 0
2, 165360, Note_on_c, 0, 64, 18
2, 165360, Note_on_c, 0, 71, 23
2, 165600, Note_on_c, 0, 71, 0
2, 165600, Note_on_c, 0, 64, 0
2, 165600, Note_on_c, 0, 68, 33
2, 165600, Note_on_c, 0, 63, 26
2, 165840, Note_on_c, 0, 63, 0
2, 165840, Note_on_c, 0, 68, 0
2, 165840, Note_on_c, 0, 64, 17
2, 165840, Note_on_c, 0, 71, 22
2, 166080, Note_on_c, 0, 71, 0
2, 166080, Note_on_c, 0, 64, 0
2, 166080, Note_on_c, 0, 68, 25
2, 166080, Note_on_c, 0, 73, 32
2, 166320, Note_on_c, 0, 73, 0
2, 166320, Note_on_c, 0, 68, 0
2, 166320, Note_on_c, 0, 64, 17
2, 166320, Note_on_c, 0, 71, 22
2, 166560, Note_on_c, 0, 71, 0
2, 166560, Note_on_c, 0, 64, 0
2, 166560, Note_on_c, 0, 63, 26
2, 166560, Note_on_c, 0, 68, 33
2, 166800, Note_on_c, 0, 68, 0
2, 166800, Note_on_c, 0, 63, 0
2, 166800, Note_on_c, 0, 64, 18
2, 166800, Note_on_c, 0, 71, 23
2, 167040, Note_on_c, 0, 71, 0
2, 167040, Note_on_c, 0, 64, 0
2, 167040, Note_on_c, 0, 73, 28
2, 167040, Note_on_c, 0, 68, 22
2, 167280, Note_on_c, 0, 68, 0
2, 167280, Note_on_c, 0, 73, 0
2, 167280, Note_on_c, 0, 64, 14
2, 167280, Note_on_c, 0, 71, 18
2, 167520, Note_on_c, 0, 71, 0
2, 167520, Note_on_c, 0, 64, 0
2, 167520, Note_on_c, 0, 63, 21
2, 167520, Note_on_c, 0, 68, 27
2, 167760, Note_on_c, 0, 68, 0
2, 167760, Note_on_c, 0, 63, 0
2, 167760, Note_on_c, 0, 64, 14
2, 167760, Note_on_c, 0, 71, 18
2, 168000, Note_on_c, 0, 71, 0
2, 168000, Note_on_c, 0, 64, 0
2, 168000, Note_on_c, 0, 68, 22
2, 168000, Note_on_c, 0, 73, 28
2, 168240, Note_on_c, 0, 73, 0
2, 168240, Note_on_c, 0, 68, 0
2, 168240, Note_on_c, 0, 64, 15
2, 168240, Note_on_c, 0, 71, 19
2, 168480, Note_on_c, 0, 71, 0
2, 168480, Note_on_c, 0, 64, 0
2, 168480, Note_on_c, 0, 68, 28
2, 168480, Note_on_c, 0, 63, 22
2, 168720, Note_on_c, 0, 63, 0
2, 168720, Note_on_c, 0, 68, 0
2, 168720, Note_on_c, 0, 64, 14
2, 168720, Note_on_c, 0, 71, 18
2, 168960, Note_on_c, 0, 71, 0
2, 168960, Note_on_c, 0, 64, 0
2, 168960, Note_on_c, 0, 68, 21
2, 168960, Note_on_c, 0, 73, 27
2, 169200, Note_on_c, 0, 73, 0
2, 169200, Note_on_c, 0, 68, 0
2, 169200, Note_on_c, 0, 64, 14
2, 169200, Note_on_c, 0, 71, 18
2, 169440, Note_on_c, 0, 71, 0
2, 169440, Note_on_c, 0, 64, 0
2, 169440, Note_on_c, 0, 63, 22
2, 169440, Note_on_c, 0, 68, 28
2, 169680, Note_on_c, 0, 68, 0
2, 169680, Note_on_c, 0, 63, 0
2, 169680, Note_on_c, 0, 64, 15
2, 169680, Note_on_c, 0, 71, 19
2, 169920, Note_on_c, 0, 71, 0
2, 169920, Note_on_c, 0, 64, 0
2, 169920, Note_on_c, 0, 68, 28
2, 169920, Note_on_c, 0, 63, 22
2, 170160, Note_on_c, 0, 63, 0
2, 170160, Note_on_c, 0, 68, 0
2, 171360, Note_on_c, 0, 63, 23
2, 171360, Note_on_c, 0, 68, 23
2, 171360, Note_on_c, 0, 71, 23
2, 171600, Note_on_c, 0, 71, 0
2, 171600, Note_on_c, 0, 68, 0
2, 171600, Note_on_c, 0, 63, 0
2, 173280, Note_on_c, 0, 64, 20
2, 173520, Note_on_c, 0, 64, 0
2, 173520, Note_on_c, 0, 68, 22
2, 173760, Note_on_c, 0, 68, 0
2, 173760, Note_on_c, 0, 76, 25
2, 174000, Note_on_c, 0, 76, 0
2, 174000, Note_on_c, 0, 80, 25
2, 174240, Note_on_c, 0, 80, 0
2, 174240, Note_on_c, 0, 88, 29
2, 174480, Note_on_c, 0, 88, 0
2, 175680, Note_on_c, 0, 100, 32
2, 175920, Note_on_c, 0, 100, 0
2, 175920, End_track
3, 0, Start_track
3, 0, Title_t, "Piano left"
3, 0, Program_c, 0, 0
3, 0, Note_on_c, 0, 64, 29
3, 120, Note_on_c, 0, 64, 0
3, 480, Note_on_c, 0, 64, 30
3, 600, Note_on_c, 0, 64, 0
3, 960, Note_on_c, 0, 64, 30
3, 1080, Note_on_c, 0, 64, 0
3, 1440, Note_on_c, 0, 64, 29
3, 1560, Note_on_c, 0, 64, 0
3, 1920, Note_on_c, 0, 64, 30
3, 2040, Note_on_c, 0, 64, 0
3, 2400, Note_on_c, 0, 64, 30
3, 2520, Note_on_c, 0, 64, 0
3, 3300, Note_on_c, 0, 63, 30
3, 3360, Note_on_c, 0, 63, 0
3, 3360, Note_on_c, 0, 68, 39
3, 3480, Note_on_c, 0, 68, 0
3, 3780, Note_on_c, 0, 68, 31
3, 3840, Note_on_c, 0, 68, 0
3, 3840, Note_on_c, 0, 73, 42
3, 3960, Note_on_c, 0, 73, 0
3, 4260, Note_on_c, 0, 61, 30
3, 4320, Note_on_c, 0, 61, 0
3, 4320, Note_on_c, 0, 66, 36
3, 5220, Note_on_c, 0, 63, 30
3, 5280, Note_on_c, 0, 63, 0
3, 5280, Note_on_c, 0, 66, 0
3, 5280, Note_on_c, 0, 68, 36
3, 5400, Note_on_c, 0, 68, 0
3, 5460, Note_on_c, 0, 68, 31
3, 5520, Note_on_c, 0, 68, 0
3, 5520, Note_on_c, 0, 73, 40
3, 5640, Note_on_c, 0, 73, 0
3, 5700, Note_on_c, 0, 61, 30
3, 5760, Note_on_c, 0, 61, 0
3, 5760, Note_on_c, 0, 66, 43
3, 5880, Note_on_c, 0, 66, 0
3, 6180, Note_on_c, 0, 63, 30
3, 6240, Note_on_c, 0, 63, 0
3, 6240, Note_on_c, 0, 68, 36
3, 6360, Note_on_c, 0, 68, 0
3, 6660, Note_on_c, 0, 56, 31
3, 6720, Note_on_c, 0, 56, 0
3, 6720, Note_on_c, 0, 61, 40
3, 6840, Note_on_c, 0, 61, 0
3, 7140, Note_on_c, 0, 61, 30
3, 7200, Note_on_c, 0, 66, 36
3, 8580, Note_on_c, 0, 63, 30
3, 8640, Note_on_c, 0, 66, 0
3, 8640, Note_on_c, 0, 61, 0
3, 8640, Note_on_c, 0, 68, 36
3, 10080, Note_on_c, 0, 68, 0
3, 10080, Note_on_c, 0, 63, 0
3, 10080, Note_on_c, 0, 40, 57
3, 10560, Note_on_c, 0, 40, 0
3, 10560, Note_on_c, 0, 64, 47
3, 10680, Note_on_c, 0, 64, 0
3, 11040, Note_on_c, 0, 64, 44
3, 11160, Note_on_c, 0, 64, 0
3, 11520, Note_on_c, 0, 64, 37
3, 11640, Note_on_c, 0, 64, 0
3, 11760, Note_on_c, 0, 64, 24
3, 11760, Note_on_c, 0, 71, 29
3, 11880, Note_on_c, 0, 71, 0
3, 11880, Note_on_c, 0, 64, 0
3, 12240, Note_on_c, 0, 64, 24
3, 12240, Note_on_c, 0, 71, 29
3, 12360, Note_on_c, 0, 71, 0
3, 12360, Note_on_c, 0, 64, 0
3, 12720, Note_on_c, 0, 64, 24
3, 12720, Note_on_c, 0, 71, 29
3, 12840, Note_on_c, 0, 71, 0
3, 12840, Note_on_c, 0, 64, 0
3, 13200, Note_on_c, 0, 64, 24
3, 13200, Note_on_c, 0, 71, 29
3, 13320, Note_on_c, 0, 71, 0
3, 13320, Note_on_c, 0, 64, 0
3, 13680, Note_on_c, 0, 64, 24
3, 13680, Note_on_c, 0, 71, 29
3, 13800, Note_on_c, 0, 71, 0
3, 13800, Note_on_c, 0, 64, 0
3, 14160, Note_on_c, 0, 64, 24
3, 14160, Note_on_c, 0, 71, 29
3, 14280, Note_on_c, 0, 71, 0
3, 14280, Note_on_c, 0, 64, 0
3, 14640, Note_on_c, 0, 64, 25
3, 14640, Note_on_c, 0, 71, 30
3, 14760, Note_on_c, 0, 71, 0
3, 14760, Note_on_c, 0, 64, 0
3, 15120, Note_on_c, 0, 64, 27
3, 15120, Note_on_c, 0, 71, 32
3, 15240, Note_on_c, 0, 71, 0
3, 15240, Note_on_c, 0, 64, 0
3, 15600, Note_on_c, 0, 64, 29
3, 15600, Note_on_c, 0, 71, 35
3, 15720, Note_on_c, 0, 71, 0
3, 15720, Note_on_c, 0, 64, 0
3, 16080, Note_on_c, 0, 64, 28
3, 16080, Note_on_c, 0, 71, 34
3, 16200, Note_on_c, 0, 71, 0
3, 16200, Note_on_c, 0, 64, 0
3, 16560, Note_on_c, 0, 64, 27
3, 16560, Note_on_c, 0, 71, 32
3, 16680, Note_on_c, 0, 71, 0
3, 16680, Note_on_c, 0, 64, 0
3, 17040, Note_on_c, 0, 64, 24
3, 17040, Note_on_c, 0, 71, 29
3, 17160, Note_on_c, 0, 71, 0
3, 17160, Note_on_c, 0, 64, 0
3, 17520, Note_on_c, 0, 64, 31
3, 17520, Note_on_c, 0, 71, 37
3, 17640, Note_on_c, 0, 71, 0
3, 17640, Note_on_c, 0, 64, 0
3, 18000, Note_on_c, 0, 64, 24
3, 18000, Note_on_c, 0, 71, 29
3, 18120, Note_on_c, 0, 71, 0
3, 18120, Note_on_c, 0, 64, 0
3, 18480, Note_on_c, 0, 64, 21
3, 18480, Note_on_c, 0, 71, 25
3, 18600, Note_on_c, 0, 71, 0
3, 18600, Note_on_c, 0, 64, 0
3, 18660, Note_on_c, 0, 47, 49
3, 18720, Note_on_c, 0, 54, 57
3, 18960, Note_on_c, 0, 54, 0
3, 19060, Note_on_c, 0, 47, 0
3, 19200, Note_on_c, 0, 59, 47
3, 19320, Note_on_c, 0, 59, 0
3, 19680, Note_on_c, 0, 59, 44
3, 19800, Note_on_c, 0, 59, 0
3, 20160, Note_on_c, 0, 59, 47
3, 20400, Note_on_c, 0, 59, 0
3, 20640, Note_on_c, 0, 61, 45
3, 20880, Note_on_c, 0, 61, 0
3, 21120, Note_on_c, 0, 64, 45
3, 21360, Note_on_c, 0, 64, 0
3, 21600, Note_on_c, 0, 63, 47
3, 21780, Note_on_c, 0, 63, 0
3, 22560, Note_on_c, 0, 62, 41
3, 22740, Note_on_c, 0, 62, 0
3, 23040, Note_on_c, 0, 61, 47
3, 23040, Note_on_c, 0, 56, 47
3, 23220, Note_on_c, 0, 61, 0
3, 23520, Note_on_c, 0, 61, 30
3, 23700, Note_on_c, 0, 61, 0
3, 24000, Note_on_c, 0, 61, 30
3, 24180, Note_on_c, 0, 61, 0
3, 24480, Note_on_c, 0, 61, 30
3, 24660, Note_on_c, 0, 61, 0
3, 24960, Note_on_c, 0, 63, 50
3, 25140, Note_on_c, 0, 63, 0
3, 25440, Note_on_c, 0, 66, 50
3, 25620, Note_on_c, 0, 66, 0
3, 25920, Note_on_c, 0, 56, 0
3, 25920, Note_on_c, 0, 65, 47
3, 26880, Note_on_c, 0, 65, 0
3, 26880, Note_on_c, 0, 64, 41
3, 27120, Note_on_c, 0, 64, 0
3, 27360, Note_on_c, 0, 63, 47
3, 27360, Note_on_c, 0, 56, 47
3, 27540, Note_on_c, 0, 63, 0
3, 28320, Note_on_c, 0, 61, 46
3, 28560, Note_on_c, 0, 61, 0
3, 28800, Note_on_c, 0, 65, 31
3, 28980, Note_on_c, 0, 65, 0
3, 29280, Note_on_c, 0, 61, 47
3, 29520, Note_on_c, 0, 61, 0
3, 29760, Note_on_c, 0, 65, 48
3, 29940, Note_on_c, 0, 65, 0
3, 30240, Note_on_c, 0, 56, 0
3, 30240, Note_on_c, 0, 63, 51
3, 30240, Note_on_c, 0, 56, 51
3, 30420, Note_on_c, 0, 63, 0
3, 31200, Note_on_c, 0, 61, 53
3, 31440, Note_on_c, 0, 61, 0
3, 31680, Note_on_c, 0, 65, 35
3, 31860, Note_on_c, 0, 65, 0
3, 32160, Note_on_c, 0, 61, 54
3, 32400, Note_on_c, 0, 61, 0
3, 32640, Note_on_c, 0, 65, 54
3, 32820, Note_on_c, 0, 65, 0
3, 33120, Note_on_c, 0, 56, 0
3, 33120, Note_on_c, 0, 68, 57
3, 34080, Note_on_c, 0, 68, 0
3, 34080, Note_on_c, 0, 67, 49
3, 34560, Note_on_c, 0, 67, 0
3, 34560, Note_on_c, 0, 66, 50
3, 35520, Note_on_c, 0, 66, 0
3, 35520, Note_on_c, 0, 65, 46
3, 36000, Note_on_c, 0, 65, 0
3, 36000, Note_on_c, 0, 68, 57
3, 36480, Note_on_c, 0, 75, 49
3, 36720, Note_on_c, 0, 75, 0
3, 36960, Note_on_c, 0, 68, 0
3, 36960, Note_on_c, 0, 67, 49
3, 37440, Note_on_c, 0, 67, 0
3, 37440, Note_on_c, 0, 66, 50
3, 37920, Note_on_c, 0, 80, 49
3, 38160, Note_on_c, 0, 80, 0
3, 38400, Note_on_c, 0, 66, 0
3, 38400, Note_on_c, 0, 65, 46
3, 38880, Note_on_c, 0, 65, 0
3, 38880, Note_on_c, 0, 68, 42
3, 39360, Note_on_c, 0, 74, 36
3, 39600, Note_on_c, 0, 74, 0
3, 39840, Note_on_c, 0, 68, 0
3, 39840, Note_on_c, 0, 67, 36
3, 40320, Note_on_c, 0, 67, 0
3, 40320, Note_on_c, 0, 66, 41
3, 40800, Note_on_c, 0, 75, 31
3, 41040, Note_on_c, 0, 75, 0
3, 41280, Note_on_c, 0, 66, 0
3, 41280, Note_on_c, 0, 65, 25
3, 41760, Note_on_c, 0, 65, 0
3, 41760, Note_on_c, 0, 40, 25
3, 41760, Note_on_c, 0, 52, 33
3, 42000, Note_on_c, 0, 52, 0
3, 42000, Note_on_c, 0, 40, 0
3, 42240, Note_on_c, 0, 64, 20
3, 42240, Note_on_c, 0, 71, 24
3, 42240, Note_on_c, 0, 63, 29
3, 42420, Note_on_c, 0, 71, 0
3, 42420, Note_on_c, 0, 64, 0
3, 42480, Note_on_c, 0, 64, 20
3, 42480, Note_on_c, 0, 71, 24
3, 42840, Note_on_c, 0, 71, 0
3, 42840, Note_on_c, 0, 64, 0
3, 42960, Note_on_c, 0, 64, 20
3, 42960, Note_on_c, 0, 71, 24
3, 43140, Note_on_c, 0, 71, 0
3, 43140, Note_on_c, 0, 64, 0
3, 43200, Note_on_c, 0, 63, 0
3, 43200, Note_on_c, 0, 64, 24
3, 43200, Note_on_c, 0, 69, 29
3, 43200, Note_on_c, 0, 61, 28
3, 43380, Note_on_c, 0, 69, 0
3, 43380, Note_on_c, 0, 64, 0
3, 43440, Note_on_c, 0, 64, 20
3, 43440, Note_on_c, 0, 69, 24
3, 43800, Note_on_c, 0, 69, 0
3, 43800, Note_on_c, 0, 64, 0
3, 43920, Note_on_c, 0, 64, 20
3, 43920, Note_on_c, 0, 69, 24
3, 44100, Note_on_c, 0, 69, 0
3, 44100, Note_on_c, 0, 64, 0
3, 44160, Note_on_c, 0, 61, 0
3, 44160, Note_on_c, 0, 64, 24
3, 44160, Note_on_c, 0, 71, 29
3, 44160, Note_on_c, 0, 63, 21
3, 44640, Note_on_c, 0, 63, 0
3, 44640, Note_on_c, 0, 71, 0
3, 44640, Note_on_c, 0, 64, 0
3, 44640, Note_on_c, 0, 64, 24
3, 44640, Note_on_c, 0, 69, 29
3, 44640, Note_on_c, 0, 61, 28
3, 45120, Note_on_c, 0, 61, 0
3, 45120, Note_on_c, 0, 69, 0
3, 45120, Note_on_c, 0, 64, 0
3, 45120, Note_on_c, 0, 64, 20
3, 45120, Note_on_c, 0, 71, 24
3, 45120, Note_on_c, 0, 63, 23
3, 45300, Note_on_c, 0, 71, 0
3, 45300, Note_on_c, 0, 64, 0
3, 45360, Note_on_c, 0, 64, 20
3, 45360, Note_on_c, 0, 71, 24
3, 45720, Note_on_c, 0, 71, 0
3, 45720, Note_on_c, 0, 64, 0
3, 45840, Note_on_c, 0, 64, 20
3, 45840, Note_on_c, 0, 71, 24
3, 46020, Note_on_c, 0, 71, 0
3, 46020, Note_on_c, 0, 64, 0
3, 46080, Note_on_c, 0, 63, 0
3, 46080, Note_on_c, 0, 64, 24
3, 46080, Note_on_c, 0, 69, 29
3, 46080, Note_on_c, 0, 61, 29
3, 46260, Note_on_c, 0, 69, 0
3, 46260, Note_on_c, 0, 64, 0
3, 46320, Note_on_c, 0, 64, 20
3, 46320, Note_on_c, 0, 69, 24
3, 46680, Note_on_c, 0, 69, 0
3, 46680, Note_on_c, 0, 64, 0
3, 46800, Note_on_c, 0, 64, 20
3, 46800, Note_on_c, 0, 69, 24
3, 47160, Note_on_c, 0, 69, 0
3, 47160, Note_on_c, 0, 64, 0
3, 47280, Note_on_c, 0, 64, 20
3, 47280, Note_on_c, 0, 69, 24
3, 47460, Note_on_c, 0, 69, 0
3, 47460, Note_on_c, 0, 64, 0
3, 47520, Note_on_c, 0, 61, 0
3, 47520, Note_on_c, 0, 64, 20
3, 47520, Note_on_c, 0, 71, 24
3, 47520, Note_on_c, 0, 63, 21
3, 48000, Note_on_c, 0, 63, 0
3, 48000, Note_on_c, 0, 71, 0
3, 48000, Note_on_c, 0, 64, 0
3, 48000, Note_on_c, 0, 64, 20
3, 48000, Note_on_c, 0, 69, 24
3, 48000, Note_on_c, 0, 61, 18
3, 48480, Note_on_c, 0, 61, 0
3, 48480, Note_on_c, 0, 69, 0
3, 48480, Note_on_c, 0, 64, 0
3, 48480, Note_on_c, 0, 64, 20
3, 48480, Note_on_c, 0, 71, 24
3, 48480, Note_on_c, 0, 63, 21
3, 48960, Note_on_c, 0, 63, 0
3, 48960, Note_on_c, 0, 71, 0
3, 48960, Note_on_c, 0, 64, 0
3, 48960, Note_on_c, 0, 61, 23
3, 48960, Note_on_c, 0, 59, 23
3, 49176, Note_on_c, 0, 61, 0
3, 49200, Note_on_c, 0, 61, 23
3, 49632, Note_on_c, 0, 61, 0
3, 49680, Note_on_c, 0, 61, 23
3, 50112, Note_on_c, 0, 61, 0
3, 50160, Note_on_c, 0, 61, 23
3, 50400, Note_on_c, 0, 59, 0
3, 50400, Note_on_c, 0, 58, 23
3, 50592, Note_on_c, 0, 61, 0
3, 50640, Note_on_c, 0, 61, 23
3, 51072, Note_on_c, 0, 61, 0
3, 51120, Note_on_c, 0, 61, 23
3, 51552, Note_on_c, 0, 61, 0
3, 51600, Note_on_c, 0, 61, 23
3, 51696, Note_on_c, 0, 58, 0
3, 51840, Note_on_c, 0, 56, 23
3, 52032, Note_on_c, 0, 61, 0
3, 52080, Note_on_c, 0, 61, 23
3, 52512, Note_on_c, 0, 61, 0
3, 52560, Note_on_c, 0, 61, 23
3, 52992, Note_on_c, 0, 61, 0
3, 53040, Note_on_c, 0, 61, 23
3, 53280, Note_on_c, 0, 56, 0
3, 53280, Note_on_c, 0, 55, 23
3, 53472, Note_on_c, 0, 61, 0
3, 53520, Note_on_c, 0, 61, 23
3, 53952, Note_on_c, 0, 61, 0
3, 54000, Note_on_c, 0, 61, 23
3, 54432, Note_on_c, 0, 61, 0
3, 54480, Note_on_c, 0, 61, 23
3, 54720, Note_on_c, 0, 55, 0
3, 54720, Note_on_c, 0, 54, 23
3, 55200, Note_on_c, 0, 61, 0
3, 55200, Note_on_c, 0, 63, 35
3, 55380, Note_on_c, 0, 63, 0
3, 55440, Note_on_c, 0, 61, 34
3, 55620, Note_on_c, 0, 61, 0
3, 55680, Note_on_c, 0, 63, 38
3, 56160, Note_on_c, 0, 63, 0
3, 56160, Note_on_c, 0, 61, 40
3, 56640, Note_on_c, 0, 61, 0
3, 56640, Note_on_c, 0, 63, 31
3, 56820, Note_on_c, 0, 63, 0
3, 56880, Note_on_c, 0, 61, 26
3, 57060, Note_on_c, 0, 61, 0
3, 57120, Note_on_c, 0, 63, 32
3, 57600, Note_on_c, 0, 63, 0
3, 57600, Note_on_c, 0, 54, 0
3, 57600, Note_on_c, 0, 54, 23
3, 57600, Note_on_c, 0, 61, 37
3, 58080, Note_on_c, 0, 61, 0
3, 58080, Note_on_c, 0, 63, 26
3, 58260, Note_on_c, 0, 63, 0
3, 58320, Note_on_c, 0, 61, 27
3, 58500, Note_on_c, 0, 61, 0
3, 58560, Note_on_c, 0, 63, 34
3, 59040, Note_on_c, 0, 63, 0
3, 59040, Note_on_c, 0, 61, 37
3, 59520, Note_on_c, 0, 61, 0
3, 59520, Note_on_c, 0, 54, 0
3, 59520, Note_on_c, 0, 51, 23
3, 60000, Note_on_c, 0, 51, 0
3, 60000, Note_on_c, 0, 49, 23
3, 60480, Note_on_c, 0, 49, 0
3, 60480, Note_on_c, 0, 47, 40
3, 60720, Note_on_c, 0, 47, 0
3, 60960, Note_on_c, 0, 59, 33
3, 61080, Note_on_c, 0, 59, 0
3, 61440, Note_on_c, 0, 59, 33
3, 61560, Note_on_c, 0, 59, 0
3, 61920, Note_on_c, 0, 59, 33
3, 62040, Note_on_c, 0, 59, 0
3, 62400, Note_on_c, 0, 59, 33
3, 62520, Note_on_c, 0, 59, 0
3, 62880, Note_on_c, 0, 59, 33
3, 63000, Note_on_c, 0, 59, 0
3, 63360, Note_on_c, 0, 61, 39
3, 63360, Note_on_c, 0, 59, 39
3, 64080, Note_on_c, 0, 61, 0
3, 64080, Note_on_c, 0, 62, 27
3, 64320, Note_on_c, 0, 62, 0
3, 64320, Note_on_c, 0, 64, 35
3, 64800, Note_on_c, 0, 64, 0
3, 64800, Note_on_c, 0, 61, 44
3, 65280, Note_on_c, 0, 61, 0
3, 65280, Note_on_c, 0, 62, 34
3, 65760, Note_on_c, 0, 62, 0
3, 65760, Note_on_c, 0, 64, 34
3, 66240, Note_on_c, 0, 64, 0
3, 66240, Note_on_c, 0, 59, 0
3, 66240, Note_on_c, 0, 65, 45
3, 66240, Note_on_c, 0, 59, 51
3, 67200, Note_on_c, 0, 65, 0
3, 67200, Note_on_c, 0, 64, 39
3, 68160, Note_on_c, 0, 64, 0
3, 68160, Note_on_c, 0, 62, 32
3, 69120, Note_on_c, 0, 62, 0
3, 69120, Note_on_c, 0, 59, 0
3, 69120, Note_on_c, 0, 61, 39
3, 69120, Note_on_c, 0, 59, 39
3, 69840, Note_on_c, 0, 61, 0
3, 69840, Note_on_c, 0, 62, 27
3, 70080, Note_on_c, 0, 62, 0
3, 70080, Note_on_c, 0, 64, 35
3, 70560, Note_on_c, 0, 64, 0
3, 70560, Note_on_c, 0, 61, 44
3, 71040, Note_on_c, 0, 61, 0
3, 71040, Note_on_c, 0, 62, 34
3, 71520, Note_on_c, 0, 62, 0
3, 71520, Note_on_c, 0, 64, 34
3, 72000, Note_on_c, 0, 64, 0
3, 72000, Note_on_c, 0, 59, 0
3, 72000, Note_on_c, 0, 65, 45
3, 72000, Note_on_c, 0, 55, 51
3, 72960, Note_on_c, 0, 65, 0
3, 72960, Note_on_c, 0, 64, 39
3, 73920, Note_on_c, 0, 64, 0
3, 73920, Note_on_c, 0, 62, 32
3, 74880, Note_on_c, 0, 62, 0
3, 74880, Note_on_c, 0, 55, 0
3, 74880, Note_on_c, 0, 62, 39
3, 74880, Note_on_c, 0, 58, 39
3, 75600, Note_on_c, 0, 62, 0
3, 75600, Note_on_c, 0, 64, 27
3, 75840, Note_on_c, 0, 64, 0
3, 75840, Note_on_c, 0, 62, 35
3, 76320, Note_on_c, 0, 62, 0
3, 76320, Note_on_c, 0, 61, 44
3, 77760, Note_on_c, 0, 61, 0
3, 77760, Note_on_c, 0, 58, 0
3, 77760, Note_on_c, 0, 62, 39
3, 77760, Note_on_c, 0, 58, 39
3, 78480, Note_on_c, 0, 62, 0
3, 78480, Note_on_c, 0, 64, 35
3, 78720, Note_on_c, 0, 64, 0
3, 78720, Note_on_c, 0, 62, 46
3, 79200, Note_on_c, 0, 62, 0
3, 79200, Note_on_c, 0, 61, 42
3, 79680, Note_on_c, 0, 61, 0
3, 79680, Note_on_c, 0, 62, 47
3, 80160, Note_on_c, 0, 62, 0
3, 80160, Note_on_c, 0, 57, 51
3, 80160, Note_on_c, 0, 64, 51
3, 80640, Note_on_c, 0, 64, 0
3, 80640, Note_on_c, 0, 57, 0
3, 80640, Note_on_c, 0, 58, 0
3, 80640, Note_on_c, 0, 65, 39
3, 80640, Note_on_c, 0, 61, 39
3, 81360, Note_on_c, 0, 65, 0
3, 81360, Note_on_c, 0, 67, 27
3, 81600, Note_on_c, 0, 67, 0
3, 81600, Note_on_c, 0, 65, 35
3, 82080, Note_on_c, 0, 65, 0
3, 82080, Note_on_c, 0, 64, 44
3, 83520, Note_on_c, 0, 64, 0
3, 83520, Note_on_c, 0, 61, 0
3, 83520, Note_on_c, 0, 65, 39
3, 83520, Note_on_c, 0, 61, 39
3, 84240, Note_on_c, 0, 65, 0
3, 84240, Note_on_c, 0, 67, 35
3, 84480, Note_on_c, 0, 67, 0
3, 84480, Note_on_c, 0, 65, 46
3, 84960, Note_on_c, 0, 65, 0
3, 84960, Note_on_c, 0, 64, 42
3, 85440, Note_on_c, 0, 64, 0
3, 85440, Note_on_c, 0, 65, 47
3, 85920, Note_on_c, 0, 65, 0
3, 85920, Note_on_c, 0, 60, 51
3, 85920, Note_on_c, 0, 67, 51
3, 86400, Note_on_c, 0, 67, 0
3, 86400, Note_on_c, 0, 60, 0
3, 86400, Note_on_c, 0, 61, 0
3, 86400, Note_on_c, 0, 65, 35
3, 86520, Note_on_c, 0, 65, 0
3, 86640, Note_on_c, 0, 68, 33
3, 86760, Note_on_c, 0, 68, 0
3, 89760, Note_on_c, 0, 60, 36
3, 89880, Note_on_c, 0, 60, 0
3, 90240, Note_on_c, 0, 58, 28
3, 90240, Note_on_c, 0, 62, 33
3, 90360, Note_on_c, 0, 62, 0
3, 90360, Note_on_c, 0, 58, 0
3, 91200, Note_on_c, 0, 56, 19
3, 91200, Note_on_c, 0, 60, 28
3, 91320, Note_on_c, 0, 60, 0
3, 91320, Note_on_c, 0, 56, 0
3, 91680, Note_on_c, 0, 55, 16
3, 91680, Note_on_c, 0, 58, 24
3, 91800, Note_on_c, 0, 58, 0
3, 91800, Note_on_c, 0, 55, 0
3, 94020, Note_on_c, 0, 56, 26
3, 94080, Note_on_c, 0, 58, 33
3, 94200, Note_on_c, 0, 58, 0
3, 94200, Note_on_c, 0, 56, 0
3, 94500, Note_on_c, 0, 56, 24
3, 94560, Note_on_c, 0, 58, 32
3, 94680, Note_on_c, 0, 58, 0
3, 94680, Note_on_c, 0, 56, 0
3, 94980, Note_on_c, 0, 56, 24
3, 95040, Note_on_c, 0, 58, 31
3, 95160, Note_on_c, 0, 58, 0
3, 95160, Note_on_c, 0, 56, 0
3, 95460, Note_on_c, 0, 56, 24
3, 95520, Note_on_c, 0, 58, 30
3, 95640, Note_on_c, 0, 58, 0
3, 95640, Note_on_c, 0, 56, 0
3, 95940, Note_on_c, 0, 56, 22
3, 96000, Note_on_c, 0, 58, 29
3, 96120, Note_on_c, 0, 58, 0
3, 96120, Note_on_c, 0, 56, 0
3, 96420, Note_on_c, 0, 56, 22
3, 96480, Note_on_c, 0, 58, 29
3, 96600, Note_on_c, 0, 58, 0
3, 96600, Note_on_c, 0, 56, 0
3, 96900, Note_on_c, 0, 56, 22
3, 96960, Note_on_c, 0, 58, 28
3, 97080, Note_on_c, 0, 58, 0
3, 97080, Note_on_c, 0, 56, 0
3, 97380, Note_on_c, 0, 56, 20
3, 97440, Note_on_c, 0, 58, 27
3, 97560, Note_on_c, 0, 58, 0
3, 97560, Note_on_c, 0, 56, 0
3, 97920, Note_on_c, 0, 56, 22
3, 97920, Note_on_c, 0, 58, 29
3, 98040, Note_on_c, 0, 58, 0
3, 98040, Note_on_c, 0, 56, 0
3, 98400, Note_on_c, 0, 56, 20
3, 98400, Note_on_c, 0, 58, 27
3, 98520, Note_on_c, 0, 58, 0
3, 98520, Note_on_c, 0, 56, 0
3, 98820, Note_on_c, 0, 56, 20
3, 98880, Note_on_c, 0, 58, 27
3, 99000, Note_on_c, 0, 58, 0
3, 99000, Note_on_c, 0, 56, 0
3, 99360, Note_on_c, 0, 56, 22
3, 99360, Note_on_c, 0, 58, 29
3, 99480, Note_on_c, 0, 58, 0
3, 99480, Note_on_c, 0, 56, 0
3, 99840, Note_on_c, 0, 56, 20
3, 99840, Note_on_c, 0, 58, 27
3, 99960, Note_on_c, 0, 58, 0
3, 99960, Note_on_c, 0, 56, 0
3, 100260, Note_on_c, 0, 56, 20
3, 100320, Note_on_c, 0, 58, 27
3, 100440, Note_on_c, 0, 58, 0
3, 100440, Note_on_c, 0, 56, 0
3, 100800, Note_on_c, 0, 56, 22
3, 100800, Note_on_c, 0, 58, 29
3, 100920, Note_on_c, 0, 58, 0
3, 100920, Note_on_c, 0, 56, 0
3, 101280, Note_on_c, 0, 56, 20
3, 101280, Note_on_c, 0, 58, 27
3, 101400, Note_on_c, 0, 58, 0
3, 101400, Note_on_c, 0, 56, 0
3, 101760, Note_on_c, 0, 56, 20
3, 101760, Note_on_c, 0, 58, 27
3, 101880, Note_on_c, 0, 58, 0
3, 101880, Note_on_c, 0, 56, 0
3, 102240, Note_on_c, 0, 56, 22
3, 102240, Note_on_c, 0, 58, 29
3, 102360, Note_on_c, 0, 58, 0
3, 102360, Note_on_c, 0, 56, 0
3, 102720, Note_on_c, 0, 56, 20
3, 102720, Note_on_c, 0, 58, 27
3, 102840, Note_on_c, 0, 58, 0
3, 102840, Note_on_c, 0, 56, 0
3, 103140, Note_on_c, 0, 56, 25
3, 103200, Note_on_c, 0, 58, 32
3, 103320, Note_on_c, 0, 58, 0
3, 103320, Note_on_c, 0, 56, 0
3, 103680, Note_on_c, 0, 58, 22
3, 103680, Note_on_c, 0, 60, 29
3, 103800, Note_on_c, 0, 60, 0
3, 103800, Note_on_c, 0, 58, 0
3, 104160, Note_on_c, 0, 58, 20
3, 104160, Note_on_c, 0, 60, 27
3, 104280, Note_on_c, 0, 60, 0
3, 104280, Note_on_c, 0, 58, 0
3, 104640, Note_on_c, 0, 58, 20
3, 104640, Note_on_c, 0, 60, 27
3, 104760, Note_on_c, 0, 60, 0
3, 104760, Note_on_c, 0, 58, 0
3, 105120, Note_on_c, 0, 58, 22
3, 105120, Note_on_c, 0, 60, 29
3, 105240, Note_on_c, 0, 60, 0
3, 105240, Note_on_c, 0, 58, 0
3, 105600, Note_on_c, 0, 58, 20
3, 105600, Note_on_c, 0, 60, 27
3, 105720, Note_on_c, 0, 60, 0
3, 105720, Note_on_c, 0, 58, 0
3, 106080, Note_on_c, 0, 60, 27
3, 106080, Note_on_c, 0, 58, 20
3, 106200, Note_on_c, 0, 58, 0
3, 106200, Note_on_c, 0, 60, 0
3, 106560, Note_on_c, 0, 58, 22
3, 106560, Note_on_c, 0, 60, 29
3, 106680, Note_on_c, 0, 60, 0
3, 106680, Note_on_c, 0, 58, 0
3, 107040, Note_on_c, 0, 58, 20
3, 107040, Note_on_c, 0, 60, 27
3, 107160, Note_on_c, 0, 60, 0
3, 107160, Note_on_c, 0, 58, 0
3, 107520, Note_on_c, 0, 60, 27
3, 107520, Note_on_c, 0, 58, 20
3, 107640, Note_on_c, 0, 58, 0
3, 107640, Note_on_c, 0, 60, 0
3, 108000, Note_on_c, 0, 58, 22
3, 108000, Note_on_c, 0, 60, 29
3, 108120, Note_on_c, 0, 60, 0
3, 108120, Note_on_c, 0, 58, 0
3, 108477, Note_on_c, 0, 60, 27
3, 108480, Note_on_c, 0, 58, 20
3, 108597, Note_on_c, 0, 60, 0
3, 108600, Note_on_c, 0, 58, 0
3, 108900, Note_on_c, 0, 58, 25
3, 108960, Note_on_c, 0, 60, 32
3, 109080, Note_on_c, 0, 60, 0
3, 109080, Note_on_c, 0, 58, 0
3, 109917, Note_on_c, 0, 60, 27
3, 109920, Note_on_c, 0, 58, 20
3, 110037, Note_on_c, 0, 60, 0
3, 110040, Note_on_c, 0, 58, 0
3, 110400, Note_on_c, 0, 61, 22
3, 110400, Note_on_c, 0, 63, 28
3, 110520, Note_on_c, 0, 63, 0
3, 110520, Note_on_c, 0, 61, 0
3, 110820, Note_on_c, 0, 63, 25
3, 110880, Note_on_c, 0, 66, 32
3, 111000, Note_on_c, 0, 66, 0
3, 111000, Note_on_c, 0, 63, 0
3, 111360, Note_on_c, 0, 61, 32
3, 111480, Note_on_c, 0, 61, 0
3, 111840, Note_on_c, 0, 54, 32
3, 111960, Note_on_c, 0, 54, 0
3, 112800, Note_on_c, 0, 60, 28
3, 112800, Note_on_c, 0, 58, 21
3, 112920, Note_on_c, 0, 58, 0
3, 112920, Note_on_c, 0, 60, 0
3, 113280, Note_on_c, 0, 63, 30
3, 113280, Note_on_c, 0, 61, 22
3, 113400, Note_on_c, 0, 61, 0
3, 113400, Note_on_c, 0, 63, 0
3, 113700, Note_on_c, 0, 63, 25
3, 113760, Note_on_c, 0, 66, 32
3, 113880, Note_on_c, 0, 66, 0
3, 113880, Note_on_c, 0, 63, 0
3, 114240, Note_on_c, 0, 61, 32
3, 114360, Note_on_c, 0, 61, 0
3, 114720, Note_on_c, 0, 54, 32
3, 114840, Note_on_c, 0, 54, 0
3, 115140, Note_on_c, 0, 63, 25
3, 115200, Note_on_c, 0, 66, 32
3, 115320, Note_on_c, 0, 66, 0
3, 115320, Note_on_c, 0, 63, 0
3, 115680, Note_on_c, 0, 61, 32
3, 115800, Note_on_c, 0, 61, 0
3, 116160, Note_on_c, 0, 54, 32
3, 116280, Note_on_c, 0, 54, 0
3, 116580, Note_on_c, 0, 63, 22
3, 116640, Note_on_c, 0, 66, 28
3, 116760, Note_on_c, 0, 66, 0
3, 116760, Note_on_c, 0, 63, 0
3, 117120, Note_on_c, 0, 61, 28
3, 117240, Note_on_c, 0, 61, 0
3, 117600, Note_on_c, 0, 54, 28
3, 117720, Note_on_c, 0, 54, 0
3, 118080, Note_on_c, 0, 64, 25
3, 118200, Note_on_c, 0, 64, 0
3, 118560, Note_on_c, 0, 61, 25
3, 118680, Note_on_c, 0, 61, 0
3, 119040, Note_on_c, 0, 54, 25
3, 119160, Note_on_c, 0, 54, 0
3, 119460, Note_on_c, 0, 64, 19
3, 119490, Note_on_c, 0, 66, 16
3, 119520, Note_on_c, 0, 69, 19
3, 119640, Note_on_c, 0, 69, 0
3, 119640, Note_on_c, 0, 66, 0
3, 119640, Note_on_c, 0, 64, 0
3, 119940, Note_on_c, 0, 64, 16
3, 119970, Note_on_c, 0, 66, 16
3, 120000, Note_on_c, 0, 69, 19
3, 120120, Note_on_c, 0, 69, 0
3, 120120, Note_on_c, 0, 66, 0
3, 120120, Note_on_c, 0, 64, 0
3, 120420, Note_on_c, 0, 64, 16
3, 120450, Note_on_c, 0, 66, 16
3, 120480, Note_on_c, 0, 69, 19
3, 120600, Note_on_c, 0, 69, 0
3, 120600, Note_on_c, 0, 66, 0
3, 120600, Note_on_c, 0, 64, 0
3, 120900, Note_on_c, 0, 64, 16
3, 120930, Note_on_c, 0, 66, 16
3, 120960, Note_on_c, 0, 69, 19
3, 121080, Note_on_c, 0, 69, 0
3, 121080, Note_on_c, 0, 66, 0
3, 121080, Note_on_c, 0, 64, 0
3, 121380, Note_on_c, 0, 64, 16
3, 121410, Note_on_c, 0, 66, 16
3, 121440, Note_on_c, 0, 69, 19
3, 121560, Note_on_c, 0, 69, 0
3, 121560, Note_on_c, 0, 66, 0
3, 121560, Note_on_c, 0, 64, 0
3, 121860, Note_on_c, 0, 64, 16
3, 121890, Note_on_c, 0, 66, 16
3, 121920, Note_on_c, 0, 69, 19
3, 122040, Note_on_c, 0, 69, 0
3, 122040, Note_on_c, 0, 66, 0
3, 122040, Note_on_c, 0, 64, 0
3, 122400, Note_on_c, 0, 64, 16
3, 122400, Note_on_c, 0, 66, 16
3, 122400, Note_on_c, 0, 69, 19
3, 122520, Note_on_c, 0, 69, 0
3, 122520, Note_on_c, 0, 66, 0
3, 122520, Note_on_c, 0, 64, 0
3, 122880, Note_on_c, 0, 64, 16
3, 122880, Note_on_c, 0, 66, 16
3, 122880, Note_on_c, 0, 69, 19
3, 123000, Note_on_c, 0, 69, 0
3, 123000, Note_on_c, 0, 66, 0
3, 123000, Note_on_c, 0, 64, 0
3, 123360, Note_on_c, 0, 64, 16
3, 123360, Note_on_c, 0, 66, 16
3, 123360, Note_on_c, 0, 69, 19
3, 123480, Note_on_c, 0, 69, 0
3, 123480, Note_on_c, 0, 66, 0
3, 123480, Note_on_c, 0, 64, 0
3, 123840, Note_on_c, 0, 63, 16
3, 123840, Note_on_c, 0, 66, 16
3, 123840, Note_on_c, 0, 69, 19
3, 123960, Note_on_c, 0, 69, 0
3, 123960, Note_on_c, 0, 66, 0
3, 123960, Note_on_c, 0, 63, 0
3, 124320, Note_on_c, 0, 61, 17
3, 124320, Note_on_c, 0, 66, 17
3, 124320, Note_on_c, 0, 69, 20
3, 124440, Note_on_c, 0, 69, 0
3, 124440, Note_on_c, 0, 66, 0
3, 124440, Note_on_c, 0, 61, 0
3, 124800, Note_on_c, 0, 60, 17
3, 124800, Note_on_c, 0, 66, 17
3, 124800, Note_on_c, 0, 69, 21
3, 124920, Note_on_c, 0, 69, 0
3, 124920, Note_on_c, 0, 66, 0
3, 124920, Note_on_c, 0, 60, 0
3, 125280, Note_on_c, 0, 59, 16
3, 125280, Note_on_c, 0, 61, 16
3, 125280, Note_on_c, 0, 65, 19
3, 125400, Note_on_c, 0, 65, 0
3, 125400, Note_on_c, 0, 61, 0
3, 125400, Note_on_c, 0, 59, 0
3, 125760, Note_on_c, 0, 59, 16
3, 125760, Note_on_c, 0, 61, 16
3, 125760, Note_on_c, 0, 65, 19
3, 125880, Note_on_c, 0, 65, 0
3, 125880, Note_on_c, 0, 61, 0
3, 125880, Note_on_c, 0, 59, 0
3, 126240, Note_on_c, 0, 59, 16
3, 126240, Note_on_c, 0, 61, 16
3, 126240, Note_on_c, 0, 65, 19
3, 126360, Note_on_c, 0, 65, 0
3, 126360, Note_on_c, 0, 61, 0
3, 126360, Note_on_c, 0, 59, 0
3, 126720, Note_on_c, 0, 58, 16
3, 126720, Note_on_c, 0, 61, 16
3, 126720, Note_on_c, 0, 64, 19
3, 126840, Note_on_c, 0, 64, 0
3, 126840, Note_on_c, 0, 61, 0
3, 126840, Note_on_c, 0, 58, 0
3, 127200, Note_on_c, 0, 56, 14
3, 127200, Note_on_c, 0, 61, 14
3, 127200, Note_on_c, 0, 64, 17
3, 127320, Note_on_c, 0, 64, 0
3, 127320, Note_on_c, 0, 61, 0
3, 127320, Note_on_c, 0, 56, 0
3, 127680, Note_on_c, 0, 55, 13
3, 127680, Note_on_c, 0, 61, 13
3, 127680, Note_on_c, 0, 64, 17
3, 127800, Note_on_c, 0, 64, 0
3, 127800, Note_on_c, 0, 61, 0
3, 127800, Note_on_c, 0, 55, 0
3, 128120, Note_on_c, 0, 54, 57
3, 128130, Note_on_c, 0, 58, 58
3, 128280, Note_on_c, 0, 58, 0
3, 128280, Note_on_c, 0, 54, 0
3, 128600, Note_on_c, 0, 54, 57
3, 128610, Note_on_c, 0, 58, 58
3, 128760, Note_on_c, 0, 58, 0
3, 128760, Note_on_c, 0, 54, 0
3, 129080, Note_on_c, 0, 54, 57
3, 129090, Note_on_c, 0, 58, 58
3, 129240, Note_on_c, 0, 58, 0
3, 129240, Note_on_c, 0, 54, 0
3, 129560, Note_on_c, 0, 54, 55
3, 129570, Note_on_c, 0, 58, 55
3, 129720, Note_on_c, 0, 58, 0
3, 129720, Note_on_c, 0, 54, 0
3, 130040, Note_on_c, 0, 54, 52
3, 130050, Note_on_c, 0, 58, 53
3, 130200, Note_on_c, 0, 58, 0
3, 130200, Note_on_c, 0, 54, 0
3, 130520, Note_on_c, 0, 54, 49
3, 130530, Note_on_c, 0, 58, 50
3, 130680, Note_on_c, 0, 58, 0
3, 130680, Note_on_c, 0, 54, 0
3, 131000, Note_on_c, 0, 54, 32
3, 131010, Note_on_c, 0, 57, 33
3, 131160, Note_on_c, 0, 57, 0
3, 131160, Note_on_c, 0, 54, 0
3, 131480, Note_on_c, 0, 54, 30
3, 131490, Note_on_c, 0, 57, 30
3, 131640, Note_on_c, 0, 57, 0
3, 131640, Note_on_c, 0, 54, 0
3, 131960, Note_on_c, 0, 54, 27
3, 131970, Note_on_c, 0, 57, 28
3, 132120, Note_on_c, 0, 57, 0
3, 132120, Note_on_c, 0, 54, 0
3, 132480, Note_on_c, 0, 47, 37
3, 133920, Note_on_c, 0, 40, 26
3, 135120, Note_on_c, 0, 47, 0
3, 135120, Note_on_c, 0, 49, 33
3, 135360, Note_on_c, 0, 49, 0
3, 135360, Note_on_c, 0, 51, 40
3, 136560, Note_on_c, 0, 51, 0
3, 136560, Note_on_c, 0, 49, 33
3, 136800, Note_on_c, 0, 49, 0
3, 136800, Note_on_c, 0, 40, 0
3, 136800, Note_on_c, 0, 48, 40
3, 136800, Note_on_c, 0, 40, 26
3, 137520, Note_on_c, 0, 48, 0
3, 137520, Note_on_c, 0, 50, 40
3, 137760, Note_on_c, 0, 50, 0
3, 137760, Note_on_c, 0, 52, 41
3, 138000, Note_on_c, 0, 52, 0
3, 138000, Note_on_c, 0, 54, 45
3, 138240, Note_on_c, 0, 54, 0
3, 138240, Note_on_c, 0, 40, 0
3, 139680, Note_on_c, 0, 47, 40
3, 139680, Note_on_c, 0, 40, 26
3, 140880, Note_on_c, 0, 47, 0
3, 140880, Note_on_c, 0, 49, 33
3, 141120, Note_on_c, 0, 49, 0
3, 141120, Note_on_c, 0, 51, 40
3, 142320, Note_on_c, 0, 51, 0
3, 142320, Note_on_c, 0, 49, 33
3, 142560, Note_on_c, 0, 49, 0
3, 142560, Note_on_c, 0, 40, 0
3, 142560, Note_on_c, 0, 48, 40
3, 142560, Note_on_c, 0, 40, 26
3, 143280, Note_on_c, 0, 48, 0
3, 143280, Note_on_c, 0, 50, 40
3, 143520, Note_on_c, 0, 50, 0
3, 143520, Note_on_c, 0, 52, 41
3, 143760, Note_on_c, 0, 52, 0
3, 143760, Note_on_c, 0, 54, 45
3, 144000, Note_on_c, 0, 54, 0
3, 144000, Note_on_c, 0, 40, 0
3, 145920, Note_on_c, 0, 60, 45
3, 146160, Note_on_c, 0, 60, 0
3, 146160, Note_on_c, 0, 62, 41
3, 146400, Note_on_c, 0, 62, 0
3, 146400, Note_on_c, 0, 64, 41
3, 146640, Note_on_c, 0, 64, 0
3, 146640, Note_on_c, 0, 66, 45
3, 146880, Note_on_c, 0, 66, 0
3, 148800, Note_on_c, 0, 72, 45
3, 149040, Note_on_c, 0, 72, 0
3, 149040, Note_on_c, 0, 74, 41
3, 149280, Note_on_c, 0, 74, 0
3, 149280, Note_on_c, 0, 76, 41
3, 149520, Note_on_c, 0, 76, 0
3, 149520, Note_on_c, 0, 78, 45
3, 149760, Note_on_c, 0, 78, 0
3, 150720, Note_on_c, 0, 69, 48
3, 150720, Note_on_c, 0, 66, 48
3, 150720, Note_on_c, 0, 59, 48
3, 150960, Note_on_c, 0, 59, 0
3, 150960, Note_on_c, 0, 66, 0
3, 150960, Note_on_c, 0, 69, 0
3, 151680, Note_on_c, 0, 64, 25
3, 151920, Note_on_c, 0, 64, 0
3, 151920, Note_on_c, 0, 71, 25
3, 152160, Note_on_c, 0, 71, 0
3, 152160, Note_on_c, 0, 64, 28
3, 152400, Note_on_c, 0, 64, 0
3, 152400, Note_on_c, 0, 71, 28
3, 152640, Note_on_c, 0, 71, 0
3, 152640, Note_on_c, 0, 64, 24
3, 152880, Note_on_c, 0, 64, 0
3, 152880, Note_on_c, 0, 71, 24
3, 153120, Note_on_c, 0, 71, 0
3, 153120, Note_on_c, 0, 64, 21
3, 153360, Note_on_c, 0, 64, 0
3, 153360, Note_on_c, 0, 71, 21
3, 153600, Note_on_c, 0, 71, 0
3, 153600, Note_on_c, 0, 64, 23
3, 153840, Note_on_c, 0, 64, 0
3, 153840, Note_on_c, 0, 71, 23
3, 154080, Note_on_c, 0, 71, 0
3, 154080, Note_on_c, 0, 64, 20
3, 154320, Note_on_c, 0, 64, 0
3, 154320, Note_on_c, 0, 71, 20
3, 154560, Note_on_c, 0, 71, 0
3, 154560, Note_on_c, 0, 64, 21
3, 154800, Note_on_c, 0, 64, 0
3, 154800, Note_on_c, 0, 71, 21
3, 155040, Note_on_c, 0, 71, 0
3, 155040, Note_on_c, 0, 64, 23
3, 155280, Note_on_c, 0, 64, 0
3, 155280, Note_on_c, 0, 71, 23
3, 155520, Note_on_c, 0, 71, 0
3, 155520, Note_on_c, 0, 64, 20
3, 155760, Note_on_c, 0, 64, 0
3, 155760, Note_on_c, 0, 71, 20
3, 156000, Note_on_c, 0, 71, 0
3, 156000, Note_on_c, 0, 64, 21
3, 156240, Note_on_c, 0, 64, 0
3, 156240, Note_on_c, 0, 71, 21
3, 156480, Note_on_c, 0, 71, 0
3, 156480, Note_on_c, 0, 64, 23
3, 156720, Note_on_c, 0, 64, 0
3, 156720, Note_on_c, 0, 71, 23
3, 156960, Note_on_c, 0, 71, 0
3, 156960, Note_on_c, 0, 64, 20
3, 157200, Note_on_c, 0, 64, 0
3, 157200, Note_on_c, 0, 71, 20
3, 157440, Note_on_c, 0, 71, 0
3, 157440, Note_on_c, 0, 64, 21
3, 157680, Note_on_c, 0, 64, 0
3, 157680, Note_on_c, 0, 71, 21
3, 157920, Note_on_c, 0, 71, 0
3, 157920, Note_on_c, 0, 64, 23
3, 158160, Note_on_c, 0, 64, 0
3, 158160, Note_on_c, 0, 71, 23
3, 158400, Note_on_c, 0, 71, 0
3, 158400, Note_on_c, 0, 64, 20
3, 158640, Note_on_c, 0, 64, 0
3, 158640, Note_on_c, 0, 71, 20
3, 158880, Note_on_c, 0, 71, 0
3, 158880, Note_on_c, 0, 64, 21
3, 159120, Note_on_c, 0, 64, 0
3, 159120, Note_on_c, 0, 71, 21
3, 159360, Note_on_c, 0, 71, 0
3, 159360, Note_on_c, 0, 64, 23
3, 159600, Note_on_c, 0, 64, 0
3, 159600, Note_on_c, 0, 71, 23
3, 159840, Note_on_c, 0, 71, 0
3, 159840, Note_on_c, 0, 64, 20
3, 160080, Note_on_c, 0, 64, 0
3, 160080, Note_on_c, 0, 71, 20
3, 160320, Note_on_c, 0, 71, 0
3, 160320, Note_on_c, 0, 64, 21
3, 160560, Note_on_c, 0, 64, 0
3, 160560, Note_on_c, 0, 71, 21
3, 160800, Note_on_c, 0, 71, 0
3, 160800, Note_on_c, 0, 64, 23
3, 161040, Note_on_c, 0, 64, 0
3, 161040, Note_on_c, 0, 71, 23
3, 161280, Note_on_c, 0, 71, 0
3, 161280, Note_on_c, 0, 64, 20
3, 161520, Note_on_c, 0, 64, 0
3, 161520, Note_on_c, 0, 71, 20
3, 161760, Note_on_c, 0, 71, 0
3, 161760, Note_on_c, 0, 64, 21
3, 162000, Note_on_c, 0, 64, 0
3, 162000, Note_on_c, 0, 71, 21
3, 162240, Note_on_c, 0, 71, 0
3, 162240, Note_on_c, 0, 64, 23
3, 162480, Note_on_c, 0, 64, 0
3, 162480, Note_on_c, 0, 71, 23
3, 162720, Note_on_c, 0, 71, 0
3, 162720, Note_on_c, 0, 64, 20
3, 162960, Note_on_c, 0, 64, 0
3, 162960, Note_on_c, 0, 71, 20
3, 163200, Note_on_c, 0, 71, 0
3, 163200, Note_on_c, 0, 64, 21
3, 163440, Note_on_c, 0, 64, 0
3, 163440, Note_on_c, 0, 71, 21
3, 163680, Note_on_c, 0, 71, 0
3, 163680, Note_on_c, 0, 64, 23
3, 163920, Note_on_c, 0, 64, 0
3, 163920, Note_on_c, 0, 71, 23
3, 164160, Note_on_c, 0, 71, 0
3, 171360, Note_on_c, 0, 56, 16
3, 171360, Note_on_c, 0, 59, 16
3, 171600, Note_on_c, 0, 59, 0
3, 171600, Note_on_c, 0, 56, 0
3, 172800, Note_on_c, 0, 52, 20
3, 173040, Note_on_c, 0, 52, 0
3, 173040, Note_on_c, 0, 59, 16
3, 173280, Note_on_c, 0, 59, 0
3, 173280, End_track
4, 0, Start_track
4, 0, Title_t, "Pedale"
4, 0, Program_c, 0, 0
4, 28, Control_c, 0, 64, 127
4, 2880, Control_c, 0, 64, 0
4, 2933, Control_c, 0, 64, 127
4, 3177, Control_c, 0, 64, 0
4, 3307, Control_c, 0, 64, 127
4, 3544, Control_c, 0, 64, 0
4, 3784, Control_c, 0, 64, 127
4, 4263, Control_c, 0, 64, 0
4, 4430, Control_c, 0, 64, 127
4, 5100, Control_c, 0, 64, 0
4, 5196, Control_c, 0, 64, 127
4, 5707, Control_c, 0, 64, 0
4, 5813, Control_c, 0, 64, 127
4, 6187, Control_c, 0, 64, 0
4, 6244, Control_c, 0, 64, 127
4, 6463, Control_c, 0, 64, 0
4, 6664, Control_c, 0, 64, 127
4, 7154, Control_c, 0, 64, 0
4, 7380, Control_c, 0, 64, 127
4, 8580, Control_c, 0, 64, 0
4, 8725, Control_c, 0, 64, 127
4, 10080, Control_c, 0, 64, 0
4, 10179, Control_c, 0, 64, 127
4, 11520, Control_c, 0, 64, 0
4, 11589, Control_c, 0, 64, 127
4, 11946, Control_c, 0, 64, 0
4, 12017, Control_c, 0, 64, 127
4, 12443, Control_c, 0, 64, 0
4, 12509, Control_c, 0, 64, 127
4, 12915, Control_c, 0, 64, 0
4, 12960, Control_c, 0, 64, 127
4, 13865, Control_c, 0, 64, 0
4, 13929, Control_c, 0, 64, 127
4, 14103, Control_c, 0, 64, 0
4, 14160, Control_c, 0, 64, 127
4, 14346, Control_c, 0, 64, 0
4, 14426, Control_c, 0, 64, 127
4, 14826, Control_c, 0, 64, 0
4, 14897, Control_c, 0, 64, 127
4, 15323, Control_c, 0, 64, 0
4, 15383, Control_c, 0, 64, 127
4, 15795, Control_c, 0, 64, 0
4, 15840, Control_c, 0, 64, 127
4, 16745, Control_c, 0, 64, 0
4, 16809, Control_c, 0, 64, 127
4, 17000, Control_c, 0, 64, 0
4, 17035, Control_c, 0, 64, 127
4, 17235, Control_c, 0, 64, 0
4, 17280, Control_c, 0, 64, 127
4, 17702, Control_c, 0, 64, 0
4, 17764, Control_c, 0, 64, 127
4, 18671, Control_c, 0, 64, 0
4, 18819, Control_c, 0, 64, 127
4, 20160, Control_c, 0, 64, 0
4, 20249, Control_c, 0, 64, 127
4, 20653, Control_c, 0, 64, 0
4, 20729, Control_c, 0, 64, 127
4, 21127, Control_c, 0, 64, 0
4, 21202, Control_c, 0, 64, 127
4, 21600, Control_c, 0, 64, 0
4, 21686, Control_c, 0, 64, 127
4, 22578, Control_c, 0, 64, 0
4, 22657, Control_c, 0, 64, 127
4, 23094, Control_c, 0, 64, 0
4, 23181, Control_c, 0, 64, 127
4, 24480, Control_c, 0, 64, 0
4, 24600, Control_c, 0, 64, 127
4, 24968, Control_c, 0, 64, 0
4, 25059, Control_c, 0, 64, 127
4, 25457, Control_c, 0, 64, 0
4, 25588, Control_c, 0, 64, 127
4, 25920, Control_c, 0, 64, 0
4, 26061, Control_c, 0, 64, 127
4, 26898, Control_c, 0, 64, 0
4, 26977, Control_c, 0, 64, 127
4, 27414, Control_c, 0, 64, 0
4, 27501, Control_c, 0, 64, 127
4, 28800, Control_c, 0, 64, 0
4, 28920, Control_c, 0, 64, 127
4, 29288, Control_c, 0, 64, 0
4, 29379, Control_c, 0, 64, 127
4, 29777, Control_c, 0, 64, 0
4, 29908, Control_c, 0, 64, 127
4, 30294, Control_c, 0, 64, 0
4, 30381, Control_c, 0, 64, 127
4, 31680, Control_c, 0, 64, 0
4, 31800, Control_c, 0, 64, 127
4, 32168, Control_c, 0, 64, 0
4, 32259, Control_c, 0, 64, 127
4, 32657, Control_c, 0, 64, 0
4, 32788, Control_c, 0, 64, 127
4, 33120, Control_c, 0, 64, 0
4, 33247, Control_c, 0, 64, 127
4, 34092, Control_c, 0, 64, 0
4, 34193, Control_c, 0, 64, 127
4, 34560, Control_c, 0, 64, 0
4, 34680, Control_c, 0, 64, 127
4, 35543, Control_c, 0, 64, 0
4, 35605, Control_c, 0, 64, 127
4, 36000, Control_c, 0, 64, 0
4, 36127, Control_c, 0, 64, 127
4, 36972, Control_c, 0, 64, 0
4, 37073, Control_c, 0, 64, 127
4, 37440, Control_c, 0, 64, 0
4, 37560, Control_c, 0, 64, 127
4, 38423, Control_c, 0, 64, 0
4, 38485, Control_c, 0, 64, 127
4, 38880, Control_c, 0, 64, 0
4, 39007, Control_c, 0, 64, 127
4, 39852, Control_c, 0, 64, 0
4, 39953, Control_c, 0, 64, 127
4, 40320, Control_c, 0, 64, 0
4, 40440, Control_c, 0, 64, 127
4, 41303, Control_c, 0, 64, 0
4, 41365, Control_c, 0, 64, 127
4, 41760, Control_c, 0, 64, 0
4, 41916, Control_c, 0, 64, 127
4, 43200, Control_c, 0, 64, 0
4, 43320, Control_c, 0, 64, 127
4, 44167, Control_c, 0, 64, 0
4, 44273, Control_c, 0, 64, 127
4, 44640, Control_c, 0, 64, 0
4, 44810, Control_c, 0, 64, 127
4, 45143, Control_c, 0, 64, 0
4, 45332, Control_c, 0, 64, 127
4, 46080, Control_c, 0, 64, 0
4, 46221, Control_c, 0, 64, 127
4, 47525, Control_c, 0, 64, 0
4, 47661, Control_c, 0, 64, 127
4, 48024, Control_c, 0, 64, 0
4, 48170, Control_c, 0, 64, 127
4, 48497, Control_c, 0, 64, 0
4, 48621, Control_c, 0, 64, 127
4, 48960, Control_c, 0, 64, 0
4, 49020, Control_c, 0, 64, 127
4, 50400, Control_c, 0, 64, 0
4, 50460, Control_c, 0, 64, 127
4, 51840, Control_c, 0, 64, 0
4, 51900, Control_c, 0, 64, 127
4, 53280, Control_c, 0, 64, 0
4, 53340, Control_c, 0, 64, 127
4, 54720, Control_c, 0, 64, 0
4, 54791, Control_c, 0, 64, 127
4, 55220, Control_c, 0, 64, 0
4, 55726, Control_c, 0, 64, 127
4, 56164, Control_c, 0, 64, 0
4, 56220, Control_c, 0, 64, 127
4, 56649, Control_c, 0, 64, 0
4, 57177, Control_c, 0, 64, 127
4, 57609, Control_c, 0, 64, 0
4, 57650, Control_c, 0, 64, 127
4, 58103, Control_c, 0, 64, 0
4, 58588, Control_c, 0, 64, 127
4, 59040, Control_c, 0, 64, 0
4, 59156, Control_c, 0, 64, 127
4, 59537, Control_c, 0, 64, 0
4, 59644, Control_c, 0, 64, 127
4, 60480, Control_c, 0, 64, 0
4, 60579, Control_c, 0, 64, 127
4, 63377, Control_c, 0, 64, 0
4, 63501, Control_c, 0, 64, 127
4, 64800, Control_c, 0, 64, 0
4, 64920, Control_c, 0, 64, 127
4, 65288, Control_c, 0, 64, 0
4, 65379, Control_c, 0, 64, 127
4, 65777, Control_c, 0, 64, 0
4, 65908, Control_c, 0, 64, 127
4, 66257, Control_c, 0, 64, 0
4, 66381, Control_c, 0, 64, 127
4, 67680, Control_c, 0, 64, 0
4, 67800, Control_c, 0, 64, 127
4, 68168, Control_c, 0, 64, 0
4, 68259, Control_c, 0, 64, 127
4, 69137, Control_c, 0, 64, 0
4, 69261, Control_c, 0, 64, 127
4, 70560, Control_c, 0, 64, 0
4, 70680, Control_c, 0, 64, 127
4, 71048, Control_c, 0, 64, 0
4, 71139, Control_c, 0, 64, 127
4, 71537, Control_c, 0, 64, 0
4, 71668, Control_c, 0, 64, 127
4, 72017, Control_c, 0, 64, 0
4, 72141, Control_c, 0, 64, 127
4, 72975, Control_c, 0, 64, 0
4, 73069, Control_c, 0, 64, 127
4, 73928, Control_c, 0, 64, 0
4, 74019, Control_c, 0, 64, 127
4, 74897, Control_c, 0, 64, 0
4, 75021, Control_c, 0, 64, 127
4, 75853, Control_c, 0, 64, 0
4, 75941, Control_c, 0, 64, 127
4, 76320, Control_c, 0, 64, 0
4, 76440, Control_c, 0, 64, 127
4, 77777, Control_c, 0, 64, 0
4, 77901, Control_c, 0, 64, 127
4, 78746, Control_c, 0, 64, 0
4, 78840, Control_c, 0, 64, 127
4, 79200, Control_c, 0, 64, 0
4, 79320, Control_c, 0, 64, 127
4, 79688, Control_c, 0, 64, 0
4, 79779, Control_c, 0, 64, 127
4, 80177, Control_c, 0, 64, 0
4, 80308, Control_c, 0, 64, 127
4, 80657, Control_c, 0, 64, 0
4, 80781, Control_c, 0, 64, 127
4, 81613, Control_c, 0, 64, 0
4, 81701, Control_c, 0, 64, 127
4, 82080, Control_c, 0, 64, 0
4, 82200, Control_c, 0, 64, 127
4, 83537, Control_c, 0, 64, 0
4, 83661, Control_c, 0, 64, 127
4, 84506, Control_c, 0, 64, 0
4, 84600, Control_c, 0, 64, 127
4, 84960, Control_c, 0, 64, 0
4, 85080, Control_c, 0, 64, 127
4, 85448, Control_c, 0, 64, 0
4, 85539, Control_c, 0, 64, 127
4, 85937, Control_c, 0, 64, 0
4, 86068, Control_c, 0, 64, 127
4, 86400, Control_c, 0, 64, 0
4, 97959, Control_c, 0, 64, 127
4, 98806, Control_c, 0, 64, 0
4, 99399, Control_c, 0, 64, 127
4, 100246, Control_c, 0, 64, 0
4, 100839, Control_c, 0, 64, 127
4, 102240, Control_c, 0, 64, 0
4, 102279, Control_c, 0, 64, 127
4, 103333, Control_c, 0, 64, 0
4, 104220, Control_c, 0, 64, 127
4, 105120, Control_c, 0, 64, 0
4, 105660, Control_c, 0, 64, 127
4, 106573, Control_c, 0, 64, 0
4, 106599, Control_c, 0, 64, 127
4, 108000, Control_c, 0, 64, 0
4, 108039, Control_c, 0, 64, 127
4, 109093, Control_c, 0, 64, 0
4, 109440, Control_c, 0, 64, 0
4, 109479, Control_c, 0, 64, 127
4, 110029, Control_c, 0, 64, 0
4, 110472, Control_c, 0, 64, 127
4, 110566, Control_c, 0, 64, 0
4, 110812, Control_c, 0, 64, 127
4, 111120, Control_c, 0, 64, 0
4, 112333, Control_c, 0, 64, 0
4, 112359, Control_c, 0, 64, 127
4, 113720, Control_c, 0, 64, 0
4, 113760, Control_c, 0, 64, 127
4, 113929, Control_c, 0, 64, 0
4, 115200, Control_c, 0, 64, 127
4, 115414, Control_c, 0, 64, 0
4, 116566, Control_c, 0, 64, 127
4, 116828, Control_c, 0, 64, 0
4, 136920, Control_c, 0, 64, 127
4, 137773, Control_c, 0, 64, 0
4, 137880, Control_c, 0, 64, 127
4, 138241, Control_c, 0, 64, 0
4, 142675, Control_c, 0, 64, 127
4, 143533, Control_c, 0, 64, 0
4, 143640, Control_c, 0, 64, 127
4, 144001, Control_c, 0, 64, 0
4, 146413, Control_c, 0, 64, 0
4, 146520, Control_c, 0, 64, 127
4, 146881, Control_c, 0, 64, 0
4, 149293, Control_c, 0, 64, 0
4, 149400, Control_c, 0, 64, 127
4, 149761, Control_c, 0, 64, 0
4, 151779, Control_c, 0, 64, 127
4, 153066, Control_c, 0, 64, 0
4, 153137, Control_c, 0, 64, 127
4, 153563, Control_c, 0, 64, 0
4, 153623, Control_c, 0, 64, 127
4, 154035, Control_c, 0, 64, 0
4, 154080, Control_c, 0, 64, 127
4, 155520, Control_c, 0, 64, 0
4, 155601, Control_c, 0, 64, 127
4, 155946, Control_c, 0, 64, 0
4, 156017, Control_c, 0, 64, 127
4, 156443, Control_c, 0, 64, 0
4, 156503, Control_c, 0, 64, 127
4, 156915, Control_c, 0, 64, 0
4, 156960, Control_c, 0, 64, 127
4, 158400, Control_c, 0, 64, 0
4, 158481, Control_c, 0, 64, 127
4, 158826, Control_c, 0, 64, 0
4, 158897, Control_c, 0, 64, 127
4, 159323, Control_c, 0, 64, 0
4, 159383, Control_c, 0, 64, 127
4, 159795, Control_c, 0, 64, 0
4, 159846, Control_c, 0, 64, 127
4, 160266, Control_c, 0, 64, 0
4, 160337, Control_c, 0, 64, 127
4, 160763, Control_c, 0, 64, 0
4, 160823, Control_c, 0, 64, 127
4, 161235, Control_c, 0, 64, 0
4, 161280, Control_c, 0, 64, 0
4, 161361, Control_c, 0, 64, 127
4, 161706, Control_c, 0, 64, 0
4, 161777, Control_c, 0, 64, 127
4, 162203, Control_c, 0, 64, 0
4, 162263, Control_c, 0, 64, 127
4, 162675, Control_c, 0, 64, 0
4, 162726, Control_c, 0, 64, 127
4, 163146, Control_c, 0, 64, 0
4, 163217, Control_c, 0, 64, 127
4, 163643, Control_c, 0, 64, 0
4, 163703, Control_c, 0, 64, 127
4, 164160, Control_c, 0, 64, 0
4, 164330, Control_c, 0, 64, 127
4, 167045, Control_c, 0, 64, 0
4, 167210, Control_c, 0, 64, 127
4, 170287, Control_c, 0, 64, 0
4, 173012, Control_c, 0, 64, 127
4, 176923, Control_c, 0, 64, 0
4, 176923, End_track
5, 0, Start_track
5, 0, Title_t, "Debussy: Childrens Corner 3"
5, 0, End_track
6, 0, Start_track
6, 0, Title_t, "Copyright © 2010 by Bernd Krueger"
6, 0, End_track
7, 0, Start_track
7, 0, Title_t, "http://www.piano-midi.de/"
7, 0, End_track
8, 0, Start_track
8, 0, Title_t, "Edition:  2011-06-11"
8, 0, End_track
9, 0, Start_track
9, 0, Title_t, "Spur 8"
9, 0, End_track
10, 0, Start_track
10, 0, Title_t, "Spur 9"
10, 0, End_track
11, 0, Start_track
11, 0, Title_t, "Spur 10"
11, 0, End_track
12, 0, Start_track
12, 0, Title_t, "Spur 11"
12, 0, End_track
13, 0, Start_track
13, 0, Title_t, "Spur 12"
13, 0, End_track
14, 0, Start_track
14, 0, Title_t, "Spur 13"
14, 0, End_track
15, 0, Start_track
15, 0, Title_t, "Spur 14"
15, 0, End_track
16, 0, Start_track
16, 0, Title_t, "Spur 15"
16, 0, End_track
17, 0, Start_track
17, 0, Title_t, "Spur 16"
17, 0, End_track
0, 0, End_of_file
