0, 0, Header, 1, 17, 480
1, 0, Start_track
1, 0, Title_t, "Debussy: Childrens Corner 6"
1, 0, Copyright_t, "Copyright © 2011 by Bernd Krueger"
1, 0, Text_t, "Bernd Krueger"
1, 0, Text_t, "Allegro giusto"
1, 0, Text_t, "Erstellt: 14.7.2011\012"
1, 0, Text_t, "Dauer: 2:23 Minuten\012"
1, 0, Time_signature, 2, 2, 24, 8
1, 0, Key_signature, -3, "major"
1, 0, Tempo, 531726
1, 480, Tempo, 559701
1, 720, Tempo, 531726
1, 1200, Tempo, 554836
1, 1440, Tempo, 529521
1, 2040, Tempo, 518762
1, 2400, Tempo, 529521
1, 3000, Tempo, 520879
1, 3360, Tempo, 557258
1, 3600, Tempo, 525164
1, 4800, Tempo, 527333
1, 5280, Tempo, 537201
1, 5520, Tempo, 462642
1, 5760, Tempo, 527333
1, 6720, Tempo, 539617
1, 6960, Tempo, 460865
1, 7200, Tempo, 529521
1, 8400, Tempo, 547695
1, 8640, Tempo, 512514
1, 8880, Tempo, 529521
1, 9600, Tempo, 512514
1, 9840, Tempo, 527333
1, 10080, Tempo, 550055
1, 10320, Tempo, 527333
1, 10560, Tempo, 550055
1, 10800, Tempo, 533950
1, 11040, Tempo, 527333
1, 11280, Tempo, 564653
1, 11520, Tempo, 545355
1, 12480, Tempo, 512514
1, 12720, Tempo, 529521
1, 13200, Tempo, 550055
1, 13440, Tempo, 512514
1, 13680, Tempo, 529521
1, 14160, Tempo, 550055
1, 14400, Tempo, 512514
1, 14640, Tempo, 529521
1, 15360, Tempo, 543036
1, 15600, Tempo, 557258
1, 15840, Tempo, 569746
1, 16320, Tempo, 512514
1, 16560, Tempo, 529521
1, 17280, Tempo, 512514
1, 17520, Tempo, 527333
1, 17760, Tempo, 550055
1, 18000, Tempo, 527333
1, 18240, Tempo, 550055
1, 18480, Tempo, 533950
1, 18720, Tempo, 527333
1, 18960, Tempo, 564653
1, 19200, Tempo, 545355
1, 20160, Tempo, 512514
1, 20400, Tempo, 529521
1, 20880, Tempo, 550055
1, 21120, Tempo, 512514
1, 21360, Tempo, 529521
1, 22080, Tempo, 550055
1, 22320, Tempo, 533950
1, 22560, Tempo, 527333
1, 22800, Tempo, 564653
1, 23040, Tempo, 588120
1, 24000, Tempo, 512514
1, 24240, Tempo, 529521
1, 24720, Tempo, 568720
1, 24960, Tempo, 579710
1, 25920, Tempo, 512514
1, 26160, Tempo, 529521
1, 26640, Tempo, 558140
1, 26880, Tempo, 545455
1, 27120, Tempo, 555556
1, 27360, Tempo, 533333
1, 27840, Tempo, 512514
1, 28080, Tempo, 529521
1, 28560, Tempo, 568720
1, 28800, Tempo, 512514
1, 29040, Tempo, 529521
1, 29520, Tempo, 568720
1, 29760, Tempo, 515021
1, 30000, Tempo, 538117
1, 30240, Tempo, 547945
1, 30480, Tempo, 568720
1, 30720, Tempo, 512514
1, 30960, Tempo, 542986
1, 31200, Tempo, 579710
1, 31440, Tempo, 600000
1, 31680, Tempo, 512514
1, 31920, Tempo, 529521
1, 32400, Tempo, 568720
1, 32640, Tempo, 579710
1, 33600, Tempo, 512514
1, 33840, Tempo, 529521
1, 34320, Tempo, 558140
1, 34560, Tempo, 545455
1, 34800, Tempo, 555556
1, 35040, Tempo, 533333
1, 35520, Tempo, 531726
1, 36000, Tempo, 559701
1, 36240, Tempo, 531726
1, 36720, Tempo, 554836
1, 36960, Tempo, 529521
1, 37440, Tempo, 529521
1, 37560, Tempo, 520879
1, 37920, Tempo, 557258
1, 38160, Tempo, 525164
1, 38400, Tempo, 527333
1, 39120, Tempo, 591133
1, 39360, Tempo, 526316
1, 40320, Tempo, 527333
1, 41040, Tempo, 591133
1, 41280, Tempo, 526316
1, 42240, Tempo, 527333
1, 42960, Tempo, 591133
1, 43200, Tempo, 526316
1, 44160, Key_signature, -6, "major"
1, 44160, Tempo, 535714
1, 45360, Tempo, 528634
1, 45600, Tempo, 517241
1, 46080, Tempo, 535714
1, 47280, Tempo, 528634
1, 47520, Tempo, 517241
1, 48000, Tempo, 535714
1, 48480, Tempo, 540541
1, 48720, Tempo, 563380
1, 48960, Tempo, 547945
1, 49200, Tempo, 517241
1, 49440, Tempo, 517241
1, 49920, Tempo, 535714
1, 50400, Tempo, 540541
1, 50640, Tempo, 563380
1, 50880, Tempo, 547945
1, 51120, Tempo, 517241
1, 51153, Tempo, 524017
1, 51192, Tempo, 526316
1, 51211, Tempo, 528634
1, 51230, Tempo, 530973
1, 51249, Tempo, 533333
1, 51269, Tempo, 535714
1, 51288, Tempo, 538117
1, 51307, Tempo, 540541
1, 51326, Tempo, 542986
1, 51345, Tempo, 545455
1, 51365, Tempo, 547945
1, 51384, Tempo, 550459
1, 51600, Tempo, 588235
1, 51840, Tempo, 535714
1, 53040, Tempo, 528634
1, 53280, Tempo, 517241
1, 53760, Tempo, 535714
1, 54960, Tempo, 528634
1, 55200, Tempo, 517241
1, 55680, Tempo, 535714
1, 56160, Tempo, 540541
1, 56400, Tempo, 563380
1, 56640, Tempo, 547945
1, 56880, Tempo, 517241
1, 57120, Tempo, 517241
1, 57840, Tempo, 648649
1, 58560, Tempo, 736196
1, 58800, Tempo, 784314
1, 59040, Tempo, 816327
1, 59280, Tempo, 952381
1, 59520, Tempo, 1027397
1, 59640, Tempo, 534283
1, 59760, Tempo, 528634
1, 60000, Tempo, 517241
1, 60660, Tempo, 534283
1, 60720, Tempo, 528634
1, 60960, Tempo, 517241
1, 61920, Tempo, 648649
1, 62400, Tempo, 736196
1, 62640, Tempo, 784314
1, 62880, Tempo, 816327
1, 63120, Tempo, 952381
1, 63360, Tempo, 1027397
1, 63480, Tempo, 534283
1, 63600, Tempo, 528634
1, 63840, Tempo, 517241
1, 64500, Tempo, 534283
1, 64560, Tempo, 528634
1, 64800, Tempo, 517241
1, 65760, Tempo, 648649
1, 66240, Tempo, 736196
1, 66480, Tempo, 784314
1, 66720, Tempo, 816327
1, 66960, Tempo, 952381
1, 67200, Tempo, 517688
1, 67440, Tempo, 517688
1, 67560, Tempo, 556070
1, 67680, Tempo, 517688
1, 67920, Tempo, 536193
1, 68160, Tempo, 550964
1, 68400, Tempo, 597610
1, 68520, Tempo, 706714
1, 68640, Tempo, 642398
1, 68880, Tempo, 732601
1, 69600, Tempo, 648649
1, 70080, Tempo, 736196
1, 70320, Tempo, 784314
1, 70560, Tempo, 816327
1, 70800, Tempo, 952381
1, 71040, Tempo, 1027397
1, 71160, Tempo, 534283
1, 71280, Tempo, 528634
1, 71520, Tempo, 517241
1, 72420, Tempo, 732601
1, 72480, Tempo, 648649
1, 72960, Tempo, 736196
1, 73200, Tempo, 784314
1, 73440, Tempo, 816327
1, 73680, Tempo, 952381
1, 73920, Tempo, 1027397
1, 74040, Tempo, 534283
1, 74160, Tempo, 528634
1, 74400, Tempo, 517241
1, 75360, Tempo, 648649
1, 75840, Tempo, 736196
1, 76080, Tempo, 784314
1, 76320, Tempo, 816327
1, 76560, Tempo, 952381
1, 76800, Tempo, 517688
1, 77040, Tempo, 517688
1, 77160, Tempo, 556070
1, 77280, Tempo, 517688
1, 77520, Tempo, 536193
1, 77760, Tempo, 525855
1, 78000, Tempo, 570885
1, 78240, Tempo, 521286
1, 78600, Tempo, 731707
1, 78720, Tempo, 525855
1, 78960, Tempo, 570885
1, 79680, Tempo, 547995
1, 80040, Tempo, 606122
1, 80160, Tempo, 550509
1, 80880, Tempo, 528681
1, 81120, Tempo, 547995
1, 81840, Tempo, 524063
1, 82080, Tempo, 543036
1, 82320, Tempo, 603015
1, 82560, Tempo, 525855
1, 82800, Tempo, 570885
1, 83040, Tempo, 547995
1, 83880, Tempo, 538165
1, 84000, Tempo, 571483
1, 84840, Tempo, 663057
1, 84960, Tempo, 710143
1, 85080, Tempo, 718649
1, 85440, Key_signature, -3, "major"
1, 85440, Tempo, 549501
1, 85920, Tempo, 584283
1, 86160, Tempo, 552029
1, 86400, Tempo, 581452
1, 86880, Tempo, 640410
1, 87120, Tempo, 611060
1, 87360, Tempo, 550055
1, 87600, Tempo, 533950
1, 87840, Tempo, 527333
1, 88080, Tempo, 564653
1, 88320, Tempo, 545355
1, 89280, Tempo, 512514
1, 89520, Tempo, 529521
1, 90000, Tempo, 550055
1, 90240, Tempo, 512514
1, 90480, Tempo, 529521
1, 90960, Tempo, 550055
1, 91200, Tempo, 512514
1, 91440, Tempo, 529521
1, 92160, Tempo, 543036
1, 92400, Tempo, 557258
1, 92640, Tempo, 569746
1, 93120, Tempo, 512514
1, 93360, Tempo, 529521
1, 94080, Tempo, 512514
1, 94320, Tempo, 527333
1, 94560, Tempo, 550055
1, 94800, Tempo, 527333
1, 95040, Tempo, 550055
1, 95280, Tempo, 533950
1, 95520, Tempo, 527333
1, 95760, Tempo, 564653
1, 96000, Tempo, 545355
1, 96960, Tempo, 512514
1, 97200, Tempo, 529521
1, 97680, Tempo, 550055
1, 97920, Tempo, 512514
1, 98160, Tempo, 529521
1, 98880, Tempo, 550055
1, 99120, Tempo, 533950
1, 99360, Tempo, 527333
1, 99600, Tempo, 564653
1, 99840, Tempo, 588120
1, 100800, Tempo, 512514
1, 101040, Tempo, 529521
1, 101520, Tempo, 568720
1, 101760, Tempo, 579710
1, 102720, Tempo, 512514
1, 102960, Tempo, 529521
1, 103440, Tempo, 558140
1, 103680, Tempo, 545455
1, 103920, Tempo, 555556
1, 104160, Tempo, 533333
1, 104520, Tempo, 588235
1, 104640, Tempo, 512514
1, 104880, Tempo, 529521
1, 105360, Tempo, 568720
1, 105600, Tempo, 512514
1, 105840, Tempo, 529521
1, 106320, Tempo, 568720
1, 106560, Tempo, 515021
1, 106800, Tempo, 538117
1, 107040, Tempo, 547945
1, 107280, Tempo, 568720
1, 107520, Tempo, 512514
1, 107760, Tempo, 542986
1, 108000, Tempo, 579710
1, 108240, Tempo, 948017
1, 108480, Tempo, 512514
1, 108720, Tempo, 529521
1, 109200, Tempo, 568720
1, 109440, Tempo, 579710
1, 109680, Tempo, 631579
1, 109920, Tempo, 579710
1, 110400, Tempo, 512514
1, 110640, Tempo, 529521
1, 111120, Tempo, 558140
1, 111360, Tempo, 545455
1, 111600, Tempo, 555556
1, 111840, Tempo, 533333
1, 112320, Tempo, 531726
1, 112800, Tempo, 559701
1, 113040, Tempo, 531726
1, 113520, Tempo, 554836
1, 113760, Tempo, 529521
1, 114240, Tempo, 529521
1, 114360, Tempo, 520879
1, 114720, Tempo, 557258
1, 114960, Tempo, 525164
1, 115200, Tempo, 527333
1, 115920, Tempo, 591133
1, 116160, Tempo, 526316
1, 117120, Tempo, 527333
1, 117840, Tempo, 591133
1, 118080, Tempo, 526316
1, 118560, Tempo, 547945
1, 119040, Tempo, 571429
1, 119760, Tempo, 621762
1, 120000, Tempo, 591133
1, 120456, Tempo, 627025
1, 120705, Tempo, 573121
1, 120744, Tempo, 570396
1, 120763, Tempo, 567698
1, 120782, Tempo, 565025
1, 120801, Tempo, 562377
1, 120821, Tempo, 559754
1, 120859, Tempo, 557155
1, 120878, Tempo, 554580
1, 120897, Tempo, 552029
1, 120917, Tempo, 549501
1, 120955, Tempo, 640410
1, 120960, Tempo, 575319
1, 121920, Tempo, 653666
1, 121920, End_track
2, 0, Start_track
2, 0, Title_t, "Piano right"
2, 0, Program_c, 0, 0
2, 0, Note_on_c, 0, 82, 80
2, 120, Note_on_c, 0, 82, 0
2, 120, Note_on_c, 0, 80, 74
2, 240, Note_on_c, 0, 80, 0
2, 360, Note_on_c, 0, 82, 74
2, 480, Note_on_c, 0, 82, 0
2, 480, Note_on_c, 0, 77, 76
2, 600, Note_on_c, 0, 77, 0
2, 720, Note_on_c, 0, 82, 80
2, 810, Note_on_c, 0, 82, 0
2, 960, Note_on_c, 0, 80, 80
2, 1080, Note_on_c, 0, 80, 0
2, 1080, Note_on_c, 0, 77, 80
2, 1200, Note_on_c, 0, 77, 0
2, 1320, Note_on_c, 0, 75, 74
2, 1440, Note_on_c, 0, 75, 0
2, 1440, Note_on_c, 0, 71, 80
2, 1920, Note_on_c, 0, 71, 0
2, 2040, Note_on_c, 0, 68, 80
2, 2160, Note_on_c, 0, 68, 0
2, 2160, Note_on_c, 0, 65, 79
2, 2280, Note_on_c, 0, 65, 0
2, 2280, Note_on_c, 0, 63, 84
2, 2400, Note_on_c, 0, 63, 0
2, 2400, Note_on_c, 0, 59, 86
2, 2880, Note_on_c, 0, 59, 0
2, 3000, Note_on_c, 0, 56, 80
2, 3120, Note_on_c, 0, 56, 0
2, 3120, Note_on_c, 0, 53, 79
2, 3240, Note_on_c, 0, 53, 0
2, 3240, Note_on_c, 0, 51, 84
2, 3360, Note_on_c, 0, 51, 0
2, 3360, Note_on_c, 0, 47, 86
2, 3600, Note_on_c, 0, 47, 0
2, 3600, Note_on_c, 0, 55, 97
2, 3600, Note_on_c, 0, 50, 82
2, 3840, Note_on_c, 0, 50, 0
2, 3840, Note_on_c, 0, 55, 0
2, 5040, Note_on_c, 0, 51, 40
2, 5040, Note_on_c, 0, 58, 40
2, 5130, Note_on_c, 0, 58, 0
2, 5130, Note_on_c, 0, 51, 0
2, 5520, Note_on_c, 0, 58, 57
2, 5520, Note_on_c, 0, 51, 50
2, 5580, Note_on_c, 0, 51, 0
2, 5580, Note_on_c, 0, 58, 0
2, 5640, Note_on_c, 0, 58, 64
2, 5640, Note_on_c, 0, 51, 56
2, 5700, Note_on_c, 0, 51, 0
2, 5700, Note_on_c, 0, 58, 0
2, 6000, Note_on_c, 0, 51, 40
2, 6000, Note_on_c, 0, 58, 40
2, 6090, Note_on_c, 0, 58, 0
2, 6090, Note_on_c, 0, 51, 0
2, 6480, Note_on_c, 0, 51, 40
2, 6480, Note_on_c, 0, 58, 40
2, 6570, Note_on_c, 0, 58, 0
2, 6570, Note_on_c, 0, 51, 0
2, 6960, Note_on_c, 0, 58, 57
2, 6960, Note_on_c, 0, 51, 50
2, 7020, Note_on_c, 0, 51, 0
2, 7020, Note_on_c, 0, 58, 0
2, 7080, Note_on_c, 0, 58, 64
2, 7080, Note_on_c, 0, 51, 56
2, 7140, Note_on_c, 0, 51, 0
2, 7140, Note_on_c, 0, 58, 0
2, 7440, Note_on_c, 0, 51, 40
2, 7440, Note_on_c, 0, 58, 40
2, 7530, Note_on_c, 0, 58, 0
2, 7530, Note_on_c, 0, 51, 0
2, 7920, Note_on_c, 0, 51, 32
2, 7920, Note_on_c, 0, 58, 32
2, 8010, Note_on_c, 0, 58, 0
2, 8010, Note_on_c, 0, 51, 0
2, 8400, Note_on_c, 0, 51, 29
2, 8400, Note_on_c, 0, 58, 29
2, 8490, Note_on_c, 0, 58, 0
2, 8490, Note_on_c, 0, 51, 0
2, 8640, Note_on_c, 0, 70, 80
2, 8760, Note_on_c, 0, 70, 0
2, 8760, Note_on_c, 0, 68, 74
2, 8880, Note_on_c, 0, 68, 0
2, 8880, Note_on_c, 0, 59, 45
2, 8880, Note_on_c, 0, 63, 45
2, 9000, Note_on_c, 0, 63, 0
2, 9000, Note_on_c, 0, 59, 0
2, 9000, Note_on_c, 0, 70, 74
2, 9120, Note_on_c, 0, 70, 0
2, 9120, Note_on_c, 0, 65, 76
2, 9240, Note_on_c, 0, 65, 0
2, 9360, Note_on_c, 0, 59, 45
2, 9360, Note_on_c, 0, 63, 45
2, 9360, Note_on_c, 0, 70, 80
2, 9450, Note_on_c, 0, 70, 0
2, 9480, Note_on_c, 0, 63, 0
2, 9480, Note_on_c, 0, 59, 0
2, 9600, Note_on_c, 0, 68, 80
2, 9720, Note_on_c, 0, 68, 0
2, 9720, Note_on_c, 0, 65, 80
2, 9840, Note_on_c, 0, 65, 0
2, 9840, Note_on_c, 0, 59, 45
2, 9930, Note_on_c, 0, 59, 0
2, 9960, Note_on_c, 0, 63, 74
2, 10080, Note_on_c, 0, 63, 0
2, 10080, Note_on_c, 0, 59, 80
2, 10200, Note_on_c, 0, 59, 0
2, 10320, Note_on_c, 0, 59, 72
2, 10320, Note_on_c, 0, 63, 80
2, 10380, Note_on_c, 0, 63, 0
2, 10380, Note_on_c, 0, 59, 0
2, 10560, Note_on_c, 0, 58, 80
2, 10650, Note_on_c, 0, 58, 0
2, 10680, Note_on_c, 0, 58, 74
2, 10800, Note_on_c, 0, 58, 0
2, 10920, Note_on_c, 0, 60, 74
2, 11040, Note_on_c, 0, 60, 0
2, 11040, Note_on_c, 0, 58, 76
2, 11160, Note_on_c, 0, 58, 0
2, 11250, Note_on_c, 0, 63, 68
2, 11280, Note_on_c, 0, 70, 80
2, 11370, Note_on_c, 0, 70, 0
2, 11370, Note_on_c, 0, 63, 0
2, 11520, Note_on_c, 0, 58, 80
2, 12480, Note_on_c, 0, 58, 0
2, 12480, Note_on_c, 0, 58, 64
2, 12600, Note_on_c, 0, 58, 0
2, 12600, Note_on_c, 0, 56, 57
2, 12720, Note_on_c, 0, 56, 0
2, 12840, Note_on_c, 0, 58, 56
2, 12960, Note_on_c, 0, 58, 0
2, 12960, Note_on_c, 0, 60, 64
2, 13080, Note_on_c, 0, 60, 0
2, 13200, Note_on_c, 0, 56, 53
2, 13290, Note_on_c, 0, 56, 0
2, 13440, Note_on_c, 0, 58, 64
2, 13560, Note_on_c, 0, 58, 0
2, 13560, Note_on_c, 0, 56, 57
2, 13680, Note_on_c, 0, 56, 0
2, 13800, Note_on_c, 0, 58, 56
2, 13920, Note_on_c, 0, 58, 0
2, 13920, Note_on_c, 0, 59, 64
2, 14040, Note_on_c, 0, 59, 0
2, 14160, Note_on_c, 0, 56, 53
2, 14250, Note_on_c, 0, 56, 0
2, 14400, Note_on_c, 0, 58, 64
2, 14520, Note_on_c, 0, 58, 0
2, 14520, Note_on_c, 0, 56, 59
2, 14640, Note_on_c, 0, 56, 0
2, 14760, Note_on_c, 0, 53, 59
2, 14850, Note_on_c, 0, 53, 0
2, 14880, Note_on_c, 0, 51, 61
2, 15000, Note_on_c, 0, 51, 0
2, 15120, Note_on_c, 0, 50, 65
2, 15240, Note_on_c, 0, 50, 0
2, 15360, Note_on_c, 0, 48, 71
2, 15480, Note_on_c, 0, 48, 0
2, 15600, Note_on_c, 0, 43, 68
2, 15720, Note_on_c, 0, 43, 0
2, 15840, Note_on_c, 0, 48, 76
2, 15960, Note_on_c, 0, 48, 0
2, 16080, Note_on_c, 0, 50, 80
2, 16200, Note_on_c, 0, 50, 0
2, 16320, Note_on_c, 0, 70, 80
2, 16440, Note_on_c, 0, 70, 0
2, 16440, Note_on_c, 0, 68, 74
2, 16560, Note_on_c, 0, 68, 0
2, 16560, Note_on_c, 0, 59, 45
2, 16560, Note_on_c, 0, 63, 45
2, 16680, Note_on_c, 0, 63, 0
2, 16680, Note_on_c, 0, 59, 0
2, 16680, Note_on_c, 0, 70, 74
2, 16800, Note_on_c, 0, 70, 0
2, 16800, Note_on_c, 0, 65, 76
2, 16920, Note_on_c, 0, 65, 0
2, 17040, Note_on_c, 0, 59, 45
2, 17040, Note_on_c, 0, 63, 45
2, 17040, Note_on_c, 0, 70, 80
2, 17130, Note_on_c, 0, 70, 0
2, 17160, Note_on_c, 0, 63, 0
2, 17160, Note_on_c, 0, 59, 0
2, 17280, Note_on_c, 0, 68, 80
2, 17400, Note_on_c, 0, 68, 0
2, 17400, Note_on_c, 0, 65, 80
2, 17520, Note_on_c, 0, 65, 0
2, 17520, Note_on_c, 0, 59, 45
2, 17610, Note_on_c, 0, 59, 0
2, 17640, Note_on_c, 0, 63, 74
2, 17760, Note_on_c, 0, 63, 0
2, 17760, Note_on_c, 0, 59, 80
2, 17880, Note_on_c, 0, 59, 0
2, 18000, Note_on_c, 0, 59, 72
2, 18000, Note_on_c, 0, 63, 80
2, 18060, Note_on_c, 0, 63, 0
2, 18060, Note_on_c, 0, 59, 0
2, 18240, Note_on_c, 0, 58, 80
2, 18330, Note_on_c, 0, 58, 0
2, 18360, Note_on_c, 0, 58, 74
2, 18480, Note_on_c, 0, 58, 0
2, 18600, Note_on_c, 0, 60, 74
2, 18720, Note_on_c, 0, 60, 0
2, 18720, Note_on_c, 0, 58, 76
2, 18840, Note_on_c, 0, 58, 0
2, 18930, Note_on_c, 0, 63, 68
2, 18960, Note_on_c, 0, 70, 80
2, 19050, Note_on_c, 0, 70, 0
2, 19050, Note_on_c, 0, 63, 0
2, 19200, Note_on_c, 0, 58, 80
2, 20160, Note_on_c, 0, 58, 0
2, 20160, Note_on_c, 0, 58, 55
2, 20250, Note_on_c, 0, 58, 0
2, 20280, Note_on_c, 0, 58, 49
2, 20400, Note_on_c, 0, 58, 0
2, 20520, Note_on_c, 0, 60, 53
2, 20640, Note_on_c, 0, 60, 0
2, 20640, Note_on_c, 0, 58, 61
2, 20760, Note_on_c, 0, 58, 0
2, 20880, Note_on_c, 0, 61, 53
2, 20970, Note_on_c, 0, 61, 0
2, 21120, Note_on_c, 0, 63, 64
2, 21210, Note_on_c, 0, 63, 0
2, 21360, Note_on_c, 0, 65, 61
2, 21450, Note_on_c, 0, 65, 0
2, 21600, Note_on_c, 0, 63, 65
2, 21690, Note_on_c, 0, 63, 0
2, 21840, Note_on_c, 0, 66, 71
2, 21930, Note_on_c, 0, 66, 0
2, 22080, Note_on_c, 0, 65, 80
2, 22170, Note_on_c, 0, 65, 0
2, 22200, Note_on_c, 0, 65, 74
2, 22320, Note_on_c, 0, 65, 0
2, 22440, Note_on_c, 0, 67, 74
2, 22560, Note_on_c, 0, 67, 0
2, 22560, Note_on_c, 0, 65, 76
2, 22770, Note_on_c, 0, 65, 0
2, 22770, Note_on_c, 0, 67, 68
2, 22800, Note_on_c, 0, 74, 80
2, 22890, Note_on_c, 0, 74, 0
2, 22890, Note_on_c, 0, 67, 0
2, 23040, Note_on_c, 0, 70, 85
2, 23040, Note_on_c, 0, 62, 72
2, 23520, Note_on_c, 0, 62, 0
2, 23520, Note_on_c, 0, 70, 0
2, 23520, Note_on_c, 0, 82, 90
2, 23520, Note_on_c, 0, 94, 106
2, 23760, Note_on_c, 0, 94, 0
2, 23760, Note_on_c, 0, 82, 0
2, 24000, Note_on_c, 0, 60, 54
2, 24000, Note_on_c, 0, 63, 64
2, 24120, Note_on_c, 0, 63, 0
2, 24120, Note_on_c, 0, 60, 0
2, 24120, Note_on_c, 0, 62, 48
2, 24120, Note_on_c, 0, 65, 57
2, 24360, Note_on_c, 0, 65, 0
2, 24360, Note_on_c, 0, 62, 0
2, 24360, Note_on_c, 0, 63, 47
2, 24360, Note_on_c, 0, 67, 56
2, 24480, Note_on_c, 0, 67, 0
2, 24480, Note_on_c, 0, 63, 0
2, 24480, Note_on_c, 0, 62, 54
2, 24480, Note_on_c, 0, 65, 64
2, 24570, Note_on_c, 0, 65, 0
2, 24570, Note_on_c, 0, 62, 0
2, 24720, Note_on_c, 0, 60, 45
2, 24720, Note_on_c, 0, 63, 53
2, 24810, Note_on_c, 0, 63, 0
2, 24810, Note_on_c, 0, 60, 0
2, 24960, Note_on_c, 0, 65, 53
2, 24960, Note_on_c, 0, 62, 45
2, 25440, Note_on_c, 0, 94, 64
2, 25440, Note_on_c, 0, 82, 54
2, 25680, Note_on_c, 0, 82, 0
2, 25680, Note_on_c, 0, 94, 0
2, 25920, Note_on_c, 0, 62, 0
2, 25920, Note_on_c, 0, 65, 0
2, 25920, Note_on_c, 0, 60, 54
2, 25920, Note_on_c, 0, 63, 64
2, 26040, Note_on_c, 0, 63, 0
2, 26040, Note_on_c, 0, 60, 0
2, 26040, Note_on_c, 0, 62, 48
2, 26040, Note_on_c, 0, 65, 57
2, 26280, Note_on_c, 0, 65, 0
2, 26280, Note_on_c, 0, 62, 0
2, 26280, Note_on_c, 0, 63, 47
2, 26280, Note_on_c, 0, 67, 56
2, 26400, Note_on_c, 0, 67, 0
2, 26400, Note_on_c, 0, 63, 0
2, 26400, Note_on_c, 0, 62, 54
2, 26400, Note_on_c, 0, 65, 64
2, 26520, Note_on_c, 0, 65, 0
2, 26520, Note_on_c, 0, 62, 0
2, 26640, Note_on_c, 0, 60, 45
2, 26640, Note_on_c, 0, 63, 53
2, 26730, Note_on_c, 0, 63, 0
2, 26730, Note_on_c, 0, 60, 0
2, 26880, Note_on_c, 0, 65, 53
2, 26880, Note_on_c, 0, 62, 45
2, 27000, Note_on_c, 0, 62, 0
2, 27000, Note_on_c, 0, 65, 0
2, 27120, Note_on_c, 0, 60, 53
2, 27120, Note_on_c, 0, 63, 53
2, 27360, Note_on_c, 0, 63, 0
2, 27360, Note_on_c, 0, 60, 0
2, 27360, Note_on_c, 0, 62, 53
2, 27360, Note_on_c, 0, 65, 53
2, 27600, Note_on_c, 0, 65, 0
2, 27600, Note_on_c, 0, 62, 0
2, 27600, Note_on_c, 0, 67, 53
2, 27600, Note_on_c, 0, 70, 53
2, 27600, Note_on_c, 0, 72, 53
2, 27720, Note_on_c, 0, 72, 0
2, 27720, Note_on_c, 0, 70, 0
2, 27720, Note_on_c, 0, 67, 0
2, 27840, Note_on_c, 0, 56, 36
2, 27840, Note_on_c, 0, 60, 36
2, 27840, Note_on_c, 0, 63, 42
2, 29760, Note_on_c, 0, 63, 0
2, 29760, Note_on_c, 0, 60, 0
2, 29760, Note_on_c, 0, 56, 0
2, 29760, Note_on_c, 0, 55, 30
2, 29760, Note_on_c, 0, 60, 30
2, 29760, Note_on_c, 0, 63, 36
2, 30720, Note_on_c, 0, 63, 0
2, 30720, Note_on_c, 0, 60, 0
2, 30720, Note_on_c, 0, 55, 0
2, 30840, Note_on_c, 0, 46, 65
2, 30960, Note_on_c, 0, 46, 0
2, 30960, Note_on_c, 0, 48, 65
2, 31080, Note_on_c, 0, 48, 0
2, 31080, Note_on_c, 0, 50, 67
2, 31200, Note_on_c, 0, 50, 0
2, 31200, Note_on_c, 0, 48, 68
2, 31320, Note_on_c, 0, 48, 0
2, 31440, Note_on_c, 0, 46, 62
2, 31530, Note_on_c, 0, 46, 0
2, 31680, Note_on_c, 0, 60, 54
2, 31680, Note_on_c, 0, 63, 64
2, 31800, Note_on_c, 0, 63, 0
2, 31800, Note_on_c, 0, 60, 0
2, 31800, Note_on_c, 0, 62, 48
2, 31800, Note_on_c, 0, 65, 57
2, 32040, Note_on_c, 0, 65, 0
2, 32040, Note_on_c, 0, 62, 0
2, 32040, Note_on_c, 0, 63, 47
2, 32040, Note_on_c, 0, 67, 56
2, 32160, Note_on_c, 0, 67, 0
2, 32160, Note_on_c, 0, 63, 0
2, 32160, Note_on_c, 0, 62, 54
2, 32160, Note_on_c, 0, 65, 64
2, 32250, Note_on_c, 0, 65, 0
2, 32250, Note_on_c, 0, 62, 0
2, 32400, Note_on_c, 0, 60, 45
2, 32400, Note_on_c, 0, 63, 53
2, 32490, Note_on_c, 0, 63, 0
2, 32490, Note_on_c, 0, 60, 0
2, 32640, Note_on_c, 0, 65, 53
2, 32640, Note_on_c, 0, 62, 45
2, 33120, Note_on_c, 0, 94, 64
2, 33120, Note_on_c, 0, 82, 54
2, 33360, Note_on_c, 0, 82, 0
2, 33360, Note_on_c, 0, 94, 0
2, 33600, Note_on_c, 0, 62, 0
2, 33600, Note_on_c, 0, 65, 0
2, 33600, Note_on_c, 0, 60, 54
2, 33600, Note_on_c, 0, 63, 64
2, 33720, Note_on_c, 0, 63, 0
2, 33720, Note_on_c, 0, 60, 0
2, 33720, Note_on_c, 0, 62, 48
2, 33720, Note_on_c, 0, 65, 57
2, 33960, Note_on_c, 0, 65, 0
2, 33960, Note_on_c, 0, 62, 0
2, 33960, Note_on_c, 0, 63, 47
2, 33960, Note_on_c, 0, 67, 56
2, 34080, Note_on_c, 0, 67, 0
2, 34080, Note_on_c, 0, 63, 0
2, 34080, Note_on_c, 0, 62, 54
2, 34080, Note_on_c, 0, 65, 64
2, 34200, Note_on_c, 0, 65, 0
2, 34200, Note_on_c, 0, 62, 0
2, 34320, Note_on_c, 0, 60, 45
2, 34320, Note_on_c, 0, 63, 53
2, 34410, Note_on_c, 0, 63, 0
2, 34410, Note_on_c, 0, 60, 0
2, 34560, Note_on_c, 0, 65, 53
2, 34560, Note_on_c, 0, 62, 45
2, 34680, Note_on_c, 0, 62, 0
2, 34680, Note_on_c, 0, 65, 0
2, 34800, Note_on_c, 0, 60, 53
2, 34800, Note_on_c, 0, 63, 53
2, 35040, Note_on_c, 0, 63, 0
2, 35040, Note_on_c, 0, 60, 0
2, 35040, Note_on_c, 0, 62, 53
2, 35040, Note_on_c, 0, 65, 53
2, 35280, Note_on_c, 0, 65, 0
2, 35280, Note_on_c, 0, 62, 0
2, 35280, Note_on_c, 0, 67, 53
2, 35280, Note_on_c, 0, 70, 53
2, 35280, Note_on_c, 0, 72, 53
2, 35400, Note_on_c, 0, 72, 0
2, 35400, Note_on_c, 0, 70, 0
2, 35400, Note_on_c, 0, 67, 0
2, 35520, Note_on_c, 0, 71, 60
2, 35520, Note_on_c, 0, 75, 60
2, 35520, Note_on_c, 0, 82, 80
2, 35640, Note_on_c, 0, 82, 0
2, 35640, Note_on_c, 0, 80, 74
2, 35760, Note_on_c, 0, 80, 0
2, 35880, Note_on_c, 0, 82, 74
2, 36000, Note_on_c, 0, 82, 0
2, 36000, Note_on_c, 0, 77, 76
2, 36120, Note_on_c, 0, 77, 0
2, 36240, Note_on_c, 0, 82, 80
2, 36330, Note_on_c, 0, 82, 0
2, 36480, Note_on_c, 0, 80, 80
2, 36600, Note_on_c, 0, 80, 0
2, 36600, Note_on_c, 0, 77, 80
2, 36720, Note_on_c, 0, 77, 0
2, 36840, Note_on_c, 0, 75, 74
2, 36960, Note_on_c, 0, 75, 0
2, 36960, Note_on_c, 0, 75, 0
2, 36960, Note_on_c, 0, 71, 0
2, 36960, Note_on_c, 0, 71, 80
2, 37440, Note_on_c, 0, 71, 0
2, 37560, Note_on_c, 0, 68, 80
2, 37680, Note_on_c, 0, 68, 0
2, 37680, Note_on_c, 0, 65, 79
2, 37800, Note_on_c, 0, 65, 0
2, 37800, Note_on_c, 0, 63, 84
2, 37920, Note_on_c, 0, 63, 0
2, 37920, Note_on_c, 0, 59, 86
2, 38040, Note_on_c, 0, 59, 0
2, 38160, Note_on_c, 0, 55, 97
2, 38160, Note_on_c, 0, 50, 82
2, 38400, Note_on_c, 0, 50, 0
2, 38400, Note_on_c, 0, 55, 0
2, 38640, Note_on_c, 0, 51, 40
2, 38640, Note_on_c, 0, 58, 40
2, 38730, Note_on_c, 0, 58, 0
2, 38730, Note_on_c, 0, 51, 0
2, 39120, Note_on_c, 0, 51, 40
2, 39120, Note_on_c, 0, 58, 40
2, 39210, Note_on_c, 0, 58, 0
2, 39210, Note_on_c, 0, 51, 0
2, 40560, Note_on_c, 0, 51, 39
2, 40560, Note_on_c, 0, 58, 39
2, 40650, Note_on_c, 0, 58, 0
2, 40650, Note_on_c, 0, 51, 0
2, 41040, Note_on_c, 0, 51, 36
2, 41040, Note_on_c, 0, 58, 36
2, 41130, Note_on_c, 0, 58, 0
2, 41130, Note_on_c, 0, 51, 0
2, 42480, Note_on_c, 0, 51, 39
2, 42480, Note_on_c, 0, 58, 39
2, 42570, Note_on_c, 0, 58, 0
2, 42570, Note_on_c, 0, 51, 0
2, 42960, Note_on_c, 0, 51, 36
2, 42960, Note_on_c, 0, 58, 36
2, 43050, Note_on_c, 0, 58, 0
2, 43050, Note_on_c, 0, 51, 0
2, 44340, Note_on_c, 0, 57, 25
2, 44400, Note_on_c, 0, 57, 0
2, 44400, Note_on_c, 0, 61, 30
2, 44400, Note_on_c, 0, 58, 25
2, 44460, Note_on_c, 0, 58, 0
2, 44460, Note_on_c, 0, 61, 0
2, 44820, Note_on_c, 0, 57, 25
2, 44880, Note_on_c, 0, 57, 0
2, 44880, Note_on_c, 0, 61, 30
2, 44880, Note_on_c, 0, 58, 25
2, 44940, Note_on_c, 0, 58, 0
2, 44940, Note_on_c, 0, 61, 0
2, 45300, Note_on_c, 0, 55, 25
2, 45360, Note_on_c, 0, 55, 0
2, 45360, Note_on_c, 0, 56, 28
2, 45360, Note_on_c, 0, 59, 33
2, 45420, Note_on_c, 0, 59, 0
2, 45420, Note_on_c, 0, 56, 0
2, 45780, Note_on_c, 0, 56, 25
2, 45840, Note_on_c, 0, 56, 0
2, 45840, Note_on_c, 0, 65, 38
2, 45840, Note_on_c, 0, 60, 38
2, 45840, Note_on_c, 0, 57, 32
2, 45900, Note_on_c, 0, 57, 0
2, 45900, Note_on_c, 0, 60, 0
2, 45900, Note_on_c, 0, 65, 0
2, 46260, Note_on_c, 0, 57, 25
2, 46320, Note_on_c, 0, 57, 0
2, 46320, Note_on_c, 0, 61, 30
2, 46320, Note_on_c, 0, 58, 25
2, 46380, Note_on_c, 0, 58, 0
2, 46380, Note_on_c, 0, 61, 0
2, 46740, Note_on_c, 0, 57, 25
2, 46800, Note_on_c, 0, 57, 0
2, 46800, Note_on_c, 0, 61, 30
2, 46800, Note_on_c, 0, 58, 25
2, 46860, Note_on_c, 0, 58, 0
2, 46860, Note_on_c, 0, 61, 0
2, 47220, Note_on_c, 0, 55, 25
2, 47280, Note_on_c, 0, 55, 0
2, 47280, Note_on_c, 0, 56, 28
2, 47280, Note_on_c, 0, 59, 33
2, 47340, Note_on_c, 0, 59, 0
2, 47340, Note_on_c, 0, 56, 0
2, 47700, Note_on_c, 0, 56, 25
2, 47760, Note_on_c, 0, 56, 0
2, 47760, Note_on_c, 0, 65, 38
2, 47760, Note_on_c, 0, 60, 38
2, 47760, Note_on_c, 0, 57, 32
2, 47820, Note_on_c, 0, 57, 0
2, 47820, Note_on_c, 0, 60, 0
2, 47820, Note_on_c, 0, 65, 0
2, 48180, Note_on_c, 0, 57, 25
2, 48240, Note_on_c, 0, 57, 0
2, 48240, Note_on_c, 0, 61, 30
2, 48240, Note_on_c, 0, 58, 25
2, 48300, Note_on_c, 0, 58, 0
2, 48300, Note_on_c, 0, 61, 0
2, 49380, Note_on_c, 0, 57, 25
2, 49440, Note_on_c, 0, 57, 0
2, 49440, Note_on_c, 0, 58, 28
2, 49440, Note_on_c, 0, 61, 33
2, 49500, Note_on_c, 0, 61, 0
2, 49500, Note_on_c, 0, 58, 0
2, 51300, Note_on_c, 0, 48, 21
2, 51360, Note_on_c, 0, 48, 0
2, 51360, Note_on_c, 0, 47, 22
2, 51360, Note_on_c, 0, 51, 27
2, 51420, Note_on_c, 0, 51, 0
2, 51420, Note_on_c, 0, 47, 0
2, 52020, Note_on_c, 0, 57, 25
2, 52080, Note_on_c, 0, 57, 0
2, 52080, Note_on_c, 0, 61, 30
2, 52080, Note_on_c, 0, 58, 25
2, 52140, Note_on_c, 0, 58, 0
2, 52140, Note_on_c, 0, 61, 0
2, 52500, Note_on_c, 0, 57, 25
2, 52560, Note_on_c, 0, 57, 0
2, 52560, Note_on_c, 0, 61, 30
2, 52560, Note_on_c, 0, 58, 25
2, 52620, Note_on_c, 0, 58, 0
2, 52620, Note_on_c, 0, 61, 0
2, 52980, Note_on_c, 0, 55, 25
2, 53040, Note_on_c, 0, 55, 0
2, 53040, Note_on_c, 0, 56, 28
2, 53040, Note_on_c, 0, 59, 33
2, 53100, Note_on_c, 0, 59, 0
2, 53100, Note_on_c, 0, 56, 0
2, 53460, Note_on_c, 0, 56, 25
2, 53520, Note_on_c, 0, 56, 0
2, 53520, Note_on_c, 0, 65, 38
2, 53520, Note_on_c, 0, 60, 38
2, 53520, Note_on_c, 0, 57, 32
2, 53580, Note_on_c, 0, 57, 0
2, 53580, Note_on_c, 0, 60, 0
2, 53580, Note_on_c, 0, 65, 0
2, 53940, Note_on_c, 0, 57, 25
2, 54000, Note_on_c, 0, 57, 0
2, 54000, Note_on_c, 0, 61, 30
2, 54000, Note_on_c, 0, 58, 25
2, 54060, Note_on_c, 0, 58, 0
2, 54060, Note_on_c, 0, 61, 0
2, 54420, Note_on_c, 0, 57, 25
2, 54480, Note_on_c, 0, 57, 0
2, 54480, Note_on_c, 0, 61, 30
2, 54480, Note_on_c, 0, 58, 25
2, 54540, Note_on_c, 0, 58, 0
2, 54540, Note_on_c, 0, 61, 0
2, 54900, Note_on_c, 0, 55, 25
2, 54960, Note_on_c, 0, 55, 0
2, 54960, Note_on_c, 0, 56, 28
2, 54960, Note_on_c, 0, 59, 33
2, 55020, Note_on_c, 0, 59, 0
2, 55020, Note_on_c, 0, 56, 0
2, 55380, Note_on_c, 0, 56, 25
2, 55440, Note_on_c, 0, 56, 0
2, 55440, Note_on_c, 0, 65, 38
2, 55440, Note_on_c, 0, 60, 38
2, 55440, Note_on_c, 0, 57, 32
2, 55500, Note_on_c, 0, 57, 0
2, 55500, Note_on_c, 0, 60, 0
2, 55500, Note_on_c, 0, 65, 0
2, 55860, Note_on_c, 0, 57, 25
2, 55920, Note_on_c, 0, 57, 0
2, 55920, Note_on_c, 0, 61, 30
2, 55920, Note_on_c, 0, 58, 25
2, 55980, Note_on_c, 0, 58, 0
2, 55980, Note_on_c, 0, 61, 0
2, 58080, Note_on_c, 0, 57, 46
2, 58560, Note_on_c, 0, 65, 63
2, 59280, Note_on_c, 0, 65, 0
2, 59280, Note_on_c, 0, 57, 0
2, 59280, Note_on_c, 0, 64, 68
2, 59280, Note_on_c, 0, 58, 68
2, 59520, Note_on_c, 0, 58, 0
2, 59520, Note_on_c, 0, 64, 0
2, 59520, Note_on_c, 0, 63, 49
2, 59520, Note_on_c, 0, 59, 41
2, 59700, Note_on_c, 0, 74, 25
2, 59760, Note_on_c, 0, 74, 0
2, 59760, Note_on_c, 0, 71, 28
2, 59760, Note_on_c, 0, 75, 33
2, 59820, Note_on_c, 0, 75, 0
2, 59820, Note_on_c, 0, 71, 0
2, 59940, Note_on_c, 0, 72, 25
2, 60000, Note_on_c, 0, 72, 0
2, 60000, Note_on_c, 0, 71, 28
2, 60000, Note_on_c, 0, 73, 33
2, 60060, Note_on_c, 0, 73, 0
2, 60060, Note_on_c, 0, 71, 0
2, 60180, Note_on_c, 0, 74, 25
2, 60240, Note_on_c, 0, 74, 0
2, 60240, Note_on_c, 0, 75, 38
2, 60240, Note_on_c, 0, 71, 38
2, 60300, Note_on_c, 0, 71, 0
2, 60300, Note_on_c, 0, 75, 0
2, 60480, Note_on_c, 0, 59, 0
2, 60480, Note_on_c, 0, 63, 0
2, 60660, Note_on_c, 0, 74, 25
2, 60720, Note_on_c, 0, 74, 0
2, 60720, Note_on_c, 0, 71, 28
2, 60720, Note_on_c, 0, 75, 33
2, 60780, Note_on_c, 0, 75, 0
2, 60780, Note_on_c, 0, 71, 0
2, 60900, Note_on_c, 0, 72, 25
2, 60960, Note_on_c, 0, 72, 0
2, 60960, Note_on_c, 0, 71, 28
2, 60960, Note_on_c, 0, 73, 33
2, 61020, Note_on_c, 0, 73, 0
2, 61020, Note_on_c, 0, 71, 0
2, 61140, Note_on_c, 0, 74, 25
2, 61200, Note_on_c, 0, 74, 0
2, 61200, Note_on_c, 0, 75, 38
2, 61200, Note_on_c, 0, 71, 38
2, 61260, Note_on_c, 0, 71, 0
2, 61260, Note_on_c, 0, 75, 0
2, 61920, Note_on_c, 0, 57, 46
2, 62400, Note_on_c, 0, 65, 63
2, 63120, Note_on_c, 0, 65, 0
2, 63120, Note_on_c, 0, 64, 68
2, 63360, Note_on_c, 0, 64, 0
2, 63360, Note_on_c, 0, 57, 0
2, 63360, Note_on_c, 0, 63, 49
2, 63360, Note_on_c, 0, 58, 41
2, 63540, Note_on_c, 0, 74, 25
2, 63600, Note_on_c, 0, 74, 0
2, 63600, Note_on_c, 0, 70, 28
2, 63600, Note_on_c, 0, 75, 33
2, 63660, Note_on_c, 0, 75, 0
2, 63660, Note_on_c, 0, 70, 0
2, 63780, Note_on_c, 0, 72, 25
2, 63840, Note_on_c, 0, 72, 0
2, 63840, Note_on_c, 0, 70, 28
2, 63840, Note_on_c, 0, 73, 33
2, 63900, Note_on_c, 0, 73, 0
2, 63900, Note_on_c, 0, 70, 0
2, 64020, Note_on_c, 0, 74, 25
2, 64080, Note_on_c, 0, 74, 0
2, 64080, Note_on_c, 0, 75, 38
2, 64080, Note_on_c, 0, 70, 38
2, 64140, Note_on_c, 0, 70, 0
2, 64140, Note_on_c, 0, 75, 0
2, 64320, Note_on_c, 0, 58, 0
2, 64320, Note_on_c, 0, 63, 0
2, 64500, Note_on_c, 0, 74, 25
2, 64560, Note_on_c, 0, 74, 0
2, 64560, Note_on_c, 0, 70, 28
2, 64560, Note_on_c, 0, 75, 33
2, 64620, Note_on_c, 0, 75, 0
2, 64620, Note_on_c, 0, 70, 0
2, 64740, Note_on_c, 0, 72, 25
2, 64800, Note_on_c, 0, 72, 0
2, 64800, Note_on_c, 0, 70, 28
2, 64800, Note_on_c, 0, 73, 33
2, 64860, Note_on_c, 0, 73, 0
2, 64860, Note_on_c, 0, 70, 0
2, 64980, Note_on_c, 0, 74, 25
2, 65040, Note_on_c, 0, 74, 0
2, 65040, Note_on_c, 0, 75, 38
2, 65040, Note_on_c, 0, 70, 38
2, 65100, Note_on_c, 0, 70, 0
2, 65100, Note_on_c, 0, 75, 0
2, 65760, Note_on_c, 0, 69, 50
2, 66240, Note_on_c, 0, 69, 0
2, 66240, Note_on_c, 0, 77, 63
2, 66480, Note_on_c, 0, 77, 0
2, 66480, Note_on_c, 0, 80, 74
2, 66960, Note_on_c, 0, 80, 0
2, 66960, Note_on_c, 0, 78, 68
2, 67200, Note_on_c, 0, 78, 0
2, 67200, Note_on_c, 0, 70, 57
2, 67200, Note_on_c, 0, 75, 68
2, 67320, Note_on_c, 0, 75, 0
2, 67320, Note_on_c, 0, 78, 74
2, 67440, Note_on_c, 0, 70, 0
2, 67440, Note_on_c, 0, 68, 72
2, 67560, Note_on_c, 0, 78, 0
2, 67560, Note_on_c, 0, 77, 68
2, 67680, Note_on_c, 0, 77, 0
2, 67680, Note_on_c, 0, 68, 0
2, 67680, Note_on_c, 0, 73, 78
2, 67680, Note_on_c, 0, 66, 66
2, 67920, Note_on_c, 0, 66, 0
2, 67920, Note_on_c, 0, 65, 57
2, 68160, Note_on_c, 0, 65, 0
2, 68160, Note_on_c, 0, 73, 0
2, 68160, Note_on_c, 0, 63, 48
2, 68160, Note_on_c, 0, 68, 57
2, 68280, Note_on_c, 0, 68, 0
2, 68280, Note_on_c, 0, 71, 61
2, 68400, Note_on_c, 0, 63, 0
2, 68400, Note_on_c, 0, 61, 55
2, 68520, Note_on_c, 0, 71, 0
2, 68520, Note_on_c, 0, 70, 57
2, 68640, Note_on_c, 0, 70, 0
2, 68640, Note_on_c, 0, 61, 0
2, 68640, Note_on_c, 0, 59, 42
2, 68640, Note_on_c, 0, 61, 50
2, 68880, Note_on_c, 0, 58, 42
2, 69120, Note_on_c, 0, 61, 0
2, 69360, Note_on_c, 0, 58, 0
2, 69600, Note_on_c, 0, 57, 46
2, 69840, Note_on_c, 0, 59, 0
2, 70080, Note_on_c, 0, 65, 63
2, 70560, Note_on_c, 0, 57, 0
2, 70560, Note_on_c, 0, 58, 68
2, 70800, Note_on_c, 0, 65, 0
2, 70800, Note_on_c, 0, 64, 68
2, 71040, Note_on_c, 0, 64, 0
2, 71040, Note_on_c, 0, 58, 0
2, 71040, Note_on_c, 0, 63, 49
2, 71040, Note_on_c, 0, 59, 41
2, 71220, Note_on_c, 0, 74, 25
2, 71280, Note_on_c, 0, 74, 0
2, 71280, Note_on_c, 0, 71, 28
2, 71280, Note_on_c, 0, 75, 33
2, 71340, Note_on_c, 0, 75, 0
2, 71340, Note_on_c, 0, 71, 0
2, 71460, Note_on_c, 0, 72, 25
2, 71520, Note_on_c, 0, 72, 0
2, 71520, Note_on_c, 0, 71, 28
2, 71520, Note_on_c, 0, 73, 33
2, 71580, Note_on_c, 0, 73, 0
2, 71580, Note_on_c, 0, 71, 0
2, 71700, Note_on_c, 0, 74, 25
2, 71760, Note_on_c, 0, 74, 0
2, 71760, Note_on_c, 0, 75, 38
2, 71760, Note_on_c, 0, 71, 38
2, 71820, Note_on_c, 0, 71, 0
2, 71820, Note_on_c, 0, 75, 0
2, 72000, Note_on_c, 0, 59, 0
2, 72000, Note_on_c, 0, 63, 0
2, 72480, Note_on_c, 0, 57, 46
2, 72960, Note_on_c, 0, 65, 63
2, 73680, Note_on_c, 0, 65, 0
2, 73680, Note_on_c, 0, 64, 53
2, 73920, Note_on_c, 0, 64, 0
2, 73920, Note_on_c, 0, 57, 0
2, 73920, Note_on_c, 0, 63, 49
2, 73920, Note_on_c, 0, 58, 41
2, 74100, Note_on_c, 0, 74, 25
2, 74160, Note_on_c, 0, 74, 0
2, 74160, Note_on_c, 0, 70, 28
2, 74160, Note_on_c, 0, 75, 33
2, 74220, Note_on_c, 0, 75, 0
2, 74220, Note_on_c, 0, 70, 0
2, 74340, Note_on_c, 0, 72, 25
2, 74400, Note_on_c, 0, 72, 0
2, 74400, Note_on_c, 0, 70, 28
2, 74400, Note_on_c, 0, 73, 33
2, 74460, Note_on_c, 0, 73, 0
2, 74460, Note_on_c, 0, 70, 0
2, 74580, Note_on_c, 0, 74, 25
2, 74640, Note_on_c, 0, 74, 0
2, 74640, Note_on_c, 0, 75, 38
2, 74640, Note_on_c, 0, 70, 38
2, 74700, Note_on_c, 0, 70, 0
2, 74700, Note_on_c, 0, 75, 0
2, 74880, Note_on_c, 0, 58, 0
2, 74880, Note_on_c, 0, 63, 0
2, 75360, Note_on_c, 0, 73, 50
2, 75840, Note_on_c, 0, 73, 0
2, 75840, Note_on_c, 0, 81, 63
2, 76080, Note_on_c, 0, 81, 0
2, 76080, Note_on_c, 0, 83, 74
2, 76560, Note_on_c, 0, 83, 0
2, 76560, Note_on_c, 0, 82, 68
2, 76800, Note_on_c, 0, 82, 0
2, 76800, Note_on_c, 0, 70, 57
2, 76800, Note_on_c, 0, 77, 68
2, 76920, Note_on_c, 0, 77, 0
2, 76920, Note_on_c, 0, 80, 74
2, 77040, Note_on_c, 0, 70, 0
2, 77040, Note_on_c, 0, 68, 72
2, 77160, Note_on_c, 0, 80, 0
2, 77160, Note_on_c, 0, 78, 68
2, 77280, Note_on_c, 0, 78, 0
2, 77280, Note_on_c, 0, 68, 0
2, 77280, Note_on_c, 0, 75, 78
2, 77280, Note_on_c, 0, 66, 66
2, 77520, Note_on_c, 0, 66, 0
2, 77520, Note_on_c, 0, 65, 57
2, 77760, Note_on_c, 0, 65, 0
2, 77760, Note_on_c, 0, 75, 0
2, 77760, Note_on_c, 0, 70, 57
2, 77880, Note_on_c, 0, 70, 0
2, 77880, Note_on_c, 0, 73, 61
2, 78120, Note_on_c, 0, 73, 0
2, 78120, Note_on_c, 0, 71, 57
2, 78240, Note_on_c, 0, 71, 0
2, 78240, Note_on_c, 0, 65, 50
2, 78600, Note_on_c, 0, 65, 0
2, 78600, Note_on_c, 0, 66, 50
2, 78720, Note_on_c, 0, 66, 0
2, 78720, Note_on_c, 0, 54, 31
2, 78720, Note_on_c, 0, 59, 31
2, 78720, Note_on_c, 0, 63, 31
2, 81000, Note_on_c, 0, 70, 43
2, 81120, Note_on_c, 0, 70, 0
2, 81120, Note_on_c, 0, 68, 47
2, 81360, Note_on_c, 0, 68, 0
2, 81360, Note_on_c, 0, 70, 41
2, 81600, Note_on_c, 0, 70, 0
2, 81960, Note_on_c, 0, 70, 43
2, 82080, Note_on_c, 0, 70, 0
2, 82080, Note_on_c, 0, 68, 47
2, 82320, Note_on_c, 0, 68, 0
2, 82320, Note_on_c, 0, 70, 41
2, 82560, Note_on_c, 0, 70, 0
2, 82560, Note_on_c, 0, 63, 0
2, 82560, Note_on_c, 0, 59, 0
2, 82560, Note_on_c, 0, 54, 0
2, 82560, Note_on_c, 0, 54, 31
2, 82560, Note_on_c, 0, 59, 31
2, 82560, Note_on_c, 0, 61, 31
2, 83520, Note_on_c, 0, 54, 0
2, 83520, Note_on_c, 0, 53, 31
2, 83880, Note_on_c, 0, 70, 34
2, 84000, Note_on_c, 0, 70, 0
2, 84000, Note_on_c, 0, 68, 39
2, 84240, Note_on_c, 0, 68, 0
2, 84240, Note_on_c, 0, 70, 34
2, 84480, Note_on_c, 0, 70, 0
2, 84840, Note_on_c, 0, 70, 33
2, 84960, Note_on_c, 0, 70, 0
2, 84960, Note_on_c, 0, 68, 40
2, 85200, Note_on_c, 0, 68, 0
2, 85200, Note_on_c, 0, 70, 32
2, 85440, Note_on_c, 0, 70, 0
2, 85440, Note_on_c, 0, 53, 0
2, 85440, Note_on_c, 0, 61, 0
2, 85440, Note_on_c, 0, 59, 0
2, 85440, Note_on_c, 0, 70, 39
2, 85560, Note_on_c, 0, 70, 0
2, 85560, Note_on_c, 0, 68, 34
2, 85680, Note_on_c, 0, 68, 0
2, 85800, Note_on_c, 0, 70, 42
2, 85920, Note_on_c, 0, 70, 0
2, 85920, Note_on_c, 0, 65, 45
2, 86040, Note_on_c, 0, 65, 0
2, 86160, Note_on_c, 0, 70, 48
2, 86250, Note_on_c, 0, 70, 0
2, 86400, Note_on_c, 0, 68, 39
2, 86520, Note_on_c, 0, 68, 0
2, 86520, Note_on_c, 0, 65, 34
2, 86640, Note_on_c, 0, 65, 0
2, 86760, Note_on_c, 0, 63, 42
2, 86880, Note_on_c, 0, 63, 0
2, 86880, Note_on_c, 0, 59, 45
2, 87000, Note_on_c, 0, 59, 0
2, 87120, Note_on_c, 0, 63, 48
2, 87210, Note_on_c, 0, 63, 0
2, 87360, Note_on_c, 0, 58, 80
2, 87450, Note_on_c, 0, 58, 0
2, 87480, Note_on_c, 0, 58, 74
2, 87600, Note_on_c, 0, 58, 0
2, 87720, Note_on_c, 0, 60, 74
2, 87840, Note_on_c, 0, 60, 0
2, 87840, Note_on_c, 0, 58, 76
2, 87960, Note_on_c, 0, 58, 0
2, 88050, Note_on_c, 0, 63, 68
2, 88080, Note_on_c, 0, 70, 80
2, 88170, Note_on_c, 0, 70, 0
2, 88170, Note_on_c, 0, 63, 0
2, 88320, Note_on_c, 0, 58, 80
2, 89280, Note_on_c, 0, 58, 0
2, 89280, Note_on_c, 0, 58, 64
2, 89400, Note_on_c, 0, 58, 0
2, 89400, Note_on_c, 0, 56, 57
2, 89520, Note_on_c, 0, 56, 0
2, 89640, Note_on_c, 0, 58, 56
2, 89760, Note_on_c, 0, 58, 0
2, 89760, Note_on_c, 0, 60, 64
2, 89850, Note_on_c, 0, 60, 0
2, 90000, Note_on_c, 0, 56, 53
2, 90090, Note_on_c, 0, 56, 0
2, 90240, Note_on_c, 0, 58, 64
2, 90360, Note_on_c, 0, 58, 0
2, 90360, Note_on_c, 0, 56, 57
2, 90480, Note_on_c, 0, 56, 0
2, 90600, Note_on_c, 0, 58, 56
2, 90720, Note_on_c, 0, 58, 0
2, 90720, Note_on_c, 0, 59, 64
2, 90810, Note_on_c, 0, 59, 0
2, 90960, Note_on_c, 0, 56, 53
2, 91050, Note_on_c, 0, 56, 0
2, 91200, Note_on_c, 0, 58, 64
2, 91320, Note_on_c, 0, 58, 0
2, 91320, Note_on_c, 0, 56, 59
2, 91440, Note_on_c, 0, 56, 0
2, 91560, Note_on_c, 0, 53, 59
2, 91650, Note_on_c, 0, 53, 0
2, 91680, Note_on_c, 0, 51, 61
2, 91800, Note_on_c, 0, 51, 0
2, 91920, Note_on_c, 0, 50, 65
2, 92040, Note_on_c, 0, 50, 0
2, 92160, Note_on_c, 0, 48, 71
2, 92280, Note_on_c, 0, 48, 0
2, 92400, Note_on_c, 0, 43, 68
2, 92520, Note_on_c, 0, 43, 0
2, 92640, Note_on_c, 0, 48, 76
2, 92760, Note_on_c, 0, 48, 0
2, 92880, Note_on_c, 0, 50, 80
2, 93000, Note_on_c, 0, 50, 0
2, 93120, Note_on_c, 0, 70, 80
2, 93240, Note_on_c, 0, 70, 0
2, 93240, Note_on_c, 0, 68, 74
2, 93360, Note_on_c, 0, 68, 0
2, 93360, Note_on_c, 0, 63, 45
2, 93360, Note_on_c, 0, 59, 45
2, 93480, Note_on_c, 0, 59, 0
2, 93480, Note_on_c, 0, 63, 0
2, 93480, Note_on_c, 0, 70, 74
2, 93600, Note_on_c, 0, 70, 0
2, 93600, Note_on_c, 0, 65, 76
2, 93720, Note_on_c, 0, 65, 0
2, 93840, Note_on_c, 0, 59, 45
2, 93840, Note_on_c, 0, 63, 45
2, 93840, Note_on_c, 0, 70, 80
2, 93930, Note_on_c, 0, 70, 0
2, 93960, Note_on_c, 0, 63, 0
2, 93960, Note_on_c, 0, 59, 0
2, 94080, Note_on_c, 0, 68, 80
2, 94200, Note_on_c, 0, 68, 0
2, 94200, Note_on_c, 0, 65, 80
2, 94320, Note_on_c, 0, 65, 0
2, 94320, Note_on_c, 0, 59, 45
2, 94410, Note_on_c, 0, 59, 0
2, 94440, Note_on_c, 0, 63, 74
2, 94560, Note_on_c, 0, 63, 0
2, 94560, Note_on_c, 0, 59, 80
2, 94680, Note_on_c, 0, 59, 0
2, 94800, Note_on_c, 0, 63, 80
2, 94800, Note_on_c, 0, 59, 72
2, 94860, Note_on_c, 0, 59, 0
2, 94860, Note_on_c, 0, 63, 0
2, 95040, Note_on_c, 0, 58, 80
2, 95130, Note_on_c, 0, 58, 0
2, 95160, Note_on_c, 0, 58, 74
2, 95280, Note_on_c, 0, 58, 0
2, 95400, Note_on_c, 0, 60, 74
2, 95520, Note_on_c, 0, 60, 0
2, 95520, Note_on_c, 0, 58, 76
2, 95640, Note_on_c, 0, 58, 0
2, 95730, Note_on_c, 0, 63, 68
2, 95760, Note_on_c, 0, 70, 80
2, 95850, Note_on_c, 0, 70, 0
2, 95850, Note_on_c, 0, 63, 0
2, 96000, Note_on_c, 0, 58, 80
2, 96960, Note_on_c, 0, 58, 0
2, 96960, Note_on_c, 0, 58, 55
2, 97050, Note_on_c, 0, 58, 0
2, 97080, Note_on_c, 0, 58, 49
2, 97200, Note_on_c, 0, 58, 0
2, 97320, Note_on_c, 0, 60, 53
2, 97440, Note_on_c, 0, 60, 0
2, 97440, Note_on_c, 0, 58, 61
2, 97530, Note_on_c, 0, 58, 0
2, 97680, Note_on_c, 0, 61, 53
2, 97770, Note_on_c, 0, 61, 0
2, 97920, Note_on_c, 0, 63, 64
2, 98010, Note_on_c, 0, 63, 0
2, 98160, Note_on_c, 0, 65, 61
2, 98250, Note_on_c, 0, 65, 0
2, 98400, Note_on_c, 0, 63, 65
2, 98490, Note_on_c, 0, 63, 0
2, 98640, Note_on_c, 0, 66, 71
2, 98730, Note_on_c, 0, 66, 0
2, 98880, Note_on_c, 0, 65, 80
2, 98970, Note_on_c, 0, 65, 0
2, 99000, Note_on_c, 0, 65, 74
2, 99120, Note_on_c, 0, 65, 0
2, 99240, Note_on_c, 0, 67, 74
2, 99360, Note_on_c, 0, 67, 0
2, 99360, Note_on_c, 0, 65, 76
2, 99570, Note_on_c, 0, 65, 0
2, 99570, Note_on_c, 0, 67, 68
2, 99600, Note_on_c, 0, 74, 80
2, 99690, Note_on_c, 0, 74, 0
2, 99690, Note_on_c, 0, 67, 0
2, 99840, Note_on_c, 0, 62, 72
2, 99840, Note_on_c, 0, 70, 85
2, 100320, Note_on_c, 0, 70, 0
2, 100320, Note_on_c, 0, 62, 0
2, 100320, Note_on_c, 0, 94, 106
2, 100320, Note_on_c, 0, 82, 90
2, 100560, Note_on_c, 0, 82, 0
2, 100560, Note_on_c, 0, 94, 0
2, 100800, Note_on_c, 0, 63, 64
2, 100800, Note_on_c, 0, 60, 54
2, 100920, Note_on_c, 0, 60, 0
2, 100920, Note_on_c, 0, 63, 0
2, 100920, Note_on_c, 0, 62, 48
2, 100920, Note_on_c, 0, 65, 57
2, 101160, Note_on_c, 0, 65, 0
2, 101160, Note_on_c, 0, 62, 0
2, 101160, Note_on_c, 0, 67, 56
2, 101160, Note_on_c, 0, 63, 47
2, 101280, Note_on_c, 0, 63, 0
2, 101280, Note_on_c, 0, 67, 0
2, 101280, Note_on_c, 0, 62, 54
2, 101280, Note_on_c, 0, 65, 64
2, 101370, Note_on_c, 0, 65, 0
2, 101370, Note_on_c, 0, 62, 0
2, 101520, Note_on_c, 0, 60, 45
2, 101520, Note_on_c, 0, 63, 53
2, 101610, Note_on_c, 0, 63, 0
2, 101610, Note_on_c, 0, 60, 0
2, 101760, Note_on_c, 0, 65, 53
2, 101760, Note_on_c, 0, 62, 45
2, 102240, Note_on_c, 0, 94, 64
2, 102240, Note_on_c, 0, 82, 54
2, 102480, Note_on_c, 0, 82, 0
2, 102480, Note_on_c, 0, 94, 0
2, 102720, Note_on_c, 0, 62, 0
2, 102720, Note_on_c, 0, 65, 0
2, 102720, Note_on_c, 0, 60, 54
2, 102720, Note_on_c, 0, 63, 64
2, 102840, Note_on_c, 0, 63, 0
2, 102840, Note_on_c, 0, 60, 0
2, 102840, Note_on_c, 0, 65, 57
2, 102840, Note_on_c, 0, 62, 48
2, 103080, Note_on_c, 0, 62, 0
2, 103080, Note_on_c, 0, 65, 0
2, 103080, Note_on_c, 0, 67, 56
2, 103080, Note_on_c, 0, 63, 47
2, 103200, Note_on_c, 0, 63, 0
2, 103200, Note_on_c, 0, 67, 0
2, 103200, Note_on_c, 0, 65, 64
2, 103200, Note_on_c, 0, 62, 54
2, 103290, Note_on_c, 0, 62, 0
2, 103290, Note_on_c, 0, 65, 0
2, 103440, Note_on_c, 0, 60, 45
2, 103440, Note_on_c, 0, 63, 53
2, 103530, Note_on_c, 0, 63, 0
2, 103530, Note_on_c, 0, 60, 0
2, 103680, Note_on_c, 0, 65, 53
2, 103680, Note_on_c, 0, 62, 45
2, 103800, Note_on_c, 0, 62, 0
2, 103800, Note_on_c, 0, 65, 0
2, 103920, Note_on_c, 0, 60, 53
2, 103920, Note_on_c, 0, 63, 53
2, 104160, Note_on_c, 0, 63, 0
2, 104160, Note_on_c, 0, 60, 0
2, 104160, Note_on_c, 0, 62, 53
2, 104160, Note_on_c, 0, 65, 53
2, 104400, Note_on_c, 0, 65, 0
2, 104400, Note_on_c, 0, 62, 0
2, 104400, Note_on_c, 0, 70, 53
2, 104400, Note_on_c, 0, 72, 53
2, 104400, Note_on_c, 0, 67, 53
2, 104520, Note_on_c, 0, 67, 0
2, 104520, Note_on_c, 0, 72, 0
2, 104520, Note_on_c, 0, 70, 0
2, 104640, Note_on_c, 0, 57, 36
2, 104640, Note_on_c, 0, 61, 36
2, 104640, Note_on_c, 0, 64, 42
2, 105600, Note_on_c, 0, 64, 0
2, 105600, Note_on_c, 0, 61, 0
2, 105600, Note_on_c, 0, 57, 0
2, 105600, Note_on_c, 0, 56, 36
2, 105600, Note_on_c, 0, 60, 36
2, 105600, Note_on_c, 0, 65, 42
2, 106560, Note_on_c, 0, 65, 0
2, 106560, Note_on_c, 0, 60, 0
2, 106560, Note_on_c, 0, 56, 0
2, 106560, Note_on_c, 0, 55, 30
2, 106560, Note_on_c, 0, 58, 36
2, 106560, Note_on_c, 0, 53, 30
2, 107520, Note_on_c, 0, 53, 0
2, 107520, Note_on_c, 0, 51, 30
2, 107760, Note_on_c, 0, 48, 69
2, 107880, Note_on_c, 0, 48, 0
2, 107880, Note_on_c, 0, 50, 73
2, 108000, Note_on_c, 0, 50, 0
2, 108000, Note_on_c, 0, 48, 76
2, 108120, Note_on_c, 0, 48, 0
2, 108480, Note_on_c, 0, 55, 0
2, 108480, Note_on_c, 0, 58, 0
2, 108480, Note_on_c, 0, 51, 0
2, 108480, Note_on_c, 0, 60, 54
2, 108480, Note_on_c, 0, 63, 64
2, 108600, Note_on_c, 0, 63, 0
2, 108600, Note_on_c, 0, 60, 0
2, 108600, Note_on_c, 0, 62, 48
2, 108600, Note_on_c, 0, 65, 57
2, 108840, Note_on_c, 0, 65, 0
2, 108840, Note_on_c, 0, 62, 0
2, 108840, Note_on_c, 0, 67, 56
2, 108840, Note_on_c, 0, 63, 47
2, 108960, Note_on_c, 0, 63, 0
2, 108960, Note_on_c, 0, 67, 0
2, 108960, Note_on_c, 0, 65, 64
2, 108960, Note_on_c, 0, 62, 54
2, 109050, Note_on_c, 0, 62, 0
2, 109050, Note_on_c, 0, 65, 0
2, 109200, Note_on_c, 0, 63, 53
2, 109200, Note_on_c, 0, 60, 45
2, 109290, Note_on_c, 0, 60, 0
2, 109290, Note_on_c, 0, 63, 0
2, 109440, Note_on_c, 0, 62, 45
2, 109440, Note_on_c, 0, 65, 53
2, 109920, Note_on_c, 0, 94, 64
2, 109920, Note_on_c, 0, 82, 54
2, 110160, Note_on_c, 0, 82, 0
2, 110160, Note_on_c, 0, 94, 0
2, 110400, Note_on_c, 0, 65, 0
2, 110400, Note_on_c, 0, 62, 0
2, 110400, Note_on_c, 0, 60, 54
2, 110400, Note_on_c, 0, 63, 64
2, 110520, Note_on_c, 0, 63, 0
2, 110520, Note_on_c, 0, 60, 0
2, 110520, Note_on_c, 0, 62, 48
2, 110520, Note_on_c, 0, 65, 57
2, 110760, Note_on_c, 0, 65, 0
2, 110760, Note_on_c, 0, 62, 0
2, 110760, Note_on_c, 0, 67, 56
2, 110760, Note_on_c, 0, 63, 47
2, 110880, Note_on_c, 0, 63, 0
2, 110880, Note_on_c, 0, 67, 0
2, 110880, Note_on_c, 0, 65, 64
2, 110880, Note_on_c, 0, 62, 54
2, 110970, Note_on_c, 0, 62, 0
2, 110970, Note_on_c, 0, 65, 0
2, 111120, Note_on_c, 0, 63, 53
2, 111120, Note_on_c, 0, 60, 45
2, 111210, Note_on_c, 0, 60, 0
2, 111210, Note_on_c, 0, 63, 0
2, 111360, Note_on_c, 0, 62, 45
2, 111360, Note_on_c, 0, 65, 53
2, 111480, Note_on_c, 0, 65, 0
2, 111480, Note_on_c, 0, 62, 0
2, 111600, Note_on_c, 0, 63, 53
2, 111600, Note_on_c, 0, 60, 53
2, 111840, Note_on_c, 0, 60, 0
2, 111840, Note_on_c, 0, 63, 0
2, 111840, Note_on_c, 0, 65, 53
2, 111840, Note_on_c, 0, 62, 53
2, 112080, Note_on_c, 0, 62, 0
2, 112080, Note_on_c, 0, 65, 0
2, 112080, Note_on_c, 0, 70, 53
2, 112080, Note_on_c, 0, 67, 53
2, 112080, Note_on_c, 0, 72, 53
2, 112200, Note_on_c, 0, 72, 0
2, 112200, Note_on_c, 0, 67, 0
2, 112200, Note_on_c, 0, 70, 0
2, 112320, Note_on_c, 0, 71, 60
2, 112320, Note_on_c, 0, 82, 80
2, 112320, Note_on_c, 0, 75, 60
2, 112440, Note_on_c, 0, 82, 0
2, 112440, Note_on_c, 0, 80, 74
2, 112560, Note_on_c, 0, 80, 0
2, 112680, Note_on_c, 0, 82, 74
2, 112800, Note_on_c, 0, 82, 0
2, 112800, Note_on_c, 0, 77, 76
2, 112920, Note_on_c, 0, 77, 0
2, 113040, Note_on_c, 0, 82, 80
2, 113130, Note_on_c, 0, 82, 0
2, 113280, Note_on_c, 0, 80, 80
2, 113400, Note_on_c, 0, 80, 0
2, 113400, Note_on_c, 0, 77, 80
2, 113520, Note_on_c, 0, 77, 0
2, 113640, Note_on_c, 0, 75, 74
2, 113760, Note_on_c, 0, 75, 0
2, 113760, Note_on_c, 0, 75, 0
2, 113760, Note_on_c, 0, 71, 0
2, 113760, Note_on_c, 0, 71, 80
2, 114240, Note_on_c, 0, 71, 0
2, 114360, Note_on_c, 0, 68, 80
2, 114480, Note_on_c, 0, 68, 0
2, 114480, Note_on_c, 0, 65, 79
2, 114600, Note_on_c, 0, 65, 0
2, 114600, Note_on_c, 0, 63, 84
2, 114720, Note_on_c, 0, 63, 0
2, 114720, Note_on_c, 0, 59, 86
2, 114840, Note_on_c, 0, 59, 0
2, 114960, Note_on_c, 0, 55, 97
2, 114960, Note_on_c, 0, 50, 82
2, 115200, Note_on_c, 0, 50, 0
2, 115200, Note_on_c, 0, 55, 0
2, 115440, Note_on_c, 0, 58, 40
2, 115440, Note_on_c, 0, 51, 40
2, 115530, Note_on_c, 0, 51, 0
2, 115530, Note_on_c, 0, 58, 0
2, 115920, Note_on_c, 0, 58, 40
2, 115920, Note_on_c, 0, 51, 40
2, 116010, Note_on_c, 0, 51, 0
2, 116010, Note_on_c, 0, 58, 0
2, 117360, Note_on_c, 0, 51, 33
2, 117360, Note_on_c, 0, 58, 33
2, 117450, Note_on_c, 0, 58, 0
2, 117450, Note_on_c, 0, 51, 0
2, 117840, Note_on_c, 0, 51, 30
2, 117840, Note_on_c, 0, 58, 30
2, 117930, Note_on_c, 0, 58, 0
2, 117930, Note_on_c, 0, 51, 0
2, 119280, Note_on_c, 0, 58, 28
2, 119280, Note_on_c, 0, 51, 28
2, 119370, Note_on_c, 0, 51, 0
2, 119370, Note_on_c, 0, 58, 0
2, 119760, Note_on_c, 0, 58, 25
2, 119760, Note_on_c, 0, 51, 25
2, 119850, Note_on_c, 0, 51, 0
2, 119850, Note_on_c, 0, 58, 0
2, 120480, Note_on_c, 0, 47, 70
2, 120720, Note_on_c, 0, 47, 0
2, 120720, Note_on_c, 0, 46, 75
2, 120780, Note_on_c, 0, 44, 77
2, 120786, Note_on_c, 0, 46, 0
2, 120840, Note_on_c, 0, 43, 79
2, 120846, Note_on_c, 0, 44, 0
2, 120900, Note_on_c, 0, 41, 81
2, 120906, Note_on_c, 0, 43, 0
2, 120960, Note_on_c, 0, 51, 85
2, 120966, Note_on_c, 0, 41, 0
2, 121200, Note_on_c, 0, 51, 0
2, 121920, Note_on_c, 0, 51, 89
2, 122160, Note_on_c, 0, 51, 0
2, 122160, End_track
3, 0, Start_track
3, 0, Title_t, "Piano left"
3, 0, Program_c, 0, 0
3, 0, Note_on_c, 0, 70, 68
3, 120, Note_on_c, 0, 70, 0
3, 120, Note_on_c, 0, 68, 62
3, 240, Note_on_c, 0, 68, 0
3, 360, Note_on_c, 0, 70, 62
3, 480, Note_on_c, 0, 70, 0
3, 480, Note_on_c, 0, 65, 64
3, 600, Note_on_c, 0, 65, 0
3, 720, Note_on_c, 0, 70, 68
3, 810, Note_on_c, 0, 70, 0
3, 960, Note_on_c, 0, 68, 68
3, 1080, Note_on_c, 0, 68, 0
3, 1080, Note_on_c, 0, 65, 68
3, 1200, Note_on_c, 0, 65, 0
3, 1320, Note_on_c, 0, 63, 62
3, 1440, Note_on_c, 0, 63, 0
3, 1440, Note_on_c, 0, 59, 68
3, 1920, Note_on_c, 0, 59, 0
3, 2040, Note_on_c, 0, 56, 65
3, 2160, Note_on_c, 0, 56, 0
3, 2160, Note_on_c, 0, 53, 65
3, 2280, Note_on_c, 0, 53, 0
3, 2280, Note_on_c, 0, 51, 67
3, 2400, Note_on_c, 0, 51, 0
3, 2400, Note_on_c, 0, 47, 71
3, 2880, Note_on_c, 0, 47, 0
3, 3000, Note_on_c, 0, 44, 65
3, 3120, Note_on_c, 0, 44, 0
3, 3120, Note_on_c, 0, 41, 65
3, 3240, Note_on_c, 0, 41, 0
3, 3240, Note_on_c, 0, 39, 67
3, 3360, Note_on_c, 0, 39, 0
3, 3360, Note_on_c, 0, 35, 71
3, 3600, Note_on_c, 0, 35, 0
3, 3600, Note_on_c, 0, 46, 78
3, 3600, Note_on_c, 0, 34, 66
3, 3840, Note_on_c, 0, 34, 0
3, 3840, Note_on_c, 0, 46, 0
3, 4800, Note_on_c, 0, 39, 40
3, 4800, Note_on_c, 0, 46, 40
3, 4890, Note_on_c, 0, 46, 0
3, 4890, Note_on_c, 0, 39, 0
3, 5040, Note_on_c, 0, 55, 33
3, 5040, Note_on_c, 0, 53, 33
3, 5130, Note_on_c, 0, 53, 0
3, 5130, Note_on_c, 0, 55, 0
3, 5280, Note_on_c, 0, 39, 40
3, 5280, Note_on_c, 0, 46, 40
3, 5370, Note_on_c, 0, 46, 0
3, 5370, Note_on_c, 0, 39, 0
3, 5520, Note_on_c, 0, 55, 35
3, 5520, Note_on_c, 0, 53, 35
3, 5610, Note_on_c, 0, 53, 0
3, 5610, Note_on_c, 0, 55, 0
3, 5760, Note_on_c, 0, 39, 40
3, 5760, Note_on_c, 0, 46, 40
3, 5850, Note_on_c, 0, 46, 0
3, 5850, Note_on_c, 0, 39, 0
3, 6000, Note_on_c, 0, 55, 33
3, 6000, Note_on_c, 0, 53, 33
3, 6090, Note_on_c, 0, 53, 0
3, 6090, Note_on_c, 0, 55, 0
3, 6240, Note_on_c, 0, 39, 40
3, 6240, Note_on_c, 0, 46, 40
3, 6330, Note_on_c, 0, 46, 0
3, 6330, Note_on_c, 0, 39, 0
3, 6480, Note_on_c, 0, 55, 33
3, 6480, Note_on_c, 0, 53, 33
3, 6570, Note_on_c, 0, 53, 0
3, 6570, Note_on_c, 0, 55, 0
3, 6720, Note_on_c, 0, 39, 40
3, 6720, Note_on_c, 0, 46, 40
3, 6810, Note_on_c, 0, 46, 0
3, 6810, Note_on_c, 0, 39, 0
3, 6960, Note_on_c, 0, 55, 35
3, 6960, Note_on_c, 0, 53, 35
3, 7050, Note_on_c, 0, 53, 0
3, 7050, Note_on_c, 0, 55, 0
3, 7200, Note_on_c, 0, 39, 40
3, 7200, Note_on_c, 0, 46, 40
3, 7290, Note_on_c, 0, 46, 0
3, 7290, Note_on_c, 0, 39, 0
3, 7440, Note_on_c, 0, 55, 33
3, 7440, Note_on_c, 0, 53, 33
3, 7530, Note_on_c, 0, 53, 0
3, 7530, Note_on_c, 0, 55, 0
3, 7680, Note_on_c, 0, 39, 34
3, 7680, Note_on_c, 0, 46, 34
3, 7770, Note_on_c, 0, 46, 0
3, 7770, Note_on_c, 0, 39, 0
3, 7920, Note_on_c, 0, 55, 27
3, 7920, Note_on_c, 0, 53, 27
3, 8010, Note_on_c, 0, 53, 0
3, 8010, Note_on_c, 0, 55, 0
3, 8160, Note_on_c, 0, 39, 31
3, 8160, Note_on_c, 0, 46, 31
3, 8250, Note_on_c, 0, 46, 0
3, 8250, Note_on_c, 0, 39, 0
3, 8400, Note_on_c, 0, 55, 24
3, 8400, Note_on_c, 0, 53, 24
3, 8490, Note_on_c, 0, 53, 0
3, 8490, Note_on_c, 0, 55, 0
3, 8640, Note_on_c, 0, 39, 40
3, 8640, Note_on_c, 0, 46, 40
3, 8730, Note_on_c, 0, 46, 0
3, 8730, Note_on_c, 0, 39, 0
3, 8880, Note_on_c, 0, 56, 33
3, 8880, Note_on_c, 0, 53, 33
3, 8970, Note_on_c, 0, 53, 0
3, 8970, Note_on_c, 0, 56, 0
3, 9120, Note_on_c, 0, 39, 40
3, 9120, Note_on_c, 0, 46, 40
3, 9210, Note_on_c, 0, 46, 0
3, 9210, Note_on_c, 0, 39, 0
3, 9360, Note_on_c, 0, 56, 35
3, 9360, Note_on_c, 0, 53, 35
3, 9450, Note_on_c, 0, 53, 0
3, 9450, Note_on_c, 0, 56, 0
3, 9600, Note_on_c, 0, 39, 40
3, 9600, Note_on_c, 0, 46, 40
3, 9690, Note_on_c, 0, 46, 0
3, 9690, Note_on_c, 0, 39, 0
3, 9840, Note_on_c, 0, 56, 33
3, 9840, Note_on_c, 0, 53, 33
3, 9930, Note_on_c, 0, 53, 0
3, 9930, Note_on_c, 0, 56, 0
3, 10080, Note_on_c, 0, 39, 40
3, 10080, Note_on_c, 0, 46, 40
3, 10170, Note_on_c, 0, 46, 0
3, 10170, Note_on_c, 0, 39, 0
3, 10320, Note_on_c, 0, 56, 33
3, 10320, Note_on_c, 0, 53, 33
3, 10410, Note_on_c, 0, 53, 0
3, 10410, Note_on_c, 0, 56, 0
3, 10560, Note_on_c, 0, 39, 34
3, 10560, Note_on_c, 0, 46, 40
3, 10650, Note_on_c, 0, 46, 0
3, 10650, Note_on_c, 0, 39, 0
3, 10800, Note_on_c, 0, 55, 33
3, 10800, Note_on_c, 0, 53, 28
3, 10890, Note_on_c, 0, 53, 0
3, 10890, Note_on_c, 0, 55, 0
3, 11040, Note_on_c, 0, 46, 47
3, 11040, Note_on_c, 0, 39, 39
3, 11130, Note_on_c, 0, 39, 0
3, 11130, Note_on_c, 0, 46, 0
3, 11280, Note_on_c, 0, 53, 34
3, 11280, Note_on_c, 0, 55, 41
3, 11370, Note_on_c, 0, 55, 0
3, 11370, Note_on_c, 0, 53, 0
3, 11520, Note_on_c, 0, 46, 50
3, 11520, Note_on_c, 0, 39, 42
3, 11610, Note_on_c, 0, 39, 0
3, 11610, Note_on_c, 0, 46, 0
3, 11760, Note_on_c, 0, 53, 34
3, 11760, Note_on_c, 0, 55, 40
3, 11850, Note_on_c, 0, 55, 0
3, 11850, Note_on_c, 0, 53, 0
3, 12000, Note_on_c, 0, 46, 43
3, 12000, Note_on_c, 0, 39, 36
3, 12090, Note_on_c, 0, 39, 0
3, 12090, Note_on_c, 0, 46, 0
3, 12240, Note_on_c, 0, 53, 29
3, 12240, Note_on_c, 0, 55, 35
3, 12330, Note_on_c, 0, 55, 0
3, 12330, Note_on_c, 0, 53, 0
3, 12480, Note_on_c, 0, 39, 40
3, 12480, Note_on_c, 0, 46, 40
3, 12570, Note_on_c, 0, 46, 0
3, 12570, Note_on_c, 0, 39, 0
3, 12720, Note_on_c, 0, 53, 33
3, 12720, Note_on_c, 0, 51, 33
3, 12810, Note_on_c, 0, 51, 0
3, 12810, Note_on_c, 0, 53, 0
3, 12960, Note_on_c, 0, 39, 40
3, 12960, Note_on_c, 0, 46, 40
3, 13050, Note_on_c, 0, 46, 0
3, 13050, Note_on_c, 0, 39, 0
3, 13200, Note_on_c, 0, 53, 35
3, 13200, Note_on_c, 0, 51, 35
3, 13290, Note_on_c, 0, 51, 0
3, 13290, Note_on_c, 0, 53, 0
3, 13440, Note_on_c, 0, 39, 40
3, 13440, Note_on_c, 0, 46, 40
3, 13530, Note_on_c, 0, 46, 0
3, 13530, Note_on_c, 0, 39, 0
3, 13680, Note_on_c, 0, 53, 33
3, 13680, Note_on_c, 0, 51, 33
3, 13770, Note_on_c, 0, 51, 0
3, 13770, Note_on_c, 0, 53, 0
3, 13920, Note_on_c, 0, 39, 40
3, 13920, Note_on_c, 0, 46, 40
3, 14010, Note_on_c, 0, 46, 0
3, 14010, Note_on_c, 0, 39, 0
3, 14160, Note_on_c, 0, 53, 35
3, 14160, Note_on_c, 0, 51, 35
3, 14250, Note_on_c, 0, 51, 0
3, 14250, Note_on_c, 0, 53, 0
3, 14400, Note_on_c, 0, 46, 54
3, 14520, Note_on_c, 0, 46, 0
3, 14520, Note_on_c, 0, 44, 50
3, 14640, Note_on_c, 0, 44, 0
3, 14760, Note_on_c, 0, 41, 50
3, 14850, Note_on_c, 0, 41, 0
3, 14880, Note_on_c, 0, 39, 51
3, 15000, Note_on_c, 0, 39, 0
3, 15120, Note_on_c, 0, 38, 55
3, 15240, Note_on_c, 0, 38, 0
3, 15360, Note_on_c, 0, 36, 60
3, 15480, Note_on_c, 0, 36, 0
3, 15600, Note_on_c, 0, 31, 57
3, 15720, Note_on_c, 0, 31, 0
3, 15840, Note_on_c, 0, 36, 64
3, 15960, Note_on_c, 0, 36, 0
3, 16080, Note_on_c, 0, 38, 68
3, 16200, Note_on_c, 0, 38, 0
3, 16320, Note_on_c, 0, 39, 40
3, 16320, Note_on_c, 0, 46, 40
3, 16410, Note_on_c, 0, 46, 0
3, 16410, Note_on_c, 0, 39, 0
3, 16560, Note_on_c, 0, 56, 33
3, 16560, Note_on_c, 0, 53, 33
3, 16650, Note_on_c, 0, 53, 0
3, 16650, Note_on_c, 0, 56, 0
3, 16800, Note_on_c, 0, 39, 40
3, 16800, Note_on_c, 0, 46, 40
3, 16890, Note_on_c, 0, 46, 0
3, 16890, Note_on_c, 0, 39, 0
3, 17040, Note_on_c, 0, 56, 35
3, 17040, Note_on_c, 0, 53, 35
3, 17130, Note_on_c, 0, 53, 0
3, 17130, Note_on_c, 0, 56, 0
3, 17280, Note_on_c, 0, 39, 40
3, 17280, Note_on_c, 0, 46, 40
3, 17370, Note_on_c, 0, 46, 0
3, 17370, Note_on_c, 0, 39, 0
3, 17520, Note_on_c, 0, 56, 33
3, 17520, Note_on_c, 0, 53, 33
3, 17610, Note_on_c, 0, 53, 0
3, 17610, Note_on_c, 0, 56, 0
3, 17760, Note_on_c, 0, 39, 40
3, 17760, Note_on_c, 0, 46, 40
3, 17850, Note_on_c, 0, 46, 0
3, 17850, Note_on_c, 0, 39, 0
3, 18000, Note_on_c, 0, 56, 33
3, 18000, Note_on_c, 0, 53, 33
3, 18090, Note_on_c, 0, 53, 0
3, 18090, Note_on_c, 0, 56, 0
3, 18240, Note_on_c, 0, 39, 34
3, 18240, Note_on_c, 0, 46, 40
3, 18330, Note_on_c, 0, 46, 0
3, 18330, Note_on_c, 0, 39, 0
3, 18480, Note_on_c, 0, 55, 33
3, 18480, Note_on_c, 0, 53, 28
3, 18570, Note_on_c, 0, 53, 0
3, 18570, Note_on_c, 0, 55, 0
3, 18720, Note_on_c, 0, 46, 47
3, 18720, Note_on_c, 0, 39, 39
3, 18810, Note_on_c, 0, 39, 0
3, 18810, Note_on_c, 0, 46, 0
3, 18960, Note_on_c, 0, 53, 34
3, 18960, Note_on_c, 0, 55, 41
3, 19050, Note_on_c, 0, 55, 0
3, 19050, Note_on_c, 0, 53, 0
3, 19200, Note_on_c, 0, 46, 50
3, 19200, Note_on_c, 0, 39, 42
3, 19290, Note_on_c, 0, 39, 0
3, 19290, Note_on_c, 0, 46, 0
3, 19440, Note_on_c, 0, 53, 34
3, 19440, Note_on_c, 0, 55, 40
3, 19530, Note_on_c, 0, 55, 0
3, 19530, Note_on_c, 0, 53, 0
3, 19680, Note_on_c, 0, 46, 43
3, 19680, Note_on_c, 0, 39, 36
3, 19770, Note_on_c, 0, 39, 0
3, 19770, Note_on_c, 0, 46, 0
3, 19920, Note_on_c, 0, 53, 29
3, 19920, Note_on_c, 0, 55, 35
3, 20010, Note_on_c, 0, 55, 0
3, 20010, Note_on_c, 0, 53, 0
3, 20160, Note_on_c, 0, 42, 34
3, 20160, Note_on_c, 0, 49, 40
3, 20250, Note_on_c, 0, 49, 0
3, 20250, Note_on_c, 0, 42, 0
3, 20400, Note_on_c, 0, 49, 28
3, 20400, Note_on_c, 0, 56, 33
3, 20400, Note_on_c, 0, 54, 28
3, 20460, Note_on_c, 0, 49, 0
3, 20490, Note_on_c, 0, 54, 0
3, 20490, Note_on_c, 0, 56, 0
3, 20640, Note_on_c, 0, 42, 34
3, 20640, Note_on_c, 0, 49, 40
3, 20730, Note_on_c, 0, 49, 0
3, 20730, Note_on_c, 0, 42, 0
3, 20880, Note_on_c, 0, 49, 29
3, 20880, Note_on_c, 0, 57, 35
3, 20880, Note_on_c, 0, 54, 29
3, 20940, Note_on_c, 0, 49, 0
3, 20970, Note_on_c, 0, 54, 0
3, 20970, Note_on_c, 0, 57, 0
3, 21120, Note_on_c, 0, 49, 43
3, 21120, Note_on_c, 0, 42, 36
3, 21210, Note_on_c, 0, 42, 0
3, 21210, Note_on_c, 0, 49, 0
3, 21360, Note_on_c, 0, 54, 31
3, 21360, Note_on_c, 0, 58, 37
3, 21360, Note_on_c, 0, 49, 31
3, 21420, Note_on_c, 0, 49, 0
3, 21450, Note_on_c, 0, 58, 0
3, 21450, Note_on_c, 0, 54, 0
3, 21600, Note_on_c, 0, 49, 45
3, 21600, Note_on_c, 0, 42, 38
3, 21690, Note_on_c, 0, 42, 0
3, 21690, Note_on_c, 0, 49, 0
3, 21840, Note_on_c, 0, 54, 35
3, 21840, Note_on_c, 0, 59, 42
3, 21840, Note_on_c, 0, 49, 35
3, 21900, Note_on_c, 0, 49, 0
3, 21930, Note_on_c, 0, 59, 0
3, 21930, Note_on_c, 0, 54, 0
3, 22320, Note_on_c, 0, 64, 67
3, 22320, Note_on_c, 0, 61, 42
3, 22410, Note_on_c, 0, 61, 0
3, 22440, Note_on_c, 0, 64, 0
3, 22560, Note_on_c, 0, 60, 57
3, 22560, Note_on_c, 0, 63, 64
3, 22800, Note_on_c, 0, 63, 0
3, 22800, Note_on_c, 0, 60, 0
3, 22800, Note_on_c, 0, 63, 58
3, 22800, Note_on_c, 0, 57, 49
3, 22800, Note_on_c, 0, 53, 49
3, 22860, Note_on_c, 0, 53, 0
3, 22890, Note_on_c, 0, 57, 0
3, 22890, Note_on_c, 0, 63, 0
3, 23040, Note_on_c, 0, 53, 62
3, 23040, Note_on_c, 0, 58, 73
3, 23040, Note_on_c, 0, 46, 62
3, 23280, Note_on_c, 0, 46, 0
3, 23280, Note_on_c, 0, 58, 0
3, 23280, Note_on_c, 0, 53, 0
3, 23520, Note_on_c, 0, 34, 60
3, 23520, Note_on_c, 0, 46, 71
3, 23760, Note_on_c, 0, 46, 0
3, 23760, Note_on_c, 0, 34, 0
3, 24000, Note_on_c, 0, 56, 40
3, 24000, Note_on_c, 0, 58, 40
3, 24090, Note_on_c, 0, 58, 0
3, 24090, Note_on_c, 0, 56, 0
3, 24240, Note_on_c, 0, 70, 33
3, 24240, Note_on_c, 0, 68, 33
3, 24330, Note_on_c, 0, 68, 0
3, 24330, Note_on_c, 0, 70, 0
3, 24480, Note_on_c, 0, 56, 40
3, 24480, Note_on_c, 0, 58, 40
3, 24570, Note_on_c, 0, 58, 0
3, 24570, Note_on_c, 0, 56, 0
3, 24720, Note_on_c, 0, 70, 35
3, 24720, Note_on_c, 0, 68, 35
3, 24810, Note_on_c, 0, 68, 0
3, 24810, Note_on_c, 0, 70, 0
3, 24960, Note_on_c, 0, 56, 40
3, 24960, Note_on_c, 0, 58, 40
3, 25050, Note_on_c, 0, 58, 0
3, 25050, Note_on_c, 0, 56, 0
3, 25200, Note_on_c, 0, 70, 33
3, 25200, Note_on_c, 0, 68, 33
3, 25290, Note_on_c, 0, 68, 0
3, 25290, Note_on_c, 0, 70, 0
3, 25440, Note_on_c, 0, 56, 40
3, 25440, Note_on_c, 0, 58, 40
3, 25530, Note_on_c, 0, 58, 0
3, 25530, Note_on_c, 0, 56, 0
3, 25680, Note_on_c, 0, 70, 35
3, 25680, Note_on_c, 0, 68, 35
3, 25770, Note_on_c, 0, 68, 0
3, 25770, Note_on_c, 0, 70, 0
3, 25920, Note_on_c, 0, 55, 40
3, 25920, Note_on_c, 0, 58, 40
3, 26010, Note_on_c, 0, 58, 0
3, 26010, Note_on_c, 0, 55, 0
3, 26160, Note_on_c, 0, 70, 33
3, 26250, Note_on_c, 0, 70, 0
3, 26400, Note_on_c, 0, 55, 40
3, 26400, Note_on_c, 0, 58, 40
3, 26490, Note_on_c, 0, 58, 0
3, 26490, Note_on_c, 0, 55, 0
3, 26640, Note_on_c, 0, 70, 35
3, 26730, Note_on_c, 0, 70, 0
3, 26880, Note_on_c, 0, 55, 40
3, 26880, Note_on_c, 0, 58, 40
3, 27000, Note_on_c, 0, 58, 0
3, 27000, Note_on_c, 0, 55, 0
3, 27120, Note_on_c, 0, 70, 33
3, 27210, Note_on_c, 0, 70, 0
3, 27360, Note_on_c, 0, 55, 40
3, 27360, Note_on_c, 0, 58, 40
3, 27600, Note_on_c, 0, 58, 0
3, 27600, Note_on_c, 0, 55, 0
3, 27600, Note_on_c, 0, 63, 35
3, 27690, Note_on_c, 0, 63, 0
3, 27840, Note_on_c, 0, 46, 44
3, 27960, Note_on_c, 0, 46, 0
3, 27960, Note_on_c, 0, 48, 39
3, 28080, Note_on_c, 0, 48, 0
3, 28200, Note_on_c, 0, 50, 39
3, 28320, Note_on_c, 0, 50, 0
3, 28320, Note_on_c, 0, 48, 44
3, 28440, Note_on_c, 0, 48, 0
3, 28560, Note_on_c, 0, 46, 37
3, 28650, Note_on_c, 0, 46, 0
3, 28800, Note_on_c, 0, 46, 44
3, 28920, Note_on_c, 0, 46, 0
3, 28920, Note_on_c, 0, 48, 39
3, 29040, Note_on_c, 0, 48, 0
3, 29160, Note_on_c, 0, 50, 39
3, 29280, Note_on_c, 0, 50, 0
3, 29280, Note_on_c, 0, 48, 44
3, 29400, Note_on_c, 0, 48, 0
3, 29520, Note_on_c, 0, 46, 37
3, 29610, Note_on_c, 0, 46, 0
3, 29760, Note_on_c, 0, 46, 37
3, 29880, Note_on_c, 0, 46, 0
3, 29880, Note_on_c, 0, 48, 33
3, 30000, Note_on_c, 0, 48, 0
3, 30120, Note_on_c, 0, 50, 33
3, 30240, Note_on_c, 0, 50, 0
3, 30240, Note_on_c, 0, 48, 37
3, 30360, Note_on_c, 0, 48, 0
3, 30480, Note_on_c, 0, 46, 31
3, 30570, Note_on_c, 0, 46, 0
3, 30840, Note_on_c, 0, 34, 65
3, 30960, Note_on_c, 0, 34, 0
3, 30960, Note_on_c, 0, 36, 65
3, 31080, Note_on_c, 0, 36, 0
3, 31080, Note_on_c, 0, 38, 67
3, 31200, Note_on_c, 0, 38, 0
3, 31200, Note_on_c, 0, 36, 68
3, 31320, Note_on_c, 0, 36, 0
3, 31440, Note_on_c, 0, 22, 55
3, 31440, Note_on_c, 0, 34, 62
3, 31530, Note_on_c, 0, 34, 0
3, 31530, Note_on_c, 0, 22, 0
3, 31680, Note_on_c, 0, 56, 40
3, 31680, Note_on_c, 0, 58, 40
3, 31770, Note_on_c, 0, 58, 0
3, 31770, Note_on_c, 0, 56, 0
3, 31920, Note_on_c, 0, 70, 33
3, 31920, Note_on_c, 0, 68, 33
3, 32010, Note_on_c, 0, 68, 0
3, 32010, Note_on_c, 0, 70, 0
3, 32160, Note_on_c, 0, 56, 40
3, 32160, Note_on_c, 0, 58, 40
3, 32250, Note_on_c, 0, 58, 0
3, 32250, Note_on_c, 0, 56, 0
3, 32400, Note_on_c, 0, 70, 35
3, 32400, Note_on_c, 0, 68, 35
3, 32490, Note_on_c, 0, 68, 0
3, 32490, Note_on_c, 0, 70, 0
3, 32640, Note_on_c, 0, 56, 40
3, 32640, Note_on_c, 0, 58, 40
3, 32730, Note_on_c, 0, 58, 0
3, 32730, Note_on_c, 0, 56, 0
3, 32880, Note_on_c, 0, 70, 33
3, 32880, Note_on_c, 0, 68, 33
3, 32970, Note_on_c, 0, 68, 0
3, 32970, Note_on_c, 0, 70, 0
3, 33120, Note_on_c, 0, 56, 40
3, 33120, Note_on_c, 0, 58, 40
3, 33210, Note_on_c, 0, 58, 0
3, 33210, Note_on_c, 0, 56, 0
3, 33360, Note_on_c, 0, 70, 35
3, 33360, Note_on_c, 0, 68, 35
3, 33450, Note_on_c, 0, 68, 0
3, 33450, Note_on_c, 0, 70, 0
3, 33600, Note_on_c, 0, 55, 40
3, 33600, Note_on_c, 0, 58, 40
3, 33690, Note_on_c, 0, 58, 0
3, 33690, Note_on_c, 0, 55, 0
3, 33840, Note_on_c, 0, 67, 33
3, 33840, Note_on_c, 0, 70, 33
3, 33930, Note_on_c, 0, 70, 0
3, 33930, Note_on_c, 0, 67, 0
3, 34080, Note_on_c, 0, 55, 40
3, 34080, Note_on_c, 0, 58, 40
3, 34170, Note_on_c, 0, 58, 0
3, 34170, Note_on_c, 0, 55, 0
3, 34320, Note_on_c, 0, 67, 33
3, 34320, Note_on_c, 0, 70, 35
3, 34410, Note_on_c, 0, 70, 0
3, 34410, Note_on_c, 0, 67, 0
3, 34560, Note_on_c, 0, 55, 40
3, 34560, Note_on_c, 0, 58, 40
3, 34680, Note_on_c, 0, 58, 0
3, 34680, Note_on_c, 0, 55, 0
3, 34800, Note_on_c, 0, 67, 33
3, 34800, Note_on_c, 0, 70, 33
3, 34890, Note_on_c, 0, 70, 0
3, 34890, Note_on_c, 0, 67, 0
3, 35040, Note_on_c, 0, 55, 40
3, 35040, Note_on_c, 0, 58, 40
3, 35280, Note_on_c, 0, 58, 0
3, 35280, Note_on_c, 0, 55, 0
3, 35280, Note_on_c, 0, 63, 35
3, 35370, Note_on_c, 0, 63, 0
3, 35520, Note_on_c, 0, 59, 51
3, 35520, Note_on_c, 0, 63, 51
3, 35520, Note_on_c, 0, 70, 68
3, 35640, Note_on_c, 0, 70, 0
3, 35640, Note_on_c, 0, 68, 62
3, 35760, Note_on_c, 0, 68, 0
3, 35880, Note_on_c, 0, 70, 62
3, 36000, Note_on_c, 0, 70, 0
3, 36000, Note_on_c, 0, 65, 64
3, 36120, Note_on_c, 0, 65, 0
3, 36240, Note_on_c, 0, 70, 68
3, 36330, Note_on_c, 0, 70, 0
3, 36480, Note_on_c, 0, 68, 68
3, 36600, Note_on_c, 0, 68, 0
3, 36600, Note_on_c, 0, 65, 68
3, 36720, Note_on_c, 0, 65, 0
3, 36840, Note_on_c, 0, 63, 62
3, 36960, Note_on_c, 0, 63, 0
3, 36960, Note_on_c, 0, 63, 0
3, 36960, Note_on_c, 0, 59, 0
3, 36960, Note_on_c, 0, 59, 68
3, 37440, Note_on_c, 0, 59, 0
3, 37560, Note_on_c, 0, 56, 65
3, 37680, Note_on_c, 0, 56, 0
3, 37680, Note_on_c, 0, 53, 65
3, 37800, Note_on_c, 0, 53, 0
3, 37800, Note_on_c, 0, 51, 67
3, 37920, Note_on_c, 0, 51, 0
3, 37920, Note_on_c, 0, 47, 71
3, 38040, Note_on_c, 0, 47, 0
3, 38160, Note_on_c, 0, 46, 78
3, 38160, Note_on_c, 0, 34, 66
3, 38400, Note_on_c, 0, 34, 0
3, 38400, Note_on_c, 0, 46, 0
3, 38640, Note_on_c, 0, 55, 33
3, 38640, Note_on_c, 0, 53, 33
3, 38730, Note_on_c, 0, 53, 0
3, 38730, Note_on_c, 0, 55, 0
3, 38880, Note_on_c, 0, 39, 40
3, 38880, Note_on_c, 0, 46, 40
3, 38970, Note_on_c, 0, 46, 0
3, 38970, Note_on_c, 0, 39, 0
3, 39120, Note_on_c, 0, 55, 33
3, 39120, Note_on_c, 0, 53, 33
3, 39210, Note_on_c, 0, 53, 0
3, 39210, Note_on_c, 0, 55, 0
3, 39360, Note_on_c, 0, 39, 34
3, 39360, Note_on_c, 0, 46, 40
3, 39840, Note_on_c, 0, 46, 0
3, 39840, Note_on_c, 0, 39, 0
3, 40560, Note_on_c, 0, 55, 32
3, 40560, Note_on_c, 0, 53, 32
3, 40650, Note_on_c, 0, 53, 0
3, 40650, Note_on_c, 0, 55, 0
3, 40800, Note_on_c, 0, 39, 38
3, 40800, Note_on_c, 0, 46, 38
3, 40890, Note_on_c, 0, 46, 0
3, 40890, Note_on_c, 0, 39, 0
3, 41040, Note_on_c, 0, 55, 29
3, 41040, Note_on_c, 0, 53, 29
3, 41130, Note_on_c, 0, 53, 0
3, 41130, Note_on_c, 0, 55, 0
3, 41280, Note_on_c, 0, 39, 29
3, 41280, Note_on_c, 0, 46, 34
3, 41760, Note_on_c, 0, 46, 0
3, 41760, Note_on_c, 0, 39, 0
3, 42480, Note_on_c, 0, 55, 32
3, 42480, Note_on_c, 0, 53, 32
3, 42570, Note_on_c, 0, 53, 0
3, 42570, Note_on_c, 0, 55, 0
3, 42720, Note_on_c, 0, 39, 38
3, 42720, Note_on_c, 0, 46, 38
3, 42810, Note_on_c, 0, 46, 0
3, 42810, Note_on_c, 0, 39, 0
3, 42960, Note_on_c, 0, 55, 30
3, 42960, Note_on_c, 0, 53, 30
3, 43050, Note_on_c, 0, 53, 0
3, 43050, Note_on_c, 0, 55, 0
3, 43200, Note_on_c, 0, 39, 34
3, 43680, Note_on_c, 0, 39, 0
3, 43680, Note_on_c, 0, 41, 34
3, 44160, Note_on_c, 0, 41, 0
3, 44160, Note_on_c, 0, 42, 30
3, 44160, Note_on_c, 0, 49, 30
3, 44280, Note_on_c, 0, 42, 0
3, 44640, Note_on_c, 0, 42, 29
3, 44760, Note_on_c, 0, 42, 0
3, 45120, Note_on_c, 0, 42, 30
3, 45240, Note_on_c, 0, 42, 0
3, 45600, Note_on_c, 0, 42, 29
3, 45720, Note_on_c, 0, 42, 0
3, 46020, Note_on_c, 0, 51, 24
3, 46080, Note_on_c, 0, 51, 0
3, 46080, Note_on_c, 0, 49, 0
3, 46080, Note_on_c, 0, 42, 30
3, 46080, Note_on_c, 0, 49, 30
3, 46200, Note_on_c, 0, 42, 0
3, 46560, Note_on_c, 0, 42, 29
3, 46680, Note_on_c, 0, 42, 0
3, 47040, Note_on_c, 0, 42, 30
3, 47160, Note_on_c, 0, 42, 0
3, 47520, Note_on_c, 0, 42, 29
3, 47640, Note_on_c, 0, 42, 0
3, 48000, Note_on_c, 0, 49, 0
3, 48000, Note_on_c, 0, 49, 30
3, 48240, Note_on_c, 0, 42, 29
3, 48360, Note_on_c, 0, 42, 0
3, 48480, Note_on_c, 0, 41, 29
3, 48600, Note_on_c, 0, 41, 0
3, 48720, Note_on_c, 0, 39, 29
3, 48840, Note_on_c, 0, 39, 0
3, 48960, Note_on_c, 0, 37, 37
3, 49200, Note_on_c, 0, 37, 0
3, 49920, Note_on_c, 0, 49, 0
3, 50160, Note_on_c, 0, 42, 29
3, 50280, Note_on_c, 0, 42, 0
3, 50400, Note_on_c, 0, 41, 29
3, 50520, Note_on_c, 0, 41, 0
3, 50640, Note_on_c, 0, 39, 29
3, 50760, Note_on_c, 0, 39, 0
3, 50880, Note_on_c, 0, 37, 37
3, 51000, Note_on_c, 0, 37, 0
3, 51120, Note_on_c, 0, 35, 32
3, 51240, Note_on_c, 0, 35, 0
3, 51360, Note_on_c, 0, 34, 30
3, 51480, Note_on_c, 0, 34, 0
3, 51600, Note_on_c, 0, 32, 30
3, 51720, Note_on_c, 0, 32, 0
3, 51840, Note_on_c, 0, 42, 30
3, 51840, Note_on_c, 0, 49, 30
3, 51960, Note_on_c, 0, 42, 0
3, 52320, Note_on_c, 0, 42, 29
3, 52440, Note_on_c, 0, 42, 0
3, 52800, Note_on_c, 0, 42, 30
3, 52920, Note_on_c, 0, 42, 0
3, 53280, Note_on_c, 0, 42, 29
3, 53400, Note_on_c, 0, 42, 0
3, 53700, Note_on_c, 0, 51, 24
3, 53760, Note_on_c, 0, 51, 0
3, 53760, Note_on_c, 0, 49, 0
3, 53760, Note_on_c, 0, 42, 30
3, 53760, Note_on_c, 0, 49, 30
3, 53880, Note_on_c, 0, 42, 0
3, 54240, Note_on_c, 0, 42, 29
3, 54360, Note_on_c, 0, 42, 0
3, 54720, Note_on_c, 0, 42, 30
3, 54840, Note_on_c, 0, 42, 0
3, 55200, Note_on_c, 0, 42, 29
3, 55320, Note_on_c, 0, 42, 0
3, 55680, Note_on_c, 0, 49, 0
3, 55680, Note_on_c, 0, 49, 30
3, 55920, Note_on_c, 0, 42, 29
3, 56040, Note_on_c, 0, 42, 0
3, 56160, Note_on_c, 0, 41, 29
3, 56280, Note_on_c, 0, 41, 0
3, 56400, Note_on_c, 0, 39, 29
3, 56520, Note_on_c, 0, 39, 0
3, 56640, Note_on_c, 0, 37, 37
3, 56880, Note_on_c, 0, 37, 0
3, 57840, Note_on_c, 0, 49, 0
3, 57840, Note_on_c, 0, 39, 37
3, 58080, Note_on_c, 0, 39, 0
3, 58080, Note_on_c, 0, 41, 41
3, 58320, Note_on_c, 0, 41, 0
3, 58320, Note_on_c, 0, 42, 38
3, 58560, Note_on_c, 0, 42, 0
3, 58560, Note_on_c, 0, 45, 49
3, 58800, Note_on_c, 0, 45, 0
3, 58800, Note_on_c, 0, 46, 42
3, 59040, Note_on_c, 0, 46, 0
3, 59040, Note_on_c, 0, 47, 55
3, 59280, Note_on_c, 0, 47, 0
3, 59280, Note_on_c, 0, 48, 46
3, 59520, Note_on_c, 0, 48, 0
3, 59520, Note_on_c, 0, 49, 29
3, 59520, Note_on_c, 0, 44, 24
3, 59760, Note_on_c, 0, 56, 29
3, 59760, Note_on_c, 0, 59, 29
3, 59760, Note_on_c, 0, 65, 29
3, 59820, Note_on_c, 0, 65, 0
3, 59820, Note_on_c, 0, 56, 0
3, 59820, Note_on_c, 0, 59, 0
3, 60000, Note_on_c, 0, 56, 29
3, 60000, Note_on_c, 0, 59, 29
3, 60000, Note_on_c, 0, 65, 29
3, 60060, Note_on_c, 0, 65, 0
3, 60060, Note_on_c, 0, 56, 0
3, 60060, Note_on_c, 0, 59, 0
3, 60240, Note_on_c, 0, 59, 29
3, 60240, Note_on_c, 0, 56, 29
3, 60240, Note_on_c, 0, 65, 29
3, 60300, Note_on_c, 0, 65, 0
3, 60300, Note_on_c, 0, 59, 0
3, 60300, Note_on_c, 0, 56, 0
3, 60480, Note_on_c, 0, 44, 0
3, 60480, Note_on_c, 0, 49, 0
3, 60720, Note_on_c, 0, 56, 29
3, 60720, Note_on_c, 0, 59, 29
3, 60720, Note_on_c, 0, 65, 29
3, 60780, Note_on_c, 0, 65, 0
3, 60780, Note_on_c, 0, 59, 0
3, 60780, Note_on_c, 0, 56, 0
3, 60960, Note_on_c, 0, 56, 29
3, 60960, Note_on_c, 0, 59, 29
3, 60960, Note_on_c, 0, 65, 29
3, 61020, Note_on_c, 0, 65, 0
3, 61020, Note_on_c, 0, 59, 0
3, 61020, Note_on_c, 0, 56, 0
3, 61200, Note_on_c, 0, 59, 29
3, 61200, Note_on_c, 0, 56, 29
3, 61200, Note_on_c, 0, 65, 29
3, 61260, Note_on_c, 0, 65, 0
3, 61260, Note_on_c, 0, 56, 0
3, 61260, Note_on_c, 0, 59, 0
3, 62400, Note_on_c, 0, 49, 29
3, 63360, Note_on_c, 0, 42, 24
3, 63600, Note_on_c, 0, 58, 29
3, 63600, Note_on_c, 0, 61, 29
3, 63600, Note_on_c, 0, 66, 29
3, 63660, Note_on_c, 0, 66, 0
3, 63660, Note_on_c, 0, 58, 0
3, 63660, Note_on_c, 0, 61, 0
3, 63840, Note_on_c, 0, 58, 29
3, 63840, Note_on_c, 0, 61, 29
3, 63840, Note_on_c, 0, 66, 29
3, 63900, Note_on_c, 0, 66, 0
3, 63900, Note_on_c, 0, 58, 0
3, 63900, Note_on_c, 0, 61, 0
3, 64080, Note_on_c, 0, 61, 29
3, 64080, Note_on_c, 0, 58, 29
3, 64080, Note_on_c, 0, 66, 29
3, 64140, Note_on_c, 0, 66, 0
3, 64140, Note_on_c, 0, 61, 0
3, 64140, Note_on_c, 0, 58, 0
3, 64320, Note_on_c, 0, 42, 0
3, 64320, Note_on_c, 0, 49, 0
3, 64560, Note_on_c, 0, 58, 29
3, 64560, Note_on_c, 0, 61, 29
3, 64560, Note_on_c, 0, 66, 29
3, 64620, Note_on_c, 0, 66, 0
3, 64620, Note_on_c, 0, 61, 0
3, 64620, Note_on_c, 0, 58, 0
3, 64800, Note_on_c, 0, 58, 29
3, 64800, Note_on_c, 0, 61, 29
3, 64800, Note_on_c, 0, 66, 29
3, 64860, Note_on_c, 0, 66, 0
3, 64860, Note_on_c, 0, 61, 0
3, 64860, Note_on_c, 0, 58, 0
3, 65040, Note_on_c, 0, 61, 29
3, 65040, Note_on_c, 0, 58, 29
3, 65040, Note_on_c, 0, 66, 29
3, 65100, Note_on_c, 0, 66, 0
3, 65100, Note_on_c, 0, 58, 0
3, 65100, Note_on_c, 0, 61, 0
3, 65760, Note_on_c, 0, 57, 42
3, 66240, Note_on_c, 0, 57, 0
3, 66240, Note_on_c, 0, 65, 53
3, 66480, Note_on_c, 0, 65, 0
3, 66480, Note_on_c, 0, 68, 62
3, 66960, Note_on_c, 0, 68, 0
3, 66960, Note_on_c, 0, 66, 57
3, 67200, Note_on_c, 0, 66, 0
3, 67200, Note_on_c, 0, 49, 29
3, 67440, Note_on_c, 0, 65, 49
3, 67440, Note_on_c, 0, 56, 41
3, 67440, Note_on_c, 0, 59, 41
3, 67680, Note_on_c, 0, 65, 0
3, 67680, Note_on_c, 0, 63, 49
3, 67920, Note_on_c, 0, 63, 0
3, 67920, Note_on_c, 0, 61, 41
3, 68160, Note_on_c, 0, 61, 0
3, 68160, Note_on_c, 0, 49, 0
3, 68160, Note_on_c, 0, 56, 0
3, 68160, Note_on_c, 0, 59, 0
3, 68160, Note_on_c, 0, 54, 41
3, 68160, Note_on_c, 0, 59, 34
3, 68400, Note_on_c, 0, 54, 0
3, 68400, Note_on_c, 0, 53, 41
3, 68640, Note_on_c, 0, 53, 0
3, 68640, Note_on_c, 0, 51, 36
3, 68880, Note_on_c, 0, 51, 0
3, 68880, Note_on_c, 0, 59, 0
3, 68880, Note_on_c, 0, 49, 34
3, 69120, Note_on_c, 0, 42, 29
3, 69360, Note_on_c, 0, 49, 0
3, 69360, Note_on_c, 0, 49, 34
3, 69840, Note_on_c, 0, 49, 0
3, 69840, Note_on_c, 0, 49, 34
3, 70080, Note_on_c, 0, 42, 0
3, 70080, Note_on_c, 0, 43, 29
3, 70320, Note_on_c, 0, 49, 0
3, 70320, Note_on_c, 0, 49, 42
3, 71040, Note_on_c, 0, 49, 0
3, 71040, Note_on_c, 0, 43, 0
3, 71040, Note_on_c, 0, 49, 29
3, 71040, Note_on_c, 0, 44, 24
3, 71280, Note_on_c, 0, 56, 29
3, 71280, Note_on_c, 0, 59, 29
3, 71280, Note_on_c, 0, 66, 29
3, 71340, Note_on_c, 0, 66, 0
3, 71340, Note_on_c, 0, 56, 0
3, 71340, Note_on_c, 0, 59, 0
3, 71520, Note_on_c, 0, 56, 29
3, 71520, Note_on_c, 0, 59, 29
3, 71520, Note_on_c, 0, 65, 29
3, 71580, Note_on_c, 0, 65, 0
3, 71580, Note_on_c, 0, 56, 0
3, 71580, Note_on_c, 0, 59, 0
3, 71760, Note_on_c, 0, 59, 29
3, 71760, Note_on_c, 0, 56, 29
3, 71760, Note_on_c, 0, 63, 29
3, 71820, Note_on_c, 0, 63, 0
3, 71820, Note_on_c, 0, 59, 0
3, 71820, Note_on_c, 0, 56, 0
3, 72000, Note_on_c, 0, 44, 0
3, 72000, Note_on_c, 0, 49, 0
3, 72240, Note_on_c, 0, 54, 34
3, 72480, Note_on_c, 0, 54, 0
3, 72480, Note_on_c, 0, 53, 34
3, 72720, Note_on_c, 0, 53, 0
3, 72720, Note_on_c, 0, 51, 34
3, 73440, Note_on_c, 0, 51, 0
3, 73440, Note_on_c, 0, 48, 32
3, 73920, Note_on_c, 0, 48, 0
3, 73920, Note_on_c, 0, 49, 29
3, 73920, Note_on_c, 0, 42, 24
3, 74160, Note_on_c, 0, 58, 29
3, 74160, Note_on_c, 0, 61, 29
3, 74160, Note_on_c, 0, 66, 29
3, 74220, Note_on_c, 0, 66, 0
3, 74220, Note_on_c, 0, 58, 0
3, 74220, Note_on_c, 0, 61, 0
3, 74400, Note_on_c, 0, 58, 29
3, 74400, Note_on_c, 0, 61, 29
3, 74400, Note_on_c, 0, 65, 29
3, 74460, Note_on_c, 0, 65, 0
3, 74460, Note_on_c, 0, 58, 0
3, 74460, Note_on_c, 0, 61, 0
3, 74640, Note_on_c, 0, 61, 29
3, 74640, Note_on_c, 0, 58, 29
3, 74640, Note_on_c, 0, 63, 29
3, 74700, Note_on_c, 0, 63, 0
3, 74700, Note_on_c, 0, 61, 0
3, 74700, Note_on_c, 0, 58, 0
3, 74880, Note_on_c, 0, 42, 0
3, 74880, Note_on_c, 0, 49, 0
3, 75360, Note_on_c, 0, 61, 42
3, 75840, Note_on_c, 0, 61, 0
3, 75840, Note_on_c, 0, 69, 53
3, 76080, Note_on_c, 0, 69, 0
3, 76080, Note_on_c, 0, 71, 62
3, 76560, Note_on_c, 0, 71, 0
3, 76560, Note_on_c, 0, 70, 57
3, 76800, Note_on_c, 0, 70, 0
3, 76800, Note_on_c, 0, 47, 29
3, 77040, Note_on_c, 0, 59, 41
3, 77040, Note_on_c, 0, 63, 49
3, 77040, Note_on_c, 0, 56, 30
3, 77040, Note_on_c, 0, 54, 30
3, 77760, Note_on_c, 0, 54, 0
3, 77760, Note_on_c, 0, 63, 0
3, 77760, Note_on_c, 0, 47, 0
3, 77760, Note_on_c, 0, 59, 0
3, 77760, Note_on_c, 0, 56, 0
3, 77760, Note_on_c, 0, 63, 41
3, 78000, Note_on_c, 0, 63, 0
3, 78000, Note_on_c, 0, 61, 41
3, 78240, Note_on_c, 0, 61, 0
3, 78240, Note_on_c, 0, 59, 36
3, 78400, Note_on_c, 0, 59, 0
3, 78400, Note_on_c, 0, 58, 36
3, 78560, Note_on_c, 0, 58, 0
3, 78560, Note_on_c, 0, 56, 36
3, 78720, Note_on_c, 0, 56, 0
3, 78720, Note_on_c, 0, 46, 31
3, 78840, Note_on_c, 0, 46, 0
3, 78840, Note_on_c, 0, 49, 41
3, 79080, Note_on_c, 0, 49, 0
3, 79080, Note_on_c, 0, 47, 37
3, 79200, Note_on_c, 0, 47, 0
3, 79200, Note_on_c, 0, 37, 31
3, 79800, Note_on_c, 0, 37, 0
3, 79800, Note_on_c, 0, 39, 33
3, 80040, Note_on_c, 0, 39, 0
3, 80040, Note_on_c, 0, 41, 27
3, 80160, Note_on_c, 0, 41, 0
3, 80160, Note_on_c, 0, 39, 34
3, 80400, Note_on_c, 0, 39, 0
3, 80400, Note_on_c, 0, 37, 31
3, 82560, Note_on_c, 0, 37, 0
3, 82560, Note_on_c, 0, 46, 31
3, 82680, Note_on_c, 0, 46, 0
3, 82680, Note_on_c, 0, 49, 41
3, 82920, Note_on_c, 0, 49, 0
3, 82920, Note_on_c, 0, 47, 37
3, 83040, Note_on_c, 0, 47, 0
3, 83040, Note_on_c, 0, 37, 31
3, 83160, Note_on_c, 0, 37, 0
3, 83160, Note_on_c, 0, 39, 30
3, 83400, Note_on_c, 0, 39, 0
3, 83400, Note_on_c, 0, 41, 33
3, 83520, Note_on_c, 0, 41, 0
3, 83520, Note_on_c, 0, 39, 30
3, 83753, Note_on_c, 0, 37, 27
3, 83760, Note_on_c, 0, 39, 0
3, 85433, Note_on_c, 0, 37, 0
3, 87360, Note_on_c, 0, 39, 34
3, 87360, Note_on_c, 0, 46, 40
3, 87450, Note_on_c, 0, 46, 0
3, 87450, Note_on_c, 0, 39, 0
3, 87600, Note_on_c, 0, 55, 33
3, 87600, Note_on_c, 0, 53, 28
3, 87690, Note_on_c, 0, 53, 0
3, 87690, Note_on_c, 0, 55, 0
3, 87840, Note_on_c, 0, 46, 47
3, 87840, Note_on_c, 0, 39, 39
3, 87930, Note_on_c, 0, 39, 0
3, 87930, Note_on_c, 0, 46, 0
3, 88080, Note_on_c, 0, 53, 34
3, 88080, Note_on_c, 0, 55, 41
3, 88170, Note_on_c, 0, 55, 0
3, 88170, Note_on_c, 0, 53, 0
3, 88320, Note_on_c, 0, 46, 50
3, 88320, Note_on_c, 0, 39, 42
3, 88410, Note_on_c, 0, 39, 0
3, 88410, Note_on_c, 0, 46, 0
3, 88560, Note_on_c, 0, 53, 34
3, 88560, Note_on_c, 0, 55, 40
3, 88650, Note_on_c, 0, 55, 0
3, 88650, Note_on_c, 0, 53, 0
3, 88800, Note_on_c, 0, 46, 43
3, 88800, Note_on_c, 0, 39, 36
3, 88890, Note_on_c, 0, 39, 0
3, 88890, Note_on_c, 0, 46, 0
3, 89040, Note_on_c, 0, 53, 29
3, 89040, Note_on_c, 0, 55, 35
3, 89130, Note_on_c, 0, 55, 0
3, 89130, Note_on_c, 0, 53, 0
3, 89280, Note_on_c, 0, 39, 40
3, 89280, Note_on_c, 0, 46, 40
3, 89370, Note_on_c, 0, 46, 0
3, 89370, Note_on_c, 0, 39, 0
3, 89520, Note_on_c, 0, 53, 33
3, 89520, Note_on_c, 0, 51, 33
3, 89610, Note_on_c, 0, 51, 0
3, 89610, Note_on_c, 0, 53, 0
3, 89760, Note_on_c, 0, 39, 40
3, 89760, Note_on_c, 0, 46, 40
3, 89850, Note_on_c, 0, 46, 0
3, 89850, Note_on_c, 0, 39, 0
3, 90000, Note_on_c, 0, 53, 35
3, 90000, Note_on_c, 0, 51, 35
3, 90090, Note_on_c, 0, 51, 0
3, 90090, Note_on_c, 0, 53, 0
3, 90240, Note_on_c, 0, 39, 40
3, 90240, Note_on_c, 0, 46, 40
3, 90330, Note_on_c, 0, 46, 0
3, 90330, Note_on_c, 0, 39, 0
3, 90480, Note_on_c, 0, 53, 33
3, 90480, Note_on_c, 0, 51, 33
3, 90570, Note_on_c, 0, 51, 0
3, 90570, Note_on_c, 0, 53, 0
3, 90720, Note_on_c, 0, 39, 40
3, 90720, Note_on_c, 0, 46, 40
3, 90810, Note_on_c, 0, 46, 0
3, 90810, Note_on_c, 0, 39, 0
3, 90960, Note_on_c, 0, 53, 35
3, 90960, Note_on_c, 0, 51, 35
3, 91050, Note_on_c, 0, 51, 0
3, 91050, Note_on_c, 0, 53, 0
3, 91200, Note_on_c, 0, 46, 54
3, 91320, Note_on_c, 0, 46, 0
3, 91320, Note_on_c, 0, 44, 50
3, 91440, Note_on_c, 0, 44, 0
3, 91560, Note_on_c, 0, 41, 50
3, 91650, Note_on_c, 0, 41, 0
3, 91680, Note_on_c, 0, 39, 51
3, 91800, Note_on_c, 0, 39, 0
3, 91920, Note_on_c, 0, 38, 55
3, 92040, Note_on_c, 0, 38, 0
3, 92160, Note_on_c, 0, 36, 60
3, 92280, Note_on_c, 0, 36, 0
3, 92400, Note_on_c, 0, 31, 57
3, 92520, Note_on_c, 0, 31, 0
3, 92640, Note_on_c, 0, 36, 64
3, 92760, Note_on_c, 0, 36, 0
3, 92880, Note_on_c, 0, 38, 68
3, 93000, Note_on_c, 0, 38, 0
3, 93120, Note_on_c, 0, 39, 40
3, 93120, Note_on_c, 0, 46, 40
3, 93210, Note_on_c, 0, 46, 0
3, 93210, Note_on_c, 0, 39, 0
3, 93360, Note_on_c, 0, 56, 33
3, 93360, Note_on_c, 0, 53, 33
3, 93450, Note_on_c, 0, 53, 0
3, 93450, Note_on_c, 0, 56, 0
3, 93600, Note_on_c, 0, 39, 40
3, 93600, Note_on_c, 0, 46, 40
3, 93690, Note_on_c, 0, 46, 0
3, 93690, Note_on_c, 0, 39, 0
3, 93840, Note_on_c, 0, 56, 35
3, 93840, Note_on_c, 0, 53, 35
3, 93930, Note_on_c, 0, 53, 0
3, 93930, Note_on_c, 0, 56, 0
3, 94080, Note_on_c, 0, 39, 40
3, 94080, Note_on_c, 0, 46, 40
3, 94170, Note_on_c, 0, 46, 0
3, 94170, Note_on_c, 0, 39, 0
3, 94320, Note_on_c, 0, 56, 33
3, 94320, Note_on_c, 0, 53, 33
3, 94410, Note_on_c, 0, 53, 0
3, 94410, Note_on_c, 0, 56, 0
3, 94560, Note_on_c, 0, 39, 40
3, 94560, Note_on_c, 0, 46, 40
3, 94650, Note_on_c, 0, 46, 0
3, 94650, Note_on_c, 0, 39, 0
3, 94800, Note_on_c, 0, 56, 33
3, 94800, Note_on_c, 0, 53, 33
3, 94860, Note_on_c, 0, 53, 0
3, 94860, Note_on_c, 0, 56, 0
3, 95040, Note_on_c, 0, 39, 34
3, 95040, Note_on_c, 0, 46, 40
3, 95130, Note_on_c, 0, 46, 0
3, 95130, Note_on_c, 0, 39, 0
3, 95280, Note_on_c, 0, 55, 33
3, 95280, Note_on_c, 0, 53, 28
3, 95370, Note_on_c, 0, 53, 0
3, 95370, Note_on_c, 0, 55, 0
3, 95520, Note_on_c, 0, 46, 47
3, 95520, Note_on_c, 0, 39, 39
3, 95610, Note_on_c, 0, 39, 0
3, 95610, Note_on_c, 0, 46, 0
3, 95760, Note_on_c, 0, 53, 34
3, 95760, Note_on_c, 0, 55, 41
3, 95850, Note_on_c, 0, 55, 0
3, 95850, Note_on_c, 0, 53, 0
3, 96000, Note_on_c, 0, 46, 50
3, 96000, Note_on_c, 0, 39, 42
3, 96090, Note_on_c, 0, 39, 0
3, 96090, Note_on_c, 0, 46, 0
3, 96240, Note_on_c, 0, 53, 34
3, 96240, Note_on_c, 0, 55, 40
3, 96330, Note_on_c, 0, 55, 0
3, 96330, Note_on_c, 0, 53, 0
3, 96480, Note_on_c, 0, 46, 43
3, 96480, Note_on_c, 0, 39, 36
3, 96570, Note_on_c, 0, 39, 0
3, 96570, Note_on_c, 0, 46, 0
3, 96720, Note_on_c, 0, 53, 29
3, 96720, Note_on_c, 0, 55, 35
3, 96810, Note_on_c, 0, 55, 0
3, 96810, Note_on_c, 0, 53, 0
3, 96960, Note_on_c, 0, 42, 34
3, 96960, Note_on_c, 0, 49, 40
3, 97050, Note_on_c, 0, 49, 0
3, 97050, Note_on_c, 0, 42, 0
3, 97200, Note_on_c, 0, 49, 28
3, 97200, Note_on_c, 0, 56, 33
3, 97200, Note_on_c, 0, 54, 28
3, 97260, Note_on_c, 0, 49, 0
3, 97290, Note_on_c, 0, 54, 0
3, 97290, Note_on_c, 0, 56, 0
3, 97440, Note_on_c, 0, 42, 34
3, 97440, Note_on_c, 0, 49, 40
3, 97530, Note_on_c, 0, 49, 0
3, 97530, Note_on_c, 0, 42, 0
3, 97680, Note_on_c, 0, 49, 29
3, 97680, Note_on_c, 0, 57, 35
3, 97680, Note_on_c, 0, 54, 29
3, 97740, Note_on_c, 0, 49, 0
3, 97770, Note_on_c, 0, 54, 0
3, 97770, Note_on_c, 0, 57, 0
3, 97920, Note_on_c, 0, 49, 43
3, 97920, Note_on_c, 0, 42, 36
3, 98010, Note_on_c, 0, 42, 0
3, 98010, Note_on_c, 0, 49, 0
3, 98160, Note_on_c, 0, 54, 31
3, 98160, Note_on_c, 0, 58, 37
3, 98160, Note_on_c, 0, 49, 31
3, 98220, Note_on_c, 0, 49, 0
3, 98250, Note_on_c, 0, 58, 0
3, 98250, Note_on_c, 0, 54, 0
3, 98400, Note_on_c, 0, 49, 45
3, 98400, Note_on_c, 0, 42, 38
3, 98490, Note_on_c, 0, 42, 0
3, 98490, Note_on_c, 0, 49, 0
3, 98640, Note_on_c, 0, 54, 35
3, 98640, Note_on_c, 0, 59, 42
3, 98640, Note_on_c, 0, 49, 35
3, 98700, Note_on_c, 0, 49, 0
3, 98730, Note_on_c, 0, 59, 0
3, 98730, Note_on_c, 0, 54, 0
3, 99120, Note_on_c, 0, 64, 67
3, 99120, Note_on_c, 0, 61, 42
3, 99210, Note_on_c, 0, 61, 0
3, 99240, Note_on_c, 0, 64, 0
3, 99360, Note_on_c, 0, 60, 57
3, 99360, Note_on_c, 0, 63, 64
3, 99600, Note_on_c, 0, 63, 0
3, 99600, Note_on_c, 0, 60, 0
3, 99600, Note_on_c, 0, 63, 58
3, 99600, Note_on_c, 0, 57, 49
3, 99600, Note_on_c, 0, 53, 49
3, 99660, Note_on_c, 0, 53, 0
3, 99690, Note_on_c, 0, 57, 0
3, 99690, Note_on_c, 0, 63, 0
3, 99840, Note_on_c, 0, 53, 62
3, 99840, Note_on_c, 0, 58, 73
3, 99840, Note_on_c, 0, 46, 62
3, 100080, Note_on_c, 0, 46, 0
3, 100080, Note_on_c, 0, 58, 0
3, 100080, Note_on_c, 0, 53, 0
3, 100320, Note_on_c, 0, 34, 60
3, 100320, Note_on_c, 0, 46, 71
3, 100560, Note_on_c, 0, 46, 0
3, 100560, Note_on_c, 0, 34, 0
3, 100800, Note_on_c, 0, 56, 40
3, 100800, Note_on_c, 0, 58, 40
3, 100890, Note_on_c, 0, 58, 0
3, 100890, Note_on_c, 0, 56, 0
3, 101040, Note_on_c, 0, 70, 33
3, 101040, Note_on_c, 0, 68, 33
3, 101130, Note_on_c, 0, 68, 0
3, 101130, Note_on_c, 0, 70, 0
3, 101280, Note_on_c, 0, 56, 40
3, 101280, Note_on_c, 0, 58, 40
3, 101370, Note_on_c, 0, 58, 0
3, 101370, Note_on_c, 0, 56, 0
3, 101520, Note_on_c, 0, 70, 35
3, 101520, Note_on_c, 0, 68, 35
3, 101610, Note_on_c, 0, 68, 0
3, 101610, Note_on_c, 0, 70, 0
3, 101760, Note_on_c, 0, 56, 40
3, 101760, Note_on_c, 0, 58, 40
3, 101850, Note_on_c, 0, 58, 0
3, 101850, Note_on_c, 0, 56, 0
3, 102000, Note_on_c, 0, 70, 33
3, 102000, Note_on_c, 0, 68, 33
3, 102090, Note_on_c, 0, 68, 0
3, 102090, Note_on_c, 0, 70, 0
3, 102240, Note_on_c, 0, 56, 40
3, 102240, Note_on_c, 0, 58, 40
3, 102330, Note_on_c, 0, 58, 0
3, 102330, Note_on_c, 0, 56, 0
3, 102480, Note_on_c, 0, 70, 35
3, 102480, Note_on_c, 0, 68, 35
3, 102570, Note_on_c, 0, 68, 0
3, 102570, Note_on_c, 0, 70, 0
3, 102720, Note_on_c, 0, 55, 40
3, 102720, Note_on_c, 0, 58, 40
3, 102810, Note_on_c, 0, 58, 0
3, 102810, Note_on_c, 0, 55, 0
3, 102960, Note_on_c, 0, 70, 33
3, 103050, Note_on_c, 0, 70, 0
3, 103200, Note_on_c, 0, 55, 40
3, 103200, Note_on_c, 0, 58, 40
3, 103290, Note_on_c, 0, 58, 0
3, 103290, Note_on_c, 0, 55, 0
3, 103440, Note_on_c, 0, 70, 35
3, 103530, Note_on_c, 0, 70, 0
3, 103680, Note_on_c, 0, 55, 40
3, 103680, Note_on_c, 0, 58, 40
3, 103800, Note_on_c, 0, 58, 0
3, 103800, Note_on_c, 0, 55, 0
3, 103920, Note_on_c, 0, 70, 33
3, 104010, Note_on_c, 0, 70, 0
3, 104160, Note_on_c, 0, 55, 40
3, 104160, Note_on_c, 0, 58, 40
3, 104400, Note_on_c, 0, 58, 0
3, 104400, Note_on_c, 0, 55, 0
3, 104400, Note_on_c, 0, 63, 35
3, 104490, Note_on_c, 0, 63, 0
3, 104640, Note_on_c, 0, 47, 44
3, 104760, Note_on_c, 0, 47, 0
3, 104760, Note_on_c, 0, 49, 39
3, 104880, Note_on_c, 0, 49, 0
3, 105000, Note_on_c, 0, 51, 39
3, 105120, Note_on_c, 0, 51, 0
3, 105120, Note_on_c, 0, 49, 44
3, 105240, Note_on_c, 0, 49, 0
3, 105360, Note_on_c, 0, 47, 37
3, 105450, Note_on_c, 0, 47, 0
3, 105600, Note_on_c, 0, 46, 44
3, 105720, Note_on_c, 0, 46, 0
3, 105720, Note_on_c, 0, 48, 39
3, 105840, Note_on_c, 0, 48, 0
3, 105960, Note_on_c, 0, 50, 39
3, 106080, Note_on_c, 0, 50, 0
3, 106080, Note_on_c, 0, 48, 44
3, 106200, Note_on_c, 0, 48, 0
3, 106320, Note_on_c, 0, 46, 37
3, 106410, Note_on_c, 0, 46, 0
3, 106560, Note_on_c, 0, 46, 37
3, 106680, Note_on_c, 0, 46, 0
3, 106680, Note_on_c, 0, 48, 33
3, 106800, Note_on_c, 0, 48, 0
3, 106920, Note_on_c, 0, 50, 33
3, 107040, Note_on_c, 0, 50, 0
3, 107040, Note_on_c, 0, 48, 37
3, 107160, Note_on_c, 0, 48, 0
3, 107280, Note_on_c, 0, 46, 31
3, 107370, Note_on_c, 0, 46, 0
3, 107640, Note_on_c, 0, 46, 70
3, 107640, Note_on_c, 0, 34, 70
3, 107760, Note_on_c, 0, 34, 0
3, 107760, Note_on_c, 0, 46, 0
3, 107760, Note_on_c, 0, 36, 70
3, 107880, Note_on_c, 0, 36, 0
3, 107880, Note_on_c, 0, 38, 73
3, 108000, Note_on_c, 0, 38, 0
3, 108000, Note_on_c, 0, 36, 78
3, 108120, Note_on_c, 0, 36, 0
3, 108240, Note_on_c, 0, 22, 74
3, 108240, Note_on_c, 0, 34, 83
3, 108330, Note_on_c, 0, 34, 0
3, 108330, Note_on_c, 0, 22, 0
3, 108480, Note_on_c, 0, 56, 40
3, 108480, Note_on_c, 0, 58, 40
3, 108570, Note_on_c, 0, 58, 0
3, 108570, Note_on_c, 0, 56, 0
3, 108720, Note_on_c, 0, 70, 33
3, 108720, Note_on_c, 0, 68, 33
3, 108810, Note_on_c, 0, 68, 0
3, 108810, Note_on_c, 0, 70, 0
3, 108960, Note_on_c, 0, 56, 40
3, 108960, Note_on_c, 0, 58, 40
3, 109050, Note_on_c, 0, 58, 0
3, 109050, Note_on_c, 0, 56, 0
3, 109200, Note_on_c, 0, 70, 35
3, 109200, Note_on_c, 0, 68, 35
3, 109290, Note_on_c, 0, 68, 0
3, 109290, Note_on_c, 0, 70, 0
3, 109440, Note_on_c, 0, 56, 40
3, 109440, Note_on_c, 0, 58, 40
3, 109530, Note_on_c, 0, 58, 0
3, 109530, Note_on_c, 0, 56, 0
3, 109680, Note_on_c, 0, 70, 33
3, 109680, Note_on_c, 0, 68, 33
3, 109770, Note_on_c, 0, 68, 0
3, 109770, Note_on_c, 0, 70, 0
3, 109920, Note_on_c, 0, 56, 40
3, 109920, Note_on_c, 0, 58, 40
3, 110010, Note_on_c, 0, 58, 0
3, 110010, Note_on_c, 0, 56, 0
3, 110160, Note_on_c, 0, 70, 35
3, 110160, Note_on_c, 0, 68, 35
3, 110250, Note_on_c, 0, 68, 0
3, 110250, Note_on_c, 0, 70, 0
3, 110400, Note_on_c, 0, 55, 40
3, 110400, Note_on_c, 0, 58, 40
3, 110490, Note_on_c, 0, 58, 0
3, 110490, Note_on_c, 0, 55, 0
3, 110640, Note_on_c, 0, 67, 33
3, 110640, Note_on_c, 0, 70, 33
3, 110730, Note_on_c, 0, 70, 0
3, 110730, Note_on_c, 0, 67, 0
3, 110880, Note_on_c, 0, 55, 40
3, 110880, Note_on_c, 0, 58, 40
3, 110970, Note_on_c, 0, 58, 0
3, 110970, Note_on_c, 0, 55, 0
3, 111120, Note_on_c, 0, 67, 33
3, 111120, Note_on_c, 0, 70, 35
3, 111210, Note_on_c, 0, 70, 0
3, 111210, Note_on_c, 0, 67, 0
3, 111360, Note_on_c, 0, 55, 40
3, 111360, Note_on_c, 0, 58, 40
3, 111480, Note_on_c, 0, 58, 0
3, 111480, Note_on_c, 0, 55, 0
3, 111600, Note_on_c, 0, 67, 33
3, 111600, Note_on_c, 0, 70, 33
3, 111690, Note_on_c, 0, 70, 0
3, 111690, Note_on_c, 0, 67, 0
3, 111840, Note_on_c, 0, 55, 40
3, 111840, Note_on_c, 0, 58, 40
3, 112080, Note_on_c, 0, 58, 0
3, 112080, Note_on_c, 0, 55, 0
3, 112080, Note_on_c, 0, 63, 35
3, 112170, Note_on_c, 0, 63, 0
3, 112320, Note_on_c, 0, 59, 51
3, 112320, Note_on_c, 0, 63, 51
3, 112320, Note_on_c, 0, 70, 68
3, 112440, Note_on_c, 0, 70, 0
3, 112440, Note_on_c, 0, 68, 62
3, 112560, Note_on_c, 0, 68, 0
3, 112680, Note_on_c, 0, 70, 62
3, 112800, Note_on_c, 0, 70, 0
3, 112800, Note_on_c, 0, 65, 64
3, 112920, Note_on_c, 0, 65, 0
3, 113040, Note_on_c, 0, 70, 68
3, 113130, Note_on_c, 0, 70, 0
3, 113280, Note_on_c, 0, 68, 68
3, 113400, Note_on_c, 0, 68, 0
3, 113400, Note_on_c, 0, 65, 68
3, 113520, Note_on_c, 0, 65, 0
3, 113640, Note_on_c, 0, 63, 62
3, 113760, Note_on_c, 0, 63, 0
3, 113760, Note_on_c, 0, 63, 0
3, 113760, Note_on_c, 0, 59, 0
3, 113760, Note_on_c, 0, 59, 68
3, 114240, Note_on_c, 0, 59, 0
3, 114360, Note_on_c, 0, 56, 65
3, 114480, Note_on_c, 0, 56, 0
3, 114480, Note_on_c, 0, 53, 65
3, 114600, Note_on_c, 0, 53, 0
3, 114600, Note_on_c, 0, 51, 67
3, 114720, Note_on_c, 0, 51, 0
3, 114720, Note_on_c, 0, 47, 71
3, 114840, Note_on_c, 0, 47, 0
3, 114960, Note_on_c, 0, 46, 78
3, 114960, Note_on_c, 0, 34, 66
3, 115200, Note_on_c, 0, 34, 0
3, 115200, Note_on_c, 0, 46, 0
3, 115440, Note_on_c, 0, 55, 33
3, 115440, Note_on_c, 0, 53, 33
3, 115530, Note_on_c, 0, 53, 0
3, 115530, Note_on_c, 0, 55, 0
3, 115680, Note_on_c, 0, 39, 40
3, 115680, Note_on_c, 0, 46, 40
3, 115770, Note_on_c, 0, 46, 0
3, 115770, Note_on_c, 0, 39, 0
3, 115920, Note_on_c, 0, 55, 33
3, 115920, Note_on_c, 0, 53, 33
3, 116010, Note_on_c, 0, 53, 0
3, 116010, Note_on_c, 0, 55, 0
3, 116160, Note_on_c, 0, 39, 34
3, 116160, Note_on_c, 0, 46, 40
3, 116640, Note_on_c, 0, 46, 0
3, 116640, Note_on_c, 0, 39, 0
3, 117360, Note_on_c, 0, 55, 27
3, 117360, Note_on_c, 0, 53, 27
3, 117450, Note_on_c, 0, 53, 0
3, 117450, Note_on_c, 0, 55, 0
3, 117600, Note_on_c, 0, 39, 32
3, 117600, Note_on_c, 0, 46, 32
3, 117690, Note_on_c, 0, 46, 0
3, 117690, Note_on_c, 0, 39, 0
3, 117840, Note_on_c, 0, 55, 24
3, 117840, Note_on_c, 0, 53, 24
3, 117930, Note_on_c, 0, 53, 0
3, 117930, Note_on_c, 0, 55, 0
3, 118080, Note_on_c, 0, 39, 24
3, 118080, Note_on_c, 0, 46, 28
3, 118560, Note_on_c, 0, 46, 0
3, 118560, Note_on_c, 0, 39, 0
3, 119280, Note_on_c, 0, 55, 22
3, 119280, Note_on_c, 0, 53, 22
3, 119370, Note_on_c, 0, 53, 0
3, 119370, Note_on_c, 0, 55, 0
3, 119520, Note_on_c, 0, 39, 27
3, 119520, Note_on_c, 0, 46, 27
3, 119610, Note_on_c, 0, 46, 0
3, 119610, Note_on_c, 0, 39, 0
3, 119760, Note_on_c, 0, 55, 21
3, 119760, Note_on_c, 0, 53, 21
3, 119850, Note_on_c, 0, 53, 0
3, 119850, Note_on_c, 0, 55, 0
3, 120480, Note_on_c, 0, 35, 59
3, 120720, Note_on_c, 0, 35, 0
3, 120720, Note_on_c, 0, 34, 63
3, 120780, Note_on_c, 0, 32, 65
3, 120786, Note_on_c, 0, 34, 0
3, 120840, Note_on_c, 0, 31, 67
3, 120846, Note_on_c, 0, 32, 0
3, 120900, Note_on_c, 0, 29, 68
3, 120906, Note_on_c, 0, 31, 0
3, 120960, Note_on_c, 0, 27, 61
3, 120960, Note_on_c, 0, 39, 72
3, 120966, Note_on_c, 0, 29, 0
3, 121200, Note_on_c, 0, 39, 0
3, 121200, Note_on_c, 0, 27, 0
3, 121920, Note_on_c, 0, 27, 62
3, 121920, Note_on_c, 0, 39, 74
3, 122160, Note_on_c, 0, 39, 0
3, 122160, Note_on_c, 0, 27, 0
3, 122160, End_track
4, 0, Start_track
4, 0, Title_t, "Pedale"
4, 0, Program_c, 0, 0
4, 2167, Control_c, 0, 64, 127
4, 2420, Control_c, 0, 64, 0
4, 3148, Control_c, 0, 64, 127
4, 3375, Control_c, 0, 64, 0
4, 5538, Control_c, 0, 64, 127
4, 5760, Control_c, 0, 64, 0
4, 6985, Control_c, 0, 64, 127
4, 7207, Control_c, 0, 64, 0
4, 8640, Control_c, 0, 64, 127
4, 8767, Control_c, 0, 64, 0
4, 9017, Control_c, 0, 64, 127
4, 9132, Control_c, 0, 64, 0
4, 9628, Control_c, 0, 64, 127
4, 9727, Control_c, 0, 64, 0
4, 9999, Control_c, 0, 64, 127
4, 10133, Control_c, 0, 64, 0
4, 10560, Control_c, 0, 64, 127
4, 11053, Control_c, 0, 64, 0
4, 12480, Control_c, 0, 64, 127
4, 12607, Control_c, 0, 64, 0
4, 12857, Control_c, 0, 64, 127
4, 12972, Control_c, 0, 64, 0
4, 13440, Control_c, 0, 64, 127
4, 13567, Control_c, 0, 64, 0
4, 13817, Control_c, 0, 64, 127
4, 13932, Control_c, 0, 64, 0
4, 14436, Control_c, 0, 64, 127
4, 14605, Control_c, 0, 64, 0
4, 14873, Control_c, 0, 64, 127
4, 14986, Control_c, 0, 64, 0
4, 15367, Control_c, 0, 64, 127
4, 15480, Control_c, 0, 64, 0
4, 15643, Control_c, 0, 64, 127
4, 15741, Control_c, 0, 64, 0
4, 15918, Control_c, 0, 64, 127
4, 15996, Control_c, 0, 64, 0
4, 16144, Control_c, 0, 64, 127
4, 16257, Control_c, 0, 64, 0
4, 16320, Control_c, 0, 64, 127
4, 16447, Control_c, 0, 64, 0
4, 16697, Control_c, 0, 64, 127
4, 16812, Control_c, 0, 64, 0
4, 17308, Control_c, 0, 64, 127
4, 17407, Control_c, 0, 64, 0
4, 17679, Control_c, 0, 64, 127
4, 17813, Control_c, 0, 64, 0
4, 18240, Control_c, 0, 64, 127
4, 18733, Control_c, 0, 64, 0
4, 20160, Control_c, 0, 64, 127
4, 20287, Control_c, 0, 64, 0
4, 20537, Control_c, 0, 64, 127
4, 20652, Control_c, 0, 64, 0
4, 22080, Control_c, 0, 64, 127
4, 22573, Control_c, 0, 64, 0
4, 22860, Control_c, 0, 64, 127
4, 23040, Control_c, 0, 64, 0
4, 23220, Control_c, 0, 64, 127
4, 23760, Control_c, 0, 64, 0
4, 24000, Control_c, 0, 64, 127
4, 24127, Control_c, 0, 64, 0
4, 24377, Control_c, 0, 64, 127
4, 24492, Control_c, 0, 64, 0
4, 24998, Control_c, 0, 64, 127
4, 25320, Control_c, 0, 64, 0
4, 25510, Control_c, 0, 64, 127
4, 25920, Control_c, 0, 64, 0
4, 25983, Control_c, 0, 64, 127
4, 26047, Control_c, 0, 64, 0
4, 26297, Control_c, 0, 64, 127
4, 26412, Control_c, 0, 64, 0
4, 27430, Control_c, 0, 64, 127
4, 27840, Control_c, 0, 64, 0
4, 31680, Control_c, 0, 64, 127
4, 31807, Control_c, 0, 64, 0
4, 32057, Control_c, 0, 64, 127
4, 32172, Control_c, 0, 64, 0
4, 32678, Control_c, 0, 64, 127
4, 33000, Control_c, 0, 64, 0
4, 33190, Control_c, 0, 64, 127
4, 33600, Control_c, 0, 64, 0
4, 33663, Control_c, 0, 64, 127
4, 33727, Control_c, 0, 64, 0
4, 33977, Control_c, 0, 64, 127
4, 34092, Control_c, 0, 64, 0
4, 35110, Control_c, 0, 64, 127
4, 35520, Control_c, 0, 64, 0
4, 37708, Control_c, 0, 64, 127
4, 37935, Control_c, 0, 64, 0
4, 38400, Control_c, 0, 64, 0
4, 39360, Control_c, 0, 64, 127
4, 39840, Control_c, 0, 64, 0
4, 40320, Control_c, 0, 64, 0
4, 41280, Control_c, 0, 64, 127
4, 41760, Control_c, 0, 64, 0
4, 42240, Control_c, 0, 64, 0
4, 43200, Control_c, 0, 64, 127
4, 43680, Control_c, 0, 64, 0
4, 58165, Control_c, 0, 64, 127
4, 58333, Control_c, 0, 64, 0
4, 58433, Control_c, 0, 64, 127
4, 58572, Control_c, 0, 64, 0
4, 58640, Control_c, 0, 64, 127
4, 58821, Control_c, 0, 64, 0
4, 58915, Control_c, 0, 64, 127
4, 59063, Control_c, 0, 64, 0
4, 59177, Control_c, 0, 64, 127
4, 59293, Control_c, 0, 64, 0
4, 59372, Control_c, 0, 64, 127
4, 59528, Control_c, 0, 64, 0
4, 62005, Control_c, 0, 64, 127
4, 63133, Control_c, 0, 64, 0
4, 63212, Control_c, 0, 64, 127
4, 63368, Control_c, 0, 64, 0
4, 63560, Control_c, 0, 64, 127
4, 63632, Control_c, 0, 64, 0
4, 63806, Control_c, 0, 64, 127
4, 63869, Control_c, 0, 64, 0
4, 64029, Control_c, 0, 64, 127
4, 64177, Control_c, 0, 64, 0
4, 64512, Control_c, 0, 64, 127
4, 64575, Control_c, 0, 64, 0
4, 64752, Control_c, 0, 64, 127
4, 64820, Control_c, 0, 64, 0
4, 64989, Control_c, 0, 64, 127
4, 65069, Control_c, 0, 64, 0
4, 66300, Control_c, 0, 64, 127
4, 66973, Control_c, 0, 64, 0
4, 67052, Control_c, 0, 64, 127
4, 67200, Control_c, 0, 64, 0
4, 67271, Control_c, 0, 64, 127
4, 67687, Control_c, 0, 64, 0
4, 67765, Control_c, 0, 64, 127
4, 68160, Control_c, 0, 64, 0
4, 68231, Control_c, 0, 64, 127
4, 68647, Control_c, 0, 64, 0
4, 68725, Control_c, 0, 64, 127
4, 69120, Control_c, 0, 64, 0
4, 69685, Control_c, 0, 64, 127
4, 69853, Control_c, 0, 64, 0
4, 69953, Control_c, 0, 64, 127
4, 70092, Control_c, 0, 64, 0
4, 70160, Control_c, 0, 64, 127
4, 70341, Control_c, 0, 64, 0
4, 70435, Control_c, 0, 64, 127
4, 70583, Control_c, 0, 64, 0
4, 70697, Control_c, 0, 64, 127
4, 70813, Control_c, 0, 64, 0
4, 70892, Control_c, 0, 64, 127
4, 71048, Control_c, 0, 64, 0
4, 72565, Control_c, 0, 64, 127
4, 72733, Control_c, 0, 64, 0
4, 72833, Control_c, 0, 64, 127
4, 72972, Control_c, 0, 64, 0
4, 73040, Control_c, 0, 64, 127
4, 73221, Control_c, 0, 64, 0
4, 73315, Control_c, 0, 64, 127
4, 73463, Control_c, 0, 64, 0
4, 73577, Control_c, 0, 64, 127
4, 73693, Control_c, 0, 64, 0
4, 73772, Control_c, 0, 64, 127
4, 73928, Control_c, 0, 64, 0
4, 74109, Control_c, 0, 64, 127
4, 74252, Control_c, 0, 64, 0
4, 74395, Control_c, 0, 64, 127
4, 74460, Control_c, 0, 64, 0
4, 74617, Control_c, 0, 64, 127
4, 74732, Control_c, 0, 64, 0
4, 75900, Control_c, 0, 64, 127
4, 76573, Control_c, 0, 64, 0
4, 76652, Control_c, 0, 64, 127
4, 76800, Control_c, 0, 64, 0
4, 76871, Control_c, 0, 64, 127
4, 77287, Control_c, 0, 64, 0
4, 77365, Control_c, 0, 64, 127
4, 77760, Control_c, 0, 64, 0
4, 77831, Control_c, 0, 64, 127
4, 78247, Control_c, 0, 64, 0
4, 78325, Control_c, 0, 64, 127
4, 78720, Control_c, 0, 64, 0
4, 78798, Control_c, 0, 64, 127
4, 79095, Control_c, 0, 64, 0
4, 81092, Control_c, 0, 64, 127
4, 81960, Control_c, 0, 64, 0
4, 82052, Control_c, 0, 64, 127
4, 82560, Control_c, 0, 64, 0
4, 82638, Control_c, 0, 64, 127
4, 82935, Control_c, 0, 64, 0
4, 83111, Control_c, 0, 64, 127
4, 83411, Control_c, 0, 64, 0
4, 83965, Control_c, 0, 64, 127
4, 84850, Control_c, 0, 64, 0
4, 84925, Control_c, 0, 64, 127
4, 85440, Control_c, 0, 64, 0
4, 87360, Control_c, 0, 64, 127
4, 87853, Control_c, 0, 64, 0
4, 89280, Control_c, 0, 64, 127
4, 89407, Control_c, 0, 64, 0
4, 89657, Control_c, 0, 64, 127
4, 89772, Control_c, 0, 64, 0
4, 90240, Control_c, 0, 64, 127
4, 90367, Control_c, 0, 64, 0
4, 90617, Control_c, 0, 64, 127
4, 90732, Control_c, 0, 64, 0
4, 91236, Control_c, 0, 64, 127
4, 91405, Control_c, 0, 64, 0
4, 91673, Control_c, 0, 64, 127
4, 91786, Control_c, 0, 64, 0
4, 92167, Control_c, 0, 64, 127
4, 92280, Control_c, 0, 64, 0
4, 92443, Control_c, 0, 64, 127
4, 92541, Control_c, 0, 64, 0
4, 92718, Control_c, 0, 64, 127
4, 92796, Control_c, 0, 64, 0
4, 92944, Control_c, 0, 64, 127
4, 93057, Control_c, 0, 64, 0
4, 93120, Control_c, 0, 64, 127
4, 93247, Control_c, 0, 64, 0
4, 93497, Control_c, 0, 64, 127
4, 93612, Control_c, 0, 64, 0
4, 94108, Control_c, 0, 64, 127
4, 94207, Control_c, 0, 64, 0
4, 94479, Control_c, 0, 64, 127
4, 94613, Control_c, 0, 64, 0
4, 95040, Control_c, 0, 64, 127
4, 95533, Control_c, 0, 64, 0
4, 96960, Control_c, 0, 64, 127
4, 97087, Control_c, 0, 64, 0
4, 97337, Control_c, 0, 64, 127
4, 97452, Control_c, 0, 64, 0
4, 98880, Control_c, 0, 64, 127
4, 99373, Control_c, 0, 64, 0
4, 99660, Control_c, 0, 64, 127
4, 99840, Control_c, 0, 64, 0
4, 100020, Control_c, 0, 64, 127
4, 100560, Control_c, 0, 64, 0
4, 100800, Control_c, 0, 64, 127
4, 100927, Control_c, 0, 64, 0
4, 101177, Control_c, 0, 64, 127
4, 101292, Control_c, 0, 64, 0
4, 101798, Control_c, 0, 64, 127
4, 102120, Control_c, 0, 64, 0
4, 102310, Control_c, 0, 64, 127
4, 102720, Control_c, 0, 64, 0
4, 102783, Control_c, 0, 64, 127
4, 102847, Control_c, 0, 64, 0
4, 103097, Control_c, 0, 64, 127
4, 103212, Control_c, 0, 64, 0
4, 104230, Control_c, 0, 64, 127
4, 104640, Control_c, 0, 64, 0
4, 108480, Control_c, 0, 64, 127
4, 108607, Control_c, 0, 64, 0
4, 108857, Control_c, 0, 64, 127
4, 108972, Control_c, 0, 64, 0
4, 109478, Control_c, 0, 64, 127
4, 109800, Control_c, 0, 64, 0
4, 109990, Control_c, 0, 64, 127
4, 110400, Control_c, 0, 64, 0
4, 110463, Control_c, 0, 64, 127
4, 110527, Control_c, 0, 64, 0
4, 110777, Control_c, 0, 64, 127
4, 110892, Control_c, 0, 64, 0
4, 111910, Control_c, 0, 64, 127
4, 112320, Control_c, 0, 64, 0
4, 114508, Control_c, 0, 64, 127
4, 114735, Control_c, 0, 64, 0
4, 115200, Control_c, 0, 64, 0
4, 116160, Control_c, 0, 64, 127
4, 116640, Control_c, 0, 64, 0
4, 117120, Control_c, 0, 64, 0
4, 118080, Control_c, 0, 64, 127
4, 118560, Control_c, 0, 64, 0
4, 119040, Control_c, 0, 64, 0
4, 121031, Control_c, 0, 64, 127
4, 121200, Control_c, 0, 64, 0
4, 121948, Control_c, 0, 64, 127
4, 122344, Control_c, 0, 64, 0
4, 122344, End_track
5, 0, Start_track
5, 0, Title_t, "Debussy: Childrens Corner 6"
5, 0, End_track
6, 0, Start_track
6, 0, Title_t, "Copyright © 2010 by Bernd Krueger"
6, 0, End_track
7, 0, Start_track
7, 0, Title_t, "http://www.piano-midi.de/"
7, 0, End_track
8, 0, Start_track
8, 0, Title_t, "Edition: 2011-07-14"
8, 0, End_track
9, 0, Start_track
9, 0, Title_t, "Spur 8"
9, 0, End_track
10, 0, Start_track
10, 0, Title_t, "Spur 9"
10, 0, End_track
11, 0, Start_track
11, 0, Title_t, "Spur 10"
11, 0, End_track
12, 0, Start_track
12, 0, Title_t, "Spur 11"
12, 0, End_track
13, 0, Start_track
13, 0, Title_t, "Spur 12"
13, 0, End_track
14, 0, Start_track
14, 0, Title_t, "Spur 13"
14, 0, End_track
15, 0, Start_track
15, 0, Title_t, "Spur 14"
15, 0, End_track
16, 0, Start_track
16, 0, Title_t, "Spur 15"
16, 0, End_track
17, 0, Start_track
17, 0, Title_t, "Spur 16"
17, 0, End_track
0, 0, End_of_file
