0, 0, Header, 1, 10, 480
1, 0, Start_track
1, 0, Title_t, "Danza Espanola No. 4"
1, 0, Title_t, "Villanesca"
1, 0, Copyright_t, "Copyright © 2001 by Bernd Krueger"
1, 0, Text_t, "E. Granados"
1, 0, Text_t, "Allegretto, alla pastorale"
1, 0, Text_t, "Fertiggestellt am30.8.2001\012"
1, 0, Text_t, "Normierung: 23.12.2002\012"
1, 0, Text_t, "Dauer: 4:45 Minuten\012"
1, 0, SMPTE_offset, 96, 0, 3, 0, 0
1, 0, Time_signature, 2, 2, 24, 8
1, 0, Key_signature, 1, "major"
1, 0, Tempo, 731707
1, 480, Tempo, 697107
1, 920, Tempo, 745527
1, 960, Tempo, 731707
1, 1440, Tempo, 677966
1, 1920, Tempo, 705882
1, 2400, Tempo, 692601
1, 2880, Tempo, 715734
1, 3360, Tempo, 736196
1, 3600, Tempo, 740375
1, 3720, Tempo, 726392
1, 3840, Tempo, 713606
1, 4080, Tempo, 676666
1, 4320, Tempo, 654094
1, 4440, Tempo, 668971
1, 4560, Tempo, 654094
1, 4680, Tempo, 817661
1, 4740, Tempo, 688547
1, 4800, Tempo, 702247
1, 5040, Tempo, 683995
1, 5280, Tempo, 702247
1, 5760, Tempo, 713606
1, 6000, Tempo, 659341
1, 6240, Tempo, 650477
1, 6360, Tempo, 672797
1, 6480, Tempo, 657750
1, 6600, Tempo, 817661
1, 6660, Tempo, 688547
1, 6720, Tempo, 702247
1, 6960, Tempo, 683995
1, 7200, Tempo, 702247
1, 7680, Tempo, 713606
1, 7920, Tempo, 688547
1, 8160, Tempo, 680581
1, 8400, Tempo, 688547
1, 8520, Tempo, 817661
1, 8580, Tempo, 688547
1, 8640, Tempo, 722892
1, 9120, Tempo, 688547
1, 9480, Tempo, 705053
1, 9600, Tempo, 713606
1, 9840, Tempo, 676666
1, 10080, Tempo, 654094
1, 10200, Tempo, 668971
1, 10320, Tempo, 650477
1, 10440, Tempo, 817661
1, 10500, Tempo, 688547
1, 10560, Tempo, 702247
1, 10800, Tempo, 683995
1, 11040, Tempo, 702247
1, 11520, Tempo, 713606
1, 11760, Tempo, 676666
1, 12000, Tempo, 654094
1, 12120, Tempo, 668971
1, 12240, Tempo, 650477
1, 12360, Tempo, 817661
1, 12420, Tempo, 688547
1, 12480, Tempo, 702247
1, 12720, Tempo, 683995
1, 12960, Tempo, 702247
1, 13080, Tempo, 726392
1, 13440, Tempo, 713606
1, 13680, Tempo, 688547
1, 13920, Tempo, 680581
1, 14160, Tempo, 688547
1, 14280, Tempo, 817661
1, 14340, Tempo, 688547
1, 14400, Tempo, 705053
1, 15240, Tempo, 696702
1, 15360, Tempo, 713606
1, 15600, Tempo, 676666
1, 15840, Tempo, 654094
1, 15960, Tempo, 668971
1, 16080, Tempo, 654094
1, 16200, Tempo, 817661
1, 16260, Tempo, 688547
1, 16320, Tempo, 702247
1, 16560, Tempo, 683995
1, 16800, Tempo, 692601
1, 17280, Tempo, 684541
1, 17520, Tempo, 659341
1, 17760, Tempo, 650477
1, 17880, Tempo, 672797
1, 18000, Tempo, 657750
1, 18120, Tempo, 817661
1, 18180, Tempo, 688547
1, 18240, Tempo, 692601
1, 18480, Tempo, 665188
1, 18720, Tempo, 702247
1, 18840, Tempo, 662983
1, 19200, Tempo, 700853
1, 19440, Tempo, 659341
1, 19680, Tempo, 650477
1, 19800, Tempo, 672797
1, 19920, Tempo, 657750
1, 20040, Tempo, 817661
1, 20100, Tempo, 688547
1, 20160, Tempo, 684541
1, 20400, Tempo, 661449
1, 20640, Tempo, 702247
1, 20760, Tempo, 688547
1, 21120, Tempo, 709304
1, 21360, Tempo, 655738
1, 21600, Tempo, 650477
1, 21720, Tempo, 672797
1, 21840, Tempo, 657750
1, 21960, Tempo, 817661
1, 22020, Tempo, 688547
1, 22080, Tempo, 702247
1, 22320, Tempo, 683995
1, 22560, Tempo, 702247
1, 22680, Tempo, 726392
1, 23040, Tempo, 713606
1, 23280, Tempo, 659341
1, 23520, Tempo, 654094
1, 23640, Tempo, 668971
1, 23760, Tempo, 621762
1, 23880, Tempo, 817661
1, 23940, Tempo, 688547
1, 24000, Tempo, 702247
1, 24240, Tempo, 674157
1, 24480, Tempo, 692601
1, 24960, Tempo, 684541
1, 25200, Tempo, 659341
1, 25440, Tempo, 650477
1, 25560, Tempo, 672797
1, 25680, Tempo, 625000
1, 25800, Tempo, 817661
1, 25860, Tempo, 688547
1, 25920, Tempo, 692601
1, 26160, Tempo, 665188
1, 26400, Tempo, 702247
1, 26520, Tempo, 684541
1, 26880, Tempo, 700853
1, 27120, Tempo, 676666
1, 27360, Tempo, 650477
1, 27480, Tempo, 672797
1, 27600, Tempo, 634921
1, 27720, Tempo, 817661
1, 27780, Tempo, 688547
1, 27840, Tempo, 684541
1, 28080, Tempo, 661449
1, 28320, Tempo, 702247
1, 28440, Tempo, 688547
1, 28800, Tempo, 709304
1, 29040, Tempo, 676666
1, 29280, Tempo, 650477
1, 29400, Tempo, 672797
1, 29520, Tempo, 657750
1, 29640, Tempo, 817661
1, 29700, Tempo, 688547
1, 29760, Tempo, 702247
1, 30000, Tempo, 683995
1, 30240, Tempo, 702247
1, 30360, Tempo, 726392
1, 30720, Tempo, 688547
1, 31080, Tempo, 713606
1, 31680, Tempo, 685714
1, 31920, Tempo, 717961
1, 32160, Tempo, 709304
1, 32640, Tempo, 688547
1, 33000, Tempo, 713606
1, 33600, Tempo, 681818
1, 33840, Tempo, 717961
1, 34080, Tempo, 709304
1, 34560, Tempo, 688547
1, 34920, Tempo, 713606
1, 35520, Tempo, 685714
1, 35760, Tempo, 717961
1, 36000, Tempo, 709304
1, 36240, Tempo, 677966
1, 36480, Tempo, 688547
1, 36840, Tempo, 713606
1, 37440, Tempo, 700853
1, 37680, Tempo, 717961
1, 37920, Tempo, 709304
1, 38160, Tempo, 740466
1, 38400, Tempo, 754717
1, 38640, Tempo, 794702
1, 38880, Tempo, 736196
1, 39360, Tempo, 750000
1, 39840, Tempo, 731707
1, 40320, Tempo, 736196
1, 40800, Tempo, 759494
1, 41280, Time_signature, 4, 2, 24, 8
1, 41280, Tempo, 722892
1, 41760, Tempo, 718563
1, 41840, Tempo, 722892
1, 41880, Tempo, 727273
1, 41920, Tempo, 731707
1, 41960, Tempo, 736196
1, 42000, Tempo, 740741
1, 42080, Tempo, 745342
1, 42120, Tempo, 750000
1, 42160, Tempo, 754717
1, 42200, Tempo, 759494
1, 42240, Tempo, 764331
1, 43200, Time_signature, 2, 2, 24, 8
1, 43200, Tempo, 731707
1, 43680, Tempo, 697107
1, 44120, Tempo, 745527
1, 44160, Tempo, 731707
1, 44640, Tempo, 677966
1, 45120, Tempo, 710059
1, 45600, Tempo, 692601
1, 46080, Tempo, 715734
1, 46560, Tempo, 736196
1, 46800, Tempo, 740375
1, 46920, Tempo, 726392
1, 47040, Tempo, 713606
1, 47280, Tempo, 676666
1, 47520, Tempo, 654094
1, 47640, Tempo, 668971
1, 47760, Tempo, 654094
1, 47880, Tempo, 817661
1, 47940, Tempo, 688547
1, 48000, Tempo, 702247
1, 48240, Tempo, 683995
1, 48480, Tempo, 702247
1, 48960, Tempo, 713606
1, 49200, Tempo, 659341
1, 49440, Tempo, 650477
1, 49560, Tempo, 672797
1, 49680, Tempo, 645161
1, 49800, Tempo, 817661
1, 49860, Tempo, 688547
1, 49920, Tempo, 702247
1, 50160, Tempo, 666667
1, 50400, Tempo, 702247
1, 50880, Tempo, 713606
1, 51120, Tempo, 688547
1, 51360, Tempo, 680581
1, 51600, Tempo, 688547
1, 51720, Tempo, 817661
1, 51780, Tempo, 688547
1, 51840, Tempo, 709304
1, 52320, Tempo, 688547
1, 52680, Tempo, 705053
1, 52800, Tempo, 713606
1, 53040, Tempo, 676666
1, 53280, Tempo, 654094
1, 53400, Tempo, 668971
1, 53520, Tempo, 654094
1, 53640, Tempo, 817661
1, 53700, Tempo, 688547
1, 53760, Tempo, 702247
1, 54000, Tempo, 683995
1, 54240, Tempo, 692601
1, 54720, Tempo, 684541
1, 54960, Tempo, 676666
1, 55200, Tempo, 650477
1, 55320, Tempo, 672797
1, 55440, Tempo, 657750
1, 55560, Tempo, 817661
1, 55620, Tempo, 688547
1, 55680, Tempo, 692601
1, 55920, Tempo, 665188
1, 56160, Tempo, 702247
1, 56280, Tempo, 684541
1, 56640, Tempo, 700853
1, 56880, Tempo, 676666
1, 57120, Tempo, 650477
1, 57240, Tempo, 672797
1, 57360, Tempo, 657750
1, 57480, Tempo, 817661
1, 57540, Tempo, 688547
1, 57600, Tempo, 670391
1, 57840, Tempo, 661449
1, 58080, Tempo, 702247
1, 58200, Tempo, 688547
1, 58560, Tempo, 709304
1, 58800, Tempo, 676666
1, 59040, Tempo, 650477
1, 59160, Tempo, 672797
1, 59280, Tempo, 657750
1, 59400, Tempo, 817661
1, 59460, Tempo, 688547
1, 59520, Tempo, 702247
1, 59760, Tempo, 683995
1, 60000, Tempo, 702247
1, 60120, Tempo, 726392
1, 60480, Tempo, 688547
1, 60840, Tempo, 713606
1, 61440, Tempo, 685714
1, 61680, Tempo, 717961
1, 61920, Tempo, 709304
1, 62400, Tempo, 688547
1, 62760, Tempo, 713606
1, 63360, Tempo, 681818
1, 63600, Tempo, 717961
1, 63840, Tempo, 709304
1, 64080, Tempo, 674157
1, 64320, Tempo, 688547
1, 64680, Tempo, 713606
1, 65280, Tempo, 685714
1, 65520, Tempo, 717961
1, 65760, Tempo, 709304
1, 66000, Tempo, 714286
1, 66240, Tempo, 688547
1, 66600, Tempo, 713606
1, 67200, Tempo, 700853
1, 67440, Tempo, 717961
1, 67680, Tempo, 709304
1, 67920, Tempo, 740466
1, 68160, Tempo, 754717
1, 68400, Tempo, 794702
1, 68640, Tempo, 727273
1, 69120, Tempo, 750000
1, 69600, Tempo, 731707
1, 70080, Tempo, 722892
1, 70560, Tempo, 764331
1, 71040, Time_signature, 4, 2, 24, 8
1, 71040, Tempo, 722892
1, 71520, Tempo, 718563
1, 71600, Tempo, 722892
1, 71640, Tempo, 727273
1, 71680, Tempo, 731707
1, 71720, Tempo, 736196
1, 71760, Tempo, 740741
1, 71840, Tempo, 745342
1, 71880, Tempo, 750000
1, 71920, Tempo, 754717
1, 71960, Tempo, 759494
1, 72000, Tempo, 764331
1, 72960, Time_signature, 2, 2, 24, 8
1, 72960, Tempo, 731707
1, 73440, Tempo, 697107
1, 73880, Tempo, 745527
1, 73920, Tempo, 731707
1, 74400, Tempo, 677966
1, 74880, Tempo, 731707
1, 75360, Tempo, 692601
1, 75840, Tempo, 715734
1, 76320, Tempo, 736196
1, 76560, Tempo, 740375
1, 76680, Tempo, 805369
1, 76800, Tempo, 731707
1, 77280, Tempo, 697107
1, 77720, Tempo, 745527
1, 77760, Tempo, 731707
1, 78240, Tempo, 677966
1, 78720, Tempo, 731707
1, 79200, Tempo, 705882
1, 79680, Tempo, 774194
1, 80160, Tempo, 869565
1, 80400, Tempo, 740741
1, 80520, Tempo, 761035
1, 80640, Time_signature, 4, 2, 24, 8
1, 80640, Key_signature, -2, "major"
1, 80640, Tempo, 775996
1, 81120, Tempo, 727273
1, 81360, Tempo, 736196
1, 81600, Tempo, 754717
1, 81840, Tempo, 736196
1, 82080, Tempo, 754717
1, 82320, Tempo, 833333
1, 82560, Tempo, 821918
1, 82800, Tempo, 851064
1, 83040, Tempo, 888889
1, 84000, Tempo, 834608
1, 84240, Tempo, 785135
1, 84480, Tempo, 775996
1, 84960, Tempo, 736196
1, 85200, Tempo, 754717
1, 85240, Tempo, 745342
1, 85480, Tempo, 754717
1, 85920, Tempo, 785135
1, 86160, Tempo, 822820
1, 86400, Tempo, 816327
1, 86640, Tempo, 851064
1, 86880, Tempo, 888889
1, 87840, Tempo, 827586
1, 88320, Tempo, 789474
1, 88560, Tempo, 745342
1, 88800, Tempo, 745342
1, 89040, Tempo, 769231
1, 89280, Tempo, 789474
1, 89760, Tempo, 785135
1, 90000, Tempo, 822820
1, 90240, Tempo, 805369
1, 90480, Tempo, 845070
1, 90720, Tempo, 821918
1, 91680, Tempo, 779221
1, 91920, Tempo, 789474
1, 92160, Tempo, 800000
1, 92640, Tempo, 821918
1, 92880, Tempo, 857143
1, 93120, Tempo, 821918
1, 94080, Tempo, 845070
1, 94560, Tempo, 1081081
1, 94680, Tempo, 960000
1, 94800, Tempo, 1071429
1, 94920, Tempo, 1153846
1, 95040, Tempo, 1044386
1, 95520, Tempo, 827586
1, 96000, Tempo, 784314
1, 96480, Tempo, 727273
1, 96720, Tempo, 754717
1, 97200, Tempo, 736196
1, 97440, Tempo, 754717
1, 97680, Tempo, 833333
1, 97920, Tempo, 821918
1, 98160, Tempo, 851064
1, 98400, Tempo, 888889
1, 98640, Tempo, 869565
1, 98920, Tempo, 888889
1, 99360, Tempo, 834608
1, 99600, Tempo, 785135
1, 99840, Tempo, 775996
1, 100320, Tempo, 736196
1, 100560, Tempo, 736196
1, 100800, Tempo, 754717
1, 101280, Tempo, 785135
1, 101520, Tempo, 822820
1, 101760, Tempo, 816327
1, 102000, Tempo, 851064
1, 102240, Tempo, 816327
1, 102480, Tempo, 888889
1, 103200, Tempo, 827586
1, 103680, Tempo, 789474
1, 103920, Tempo, 745342
1, 104160, Tempo, 745342
1, 104400, Tempo, 789474
1, 105120, Tempo, 785135
1, 105360, Tempo, 822820
1, 105600, Tempo, 805369
1, 105840, Tempo, 845070
1, 106080, Tempo, 821918
1, 106320, Tempo, 888889
1, 106560, Tempo, 833333
1, 107040, Tempo, 794702
1, 107280, Tempo, 810811
1, 107520, Tempo, 800000
1, 108000, Tempo, 821918
1, 108240, Tempo, 857143
1, 108480, Tempo, 821918
1, 109440, Tempo, 845070
1, 109680, Tempo, 888889
1, 109920, Tempo, 1008403
1, 110040, Tempo, 960000
1, 110160, Tempo, 1071429
1, 110280, Tempo, 1153846
1, 110400, Tempo, 1276596
1, 110880, Tempo, 1643836
1, 111240, Tempo, 726392
1, 111360, Time_signature, 2, 2, 24, 8
1, 111360, Key_signature, 1, "major"
1, 111360, Tempo, 713606
1, 111600, Tempo, 685714
1, 111840, Tempo, 654094
1, 111960, Tempo, 668971
1, 112080, Tempo, 654094
1, 112200, Tempo, 817661
1, 112260, Tempo, 688547
1, 112320, Tempo, 702247
1, 112560, Tempo, 683995
1, 112800, Tempo, 702247
1, 113280, Tempo, 713606
1, 113520, Tempo, 659341
1, 113760, Tempo, 650477
1, 113880, Tempo, 672797
1, 114000, Tempo, 657750
1, 114120, Tempo, 817661
1, 114180, Tempo, 688547
1, 114240, Tempo, 702247
1, 114480, Tempo, 683995
1, 114720, Tempo, 702247
1, 114960, Tempo, 726392
1, 115200, Tempo, 713606
1, 115440, Tempo, 688547
1, 115680, Tempo, 680581
1, 115920, Tempo, 688547
1, 116040, Tempo, 817661
1, 116100, Tempo, 688547
1, 116160, Tempo, 722892
1, 116640, Tempo, 688547
1, 117000, Tempo, 705053
1, 117120, Tempo, 713606
1, 117360, Tempo, 676666
1, 117600, Tempo, 654094
1, 117720, Tempo, 668971
1, 117840, Tempo, 650477
1, 117960, Tempo, 817661
1, 118020, Tempo, 688547
1, 118080, Tempo, 702247
1, 118320, Tempo, 683995
1, 118560, Tempo, 702247
1, 119040, Tempo, 713606
1, 119280, Tempo, 676666
1, 119520, Tempo, 654094
1, 119640, Tempo, 668971
1, 119760, Tempo, 650477
1, 119880, Tempo, 817661
1, 119940, Tempo, 688547
1, 120000, Tempo, 702247
1, 120240, Tempo, 683995
1, 120480, Tempo, 702247
1, 120600, Tempo, 726392
1, 120960, Tempo, 713606
1, 121200, Tempo, 688547
1, 121440, Tempo, 680581
1, 121680, Tempo, 688547
1, 121800, Tempo, 817661
1, 121860, Tempo, 688547
1, 121920, Tempo, 705053
1, 122760, Tempo, 696702
1, 122880, Tempo, 713606
1, 123120, Tempo, 676666
1, 123360, Tempo, 654094
1, 123480, Tempo, 668971
1, 123600, Tempo, 654094
1, 123720, Tempo, 817661
1, 123780, Tempo, 688547
1, 123840, Tempo, 702247
1, 124080, Tempo, 683995
1, 124320, Tempo, 692601
1, 124800, Tempo, 684541
1, 125040, Tempo, 659341
1, 125280, Tempo, 650477
1, 125400, Tempo, 672797
1, 125520, Tempo, 657750
1, 125640, Tempo, 817661
1, 125700, Tempo, 688547
1, 125760, Tempo, 692601
1, 126000, Tempo, 665188
1, 126240, Tempo, 702247
1, 126360, Tempo, 662983
1, 126720, Tempo, 700853
1, 126960, Tempo, 659341
1, 127200, Tempo, 650477
1, 127320, Tempo, 672797
1, 127440, Tempo, 657750
1, 127560, Tempo, 817661
1, 127620, Tempo, 688547
1, 127680, Tempo, 684541
1, 127920, Tempo, 661449
1, 128160, Tempo, 702247
1, 128280, Tempo, 688547
1, 128640, Tempo, 709304
1, 128880, Tempo, 655738
1, 129120, Tempo, 650477
1, 129240, Tempo, 672797
1, 129360, Tempo, 657750
1, 129480, Tempo, 817661
1, 129540, Tempo, 688547
1, 129600, Tempo, 702247
1, 129840, Tempo, 683995
1, 130080, Tempo, 702247
1, 130200, Tempo, 726392
1, 130560, Tempo, 713606
1, 130800, Tempo, 659341
1, 131040, Tempo, 654094
1, 131160, Tempo, 668971
1, 131280, Tempo, 628272
1, 131400, Tempo, 817661
1, 131460, Tempo, 688547
1, 131520, Tempo, 702247
1, 131760, Tempo, 674157
1, 132000, Tempo, 692601
1, 132480, Tempo, 684541
1, 132720, Tempo, 659341
1, 132960, Tempo, 650477
1, 133080, Tempo, 672797
1, 133200, Tempo, 628272
1, 133320, Tempo, 817661
1, 133380, Tempo, 688547
1, 133440, Tempo, 692601
1, 133680, Tempo, 665188
1, 133920, Tempo, 702247
1, 134040, Tempo, 684541
1, 134400, Tempo, 700853
1, 134640, Tempo, 676666
1, 134880, Tempo, 650477
1, 135000, Tempo, 672797
1, 135120, Tempo, 631579
1, 135240, Tempo, 817661
1, 135300, Tempo, 688547
1, 135360, Tempo, 684541
1, 135600, Tempo, 661449
1, 135840, Tempo, 702247
1, 135960, Tempo, 688547
1, 136320, Tempo, 709304
1, 136560, Tempo, 676666
1, 136800, Tempo, 650477
1, 136920, Tempo, 672797
1, 137040, Tempo, 628272
1, 137160, Tempo, 817661
1, 137220, Tempo, 688547
1, 137280, Tempo, 702247
1, 137520, Tempo, 683995
1, 137760, Tempo, 702247
1, 137880, Tempo, 726392
1, 138240, Tempo, 688547
1, 138600, Tempo, 713606
1, 139200, Tempo, 685714
1, 139440, Tempo, 717961
1, 139680, Tempo, 709304
1, 140160, Tempo, 688547
1, 140520, Tempo, 713606
1, 141120, Tempo, 681818
1, 141360, Tempo, 717961
1, 141600, Tempo, 709304
1, 142080, Tempo, 688547
1, 142440, Tempo, 713606
1, 143040, Tempo, 685714
1, 143280, Tempo, 717961
1, 143520, Tempo, 709304
1, 143760, Tempo, 677966
1, 144000, Tempo, 688547
1, 144360, Tempo, 713606
1, 144960, Tempo, 700853
1, 145200, Tempo, 717961
1, 145440, Tempo, 709304
1, 145680, Tempo, 740466
1, 145920, Tempo, 754717
1, 146160, Tempo, 794702
1, 146400, Tempo, 736196
1, 146880, Tempo, 750000
1, 147360, Tempo, 731707
1, 147840, Tempo, 736196
1, 148320, Tempo, 759494
1, 148800, Tempo, 722892
1, 149280, Tempo, 718563
1, 149360, Tempo, 722892
1, 149400, Tempo, 727273
1, 149440, Tempo, 731707
1, 149480, Tempo, 736196
1, 149520, Tempo, 740741
1, 149600, Tempo, 745342
1, 149640, Tempo, 750000
1, 149680, Tempo, 754717
1, 149720, Tempo, 759494
1, 149760, Tempo, 764331
1, 150720, Tempo, 731707
1, 151200, Tempo, 697107
1, 151640, Tempo, 745527
1, 151680, Tempo, 731707
1, 152160, Tempo, 677966
1, 152640, Tempo, 710059
1, 153120, Tempo, 692601
1, 153600, Tempo, 715734
1, 154080, Tempo, 736196
1, 154320, Tempo, 740375
1, 154440, Tempo, 726392
1, 154560, Tempo, 713606
1, 154800, Tempo, 676666
1, 155040, Tempo, 654094
1, 155160, Tempo, 668971
1, 155280, Tempo, 654094
1, 155400, Tempo, 817661
1, 155460, Tempo, 688547
1, 155520, Tempo, 702247
1, 155760, Tempo, 683995
1, 156000, Tempo, 702247
1, 156480, Tempo, 713606
1, 156720, Tempo, 659341
1, 156960, Tempo, 650477
1, 157080, Tempo, 672797
1, 157200, Tempo, 645161
1, 157320, Tempo, 817661
1, 157380, Tempo, 688547
1, 157440, Tempo, 702247
1, 157680, Tempo, 666667
1, 157920, Tempo, 702247
1, 158400, Tempo, 713606
1, 158640, Tempo, 688547
1, 158880, Tempo, 680581
1, 159120, Tempo, 688547
1, 159240, Tempo, 817661
1, 159300, Tempo, 688547
1, 159360, Tempo, 709304
1, 159840, Tempo, 688547
1, 160200, Tempo, 705053
1, 160320, Tempo, 713606
1, 160560, Tempo, 676666
1, 160800, Tempo, 654094
1, 160920, Tempo, 668971
1, 161040, Tempo, 654094
1, 161160, Tempo, 817661
1, 161220, Tempo, 688547
1, 161280, Tempo, 702247
1, 161520, Tempo, 683995
1, 161760, Tempo, 692601
1, 162240, Tempo, 684541
1, 162480, Tempo, 676666
1, 162720, Tempo, 650477
1, 162840, Tempo, 672797
1, 162960, Tempo, 657750
1, 163080, Tempo, 817661
1, 163140, Tempo, 688547
1, 163200, Tempo, 692601
1, 163440, Tempo, 665188
1, 163680, Tempo, 702247
1, 163800, Tempo, 684541
1, 164160, Tempo, 700853
1, 164400, Tempo, 676666
1, 164640, Tempo, 650477
1, 164760, Tempo, 672797
1, 164880, Tempo, 657750
1, 165000, Tempo, 817661
1, 165060, Tempo, 688547
1, 165120, Tempo, 670391
1, 165360, Tempo, 661449
1, 165600, Tempo, 702247
1, 165720, Tempo, 688547
1, 166080, Tempo, 709304
1, 166320, Tempo, 676666
1, 166560, Tempo, 650477
1, 166680, Tempo, 672797
1, 166800, Tempo, 657750
1, 166920, Tempo, 817661
1, 166980, Tempo, 688547
1, 167040, Tempo, 702247
1, 167280, Tempo, 683995
1, 167520, Tempo, 702247
1, 167640, Tempo, 726392
1, 168000, Tempo, 688547
1, 168360, Tempo, 713606
1, 168960, Tempo, 685714
1, 169200, Tempo, 717961
1, 169440, Tempo, 709304
1, 169920, Tempo, 688547
1, 170280, Tempo, 713606
1, 170880, Tempo, 681818
1, 171120, Tempo, 717961
1, 171360, Tempo, 709304
1, 171600, Tempo, 674157
1, 171840, Tempo, 688547
1, 172200, Tempo, 713606
1, 172800, Tempo, 685714
1, 173040, Tempo, 717961
1, 173280, Tempo, 709304
1, 173520, Tempo, 714286
1, 173760, Tempo, 688547
1, 174120, Tempo, 713606
1, 174720, Tempo, 700853
1, 174960, Tempo, 717961
1, 175200, Tempo, 709304
1, 175440, Tempo, 740466
1, 175680, Tempo, 754717
1, 175920, Tempo, 794702
1, 176160, Tempo, 727273
1, 176640, Tempo, 750000
1, 177120, Tempo, 731707
1, 177600, Tempo, 722892
1, 178080, Tempo, 764331
1, 178560, Tempo, 722892
1, 179040, Tempo, 718563
1, 179120, Tempo, 722892
1, 179160, Tempo, 727273
1, 179200, Tempo, 731707
1, 179240, Tempo, 736196
1, 179280, Tempo, 740741
1, 179360, Tempo, 745342
1, 179400, Tempo, 750000
1, 179440, Tempo, 754717
1, 179480, Tempo, 759494
1, 179520, Tempo, 764331
1, 180480, Tempo, 731707
1, 180960, Tempo, 697107
1, 181400, Tempo, 745527
1, 181440, Tempo, 731707
1, 181920, Tempo, 677966
1, 182400, Tempo, 731707
1, 182880, Tempo, 692601
1, 183360, Tempo, 715734
1, 183840, Tempo, 736196
1, 184080, Tempo, 740375
1, 184320, Tempo, 794702
1, 186240, Tempo, 600000
1, 186240, End_track
2, 0, Start_track
2, 0, MIDI_port, 0
2, 0, Title_t, "Piano right"
2, 0, Program_c, 0, 0
2, 0, Control_c, 0, 7, 100
2, 0, Note_on_c, 0, 59, 64
2, 0, Note_on_c, 0, 62, 77
2, 0, Text_t, "bdca426d104a26ac9dcb070447587523"
2, 0, Control_c, 0, 91, 127
2, 480, Note_on_c, 0, 62, 0
2, 480, Note_on_c, 0, 59, 0
2, 480, Note_on_c, 0, 86, 70
2, 720, Note_on_c, 0, 86, 0
2, 960, Note_on_c, 0, 59, 55
2, 960, Note_on_c, 0, 62, 65
2, 1440, Note_on_c, 0, 62, 0
2, 1440, Note_on_c, 0, 59, 0
2, 1440, Note_on_c, 0, 86, 62
2, 1680, Note_on_c, 0, 86, 0
2, 1920, Note_on_c, 0, 62, 59
2, 1920, Note_on_c, 0, 59, 50
2, 2400, Note_on_c, 0, 59, 0
2, 2400, Note_on_c, 0, 62, 0
2, 2400, Note_on_c, 0, 86, 57
2, 2640, Note_on_c, 0, 86, 0
2, 2880, Note_on_c, 0, 59, 43
2, 2880, Note_on_c, 0, 62, 51
2, 3360, Note_on_c, 0, 62, 0
2, 3360, Note_on_c, 0, 59, 0
2, 3360, Note_on_c, 0, 86, 49
2, 3600, Note_on_c, 0, 86, 0
2, 3720, Note_on_c, 0, 62, 46
2, 3840, Note_on_c, 0, 62, 0
2, 3840, Note_on_c, 0, 59, 43
2, 3840, Note_on_c, 0, 67, 51
2, 4080, Note_on_c, 0, 67, 0
2, 4080, Note_on_c, 0, 59, 0
2, 4080, Note_on_c, 0, 67, 44
2, 4320, Note_on_c, 0, 67, 0
2, 4320, Note_on_c, 0, 86, 47
2, 4320, Note_on_c, 0, 59, 42
2, 4320, Note_on_c, 0, 67, 50
2, 4440, Note_on_c, 0, 67, 0
2, 4440, Note_on_c, 0, 59, 0
2, 4440, Note_on_c, 0, 69, 40
2, 4560, Note_on_c, 0, 69, 0
2, 4560, Note_on_c, 0, 71, 45
2, 4680, Note_on_c, 0, 71, 0
2, 4680, Note_on_c, 0, 72, 40
2, 4765, Note_on_c, 0, 72, 0
2, 4770, Note_on_c, 0, 72, 44
2, 4800, Note_on_c, 0, 86, 0
2, 4800, Note_on_c, 0, 62, 43
2, 4800, Note_on_c, 0, 71, 51
2, 4830, Note_on_c, 0, 72, 0
2, 5040, Note_on_c, 0, 71, 0
2, 5040, Note_on_c, 0, 62, 0
2, 5040, Note_on_c, 0, 69, 39
2, 5160, Note_on_c, 0, 69, 0
2, 5160, Note_on_c, 0, 71, 35
2, 5280, Note_on_c, 0, 71, 0
2, 5280, Note_on_c, 0, 86, 45
2, 5280, Note_on_c, 0, 59, 38
2, 5280, Note_on_c, 0, 67, 45
2, 5640, Note_on_c, 0, 67, 0
2, 5640, Note_on_c, 0, 59, 0
2, 5640, Note_on_c, 0, 64, 47
2, 5760, Note_on_c, 0, 64, 0
2, 5760, Note_on_c, 0, 86, 0
2, 5760, Note_on_c, 0, 60, 43
2, 5760, Note_on_c, 0, 69, 51
2, 6000, Note_on_c, 0, 69, 0
2, 6000, Note_on_c, 0, 60, 0
2, 6000, Note_on_c, 0, 69, 45
2, 6240, Note_on_c, 0, 69, 0
2, 6240, Note_on_c, 0, 86, 47
2, 6240, Note_on_c, 0, 60, 42
2, 6240, Note_on_c, 0, 69, 50
2, 6360, Note_on_c, 0, 69, 0
2, 6360, Note_on_c, 0, 60, 0
2, 6360, Note_on_c, 0, 71, 40
2, 6480, Note_on_c, 0, 71, 0
2, 6480, Note_on_c, 0, 72, 45
2, 6600, Note_on_c, 0, 72, 0
2, 6600, Note_on_c, 0, 74, 40
2, 6685, Note_on_c, 0, 74, 0
2, 6690, Note_on_c, 0, 74, 44
2, 6720, Note_on_c, 0, 86, 0
2, 6720, Note_on_c, 0, 64, 43
2, 6720, Note_on_c, 0, 72, 51
2, 6750, Note_on_c, 0, 74, 0
2, 6960, Note_on_c, 0, 72, 0
2, 6960, Note_on_c, 0, 64, 0
2, 6960, Note_on_c, 0, 71, 41
2, 7080, Note_on_c, 0, 71, 0
2, 7080, Note_on_c, 0, 72, 38
2, 7200, Note_on_c, 0, 72, 0
2, 7200, Note_on_c, 0, 86, 45
2, 7200, Note_on_c, 0, 60, 38
2, 7200, Note_on_c, 0, 69, 45
2, 7560, Note_on_c, 0, 69, 0
2, 7560, Note_on_c, 0, 60, 0
2, 7560, Note_on_c, 0, 67, 47
2, 7680, Note_on_c, 0, 67, 0
2, 7680, Note_on_c, 0, 86, 0
2, 7680, Note_on_c, 0, 60, 43
2, 7680, Note_on_c, 0, 66, 51
2, 7920, Note_on_c, 0, 66, 0
2, 7920, Note_on_c, 0, 60, 0
2, 7920, Note_on_c, 0, 66, 48
2, 8130, Note_on_c, 0, 66, 0
2, 8130, Note_on_c, 0, 67, 42
2, 8160, Note_on_c, 0, 67, 0
2, 8160, Note_on_c, 0, 86, 47
2, 8160, Note_on_c, 0, 60, 42
2, 8160, Note_on_c, 0, 66, 50
2, 8280, Note_on_c, 0, 66, 0
2, 8280, Note_on_c, 0, 60, 0
2, 8280, Note_on_c, 0, 62, 40
2, 8400, Note_on_c, 0, 62, 0
2, 8400, Note_on_c, 0, 64, 45
2, 8520, Note_on_c, 0, 64, 0
2, 8520, Note_on_c, 0, 66, 40
2, 8640, Note_on_c, 0, 66, 0
2, 8640, Note_on_c, 0, 86, 0
2, 8640, Note_on_c, 0, 59, 43
2, 8640, Note_on_c, 0, 67, 51
2, 9120, Note_on_c, 0, 67, 0
2, 9120, Note_on_c, 0, 59, 0
2, 9120, Note_on_c, 0, 86, 47
2, 9480, Note_on_c, 0, 62, 44
2, 9600, Note_on_c, 0, 62, 0
2, 9600, Note_on_c, 0, 86, 0
2, 9600, Note_on_c, 0, 67, 48
2, 9600, Note_on_c, 0, 59, 40
2, 9840, Note_on_c, 0, 59, 0
2, 9840, Note_on_c, 0, 67, 0
2, 9840, Note_on_c, 0, 67, 45
2, 10080, Note_on_c, 0, 67, 0
2, 10080, Note_on_c, 0, 59, 40
2, 10080, Note_on_c, 0, 67, 47
2, 10080, Note_on_c, 0, 86, 44
2, 10200, Note_on_c, 0, 67, 0
2, 10200, Note_on_c, 0, 59, 0
2, 10200, Note_on_c, 0, 69, 38
2, 10320, Note_on_c, 0, 69, 0
2, 10320, Note_on_c, 0, 71, 43
2, 10440, Note_on_c, 0, 71, 0
2, 10440, Note_on_c, 0, 72, 38
2, 10525, Note_on_c, 0, 72, 0
2, 10530, Note_on_c, 0, 72, 41
2, 10560, Note_on_c, 0, 86, 0
2, 10560, Note_on_c, 0, 62, 40
2, 10560, Note_on_c, 0, 71, 48
2, 10590, Note_on_c, 0, 72, 0
2, 10800, Note_on_c, 0, 71, 0
2, 10800, Note_on_c, 0, 62, 0
2, 10800, Note_on_c, 0, 69, 39
2, 10920, Note_on_c, 0, 69, 0
2, 10920, Note_on_c, 0, 71, 33
2, 11040, Note_on_c, 0, 71, 0
2, 11040, Note_on_c, 0, 86, 42
2, 11040, Note_on_c, 0, 67, 42
2, 11040, Note_on_c, 0, 59, 36
2, 11400, Note_on_c, 0, 59, 0
2, 11400, Note_on_c, 0, 67, 0
2, 11400, Note_on_c, 0, 64, 44
2, 11520, Note_on_c, 0, 64, 0
2, 11520, Note_on_c, 0, 86, 0
2, 11520, Note_on_c, 0, 69, 48
2, 11520, Note_on_c, 0, 60, 40
2, 11760, Note_on_c, 0, 60, 0
2, 11760, Note_on_c, 0, 69, 0
2, 11760, Note_on_c, 0, 69, 42
2, 12000, Note_on_c, 0, 69, 0
2, 12000, Note_on_c, 0, 60, 40
2, 12000, Note_on_c, 0, 69, 47
2, 12000, Note_on_c, 0, 86, 44
2, 12120, Note_on_c, 0, 69, 0
2, 12120, Note_on_c, 0, 60, 0
2, 12120, Note_on_c, 0, 71, 38
2, 12240, Note_on_c, 0, 71, 0
2, 12240, Note_on_c, 0, 72, 43
2, 12360, Note_on_c, 0, 72, 0
2, 12360, Note_on_c, 0, 74, 38
2, 12445, Note_on_c, 0, 74, 0
2, 12450, Note_on_c, 0, 74, 41
2, 12480, Note_on_c, 0, 86, 0
2, 12480, Note_on_c, 0, 72, 48
2, 12480, Note_on_c, 0, 64, 40
2, 12510, Note_on_c, 0, 74, 0
2, 12720, Note_on_c, 0, 64, 0
2, 12720, Note_on_c, 0, 72, 0
2, 12720, Note_on_c, 0, 71, 38
2, 12840, Note_on_c, 0, 71, 0
2, 12840, Note_on_c, 0, 72, 36
2, 12960, Note_on_c, 0, 72, 0
2, 12960, Note_on_c, 0, 86, 42
2, 12960, Note_on_c, 0, 60, 36
2, 12960, Note_on_c, 0, 69, 42
2, 13320, Note_on_c, 0, 69, 0
2, 13320, Note_on_c, 0, 60, 0
2, 13320, Note_on_c, 0, 67, 44
2, 13440, Note_on_c, 0, 67, 0
2, 13440, Note_on_c, 0, 86, 0
2, 13440, Note_on_c, 0, 60, 40
2, 13440, Note_on_c, 0, 66, 48
2, 13680, Note_on_c, 0, 66, 0
2, 13680, Note_on_c, 0, 60, 0
2, 13680, Note_on_c, 0, 66, 45
2, 13890, Note_on_c, 0, 66, 0
2, 13890, Note_on_c, 0, 67, 40
2, 13920, Note_on_c, 0, 67, 0
2, 13920, Note_on_c, 0, 60, 40
2, 13920, Note_on_c, 0, 66, 47
2, 13920, Note_on_c, 0, 86, 44
2, 14040, Note_on_c, 0, 66, 0
2, 14040, Note_on_c, 0, 60, 0
2, 14040, Note_on_c, 0, 62, 38
2, 14160, Note_on_c, 0, 62, 0
2, 14160, Note_on_c, 0, 64, 43
2, 14280, Note_on_c, 0, 64, 0
2, 14280, Note_on_c, 0, 66, 38
2, 14400, Note_on_c, 0, 66, 0
2, 14400, Note_on_c, 0, 86, 0
2, 14400, Note_on_c, 0, 67, 48
2, 14400, Note_on_c, 0, 59, 40
2, 14880, Note_on_c, 0, 59, 0
2, 14880, Note_on_c, 0, 67, 0
2, 14880, Note_on_c, 0, 86, 44
2, 15240, Note_on_c, 0, 62, 46
2, 15360, Note_on_c, 0, 62, 0
2, 15360, Note_on_c, 0, 86, 0
2, 15360, Note_on_c, 0, 67, 51
2, 15360, Note_on_c, 0, 59, 43
2, 15600, Note_on_c, 0, 59, 0
2, 15600, Note_on_c, 0, 67, 0
2, 15600, Note_on_c, 0, 67, 44
2, 15840, Note_on_c, 0, 67, 0
2, 15840, Note_on_c, 0, 59, 42
2, 15840, Note_on_c, 0, 77, 45
2, 15840, Note_on_c, 0, 67, 50
2, 15960, Note_on_c, 0, 67, 0
2, 15960, Note_on_c, 0, 59, 0
2, 15960, Note_on_c, 0, 69, 40
2, 16080, Note_on_c, 0, 69, 0
2, 16080, Note_on_c, 0, 71, 45
2, 16200, Note_on_c, 0, 71, 0
2, 16200, Note_on_c, 0, 72, 37
2, 16285, Note_on_c, 0, 72, 0
2, 16290, Note_on_c, 0, 72, 44
2, 16320, Note_on_c, 0, 77, 0
2, 16320, Note_on_c, 0, 71, 51
2, 16320, Note_on_c, 0, 62, 43
2, 16350, Note_on_c, 0, 72, 0
2, 16560, Note_on_c, 0, 62, 0
2, 16560, Note_on_c, 0, 71, 0
2, 16560, Note_on_c, 0, 69, 41
2, 16680, Note_on_c, 0, 69, 0
2, 16680, Note_on_c, 0, 71, 37
2, 16800, Note_on_c, 0, 71, 0
2, 16800, Note_on_c, 0, 59, 37
2, 16800, Note_on_c, 0, 67, 45
2, 16800, Note_on_c, 0, 77, 42
2, 17160, Note_on_c, 0, 67, 0
2, 17160, Note_on_c, 0, 59, 0
2, 17160, Note_on_c, 0, 64, 47
2, 17280, Note_on_c, 0, 64, 0
2, 17280, Note_on_c, 0, 77, 0
2, 17280, Note_on_c, 0, 69, 51
2, 17280, Note_on_c, 0, 60, 43
2, 17520, Note_on_c, 0, 60, 0
2, 17520, Note_on_c, 0, 69, 0
2, 17520, Note_on_c, 0, 69, 45
2, 17760, Note_on_c, 0, 69, 0
2, 17760, Note_on_c, 0, 60, 44
2, 17760, Note_on_c, 0, 76, 46
2, 17760, Note_on_c, 0, 69, 51
2, 17880, Note_on_c, 0, 69, 0
2, 17880, Note_on_c, 0, 60, 0
2, 17880, Note_on_c, 0, 71, 42
2, 18000, Note_on_c, 0, 71, 0
2, 18000, Note_on_c, 0, 72, 48
2, 18120, Note_on_c, 0, 72, 0
2, 18120, Note_on_c, 0, 74, 43
2, 18205, Note_on_c, 0, 74, 0
2, 18210, Note_on_c, 0, 74, 47
2, 18240, Note_on_c, 0, 76, 0
2, 18240, Note_on_c, 0, 72, 54
2, 18240, Note_on_c, 0, 64, 46
2, 18270, Note_on_c, 0, 74, 0
2, 18480, Note_on_c, 0, 64, 0
2, 18480, Note_on_c, 0, 72, 0
2, 18480, Note_on_c, 0, 71, 45
2, 18600, Note_on_c, 0, 71, 0
2, 18600, Note_on_c, 0, 72, 38
2, 18720, Note_on_c, 0, 72, 0
2, 18720, Note_on_c, 0, 60, 42
2, 18720, Note_on_c, 0, 69, 51
2, 18720, Note_on_c, 0, 76, 47
2, 19080, Note_on_c, 0, 69, 0
2, 19080, Note_on_c, 0, 60, 0
2, 19080, Note_on_c, 0, 67, 56
2, 19200, Note_on_c, 0, 67, 0
2, 19200, Note_on_c, 0, 76, 0
2, 19200, Note_on_c, 0, 72, 62
2, 19200, Note_on_c, 0, 64, 52
2, 19440, Note_on_c, 0, 64, 0
2, 19440, Note_on_c, 0, 72, 0
2, 19440, Note_on_c, 0, 72, 55
2, 19680, Note_on_c, 0, 72, 0
2, 19680, Note_on_c, 0, 64, 53
2, 19680, Note_on_c, 0, 81, 55
2, 19680, Note_on_c, 0, 72, 63
2, 19800, Note_on_c, 0, 72, 0
2, 19800, Note_on_c, 0, 64, 0
2, 19800, Note_on_c, 0, 74, 51
2, 19920, Note_on_c, 0, 74, 0
2, 19920, Note_on_c, 0, 76, 58
2, 20040, Note_on_c, 0, 76, 0
2, 20040, Note_on_c, 0, 78, 52
2, 20125, Note_on_c, 0, 78, 0
2, 20130, Note_on_c, 0, 78, 56
2, 20160, Note_on_c, 0, 81, 0
2, 20160, Note_on_c, 0, 76, 66
2, 20160, Note_on_c, 0, 67, 55
2, 20190, Note_on_c, 0, 78, 0
2, 20400, Note_on_c, 0, 67, 0
2, 20400, Note_on_c, 0, 76, 0
2, 20400, Note_on_c, 0, 74, 54
2, 20520, Note_on_c, 0, 74, 0
2, 20520, Note_on_c, 0, 76, 50
2, 20640, Note_on_c, 0, 76, 0
2, 20640, Note_on_c, 0, 66, 50
2, 20640, Note_on_c, 0, 72, 61
2, 20640, Note_on_c, 0, 81, 55
2, 21000, Note_on_c, 0, 72, 0
2, 21000, Note_on_c, 0, 66, 0
2, 21000, Note_on_c, 0, 71, 67
2, 21120, Note_on_c, 0, 71, 0
2, 21120, Note_on_c, 0, 81, 0
2, 21120, Note_on_c, 0, 79, 74
2, 21120, Note_on_c, 0, 71, 62
2, 21360, Note_on_c, 0, 71, 0
2, 21360, Note_on_c, 0, 79, 0
2, 21360, Note_on_c, 0, 79, 68
2, 21600, Note_on_c, 0, 79, 0
2, 21600, Note_on_c, 0, 71, 65
2, 21600, Note_on_c, 0, 86, 72
2, 21600, Note_on_c, 0, 79, 76
2, 21720, Note_on_c, 0, 79, 0
2, 21720, Note_on_c, 0, 71, 0
2, 21720, Note_on_c, 0, 81, 62
2, 21840, Note_on_c, 0, 81, 0
2, 21840, Note_on_c, 0, 83, 70
2, 21960, Note_on_c, 0, 83, 0
2, 21960, Note_on_c, 0, 84, 62
2, 22045, Note_on_c, 0, 84, 0
2, 22050, Note_on_c, 0, 84, 67
2, 22080, Note_on_c, 0, 86, 0
2, 22080, Note_on_c, 0, 83, 79
2, 22080, Note_on_c, 0, 74, 66
2, 22110, Note_on_c, 0, 84, 0
2, 22320, Note_on_c, 0, 74, 0
2, 22320, Note_on_c, 0, 83, 0
2, 22320, Note_on_c, 0, 81, 73
2, 22440, Note_on_c, 0, 81, 0
2, 22440, Note_on_c, 0, 83, 69
2, 22560, Note_on_c, 0, 83, 0
2, 22560, Note_on_c, 0, 71, 69
2, 22560, Note_on_c, 0, 79, 84
2, 22560, Note_on_c, 0, 91, 81
2, 22920, Note_on_c, 0, 79, 0
2, 22920, Note_on_c, 0, 71, 0
2, 22920, Note_on_c, 0, 62, 64
2, 23040, Note_on_c, 0, 62, 0
2, 23040, Note_on_c, 0, 91, 0
2, 23040, Note_on_c, 0, 67, 69
2, 23040, Note_on_c, 0, 59, 57
2, 23280, Note_on_c, 0, 59, 0
2, 23280, Note_on_c, 0, 67, 0
2, 23280, Note_on_c, 0, 67, 59
2, 23520, Note_on_c, 0, 67, 0
2, 23520, Note_on_c, 0, 59, 56
2, 23520, Note_on_c, 0, 77, 59
2, 23520, Note_on_c, 0, 67, 68
2, 23640, Note_on_c, 0, 67, 0
2, 23640, Note_on_c, 0, 59, 0
2, 23640, Note_on_c, 0, 69, 54
2, 23760, Note_on_c, 0, 69, 0
2, 23760, Note_on_c, 0, 71, 60
2, 23880, Note_on_c, 0, 71, 0
2, 23880, Note_on_c, 0, 72, 54
2, 23965, Note_on_c, 0, 72, 0
2, 23970, Note_on_c, 0, 72, 59
2, 24000, Note_on_c, 0, 77, 0
2, 24000, Note_on_c, 0, 71, 69
2, 24000, Note_on_c, 0, 62, 57
2, 24030, Note_on_c, 0, 72, 0
2, 24240, Note_on_c, 0, 62, 0
2, 24240, Note_on_c, 0, 71, 0
2, 24240, Note_on_c, 0, 69, 53
2, 24360, Note_on_c, 0, 69, 0
2, 24360, Note_on_c, 0, 71, 51
2, 24480, Note_on_c, 0, 71, 0
2, 24480, Note_on_c, 0, 59, 51
2, 24480, Note_on_c, 0, 67, 60
2, 24480, Note_on_c, 0, 77, 56
2, 24840, Note_on_c, 0, 67, 0
2, 24840, Note_on_c, 0, 59, 0
2, 24840, Note_on_c, 0, 64, 64
2, 24960, Note_on_c, 0, 64, 0
2, 24960, Note_on_c, 0, 77, 0
2, 24960, Note_on_c, 0, 69, 69
2, 24960, Note_on_c, 0, 60, 57
2, 25200, Note_on_c, 0, 60, 0
2, 25200, Note_on_c, 0, 69, 0
2, 25200, Note_on_c, 0, 69, 60
2, 25440, Note_on_c, 0, 69, 0
2, 25440, Note_on_c, 0, 60, 59
2, 25440, Note_on_c, 0, 76, 61
2, 25440, Note_on_c, 0, 69, 69
2, 25560, Note_on_c, 0, 69, 0
2, 25560, Note_on_c, 0, 60, 0
2, 25560, Note_on_c, 0, 71, 56
2, 25680, Note_on_c, 0, 71, 0
2, 25680, Note_on_c, 0, 72, 65
2, 25800, Note_on_c, 0, 72, 0
2, 25800, Note_on_c, 0, 74, 57
2, 25885, Note_on_c, 0, 74, 0
2, 25890, Note_on_c, 0, 74, 62
2, 25920, Note_on_c, 0, 76, 0
2, 25920, Note_on_c, 0, 72, 72
2, 25920, Note_on_c, 0, 64, 61
2, 25950, Note_on_c, 0, 74, 0
2, 26160, Note_on_c, 0, 64, 0
2, 26160, Note_on_c, 0, 72, 0
2, 26160, Note_on_c, 0, 71, 60
2, 26280, Note_on_c, 0, 71, 0
2, 26280, Note_on_c, 0, 72, 55
2, 26400, Note_on_c, 0, 72, 0
2, 26400, Note_on_c, 0, 60, 56
2, 26400, Note_on_c, 0, 69, 69
2, 26400, Note_on_c, 0, 76, 64
2, 26760, Note_on_c, 0, 69, 0
2, 26760, Note_on_c, 0, 60, 0
2, 26760, Note_on_c, 0, 67, 65
2, 26880, Note_on_c, 0, 67, 0
2, 26880, Note_on_c, 0, 76, 0
2, 26880, Note_on_c, 0, 72, 71
2, 26880, Note_on_c, 0, 64, 59
2, 27120, Note_on_c, 0, 64, 0
2, 27120, Note_on_c, 0, 72, 0
2, 27120, Note_on_c, 0, 72, 63
2, 27360, Note_on_c, 0, 72, 0
2, 27360, Note_on_c, 0, 64, 61
2, 27360, Note_on_c, 0, 81, 65
2, 27360, Note_on_c, 0, 72, 72
2, 27480, Note_on_c, 0, 72, 0
2, 27480, Note_on_c, 0, 64, 0
2, 27480, Note_on_c, 0, 74, 58
2, 27600, Note_on_c, 0, 74, 0
2, 27600, Note_on_c, 0, 76, 67
2, 27720, Note_on_c, 0, 76, 0
2, 27720, Note_on_c, 0, 78, 59
2, 27805, Note_on_c, 0, 78, 0
2, 27810, Note_on_c, 0, 78, 65
2, 27840, Note_on_c, 0, 81, 0
2, 27840, Note_on_c, 0, 76, 75
2, 27840, Note_on_c, 0, 67, 63
2, 27870, Note_on_c, 0, 78, 0
2, 28080, Note_on_c, 0, 67, 0
2, 28080, Note_on_c, 0, 76, 0
2, 28080, Note_on_c, 0, 74, 62
2, 28200, Note_on_c, 0, 74, 0
2, 28200, Note_on_c, 0, 76, 57
2, 28320, Note_on_c, 0, 76, 0
2, 28320, Note_on_c, 0, 66, 57
2, 28320, Note_on_c, 0, 72, 70
2, 28320, Note_on_c, 0, 81, 65
2, 28680, Note_on_c, 0, 72, 0
2, 28680, Note_on_c, 0, 66, 0
2, 28680, Note_on_c, 0, 74, 68
2, 28800, Note_on_c, 0, 74, 0
2, 28800, Note_on_c, 0, 81, 0
2, 28800, Note_on_c, 0, 79, 75
2, 28800, Note_on_c, 0, 71, 63
2, 29040, Note_on_c, 0, 71, 0
2, 29040, Note_on_c, 0, 79, 0
2, 29040, Note_on_c, 0, 79, 70
2, 29280, Note_on_c, 0, 79, 0
2, 29280, Note_on_c, 0, 71, 67
2, 29280, Note_on_c, 0, 86, 70
2, 29280, Note_on_c, 0, 79, 78
2, 29400, Note_on_c, 0, 79, 0
2, 29400, Note_on_c, 0, 71, 0
2, 29400, Note_on_c, 0, 81, 63
2, 29520, Note_on_c, 0, 81, 0
2, 29520, Note_on_c, 0, 83, 69
2, 29640, Note_on_c, 0, 83, 0
2, 29640, Note_on_c, 0, 84, 63
2, 29725, Note_on_c, 0, 84, 0
2, 29730, Note_on_c, 0, 84, 68
2, 29760, Note_on_c, 0, 86, 0
2, 29760, Note_on_c, 0, 83, 81
2, 29760, Note_on_c, 0, 74, 68
2, 29790, Note_on_c, 0, 84, 0
2, 30000, Note_on_c, 0, 74, 0
2, 30000, Note_on_c, 0, 83, 0
2, 30000, Note_on_c, 0, 81, 75
2, 30120, Note_on_c, 0, 81, 0
2, 30120, Note_on_c, 0, 83, 71
2, 30240, Note_on_c, 0, 83, 0
2, 30240, Note_on_c, 0, 71, 71
2, 30240, Note_on_c, 0, 79, 87
2, 30240, Note_on_c, 0, 91, 78
2, 30720, Note_on_c, 0, 91, 0
2, 30720, Note_on_c, 0, 79, 0
2, 30720, Note_on_c, 0, 71, 0
2, 30720, Note_on_c, 0, 57, 71
2, 30720, Note_on_c, 0, 62, 62
2, 30840, Note_on_c, 0, 62, 0
2, 30840, Note_on_c, 0, 57, 0
2, 30840, Note_on_c, 0, 59, 56
2, 30960, Note_on_c, 0, 59, 0
2, 30960, Note_on_c, 0, 60, 59
2, 31080, Note_on_c, 0, 60, 0
2, 31080, Note_on_c, 0, 62, 54
2, 31200, Note_on_c, 0, 62, 0
2, 31200, Note_on_c, 0, 74, 68
2, 31680, Note_on_c, 0, 74, 0
2, 31680, Note_on_c, 0, 64, 59
2, 31680, Note_on_c, 0, 72, 70
2, 31920, Note_on_c, 0, 72, 0
2, 31920, Note_on_c, 0, 64, 0
2, 31920, Note_on_c, 0, 62, 52
2, 31920, Note_on_c, 0, 71, 62
2, 32040, Note_on_c, 0, 71, 0
2, 32040, Note_on_c, 0, 62, 0
2, 32040, Note_on_c, 0, 64, 46
2, 32040, Note_on_c, 0, 72, 55
2, 32160, Note_on_c, 0, 72, 0
2, 32160, Note_on_c, 0, 64, 0
2, 32160, Note_on_c, 0, 60, 52
2, 32160, Note_on_c, 0, 69, 62
2, 32640, Note_on_c, 0, 69, 0
2, 32640, Note_on_c, 0, 60, 0
2, 32640, Note_on_c, 0, 57, 71
2, 32640, Note_on_c, 0, 62, 62
2, 32760, Note_on_c, 0, 62, 0
2, 32760, Note_on_c, 0, 57, 0
2, 32760, Note_on_c, 0, 59, 58
2, 32880, Note_on_c, 0, 59, 0
2, 32880, Note_on_c, 0, 60, 59
2, 33000, Note_on_c, 0, 60, 0
2, 33000, Note_on_c, 0, 62, 53
2, 33120, Note_on_c, 0, 62, 0
2, 33120, Note_on_c, 0, 74, 68
2, 33600, Note_on_c, 0, 74, 0
2, 33600, Note_on_c, 0, 62, 59
2, 33600, Note_on_c, 0, 71, 70
2, 33840, Note_on_c, 0, 71, 0
2, 33840, Note_on_c, 0, 62, 0
2, 33840, Note_on_c, 0, 60, 52
2, 33840, Note_on_c, 0, 69, 62
2, 33960, Note_on_c, 0, 69, 0
2, 33960, Note_on_c, 0, 60, 0
2, 33960, Note_on_c, 0, 62, 46
2, 33960, Note_on_c, 0, 71, 55
2, 34080, Note_on_c, 0, 71, 0
2, 34080, Note_on_c, 0, 62, 0
2, 34080, Note_on_c, 0, 59, 52
2, 34080, Note_on_c, 0, 67, 62
2, 34560, Note_on_c, 0, 67, 0
2, 34560, Note_on_c, 0, 59, 0
2, 34560, Note_on_c, 0, 57, 58
2, 34560, Note_on_c, 0, 62, 51
2, 34680, Note_on_c, 0, 62, 0
2, 34680, Note_on_c, 0, 57, 0
2, 34680, Note_on_c, 0, 59, 47
2, 34800, Note_on_c, 0, 59, 0
2, 34800, Note_on_c, 0, 60, 48
2, 34920, Note_on_c, 0, 60, 0
2, 34920, Note_on_c, 0, 62, 45
2, 35040, Note_on_c, 0, 62, 0
2, 35040, Note_on_c, 0, 74, 55
2, 35520, Note_on_c, 0, 74, 0
2, 35520, Note_on_c, 0, 64, 48
2, 35520, Note_on_c, 0, 72, 57
2, 35760, Note_on_c, 0, 72, 0
2, 35760, Note_on_c, 0, 64, 0
2, 35760, Note_on_c, 0, 62, 43
2, 35760, Note_on_c, 0, 71, 51
2, 35880, Note_on_c, 0, 71, 0
2, 35880, Note_on_c, 0, 62, 0
2, 35880, Note_on_c, 0, 64, 37
2, 35880, Note_on_c, 0, 72, 45
2, 36000, Note_on_c, 0, 72, 0
2, 36000, Note_on_c, 0, 64, 0
2, 36000, Note_on_c, 0, 60, 43
2, 36000, Note_on_c, 0, 69, 51
2, 36480, Note_on_c, 0, 69, 0
2, 36480, Note_on_c, 0, 60, 0
2, 36480, Note_on_c, 0, 57, 55
2, 36480, Note_on_c, 0, 62, 48
2, 36600, Note_on_c, 0, 62, 0
2, 36600, Note_on_c, 0, 57, 0
2, 36600, Note_on_c, 0, 59, 40
2, 36720, Note_on_c, 0, 59, 0
2, 36720, Note_on_c, 0, 60, 45
2, 36840, Note_on_c, 0, 60, 0
2, 36840, Note_on_c, 0, 62, 40
2, 36960, Note_on_c, 0, 62, 0
2, 36960, Note_on_c, 0, 74, 52
2, 37440, Note_on_c, 0, 74, 0
2, 37440, Note_on_c, 0, 62, 45
2, 37440, Note_on_c, 0, 71, 54
2, 37680, Note_on_c, 0, 71, 0
2, 37680, Note_on_c, 0, 62, 0
2, 37680, Note_on_c, 0, 60, 40
2, 37680, Note_on_c, 0, 69, 48
2, 37800, Note_on_c, 0, 69, 0
2, 37800, Note_on_c, 0, 60, 0
2, 37800, Note_on_c, 0, 62, 35
2, 37800, Note_on_c, 0, 71, 42
2, 37920, Note_on_c, 0, 71, 0
2, 37920, Note_on_c, 0, 62, 0
2, 37920, Note_on_c, 0, 59, 40
2, 37920, Note_on_c, 0, 67, 48
2, 38160, Note_on_c, 0, 67, 0
2, 38160, Note_on_c, 0, 59, 0
2, 38160, Note_on_c, 0, 62, 34
2, 38160, Note_on_c, 0, 71, 40
2, 38400, Note_on_c, 0, 71, 0
2, 38400, Note_on_c, 0, 62, 0
2, 38400, Note_on_c, 0, 60, 39
2, 38400, Note_on_c, 0, 69, 46
2, 38640, Note_on_c, 0, 69, 0
2, 38640, Note_on_c, 0, 60, 0
2, 38640, Note_on_c, 0, 59, 36
2, 38640, Note_on_c, 0, 67, 43
2, 38880, Note_on_c, 0, 67, 0
2, 38880, Note_on_c, 0, 59, 0
2, 38880, Note_on_c, 0, 79, 48
2, 38880, Note_on_c, 0, 59, 40
2, 38880, Note_on_c, 0, 67, 48
2, 39360, Note_on_c, 0, 67, 0
2, 39360, Note_on_c, 0, 59, 0
2, 39360, Note_on_c, 0, 79, 0
2, 39360, Note_on_c, 0, 59, 34
2, 39360, Note_on_c, 0, 62, 40
2, 39840, Note_on_c, 0, 62, 0
2, 39840, Note_on_c, 0, 59, 0
2, 39840, Note_on_c, 0, 79, 48
2, 40320, Note_on_c, 0, 79, 0
2, 40320, Note_on_c, 0, 59, 33
2, 40320, Note_on_c, 0, 62, 39
2, 40800, Note_on_c, 0, 62, 0
2, 40800, Note_on_c, 0, 59, 0
2, 40800, Note_on_c, 0, 79, 48
2, 41760, Note_on_c, 0, 79, 0
2, 41760, Note_on_c, 0, 78, 45
2, 41880, Note_on_c, 0, 76, 41
2, 41900, Note_on_c, 0, 78, 0
2, 42000, Note_on_c, 0, 74, 44
2, 42020, Note_on_c, 0, 76, 0
2, 42120, Note_on_c, 0, 72, 40
2, 42140, Note_on_c, 0, 74, 0
2, 42240, Note_on_c, 0, 71, 48
2, 42260, Note_on_c, 0, 72, 0
2, 42720, Note_on_c, 0, 71, 0
2, 42720, Note_on_c, 0, 60, 34
2, 42720, Note_on_c, 0, 66, 34
2, 42720, Note_on_c, 0, 69, 41
2, 43200, Note_on_c, 0, 69, 0
2, 43200, Note_on_c, 0, 66, 0
2, 43200, Note_on_c, 0, 60, 0
2, 43200, Note_on_c, 0, 67, 40
2, 43200, Note_on_c, 0, 59, 34
2, 43200, Note_on_c, 0, 62, 34
2, 43680, Note_on_c, 0, 62, 0
2, 43680, Note_on_c, 0, 59, 0
2, 43680, Note_on_c, 0, 67, 0
2, 43680, Note_on_c, 0, 86, 43
2, 44160, Note_on_c, 0, 86, 0
2, 44160, Note_on_c, 0, 67, 38
2, 44160, Note_on_c, 0, 59, 32
2, 44160, Note_on_c, 0, 62, 32
2, 44640, Note_on_c, 0, 62, 0
2, 44640, Note_on_c, 0, 59, 0
2, 44640, Note_on_c, 0, 67, 0
2, 44640, Note_on_c, 0, 86, 39
2, 45120, Note_on_c, 0, 86, 0
2, 45120, Note_on_c, 0, 67, 38
2, 45120, Note_on_c, 0, 59, 32
2, 45120, Note_on_c, 0, 62, 32
2, 45600, Note_on_c, 0, 62, 0
2, 45600, Note_on_c, 0, 59, 0
2, 45600, Note_on_c, 0, 67, 0
2, 45600, Note_on_c, 0, 86, 39
2, 46080, Note_on_c, 0, 86, 0
2, 46080, Note_on_c, 0, 59, 33
2, 46080, Note_on_c, 0, 62, 39
2, 46560, Note_on_c, 0, 62, 0
2, 46560, Note_on_c, 0, 59, 0
2, 46560, Note_on_c, 0, 86, 42
2, 46920, Note_on_c, 0, 62, 46
2, 47040, Note_on_c, 0, 62, 0
2, 47040, Note_on_c, 0, 86, 0
2, 47040, Note_on_c, 0, 59, 43
2, 47040, Note_on_c, 0, 67, 51
2, 47280, Note_on_c, 0, 67, 0
2, 47280, Note_on_c, 0, 59, 0
2, 47280, Note_on_c, 0, 67, 44
2, 47520, Note_on_c, 0, 67, 0
2, 47520, Note_on_c, 0, 86, 47
2, 47520, Note_on_c, 0, 59, 42
2, 47520, Note_on_c, 0, 67, 50
2, 47640, Note_on_c, 0, 67, 0
2, 47640, Note_on_c, 0, 59, 0
2, 47640, Note_on_c, 0, 69, 40
2, 47760, Note_on_c, 0, 69, 0
2, 47760, Note_on_c, 0, 71, 43
2, 47880, Note_on_c, 0, 71, 0
2, 47880, Note_on_c, 0, 72, 39
2, 47965, Note_on_c, 0, 72, 0
2, 47970, Note_on_c, 0, 72, 44
2, 48000, Note_on_c, 0, 86, 0
2, 48000, Note_on_c, 0, 62, 43
2, 48000, Note_on_c, 0, 71, 51
2, 48030, Note_on_c, 0, 72, 0
2, 48240, Note_on_c, 0, 71, 0
2, 48240, Note_on_c, 0, 62, 0
2, 48240, Note_on_c, 0, 69, 39
2, 48360, Note_on_c, 0, 69, 0
2, 48360, Note_on_c, 0, 71, 38
2, 48480, Note_on_c, 0, 71, 0
2, 48480, Note_on_c, 0, 86, 45
2, 48480, Note_on_c, 0, 59, 38
2, 48480, Note_on_c, 0, 67, 45
2, 48840, Note_on_c, 0, 67, 0
2, 48840, Note_on_c, 0, 59, 0
2, 48840, Note_on_c, 0, 64, 47
2, 48960, Note_on_c, 0, 64, 0
2, 48960, Note_on_c, 0, 86, 0
2, 48960, Note_on_c, 0, 60, 43
2, 48960, Note_on_c, 0, 69, 51
2, 49200, Note_on_c, 0, 69, 0
2, 49200, Note_on_c, 0, 60, 0
2, 49200, Note_on_c, 0, 69, 45
2, 49440, Note_on_c, 0, 69, 0
2, 49440, Note_on_c, 0, 86, 47
2, 49440, Note_on_c, 0, 60, 42
2, 49440, Note_on_c, 0, 69, 50
2, 49560, Note_on_c, 0, 69, 0
2, 49560, Note_on_c, 0, 60, 0
2, 49560, Note_on_c, 0, 71, 40
2, 49680, Note_on_c, 0, 71, 0
2, 49680, Note_on_c, 0, 72, 45
2, 49800, Note_on_c, 0, 72, 0
2, 49800, Note_on_c, 0, 74, 40
2, 49885, Note_on_c, 0, 74, 0
2, 49890, Note_on_c, 0, 74, 44
2, 49920, Note_on_c, 0, 86, 0
2, 49920, Note_on_c, 0, 64, 43
2, 49920, Note_on_c, 0, 72, 51
2, 49950, Note_on_c, 0, 74, 0
2, 50160, Note_on_c, 0, 72, 0
2, 50160, Note_on_c, 0, 64, 0
2, 50160, Note_on_c, 0, 71, 41
2, 50280, Note_on_c, 0, 71, 0
2, 50280, Note_on_c, 0, 72, 38
2, 50400, Note_on_c, 0, 72, 0
2, 50400, Note_on_c, 0, 86, 45
2, 50400, Note_on_c, 0, 60, 38
2, 50400, Note_on_c, 0, 69, 45
2, 50760, Note_on_c, 0, 69, 0
2, 50760, Note_on_c, 0, 60, 0
2, 50760, Note_on_c, 0, 67, 47
2, 50880, Note_on_c, 0, 67, 0
2, 50880, Note_on_c, 0, 86, 0
2, 50880, Note_on_c, 0, 57, 43
2, 50880, Note_on_c, 0, 66, 51
2, 51120, Note_on_c, 0, 66, 0
2, 51120, Note_on_c, 0, 57, 0
2, 51120, Note_on_c, 0, 60, 39
2, 51120, Note_on_c, 0, 66, 48
2, 51330, Note_on_c, 0, 66, 0
2, 51330, Note_on_c, 0, 67, 42
2, 51360, Note_on_c, 0, 67, 0
2, 51360, Note_on_c, 0, 60, 0
2, 51360, Note_on_c, 0, 86, 47
2, 51360, Note_on_c, 0, 57, 42
2, 51360, Note_on_c, 0, 66, 50
2, 51480, Note_on_c, 0, 66, 0
2, 51480, Note_on_c, 0, 57, 0
2, 51480, Note_on_c, 0, 62, 40
2, 51600, Note_on_c, 0, 62, 0
2, 51600, Note_on_c, 0, 60, 42
2, 51600, Note_on_c, 0, 64, 45
2, 51720, Note_on_c, 0, 64, 0
2, 51720, Note_on_c, 0, 60, 0
2, 51720, Note_on_c, 0, 66, 40
2, 51840, Note_on_c, 0, 66, 0
2, 51840, Note_on_c, 0, 86, 0
2, 51840, Note_on_c, 0, 59, 43
2, 51840, Note_on_c, 0, 67, 51
2, 52320, Note_on_c, 0, 67, 0
2, 52320, Note_on_c, 0, 59, 0
2, 52320, Note_on_c, 0, 86, 47
2, 52680, Note_on_c, 0, 62, 41
2, 52800, Note_on_c, 0, 62, 0
2, 52800, Note_on_c, 0, 86, 0
2, 52800, Note_on_c, 0, 67, 51
2, 52800, Note_on_c, 0, 59, 43
2, 53040, Note_on_c, 0, 59, 0
2, 53040, Note_on_c, 0, 67, 0
2, 53040, Note_on_c, 0, 67, 44
2, 53280, Note_on_c, 0, 67, 0
2, 53280, Note_on_c, 0, 59, 42
2, 53280, Note_on_c, 0, 77, 44
2, 53280, Note_on_c, 0, 67, 50
2, 53400, Note_on_c, 0, 67, 0
2, 53400, Note_on_c, 0, 59, 0
2, 53400, Note_on_c, 0, 69, 40
2, 53520, Note_on_c, 0, 69, 0
2, 53520, Note_on_c, 0, 71, 45
2, 53640, Note_on_c, 0, 71, 0
2, 53640, Note_on_c, 0, 72, 40
2, 53725, Note_on_c, 0, 72, 0
2, 53730, Note_on_c, 0, 72, 44
2, 53760, Note_on_c, 0, 77, 0
2, 53760, Note_on_c, 0, 71, 51
2, 53760, Note_on_c, 0, 62, 43
2, 53790, Note_on_c, 0, 72, 0
2, 54000, Note_on_c, 0, 62, 0
2, 54000, Note_on_c, 0, 71, 0
2, 54000, Note_on_c, 0, 69, 41
2, 54120, Note_on_c, 0, 69, 0
2, 54120, Note_on_c, 0, 71, 38
2, 54240, Note_on_c, 0, 71, 0
2, 54240, Note_on_c, 0, 59, 38
2, 54240, Note_on_c, 0, 67, 45
2, 54240, Note_on_c, 0, 77, 42
2, 54600, Note_on_c, 0, 67, 0
2, 54600, Note_on_c, 0, 59, 0
2, 54600, Note_on_c, 0, 64, 47
2, 54720, Note_on_c, 0, 64, 0
2, 54720, Note_on_c, 0, 77, 0
2, 54720, Note_on_c, 0, 69, 51
2, 54720, Note_on_c, 0, 60, 43
2, 54960, Note_on_c, 0, 60, 0
2, 54960, Note_on_c, 0, 69, 0
2, 54960, Note_on_c, 0, 69, 45
2, 55200, Note_on_c, 0, 69, 0
2, 55200, Note_on_c, 0, 60, 44
2, 55200, Note_on_c, 0, 76, 46
2, 55200, Note_on_c, 0, 69, 51
2, 55320, Note_on_c, 0, 69, 0
2, 55320, Note_on_c, 0, 60, 0
2, 55320, Note_on_c, 0, 71, 42
2, 55440, Note_on_c, 0, 71, 0
2, 55440, Note_on_c, 0, 72, 48
2, 55560, Note_on_c, 0, 72, 0
2, 55560, Note_on_c, 0, 74, 43
2, 55645, Note_on_c, 0, 74, 0
2, 55650, Note_on_c, 0, 74, 47
2, 55680, Note_on_c, 0, 76, 0
2, 55680, Note_on_c, 0, 72, 55
2, 55680, Note_on_c, 0, 64, 46
2, 55710, Note_on_c, 0, 74, 0
2, 55920, Note_on_c, 0, 64, 0
2, 55920, Note_on_c, 0, 72, 0
2, 55920, Note_on_c, 0, 71, 45
2, 56040, Note_on_c, 0, 71, 0
2, 56040, Note_on_c, 0, 72, 41
2, 56160, Note_on_c, 0, 72, 0
2, 56160, Note_on_c, 0, 60, 42
2, 56160, Note_on_c, 0, 69, 51
2, 56160, Note_on_c, 0, 76, 47
2, 56520, Note_on_c, 0, 69, 0
2, 56520, Note_on_c, 0, 60, 0
2, 56520, Note_on_c, 0, 67, 50
2, 56640, Note_on_c, 0, 67, 0
2, 56640, Note_on_c, 0, 76, 0
2, 56640, Note_on_c, 0, 72, 55
2, 56640, Note_on_c, 0, 64, 46
2, 56880, Note_on_c, 0, 64, 0
2, 56880, Note_on_c, 0, 72, 0
2, 56880, Note_on_c, 0, 72, 49
2, 57120, Note_on_c, 0, 72, 0
2, 57120, Note_on_c, 0, 64, 47
2, 57120, Note_on_c, 0, 81, 53
2, 57120, Note_on_c, 0, 72, 56
2, 57240, Note_on_c, 0, 72, 0
2, 57240, Note_on_c, 0, 64, 0
2, 57240, Note_on_c, 0, 74, 45
2, 57360, Note_on_c, 0, 74, 0
2, 57360, Note_on_c, 0, 76, 52
2, 57480, Note_on_c, 0, 76, 0
2, 57480, Note_on_c, 0, 78, 46
2, 57565, Note_on_c, 0, 78, 0
2, 57570, Note_on_c, 0, 78, 50
2, 57600, Note_on_c, 0, 81, 0
2, 57600, Note_on_c, 0, 76, 58
2, 57600, Note_on_c, 0, 67, 49
2, 57630, Note_on_c, 0, 78, 0
2, 57840, Note_on_c, 0, 67, 0
2, 57840, Note_on_c, 0, 76, 0
2, 57840, Note_on_c, 0, 74, 48
2, 57960, Note_on_c, 0, 74, 0
2, 57960, Note_on_c, 0, 76, 40
2, 58080, Note_on_c, 0, 76, 0
2, 58080, Note_on_c, 0, 66, 44
2, 58080, Note_on_c, 0, 72, 54
2, 58080, Note_on_c, 0, 81, 53
2, 58440, Note_on_c, 0, 72, 0
2, 58440, Note_on_c, 0, 66, 0
2, 58440, Note_on_c, 0, 74, 53
2, 58560, Note_on_c, 0, 74, 0
2, 58560, Note_on_c, 0, 81, 0
2, 58560, Note_on_c, 0, 79, 58
2, 58560, Note_on_c, 0, 71, 49
2, 58800, Note_on_c, 0, 71, 0
2, 58800, Note_on_c, 0, 79, 0
2, 58800, Note_on_c, 0, 79, 54
2, 59040, Note_on_c, 0, 79, 0
2, 59040, Note_on_c, 0, 71, 52
2, 59040, Note_on_c, 0, 86, 57
2, 59040, Note_on_c, 0, 79, 60
2, 59160, Note_on_c, 0, 79, 0
2, 59160, Note_on_c, 0, 71, 0
2, 59160, Note_on_c, 0, 81, 49
2, 59280, Note_on_c, 0, 81, 0
2, 59280, Note_on_c, 0, 83, 56
2, 59400, Note_on_c, 0, 83, 0
2, 59400, Note_on_c, 0, 84, 49
2, 59485, Note_on_c, 0, 84, 0
2, 59490, Note_on_c, 0, 84, 53
2, 59520, Note_on_c, 0, 86, 0
2, 59520, Note_on_c, 0, 83, 63
2, 59520, Note_on_c, 0, 74, 53
2, 59550, Note_on_c, 0, 84, 0
2, 59760, Note_on_c, 0, 74, 0
2, 59760, Note_on_c, 0, 83, 0
2, 59760, Note_on_c, 0, 81, 58
2, 59880, Note_on_c, 0, 81, 0
2, 59880, Note_on_c, 0, 83, 55
2, 60000, Note_on_c, 0, 83, 0
2, 60000, Note_on_c, 0, 71, 55
2, 60000, Note_on_c, 0, 79, 67
2, 60000, Note_on_c, 0, 91, 64
2, 60480, Note_on_c, 0, 91, 0
2, 60480, Note_on_c, 0, 79, 0
2, 60480, Note_on_c, 0, 71, 0
2, 60480, Note_on_c, 0, 57, 58
2, 60480, Note_on_c, 0, 62, 51
2, 60600, Note_on_c, 0, 62, 0
2, 60600, Note_on_c, 0, 57, 0
2, 60600, Note_on_c, 0, 59, 46
2, 60720, Note_on_c, 0, 59, 0
2, 60720, Note_on_c, 0, 60, 48
2, 60840, Note_on_c, 0, 60, 0
2, 60840, Note_on_c, 0, 62, 45
2, 60960, Note_on_c, 0, 62, 0
2, 60960, Note_on_c, 0, 74, 55
2, 61440, Note_on_c, 0, 74, 0
2, 61440, Note_on_c, 0, 64, 48
2, 61440, Note_on_c, 0, 72, 57
2, 61680, Note_on_c, 0, 72, 0
2, 61680, Note_on_c, 0, 64, 0
2, 61680, Note_on_c, 0, 62, 43
2, 61680, Note_on_c, 0, 71, 51
2, 61800, Note_on_c, 0, 71, 0
2, 61800, Note_on_c, 0, 62, 0
2, 61800, Note_on_c, 0, 64, 37
2, 61800, Note_on_c, 0, 72, 45
2, 61920, Note_on_c, 0, 72, 0
2, 61920, Note_on_c, 0, 64, 0
2, 61920, Note_on_c, 0, 60, 43
2, 61920, Note_on_c, 0, 69, 51
2, 62400, Note_on_c, 0, 69, 0
2, 62400, Note_on_c, 0, 60, 0
2, 62400, Note_on_c, 0, 57, 58
2, 62400, Note_on_c, 0, 62, 51
2, 62520, Note_on_c, 0, 62, 0
2, 62520, Note_on_c, 0, 57, 0
2, 62520, Note_on_c, 0, 59, 46
2, 62640, Note_on_c, 0, 59, 0
2, 62640, Note_on_c, 0, 60, 48
2, 62760, Note_on_c, 0, 60, 0
2, 62760, Note_on_c, 0, 62, 45
2, 62880, Note_on_c, 0, 62, 0
2, 62880, Note_on_c, 0, 74, 55
2, 63360, Note_on_c, 0, 74, 0
2, 63360, Note_on_c, 0, 62, 48
2, 63360, Note_on_c, 0, 71, 57
2, 63600, Note_on_c, 0, 71, 0
2, 63600, Note_on_c, 0, 62, 0
2, 63600, Note_on_c, 0, 60, 43
2, 63600, Note_on_c, 0, 69, 51
2, 63720, Note_on_c, 0, 69, 0
2, 63720, Note_on_c, 0, 60, 0
2, 63720, Note_on_c, 0, 62, 37
2, 63720, Note_on_c, 0, 71, 45
2, 63840, Note_on_c, 0, 71, 0
2, 63840, Note_on_c, 0, 62, 0
2, 63840, Note_on_c, 0, 59, 43
2, 63840, Note_on_c, 0, 67, 51
2, 64320, Note_on_c, 0, 67, 0
2, 64320, Note_on_c, 0, 59, 0
2, 64320, Note_on_c, 0, 57, 58
2, 64320, Note_on_c, 0, 62, 51
2, 64440, Note_on_c, 0, 62, 0
2, 64440, Note_on_c, 0, 57, 0
2, 64440, Note_on_c, 0, 59, 46
2, 64560, Note_on_c, 0, 59, 0
2, 64560, Note_on_c, 0, 60, 48
2, 64680, Note_on_c, 0, 60, 0
2, 64680, Note_on_c, 0, 62, 46
2, 64800, Note_on_c, 0, 62, 0
2, 64800, Note_on_c, 0, 74, 55
2, 65280, Note_on_c, 0, 74, 0
2, 65280, Note_on_c, 0, 64, 48
2, 65280, Note_on_c, 0, 72, 57
2, 65520, Note_on_c, 0, 72, 0
2, 65520, Note_on_c, 0, 64, 0
2, 65520, Note_on_c, 0, 62, 43
2, 65520, Note_on_c, 0, 71, 51
2, 65640, Note_on_c, 0, 71, 0
2, 65640, Note_on_c, 0, 62, 0
2, 65640, Note_on_c, 0, 64, 37
2, 65640, Note_on_c, 0, 72, 45
2, 65760, Note_on_c, 0, 72, 0
2, 65760, Note_on_c, 0, 64, 0
2, 65760, Note_on_c, 0, 60, 43
2, 65760, Note_on_c, 0, 69, 51
2, 66240, Note_on_c, 0, 69, 0
2, 66240, Note_on_c, 0, 60, 0
2, 66240, Note_on_c, 0, 57, 55
2, 66240, Note_on_c, 0, 62, 48
2, 66360, Note_on_c, 0, 62, 0
2, 66360, Note_on_c, 0, 57, 0
2, 66360, Note_on_c, 0, 59, 44
2, 66480, Note_on_c, 0, 59, 0
2, 66480, Note_on_c, 0, 60, 45
2, 66600, Note_on_c, 0, 60, 0
2, 66600, Note_on_c, 0, 62, 41
2, 66720, Note_on_c, 0, 62, 0
2, 66720, Note_on_c, 0, 74, 52
2, 67200, Note_on_c, 0, 74, 0
2, 67200, Note_on_c, 0, 62, 45
2, 67200, Note_on_c, 0, 71, 54
2, 67440, Note_on_c, 0, 71, 0
2, 67440, Note_on_c, 0, 62, 0
2, 67440, Note_on_c, 0, 60, 40
2, 67440, Note_on_c, 0, 69, 48
2, 67560, Note_on_c, 0, 69, 0
2, 67560, Note_on_c, 0, 60, 0
2, 67560, Note_on_c, 0, 62, 35
2, 67560, Note_on_c, 0, 71, 42
2, 67680, Note_on_c, 0, 71, 0
2, 67680, Note_on_c, 0, 62, 0
2, 67680, Note_on_c, 0, 59, 40
2, 67680, Note_on_c, 0, 67, 48
2, 67920, Note_on_c, 0, 67, 0
2, 67920, Note_on_c, 0, 59, 0
2, 67920, Note_on_c, 0, 62, 34
2, 67920, Note_on_c, 0, 71, 40
2, 68160, Note_on_c, 0, 71, 0
2, 68160, Note_on_c, 0, 62, 0
2, 68160, Note_on_c, 0, 60, 39
2, 68160, Note_on_c, 0, 69, 46
2, 68400, Note_on_c, 0, 69, 0
2, 68400, Note_on_c, 0, 60, 0
2, 68400, Note_on_c, 0, 59, 36
2, 68400, Note_on_c, 0, 67, 43
2, 68640, Note_on_c, 0, 67, 0
2, 68640, Note_on_c, 0, 59, 0
2, 68640, Note_on_c, 0, 79, 48
2, 68640, Note_on_c, 0, 59, 40
2, 68640, Note_on_c, 0, 67, 48
2, 69120, Note_on_c, 0, 67, 0
2, 69120, Note_on_c, 0, 59, 0
2, 69120, Note_on_c, 0, 79, 0
2, 69120, Note_on_c, 0, 59, 34
2, 69120, Note_on_c, 0, 62, 40
2, 69600, Note_on_c, 0, 62, 0
2, 69600, Note_on_c, 0, 59, 0
2, 69600, Note_on_c, 0, 79, 48
2, 70080, Note_on_c, 0, 79, 0
2, 70080, Note_on_c, 0, 59, 33
2, 70080, Note_on_c, 0, 62, 39
2, 70560, Note_on_c, 0, 62, 0
2, 70560, Note_on_c, 0, 59, 0
2, 70560, Note_on_c, 0, 79, 48
2, 71520, Note_on_c, 0, 79, 0
2, 71520, Note_on_c, 0, 78, 45
2, 71640, Note_on_c, 0, 76, 40
2, 71660, Note_on_c, 0, 78, 0
2, 71760, Note_on_c, 0, 74, 44
2, 71780, Note_on_c, 0, 76, 0
2, 71880, Note_on_c, 0, 72, 39
2, 71900, Note_on_c, 0, 74, 0
2, 72000, Note_on_c, 0, 71, 48
2, 72020, Note_on_c, 0, 72, 0
2, 72480, Note_on_c, 0, 71, 0
2, 72480, Note_on_c, 0, 60, 34
2, 72480, Note_on_c, 0, 66, 34
2, 72480, Note_on_c, 0, 69, 41
2, 72960, Note_on_c, 0, 69, 0
2, 72960, Note_on_c, 0, 66, 0
2, 72960, Note_on_c, 0, 60, 0
2, 72960, Note_on_c, 0, 67, 40
2, 72960, Note_on_c, 0, 59, 34
2, 72960, Note_on_c, 0, 62, 40
2, 73440, Note_on_c, 0, 62, 0
2, 73440, Note_on_c, 0, 59, 0
2, 73440, Note_on_c, 0, 67, 0
2, 73440, Note_on_c, 0, 86, 43
2, 73920, Note_on_c, 0, 86, 0
2, 73920, Note_on_c, 0, 59, 35
2, 73920, Note_on_c, 0, 62, 41
2, 74400, Note_on_c, 0, 62, 0
2, 74400, Note_on_c, 0, 59, 0
2, 74400, Note_on_c, 0, 86, 41
2, 74880, Note_on_c, 0, 86, 0
2, 74880, Note_on_c, 0, 59, 35
2, 74880, Note_on_c, 0, 62, 41
2, 75360, Note_on_c, 0, 62, 0
2, 75360, Note_on_c, 0, 59, 0
2, 75360, Note_on_c, 0, 86, 42
2, 75840, Note_on_c, 0, 86, 0
2, 75840, Note_on_c, 0, 59, 34
2, 75840, Note_on_c, 0, 62, 40
2, 76320, Note_on_c, 0, 62, 0
2, 76320, Note_on_c, 0, 59, 0
2, 76320, Note_on_c, 0, 86, 41
2, 76680, Note_on_c, 0, 86, 0
2, 76680, Note_on_c, 0, 62, 38
2, 76800, Note_on_c, 0, 62, 0
2, 76800, Note_on_c, 0, 58, 34
2, 76800, Note_on_c, 0, 62, 40
2, 77280, Note_on_c, 0, 62, 0
2, 77280, Note_on_c, 0, 58, 0
2, 77280, Note_on_c, 0, 86, 36
2, 77760, Note_on_c, 0, 86, 0
2, 77760, Note_on_c, 0, 58, 30
2, 77760, Note_on_c, 0, 62, 36
2, 78240, Note_on_c, 0, 62, 0
2, 78240, Note_on_c, 0, 58, 0
2, 78240, Note_on_c, 0, 86, 34
2, 78720, Note_on_c, 0, 86, 0
2, 78720, Note_on_c, 0, 58, 27
2, 78720, Note_on_c, 0, 62, 32
2, 79200, Note_on_c, 0, 62, 0
2, 79200, Note_on_c, 0, 58, 0
2, 79200, Note_on_c, 0, 86, 34
2, 79680, Note_on_c, 0, 86, 0
2, 79680, Note_on_c, 0, 58, 25
2, 79680, Note_on_c, 0, 62, 30
2, 80160, Note_on_c, 0, 62, 0
2, 80160, Note_on_c, 0, 58, 0
2, 80160, Note_on_c, 0, 86, 33
2, 80520, Note_on_c, 0, 86, 0
2, 80520, Note_on_c, 0, 62, 48
2, 80640, Note_on_c, 0, 62, 0
2, 80640, Note_on_c, 0, 67, 56
2, 80880, Note_on_c, 0, 65, 52
2, 81120, Note_on_c, 0, 65, 0
2, 81120, Note_on_c, 0, 67, 0
2, 81120, Note_on_c, 0, 67, 56
2, 81120, Note_on_c, 0, 60, 47
2, 81120, Note_on_c, 0, 63, 47
2, 81240, Note_on_c, 0, 67, 0
2, 81240, Note_on_c, 0, 69, 51
2, 81360, Note_on_c, 0, 69, 0
2, 81360, Note_on_c, 0, 63, 0
2, 81360, Note_on_c, 0, 60, 0
2, 81360, Note_on_c, 0, 70, 53
2, 81360, Note_on_c, 0, 58, 35
2, 81360, Note_on_c, 0, 62, 36
2, 81480, Note_on_c, 0, 70, 0
2, 81480, Note_on_c, 0, 72, 51
2, 81600, Note_on_c, 0, 72, 0
2, 81600, Note_on_c, 0, 62, 0
2, 81600, Note_on_c, 0, 58, 0
2, 81600, Note_on_c, 0, 70, 60
2, 81600, Note_on_c, 0, 63, 50
2, 81840, Note_on_c, 0, 63, 0
2, 81840, Note_on_c, 0, 70, 0
2, 81840, Note_on_c, 0, 69, 56
2, 81840, Note_on_c, 0, 65, 44
2, 81960, Note_on_c, 0, 69, 0
2, 81960, Note_on_c, 0, 70, 51
2, 82080, Note_on_c, 0, 70, 0
2, 82080, Note_on_c, 0, 65, 0
2, 82080, Note_on_c, 0, 67, 57
2, 82080, Note_on_c, 0, 58, 48
2, 82080, Note_on_c, 0, 62, 48
2, 82320, Note_on_c, 0, 62, 0
2, 82320, Note_on_c, 0, 58, 0
2, 82320, Note_on_c, 0, 67, 0
2, 82320, Note_on_c, 0, 69, 53
2, 82320, Note_on_c, 0, 60, 45
2, 82320, Note_on_c, 0, 63, 45
2, 82560, Note_on_c, 0, 63, 0
2, 82560, Note_on_c, 0, 60, 0
2, 82560, Note_on_c, 0, 69, 0
2, 82560, Note_on_c, 0, 65, 49
2, 82560, Note_on_c, 0, 70, 58
2, 82800, Note_on_c, 0, 70, 0
2, 82800, Note_on_c, 0, 65, 0
2, 82800, Note_on_c, 0, 69, 46
2, 82800, Note_on_c, 0, 72, 55
2, 83040, Note_on_c, 0, 72, 0
2, 83040, Note_on_c, 0, 69, 0
2, 83040, Note_on_c, 0, 69, 49
2, 83040, Note_on_c, 0, 72, 58
2, 83520, Note_on_c, 0, 72, 0
2, 83520, Note_on_c, 0, 69, 0
2, 83520, Note_on_c, 0, 70, 41
2, 83520, Note_on_c, 0, 74, 50
2, 84000, Note_on_c, 0, 74, 0
2, 84000, Note_on_c, 0, 70, 0
2, 84240, Note_on_c, 0, 65, 52
2, 84480, Note_on_c, 0, 65, 0
2, 84480, Note_on_c, 0, 70, 58
2, 84720, Note_on_c, 0, 69, 52
2, 84960, Note_on_c, 0, 69, 0
2, 84960, Note_on_c, 0, 70, 0
2, 84960, Note_on_c, 0, 70, 56
2, 84960, Note_on_c, 0, 63, 47
2, 84960, Note_on_c, 0, 67, 47
2, 85080, Note_on_c, 0, 70, 0
2, 85080, Note_on_c, 0, 72, 51
2, 85200, Note_on_c, 0, 72, 0
2, 85200, Note_on_c, 0, 67, 0
2, 85200, Note_on_c, 0, 63, 0
2, 85200, Note_on_c, 0, 74, 53
2, 85200, Note_on_c, 0, 62, 36
2, 85200, Note_on_c, 0, 65, 38
2, 85320, Note_on_c, 0, 74, 0
2, 85320, Note_on_c, 0, 75, 51
2, 85440, Note_on_c, 0, 75, 0
2, 85440, Note_on_c, 0, 65, 0
2, 85440, Note_on_c, 0, 62, 0
2, 85440, Note_on_c, 0, 58, 40
2, 85440, Note_on_c, 0, 74, 60
2, 85440, Note_on_c, 0, 67, 50
2, 85680, Note_on_c, 0, 67, 0
2, 85680, Note_on_c, 0, 74, 0
2, 85680, Note_on_c, 0, 58, 0
2, 85680, Note_on_c, 0, 63, 40
2, 85680, Note_on_c, 0, 60, 40
2, 85680, Note_on_c, 0, 72, 56
2, 85680, Note_on_c, 0, 69, 47
2, 85800, Note_on_c, 0, 72, 0
2, 85800, Note_on_c, 0, 74, 51
2, 85920, Note_on_c, 0, 74, 0
2, 85920, Note_on_c, 0, 69, 0
2, 85920, Note_on_c, 0, 60, 0
2, 85920, Note_on_c, 0, 63, 0
2, 85920, Note_on_c, 0, 70, 57
2, 85920, Note_on_c, 0, 62, 48
2, 85920, Note_on_c, 0, 65, 48
2, 86160, Note_on_c, 0, 65, 0
2, 86160, Note_on_c, 0, 62, 0
2, 86160, Note_on_c, 0, 70, 0
2, 86160, Note_on_c, 0, 69, 45
2, 86160, Note_on_c, 0, 72, 53
2, 86160, Note_on_c, 0, 60, 45
2, 86160, Note_on_c, 0, 63, 45
2, 86400, Note_on_c, 0, 63, 0
2, 86400, Note_on_c, 0, 69, 0
2, 86400, Note_on_c, 0, 72, 0
2, 86400, Note_on_c, 0, 60, 0
2, 86400, Note_on_c, 0, 65, 49
2, 86400, Note_on_c, 0, 74, 58
2, 86640, Note_on_c, 0, 74, 0
2, 86640, Note_on_c, 0, 65, 0
2, 86640, Note_on_c, 0, 67, 50
2, 86640, Note_on_c, 0, 76, 60
2, 86880, Note_on_c, 0, 76, 0
2, 86880, Note_on_c, 0, 67, 0
2, 86880, Note_on_c, 0, 67, 53
2, 86880, Note_on_c, 0, 76, 63
2, 87360, Note_on_c, 0, 76, 0
2, 87360, Note_on_c, 0, 67, 0
2, 87360, Note_on_c, 0, 66, 45
2, 87360, Note_on_c, 0, 74, 45
2, 87360, Note_on_c, 0, 78, 55
2, 87840, Note_on_c, 0, 78, 0
2, 87840, Note_on_c, 0, 74, 0
2, 87840, Note_on_c, 0, 66, 0
2, 87840, Note_on_c, 0, 74, 67
2, 88080, Note_on_c, 0, 72, 63
2, 88320, Note_on_c, 0, 74, 0
2, 88320, Note_on_c, 0, 79, 69
2, 88560, Note_on_c, 0, 72, 0
2, 88560, Note_on_c, 0, 70, 62
2, 88800, Note_on_c, 0, 70, 0
2, 88800, Note_on_c, 0, 79, 0
2, 88800, Note_on_c, 0, 77, 64
2, 88800, Note_on_c, 0, 69, 56
2, 88920, Note_on_c, 0, 77, 0
2, 88920, Note_on_c, 0, 79, 57
2, 89040, Note_on_c, 0, 79, 0
2, 89040, Note_on_c, 0, 69, 0
2, 89040, Note_on_c, 0, 77, 63
2, 89040, Note_on_c, 0, 65, 42
2, 89160, Note_on_c, 0, 77, 0
2, 89160, Note_on_c, 0, 75, 61
2, 89280, Note_on_c, 0, 75, 0
2, 89280, Note_on_c, 0, 65, 0
2, 89280, Note_on_c, 0, 74, 70
2, 89280, Note_on_c, 0, 70, 60
2, 89520, Note_on_c, 0, 70, 0
2, 89520, Note_on_c, 0, 74, 0
2, 89520, Note_on_c, 0, 74, 62
2, 89520, Note_on_c, 0, 69, 45
2, 89760, Note_on_c, 0, 69, 0
2, 89760, Note_on_c, 0, 74, 0
2, 89760, Note_on_c, 0, 70, 68
2, 89760, Note_on_c, 0, 67, 57
2, 90000, Note_on_c, 0, 67, 0
2, 90000, Note_on_c, 0, 70, 0
2, 90000, Note_on_c, 0, 65, 53
2, 90000, Note_on_c, 0, 72, 63
2, 90240, Note_on_c, 0, 72, 0
2, 90240, Note_on_c, 0, 65, 0
2, 90240, Note_on_c, 0, 70, 56
2, 90240, Note_on_c, 0, 74, 67
2, 90480, Note_on_c, 0, 74, 0
2, 90480, Note_on_c, 0, 70, 0
2, 90480, Note_on_c, 0, 70, 53
2, 90480, Note_on_c, 0, 74, 63
2, 90960, Note_on_c, 0, 74, 0
2, 90960, Note_on_c, 0, 70, 0
2, 90960, Note_on_c, 0, 70, 53
2, 90960, Note_on_c, 0, 74, 63
2, 91200, Note_on_c, 0, 74, 0
2, 91200, Note_on_c, 0, 70, 0
2, 91200, Note_on_c, 0, 67, 58
2, 91200, Note_on_c, 0, 70, 58
2, 91200, Note_on_c, 0, 79, 69
2, 91680, Note_on_c, 0, 79, 0
2, 91680, Note_on_c, 0, 70, 0
2, 91680, Note_on_c, 0, 67, 0
2, 91680, Note_on_c, 0, 72, 58
2, 91680, Note_on_c, 0, 65, 49
2, 91680, Note_on_c, 0, 77, 58
2, 91800, Note_on_c, 0, 77, 0
2, 91800, Note_on_c, 0, 65, 0
2, 91800, Note_on_c, 0, 67, 45
2, 91800, Note_on_c, 0, 79, 53
2, 91920, Note_on_c, 0, 79, 0
2, 91920, Note_on_c, 0, 67, 0
2, 91920, Note_on_c, 0, 65, 46
2, 91920, Note_on_c, 0, 77, 56
2, 92040, Note_on_c, 0, 77, 0
2, 92040, Note_on_c, 0, 65, 0
2, 92040, Note_on_c, 0, 63, 44
2, 92040, Note_on_c, 0, 75, 52
2, 92160, Note_on_c, 0, 75, 0
2, 92160, Note_on_c, 0, 63, 0
2, 92160, Note_on_c, 0, 72, 0
2, 92160, Note_on_c, 0, 62, 51
2, 92160, Note_on_c, 0, 70, 51
2, 92160, Note_on_c, 0, 74, 61
2, 92400, Note_on_c, 0, 74, 0
2, 92400, Note_on_c, 0, 70, 0
2, 92400, Note_on_c, 0, 62, 0
2, 92400, Note_on_c, 0, 62, 46
2, 92400, Note_on_c, 0, 67, 46
2, 92400, Note_on_c, 0, 74, 55
2, 92640, Note_on_c, 0, 74, 0
2, 92640, Note_on_c, 0, 67, 0
2, 92640, Note_on_c, 0, 62, 0
2, 92640, Note_on_c, 0, 67, 49
2, 92640, Note_on_c, 0, 70, 58
2, 92880, Note_on_c, 0, 70, 0
2, 92880, Note_on_c, 0, 67, 0
2, 92880, Note_on_c, 0, 65, 53
2, 92880, Note_on_c, 0, 72, 53
2, 93000, Note_on_c, 0, 65, 0
2, 93000, Note_on_c, 0, 63, 42
2, 93120, Note_on_c, 0, 63, 0
2, 93120, Note_on_c, 0, 72, 0
2, 93120, Note_on_c, 0, 62, 49
2, 93120, Note_on_c, 0, 74, 58
2, 93360, Note_on_c, 0, 74, 0
2, 93360, Note_on_c, 0, 62, 0
2, 93360, Note_on_c, 0, 62, 46
2, 93360, Note_on_c, 0, 67, 55
2, 93600, Note_on_c, 0, 67, 0
2, 93600, Note_on_c, 0, 62, 0
2, 93600, Note_on_c, 0, 60, 44
2, 93600, Note_on_c, 0, 63, 49
2, 93600, Note_on_c, 0, 69, 58
2, 93840, Note_on_c, 0, 69, 0
2, 93840, Note_on_c, 0, 63, 0
2, 93840, Note_on_c, 0, 60, 0
2, 93840, Note_on_c, 0, 62, 45
2, 93840, Note_on_c, 0, 67, 45
2, 93840, Note_on_c, 0, 70, 53
2, 94080, Note_on_c, 0, 70, 0
2, 94080, Note_on_c, 0, 67, 0
2, 94080, Note_on_c, 0, 62, 0
2, 94080, Note_on_c, 0, 60, 43
2, 94080, Note_on_c, 0, 63, 58
2, 94080, Note_on_c, 0, 69, 58
2, 94320, Note_on_c, 0, 69, 0
2, 94320, Note_on_c, 0, 63, 0
2, 94320, Note_on_c, 0, 60, 0
2, 94320, Note_on_c, 0, 58, 44
2, 94320, Note_on_c, 0, 67, 52
2, 94560, Note_on_c, 0, 67, 0
2, 94560, Note_on_c, 0, 58, 0
2, 94560, Note_on_c, 0, 67, 46
2, 94560, Note_on_c, 0, 60, 30
2, 94590, Note_on_c, 0, 67, 0
2, 94590, Note_on_c, 0, 66, 40
2, 94620, Note_on_c, 0, 66, 0
2, 94620, Note_on_c, 0, 67, 47
2, 94650, Note_on_c, 0, 67, 0
2, 94650, Note_on_c, 0, 66, 42
2, 94680, Note_on_c, 0, 66, 0
2, 94680, Note_on_c, 0, 64, 44
2, 94800, Note_on_c, 0, 64, 0
2, 94800, Note_on_c, 0, 66, 55
2, 94920, Note_on_c, 0, 66, 0
2, 94920, Note_on_c, 0, 67, 49
2, 95040, Note_on_c, 0, 67, 0
2, 95040, Note_on_c, 0, 60, 0
2, 95040, Note_on_c, 0, 58, 46
2, 95040, Note_on_c, 0, 67, 55
2, 95520, Note_on_c, 0, 67, 0
2, 95520, Note_on_c, 0, 58, 0
2, 95520, Note_on_c, 0, 62, 49
2, 95760, Note_on_c, 0, 60, 46
2, 96000, Note_on_c, 0, 60, 0
2, 96000, Note_on_c, 0, 62, 0
2, 96000, Note_on_c, 0, 58, 43
2, 96000, Note_on_c, 0, 67, 50
2, 96240, Note_on_c, 0, 65, 45
2, 96480, Note_on_c, 0, 65, 0
2, 96480, Note_on_c, 0, 67, 0
2, 96480, Note_on_c, 0, 58, 0
2, 96480, Note_on_c, 0, 67, 48
2, 96480, Note_on_c, 0, 60, 40
2, 96480, Note_on_c, 0, 63, 40
2, 96600, Note_on_c, 0, 67, 0
2, 96600, Note_on_c, 0, 69, 44
2, 96720, Note_on_c, 0, 69, 0
2, 96720, Note_on_c, 0, 63, 0
2, 96720, Note_on_c, 0, 60, 0
2, 96720, Note_on_c, 0, 70, 46
2, 96720, Note_on_c, 0, 58, 28
2, 96720, Note_on_c, 0, 62, 34
2, 96840, Note_on_c, 0, 70, 0
2, 96840, Note_on_c, 0, 72, 44
2, 96960, Note_on_c, 0, 72, 0
2, 96960, Note_on_c, 0, 62, 0
2, 96960, Note_on_c, 0, 58, 0
2, 96960, Note_on_c, 0, 70, 52
2, 96960, Note_on_c, 0, 63, 43
2, 97200, Note_on_c, 0, 63, 0
2, 97200, Note_on_c, 0, 70, 0
2, 97200, Note_on_c, 0, 69, 48
2, 97200, Note_on_c, 0, 65, 40
2, 97320, Note_on_c, 0, 69, 0
2, 97320, Note_on_c, 0, 70, 44
2, 97440, Note_on_c, 0, 70, 0
2, 97440, Note_on_c, 0, 65, 0
2, 97440, Note_on_c, 0, 67, 49
2, 97440, Note_on_c, 0, 58, 41
2, 97440, Note_on_c, 0, 62, 41
2, 97680, Note_on_c, 0, 62, 0
2, 97680, Note_on_c, 0, 58, 0
2, 97680, Note_on_c, 0, 67, 0
2, 97680, Note_on_c, 0, 69, 46
2, 97680, Note_on_c, 0, 60, 38
2, 97680, Note_on_c, 0, 63, 38
2, 97920, Note_on_c, 0, 63, 0
2, 97920, Note_on_c, 0, 60, 0
2, 97920, Note_on_c, 0, 69, 0
2, 97920, Note_on_c, 0, 65, 42
2, 97920, Note_on_c, 0, 70, 50
2, 98160, Note_on_c, 0, 70, 0
2, 98160, Note_on_c, 0, 65, 0
2, 98160, Note_on_c, 0, 69, 39
2, 98160, Note_on_c, 0, 72, 47
2, 98400, Note_on_c, 0, 72, 0
2, 98400, Note_on_c, 0, 69, 0
2, 98400, Note_on_c, 0, 69, 42
2, 98400, Note_on_c, 0, 72, 50
2, 98640, Note_on_c, 0, 72, 0
2, 98640, Note_on_c, 0, 69, 0
2, 98640, Note_on_c, 0, 70, 36
2, 98640, Note_on_c, 0, 74, 42
2, 98700, Note_on_c, 0, 74, 0
2, 98700, Note_on_c, 0, 70, 0
2, 98700, Note_on_c, 0, 69, 31
2, 98700, Note_on_c, 0, 72, 37
2, 98760, Note_on_c, 0, 72, 0
2, 98760, Note_on_c, 0, 69, 0
2, 98760, Note_on_c, 0, 67, 34
2, 98760, Note_on_c, 0, 70, 40
2, 98820, Note_on_c, 0, 70, 0
2, 98820, Note_on_c, 0, 67, 0
2, 98820, Note_on_c, 0, 69, 30
2, 98820, Note_on_c, 0, 72, 36
2, 98880, Note_on_c, 0, 72, 0
2, 98880, Note_on_c, 0, 69, 0
2, 98880, Note_on_c, 0, 70, 34
2, 98880, Note_on_c, 0, 74, 40
2, 99360, Note_on_c, 0, 74, 0
2, 99360, Note_on_c, 0, 70, 0
2, 99360, Note_on_c, 0, 65, 45
2, 99600, Note_on_c, 0, 63, 45
2, 99840, Note_on_c, 0, 63, 0
2, 99840, Note_on_c, 0, 65, 0
2, 99840, Note_on_c, 0, 62, 43
2, 99840, Note_on_c, 0, 70, 50
2, 100080, Note_on_c, 0, 69, 45
2, 100320, Note_on_c, 0, 69, 0
2, 100320, Note_on_c, 0, 70, 0
2, 100320, Note_on_c, 0, 62, 0
2, 100320, Note_on_c, 0, 70, 48
2, 100320, Note_on_c, 0, 63, 40
2, 100320, Note_on_c, 0, 67, 40
2, 100440, Note_on_c, 0, 70, 0
2, 100440, Note_on_c, 0, 72, 44
2, 100560, Note_on_c, 0, 72, 0
2, 100560, Note_on_c, 0, 67, 0
2, 100560, Note_on_c, 0, 63, 0
2, 100560, Note_on_c, 0, 74, 46
2, 100560, Note_on_c, 0, 62, 32
2, 100560, Note_on_c, 0, 65, 32
2, 100680, Note_on_c, 0, 74, 0
2, 100680, Note_on_c, 0, 75, 44
2, 100800, Note_on_c, 0, 75, 0
2, 100800, Note_on_c, 0, 65, 0
2, 100800, Note_on_c, 0, 62, 0
2, 100800, Note_on_c, 0, 58, 35
2, 100800, Note_on_c, 0, 74, 52
2, 100800, Note_on_c, 0, 67, 43
2, 101040, Note_on_c, 0, 67, 0
2, 101040, Note_on_c, 0, 74, 0
2, 101040, Note_on_c, 0, 58, 0
2, 101040, Note_on_c, 0, 63, 35
2, 101040, Note_on_c, 0, 60, 35
2, 101040, Note_on_c, 0, 72, 48
2, 101040, Note_on_c, 0, 69, 40
2, 101160, Note_on_c, 0, 72, 0
2, 101160, Note_on_c, 0, 74, 44
2, 101280, Note_on_c, 0, 74, 0
2, 101280, Note_on_c, 0, 69, 0
2, 101280, Note_on_c, 0, 60, 0
2, 101280, Note_on_c, 0, 63, 0
2, 101280, Note_on_c, 0, 70, 49
2, 101280, Note_on_c, 0, 62, 41
2, 101280, Note_on_c, 0, 65, 41
2, 101520, Note_on_c, 0, 65, 0
2, 101520, Note_on_c, 0, 62, 0
2, 101520, Note_on_c, 0, 70, 0
2, 101520, Note_on_c, 0, 69, 38
2, 101520, Note_on_c, 0, 72, 46
2, 101520, Note_on_c, 0, 60, 38
2, 101520, Note_on_c, 0, 63, 38
2, 101760, Note_on_c, 0, 63, 0
2, 101760, Note_on_c, 0, 69, 0
2, 101760, Note_on_c, 0, 72, 0
2, 101760, Note_on_c, 0, 60, 0
2, 101760, Note_on_c, 0, 65, 42
2, 101760, Note_on_c, 0, 74, 50
2, 102000, Note_on_c, 0, 74, 0
2, 102000, Note_on_c, 0, 65, 0
2, 102000, Note_on_c, 0, 67, 43
2, 102000, Note_on_c, 0, 76, 52
2, 102240, Note_on_c, 0, 76, 0
2, 102240, Note_on_c, 0, 67, 0
2, 102240, Note_on_c, 0, 73, 46
2, 102240, Note_on_c, 0, 76, 55
2, 102480, Note_on_c, 0, 76, 0
2, 102480, Note_on_c, 0, 73, 0
2, 102480, Note_on_c, 0, 74, 37
2, 102480, Note_on_c, 0, 78, 44
2, 102540, Note_on_c, 0, 78, 0
2, 102540, Note_on_c, 0, 74, 0
2, 102540, Note_on_c, 0, 73, 34
2, 102540, Note_on_c, 0, 76, 40
2, 102600, Note_on_c, 0, 76, 0
2, 102600, Note_on_c, 0, 73, 0
2, 102600, Note_on_c, 0, 71, 37
2, 102600, Note_on_c, 0, 74, 44
2, 102660, Note_on_c, 0, 74, 0
2, 102660, Note_on_c, 0, 71, 0
2, 102660, Note_on_c, 0, 73, 34
2, 102660, Note_on_c, 0, 76, 40
2, 102720, Note_on_c, 0, 76, 0
2, 102720, Note_on_c, 0, 73, 0
2, 102720, Note_on_c, 0, 66, 34
2, 102720, Note_on_c, 0, 74, 34
2, 102720, Note_on_c, 0, 78, 42
2, 103200, Note_on_c, 0, 78, 0
2, 103200, Note_on_c, 0, 74, 0
2, 103200, Note_on_c, 0, 66, 0
2, 103200, Note_on_c, 0, 74, 60
2, 103440, Note_on_c, 0, 72, 55
2, 103680, Note_on_c, 0, 74, 0
2, 103680, Note_on_c, 0, 82, 60
2, 103800, Note_on_c, 0, 82, 0
2, 103800, Note_on_c, 0, 81, 57
2, 103920, Note_on_c, 0, 81, 0
2, 103920, Note_on_c, 0, 72, 0
2, 103920, Note_on_c, 0, 79, 60
2, 103920, Note_on_c, 0, 70, 53
2, 104160, Note_on_c, 0, 70, 0
2, 104160, Note_on_c, 0, 79, 0
2, 104160, Note_on_c, 0, 77, 56
2, 104160, Note_on_c, 0, 69, 48
2, 104280, Note_on_c, 0, 77, 0
2, 104280, Note_on_c, 0, 79, 49
2, 104400, Note_on_c, 0, 79, 0
2, 104400, Note_on_c, 0, 69, 0
2, 104400, Note_on_c, 0, 77, 55
2, 104400, Note_on_c, 0, 65, 37
2, 104520, Note_on_c, 0, 77, 0
2, 104520, Note_on_c, 0, 75, 52
2, 104640, Note_on_c, 0, 75, 0
2, 104640, Note_on_c, 0, 65, 0
2, 104640, Note_on_c, 0, 74, 62
2, 104640, Note_on_c, 0, 70, 51
2, 104880, Note_on_c, 0, 70, 0
2, 104880, Note_on_c, 0, 74, 0
2, 104880, Note_on_c, 0, 74, 53
2, 104880, Note_on_c, 0, 69, 39
2, 105120, Note_on_c, 0, 69, 0
2, 105120, Note_on_c, 0, 74, 0
2, 105120, Note_on_c, 0, 70, 59
2, 105120, Note_on_c, 0, 67, 49
2, 105360, Note_on_c, 0, 67, 0
2, 105360, Note_on_c, 0, 70, 0
2, 105360, Note_on_c, 0, 65, 46
2, 105360, Note_on_c, 0, 72, 55
2, 105600, Note_on_c, 0, 72, 0
2, 105600, Note_on_c, 0, 65, 0
2, 105600, Note_on_c, 0, 70, 48
2, 105600, Note_on_c, 0, 74, 58
2, 105720, Note_on_c, 0, 74, 0
2, 105720, Note_on_c, 0, 70, 0
2, 105720, Note_on_c, 0, 72, 42
2, 105720, Note_on_c, 0, 75, 42
2, 105840, Note_on_c, 0, 75, 0
2, 105840, Note_on_c, 0, 72, 0
2, 105840, Note_on_c, 0, 70, 44
2, 105840, Note_on_c, 0, 74, 53
2, 106320, Note_on_c, 0, 74, 0
2, 106320, Note_on_c, 0, 70, 0
2, 106320, Note_on_c, 0, 70, 46
2, 106320, Note_on_c, 0, 74, 55
2, 106560, Note_on_c, 0, 74, 0
2, 106560, Note_on_c, 0, 70, 0
2, 106560, Note_on_c, 0, 67, 50
2, 106560, Note_on_c, 0, 74, 50
2, 106560, Note_on_c, 0, 79, 60
2, 107040, Note_on_c, 0, 79, 0
2, 107040, Note_on_c, 0, 74, 0
2, 107040, Note_on_c, 0, 67, 0
2, 107040, Note_on_c, 0, 72, 50
2, 107040, Note_on_c, 0, 65, 42
2, 107040, Note_on_c, 0, 77, 50
2, 107160, Note_on_c, 0, 77, 0
2, 107160, Note_on_c, 0, 65, 0
2, 107160, Note_on_c, 0, 79, 44
2, 107280, Note_on_c, 0, 79, 0
2, 107280, Note_on_c, 0, 77, 50
2, 107400, Note_on_c, 0, 77, 0
2, 107400, Note_on_c, 0, 71, 42
2, 107520, Note_on_c, 0, 71, 0
2, 107520, Note_on_c, 0, 72, 0
2, 107520, Note_on_c, 0, 65, 44
2, 107520, Note_on_c, 0, 71, 53
2, 107760, Note_on_c, 0, 71, 0
2, 107760, Note_on_c, 0, 65, 0
2, 107760, Note_on_c, 0, 67, 39
2, 107760, Note_on_c, 0, 72, 47
2, 108000, Note_on_c, 0, 72, 0
2, 108000, Note_on_c, 0, 67, 0
2, 108000, Note_on_c, 0, 69, 42
2, 108000, Note_on_c, 0, 74, 50
2, 108240, Note_on_c, 0, 74, 0
2, 108240, Note_on_c, 0, 69, 0
2, 108240, Note_on_c, 0, 62, 41
2, 108240, Note_on_c, 0, 67, 46
2, 108480, Note_on_c, 0, 67, 0
2, 108480, Note_on_c, 0, 62, 0
2, 108480, Note_on_c, 0, 63, 42
2, 108480, Note_on_c, 0, 69, 50
2, 108720, Note_on_c, 0, 69, 0
2, 108720, Note_on_c, 0, 70, 47
2, 108960, Note_on_c, 0, 70, 0
2, 108960, Note_on_c, 0, 63, 0
2, 108960, Note_on_c, 0, 62, 42
2, 108960, Note_on_c, 0, 69, 50
2, 109200, Note_on_c, 0, 69, 0
2, 109200, Note_on_c, 0, 67, 46
2, 109440, Note_on_c, 0, 67, 0
2, 109440, Note_on_c, 0, 62, 0
2, 109440, Note_on_c, 0, 60, 42
2, 109440, Note_on_c, 0, 63, 50
2, 109440, Note_on_c, 0, 69, 50
2, 109680, Note_on_c, 0, 69, 0
2, 109680, Note_on_c, 0, 63, 0
2, 109680, Note_on_c, 0, 60, 0
2, 109680, Note_on_c, 0, 58, 38
2, 109680, Note_on_c, 0, 67, 45
2, 109920, Note_on_c, 0, 67, 0
2, 109920, Note_on_c, 0, 58, 0
2, 109920, Note_on_c, 0, 67, 40
2, 109920, Note_on_c, 0, 60, 32
2, 109950, Note_on_c, 0, 67, 0
2, 109950, Note_on_c, 0, 66, 34
2, 109980, Note_on_c, 0, 66, 0
2, 109980, Note_on_c, 0, 67, 41
2, 110010, Note_on_c, 0, 67, 0
2, 110010, Note_on_c, 0, 66, 36
2, 110040, Note_on_c, 0, 66, 0
2, 110040, Note_on_c, 0, 64, 37
2, 110160, Note_on_c, 0, 64, 0
2, 110160, Note_on_c, 0, 66, 47
2, 110280, Note_on_c, 0, 66, 0
2, 110280, Note_on_c, 0, 67, 42
2, 110400, Note_on_c, 0, 67, 0
2, 110400, Note_on_c, 0, 67, 47
2, 110640, Note_on_c, 0, 60, 0
2, 110640, Note_on_c, 0, 57, 31
2, 110880, Note_on_c, 0, 57, 0
2, 110880, Note_on_c, 0, 67, 0
2, 110880, Note_on_c, 0, 79, 30
2, 110880, Note_on_c, 0, 58, 30
2, 111120, Note_on_c, 0, 79, 0
2, 111240, Note_on_c, 0, 58, 0
2, 111240, Note_on_c, 0, 62, 41
2, 111360, Note_on_c, 0, 62, 0
2, 111360, Note_on_c, 0, 59, 38
2, 111360, Note_on_c, 0, 67, 45
2, 111600, Note_on_c, 0, 67, 0
2, 111600, Note_on_c, 0, 59, 0
2, 111600, Note_on_c, 0, 67, 39
2, 111840, Note_on_c, 0, 67, 0
2, 111840, Note_on_c, 0, 86, 42
2, 111840, Note_on_c, 0, 59, 37
2, 111840, Note_on_c, 0, 67, 45
2, 111960, Note_on_c, 0, 67, 0
2, 111960, Note_on_c, 0, 59, 0
2, 111960, Note_on_c, 0, 69, 36
2, 112080, Note_on_c, 0, 69, 0
2, 112080, Note_on_c, 0, 71, 40
2, 112200, Note_on_c, 0, 71, 0
2, 112200, Note_on_c, 0, 72, 36
2, 112285, Note_on_c, 0, 72, 0
2, 112290, Note_on_c, 0, 72, 39
2, 112320, Note_on_c, 0, 86, 0
2, 112320, Note_on_c, 0, 62, 38
2, 112320, Note_on_c, 0, 71, 45
2, 112350, Note_on_c, 0, 72, 0
2, 112560, Note_on_c, 0, 71, 0
2, 112560, Note_on_c, 0, 62, 0
2, 112560, Note_on_c, 0, 69, 35
2, 112680, Note_on_c, 0, 69, 0
2, 112680, Note_on_c, 0, 71, 34
2, 112800, Note_on_c, 0, 71, 0
2, 112800, Note_on_c, 0, 86, 40
2, 112800, Note_on_c, 0, 59, 34
2, 112800, Note_on_c, 0, 67, 40
2, 113160, Note_on_c, 0, 67, 0
2, 113160, Note_on_c, 0, 59, 0
2, 113160, Note_on_c, 0, 64, 42
2, 113280, Note_on_c, 0, 64, 0
2, 113280, Note_on_c, 0, 86, 0
2, 113280, Note_on_c, 0, 60, 38
2, 113280, Note_on_c, 0, 69, 45
2, 113520, Note_on_c, 0, 69, 0
2, 113520, Note_on_c, 0, 60, 0
2, 113520, Note_on_c, 0, 69, 40
2, 113760, Note_on_c, 0, 69, 0
2, 113760, Note_on_c, 0, 86, 42
2, 113760, Note_on_c, 0, 60, 37
2, 113760, Note_on_c, 0, 69, 45
2, 113880, Note_on_c, 0, 69, 0
2, 113880, Note_on_c, 0, 60, 0
2, 113880, Note_on_c, 0, 71, 35
2, 114000, Note_on_c, 0, 71, 0
2, 114000, Note_on_c, 0, 72, 40
2, 114120, Note_on_c, 0, 72, 0
2, 114120, Note_on_c, 0, 74, 36
2, 114205, Note_on_c, 0, 74, 0
2, 114210, Note_on_c, 0, 74, 39
2, 114240, Note_on_c, 0, 86, 0
2, 114240, Note_on_c, 0, 64, 38
2, 114240, Note_on_c, 0, 72, 45
2, 114270, Note_on_c, 0, 74, 0
2, 114480, Note_on_c, 0, 72, 0
2, 114480, Note_on_c, 0, 64, 0
2, 114480, Note_on_c, 0, 71, 36
2, 114600, Note_on_c, 0, 71, 0
2, 114600, Note_on_c, 0, 72, 34
2, 114720, Note_on_c, 0, 72, 0
2, 114720, Note_on_c, 0, 86, 40
2, 114720, Note_on_c, 0, 60, 34
2, 114720, Note_on_c, 0, 69, 40
2, 115080, Note_on_c, 0, 69, 0
2, 115080, Note_on_c, 0, 60, 0
2, 115080, Note_on_c, 0, 67, 42
2, 115200, Note_on_c, 0, 67, 0
2, 115200, Note_on_c, 0, 86, 0
2, 115200, Note_on_c, 0, 60, 38
2, 115200, Note_on_c, 0, 66, 45
2, 115440, Note_on_c, 0, 66, 0
2, 115440, Note_on_c, 0, 60, 0
2, 115440, Note_on_c, 0, 66, 43
2, 115650, Note_on_c, 0, 66, 0
2, 115650, Note_on_c, 0, 67, 37
2, 115680, Note_on_c, 0, 67, 0
2, 115680, Note_on_c, 0, 86, 42
2, 115680, Note_on_c, 0, 60, 37
2, 115680, Note_on_c, 0, 66, 45
2, 115800, Note_on_c, 0, 66, 0
2, 115800, Note_on_c, 0, 60, 0
2, 115800, Note_on_c, 0, 62, 36
2, 115920, Note_on_c, 0, 62, 0
2, 115920, Note_on_c, 0, 64, 40
2, 116040, Note_on_c, 0, 64, 0
2, 116040, Note_on_c, 0, 66, 36
2, 116160, Note_on_c, 0, 66, 0
2, 116160, Note_on_c, 0, 86, 0
2, 116160, Note_on_c, 0, 59, 38
2, 116160, Note_on_c, 0, 67, 45
2, 116640, Note_on_c, 0, 67, 0
2, 116640, Note_on_c, 0, 59, 0
2, 116640, Note_on_c, 0, 86, 42
2, 117000, Note_on_c, 0, 62, 44
2, 117120, Note_on_c, 0, 62, 0
2, 117120, Note_on_c, 0, 86, 0
2, 117120, Note_on_c, 0, 67, 48
2, 117120, Note_on_c, 0, 59, 40
2, 117360, Note_on_c, 0, 59, 0
2, 117360, Note_on_c, 0, 67, 0
2, 117360, Note_on_c, 0, 67, 45
2, 117600, Note_on_c, 0, 67, 0
2, 117600, Note_on_c, 0, 59, 40
2, 117600, Note_on_c, 0, 67, 47
2, 117600, Note_on_c, 0, 86, 44
2, 117720, Note_on_c, 0, 67, 0
2, 117720, Note_on_c, 0, 59, 0
2, 117720, Note_on_c, 0, 69, 38
2, 117840, Note_on_c, 0, 69, 0
2, 117840, Note_on_c, 0, 71, 43
2, 117960, Note_on_c, 0, 71, 0
2, 117960, Note_on_c, 0, 72, 38
2, 118045, Note_on_c, 0, 72, 0
2, 118050, Note_on_c, 0, 72, 41
2, 118080, Note_on_c, 0, 86, 0
2, 118080, Note_on_c, 0, 62, 40
2, 118080, Note_on_c, 0, 71, 48
2, 118110, Note_on_c, 0, 72, 0
2, 118320, Note_on_c, 0, 71, 0
2, 118320, Note_on_c, 0, 62, 0
2, 118320, Note_on_c, 0, 69, 38
2, 118440, Note_on_c, 0, 69, 0
2, 118440, Note_on_c, 0, 71, 36
2, 118560, Note_on_c, 0, 71, 0
2, 118560, Note_on_c, 0, 86, 42
2, 118560, Note_on_c, 0, 67, 42
2, 118560, Note_on_c, 0, 59, 36
2, 118920, Note_on_c, 0, 59, 0
2, 118920, Note_on_c, 0, 67, 0
2, 118920, Note_on_c, 0, 64, 44
2, 119040, Note_on_c, 0, 64, 0
2, 119040, Note_on_c, 0, 86, 0
2, 119040, Note_on_c, 0, 69, 48
2, 119040, Note_on_c, 0, 60, 40
2, 119280, Note_on_c, 0, 60, 0
2, 119280, Note_on_c, 0, 69, 0
2, 119280, Note_on_c, 0, 69, 42
2, 119520, Note_on_c, 0, 69, 0
2, 119520, Note_on_c, 0, 60, 40
2, 119520, Note_on_c, 0, 69, 47
2, 119520, Note_on_c, 0, 86, 44
2, 119640, Note_on_c, 0, 69, 0
2, 119640, Note_on_c, 0, 60, 0
2, 119640, Note_on_c, 0, 71, 38
2, 119760, Note_on_c, 0, 71, 0
2, 119760, Note_on_c, 0, 72, 43
2, 119880, Note_on_c, 0, 72, 0
2, 119880, Note_on_c, 0, 74, 38
2, 119965, Note_on_c, 0, 74, 0
2, 119970, Note_on_c, 0, 74, 41
2, 120000, Note_on_c, 0, 86, 0
2, 120000, Note_on_c, 0, 72, 48
2, 120000, Note_on_c, 0, 64, 40
2, 120030, Note_on_c, 0, 74, 0
2, 120240, Note_on_c, 0, 64, 0
2, 120240, Note_on_c, 0, 72, 0
2, 120240, Note_on_c, 0, 71, 38
2, 120360, Note_on_c, 0, 71, 0
2, 120360, Note_on_c, 0, 72, 36
2, 120480, Note_on_c, 0, 72, 0
2, 120480, Note_on_c, 0, 86, 42
2, 120480, Note_on_c, 0, 60, 36
2, 120480, Note_on_c, 0, 69, 42
2, 120840, Note_on_c, 0, 69, 0
2, 120840, Note_on_c, 0, 60, 0
2, 120840, Note_on_c, 0, 67, 44
2, 120960, Note_on_c, 0, 67, 0
2, 120960, Note_on_c, 0, 86, 0
2, 120960, Note_on_c, 0, 60, 40
2, 120960, Note_on_c, 0, 66, 48
2, 121200, Note_on_c, 0, 66, 0
2, 121200, Note_on_c, 0, 60, 0
2, 121200, Note_on_c, 0, 66, 45
2, 121410, Note_on_c, 0, 66, 0
2, 121410, Note_on_c, 0, 67, 40
2, 121440, Note_on_c, 0, 67, 0
2, 121440, Note_on_c, 0, 60, 40
2, 121440, Note_on_c, 0, 66, 47
2, 121440, Note_on_c, 0, 86, 44
2, 121560, Note_on_c, 0, 66, 0
2, 121560, Note_on_c, 0, 60, 0
2, 121560, Note_on_c, 0, 62, 38
2, 121680, Note_on_c, 0, 62, 0
2, 121680, Note_on_c, 0, 64, 43
2, 121800, Note_on_c, 0, 64, 0
2, 121800, Note_on_c, 0, 66, 38
2, 121920, Note_on_c, 0, 66, 0
2, 121920, Note_on_c, 0, 86, 0
2, 121920, Note_on_c, 0, 67, 48
2, 121920, Note_on_c, 0, 59, 40
2, 122400, Note_on_c, 0, 59, 0
2, 122400, Note_on_c, 0, 67, 0
2, 122400, Note_on_c, 0, 86, 44
2, 122760, Note_on_c, 0, 62, 46
2, 122880, Note_on_c, 0, 62, 0
2, 122880, Note_on_c, 0, 86, 0
2, 122880, Note_on_c, 0, 67, 51
2, 122880, Note_on_c, 0, 59, 43
2, 123120, Note_on_c, 0, 59, 0
2, 123120, Note_on_c, 0, 67, 0
2, 123120, Note_on_c, 0, 67, 44
2, 123360, Note_on_c, 0, 67, 0
2, 123360, Note_on_c, 0, 59, 42
2, 123360, Note_on_c, 0, 77, 45
2, 123360, Note_on_c, 0, 67, 50
2, 123480, Note_on_c, 0, 67, 0
2, 123480, Note_on_c, 0, 59, 0
2, 123480, Note_on_c, 0, 69, 40
2, 123600, Note_on_c, 0, 69, 0
2, 123600, Note_on_c, 0, 71, 45
2, 123720, Note_on_c, 0, 71, 0
2, 123720, Note_on_c, 0, 72, 35
2, 123805, Note_on_c, 0, 72, 0
2, 123810, Note_on_c, 0, 72, 44
2, 123840, Note_on_c, 0, 77, 0
2, 123840, Note_on_c, 0, 71, 51
2, 123840, Note_on_c, 0, 62, 43
2, 123870, Note_on_c, 0, 72, 0
2, 124080, Note_on_c, 0, 62, 0
2, 124080, Note_on_c, 0, 71, 0
2, 124080, Note_on_c, 0, 69, 41
2, 124200, Note_on_c, 0, 69, 0
2, 124200, Note_on_c, 0, 71, 37
2, 124320, Note_on_c, 0, 71, 0
2, 124320, Note_on_c, 0, 59, 37
2, 124320, Note_on_c, 0, 67, 45
2, 124320, Note_on_c, 0, 77, 42
2, 124680, Note_on_c, 0, 67, 0
2, 124680, Note_on_c, 0, 59, 0
2, 124680, Note_on_c, 0, 64, 47
2, 124800, Note_on_c, 0, 64, 0
2, 124800, Note_on_c, 0, 77, 0
2, 124800, Note_on_c, 0, 69, 51
2, 124800, Note_on_c, 0, 60, 43
2, 125040, Note_on_c, 0, 60, 0
2, 125040, Note_on_c, 0, 69, 0
2, 125040, Note_on_c, 0, 69, 45
2, 125280, Note_on_c, 0, 69, 0
2, 125280, Note_on_c, 0, 60, 44
2, 125280, Note_on_c, 0, 76, 46
2, 125280, Note_on_c, 0, 69, 51
2, 125400, Note_on_c, 0, 69, 0
2, 125400, Note_on_c, 0, 60, 0
2, 125400, Note_on_c, 0, 71, 42
2, 125520, Note_on_c, 0, 71, 0
2, 125520, Note_on_c, 0, 72, 48
2, 125640, Note_on_c, 0, 72, 0
2, 125640, Note_on_c, 0, 74, 39
2, 125725, Note_on_c, 0, 74, 0
2, 125730, Note_on_c, 0, 74, 47
2, 125760, Note_on_c, 0, 76, 0
2, 125760, Note_on_c, 0, 72, 54
2, 125760, Note_on_c, 0, 64, 46
2, 125790, Note_on_c, 0, 74, 0
2, 126000, Note_on_c, 0, 64, 0
2, 126000, Note_on_c, 0, 72, 0
2, 126000, Note_on_c, 0, 71, 45
2, 126120, Note_on_c, 0, 71, 0
2, 126120, Note_on_c, 0, 72, 41
2, 126240, Note_on_c, 0, 72, 0
2, 126240, Note_on_c, 0, 60, 42
2, 126240, Note_on_c, 0, 69, 51
2, 126240, Note_on_c, 0, 76, 47
2, 126600, Note_on_c, 0, 69, 0
2, 126600, Note_on_c, 0, 60, 0
2, 126600, Note_on_c, 0, 67, 56
2, 126720, Note_on_c, 0, 67, 0
2, 126720, Note_on_c, 0, 76, 0
2, 126720, Note_on_c, 0, 72, 62
2, 126720, Note_on_c, 0, 64, 52
2, 126960, Note_on_c, 0, 64, 0
2, 126960, Note_on_c, 0, 72, 0
2, 126960, Note_on_c, 0, 72, 55
2, 127200, Note_on_c, 0, 72, 0
2, 127200, Note_on_c, 0, 64, 53
2, 127200, Note_on_c, 0, 81, 55
2, 127200, Note_on_c, 0, 72, 63
2, 127320, Note_on_c, 0, 72, 0
2, 127320, Note_on_c, 0, 64, 0
2, 127320, Note_on_c, 0, 74, 51
2, 127440, Note_on_c, 0, 74, 0
2, 127440, Note_on_c, 0, 76, 58
2, 127560, Note_on_c, 0, 76, 0
2, 127560, Note_on_c, 0, 78, 52
2, 127645, Note_on_c, 0, 78, 0
2, 127650, Note_on_c, 0, 78, 56
2, 127680, Note_on_c, 0, 81, 0
2, 127680, Note_on_c, 0, 76, 66
2, 127680, Note_on_c, 0, 67, 55
2, 127710, Note_on_c, 0, 78, 0
2, 127920, Note_on_c, 0, 67, 0
2, 127920, Note_on_c, 0, 76, 0
2, 127920, Note_on_c, 0, 74, 54
2, 128040, Note_on_c, 0, 74, 0
2, 128040, Note_on_c, 0, 76, 50
2, 128160, Note_on_c, 0, 76, 0
2, 128160, Note_on_c, 0, 66, 50
2, 128160, Note_on_c, 0, 72, 61
2, 128160, Note_on_c, 0, 81, 55
2, 128520, Note_on_c, 0, 72, 0
2, 128520, Note_on_c, 0, 66, 0
2, 128520, Note_on_c, 0, 74, 67
2, 128640, Note_on_c, 0, 74, 0
2, 128640, Note_on_c, 0, 81, 0
2, 128640, Note_on_c, 0, 79, 74
2, 128640, Note_on_c, 0, 71, 62
2, 128880, Note_on_c, 0, 71, 0
2, 128880, Note_on_c, 0, 79, 0
2, 128880, Note_on_c, 0, 79, 68
2, 129120, Note_on_c, 0, 79, 0
2, 129120, Note_on_c, 0, 71, 65
2, 129120, Note_on_c, 0, 86, 72
2, 129120, Note_on_c, 0, 79, 76
2, 129240, Note_on_c, 0, 79, 0
2, 129240, Note_on_c, 0, 71, 0
2, 129240, Note_on_c, 0, 81, 62
2, 129360, Note_on_c, 0, 81, 0
2, 129360, Note_on_c, 0, 83, 70
2, 129480, Note_on_c, 0, 83, 0
2, 129480, Note_on_c, 0, 84, 57
2, 129565, Note_on_c, 0, 84, 0
2, 129570, Note_on_c, 0, 84, 67
2, 129600, Note_on_c, 0, 86, 0
2, 129600, Note_on_c, 0, 83, 79
2, 129600, Note_on_c, 0, 74, 66
2, 129630, Note_on_c, 0, 84, 0
2, 129840, Note_on_c, 0, 74, 0
2, 129840, Note_on_c, 0, 83, 0
2, 129840, Note_on_c, 0, 81, 73
2, 129960, Note_on_c, 0, 81, 0
2, 129960, Note_on_c, 0, 83, 69
2, 130080, Note_on_c, 0, 83, 0
2, 130080, Note_on_c, 0, 71, 69
2, 130080, Note_on_c, 0, 79, 84
2, 130080, Note_on_c, 0, 91, 81
2, 130440, Note_on_c, 0, 79, 0
2, 130440, Note_on_c, 0, 71, 0
2, 130440, Note_on_c, 0, 62, 64
2, 130560, Note_on_c, 0, 62, 0
2, 130560, Note_on_c, 0, 91, 0
2, 130560, Note_on_c, 0, 67, 69
2, 130560, Note_on_c, 0, 59, 57
2, 130800, Note_on_c, 0, 59, 0
2, 130800, Note_on_c, 0, 67, 0
2, 130800, Note_on_c, 0, 67, 59
2, 131040, Note_on_c, 0, 67, 0
2, 131040, Note_on_c, 0, 59, 56
2, 131040, Note_on_c, 0, 77, 59
2, 131040, Note_on_c, 0, 67, 68
2, 131160, Note_on_c, 0, 67, 0
2, 131160, Note_on_c, 0, 59, 0
2, 131160, Note_on_c, 0, 69, 54
2, 131280, Note_on_c, 0, 69, 0
2, 131280, Note_on_c, 0, 71, 60
2, 131400, Note_on_c, 0, 71, 0
2, 131400, Note_on_c, 0, 72, 49
2, 131485, Note_on_c, 0, 72, 0
2, 131490, Note_on_c, 0, 72, 59
2, 131520, Note_on_c, 0, 77, 0
2, 131520, Note_on_c, 0, 71, 69
2, 131520, Note_on_c, 0, 62, 57
2, 131550, Note_on_c, 0, 72, 0
2, 131760, Note_on_c, 0, 62, 0
2, 131760, Note_on_c, 0, 71, 0
2, 131760, Note_on_c, 0, 69, 55
2, 131880, Note_on_c, 0, 69, 0
2, 131880, Note_on_c, 0, 71, 51
2, 132000, Note_on_c, 0, 71, 0
2, 132000, Note_on_c, 0, 59, 51
2, 132000, Note_on_c, 0, 67, 60
2, 132000, Note_on_c, 0, 77, 56
2, 132360, Note_on_c, 0, 67, 0
2, 132360, Note_on_c, 0, 59, 0
2, 132360, Note_on_c, 0, 64, 64
2, 132480, Note_on_c, 0, 64, 0
2, 132480, Note_on_c, 0, 77, 0
2, 132480, Note_on_c, 0, 69, 69
2, 132480, Note_on_c, 0, 60, 57
2, 132720, Note_on_c, 0, 60, 0
2, 132720, Note_on_c, 0, 69, 0
2, 132720, Note_on_c, 0, 69, 60
2, 132960, Note_on_c, 0, 69, 0
2, 132960, Note_on_c, 0, 60, 56
2, 132960, Note_on_c, 0, 76, 61
2, 132960, Note_on_c, 0, 69, 69
2, 133080, Note_on_c, 0, 69, 0
2, 133080, Note_on_c, 0, 60, 0
2, 133080, Note_on_c, 0, 71, 56
2, 133200, Note_on_c, 0, 71, 0
2, 133200, Note_on_c, 0, 72, 60
2, 133320, Note_on_c, 0, 72, 0
2, 133320, Note_on_c, 0, 74, 53
2, 133405, Note_on_c, 0, 74, 0
2, 133410, Note_on_c, 0, 74, 64
2, 133440, Note_on_c, 0, 76, 0
2, 133440, Note_on_c, 0, 72, 72
2, 133440, Note_on_c, 0, 64, 59
2, 133470, Note_on_c, 0, 74, 0
2, 133680, Note_on_c, 0, 64, 0
2, 133680, Note_on_c, 0, 72, 0
2, 133680, Note_on_c, 0, 71, 60
2, 133800, Note_on_c, 0, 71, 0
2, 133800, Note_on_c, 0, 72, 55
2, 133920, Note_on_c, 0, 72, 0
2, 133920, Note_on_c, 0, 60, 56
2, 133920, Note_on_c, 0, 69, 69
2, 133920, Note_on_c, 0, 76, 64
2, 134280, Note_on_c, 0, 69, 0
2, 134280, Note_on_c, 0, 60, 0
2, 134280, Note_on_c, 0, 67, 65
2, 134400, Note_on_c, 0, 67, 0
2, 134400, Note_on_c, 0, 76, 0
2, 134400, Note_on_c, 0, 72, 71
2, 134400, Note_on_c, 0, 64, 59
2, 134640, Note_on_c, 0, 64, 0
2, 134640, Note_on_c, 0, 72, 0
2, 134640, Note_on_c, 0, 72, 63
2, 134880, Note_on_c, 0, 72, 0
2, 134880, Note_on_c, 0, 64, 61
2, 134880, Note_on_c, 0, 81, 65
2, 134880, Note_on_c, 0, 72, 72
2, 135000, Note_on_c, 0, 72, 0
2, 135000, Note_on_c, 0, 64, 0
2, 135000, Note_on_c, 0, 74, 58
2, 135120, Note_on_c, 0, 74, 0
2, 135120, Note_on_c, 0, 76, 67
2, 135240, Note_on_c, 0, 76, 0
2, 135240, Note_on_c, 0, 78, 59
2, 135325, Note_on_c, 0, 78, 0
2, 135330, Note_on_c, 0, 78, 65
2, 135360, Note_on_c, 0, 81, 0
2, 135360, Note_on_c, 0, 76, 75
2, 135360, Note_on_c, 0, 67, 63
2, 135390, Note_on_c, 0, 78, 0
2, 135600, Note_on_c, 0, 67, 0
2, 135600, Note_on_c, 0, 76, 0
2, 135600, Note_on_c, 0, 74, 62
2, 135720, Note_on_c, 0, 74, 0
2, 135720, Note_on_c, 0, 76, 57
2, 135840, Note_on_c, 0, 76, 0
2, 135840, Note_on_c, 0, 66, 57
2, 135840, Note_on_c, 0, 72, 70
2, 135840, Note_on_c, 0, 81, 65
2, 136200, Note_on_c, 0, 72, 0
2, 136200, Note_on_c, 0, 66, 0
2, 136200, Note_on_c, 0, 74, 68
2, 136320, Note_on_c, 0, 74, 0
2, 136320, Note_on_c, 0, 81, 0
2, 136320, Note_on_c, 0, 79, 75
2, 136320, Note_on_c, 0, 71, 63
2, 136560, Note_on_c, 0, 71, 0
2, 136560, Note_on_c, 0, 79, 0
2, 136560, Note_on_c, 0, 79, 70
2, 136800, Note_on_c, 0, 79, 0
2, 136800, Note_on_c, 0, 71, 67
2, 136800, Note_on_c, 0, 86, 70
2, 136800, Note_on_c, 0, 79, 78
2, 136920, Note_on_c, 0, 79, 0
2, 136920, Note_on_c, 0, 71, 0
2, 136920, Note_on_c, 0, 81, 63
2, 137040, Note_on_c, 0, 81, 0
2, 137040, Note_on_c, 0, 83, 70
2, 137160, Note_on_c, 0, 83, 0
2, 137160, Note_on_c, 0, 84, 63
2, 137245, Note_on_c, 0, 84, 0
2, 137250, Note_on_c, 0, 84, 68
2, 137280, Note_on_c, 0, 86, 0
2, 137280, Note_on_c, 0, 83, 81
2, 137280, Note_on_c, 0, 74, 68
2, 137310, Note_on_c, 0, 84, 0
2, 137520, Note_on_c, 0, 74, 0
2, 137520, Note_on_c, 0, 83, 0
2, 137520, Note_on_c, 0, 81, 75
2, 137640, Note_on_c, 0, 81, 0
2, 137640, Note_on_c, 0, 83, 71
2, 137760, Note_on_c, 0, 83, 0
2, 137760, Note_on_c, 0, 71, 71
2, 137760, Note_on_c, 0, 79, 87
2, 137760, Note_on_c, 0, 91, 78
2, 138240, Note_on_c, 0, 91, 0
2, 138240, Note_on_c, 0, 79, 0
2, 138240, Note_on_c, 0, 71, 0
2, 138240, Note_on_c, 0, 57, 71
2, 138240, Note_on_c, 0, 62, 62
2, 138360, Note_on_c, 0, 62, 0
2, 138360, Note_on_c, 0, 57, 0
2, 138360, Note_on_c, 0, 59, 60
2, 138480, Note_on_c, 0, 59, 0
2, 138480, Note_on_c, 0, 60, 59
2, 138600, Note_on_c, 0, 60, 0
2, 138600, Note_on_c, 0, 62, 54
2, 138720, Note_on_c, 0, 62, 0
2, 138720, Note_on_c, 0, 74, 68
2, 139200, Note_on_c, 0, 74, 0
2, 139200, Note_on_c, 0, 64, 59
2, 139200, Note_on_c, 0, 72, 70
2, 139440, Note_on_c, 0, 72, 0
2, 139440, Note_on_c, 0, 64, 0
2, 139440, Note_on_c, 0, 62, 52
2, 139440, Note_on_c, 0, 71, 62
2, 139560, Note_on_c, 0, 71, 0
2, 139560, Note_on_c, 0, 62, 0
2, 139560, Note_on_c, 0, 64, 46
2, 139560, Note_on_c, 0, 72, 55
2, 139680, Note_on_c, 0, 72, 0
2, 139680, Note_on_c, 0, 64, 0
2, 139680, Note_on_c, 0, 60, 52
2, 139680, Note_on_c, 0, 69, 62
2, 140160, Note_on_c, 0, 69, 0
2, 140160, Note_on_c, 0, 60, 0
2, 140160, Note_on_c, 0, 57, 71
2, 140160, Note_on_c, 0, 62, 62
2, 140280, Note_on_c, 0, 62, 0
2, 140280, Note_on_c, 0, 57, 0
2, 140280, Note_on_c, 0, 59, 60
2, 140400, Note_on_c, 0, 59, 0
2, 140400, Note_on_c, 0, 60, 59
2, 140520, Note_on_c, 0, 60, 0
2, 140520, Note_on_c, 0, 62, 56
2, 140640, Note_on_c, 0, 62, 0
2, 140640, Note_on_c, 0, 74, 68
2, 141120, Note_on_c, 0, 74, 0
2, 141120, Note_on_c, 0, 62, 59
2, 141120, Note_on_c, 0, 71, 70
2, 141360, Note_on_c, 0, 71, 0
2, 141360, Note_on_c, 0, 62, 0
2, 141360, Note_on_c, 0, 60, 52
2, 141360, Note_on_c, 0, 69, 62
2, 141480, Note_on_c, 0, 69, 0
2, 141480, Note_on_c, 0, 60, 0
2, 141480, Note_on_c, 0, 62, 46
2, 141480, Note_on_c, 0, 71, 55
2, 141600, Note_on_c, 0, 71, 0
2, 141600, Note_on_c, 0, 62, 0
2, 141600, Note_on_c, 0, 59, 52
2, 141600, Note_on_c, 0, 67, 62
2, 142080, Note_on_c, 0, 67, 0
2, 142080, Note_on_c, 0, 59, 0
2, 142080, Note_on_c, 0, 57, 58
2, 142080, Note_on_c, 0, 62, 51
2, 142200, Note_on_c, 0, 62, 0
2, 142200, Note_on_c, 0, 57, 0
2, 142200, Note_on_c, 0, 59, 47
2, 142320, Note_on_c, 0, 59, 0
2, 142320, Note_on_c, 0, 60, 48
2, 142440, Note_on_c, 0, 60, 0
2, 142440, Note_on_c, 0, 62, 46
2, 142560, Note_on_c, 0, 62, 0
2, 142560, Note_on_c, 0, 74, 55
2, 143040, Note_on_c, 0, 74, 0
2, 143040, Note_on_c, 0, 64, 48
2, 143040, Note_on_c, 0, 72, 57
2, 143280, Note_on_c, 0, 72, 0
2, 143280, Note_on_c, 0, 64, 0
2, 143280, Note_on_c, 0, 62, 43
2, 143280, Note_on_c, 0, 71, 51
2, 143400, Note_on_c, 0, 71, 0
2, 143400, Note_on_c, 0, 62, 0
2, 143400, Note_on_c, 0, 64, 37
2, 143400, Note_on_c, 0, 72, 45
2, 143520, Note_on_c, 0, 72, 0
2, 143520, Note_on_c, 0, 64, 0
2, 143520, Note_on_c, 0, 60, 43
2, 143520, Note_on_c, 0, 69, 51
2, 144000, Note_on_c, 0, 69, 0
2, 144000, Note_on_c, 0, 60, 0
2, 144000, Note_on_c, 0, 57, 55
2, 144000, Note_on_c, 0, 62, 48
2, 144120, Note_on_c, 0, 62, 0
2, 144120, Note_on_c, 0, 57, 0
2, 144120, Note_on_c, 0, 59, 43
2, 144240, Note_on_c, 0, 59, 0
2, 144240, Note_on_c, 0, 60, 45
2, 144360, Note_on_c, 0, 60, 0
2, 144360, Note_on_c, 0, 62, 42
2, 144480, Note_on_c, 0, 62, 0
2, 144480, Note_on_c, 0, 74, 52
2, 144960, Note_on_c, 0, 74, 0
2, 144960, Note_on_c, 0, 62, 45
2, 144960, Note_on_c, 0, 71, 54
2, 145200, Note_on_c, 0, 71, 0
2, 145200, Note_on_c, 0, 62, 0
2, 145200, Note_on_c, 0, 60, 40
2, 145200, Note_on_c, 0, 69, 48
2, 145320, Note_on_c, 0, 69, 0
2, 145320, Note_on_c, 0, 60, 0
2, 145320, Note_on_c, 0, 62, 35
2, 145320, Note_on_c, 0, 71, 42
2, 145440, Note_on_c, 0, 71, 0
2, 145440, Note_on_c, 0, 62, 0
2, 145440, Note_on_c, 0, 59, 40
2, 145440, Note_on_c, 0, 67, 48
2, 145680, Note_on_c, 0, 67, 0
2, 145680, Note_on_c, 0, 59, 0
2, 145680, Note_on_c, 0, 62, 34
2, 145680, Note_on_c, 0, 71, 40
2, 145920, Note_on_c, 0, 71, 0
2, 145920, Note_on_c, 0, 62, 0
2, 145920, Note_on_c, 0, 60, 39
2, 145920, Note_on_c, 0, 69, 46
2, 146160, Note_on_c, 0, 69, 0
2, 146160, Note_on_c, 0, 60, 0
2, 146160, Note_on_c, 0, 59, 36
2, 146160, Note_on_c, 0, 67, 43
2, 146400, Note_on_c, 0, 67, 0
2, 146400, Note_on_c, 0, 59, 0
2, 146400, Note_on_c, 0, 79, 48
2, 146400, Note_on_c, 0, 59, 40
2, 146400, Note_on_c, 0, 67, 48
2, 146880, Note_on_c, 0, 67, 0
2, 146880, Note_on_c, 0, 59, 0
2, 146880, Note_on_c, 0, 79, 0
2, 146880, Note_on_c, 0, 59, 34
2, 146880, Note_on_c, 0, 62, 40
2, 147360, Note_on_c, 0, 62, 0
2, 147360, Note_on_c, 0, 59, 0
2, 147360, Note_on_c, 0, 79, 48
2, 147840, Note_on_c, 0, 79, 0
2, 147840, Note_on_c, 0, 59, 33
2, 147840, Note_on_c, 0, 62, 39
2, 148320, Note_on_c, 0, 62, 0
2, 148320, Note_on_c, 0, 59, 0
2, 148320, Note_on_c, 0, 79, 48
2, 149280, Note_on_c, 0, 79, 0
2, 149280, Note_on_c, 0, 78, 45
2, 149400, Note_on_c, 0, 76, 41
2, 149420, Note_on_c, 0, 78, 0
2, 149520, Note_on_c, 0, 74, 40
2, 149540, Note_on_c, 0, 76, 0
2, 149640, Note_on_c, 0, 72, 37
2, 149660, Note_on_c, 0, 74, 0
2, 149760, Note_on_c, 0, 71, 48
2, 149780, Note_on_c, 0, 72, 0
2, 150240, Note_on_c, 0, 71, 0
2, 150240, Note_on_c, 0, 60, 34
2, 150240, Note_on_c, 0, 66, 34
2, 150240, Note_on_c, 0, 69, 41
2, 150720, Note_on_c, 0, 69, 0
2, 150720, Note_on_c, 0, 66, 0
2, 150720, Note_on_c, 0, 60, 0
2, 150720, Note_on_c, 0, 67, 40
2, 150720, Note_on_c, 0, 59, 34
2, 150720, Note_on_c, 0, 62, 34
2, 151200, Note_on_c, 0, 62, 0
2, 151200, Note_on_c, 0, 59, 0
2, 151200, Note_on_c, 0, 67, 0
2, 151200, Note_on_c, 0, 86, 43
2, 151680, Note_on_c, 0, 86, 0
2, 151680, Note_on_c, 0, 67, 38
2, 151680, Note_on_c, 0, 59, 32
2, 151680, Note_on_c, 0, 62, 32
2, 152160, Note_on_c, 0, 62, 0
2, 152160, Note_on_c, 0, 59, 0
2, 152160, Note_on_c, 0, 67, 0
2, 152160, Note_on_c, 0, 86, 39
2, 152640, Note_on_c, 0, 86, 0
2, 152640, Note_on_c, 0, 67, 38
2, 152640, Note_on_c, 0, 59, 32
2, 152640, Note_on_c, 0, 62, 32
2, 153120, Note_on_c, 0, 62, 0
2, 153120, Note_on_c, 0, 59, 0
2, 153120, Note_on_c, 0, 67, 0
2, 153120, Note_on_c, 0, 86, 39
2, 153600, Note_on_c, 0, 86, 0
2, 153600, Note_on_c, 0, 59, 33
2, 153600, Note_on_c, 0, 62, 39
2, 154080, Note_on_c, 0, 62, 0
2, 154080, Note_on_c, 0, 59, 0
2, 154080, Note_on_c, 0, 86, 42
2, 154440, Note_on_c, 0, 86, 0
2, 154440, Note_on_c, 0, 62, 46
2, 154560, Note_on_c, 0, 62, 0
2, 154560, Note_on_c, 0, 59, 43
2, 154560, Note_on_c, 0, 67, 51
2, 154800, Note_on_c, 0, 67, 0
2, 154800, Note_on_c, 0, 59, 0
2, 154800, Note_on_c, 0, 67, 44
2, 155040, Note_on_c, 0, 67, 0
2, 155040, Note_on_c, 0, 86, 47
2, 155040, Note_on_c, 0, 59, 42
2, 155040, Note_on_c, 0, 67, 50
2, 155160, Note_on_c, 0, 67, 0
2, 155160, Note_on_c, 0, 59, 0
2, 155160, Note_on_c, 0, 69, 40
2, 155280, Note_on_c, 0, 69, 0
2, 155280, Note_on_c, 0, 71, 45
2, 155400, Note_on_c, 0, 71, 0
2, 155400, Note_on_c, 0, 72, 40
2, 155485, Note_on_c, 0, 72, 0
2, 155490, Note_on_c, 0, 72, 44
2, 155520, Note_on_c, 0, 86, 0
2, 155520, Note_on_c, 0, 62, 43
2, 155520, Note_on_c, 0, 71, 51
2, 155550, Note_on_c, 0, 72, 0
2, 155760, Note_on_c, 0, 71, 0
2, 155760, Note_on_c, 0, 62, 0
2, 155760, Note_on_c, 0, 69, 39
2, 155880, Note_on_c, 0, 69, 0
2, 155880, Note_on_c, 0, 71, 38
2, 156000, Note_on_c, 0, 71, 0
2, 156000, Note_on_c, 0, 86, 45
2, 156000, Note_on_c, 0, 59, 38
2, 156000, Note_on_c, 0, 67, 45
2, 156360, Note_on_c, 0, 67, 0
2, 156360, Note_on_c, 0, 59, 0
2, 156360, Note_on_c, 0, 64, 47
2, 156480, Note_on_c, 0, 64, 0
2, 156480, Note_on_c, 0, 86, 0
2, 156480, Note_on_c, 0, 60, 43
2, 156480, Note_on_c, 0, 69, 51
2, 156720, Note_on_c, 0, 69, 0
2, 156720, Note_on_c, 0, 60, 0
2, 156720, Note_on_c, 0, 69, 45
2, 156960, Note_on_c, 0, 69, 0
2, 156960, Note_on_c, 0, 86, 47
2, 156960, Note_on_c, 0, 60, 42
2, 156960, Note_on_c, 0, 69, 50
2, 157080, Note_on_c, 0, 69, 0
2, 157080, Note_on_c, 0, 60, 0
2, 157080, Note_on_c, 0, 71, 40
2, 157200, Note_on_c, 0, 71, 0
2, 157200, Note_on_c, 0, 72, 45
2, 157320, Note_on_c, 0, 72, 0
2, 157320, Note_on_c, 0, 74, 40
2, 157405, Note_on_c, 0, 74, 0
2, 157410, Note_on_c, 0, 74, 44
2, 157440, Note_on_c, 0, 86, 0
2, 157440, Note_on_c, 0, 64, 43
2, 157440, Note_on_c, 0, 72, 51
2, 157470, Note_on_c, 0, 74, 0
2, 157680, Note_on_c, 0, 72, 0
2, 157680, Note_on_c, 0, 64, 0
2, 157680, Note_on_c, 0, 71, 41
2, 157800, Note_on_c, 0, 71, 0
2, 157800, Note_on_c, 0, 72, 38
2, 157920, Note_on_c, 0, 72, 0
2, 157920, Note_on_c, 0, 86, 45
2, 157920, Note_on_c, 0, 60, 38
2, 157920, Note_on_c, 0, 69, 45
2, 158280, Note_on_c, 0, 69, 0
2, 158280, Note_on_c, 0, 60, 0
2, 158280, Note_on_c, 0, 67, 47
2, 158400, Note_on_c, 0, 67, 0
2, 158400, Note_on_c, 0, 86, 0
2, 158400, Note_on_c, 0, 57, 43
2, 158400, Note_on_c, 0, 66, 51
2, 158640, Note_on_c, 0, 66, 0
2, 158640, Note_on_c, 0, 57, 0
2, 158640, Note_on_c, 0, 60, 38
2, 158640, Note_on_c, 0, 66, 48
2, 158850, Note_on_c, 0, 66, 0
2, 158850, Note_on_c, 0, 67, 42
2, 158880, Note_on_c, 0, 67, 0
2, 158880, Note_on_c, 0, 60, 0
2, 158880, Note_on_c, 0, 86, 47
2, 158880, Note_on_c, 0, 57, 42
2, 158880, Note_on_c, 0, 66, 50
2, 159000, Note_on_c, 0, 66, 0
2, 159000, Note_on_c, 0, 57, 0
2, 159000, Note_on_c, 0, 62, 40
2, 159120, Note_on_c, 0, 62, 0
2, 159120, Note_on_c, 0, 60, 41
2, 159120, Note_on_c, 0, 64, 45
2, 159240, Note_on_c, 0, 64, 0
2, 159240, Note_on_c, 0, 60, 0
2, 159240, Note_on_c, 0, 66, 40
2, 159360, Note_on_c, 0, 66, 0
2, 159360, Note_on_c, 0, 86, 0
2, 159360, Note_on_c, 0, 59, 43
2, 159360, Note_on_c, 0, 67, 51
2, 159840, Note_on_c, 0, 67, 0
2, 159840, Note_on_c, 0, 59, 0
2, 159840, Note_on_c, 0, 86, 47
2, 160200, Note_on_c, 0, 62, 41
2, 160320, Note_on_c, 0, 62, 0
2, 160320, Note_on_c, 0, 86, 0
2, 160320, Note_on_c, 0, 67, 51
2, 160320, Note_on_c, 0, 59, 43
2, 160560, Note_on_c, 0, 59, 0
2, 160560, Note_on_c, 0, 67, 0
2, 160560, Note_on_c, 0, 67, 44
2, 160800, Note_on_c, 0, 67, 0
2, 160800, Note_on_c, 0, 59, 42
2, 160800, Note_on_c, 0, 77, 44
2, 160800, Note_on_c, 0, 67, 50
2, 160920, Note_on_c, 0, 67, 0
2, 160920, Note_on_c, 0, 59, 0
2, 160920, Note_on_c, 0, 69, 40
2, 161040, Note_on_c, 0, 69, 0
2, 161040, Note_on_c, 0, 71, 45
2, 161160, Note_on_c, 0, 71, 0
2, 161160, Note_on_c, 0, 72, 40
2, 161245, Note_on_c, 0, 72, 0
2, 161250, Note_on_c, 0, 72, 44
2, 161280, Note_on_c, 0, 77, 0
2, 161280, Note_on_c, 0, 71, 51
2, 161280, Note_on_c, 0, 62, 43
2, 161310, Note_on_c, 0, 72, 0
2, 161520, Note_on_c, 0, 62, 0
2, 161520, Note_on_c, 0, 71, 0
2, 161520, Note_on_c, 0, 69, 41
2, 161640, Note_on_c, 0, 69, 0
2, 161640, Note_on_c, 0, 71, 38
2, 161760, Note_on_c, 0, 71, 0
2, 161760, Note_on_c, 0, 59, 38
2, 161760, Note_on_c, 0, 67, 45
2, 161760, Note_on_c, 0, 77, 42
2, 162120, Note_on_c, 0, 67, 0
2, 162120, Note_on_c, 0, 59, 0
2, 162120, Note_on_c, 0, 64, 47
2, 162240, Note_on_c, 0, 64, 0
2, 162240, Note_on_c, 0, 77, 0
2, 162240, Note_on_c, 0, 69, 51
2, 162240, Note_on_c, 0, 60, 43
2, 162480, Note_on_c, 0, 60, 0
2, 162480, Note_on_c, 0, 69, 0
2, 162480, Note_on_c, 0, 69, 45
2, 162720, Note_on_c, 0, 69, 0
2, 162720, Note_on_c, 0, 60, 44
2, 162720, Note_on_c, 0, 76, 46
2, 162720, Note_on_c, 0, 69, 51
2, 162840, Note_on_c, 0, 69, 0
2, 162840, Note_on_c, 0, 60, 0
2, 162840, Note_on_c, 0, 71, 42
2, 162960, Note_on_c, 0, 71, 0
2, 162960, Note_on_c, 0, 72, 48
2, 163080, Note_on_c, 0, 72, 0
2, 163080, Note_on_c, 0, 74, 43
2, 163165, Note_on_c, 0, 74, 0
2, 163170, Note_on_c, 0, 74, 47
2, 163200, Note_on_c, 0, 76, 0
2, 163200, Note_on_c, 0, 72, 55
2, 163200, Note_on_c, 0, 64, 46
2, 163230, Note_on_c, 0, 74, 0
2, 163440, Note_on_c, 0, 64, 0
2, 163440, Note_on_c, 0, 72, 0
2, 163440, Note_on_c, 0, 71, 45
2, 163560, Note_on_c, 0, 71, 0
2, 163560, Note_on_c, 0, 72, 41
2, 163680, Note_on_c, 0, 72, 0
2, 163680, Note_on_c, 0, 60, 42
2, 163680, Note_on_c, 0, 69, 51
2, 163680, Note_on_c, 0, 76, 47
2, 164040, Note_on_c, 0, 69, 0
2, 164040, Note_on_c, 0, 60, 0
2, 164040, Note_on_c, 0, 67, 50
2, 164160, Note_on_c, 0, 67, 0
2, 164160, Note_on_c, 0, 76, 0
2, 164160, Note_on_c, 0, 72, 55
2, 164160, Note_on_c, 0, 64, 46
2, 164400, Note_on_c, 0, 64, 0
2, 164400, Note_on_c, 0, 72, 0
2, 164400, Note_on_c, 0, 72, 49
2, 164640, Note_on_c, 0, 72, 0
2, 164640, Note_on_c, 0, 64, 47
2, 164640, Note_on_c, 0, 81, 53
2, 164640, Note_on_c, 0, 72, 56
2, 164760, Note_on_c, 0, 72, 0
2, 164760, Note_on_c, 0, 64, 0
2, 164760, Note_on_c, 0, 74, 45
2, 164880, Note_on_c, 0, 74, 0
2, 164880, Note_on_c, 0, 76, 52
2, 165000, Note_on_c, 0, 76, 0
2, 165000, Note_on_c, 0, 78, 46
2, 165085, Note_on_c, 0, 78, 0
2, 165090, Note_on_c, 0, 78, 50
2, 165120, Note_on_c, 0, 81, 0
2, 165120, Note_on_c, 0, 76, 58
2, 165120, Note_on_c, 0, 67, 49
2, 165150, Note_on_c, 0, 78, 0
2, 165360, Note_on_c, 0, 67, 0
2, 165360, Note_on_c, 0, 76, 0
2, 165360, Note_on_c, 0, 74, 48
2, 165480, Note_on_c, 0, 74, 0
2, 165480, Note_on_c, 0, 76, 44
2, 165600, Note_on_c, 0, 76, 0
2, 165600, Note_on_c, 0, 66, 44
2, 165600, Note_on_c, 0, 72, 54
2, 165600, Note_on_c, 0, 81, 53
2, 165960, Note_on_c, 0, 72, 0
2, 165960, Note_on_c, 0, 66, 0
2, 165960, Note_on_c, 0, 71, 53
2, 166080, Note_on_c, 0, 71, 0
2, 166080, Note_on_c, 0, 81, 0
2, 166080, Note_on_c, 0, 79, 58
2, 166080, Note_on_c, 0, 71, 49
2, 166320, Note_on_c, 0, 71, 0
2, 166320, Note_on_c, 0, 79, 0
2, 166320, Note_on_c, 0, 79, 54
2, 166560, Note_on_c, 0, 79, 0
2, 166560, Note_on_c, 0, 71, 52
2, 166560, Note_on_c, 0, 86, 57
2, 166560, Note_on_c, 0, 79, 60
2, 166680, Note_on_c, 0, 79, 0
2, 166680, Note_on_c, 0, 71, 0
2, 166680, Note_on_c, 0, 81, 49
2, 166800, Note_on_c, 0, 81, 0
2, 166800, Note_on_c, 0, 83, 56
2, 166920, Note_on_c, 0, 83, 0
2, 166920, Note_on_c, 0, 84, 49
2, 167005, Note_on_c, 0, 84, 0
2, 167010, Note_on_c, 0, 84, 53
2, 167040, Note_on_c, 0, 86, 0
2, 167040, Note_on_c, 0, 83, 63
2, 167040, Note_on_c, 0, 74, 53
2, 167070, Note_on_c, 0, 84, 0
2, 167280, Note_on_c, 0, 74, 0
2, 167280, Note_on_c, 0, 83, 0
2, 167280, Note_on_c, 0, 81, 58
2, 167400, Note_on_c, 0, 81, 0
2, 167400, Note_on_c, 0, 83, 55
2, 167520, Note_on_c, 0, 83, 0
2, 167520, Note_on_c, 0, 71, 55
2, 167520, Note_on_c, 0, 79, 67
2, 167520, Note_on_c, 0, 91, 64
2, 168000, Note_on_c, 0, 91, 0
2, 168000, Note_on_c, 0, 79, 0
2, 168000, Note_on_c, 0, 71, 0
2, 168000, Note_on_c, 0, 57, 58
2, 168000, Note_on_c, 0, 62, 51
2, 168120, Note_on_c, 0, 62, 0
2, 168120, Note_on_c, 0, 57, 0
2, 168120, Note_on_c, 0, 59, 49
2, 168240, Note_on_c, 0, 59, 0
2, 168240, Note_on_c, 0, 60, 48
2, 168360, Note_on_c, 0, 60, 0
2, 168360, Note_on_c, 0, 62, 46
2, 168480, Note_on_c, 0, 62, 0
2, 168480, Note_on_c, 0, 74, 55
2, 168960, Note_on_c, 0, 74, 0
2, 168960, Note_on_c, 0, 64, 48
2, 168960, Note_on_c, 0, 72, 57
2, 169200, Note_on_c, 0, 72, 0
2, 169200, Note_on_c, 0, 64, 0
2, 169200, Note_on_c, 0, 62, 43
2, 169200, Note_on_c, 0, 71, 51
2, 169320, Note_on_c, 0, 71, 0
2, 169320, Note_on_c, 0, 62, 0
2, 169320, Note_on_c, 0, 64, 37
2, 169320, Note_on_c, 0, 72, 45
2, 169440, Note_on_c, 0, 72, 0
2, 169440, Note_on_c, 0, 64, 0
2, 169440, Note_on_c, 0, 60, 43
2, 169440, Note_on_c, 0, 69, 51
2, 169920, Note_on_c, 0, 69, 0
2, 169920, Note_on_c, 0, 60, 0
2, 169920, Note_on_c, 0, 57, 58
2, 169920, Note_on_c, 0, 62, 51
2, 170040, Note_on_c, 0, 62, 0
2, 170040, Note_on_c, 0, 57, 0
2, 170040, Note_on_c, 0, 59, 47
2, 170160, Note_on_c, 0, 59, 0
2, 170160, Note_on_c, 0, 60, 48
2, 170280, Note_on_c, 0, 60, 0
2, 170280, Note_on_c, 0, 62, 45
2, 170400, Note_on_c, 0, 62, 0
2, 170400, Note_on_c, 0, 74, 55
2, 170880, Note_on_c, 0, 74, 0
2, 170880, Note_on_c, 0, 62, 48
2, 170880, Note_on_c, 0, 71, 57
2, 171120, Note_on_c, 0, 71, 0
2, 171120, Note_on_c, 0, 62, 0
2, 171120, Note_on_c, 0, 60, 43
2, 171120, Note_on_c, 0, 69, 51
2, 171240, Note_on_c, 0, 69, 0
2, 171240, Note_on_c, 0, 60, 0
2, 171240, Note_on_c, 0, 62, 37
2, 171240, Note_on_c, 0, 71, 45
2, 171360, Note_on_c, 0, 71, 0
2, 171360, Note_on_c, 0, 62, 0
2, 171360, Note_on_c, 0, 59, 43
2, 171360, Note_on_c, 0, 67, 51
2, 171840, Note_on_c, 0, 67, 0
2, 171840, Note_on_c, 0, 59, 0
2, 171840, Note_on_c, 0, 57, 58
2, 171840, Note_on_c, 0, 62, 51
2, 171960, Note_on_c, 0, 62, 0
2, 171960, Note_on_c, 0, 57, 0
2, 171960, Note_on_c, 0, 59, 46
2, 172080, Note_on_c, 0, 59, 0
2, 172080, Note_on_c, 0, 60, 48
2, 172200, Note_on_c, 0, 60, 0
2, 172200, Note_on_c, 0, 62, 46
2, 172320, Note_on_c, 0, 62, 0
2, 172320, Note_on_c, 0, 74, 55
2, 172800, Note_on_c, 0, 74, 0
2, 172800, Note_on_c, 0, 64, 48
2, 172800, Note_on_c, 0, 72, 57
2, 173040, Note_on_c, 0, 72, 0
2, 173040, Note_on_c, 0, 64, 0
2, 173040, Note_on_c, 0, 62, 43
2, 173040, Note_on_c, 0, 71, 51
2, 173160, Note_on_c, 0, 71, 0
2, 173160, Note_on_c, 0, 62, 0
2, 173160, Note_on_c, 0, 64, 37
2, 173160, Note_on_c, 0, 72, 45
2, 173280, Note_on_c, 0, 72, 0
2, 173280, Note_on_c, 0, 64, 0
2, 173280, Note_on_c, 0, 60, 43
2, 173280, Note_on_c, 0, 69, 51
2, 173760, Note_on_c, 0, 69, 0
2, 173760, Note_on_c, 0, 60, 0
2, 173760, Note_on_c, 0, 57, 55
2, 173760, Note_on_c, 0, 62, 48
2, 173880, Note_on_c, 0, 62, 0
2, 173880, Note_on_c, 0, 57, 0
2, 173880, Note_on_c, 0, 59, 43
2, 174000, Note_on_c, 0, 59, 0
2, 174000, Note_on_c, 0, 60, 45
2, 174120, Note_on_c, 0, 60, 0
2, 174120, Note_on_c, 0, 62, 43
2, 174240, Note_on_c, 0, 62, 0
2, 174240, Note_on_c, 0, 74, 52
2, 174720, Note_on_c, 0, 74, 0
2, 174720, Note_on_c, 0, 62, 45
2, 174720, Note_on_c, 0, 71, 54
2, 174960, Note_on_c, 0, 71, 0
2, 174960, Note_on_c, 0, 62, 0
2, 174960, Note_on_c, 0, 60, 40
2, 174960, Note_on_c, 0, 69, 48
2, 175080, Note_on_c, 0, 69, 0
2, 175080, Note_on_c, 0, 60, 0
2, 175080, Note_on_c, 0, 62, 35
2, 175080, Note_on_c, 0, 71, 42
2, 175200, Note_on_c, 0, 71, 0
2, 175200, Note_on_c, 0, 62, 0
2, 175200, Note_on_c, 0, 59, 40
2, 175200, Note_on_c, 0, 67, 48
2, 175440, Note_on_c, 0, 67, 0
2, 175440, Note_on_c, 0, 59, 0
2, 175440, Note_on_c, 0, 62, 34
2, 175440, Note_on_c, 0, 71, 40
2, 175680, Note_on_c, 0, 71, 0
2, 175680, Note_on_c, 0, 62, 0
2, 175680, Note_on_c, 0, 60, 39
2, 175680, Note_on_c, 0, 69, 46
2, 175920, Note_on_c, 0, 69, 0
2, 175920, Note_on_c, 0, 60, 0
2, 175920, Note_on_c, 0, 59, 36
2, 175920, Note_on_c, 0, 67, 43
2, 176160, Note_on_c, 0, 67, 0
2, 176160, Note_on_c, 0, 59, 0
2, 176160, Note_on_c, 0, 79, 48
2, 176160, Note_on_c, 0, 59, 40
2, 176160, Note_on_c, 0, 67, 48
2, 176640, Note_on_c, 0, 67, 0
2, 176640, Note_on_c, 0, 59, 0
2, 176640, Note_on_c, 0, 79, 0
2, 176640, Note_on_c, 0, 59, 34
2, 176640, Note_on_c, 0, 62, 40
2, 177120, Note_on_c, 0, 62, 0
2, 177120, Note_on_c, 0, 59, 0
2, 177120, Note_on_c, 0, 79, 48
2, 177600, Note_on_c, 0, 79, 0
2, 177600, Note_on_c, 0, 59, 33
2, 177600, Note_on_c, 0, 62, 39
2, 178080, Note_on_c, 0, 62, 0
2, 178080, Note_on_c, 0, 59, 0
2, 178080, Note_on_c, 0, 79, 48
2, 179040, Note_on_c, 0, 79, 0
2, 179040, Note_on_c, 0, 78, 45
2, 179160, Note_on_c, 0, 76, 41
2, 179180, Note_on_c, 0, 78, 0
2, 179280, Note_on_c, 0, 74, 44
2, 179300, Note_on_c, 0, 76, 0
2, 179400, Note_on_c, 0, 72, 36
2, 179420, Note_on_c, 0, 74, 0
2, 179520, Note_on_c, 0, 71, 47
2, 179540, Note_on_c, 0, 72, 0
2, 180000, Note_on_c, 0, 71, 0
2, 180000, Note_on_c, 0, 60, 34
2, 180000, Note_on_c, 0, 66, 34
2, 180000, Note_on_c, 0, 69, 41
2, 180480, Note_on_c, 0, 69, 0
2, 180480, Note_on_c, 0, 66, 0
2, 180480, Note_on_c, 0, 60, 0
2, 180480, Note_on_c, 0, 67, 36
2, 180480, Note_on_c, 0, 59, 30
2, 180480, Note_on_c, 0, 62, 36
2, 180960, Note_on_c, 0, 62, 0
2, 180960, Note_on_c, 0, 59, 0
2, 180960, Note_on_c, 0, 67, 0
2, 180960, Note_on_c, 0, 86, 43
2, 181440, Note_on_c, 0, 86, 0
2, 181440, Note_on_c, 0, 59, 31
2, 181440, Note_on_c, 0, 62, 36
2, 181920, Note_on_c, 0, 62, 0
2, 181920, Note_on_c, 0, 59, 0
2, 181920, Note_on_c, 0, 86, 41
2, 182400, Note_on_c, 0, 86, 0
2, 182400, Note_on_c, 0, 59, 31
2, 182400, Note_on_c, 0, 62, 36
2, 182880, Note_on_c, 0, 62, 0
2, 182880, Note_on_c, 0, 59, 0
2, 182880, Note_on_c, 0, 86, 42
2, 183360, Note_on_c, 0, 86, 0
2, 183360, Note_on_c, 0, 59, 30
2, 183360, Note_on_c, 0, 62, 36
2, 183840, Note_on_c, 0, 62, 0
2, 183840, Note_on_c, 0, 59, 0
2, 183840, Note_on_c, 0, 86, 41
2, 184320, Note_on_c, 0, 86, 0
2, 184320, Note_on_c, 0, 59, 27
2, 184320, Note_on_c, 0, 62, 32
2, 185280, Note_on_c, 0, 62, 0
2, 185280, Note_on_c, 0, 59, 0
2, 185280, Note_on_c, 0, 86, 36
2, 186240, Note_on_c, 0, 86, 0
2, 186240, End_track
3, 0, Start_track
3, 0, MIDI_port, 0
3, 0, Title_t, "Piano left"
3, 0, Program_c, 0, 0
3, 0, Control_c, 0, 7, 100
3, 0, Control_c, 0, 64, 127
3, 0, Note_on_c, 0, 43, 44
3, 0, Note_on_c, 0, 50, 52
3, 960, Note_on_c, 0, 50, 0
3, 960, Note_on_c, 0, 43, 0
3, 960, Control_c, 0, 64, 0
3, 960, Note_on_c, 0, 50, 44
3, 960, Note_on_c, 0, 43, 38
3, 1101, Control_c, 0, 64, 127
3, 1920, Note_on_c, 0, 43, 0
3, 1920, Note_on_c, 0, 50, 0
3, 1920, Control_c, 0, 64, 0
3, 1920, Note_on_c, 0, 50, 36
3, 1920, Note_on_c, 0, 43, 29
3, 2061, Control_c, 0, 64, 127
3, 2880, Note_on_c, 0, 43, 0
3, 2880, Note_on_c, 0, 50, 0
3, 2880, Note_on_c, 0, 43, 25
3, 2880, Note_on_c, 0, 50, 30
3, 2901, Control_c, 0, 64, 0
3, 2944, Control_c, 0, 64, 127
3, 3840, Note_on_c, 0, 50, 0
3, 3840, Note_on_c, 0, 43, 0
3, 3840, Note_on_c, 0, 43, 28
3, 3840, Note_on_c, 0, 50, 34
3, 3904, Control_c, 0, 64, 0
3, 4016, Control_c, 0, 64, 127
3, 4419, Control_c, 0, 64, 0
3, 4468, Control_c, 0, 64, 127
3, 4761, Control_c, 0, 64, 0
3, 4800, Note_on_c, 0, 50, 0
3, 4800, Note_on_c, 0, 43, 0
3, 4800, Note_on_c, 0, 43, 30
3, 4800, Note_on_c, 0, 50, 36
3, 4920, Control_c, 0, 64, 127
3, 5386, Control_c, 0, 64, 0
3, 5428, Control_c, 0, 64, 127
3, 5760, Note_on_c, 0, 50, 0
3, 5760, Note_on_c, 0, 43, 0
3, 5760, Note_on_c, 0, 43, 28
3, 5760, Note_on_c, 0, 50, 34
3, 5785, Control_c, 0, 64, 0
3, 5816, Control_c, 0, 64, 127
3, 6339, Control_c, 0, 64, 0
3, 6388, Control_c, 0, 64, 127
3, 6681, Control_c, 0, 64, 0
3, 6720, Note_on_c, 0, 50, 0
3, 6720, Note_on_c, 0, 43, 0
3, 6720, Note_on_c, 0, 43, 30
3, 6720, Note_on_c, 0, 50, 36
3, 6840, Control_c, 0, 64, 127
3, 7306, Control_c, 0, 64, 0
3, 7348, Control_c, 0, 64, 127
3, 7680, Note_on_c, 0, 50, 0
3, 7680, Note_on_c, 0, 43, 0
3, 7680, Note_on_c, 0, 43, 28
3, 7680, Note_on_c, 0, 50, 34
3, 7705, Control_c, 0, 64, 0
3, 7736, Control_c, 0, 64, 127
3, 8259, Control_c, 0, 64, 0
3, 8308, Control_c, 0, 64, 127
3, 8640, Note_on_c, 0, 50, 0
3, 8640, Note_on_c, 0, 43, 0
3, 8640, Control_c, 0, 64, 0
3, 8640, Note_on_c, 0, 43, 28
3, 8640, Note_on_c, 0, 50, 34
3, 8739, Control_c, 0, 64, 127
3, 9600, Note_on_c, 0, 50, 0
3, 9600, Note_on_c, 0, 43, 0
3, 9600, Note_on_c, 0, 43, 27
3, 9600, Note_on_c, 0, 50, 32
3, 9664, Control_c, 0, 64, 0
3, 9776, Control_c, 0, 64, 127
3, 10179, Control_c, 0, 64, 0
3, 10228, Control_c, 0, 64, 127
3, 10521, Control_c, 0, 64, 0
3, 10560, Note_on_c, 0, 50, 0
3, 10560, Note_on_c, 0, 43, 0
3, 10560, Note_on_c, 0, 43, 28
3, 10560, Note_on_c, 0, 50, 34
3, 10680, Control_c, 0, 64, 127
3, 11146, Control_c, 0, 64, 0
3, 11188, Control_c, 0, 64, 127
3, 11520, Note_on_c, 0, 50, 0
3, 11520, Note_on_c, 0, 43, 0
3, 11520, Note_on_c, 0, 50, 32
3, 11520, Note_on_c, 0, 43, 27
3, 11545, Control_c, 0, 64, 0
3, 11576, Control_c, 0, 64, 127
3, 12099, Control_c, 0, 64, 0
3, 12148, Control_c, 0, 64, 127
3, 12441, Control_c, 0, 64, 0
3, 12480, Note_on_c, 0, 43, 0
3, 12480, Note_on_c, 0, 50, 0
3, 12480, Note_on_c, 0, 50, 34
3, 12480, Note_on_c, 0, 43, 28
3, 12600, Control_c, 0, 64, 127
3, 13066, Control_c, 0, 64, 0
3, 13108, Control_c, 0, 64, 127
3, 13440, Note_on_c, 0, 43, 0
3, 13440, Note_on_c, 0, 50, 0
3, 13440, Note_on_c, 0, 43, 27
3, 13440, Note_on_c, 0, 50, 32
3, 13465, Control_c, 0, 64, 0
3, 13496, Control_c, 0, 64, 127
3, 14019, Control_c, 0, 64, 0
3, 14068, Control_c, 0, 64, 127
3, 14400, Note_on_c, 0, 50, 0
3, 14400, Note_on_c, 0, 43, 0
3, 14400, Control_c, 0, 64, 0
3, 14400, Note_on_c, 0, 43, 27
3, 14400, Note_on_c, 0, 50, 32
3, 14534, Control_c, 0, 64, 127
3, 15360, Note_on_c, 0, 50, 0
3, 15360, Note_on_c, 0, 43, 0
3, 15360, Note_on_c, 0, 43, 28
3, 15360, Note_on_c, 0, 50, 34
3, 15424, Control_c, 0, 64, 0
3, 15536, Control_c, 0, 64, 127
3, 15939, Control_c, 0, 64, 0
3, 15988, Control_c, 0, 64, 127
3, 16281, Control_c, 0, 64, 0
3, 16320, Note_on_c, 0, 50, 0
3, 16320, Note_on_c, 0, 43, 0
3, 16320, Note_on_c, 0, 43, 30
3, 16320, Note_on_c, 0, 50, 36
3, 16440, Control_c, 0, 64, 127
3, 16906, Control_c, 0, 64, 0
3, 16948, Control_c, 0, 64, 127
3, 17280, Note_on_c, 0, 50, 0
3, 17280, Note_on_c, 0, 43, 0
3, 17280, Note_on_c, 0, 52, 34
3, 17280, Note_on_c, 0, 43, 28
3, 17305, Control_c, 0, 64, 0
3, 17336, Control_c, 0, 64, 127
3, 17859, Control_c, 0, 64, 0
3, 17908, Control_c, 0, 64, 127
3, 18201, Control_c, 0, 64, 0
3, 18240, Note_on_c, 0, 43, 0
3, 18240, Note_on_c, 0, 52, 0
3, 18240, Note_on_c, 0, 43, 32
3, 18240, Note_on_c, 0, 52, 38
3, 18360, Control_c, 0, 64, 127
3, 18826, Control_c, 0, 64, 0
3, 18868, Control_c, 0, 64, 127
3, 19200, Note_on_c, 0, 52, 0
3, 19200, Note_on_c, 0, 43, 0
3, 19200, Note_on_c, 0, 50, 42
3, 19200, Note_on_c, 0, 43, 35
3, 19225, Control_c, 0, 64, 0
3, 19256, Control_c, 0, 64, 127
3, 19779, Control_c, 0, 64, 0
3, 19828, Control_c, 0, 64, 127
3, 20121, Control_c, 0, 64, 0
3, 20160, Note_on_c, 0, 43, 0
3, 20160, Note_on_c, 0, 50, 0
3, 20160, Note_on_c, 0, 43, 38
3, 20160, Note_on_c, 0, 50, 46
3, 20280, Control_c, 0, 64, 127
3, 20746, Control_c, 0, 64, 0
3, 20788, Control_c, 0, 64, 127
3, 21120, Note_on_c, 0, 50, 0
3, 21120, Note_on_c, 0, 43, 0
3, 21120, Note_on_c, 0, 50, 53
3, 21120, Note_on_c, 0, 43, 44
3, 21145, Control_c, 0, 64, 0
3, 21176, Control_c, 0, 64, 127
3, 21699, Control_c, 0, 64, 0
3, 21748, Control_c, 0, 64, 127
3, 22041, Control_c, 0, 64, 0
3, 22080, Note_on_c, 0, 43, 0
3, 22080, Note_on_c, 0, 50, 0
3, 22080, Note_on_c, 0, 43, 46
3, 22080, Note_on_c, 0, 50, 55
3, 22200, Control_c, 0, 64, 127
3, 22606, Control_c, 0, 64, 0
3, 22708, Control_c, 0, 64, 127
3, 23040, Note_on_c, 0, 50, 0
3, 23040, Note_on_c, 0, 43, 0
3, 23040, Note_on_c, 0, 43, 37
3, 23040, Note_on_c, 0, 50, 46
3, 23104, Control_c, 0, 64, 0
3, 23216, Control_c, 0, 64, 127
3, 23619, Control_c, 0, 64, 0
3, 23668, Control_c, 0, 64, 127
3, 23961, Control_c, 0, 64, 0
3, 24000, Note_on_c, 0, 50, 0
3, 24000, Note_on_c, 0, 43, 0
3, 24000, Note_on_c, 0, 43, 40
3, 24000, Note_on_c, 0, 50, 48
3, 24120, Control_c, 0, 64, 127
3, 24586, Control_c, 0, 64, 0
3, 24628, Control_c, 0, 64, 127
3, 24960, Note_on_c, 0, 50, 0
3, 24960, Note_on_c, 0, 43, 0
3, 24960, Note_on_c, 0, 52, 46
3, 24960, Note_on_c, 0, 43, 37
3, 24985, Control_c, 0, 64, 0
3, 25016, Control_c, 0, 64, 127
3, 25539, Control_c, 0, 64, 0
3, 25588, Control_c, 0, 64, 127
3, 25881, Control_c, 0, 64, 0
3, 25920, Note_on_c, 0, 43, 0
3, 25920, Note_on_c, 0, 52, 0
3, 25920, Note_on_c, 0, 43, 43
3, 25920, Note_on_c, 0, 52, 52
3, 26040, Control_c, 0, 64, 127
3, 26506, Control_c, 0, 64, 0
3, 26548, Control_c, 0, 64, 127
3, 26880, Note_on_c, 0, 52, 0
3, 26880, Note_on_c, 0, 43, 0
3, 26880, Note_on_c, 0, 50, 48
3, 26880, Note_on_c, 0, 43, 40
3, 26905, Control_c, 0, 64, 0
3, 26936, Control_c, 0, 64, 127
3, 27459, Control_c, 0, 64, 0
3, 27508, Control_c, 0, 64, 127
3, 27801, Control_c, 0, 64, 0
3, 27840, Note_on_c, 0, 43, 0
3, 27840, Note_on_c, 0, 50, 0
3, 27840, Note_on_c, 0, 43, 44
3, 27840, Note_on_c, 0, 50, 53
3, 27960, Control_c, 0, 64, 127
3, 28426, Control_c, 0, 64, 0
3, 28468, Control_c, 0, 64, 127
3, 28800, Note_on_c, 0, 50, 0
3, 28800, Note_on_c, 0, 43, 0
3, 28800, Note_on_c, 0, 50, 54
3, 28800, Note_on_c, 0, 43, 45
3, 28825, Control_c, 0, 64, 0
3, 28856, Control_c, 0, 64, 127
3, 29379, Control_c, 0, 64, 0
3, 29428, Control_c, 0, 64, 127
3, 29721, Control_c, 0, 64, 0
3, 29760, Note_on_c, 0, 43, 0
3, 29760, Note_on_c, 0, 50, 0
3, 29760, Note_on_c, 0, 43, 48
3, 29760, Note_on_c, 0, 50, 55
3, 29880, Control_c, 0, 64, 127
3, 30286, Control_c, 0, 64, 0
3, 30388, Control_c, 0, 64, 127
3, 30674, Control_c, 0, 64, 0
3, 30720, Note_on_c, 0, 50, 0
3, 30720, Note_on_c, 0, 43, 0
3, 30720, Note_on_c, 0, 43, 39
3, 30720, Note_on_c, 0, 50, 47
3, 30791, Control_c, 0, 64, 127
3, 31214, Control_c, 0, 64, 0
3, 31271, Control_c, 0, 64, 127
3, 31680, Note_on_c, 0, 50, 0
3, 31680, Note_on_c, 0, 43, 0
3, 31680, Control_c, 0, 64, 0
3, 31680, Note_on_c, 0, 43, 47
3, 31800, Control_c, 0, 64, 127
3, 31920, Note_on_c, 0, 43, 0
3, 31920, Note_on_c, 0, 43, 40
3, 32040, Note_on_c, 0, 43, 0
3, 32040, Note_on_c, 0, 50, 40
3, 32160, Note_on_c, 0, 50, 0
3, 32160, Note_on_c, 0, 43, 47
3, 32188, Control_c, 0, 64, 0
3, 32245, Control_c, 0, 64, 127
3, 32400, Note_on_c, 0, 43, 0
3, 32400, Note_on_c, 0, 38, 41
3, 32640, Note_on_c, 0, 38, 0
3, 32640, Control_c, 0, 64, 0
3, 32640, Note_on_c, 0, 43, 39
3, 32640, Note_on_c, 0, 50, 47
3, 32711, Control_c, 0, 64, 127
3, 33134, Control_c, 0, 64, 0
3, 33191, Control_c, 0, 64, 127
3, 33600, Note_on_c, 0, 50, 0
3, 33600, Note_on_c, 0, 43, 0
3, 33600, Control_c, 0, 64, 0
3, 33600, Note_on_c, 0, 43, 47
3, 33720, Control_c, 0, 64, 127
3, 33840, Note_on_c, 0, 43, 0
3, 33840, Note_on_c, 0, 43, 40
3, 33960, Note_on_c, 0, 43, 0
3, 33960, Note_on_c, 0, 50, 40
3, 34080, Note_on_c, 0, 50, 0
3, 34080, Note_on_c, 0, 43, 40
3, 34080, Note_on_c, 0, 55, 47
3, 34108, Control_c, 0, 64, 0
3, 34165, Control_c, 0, 64, 127
3, 34320, Note_on_c, 0, 55, 0
3, 34320, Note_on_c, 0, 43, 0
3, 34320, Note_on_c, 0, 38, 39
3, 34560, Note_on_c, 0, 38, 0
3, 34560, Control_c, 0, 64, 0
3, 34560, Note_on_c, 0, 43, 32
3, 34560, Note_on_c, 0, 50, 38
3, 34631, Control_c, 0, 64, 127
3, 35054, Control_c, 0, 64, 0
3, 35111, Control_c, 0, 64, 127
3, 35520, Note_on_c, 0, 50, 0
3, 35520, Note_on_c, 0, 43, 0
3, 35520, Control_c, 0, 64, 0
3, 35520, Note_on_c, 0, 43, 38
3, 35640, Control_c, 0, 64, 127
3, 35760, Note_on_c, 0, 43, 0
3, 35760, Note_on_c, 0, 43, 33
3, 35880, Note_on_c, 0, 43, 0
3, 35880, Note_on_c, 0, 50, 33
3, 36000, Note_on_c, 0, 50, 0
3, 36000, Note_on_c, 0, 43, 38
3, 36028, Control_c, 0, 64, 0
3, 36085, Control_c, 0, 64, 127
3, 36240, Note_on_c, 0, 43, 0
3, 36240, Note_on_c, 0, 38, 33
3, 36480, Note_on_c, 0, 38, 0
3, 36480, Control_c, 0, 64, 0
3, 36480, Note_on_c, 0, 43, 30
3, 36480, Note_on_c, 0, 50, 36
3, 36551, Control_c, 0, 64, 127
3, 36974, Control_c, 0, 64, 0
3, 37031, Control_c, 0, 64, 127
3, 37440, Note_on_c, 0, 50, 0
3, 37440, Note_on_c, 0, 43, 0
3, 37440, Control_c, 0, 64, 0
3, 37440, Note_on_c, 0, 43, 36
3, 37560, Control_c, 0, 64, 127
3, 37680, Note_on_c, 0, 43, 0
3, 37680, Note_on_c, 0, 43, 31
3, 37800, Note_on_c, 0, 43, 0
3, 37800, Note_on_c, 0, 50, 31
3, 37920, Note_on_c, 0, 50, 0
3, 37920, Note_on_c, 0, 43, 31
3, 37948, Control_c, 0, 64, 0
3, 38005, Control_c, 0, 64, 127
3, 38160, Note_on_c, 0, 43, 0
3, 38160, Note_on_c, 0, 38, 29
3, 38400, Note_on_c, 0, 38, 0
3, 38400, Note_on_c, 0, 43, 30
3, 38400, Note_on_c, 0, 50, 36
3, 38471, Control_c, 0, 64, 0
3, 38569, Control_c, 0, 64, 127
3, 38894, Control_c, 0, 64, 0
3, 38979, Control_c, 0, 64, 127
3, 39360, Note_on_c, 0, 50, 0
3, 39360, Note_on_c, 0, 43, 0
3, 39360, Control_c, 0, 64, 0
3, 39360, Note_on_c, 0, 43, 24
3, 39360, Note_on_c, 0, 50, 28
3, 39520, Control_c, 0, 64, 127
3, 40320, Note_on_c, 0, 50, 0
3, 40320, Note_on_c, 0, 43, 0
3, 40320, Note_on_c, 0, 43, 24
3, 40320, Note_on_c, 0, 50, 28
3, 41280, Note_on_c, 0, 59, 33
3, 41280, Note_on_c, 0, 62, 39
3, 41760, Note_on_c, 0, 62, 0
3, 41760, Note_on_c, 0, 43, 0
3, 41760, Note_on_c, 0, 50, 0
3, 41760, Note_on_c, 0, 59, 0
3, 41788, Control_c, 0, 64, 0
3, 42402, Control_c, 0, 64, 127
3, 42720, Note_on_c, 0, 38, 24
3, 42798, Control_c, 0, 64, 0
3, 42868, Control_c, 0, 64, 127
3, 43200, Note_on_c, 0, 38, 0
3, 43200, Control_c, 0, 64, 0
3, 43200, Note_on_c, 0, 43, 26
3, 43200, Note_on_c, 0, 50, 31
3, 43384, Control_c, 0, 64, 127
3, 44160, Note_on_c, 0, 50, 0
3, 44160, Note_on_c, 0, 43, 0
3, 44160, Note_on_c, 0, 43, 22
3, 44160, Note_on_c, 0, 50, 27
3, 44259, Control_c, 0, 64, 0
3, 44372, Control_c, 0, 64, 127
3, 45120, Note_on_c, 0, 50, 0
3, 45120, Note_on_c, 0, 43, 0
3, 45120, Control_c, 0, 64, 0
3, 45120, Note_on_c, 0, 43, 23
3, 45120, Note_on_c, 0, 50, 28
3, 45261, Control_c, 0, 64, 127
3, 46080, Note_on_c, 0, 50, 0
3, 46080, Note_on_c, 0, 43, 0
3, 46080, Note_on_c, 0, 43, 22
3, 46080, Note_on_c, 0, 50, 26
3, 46101, Control_c, 0, 64, 0
3, 46144, Control_c, 0, 64, 127
3, 47040, Note_on_c, 0, 50, 0
3, 47040, Note_on_c, 0, 43, 0
3, 47040, Note_on_c, 0, 50, 34
3, 47040, Note_on_c, 0, 43, 28
3, 47104, Control_c, 0, 64, 0
3, 47216, Control_c, 0, 64, 127
3, 47619, Control_c, 0, 64, 0
3, 47668, Control_c, 0, 64, 127
3, 47961, Control_c, 0, 64, 0
3, 48000, Note_on_c, 0, 43, 0
3, 48000, Note_on_c, 0, 50, 0
3, 48000, Note_on_c, 0, 43, 30
3, 48000, Note_on_c, 0, 50, 36
3, 48120, Control_c, 0, 64, 127
3, 48586, Control_c, 0, 64, 0
3, 48628, Control_c, 0, 64, 127
3, 48960, Note_on_c, 0, 50, 0
3, 48960, Note_on_c, 0, 43, 0
3, 48960, Note_on_c, 0, 43, 28
3, 48960, Note_on_c, 0, 50, 34
3, 48985, Control_c, 0, 64, 0
3, 49016, Control_c, 0, 64, 127
3, 49539, Control_c, 0, 64, 0
3, 49588, Control_c, 0, 64, 127
3, 49881, Control_c, 0, 64, 0
3, 49920, Note_on_c, 0, 50, 0
3, 49920, Note_on_c, 0, 43, 0
3, 49920, Note_on_c, 0, 43, 30
3, 49920, Note_on_c, 0, 50, 36
3, 50040, Control_c, 0, 64, 127
3, 50506, Control_c, 0, 64, 0
3, 50548, Control_c, 0, 64, 127
3, 50880, Note_on_c, 0, 50, 0
3, 50880, Note_on_c, 0, 43, 0
3, 50880, Note_on_c, 0, 43, 28
3, 50880, Note_on_c, 0, 50, 34
3, 50905, Control_c, 0, 64, 0
3, 50936, Control_c, 0, 64, 127
3, 51459, Control_c, 0, 64, 0
3, 51508, Control_c, 0, 64, 127
3, 51840, Note_on_c, 0, 50, 0
3, 51840, Note_on_c, 0, 43, 0
3, 51840, Control_c, 0, 64, 0
3, 51840, Note_on_c, 0, 43, 28
3, 51840, Note_on_c, 0, 50, 34
3, 51939, Control_c, 0, 64, 127
3, 52800, Note_on_c, 0, 50, 0
3, 52800, Note_on_c, 0, 43, 0
3, 52800, Note_on_c, 0, 43, 28
3, 52800, Note_on_c, 0, 50, 34
3, 52864, Control_c, 0, 64, 0
3, 52976, Control_c, 0, 64, 127
3, 53379, Control_c, 0, 64, 0
3, 53428, Control_c, 0, 64, 127
3, 53721, Control_c, 0, 64, 0
3, 53760, Note_on_c, 0, 50, 0
3, 53760, Note_on_c, 0, 43, 0
3, 53760, Note_on_c, 0, 43, 30
3, 53760, Note_on_c, 0, 50, 36
3, 53880, Control_c, 0, 64, 127
3, 54346, Control_c, 0, 64, 0
3, 54388, Control_c, 0, 64, 127
3, 54720, Note_on_c, 0, 50, 0
3, 54720, Note_on_c, 0, 43, 0
3, 54720, Note_on_c, 0, 52, 34
3, 54720, Note_on_c, 0, 43, 28
3, 54745, Control_c, 0, 64, 0
3, 54776, Control_c, 0, 64, 127
3, 55299, Control_c, 0, 64, 0
3, 55348, Control_c, 0, 64, 127
3, 55641, Control_c, 0, 64, 0
3, 55680, Note_on_c, 0, 43, 0
3, 55680, Note_on_c, 0, 52, 0
3, 55680, Note_on_c, 0, 43, 32
3, 55680, Note_on_c, 0, 52, 39
3, 55800, Control_c, 0, 64, 127
3, 56266, Control_c, 0, 64, 0
3, 56308, Control_c, 0, 64, 127
3, 56640, Note_on_c, 0, 52, 0
3, 56640, Note_on_c, 0, 43, 0
3, 56640, Note_on_c, 0, 50, 37
3, 56640, Note_on_c, 0, 43, 31
3, 56665, Control_c, 0, 64, 0
3, 56696, Control_c, 0, 64, 127
3, 57219, Control_c, 0, 64, 0
3, 57268, Control_c, 0, 64, 127
3, 57561, Control_c, 0, 64, 0
3, 57600, Note_on_c, 0, 43, 0
3, 57600, Note_on_c, 0, 50, 0
3, 57600, Note_on_c, 0, 43, 34
3, 57600, Note_on_c, 0, 50, 41
3, 57720, Control_c, 0, 64, 127
3, 58186, Control_c, 0, 64, 0
3, 58228, Control_c, 0, 64, 127
3, 58560, Note_on_c, 0, 50, 0
3, 58560, Note_on_c, 0, 43, 0
3, 58560, Note_on_c, 0, 50, 42
3, 58560, Note_on_c, 0, 43, 35
3, 58585, Control_c, 0, 64, 0
3, 58616, Control_c, 0, 64, 127
3, 59139, Control_c, 0, 64, 0
3, 59188, Control_c, 0, 64, 127
3, 59481, Control_c, 0, 64, 0
3, 59520, Note_on_c, 0, 43, 0
3, 59520, Note_on_c, 0, 50, 0
3, 59520, Note_on_c, 0, 43, 37
3, 59520, Note_on_c, 0, 50, 43
3, 59640, Control_c, 0, 64, 127
3, 60046, Control_c, 0, 64, 0
3, 60148, Control_c, 0, 64, 127
3, 60434, Control_c, 0, 64, 0
3, 60480, Note_on_c, 0, 50, 0
3, 60480, Note_on_c, 0, 43, 0
3, 60480, Note_on_c, 0, 43, 32
3, 60480, Note_on_c, 0, 50, 38
3, 60551, Control_c, 0, 64, 127
3, 60974, Control_c, 0, 64, 0
3, 61031, Control_c, 0, 64, 127
3, 61440, Note_on_c, 0, 50, 0
3, 61440, Note_on_c, 0, 43, 0
3, 61440, Control_c, 0, 64, 0
3, 61440, Note_on_c, 0, 43, 38
3, 61560, Control_c, 0, 64, 127
3, 61680, Note_on_c, 0, 43, 0
3, 61680, Note_on_c, 0, 43, 33
3, 61800, Note_on_c, 0, 43, 0
3, 61800, Note_on_c, 0, 50, 33
3, 61920, Note_on_c, 0, 50, 0
3, 61920, Note_on_c, 0, 43, 38
3, 61948, Control_c, 0, 64, 0
3, 62005, Control_c, 0, 64, 127
3, 62160, Note_on_c, 0, 43, 0
3, 62160, Note_on_c, 0, 38, 34
3, 62400, Note_on_c, 0, 38, 0
3, 62400, Control_c, 0, 64, 0
3, 62400, Note_on_c, 0, 43, 32
3, 62400, Note_on_c, 0, 50, 38
3, 62471, Control_c, 0, 64, 127
3, 62894, Control_c, 0, 64, 0
3, 62951, Control_c, 0, 64, 127
3, 63360, Note_on_c, 0, 50, 0
3, 63360, Note_on_c, 0, 43, 0
3, 63360, Control_c, 0, 64, 0
3, 63360, Note_on_c, 0, 43, 38
3, 63480, Control_c, 0, 64, 127
3, 63600, Note_on_c, 0, 43, 0
3, 63600, Note_on_c, 0, 43, 33
3, 63720, Note_on_c, 0, 43, 0
3, 63720, Note_on_c, 0, 50, 33
3, 63840, Note_on_c, 0, 50, 0
3, 63840, Note_on_c, 0, 43, 33
3, 63868, Control_c, 0, 64, 0
3, 63925, Control_c, 0, 64, 127
3, 64080, Note_on_c, 0, 43, 0
3, 64080, Note_on_c, 0, 38, 32
3, 64320, Note_on_c, 0, 38, 0
3, 64320, Control_c, 0, 64, 0
3, 64320, Note_on_c, 0, 43, 32
3, 64320, Note_on_c, 0, 50, 38
3, 64391, Control_c, 0, 64, 127
3, 64814, Control_c, 0, 64, 0
3, 64871, Control_c, 0, 64, 127
3, 65280, Note_on_c, 0, 50, 0
3, 65280, Note_on_c, 0, 43, 0
3, 65280, Control_c, 0, 64, 0
3, 65280, Note_on_c, 0, 43, 38
3, 65400, Control_c, 0, 64, 127
3, 65520, Note_on_c, 0, 43, 0
3, 65520, Note_on_c, 0, 43, 33
3, 65640, Note_on_c, 0, 43, 0
3, 65640, Note_on_c, 0, 50, 33
3, 65760, Note_on_c, 0, 50, 0
3, 65760, Note_on_c, 0, 43, 38
3, 65788, Control_c, 0, 64, 0
3, 65845, Control_c, 0, 64, 127
3, 66000, Note_on_c, 0, 43, 0
3, 66000, Note_on_c, 0, 38, 33
3, 66240, Note_on_c, 0, 38, 0
3, 66240, Control_c, 0, 64, 0
3, 66240, Note_on_c, 0, 43, 30
3, 66240, Note_on_c, 0, 50, 36
3, 66311, Control_c, 0, 64, 127
3, 66734, Control_c, 0, 64, 0
3, 66791, Control_c, 0, 64, 127
3, 67200, Note_on_c, 0, 50, 0
3, 67200, Note_on_c, 0, 43, 0
3, 67200, Control_c, 0, 64, 0
3, 67200, Note_on_c, 0, 43, 36
3, 67320, Control_c, 0, 64, 127
3, 67440, Note_on_c, 0, 43, 0
3, 67440, Note_on_c, 0, 43, 31
3, 67560, Note_on_c, 0, 43, 0
3, 67560, Note_on_c, 0, 50, 31
3, 67680, Note_on_c, 0, 50, 0
3, 67680, Note_on_c, 0, 43, 31
3, 67708, Control_c, 0, 64, 0
3, 67765, Control_c, 0, 64, 127
3, 67920, Note_on_c, 0, 43, 0
3, 67920, Note_on_c, 0, 38, 29
3, 68160, Note_on_c, 0, 38, 0
3, 68160, Note_on_c, 0, 43, 30
3, 68160, Note_on_c, 0, 50, 36
3, 68231, Control_c, 0, 64, 0
3, 68329, Control_c, 0, 64, 127
3, 68654, Control_c, 0, 64, 0
3, 68739, Control_c, 0, 64, 127
3, 69120, Note_on_c, 0, 50, 0
3, 69120, Note_on_c, 0, 43, 0
3, 69120, Control_c, 0, 64, 0
3, 69120, Note_on_c, 0, 43, 24
3, 69120, Note_on_c, 0, 50, 28
3, 69280, Control_c, 0, 64, 127
3, 70080, Note_on_c, 0, 50, 0
3, 70080, Note_on_c, 0, 43, 0
3, 70080, Note_on_c, 0, 43, 24
3, 70080, Note_on_c, 0, 50, 28
3, 71040, Note_on_c, 0, 59, 33
3, 71040, Note_on_c, 0, 62, 39
3, 71520, Note_on_c, 0, 62, 0
3, 71520, Note_on_c, 0, 43, 0
3, 71520, Note_on_c, 0, 50, 0
3, 71520, Note_on_c, 0, 59, 0
3, 71548, Control_c, 0, 64, 0
3, 72162, Control_c, 0, 64, 127
3, 72480, Note_on_c, 0, 38, 24
3, 72558, Control_c, 0, 64, 0
3, 72628, Control_c, 0, 64, 127
3, 72960, Note_on_c, 0, 38, 0
3, 72960, Control_c, 0, 64, 0
3, 72960, Note_on_c, 0, 43, 26
3, 72960, Note_on_c, 0, 50, 31
3, 73129, Control_c, 0, 64, 127
3, 73920, Note_on_c, 0, 50, 0
3, 73920, Note_on_c, 0, 43, 0
3, 73920, Control_c, 0, 64, 0
3, 73920, Note_on_c, 0, 43, 22
3, 73920, Note_on_c, 0, 50, 32
3, 74061, Control_c, 0, 64, 127
3, 74880, Note_on_c, 0, 50, 0
3, 74880, Note_on_c, 0, 43, 0
3, 74880, Control_c, 0, 64, 0
3, 74880, Note_on_c, 0, 43, 25
3, 74880, Note_on_c, 0, 50, 30
3, 75021, Control_c, 0, 64, 127
3, 75840, Note_on_c, 0, 50, 0
3, 75840, Note_on_c, 0, 43, 0
3, 75840, Note_on_c, 0, 43, 22
3, 75840, Note_on_c, 0, 50, 31
3, 75861, Control_c, 0, 64, 0
3, 75904, Control_c, 0, 64, 127
3, 76800, Note_on_c, 0, 50, 0
3, 76800, Note_on_c, 0, 43, 0
3, 76800, Control_c, 0, 64, 0
3, 76800, Note_on_c, 0, 43, 26
3, 76800, Note_on_c, 0, 50, 31
3, 77026, Control_c, 0, 64, 127
3, 77760, Note_on_c, 0, 50, 0
3, 77760, Note_on_c, 0, 43, 0
3, 77760, Note_on_c, 0, 43, 21
3, 77760, Note_on_c, 0, 50, 31
3, 77901, Control_c, 0, 64, 0
3, 78028, Control_c, 0, 64, 127
3, 78720, Note_on_c, 0, 50, 0
3, 78720, Note_on_c, 0, 43, 0
3, 78720, Control_c, 0, 64, 0
3, 78720, Note_on_c, 0, 43, 21
3, 78720, Note_on_c, 0, 50, 25
3, 78861, Control_c, 0, 64, 127
3, 79680, Note_on_c, 0, 50, 0
3, 79680, Note_on_c, 0, 43, 0
3, 79680, Note_on_c, 0, 43, 20
3, 79680, Note_on_c, 0, 50, 24
3, 79701, Control_c, 0, 64, 0
3, 79744, Control_c, 0, 64, 127
3, 80640, Note_on_c, 0, 50, 0
3, 80640, Note_on_c, 0, 43, 0
3, 80718, Control_c, 0, 64, 0
3, 80767, Control_c, 0, 64, 127
3, 81120, Control_c, 0, 64, 0
3, 81162, Control_c, 0, 64, 127
3, 81402, Control_c, 0, 64, 0
3, 81416, Control_c, 0, 64, 127
3, 81600, Note_on_c, 0, 55, 40
3, 81656, Control_c, 0, 64, 0
3, 81671, Control_c, 0, 64, 127
3, 81840, Note_on_c, 0, 55, 0
3, 81840, Note_on_c, 0, 57, 39
3, 81854, Control_c, 0, 64, 0
3, 81904, Control_c, 0, 64, 127
3, 82080, Note_on_c, 0, 57, 0
3, 82101, Control_c, 0, 64, 0
3, 82158, Control_c, 0, 64, 127
3, 82313, Control_c, 0, 64, 0
3, 82369, Control_c, 0, 64, 127
3, 82560, Control_c, 0, 64, 0
3, 82560, Note_on_c, 0, 62, 40
3, 82560, Note_on_c, 0, 58, 34
3, 82616, Control_c, 0, 64, 127
3, 82800, Note_on_c, 0, 58, 0
3, 82800, Note_on_c, 0, 62, 0
3, 82800, Note_on_c, 0, 53, 30
3, 82800, Note_on_c, 0, 60, 36
3, 82828, Control_c, 0, 64, 0
3, 82899, Control_c, 0, 64, 127
3, 83040, Note_on_c, 0, 60, 0
3, 83040, Note_on_c, 0, 53, 0
3, 83040, Note_on_c, 0, 53, 34
3, 83040, Note_on_c, 0, 60, 40
3, 83464, Control_c, 0, 64, 0
3, 83520, Note_on_c, 0, 60, 0
3, 83520, Note_on_c, 0, 53, 0
3, 83520, Note_on_c, 0, 46, 29
3, 83520, Note_on_c, 0, 53, 36
3, 83576, Control_c, 0, 64, 127
3, 84000, Note_on_c, 0, 53, 0
3, 84000, Note_on_c, 0, 46, 0
3, 84071, Control_c, 0, 64, 0
3, 84254, Control_c, 0, 64, 127
3, 84960, Control_c, 0, 64, 0
3, 85002, Control_c, 0, 64, 127
3, 85214, Control_c, 0, 64, 0
3, 85264, Control_c, 0, 64, 127
3, 85461, Control_c, 0, 64, 0
3, 85511, Control_c, 0, 64, 127
3, 85694, Control_c, 0, 64, 0
3, 85744, Control_c, 0, 64, 127
3, 85920, Control_c, 0, 64, 0
3, 85976, Control_c, 0, 64, 127
3, 86174, Control_c, 0, 64, 0
3, 86216, Control_c, 0, 64, 127
3, 86400, Control_c, 0, 64, 0
3, 86400, Note_on_c, 0, 62, 40
3, 86400, Note_on_c, 0, 58, 34
3, 86456, Control_c, 0, 64, 127
3, 86617, Control_c, 0, 64, 0
3, 86640, Note_on_c, 0, 58, 0
3, 86640, Note_on_c, 0, 62, 0
3, 86640, Note_on_c, 0, 57, 33
3, 86640, Note_on_c, 0, 61, 39
3, 86674, Control_c, 0, 64, 127
3, 86880, Note_on_c, 0, 61, 0
3, 86880, Note_on_c, 0, 57, 0
3, 86880, Note_on_c, 0, 57, 37
3, 86880, Note_on_c, 0, 61, 44
3, 87304, Control_c, 0, 64, 0
3, 87360, Note_on_c, 0, 61, 0
3, 87360, Note_on_c, 0, 57, 0
3, 87360, Note_on_c, 0, 50, 31
3, 87360, Note_on_c, 0, 57, 39
3, 87416, Control_c, 0, 64, 127
3, 87699, Control_c, 0, 64, 0
3, 87840, Note_on_c, 0, 57, 0
3, 87840, Note_on_c, 0, 50, 0
3, 87966, Control_c, 0, 64, 127
3, 88800, Control_c, 0, 64, 0
3, 88842, Control_c, 0, 64, 127
3, 89252, Control_c, 0, 64, 0
3, 89351, Control_c, 0, 64, 127
3, 89534, Control_c, 0, 64, 0
3, 89584, Control_c, 0, 64, 127
3, 89824, Control_c, 0, 64, 0
3, 89908, Control_c, 0, 64, 127
3, 90240, Note_on_c, 0, 58, 53
3, 90240, Control_c, 0, 64, 0
3, 90353, Control_c, 0, 64, 127
3, 90480, Note_on_c, 0, 58, 0
3, 90480, Note_on_c, 0, 57, 53
3, 90720, Note_on_c, 0, 57, 0
3, 90720, Note_on_c, 0, 55, 49
3, 90960, Note_on_c, 0, 55, 0
3, 90960, Note_on_c, 0, 53, 46
3, 91200, Note_on_c, 0, 53, 0
3, 91200, Note_on_c, 0, 51, 53
3, 91242, Control_c, 0, 64, 0
3, 91327, Control_c, 0, 64, 127
3, 91680, Note_on_c, 0, 51, 0
3, 91680, Control_c, 0, 64, 0
3, 91680, Note_on_c, 0, 45, 41
3, 91758, Control_c, 0, 64, 127
3, 92160, Note_on_c, 0, 45, 0
3, 92160, Control_c, 0, 64, 0
3, 92160, Note_on_c, 0, 46, 49
3, 92231, Control_c, 0, 64, 127
3, 92612, Control_c, 0, 64, 0
3, 92640, Note_on_c, 0, 46, 0
3, 92640, Note_on_c, 0, 51, 46
3, 92718, Control_c, 0, 64, 127
3, 92880, Note_on_c, 0, 51, 0
3, 92880, Note_on_c, 0, 45, 41
3, 93120, Note_on_c, 0, 45, 0
3, 93120, Note_on_c, 0, 46, 49
3, 93148, Control_c, 0, 64, 0
3, 93205, Control_c, 0, 64, 127
3, 93600, Note_on_c, 0, 46, 0
3, 93600, Note_on_c, 0, 48, 48
3, 93642, Control_c, 0, 64, 0
3, 93699, Control_c, 0, 64, 127
3, 93840, Note_on_c, 0, 48, 0
3, 93840, Note_on_c, 0, 46, 42
3, 93882, Control_c, 0, 64, 0
3, 93939, Control_c, 0, 64, 127
3, 94080, Note_on_c, 0, 46, 0
3, 94080, Control_c, 0, 64, 0
3, 94080, Note_on_c, 0, 48, 49
3, 94137, Control_c, 0, 64, 127
3, 94320, Note_on_c, 0, 48, 0
3, 94320, Note_on_c, 0, 51, 38
3, 94331, Control_c, 0, 64, 0
3, 94394, Control_c, 0, 64, 127
3, 94537, Control_c, 0, 64, 0
3, 94560, Note_on_c, 0, 51, 0
3, 94560, Note_on_c, 0, 38, 46
3, 94562, Control_c, 0, 64, 127
3, 95040, Note_on_c, 0, 38, 0
3, 95040, Note_on_c, 0, 31, 40
3, 95051, Control_c, 0, 64, 0
3, 95120, Control_c, 0, 64, 127
3, 95491, Control_c, 0, 64, 0
3, 95520, Note_on_c, 0, 31, 0
3, 95646, Control_c, 0, 64, 127
3, 96078, Control_c, 0, 64, 0
3, 96127, Control_c, 0, 64, 127
3, 96480, Control_c, 0, 64, 0
3, 96522, Control_c, 0, 64, 127
3, 96762, Control_c, 0, 64, 0
3, 96776, Control_c, 0, 64, 127
3, 96960, Note_on_c, 0, 55, 35
3, 97016, Control_c, 0, 64, 0
3, 97031, Control_c, 0, 64, 127
3, 97200, Note_on_c, 0, 55, 0
3, 97200, Note_on_c, 0, 57, 35
3, 97214, Control_c, 0, 64, 0
3, 97264, Control_c, 0, 64, 127
3, 97440, Note_on_c, 0, 57, 0
3, 97461, Control_c, 0, 64, 0
3, 97518, Control_c, 0, 64, 127
3, 97673, Control_c, 0, 64, 0
3, 97729, Control_c, 0, 64, 127
3, 97920, Control_c, 0, 64, 0
3, 97920, Note_on_c, 0, 62, 35
3, 97920, Note_on_c, 0, 58, 29
3, 97976, Control_c, 0, 64, 127
3, 98160, Note_on_c, 0, 58, 0
3, 98160, Note_on_c, 0, 62, 0
3, 98160, Note_on_c, 0, 53, 26
3, 98160, Note_on_c, 0, 60, 31
3, 98188, Control_c, 0, 64, 0
3, 98259, Control_c, 0, 64, 127
3, 98400, Note_on_c, 0, 60, 0
3, 98400, Note_on_c, 0, 53, 0
3, 98400, Note_on_c, 0, 53, 29
3, 98400, Note_on_c, 0, 60, 35
3, 98880, Note_on_c, 0, 60, 0
3, 98880, Note_on_c, 0, 53, 0
3, 98880, Note_on_c, 0, 46, 23
3, 98880, Note_on_c, 0, 53, 29
3, 98887, Control_c, 0, 64, 0
3, 98936, Control_c, 0, 64, 127
3, 99360, Note_on_c, 0, 53, 0
3, 99360, Note_on_c, 0, 46, 0
3, 99431, Control_c, 0, 64, 0
3, 99476, Control_c, 0, 64, 127
3, 100320, Control_c, 0, 64, 0
3, 100362, Control_c, 0, 64, 127
3, 100574, Control_c, 0, 64, 0
3, 100624, Control_c, 0, 64, 127
3, 100814, Control_c, 0, 64, 0
3, 100871, Control_c, 0, 64, 127
3, 101054, Control_c, 0, 64, 0
3, 101104, Control_c, 0, 64, 127
3, 101280, Control_c, 0, 64, 0
3, 101336, Control_c, 0, 64, 127
3, 101534, Control_c, 0, 64, 0
3, 101576, Control_c, 0, 64, 127
3, 101760, Control_c, 0, 64, 0
3, 101760, Note_on_c, 0, 62, 35
3, 101760, Note_on_c, 0, 58, 29
3, 101816, Control_c, 0, 64, 127
3, 101977, Control_c, 0, 64, 0
3, 102000, Note_on_c, 0, 58, 0
3, 102000, Note_on_c, 0, 62, 0
3, 102000, Note_on_c, 0, 57, 28
3, 102000, Note_on_c, 0, 61, 34
3, 102034, Control_c, 0, 64, 127
3, 102240, Note_on_c, 0, 61, 0
3, 102240, Note_on_c, 0, 57, 0
3, 102240, Note_on_c, 0, 67, 38
3, 102240, Note_on_c, 0, 57, 32
3, 102240, Note_on_c, 0, 61, 38
3, 102720, Note_on_c, 0, 61, 0
3, 102720, Note_on_c, 0, 57, 0
3, 102720, Note_on_c, 0, 67, 0
3, 102720, Note_on_c, 0, 50, 24
3, 102720, Note_on_c, 0, 57, 30
3, 102740, Control_c, 0, 64, 0
3, 102776, Control_c, 0, 64, 127
3, 103059, Control_c, 0, 64, 0
3, 103200, Note_on_c, 0, 57, 0
3, 103200, Note_on_c, 0, 50, 0
3, 103326, Control_c, 0, 64, 127
3, 104160, Control_c, 0, 64, 0
3, 104202, Control_c, 0, 64, 127
3, 104696, Control_c, 0, 64, 0
3, 104760, Control_c, 0, 64, 127
3, 104894, Control_c, 0, 64, 0
3, 104944, Control_c, 0, 64, 127
3, 105184, Control_c, 0, 64, 0
3, 105268, Control_c, 0, 64, 127
3, 105600, Note_on_c, 0, 58, 46
3, 105600, Control_c, 0, 64, 0
3, 105713, Control_c, 0, 64, 127
3, 105840, Note_on_c, 0, 58, 0
3, 105840, Note_on_c, 0, 57, 46
3, 106080, Note_on_c, 0, 57, 0
3, 106080, Note_on_c, 0, 55, 41
3, 106320, Note_on_c, 0, 55, 0
3, 106320, Note_on_c, 0, 53, 40
3, 106560, Note_on_c, 0, 53, 0
3, 106560, Note_on_c, 0, 58, 46
3, 106560, Note_on_c, 0, 52, 46
3, 106602, Control_c, 0, 64, 0
3, 106687, Control_c, 0, 64, 127
3, 107040, Note_on_c, 0, 52, 0
3, 107040, Note_on_c, 0, 58, 0
3, 107040, Note_on_c, 0, 51, 36
3, 107040, Control_c, 0, 64, 0
3, 107040, Note_on_c, 0, 57, 36
3, 107118, Control_c, 0, 64, 127
3, 107520, Note_on_c, 0, 57, 0
3, 107520, Note_on_c, 0, 51, 0
3, 107520, Note_on_c, 0, 50, 36
3, 107520, Control_c, 0, 64, 0
3, 107520, Note_on_c, 0, 56, 42
3, 107591, Control_c, 0, 64, 127
3, 107760, Note_on_c, 0, 56, 0
3, 107760, Note_on_c, 0, 50, 0
3, 107760, Note_on_c, 0, 51, 33
3, 107760, Note_on_c, 0, 55, 39
3, 107771, Control_c, 0, 64, 0
3, 107851, Control_c, 0, 64, 127
3, 108000, Note_on_c, 0, 55, 0
3, 108000, Note_on_c, 0, 51, 0
3, 108000, Note_on_c, 0, 50, 33
3, 108000, Note_on_c, 0, 54, 39
3, 108034, Control_c, 0, 64, 0
3, 108103, Control_c, 0, 64, 127
3, 108240, Note_on_c, 0, 54, 0
3, 108240, Note_on_c, 0, 50, 0
3, 108240, Note_on_c, 0, 46, 30
3, 108240, Note_on_c, 0, 55, 36
3, 108480, Note_on_c, 0, 55, 0
3, 108480, Note_on_c, 0, 46, 0
3, 108480, Note_on_c, 0, 48, 36
3, 108480, Note_on_c, 0, 55, 42
3, 108508, Control_c, 0, 64, 0
3, 108565, Control_c, 0, 64, 127
3, 108960, Note_on_c, 0, 55, 0
3, 108960, Note_on_c, 0, 48, 0
3, 108960, Note_on_c, 0, 46, 33
3, 108960, Note_on_c, 0, 55, 41
3, 109002, Control_c, 0, 64, 0
3, 109059, Control_c, 0, 64, 127
3, 109242, Control_c, 0, 64, 0
3, 109299, Control_c, 0, 64, 127
3, 109440, Note_on_c, 0, 55, 0
3, 109440, Note_on_c, 0, 46, 0
3, 109440, Control_c, 0, 64, 0
3, 109440, Note_on_c, 0, 48, 42
3, 109497, Control_c, 0, 64, 127
3, 109680, Note_on_c, 0, 48, 0
3, 109680, Note_on_c, 0, 51, 33
3, 109691, Control_c, 0, 64, 0
3, 109754, Control_c, 0, 64, 127
3, 109920, Note_on_c, 0, 51, 0
3, 109920, Note_on_c, 0, 38, 39
3, 109933, Control_c, 0, 64, 0
3, 109957, Control_c, 0, 64, 127
3, 110400, Note_on_c, 0, 38, 0
3, 110400, Note_on_c, 0, 31, 35
3, 110441, Control_c, 0, 64, 0
3, 110470, Control_c, 0, 64, 127
3, 110656, Control_c, 0, 64, 0
3, 110674, Control_c, 0, 64, 127
3, 110880, Note_on_c, 0, 31, 0
3, 110908, Control_c, 0, 64, 0
3, 110955, Control_c, 0, 64, 127
3, 111360, Note_on_c, 0, 43, 25
3, 111360, Note_on_c, 0, 50, 30
3, 111383, Control_c, 0, 64, 0
3, 111424, Control_c, 0, 64, 0
3, 111536, Control_c, 0, 64, 127
3, 111939, Control_c, 0, 64, 0
3, 111988, Control_c, 0, 64, 127
3, 112281, Control_c, 0, 64, 0
3, 112320, Note_on_c, 0, 50, 0
3, 112320, Note_on_c, 0, 43, 0
3, 112320, Note_on_c, 0, 43, 27
3, 112320, Note_on_c, 0, 50, 32
3, 112440, Control_c, 0, 64, 127
3, 112906, Control_c, 0, 64, 0
3, 112948, Control_c, 0, 64, 127
3, 113280, Note_on_c, 0, 50, 0
3, 113280, Note_on_c, 0, 43, 0
3, 113280, Note_on_c, 0, 43, 25
3, 113280, Note_on_c, 0, 50, 30
3, 113305, Control_c, 0, 64, 0
3, 113336, Control_c, 0, 64, 127
3, 113859, Control_c, 0, 64, 0
3, 113908, Control_c, 0, 64, 127
3, 114201, Control_c, 0, 64, 0
3, 114240, Note_on_c, 0, 50, 0
3, 114240, Note_on_c, 0, 43, 0
3, 114240, Note_on_c, 0, 43, 27
3, 114240, Note_on_c, 0, 50, 32
3, 114360, Control_c, 0, 64, 127
3, 114826, Control_c, 0, 64, 0
3, 114868, Control_c, 0, 64, 127
3, 115200, Note_on_c, 0, 50, 0
3, 115200, Note_on_c, 0, 43, 0
3, 115200, Note_on_c, 0, 43, 25
3, 115200, Note_on_c, 0, 50, 30
3, 115225, Control_c, 0, 64, 0
3, 115256, Control_c, 0, 64, 127
3, 115779, Control_c, 0, 64, 0
3, 115828, Control_c, 0, 64, 127
3, 116160, Note_on_c, 0, 50, 0
3, 116160, Note_on_c, 0, 43, 0
3, 116160, Control_c, 0, 64, 0
3, 116160, Note_on_c, 0, 43, 25
3, 116160, Note_on_c, 0, 50, 30
3, 116259, Control_c, 0, 64, 127
3, 117120, Note_on_c, 0, 50, 0
3, 117120, Note_on_c, 0, 43, 0
3, 117120, Note_on_c, 0, 43, 27
3, 117120, Note_on_c, 0, 50, 32
3, 117184, Control_c, 0, 64, 0
3, 117296, Control_c, 0, 64, 127
3, 117699, Control_c, 0, 64, 0
3, 117748, Control_c, 0, 64, 127
3, 118041, Control_c, 0, 64, 0
3, 118080, Note_on_c, 0, 50, 0
3, 118080, Note_on_c, 0, 43, 0
3, 118080, Note_on_c, 0, 43, 28
3, 118080, Note_on_c, 0, 50, 34
3, 118200, Control_c, 0, 64, 127
3, 118666, Control_c, 0, 64, 0
3, 118708, Control_c, 0, 64, 127
3, 119040, Note_on_c, 0, 50, 0
3, 119040, Note_on_c, 0, 43, 0
3, 119040, Note_on_c, 0, 50, 32
3, 119040, Note_on_c, 0, 43, 27
3, 119065, Control_c, 0, 64, 0
3, 119096, Control_c, 0, 64, 127
3, 119619, Control_c, 0, 64, 0
3, 119668, Control_c, 0, 64, 127
3, 119961, Control_c, 0, 64, 0
3, 120000, Note_on_c, 0, 43, 0
3, 120000, Note_on_c, 0, 50, 0
3, 120000, Note_on_c, 0, 50, 34
3, 120000, Note_on_c, 0, 43, 28
3, 120120, Control_c, 0, 64, 127
3, 120586, Control_c, 0, 64, 0
3, 120628, Control_c, 0, 64, 127
3, 120960, Note_on_c, 0, 43, 0
3, 120960, Note_on_c, 0, 50, 0
3, 120960, Note_on_c, 0, 43, 27
3, 120960, Note_on_c, 0, 50, 32
3, 120985, Control_c, 0, 64, 0
3, 121016, Control_c, 0, 64, 127
3, 121539, Control_c, 0, 64, 0
3, 121588, Control_c, 0, 64, 127
3, 121920, Note_on_c, 0, 50, 0
3, 121920, Note_on_c, 0, 43, 0
3, 121920, Control_c, 0, 64, 0
3, 121920, Note_on_c, 0, 43, 27
3, 121920, Note_on_c, 0, 50, 32
3, 122054, Control_c, 0, 64, 127
3, 122880, Note_on_c, 0, 50, 0
3, 122880, Note_on_c, 0, 43, 0
3, 122880, Note_on_c, 0, 43, 28
3, 122880, Note_on_c, 0, 50, 34
3, 122944, Control_c, 0, 64, 0
3, 123056, Control_c, 0, 64, 127
3, 123459, Control_c, 0, 64, 0
3, 123508, Control_c, 0, 64, 127
3, 123801, Control_c, 0, 64, 0
3, 123840, Note_on_c, 0, 50, 0
3, 123840, Note_on_c, 0, 43, 0
3, 123840, Note_on_c, 0, 43, 30
3, 123840, Note_on_c, 0, 50, 36
3, 123960, Control_c, 0, 64, 127
3, 124426, Control_c, 0, 64, 0
3, 124468, Control_c, 0, 64, 127
3, 124800, Note_on_c, 0, 50, 0
3, 124800, Note_on_c, 0, 43, 0
3, 124800, Note_on_c, 0, 52, 34
3, 124800, Note_on_c, 0, 43, 28
3, 124825, Control_c, 0, 64, 0
3, 124856, Control_c, 0, 64, 127
3, 125379, Control_c, 0, 64, 0
3, 125428, Control_c, 0, 64, 127
3, 125721, Control_c, 0, 64, 0
3, 125760, Note_on_c, 0, 43, 0
3, 125760, Note_on_c, 0, 52, 0
3, 125760, Note_on_c, 0, 43, 32
3, 125760, Note_on_c, 0, 52, 38
3, 125880, Control_c, 0, 64, 127
3, 126346, Control_c, 0, 64, 0
3, 126388, Control_c, 0, 64, 127
3, 126720, Note_on_c, 0, 52, 0
3, 126720, Note_on_c, 0, 43, 0
3, 126720, Note_on_c, 0, 50, 42
3, 126720, Note_on_c, 0, 43, 35
3, 126745, Control_c, 0, 64, 0
3, 126776, Control_c, 0, 64, 127
3, 127299, Control_c, 0, 64, 0
3, 127348, Control_c, 0, 64, 127
3, 127641, Control_c, 0, 64, 0
3, 127680, Note_on_c, 0, 43, 0
3, 127680, Note_on_c, 0, 50, 0
3, 127680, Note_on_c, 0, 43, 38
3, 127680, Note_on_c, 0, 50, 46
3, 127800, Control_c, 0, 64, 127
3, 128266, Control_c, 0, 64, 0
3, 128308, Control_c, 0, 64, 127
3, 128640, Note_on_c, 0, 50, 0
3, 128640, Note_on_c, 0, 43, 0
3, 128640, Note_on_c, 0, 50, 53
3, 128640, Note_on_c, 0, 43, 44
3, 128665, Control_c, 0, 64, 0
3, 128696, Control_c, 0, 64, 127
3, 129219, Control_c, 0, 64, 0
3, 129268, Control_c, 0, 64, 127
3, 129561, Control_c, 0, 64, 0
3, 129600, Note_on_c, 0, 43, 0
3, 129600, Note_on_c, 0, 50, 0
3, 129600, Note_on_c, 0, 43, 46
3, 129600, Note_on_c, 0, 50, 55
3, 129720, Control_c, 0, 64, 127
3, 130126, Control_c, 0, 64, 0
3, 130228, Control_c, 0, 64, 127
3, 130560, Note_on_c, 0, 50, 0
3, 130560, Note_on_c, 0, 43, 0
3, 130560, Note_on_c, 0, 43, 37
3, 130560, Note_on_c, 0, 50, 46
3, 130624, Control_c, 0, 64, 0
3, 130736, Control_c, 0, 64, 127
3, 131139, Control_c, 0, 64, 0
3, 131188, Control_c, 0, 64, 127
3, 131481, Control_c, 0, 64, 0
3, 131520, Note_on_c, 0, 50, 0
3, 131520, Note_on_c, 0, 43, 0
3, 131520, Note_on_c, 0, 43, 40
3, 131520, Note_on_c, 0, 50, 48
3, 131640, Control_c, 0, 64, 127
3, 132106, Control_c, 0, 64, 0
3, 132148, Control_c, 0, 64, 127
3, 132480, Note_on_c, 0, 50, 0
3, 132480, Note_on_c, 0, 43, 0
3, 132480, Note_on_c, 0, 52, 46
3, 132480, Note_on_c, 0, 43, 37
3, 132505, Control_c, 0, 64, 0
3, 132536, Control_c, 0, 64, 127
3, 133059, Control_c, 0, 64, 0
3, 133108, Control_c, 0, 64, 127
3, 133401, Control_c, 0, 64, 0
3, 133440, Note_on_c, 0, 43, 0
3, 133440, Note_on_c, 0, 52, 0
3, 133440, Note_on_c, 0, 43, 43
3, 133440, Note_on_c, 0, 52, 52
3, 133560, Control_c, 0, 64, 127
3, 134026, Control_c, 0, 64, 0
3, 134068, Control_c, 0, 64, 127
3, 134400, Note_on_c, 0, 52, 0
3, 134400, Note_on_c, 0, 43, 0
3, 134400, Note_on_c, 0, 50, 48
3, 134400, Note_on_c, 0, 43, 40
3, 134425, Control_c, 0, 64, 0
3, 134456, Control_c, 0, 64, 127
3, 134979, Control_c, 0, 64, 0
3, 135028, Control_c, 0, 64, 127
3, 135321, Control_c, 0, 64, 0
3, 135360, Note_on_c, 0, 43, 0
3, 135360, Note_on_c, 0, 50, 0
3, 135360, Note_on_c, 0, 43, 44
3, 135360, Note_on_c, 0, 50, 53
3, 135480, Control_c, 0, 64, 127
3, 135946, Control_c, 0, 64, 0
3, 135988, Control_c, 0, 64, 127
3, 136320, Note_on_c, 0, 50, 0
3, 136320, Note_on_c, 0, 43, 0
3, 136320, Note_on_c, 0, 50, 54
3, 136320, Note_on_c, 0, 43, 45
3, 136345, Control_c, 0, 64, 0
3, 136376, Control_c, 0, 64, 127
3, 136899, Control_c, 0, 64, 0
3, 136948, Control_c, 0, 64, 127
3, 137241, Control_c, 0, 64, 0
3, 137280, Note_on_c, 0, 43, 0
3, 137280, Note_on_c, 0, 50, 0
3, 137280, Note_on_c, 0, 43, 48
3, 137280, Note_on_c, 0, 50, 55
3, 137400, Control_c, 0, 64, 127
3, 137806, Control_c, 0, 64, 0
3, 137908, Control_c, 0, 64, 127
3, 138194, Control_c, 0, 64, 0
3, 138240, Note_on_c, 0, 50, 0
3, 138240, Note_on_c, 0, 43, 0
3, 138240, Note_on_c, 0, 43, 39
3, 138240, Note_on_c, 0, 50, 47
3, 138311, Control_c, 0, 64, 127
3, 138734, Control_c, 0, 64, 0
3, 138791, Control_c, 0, 64, 127
3, 139200, Note_on_c, 0, 50, 0
3, 139200, Note_on_c, 0, 43, 0
3, 139200, Control_c, 0, 64, 0
3, 139200, Note_on_c, 0, 43, 47
3, 139320, Control_c, 0, 64, 127
3, 139440, Note_on_c, 0, 43, 0
3, 139440, Note_on_c, 0, 43, 40
3, 139560, Note_on_c, 0, 43, 0
3, 139560, Note_on_c, 0, 50, 40
3, 139680, Note_on_c, 0, 50, 0
3, 139680, Note_on_c, 0, 43, 47
3, 139708, Control_c, 0, 64, 0
3, 139765, Control_c, 0, 64, 127
3, 139920, Note_on_c, 0, 43, 0
3, 139920, Note_on_c, 0, 38, 41
3, 140160, Note_on_c, 0, 38, 0
3, 140160, Control_c, 0, 64, 0
3, 140160, Note_on_c, 0, 43, 39
3, 140160, Note_on_c, 0, 50, 47
3, 140231, Control_c, 0, 64, 127
3, 140654, Control_c, 0, 64, 0
3, 140711, Control_c, 0, 64, 127
3, 141120, Note_on_c, 0, 50, 0
3, 141120, Note_on_c, 0, 43, 0
3, 141120, Control_c, 0, 64, 0
3, 141120, Note_on_c, 0, 43, 47
3, 141240, Control_c, 0, 64, 127
3, 141360, Note_on_c, 0, 43, 0
3, 141360, Note_on_c, 0, 43, 40
3, 141480, Note_on_c, 0, 43, 0
3, 141480, Note_on_c, 0, 50, 40
3, 141600, Note_on_c, 0, 50, 0
3, 141600, Note_on_c, 0, 43, 40
3, 141600, Note_on_c, 0, 55, 47
3, 141628, Control_c, 0, 64, 0
3, 141685, Control_c, 0, 64, 127
3, 141840, Note_on_c, 0, 55, 0
3, 141840, Note_on_c, 0, 43, 0
3, 141840, Note_on_c, 0, 38, 39
3, 142080, Note_on_c, 0, 38, 0
3, 142080, Control_c, 0, 64, 0
3, 142080, Note_on_c, 0, 43, 32
3, 142080, Note_on_c, 0, 50, 38
3, 142151, Control_c, 0, 64, 127
3, 142574, Control_c, 0, 64, 0
3, 142631, Control_c, 0, 64, 127
3, 143040, Note_on_c, 0, 50, 0
3, 143040, Note_on_c, 0, 43, 0
3, 143040, Control_c, 0, 64, 0
3, 143040, Note_on_c, 0, 43, 38
3, 143160, Control_c, 0, 64, 127
3, 143280, Note_on_c, 0, 43, 0
3, 143280, Note_on_c, 0, 43, 33
3, 143400, Note_on_c, 0, 43, 0
3, 143400, Note_on_c, 0, 50, 33
3, 143520, Note_on_c, 0, 50, 0
3, 143520, Note_on_c, 0, 43, 38
3, 143548, Control_c, 0, 64, 0
3, 143605, Control_c, 0, 64, 127
3, 143760, Note_on_c, 0, 43, 0
3, 143760, Note_on_c, 0, 38, 33
3, 144000, Note_on_c, 0, 38, 0
3, 144000, Control_c, 0, 64, 0
3, 144000, Note_on_c, 0, 43, 30
3, 144000, Note_on_c, 0, 50, 36
3, 144071, Control_c, 0, 64, 127
3, 144494, Control_c, 0, 64, 0
3, 144551, Control_c, 0, 64, 127
3, 144960, Note_on_c, 0, 50, 0
3, 144960, Note_on_c, 0, 43, 0
3, 144960, Control_c, 0, 64, 0
3, 144960, Note_on_c, 0, 43, 36
3, 145080, Control_c, 0, 64, 127
3, 145200, Note_on_c, 0, 43, 0
3, 145200, Note_on_c, 0, 43, 31
3, 145320, Note_on_c, 0, 43, 0
3, 145320, Note_on_c, 0, 50, 31
3, 145440, Note_on_c, 0, 50, 0
3, 145440, Note_on_c, 0, 43, 31
3, 145468, Control_c, 0, 64, 0
3, 145525, Control_c, 0, 64, 127
3, 145680, Note_on_c, 0, 43, 0
3, 145680, Note_on_c, 0, 38, 29
3, 145920, Note_on_c, 0, 38, 0
3, 145920, Note_on_c, 0, 43, 30
3, 145920, Note_on_c, 0, 50, 36
3, 145991, Control_c, 0, 64, 0
3, 146089, Control_c, 0, 64, 127
3, 146414, Control_c, 0, 64, 0
3, 146499, Control_c, 0, 64, 127
3, 146880, Note_on_c, 0, 50, 0
3, 146880, Note_on_c, 0, 43, 0
3, 146880, Control_c, 0, 64, 0
3, 146880, Note_on_c, 0, 43, 24
3, 146880, Note_on_c, 0, 50, 28
3, 147040, Control_c, 0, 64, 127
3, 147840, Note_on_c, 0, 50, 0
3, 147840, Note_on_c, 0, 43, 0
3, 147840, Note_on_c, 0, 43, 24
3, 147840, Note_on_c, 0, 50, 28
3, 148800, Note_on_c, 0, 59, 33
3, 148800, Note_on_c, 0, 62, 39
3, 149280, Note_on_c, 0, 62, 0
3, 149280, Note_on_c, 0, 43, 0
3, 149280, Note_on_c, 0, 50, 0
3, 149280, Note_on_c, 0, 59, 0
3, 149308, Control_c, 0, 64, 0
3, 149922, Control_c, 0, 64, 127
3, 150240, Note_on_c, 0, 38, 24
3, 150318, Control_c, 0, 64, 0
3, 150388, Control_c, 0, 64, 127
3, 150720, Note_on_c, 0, 38, 0
3, 150720, Control_c, 0, 64, 0
3, 150720, Note_on_c, 0, 43, 26
3, 150720, Note_on_c, 0, 50, 31
3, 150904, Control_c, 0, 64, 127
3, 151680, Note_on_c, 0, 50, 0
3, 151680, Note_on_c, 0, 43, 0
3, 151680, Note_on_c, 0, 43, 22
3, 151680, Note_on_c, 0, 50, 27
3, 151779, Control_c, 0, 64, 0
3, 151892, Control_c, 0, 64, 127
3, 152640, Note_on_c, 0, 50, 0
3, 152640, Note_on_c, 0, 43, 0
3, 152640, Control_c, 0, 64, 0
3, 152640, Note_on_c, 0, 43, 23
3, 152640, Note_on_c, 0, 50, 28
3, 152781, Control_c, 0, 64, 127
3, 153600, Note_on_c, 0, 50, 0
3, 153600, Note_on_c, 0, 43, 0
3, 153600, Note_on_c, 0, 43, 22
3, 153600, Note_on_c, 0, 50, 26
3, 153621, Control_c, 0, 64, 0
3, 153664, Control_c, 0, 64, 127
3, 154560, Note_on_c, 0, 50, 0
3, 154560, Note_on_c, 0, 43, 0
3, 154560, Note_on_c, 0, 50, 34
3, 154560, Note_on_c, 0, 43, 28
3, 154624, Control_c, 0, 64, 0
3, 154736, Control_c, 0, 64, 127
3, 155139, Control_c, 0, 64, 0
3, 155188, Control_c, 0, 64, 127
3, 155481, Control_c, 0, 64, 0
3, 155520, Note_on_c, 0, 43, 0
3, 155520, Note_on_c, 0, 50, 0
3, 155520, Note_on_c, 0, 43, 30
3, 155520, Note_on_c, 0, 50, 36
3, 155640, Control_c, 0, 64, 127
3, 156106, Control_c, 0, 64, 0
3, 156148, Control_c, 0, 64, 127
3, 156480, Note_on_c, 0, 50, 0
3, 156480, Note_on_c, 0, 43, 0
3, 156480, Note_on_c, 0, 43, 28
3, 156480, Note_on_c, 0, 50, 34
3, 156505, Control_c, 0, 64, 0
3, 156536, Control_c, 0, 64, 127
3, 157059, Control_c, 0, 64, 0
3, 157108, Control_c, 0, 64, 127
3, 157401, Control_c, 0, 64, 0
3, 157440, Note_on_c, 0, 50, 0
3, 157440, Note_on_c, 0, 43, 0
3, 157440, Note_on_c, 0, 43, 30
3, 157440, Note_on_c, 0, 50, 36
3, 157560, Control_c, 0, 64, 127
3, 158026, Control_c, 0, 64, 0
3, 158068, Control_c, 0, 64, 127
3, 158400, Note_on_c, 0, 50, 0
3, 158400, Note_on_c, 0, 43, 0
3, 158400, Note_on_c, 0, 43, 28
3, 158400, Note_on_c, 0, 50, 34
3, 158425, Control_c, 0, 64, 0
3, 158456, Control_c, 0, 64, 127
3, 158979, Control_c, 0, 64, 0
3, 159028, Control_c, 0, 64, 127
3, 159360, Note_on_c, 0, 50, 0
3, 159360, Note_on_c, 0, 43, 0
3, 159360, Control_c, 0, 64, 0
3, 159360, Note_on_c, 0, 43, 28
3, 159360, Note_on_c, 0, 50, 34
3, 159459, Control_c, 0, 64, 127
3, 160320, Note_on_c, 0, 50, 0
3, 160320, Note_on_c, 0, 43, 0
3, 160320, Note_on_c, 0, 43, 28
3, 160320, Note_on_c, 0, 50, 34
3, 160384, Control_c, 0, 64, 0
3, 160496, Control_c, 0, 64, 127
3, 160899, Control_c, 0, 64, 0
3, 160948, Control_c, 0, 64, 127
3, 161241, Control_c, 0, 64, 0
3, 161280, Note_on_c, 0, 50, 0
3, 161280, Note_on_c, 0, 43, 0
3, 161280, Note_on_c, 0, 43, 30
3, 161280, Note_on_c, 0, 50, 36
3, 161400, Control_c, 0, 64, 127
3, 161866, Control_c, 0, 64, 0
3, 161908, Control_c, 0, 64, 127
3, 162240, Note_on_c, 0, 50, 0
3, 162240, Note_on_c, 0, 43, 0
3, 162240, Note_on_c, 0, 52, 34
3, 162240, Note_on_c, 0, 43, 28
3, 162265, Control_c, 0, 64, 0
3, 162296, Control_c, 0, 64, 127
3, 162819, Control_c, 0, 64, 0
3, 162868, Control_c, 0, 64, 127
3, 163161, Control_c, 0, 64, 0
3, 163200, Note_on_c, 0, 43, 0
3, 163200, Note_on_c, 0, 52, 0
3, 163200, Note_on_c, 0, 43, 32
3, 163200, Note_on_c, 0, 52, 39
3, 163320, Control_c, 0, 64, 127
3, 163786, Control_c, 0, 64, 0
3, 163828, Control_c, 0, 64, 127
3, 164160, Note_on_c, 0, 52, 0
3, 164160, Note_on_c, 0, 43, 0
3, 164160, Note_on_c, 0, 50, 37
3, 164160, Note_on_c, 0, 43, 31
3, 164185, Control_c, 0, 64, 0
3, 164216, Control_c, 0, 64, 127
3, 164739, Control_c, 0, 64, 0
3, 164788, Control_c, 0, 64, 127
3, 165081, Control_c, 0, 64, 0
3, 165120, Note_on_c, 0, 43, 0
3, 165120, Note_on_c, 0, 50, 0
3, 165120, Note_on_c, 0, 43, 34
3, 165120, Note_on_c, 0, 50, 41
3, 165240, Control_c, 0, 64, 127
3, 165706, Control_c, 0, 64, 0
3, 165748, Control_c, 0, 64, 127
3, 166080, Note_on_c, 0, 50, 0
3, 166080, Note_on_c, 0, 43, 0
3, 166080, Note_on_c, 0, 50, 42
3, 166080, Note_on_c, 0, 43, 35
3, 166105, Control_c, 0, 64, 0
3, 166136, Control_c, 0, 64, 127
3, 166659, Control_c, 0, 64, 0
3, 166708, Control_c, 0, 64, 127
3, 167001, Control_c, 0, 64, 0
3, 167040, Note_on_c, 0, 43, 0
3, 167040, Note_on_c, 0, 50, 0
3, 167040, Note_on_c, 0, 43, 37
3, 167040, Note_on_c, 0, 50, 43
3, 167160, Control_c, 0, 64, 127
3, 167566, Control_c, 0, 64, 0
3, 167668, Control_c, 0, 64, 127
3, 167954, Control_c, 0, 64, 0
3, 168000, Note_on_c, 0, 50, 0
3, 168000, Note_on_c, 0, 43, 0
3, 168000, Note_on_c, 0, 43, 32
3, 168000, Note_on_c, 0, 50, 38
3, 168071, Control_c, 0, 64, 127
3, 168494, Control_c, 0, 64, 0
3, 168551, Control_c, 0, 64, 127
3, 168960, Note_on_c, 0, 50, 0
3, 168960, Note_on_c, 0, 43, 0
3, 168960, Control_c, 0, 64, 0
3, 168960, Note_on_c, 0, 43, 38
3, 169080, Control_c, 0, 64, 127
3, 169200, Note_on_c, 0, 43, 0
3, 169200, Note_on_c, 0, 43, 33
3, 169320, Note_on_c, 0, 43, 0
3, 169320, Note_on_c, 0, 50, 33
3, 169440, Note_on_c, 0, 50, 0
3, 169440, Note_on_c, 0, 43, 38
3, 169468, Control_c, 0, 64, 0
3, 169525, Control_c, 0, 64, 127
3, 169680, Note_on_c, 0, 43, 0
3, 169680, Note_on_c, 0, 38, 34
3, 169920, Note_on_c, 0, 38, 0
3, 169920, Control_c, 0, 64, 0
3, 169920, Note_on_c, 0, 43, 32
3, 169920, Note_on_c, 0, 50, 38
3, 169991, Control_c, 0, 64, 127
3, 170414, Control_c, 0, 64, 0
3, 170471, Control_c, 0, 64, 127
3, 170880, Note_on_c, 0, 50, 0
3, 170880, Note_on_c, 0, 43, 0
3, 170880, Control_c, 0, 64, 0
3, 170880, Note_on_c, 0, 43, 38
3, 171000, Control_c, 0, 64, 127
3, 171120, Note_on_c, 0, 43, 0
3, 171120, Note_on_c, 0, 43, 33
3, 171240, Note_on_c, 0, 43, 0
3, 171240, Note_on_c, 0, 50, 33
3, 171360, Note_on_c, 0, 50, 0
3, 171360, Note_on_c, 0, 43, 33
3, 171388, Control_c, 0, 64, 0
3, 171445, Control_c, 0, 64, 127
3, 171600, Note_on_c, 0, 43, 0
3, 171600, Note_on_c, 0, 38, 32
3, 171840, Note_on_c, 0, 38, 0
3, 171840, Control_c, 0, 64, 0
3, 171840, Note_on_c, 0, 43, 32
3, 171840, Note_on_c, 0, 50, 38
3, 171911, Control_c, 0, 64, 127
3, 172334, Control_c, 0, 64, 0
3, 172391, Control_c, 0, 64, 127
3, 172800, Note_on_c, 0, 50, 0
3, 172800, Note_on_c, 0, 43, 0
3, 172800, Control_c, 0, 64, 0
3, 172800, Note_on_c, 0, 43, 38
3, 172920, Control_c, 0, 64, 127
3, 173040, Note_on_c, 0, 43, 0
3, 173040, Note_on_c, 0, 43, 33
3, 173160, Note_on_c, 0, 43, 0
3, 173160, Note_on_c, 0, 50, 33
3, 173280, Note_on_c, 0, 50, 0
3, 173280, Note_on_c, 0, 43, 38
3, 173308, Control_c, 0, 64, 0
3, 173365, Control_c, 0, 64, 127
3, 173520, Note_on_c, 0, 43, 0
3, 173520, Note_on_c, 0, 38, 33
3, 173760, Note_on_c, 0, 38, 0
3, 173760, Control_c, 0, 64, 0
3, 173760, Note_on_c, 0, 43, 30
3, 173760, Note_on_c, 0, 50, 36
3, 173831, Control_c, 0, 64, 127
3, 174254, Control_c, 0, 64, 0
3, 174311, Control_c, 0, 64, 127
3, 174720, Note_on_c, 0, 50, 0
3, 174720, Note_on_c, 0, 43, 0
3, 174720, Control_c, 0, 64, 0
3, 174720, Note_on_c, 0, 43, 36
3, 174840, Control_c, 0, 64, 127
3, 174960, Note_on_c, 0, 43, 0
3, 174960, Note_on_c, 0, 43, 31
3, 175080, Note_on_c, 0, 43, 0
3, 175080, Note_on_c, 0, 50, 31
3, 175200, Note_on_c, 0, 50, 0
3, 175200, Note_on_c, 0, 43, 31
3, 175228, Control_c, 0, 64, 0
3, 175285, Control_c, 0, 64, 127
3, 175440, Note_on_c, 0, 43, 0
3, 175440, Note_on_c, 0, 38, 29
3, 175680, Note_on_c, 0, 38, 0
3, 175680, Note_on_c, 0, 43, 30
3, 175680, Note_on_c, 0, 50, 36
3, 175751, Control_c, 0, 64, 0
3, 175849, Control_c, 0, 64, 127
3, 176174, Control_c, 0, 64, 0
3, 176259, Control_c, 0, 64, 127
3, 176640, Note_on_c, 0, 50, 0
3, 176640, Note_on_c, 0, 43, 0
3, 176640, Control_c, 0, 64, 0
3, 176640, Note_on_c, 0, 43, 24
3, 176640, Note_on_c, 0, 50, 28
3, 176800, Control_c, 0, 64, 127
3, 177600, Note_on_c, 0, 50, 0
3, 177600, Note_on_c, 0, 43, 0
3, 177600, Note_on_c, 0, 43, 24
3, 177600, Note_on_c, 0, 50, 28
3, 178560, Note_on_c, 0, 59, 33
3, 178560, Note_on_c, 0, 62, 39
3, 179040, Note_on_c, 0, 62, 0
3, 179040, Note_on_c, 0, 43, 0
3, 179040, Note_on_c, 0, 50, 0
3, 179040, Note_on_c, 0, 59, 0
3, 179068, Control_c, 0, 64, 0
3, 179682, Control_c, 0, 64, 127
3, 180000, Note_on_c, 0, 38, 24
3, 180078, Control_c, 0, 64, 0
3, 180148, Control_c, 0, 64, 127
3, 180480, Note_on_c, 0, 38, 0
3, 180480, Control_c, 0, 64, 0
3, 180480, Note_on_c, 0, 43, 23
3, 180480, Note_on_c, 0, 50, 27
3, 180649, Control_c, 0, 64, 127
3, 181440, Note_on_c, 0, 50, 0
3, 181440, Note_on_c, 0, 43, 0
3, 181440, Control_c, 0, 64, 0
3, 181440, Note_on_c, 0, 43, 19
3, 181440, Note_on_c, 0, 50, 28
3, 181581, Control_c, 0, 64, 127
3, 182400, Note_on_c, 0, 50, 0
3, 182400, Note_on_c, 0, 43, 0
3, 182400, Control_c, 0, 64, 0
3, 182400, Note_on_c, 0, 43, 22
3, 182400, Note_on_c, 0, 50, 27
3, 182541, Control_c, 0, 64, 127
3, 183360, Note_on_c, 0, 50, 0
3, 183360, Note_on_c, 0, 43, 0
3, 183360, Note_on_c, 0, 43, 19
3, 183360, Note_on_c, 0, 50, 27
3, 183381, Control_c, 0, 64, 0
3, 183424, Control_c, 0, 64, 127
3, 184320, Note_on_c, 0, 50, 0
3, 184320, Note_on_c, 0, 43, 0
3, 184320, Note_on_c, 0, 43, 17
3, 184320, Note_on_c, 0, 50, 24
3, 185920, Control_c, 0, 64, 0
3, 186240, Note_on_c, 0, 50, 0
3, 186240, Note_on_c, 0, 43, 0
3, 186240, End_track
4, 0, Start_track
4, 0, MIDI_port, 0
4, 0, Title_t, "Granados: Danza Espanola No. 4"
4, 0, End_track
5, 0, Start_track
5, 0, MIDI_port, 0
5, 0, Title_t, "Copyright © 2001 by Bernd Krüger"
5, 0, End_track
6, 0, Start_track
6, 0, MIDI_port, 0
6, 0, Title_t, "email: bernd.krueger@piano-midi.de"
6, 0, End_track
7, 0, Start_track
7, 0, MIDI_port, 0
7, 0, Title_t, "http://www.piano-midi.de"
7, 0, End_track
8, 0, Start_track
8, 0, MIDI_port, 0
8, 0, Title_t, "Edition: 30.8.01"
8, 0, End_track
9, 0, Start_track
9, 0, MIDI_port, 0
9, 0, End_track
10, 0, Start_track
10, 0, MIDI_port, 0
10, 0, End_track
0, 0, End_of_file
