0, 0, Header, 1, 7, 480
1, 0, Start_track
1, 0, Title_t, "Vöglein Op 43, No. 4"
1, 0, Copyright_t, "Copyright © 1998 by Krüger http://www.piano-midi.de"
1, 0, Text_t, "Edvard Grieg"
1, 0, Text_t, "Allegro leggiore"
1, 0, Text_t, "Fertiggestellt am 16.3.98\012"
1, 0, Text_t, "Korrekturen am 4.9.98\012"
1, 0, Text_t, "Anpassungen an Digitalpiano am 28.12.98\012"
1, 0, Text_t, "Update am 19.8.99\012"
1, 0, Text_t, "Normierung: 23.12.2002\012"
1, 0, Text_t, "Update: 27.4.2007 (Umstellung auf cwp)\012"
1, 0, Text_t, "Update: 6.11.2012\012"
1, 0, Text_t, "Dauer: 1:37 Minuten\012"
1, 0, SMPTE_offset, 96, 0, 3, 0, 0
1, 0, Time_signature, 6, 3, 12, 8
1, 0, Key_signature, -1, "major"
1, 0, Tempo, 340522
1, 0, Marker_t, "Little Bird"
1, 1200, Tempo, 445005
1, 1440, Tempo, 536241
1, 1920, Tempo, 594059
1, 2640, Tempo, 458295
1, 2880, Tempo, 536241
1, 3360, Tempo, 612245
1, 4080, Tempo, 450620
1, 4320, Tempo, 460264
1, 4800, Tempo, 448732
1, 5040, Tempo, 458295
1, 5520, Tempo, 450620
1, 5760, Tempo, 536241
1, 6240, Tempo, 585366
1, 6960, Tempo, 487488
1, 7200, Tempo, 536241
1, 7680, Tempo, 549954
1, 8400, Tempo, 496483
1, 8640, Tempo, 549954
1, 9120, Tempo, 592534
1, 9720, Tempo, 356295
1, 9840, Tempo, 466273
1, 10060, Tempo, 549954
1, 10420, Tempo, 430694
1, 10440, Tempo, 358680
1, 10560, Tempo, 466273
1, 10800, Tempo, 549954
1, 11160, Tempo, 358680
1, 11280, Tempo, 470367
1, 11520, Tempo, 518090
1, 12000, Tempo, 570451
1, 12720, Tempo, 445005
1, 12960, Tempo, 536241
1, 13440, Tempo, 591133
1, 14160, Tempo, 458295
1, 14400, Tempo, 536241
1, 14880, Tempo, 609137
1, 15600, Tempo, 450620
1, 15840, Tempo, 460264
1, 16320, Tempo, 448732
1, 16560, Tempo, 458295
1, 17040, Tempo, 450620
1, 17280, Tempo, 536241
1, 17760, Tempo, 576923
1, 18480, Tempo, 487488
1, 18720, Tempo, 536241
1, 19200, Tempo, 549954
1, 19920, Tempo, 496483
1, 20160, Tempo, 549954
1, 20640, Tempo, 606061
1, 21240, Tempo, 356295
1, 21360, Tempo, 466273
1, 21580, Tempo, 549954
1, 21940, Tempo, 430694
1, 21960, Tempo, 358680
1, 22080, Tempo, 466273
1, 22320, Tempo, 549954
1, 22680, Tempo, 358680
1, 22800, Tempo, 470367
1, 23040, Tempo, 494193
1, 23520, Tempo, 570451
1, 24000, Tempo, 638298
1, 24240, Tempo, 502092
1, 24480, Tempo, 638298
1, 24720, Tempo, 456274
1, 25200, Tempo, 474308
1, 25680, Tempo, 502092
1, 25920, Tempo, 634921
1, 26160, Tempo, 459770
1, 26640, Tempo, 472441
1, 27120, Tempo, 502092
1, 27360, Tempo, 465116
1, 27840, Tempo, 497925
1, 28080, Tempo, 465116
1, 28560, Tempo, 493827
1, 28800, Tempo, 465694
1, 29520, Tempo, 487805
1, 29760, Tempo, 461538
1, 30240, Tempo, 483871
1, 30720, Tempo, 382482
1, 31440, Tempo, 388400
1, 32160, Tempo, 402685
1, 32640, Tempo, 419580
1, 32880, Tempo, 433213
1, 33600, Tempo, 442804
1, 34320, Tempo, 452830
1, 34680, Tempo, 478088
1, 35040, Tempo, 606061
1, 35280, Tempo, 483637
1, 35760, Tempo, 402685
1, 36480, Tempo, 547945
1, 36720, Tempo, 466926
1, 37200, Tempo, 404040
1, 37880, Tempo, 429892
1, 37920, Tempo, 558140
1, 38160, Tempo, 441176
1, 38640, Tempo, 383951
1, 40080, Tempo, 402361
1, 40800, Tempo, 636672
1, 41520, Tempo, 500000
1, 41580, Tempo, 450450
1, 41760, Tempo, 537875
1, 42240, Tempo, 579710
1, 42960, Tempo, 448531
1, 43200, Tempo, 540541
1, 43680, Tempo, 579710
1, 44400, Tempo, 446694
1, 44640, Tempo, 458050
1, 45120, Tempo, 444840
1, 45360, Tempo, 458050
1, 45840, Tempo, 444840
1, 46080, Tempo, 476228
1, 46560, Tempo, 491360
1, 47280, Tempo, 450450
1, 47520, Tempo, 540541
1, 48000, Tempo, 571973
1, 48480, Tempo, 502092
1, 48720, Tempo, 452318
1, 48960, Tempo, 554324
1, 49440, Tempo, 615385
1, 49680, Tempo, 526316
1, 50040, Tempo, 359109
1, 50160, Tempo, 435888
1, 50380, Tempo, 554324
1, 50400, Tempo, 514801
1, 50740, Tempo, 434153
1, 50760, Tempo, 361511
1, 50880, Tempo, 443033
1, 51120, Tempo, 509901
1, 51480, Tempo, 361511
1, 51600, Tempo, 446694
1, 51840, Tempo, 463965
1, 52320, Tempo, 574988
1, 52641, Tempo, 638298
1, 53040, Tempo, 497925
1, 53280, Tempo, 638298
1, 53520, Tempo, 456274
1, 54000, Tempo, 474308
1, 54480, Tempo, 502092
1, 54720, Tempo, 634921
1, 54960, Tempo, 459770
1, 55440, Tempo, 472441
1, 55920, Tempo, 502092
1, 56160, Tempo, 465116
1, 56640, Tempo, 497925
1, 56880, Tempo, 465116
1, 57360, Tempo, 493827
1, 57600, Tempo, 465694
1, 58320, Tempo, 487805
1, 58560, Tempo, 461538
1, 59040, Tempo, 483871
1, 59520, Tempo, 382482
1, 60240, Tempo, 388400
1, 60960, Tempo, 402685
1, 61440, Tempo, 419580
1, 61680, Tempo, 433213
1, 62400, Tempo, 442804
1, 63120, Tempo, 452830
1, 63480, Tempo, 478088
1, 63840, Tempo, 606061
1, 64080, Tempo, 483637
1, 64560, Tempo, 402685
1, 65280, Tempo, 547945
1, 65520, Tempo, 466926
1, 66000, Tempo, 404040
1, 66680, Tempo, 429892
1, 66720, Tempo, 558140
1, 66960, Tempo, 441176
1, 67440, Tempo, 383951
1, 68880, Tempo, 402361
1, 69600, Tempo, 636672
1, 70320, Tempo, 500000
1, 70380, Tempo, 450450
1, 70560, Tempo, 537875
1, 71040, Tempo, 579710
1, 71760, Tempo, 448531
1, 72000, Tempo, 540541
1, 72480, Tempo, 585366
1, 73200, Tempo, 446694
1, 73440, Tempo, 458050
1, 73920, Tempo, 444840
1, 74160, Tempo, 458050
1, 74640, Tempo, 444840
1, 74880, Tempo, 476228
1, 75360, Tempo, 491360
1, 76080, Tempo, 450450
1, 76320, Tempo, 540541
1, 76800, Tempo, 571973
1, 77040, Tempo, 517241
1, 77280, Tempo, 512821
1, 77520, Tempo, 452318
1, 77760, Tempo, 554324
1, 78240, Tempo, 597253
1, 78480, Tempo, 526316
1, 78840, Tempo, 359109
1, 78960, Tempo, 435888
1, 79180, Tempo, 554324
1, 79200, Tempo, 514801
1, 79540, Tempo, 434153
1, 79560, Tempo, 361511
1, 79680, Tempo, 443033
1, 79920, Tempo, 509901
1, 80280, Tempo, 361511
1, 80400, Tempo, 446694
1, 80640, Tempo, 463965
1, 81120, Tempo, 574988
1, 81441, Tempo, 638298
1, 81840, Tempo, 502092
1, 82080, Tempo, 638298
1, 82320, Tempo, 456274
1, 82800, Tempo, 474308
1, 83280, Tempo, 502092
1, 83520, Tempo, 634921
1, 83760, Tempo, 459770
1, 84240, Tempo, 472441
1, 84720, Tempo, 502092
1, 84960, Tempo, 451128
1, 85440, Tempo, 470588
1, 85680, Tempo, 449438
1, 86160, Tempo, 468750
1, 86640, Tempo, 449438
1, 87120, Tempo, 441176
1, 87360, Tempo, 449438
1, 88080, Tempo, 433589
1, 88800, Tempo, 439239
1, 90240, Tempo, 481309
1, 90480, Tempo, 505476
1, 90720, Tempo, 521739
1, 91440, Tempo, 612245
1, 92448, Marker_t, "Fine"
1, 92448, End_track
2, 0, Start_track
2, 0, Title_t, "Piano right"
2, 0, Program_c, 0, 0
2, 0, Control_c, 0, 7, 100
2, 0, Control_c, 0, 10, 64
2, 0, Control_c, 0, 91, 127
2, 0, Text_t, "bdca426d104a26ac9dcb070447587523"
2, 1196, Control_c, 0, 91, 127
2, 1200, Note_on_c, 0, 81, 43
2, 1260, Note_on_c, 0, 81, 0
2, 1260, Note_on_c, 0, 82, 38
2, 1320, Note_on_c, 0, 82, 0
2, 1320, Note_on_c, 0, 81, 43
2, 1380, Note_on_c, 0, 81, 0
2, 1380, Note_on_c, 0, 82, 39
2, 1440, Note_on_c, 0, 82, 0
2, 1440, Note_on_c, 0, 81, 49
2, 1560, Note_on_c, 0, 81, 0
2, 2640, Note_on_c, 0, 86, 44
2, 2700, Note_on_c, 0, 86, 0
2, 2700, Note_on_c, 0, 88, 40
2, 2760, Note_on_c, 0, 88, 0
2, 2760, Note_on_c, 0, 86, 44
2, 2820, Note_on_c, 0, 86, 0
2, 2820, Note_on_c, 0, 88, 42
2, 2880, Note_on_c, 0, 88, 0
2, 2880, Note_on_c, 0, 86, 50
2, 3000, Note_on_c, 0, 86, 0
2, 4080, Note_on_c, 0, 81, 49
2, 4140, Note_on_c, 0, 81, 0
2, 4140, Note_on_c, 0, 82, 44
2, 4200, Note_on_c, 0, 82, 0
2, 4200, Note_on_c, 0, 81, 49
2, 4260, Note_on_c, 0, 81, 0
2, 4260, Note_on_c, 0, 82, 44
2, 4320, Note_on_c, 0, 82, 0
2, 4320, Note_on_c, 0, 81, 52
2, 4440, Note_on_c, 0, 81, 0
2, 4800, Note_on_c, 0, 77, 48
2, 4860, Note_on_c, 0, 77, 0
2, 4860, Note_on_c, 0, 79, 45
2, 4920, Note_on_c, 0, 79, 0
2, 4920, Note_on_c, 0, 77, 48
2, 4980, Note_on_c, 0, 77, 0
2, 4980, Note_on_c, 0, 79, 45
2, 5040, Note_on_c, 0, 79, 0
2, 5040, Note_on_c, 0, 77, 56
2, 5160, Note_on_c, 0, 77, 0
2, 5520, Note_on_c, 0, 81, 49
2, 5580, Note_on_c, 0, 81, 0
2, 5580, Note_on_c, 0, 82, 44
2, 5640, Note_on_c, 0, 82, 0
2, 5640, Note_on_c, 0, 81, 49
2, 5700, Note_on_c, 0, 81, 0
2, 5700, Note_on_c, 0, 82, 44
2, 5760, Note_on_c, 0, 82, 0
2, 5760, Note_on_c, 0, 81, 54
2, 5880, Note_on_c, 0, 81, 0
2, 6960, Note_on_c, 0, 84, 48
2, 7020, Note_on_c, 0, 84, 0
2, 7020, Note_on_c, 0, 86, 45
2, 7080, Note_on_c, 0, 86, 0
2, 7080, Note_on_c, 0, 84, 48
2, 7140, Note_on_c, 0, 84, 0
2, 7140, Note_on_c, 0, 86, 45
2, 7200, Note_on_c, 0, 86, 0
2, 7200, Note_on_c, 0, 84, 68
2, 7320, Note_on_c, 0, 84, 0
2, 8400, Note_on_c, 0, 88, 48
2, 8460, Note_on_c, 0, 88, 0
2, 8460, Note_on_c, 0, 89, 44
2, 8520, Note_on_c, 0, 89, 0
2, 8520, Note_on_c, 0, 88, 48
2, 8580, Note_on_c, 0, 88, 0
2, 8580, Note_on_c, 0, 89, 45
2, 8640, Note_on_c, 0, 89, 0
2, 8640, Note_on_c, 0, 88, 67
2, 8760, Note_on_c, 0, 88, 0
2, 9720, Note_on_c, 0, 80, 54
2, 9840, Note_on_c, 0, 80, 0
2, 9840, Note_on_c, 0, 76, 54
2, 9960, Note_on_c, 0, 76, 0
2, 10080, Note_on_c, 0, 72, 49
2, 10080, Note_on_c, 0, 68, 49
2, 10320, Note_on_c, 0, 68, 0
2, 10320, Note_on_c, 0, 72, 0
2, 10440, Note_on_c, 0, 80, 54
2, 10560, Note_on_c, 0, 80, 0
2, 10560, Note_on_c, 0, 76, 54
2, 10680, Note_on_c, 0, 76, 0
2, 10800, Note_on_c, 0, 68, 50
2, 10800, Note_on_c, 0, 72, 50
2, 11040, Note_on_c, 0, 72, 0
2, 11040, Note_on_c, 0, 68, 0
2, 11160, Note_on_c, 0, 81, 54
2, 11280, Note_on_c, 0, 81, 0
2, 11280, Note_on_c, 0, 76, 54
2, 11400, Note_on_c, 0, 76, 0
2, 11520, Note_on_c, 0, 69, 56
2, 11760, Note_on_c, 0, 69, 0
2, 12000, Note_on_c, 0, 60, 55
2, 12000, Note_on_c, 0, 69, 55
2, 12240, Note_on_c, 0, 69, 0
2, 12240, Note_on_c, 0, 60, 0
2, 12240, Note_on_c, 0, 69, 55
2, 12240, Note_on_c, 0, 60, 55
2, 12480, Note_on_c, 0, 60, 0
2, 12480, Note_on_c, 0, 69, 0
2, 12720, Note_on_c, 0, 81, 43
2, 12780, Note_on_c, 0, 81, 0
2, 12780, Note_on_c, 0, 82, 38
2, 12840, Note_on_c, 0, 82, 0
2, 12840, Note_on_c, 0, 81, 43
2, 12900, Note_on_c, 0, 81, 0
2, 12900, Note_on_c, 0, 82, 39
2, 12960, Note_on_c, 0, 82, 0
2, 12960, Note_on_c, 0, 81, 49
2, 13080, Note_on_c, 0, 81, 0
2, 14160, Note_on_c, 0, 86, 44
2, 14220, Note_on_c, 0, 86, 0
2, 14220, Note_on_c, 0, 88, 40
2, 14280, Note_on_c, 0, 88, 0
2, 14280, Note_on_c, 0, 86, 44
2, 14340, Note_on_c, 0, 86, 0
2, 14340, Note_on_c, 0, 88, 42
2, 14400, Note_on_c, 0, 88, 0
2, 14400, Note_on_c, 0, 86, 50
2, 14520, Note_on_c, 0, 86, 0
2, 15600, Note_on_c, 0, 81, 49
2, 15660, Note_on_c, 0, 81, 0
2, 15660, Note_on_c, 0, 82, 44
2, 15720, Note_on_c, 0, 82, 0
2, 15720, Note_on_c, 0, 81, 49
2, 15780, Note_on_c, 0, 81, 0
2, 15780, Note_on_c, 0, 82, 44
2, 15840, Note_on_c, 0, 82, 0
2, 15840, Note_on_c, 0, 81, 52
2, 15960, Note_on_c, 0, 81, 0
2, 16320, Note_on_c, 0, 77, 48
2, 16380, Note_on_c, 0, 77, 0
2, 16380, Note_on_c, 0, 79, 45
2, 16440, Note_on_c, 0, 79, 0
2, 16440, Note_on_c, 0, 77, 48
2, 16500, Note_on_c, 0, 77, 0
2, 16500, Note_on_c, 0, 79, 45
2, 16560, Note_on_c, 0, 79, 0
2, 16560, Note_on_c, 0, 77, 56
2, 16680, Note_on_c, 0, 77, 0
2, 17040, Note_on_c, 0, 81, 49
2, 17100, Note_on_c, 0, 81, 0
2, 17100, Note_on_c, 0, 82, 44
2, 17160, Note_on_c, 0, 82, 0
2, 17160, Note_on_c, 0, 81, 49
2, 17220, Note_on_c, 0, 81, 0
2, 17220, Note_on_c, 0, 82, 44
2, 17280, Note_on_c, 0, 82, 0
2, 17280, Note_on_c, 0, 81, 54
2, 17400, Note_on_c, 0, 81, 0
2, 18480, Note_on_c, 0, 84, 48
2, 18540, Note_on_c, 0, 84, 0
2, 18540, Note_on_c, 0, 86, 45
2, 18600, Note_on_c, 0, 86, 0
2, 18600, Note_on_c, 0, 84, 48
2, 18660, Note_on_c, 0, 84, 0
2, 18660, Note_on_c, 0, 86, 45
2, 18720, Note_on_c, 0, 86, 0
2, 18720, Note_on_c, 0, 84, 68
2, 18840, Note_on_c, 0, 84, 0
2, 19920, Note_on_c, 0, 88, 48
2, 19980, Note_on_c, 0, 88, 0
2, 19980, Note_on_c, 0, 89, 44
2, 20040, Note_on_c, 0, 89, 0
2, 20040, Note_on_c, 0, 88, 48
2, 20100, Note_on_c, 0, 88, 0
2, 20100, Note_on_c, 0, 89, 45
2, 20160, Note_on_c, 0, 89, 0
2, 20160, Note_on_c, 0, 88, 67
2, 20280, Note_on_c, 0, 88, 0
2, 21240, Note_on_c, 0, 80, 54
2, 21360, Note_on_c, 0, 80, 0
2, 21360, Note_on_c, 0, 76, 54
2, 21480, Note_on_c, 0, 76, 0
2, 21600, Note_on_c, 0, 68, 49
2, 21600, Note_on_c, 0, 72, 49
2, 21840, Note_on_c, 0, 72, 0
2, 21840, Note_on_c, 0, 68, 0
2, 21960, Note_on_c, 0, 80, 54
2, 22080, Note_on_c, 0, 80, 0
2, 22080, Note_on_c, 0, 76, 54
2, 22200, Note_on_c, 0, 76, 0
2, 22320, Note_on_c, 0, 68, 50
2, 22320, Note_on_c, 0, 72, 50
2, 22560, Note_on_c, 0, 72, 0
2, 22560, Note_on_c, 0, 68, 0
2, 22680, Note_on_c, 0, 81, 54
2, 22800, Note_on_c, 0, 81, 0
2, 22800, Note_on_c, 0, 76, 54
2, 22920, Note_on_c, 0, 76, 0
2, 23040, Note_on_c, 0, 69, 56
2, 23280, Note_on_c, 0, 69, 0
2, 23520, Note_on_c, 0, 60, 57
2, 23520, Note_on_c, 0, 69, 57
2, 23760, Note_on_c, 0, 69, 0
2, 23760, Note_on_c, 0, 60, 0
2, 23760, Note_on_c, 0, 60, 57
2, 23760, Note_on_c, 0, 69, 57
2, 24000, Note_on_c, 0, 69, 0
2, 24000, Note_on_c, 0, 60, 0
2, 24840, Note_on_c, 0, 52, 40
2, 24840, Note_on_c, 0, 62, 40
2, 24960, Note_on_c, 0, 62, 0
2, 24960, Note_on_c, 0, 52, 0
2, 24960, Note_on_c, 0, 64, 43
2, 25080, Note_on_c, 0, 64, 0
2, 25200, Note_on_c, 0, 64, 49
2, 25200, Note_on_c, 0, 62, 49
2, 25200, Note_on_c, 0, 52, 49
2, 25920, Note_on_c, 0, 52, 0
2, 25920, Note_on_c, 0, 62, 0
2, 25920, Note_on_c, 0, 64, 0
2, 26280, Note_on_c, 0, 62, 40
2, 26280, Note_on_c, 0, 52, 40
2, 26400, Note_on_c, 0, 52, 0
2, 26400, Note_on_c, 0, 62, 0
2, 26400, Note_on_c, 0, 64, 45
2, 26520, Note_on_c, 0, 64, 0
2, 26640, Note_on_c, 0, 62, 48
2, 26640, Note_on_c, 0, 64, 48
2, 26640, Note_on_c, 0, 52, 48
2, 27360, Note_on_c, 0, 52, 0
2, 27360, Note_on_c, 0, 64, 0
2, 27360, Note_on_c, 0, 62, 0
2, 27840, Note_on_c, 0, 64, 40
2, 27840, Note_on_c, 0, 62, 40
2, 27840, Note_on_c, 0, 52, 40
2, 27960, Note_on_c, 0, 52, 0
2, 27960, Note_on_c, 0, 62, 0
2, 27960, Note_on_c, 0, 64, 0
2, 28560, Note_on_c, 0, 64, 40
2, 28560, Note_on_c, 0, 62, 40
2, 28560, Note_on_c, 0, 52, 40
2, 28680, Note_on_c, 0, 52, 0
2, 28680, Note_on_c, 0, 62, 0
2, 28680, Note_on_c, 0, 64, 0
2, 29160, Note_on_c, 0, 61, 48
2, 29160, Note_on_c, 0, 52, 48
2, 29280, Note_on_c, 0, 52, 0
2, 29280, Note_on_c, 0, 61, 0
2, 29280, Note_on_c, 0, 64, 48
2, 29400, Note_on_c, 0, 64, 0
2, 29520, Note_on_c, 0, 52, 48
2, 29520, Note_on_c, 0, 61, 48
2, 29520, Note_on_c, 0, 64, 48
2, 30240, Note_on_c, 0, 64, 0
2, 30240, Note_on_c, 0, 61, 0
2, 30240, Note_on_c, 0, 52, 0
2, 30240, Control_c, 0, 91, 127
2, 30720, Note_on_c, 0, 69, 76
2, 30780, Note_on_c, 0, 69, 0
2, 30780, Note_on_c, 0, 71, 69
2, 30840, Note_on_c, 0, 71, 0
2, 30840, Note_on_c, 0, 69, 69
2, 30900, Note_on_c, 0, 69, 0
2, 30900, Note_on_c, 0, 71, 69
2, 30960, Note_on_c, 0, 71, 0
2, 30960, Note_on_c, 0, 68, 68
2, 31080, Note_on_c, 0, 68, 0
2, 31440, Note_on_c, 0, 67, 73
2, 31500, Note_on_c, 0, 67, 0
2, 31500, Note_on_c, 0, 69, 67
2, 31560, Note_on_c, 0, 69, 0
2, 31560, Note_on_c, 0, 67, 67
2, 31620, Note_on_c, 0, 67, 0
2, 31620, Note_on_c, 0, 69, 67
2, 31680, Note_on_c, 0, 69, 0
2, 31680, Note_on_c, 0, 66, 67
2, 31800, Note_on_c, 0, 66, 0
2, 32160, Note_on_c, 0, 65, 70
2, 32220, Note_on_c, 0, 65, 0
2, 32220, Note_on_c, 0, 67, 62
2, 32280, Note_on_c, 0, 67, 0
2, 32280, Note_on_c, 0, 65, 62
2, 32340, Note_on_c, 0, 65, 0
2, 32340, Note_on_c, 0, 67, 62
2, 32400, Note_on_c, 0, 67, 0
2, 32400, Note_on_c, 0, 64, 62
2, 32520, Note_on_c, 0, 64, 0
2, 32880, Note_on_c, 0, 62, 68
2, 32940, Note_on_c, 0, 62, 0
2, 32940, Note_on_c, 0, 64, 60
2, 33000, Note_on_c, 0, 64, 0
2, 33000, Note_on_c, 0, 62, 60
2, 33060, Note_on_c, 0, 62, 0
2, 33060, Note_on_c, 0, 64, 60
2, 33120, Note_on_c, 0, 64, 0
2, 33120, Note_on_c, 0, 61, 60
2, 33240, Note_on_c, 0, 61, 0
2, 33600, Note_on_c, 0, 60, 64
2, 33660, Note_on_c, 0, 60, 0
2, 33660, Note_on_c, 0, 64, 57
2, 33720, Note_on_c, 0, 64, 0
2, 33720, Note_on_c, 0, 60, 58
2, 33780, Note_on_c, 0, 60, 0
2, 33780, Note_on_c, 0, 64, 58
2, 33840, Note_on_c, 0, 64, 0
2, 33840, Note_on_c, 0, 59, 58
2, 33960, Note_on_c, 0, 59, 0
2, 34320, Note_on_c, 0, 58, 62
2, 34380, Note_on_c, 0, 58, 0
2, 34380, Note_on_c, 0, 64, 55
2, 34440, Note_on_c, 0, 64, 0
2, 34440, Note_on_c, 0, 58, 54
2, 34500, Note_on_c, 0, 58, 0
2, 34500, Note_on_c, 0, 64, 54
2, 34560, Note_on_c, 0, 64, 0
2, 34560, Note_on_c, 0, 57, 68
2, 34680, Note_on_c, 0, 57, 0
2, 35760, Note_on_c, 0, 70, 74
2, 35820, Note_on_c, 0, 70, 0
2, 35820, Note_on_c, 0, 76, 64
2, 35880, Note_on_c, 0, 76, 0
2, 35880, Note_on_c, 0, 70, 64
2, 35940, Note_on_c, 0, 70, 0
2, 35940, Note_on_c, 0, 76, 64
2, 36000, Note_on_c, 0, 76, 0
2, 36000, Note_on_c, 0, 69, 64
2, 36120, Note_on_c, 0, 69, 0
2, 37200, Note_on_c, 0, 82, 81
2, 37260, Note_on_c, 0, 82, 0
2, 37260, Note_on_c, 0, 88, 74
2, 37320, Note_on_c, 0, 88, 0
2, 37320, Note_on_c, 0, 82, 74
2, 37380, Note_on_c, 0, 82, 0
2, 37380, Note_on_c, 0, 88, 74
2, 37440, Note_on_c, 0, 88, 0
2, 37440, Note_on_c, 0, 81, 74
2, 37560, Note_on_c, 0, 81, 0
2, 38640, Note_on_c, 0, 94, 86
2, 38700, Note_on_c, 0, 94, 0
2, 38700, Note_on_c, 0, 100, 78
2, 38760, Note_on_c, 0, 100, 0
2, 38760, Note_on_c, 0, 94, 78
2, 38820, Note_on_c, 0, 94, 0
2, 38820, Note_on_c, 0, 100, 78
2, 38880, Note_on_c, 0, 100, 0
2, 38880, Note_on_c, 0, 93, 78
2, 39000, Note_on_c, 0, 93, 0
2, 39360, Note_on_c, 0, 82, 81
2, 39420, Note_on_c, 0, 82, 0
2, 39420, Note_on_c, 0, 88, 68
2, 39480, Note_on_c, 0, 88, 0
2, 39480, Note_on_c, 0, 82, 68
2, 39540, Note_on_c, 0, 82, 0
2, 39540, Note_on_c, 0, 88, 68
2, 39600, Note_on_c, 0, 88, 0
2, 39600, Note_on_c, 0, 81, 68
2, 39720, Note_on_c, 0, 81, 0
2, 40080, Note_on_c, 0, 70, 69
2, 40140, Note_on_c, 0, 70, 0
2, 40140, Note_on_c, 0, 76, 55
2, 40200, Note_on_c, 0, 76, 0
2, 40200, Note_on_c, 0, 70, 55
2, 40260, Note_on_c, 0, 70, 0
2, 40260, Note_on_c, 0, 76, 55
2, 40320, Note_on_c, 0, 76, 0
2, 40320, Note_on_c, 0, 69, 55
2, 40440, Note_on_c, 0, 69, 0
2, 40800, Note_on_c, 0, 58, 56
2, 40860, Note_on_c, 0, 58, 0
2, 40860, Note_on_c, 0, 64, 44
2, 40920, Note_on_c, 0, 64, 0
2, 40920, Note_on_c, 0, 58, 44
2, 40980, Note_on_c, 0, 58, 0
2, 40980, Note_on_c, 0, 64, 46
2, 41040, Note_on_c, 0, 64, 0
2, 41040, Note_on_c, 0, 57, 46
2, 41160, Note_on_c, 0, 57, 0
2, 41520, Note_on_c, 0, 81, 49
2, 41580, Note_on_c, 0, 81, 0
2, 41580, Note_on_c, 0, 82, 43
2, 41640, Note_on_c, 0, 82, 0
2, 41640, Note_on_c, 0, 81, 49
2, 41700, Note_on_c, 0, 81, 0
2, 41700, Note_on_c, 0, 82, 44
2, 41760, Note_on_c, 0, 82, 0
2, 41760, Note_on_c, 0, 81, 57
2, 41880, Note_on_c, 0, 81, 0
2, 42240, Note_on_c, 0, 82, 60
2, 42288, Note_on_c, 0, 82, 0
2, 42288, Note_on_c, 0, 81, 58
2, 42336, Note_on_c, 0, 81, 0
2, 42336, Note_on_c, 0, 77, 55
2, 42384, Note_on_c, 0, 77, 0
2, 42384, Note_on_c, 0, 74, 52
2, 42432, Note_on_c, 0, 74, 0
2, 42432, Note_on_c, 0, 69, 50
2, 42480, Note_on_c, 0, 69, 0
2, 42960, Note_on_c, 0, 86, 50
2, 43020, Note_on_c, 0, 86, 0
2, 43020, Note_on_c, 0, 88, 46
2, 43080, Note_on_c, 0, 88, 0
2, 43080, Note_on_c, 0, 86, 50
2, 43140, Note_on_c, 0, 86, 0
2, 43140, Note_on_c, 0, 88, 48
2, 43200, Note_on_c, 0, 88, 0
2, 43200, Note_on_c, 0, 86, 57
2, 43320, Note_on_c, 0, 86, 0
2, 43680, Note_on_c, 0, 88, 56
2, 43728, Note_on_c, 0, 88, 0
2, 43728, Note_on_c, 0, 86, 55
2, 43776, Note_on_c, 0, 86, 0
2, 43776, Note_on_c, 0, 83, 52
2, 43824, Note_on_c, 0, 83, 0
2, 43824, Note_on_c, 0, 79, 51
2, 43872, Note_on_c, 0, 79, 0
2, 43872, Note_on_c, 0, 74, 49
2, 43920, Note_on_c, 0, 74, 0
2, 44400, Note_on_c, 0, 81, 56
2, 44460, Note_on_c, 0, 81, 0
2, 44460, Note_on_c, 0, 82, 50
2, 44520, Note_on_c, 0, 82, 0
2, 44520, Note_on_c, 0, 81, 56
2, 44580, Note_on_c, 0, 81, 0
2, 44580, Note_on_c, 0, 82, 50
2, 44640, Note_on_c, 0, 82, 0
2, 44640, Note_on_c, 0, 81, 60
2, 44760, Note_on_c, 0, 81, 0
2, 45120, Note_on_c, 0, 77, 55
2, 45180, Note_on_c, 0, 77, 0
2, 45180, Note_on_c, 0, 79, 51
2, 45240, Note_on_c, 0, 79, 0
2, 45240, Note_on_c, 0, 77, 55
2, 45300, Note_on_c, 0, 77, 0
2, 45300, Note_on_c, 0, 79, 51
2, 45360, Note_on_c, 0, 79, 0
2, 45360, Note_on_c, 0, 77, 64
2, 45480, Note_on_c, 0, 77, 0
2, 45840, Note_on_c, 0, 81, 56
2, 45900, Note_on_c, 0, 81, 0
2, 45900, Note_on_c, 0, 82, 50
2, 45960, Note_on_c, 0, 82, 0
2, 45960, Note_on_c, 0, 81, 56
2, 46020, Note_on_c, 0, 81, 0
2, 46020, Note_on_c, 0, 82, 50
2, 46080, Note_on_c, 0, 82, 0
2, 46080, Note_on_c, 0, 81, 61
2, 46200, Note_on_c, 0, 81, 0
2, 46560, Note_on_c, 0, 82, 56
2, 46608, Note_on_c, 0, 82, 0
2, 46608, Note_on_c, 0, 81, 51
2, 46656, Note_on_c, 0, 81, 0
2, 46656, Note_on_c, 0, 77, 49
2, 46704, Note_on_c, 0, 77, 0
2, 46704, Note_on_c, 0, 74, 44
2, 46752, Note_on_c, 0, 74, 0
2, 46752, Note_on_c, 0, 69, 42
2, 46800, Note_on_c, 0, 69, 0
2, 47280, Note_on_c, 0, 81, 55
2, 47340, Note_on_c, 0, 81, 0
2, 47340, Note_on_c, 0, 82, 51
2, 47400, Note_on_c, 0, 82, 0
2, 47400, Note_on_c, 0, 81, 55
2, 47460, Note_on_c, 0, 81, 0
2, 47460, Note_on_c, 0, 82, 51
2, 47520, Note_on_c, 0, 82, 0
2, 47520, Note_on_c, 0, 81, 72
2, 47640, Note_on_c, 0, 81, 0
2, 48000, Note_on_c, 0, 82, 64
2, 48048, Note_on_c, 0, 82, 0
2, 48048, Note_on_c, 0, 81, 61
2, 48096, Note_on_c, 0, 81, 0
2, 48096, Note_on_c, 0, 77, 57
2, 48144, Note_on_c, 0, 77, 0
2, 48144, Note_on_c, 0, 73, 54
2, 48192, Note_on_c, 0, 73, 0
2, 48192, Note_on_c, 0, 69, 51
2, 48240, Note_on_c, 0, 69, 0
2, 48720, Note_on_c, 0, 84, 55
2, 48780, Note_on_c, 0, 84, 0
2, 48780, Note_on_c, 0, 86, 50
2, 48840, Note_on_c, 0, 86, 0
2, 48840, Note_on_c, 0, 84, 55
2, 48900, Note_on_c, 0, 84, 0
2, 48900, Note_on_c, 0, 86, 51
2, 48960, Note_on_c, 0, 86, 0
2, 48960, Note_on_c, 0, 84, 87
2, 49080, Note_on_c, 0, 84, 0
2, 49440, Note_on_c, 0, 86, 70
2, 49480, Note_on_c, 0, 86, 0
2, 49480, Note_on_c, 0, 84, 66
2, 49520, Note_on_c, 0, 84, 0
2, 49520, Note_on_c, 0, 81, 64
2, 49560, Note_on_c, 0, 81, 0
2, 49560, Note_on_c, 0, 77, 62
2, 49600, Note_on_c, 0, 77, 0
2, 49600, Note_on_c, 0, 72, 58
2, 49640, Note_on_c, 0, 72, 0
2, 49640, Note_on_c, 0, 69, 56
2, 49680, Note_on_c, 0, 69, 0
2, 50040, Note_on_c, 0, 85, 61
2, 50160, Note_on_c, 0, 85, 0
2, 50160, Note_on_c, 0, 81, 61
2, 50280, Note_on_c, 0, 81, 0
2, 50400, Note_on_c, 0, 73, 58
2, 50400, Note_on_c, 0, 77, 58
2, 50640, Note_on_c, 0, 77, 0
2, 50640, Note_on_c, 0, 73, 0
2, 50760, Note_on_c, 0, 85, 62
2, 50880, Note_on_c, 0, 85, 0
2, 50880, Note_on_c, 0, 81, 62
2, 51000, Note_on_c, 0, 81, 0
2, 51120, Note_on_c, 0, 73, 58
2, 51120, Note_on_c, 0, 77, 58
2, 51360, Note_on_c, 0, 77, 0
2, 51360, Note_on_c, 0, 73, 0
2, 51480, Note_on_c, 0, 86, 62
2, 51600, Note_on_c, 0, 86, 0
2, 51600, Note_on_c, 0, 81, 62
2, 51720, Note_on_c, 0, 81, 0
2, 51840, Note_on_c, 0, 74, 61
2, 52080, Note_on_c, 0, 74, 0
2, 52320, Note_on_c, 0, 65, 52
2, 52320, Note_on_c, 0, 74, 52
2, 52560, Note_on_c, 0, 74, 0
2, 52560, Note_on_c, 0, 65, 0
2, 52560, Note_on_c, 0, 65, 52
2, 52560, Note_on_c, 0, 74, 52
2, 52800, Note_on_c, 0, 74, 0
2, 52800, Note_on_c, 0, 65, 0
2, 53040, Control_c, 0, 91, 127
2, 53640, Note_on_c, 0, 52, 40
2, 53640, Note_on_c, 0, 62, 40
2, 53760, Note_on_c, 0, 62, 0
2, 53760, Note_on_c, 0, 52, 0
2, 53760, Note_on_c, 0, 64, 43
2, 53880, Note_on_c, 0, 64, 0
2, 54000, Note_on_c, 0, 64, 49
2, 54000, Note_on_c, 0, 62, 49
2, 54000, Note_on_c, 0, 52, 49
2, 54720, Note_on_c, 0, 52, 0
2, 54720, Note_on_c, 0, 62, 0
2, 54720, Note_on_c, 0, 64, 0
2, 55080, Note_on_c, 0, 62, 40
2, 55080, Note_on_c, 0, 52, 40
2, 55200, Note_on_c, 0, 52, 0
2, 55200, Note_on_c, 0, 62, 0
2, 55200, Note_on_c, 0, 64, 45
2, 55320, Note_on_c, 0, 64, 0
2, 55440, Note_on_c, 0, 62, 48
2, 55440, Note_on_c, 0, 64, 48
2, 55440, Note_on_c, 0, 52, 48
2, 56160, Note_on_c, 0, 52, 0
2, 56160, Note_on_c, 0, 64, 0
2, 56160, Note_on_c, 0, 62, 0
2, 56640, Note_on_c, 0, 64, 40
2, 56640, Note_on_c, 0, 62, 40
2, 56640, Note_on_c, 0, 52, 40
2, 56760, Note_on_c, 0, 52, 0
2, 56760, Note_on_c, 0, 62, 0
2, 56760, Note_on_c, 0, 64, 0
2, 57360, Note_on_c, 0, 64, 40
2, 57360, Note_on_c, 0, 62, 40
2, 57360, Note_on_c, 0, 52, 40
2, 57480, Note_on_c, 0, 52, 0
2, 57480, Note_on_c, 0, 62, 0
2, 57480, Note_on_c, 0, 64, 0
2, 57960, Note_on_c, 0, 61, 48
2, 57960, Note_on_c, 0, 52, 48
2, 58080, Note_on_c, 0, 52, 0
2, 58080, Note_on_c, 0, 61, 0
2, 58080, Note_on_c, 0, 64, 48
2, 58200, Note_on_c, 0, 64, 0
2, 58320, Note_on_c, 0, 52, 48
2, 58320, Note_on_c, 0, 61, 48
2, 58320, Note_on_c, 0, 64, 48
2, 59040, Note_on_c, 0, 64, 0
2, 59040, Note_on_c, 0, 61, 0
2, 59040, Note_on_c, 0, 52, 0
2, 59040, Control_c, 0, 91, 127
2, 59520, Note_on_c, 0, 69, 76
2, 59580, Note_on_c, 0, 69, 0
2, 59580, Note_on_c, 0, 71, 69
2, 59640, Note_on_c, 0, 71, 0
2, 59640, Note_on_c, 0, 69, 69
2, 59700, Note_on_c, 0, 69, 0
2, 59700, Note_on_c, 0, 71, 69
2, 59760, Note_on_c, 0, 71, 0
2, 59760, Note_on_c, 0, 68, 68
2, 59880, Note_on_c, 0, 68, 0
2, 60240, Note_on_c, 0, 67, 73
2, 60300, Note_on_c, 0, 67, 0
2, 60300, Note_on_c, 0, 69, 67
2, 60360, Note_on_c, 0, 69, 0
2, 60360, Note_on_c, 0, 67, 67
2, 60420, Note_on_c, 0, 67, 0
2, 60420, Note_on_c, 0, 69, 67
2, 60480, Note_on_c, 0, 69, 0
2, 60480, Note_on_c, 0, 66, 67
2, 60600, Note_on_c, 0, 66, 0
2, 60960, Note_on_c, 0, 65, 70
2, 61020, Note_on_c, 0, 65, 0
2, 61020, Note_on_c, 0, 67, 62
2, 61080, Note_on_c, 0, 67, 0
2, 61080, Note_on_c, 0, 65, 62
2, 61140, Note_on_c, 0, 65, 0
2, 61140, Note_on_c, 0, 67, 62
2, 61200, Note_on_c, 0, 67, 0
2, 61200, Note_on_c, 0, 64, 62
2, 61320, Note_on_c, 0, 64, 0
2, 61680, Note_on_c, 0, 62, 68
2, 61740, Note_on_c, 0, 62, 0
2, 61740, Note_on_c, 0, 64, 60
2, 61800, Note_on_c, 0, 64, 0
2, 61800, Note_on_c, 0, 62, 60
2, 61860, Note_on_c, 0, 62, 0
2, 61860, Note_on_c, 0, 64, 60
2, 61920, Note_on_c, 0, 64, 0
2, 61920, Note_on_c, 0, 61, 60
2, 62040, Note_on_c, 0, 61, 0
2, 62400, Note_on_c, 0, 60, 64
2, 62460, Note_on_c, 0, 60, 0
2, 62460, Note_on_c, 0, 64, 57
2, 62520, Note_on_c, 0, 64, 0
2, 62520, Note_on_c, 0, 60, 58
2, 62580, Note_on_c, 0, 60, 0
2, 62580, Note_on_c, 0, 64, 58
2, 62640, Note_on_c, 0, 64, 0
2, 62640, Note_on_c, 0, 59, 58
2, 62760, Note_on_c, 0, 59, 0
2, 63120, Note_on_c, 0, 58, 62
2, 63180, Note_on_c, 0, 58, 0
2, 63180, Note_on_c, 0, 64, 55
2, 63240, Note_on_c, 0, 64, 0
2, 63240, Note_on_c, 0, 58, 54
2, 63300, Note_on_c, 0, 58, 0
2, 63300, Note_on_c, 0, 64, 54
2, 63360, Note_on_c, 0, 64, 0
2, 63360, Note_on_c, 0, 57, 68
2, 63480, Note_on_c, 0, 57, 0
2, 64560, Note_on_c, 0, 70, 74
2, 64620, Note_on_c, 0, 70, 0
2, 64620, Note_on_c, 0, 76, 64
2, 64680, Note_on_c, 0, 76, 0
2, 64680, Note_on_c, 0, 70, 64
2, 64740, Note_on_c, 0, 70, 0
2, 64740, Note_on_c, 0, 76, 64
2, 64800, Note_on_c, 0, 76, 0
2, 64800, Note_on_c, 0, 69, 64
2, 64920, Note_on_c, 0, 69, 0
2, 66000, Note_on_c, 0, 82, 81
2, 66060, Note_on_c, 0, 82, 0
2, 66060, Note_on_c, 0, 88, 74
2, 66120, Note_on_c, 0, 88, 0
2, 66120, Note_on_c, 0, 82, 74
2, 66180, Note_on_c, 0, 82, 0
2, 66180, Note_on_c, 0, 88, 74
2, 66240, Note_on_c, 0, 88, 0
2, 66240, Note_on_c, 0, 81, 74
2, 66360, Note_on_c, 0, 81, 0
2, 67440, Note_on_c, 0, 94, 86
2, 67500, Note_on_c, 0, 94, 0
2, 67500, Note_on_c, 0, 100, 78
2, 67560, Note_on_c, 0, 100, 0
2, 67560, Note_on_c, 0, 94, 78
2, 67620, Note_on_c, 0, 94, 0
2, 67620, Note_on_c, 0, 100, 78
2, 67680, Note_on_c, 0, 100, 0
2, 67680, Note_on_c, 0, 93, 78
2, 67800, Note_on_c, 0, 93, 0
2, 68160, Note_on_c, 0, 82, 81
2, 68220, Note_on_c, 0, 82, 0
2, 68220, Note_on_c, 0, 88, 68
2, 68280, Note_on_c, 0, 88, 0
2, 68280, Note_on_c, 0, 82, 68
2, 68340, Note_on_c, 0, 82, 0
2, 68340, Note_on_c, 0, 88, 68
2, 68400, Note_on_c, 0, 88, 0
2, 68400, Note_on_c, 0, 81, 68
2, 68520, Note_on_c, 0, 81, 0
2, 68880, Note_on_c, 0, 70, 69
2, 68940, Note_on_c, 0, 70, 0
2, 68940, Note_on_c, 0, 76, 55
2, 69000, Note_on_c, 0, 76, 0
2, 69000, Note_on_c, 0, 70, 55
2, 69060, Note_on_c, 0, 70, 0
2, 69060, Note_on_c, 0, 76, 55
2, 69120, Note_on_c, 0, 76, 0
2, 69120, Note_on_c, 0, 69, 55
2, 69240, Note_on_c, 0, 69, 0
2, 69600, Note_on_c, 0, 58, 56
2, 69660, Note_on_c, 0, 58, 0
2, 69660, Note_on_c, 0, 64, 44
2, 69720, Note_on_c, 0, 64, 0
2, 69720, Note_on_c, 0, 58, 44
2, 69780, Note_on_c, 0, 58, 0
2, 69780, Note_on_c, 0, 64, 46
2, 69840, Note_on_c, 0, 64, 0
2, 69840, Note_on_c, 0, 57, 46
2, 69960, Note_on_c, 0, 57, 0
2, 70320, Note_on_c, 0, 81, 49
2, 70380, Note_on_c, 0, 81, 0
2, 70380, Note_on_c, 0, 82, 43
2, 70440, Note_on_c, 0, 82, 0
2, 70440, Note_on_c, 0, 81, 49
2, 70500, Note_on_c, 0, 81, 0
2, 70500, Note_on_c, 0, 82, 44
2, 70560, Note_on_c, 0, 82, 0
2, 70560, Note_on_c, 0, 81, 57
2, 70680, Note_on_c, 0, 81, 0
2, 71040, Note_on_c, 0, 82, 60
2, 71088, Note_on_c, 0, 82, 0
2, 71088, Note_on_c, 0, 81, 58
2, 71136, Note_on_c, 0, 81, 0
2, 71136, Note_on_c, 0, 77, 55
2, 71184, Note_on_c, 0, 77, 0
2, 71184, Note_on_c, 0, 74, 52
2, 71232, Note_on_c, 0, 74, 0
2, 71232, Note_on_c, 0, 69, 50
2, 71280, Note_on_c, 0, 69, 0
2, 71760, Note_on_c, 0, 86, 50
2, 71820, Note_on_c, 0, 86, 0
2, 71820, Note_on_c, 0, 88, 46
2, 71880, Note_on_c, 0, 88, 0
2, 71880, Note_on_c, 0, 86, 50
2, 71940, Note_on_c, 0, 86, 0
2, 71940, Note_on_c, 0, 88, 48
2, 72000, Note_on_c, 0, 88, 0
2, 72000, Note_on_c, 0, 86, 57
2, 72120, Note_on_c, 0, 86, 0
2, 72480, Note_on_c, 0, 88, 56
2, 72528, Note_on_c, 0, 88, 0
2, 72528, Note_on_c, 0, 86, 55
2, 72576, Note_on_c, 0, 86, 0
2, 72576, Note_on_c, 0, 83, 52
2, 72624, Note_on_c, 0, 83, 0
2, 72624, Note_on_c, 0, 79, 51
2, 72672, Note_on_c, 0, 79, 0
2, 72672, Note_on_c, 0, 74, 49
2, 72720, Note_on_c, 0, 74, 0
2, 73200, Note_on_c, 0, 81, 56
2, 73260, Note_on_c, 0, 81, 0
2, 73260, Note_on_c, 0, 82, 50
2, 73320, Note_on_c, 0, 82, 0
2, 73320, Note_on_c, 0, 81, 56
2, 73380, Note_on_c, 0, 81, 0
2, 73380, Note_on_c, 0, 82, 50
2, 73440, Note_on_c, 0, 82, 0
2, 73440, Note_on_c, 0, 81, 60
2, 73560, Note_on_c, 0, 81, 0
2, 73920, Note_on_c, 0, 77, 55
2, 73980, Note_on_c, 0, 77, 0
2, 73980, Note_on_c, 0, 79, 51
2, 74040, Note_on_c, 0, 79, 0
2, 74040, Note_on_c, 0, 77, 55
2, 74100, Note_on_c, 0, 77, 0
2, 74100, Note_on_c, 0, 79, 51
2, 74160, Note_on_c, 0, 79, 0
2, 74160, Note_on_c, 0, 77, 64
2, 74280, Note_on_c, 0, 77, 0
2, 74640, Note_on_c, 0, 81, 56
2, 74700, Note_on_c, 0, 81, 0
2, 74700, Note_on_c, 0, 82, 50
2, 74760, Note_on_c, 0, 82, 0
2, 74760, Note_on_c, 0, 81, 56
2, 74820, Note_on_c, 0, 81, 0
2, 74820, Note_on_c, 0, 82, 50
2, 74880, Note_on_c, 0, 82, 0
2, 74880, Note_on_c, 0, 81, 61
2, 75000, Note_on_c, 0, 81, 0
2, 75360, Note_on_c, 0, 82, 56
2, 75408, Note_on_c, 0, 82, 0
2, 75408, Note_on_c, 0, 81, 51
2, 75456, Note_on_c, 0, 81, 0
2, 75456, Note_on_c, 0, 77, 49
2, 75504, Note_on_c, 0, 77, 0
2, 75504, Note_on_c, 0, 74, 44
2, 75552, Note_on_c, 0, 74, 0
2, 75552, Note_on_c, 0, 69, 42
2, 75600, Note_on_c, 0, 69, 0
2, 76080, Note_on_c, 0, 81, 55
2, 76140, Note_on_c, 0, 81, 0
2, 76140, Note_on_c, 0, 82, 51
2, 76200, Note_on_c, 0, 82, 0
2, 76200, Note_on_c, 0, 81, 55
2, 76260, Note_on_c, 0, 81, 0
2, 76260, Note_on_c, 0, 82, 51
2, 76320, Note_on_c, 0, 82, 0
2, 76320, Note_on_c, 0, 81, 72
2, 76440, Note_on_c, 0, 81, 0
2, 76800, Note_on_c, 0, 82, 64
2, 76848, Note_on_c, 0, 82, 0
2, 76848, Note_on_c, 0, 81, 61
2, 76896, Note_on_c, 0, 81, 0
2, 76896, Note_on_c, 0, 77, 57
2, 76944, Note_on_c, 0, 77, 0
2, 76944, Note_on_c, 0, 73, 54
2, 76992, Note_on_c, 0, 73, 0
2, 76992, Note_on_c, 0, 69, 51
2, 77040, Note_on_c, 0, 69, 0
2, 77520, Note_on_c, 0, 84, 55
2, 77580, Note_on_c, 0, 84, 0
2, 77580, Note_on_c, 0, 86, 50
2, 77640, Note_on_c, 0, 86, 0
2, 77640, Note_on_c, 0, 84, 55
2, 77700, Note_on_c, 0, 84, 0
2, 77700, Note_on_c, 0, 86, 51
2, 77760, Note_on_c, 0, 86, 0
2, 77760, Note_on_c, 0, 84, 87
2, 77880, Note_on_c, 0, 84, 0
2, 78240, Note_on_c, 0, 86, 70
2, 78280, Note_on_c, 0, 86, 0
2, 78280, Note_on_c, 0, 84, 66
2, 78320, Note_on_c, 0, 84, 0
2, 78320, Note_on_c, 0, 81, 64
2, 78360, Note_on_c, 0, 81, 0
2, 78360, Note_on_c, 0, 77, 62
2, 78400, Note_on_c, 0, 77, 0
2, 78400, Note_on_c, 0, 72, 58
2, 78440, Note_on_c, 0, 72, 0
2, 78440, Note_on_c, 0, 69, 56
2, 78480, Note_on_c, 0, 69, 0
2, 78840, Note_on_c, 0, 85, 61
2, 78960, Note_on_c, 0, 85, 0
2, 78960, Note_on_c, 0, 81, 61
2, 79080, Note_on_c, 0, 81, 0
2, 79200, Note_on_c, 0, 73, 58
2, 79200, Note_on_c, 0, 77, 58
2, 79440, Note_on_c, 0, 77, 0
2, 79440, Note_on_c, 0, 73, 0
2, 79560, Note_on_c, 0, 85, 62
2, 79680, Note_on_c, 0, 85, 0
2, 79680, Note_on_c, 0, 81, 62
2, 79800, Note_on_c, 0, 81, 0
2, 79920, Note_on_c, 0, 73, 58
2, 79920, Note_on_c, 0, 77, 58
2, 80160, Note_on_c, 0, 77, 0
2, 80160, Note_on_c, 0, 73, 0
2, 80280, Note_on_c, 0, 86, 62
2, 80400, Note_on_c, 0, 86, 0
2, 80400, Note_on_c, 0, 81, 62
2, 80520, Note_on_c, 0, 81, 0
2, 80640, Note_on_c, 0, 74, 61
2, 80880, Note_on_c, 0, 74, 0
2, 81120, Note_on_c, 0, 65, 52
2, 81120, Note_on_c, 0, 74, 52
2, 81360, Note_on_c, 0, 74, 0
2, 81360, Note_on_c, 0, 65, 0
2, 81360, Note_on_c, 0, 65, 52
2, 81360, Note_on_c, 0, 74, 52
2, 81600, Note_on_c, 0, 74, 0
2, 81600, Note_on_c, 0, 65, 0
2, 82440, Note_on_c, 0, 45, 38
2, 82440, Note_on_c, 0, 55, 38
2, 82560, Note_on_c, 0, 55, 0
2, 82560, Note_on_c, 0, 45, 0
2, 82560, Note_on_c, 0, 57, 42
2, 82680, Note_on_c, 0, 57, 0
2, 82800, Note_on_c, 0, 57, 45
2, 82800, Note_on_c, 0, 55, 45
2, 82800, Note_on_c, 0, 45, 45
2, 83520, Note_on_c, 0, 45, 0
2, 83520, Note_on_c, 0, 55, 0
2, 83520, Note_on_c, 0, 57, 0
2, 83880, Note_on_c, 0, 55, 37
2, 83880, Note_on_c, 0, 45, 37
2, 84000, Note_on_c, 0, 45, 0
2, 84000, Note_on_c, 0, 55, 0
2, 84000, Note_on_c, 0, 57, 39
2, 84120, Note_on_c, 0, 57, 0
2, 84240, Note_on_c, 0, 57, 44
2, 84240, Note_on_c, 0, 55, 44
2, 84240, Note_on_c, 0, 45, 44
2, 84960, Note_on_c, 0, 45, 0
2, 84960, Note_on_c, 0, 55, 0
2, 84960, Note_on_c, 0, 57, 0
2, 85440, Note_on_c, 0, 57, 40
2, 85440, Note_on_c, 0, 55, 40
2, 85440, Note_on_c, 0, 45, 40
2, 85560, Note_on_c, 0, 45, 0
2, 85560, Note_on_c, 0, 55, 0
2, 85560, Note_on_c, 0, 57, 0
2, 86160, Note_on_c, 0, 57, 38
2, 86160, Note_on_c, 0, 55, 38
2, 86160, Note_on_c, 0, 45, 38
2, 86280, Note_on_c, 0, 45, 0
2, 86280, Note_on_c, 0, 55, 0
2, 86280, Note_on_c, 0, 57, 0
2, 86880, Note_on_c, 0, 57, 33
2, 86880, Note_on_c, 0, 55, 33
2, 86880, Note_on_c, 0, 45, 33
2, 87000, Note_on_c, 0, 45, 0
2, 87000, Note_on_c, 0, 55, 0
2, 87000, Note_on_c, 0, 57, 0
2, 87600, Note_on_c, 0, 55, 33
2, 87600, Note_on_c, 0, 45, 33
2, 87600, Note_on_c, 0, 57, 33
2, 87720, Note_on_c, 0, 57, 0
2, 87720, Note_on_c, 0, 45, 0
2, 87720, Note_on_c, 0, 55, 0
2, 88200, Note_on_c, 0, 54, 36
2, 88320, Note_on_c, 0, 54, 0
2, 88320, Note_on_c, 0, 57, 36
2, 88440, Note_on_c, 0, 57, 0
2, 88560, Note_on_c, 0, 62, 43
2, 88680, Note_on_c, 0, 62, 0
2, 88920, Note_on_c, 0, 66, 40
2, 89040, Note_on_c, 0, 66, 0
2, 89040, Note_on_c, 0, 69, 40
2, 89160, Note_on_c, 0, 69, 0
2, 89280, Note_on_c, 0, 74, 44
2, 89400, Note_on_c, 0, 74, 0
2, 89640, Note_on_c, 0, 66, 42
2, 89760, Note_on_c, 0, 66, 0
2, 89760, Note_on_c, 0, 69, 42
2, 89880, Note_on_c, 0, 69, 0
2, 90000, Note_on_c, 0, 74, 45
2, 90120, Note_on_c, 0, 74, 0
2, 90360, Note_on_c, 0, 78, 42
2, 90480, Note_on_c, 0, 78, 0
2, 90480, Note_on_c, 0, 81, 42
2, 90600, Note_on_c, 0, 81, 0
2, 90720, Note_on_c, 0, 86, 44
2, 90840, Note_on_c, 0, 86, 0
2, 91440, Note_on_c, 0, 55, 39
2, 91440, Note_on_c, 0, 52, 39
2, 91440, Note_on_c, 0, 62, 39
2, 91440, Note_on_c, 0, 58, 39
2, 91560, Note_on_c, 0, 58, 0
2, 91560, Note_on_c, 0, 55, 0
2, 91560, Note_on_c, 0, 52, 0
2, 91560, Note_on_c, 0, 62, 0
2, 92160, Note_on_c, 0, 62, 39
2, 92160, Note_on_c, 0, 54, 39
2, 92160, Note_on_c, 0, 57, 39
2, 92280, Note_on_c, 0, 57, 0
2, 92280, Note_on_c, 0, 54, 0
2, 92280, Note_on_c, 0, 62, 0
2, 92280, End_track
3, 0, Start_track
3, 0, Title_t, "Piano left"
3, 0, Program_c, 0, 0
3, 0, Control_c, 0, 7, 100
3, 0, Control_c, 0, 10, 64
3, 0, Control_c, 0, 64, 0
3, 1196, Control_c, 0, 91, 127
3, 1200, Note_on_c, 0, 74, 42
3, 1200, Control_c, 0, 64, 0
3, 1260, Note_on_c, 0, 74, 0
3, 1260, Note_on_c, 0, 77, 38
3, 1320, Note_on_c, 0, 77, 0
3, 1320, Note_on_c, 0, 74, 42
3, 1380, Note_on_c, 0, 74, 0
3, 1380, Note_on_c, 0, 77, 38
3, 1440, Note_on_c, 0, 77, 0
3, 1440, Note_on_c, 0, 74, 50
3, 1474, Control_c, 0, 64, 127
3, 1560, Note_on_c, 0, 74, 0
3, 1920, Note_on_c, 0, 69, 30
3, 1920, Note_on_c, 0, 62, 30
3, 2160, Note_on_c, 0, 62, 0
3, 2160, Note_on_c, 0, 69, 0
3, 2160, Note_on_c, 0, 69, 30
3, 2160, Note_on_c, 0, 62, 30
3, 2208, Control_c, 0, 64, 0
3, 2280, Note_on_c, 0, 62, 0
3, 2280, Note_on_c, 0, 69, 0
3, 2640, Note_on_c, 0, 79, 44
3, 2700, Note_on_c, 0, 79, 0
3, 2700, Note_on_c, 0, 83, 40
3, 2760, Note_on_c, 0, 83, 0
3, 2760, Note_on_c, 0, 79, 44
3, 2820, Note_on_c, 0, 79, 0
3, 2820, Note_on_c, 0, 83, 40
3, 2880, Note_on_c, 0, 83, 0
3, 2880, Note_on_c, 0, 79, 50
3, 2919, Control_c, 0, 64, 127
3, 3000, Note_on_c, 0, 79, 0
3, 3360, Note_on_c, 0, 74, 30
3, 3360, Note_on_c, 0, 67, 30
3, 3600, Note_on_c, 0, 67, 0
3, 3600, Note_on_c, 0, 74, 0
3, 3600, Note_on_c, 0, 74, 30
3, 3600, Note_on_c, 0, 67, 30
3, 3652, Control_c, 0, 64, 0
3, 3720, Note_on_c, 0, 67, 0
3, 3720, Note_on_c, 0, 74, 0
3, 4080, Note_on_c, 0, 74, 48
3, 4140, Note_on_c, 0, 74, 0
3, 4140, Note_on_c, 0, 77, 43
3, 4200, Note_on_c, 0, 77, 0
3, 4200, Note_on_c, 0, 74, 48
3, 4260, Note_on_c, 0, 74, 0
3, 4260, Note_on_c, 0, 77, 44
3, 4320, Note_on_c, 0, 77, 0
3, 4320, Note_on_c, 0, 74, 51
3, 4440, Note_on_c, 0, 74, 0
3, 4800, Note_on_c, 0, 70, 48
3, 4860, Note_on_c, 0, 70, 0
3, 4860, Note_on_c, 0, 74, 45
3, 4920, Note_on_c, 0, 74, 0
3, 4920, Note_on_c, 0, 70, 48
3, 4980, Note_on_c, 0, 70, 0
3, 4980, Note_on_c, 0, 74, 44
3, 5040, Note_on_c, 0, 74, 0
3, 5040, Note_on_c, 0, 70, 55
3, 5160, Note_on_c, 0, 70, 0
3, 5520, Note_on_c, 0, 74, 49
3, 5580, Note_on_c, 0, 74, 0
3, 5580, Note_on_c, 0, 77, 44
3, 5640, Note_on_c, 0, 77, 0
3, 5640, Note_on_c, 0, 74, 49
3, 5700, Note_on_c, 0, 74, 0
3, 5700, Note_on_c, 0, 77, 45
3, 5760, Note_on_c, 0, 77, 0
3, 5760, Note_on_c, 0, 74, 56
3, 5806, Control_c, 0, 64, 127
3, 5880, Note_on_c, 0, 74, 0
3, 6240, Note_on_c, 0, 69, 32
3, 6240, Note_on_c, 0, 62, 32
3, 6480, Note_on_c, 0, 62, 0
3, 6480, Note_on_c, 0, 69, 0
3, 6480, Note_on_c, 0, 62, 32
3, 6480, Note_on_c, 0, 69, 32
3, 6552, Control_c, 0, 64, 0
3, 6600, Note_on_c, 0, 69, 0
3, 6600, Note_on_c, 0, 62, 0
3, 6960, Note_on_c, 0, 77, 48
3, 7020, Note_on_c, 0, 77, 0
3, 7020, Note_on_c, 0, 81, 44
3, 7080, Note_on_c, 0, 81, 0
3, 7080, Note_on_c, 0, 77, 48
3, 7140, Note_on_c, 0, 77, 0
3, 7140, Note_on_c, 0, 81, 45
3, 7200, Note_on_c, 0, 81, 0
3, 7200, Note_on_c, 0, 77, 69
3, 7235, Control_c, 0, 64, 127
3, 7320, Note_on_c, 0, 77, 0
3, 7680, Note_on_c, 0, 65, 40
3, 7680, Note_on_c, 0, 72, 40
3, 7920, Note_on_c, 0, 72, 0
3, 7920, Note_on_c, 0, 65, 0
3, 7920, Note_on_c, 0, 65, 40
3, 7920, Note_on_c, 0, 72, 40
3, 7976, Control_c, 0, 64, 0
3, 8040, Note_on_c, 0, 72, 0
3, 8040, Note_on_c, 0, 65, 0
3, 8400, Note_on_c, 0, 81, 49
3, 8460, Note_on_c, 0, 81, 0
3, 8460, Note_on_c, 0, 84, 44
3, 8520, Note_on_c, 0, 84, 0
3, 8520, Note_on_c, 0, 81, 49
3, 8580, Note_on_c, 0, 81, 0
3, 8580, Note_on_c, 0, 84, 45
3, 8640, Note_on_c, 0, 84, 0
3, 8640, Note_on_c, 0, 81, 69
3, 8691, Control_c, 0, 64, 127
3, 8760, Note_on_c, 0, 81, 0
3, 9120, Note_on_c, 0, 72, 45
3, 9120, Note_on_c, 0, 64, 45
3, 9360, Note_on_c, 0, 64, 0
3, 9360, Note_on_c, 0, 72, 0
3, 9360, Note_on_c, 0, 72, 45
3, 9360, Note_on_c, 0, 64, 45
3, 9436, Control_c, 0, 64, 0
3, 9480, Note_on_c, 0, 64, 0
3, 9480, Note_on_c, 0, 72, 0
3, 10080, Note_on_c, 0, 62, 44
3, 10080, Note_on_c, 0, 52, 44
3, 10320, Note_on_c, 0, 52, 0
3, 10320, Note_on_c, 0, 62, 0
3, 10800, Note_on_c, 0, 52, 44
3, 10800, Note_on_c, 0, 62, 44
3, 11040, Note_on_c, 0, 62, 0
3, 11040, Note_on_c, 0, 52, 0
3, 11520, Control_c, 0, 64, 127
3, 12000, Note_on_c, 0, 52, 50
3, 12000, Note_on_c, 0, 45, 50
3, 12240, Note_on_c, 0, 45, 0
3, 12240, Note_on_c, 0, 52, 0
3, 12240, Note_on_c, 0, 45, 50
3, 12240, Note_on_c, 0, 52, 50
3, 12480, Note_on_c, 0, 52, 0
3, 12480, Note_on_c, 0, 45, 0
3, 12480, Control_c, 0, 64, 0
3, 12720, Note_on_c, 0, 74, 42
3, 12780, Note_on_c, 0, 74, 0
3, 12780, Note_on_c, 0, 77, 38
3, 12840, Note_on_c, 0, 77, 0
3, 12840, Note_on_c, 0, 74, 42
3, 12900, Note_on_c, 0, 74, 0
3, 12900, Note_on_c, 0, 77, 38
3, 12960, Note_on_c, 0, 77, 0
3, 12960, Note_on_c, 0, 74, 50
3, 13000, Control_c, 0, 64, 127
3, 13080, Note_on_c, 0, 74, 0
3, 13440, Note_on_c, 0, 62, 30
3, 13440, Note_on_c, 0, 69, 30
3, 13680, Note_on_c, 0, 69, 0
3, 13680, Note_on_c, 0, 62, 0
3, 13680, Note_on_c, 0, 62, 30
3, 13680, Note_on_c, 0, 69, 30
3, 13728, Control_c, 0, 64, 0
3, 13800, Note_on_c, 0, 69, 0
3, 13800, Note_on_c, 0, 62, 0
3, 14160, Note_on_c, 0, 79, 44
3, 14220, Note_on_c, 0, 79, 0
3, 14220, Note_on_c, 0, 83, 40
3, 14280, Note_on_c, 0, 83, 0
3, 14280, Note_on_c, 0, 79, 44
3, 14340, Note_on_c, 0, 79, 0
3, 14340, Note_on_c, 0, 83, 40
3, 14400, Note_on_c, 0, 83, 0
3, 14400, Note_on_c, 0, 79, 50
3, 14439, Control_c, 0, 64, 127
3, 14520, Note_on_c, 0, 79, 0
3, 14880, Note_on_c, 0, 67, 30
3, 14880, Note_on_c, 0, 74, 30
3, 15120, Note_on_c, 0, 74, 0
3, 15120, Note_on_c, 0, 67, 0
3, 15120, Note_on_c, 0, 67, 30
3, 15120, Note_on_c, 0, 74, 30
3, 15172, Control_c, 0, 64, 0
3, 15240, Note_on_c, 0, 74, 0
3, 15240, Note_on_c, 0, 67, 0
3, 15600, Note_on_c, 0, 74, 48
3, 15660, Note_on_c, 0, 74, 0
3, 15660, Note_on_c, 0, 77, 43
3, 15720, Note_on_c, 0, 77, 0
3, 15720, Note_on_c, 0, 74, 48
3, 15780, Note_on_c, 0, 74, 0
3, 15780, Note_on_c, 0, 77, 44
3, 15840, Note_on_c, 0, 77, 0
3, 15840, Note_on_c, 0, 74, 51
3, 15960, Note_on_c, 0, 74, 0
3, 16320, Note_on_c, 0, 70, 48
3, 16380, Note_on_c, 0, 70, 0
3, 16380, Note_on_c, 0, 74, 45
3, 16440, Note_on_c, 0, 74, 0
3, 16440, Note_on_c, 0, 70, 48
3, 16500, Note_on_c, 0, 70, 0
3, 16500, Note_on_c, 0, 74, 44
3, 16560, Note_on_c, 0, 74, 0
3, 16560, Note_on_c, 0, 70, 55
3, 16680, Note_on_c, 0, 70, 0
3, 17040, Note_on_c, 0, 74, 49
3, 17100, Note_on_c, 0, 74, 0
3, 17100, Note_on_c, 0, 77, 44
3, 17160, Note_on_c, 0, 77, 0
3, 17160, Note_on_c, 0, 74, 49
3, 17220, Note_on_c, 0, 74, 0
3, 17220, Note_on_c, 0, 77, 45
3, 17280, Note_on_c, 0, 77, 0
3, 17280, Note_on_c, 0, 74, 56
3, 17319, Control_c, 0, 64, 127
3, 17400, Note_on_c, 0, 74, 0
3, 17760, Note_on_c, 0, 62, 32
3, 17760, Note_on_c, 0, 69, 32
3, 18000, Note_on_c, 0, 69, 0
3, 18000, Note_on_c, 0, 62, 0
3, 18000, Note_on_c, 0, 62, 32
3, 18000, Note_on_c, 0, 69, 32
3, 18072, Control_c, 0, 64, 0
3, 18120, Note_on_c, 0, 69, 0
3, 18120, Note_on_c, 0, 62, 0
3, 18480, Note_on_c, 0, 77, 48
3, 18540, Note_on_c, 0, 77, 0
3, 18540, Note_on_c, 0, 81, 44
3, 18600, Note_on_c, 0, 81, 0
3, 18600, Note_on_c, 0, 77, 48
3, 18660, Note_on_c, 0, 77, 0
3, 18660, Note_on_c, 0, 81, 45
3, 18720, Note_on_c, 0, 81, 0
3, 18720, Note_on_c, 0, 77, 69
3, 18755, Control_c, 0, 64, 127
3, 18840, Note_on_c, 0, 77, 0
3, 19200, Note_on_c, 0, 65, 40
3, 19200, Note_on_c, 0, 72, 40
3, 19440, Note_on_c, 0, 72, 0
3, 19440, Note_on_c, 0, 65, 0
3, 19440, Note_on_c, 0, 65, 40
3, 19440, Note_on_c, 0, 72, 40
3, 19496, Control_c, 0, 64, 0
3, 19560, Note_on_c, 0, 72, 0
3, 19560, Note_on_c, 0, 65, 0
3, 19920, Note_on_c, 0, 81, 49
3, 19980, Note_on_c, 0, 81, 0
3, 19980, Note_on_c, 0, 84, 44
3, 20040, Note_on_c, 0, 84, 0
3, 20040, Note_on_c, 0, 81, 49
3, 20100, Note_on_c, 0, 81, 0
3, 20100, Note_on_c, 0, 84, 45
3, 20160, Note_on_c, 0, 84, 0
3, 20160, Note_on_c, 0, 81, 69
3, 20234, Control_c, 0, 64, 127
3, 20280, Note_on_c, 0, 81, 0
3, 20640, Note_on_c, 0, 64, 45
3, 20640, Note_on_c, 0, 72, 45
3, 20880, Note_on_c, 0, 72, 0
3, 20880, Note_on_c, 0, 64, 0
3, 20880, Note_on_c, 0, 64, 45
3, 20880, Note_on_c, 0, 72, 45
3, 20956, Control_c, 0, 64, 0
3, 21000, Note_on_c, 0, 72, 0
3, 21000, Note_on_c, 0, 64, 0
3, 21600, Note_on_c, 0, 62, 44
3, 21600, Note_on_c, 0, 52, 44
3, 21840, Note_on_c, 0, 52, 0
3, 21840, Note_on_c, 0, 62, 0
3, 22320, Note_on_c, 0, 62, 44
3, 22320, Note_on_c, 0, 52, 44
3, 22560, Note_on_c, 0, 52, 0
3, 22560, Note_on_c, 0, 62, 0
3, 23040, Control_c, 0, 64, 127
3, 23520, Note_on_c, 0, 52, 52
3, 23520, Note_on_c, 0, 45, 52
3, 23760, Note_on_c, 0, 45, 0
3, 23760, Note_on_c, 0, 52, 0
3, 23760, Note_on_c, 0, 45, 52
3, 23760, Note_on_c, 0, 52, 52
3, 24000, Note_on_c, 0, 52, 0
3, 24000, Note_on_c, 0, 45, 0
3, 24000, Control_c, 0, 64, 0
3, 24240, Note_on_c, 0, 46, 43
3, 24300, Note_on_c, 0, 46, 0
3, 24300, Note_on_c, 0, 48, 43
3, 24360, Note_on_c, 0, 48, 0
3, 24360, Note_on_c, 0, 46, 43
3, 24420, Note_on_c, 0, 46, 0
3, 24420, Note_on_c, 0, 48, 43
3, 24480, Note_on_c, 0, 48, 0
3, 24480, Note_on_c, 0, 46, 61
3, 25680, Note_on_c, 0, 46, 0
3, 25680, Note_on_c, 0, 46, 43
3, 25740, Note_on_c, 0, 46, 0
3, 25740, Note_on_c, 0, 48, 43
3, 25800, Note_on_c, 0, 48, 0
3, 25800, Note_on_c, 0, 46, 43
3, 25860, Note_on_c, 0, 46, 0
3, 25860, Note_on_c, 0, 48, 43
3, 25920, Note_on_c, 0, 48, 0
3, 25920, Note_on_c, 0, 46, 61
3, 27120, Note_on_c, 0, 46, 0
3, 27120, Note_on_c, 0, 46, 42
3, 27180, Note_on_c, 0, 46, 0
3, 27180, Note_on_c, 0, 48, 42
3, 27240, Note_on_c, 0, 48, 0
3, 27240, Note_on_c, 0, 46, 42
3, 27300, Note_on_c, 0, 46, 0
3, 27300, Note_on_c, 0, 48, 40
3, 27360, Note_on_c, 0, 48, 0
3, 27360, Note_on_c, 0, 46, 64
3, 27600, Note_on_c, 0, 46, 0
3, 27720, Note_on_c, 0, 46, 45
3, 27840, Note_on_c, 0, 46, 0
3, 27840, Note_on_c, 0, 48, 45
3, 27960, Note_on_c, 0, 48, 0
3, 28080, Note_on_c, 0, 46, 63
3, 28320, Note_on_c, 0, 46, 0
3, 28440, Note_on_c, 0, 46, 43
3, 28560, Note_on_c, 0, 46, 0
3, 28560, Note_on_c, 0, 48, 43
3, 28680, Note_on_c, 0, 48, 0
3, 28800, Note_on_c, 0, 45, 60
3, 29760, Note_on_c, 0, 45, 0
3, 29760, Note_on_c, 0, 42, 48
3, 29880, Note_on_c, 0, 42, 0
3, 30000, Note_on_c, 0, 44, 48
3, 30120, Note_on_c, 0, 44, 0
3, 30240, Control_c, 0, 91, 127
3, 30240, Note_on_c, 0, 40, 64
3, 30480, Note_on_c, 0, 40, 0
3, 30720, Note_on_c, 0, 64, 76
3, 30720, Note_on_c, 0, 61, 76
3, 30960, Note_on_c, 0, 61, 0
3, 30960, Note_on_c, 0, 64, 0
3, 30960, Note_on_c, 0, 63, 67
3, 30960, Note_on_c, 0, 60, 67
3, 31080, Note_on_c, 0, 60, 0
3, 31080, Note_on_c, 0, 63, 0
3, 31440, Note_on_c, 0, 62, 73
3, 31440, Note_on_c, 0, 59, 73
3, 31680, Note_on_c, 0, 59, 0
3, 31680, Note_on_c, 0, 62, 0
3, 31680, Note_on_c, 0, 58, 67
3, 31680, Note_on_c, 0, 61, 67
3, 31800, Note_on_c, 0, 61, 0
3, 31800, Note_on_c, 0, 58, 0
3, 32160, Note_on_c, 0, 60, 70
3, 32160, Note_on_c, 0, 57, 70
3, 32400, Note_on_c, 0, 57, 0
3, 32400, Note_on_c, 0, 60, 0
3, 32400, Note_on_c, 0, 56, 62
3, 32400, Note_on_c, 0, 59, 62
3, 32520, Note_on_c, 0, 59, 0
3, 32520, Note_on_c, 0, 56, 0
3, 32880, Note_on_c, 0, 54, 68
3, 32880, Note_on_c, 0, 57, 68
3, 33120, Note_on_c, 0, 54, 0
3, 33120, Note_on_c, 0, 53, 61
3, 33240, Note_on_c, 0, 53, 0
3, 33240, Note_on_c, 0, 57, 0
3, 33600, Note_on_c, 0, 52, 64
3, 33600, Note_on_c, 0, 57, 64
3, 33840, Note_on_c, 0, 52, 0
3, 33840, Note_on_c, 0, 51, 58
3, 33960, Note_on_c, 0, 51, 0
3, 33960, Note_on_c, 0, 57, 0
3, 34320, Note_on_c, 0, 50, 62
3, 34320, Note_on_c, 0, 52, 62
3, 34560, Note_on_c, 0, 52, 0
3, 34560, Note_on_c, 0, 49, 56
3, 34680, Note_on_c, 0, 49, 0
3, 34680, Note_on_c, 0, 50, 0
3, 34920, Note_on_c, 0, 40, 67
3, 35040, Note_on_c, 0, 40, 0
3, 35040, Note_on_c, 0, 45, 75
3, 35160, Note_on_c, 0, 45, 0
3, 35280, Note_on_c, 0, 33, 64
3, 35400, Note_on_c, 0, 33, 0
3, 35760, Note_on_c, 0, 62, 72
3, 35760, Note_on_c, 0, 64, 72
3, 36000, Note_on_c, 0, 62, 0
3, 36000, Note_on_c, 0, 61, 64
3, 36120, Note_on_c, 0, 61, 0
3, 36120, Note_on_c, 0, 64, 0
3, 36360, Note_on_c, 0, 52, 61
3, 36480, Note_on_c, 0, 52, 0
3, 36480, Note_on_c, 0, 57, 72
3, 36600, Note_on_c, 0, 57, 0
3, 36720, Note_on_c, 0, 45, 56
3, 36840, Note_on_c, 0, 45, 0
3, 37200, Note_on_c, 0, 74, 81
3, 37200, Note_on_c, 0, 76, 81
3, 37440, Note_on_c, 0, 74, 0
3, 37440, Note_on_c, 0, 73, 74
3, 37560, Note_on_c, 0, 73, 0
3, 37560, Note_on_c, 0, 76, 0
3, 37800, Note_on_c, 0, 64, 69
3, 37920, Note_on_c, 0, 64, 0
3, 37920, Note_on_c, 0, 69, 76
3, 38040, Note_on_c, 0, 69, 0
3, 38160, Note_on_c, 0, 57, 55
3, 38280, Note_on_c, 0, 57, 0
3, 38640, Note_on_c, 0, 88, 84
3, 38640, Note_on_c, 0, 86, 84
3, 38880, Note_on_c, 0, 86, 0
3, 38880, Note_on_c, 0, 85, 80
3, 39000, Note_on_c, 0, 85, 0
3, 39000, Note_on_c, 0, 88, 0
3, 39360, Note_on_c, 0, 74, 80
3, 39360, Note_on_c, 0, 76, 80
3, 39600, Note_on_c, 0, 74, 0
3, 39600, Note_on_c, 0, 73, 68
3, 39720, Note_on_c, 0, 73, 0
3, 39720, Note_on_c, 0, 76, 0
3, 40080, Note_on_c, 0, 62, 68
3, 40080, Note_on_c, 0, 64, 68
3, 40320, Note_on_c, 0, 62, 0
3, 40320, Note_on_c, 0, 61, 56
3, 40440, Note_on_c, 0, 61, 0
3, 40440, Note_on_c, 0, 64, 0
3, 40800, Note_on_c, 0, 50, 55
3, 40800, Note_on_c, 0, 52, 55
3, 41040, Note_on_c, 0, 50, 0
3, 41040, Note_on_c, 0, 49, 44
3, 41160, Note_on_c, 0, 49, 0
3, 41160, Note_on_c, 0, 52, 0
3, 41520, Note_on_c, 0, 74, 48
3, 41580, Note_on_c, 0, 74, 0
3, 41580, Note_on_c, 0, 77, 43
3, 41640, Note_on_c, 0, 77, 0
3, 41640, Note_on_c, 0, 74, 48
3, 41700, Note_on_c, 0, 74, 0
3, 41700, Note_on_c, 0, 77, 43
3, 41760, Note_on_c, 0, 77, 0
3, 41760, Note_on_c, 0, 74, 55
3, 41777, Control_c, 0, 64, 127
3, 41880, Note_on_c, 0, 74, 0
3, 42480, Note_on_c, 0, 62, 50
3, 42528, Control_c, 0, 64, 0
3, 42600, Note_on_c, 0, 62, 0
3, 42960, Note_on_c, 0, 79, 50
3, 43020, Note_on_c, 0, 79, 0
3, 43020, Note_on_c, 0, 83, 46
3, 43080, Note_on_c, 0, 83, 0
3, 43080, Note_on_c, 0, 79, 50
3, 43140, Note_on_c, 0, 79, 0
3, 43140, Note_on_c, 0, 83, 46
3, 43200, Note_on_c, 0, 83, 0
3, 43200, Note_on_c, 0, 79, 57
3, 43223, Control_c, 0, 64, 127
3, 43320, Note_on_c, 0, 79, 0
3, 43920, Note_on_c, 0, 67, 45
3, 43972, Control_c, 0, 64, 0
3, 44040, Note_on_c, 0, 67, 0
3, 44400, Note_on_c, 0, 74, 55
3, 44460, Note_on_c, 0, 74, 0
3, 44460, Note_on_c, 0, 77, 49
3, 44520, Note_on_c, 0, 77, 0
3, 44520, Note_on_c, 0, 74, 55
3, 44580, Note_on_c, 0, 74, 0
3, 44580, Note_on_c, 0, 77, 50
3, 44640, Note_on_c, 0, 77, 0
3, 44640, Note_on_c, 0, 74, 58
3, 44760, Note_on_c, 0, 74, 0
3, 45120, Note_on_c, 0, 70, 55
3, 45180, Note_on_c, 0, 70, 0
3, 45180, Note_on_c, 0, 74, 51
3, 45240, Note_on_c, 0, 74, 0
3, 45240, Note_on_c, 0, 70, 55
3, 45300, Note_on_c, 0, 70, 0
3, 45300, Note_on_c, 0, 74, 50
3, 45360, Note_on_c, 0, 74, 0
3, 45360, Note_on_c, 0, 70, 62
3, 45480, Note_on_c, 0, 70, 0
3, 45840, Note_on_c, 0, 74, 56
3, 45900, Note_on_c, 0, 74, 0
3, 45900, Note_on_c, 0, 77, 50
3, 45960, Note_on_c, 0, 77, 0
3, 45960, Note_on_c, 0, 74, 56
3, 46020, Note_on_c, 0, 74, 0
3, 46020, Note_on_c, 0, 77, 51
3, 46080, Note_on_c, 0, 77, 0
3, 46080, Note_on_c, 0, 74, 64
3, 46103, Control_c, 0, 64, 127
3, 46200, Note_on_c, 0, 74, 0
3, 46800, Note_on_c, 0, 62, 50
3, 46872, Control_c, 0, 64, 0
3, 46920, Note_on_c, 0, 62, 0
3, 47280, Note_on_c, 0, 73, 55
3, 47340, Note_on_c, 0, 73, 0
3, 47340, Note_on_c, 0, 77, 50
3, 47400, Note_on_c, 0, 77, 0
3, 47400, Note_on_c, 0, 73, 55
3, 47460, Note_on_c, 0, 73, 0
3, 47460, Note_on_c, 0, 77, 51
3, 47520, Note_on_c, 0, 77, 0
3, 47520, Control_c, 0, 64, 127
3, 47520, Note_on_c, 0, 73, 73
3, 47640, Note_on_c, 0, 73, 0
3, 48240, Note_on_c, 0, 61, 52
3, 48296, Control_c, 0, 64, 0
3, 48360, Note_on_c, 0, 61, 0
3, 48720, Note_on_c, 0, 77, 56
3, 48780, Note_on_c, 0, 77, 0
3, 48780, Note_on_c, 0, 81, 50
3, 48840, Note_on_c, 0, 81, 0
3, 48840, Note_on_c, 0, 77, 56
3, 48900, Note_on_c, 0, 77, 0
3, 48900, Note_on_c, 0, 81, 51
3, 48960, Note_on_c, 0, 81, 0
3, 48960, Control_c, 0, 64, 127
3, 48960, Note_on_c, 0, 81, 74
3, 49080, Note_on_c, 0, 81, 0
3, 49680, Note_on_c, 0, 60, 54
3, 49756, Control_c, 0, 64, 0
3, 49800, Note_on_c, 0, 60, 0
3, 50400, Control_c, 0, 64, 127
3, 50400, Note_on_c, 0, 67, 54
3, 50400, Note_on_c, 0, 57, 54
3, 50520, Note_on_c, 0, 57, 0
3, 50520, Note_on_c, 0, 67, 0
3, 51120, Note_on_c, 0, 67, 54
3, 51120, Note_on_c, 0, 57, 54
3, 51240, Note_on_c, 0, 57, 0
3, 51240, Note_on_c, 0, 67, 0
3, 51429, Control_c, 0, 64, 0
3, 51840, Control_c, 0, 64, 127
3, 52320, Note_on_c, 0, 57, 50
3, 52320, Note_on_c, 0, 50, 50
3, 52560, Note_on_c, 0, 50, 0
3, 52560, Note_on_c, 0, 57, 0
3, 52560, Note_on_c, 0, 50, 50
3, 52560, Note_on_c, 0, 57, 50
3, 52800, Note_on_c, 0, 57, 0
3, 52800, Note_on_c, 0, 50, 0
3, 52800, Control_c, 0, 64, 0
3, 53040, Control_c, 0, 91, 127
3, 53040, Note_on_c, 0, 46, 42
3, 53100, Note_on_c, 0, 46, 0
3, 53100, Note_on_c, 0, 48, 42
3, 53160, Note_on_c, 0, 48, 0
3, 53160, Note_on_c, 0, 46, 42
3, 53220, Note_on_c, 0, 46, 0
3, 53220, Note_on_c, 0, 48, 42
3, 53280, Note_on_c, 0, 48, 0
3, 53280, Note_on_c, 0, 46, 61
3, 54480, Note_on_c, 0, 46, 0
3, 54480, Note_on_c, 0, 46, 43
3, 54540, Note_on_c, 0, 46, 0
3, 54540, Note_on_c, 0, 48, 43
3, 54600, Note_on_c, 0, 48, 0
3, 54600, Note_on_c, 0, 46, 43
3, 54660, Note_on_c, 0, 46, 0
3, 54660, Note_on_c, 0, 48, 43
3, 54720, Note_on_c, 0, 48, 0
3, 54720, Note_on_c, 0, 46, 61
3, 55920, Note_on_c, 0, 46, 0
3, 55920, Note_on_c, 0, 46, 42
3, 55980, Note_on_c, 0, 46, 0
3, 55980, Note_on_c, 0, 48, 42
3, 56040, Note_on_c, 0, 48, 0
3, 56040, Note_on_c, 0, 46, 42
3, 56100, Note_on_c, 0, 46, 0
3, 56100, Note_on_c, 0, 48, 40
3, 56160, Note_on_c, 0, 48, 0
3, 56160, Note_on_c, 0, 46, 64
3, 56400, Note_on_c, 0, 46, 0
3, 56520, Note_on_c, 0, 46, 45
3, 56640, Note_on_c, 0, 46, 0
3, 56640, Note_on_c, 0, 48, 45
3, 56760, Note_on_c, 0, 48, 0
3, 56880, Note_on_c, 0, 46, 63
3, 57120, Note_on_c, 0, 46, 0
3, 57240, Note_on_c, 0, 46, 43
3, 57360, Note_on_c, 0, 46, 0
3, 57360, Note_on_c, 0, 48, 43
3, 57480, Note_on_c, 0, 48, 0
3, 57600, Note_on_c, 0, 45, 60
3, 58560, Note_on_c, 0, 45, 0
3, 58560, Note_on_c, 0, 42, 48
3, 58680, Note_on_c, 0, 42, 0
3, 58800, Note_on_c, 0, 44, 48
3, 58920, Note_on_c, 0, 44, 0
3, 59040, Note_on_c, 0, 40, 64
3, 59040, Control_c, 0, 91, 127
3, 59280, Note_on_c, 0, 40, 0
3, 59520, Note_on_c, 0, 61, 76
3, 59520, Note_on_c, 0, 64, 76
3, 59760, Note_on_c, 0, 64, 0
3, 59760, Note_on_c, 0, 61, 0
3, 59760, Note_on_c, 0, 63, 67
3, 59760, Note_on_c, 0, 60, 67
3, 59880, Note_on_c, 0, 60, 0
3, 59880, Note_on_c, 0, 63, 0
3, 60240, Note_on_c, 0, 62, 73
3, 60240, Note_on_c, 0, 59, 73
3, 60480, Note_on_c, 0, 59, 0
3, 60480, Note_on_c, 0, 62, 0
3, 60480, Note_on_c, 0, 58, 67
3, 60480, Note_on_c, 0, 61, 67
3, 60600, Note_on_c, 0, 61, 0
3, 60600, Note_on_c, 0, 58, 0
3, 60960, Note_on_c, 0, 60, 70
3, 60960, Note_on_c, 0, 57, 70
3, 61200, Note_on_c, 0, 57, 0
3, 61200, Note_on_c, 0, 60, 0
3, 61200, Note_on_c, 0, 59, 62
3, 61200, Note_on_c, 0, 56, 62
3, 61320, Note_on_c, 0, 56, 0
3, 61320, Note_on_c, 0, 59, 0
3, 61680, Note_on_c, 0, 54, 68
3, 61680, Note_on_c, 0, 57, 68
3, 61920, Note_on_c, 0, 54, 0
3, 61920, Note_on_c, 0, 53, 61
3, 62040, Note_on_c, 0, 53, 0
3, 62040, Note_on_c, 0, 57, 0
3, 62400, Note_on_c, 0, 57, 64
3, 62400, Note_on_c, 0, 52, 64
3, 62640, Note_on_c, 0, 52, 0
3, 62640, Note_on_c, 0, 51, 58
3, 62760, Note_on_c, 0, 51, 0
3, 62760, Note_on_c, 0, 57, 0
3, 63120, Note_on_c, 0, 50, 62
3, 63120, Note_on_c, 0, 52, 62
3, 63360, Note_on_c, 0, 52, 0
3, 63360, Note_on_c, 0, 49, 56
3, 63480, Note_on_c, 0, 49, 0
3, 63480, Note_on_c, 0, 50, 0
3, 63720, Note_on_c, 0, 40, 67
3, 63840, Note_on_c, 0, 40, 0
3, 63840, Note_on_c, 0, 45, 75
3, 63960, Note_on_c, 0, 45, 0
3, 64080, Note_on_c, 0, 33, 64
3, 64200, Note_on_c, 0, 33, 0
3, 64560, Note_on_c, 0, 64, 72
3, 64560, Note_on_c, 0, 62, 72
3, 64800, Note_on_c, 0, 62, 0
3, 64800, Note_on_c, 0, 61, 64
3, 64920, Note_on_c, 0, 61, 0
3, 64920, Note_on_c, 0, 64, 0
3, 65160, Note_on_c, 0, 52, 61
3, 65280, Note_on_c, 0, 52, 0
3, 65280, Note_on_c, 0, 57, 72
3, 65400, Note_on_c, 0, 57, 0
3, 65520, Note_on_c, 0, 45, 56
3, 65640, Note_on_c, 0, 45, 0
3, 66000, Note_on_c, 0, 74, 81
3, 66000, Note_on_c, 0, 76, 81
3, 66240, Note_on_c, 0, 74, 0
3, 66240, Note_on_c, 0, 73, 74
3, 66360, Note_on_c, 0, 73, 0
3, 66360, Note_on_c, 0, 76, 0
3, 66600, Note_on_c, 0, 64, 69
3, 66720, Note_on_c, 0, 64, 0
3, 66720, Note_on_c, 0, 69, 76
3, 66840, Note_on_c, 0, 69, 0
3, 66960, Note_on_c, 0, 57, 55
3, 67080, Note_on_c, 0, 57, 0
3, 67440, Note_on_c, 0, 88, 86
3, 67440, Note_on_c, 0, 86, 86
3, 67680, Note_on_c, 0, 86, 0
3, 67680, Note_on_c, 0, 85, 80
3, 67800, Note_on_c, 0, 85, 0
3, 67800, Note_on_c, 0, 88, 0
3, 68160, Note_on_c, 0, 74, 80
3, 68160, Note_on_c, 0, 76, 80
3, 68400, Note_on_c, 0, 74, 0
3, 68400, Note_on_c, 0, 73, 68
3, 68520, Note_on_c, 0, 73, 0
3, 68520, Note_on_c, 0, 76, 0
3, 68880, Note_on_c, 0, 64, 68
3, 68880, Note_on_c, 0, 62, 68
3, 69120, Note_on_c, 0, 62, 0
3, 69120, Note_on_c, 0, 61, 56
3, 69240, Note_on_c, 0, 61, 0
3, 69240, Note_on_c, 0, 64, 0
3, 69600, Note_on_c, 0, 52, 55
3, 69600, Note_on_c, 0, 50, 55
3, 69840, Note_on_c, 0, 50, 0
3, 69840, Note_on_c, 0, 49, 44
3, 69960, Note_on_c, 0, 49, 0
3, 69960, Note_on_c, 0, 52, 0
3, 70320, Note_on_c, 0, 74, 48
3, 70380, Note_on_c, 0, 74, 0
3, 70380, Note_on_c, 0, 77, 43
3, 70440, Note_on_c, 0, 77, 0
3, 70440, Note_on_c, 0, 74, 48
3, 70500, Note_on_c, 0, 74, 0
3, 70500, Note_on_c, 0, 77, 43
3, 70560, Note_on_c, 0, 77, 0
3, 70560, Note_on_c, 0, 74, 55
3, 70594, Control_c, 0, 64, 127
3, 70680, Note_on_c, 0, 74, 0
3, 71280, Note_on_c, 0, 62, 50
3, 71328, Control_c, 0, 64, 0
3, 71400, Note_on_c, 0, 62, 0
3, 71760, Note_on_c, 0, 79, 50
3, 71820, Note_on_c, 0, 79, 0
3, 71820, Note_on_c, 0, 83, 46
3, 71880, Note_on_c, 0, 83, 0
3, 71880, Note_on_c, 0, 79, 50
3, 71940, Note_on_c, 0, 79, 0
3, 71940, Note_on_c, 0, 83, 46
3, 72000, Note_on_c, 0, 83, 0
3, 72000, Note_on_c, 0, 79, 57
3, 72020, Control_c, 0, 64, 127
3, 72120, Note_on_c, 0, 79, 0
3, 72720, Note_on_c, 0, 67, 45
3, 72772, Control_c, 0, 64, 0
3, 72840, Note_on_c, 0, 67, 0
3, 73200, Note_on_c, 0, 74, 55
3, 73260, Note_on_c, 0, 74, 0
3, 73260, Note_on_c, 0, 77, 49
3, 73320, Note_on_c, 0, 77, 0
3, 73320, Note_on_c, 0, 74, 55
3, 73380, Note_on_c, 0, 74, 0
3, 73380, Note_on_c, 0, 77, 50
3, 73440, Note_on_c, 0, 77, 0
3, 73440, Note_on_c, 0, 74, 58
3, 73560, Note_on_c, 0, 74, 0
3, 73920, Note_on_c, 0, 70, 55
3, 73980, Note_on_c, 0, 70, 0
3, 73980, Note_on_c, 0, 74, 51
3, 74040, Note_on_c, 0, 74, 0
3, 74040, Note_on_c, 0, 70, 55
3, 74100, Note_on_c, 0, 70, 0
3, 74100, Note_on_c, 0, 74, 50
3, 74160, Note_on_c, 0, 74, 0
3, 74160, Note_on_c, 0, 70, 62
3, 74280, Note_on_c, 0, 70, 0
3, 74640, Note_on_c, 0, 74, 56
3, 74700, Note_on_c, 0, 74, 0
3, 74700, Note_on_c, 0, 77, 50
3, 74760, Note_on_c, 0, 77, 0
3, 74760, Note_on_c, 0, 74, 56
3, 74820, Note_on_c, 0, 74, 0
3, 74820, Note_on_c, 0, 77, 51
3, 74880, Note_on_c, 0, 77, 0
3, 74880, Note_on_c, 0, 74, 64
3, 74903, Control_c, 0, 64, 127
3, 75000, Note_on_c, 0, 74, 0
3, 75600, Note_on_c, 0, 62, 50
3, 75672, Control_c, 0, 64, 0
3, 75720, Note_on_c, 0, 62, 0
3, 76080, Note_on_c, 0, 73, 55
3, 76140, Note_on_c, 0, 73, 0
3, 76140, Note_on_c, 0, 77, 50
3, 76200, Note_on_c, 0, 77, 0
3, 76200, Note_on_c, 0, 73, 55
3, 76260, Note_on_c, 0, 73, 0
3, 76260, Note_on_c, 0, 77, 51
3, 76320, Note_on_c, 0, 77, 0
3, 76320, Note_on_c, 0, 73, 73
3, 76346, Control_c, 0, 64, 127
3, 76440, Note_on_c, 0, 73, 0
3, 77040, Note_on_c, 0, 61, 52
3, 77096, Control_c, 0, 64, 0
3, 77160, Note_on_c, 0, 61, 0
3, 77520, Note_on_c, 0, 77, 56
3, 77580, Note_on_c, 0, 77, 0
3, 77580, Note_on_c, 0, 81, 50
3, 77640, Note_on_c, 0, 81, 0
3, 77640, Note_on_c, 0, 77, 56
3, 77700, Note_on_c, 0, 77, 0
3, 77700, Note_on_c, 0, 81, 51
3, 77760, Note_on_c, 0, 81, 0
3, 77760, Control_c, 0, 64, 127
3, 77760, Note_on_c, 0, 81, 74
3, 77880, Note_on_c, 0, 81, 0
3, 78480, Note_on_c, 0, 60, 54
3, 78556, Control_c, 0, 64, 0
3, 78600, Note_on_c, 0, 60, 0
3, 79200, Control_c, 0, 64, 127
3, 79200, Note_on_c, 0, 57, 54
3, 79200, Note_on_c, 0, 67, 54
3, 79320, Note_on_c, 0, 67, 0
3, 79320, Note_on_c, 0, 57, 0
3, 79920, Note_on_c, 0, 57, 54
3, 79920, Note_on_c, 0, 67, 54
3, 80040, Note_on_c, 0, 67, 0
3, 80040, Note_on_c, 0, 57, 0
3, 80217, Control_c, 0, 64, 0
3, 80640, Control_c, 0, 64, 127
3, 81120, Note_on_c, 0, 57, 50
3, 81120, Note_on_c, 0, 50, 50
3, 81360, Note_on_c, 0, 50, 0
3, 81360, Note_on_c, 0, 57, 0
3, 81360, Note_on_c, 0, 50, 50
3, 81360, Note_on_c, 0, 57, 50
3, 81600, Note_on_c, 0, 57, 0
3, 81600, Note_on_c, 0, 50, 0
3, 81600, Control_c, 0, 64, 0
3, 81840, Note_on_c, 0, 39, 45
3, 81900, Note_on_c, 0, 39, 0
3, 81900, Note_on_c, 0, 41, 45
3, 81960, Note_on_c, 0, 41, 0
3, 81960, Note_on_c, 0, 39, 45
3, 82020, Note_on_c, 0, 39, 0
3, 82020, Note_on_c, 0, 41, 45
3, 82080, Note_on_c, 0, 41, 0
3, 82080, Note_on_c, 0, 39, 76
3, 83280, Note_on_c, 0, 39, 0
3, 83280, Note_on_c, 0, 39, 45
3, 83340, Note_on_c, 0, 39, 0
3, 83340, Note_on_c, 0, 41, 45
3, 83400, Note_on_c, 0, 41, 0
3, 83400, Note_on_c, 0, 39, 45
3, 83460, Note_on_c, 0, 39, 0
3, 83460, Note_on_c, 0, 41, 45
3, 83520, Note_on_c, 0, 41, 0
3, 83520, Note_on_c, 0, 39, 76
3, 84720, Note_on_c, 0, 39, 0
3, 84720, Note_on_c, 0, 39, 42
3, 84780, Note_on_c, 0, 39, 0
3, 84780, Note_on_c, 0, 41, 42
3, 84840, Note_on_c, 0, 41, 0
3, 84840, Note_on_c, 0, 39, 42
3, 84900, Note_on_c, 0, 39, 0
3, 84900, Note_on_c, 0, 41, 42
3, 84960, Note_on_c, 0, 41, 0
3, 84960, Note_on_c, 0, 39, 75
3, 85200, Note_on_c, 0, 39, 0
3, 85320, Note_on_c, 0, 39, 57
3, 85440, Note_on_c, 0, 39, 0
3, 85440, Note_on_c, 0, 41, 57
3, 85560, Note_on_c, 0, 41, 0
3, 85680, Note_on_c, 0, 39, 74
3, 85920, Note_on_c, 0, 39, 0
3, 86040, Note_on_c, 0, 39, 54
3, 86160, Note_on_c, 0, 39, 0
3, 86160, Note_on_c, 0, 41, 54
3, 86280, Note_on_c, 0, 41, 0
3, 86400, Note_on_c, 0, 39, 64
3, 86640, Note_on_c, 0, 39, 0
3, 86760, Note_on_c, 0, 39, 45
3, 86880, Note_on_c, 0, 39, 0
3, 86880, Note_on_c, 0, 41, 45
3, 87000, Note_on_c, 0, 41, 0
3, 87120, Note_on_c, 0, 39, 55
3, 87360, Note_on_c, 0, 39, 0
3, 87480, Note_on_c, 0, 39, 36
3, 87600, Note_on_c, 0, 39, 0
3, 87600, Note_on_c, 0, 41, 36
3, 87720, Note_on_c, 0, 41, 0
3, 87840, Note_on_c, 0, 38, 49
3, 87840, Control_c, 0, 64, 127
3, 88080, Note_on_c, 0, 38, 0
3, 88200, Note_on_c, 0, 45, 37
3, 88320, Note_on_c, 0, 45, 0
3, 88320, Note_on_c, 0, 50, 37
3, 88440, Note_on_c, 0, 50, 0
3, 88560, Note_on_c, 0, 54, 43
3, 88680, Note_on_c, 0, 54, 0
3, 88920, Note_on_c, 0, 57, 39
3, 89040, Note_on_c, 0, 57, 0
3, 89040, Note_on_c, 0, 62, 39
3, 89160, Note_on_c, 0, 62, 0
3, 89280, Note_on_c, 0, 66, 44
3, 89400, Note_on_c, 0, 66, 0
3, 89640, Note_on_c, 0, 57, 42
3, 89760, Note_on_c, 0, 57, 0
3, 89760, Note_on_c, 0, 62, 42
3, 89880, Note_on_c, 0, 62, 0
3, 90000, Note_on_c, 0, 66, 45
3, 90120, Note_on_c, 0, 66, 0
3, 90360, Note_on_c, 0, 69, 42
3, 90480, Note_on_c, 0, 69, 0
3, 90480, Note_on_c, 0, 74, 42
3, 90600, Note_on_c, 0, 74, 0
3, 90720, Note_on_c, 0, 78, 43
3, 90840, Note_on_c, 0, 78, 0
3, 90956, Control_c, 0, 64, 0
3, 91440, Note_on_c, 0, 33, 38
3, 91440, Note_on_c, 0, 45, 38
3, 91440, Control_c, 0, 64, 127
3, 91560, Note_on_c, 0, 45, 0
3, 91560, Note_on_c, 0, 33, 0
3, 91708, Control_c, 0, 64, 0
3, 92160, Note_on_c, 0, 26, 38
3, 92160, Control_c, 0, 64, 127
3, 92160, Note_on_c, 0, 38, 38
3, 92280, Note_on_c, 0, 38, 0
3, 92280, Note_on_c, 0, 26, 0
3, 92428, Control_c, 0, 64, 0
3, 92428, End_track
4, 0, Start_track
4, 0, Title_t, "Grieg: Vöglein, Op. 43 No. 4"
4, 0, End_track
5, 0, Start_track
5, 0, Title_t, "Copyright © 1998 by Bernd Krueger"
5, 0, End_track
6, 0, Start_track
6, 0, Title_t, "http://www.piano-midi.de"
6, 0, End_track
7, 0, Start_track
7, 0, Title_t, "Edition: 2012-11-06"
7, 0, End_track
0, 0, End_of_file
