0, 0, Header, 1, 17, 480
1, 0, Start_track
1, 0, Title_t, "Haydn: Klaviersonate Hob. XVI:7, 1. Satz"
1, 0, Title_t, "Divertimento"
1, 0, Copyright_t, "Copyright © 2011 by Bernd Krueger"
1, 0, Text_t, "Bernd Krueger"
1, 0, Text_t, "Allegro moderato"
1, 0, Text_t, "Erstellt: 20.10.2011\012"
1, 0, Text_t, "Dauer: 1:03 Minuten\012"
1, 0, Time_signature, 2, 2, 24, 8
1, 0, Key_signature, 0, "major"
1, 0, Tempo, 675143
1, 0, Marker_t, "Teil 1"
1, 2160, Tempo, 682283
1, 2880, Tempo, 668226
1, 3322, Tempo, 685871
1, 3360, Tempo, 682283
1, 3379, Tempo, 678656
1, 3418, Tempo, 675143
1, 3437, Tempo, 671667
1, 3475, Tempo, 668226
1, 3495, Tempo, 664746
1, 3514, Tempo, 661376
1, 3840, Tempo, 664746
1, 4440, Tempo, 696945
1, 4560, Tempo, 664746
1, 4800, Tempo, 661376
1, 4920, Tempo, 693241
1, 5040, Tempo, 661376
1, 5400, Tempo, 696945
1, 5520, Tempo, 658039
1, 5760, Tempo, 671667
1, 5991, Tempo, 668226
1, 6221, Tempo, 664746
1, 6432, Tempo, 661376
1, 6600, Tempo, 693241
1, 6720, Tempo, 668226
1, 7080, Tempo, 708383
1, 7200, Tempo, 664746
1, 7560, Tempo, 712251
1, 7680, Tempo, 664746
1, 8040, Tempo, 693241
1, 8160, Tempo, 678656
1, 8199, Tempo, 675143
1, 8237, Tempo, 671667
1, 8256, Tempo, 668226
1, 8295, Tempo, 664746
1, 8314, Tempo, 661376
1, 8352, Tempo, 658039
1, 8371, Tempo, 648158
1, 8391, Tempo, 651395
1, 8410, Tempo, 654664
1, 8429, Tempo, 658039
1, 8448, Tempo, 664746
1, 8467, Tempo, 668226
1, 8487, Tempo, 671667
1, 8506, Tempo, 675143
1, 8525, Tempo, 682283
1, 8544, Tempo, 685871
1, 8563, Tempo, 689497
1, 8583, Tempo, 693241
1, 8602, Tempo, 700689
1, 8640, Tempo, 740741
1, 8880, Tempo, 790410
1, 9600, Tempo, 675143
1, 9600, Marker_t, "Teil 1 Wiederholung"
1, 11760, Tempo, 685714
1, 12480, Tempo, 668226
1, 12922, Tempo, 685871
1, 12960, Tempo, 682283
1, 12979, Tempo, 678656
1, 13018, Tempo, 675143
1, 13037, Tempo, 671667
1, 13075, Tempo, 668226
1, 13095, Tempo, 664746
1, 13114, Tempo, 661376
1, 13440, Tempo, 664746
1, 13920, Tempo, 655738
1, 14040, Tempo, 696945
1, 14160, Tempo, 664746
1, 14400, Tempo, 652174
1, 14520, Tempo, 693241
1, 14640, Tempo, 661376
1, 15000, Tempo, 696945
1, 15120, Tempo, 658039
1, 15360, Tempo, 671667
1, 15591, Tempo, 668226
1, 15629, Tempo, 659341
1, 15783, Tempo, 655738
1, 15936, Tempo, 652174
1, 16090, Tempo, 648649
1, 16200, Tempo, 693241
1, 16320, Tempo, 668226
1, 16680, Tempo, 708383
1, 16800, Tempo, 664746
1, 17160, Tempo, 745342
1, 17280, Tempo, 664746
1, 17640, Tempo, 693241
1, 17760, Tempo, 678656
1, 17799, Tempo, 675143
1, 17837, Tempo, 671667
1, 17856, Tempo, 668226
1, 17895, Tempo, 664746
1, 17914, Tempo, 661376
1, 17952, Tempo, 658039
1, 17971, Tempo, 648158
1, 17991, Tempo, 651395
1, 18010, Tempo, 654664
1, 18029, Tempo, 658039
1, 18048, Tempo, 664746
1, 18067, Tempo, 668226
1, 18087, Tempo, 671667
1, 18106, Tempo, 675143
1, 18125, Tempo, 682283
1, 18144, Tempo, 685871
1, 18163, Tempo, 689497
1, 18183, Tempo, 693241
1, 18202, Tempo, 700689
1, 18240, Tempo, 740741
1, 18480, Tempo, 790410
1, 19200, Tempo, 675143
1, 19200, Marker_t, "Teil 2"
1, 19855, Tempo, 697674
1, 19893, Tempo, 693642
1, 19932, Tempo, 689655
1, 19970, Tempo, 685714
1, 20009, Tempo, 681818
1, 20047, Tempo, 677966
1, 20085, Tempo, 674157
1, 20124, Tempo, 670391
1, 20143, Tempo, 666667
1, 20160, Tempo, 689655
1, 20400, Tempo, 659341
1, 20520, Tempo, 697674
1, 20640, Tempo, 655738
1, 20760, Tempo, 681818
1, 20880, Tempo, 662983
1, 21000, Tempo, 697674
1, 21120, Tempo, 675143
1, 21602, Tempo, 714286
1, 21660, Tempo, 710059
1, 21698, Tempo, 705882
1, 21756, Tempo, 701754
1, 21794, Tempo, 697674
1, 21833, Tempo, 693642
1, 21890, Tempo, 689655
1, 21929, Tempo, 685714
1, 21986, Tempo, 681818
1, 22025, Tempo, 677966
1, 22063, Tempo, 674157
1, 22080, Tempo, 697674
1, 22320, Tempo, 659341
1, 22440, Tempo, 697674
1, 22560, Tempo, 659341
1, 22680, Tempo, 697674
1, 22800, Tempo, 670391
1, 22920, Tempo, 697674
1, 23040, Tempo, 661376
1, 23160, Tempo, 693241
1, 23280, Tempo, 661376
1, 23640, Tempo, 696945
1, 23760, Tempo, 658039
1, 24000, Tempo, 705882
1, 24501, Tempo, 697674
1, 24597, Tempo, 693642
1, 24674, Tempo, 689655
1, 24770, Tempo, 685714
1, 24847, Tempo, 681818
1, 24924, Tempo, 677966
1, 24960, Tempo, 675143
1, 27120, Tempo, 682283
1, 27840, Tempo, 668226
1, 28282, Tempo, 685871
1, 28320, Tempo, 682283
1, 28339, Tempo, 678656
1, 28378, Tempo, 675143
1, 28397, Tempo, 671667
1, 28435, Tempo, 668226
1, 28455, Tempo, 664746
1, 28474, Tempo, 661376
1, 28800, Tempo, 661376
1, 28920, Tempo, 693241
1, 29040, Tempo, 661376
1, 29400, Tempo, 696945
1, 29520, Tempo, 658039
1, 29760, Tempo, 668226
1, 30202, Tempo, 685871
1, 30240, Tempo, 682283
1, 30259, Tempo, 678656
1, 30298, Tempo, 675143
1, 30317, Tempo, 671667
1, 30355, Tempo, 668226
1, 30375, Tempo, 664746
1, 30394, Tempo, 661376
1, 30720, Tempo, 750000
1, 30960, Tempo, 833333
1, 31200, Tempo, 727273
1, 31680, Tempo, 675143
1, 31680, Marker_t, "Teil 2 Wiederholung"
1, 32335, Tempo, 697674
1, 32373, Tempo, 693642
1, 32412, Tempo, 689655
1, 32450, Tempo, 685714
1, 32489, Tempo, 681818
1, 32527, Tempo, 677966
1, 32565, Tempo, 674157
1, 32604, Tempo, 670391
1, 32623, Tempo, 666667
1, 32640, Tempo, 689655
1, 32880, Tempo, 638298
1, 33000, Tempo, 697674
1, 33120, Tempo, 641711
1, 33240, Tempo, 681818
1, 33360, Tempo, 662983
1, 33480, Tempo, 731707
1, 33600, Tempo, 675143
1, 34082, Tempo, 714286
1, 34140, Tempo, 710059
1, 34178, Tempo, 705882
1, 34236, Tempo, 701754
1, 34274, Tempo, 697674
1, 34313, Tempo, 693642
1, 34370, Tempo, 689655
1, 34409, Tempo, 685714
1, 34466, Tempo, 681818
1, 34505, Tempo, 677966
1, 34543, Tempo, 674157
1, 34560, Tempo, 697674
1, 34800, Tempo, 648649
1, 34920, Tempo, 697674
1, 35040, Tempo, 645161
1, 35160, Tempo, 697674
1, 35280, Tempo, 659341
1, 35400, Tempo, 697674
1, 35520, Tempo, 661376
1, 35640, Tempo, 693241
1, 35760, Tempo, 661376
1, 36120, Tempo, 696945
1, 36240, Tempo, 658039
1, 36360, Tempo, 722892
1, 36480, Tempo, 705882
1, 36981, Tempo, 697674
1, 37077, Tempo, 693642
1, 37154, Tempo, 689655
1, 37250, Tempo, 685714
1, 37327, Tempo, 681818
1, 37404, Tempo, 677966
1, 37440, Tempo, 675143
1, 39600, Tempo, 682283
1, 40320, Tempo, 668226
1, 40762, Tempo, 685871
1, 40800, Tempo, 682283
1, 40819, Tempo, 678656
1, 40858, Tempo, 675143
1, 40877, Tempo, 671667
1, 40915, Tempo, 668226
1, 40935, Tempo, 664746
1, 40954, Tempo, 661376
1, 41280, Tempo, 670391
1, 41400, Tempo, 693241
1, 41520, Tempo, 652174
1, 41640, Tempo, 670391
1, 41880, Tempo, 696945
1, 42000, Tempo, 662983
1, 42240, Tempo, 681818
1, 42682, Tempo, 685871
1, 42720, Tempo, 682283
1, 42739, Tempo, 678656
1, 42778, Tempo, 675143
1, 42797, Tempo, 671667
1, 42835, Tempo, 668226
1, 42855, Tempo, 664746
1, 42874, Tempo, 661376
1, 42980, Tempo, 659341
1, 42999, Tempo, 662983
1, 43018, Tempo, 666667
1, 43037, Tempo, 670391
1, 43057, Tempo, 674157
1, 43076, Tempo, 681818
1, 43095, Tempo, 685714
1, 43114, Tempo, 689655
1, 43133, Tempo, 693642
1, 43153, Tempo, 697674
1, 43172, Tempo, 705882
1, 43200, Tempo, 851064
1, 43440, Tempo, 1071429
1, 43680, Tempo, 727273
1, 43680, End_track
2, 0, Start_track
2, 0, Title_t, "Piano right"
2, 0, Program_c, 0, 0
2, 0, Note_on_c, 0, 64, 67
2, 0, Note_on_c, 0, 67, 67
2, 0, Note_on_c, 0, 72, 80
2, 480, Note_on_c, 0, 72, 0
2, 480, Note_on_c, 0, 67, 0
2, 480, Note_on_c, 0, 64, 0
2, 480, Note_on_c, 0, 74, 74
2, 480, Note_on_c, 0, 71, 63
2, 480, Note_on_c, 0, 67, 63
2, 540, Note_on_c, 0, 74, 0
2, 540, Note_on_c, 0, 76, 66
2, 600, Note_on_c, 0, 76, 0
2, 600, Note_on_c, 0, 74, 71
2, 660, Note_on_c, 0, 74, 0
2, 660, Note_on_c, 0, 76, 63
2, 720, Note_on_c, 0, 76, 0
2, 720, Note_on_c, 0, 74, 70
2, 780, Note_on_c, 0, 74, 0
2, 780, Note_on_c, 0, 76, 62
2, 840, Note_on_c, 0, 76, 0
2, 840, Note_on_c, 0, 74, 64
2, 880, Note_on_c, 0, 74, 0
2, 880, Note_on_c, 0, 76, 64
2, 920, Note_on_c, 0, 76, 0
2, 920, Note_on_c, 0, 74, 64
2, 960, Note_on_c, 0, 74, 0
2, 960, Note_on_c, 0, 67, 0
2, 960, Note_on_c, 0, 71, 0
2, 960, Note_on_c, 0, 76, 82
2, 960, Note_on_c, 0, 72, 70
2, 960, Note_on_c, 0, 67, 70
2, 1440, Note_on_c, 0, 67, 0
2, 1440, Note_on_c, 0, 72, 0
2, 1440, Note_on_c, 0, 76, 0
2, 1680, Note_on_c, 0, 72, 55
2, 1740, Note_on_c, 0, 72, 0
2, 1740, Note_on_c, 0, 74, 56
2, 1800, Note_on_c, 0, 74, 0
2, 1800, Note_on_c, 0, 76, 58
2, 1860, Note_on_c, 0, 76, 0
2, 1860, Note_on_c, 0, 77, 61
2, 1920, Note_on_c, 0, 77, 0
2, 1920, Note_on_c, 0, 79, 68
2, 2160, Note_on_c, 0, 79, 0
2, 2160, Note_on_c, 0, 84, 54
2, 2400, Note_on_c, 0, 84, 0
2, 2400, Note_on_c, 0, 83, 61
2, 2640, Note_on_c, 0, 83, 0
2, 2640, Note_on_c, 0, 81, 54
2, 2880, Note_on_c, 0, 81, 0
2, 2880, Note_on_c, 0, 79, 65
2, 3360, Note_on_c, 0, 79, 0
2, 3360, Note_on_c, 0, 77, 54
2, 3420, Note_on_c, 0, 77, 0
2, 3420, Note_on_c, 0, 79, 51
2, 3480, Note_on_c, 0, 79, 0
2, 3480, Note_on_c, 0, 77, 54
2, 3540, Note_on_c, 0, 77, 0
2, 3540, Note_on_c, 0, 79, 50
2, 3600, Note_on_c, 0, 79, 0
2, 3600, Note_on_c, 0, 77, 54
2, 3660, Note_on_c, 0, 77, 0
2, 3660, Note_on_c, 0, 79, 48
2, 3720, Note_on_c, 0, 79, 0
2, 3720, Note_on_c, 0, 77, 53
2, 3760, Note_on_c, 0, 77, 0
2, 3760, Note_on_c, 0, 79, 49
2, 3800, Note_on_c, 0, 79, 0
2, 3800, Note_on_c, 0, 77, 50
2, 3840, Note_on_c, 0, 77, 0
2, 3840, Note_on_c, 0, 76, 66
2, 4320, Note_on_c, 0, 76, 0
2, 4320, Note_on_c, 0, 76, 59
2, 4440, Note_on_c, 0, 76, 0
2, 4440, Note_on_c, 0, 72, 49
2, 4560, Note_on_c, 0, 72, 0
2, 4560, Note_on_c, 0, 79, 59
2, 4680, Note_on_c, 0, 79, 0
2, 4680, Note_on_c, 0, 76, 51
2, 4740, Note_on_c, 0, 76, 0
2, 4800, Note_on_c, 0, 76, 59
2, 4920, Note_on_c, 0, 76, 0
2, 4920, Note_on_c, 0, 74, 51
2, 5040, Note_on_c, 0, 74, 0
2, 5040, Note_on_c, 0, 79, 56
2, 5160, Note_on_c, 0, 79, 0
2, 5160, Note_on_c, 0, 74, 47
2, 5220, Note_on_c, 0, 74, 0
2, 5280, Note_on_c, 0, 74, 59
2, 5400, Note_on_c, 0, 74, 0
2, 5400, Note_on_c, 0, 72, 48
2, 5520, Note_on_c, 0, 72, 0
2, 5520, Note_on_c, 0, 81, 57
2, 5640, Note_on_c, 0, 81, 0
2, 5640, Note_on_c, 0, 72, 49
2, 5700, Note_on_c, 0, 72, 0
2, 5760, Note_on_c, 0, 71, 56
2, 5880, Note_on_c, 0, 71, 0
2, 5880, Note_on_c, 0, 67, 47
2, 6000, Note_on_c, 0, 67, 0
2, 6000, Note_on_c, 0, 72, 56
2, 6120, Note_on_c, 0, 72, 0
2, 6120, Note_on_c, 0, 67, 48
2, 6240, Note_on_c, 0, 67, 0
2, 6240, Note_on_c, 0, 74, 57
2, 6360, Note_on_c, 0, 74, 0
2, 6360, Note_on_c, 0, 67, 52
2, 6480, Note_on_c, 0, 67, 0
2, 6480, Note_on_c, 0, 76, 62
2, 6600, Note_on_c, 0, 76, 0
2, 6600, Note_on_c, 0, 67, 55
2, 6720, Note_on_c, 0, 67, 0
2, 6720, Note_on_c, 0, 74, 63
2, 6840, Note_on_c, 0, 74, 0
2, 6840, Note_on_c, 0, 79, 55
2, 6900, Note_on_c, 0, 79, 0
2, 6960, Note_on_c, 0, 79, 55
2, 7020, Note_on_c, 0, 79, 0
2, 7080, Note_on_c, 0, 79, 55
2, 7140, Note_on_c, 0, 79, 0
2, 7200, Note_on_c, 0, 78, 59
2, 7320, Note_on_c, 0, 78, 0
2, 7320, Note_on_c, 0, 84, 58
2, 7380, Note_on_c, 0, 84, 0
2, 7440, Note_on_c, 0, 84, 60
2, 7500, Note_on_c, 0, 84, 0
2, 7560, Note_on_c, 0, 84, 54
2, 7620, Note_on_c, 0, 84, 0
2, 7680, Note_on_c, 0, 84, 63
2, 7800, Note_on_c, 0, 84, 0
2, 7800, Note_on_c, 0, 83, 59
2, 7920, Note_on_c, 0, 83, 0
2, 7920, Note_on_c, 0, 81, 56
2, 8040, Note_on_c, 0, 81, 0
2, 8040, Note_on_c, 0, 79, 49
2, 8160, Note_on_c, 0, 79, 0
2, 8160, Note_on_c, 0, 81, 54
2, 8220, Note_on_c, 0, 81, 0
2, 8220, Note_on_c, 0, 83, 51
2, 8280, Note_on_c, 0, 83, 0
2, 8280, Note_on_c, 0, 81, 54
2, 8340, Note_on_c, 0, 81, 0
2, 8340, Note_on_c, 0, 83, 50
2, 8400, Note_on_c, 0, 83, 0
2, 8400, Note_on_c, 0, 81, 54
2, 8460, Note_on_c, 0, 81, 0
2, 8460, Note_on_c, 0, 83, 48
2, 8520, Note_on_c, 0, 83, 0
2, 8520, Note_on_c, 0, 81, 53
2, 8560, Note_on_c, 0, 81, 0
2, 8560, Note_on_c, 0, 83, 49
2, 8600, Note_on_c, 0, 83, 0
2, 8600, Note_on_c, 0, 81, 50
2, 8640, Note_on_c, 0, 81, 0
2, 8640, Note_on_c, 0, 79, 66
2, 9120, Note_on_c, 0, 79, 0
2, 9600, Note_on_c, 0, 64, 67
2, 9600, Note_on_c, 0, 67, 67
2, 9600, Note_on_c, 0, 72, 80
2, 10080, Note_on_c, 0, 72, 0
2, 10080, Note_on_c, 0, 67, 0
2, 10080, Note_on_c, 0, 64, 0
2, 10080, Note_on_c, 0, 74, 74
2, 10080, Note_on_c, 0, 71, 63
2, 10080, Note_on_c, 0, 67, 63
2, 10140, Note_on_c, 0, 74, 0
2, 10140, Note_on_c, 0, 76, 66
2, 10200, Note_on_c, 0, 76, 0
2, 10200, Note_on_c, 0, 74, 71
2, 10260, Note_on_c, 0, 74, 0
2, 10260, Note_on_c, 0, 76, 63
2, 10320, Note_on_c, 0, 76, 0
2, 10320, Note_on_c, 0, 74, 70
2, 10380, Note_on_c, 0, 74, 0
2, 10380, Note_on_c, 0, 76, 62
2, 10440, Note_on_c, 0, 76, 0
2, 10440, Note_on_c, 0, 74, 64
2, 10480, Note_on_c, 0, 74, 0
2, 10480, Note_on_c, 0, 76, 64
2, 10520, Note_on_c, 0, 76, 0
2, 10520, Note_on_c, 0, 74, 64
2, 10560, Note_on_c, 0, 74, 0
2, 10560, Note_on_c, 0, 67, 0
2, 10560, Note_on_c, 0, 71, 0
2, 10560, Note_on_c, 0, 76, 82
2, 10560, Note_on_c, 0, 72, 70
2, 10560, Note_on_c, 0, 67, 70
2, 11040, Note_on_c, 0, 67, 0
2, 11040, Note_on_c, 0, 72, 0
2, 11040, Note_on_c, 0, 76, 0
2, 11280, Note_on_c, 0, 72, 55
2, 11340, Note_on_c, 0, 72, 0
2, 11340, Note_on_c, 0, 74, 56
2, 11400, Note_on_c, 0, 74, 0
2, 11400, Note_on_c, 0, 76, 58
2, 11460, Note_on_c, 0, 76, 0
2, 11460, Note_on_c, 0, 77, 61
2, 11520, Note_on_c, 0, 77, 0
2, 11520, Note_on_c, 0, 79, 68
2, 11760, Note_on_c, 0, 79, 0
2, 11760, Note_on_c, 0, 84, 54
2, 12000, Note_on_c, 0, 84, 0
2, 12000, Note_on_c, 0, 83, 61
2, 12240, Note_on_c, 0, 83, 0
2, 12240, Note_on_c, 0, 81, 54
2, 12480, Note_on_c, 0, 81, 0
2, 12480, Note_on_c, 0, 79, 65
2, 12960, Note_on_c, 0, 79, 0
2, 12960, Note_on_c, 0, 77, 54
2, 13020, Note_on_c, 0, 77, 0
2, 13020, Note_on_c, 0, 79, 51
2, 13080, Note_on_c, 0, 79, 0
2, 13080, Note_on_c, 0, 77, 54
2, 13140, Note_on_c, 0, 77, 0
2, 13140, Note_on_c, 0, 79, 50
2, 13200, Note_on_c, 0, 79, 0
2, 13200, Note_on_c, 0, 77, 54
2, 13260, Note_on_c, 0, 77, 0
2, 13260, Note_on_c, 0, 79, 48
2, 13320, Note_on_c, 0, 79, 0
2, 13320, Note_on_c, 0, 77, 53
2, 13360, Note_on_c, 0, 77, 0
2, 13360, Note_on_c, 0, 79, 49
2, 13400, Note_on_c, 0, 79, 0
2, 13400, Note_on_c, 0, 77, 50
2, 13440, Note_on_c, 0, 77, 0
2, 13440, Note_on_c, 0, 76, 66
2, 13920, Note_on_c, 0, 76, 0
2, 13920, Note_on_c, 0, 76, 59
2, 14040, Note_on_c, 0, 76, 0
2, 14040, Note_on_c, 0, 72, 49
2, 14160, Note_on_c, 0, 72, 0
2, 14160, Note_on_c, 0, 79, 59
2, 14280, Note_on_c, 0, 79, 0
2, 14280, Note_on_c, 0, 76, 51
2, 14340, Note_on_c, 0, 76, 0
2, 14400, Note_on_c, 0, 76, 59
2, 14520, Note_on_c, 0, 76, 0
2, 14520, Note_on_c, 0, 74, 51
2, 14640, Note_on_c, 0, 74, 0
2, 14640, Note_on_c, 0, 79, 56
2, 14760, Note_on_c, 0, 79, 0
2, 14760, Note_on_c, 0, 74, 47
2, 14820, Note_on_c, 0, 74, 0
2, 14880, Note_on_c, 0, 74, 59
2, 15000, Note_on_c, 0, 74, 0
2, 15000, Note_on_c, 0, 72, 48
2, 15120, Note_on_c, 0, 72, 0
2, 15120, Note_on_c, 0, 81, 57
2, 15240, Note_on_c, 0, 81, 0
2, 15240, Note_on_c, 0, 72, 49
2, 15300, Note_on_c, 0, 72, 0
2, 15360, Note_on_c, 0, 71, 56
2, 15480, Note_on_c, 0, 71, 0
2, 15480, Note_on_c, 0, 67, 47
2, 15600, Note_on_c, 0, 67, 0
2, 15600, Note_on_c, 0, 72, 56
2, 15720, Note_on_c, 0, 72, 0
2, 15720, Note_on_c, 0, 67, 48
2, 15840, Note_on_c, 0, 67, 0
2, 15840, Note_on_c, 0, 74, 57
2, 15960, Note_on_c, 0, 74, 0
2, 15960, Note_on_c, 0, 67, 52
2, 16080, Note_on_c, 0, 67, 0
2, 16080, Note_on_c, 0, 76, 62
2, 16200, Note_on_c, 0, 76, 0
2, 16200, Note_on_c, 0, 67, 55
2, 16320, Note_on_c, 0, 67, 0
2, 16320, Note_on_c, 0, 74, 63
2, 16440, Note_on_c, 0, 74, 0
2, 16440, Note_on_c, 0, 79, 55
2, 16500, Note_on_c, 0, 79, 0
2, 16560, Note_on_c, 0, 79, 55
2, 16620, Note_on_c, 0, 79, 0
2, 16680, Note_on_c, 0, 79, 55
2, 16740, Note_on_c, 0, 79, 0
2, 16800, Note_on_c, 0, 78, 59
2, 16920, Note_on_c, 0, 78, 0
2, 16920, Note_on_c, 0, 84, 58
2, 16980, Note_on_c, 0, 84, 0
2, 17040, Note_on_c, 0, 84, 60
2, 17100, Note_on_c, 0, 84, 0
2, 17160, Note_on_c, 0, 84, 54
2, 17220, Note_on_c, 0, 84, 0
2, 17280, Note_on_c, 0, 84, 63
2, 17400, Note_on_c, 0, 84, 0
2, 17400, Note_on_c, 0, 83, 59
2, 17520, Note_on_c, 0, 83, 0
2, 17520, Note_on_c, 0, 81, 56
2, 17640, Note_on_c, 0, 81, 0
2, 17640, Note_on_c, 0, 79, 49
2, 17760, Note_on_c, 0, 79, 0
2, 17760, Note_on_c, 0, 81, 54
2, 17820, Note_on_c, 0, 81, 0
2, 17820, Note_on_c, 0, 83, 51
2, 17880, Note_on_c, 0, 83, 0
2, 17880, Note_on_c, 0, 81, 54
2, 17940, Note_on_c, 0, 81, 0
2, 17940, Note_on_c, 0, 83, 50
2, 18000, Note_on_c, 0, 83, 0
2, 18000, Note_on_c, 0, 81, 54
2, 18060, Note_on_c, 0, 81, 0
2, 18060, Note_on_c, 0, 83, 48
2, 18120, Note_on_c, 0, 83, 0
2, 18120, Note_on_c, 0, 81, 53
2, 18160, Note_on_c, 0, 81, 0
2, 18160, Note_on_c, 0, 83, 49
2, 18200, Note_on_c, 0, 83, 0
2, 18200, Note_on_c, 0, 81, 50
2, 18240, Note_on_c, 0, 81, 0
2, 18240, Note_on_c, 0, 79, 66
2, 18720, Note_on_c, 0, 79, 0
2, 19200, Note_on_c, 0, 79, 82
2, 19200, Note_on_c, 0, 74, 70
2, 19200, Note_on_c, 0, 71, 70
2, 19680, Note_on_c, 0, 71, 0
2, 19680, Note_on_c, 0, 74, 0
2, 19680, Note_on_c, 0, 79, 0
2, 19680, Note_on_c, 0, 67, 60
2, 19800, Note_on_c, 0, 67, 0
2, 19800, Note_on_c, 0, 69, 53
2, 19860, Note_on_c, 0, 69, 0
2, 19860, Note_on_c, 0, 71, 55
2, 19920, Note_on_c, 0, 71, 0
2, 19920, Note_on_c, 0, 72, 60
2, 19980, Note_on_c, 0, 72, 0
2, 19980, Note_on_c, 0, 74, 61
2, 20040, Note_on_c, 0, 74, 0
2, 20040, Note_on_c, 0, 76, 63
2, 20100, Note_on_c, 0, 76, 0
2, 20100, Note_on_c, 0, 78, 67
2, 20160, Note_on_c, 0, 78, 0
2, 20160, Note_on_c, 0, 79, 74
2, 20400, Note_on_c, 0, 79, 0
2, 20400, Note_on_c, 0, 84, 58
2, 20520, Note_on_c, 0, 84, 0
2, 20520, Note_on_c, 0, 79, 46
2, 20580, Note_on_c, 0, 79, 0
2, 20640, Note_on_c, 0, 79, 59
2, 20760, Note_on_c, 0, 79, 0
2, 20760, Note_on_c, 0, 77, 49
2, 20820, Note_on_c, 0, 77, 0
2, 20880, Note_on_c, 0, 77, 54
2, 21000, Note_on_c, 0, 77, 0
2, 21000, Note_on_c, 0, 76, 47
2, 21120, Note_on_c, 0, 76, 0
2, 21120, Note_on_c, 0, 77, 68
2, 21600, Note_on_c, 0, 77, 0
2, 21600, Note_on_c, 0, 67, 60
2, 21720, Note_on_c, 0, 67, 0
2, 21720, Note_on_c, 0, 69, 53
2, 21780, Note_on_c, 0, 69, 0
2, 21780, Note_on_c, 0, 71, 55
2, 21840, Note_on_c, 0, 71, 0
2, 21840, Note_on_c, 0, 72, 60
2, 21900, Note_on_c, 0, 72, 0
2, 21900, Note_on_c, 0, 74, 61
2, 21960, Note_on_c, 0, 74, 0
2, 21960, Note_on_c, 0, 76, 63
2, 22020, Note_on_c, 0, 76, 0
2, 22020, Note_on_c, 0, 78, 67
2, 22080, Note_on_c, 0, 78, 0
2, 22080, Note_on_c, 0, 79, 69
2, 22320, Note_on_c, 0, 79, 0
2, 22320, Note_on_c, 0, 86, 62
2, 22440, Note_on_c, 0, 86, 0
2, 22440, Note_on_c, 0, 84, 51
2, 22560, Note_on_c, 0, 84, 0
2, 22560, Note_on_c, 0, 83, 58
2, 22680, Note_on_c, 0, 83, 0
2, 22680, Note_on_c, 0, 81, 50
2, 22800, Note_on_c, 0, 81, 0
2, 22800, Note_on_c, 0, 79, 56
2, 22920, Note_on_c, 0, 79, 0
2, 22920, Note_on_c, 0, 77, 49
2, 23040, Note_on_c, 0, 77, 0
2, 23040, Note_on_c, 0, 76, 59
2, 23160, Note_on_c, 0, 76, 0
2, 23160, Note_on_c, 0, 72, 51
2, 23280, Note_on_c, 0, 72, 0
2, 23280, Note_on_c, 0, 79, 56
2, 23400, Note_on_c, 0, 79, 0
2, 23400, Note_on_c, 0, 76, 53
2, 23520, Note_on_c, 0, 76, 0
2, 23520, Note_on_c, 0, 81, 59
2, 23640, Note_on_c, 0, 81, 0
2, 23640, Note_on_c, 0, 69, 51
2, 23760, Note_on_c, 0, 69, 0
2, 23760, Note_on_c, 0, 77, 55
2, 23880, Note_on_c, 0, 77, 0
2, 23880, Note_on_c, 0, 74, 49
2, 24000, Note_on_c, 0, 74, 0
2, 24000, Note_on_c, 0, 72, 57
2, 24480, Note_on_c, 0, 72, 0
2, 24480, Note_on_c, 0, 71, 53
2, 24960, Note_on_c, 0, 71, 0
2, 24960, Note_on_c, 0, 64, 67
2, 24960, Note_on_c, 0, 67, 67
2, 24960, Note_on_c, 0, 72, 80
2, 25440, Note_on_c, 0, 72, 0
2, 25440, Note_on_c, 0, 67, 0
2, 25440, Note_on_c, 0, 64, 0
2, 25440, Note_on_c, 0, 74, 74
2, 25440, Note_on_c, 0, 71, 63
2, 25440, Note_on_c, 0, 67, 63
2, 25500, Note_on_c, 0, 74, 0
2, 25500, Note_on_c, 0, 76, 66
2, 25560, Note_on_c, 0, 76, 0
2, 25560, Note_on_c, 0, 74, 71
2, 25620, Note_on_c, 0, 74, 0
2, 25620, Note_on_c, 0, 76, 63
2, 25680, Note_on_c, 0, 76, 0
2, 25680, Note_on_c, 0, 74, 70
2, 25740, Note_on_c, 0, 74, 0
2, 25740, Note_on_c, 0, 76, 62
2, 25800, Note_on_c, 0, 76, 0
2, 25800, Note_on_c, 0, 74, 64
2, 25840, Note_on_c, 0, 74, 0
2, 25840, Note_on_c, 0, 76, 64
2, 25880, Note_on_c, 0, 76, 0
2, 25880, Note_on_c, 0, 74, 64
2, 25920, Note_on_c, 0, 74, 0
2, 25920, Note_on_c, 0, 67, 0
2, 25920, Note_on_c, 0, 71, 0
2, 25920, Note_on_c, 0, 76, 82
2, 25920, Note_on_c, 0, 72, 70
2, 25920, Note_on_c, 0, 67, 70
2, 26400, Note_on_c, 0, 67, 0
2, 26400, Note_on_c, 0, 72, 0
2, 26400, Note_on_c, 0, 76, 0
2, 26640, Note_on_c, 0, 72, 55
2, 26700, Note_on_c, 0, 72, 0
2, 26700, Note_on_c, 0, 74, 56
2, 26760, Note_on_c, 0, 74, 0
2, 26760, Note_on_c, 0, 76, 58
2, 26820, Note_on_c, 0, 76, 0
2, 26820, Note_on_c, 0, 77, 61
2, 26880, Note_on_c, 0, 77, 0
2, 26880, Note_on_c, 0, 79, 68
2, 27120, Note_on_c, 0, 79, 0
2, 27120, Note_on_c, 0, 84, 54
2, 27360, Note_on_c, 0, 84, 0
2, 27360, Note_on_c, 0, 83, 61
2, 27600, Note_on_c, 0, 83, 0
2, 27600, Note_on_c, 0, 81, 54
2, 27840, Note_on_c, 0, 81, 0
2, 27840, Note_on_c, 0, 79, 65
2, 28320, Note_on_c, 0, 79, 0
2, 28320, Note_on_c, 0, 77, 54
2, 28380, Note_on_c, 0, 77, 0
2, 28380, Note_on_c, 0, 79, 51
2, 28440, Note_on_c, 0, 79, 0
2, 28440, Note_on_c, 0, 77, 54
2, 28500, Note_on_c, 0, 77, 0
2, 28500, Note_on_c, 0, 79, 50
2, 28560, Note_on_c, 0, 79, 0
2, 28560, Note_on_c, 0, 77, 54
2, 28620, Note_on_c, 0, 77, 0
2, 28620, Note_on_c, 0, 79, 48
2, 28680, Note_on_c, 0, 79, 0
2, 28680, Note_on_c, 0, 77, 53
2, 28720, Note_on_c, 0, 77, 0
2, 28720, Note_on_c, 0, 79, 49
2, 28760, Note_on_c, 0, 79, 0
2, 28760, Note_on_c, 0, 77, 50
2, 28800, Note_on_c, 0, 77, 0
2, 28800, Note_on_c, 0, 76, 59
2, 28920, Note_on_c, 0, 76, 0
2, 28920, Note_on_c, 0, 72, 51
2, 29040, Note_on_c, 0, 72, 0
2, 29040, Note_on_c, 0, 79, 56
2, 29160, Note_on_c, 0, 79, 0
2, 29160, Note_on_c, 0, 76, 54
2, 29280, Note_on_c, 0, 76, 0
2, 29280, Note_on_c, 0, 81, 59
2, 29393, Note_on_c, 0, 77, 50
2, 29400, Note_on_c, 0, 81, 0
2, 29513, Note_on_c, 0, 77, 0
2, 29520, Note_on_c, 0, 76, 57
2, 29640, Note_on_c, 0, 76, 0
2, 29640, Note_on_c, 0, 74, 49
2, 29760, Note_on_c, 0, 74, 0
2, 29760, Note_on_c, 0, 72, 63
2, 30240, Note_on_c, 0, 72, 0
2, 30240, Note_on_c, 0, 74, 51
2, 30300, Note_on_c, 0, 74, 0
2, 30300, Note_on_c, 0, 76, 48
2, 30360, Note_on_c, 0, 76, 0
2, 30360, Note_on_c, 0, 74, 51
2, 30420, Note_on_c, 0, 74, 0
2, 30420, Note_on_c, 0, 76, 47
2, 30480, Note_on_c, 0, 76, 0
2, 30480, Note_on_c, 0, 74, 51
2, 30540, Note_on_c, 0, 74, 0
2, 30540, Note_on_c, 0, 76, 45
2, 30600, Note_on_c, 0, 76, 0
2, 30600, Note_on_c, 0, 74, 50
2, 30640, Note_on_c, 0, 74, 0
2, 30640, Note_on_c, 0, 76, 46
2, 30680, Note_on_c, 0, 76, 0
2, 30680, Note_on_c, 0, 74, 47
2, 30720, Note_on_c, 0, 74, 0
2, 30720, Note_on_c, 0, 72, 66
2, 31200, Note_on_c, 0, 72, 0
2, 31680, Note_on_c, 0, 79, 82
2, 31680, Note_on_c, 0, 74, 70
2, 31680, Note_on_c, 0, 71, 70
2, 32160, Note_on_c, 0, 71, 0
2, 32160, Note_on_c, 0, 74, 0
2, 32160, Note_on_c, 0, 79, 0
2, 32160, Note_on_c, 0, 67, 60
2, 32280, Note_on_c, 0, 67, 0
2, 32280, Note_on_c, 0, 69, 53
2, 32340, Note_on_c, 0, 69, 0
2, 32340, Note_on_c, 0, 71, 55
2, 32400, Note_on_c, 0, 71, 0
2, 32400, Note_on_c, 0, 72, 60
2, 32460, Note_on_c, 0, 72, 0
2, 32460, Note_on_c, 0, 74, 61
2, 32520, Note_on_c, 0, 74, 0
2, 32520, Note_on_c, 0, 76, 63
2, 32580, Note_on_c, 0, 76, 0
2, 32580, Note_on_c, 0, 78, 67
2, 32640, Note_on_c, 0, 78, 0
2, 32640, Note_on_c, 0, 79, 74
2, 32880, Note_on_c, 0, 79, 0
2, 32880, Note_on_c, 0, 84, 58
2, 33000, Note_on_c, 0, 84, 0
2, 33000, Note_on_c, 0, 79, 46
2, 33060, Note_on_c, 0, 79, 0
2, 33120, Note_on_c, 0, 79, 59
2, 33240, Note_on_c, 0, 79, 0
2, 33240, Note_on_c, 0, 77, 49
2, 33300, Note_on_c, 0, 77, 0
2, 33360, Note_on_c, 0, 77, 54
2, 33480, Note_on_c, 0, 77, 0
2, 33480, Note_on_c, 0, 76, 47
2, 33600, Note_on_c, 0, 76, 0
2, 33600, Note_on_c, 0, 77, 70
2, 34080, Note_on_c, 0, 77, 0
2, 34080, Note_on_c, 0, 67, 60
2, 34200, Note_on_c, 0, 67, 0
2, 34200, Note_on_c, 0, 69, 53
2, 34260, Note_on_c, 0, 69, 0
2, 34260, Note_on_c, 0, 71, 55
2, 34320, Note_on_c, 0, 71, 0
2, 34320, Note_on_c, 0, 72, 60
2, 34380, Note_on_c, 0, 72, 0
2, 34380, Note_on_c, 0, 74, 61
2, 34440, Note_on_c, 0, 74, 0
2, 34440, Note_on_c, 0, 76, 63
2, 34500, Note_on_c, 0, 76, 0
2, 34500, Note_on_c, 0, 78, 67
2, 34560, Note_on_c, 0, 78, 0
2, 34560, Note_on_c, 0, 79, 69
2, 34800, Note_on_c, 0, 79, 0
2, 34800, Note_on_c, 0, 86, 62
2, 34920, Note_on_c, 0, 86, 0
2, 34920, Note_on_c, 0, 84, 51
2, 35040, Note_on_c, 0, 84, 0
2, 35040, Note_on_c, 0, 83, 58
2, 35160, Note_on_c, 0, 83, 0
2, 35160, Note_on_c, 0, 81, 50
2, 35280, Note_on_c, 0, 81, 0
2, 35280, Note_on_c, 0, 79, 56
2, 35400, Note_on_c, 0, 79, 0
2, 35400, Note_on_c, 0, 77, 49
2, 35520, Note_on_c, 0, 77, 0
2, 35520, Note_on_c, 0, 76, 59
2, 35640, Note_on_c, 0, 76, 0
2, 35640, Note_on_c, 0, 72, 51
2, 35760, Note_on_c, 0, 72, 0
2, 35760, Note_on_c, 0, 79, 56
2, 35880, Note_on_c, 0, 79, 0
2, 35880, Note_on_c, 0, 76, 49
2, 36000, Note_on_c, 0, 76, 0
2, 36000, Note_on_c, 0, 81, 59
2, 36120, Note_on_c, 0, 81, 0
2, 36120, Note_on_c, 0, 69, 42
2, 36240, Note_on_c, 0, 69, 0
2, 36240, Note_on_c, 0, 77, 53
2, 36360, Note_on_c, 0, 77, 0
2, 36360, Note_on_c, 0, 74, 49
2, 36480, Note_on_c, 0, 74, 0
2, 36480, Note_on_c, 0, 72, 57
2, 36960, Note_on_c, 0, 72, 0
2, 36960, Note_on_c, 0, 71, 53
2, 37440, Note_on_c, 0, 71, 0
2, 37440, Note_on_c, 0, 64, 67
2, 37440, Note_on_c, 0, 67, 67
2, 37440, Note_on_c, 0, 72, 80
2, 37920, Note_on_c, 0, 72, 0
2, 37920, Note_on_c, 0, 67, 0
2, 37920, Note_on_c, 0, 64, 0
2, 37920, Note_on_c, 0, 74, 74
2, 37920, Note_on_c, 0, 71, 63
2, 37920, Note_on_c, 0, 67, 63
2, 37980, Note_on_c, 0, 74, 0
2, 37980, Note_on_c, 0, 76, 66
2, 38040, Note_on_c, 0, 76, 0
2, 38040, Note_on_c, 0, 74, 71
2, 38100, Note_on_c, 0, 74, 0
2, 38100, Note_on_c, 0, 76, 63
2, 38160, Note_on_c, 0, 76, 0
2, 38160, Note_on_c, 0, 74, 70
2, 38220, Note_on_c, 0, 74, 0
2, 38220, Note_on_c, 0, 76, 62
2, 38280, Note_on_c, 0, 76, 0
2, 38280, Note_on_c, 0, 74, 64
2, 38320, Note_on_c, 0, 74, 0
2, 38320, Note_on_c, 0, 76, 64
2, 38360, Note_on_c, 0, 76, 0
2, 38360, Note_on_c, 0, 74, 64
2, 38400, Note_on_c, 0, 74, 0
2, 38400, Note_on_c, 0, 67, 0
2, 38400, Note_on_c, 0, 71, 0
2, 38400, Note_on_c, 0, 76, 82
2, 38400, Note_on_c, 0, 72, 70
2, 38400, Note_on_c, 0, 67, 70
2, 38880, Note_on_c, 0, 67, 0
2, 38880, Note_on_c, 0, 72, 0
2, 38880, Note_on_c, 0, 76, 0
2, 39120, Note_on_c, 0, 72, 55
2, 39180, Note_on_c, 0, 72, 0
2, 39180, Note_on_c, 0, 74, 56
2, 39240, Note_on_c, 0, 74, 0
2, 39240, Note_on_c, 0, 76, 58
2, 39300, Note_on_c, 0, 76, 0
2, 39300, Note_on_c, 0, 77, 61
2, 39360, Note_on_c, 0, 77, 0
2, 39360, Note_on_c, 0, 79, 68
2, 39600, Note_on_c, 0, 79, 0
2, 39600, Note_on_c, 0, 84, 54
2, 39840, Note_on_c, 0, 84, 0
2, 39840, Note_on_c, 0, 83, 61
2, 40080, Note_on_c, 0, 83, 0
2, 40080, Note_on_c, 0, 81, 54
2, 40320, Note_on_c, 0, 81, 0
2, 40320, Note_on_c, 0, 79, 65
2, 40800, Note_on_c, 0, 79, 0
2, 40800, Note_on_c, 0, 77, 54
2, 40860, Note_on_c, 0, 77, 0
2, 40860, Note_on_c, 0, 79, 51
2, 40920, Note_on_c, 0, 79, 0
2, 40920, Note_on_c, 0, 77, 54
2, 40980, Note_on_c, 0, 77, 0
2, 40980, Note_on_c, 0, 79, 50
2, 41040, Note_on_c, 0, 79, 0
2, 41040, Note_on_c, 0, 77, 54
2, 41100, Note_on_c, 0, 77, 0
2, 41100, Note_on_c, 0, 79, 48
2, 41160, Note_on_c, 0, 79, 0
2, 41160, Note_on_c, 0, 77, 53
2, 41200, Note_on_c, 0, 77, 0
2, 41200, Note_on_c, 0, 79, 49
2, 41240, Note_on_c, 0, 79, 0
2, 41240, Note_on_c, 0, 77, 50
2, 41280, Note_on_c, 0, 77, 0
2, 41280, Note_on_c, 0, 76, 59
2, 41400, Note_on_c, 0, 76, 0
2, 41400, Note_on_c, 0, 72, 51
2, 41520, Note_on_c, 0, 72, 0
2, 41520, Note_on_c, 0, 79, 56
2, 41640, Note_on_c, 0, 79, 0
2, 41640, Note_on_c, 0, 76, 47
2, 41760, Note_on_c, 0, 76, 0
2, 41760, Note_on_c, 0, 81, 62
2, 41873, Note_on_c, 0, 77, 54
2, 41880, Note_on_c, 0, 81, 0
2, 41993, Note_on_c, 0, 77, 0
2, 42000, Note_on_c, 0, 76, 58
2, 42120, Note_on_c, 0, 76, 0
2, 42120, Note_on_c, 0, 74, 49
2, 42240, Note_on_c, 0, 74, 0
2, 42240, Note_on_c, 0, 72, 65
2, 42720, Note_on_c, 0, 72, 0
2, 42720, Note_on_c, 0, 74, 51
2, 42780, Note_on_c, 0, 74, 0
2, 42780, Note_on_c, 0, 76, 48
2, 42840, Note_on_c, 0, 76, 0
2, 42840, Note_on_c, 0, 74, 51
2, 42900, Note_on_c, 0, 74, 0
2, 42900, Note_on_c, 0, 76, 47
2, 42960, Note_on_c, 0, 76, 0
2, 42960, Note_on_c, 0, 74, 51
2, 43020, Note_on_c, 0, 74, 0
2, 43020, Note_on_c, 0, 76, 45
2, 43080, Note_on_c, 0, 76, 0
2, 43080, Note_on_c, 0, 74, 50
2, 43120, Note_on_c, 0, 74, 0
2, 43120, Note_on_c, 0, 76, 46
2, 43160, Note_on_c, 0, 76, 0
2, 43160, Note_on_c, 0, 74, 47
2, 43200, Note_on_c, 0, 74, 0
2, 43200, Note_on_c, 0, 72, 66
2, 43680, Note_on_c, 0, 72, 0
2, 43680, End_track
3, 0, Start_track
3, 0, Title_t, "Piano left"
3, 0, Program_c, 0, 0
3, 0, Note_on_c, 0, 60, 66
3, 0, Note_on_c, 0, 48, 56
3, 480, Note_on_c, 0, 48, 0
3, 480, Note_on_c, 0, 60, 0
3, 480, Note_on_c, 0, 55, 58
3, 480, Note_on_c, 0, 43, 49
3, 960, Note_on_c, 0, 43, 0
3, 960, Note_on_c, 0, 55, 0
3, 960, Note_on_c, 0, 48, 65
3, 960, Note_on_c, 0, 36, 55
3, 1440, Note_on_c, 0, 36, 0
3, 1440, Note_on_c, 0, 48, 0
3, 1920, Note_on_c, 0, 64, 42
3, 1920, Note_on_c, 0, 60, 35
3, 2160, Note_on_c, 0, 64, 0
3, 2160, Note_on_c, 0, 69, 30
3, 2400, Note_on_c, 0, 69, 0
3, 2400, Note_on_c, 0, 60, 0
3, 2400, Note_on_c, 0, 67, 38
3, 2640, Note_on_c, 0, 67, 0
3, 2640, Note_on_c, 0, 65, 33
3, 2880, Note_on_c, 0, 65, 0
3, 2880, Note_on_c, 0, 64, 53
3, 3120, Note_on_c, 0, 64, 0
3, 3120, Note_on_c, 0, 60, 32
3, 3360, Note_on_c, 0, 60, 0
3, 3360, Note_on_c, 0, 62, 47
3, 3600, Note_on_c, 0, 62, 0
3, 3600, Note_on_c, 0, 55, 32
3, 3840, Note_on_c, 0, 55, 0
3, 3840, Note_on_c, 0, 60, 46
3, 4080, Note_on_c, 0, 60, 0
3, 4080, Note_on_c, 0, 48, 35
3, 4320, Note_on_c, 0, 48, 0
3, 4560, Note_on_c, 0, 60, 40
3, 4800, Note_on_c, 0, 60, 0
3, 4800, Note_on_c, 0, 59, 46
3, 5040, Note_on_c, 0, 59, 0
3, 5040, Note_on_c, 0, 55, 38
3, 5280, Note_on_c, 0, 55, 0
3, 5280, Note_on_c, 0, 57, 46
3, 5520, Note_on_c, 0, 57, 0
3, 5520, Note_on_c, 0, 50, 42
3, 5760, Note_on_c, 0, 50, 0
3, 5760, Note_on_c, 0, 55, 45
3, 6000, Note_on_c, 0, 55, 0
3, 6000, Note_on_c, 0, 57, 45
3, 6240, Note_on_c, 0, 57, 0
3, 6240, Note_on_c, 0, 59, 45
3, 6480, Note_on_c, 0, 59, 0
3, 6480, Note_on_c, 0, 60, 47
3, 6720, Note_on_c, 0, 60, 0
3, 6720, Note_on_c, 0, 59, 53
3, 7200, Note_on_c, 0, 59, 0
3, 7200, Note_on_c, 0, 57, 46
3, 7440, Note_on_c, 0, 57, 0
3, 7440, Note_on_c, 0, 50, 40
3, 7680, Note_on_c, 0, 50, 0
3, 7680, Note_on_c, 0, 55, 46
3, 7920, Note_on_c, 0, 55, 0
3, 7920, Note_on_c, 0, 59, 39
3, 8160, Note_on_c, 0, 59, 0
3, 8160, Note_on_c, 0, 60, 46
3, 8400, Note_on_c, 0, 60, 0
3, 8400, Note_on_c, 0, 62, 41
3, 8640, Note_on_c, 0, 62, 0
3, 8640, Note_on_c, 0, 55, 46
3, 8880, Note_on_c, 0, 55, 0
3, 8880, Note_on_c, 0, 50, 39
3, 9120, Note_on_c, 0, 50, 0
3, 9120, Note_on_c, 0, 43, 46
3, 9540, Note_on_c, 0, 43, 0
3, 9600, Note_on_c, 0, 60, 66
3, 9600, Note_on_c, 0, 48, 56
3, 10080, Note_on_c, 0, 48, 0
3, 10080, Note_on_c, 0, 60, 0
3, 10080, Note_on_c, 0, 55, 58
3, 10080, Note_on_c, 0, 43, 49
3, 10560, Note_on_c, 0, 43, 0
3, 10560, Note_on_c, 0, 55, 0
3, 10560, Note_on_c, 0, 48, 65
3, 10560, Note_on_c, 0, 36, 55
3, 11040, Note_on_c, 0, 36, 0
3, 11040, Note_on_c, 0, 48, 0
3, 11520, Note_on_c, 0, 64, 42
3, 11520, Note_on_c, 0, 60, 35
3, 11760, Note_on_c, 0, 64, 0
3, 11760, Note_on_c, 0, 69, 30
3, 12000, Note_on_c, 0, 69, 0
3, 12000, Note_on_c, 0, 60, 0
3, 12000, Note_on_c, 0, 67, 38
3, 12240, Note_on_c, 0, 67, 0
3, 12240, Note_on_c, 0, 65, 33
3, 12480, Note_on_c, 0, 65, 0
3, 12480, Note_on_c, 0, 64, 53
3, 12720, Note_on_c, 0, 64, 0
3, 12720, Note_on_c, 0, 60, 32
3, 12960, Note_on_c, 0, 60, 0
3, 12960, Note_on_c, 0, 62, 47
3, 13200, Note_on_c, 0, 62, 0
3, 13200, Note_on_c, 0, 55, 32
3, 13440, Note_on_c, 0, 55, 0
3, 13440, Note_on_c, 0, 60, 46
3, 13680, Note_on_c, 0, 60, 0
3, 13680, Note_on_c, 0, 48, 35
3, 13920, Note_on_c, 0, 48, 0
3, 14160, Note_on_c, 0, 60, 40
3, 14400, Note_on_c, 0, 60, 0
3, 14400, Note_on_c, 0, 59, 46
3, 14640, Note_on_c, 0, 59, 0
3, 14640, Note_on_c, 0, 55, 38
3, 14880, Note_on_c, 0, 55, 0
3, 14880, Note_on_c, 0, 57, 46
3, 15120, Note_on_c, 0, 57, 0
3, 15120, Note_on_c, 0, 50, 42
3, 15360, Note_on_c, 0, 50, 0
3, 15360, Note_on_c, 0, 55, 45
3, 15600, Note_on_c, 0, 55, 0
3, 15600, Note_on_c, 0, 57, 45
3, 15840, Note_on_c, 0, 57, 0
3, 15840, Note_on_c, 0, 59, 45
3, 16080, Note_on_c, 0, 59, 0
3, 16080, Note_on_c, 0, 60, 47
3, 16320, Note_on_c, 0, 60, 0
3, 16320, Note_on_c, 0, 59, 53
3, 16800, Note_on_c, 0, 59, 0
3, 16800, Note_on_c, 0, 57, 46
3, 17040, Note_on_c, 0, 57, 0
3, 17040, Note_on_c, 0, 50, 40
3, 17280, Note_on_c, 0, 50, 0
3, 17280, Note_on_c, 0, 55, 46
3, 17520, Note_on_c, 0, 55, 0
3, 17520, Note_on_c, 0, 59, 39
3, 17760, Note_on_c, 0, 59, 0
3, 17760, Note_on_c, 0, 60, 46
3, 18000, Note_on_c, 0, 60, 0
3, 18000, Note_on_c, 0, 62, 41
3, 18240, Note_on_c, 0, 62, 0
3, 18240, Note_on_c, 0, 55, 46
3, 18480, Note_on_c, 0, 55, 0
3, 18480, Note_on_c, 0, 50, 39
3, 18720, Note_on_c, 0, 50, 0
3, 18720, Note_on_c, 0, 43, 46
3, 19140, Note_on_c, 0, 43, 0
3, 19200, Note_on_c, 0, 55, 65
3, 19200, Note_on_c, 0, 43, 55
3, 19680, Note_on_c, 0, 43, 0
3, 19680, Note_on_c, 0, 55, 0
3, 20160, Note_on_c, 0, 55, 38
3, 20400, Note_on_c, 0, 64, 30
3, 20640, Note_on_c, 0, 64, 0
3, 20640, Note_on_c, 0, 62, 38
3, 20880, Note_on_c, 0, 62, 0
3, 20880, Note_on_c, 0, 60, 33
3, 21120, Note_on_c, 0, 60, 0
3, 21120, Note_on_c, 0, 55, 0
3, 21120, Note_on_c, 0, 62, 51
3, 21120, Note_on_c, 0, 55, 51
3, 21600, Note_on_c, 0, 55, 0
3, 21600, Note_on_c, 0, 62, 0
3, 22320, Note_on_c, 0, 55, 30
3, 22560, Note_on_c, 0, 55, 0
3, 22560, Note_on_c, 0, 57, 35
3, 22800, Note_on_c, 0, 57, 0
3, 22800, Note_on_c, 0, 59, 33
3, 23040, Note_on_c, 0, 59, 0
3, 23040, Note_on_c, 0, 60, 46
3, 23280, Note_on_c, 0, 60, 0
3, 23280, Note_on_c, 0, 52, 38
3, 23520, Note_on_c, 0, 52, 0
3, 23520, Note_on_c, 0, 53, 46
3, 23760, Note_on_c, 0, 53, 0
3, 23760, Note_on_c, 0, 50, 42
3, 24000, Note_on_c, 0, 50, 0
3, 24000, Note_on_c, 0, 55, 46
3, 24240, Note_on_c, 0, 55, 0
3, 24240, Note_on_c, 0, 43, 38
3, 24480, Note_on_c, 0, 43, 0
3, 24480, Note_on_c, 0, 55, 49
3, 24600, Note_on_c, 0, 55, 0
3, 24600, Note_on_c, 0, 53, 47
3, 24720, Note_on_c, 0, 53, 0
3, 24720, Note_on_c, 0, 52, 46
3, 24840, Note_on_c, 0, 52, 0
3, 24840, Note_on_c, 0, 50, 38
3, 24960, Note_on_c, 0, 50, 0
3, 24960, Note_on_c, 0, 48, 66
3, 25440, Note_on_c, 0, 48, 0
3, 25440, Note_on_c, 0, 55, 58
3, 25920, Note_on_c, 0, 55, 0
3, 25920, Note_on_c, 0, 60, 65
3, 26400, Note_on_c, 0, 60, 0
3, 26880, Note_on_c, 0, 64, 42
3, 26880, Note_on_c, 0, 60, 35
3, 27120, Note_on_c, 0, 64, 0
3, 27120, Note_on_c, 0, 69, 30
3, 27360, Note_on_c, 0, 69, 0
3, 27360, Note_on_c, 0, 60, 0
3, 27360, Note_on_c, 0, 67, 38
3, 27600, Note_on_c, 0, 67, 0
3, 27600, Note_on_c, 0, 65, 33
3, 27840, Note_on_c, 0, 65, 0
3, 27840, Note_on_c, 0, 64, 53
3, 28080, Note_on_c, 0, 64, 0
3, 28080, Note_on_c, 0, 60, 32
3, 28320, Note_on_c, 0, 60, 0
3, 28320, Note_on_c, 0, 62, 47
3, 28560, Note_on_c, 0, 62, 0
3, 28560, Note_on_c, 0, 55, 32
3, 28800, Note_on_c, 0, 55, 0
3, 28800, Note_on_c, 0, 60, 46
3, 29040, Note_on_c, 0, 60, 0
3, 29040, Note_on_c, 0, 52, 38
3, 29280, Note_on_c, 0, 52, 0
3, 29280, Note_on_c, 0, 53, 46
3, 29760, Note_on_c, 0, 53, 0
3, 29760, Note_on_c, 0, 52, 53
3, 30000, Note_on_c, 0, 52, 0
3, 30000, Note_on_c, 0, 57, 32
3, 30240, Note_on_c, 0, 57, 0
3, 30240, Note_on_c, 0, 53, 47
3, 30480, Note_on_c, 0, 53, 0
3, 30480, Note_on_c, 0, 55, 32
3, 30720, Note_on_c, 0, 55, 0
3, 30720, Note_on_c, 0, 48, 46
3, 30960, Note_on_c, 0, 48, 0
3, 30960, Note_on_c, 0, 43, 35
3, 31186, Note_on_c, 0, 36, 46
3, 31200, Note_on_c, 0, 43, 0
3, 31546, Note_on_c, 0, 36, 0
3, 31680, Note_on_c, 0, 55, 65
3, 31680, Note_on_c, 0, 43, 55
3, 32160, Note_on_c, 0, 43, 0
3, 32160, Note_on_c, 0, 55, 0
3, 32640, Note_on_c, 0, 55, 38
3, 32880, Note_on_c, 0, 64, 30
3, 33120, Note_on_c, 0, 64, 0
3, 33120, Note_on_c, 0, 62, 38
3, 33360, Note_on_c, 0, 62, 0
3, 33360, Note_on_c, 0, 60, 33
3, 33600, Note_on_c, 0, 60, 0
3, 33600, Note_on_c, 0, 55, 0
3, 33600, Note_on_c, 0, 62, 49
3, 33600, Note_on_c, 0, 55, 49
3, 34080, Note_on_c, 0, 55, 0
3, 34080, Note_on_c, 0, 62, 0
3, 34800, Note_on_c, 0, 55, 30
3, 35040, Note_on_c, 0, 55, 0
3, 35040, Note_on_c, 0, 57, 35
3, 35280, Note_on_c, 0, 57, 0
3, 35280, Note_on_c, 0, 59, 33
3, 35520, Note_on_c, 0, 59, 0
3, 35520, Note_on_c, 0, 60, 46
3, 35760, Note_on_c, 0, 60, 0
3, 35760, Note_on_c, 0, 52, 38
3, 36000, Note_on_c, 0, 52, 0
3, 36000, Note_on_c, 0, 53, 46
3, 36240, Note_on_c, 0, 53, 0
3, 36240, Note_on_c, 0, 50, 42
3, 36480, Note_on_c, 0, 50, 0
3, 36480, Note_on_c, 0, 55, 46
3, 36720, Note_on_c, 0, 55, 0
3, 36720, Note_on_c, 0, 43, 38
3, 36960, Note_on_c, 0, 43, 0
3, 36960, Note_on_c, 0, 55, 49
3, 37080, Note_on_c, 0, 55, 0
3, 37080, Note_on_c, 0, 53, 47
3, 37200, Note_on_c, 0, 53, 0
3, 37200, Note_on_c, 0, 52, 46
3, 37320, Note_on_c, 0, 52, 0
3, 37320, Note_on_c, 0, 50, 38
3, 37440, Note_on_c, 0, 50, 0
3, 37440, Note_on_c, 0, 48, 66
3, 37920, Note_on_c, 0, 48, 0
3, 37920, Note_on_c, 0, 55, 58
3, 38400, Note_on_c, 0, 55, 0
3, 38400, Note_on_c, 0, 60, 65
3, 38880, Note_on_c, 0, 60, 0
3, 39360, Note_on_c, 0, 64, 42
3, 39360, Note_on_c, 0, 60, 35
3, 39600, Note_on_c, 0, 64, 0
3, 39600, Note_on_c, 0, 69, 30
3, 39840, Note_on_c, 0, 69, 0
3, 39840, Note_on_c, 0, 60, 0
3, 39840, Note_on_c, 0, 67, 38
3, 40080, Note_on_c, 0, 67, 0
3, 40080, Note_on_c, 0, 65, 33
3, 40320, Note_on_c, 0, 65, 0
3, 40320, Note_on_c, 0, 64, 53
3, 40560, Note_on_c, 0, 64, 0
3, 40560, Note_on_c, 0, 60, 32
3, 40800, Note_on_c, 0, 60, 0
3, 40800, Note_on_c, 0, 62, 47
3, 41040, Note_on_c, 0, 62, 0
3, 41040, Note_on_c, 0, 55, 32
3, 41280, Note_on_c, 0, 55, 0
3, 41280, Note_on_c, 0, 60, 46
3, 41520, Note_on_c, 0, 60, 0
3, 41520, Note_on_c, 0, 52, 38
3, 41760, Note_on_c, 0, 52, 0
3, 41760, Note_on_c, 0, 53, 46
3, 42240, Note_on_c, 0, 53, 0
3, 42240, Note_on_c, 0, 52, 53
3, 42480, Note_on_c, 0, 52, 0
3, 42480, Note_on_c, 0, 57, 32
3, 42720, Note_on_c, 0, 57, 0
3, 42720, Note_on_c, 0, 53, 47
3, 42960, Note_on_c, 0, 53, 0
3, 42960, Note_on_c, 0, 55, 32
3, 43200, Note_on_c, 0, 55, 0
3, 43200, Note_on_c, 0, 48, 46
3, 43440, Note_on_c, 0, 48, 0
3, 43440, Note_on_c, 0, 43, 35
3, 43666, Note_on_c, 0, 36, 46
3, 43680, Note_on_c, 0, 43, 0
3, 44146, Note_on_c, 0, 36, 0
3, 44146, End_track
4, 0, Start_track
4, 0, Title_t, "Pedale"
4, 0, Program_c, 0, 0
4, 73, Control_c, 0, 64, 127
4, 491, Control_c, 0, 64, 0
4, 518, Control_c, 0, 64, 127
4, 944, Control_c, 0, 64, 0
4, 3417, Control_c, 0, 64, 127
4, 3844, Control_c, 0, 64, 0
4, 5781, Control_c, 0, 64, 127
4, 6009, Control_c, 0, 64, 0
4, 6085, Control_c, 0, 64, 127
4, 6258, Control_c, 0, 64, 0
4, 6332, Control_c, 0, 64, 127
4, 6491, Control_c, 0, 64, 0
4, 6565, Control_c, 0, 64, 127
4, 6720, Control_c, 0, 64, 0
4, 8192, Control_c, 0, 64, 127
4, 8405, Control_c, 0, 64, 0
4, 8438, Control_c, 0, 64, 127
4, 8640, Control_c, 0, 64, 0
4, 8866, Control_c, 0, 64, 127
4, 9533, Control_c, 0, 64, 0
4, 9673, Control_c, 0, 64, 127
4, 10091, Control_c, 0, 64, 0
4, 10118, Control_c, 0, 64, 127
4, 10544, Control_c, 0, 64, 0
4, 13017, Control_c, 0, 64, 127
4, 13444, Control_c, 0, 64, 0
4, 15381, Control_c, 0, 64, 127
4, 15609, Control_c, 0, 64, 0
4, 15685, Control_c, 0, 64, 127
4, 15858, Control_c, 0, 64, 0
4, 15932, Control_c, 0, 64, 127
4, 16091, Control_c, 0, 64, 0
4, 16165, Control_c, 0, 64, 127
4, 16320, Control_c, 0, 64, 0
4, 17792, Control_c, 0, 64, 127
4, 18005, Control_c, 0, 64, 0
4, 18038, Control_c, 0, 64, 127
4, 18240, Control_c, 0, 64, 0
4, 18466, Control_c, 0, 64, 127
4, 19137, Control_c, 0, 64, 0
4, 25033, Control_c, 0, 64, 127
4, 25451, Control_c, 0, 64, 0
4, 25478, Control_c, 0, 64, 127
4, 25904, Control_c, 0, 64, 0
4, 28377, Control_c, 0, 64, 127
4, 28800, Control_c, 0, 64, 0
4, 30297, Control_c, 0, 64, 127
4, 30724, Control_c, 0, 64, 0
4, 37513, Control_c, 0, 64, 127
4, 37931, Control_c, 0, 64, 0
4, 37958, Control_c, 0, 64, 127
4, 38384, Control_c, 0, 64, 0
4, 40857, Control_c, 0, 64, 127
4, 41280, Control_c, 0, 64, 0
4, 42777, Control_c, 0, 64, 127
4, 43204, Control_c, 0, 64, 0
4, 43204, End_track
5, 0, Start_track
5, 0, Title_t, "Haydn Piano Sonata in C major, 1. movement"
5, 0, End_track
6, 0, Start_track
6, 0, Title_t, "Copyright © 2010 by Bernd Krueger"
6, 0, End_track
7, 0, Start_track
7, 0, Title_t, "http://www.piano-midi.de/"
7, 0, End_track
8, 0, Start_track
8, 0, Title_t, "Edition: 2011-10-20"
8, 0, End_track
9, 0, Start_track
9, 0, Title_t, "Spur 8"
9, 0, End_track
10, 0, Start_track
10, 0, Title_t, "Spur 9"
10, 0, End_track
11, 0, Start_track
11, 0, Title_t, "Spur 10"
11, 0, End_track
12, 0, Start_track
12, 0, Title_t, "Spur 11"
12, 0, End_track
13, 0, Start_track
13, 0, Title_t, "Spur 12"
13, 0, End_track
14, 0, Start_track
14, 0, Title_t, "Spur 13"
14, 0, End_track
15, 0, Start_track
15, 0, Title_t, "Spur 14"
15, 0, End_track
16, 0, Start_track
16, 0, Title_t, "Spur 15"
16, 0, End_track
17, 0, Start_track
17, 0, Title_t, "Spur 16"
17, 0, End_track
0, 0, End_of_file
