0, 0, Header, 1, 9, 480
1, 0, Start_track
1, 0, Title_t, "Etude No. 4 aus Grandes Etudes de Paganini"
1, 0, Copyright_t, "Copyright © 2004 von Bernd Krüger. "
1, 0, Text_t, "Franz Liszt"
1, 0, Text_t, "Vivo"
1, 0, Text_t, "Fertiggestellt am  25.11.2004\012"
1, 0, Text_t, "Update am 6.2.2011\012"
1, 0, Text_t, "Update am 4.3.2014\012"
1, 0, Text_t, "Dauer:  1:55 Minuten\012"
1, 0, Time_signature, 4, 2, 24, 8
1, 0, Key_signature, 4, "major"
1, 0, Tempo, 363592
1, 960, Tempo, 379363
1, 1200, Tempo, 363504
1, 1680, Tempo, 393056
1, 1920, Tempo, 373111
1, 2160, Tempo, 362341
1, 2640, Tempo, 379891
1, 2880, Tempo, 369458
1, 3120, Tempo, 362341
1, 3600, Tempo, 393056
1, 3840, Tempo, 369458
1, 4560, Tempo, 415628
1, 4800, Tempo, 373111
1, 5040, Tempo, 365854
1, 5520, Tempo, 377050
1, 5760, Tempo, 370668
1, 6000, Tempo, 367062
1, 6480, Tempo, 381291
1, 6720, Tempo, 369458
1, 6960, Tempo, 362341
1, 7440, Tempo, 379891
1, 7680, Tempo, 368256
1, 7920, Tempo, 362341
1, 8400, Tempo, 393056
1, 8640, Tempo, 370668
1, 8880, Tempo, 363504
1, 9360, Tempo, 388576
1, 9600, Tempo, 378453
1, 9840, Tempo, 427746
1, 10080, Tempo, 454511
1, 10320, Tempo, 565611
1, 10560, Tempo, 373111
1, 10800, Tempo, 363504
1, 11280, Tempo, 388576
1, 11520, Tempo, 378453
1, 11760, Tempo, 427746
1, 12000, Tempo, 454511
1, 12240, Tempo, 562482
1, 12480, Tempo, 379363
1, 12720, Tempo, 368256
1, 13200, Tempo, 393056
1, 13440, Tempo, 378096
1, 13680, Tempo, 368256
1, 14160, Tempo, 393056
1, 14400, Tempo, 375587
1, 14640, Tempo, 367062
1, 15120, Tempo, 393056
1, 15360, Tempo, 373111
1, 15600, Tempo, 362341
1, 16080, Tempo, 393056
1, 16320, Tempo, 378096
1, 16560, Tempo, 363504
1, 17040, Tempo, 415628
1, 17280, Tempo, 375587
1, 17520, Tempo, 362341
1, 18000, Tempo, 393056
1, 18240, Tempo, 374345
1, 18480, Tempo, 363504
1, 18960, Tempo, 393056
1, 19200, Tempo, 375587
1, 19440, Tempo, 365854
1, 19920, Tempo, 393056
1, 20160, Tempo, 374345
1, 20400, Tempo, 368256
1, 20880, Tempo, 393056
1, 21120, Tempo, 375587
1, 21360, Tempo, 367062
1, 21840, Tempo, 393056
1, 22080, Tempo, 379363
1, 22320, Tempo, 368256
1, 22800, Tempo, 393056
1, 23040, Tempo, 378453
1, 23280, Tempo, 427746
1, 23520, Tempo, 454511
1, 23760, Tempo, 562482
1, 24000, Tempo, 383240
1, 24240, Tempo, 363504
1, 24720, Tempo, 393056
1, 24960, Tempo, 378453
1, 25200, Tempo, 427746
1, 25440, Tempo, 454511
1, 25680, Tempo, 562482
1, 25920, Tempo, 384541
1, 26160, Tempo, 363504
1, 26400, Tempo, 355030
1, 26640, Tempo, 398671
1, 26880, Tempo, 378453
1, 27120, Tempo, 427746
1, 27360, Tempo, 454511
1, 27600, Tempo, 562482
1, 27840, Tempo, 398063
1, 28080, Tempo, 421852
1, 28320, Tempo, 400909
1, 28560, Tempo, 421852
1, 28800, Tempo, 399467
1, 29040, Tempo, 420256
1, 29280, Tempo, 392157
1, 29520, Tempo, 430108
1, 29760, Tempo, 399467
1, 30000, Tempo, 420256
1, 30240, Tempo, 400909
1, 30480, Tempo, 415628
1, 30720, Key_signature, 1, "major"
1, 30720, Tempo, 406669
1, 31261, Tempo, 434814
1, 31680, Tempo, 379363
1, 31920, Tempo, 363504
1, 32400, Tempo, 393056
1, 32640, Tempo, 373111
1, 32880, Tempo, 362341
1, 33360, Tempo, 379891
1, 33600, Tempo, 369458
1, 33840, Tempo, 362341
1, 34320, Tempo, 393056
1, 34560, Tempo, 369458
1, 35280, Tempo, 415628
1, 35520, Tempo, 373111
1, 35760, Tempo, 365854
1, 36240, Tempo, 377050
1, 36480, Tempo, 370668
1, 36720, Tempo, 367062
1, 37200, Tempo, 381291
1, 37440, Tempo, 369458
1, 37680, Tempo, 362341
1, 38160, Tempo, 379891
1, 38400, Tempo, 368256
1, 38640, Tempo, 362341
1, 39120, Tempo, 393056
1, 39360, Tempo, 370668
1, 39600, Tempo, 363504
1, 40080, Tempo, 388576
1, 40320, Tempo, 368256
1, 40560, Tempo, 362341
1, 41040, Tempo, 393056
1, 41280, Tempo, 370668
1, 41520, Tempo, 363504
1, 42000, Tempo, 388576
1, 42240, Tempo, 368256
1, 42480, Tempo, 362341
1, 42960, Tempo, 393056
1, 43200, Tempo, 370668
1, 43440, Tempo, 363504
1, 43920, Tempo, 388576
1, 44160, Tempo, 370668
1, 44400, Tempo, 363504
1, 44880, Tempo, 388576
1, 45120, Tempo, 370668
1, 45360, Tempo, 363504
1, 45840, Tempo, 388576
1, 46080, Tempo, 373111
1, 46320, Tempo, 362341
1, 46560, Tempo, 384541
1, 46800, Tempo, 429861
1, 47040, Tempo, 371885
1, 47280, Tempo, 361185
1, 47520, Tempo, 385852
1, 47760, Tempo, 420256
1, 48000, Tempo, 371885
1, 48240, Tempo, 361185
1, 48480, Tempo, 385852
1, 48720, Tempo, 420256
1, 48960, Tempo, 385852
1, 49200, Tempo, 420256
1, 49440, Tempo, 377358
1, 49680, Tempo, 433213
1, 49920, Tempo, 385852
1, 50160, Tempo, 420256
1, 50400, Tempo, 385852
1, 50640, Tempo, 420256
1, 51360, Tempo, 457701
1, 51840, Tempo, 373111
1, 52080, Tempo, 358895
1, 52160, Tempo, 360036
1, 52240, Tempo, 361185
1, 52320, Tempo, 362341
1, 52400, Tempo, 363504
1, 52480, Tempo, 364675
1, 52560, Tempo, 365854
1, 52640, Tempo, 367062
1, 52680, Tempo, 368256
1, 52760, Tempo, 369458
1, 52840, Tempo, 370668
1, 52920, Tempo, 371885
1, 53000, Tempo, 373111
1, 53040, Tempo, 374345
1, 53120, Tempo, 375587
1, 53200, Tempo, 376837
1, 53280, Tempo, 378096
1, 53360, Tempo, 379363
1, 53400, Tempo, 380638
1, 53480, Tempo, 381922
1, 53560, Tempo, 383240
1, 53640, Tempo, 384541
1, 53720, Tempo, 385852
1, 53760, Tempo, 369458
1, 54480, Tempo, 379363
1, 54720, Tempo, 373111
1, 54960, Tempo, 365854
1, 55440, Tempo, 377050
1, 55680, Tempo, 373111
1, 55920, Tempo, 358895
1, 56000, Tempo, 360036
1, 56080, Tempo, 361185
1, 56160, Tempo, 362341
1, 56240, Tempo, 363504
1, 56320, Tempo, 364675
1, 56400, Tempo, 365854
1, 56480, Tempo, 367062
1, 56520, Tempo, 368256
1, 56600, Tempo, 369458
1, 56680, Tempo, 370668
1, 56760, Tempo, 371885
1, 56840, Tempo, 373111
1, 56880, Tempo, 374345
1, 56960, Tempo, 375587
1, 57040, Tempo, 376837
1, 57120, Tempo, 378096
1, 57200, Tempo, 379363
1, 57240, Tempo, 380638
1, 57320, Tempo, 381922
1, 57400, Tempo, 383240
1, 57480, Tempo, 384541
1, 57560, Tempo, 385852
1, 57600, Tempo, 369458
1, 58320, Tempo, 379363
1, 58560, Tempo, 373111
1, 58800, Tempo, 365854
1, 59280, Tempo, 377050
1, 59520, Tempo, 412371
1, 59760, Tempo, 349854
1, 59800, Tempo, 350877
1, 59840, Tempo, 352941
1, 59880, Tempo, 353982
1, 59920, Tempo, 356083
1, 59960, Tempo, 357143
1, 60000, Tempo, 359281
1, 60040, Tempo, 360360
1, 60080, Tempo, 362538
1, 60160, Tempo, 364675
1, 60240, Tempo, 365854
1, 60320, Tempo, 367062
1, 60360, Tempo, 368256
1, 60440, Tempo, 369458
1, 60520, Tempo, 370668
1, 60600, Tempo, 371885
1, 60680, Tempo, 373111
1, 60720, Tempo, 374345
1, 60800, Tempo, 375587
1, 60880, Tempo, 376837
1, 60960, Tempo, 378096
1, 61040, Tempo, 379363
1, 61080, Tempo, 380638
1, 61160, Tempo, 381922
1, 61240, Tempo, 383240
1, 61320, Tempo, 384541
1, 61400, Tempo, 385852
1, 61440, Tempo, 369458
1, 62160, Tempo, 379363
1, 62400, Tempo, 373111
1, 62640, Tempo, 365854
1, 63120, Tempo, 377050
1, 63360, Tempo, 373111
1, 63600, Tempo, 363636
1, 63760, Tempo, 364742
1, 63920, Tempo, 365854
1, 64080, Tempo, 366972
1, 64240, Tempo, 368098
1, 64360, Tempo, 369231
1, 64440, Tempo, 371885
1, 64520, Tempo, 373111
1, 64560, Tempo, 374345
1, 64640, Tempo, 375587
1, 64720, Tempo, 376837
1, 64800, Tempo, 378096
1, 64880, Tempo, 379363
1, 64920, Tempo, 380638
1, 65000, Tempo, 381922
1, 65080, Tempo, 383240
1, 65160, Tempo, 384541
1, 65240, Tempo, 385852
1, 65280, Tempo, 369458
1, 66000, Tempo, 379363
1, 66240, Tempo, 373111
1, 66480, Tempo, 365854
1, 66960, Tempo, 377050
1, 67200, Tempo, 373111
1, 67440, Tempo, 358895
1, 67520, Tempo, 360036
1, 67600, Tempo, 361185
1, 67680, Tempo, 362341
1, 67760, Tempo, 363504
1, 67840, Tempo, 364675
1, 67920, Tempo, 365854
1, 68000, Tempo, 367062
1, 68040, Tempo, 368256
1, 68120, Tempo, 369458
1, 68200, Tempo, 370668
1, 68280, Tempo, 371885
1, 68360, Tempo, 373111
1, 68400, Tempo, 374345
1, 68480, Tempo, 375587
1, 68560, Tempo, 376837
1, 68640, Tempo, 378096
1, 68720, Tempo, 379363
1, 68760, Tempo, 380638
1, 68840, Tempo, 381922
1, 68920, Tempo, 383240
1, 69000, Tempo, 384541
1, 69080, Tempo, 385852
1, 69120, Tempo, 369458
1, 69840, Tempo, 379363
1, 70080, Tempo, 373111
1, 70320, Tempo, 365854
1, 70800, Tempo, 398671
1, 71040, Tempo, 382166
1, 71280, Tempo, 358895
1, 71360, Tempo, 360036
1, 71440, Tempo, 361185
1, 71520, Tempo, 362341
1, 71600, Tempo, 363504
1, 71680, Tempo, 364675
1, 71760, Tempo, 365854
1, 71840, Tempo, 367062
1, 71880, Tempo, 368256
1, 71960, Tempo, 369458
1, 72040, Tempo, 370668
1, 72120, Tempo, 371885
1, 72200, Tempo, 373111
1, 72240, Tempo, 374345
1, 72320, Tempo, 375587
1, 72400, Tempo, 376837
1, 72480, Tempo, 378096
1, 72560, Tempo, 379363
1, 72600, Tempo, 380638
1, 72680, Tempo, 381922
1, 72760, Tempo, 383240
1, 72840, Tempo, 384541
1, 72920, Tempo, 385852
1, 72960, Tempo, 373111
1, 73200, Tempo, 362341
1, 73680, Tempo, 379891
1, 73920, Tempo, 369458
1, 74160, Tempo, 362341
1, 74640, Tempo, 393056
1, 74880, Tempo, 373111
1, 75120, Tempo, 362341
1, 75600, Tempo, 379891
1, 75840, Tempo, 369458
1, 76080, Tempo, 362341
1, 76560, Tempo, 393056
1, 76800, Tempo, 373111
1, 77040, Tempo, 362341
1, 77520, Tempo, 379891
1, 77760, Tempo, 369458
1, 78000, Tempo, 362341
1, 78480, Tempo, 393056
1, 78720, Tempo, 373111
1, 78960, Tempo, 362341
1, 79200, Tempo, 356083
1, 79440, Tempo, 379891
1, 79680, Tempo, 369458
1, 79920, Tempo, 362341
1, 80160, Tempo, 356083
1, 80400, Tempo, 393056
1, 80640, Tempo, 373111
1, 80880, Tempo, 357143
1, 81120, Tempo, 361446
1, 81360, Tempo, 379891
1, 81600, Tempo, 369458
1, 81840, Tempo, 357143
1, 82080, Tempo, 362538
1, 82320, Tempo, 393056
1, 82560, Tempo, 373111
1, 82800, Tempo, 362341
1, 83280, Tempo, 379891
1, 83520, Tempo, 374345
1, 83760, Tempo, 367062
1, 84000, Tempo, 400909
1, 84240, Tempo, 573888
1, 84480, Tempo, 354400
1, 85440, Tempo, 369458
1, 85680, Tempo, 362341
1, 86160, Tempo, 393056
1, 86400, Tempo, 373111
1, 86640, Tempo, 362341
1, 87120, Tempo, 379891
1, 87360, Tempo, 369458
1, 87600, Tempo, 357143
1, 88080, Tempo, 413879
1, 88320, Tempo, 394815
1, 88560, Tempo, 378621
1, 89040, Tempo, 387172
1, 89280, Tempo, 375070
1, 89520, Tempo, 367040
1, 90000, Tempo, 393056
1, 90240, Tempo, 373111
1, 90480, Tempo, 362341
1, 90960, Tempo, 379891
1, 91200, Tempo, 369458
1, 91440, Tempo, 356083
1, 91920, Tempo, 393056
1, 92160, Tempo, 373111
1, 92400, Tempo, 362341
1, 92640, Tempo, 378621
1, 92880, Tempo, 379891
1, 93120, Tempo, 369458
1, 93360, Tempo, 362341
1, 93840, Tempo, 393056
1, 94080, Tempo, 373111
1, 94320, Tempo, 362341
1, 94800, Tempo, 379891
1, 95040, Tempo, 369458
1, 95280, Tempo, 362341
1, 95760, Tempo, 393056
1, 96000, Tempo, 373111
1, 96240, Tempo, 362341
1, 96720, Tempo, 379891
1, 96960, Tempo, 381922
1, 97200, Tempo, 399467
1, 97440, Tempo, 381679
1, 97680, Tempo, 401633
1, 97920, Tempo, 380373
1, 98160, Tempo, 400133
1, 98400, Tempo, 372671
1, 98640, Tempo, 413793
1, 98880, Tempo, 380373
1, 99120, Tempo, 400133
1, 99360, Tempo, 381679
1, 99600, Tempo, 395726
1, 99840, Key_signature, 4, "major"
1, 99840, Tempo, 406669
1, 100381, Tempo, 434814
1, 100800, Tempo, 372578
1, 101040, Tempo, 361446
1, 101520, Tempo, 386026
1, 101760, Tempo, 371517
1, 102000, Tempo, 359281
1, 102480, Tempo, 373088
1, 102720, Tempo, 369231
1, 102960, Tempo, 359281
1, 103440, Tempo, 386026
1, 103680, Tempo, 366435
1, 103920, Tempo, 361446
1, 104160, Tempo, 359281
1, 104280, Tempo, 360360
1, 104360, Tempo, 361446
1, 104440, Tempo, 362538
1, 104560, Tempo, 363636
1, 104640, Tempo, 364742
1, 104720, Tempo, 365854
1, 104840, Tempo, 366972
1, 104920, Tempo, 368098
1, 105000, Tempo, 369231
1, 105120, Tempo, 370370
1, 105200, Tempo, 371517
1, 105280, Tempo, 372671
1, 105400, Tempo, 373832
1, 105480, Tempo, 375000
1, 105560, Tempo, 376176
1, 105600, Tempo, 368868
1, 105840, Tempo, 360490
1, 106320, Tempo, 386026
1, 106560, Tempo, 372578
1, 106800, Tempo, 361664
1, 107280, Tempo, 386026
1, 107520, Tempo, 371678
1, 107760, Tempo, 434814
1, 108000, Tempo, 470625
1, 108240, Tempo, 597074
1, 108480, Tempo, 353232
1, 108720, Tempo, 342877
1, 109200, Tempo, 365988
1, 109440, Tempo, 353232
1, 109680, Tempo, 342877
1, 110160, Tempo, 365988
1, 110400, Tempo, 353232
1, 110640, Tempo, 338983
1, 111120, Tempo, 365988
1, 111360, Tempo, 359281
1, 111600, Tempo, 337401
1, 111840, Tempo, 344828
1, 112080, Tempo, 340677
1, 112160, Tempo, 341763
1, 112200, Tempo, 342877
1, 112280, Tempo, 343997
1, 112360, Tempo, 345125
1, 112440, Tempo, 346260
1, 112520, Tempo, 347403
1, 112560, Tempo, 348554
1, 112640, Tempo, 349711
1, 112720, Tempo, 350877
1, 112800, Tempo, 352051
1, 112880, Tempo, 353232
1, 112920, Tempo, 354421
1, 113000, Tempo, 355619
1, 113080, Tempo, 356824
1, 113160, Tempo, 358038
1, 113240, Tempo, 359260
1, 113280, Tempo, 353232
1, 113520, Tempo, 342877
1, 114000, Tempo, 365988
1, 114240, Tempo, 353232
1, 114480, Tempo, 342877
1, 114960, Tempo, 365988
1, 115200, Tempo, 353232
1, 115440, Tempo, 342877
1, 115920, Tempo, 365988
1, 116160, Tempo, 353232
1, 116400, Tempo, 340909
1, 116880, Tempo, 365988
1, 117120, Tempo, 353232
1, 117360, Tempo, 338983
1, 117840, Tempo, 365988
1, 118080, Tempo, 353232
1, 118320, Tempo, 342877
1, 118800, Tempo, 365988
1, 119040, Tempo, 353232
1, 119280, Tempo, 346260
1, 119760, Tempo, 365988
1, 120000, Tempo, 352382
1, 120240, Tempo, 396066
1, 120480, Tempo, 433244
1, 120720, Tempo, 467836
1, 120960, Tempo, 373832
1, 121200, Tempo, 366972
1, 121240, Tempo, 363636
1, 121280, Tempo, 359281
1, 121320, Tempo, 356083
1, 121360, Tempo, 351906
1, 121440, Tempo, 345821
1, 121600, Tempo, 346821
1, 121720, Tempo, 347826
1, 121840, Tempo, 348837
1, 121960, Tempo, 349854
1, 122080, Tempo, 350877
1, 122240, Tempo, 351906
1, 122360, Tempo, 352941
1, 122480, Tempo, 353982
1, 122600, Tempo, 355030
1, 122720, Tempo, 356083
1, 122760, Tempo, 358038
1, 122840, Tempo, 359260
1, 122880, Tempo, 343485
1, 123120, Tempo, 335664
1, 123600, Tempo, 359454
1, 123840, Tempo, 346921
1, 124080, Tempo, 336776
1, 124560, Tempo, 359454
1, 124800, Tempo, 343485
1, 125040, Tempo, 327869
1, 125520, Tempo, 359454
1, 125760, Tempo, 346921
1, 126000, Tempo, 330579
1, 126480, Tempo, 359454
1, 126720, Tempo, 343485
1, 126960, Tempo, 335664
1, 127440, Tempo, 359454
1, 127680, Tempo, 346081
1, 127920, Tempo, 391160
1, 128160, Tempo, 415628
1, 128400, Tempo, 528681
1, 128640, Tempo, 432588
1, 128800, Tempo, 381485
1, 129120, Tempo, 352941
1, 129640, Tempo, 346821
1, 129840, Tempo, 347826
1, 130000, Tempo, 348837
1, 130160, Tempo, 349854
1, 130320, Tempo, 350877
1, 130480, Tempo, 351906
1, 130520, Tempo, 352858
1, 130560, Tempo, 326975
1, 130920, Tempo, 333333
1, 131160, Tempo, 326975
1, 131400, Tempo, 362779
1, 131520, Tempo, 326975
1, 131880, Tempo, 334262
1, 132120, Tempo, 327869
1, 132360, Tempo, 357505
1, 132480, Tempo, 326975
1, 132840, Tempo, 333333
1, 133080, Tempo, 326975
1, 133320, Tempo, 362779
1, 133440, Tempo, 327869
1, 133800, Tempo, 335196
1, 134040, Tempo, 327869
1, 134280, Tempo, 359691
1, 134400, Tempo, 328767
1, 134760, Tempo, 335196
1, 135000, Tempo, 327869
1, 135240, Tempo, 362779
1, 135360, Tempo, 326975
1, 135720, Tempo, 334262
1, 135960, Tempo, 326975
1, 136200, Tempo, 358594
1, 136320, Tempo, 326975
1, 136680, Tempo, 334262
1, 136920, Tempo, 326975
1, 137160, Tempo, 362779
1, 137280, Tempo, 327869
1, 137640, Tempo, 334262
1, 137920, Tempo, 327869
1, 138120, Tempo, 356400
1, 138240, Tempo, 330579
1, 138260, Tempo, 328767
1, 138280, Tempo, 326975
1, 138300, Tempo, 324324
1, 138320, Tempo, 322581
1, 138340, Tempo, 320856
1, 138360, Tempo, 318302
1, 138600, Tempo, 335196
1, 138840, Tempo, 320856
1, 139080, Tempo, 356083
1, 139180, Tempo, 332410
1, 139200, Tempo, 331492
1, 139220, Tempo, 329670
1, 139240, Tempo, 327869
1, 139260, Tempo, 326087
1, 139280, Tempo, 325203
1, 139300, Tempo, 323450
1, 139320, Tempo, 321716
1, 139340, Tempo, 320000
1, 139560, Tempo, 337079
1, 139800, Tempo, 321716
1, 140040, Tempo, 369231
1, 140160, Tempo, 333333
1, 140180, Tempo, 331492
1, 140200, Tempo, 329670
1, 140220, Tempo, 327869
1, 140240, Tempo, 326087
1, 140260, Tempo, 324324
1, 140280, Tempo, 322581
1, 140300, Tempo, 320856
1, 140320, Tempo, 319149
1, 140520, Tempo, 332410
1, 140760, Tempo, 322581
1, 141000, Tempo, 372393
1, 141120, Tempo, 335196
1, 141600, Tempo, 343466
1, 141680, Tempo, 344570
1, 141720, Tempo, 345702
1, 141800, Tempo, 346821
1, 141840, Tempo, 347967
1, 141880, Tempo, 349101
1, 141960, Tempo, 350263
1, 142000, Tempo, 351412
1, 142040, Tempo, 352589
1, 142080, Tempo, 352589
1, 142560, Tempo, 359346
1, 143040, Tempo, 350939
1, 143520, Tempo, 372740
1, 144000, Tempo, 360144
1, 144012, Tempo, 360425
1, 144189, Tempo, 361511
1, 144340, Tempo, 362603
1, 144517, Tempo, 363702
1, 144669, Tempo, 364808
1, 144820, Tempo, 365921
1, 144840, Tempo, 389358
1, 144960, Tempo, 370142
1, 144972, Tempo, 372740
1, 145098, Tempo, 373902
1, 145225, Tempo, 375070
1, 145351, Tempo, 376246
1, 145452, Tempo, 377430
1, 145680, Tempo, 482393
1, 145800, Tempo, 967742
1, 145920, Tempo, 670391
1, 147840, Tempo, 600000
1, 147840, End_track
2, 0, Start_track
2, 0, Title_t, "Piano right"
2, 0, Program_c, 0, 0
2, 0, Control_c, 0, 7, 100
2, 0, Control_c, 0, 10, 64
2, 0, Control_c, 0, 91, 127
2, 0, Text_t, "bdca426d104a26ac9dcb070447587523"
2, 1080, Note_on_c, 0, 68, 51
2, 1170, Note_on_c, 0, 68, 0
2, 1200, Note_on_c, 0, 71, 46
2, 1290, Note_on_c, 0, 71, 0
2, 1320, Note_on_c, 0, 76, 46
2, 1410, Note_on_c, 0, 76, 0
2, 1560, Note_on_c, 0, 71, 51
2, 1650, Note_on_c, 0, 71, 0
2, 1680, Note_on_c, 0, 68, 47
2, 1770, Note_on_c, 0, 68, 0
2, 1800, Note_on_c, 0, 64, 47
2, 1890, Note_on_c, 0, 64, 0
2, 2040, Note_on_c, 0, 66, 51
2, 2130, Note_on_c, 0, 66, 0
2, 2160, Note_on_c, 0, 71, 47
2, 2250, Note_on_c, 0, 71, 0
2, 2280, Note_on_c, 0, 78, 43
2, 2370, Note_on_c, 0, 78, 0
2, 2520, Note_on_c, 0, 71, 51
2, 2610, Note_on_c, 0, 71, 0
2, 2640, Note_on_c, 0, 66, 48
2, 2730, Note_on_c, 0, 66, 0
2, 2760, Note_on_c, 0, 63, 43
2, 2850, Note_on_c, 0, 63, 0
2, 3000, Note_on_c, 0, 68, 51
2, 3090, Note_on_c, 0, 68, 0
2, 3120, Note_on_c, 0, 71, 47
2, 3210, Note_on_c, 0, 71, 0
2, 3240, Note_on_c, 0, 76, 42
2, 3330, Note_on_c, 0, 76, 0
2, 3480, Note_on_c, 0, 71, 51
2, 3570, Note_on_c, 0, 71, 0
2, 3600, Note_on_c, 0, 68, 48
2, 3690, Note_on_c, 0, 68, 0
2, 3720, Note_on_c, 0, 64, 47
2, 3810, Note_on_c, 0, 64, 0
2, 3960, Note_on_c, 0, 66, 51
2, 4050, Note_on_c, 0, 66, 0
2, 4080, Note_on_c, 0, 75, 51
2, 4170, Note_on_c, 0, 75, 0
2, 4200, Note_on_c, 0, 83, 48
2, 4290, Note_on_c, 0, 83, 0
2, 4440, Note_on_c, 0, 75, 51
2, 4530, Note_on_c, 0, 75, 0
2, 4560, Note_on_c, 0, 66, 47
2, 4650, Note_on_c, 0, 66, 0
2, 4680, Note_on_c, 0, 59, 43
2, 4770, Note_on_c, 0, 59, 0
2, 4920, Note_on_c, 0, 68, 45
2, 5010, Note_on_c, 0, 68, 0
2, 5040, Note_on_c, 0, 71, 45
2, 5130, Note_on_c, 0, 71, 0
2, 5160, Note_on_c, 0, 76, 41
2, 5250, Note_on_c, 0, 76, 0
2, 5400, Note_on_c, 0, 71, 45
2, 5490, Note_on_c, 0, 71, 0
2, 5520, Note_on_c, 0, 68, 44
2, 5610, Note_on_c, 0, 68, 0
2, 5640, Note_on_c, 0, 64, 42
2, 5730, Note_on_c, 0, 64, 0
2, 5880, Note_on_c, 0, 66, 45
2, 5970, Note_on_c, 0, 66, 0
2, 6000, Note_on_c, 0, 71, 45
2, 6090, Note_on_c, 0, 71, 0
2, 6120, Note_on_c, 0, 78, 41
2, 6210, Note_on_c, 0, 78, 0
2, 6360, Note_on_c, 0, 71, 45
2, 6450, Note_on_c, 0, 71, 0
2, 6480, Note_on_c, 0, 66, 43
2, 6570, Note_on_c, 0, 66, 0
2, 6600, Note_on_c, 0, 63, 40
2, 6690, Note_on_c, 0, 63, 0
2, 6840, Note_on_c, 0, 68, 45
2, 6930, Note_on_c, 0, 68, 0
2, 6960, Note_on_c, 0, 71, 45
2, 7050, Note_on_c, 0, 71, 0
2, 7080, Note_on_c, 0, 76, 40
2, 7170, Note_on_c, 0, 76, 0
2, 7320, Note_on_c, 0, 71, 45
2, 7410, Note_on_c, 0, 71, 0
2, 7440, Note_on_c, 0, 68, 42
2, 7530, Note_on_c, 0, 68, 0
2, 7560, Note_on_c, 0, 64, 39
2, 7650, Note_on_c, 0, 64, 0
2, 7800, Note_on_c, 0, 66, 45
2, 7890, Note_on_c, 0, 66, 0
2, 7920, Note_on_c, 0, 75, 45
2, 8010, Note_on_c, 0, 75, 0
2, 8040, Note_on_c, 0, 83, 42
2, 8130, Note_on_c, 0, 83, 0
2, 8280, Note_on_c, 0, 75, 45
2, 8370, Note_on_c, 0, 75, 0
2, 8400, Note_on_c, 0, 66, 39
2, 8490, Note_on_c, 0, 66, 0
2, 8520, Note_on_c, 0, 59, 33
2, 8610, Note_on_c, 0, 59, 0
2, 8760, Note_on_c, 0, 64, 46
2, 8850, Note_on_c, 0, 64, 0
2, 8880, Note_on_c, 0, 71, 47
2, 8970, Note_on_c, 0, 71, 0
2, 9000, Note_on_c, 0, 80, 41
2, 9090, Note_on_c, 0, 80, 0
2, 9240, Note_on_c, 0, 71, 48
2, 9330, Note_on_c, 0, 71, 0
2, 9360, Note_on_c, 0, 64, 42
2, 9450, Note_on_c, 0, 64, 0
2, 9480, Note_on_c, 0, 56, 39
2, 9570, Note_on_c, 0, 56, 0
2, 9720, Note_on_c, 0, 64, 49
2, 9810, Note_on_c, 0, 64, 0
2, 9840, Note_on_c, 0, 73, 49
2, 9930, Note_on_c, 0, 73, 0
2, 9960, Note_on_c, 0, 81, 46
2, 10050, Note_on_c, 0, 81, 0
2, 10680, Note_on_c, 0, 66, 46
2, 10770, Note_on_c, 0, 66, 0
2, 10800, Note_on_c, 0, 73, 47
2, 10890, Note_on_c, 0, 73, 0
2, 10920, Note_on_c, 0, 82, 41
2, 11010, Note_on_c, 0, 82, 0
2, 11160, Note_on_c, 0, 73, 48
2, 11250, Note_on_c, 0, 73, 0
2, 11280, Note_on_c, 0, 66, 43
2, 11370, Note_on_c, 0, 66, 0
2, 11400, Note_on_c, 0, 58, 42
2, 11490, Note_on_c, 0, 58, 0
2, 11640, Note_on_c, 0, 66, 49
2, 11730, Note_on_c, 0, 66, 0
2, 11760, Note_on_c, 0, 75, 49
2, 11850, Note_on_c, 0, 75, 0
2, 11880, Note_on_c, 0, 83, 48
2, 11970, Note_on_c, 0, 83, 0
2, 12600, Note_on_c, 0, 71, 50
2, 12690, Note_on_c, 0, 71, 0
2, 12720, Note_on_c, 0, 78, 43
2, 12810, Note_on_c, 0, 78, 0
2, 12840, Note_on_c, 0, 87, 46
2, 12930, Note_on_c, 0, 87, 0
2, 12960, Note_on_c, 0, 87, 56
2, 13050, Note_on_c, 0, 87, 0
2, 13080, Note_on_c, 0, 78, 51
2, 13170, Note_on_c, 0, 78, 0
2, 13200, Note_on_c, 0, 71, 45
2, 13290, Note_on_c, 0, 71, 0
2, 13320, Note_on_c, 0, 63, 42
2, 13410, Note_on_c, 0, 63, 0
2, 13560, Note_on_c, 0, 71, 53
2, 13650, Note_on_c, 0, 71, 0
2, 13680, Note_on_c, 0, 80, 54
2, 13770, Note_on_c, 0, 80, 0
2, 13800, Note_on_c, 0, 88, 51
2, 13890, Note_on_c, 0, 88, 0
2, 13920, Note_on_c, 0, 88, 59
2, 14010, Note_on_c, 0, 88, 0
2, 14040, Note_on_c, 0, 80, 55
2, 14130, Note_on_c, 0, 80, 0
2, 14160, Note_on_c, 0, 71, 51
2, 14250, Note_on_c, 0, 71, 0
2, 14280, Note_on_c, 0, 64, 48
2, 14370, Note_on_c, 0, 64, 0
2, 14520, Note_on_c, 0, 75, 57
2, 14610, Note_on_c, 0, 75, 0
2, 14640, Note_on_c, 0, 83, 57
2, 14730, Note_on_c, 0, 83, 0
2, 14760, Note_on_c, 0, 90, 54
2, 14850, Note_on_c, 0, 90, 0
2, 14880, Note_on_c, 0, 90, 64
2, 14970, Note_on_c, 0, 90, 0
2, 15000, Note_on_c, 0, 83, 58
2, 15090, Note_on_c, 0, 83, 0
2, 15120, Note_on_c, 0, 75, 54
2, 15210, Note_on_c, 0, 75, 0
2, 15240, Note_on_c, 0, 66, 51
2, 15330, Note_on_c, 0, 66, 0
2, 15480, Note_on_c, 0, 76, 60
2, 15570, Note_on_c, 0, 76, 0
2, 15600, Note_on_c, 0, 83, 61
2, 15690, Note_on_c, 0, 83, 0
2, 15720, Note_on_c, 0, 92, 58
2, 15810, Note_on_c, 0, 92, 0
2, 15840, Note_on_c, 0, 92, 68
2, 15930, Note_on_c, 0, 92, 0
2, 15960, Note_on_c, 0, 83, 63
2, 16050, Note_on_c, 0, 83, 0
2, 16080, Note_on_c, 0, 76, 57
2, 16170, Note_on_c, 0, 76, 0
2, 16200, Note_on_c, 0, 68, 54
2, 16290, Note_on_c, 0, 68, 0
2, 16440, Note_on_c, 0, 76, 64
2, 16530, Note_on_c, 0, 76, 0
2, 16560, Note_on_c, 0, 85, 64
2, 16650, Note_on_c, 0, 85, 0
2, 16680, Note_on_c, 0, 93, 61
2, 16770, Note_on_c, 0, 93, 0
2, 16800, Note_on_c, 0, 93, 73
2, 16890, Note_on_c, 0, 93, 0
2, 16920, Note_on_c, 0, 85, 66
2, 17010, Note_on_c, 0, 85, 0
2, 17040, Note_on_c, 0, 76, 62
2, 17130, Note_on_c, 0, 76, 0
2, 17160, Note_on_c, 0, 69, 55
2, 17250, Note_on_c, 0, 69, 0
2, 17400, Note_on_c, 0, 79, 68
2, 17490, Note_on_c, 0, 79, 0
2, 17520, Note_on_c, 0, 88, 68
2, 17610, Note_on_c, 0, 88, 0
2, 17640, Note_on_c, 0, 97, 64
2, 17730, Note_on_c, 0, 97, 0
2, 17760, Note_on_c, 0, 97, 74
2, 17850, Note_on_c, 0, 97, 0
2, 17880, Note_on_c, 0, 88, 68
2, 17970, Note_on_c, 0, 88, 0
2, 18000, Note_on_c, 0, 79, 63
2, 18090, Note_on_c, 0, 79, 0
2, 18120, Note_on_c, 0, 70, 58
2, 18210, Note_on_c, 0, 70, 0
2, 18360, Note_on_c, 0, 82, 68
2, 18450, Note_on_c, 0, 82, 0
2, 18480, Note_on_c, 0, 91, 68
2, 18570, Note_on_c, 0, 91, 0
2, 18600, Note_on_c, 0, 100, 66
2, 18690, Note_on_c, 0, 100, 0
2, 18720, Note_on_c, 0, 100, 74
2, 18810, Note_on_c, 0, 100, 0
2, 18840, Note_on_c, 0, 91, 68
2, 18930, Note_on_c, 0, 91, 0
2, 18960, Note_on_c, 0, 82, 65
2, 19050, Note_on_c, 0, 82, 0
2, 19080, Note_on_c, 0, 73, 62
2, 19170, Note_on_c, 0, 73, 0
2, 19320, Note_on_c, 0, 79, 68
2, 19410, Note_on_c, 0, 79, 0
2, 19440, Note_on_c, 0, 88, 65
2, 19530, Note_on_c, 0, 88, 0
2, 19560, Note_on_c, 0, 97, 68
2, 19650, Note_on_c, 0, 97, 0
2, 19680, Note_on_c, 0, 97, 72
2, 19770, Note_on_c, 0, 97, 0
2, 19800, Note_on_c, 0, 88, 65
2, 19890, Note_on_c, 0, 88, 0
2, 19920, Note_on_c, 0, 79, 63
2, 20010, Note_on_c, 0, 79, 0
2, 20040, Note_on_c, 0, 70, 59
2, 20130, Note_on_c, 0, 70, 0
2, 20280, Note_on_c, 0, 76, 62
2, 20370, Note_on_c, 0, 76, 0
2, 20400, Note_on_c, 0, 85, 61
2, 20490, Note_on_c, 0, 85, 0
2, 20520, Note_on_c, 0, 94, 61
2, 20610, Note_on_c, 0, 94, 0
2, 20640, Note_on_c, 0, 94, 65
2, 20730, Note_on_c, 0, 94, 0
2, 20760, Note_on_c, 0, 85, 59
2, 20850, Note_on_c, 0, 85, 0
2, 20880, Note_on_c, 0, 76, 48
2, 20970, Note_on_c, 0, 76, 0
2, 21000, Note_on_c, 0, 67, 42
2, 21090, Note_on_c, 0, 67, 0
2, 21240, Note_on_c, 0, 73, 57
2, 21330, Note_on_c, 0, 73, 0
2, 21360, Note_on_c, 0, 82, 57
2, 21450, Note_on_c, 0, 82, 0
2, 21480, Note_on_c, 0, 91, 56
2, 21570, Note_on_c, 0, 91, 0
2, 21600, Note_on_c, 0, 91, 61
2, 21690, Note_on_c, 0, 91, 0
2, 21720, Note_on_c, 0, 82, 54
2, 21810, Note_on_c, 0, 82, 0
2, 21840, Note_on_c, 0, 73, 49
2, 21930, Note_on_c, 0, 73, 0
2, 21960, Note_on_c, 0, 64, 40
2, 22050, Note_on_c, 0, 64, 0
2, 22200, Note_on_c, 0, 70, 53
2, 22290, Note_on_c, 0, 70, 0
2, 22320, Note_on_c, 0, 79, 51
2, 22410, Note_on_c, 0, 79, 0
2, 22440, Note_on_c, 0, 88, 51
2, 22530, Note_on_c, 0, 88, 0
2, 22560, Note_on_c, 0, 88, 55
2, 22650, Note_on_c, 0, 88, 0
2, 22680, Note_on_c, 0, 79, 49
2, 22770, Note_on_c, 0, 79, 0
2, 22800, Note_on_c, 0, 70, 45
2, 22890, Note_on_c, 0, 70, 0
2, 22920, Note_on_c, 0, 61, 42
2, 23010, Note_on_c, 0, 61, 0
2, 23160, Note_on_c, 0, 66, 47
2, 23250, Note_on_c, 0, 66, 0
2, 23280, Note_on_c, 0, 75, 42
2, 23370, Note_on_c, 0, 75, 0
2, 23400, Note_on_c, 0, 83, 46
2, 23490, Note_on_c, 0, 83, 0
2, 24120, Note_on_c, 0, 63, 45
2, 24210, Note_on_c, 0, 63, 0
2, 24240, Note_on_c, 0, 71, 42
2, 24330, Note_on_c, 0, 71, 0
2, 24360, Note_on_c, 0, 78, 40
2, 24450, Note_on_c, 0, 78, 0
2, 24600, Note_on_c, 0, 71, 45
2, 24690, Note_on_c, 0, 71, 0
2, 24720, Note_on_c, 0, 63, 42
2, 24810, Note_on_c, 0, 63, 0
2, 24840, Note_on_c, 0, 57, 39
2, 24930, Note_on_c, 0, 57, 0
2, 25080, Note_on_c, 0, 64, 45
2, 25170, Note_on_c, 0, 64, 0
2, 25200, Note_on_c, 0, 71, 45
2, 25290, Note_on_c, 0, 71, 0
2, 25320, Note_on_c, 0, 80, 45
2, 25410, Note_on_c, 0, 80, 0
2, 26040, Note_on_c, 0, 63, 45
2, 26130, Note_on_c, 0, 63, 0
2, 26160, Note_on_c, 0, 71, 45
2, 26250, Note_on_c, 0, 71, 0
2, 26280, Note_on_c, 0, 78, 39
2, 26370, Note_on_c, 0, 78, 0
2, 26520, Note_on_c, 0, 71, 45
2, 26610, Note_on_c, 0, 71, 0
2, 26640, Note_on_c, 0, 63, 40
2, 26730, Note_on_c, 0, 63, 0
2, 26760, Note_on_c, 0, 57, 38
2, 26850, Note_on_c, 0, 57, 0
2, 27000, Note_on_c, 0, 64, 45
2, 27090, Note_on_c, 0, 64, 0
2, 27120, Note_on_c, 0, 71, 43
2, 27210, Note_on_c, 0, 71, 0
2, 27240, Note_on_c, 0, 80, 45
2, 27330, Note_on_c, 0, 80, 0
2, 31800, Note_on_c, 0, 67, 51
2, 31890, Note_on_c, 0, 67, 0
2, 31920, Note_on_c, 0, 71, 51
2, 32010, Note_on_c, 0, 71, 0
2, 32040, Note_on_c, 0, 76, 43
2, 32130, Note_on_c, 0, 76, 0
2, 32280, Note_on_c, 0, 71, 51
2, 32370, Note_on_c, 0, 71, 0
2, 32400, Note_on_c, 0, 67, 48
2, 32490, Note_on_c, 0, 67, 0
2, 32520, Note_on_c, 0, 64, 42
2, 32610, Note_on_c, 0, 64, 0
2, 32760, Note_on_c, 0, 66, 51
2, 32850, Note_on_c, 0, 66, 0
2, 32880, Note_on_c, 0, 71, 51
2, 32970, Note_on_c, 0, 71, 0
2, 33000, Note_on_c, 0, 78, 45
2, 33090, Note_on_c, 0, 78, 0
2, 33240, Note_on_c, 0, 71, 51
2, 33330, Note_on_c, 0, 71, 0
2, 33360, Note_on_c, 0, 66, 48
2, 33450, Note_on_c, 0, 66, 0
2, 33480, Note_on_c, 0, 63, 42
2, 33570, Note_on_c, 0, 63, 0
2, 33720, Note_on_c, 0, 67, 51
2, 33810, Note_on_c, 0, 67, 0
2, 33840, Note_on_c, 0, 71, 51
2, 33930, Note_on_c, 0, 71, 0
2, 33960, Note_on_c, 0, 76, 46
2, 34050, Note_on_c, 0, 76, 0
2, 34200, Note_on_c, 0, 71, 51
2, 34290, Note_on_c, 0, 71, 0
2, 34320, Note_on_c, 0, 67, 47
2, 34410, Note_on_c, 0, 67, 0
2, 34440, Note_on_c, 0, 64, 42
2, 34530, Note_on_c, 0, 64, 0
2, 34680, Note_on_c, 0, 66, 51
2, 34770, Note_on_c, 0, 66, 0
2, 34800, Note_on_c, 0, 75, 48
2, 34890, Note_on_c, 0, 75, 0
2, 34920, Note_on_c, 0, 83, 51
2, 35010, Note_on_c, 0, 83, 0
2, 35160, Note_on_c, 0, 75, 51
2, 35250, Note_on_c, 0, 75, 0
2, 35280, Note_on_c, 0, 66, 46
2, 35370, Note_on_c, 0, 66, 0
2, 35400, Note_on_c, 0, 59, 41
2, 35490, Note_on_c, 0, 59, 0
2, 35640, Note_on_c, 0, 67, 45
2, 35730, Note_on_c, 0, 67, 0
2, 35760, Note_on_c, 0, 71, 45
2, 35850, Note_on_c, 0, 71, 0
2, 35880, Note_on_c, 0, 76, 40
2, 35970, Note_on_c, 0, 76, 0
2, 36120, Note_on_c, 0, 71, 45
2, 36210, Note_on_c, 0, 71, 0
2, 36240, Note_on_c, 0, 67, 43
2, 36330, Note_on_c, 0, 67, 0
2, 36360, Note_on_c, 0, 64, 39
2, 36450, Note_on_c, 0, 64, 0
2, 36600, Note_on_c, 0, 66, 45
2, 36690, Note_on_c, 0, 66, 0
2, 36720, Note_on_c, 0, 71, 45
2, 36810, Note_on_c, 0, 71, 0
2, 36840, Note_on_c, 0, 78, 41
2, 36930, Note_on_c, 0, 78, 0
2, 37080, Note_on_c, 0, 71, 45
2, 37170, Note_on_c, 0, 71, 0
2, 37200, Note_on_c, 0, 66, 42
2, 37290, Note_on_c, 0, 66, 0
2, 37320, Note_on_c, 0, 63, 38
2, 37410, Note_on_c, 0, 63, 0
2, 37560, Note_on_c, 0, 67, 45
2, 37650, Note_on_c, 0, 67, 0
2, 37680, Note_on_c, 0, 71, 45
2, 37770, Note_on_c, 0, 71, 0
2, 37800, Note_on_c, 0, 76, 41
2, 37890, Note_on_c, 0, 76, 0
2, 38040, Note_on_c, 0, 71, 45
2, 38130, Note_on_c, 0, 71, 0
2, 38160, Note_on_c, 0, 67, 41
2, 38250, Note_on_c, 0, 67, 0
2, 38280, Note_on_c, 0, 64, 39
2, 38370, Note_on_c, 0, 64, 0
2, 38520, Note_on_c, 0, 66, 45
2, 38610, Note_on_c, 0, 66, 0
2, 38640, Note_on_c, 0, 75, 40
2, 38730, Note_on_c, 0, 75, 0
2, 38760, Note_on_c, 0, 83, 45
2, 38850, Note_on_c, 0, 83, 0
2, 39000, Note_on_c, 0, 75, 45
2, 39090, Note_on_c, 0, 75, 0
2, 39120, Note_on_c, 0, 66, 40
2, 39210, Note_on_c, 0, 66, 0
2, 39240, Note_on_c, 0, 59, 37
2, 39330, Note_on_c, 0, 59, 0
2, 39480, Note_on_c, 0, 66, 46
2, 39570, Note_on_c, 0, 66, 0
2, 39600, Note_on_c, 0, 74, 47
2, 39690, Note_on_c, 0, 74, 0
2, 39720, Note_on_c, 0, 83, 47
2, 39810, Note_on_c, 0, 83, 0
2, 39960, Note_on_c, 0, 74, 48
2, 40050, Note_on_c, 0, 74, 0
2, 40080, Note_on_c, 0, 66, 43
2, 40170, Note_on_c, 0, 66, 0
2, 40200, Note_on_c, 0, 59, 41
2, 40290, Note_on_c, 0, 59, 0
2, 40440, Note_on_c, 0, 66, 45
2, 40530, Note_on_c, 0, 66, 0
2, 40560, Note_on_c, 0, 74, 45
2, 40650, Note_on_c, 0, 74, 0
2, 40680, Note_on_c, 0, 84, 45
2, 40770, Note_on_c, 0, 84, 0
2, 40920, Note_on_c, 0, 74, 45
2, 41010, Note_on_c, 0, 74, 0
2, 41040, Note_on_c, 0, 66, 40
2, 41130, Note_on_c, 0, 66, 0
2, 41160, Note_on_c, 0, 57, 34
2, 41250, Note_on_c, 0, 57, 0
2, 41400, Note_on_c, 0, 66, 46
2, 41490, Note_on_c, 0, 66, 0
2, 41520, Note_on_c, 0, 74, 45
2, 41610, Note_on_c, 0, 74, 0
2, 41640, Note_on_c, 0, 81, 42
2, 41730, Note_on_c, 0, 81, 0
2, 41880, Note_on_c, 0, 74, 48
2, 41970, Note_on_c, 0, 74, 0
2, 42000, Note_on_c, 0, 66, 42
2, 42090, Note_on_c, 0, 66, 0
2, 42120, Note_on_c, 0, 57, 38
2, 42210, Note_on_c, 0, 57, 0
2, 42360, Note_on_c, 0, 62, 45
2, 42450, Note_on_c, 0, 62, 0
2, 42480, Note_on_c, 0, 71, 45
2, 42570, Note_on_c, 0, 71, 0
2, 42600, Note_on_c, 0, 86, 51
2, 42690, Note_on_c, 0, 86, 0
2, 42840, Note_on_c, 0, 71, 46
2, 42930, Note_on_c, 0, 71, 0
2, 42960, Note_on_c, 0, 62, 41
2, 43050, Note_on_c, 0, 62, 0
2, 43080, Note_on_c, 0, 55, 34
2, 43170, Note_on_c, 0, 55, 0
2, 43320, Note_on_c, 0, 62, 42
2, 43320, Note_on_c, 0, 71, 50
2, 43410, Note_on_c, 0, 71, 0
2, 43410, Note_on_c, 0, 62, 0
2, 43440, Note_on_c, 0, 74, 48
2, 43530, Note_on_c, 0, 74, 0
2, 43560, Note_on_c, 0, 91, 60
2, 43650, Note_on_c, 0, 91, 0
2, 43800, Note_on_c, 0, 74, 55
2, 43890, Note_on_c, 0, 74, 0
2, 43920, Note_on_c, 0, 62, 46
2, 43920, Note_on_c, 0, 71, 46
2, 44010, Note_on_c, 0, 71, 0
2, 44010, Note_on_c, 0, 62, 0
2, 44040, Note_on_c, 0, 55, 45
2, 44130, Note_on_c, 0, 55, 0
2, 44280, Note_on_c, 0, 62, 46
2, 44280, Note_on_c, 0, 71, 55
2, 44370, Note_on_c, 0, 71, 0
2, 44370, Note_on_c, 0, 62, 0
2, 44400, Note_on_c, 0, 79, 57
2, 44490, Note_on_c, 0, 79, 0
2, 44520, Note_on_c, 0, 95, 63
2, 44610, Note_on_c, 0, 95, 0
2, 44760, Note_on_c, 0, 79, 59
2, 44850, Note_on_c, 0, 79, 0
2, 44880, Note_on_c, 0, 62, 50
2, 44880, Note_on_c, 0, 71, 60
2, 44970, Note_on_c, 0, 71, 0
2, 44970, Note_on_c, 0, 62, 0
2, 45000, Note_on_c, 0, 55, 51
2, 45090, Note_on_c, 0, 55, 0
2, 45240, Note_on_c, 0, 62, 49
2, 45240, Note_on_c, 0, 71, 59
2, 45330, Note_on_c, 0, 71, 0
2, 45330, Note_on_c, 0, 62, 0
2, 45360, Note_on_c, 0, 83, 61
2, 45450, Note_on_c, 0, 83, 0
2, 45480, Note_on_c, 0, 98, 68
2, 45570, Note_on_c, 0, 98, 0
2, 45720, Note_on_c, 0, 83, 64
2, 45810, Note_on_c, 0, 83, 0
2, 45840, Note_on_c, 0, 62, 55
2, 45840, Note_on_c, 0, 71, 65
2, 45930, Note_on_c, 0, 71, 0
2, 45930, Note_on_c, 0, 62, 0
2, 45960, Note_on_c, 0, 55, 51
2, 46050, Note_on_c, 0, 55, 0
2, 46200, Note_on_c, 0, 67, 66
2, 46290, Note_on_c, 0, 67, 0
2, 46320, Note_on_c, 0, 76, 66
2, 46320, Note_on_c, 0, 72, 56
2, 46410, Note_on_c, 0, 72, 0
2, 46410, Note_on_c, 0, 76, 0
2, 46440, Note_on_c, 0, 84, 59
2, 46530, Note_on_c, 0, 84, 0
2, 47160, Note_on_c, 0, 69, 68
2, 47250, Note_on_c, 0, 69, 0
2, 47280, Note_on_c, 0, 74, 63
2, 47280, Note_on_c, 0, 78, 63
2, 47370, Note_on_c, 0, 78, 0
2, 47370, Note_on_c, 0, 74, 0
2, 47400, Note_on_c, 0, 86, 68
2, 47490, Note_on_c, 0, 86, 0
2, 48120, Note_on_c, 0, 71, 71
2, 48210, Note_on_c, 0, 71, 0
2, 48240, Note_on_c, 0, 76, 65
2, 48330, Note_on_c, 0, 76, 0
2, 48360, Note_on_c, 0, 79, 59
2, 48360, Note_on_c, 0, 88, 70
2, 48450, Note_on_c, 0, 88, 0
2, 48450, Note_on_c, 0, 79, 0
2, 50880, Note_on_c, 0, 73, 77
2, 50960, Note_on_c, 0, 73, 0
2, 50960, Note_on_c, 0, 79, 79
2, 51040, Note_on_c, 0, 79, 0
2, 51040, Note_on_c, 0, 82, 81
2, 51120, Note_on_c, 0, 82, 0
2, 51120, Note_on_c, 0, 88, 82
2, 51200, Note_on_c, 0, 88, 0
2, 51200, Note_on_c, 0, 94, 84
2, 51280, Note_on_c, 0, 94, 0
2, 51280, Note_on_c, 0, 100, 86
2, 51360, Note_on_c, 0, 100, 0
2, 52000, Note_on_c, 0, 86, 77
2, 52000, Note_on_c, 0, 83, 77
2, 52060, Note_on_c, 0, 83, 0
2, 52060, Note_on_c, 0, 86, 0
2, 52160, Note_on_c, 0, 84, 75
2, 52160, Note_on_c, 0, 81, 75
2, 52220, Note_on_c, 0, 81, 0
2, 52220, Note_on_c, 0, 84, 0
2, 52320, Note_on_c, 0, 83, 74
2, 52320, Note_on_c, 0, 79, 74
2, 52380, Note_on_c, 0, 79, 0
2, 52380, Note_on_c, 0, 83, 0
2, 52480, Note_on_c, 0, 81, 72
2, 52480, Note_on_c, 0, 78, 72
2, 52540, Note_on_c, 0, 78, 0
2, 52540, Note_on_c, 0, 81, 0
2, 52640, Note_on_c, 0, 79, 71
2, 52640, Note_on_c, 0, 76, 71
2, 52700, Note_on_c, 0, 76, 0
2, 52700, Note_on_c, 0, 79, 0
2, 52800, Note_on_c, 0, 74, 69
2, 52800, Note_on_c, 0, 78, 69
2, 52860, Note_on_c, 0, 78, 0
2, 52860, Note_on_c, 0, 74, 0
2, 52960, Note_on_c, 0, 72, 67
2, 52960, Note_on_c, 0, 76, 67
2, 53020, Note_on_c, 0, 76, 0
2, 53020, Note_on_c, 0, 72, 0
2, 53120, Note_on_c, 0, 71, 66
2, 53120, Note_on_c, 0, 74, 66
2, 53180, Note_on_c, 0, 74, 0
2, 53180, Note_on_c, 0, 71, 0
2, 53280, Note_on_c, 0, 69, 64
2, 53280, Note_on_c, 0, 72, 64
2, 53340, Note_on_c, 0, 72, 0
2, 53340, Note_on_c, 0, 69, 0
2, 53440, Note_on_c, 0, 67, 62
2, 53440, Note_on_c, 0, 71, 62
2, 53500, Note_on_c, 0, 71, 0
2, 53500, Note_on_c, 0, 67, 0
2, 53600, Note_on_c, 0, 66, 61
2, 53600, Note_on_c, 0, 69, 61
2, 53660, Note_on_c, 0, 69, 0
2, 53660, Note_on_c, 0, 66, 0
2, 53880, Note_on_c, 0, 62, 46
2, 53970, Note_on_c, 0, 62, 0
2, 54000, Note_on_c, 0, 71, 42
2, 54090, Note_on_c, 0, 71, 0
2, 54120, Note_on_c, 0, 79, 46
2, 54210, Note_on_c, 0, 79, 0
2, 54360, Note_on_c, 0, 71, 46
2, 54450, Note_on_c, 0, 71, 0
2, 54480, Note_on_c, 0, 62, 45
2, 54570, Note_on_c, 0, 62, 0
2, 54600, Note_on_c, 0, 55, 42
2, 54690, Note_on_c, 0, 55, 0
2, 54840, Note_on_c, 0, 63, 46
2, 54930, Note_on_c, 0, 63, 0
2, 54960, Note_on_c, 0, 72, 48
2, 55050, Note_on_c, 0, 72, 0
2, 55080, Note_on_c, 0, 78, 50
2, 55170, Note_on_c, 0, 78, 0
2, 55320, Note_on_c, 0, 72, 54
2, 55410, Note_on_c, 0, 72, 0
2, 55440, Note_on_c, 0, 63, 49
2, 55530, Note_on_c, 0, 63, 0
2, 55560, Note_on_c, 0, 55, 42
2, 55650, Note_on_c, 0, 55, 0
2, 55840, Note_on_c, 0, 86, 74
2, 55840, Note_on_c, 0, 83, 74
2, 55900, Note_on_c, 0, 83, 0
2, 55900, Note_on_c, 0, 86, 0
2, 56000, Note_on_c, 0, 84, 72
2, 56000, Note_on_c, 0, 81, 72
2, 56060, Note_on_c, 0, 81, 0
2, 56060, Note_on_c, 0, 84, 0
2, 56160, Note_on_c, 0, 83, 71
2, 56160, Note_on_c, 0, 79, 71
2, 56220, Note_on_c, 0, 79, 0
2, 56220, Note_on_c, 0, 83, 0
2, 56320, Note_on_c, 0, 81, 69
2, 56320, Note_on_c, 0, 78, 69
2, 56380, Note_on_c, 0, 78, 0
2, 56380, Note_on_c, 0, 81, 0
2, 56480, Note_on_c, 0, 79, 68
2, 56480, Note_on_c, 0, 76, 68
2, 56540, Note_on_c, 0, 76, 0
2, 56540, Note_on_c, 0, 79, 0
2, 56640, Note_on_c, 0, 74, 66
2, 56640, Note_on_c, 0, 78, 66
2, 56700, Note_on_c, 0, 78, 0
2, 56700, Note_on_c, 0, 74, 0
2, 56800, Note_on_c, 0, 72, 64
2, 56800, Note_on_c, 0, 76, 64
2, 56860, Note_on_c, 0, 76, 0
2, 56860, Note_on_c, 0, 72, 0
2, 56960, Note_on_c, 0, 71, 64
2, 56960, Note_on_c, 0, 74, 64
2, 57020, Note_on_c, 0, 74, 0
2, 57020, Note_on_c, 0, 71, 0
2, 57120, Note_on_c, 0, 69, 62
2, 57120, Note_on_c, 0, 72, 62
2, 57180, Note_on_c, 0, 72, 0
2, 57180, Note_on_c, 0, 69, 0
2, 57280, Note_on_c, 0, 67, 60
2, 57280, Note_on_c, 0, 71, 60
2, 57340, Note_on_c, 0, 71, 0
2, 57340, Note_on_c, 0, 67, 0
2, 57440, Note_on_c, 0, 66, 59
2, 57440, Note_on_c, 0, 69, 59
2, 57500, Note_on_c, 0, 69, 0
2, 57500, Note_on_c, 0, 66, 0
2, 57720, Note_on_c, 0, 62, 46
2, 57810, Note_on_c, 0, 62, 0
2, 57840, Note_on_c, 0, 71, 42
2, 57930, Note_on_c, 0, 71, 0
2, 57960, Note_on_c, 0, 79, 46
2, 58050, Note_on_c, 0, 79, 0
2, 58200, Note_on_c, 0, 71, 46
2, 58290, Note_on_c, 0, 71, 0
2, 58320, Note_on_c, 0, 62, 39
2, 58410, Note_on_c, 0, 62, 0
2, 58440, Note_on_c, 0, 55, 37
2, 58530, Note_on_c, 0, 55, 0
2, 58680, Note_on_c, 0, 63, 46
2, 58770, Note_on_c, 0, 63, 0
2, 58800, Note_on_c, 0, 72, 48
2, 58890, Note_on_c, 0, 72, 0
2, 58920, Note_on_c, 0, 78, 50
2, 59010, Note_on_c, 0, 78, 0
2, 59160, Note_on_c, 0, 72, 54
2, 59250, Note_on_c, 0, 72, 0
2, 59280, Note_on_c, 0, 63, 49
2, 59370, Note_on_c, 0, 63, 0
2, 59400, Note_on_c, 0, 55, 43
2, 59490, Note_on_c, 0, 55, 0
2, 59680, Note_on_c, 0, 86, 74
2, 59680, Note_on_c, 0, 83, 74
2, 59740, Note_on_c, 0, 83, 0
2, 59740, Note_on_c, 0, 86, 0
2, 59840, Note_on_c, 0, 84, 72
2, 59840, Note_on_c, 0, 81, 72
2, 59900, Note_on_c, 0, 81, 0
2, 59900, Note_on_c, 0, 84, 0
2, 60000, Note_on_c, 0, 83, 71
2, 60000, Note_on_c, 0, 79, 71
2, 60060, Note_on_c, 0, 79, 0
2, 60060, Note_on_c, 0, 83, 0
2, 60160, Note_on_c, 0, 81, 69
2, 60160, Note_on_c, 0, 78, 69
2, 60220, Note_on_c, 0, 78, 0
2, 60220, Note_on_c, 0, 81, 0
2, 60320, Note_on_c, 0, 79, 68
2, 60320, Note_on_c, 0, 76, 68
2, 60380, Note_on_c, 0, 76, 0
2, 60380, Note_on_c, 0, 79, 0
2, 60480, Note_on_c, 0, 74, 66
2, 60480, Note_on_c, 0, 78, 66
2, 60540, Note_on_c, 0, 78, 0
2, 60540, Note_on_c, 0, 74, 0
2, 60640, Note_on_c, 0, 72, 64
2, 60640, Note_on_c, 0, 76, 64
2, 60700, Note_on_c, 0, 76, 0
2, 60700, Note_on_c, 0, 72, 0
2, 60800, Note_on_c, 0, 71, 64
2, 60800, Note_on_c, 0, 74, 64
2, 60860, Note_on_c, 0, 74, 0
2, 60860, Note_on_c, 0, 71, 0
2, 60960, Note_on_c, 0, 69, 62
2, 60960, Note_on_c, 0, 72, 62
2, 61020, Note_on_c, 0, 72, 0
2, 61020, Note_on_c, 0, 69, 0
2, 61120, Note_on_c, 0, 67, 60
2, 61120, Note_on_c, 0, 71, 60
2, 61180, Note_on_c, 0, 71, 0
2, 61180, Note_on_c, 0, 67, 0
2, 61280, Note_on_c, 0, 66, 59
2, 61280, Note_on_c, 0, 69, 59
2, 61340, Note_on_c, 0, 69, 0
2, 61340, Note_on_c, 0, 66, 0
2, 61560, Note_on_c, 0, 62, 46
2, 61650, Note_on_c, 0, 62, 0
2, 61680, Note_on_c, 0, 71, 46
2, 61770, Note_on_c, 0, 71, 0
2, 61800, Note_on_c, 0, 79, 39
2, 61890, Note_on_c, 0, 79, 0
2, 62040, Note_on_c, 0, 71, 46
2, 62130, Note_on_c, 0, 71, 0
2, 62160, Note_on_c, 0, 62, 41
2, 62250, Note_on_c, 0, 62, 0
2, 62280, Note_on_c, 0, 55, 34
2, 62370, Note_on_c, 0, 55, 0
2, 62520, Note_on_c, 0, 62, 46
2, 62610, Note_on_c, 0, 62, 0
2, 62640, Note_on_c, 0, 70, 48
2, 62730, Note_on_c, 0, 70, 0
2, 62760, Note_on_c, 0, 79, 50
2, 62850, Note_on_c, 0, 79, 0
2, 63000, Note_on_c, 0, 70, 54
2, 63090, Note_on_c, 0, 70, 0
2, 63120, Note_on_c, 0, 62, 51
2, 63210, Note_on_c, 0, 62, 0
2, 63240, Note_on_c, 0, 55, 49
2, 63520, Note_on_c, 0, 85, 70
2, 63520, Note_on_c, 0, 82, 70
2, 63570, Note_on_c, 0, 55, 0
2, 63580, Note_on_c, 0, 82, 0
2, 63580, Note_on_c, 0, 85, 0
2, 63680, Note_on_c, 0, 84, 69
2, 63680, Note_on_c, 0, 80, 69
2, 63740, Note_on_c, 0, 80, 0
2, 63740, Note_on_c, 0, 84, 0
2, 63840, Note_on_c, 0, 82, 67
2, 63840, Note_on_c, 0, 79, 67
2, 63900, Note_on_c, 0, 79, 0
2, 63900, Note_on_c, 0, 82, 0
2, 64000, Note_on_c, 0, 79, 66
2, 64000, Note_on_c, 0, 82, 66
2, 64060, Note_on_c, 0, 82, 0
2, 64060, Note_on_c, 0, 79, 0
2, 64160, Note_on_c, 0, 77, 64
2, 64160, Note_on_c, 0, 80, 64
2, 64220, Note_on_c, 0, 80, 0
2, 64220, Note_on_c, 0, 77, 0
2, 64320, Note_on_c, 0, 75, 63
2, 64320, Note_on_c, 0, 79, 63
2, 64380, Note_on_c, 0, 79, 0
2, 64380, Note_on_c, 0, 75, 0
2, 64480, Note_on_c, 0, 73, 61
2, 64480, Note_on_c, 0, 77, 61
2, 64540, Note_on_c, 0, 77, 0
2, 64540, Note_on_c, 0, 73, 0
2, 64640, Note_on_c, 0, 72, 60
2, 64640, Note_on_c, 0, 75, 60
2, 64700, Note_on_c, 0, 75, 0
2, 64700, Note_on_c, 0, 72, 0
2, 64800, Note_on_c, 0, 70, 59
2, 64800, Note_on_c, 0, 73, 59
2, 64860, Note_on_c, 0, 73, 0
2, 64860, Note_on_c, 0, 70, 0
2, 64960, Note_on_c, 0, 68, 57
2, 64960, Note_on_c, 0, 72, 57
2, 65020, Note_on_c, 0, 72, 0
2, 65020, Note_on_c, 0, 68, 0
2, 65120, Note_on_c, 0, 67, 61
2, 65120, Note_on_c, 0, 70, 61
2, 65180, Note_on_c, 0, 70, 0
2, 65180, Note_on_c, 0, 67, 0
2, 65400, Note_on_c, 0, 63, 46
2, 65490, Note_on_c, 0, 63, 0
2, 65520, Note_on_c, 0, 72, 46
2, 65610, Note_on_c, 0, 72, 0
2, 65640, Note_on_c, 0, 80, 42
2, 65730, Note_on_c, 0, 80, 0
2, 65880, Note_on_c, 0, 72, 46
2, 65970, Note_on_c, 0, 72, 0
2, 66000, Note_on_c, 0, 63, 42
2, 66090, Note_on_c, 0, 63, 0
2, 66120, Note_on_c, 0, 56, 37
2, 66210, Note_on_c, 0, 56, 0
2, 66360, Note_on_c, 0, 63, 46
2, 66450, Note_on_c, 0, 63, 0
2, 66480, Note_on_c, 0, 71, 48
2, 66570, Note_on_c, 0, 71, 0
2, 66600, Note_on_c, 0, 80, 45
2, 66690, Note_on_c, 0, 80, 0
2, 66840, Note_on_c, 0, 71, 54
2, 66930, Note_on_c, 0, 71, 0
2, 66960, Note_on_c, 0, 63, 49
2, 67050, Note_on_c, 0, 63, 0
2, 67080, Note_on_c, 0, 56, 47
2, 67360, Note_on_c, 0, 86, 70
2, 67360, Note_on_c, 0, 83, 70
2, 67410, Note_on_c, 0, 56, 0
2, 67420, Note_on_c, 0, 83, 0
2, 67420, Note_on_c, 0, 86, 0
2, 67520, Note_on_c, 0, 85, 69
2, 67520, Note_on_c, 0, 81, 69
2, 67580, Note_on_c, 0, 81, 0
2, 67580, Note_on_c, 0, 85, 0
2, 67680, Note_on_c, 0, 83, 67
2, 67680, Note_on_c, 0, 80, 67
2, 67740, Note_on_c, 0, 80, 0
2, 67740, Note_on_c, 0, 83, 0
2, 67840, Note_on_c, 0, 80, 66
2, 67840, Note_on_c, 0, 83, 66
2, 67900, Note_on_c, 0, 83, 0
2, 67900, Note_on_c, 0, 80, 0
2, 68000, Note_on_c, 0, 78, 64
2, 68000, Note_on_c, 0, 81, 64
2, 68060, Note_on_c, 0, 81, 0
2, 68060, Note_on_c, 0, 78, 0
2, 68160, Note_on_c, 0, 76, 63
2, 68160, Note_on_c, 0, 80, 63
2, 68220, Note_on_c, 0, 80, 0
2, 68220, Note_on_c, 0, 76, 0
2, 68320, Note_on_c, 0, 74, 61
2, 68320, Note_on_c, 0, 78, 61
2, 68380, Note_on_c, 0, 78, 0
2, 68380, Note_on_c, 0, 74, 0
2, 68480, Note_on_c, 0, 73, 60
2, 68480, Note_on_c, 0, 76, 60
2, 68540, Note_on_c, 0, 76, 0
2, 68540, Note_on_c, 0, 73, 0
2, 68640, Note_on_c, 0, 71, 59
2, 68640, Note_on_c, 0, 74, 59
2, 68700, Note_on_c, 0, 74, 0
2, 68700, Note_on_c, 0, 71, 0
2, 68800, Note_on_c, 0, 69, 57
2, 68800, Note_on_c, 0, 73, 57
2, 68860, Note_on_c, 0, 73, 0
2, 68860, Note_on_c, 0, 69, 0
2, 68960, Note_on_c, 0, 68, 61
2, 68960, Note_on_c, 0, 71, 61
2, 69020, Note_on_c, 0, 71, 0
2, 69020, Note_on_c, 0, 68, 0
2, 69240, Note_on_c, 0, 64, 46
2, 69330, Note_on_c, 0, 64, 0
2, 69360, Note_on_c, 0, 73, 42
2, 69450, Note_on_c, 0, 73, 0
2, 69480, Note_on_c, 0, 81, 46
2, 69570, Note_on_c, 0, 81, 0
2, 69720, Note_on_c, 0, 73, 46
2, 69810, Note_on_c, 0, 73, 0
2, 69840, Note_on_c, 0, 64, 43
2, 69930, Note_on_c, 0, 64, 0
2, 69960, Note_on_c, 0, 57, 38
2, 70050, Note_on_c, 0, 57, 0
2, 70200, Note_on_c, 0, 64, 46
2, 70290, Note_on_c, 0, 64, 0
2, 70320, Note_on_c, 0, 72, 48
2, 70410, Note_on_c, 0, 72, 0
2, 70440, Note_on_c, 0, 81, 50
2, 70530, Note_on_c, 0, 81, 0
2, 70680, Note_on_c, 0, 72, 54
2, 70770, Note_on_c, 0, 72, 0
2, 70800, Note_on_c, 0, 64, 51
2, 70890, Note_on_c, 0, 64, 0
2, 70920, Note_on_c, 0, 57, 48
2, 71200, Note_on_c, 0, 87, 70
2, 71200, Note_on_c, 0, 84, 70
2, 71250, Note_on_c, 0, 57, 0
2, 71260, Note_on_c, 0, 84, 0
2, 71260, Note_on_c, 0, 87, 0
2, 71360, Note_on_c, 0, 86, 69
2, 71360, Note_on_c, 0, 82, 69
2, 71420, Note_on_c, 0, 82, 0
2, 71420, Note_on_c, 0, 86, 0
2, 71520, Note_on_c, 0, 84, 67
2, 71520, Note_on_c, 0, 81, 67
2, 71580, Note_on_c, 0, 81, 0
2, 71580, Note_on_c, 0, 84, 0
2, 71680, Note_on_c, 0, 81, 66
2, 71680, Note_on_c, 0, 84, 66
2, 71740, Note_on_c, 0, 84, 0
2, 71740, Note_on_c, 0, 81, 0
2, 71840, Note_on_c, 0, 79, 64
2, 71840, Note_on_c, 0, 82, 64
2, 71900, Note_on_c, 0, 82, 0
2, 71900, Note_on_c, 0, 79, 0
2, 72000, Note_on_c, 0, 77, 63
2, 72000, Note_on_c, 0, 81, 63
2, 72060, Note_on_c, 0, 81, 0
2, 72060, Note_on_c, 0, 77, 0
2, 72160, Note_on_c, 0, 75, 61
2, 72160, Note_on_c, 0, 79, 61
2, 72220, Note_on_c, 0, 79, 0
2, 72220, Note_on_c, 0, 75, 0
2, 72320, Note_on_c, 0, 74, 60
2, 72320, Note_on_c, 0, 77, 60
2, 72380, Note_on_c, 0, 77, 0
2, 72380, Note_on_c, 0, 74, 0
2, 72480, Note_on_c, 0, 72, 59
2, 72480, Note_on_c, 0, 75, 59
2, 72540, Note_on_c, 0, 75, 0
2, 72540, Note_on_c, 0, 72, 0
2, 72640, Note_on_c, 0, 70, 57
2, 72640, Note_on_c, 0, 74, 57
2, 72700, Note_on_c, 0, 74, 0
2, 72700, Note_on_c, 0, 70, 0
2, 72800, Note_on_c, 0, 69, 61
2, 72800, Note_on_c, 0, 72, 61
2, 72860, Note_on_c, 0, 72, 0
2, 72860, Note_on_c, 0, 69, 0
2, 73080, Note_on_c, 0, 65, 51
2, 73170, Note_on_c, 0, 65, 0
2, 73200, Note_on_c, 0, 74, 46
2, 73290, Note_on_c, 0, 74, 0
2, 73320, Note_on_c, 0, 82, 51
2, 73410, Note_on_c, 0, 82, 0
2, 73560, Note_on_c, 0, 74, 51
2, 73650, Note_on_c, 0, 74, 0
2, 73680, Note_on_c, 0, 65, 45
2, 73770, Note_on_c, 0, 65, 0
2, 73800, Note_on_c, 0, 58, 41
2, 73890, Note_on_c, 0, 58, 0
2, 74040, Note_on_c, 0, 65, 51
2, 74130, Note_on_c, 0, 65, 0
2, 74160, Note_on_c, 0, 73, 46
2, 74250, Note_on_c, 0, 73, 0
2, 74280, Note_on_c, 0, 82, 51
2, 74370, Note_on_c, 0, 82, 0
2, 74520, Note_on_c, 0, 73, 51
2, 74610, Note_on_c, 0, 73, 0
2, 74640, Note_on_c, 0, 65, 47
2, 74730, Note_on_c, 0, 65, 0
2, 74760, Note_on_c, 0, 58, 43
2, 74850, Note_on_c, 0, 58, 0
2, 75000, Note_on_c, 0, 66, 51
2, 75090, Note_on_c, 0, 66, 0
2, 75120, Note_on_c, 0, 73, 47
2, 75210, Note_on_c, 0, 73, 0
2, 75240, Note_on_c, 0, 82, 51
2, 75330, Note_on_c, 0, 82, 0
2, 75480, Note_on_c, 0, 73, 51
2, 75570, Note_on_c, 0, 73, 0
2, 75600, Note_on_c, 0, 66, 49
2, 75690, Note_on_c, 0, 66, 0
2, 75720, Note_on_c, 0, 58, 43
2, 75810, Note_on_c, 0, 58, 0
2, 75960, Note_on_c, 0, 66, 51
2, 76050, Note_on_c, 0, 66, 0
2, 76080, Note_on_c, 0, 76, 48
2, 76170, Note_on_c, 0, 76, 0
2, 76200, Note_on_c, 0, 85, 51
2, 76290, Note_on_c, 0, 85, 0
2, 76440, Note_on_c, 0, 76, 51
2, 76530, Note_on_c, 0, 76, 0
2, 76560, Note_on_c, 0, 66, 46
2, 76650, Note_on_c, 0, 66, 0
2, 76680, Note_on_c, 0, 58, 42
2, 76770, Note_on_c, 0, 58, 0
2, 76920, Note_on_c, 0, 66, 52
2, 77010, Note_on_c, 0, 66, 0
2, 77040, Note_on_c, 0, 75, 49
2, 77130, Note_on_c, 0, 75, 0
2, 77160, Note_on_c, 0, 83, 52
2, 77250, Note_on_c, 0, 83, 0
2, 77400, Note_on_c, 0, 75, 53
2, 77490, Note_on_c, 0, 75, 0
2, 77520, Note_on_c, 0, 66, 46
2, 77610, Note_on_c, 0, 66, 0
2, 77640, Note_on_c, 0, 59, 43
2, 77730, Note_on_c, 0, 59, 0
2, 77880, Note_on_c, 0, 66, 54
2, 77970, Note_on_c, 0, 66, 0
2, 78000, Note_on_c, 0, 74, 50
2, 78090, Note_on_c, 0, 74, 0
2, 78120, Note_on_c, 0, 83, 55
2, 78210, Note_on_c, 0, 83, 0
2, 78360, Note_on_c, 0, 74, 55
2, 78450, Note_on_c, 0, 74, 0
2, 78480, Note_on_c, 0, 66, 50
2, 78570, Note_on_c, 0, 66, 0
2, 78600, Note_on_c, 0, 59, 46
2, 78690, Note_on_c, 0, 59, 0
2, 78840, Note_on_c, 0, 67, 56
2, 78930, Note_on_c, 0, 67, 0
2, 78960, Note_on_c, 0, 74, 57
2, 79050, Note_on_c, 0, 74, 0
2, 79080, Note_on_c, 0, 83, 50
2, 79170, Note_on_c, 0, 83, 0
2, 79320, Note_on_c, 0, 74, 58
2, 79410, Note_on_c, 0, 74, 0
2, 79440, Note_on_c, 0, 67, 50
2, 79530, Note_on_c, 0, 67, 0
2, 79560, Note_on_c, 0, 59, 46
2, 79650, Note_on_c, 0, 59, 0
2, 79800, Note_on_c, 0, 67, 59
2, 79890, Note_on_c, 0, 67, 0
2, 79920, Note_on_c, 0, 77, 53
2, 80010, Note_on_c, 0, 77, 0
2, 80040, Note_on_c, 0, 86, 59
2, 80130, Note_on_c, 0, 86, 0
2, 80280, Note_on_c, 0, 77, 59
2, 80370, Note_on_c, 0, 77, 0
2, 80400, Note_on_c, 0, 67, 53
2, 80490, Note_on_c, 0, 67, 0
2, 80520, Note_on_c, 0, 59, 48
2, 80610, Note_on_c, 0, 59, 0
2, 80760, Note_on_c, 0, 67, 60
2, 80850, Note_on_c, 0, 67, 0
2, 80880, Note_on_c, 0, 76, 60
2, 80970, Note_on_c, 0, 76, 0
2, 81000, Note_on_c, 0, 84, 56
2, 81090, Note_on_c, 0, 84, 0
2, 81240, Note_on_c, 0, 76, 62
2, 81330, Note_on_c, 0, 76, 0
2, 81360, Note_on_c, 0, 67, 55
2, 81450, Note_on_c, 0, 67, 0
2, 81480, Note_on_c, 0, 60, 50
2, 81570, Note_on_c, 0, 60, 0
2, 81720, Note_on_c, 0, 67, 63
2, 81810, Note_on_c, 0, 67, 0
2, 81840, Note_on_c, 0, 75, 63
2, 81930, Note_on_c, 0, 75, 0
2, 81960, Note_on_c, 0, 84, 58
2, 82050, Note_on_c, 0, 84, 0
2, 82200, Note_on_c, 0, 75, 64
2, 82290, Note_on_c, 0, 75, 0
2, 82320, Note_on_c, 0, 67, 61
2, 82410, Note_on_c, 0, 67, 0
2, 82440, Note_on_c, 0, 60, 56
2, 82530, Note_on_c, 0, 60, 0
2, 82680, Note_on_c, 0, 68, 64
2, 82770, Note_on_c, 0, 68, 0
2, 82800, Note_on_c, 0, 75, 58
2, 82890, Note_on_c, 0, 75, 0
2, 82920, Note_on_c, 0, 84, 66
2, 83010, Note_on_c, 0, 84, 0
2, 83160, Note_on_c, 0, 75, 66
2, 83250, Note_on_c, 0, 75, 0
2, 83280, Note_on_c, 0, 68, 62
2, 83370, Note_on_c, 0, 68, 0
2, 83400, Note_on_c, 0, 60, 56
2, 83490, Note_on_c, 0, 60, 0
2, 83640, Note_on_c, 0, 68, 68
2, 83730, Note_on_c, 0, 68, 0
2, 83760, Note_on_c, 0, 78, 63
2, 83850, Note_on_c, 0, 78, 0
2, 83880, Note_on_c, 0, 87, 69
2, 83970, Note_on_c, 0, 87, 0
2, 84120, Note_on_c, 0, 78, 69
2, 84210, Note_on_c, 0, 78, 0
2, 84240, Note_on_c, 0, 68, 61
2, 84330, Note_on_c, 0, 68, 0
2, 84360, Note_on_c, 0, 60, 51
2, 84450, Note_on_c, 0, 60, 0
2, 85560, Note_on_c, 0, 65, 51
2, 85650, Note_on_c, 0, 65, 0
2, 85680, Note_on_c, 0, 68, 51
2, 85770, Note_on_c, 0, 68, 0
2, 85800, Note_on_c, 0, 77, 45
2, 85800, Note_on_c, 0, 73, 45
2, 85890, Note_on_c, 0, 73, 0
2, 85890, Note_on_c, 0, 77, 0
2, 86040, Note_on_c, 0, 68, 51
2, 86130, Note_on_c, 0, 68, 0
2, 86160, Note_on_c, 0, 65, 45
2, 86250, Note_on_c, 0, 65, 0
2, 86280, Note_on_c, 0, 61, 40
2, 86370, Note_on_c, 0, 61, 0
2, 86520, Note_on_c, 0, 63, 51
2, 86610, Note_on_c, 0, 63, 0
2, 86640, Note_on_c, 0, 68, 51
2, 86730, Note_on_c, 0, 68, 0
2, 86760, Note_on_c, 0, 75, 45
2, 86760, Note_on_c, 0, 78, 45
2, 86850, Note_on_c, 0, 78, 0
2, 86850, Note_on_c, 0, 75, 0
2, 87000, Note_on_c, 0, 68, 51
2, 87090, Note_on_c, 0, 68, 0
2, 87120, Note_on_c, 0, 63, 44
2, 87210, Note_on_c, 0, 63, 0
2, 87240, Note_on_c, 0, 60, 39
2, 87330, Note_on_c, 0, 60, 0
2, 87480, Note_on_c, 0, 65, 51
2, 87570, Note_on_c, 0, 65, 0
2, 87600, Note_on_c, 0, 68, 51
2, 87690, Note_on_c, 0, 68, 0
2, 87720, Note_on_c, 0, 77, 46
2, 87720, Note_on_c, 0, 73, 46
2, 87810, Note_on_c, 0, 73, 0
2, 87810, Note_on_c, 0, 77, 0
2, 87960, Note_on_c, 0, 68, 51
2, 88050, Note_on_c, 0, 68, 0
2, 88080, Note_on_c, 0, 65, 45
2, 88170, Note_on_c, 0, 65, 0
2, 88200, Note_on_c, 0, 61, 42
2, 88290, Note_on_c, 0, 61, 0
2, 88440, Note_on_c, 0, 63, 51
2, 88530, Note_on_c, 0, 63, 0
2, 88560, Note_on_c, 0, 68, 51
2, 88650, Note_on_c, 0, 68, 0
2, 88680, Note_on_c, 0, 72, 46
2, 88680, Note_on_c, 0, 80, 46
2, 88770, Note_on_c, 0, 80, 0
2, 88770, Note_on_c, 0, 72, 0
2, 88920, Note_on_c, 0, 68, 51
2, 89010, Note_on_c, 0, 68, 0
2, 89040, Note_on_c, 0, 63, 45
2, 89130, Note_on_c, 0, 63, 0
2, 89160, Note_on_c, 0, 56, 40
2, 89250, Note_on_c, 0, 56, 0
2, 89400, Note_on_c, 0, 64, 43
2, 89490, Note_on_c, 0, 64, 0
2, 89520, Note_on_c, 0, 68, 43
2, 89610, Note_on_c, 0, 68, 0
2, 89640, Note_on_c, 0, 76, 39
2, 89640, Note_on_c, 0, 73, 39
2, 89730, Note_on_c, 0, 73, 0
2, 89730, Note_on_c, 0, 76, 0
2, 89880, Note_on_c, 0, 68, 43
2, 89970, Note_on_c, 0, 68, 0
2, 90000, Note_on_c, 0, 64, 37
2, 90090, Note_on_c, 0, 64, 0
2, 90120, Note_on_c, 0, 61, 33
2, 90210, Note_on_c, 0, 61, 0
2, 90360, Note_on_c, 0, 63, 43
2, 90450, Note_on_c, 0, 63, 0
2, 90480, Note_on_c, 0, 68, 43
2, 90570, Note_on_c, 0, 68, 0
2, 90600, Note_on_c, 0, 75, 39
2, 90600, Note_on_c, 0, 78, 39
2, 90690, Note_on_c, 0, 78, 0
2, 90690, Note_on_c, 0, 75, 0
2, 90840, Note_on_c, 0, 68, 43
2, 90930, Note_on_c, 0, 68, 0
2, 90960, Note_on_c, 0, 63, 39
2, 91050, Note_on_c, 0, 63, 0
2, 91080, Note_on_c, 0, 60, 37
2, 91170, Note_on_c, 0, 60, 0
2, 91320, Note_on_c, 0, 64, 43
2, 91410, Note_on_c, 0, 64, 0
2, 91440, Note_on_c, 0, 68, 43
2, 91530, Note_on_c, 0, 68, 0
2, 91560, Note_on_c, 0, 76, 38
2, 91560, Note_on_c, 0, 73, 38
2, 91650, Note_on_c, 0, 73, 0
2, 91650, Note_on_c, 0, 76, 0
2, 91800, Note_on_c, 0, 68, 43
2, 91890, Note_on_c, 0, 68, 0
2, 91920, Note_on_c, 0, 64, 38
2, 92010, Note_on_c, 0, 64, 0
2, 92040, Note_on_c, 0, 61, 35
2, 92130, Note_on_c, 0, 61, 0
2, 92280, Note_on_c, 0, 63, 43
2, 92370, Note_on_c, 0, 63, 0
2, 92400, Note_on_c, 0, 68, 43
2, 92490, Note_on_c, 0, 68, 0
2, 92520, Note_on_c, 0, 72, 40
2, 92520, Note_on_c, 0, 80, 40
2, 92610, Note_on_c, 0, 80, 0
2, 92610, Note_on_c, 0, 72, 0
2, 92760, Note_on_c, 0, 68, 43
2, 92850, Note_on_c, 0, 68, 0
2, 92880, Note_on_c, 0, 63, 39
2, 92970, Note_on_c, 0, 63, 0
2, 93000, Note_on_c, 0, 56, 35
2, 93090, Note_on_c, 0, 56, 0
2, 93240, Note_on_c, 0, 64, 43
2, 93330, Note_on_c, 0, 64, 0
2, 93360, Note_on_c, 0, 68, 43
2, 93450, Note_on_c, 0, 68, 0
2, 93480, Note_on_c, 0, 76, 41
2, 93480, Note_on_c, 0, 73, 41
2, 93570, Note_on_c, 0, 73, 0
2, 93570, Note_on_c, 0, 76, 0
2, 93720, Note_on_c, 0, 68, 45
2, 93810, Note_on_c, 0, 68, 0
2, 93840, Note_on_c, 0, 64, 42
2, 93930, Note_on_c, 0, 64, 0
2, 93960, Note_on_c, 0, 61, 41
2, 94050, Note_on_c, 0, 61, 0
2, 94200, Note_on_c, 0, 64, 48
2, 94290, Note_on_c, 0, 64, 0
2, 94320, Note_on_c, 0, 68, 49
2, 94410, Note_on_c, 0, 68, 0
2, 94440, Note_on_c, 0, 76, 50
2, 94440, Note_on_c, 0, 74, 41
2, 94530, Note_on_c, 0, 74, 0
2, 94530, Note_on_c, 0, 76, 0
2, 94680, Note_on_c, 0, 68, 52
2, 94770, Note_on_c, 0, 68, 0
2, 94800, Note_on_c, 0, 64, 50
2, 94890, Note_on_c, 0, 64, 0
2, 94920, Note_on_c, 0, 59, 46
2, 95010, Note_on_c, 0, 59, 0
2, 95160, Note_on_c, 0, 64, 56
2, 95250, Note_on_c, 0, 64, 0
2, 95280, Note_on_c, 0, 69, 56
2, 95370, Note_on_c, 0, 69, 0
2, 95400, Note_on_c, 0, 73, 47
2, 95400, Note_on_c, 0, 81, 57
2, 95490, Note_on_c, 0, 81, 0
2, 95490, Note_on_c, 0, 73, 0
2, 95640, Note_on_c, 0, 69, 59
2, 95730, Note_on_c, 0, 69, 0
2, 95760, Note_on_c, 0, 64, 55
2, 95850, Note_on_c, 0, 64, 0
2, 95880, Note_on_c, 0, 57, 50
2, 95970, Note_on_c, 0, 57, 0
2, 96120, Note_on_c, 0, 67, 62
2, 96210, Note_on_c, 0, 67, 0
2, 96240, Note_on_c, 0, 73, 63
2, 96330, Note_on_c, 0, 73, 0
2, 96360, Note_on_c, 0, 85, 64
2, 96360, Note_on_c, 0, 76, 54
2, 96450, Note_on_c, 0, 76, 0
2, 96450, Note_on_c, 0, 85, 0
2, 96600, Note_on_c, 0, 73, 67
2, 96690, Note_on_c, 0, 73, 0
2, 96720, Note_on_c, 0, 67, 62
2, 96810, Note_on_c, 0, 67, 0
2, 96840, Note_on_c, 0, 58, 58
2, 96930, Note_on_c, 0, 58, 0
2, 100920, Note_on_c, 0, 68, 51
2, 101010, Note_on_c, 0, 68, 0
2, 101040, Note_on_c, 0, 71, 51
2, 101130, Note_on_c, 0, 71, 0
2, 101160, Note_on_c, 0, 76, 48
2, 101250, Note_on_c, 0, 76, 0
2, 101400, Note_on_c, 0, 71, 51
2, 101490, Note_on_c, 0, 71, 0
2, 101520, Note_on_c, 0, 68, 48
2, 101610, Note_on_c, 0, 68, 0
2, 101640, Note_on_c, 0, 64, 42
2, 101730, Note_on_c, 0, 64, 0
2, 101880, Note_on_c, 0, 69, 51
2, 101970, Note_on_c, 0, 69, 0
2, 102000, Note_on_c, 0, 72, 51
2, 102090, Note_on_c, 0, 72, 0
2, 102120, Note_on_c, 0, 76, 46
2, 102210, Note_on_c, 0, 76, 0
2, 102360, Note_on_c, 0, 72, 51
2, 102450, Note_on_c, 0, 72, 0
2, 102480, Note_on_c, 0, 69, 44
2, 102570, Note_on_c, 0, 69, 0
2, 102600, Note_on_c, 0, 64, 42
2, 102690, Note_on_c, 0, 64, 0
2, 102840, Note_on_c, 0, 67, 51
2, 102930, Note_on_c, 0, 67, 0
2, 102960, Note_on_c, 0, 70, 51
2, 103050, Note_on_c, 0, 70, 0
2, 103080, Note_on_c, 0, 76, 48
2, 103170, Note_on_c, 0, 76, 0
2, 103320, Note_on_c, 0, 70, 51
2, 103410, Note_on_c, 0, 70, 0
2, 103440, Note_on_c, 0, 67, 48
2, 103530, Note_on_c, 0, 67, 0
2, 103560, Note_on_c, 0, 64, 44
2, 103650, Note_on_c, 0, 64, 0
2, 103800, Note_on_c, 0, 68, 51
2, 103890, Note_on_c, 0, 68, 0
2, 103920, Note_on_c, 0, 71, 51
2, 104010, Note_on_c, 0, 71, 0
2, 104040, Note_on_c, 0, 76, 48
2, 104130, Note_on_c, 0, 76, 0
2, 104160, Note_on_c, 0, 83, 73
2, 104160, Note_on_c, 0, 80, 64
2, 104220, Note_on_c, 0, 80, 0
2, 104220, Note_on_c, 0, 83, 0
2, 104320, Note_on_c, 0, 81, 65
2, 104320, Note_on_c, 0, 78, 57
2, 104380, Note_on_c, 0, 78, 0
2, 104380, Note_on_c, 0, 81, 0
2, 104480, Note_on_c, 0, 80, 66
2, 104480, Note_on_c, 0, 76, 58
2, 104540, Note_on_c, 0, 76, 0
2, 104540, Note_on_c, 0, 80, 0
2, 104640, Note_on_c, 0, 81, 66
2, 104640, Note_on_c, 0, 85, 75
2, 104700, Note_on_c, 0, 85, 0
2, 104700, Note_on_c, 0, 81, 0
2, 104800, Note_on_c, 0, 83, 66
2, 104800, Note_on_c, 0, 80, 58
2, 104860, Note_on_c, 0, 80, 0
2, 104860, Note_on_c, 0, 83, 0
2, 104960, Note_on_c, 0, 78, 58
2, 104960, Note_on_c, 0, 81, 66
2, 105020, Note_on_c, 0, 81, 0
2, 105020, Note_on_c, 0, 78, 0
2, 105120, Note_on_c, 0, 76, 66
2, 105120, Note_on_c, 0, 80, 75
2, 105180, Note_on_c, 0, 80, 0
2, 105180, Note_on_c, 0, 76, 0
2, 105280, Note_on_c, 0, 75, 57
2, 105280, Note_on_c, 0, 78, 65
2, 105340, Note_on_c, 0, 78, 0
2, 105340, Note_on_c, 0, 75, 0
2, 105440, Note_on_c, 0, 73, 57
2, 105440, Note_on_c, 0, 76, 65
2, 105500, Note_on_c, 0, 76, 0
2, 105500, Note_on_c, 0, 73, 0
2, 105720, Note_on_c, 0, 68, 57
2, 105810, Note_on_c, 0, 68, 0
2, 105840, Note_on_c, 0, 76, 57
2, 105930, Note_on_c, 0, 76, 0
2, 105960, Note_on_c, 0, 83, 53
2, 106050, Note_on_c, 0, 83, 0
2, 106080, Note_on_c, 0, 83, 65
2, 106170, Note_on_c, 0, 83, 0
2, 106200, Note_on_c, 0, 76, 56
2, 106290, Note_on_c, 0, 76, 0
2, 106320, Note_on_c, 0, 68, 48
2, 106410, Note_on_c, 0, 68, 0
2, 106440, Note_on_c, 0, 59, 45
2, 106530, Note_on_c, 0, 59, 0
2, 106680, Note_on_c, 0, 66, 54
2, 106770, Note_on_c, 0, 66, 0
2, 106800, Note_on_c, 0, 75, 54
2, 106890, Note_on_c, 0, 75, 0
2, 106920, Note_on_c, 0, 83, 50
2, 107010, Note_on_c, 0, 83, 0
2, 107040, Note_on_c, 0, 83, 60
2, 107130, Note_on_c, 0, 83, 0
2, 107160, Note_on_c, 0, 75, 54
2, 107250, Note_on_c, 0, 75, 0
2, 107280, Note_on_c, 0, 66, 49
2, 107370, Note_on_c, 0, 66, 0
2, 107400, Note_on_c, 0, 59, 46
2, 107490, Note_on_c, 0, 59, 0
2, 107640, Note_on_c, 0, 68, 53
2, 107730, Note_on_c, 0, 68, 0
2, 107760, Note_on_c, 0, 76, 53
2, 107850, Note_on_c, 0, 76, 0
2, 107880, Note_on_c, 0, 83, 52
2, 107970, Note_on_c, 0, 83, 0
2, 108600, Note_on_c, 0, 71, 51
2, 108600, Note_on_c, 0, 68, 43
2, 108690, Note_on_c, 0, 68, 0
2, 108690, Note_on_c, 0, 71, 0
2, 108720, Note_on_c, 0, 76, 50
2, 108810, Note_on_c, 0, 76, 0
2, 108840, Note_on_c, 0, 80, 42
2, 108840, Note_on_c, 0, 88, 50
2, 108930, Note_on_c, 0, 88, 0
2, 108930, Note_on_c, 0, 80, 0
2, 108960, Note_on_c, 0, 80, 45
2, 108960, Note_on_c, 0, 88, 54
2, 109050, Note_on_c, 0, 88, 0
2, 109050, Note_on_c, 0, 80, 0
2, 109080, Note_on_c, 0, 76, 48
2, 109170, Note_on_c, 0, 76, 0
2, 109200, Note_on_c, 0, 68, 40
2, 109200, Note_on_c, 0, 71, 48
2, 109290, Note_on_c, 0, 71, 0
2, 109290, Note_on_c, 0, 68, 0
2, 109320, Note_on_c, 0, 64, 42
2, 109410, Note_on_c, 0, 64, 0
2, 109560, Note_on_c, 0, 72, 51
2, 109560, Note_on_c, 0, 69, 43
2, 109650, Note_on_c, 0, 69, 0
2, 109650, Note_on_c, 0, 72, 0
2, 109680, Note_on_c, 0, 76, 50
2, 109770, Note_on_c, 0, 76, 0
2, 109800, Note_on_c, 0, 81, 42
2, 109800, Note_on_c, 0, 88, 50
2, 109890, Note_on_c, 0, 88, 0
2, 109890, Note_on_c, 0, 81, 0
2, 109920, Note_on_c, 0, 81, 45
2, 109920, Note_on_c, 0, 88, 54
2, 110010, Note_on_c, 0, 88, 0
2, 110010, Note_on_c, 0, 81, 0
2, 110040, Note_on_c, 0, 76, 48
2, 110130, Note_on_c, 0, 76, 0
2, 110160, Note_on_c, 0, 72, 45
2, 110160, Note_on_c, 0, 69, 45
2, 110250, Note_on_c, 0, 69, 0
2, 110250, Note_on_c, 0, 72, 0
2, 110280, Note_on_c, 0, 64, 40
2, 110370, Note_on_c, 0, 64, 0
2, 110520, Note_on_c, 0, 70, 52
2, 110520, Note_on_c, 0, 67, 43
2, 110610, Note_on_c, 0, 67, 0
2, 110610, Note_on_c, 0, 70, 0
2, 110640, Note_on_c, 0, 76, 52
2, 110730, Note_on_c, 0, 76, 0
2, 110760, Note_on_c, 0, 79, 45
2, 110760, Note_on_c, 0, 88, 53
2, 110850, Note_on_c, 0, 88, 0
2, 110850, Note_on_c, 0, 79, 0
2, 110880, Note_on_c, 0, 79, 50
2, 110880, Note_on_c, 0, 88, 59
2, 110970, Note_on_c, 0, 88, 0
2, 110970, Note_on_c, 0, 79, 0
2, 111000, Note_on_c, 0, 76, 54
2, 111090, Note_on_c, 0, 76, 0
2, 111120, Note_on_c, 0, 70, 47
2, 111120, Note_on_c, 0, 67, 47
2, 111210, Note_on_c, 0, 67, 0
2, 111210, Note_on_c, 0, 70, 0
2, 111240, Note_on_c, 0, 64, 41
2, 111330, Note_on_c, 0, 64, 0
2, 111480, Note_on_c, 0, 71, 61
2, 111480, Note_on_c, 0, 68, 61
2, 111570, Note_on_c, 0, 68, 0
2, 111570, Note_on_c, 0, 71, 0
2, 111600, Note_on_c, 0, 76, 61
2, 111690, Note_on_c, 0, 76, 0
2, 111720, Note_on_c, 0, 88, 61
2, 111720, Note_on_c, 0, 80, 61
2, 111810, Note_on_c, 0, 80, 0
2, 111810, Note_on_c, 0, 88, 0
2, 111840, Note_on_c, 0, 68, 73
2, 111840, Note_on_c, 0, 64, 64
2, 111900, Note_on_c, 0, 64, 0
2, 111900, Note_on_c, 0, 68, 0
2, 112000, Note_on_c, 0, 69, 66
2, 112000, Note_on_c, 0, 66, 58
2, 112060, Note_on_c, 0, 66, 0
2, 112060, Note_on_c, 0, 69, 0
2, 112160, Note_on_c, 0, 71, 68
2, 112160, Note_on_c, 0, 68, 60
2, 112220, Note_on_c, 0, 68, 0
2, 112220, Note_on_c, 0, 71, 0
2, 112320, Note_on_c, 0, 69, 69
2, 112320, Note_on_c, 0, 73, 79
2, 112380, Note_on_c, 0, 73, 0
2, 112380, Note_on_c, 0, 69, 0
2, 112480, Note_on_c, 0, 75, 71
2, 112480, Note_on_c, 0, 71, 62
2, 112540, Note_on_c, 0, 71, 0
2, 112540, Note_on_c, 0, 75, 0
2, 112640, Note_on_c, 0, 73, 64
2, 112640, Note_on_c, 0, 76, 73
2, 112700, Note_on_c, 0, 76, 0
2, 112700, Note_on_c, 0, 73, 0
2, 112800, Note_on_c, 0, 75, 71
2, 112800, Note_on_c, 0, 78, 81
2, 112860, Note_on_c, 0, 78, 0
2, 112860, Note_on_c, 0, 75, 0
2, 112960, Note_on_c, 0, 76, 65
2, 112960, Note_on_c, 0, 80, 74
2, 113020, Note_on_c, 0, 80, 0
2, 113020, Note_on_c, 0, 76, 0
2, 113120, Note_on_c, 0, 78, 66
2, 113120, Note_on_c, 0, 81, 76
2, 113180, Note_on_c, 0, 81, 0
2, 113180, Note_on_c, 0, 78, 0
2, 113400, Note_on_c, 0, 71, 56
2, 113400, Note_on_c, 0, 68, 47
2, 113490, Note_on_c, 0, 68, 0
2, 113490, Note_on_c, 0, 71, 0
2, 113520, Note_on_c, 0, 76, 56
2, 113610, Note_on_c, 0, 76, 0
2, 113640, Note_on_c, 0, 88, 50
2, 113640, Note_on_c, 0, 80, 50
2, 113730, Note_on_c, 0, 80, 0
2, 113730, Note_on_c, 0, 88, 0
2, 113760, Note_on_c, 0, 80, 52
2, 113760, Note_on_c, 0, 88, 62
2, 113850, Note_on_c, 0, 88, 0
2, 113850, Note_on_c, 0, 80, 0
2, 113880, Note_on_c, 0, 76, 56
2, 113970, Note_on_c, 0, 76, 0
2, 114000, Note_on_c, 0, 71, 49
2, 114000, Note_on_c, 0, 68, 49
2, 114090, Note_on_c, 0, 68, 0
2, 114090, Note_on_c, 0, 71, 0
2, 114120, Note_on_c, 0, 59, 44
2, 114210, Note_on_c, 0, 59, 0
2, 114360, Note_on_c, 0, 71, 56
2, 114360, Note_on_c, 0, 66, 47
2, 114450, Note_on_c, 0, 66, 0
2, 114450, Note_on_c, 0, 71, 0
2, 114480, Note_on_c, 0, 75, 56
2, 114570, Note_on_c, 0, 75, 0
2, 114600, Note_on_c, 0, 87, 51
2, 114600, Note_on_c, 0, 78, 51
2, 114690, Note_on_c, 0, 78, 0
2, 114690, Note_on_c, 0, 87, 0
2, 114720, Note_on_c, 0, 78, 53
2, 114720, Note_on_c, 0, 87, 63
2, 114810, Note_on_c, 0, 87, 0
2, 114810, Note_on_c, 0, 78, 0
2, 114840, Note_on_c, 0, 75, 57
2, 114930, Note_on_c, 0, 75, 0
2, 114960, Note_on_c, 0, 71, 50
2, 114960, Note_on_c, 0, 66, 50
2, 115050, Note_on_c, 0, 66, 0
2, 115050, Note_on_c, 0, 71, 0
2, 115080, Note_on_c, 0, 59, 43
2, 115170, Note_on_c, 0, 59, 0
2, 115320, Note_on_c, 0, 71, 47
2, 115320, Note_on_c, 0, 76, 56
2, 115320, Note_on_c, 0, 68, 47
2, 115410, Note_on_c, 0, 68, 0
2, 115410, Note_on_c, 0, 76, 0
2, 115410, Note_on_c, 0, 71, 0
2, 115440, Note_on_c, 0, 80, 56
2, 115530, Note_on_c, 0, 80, 0
2, 115560, Note_on_c, 0, 88, 51
2, 115560, Note_on_c, 0, 83, 51
2, 115650, Note_on_c, 0, 83, 0
2, 115650, Note_on_c, 0, 88, 0
2, 115680, Note_on_c, 0, 92, 62
2, 115770, Note_on_c, 0, 92, 0
2, 115800, Note_on_c, 0, 80, 56
2, 115890, Note_on_c, 0, 80, 0
2, 115920, Note_on_c, 0, 76, 48
2, 115920, Note_on_c, 0, 68, 48
2, 115920, Note_on_c, 0, 71, 48
2, 116010, Note_on_c, 0, 71, 0
2, 116010, Note_on_c, 0, 68, 0
2, 116010, Note_on_c, 0, 76, 0
2, 116040, Note_on_c, 0, 64, 45
2, 116130, Note_on_c, 0, 64, 0
2, 116280, Note_on_c, 0, 72, 47
2, 116280, Note_on_c, 0, 76, 56
2, 116280, Note_on_c, 0, 69, 47
2, 116370, Note_on_c, 0, 69, 0
2, 116370, Note_on_c, 0, 76, 0
2, 116370, Note_on_c, 0, 72, 0
2, 116400, Note_on_c, 0, 81, 56
2, 116490, Note_on_c, 0, 81, 0
2, 116520, Note_on_c, 0, 88, 53
2, 116520, Note_on_c, 0, 84, 53
2, 116610, Note_on_c, 0, 84, 0
2, 116610, Note_on_c, 0, 88, 0
2, 116640, Note_on_c, 0, 93, 63
2, 116730, Note_on_c, 0, 93, 0
2, 116760, Note_on_c, 0, 81, 57
2, 116850, Note_on_c, 0, 81, 0
2, 116880, Note_on_c, 0, 76, 51
2, 116880, Note_on_c, 0, 69, 51
2, 116880, Note_on_c, 0, 72, 51
2, 116970, Note_on_c, 0, 72, 0
2, 116970, Note_on_c, 0, 69, 0
2, 116970, Note_on_c, 0, 76, 0
2, 117000, Note_on_c, 0, 64, 47
2, 117090, Note_on_c, 0, 64, 0
2, 117240, Note_on_c, 0, 71, 47
2, 117240, Note_on_c, 0, 76, 56
2, 117240, Note_on_c, 0, 68, 47
2, 117330, Note_on_c, 0, 68, 0
2, 117330, Note_on_c, 0, 76, 0
2, 117330, Note_on_c, 0, 71, 0
2, 117360, Note_on_c, 0, 80, 56
2, 117450, Note_on_c, 0, 80, 0
2, 117480, Note_on_c, 0, 88, 49
2, 117480, Note_on_c, 0, 83, 49
2, 117570, Note_on_c, 0, 83, 0
2, 117570, Note_on_c, 0, 88, 0
2, 117600, Note_on_c, 0, 92, 63
2, 117690, Note_on_c, 0, 92, 0
2, 117720, Note_on_c, 0, 80, 58
2, 117810, Note_on_c, 0, 80, 0
2, 117840, Note_on_c, 0, 76, 53
2, 117840, Note_on_c, 0, 68, 53
2, 117840, Note_on_c, 0, 71, 53
2, 117930, Note_on_c, 0, 71, 0
2, 117930, Note_on_c, 0, 68, 0
2, 117930, Note_on_c, 0, 76, 0
2, 117960, Note_on_c, 0, 64, 47
2, 118050, Note_on_c, 0, 64, 0
2, 118200, Note_on_c, 0, 72, 51
2, 118200, Note_on_c, 0, 76, 61
2, 118200, Note_on_c, 0, 69, 51
2, 118290, Note_on_c, 0, 69, 0
2, 118290, Note_on_c, 0, 76, 0
2, 118290, Note_on_c, 0, 72, 0
2, 118320, Note_on_c, 0, 81, 61
2, 118410, Note_on_c, 0, 81, 0
2, 118440, Note_on_c, 0, 88, 56
2, 118440, Note_on_c, 0, 84, 56
2, 118530, Note_on_c, 0, 84, 0
2, 118530, Note_on_c, 0, 88, 0
2, 118560, Note_on_c, 0, 93, 69
2, 118650, Note_on_c, 0, 93, 0
2, 118680, Note_on_c, 0, 81, 64
2, 118770, Note_on_c, 0, 81, 0
2, 118800, Note_on_c, 0, 72, 59
2, 118800, Note_on_c, 0, 69, 59
2, 118800, Note_on_c, 0, 76, 59
2, 118890, Note_on_c, 0, 76, 0
2, 118890, Note_on_c, 0, 69, 0
2, 118890, Note_on_c, 0, 72, 0
2, 118920, Note_on_c, 0, 64, 54
2, 119010, Note_on_c, 0, 64, 0
2, 119160, Note_on_c, 0, 71, 55
2, 119160, Note_on_c, 0, 76, 66
2, 119160, Note_on_c, 0, 68, 55
2, 119250, Note_on_c, 0, 68, 0
2, 119250, Note_on_c, 0, 76, 0
2, 119250, Note_on_c, 0, 71, 0
2, 119280, Note_on_c, 0, 80, 66
2, 119370, Note_on_c, 0, 80, 0
2, 119400, Note_on_c, 0, 83, 55
2, 119400, Note_on_c, 0, 88, 66
2, 119490, Note_on_c, 0, 88, 0
2, 119490, Note_on_c, 0, 83, 0
2, 119520, Note_on_c, 0, 92, 74
2, 119610, Note_on_c, 0, 92, 0
2, 119640, Note_on_c, 0, 80, 68
2, 119730, Note_on_c, 0, 80, 0
2, 119760, Note_on_c, 0, 71, 61
2, 119850, Note_on_c, 0, 71, 0
2, 119880, Note_on_c, 0, 68, 53
2, 119880, Note_on_c, 0, 64, 53
2, 119970, Note_on_c, 0, 64, 0
2, 119970, Note_on_c, 0, 68, 0
2, 120120, Note_on_c, 0, 67, 58
2, 120120, Note_on_c, 0, 70, 70
2, 120210, Note_on_c, 0, 70, 0
2, 120210, Note_on_c, 0, 67, 0
2, 120240, Note_on_c, 0, 76, 72
2, 120330, Note_on_c, 0, 76, 0
2, 120360, Note_on_c, 0, 79, 65
2, 120360, Note_on_c, 0, 88, 65
2, 120450, Note_on_c, 0, 88, 0
2, 120450, Note_on_c, 0, 79, 0
2, 121120, Note_on_c, 0, 83, 76
2, 121120, Note_on_c, 0, 80, 64
2, 121180, Note_on_c, 0, 80, 0
2, 121180, Note_on_c, 0, 83, 0
2, 121280, Note_on_c, 0, 81, 75
2, 121280, Note_on_c, 0, 78, 63
2, 121340, Note_on_c, 0, 78, 0
2, 121340, Note_on_c, 0, 81, 0
2, 121440, Note_on_c, 0, 80, 74
2, 121440, Note_on_c, 0, 76, 62
2, 121500, Note_on_c, 0, 76, 0
2, 121500, Note_on_c, 0, 80, 0
2, 121600, Note_on_c, 0, 75, 61
2, 121600, Note_on_c, 0, 78, 72
2, 121660, Note_on_c, 0, 78, 0
2, 121660, Note_on_c, 0, 75, 0
2, 121760, Note_on_c, 0, 73, 60
2, 121760, Note_on_c, 0, 76, 71
2, 121820, Note_on_c, 0, 76, 0
2, 121820, Note_on_c, 0, 73, 0
2, 121920, Note_on_c, 0, 71, 59
2, 121920, Note_on_c, 0, 75, 70
2, 121980, Note_on_c, 0, 75, 0
2, 121980, Note_on_c, 0, 71, 0
2, 122080, Note_on_c, 0, 69, 58
2, 122080, Note_on_c, 0, 73, 69
2, 122140, Note_on_c, 0, 73, 0
2, 122140, Note_on_c, 0, 69, 0
2, 122240, Note_on_c, 0, 68, 57
2, 122240, Note_on_c, 0, 71, 68
2, 122300, Note_on_c, 0, 71, 0
2, 122300, Note_on_c, 0, 68, 0
2, 122400, Note_on_c, 0, 66, 56
2, 122400, Note_on_c, 0, 69, 67
2, 122460, Note_on_c, 0, 69, 0
2, 122460, Note_on_c, 0, 66, 0
2, 122560, Note_on_c, 0, 64, 55
2, 122560, Note_on_c, 0, 68, 65
2, 122620, Note_on_c, 0, 68, 0
2, 122620, Note_on_c, 0, 64, 0
2, 122720, Note_on_c, 0, 63, 54
2, 122720, Note_on_c, 0, 66, 64
2, 122780, Note_on_c, 0, 66, 0
2, 122780, Note_on_c, 0, 63, 0
2, 123000, Note_on_c, 0, 68, 54
2, 123090, Note_on_c, 0, 68, 0
2, 123120, Note_on_c, 0, 71, 53
2, 123210, Note_on_c, 0, 71, 0
2, 123240, Note_on_c, 0, 76, 50
2, 123330, Note_on_c, 0, 76, 0
2, 123360, Note_on_c, 0, 80, 63
2, 123450, Note_on_c, 0, 80, 0
2, 123480, Note_on_c, 0, 71, 53
2, 123570, Note_on_c, 0, 71, 0
2, 123600, Note_on_c, 0, 68, 48
2, 123690, Note_on_c, 0, 68, 0
2, 123720, Note_on_c, 0, 64, 45
2, 123810, Note_on_c, 0, 64, 0
2, 123960, Note_on_c, 0, 69, 54
2, 124050, Note_on_c, 0, 69, 0
2, 124080, Note_on_c, 0, 72, 54
2, 124170, Note_on_c, 0, 72, 0
2, 124200, Note_on_c, 0, 76, 45
2, 124290, Note_on_c, 0, 76, 0
2, 124320, Note_on_c, 0, 81, 60
2, 124410, Note_on_c, 0, 81, 0
2, 124440, Note_on_c, 0, 72, 54
2, 124530, Note_on_c, 0, 72, 0
2, 124560, Note_on_c, 0, 69, 50
2, 124650, Note_on_c, 0, 69, 0
2, 124680, Note_on_c, 0, 64, 41
2, 124770, Note_on_c, 0, 64, 0
2, 124920, Note_on_c, 0, 68, 54
2, 125010, Note_on_c, 0, 68, 0
2, 125040, Note_on_c, 0, 71, 54
2, 125130, Note_on_c, 0, 71, 0
2, 125160, Note_on_c, 0, 76, 46
2, 125250, Note_on_c, 0, 76, 0
2, 125280, Note_on_c, 0, 80, 64
2, 125370, Note_on_c, 0, 80, 0
2, 125400, Note_on_c, 0, 71, 55
2, 125490, Note_on_c, 0, 71, 0
2, 125520, Note_on_c, 0, 68, 49
2, 125610, Note_on_c, 0, 68, 0
2, 125640, Note_on_c, 0, 64, 41
2, 125730, Note_on_c, 0, 64, 0
2, 125880, Note_on_c, 0, 69, 56
2, 125970, Note_on_c, 0, 69, 0
2, 126000, Note_on_c, 0, 72, 56
2, 126090, Note_on_c, 0, 72, 0
2, 126120, Note_on_c, 0, 76, 49
2, 126210, Note_on_c, 0, 76, 0
2, 126240, Note_on_c, 0, 81, 65
2, 126330, Note_on_c, 0, 81, 0
2, 126360, Note_on_c, 0, 72, 58
2, 126450, Note_on_c, 0, 72, 0
2, 126480, Note_on_c, 0, 69, 49
2, 126570, Note_on_c, 0, 69, 0
2, 126600, Note_on_c, 0, 64, 47
2, 126690, Note_on_c, 0, 64, 0
2, 126840, Note_on_c, 0, 68, 61
2, 126930, Note_on_c, 0, 68, 0
2, 126960, Note_on_c, 0, 71, 61
2, 127050, Note_on_c, 0, 71, 0
2, 127080, Note_on_c, 0, 76, 56
2, 127170, Note_on_c, 0, 76, 0
2, 127200, Note_on_c, 0, 80, 72
2, 127290, Note_on_c, 0, 80, 0
2, 127320, Note_on_c, 0, 71, 62
2, 127410, Note_on_c, 0, 71, 0
2, 127440, Note_on_c, 0, 68, 58
2, 127530, Note_on_c, 0, 68, 0
2, 127560, Note_on_c, 0, 64, 53
2, 127650, Note_on_c, 0, 64, 0
2, 127800, Note_on_c, 0, 67, 63
2, 127890, Note_on_c, 0, 67, 0
2, 127920, Note_on_c, 0, 70, 61
2, 128010, Note_on_c, 0, 70, 0
2, 128040, Note_on_c, 0, 76, 64
2, 128130, Note_on_c, 0, 76, 0
2, 128800, Note_on_c, 0, 71, 68
2, 128800, Note_on_c, 0, 76, 68
2, 128860, Note_on_c, 0, 76, 0
2, 128860, Note_on_c, 0, 71, 0
2, 128960, Note_on_c, 0, 68, 68
2, 128960, Note_on_c, 0, 71, 68
2, 129020, Note_on_c, 0, 71, 0
2, 129020, Note_on_c, 0, 68, 0
2, 129120, Note_on_c, 0, 83, 73
2, 129180, Note_on_c, 0, 83, 0
2, 129280, Note_on_c, 0, 63, 66
2, 129280, Note_on_c, 0, 59, 49
2, 129340, Note_on_c, 0, 59, 0
2, 129340, Note_on_c, 0, 63, 0
2, 129440, Note_on_c, 0, 64, 68
2, 129440, Note_on_c, 0, 61, 51
2, 129500, Note_on_c, 0, 61, 0
2, 129500, Note_on_c, 0, 64, 0
2, 129600, Note_on_c, 0, 63, 58
2, 129600, Note_on_c, 0, 66, 79
2, 129660, Note_on_c, 0, 66, 0
2, 129660, Note_on_c, 0, 63, 0
2, 129760, Note_on_c, 0, 68, 71
2, 129760, Note_on_c, 0, 64, 60
2, 129820, Note_on_c, 0, 64, 0
2, 129820, Note_on_c, 0, 68, 0
2, 129920, Note_on_c, 0, 66, 61
2, 129920, Note_on_c, 0, 69, 72
2, 129980, Note_on_c, 0, 69, 0
2, 129980, Note_on_c, 0, 66, 0
2, 130080, Note_on_c, 0, 68, 62
2, 130080, Note_on_c, 0, 71, 74
2, 130140, Note_on_c, 0, 71, 0
2, 130140, Note_on_c, 0, 68, 0
2, 130240, Note_on_c, 0, 69, 63
2, 130240, Note_on_c, 0, 73, 75
2, 130300, Note_on_c, 0, 73, 0
2, 130300, Note_on_c, 0, 69, 0
2, 130400, Note_on_c, 0, 71, 65
2, 130400, Note_on_c, 0, 75, 77
2, 130460, Note_on_c, 0, 75, 0
2, 130460, Note_on_c, 0, 71, 0
2, 130560, Note_on_c, 0, 76, 57
2, 130620, Note_on_c, 0, 76, 0
2, 130680, Note_on_c, 0, 80, 49
2, 130740, Note_on_c, 0, 80, 0
2, 130800, Note_on_c, 0, 83, 48
2, 130860, Note_on_c, 0, 83, 0
2, 130920, Note_on_c, 0, 76, 46
2, 130980, Note_on_c, 0, 76, 0
2, 131040, Note_on_c, 0, 76, 52
2, 131100, Note_on_c, 0, 76, 0
2, 131160, Note_on_c, 0, 83, 49
2, 131220, Note_on_c, 0, 83, 0
2, 131280, Note_on_c, 0, 80, 47
2, 131340, Note_on_c, 0, 80, 0
2, 131400, Note_on_c, 0, 76, 47
2, 131460, Note_on_c, 0, 76, 0
2, 131520, Note_on_c, 0, 76, 57
2, 131580, Note_on_c, 0, 76, 0
2, 131640, Note_on_c, 0, 81, 49
2, 131700, Note_on_c, 0, 81, 0
2, 131760, Note_on_c, 0, 84, 48
2, 131820, Note_on_c, 0, 84, 0
2, 131880, Note_on_c, 0, 76, 46
2, 131940, Note_on_c, 0, 76, 0
2, 132000, Note_on_c, 0, 76, 53
2, 132060, Note_on_c, 0, 76, 0
2, 132120, Note_on_c, 0, 84, 48
2, 132180, Note_on_c, 0, 84, 0
2, 132240, Note_on_c, 0, 81, 47
2, 132300, Note_on_c, 0, 81, 0
2, 132360, Note_on_c, 0, 76, 47
2, 132420, Note_on_c, 0, 76, 0
2, 132480, Note_on_c, 0, 76, 57
2, 132540, Note_on_c, 0, 76, 0
2, 132600, Note_on_c, 0, 80, 49
2, 132660, Note_on_c, 0, 80, 0
2, 132720, Note_on_c, 0, 83, 48
2, 132780, Note_on_c, 0, 83, 0
2, 132840, Note_on_c, 0, 76, 48
2, 132900, Note_on_c, 0, 76, 0
2, 132960, Note_on_c, 0, 76, 56
2, 133020, Note_on_c, 0, 76, 0
2, 133080, Note_on_c, 0, 83, 47
2, 133140, Note_on_c, 0, 83, 0
2, 133200, Note_on_c, 0, 80, 47
2, 133260, Note_on_c, 0, 80, 0
2, 133320, Note_on_c, 0, 76, 47
2, 133380, Note_on_c, 0, 76, 0
2, 133440, Note_on_c, 0, 75, 57
2, 133500, Note_on_c, 0, 75, 0
2, 133560, Note_on_c, 0, 78, 49
2, 133620, Note_on_c, 0, 78, 0
2, 133680, Note_on_c, 0, 83, 48
2, 133740, Note_on_c, 0, 83, 0
2, 133800, Note_on_c, 0, 76, 47
2, 133860, Note_on_c, 0, 76, 0
2, 133920, Note_on_c, 0, 76, 55
2, 133980, Note_on_c, 0, 76, 0
2, 134040, Note_on_c, 0, 83, 53
2, 134100, Note_on_c, 0, 83, 0
2, 134160, Note_on_c, 0, 78, 47
2, 134220, Note_on_c, 0, 78, 0
2, 134280, Note_on_c, 0, 75, 47
2, 134340, Note_on_c, 0, 75, 0
2, 134400, Note_on_c, 0, 73, 57
2, 134460, Note_on_c, 0, 73, 0
2, 134520, Note_on_c, 0, 76, 49
2, 134580, Note_on_c, 0, 76, 0
2, 134640, Note_on_c, 0, 81, 48
2, 134700, Note_on_c, 0, 81, 0
2, 134760, Note_on_c, 0, 76, 46
2, 134820, Note_on_c, 0, 76, 0
2, 134880, Note_on_c, 0, 76, 56
2, 134940, Note_on_c, 0, 76, 0
2, 135000, Note_on_c, 0, 81, 49
2, 135060, Note_on_c, 0, 81, 0
2, 135120, Note_on_c, 0, 76, 47
2, 135180, Note_on_c, 0, 76, 0
2, 135240, Note_on_c, 0, 73, 47
2, 135300, Note_on_c, 0, 73, 0
2, 135360, Note_on_c, 0, 71, 57
2, 135420, Note_on_c, 0, 71, 0
2, 135480, Note_on_c, 0, 75, 49
2, 135540, Note_on_c, 0, 75, 0
2, 135600, Note_on_c, 0, 80, 48
2, 135660, Note_on_c, 0, 80, 0
2, 135720, Note_on_c, 0, 76, 47
2, 135780, Note_on_c, 0, 76, 0
2, 135840, Note_on_c, 0, 76, 55
2, 135900, Note_on_c, 0, 76, 0
2, 135960, Note_on_c, 0, 80, 49
2, 136020, Note_on_c, 0, 80, 0
2, 136080, Note_on_c, 0, 75, 47
2, 136140, Note_on_c, 0, 75, 0
2, 136200, Note_on_c, 0, 71, 43
2, 136260, Note_on_c, 0, 71, 0
2, 136320, Note_on_c, 0, 69, 57
2, 136380, Note_on_c, 0, 69, 0
2, 136440, Note_on_c, 0, 73, 49
2, 136500, Note_on_c, 0, 73, 0
2, 136560, Note_on_c, 0, 78, 50
2, 136620, Note_on_c, 0, 78, 0
2, 136680, Note_on_c, 0, 76, 45
2, 136740, Note_on_c, 0, 76, 0
2, 136800, Note_on_c, 0, 76, 53
2, 136860, Note_on_c, 0, 76, 0
2, 136920, Note_on_c, 0, 78, 46
2, 136980, Note_on_c, 0, 78, 0
2, 137040, Note_on_c, 0, 73, 47
2, 137100, Note_on_c, 0, 73, 0
2, 137160, Note_on_c, 0, 69, 47
2, 137220, Note_on_c, 0, 69, 0
2, 137280, Note_on_c, 0, 66, 57
2, 137340, Note_on_c, 0, 66, 0
2, 137400, Note_on_c, 0, 69, 49
2, 137460, Note_on_c, 0, 69, 0
2, 137520, Note_on_c, 0, 75, 48
2, 137580, Note_on_c, 0, 75, 0
2, 137640, Note_on_c, 0, 76, 47
2, 137700, Note_on_c, 0, 76, 0
2, 137760, Note_on_c, 0, 76, 55
2, 137820, Note_on_c, 0, 76, 0
2, 137880, Note_on_c, 0, 75, 47
2, 137940, Note_on_c, 0, 75, 0
2, 138000, Note_on_c, 0, 69, 47
2, 138060, Note_on_c, 0, 69, 0
2, 138120, Note_on_c, 0, 66, 41
2, 138180, Note_on_c, 0, 66, 0
2, 138240, Note_on_c, 0, 64, 57
2, 138300, Note_on_c, 0, 64, 0
2, 138360, Note_on_c, 0, 68, 49
2, 138420, Note_on_c, 0, 68, 0
2, 138480, Note_on_c, 0, 76, 48
2, 138540, Note_on_c, 0, 76, 0
2, 138600, Note_on_c, 0, 76, 47
2, 138660, Note_on_c, 0, 76, 0
2, 138720, Note_on_c, 0, 76, 53
2, 138780, Note_on_c, 0, 76, 0
2, 138840, Note_on_c, 0, 76, 51
2, 138900, Note_on_c, 0, 76, 0
2, 138960, Note_on_c, 0, 68, 45
2, 139020, Note_on_c, 0, 68, 0
2, 139080, Note_on_c, 0, 64, 39
2, 139140, Note_on_c, 0, 64, 0
2, 139200, Note_on_c, 0, 65, 61
2, 139260, Note_on_c, 0, 65, 0
2, 139320, Note_on_c, 0, 69, 52
2, 139380, Note_on_c, 0, 69, 0
2, 139440, Note_on_c, 0, 75, 53
2, 139500, Note_on_c, 0, 75, 0
2, 139560, Note_on_c, 0, 76, 51
2, 139620, Note_on_c, 0, 76, 0
2, 139680, Note_on_c, 0, 76, 61
2, 139740, Note_on_c, 0, 76, 0
2, 139800, Note_on_c, 0, 75, 54
2, 139860, Note_on_c, 0, 75, 0
2, 139920, Note_on_c, 0, 69, 47
2, 139980, Note_on_c, 0, 69, 0
2, 140040, Note_on_c, 0, 65, 46
2, 140100, Note_on_c, 0, 65, 0
2, 140160, Note_on_c, 0, 64, 66
2, 140220, Note_on_c, 0, 64, 0
2, 140280, Note_on_c, 0, 68, 57
2, 140340, Note_on_c, 0, 68, 0
2, 140400, Note_on_c, 0, 76, 56
2, 140460, Note_on_c, 0, 76, 0
2, 140520, Note_on_c, 0, 76, 56
2, 140580, Note_on_c, 0, 76, 0
2, 140640, Note_on_c, 0, 76, 63
2, 140700, Note_on_c, 0, 76, 0
2, 140760, Note_on_c, 0, 76, 56
2, 140820, Note_on_c, 0, 76, 0
2, 140880, Note_on_c, 0, 68, 53
2, 140940, Note_on_c, 0, 68, 0
2, 141000, Note_on_c, 0, 64, 45
2, 141060, Note_on_c, 0, 64, 0
2, 141120, Note_on_c, 0, 65, 69
2, 141180, Note_on_c, 0, 65, 0
2, 141240, Note_on_c, 0, 69, 62
2, 141300, Note_on_c, 0, 69, 0
2, 141360, Note_on_c, 0, 75, 62
2, 141420, Note_on_c, 0, 75, 0
2, 141480, Note_on_c, 0, 76, 57
2, 141540, Note_on_c, 0, 76, 0
2, 141600, Note_on_c, 0, 76, 65
2, 141660, Note_on_c, 0, 76, 0
2, 141720, Note_on_c, 0, 75, 59
2, 141780, Note_on_c, 0, 75, 0
2, 141840, Note_on_c, 0, 69, 57
2, 141900, Note_on_c, 0, 69, 0
2, 141960, Note_on_c, 0, 65, 49
2, 142020, Note_on_c, 0, 65, 0
2, 142080, Note_on_c, 0, 64, 86
2, 142140, Note_on_c, 0, 64, 0
2, 142320, Note_on_c, 0, 68, 76
2, 142320, Note_on_c, 0, 76, 76
2, 142380, Note_on_c, 0, 76, 0
2, 142380, Note_on_c, 0, 68, 0
2, 143040, Note_on_c, 0, 64, 86
2, 143100, Note_on_c, 0, 64, 0
2, 143280, Note_on_c, 0, 68, 78
2, 143280, Note_on_c, 0, 80, 78
2, 143280, Note_on_c, 0, 76, 78
2, 143340, Note_on_c, 0, 76, 0
2, 143340, Note_on_c, 0, 80, 0
2, 143340, Note_on_c, 0, 68, 0
2, 144000, Note_on_c, 0, 64, 64
2, 144060, Note_on_c, 0, 64, 0
2, 144120, Note_on_c, 0, 68, 55
2, 144180, Note_on_c, 0, 68, 0
2, 144240, Note_on_c, 0, 76, 54
2, 144300, Note_on_c, 0, 76, 0
2, 144360, Note_on_c, 0, 76, 51
2, 144420, Note_on_c, 0, 76, 0
2, 144480, Note_on_c, 0, 76, 58
2, 144540, Note_on_c, 0, 76, 0
2, 144600, Note_on_c, 0, 80, 50
2, 144660, Note_on_c, 0, 80, 0
2, 144720, Note_on_c, 0, 71, 51
2, 144780, Note_on_c, 0, 71, 0
2, 144840, Note_on_c, 0, 68, 51
2, 144900, Note_on_c, 0, 68, 0
2, 144960, Note_on_c, 0, 64, 62
2, 145020, Note_on_c, 0, 64, 0
2, 145080, Note_on_c, 0, 68, 53
2, 145140, Note_on_c, 0, 68, 0
2, 145200, Note_on_c, 0, 76, 51
2, 145260, Note_on_c, 0, 76, 0
2, 145320, Note_on_c, 0, 76, 49
2, 145380, Note_on_c, 0, 76, 0
2, 145440, Note_on_c, 0, 76, 57
2, 145500, Note_on_c, 0, 76, 0
2, 145560, Note_on_c, 0, 80, 56
2, 145620, Note_on_c, 0, 80, 0
2, 145680, Note_on_c, 0, 71, 50
2, 145740, Note_on_c, 0, 71, 0
2, 145800, Note_on_c, 0, 68, 49
2, 145860, Note_on_c, 0, 68, 0
2, 145920, Note_on_c, 0, 64, 55
2, 145920, Note_on_c, 0, 68, 55
2, 145920, Note_on_c, 0, 76, 55
2, 146880, Note_on_c, 0, 76, 0
2, 146880, Note_on_c, 0, 68, 0
2, 146880, Note_on_c, 0, 64, 0
2, 146880, End_track
3, 0, Start_track
3, 0, Title_t, "Piano left"
3, 0, Program_c, 0, 0
3, 0, Control_c, 0, 7, 100
3, 0, Control_c, 0, 10, 64
3, 7, Control_c, 0, 64, 0
3, 960, Note_on_c, 0, 64, 58
3, 1020, Note_on_c, 0, 64, 0
3, 1440, Note_on_c, 0, 76, 65
3, 1500, Note_on_c, 0, 76, 0
3, 1920, Note_on_c, 0, 63, 58
3, 1980, Note_on_c, 0, 63, 0
3, 2400, Note_on_c, 0, 78, 67
3, 2460, Note_on_c, 0, 78, 0
3, 2880, Note_on_c, 0, 64, 58
3, 2940, Note_on_c, 0, 64, 0
3, 3360, Note_on_c, 0, 76, 70
3, 3420, Note_on_c, 0, 76, 0
3, 3840, Note_on_c, 0, 59, 58
3, 3900, Note_on_c, 0, 59, 0
3, 4320, Note_on_c, 0, 83, 58
3, 4380, Note_on_c, 0, 83, 0
3, 4800, Note_on_c, 0, 64, 51
3, 4860, Note_on_c, 0, 64, 0
3, 5280, Note_on_c, 0, 76, 56
3, 5340, Note_on_c, 0, 76, 0
3, 5760, Note_on_c, 0, 63, 51
3, 5820, Note_on_c, 0, 63, 0
3, 6240, Note_on_c, 0, 78, 54
3, 6300, Note_on_c, 0, 78, 0
3, 6720, Note_on_c, 0, 64, 51
3, 6780, Note_on_c, 0, 64, 0
3, 7200, Note_on_c, 0, 76, 53
3, 7260, Note_on_c, 0, 76, 0
3, 7680, Note_on_c, 0, 59, 51
3, 7740, Note_on_c, 0, 59, 0
3, 8160, Note_on_c, 0, 83, 56
3, 8220, Note_on_c, 0, 83, 0
3, 8640, Note_on_c, 0, 56, 53
3, 8700, Note_on_c, 0, 56, 0
3, 9120, Note_on_c, 0, 80, 54
3, 9180, Note_on_c, 0, 80, 0
3, 9600, Note_on_c, 0, 57, 55
3, 9660, Note_on_c, 0, 57, 0
3, 10080, Note_on_c, 0, 85, 62
3, 10140, Note_on_c, 0, 85, 0
3, 10320, Note_on_c, 0, 88, 67
3, 10380, Note_on_c, 0, 88, 0
3, 10560, Note_on_c, 0, 58, 53
3, 10620, Note_on_c, 0, 58, 0
3, 11040, Note_on_c, 0, 82, 57
3, 11100, Note_on_c, 0, 82, 0
3, 11520, Note_on_c, 0, 59, 55
3, 11580, Note_on_c, 0, 59, 0
3, 12000, Note_on_c, 0, 87, 61
3, 12060, Note_on_c, 0, 87, 0
3, 12240, Note_on_c, 0, 90, 64
3, 12300, Note_on_c, 0, 90, 0
3, 12480, Note_on_c, 0, 63, 57
3, 12540, Note_on_c, 0, 63, 0
3, 13440, Note_on_c, 0, 64, 60
3, 13500, Note_on_c, 0, 64, 0
3, 14400, Note_on_c, 0, 66, 64
3, 14460, Note_on_c, 0, 66, 0
3, 15360, Note_on_c, 0, 68, 68
3, 15420, Note_on_c, 0, 68, 0
3, 16320, Note_on_c, 0, 69, 73
3, 16380, Note_on_c, 0, 69, 0
3, 17280, Note_on_c, 0, 70, 78
3, 17340, Note_on_c, 0, 70, 0
3, 18240, Note_on_c, 0, 73, 78
3, 18300, Note_on_c, 0, 73, 0
3, 19200, Note_on_c, 0, 70, 78
3, 19260, Note_on_c, 0, 70, 0
3, 20160, Note_on_c, 0, 67, 71
3, 20220, Note_on_c, 0, 67, 0
3, 21120, Note_on_c, 0, 64, 64
3, 21180, Note_on_c, 0, 64, 0
3, 22080, Note_on_c, 0, 61, 59
3, 22140, Note_on_c, 0, 61, 0
3, 23040, Note_on_c, 0, 59, 54
3, 23100, Note_on_c, 0, 59, 0
3, 23520, Note_on_c, 0, 87, 54
3, 23580, Note_on_c, 0, 87, 0
3, 23760, Note_on_c, 0, 90, 60
3, 23820, Note_on_c, 0, 90, 0
3, 24000, Note_on_c, 0, 57, 51
3, 24060, Note_on_c, 0, 57, 0
3, 24480, Note_on_c, 0, 78, 57
3, 24540, Note_on_c, 0, 78, 0
3, 24960, Note_on_c, 0, 56, 51
3, 25020, Note_on_c, 0, 56, 0
3, 25440, Note_on_c, 0, 83, 54
3, 25500, Note_on_c, 0, 83, 0
3, 25680, Note_on_c, 0, 88, 60
3, 25740, Note_on_c, 0, 88, 0
3, 25920, Note_on_c, 0, 57, 51
3, 25980, Note_on_c, 0, 57, 0
3, 26400, Note_on_c, 0, 78, 57
3, 26460, Note_on_c, 0, 78, 0
3, 26880, Note_on_c, 0, 56, 51
3, 26940, Note_on_c, 0, 56, 0
3, 27360, Note_on_c, 0, 83, 54
3, 27420, Note_on_c, 0, 83, 0
3, 27600, Note_on_c, 0, 88, 60
3, 27660, Note_on_c, 0, 88, 0
3, 27840, Note_on_c, 0, 57, 75
3, 27900, Note_on_c, 0, 57, 0
3, 28080, Note_on_c, 0, 81, 63
3, 28080, Note_on_c, 0, 76, 53
3, 28080, Note_on_c, 0, 73, 53
3, 28080, Note_on_c, 0, 69, 53
3, 28080, Note_on_c, 0, 61, 44
3, 28080, Note_on_c, 0, 64, 44
3, 28140, Note_on_c, 0, 64, 0
3, 28140, Note_on_c, 0, 76, 0
3, 28140, Note_on_c, 0, 73, 0
3, 28140, Note_on_c, 0, 81, 0
3, 28140, Note_on_c, 0, 61, 0
3, 28140, Note_on_c, 0, 69, 0
3, 28320, Note_on_c, 0, 59, 82
3, 28380, Note_on_c, 0, 59, 0
3, 28560, Note_on_c, 0, 83, 65
3, 28560, Note_on_c, 0, 80, 54
3, 28560, Note_on_c, 0, 76, 54
3, 28560, Note_on_c, 0, 71, 54
3, 28560, Note_on_c, 0, 68, 45
3, 28560, Note_on_c, 0, 64, 45
3, 28620, Note_on_c, 0, 64, 0
3, 28620, Note_on_c, 0, 80, 0
3, 28620, Note_on_c, 0, 76, 0
3, 28620, Note_on_c, 0, 83, 0
3, 28620, Note_on_c, 0, 68, 0
3, 28620, Note_on_c, 0, 71, 0
3, 28800, Note_on_c, 0, 61, 81
3, 28860, Note_on_c, 0, 61, 0
3, 29040, Note_on_c, 0, 85, 65
3, 29040, Note_on_c, 0, 81, 54
3, 29040, Note_on_c, 0, 76, 54
3, 29040, Note_on_c, 0, 73, 54
3, 29040, Note_on_c, 0, 69, 45
3, 29040, Note_on_c, 0, 64, 45
3, 29100, Note_on_c, 0, 64, 0
3, 29100, Note_on_c, 0, 81, 0
3, 29100, Note_on_c, 0, 76, 0
3, 29100, Note_on_c, 0, 85, 0
3, 29100, Note_on_c, 0, 69, 0
3, 29100, Note_on_c, 0, 73, 0
3, 29280, Note_on_c, 0, 60, 81
3, 29340, Note_on_c, 0, 60, 0
3, 29520, Note_on_c, 0, 84, 65
3, 29520, Note_on_c, 0, 79, 54
3, 29520, Note_on_c, 0, 76, 54
3, 29520, Note_on_c, 0, 72, 54
3, 29520, Note_on_c, 0, 70, 45
3, 29520, Note_on_c, 0, 67, 45
3, 29520, Note_on_c, 0, 64, 45
3, 29580, Note_on_c, 0, 64, 0
3, 29580, Note_on_c, 0, 70, 0
3, 29580, Note_on_c, 0, 79, 0
3, 29580, Note_on_c, 0, 76, 0
3, 29580, Note_on_c, 0, 84, 0
3, 29580, Note_on_c, 0, 67, 0
3, 29580, Note_on_c, 0, 72, 0
3, 29760, Note_on_c, 0, 59, 80
3, 29820, Note_on_c, 0, 59, 0
3, 30000, Note_on_c, 0, 83, 65
3, 30000, Note_on_c, 0, 80, 54
3, 30000, Note_on_c, 0, 76, 54
3, 30000, Note_on_c, 0, 71, 54
3, 30000, Note_on_c, 0, 68, 45
3, 30000, Note_on_c, 0, 64, 45
3, 30060, Note_on_c, 0, 64, 0
3, 30060, Note_on_c, 0, 80, 0
3, 30060, Note_on_c, 0, 76, 0
3, 30060, Note_on_c, 0, 83, 0
3, 30060, Note_on_c, 0, 68, 0
3, 30060, Note_on_c, 0, 71, 0
3, 30240, Note_on_c, 0, 59, 81
3, 30300, Note_on_c, 0, 59, 0
3, 30480, Note_on_c, 0, 83, 65
3, 30480, Note_on_c, 0, 78, 54
3, 30480, Note_on_c, 0, 75, 54
3, 30480, Note_on_c, 0, 71, 54
3, 30480, Note_on_c, 0, 69, 45
3, 30480, Note_on_c, 0, 66, 45
3, 30540, Note_on_c, 0, 66, 0
3, 30540, Note_on_c, 0, 78, 0
3, 30540, Note_on_c, 0, 75, 0
3, 30540, Note_on_c, 0, 83, 0
3, 30540, Note_on_c, 0, 69, 0
3, 30540, Note_on_c, 0, 71, 0
3, 30720, Note_on_c, 0, 64, 81
3, 30746, Control_c, 0, 64, 127
3, 31200, Note_on_c, 0, 64, 0
3, 31200, Note_on_c, 0, 88, 79
3, 31200, Note_on_c, 0, 83, 66
3, 31200, Note_on_c, 0, 80, 66
3, 31200, Note_on_c, 0, 76, 66
3, 31200, Note_on_c, 0, 71, 55
3, 31200, Note_on_c, 0, 68, 55
3, 31260, Note_on_c, 0, 68, 0
3, 31260, Note_on_c, 0, 83, 0
3, 31260, Note_on_c, 0, 80, 0
3, 31260, Note_on_c, 0, 88, 0
3, 31260, Note_on_c, 0, 71, 0
3, 31260, Note_on_c, 0, 76, 0
3, 31277, Control_c, 0, 64, 0
3, 31680, Note_on_c, 0, 64, 58
3, 31740, Note_on_c, 0, 64, 0
3, 32160, Note_on_c, 0, 76, 59
3, 32220, Note_on_c, 0, 76, 0
3, 32640, Note_on_c, 0, 63, 58
3, 32700, Note_on_c, 0, 63, 0
3, 33120, Note_on_c, 0, 78, 62
3, 33180, Note_on_c, 0, 78, 0
3, 33600, Note_on_c, 0, 64, 58
3, 33660, Note_on_c, 0, 64, 0
3, 34080, Note_on_c, 0, 76, 58
3, 34140, Note_on_c, 0, 76, 0
3, 34560, Note_on_c, 0, 59, 58
3, 34620, Note_on_c, 0, 59, 0
3, 35040, Note_on_c, 0, 83, 61
3, 35100, Note_on_c, 0, 83, 0
3, 35520, Note_on_c, 0, 64, 51
3, 35580, Note_on_c, 0, 64, 0
3, 36000, Note_on_c, 0, 76, 53
3, 36060, Note_on_c, 0, 76, 0
3, 36480, Note_on_c, 0, 63, 51
3, 36540, Note_on_c, 0, 63, 0
3, 36960, Note_on_c, 0, 78, 57
3, 37020, Note_on_c, 0, 78, 0
3, 37440, Note_on_c, 0, 64, 51
3, 37500, Note_on_c, 0, 64, 0
3, 37920, Note_on_c, 0, 76, 51
3, 37980, Note_on_c, 0, 76, 0
3, 38400, Note_on_c, 0, 59, 51
3, 38460, Note_on_c, 0, 59, 0
3, 38880, Note_on_c, 0, 83, 51
3, 38940, Note_on_c, 0, 83, 0
3, 39360, Note_on_c, 0, 59, 53
3, 39420, Note_on_c, 0, 59, 0
3, 39840, Note_on_c, 0, 83, 54
3, 39900, Note_on_c, 0, 83, 0
3, 40320, Note_on_c, 0, 57, 51
3, 40380, Note_on_c, 0, 57, 0
3, 40800, Note_on_c, 0, 84, 51
3, 40860, Note_on_c, 0, 84, 0
3, 41280, Note_on_c, 0, 57, 53
3, 41340, Note_on_c, 0, 57, 0
3, 41760, Note_on_c, 0, 81, 54
3, 41820, Note_on_c, 0, 81, 0
3, 42240, Note_on_c, 0, 55, 51
3, 42300, Note_on_c, 0, 55, 0
3, 42720, Note_on_c, 0, 86, 62
3, 42780, Note_on_c, 0, 86, 0
3, 43200, Note_on_c, 0, 55, 57
3, 43260, Note_on_c, 0, 55, 0
3, 43680, Note_on_c, 0, 91, 65
3, 43740, Note_on_c, 0, 91, 0
3, 44160, Note_on_c, 0, 55, 62
3, 44220, Note_on_c, 0, 55, 0
3, 44640, Note_on_c, 0, 95, 70
3, 44700, Note_on_c, 0, 95, 0
3, 45120, Note_on_c, 0, 55, 66
3, 45180, Note_on_c, 0, 55, 0
3, 45600, Note_on_c, 0, 98, 78
3, 45660, Note_on_c, 0, 98, 0
3, 46080, Note_on_c, 0, 60, 75
3, 46140, Note_on_c, 0, 60, 0
3, 46560, Note_on_c, 0, 61, 71
3, 46620, Note_on_c, 0, 61, 0
3, 46800, Note_on_c, 0, 88, 71
3, 46800, Note_on_c, 0, 79, 60
3, 46800, Note_on_c, 0, 76, 60
3, 46800, Note_on_c, 0, 69, 51
3, 46800, Note_on_c, 0, 61, 51
3, 46860, Note_on_c, 0, 61, 0
3, 46860, Note_on_c, 0, 76, 0
3, 46860, Note_on_c, 0, 88, 0
3, 46860, Note_on_c, 0, 79, 0
3, 46860, Note_on_c, 0, 69, 0
3, 47040, Note_on_c, 0, 62, 77
3, 47100, Note_on_c, 0, 62, 0
3, 47520, Note_on_c, 0, 63, 74
3, 47580, Note_on_c, 0, 63, 0
3, 47760, Note_on_c, 0, 90, 73
3, 47760, Note_on_c, 0, 81, 62
3, 47760, Note_on_c, 0, 78, 62
3, 47760, Note_on_c, 0, 71, 53
3, 47760, Note_on_c, 0, 63, 53
3, 47820, Note_on_c, 0, 63, 0
3, 47820, Note_on_c, 0, 78, 0
3, 47820, Note_on_c, 0, 90, 0
3, 47820, Note_on_c, 0, 81, 0
3, 47820, Note_on_c, 0, 71, 0
3, 48000, Note_on_c, 0, 64, 80
3, 48060, Note_on_c, 0, 64, 0
3, 48480, Note_on_c, 0, 66, 77
3, 48540, Note_on_c, 0, 66, 0
3, 48720, Note_on_c, 0, 90, 76
3, 48720, Note_on_c, 0, 81, 64
3, 48720, Note_on_c, 0, 78, 64
3, 48720, Note_on_c, 0, 74, 54
3, 48720, Note_on_c, 0, 69, 54
3, 48780, Note_on_c, 0, 69, 0
3, 48780, Note_on_c, 0, 78, 0
3, 48780, Note_on_c, 0, 90, 0
3, 48780, Note_on_c, 0, 81, 0
3, 48780, Note_on_c, 0, 74, 0
3, 48960, Note_on_c, 0, 67, 78
3, 49020, Note_on_c, 0, 67, 0
3, 49200, Note_on_c, 0, 91, 78
3, 49200, Note_on_c, 0, 83, 65
3, 49200, Note_on_c, 0, 79, 65
3, 49200, Note_on_c, 0, 74, 55
3, 49200, Note_on_c, 0, 71, 55
3, 49260, Note_on_c, 0, 71, 0
3, 49260, Note_on_c, 0, 79, 0
3, 49260, Note_on_c, 0, 91, 0
3, 49260, Note_on_c, 0, 83, 0
3, 49260, Note_on_c, 0, 74, 0
3, 49440, Note_on_c, 0, 69, 80
3, 49500, Note_on_c, 0, 69, 0
3, 49680, Note_on_c, 0, 93, 79
3, 49680, Note_on_c, 0, 86, 67
3, 49680, Note_on_c, 0, 81, 67
3, 49680, Note_on_c, 0, 78, 56
3, 49680, Note_on_c, 0, 74, 56
3, 49740, Note_on_c, 0, 74, 0
3, 49740, Note_on_c, 0, 81, 0
3, 49740, Note_on_c, 0, 93, 0
3, 49740, Note_on_c, 0, 86, 0
3, 49740, Note_on_c, 0, 78, 0
3, 49920, Note_on_c, 0, 71, 81
3, 49980, Note_on_c, 0, 71, 0
3, 50160, Note_on_c, 0, 95, 81
3, 50160, Note_on_c, 0, 86, 68
3, 50160, Note_on_c, 0, 83, 68
3, 50160, Note_on_c, 0, 79, 57
3, 50160, Note_on_c, 0, 74, 57
3, 50220, Note_on_c, 0, 74, 0
3, 50220, Note_on_c, 0, 83, 0
3, 50220, Note_on_c, 0, 95, 0
3, 50220, Note_on_c, 0, 86, 0
3, 50220, Note_on_c, 0, 79, 0
3, 50400, Note_on_c, 0, 72, 83
3, 50460, Note_on_c, 0, 72, 0
3, 50640, Note_on_c, 0, 96, 82
3, 50640, Note_on_c, 0, 88, 69
3, 50640, Note_on_c, 0, 84, 69
3, 50640, Note_on_c, 0, 79, 59
3, 50640, Note_on_c, 0, 76, 59
3, 50700, Note_on_c, 0, 76, 0
3, 50700, Note_on_c, 0, 84, 0
3, 50700, Note_on_c, 0, 96, 0
3, 50700, Note_on_c, 0, 88, 0
3, 50700, Note_on_c, 0, 79, 0
3, 50911, Control_c, 0, 64, 127
3, 51360, Note_on_c, 0, 103, 96
3, 51389, Control_c, 0, 64, 0
3, 51420, Note_on_c, 0, 103, 0
3, 51600, Note_on_c, 0, 61, 84
3, 51660, Note_on_c, 0, 61, 0
3, 51840, Note_on_c, 0, 62, 84
3, 51900, Note_on_c, 0, 62, 0
3, 52320, Note_on_c, 0, 59, 74
3, 52380, Note_on_c, 0, 59, 0
3, 52480, Note_on_c, 0, 60, 71
3, 52540, Note_on_c, 0, 60, 0
3, 52640, Note_on_c, 0, 61, 68
3, 52700, Note_on_c, 0, 61, 0
3, 52800, Note_on_c, 0, 62, 65
3, 52920, Note_on_c, 0, 62, 0
3, 53280, Note_on_c, 0, 74, 69
3, 53400, Note_on_c, 0, 74, 0
3, 53760, Note_on_c, 0, 55, 53
3, 53820, Note_on_c, 0, 55, 0
3, 54240, Note_on_c, 0, 79, 55
3, 54300, Note_on_c, 0, 79, 0
3, 54720, Note_on_c, 0, 55, 51
3, 54780, Note_on_c, 0, 55, 0
3, 55200, Note_on_c, 0, 78, 59
3, 55260, Note_on_c, 0, 78, 0
3, 55680, Note_on_c, 0, 55, 78
3, 55800, Note_on_c, 0, 55, 0
3, 55883, Control_c, 0, 64, 127
3, 56160, Note_on_c, 0, 59, 71
3, 56174, Control_c, 0, 64, 0
3, 56220, Note_on_c, 0, 59, 0
3, 56320, Note_on_c, 0, 60, 68
3, 56380, Note_on_c, 0, 60, 0
3, 56480, Note_on_c, 0, 61, 65
3, 56540, Note_on_c, 0, 61, 0
3, 56640, Note_on_c, 0, 62, 63
3, 56760, Note_on_c, 0, 62, 0
3, 57120, Note_on_c, 0, 74, 66
3, 57240, Note_on_c, 0, 74, 0
3, 57600, Note_on_c, 0, 55, 53
3, 57660, Note_on_c, 0, 55, 0
3, 58080, Note_on_c, 0, 79, 59
3, 58140, Note_on_c, 0, 79, 0
3, 58560, Note_on_c, 0, 55, 51
3, 58620, Note_on_c, 0, 55, 0
3, 59040, Note_on_c, 0, 78, 59
3, 59100, Note_on_c, 0, 78, 0
3, 59520, Note_on_c, 0, 55, 78
3, 59640, Note_on_c, 0, 55, 0
3, 59709, Control_c, 0, 64, 127
3, 60000, Note_on_c, 0, 59, 71
3, 60011, Control_c, 0, 64, 0
3, 60060, Note_on_c, 0, 59, 0
3, 60160, Note_on_c, 0, 60, 68
3, 60220, Note_on_c, 0, 60, 0
3, 60320, Note_on_c, 0, 61, 65
3, 60380, Note_on_c, 0, 61, 0
3, 60480, Note_on_c, 0, 62, 63
3, 60600, Note_on_c, 0, 62, 0
3, 60960, Note_on_c, 0, 74, 66
3, 61080, Note_on_c, 0, 74, 0
3, 61440, Note_on_c, 0, 55, 53
3, 61500, Note_on_c, 0, 55, 0
3, 61920, Note_on_c, 0, 79, 56
3, 61980, Note_on_c, 0, 79, 0
3, 62400, Note_on_c, 0, 55, 51
3, 62460, Note_on_c, 0, 55, 0
3, 62880, Note_on_c, 0, 79, 59
3, 62940, Note_on_c, 0, 79, 0
3, 63360, Note_on_c, 0, 63, 76
3, 63480, Note_on_c, 0, 63, 0
3, 63546, Control_c, 0, 64, 127
3, 63840, Note_on_c, 0, 58, 68
3, 63851, Control_c, 0, 64, 0
3, 63900, Note_on_c, 0, 58, 0
3, 64000, Note_on_c, 0, 61, 66
3, 64060, Note_on_c, 0, 61, 0
3, 64160, Note_on_c, 0, 62, 65
3, 64220, Note_on_c, 0, 62, 0
3, 64320, Note_on_c, 0, 63, 63
3, 64440, Note_on_c, 0, 63, 0
3, 64800, Note_on_c, 0, 75, 65
3, 64920, Note_on_c, 0, 75, 0
3, 65280, Note_on_c, 0, 56, 53
3, 65340, Note_on_c, 0, 56, 0
3, 65760, Note_on_c, 0, 80, 50
3, 65820, Note_on_c, 0, 80, 0
3, 66240, Note_on_c, 0, 56, 51
3, 66300, Note_on_c, 0, 56, 0
3, 66720, Note_on_c, 0, 80, 59
3, 66780, Note_on_c, 0, 80, 0
3, 67200, Note_on_c, 0, 64, 76
3, 67320, Note_on_c, 0, 64, 0
3, 67380, Control_c, 0, 64, 127
3, 67680, Note_on_c, 0, 59, 68
3, 67690, Control_c, 0, 64, 0
3, 67740, Note_on_c, 0, 59, 0
3, 67840, Note_on_c, 0, 62, 66
3, 67900, Note_on_c, 0, 62, 0
3, 68000, Note_on_c, 0, 63, 65
3, 68060, Note_on_c, 0, 63, 0
3, 68160, Note_on_c, 0, 64, 63
3, 68280, Note_on_c, 0, 64, 0
3, 68640, Note_on_c, 0, 76, 65
3, 68760, Note_on_c, 0, 76, 0
3, 69120, Note_on_c, 0, 57, 53
3, 69180, Note_on_c, 0, 57, 0
3, 69600, Note_on_c, 0, 81, 56
3, 69660, Note_on_c, 0, 81, 0
3, 70080, Note_on_c, 0, 57, 51
3, 70140, Note_on_c, 0, 57, 0
3, 70560, Note_on_c, 0, 81, 59
3, 70620, Note_on_c, 0, 81, 0
3, 71040, Note_on_c, 0, 65, 78
3, 71160, Note_on_c, 0, 65, 0
3, 71231, Control_c, 0, 64, 127
3, 71520, Control_c, 0, 64, 0
3, 71520, Note_on_c, 0, 60, 68
3, 71580, Note_on_c, 0, 60, 0
3, 71680, Note_on_c, 0, 63, 66
3, 71740, Note_on_c, 0, 63, 0
3, 71840, Note_on_c, 0, 64, 65
3, 71900, Note_on_c, 0, 64, 0
3, 72000, Note_on_c, 0, 65, 63
3, 72120, Note_on_c, 0, 65, 0
3, 72480, Note_on_c, 0, 77, 65
3, 72600, Note_on_c, 0, 77, 0
3, 72960, Note_on_c, 0, 58, 58
3, 73080, Note_on_c, 0, 58, 0
3, 73440, Note_on_c, 0, 82, 58
3, 73560, Note_on_c, 0, 82, 0
3, 73920, Note_on_c, 0, 58, 58
3, 74040, Note_on_c, 0, 58, 0
3, 74400, Note_on_c, 0, 82, 58
3, 74520, Note_on_c, 0, 82, 0
3, 74880, Note_on_c, 0, 58, 58
3, 75000, Note_on_c, 0, 58, 0
3, 75360, Note_on_c, 0, 82, 58
3, 75480, Note_on_c, 0, 82, 0
3, 75840, Note_on_c, 0, 58, 58
3, 75960, Note_on_c, 0, 58, 0
3, 76320, Note_on_c, 0, 85, 58
3, 76440, Note_on_c, 0, 85, 0
3, 76800, Note_on_c, 0, 59, 60
3, 76920, Note_on_c, 0, 59, 0
3, 77280, Note_on_c, 0, 83, 60
3, 77400, Note_on_c, 0, 83, 0
3, 77760, Note_on_c, 0, 59, 62
3, 77880, Note_on_c, 0, 59, 0
3, 78240, Note_on_c, 0, 83, 62
3, 78360, Note_on_c, 0, 83, 0
3, 78720, Note_on_c, 0, 59, 65
3, 78840, Note_on_c, 0, 59, 0
3, 79200, Note_on_c, 0, 83, 69
3, 79320, Note_on_c, 0, 83, 0
3, 79680, Note_on_c, 0, 59, 67
3, 79800, Note_on_c, 0, 59, 0
3, 80160, Note_on_c, 0, 86, 70
3, 80280, Note_on_c, 0, 86, 0
3, 80640, Note_on_c, 0, 60, 69
3, 80760, Note_on_c, 0, 60, 0
3, 81120, Note_on_c, 0, 84, 71
3, 81240, Note_on_c, 0, 84, 0
3, 81600, Note_on_c, 0, 60, 72
3, 81720, Note_on_c, 0, 60, 0
3, 82080, Note_on_c, 0, 84, 73
3, 82200, Note_on_c, 0, 84, 0
3, 82560, Note_on_c, 0, 60, 74
3, 82680, Note_on_c, 0, 60, 0
3, 83040, Note_on_c, 0, 84, 76
3, 83160, Note_on_c, 0, 84, 0
3, 83520, Note_on_c, 0, 60, 77
3, 83580, Note_on_c, 0, 60, 0
3, 83657, Control_c, 0, 64, 127
3, 84000, Note_on_c, 0, 87, 78
3, 84060, Note_on_c, 0, 87, 0
3, 84540, Control_c, 0, 64, 0
3, 85440, Note_on_c, 0, 61, 58
3, 85560, Note_on_c, 0, 61, 0
3, 85920, Note_on_c, 0, 77, 61
3, 85920, Note_on_c, 0, 73, 61
3, 85980, Note_on_c, 0, 73, 0
3, 85980, Note_on_c, 0, 77, 0
3, 86400, Note_on_c, 0, 60, 58
3, 86520, Note_on_c, 0, 60, 0
3, 86880, Note_on_c, 0, 78, 62
3, 86880, Note_on_c, 0, 75, 62
3, 86940, Note_on_c, 0, 75, 0
3, 86940, Note_on_c, 0, 78, 0
3, 87360, Note_on_c, 0, 61, 58
3, 87480, Note_on_c, 0, 61, 0
3, 87840, Note_on_c, 0, 77, 58
3, 87840, Note_on_c, 0, 73, 49
3, 87900, Note_on_c, 0, 73, 0
3, 87900, Note_on_c, 0, 77, 0
3, 88320, Note_on_c, 0, 56, 58
3, 88440, Note_on_c, 0, 56, 0
3, 88800, Note_on_c, 0, 72, 49
3, 88800, Note_on_c, 0, 80, 58
3, 88860, Note_on_c, 0, 80, 0
3, 88860, Note_on_c, 0, 72, 0
3, 89280, Note_on_c, 0, 61, 49
3, 89400, Note_on_c, 0, 61, 0
3, 89760, Note_on_c, 0, 76, 49
3, 89760, Note_on_c, 0, 73, 41
3, 89820, Note_on_c, 0, 73, 0
3, 89820, Note_on_c, 0, 76, 0
3, 90240, Note_on_c, 0, 60, 49
3, 90360, Note_on_c, 0, 60, 0
3, 90720, Note_on_c, 0, 75, 41
3, 90720, Note_on_c, 0, 78, 49
3, 90780, Note_on_c, 0, 78, 0
3, 90780, Note_on_c, 0, 75, 0
3, 91200, Note_on_c, 0, 61, 49
3, 91320, Note_on_c, 0, 61, 0
3, 91680, Note_on_c, 0, 76, 49
3, 91680, Note_on_c, 0, 73, 41
3, 91740, Note_on_c, 0, 73, 0
3, 91740, Note_on_c, 0, 76, 0
3, 92160, Note_on_c, 0, 56, 49
3, 92280, Note_on_c, 0, 56, 0
3, 92640, Note_on_c, 0, 72, 41
3, 92640, Note_on_c, 0, 80, 49
3, 92700, Note_on_c, 0, 80, 0
3, 92700, Note_on_c, 0, 72, 0
3, 93120, Note_on_c, 0, 61, 49
3, 93240, Note_on_c, 0, 61, 0
3, 93600, Note_on_c, 0, 76, 50
3, 93600, Note_on_c, 0, 73, 43
3, 93660, Note_on_c, 0, 73, 0
3, 93660, Note_on_c, 0, 76, 0
3, 94080, Note_on_c, 0, 59, 54
3, 94200, Note_on_c, 0, 59, 0
3, 94560, Note_on_c, 0, 74, 49
3, 94560, Note_on_c, 0, 76, 58
3, 94620, Note_on_c, 0, 76, 0
3, 94620, Note_on_c, 0, 74, 0
3, 95040, Note_on_c, 0, 57, 62
3, 95160, Note_on_c, 0, 57, 0
3, 95520, Note_on_c, 0, 81, 66
3, 95520, Note_on_c, 0, 73, 56
3, 95580, Note_on_c, 0, 73, 0
3, 95580, Note_on_c, 0, 81, 0
3, 96000, Note_on_c, 0, 58, 69
3, 96120, Note_on_c, 0, 58, 0
3, 96480, Note_on_c, 0, 76, 62
3, 96480, Note_on_c, 0, 85, 74
3, 96540, Note_on_c, 0, 85, 0
3, 96540, Note_on_c, 0, 76, 0
3, 96960, Note_on_c, 0, 59, 78
3, 96983, Control_c, 0, 64, 127
3, 97020, Note_on_c, 0, 59, 0
3, 97083, Control_c, 0, 64, 0
3, 97200, Note_on_c, 0, 83, 65
3, 97200, Note_on_c, 0, 75, 54
3, 97200, Note_on_c, 0, 71, 54
3, 97200, Note_on_c, 0, 63, 45
3, 97200, Note_on_c, 0, 66, 45
3, 97220, Control_c, 0, 64, 127
3, 97260, Note_on_c, 0, 66, 0
3, 97260, Note_on_c, 0, 71, 0
3, 97260, Note_on_c, 0, 83, 0
3, 97260, Note_on_c, 0, 75, 0
3, 97260, Note_on_c, 0, 63, 0
3, 97274, Control_c, 0, 64, 0
3, 97440, Note_on_c, 0, 57, 82
3, 97454, Control_c, 0, 64, 127
3, 97500, Note_on_c, 0, 57, 0
3, 97560, Control_c, 0, 64, 0
3, 97680, Note_on_c, 0, 83, 65
3, 97680, Note_on_c, 0, 78, 54
3, 97680, Note_on_c, 0, 75, 54
3, 97680, Note_on_c, 0, 71, 54
3, 97680, Note_on_c, 0, 66, 45
3, 97680, Note_on_c, 0, 63, 45
3, 97714, Control_c, 0, 64, 127
3, 97740, Note_on_c, 0, 63, 0
3, 97740, Note_on_c, 0, 78, 0
3, 97740, Note_on_c, 0, 75, 0
3, 97740, Note_on_c, 0, 83, 0
3, 97740, Note_on_c, 0, 66, 0
3, 97740, Note_on_c, 0, 71, 0
3, 97783, Control_c, 0, 64, 0
3, 97920, Note_on_c, 0, 56, 81
3, 97943, Control_c, 0, 64, 127
3, 97980, Note_on_c, 0, 56, 0
3, 98037, Control_c, 0, 64, 0
3, 98160, Note_on_c, 0, 80, 65
3, 98160, Note_on_c, 0, 76, 54
3, 98160, Note_on_c, 0, 71, 54
3, 98160, Note_on_c, 0, 68, 54
3, 98160, Note_on_c, 0, 64, 45
3, 98160, Note_on_c, 0, 59, 45
3, 98191, Control_c, 0, 64, 127
3, 98220, Note_on_c, 0, 59, 0
3, 98220, Note_on_c, 0, 76, 0
3, 98220, Note_on_c, 0, 71, 0
3, 98220, Note_on_c, 0, 80, 0
3, 98220, Note_on_c, 0, 64, 0
3, 98220, Note_on_c, 0, 68, 0
3, 98266, Control_c, 0, 64, 0
3, 98400, Note_on_c, 0, 57, 81
3, 98420, Control_c, 0, 64, 127
3, 98460, Note_on_c, 0, 57, 0
3, 98509, Control_c, 0, 64, 0
3, 98640, Note_on_c, 0, 81, 65
3, 98640, Note_on_c, 0, 76, 54
3, 98640, Note_on_c, 0, 73, 54
3, 98640, Note_on_c, 0, 69, 54
3, 98640, Note_on_c, 0, 64, 45
3, 98640, Note_on_c, 0, 61, 45
3, 98660, Control_c, 0, 64, 127
3, 98700, Note_on_c, 0, 61, 0
3, 98700, Note_on_c, 0, 76, 0
3, 98700, Note_on_c, 0, 73, 0
3, 98700, Note_on_c, 0, 81, 0
3, 98700, Note_on_c, 0, 64, 0
3, 98700, Note_on_c, 0, 69, 0
3, 98754, Control_c, 0, 64, 0
3, 98880, Note_on_c, 0, 59, 80
3, 98903, Control_c, 0, 64, 127
3, 98940, Note_on_c, 0, 59, 0
3, 99000, Control_c, 0, 64, 0
3, 99120, Note_on_c, 0, 83, 65
3, 99120, Note_on_c, 0, 80, 54
3, 99120, Note_on_c, 0, 76, 54
3, 99120, Note_on_c, 0, 71, 54
3, 99120, Note_on_c, 0, 68, 45
3, 99120, Note_on_c, 0, 64, 45
3, 99137, Control_c, 0, 64, 127
3, 99180, Note_on_c, 0, 64, 0
3, 99180, Note_on_c, 0, 80, 0
3, 99180, Note_on_c, 0, 76, 0
3, 99180, Note_on_c, 0, 83, 0
3, 99180, Note_on_c, 0, 68, 0
3, 99180, Note_on_c, 0, 71, 0
3, 99231, Control_c, 0, 64, 0
3, 99360, Note_on_c, 0, 59, 81
3, 99380, Control_c, 0, 64, 127
3, 99420, Note_on_c, 0, 59, 0
3, 99431, Control_c, 0, 64, 0
3, 99600, Note_on_c, 0, 83, 65
3, 99600, Note_on_c, 0, 78, 54
3, 99600, Note_on_c, 0, 75, 54
3, 99600, Note_on_c, 0, 71, 54
3, 99600, Note_on_c, 0, 66, 45
3, 99600, Note_on_c, 0, 63, 45
3, 99626, Control_c, 0, 64, 127
3, 99660, Note_on_c, 0, 63, 0
3, 99660, Note_on_c, 0, 78, 0
3, 99660, Note_on_c, 0, 75, 0
3, 99660, Note_on_c, 0, 83, 0
3, 99660, Note_on_c, 0, 66, 0
3, 99660, Note_on_c, 0, 71, 0
3, 99743, Control_c, 0, 64, 0
3, 99840, Note_on_c, 0, 64, 81
3, 99896, Control_c, 0, 64, 127
3, 100320, Note_on_c, 0, 64, 0
3, 100320, Note_on_c, 0, 88, 79
3, 100320, Note_on_c, 0, 83, 66
3, 100320, Note_on_c, 0, 80, 66
3, 100320, Note_on_c, 0, 76, 66
3, 100320, Note_on_c, 0, 71, 55
3, 100320, Note_on_c, 0, 68, 55
3, 100380, Note_on_c, 0, 68, 0
3, 100380, Note_on_c, 0, 83, 0
3, 100380, Note_on_c, 0, 80, 0
3, 100380, Note_on_c, 0, 88, 0
3, 100380, Note_on_c, 0, 71, 0
3, 100380, Note_on_c, 0, 76, 0
3, 100398, Control_c, 0, 64, 0
3, 100800, Note_on_c, 0, 64, 58
3, 100860, Note_on_c, 0, 64, 0
3, 101280, Note_on_c, 0, 76, 58
3, 101340, Note_on_c, 0, 76, 0
3, 101760, Note_on_c, 0, 64, 58
3, 101820, Note_on_c, 0, 64, 0
3, 102240, Note_on_c, 0, 76, 58
3, 102300, Note_on_c, 0, 76, 0
3, 102720, Note_on_c, 0, 64, 58
3, 102780, Note_on_c, 0, 64, 0
3, 103200, Note_on_c, 0, 76, 58
3, 103260, Note_on_c, 0, 76, 0
3, 103680, Note_on_c, 0, 64, 58
3, 103733, Control_c, 0, 64, 127
3, 103740, Note_on_c, 0, 64, 0
3, 104160, Note_on_c, 0, 64, 67
3, 104171, Control_c, 0, 64, 0
3, 104220, Note_on_c, 0, 64, 0
3, 104320, Note_on_c, 0, 66, 59
3, 104380, Note_on_c, 0, 66, 0
3, 104480, Note_on_c, 0, 68, 60
3, 104540, Note_on_c, 0, 68, 0
3, 104640, Note_on_c, 0, 69, 67
3, 104760, Note_on_c, 0, 69, 0
3, 105120, Note_on_c, 0, 57, 67
3, 105152, Control_c, 0, 64, 127
3, 105240, Note_on_c, 0, 57, 0
3, 105360, Note_on_c, 0, 58, 66
3, 105371, Control_c, 0, 64, 0
3, 105480, Note_on_c, 0, 58, 0
3, 105600, Note_on_c, 0, 59, 67
3, 105720, Note_on_c, 0, 59, 0
3, 106560, Note_on_c, 0, 59, 64
3, 106680, Note_on_c, 0, 59, 0
3, 107520, Note_on_c, 0, 64, 60
3, 107640, Note_on_c, 0, 64, 0
3, 108000, Note_on_c, 0, 92, 74
3, 108060, Note_on_c, 0, 92, 0
3, 108240, Note_on_c, 0, 88, 70
3, 108300, Note_on_c, 0, 88, 0
3, 108480, Note_on_c, 0, 64, 57
3, 108600, Note_on_c, 0, 64, 0
3, 109440, Note_on_c, 0, 64, 57
3, 109560, Note_on_c, 0, 64, 0
3, 110400, Note_on_c, 0, 64, 57
3, 110520, Note_on_c, 0, 64, 0
3, 111360, Note_on_c, 0, 64, 70
3, 111480, Note_on_c, 0, 64, 0
3, 112000, Note_on_c, 0, 63, 60
3, 112060, Note_on_c, 0, 63, 0
3, 112160, Note_on_c, 0, 62, 62
3, 112220, Note_on_c, 0, 62, 0
3, 112320, Note_on_c, 0, 61, 71
3, 112440, Note_on_c, 0, 61, 0
3, 112800, Note_on_c, 0, 57, 72
3, 112920, Note_on_c, 0, 57, 0
3, 113280, Note_on_c, 0, 59, 65
3, 113400, Note_on_c, 0, 59, 0
3, 114240, Note_on_c, 0, 59, 64
3, 114360, Note_on_c, 0, 59, 0
3, 115200, Note_on_c, 0, 64, 65
3, 115320, Note_on_c, 0, 64, 0
3, 116160, Note_on_c, 0, 64, 64
3, 116280, Note_on_c, 0, 64, 0
3, 117120, Note_on_c, 0, 64, 65
3, 117240, Note_on_c, 0, 64, 0
3, 118080, Note_on_c, 0, 64, 69
3, 118200, Note_on_c, 0, 64, 0
3, 119040, Note_on_c, 0, 64, 76
3, 119160, Note_on_c, 0, 64, 0
3, 120000, Note_on_c, 0, 61, 80
3, 120120, Note_on_c, 0, 61, 0
3, 120480, Note_on_c, 0, 61, 78
3, 120540, Note_on_c, 0, 61, 0
3, 120720, Note_on_c, 0, 58, 83
3, 120780, Note_on_c, 0, 58, 0
3, 120960, Note_on_c, 0, 59, 86
3, 121020, Note_on_c, 0, 59, 0
3, 121137, Control_c, 0, 64, 127
3, 121280, Control_c, 0, 64, 0
3, 121440, Control_c, 0, 64, 127
3, 121440, Note_on_c, 0, 68, 75
3, 121500, Note_on_c, 0, 68, 0
3, 121600, Note_on_c, 0, 69, 74
3, 121637, Control_c, 0, 64, 0
3, 121660, Note_on_c, 0, 69, 0
3, 121760, Note_on_c, 0, 70, 73
3, 121820, Note_on_c, 0, 70, 0
3, 122400, Note_on_c, 0, 59, 72
3, 122520, Note_on_c, 0, 59, 0
3, 122880, Note_on_c, 0, 64, 65
3, 123000, Note_on_c, 0, 64, 0
3, 123840, Note_on_c, 0, 64, 64
3, 123960, Note_on_c, 0, 64, 0
3, 124800, Note_on_c, 0, 64, 65
3, 124920, Note_on_c, 0, 64, 0
3, 125760, Note_on_c, 0, 64, 67
3, 125880, Note_on_c, 0, 64, 0
3, 126720, Note_on_c, 0, 64, 72
3, 126840, Note_on_c, 0, 64, 0
3, 127680, Note_on_c, 0, 60, 75
3, 127800, Note_on_c, 0, 60, 0
3, 128160, Note_on_c, 0, 79, 77
3, 128220, Note_on_c, 0, 79, 0
3, 128400, Note_on_c, 0, 76, 78
3, 128460, Note_on_c, 0, 76, 0
3, 128640, Note_on_c, 0, 59, 78
3, 128700, Note_on_c, 0, 59, 0
3, 129307, Control_c, 0, 64, 127
3, 129452, Control_c, 0, 64, 0
3, 129760, Note_on_c, 0, 59, 55
3, 129791, Control_c, 0, 64, 127
3, 129820, Note_on_c, 0, 59, 0
3, 129920, Note_on_c, 0, 61, 57
3, 129932, Control_c, 0, 64, 0
3, 129980, Note_on_c, 0, 61, 0
3, 130080, Note_on_c, 0, 59, 50
3, 130080, Note_on_c, 0, 63, 59
3, 130140, Note_on_c, 0, 63, 0
3, 130140, Note_on_c, 0, 59, 0
3, 130240, Note_on_c, 0, 64, 61
3, 130300, Note_on_c, 0, 64, 0
3, 130400, Note_on_c, 0, 66, 63
3, 130460, Note_on_c, 0, 66, 0
3, 130560, Note_on_c, 0, 64, 54
3, 130560, Note_on_c, 0, 68, 54
3, 130620, Note_on_c, 0, 68, 0
3, 130620, Note_on_c, 0, 64, 0
3, 131520, Note_on_c, 0, 64, 48
3, 131580, Note_on_c, 0, 64, 0
3, 132480, Note_on_c, 0, 64, 48
3, 132540, Note_on_c, 0, 64, 0
3, 133440, Note_on_c, 0, 64, 48
3, 133500, Note_on_c, 0, 64, 0
3, 134400, Note_on_c, 0, 64, 48
3, 134460, Note_on_c, 0, 64, 0
3, 135360, Note_on_c, 0, 64, 48
3, 135420, Note_on_c, 0, 64, 0
3, 136320, Note_on_c, 0, 64, 48
3, 136380, Note_on_c, 0, 64, 0
3, 145712, Control_c, 0, 64, 127
3, 147067, Control_c, 0, 64, 0
3, 147067, End_track
4, 0, Start_track
4, 0, Title_t, "Liszt: Etude No. 4 from Grandes Etudes de Paganini"
4, 0, End_track
5, 0, Start_track
5, 0, Title_t, "Copyright © 2004 by Bernd Krüger"
5, 0, End_track
6, 0, Start_track
6, 0, Title_t, "http://www.piano-midi.de"
6, 0, End_track
7, 0, Start_track
7, 0, Title_t, "Edition: 2014-03-04"
7, 0, End_track
8, 0, Start_track
8, 0, Title_t, "Spur 7"
8, 0, End_track
9, 0, Start_track
9, 0, Title_t, "Spur 8"
9, 0, End_track
0, 0, End_of_file
