0, 0, Header, 1, 8, 480
1, 0, Start_track
1, 0, Title_t, "Lieder ohne Worte Op. 62 No. 4"
1, 0, Title_t, "Morgenlied"
1, 0, Copyright_t, "Copyright © 2004 by Bernd Krueger"
1, 0, Text_t, "Mendelslsohn"
1, 0, Text_t, "Allegro con Anima"
1, 0, Text_t, "Fertiggestellt am 10.1.2004\012"
1, 0, Text_t, "Update am 3.4.2014\012"
1, 0, Text_t, "Dauer:  1:18 Minuten\012"
1, 0, SMPTE_offset, 96, 0, 3, 0, 0
1, 0, Time_signature, 9, 3, 12, 8
1, 0, Key_signature, 1, "major"
1, 0, Tempo, 400000
1, 1200, Tempo, 393572
1, 1440, Tempo, 381801
1, 1680, Tempo, 426046
1, 1920, Tempo, 468494
1, 2160, Tempo, 393572
1, 3600, Tempo, 381801
1, 3840, Tempo, 432588
1, 4080, Tempo, 464648
1, 4320, Tempo, 393572
1, 5280, Tempo, 457108
1, 5520, Tempo, 393572
1, 5760, Tempo, 370737
1, 6240, Tempo, 380373
1, 6480, Tempo, 373436
1, 6960, Tempo, 424598
1, 7200, Tempo, 421289
1, 7440, Tempo, 441176
1, 7920, Tempo, 432588
1, 8400, Tempo, 460900
1, 8640, Tempo, 433589
1, 9840, Tempo, 427107
1, 10080, Tempo, 413793
1, 10560, Tempo, 432370
1, 10800, Tempo, 408970
1, 12000, Tempo, 427107
1, 12240, Tempo, 410959
1, 12720, Tempo, 434122
1, 12960, Tempo, 408970
1, 14160, Tempo, 430601
1, 14400, Tempo, 408970
1, 14640, Tempo, 417043
1, 14880, Tempo, 498670
1, 15120, Tempo, 404940
1, 15600, Tempo, 409305
1, 16320, Tempo, 434122
1, 16560, Tempo, 403524
1, 17040, Tempo, 425441
1, 18480, Tempo, 427107
1, 18720, Tempo, 410762
1, 19200, Tempo, 432370
1, 19440, Tempo, 408970
1, 20640, Tempo, 427107
1, 20880, Tempo, 404940
1, 21360, Tempo, 434122
1, 21600, Tempo, 408970
1, 22800, Tempo, 430601
1, 23040, Tempo, 408970
1, 23280, Tempo, 417043
1, 23520, Tempo, 441371
1, 23760, Tempo, 410565
1, 24960, Tempo, 434122
1, 25200, Tempo, 408970
1, 25680, Tempo, 425441
1, 27120, Tempo, 427107
1, 27360, Tempo, 402091
1, 27840, Tempo, 432370
1, 28080, Tempo, 403524
1, 28560, Tempo, 407830
1, 29280, Tempo, 427107
1, 29520, Tempo, 408970
1, 30000, Tempo, 434122
1, 30240, Tempo, 403524
1, 30720, Tempo, 407830
1, 31440, Tempo, 430601
1, 31680, Tempo, 408970
1, 31920, Tempo, 417043
1, 32160, Tempo, 458610
1, 32400, Tempo, 410565
1, 33120, Tempo, 422000
1, 33600, Tempo, 434122
1, 33840, Tempo, 417043
1, 34320, Tempo, 464612
1, 35760, Tempo, 427107
1, 36000, Tempo, 407415
1, 36480, Tempo, 432370
1, 36720, Tempo, 408970
1, 37920, Tempo, 427107
1, 38160, Tempo, 408970
1, 38640, Tempo, 434122
1, 38880, Tempo, 408970
1, 40080, Tempo, 430601
1, 40320, Tempo, 408970
1, 40560, Tempo, 417043
1, 40800, Tempo, 519481
1, 41040, Tempo, 416667
1, 41760, Tempo, 431655
1, 42240, Tempo, 448867
1, 42480, Tempo, 437764
1, 42960, Tempo, 569530
1, 43200, Tempo, 667780
1, 43920, Tempo, 1153624
1, 44400, Tempo, 427107
1, 44640, Tempo, 407415
1, 45120, Tempo, 432370
1, 45360, Tempo, 408970
1, 46560, Tempo, 427107
1, 46800, Tempo, 408970
1, 47280, Tempo, 434122
1, 47520, Tempo, 408970
1, 48720, Tempo, 430601
1, 48960, Tempo, 408970
1, 49200, Tempo, 430108
1, 49440, Tempo, 489796
1, 49680, Tempo, 410565
1, 50880, Tempo, 434122
1, 51120, Tempo, 408970
1, 51600, Tempo, 425441
1, 53040, Tempo, 416753
1, 53280, Tempo, 400668
1, 53520, Tempo, 413793
1, 53760, Tempo, 446097
1, 54000, Tempo, 408970
1, 54040, Tempo, 402091
1, 54960, Tempo, 424508
1, 55200, Tempo, 413736
1, 55440, Tempo, 402091
1, 55680, Tempo, 406394
1, 55920, Tempo, 418293
1, 56160, Tempo, 402091
1, 57120, Tempo, 427686
1, 57360, Tempo, 418293
1, 57600, Tempo, 402091
1, 57840, Tempo, 417043
1, 58080, Tempo, 441371
1, 58320, Tempo, 410565
1, 59520, Tempo, 434122
1, 59760, Tempo, 408970
1, 60240, Tempo, 425441
1, 61680, Tempo, 416753
1, 61920, Tempo, 397878
1, 62160, Tempo, 406394
1, 62400, Tempo, 437509
1, 62640, Tempo, 408970
1, 62680, Tempo, 402091
1, 63360, Tempo, 399281
1, 63600, Tempo, 403524
1, 64080, Tempo, 397878
1, 64320, Tempo, 407830
1, 64560, Tempo, 418293
1, 64800, Tempo, 402091
1, 65760, Tempo, 427686
1, 66000, Tempo, 418293
1, 66240, Tempo, 402091
1, 66480, Tempo, 417043
1, 66720, Tempo, 441371
1, 66960, Tempo, 410565
1, 68160, Tempo, 434122
1, 68400, Tempo, 408970
1, 68880, Tempo, 425441
1, 69840, Tempo, 424508
1, 70560, Tempo, 449573
1, 71040, Tempo, 479808
1, 71280, Tempo, 446063
1, 72000, Tempo, 462321
1, 72720, Tempo, 456760
1, 73200, Tempo, 481850
1, 74640, Tempo, 393985
1, 74880, Tempo, 390879
1, 75120, Tempo, 428571
1, 75360, Tempo, 454545
1, 75600, Tempo, 387097
1, 75840, Tempo, 392157
1, 76320, Tempo, 405405
1, 76800, Tempo, 398010
1, 77040, Tempo, 388425
1, 77280, Tempo, 443262
1, 77520, Tempo, 465152
1, 77760, Tempo, 394011
1, 78720, Tempo, 457631
1, 78960, Tempo, 392465
1, 79200, Tempo, 374275
1, 79680, Tempo, 389762
1, 79920, Tempo, 374275
1, 80400, Tempo, 425050
1, 80640, Tempo, 478088
1, 81360, Tempo, 485830
1, 81840, Tempo, 576923
1, 82080, Tempo, 481928
1, 83160, Tempo, 500000
1, 84240, Tempo, 545455
1, 84240, End_track
2, 0, Start_track
2, 0, Title_t, "Piano right"
2, 0, Program_c, 0, 0
2, 0, Control_c, 0, 7, 127
2, 0, Control_c, 0, 10, 64
2, 0, Control_c, 0, 91, 127
2, 1200, Note_on_c, 0, 59, 46
2, 1200, Note_on_c, 0, 62, 55
2, 1440, Note_on_c, 0, 62, 0
2, 1440, Note_on_c, 0, 59, 0
2, 1440, Note_on_c, 0, 59, 49
2, 1440, Note_on_c, 0, 62, 59
2, 1680, Note_on_c, 0, 62, 0
2, 1680, Note_on_c, 0, 59, 0
2, 1680, Note_on_c, 0, 55, 55
2, 1920, Note_on_c, 0, 55, 0
2, 1920, Note_on_c, 0, 62, 50
2, 1920, Note_on_c, 0, 67, 50
2, 1920, Note_on_c, 0, 71, 59
2, 2148, Note_on_c, 0, 71, 0
2, 2148, Note_on_c, 0, 67, 0
2, 2148, Note_on_c, 0, 62, 0
2, 2160, Note_on_c, 0, 62, 52
2, 2160, Note_on_c, 0, 67, 52
2, 2160, Note_on_c, 0, 71, 63
2, 2880, Note_on_c, 0, 71, 0
2, 2880, Note_on_c, 0, 67, 0
2, 2880, Note_on_c, 0, 62, 0
2, 2880, Note_on_c, 0, 59, 41
2, 2880, Note_on_c, 0, 67, 49
2, 3360, Note_on_c, 0, 67, 0
2, 3360, Note_on_c, 0, 59, 0
2, 3360, Note_on_c, 0, 62, 48
2, 3360, Note_on_c, 0, 71, 57
2, 3600, Note_on_c, 0, 71, 0
2, 3600, Note_on_c, 0, 62, 0
2, 3600, Note_on_c, 0, 62, 49
2, 3600, Note_on_c, 0, 71, 59
2, 3840, Note_on_c, 0, 71, 0
2, 3840, Note_on_c, 0, 62, 0
2, 3840, Note_on_c, 0, 59, 46
2, 3840, Note_on_c, 0, 67, 55
2, 4080, Note_on_c, 0, 67, 0
2, 4080, Note_on_c, 0, 59, 0
2, 4080, Note_on_c, 0, 71, 52
2, 4080, Note_on_c, 0, 74, 52
2, 4080, Note_on_c, 0, 79, 63
2, 4308, Note_on_c, 0, 79, 0
2, 4308, Note_on_c, 0, 74, 0
2, 4308, Note_on_c, 0, 71, 0
2, 4320, Note_on_c, 0, 71, 54
2, 4320, Note_on_c, 0, 74, 54
2, 4320, Note_on_c, 0, 79, 65
2, 5040, Note_on_c, 0, 79, 0
2, 5040, Note_on_c, 0, 74, 0
2, 5040, Note_on_c, 0, 71, 0
2, 5040, Note_on_c, 0, 67, 41
2, 5040, Note_on_c, 0, 71, 41
2, 5040, Note_on_c, 0, 74, 49
2, 5520, Note_on_c, 0, 74, 0
2, 5520, Note_on_c, 0, 71, 0
2, 5520, Note_on_c, 0, 67, 0
2, 5520, Note_on_c, 0, 79, 65
2, 5520, Note_on_c, 0, 86, 77
2, 5760, Note_on_c, 0, 86, 0
2, 5760, Note_on_c, 0, 79, 0
2, 5760, Note_on_c, 0, 79, 70
2, 5760, Note_on_c, 0, 86, 82
2, 6000, Note_on_c, 0, 86, 0
2, 6000, Note_on_c, 0, 79, 0
2, 6000, Note_on_c, 0, 74, 61
2, 6000, Note_on_c, 0, 83, 73
2, 6240, Note_on_c, 0, 83, 0
2, 6240, Note_on_c, 0, 74, 0
2, 6240, Note_on_c, 0, 71, 61
2, 6240, Note_on_c, 0, 79, 73
2, 6468, Note_on_c, 0, 79, 0
2, 6468, Note_on_c, 0, 71, 0
2, 6480, Note_on_c, 0, 71, 63
2, 6480, Note_on_c, 0, 79, 76
2, 6720, Note_on_c, 0, 79, 0
2, 6720, Note_on_c, 0, 71, 0
2, 6720, Note_on_c, 0, 67, 55
2, 6720, Note_on_c, 0, 74, 66
2, 6960, Note_on_c, 0, 74, 0
2, 6960, Note_on_c, 0, 67, 0
2, 6960, Note_on_c, 0, 62, 55
2, 6960, Note_on_c, 0, 71, 66
2, 7200, Note_on_c, 0, 71, 0
2, 7200, Note_on_c, 0, 62, 0
2, 7200, Note_on_c, 0, 67, 61
2, 7200, Note_on_c, 0, 74, 73
2, 7920, Note_on_c, 0, 74, 0
2, 7920, Note_on_c, 0, 67, 0
2, 7920, Note_on_c, 0, 60, 38
2, 7920, Note_on_c, 0, 62, 38
2, 7920, Note_on_c, 0, 66, 38
2, 7920, Note_on_c, 0, 69, 45
2, 8400, Note_on_c, 0, 69, 0
2, 8400, Note_on_c, 0, 60, 0
2, 8400, Note_on_c, 0, 62, 0
2, 8400, Note_on_c, 0, 66, 0
2, 8400, Note_on_c, 0, 71, 44
2, 8640, Note_on_c, 0, 71, 0
2, 8640, Note_on_c, 0, 59, 33
2, 8640, Note_on_c, 0, 62, 36
2, 8640, Note_on_c, 0, 67, 43
2, 9840, Note_on_c, 0, 67, 0
2, 9840, Note_on_c, 0, 62, 0
2, 9840, Note_on_c, 0, 59, 0
2, 9840, Note_on_c, 0, 62, 54
2, 10080, Note_on_c, 0, 62, 0
2, 10080, Note_on_c, 0, 62, 48
2, 10080, Note_on_c, 0, 67, 57
2, 10560, Note_on_c, 0, 67, 0
2, 10560, Note_on_c, 0, 62, 0
2, 10560, Note_on_c, 0, 62, 48
2, 10560, Note_on_c, 0, 66, 57
2, 10800, Note_on_c, 0, 66, 0
2, 10800, Note_on_c, 0, 62, 0
2, 10800, Note_on_c, 0, 62, 48
2, 10800, Note_on_c, 0, 69, 57
2, 12000, Note_on_c, 0, 69, 0
2, 12000, Note_on_c, 0, 62, 0
2, 12000, Note_on_c, 0, 67, 57
2, 12240, Note_on_c, 0, 67, 0
2, 12240, Note_on_c, 0, 67, 52
2, 12240, Note_on_c, 0, 72, 61
2, 12720, Note_on_c, 0, 72, 0
2, 12720, Note_on_c, 0, 67, 0
2, 12720, Note_on_c, 0, 67, 48
2, 12720, Note_on_c, 0, 71, 57
2, 12960, Note_on_c, 0, 71, 0
2, 12960, Note_on_c, 0, 67, 0
2, 12960, Note_on_c, 0, 64, 51
2, 12960, Note_on_c, 0, 67, 51
2, 12960, Note_on_c, 0, 76, 60
2, 14160, Note_on_c, 0, 76, 0
2, 14160, Note_on_c, 0, 67, 0
2, 14160, Note_on_c, 0, 64, 0
2, 14160, Note_on_c, 0, 67, 54
2, 14160, Note_on_c, 0, 74, 65
2, 14388, Note_on_c, 0, 74, 0
2, 14388, Note_on_c, 0, 67, 0
2, 14400, Note_on_c, 0, 67, 58
2, 14400, Note_on_c, 0, 74, 69
2, 14880, Note_on_c, 0, 74, 0
2, 14880, Note_on_c, 0, 67, 0
2, 14880, Note_on_c, 0, 66, 54
2, 14880, Note_on_c, 0, 74, 65
2, 15120, Note_on_c, 0, 74, 0
2, 15120, Note_on_c, 0, 66, 0
2, 15120, Note_on_c, 0, 67, 59
2, 15120, Note_on_c, 0, 79, 69
2, 15600, Note_on_c, 0, 79, 0
2, 15600, Note_on_c, 0, 74, 64
2, 15840, Note_on_c, 0, 74, 0
2, 15840, Note_on_c, 0, 71, 64
2, 16320, Note_on_c, 0, 71, 0
2, 16320, Note_on_c, 0, 67, 0
2, 16320, Note_on_c, 0, 62, 45
2, 16320, Note_on_c, 0, 67, 53
2, 16500, Note_on_c, 0, 67, 0
2, 16500, Note_on_c, 0, 62, 0
2, 16500, Note_on_c, 0, 69, 51
2, 16560, Note_on_c, 0, 69, 0
2, 16560, Note_on_c, 0, 61, 47
2, 16560, Note_on_c, 0, 67, 55
2, 16800, Note_on_c, 0, 67, 0
2, 16800, Note_on_c, 0, 66, 52
2, 17040, Note_on_c, 0, 66, 0
2, 17040, Note_on_c, 0, 61, 0
2, 17040, Note_on_c, 0, 61, 37
2, 17040, Note_on_c, 0, 67, 45
2, 17280, Note_on_c, 0, 67, 0
2, 17280, Note_on_c, 0, 61, 0
2, 17280, Note_on_c, 0, 62, 42
2, 17280, Note_on_c, 0, 71, 49
2, 18000, Note_on_c, 0, 71, 0
2, 18000, Note_on_c, 0, 69, 46
2, 18480, Note_on_c, 0, 69, 0
2, 18480, Note_on_c, 0, 62, 0
2, 18480, Note_on_c, 0, 60, 39
2, 18480, Note_on_c, 0, 62, 54
2, 18720, Note_on_c, 0, 62, 0
2, 18720, Note_on_c, 0, 60, 0
2, 18720, Note_on_c, 0, 59, 48
2, 18720, Note_on_c, 0, 62, 48
2, 18720, Note_on_c, 0, 67, 57
2, 19200, Note_on_c, 0, 67, 0
2, 19200, Note_on_c, 0, 62, 0
2, 19200, Note_on_c, 0, 59, 0
2, 19200, Note_on_c, 0, 57, 48
2, 19200, Note_on_c, 0, 62, 48
2, 19200, Note_on_c, 0, 66, 57
2, 19440, Note_on_c, 0, 66, 0
2, 19440, Note_on_c, 0, 62, 0
2, 19440, Note_on_c, 0, 57, 0
2, 19440, Note_on_c, 0, 60, 48
2, 19440, Note_on_c, 0, 62, 48
2, 19440, Note_on_c, 0, 69, 57
2, 20640, Note_on_c, 0, 69, 0
2, 20640, Note_on_c, 0, 62, 0
2, 20640, Note_on_c, 0, 60, 0
2, 20640, Note_on_c, 0, 59, 53
2, 20640, Note_on_c, 0, 62, 53
2, 20640, Note_on_c, 0, 67, 65
2, 20880, Note_on_c, 0, 67, 0
2, 20880, Note_on_c, 0, 62, 0
2, 20880, Note_on_c, 0, 59, 0
2, 20880, Note_on_c, 0, 60, 59
2, 20880, Note_on_c, 0, 67, 59
2, 20880, Note_on_c, 0, 72, 70
2, 21360, Note_on_c, 0, 72, 0
2, 21360, Note_on_c, 0, 67, 0
2, 21360, Note_on_c, 0, 60, 0
2, 21360, Note_on_c, 0, 59, 54
2, 21360, Note_on_c, 0, 67, 54
2, 21360, Note_on_c, 0, 71, 65
2, 21600, Note_on_c, 0, 71, 0
2, 21600, Note_on_c, 0, 67, 0
2, 21600, Note_on_c, 0, 59, 0
2, 21600, Note_on_c, 0, 64, 58
2, 21600, Note_on_c, 0, 67, 58
2, 21600, Note_on_c, 0, 76, 69
2, 22800, Note_on_c, 0, 76, 0
2, 22800, Note_on_c, 0, 67, 0
2, 22800, Note_on_c, 0, 64, 0
2, 22800, Note_on_c, 0, 62, 61
2, 22800, Note_on_c, 0, 67, 61
2, 22800, Note_on_c, 0, 74, 74
2, 23040, Note_on_c, 0, 74, 0
2, 23040, Note_on_c, 0, 67, 0
2, 23040, Note_on_c, 0, 62, 0
2, 23040, Note_on_c, 0, 74, 66
2, 23040, Note_on_c, 0, 67, 66
2, 23040, Note_on_c, 0, 79, 78
2, 23520, Note_on_c, 0, 79, 0
2, 23520, Note_on_c, 0, 67, 0
2, 23520, Note_on_c, 0, 74, 0
2, 23520, Note_on_c, 0, 72, 61
2, 23520, Note_on_c, 0, 67, 61
2, 23520, Note_on_c, 0, 79, 74
2, 23760, Note_on_c, 0, 79, 0
2, 23760, Note_on_c, 0, 67, 0
2, 23760, Note_on_c, 0, 72, 0
2, 23760, Note_on_c, 0, 71, 67
2, 23760, Note_on_c, 0, 79, 78
2, 24240, Note_on_c, 0, 79, 0
2, 24240, Note_on_c, 0, 71, 0
2, 24240, Note_on_c, 0, 67, 57
2, 24240, Note_on_c, 0, 71, 57
2, 24240, Note_on_c, 0, 74, 69
2, 24480, Note_on_c, 0, 74, 0
2, 24480, Note_on_c, 0, 71, 0
2, 24480, Note_on_c, 0, 67, 0
2, 24480, Note_on_c, 0, 62, 57
2, 24480, Note_on_c, 0, 67, 57
2, 24480, Note_on_c, 0, 71, 69
2, 24960, Note_on_c, 0, 71, 0
2, 24960, Note_on_c, 0, 67, 0
2, 24960, Note_on_c, 0, 62, 0
2, 24960, Note_on_c, 0, 62, 40
2, 24960, Note_on_c, 0, 67, 40
2, 24960, Note_on_c, 0, 71, 47
2, 25200, Note_on_c, 0, 71, 0
2, 25200, Note_on_c, 0, 67, 0
2, 25200, Note_on_c, 0, 62, 0
2, 25200, Note_on_c, 0, 66, 42
2, 25200, Note_on_c, 0, 62, 42
2, 25200, Note_on_c, 0, 60, 42
2, 25200, Note_on_c, 0, 72, 49
2, 25680, Note_on_c, 0, 72, 0
2, 25680, Note_on_c, 0, 69, 45
2, 25920, Note_on_c, 0, 69, 0
2, 25920, Note_on_c, 0, 60, 0
2, 25920, Note_on_c, 0, 62, 0
2, 25920, Note_on_c, 0, 66, 0
2, 25920, Note_on_c, 0, 59, 38
2, 25920, Note_on_c, 0, 62, 42
2, 25920, Note_on_c, 0, 67, 49
2, 26640, Note_on_c, 0, 67, 0
2, 26640, Note_on_c, 0, 62, 0
2, 26640, Note_on_c, 0, 59, 0
2, 27120, Note_on_c, 0, 59, 34
2, 27120, Note_on_c, 0, 62, 34
2, 27120, Note_on_c, 0, 67, 41
2, 27360, Note_on_c, 0, 67, 0
2, 27360, Note_on_c, 0, 62, 0
2, 27360, Note_on_c, 0, 59, 0
2, 27360, Note_on_c, 0, 57, 39
2, 27360, Note_on_c, 0, 62, 39
2, 27360, Note_on_c, 0, 66, 46
2, 27840, Note_on_c, 0, 66, 0
2, 27840, Note_on_c, 0, 62, 0
2, 27840, Note_on_c, 0, 57, 0
2, 27840, Note_on_c, 0, 59, 34
2, 27840, Note_on_c, 0, 62, 34
2, 27840, Note_on_c, 0, 67, 41
2, 28080, Note_on_c, 0, 67, 0
2, 28080, Note_on_c, 0, 62, 0
2, 28080, Note_on_c, 0, 59, 0
2, 28080, Note_on_c, 0, 62, 39
2, 28080, Note_on_c, 0, 71, 46
2, 28560, Note_on_c, 0, 71, 0
2, 28560, Note_on_c, 0, 60, 34
2, 28560, Note_on_c, 0, 69, 41
2, 28800, Note_on_c, 0, 69, 0
2, 28800, Note_on_c, 0, 60, 0
2, 28800, Note_on_c, 0, 57, 34
2, 28800, Note_on_c, 0, 66, 41
2, 30000, Note_on_c, 0, 66, 0
2, 30000, Note_on_c, 0, 57, 0
2, 30000, Note_on_c, 0, 62, 0
2, 30000, Note_on_c, 0, 59, 36
2, 30000, Note_on_c, 0, 62, 36
2, 30000, Note_on_c, 0, 67, 43
2, 30240, Note_on_c, 0, 67, 0
2, 30240, Note_on_c, 0, 62, 0
2, 30240, Note_on_c, 0, 59, 0
2, 30240, Note_on_c, 0, 62, 38
2, 30240, Note_on_c, 0, 71, 45
2, 30720, Note_on_c, 0, 71, 0
2, 30720, Note_on_c, 0, 60, 34
2, 30720, Note_on_c, 0, 69, 41
2, 30960, Note_on_c, 0, 69, 0
2, 30960, Note_on_c, 0, 60, 0
2, 30960, Note_on_c, 0, 57, 34
2, 30960, Note_on_c, 0, 66, 41
2, 32160, Note_on_c, 0, 66, 0
2, 32160, Note_on_c, 0, 57, 0
2, 32160, Note_on_c, 0, 62, 0
2, 32160, Note_on_c, 0, 59, 48
2, 32160, Note_on_c, 0, 62, 48
2, 32160, Note_on_c, 0, 67, 57
2, 32400, Note_on_c, 0, 67, 0
2, 32400, Note_on_c, 0, 62, 0
2, 32400, Note_on_c, 0, 59, 0
2, 32400, Note_on_c, 0, 65, 56
2, 32400, Note_on_c, 0, 74, 66
2, 32880, Note_on_c, 0, 74, 0
2, 32880, Note_on_c, 0, 65, 0
2, 32880, Note_on_c, 0, 65, 57
2, 32880, Note_on_c, 0, 74, 67
2, 33120, Note_on_c, 0, 74, 0
2, 33120, Note_on_c, 0, 65, 0
2, 33120, Note_on_c, 0, 64, 57
2, 33120, Note_on_c, 0, 65, 62
2, 33120, Note_on_c, 0, 72, 69
2, 33600, Note_on_c, 0, 72, 0
2, 33600, Note_on_c, 0, 65, 0
2, 33600, Note_on_c, 0, 64, 0
2, 33600, Note_on_c, 0, 62, 54
2, 33600, Note_on_c, 0, 65, 54
2, 33600, Note_on_c, 0, 71, 64
2, 33840, Note_on_c, 0, 71, 0
2, 33840, Note_on_c, 0, 65, 0
2, 33840, Note_on_c, 0, 62, 0
2, 33840, Note_on_c, 0, 60, 47
2, 33840, Note_on_c, 0, 64, 47
2, 33840, Note_on_c, 0, 69, 56
2, 34320, Note_on_c, 0, 69, 0
2, 34320, Note_on_c, 0, 64, 0
2, 34320, Note_on_c, 0, 60, 0
2, 34320, Note_on_c, 0, 59, 38
2, 34320, Note_on_c, 0, 62, 38
2, 34320, Note_on_c, 0, 64, 38
2, 34320, Note_on_c, 0, 68, 45
2, 34548, Note_on_c, 0, 68, 0
2, 34548, Note_on_c, 0, 59, 0
2, 34548, Note_on_c, 0, 62, 0
2, 34548, Note_on_c, 0, 64, 0
2, 34560, Note_on_c, 0, 59, 39
2, 34560, Note_on_c, 0, 62, 39
2, 34560, Note_on_c, 0, 64, 39
2, 34560, Note_on_c, 0, 68, 46
2, 35280, Note_on_c, 0, 68, 0
2, 35280, Note_on_c, 0, 59, 0
2, 35280, Note_on_c, 0, 62, 0
2, 35280, Note_on_c, 0, 60, 34
2, 35280, Note_on_c, 0, 69, 41
2, 35760, Note_on_c, 0, 69, 0
2, 35760, Note_on_c, 0, 60, 0
2, 35760, Note_on_c, 0, 64, 0
2, 35760, Note_on_c, 0, 64, 34
2, 35760, Note_on_c, 0, 72, 41
2, 36000, Note_on_c, 0, 72, 0
2, 36000, Note_on_c, 0, 64, 0
2, 36000, Note_on_c, 0, 62, 39
2, 36000, Note_on_c, 0, 71, 46
2, 36480, Note_on_c, 0, 71, 0
2, 36480, Note_on_c, 0, 62, 0
2, 36480, Note_on_c, 0, 64, 34
2, 36480, Note_on_c, 0, 72, 41
2, 36720, Note_on_c, 0, 72, 0
2, 36720, Note_on_c, 0, 64, 0
2, 36720, Note_on_c, 0, 67, 39
2, 36720, Note_on_c, 0, 76, 46
2, 37200, Note_on_c, 0, 76, 0
2, 37200, Note_on_c, 0, 65, 34
2, 37200, Note_on_c, 0, 74, 41
2, 37440, Note_on_c, 0, 74, 0
2, 37440, Note_on_c, 0, 65, 0
2, 37440, Note_on_c, 0, 62, 35
2, 37440, Note_on_c, 0, 71, 42
2, 37920, Note_on_c, 0, 67, 0
2, 37920, Note_on_c, 0, 67, 39
2, 38160, Note_on_c, 0, 67, 0
2, 38160, Note_on_c, 0, 67, 44
2, 38640, Note_on_c, 0, 67, 0
2, 38640, Note_on_c, 0, 71, 0
2, 38640, Note_on_c, 0, 62, 0
2, 38640, Note_on_c, 0, 64, 40
2, 38640, Note_on_c, 0, 67, 40
2, 38640, Note_on_c, 0, 72, 48
2, 38880, Note_on_c, 0, 72, 0
2, 38880, Note_on_c, 0, 67, 0
2, 38880, Note_on_c, 0, 64, 0
2, 38880, Note_on_c, 0, 67, 44
2, 38880, Note_on_c, 0, 76, 52
2, 39360, Note_on_c, 0, 76, 0
2, 39360, Note_on_c, 0, 65, 41
2, 39360, Note_on_c, 0, 74, 49
2, 39600, Note_on_c, 0, 74, 0
2, 39600, Note_on_c, 0, 65, 0
2, 39600, Note_on_c, 0, 62, 41
2, 39600, Note_on_c, 0, 71, 50
2, 40080, Note_on_c, 0, 67, 0
2, 40080, Note_on_c, 0, 67, 48
2, 40320, Note_on_c, 0, 67, 0
2, 40320, Note_on_c, 0, 67, 54
2, 40800, Note_on_c, 0, 67, 0
2, 40800, Note_on_c, 0, 71, 0
2, 40800, Note_on_c, 0, 62, 0
2, 40800, Note_on_c, 0, 64, 64
2, 40800, Note_on_c, 0, 67, 64
2, 40800, Note_on_c, 0, 72, 76
2, 41040, Note_on_c, 0, 72, 0
2, 41040, Note_on_c, 0, 67, 0
2, 41040, Note_on_c, 0, 64, 0
2, 41040, Note_on_c, 0, 76, 66
2, 41040, Note_on_c, 0, 79, 77
2, 41520, Note_on_c, 0, 79, 0
2, 41520, Note_on_c, 0, 76, 0
2, 41520, Note_on_c, 0, 74, 67
2, 41520, Note_on_c, 0, 78, 78
2, 41760, Note_on_c, 0, 78, 0
2, 41760, Note_on_c, 0, 74, 0
2, 41760, Note_on_c, 0, 72, 69
2, 41760, Note_on_c, 0, 76, 76
2, 42240, Note_on_c, 0, 76, 0
2, 42240, Note_on_c, 0, 72, 0
2, 42240, Note_on_c, 0, 71, 61
2, 42240, Note_on_c, 0, 74, 74
2, 42480, Note_on_c, 0, 74, 0
2, 42480, Note_on_c, 0, 71, 0
2, 42480, Note_on_c, 0, 69, 58
2, 42480, Note_on_c, 0, 72, 70
2, 42960, Note_on_c, 0, 72, 0
2, 42960, Note_on_c, 0, 69, 0
2, 42960, Note_on_c, 0, 67, 39
2, 42960, Note_on_c, 0, 71, 47
2, 43200, Note_on_c, 0, 71, 0
2, 43200, Note_on_c, 0, 67, 0
2, 43200, Note_on_c, 0, 71, 39
2, 43200, Note_on_c, 0, 74, 46
2, 43920, Note_on_c, 0, 74, 0
2, 43920, Note_on_c, 0, 71, 0
2, 43920, Note_on_c, 0, 66, 34
2, 43920, Note_on_c, 0, 69, 41
2, 44400, Note_on_c, 0, 69, 0
2, 44400, Note_on_c, 0, 66, 0
2, 44400, Note_on_c, 0, 60, 39
2, 44400, Note_on_c, 0, 62, 54
2, 44640, Note_on_c, 0, 62, 0
2, 44640, Note_on_c, 0, 60, 0
2, 44640, Note_on_c, 0, 59, 48
2, 44640, Note_on_c, 0, 62, 48
2, 44640, Note_on_c, 0, 67, 57
2, 45120, Note_on_c, 0, 67, 0
2, 45120, Note_on_c, 0, 62, 0
2, 45120, Note_on_c, 0, 59, 0
2, 45120, Note_on_c, 0, 57, 48
2, 45120, Note_on_c, 0, 62, 48
2, 45120, Note_on_c, 0, 66, 57
2, 45360, Note_on_c, 0, 66, 0
2, 45360, Note_on_c, 0, 62, 0
2, 45360, Note_on_c, 0, 57, 0
2, 45360, Note_on_c, 0, 60, 48
2, 45360, Note_on_c, 0, 62, 48
2, 45360, Note_on_c, 0, 69, 57
2, 46560, Note_on_c, 0, 69, 0
2, 46560, Note_on_c, 0, 62, 0
2, 46560, Note_on_c, 0, 60, 0
2, 46560, Note_on_c, 0, 59, 51
2, 46560, Note_on_c, 0, 62, 51
2, 46560, Note_on_c, 0, 67, 62
2, 46800, Note_on_c, 0, 67, 0
2, 46800, Note_on_c, 0, 62, 0
2, 46800, Note_on_c, 0, 59, 0
2, 46800, Note_on_c, 0, 64, 57
2, 46800, Note_on_c, 0, 67, 57
2, 46800, Note_on_c, 0, 72, 67
2, 47280, Note_on_c, 0, 72, 0
2, 47280, Note_on_c, 0, 67, 0
2, 47280, Note_on_c, 0, 64, 0
2, 47280, Note_on_c, 0, 62, 52
2, 47280, Note_on_c, 0, 67, 52
2, 47280, Note_on_c, 0, 71, 62
2, 47520, Note_on_c, 0, 71, 0
2, 47520, Note_on_c, 0, 67, 0
2, 47520, Note_on_c, 0, 62, 0
2, 47520, Note_on_c, 0, 64, 56
2, 47520, Note_on_c, 0, 67, 56
2, 47520, Note_on_c, 0, 76, 66
2, 48720, Note_on_c, 0, 76, 0
2, 48720, Note_on_c, 0, 67, 0
2, 48720, Note_on_c, 0, 64, 0
2, 48720, Note_on_c, 0, 67, 54
2, 48720, Note_on_c, 0, 74, 65
2, 48960, Note_on_c, 0, 74, 0
2, 48960, Note_on_c, 0, 67, 0
2, 48960, Note_on_c, 0, 67, 58
2, 48960, Note_on_c, 0, 64, 58
2, 48960, Note_on_c, 0, 74, 69
2, 49440, Note_on_c, 0, 74, 0
2, 49440, Note_on_c, 0, 64, 0
2, 49440, Note_on_c, 0, 67, 0
2, 49440, Note_on_c, 0, 66, 54
2, 49440, Note_on_c, 0, 74, 65
2, 49680, Note_on_c, 0, 74, 0
2, 49680, Note_on_c, 0, 66, 0
2, 49680, Note_on_c, 0, 67, 59
2, 49680, Note_on_c, 0, 79, 74
2, 50160, Note_on_c, 0, 79, 0
2, 50160, Note_on_c, 0, 74, 64
2, 50400, Note_on_c, 0, 74, 0
2, 50400, Note_on_c, 0, 71, 64
2, 50880, Note_on_c, 0, 71, 0
2, 50880, Note_on_c, 0, 67, 0
2, 50880, Note_on_c, 0, 62, 45
2, 50880, Note_on_c, 0, 67, 53
2, 51060, Note_on_c, 0, 67, 0
2, 51060, Note_on_c, 0, 62, 0
2, 51060, Note_on_c, 0, 69, 49
2, 51120, Note_on_c, 0, 69, 0
2, 51120, Note_on_c, 0, 61, 44
2, 51120, Note_on_c, 0, 67, 52
2, 51360, Note_on_c, 0, 67, 0
2, 51360, Note_on_c, 0, 66, 49
2, 51600, Note_on_c, 0, 66, 0
2, 51600, Note_on_c, 0, 61, 0
2, 51600, Note_on_c, 0, 61, 39
2, 51600, Note_on_c, 0, 67, 47
2, 51840, Note_on_c, 0, 67, 0
2, 51840, Note_on_c, 0, 61, 0
2, 51840, Note_on_c, 0, 62, 44
2, 51840, Note_on_c, 0, 71, 50
2, 52560, Note_on_c, 0, 71, 0
2, 52560, Note_on_c, 0, 69, 49
2, 53040, Note_on_c, 0, 69, 0
2, 53040, Note_on_c, 0, 62, 0
2, 53040, Note_on_c, 0, 62, 44
2, 53040, Note_on_c, 0, 69, 52
2, 53280, Note_on_c, 0, 69, 0
2, 53280, Note_on_c, 0, 62, 0
2, 53280, Note_on_c, 0, 62, 47
2, 53280, Note_on_c, 0, 71, 56
2, 53760, Note_on_c, 0, 71, 0
2, 53760, Note_on_c, 0, 62, 0
2, 53760, Note_on_c, 0, 62, 45
2, 53760, Note_on_c, 0, 72, 57
2, 54000, Note_on_c, 0, 72, 0
2, 54000, Note_on_c, 0, 62, 0
2, 54000, Note_on_c, 0, 62, 49
2, 54000, Note_on_c, 0, 76, 61
2, 54480, Note_on_c, 0, 76, 0
2, 54480, Note_on_c, 0, 74, 53
2, 54720, Note_on_c, 0, 74, 0
2, 54720, Note_on_c, 0, 71, 53
2, 55200, Note_on_c, 0, 71, 0
2, 55200, Note_on_c, 0, 62, 0
2, 55200, Note_on_c, 0, 62, 46
2, 55200, Note_on_c, 0, 69, 54
2, 55440, Note_on_c, 0, 69, 0
2, 55440, Note_on_c, 0, 62, 0
2, 55440, Note_on_c, 0, 62, 49
2, 55440, Note_on_c, 0, 71, 58
2, 55920, Note_on_c, 0, 71, 0
2, 55920, Note_on_c, 0, 62, 0
2, 55920, Note_on_c, 0, 62, 47
2, 55920, Note_on_c, 0, 72, 59
2, 56160, Note_on_c, 0, 72, 0
2, 56160, Note_on_c, 0, 62, 0
2, 56160, Note_on_c, 0, 62, 51
2, 56160, Note_on_c, 0, 76, 64
2, 56640, Note_on_c, 0, 76, 0
2, 56640, Note_on_c, 0, 74, 55
2, 56880, Note_on_c, 0, 74, 0
2, 56880, Note_on_c, 0, 71, 55
2, 57360, Note_on_c, 0, 71, 0
2, 57360, Note_on_c, 0, 62, 0
2, 57360, Note_on_c, 0, 67, 71
2, 57600, Note_on_c, 0, 67, 0
2, 57600, Note_on_c, 0, 69, 63
2, 57600, Note_on_c, 0, 76, 68
2, 57600, Note_on_c, 0, 67, 63
2, 57600, Note_on_c, 0, 79, 78
2, 58080, Note_on_c, 0, 79, 0
2, 58080, Note_on_c, 0, 69, 0
2, 58080, Note_on_c, 0, 76, 0
2, 58080, Note_on_c, 0, 67, 0
2, 58080, Note_on_c, 0, 69, 58
2, 58080, Note_on_c, 0, 76, 64
2, 58080, Note_on_c, 0, 67, 58
2, 58080, Note_on_c, 0, 79, 75
2, 58320, Note_on_c, 0, 79, 0
2, 58320, Note_on_c, 0, 69, 0
2, 58320, Note_on_c, 0, 76, 0
2, 58320, Note_on_c, 0, 67, 0
2, 58320, Note_on_c, 0, 67, 64
2, 58320, Note_on_c, 0, 74, 69
2, 58320, Note_on_c, 0, 79, 80
2, 59040, Note_on_c, 0, 79, 0
2, 59040, Note_on_c, 0, 74, 0
2, 59040, Note_on_c, 0, 67, 0
2, 59040, Note_on_c, 0, 71, 55
2, 59040, Note_on_c, 0, 74, 67
2, 59520, Note_on_c, 0, 74, 0
2, 59520, Note_on_c, 0, 71, 0
2, 59520, Note_on_c, 0, 67, 45
2, 59520, Note_on_c, 0, 71, 53
2, 59760, Note_on_c, 0, 71, 0
2, 59760, Note_on_c, 0, 67, 0
2, 59760, Note_on_c, 0, 66, 47
2, 59760, Note_on_c, 0, 72, 55
2, 60000, Note_on_c, 0, 72, 0
2, 60000, Note_on_c, 0, 76, 50
2, 60240, Note_on_c, 0, 76, 0
2, 60240, Note_on_c, 0, 74, 50
2, 60480, Note_on_c, 0, 74, 0
2, 60480, Note_on_c, 0, 66, 0
2, 60480, Note_on_c, 0, 66, 47
2, 60480, Note_on_c, 0, 72, 55
2, 61200, Note_on_c, 0, 72, 0
2, 61200, Note_on_c, 0, 66, 0
2, 61200, Note_on_c, 0, 67, 46
2, 61200, Note_on_c, 0, 71, 53
2, 61680, Note_on_c, 0, 71, 0
2, 61680, Note_on_c, 0, 67, 0
2, 61680, Note_on_c, 0, 62, 44
2, 61680, Note_on_c, 0, 69, 52
2, 61908, Note_on_c, 0, 69, 0
2, 61908, Note_on_c, 0, 62, 0
2, 61920, Note_on_c, 0, 62, 47
2, 61920, Note_on_c, 0, 69, 56
2, 62160, Note_on_c, 0, 69, 0
2, 62160, Note_on_c, 0, 62, 0
2, 62160, Note_on_c, 0, 62, 47
2, 62160, Note_on_c, 0, 71, 56
2, 62400, Note_on_c, 0, 71, 0
2, 62400, Note_on_c, 0, 62, 0
2, 62400, Note_on_c, 0, 62, 45
2, 62400, Note_on_c, 0, 72, 57
2, 62640, Note_on_c, 0, 72, 0
2, 62640, Note_on_c, 0, 62, 0
2, 62640, Note_on_c, 0, 62, 51
2, 62640, Note_on_c, 0, 76, 64
2, 63120, Note_on_c, 0, 76, 0
2, 63120, Note_on_c, 0, 74, 55
2, 63360, Note_on_c, 0, 74, 0
2, 63360, Note_on_c, 0, 71, 55
2, 63600, Note_on_c, 0, 71, 0
2, 63600, Note_on_c, 0, 62, 0
2, 63600, Note_on_c, 0, 62, 44
2, 63600, Note_on_c, 0, 69, 54
2, 63840, Note_on_c, 0, 69, 0
2, 63840, Note_on_c, 0, 62, 0
2, 63840, Note_on_c, 0, 62, 45
2, 63840, Note_on_c, 0, 68, 56
2, 64080, Note_on_c, 0, 68, 0
2, 64080, Note_on_c, 0, 62, 0
2, 64080, Note_on_c, 0, 62, 51
2, 64080, Note_on_c, 0, 69, 60
2, 64320, Note_on_c, 0, 69, 0
2, 64320, Note_on_c, 0, 62, 0
2, 64320, Note_on_c, 0, 62, 51
2, 64320, Note_on_c, 0, 71, 60
2, 64560, Note_on_c, 0, 71, 0
2, 64560, Note_on_c, 0, 62, 0
2, 64560, Note_on_c, 0, 62, 49
2, 64560, Note_on_c, 0, 72, 61
2, 64800, Note_on_c, 0, 72, 0
2, 64800, Note_on_c, 0, 62, 0
2, 64800, Note_on_c, 0, 62, 53
2, 64800, Note_on_c, 0, 76, 67
2, 65280, Note_on_c, 0, 76, 0
2, 65280, Note_on_c, 0, 74, 57
2, 65520, Note_on_c, 0, 74, 0
2, 65520, Note_on_c, 0, 71, 57
2, 66000, Note_on_c, 0, 71, 0
2, 66000, Note_on_c, 0, 62, 0
2, 66000, Note_on_c, 0, 67, 71
2, 66240, Note_on_c, 0, 67, 0
2, 66240, Note_on_c, 0, 69, 63
2, 66240, Note_on_c, 0, 76, 68
2, 66240, Note_on_c, 0, 67, 63
2, 66240, Note_on_c, 0, 79, 78
2, 66720, Note_on_c, 0, 79, 0
2, 66720, Note_on_c, 0, 69, 0
2, 66720, Note_on_c, 0, 76, 0
2, 66720, Note_on_c, 0, 67, 0
2, 66720, Note_on_c, 0, 69, 58
2, 66720, Note_on_c, 0, 76, 64
2, 66720, Note_on_c, 0, 67, 58
2, 66720, Note_on_c, 0, 79, 75
2, 66960, Note_on_c, 0, 79, 0
2, 66960, Note_on_c, 0, 69, 0
2, 66960, Note_on_c, 0, 76, 0
2, 66960, Note_on_c, 0, 67, 0
2, 66960, Note_on_c, 0, 67, 64
2, 66960, Note_on_c, 0, 71, 69
2, 66960, Note_on_c, 0, 79, 80
2, 67680, Note_on_c, 0, 79, 0
2, 67680, Note_on_c, 0, 71, 0
2, 67680, Note_on_c, 0, 67, 0
2, 67680, Note_on_c, 0, 71, 57
2, 67680, Note_on_c, 0, 74, 70
2, 68160, Note_on_c, 0, 74, 0
2, 68160, Note_on_c, 0, 71, 0
2, 68160, Note_on_c, 0, 83, 72
2, 68400, Note_on_c, 0, 83, 0
2, 68400, Note_on_c, 0, 79, 70
2, 68880, Note_on_c, 0, 79, 0
2, 68880, Note_on_c, 0, 74, 68
2, 68880, Note_on_c, 0, 78, 68
2, 69120, Note_on_c, 0, 78, 0
2, 69120, Note_on_c, 0, 74, 0
2, 69120, Note_on_c, 0, 72, 66
2, 69120, Note_on_c, 0, 76, 66
2, 69600, Note_on_c, 0, 76, 0
2, 69600, Note_on_c, 0, 72, 0
2, 69600, Note_on_c, 0, 71, 64
2, 69600, Note_on_c, 0, 74, 64
2, 69840, Note_on_c, 0, 74, 0
2, 69840, Note_on_c, 0, 71, 0
2, 69840, Note_on_c, 0, 67, 60
2, 69840, Note_on_c, 0, 72, 60
2, 70320, Note_on_c, 0, 72, 0
2, 70320, Note_on_c, 0, 67, 0
2, 70320, Note_on_c, 0, 67, 61
2, 70320, Note_on_c, 0, 71, 61
2, 70560, Note_on_c, 0, 71, 0
2, 70560, Note_on_c, 0, 67, 0
2, 70560, Note_on_c, 0, 64, 58
2, 70560, Note_on_c, 0, 67, 58
2, 70560, Note_on_c, 0, 69, 58
2, 71040, Note_on_c, 0, 69, 0
2, 71040, Note_on_c, 0, 67, 0
2, 71040, Note_on_c, 0, 64, 0
2, 71040, Note_on_c, 0, 76, 58
2, 71268, Note_on_c, 0, 76, 0
2, 71280, Note_on_c, 0, 76, 58
2, 72000, Note_on_c, 0, 76, 0
2, 72000, Note_on_c, 0, 69, 52
2, 72480, Note_on_c, 0, 69, 0
2, 72720, Note_on_c, 0, 72, 52
2, 72720, Note_on_c, 0, 66, 44
2, 73200, Note_on_c, 0, 66, 0
2, 73200, Note_on_c, 0, 72, 0
2, 73200, Note_on_c, 0, 66, 41
2, 73200, Note_on_c, 0, 71, 49
2, 73440, Note_on_c, 0, 71, 0
2, 73440, Note_on_c, 0, 66, 0
2, 73440, Note_on_c, 0, 66, 41
2, 73440, Note_on_c, 0, 69, 49
2, 74640, Note_on_c, 0, 66, 0
2, 74640, Note_on_c, 0, 59, 46
2, 74640, Note_on_c, 0, 62, 55
2, 74880, Note_on_c, 0, 62, 0
2, 74880, Note_on_c, 0, 59, 0
2, 74880, Note_on_c, 0, 69, 0
2, 74880, Note_on_c, 0, 67, 60
2, 74880, Note_on_c, 0, 59, 49
2, 74880, Note_on_c, 0, 62, 59
2, 75120, Note_on_c, 0, 62, 0
2, 75120, Note_on_c, 0, 59, 0
2, 75120, Note_on_c, 0, 55, 55
2, 75360, Note_on_c, 0, 55, 0
2, 75360, Note_on_c, 0, 67, 0
2, 75360, Note_on_c, 0, 62, 50
2, 75360, Note_on_c, 0, 67, 50
2, 75360, Note_on_c, 0, 71, 59
2, 75588, Note_on_c, 0, 71, 0
2, 75588, Note_on_c, 0, 67, 0
2, 75588, Note_on_c, 0, 62, 0
2, 75600, Note_on_c, 0, 62, 52
2, 75600, Note_on_c, 0, 67, 52
2, 75600, Note_on_c, 0, 71, 63
2, 76320, Note_on_c, 0, 71, 0
2, 76320, Note_on_c, 0, 67, 0
2, 76320, Note_on_c, 0, 62, 0
2, 76320, Note_on_c, 0, 59, 41
2, 76320, Note_on_c, 0, 67, 49
2, 76800, Note_on_c, 0, 67, 0
2, 76800, Note_on_c, 0, 59, 0
2, 76800, Note_on_c, 0, 62, 52
2, 76800, Note_on_c, 0, 71, 62
2, 77040, Note_on_c, 0, 71, 0
2, 77040, Note_on_c, 0, 62, 0
2, 77040, Note_on_c, 0, 62, 53
2, 77040, Note_on_c, 0, 71, 64
2, 77280, Note_on_c, 0, 71, 0
2, 77280, Note_on_c, 0, 62, 0
2, 77280, Note_on_c, 0, 59, 50
2, 77280, Note_on_c, 0, 67, 60
2, 77520, Note_on_c, 0, 67, 0
2, 77520, Note_on_c, 0, 59, 0
2, 77520, Note_on_c, 0, 71, 57
2, 77520, Note_on_c, 0, 74, 57
2, 77520, Note_on_c, 0, 79, 69
2, 77748, Note_on_c, 0, 79, 0
2, 77748, Note_on_c, 0, 74, 0
2, 77748, Note_on_c, 0, 71, 0
2, 77760, Note_on_c, 0, 71, 59
2, 77760, Note_on_c, 0, 74, 59
2, 77760, Note_on_c, 0, 79, 71
2, 78480, Note_on_c, 0, 79, 0
2, 78480, Note_on_c, 0, 74, 0
2, 78480, Note_on_c, 0, 71, 0
2, 78480, Note_on_c, 0, 67, 45
2, 78480, Note_on_c, 0, 71, 45
2, 78480, Note_on_c, 0, 74, 54
2, 78960, Note_on_c, 0, 74, 0
2, 78960, Note_on_c, 0, 71, 0
2, 78960, Note_on_c, 0, 67, 0
2, 78960, Note_on_c, 0, 79, 65
2, 78960, Note_on_c, 0, 86, 77
2, 79200, Note_on_c, 0, 86, 0
2, 79200, Note_on_c, 0, 79, 0
2, 79200, Note_on_c, 0, 79, 70
2, 79200, Note_on_c, 0, 86, 82
2, 79440, Note_on_c, 0, 86, 0
2, 79440, Note_on_c, 0, 79, 0
2, 79440, Note_on_c, 0, 74, 61
2, 79440, Note_on_c, 0, 83, 73
2, 79680, Note_on_c, 0, 83, 0
2, 79680, Note_on_c, 0, 74, 0
2, 79680, Note_on_c, 0, 71, 61
2, 79680, Note_on_c, 0, 79, 73
2, 79908, Note_on_c, 0, 79, 0
2, 79908, Note_on_c, 0, 71, 0
2, 79920, Note_on_c, 0, 71, 63
2, 79920, Note_on_c, 0, 79, 76
2, 80160, Note_on_c, 0, 79, 0
2, 80160, Note_on_c, 0, 71, 0
2, 80160, Note_on_c, 0, 67, 55
2, 80160, Note_on_c, 0, 74, 66
2, 80400, Note_on_c, 0, 74, 0
2, 80400, Note_on_c, 0, 67, 0
2, 80400, Note_on_c, 0, 62, 55
2, 80400, Note_on_c, 0, 71, 66
2, 80640, Note_on_c, 0, 71, 0
2, 80640, Note_on_c, 0, 62, 0
2, 80640, Note_on_c, 0, 67, 61
2, 80640, Note_on_c, 0, 74, 73
2, 81360, Note_on_c, 0, 74, 0
2, 81360, Note_on_c, 0, 67, 0
2, 81360, Note_on_c, 0, 60, 38
2, 81360, Note_on_c, 0, 62, 38
2, 81360, Note_on_c, 0, 66, 38
2, 81360, Note_on_c, 0, 69, 45
2, 81840, Note_on_c, 0, 69, 0
2, 81840, Note_on_c, 0, 60, 0
2, 81840, Note_on_c, 0, 62, 0
2, 81840, Note_on_c, 0, 66, 0
2, 81840, Note_on_c, 0, 71, 44
2, 82080, Note_on_c, 0, 71, 0
2, 82080, Note_on_c, 0, 59, 36
2, 82080, Note_on_c, 0, 62, 36
2, 82080, Note_on_c, 0, 67, 43
2, 83280, Note_on_c, 0, 67, 0
2, 83280, Note_on_c, 0, 62, 0
2, 83280, Note_on_c, 0, 59, 0
2, 83280, End_track
3, 0, Start_track
3, 0, Title_t, "Piano left"
3, 0, Program_c, 0, 0
3, 0, Control_c, 0, 7, 127
3, 0, Control_c, 0, 10, 64
3, 0, Control_c, 0, 64, 0
3, 0, Text_t, "bdca426d104a26ac9dcb070447587523"
3, 1440, Note_on_c, 0, 31, 34
3, 1440, Note_on_c, 0, 43, 40
3, 1454, Control_c, 0, 64, 127
3, 1920, Note_on_c, 0, 43, 0
3, 1920, Note_on_c, 0, 31, 0
3, 2160, Note_on_c, 0, 31, 35
3, 2160, Note_on_c, 0, 43, 42
3, 3360, Note_on_c, 0, 43, 0
3, 3360, Note_on_c, 0, 31, 0
3, 3600, Note_on_c, 0, 31, 34
3, 3600, Note_on_c, 0, 43, 40
3, 4080, Note_on_c, 0, 43, 0
3, 4080, Note_on_c, 0, 31, 0
3, 4320, Note_on_c, 0, 31, 40
3, 4320, Note_on_c, 0, 43, 48
3, 5520, Note_on_c, 0, 43, 0
3, 5520, Note_on_c, 0, 31, 0
3, 5520, Note_on_c, 0, 71, 53
3, 5760, Note_on_c, 0, 71, 0
3, 5760, Note_on_c, 0, 71, 56
3, 6000, Note_on_c, 0, 71, 0
3, 6000, Note_on_c, 0, 67, 52
3, 6240, Note_on_c, 0, 67, 0
3, 6240, Note_on_c, 0, 62, 52
3, 6480, Note_on_c, 0, 62, 0
3, 6480, Note_on_c, 0, 62, 57
3, 6720, Note_on_c, 0, 62, 0
3, 6720, Note_on_c, 0, 59, 51
3, 6960, Note_on_c, 0, 59, 0
3, 6960, Note_on_c, 0, 55, 51
3, 7200, Note_on_c, 0, 55, 0
3, 7200, Note_on_c, 0, 50, 46
3, 7200, Note_on_c, 0, 59, 54
3, 7920, Note_on_c, 0, 59, 0
3, 7920, Note_on_c, 0, 50, 0
3, 7920, Note_on_c, 0, 38, 32
3, 7920, Note_on_c, 0, 50, 38
3, 7930, Control_c, 0, 64, 0
3, 8061, Control_c, 0, 64, 127
3, 8400, Note_on_c, 0, 50, 0
3, 8400, Note_on_c, 0, 38, 0
3, 8640, Note_on_c, 0, 31, 28
3, 8640, Note_on_c, 0, 43, 33
3, 8648, Control_c, 0, 64, 0
3, 8866, Control_c, 0, 64, 127
3, 9120, Note_on_c, 0, 43, 0
3, 9120, Note_on_c, 0, 31, 0
3, 9699, Control_c, 0, 64, 0
3, 9840, Note_on_c, 0, 50, 39
3, 10080, Note_on_c, 0, 50, 0
3, 10080, Note_on_c, 0, 47, 35
3, 10080, Note_on_c, 0, 50, 35
3, 10080, Note_on_c, 0, 55, 43
3, 10108, Control_c, 0, 64, 127
3, 10560, Note_on_c, 0, 55, 0
3, 10560, Note_on_c, 0, 50, 0
3, 10560, Note_on_c, 0, 47, 0
3, 10560, Note_on_c, 0, 45, 32
3, 10560, Note_on_c, 0, 50, 32
3, 10560, Note_on_c, 0, 54, 38
3, 10570, Control_c, 0, 64, 0
3, 10800, Note_on_c, 0, 54, 0
3, 10800, Note_on_c, 0, 50, 0
3, 10800, Note_on_c, 0, 45, 0
3, 10800, Note_on_c, 0, 48, 35
3, 10800, Note_on_c, 0, 50, 35
3, 10800, Note_on_c, 0, 57, 43
3, 12000, Note_on_c, 0, 57, 0
3, 12000, Note_on_c, 0, 50, 0
3, 12000, Note_on_c, 0, 48, 0
3, 12000, Note_on_c, 0, 47, 35
3, 12000, Note_on_c, 0, 50, 35
3, 12000, Note_on_c, 0, 55, 43
3, 12240, Note_on_c, 0, 55, 0
3, 12240, Note_on_c, 0, 50, 0
3, 12240, Note_on_c, 0, 47, 0
3, 12240, Note_on_c, 0, 52, 38
3, 12240, Note_on_c, 0, 55, 38
3, 12240, Note_on_c, 0, 60, 46
3, 12339, Control_c, 0, 64, 127
3, 12720, Note_on_c, 0, 60, 0
3, 12720, Note_on_c, 0, 55, 0
3, 12720, Note_on_c, 0, 52, 0
3, 12720, Note_on_c, 0, 50, 35
3, 12720, Note_on_c, 0, 55, 35
3, 12720, Note_on_c, 0, 59, 43
3, 12730, Control_c, 0, 64, 0
3, 12960, Note_on_c, 0, 59, 0
3, 12960, Note_on_c, 0, 55, 0
3, 12960, Note_on_c, 0, 50, 0
3, 12960, Note_on_c, 0, 60, 47
3, 14160, Note_on_c, 0, 60, 0
3, 14160, Note_on_c, 0, 62, 47
3, 14160, Note_on_c, 0, 59, 39
3, 14312, Control_c, 0, 64, 127
3, 14388, Note_on_c, 0, 59, 0
3, 14388, Note_on_c, 0, 62, 0
3, 14400, Note_on_c, 0, 62, 49
3, 14400, Note_on_c, 0, 59, 40
3, 14880, Note_on_c, 0, 59, 0
3, 14880, Note_on_c, 0, 62, 0
3, 14880, Note_on_c, 0, 62, 48
3, 14880, Note_on_c, 0, 60, 40
3, 14880, Note_on_c, 0, 57, 40
3, 15120, Note_on_c, 0, 57, 0
3, 15120, Note_on_c, 0, 60, 0
3, 15120, Note_on_c, 0, 62, 0
3, 15120, Note_on_c, 0, 55, 44
3, 15120, Note_on_c, 0, 62, 52
3, 15120, Note_on_c, 0, 59, 44
3, 15124, Control_c, 0, 64, 0
3, 15275, Control_c, 0, 64, 127
3, 16320, Note_on_c, 0, 59, 0
3, 16320, Note_on_c, 0, 62, 0
3, 16320, Note_on_c, 0, 55, 0
3, 16320, Note_on_c, 0, 55, 33
3, 16320, Note_on_c, 0, 59, 39
3, 16330, Control_c, 0, 64, 0
3, 16560, Note_on_c, 0, 59, 0
3, 16560, Note_on_c, 0, 55, 0
3, 16560, Note_on_c, 0, 52, 36
3, 16560, Note_on_c, 0, 55, 44
3, 17040, Note_on_c, 0, 55, 0
3, 17040, Note_on_c, 0, 52, 0
3, 17040, Note_on_c, 0, 52, 28
3, 17040, Note_on_c, 0, 55, 34
3, 17280, Note_on_c, 0, 55, 0
3, 17280, Note_on_c, 0, 52, 0
3, 17280, Note_on_c, 0, 50, 29
3, 17280, Note_on_c, 0, 55, 32
3, 17280, Note_on_c, 0, 59, 39
3, 18000, Note_on_c, 0, 59, 0
3, 18000, Note_on_c, 0, 55, 0
3, 18000, Note_on_c, 0, 54, 27
3, 18000, Note_on_c, 0, 57, 32
3, 18480, Note_on_c, 0, 57, 0
3, 18480, Note_on_c, 0, 54, 0
3, 18480, Note_on_c, 0, 50, 0
3, 18720, Note_on_c, 0, 43, 35
3, 18720, Note_on_c, 0, 50, 43
3, 18748, Control_c, 0, 64, 127
3, 19210, Control_c, 0, 64, 0
3, 19440, Note_on_c, 0, 50, 0
3, 19440, Note_on_c, 0, 43, 0
3, 19440, Note_on_c, 0, 38, 35
3, 19440, Note_on_c, 0, 50, 43
3, 20640, Note_on_c, 0, 50, 0
3, 20640, Note_on_c, 0, 38, 0
3, 20640, Note_on_c, 0, 43, 39
3, 20640, Note_on_c, 0, 50, 49
3, 20880, Note_on_c, 0, 50, 0
3, 20880, Note_on_c, 0, 43, 0
3, 20880, Note_on_c, 0, 52, 43
3, 20880, Note_on_c, 0, 55, 43
3, 20979, Control_c, 0, 64, 127
3, 21360, Note_on_c, 0, 55, 0
3, 21360, Note_on_c, 0, 52, 0
3, 21360, Note_on_c, 0, 50, 39
3, 21360, Note_on_c, 0, 55, 39
3, 21370, Control_c, 0, 64, 0
3, 21600, Note_on_c, 0, 55, 0
3, 21600, Note_on_c, 0, 50, 0
3, 21600, Note_on_c, 0, 48, 46
3, 21600, Note_on_c, 0, 55, 46
3, 21600, Note_on_c, 0, 60, 53
3, 22800, Note_on_c, 0, 60, 0
3, 22800, Note_on_c, 0, 55, 0
3, 22800, Note_on_c, 0, 48, 0
3, 22800, Note_on_c, 0, 47, 44
3, 22800, Note_on_c, 0, 59, 53
3, 22800, Note_on_c, 0, 55, 44
3, 22952, Control_c, 0, 64, 127
3, 23040, Note_on_c, 0, 55, 0
3, 23040, Note_on_c, 0, 59, 0
3, 23040, Note_on_c, 0, 47, 0
3, 23040, Note_on_c, 0, 52, 46
3, 23040, Note_on_c, 0, 62, 55
3, 23040, Note_on_c, 0, 55, 46
3, 23520, Note_on_c, 0, 55, 0
3, 23520, Note_on_c, 0, 62, 0
3, 23520, Note_on_c, 0, 52, 0
3, 23520, Note_on_c, 0, 60, 54
3, 23520, Note_on_c, 0, 55, 46
3, 23520, Note_on_c, 0, 52, 46
3, 23760, Note_on_c, 0, 52, 0
3, 23760, Note_on_c, 0, 55, 0
3, 23760, Note_on_c, 0, 60, 0
3, 23760, Note_on_c, 0, 50, 50
3, 23760, Note_on_c, 0, 59, 59
3, 23760, Note_on_c, 0, 55, 50
3, 23764, Control_c, 0, 64, 0
3, 23915, Control_c, 0, 64, 127
3, 24960, Note_on_c, 0, 55, 0
3, 24960, Note_on_c, 0, 59, 0
3, 24960, Note_on_c, 0, 50, 0
3, 24970, Control_c, 0, 64, 0
3, 25200, Note_on_c, 0, 38, 32
3, 25200, Note_on_c, 0, 50, 39
3, 25920, Note_on_c, 0, 38, 0
3, 25920, Note_on_c, 0, 43, 30
3, 26058, Control_c, 0, 64, 127
3, 26400, Note_on_c, 0, 43, 0
3, 26400, Note_on_c, 0, 50, 0
3, 26400, Control_c, 0, 64, 0
3, 26400, Note_on_c, 0, 50, 32
3, 26580, Note_on_c, 0, 50, 0
3, 26640, Note_on_c, 0, 50, 36
3, 27120, Note_on_c, 0, 50, 0
3, 27120, Note_on_c, 0, 50, 33
3, 27360, Note_on_c, 0, 50, 0
3, 27360, Note_on_c, 0, 50, 36
3, 27529, Control_c, 0, 64, 127
3, 27840, Note_on_c, 0, 50, 0
3, 27840, Note_on_c, 0, 50, 34
3, 28080, Note_on_c, 0, 50, 0
3, 28080, Note_on_c, 0, 38, 30
3, 28080, Note_on_c, 0, 50, 36
3, 28086, Control_c, 0, 64, 0
3, 28221, Control_c, 0, 64, 127
3, 28560, Note_on_c, 0, 50, 0
3, 28560, Note_on_c, 0, 50, 33
3, 28800, Note_on_c, 0, 50, 0
3, 28800, Note_on_c, 0, 50, 36
3, 28810, Control_c, 0, 64, 0
3, 28941, Control_c, 0, 64, 127
3, 29280, Note_on_c, 0, 50, 0
3, 29280, Note_on_c, 0, 38, 0
3, 29280, Control_c, 0, 64, 0
3, 29280, Note_on_c, 0, 38, 27
3, 29280, Note_on_c, 0, 50, 33
3, 29460, Note_on_c, 0, 50, 0
3, 29460, Note_on_c, 0, 38, 0
3, 29520, Note_on_c, 0, 38, 30
3, 29520, Note_on_c, 0, 50, 36
3, 30000, Note_on_c, 0, 50, 0
3, 30000, Note_on_c, 0, 38, 0
3, 30000, Note_on_c, 0, 38, 27
3, 30000, Note_on_c, 0, 50, 33
3, 30240, Note_on_c, 0, 50, 0
3, 30240, Note_on_c, 0, 38, 0
3, 30240, Note_on_c, 0, 38, 30
3, 30240, Note_on_c, 0, 50, 36
3, 30343, Control_c, 0, 64, 127
3, 30720, Note_on_c, 0, 50, 0
3, 30720, Note_on_c, 0, 50, 33
3, 30960, Note_on_c, 0, 50, 0
3, 30960, Note_on_c, 0, 50, 36
3, 30970, Control_c, 0, 64, 0
3, 31115, Control_c, 0, 64, 127
3, 31380, Control_c, 0, 64, 0
3, 31440, Note_on_c, 0, 50, 0
3, 31440, Note_on_c, 0, 38, 0
3, 31440, Note_on_c, 0, 38, 27
3, 31440, Note_on_c, 0, 50, 34
3, 31620, Note_on_c, 0, 50, 0
3, 31620, Note_on_c, 0, 38, 0
3, 31680, Note_on_c, 0, 38, 32
3, 31680, Note_on_c, 0, 50, 37
3, 32160, Note_on_c, 0, 50, 0
3, 32160, Note_on_c, 0, 38, 0
3, 32160, Note_on_c, 0, 38, 29
3, 32160, Note_on_c, 0, 50, 36
3, 32400, Note_on_c, 0, 50, 0
3, 32400, Note_on_c, 0, 38, 0
3, 32400, Note_on_c, 0, 38, 39
3, 32400, Note_on_c, 0, 50, 46
3, 32450, Control_c, 0, 64, 127
3, 32880, Note_on_c, 0, 50, 0
3, 32880, Note_on_c, 0, 50, 40
3, 33120, Note_on_c, 0, 50, 0
3, 33120, Note_on_c, 0, 50, 46
3, 33130, Control_c, 0, 64, 0
3, 33294, Control_c, 0, 64, 127
3, 33600, Note_on_c, 0, 50, 0
3, 33600, Note_on_c, 0, 38, 0
3, 33600, Note_on_c, 0, 38, 34
3, 33600, Note_on_c, 0, 50, 41
3, 33840, Note_on_c, 0, 50, 0
3, 33840, Note_on_c, 0, 38, 0
3, 33840, Note_on_c, 0, 40, 34
3, 33840, Note_on_c, 0, 52, 40
3, 33850, Control_c, 0, 64, 0
3, 34320, Note_on_c, 0, 52, 0
3, 34320, Note_on_c, 0, 40, 0
3, 34320, Note_on_c, 0, 40, 31
3, 34320, Note_on_c, 0, 52, 37
3, 34548, Note_on_c, 0, 52, 0
3, 34548, Note_on_c, 0, 40, 0
3, 34560, Note_on_c, 0, 40, 34
3, 34560, Note_on_c, 0, 52, 40
3, 35280, Note_on_c, 0, 40, 0
3, 35280, Note_on_c, 0, 45, 32
3, 35760, Note_on_c, 0, 45, 0
3, 35760, Note_on_c, 0, 52, 0
3, 35760, Note_on_c, 0, 52, 37
3, 36000, Note_on_c, 0, 52, 0
3, 36000, Note_on_c, 0, 52, 40
3, 36010, Control_c, 0, 64, 0
3, 36169, Control_c, 0, 64, 127
3, 36480, Note_on_c, 0, 52, 0
3, 36480, Note_on_c, 0, 52, 38
3, 36720, Note_on_c, 0, 52, 0
3, 36720, Note_on_c, 0, 43, 34
3, 36720, Note_on_c, 0, 55, 40
3, 36726, Control_c, 0, 64, 0
3, 36861, Control_c, 0, 64, 127
3, 37200, Note_on_c, 0, 55, 0
3, 37200, Note_on_c, 0, 55, 37
3, 37440, Note_on_c, 0, 55, 0
3, 37440, Note_on_c, 0, 55, 41
3, 37450, Control_c, 0, 64, 0
3, 37581, Control_c, 0, 64, 127
3, 37920, Note_on_c, 0, 55, 0
3, 37920, Note_on_c, 0, 43, 0
3, 37920, Control_c, 0, 64, 0
3, 37920, Note_on_c, 0, 43, 32
3, 37920, Note_on_c, 0, 55, 39
3, 38100, Note_on_c, 0, 55, 0
3, 38100, Note_on_c, 0, 43, 0
3, 38160, Note_on_c, 0, 43, 37
3, 38160, Note_on_c, 0, 55, 44
3, 38640, Note_on_c, 0, 55, 0
3, 38640, Note_on_c, 0, 43, 0
3, 38640, Note_on_c, 0, 48, 35
3, 38640, Note_on_c, 0, 55, 42
3, 38880, Note_on_c, 0, 55, 0
3, 38880, Note_on_c, 0, 48, 0
3, 38880, Note_on_c, 0, 43, 39
3, 38880, Note_on_c, 0, 55, 46
3, 38922, Control_c, 0, 64, 127
3, 39360, Note_on_c, 0, 55, 0
3, 39360, Note_on_c, 0, 55, 44
3, 39600, Note_on_c, 0, 55, 0
3, 39600, Note_on_c, 0, 55, 49
3, 39610, Control_c, 0, 64, 0
3, 39755, Control_c, 0, 64, 127
3, 40066, Control_c, 0, 64, 0
3, 40080, Note_on_c, 0, 55, 0
3, 40080, Note_on_c, 0, 43, 0
3, 40080, Note_on_c, 0, 43, 38
3, 40080, Note_on_c, 0, 55, 48
3, 40260, Note_on_c, 0, 55, 0
3, 40260, Note_on_c, 0, 43, 0
3, 40320, Note_on_c, 0, 43, 46
3, 40320, Note_on_c, 0, 55, 54
3, 40800, Note_on_c, 0, 55, 0
3, 40800, Note_on_c, 0, 43, 0
3, 40800, Note_on_c, 0, 48, 44
3, 40800, Note_on_c, 0, 55, 53
3, 41040, Note_on_c, 0, 55, 0
3, 41040, Note_on_c, 0, 48, 0
3, 41040, Note_on_c, 0, 64, 50
3, 41040, Note_on_c, 0, 67, 59
3, 41090, Control_c, 0, 64, 127
3, 41520, Note_on_c, 0, 67, 0
3, 41520, Note_on_c, 0, 64, 0
3, 41520, Note_on_c, 0, 62, 52
3, 41520, Note_on_c, 0, 66, 60
3, 41760, Note_on_c, 0, 66, 0
3, 41760, Note_on_c, 0, 62, 0
3, 41760, Note_on_c, 0, 64, 62
3, 41760, Note_on_c, 0, 60, 54
3, 41770, Control_c, 0, 64, 0
3, 41934, Control_c, 0, 64, 127
3, 42240, Note_on_c, 0, 60, 0
3, 42240, Note_on_c, 0, 64, 0
3, 42240, Note_on_c, 0, 59, 47
3, 42240, Note_on_c, 0, 62, 55
3, 42480, Note_on_c, 0, 62, 0
3, 42480, Note_on_c, 0, 59, 0
3, 42480, Note_on_c, 0, 60, 54
3, 42480, Note_on_c, 0, 57, 46
3, 42490, Control_c, 0, 64, 0
3, 42960, Note_on_c, 0, 57, 0
3, 42960, Note_on_c, 0, 60, 0
3, 42960, Note_on_c, 0, 49, 31
3, 42960, Note_on_c, 0, 59, 37
3, 42960, Note_on_c, 0, 55, 31
3, 43200, Note_on_c, 0, 55, 0
3, 43200, Note_on_c, 0, 59, 0
3, 43200, Note_on_c, 0, 49, 0
3, 43200, Note_on_c, 0, 59, 34
3, 43200, Note_on_c, 0, 62, 40
3, 43200, Note_on_c, 0, 50, 34
3, 43920, Note_on_c, 0, 62, 0
3, 43920, Note_on_c, 0, 59, 0
3, 43920, Note_on_c, 0, 57, 32
3, 43920, Note_on_c, 0, 54, 32
3, 44400, Note_on_c, 0, 54, 0
3, 44400, Note_on_c, 0, 57, 0
3, 44400, Note_on_c, 0, 50, 0
3, 44792, Control_c, 0, 64, 127
3, 45130, Control_c, 0, 64, 0
3, 45840, Note_on_c, 0, 38, 35
3, 45840, Note_on_c, 0, 50, 43
3, 46080, Note_on_c, 0, 50, 0
3, 46080, Note_on_c, 0, 38, 0
3, 46080, Note_on_c, 0, 38, 35
3, 46080, Note_on_c, 0, 50, 43
3, 46800, Note_on_c, 0, 50, 0
3, 46800, Note_on_c, 0, 38, 0
3, 46800, Note_on_c, 0, 38, 41
3, 46800, Note_on_c, 0, 50, 41
3, 46899, Control_c, 0, 64, 127
3, 47290, Control_c, 0, 64, 0
3, 47520, Note_on_c, 0, 38, 0
3, 47520, Note_on_c, 0, 60, 51
3, 48000, Note_on_c, 0, 50, 0
3, 48000, Note_on_c, 0, 50, 53
3, 48240, Note_on_c, 0, 50, 0
3, 48240, Note_on_c, 0, 50, 53
3, 48720, Note_on_c, 0, 60, 0
3, 48720, Note_on_c, 0, 62, 47
3, 48720, Note_on_c, 0, 59, 39
3, 48960, Note_on_c, 0, 59, 0
3, 48960, Note_on_c, 0, 62, 0
3, 48960, Note_on_c, 0, 50, 0
3, 48960, Note_on_c, 0, 50, 40
3, 48960, Note_on_c, 0, 61, 49
3, 48960, Note_on_c, 0, 58, 40
3, 49189, Control_c, 0, 64, 127
3, 49440, Note_on_c, 0, 58, 0
3, 49440, Note_on_c, 0, 61, 0
3, 49440, Note_on_c, 0, 60, 48
3, 49440, Note_on_c, 0, 57, 40
3, 49680, Note_on_c, 0, 57, 0
3, 49680, Note_on_c, 0, 60, 0
3, 49680, Note_on_c, 0, 59, 55
3, 49680, Note_on_c, 0, 55, 55
3, 49684, Control_c, 0, 64, 0
3, 49835, Control_c, 0, 64, 127
3, 50160, Note_on_c, 0, 50, 0
3, 50160, Note_on_c, 0, 50, 55
3, 50400, Note_on_c, 0, 50, 0
3, 50400, Note_on_c, 0, 50, 55
3, 50890, Control_c, 0, 64, 0
3, 51120, Note_on_c, 0, 50, 0
3, 51120, Note_on_c, 0, 55, 0
3, 51120, Note_on_c, 0, 59, 0
3, 51120, Note_on_c, 0, 50, 34
3, 51120, Note_on_c, 0, 52, 34
3, 51120, Note_on_c, 0, 55, 34
3, 51120, Note_on_c, 0, 57, 41
3, 51840, Note_on_c, 0, 57, 0
3, 51840, Note_on_c, 0, 50, 0
3, 51840, Note_on_c, 0, 52, 0
3, 51840, Note_on_c, 0, 55, 0
3, 51840, Note_on_c, 0, 50, 31
3, 51840, Note_on_c, 0, 55, 34
3, 51840, Note_on_c, 0, 59, 41
3, 52560, Note_on_c, 0, 59, 0
3, 52560, Note_on_c, 0, 55, 0
3, 52560, Note_on_c, 0, 54, 28
3, 52560, Note_on_c, 0, 57, 34
3, 53040, Note_on_c, 0, 57, 0
3, 53040, Note_on_c, 0, 54, 0
3, 53040, Note_on_c, 0, 50, 0
3, 53040, Note_on_c, 0, 48, 35
3, 53040, Note_on_c, 0, 54, 46
3, 53280, Note_on_c, 0, 54, 0
3, 53280, Note_on_c, 0, 48, 0
3, 53280, Note_on_c, 0, 48, 36
3, 53280, Note_on_c, 0, 55, 48
3, 53290, Control_c, 0, 64, 0
3, 53449, Control_c, 0, 64, 127
3, 53760, Note_on_c, 0, 55, 0
3, 53760, Note_on_c, 0, 48, 0
3, 53760, Note_on_c, 0, 48, 36
3, 53760, Note_on_c, 0, 57, 49
3, 54000, Note_on_c, 0, 57, 0
3, 54000, Note_on_c, 0, 48, 0
3, 54000, Note_on_c, 0, 47, 44
3, 54000, Note_on_c, 0, 60, 48
3, 54006, Control_c, 0, 64, 0
3, 54141, Control_c, 0, 64, 127
3, 54480, Note_on_c, 0, 60, 0
3, 54480, Note_on_c, 0, 59, 44
3, 54720, Note_on_c, 0, 59, 0
3, 54720, Note_on_c, 0, 55, 44
3, 54730, Control_c, 0, 64, 0
3, 55200, Note_on_c, 0, 55, 0
3, 55200, Note_on_c, 0, 47, 0
3, 55200, Note_on_c, 0, 48, 36
3, 55200, Note_on_c, 0, 54, 48
3, 55440, Note_on_c, 0, 54, 0
3, 55440, Note_on_c, 0, 48, 0
3, 55440, Note_on_c, 0, 48, 37
3, 55440, Note_on_c, 0, 55, 50
3, 55609, Control_c, 0, 64, 127
3, 55920, Note_on_c, 0, 55, 0
3, 55920, Note_on_c, 0, 48, 0
3, 55920, Note_on_c, 0, 48, 37
3, 55920, Note_on_c, 0, 57, 51
3, 56160, Note_on_c, 0, 57, 0
3, 56160, Note_on_c, 0, 48, 0
3, 56160, Note_on_c, 0, 47, 46
3, 56160, Note_on_c, 0, 60, 50
3, 56170, Control_c, 0, 64, 0
3, 56301, Control_c, 0, 64, 127
3, 56640, Note_on_c, 0, 60, 0
3, 56640, Note_on_c, 0, 59, 46
3, 56880, Note_on_c, 0, 59, 0
3, 56880, Note_on_c, 0, 55, 46
3, 56890, Control_c, 0, 64, 0
3, 57360, Note_on_c, 0, 55, 0
3, 57360, Note_on_c, 0, 47, 0
3, 57360, Note_on_c, 0, 55, 51
3, 57600, Note_on_c, 0, 55, 0
3, 57600, Note_on_c, 0, 48, 44
3, 57600, Note_on_c, 0, 57, 53
3, 57600, Note_on_c, 0, 55, 44
3, 57676, Control_c, 0, 64, 127
3, 58080, Note_on_c, 0, 55, 0
3, 58080, Note_on_c, 0, 57, 0
3, 58080, Note_on_c, 0, 48, 0
3, 58080, Note_on_c, 0, 57, 52
3, 58080, Note_on_c, 0, 55, 44
3, 58080, Note_on_c, 0, 48, 44
3, 58320, Note_on_c, 0, 48, 0
3, 58320, Note_on_c, 0, 55, 0
3, 58320, Note_on_c, 0, 57, 0
3, 58320, Note_on_c, 0, 50, 48
3, 58320, Note_on_c, 0, 59, 56
3, 58320, Note_on_c, 0, 55, 48
3, 58324, Control_c, 0, 64, 0
3, 58475, Control_c, 0, 64, 127
3, 59520, Note_on_c, 0, 55, 0
3, 59520, Note_on_c, 0, 59, 0
3, 59520, Note_on_c, 0, 50, 0
3, 59520, Note_on_c, 0, 55, 43
3, 59530, Control_c, 0, 64, 0
3, 59760, Note_on_c, 0, 55, 0
3, 59760, Note_on_c, 0, 57, 44
3, 59760, Note_on_c, 0, 50, 36
3, 60000, Note_on_c, 0, 57, 0
3, 60000, Note_on_c, 0, 60, 40
3, 60240, Note_on_c, 0, 60, 0
3, 60240, Note_on_c, 0, 59, 40
3, 60480, Note_on_c, 0, 59, 0
3, 60480, Note_on_c, 0, 50, 0
3, 60480, Note_on_c, 0, 50, 40
3, 60480, Note_on_c, 0, 57, 36
3, 61200, Note_on_c, 0, 57, 0
3, 61200, Note_on_c, 0, 50, 0
3, 61200, Note_on_c, 0, 55, 36
3, 61680, Note_on_c, 0, 55, 0
3, 61680, Note_on_c, 0, 48, 35
3, 61680, Note_on_c, 0, 54, 46
3, 61908, Note_on_c, 0, 54, 0
3, 61908, Note_on_c, 0, 48, 0
3, 61920, Note_on_c, 0, 48, 36
3, 61920, Note_on_c, 0, 54, 48
3, 61930, Control_c, 0, 64, 0
3, 62089, Control_c, 0, 64, 127
3, 62160, Note_on_c, 0, 54, 0
3, 62160, Note_on_c, 0, 48, 0
3, 62160, Note_on_c, 0, 48, 36
3, 62160, Note_on_c, 0, 55, 48
3, 62400, Note_on_c, 0, 55, 0
3, 62400, Note_on_c, 0, 48, 0
3, 62400, Note_on_c, 0, 48, 36
3, 62400, Note_on_c, 0, 57, 49
3, 62640, Note_on_c, 0, 57, 0
3, 62640, Note_on_c, 0, 48, 0
3, 62640, Note_on_c, 0, 47, 46
3, 62640, Note_on_c, 0, 60, 50
3, 62647, Control_c, 0, 64, 0
3, 62781, Control_c, 0, 64, 127
3, 63120, Note_on_c, 0, 60, 0
3, 63120, Note_on_c, 0, 59, 46
3, 63360, Note_on_c, 0, 59, 0
3, 63360, Note_on_c, 0, 55, 46
3, 63370, Control_c, 0, 64, 0
3, 63600, Note_on_c, 0, 55, 0
3, 63600, Note_on_c, 0, 47, 0
3, 63600, Note_on_c, 0, 48, 33
3, 63600, Note_on_c, 0, 54, 48
3, 63840, Note_on_c, 0, 54, 0
3, 63840, Note_on_c, 0, 48, 0
3, 63840, Note_on_c, 0, 48, 34
3, 63840, Note_on_c, 0, 53, 50
3, 64080, Note_on_c, 0, 53, 0
3, 64080, Note_on_c, 0, 48, 0
3, 64080, Note_on_c, 0, 48, 38
3, 64080, Note_on_c, 0, 54, 52
3, 64249, Control_c, 0, 64, 127
3, 64320, Note_on_c, 0, 54, 0
3, 64320, Note_on_c, 0, 48, 0
3, 64320, Note_on_c, 0, 48, 38
3, 64320, Note_on_c, 0, 55, 52
3, 64560, Note_on_c, 0, 55, 0
3, 64560, Note_on_c, 0, 48, 0
3, 64560, Note_on_c, 0, 48, 38
3, 64560, Note_on_c, 0, 57, 53
3, 64800, Note_on_c, 0, 57, 0
3, 64800, Note_on_c, 0, 48, 0
3, 64800, Note_on_c, 0, 47, 48
3, 64800, Note_on_c, 0, 60, 50
3, 64808, Control_c, 0, 64, 0
3, 64941, Control_c, 0, 64, 127
3, 65280, Note_on_c, 0, 60, 0
3, 65280, Note_on_c, 0, 59, 48
3, 65520, Note_on_c, 0, 59, 0
3, 65520, Note_on_c, 0, 55, 48
3, 65530, Control_c, 0, 64, 0
3, 66000, Note_on_c, 0, 55, 0
3, 66000, Note_on_c, 0, 47, 0
3, 66000, Note_on_c, 0, 49, 44
3, 66000, Note_on_c, 0, 55, 44
3, 66000, Note_on_c, 0, 57, 51
3, 66240, Note_on_c, 0, 57, 0
3, 66240, Note_on_c, 0, 55, 0
3, 66240, Note_on_c, 0, 49, 0
3, 66240, Note_on_c, 0, 49, 44
3, 66240, Note_on_c, 0, 57, 53
3, 66240, Note_on_c, 0, 55, 44
3, 66316, Control_c, 0, 64, 127
3, 66720, Note_on_c, 0, 55, 0
3, 66720, Note_on_c, 0, 57, 0
3, 66720, Note_on_c, 0, 49, 0
3, 66720, Note_on_c, 0, 57, 52
3, 66720, Note_on_c, 0, 55, 44
3, 66720, Note_on_c, 0, 49, 44
3, 66960, Note_on_c, 0, 49, 0
3, 66960, Note_on_c, 0, 55, 0
3, 66960, Note_on_c, 0, 57, 0
3, 66960, Note_on_c, 0, 50, 48
3, 66960, Note_on_c, 0, 59, 56
3, 66960, Note_on_c, 0, 55, 48
3, 66964, Control_c, 0, 64, 0
3, 67115, Control_c, 0, 64, 127
3, 68160, Note_on_c, 0, 55, 0
3, 68160, Note_on_c, 0, 59, 0
3, 68160, Note_on_c, 0, 50, 0
3, 68170, Control_c, 0, 64, 0
3, 68329, Control_c, 0, 64, 127
3, 69128, Control_c, 0, 64, 0
3, 69261, Control_c, 0, 64, 127
3, 69600, Note_on_c, 0, 67, 60
3, 69840, Note_on_c, 0, 67, 0
3, 69840, Note_on_c, 0, 64, 60
3, 69850, Control_c, 0, 64, 0
3, 70066, Control_c, 0, 64, 127
3, 70320, Note_on_c, 0, 64, 0
3, 70320, Note_on_c, 0, 62, 57
3, 70560, Note_on_c, 0, 62, 0
3, 70560, Note_on_c, 0, 61, 57
3, 70567, Control_c, 0, 64, 0
3, 70701, Control_c, 0, 64, 127
3, 71040, Note_on_c, 0, 61, 0
3, 71040, Note_on_c, 0, 61, 57
3, 71040, Note_on_c, 0, 64, 57
3, 71040, Note_on_c, 0, 67, 57
3, 71268, Note_on_c, 0, 67, 0
3, 71268, Note_on_c, 0, 64, 0
3, 71268, Note_on_c, 0, 61, 0
3, 71280, Note_on_c, 0, 61, 53
3, 71280, Note_on_c, 0, 64, 53
3, 71280, Note_on_c, 0, 67, 53
3, 71284, Control_c, 0, 64, 0
3, 71449, Control_c, 0, 64, 127
3, 72409, Control_c, 0, 64, 0
3, 72480, Note_on_c, 0, 67, 0
3, 72480, Note_on_c, 0, 64, 0
3, 72480, Note_on_c, 0, 61, 0
3, 72706, Control_c, 0, 64, 127
3, 72720, Note_on_c, 0, 50, 34
3, 72720, Note_on_c, 0, 57, 40
3, 73200, Note_on_c, 0, 57, 0
3, 73200, Note_on_c, 0, 50, 0
3, 73200, Note_on_c, 0, 50, 34
3, 73200, Note_on_c, 0, 62, 40
3, 73440, Note_on_c, 0, 62, 0
3, 73440, Note_on_c, 0, 50, 0
3, 73440, Note_on_c, 0, 50, 31
3, 73440, Note_on_c, 0, 60, 37
3, 73450, Control_c, 0, 64, 0
3, 73624, Control_c, 0, 64, 127
3, 74541, Control_c, 0, 64, 0
3, 74640, Note_on_c, 0, 60, 0
3, 74640, Note_on_c, 0, 50, 0
3, 74880, Note_on_c, 0, 31, 34
3, 74880, Note_on_c, 0, 43, 40
3, 74894, Control_c, 0, 64, 127
3, 75360, Note_on_c, 0, 43, 0
3, 75360, Note_on_c, 0, 31, 0
3, 75600, Note_on_c, 0, 31, 35
3, 75600, Note_on_c, 0, 43, 42
3, 76800, Note_on_c, 0, 43, 0
3, 76800, Note_on_c, 0, 31, 0
3, 77040, Note_on_c, 0, 31, 37
3, 77040, Note_on_c, 0, 43, 44
3, 77520, Note_on_c, 0, 43, 0
3, 77520, Note_on_c, 0, 31, 0
3, 77760, Note_on_c, 0, 38, 52
3, 78960, Note_on_c, 0, 38, 0
3, 78960, Note_on_c, 0, 62, 45
3, 78960, Note_on_c, 0, 71, 53
3, 79200, Note_on_c, 0, 71, 0
3, 79200, Note_on_c, 0, 62, 0
3, 79200, Note_on_c, 0, 62, 47
3, 79200, Note_on_c, 0, 71, 56
3, 79440, Note_on_c, 0, 71, 0
3, 79440, Note_on_c, 0, 62, 0
3, 79440, Note_on_c, 0, 67, 52
3, 79680, Note_on_c, 0, 67, 0
3, 79680, Note_on_c, 0, 62, 52
3, 79908, Note_on_c, 0, 62, 0
3, 79920, Note_on_c, 0, 50, 50
3, 79920, Note_on_c, 0, 62, 57
3, 80160, Note_on_c, 0, 62, 0
3, 80160, Note_on_c, 0, 50, 0
3, 80160, Note_on_c, 0, 59, 51
3, 80400, Note_on_c, 0, 59, 0
3, 80400, Note_on_c, 0, 55, 51
3, 80640, Note_on_c, 0, 55, 0
3, 80640, Note_on_c, 0, 59, 54
3, 81360, Note_on_c, 0, 59, 0
3, 81360, Note_on_c, 0, 38, 32
3, 81360, Note_on_c, 0, 50, 38
3, 81370, Control_c, 0, 64, 0
3, 81501, Control_c, 0, 64, 127
3, 81840, Note_on_c, 0, 50, 0
3, 81840, Note_on_c, 0, 38, 0
3, 82080, Note_on_c, 0, 31, 30
3, 82080, Note_on_c, 0, 43, 36
3, 82085, Control_c, 0, 64, 0
3, 82419, Control_c, 0, 64, 127
3, 83280, Note_on_c, 0, 43, 0
3, 83280, Note_on_c, 0, 31, 0
3, 84240, Control_c, 0, 64, 0
3, 84240, End_track
4, 0, Start_track
4, 0, Title_t, "Mendelssohn: Songs without Words, Op. 62 No. 4"
4, 0, End_track
5, 0, Start_track
5, 0, Title_t, "Copyright © 2004 by Bernd Krüger"
5, 0, End_track
6, 0, Start_track
6, 0, Title_t, "http://www.piano-midi.de"
6, 0, End_track
7, 0, Start_track
7, 0, Title_t, "Edition: 2014-04-03"
7, 0, End_track
8, 0, Start_track
8, 0, Title_t, "Spur 7"
8, 0, End_track
0, 0, End_of_file
