0, 0, Header, 1, 9, 480
1, 0, Start_track
1, 0, Title_t, "Bilder einer Ausstellung"
1, 0, Title_t, "Samuel Goldenberg und Schmuyle"
1, 0, Copyright_t, "Copyright © 2000 by Bernd Krueger"
1, 0, Text_t, "Modest Mussorgski"
1, 0, Text_t, "Fertiggestellt am 5.2.2000\012"
1, 0, Text_t, "Update am 13.2.2000\012"
1, 0, Text_t, "Update am 1.7.2000\012"
1, 0, Text_t, "Normierung: 23.12.2002\012"
1, 0, Text_t, "Update am 25.8.2008\012"
1, 0, Text_t, "Update am 3.12.2013\012"
1, 0, Text_t, "Dauer: 2:04 Minuten\012"
1, 0, SMPTE_offset, 96, 0, 3, 0, 0
1, 0, Time_signature, 8, 2, 24, 8
1, 0, Key_signature, -5, "major"
1, 0, Tempo, 373832
1, 0, Marker_t, "Teil 1 - Andante"
1, 3360, Tempo, 710059
1, 3680, Tempo, 991736
1, 3840, Tempo, 710059
1, 4800, Tempo, 693642
1, 6720, Tempo, 727273
1, 7200, Tempo, 745342
1, 7440, Tempo, 754717
1, 7520, Tempo, 991736
1, 7680, Tempo, 670391
1, 8400, Tempo, 1200000
1, 8640, Tempo, 615385
1, 11520, Tempo, 597015
1, 12480, Tempo, 628272
1, 13440, Tempo, 606061
1, 15360, Tempo, 591133
1, 16800, Tempo, 603015
1, 17160, Tempo, 555556
1, 17280, Tempo, 603015
1, 18240, Tempo, 600000
1, 19200, Tempo, 597015
1, 20160, Tempo, 628272
1, 21120, Tempo, 606061
1, 23040, Tempo, 591133
1, 24480, Tempo, 502092
1, 26760, Tempo, 851064
1, 26880, Time_signature, 6, 2, 24, 8
1, 26880, Tempo, 670391
1, 27600, Tempo, 895522
1, 27840, Tempo, 670391
1, 28560, Tempo, 916031
1, 28680, Tempo, 1025641
1, 28720, Tempo, 1200000
1, 28764, Tempo, 1518987
1, 28800, Tempo, 670391
1, 29520, Tempo, 923077
1, 29576, Tempo, 1518987
1, 29640, Tempo, 1276596
1, 29724, Tempo, 1538462
1, 29760, Time_signature, 8, 2, 24, 8
1, 29760, Tempo, 662983
1, 29800, Tempo, 461538
1, 33540, Marker_t, "Teil 2"
1, 33600, Tempo, 405405
1, 33840, Tempo, 437956
1, 33960, Tempo, 454545
1, 34020, Tempo, 857143
1, 34080, Tempo, 433307
1, 34320, Tempo, 444444
1, 34500, Tempo, 476153
1, 34560, Tempo, 408163
1, 34800, Tempo, 441176
1, 34920, Tempo, 458015
1, 34980, Tempo, 851064
1, 35040, Tempo, 433307
1, 35280, Tempo, 442804
1, 35460, Tempo, 473522
1, 35520, Tempo, 410959
1, 35760, Tempo, 441176
1, 35880, Tempo, 458015
1, 35940, Tempo, 851064
1, 36000, Tempo, 433307
1, 36240, Tempo, 444444
1, 36420, Tempo, 458505
1, 36480, Tempo, 412371
1, 36720, Tempo, 442804
1, 36840, Tempo, 459770
1, 36900, Tempo, 750000
1, 36960, Tempo, 433307
1, 37200, Tempo, 439560
1, 37380, Tempo, 463356
1, 37440, Tempo, 409556
1, 37680, Tempo, 442804
1, 37800, Tempo, 459770
1, 37860, Tempo, 845070
1, 37920, Tempo, 433307
1, 38160, Tempo, 459770
1, 38340, Tempo, 476153
1, 38400, Tempo, 413793
1, 38640, Tempo, 454545
1, 38760, Tempo, 468750
1, 38820, Tempo, 666667
1, 38880, Tempo, 441176
1, 39120, Tempo, 449438
1, 39300, Tempo, 463356
1, 39360, Tempo, 410959
1, 39600, Tempo, 451128
1, 39720, Tempo, 468750
1, 39780, Tempo, 662983
1, 39840, Tempo, 441176
1, 40080, Tempo, 451128
1, 40260, Tempo, 482199
1, 40320, Tempo, 410959
1, 40560, Tempo, 452830
1, 40680, Tempo, 470588
1, 40740, Tempo, 666667
1, 40800, Tempo, 446628
1, 41040, Tempo, 459770
1, 41220, Tempo, 600000
1, 41220, Marker_t, "Teil 2 Wiederholung"
1, 41280, Tempo, 404040
1, 41520, Tempo, 439560
1, 41640, Tempo, 453721
1, 41700, Tempo, 857143
1, 41760, Tempo, 433307
1, 42000, Tempo, 444444
1, 42180, Tempo, 476153
1, 42240, Tempo, 408163
1, 42480, Tempo, 441176
1, 42600, Tempo, 453721
1, 42660, Tempo, 857143
1, 42720, Tempo, 433307
1, 42960, Tempo, 442804
1, 43140, Tempo, 473522
1, 43200, Tempo, 408163
1, 43440, Tempo, 441176
1, 43560, Tempo, 453721
1, 43620, Tempo, 745342
1, 43680, Tempo, 433307
1, 43920, Tempo, 444444
1, 44100, Tempo, 458505
1, 44160, Tempo, 408163
1, 44400, Tempo, 442804
1, 44520, Tempo, 451331
1, 44580, Tempo, 662983
1, 44640, Tempo, 433307
1, 44880, Tempo, 439560
1, 45060, Tempo, 463356
1, 45120, Tempo, 404040
1, 45360, Tempo, 442804
1, 45480, Tempo, 453721
1, 45540, Tempo, 670391
1, 45600, Tempo, 433307
1, 45840, Tempo, 459770
1, 46020, Tempo, 476153
1, 46080, Tempo, 410959
1, 46320, Tempo, 454545
1, 46440, Tempo, 451331
1, 46500, Tempo, 745342
1, 46560, Tempo, 441176
1, 46800, Tempo, 449438
1, 46980, Tempo, 463356
1, 47040, Tempo, 415225
1, 47280, Tempo, 451128
1, 47400, Tempo, 451331
1, 47460, Tempo, 851064
1, 47520, Tempo, 441176
1, 47760, Tempo, 451128
1, 47940, Tempo, 482199
1, 48000, Tempo, 413793
1, 48240, Tempo, 452830
1, 48360, Tempo, 451331
1, 48420, Tempo, 857143
1, 48480, Tempo, 446628
1, 48900, Tempo, 600000
1, 48900, Marker_t, "Teil 3"
1, 48960, Tempo, 404040
1, 49320, Tempo, 453721
1, 49380, Tempo, 851064
1, 49440, Tempo, 433307
1, 49680, Tempo, 444444
1, 49860, Tempo, 476153
1, 49920, Tempo, 408163
1, 50160, Tempo, 441176
1, 50280, Tempo, 453721
1, 50340, Tempo, 740741
1, 50400, Tempo, 433307
1, 50640, Tempo, 442804
1, 50820, Tempo, 473522
1, 50880, Tempo, 409556
1, 51120, Tempo, 441176
1, 51240, Tempo, 453721
1, 51300, Tempo, 745342
1, 51360, Tempo, 433307
1, 51600, Tempo, 444444
1, 51780, Tempo, 458505
1, 51840, Tempo, 410959
1, 52080, Tempo, 442804
1, 52200, Tempo, 451331
1, 52260, Tempo, 662983
1, 52320, Tempo, 433307
1, 52560, Tempo, 439560
1, 52740, Tempo, 463356
1, 52800, Tempo, 406780
1, 53040, Tempo, 442804
1, 53160, Tempo, 453721
1, 53220, Tempo, 666667
1, 53280, Tempo, 433307
1, 53520, Tempo, 459770
1, 53700, Tempo, 476153
1, 53760, Tempo, 408163
1, 54000, Tempo, 454545
1, 54120, Tempo, 451331
1, 54180, Tempo, 662983
1, 54240, Tempo, 441176
1, 54480, Tempo, 449438
1, 54660, Tempo, 463356
1, 54720, Tempo, 412371
1, 54960, Tempo, 451128
1, 55080, Tempo, 451331
1, 55140, Tempo, 666667
1, 55200, Tempo, 441176
1, 55440, Tempo, 451128
1, 55620, Tempo, 482199
1, 55680, Tempo, 415225
1, 55920, Tempo, 452830
1, 56040, Tempo, 451331
1, 56100, Tempo, 662983
1, 56160, Tempo, 446628
1, 56400, Tempo, 461538
1, 56580, Tempo, 600000
1, 56580, Marker_t, "Teil 3 Wiederholung"
1, 56640, Tempo, 406780
1, 57000, Tempo, 453721
1, 57060, Tempo, 857143
1, 57120, Tempo, 433307
1, 57360, Tempo, 444444
1, 57540, Tempo, 476153
1, 57600, Tempo, 408163
1, 57840, Tempo, 441176
1, 57960, Tempo, 453721
1, 58020, Tempo, 745342
1, 58080, Tempo, 433307
1, 58320, Tempo, 442804
1, 58500, Tempo, 473522
1, 58560, Tempo, 406780
1, 58800, Tempo, 441176
1, 58920, Tempo, 453721
1, 58980, Tempo, 745342
1, 59040, Tempo, 433307
1, 59280, Tempo, 444444
1, 59460, Tempo, 458505
1, 59520, Tempo, 408163
1, 59760, Tempo, 442804
1, 59880, Tempo, 451331
1, 59940, Tempo, 662983
1, 60000, Tempo, 433307
1, 60240, Tempo, 439560
1, 60420, Tempo, 463356
1, 60480, Tempo, 406780
1, 60720, Tempo, 442804
1, 60840, Tempo, 453721
1, 60900, Tempo, 662983
1, 60960, Tempo, 433307
1, 61200, Tempo, 459770
1, 61380, Tempo, 476153
1, 61440, Tempo, 406780
1, 61680, Tempo, 454545
1, 61800, Tempo, 451331
1, 61860, Tempo, 750000
1, 61920, Tempo, 441176
1, 62160, Tempo, 449438
1, 62340, Tempo, 463356
1, 62400, Tempo, 410959
1, 62640, Tempo, 451128
1, 62760, Tempo, 451331
1, 62820, Tempo, 542986
1, 62828, Tempo, 666667
1, 62880, Tempo, 441176
1, 63120, Tempo, 451128
1, 63300, Tempo, 482199
1, 63360, Tempo, 410959
1, 63600, Tempo, 452830
1, 63720, Tempo, 451331
1, 63780, Tempo, 662983
1, 63840, Tempo, 446628
1, 64200, Tempo, 504202
1, 64320, Tempo, 461538
1, 64320, Marker_t, "Teil 4"
1, 64800, Tempo, 439560
1, 64880, Tempo, 437956
1, 64960, Tempo, 436364
1, 65000, Tempo, 434783
1, 65080, Tempo, 433213
1, 65160, Tempo, 431655
1, 65200, Tempo, 430108
1, 65280, Tempo, 442804
1, 65760, Tempo, 442804
1, 65920, Tempo, 444444
1, 66080, Tempo, 446097
1, 66240, Tempo, 447761
1, 66600, Tempo, 421053
1, 67200, Tempo, 444444
1, 67560, Tempo, 436364
1, 67680, Tempo, 419580
1, 68160, Tempo, 451128
1, 68640, Tempo, 434783
1, 68720, Tempo, 433213
1, 68760, Tempo, 431655
1, 68840, Tempo, 430108
1, 68880, Tempo, 428571
1, 68920, Tempo, 427046
1, 69000, Tempo, 425532
1, 69040, Tempo, 424028
1, 69080, Tempo, 422535
1, 69120, Tempo, 442804
1, 69600, Tempo, 441176
1, 69700, Tempo, 442804
1, 69800, Tempo, 444444
1, 69880, Tempo, 446097
1, 69980, Tempo, 447761
1, 70060, Tempo, 449438
1, 70080, Tempo, 444444
1, 70440, Tempo, 424028
1, 71040, Tempo, 434783
1, 71060, Tempo, 442804
1, 71400, Tempo, 422535
1, 71760, Tempo, 444444
1, 72480, Tempo, 422535
1, 72960, Tempo, 430108
1, 73440, Tempo, 449438
1, 73680, Tempo, 461538
1, 73920, Tempo, 442804
1, 74400, Tempo, 422535
1, 74880, Tempo, 436364
1, 75360, Tempo, 424028
1, 75840, Tempo, 447761
1, 76320, Tempo, 419580
1, 76800, Tempo, 433213
1, 77280, Tempo, 449438
1, 77520, Tempo, 444444
1, 78240, Tempo, 421053
1, 78720, Tempo, 434783
1, 79200, Tempo, 449438
1, 79440, Tempo, 461538
1, 79680, Tempo, 442804
1, 80160, Tempo, 422535
1, 80640, Tempo, 436364
1, 81120, Tempo, 424028
1, 81600, Tempo, 447761
1, 82080, Tempo, 422535
1, 82560, Tempo, 436364
1, 83040, Tempo, 444444
1, 84000, Tempo, 428571
1, 84480, Tempo, 444444
1, 84960, Tempo, 449438
1, 85440, Tempo, 442804
1, 85920, Tempo, 430108
1, 86400, Tempo, 446097
1, 86880, Tempo, 452830
1, 87360, Tempo, 463320
1, 87840, Tempo, 470588
1, 88080, Tempo, 483871
1, 88320, Tempo, 452830
1, 88800, Tempo, 424028
1, 89280, Tempo, 442804
1, 89760, Tempo, 424028
1, 90240, Tempo, 452830
1, 90720, Tempo, 444444
1, 91680, Tempo, 434783
1, 92200, Tempo, 449438
1, 92640, Tempo, 456274
1, 93120, Tempo, 446097
1, 93600, Tempo, 436364
1, 94080, Tempo, 451128
1, 94560, Tempo, 452830
1, 95040, Tempo, 463320
1, 95520, Tempo, 478088
1, 95760, Tempo, 519481
1, 97920, Tempo, 588813
1, 98880, Tempo, 594118
1, 100320, Tempo, 602228
1, 100480, Tempo, 563380
1, 100640, Tempo, 603015
1, 100760, Tempo, 622019
1, 100800, Tempo, 621762
1, 101760, Tempo, 860338
1, 102180, Tempo, 603015
1, 102480, Tempo, 1113379
1, 102720, Tempo, 603015
1, 104160, Tempo, 602228
1, 104200, Tempo, 599460
1, 104320, Tempo, 571429
1, 104480, Tempo, 618557
1, 104640, Tempo, 624935
1, 105600, Tempo, 860338
1, 106020, Tempo, 606061
1, 106560, Tempo, 659123
1, 109920, Tempo, 748503
1, 110280, Tempo, 838574
1, 110400, Tempo, 459770
1, 118080, Tempo, 500000
1, 118080, End_track
2, 0, Start_track
2, 0, Title_t, "Piano right"
2, 0, Program_c, 0, 0
2, 0, Control_c, 0, 7, 100
2, 0, Control_c, 0, 10, 64
2, 0, Control_c, 0, 91, 127
2, 0, Text_t, "bdca426d104a26ac9dcb070447587523"
2, 3780, Note_on_c, 0, 58, 80
2, 3840, Note_on_c, 0, 58, 0
2, 3840, Note_on_c, 0, 65, 88
2, 4320, Note_on_c, 0, 65, 0
2, 4680, Note_on_c, 0, 64, 80
2, 4740, Note_on_c, 0, 64, 0
2, 4740, Note_on_c, 0, 65, 80
2, 4800, Note_on_c, 0, 65, 0
2, 4800, Note_on_c, 0, 64, 92
2, 6240, Note_on_c, 0, 64, 0
2, 6720, Note_on_c, 0, 57, 80
2, 6880, Note_on_c, 0, 57, 0
2, 6880, Note_on_c, 0, 58, 80
2, 7040, Note_on_c, 0, 58, 0
2, 7040, Note_on_c, 0, 60, 80
2, 7200, Note_on_c, 0, 60, 0
2, 7200, Note_on_c, 0, 61, 86
2, 7620, Note_on_c, 0, 61, 0
2, 7620, Note_on_c, 0, 58, 80
2, 7680, Note_on_c, 0, 58, 0
2, 7680, Note_on_c, 0, 65, 86
2, 8160, Note_on_c, 0, 65, 0
2, 8520, Note_on_c, 0, 64, 80
2, 8560, Note_on_c, 0, 64, 0
2, 8560, Note_on_c, 0, 65, 80
2, 8600, Note_on_c, 0, 65, 0
2, 8600, Note_on_c, 0, 64, 80
2, 8640, Note_on_c, 0, 64, 0
2, 8640, Note_on_c, 0, 61, 90
2, 10080, Note_on_c, 0, 61, 0
2, 10560, Note_on_c, 0, 57, 82
2, 10800, Note_on_c, 0, 57, 0
2, 10800, Note_on_c, 0, 58, 80
2, 11040, Note_on_c, 0, 58, 0
2, 11040, Note_on_c, 0, 60, 80
2, 11280, Note_on_c, 0, 60, 0
2, 11280, Note_on_c, 0, 61, 80
2, 11520, Note_on_c, 0, 61, 0
2, 11520, Note_on_c, 0, 63, 80
2, 12240, Note_on_c, 0, 63, 0
2, 12240, Note_on_c, 0, 65, 83
2, 12480, Note_on_c, 0, 65, 0
2, 12480, Note_on_c, 0, 66, 87
2, 12720, Note_on_c, 0, 66, 0
2, 12960, Note_on_c, 0, 69, 88
2, 13200, Note_on_c, 0, 69, 0
2, 13440, Note_on_c, 0, 70, 93
2, 14400, Note_on_c, 0, 70, 0
2, 14400, Note_on_c, 0, 68, 88
2, 14880, Note_on_c, 0, 68, 0
2, 14880, Note_on_c, 0, 66, 85
2, 15360, Note_on_c, 0, 66, 0
2, 15360, Note_on_c, 0, 69, 88
2, 15680, Note_on_c, 0, 69, 0
2, 15680, Note_on_c, 0, 66, 85
2, 16000, Note_on_c, 0, 66, 0
2, 16000, Note_on_c, 0, 65, 80
2, 16300, Note_on_c, 0, 65, 0
2, 16320, Note_on_c, 0, 65, 87
2, 17160, Note_on_c, 0, 65, 0
2, 17160, Note_on_c, 0, 69, 80
2, 17280, Note_on_c, 0, 69, 0
2, 17280, Note_on_c, 0, 65, 86
2, 17760, Note_on_c, 0, 65, 0
2, 18240, Note_on_c, 0, 57, 82
2, 18480, Note_on_c, 0, 57, 0
2, 18480, Note_on_c, 0, 58, 80
2, 18720, Note_on_c, 0, 58, 0
2, 18720, Note_on_c, 0, 60, 80
2, 18960, Note_on_c, 0, 60, 0
2, 18960, Note_on_c, 0, 61, 80
2, 19200, Note_on_c, 0, 61, 0
2, 19200, Note_on_c, 0, 63, 80
2, 19920, Note_on_c, 0, 63, 0
2, 19920, Note_on_c, 0, 65, 83
2, 20160, Note_on_c, 0, 65, 0
2, 20160, Note_on_c, 0, 66, 87
2, 20400, Note_on_c, 0, 66, 0
2, 20640, Note_on_c, 0, 69, 88
2, 20880, Note_on_c, 0, 69, 0
2, 21120, Note_on_c, 0, 70, 93
2, 22080, Note_on_c, 0, 70, 0
2, 22080, Note_on_c, 0, 69, 88
2, 22560, Note_on_c, 0, 69, 0
2, 22560, Note_on_c, 0, 66, 85
2, 23040, Note_on_c, 0, 66, 0
2, 23040, Note_on_c, 0, 68, 88
2, 23360, Note_on_c, 0, 68, 0
2, 23360, Note_on_c, 0, 66, 85
2, 23680, Note_on_c, 0, 66, 0
2, 23680, Note_on_c, 0, 65, 80
2, 23980, Note_on_c, 0, 65, 0
2, 24000, Note_on_c, 0, 65, 87
2, 26160, Note_on_c, 0, 65, 0
2, 26820, Note_on_c, 0, 58, 80
2, 26880, Note_on_c, 0, 58, 0
2, 26880, Note_on_c, 0, 65, 86
2, 27360, Note_on_c, 0, 65, 0
2, 27720, Note_on_c, 0, 64, 80
2, 27760, Note_on_c, 0, 64, 0
2, 27760, Note_on_c, 0, 65, 80
2, 27800, Note_on_c, 0, 65, 0
2, 27800, Note_on_c, 0, 64, 80
2, 27840, Note_on_c, 0, 64, 0
2, 27840, Note_on_c, 0, 61, 90
2, 28680, Note_on_c, 0, 61, 0
2, 28680, Note_on_c, 0, 60, 80
2, 28720, Note_on_c, 0, 60, 0
2, 28720, Note_on_c, 0, 61, 78
2, 28760, Note_on_c, 0, 61, 0
2, 28760, Note_on_c, 0, 57, 78
2, 28800, Note_on_c, 0, 57, 0
2, 28800, Note_on_c, 0, 61, 89
2, 29580, Note_on_c, 0, 61, 0
2, 29580, Note_on_c, 0, 60, 75
2, 29610, Note_on_c, 0, 60, 0
2, 29610, Note_on_c, 0, 61, 75
2, 29640, Note_on_c, 0, 61, 0
2, 29640, Note_on_c, 0, 60, 75
2, 29680, Note_on_c, 0, 60, 0
2, 29680, Note_on_c, 0, 58, 75
2, 29720, Note_on_c, 0, 58, 0
2, 29720, Note_on_c, 0, 57, 75
2, 29760, Note_on_c, 0, 57, 0
2, 29760, Note_on_c, 0, 61, 80
2, 33360, Note_on_c, 0, 61, 0
2, 33540, Note_on_c, 0, 81, 52
2, 33594, Note_on_c, 0, 81, 0
2, 33600, Note_on_c, 0, 69, 52
2, 33600, Note_on_c, 0, 66, 52
2, 33600, Note_on_c, 0, 81, 60
2, 33744, Note_on_c, 0, 81, 0
2, 33760, Note_on_c, 0, 81, 58
2, 33904, Note_on_c, 0, 81, 0
2, 33920, Note_on_c, 0, 81, 58
2, 34010, Note_on_c, 0, 81, 0
2, 34020, Note_on_c, 0, 81, 50
2, 34050, Note_on_c, 0, 83, 51
2, 34070, Note_on_c, 0, 81, 0
2, 34080, Note_on_c, 0, 81, 54
2, 34100, Note_on_c, 0, 83, 0
2, 34500, Note_on_c, 0, 81, 0
2, 34500, Note_on_c, 0, 81, 52
2, 34554, Note_on_c, 0, 81, 0
2, 34560, Note_on_c, 0, 81, 60
2, 34704, Note_on_c, 0, 81, 0
2, 34720, Note_on_c, 0, 81, 57
2, 34864, Note_on_c, 0, 81, 0
2, 34880, Note_on_c, 0, 81, 57
2, 34970, Note_on_c, 0, 81, 0
2, 34980, Note_on_c, 0, 81, 48
2, 35010, Note_on_c, 0, 83, 52
2, 35030, Note_on_c, 0, 81, 0
2, 35040, Note_on_c, 0, 81, 56
2, 35060, Note_on_c, 0, 83, 0
2, 35460, Note_on_c, 0, 81, 0
2, 35460, Note_on_c, 0, 80, 49
2, 35514, Note_on_c, 0, 80, 0
2, 35520, Note_on_c, 0, 66, 0
2, 35520, Note_on_c, 0, 69, 0
2, 35520, Note_on_c, 0, 64, 52
2, 35520, Note_on_c, 0, 68, 52
2, 35520, Note_on_c, 0, 80, 57
2, 35664, Note_on_c, 0, 80, 0
2, 35680, Note_on_c, 0, 80, 55
2, 35824, Note_on_c, 0, 80, 0
2, 35840, Note_on_c, 0, 80, 55
2, 35930, Note_on_c, 0, 80, 0
2, 35940, Note_on_c, 0, 80, 49
2, 35970, Note_on_c, 0, 81, 52
2, 35990, Note_on_c, 0, 80, 0
2, 36000, Note_on_c, 0, 80, 55
2, 36020, Note_on_c, 0, 81, 0
2, 36420, Note_on_c, 0, 80, 0
2, 36420, Note_on_c, 0, 78, 49
2, 36480, Note_on_c, 0, 78, 0
2, 36480, Note_on_c, 0, 68, 0
2, 36480, Note_on_c, 0, 64, 0
2, 36480, Note_on_c, 0, 66, 49
2, 36480, Note_on_c, 0, 62, 49
2, 36480, Note_on_c, 0, 78, 57
2, 36640, Note_on_c, 0, 78, 0
2, 36640, Note_on_c, 0, 78, 54
2, 36800, Note_on_c, 0, 78, 0
2, 36800, Note_on_c, 0, 78, 54
2, 36900, Note_on_c, 0, 78, 0
2, 36900, Note_on_c, 0, 78, 47
2, 36930, Note_on_c, 0, 79, 50
2, 36950, Note_on_c, 0, 78, 0
2, 36960, Note_on_c, 0, 78, 56
2, 36980, Note_on_c, 0, 79, 0
2, 37380, Note_on_c, 0, 78, 0
2, 37380, Note_on_c, 0, 80, 49
2, 37434, Note_on_c, 0, 80, 0
2, 37440, Note_on_c, 0, 62, 0
2, 37440, Note_on_c, 0, 66, 0
2, 37440, Note_on_c, 0, 80, 57
2, 37440, Note_on_c, 0, 64, 49
2, 37440, Note_on_c, 0, 68, 49
2, 37584, Note_on_c, 0, 80, 0
2, 37600, Note_on_c, 0, 80, 55
2, 37744, Note_on_c, 0, 80, 0
2, 37760, Note_on_c, 0, 80, 55
2, 37850, Note_on_c, 0, 80, 0
2, 37860, Note_on_c, 0, 80, 49
2, 37890, Note_on_c, 0, 81, 49
2, 37910, Note_on_c, 0, 80, 0
2, 37920, Note_on_c, 0, 80, 55
2, 37940, Note_on_c, 0, 81, 0
2, 38340, Note_on_c, 0, 80, 0
2, 38340, Note_on_c, 0, 73, 49
2, 38394, Note_on_c, 0, 73, 0
2, 38400, Note_on_c, 0, 68, 0
2, 38400, Note_on_c, 0, 64, 0
2, 38400, Note_on_c, 0, 61, 49
2, 38400, Note_on_c, 0, 73, 54
2, 38400, Note_on_c, 0, 64, 49
2, 38544, Note_on_c, 0, 73, 0
2, 38560, Note_on_c, 0, 73, 51
2, 38704, Note_on_c, 0, 73, 0
2, 38720, Note_on_c, 0, 73, 51
2, 38810, Note_on_c, 0, 73, 0
2, 38820, Note_on_c, 0, 73, 47
2, 38850, Note_on_c, 0, 74, 46
2, 38870, Note_on_c, 0, 73, 0
2, 38880, Note_on_c, 0, 73, 53
2, 38900, Note_on_c, 0, 74, 0
2, 39300, Note_on_c, 0, 73, 0
2, 39300, Note_on_c, 0, 73, 47
2, 39354, Note_on_c, 0, 73, 0
2, 39360, Note_on_c, 0, 73, 54
2, 39504, Note_on_c, 0, 73, 0
2, 39520, Note_on_c, 0, 73, 51
2, 39664, Note_on_c, 0, 73, 0
2, 39680, Note_on_c, 0, 73, 51
2, 39770, Note_on_c, 0, 73, 0
2, 39780, Note_on_c, 0, 73, 47
2, 39810, Note_on_c, 0, 74, 47
2, 39830, Note_on_c, 0, 73, 0
2, 39840, Note_on_c, 0, 73, 55
2, 39860, Note_on_c, 0, 74, 0
2, 40260, Note_on_c, 0, 73, 0
2, 40260, Note_on_c, 0, 73, 40
2, 40314, Note_on_c, 0, 73, 0
2, 40320, Note_on_c, 0, 73, 47
2, 40464, Note_on_c, 0, 73, 0
2, 40480, Note_on_c, 0, 73, 47
2, 40624, Note_on_c, 0, 73, 0
2, 40640, Note_on_c, 0, 73, 47
2, 40730, Note_on_c, 0, 73, 0
2, 40740, Note_on_c, 0, 73, 39
2, 40770, Note_on_c, 0, 74, 40
2, 40770, Note_on_c, 0, 74, 0
2, 40790, Note_on_c, 0, 73, 0
2, 40800, Note_on_c, 0, 64, 0
2, 40800, Note_on_c, 0, 61, 0
2, 40800, Note_on_c, 0, 73, 47
2, 41220, Note_on_c, 0, 73, 0
2, 41220, Note_on_c, 0, 81, 52
2, 41274, Note_on_c, 0, 81, 0
2, 41280, Note_on_c, 0, 66, 52
2, 41280, Note_on_c, 0, 69, 52
2, 41280, Note_on_c, 0, 81, 60
2, 41424, Note_on_c, 0, 81, 0
2, 41440, Note_on_c, 0, 81, 58
2, 41584, Note_on_c, 0, 81, 0
2, 41600, Note_on_c, 0, 81, 58
2, 41690, Note_on_c, 0, 81, 0
2, 41700, Note_on_c, 0, 81, 50
2, 41730, Note_on_c, 0, 83, 47
2, 41750, Note_on_c, 0, 81, 0
2, 41760, Note_on_c, 0, 81, 51
2, 41780, Note_on_c, 0, 83, 0
2, 42180, Note_on_c, 0, 81, 0
2, 42180, Note_on_c, 0, 81, 52
2, 42234, Note_on_c, 0, 81, 0
2, 42240, Note_on_c, 0, 81, 60
2, 42384, Note_on_c, 0, 81, 0
2, 42400, Note_on_c, 0, 81, 57
2, 42544, Note_on_c, 0, 81, 0
2, 42560, Note_on_c, 0, 81, 57
2, 42650, Note_on_c, 0, 81, 0
2, 42660, Note_on_c, 0, 81, 50
2, 42690, Note_on_c, 0, 83, 51
2, 42710, Note_on_c, 0, 81, 0
2, 42720, Note_on_c, 0, 81, 56
2, 42740, Note_on_c, 0, 83, 0
2, 43140, Note_on_c, 0, 81, 0
2, 43140, Note_on_c, 0, 80, 49
2, 43194, Note_on_c, 0, 80, 0
2, 43200, Note_on_c, 0, 69, 0
2, 43200, Note_on_c, 0, 66, 0
2, 43200, Note_on_c, 0, 64, 52
2, 43200, Note_on_c, 0, 68, 52
2, 43200, Note_on_c, 0, 80, 57
2, 43344, Note_on_c, 0, 80, 0
2, 43360, Note_on_c, 0, 80, 55
2, 43504, Note_on_c, 0, 80, 0
2, 43520, Note_on_c, 0, 80, 55
2, 43610, Note_on_c, 0, 80, 0
2, 43620, Note_on_c, 0, 80, 49
2, 43650, Note_on_c, 0, 81, 52
2, 43670, Note_on_c, 0, 80, 0
2, 43680, Note_on_c, 0, 80, 58
2, 43700, Note_on_c, 0, 81, 0
2, 44100, Note_on_c, 0, 80, 0
2, 44100, Note_on_c, 0, 78, 49
2, 44154, Note_on_c, 0, 78, 0
2, 44160, Note_on_c, 0, 68, 0
2, 44160, Note_on_c, 0, 64, 0
2, 44160, Note_on_c, 0, 66, 49
2, 44160, Note_on_c, 0, 62, 49
2, 44160, Note_on_c, 0, 78, 57
2, 44304, Note_on_c, 0, 78, 0
2, 44320, Note_on_c, 0, 78, 54
2, 44464, Note_on_c, 0, 78, 0
2, 44480, Note_on_c, 0, 78, 54
2, 44570, Note_on_c, 0, 78, 0
2, 44580, Note_on_c, 0, 78, 47
2, 44610, Note_on_c, 0, 79, 50
2, 44630, Note_on_c, 0, 78, 0
2, 44640, Note_on_c, 0, 78, 56
2, 44660, Note_on_c, 0, 79, 0
2, 45060, Note_on_c, 0, 78, 0
2, 45060, Note_on_c, 0, 80, 49
2, 45114, Note_on_c, 0, 80, 0
2, 45120, Note_on_c, 0, 62, 0
2, 45120, Note_on_c, 0, 66, 0
2, 45120, Note_on_c, 0, 80, 57
2, 45120, Note_on_c, 0, 68, 49
2, 45120, Note_on_c, 0, 64, 49
2, 45264, Note_on_c, 0, 80, 0
2, 45280, Note_on_c, 0, 80, 55
2, 45424, Note_on_c, 0, 80, 0
2, 45440, Note_on_c, 0, 80, 55
2, 45530, Note_on_c, 0, 80, 0
2, 45540, Note_on_c, 0, 80, 49
2, 45570, Note_on_c, 0, 81, 49
2, 45590, Note_on_c, 0, 80, 0
2, 45600, Note_on_c, 0, 80, 57
2, 45620, Note_on_c, 0, 81, 0
2, 46020, Note_on_c, 0, 80, 0
2, 46020, Note_on_c, 0, 73, 49
2, 46074, Note_on_c, 0, 73, 0
2, 46080, Note_on_c, 0, 64, 0
2, 46080, Note_on_c, 0, 68, 0
2, 46080, Note_on_c, 0, 61, 49
2, 46080, Note_on_c, 0, 64, 49
2, 46080, Note_on_c, 0, 73, 54
2, 46224, Note_on_c, 0, 73, 0
2, 46240, Note_on_c, 0, 73, 51
2, 46384, Note_on_c, 0, 73, 0
2, 46400, Note_on_c, 0, 73, 51
2, 46490, Note_on_c, 0, 73, 0
2, 46500, Note_on_c, 0, 73, 47
2, 46530, Note_on_c, 0, 74, 46
2, 46550, Note_on_c, 0, 73, 0
2, 46560, Note_on_c, 0, 73, 51
2, 46580, Note_on_c, 0, 74, 0
2, 46980, Note_on_c, 0, 73, 0
2, 46980, Note_on_c, 0, 73, 47
2, 47034, Note_on_c, 0, 73, 0
2, 47040, Note_on_c, 0, 73, 54
2, 47184, Note_on_c, 0, 73, 0
2, 47200, Note_on_c, 0, 73, 51
2, 47344, Note_on_c, 0, 73, 0
2, 47360, Note_on_c, 0, 73, 51
2, 47450, Note_on_c, 0, 73, 0
2, 47460, Note_on_c, 0, 73, 47
2, 47490, Note_on_c, 0, 74, 47
2, 47510, Note_on_c, 0, 73, 0
2, 47520, Note_on_c, 0, 73, 51
2, 47540, Note_on_c, 0, 74, 0
2, 47940, Note_on_c, 0, 73, 0
2, 47940, Note_on_c, 0, 73, 40
2, 47994, Note_on_c, 0, 73, 0
2, 48000, Note_on_c, 0, 73, 47
2, 48144, Note_on_c, 0, 73, 0
2, 48160, Note_on_c, 0, 73, 47
2, 48304, Note_on_c, 0, 73, 0
2, 48320, Note_on_c, 0, 73, 47
2, 48410, Note_on_c, 0, 73, 0
2, 48420, Note_on_c, 0, 73, 39
2, 48450, Note_on_c, 0, 74, 40
2, 48470, Note_on_c, 0, 73, 0
2, 48480, Note_on_c, 0, 61, 0
2, 48480, Note_on_c, 0, 64, 0
2, 48480, Note_on_c, 0, 73, 47
2, 48500, Note_on_c, 0, 74, 0
2, 48900, Note_on_c, 0, 73, 0
2, 48900, Note_on_c, 0, 78, 52
2, 48954, Note_on_c, 0, 78, 0
2, 48960, Note_on_c, 0, 78, 54
2, 48960, Note_on_c, 0, 62, 46
2, 48960, Note_on_c, 0, 66, 46
2, 49104, Note_on_c, 0, 78, 0
2, 49120, Note_on_c, 0, 78, 52
2, 49264, Note_on_c, 0, 78, 0
2, 49280, Note_on_c, 0, 78, 52
2, 49370, Note_on_c, 0, 78, 0
2, 49380, Note_on_c, 0, 78, 45
2, 49410, Note_on_c, 0, 80, 45
2, 49430, Note_on_c, 0, 78, 0
2, 49440, Note_on_c, 0, 78, 52
2, 49460, Note_on_c, 0, 80, 0
2, 49860, Note_on_c, 0, 78, 0
2, 49860, Note_on_c, 0, 78, 46
2, 49914, Note_on_c, 0, 78, 0
2, 49920, Note_on_c, 0, 78, 54
2, 50064, Note_on_c, 0, 78, 0
2, 50080, Note_on_c, 0, 78, 51
2, 50224, Note_on_c, 0, 78, 0
2, 50240, Note_on_c, 0, 78, 51
2, 50330, Note_on_c, 0, 78, 0
2, 50340, Note_on_c, 0, 78, 46
2, 50370, Note_on_c, 0, 80, 46
2, 50390, Note_on_c, 0, 78, 0
2, 50400, Note_on_c, 0, 78, 52
2, 50420, Note_on_c, 0, 80, 0
2, 50820, Note_on_c, 0, 78, 0
2, 50820, Note_on_c, 0, 76, 44
2, 50874, Note_on_c, 0, 76, 0
2, 50880, Note_on_c, 0, 66, 0
2, 50880, Note_on_c, 0, 62, 0
2, 50880, Note_on_c, 0, 76, 51
2, 50880, Note_on_c, 0, 64, 46
2, 50880, Note_on_c, 0, 61, 46
2, 51024, Note_on_c, 0, 76, 0
2, 51040, Note_on_c, 0, 76, 49
2, 51184, Note_on_c, 0, 76, 0
2, 51200, Note_on_c, 0, 76, 49
2, 51290, Note_on_c, 0, 76, 0
2, 51300, Note_on_c, 0, 76, 44
2, 51330, Note_on_c, 0, 78, 46
2, 51350, Note_on_c, 0, 76, 0
2, 51360, Note_on_c, 0, 76, 52
2, 51380, Note_on_c, 0, 78, 0
2, 51780, Note_on_c, 0, 76, 0
2, 51780, Note_on_c, 0, 74, 44
2, 51834, Note_on_c, 0, 74, 0
2, 51840, Note_on_c, 0, 61, 0
2, 51840, Note_on_c, 0, 64, 0
2, 51840, Note_on_c, 0, 62, 44
2, 51840, Note_on_c, 0, 74, 51
2, 51840, Note_on_c, 0, 59, 44
2, 51984, Note_on_c, 0, 74, 0
2, 52000, Note_on_c, 0, 74, 48
2, 52144, Note_on_c, 0, 74, 0
2, 52160, Note_on_c, 0, 74, 48
2, 52250, Note_on_c, 0, 74, 0
2, 52260, Note_on_c, 0, 74, 42
2, 52290, Note_on_c, 0, 76, 45
2, 52310, Note_on_c, 0, 74, 0
2, 52320, Note_on_c, 0, 74, 50
2, 52340, Note_on_c, 0, 76, 0
2, 52740, Note_on_c, 0, 74, 0
2, 52740, Note_on_c, 0, 78, 44
2, 52794, Note_on_c, 0, 78, 0
2, 52800, Note_on_c, 0, 59, 0
2, 52800, Note_on_c, 0, 62, 0
2, 52800, Note_on_c, 0, 62, 44
2, 52800, Note_on_c, 0, 66, 44
2, 52800, Note_on_c, 0, 78, 51
2, 52944, Note_on_c, 0, 78, 0
2, 52960, Note_on_c, 0, 78, 49
2, 53104, Note_on_c, 0, 78, 0
2, 53120, Note_on_c, 0, 78, 49
2, 53210, Note_on_c, 0, 78, 0
2, 53220, Note_on_c, 0, 78, 44
2, 53250, Note_on_c, 0, 80, 44
2, 53270, Note_on_c, 0, 78, 0
2, 53280, Note_on_c, 0, 78, 51
2, 53300, Note_on_c, 0, 80, 0
2, 53700, Note_on_c, 0, 78, 0
2, 53700, Note_on_c, 0, 73, 44
2, 53754, Note_on_c, 0, 73, 0
2, 53760, Note_on_c, 0, 66, 0
2, 53760, Note_on_c, 0, 62, 0
2, 53760, Note_on_c, 0, 61, 44
2, 53760, Note_on_c, 0, 57, 44
2, 53760, Note_on_c, 0, 73, 48
2, 53904, Note_on_c, 0, 73, 0
2, 53920, Note_on_c, 0, 73, 45
2, 54064, Note_on_c, 0, 73, 0
2, 54080, Note_on_c, 0, 73, 45
2, 54170, Note_on_c, 0, 73, 0
2, 54180, Note_on_c, 0, 73, 42
2, 54210, Note_on_c, 0, 74, 41
2, 54230, Note_on_c, 0, 73, 0
2, 54240, Note_on_c, 0, 73, 47
2, 54260, Note_on_c, 0, 74, 0
2, 54660, Note_on_c, 0, 73, 0
2, 54660, Note_on_c, 0, 73, 42
2, 54714, Note_on_c, 0, 73, 0
2, 54720, Note_on_c, 0, 73, 48
2, 54864, Note_on_c, 0, 73, 0
2, 54880, Note_on_c, 0, 73, 45
2, 55024, Note_on_c, 0, 73, 0
2, 55040, Note_on_c, 0, 73, 45
2, 55130, Note_on_c, 0, 73, 0
2, 55140, Note_on_c, 0, 73, 42
2, 55170, Note_on_c, 0, 74, 42
2, 55190, Note_on_c, 0, 73, 0
2, 55200, Note_on_c, 0, 73, 48
2, 55220, Note_on_c, 0, 74, 0
2, 55620, Note_on_c, 0, 73, 0
2, 55620, Note_on_c, 0, 73, 36
2, 55674, Note_on_c, 0, 73, 0
2, 55680, Note_on_c, 0, 73, 42
2, 55824, Note_on_c, 0, 73, 0
2, 55840, Note_on_c, 0, 73, 42
2, 55984, Note_on_c, 0, 73, 0
2, 56000, Note_on_c, 0, 73, 42
2, 56090, Note_on_c, 0, 73, 0
2, 56100, Note_on_c, 0, 73, 35
2, 56130, Note_on_c, 0, 74, 36
2, 56150, Note_on_c, 0, 73, 0
2, 56160, Note_on_c, 0, 61, 0
2, 56160, Note_on_c, 0, 57, 0
2, 56160, Note_on_c, 0, 73, 42
2, 56180, Note_on_c, 0, 74, 0
2, 56580, Note_on_c, 0, 73, 0
2, 56580, Note_on_c, 0, 78, 52
2, 56634, Note_on_c, 0, 78, 0
2, 56640, Note_on_c, 0, 62, 46
2, 56640, Note_on_c, 0, 78, 54
2, 56640, Note_on_c, 0, 66, 46
2, 56784, Note_on_c, 0, 78, 0
2, 56800, Note_on_c, 0, 78, 52
2, 56944, Note_on_c, 0, 78, 0
2, 56960, Note_on_c, 0, 78, 52
2, 57050, Note_on_c, 0, 78, 0
2, 57060, Note_on_c, 0, 78, 45
2, 57090, Note_on_c, 0, 80, 45
2, 57110, Note_on_c, 0, 78, 0
2, 57120, Note_on_c, 0, 78, 51
2, 57140, Note_on_c, 0, 80, 0
2, 57540, Note_on_c, 0, 78, 0
2, 57540, Note_on_c, 0, 78, 46
2, 57594, Note_on_c, 0, 78, 0
2, 57600, Note_on_c, 0, 78, 54
2, 57744, Note_on_c, 0, 78, 0
2, 57760, Note_on_c, 0, 78, 51
2, 57904, Note_on_c, 0, 78, 0
2, 57920, Note_on_c, 0, 78, 51
2, 58010, Note_on_c, 0, 78, 0
2, 58020, Note_on_c, 0, 78, 46
2, 58050, Note_on_c, 0, 80, 46
2, 58070, Note_on_c, 0, 78, 0
2, 58080, Note_on_c, 0, 78, 52
2, 58100, Note_on_c, 0, 80, 0
2, 58500, Note_on_c, 0, 78, 0
2, 58500, Note_on_c, 0, 76, 44
2, 58554, Note_on_c, 0, 76, 0
2, 58560, Note_on_c, 0, 66, 0
2, 58560, Note_on_c, 0, 62, 0
2, 58560, Note_on_c, 0, 76, 51
2, 58560, Note_on_c, 0, 64, 46
2, 58560, Note_on_c, 0, 61, 46
2, 58704, Note_on_c, 0, 76, 0
2, 58720, Note_on_c, 0, 76, 49
2, 58864, Note_on_c, 0, 76, 0
2, 58880, Note_on_c, 0, 76, 49
2, 58970, Note_on_c, 0, 76, 0
2, 58980, Note_on_c, 0, 76, 44
2, 59010, Note_on_c, 0, 78, 46
2, 59030, Note_on_c, 0, 76, 0
2, 59040, Note_on_c, 0, 76, 52
2, 59060, Note_on_c, 0, 78, 0
2, 59460, Note_on_c, 0, 76, 0
2, 59460, Note_on_c, 0, 74, 44
2, 59514, Note_on_c, 0, 74, 0
2, 59520, Note_on_c, 0, 61, 0
2, 59520, Note_on_c, 0, 64, 0
2, 59520, Note_on_c, 0, 62, 44
2, 59520, Note_on_c, 0, 74, 51
2, 59520, Note_on_c, 0, 59, 44
2, 59664, Note_on_c, 0, 74, 0
2, 59680, Note_on_c, 0, 74, 48
2, 59824, Note_on_c, 0, 74, 0
2, 59840, Note_on_c, 0, 74, 48
2, 59930, Note_on_c, 0, 74, 0
2, 59940, Note_on_c, 0, 74, 42
2, 59970, Note_on_c, 0, 76, 45
2, 59990, Note_on_c, 0, 74, 0
2, 60000, Note_on_c, 0, 74, 50
2, 60020, Note_on_c, 0, 76, 0
2, 60420, Note_on_c, 0, 74, 0
2, 60420, Note_on_c, 0, 78, 44
2, 60474, Note_on_c, 0, 78, 0
2, 60480, Note_on_c, 0, 59, 0
2, 60480, Note_on_c, 0, 62, 0
2, 60480, Note_on_c, 0, 62, 44
2, 60480, Note_on_c, 0, 66, 44
2, 60480, Note_on_c, 0, 78, 51
2, 60624, Note_on_c, 0, 78, 0
2, 60640, Note_on_c, 0, 78, 49
2, 60784, Note_on_c, 0, 78, 0
2, 60800, Note_on_c, 0, 78, 49
2, 60890, Note_on_c, 0, 78, 0
2, 60900, Note_on_c, 0, 78, 44
2, 60930, Note_on_c, 0, 80, 44
2, 60950, Note_on_c, 0, 78, 0
2, 60960, Note_on_c, 0, 78, 49
2, 60980, Note_on_c, 0, 80, 0
2, 61380, Note_on_c, 0, 78, 0
2, 61380, Note_on_c, 0, 73, 44
2, 61434, Note_on_c, 0, 73, 0
2, 61440, Note_on_c, 0, 66, 0
2, 61440, Note_on_c, 0, 62, 0
2, 61440, Note_on_c, 0, 57, 44
2, 61440, Note_on_c, 0, 61, 44
2, 61440, Note_on_c, 0, 73, 48
2, 61584, Note_on_c, 0, 73, 0
2, 61600, Note_on_c, 0, 73, 45
2, 61744, Note_on_c, 0, 73, 0
2, 61760, Note_on_c, 0, 73, 45
2, 61850, Note_on_c, 0, 73, 0
2, 61860, Note_on_c, 0, 73, 42
2, 61890, Note_on_c, 0, 74, 41
2, 61910, Note_on_c, 0, 73, 0
2, 61920, Note_on_c, 0, 73, 47
2, 61940, Note_on_c, 0, 74, 0
2, 62340, Note_on_c, 0, 73, 0
2, 62340, Note_on_c, 0, 73, 42
2, 62394, Note_on_c, 0, 73, 0
2, 62400, Note_on_c, 0, 73, 48
2, 62544, Note_on_c, 0, 73, 0
2, 62560, Note_on_c, 0, 73, 45
2, 62704, Note_on_c, 0, 73, 0
2, 62720, Note_on_c, 0, 73, 45
2, 62810, Note_on_c, 0, 73, 0
2, 62820, Note_on_c, 0, 73, 42
2, 62850, Note_on_c, 0, 74, 42
2, 62870, Note_on_c, 0, 73, 0
2, 62880, Note_on_c, 0, 73, 49
2, 62900, Note_on_c, 0, 74, 0
2, 63300, Note_on_c, 0, 73, 0
2, 63300, Note_on_c, 0, 73, 36
2, 63354, Note_on_c, 0, 73, 0
2, 63360, Note_on_c, 0, 73, 42
2, 63504, Note_on_c, 0, 73, 0
2, 63520, Note_on_c, 0, 73, 42
2, 63664, Note_on_c, 0, 73, 0
2, 63680, Note_on_c, 0, 73, 42
2, 63770, Note_on_c, 0, 73, 0
2, 63780, Note_on_c, 0, 73, 35
2, 63810, Note_on_c, 0, 74, 36
2, 63830, Note_on_c, 0, 73, 0
2, 63840, Note_on_c, 0, 57, 0
2, 63840, Note_on_c, 0, 61, 0
2, 63840, Note_on_c, 0, 73, 42
2, 63860, Note_on_c, 0, 74, 0
2, 64320, Note_on_c, 0, 73, 0
2, 64320, Note_on_c, 0, 72, 69
2, 64800, Note_on_c, 0, 72, 0
2, 64800, Note_on_c, 0, 75, 68
2, 64920, Note_on_c, 0, 75, 0
2, 64920, Note_on_c, 0, 76, 67
2, 65040, Note_on_c, 0, 76, 0
2, 65040, Note_on_c, 0, 80, 73
2, 65160, Note_on_c, 0, 80, 0
2, 65160, Note_on_c, 0, 81, 70
2, 65280, Note_on_c, 0, 81, 0
2, 65280, Note_on_c, 0, 80, 75
2, 65760, Note_on_c, 0, 80, 0
2, 65760, Note_on_c, 0, 76, 72
2, 65880, Note_on_c, 0, 76, 0
2, 65880, Note_on_c, 0, 75, 69
2, 66000, Note_on_c, 0, 75, 0
2, 66000, Note_on_c, 0, 73, 72
2, 66120, Note_on_c, 0, 73, 0
2, 66120, Note_on_c, 0, 72, 71
2, 66240, Note_on_c, 0, 72, 0
2, 66240, Note_on_c, 0, 73, 77
2, 66591, Note_on_c, 0, 73, 0
2, 66600, Note_on_c, 0, 73, 75
2, 66708, Note_on_c, 0, 73, 0
2, 66720, Note_on_c, 0, 73, 73
2, 66864, Note_on_c, 0, 73, 0
2, 66880, Note_on_c, 0, 73, 71
2, 67024, Note_on_c, 0, 73, 0
2, 67040, Note_on_c, 0, 73, 70
2, 67184, Note_on_c, 0, 73, 0
2, 67200, Note_on_c, 0, 73, 73
2, 67550, Note_on_c, 0, 73, 0
2, 67560, Note_on_c, 0, 73, 66
2, 67668, Note_on_c, 0, 73, 0
2, 67680, Note_on_c, 0, 73, 66
2, 67824, Note_on_c, 0, 73, 0
2, 67840, Note_on_c, 0, 73, 66
2, 67984, Note_on_c, 0, 73, 0
2, 68000, Note_on_c, 0, 73, 70
2, 68144, Note_on_c, 0, 73, 0
2, 68160, Note_on_c, 0, 72, 73
2, 68640, Note_on_c, 0, 72, 0
2, 68640, Note_on_c, 0, 75, 71
2, 68760, Note_on_c, 0, 75, 0
2, 68760, Note_on_c, 0, 76, 70
2, 68880, Note_on_c, 0, 76, 0
2, 68880, Note_on_c, 0, 80, 76
2, 69000, Note_on_c, 0, 80, 0
2, 69000, Note_on_c, 0, 81, 73
2, 69120, Note_on_c, 0, 81, 0
2, 69120, Note_on_c, 0, 80, 78
2, 69600, Note_on_c, 0, 80, 0
2, 69600, Note_on_c, 0, 76, 75
2, 69720, Note_on_c, 0, 76, 0
2, 69720, Note_on_c, 0, 75, 72
2, 69840, Note_on_c, 0, 75, 0
2, 69840, Note_on_c, 0, 73, 75
2, 69960, Note_on_c, 0, 73, 0
2, 69960, Note_on_c, 0, 72, 74
2, 70080, Note_on_c, 0, 72, 0
2, 70080, Note_on_c, 0, 73, 80
2, 70429, Note_on_c, 0, 73, 0
2, 70440, Note_on_c, 0, 73, 78
2, 70548, Note_on_c, 0, 73, 0
2, 70560, Note_on_c, 0, 73, 76
2, 70704, Note_on_c, 0, 73, 0
2, 70720, Note_on_c, 0, 73, 74
2, 70864, Note_on_c, 0, 73, 0
2, 70880, Note_on_c, 0, 73, 73
2, 71024, Note_on_c, 0, 73, 0
2, 71040, Note_on_c, 0, 73, 73
2, 71390, Note_on_c, 0, 73, 0
2, 71400, Note_on_c, 0, 73, 66
2, 71508, Note_on_c, 0, 73, 0
2, 71520, Note_on_c, 0, 73, 76
2, 71664, Note_on_c, 0, 73, 0
2, 71680, Note_on_c, 0, 73, 74
2, 71824, Note_on_c, 0, 73, 0
2, 71840, Note_on_c, 0, 73, 80
2, 71984, Note_on_c, 0, 73, 0
2, 72000, Note_on_c, 0, 73, 92
2, 72000, Note_on_c, 0, 61, 78
2, 72350, Note_on_c, 0, 61, 0
2, 72350, Note_on_c, 0, 73, 0
2, 72360, Note_on_c, 0, 61, 67
2, 72360, Note_on_c, 0, 73, 79
2, 72468, Note_on_c, 0, 73, 0
2, 72468, Note_on_c, 0, 61, 0
2, 72480, Note_on_c, 0, 61, 67
2, 72480, Note_on_c, 0, 73, 79
2, 72624, Note_on_c, 0, 73, 0
2, 72624, Note_on_c, 0, 61, 0
2, 72640, Note_on_c, 0, 61, 67
2, 72640, Note_on_c, 0, 73, 79
2, 72784, Note_on_c, 0, 73, 0
2, 72784, Note_on_c, 0, 61, 0
2, 72800, Note_on_c, 0, 61, 67
2, 72800, Note_on_c, 0, 73, 79
2, 72944, Note_on_c, 0, 73, 0
2, 72944, Note_on_c, 0, 61, 0
2, 72960, Note_on_c, 0, 61, 76
2, 72960, Note_on_c, 0, 73, 90
2, 73310, Note_on_c, 0, 73, 0
2, 73310, Note_on_c, 0, 61, 0
2, 73320, Note_on_c, 0, 73, 73
2, 73320, Note_on_c, 0, 61, 62
2, 73428, Note_on_c, 0, 61, 0
2, 73428, Note_on_c, 0, 73, 0
2, 73440, Note_on_c, 0, 61, 62
2, 73440, Note_on_c, 0, 73, 73
2, 73584, Note_on_c, 0, 73, 0
2, 73584, Note_on_c, 0, 61, 0
2, 73600, Note_on_c, 0, 73, 73
2, 73600, Note_on_c, 0, 61, 62
2, 73744, Note_on_c, 0, 61, 0
2, 73744, Note_on_c, 0, 73, 0
2, 73760, Note_on_c, 0, 61, 62
2, 73760, Note_on_c, 0, 73, 73
2, 73904, Note_on_c, 0, 73, 0
2, 73904, Note_on_c, 0, 61, 0
2, 73920, Note_on_c, 0, 69, 78
2, 73920, Note_on_c, 0, 81, 92
2, 74270, Note_on_c, 0, 81, 0
2, 74270, Note_on_c, 0, 69, 0
2, 74280, Note_on_c, 0, 80, 78
2, 74280, Note_on_c, 0, 68, 66
2, 74388, Note_on_c, 0, 68, 0
2, 74388, Note_on_c, 0, 80, 0
2, 74400, Note_on_c, 0, 68, 66
2, 74400, Note_on_c, 0, 80, 78
2, 74544, Note_on_c, 0, 80, 0
2, 74544, Note_on_c, 0, 68, 0
2, 74560, Note_on_c, 0, 80, 78
2, 74560, Note_on_c, 0, 68, 66
2, 74704, Note_on_c, 0, 68, 0
2, 74704, Note_on_c, 0, 80, 0
2, 74720, Note_on_c, 0, 68, 66
2, 74720, Note_on_c, 0, 80, 78
2, 74864, Note_on_c, 0, 80, 0
2, 74864, Note_on_c, 0, 68, 0
2, 74880, Note_on_c, 0, 66, 72
2, 74880, Note_on_c, 0, 78, 85
2, 75230, Note_on_c, 0, 78, 0
2, 75230, Note_on_c, 0, 66, 0
2, 75240, Note_on_c, 0, 80, 73
2, 75240, Note_on_c, 0, 68, 62
2, 75348, Note_on_c, 0, 68, 0
2, 75348, Note_on_c, 0, 80, 0
2, 75360, Note_on_c, 0, 68, 62
2, 75360, Note_on_c, 0, 80, 73
2, 75504, Note_on_c, 0, 80, 0
2, 75504, Note_on_c, 0, 68, 0
2, 75520, Note_on_c, 0, 80, 73
2, 75520, Note_on_c, 0, 68, 62
2, 75664, Note_on_c, 0, 68, 0
2, 75664, Note_on_c, 0, 80, 0
2, 75680, Note_on_c, 0, 68, 62
2, 75680, Note_on_c, 0, 80, 73
2, 75824, Note_on_c, 0, 80, 0
2, 75824, Note_on_c, 0, 68, 0
2, 75840, Note_on_c, 0, 61, 78
2, 75840, Note_on_c, 0, 73, 92
2, 76190, Note_on_c, 0, 73, 0
2, 76190, Note_on_c, 0, 61, 0
2, 76200, Note_on_c, 0, 73, 79
2, 76200, Note_on_c, 0, 61, 67
2, 76308, Note_on_c, 0, 61, 0
2, 76308, Note_on_c, 0, 73, 0
2, 76320, Note_on_c, 0, 61, 67
2, 76320, Note_on_c, 0, 73, 79
2, 76464, Note_on_c, 0, 73, 0
2, 76464, Note_on_c, 0, 61, 0
2, 76480, Note_on_c, 0, 73, 79
2, 76480, Note_on_c, 0, 61, 67
2, 76624, Note_on_c, 0, 61, 0
2, 76624, Note_on_c, 0, 73, 0
2, 76640, Note_on_c, 0, 73, 79
2, 76640, Note_on_c, 0, 61, 67
2, 76784, Note_on_c, 0, 61, 0
2, 76784, Note_on_c, 0, 73, 0
2, 76800, Note_on_c, 0, 61, 76
2, 76800, Note_on_c, 0, 73, 90
2, 77150, Note_on_c, 0, 73, 0
2, 77150, Note_on_c, 0, 61, 0
2, 77160, Note_on_c, 0, 73, 73
2, 77160, Note_on_c, 0, 61, 62
2, 77268, Note_on_c, 0, 61, 0
2, 77268, Note_on_c, 0, 73, 0
2, 77280, Note_on_c, 0, 61, 62
2, 77280, Note_on_c, 0, 73, 73
2, 77424, Note_on_c, 0, 73, 0
2, 77424, Note_on_c, 0, 61, 0
2, 77440, Note_on_c, 0, 61, 62
2, 77440, Note_on_c, 0, 73, 73
2, 77584, Note_on_c, 0, 73, 0
2, 77584, Note_on_c, 0, 61, 0
2, 77600, Note_on_c, 0, 73, 73
2, 77600, Note_on_c, 0, 61, 62
2, 77744, Note_on_c, 0, 61, 0
2, 77744, Note_on_c, 0, 73, 0
2, 77760, Note_on_c, 0, 61, 78
2, 77760, Note_on_c, 0, 73, 92
2, 78110, Note_on_c, 0, 73, 0
2, 78110, Note_on_c, 0, 61, 0
2, 78120, Note_on_c, 0, 73, 79
2, 78120, Note_on_c, 0, 61, 67
2, 78228, Note_on_c, 0, 61, 0
2, 78228, Note_on_c, 0, 73, 0
2, 78240, Note_on_c, 0, 61, 67
2, 78240, Note_on_c, 0, 73, 79
2, 78384, Note_on_c, 0, 73, 0
2, 78384, Note_on_c, 0, 61, 0
2, 78400, Note_on_c, 0, 61, 67
2, 78400, Note_on_c, 0, 73, 79
2, 78544, Note_on_c, 0, 73, 0
2, 78544, Note_on_c, 0, 61, 0
2, 78560, Note_on_c, 0, 73, 79
2, 78560, Note_on_c, 0, 61, 67
2, 78704, Note_on_c, 0, 61, 0
2, 78704, Note_on_c, 0, 73, 0
2, 78720, Note_on_c, 0, 61, 76
2, 78720, Note_on_c, 0, 73, 90
2, 79070, Note_on_c, 0, 73, 0
2, 79070, Note_on_c, 0, 61, 0
2, 79080, Note_on_c, 0, 73, 73
2, 79080, Note_on_c, 0, 61, 62
2, 79188, Note_on_c, 0, 61, 0
2, 79188, Note_on_c, 0, 73, 0
2, 79200, Note_on_c, 0, 61, 62
2, 79200, Note_on_c, 0, 73, 73
2, 79344, Note_on_c, 0, 73, 0
2, 79344, Note_on_c, 0, 61, 0
2, 79360, Note_on_c, 0, 61, 62
2, 79360, Note_on_c, 0, 73, 73
2, 79504, Note_on_c, 0, 73, 0
2, 79504, Note_on_c, 0, 61, 0
2, 79520, Note_on_c, 0, 73, 73
2, 79520, Note_on_c, 0, 61, 62
2, 79664, Note_on_c, 0, 61, 0
2, 79664, Note_on_c, 0, 73, 0
2, 79680, Note_on_c, 0, 69, 78
2, 79680, Note_on_c, 0, 81, 92
2, 80030, Note_on_c, 0, 81, 0
2, 80040, Note_on_c, 0, 69, 0
2, 80040, Note_on_c, 0, 80, 78
2, 80040, Note_on_c, 0, 68, 66
2, 80148, Note_on_c, 0, 68, 0
2, 80148, Note_on_c, 0, 80, 0
2, 80160, Note_on_c, 0, 68, 66
2, 80160, Note_on_c, 0, 80, 78
2, 80304, Note_on_c, 0, 80, 0
2, 80304, Note_on_c, 0, 68, 0
2, 80320, Note_on_c, 0, 68, 66
2, 80320, Note_on_c, 0, 80, 78
2, 80464, Note_on_c, 0, 80, 0
2, 80464, Note_on_c, 0, 68, 0
2, 80480, Note_on_c, 0, 68, 66
2, 80480, Note_on_c, 0, 80, 78
2, 80624, Note_on_c, 0, 80, 0
2, 80624, Note_on_c, 0, 68, 0
2, 80640, Note_on_c, 0, 66, 72
2, 80640, Note_on_c, 0, 78, 85
2, 81000, Note_on_c, 0, 78, 0
2, 81000, Note_on_c, 0, 66, 0
2, 81000, Note_on_c, 0, 68, 62
2, 81000, Note_on_c, 0, 80, 73
2, 81108, Note_on_c, 0, 80, 0
2, 81108, Note_on_c, 0, 68, 0
2, 81120, Note_on_c, 0, 80, 73
2, 81120, Note_on_c, 0, 68, 62
2, 81264, Note_on_c, 0, 68, 0
2, 81264, Note_on_c, 0, 80, 0
2, 81280, Note_on_c, 0, 68, 62
2, 81280, Note_on_c, 0, 80, 73
2, 81424, Note_on_c, 0, 80, 0
2, 81424, Note_on_c, 0, 68, 0
2, 81440, Note_on_c, 0, 80, 73
2, 81440, Note_on_c, 0, 68, 62
2, 81584, Note_on_c, 0, 68, 0
2, 81584, Note_on_c, 0, 80, 0
2, 81600, Note_on_c, 0, 61, 78
2, 81600, Note_on_c, 0, 73, 92
2, 81950, Note_on_c, 0, 73, 0
2, 81950, Note_on_c, 0, 61, 0
2, 81960, Note_on_c, 0, 61, 67
2, 81960, Note_on_c, 0, 73, 79
2, 82068, Note_on_c, 0, 73, 0
2, 82068, Note_on_c, 0, 61, 0
2, 82080, Note_on_c, 0, 73, 79
2, 82080, Note_on_c, 0, 61, 67
2, 82224, Note_on_c, 0, 61, 0
2, 82224, Note_on_c, 0, 73, 0
2, 82240, Note_on_c, 0, 61, 67
2, 82240, Note_on_c, 0, 73, 79
2, 82384, Note_on_c, 0, 73, 0
2, 82384, Note_on_c, 0, 61, 0
2, 82400, Note_on_c, 0, 73, 79
2, 82400, Note_on_c, 0, 61, 67
2, 82544, Note_on_c, 0, 61, 0
2, 82544, Note_on_c, 0, 73, 0
2, 82560, Note_on_c, 0, 61, 76
2, 82560, Note_on_c, 0, 73, 90
2, 82910, Note_on_c, 0, 73, 0
2, 82910, Note_on_c, 0, 61, 0
2, 82920, Note_on_c, 0, 61, 58
2, 82920, Note_on_c, 0, 73, 69
2, 83028, Note_on_c, 0, 73, 0
2, 83028, Note_on_c, 0, 61, 0
2, 83040, Note_on_c, 0, 73, 69
2, 83040, Note_on_c, 0, 61, 58
2, 83184, Note_on_c, 0, 61, 0
2, 83184, Note_on_c, 0, 73, 0
2, 83200, Note_on_c, 0, 61, 58
2, 83200, Note_on_c, 0, 73, 69
2, 83344, Note_on_c, 0, 73, 0
2, 83344, Note_on_c, 0, 61, 0
2, 83360, Note_on_c, 0, 73, 69
2, 83360, Note_on_c, 0, 61, 58
2, 83504, Note_on_c, 0, 61, 0
2, 83504, Note_on_c, 0, 73, 0
2, 83520, Note_on_c, 0, 61, 69
2, 83520, Note_on_c, 0, 73, 82
2, 83870, Note_on_c, 0, 73, 0
2, 83870, Note_on_c, 0, 61, 0
2, 83880, Note_on_c, 0, 61, 63
2, 83880, Note_on_c, 0, 73, 75
2, 83988, Note_on_c, 0, 73, 0
2, 83988, Note_on_c, 0, 61, 0
2, 84000, Note_on_c, 0, 73, 75
2, 84000, Note_on_c, 0, 61, 63
2, 84144, Note_on_c, 0, 61, 0
2, 84144, Note_on_c, 0, 73, 0
2, 84160, Note_on_c, 0, 61, 63
2, 84160, Note_on_c, 0, 73, 75
2, 84304, Note_on_c, 0, 73, 0
2, 84304, Note_on_c, 0, 61, 0
2, 84320, Note_on_c, 0, 73, 75
2, 84320, Note_on_c, 0, 61, 63
2, 84464, Note_on_c, 0, 61, 0
2, 84464, Note_on_c, 0, 73, 0
2, 84480, Note_on_c, 0, 61, 70
2, 84480, Note_on_c, 0, 73, 83
2, 84830, Note_on_c, 0, 73, 0
2, 84830, Note_on_c, 0, 61, 0
2, 84840, Note_on_c, 0, 61, 62
2, 84840, Note_on_c, 0, 73, 73
2, 84948, Note_on_c, 0, 73, 0
2, 84948, Note_on_c, 0, 61, 0
2, 84960, Note_on_c, 0, 61, 62
2, 84960, Note_on_c, 0, 73, 73
2, 85104, Note_on_c, 0, 73, 0
2, 85104, Note_on_c, 0, 61, 0
2, 85120, Note_on_c, 0, 73, 73
2, 85120, Note_on_c, 0, 61, 62
2, 85264, Note_on_c, 0, 61, 0
2, 85264, Note_on_c, 0, 73, 0
2, 85280, Note_on_c, 0, 61, 62
2, 85280, Note_on_c, 0, 73, 73
2, 85424, Note_on_c, 0, 73, 0
2, 85424, Note_on_c, 0, 61, 0
2, 85440, Note_on_c, 0, 73, 88
2, 85440, Note_on_c, 0, 61, 74
2, 85790, Note_on_c, 0, 61, 0
2, 85790, Note_on_c, 0, 73, 0
2, 85800, Note_on_c, 0, 61, 67
2, 85800, Note_on_c, 0, 73, 79
2, 85908, Note_on_c, 0, 73, 0
2, 85908, Note_on_c, 0, 61, 0
2, 85920, Note_on_c, 0, 61, 67
2, 85920, Note_on_c, 0, 73, 79
2, 86064, Note_on_c, 0, 73, 0
2, 86064, Note_on_c, 0, 61, 0
2, 86080, Note_on_c, 0, 73, 79
2, 86080, Note_on_c, 0, 61, 67
2, 86224, Note_on_c, 0, 61, 0
2, 86224, Note_on_c, 0, 73, 0
2, 86240, Note_on_c, 0, 61, 67
2, 86240, Note_on_c, 0, 73, 79
2, 86384, Note_on_c, 0, 73, 0
2, 86384, Note_on_c, 0, 61, 0
2, 86400, Note_on_c, 0, 73, 90
2, 86400, Note_on_c, 0, 61, 76
2, 86750, Note_on_c, 0, 61, 0
2, 86750, Note_on_c, 0, 73, 0
2, 86760, Note_on_c, 0, 61, 66
2, 86760, Note_on_c, 0, 73, 78
2, 86868, Note_on_c, 0, 73, 0
2, 86868, Note_on_c, 0, 61, 0
2, 86880, Note_on_c, 0, 61, 66
2, 86880, Note_on_c, 0, 73, 78
2, 87024, Note_on_c, 0, 73, 0
2, 87024, Note_on_c, 0, 61, 0
2, 87040, Note_on_c, 0, 73, 78
2, 87040, Note_on_c, 0, 61, 66
2, 87184, Note_on_c, 0, 61, 0
2, 87184, Note_on_c, 0, 73, 0
2, 87200, Note_on_c, 0, 61, 65
2, 87200, Note_on_c, 0, 73, 77
2, 87344, Note_on_c, 0, 73, 0
2, 87344, Note_on_c, 0, 61, 0
2, 87360, Note_on_c, 0, 73, 88
2, 87360, Note_on_c, 0, 61, 74
2, 87710, Note_on_c, 0, 61, 0
2, 87710, Note_on_c, 0, 73, 0
2, 87720, Note_on_c, 0, 61, 68
2, 87720, Note_on_c, 0, 73, 80
2, 87828, Note_on_c, 0, 73, 0
2, 87828, Note_on_c, 0, 61, 0
2, 87840, Note_on_c, 0, 61, 68
2, 87840, Note_on_c, 0, 73, 80
2, 87984, Note_on_c, 0, 73, 0
2, 87984, Note_on_c, 0, 61, 0
2, 88000, Note_on_c, 0, 73, 80
2, 88000, Note_on_c, 0, 61, 68
2, 88144, Note_on_c, 0, 61, 0
2, 88144, Note_on_c, 0, 73, 0
2, 88160, Note_on_c, 0, 61, 67
2, 88160, Note_on_c, 0, 73, 79
2, 88304, Note_on_c, 0, 73, 0
2, 88304, Note_on_c, 0, 61, 0
2, 88320, Note_on_c, 0, 81, 92
2, 88320, Note_on_c, 0, 69, 78
2, 88680, Note_on_c, 0, 69, 0
2, 88680, Note_on_c, 0, 81, 0
2, 88680, Note_on_c, 0, 80, 78
2, 88680, Note_on_c, 0, 68, 66
2, 88788, Note_on_c, 0, 68, 0
2, 88788, Note_on_c, 0, 80, 0
2, 88800, Note_on_c, 0, 68, 66
2, 88800, Note_on_c, 0, 80, 78
2, 88944, Note_on_c, 0, 80, 0
2, 88944, Note_on_c, 0, 68, 0
2, 88960, Note_on_c, 0, 80, 78
2, 88960, Note_on_c, 0, 68, 66
2, 89104, Note_on_c, 0, 68, 0
2, 89104, Note_on_c, 0, 80, 0
2, 89120, Note_on_c, 0, 68, 66
2, 89120, Note_on_c, 0, 80, 78
2, 89264, Note_on_c, 0, 80, 0
2, 89264, Note_on_c, 0, 68, 0
2, 89280, Note_on_c, 0, 66, 72
2, 89280, Note_on_c, 0, 78, 85
2, 89640, Note_on_c, 0, 78, 0
2, 89640, Note_on_c, 0, 66, 0
2, 89640, Note_on_c, 0, 80, 73
2, 89640, Note_on_c, 0, 68, 62
2, 89748, Note_on_c, 0, 68, 0
2, 89748, Note_on_c, 0, 80, 0
2, 89760, Note_on_c, 0, 68, 62
2, 89760, Note_on_c, 0, 80, 73
2, 89904, Note_on_c, 0, 80, 0
2, 89904, Note_on_c, 0, 68, 0
2, 89920, Note_on_c, 0, 80, 73
2, 89920, Note_on_c, 0, 68, 62
2, 90064, Note_on_c, 0, 68, 0
2, 90064, Note_on_c, 0, 80, 0
2, 90080, Note_on_c, 0, 68, 62
2, 90080, Note_on_c, 0, 80, 73
2, 90224, Note_on_c, 0, 80, 0
2, 90224, Note_on_c, 0, 68, 0
2, 90240, Note_on_c, 0, 61, 76
2, 90240, Note_on_c, 0, 73, 90
2, 90590, Note_on_c, 0, 73, 0
2, 90590, Note_on_c, 0, 61, 0
2, 90600, Note_on_c, 0, 73, 73
2, 90600, Note_on_c, 0, 61, 62
2, 90708, Note_on_c, 0, 61, 0
2, 90708, Note_on_c, 0, 73, 0
2, 90720, Note_on_c, 0, 61, 62
2, 90720, Note_on_c, 0, 73, 73
2, 90864, Note_on_c, 0, 73, 0
2, 90864, Note_on_c, 0, 61, 0
2, 90880, Note_on_c, 0, 73, 73
2, 90880, Note_on_c, 0, 61, 62
2, 91024, Note_on_c, 0, 61, 0
2, 91024, Note_on_c, 0, 73, 0
2, 91040, Note_on_c, 0, 61, 62
2, 91040, Note_on_c, 0, 73, 73
2, 91184, Note_on_c, 0, 73, 0
2, 91184, Note_on_c, 0, 61, 0
2, 91200, Note_on_c, 0, 61, 78
2, 91200, Note_on_c, 0, 73, 92
2, 91550, Note_on_c, 0, 73, 0
2, 91550, Note_on_c, 0, 61, 0
2, 91560, Note_on_c, 0, 73, 79
2, 91560, Note_on_c, 0, 61, 67
2, 91668, Note_on_c, 0, 61, 0
2, 91668, Note_on_c, 0, 73, 0
2, 91680, Note_on_c, 0, 61, 67
2, 91680, Note_on_c, 0, 73, 79
2, 91824, Note_on_c, 0, 73, 0
2, 91824, Note_on_c, 0, 61, 0
2, 91840, Note_on_c, 0, 73, 79
2, 91840, Note_on_c, 0, 61, 67
2, 91984, Note_on_c, 0, 61, 0
2, 91984, Note_on_c, 0, 73, 0
2, 92000, Note_on_c, 0, 61, 67
2, 92000, Note_on_c, 0, 73, 79
2, 92144, Note_on_c, 0, 73, 0
2, 92144, Note_on_c, 0, 61, 0
2, 92160, Note_on_c, 0, 61, 76
2, 92160, Note_on_c, 0, 73, 90
2, 92510, Note_on_c, 0, 73, 0
2, 92510, Note_on_c, 0, 61, 0
2, 92520, Note_on_c, 0, 61, 62
2, 92520, Note_on_c, 0, 73, 73
2, 92628, Note_on_c, 0, 73, 0
2, 92628, Note_on_c, 0, 61, 0
2, 92640, Note_on_c, 0, 61, 62
2, 92640, Note_on_c, 0, 73, 73
2, 92784, Note_on_c, 0, 73, 0
2, 92784, Note_on_c, 0, 61, 0
2, 92800, Note_on_c, 0, 61, 62
2, 92800, Note_on_c, 0, 73, 73
2, 92944, Note_on_c, 0, 73, 0
2, 92944, Note_on_c, 0, 61, 0
2, 92960, Note_on_c, 0, 73, 73
2, 92960, Note_on_c, 0, 61, 62
2, 93104, Note_on_c, 0, 61, 0
2, 93104, Note_on_c, 0, 73, 0
2, 93120, Note_on_c, 0, 61, 74
2, 93120, Note_on_c, 0, 73, 88
2, 93470, Note_on_c, 0, 73, 0
2, 93470, Note_on_c, 0, 61, 0
2, 93480, Note_on_c, 0, 73, 79
2, 93480, Note_on_c, 0, 61, 67
2, 93588, Note_on_c, 0, 61, 0
2, 93588, Note_on_c, 0, 73, 0
2, 93600, Note_on_c, 0, 61, 67
2, 93600, Note_on_c, 0, 73, 79
2, 93744, Note_on_c, 0, 73, 0
2, 93744, Note_on_c, 0, 61, 0
2, 93760, Note_on_c, 0, 61, 67
2, 93760, Note_on_c, 0, 73, 79
2, 93904, Note_on_c, 0, 73, 0
2, 93904, Note_on_c, 0, 61, 0
2, 93920, Note_on_c, 0, 73, 79
2, 93920, Note_on_c, 0, 61, 67
2, 94064, Note_on_c, 0, 61, 0
2, 94064, Note_on_c, 0, 73, 0
2, 94080, Note_on_c, 0, 61, 76
2, 94080, Note_on_c, 0, 73, 90
2, 94430, Note_on_c, 0, 73, 0
2, 94430, Note_on_c, 0, 61, 0
2, 94440, Note_on_c, 0, 73, 82
2, 94440, Note_on_c, 0, 61, 69
2, 94548, Note_on_c, 0, 61, 0
2, 94548, Note_on_c, 0, 73, 0
2, 94560, Note_on_c, 0, 61, 68
2, 94560, Note_on_c, 0, 73, 81
2, 94704, Note_on_c, 0, 73, 0
2, 94704, Note_on_c, 0, 61, 0
2, 94720, Note_on_c, 0, 61, 68
2, 94720, Note_on_c, 0, 73, 81
2, 94864, Note_on_c, 0, 73, 0
2, 94864, Note_on_c, 0, 61, 0
2, 94880, Note_on_c, 0, 73, 81
2, 94880, Note_on_c, 0, 61, 68
2, 95024, Note_on_c, 0, 61, 0
2, 95024, Note_on_c, 0, 73, 0
2, 95040, Note_on_c, 0, 61, 80
2, 95040, Note_on_c, 0, 73, 95
2, 95390, Note_on_c, 0, 73, 0
2, 95390, Note_on_c, 0, 61, 0
2, 95400, Note_on_c, 0, 73, 78
2, 95400, Note_on_c, 0, 61, 66
2, 95508, Note_on_c, 0, 61, 0
2, 95508, Note_on_c, 0, 73, 0
2, 95520, Note_on_c, 0, 61, 67
2, 95520, Note_on_c, 0, 73, 79
2, 95664, Note_on_c, 0, 73, 0
2, 95664, Note_on_c, 0, 61, 0
2, 95680, Note_on_c, 0, 61, 69
2, 95680, Note_on_c, 0, 73, 82
2, 95824, Note_on_c, 0, 73, 0
2, 95824, Note_on_c, 0, 61, 0
2, 95840, Note_on_c, 0, 73, 84
2, 95840, Note_on_c, 0, 61, 71
2, 95984, Note_on_c, 0, 61, 0
2, 95984, Note_on_c, 0, 73, 0
2, 96000, Note_on_c, 0, 61, 80
2, 96000, Note_on_c, 0, 65, 80
2, 96000, Note_on_c, 0, 73, 95
2, 96000, Note_on_c, 0, 69, 80
2, 96480, Note_on_c, 0, 69, 0
2, 96480, Note_on_c, 0, 61, 0
2, 96480, Note_on_c, 0, 65, 0
2, 96480, Note_on_c, 0, 73, 0
2, 97920, Note_on_c, 0, 65, 54
2, 98880, Note_on_c, 0, 65, 0
2, 98880, Note_on_c, 0, 60, 62
2, 98880, Note_on_c, 0, 64, 62
2, 99840, Note_on_c, 0, 64, 0
2, 99840, Note_on_c, 0, 60, 0
2, 99840, Note_on_c, 0, 63, 68
2, 99840, Note_on_c, 0, 60, 68
2, 100320, Note_on_c, 0, 63, 0
2, 100320, Note_on_c, 0, 62, 63
2, 100480, Note_on_c, 0, 62, 0
2, 100480, Note_on_c, 0, 63, 67
2, 100640, Note_on_c, 0, 63, 0
2, 100640, Note_on_c, 0, 62, 63
2, 100800, Note_on_c, 0, 62, 0
2, 100800, Note_on_c, 0, 60, 0
2, 100800, Note_on_c, 0, 58, 59
2, 100800, Note_on_c, 0, 61, 59
2, 101760, Note_on_c, 0, 61, 0
2, 101760, Note_on_c, 0, 58, 0
2, 101760, Note_on_c, 0, 60, 56
2, 101760, Note_on_c, 0, 57, 56
2, 102180, Note_on_c, 0, 57, 0
2, 102180, Note_on_c, 0, 60, 0
2, 102180, Note_on_c, 0, 64, 86
2, 102240, Note_on_c, 0, 64, 0
2, 102240, Note_on_c, 0, 65, 100
2, 102480, Note_on_c, 0, 65, 0
2, 102720, Note_on_c, 0, 64, 62
2, 102720, Note_on_c, 0, 60, 62
2, 103680, Note_on_c, 0, 60, 0
2, 103680, Note_on_c, 0, 64, 0
2, 103680, Note_on_c, 0, 63, 68
2, 103680, Note_on_c, 0, 59, 68
2, 104160, Note_on_c, 0, 63, 0
2, 104160, Note_on_c, 0, 62, 63
2, 104320, Note_on_c, 0, 62, 0
2, 104320, Note_on_c, 0, 63, 67
2, 104480, Note_on_c, 0, 63, 0
2, 104480, Note_on_c, 0, 62, 63
2, 104640, Note_on_c, 0, 62, 0
2, 104640, Note_on_c, 0, 59, 0
2, 104640, Note_on_c, 0, 58, 59
2, 104640, Note_on_c, 0, 61, 59
2, 105600, Note_on_c, 0, 61, 0
2, 105600, Note_on_c, 0, 58, 0
2, 105600, Note_on_c, 0, 57, 56
2, 105600, Note_on_c, 0, 60, 56
2, 106020, Note_on_c, 0, 60, 0
2, 106020, Note_on_c, 0, 57, 0
2, 106020, Note_on_c, 0, 64, 86
2, 106080, Note_on_c, 0, 64, 0
2, 106080, Note_on_c, 0, 65, 100
2, 106320, Note_on_c, 0, 65, 0
2, 107280, Note_on_c, 0, 64, 93
2, 107360, Note_on_c, 0, 64, 0
2, 107360, Note_on_c, 0, 65, 93
2, 107440, Note_on_c, 0, 65, 0
2, 107440, Note_on_c, 0, 64, 93
2, 107520, Note_on_c, 0, 64, 0
2, 107520, Note_on_c, 0, 61, 100
2, 108960, Note_on_c, 0, 61, 0
2, 109920, Note_on_c, 0, 84, 100
2, 109920, Note_on_c, 0, 72, 90
2, 110080, Note_on_c, 0, 72, 0
2, 110080, Note_on_c, 0, 84, 0
2, 110080, Note_on_c, 0, 85, 96
2, 110080, Note_on_c, 0, 73, 86
2, 110240, Note_on_c, 0, 73, 0
2, 110240, Note_on_c, 0, 85, 0
2, 110240, Note_on_c, 0, 70, 85
2, 110240, Note_on_c, 0, 82, 95
2, 110384, Note_on_c, 0, 82, 0
2, 110384, Note_on_c, 0, 70, 0
2, 110400, Note_on_c, 0, 70, 90
2, 110400, Note_on_c, 0, 82, 100
2, 113280, Note_on_c, 0, 82, 0
2, 113280, Note_on_c, 0, 70, 0
2, 113280, End_track
3, 0, Start_track
3, 0, Title_t, "Piano left"
3, 0, Program_c, 0, 0
3, 0, Control_c, 0, 7, 100
3, 0, Control_c, 0, 10, 64
3, 3780, Note_on_c, 0, 46, 70
3, 3840, Note_on_c, 0, 46, 0
3, 3840, Note_on_c, 0, 53, 77
3, 4320, Note_on_c, 0, 53, 0
3, 4680, Note_on_c, 0, 52, 70
3, 4740, Note_on_c, 0, 52, 0
3, 4740, Note_on_c, 0, 53, 70
3, 4800, Note_on_c, 0, 53, 0
3, 4800, Note_on_c, 0, 52, 80
3, 6240, Note_on_c, 0, 52, 0
3, 6720, Note_on_c, 0, 45, 70
3, 6880, Note_on_c, 0, 45, 0
3, 6880, Note_on_c, 0, 46, 70
3, 7040, Note_on_c, 0, 46, 0
3, 7040, Note_on_c, 0, 48, 70
3, 7200, Note_on_c, 0, 48, 0
3, 7200, Note_on_c, 0, 49, 75
3, 7620, Note_on_c, 0, 49, 0
3, 7620, Note_on_c, 0, 46, 70
3, 7680, Note_on_c, 0, 46, 0
3, 7680, Note_on_c, 0, 53, 75
3, 8160, Note_on_c, 0, 53, 0
3, 8520, Note_on_c, 0, 52, 70
3, 8560, Note_on_c, 0, 52, 0
3, 8560, Note_on_c, 0, 53, 70
3, 8600, Note_on_c, 0, 53, 0
3, 8600, Note_on_c, 0, 52, 70
3, 8640, Note_on_c, 0, 52, 0
3, 8640, Note_on_c, 0, 49, 79
3, 10080, Note_on_c, 0, 49, 0
3, 10560, Note_on_c, 0, 45, 72
3, 10800, Note_on_c, 0, 45, 0
3, 10800, Note_on_c, 0, 46, 70
3, 11040, Note_on_c, 0, 46, 0
3, 11040, Note_on_c, 0, 48, 70
3, 11280, Note_on_c, 0, 48, 0
3, 11280, Note_on_c, 0, 49, 70
3, 11520, Note_on_c, 0, 49, 0
3, 11520, Note_on_c, 0, 51, 70
3, 12240, Note_on_c, 0, 51, 0
3, 12240, Note_on_c, 0, 53, 73
3, 12480, Note_on_c, 0, 53, 0
3, 12480, Note_on_c, 0, 54, 76
3, 12720, Note_on_c, 0, 54, 0
3, 12960, Note_on_c, 0, 57, 77
3, 13200, Note_on_c, 0, 57, 0
3, 13440, Note_on_c, 0, 58, 81
3, 14400, Note_on_c, 0, 58, 0
3, 14400, Note_on_c, 0, 56, 77
3, 14880, Note_on_c, 0, 56, 0
3, 14880, Note_on_c, 0, 54, 74
3, 15360, Note_on_c, 0, 54, 0
3, 15360, Note_on_c, 0, 57, 77
3, 15680, Note_on_c, 0, 57, 0
3, 15680, Note_on_c, 0, 54, 74
3, 16000, Note_on_c, 0, 54, 0
3, 16000, Note_on_c, 0, 53, 70
3, 16300, Note_on_c, 0, 53, 0
3, 16320, Note_on_c, 0, 53, 76
3, 17160, Note_on_c, 0, 53, 0
3, 17160, Note_on_c, 0, 57, 70
3, 17280, Note_on_c, 0, 57, 0
3, 17280, Note_on_c, 0, 53, 75
3, 17760, Note_on_c, 0, 53, 0
3, 18240, Note_on_c, 0, 45, 72
3, 18480, Note_on_c, 0, 45, 0
3, 18480, Note_on_c, 0, 46, 70
3, 18720, Note_on_c, 0, 46, 0
3, 18720, Note_on_c, 0, 48, 70
3, 18960, Note_on_c, 0, 48, 0
3, 18960, Note_on_c, 0, 49, 70
3, 19200, Note_on_c, 0, 49, 0
3, 19200, Note_on_c, 0, 51, 70
3, 19920, Note_on_c, 0, 51, 0
3, 19920, Note_on_c, 0, 53, 73
3, 20160, Note_on_c, 0, 53, 0
3, 20160, Note_on_c, 0, 54, 76
3, 20400, Note_on_c, 0, 54, 0
3, 20640, Note_on_c, 0, 57, 77
3, 20880, Note_on_c, 0, 57, 0
3, 21120, Note_on_c, 0, 58, 81
3, 22080, Note_on_c, 0, 58, 0
3, 22080, Note_on_c, 0, 57, 77
3, 22560, Note_on_c, 0, 57, 0
3, 22560, Note_on_c, 0, 54, 74
3, 23040, Note_on_c, 0, 54, 0
3, 23040, Note_on_c, 0, 56, 77
3, 23360, Note_on_c, 0, 56, 0
3, 23360, Note_on_c, 0, 54, 74
3, 23680, Note_on_c, 0, 54, 0
3, 23680, Note_on_c, 0, 53, 70
3, 23980, Note_on_c, 0, 53, 0
3, 24000, Note_on_c, 0, 53, 76
3, 26160, Note_on_c, 0, 53, 0
3, 26820, Note_on_c, 0, 46, 70
3, 26880, Note_on_c, 0, 46, 0
3, 26880, Note_on_c, 0, 53, 75
3, 27360, Note_on_c, 0, 53, 0
3, 27720, Note_on_c, 0, 52, 70
3, 27760, Note_on_c, 0, 52, 0
3, 27760, Note_on_c, 0, 53, 70
3, 27800, Note_on_c, 0, 53, 0
3, 27800, Note_on_c, 0, 52, 70
3, 27840, Note_on_c, 0, 52, 0
3, 27840, Note_on_c, 0, 49, 79
3, 28680, Note_on_c, 0, 49, 0
3, 28680, Note_on_c, 0, 48, 70
3, 28720, Note_on_c, 0, 48, 0
3, 28720, Note_on_c, 0, 49, 68
3, 28760, Note_on_c, 0, 49, 0
3, 28760, Note_on_c, 0, 45, 68
3, 28800, Note_on_c, 0, 45, 0
3, 28800, Note_on_c, 0, 49, 78
3, 29580, Note_on_c, 0, 49, 0
3, 29580, Note_on_c, 0, 48, 66
3, 29610, Note_on_c, 0, 48, 0
3, 29610, Note_on_c, 0, 49, 66
3, 29640, Note_on_c, 0, 49, 0
3, 29640, Note_on_c, 0, 48, 66
3, 29680, Note_on_c, 0, 48, 0
3, 29680, Note_on_c, 0, 46, 66
3, 29720, Note_on_c, 0, 46, 0
3, 29720, Note_on_c, 0, 45, 66
3, 29760, Note_on_c, 0, 45, 0
3, 29760, Note_on_c, 0, 49, 70
3, 36000, Note_on_c, 0, 49, 0
3, 39360, Note_on_c, 0, 49, 42
3, 43680, Note_on_c, 0, 49, 0
3, 47040, Note_on_c, 0, 49, 39
3, 51360, Note_on_c, 0, 49, 0
3, 54720, Note_on_c, 0, 49, 37
3, 59040, Note_on_c, 0, 49, 0
3, 62400, Note_on_c, 0, 49, 38
3, 64320, Note_on_c, 0, 49, 0
3, 64320, Note_on_c, 0, 60, 56
3, 64320, Note_on_c, 0, 57, 56
3, 64320, Note_on_c, 0, 64, 66
3, 65280, Note_on_c, 0, 64, 0
3, 65280, Note_on_c, 0, 57, 0
3, 65280, Note_on_c, 0, 60, 0
3, 65280, Note_on_c, 0, 64, 74
3, 65280, Note_on_c, 0, 60, 62
3, 65280, Note_on_c, 0, 52, 62
3, 65280, Note_on_c, 0, 56, 62
3, 66240, Note_on_c, 0, 56, 0
3, 66240, Note_on_c, 0, 64, 0
3, 66240, Note_on_c, 0, 60, 0
3, 66240, Note_on_c, 0, 52, 0
3, 66240, Note_on_c, 0, 61, 67
3, 66240, Note_on_c, 0, 56, 56
3, 66240, Note_on_c, 0, 49, 56
3, 66240, Note_on_c, 0, 52, 56
3, 66720, Note_on_c, 0, 52, 0
3, 66720, Note_on_c, 0, 61, 0
3, 66720, Note_on_c, 0, 56, 0
3, 66720, Note_on_c, 0, 49, 0
3, 68160, Note_on_c, 0, 60, 62
3, 68160, Note_on_c, 0, 57, 62
3, 68160, Note_on_c, 0, 64, 73
3, 69120, Note_on_c, 0, 64, 0
3, 69120, Note_on_c, 0, 57, 0
3, 69120, Note_on_c, 0, 60, 0
3, 69120, Note_on_c, 0, 64, 77
3, 69120, Note_on_c, 0, 56, 65
3, 69120, Note_on_c, 0, 52, 65
3, 69120, Note_on_c, 0, 60, 65
3, 70080, Note_on_c, 0, 60, 0
3, 70080, Note_on_c, 0, 64, 0
3, 70080, Note_on_c, 0, 56, 0
3, 70080, Note_on_c, 0, 52, 0
3, 70080, Note_on_c, 0, 61, 70
3, 70080, Note_on_c, 0, 56, 59
3, 70080, Note_on_c, 0, 49, 59
3, 70080, Note_on_c, 0, 52, 59
3, 70560, Note_on_c, 0, 52, 0
3, 70560, Note_on_c, 0, 61, 0
3, 70560, Note_on_c, 0, 56, 0
3, 70560, Note_on_c, 0, 49, 0
3, 71760, Note_on_c, 0, 46, 83
3, 71760, Note_on_c, 0, 34, 83
3, 72000, Note_on_c, 0, 34, 0
3, 72000, Note_on_c, 0, 46, 0
3, 72000, Note_on_c, 0, 53, 94
3, 72000, Note_on_c, 0, 41, 79
3, 73440, Note_on_c, 0, 41, 0
3, 73440, Note_on_c, 0, 53, 0
3, 73440, Note_on_c, 0, 40, 70
3, 73440, Note_on_c, 0, 52, 83
3, 73680, Note_on_c, 0, 52, 0
3, 73680, Note_on_c, 0, 40, 0
3, 73680, Note_on_c, 0, 41, 66
3, 73680, Note_on_c, 0, 53, 78
3, 73920, Note_on_c, 0, 53, 0
3, 73920, Note_on_c, 0, 41, 0
3, 73920, Note_on_c, 0, 37, 78
3, 73920, Note_on_c, 0, 49, 92
3, 75840, Note_on_c, 0, 49, 0
3, 75840, Note_on_c, 0, 37, 0
3, 75840, Note_on_c, 0, 52, 94
3, 75840, Note_on_c, 0, 40, 79
3, 76320, Note_on_c, 0, 40, 0
3, 76320, Note_on_c, 0, 52, 0
3, 77520, Note_on_c, 0, 46, 83
3, 77520, Note_on_c, 0, 34, 70
3, 77760, Note_on_c, 0, 34, 0
3, 77760, Note_on_c, 0, 46, 0
3, 77760, Note_on_c, 0, 53, 94
3, 77760, Note_on_c, 0, 41, 79
3, 79200, Note_on_c, 0, 41, 0
3, 79200, Note_on_c, 0, 53, 0
3, 79200, Note_on_c, 0, 52, 83
3, 79200, Note_on_c, 0, 40, 70
3, 79360, Note_on_c, 0, 40, 0
3, 79360, Note_on_c, 0, 52, 0
3, 79360, Note_on_c, 0, 53, 78
3, 79360, Note_on_c, 0, 41, 66
3, 79520, Note_on_c, 0, 41, 0
3, 79520, Note_on_c, 0, 53, 0
3, 79520, Note_on_c, 0, 40, 66
3, 79520, Note_on_c, 0, 52, 78
3, 79680, Note_on_c, 0, 52, 0
3, 79680, Note_on_c, 0, 40, 0
3, 79680, Note_on_c, 0, 49, 92
3, 79680, Note_on_c, 0, 37, 78
3, 81600, Note_on_c, 0, 37, 0
3, 81600, Note_on_c, 0, 49, 0
3, 81600, Note_on_c, 0, 52, 94
3, 81600, Note_on_c, 0, 40, 79
3, 82080, Note_on_c, 0, 40, 0
3, 82080, Note_on_c, 0, 52, 0
3, 83040, Note_on_c, 0, 34, 66
3, 83040, Note_on_c, 0, 46, 78
3, 83520, Note_on_c, 0, 46, 0
3, 83520, Note_on_c, 0, 34, 0
3, 83520, Note_on_c, 0, 51, 86
3, 83520, Note_on_c, 0, 39, 73
3, 84240, Note_on_c, 0, 39, 0
3, 84240, Note_on_c, 0, 51, 0
3, 84240, Note_on_c, 0, 41, 68
3, 84240, Note_on_c, 0, 53, 80
3, 84480, Note_on_c, 0, 53, 0
3, 84480, Note_on_c, 0, 41, 0
3, 84480, Note_on_c, 0, 42, 72
3, 84480, Note_on_c, 0, 54, 85
3, 84960, Note_on_c, 0, 54, 0
3, 84960, Note_on_c, 0, 42, 0
3, 84960, Note_on_c, 0, 57, 88
3, 84960, Note_on_c, 0, 45, 74
3, 85440, Note_on_c, 0, 45, 0
3, 85440, Note_on_c, 0, 57, 0
3, 85440, Note_on_c, 0, 46, 78
3, 85440, Note_on_c, 0, 58, 92
3, 86400, Note_on_c, 0, 58, 0
3, 86400, Note_on_c, 0, 46, 0
3, 86400, Note_on_c, 0, 44, 77
3, 86400, Note_on_c, 0, 56, 91
3, 86880, Note_on_c, 0, 56, 0
3, 86880, Note_on_c, 0, 44, 0
3, 86880, Note_on_c, 0, 54, 85
3, 86880, Note_on_c, 0, 42, 72
3, 87360, Note_on_c, 0, 42, 0
3, 87360, Note_on_c, 0, 54, 0
3, 87360, Note_on_c, 0, 45, 79
3, 87360, Note_on_c, 0, 57, 94
3, 87840, Note_on_c, 0, 57, 0
3, 87840, Note_on_c, 0, 45, 0
3, 87840, Note_on_c, 0, 42, 75
3, 87840, Note_on_c, 0, 54, 89
3, 88080, Note_on_c, 0, 54, 0
3, 88080, Note_on_c, 0, 42, 0
3, 88080, Note_on_c, 0, 41, 71
3, 88080, Note_on_c, 0, 53, 84
3, 88320, Note_on_c, 0, 53, 0
3, 88320, Note_on_c, 0, 41, 0
3, 88320, Note_on_c, 0, 53, 83
3, 88320, Note_on_c, 0, 41, 70
3, 88800, Note_on_c, 0, 41, 0
3, 88800, Note_on_c, 0, 53, 0
3, 90720, Note_on_c, 0, 34, 73
3, 90720, Note_on_c, 0, 46, 86
3, 91200, Note_on_c, 0, 46, 0
3, 91200, Note_on_c, 0, 34, 0
3, 91200, Note_on_c, 0, 51, 94
3, 91200, Note_on_c, 0, 39, 79
3, 91920, Note_on_c, 0, 39, 0
3, 91920, Note_on_c, 0, 51, 0
3, 91920, Note_on_c, 0, 41, 72
3, 91920, Note_on_c, 0, 53, 85
3, 92160, Note_on_c, 0, 53, 0
3, 92160, Note_on_c, 0, 41, 0
3, 92160, Note_on_c, 0, 42, 74
3, 92160, Note_on_c, 0, 54, 88
3, 92640, Note_on_c, 0, 54, 0
3, 92640, Note_on_c, 0, 42, 0
3, 92640, Note_on_c, 0, 45, 78
3, 92640, Note_on_c, 0, 57, 92
3, 93120, Note_on_c, 0, 57, 0
3, 93120, Note_on_c, 0, 45, 0
3, 93120, Note_on_c, 0, 46, 79
3, 93120, Note_on_c, 0, 58, 94
3, 94080, Note_on_c, 0, 58, 0
3, 94080, Note_on_c, 0, 46, 0
3, 94080, Note_on_c, 0, 57, 94
3, 94080, Note_on_c, 0, 45, 79
3, 94560, Note_on_c, 0, 45, 0
3, 94560, Note_on_c, 0, 57, 0
3, 94560, Note_on_c, 0, 42, 76
3, 94560, Note_on_c, 0, 54, 90
3, 95040, Note_on_c, 0, 54, 0
3, 95040, Note_on_c, 0, 42, 0
3, 95040, Note_on_c, 0, 44, 86
3, 95040, Note_on_c, 0, 56, 102
3, 95520, Note_on_c, 0, 56, 0
3, 95520, Note_on_c, 0, 44, 0
3, 95520, Note_on_c, 0, 42, 84
3, 95520, Note_on_c, 0, 54, 99
3, 95760, Note_on_c, 0, 54, 0
3, 95760, Note_on_c, 0, 42, 0
3, 95760, Note_on_c, 0, 41, 79
3, 95760, Note_on_c, 0, 53, 93
3, 96000, Note_on_c, 0, 53, 0
3, 96000, Note_on_c, 0, 41, 0
3, 96000, Note_on_c, 0, 53, 84
3, 96000, Note_on_c, 0, 57, 101
3, 96480, Note_on_c, 0, 57, 0
3, 96480, Note_on_c, 0, 53, 0
3, 97920, Note_on_c, 0, 41, 49
3, 97920, Note_on_c, 0, 53, 49
3, 98880, Note_on_c, 0, 53, 0
3, 98880, Note_on_c, 0, 41, 0
3, 98880, Note_on_c, 0, 53, 57
3, 98880, Note_on_c, 0, 46, 57
3, 99840, Note_on_c, 0, 53, 0
3, 99840, Note_on_c, 0, 54, 59
3, 100800, Note_on_c, 0, 54, 0
3, 100800, Note_on_c, 0, 53, 52
3, 102180, Note_on_c, 0, 46, 0
3, 102180, Note_on_c, 0, 40, 71
3, 102240, Note_on_c, 0, 40, 0
3, 102240, Note_on_c, 0, 53, 0
3, 102240, Note_on_c, 0, 41, 80
3, 102480, Note_on_c, 0, 41, 0
3, 102720, Note_on_c, 0, 46, 57
3, 102720, Note_on_c, 0, 53, 57
3, 103680, Note_on_c, 0, 53, 0
3, 103680, Note_on_c, 0, 54, 59
3, 104640, Note_on_c, 0, 54, 0
3, 104640, Note_on_c, 0, 53, 52
3, 106020, Note_on_c, 0, 46, 0
3, 106020, Note_on_c, 0, 40, 71
3, 106080, Note_on_c, 0, 40, 0
3, 106080, Note_on_c, 0, 53, 0
3, 106080, Note_on_c, 0, 41, 80
3, 106320, Note_on_c, 0, 41, 0
3, 107280, Note_on_c, 0, 52, 81
3, 107360, Note_on_c, 0, 52, 0
3, 107360, Note_on_c, 0, 53, 81
3, 107440, Note_on_c, 0, 53, 0
3, 107440, Note_on_c, 0, 52, 81
3, 107520, Note_on_c, 0, 52, 0
3, 107520, Note_on_c, 0, 49, 86
3, 108960, Note_on_c, 0, 49, 0
3, 109920, Note_on_c, 0, 36, 72
3, 109920, Note_on_c, 0, 48, 80
3, 110080, Note_on_c, 0, 48, 0
3, 110080, Note_on_c, 0, 36, 0
3, 110080, Note_on_c, 0, 37, 68
3, 110080, Note_on_c, 0, 49, 76
3, 110240, Note_on_c, 0, 49, 0
3, 110240, Note_on_c, 0, 37, 0
3, 110240, Note_on_c, 0, 46, 77
3, 110240, Note_on_c, 0, 34, 69
3, 110384, Note_on_c, 0, 34, 0
3, 110384, Note_on_c, 0, 46, 0
3, 110400, Note_on_c, 0, 46, 81
3, 110400, Note_on_c, 0, 34, 72
3, 113280, Note_on_c, 0, 34, 0
3, 113280, Note_on_c, 0, 46, 0
3, 113280, End_track
4, 0, Start_track
4, 0, Title_t, "Pedal"
4, 0, Control_c, 0, 64, 0
4, 4654, Control_c, 0, 64, 127
4, 4823, Control_c, 0, 64, 0
4, 5080, Control_c, 0, 64, 127
4, 6229, Control_c, 0, 64, 0
4, 6737, Control_c, 0, 64, 127
4, 6893, Control_c, 0, 64, 0
4, 6923, Control_c, 0, 64, 127
4, 7046, Control_c, 0, 64, 0
4, 7109, Control_c, 0, 64, 127
4, 7209, Control_c, 0, 64, 0
4, 7271, Control_c, 0, 64, 127
4, 7597, Control_c, 0, 64, 0
4, 8523, Control_c, 0, 64, 127
4, 8646, Control_c, 0, 64, 0
4, 8737, Control_c, 0, 64, 127
4, 10085, Control_c, 0, 64, 0
4, 10573, Control_c, 0, 64, 127
4, 10806, Control_c, 0, 64, 0
4, 10886, Control_c, 0, 64, 127
4, 11053, Control_c, 0, 64, 0
4, 11102, Control_c, 0, 64, 127
4, 11296, Control_c, 0, 64, 0
4, 11330, Control_c, 0, 64, 127
4, 11505, Control_c, 0, 64, 0
4, 11657, Control_c, 0, 64, 127
4, 12480, Control_c, 0, 64, 0
4, 13543, Control_c, 0, 64, 127
4, 14405, Control_c, 0, 64, 0
4, 14549, Control_c, 0, 64, 127
4, 14891, Control_c, 0, 64, 0
4, 14971, Control_c, 0, 64, 127
4, 15364, Control_c, 0, 64, 0
4, 15445, Control_c, 0, 64, 127
4, 15698, Control_c, 0, 64, 0
4, 15748, Control_c, 0, 64, 127
4, 16015, Control_c, 0, 64, 0
4, 16080, Control_c, 0, 64, 127
4, 16331, Control_c, 0, 64, 0
4, 16468, Control_c, 0, 64, 127
4, 17624, Control_c, 0, 64, 0
4, 18311, Control_c, 0, 64, 127
4, 18487, Control_c, 0, 64, 0
4, 18565, Control_c, 0, 64, 127
4, 18730, Control_c, 0, 64, 0
4, 18812, Control_c, 0, 64, 127
4, 18966, Control_c, 0, 64, 0
4, 19059, Control_c, 0, 64, 127
4, 19200, Control_c, 0, 64, 0
4, 19383, Control_c, 0, 64, 127
4, 20163, Control_c, 0, 64, 0
4, 21257, Control_c, 0, 64, 127
4, 22088, Control_c, 0, 64, 0
4, 22229, Control_c, 0, 64, 127
4, 22569, Control_c, 0, 64, 0
4, 22720, Control_c, 0, 64, 127
4, 23040, Control_c, 0, 64, 0
4, 23097, Control_c, 0, 64, 127
4, 23374, Control_c, 0, 64, 0
4, 23407, Control_c, 0, 64, 127
4, 23695, Control_c, 0, 64, 0
4, 23767, Control_c, 0, 64, 127
4, 24012, Control_c, 0, 64, 0
4, 24099, Control_c, 0, 64, 127
4, 26171, Control_c, 0, 64, 0
4, 27733, Control_c, 0, 64, 127
4, 27851, Control_c, 0, 64, 0
4, 27945, Control_c, 0, 64, 127
4, 28688, Control_c, 0, 64, 0
4, 28729, Control_c, 0, 64, 127
4, 28807, Control_c, 0, 64, 0
4, 28883, Control_c, 0, 64, 127
4, 29592, Control_c, 0, 64, 0
4, 29618, Control_c, 0, 64, 127
4, 29768, Control_c, 0, 64, 0
4, 29980, Control_c, 0, 64, 127
4, 33310, Control_c, 0, 64, 0
4, 33498, Control_c, 0, 64, 127
4, 34096, Control_c, 0, 64, 0
4, 34131, Control_c, 0, 64, 127
4, 34471, Control_c, 0, 64, 0
4, 34513, Control_c, 0, 64, 127
4, 35054, Control_c, 0, 64, 0
4, 35095, Control_c, 0, 64, 127
4, 35384, Control_c, 0, 64, 0
4, 35439, Control_c, 0, 64, 127
4, 36017, Control_c, 0, 64, 0
4, 36051, Control_c, 0, 64, 127
4, 36358, Control_c, 0, 64, 0
4, 36403, Control_c, 0, 64, 127
4, 36984, Control_c, 0, 64, 0
4, 37017, Control_c, 0, 64, 127
4, 37298, Control_c, 0, 64, 0
4, 37365, Control_c, 0, 64, 127
4, 37936, Control_c, 0, 64, 0
4, 37968, Control_c, 0, 64, 127
4, 38286, Control_c, 0, 64, 0
4, 38370, Control_c, 0, 64, 127
4, 38893, Control_c, 0, 64, 0
4, 38924, Control_c, 0, 64, 127
4, 39313, Control_c, 0, 64, 0
4, 39371, Control_c, 0, 64, 127
4, 39855, Control_c, 0, 64, 0
4, 39900, Control_c, 0, 64, 127
4, 40204, Control_c, 0, 64, 0
4, 40288, Control_c, 0, 64, 127
4, 40811, Control_c, 0, 64, 0
4, 40860, Control_c, 0, 64, 127
4, 41122, Control_c, 0, 64, 0
4, 41218, Control_c, 0, 64, 127
4, 41775, Control_c, 0, 64, 0
4, 41818, Control_c, 0, 64, 127
4, 42133, Control_c, 0, 64, 0
4, 42188, Control_c, 0, 64, 127
4, 42734, Control_c, 0, 64, 0
4, 42784, Control_c, 0, 64, 127
4, 43064, Control_c, 0, 64, 0
4, 43134, Control_c, 0, 64, 127
4, 43694, Control_c, 0, 64, 0
4, 43749, Control_c, 0, 64, 127
4, 44048, Control_c, 0, 64, 0
4, 44094, Control_c, 0, 64, 127
4, 44655, Control_c, 0, 64, 0
4, 44706, Control_c, 0, 64, 127
4, 44924, Control_c, 0, 64, 0
4, 45019, Control_c, 0, 64, 127
4, 45606, Control_c, 0, 64, 0
4, 45648, Control_c, 0, 64, 127
4, 45957, Control_c, 0, 64, 0
4, 46028, Control_c, 0, 64, 127
4, 46575, Control_c, 0, 64, 0
4, 46611, Control_c, 0, 64, 127
4, 46911, Control_c, 0, 64, 0
4, 46976, Control_c, 0, 64, 127
4, 47542, Control_c, 0, 64, 0
4, 47598, Control_c, 0, 64, 127
4, 47895, Control_c, 0, 64, 0
4, 47968, Control_c, 0, 64, 127
4, 48496, Control_c, 0, 64, 0
4, 48535, Control_c, 0, 64, 127
4, 48806, Control_c, 0, 64, 0
4, 48883, Control_c, 0, 64, 127
4, 49451, Control_c, 0, 64, 0
4, 49510, Control_c, 0, 64, 127
4, 49764, Control_c, 0, 64, 0
4, 49838, Control_c, 0, 64, 127
4, 50414, Control_c, 0, 64, 0
4, 50460, Control_c, 0, 64, 127
4, 50755, Control_c, 0, 64, 0
4, 50800, Control_c, 0, 64, 127
4, 51379, Control_c, 0, 64, 0
4, 51437, Control_c, 0, 64, 127
4, 51684, Control_c, 0, 64, 0
4, 51745, Control_c, 0, 64, 127
4, 52325, Control_c, 0, 64, 0
4, 52378, Control_c, 0, 64, 127
4, 52659, Control_c, 0, 64, 0
4, 52723, Control_c, 0, 64, 127
4, 53292, Control_c, 0, 64, 0
4, 53337, Control_c, 0, 64, 127
4, 53655, Control_c, 0, 64, 0
4, 53730, Control_c, 0, 64, 127
4, 54262, Control_c, 0, 64, 0
4, 54298, Control_c, 0, 64, 127
4, 54673, Control_c, 0, 64, 0
4, 54731, Control_c, 0, 64, 127
4, 55207, Control_c, 0, 64, 0
4, 55255, Control_c, 0, 64, 127
4, 55578, Control_c, 0, 64, 0
4, 55648, Control_c, 0, 64, 127
4, 56169, Control_c, 0, 64, 0
4, 56242, Control_c, 0, 64, 127
4, 56502, Control_c, 0, 64, 0
4, 56563, Control_c, 0, 64, 127
4, 57129, Control_c, 0, 64, 0
4, 57192, Control_c, 0, 64, 127
4, 57471, Control_c, 0, 64, 0
4, 57520, Control_c, 0, 64, 127
4, 58089, Control_c, 0, 64, 0
4, 58147, Control_c, 0, 64, 127
4, 58392, Control_c, 0, 64, 0
4, 58450, Control_c, 0, 64, 127
4, 59052, Control_c, 0, 64, 0
4, 59117, Control_c, 0, 64, 127
4, 59362, Control_c, 0, 64, 0
4, 59423, Control_c, 0, 64, 127
4, 60016, Control_c, 0, 64, 0
4, 60060, Control_c, 0, 64, 127
4, 60305, Control_c, 0, 64, 0
4, 60370, Control_c, 0, 64, 127
4, 60974, Control_c, 0, 64, 0
4, 61006, Control_c, 0, 64, 127
4, 61342, Control_c, 0, 64, 0
4, 61410, Control_c, 0, 64, 127
4, 61931, Control_c, 0, 64, 0
4, 61986, Control_c, 0, 64, 127
4, 62288, Control_c, 0, 64, 0
4, 62411, Control_c, 0, 64, 127
4, 62895, Control_c, 0, 64, 0
4, 62942, Control_c, 0, 64, 127
4, 63211, Control_c, 0, 64, 0
4, 63328, Control_c, 0, 64, 127
4, 63859, Control_c, 0, 64, 0
4, 63902, Control_c, 0, 64, 127
4, 64321, Control_c, 0, 64, 0
4, 64455, Control_c, 0, 64, 127
4, 65293, Control_c, 0, 64, 0
4, 65400, Control_c, 0, 64, 127
4, 66255, Control_c, 0, 64, 0
4, 66379, Control_c, 0, 64, 127
4, 68166, Control_c, 0, 64, 0
4, 68266, Control_c, 0, 64, 127
4, 69128, Control_c, 0, 64, 0
4, 69255, Control_c, 0, 64, 127
4, 70098, Control_c, 0, 64, 0
4, 70215, Control_c, 0, 64, 127
4, 71767, Control_c, 0, 64, 0
4, 71923, Control_c, 0, 64, 127
4, 73449, Control_c, 0, 64, 0
4, 73518, Control_c, 0, 64, 127
4, 73930, Control_c, 0, 64, 0
4, 74061, Control_c, 0, 64, 127
4, 74894, Control_c, 0, 64, 0
4, 75007, Control_c, 0, 64, 127
4, 75849, Control_c, 0, 64, 0
4, 75920, Control_c, 0, 64, 127
4, 77540, Control_c, 0, 64, 0
4, 77612, Control_c, 0, 64, 127
4, 79210, Control_c, 0, 64, 0
4, 79297, Control_c, 0, 64, 127
4, 79694, Control_c, 0, 64, 0
4, 79836, Control_c, 0, 64, 127
4, 80654, Control_c, 0, 64, 0
4, 80753, Control_c, 0, 64, 127
4, 81611, Control_c, 0, 64, 0
4, 81720, Control_c, 0, 64, 127
4, 83049, Control_c, 0, 64, 0
4, 83139, Control_c, 0, 64, 127
4, 84494, Control_c, 0, 64, 0
4, 84565, Control_c, 0, 64, 127
4, 84971, Control_c, 0, 64, 0
4, 85052, Control_c, 0, 64, 127
4, 85451, Control_c, 0, 64, 0
4, 85553, Control_c, 0, 64, 127
4, 86407, Control_c, 0, 64, 0
4, 86478, Control_c, 0, 64, 127
4, 86894, Control_c, 0, 64, 0
4, 86958, Control_c, 0, 64, 127
4, 87371, Control_c, 0, 64, 0
4, 87452, Control_c, 0, 64, 127
4, 87850, Control_c, 0, 64, 0
4, 87925, Control_c, 0, 64, 127
4, 88329, Control_c, 0, 64, 0
4, 88461, Control_c, 0, 64, 127
4, 89289, Control_c, 0, 64, 0
4, 89372, Control_c, 0, 64, 127
4, 90250, Control_c, 0, 64, 0
4, 90318, Control_c, 0, 64, 127
4, 90729, Control_c, 0, 64, 0
4, 90791, Control_c, 0, 64, 127
4, 92178, Control_c, 0, 64, 0
4, 92259, Control_c, 0, 64, 127
4, 92650, Control_c, 0, 64, 0
4, 92732, Control_c, 0, 64, 127
4, 93141, Control_c, 0, 64, 0
4, 93240, Control_c, 0, 64, 127
4, 94094, Control_c, 0, 64, 0
4, 94186, Control_c, 0, 64, 127
4, 94578, Control_c, 0, 64, 0
4, 94666, Control_c, 0, 64, 127
4, 95049, Control_c, 0, 64, 0
4, 95153, Control_c, 0, 64, 127
4, 95537, Control_c, 0, 64, 0
4, 95598, Control_c, 0, 64, 127
4, 96013, Control_c, 0, 64, 0
4, 96106, Control_c, 0, 64, 127
4, 96487, Control_c, 0, 64, 0
4, 98005, Control_c, 0, 64, 127
4, 98888, Control_c, 0, 64, 0
4, 98937, Control_c, 0, 64, 127
4, 99857, Control_c, 0, 64, 0
4, 99915, Control_c, 0, 64, 127
4, 100332, Control_c, 0, 64, 0
4, 100372, Control_c, 0, 64, 127
4, 100815, Control_c, 0, 64, 0
4, 100909, Control_c, 0, 64, 127
4, 101772, Control_c, 0, 64, 0
4, 101835, Control_c, 0, 64, 127
4, 102123, Control_c, 0, 64, 0
4, 102795, Control_c, 0, 64, 127
4, 103686, Control_c, 0, 64, 0
4, 103752, Control_c, 0, 64, 127
4, 104172, Control_c, 0, 64, 0
4, 104243, Control_c, 0, 64, 127
4, 104657, Control_c, 0, 64, 0
4, 104815, Control_c, 0, 64, 127
4, 105606, Control_c, 0, 64, 0
4, 105686, Control_c, 0, 64, 127
4, 105963, Control_c, 0, 64, 0
4, 107289, Control_c, 0, 64, 127
4, 107529, Control_c, 0, 64, 0
4, 107609, Control_c, 0, 64, 127
4, 108975, Control_c, 0, 64, 0
4, 109937, Control_c, 0, 64, 127
4, 110091, Control_c, 0, 64, 0
4, 110117, Control_c, 0, 64, 127
4, 110251, Control_c, 0, 64, 0
4, 110292, Control_c, 0, 64, 127
4, 117680, Control_c, 0, 64, 0
4, 117680, End_track
5, 0, Start_track
5, 0, Title_t, "Modest Mussorgski: Bilder einer Ausstellung (6)"
5, 0, End_track
6, 0, Start_track
6, 0, Title_t, "Copyright © 2000 by Bernd Krüger"
6, 0, End_track
7, 0, Start_track
7, 0, Title_t, "http://www.piano-midi.de"
7, 0, End_track
8, 0, Start_track
8, 0, Title_t, "Edition: 2013-12-03"
8, 0, End_track
9, 0, Start_track
9, 0, Title_t, "Spur 8"
9, 0, End_track
0, 0, End_of_file
