0, 0, Header, 1, 9, 480
1, 0, Start_track
1, 0, Title_t, " Prelude No. 2 Op. 23"
1, 0, Copyright_t, "Copyright © 2004 by Bernd Krueger"
1, 0, Text_t, "S. Rachmaninow"
1, 0, Text_t, "Maestoso"
1, 0, Text_t, "Überarbeitet am 20.7.2004\012"
1, 0, Text_t, "Update am 11.12.2012\012"
1, 0, Text_t, "Dauer: 3:13 Minuten\012"
1, 0, SMPTE_offset, 96, 0, 3, 0, 0
1, 0, Time_signature, 4, 2, 24, 8
1, 0, Key_signature, -2, "major"
1, 0, Tempo, 821918
1, 40, Tempo, 816327
1, 80, Tempo, 810811
1, 100, Tempo, 805369
1, 140, Tempo, 800000
1, 180, Tempo, 794702
1, 200, Tempo, 789474
1, 240, Tempo, 784314
1, 280, Tempo, 779221
1, 300, Tempo, 774194
1, 340, Tempo, 769231
1, 380, Tempo, 764331
1, 400, Tempo, 759494
1, 440, Tempo, 754717
1, 480, Tempo, 750000
1, 500, Tempo, 750000
1, 600, Tempo, 754717
1, 1480, Tempo, 727273
1, 1500, Tempo, 731707
1, 1520, Tempo, 736196
1, 1540, Tempo, 740741
1, 1560, Tempo, 745342
1, 1580, Tempo, 750000
1, 1600, Tempo, 754717
1, 1620, Tempo, 759494
1, 1640, Tempo, 764331
1, 1660, Tempo, 769231
1, 1680, Tempo, 774194
1, 1700, Tempo, 779221
1, 1720, Tempo, 784314
1, 1740, Tempo, 789474
1, 1760, Tempo, 794702
1, 1780, Tempo, 800000
1, 1800, Tempo, 805369
1, 1820, Tempo, 810811
1, 1840, Tempo, 816327
1, 1860, Tempo, 821918
1, 1880, Tempo, 833333
1, 1920, Tempo, 833333
1, 1960, Tempo, 827586
1, 2000, Tempo, 821918
1, 2020, Tempo, 816327
1, 2060, Tempo, 810811
1, 2080, Tempo, 805369
1, 2120, Tempo, 800000
1, 2160, Tempo, 794702
1, 2180, Tempo, 789474
1, 2220, Tempo, 784314
1, 2240, Tempo, 779221
1, 2280, Tempo, 774194
1, 2320, Tempo, 769231
1, 2340, Tempo, 764331
1, 2380, Tempo, 759494
1, 2400, Tempo, 754717
1, 2500, Tempo, 759494
1, 3300, Tempo, 754717
1, 3380, Tempo, 750000
1, 3400, Tempo, 736196
1, 3420, Tempo, 745342
1, 3440, Tempo, 750000
1, 3460, Tempo, 759494
1, 3480, Tempo, 764331
1, 3500, Tempo, 774194
1, 3520, Tempo, 779221
1, 3540, Tempo, 789474
1, 3560, Tempo, 794702
1, 3580, Tempo, 805369
1, 3600, Tempo, 810811
1, 3620, Tempo, 821918
1, 3640, Tempo, 827586
1, 3660, Tempo, 839161
1, 3680, Tempo, 845070
1, 3700, Tempo, 857143
1, 3720, Tempo, 863309
1, 3740, Tempo, 875912
1, 3760, Tempo, 882353
1, 3780, Tempo, 895522
1, 3800, Tempo, 902256
1, 3820, Tempo, 916031
1, 3840, Tempo, 750000
1, 4200, Tempo, 805369
1, 4560, Tempo, 750000
1, 5160, Tempo, 764331
1, 5760, Tempo, 750000
1, 6720, Tempo, 722892
1, 7200, Tempo, 666667
1, 7600, Tempo, 779221
1, 7680, Tempo, 750000
1, 9120, Tempo, 774194
1, 9280, Tempo, 689655
1, 9600, Tempo, 750000
1, 9840, Tempo, 689655
1, 10080, Tempo, 750000
1, 10560, Tempo, 722892
1, 11040, Tempo, 750000
1, 12000, Tempo, 697674
1, 12480, Tempo, 750000
1, 13200, Tempo, 701754
1, 13440, Tempo, 750000
1, 13920, Tempo, 693642
1, 14400, Tempo, 750000
1, 14880, Tempo, 750000
1, 14920, Tempo, 754717
1, 14960, Tempo, 764331
1, 15000, Tempo, 769231
1, 15040, Tempo, 779221
1, 15080, Tempo, 789474
1, 15120, Tempo, 794702
1, 15160, Tempo, 805369
1, 15200, Tempo, 816327
1, 15240, Tempo, 975610
1, 15280, Tempo, 851064
1, 15360, Tempo, 774194
1, 15420, Tempo, 779221
1, 15480, Tempo, 784314
1, 15540, Tempo, 789474
1, 15600, Tempo, 794702
1, 15660, Tempo, 800000
1, 15720, Tempo, 805369
1, 15780, Tempo, 810811
1, 15820, Tempo, 816327
1, 15840, Tempo, 789474
1, 16200, Tempo, 975610
1, 16320, Tempo, 816327
1, 16680, Tempo, 833333
1, 16720, Tempo, 895522
1, 16800, Tempo, 833333
1, 17200, Tempo, 1016949
1, 17280, Time_signature, 2, 2, 24, 8
1, 17280, Tempo, 975610
1, 17480, Tempo, 789474
1, 17760, Tempo, 685714
1, 18120, Tempo, 800000
1, 18240, Time_signature, 4, 2, 24, 8
1, 18320, Tempo, 769231
1, 18640, Tempo, 794702
1, 18800, Tempo, 769231
1, 19080, Tempo, 930233
1, 19200, Tempo, 821918
1, 19280, Tempo, 774194
1, 19760, Tempo, 701754
1, 20160, Tempo, 774194
1, 21120, Tempo, 740741
1, 21600, Tempo, 666667
1, 22000, Tempo, 816327
1, 22080, Tempo, 769231
1, 22480, Tempo, 851064
1, 22800, Tempo, 750000
1, 22980, Tempo, 975610
1, 23040, Tempo, 789474
1, 23600, Tempo, 693642
1, 24000, Tempo, 774194
1, 24240, Tempo, 689655
1, 24480, Tempo, 774194
1, 24960, Tempo, 745342
1, 25440, Tempo, 714286
1, 25920, Tempo, 784314
1, 26160, Tempo, 750000
1, 26400, Tempo, 779221
1, 26800, Tempo, 759494
1, 26880, Tempo, 789474
1, 27120, Tempo, 759494
1, 27300, Tempo, 779221
1, 27340, Tempo, 784314
1, 27760, Tempo, 827586
1, 28240, Tempo, 875912
1, 29280, Tempo, 937500
1, 29460, Tempo, 857143
1, 29480, Tempo, 845070
1, 29500, Tempo, 839161
1, 29520, Tempo, 833333
1, 29540, Tempo, 827586
1, 29560, Tempo, 821918
1, 29580, Tempo, 816327
1, 29600, Tempo, 810811
1, 29620, Tempo, 805369
1, 29640, Tempo, 800000
1, 29660, Tempo, 789474
1, 29680, Tempo, 882353
1, 29760, Time_signature, 2, 2, 24, 8
1, 29760, Tempo, 805369
1, 30640, Tempo, 863309
1, 30720, Time_signature, 4, 2, 24, 8
1, 30720, Tempo, 1000000
1, 30800, Tempo, 821918
1, 30840, Tempo, 816327
1, 30860, Tempo, 810811
1, 30880, Tempo, 805369
1, 30900, Tempo, 800000
1, 30940, Tempo, 794702
1, 30960, Tempo, 789474
1, 30980, Tempo, 784314
1, 31000, Tempo, 779221
1, 31040, Tempo, 774194
1, 31060, Tempo, 769231
1, 31080, Tempo, 764331
1, 31100, Tempo, 759494
1, 31140, Tempo, 754717
1, 31160, Tempo, 750000
1, 31180, Tempo, 745342
1, 31200, Tempo, 740741
1, 31320, Tempo, 736196
1, 31520, Tempo, 731707
1, 31680, Tempo, 731707
1, 31760, Tempo, 736196
1, 31840, Tempo, 740741
1, 31900, Tempo, 745342
1, 31980, Tempo, 750000
1, 32060, Tempo, 754717
1, 32120, Tempo, 759494
1, 32200, Tempo, 764331
1, 32260, Tempo, 769231
1, 32340, Tempo, 774194
1, 32420, Tempo, 779221
1, 32480, Tempo, 784314
1, 32560, Tempo, 789474
1, 32620, Tempo, 794702
1, 32640, Tempo, 816327
1, 32700, Tempo, 810811
1, 32740, Tempo, 805369
1, 32780, Tempo, 800000
1, 32820, Tempo, 794702
1, 32860, Tempo, 789474
1, 32900, Tempo, 784314
1, 32940, Tempo, 779221
1, 32980, Tempo, 774194
1, 33020, Tempo, 769231
1, 33060, Tempo, 764331
1, 33100, Tempo, 759494
1, 33140, Tempo, 754717
1, 33200, Tempo, 750000
1, 33280, Tempo, 745342
1, 33360, Tempo, 740741
1, 33440, Tempo, 736196
1, 33520, Tempo, 731707
1, 33600, Tempo, 727273
1, 33680, Tempo, 731707
1, 33760, Tempo, 736196
1, 33840, Tempo, 740741
1, 33920, Tempo, 745342
1, 34000, Tempo, 750000
1, 34080, Tempo, 833333
1, 34560, Tempo, 952381
1, 34640, Tempo, 810811
1, 34680, Tempo, 805369
1, 34720, Tempo, 800000
1, 34760, Tempo, 794702
1, 34800, Tempo, 784314
1, 34840, Tempo, 779221
1, 34880, Tempo, 774194
1, 34920, Tempo, 764331
1, 34960, Tempo, 759494
1, 35000, Tempo, 754717
1, 35040, Tempo, 745342
1, 35580, Tempo, 727273
1, 35620, Tempo, 731707
1, 35660, Tempo, 736196
1, 35700, Tempo, 740741
1, 35740, Tempo, 745342
1, 35780, Tempo, 750000
1, 35820, Tempo, 754717
1, 35860, Tempo, 759494
1, 35900, Tempo, 764331
1, 35940, Tempo, 769231
1, 36000, Tempo, 882353
1, 36240, Tempo, 909091
1, 36480, Tempo, 902256
1, 36580, Tempo, 794702
1, 36640, Tempo, 789474
1, 36700, Tempo, 784314
1, 36760, Tempo, 779221
1, 36820, Tempo, 774194
1, 36880, Tempo, 769231
1, 36940, Tempo, 764331
1, 37000, Tempo, 759494
1, 37060, Tempo, 754717
1, 37120, Tempo, 750000
1, 37440, Tempo, 750000
1, 37520, Tempo, 745342
1, 37580, Tempo, 750000
1, 37640, Tempo, 754717
1, 37700, Tempo, 759494
1, 37760, Tempo, 764331
1, 37820, Tempo, 769231
1, 37880, Tempo, 774194
1, 37920, Tempo, 875912
1, 37960, Tempo, 882353
1, 38000, Tempo, 888889
1, 38040, Tempo, 895522
1, 38060, Tempo, 902256
1, 38100, Tempo, 909091
1, 38140, Tempo, 916031
1, 38160, Tempo, 923077
1, 38200, Tempo, 930233
1, 38240, Tempo, 937500
1, 38260, Tempo, 944882
1, 38280, Tempo, 1111111
1, 38400, Tempo, 983607
1, 38480, Tempo, 833333
1, 38520, Tempo, 827586
1, 38540, Tempo, 821918
1, 38560, Tempo, 816327
1, 38580, Tempo, 810811
1, 38620, Tempo, 805369
1, 38640, Tempo, 800000
1, 38660, Tempo, 794702
1, 38680, Tempo, 789474
1, 38720, Tempo, 784314
1, 38740, Tempo, 779221
1, 38760, Tempo, 774194
1, 38780, Tempo, 769231
1, 38820, Tempo, 764331
1, 38840, Tempo, 759494
1, 38860, Tempo, 754717
1, 38880, Tempo, 750000
1, 38900, Tempo, 750000
1, 39360, Tempo, 902256
1, 40200, Tempo, 1132075
1, 40320, Tempo, 863309
1, 40380, Tempo, 857143
1, 40440, Tempo, 851064
1, 40480, Tempo, 845070
1, 40540, Tempo, 839161
1, 40580, Tempo, 833333
1, 40640, Tempo, 827586
1, 40680, Tempo, 821918
1, 40740, Tempo, 816327
1, 40780, Tempo, 810811
1, 40980, Tempo, 863309
1, 41760, Tempo, 882353
1, 41780, Tempo, 851064
1, 41860, Tempo, 857143
1, 41940, Tempo, 863309
1, 42020, Tempo, 869565
1, 42100, Tempo, 875912
1, 42180, Tempo, 882353
1, 42240, Tempo, 888889
1, 42460, Tempo, 794702
1, 42680, Tempo, 800000
1, 42800, Tempo, 750000
1, 43200, Tempo, 821918
1, 43300, Tempo, 827586
1, 43400, Tempo, 833333
1, 43480, Tempo, 839161
1, 43580, Tempo, 845070
1, 43660, Tempo, 851064
1, 44040, Tempo, 827586
1, 44140, Tempo, 821918
1, 44240, Tempo, 816327
1, 44340, Tempo, 810811
1, 44440, Tempo, 805369
1, 44540, Tempo, 800000
1, 44640, Tempo, 794702
1, 44740, Tempo, 789474
1, 44840, Tempo, 784314
1, 44940, Tempo, 779221
1, 45040, Tempo, 774194
1, 45120, Tempo, 769231
1, 45600, Tempo, 895522
1, 46080, Tempo, 794702
1, 46180, Tempo, 789474
1, 46280, Tempo, 784314
1, 46380, Tempo, 779221
1, 46460, Tempo, 774194
1, 46560, Tempo, 769231
1, 46660, Tempo, 764331
1, 46740, Tempo, 759494
1, 46840, Tempo, 754717
1, 46940, Tempo, 750000
1, 47020, Tempo, 745342
1, 47280, Tempo, 863309
1, 47320, Tempo, 869565
1, 47360, Tempo, 875912
1, 47400, Tempo, 882353
1, 47440, Tempo, 888889
1, 47480, Tempo, 895522
1, 47520, Tempo, 902256
1, 47560, Tempo, 909091
1, 47600, Tempo, 916031
1, 47640, Tempo, 923077
1, 47680, Tempo, 930233
1, 47720, Tempo, 937500
1, 47760, Tempo, 944882
1, 47800, Tempo, 952381
1, 47840, Tempo, 960000
1, 47860, Tempo, 967742
1, 47880, Tempo, 1142857
1, 48080, Tempo, 784314
1, 48120, Tempo, 779221
1, 48160, Tempo, 774194
1, 48200, Tempo, 769231
1, 48240, Tempo, 764331
1, 48300, Tempo, 759494
1, 48360, Tempo, 754717
1, 48440, Tempo, 750000
1, 48500, Tempo, 745342
1, 48960, Tempo, 745342
1, 48980, Tempo, 740741
1, 49060, Tempo, 745342
1, 49120, Tempo, 750000
1, 49200, Tempo, 754717
1, 49260, Tempo, 759494
1, 49320, Tempo, 764331
1, 49400, Tempo, 769231
1, 49460, Tempo, 774194
1, 49520, Tempo, 779221
1, 49600, Tempo, 784314
1, 49660, Tempo, 789474
1, 49720, Tempo, 794702
1, 49800, Tempo, 800000
1, 49860, Tempo, 805369
1, 49900, Tempo, 789162
1, 49920, Tempo, 705882
1, 50040, Tempo, 710059
1, 50140, Tempo, 714286
1, 50240, Tempo, 718563
1, 50340, Tempo, 722892
1, 50440, Tempo, 727273
1, 50540, Tempo, 731707
1, 50640, Tempo, 736196
1, 50740, Tempo, 740741
1, 50840, Tempo, 745342
1, 50860, Tempo, 750000
1, 50880, Tempo, 714286
1, 51020, Tempo, 718563
1, 51160, Tempo, 722892
1, 51300, Tempo, 727273
1, 51440, Tempo, 731707
1, 51580, Tempo, 736196
1, 51720, Tempo, 740741
1, 51820, Tempo, 740741
1, 52020, Tempo, 736196
1, 52220, Tempo, 731707
1, 52420, Tempo, 727273
1, 52620, Tempo, 722892
1, 52800, Tempo, 718563
1, 53760, Tempo, 750000
1, 53920, Tempo, 916031
1, 54080, Tempo, 769231
1, 54240, Tempo, 764331
1, 54400, Tempo, 759494
1, 54540, Tempo, 754717
1, 54700, Tempo, 750000
1, 54840, Tempo, 745342
1, 54860, Tempo, 722892
1, 54880, Tempo, 857143
1, 55020, Tempo, 722892
1, 55040, Tempo, 736196
1, 55680, Tempo, 745342
1, 55840, Tempo, 827586
1, 56520, Tempo, 789474
1, 56600, Tempo, 794702
1, 56640, Tempo, 800000
1, 56680, Tempo, 805369
1, 56720, Tempo, 810811
1, 56740, Tempo, 816327
1, 56780, Tempo, 821918
1, 56800, Tempo, 827586
1, 56840, Tempo, 833333
1, 56860, Tempo, 839161
1, 56900, Tempo, 845070
1, 56920, Tempo, 851064
1, 56960, Tempo, 857143
1, 57000, Tempo, 863309
1, 57020, Tempo, 869565
1, 57060, Tempo, 875912
1, 57080, Tempo, 882353
1, 57120, Tempo, 888889
1, 57140, Tempo, 895522
1, 57180, Tempo, 902256
1, 57200, Tempo, 909091
1, 57240, Tempo, 916031
1, 57260, Tempo, 923077
1, 57300, Tempo, 930233
1, 57340, Tempo, 937500
1, 57360, Tempo, 944882
1, 57400, Tempo, 952381
1, 57520, Tempo, 1967213
1, 57600, Tempo, 909091
1, 59040, Tempo, 805369
1, 59440, Tempo, 991736
1, 59520, Tempo, 895522
1, 60960, Tempo, 839161
1, 61440, Tempo, 810811
1, 61800, Tempo, 845070
1, 61920, Tempo, 851064
1, 62280, Tempo, 800000
1, 62400, Tempo, 805369
1, 62520, Tempo, 810811
1, 62640, Tempo, 816327
1, 62740, Tempo, 821918
1, 62760, Tempo, 845070
1, 63240, Tempo, 779221
1, 63340, Tempo, 784314
1, 63440, Tempo, 789474
1, 63540, Tempo, 794702
1, 63640, Tempo, 800000
1, 63720, Tempo, 845070
1, 64200, Tempo, 769231
1, 64280, Tempo, 774194
1, 64360, Tempo, 779221
1, 64440, Tempo, 784314
1, 64520, Tempo, 789474
1, 64600, Tempo, 794702
1, 64680, Tempo, 821918
1, 65160, Tempo, 765990
1, 65180, Tempo, 765990
1, 65260, Tempo, 770713
1, 65340, Tempo, 775595
1, 65420, Tempo, 780539
1, 65500, Tempo, 785443
1, 65580, Tempo, 790514
1, 65640, Tempo, 751974
1, 65720, Tempo, 756525
1, 65800, Tempo, 761228
1, 65880, Tempo, 765990
1, 65960, Tempo, 770713
1, 66040, Tempo, 775595
1, 66120, Tempo, 780539
1, 66240, Tempo, 780539
1, 66360, Tempo, 785443
1, 66480, Tempo, 790514
1, 66600, Tempo, 795650
1, 66720, Tempo, 800747
1, 66840, Tempo, 806018
1, 66960, Tempo, 811359
1, 67080, Tempo, 816660
1, 67180, Tempo, 1121495
1, 67200, Time_signature, 2, 2, 24, 8
1, 67200, Tempo, 1500000
1, 67320, Tempo, 1379310
1, 67360, Tempo, 1363636
1, 67380, Tempo, 1348315
1, 67400, Tempo, 1333333
1, 67420, Tempo, 1318681
1, 67440, Tempo, 1304348
1, 67480, Tempo, 1290323
1, 67500, Tempo, 1276596
1, 67520, Tempo, 1263158
1, 67540, Tempo, 1250000
1, 67560, Tempo, 1237113
1, 67600, Tempo, 1224490
1, 67620, Tempo, 1212121
1, 67640, Tempo, 1200000
1, 67660, Tempo, 1188119
1, 67680, Tempo, 1176471
1, 68140, Tempo, 1043478
1, 68160, Time_signature, 4, 2, 24, 8
1, 68200, Tempo, 888889
1, 68220, Tempo, 882353
1, 68240, Tempo, 875912
1, 68260, Tempo, 869565
1, 68280, Tempo, 863309
1, 68300, Tempo, 857143
1, 68320, Tempo, 851064
1, 68340, Tempo, 845070
1, 68360, Tempo, 839161
1, 68380, Tempo, 833333
1, 68400, Tempo, 827586
1, 68420, Tempo, 821918
1, 68440, Tempo, 816327
1, 68460, Tempo, 810811
1, 68480, Tempo, 805369
1, 68500, Tempo, 800000
1, 68520, Tempo, 794702
1, 68540, Tempo, 789474
1, 68560, Tempo, 784314
1, 68580, Tempo, 805369
1, 69480, Tempo, 764331
1, 69600, Tempo, 714286
1, 70080, Tempo, 750000
1, 71040, Tempo, 722892
1, 71520, Tempo, 666667
1, 71920, Tempo, 779221
1, 72000, Tempo, 750000
1, 72480, Tempo, 727273
1, 72960, Tempo, 750000
1, 73440, Tempo, 774194
1, 73600, Tempo, 685714
1, 73920, Tempo, 750000
1, 74160, Tempo, 689655
1, 74400, Tempo, 750000
1, 74880, Tempo, 722892
1, 75360, Tempo, 750000
1, 76320, Tempo, 689655
1, 76800, Tempo, 750000
1, 77520, Tempo, 693642
1, 77760, Tempo, 750000
1, 78240, Tempo, 697674
1, 78720, Tempo, 750000
1, 79560, Tempo, 944882
1, 79680, Tempo, 774194
1, 79740, Tempo, 779221
1, 79800, Tempo, 784314
1, 79860, Tempo, 789474
1, 79920, Tempo, 794702
1, 79980, Tempo, 800000
1, 80040, Tempo, 805369
1, 80100, Tempo, 810811
1, 80140, Tempo, 816327
1, 80160, Tempo, 789474
1, 80520, Tempo, 810811
1, 81000, Tempo, 833333
1, 81040, Tempo, 895522
1, 81120, Tempo, 833333
1, 81520, Tempo, 1016949
1, 81600, Time_signature, 2, 2, 24, 8
1, 81600, Tempo, 960000
1, 81800, Tempo, 800000
1, 82080, Tempo, 685714
1, 82440, Tempo, 800000
1, 82560, Time_signature, 4, 2, 24, 8
1, 82640, Tempo, 769231
1, 82960, Tempo, 794702
1, 83120, Tempo, 769231
1, 83440, Tempo, 821918
1, 83600, Tempo, 774194
1, 84080, Tempo, 685714
1, 84480, Tempo, 774194
1, 85440, Tempo, 740741
1, 85920, Tempo, 666667
1, 86280, Tempo, 863309
1, 86320, Tempo, 816327
1, 86400, Tempo, 769231
1, 86800, Tempo, 851064
1, 87120, Tempo, 821918
1, 87360, Tempo, 794702
1, 87840, Tempo, 685714
1, 88320, Tempo, 774194
1, 88560, Tempo, 754717
1, 88800, Tempo, 774194
1, 89280, Tempo, 745342
1, 89760, Tempo, 714286
1, 90240, Tempo, 784314
1, 90480, Tempo, 750000
1, 90720, Tempo, 779221
1, 91120, Tempo, 759494
1, 91200, Tempo, 789474
1, 91440, Tempo, 759494
1, 91620, Tempo, 779221
1, 91660, Tempo, 784314
1, 92080, Tempo, 827586
1, 92560, Tempo, 875912
1, 93600, Tempo, 1100917
1, 93780, Tempo, 1081081
1, 93800, Tempo, 1025641
1, 93860, Tempo, 1016949
1, 93920, Tempo, 1008403
1, 93960, Tempo, 1000000
1, 94020, Tempo, 991736
1, 94060, Tempo, 983607
1, 94080, Tempo, 1016949
1, 94100, Tempo, 1288937
1, 94160, Tempo, 1203128
1, 94300, Tempo, 1191658
1, 94380, Tempo, 1180405
1, 94460, Tempo, 1169591
1, 94540, Tempo, 1158972
1, 94544, Tempo, 1127820
1, 94560, Tempo, 1232286
1, 94640, Tempo, 1191658
1, 94760, Tempo, 1158972
1, 94860, Tempo, 1117943
1, 95040, Tempo, 1158972
1, 95120, Tempo, 1111111
1, 95200, Tempo, 1165049
1, 95280, Tempo, 1121495
1, 95400, Tempo, 1122544
1, 95440, Tempo, 1090909
1, 95600, Tempo, 1111111
1, 95672, Tempo, 1071429
1, 95700, Tempo, 1081081
1, 95724, Tempo, 1090909
1, 95752, Tempo, 1100917
1, 95764, Tempo, 1111111
1, 95792, Tempo, 1121495
1, 95820, Tempo, 1132075
1, 95844, Tempo, 1142857
1, 95860, Tempo, 1153846
1, 95880, Tempo, 1274156
1, 96000, Time_signature, 2, 2, 24, 8
1, 96000, Tempo, 1111111
1, 96001, Tempo, 1087942
1, 96021, Tempo, 1212121
1, 96480, Tempo, 1263158
1, 96840, Tempo, 1666667
1, 96960, Time_signature, 4, 2, 24, 8
1, 96960, Tempo, 750000
1, 98400, Tempo, 750000
1, 98440, Tempo, 754717
1, 98460, Tempo, 759494
1, 98480, Tempo, 764331
1, 98500, Tempo, 769231
1, 98520, Tempo, 774194
1, 98540, Tempo, 779221
1, 98560, Tempo, 784314
1, 98600, Tempo, 789474
1, 98620, Tempo, 794702
1, 98640, Tempo, 800000
1, 98660, Tempo, 805369
1, 98680, Tempo, 810811
1, 98700, Tempo, 816327
1, 98720, Tempo, 821918
1, 98760, Tempo, 827586
1, 98780, Tempo, 833333
1, 98800, Tempo, 839161
1, 98820, Tempo, 845070
1, 98840, Tempo, 851064
1, 98860, Tempo, 857143
1, 98880, Tempo, 863309
1, 99120, Tempo, 750000
1, 100320, Tempo, 750000
1, 100360, Tempo, 754717
1, 100380, Tempo, 759494
1, 100400, Tempo, 764331
1, 100420, Tempo, 769231
1, 100440, Tempo, 774194
1, 100460, Tempo, 779221
1, 100480, Tempo, 784314
1, 100520, Tempo, 789474
1, 100540, Tempo, 794702
1, 100560, Tempo, 800000
1, 100580, Tempo, 805369
1, 100600, Tempo, 810811
1, 100620, Tempo, 816327
1, 100640, Tempo, 821918
1, 100680, Tempo, 827586
1, 100700, Tempo, 833333
1, 100720, Tempo, 839161
1, 100740, Tempo, 845070
1, 100760, Tempo, 851064
1, 100780, Tempo, 857143
1, 100800, Tempo, 863309
1, 101040, Tempo, 750000
1, 102240, Tempo, 779221
1, 102260, Tempo, 784314
1, 102280, Tempo, 789474
1, 102300, Tempo, 794702
1, 102320, Tempo, 805369
1, 102340, Tempo, 810811
1, 102360, Tempo, 816327
1, 102380, Tempo, 821918
1, 102400, Tempo, 833333
1, 102420, Tempo, 839161
1, 102440, Tempo, 845070
1, 102460, Tempo, 851064
1, 102480, Tempo, 863309
1, 102500, Tempo, 869565
1, 102520, Tempo, 875912
1, 102540, Tempo, 882353
1, 102560, Tempo, 895522
1, 102580, Tempo, 902256
1, 102600, Tempo, 909091
1, 102620, Tempo, 916031
1, 102880, Tempo, 800000
1, 103420, Tempo, 794702
1, 103440, Tempo, 800000
1, 103460, Tempo, 805369
1, 103480, Tempo, 816327
1, 103500, Tempo, 821918
1, 103520, Tempo, 833333
1, 103540, Tempo, 839161
1, 103560, Tempo, 845070
1, 103580, Tempo, 857143
1, 103600, Tempo, 863309
1, 103620, Tempo, 875912
1, 103840, Tempo, 821918
1, 104380, Tempo, 821918
1, 104400, Tempo, 839161
1, 104420, Tempo, 857143
1, 104440, Tempo, 875912
1, 104460, Tempo, 895522
1, 104480, Tempo, 916031
1, 104500, Tempo, 937500
1, 104520, Tempo, 960000
1, 104540, Tempo, 983607
1, 104560, Tempo, 1008403
1, 104580, Tempo, 1034483
1, 104600, Tempo, 1061947
1, 104620, Tempo, 1090909
1, 104640, Tempo, 816327
1, 104840, Tempo, 810811
1, 105020, Tempo, 805369
1, 105040, Tempo, 836004
1, 105120, Tempo, 789474
1, 105280, Tempo, 784314
1, 105420, Tempo, 779221
1, 105560, Tempo, 774194
1, 105700, Tempo, 769231
1, 105840, Tempo, 764331
1, 105980, Tempo, 759494
1, 106000, Tempo, 836004
1, 106080, Tempo, 759494
1, 106280, Tempo, 754907
1, 106480, Tempo, 750375
1, 106660, Tempo, 745805
1, 106960, Tempo, 808734
1, 107020, Tempo, 745805
1, 107160, Tempo, 741381
1, 107440, Tempo, 798509
1, 107520, Tempo, 732601
1, 107640, Tempo, 728421
1, 107760, Tempo, 724200
1, 107880, Tempo, 719942
1, 107920, Tempo, 778412
1, 108000, Tempo, 710059
1, 108040, Tempo, 714286
1, 108060, Tempo, 718563
1, 108080, Tempo, 722892
1, 108100, Tempo, 727273
1, 108120, Tempo, 731707
1, 108160, Tempo, 736196
1, 108180, Tempo, 740741
1, 108200, Tempo, 745342
1, 108220, Tempo, 750000
1, 108240, Tempo, 754717
1, 108280, Tempo, 759494
1, 108300, Tempo, 764331
1, 108320, Tempo, 769231
1, 108340, Tempo, 774194
1, 108360, Tempo, 779221
1, 108380, Tempo, 784314
1, 108400, Tempo, 937500
1, 108480, Tempo, 3000000
1, 108600, Tempo, 945031
1, 108720, Tempo, 876040
1, 108840, Tempo, 851185
1, 109080, Tempo, 784416
1, 109120, Tempo, 784314
1, 109320, Tempo, 759590
1, 109340, Tempo, 710143
1, 109360, Tempo, 705965
1, 109380, Tempo, 701836
1, 109400, Tempo, 697756
1, 109420, Tempo, 693722
1, 109440, Tempo, 689734
1, 109460, Tempo, 685793
1, 109480, Tempo, 681896
1, 109500, Tempo, 678043
1, 109520, Tempo, 674233
1, 109540, Tempo, 666741
1, 109560, Tempo, 663057
1, 109580, Tempo, 659413
1, 109600, Tempo, 655809
1, 109620, Tempo, 652245
1, 109640, Tempo, 648719
1, 109660, Tempo, 645231
1, 109680, Tempo, 641780
1, 109700, Tempo, 638366
1, 109720, Tempo, 631645
1, 109740, Tempo, 628338
1, 109760, Tempo, 625065
1, 109780, Tempo, 621826
1, 109800, Tempo, 618620
1, 109820, Tempo, 615448
1, 109840, Tempo, 612307
1, 109860, Tempo, 609199
1, 109880, Tempo, 606122
1, 109900, Tempo, 603076
1, 109920, Tempo, 597074
1, 109940, Tempo, 594118
1, 109960, Tempo, 591191
1, 109980, Tempo, 588293
1, 110000, Tempo, 585423
1, 110020, Tempo, 582581
1, 110040, Tempo, 579766
1, 110060, Tempo, 576979
1, 110080, Tempo, 574218
1, 110100, Tempo, 568774
1, 110120, Tempo, 600060
1, 110160, Tempo, 625065
1, 110280, Tempo, 722892
1, 110400, Tempo, 750000
1, 114240, Tempo, 666667
1, 114240, End_track
2, 0, Start_track
2, 0, Title_t, "Piano right"
2, 0, Program_c, 0, 0
2, 0, Control_c, 0, 7, 100
2, 0, Control_c, 0, 10, 64
2, 0, Text_t, "bdca426d104a26ac9dcb070447587523"
2, 4200, Note_on_c, 0, 70, 81
2, 4200, Note_on_c, 0, 82, 91
2, 4320, Note_on_c, 0, 82, 0
2, 4320, Note_on_c, 0, 70, 0
2, 4320, Note_on_c, 0, 74, 75
2, 4320, Note_on_c, 0, 77, 84
2, 5160, Note_on_c, 0, 77, 0
2, 5160, Note_on_c, 0, 74, 0
2, 5160, Note_on_c, 0, 70, 75
2, 5160, Note_on_c, 0, 82, 84
2, 5280, Note_on_c, 0, 82, 0
2, 5280, Note_on_c, 0, 70, 0
2, 5280, Note_on_c, 0, 74, 69
2, 5280, Note_on_c, 0, 77, 77
2, 5360, Note_on_c, 0, 77, 0
2, 5360, Note_on_c, 0, 74, 0
2, 5360, Note_on_c, 0, 69, 70
2, 5360, Note_on_c, 0, 81, 78
2, 5440, Note_on_c, 0, 81, 0
2, 5440, Note_on_c, 0, 69, 0
2, 5440, Note_on_c, 0, 70, 71
2, 5440, Note_on_c, 0, 74, 79
2, 5520, Note_on_c, 0, 74, 0
2, 5520, Note_on_c, 0, 70, 0
2, 5520, Note_on_c, 0, 67, 72
2, 5520, Note_on_c, 0, 79, 81
2, 5600, Note_on_c, 0, 79, 0
2, 5600, Note_on_c, 0, 67, 0
2, 5600, Note_on_c, 0, 70, 72
2, 5600, Note_on_c, 0, 74, 81
2, 5680, Note_on_c, 0, 74, 0
2, 5680, Note_on_c, 0, 70, 0
2, 5680, Note_on_c, 0, 65, 72
2, 5680, Note_on_c, 0, 77, 81
2, 5760, Note_on_c, 0, 77, 0
2, 5760, Note_on_c, 0, 65, 0
2, 5760, Note_on_c, 0, 70, 90
2, 5760, Note_on_c, 0, 74, 90
2, 6156, Note_on_c, 0, 74, 0
2, 6156, Note_on_c, 0, 70, 0
2, 6160, Note_on_c, 0, 74, 84
2, 6160, Note_on_c, 0, 70, 84
2, 6232, Note_on_c, 0, 70, 0
2, 6232, Note_on_c, 0, 74, 0
2, 6240, Note_on_c, 0, 70, 89
2, 6240, Note_on_c, 0, 74, 89
2, 6600, Note_on_c, 0, 74, 0
2, 6600, Note_on_c, 0, 70, 0
2, 6600, Note_on_c, 0, 53, 66
2, 6600, Note_on_c, 0, 58, 66
2, 6600, Note_on_c, 0, 62, 74
2, 6600, Note_on_c, 0, 65, 74
2, 6708, Note_on_c, 0, 65, 0
2, 6708, Note_on_c, 0, 53, 0
2, 6708, Note_on_c, 0, 58, 0
2, 6708, Note_on_c, 0, 62, 0
2, 6720, Note_on_c, 0, 53, 66
2, 6720, Note_on_c, 0, 58, 66
2, 6720, Note_on_c, 0, 62, 74
2, 6720, Note_on_c, 0, 65, 74
2, 6798, Note_on_c, 0, 53, 0
2, 6800, Note_on_c, 0, 58, 0
2, 6800, Note_on_c, 0, 62, 0
2, 6800, Note_on_c, 0, 65, 0
2, 6800, Note_on_c, 0, 70, 74
2, 6880, Note_on_c, 0, 70, 0
2, 6880, Note_on_c, 0, 74, 74
2, 6958, Note_on_c, 0, 74, 0
2, 6960, Note_on_c, 0, 65, 76
2, 6960, Note_on_c, 0, 70, 76
2, 6960, Note_on_c, 0, 74, 85
2, 6960, Note_on_c, 0, 77, 85
2, 7440, Note_on_c, 0, 65, 0
2, 7600, Note_on_c, 0, 70, 0
2, 7600, Note_on_c, 0, 74, 0
2, 7600, Note_on_c, 0, 77, 0
2, 7600, Note_on_c, 0, 67, 55
2, 7600, Note_on_c, 0, 70, 55
2, 7600, Note_on_c, 0, 75, 62
2, 7600, Note_on_c, 0, 79, 62
2, 7680, Note_on_c, 0, 79, 0
2, 7680, Note_on_c, 0, 67, 0
2, 7680, Note_on_c, 0, 70, 0
2, 7680, Note_on_c, 0, 75, 0
2, 7680, Note_on_c, 0, 77, 92
2, 7680, Note_on_c, 0, 74, 92
2, 7680, Note_on_c, 0, 70, 82
2, 7680, Note_on_c, 0, 65, 82
2, 8040, Note_on_c, 0, 65, 0
2, 8040, Note_on_c, 0, 77, 0
2, 8040, Note_on_c, 0, 74, 0
2, 8040, Note_on_c, 0, 70, 0
2, 8040, Note_on_c, 0, 70, 86
2, 8040, Note_on_c, 0, 82, 96
2, 8160, Note_on_c, 0, 82, 0
2, 8160, Note_on_c, 0, 70, 0
2, 8160, Note_on_c, 0, 74, 75
2, 8160, Note_on_c, 0, 77, 84
2, 9000, Note_on_c, 0, 77, 0
2, 9000, Note_on_c, 0, 74, 0
2, 9000, Note_on_c, 0, 70, 75
2, 9000, Note_on_c, 0, 82, 84
2, 9120, Note_on_c, 0, 82, 0
2, 9120, Note_on_c, 0, 70, 0
2, 9120, Note_on_c, 0, 74, 75
2, 9120, Note_on_c, 0, 77, 84
2, 9200, Note_on_c, 0, 77, 0
2, 9200, Note_on_c, 0, 74, 0
2, 9200, Note_on_c, 0, 69, 79
2, 9200, Note_on_c, 0, 81, 79
2, 9280, Note_on_c, 0, 81, 0
2, 9280, Note_on_c, 0, 69, 0
2, 9280, Note_on_c, 0, 70, 62
2, 9280, Note_on_c, 0, 74, 62
2, 9360, Note_on_c, 0, 74, 0
2, 9360, Note_on_c, 0, 70, 0
2, 9360, Note_on_c, 0, 67, 62
2, 9360, Note_on_c, 0, 79, 62
2, 9440, Note_on_c, 0, 79, 0
2, 9440, Note_on_c, 0, 67, 0
2, 9440, Note_on_c, 0, 70, 62
2, 9440, Note_on_c, 0, 74, 62
2, 9520, Note_on_c, 0, 74, 0
2, 9520, Note_on_c, 0, 70, 0
2, 9520, Note_on_c, 0, 65, 62
2, 9520, Note_on_c, 0, 77, 62
2, 9600, Note_on_c, 0, 77, 0
2, 9600, Note_on_c, 0, 65, 0
2, 9600, Note_on_c, 0, 70, 81
2, 9600, Note_on_c, 0, 74, 81
2, 9838, Note_on_c, 0, 70, 0
2, 9838, Note_on_c, 0, 74, 0
2, 9840, Note_on_c, 0, 70, 57
2, 9840, Note_on_c, 0, 74, 57
2, 9912, Note_on_c, 0, 74, 0
2, 9912, Note_on_c, 0, 70, 0
2, 9920, Note_on_c, 0, 70, 57
2, 9920, Note_on_c, 0, 74, 57
2, 9992, Note_on_c, 0, 74, 0
2, 9992, Note_on_c, 0, 70, 0
2, 10000, Note_on_c, 0, 70, 57
2, 10000, Note_on_c, 0, 74, 57
2, 10072, Note_on_c, 0, 74, 0
2, 10072, Note_on_c, 0, 70, 0
2, 10080, Note_on_c, 0, 70, 87
2, 10080, Note_on_c, 0, 74, 87
2, 10440, Note_on_c, 0, 74, 0
2, 10440, Note_on_c, 0, 70, 0
2, 10440, Note_on_c, 0, 53, 68
2, 10440, Note_on_c, 0, 58, 68
2, 10440, Note_on_c, 0, 62, 76
2, 10440, Note_on_c, 0, 65, 76
2, 10548, Note_on_c, 0, 65, 0
2, 10548, Note_on_c, 0, 53, 0
2, 10548, Note_on_c, 0, 58, 0
2, 10548, Note_on_c, 0, 62, 0
2, 10560, Note_on_c, 0, 53, 65
2, 10560, Note_on_c, 0, 58, 65
2, 10560, Note_on_c, 0, 62, 73
2, 10560, Note_on_c, 0, 65, 73
2, 10640, Note_on_c, 0, 65, 0
2, 10640, Note_on_c, 0, 53, 0
2, 10640, Note_on_c, 0, 58, 0
2, 10640, Note_on_c, 0, 62, 0
2, 10640, Note_on_c, 0, 70, 59
2, 10720, Note_on_c, 0, 70, 0
2, 10720, Note_on_c, 0, 74, 59
2, 10800, Note_on_c, 0, 74, 0
2, 10800, Note_on_c, 0, 65, 76
2, 10800, Note_on_c, 0, 70, 76
2, 10800, Note_on_c, 0, 74, 85
2, 10800, Note_on_c, 0, 77, 85
2, 11280, Note_on_c, 0, 65, 0
2, 11440, Note_on_c, 0, 70, 0
2, 11440, Note_on_c, 0, 74, 0
2, 11440, Note_on_c, 0, 77, 0
2, 11440, Note_on_c, 0, 67, 69
2, 11440, Note_on_c, 0, 70, 69
2, 11440, Note_on_c, 0, 74, 77
2, 11440, Note_on_c, 0, 79, 77
2, 11520, Note_on_c, 0, 79, 0
2, 11520, Note_on_c, 0, 67, 0
2, 11520, Note_on_c, 0, 70, 0
2, 11520, Note_on_c, 0, 74, 0
2, 11520, Note_on_c, 0, 74, 87
2, 11520, Note_on_c, 0, 65, 78
2, 11520, Note_on_c, 0, 69, 78
2, 11520, Note_on_c, 0, 77, 87
2, 11920, Note_on_c, 0, 77, 0
2, 11920, Note_on_c, 0, 74, 0
2, 11920, Note_on_c, 0, 65, 0
2, 11920, Note_on_c, 0, 69, 0
2, 11920, Note_on_c, 0, 86, 86
2, 11920, Note_on_c, 0, 74, 86
2, 12000, Note_on_c, 0, 74, 0
2, 12000, Note_on_c, 0, 86, 0
2, 12000, Note_on_c, 0, 81, 86
2, 12000, Note_on_c, 0, 77, 86
2, 12080, Note_on_c, 0, 77, 0
2, 12080, Note_on_c, 0, 81, 0
2, 12080, Note_on_c, 0, 84, 61
2, 12080, Note_on_c, 0, 72, 61
2, 12160, Note_on_c, 0, 72, 0
2, 12160, Note_on_c, 0, 84, 0
2, 12160, Note_on_c, 0, 77, 59
2, 12160, Note_on_c, 0, 74, 59
2, 12240, Note_on_c, 0, 74, 0
2, 12240, Note_on_c, 0, 77, 0
2, 12240, Note_on_c, 0, 82, 60
2, 12240, Note_on_c, 0, 70, 60
2, 12320, Note_on_c, 0, 70, 0
2, 12320, Note_on_c, 0, 82, 0
2, 12320, Note_on_c, 0, 74, 60
2, 12320, Note_on_c, 0, 77, 60
2, 12400, Note_on_c, 0, 77, 0
2, 12400, Note_on_c, 0, 74, 0
2, 12400, Note_on_c, 0, 81, 60
2, 12400, Note_on_c, 0, 69, 60
2, 12480, Note_on_c, 0, 69, 0
2, 12480, Note_on_c, 0, 81, 0
2, 12480, Note_on_c, 0, 72, 74
2, 12480, Note_on_c, 0, 77, 74
2, 12880, Note_on_c, 0, 77, 0
2, 12880, Note_on_c, 0, 72, 0
2, 12880, Note_on_c, 0, 69, 76
2, 12880, Note_on_c, 0, 81, 76
2, 12960, Note_on_c, 0, 81, 0
2, 12960, Note_on_c, 0, 69, 0
2, 12960, Note_on_c, 0, 72, 76
2, 12960, Note_on_c, 0, 77, 76
2, 13200, Note_on_c, 0, 77, 0
2, 13200, Note_on_c, 0, 72, 0
2, 13200, Note_on_c, 0, 57, 53
2, 13200, Note_on_c, 0, 65, 59
2, 13200, Note_on_c, 0, 69, 59
2, 13272, Note_on_c, 0, 69, 0
2, 13272, Note_on_c, 0, 65, 0
2, 13272, Note_on_c, 0, 57, 0
2, 13280, Note_on_c, 0, 57, 52
2, 13280, Note_on_c, 0, 65, 58
2, 13280, Note_on_c, 0, 69, 58
2, 13352, Note_on_c, 0, 69, 0
2, 13352, Note_on_c, 0, 65, 0
2, 13352, Note_on_c, 0, 57, 0
2, 13360, Note_on_c, 0, 57, 52
2, 13360, Note_on_c, 0, 65, 58
2, 13360, Note_on_c, 0, 69, 58
2, 13432, Note_on_c, 0, 69, 0
2, 13432, Note_on_c, 0, 65, 0
2, 13432, Note_on_c, 0, 57, 0
2, 13440, Note_on_c, 0, 57, 66
2, 13440, Note_on_c, 0, 65, 74
2, 13440, Note_on_c, 0, 69, 74
2, 13840, Note_on_c, 0, 69, 0
2, 13840, Note_on_c, 0, 65, 0
2, 13840, Note_on_c, 0, 57, 0
2, 13840, Note_on_c, 0, 86, 75
2, 13840, Note_on_c, 0, 74, 75
2, 13920, Note_on_c, 0, 74, 0
2, 13920, Note_on_c, 0, 86, 0
2, 13920, Note_on_c, 0, 81, 59
2, 13920, Note_on_c, 0, 77, 59
2, 14000, Note_on_c, 0, 77, 0
2, 14000, Note_on_c, 0, 81, 0
2, 14000, Note_on_c, 0, 84, 59
2, 14000, Note_on_c, 0, 72, 59
2, 14080, Note_on_c, 0, 72, 0
2, 14080, Note_on_c, 0, 84, 0
2, 14080, Note_on_c, 0, 77, 59
2, 14080, Note_on_c, 0, 74, 59
2, 14160, Note_on_c, 0, 74, 0
2, 14160, Note_on_c, 0, 77, 0
2, 14160, Note_on_c, 0, 82, 59
2, 14160, Note_on_c, 0, 70, 59
2, 14240, Note_on_c, 0, 70, 0
2, 14240, Note_on_c, 0, 82, 0
2, 14240, Note_on_c, 0, 74, 59
2, 14240, Note_on_c, 0, 77, 59
2, 14320, Note_on_c, 0, 77, 0
2, 14320, Note_on_c, 0, 74, 0
2, 14320, Note_on_c, 0, 81, 59
2, 14320, Note_on_c, 0, 69, 59
2, 14400, Note_on_c, 0, 69, 0
2, 14400, Note_on_c, 0, 81, 0
2, 14400, Note_on_c, 0, 72, 74
2, 14400, Note_on_c, 0, 77, 74
2, 14760, Note_on_c, 0, 77, 0
2, 14760, Note_on_c, 0, 72, 0
2, 14760, Note_on_c, 0, 69, 73
2, 14760, Note_on_c, 0, 81, 73
2, 14880, Note_on_c, 0, 81, 0
2, 14880, Note_on_c, 0, 69, 0
2, 14880, Note_on_c, 0, 72, 77
2, 14880, Note_on_c, 0, 77, 77
2, 15240, Note_on_c, 0, 77, 0
2, 15240, Note_on_c, 0, 72, 0
2, 15240, Note_on_c, 0, 89, 91
2, 15240, Note_on_c, 0, 77, 91
2, 15360, Note_on_c, 0, 77, 0
2, 15360, Note_on_c, 0, 89, 0
2, 15360, Note_on_c, 0, 86, 87
2, 15360, Note_on_c, 0, 80, 87
2, 15360, Note_on_c, 0, 74, 78
2, 15360, Note_on_c, 0, 77, 78
2, 15840, Note_on_c, 0, 77, 0
2, 15840, Note_on_c, 0, 80, 0
2, 15840, Note_on_c, 0, 79, 78
2, 15840, Note_on_c, 0, 76, 78
2, 16200, Note_on_c, 0, 76, 0
2, 16200, Note_on_c, 0, 86, 0
2, 16200, Note_on_c, 0, 74, 0
2, 16200, Note_on_c, 0, 79, 0
2, 16200, Note_on_c, 0, 84, 89
2, 16200, Note_on_c, 0, 72, 89
2, 16320, Note_on_c, 0, 72, 0
2, 16320, Note_on_c, 0, 84, 0
2, 16320, Note_on_c, 0, 69, 89
2, 16320, Note_on_c, 0, 75, 89
2, 16320, Note_on_c, 0, 81, 89
2, 16720, Note_on_c, 0, 81, 0
2, 16720, Note_on_c, 0, 75, 0
2, 16720, Note_on_c, 0, 69, 0
2, 16720, Note_on_c, 0, 79, 89
2, 16720, Note_on_c, 0, 67, 89
2, 16800, Note_on_c, 0, 67, 0
2, 16800, Note_on_c, 0, 79, 0
2, 16800, Note_on_c, 0, 63, 89
2, 16800, Note_on_c, 0, 75, 89
2, 17200, Note_on_c, 0, 75, 0
2, 17200, Note_on_c, 0, 63, 0
2, 17200, Note_on_c, 0, 62, 84
2, 17200, Note_on_c, 0, 74, 84
2, 17280, Note_on_c, 0, 74, 0
2, 17280, Note_on_c, 0, 62, 0
2, 17280, Note_on_c, 0, 58, 75
2, 17280, Note_on_c, 0, 70, 84
2, 17360, Note_on_c, 0, 70, 0
2, 17360, Note_on_c, 0, 58, 0
2, 17360, Note_on_c, 0, 57, 75
2, 17360, Note_on_c, 0, 69, 84
2, 17440, Note_on_c, 0, 69, 0
2, 17440, Note_on_c, 0, 57, 0
2, 17440, Note_on_c, 0, 55, 75
2, 17440, Note_on_c, 0, 67, 84
2, 17520, Note_on_c, 0, 67, 0
2, 17520, Note_on_c, 0, 55, 0
2, 17520, Note_on_c, 0, 53, 75
2, 17520, Note_on_c, 0, 65, 84
2, 18160, Note_on_c, 0, 65, 0
2, 18160, Note_on_c, 0, 53, 0
2, 18160, Note_on_c, 0, 53, 72
2, 18160, Note_on_c, 0, 57, 72
2, 18160, Note_on_c, 0, 63, 81
2, 18160, Note_on_c, 0, 65, 81
2, 18236, Note_on_c, 0, 65, 0
2, 18236, Note_on_c, 0, 53, 0
2, 18236, Note_on_c, 0, 57, 0
2, 18236, Note_on_c, 0, 63, 0
2, 18240, Control_c, 0, 91, 127
2, 18240, Note_on_c, 0, 50, 73
2, 18240, Note_on_c, 0, 53, 73
2, 18240, Note_on_c, 0, 58, 82
2, 18240, Note_on_c, 0, 62, 82
2, 18640, Note_on_c, 0, 62, 0
2, 18640, Note_on_c, 0, 50, 0
2, 18640, Note_on_c, 0, 53, 0
2, 18640, Note_on_c, 0, 58, 0
2, 18640, Note_on_c, 0, 70, 91
2, 18640, Note_on_c, 0, 82, 91
2, 18720, Note_on_c, 0, 82, 0
2, 18720, Note_on_c, 0, 70, 0
2, 18720, Note_on_c, 0, 74, 84
2, 18720, Note_on_c, 0, 77, 84
2, 19120, Note_on_c, 0, 77, 0
2, 19120, Note_on_c, 0, 74, 0
2, 19120, Note_on_c, 0, 58, 78
2, 19120, Note_on_c, 0, 70, 87
2, 19200, Note_on_c, 0, 70, 0
2, 19200, Note_on_c, 0, 58, 0
2, 19200, Note_on_c, 0, 53, 74
2, 19200, Note_on_c, 0, 62, 83
2, 19200, Note_on_c, 0, 65, 83
2, 19440, Note_on_c, 0, 53, 0
2, 19600, Note_on_c, 0, 65, 0
2, 19600, Note_on_c, 0, 62, 0
2, 19600, Note_on_c, 0, 70, 84
2, 19600, Note_on_c, 0, 82, 84
2, 19680, Note_on_c, 0, 82, 0
2, 19680, Note_on_c, 0, 70, 0
2, 19680, Note_on_c, 0, 74, 84
2, 19680, Note_on_c, 0, 77, 84
2, 19760, Note_on_c, 0, 77, 0
2, 19760, Note_on_c, 0, 74, 0
2, 19760, Note_on_c, 0, 69, 65
2, 19760, Note_on_c, 0, 81, 65
2, 19840, Note_on_c, 0, 81, 0
2, 19840, Note_on_c, 0, 69, 0
2, 19840, Note_on_c, 0, 70, 65
2, 19840, Note_on_c, 0, 74, 65
2, 19920, Note_on_c, 0, 74, 0
2, 19920, Note_on_c, 0, 70, 0
2, 19920, Note_on_c, 0, 67, 65
2, 19920, Note_on_c, 0, 79, 65
2, 20000, Note_on_c, 0, 79, 0
2, 20000, Note_on_c, 0, 67, 0
2, 20000, Note_on_c, 0, 70, 65
2, 20000, Note_on_c, 0, 74, 65
2, 20080, Note_on_c, 0, 74, 0
2, 20080, Note_on_c, 0, 70, 0
2, 20080, Note_on_c, 0, 65, 65
2, 20080, Note_on_c, 0, 77, 65
2, 20160, Note_on_c, 0, 77, 0
2, 20160, Note_on_c, 0, 65, 0
2, 20160, Note_on_c, 0, 70, 72
2, 20160, Note_on_c, 0, 74, 72
2, 20477, Note_on_c, 0, 74, 0
2, 20477, Note_on_c, 0, 70, 0
2, 20480, Note_on_c, 0, 74, 63
2, 20480, Note_on_c, 0, 70, 63
2, 20552, Note_on_c, 0, 70, 0
2, 20552, Note_on_c, 0, 74, 0
2, 20560, Note_on_c, 0, 74, 64
2, 20560, Note_on_c, 0, 70, 64
2, 20632, Note_on_c, 0, 70, 0
2, 20632, Note_on_c, 0, 74, 0
2, 20640, Note_on_c, 0, 70, 68
2, 20640, Note_on_c, 0, 74, 68
2, 21000, Note_on_c, 0, 74, 0
2, 21000, Note_on_c, 0, 70, 0
2, 21000, Note_on_c, 0, 53, 60
2, 21000, Note_on_c, 0, 58, 60
2, 21000, Note_on_c, 0, 62, 67
2, 21000, Note_on_c, 0, 65, 67
2, 21108, Note_on_c, 0, 65, 0
2, 21108, Note_on_c, 0, 53, 0
2, 21108, Note_on_c, 0, 58, 0
2, 21108, Note_on_c, 0, 62, 0
2, 21120, Note_on_c, 0, 53, 58
2, 21120, Note_on_c, 0, 58, 58
2, 21120, Note_on_c, 0, 62, 65
2, 21120, Note_on_c, 0, 65, 65
2, 21200, Note_on_c, 0, 65, 0
2, 21200, Note_on_c, 0, 53, 0
2, 21200, Note_on_c, 0, 58, 0
2, 21200, Note_on_c, 0, 62, 0
2, 21200, Note_on_c, 0, 70, 65
2, 21280, Note_on_c, 0, 70, 0
2, 21280, Note_on_c, 0, 74, 65
2, 21360, Note_on_c, 0, 74, 0
2, 21360, Note_on_c, 0, 65, 64
2, 21360, Note_on_c, 0, 70, 64
2, 21360, Note_on_c, 0, 74, 72
2, 21360, Note_on_c, 0, 77, 72
2, 21840, Note_on_c, 0, 65, 0
2, 22000, Note_on_c, 0, 70, 0
2, 22000, Note_on_c, 0, 74, 0
2, 22000, Note_on_c, 0, 77, 0
2, 22000, Note_on_c, 0, 67, 55
2, 22000, Note_on_c, 0, 70, 55
2, 22000, Note_on_c, 0, 75, 62
2, 22000, Note_on_c, 0, 79, 62
2, 22080, Note_on_c, 0, 79, 0
2, 22080, Note_on_c, 0, 67, 0
2, 22080, Note_on_c, 0, 70, 0
2, 22080, Note_on_c, 0, 75, 0
2, 22080, Note_on_c, 0, 77, 66
2, 22080, Note_on_c, 0, 74, 66
2, 22080, Note_on_c, 0, 70, 59
2, 22080, Note_on_c, 0, 65, 59
2, 22480, Note_on_c, 0, 65, 0
2, 22480, Note_on_c, 0, 77, 0
2, 22480, Note_on_c, 0, 74, 0
2, 22480, Note_on_c, 0, 70, 0
2, 22480, Note_on_c, 0, 70, 96
2, 22480, Note_on_c, 0, 82, 96
2, 22560, Note_on_c, 0, 82, 0
2, 22560, Note_on_c, 0, 70, 0
2, 22560, Note_on_c, 0, 74, 84
2, 22560, Note_on_c, 0, 77, 84
2, 22800, Note_on_c, 0, 77, 0
2, 22800, Note_on_c, 0, 74, 0
2, 22800, Note_on_c, 0, 58, 84
2, 22800, Note_on_c, 0, 70, 84
2, 22872, Note_on_c, 0, 70, 0
2, 22872, Note_on_c, 0, 58, 0
2, 22880, Note_on_c, 0, 58, 84
2, 22880, Note_on_c, 0, 70, 84
2, 22952, Note_on_c, 0, 70, 0
2, 22952, Note_on_c, 0, 58, 0
2, 22960, Note_on_c, 0, 58, 84
2, 22960, Note_on_c, 0, 70, 84
2, 23032, Note_on_c, 0, 70, 0
2, 23032, Note_on_c, 0, 58, 0
2, 23040, Note_on_c, 0, 53, 75
2, 23040, Note_on_c, 0, 62, 84
2, 23040, Note_on_c, 0, 65, 84
2, 23280, Note_on_c, 0, 53, 0
2, 23440, Note_on_c, 0, 65, 0
2, 23440, Note_on_c, 0, 62, 0
2, 23440, Note_on_c, 0, 70, 84
2, 23440, Note_on_c, 0, 82, 84
2, 23520, Note_on_c, 0, 82, 0
2, 23520, Note_on_c, 0, 70, 0
2, 23520, Note_on_c, 0, 74, 84
2, 23520, Note_on_c, 0, 77, 84
2, 23600, Note_on_c, 0, 77, 0
2, 23600, Note_on_c, 0, 74, 0
2, 23600, Note_on_c, 0, 69, 66
2, 23600, Note_on_c, 0, 81, 66
2, 23680, Note_on_c, 0, 81, 0
2, 23680, Note_on_c, 0, 69, 0
2, 23680, Note_on_c, 0, 70, 63
2, 23680, Note_on_c, 0, 74, 63
2, 23760, Note_on_c, 0, 74, 0
2, 23760, Note_on_c, 0, 70, 0
2, 23760, Note_on_c, 0, 67, 66
2, 23760, Note_on_c, 0, 79, 66
2, 23840, Note_on_c, 0, 79, 0
2, 23840, Note_on_c, 0, 67, 0
2, 23840, Note_on_c, 0, 70, 66
2, 23840, Note_on_c, 0, 74, 66
2, 23920, Note_on_c, 0, 74, 0
2, 23920, Note_on_c, 0, 70, 0
2, 23920, Note_on_c, 0, 65, 66
2, 23920, Note_on_c, 0, 77, 66
2, 24000, Note_on_c, 0, 77, 0
2, 24000, Note_on_c, 0, 65, 0
2, 24000, Note_on_c, 0, 70, 72
2, 24000, Note_on_c, 0, 74, 72
2, 24238, Note_on_c, 0, 74, 0
2, 24238, Note_on_c, 0, 70, 0
2, 24240, Note_on_c, 0, 70, 64
2, 24240, Note_on_c, 0, 74, 64
2, 24312, Note_on_c, 0, 74, 0
2, 24312, Note_on_c, 0, 70, 0
2, 24320, Note_on_c, 0, 70, 64
2, 24320, Note_on_c, 0, 74, 64
2, 24392, Note_on_c, 0, 74, 0
2, 24392, Note_on_c, 0, 70, 0
2, 24400, Note_on_c, 0, 70, 64
2, 24400, Note_on_c, 0, 74, 64
2, 24472, Note_on_c, 0, 74, 0
2, 24472, Note_on_c, 0, 70, 0
2, 24480, Note_on_c, 0, 70, 68
2, 24480, Note_on_c, 0, 74, 68
2, 24840, Note_on_c, 0, 74, 0
2, 24840, Note_on_c, 0, 70, 0
2, 24840, Note_on_c, 0, 53, 61
2, 24840, Note_on_c, 0, 58, 61
2, 24840, Note_on_c, 0, 62, 68
2, 24840, Note_on_c, 0, 65, 68
2, 24948, Note_on_c, 0, 65, 0
2, 24948, Note_on_c, 0, 53, 0
2, 24948, Note_on_c, 0, 58, 0
2, 24948, Note_on_c, 0, 62, 0
2, 24960, Note_on_c, 0, 53, 61
2, 24960, Note_on_c, 0, 58, 61
2, 24960, Note_on_c, 0, 62, 68
2, 24960, Note_on_c, 0, 65, 68
2, 25040, Note_on_c, 0, 65, 0
2, 25040, Note_on_c, 0, 53, 0
2, 25040, Note_on_c, 0, 58, 0
2, 25040, Note_on_c, 0, 62, 0
2, 25040, Note_on_c, 0, 70, 66
2, 25120, Note_on_c, 0, 70, 0
2, 25120, Note_on_c, 0, 74, 70
2, 25200, Note_on_c, 0, 74, 0
2, 25200, Note_on_c, 0, 65, 65
2, 25200, Note_on_c, 0, 70, 65
2, 25200, Note_on_c, 0, 74, 73
2, 25200, Note_on_c, 0, 77, 73
2, 25680, Note_on_c, 0, 65, 0
2, 25840, Note_on_c, 0, 70, 0
2, 25840, Note_on_c, 0, 74, 0
2, 25840, Note_on_c, 0, 77, 0
2, 25840, Note_on_c, 0, 67, 64
2, 25840, Note_on_c, 0, 70, 64
2, 25840, Note_on_c, 0, 74, 72
2, 25840, Note_on_c, 0, 79, 72
2, 25916, Note_on_c, 0, 79, 0
2, 25916, Note_on_c, 0, 67, 0
2, 25916, Note_on_c, 0, 70, 0
2, 25916, Note_on_c, 0, 74, 0
2, 25920, Note_on_c, 0, 65, 64
2, 25920, Note_on_c, 0, 69, 64
2, 25920, Note_on_c, 0, 74, 72
2, 25920, Note_on_c, 0, 77, 72
2, 26160, Note_on_c, 0, 77, 0
2, 26160, Note_on_c, 0, 65, 0
2, 26160, Note_on_c, 0, 69, 0
2, 26160, Note_on_c, 0, 74, 0
2, 26160, Note_on_c, 0, 57, 61
2, 26160, Note_on_c, 0, 62, 61
2, 26160, Note_on_c, 0, 65, 68
2, 26160, Note_on_c, 0, 69, 68
2, 26240, Note_on_c, 0, 69, 0
2, 26240, Note_on_c, 0, 57, 0
2, 26240, Note_on_c, 0, 62, 0
2, 26240, Note_on_c, 0, 65, 0
2, 26240, Note_on_c, 0, 74, 72
2, 26320, Note_on_c, 0, 74, 0
2, 26320, Note_on_c, 0, 77, 73
2, 26400, Note_on_c, 0, 77, 0
2, 26400, Note_on_c, 0, 69, 75
2, 26400, Note_on_c, 0, 74, 75
2, 26400, Note_on_c, 0, 77, 84
2, 26400, Note_on_c, 0, 81, 84
2, 26800, Note_on_c, 0, 81, 0
2, 26800, Note_on_c, 0, 69, 0
2, 26800, Note_on_c, 0, 74, 0
2, 26800, Note_on_c, 0, 77, 0
2, 26800, Note_on_c, 0, 70, 75
2, 26800, Note_on_c, 0, 73, 75
2, 26800, Note_on_c, 0, 77, 84
2, 26800, Note_on_c, 0, 82, 84
2, 26880, Note_on_c, 0, 82, 0
2, 26880, Note_on_c, 0, 70, 0
2, 26880, Note_on_c, 0, 73, 0
2, 26880, Note_on_c, 0, 77, 0
2, 26880, Note_on_c, 0, 69, 75
2, 26880, Note_on_c, 0, 72, 75
2, 26880, Note_on_c, 0, 77, 84
2, 26880, Note_on_c, 0, 81, 84
2, 27120, Note_on_c, 0, 81, 0
2, 27120, Note_on_c, 0, 69, 0
2, 27120, Note_on_c, 0, 72, 0
2, 27120, Note_on_c, 0, 77, 0
2, 27120, Note_on_c, 0, 60, 63
2, 27120, Note_on_c, 0, 65, 63
2, 27120, Note_on_c, 0, 69, 70
2, 27120, Note_on_c, 0, 72, 70
2, 27200, Note_on_c, 0, 72, 0
2, 27200, Note_on_c, 0, 60, 0
2, 27200, Note_on_c, 0, 65, 0
2, 27200, Note_on_c, 0, 69, 0
2, 27200, Note_on_c, 0, 77, 72
2, 27280, Note_on_c, 0, 77, 0
2, 27280, Note_on_c, 0, 81, 76
2, 27358, Note_on_c, 0, 81, 0
2, 27360, Note_on_c, 0, 72, 75
2, 27360, Note_on_c, 0, 77, 75
2, 27360, Note_on_c, 0, 81, 84
2, 27360, Note_on_c, 0, 84, 84
2, 27760, Note_on_c, 0, 84, 0
2, 27760, Note_on_c, 0, 72, 0
2, 27760, Note_on_c, 0, 77, 0
2, 27760, Note_on_c, 0, 81, 0
2, 27760, Note_on_c, 0, 75, 68
2, 27760, Note_on_c, 0, 78, 68
2, 27760, Note_on_c, 0, 84, 76
2, 27760, Note_on_c, 0, 87, 76
2, 27840, Note_on_c, 0, 87, 0
2, 27840, Note_on_c, 0, 75, 0
2, 27840, Note_on_c, 0, 78, 0
2, 27840, Note_on_c, 0, 84, 0
2, 27840, Note_on_c, 0, 74, 75
2, 27840, Note_on_c, 0, 86, 84
2, 27840, Note_on_c, 0, 82, 84
2, 27840, Note_on_c, 0, 79, 75
2, 28240, Note_on_c, 0, 79, 0
2, 28240, Note_on_c, 0, 74, 0
2, 28240, Note_on_c, 0, 86, 0
2, 28240, Note_on_c, 0, 82, 0
2, 28240, Note_on_c, 0, 72, 75
2, 28240, Note_on_c, 0, 75, 75
2, 28240, Note_on_c, 0, 78, 84
2, 28240, Note_on_c, 0, 84, 84
2, 28320, Note_on_c, 0, 84, 0
2, 28320, Note_on_c, 0, 72, 0
2, 28320, Note_on_c, 0, 75, 0
2, 28320, Note_on_c, 0, 78, 0
2, 28320, Note_on_c, 0, 70, 75
2, 28320, Note_on_c, 0, 74, 75
2, 28320, Note_on_c, 0, 82, 84
2, 28320, Note_on_c, 0, 79, 84
2, 28720, Note_on_c, 0, 79, 0
2, 28720, Note_on_c, 0, 70, 0
2, 28720, Note_on_c, 0, 74, 0
2, 28720, Note_on_c, 0, 82, 0
2, 28720, Note_on_c, 0, 67, 75
2, 28720, Note_on_c, 0, 72, 75
2, 28720, Note_on_c, 0, 75, 84
2, 28720, Note_on_c, 0, 79, 84
2, 28800, Note_on_c, 0, 79, 0
2, 28800, Note_on_c, 0, 67, 0
2, 28800, Note_on_c, 0, 72, 0
2, 28800, Note_on_c, 0, 75, 0
2, 28800, Note_on_c, 0, 65, 75
2, 28800, Note_on_c, 0, 74, 84
2, 28800, Note_on_c, 0, 77, 84
2, 28960, Note_on_c, 0, 77, 0
2, 28960, Note_on_c, 0, 74, 0
2, 28960, Note_on_c, 0, 65, 0
2, 28960, Note_on_c, 0, 63, 75
2, 28960, Note_on_c, 0, 72, 84
2, 28960, Note_on_c, 0, 75, 84
2, 29120, Note_on_c, 0, 75, 0
2, 29120, Note_on_c, 0, 72, 0
2, 29120, Note_on_c, 0, 63, 0
2, 29120, Note_on_c, 0, 62, 75
2, 29120, Note_on_c, 0, 70, 84
2, 29120, Note_on_c, 0, 74, 84
2, 29280, Note_on_c, 0, 74, 0
2, 29280, Note_on_c, 0, 70, 0
2, 29280, Note_on_c, 0, 62, 0
2, 29280, Note_on_c, 0, 70, 77
2, 29280, Note_on_c, 0, 76, 86
2, 29280, Note_on_c, 0, 74, 86
2, 29280, Note_on_c, 0, 82, 86
2, 29376, Note_on_c, 0, 82, 0
2, 29376, Note_on_c, 0, 70, 0
2, 29376, Note_on_c, 0, 76, 0
2, 29376, Note_on_c, 0, 74, 0
2, 29376, Note_on_c, 0, 81, 83
2, 29376, Note_on_c, 0, 76, 83
2, 29376, Note_on_c, 0, 73, 74
2, 29376, Note_on_c, 0, 69, 74
2, 29472, Note_on_c, 0, 69, 0
2, 29472, Note_on_c, 0, 81, 0
2, 29472, Note_on_c, 0, 76, 0
2, 29472, Note_on_c, 0, 73, 0
2, 29472, Note_on_c, 0, 77, 81
2, 29472, Note_on_c, 0, 74, 81
2, 29472, Note_on_c, 0, 69, 72
2, 29472, Note_on_c, 0, 65, 72
2, 29568, Note_on_c, 0, 65, 0
2, 29568, Note_on_c, 0, 77, 0
2, 29568, Note_on_c, 0, 74, 0
2, 29568, Note_on_c, 0, 69, 0
2, 29568, Note_on_c, 0, 74, 81
2, 29568, Note_on_c, 0, 70, 81
2, 29568, Note_on_c, 0, 65, 72
2, 29568, Note_on_c, 0, 62, 72
2, 29664, Note_on_c, 0, 62, 0
2, 29664, Note_on_c, 0, 74, 0
2, 29664, Note_on_c, 0, 70, 0
2, 29664, Note_on_c, 0, 65, 0
2, 29664, Note_on_c, 0, 79, 80
2, 29664, Note_on_c, 0, 75, 80
2, 29664, Note_on_c, 0, 70, 72
2, 29664, Note_on_c, 0, 67, 72
2, 29760, Note_on_c, 0, 67, 0
2, 29760, Note_on_c, 0, 79, 0
2, 29760, Note_on_c, 0, 75, 0
2, 29760, Note_on_c, 0, 70, 0
2, 29760, Control_c, 0, 91, 127
2, 29760, Note_on_c, 0, 65, 75
2, 29760, Note_on_c, 0, 70, 75
2, 29760, Note_on_c, 0, 74, 84
2, 29760, Note_on_c, 0, 77, 84
2, 30235, Note_on_c, 0, 74, 0
2, 30235, Note_on_c, 0, 70, 0
2, 30240, Note_on_c, 0, 75, 58
2, 30240, Note_on_c, 0, 69, 57
2, 30592, Note_on_c, 0, 65, 0
2, 30592, Note_on_c, 0, 77, 0
2, 30597, Note_on_c, 0, 75, 0
2, 30597, Note_on_c, 0, 69, 0
2, 30600, Note_on_c, 0, 65, 97
2, 30600, Note_on_c, 0, 77, 97
2, 30720, Note_on_c, 0, 77, 0
2, 30720, Note_on_c, 0, 65, 0
2, 30720, Note_on_c, 0, 74, 95
2, 30720, Note_on_c, 0, 70, 92
2, 30720, Note_on_c, 0, 65, 85
2, 30720, Note_on_c, 0, 62, 82
2, 30800, Note_on_c, 0, 94, 74
2, 30800, Note_on_c, 0, 82, 74
2, 30880, Note_on_c, 0, 82, 0
2, 30880, Note_on_c, 0, 94, 0
2, 30880, Note_on_c, 0, 89, 71
2, 30880, Note_on_c, 0, 86, 71
2, 30960, Note_on_c, 0, 86, 0
2, 30960, Note_on_c, 0, 89, 0
2, 30960, Note_on_c, 0, 93, 72
2, 30960, Note_on_c, 0, 81, 72
2, 31040, Note_on_c, 0, 81, 0
2, 31040, Note_on_c, 0, 93, 0
2, 31040, Note_on_c, 0, 89, 70
2, 31040, Note_on_c, 0, 86, 70
2, 31120, Note_on_c, 0, 86, 0
2, 31120, Note_on_c, 0, 89, 0
2, 31120, Note_on_c, 0, 91, 72
2, 31120, Note_on_c, 0, 79, 72
2, 31200, Note_on_c, 0, 79, 0
2, 31200, Note_on_c, 0, 91, 0
2, 31200, Note_on_c, 0, 86, 70
2, 31200, Note_on_c, 0, 82, 70
2, 31280, Note_on_c, 0, 82, 0
2, 31280, Note_on_c, 0, 86, 0
2, 31280, Note_on_c, 0, 89, 72
2, 31280, Note_on_c, 0, 77, 72
2, 31360, Note_on_c, 0, 77, 0
2, 31360, Note_on_c, 0, 89, 0
2, 31360, Note_on_c, 0, 86, 70
2, 31360, Note_on_c, 0, 82, 70
2, 31440, Note_on_c, 0, 82, 0
2, 31440, Note_on_c, 0, 86, 0
2, 31440, Note_on_c, 0, 91, 72
2, 31440, Note_on_c, 0, 79, 72
2, 31520, Note_on_c, 0, 79, 0
2, 31520, Note_on_c, 0, 91, 0
2, 31520, Note_on_c, 0, 86, 69
2, 31520, Note_on_c, 0, 82, 69
2, 31600, Note_on_c, 0, 82, 0
2, 31600, Note_on_c, 0, 86, 0
2, 31600, Note_on_c, 0, 86, 72
2, 31600, Note_on_c, 0, 74, 72
2, 31680, Note_on_c, 0, 74, 0
2, 31680, Note_on_c, 0, 86, 0
2, 31680, Note_on_c, 0, 79, 70
2, 31760, Note_on_c, 0, 79, 0
2, 31760, Note_on_c, 0, 82, 68
2, 31760, Note_on_c, 0, 70, 68
2, 31840, Note_on_c, 0, 70, 0
2, 31840, Note_on_c, 0, 82, 0
2, 31840, Note_on_c, 0, 82, 66
2, 31920, Note_on_c, 0, 82, 0
2, 31920, Note_on_c, 0, 86, 64
2, 31920, Note_on_c, 0, 74, 64
2, 32000, Note_on_c, 0, 74, 0
2, 32000, Note_on_c, 0, 86, 0
2, 32000, Note_on_c, 0, 82, 63
2, 32080, Note_on_c, 0, 82, 0
2, 32080, Note_on_c, 0, 86, 61
2, 32080, Note_on_c, 0, 74, 61
2, 32160, Note_on_c, 0, 74, 0
2, 32160, Note_on_c, 0, 86, 0
2, 32160, Note_on_c, 0, 82, 60
2, 32240, Note_on_c, 0, 82, 0
2, 32240, Note_on_c, 0, 72, 58
2, 32240, Note_on_c, 0, 84, 58
2, 32320, Note_on_c, 0, 84, 0
2, 32320, Note_on_c, 0, 72, 0
2, 32320, Note_on_c, 0, 82, 56
2, 32400, Note_on_c, 0, 82, 0
2, 32400, Note_on_c, 0, 86, 55
2, 32400, Note_on_c, 0, 74, 55
2, 32480, Note_on_c, 0, 74, 0
2, 32480, Note_on_c, 0, 86, 0
2, 32480, Note_on_c, 0, 77, 53
2, 32560, Note_on_c, 0, 77, 0
2, 32560, Note_on_c, 0, 82, 51
2, 32560, Note_on_c, 0, 70, 51
2, 32640, Note_on_c, 0, 70, 0
2, 32640, Note_on_c, 0, 70, 0
2, 32640, Note_on_c, 0, 65, 0
2, 32640, Note_on_c, 0, 74, 0
2, 32640, Note_on_c, 0, 82, 0
2, 32640, Note_on_c, 0, 62, 0
2, 32720, Note_on_c, 0, 86, 75
2, 32720, Note_on_c, 0, 74, 75
2, 32800, Note_on_c, 0, 74, 0
2, 32800, Note_on_c, 0, 86, 0
2, 32800, Note_on_c, 0, 82, 71
2, 32800, Note_on_c, 0, 77, 71
2, 32880, Note_on_c, 0, 77, 0
2, 32880, Note_on_c, 0, 82, 0
2, 32880, Note_on_c, 0, 89, 72
2, 32880, Note_on_c, 0, 77, 72
2, 32960, Note_on_c, 0, 77, 0
2, 32960, Note_on_c, 0, 89, 0
2, 32960, Note_on_c, 0, 86, 68
2, 32960, Note_on_c, 0, 82, 68
2, 33040, Note_on_c, 0, 82, 0
2, 33040, Note_on_c, 0, 86, 0
2, 33040, Note_on_c, 0, 86, 68
2, 33040, Note_on_c, 0, 74, 68
2, 33120, Note_on_c, 0, 74, 0
2, 33120, Note_on_c, 0, 86, 0
2, 33120, Note_on_c, 0, 82, 63
2, 33120, Note_on_c, 0, 77, 63
2, 33200, Note_on_c, 0, 77, 0
2, 33200, Note_on_c, 0, 82, 0
2, 33200, Note_on_c, 0, 84, 64
2, 33200, Note_on_c, 0, 72, 64
2, 33280, Note_on_c, 0, 72, 0
2, 33280, Note_on_c, 0, 84, 0
2, 33280, Note_on_c, 0, 82, 58
2, 33280, Note_on_c, 0, 77, 58
2, 33360, Note_on_c, 0, 77, 0
2, 33360, Note_on_c, 0, 82, 0
2, 33360, Note_on_c, 0, 86, 61
2, 33360, Note_on_c, 0, 74, 61
2, 33440, Note_on_c, 0, 74, 0
2, 33440, Note_on_c, 0, 86, 0
2, 33440, Note_on_c, 0, 77, 60
2, 33520, Note_on_c, 0, 77, 0
2, 33520, Note_on_c, 0, 82, 58
2, 33520, Note_on_c, 0, 70, 58
2, 33600, Note_on_c, 0, 70, 0
2, 33600, Note_on_c, 0, 82, 0
2, 33600, Note_on_c, 0, 74, 56
2, 33680, Note_on_c, 0, 74, 0
2, 33680, Note_on_c, 0, 79, 54
2, 33680, Note_on_c, 0, 67, 54
2, 33760, Note_on_c, 0, 67, 0
2, 33760, Note_on_c, 0, 79, 0
2, 33760, Note_on_c, 0, 74, 53
2, 33840, Note_on_c, 0, 74, 0
2, 33840, Note_on_c, 0, 82, 51
2, 33840, Note_on_c, 0, 70, 51
2, 33920, Note_on_c, 0, 70, 0
2, 33920, Note_on_c, 0, 82, 0
2, 33920, Note_on_c, 0, 74, 48
2, 34000, Note_on_c, 0, 74, 0
2, 34000, Note_on_c, 0, 79, 47
2, 34000, Note_on_c, 0, 67, 47
2, 34080, Note_on_c, 0, 67, 0
2, 34080, Note_on_c, 0, 79, 0
2, 34080, Note_on_c, 0, 70, 45
2, 34160, Note_on_c, 0, 70, 0
2, 34160, Note_on_c, 0, 77, 45
2, 34160, Note_on_c, 0, 65, 45
2, 34240, Note_on_c, 0, 65, 0
2, 34240, Note_on_c, 0, 77, 0
2, 34240, Note_on_c, 0, 70, 45
2, 34320, Note_on_c, 0, 70, 0
2, 34320, Note_on_c, 0, 75, 45
2, 34320, Note_on_c, 0, 63, 45
2, 34400, Note_on_c, 0, 63, 0
2, 34400, Note_on_c, 0, 75, 0
2, 34400, Note_on_c, 0, 70, 45
2, 34480, Note_on_c, 0, 70, 0
2, 34480, Note_on_c, 0, 62, 45
2, 34480, Note_on_c, 0, 74, 45
2, 34560, Note_on_c, 0, 74, 0
2, 34560, Note_on_c, 0, 62, 0
2, 34560, Note_on_c, 0, 61, 48
2, 34560, Note_on_c, 0, 66, 48
2, 34560, Note_on_c, 0, 70, 54
2, 34560, Note_on_c, 0, 73, 54
2, 34640, Note_on_c, 0, 90, 55
2, 34640, Note_on_c, 0, 78, 55
2, 34680, Note_on_c, 0, 73, 0
2, 34680, Note_on_c, 0, 70, 0
2, 34680, Note_on_c, 0, 61, 0
2, 34680, Note_on_c, 0, 66, 0
2, 34720, Note_on_c, 0, 78, 0
2, 34720, Note_on_c, 0, 90, 0
2, 34720, Note_on_c, 0, 85, 51
2, 34720, Note_on_c, 0, 82, 51
2, 34800, Note_on_c, 0, 82, 0
2, 34800, Note_on_c, 0, 85, 0
2, 34800, Note_on_c, 0, 89, 54
2, 34800, Note_on_c, 0, 77, 54
2, 34880, Note_on_c, 0, 77, 0
2, 34880, Note_on_c, 0, 89, 0
2, 34880, Note_on_c, 0, 85, 49
2, 34880, Note_on_c, 0, 82, 49
2, 34960, Note_on_c, 0, 82, 0
2, 34960, Note_on_c, 0, 85, 0
2, 34960, Note_on_c, 0, 87, 52
2, 34960, Note_on_c, 0, 75, 52
2, 35040, Note_on_c, 0, 75, 0
2, 35040, Note_on_c, 0, 87, 0
2, 35040, Note_on_c, 0, 82, 48
2, 35040, Note_on_c, 0, 78, 48
2, 35120, Note_on_c, 0, 78, 0
2, 35120, Note_on_c, 0, 82, 0
2, 35120, Note_on_c, 0, 85, 50
2, 35120, Note_on_c, 0, 73, 50
2, 35200, Note_on_c, 0, 73, 0
2, 35200, Note_on_c, 0, 85, 0
2, 35200, Note_on_c, 0, 82, 45
2, 35200, Note_on_c, 0, 78, 45
2, 35280, Note_on_c, 0, 78, 0
2, 35280, Note_on_c, 0, 82, 0
2, 35280, Note_on_c, 0, 87, 48
2, 35280, Note_on_c, 0, 75, 48
2, 35360, Note_on_c, 0, 75, 0
2, 35360, Note_on_c, 0, 87, 0
2, 35360, Note_on_c, 0, 82, 45
2, 35360, Note_on_c, 0, 78, 45
2, 35440, Note_on_c, 0, 78, 0
2, 35440, Note_on_c, 0, 82, 0
2, 35440, Note_on_c, 0, 85, 46
2, 35440, Note_on_c, 0, 73, 46
2, 35520, Note_on_c, 0, 73, 0
2, 35520, Note_on_c, 0, 85, 0
2, 35520, Note_on_c, 0, 78, 47
2, 35600, Note_on_c, 0, 78, 0
2, 35600, Note_on_c, 0, 82, 46
2, 35600, Note_on_c, 0, 70, 46
2, 35680, Note_on_c, 0, 70, 0
2, 35680, Note_on_c, 0, 82, 0
2, 35680, Note_on_c, 0, 78, 45
2, 35760, Note_on_c, 0, 78, 0
2, 35760, Note_on_c, 0, 85, 45
2, 35760, Note_on_c, 0, 73, 45
2, 35840, Note_on_c, 0, 73, 0
2, 35840, Note_on_c, 0, 85, 0
2, 35840, Note_on_c, 0, 78, 45
2, 35920, Note_on_c, 0, 78, 0
2, 35920, Note_on_c, 0, 82, 44
2, 35920, Note_on_c, 0, 70, 44
2, 36000, Note_on_c, 0, 70, 0
2, 36000, Note_on_c, 0, 82, 0
2, 36000, Note_on_c, 0, 73, 43
2, 36080, Note_on_c, 0, 73, 0
2, 36080, Note_on_c, 0, 80, 42
2, 36080, Note_on_c, 0, 68, 42
2, 36160, Note_on_c, 0, 68, 0
2, 36160, Note_on_c, 0, 80, 0
2, 36160, Note_on_c, 0, 73, 41
2, 36240, Note_on_c, 0, 73, 0
2, 36240, Note_on_c, 0, 82, 40
2, 36240, Note_on_c, 0, 70, 40
2, 36320, Note_on_c, 0, 70, 0
2, 36320, Note_on_c, 0, 82, 0
2, 36320, Note_on_c, 0, 73, 40
2, 36400, Note_on_c, 0, 73, 0
2, 36400, Note_on_c, 0, 78, 40
2, 36400, Note_on_c, 0, 66, 40
2, 36480, Note_on_c, 0, 66, 0
2, 36480, Note_on_c, 0, 78, 0
2, 36560, Note_on_c, 0, 85, 54
2, 36560, Note_on_c, 0, 73, 54
2, 36640, Note_on_c, 0, 73, 0
2, 36640, Note_on_c, 0, 85, 0
2, 36640, Note_on_c, 0, 82, 49
2, 36640, Note_on_c, 0, 77, 49
2, 36720, Note_on_c, 0, 77, 0
2, 36720, Note_on_c, 0, 82, 0
2, 36720, Note_on_c, 0, 89, 52
2, 36720, Note_on_c, 0, 77, 52
2, 36800, Note_on_c, 0, 77, 0
2, 36800, Note_on_c, 0, 89, 0
2, 36800, Note_on_c, 0, 85, 48
2, 36800, Note_on_c, 0, 82, 48
2, 36880, Note_on_c, 0, 82, 0
2, 36880, Note_on_c, 0, 85, 0
2, 36880, Note_on_c, 0, 85, 50
2, 36880, Note_on_c, 0, 73, 50
2, 36960, Note_on_c, 0, 73, 0
2, 36960, Note_on_c, 0, 85, 0
2, 36960, Note_on_c, 0, 82, 47
2, 36960, Note_on_c, 0, 77, 47
2, 37040, Note_on_c, 0, 77, 0
2, 37040, Note_on_c, 0, 82, 0
2, 37040, Note_on_c, 0, 84, 48
2, 37040, Note_on_c, 0, 72, 48
2, 37120, Note_on_c, 0, 72, 0
2, 37120, Note_on_c, 0, 84, 0
2, 37120, Note_on_c, 0, 82, 44
2, 37120, Note_on_c, 0, 77, 44
2, 37200, Note_on_c, 0, 77, 0
2, 37200, Note_on_c, 0, 82, 0
2, 37200, Note_on_c, 0, 85, 46
2, 37200, Note_on_c, 0, 73, 46
2, 37280, Note_on_c, 0, 73, 0
2, 37280, Note_on_c, 0, 85, 0
2, 37280, Note_on_c, 0, 82, 44
2, 37280, Note_on_c, 0, 77, 44
2, 37360, Note_on_c, 0, 77, 0
2, 37360, Note_on_c, 0, 82, 0
2, 37360, Note_on_c, 0, 84, 45
2, 37360, Note_on_c, 0, 72, 45
2, 37440, Note_on_c, 0, 72, 0
2, 37440, Note_on_c, 0, 84, 0
2, 37440, Note_on_c, 0, 77, 45
2, 37520, Note_on_c, 0, 77, 0
2, 37520, Note_on_c, 0, 82, 45
2, 37520, Note_on_c, 0, 70, 45
2, 37600, Note_on_c, 0, 70, 0
2, 37600, Note_on_c, 0, 82, 0
2, 37600, Note_on_c, 0, 77, 45
2, 37680, Note_on_c, 0, 77, 0
2, 37680, Note_on_c, 0, 85, 45
2, 37680, Note_on_c, 0, 73, 45
2, 37760, Note_on_c, 0, 73, 0
2, 37760, Note_on_c, 0, 85, 0
2, 37760, Note_on_c, 0, 77, 45
2, 37840, Note_on_c, 0, 77, 0
2, 37840, Note_on_c, 0, 82, 48
2, 37840, Note_on_c, 0, 70, 48
2, 37920, Note_on_c, 0, 70, 0
2, 37920, Note_on_c, 0, 82, 0
2, 37920, Note_on_c, 0, 73, 45
2, 38000, Note_on_c, 0, 73, 0
2, 38000, Note_on_c, 0, 78, 49
2, 38000, Note_on_c, 0, 66, 49
2, 38080, Note_on_c, 0, 66, 0
2, 38080, Note_on_c, 0, 78, 0
2, 38080, Note_on_c, 0, 73, 46
2, 38160, Note_on_c, 0, 73, 0
2, 38160, Note_on_c, 0, 82, 50
2, 38160, Note_on_c, 0, 70, 50
2, 38240, Note_on_c, 0, 70, 0
2, 38240, Note_on_c, 0, 82, 0
2, 38240, Note_on_c, 0, 73, 48
2, 38320, Note_on_c, 0, 73, 0
2, 38320, Note_on_c, 0, 77, 53
2, 38400, Note_on_c, 0, 77, 0
2, 38480, Note_on_c, 0, 85, 59
2, 38480, Note_on_c, 0, 73, 59
2, 38560, Note_on_c, 0, 73, 0
2, 38560, Note_on_c, 0, 85, 0
2, 38560, Note_on_c, 0, 82, 56
2, 38560, Note_on_c, 0, 78, 56
2, 38640, Note_on_c, 0, 78, 0
2, 38640, Note_on_c, 0, 82, 0
2, 38640, Note_on_c, 0, 87, 59
2, 38640, Note_on_c, 0, 75, 59
2, 38720, Note_on_c, 0, 75, 0
2, 38720, Note_on_c, 0, 87, 0
2, 38720, Note_on_c, 0, 82, 55
2, 38720, Note_on_c, 0, 78, 55
2, 38800, Note_on_c, 0, 78, 0
2, 38800, Note_on_c, 0, 82, 0
2, 38800, Note_on_c, 0, 85, 59
2, 38800, Note_on_c, 0, 73, 59
2, 38880, Note_on_c, 0, 73, 0
2, 38880, Note_on_c, 0, 85, 0
2, 38880, Note_on_c, 0, 78, 58
2, 38960, Note_on_c, 0, 78, 0
2, 38960, Note_on_c, 0, 82, 58
2, 38960, Note_on_c, 0, 70, 58
2, 39040, Note_on_c, 0, 70, 0
2, 39040, Note_on_c, 0, 82, 0
2, 39040, Note_on_c, 0, 78, 55
2, 39120, Note_on_c, 0, 78, 0
2, 39120, Note_on_c, 0, 84, 56
2, 39120, Note_on_c, 0, 72, 56
2, 39200, Note_on_c, 0, 72, 0
2, 39200, Note_on_c, 0, 84, 0
2, 39200, Note_on_c, 0, 78, 53
2, 39280, Note_on_c, 0, 78, 0
2, 39280, Note_on_c, 0, 85, 55
2, 39280, Note_on_c, 0, 73, 55
2, 39360, Note_on_c, 0, 73, 0
2, 39360, Note_on_c, 0, 85, 0
2, 39360, Note_on_c, 0, 84, 52
2, 39360, Note_on_c, 0, 80, 52
2, 39440, Note_on_c, 0, 80, 0
2, 39440, Note_on_c, 0, 84, 0
2, 39440, Note_on_c, 0, 75, 54
2, 39440, Note_on_c, 0, 87, 54
2, 39520, Note_on_c, 0, 87, 0
2, 39520, Note_on_c, 0, 75, 0
2, 39520, Note_on_c, 0, 84, 50
2, 39520, Note_on_c, 0, 80, 50
2, 39600, Note_on_c, 0, 80, 0
2, 39600, Note_on_c, 0, 84, 0
2, 39600, Note_on_c, 0, 77, 52
2, 39600, Note_on_c, 0, 89, 52
2, 39680, Note_on_c, 0, 89, 0
2, 39680, Note_on_c, 0, 77, 0
2, 39680, Note_on_c, 0, 84, 48
2, 39680, Note_on_c, 0, 80, 48
2, 39760, Note_on_c, 0, 80, 0
2, 39760, Note_on_c, 0, 84, 0
2, 39760, Note_on_c, 0, 78, 51
2, 39760, Note_on_c, 0, 90, 51
2, 39840, Note_on_c, 0, 90, 0
2, 39840, Note_on_c, 0, 78, 0
2, 39840, Note_on_c, 0, 84, 47
2, 39840, Note_on_c, 0, 87, 47
2, 39920, Note_on_c, 0, 87, 0
2, 39920, Note_on_c, 0, 84, 0
2, 39920, Note_on_c, 0, 78, 48
2, 39920, Note_on_c, 0, 90, 48
2, 40000, Note_on_c, 0, 90, 0
2, 40000, Note_on_c, 0, 78, 0
2, 40000, Note_on_c, 0, 84, 41
2, 40000, Note_on_c, 0, 87, 41
2, 40080, Note_on_c, 0, 87, 0
2, 40080, Note_on_c, 0, 84, 0
2, 40080, Note_on_c, 0, 92, 43
2, 40080, Note_on_c, 0, 80, 43
2, 40160, Note_on_c, 0, 80, 0
2, 40160, Note_on_c, 0, 92, 0
2, 40160, Note_on_c, 0, 87, 39
2, 40160, Note_on_c, 0, 84, 39
2, 40240, Note_on_c, 0, 84, 0
2, 40240, Note_on_c, 0, 87, 0
2, 40240, Note_on_c, 0, 94, 42
2, 40240, Note_on_c, 0, 82, 42
2, 40320, Note_on_c, 0, 82, 0
2, 40320, Note_on_c, 0, 94, 0
2, 40320, Note_on_c, 0, 85, 36
2, 40320, Note_on_c, 0, 89, 36
2, 40400, Note_on_c, 0, 89, 0
2, 40400, Note_on_c, 0, 85, 0
2, 40400, Note_on_c, 0, 82, 40
2, 40400, Note_on_c, 0, 94, 40
2, 40480, Note_on_c, 0, 94, 0
2, 40480, Note_on_c, 0, 82, 0
2, 40480, Note_on_c, 0, 89, 40
2, 40560, Note_on_c, 0, 89, 0
2, 40560, Note_on_c, 0, 84, 42
2, 40560, Note_on_c, 0, 96, 42
2, 40640, Note_on_c, 0, 96, 0
2, 40640, Note_on_c, 0, 84, 0
2, 40640, Note_on_c, 0, 89, 43
2, 40720, Note_on_c, 0, 89, 0
2, 40720, Note_on_c, 0, 85, 45
2, 40720, Note_on_c, 0, 97, 45
2, 40800, Note_on_c, 0, 97, 0
2, 40800, Note_on_c, 0, 85, 0
2, 40800, Note_on_c, 0, 89, 47
2, 40880, Note_on_c, 0, 89, 0
2, 40880, Note_on_c, 0, 84, 48
2, 40880, Note_on_c, 0, 96, 48
2, 40960, Note_on_c, 0, 96, 0
2, 40960, Note_on_c, 0, 84, 0
2, 40960, Note_on_c, 0, 89, 48
2, 41040, Note_on_c, 0, 89, 0
2, 41040, Note_on_c, 0, 82, 48
2, 41040, Note_on_c, 0, 94, 48
2, 41120, Note_on_c, 0, 94, 0
2, 41120, Note_on_c, 0, 82, 0
2, 41120, Note_on_c, 0, 89, 48
2, 41200, Note_on_c, 0, 89, 0
2, 41200, Note_on_c, 0, 80, 48
2, 41200, Note_on_c, 0, 92, 48
2, 41280, Note_on_c, 0, 92, 0
2, 41280, Note_on_c, 0, 80, 0
2, 41280, Note_on_c, 0, 85, 46
2, 41360, Note_on_c, 0, 85, 0
2, 41360, Note_on_c, 0, 78, 45
2, 41360, Note_on_c, 0, 90, 45
2, 41440, Note_on_c, 0, 90, 0
2, 41440, Note_on_c, 0, 78, 0
2, 41440, Note_on_c, 0, 85, 45
2, 41520, Note_on_c, 0, 85, 0
2, 41520, Note_on_c, 0, 77, 43
2, 41520, Note_on_c, 0, 89, 43
2, 41600, Note_on_c, 0, 89, 0
2, 41600, Note_on_c, 0, 77, 0
2, 41600, Note_on_c, 0, 80, 43
2, 41680, Note_on_c, 0, 80, 0
2, 41680, Note_on_c, 0, 75, 42
2, 41680, Note_on_c, 0, 87, 42
2, 41760, Note_on_c, 0, 87, 0
2, 41760, Note_on_c, 0, 75, 0
2, 41760, Note_on_c, 0, 80, 41
2, 41840, Note_on_c, 0, 80, 0
2, 41840, Note_on_c, 0, 75, 42
2, 41840, Note_on_c, 0, 87, 42
2, 41920, Note_on_c, 0, 87, 0
2, 41920, Note_on_c, 0, 75, 0
2, 41920, Note_on_c, 0, 80, 42
2, 42000, Note_on_c, 0, 80, 0
2, 42000, Note_on_c, 0, 73, 42
2, 42000, Note_on_c, 0, 85, 42
2, 42078, Note_on_c, 0, 73, 0
2, 42080, Note_on_c, 0, 85, 0
2, 42080, Note_on_c, 0, 73, 42
2, 42160, Note_on_c, 0, 65, 37
2, 42160, Note_on_c, 0, 77, 42
2, 42240, Note_on_c, 0, 77, 0
2, 42240, Note_on_c, 0, 65, 0
2, 42240, Note_on_c, 0, 64, 35
2, 42240, Note_on_c, 0, 76, 39
2, 42320, Note_on_c, 0, 76, 0
2, 42320, Note_on_c, 0, 64, 0
2, 42320, Note_on_c, 0, 73, 0
2, 42320, Note_on_c, 0, 75, 43
2, 42320, Note_on_c, 0, 87, 43
2, 42400, Note_on_c, 0, 87, 0
2, 42400, Note_on_c, 0, 75, 0
2, 42400, Note_on_c, 0, 80, 40
2, 42400, Note_on_c, 0, 85, 40
2, 42480, Note_on_c, 0, 85, 0
2, 42480, Note_on_c, 0, 80, 0
2, 42480, Note_on_c, 0, 88, 43
2, 42480, Note_on_c, 0, 76, 43
2, 42560, Note_on_c, 0, 76, 0
2, 42560, Note_on_c, 0, 88, 0
2, 42560, Note_on_c, 0, 85, 40
2, 42560, Note_on_c, 0, 80, 40
2, 42640, Note_on_c, 0, 80, 0
2, 42640, Note_on_c, 0, 85, 0
2, 42640, Note_on_c, 0, 87, 43
2, 42640, Note_on_c, 0, 75, 43
2, 42720, Note_on_c, 0, 75, 0
2, 42720, Note_on_c, 0, 87, 0
2, 42720, Note_on_c, 0, 85, 39
2, 42720, Note_on_c, 0, 80, 39
2, 42800, Note_on_c, 0, 80, 0
2, 42800, Note_on_c, 0, 85, 0
2, 42800, Note_on_c, 0, 88, 43
2, 42800, Note_on_c, 0, 76, 43
2, 42880, Note_on_c, 0, 76, 0
2, 42880, Note_on_c, 0, 88, 0
2, 42880, Note_on_c, 0, 85, 39
2, 42880, Note_on_c, 0, 80, 39
2, 42960, Note_on_c, 0, 80, 0
2, 42960, Note_on_c, 0, 85, 0
2, 42960, Note_on_c, 0, 78, 43
2, 42960, Note_on_c, 0, 90, 43
2, 43040, Note_on_c, 0, 90, 0
2, 43040, Note_on_c, 0, 78, 0
2, 43040, Note_on_c, 0, 85, 40
2, 43040, Note_on_c, 0, 80, 40
2, 43120, Note_on_c, 0, 80, 0
2, 43120, Note_on_c, 0, 85, 0
2, 43120, Note_on_c, 0, 88, 43
2, 43120, Note_on_c, 0, 76, 43
2, 43200, Note_on_c, 0, 76, 0
2, 43200, Note_on_c, 0, 88, 0
2, 43200, Note_on_c, 0, 80, 41
2, 43280, Note_on_c, 0, 80, 0
2, 43280, Note_on_c, 0, 87, 43
2, 43280, Note_on_c, 0, 75, 43
2, 43360, Note_on_c, 0, 75, 0
2, 43360, Note_on_c, 0, 87, 0
2, 43360, Note_on_c, 0, 80, 45
2, 43440, Note_on_c, 0, 80, 0
2, 43440, Note_on_c, 0, 88, 47
2, 43440, Note_on_c, 0, 76, 47
2, 43520, Note_on_c, 0, 76, 0
2, 43520, Note_on_c, 0, 88, 0
2, 43520, Note_on_c, 0, 80, 48
2, 43600, Note_on_c, 0, 80, 0
2, 43600, Note_on_c, 0, 87, 50
2, 43600, Note_on_c, 0, 75, 50
2, 43680, Note_on_c, 0, 75, 0
2, 43680, Note_on_c, 0, 87, 0
2, 43680, Note_on_c, 0, 79, 53
2, 43760, Note_on_c, 0, 79, 0
2, 43760, Note_on_c, 0, 85, 50
2, 43760, Note_on_c, 0, 73, 50
2, 43840, Note_on_c, 0, 73, 0
2, 43840, Note_on_c, 0, 85, 0
2, 43840, Note_on_c, 0, 79, 48
2, 43920, Note_on_c, 0, 79, 0
2, 43920, Note_on_c, 0, 83, 46
2, 43920, Note_on_c, 0, 71, 46
2, 44000, Note_on_c, 0, 71, 0
2, 44000, Note_on_c, 0, 83, 0
2, 44000, Note_on_c, 0, 79, 44
2, 44080, Note_on_c, 0, 79, 0
2, 44080, Note_on_c, 0, 82, 43
2, 44080, Note_on_c, 0, 70, 43
2, 44160, Note_on_c, 0, 70, 0
2, 44160, Note_on_c, 0, 82, 0
2, 44160, Note_on_c, 0, 80, 39
2, 44160, Note_on_c, 0, 75, 39
2, 44240, Note_on_c, 0, 75, 0
2, 44240, Note_on_c, 0, 80, 0
2, 44240, Note_on_c, 0, 82, 43
2, 44240, Note_on_c, 0, 70, 43
2, 44320, Note_on_c, 0, 70, 0
2, 44320, Note_on_c, 0, 82, 0
2, 44320, Note_on_c, 0, 80, 39
2, 44320, Note_on_c, 0, 75, 39
2, 44400, Note_on_c, 0, 75, 0
2, 44400, Note_on_c, 0, 80, 0
2, 44400, Note_on_c, 0, 83, 43
2, 44400, Note_on_c, 0, 71, 43
2, 44480, Note_on_c, 0, 71, 0
2, 44480, Note_on_c, 0, 83, 0
2, 44480, Note_on_c, 0, 80, 39
2, 44480, Note_on_c, 0, 75, 39
2, 44560, Note_on_c, 0, 75, 0
2, 44560, Note_on_c, 0, 80, 0
2, 44560, Note_on_c, 0, 82, 43
2, 44560, Note_on_c, 0, 70, 43
2, 44640, Note_on_c, 0, 70, 0
2, 44640, Note_on_c, 0, 82, 0
2, 44640, Note_on_c, 0, 75, 43
2, 44720, Note_on_c, 0, 75, 0
2, 44720, Note_on_c, 0, 67, 43
2, 44720, Note_on_c, 0, 79, 43
2, 44800, Note_on_c, 0, 79, 0
2, 44800, Note_on_c, 0, 67, 0
2, 44800, Note_on_c, 0, 75, 43
2, 44880, Note_on_c, 0, 75, 0
2, 44880, Note_on_c, 0, 80, 43
2, 44880, Note_on_c, 0, 68, 43
2, 44960, Note_on_c, 0, 68, 0
2, 44960, Note_on_c, 0, 80, 0
2, 44960, Note_on_c, 0, 75, 43
2, 45040, Note_on_c, 0, 75, 0
2, 45040, Note_on_c, 0, 82, 43
2, 45040, Note_on_c, 0, 70, 43
2, 45120, Note_on_c, 0, 70, 0
2, 45120, Note_on_c, 0, 82, 0
2, 45120, Note_on_c, 0, 80, 39
2, 45120, Note_on_c, 0, 75, 39
2, 45200, Note_on_c, 0, 75, 0
2, 45200, Note_on_c, 0, 80, 0
2, 45200, Note_on_c, 0, 83, 43
2, 45200, Note_on_c, 0, 71, 43
2, 45280, Note_on_c, 0, 71, 0
2, 45280, Note_on_c, 0, 83, 0
2, 45280, Note_on_c, 0, 80, 38
2, 45280, Note_on_c, 0, 75, 38
2, 45360, Note_on_c, 0, 75, 0
2, 45360, Note_on_c, 0, 80, 0
2, 45360, Note_on_c, 0, 82, 43
2, 45360, Note_on_c, 0, 70, 43
2, 45440, Note_on_c, 0, 70, 0
2, 45440, Note_on_c, 0, 82, 0
2, 45440, Note_on_c, 0, 80, 39
2, 45440, Note_on_c, 0, 75, 39
2, 45520, Note_on_c, 0, 75, 0
2, 45520, Note_on_c, 0, 80, 0
2, 45520, Note_on_c, 0, 83, 45
2, 45520, Note_on_c, 0, 71, 45
2, 45600, Note_on_c, 0, 71, 0
2, 45600, Note_on_c, 0, 83, 0
2, 45600, Note_on_c, 0, 80, 40
2, 45680, Note_on_c, 0, 80, 0
2, 45680, Note_on_c, 0, 82, 47
2, 45680, Note_on_c, 0, 70, 47
2, 45760, Note_on_c, 0, 70, 0
2, 45760, Note_on_c, 0, 82, 0
2, 45760, Note_on_c, 0, 80, 43
2, 45840, Note_on_c, 0, 80, 0
2, 45840, Note_on_c, 0, 83, 49
2, 45840, Note_on_c, 0, 71, 49
2, 45920, Note_on_c, 0, 71, 0
2, 45920, Note_on_c, 0, 83, 0
2, 45920, Note_on_c, 0, 80, 46
2, 46000, Note_on_c, 0, 80, 0
2, 46000, Note_on_c, 0, 85, 50
2, 46000, Note_on_c, 0, 73, 50
2, 46080, Note_on_c, 0, 73, 0
2, 46080, Note_on_c, 0, 85, 0
2, 46080, Note_on_c, 0, 83, 49
2, 46080, Note_on_c, 0, 80, 49
2, 46160, Note_on_c, 0, 80, 0
2, 46160, Note_on_c, 0, 83, 0
2, 46160, Note_on_c, 0, 86, 54
2, 46160, Note_on_c, 0, 74, 54
2, 46240, Note_on_c, 0, 74, 0
2, 46240, Note_on_c, 0, 86, 0
2, 46240, Note_on_c, 0, 83, 52
2, 46240, Note_on_c, 0, 80, 52
2, 46320, Note_on_c, 0, 80, 0
2, 46320, Note_on_c, 0, 83, 0
2, 46320, Note_on_c, 0, 87, 54
2, 46320, Note_on_c, 0, 75, 54
2, 46400, Note_on_c, 0, 75, 0
2, 46400, Note_on_c, 0, 87, 0
2, 46400, Note_on_c, 0, 83, 51
2, 46400, Note_on_c, 0, 80, 51
2, 46480, Note_on_c, 0, 80, 0
2, 46480, Note_on_c, 0, 83, 0
2, 46480, Note_on_c, 0, 88, 54
2, 46480, Note_on_c, 0, 76, 54
2, 46560, Note_on_c, 0, 76, 0
2, 46560, Note_on_c, 0, 88, 0
2, 46560, Note_on_c, 0, 83, 52
2, 46560, Note_on_c, 0, 80, 52
2, 46640, Note_on_c, 0, 80, 0
2, 46640, Note_on_c, 0, 83, 0
2, 46640, Note_on_c, 0, 89, 54
2, 46640, Note_on_c, 0, 77, 54
2, 46720, Note_on_c, 0, 77, 0
2, 46720, Note_on_c, 0, 89, 0
2, 46720, Note_on_c, 0, 83, 52
2, 46720, Note_on_c, 0, 80, 52
2, 46800, Note_on_c, 0, 80, 0
2, 46800, Note_on_c, 0, 83, 0
2, 46800, Note_on_c, 0, 88, 54
2, 46800, Note_on_c, 0, 76, 54
2, 46880, Note_on_c, 0, 76, 0
2, 46880, Note_on_c, 0, 88, 0
2, 46880, Note_on_c, 0, 83, 52
2, 46880, Note_on_c, 0, 80, 52
2, 46960, Note_on_c, 0, 80, 0
2, 46960, Note_on_c, 0, 83, 0
2, 46960, Note_on_c, 0, 89, 54
2, 46960, Note_on_c, 0, 77, 54
2, 47040, Note_on_c, 0, 77, 0
2, 47040, Note_on_c, 0, 89, 0
2, 47040, Note_on_c, 0, 82, 51
2, 47040, Note_on_c, 0, 80, 51
2, 47120, Note_on_c, 0, 80, 0
2, 47120, Note_on_c, 0, 82, 0
2, 47120, Note_on_c, 0, 86, 52
2, 47120, Note_on_c, 0, 74, 52
2, 47200, Note_on_c, 0, 74, 0
2, 47200, Note_on_c, 0, 86, 0
2, 47200, Note_on_c, 0, 82, 49
2, 47200, Note_on_c, 0, 80, 49
2, 47280, Note_on_c, 0, 80, 0
2, 47280, Note_on_c, 0, 82, 0
2, 47280, Note_on_c, 0, 87, 50
2, 47280, Note_on_c, 0, 75, 50
2, 47360, Note_on_c, 0, 75, 0
2, 47360, Note_on_c, 0, 87, 0
2, 47360, Note_on_c, 0, 82, 46
2, 47360, Note_on_c, 0, 80, 46
2, 47440, Note_on_c, 0, 80, 0
2, 47440, Note_on_c, 0, 82, 0
2, 47440, Note_on_c, 0, 88, 48
2, 47440, Note_on_c, 0, 76, 48
2, 47520, Note_on_c, 0, 76, 0
2, 47520, Note_on_c, 0, 88, 0
2, 47520, Note_on_c, 0, 82, 43
2, 47520, Note_on_c, 0, 86, 43
2, 47600, Note_on_c, 0, 86, 0
2, 47600, Note_on_c, 0, 82, 0
2, 47600, Note_on_c, 0, 89, 45
2, 47600, Note_on_c, 0, 77, 45
2, 47680, Note_on_c, 0, 77, 0
2, 47680, Note_on_c, 0, 89, 0
2, 47680, Note_on_c, 0, 82, 41
2, 47680, Note_on_c, 0, 86, 41
2, 47760, Note_on_c, 0, 86, 0
2, 47760, Note_on_c, 0, 82, 0
2, 47760, Note_on_c, 0, 90, 39
2, 47760, Note_on_c, 0, 78, 39
2, 47840, Note_on_c, 0, 78, 0
2, 47840, Note_on_c, 0, 90, 0
2, 47840, Note_on_c, 0, 92, 36
2, 47840, Note_on_c, 0, 80, 36
2, 47920, Note_on_c, 0, 80, 0
2, 47920, Note_on_c, 0, 92, 0
2, 47920, Note_on_c, 0, 94, 35
2, 47920, Note_on_c, 0, 82, 35
2, 48000, Note_on_c, 0, 82, 0
2, 48000, Note_on_c, 0, 94, 0
2, 48000, Note_on_c, 0, 90, 31
2, 48000, Note_on_c, 0, 87, 31
2, 48080, Note_on_c, 0, 87, 0
2, 48080, Note_on_c, 0, 90, 0
2, 48080, Note_on_c, 0, 99, 33
2, 48080, Note_on_c, 0, 87, 33
2, 48160, Note_on_c, 0, 87, 0
2, 48160, Note_on_c, 0, 99, 0
2, 48160, Note_on_c, 0, 94, 31
2, 48160, Note_on_c, 0, 90, 31
2, 48240, Note_on_c, 0, 90, 0
2, 48240, Note_on_c, 0, 94, 0
2, 48240, Note_on_c, 0, 95, 33
2, 48240, Note_on_c, 0, 83, 33
2, 48320, Note_on_c, 0, 83, 0
2, 48320, Note_on_c, 0, 95, 0
2, 48320, Note_on_c, 0, 90, 31
2, 48320, Note_on_c, 0, 87, 31
2, 48400, Note_on_c, 0, 87, 0
2, 48400, Note_on_c, 0, 90, 0
2, 48400, Note_on_c, 0, 94, 33
2, 48400, Note_on_c, 0, 82, 33
2, 48480, Note_on_c, 0, 82, 0
2, 48480, Note_on_c, 0, 94, 0
2, 48480, Note_on_c, 0, 90, 31
2, 48480, Note_on_c, 0, 87, 31
2, 48560, Note_on_c, 0, 87, 0
2, 48560, Note_on_c, 0, 90, 0
2, 48560, Note_on_c, 0, 95, 33
2, 48560, Note_on_c, 0, 83, 33
2, 48640, Note_on_c, 0, 83, 0
2, 48640, Note_on_c, 0, 95, 0
2, 48640, Note_on_c, 0, 90, 31
2, 48640, Note_on_c, 0, 87, 31
2, 48720, Note_on_c, 0, 87, 0
2, 48720, Note_on_c, 0, 90, 0
2, 48720, Note_on_c, 0, 94, 33
2, 48720, Note_on_c, 0, 82, 33
2, 48800, Note_on_c, 0, 82, 0
2, 48800, Note_on_c, 0, 94, 0
2, 48800, Note_on_c, 0, 90, 31
2, 48800, Note_on_c, 0, 87, 31
2, 48880, Note_on_c, 0, 87, 0
2, 48880, Note_on_c, 0, 90, 0
2, 48880, Note_on_c, 0, 92, 33
2, 48880, Note_on_c, 0, 80, 33
2, 48960, Note_on_c, 0, 80, 0
2, 48960, Note_on_c, 0, 92, 0
2, 48960, Note_on_c, 0, 87, 33
2, 49040, Note_on_c, 0, 87, 0
2, 49040, Note_on_c, 0, 90, 33
2, 49040, Note_on_c, 0, 78, 33
2, 49120, Note_on_c, 0, 78, 0
2, 49120, Note_on_c, 0, 90, 0
2, 49120, Note_on_c, 0, 87, 33
2, 49200, Note_on_c, 0, 87, 0
2, 49200, Note_on_c, 0, 92, 33
2, 49200, Note_on_c, 0, 80, 33
2, 49280, Note_on_c, 0, 80, 0
2, 49280, Note_on_c, 0, 92, 0
2, 49280, Note_on_c, 0, 87, 33
2, 49360, Note_on_c, 0, 87, 0
2, 49360, Note_on_c, 0, 90, 33
2, 49360, Note_on_c, 0, 78, 33
2, 49440, Note_on_c, 0, 78, 0
2, 49440, Note_on_c, 0, 90, 0
2, 49440, Note_on_c, 0, 82, 33
2, 49520, Note_on_c, 0, 82, 0
2, 49520, Note_on_c, 0, 77, 33
2, 49520, Note_on_c, 0, 89, 33
2, 49600, Note_on_c, 0, 89, 0
2, 49600, Note_on_c, 0, 77, 0
2, 49600, Note_on_c, 0, 82, 33
2, 49680, Note_on_c, 0, 82, 0
2, 49680, Note_on_c, 0, 75, 33
2, 49680, Note_on_c, 0, 87, 33
2, 49760, Note_on_c, 0, 87, 0
2, 49760, Note_on_c, 0, 75, 0
2, 49760, Note_on_c, 0, 78, 33
2, 49840, Note_on_c, 0, 78, 0
2, 49840, Note_on_c, 0, 70, 33
2, 49840, Note_on_c, 0, 82, 33
2, 49920, Note_on_c, 0, 82, 0
2, 49920, Note_on_c, 0, 70, 0
2, 49920, Control_c, 0, 91, 127
2, 50000, Note_on_c, 0, 77, 35
2, 50000, Note_on_c, 0, 71, 35
2, 50080, Note_on_c, 0, 71, 0
2, 50080, Note_on_c, 0, 77, 0
2, 50080, Note_on_c, 0, 65, 33
2, 50140, Note_on_c, 0, 65, 0
2, 50160, Note_on_c, 0, 78, 36
2, 50160, Note_on_c, 0, 71, 36
2, 50240, Note_on_c, 0, 71, 0
2, 50240, Note_on_c, 0, 78, 0
2, 50240, Note_on_c, 0, 66, 34
2, 50320, Note_on_c, 0, 66, 0
2, 50320, Note_on_c, 0, 70, 35
2, 50320, Note_on_c, 0, 66, 35
2, 50380, Note_on_c, 0, 66, 0
2, 50380, Note_on_c, 0, 70, 0
2, 50400, Note_on_c, 0, 59, 37
2, 50480, Note_on_c, 0, 59, 0
2, 50480, Note_on_c, 0, 71, 30
2, 50480, Note_on_c, 0, 68, 30
2, 50540, Note_on_c, 0, 68, 0
2, 50540, Note_on_c, 0, 71, 0
2, 50560, Note_on_c, 0, 63, 38
2, 50640, Note_on_c, 0, 63, 0
2, 50640, Note_on_c, 0, 75, 32
2, 50640, Note_on_c, 0, 71, 32
2, 50700, Note_on_c, 0, 71, 0
2, 50700, Note_on_c, 0, 75, 0
2, 50720, Note_on_c, 0, 64, 39
2, 50800, Note_on_c, 0, 64, 0
2, 50800, Note_on_c, 0, 76, 32
2, 50800, Note_on_c, 0, 71, 32
2, 50860, Note_on_c, 0, 71, 0
2, 50860, Note_on_c, 0, 76, 0
2, 50880, Note_on_c, 0, 68, 40
2, 50960, Note_on_c, 0, 68, 0
2, 50960, Note_on_c, 0, 80, 35
2, 50960, Note_on_c, 0, 75, 35
2, 51020, Note_on_c, 0, 75, 0
2, 51020, Note_on_c, 0, 80, 0
2, 51040, Note_on_c, 0, 70, 41
2, 51120, Note_on_c, 0, 70, 0
2, 51120, Note_on_c, 0, 82, 36
2, 51120, Note_on_c, 0, 75, 36
2, 51180, Note_on_c, 0, 75, 0
2, 51180, Note_on_c, 0, 82, 0
2, 51200, Note_on_c, 0, 71, 42
2, 51280, Note_on_c, 0, 71, 0
2, 51280, Note_on_c, 0, 83, 36
2, 51280, Note_on_c, 0, 75, 36
2, 51360, Note_on_c, 0, 75, 0
2, 51360, Note_on_c, 0, 83, 0
2, 51360, Note_on_c, 0, 71, 41
2, 51420, Note_on_c, 0, 71, 0
2, 51440, Note_on_c, 0, 82, 44
2, 51440, Note_on_c, 0, 76, 44
2, 51520, Note_on_c, 0, 76, 0
2, 51520, Note_on_c, 0, 82, 0
2, 51520, Note_on_c, 0, 70, 42
2, 51580, Note_on_c, 0, 70, 0
2, 51600, Note_on_c, 0, 83, 45
2, 51600, Note_on_c, 0, 76, 45
2, 51680, Note_on_c, 0, 76, 0
2, 51680, Note_on_c, 0, 83, 0
2, 51680, Note_on_c, 0, 71, 42
2, 51740, Note_on_c, 0, 71, 0
2, 51760, Note_on_c, 0, 85, 45
2, 51760, Note_on_c, 0, 76, 45
2, 51840, Note_on_c, 0, 76, 0
2, 51840, Note_on_c, 0, 85, 0
2, 51840, Note_on_c, 0, 73, 43
2, 51900, Note_on_c, 0, 73, 0
2, 51920, Note_on_c, 0, 75, 45
2, 51920, Note_on_c, 0, 81, 45
2, 52000, Note_on_c, 0, 81, 0
2, 52000, Note_on_c, 0, 75, 0
2, 52000, Note_on_c, 0, 69, 45
2, 52060, Note_on_c, 0, 69, 0
2, 52080, Note_on_c, 0, 75, 45
2, 52080, Note_on_c, 0, 82, 45
2, 52160, Note_on_c, 0, 82, 0
2, 52160, Note_on_c, 0, 75, 0
2, 52160, Note_on_c, 0, 70, 45
2, 52240, Note_on_c, 0, 70, 0
2, 52240, Note_on_c, 0, 74, 42
2, 52240, Note_on_c, 0, 70, 42
2, 52300, Note_on_c, 0, 70, 0
2, 52300, Note_on_c, 0, 74, 0
2, 52320, Note_on_c, 0, 63, 48
2, 52400, Note_on_c, 0, 63, 0
2, 52400, Note_on_c, 0, 75, 40
2, 52400, Note_on_c, 0, 71, 40
2, 52460, Note_on_c, 0, 71, 0
2, 52460, Note_on_c, 0, 75, 0
2, 52480, Note_on_c, 0, 67, 49
2, 52560, Note_on_c, 0, 67, 0
2, 52560, Note_on_c, 0, 75, 40
2, 52560, Note_on_c, 0, 79, 40
2, 52620, Note_on_c, 0, 79, 0
2, 52620, Note_on_c, 0, 75, 0
2, 52640, Note_on_c, 0, 68, 50
2, 52720, Note_on_c, 0, 68, 0
2, 52720, Note_on_c, 0, 75, 41
2, 52720, Note_on_c, 0, 80, 41
2, 52780, Note_on_c, 0, 80, 0
2, 52780, Note_on_c, 0, 75, 0
2, 52880, Note_on_c, 0, 83, 53
2, 52880, Note_on_c, 0, 78, 53
2, 52960, Note_on_c, 0, 78, 0
2, 52960, Note_on_c, 0, 83, 0
2, 52960, Note_on_c, 0, 71, 52
2, 53020, Note_on_c, 0, 71, 0
2, 53040, Note_on_c, 0, 85, 54
2, 53040, Note_on_c, 0, 78, 54
2, 53120, Note_on_c, 0, 78, 0
2, 53120, Note_on_c, 0, 85, 0
2, 53120, Note_on_c, 0, 73, 54
2, 53180, Note_on_c, 0, 73, 0
2, 53200, Note_on_c, 0, 87, 56
2, 53200, Note_on_c, 0, 78, 56
2, 53280, Note_on_c, 0, 78, 0
2, 53280, Note_on_c, 0, 87, 0
2, 53280, Note_on_c, 0, 75, 54
2, 53340, Note_on_c, 0, 75, 0
2, 53360, Note_on_c, 0, 87, 56
2, 53360, Note_on_c, 0, 82, 56
2, 53440, Note_on_c, 0, 82, 0
2, 53440, Note_on_c, 0, 87, 0
2, 53440, Note_on_c, 0, 75, 54
2, 53500, Note_on_c, 0, 75, 0
2, 53520, Note_on_c, 0, 89, 58
2, 53520, Note_on_c, 0, 82, 58
2, 53600, Note_on_c, 0, 82, 0
2, 53600, Note_on_c, 0, 89, 0
2, 53600, Note_on_c, 0, 77, 56
2, 53660, Note_on_c, 0, 77, 0
2, 53680, Note_on_c, 0, 90, 60
2, 53680, Note_on_c, 0, 82, 60
2, 53760, Note_on_c, 0, 82, 0
2, 53760, Note_on_c, 0, 90, 0
2, 53760, Note_on_c, 0, 78, 63
2, 53820, Note_on_c, 0, 78, 0
2, 53840, Note_on_c, 0, 89, 63
2, 53840, Note_on_c, 0, 87, 63
2, 53840, Note_on_c, 0, 81, 63
2, 53920, Note_on_c, 0, 81, 0
2, 53920, Note_on_c, 0, 87, 0
2, 53920, Note_on_c, 0, 89, 0
2, 53920, Note_on_c, 0, 77, 63
2, 53980, Note_on_c, 0, 77, 0
2, 54000, Note_on_c, 0, 90, 63
2, 54000, Note_on_c, 0, 87, 63
2, 54000, Note_on_c, 0, 81, 63
2, 54080, Note_on_c, 0, 81, 0
2, 54080, Note_on_c, 0, 87, 0
2, 54080, Note_on_c, 0, 90, 0
2, 54080, Note_on_c, 0, 78, 63
2, 54140, Note_on_c, 0, 78, 0
2, 54160, Note_on_c, 0, 82, 56
2, 54160, Note_on_c, 0, 78, 56
2, 54160, Note_on_c, 0, 75, 56
2, 54240, Note_on_c, 0, 75, 0
2, 54240, Note_on_c, 0, 78, 0
2, 54240, Note_on_c, 0, 82, 0
2, 54240, Note_on_c, 0, 70, 57
2, 54300, Note_on_c, 0, 70, 0
2, 54320, Note_on_c, 0, 83, 58
2, 54320, Note_on_c, 0, 78, 58
2, 54320, Note_on_c, 0, 75, 58
2, 54400, Note_on_c, 0, 75, 0
2, 54400, Note_on_c, 0, 78, 0
2, 54400, Note_on_c, 0, 83, 0
2, 54400, Note_on_c, 0, 71, 60
2, 54460, Note_on_c, 0, 71, 0
2, 54480, Note_on_c, 0, 86, 61
2, 54480, Note_on_c, 0, 83, 61
2, 54480, Note_on_c, 0, 78, 61
2, 54560, Note_on_c, 0, 78, 0
2, 54560, Note_on_c, 0, 83, 0
2, 54560, Note_on_c, 0, 86, 0
2, 54560, Note_on_c, 0, 74, 62
2, 54620, Note_on_c, 0, 74, 0
2, 54640, Note_on_c, 0, 87, 63
2, 54640, Note_on_c, 0, 83, 63
2, 54640, Note_on_c, 0, 78, 63
2, 54720, Note_on_c, 0, 78, 0
2, 54720, Note_on_c, 0, 83, 0
2, 54720, Note_on_c, 0, 87, 0
2, 54720, Note_on_c, 0, 75, 63
2, 54780, Note_on_c, 0, 75, 0
2, 54800, Note_on_c, 0, 89, 64
2, 54800, Note_on_c, 0, 87, 64
2, 54800, Note_on_c, 0, 82, 64
2, 54880, Note_on_c, 0, 82, 0
2, 54880, Note_on_c, 0, 87, 0
2, 54880, Note_on_c, 0, 89, 0
2, 54880, Note_on_c, 0, 77, 65
2, 54940, Note_on_c, 0, 77, 0
2, 54960, Note_on_c, 0, 90, 66
2, 54960, Note_on_c, 0, 87, 66
2, 54960, Note_on_c, 0, 82, 66
2, 55040, Note_on_c, 0, 82, 0
2, 55040, Note_on_c, 0, 87, 0
2, 55040, Note_on_c, 0, 90, 0
2, 55040, Note_on_c, 0, 78, 68
2, 55100, Note_on_c, 0, 78, 0
2, 55120, Note_on_c, 0, 81, 61
2, 55120, Note_on_c, 0, 78, 61
2, 55120, Note_on_c, 0, 75, 61
2, 55200, Note_on_c, 0, 75, 0
2, 55200, Note_on_c, 0, 78, 0
2, 55200, Note_on_c, 0, 81, 0
2, 55200, Note_on_c, 0, 69, 61
2, 55260, Note_on_c, 0, 69, 0
2, 55280, Note_on_c, 0, 82, 62
2, 55280, Note_on_c, 0, 78, 62
2, 55280, Note_on_c, 0, 75, 62
2, 55360, Note_on_c, 0, 75, 0
2, 55360, Note_on_c, 0, 78, 0
2, 55360, Note_on_c, 0, 82, 0
2, 55360, Note_on_c, 0, 70, 63
2, 55420, Note_on_c, 0, 70, 0
2, 55440, Note_on_c, 0, 86, 63
2, 55440, Note_on_c, 0, 82, 63
2, 55440, Note_on_c, 0, 78, 63
2, 55520, Note_on_c, 0, 78, 0
2, 55520, Note_on_c, 0, 82, 0
2, 55520, Note_on_c, 0, 86, 0
2, 55520, Note_on_c, 0, 74, 64
2, 55580, Note_on_c, 0, 74, 0
2, 55600, Note_on_c, 0, 87, 65
2, 55600, Note_on_c, 0, 82, 65
2, 55600, Note_on_c, 0, 78, 65
2, 55680, Note_on_c, 0, 78, 0
2, 55680, Note_on_c, 0, 82, 0
2, 55680, Note_on_c, 0, 87, 0
2, 55680, Note_on_c, 0, 75, 66
2, 55740, Note_on_c, 0, 75, 0
2, 55760, Note_on_c, 0, 88, 67
2, 55760, Note_on_c, 0, 82, 67
2, 55840, Note_on_c, 0, 82, 0
2, 55840, Note_on_c, 0, 88, 0
2, 55840, Note_on_c, 0, 76, 68
2, 55900, Note_on_c, 0, 76, 0
2, 55920, Note_on_c, 0, 89, 69
2, 55920, Note_on_c, 0, 82, 69
2, 56000, Note_on_c, 0, 82, 0
2, 56000, Note_on_c, 0, 89, 0
2, 56000, Note_on_c, 0, 77, 71
2, 56060, Note_on_c, 0, 77, 0
2, 56080, Note_on_c, 0, 90, 72
2, 56080, Note_on_c, 0, 88, 72
2, 56080, Note_on_c, 0, 82, 72
2, 56160, Note_on_c, 0, 82, 0
2, 56160, Note_on_c, 0, 88, 0
2, 56160, Note_on_c, 0, 90, 0
2, 56160, Note_on_c, 0, 78, 73
2, 56220, Note_on_c, 0, 78, 0
2, 56240, Note_on_c, 0, 88, 75
2, 56240, Note_on_c, 0, 82, 75
2, 56320, Note_on_c, 0, 82, 0
2, 56320, Note_on_c, 0, 88, 0
2, 56320, Note_on_c, 0, 76, 69
2, 56380, Note_on_c, 0, 76, 0
2, 56400, Note_on_c, 0, 89, 71
2, 56400, Note_on_c, 0, 82, 71
2, 56480, Note_on_c, 0, 82, 0
2, 56480, Note_on_c, 0, 89, 0
2, 56480, Note_on_c, 0, 77, 72
2, 56540, Note_on_c, 0, 77, 0
2, 56560, Note_on_c, 0, 90, 72
2, 56560, Note_on_c, 0, 82, 72
2, 56560, Note_on_c, 0, 88, 72
2, 56640, Note_on_c, 0, 88, 0
2, 56640, Note_on_c, 0, 82, 0
2, 56640, Note_on_c, 0, 90, 0
2, 56640, Note_on_c, 0, 78, 74
2, 56700, Note_on_c, 0, 78, 0
2, 56720, Note_on_c, 0, 88, 76
2, 56720, Note_on_c, 0, 82, 76
2, 56800, Note_on_c, 0, 82, 0
2, 56800, Note_on_c, 0, 88, 0
2, 56800, Note_on_c, 0, 76, 72
2, 56860, Note_on_c, 0, 76, 0
2, 56880, Note_on_c, 0, 89, 72
2, 56880, Note_on_c, 0, 82, 72
2, 56960, Note_on_c, 0, 82, 0
2, 56960, Note_on_c, 0, 89, 0
2, 56960, Note_on_c, 0, 77, 74
2, 57020, Note_on_c, 0, 77, 0
2, 57040, Note_on_c, 0, 90, 76
2, 57040, Note_on_c, 0, 82, 76
2, 57040, Note_on_c, 0, 88, 76
2, 57120, Note_on_c, 0, 88, 0
2, 57120, Note_on_c, 0, 82, 0
2, 57120, Note_on_c, 0, 90, 0
2, 57120, Note_on_c, 0, 78, 77
2, 57180, Note_on_c, 0, 78, 0
2, 57200, Note_on_c, 0, 89, 79
2, 57200, Note_on_c, 0, 82, 79
2, 57280, Note_on_c, 0, 82, 0
2, 57280, Note_on_c, 0, 89, 0
2, 57280, Note_on_c, 0, 77, 74
2, 57340, Note_on_c, 0, 77, 0
2, 57360, Note_on_c, 0, 90, 77
2, 57360, Note_on_c, 0, 82, 77
2, 57440, Note_on_c, 0, 82, 0
2, 57440, Note_on_c, 0, 90, 0
2, 57440, Note_on_c, 0, 78, 81
2, 57500, Note_on_c, 0, 78, 0
2, 57520, Note_on_c, 0, 91, 91
2, 57520, Note_on_c, 0, 88, 91
2, 57520, Note_on_c, 0, 82, 81
2, 57520, Note_on_c, 0, 79, 81
2, 57600, Note_on_c, 0, 79, 0
2, 57600, Note_on_c, 0, 91, 0
2, 57600, Note_on_c, 0, 88, 0
2, 57600, Note_on_c, 0, 82, 0
2, 57600, Control_c, 0, 91, 127
2, 57600, Note_on_c, 0, 88, 91
2, 57600, Note_on_c, 0, 82, 91
2, 57600, Note_on_c, 0, 79, 81
2, 57600, Note_on_c, 0, 76, 81
2, 58000, Note_on_c, 0, 76, 0
2, 58000, Note_on_c, 0, 88, 0
2, 58000, Note_on_c, 0, 82, 0
2, 58000, Note_on_c, 0, 79, 0
2, 58000, Note_on_c, 0, 74, 80
2, 58000, Note_on_c, 0, 79, 80
2, 58000, Note_on_c, 0, 82, 89
2, 58000, Note_on_c, 0, 86, 89
2, 58076, Note_on_c, 0, 86, 0
2, 58076, Note_on_c, 0, 74, 0
2, 58076, Note_on_c, 0, 79, 0
2, 58076, Note_on_c, 0, 82, 0
2, 58080, Note_on_c, 0, 84, 89
2, 58080, Note_on_c, 0, 82, 89
2, 58080, Note_on_c, 0, 79, 80
2, 58080, Note_on_c, 0, 72, 80
2, 58480, Note_on_c, 0, 72, 0
2, 58480, Note_on_c, 0, 84, 0
2, 58480, Note_on_c, 0, 82, 0
2, 58480, Note_on_c, 0, 79, 0
2, 58480, Note_on_c, 0, 69, 76
2, 58480, Note_on_c, 0, 72, 76
2, 58480, Note_on_c, 0, 76, 76
2, 58480, Note_on_c, 0, 81, 76
2, 58560, Note_on_c, 0, 81, 0
2, 58560, Note_on_c, 0, 69, 0
2, 58560, Note_on_c, 0, 72, 0
2, 58560, Note_on_c, 0, 76, 0
2, 58560, Note_on_c, 0, 67, 68
2, 58560, Note_on_c, 0, 72, 68
2, 58560, Note_on_c, 0, 76, 76
2, 58560, Note_on_c, 0, 79, 76
2, 58719, Note_on_c, 0, 79, 0
2, 58719, Note_on_c, 0, 67, 0
2, 58719, Note_on_c, 0, 72, 0
2, 58719, Note_on_c, 0, 76, 0
2, 58720, Note_on_c, 0, 64, 68
2, 58720, Note_on_c, 0, 70, 76
2, 58720, Note_on_c, 0, 76, 76
2, 58799, Note_on_c, 0, 76, 0
2, 58799, Note_on_c, 0, 70, 0
2, 58799, Note_on_c, 0, 64, 0
2, 58800, Note_on_c, 0, 62, 68
2, 58800, Note_on_c, 0, 70, 76
2, 58800, Note_on_c, 0, 74, 76
2, 58959, Note_on_c, 0, 74, 0
2, 58959, Note_on_c, 0, 70, 0
2, 58959, Note_on_c, 0, 62, 0
2, 58960, Note_on_c, 0, 60, 68
2, 58960, Note_on_c, 0, 70, 76
2, 58960, Note_on_c, 0, 72, 76
2, 59039, Note_on_c, 0, 72, 0
2, 59039, Note_on_c, 0, 70, 0
2, 59039, Note_on_c, 0, 60, 0
2, 59040, Note_on_c, 0, 60, 69
2, 59040, Note_on_c, 0, 69, 69
2, 59120, Note_on_c, 0, 69, 0
2, 59120, Note_on_c, 0, 60, 0
2, 59120, Note_on_c, 0, 67, 69
2, 59200, Note_on_c, 0, 67, 0
2, 59200, Note_on_c, 0, 64, 69
2, 59280, Note_on_c, 0, 64, 0
2, 59280, Note_on_c, 0, 62, 69
2, 59360, Note_on_c, 0, 62, 0
2, 59360, Note_on_c, 0, 60, 69
2, 59440, Note_on_c, 0, 60, 0
2, 59440, Note_on_c, 0, 70, 72
2, 59440, Note_on_c, 0, 79, 81
2, 59440, Note_on_c, 0, 76, 81
2, 59440, Note_on_c, 0, 67, 72
2, 59519, Note_on_c, 0, 67, 0
2, 59519, Note_on_c, 0, 70, 0
2, 59519, Note_on_c, 0, 79, 0
2, 59519, Note_on_c, 0, 76, 0
2, 59520, Note_on_c, 0, 64, 72
2, 59520, Note_on_c, 0, 67, 72
2, 59520, Note_on_c, 0, 70, 81
2, 59520, Note_on_c, 0, 76, 81
2, 59920, Note_on_c, 0, 76, 0
2, 59920, Note_on_c, 0, 64, 0
2, 59920, Note_on_c, 0, 67, 0
2, 59920, Note_on_c, 0, 70, 0
2, 59920, Note_on_c, 0, 62, 72
2, 59920, Note_on_c, 0, 67, 72
2, 59920, Note_on_c, 0, 70, 81
2, 59920, Note_on_c, 0, 74, 81
2, 59999, Note_on_c, 0, 74, 0
2, 59999, Note_on_c, 0, 62, 0
2, 59999, Note_on_c, 0, 67, 0
2, 59999, Note_on_c, 0, 70, 0
2, 60000, Note_on_c, 0, 60, 72
2, 60000, Note_on_c, 0, 67, 81
2, 60000, Note_on_c, 0, 72, 81
2, 60400, Note_on_c, 0, 72, 0
2, 60400, Note_on_c, 0, 67, 0
2, 60400, Note_on_c, 0, 60, 0
2, 60400, Note_on_c, 0, 57, 70
2, 60400, Note_on_c, 0, 60, 70
2, 60400, Note_on_c, 0, 69, 78
2, 60479, Note_on_c, 0, 69, 0
2, 60479, Note_on_c, 0, 60, 0
2, 60479, Note_on_c, 0, 57, 0
2, 60480, Note_on_c, 0, 55, 70
2, 60480, Note_on_c, 0, 60, 70
2, 60480, Note_on_c, 0, 67, 78
2, 60640, Note_on_c, 0, 67, 0
2, 60640, Note_on_c, 0, 60, 0
2, 60640, Note_on_c, 0, 55, 0
2, 60640, Note_on_c, 0, 52, 70
2, 60640, Note_on_c, 0, 58, 78
2, 60640, Note_on_c, 0, 64, 78
2, 60719, Note_on_c, 0, 64, 0
2, 60719, Note_on_c, 0, 58, 0
2, 60719, Note_on_c, 0, 52, 0
2, 60720, Note_on_c, 0, 50, 70
2, 60720, Note_on_c, 0, 58, 78
2, 60720, Note_on_c, 0, 62, 78
2, 60879, Note_on_c, 0, 62, 0
2, 60879, Note_on_c, 0, 58, 0
2, 60879, Note_on_c, 0, 50, 0
2, 60880, Note_on_c, 0, 48, 69
2, 60880, Note_on_c, 0, 58, 77
2, 60880, Note_on_c, 0, 60, 77
2, 60959, Note_on_c, 0, 60, 0
2, 60959, Note_on_c, 0, 58, 0
2, 60959, Note_on_c, 0, 48, 0
2, 60960, Note_on_c, 0, 48, 75
2, 60960, Note_on_c, 0, 57, 75
2, 61040, Note_on_c, 0, 57, 0
2, 61040, Note_on_c, 0, 48, 0
2, 61040, Note_on_c, 0, 55, 72
2, 61120, Note_on_c, 0, 55, 0
2, 61120, Note_on_c, 0, 52, 71
2, 61200, Note_on_c, 0, 52, 0
2, 61200, Note_on_c, 0, 50, 68
2, 61280, Note_on_c, 0, 50, 0
2, 61280, Note_on_c, 0, 48, 64
2, 61360, Note_on_c, 0, 48, 0
2, 61360, Note_on_c, 0, 55, 63
2, 61400, Note_on_c, 0, 55, 0
2, 61400, Note_on_c, 0, 50, 62
2, 61440, Note_on_c, 0, 50, 0
2, 61440, Note_on_c, 0, 51, 56
2, 61500, Note_on_c, 0, 51, 0
2, 61500, Note_on_c, 0, 48, 56
2, 61560, Note_on_c, 0, 48, 0
2, 61560, Note_on_c, 0, 50, 56
2, 61620, Note_on_c, 0, 50, 0
2, 61620, Note_on_c, 0, 43, 56
2, 61680, Note_on_c, 0, 43, 0
2, 61680, Note_on_c, 0, 45, 56
2, 61740, Note_on_c, 0, 45, 0
2, 61740, Note_on_c, 0, 41, 56
2, 61800, Note_on_c, 0, 41, 0
2, 61800, Note_on_c, 0, 67, 64
2, 61800, Note_on_c, 0, 63, 64
2, 61800, Note_on_c, 0, 55, 57
2, 61908, Note_on_c, 0, 55, 0
2, 61908, Note_on_c, 0, 63, 0
2, 61908, Note_on_c, 0, 67, 0
2, 61920, Note_on_c, 0, 67, 64
2, 61920, Note_on_c, 0, 63, 64
2, 61920, Note_on_c, 0, 55, 57
2, 62280, Note_on_c, 0, 55, 0
2, 62280, Note_on_c, 0, 63, 0
2, 62280, Note_on_c, 0, 67, 0
2, 62280, Note_on_c, 0, 60, 56
2, 62340, Note_on_c, 0, 60, 0
2, 62340, Note_on_c, 0, 55, 56
2, 62400, Note_on_c, 0, 55, 0
2, 62400, Note_on_c, 0, 57, 56
2, 62460, Note_on_c, 0, 57, 0
2, 62460, Note_on_c, 0, 53, 56
2, 62520, Note_on_c, 0, 53, 0
2, 62520, Note_on_c, 0, 55, 56
2, 62580, Note_on_c, 0, 55, 0
2, 62580, Note_on_c, 0, 50, 56
2, 62640, Note_on_c, 0, 50, 0
2, 62640, Note_on_c, 0, 51, 56
2, 62700, Note_on_c, 0, 51, 0
2, 62700, Note_on_c, 0, 48, 56
2, 62760, Note_on_c, 0, 48, 0
2, 62760, Note_on_c, 0, 60, 56
2, 62760, Note_on_c, 0, 63, 56
2, 62760, Note_on_c, 0, 72, 63
2, 62868, Note_on_c, 0, 72, 0
2, 62868, Note_on_c, 0, 63, 0
2, 62868, Note_on_c, 0, 60, 0
2, 62880, Note_on_c, 0, 60, 56
2, 62880, Note_on_c, 0, 63, 56
2, 62880, Note_on_c, 0, 72, 63
2, 63240, Note_on_c, 0, 72, 0
2, 63240, Note_on_c, 0, 63, 0
2, 63240, Note_on_c, 0, 60, 0
2, 63240, Note_on_c, 0, 67, 56
2, 63300, Note_on_c, 0, 67, 0
2, 63300, Note_on_c, 0, 62, 56
2, 63360, Note_on_c, 0, 62, 0
2, 63360, Note_on_c, 0, 63, 56
2, 63420, Note_on_c, 0, 63, 0
2, 63420, Note_on_c, 0, 60, 56
2, 63480, Note_on_c, 0, 60, 0
2, 63480, Note_on_c, 0, 62, 56
2, 63540, Note_on_c, 0, 62, 0
2, 63540, Note_on_c, 0, 55, 56
2, 63600, Note_on_c, 0, 55, 0
2, 63600, Note_on_c, 0, 57, 56
2, 63660, Note_on_c, 0, 57, 0
2, 63660, Note_on_c, 0, 53, 56
2, 63720, Note_on_c, 0, 53, 0
2, 63720, Note_on_c, 0, 67, 64
2, 63720, Note_on_c, 0, 75, 72
2, 63720, Note_on_c, 0, 79, 72
2, 63828, Note_on_c, 0, 79, 0
2, 63828, Note_on_c, 0, 75, 0
2, 63828, Note_on_c, 0, 67, 0
2, 63840, Note_on_c, 0, 67, 64
2, 63840, Note_on_c, 0, 75, 72
2, 63840, Note_on_c, 0, 79, 72
2, 64200, Note_on_c, 0, 79, 0
2, 64200, Note_on_c, 0, 75, 0
2, 64200, Note_on_c, 0, 67, 0
2, 64200, Note_on_c, 0, 72, 61
2, 64260, Note_on_c, 0, 72, 0
2, 64260, Note_on_c, 0, 67, 61
2, 64320, Note_on_c, 0, 67, 0
2, 64320, Note_on_c, 0, 69, 61
2, 64380, Note_on_c, 0, 69, 0
2, 64380, Note_on_c, 0, 65, 61
2, 64440, Note_on_c, 0, 65, 0
2, 64440, Note_on_c, 0, 67, 61
2, 64500, Note_on_c, 0, 67, 0
2, 64500, Note_on_c, 0, 62, 61
2, 64560, Note_on_c, 0, 62, 0
2, 64560, Note_on_c, 0, 63, 61
2, 64620, Note_on_c, 0, 63, 0
2, 64620, Note_on_c, 0, 60, 61
2, 64680, Note_on_c, 0, 60, 0
2, 64680, Note_on_c, 0, 84, 81
2, 64680, Note_on_c, 0, 75, 72
2, 64680, Note_on_c, 0, 72, 72
2, 64788, Note_on_c, 0, 72, 0
2, 64788, Note_on_c, 0, 75, 0
2, 64788, Note_on_c, 0, 84, 0
2, 64800, Note_on_c, 0, 72, 72
2, 64800, Note_on_c, 0, 75, 72
2, 64800, Note_on_c, 0, 84, 81
2, 65160, Note_on_c, 0, 84, 0
2, 65160, Note_on_c, 0, 75, 0
2, 65160, Note_on_c, 0, 72, 0
2, 65160, Note_on_c, 0, 72, 70
2, 65220, Note_on_c, 0, 72, 0
2, 65220, Note_on_c, 0, 67, 70
2, 65280, Note_on_c, 0, 67, 0
2, 65280, Note_on_c, 0, 69, 69
2, 65340, Note_on_c, 0, 69, 0
2, 65340, Note_on_c, 0, 65, 68
2, 65400, Note_on_c, 0, 65, 0
2, 65400, Note_on_c, 0, 67, 68
2, 65460, Note_on_c, 0, 67, 0
2, 65460, Note_on_c, 0, 62, 67
2, 65520, Note_on_c, 0, 62, 0
2, 65520, Note_on_c, 0, 63, 66
2, 65580, Note_on_c, 0, 63, 0
2, 65580, Note_on_c, 0, 60, 67
2, 65640, Note_on_c, 0, 60, 0
2, 65640, Note_on_c, 0, 79, 72
2, 65700, Note_on_c, 0, 79, 0
2, 65700, Note_on_c, 0, 74, 72
2, 65760, Note_on_c, 0, 74, 0
2, 65760, Note_on_c, 0, 75, 72
2, 65820, Note_on_c, 0, 75, 0
2, 65820, Note_on_c, 0, 72, 72
2, 65880, Note_on_c, 0, 72, 0
2, 65880, Note_on_c, 0, 74, 72
2, 65940, Note_on_c, 0, 74, 0
2, 65940, Note_on_c, 0, 67, 71
2, 66000, Note_on_c, 0, 67, 0
2, 66000, Note_on_c, 0, 69, 71
2, 66060, Note_on_c, 0, 69, 0
2, 66060, Note_on_c, 0, 65, 70
2, 66120, Note_on_c, 0, 65, 0
2, 66120, Note_on_c, 0, 84, 74
2, 66180, Note_on_c, 0, 84, 0
2, 66180, Note_on_c, 0, 79, 68
2, 66240, Note_on_c, 0, 79, 0
2, 66240, Note_on_c, 0, 81, 71
2, 66300, Note_on_c, 0, 81, 0
2, 66300, Note_on_c, 0, 77, 68
2, 66360, Note_on_c, 0, 77, 0
2, 66360, Note_on_c, 0, 84, 72
2, 66420, Note_on_c, 0, 84, 0
2, 66420, Note_on_c, 0, 79, 67
2, 66480, Note_on_c, 0, 79, 0
2, 66480, Note_on_c, 0, 81, 70
2, 66540, Note_on_c, 0, 81, 0
2, 66540, Note_on_c, 0, 77, 65
2, 66600, Note_on_c, 0, 77, 0
2, 66600, Note_on_c, 0, 84, 72
2, 66660, Note_on_c, 0, 84, 0
2, 66660, Note_on_c, 0, 79, 69
2, 66720, Note_on_c, 0, 79, 0
2, 66720, Note_on_c, 0, 81, 71
2, 66780, Note_on_c, 0, 81, 0
2, 66780, Note_on_c, 0, 77, 67
2, 66840, Note_on_c, 0, 77, 0
2, 66840, Note_on_c, 0, 84, 74
2, 66900, Note_on_c, 0, 84, 0
2, 66900, Note_on_c, 0, 79, 70
2, 66960, Note_on_c, 0, 79, 0
2, 66960, Note_on_c, 0, 81, 72
2, 67020, Note_on_c, 0, 81, 0
2, 67020, Note_on_c, 0, 77, 69
2, 67080, Note_on_c, 0, 77, 0
2, 67200, Note_on_c, 0, 87, 76
2, 67200, Note_on_c, 0, 75, 76
2, 67230, Note_on_c, 0, 75, 0
2, 67230, Note_on_c, 0, 87, 0
2, 67230, Note_on_c, 0, 86, 75
2, 67230, Note_on_c, 0, 74, 75
2, 67260, Note_on_c, 0, 74, 0
2, 67260, Note_on_c, 0, 86, 0
2, 67260, Note_on_c, 0, 84, 75
2, 67260, Note_on_c, 0, 72, 75
2, 67290, Note_on_c, 0, 72, 0
2, 67290, Note_on_c, 0, 84, 0
2, 67290, Note_on_c, 0, 82, 76
2, 67290, Note_on_c, 0, 70, 76
2, 67320, Note_on_c, 0, 70, 0
2, 67320, Note_on_c, 0, 82, 0
2, 67320, Note_on_c, 0, 81, 76
2, 67320, Note_on_c, 0, 69, 76
2, 67350, Note_on_c, 0, 69, 0
2, 67350, Note_on_c, 0, 81, 0
2, 67350, Note_on_c, 0, 79, 76
2, 67350, Note_on_c, 0, 67, 76
2, 67380, Note_on_c, 0, 67, 0
2, 67380, Note_on_c, 0, 79, 0
2, 67380, Note_on_c, 0, 77, 77
2, 67380, Note_on_c, 0, 65, 77
2, 67410, Note_on_c, 0, 77, 0
2, 67410, Note_on_c, 0, 75, 77
2, 67440, Note_on_c, 0, 75, 0
2, 67440, Note_on_c, 0, 74, 78
2, 67470, Note_on_c, 0, 74, 0
2, 67470, Note_on_c, 0, 65, 0
2, 67470, Note_on_c, 0, 72, 79
2, 67470, Note_on_c, 0, 63, 79
2, 67500, Note_on_c, 0, 72, 0
2, 67500, Note_on_c, 0, 70, 79
2, 67530, Note_on_c, 0, 70, 0
2, 67530, Note_on_c, 0, 69, 80
2, 67560, Note_on_c, 0, 69, 0
2, 67560, Note_on_c, 0, 63, 0
2, 67560, Note_on_c, 0, 67, 81
2, 67560, Note_on_c, 0, 53, 81
2, 67590, Note_on_c, 0, 67, 0
2, 67590, Note_on_c, 0, 65, 81
2, 67620, Note_on_c, 0, 65, 0
2, 67620, Note_on_c, 0, 63, 81
2, 67650, Note_on_c, 0, 63, 0
2, 67650, Note_on_c, 0, 62, 81
2, 67680, Note_on_c, 0, 62, 0
2, 67680, Note_on_c, 0, 53, 0
2, 67680, Note_on_c, 0, 60, 81
2, 67680, Note_on_c, 0, 53, 81
2, 67710, Note_on_c, 0, 60, 0
2, 67710, Note_on_c, 0, 58, 82
2, 67740, Note_on_c, 0, 58, 0
2, 67740, Note_on_c, 0, 57, 82
2, 67770, Note_on_c, 0, 57, 0
2, 67770, Note_on_c, 0, 53, 0
2, 67770, Note_on_c, 0, 55, 83
2, 67770, Note_on_c, 0, 51, 83
2, 67800, Note_on_c, 0, 55, 0
2, 67800, Note_on_c, 0, 53, 84
2, 67830, Note_on_c, 0, 53, 0
2, 67830, Note_on_c, 0, 51, 84
2, 67860, Note_on_c, 0, 51, 0
2, 67860, Note_on_c, 0, 51, 0
2, 67860, Note_on_c, 0, 50, 85
2, 67860, Note_on_c, 0, 41, 85
2, 67890, Note_on_c, 0, 50, 0
2, 67890, Note_on_c, 0, 48, 85
2, 67920, Note_on_c, 0, 48, 0
2, 67920, Note_on_c, 0, 46, 86
2, 67950, Note_on_c, 0, 46, 0
2, 67950, Note_on_c, 0, 41, 0
2, 67950, Note_on_c, 0, 41, 87
2, 67950, Note_on_c, 0, 45, 87
2, 67980, Note_on_c, 0, 45, 0
2, 67980, Note_on_c, 0, 43, 87
2, 68010, Note_on_c, 0, 43, 0
2, 68010, Note_on_c, 0, 41, 88
2, 68040, Note_on_c, 0, 41, 0
2, 68040, Note_on_c, 0, 41, 0
2, 68040, Note_on_c, 0, 39, 89
2, 68040, Note_on_c, 0, 29, 89
2, 68080, Note_on_c, 0, 39, 0
2, 68080, Note_on_c, 0, 38, 89
2, 68120, Note_on_c, 0, 38, 0
2, 68120, Note_on_c, 0, 36, 89
2, 68160, Note_on_c, 0, 36, 0
2, 68160, Note_on_c, 0, 29, 0
2, 68160, Control_c, 0, 91, 127
2, 68520, Note_on_c, 0, 70, 86
2, 68520, Note_on_c, 0, 82, 96
2, 68640, Note_on_c, 0, 82, 0
2, 68640, Note_on_c, 0, 70, 0
2, 68640, Note_on_c, 0, 74, 81
2, 68640, Note_on_c, 0, 77, 91
2, 69480, Note_on_c, 0, 77, 0
2, 69480, Note_on_c, 0, 74, 0
2, 69480, Note_on_c, 0, 70, 75
2, 69480, Note_on_c, 0, 82, 84
2, 69600, Note_on_c, 0, 82, 0
2, 69600, Note_on_c, 0, 70, 0
2, 69600, Note_on_c, 0, 74, 69
2, 69600, Note_on_c, 0, 77, 77
2, 69680, Note_on_c, 0, 77, 0
2, 69680, Note_on_c, 0, 74, 0
2, 69680, Note_on_c, 0, 69, 70
2, 69680, Note_on_c, 0, 81, 78
2, 69760, Note_on_c, 0, 81, 0
2, 69760, Note_on_c, 0, 69, 0
2, 69760, Note_on_c, 0, 70, 71
2, 69760, Note_on_c, 0, 74, 79
2, 69840, Note_on_c, 0, 74, 0
2, 69840, Note_on_c, 0, 70, 0
2, 69840, Note_on_c, 0, 67, 72
2, 69840, Note_on_c, 0, 79, 81
2, 69920, Note_on_c, 0, 79, 0
2, 69920, Note_on_c, 0, 67, 0
2, 69920, Note_on_c, 0, 70, 72
2, 69920, Note_on_c, 0, 74, 81
2, 70000, Note_on_c, 0, 74, 0
2, 70000, Note_on_c, 0, 70, 0
2, 70000, Note_on_c, 0, 65, 72
2, 70000, Note_on_c, 0, 77, 81
2, 70080, Note_on_c, 0, 77, 0
2, 70080, Note_on_c, 0, 65, 0
2, 70080, Note_on_c, 0, 70, 90
2, 70080, Note_on_c, 0, 74, 90
2, 70476, Note_on_c, 0, 74, 0
2, 70476, Note_on_c, 0, 70, 0
2, 70480, Note_on_c, 0, 74, 84
2, 70480, Note_on_c, 0, 70, 84
2, 70552, Note_on_c, 0, 70, 0
2, 70552, Note_on_c, 0, 74, 0
2, 70560, Note_on_c, 0, 70, 89
2, 70560, Note_on_c, 0, 74, 89
2, 70920, Note_on_c, 0, 74, 0
2, 70920, Note_on_c, 0, 70, 0
2, 70920, Note_on_c, 0, 53, 66
2, 70920, Note_on_c, 0, 58, 66
2, 70920, Note_on_c, 0, 62, 74
2, 70920, Note_on_c, 0, 65, 74
2, 71028, Note_on_c, 0, 65, 0
2, 71028, Note_on_c, 0, 53, 0
2, 71028, Note_on_c, 0, 58, 0
2, 71028, Note_on_c, 0, 62, 0
2, 71040, Note_on_c, 0, 53, 66
2, 71040, Note_on_c, 0, 58, 66
2, 71040, Note_on_c, 0, 62, 74
2, 71040, Note_on_c, 0, 65, 74
2, 71120, Note_on_c, 0, 65, 0
2, 71120, Note_on_c, 0, 53, 0
2, 71120, Note_on_c, 0, 58, 0
2, 71120, Note_on_c, 0, 62, 0
2, 71120, Note_on_c, 0, 70, 72
2, 71200, Note_on_c, 0, 70, 0
2, 71200, Note_on_c, 0, 74, 71
2, 71280, Note_on_c, 0, 74, 0
2, 71280, Note_on_c, 0, 65, 76
2, 71280, Note_on_c, 0, 70, 76
2, 71280, Note_on_c, 0, 74, 85
2, 71280, Note_on_c, 0, 77, 85
2, 71758, Note_on_c, 0, 65, 0
2, 71920, Note_on_c, 0, 70, 0
2, 71920, Note_on_c, 0, 74, 0
2, 71920, Note_on_c, 0, 77, 0
2, 71920, Note_on_c, 0, 67, 55
2, 71920, Note_on_c, 0, 70, 55
2, 71920, Note_on_c, 0, 75, 62
2, 71920, Note_on_c, 0, 79, 62
2, 71999, Note_on_c, 0, 79, 0
2, 71999, Note_on_c, 0, 67, 0
2, 71999, Note_on_c, 0, 70, 0
2, 71999, Note_on_c, 0, 75, 0
2, 72000, Note_on_c, 0, 77, 92
2, 72000, Note_on_c, 0, 74, 92
2, 72000, Note_on_c, 0, 70, 82
2, 72000, Note_on_c, 0, 65, 82
2, 72360, Note_on_c, 0, 65, 0
2, 72360, Note_on_c, 0, 77, 0
2, 72360, Note_on_c, 0, 74, 0
2, 72360, Note_on_c, 0, 70, 0
2, 72360, Note_on_c, 0, 70, 86
2, 72360, Note_on_c, 0, 82, 96
2, 72480, Note_on_c, 0, 82, 0
2, 72480, Note_on_c, 0, 70, 0
2, 72480, Note_on_c, 0, 74, 75
2, 72480, Note_on_c, 0, 77, 84
2, 73320, Note_on_c, 0, 77, 0
2, 73320, Note_on_c, 0, 74, 0
2, 73320, Note_on_c, 0, 70, 75
2, 73320, Note_on_c, 0, 82, 84
2, 73440, Note_on_c, 0, 82, 0
2, 73440, Note_on_c, 0, 70, 0
2, 73440, Note_on_c, 0, 74, 75
2, 73440, Note_on_c, 0, 77, 84
2, 73520, Note_on_c, 0, 77, 0
2, 73520, Note_on_c, 0, 74, 0
2, 73520, Note_on_c, 0, 69, 84
2, 73520, Note_on_c, 0, 81, 84
2, 73600, Note_on_c, 0, 81, 0
2, 73600, Note_on_c, 0, 69, 0
2, 73600, Note_on_c, 0, 70, 61
2, 73600, Note_on_c, 0, 74, 61
2, 73680, Note_on_c, 0, 74, 0
2, 73680, Note_on_c, 0, 70, 0
2, 73680, Note_on_c, 0, 67, 61
2, 73680, Note_on_c, 0, 79, 61
2, 73760, Note_on_c, 0, 79, 0
2, 73760, Note_on_c, 0, 67, 0
2, 73760, Note_on_c, 0, 70, 61
2, 73760, Note_on_c, 0, 74, 61
2, 73840, Note_on_c, 0, 74, 0
2, 73840, Note_on_c, 0, 70, 0
2, 73840, Note_on_c, 0, 65, 62
2, 73840, Note_on_c, 0, 77, 62
2, 73920, Note_on_c, 0, 77, 0
2, 73920, Note_on_c, 0, 65, 0
2, 73920, Note_on_c, 0, 70, 90
2, 73920, Note_on_c, 0, 74, 90
2, 74158, Note_on_c, 0, 74, 0
2, 74158, Note_on_c, 0, 70, 0
2, 74160, Note_on_c, 0, 70, 65
2, 74160, Note_on_c, 0, 74, 65
2, 74232, Note_on_c, 0, 74, 0
2, 74232, Note_on_c, 0, 70, 0
2, 74240, Note_on_c, 0, 70, 66
2, 74240, Note_on_c, 0, 74, 66
2, 74312, Note_on_c, 0, 74, 0
2, 74312, Note_on_c, 0, 70, 0
2, 74320, Note_on_c, 0, 70, 67
2, 74320, Note_on_c, 0, 74, 67
2, 74392, Note_on_c, 0, 74, 0
2, 74392, Note_on_c, 0, 70, 0
2, 74400, Note_on_c, 0, 70, 89
2, 74400, Note_on_c, 0, 74, 89
2, 74760, Note_on_c, 0, 74, 0
2, 74760, Note_on_c, 0, 70, 0
2, 74760, Note_on_c, 0, 53, 68
2, 74760, Note_on_c, 0, 58, 68
2, 74760, Note_on_c, 0, 62, 76
2, 74760, Note_on_c, 0, 65, 76
2, 74868, Note_on_c, 0, 65, 0
2, 74868, Note_on_c, 0, 53, 0
2, 74868, Note_on_c, 0, 58, 0
2, 74868, Note_on_c, 0, 62, 0
2, 74880, Note_on_c, 0, 53, 57
2, 74880, Note_on_c, 0, 58, 57
2, 74880, Note_on_c, 0, 62, 64
2, 74880, Note_on_c, 0, 65, 64
2, 74960, Note_on_c, 0, 65, 0
2, 74960, Note_on_c, 0, 53, 0
2, 74960, Note_on_c, 0, 58, 0
2, 74960, Note_on_c, 0, 62, 0
2, 74960, Note_on_c, 0, 70, 65
2, 75040, Note_on_c, 0, 70, 0
2, 75040, Note_on_c, 0, 74, 65
2, 75120, Note_on_c, 0, 74, 0
2, 75120, Note_on_c, 0, 65, 76
2, 75120, Note_on_c, 0, 70, 76
2, 75120, Note_on_c, 0, 74, 85
2, 75120, Note_on_c, 0, 77, 85
2, 75598, Note_on_c, 0, 65, 0
2, 75760, Note_on_c, 0, 70, 0
2, 75760, Note_on_c, 0, 74, 0
2, 75760, Note_on_c, 0, 77, 0
2, 75760, Note_on_c, 0, 67, 69
2, 75760, Note_on_c, 0, 70, 69
2, 75760, Note_on_c, 0, 74, 77
2, 75760, Note_on_c, 0, 79, 77
2, 75836, Note_on_c, 0, 79, 0
2, 75836, Note_on_c, 0, 67, 0
2, 75836, Note_on_c, 0, 70, 0
2, 75836, Note_on_c, 0, 74, 0
2, 75840, Note_on_c, 0, 74, 87
2, 75840, Note_on_c, 0, 65, 78
2, 75840, Note_on_c, 0, 69, 78
2, 75840, Note_on_c, 0, 77, 87
2, 76240, Note_on_c, 0, 77, 0
2, 76240, Note_on_c, 0, 74, 0
2, 76240, Note_on_c, 0, 65, 0
2, 76240, Note_on_c, 0, 69, 0
2, 76240, Note_on_c, 0, 86, 86
2, 76240, Note_on_c, 0, 74, 86
2, 76320, Note_on_c, 0, 74, 0
2, 76320, Note_on_c, 0, 86, 0
2, 76320, Note_on_c, 0, 81, 86
2, 76320, Note_on_c, 0, 77, 86
2, 76400, Note_on_c, 0, 77, 0
2, 76400, Note_on_c, 0, 81, 0
2, 76400, Note_on_c, 0, 84, 57
2, 76400, Note_on_c, 0, 72, 57
2, 76480, Note_on_c, 0, 72, 0
2, 76480, Note_on_c, 0, 84, 0
2, 76480, Note_on_c, 0, 77, 57
2, 76480, Note_on_c, 0, 74, 57
2, 76560, Note_on_c, 0, 74, 0
2, 76560, Note_on_c, 0, 77, 0
2, 76560, Note_on_c, 0, 82, 57
2, 76560, Note_on_c, 0, 70, 57
2, 76640, Note_on_c, 0, 70, 0
2, 76640, Note_on_c, 0, 82, 0
2, 76640, Note_on_c, 0, 74, 57
2, 76640, Note_on_c, 0, 77, 57
2, 76720, Note_on_c, 0, 77, 0
2, 76720, Note_on_c, 0, 74, 0
2, 76720, Note_on_c, 0, 81, 57
2, 76720, Note_on_c, 0, 69, 57
2, 76800, Note_on_c, 0, 69, 0
2, 76800, Note_on_c, 0, 81, 0
2, 76800, Note_on_c, 0, 72, 74
2, 76800, Note_on_c, 0, 77, 74
2, 77200, Note_on_c, 0, 77, 0
2, 77200, Note_on_c, 0, 72, 0
2, 77200, Note_on_c, 0, 69, 76
2, 77200, Note_on_c, 0, 81, 76
2, 77280, Note_on_c, 0, 81, 0
2, 77280, Note_on_c, 0, 69, 0
2, 77280, Note_on_c, 0, 72, 76
2, 77280, Note_on_c, 0, 77, 76
2, 77520, Note_on_c, 0, 77, 0
2, 77520, Note_on_c, 0, 72, 0
2, 77520, Note_on_c, 0, 57, 52
2, 77520, Note_on_c, 0, 65, 58
2, 77520, Note_on_c, 0, 69, 58
2, 77592, Note_on_c, 0, 69, 0
2, 77592, Note_on_c, 0, 65, 0
2, 77592, Note_on_c, 0, 57, 0
2, 77600, Note_on_c, 0, 57, 52
2, 77600, Note_on_c, 0, 65, 58
2, 77600, Note_on_c, 0, 69, 58
2, 77672, Note_on_c, 0, 69, 0
2, 77672, Note_on_c, 0, 65, 0
2, 77672, Note_on_c, 0, 57, 0
2, 77680, Note_on_c, 0, 57, 52
2, 77680, Note_on_c, 0, 65, 58
2, 77680, Note_on_c, 0, 69, 58
2, 77752, Note_on_c, 0, 69, 0
2, 77752, Note_on_c, 0, 65, 0
2, 77752, Note_on_c, 0, 57, 0
2, 77760, Note_on_c, 0, 57, 68
2, 77760, Note_on_c, 0, 65, 76
2, 77760, Note_on_c, 0, 69, 76
2, 78160, Note_on_c, 0, 69, 0
2, 78160, Note_on_c, 0, 65, 0
2, 78160, Note_on_c, 0, 57, 0
2, 78160, Note_on_c, 0, 86, 76
2, 78160, Note_on_c, 0, 74, 76
2, 78240, Note_on_c, 0, 74, 0
2, 78240, Note_on_c, 0, 86, 0
2, 78240, Note_on_c, 0, 81, 61
2, 78240, Note_on_c, 0, 77, 61
2, 78320, Note_on_c, 0, 77, 0
2, 78320, Note_on_c, 0, 81, 0
2, 78320, Note_on_c, 0, 84, 61
2, 78320, Note_on_c, 0, 72, 61
2, 78400, Note_on_c, 0, 72, 0
2, 78400, Note_on_c, 0, 84, 0
2, 78400, Note_on_c, 0, 77, 63
2, 78400, Note_on_c, 0, 74, 63
2, 78480, Note_on_c, 0, 74, 0
2, 78480, Note_on_c, 0, 77, 0
2, 78480, Note_on_c, 0, 82, 63
2, 78480, Note_on_c, 0, 70, 63
2, 78560, Note_on_c, 0, 70, 0
2, 78560, Note_on_c, 0, 82, 0
2, 78560, Note_on_c, 0, 74, 63
2, 78560, Note_on_c, 0, 77, 63
2, 78640, Note_on_c, 0, 77, 0
2, 78640, Note_on_c, 0, 74, 0
2, 78640, Note_on_c, 0, 81, 63
2, 78640, Note_on_c, 0, 69, 63
2, 78720, Note_on_c, 0, 69, 0
2, 78720, Note_on_c, 0, 81, 0
2, 78720, Note_on_c, 0, 72, 74
2, 78720, Note_on_c, 0, 77, 74
2, 79080, Note_on_c, 0, 77, 0
2, 79080, Note_on_c, 0, 72, 0
2, 79080, Note_on_c, 0, 69, 68
2, 79080, Note_on_c, 0, 81, 76
2, 79200, Note_on_c, 0, 81, 0
2, 79200, Note_on_c, 0, 69, 0
2, 79200, Note_on_c, 0, 72, 77
2, 79200, Note_on_c, 0, 77, 77
2, 79560, Note_on_c, 0, 77, 0
2, 79560, Note_on_c, 0, 72, 0
2, 79560, Note_on_c, 0, 89, 94
2, 79560, Note_on_c, 0, 77, 84
2, 79679, Note_on_c, 0, 77, 0
2, 79679, Note_on_c, 0, 89, 0
2, 79680, Note_on_c, 0, 86, 90
2, 79680, Note_on_c, 0, 80, 90
2, 79680, Note_on_c, 0, 74, 81
2, 79680, Note_on_c, 0, 77, 81
2, 80160, Note_on_c, 0, 77, 0
2, 80160, Note_on_c, 0, 80, 0
2, 80160, Note_on_c, 0, 76, 64
2, 80160, Note_on_c, 0, 79, 64
2, 80520, Note_on_c, 0, 79, 0
2, 80520, Note_on_c, 0, 86, 0
2, 80520, Note_on_c, 0, 74, 0
2, 80520, Note_on_c, 0, 76, 0
2, 80520, Note_on_c, 0, 84, 89
2, 80520, Note_on_c, 0, 72, 80
2, 80640, Note_on_c, 0, 72, 0
2, 80640, Note_on_c, 0, 84, 0
2, 80640, Note_on_c, 0, 69, 80
2, 80640, Note_on_c, 0, 75, 89
2, 80640, Note_on_c, 0, 81, 89
2, 81040, Note_on_c, 0, 81, 0
2, 81040, Note_on_c, 0, 75, 0
2, 81040, Note_on_c, 0, 69, 0
2, 81040, Note_on_c, 0, 79, 89
2, 81040, Note_on_c, 0, 67, 80
2, 81120, Note_on_c, 0, 67, 0
2, 81120, Note_on_c, 0, 79, 0
2, 81120, Note_on_c, 0, 63, 80
2, 81120, Note_on_c, 0, 75, 89
2, 81520, Note_on_c, 0, 75, 0
2, 81520, Note_on_c, 0, 63, 0
2, 81520, Note_on_c, 0, 62, 75
2, 81520, Note_on_c, 0, 74, 84
2, 81600, Note_on_c, 0, 74, 0
2, 81600, Note_on_c, 0, 62, 0
2, 81600, Note_on_c, 0, 58, 75
2, 81600, Note_on_c, 0, 70, 84
2, 81680, Note_on_c, 0, 70, 0
2, 81680, Note_on_c, 0, 58, 0
2, 81680, Note_on_c, 0, 57, 75
2, 81680, Note_on_c, 0, 69, 84
2, 81760, Note_on_c, 0, 69, 0
2, 81760, Note_on_c, 0, 57, 0
2, 81760, Note_on_c, 0, 55, 75
2, 81760, Note_on_c, 0, 67, 84
2, 81840, Note_on_c, 0, 67, 0
2, 81840, Note_on_c, 0, 55, 0
2, 81840, Note_on_c, 0, 53, 75
2, 81840, Note_on_c, 0, 65, 84
2, 82480, Note_on_c, 0, 65, 0
2, 82480, Note_on_c, 0, 53, 0
2, 82480, Note_on_c, 0, 53, 72
2, 82480, Note_on_c, 0, 57, 72
2, 82480, Note_on_c, 0, 63, 81
2, 82480, Note_on_c, 0, 65, 81
2, 82559, Note_on_c, 0, 65, 0
2, 82559, Note_on_c, 0, 53, 0
2, 82559, Note_on_c, 0, 57, 0
2, 82559, Note_on_c, 0, 63, 0
2, 82560, Control_c, 0, 91, 127
2, 82560, Note_on_c, 0, 50, 73
2, 82560, Note_on_c, 0, 53, 73
2, 82560, Note_on_c, 0, 58, 82
2, 82560, Note_on_c, 0, 62, 82
2, 82960, Note_on_c, 0, 62, 0
2, 82960, Note_on_c, 0, 50, 0
2, 82960, Note_on_c, 0, 53, 0
2, 82960, Note_on_c, 0, 58, 0
2, 82960, Note_on_c, 0, 70, 81
2, 82960, Note_on_c, 0, 82, 91
2, 83040, Note_on_c, 0, 82, 0
2, 83040, Note_on_c, 0, 70, 0
2, 83040, Note_on_c, 0, 74, 75
2, 83040, Note_on_c, 0, 77, 84
2, 83440, Note_on_c, 0, 77, 0
2, 83440, Note_on_c, 0, 74, 0
2, 83440, Note_on_c, 0, 58, 81
2, 83440, Note_on_c, 0, 70, 90
2, 83520, Note_on_c, 0, 70, 0
2, 83520, Note_on_c, 0, 58, 0
2, 83520, Note_on_c, 0, 53, 72
2, 83520, Note_on_c, 0, 62, 89
2, 83520, Note_on_c, 0, 65, 89
2, 83758, Note_on_c, 0, 53, 0
2, 83920, Note_on_c, 0, 65, 0
2, 83920, Note_on_c, 0, 62, 0
2, 83920, Note_on_c, 0, 70, 84
2, 83920, Note_on_c, 0, 82, 84
2, 84000, Note_on_c, 0, 82, 0
2, 84000, Note_on_c, 0, 70, 0
2, 84000, Note_on_c, 0, 74, 84
2, 84000, Note_on_c, 0, 77, 84
2, 84080, Note_on_c, 0, 77, 0
2, 84080, Note_on_c, 0, 74, 0
2, 84080, Note_on_c, 0, 69, 62
2, 84080, Note_on_c, 0, 81, 62
2, 84160, Note_on_c, 0, 81, 0
2, 84160, Note_on_c, 0, 69, 0
2, 84160, Note_on_c, 0, 70, 62
2, 84160, Note_on_c, 0, 74, 62
2, 84240, Note_on_c, 0, 74, 0
2, 84240, Note_on_c, 0, 70, 0
2, 84240, Note_on_c, 0, 67, 62
2, 84240, Note_on_c, 0, 79, 62
2, 84320, Note_on_c, 0, 79, 0
2, 84320, Note_on_c, 0, 67, 0
2, 84320, Note_on_c, 0, 70, 62
2, 84320, Note_on_c, 0, 74, 62
2, 84400, Note_on_c, 0, 74, 0
2, 84400, Note_on_c, 0, 70, 0
2, 84400, Note_on_c, 0, 65, 62
2, 84400, Note_on_c, 0, 77, 62
2, 84480, Note_on_c, 0, 77, 0
2, 84480, Note_on_c, 0, 65, 0
2, 84480, Note_on_c, 0, 70, 76
2, 84480, Note_on_c, 0, 74, 76
2, 84797, Note_on_c, 0, 74, 0
2, 84797, Note_on_c, 0, 70, 0
2, 84800, Note_on_c, 0, 74, 65
2, 84800, Note_on_c, 0, 70, 65
2, 84872, Note_on_c, 0, 70, 0
2, 84872, Note_on_c, 0, 74, 0
2, 84880, Note_on_c, 0, 74, 65
2, 84880, Note_on_c, 0, 70, 65
2, 84952, Note_on_c, 0, 70, 0
2, 84952, Note_on_c, 0, 74, 0
2, 84960, Note_on_c, 0, 70, 69
2, 84960, Note_on_c, 0, 74, 69
2, 85320, Note_on_c, 0, 74, 0
2, 85320, Note_on_c, 0, 70, 0
2, 85320, Note_on_c, 0, 53, 62
2, 85320, Note_on_c, 0, 58, 62
2, 85320, Note_on_c, 0, 62, 69
2, 85320, Note_on_c, 0, 65, 69
2, 85428, Note_on_c, 0, 65, 0
2, 85428, Note_on_c, 0, 53, 0
2, 85428, Note_on_c, 0, 58, 0
2, 85428, Note_on_c, 0, 62, 0
2, 85440, Note_on_c, 0, 53, 62
2, 85440, Note_on_c, 0, 58, 62
2, 85440, Note_on_c, 0, 62, 69
2, 85440, Note_on_c, 0, 65, 69
2, 85520, Note_on_c, 0, 65, 0
2, 85520, Note_on_c, 0, 53, 0
2, 85520, Note_on_c, 0, 58, 0
2, 85520, Note_on_c, 0, 62, 0
2, 85520, Note_on_c, 0, 70, 72
2, 85600, Note_on_c, 0, 70, 0
2, 85600, Note_on_c, 0, 74, 72
2, 85678, Note_on_c, 0, 74, 0
2, 85680, Note_on_c, 0, 65, 66
2, 85680, Note_on_c, 0, 70, 66
2, 85680, Note_on_c, 0, 74, 74
2, 85680, Note_on_c, 0, 77, 74
2, 86158, Note_on_c, 0, 65, 0
2, 86320, Note_on_c, 0, 70, 0
2, 86320, Note_on_c, 0, 74, 0
2, 86320, Note_on_c, 0, 77, 0
2, 86320, Note_on_c, 0, 67, 55
2, 86320, Note_on_c, 0, 70, 55
2, 86320, Note_on_c, 0, 75, 62
2, 86320, Note_on_c, 0, 79, 62
2, 86399, Note_on_c, 0, 79, 0
2, 86399, Note_on_c, 0, 67, 0
2, 86399, Note_on_c, 0, 70, 0
2, 86399, Note_on_c, 0, 75, 0
2, 86400, Note_on_c, 0, 77, 92
2, 86400, Note_on_c, 0, 74, 92
2, 86400, Note_on_c, 0, 70, 82
2, 86400, Note_on_c, 0, 65, 82
2, 86800, Note_on_c, 0, 65, 0
2, 86800, Note_on_c, 0, 77, 0
2, 86800, Note_on_c, 0, 74, 0
2, 86800, Note_on_c, 0, 70, 0
2, 86800, Note_on_c, 0, 70, 86
2, 86800, Note_on_c, 0, 82, 96
2, 86880, Note_on_c, 0, 82, 0
2, 86880, Note_on_c, 0, 70, 0
2, 86880, Note_on_c, 0, 74, 75
2, 86880, Note_on_c, 0, 77, 84
2, 87120, Note_on_c, 0, 77, 0
2, 87120, Note_on_c, 0, 74, 0
2, 87120, Note_on_c, 0, 58, 75
2, 87120, Note_on_c, 0, 70, 84
2, 87192, Note_on_c, 0, 70, 0
2, 87192, Note_on_c, 0, 58, 0
2, 87200, Note_on_c, 0, 58, 75
2, 87200, Note_on_c, 0, 70, 84
2, 87272, Note_on_c, 0, 70, 0
2, 87272, Note_on_c, 0, 58, 0
2, 87280, Note_on_c, 0, 58, 75
2, 87280, Note_on_c, 0, 70, 84
2, 87352, Note_on_c, 0, 70, 0
2, 87352, Note_on_c, 0, 58, 0
2, 87360, Note_on_c, 0, 53, 75
2, 87360, Note_on_c, 0, 62, 84
2, 87360, Note_on_c, 0, 65, 84
2, 87600, Note_on_c, 0, 53, 0
2, 87760, Note_on_c, 0, 65, 0
2, 87760, Note_on_c, 0, 62, 0
2, 87760, Note_on_c, 0, 70, 84
2, 87760, Note_on_c, 0, 82, 84
2, 87840, Note_on_c, 0, 82, 0
2, 87840, Note_on_c, 0, 70, 0
2, 87840, Note_on_c, 0, 74, 84
2, 87840, Note_on_c, 0, 77, 84
2, 87920, Note_on_c, 0, 77, 0
2, 87920, Note_on_c, 0, 74, 0
2, 87920, Note_on_c, 0, 69, 59
2, 87920, Note_on_c, 0, 81, 59
2, 88000, Note_on_c, 0, 81, 0
2, 88000, Note_on_c, 0, 69, 0
2, 88000, Note_on_c, 0, 70, 59
2, 88000, Note_on_c, 0, 74, 59
2, 88080, Note_on_c, 0, 74, 0
2, 88080, Note_on_c, 0, 70, 0
2, 88080, Note_on_c, 0, 67, 59
2, 88080, Note_on_c, 0, 79, 59
2, 88160, Note_on_c, 0, 79, 0
2, 88160, Note_on_c, 0, 67, 0
2, 88160, Note_on_c, 0, 70, 59
2, 88160, Note_on_c, 0, 74, 59
2, 88240, Note_on_c, 0, 74, 0
2, 88240, Note_on_c, 0, 70, 0
2, 88240, Note_on_c, 0, 65, 59
2, 88240, Note_on_c, 0, 77, 59
2, 88320, Note_on_c, 0, 77, 0
2, 88320, Note_on_c, 0, 65, 0
2, 88320, Note_on_c, 0, 70, 68
2, 88320, Note_on_c, 0, 74, 68
2, 88558, Note_on_c, 0, 74, 0
2, 88558, Note_on_c, 0, 70, 0
2, 88560, Note_on_c, 0, 70, 60
2, 88560, Note_on_c, 0, 74, 60
2, 88632, Note_on_c, 0, 74, 0
2, 88632, Note_on_c, 0, 70, 0
2, 88640, Note_on_c, 0, 70, 60
2, 88640, Note_on_c, 0, 74, 60
2, 88712, Note_on_c, 0, 74, 0
2, 88712, Note_on_c, 0, 70, 0
2, 88720, Note_on_c, 0, 70, 60
2, 88720, Note_on_c, 0, 74, 60
2, 88792, Note_on_c, 0, 74, 0
2, 88792, Note_on_c, 0, 70, 0
2, 88800, Note_on_c, 0, 70, 70
2, 88800, Note_on_c, 0, 74, 70
2, 89160, Note_on_c, 0, 74, 0
2, 89160, Note_on_c, 0, 70, 0
2, 89160, Note_on_c, 0, 53, 59
2, 89160, Note_on_c, 0, 58, 59
2, 89160, Note_on_c, 0, 62, 66
2, 89160, Note_on_c, 0, 65, 66
2, 89268, Note_on_c, 0, 65, 0
2, 89268, Note_on_c, 0, 53, 0
2, 89268, Note_on_c, 0, 58, 0
2, 89268, Note_on_c, 0, 62, 0
2, 89280, Note_on_c, 0, 53, 59
2, 89280, Note_on_c, 0, 58, 59
2, 89280, Note_on_c, 0, 62, 66
2, 89280, Note_on_c, 0, 65, 66
2, 89360, Note_on_c, 0, 65, 0
2, 89360, Note_on_c, 0, 53, 0
2, 89360, Note_on_c, 0, 58, 0
2, 89360, Note_on_c, 0, 62, 0
2, 89360, Note_on_c, 0, 70, 63
2, 89440, Note_on_c, 0, 70, 0
2, 89440, Note_on_c, 0, 74, 63
2, 89517, Note_on_c, 0, 74, 0
2, 89520, Note_on_c, 0, 65, 60
2, 89520, Note_on_c, 0, 70, 60
2, 89520, Note_on_c, 0, 74, 67
2, 89520, Note_on_c, 0, 77, 67
2, 89998, Note_on_c, 0, 65, 0
2, 90160, Note_on_c, 0, 70, 0
2, 90160, Note_on_c, 0, 74, 0
2, 90160, Note_on_c, 0, 77, 0
2, 90160, Note_on_c, 0, 67, 64
2, 90160, Note_on_c, 0, 70, 64
2, 90160, Note_on_c, 0, 74, 72
2, 90160, Note_on_c, 0, 79, 72
2, 90236, Note_on_c, 0, 79, 0
2, 90236, Note_on_c, 0, 67, 0
2, 90236, Note_on_c, 0, 70, 0
2, 90236, Note_on_c, 0, 74, 0
2, 90240, Note_on_c, 0, 65, 64
2, 90240, Note_on_c, 0, 69, 64
2, 90240, Note_on_c, 0, 74, 72
2, 90240, Note_on_c, 0, 77, 72
2, 90480, Note_on_c, 0, 77, 0
2, 90480, Note_on_c, 0, 65, 0
2, 90480, Note_on_c, 0, 69, 0
2, 90480, Note_on_c, 0, 74, 0
2, 90480, Note_on_c, 0, 57, 61
2, 90480, Note_on_c, 0, 62, 61
2, 90480, Note_on_c, 0, 65, 68
2, 90480, Note_on_c, 0, 69, 68
2, 90560, Note_on_c, 0, 69, 0
2, 90560, Note_on_c, 0, 57, 0
2, 90560, Note_on_c, 0, 62, 0
2, 90560, Note_on_c, 0, 65, 0
2, 90560, Note_on_c, 0, 74, 72
2, 90640, Note_on_c, 0, 74, 0
2, 90640, Note_on_c, 0, 77, 73
2, 90720, Note_on_c, 0, 77, 0
2, 90720, Note_on_c, 0, 69, 75
2, 90720, Note_on_c, 0, 74, 75
2, 90720, Note_on_c, 0, 77, 84
2, 90720, Note_on_c, 0, 81, 84
2, 91120, Note_on_c, 0, 81, 0
2, 91120, Note_on_c, 0, 69, 0
2, 91120, Note_on_c, 0, 74, 0
2, 91120, Note_on_c, 0, 77, 0
2, 91120, Note_on_c, 0, 70, 75
2, 91120, Note_on_c, 0, 73, 75
2, 91120, Note_on_c, 0, 77, 84
2, 91120, Note_on_c, 0, 82, 84
2, 91196, Note_on_c, 0, 82, 0
2, 91196, Note_on_c, 0, 70, 0
2, 91196, Note_on_c, 0, 73, 0
2, 91196, Note_on_c, 0, 77, 0
2, 91200, Note_on_c, 0, 69, 75
2, 91200, Note_on_c, 0, 72, 75
2, 91200, Note_on_c, 0, 77, 84
2, 91200, Note_on_c, 0, 81, 84
2, 91440, Note_on_c, 0, 81, 0
2, 91440, Note_on_c, 0, 69, 0
2, 91440, Note_on_c, 0, 72, 0
2, 91440, Note_on_c, 0, 77, 0
2, 91440, Note_on_c, 0, 60, 63
2, 91440, Note_on_c, 0, 65, 63
2, 91440, Note_on_c, 0, 69, 70
2, 91440, Note_on_c, 0, 72, 70
2, 91520, Note_on_c, 0, 72, 0
2, 91520, Note_on_c, 0, 60, 0
2, 91520, Note_on_c, 0, 65, 0
2, 91520, Note_on_c, 0, 69, 0
2, 91520, Note_on_c, 0, 77, 72
2, 91600, Note_on_c, 0, 77, 0
2, 91600, Note_on_c, 0, 81, 76
2, 91678, Note_on_c, 0, 81, 0
2, 91680, Note_on_c, 0, 72, 75
2, 91680, Note_on_c, 0, 77, 75
2, 91680, Note_on_c, 0, 81, 84
2, 91680, Note_on_c, 0, 84, 84
2, 92080, Note_on_c, 0, 84, 0
2, 92080, Note_on_c, 0, 72, 0
2, 92080, Note_on_c, 0, 77, 0
2, 92080, Note_on_c, 0, 81, 0
2, 92080, Note_on_c, 0, 75, 68
2, 92080, Note_on_c, 0, 78, 68
2, 92080, Note_on_c, 0, 84, 76
2, 92080, Note_on_c, 0, 87, 76
2, 92160, Note_on_c, 0, 87, 0
2, 92160, Note_on_c, 0, 75, 0
2, 92160, Note_on_c, 0, 78, 0
2, 92160, Note_on_c, 0, 84, 0
2, 92160, Control_c, 0, 91, 127
2, 92160, Note_on_c, 0, 74, 75
2, 92160, Note_on_c, 0, 86, 84
2, 92160, Note_on_c, 0, 82, 84
2, 92160, Note_on_c, 0, 79, 75
2, 92560, Note_on_c, 0, 79, 0
2, 92560, Note_on_c, 0, 74, 0
2, 92560, Note_on_c, 0, 86, 0
2, 92560, Note_on_c, 0, 82, 0
2, 92560, Note_on_c, 0, 72, 75
2, 92560, Note_on_c, 0, 75, 75
2, 92560, Note_on_c, 0, 78, 84
2, 92560, Note_on_c, 0, 84, 84
2, 92640, Note_on_c, 0, 84, 0
2, 92640, Note_on_c, 0, 72, 0
2, 92640, Note_on_c, 0, 75, 0
2, 92640, Note_on_c, 0, 78, 0
2, 92640, Note_on_c, 0, 70, 75
2, 92640, Note_on_c, 0, 74, 75
2, 92640, Note_on_c, 0, 82, 84
2, 92640, Note_on_c, 0, 79, 84
2, 93040, Note_on_c, 0, 79, 0
2, 93040, Note_on_c, 0, 70, 0
2, 93040, Note_on_c, 0, 74, 0
2, 93040, Note_on_c, 0, 82, 0
2, 93040, Note_on_c, 0, 67, 75
2, 93040, Note_on_c, 0, 72, 75
2, 93040, Note_on_c, 0, 75, 84
2, 93040, Note_on_c, 0, 79, 84
2, 93120, Note_on_c, 0, 79, 0
2, 93120, Note_on_c, 0, 67, 0
2, 93120, Note_on_c, 0, 72, 0
2, 93120, Note_on_c, 0, 75, 0
2, 93120, Note_on_c, 0, 70, 80
2, 93120, Note_on_c, 0, 65, 75
2, 93120, Note_on_c, 0, 74, 84
2, 93120, Note_on_c, 0, 77, 84
2, 93280, Note_on_c, 0, 77, 0
2, 93280, Note_on_c, 0, 70, 0
2, 93280, Note_on_c, 0, 65, 0
2, 93280, Note_on_c, 0, 74, 0
2, 93280, Note_on_c, 0, 63, 75
2, 93280, Note_on_c, 0, 72, 84
2, 93280, Note_on_c, 0, 75, 84
2, 93440, Note_on_c, 0, 75, 0
2, 93440, Note_on_c, 0, 72, 0
2, 93440, Note_on_c, 0, 63, 0
2, 93440, Note_on_c, 0, 62, 75
2, 93440, Note_on_c, 0, 70, 84
2, 93440, Note_on_c, 0, 74, 84
2, 93600, Note_on_c, 0, 74, 0
2, 93600, Note_on_c, 0, 70, 0
2, 93600, Note_on_c, 0, 62, 0
2, 93600, Note_on_c, 0, 67, 60
2, 93600, Note_on_c, 0, 75, 67
2, 93600, Note_on_c, 0, 79, 67
2, 93696, Note_on_c, 0, 79, 0
2, 93696, Note_on_c, 0, 75, 0
2, 93696, Note_on_c, 0, 67, 0
2, 93696, Note_on_c, 0, 77, 67
2, 93696, Note_on_c, 0, 74, 67
2, 93696, Note_on_c, 0, 65, 60
2, 93792, Note_on_c, 0, 65, 0
2, 93792, Note_on_c, 0, 74, 0
2, 93792, Note_on_c, 0, 77, 0
2, 93792, Note_on_c, 0, 70, 59
2, 93792, Note_on_c, 0, 74, 59
2, 93792, Note_on_c, 0, 62, 53
2, 93888, Note_on_c, 0, 62, 0
2, 93888, Note_on_c, 0, 74, 0
2, 93888, Note_on_c, 0, 70, 0
2, 93888, Note_on_c, 0, 74, 57
2, 93888, Note_on_c, 0, 58, 51
2, 93888, Note_on_c, 0, 62, 57
2, 93984, Note_on_c, 0, 62, 0
2, 93984, Note_on_c, 0, 58, 0
2, 93984, Note_on_c, 0, 74, 0
2, 93984, Note_on_c, 0, 72, 56
2, 93984, Note_on_c, 0, 75, 56
2, 93984, Note_on_c, 0, 63, 50
2, 94080, Note_on_c, 0, 63, 0
2, 94080, Note_on_c, 0, 75, 0
2, 94080, Note_on_c, 0, 72, 0
2, 94080, Note_on_c, 0, 62, 54
2, 94080, Note_on_c, 0, 70, 61
2, 94080, Note_on_c, 0, 74, 61
2, 94150, Note_on_c, 0, 74, 0
2, 94150, Note_on_c, 0, 70, 0
2, 94150, Note_on_c, 0, 62, 0
2, 94160, Note_on_c, 0, 70, 62
2, 94160, Note_on_c, 0, 74, 62
2, 94160, Note_on_c, 0, 76, 69
2, 94160, Note_on_c, 0, 82, 69
2, 94240, Note_on_c, 0, 82, 0
2, 94240, Note_on_c, 0, 70, 0
2, 94240, Note_on_c, 0, 74, 0
2, 94240, Note_on_c, 0, 76, 0
2, 94240, Note_on_c, 0, 69, 61
2, 94240, Note_on_c, 0, 73, 61
2, 94240, Note_on_c, 0, 76, 68
2, 94240, Note_on_c, 0, 81, 68
2, 94320, Note_on_c, 0, 81, 0
2, 94320, Note_on_c, 0, 69, 0
2, 94320, Note_on_c, 0, 73, 0
2, 94320, Note_on_c, 0, 76, 0
2, 94320, Note_on_c, 0, 65, 60
2, 94320, Note_on_c, 0, 69, 60
2, 94320, Note_on_c, 0, 74, 67
2, 94320, Note_on_c, 0, 77, 67
2, 94400, Note_on_c, 0, 77, 0
2, 94400, Note_on_c, 0, 65, 0
2, 94400, Note_on_c, 0, 69, 0
2, 94400, Note_on_c, 0, 74, 0
2, 94400, Note_on_c, 0, 62, 59
2, 94400, Note_on_c, 0, 65, 59
2, 94400, Note_on_c, 0, 70, 66
2, 94400, Note_on_c, 0, 74, 66
2, 94480, Note_on_c, 0, 74, 0
2, 94480, Note_on_c, 0, 62, 0
2, 94480, Note_on_c, 0, 65, 0
2, 94480, Note_on_c, 0, 70, 0
2, 94480, Note_on_c, 0, 67, 58
2, 94480, Note_on_c, 0, 70, 58
2, 94480, Note_on_c, 0, 75, 65
2, 94480, Note_on_c, 0, 79, 65
2, 94560, Note_on_c, 0, 79, 0
2, 94560, Note_on_c, 0, 67, 0
2, 94560, Note_on_c, 0, 70, 0
2, 94560, Note_on_c, 0, 75, 0
2, 94560, Note_on_c, 0, 65, 57
2, 94560, Note_on_c, 0, 70, 57
2, 94560, Note_on_c, 0, 74, 64
2, 94560, Note_on_c, 0, 77, 64
2, 94630, Note_on_c, 0, 77, 0
2, 94630, Note_on_c, 0, 65, 0
2, 94630, Note_on_c, 0, 70, 0
2, 94630, Note_on_c, 0, 74, 0
2, 94640, Note_on_c, 0, 75, 57
2, 94640, Note_on_c, 0, 84, 64
2, 94640, Note_on_c, 0, 87, 64
2, 94720, Note_on_c, 0, 87, 0
2, 94720, Note_on_c, 0, 84, 0
2, 94720, Note_on_c, 0, 75, 0
2, 94720, Note_on_c, 0, 74, 64
2, 94720, Note_on_c, 0, 82, 72
2, 94720, Note_on_c, 0, 86, 72
2, 94800, Note_on_c, 0, 86, 0
2, 94800, Note_on_c, 0, 82, 0
2, 94800, Note_on_c, 0, 74, 0
2, 94800, Note_on_c, 0, 70, 63
2, 94800, Note_on_c, 0, 74, 71
2, 94800, Note_on_c, 0, 82, 71
2, 94880, Note_on_c, 0, 82, 0
2, 94880, Note_on_c, 0, 74, 0
2, 94880, Note_on_c, 0, 70, 0
2, 94880, Note_on_c, 0, 67, 63
2, 94880, Note_on_c, 0, 70, 63
2, 94880, Note_on_c, 0, 79, 70
2, 94960, Note_on_c, 0, 79, 0
2, 94960, Note_on_c, 0, 70, 0
2, 94960, Note_on_c, 0, 67, 0
2, 94960, Note_on_c, 0, 72, 62
2, 94960, Note_on_c, 0, 75, 69
2, 94960, Note_on_c, 0, 84, 69
2, 95040, Note_on_c, 0, 84, 0
2, 95040, Note_on_c, 0, 75, 0
2, 95040, Note_on_c, 0, 72, 0
2, 95040, Note_on_c, 0, 70, 61
2, 95040, Note_on_c, 0, 74, 68
2, 95040, Note_on_c, 0, 82, 68
2, 95120, Note_on_c, 0, 82, 0
2, 95120, Note_on_c, 0, 74, 0
2, 95120, Note_on_c, 0, 70, 0
2, 95120, Note_on_c, 0, 69, 60
2, 95120, Note_on_c, 0, 74, 67
2, 95120, Note_on_c, 0, 81, 67
2, 95200, Note_on_c, 0, 81, 0
2, 95200, Note_on_c, 0, 74, 0
2, 95200, Note_on_c, 0, 69, 0
2, 95200, Note_on_c, 0, 70, 60
2, 95200, Note_on_c, 0, 74, 67
2, 95200, Note_on_c, 0, 82, 67
2, 95280, Note_on_c, 0, 82, 0
2, 95280, Note_on_c, 0, 74, 0
2, 95280, Note_on_c, 0, 70, 0
2, 95280, Note_on_c, 0, 64, 63
2, 95280, Note_on_c, 0, 67, 63
2, 95280, Note_on_c, 0, 73, 70
2, 95280, Note_on_c, 0, 76, 70
2, 95360, Note_on_c, 0, 76, 0
2, 95360, Note_on_c, 0, 64, 0
2, 95360, Note_on_c, 0, 67, 0
2, 95360, Note_on_c, 0, 73, 0
2, 95360, Note_on_c, 0, 69, 60
2, 95360, Note_on_c, 0, 72, 60
2, 95360, Note_on_c, 0, 78, 67
2, 95360, Note_on_c, 0, 81, 67
2, 95430, Note_on_c, 0, 81, 0
2, 95430, Note_on_c, 0, 69, 0
2, 95430, Note_on_c, 0, 72, 0
2, 95430, Note_on_c, 0, 78, 0
2, 95440, Note_on_c, 0, 62, 63
2, 95440, Note_on_c, 0, 65, 63
2, 95440, Note_on_c, 0, 71, 71
2, 95440, Note_on_c, 0, 74, 71
2, 95520, Note_on_c, 0, 74, 0
2, 95520, Note_on_c, 0, 62, 0
2, 95520, Note_on_c, 0, 65, 0
2, 95520, Note_on_c, 0, 71, 0
2, 95520, Note_on_c, 0, 67, 63
2, 95520, Note_on_c, 0, 70, 63
2, 95520, Note_on_c, 0, 75, 71
2, 95520, Note_on_c, 0, 79, 71
2, 95600, Note_on_c, 0, 79, 0
2, 95600, Note_on_c, 0, 67, 0
2, 95600, Note_on_c, 0, 70, 0
2, 95600, Note_on_c, 0, 75, 0
2, 95600, Note_on_c, 0, 60, 61
2, 95600, Note_on_c, 0, 63, 61
2, 95600, Note_on_c, 0, 69, 68
2, 95600, Note_on_c, 0, 72, 68
2, 95680, Note_on_c, 0, 72, 0
2, 95680, Note_on_c, 0, 60, 0
2, 95680, Note_on_c, 0, 63, 0
2, 95680, Note_on_c, 0, 69, 0
2, 95680, Note_on_c, 0, 65, 67
2, 95680, Note_on_c, 0, 68, 75
2, 95680, Note_on_c, 0, 74, 75
2, 95680, Note_on_c, 0, 77, 75
2, 95760, Note_on_c, 0, 77, 0
2, 95760, Note_on_c, 0, 65, 0
2, 95760, Note_on_c, 0, 68, 0
2, 95760, Note_on_c, 0, 74, 0
2, 95760, Note_on_c, 0, 63, 65
2, 95760, Note_on_c, 0, 67, 65
2, 95760, Note_on_c, 0, 72, 73
2, 95760, Note_on_c, 0, 75, 73
2, 95840, Note_on_c, 0, 75, 0
2, 95840, Note_on_c, 0, 63, 0
2, 95840, Note_on_c, 0, 67, 0
2, 95840, Note_on_c, 0, 72, 0
2, 95840, Note_on_c, 0, 60, 64
2, 95840, Note_on_c, 0, 67, 64
2, 95840, Note_on_c, 0, 72, 72
2, 95920, Note_on_c, 0, 72, 0
2, 95920, Note_on_c, 0, 67, 0
2, 95920, Note_on_c, 0, 60, 0
2, 95920, Note_on_c, 0, 67, 72
2, 95920, Note_on_c, 0, 70, 72
2, 95920, Note_on_c, 0, 72, 81
2, 95920, Note_on_c, 0, 79, 81
2, 96000, Note_on_c, 0, 79, 0
2, 96000, Note_on_c, 0, 67, 0
2, 96000, Note_on_c, 0, 70, 0
2, 96000, Note_on_c, 0, 72, 0
2, 96000, Control_c, 0, 91, 127
2, 96000, Note_on_c, 0, 60, 78
2, 96000, Note_on_c, 0, 70, 87
2, 96000, Note_on_c, 0, 65, 78
2, 96000, Note_on_c, 0, 74, 87
2, 96480, Note_on_c, 0, 65, 0
2, 96480, Note_on_c, 0, 70, 0
2, 96480, Note_on_c, 0, 63, 79
2, 96480, Note_on_c, 0, 69, 88
2, 96840, Note_on_c, 0, 69, 0
2, 96840, Note_on_c, 0, 74, 0
2, 96840, Note_on_c, 0, 60, 0
2, 96840, Note_on_c, 0, 63, 0
2, 96840, Note_on_c, 0, 70, 89
2, 96840, Note_on_c, 0, 65, 80
2, 96840, Note_on_c, 0, 62, 80
2, 96840, Note_on_c, 0, 74, 89
2, 96958, Note_on_c, 0, 62, 0
2, 96958, Note_on_c, 0, 70, 0
2, 96958, Note_on_c, 0, 65, 0
2, 96958, Note_on_c, 0, 74, 0
2, 96960, Note_on_c, 0, 62, 80
2, 96960, Note_on_c, 0, 65, 80
2, 96960, Note_on_c, 0, 70, 89
2, 96960, Note_on_c, 0, 74, 89
2, 97200, Note_on_c, 0, 98, 62
2, 97248, Note_on_c, 0, 98, 0
2, 97248, Note_on_c, 0, 99, 62
2, 97296, Note_on_c, 0, 99, 0
2, 97296, Note_on_c, 0, 98, 62
2, 97344, Note_on_c, 0, 98, 0
2, 97344, Note_on_c, 0, 96, 62
2, 97392, Note_on_c, 0, 96, 0
2, 97392, Note_on_c, 0, 98, 62
2, 97440, Note_on_c, 0, 98, 0
2, 97440, Note_on_c, 0, 103, 62
2, 97488, Note_on_c, 0, 103, 0
2, 97488, Note_on_c, 0, 101, 62
2, 97536, Note_on_c, 0, 101, 0
2, 97536, Note_on_c, 0, 98, 62
2, 97584, Note_on_c, 0, 98, 0
2, 97584, Note_on_c, 0, 96, 62
2, 97632, Note_on_c, 0, 96, 0
2, 97632, Note_on_c, 0, 94, 62
2, 97680, Note_on_c, 0, 94, 0
2, 97680, Note_on_c, 0, 101, 62
2, 97728, Note_on_c, 0, 101, 0
2, 97728, Note_on_c, 0, 98, 62
2, 97776, Note_on_c, 0, 98, 0
2, 97776, Note_on_c, 0, 96, 62
2, 97824, Note_on_c, 0, 96, 0
2, 97824, Note_on_c, 0, 94, 62
2, 97872, Note_on_c, 0, 94, 0
2, 97872, Note_on_c, 0, 91, 62
2, 97920, Note_on_c, 0, 91, 0
2, 97920, Note_on_c, 0, 70, 0
2, 97920, Note_on_c, 0, 62, 0
2, 97920, Note_on_c, 0, 65, 0
2, 97920, Note_on_c, 0, 74, 0
2, 97920, Note_on_c, 0, 98, 62
2, 97968, Note_on_c, 0, 98, 0
2, 97968, Note_on_c, 0, 96, 62
2, 98016, Note_on_c, 0, 96, 0
2, 98016, Note_on_c, 0, 94, 62
2, 98064, Note_on_c, 0, 94, 0
2, 98064, Note_on_c, 0, 91, 62
2, 98112, Note_on_c, 0, 91, 0
2, 98112, Note_on_c, 0, 89, 62
2, 98160, Note_on_c, 0, 89, 0
2, 98160, Note_on_c, 0, 91, 62
2, 98208, Note_on_c, 0, 91, 0
2, 98208, Note_on_c, 0, 89, 62
2, 98256, Note_on_c, 0, 89, 0
2, 98256, Note_on_c, 0, 86, 62
2, 98304, Note_on_c, 0, 86, 0
2, 98304, Note_on_c, 0, 84, 62
2, 98352, Note_on_c, 0, 84, 0
2, 98352, Note_on_c, 0, 82, 62
2, 98400, Note_on_c, 0, 82, 0
2, 98400, Note_on_c, 0, 89, 61
2, 98448, Note_on_c, 0, 89, 0
2, 98448, Note_on_c, 0, 86, 61
2, 98496, Note_on_c, 0, 86, 0
2, 98496, Note_on_c, 0, 84, 62
2, 98544, Note_on_c, 0, 84, 0
2, 98544, Note_on_c, 0, 82, 64
2, 98592, Note_on_c, 0, 82, 0
2, 98592, Note_on_c, 0, 79, 67
2, 98640, Note_on_c, 0, 79, 0
2, 98640, Note_on_c, 0, 81, 67
2, 98680, Note_on_c, 0, 81, 0
2, 98680, Note_on_c, 0, 82, 67
2, 98720, Note_on_c, 0, 82, 0
2, 98720, Note_on_c, 0, 83, 66
2, 98760, Note_on_c, 0, 83, 0
2, 98760, Note_on_c, 0, 84, 62
2, 98800, Note_on_c, 0, 84, 0
2, 98800, Note_on_c, 0, 87, 62
2, 98840, Note_on_c, 0, 87, 0
2, 98840, Note_on_c, 0, 90, 61
2, 98880, Note_on_c, 0, 90, 0
2, 98880, Note_on_c, 0, 89, 59
2, 98880, Note_on_c, 0, 86, 59
2, 99120, Note_on_c, 0, 86, 0
2, 99120, Note_on_c, 0, 89, 0
2, 99120, Note_on_c, 0, 89, 56
2, 99168, Note_on_c, 0, 89, 0
2, 99168, Note_on_c, 0, 91, 56
2, 99216, Note_on_c, 0, 91, 0
2, 99216, Note_on_c, 0, 89, 56
2, 99264, Note_on_c, 0, 89, 0
2, 99264, Note_on_c, 0, 88, 56
2, 99312, Note_on_c, 0, 88, 0
2, 99312, Note_on_c, 0, 89, 56
2, 99360, Note_on_c, 0, 89, 0
2, 99360, Note_on_c, 0, 94, 56
2, 99408, Note_on_c, 0, 94, 0
2, 99408, Note_on_c, 0, 91, 56
2, 99456, Note_on_c, 0, 91, 0
2, 99456, Note_on_c, 0, 89, 56
2, 99504, Note_on_c, 0, 89, 0
2, 99504, Note_on_c, 0, 87, 56
2, 99552, Note_on_c, 0, 87, 0
2, 99552, Note_on_c, 0, 86, 56
2, 99600, Note_on_c, 0, 86, 0
2, 99600, Note_on_c, 0, 91, 56
2, 99648, Note_on_c, 0, 91, 0
2, 99648, Note_on_c, 0, 89, 56
2, 99696, Note_on_c, 0, 89, 0
2, 99696, Note_on_c, 0, 86, 56
2, 99744, Note_on_c, 0, 86, 0
2, 99744, Note_on_c, 0, 84, 56
2, 99792, Note_on_c, 0, 84, 0
2, 99792, Note_on_c, 0, 82, 56
2, 99840, Note_on_c, 0, 82, 0
2, 99840, Note_on_c, 0, 89, 56
2, 99888, Note_on_c, 0, 89, 0
2, 99888, Note_on_c, 0, 86, 56
2, 99936, Note_on_c, 0, 86, 0
2, 99936, Note_on_c, 0, 84, 55
2, 99984, Note_on_c, 0, 84, 0
2, 99984, Note_on_c, 0, 82, 54
2, 100032, Note_on_c, 0, 82, 0
2, 100032, Note_on_c, 0, 79, 53
2, 100080, Note_on_c, 0, 79, 0
2, 100080, Note_on_c, 0, 86, 52
2, 100128, Note_on_c, 0, 86, 0
2, 100128, Note_on_c, 0, 84, 51
2, 100176, Note_on_c, 0, 84, 0
2, 100176, Note_on_c, 0, 82, 50
2, 100224, Note_on_c, 0, 82, 0
2, 100224, Note_on_c, 0, 79, 50
2, 100272, Note_on_c, 0, 79, 0
2, 100272, Note_on_c, 0, 77, 49
2, 100320, Note_on_c, 0, 77, 0
2, 100320, Note_on_c, 0, 75, 48
2, 100368, Note_on_c, 0, 75, 0
2, 100368, Note_on_c, 0, 74, 50
2, 100416, Note_on_c, 0, 74, 0
2, 100416, Note_on_c, 0, 72, 51
2, 100464, Note_on_c, 0, 72, 0
2, 100464, Note_on_c, 0, 75, 54
2, 100512, Note_on_c, 0, 75, 0
2, 100512, Note_on_c, 0, 77, 55
2, 100560, Note_on_c, 0, 77, 0
2, 100560, Note_on_c, 0, 78, 56
2, 100600, Note_on_c, 0, 78, 0
2, 100600, Note_on_c, 0, 80, 54
2, 100640, Note_on_c, 0, 80, 0
2, 100640, Note_on_c, 0, 81, 52
2, 100680, Note_on_c, 0, 81, 0
2, 100680, Note_on_c, 0, 83, 50
2, 100720, Note_on_c, 0, 83, 0
2, 100720, Note_on_c, 0, 84, 49
2, 100760, Note_on_c, 0, 84, 0
2, 100760, Note_on_c, 0, 87, 47
2, 100800, Note_on_c, 0, 87, 0
2, 100800, Note_on_c, 0, 82, 47
2, 100800, Note_on_c, 0, 86, 47
2, 101040, Note_on_c, 0, 86, 0
2, 101040, Note_on_c, 0, 82, 0
2, 101040, Note_on_c, 0, 82, 46
2, 101088, Note_on_c, 0, 82, 0
2, 101088, Note_on_c, 0, 84, 46
2, 101136, Note_on_c, 0, 84, 0
2, 101136, Note_on_c, 0, 82, 46
2, 101184, Note_on_c, 0, 82, 0
2, 101184, Note_on_c, 0, 81, 46
2, 101232, Note_on_c, 0, 81, 0
2, 101232, Note_on_c, 0, 82, 46
2, 101280, Note_on_c, 0, 82, 0
2, 101280, Note_on_c, 0, 86, 46
2, 101328, Note_on_c, 0, 86, 0
2, 101328, Note_on_c, 0, 84, 46
2, 101376, Note_on_c, 0, 84, 0
2, 101376, Note_on_c, 0, 82, 46
2, 101424, Note_on_c, 0, 82, 0
2, 101424, Note_on_c, 0, 79, 46
2, 101472, Note_on_c, 0, 79, 0
2, 101472, Note_on_c, 0, 77, 46
2, 101520, Note_on_c, 0, 77, 0
2, 101520, Note_on_c, 0, 79, 46
2, 101568, Note_on_c, 0, 79, 0
2, 101568, Note_on_c, 0, 77, 46
2, 101616, Note_on_c, 0, 77, 0
2, 101616, Note_on_c, 0, 74, 46
2, 101664, Note_on_c, 0, 74, 0
2, 101664, Note_on_c, 0, 72, 46
2, 101712, Note_on_c, 0, 72, 0
2, 101712, Note_on_c, 0, 70, 46
2, 101760, Note_on_c, 0, 70, 0
2, 101760, Note_on_c, 0, 77, 45
2, 101808, Note_on_c, 0, 77, 0
2, 101808, Note_on_c, 0, 74, 44
2, 101856, Note_on_c, 0, 74, 0
2, 101856, Note_on_c, 0, 72, 43
2, 101904, Note_on_c, 0, 72, 0
2, 101904, Note_on_c, 0, 70, 42
2, 101952, Note_on_c, 0, 70, 0
2, 101952, Note_on_c, 0, 67, 42
2, 102000, Note_on_c, 0, 67, 0
2, 102000, Note_on_c, 0, 77, 40
2, 102048, Note_on_c, 0, 77, 0
2, 102048, Note_on_c, 0, 74, 39
2, 102096, Note_on_c, 0, 74, 0
2, 102096, Note_on_c, 0, 72, 38
2, 102144, Note_on_c, 0, 72, 0
2, 102144, Note_on_c, 0, 70, 37
2, 102192, Note_on_c, 0, 70, 0
2, 102192, Note_on_c, 0, 67, 36
2, 102240, Note_on_c, 0, 67, 0
2, 102240, Note_on_c, 0, 74, 34
2, 102288, Note_on_c, 0, 74, 0
2, 102288, Note_on_c, 0, 72, 35
2, 102336, Note_on_c, 0, 72, 0
2, 102336, Note_on_c, 0, 70, 36
2, 102384, Note_on_c, 0, 70, 0
2, 102384, Note_on_c, 0, 67, 37
2, 102432, Note_on_c, 0, 67, 0
2, 102432, Note_on_c, 0, 65, 38
2, 102480, Note_on_c, 0, 65, 0
2, 102480, Note_on_c, 0, 69, 37
2, 102520, Note_on_c, 0, 69, 0
2, 102520, Note_on_c, 0, 70, 37
2, 102560, Note_on_c, 0, 70, 0
2, 102560, Note_on_c, 0, 71, 36
2, 102600, Note_on_c, 0, 71, 0
2, 102600, Note_on_c, 0, 72, 36
2, 102640, Note_on_c, 0, 72, 0
2, 102640, Note_on_c, 0, 75, 35
2, 102680, Note_on_c, 0, 75, 0
2, 102680, Note_on_c, 0, 78, 34
2, 102720, Note_on_c, 0, 78, 0
2, 102720, Note_on_c, 0, 74, 34
2, 102720, Note_on_c, 0, 77, 34
2, 102800, Note_on_c, 0, 77, 0
2, 102800, Note_on_c, 0, 74, 0
2, 102880, Note_on_c, 0, 72, 32
2, 102960, Note_on_c, 0, 72, 0
2, 102960, Note_on_c, 0, 74, 32
2, 103008, Note_on_c, 0, 74, 0
2, 103008, Note_on_c, 0, 72, 32
2, 103056, Note_on_c, 0, 72, 0
2, 103056, Note_on_c, 0, 70, 32
2, 103104, Note_on_c, 0, 70, 0
2, 103104, Note_on_c, 0, 67, 32
2, 103152, Note_on_c, 0, 67, 0
2, 103152, Note_on_c, 0, 65, 32
2, 103200, Note_on_c, 0, 65, 0
2, 103200, Note_on_c, 0, 70, 32
2, 103248, Note_on_c, 0, 70, 0
2, 103248, Note_on_c, 0, 67, 32
2, 103296, Note_on_c, 0, 67, 0
2, 103296, Note_on_c, 0, 65, 32
2, 103344, Note_on_c, 0, 65, 0
2, 103344, Note_on_c, 0, 63, 32
2, 103392, Note_on_c, 0, 63, 0
2, 103392, Note_on_c, 0, 62, 32
2, 103440, Note_on_c, 0, 62, 0
2, 103440, Note_on_c, 0, 63, 32
2, 103480, Note_on_c, 0, 63, 0
2, 103480, Note_on_c, 0, 66, 31
2, 103520, Note_on_c, 0, 66, 0
2, 103520, Note_on_c, 0, 69, 30
2, 103560, Note_on_c, 0, 69, 0
2, 103560, Note_on_c, 0, 71, 29
2, 103600, Note_on_c, 0, 71, 0
2, 103600, Note_on_c, 0, 72, 29
2, 103640, Note_on_c, 0, 72, 0
2, 103640, Note_on_c, 0, 75, 28
2, 103680, Note_on_c, 0, 75, 0
2, 103680, Note_on_c, 0, 70, 27
2, 103680, Note_on_c, 0, 74, 27
2, 103760, Note_on_c, 0, 74, 0
2, 103760, Note_on_c, 0, 70, 0
2, 103840, Note_on_c, 0, 65, 32
2, 103920, Note_on_c, 0, 65, 0
2, 103920, Note_on_c, 0, 70, 32
2, 103968, Note_on_c, 0, 70, 0
2, 103968, Note_on_c, 0, 67, 32
2, 104016, Note_on_c, 0, 67, 0
2, 104016, Note_on_c, 0, 65, 32
2, 104064, Note_on_c, 0, 65, 0
2, 104064, Note_on_c, 0, 63, 32
2, 104112, Note_on_c, 0, 63, 0
2, 104112, Note_on_c, 0, 62, 32
2, 104160, Note_on_c, 0, 62, 0
2, 104160, Note_on_c, 0, 65, 32
2, 104208, Note_on_c, 0, 65, 0
2, 104208, Note_on_c, 0, 63, 32
2, 104256, Note_on_c, 0, 63, 0
2, 104256, Note_on_c, 0, 62, 32
2, 104304, Note_on_c, 0, 62, 0
2, 104304, Note_on_c, 0, 60, 32
2, 104352, Note_on_c, 0, 60, 0
2, 104352, Note_on_c, 0, 58, 32
2, 104400, Note_on_c, 0, 58, 0
2, 104400, Note_on_c, 0, 57, 30
2, 104440, Note_on_c, 0, 57, 0
2, 104440, Note_on_c, 0, 58, 30
2, 104480, Note_on_c, 0, 58, 0
2, 104480, Note_on_c, 0, 59, 29
2, 104520, Note_on_c, 0, 59, 0
2, 104520, Note_on_c, 0, 60, 28
2, 104560, Note_on_c, 0, 60, 0
2, 104560, Note_on_c, 0, 63, 27
2, 104600, Note_on_c, 0, 63, 0
2, 104600, Note_on_c, 0, 66, 27
2, 104640, Note_on_c, 0, 66, 0
2, 104640, Control_c, 0, 91, 127
2, 104640, Note_on_c, 0, 62, 26
2, 104640, Note_on_c, 0, 65, 27
2, 104880, Note_on_c, 0, 65, 0
2, 104880, Note_on_c, 0, 62, 0
2, 105000, Note_on_c, 0, 58, 33
2, 105000, Note_on_c, 0, 70, 33
2, 105120, Note_on_c, 0, 70, 0
2, 105120, Note_on_c, 0, 58, 0
2, 105120, Note_on_c, 0, 62, 33
2, 105120, Note_on_c, 0, 65, 33
2, 106000, Note_on_c, 0, 65, 0
2, 106000, Note_on_c, 0, 62, 0
2, 106000, Note_on_c, 0, 62, 48
2, 106000, Note_on_c, 0, 74, 48
2, 106080, Note_on_c, 0, 74, 0
2, 106080, Note_on_c, 0, 62, 0
2, 106080, Note_on_c, 0, 65, 48
2, 106080, Note_on_c, 0, 70, 48
2, 106960, Note_on_c, 0, 70, 0
2, 106960, Note_on_c, 0, 65, 0
2, 106960, Note_on_c, 0, 65, 60
2, 106960, Note_on_c, 0, 77, 60
2, 107040, Note_on_c, 0, 77, 0
2, 107040, Note_on_c, 0, 65, 0
2, 107040, Note_on_c, 0, 62, 54
2, 107040, Note_on_c, 0, 70, 60
2, 107040, Note_on_c, 0, 74, 60
2, 107440, Note_on_c, 0, 74, 0
2, 107440, Note_on_c, 0, 70, 0
2, 107440, Note_on_c, 0, 62, 0
2, 107440, Note_on_c, 0, 70, 73
2, 107440, Note_on_c, 0, 82, 73
2, 107520, Note_on_c, 0, 82, 0
2, 107520, Note_on_c, 0, 70, 0
2, 107520, Note_on_c, 0, 65, 65
2, 107520, Note_on_c, 0, 74, 73
2, 107520, Note_on_c, 0, 77, 73
2, 107920, Note_on_c, 0, 77, 0
2, 107920, Note_on_c, 0, 74, 0
2, 107920, Note_on_c, 0, 65, 0
2, 107920, Note_on_c, 0, 86, 86
2, 107920, Note_on_c, 0, 74, 86
2, 108000, Note_on_c, 0, 74, 0
2, 108000, Note_on_c, 0, 86, 0
2, 108000, Note_on_c, 0, 82, 86
2, 108000, Note_on_c, 0, 79, 86
2, 108000, Note_on_c, 0, 70, 77
2, 108400, Note_on_c, 0, 70, 0
2, 108400, Note_on_c, 0, 79, 0
2, 108400, Note_on_c, 0, 82, 0
2, 108400, Note_on_c, 0, 77, 81
2, 108400, Note_on_c, 0, 82, 81
2, 108400, Note_on_c, 0, 86, 86
2, 108400, Note_on_c, 0, 89, 90
2, 108479, Note_on_c, 0, 89, 0
2, 108479, Note_on_c, 0, 77, 0
2, 108479, Note_on_c, 0, 82, 0
2, 108479, Note_on_c, 0, 86, 0
2, 108480, Note_on_c, 0, 86, 90
2, 108480, Note_on_c, 0, 82, 82
2, 108480, Note_on_c, 0, 77, 81
2, 108480, Note_on_c, 0, 74, 81
2, 108588, Note_on_c, 0, 74, 0
2, 108588, Note_on_c, 0, 86, 0
2, 108588, Note_on_c, 0, 82, 0
2, 108588, Note_on_c, 0, 77, 0
2, 108600, Note_on_c, 0, 94, 84
2, 108600, Note_on_c, 0, 89, 84
2, 108600, Note_on_c, 0, 86, 75
2, 108600, Note_on_c, 0, 82, 75
2, 108720, Note_on_c, 0, 82, 0
2, 108720, Note_on_c, 0, 94, 0
2, 108720, Note_on_c, 0, 89, 0
2, 108720, Note_on_c, 0, 86, 0
2, 108720, Note_on_c, 0, 89, 78
2, 108720, Note_on_c, 0, 86, 78
2, 108720, Note_on_c, 0, 82, 70
2, 108720, Note_on_c, 0, 77, 70
2, 108840, Note_on_c, 0, 77, 0
2, 108840, Note_on_c, 0, 89, 0
2, 108840, Note_on_c, 0, 86, 0
2, 108840, Note_on_c, 0, 82, 0
2, 108840, Note_on_c, 0, 91, 81
2, 108840, Note_on_c, 0, 79, 72
2, 108960, Note_on_c, 0, 79, 0
2, 108960, Note_on_c, 0, 91, 0
2, 108960, Note_on_c, 0, 86, 79
2, 108960, Note_on_c, 0, 74, 71
2, 109068, Note_on_c, 0, 74, 0
2, 109068, Note_on_c, 0, 86, 0
2, 109080, Note_on_c, 0, 89, 87
2, 109080, Note_on_c, 0, 77, 78
2, 109200, Note_on_c, 0, 77, 0
2, 109200, Note_on_c, 0, 89, 0
2, 109200, Note_on_c, 0, 82, 82
2, 109200, Note_on_c, 0, 70, 73
2, 109320, Note_on_c, 0, 70, 0
2, 109320, Note_on_c, 0, 82, 0
2, 109320, Note_on_c, 0, 86, 87
2, 109320, Note_on_c, 0, 74, 78
2, 109440, Note_on_c, 0, 74, 0
2, 109440, Note_on_c, 0, 86, 0
2, 109440, Note_on_c, 0, 79, 82
2, 109440, Note_on_c, 0, 67, 73
2, 109548, Note_on_c, 0, 67, 0
2, 109548, Note_on_c, 0, 79, 0
2, 109560, Note_on_c, 0, 82, 88
2, 109560, Note_on_c, 0, 70, 79
2, 109680, Note_on_c, 0, 70, 0
2, 109680, Note_on_c, 0, 82, 0
2, 109680, Note_on_c, 0, 77, 82
2, 109680, Note_on_c, 0, 65, 73
2, 109800, Note_on_c, 0, 65, 0
2, 109800, Note_on_c, 0, 77, 0
2, 109800, Note_on_c, 0, 79, 89
2, 109800, Note_on_c, 0, 67, 80
2, 109920, Note_on_c, 0, 67, 0
2, 109920, Note_on_c, 0, 79, 0
2, 109920, Note_on_c, 0, 74, 82
2, 109920, Note_on_c, 0, 62, 73
2, 110028, Note_on_c, 0, 62, 0
2, 110028, Note_on_c, 0, 74, 0
2, 110040, Note_on_c, 0, 77, 88
2, 110040, Note_on_c, 0, 65, 79
2, 110160, Note_on_c, 0, 65, 0
2, 110160, Note_on_c, 0, 77, 0
2, 110160, Note_on_c, 0, 70, 83
2, 110160, Note_on_c, 0, 58, 74
2, 110280, Note_on_c, 0, 58, 0
2, 110280, Note_on_c, 0, 70, 0
2, 110280, Note_on_c, 0, 74, 95
2, 110280, Note_on_c, 0, 62, 86
2, 110400, Note_on_c, 0, 62, 0
2, 110400, Note_on_c, 0, 74, 0
2, 110400, Note_on_c, 0, 53, 90
2, 110400, Note_on_c, 0, 65, 100
2, 110880, Note_on_c, 0, 81, 92
2, 110880, Note_on_c, 0, 75, 92
2, 110880, Note_on_c, 0, 72, 82
2, 110880, Note_on_c, 0, 69, 82
2, 111360, Note_on_c, 0, 69, 0
2, 111360, Note_on_c, 0, 65, 0
2, 111360, Note_on_c, 0, 81, 0
2, 111360, Note_on_c, 0, 53, 0
2, 111360, Note_on_c, 0, 72, 0
2, 111360, Note_on_c, 0, 75, 0
2, 111360, Note_on_c, 0, 46, 97
2, 111600, Note_on_c, 0, 82, 97
2, 111600, Note_on_c, 0, 77, 93
2, 111600, Note_on_c, 0, 74, 87
2, 111600, Note_on_c, 0, 70, 87
2, 112320, Note_on_c, 0, 70, 0
2, 112320, Note_on_c, 0, 77, 0
2, 112320, Note_on_c, 0, 46, 0
2, 112320, Note_on_c, 0, 82, 0
2, 112320, Note_on_c, 0, 74, 0
2, 112320, End_track
3, 0, Start_track
3, 0, Title_t, "Piano left"
3, 0, Program_c, 0, 0
3, 0, Control_c, 0, 7, 100
3, 0, Control_c, 0, 10, 64
3, 0, Control_c, 0, 91, 127
3, 0, Note_on_c, 0, 22, 76
3, 0, Note_on_c, 0, 34, 85
3, 80, Note_on_c, 0, 34, 0
3, 80, Note_on_c, 0, 22, 0
3, 80, Note_on_c, 0, 41, 57
3, 160, Note_on_c, 0, 41, 0
3, 160, Note_on_c, 0, 46, 58
3, 240, Note_on_c, 0, 46, 0
3, 240, Note_on_c, 0, 50, 60
3, 320, Note_on_c, 0, 50, 0
3, 320, Note_on_c, 0, 52, 62
3, 400, Note_on_c, 0, 52, 0
3, 400, Note_on_c, 0, 53, 63
3, 480, Note_on_c, 0, 53, 0
3, 480, Note_on_c, 0, 62, 64
3, 480, Note_on_c, 0, 58, 64
3, 560, Note_on_c, 0, 58, 0
3, 560, Note_on_c, 0, 62, 0
3, 560, Note_on_c, 0, 55, 63
3, 640, Note_on_c, 0, 55, 0
3, 640, Note_on_c, 0, 53, 62
3, 720, Note_on_c, 0, 53, 0
3, 720, Note_on_c, 0, 50, 60
3, 800, Note_on_c, 0, 50, 0
3, 800, Note_on_c, 0, 46, 58
3, 880, Note_on_c, 0, 46, 0
3, 880, Note_on_c, 0, 41, 57
3, 960, Note_on_c, 0, 41, 0
3, 960, Note_on_c, 0, 34, 56
3, 1040, Note_on_c, 0, 34, 0
3, 1040, Note_on_c, 0, 41, 57
3, 1120, Note_on_c, 0, 41, 0
3, 1120, Note_on_c, 0, 46, 58
3, 1200, Note_on_c, 0, 46, 0
3, 1200, Note_on_c, 0, 50, 60
3, 1280, Note_on_c, 0, 50, 0
3, 1280, Note_on_c, 0, 52, 62
3, 1360, Note_on_c, 0, 52, 0
3, 1360, Note_on_c, 0, 53, 63
3, 1440, Note_on_c, 0, 53, 0
3, 1440, Note_on_c, 0, 62, 64
3, 1440, Note_on_c, 0, 58, 64
3, 1520, Note_on_c, 0, 58, 0
3, 1520, Note_on_c, 0, 62, 0
3, 1520, Note_on_c, 0, 55, 64
3, 1600, Note_on_c, 0, 55, 0
3, 1600, Note_on_c, 0, 53, 63
3, 1680, Note_on_c, 0, 53, 0
3, 1680, Note_on_c, 0, 50, 61
3, 1760, Note_on_c, 0, 50, 0
3, 1760, Note_on_c, 0, 46, 59
3, 1840, Note_on_c, 0, 46, 0
3, 1840, Note_on_c, 0, 41, 57
3, 1920, Note_on_c, 0, 41, 0
3, 1920, Note_on_c, 0, 22, 76
3, 1920, Note_on_c, 0, 34, 85
3, 2000, Note_on_c, 0, 34, 0
3, 2000, Note_on_c, 0, 22, 0
3, 2000, Note_on_c, 0, 41, 57
3, 2080, Note_on_c, 0, 41, 0
3, 2080, Note_on_c, 0, 46, 58
3, 2160, Note_on_c, 0, 46, 0
3, 2160, Note_on_c, 0, 50, 60
3, 2240, Note_on_c, 0, 50, 0
3, 2240, Note_on_c, 0, 52, 61
3, 2320, Note_on_c, 0, 52, 0
3, 2320, Note_on_c, 0, 53, 63
3, 2400, Note_on_c, 0, 53, 0
3, 2400, Note_on_c, 0, 62, 64
3, 2400, Note_on_c, 0, 58, 64
3, 2480, Note_on_c, 0, 58, 0
3, 2480, Note_on_c, 0, 62, 0
3, 2480, Note_on_c, 0, 55, 63
3, 2560, Note_on_c, 0, 55, 0
3, 2560, Note_on_c, 0, 53, 62
3, 2640, Note_on_c, 0, 53, 0
3, 2640, Note_on_c, 0, 50, 60
3, 2720, Note_on_c, 0, 50, 0
3, 2720, Note_on_c, 0, 46, 58
3, 2800, Note_on_c, 0, 46, 0
3, 2800, Note_on_c, 0, 41, 57
3, 2880, Note_on_c, 0, 41, 0
3, 2880, Note_on_c, 0, 34, 56
3, 2960, Note_on_c, 0, 34, 0
3, 2960, Note_on_c, 0, 41, 57
3, 3040, Note_on_c, 0, 41, 0
3, 3040, Note_on_c, 0, 46, 59
3, 3120, Note_on_c, 0, 46, 0
3, 3120, Note_on_c, 0, 50, 61
3, 3200, Note_on_c, 0, 50, 0
3, 3200, Note_on_c, 0, 52, 63
3, 3280, Note_on_c, 0, 52, 0
3, 3280, Note_on_c, 0, 53, 64
3, 3360, Note_on_c, 0, 53, 0
3, 3360, Note_on_c, 0, 62, 64
3, 3360, Note_on_c, 0, 58, 64
3, 3440, Note_on_c, 0, 58, 0
3, 3440, Note_on_c, 0, 62, 0
3, 3440, Note_on_c, 0, 55, 63
3, 3520, Note_on_c, 0, 55, 0
3, 3520, Note_on_c, 0, 53, 62
3, 3600, Note_on_c, 0, 53, 0
3, 3600, Note_on_c, 0, 50, 60
3, 3680, Note_on_c, 0, 50, 0
3, 3680, Note_on_c, 0, 46, 58
3, 3760, Note_on_c, 0, 46, 0
3, 3760, Note_on_c, 0, 41, 57
3, 3840, Note_on_c, 0, 41, 0
3, 3840, Note_on_c, 0, 22, 76
3, 3840, Note_on_c, 0, 34, 87
3, 3920, Note_on_c, 0, 34, 0
3, 3920, Note_on_c, 0, 22, 0
3, 3920, Note_on_c, 0, 41, 57
3, 4000, Note_on_c, 0, 41, 0
3, 4000, Note_on_c, 0, 46, 58
3, 4080, Note_on_c, 0, 46, 0
3, 4080, Note_on_c, 0, 50, 60
3, 4160, Note_on_c, 0, 50, 0
3, 4160, Note_on_c, 0, 52, 62
3, 4240, Note_on_c, 0, 52, 0
3, 4240, Note_on_c, 0, 53, 63
3, 4320, Note_on_c, 0, 53, 0
3, 4320, Note_on_c, 0, 62, 64
3, 4320, Note_on_c, 0, 58, 64
3, 4400, Note_on_c, 0, 58, 0
3, 4400, Note_on_c, 0, 62, 0
3, 4400, Note_on_c, 0, 55, 63
3, 4480, Note_on_c, 0, 55, 0
3, 4480, Note_on_c, 0, 53, 63
3, 4560, Note_on_c, 0, 53, 0
3, 4560, Note_on_c, 0, 50, 61
3, 4640, Note_on_c, 0, 50, 0
3, 4640, Note_on_c, 0, 46, 59
3, 4720, Note_on_c, 0, 46, 0
3, 4720, Note_on_c, 0, 41, 58
3, 4800, Note_on_c, 0, 41, 0
3, 4800, Note_on_c, 0, 34, 56
3, 4880, Note_on_c, 0, 34, 0
3, 4880, Note_on_c, 0, 41, 57
3, 4960, Note_on_c, 0, 41, 0
3, 4960, Note_on_c, 0, 46, 59
3, 5040, Note_on_c, 0, 46, 0
3, 5040, Note_on_c, 0, 50, 61
3, 5120, Note_on_c, 0, 50, 0
3, 5120, Note_on_c, 0, 52, 63
3, 5200, Note_on_c, 0, 52, 0
3, 5200, Note_on_c, 0, 53, 64
3, 5280, Note_on_c, 0, 53, 0
3, 5280, Note_on_c, 0, 62, 64
3, 5280, Note_on_c, 0, 58, 64
3, 5360, Note_on_c, 0, 58, 0
3, 5360, Note_on_c, 0, 62, 0
3, 5360, Note_on_c, 0, 53, 64
3, 5440, Note_on_c, 0, 53, 0
3, 5440, Note_on_c, 0, 50, 63
3, 5520, Note_on_c, 0, 50, 0
3, 5520, Note_on_c, 0, 46, 62
3, 5600, Note_on_c, 0, 46, 0
3, 5600, Note_on_c, 0, 41, 60
3, 5680, Note_on_c, 0, 41, 0
3, 5680, Note_on_c, 0, 34, 58
3, 5840, Note_on_c, 0, 34, 0
3, 5840, Note_on_c, 0, 41, 56
3, 5920, Note_on_c, 0, 41, 0
3, 5920, Note_on_c, 0, 46, 57
3, 6000, Note_on_c, 0, 46, 0
3, 6000, Note_on_c, 0, 50, 59
3, 6080, Note_on_c, 0, 50, 0
3, 6080, Note_on_c, 0, 52, 61
3, 6160, Note_on_c, 0, 52, 0
3, 6160, Note_on_c, 0, 53, 63
3, 6240, Note_on_c, 0, 53, 0
3, 6240, Note_on_c, 0, 62, 64
3, 6240, Note_on_c, 0, 58, 64
3, 6320, Note_on_c, 0, 58, 0
3, 6320, Note_on_c, 0, 62, 0
3, 6320, Note_on_c, 0, 55, 63
3, 6400, Note_on_c, 0, 55, 0
3, 6400, Note_on_c, 0, 53, 62
3, 6480, Note_on_c, 0, 53, 0
3, 6480, Note_on_c, 0, 50, 61
3, 6560, Note_on_c, 0, 50, 0
3, 6560, Note_on_c, 0, 46, 59
3, 6640, Note_on_c, 0, 46, 0
3, 6640, Note_on_c, 0, 41, 58
3, 6720, Note_on_c, 0, 41, 0
3, 6720, Note_on_c, 0, 34, 57
3, 6720, Note_on_c, 0, 41, 57
3, 6800, Note_on_c, 0, 41, 0
3, 6800, Note_on_c, 0, 34, 0
3, 6800, Note_on_c, 0, 46, 57
3, 6880, Note_on_c, 0, 46, 0
3, 6880, Note_on_c, 0, 50, 58
3, 6960, Note_on_c, 0, 50, 0
3, 6960, Note_on_c, 0, 53, 59
3, 7040, Note_on_c, 0, 53, 0
3, 7040, Note_on_c, 0, 46, 60
3, 7120, Note_on_c, 0, 46, 0
3, 7120, Note_on_c, 0, 50, 61
3, 7200, Note_on_c, 0, 50, 0
3, 7200, Note_on_c, 0, 53, 62
3, 7280, Note_on_c, 0, 53, 0
3, 7280, Note_on_c, 0, 58, 63
3, 7360, Note_on_c, 0, 58, 0
3, 7360, Note_on_c, 0, 62, 63
3, 7440, Note_on_c, 0, 62, 0
3, 7440, Note_on_c, 0, 65, 64
3, 7600, Note_on_c, 0, 65, 0
3, 7600, Note_on_c, 0, 55, 54
3, 7600, Note_on_c, 0, 58, 54
3, 7600, Note_on_c, 0, 63, 54
3, 7680, Note_on_c, 0, 63, 0
3, 7680, Note_on_c, 0, 58, 0
3, 7680, Note_on_c, 0, 55, 0
3, 7680, Note_on_c, 0, 22, 50
3, 7680, Note_on_c, 0, 34, 56
3, 7760, Note_on_c, 0, 34, 0
3, 7760, Note_on_c, 0, 22, 0
3, 7760, Note_on_c, 0, 41, 57
3, 7840, Note_on_c, 0, 41, 0
3, 7840, Note_on_c, 0, 46, 58
3, 7920, Note_on_c, 0, 46, 0
3, 7920, Note_on_c, 0, 50, 60
3, 8000, Note_on_c, 0, 50, 0
3, 8000, Note_on_c, 0, 52, 62
3, 8080, Note_on_c, 0, 52, 0
3, 8080, Note_on_c, 0, 53, 63
3, 8160, Note_on_c, 0, 53, 0
3, 8160, Note_on_c, 0, 62, 64
3, 8160, Note_on_c, 0, 58, 64
3, 8240, Note_on_c, 0, 58, 0
3, 8240, Note_on_c, 0, 62, 0
3, 8240, Note_on_c, 0, 55, 63
3, 8320, Note_on_c, 0, 55, 0
3, 8320, Note_on_c, 0, 53, 63
3, 8400, Note_on_c, 0, 53, 0
3, 8400, Note_on_c, 0, 50, 61
3, 8480, Note_on_c, 0, 50, 0
3, 8480, Note_on_c, 0, 46, 59
3, 8560, Note_on_c, 0, 46, 0
3, 8560, Note_on_c, 0, 41, 58
3, 8640, Note_on_c, 0, 41, 0
3, 8640, Note_on_c, 0, 34, 56
3, 8720, Note_on_c, 0, 34, 0
3, 8720, Note_on_c, 0, 41, 57
3, 8800, Note_on_c, 0, 41, 0
3, 8800, Note_on_c, 0, 46, 59
3, 8880, Note_on_c, 0, 46, 0
3, 8880, Note_on_c, 0, 50, 61
3, 8960, Note_on_c, 0, 50, 0
3, 8960, Note_on_c, 0, 52, 63
3, 9040, Note_on_c, 0, 52, 0
3, 9040, Note_on_c, 0, 53, 64
3, 9120, Note_on_c, 0, 53, 0
3, 9120, Note_on_c, 0, 62, 64
3, 9120, Note_on_c, 0, 58, 64
3, 9200, Note_on_c, 0, 58, 0
3, 9200, Note_on_c, 0, 62, 0
3, 9200, Note_on_c, 0, 53, 64
3, 9280, Note_on_c, 0, 53, 0
3, 9280, Note_on_c, 0, 50, 63
3, 9360, Note_on_c, 0, 50, 0
3, 9360, Note_on_c, 0, 46, 62
3, 9440, Note_on_c, 0, 46, 0
3, 9440, Note_on_c, 0, 41, 60
3, 9520, Note_on_c, 0, 41, 0
3, 9520, Note_on_c, 0, 34, 58
3, 9680, Note_on_c, 0, 34, 0
3, 9680, Note_on_c, 0, 41, 56
3, 9760, Note_on_c, 0, 41, 0
3, 9760, Note_on_c, 0, 46, 57
3, 9840, Note_on_c, 0, 46, 0
3, 9840, Note_on_c, 0, 50, 59
3, 9920, Note_on_c, 0, 50, 0
3, 9920, Note_on_c, 0, 52, 61
3, 10000, Note_on_c, 0, 52, 0
3, 10000, Note_on_c, 0, 53, 63
3, 10080, Note_on_c, 0, 53, 0
3, 10080, Note_on_c, 0, 62, 64
3, 10080, Note_on_c, 0, 58, 64
3, 10160, Note_on_c, 0, 58, 0
3, 10160, Note_on_c, 0, 62, 0
3, 10160, Note_on_c, 0, 55, 63
3, 10240, Note_on_c, 0, 55, 0
3, 10240, Note_on_c, 0, 53, 62
3, 10320, Note_on_c, 0, 53, 0
3, 10320, Note_on_c, 0, 50, 61
3, 10400, Note_on_c, 0, 50, 0
3, 10400, Note_on_c, 0, 46, 59
3, 10480, Note_on_c, 0, 46, 0
3, 10480, Note_on_c, 0, 41, 58
3, 10560, Note_on_c, 0, 41, 0
3, 10560, Note_on_c, 0, 34, 57
3, 10560, Note_on_c, 0, 41, 57
3, 10640, Note_on_c, 0, 41, 0
3, 10640, Note_on_c, 0, 34, 0
3, 10640, Note_on_c, 0, 46, 57
3, 10720, Note_on_c, 0, 46, 0
3, 10720, Note_on_c, 0, 50, 58
3, 10800, Note_on_c, 0, 50, 0
3, 10800, Note_on_c, 0, 53, 59
3, 10880, Note_on_c, 0, 53, 0
3, 10880, Note_on_c, 0, 46, 60
3, 10960, Note_on_c, 0, 46, 0
3, 10960, Note_on_c, 0, 50, 61
3, 11040, Note_on_c, 0, 50, 0
3, 11040, Note_on_c, 0, 53, 62
3, 11120, Note_on_c, 0, 53, 0
3, 11120, Note_on_c, 0, 58, 63
3, 11200, Note_on_c, 0, 58, 0
3, 11200, Note_on_c, 0, 62, 63
3, 11280, Note_on_c, 0, 62, 0
3, 11280, Note_on_c, 0, 65, 64
3, 11440, Note_on_c, 0, 65, 0
3, 11440, Note_on_c, 0, 55, 62
3, 11440, Note_on_c, 0, 58, 62
3, 11440, Note_on_c, 0, 62, 62
3, 11520, Note_on_c, 0, 62, 0
3, 11520, Note_on_c, 0, 58, 0
3, 11520, Note_on_c, 0, 55, 0
3, 11520, Note_on_c, 0, 38, 58
3, 11520, Note_on_c, 0, 45, 58
3, 11600, Note_on_c, 0, 45, 0
3, 11600, Note_on_c, 0, 38, 0
3, 11600, Note_on_c, 0, 50, 59
3, 11680, Note_on_c, 0, 50, 0
3, 11680, Note_on_c, 0, 53, 61
3, 11760, Note_on_c, 0, 53, 0
3, 11760, Note_on_c, 0, 57, 62
3, 11840, Note_on_c, 0, 57, 0
3, 11840, Note_on_c, 0, 56, 63
3, 11920, Note_on_c, 0, 56, 0
3, 11920, Note_on_c, 0, 57, 64
3, 12000, Note_on_c, 0, 57, 0
3, 12080, Note_on_c, 0, 65, 61
3, 12160, Note_on_c, 0, 65, 0
3, 12160, Note_on_c, 0, 62, 58
3, 12240, Note_on_c, 0, 62, 0
3, 12240, Note_on_c, 0, 53, 56
3, 12316, Note_on_c, 0, 53, 0
3, 12320, Note_on_c, 0, 53, 54
3, 12400, Note_on_c, 0, 53, 0
3, 12400, Note_on_c, 0, 50, 53
3, 12480, Note_on_c, 0, 50, 0
3, 12480, Note_on_c, 0, 41, 50
3, 12480, Note_on_c, 0, 48, 50
3, 12560, Note_on_c, 0, 48, 0
3, 12560, Note_on_c, 0, 41, 0
3, 12560, Note_on_c, 0, 53, 49
3, 12640, Note_on_c, 0, 53, 0
3, 12640, Note_on_c, 0, 57, 51
3, 12720, Note_on_c, 0, 57, 0
3, 12720, Note_on_c, 0, 60, 53
3, 12800, Note_on_c, 0, 60, 0
3, 12800, Note_on_c, 0, 59, 55
3, 12880, Note_on_c, 0, 59, 0
3, 12880, Note_on_c, 0, 60, 57
3, 12960, Note_on_c, 0, 60, 0
3, 13040, Note_on_c, 0, 60, 56
3, 13120, Note_on_c, 0, 60, 0
3, 13120, Note_on_c, 0, 57, 55
3, 13198, Note_on_c, 0, 57, 0
3, 13200, Note_on_c, 0, 53, 54
3, 13280, Note_on_c, 0, 53, 0
3, 13280, Note_on_c, 0, 48, 54
3, 13360, Note_on_c, 0, 48, 0
3, 13360, Note_on_c, 0, 46, 53
3, 13440, Note_on_c, 0, 46, 0
3, 13440, Note_on_c, 0, 38, 51
3, 13440, Note_on_c, 0, 45, 51
3, 13520, Note_on_c, 0, 45, 0
3, 13520, Note_on_c, 0, 38, 0
3, 13520, Note_on_c, 0, 50, 52
3, 13600, Note_on_c, 0, 50, 0
3, 13600, Note_on_c, 0, 53, 54
3, 13680, Note_on_c, 0, 53, 0
3, 13680, Note_on_c, 0, 57, 55
3, 13760, Note_on_c, 0, 57, 0
3, 13760, Note_on_c, 0, 56, 56
3, 13840, Note_on_c, 0, 56, 0
3, 13840, Note_on_c, 0, 57, 57
3, 13920, Note_on_c, 0, 57, 0
3, 14000, Note_on_c, 0, 65, 61
3, 14080, Note_on_c, 0, 65, 0
3, 14080, Note_on_c, 0, 62, 58
3, 14160, Note_on_c, 0, 62, 0
3, 14160, Note_on_c, 0, 53, 56
3, 14235, Note_on_c, 0, 53, 0
3, 14240, Note_on_c, 0, 53, 54
3, 14320, Note_on_c, 0, 53, 0
3, 14320, Note_on_c, 0, 50, 53
3, 14400, Note_on_c, 0, 50, 0
3, 14400, Note_on_c, 0, 41, 50
3, 14400, Note_on_c, 0, 48, 50
3, 14480, Note_on_c, 0, 48, 0
3, 14480, Note_on_c, 0, 41, 0
3, 14480, Note_on_c, 0, 53, 49
3, 14560, Note_on_c, 0, 53, 0
3, 14560, Note_on_c, 0, 57, 51
3, 14640, Note_on_c, 0, 57, 0
3, 14640, Note_on_c, 0, 60, 53
3, 14720, Note_on_c, 0, 60, 0
3, 14720, Note_on_c, 0, 59, 55
3, 14800, Note_on_c, 0, 59, 0
3, 14800, Note_on_c, 0, 60, 57
3, 14880, Note_on_c, 0, 60, 0
3, 14960, Note_on_c, 0, 60, 55
3, 15040, Note_on_c, 0, 60, 0
3, 15040, Note_on_c, 0, 57, 56
3, 15120, Note_on_c, 0, 57, 0
3, 15120, Note_on_c, 0, 53, 58
3, 15200, Note_on_c, 0, 53, 0
3, 15200, Note_on_c, 0, 48, 60
3, 15280, Note_on_c, 0, 48, 0
3, 15280, Note_on_c, 0, 36, 63
3, 15360, Note_on_c, 0, 36, 0
3, 15360, Note_on_c, 0, 48, 63
3, 15440, Note_on_c, 0, 48, 0
3, 15440, Note_on_c, 0, 56, 63
3, 15520, Note_on_c, 0, 56, 0
3, 15520, Note_on_c, 0, 59, 64
3, 15600, Note_on_c, 0, 59, 0
3, 15600, Note_on_c, 0, 62, 65
3, 15680, Note_on_c, 0, 62, 0
3, 15680, Note_on_c, 0, 64, 67
3, 15760, Note_on_c, 0, 64, 0
3, 15760, Note_on_c, 0, 65, 68
3, 15840, Note_on_c, 0, 65, 0
3, 15840, Note_on_c, 0, 55, 72
3, 15840, Note_on_c, 0, 58, 72
3, 15840, Note_on_c, 0, 64, 72
3, 16200, Note_on_c, 0, 64, 0
3, 16200, Note_on_c, 0, 58, 0
3, 16200, Note_on_c, 0, 55, 0
3, 16200, Note_on_c, 0, 29, 71
3, 16200, Note_on_c, 0, 41, 79
3, 16320, Note_on_c, 0, 41, 0
3, 16320, Note_on_c, 0, 29, 0
3, 16320, Note_on_c, 0, 51, 80
3, 16320, Note_on_c, 0, 57, 80
3, 16560, Note_on_c, 0, 57, 0
3, 16560, Note_on_c, 0, 51, 0
3, 16560, Note_on_c, 0, 41, 61
3, 16560, Note_on_c, 0, 48, 61
3, 16640, Note_on_c, 0, 48, 0
3, 16640, Note_on_c, 0, 41, 0
3, 16640, Note_on_c, 0, 51, 61
3, 16720, Note_on_c, 0, 51, 0
3, 16720, Note_on_c, 0, 55, 81
3, 16800, Note_on_c, 0, 55, 0
3, 16800, Note_on_c, 0, 51, 81
3, 17200, Note_on_c, 0, 51, 0
3, 17200, Note_on_c, 0, 50, 72
3, 17280, Note_on_c, 0, 50, 0
3, 17280, Note_on_c, 0, 46, 72
3, 17360, Note_on_c, 0, 46, 0
3, 17360, Note_on_c, 0, 45, 72
3, 17440, Note_on_c, 0, 45, 0
3, 17440, Note_on_c, 0, 43, 71
3, 17520, Note_on_c, 0, 43, 0
3, 17520, Note_on_c, 0, 41, 71
3, 18160, Note_on_c, 0, 41, 0
3, 18160, Note_on_c, 0, 29, 73
3, 18160, Note_on_c, 0, 41, 82
3, 18236, Note_on_c, 0, 41, 0
3, 18236, Note_on_c, 0, 29, 0
3, 18240, Note_on_c, 0, 22, 81
3, 18240, Note_on_c, 0, 34, 91
3, 18240, Control_c, 0, 91, 127
3, 18320, Note_on_c, 0, 34, 0
3, 18320, Note_on_c, 0, 22, 0
3, 18320, Note_on_c, 0, 41, 63
3, 18400, Note_on_c, 0, 41, 0
3, 18400, Note_on_c, 0, 46, 64
3, 18480, Note_on_c, 0, 46, 0
3, 18480, Note_on_c, 0, 50, 65
3, 18560, Note_on_c, 0, 50, 0
3, 18560, Note_on_c, 0, 52, 67
3, 18640, Note_on_c, 0, 52, 0
3, 18640, Note_on_c, 0, 53, 69
3, 18720, Note_on_c, 0, 53, 0
3, 18720, Note_on_c, 0, 62, 72
3, 18720, Note_on_c, 0, 58, 72
3, 18800, Note_on_c, 0, 58, 0
3, 18800, Note_on_c, 0, 62, 0
3, 18800, Note_on_c, 0, 55, 69
3, 18880, Note_on_c, 0, 55, 0
3, 18880, Note_on_c, 0, 53, 68
3, 18960, Note_on_c, 0, 53, 0
3, 18960, Note_on_c, 0, 50, 66
3, 19040, Note_on_c, 0, 50, 0
3, 19040, Note_on_c, 0, 46, 64
3, 19120, Note_on_c, 0, 46, 0
3, 19120, Note_on_c, 0, 41, 64
3, 19200, Note_on_c, 0, 41, 0
3, 19200, Note_on_c, 0, 34, 63
3, 19280, Note_on_c, 0, 34, 0
3, 19280, Note_on_c, 0, 41, 63
3, 19360, Note_on_c, 0, 41, 0
3, 19360, Note_on_c, 0, 46, 64
3, 19440, Note_on_c, 0, 46, 0
3, 19440, Note_on_c, 0, 50, 66
3, 19520, Note_on_c, 0, 50, 0
3, 19520, Note_on_c, 0, 52, 68
3, 19600, Note_on_c, 0, 52, 0
3, 19600, Note_on_c, 0, 53, 71
3, 19680, Note_on_c, 0, 53, 0
3, 19680, Note_on_c, 0, 62, 72
3, 19680, Note_on_c, 0, 58, 72
3, 19760, Note_on_c, 0, 58, 0
3, 19760, Note_on_c, 0, 62, 0
3, 19760, Note_on_c, 0, 53, 71
3, 19840, Note_on_c, 0, 53, 0
3, 19840, Note_on_c, 0, 50, 68
3, 19920, Note_on_c, 0, 50, 0
3, 19920, Note_on_c, 0, 46, 67
3, 20000, Note_on_c, 0, 46, 0
3, 20000, Note_on_c, 0, 41, 65
3, 20080, Note_on_c, 0, 41, 0
3, 20080, Note_on_c, 0, 34, 64
3, 20240, Note_on_c, 0, 34, 0
3, 20240, Note_on_c, 0, 41, 63
3, 20320, Note_on_c, 0, 41, 0
3, 20320, Note_on_c, 0, 46, 63
3, 20400, Note_on_c, 0, 46, 0
3, 20400, Note_on_c, 0, 50, 64
3, 20480, Note_on_c, 0, 50, 0
3, 20480, Note_on_c, 0, 52, 66
3, 20560, Note_on_c, 0, 52, 0
3, 20560, Note_on_c, 0, 53, 68
3, 20640, Note_on_c, 0, 53, 0
3, 20640, Note_on_c, 0, 62, 71
3, 20640, Note_on_c, 0, 58, 71
3, 20720, Note_on_c, 0, 58, 0
3, 20720, Note_on_c, 0, 62, 0
3, 20720, Note_on_c, 0, 55, 69
3, 20800, Note_on_c, 0, 55, 0
3, 20800, Note_on_c, 0, 53, 67
3, 20880, Note_on_c, 0, 53, 0
3, 20880, Note_on_c, 0, 50, 66
3, 20960, Note_on_c, 0, 50, 0
3, 20960, Note_on_c, 0, 46, 64
3, 21040, Note_on_c, 0, 46, 0
3, 21040, Note_on_c, 0, 41, 64
3, 21120, Note_on_c, 0, 41, 0
3, 21120, Note_on_c, 0, 34, 63
3, 21120, Note_on_c, 0, 41, 63
3, 21200, Note_on_c, 0, 41, 0
3, 21200, Note_on_c, 0, 34, 0
3, 21200, Note_on_c, 0, 46, 63
3, 21280, Note_on_c, 0, 46, 0
3, 21280, Note_on_c, 0, 50, 64
3, 21360, Note_on_c, 0, 50, 0
3, 21360, Note_on_c, 0, 53, 64
3, 21440, Note_on_c, 0, 53, 0
3, 21440, Note_on_c, 0, 46, 65
3, 21520, Note_on_c, 0, 46, 0
3, 21520, Note_on_c, 0, 50, 66
3, 21600, Note_on_c, 0, 50, 0
3, 21600, Note_on_c, 0, 53, 67
3, 21680, Note_on_c, 0, 53, 0
3, 21680, Note_on_c, 0, 58, 68
3, 21760, Note_on_c, 0, 58, 0
3, 21760, Note_on_c, 0, 62, 69
3, 21840, Note_on_c, 0, 62, 0
3, 21840, Note_on_c, 0, 65, 71
3, 22000, Note_on_c, 0, 65, 0
3, 22000, Note_on_c, 0, 55, 58
3, 22000, Note_on_c, 0, 58, 58
3, 22000, Note_on_c, 0, 63, 58
3, 22080, Note_on_c, 0, 63, 0
3, 22080, Note_on_c, 0, 58, 0
3, 22080, Note_on_c, 0, 55, 0
3, 22080, Note_on_c, 0, 22, 55
3, 22080, Note_on_c, 0, 34, 62
3, 22160, Note_on_c, 0, 34, 0
3, 22160, Note_on_c, 0, 22, 0
3, 22160, Note_on_c, 0, 41, 63
3, 22240, Note_on_c, 0, 41, 0
3, 22240, Note_on_c, 0, 46, 64
3, 22320, Note_on_c, 0, 46, 0
3, 22320, Note_on_c, 0, 50, 65
3, 22400, Note_on_c, 0, 50, 0
3, 22400, Note_on_c, 0, 52, 67
3, 22480, Note_on_c, 0, 52, 0
3, 22480, Note_on_c, 0, 53, 69
3, 22560, Note_on_c, 0, 53, 0
3, 22560, Note_on_c, 0, 62, 72
3, 22560, Note_on_c, 0, 58, 72
3, 22640, Note_on_c, 0, 58, 0
3, 22640, Note_on_c, 0, 62, 0
3, 22640, Note_on_c, 0, 55, 69
3, 22720, Note_on_c, 0, 55, 0
3, 22720, Note_on_c, 0, 53, 68
3, 22800, Note_on_c, 0, 53, 0
3, 22800, Note_on_c, 0, 50, 66
3, 22880, Note_on_c, 0, 50, 0
3, 22880, Note_on_c, 0, 46, 64
3, 22960, Note_on_c, 0, 46, 0
3, 22960, Note_on_c, 0, 41, 64
3, 23040, Note_on_c, 0, 41, 0
3, 23040, Note_on_c, 0, 34, 63
3, 23120, Note_on_c, 0, 34, 0
3, 23120, Note_on_c, 0, 41, 63
3, 23200, Note_on_c, 0, 41, 0
3, 23200, Note_on_c, 0, 46, 64
3, 23280, Note_on_c, 0, 46, 0
3, 23280, Note_on_c, 0, 50, 66
3, 23360, Note_on_c, 0, 50, 0
3, 23360, Note_on_c, 0, 52, 68
3, 23440, Note_on_c, 0, 52, 0
3, 23440, Note_on_c, 0, 53, 71
3, 23520, Note_on_c, 0, 53, 0
3, 23520, Note_on_c, 0, 62, 72
3, 23520, Note_on_c, 0, 58, 72
3, 23600, Note_on_c, 0, 58, 0
3, 23600, Note_on_c, 0, 62, 0
3, 23600, Note_on_c, 0, 53, 71
3, 23680, Note_on_c, 0, 53, 0
3, 23680, Note_on_c, 0, 50, 68
3, 23760, Note_on_c, 0, 50, 0
3, 23760, Note_on_c, 0, 46, 67
3, 23840, Note_on_c, 0, 46, 0
3, 23840, Note_on_c, 0, 41, 65
3, 23920, Note_on_c, 0, 41, 0
3, 23920, Note_on_c, 0, 34, 64
3, 24080, Note_on_c, 0, 34, 0
3, 24080, Note_on_c, 0, 41, 63
3, 24160, Note_on_c, 0, 41, 0
3, 24160, Note_on_c, 0, 46, 63
3, 24240, Note_on_c, 0, 46, 0
3, 24240, Note_on_c, 0, 50, 64
3, 24320, Note_on_c, 0, 50, 0
3, 24320, Note_on_c, 0, 52, 66
3, 24400, Note_on_c, 0, 52, 0
3, 24400, Note_on_c, 0, 53, 68
3, 24480, Note_on_c, 0, 53, 0
3, 24480, Note_on_c, 0, 62, 71
3, 24480, Note_on_c, 0, 58, 71
3, 24560, Note_on_c, 0, 58, 0
3, 24560, Note_on_c, 0, 62, 0
3, 24560, Note_on_c, 0, 55, 69
3, 24640, Note_on_c, 0, 55, 0
3, 24640, Note_on_c, 0, 53, 67
3, 24720, Note_on_c, 0, 53, 0
3, 24720, Note_on_c, 0, 50, 66
3, 24800, Note_on_c, 0, 50, 0
3, 24800, Note_on_c, 0, 46, 64
3, 24880, Note_on_c, 0, 46, 0
3, 24880, Note_on_c, 0, 41, 64
3, 24960, Note_on_c, 0, 41, 0
3, 24960, Note_on_c, 0, 34, 63
3, 24960, Note_on_c, 0, 41, 63
3, 25040, Note_on_c, 0, 41, 0
3, 25040, Note_on_c, 0, 34, 0
3, 25040, Note_on_c, 0, 46, 63
3, 25120, Note_on_c, 0, 46, 0
3, 25120, Note_on_c, 0, 50, 64
3, 25200, Note_on_c, 0, 50, 0
3, 25200, Note_on_c, 0, 53, 64
3, 25280, Note_on_c, 0, 53, 0
3, 25280, Note_on_c, 0, 46, 65
3, 25360, Note_on_c, 0, 46, 0
3, 25360, Note_on_c, 0, 50, 66
3, 25440, Note_on_c, 0, 50, 0
3, 25440, Note_on_c, 0, 53, 67
3, 25520, Note_on_c, 0, 53, 0
3, 25520, Note_on_c, 0, 58, 68
3, 25600, Note_on_c, 0, 58, 0
3, 25600, Note_on_c, 0, 62, 69
3, 25680, Note_on_c, 0, 62, 0
3, 25680, Note_on_c, 0, 65, 71
3, 25840, Note_on_c, 0, 65, 0
3, 25840, Note_on_c, 0, 55, 67
3, 25840, Note_on_c, 0, 58, 67
3, 25840, Note_on_c, 0, 62, 67
3, 25916, Note_on_c, 0, 62, 0
3, 25916, Note_on_c, 0, 58, 0
3, 25916, Note_on_c, 0, 55, 0
3, 25920, Note_on_c, 0, 38, 67
3, 25920, Note_on_c, 0, 45, 67
3, 26000, Note_on_c, 0, 45, 0
3, 26000, Note_on_c, 0, 38, 0
3, 26000, Note_on_c, 0, 50, 67
3, 26080, Note_on_c, 0, 50, 0
3, 26080, Note_on_c, 0, 53, 67
3, 26160, Note_on_c, 0, 53, 0
3, 26400, Note_on_c, 0, 38, 63
3, 26400, Note_on_c, 0, 45, 63
3, 26480, Note_on_c, 0, 45, 0
3, 26480, Note_on_c, 0, 38, 0
3, 26480, Note_on_c, 0, 50, 64
3, 26560, Note_on_c, 0, 50, 0
3, 26560, Note_on_c, 0, 53, 65
3, 26636, Note_on_c, 0, 53, 0
3, 26640, Note_on_c, 0, 53, 67
3, 26720, Note_on_c, 0, 53, 0
3, 26720, Note_on_c, 0, 57, 69
3, 26800, Note_on_c, 0, 57, 0
3, 26800, Note_on_c, 0, 49, 71
3, 26800, Note_on_c, 0, 58, 71
3, 26880, Note_on_c, 0, 58, 0
3, 26880, Note_on_c, 0, 49, 0
3, 26880, Note_on_c, 0, 48, 72
3, 26880, Note_on_c, 0, 57, 72
3, 27040, Note_on_c, 0, 57, 0
3, 27040, Note_on_c, 0, 48, 0
3, 27040, Note_on_c, 0, 41, 69
3, 27040, Note_on_c, 0, 48, 69
3, 27120, Note_on_c, 0, 48, 0
3, 27120, Note_on_c, 0, 41, 0
3, 27120, Note_on_c, 0, 57, 72
3, 27360, Note_on_c, 0, 57, 0
3, 27360, Note_on_c, 0, 41, 68
3, 27360, Note_on_c, 0, 48, 68
3, 27440, Note_on_c, 0, 48, 0
3, 27440, Note_on_c, 0, 41, 0
3, 27440, Note_on_c, 0, 53, 68
3, 27520, Note_on_c, 0, 53, 0
3, 27520, Note_on_c, 0, 57, 70
3, 27590, Note_on_c, 0, 57, 0
3, 27600, Note_on_c, 0, 57, 72
3, 27680, Note_on_c, 0, 57, 0
3, 27680, Note_on_c, 0, 60, 73
3, 27760, Note_on_c, 0, 60, 0
3, 27760, Note_on_c, 0, 54, 75
3, 27760, Note_on_c, 0, 63, 75
3, 27840, Note_on_c, 0, 63, 0
3, 27840, Note_on_c, 0, 54, 0
3, 27840, Note_on_c, 0, 62, 81
3, 27840, Note_on_c, 0, 58, 81
3, 27840, Note_on_c, 0, 55, 72
3, 28240, Note_on_c, 0, 55, 0
3, 28240, Note_on_c, 0, 58, 0
3, 28240, Note_on_c, 0, 62, 0
3, 28240, Note_on_c, 0, 57, 72
3, 28240, Note_on_c, 0, 60, 80
3, 28240, Note_on_c, 0, 66, 80
3, 28320, Note_on_c, 0, 66, 0
3, 28320, Note_on_c, 0, 60, 0
3, 28320, Note_on_c, 0, 57, 0
3, 28320, Note_on_c, 0, 67, 80
3, 28320, Note_on_c, 0, 62, 80
3, 28320, Note_on_c, 0, 58, 72
3, 28720, Note_on_c, 0, 58, 0
3, 28720, Note_on_c, 0, 62, 0
3, 28720, Note_on_c, 0, 67, 0
3, 28720, Note_on_c, 0, 48, 80
3, 28720, Note_on_c, 0, 51, 80
3, 28720, Note_on_c, 0, 57, 80
3, 28800, Note_on_c, 0, 57, 0
3, 28800, Note_on_c, 0, 51, 0
3, 28800, Note_on_c, 0, 48, 0
3, 28800, Note_on_c, 0, 50, 80
3, 28800, Note_on_c, 0, 53, 80
3, 28800, Note_on_c, 0, 58, 80
3, 28960, Note_on_c, 0, 58, 0
3, 28960, Note_on_c, 0, 53, 0
3, 28960, Note_on_c, 0, 50, 0
3, 28960, Note_on_c, 0, 41, 72
3, 28960, Note_on_c, 0, 53, 80
3, 29120, Note_on_c, 0, 53, 0
3, 29120, Note_on_c, 0, 41, 0
3, 29120, Note_on_c, 0, 42, 72
3, 29120, Note_on_c, 0, 54, 80
3, 29280, Note_on_c, 0, 54, 0
3, 29280, Note_on_c, 0, 42, 0
3, 29280, Note_on_c, 0, 43, 71
3, 29280, Note_on_c, 0, 55, 79
3, 29376, Note_on_c, 0, 55, 0
3, 29376, Note_on_c, 0, 43, 0
3, 29376, Note_on_c, 0, 57, 77
3, 29376, Note_on_c, 0, 45, 69
3, 29472, Note_on_c, 0, 45, 0
3, 29472, Note_on_c, 0, 57, 0
3, 29472, Note_on_c, 0, 50, 75
3, 29472, Note_on_c, 0, 38, 67
3, 29568, Note_on_c, 0, 38, 0
3, 29568, Note_on_c, 0, 50, 0
3, 29568, Note_on_c, 0, 58, 73
3, 29568, Note_on_c, 0, 46, 65
3, 29664, Note_on_c, 0, 46, 0
3, 29664, Note_on_c, 0, 58, 0
3, 29664, Note_on_c, 0, 51, 72
3, 29664, Note_on_c, 0, 39, 64
3, 29760, Note_on_c, 0, 39, 0
3, 29760, Note_on_c, 0, 51, 0
3, 29760, Note_on_c, 0, 41, 80
3, 29760, Note_on_c, 0, 53, 80
3, 29760, Control_c, 0, 91, 127
3, 30240, Note_on_c, 0, 53, 0
3, 30240, Note_on_c, 0, 41, 0
3, 30240, Note_on_c, 0, 63, 90
3, 30240, Note_on_c, 0, 53, 81
3, 30240, Note_on_c, 0, 57, 90
3, 30600, Note_on_c, 0, 57, 0
3, 30600, Note_on_c, 0, 53, 0
3, 30600, Note_on_c, 0, 63, 0
3, 30600, Note_on_c, 0, 22, 81
3, 30600, Note_on_c, 0, 34, 81
3, 30720, Note_on_c, 0, 34, 0
3, 30720, Note_on_c, 0, 22, 0
3, 30720, Note_on_c, 0, 53, 76
3, 30720, Note_on_c, 0, 50, 76
3, 30720, Note_on_c, 0, 46, 68
3, 30720, Note_on_c, 0, 41, 68
3, 30840, Note_on_c, 0, 34, 73
3, 30840, Note_on_c, 0, 41, 73
3, 30960, Note_on_c, 0, 41, 0
3, 30960, Note_on_c, 0, 34, 0
3, 30960, Note_on_c, 0, 46, 74
3, 31080, Note_on_c, 0, 46, 0
3, 31080, Note_on_c, 0, 50, 75
3, 31200, Note_on_c, 0, 50, 0
3, 31200, Note_on_c, 0, 53, 77
3, 31360, Note_on_c, 0, 53, 0
3, 31360, Note_on_c, 0, 58, 78
3, 31520, Note_on_c, 0, 58, 0
3, 31520, Note_on_c, 0, 62, 80
3, 31680, Note_on_c, 0, 62, 0
3, 31680, Note_on_c, 0, 65, 75
3, 31840, Note_on_c, 0, 65, 0
3, 31840, Note_on_c, 0, 62, 72
3, 32000, Note_on_c, 0, 62, 0
3, 32000, Note_on_c, 0, 58, 67
3, 32160, Note_on_c, 0, 58, 0
3, 32160, Note_on_c, 0, 53, 63
3, 32320, Note_on_c, 0, 53, 0
3, 32320, Note_on_c, 0, 50, 59
3, 32480, Note_on_c, 0, 50, 0
3, 32480, Note_on_c, 0, 46, 55
3, 32640, Note_on_c, 0, 46, 0
3, 32640, Note_on_c, 0, 41, 0
3, 32640, Note_on_c, 0, 53, 0
3, 32640, Note_on_c, 0, 50, 0
3, 32640, Note_on_c, 0, 46, 0
3, 32640, Note_on_c, 0, 34, 72
3, 32640, Note_on_c, 0, 41, 72
3, 32800, Note_on_c, 0, 41, 0
3, 32800, Note_on_c, 0, 34, 0
3, 32800, Note_on_c, 0, 46, 63
3, 32960, Note_on_c, 0, 46, 0
3, 32960, Note_on_c, 0, 50, 64
3, 33120, Note_on_c, 0, 50, 0
3, 33120, Note_on_c, 0, 53, 65
3, 33280, Note_on_c, 0, 53, 0
3, 33280, Note_on_c, 0, 58, 66
3, 33440, Note_on_c, 0, 58, 0
3, 33440, Note_on_c, 0, 62, 68
3, 33600, Note_on_c, 0, 62, 0
3, 33760, Note_on_c, 0, 50, 54
3, 33920, Note_on_c, 0, 50, 0
3, 33920, Note_on_c, 0, 46, 54
3, 34080, Note_on_c, 0, 46, 0
3, 34080, Note_on_c, 0, 53, 72
3, 34080, Note_on_c, 0, 41, 48
3, 34240, Note_on_c, 0, 41, 0
3, 34240, Note_on_c, 0, 34, 48
3, 34400, Note_on_c, 0, 34, 0
3, 34400, Note_on_c, 0, 41, 49
3, 34560, Note_on_c, 0, 41, 0
3, 34560, Note_on_c, 0, 53, 0
3, 34560, Note_on_c, 0, 46, 64
3, 34560, Note_on_c, 0, 54, 64
3, 34720, Note_on_c, 0, 34, 45
3, 34880, Note_on_c, 0, 34, 0
3, 34880, Note_on_c, 0, 46, 46
3, 35038, Note_on_c, 0, 54, 0
3, 35038, Note_on_c, 0, 46, 0
3, 35040, Note_on_c, 0, 46, 0
3, 35040, Note_on_c, 0, 54, 48
3, 35200, Note_on_c, 0, 54, 0
3, 35200, Note_on_c, 0, 61, 50
3, 35360, Note_on_c, 0, 61, 0
3, 35360, Note_on_c, 0, 66, 53
3, 35520, Note_on_c, 0, 66, 0
3, 35520, Note_on_c, 0, 61, 54
3, 35680, Note_on_c, 0, 61, 0
3, 35680, Note_on_c, 0, 54, 51
3, 35840, Note_on_c, 0, 54, 0
3, 35840, Note_on_c, 0, 46, 48
3, 36000, Note_on_c, 0, 46, 0
3, 36000, Note_on_c, 0, 56, 69
3, 36240, Note_on_c, 0, 56, 0
3, 36240, Note_on_c, 0, 58, 69
3, 36480, Note_on_c, 0, 53, 50
3, 36480, Note_on_c, 0, 61, 76
3, 36640, Note_on_c, 0, 34, 40
3, 36800, Note_on_c, 0, 34, 0
3, 36800, Note_on_c, 0, 46, 41
3, 36958, Note_on_c, 0, 53, 0
3, 36959, Note_on_c, 0, 58, 0
3, 36960, Note_on_c, 0, 46, 0
3, 36960, Note_on_c, 0, 53, 43
3, 37120, Note_on_c, 0, 53, 0
3, 37120, Note_on_c, 0, 58, 45
3, 37280, Note_on_c, 0, 58, 0
3, 37280, Note_on_c, 0, 60, 47
3, 37440, Note_on_c, 0, 60, 0
3, 37440, Note_on_c, 0, 61, 0
3, 37440, Note_on_c, 0, 61, 50
3, 37600, Note_on_c, 0, 61, 0
3, 37600, Note_on_c, 0, 58, 47
3, 37760, Note_on_c, 0, 58, 0
3, 37760, Note_on_c, 0, 46, 48
3, 37760, Note_on_c, 0, 53, 48
3, 37920, Note_on_c, 0, 53, 0
3, 37920, Note_on_c, 0, 46, 0
3, 37920, Note_on_c, 0, 63, 76
3, 38160, Note_on_c, 0, 63, 0
3, 38160, Note_on_c, 0, 58, 48
3, 38160, Note_on_c, 0, 65, 81
3, 38280, Note_on_c, 0, 51, 54
3, 38320, Note_on_c, 0, 58, 61
3, 38360, Note_on_c, 0, 61, 61
3, 38400, Note_on_c, 0, 65, 0
3, 38400, Note_on_c, 0, 58, 0
3, 38400, Note_on_c, 0, 66, 85
3, 38560, Note_on_c, 0, 39, 57
3, 38720, Note_on_c, 0, 39, 0
3, 38720, Note_on_c, 0, 46, 57
3, 38878, Note_on_c, 0, 61, 0
3, 38878, Note_on_c, 0, 58, 0
3, 38880, Note_on_c, 0, 46, 0
3, 38880, Note_on_c, 0, 54, 57
3, 39040, Note_on_c, 0, 54, 0
3, 39040, Note_on_c, 0, 58, 57
3, 39200, Note_on_c, 0, 58, 0
3, 39200, Note_on_c, 0, 61, 57
3, 39360, Note_on_c, 0, 61, 0
3, 39360, Note_on_c, 0, 51, 0
3, 39360, Note_on_c, 0, 60, 55
3, 39360, Note_on_c, 0, 56, 55
3, 39360, Note_on_c, 0, 54, 55
3, 39520, Note_on_c, 0, 54, 0
3, 39520, Note_on_c, 0, 56, 0
3, 39520, Note_on_c, 0, 60, 0
3, 39520, Note_on_c, 0, 44, 54
3, 39600, Note_on_c, 0, 68, 66
3, 39680, Note_on_c, 0, 44, 0
3, 39720, Note_on_c, 0, 54, 52
3, 39760, Note_on_c, 0, 60, 52
3, 39800, Note_on_c, 0, 63, 52
3, 39840, Note_on_c, 0, 68, 0
3, 39840, Note_on_c, 0, 66, 0
3, 39840, Note_on_c, 0, 70, 61
3, 40080, Note_on_c, 0, 70, 0
3, 40080, Note_on_c, 0, 72, 58
3, 40220, Note_on_c, 0, 37, 35
3, 40240, Note_on_c, 0, 44, 35
3, 40260, Note_on_c, 0, 53, 39
3, 40280, Note_on_c, 0, 56, 39
3, 40300, Note_on_c, 0, 65, 39
3, 40320, Note_on_c, 0, 72, 0
3, 40320, Note_on_c, 0, 63, 0
3, 40320, Note_on_c, 0, 60, 0
3, 40320, Note_on_c, 0, 54, 0
3, 40320, Note_on_c, 0, 73, 54
3, 40480, Note_on_c, 0, 44, 40
3, 40640, Note_on_c, 0, 44, 0
3, 40640, Note_on_c, 0, 53, 40
3, 40800, Note_on_c, 0, 53, 0
3, 40800, Note_on_c, 0, 61, 40
3, 40960, Note_on_c, 0, 61, 0
3, 40960, Note_on_c, 0, 65, 40
3, 41040, Note_on_c, 0, 44, 0
3, 41040, Note_on_c, 0, 56, 0
3, 41040, Note_on_c, 0, 53, 0
3, 41040, Note_on_c, 0, 37, 0
3, 41040, Note_on_c, 0, 65, 0
3, 41040, Note_on_c, 0, 73, 0
3, 41120, Note_on_c, 0, 65, 0
3, 41120, Note_on_c, 0, 72, 50
3, 41280, Note_on_c, 0, 72, 0
3, 41280, Note_on_c, 0, 61, 49
3, 41280, Note_on_c, 0, 70, 49
3, 41520, Note_on_c, 0, 70, 0
3, 41520, Note_on_c, 0, 68, 49
3, 41760, Note_on_c, 0, 68, 0
3, 41760, Note_on_c, 0, 65, 49
3, 42000, Note_on_c, 0, 65, 0
3, 42000, Note_on_c, 0, 61, 0
3, 42000, Note_on_c, 0, 55, 49
3, 42120, Note_on_c, 0, 37, 38
3, 42160, Note_on_c, 0, 44, 43
3, 42200, Note_on_c, 0, 52, 43
3, 42240, Note_on_c, 0, 55, 0
3, 42240, Note_on_c, 0, 56, 50
3, 42398, Note_on_c, 0, 37, 0
3, 42400, Note_on_c, 0, 37, 40
3, 42560, Note_on_c, 0, 37, 0
3, 42560, Note_on_c, 0, 44, 40
3, 42718, Note_on_c, 0, 56, 0
3, 42718, Note_on_c, 0, 52, 0
3, 42718, Note_on_c, 0, 44, 0
3, 42720, Note_on_c, 0, 44, 0
3, 42720, Note_on_c, 0, 52, 40
3, 42880, Note_on_c, 0, 52, 0
3, 42880, Note_on_c, 0, 56, 40
3, 43040, Note_on_c, 0, 56, 0
3, 43040, Note_on_c, 0, 64, 40
3, 43200, Note_on_c, 0, 64, 0
3, 43200, Note_on_c, 0, 58, 47
3, 43440, Note_on_c, 0, 58, 0
3, 43440, Note_on_c, 0, 59, 50
3, 43560, Note_on_c, 0, 39, 38
3, 43600, Note_on_c, 0, 49, 44
3, 43640, Note_on_c, 0, 55, 45
3, 43680, Note_on_c, 0, 59, 0
3, 43680, Note_on_c, 0, 61, 54
3, 43920, Note_on_c, 0, 61, 0
3, 43920, Note_on_c, 0, 63, 49
3, 44160, Note_on_c, 0, 63, 0
3, 44160, Note_on_c, 0, 39, 0
3, 44160, Note_on_c, 0, 49, 0
3, 44160, Note_on_c, 0, 55, 0
3, 44160, Note_on_c, 0, 44, 41
3, 44160, Note_on_c, 0, 51, 46
3, 44160, Note_on_c, 0, 59, 51
3, 44318, Note_on_c, 0, 44, 0
3, 44320, Note_on_c, 0, 32, 41
3, 44480, Note_on_c, 0, 32, 0
3, 44480, Note_on_c, 0, 44, 41
3, 44638, Note_on_c, 0, 59, 0
3, 44638, Note_on_c, 0, 51, 0
3, 44640, Note_on_c, 0, 44, 0
3, 44640, Note_on_c, 0, 51, 41
3, 44960, Note_on_c, 0, 51, 0
3, 44960, Note_on_c, 0, 44, 41
3, 45120, Note_on_c, 0, 44, 0
3, 45120, Note_on_c, 0, 59, 41
3, 45280, Note_on_c, 0, 59, 0
3, 45280, Note_on_c, 0, 51, 41
3, 45440, Note_on_c, 0, 51, 0
3, 45440, Note_on_c, 0, 44, 41
3, 45600, Note_on_c, 0, 44, 0
3, 45600, Note_on_c, 0, 62, 54
3, 45600, Note_on_c, 0, 56, 41
3, 45600, Note_on_c, 0, 51, 41
3, 45840, Note_on_c, 0, 62, 0
3, 45840, Note_on_c, 0, 63, 57
3, 46080, Note_on_c, 0, 63, 0
3, 46080, Note_on_c, 0, 51, 0
3, 46080, Note_on_c, 0, 56, 0
3, 46080, Note_on_c, 0, 59, 55
3, 46080, Note_on_c, 0, 56, 49
3, 46080, Note_on_c, 0, 65, 55
3, 46240, Note_on_c, 0, 44, 45
3, 46400, Note_on_c, 0, 44, 0
3, 46400, Note_on_c, 0, 53, 47
3, 46558, Note_on_c, 0, 59, 0
3, 46560, Note_on_c, 0, 53, 0
3, 46560, Note_on_c, 0, 59, 48
3, 46720, Note_on_c, 0, 59, 0
3, 46720, Note_on_c, 0, 53, 50
3, 46880, Note_on_c, 0, 53, 0
3, 46880, Note_on_c, 0, 59, 51
3, 47038, Note_on_c, 0, 56, 0
3, 47040, Note_on_c, 0, 59, 0
3, 47040, Note_on_c, 0, 56, 48
3, 47040, Note_on_c, 0, 62, 54
3, 47040, Note_on_c, 0, 58, 48
3, 47200, Note_on_c, 0, 58, 0
3, 47200, Note_on_c, 0, 65, 0
3, 47200, Note_on_c, 0, 56, 0
3, 47200, Note_on_c, 0, 62, 0
3, 47200, Note_on_c, 0, 46, 42
3, 47360, Note_on_c, 0, 46, 0
3, 47360, Note_on_c, 0, 66, 56
3, 47520, Note_on_c, 0, 66, 0
3, 47520, Note_on_c, 0, 68, 59
3, 47520, Note_on_c, 0, 62, 43
3, 47520, Note_on_c, 0, 58, 38
3, 47520, Note_on_c, 0, 56, 38
3, 47760, Note_on_c, 0, 68, 0
3, 47760, Note_on_c, 0, 70, 63
3, 47840, Note_on_c, 0, 39, 25
3, 47880, Note_on_c, 0, 46, 25
3, 47920, Note_on_c, 0, 54, 25
3, 47960, Note_on_c, 0, 58, 28
3, 48000, Note_on_c, 0, 70, 0
3, 48000, Note_on_c, 0, 62, 0
3, 48000, Note_on_c, 0, 56, 0
3, 48000, Note_on_c, 0, 58, 0
3, 48000, Note_on_c, 0, 66, 54
3, 48158, Note_on_c, 0, 39, 0
3, 48160, Note_on_c, 0, 27, 30
3, 48320, Note_on_c, 0, 27, 0
3, 48320, Note_on_c, 0, 39, 32
3, 48478, Note_on_c, 0, 58, 0
3, 48478, Note_on_c, 0, 54, 0
3, 48478, Note_on_c, 0, 46, 0
3, 48480, Note_on_c, 0, 39, 0
3, 48480, Note_on_c, 0, 46, 34
3, 48640, Note_on_c, 0, 46, 0
3, 48640, Note_on_c, 0, 54, 36
3, 48800, Note_on_c, 0, 54, 0
3, 48800, Note_on_c, 0, 58, 36
3, 48960, Note_on_c, 0, 58, 0
3, 48960, Note_on_c, 0, 66, 39
3, 49120, Note_on_c, 0, 66, 0
3, 49120, Note_on_c, 0, 58, 36
3, 49280, Note_on_c, 0, 58, 0
3, 49280, Note_on_c, 0, 54, 35
3, 49440, Note_on_c, 0, 54, 0
3, 49440, Note_on_c, 0, 46, 34
3, 49600, Note_on_c, 0, 46, 0
3, 49600, Note_on_c, 0, 39, 32
3, 49760, Note_on_c, 0, 39, 0
3, 49760, Note_on_c, 0, 46, 32
3, 49920, Note_on_c, 0, 46, 0
3, 49920, Note_on_c, 0, 66, 0
3, 49920, Control_c, 0, 91, 127
3, 49920, Note_on_c, 0, 59, 47
3, 50040, Note_on_c, 0, 47, 31
3, 50160, Note_on_c, 0, 47, 0
3, 50160, Note_on_c, 0, 39, 31
3, 50280, Note_on_c, 0, 39, 0
3, 50280, Note_on_c, 0, 59, 0
3, 50280, Note_on_c, 0, 57, 45
3, 50400, Note_on_c, 0, 57, 0
3, 50400, Note_on_c, 0, 56, 51
3, 50520, Note_on_c, 0, 47, 33
3, 50640, Note_on_c, 0, 47, 0
3, 50640, Note_on_c, 0, 40, 34
3, 50760, Note_on_c, 0, 40, 0
3, 50760, Note_on_c, 0, 47, 34
3, 50880, Note_on_c, 0, 47, 0
3, 50880, Note_on_c, 0, 56, 0
3, 50880, Note_on_c, 0, 63, 54
3, 51000, Note_on_c, 0, 59, 36
3, 51120, Note_on_c, 0, 59, 0
3, 51120, Note_on_c, 0, 56, 36
3, 51240, Note_on_c, 0, 56, 0
3, 51240, Note_on_c, 0, 51, 36
3, 51360, Note_on_c, 0, 51, 0
3, 51360, Note_on_c, 0, 63, 0
3, 51360, Note_on_c, 0, 61, 56
3, 51480, Note_on_c, 0, 52, 38
3, 51600, Note_on_c, 0, 52, 0
3, 51600, Note_on_c, 0, 42, 38
3, 51720, Note_on_c, 0, 42, 0
3, 51720, Note_on_c, 0, 61, 0
3, 51720, Note_on_c, 0, 59, 56
3, 51840, Note_on_c, 0, 59, 0
3, 51840, Note_on_c, 0, 58, 61
3, 51960, Note_on_c, 0, 51, 48
3, 52080, Note_on_c, 0, 51, 0
3, 52080, Note_on_c, 0, 43, 48
3, 52200, Note_on_c, 0, 43, 0
3, 52200, Note_on_c, 0, 51, 48
3, 52320, Note_on_c, 0, 51, 0
3, 52320, Note_on_c, 0, 58, 0
3, 52320, Note_on_c, 0, 59, 64
3, 52440, Note_on_c, 0, 51, 56
3, 52560, Note_on_c, 0, 51, 0
3, 52560, Note_on_c, 0, 44, 56
3, 52680, Note_on_c, 0, 44, 0
3, 52680, Note_on_c, 0, 51, 56
3, 52800, Note_on_c, 0, 51, 0
3, 52800, Note_on_c, 0, 59, 0
3, 52800, Note_on_c, 0, 66, 72
3, 52920, Note_on_c, 0, 63, 58
3, 53040, Note_on_c, 0, 63, 0
3, 53040, Note_on_c, 0, 59, 58
3, 53160, Note_on_c, 0, 59, 0
3, 53160, Note_on_c, 0, 54, 58
3, 53280, Note_on_c, 0, 54, 0
3, 53280, Note_on_c, 0, 46, 58
3, 53400, Note_on_c, 0, 46, 0
3, 53400, Note_on_c, 0, 54, 58
3, 53520, Note_on_c, 0, 54, 0
3, 53520, Note_on_c, 0, 66, 0
3, 53520, Note_on_c, 0, 65, 72
3, 53640, Note_on_c, 0, 65, 0
3, 53640, Note_on_c, 0, 63, 72
3, 53670, Note_on_c, 0, 47, 72
3, 53700, Note_on_c, 0, 54, 81
3, 53730, Note_on_c, 0, 57, 81
3, 53760, Note_on_c, 0, 63, 0
3, 53760, Note_on_c, 0, 63, 81
3, 53920, Note_on_c, 0, 63, 0
3, 53920, Note_on_c, 0, 57, 0
3, 53920, Note_on_c, 0, 54, 0
3, 53920, Note_on_c, 0, 47, 0
3, 53920, Note_on_c, 0, 71, 89
3, 54000, Note_on_c, 0, 71, 0
3, 54000, Note_on_c, 0, 66, 89
3, 54400, Note_on_c, 0, 66, 0
3, 54400, Note_on_c, 0, 63, 80
3, 54480, Note_on_c, 0, 63, 0
3, 54480, Note_on_c, 0, 59, 83
3, 54640, Note_on_c, 0, 59, 0
3, 54640, Note_on_c, 0, 54, 80
3, 54720, Note_on_c, 0, 54, 0
3, 54720, Note_on_c, 0, 47, 83
3, 54720, Note_on_c, 0, 51, 83
3, 54880, Note_on_c, 0, 51, 0
3, 54880, Note_on_c, 0, 47, 0
3, 54880, Note_on_c, 0, 70, 90
3, 54960, Note_on_c, 0, 70, 0
3, 54960, Note_on_c, 0, 66, 90
3, 55360, Note_on_c, 0, 66, 0
3, 55360, Note_on_c, 0, 63, 80
3, 55440, Note_on_c, 0, 63, 0
3, 55440, Note_on_c, 0, 58, 81
3, 55600, Note_on_c, 0, 58, 0
3, 55600, Note_on_c, 0, 54, 80
3, 55680, Note_on_c, 0, 54, 0
3, 55680, Note_on_c, 0, 49, 81
3, 55680, Note_on_c, 0, 52, 81
3, 55840, Note_on_c, 0, 52, 0
3, 55840, Note_on_c, 0, 49, 0
3, 55840, Note_on_c, 0, 70, 89
3, 55920, Note_on_c, 0, 70, 0
3, 55920, Note_on_c, 0, 66, 89
3, 56320, Note_on_c, 0, 66, 0
3, 56320, Note_on_c, 0, 52, 80
3, 56320, Note_on_c, 0, 64, 80
3, 56400, Note_on_c, 0, 64, 0
3, 56400, Note_on_c, 0, 52, 0
3, 56400, Note_on_c, 0, 49, 81
3, 56400, Note_on_c, 0, 61, 81
3, 56560, Note_on_c, 0, 61, 0
3, 56560, Note_on_c, 0, 49, 0
3, 56560, Note_on_c, 0, 46, 81
3, 56560, Note_on_c, 0, 58, 81
3, 56640, Note_on_c, 0, 58, 0
3, 56640, Note_on_c, 0, 46, 0
3, 56640, Note_on_c, 0, 42, 82
3, 56640, Note_on_c, 0, 54, 82
3, 56800, Note_on_c, 0, 54, 0
3, 56800, Note_on_c, 0, 42, 0
3, 56800, Note_on_c, 0, 40, 81
3, 56800, Note_on_c, 0, 52, 81
3, 56880, Note_on_c, 0, 52, 0
3, 56880, Note_on_c, 0, 40, 0
3, 56880, Note_on_c, 0, 37, 84
3, 56880, Note_on_c, 0, 49, 84
3, 57040, Note_on_c, 0, 49, 0
3, 57040, Note_on_c, 0, 37, 0
3, 57040, Note_on_c, 0, 34, 87
3, 57040, Note_on_c, 0, 46, 87
3, 57120, Note_on_c, 0, 46, 0
3, 57120, Note_on_c, 0, 34, 0
3, 57120, Note_on_c, 0, 30, 81
3, 57120, Note_on_c, 0, 42, 90
3, 57280, Note_on_c, 0, 42, 0
3, 57280, Note_on_c, 0, 30, 0
3, 57280, Note_on_c, 0, 28, 78
3, 57280, Note_on_c, 0, 40, 87
3, 57360, Note_on_c, 0, 40, 0
3, 57360, Note_on_c, 0, 28, 0
3, 57360, Note_on_c, 0, 25, 81
3, 57360, Note_on_c, 0, 37, 90
3, 57520, Note_on_c, 0, 37, 0
3, 57520, Note_on_c, 0, 25, 0
3, 57520, Note_on_c, 0, 24, 91
3, 57600, Note_on_c, 0, 24, 0
3, 57600, Note_on_c, 0, 36, 97
3, 57600, Control_c, 0, 91, 127
3, 57680, Note_on_c, 0, 36, 0
3, 57680, Note_on_c, 0, 55, 69
3, 57760, Note_on_c, 0, 55, 0
3, 57760, Note_on_c, 0, 58, 72
3, 57840, Note_on_c, 0, 58, 0
3, 57840, Note_on_c, 0, 64, 72
3, 57920, Note_on_c, 0, 64, 0
3, 57920, Note_on_c, 0, 65, 74
3, 58000, Note_on_c, 0, 65, 0
3, 58000, Note_on_c, 0, 67, 76
3, 58080, Note_on_c, 0, 67, 0
3, 58080, Note_on_c, 0, 64, 80
3, 58080, Note_on_c, 0, 58, 80
3, 58320, Note_on_c, 0, 58, 0
3, 58320, Note_on_c, 0, 64, 0
3, 58320, Note_on_c, 0, 57, 75
3, 58400, Note_on_c, 0, 57, 0
3, 58400, Note_on_c, 0, 55, 73
3, 58480, Note_on_c, 0, 55, 0
3, 58480, Note_on_c, 0, 48, 72
3, 58560, Note_on_c, 0, 48, 0
3, 58560, Note_on_c, 0, 55, 71
3, 58560, Note_on_c, 0, 58, 71
3, 58719, Note_on_c, 0, 58, 0
3, 58719, Note_on_c, 0, 55, 0
3, 58720, Note_on_c, 0, 55, 72
3, 58720, Note_on_c, 0, 58, 72
3, 58799, Note_on_c, 0, 58, 0
3, 58799, Note_on_c, 0, 55, 0
3, 58800, Note_on_c, 0, 53, 72
3, 58800, Note_on_c, 0, 58, 72
3, 58959, Note_on_c, 0, 58, 0
3, 58959, Note_on_c, 0, 53, 0
3, 58960, Note_on_c, 0, 52, 72
3, 58960, Note_on_c, 0, 58, 72
3, 59039, Note_on_c, 0, 58, 0
3, 59039, Note_on_c, 0, 52, 0
3, 59040, Note_on_c, 0, 48, 72
3, 59040, Note_on_c, 0, 58, 72
3, 59280, Note_on_c, 0, 58, 0
3, 59280, Note_on_c, 0, 48, 0
3, 59280, Note_on_c, 0, 50, 63
3, 59360, Note_on_c, 0, 50, 0
3, 59360, Note_on_c, 0, 48, 63
3, 59440, Note_on_c, 0, 48, 0
3, 59440, Note_on_c, 0, 43, 61
3, 59520, Note_on_c, 0, 43, 0
3, 59520, Note_on_c, 0, 36, 63
3, 59600, Note_on_c, 0, 36, 0
3, 59600, Note_on_c, 0, 43, 63
3, 59680, Note_on_c, 0, 43, 0
3, 59680, Note_on_c, 0, 48, 64
3, 59760, Note_on_c, 0, 48, 0
3, 59760, Note_on_c, 0, 52, 64
3, 59840, Note_on_c, 0, 52, 0
3, 59840, Note_on_c, 0, 53, 65
3, 59920, Note_on_c, 0, 53, 0
3, 59920, Note_on_c, 0, 55, 66
3, 60000, Note_on_c, 0, 55, 0
3, 60000, Note_on_c, 0, 46, 67
3, 60000, Note_on_c, 0, 52, 67
3, 60240, Note_on_c, 0, 52, 0
3, 60240, Note_on_c, 0, 46, 0
3, 60240, Note_on_c, 0, 45, 65
3, 60320, Note_on_c, 0, 45, 0
3, 60320, Note_on_c, 0, 43, 64
3, 60400, Note_on_c, 0, 43, 0
3, 60400, Note_on_c, 0, 36, 63
3, 60479, Note_on_c, 0, 36, 0
3, 60480, Note_on_c, 0, 43, 55
3, 60480, Note_on_c, 0, 46, 55
3, 60640, Note_on_c, 0, 46, 0
3, 60640, Note_on_c, 0, 43, 0
3, 60640, Note_on_c, 0, 43, 64
3, 60640, Note_on_c, 0, 46, 64
3, 60719, Note_on_c, 0, 46, 0
3, 60719, Note_on_c, 0, 43, 0
3, 60720, Note_on_c, 0, 41, 64
3, 60720, Note_on_c, 0, 46, 64
3, 60879, Note_on_c, 0, 46, 0
3, 60879, Note_on_c, 0, 41, 0
3, 60880, Note_on_c, 0, 40, 64
3, 60880, Note_on_c, 0, 46, 64
3, 60959, Note_on_c, 0, 46, 0
3, 60959, Note_on_c, 0, 40, 0
3, 60960, Note_on_c, 0, 36, 64
3, 60960, Note_on_c, 0, 46, 64
3, 61440, Note_on_c, 0, 46, 0
3, 61440, Note_on_c, 0, 36, 0
3, 61440, Note_on_c, 0, 29, 50
3, 61800, Note_on_c, 0, 29, 0
3, 61800, Note_on_c, 0, 43, 50
3, 61860, Note_on_c, 0, 43, 0
3, 61860, Note_on_c, 0, 38, 50
3, 61920, Note_on_c, 0, 38, 0
3, 61920, Note_on_c, 0, 39, 50
3, 61980, Note_on_c, 0, 39, 0
3, 61980, Note_on_c, 0, 36, 50
3, 62040, Note_on_c, 0, 36, 0
3, 62040, Note_on_c, 0, 38, 50
3, 62100, Note_on_c, 0, 38, 0
3, 62100, Note_on_c, 0, 31, 50
3, 62160, Note_on_c, 0, 31, 0
3, 62160, Note_on_c, 0, 33, 50
3, 62220, Note_on_c, 0, 33, 0
3, 62220, Note_on_c, 0, 29, 50
3, 62400, Note_on_c, 0, 29, 0
3, 62400, Note_on_c, 0, 51, 57
3, 62760, Note_on_c, 0, 51, 0
3, 62760, Note_on_c, 0, 48, 51
3, 62820, Note_on_c, 0, 48, 0
3, 62820, Note_on_c, 0, 43, 51
3, 62880, Note_on_c, 0, 43, 0
3, 62880, Note_on_c, 0, 45, 50
3, 62940, Note_on_c, 0, 45, 0
3, 62940, Note_on_c, 0, 41, 50
3, 63000, Note_on_c, 0, 41, 0
3, 63000, Note_on_c, 0, 43, 50
3, 63060, Note_on_c, 0, 43, 0
3, 63060, Note_on_c, 0, 38, 50
3, 63120, Note_on_c, 0, 38, 0
3, 63120, Note_on_c, 0, 39, 50
3, 63180, Note_on_c, 0, 39, 0
3, 63180, Note_on_c, 0, 36, 50
3, 63240, Note_on_c, 0, 36, 0
3, 63240, Note_on_c, 0, 29, 54
3, 63240, Note_on_c, 0, 41, 60
3, 63360, Note_on_c, 0, 41, 0
3, 63360, Note_on_c, 0, 29, 0
3, 63360, Note_on_c, 0, 51, 60
3, 63360, Note_on_c, 0, 55, 60
3, 63538, Note_on_c, 0, 55, 0
3, 63720, Note_on_c, 0, 51, 0
3, 63720, Note_on_c, 0, 55, 53
3, 63780, Note_on_c, 0, 55, 0
3, 63780, Note_on_c, 0, 50, 53
3, 63840, Note_on_c, 0, 50, 0
3, 63840, Note_on_c, 0, 51, 53
3, 63900, Note_on_c, 0, 51, 0
3, 63900, Note_on_c, 0, 48, 53
3, 63960, Note_on_c, 0, 48, 0
3, 63960, Note_on_c, 0, 50, 53
3, 64020, Note_on_c, 0, 50, 0
3, 64020, Note_on_c, 0, 43, 53
3, 64080, Note_on_c, 0, 43, 0
3, 64080, Note_on_c, 0, 45, 53
3, 64140, Note_on_c, 0, 45, 0
3, 64140, Note_on_c, 0, 41, 53
3, 64200, Note_on_c, 0, 41, 0
3, 64200, Note_on_c, 0, 51, 66
3, 64320, Note_on_c, 0, 51, 0
3, 64320, Note_on_c, 0, 63, 66
3, 64558, Note_on_c, 0, 63, 0
3, 64680, Note_on_c, 0, 60, 60
3, 64740, Note_on_c, 0, 60, 0
3, 64740, Note_on_c, 0, 55, 59
3, 64800, Note_on_c, 0, 55, 0
3, 64800, Note_on_c, 0, 57, 58
3, 64860, Note_on_c, 0, 57, 0
3, 64860, Note_on_c, 0, 53, 57
3, 64920, Note_on_c, 0, 53, 0
3, 64920, Note_on_c, 0, 55, 57
3, 64980, Note_on_c, 0, 55, 0
3, 64980, Note_on_c, 0, 50, 56
3, 65040, Note_on_c, 0, 50, 0
3, 65040, Note_on_c, 0, 51, 56
3, 65100, Note_on_c, 0, 51, 0
3, 65100, Note_on_c, 0, 48, 55
3, 65160, Note_on_c, 0, 48, 0
3, 65160, Note_on_c, 0, 60, 65
3, 65220, Note_on_c, 0, 60, 0
3, 65220, Note_on_c, 0, 55, 64
3, 65280, Note_on_c, 0, 55, 0
3, 65280, Note_on_c, 0, 57, 64
3, 65340, Note_on_c, 0, 57, 0
3, 65340, Note_on_c, 0, 53, 64
3, 65400, Note_on_c, 0, 53, 0
3, 65400, Note_on_c, 0, 55, 63
3, 65460, Note_on_c, 0, 55, 0
3, 65460, Note_on_c, 0, 50, 62
3, 65520, Note_on_c, 0, 50, 0
3, 65520, Note_on_c, 0, 51, 61
3, 65580, Note_on_c, 0, 51, 0
3, 65580, Note_on_c, 0, 48, 60
3, 65640, Note_on_c, 0, 48, 0
3, 65640, Note_on_c, 0, 67, 68
3, 65700, Note_on_c, 0, 67, 0
3, 65700, Note_on_c, 0, 62, 68
3, 65760, Note_on_c, 0, 62, 0
3, 65760, Note_on_c, 0, 63, 67
3, 65820, Note_on_c, 0, 63, 0
3, 65820, Note_on_c, 0, 60, 66
3, 65880, Note_on_c, 0, 60, 0
3, 65880, Note_on_c, 0, 62, 65
3, 65940, Note_on_c, 0, 62, 0
3, 65940, Note_on_c, 0, 55, 64
3, 66000, Note_on_c, 0, 55, 0
3, 66000, Note_on_c, 0, 57, 64
3, 66060, Note_on_c, 0, 57, 0
3, 66060, Note_on_c, 0, 53, 64
3, 66120, Note_on_c, 0, 53, 0
3, 66120, Note_on_c, 0, 72, 69
3, 66180, Note_on_c, 0, 72, 0
3, 66180, Note_on_c, 0, 67, 65
3, 66240, Note_on_c, 0, 67, 0
3, 66240, Note_on_c, 0, 69, 65
3, 66300, Note_on_c, 0, 69, 0
3, 66300, Note_on_c, 0, 63, 63
3, 66360, Note_on_c, 0, 63, 0
3, 66360, Note_on_c, 0, 72, 69
3, 66420, Note_on_c, 0, 72, 0
3, 66420, Note_on_c, 0, 67, 64
3, 66480, Note_on_c, 0, 67, 0
3, 66480, Note_on_c, 0, 69, 67
3, 66540, Note_on_c, 0, 69, 0
3, 66540, Note_on_c, 0, 63, 62
3, 66600, Note_on_c, 0, 63, 0
3, 66600, Note_on_c, 0, 72, 69
3, 66660, Note_on_c, 0, 72, 0
3, 66660, Note_on_c, 0, 67, 65
3, 66720, Note_on_c, 0, 67, 0
3, 66720, Note_on_c, 0, 69, 67
3, 66780, Note_on_c, 0, 69, 0
3, 66780, Note_on_c, 0, 63, 61
3, 66840, Note_on_c, 0, 63, 0
3, 66840, Note_on_c, 0, 72, 71
3, 66900, Note_on_c, 0, 72, 0
3, 66900, Note_on_c, 0, 67, 67
3, 66960, Note_on_c, 0, 67, 0
3, 66960, Note_on_c, 0, 69, 67
3, 67020, Note_on_c, 0, 69, 0
3, 67020, Note_on_c, 0, 63, 61
3, 67080, Note_on_c, 0, 63, 0
3, 68160, Note_on_c, 0, 22, 85
3, 68160, Note_on_c, 0, 34, 95
3, 68160, Control_c, 0, 91, 127
3, 68240, Note_on_c, 0, 34, 0
3, 68240, Note_on_c, 0, 22, 0
3, 68240, Note_on_c, 0, 41, 63
3, 68320, Note_on_c, 0, 41, 0
3, 68320, Note_on_c, 0, 46, 64
3, 68400, Note_on_c, 0, 46, 0
3, 68400, Note_on_c, 0, 50, 65
3, 68480, Note_on_c, 0, 50, 0
3, 68480, Note_on_c, 0, 52, 67
3, 68560, Note_on_c, 0, 52, 0
3, 68560, Note_on_c, 0, 53, 69
3, 68640, Note_on_c, 0, 53, 0
3, 68640, Note_on_c, 0, 62, 72
3, 68640, Note_on_c, 0, 58, 72
3, 68720, Note_on_c, 0, 58, 0
3, 68720, Note_on_c, 0, 62, 0
3, 68720, Note_on_c, 0, 55, 69
3, 68800, Note_on_c, 0, 55, 0
3, 68800, Note_on_c, 0, 53, 68
3, 68880, Note_on_c, 0, 53, 0
3, 68880, Note_on_c, 0, 50, 66
3, 68960, Note_on_c, 0, 50, 0
3, 68960, Note_on_c, 0, 46, 64
3, 69040, Note_on_c, 0, 46, 0
3, 69040, Note_on_c, 0, 41, 64
3, 69120, Note_on_c, 0, 41, 0
3, 69120, Note_on_c, 0, 34, 63
3, 69200, Note_on_c, 0, 34, 0
3, 69200, Note_on_c, 0, 41, 63
3, 69280, Note_on_c, 0, 41, 0
3, 69280, Note_on_c, 0, 46, 64
3, 69360, Note_on_c, 0, 46, 0
3, 69360, Note_on_c, 0, 50, 66
3, 69440, Note_on_c, 0, 50, 0
3, 69440, Note_on_c, 0, 52, 68
3, 69520, Note_on_c, 0, 52, 0
3, 69520, Note_on_c, 0, 53, 71
3, 69600, Note_on_c, 0, 53, 0
3, 69600, Note_on_c, 0, 62, 72
3, 69600, Note_on_c, 0, 58, 72
3, 69680, Note_on_c, 0, 58, 0
3, 69680, Note_on_c, 0, 62, 0
3, 69680, Note_on_c, 0, 53, 71
3, 69760, Note_on_c, 0, 53, 0
3, 69760, Note_on_c, 0, 50, 68
3, 69840, Note_on_c, 0, 50, 0
3, 69840, Note_on_c, 0, 46, 67
3, 69920, Note_on_c, 0, 46, 0
3, 69920, Note_on_c, 0, 41, 65
3, 70000, Note_on_c, 0, 41, 0
3, 70000, Note_on_c, 0, 34, 64
3, 70160, Note_on_c, 0, 34, 0
3, 70160, Note_on_c, 0, 41, 63
3, 70240, Note_on_c, 0, 41, 0
3, 70240, Note_on_c, 0, 46, 63
3, 70320, Note_on_c, 0, 46, 0
3, 70320, Note_on_c, 0, 50, 64
3, 70400, Note_on_c, 0, 50, 0
3, 70400, Note_on_c, 0, 52, 66
3, 70480, Note_on_c, 0, 52, 0
3, 70480, Note_on_c, 0, 53, 68
3, 70560, Note_on_c, 0, 53, 0
3, 70560, Note_on_c, 0, 62, 71
3, 70560, Note_on_c, 0, 58, 71
3, 70640, Note_on_c, 0, 58, 0
3, 70640, Note_on_c, 0, 62, 0
3, 70640, Note_on_c, 0, 55, 69
3, 70720, Note_on_c, 0, 55, 0
3, 70720, Note_on_c, 0, 53, 67
3, 70800, Note_on_c, 0, 53, 0
3, 70800, Note_on_c, 0, 50, 66
3, 70880, Note_on_c, 0, 50, 0
3, 70880, Note_on_c, 0, 46, 64
3, 70960, Note_on_c, 0, 46, 0
3, 70960, Note_on_c, 0, 41, 64
3, 71040, Note_on_c, 0, 41, 0
3, 71040, Note_on_c, 0, 34, 63
3, 71040, Note_on_c, 0, 41, 63
3, 71120, Note_on_c, 0, 41, 0
3, 71120, Note_on_c, 0, 34, 0
3, 71120, Note_on_c, 0, 46, 63
3, 71200, Note_on_c, 0, 46, 0
3, 71200, Note_on_c, 0, 50, 64
3, 71280, Note_on_c, 0, 50, 0
3, 71280, Note_on_c, 0, 53, 64
3, 71360, Note_on_c, 0, 53, 0
3, 71360, Note_on_c, 0, 46, 65
3, 71440, Note_on_c, 0, 46, 0
3, 71440, Note_on_c, 0, 50, 66
3, 71520, Note_on_c, 0, 50, 0
3, 71520, Note_on_c, 0, 53, 67
3, 71600, Note_on_c, 0, 53, 0
3, 71600, Note_on_c, 0, 58, 68
3, 71680, Note_on_c, 0, 58, 0
3, 71680, Note_on_c, 0, 62, 69
3, 71760, Note_on_c, 0, 62, 0
3, 71760, Note_on_c, 0, 65, 71
3, 71920, Note_on_c, 0, 65, 0
3, 71920, Note_on_c, 0, 55, 58
3, 71920, Note_on_c, 0, 58, 58
3, 71920, Note_on_c, 0, 63, 58
3, 72000, Note_on_c, 0, 63, 0
3, 72000, Note_on_c, 0, 58, 0
3, 72000, Note_on_c, 0, 55, 0
3, 72000, Note_on_c, 0, 22, 55
3, 72000, Note_on_c, 0, 34, 62
3, 72080, Note_on_c, 0, 34, 0
3, 72080, Note_on_c, 0, 22, 0
3, 72080, Note_on_c, 0, 41, 63
3, 72160, Note_on_c, 0, 41, 0
3, 72160, Note_on_c, 0, 46, 64
3, 72240, Note_on_c, 0, 46, 0
3, 72240, Note_on_c, 0, 50, 65
3, 72320, Note_on_c, 0, 50, 0
3, 72320, Note_on_c, 0, 52, 67
3, 72400, Note_on_c, 0, 52, 0
3, 72400, Note_on_c, 0, 53, 69
3, 72480, Note_on_c, 0, 53, 0
3, 72480, Note_on_c, 0, 62, 72
3, 72480, Note_on_c, 0, 58, 72
3, 72560, Note_on_c, 0, 58, 0
3, 72560, Note_on_c, 0, 62, 0
3, 72560, Note_on_c, 0, 55, 69
3, 72640, Note_on_c, 0, 55, 0
3, 72640, Note_on_c, 0, 53, 68
3, 72720, Note_on_c, 0, 53, 0
3, 72720, Note_on_c, 0, 50, 66
3, 72800, Note_on_c, 0, 50, 0
3, 72800, Note_on_c, 0, 46, 64
3, 72880, Note_on_c, 0, 46, 0
3, 72880, Note_on_c, 0, 41, 64
3, 72960, Note_on_c, 0, 41, 0
3, 72960, Note_on_c, 0, 34, 63
3, 73040, Note_on_c, 0, 34, 0
3, 73040, Note_on_c, 0, 41, 63
3, 73120, Note_on_c, 0, 41, 0
3, 73120, Note_on_c, 0, 46, 64
3, 73200, Note_on_c, 0, 46, 0
3, 73200, Note_on_c, 0, 50, 66
3, 73280, Note_on_c, 0, 50, 0
3, 73280, Note_on_c, 0, 52, 68
3, 73360, Note_on_c, 0, 52, 0
3, 73360, Note_on_c, 0, 53, 71
3, 73440, Note_on_c, 0, 53, 0
3, 73440, Note_on_c, 0, 62, 72
3, 73440, Note_on_c, 0, 58, 72
3, 73520, Note_on_c, 0, 58, 0
3, 73520, Note_on_c, 0, 62, 0
3, 73520, Note_on_c, 0, 53, 71
3, 73600, Note_on_c, 0, 53, 0
3, 73600, Note_on_c, 0, 50, 68
3, 73680, Note_on_c, 0, 50, 0
3, 73680, Note_on_c, 0, 46, 67
3, 73760, Note_on_c, 0, 46, 0
3, 73760, Note_on_c, 0, 41, 65
3, 73840, Note_on_c, 0, 41, 0
3, 73840, Note_on_c, 0, 34, 64
3, 74000, Note_on_c, 0, 34, 0
3, 74000, Note_on_c, 0, 41, 63
3, 74080, Note_on_c, 0, 41, 0
3, 74080, Note_on_c, 0, 46, 63
3, 74160, Note_on_c, 0, 46, 0
3, 74160, Note_on_c, 0, 50, 64
3, 74240, Note_on_c, 0, 50, 0
3, 74240, Note_on_c, 0, 52, 66
3, 74320, Note_on_c, 0, 52, 0
3, 74320, Note_on_c, 0, 53, 68
3, 74400, Note_on_c, 0, 53, 0
3, 74400, Note_on_c, 0, 62, 71
3, 74400, Note_on_c, 0, 58, 71
3, 74480, Note_on_c, 0, 58, 0
3, 74480, Note_on_c, 0, 62, 0
3, 74480, Note_on_c, 0, 55, 69
3, 74560, Note_on_c, 0, 55, 0
3, 74560, Note_on_c, 0, 53, 67
3, 74640, Note_on_c, 0, 53, 0
3, 74640, Note_on_c, 0, 50, 66
3, 74720, Note_on_c, 0, 50, 0
3, 74720, Note_on_c, 0, 46, 64
3, 74800, Note_on_c, 0, 46, 0
3, 74800, Note_on_c, 0, 41, 64
3, 74880, Note_on_c, 0, 41, 0
3, 74880, Note_on_c, 0, 34, 63
3, 74880, Note_on_c, 0, 41, 63
3, 74960, Note_on_c, 0, 41, 0
3, 74960, Note_on_c, 0, 34, 0
3, 74960, Note_on_c, 0, 46, 63
3, 75040, Note_on_c, 0, 46, 0
3, 75040, Note_on_c, 0, 50, 64
3, 75120, Note_on_c, 0, 50, 0
3, 75120, Note_on_c, 0, 53, 64
3, 75200, Note_on_c, 0, 53, 0
3, 75200, Note_on_c, 0, 46, 65
3, 75280, Note_on_c, 0, 46, 0
3, 75280, Note_on_c, 0, 50, 66
3, 75360, Note_on_c, 0, 50, 0
3, 75360, Note_on_c, 0, 53, 67
3, 75440, Note_on_c, 0, 53, 0
3, 75440, Note_on_c, 0, 58, 68
3, 75520, Note_on_c, 0, 58, 0
3, 75520, Note_on_c, 0, 62, 69
3, 75600, Note_on_c, 0, 62, 0
3, 75600, Note_on_c, 0, 65, 71
3, 75760, Note_on_c, 0, 65, 0
3, 75760, Note_on_c, 0, 55, 67
3, 75760, Note_on_c, 0, 58, 67
3, 75760, Note_on_c, 0, 62, 67
3, 75840, Note_on_c, 0, 62, 0
3, 75840, Note_on_c, 0, 58, 0
3, 75840, Note_on_c, 0, 55, 0
3, 75840, Note_on_c, 0, 38, 64
3, 75840, Note_on_c, 0, 45, 64
3, 75920, Note_on_c, 0, 45, 0
3, 75920, Note_on_c, 0, 38, 0
3, 75920, Note_on_c, 0, 50, 64
3, 76000, Note_on_c, 0, 50, 0
3, 76000, Note_on_c, 0, 53, 66
3, 76080, Note_on_c, 0, 53, 0
3, 76080, Note_on_c, 0, 57, 67
3, 76160, Note_on_c, 0, 57, 0
3, 76160, Note_on_c, 0, 56, 69
3, 76240, Note_on_c, 0, 56, 0
3, 76240, Note_on_c, 0, 57, 71
3, 76320, Note_on_c, 0, 57, 0
3, 76400, Note_on_c, 0, 65, 66
3, 76480, Note_on_c, 0, 65, 0
3, 76480, Note_on_c, 0, 62, 64
3, 76560, Note_on_c, 0, 62, 0
3, 76560, Note_on_c, 0, 53, 63
3, 76638, Note_on_c, 0, 53, 0
3, 76640, Note_on_c, 0, 53, 59
3, 76720, Note_on_c, 0, 53, 0
3, 76720, Note_on_c, 0, 50, 57
3, 76800, Note_on_c, 0, 50, 0
3, 76800, Note_on_c, 0, 41, 55
3, 76800, Note_on_c, 0, 48, 55
3, 76880, Note_on_c, 0, 48, 0
3, 76880, Note_on_c, 0, 41, 0
3, 76880, Note_on_c, 0, 53, 54
3, 76960, Note_on_c, 0, 53, 0
3, 76960, Note_on_c, 0, 57, 56
3, 77040, Note_on_c, 0, 57, 0
3, 77040, Note_on_c, 0, 60, 57
3, 77120, Note_on_c, 0, 60, 0
3, 77120, Note_on_c, 0, 59, 60
3, 77200, Note_on_c, 0, 59, 0
3, 77200, Note_on_c, 0, 60, 63
3, 77280, Note_on_c, 0, 60, 0
3, 77360, Note_on_c, 0, 60, 62
3, 77440, Note_on_c, 0, 60, 0
3, 77440, Note_on_c, 0, 57, 60
3, 77518, Note_on_c, 0, 57, 0
3, 77520, Note_on_c, 0, 53, 59
3, 77600, Note_on_c, 0, 53, 0
3, 77600, Note_on_c, 0, 48, 58
3, 77680, Note_on_c, 0, 48, 0
3, 77680, Note_on_c, 0, 46, 57
3, 77760, Note_on_c, 0, 46, 0
3, 77760, Note_on_c, 0, 38, 56
3, 77760, Note_on_c, 0, 45, 56
3, 77840, Note_on_c, 0, 45, 0
3, 77840, Note_on_c, 0, 38, 0
3, 77840, Note_on_c, 0, 50, 56
3, 77920, Note_on_c, 0, 50, 0
3, 77920, Note_on_c, 0, 53, 58
3, 78000, Note_on_c, 0, 53, 0
3, 78000, Note_on_c, 0, 57, 60
3, 78080, Note_on_c, 0, 57, 0
3, 78080, Note_on_c, 0, 56, 62
3, 78160, Note_on_c, 0, 56, 0
3, 78160, Note_on_c, 0, 57, 63
3, 78240, Note_on_c, 0, 57, 0
3, 78320, Note_on_c, 0, 65, 66
3, 78400, Note_on_c, 0, 65, 0
3, 78400, Note_on_c, 0, 62, 64
3, 78480, Note_on_c, 0, 62, 0
3, 78480, Note_on_c, 0, 53, 63
3, 78558, Note_on_c, 0, 53, 0
3, 78560, Note_on_c, 0, 53, 59
3, 78640, Note_on_c, 0, 53, 0
3, 78640, Note_on_c, 0, 50, 57
3, 78720, Note_on_c, 0, 50, 0
3, 78720, Note_on_c, 0, 41, 55
3, 78720, Note_on_c, 0, 48, 55
3, 78800, Note_on_c, 0, 48, 0
3, 78800, Note_on_c, 0, 41, 0
3, 78800, Note_on_c, 0, 53, 54
3, 78880, Note_on_c, 0, 53, 0
3, 78880, Note_on_c, 0, 57, 56
3, 78960, Note_on_c, 0, 57, 0
3, 78960, Note_on_c, 0, 60, 57
3, 79040, Note_on_c, 0, 60, 0
3, 79040, Note_on_c, 0, 59, 60
3, 79120, Note_on_c, 0, 59, 0
3, 79120, Note_on_c, 0, 60, 63
3, 79200, Note_on_c, 0, 60, 0
3, 79280, Note_on_c, 0, 60, 60
3, 79360, Note_on_c, 0, 60, 0
3, 79360, Note_on_c, 0, 57, 63
3, 79440, Note_on_c, 0, 57, 0
3, 79440, Note_on_c, 0, 53, 64
3, 79520, Note_on_c, 0, 53, 0
3, 79520, Note_on_c, 0, 48, 65
3, 79600, Note_on_c, 0, 48, 0
3, 79600, Note_on_c, 0, 36, 68
3, 79680, Note_on_c, 0, 36, 0
3, 79680, Note_on_c, 0, 48, 68
3, 79760, Note_on_c, 0, 48, 0
3, 79760, Note_on_c, 0, 56, 69
3, 79840, Note_on_c, 0, 56, 0
3, 79840, Note_on_c, 0, 59, 72
3, 79920, Note_on_c, 0, 59, 0
3, 79920, Note_on_c, 0, 62, 72
3, 80000, Note_on_c, 0, 62, 0
3, 80000, Note_on_c, 0, 64, 73
3, 80080, Note_on_c, 0, 64, 0
3, 80080, Note_on_c, 0, 65, 74
3, 80160, Note_on_c, 0, 65, 0
3, 80160, Note_on_c, 0, 55, 70
3, 80160, Note_on_c, 0, 58, 78
3, 80160, Note_on_c, 0, 64, 78
3, 80520, Note_on_c, 0, 64, 0
3, 80520, Note_on_c, 0, 58, 0
3, 80520, Note_on_c, 0, 55, 0
3, 80520, Note_on_c, 0, 29, 69
3, 80520, Note_on_c, 0, 41, 77
3, 80640, Note_on_c, 0, 41, 0
3, 80640, Note_on_c, 0, 29, 0
3, 80640, Note_on_c, 0, 51, 78
3, 80640, Note_on_c, 0, 57, 78
3, 80880, Note_on_c, 0, 57, 0
3, 80880, Note_on_c, 0, 51, 0
3, 80880, Note_on_c, 0, 41, 61
3, 80880, Note_on_c, 0, 48, 61
3, 80960, Note_on_c, 0, 48, 0
3, 80960, Note_on_c, 0, 41, 0
3, 80960, Note_on_c, 0, 51, 61
3, 81040, Note_on_c, 0, 51, 0
3, 81040, Note_on_c, 0, 55, 78
3, 81120, Note_on_c, 0, 55, 0
3, 81120, Note_on_c, 0, 51, 78
3, 81520, Note_on_c, 0, 51, 0
3, 81520, Note_on_c, 0, 50, 74
3, 81600, Note_on_c, 0, 50, 0
3, 81600, Note_on_c, 0, 46, 73
3, 81680, Note_on_c, 0, 46, 0
3, 81680, Note_on_c, 0, 45, 73
3, 81760, Note_on_c, 0, 45, 0
3, 81760, Note_on_c, 0, 43, 72
3, 81840, Note_on_c, 0, 43, 0
3, 81840, Note_on_c, 0, 41, 72
3, 82480, Note_on_c, 0, 41, 0
3, 82480, Note_on_c, 0, 29, 82
3, 82480, Note_on_c, 0, 41, 82
3, 82559, Note_on_c, 0, 41, 0
3, 82559, Note_on_c, 0, 29, 0
3, 82560, Note_on_c, 0, 22, 81
3, 82560, Note_on_c, 0, 34, 91
3, 82560, Control_c, 0, 91, 127
3, 82640, Note_on_c, 0, 34, 0
3, 82640, Note_on_c, 0, 22, 0
3, 82640, Note_on_c, 0, 41, 63
3, 82720, Note_on_c, 0, 41, 0
3, 82720, Note_on_c, 0, 46, 64
3, 82800, Note_on_c, 0, 46, 0
3, 82800, Note_on_c, 0, 50, 65
3, 82880, Note_on_c, 0, 50, 0
3, 82880, Note_on_c, 0, 52, 67
3, 82960, Note_on_c, 0, 52, 0
3, 82960, Note_on_c, 0, 53, 69
3, 83040, Note_on_c, 0, 53, 0
3, 83040, Note_on_c, 0, 62, 72
3, 83040, Note_on_c, 0, 58, 72
3, 83120, Note_on_c, 0, 58, 0
3, 83120, Note_on_c, 0, 62, 0
3, 83120, Note_on_c, 0, 55, 69
3, 83200, Note_on_c, 0, 55, 0
3, 83200, Note_on_c, 0, 53, 68
3, 83280, Note_on_c, 0, 53, 0
3, 83280, Note_on_c, 0, 50, 66
3, 83360, Note_on_c, 0, 50, 0
3, 83360, Note_on_c, 0, 46, 64
3, 83440, Note_on_c, 0, 46, 0
3, 83440, Note_on_c, 0, 41, 64
3, 83520, Note_on_c, 0, 41, 0
3, 83520, Note_on_c, 0, 34, 63
3, 83600, Note_on_c, 0, 34, 0
3, 83600, Note_on_c, 0, 41, 63
3, 83680, Note_on_c, 0, 41, 0
3, 83680, Note_on_c, 0, 46, 64
3, 83760, Note_on_c, 0, 46, 0
3, 83760, Note_on_c, 0, 50, 66
3, 83840, Note_on_c, 0, 50, 0
3, 83840, Note_on_c, 0, 52, 68
3, 83920, Note_on_c, 0, 52, 0
3, 83920, Note_on_c, 0, 53, 71
3, 84000, Note_on_c, 0, 53, 0
3, 84000, Note_on_c, 0, 62, 72
3, 84000, Note_on_c, 0, 58, 72
3, 84080, Note_on_c, 0, 58, 0
3, 84080, Note_on_c, 0, 62, 0
3, 84080, Note_on_c, 0, 53, 71
3, 84160, Note_on_c, 0, 53, 0
3, 84160, Note_on_c, 0, 50, 68
3, 84240, Note_on_c, 0, 50, 0
3, 84240, Note_on_c, 0, 46, 67
3, 84320, Note_on_c, 0, 46, 0
3, 84320, Note_on_c, 0, 41, 65
3, 84400, Note_on_c, 0, 41, 0
3, 84400, Note_on_c, 0, 34, 64
3, 84560, Note_on_c, 0, 34, 0
3, 84560, Note_on_c, 0, 41, 63
3, 84640, Note_on_c, 0, 41, 0
3, 84640, Note_on_c, 0, 46, 63
3, 84720, Note_on_c, 0, 46, 0
3, 84720, Note_on_c, 0, 50, 64
3, 84800, Note_on_c, 0, 50, 0
3, 84800, Note_on_c, 0, 52, 66
3, 84880, Note_on_c, 0, 52, 0
3, 84880, Note_on_c, 0, 53, 68
3, 84960, Note_on_c, 0, 53, 0
3, 84960, Note_on_c, 0, 62, 71
3, 84960, Note_on_c, 0, 58, 71
3, 85040, Note_on_c, 0, 58, 0
3, 85040, Note_on_c, 0, 62, 0
3, 85040, Note_on_c, 0, 55, 69
3, 85120, Note_on_c, 0, 55, 0
3, 85120, Note_on_c, 0, 53, 67
3, 85200, Note_on_c, 0, 53, 0
3, 85200, Note_on_c, 0, 50, 66
3, 85280, Note_on_c, 0, 50, 0
3, 85280, Note_on_c, 0, 46, 64
3, 85360, Note_on_c, 0, 46, 0
3, 85360, Note_on_c, 0, 41, 64
3, 85440, Note_on_c, 0, 41, 0
3, 85440, Note_on_c, 0, 34, 63
3, 85440, Note_on_c, 0, 41, 63
3, 85520, Note_on_c, 0, 41, 0
3, 85520, Note_on_c, 0, 34, 0
3, 85520, Note_on_c, 0, 46, 63
3, 85600, Note_on_c, 0, 46, 0
3, 85600, Note_on_c, 0, 50, 64
3, 85680, Note_on_c, 0, 50, 0
3, 85680, Note_on_c, 0, 53, 64
3, 85760, Note_on_c, 0, 53, 0
3, 85760, Note_on_c, 0, 46, 65
3, 85840, Note_on_c, 0, 46, 0
3, 85840, Note_on_c, 0, 50, 66
3, 85920, Note_on_c, 0, 50, 0
3, 85920, Note_on_c, 0, 53, 67
3, 86000, Note_on_c, 0, 53, 0
3, 86000, Note_on_c, 0, 58, 68
3, 86080, Note_on_c, 0, 58, 0
3, 86080, Note_on_c, 0, 62, 69
3, 86160, Note_on_c, 0, 62, 0
3, 86160, Note_on_c, 0, 65, 71
3, 86320, Note_on_c, 0, 65, 0
3, 86320, Note_on_c, 0, 55, 58
3, 86320, Note_on_c, 0, 58, 58
3, 86320, Note_on_c, 0, 63, 58
3, 86400, Note_on_c, 0, 63, 0
3, 86400, Note_on_c, 0, 58, 0
3, 86400, Note_on_c, 0, 55, 0
3, 86400, Note_on_c, 0, 22, 55
3, 86400, Note_on_c, 0, 34, 62
3, 86480, Note_on_c, 0, 34, 0
3, 86480, Note_on_c, 0, 22, 0
3, 86480, Note_on_c, 0, 41, 63
3, 86560, Note_on_c, 0, 41, 0
3, 86560, Note_on_c, 0, 46, 64
3, 86640, Note_on_c, 0, 46, 0
3, 86640, Note_on_c, 0, 50, 65
3, 86720, Note_on_c, 0, 50, 0
3, 86720, Note_on_c, 0, 52, 67
3, 86800, Note_on_c, 0, 52, 0
3, 86800, Note_on_c, 0, 53, 69
3, 86880, Note_on_c, 0, 53, 0
3, 86880, Note_on_c, 0, 62, 72
3, 86880, Note_on_c, 0, 58, 72
3, 86960, Note_on_c, 0, 58, 0
3, 86960, Note_on_c, 0, 62, 0
3, 86960, Note_on_c, 0, 55, 69
3, 87040, Note_on_c, 0, 55, 0
3, 87040, Note_on_c, 0, 53, 68
3, 87120, Note_on_c, 0, 53, 0
3, 87120, Note_on_c, 0, 50, 66
3, 87200, Note_on_c, 0, 50, 0
3, 87200, Note_on_c, 0, 46, 64
3, 87280, Note_on_c, 0, 46, 0
3, 87280, Note_on_c, 0, 41, 64
3, 87360, Note_on_c, 0, 41, 0
3, 87360, Note_on_c, 0, 34, 63
3, 87440, Note_on_c, 0, 34, 0
3, 87440, Note_on_c, 0, 41, 63
3, 87520, Note_on_c, 0, 41, 0
3, 87520, Note_on_c, 0, 46, 64
3, 87600, Note_on_c, 0, 46, 0
3, 87600, Note_on_c, 0, 50, 66
3, 87680, Note_on_c, 0, 50, 0
3, 87680, Note_on_c, 0, 52, 68
3, 87760, Note_on_c, 0, 52, 0
3, 87760, Note_on_c, 0, 53, 71
3, 87840, Note_on_c, 0, 53, 0
3, 87840, Note_on_c, 0, 62, 72
3, 87840, Note_on_c, 0, 58, 72
3, 87920, Note_on_c, 0, 58, 0
3, 87920, Note_on_c, 0, 62, 0
3, 87920, Note_on_c, 0, 53, 71
3, 88000, Note_on_c, 0, 53, 0
3, 88000, Note_on_c, 0, 50, 68
3, 88080, Note_on_c, 0, 50, 0
3, 88080, Note_on_c, 0, 46, 67
3, 88160, Note_on_c, 0, 46, 0
3, 88160, Note_on_c, 0, 41, 65
3, 88240, Note_on_c, 0, 41, 0
3, 88240, Note_on_c, 0, 34, 64
3, 88400, Note_on_c, 0, 34, 0
3, 88400, Note_on_c, 0, 41, 63
3, 88480, Note_on_c, 0, 41, 0
3, 88480, Note_on_c, 0, 46, 63
3, 88560, Note_on_c, 0, 46, 0
3, 88560, Note_on_c, 0, 50, 64
3, 88640, Note_on_c, 0, 50, 0
3, 88640, Note_on_c, 0, 52, 66
3, 88720, Note_on_c, 0, 52, 0
3, 88720, Note_on_c, 0, 53, 68
3, 88800, Note_on_c, 0, 53, 0
3, 88800, Note_on_c, 0, 62, 71
3, 88800, Note_on_c, 0, 58, 71
3, 88880, Note_on_c, 0, 58, 0
3, 88880, Note_on_c, 0, 62, 0
3, 88880, Note_on_c, 0, 55, 69
3, 88960, Note_on_c, 0, 55, 0
3, 88960, Note_on_c, 0, 53, 67
3, 89040, Note_on_c, 0, 53, 0
3, 89040, Note_on_c, 0, 50, 66
3, 89120, Note_on_c, 0, 50, 0
3, 89120, Note_on_c, 0, 46, 64
3, 89200, Note_on_c, 0, 46, 0
3, 89200, Note_on_c, 0, 41, 64
3, 89280, Note_on_c, 0, 41, 0
3, 89280, Note_on_c, 0, 34, 63
3, 89280, Note_on_c, 0, 41, 63
3, 89360, Note_on_c, 0, 41, 0
3, 89360, Note_on_c, 0, 34, 0
3, 89360, Note_on_c, 0, 46, 63
3, 89440, Note_on_c, 0, 46, 0
3, 89440, Note_on_c, 0, 50, 64
3, 89520, Note_on_c, 0, 50, 0
3, 89520, Note_on_c, 0, 53, 64
3, 89600, Note_on_c, 0, 53, 0
3, 89600, Note_on_c, 0, 46, 65
3, 89680, Note_on_c, 0, 46, 0
3, 89680, Note_on_c, 0, 50, 66
3, 89760, Note_on_c, 0, 50, 0
3, 89760, Note_on_c, 0, 53, 67
3, 89840, Note_on_c, 0, 53, 0
3, 89840, Note_on_c, 0, 58, 68
3, 89920, Note_on_c, 0, 58, 0
3, 89920, Note_on_c, 0, 62, 69
3, 90000, Note_on_c, 0, 62, 0
3, 90000, Note_on_c, 0, 65, 71
3, 90160, Note_on_c, 0, 65, 0
3, 90160, Note_on_c, 0, 55, 67
3, 90160, Note_on_c, 0, 58, 67
3, 90160, Note_on_c, 0, 62, 67
3, 90240, Note_on_c, 0, 62, 0
3, 90240, Note_on_c, 0, 58, 0
3, 90240, Note_on_c, 0, 55, 0
3, 90240, Note_on_c, 0, 38, 67
3, 90240, Note_on_c, 0, 45, 67
3, 90320, Note_on_c, 0, 45, 0
3, 90320, Note_on_c, 0, 38, 0
3, 90320, Note_on_c, 0, 50, 67
3, 90400, Note_on_c, 0, 50, 0
3, 90400, Note_on_c, 0, 53, 67
3, 90480, Note_on_c, 0, 53, 0
3, 90720, Note_on_c, 0, 38, 63
3, 90720, Note_on_c, 0, 45, 63
3, 90800, Note_on_c, 0, 45, 0
3, 90800, Note_on_c, 0, 38, 0
3, 90800, Note_on_c, 0, 50, 64
3, 90880, Note_on_c, 0, 50, 0
3, 90880, Note_on_c, 0, 53, 65
3, 90958, Note_on_c, 0, 53, 0
3, 90960, Note_on_c, 0, 53, 67
3, 91040, Note_on_c, 0, 53, 0
3, 91040, Note_on_c, 0, 57, 69
3, 91120, Note_on_c, 0, 57, 0
3, 91120, Note_on_c, 0, 49, 71
3, 91120, Note_on_c, 0, 58, 71
3, 91200, Note_on_c, 0, 58, 0
3, 91200, Note_on_c, 0, 49, 0
3, 91200, Note_on_c, 0, 48, 72
3, 91200, Note_on_c, 0, 57, 72
3, 91360, Note_on_c, 0, 57, 0
3, 91360, Note_on_c, 0, 48, 0
3, 91360, Note_on_c, 0, 41, 69
3, 91360, Note_on_c, 0, 48, 69
3, 91440, Note_on_c, 0, 48, 0
3, 91440, Note_on_c, 0, 41, 0
3, 91440, Note_on_c, 0, 57, 72
3, 91680, Note_on_c, 0, 57, 0
3, 91680, Note_on_c, 0, 41, 68
3, 91680, Note_on_c, 0, 48, 68
3, 91760, Note_on_c, 0, 48, 0
3, 91760, Note_on_c, 0, 41, 0
3, 91760, Note_on_c, 0, 53, 68
3, 91840, Note_on_c, 0, 53, 0
3, 91840, Note_on_c, 0, 57, 70
3, 91918, Note_on_c, 0, 57, 0
3, 91920, Note_on_c, 0, 57, 72
3, 92000, Note_on_c, 0, 57, 0
3, 92000, Note_on_c, 0, 60, 73
3, 92080, Note_on_c, 0, 60, 0
3, 92080, Note_on_c, 0, 54, 75
3, 92080, Note_on_c, 0, 63, 75
3, 92160, Note_on_c, 0, 63, 0
3, 92160, Note_on_c, 0, 54, 0
3, 92160, Note_on_c, 0, 62, 81
3, 92160, Note_on_c, 0, 58, 81
3, 92160, Note_on_c, 0, 55, 81
3, 92160, Control_c, 0, 91, 127
3, 92560, Note_on_c, 0, 55, 0
3, 92560, Note_on_c, 0, 58, 0
3, 92560, Note_on_c, 0, 62, 0
3, 92560, Note_on_c, 0, 57, 72
3, 92560, Note_on_c, 0, 60, 72
3, 92560, Note_on_c, 0, 66, 72
3, 92640, Note_on_c, 0, 66, 0
3, 92640, Note_on_c, 0, 60, 0
3, 92640, Note_on_c, 0, 57, 0
3, 92640, Note_on_c, 0, 67, 72
3, 92640, Note_on_c, 0, 62, 72
3, 92640, Note_on_c, 0, 58, 72
3, 93040, Note_on_c, 0, 58, 0
3, 93040, Note_on_c, 0, 62, 0
3, 93040, Note_on_c, 0, 67, 0
3, 93040, Note_on_c, 0, 48, 72
3, 93040, Note_on_c, 0, 51, 72
3, 93040, Note_on_c, 0, 57, 72
3, 93120, Note_on_c, 0, 57, 0
3, 93120, Note_on_c, 0, 51, 0
3, 93120, Note_on_c, 0, 48, 0
3, 93120, Note_on_c, 0, 50, 72
3, 93120, Note_on_c, 0, 53, 72
3, 93120, Note_on_c, 0, 58, 72
3, 93280, Note_on_c, 0, 58, 0
3, 93280, Note_on_c, 0, 53, 0
3, 93280, Note_on_c, 0, 50, 0
3, 93280, Note_on_c, 0, 42, 64
3, 93280, Note_on_c, 0, 54, 72
3, 93440, Note_on_c, 0, 54, 0
3, 93440, Note_on_c, 0, 42, 0
3, 93440, Note_on_c, 0, 43, 64
3, 93440, Note_on_c, 0, 55, 72
3, 93600, Note_on_c, 0, 55, 0
3, 93600, Note_on_c, 0, 43, 0
3, 93600, Note_on_c, 0, 36, 54
3, 93600, Note_on_c, 0, 48, 60
3, 93696, Note_on_c, 0, 48, 0
3, 93696, Note_on_c, 0, 36, 0
3, 93696, Note_on_c, 0, 50, 60
3, 93696, Note_on_c, 0, 38, 54
3, 93792, Note_on_c, 0, 38, 0
3, 93792, Note_on_c, 0, 50, 0
3, 93792, Note_on_c, 0, 54, 50
3, 93792, Note_on_c, 0, 42, 45
3, 93888, Note_on_c, 0, 42, 0
3, 93888, Note_on_c, 0, 54, 0
3, 93888, Note_on_c, 0, 55, 49
3, 93888, Note_on_c, 0, 43, 44
3, 93984, Note_on_c, 0, 43, 0
3, 93984, Note_on_c, 0, 55, 0
3, 93984, Note_on_c, 0, 57, 48
3, 93984, Note_on_c, 0, 45, 43
3, 94080, Note_on_c, 0, 45, 0
3, 94080, Note_on_c, 0, 57, 0
3, 94080, Note_on_c, 0, 46, 48
3, 94080, Note_on_c, 0, 58, 54
3, 94150, Note_on_c, 0, 58, 0
3, 94150, Note_on_c, 0, 46, 0
3, 94160, Note_on_c, 0, 43, 57
3, 94160, Note_on_c, 0, 55, 64
3, 94240, Note_on_c, 0, 55, 0
3, 94240, Note_on_c, 0, 43, 0
3, 94240, Note_on_c, 0, 45, 57
3, 94240, Note_on_c, 0, 57, 64
3, 94320, Note_on_c, 0, 57, 0
3, 94320, Note_on_c, 0, 45, 0
3, 94320, Note_on_c, 0, 38, 56
3, 94320, Note_on_c, 0, 50, 63
3, 94400, Note_on_c, 0, 50, 0
3, 94400, Note_on_c, 0, 38, 0
3, 94400, Note_on_c, 0, 46, 56
3, 94400, Note_on_c, 0, 58, 63
3, 94480, Note_on_c, 0, 58, 0
3, 94480, Note_on_c, 0, 46, 0
3, 94480, Note_on_c, 0, 39, 55
3, 94480, Note_on_c, 0, 51, 62
3, 94560, Note_on_c, 0, 51, 0
3, 94560, Note_on_c, 0, 39, 0
3, 94560, Note_on_c, 0, 41, 54
3, 94560, Note_on_c, 0, 53, 61
3, 94630, Note_on_c, 0, 53, 0
3, 94630, Note_on_c, 0, 41, 0
3, 94640, Note_on_c, 0, 42, 54
3, 94640, Note_on_c, 0, 54, 60
3, 94720, Note_on_c, 0, 54, 0
3, 94720, Note_on_c, 0, 42, 0
3, 94720, Note_on_c, 0, 43, 57
3, 94720, Note_on_c, 0, 55, 64
3, 94800, Note_on_c, 0, 55, 0
3, 94800, Note_on_c, 0, 43, 0
3, 94800, Note_on_c, 0, 50, 57
3, 94800, Note_on_c, 0, 62, 64
3, 94880, Note_on_c, 0, 62, 0
3, 94880, Note_on_c, 0, 50, 0
3, 94880, Note_on_c, 0, 51, 56
3, 94880, Note_on_c, 0, 63, 63
3, 94960, Note_on_c, 0, 63, 0
3, 94960, Note_on_c, 0, 51, 0
3, 94960, Note_on_c, 0, 45, 54
3, 94960, Note_on_c, 0, 57, 61
3, 95040, Note_on_c, 0, 57, 0
3, 95040, Note_on_c, 0, 45, 0
3, 95040, Note_on_c, 0, 46, 60
3, 95040, Note_on_c, 0, 58, 60
3, 95120, Note_on_c, 0, 58, 0
3, 95120, Note_on_c, 0, 46, 0
3, 95120, Note_on_c, 0, 42, 52
3, 95120, Note_on_c, 0, 54, 58
3, 95200, Note_on_c, 0, 54, 0
3, 95200, Note_on_c, 0, 42, 0
3, 95200, Note_on_c, 0, 43, 50
3, 95200, Note_on_c, 0, 55, 56
3, 95280, Note_on_c, 0, 55, 0
3, 95280, Note_on_c, 0, 43, 0
3, 95280, Note_on_c, 0, 45, 51
3, 95280, Note_on_c, 0, 57, 57
3, 95360, Note_on_c, 0, 57, 0
3, 95360, Note_on_c, 0, 45, 0
3, 95360, Note_on_c, 0, 38, 53
3, 95360, Note_on_c, 0, 50, 59
3, 95430, Note_on_c, 0, 50, 0
3, 95430, Note_on_c, 0, 38, 0
3, 95440, Note_on_c, 0, 43, 54
3, 95440, Note_on_c, 0, 55, 60
3, 95520, Note_on_c, 0, 55, 0
3, 95520, Note_on_c, 0, 43, 0
3, 95520, Note_on_c, 0, 36, 57
3, 95520, Note_on_c, 0, 48, 64
3, 95600, Note_on_c, 0, 48, 0
3, 95600, Note_on_c, 0, 36, 0
3, 95600, Note_on_c, 0, 41, 54
3, 95600, Note_on_c, 0, 53, 60
3, 95680, Note_on_c, 0, 53, 0
3, 95680, Note_on_c, 0, 41, 0
3, 95680, Note_on_c, 0, 35, 64
3, 95680, Note_on_c, 0, 47, 72
3, 95760, Note_on_c, 0, 47, 0
3, 95760, Note_on_c, 0, 35, 0
3, 95760, Note_on_c, 0, 36, 62
3, 95760, Note_on_c, 0, 48, 69
3, 95840, Note_on_c, 0, 48, 0
3, 95840, Note_on_c, 0, 36, 0
3, 95840, Note_on_c, 0, 39, 59
3, 95840, Note_on_c, 0, 51, 66
3, 95920, Note_on_c, 0, 51, 0
3, 95920, Note_on_c, 0, 39, 0
3, 95920, Note_on_c, 0, 40, 66
3, 95920, Note_on_c, 0, 52, 74
3, 96000, Note_on_c, 0, 52, 0
3, 96000, Note_on_c, 0, 40, 0
3, 96000, Note_on_c, 0, 41, 72
3, 96000, Note_on_c, 0, 53, 80
3, 96000, Control_c, 0, 91, 127
3, 96480, Note_on_c, 0, 53, 0
3, 96480, Note_on_c, 0, 41, 0
3, 96480, Note_on_c, 0, 57, 70
3, 96480, Note_on_c, 0, 48, 63
3, 96480, Note_on_c, 0, 51, 70
3, 96840, Note_on_c, 0, 51, 0
3, 96840, Note_on_c, 0, 48, 0
3, 96840, Note_on_c, 0, 57, 0
3, 96840, Note_on_c, 0, 22, 67
3, 96840, Note_on_c, 0, 34, 75
3, 96958, Note_on_c, 0, 34, 0
3, 96958, Note_on_c, 0, 22, 0
3, 96960, Note_on_c, 0, 41, 67
3, 96960, Note_on_c, 0, 46, 67
3, 96960, Note_on_c, 0, 50, 75
3, 96960, Note_on_c, 0, 53, 75
3, 97200, Note_on_c, 0, 53, 64
3, 97440, Note_on_c, 0, 53, 0
3, 97440, Note_on_c, 0, 58, 65
3, 97680, Note_on_c, 0, 58, 0
3, 97680, Note_on_c, 0, 62, 66
3, 97920, Note_on_c, 0, 62, 0
3, 97920, Note_on_c, 0, 50, 0
3, 97920, Note_on_c, 0, 41, 0
3, 97920, Note_on_c, 0, 46, 0
3, 97920, Note_on_c, 0, 53, 0
3, 97920, Note_on_c, 0, 65, 67
3, 98160, Note_on_c, 0, 65, 0
3, 98160, Note_on_c, 0, 70, 68
3, 98640, Note_on_c, 0, 70, 0
3, 98640, Note_on_c, 0, 63, 63
3, 98640, Note_on_c, 0, 66, 71
3, 98640, Note_on_c, 0, 72, 70
3, 98880, Note_on_c, 0, 72, 0
3, 98880, Note_on_c, 0, 66, 0
3, 98880, Note_on_c, 0, 63, 0
3, 98880, Note_on_c, 0, 58, 59
3, 98880, Note_on_c, 0, 65, 65
3, 98880, Note_on_c, 0, 74, 63
3, 99120, Note_on_c, 0, 74, 0
3, 99120, Note_on_c, 0, 65, 0
3, 99120, Note_on_c, 0, 58, 0
3, 99120, Note_on_c, 0, 34, 41
3, 99120, Note_on_c, 0, 41, 41
3, 99120, Note_on_c, 0, 50, 49
3, 99360, Note_on_c, 0, 50, 0
3, 99360, Note_on_c, 0, 41, 0
3, 99360, Note_on_c, 0, 34, 0
3, 99360, Note_on_c, 0, 53, 54
3, 99600, Note_on_c, 0, 53, 0
3, 99600, Note_on_c, 0, 58, 50
3, 99840, Note_on_c, 0, 58, 0
3, 99840, Note_on_c, 0, 62, 54
3, 100080, Note_on_c, 0, 62, 0
3, 100080, Note_on_c, 0, 65, 50
3, 100560, Note_on_c, 0, 65, 0
3, 100560, Note_on_c, 0, 54, 50
3, 100560, Note_on_c, 0, 60, 50
3, 100560, Note_on_c, 0, 63, 56
3, 100560, Note_on_c, 0, 69, 55
3, 100680, Note_on_c, 0, 53, 42
3, 100740, Note_on_c, 0, 62, 47
3, 100800, Note_on_c, 0, 69, 0
3, 100800, Note_on_c, 0, 63, 0
3, 100800, Note_on_c, 0, 54, 0
3, 100800, Note_on_c, 0, 60, 0
3, 100800, Note_on_c, 0, 70, 46
3, 101040, Note_on_c, 0, 70, 0
3, 101040, Note_on_c, 0, 62, 0
3, 101040, Note_on_c, 0, 53, 0
3, 101040, Note_on_c, 0, 34, 45
3, 101040, Note_on_c, 0, 41, 44
3, 101280, Note_on_c, 0, 41, 0
3, 101280, Note_on_c, 0, 34, 0
3, 101280, Note_on_c, 0, 46, 44
3, 101520, Note_on_c, 0, 46, 0
3, 101520, Note_on_c, 0, 50, 44
3, 101760, Note_on_c, 0, 50, 0
3, 101760, Note_on_c, 0, 53, 45
3, 102000, Note_on_c, 0, 53, 0
3, 102000, Note_on_c, 0, 58, 40
3, 102480, Note_on_c, 0, 58, 0
3, 102480, Note_on_c, 0, 51, 44
3, 102480, Note_on_c, 0, 54, 44
3, 102480, Note_on_c, 0, 60, 43
3, 102600, Note_on_c, 0, 46, 39
3, 102660, Note_on_c, 0, 53, 39
3, 102720, Note_on_c, 0, 60, 0
3, 102720, Note_on_c, 0, 51, 0
3, 102720, Note_on_c, 0, 54, 0
3, 102720, Note_on_c, 0, 62, 37
3, 102960, Note_on_c, 0, 62, 0
3, 102960, Note_on_c, 0, 46, 0
3, 102960, Note_on_c, 0, 53, 0
3, 102960, Note_on_c, 0, 34, 37
3, 103200, Note_on_c, 0, 34, 0
3, 103200, Note_on_c, 0, 50, 31
3, 103200, Note_on_c, 0, 41, 32
3, 103440, Note_on_c, 0, 41, 0
3, 103440, Note_on_c, 0, 50, 0
3, 103440, Note_on_c, 0, 48, 32
3, 103440, Note_on_c, 0, 51, 32
3, 103440, Note_on_c, 0, 57, 35
3, 103680, Note_on_c, 0, 57, 0
3, 103680, Note_on_c, 0, 51, 0
3, 103680, Note_on_c, 0, 48, 0
3, 103680, Note_on_c, 0, 41, 28
3, 103680, Note_on_c, 0, 50, 32
3, 103680, Note_on_c, 0, 58, 35
3, 103920, Note_on_c, 0, 58, 0
3, 103920, Note_on_c, 0, 50, 0
3, 103920, Note_on_c, 0, 41, 0
3, 103920, Note_on_c, 0, 34, 36
3, 104160, Note_on_c, 0, 34, 0
3, 104160, Note_on_c, 0, 50, 31
3, 104160, Note_on_c, 0, 41, 32
3, 104400, Note_on_c, 0, 41, 0
3, 104400, Note_on_c, 0, 50, 0
3, 104400, Note_on_c, 0, 51, 32
3, 104400, Note_on_c, 0, 54, 35
3, 104640, Note_on_c, 0, 54, 0
3, 104640, Note_on_c, 0, 51, 0
3, 104640, Note_on_c, 0, 46, 32
3, 104640, Note_on_c, 0, 53, 35
3, 104640, Control_c, 0, 91, 127
3, 104880, Note_on_c, 0, 53, 0
3, 104880, Note_on_c, 0, 46, 0
3, 104880, Note_on_c, 0, 34, 31
3, 104880, Note_on_c, 0, 41, 31
3, 104960, Note_on_c, 0, 41, 0
3, 104960, Note_on_c, 0, 34, 0
3, 104960, Note_on_c, 0, 46, 32
3, 105040, Note_on_c, 0, 46, 0
3, 105040, Note_on_c, 0, 50, 32
3, 105120, Note_on_c, 0, 50, 0
3, 105120, Note_on_c, 0, 53, 33
3, 105200, Note_on_c, 0, 53, 0
3, 105200, Note_on_c, 0, 50, 35
3, 105280, Note_on_c, 0, 50, 0
3, 105280, Note_on_c, 0, 46, 36
3, 105360, Note_on_c, 0, 46, 0
3, 105360, Note_on_c, 0, 50, 36
3, 105440, Note_on_c, 0, 50, 0
3, 105440, Note_on_c, 0, 46, 38
3, 105520, Note_on_c, 0, 46, 0
3, 105520, Note_on_c, 0, 41, 39
3, 105600, Note_on_c, 0, 41, 0
3, 105600, Note_on_c, 0, 34, 40
3, 105680, Note_on_c, 0, 34, 0
3, 105680, Note_on_c, 0, 41, 40
3, 105760, Note_on_c, 0, 41, 0
3, 105760, Note_on_c, 0, 46, 42
3, 105840, Note_on_c, 0, 46, 0
3, 105840, Note_on_c, 0, 50, 43
3, 105920, Note_on_c, 0, 50, 0
3, 105920, Note_on_c, 0, 49, 44
3, 106000, Note_on_c, 0, 49, 0
3, 106000, Note_on_c, 0, 50, 45
3, 106080, Note_on_c, 0, 50, 0
3, 106080, Note_on_c, 0, 53, 46
3, 106160, Note_on_c, 0, 53, 0
3, 106160, Note_on_c, 0, 50, 47
3, 106240, Note_on_c, 0, 50, 0
3, 106240, Note_on_c, 0, 46, 48
3, 106320, Note_on_c, 0, 46, 0
3, 106320, Note_on_c, 0, 50, 49
3, 106400, Note_on_c, 0, 50, 0
3, 106400, Note_on_c, 0, 46, 50
3, 106480, Note_on_c, 0, 46, 0
3, 106480, Note_on_c, 0, 41, 51
3, 106560, Note_on_c, 0, 41, 0
3, 106560, Note_on_c, 0, 34, 53
3, 106640, Note_on_c, 0, 34, 0
3, 106640, Note_on_c, 0, 41, 54
3, 106720, Note_on_c, 0, 41, 0
3, 106720, Note_on_c, 0, 46, 54
3, 106800, Note_on_c, 0, 46, 0
3, 106800, Note_on_c, 0, 50, 56
3, 106880, Note_on_c, 0, 50, 0
3, 106880, Note_on_c, 0, 49, 56
3, 106960, Note_on_c, 0, 49, 0
3, 106960, Note_on_c, 0, 50, 57
3, 107040, Note_on_c, 0, 50, 0
3, 107040, Note_on_c, 0, 58, 58
3, 107120, Note_on_c, 0, 58, 0
3, 107120, Note_on_c, 0, 50, 60
3, 107200, Note_on_c, 0, 50, 0
3, 107200, Note_on_c, 0, 46, 61
3, 107280, Note_on_c, 0, 46, 0
3, 107280, Note_on_c, 0, 50, 62
3, 107360, Note_on_c, 0, 50, 0
3, 107360, Note_on_c, 0, 46, 63
3, 107440, Note_on_c, 0, 46, 0
3, 107440, Note_on_c, 0, 41, 64
3, 107520, Note_on_c, 0, 41, 0
3, 107520, Note_on_c, 0, 34, 64
3, 107600, Note_on_c, 0, 34, 0
3, 107600, Note_on_c, 0, 41, 65
3, 107680, Note_on_c, 0, 41, 0
3, 107680, Note_on_c, 0, 46, 67
3, 107760, Note_on_c, 0, 46, 0
3, 107760, Note_on_c, 0, 50, 68
3, 107840, Note_on_c, 0, 50, 0
3, 107840, Note_on_c, 0, 53, 69
3, 107920, Note_on_c, 0, 53, 0
3, 108000, Note_on_c, 0, 40, 72
3, 108080, Note_on_c, 0, 40, 0
3, 108080, Note_on_c, 0, 46, 72
3, 108160, Note_on_c, 0, 46, 0
3, 108160, Note_on_c, 0, 50, 72
3, 108240, Note_on_c, 0, 50, 0
3, 108240, Note_on_c, 0, 55, 74
3, 108320, Note_on_c, 0, 55, 0
3, 108320, Note_on_c, 0, 58, 75
3, 108400, Note_on_c, 0, 58, 0
3, 108400, Note_on_c, 0, 50, 79
3, 108400, Note_on_c, 0, 46, 71
3, 108400, Note_on_c, 0, 41, 73
3, 108400, Note_on_c, 0, 53, 79
3, 108479, Note_on_c, 0, 53, 0
3, 108479, Note_on_c, 0, 50, 0
3, 108479, Note_on_c, 0, 46, 0
3, 108479, Note_on_c, 0, 41, 0
3, 108480, Note_on_c, 0, 65, 79
3, 108480, Note_on_c, 0, 62, 79
3, 108480, Note_on_c, 0, 58, 71
3, 108480, Note_on_c, 0, 53, 71
3, 108588, Note_on_c, 0, 53, 0
3, 108588, Note_on_c, 0, 65, 0
3, 108588, Note_on_c, 0, 62, 0
3, 108588, Note_on_c, 0, 58, 0
3, 108600, Note_on_c, 0, 70, 74
3, 108600, Note_on_c, 0, 62, 66
3, 108600, Note_on_c, 0, 58, 66
3, 108720, Note_on_c, 0, 58, 0
3, 108720, Note_on_c, 0, 62, 0
3, 108720, Note_on_c, 0, 70, 0
3, 108720, Note_on_c, 0, 65, 70
3, 108720, Note_on_c, 0, 62, 70
3, 108720, Note_on_c, 0, 58, 63
3, 108720, Note_on_c, 0, 53, 63
3, 108840, Note_on_c, 0, 53, 0
3, 108840, Note_on_c, 0, 65, 0
3, 108840, Note_on_c, 0, 62, 0
3, 108840, Note_on_c, 0, 58, 0
3, 108840, Note_on_c, 0, 67, 72
3, 108840, Note_on_c, 0, 55, 64
3, 108960, Note_on_c, 0, 55, 0
3, 108960, Note_on_c, 0, 67, 0
3, 108960, Note_on_c, 0, 62, 70
3, 108960, Note_on_c, 0, 50, 63
3, 109068, Note_on_c, 0, 50, 0
3, 109068, Note_on_c, 0, 62, 0
3, 109080, Note_on_c, 0, 65, 75
3, 109080, Note_on_c, 0, 53, 67
3, 109200, Note_on_c, 0, 53, 0
3, 109200, Note_on_c, 0, 65, 0
3, 109200, Note_on_c, 0, 58, 72
3, 109200, Note_on_c, 0, 46, 64
3, 109320, Note_on_c, 0, 46, 0
3, 109320, Note_on_c, 0, 58, 0
3, 109320, Note_on_c, 0, 62, 76
3, 109320, Note_on_c, 0, 50, 68
3, 109440, Note_on_c, 0, 50, 0
3, 109440, Note_on_c, 0, 62, 0
3, 109440, Note_on_c, 0, 55, 72
3, 109440, Note_on_c, 0, 43, 64
3, 109548, Note_on_c, 0, 43, 0
3, 109548, Note_on_c, 0, 55, 0
3, 109560, Note_on_c, 0, 58, 77
3, 109560, Note_on_c, 0, 46, 69
3, 109680, Note_on_c, 0, 46, 0
3, 109680, Note_on_c, 0, 58, 0
3, 109680, Note_on_c, 0, 53, 72
3, 109680, Note_on_c, 0, 41, 64
3, 109800, Note_on_c, 0, 41, 0
3, 109800, Note_on_c, 0, 53, 0
3, 109800, Note_on_c, 0, 43, 69
3, 109800, Note_on_c, 0, 55, 77
3, 109920, Note_on_c, 0, 55, 0
3, 109920, Note_on_c, 0, 43, 0
3, 109920, Note_on_c, 0, 50, 72
3, 109920, Note_on_c, 0, 38, 64
3, 110028, Note_on_c, 0, 38, 0
3, 110028, Note_on_c, 0, 50, 0
3, 110040, Note_on_c, 0, 41, 71
3, 110040, Note_on_c, 0, 53, 79
3, 110160, Note_on_c, 0, 53, 0
3, 110160, Note_on_c, 0, 41, 0
3, 110160, Note_on_c, 0, 34, 65
3, 110160, Note_on_c, 0, 46, 73
3, 110280, Note_on_c, 0, 46, 0
3, 110280, Note_on_c, 0, 34, 0
3, 110280, Note_on_c, 0, 50, 85
3, 110280, Note_on_c, 0, 38, 76
3, 110400, Note_on_c, 0, 38, 0
3, 110400, Note_on_c, 0, 50, 0
3, 110400, Note_on_c, 0, 29, 78
3, 110400, Note_on_c, 0, 41, 88
3, 110880, Note_on_c, 0, 63, 81
3, 110880, Note_on_c, 0, 60, 81
3, 110880, Note_on_c, 0, 57, 72
3, 110880, Note_on_c, 0, 51, 72
3, 111360, Note_on_c, 0, 51, 0
3, 111360, Note_on_c, 0, 41, 0
3, 111360, Note_on_c, 0, 63, 0
3, 111360, Note_on_c, 0, 29, 0
3, 111360, Note_on_c, 0, 57, 0
3, 111360, Note_on_c, 0, 60, 0
3, 111360, Note_on_c, 0, 22, 78
3, 111360, Note_on_c, 0, 34, 87
3, 111600, Note_on_c, 0, 62, 85
3, 111600, Note_on_c, 0, 58, 83
3, 111600, Note_on_c, 0, 53, 78
3, 111600, Note_on_c, 0, 50, 78
3, 112320, Note_on_c, 0, 50, 0
3, 112320, Note_on_c, 0, 34, 0
3, 112320, Note_on_c, 0, 62, 0
3, 112320, Note_on_c, 0, 22, 0
3, 112320, Note_on_c, 0, 53, 0
3, 112320, Note_on_c, 0, 58, 0
3, 112320, End_track
4, 0, Start_track
4, 0, Title_t, "Pedal"
4, 95, Control_c, 0, 64, 127
4, 1931, Control_c, 0, 64, 0
4, 1966, Control_c, 0, 64, 127
4, 3855, Control_c, 0, 64, 0
4, 3886, Control_c, 0, 64, 127
4, 5195, Control_c, 0, 64, 0
4, 5232, Control_c, 0, 64, 127
4, 5769, Control_c, 0, 64, 0
4, 5815, Control_c, 0, 64, 127
4, 7695, Control_c, 0, 64, 0
4, 7729, Control_c, 0, 64, 127
4, 9009, Control_c, 0, 64, 0
4, 9046, Control_c, 0, 64, 127
4, 9616, Control_c, 0, 64, 0
4, 9660, Control_c, 0, 64, 127
4, 11534, Control_c, 0, 64, 0
4, 11580, Control_c, 0, 64, 127
4, 12492, Control_c, 0, 64, 0
4, 12535, Control_c, 0, 64, 127
4, 13452, Control_c, 0, 64, 0
4, 13515, Control_c, 0, 64, 127
4, 14413, Control_c, 0, 64, 0
4, 14463, Control_c, 0, 64, 127
4, 15370, Control_c, 0, 64, 0
4, 15412, Control_c, 0, 64, 127
4, 16338, Control_c, 0, 64, 0
4, 16389, Control_c, 0, 64, 127
4, 16811, Control_c, 0, 64, 0
4, 16889, Control_c, 0, 64, 127
4, 17290, Control_c, 0, 64, 0
4, 17321, Control_c, 0, 64, 127
4, 17535, Control_c, 0, 64, 0
4, 17593, Control_c, 0, 64, 127
4, 18253, Control_c, 0, 64, 0
4, 18309, Control_c, 0, 64, 127
4, 20171, Control_c, 0, 64, 0
4, 20209, Control_c, 0, 64, 127
4, 22092, Control_c, 0, 64, 0
4, 22129, Control_c, 0, 64, 127
4, 23057, Control_c, 0, 64, 0
4, 23089, Control_c, 0, 64, 127
4, 24017, Control_c, 0, 64, 0
4, 24035, Control_c, 0, 64, 127
4, 24975, Control_c, 0, 64, 0
4, 25017, Control_c, 0, 64, 127
4, 25933, Control_c, 0, 64, 0
4, 25968, Control_c, 0, 64, 127
4, 26895, Control_c, 0, 64, 0
4, 26955, Control_c, 0, 64, 127
4, 27853, Control_c, 0, 64, 0
4, 27933, Control_c, 0, 64, 127
4, 28329, Control_c, 0, 64, 0
4, 28411, Control_c, 0, 64, 127
4, 28815, Control_c, 0, 64, 0
4, 28873, Control_c, 0, 64, 127
4, 29298, Control_c, 0, 64, 0
4, 29330, Control_c, 0, 64, 127
4, 29483, Control_c, 0, 64, 0
4, 29518, Control_c, 0, 64, 127
4, 29682, Control_c, 0, 64, 0
4, 29706, Control_c, 0, 64, 127
4, 29771, Control_c, 0, 64, 0
4, 29965, Control_c, 0, 64, 127
4, 30727, Control_c, 0, 64, 0
4, 30830, Control_c, 0, 64, 127
4, 32652, Control_c, 0, 64, 0
4, 32728, Control_c, 0, 64, 127
4, 34577, Control_c, 0, 64, 0
4, 34612, Control_c, 0, 64, 127
4, 36023, Control_c, 0, 64, 0
4, 36080, Control_c, 0, 64, 127
4, 36494, Control_c, 0, 64, 0
4, 36566, Control_c, 0, 64, 127
4, 37935, Control_c, 0, 64, 0
4, 37966, Control_c, 0, 64, 127
4, 38410, Control_c, 0, 64, 0
4, 38455, Control_c, 0, 64, 127
4, 39372, Control_c, 0, 64, 0
4, 39435, Control_c, 0, 64, 127
4, 40092, Control_c, 0, 64, 0
4, 40163, Control_c, 0, 64, 127
4, 41123, Control_c, 0, 64, 0
4, 41163, Control_c, 0, 64, 127
4, 42023, Control_c, 0, 64, 0
4, 42120, Control_c, 0, 64, 127
4, 43221, Control_c, 0, 64, 0
4, 43260, Control_c, 0, 64, 127
4, 44173, Control_c, 0, 64, 0
4, 44212, Control_c, 0, 64, 127
4, 45619, Control_c, 0, 64, 0
4, 45672, Control_c, 0, 64, 127
4, 46094, Control_c, 0, 64, 0
4, 46132, Control_c, 0, 64, 127
4, 47052, Control_c, 0, 64, 0
4, 47100, Control_c, 0, 64, 127
4, 48009, Control_c, 0, 64, 0
4, 48046, Control_c, 0, 64, 127
4, 49926, Control_c, 0, 64, 0
4, 49969, Control_c, 0, 64, 127
4, 50415, Control_c, 0, 64, 0
4, 50446, Control_c, 0, 64, 127
4, 50896, Control_c, 0, 64, 0
4, 50940, Control_c, 0, 64, 127
4, 51372, Control_c, 0, 64, 0
4, 51415, Control_c, 0, 64, 127
4, 51848, Control_c, 0, 64, 0
4, 51883, Control_c, 0, 64, 127
4, 52337, Control_c, 0, 64, 0
4, 52377, Control_c, 0, 64, 127
4, 52815, Control_c, 0, 64, 0
4, 52852, Control_c, 0, 64, 127
4, 53298, Control_c, 0, 64, 0
4, 53332, Control_c, 0, 64, 127
4, 53765, Control_c, 0, 64, 0
4, 53807, Control_c, 0, 64, 127
4, 54736, Control_c, 0, 64, 0
4, 54759, Control_c, 0, 64, 127
4, 55690, Control_c, 0, 64, 0
4, 55721, Control_c, 0, 64, 127
4, 56655, Control_c, 0, 64, 0
4, 56684, Control_c, 0, 64, 127
4, 57611, Control_c, 0, 64, 0
4, 57652, Control_c, 0, 64, 127
4, 58092, Control_c, 0, 64, 0
4, 58146, Control_c, 0, 64, 127
4, 58575, Control_c, 0, 64, 0
4, 58623, Control_c, 0, 64, 127
4, 59057, Control_c, 0, 64, 0
4, 59097, Control_c, 0, 64, 127
4, 59537, Control_c, 0, 64, 0
4, 59580, Control_c, 0, 64, 127
4, 60012, Control_c, 0, 64, 0
4, 60043, Control_c, 0, 64, 127
4, 60489, Control_c, 0, 64, 0
4, 60526, Control_c, 0, 64, 127
4, 60969, Control_c, 0, 64, 0
4, 60989, Control_c, 0, 64, 127
4, 61451, Control_c, 0, 64, 0
4, 61490, Control_c, 0, 64, 127
4, 61810, Control_c, 0, 64, 0
4, 61853, Control_c, 0, 64, 127
4, 62294, Control_c, 0, 64, 0
4, 62330, Control_c, 0, 64, 127
4, 62769, Control_c, 0, 64, 0
4, 62813, Control_c, 0, 64, 127
4, 63370, Control_c, 0, 64, 0
4, 63396, Control_c, 0, 64, 127
4, 63730, Control_c, 0, 64, 0
4, 63773, Control_c, 0, 64, 127
4, 64207, Control_c, 0, 64, 0
4, 64264, Control_c, 0, 64, 127
4, 64690, Control_c, 0, 64, 0
4, 64740, Control_c, 0, 64, 127
4, 65170, Control_c, 0, 64, 0
4, 65220, Control_c, 0, 64, 127
4, 65650, Control_c, 0, 64, 0
4, 65700, Control_c, 0, 64, 127
4, 66130, Control_c, 0, 64, 0
4, 66187, Control_c, 0, 64, 127
4, 67034, Control_c, 0, 64, 0
4, 67203, Control_c, 0, 64, 127
4, 68163, Control_c, 0, 64, 0
4, 68206, Control_c, 0, 64, 127
4, 69489, Control_c, 0, 64, 0
4, 69535, Control_c, 0, 64, 127
4, 70088, Control_c, 0, 64, 0
4, 70129, Control_c, 0, 64, 127
4, 72026, Control_c, 0, 64, 0
4, 72040, Control_c, 0, 64, 127
4, 73332, Control_c, 0, 64, 0
4, 73360, Control_c, 0, 64, 127
4, 73924, Control_c, 0, 64, 0
4, 73980, Control_c, 0, 64, 127
4, 75857, Control_c, 0, 64, 0
4, 75892, Control_c, 0, 64, 127
4, 76812, Control_c, 0, 64, 0
4, 76860, Control_c, 0, 64, 127
4, 77770, Control_c, 0, 64, 0
4, 77806, Control_c, 0, 64, 127
4, 78730, Control_c, 0, 64, 0
4, 78769, Control_c, 0, 64, 127
4, 79689, Control_c, 0, 64, 0
4, 79729, Control_c, 0, 64, 127
4, 80647, Control_c, 0, 64, 0
4, 80686, Control_c, 0, 64, 127
4, 81135, Control_c, 0, 64, 0
4, 81240, Control_c, 0, 64, 127
4, 81610, Control_c, 0, 64, 0
4, 81648, Control_c, 0, 64, 127
4, 81859, Control_c, 0, 64, 0
4, 81910, Control_c, 0, 64, 127
4, 82572, Control_c, 0, 64, 0
4, 82612, Control_c, 0, 64, 127
4, 84493, Control_c, 0, 64, 0
4, 84535, Control_c, 0, 64, 127
4, 86412, Control_c, 0, 64, 0
4, 86449, Control_c, 0, 64, 127
4, 87372, Control_c, 0, 64, 0
4, 87417, Control_c, 0, 64, 127
4, 88326, Control_c, 0, 64, 0
4, 88355, Control_c, 0, 64, 127
4, 89299, Control_c, 0, 64, 0
4, 89329, Control_c, 0, 64, 127
4, 90255, Control_c, 0, 64, 0
4, 90286, Control_c, 0, 64, 127
4, 91213, Control_c, 0, 64, 0
4, 91271, Control_c, 0, 64, 127
4, 92179, Control_c, 0, 64, 0
4, 92243, Control_c, 0, 64, 127
4, 92649, Control_c, 0, 64, 0
4, 92742, Control_c, 0, 64, 127
4, 93133, Control_c, 0, 64, 0
4, 93172, Control_c, 0, 64, 127
4, 93617, Control_c, 0, 64, 0
4, 93637, Control_c, 0, 64, 127
4, 93796, Control_c, 0, 64, 0
4, 93809, Control_c, 0, 64, 127
4, 93990, Control_c, 0, 64, 0
4, 94006, Control_c, 0, 64, 127
4, 94105, Control_c, 0, 64, 0
4, 94181, Control_c, 0, 64, 127
4, 94328, Control_c, 0, 64, 0
4, 94353, Control_c, 0, 64, 127
4, 94488, Control_c, 0, 64, 0
4, 94512, Control_c, 0, 64, 127
4, 94577, Control_c, 0, 64, 0
4, 94688, Control_c, 0, 64, 127
4, 94811, Control_c, 0, 64, 0
4, 94839, Control_c, 0, 64, 127
4, 94970, Control_c, 0, 64, 0
4, 95001, Control_c, 0, 64, 127
4, 95131, Control_c, 0, 64, 0
4, 95156, Control_c, 0, 64, 127
4, 95290, Control_c, 0, 64, 0
4, 95315, Control_c, 0, 64, 127
4, 95449, Control_c, 0, 64, 0
4, 95475, Control_c, 0, 64, 127
4, 95610, Control_c, 0, 64, 0
4, 95638, Control_c, 0, 64, 127
4, 95770, Control_c, 0, 64, 0
4, 95793, Control_c, 0, 64, 127
4, 96011, Control_c, 0, 64, 0
4, 96155, Control_c, 0, 64, 127
4, 96969, Control_c, 0, 64, 0
4, 97003, Control_c, 0, 64, 127
4, 98655, Control_c, 0, 64, 0
4, 98692, Control_c, 0, 64, 127
4, 98888, Control_c, 0, 64, 0
4, 98950, Control_c, 0, 64, 127
4, 100575, Control_c, 0, 64, 0
4, 100606, Control_c, 0, 64, 127
4, 100809, Control_c, 0, 64, 0
4, 100946, Control_c, 0, 64, 127
4, 102496, Control_c, 0, 64, 0
4, 102546, Control_c, 0, 64, 127
4, 102729, Control_c, 0, 64, 0
4, 102779, Control_c, 0, 64, 127
4, 103693, Control_c, 0, 64, 0
4, 103795, Control_c, 0, 64, 127
4, 104653, Control_c, 0, 64, 0
4, 104906, Control_c, 0, 64, 127
4, 106092, Control_c, 0, 64, 0
4, 106132, Control_c, 0, 64, 127
4, 107057, Control_c, 0, 64, 0
4, 107100, Control_c, 0, 64, 127
4, 107529, Control_c, 0, 64, 0
4, 107583, Control_c, 0, 64, 127
4, 108009, Control_c, 0, 64, 0
4, 108055, Control_c, 0, 64, 127
4, 108480, Control_c, 0, 64, 0
4, 108678, Control_c, 0, 64, 127
4, 110404, Control_c, 0, 64, 0
4, 110570, Control_c, 0, 64, 127
4, 110902, Control_c, 0, 64, 0
4, 111064, Control_c, 0, 64, 127
4, 111388, Control_c, 0, 64, 0
4, 111558, Control_c, 0, 64, 127
4, 113894, Control_c, 0, 64, 0
4, 113894, End_track
5, 0, Start_track
5, 0, Title_t, "Rachmaninov: Prelude in B, Op. 23, No. 2"
5, 0, End_track
6, 0, Start_track
6, 0, Title_t, "Copyright © 2004 by Bernd Krüger"
6, 0, End_track
7, 0, Start_track
7, 0, Title_t, "http://www.piano-midi.de"
7, 0, End_track
8, 0, Start_track
8, 0, Title_t, "Edition: 2012-12-11"
8, 0, End_track
9, 0, Start_track
9, 0, Title_t, "Spur 8"
9, 0, End_track
0, 0, End_of_file
