0, 0, Header, 1, 9, 480
1, 0, Start_track
1, 0, Title_t, "Prelude No.5 in Es-Dur, Op. 23"
1, 0, Copyright_t, "Copyright © 2004 by Bernd Krueger"
1, 0, Text_t, "Rachmaninow"
1, 0, Text_t, "Alla marcia"
1, 0, Text_t, "Fertiggestellt am 17.10.97\012"
1, 0, Text_t, "Update am 28.12.2000\012"
1, 0, Text_t, "Update am 26.7.2004\012"
1, 0, Text_t, "Update 4.12.2012\012"
1, 0, Text_t, "Dauer: 3:20 Minuten\012"
1, 0, SMPTE_offset, 96, 0, 3, 0, 0
1, 0, Time_signature, 4, 2, 24, 8
1, 0, Key_signature, -2, "major"
1, 0, Tempo, 597015
1, 0, Marker_t, "Alla marcia"
1, 240, Tempo, 378573
1, 480, Tempo, 576923
1, 720, Tempo, 563380
1, 960, Tempo, 550459
1, 1200, Tempo, 540541
1, 1440, Tempo, 547945
1, 1680, Tempo, 540541
1, 1920, Tempo, 576923
1, 2160, Tempo, 377382
1, 2400, Tempo, 560748
1, 2640, Tempo, 519481
1, 2880, Tempo, 550459
1, 3120, Tempo, 533333
1, 3360, Tempo, 550459
1, 3600, Tempo, 538117
1, 3840, Tempo, 574163
1, 4080, Tempo, 380977
1, 4360, Tempo, 524017
1, 4560, Tempo, 549300
1, 4800, Tempo, 552995
1, 5040, Tempo, 394763
1, 5280, Tempo, 519481
1, 5520, Tempo, 546847
1, 5760, Tempo, 550459
1, 6000, Tempo, 398698
1, 6240, Tempo, 515021
1, 6480, Tempo, 539568
1, 6720, Tempo, 547945
1, 6960, Tempo, 398698
1, 7200, Tempo, 512821
1, 7440, Tempo, 544366
1, 7920, Tempo, 428602
1, 8160, Tempo, 524017
1, 8400, Tempo, 549300
1, 9120, Tempo, 547945
1, 9640, Tempo, 555556
1, 9840, Tempo, 377382
1, 10080, Tempo, 524017
1, 10320, Tempo, 544366
1, 10800, Tempo, 535714
1, 11040, Tempo, 542986
1, 11280, Tempo, 540541
1, 11520, Tempo, 542986
1, 11760, Tempo, 376199
1, 12000, Tempo, 526316
1, 12240, Tempo, 546847
1, 12720, Tempo, 534807
1, 13920, Tempo, 431624
1, 14160, Tempo, 555556
1, 14400, Tempo, 534807
1, 14640, Tempo, 546847
1, 14880, Tempo, 466890
1, 15120, Tempo, 542986
1, 15360, Time_signature, 2, 2, 24, 8
1, 15360, Tempo, 591949
1, 15600, Tempo, 609756
1, 15840, Tempo, 652103
1, 16320, Time_signature, 4, 2, 24, 8
1, 16320, Tempo, 566038
1, 16560, Tempo, 384862
1, 16800, Tempo, 579710
1, 17040, Tempo, 566038
1, 17280, Tempo, 552995
1, 17520, Tempo, 535714
1, 17760, Tempo, 552995
1, 18000, Tempo, 540541
1, 18240, Tempo, 560748
1, 18480, Tempo, 384862
1, 18720, Tempo, 524017
1, 18960, Tempo, 533333
1, 19200, Tempo, 555556
1, 19440, Tempo, 550459
1, 19680, Tempo, 555556
1, 19920, Tempo, 547945
1, 20160, Tempo, 563380
1, 20400, Tempo, 383362
1, 20640, Tempo, 535714
1, 20880, Tempo, 549300
1, 21120, Tempo, 563380
1, 21360, Tempo, 385827
1, 21600, Tempo, 519481
1, 21840, Tempo, 544366
1, 22080, Tempo, 558140
1, 22320, Tempo, 396013
1, 22560, Tempo, 512821
1, 22800, Tempo, 539568
1, 23080, Tempo, 550459
1, 23280, Tempo, 396013
1, 23520, Tempo, 510638
1, 23760, Tempo, 526316
1, 24000, Tempo, 555556
1, 24240, Tempo, 402658
1, 24480, Tempo, 517241
1, 24720, Tempo, 544366
1, 24960, Tempo, 552995
1, 25200, Tempo, 405378
1, 25440, Tempo, 560748
1, 25680, Tempo, 526316
1, 25920, Tempo, 533333
1, 26160, Tempo, 528634
1, 26400, Tempo, 530973
1, 26640, Tempo, 519481
1, 26880, Tempo, 546847
1, 27120, Tempo, 521739
1, 27360, Tempo, 526316
1, 27600, Tempo, 528634
1, 27840, Time_signature, 2, 2, 24, 8
1, 27840, Tempo, 554273
1, 28800, Time_signature, 4, 2, 24, 8
1, 29040, Tempo, 437924
1, 29280, Tempo, 542005
1, 29520, Tempo, 442772
1, 29760, Tempo, 537201
1, 30000, Tempo, 554273
1, 30240, Tempo, 512821
1, 30480, Tempo, 521739
1, 30720, Tempo, 554273
1, 30960, Tempo, 434751
1, 31200, Tempo, 542005
1, 31440, Tempo, 446063
1, 31680, Tempo, 542005
1, 31920, Tempo, 551826
1, 32160, Tempo, 517241
1, 32640, Tempo, 554273
1, 32880, Tempo, 430077
1, 33120, Tempo, 542005
1, 33360, Tempo, 454511
1, 33600, Tempo, 537201
1, 33840, Tempo, 554273
1, 34080, Tempo, 534807
1, 34560, Tempo, 551826
1, 34800, Tempo, 437924
1, 35040, Tempo, 544366
1, 35280, Tempo, 454511
1, 35520, Tempo, 544366
1, 35760, Tempo, 554273
1, 36000, Tempo, 532481
1, 36480, Tempo, 554273
1, 36720, Tempo, 457980
1, 36960, Tempo, 530973
1, 37200, Tempo, 569801
1, 37680, Tempo, 551826
1, 38160, Tempo, 619067
1, 38640, Tempo, 538117
1, 38880, Tempo, 555556
1, 39120, Tempo, 538117
1, 39360, Tempo, 555556
1, 40080, Tempo, 583487
1, 40320, Tempo, 545455
1, 40760, Tempo, 545455
1, 40920, Tempo, 542986
1, 41040, Tempo, 540541
1, 41160, Tempo, 538117
1, 41280, Tempo, 535714
1, 41400, Tempo, 533333
1, 41520, Tempo, 530973
1, 41640, Tempo, 528634
1, 41760, Tempo, 526316
1, 41800, Tempo, 526316
1, 41920, Tempo, 524017
1, 42000, Tempo, 521739
1, 42080, Tempo, 519481
1, 42160, Tempo, 517241
1, 42240, Tempo, 515021
1, 43160, Tempo, 515021
1, 43240, Tempo, 517241
1, 43280, Tempo, 519481
1, 43320, Tempo, 521739
1, 43360, Tempo, 524017
1, 43440, Tempo, 526316
1, 43480, Tempo, 528634
1, 43520, Tempo, 530973
1, 43560, Tempo, 533333
1, 43600, Tempo, 535714
1, 43680, Tempo, 538117
1, 43720, Tempo, 540541
1, 43760, Tempo, 542986
1, 43800, Tempo, 545455
1, 43840, Tempo, 547945
1, 43920, Tempo, 550459
1, 43960, Tempo, 552995
1, 44000, Tempo, 555556
1, 44040, Tempo, 558140
1, 44080, Tempo, 560748
1, 44100, Tempo, 559388
1, 44160, Tempo, 571429
1, 44400, Tempo, 379723
1, 44640, Tempo, 571429
1, 44880, Tempo, 556845
1, 45360, Tempo, 542986
1, 45600, Tempo, 555556
1, 45840, Tempo, 542986
1, 46080, Tempo, 560748
1, 46320, Tempo, 384591
1, 46560, Tempo, 555556
1, 46800, Tempo, 551826
1, 47280, Tempo, 540541
1, 47520, Tempo, 547945
1, 47760, Tempo, 540541
1, 48000, Tempo, 558140
1, 48240, Tempo, 385827
1, 48480, Tempo, 530973
1, 48520, Tempo, 538117
1, 48720, Tempo, 551826
1, 49200, Tempo, 405378
1, 49440, Tempo, 530973
1, 49680, Tempo, 549300
1, 50160, Tempo, 383362
1, 50400, Tempo, 528634
1, 50640, Tempo, 544366
1, 51120, Tempo, 397325
1, 51360, Tempo, 528634
1, 51600, Tempo, 544366
1, 52080, Tempo, 404013
1, 52320, Tempo, 528634
1, 52560, Tempo, 546847
1, 53040, Tempo, 495868
1, 53280, Tempo, 528634
1, 53520, Tempo, 546847
1, 54000, Tempo, 504202
1, 54240, Tempo, 530973
1, 54480, Tempo, 546847
1, 54960, Tempo, 512821
1, 55240, Tempo, 530973
1, 55440, Tempo, 546847
1, 55920, Tempo, 497925
1, 56160, Tempo, 528634
1, 56400, Tempo, 546847
1, 56880, Tempo, 534807
1, 57360, Tempo, 546847
1, 57840, Tempo, 512821
1, 58080, Tempo, 535714
1, 58320, Tempo, 546847
1, 58800, Tempo, 537201
1, 59280, Tempo, 551826
1, 59760, Tempo, 544366
1, 60240, Tempo, 551826
1, 63360, Tempo, 788747
1, 63360, Marker_t, "Un poco meno mosso"
1, 63600, Tempo, 784416
1, 63840, Tempo, 780336
1, 64080, Tempo, 776398
1, 64320, Tempo, 772400
1, 64560, Tempo, 768443
1, 64760, Tempo, 764331
1, 64960, Tempo, 768443
1, 65120, Tempo, 772400
1, 65280, Tempo, 776398
1, 65440, Tempo, 780336
1, 65600, Tempo, 784416
1, 65760, Tempo, 788747
1, 65920, Tempo, 793021
1, 66080, Tempo, 797130
1, 66240, Tempo, 801496
1, 66480, Tempo, 797130
1, 66720, Tempo, 793021
1, 66960, Tempo, 788747
1, 67200, Tempo, 784416
1, 67440, Tempo, 801496
1, 67600, Tempo, 797130
1, 67720, Tempo, 793021
1, 67840, Tempo, 788747
1, 67960, Tempo, 784416
1, 68120, Tempo, 780336
1, 68240, Tempo, 776398
1, 68360, Tempo, 772400
1, 68480, Tempo, 768443
1, 68600, Tempo, 764331
1, 68840, Tempo, 768443
1, 69040, Tempo, 772400
1, 69240, Tempo, 776398
1, 69440, Tempo, 780336
1, 69640, Tempo, 784416
1, 69840, Tempo, 788747
1, 70040, Tempo, 793021
1, 70080, Tempo, 777101
1, 70120, Tempo, 777101
1, 70280, Tempo, 772798
1, 70440, Tempo, 768541
1, 70600, Tempo, 764039
1, 70760, Tempo, 759782
1, 70880, Tempo, 755668
1, 71040, Tempo, 751503
1, 71200, Tempo, 747570
1, 71280, Tempo, 772400
1, 72400, Tempo, 772400
1, 72640, Tempo, 768443
1, 72880, Tempo, 764331
1, 73120, Tempo, 764331
1, 73600, Tempo, 768443
1, 74040, Tempo, 772400
1, 74160, Tempo, 809280
1, 74880, Tempo, 789785
1, 75040, Tempo, 785752
1, 75200, Tempo, 781759
1, 75360, Tempo, 777706
1, 75520, Tempo, 773694
1, 75680, Tempo, 769823
1, 75840, Tempo, 765892
1, 75960, Tempo, 772798
1, 76040, Tempo, 777101
1, 76160, Tempo, 781555
1, 76240, Tempo, 786061
1, 76320, Tempo, 790410
1, 76440, Tempo, 795018
1, 76520, Tempo, 799574
1, 76640, Tempo, 804505
1, 76720, Tempo, 809280
1, 76800, Tempo, 785752
1, 76960, Tempo, 781759
1, 77120, Tempo, 777706
1, 77280, Tempo, 773694
1, 77440, Tempo, 769823
1, 77600, Tempo, 765892
1, 77760, Tempo, 762195
1, 77800, Tempo, 760553
1, 77920, Tempo, 764331
1, 78000, Tempo, 768443
1, 78120, Tempo, 772400
1, 78200, Tempo, 776398
1, 78320, Tempo, 780336
1, 78400, Tempo, 784416
1, 78520, Tempo, 788747
1, 78600, Tempo, 793021
1, 78680, Tempo, 806452
1, 78720, Tempo, 806452
1, 78840, Tempo, 802246
1, 78960, Tempo, 798085
1, 79080, Tempo, 793966
1, 79200, Tempo, 789785
1, 79320, Tempo, 785752
1, 79440, Tempo, 781759
1, 79560, Tempo, 777706
1, 79680, Tempo, 773694
1, 79840, Tempo, 777706
1, 80000, Tempo, 781759
1, 80160, Tempo, 785752
1, 80320, Tempo, 789785
1, 80480, Tempo, 793966
1, 80640, Tempo, 798085
1, 80800, Tempo, 802246
1, 80840, Tempo, 786061
1, 80880, Tempo, 769823
1, 82560, Tempo, 781555
1, 84240, Tempo, 812788
1, 84400, Tempo, 808843
1, 84520, Tempo, 804613
1, 84640, Tempo, 800534
1, 84800, Tempo, 796601
1, 84920, Tempo, 792602
1, 85040, Tempo, 788747
1, 85200, Tempo, 784827
1, 85320, Tempo, 780843
1, 85440, Tempo, 777202
1, 85600, Tempo, 762292
1, 86120, Tempo, 765892
1, 86160, Tempo, 780843
1, 87320, Tempo, 765892
1, 87480, Tempo, 769823
1, 87640, Tempo, 773694
1, 87800, Tempo, 777706
1, 87960, Tempo, 781759
1, 88120, Tempo, 785752
1, 88280, Tempo, 789785
1, 88320, Tempo, 769527
1, 88560, Tempo, 773296
1, 88800, Tempo, 777202
1, 89040, Tempo, 780843
1, 89280, Tempo, 765892
1, 89520, Tempo, 769527
1, 89760, Tempo, 773296
1, 90000, Tempo, 777202
1, 90240, Tempo, 780843
1, 90280, Tempo, 772400
1, 90320, Tempo, 776398
1, 90360, Tempo, 780336
1, 90400, Tempo, 784416
1, 90440, Tempo, 788747
1, 90480, Tempo, 793021
1, 90520, Tempo, 797130
1, 90560, Tempo, 801496
1, 90600, Tempo, 805694
1, 90640, Tempo, 810154
1, 90680, Tempo, 814443
1, 90720, Tempo, 819001
1, 90760, Tempo, 823497
1, 90800, Tempo, 828157
1, 90840, Tempo, 832755
1, 90880, Tempo, 842223
1, 90920, Tempo, 847099
1, 90960, Tempo, 851789
1, 91000, Tempo, 856653
1, 91040, Tempo, 861821
1, 91080, Tempo, 866802
1, 91120, Tempo, 871840
1, 91160, Tempo, 876680
1, 91200, Tempo, 881964
1, 91240, Tempo, 887311
1, 91280, Tempo, 892591
1, 91320, Tempo, 898204
1, 91360, Tempo, 903614
1, 91400, Tempo, 908816
1, 91440, Tempo, 914634
1, 91480, Tempo, 926069
1, 91520, Tempo, 931677
1, 91560, Tempo, 937500
1, 91600, Tempo, 943693
1, 91640, Tempo, 949517
1, 91680, Tempo, 955718
1, 91720, Tempo, 962001
1, 91760, Tempo, 967898
1, 91800, Tempo, 974184
1, 91840, Tempo, 980713
1, 91880, Tempo, 987492
1, 91920, Tempo, 994036
1, 91960, Tempo, 1000333
1, 92000, Tempo, 1007388
1, 92040, Tempo, 1021103
1, 92160, Tempo, 705799
1, 92160, Marker_t, "Übergang zu Tempo 1"
1, 92400, Tempo, 634853
1, 92640, Tempo, 701672
1, 93120, Tempo, 681741
1, 93240, Tempo, 655666
1, 93360, Tempo, 697593
1, 93600, Tempo, 674082
1, 93720, Tempo, 655666
1, 93840, Tempo, 689576
1, 94080, Tempo, 674082
1, 94320, Tempo, 605999
1, 94560, Tempo, 674082
1, 94680, Tempo, 670316
1, 95040, Tempo, 652103
1, 96240, Tempo, 596956
1, 96480, Tempo, 648579
1, 96600, Tempo, 652103
1, 96720, Tempo, 645092
1, 96747, Tempo, 655666
1, 96875, Tempo, 652103
1, 96971, Tempo, 648579
1, 97067, Tempo, 645092
1, 97163, Tempo, 641643
1, 97200, Tempo, 602954
1, 97440, Tempo, 618493
1, 97643, Tempo, 634853
1, 97739, Tempo, 631512
1, 97835, Tempo, 628206
1, 97931, Tempo, 628206
1, 98160, Tempo, 582468
1, 98400, Tempo, 624935
1, 98699, Tempo, 621697
1, 99083, Tempo, 618493
1, 99467, Tempo, 615322
1, 99840, Tempo, 612182
1, 99851, Tempo, 612182
1, 100080, Tempo, 563327
1, 100320, Tempo, 609075
1, 100619, Tempo, 605999
1, 101003, Tempo, 602954
1, 101387, Tempo, 599940
1, 101771, Tempo, 596956
1, 102000, Tempo, 555504
1, 102240, Tempo, 594001
1, 102539, Tempo, 591075
1, 102923, Tempo, 588178
1, 103307, Tempo, 585309
1, 103691, Tempo, 582468
1, 103920, Tempo, 540492
1, 104160, Tempo, 576868
1, 104459, Tempo, 576868
1, 104760, Tempo, 565984
1, 104880, Tempo, 523972
1, 105120, Tempo, 563327
1, 105227, Tempo, 571374
1, 105611, Tempo, 568666
1, 105840, Tempo, 508431
1, 106080, Tempo, 565984
1, 106379, Tempo, 563327
1, 106560, Tempo, 555504
1, 106763, Tempo, 560695
1, 107147, Tempo, 558088
1, 107160, Tempo, 550408
1, 107499, Tempo, 555504
1, 107520, Tempo, 564546
1, 107520, Marker_t, "Tempo 1"
1, 107760, Tempo, 470551
1, 108000, Tempo, 568720
1, 108240, Tempo, 542986
1, 108450, Tempo, 558140
1, 109680, Tempo, 472441
1, 109920, Tempo, 566038
1, 110160, Tempo, 554273
1, 111600, Tempo, 476190
1, 111840, Tempo, 535714
1, 112080, Tempo, 554273
1, 112560, Tempo, 495868
1, 112800, Tempo, 552995
1, 115440, Tempo, 506329
1, 116160, Tempo, 517241
1, 116400, Tempo, 552995
1, 116640, Tempo, 524017
1, 117120, Tempo, 521739
1, 117360, Tempo, 550459
1, 118320, Tempo, 569801
1, 119040, Tempo, 600000
1, 119280, Tempo, 431624
1, 119520, Tempo, 542005
1, 119760, Tempo, 451094
1, 120000, Tempo, 537201
1, 120240, Tempo, 554273
1, 120480, Tempo, 512821
1, 120720, Tempo, 521739
1, 120960, Tempo, 554273
1, 121200, Tempo, 430077
1, 121440, Tempo, 542005
1, 121680, Tempo, 454511
1, 121920, Tempo, 542005
1, 122160, Tempo, 551826
1, 122400, Tempo, 530176
1, 122880, Tempo, 554273
1, 123120, Tempo, 437924
1, 123360, Tempo, 542005
1, 123600, Tempo, 470551
1, 123840, Tempo, 537201
1, 124080, Tempo, 554273
1, 124320, Tempo, 534807
1, 124800, Tempo, 551826
1, 125040, Tempo, 442772
1, 125280, Tempo, 544366
1, 125520, Tempo, 466890
1, 125760, Tempo, 544366
1, 126000, Tempo, 554273
1, 126240, Tempo, 532481
1, 126720, Tempo, 554273
1, 126960, Tempo, 487805
1, 127200, Tempo, 530973
1, 127440, Tempo, 569801
1, 127920, Tempo, 551826
1, 128400, Tempo, 619067
1, 128880, Tempo, 556845
1, 130320, Tempo, 583487
1, 130560, Tempo, 545455
1, 131000, Tempo, 545455
1, 131160, Tempo, 542986
1, 131280, Tempo, 540541
1, 131400, Tempo, 538117
1, 131520, Tempo, 535714
1, 131640, Tempo, 533333
1, 131760, Tempo, 530973
1, 131880, Tempo, 528634
1, 132000, Tempo, 526316
1, 132040, Tempo, 526316
1, 132160, Tempo, 524017
1, 132240, Tempo, 521739
1, 132320, Tempo, 519481
1, 132400, Tempo, 517241
1, 132480, Tempo, 515021
1, 133400, Tempo, 515021
1, 133480, Tempo, 517241
1, 133520, Tempo, 519481
1, 133560, Tempo, 521739
1, 133600, Tempo, 524017
1, 133680, Tempo, 526316
1, 133720, Tempo, 528634
1, 133760, Tempo, 530973
1, 133800, Tempo, 533333
1, 133840, Tempo, 535714
1, 133920, Tempo, 538117
1, 133960, Tempo, 540541
1, 134000, Tempo, 542986
1, 134040, Tempo, 545455
1, 134080, Tempo, 547945
1, 134160, Tempo, 550459
1, 134200, Tempo, 552995
1, 134240, Tempo, 555556
1, 134280, Tempo, 558140
1, 134320, Tempo, 560748
1, 134340, Tempo, 559388
1, 134640, Tempo, 406752
1, 134880, Tempo, 571429
1, 135120, Tempo, 544366
1, 135360, Tempo, 551826
1, 135600, Tempo, 526316
1, 135680, Tempo, 524017
1, 135760, Tempo, 521739
1, 135840, Tempo, 519481
1, 135920, Tempo, 517241
1, 136000, Tempo, 515021
1, 136080, Tempo, 512821
1, 136120, Tempo, 539568
1, 136320, Tempo, 551826
1, 136560, Tempo, 413765
1, 136800, Tempo, 554273
1, 137500, Tempo, 551826
1, 137520, Tempo, 526316
1, 137640, Tempo, 524017
1, 137720, Tempo, 521739
1, 137840, Tempo, 519481
1, 137920, Tempo, 517241
1, 138000, Tempo, 540541
1, 138240, Tempo, 556845
1, 138480, Tempo, 410931
1, 138720, Tempo, 554273
1, 139440, Tempo, 422505
1, 139680, Tempo, 556845
1, 140400, Tempo, 425502
1, 140640, Tempo, 554273
1, 140880, Tempo, 524017
1, 141120, Tempo, 552995
1, 141360, Tempo, 546847
1, 142080, Tempo, 554273
1, 142320, Tempo, 402658
1, 142560, Tempo, 554273
1, 142800, Tempo, 542005
1, 143040, Tempo, 551826
1, 143240, Tempo, 551826
1, 143280, Tempo, 530973
1, 143360, Tempo, 528634
1, 143440, Tempo, 526316
1, 143480, Tempo, 524017
1, 143560, Tempo, 521739
1, 143600, Tempo, 519481
1, 143680, Tempo, 517241
1, 143720, Tempo, 515021
1, 143760, Tempo, 538117
1, 144000, Tempo, 554273
1, 144240, Tempo, 408136
1, 144480, Tempo, 554273
1, 144720, Tempo, 542005
1, 144960, Tempo, 551826
1, 145220, Tempo, 551826
1, 145240, Tempo, 530973
1, 145280, Tempo, 528634
1, 145320, Tempo, 526316
1, 145360, Tempo, 524017
1, 145400, Tempo, 521739
1, 145440, Tempo, 517241
1, 145680, Tempo, 540541
1, 145920, Tempo, 554273
1, 146160, Tempo, 415196
1, 146400, Tempo, 556845
1, 146880, Tempo, 554273
1, 147120, Tempo, 434751
1, 147360, Tempo, 554273
1, 148080, Tempo, 422505
1, 148320, Tempo, 551826
1, 149040, Tempo, 431624
1, 149280, Tempo, 554273
1, 149520, Tempo, 577923
1, 149760, Tempo, 556845
1, 150000, Tempo, 422505
1, 150240, Tempo, 556845
1, 150480, Tempo, 478050
1, 150720, Tempo, 556845
1, 151440, Tempo, 569801
1, 151680, Tempo, 556845
1, 151920, Tempo, 431624
1, 152160, Tempo, 551826
1, 152400, Tempo, 487765
1, 152640, Tempo, 556845
1, 153120, Tempo, 564546
1, 153360, Tempo, 572519
1, 153600, Tempo, 554273
1, 153840, Tempo, 433182
1, 154080, Tempo, 554273
1, 154320, Tempo, 502050
1, 154560, Tempo, 556845
1, 154800, Tempo, 542005
1, 155040, Tempo, 567161
1, 155520, Tempo, 556845
1, 155760, Tempo, 495868
1, 156000, Tempo, 554273
1, 156240, Tempo, 523972
1, 156480, Tempo, 556845
1, 156720, Tempo, 544366
1, 156960, Tempo, 564546
1, 160320, Tempo, 571429
1, 160800, Tempo, 582524
1, 161880, Marker_t, "Fine"
1, 161884, Tempo, 555556
1, 161884, End_track
2, 0, Start_track
2, 0, Title_t, "Piano right"
2, 0, Program_c, 0, 0
2, 0, Control_c, 0, 7, 100
2, 0, Control_c, 0, 10, 64
2, 0, Control_c, 0, 91, 127
2, 0, Note_on_c, 0, 55, 56
2, 0, Text_t, "bdca426d104a26ac9dcb070447587523"
2, 120, Note_on_c, 0, 55, 0
2, 240, Note_on_c, 0, 58, 40
2, 240, Note_on_c, 0, 62, 45
2, 308, Note_on_c, 0, 62, 0
2, 308, Note_on_c, 0, 58, 0
2, 360, Note_on_c, 0, 58, 40
2, 360, Note_on_c, 0, 62, 45
2, 428, Note_on_c, 0, 62, 0
2, 428, Note_on_c, 0, 58, 0
2, 480, Note_on_c, 0, 58, 40
2, 480, Note_on_c, 0, 62, 45
2, 540, Note_on_c, 0, 62, 0
2, 540, Note_on_c, 0, 58, 0
2, 1200, Note_on_c, 0, 58, 38
2, 1200, Note_on_c, 0, 62, 43
2, 1320, Note_on_c, 0, 62, 0
2, 1320, Note_on_c, 0, 58, 0
2, 1440, Note_on_c, 0, 58, 57
2, 1530, Note_on_c, 0, 58, 0
2, 1680, Note_on_c, 0, 58, 39
2, 1680, Note_on_c, 0, 62, 44
2, 1800, Note_on_c, 0, 62, 0
2, 1800, Note_on_c, 0, 58, 0
2, 1920, Note_on_c, 0, 55, 62
2, 2040, Note_on_c, 0, 55, 0
2, 2160, Note_on_c, 0, 58, 38
2, 2160, Note_on_c, 0, 62, 43
2, 2228, Note_on_c, 0, 62, 0
2, 2228, Note_on_c, 0, 58, 0
2, 2280, Note_on_c, 0, 58, 38
2, 2280, Note_on_c, 0, 62, 43
2, 2348, Note_on_c, 0, 62, 0
2, 2348, Note_on_c, 0, 58, 0
2, 2400, Note_on_c, 0, 58, 38
2, 2400, Note_on_c, 0, 62, 43
2, 2460, Note_on_c, 0, 62, 0
2, 2460, Note_on_c, 0, 58, 0
2, 3120, Note_on_c, 0, 58, 38
2, 3120, Note_on_c, 0, 62, 43
2, 3240, Note_on_c, 0, 62, 0
2, 3240, Note_on_c, 0, 58, 0
2, 3360, Note_on_c, 0, 58, 57
2, 3450, Note_on_c, 0, 58, 0
2, 3600, Note_on_c, 0, 58, 38
2, 3600, Note_on_c, 0, 62, 43
2, 3720, Note_on_c, 0, 62, 0
2, 3720, Note_on_c, 0, 58, 0
2, 3840, Note_on_c, 0, 55, 57
2, 3960, Note_on_c, 0, 55, 0
2, 4080, Note_on_c, 0, 58, 39
2, 4080, Note_on_c, 0, 62, 44
2, 4148, Note_on_c, 0, 62, 0
2, 4148, Note_on_c, 0, 58, 0
2, 4200, Note_on_c, 0, 58, 39
2, 4200, Note_on_c, 0, 62, 44
2, 4268, Note_on_c, 0, 62, 0
2, 4268, Note_on_c, 0, 58, 0
2, 4320, Note_on_c, 0, 58, 39
2, 4320, Note_on_c, 0, 62, 44
2, 4380, Note_on_c, 0, 62, 0
2, 4380, Note_on_c, 0, 58, 0
2, 4560, Note_on_c, 0, 62, 56
2, 4680, Note_on_c, 0, 62, 0
2, 4680, Note_on_c, 0, 65, 60
2, 4800, Note_on_c, 0, 65, 0
2, 4800, Note_on_c, 0, 67, 63
2, 5040, Note_on_c, 0, 70, 46
2, 5040, Note_on_c, 0, 67, 41
2, 5108, Note_on_c, 0, 67, 0
2, 5108, Note_on_c, 0, 70, 0
2, 5160, Note_on_c, 0, 70, 46
2, 5160, Note_on_c, 0, 67, 41
2, 5228, Note_on_c, 0, 67, 0
2, 5228, Note_on_c, 0, 70, 0
2, 5280, Note_on_c, 0, 70, 46
2, 5280, Note_on_c, 0, 67, 41
2, 5460, Note_on_c, 0, 67, 0
2, 5460, Note_on_c, 0, 70, 0
2, 5520, Note_on_c, 0, 67, 0
2, 5520, Note_on_c, 0, 58, 60
2, 5640, Note_on_c, 0, 58, 0
2, 5640, Note_on_c, 0, 62, 60
2, 5760, Note_on_c, 0, 62, 0
2, 5760, Note_on_c, 0, 65, 63
2, 6000, Note_on_c, 0, 70, 45
2, 6000, Note_on_c, 0, 74, 51
2, 6068, Note_on_c, 0, 74, 0
2, 6068, Note_on_c, 0, 70, 0
2, 6120, Note_on_c, 0, 70, 45
2, 6120, Note_on_c, 0, 74, 51
2, 6188, Note_on_c, 0, 74, 0
2, 6188, Note_on_c, 0, 70, 0
2, 6240, Note_on_c, 0, 70, 45
2, 6240, Note_on_c, 0, 74, 51
2, 6420, Note_on_c, 0, 74, 0
2, 6420, Note_on_c, 0, 70, 0
2, 6480, Note_on_c, 0, 65, 0
2, 6480, Note_on_c, 0, 58, 63
2, 6600, Note_on_c, 0, 58, 0
2, 6600, Note_on_c, 0, 62, 67
2, 6720, Note_on_c, 0, 62, 0
2, 6720, Note_on_c, 0, 63, 71
2, 6960, Note_on_c, 0, 79, 51
2, 6960, Note_on_c, 0, 72, 45
2, 6960, Note_on_c, 0, 67, 45
2, 7028, Note_on_c, 0, 67, 0
2, 7028, Note_on_c, 0, 72, 0
2, 7028, Note_on_c, 0, 79, 0
2, 7080, Note_on_c, 0, 79, 51
2, 7080, Note_on_c, 0, 72, 45
2, 7080, Note_on_c, 0, 67, 45
2, 7148, Note_on_c, 0, 67, 0
2, 7148, Note_on_c, 0, 72, 0
2, 7148, Note_on_c, 0, 79, 0
2, 7200, Note_on_c, 0, 67, 45
2, 7200, Note_on_c, 0, 72, 45
2, 7200, Note_on_c, 0, 79, 51
2, 7380, Note_on_c, 0, 79, 0
2, 7380, Note_on_c, 0, 72, 0
2, 7380, Note_on_c, 0, 67, 0
2, 7440, Note_on_c, 0, 63, 0
2, 7440, Note_on_c, 0, 55, 68
2, 7560, Note_on_c, 0, 55, 0
2, 7560, Note_on_c, 0, 57, 68
2, 7680, Note_on_c, 0, 57, 0
2, 7680, Note_on_c, 0, 62, 77
2, 7920, Note_on_c, 0, 78, 63
2, 7920, Note_on_c, 0, 74, 56
2, 7920, Note_on_c, 0, 66, 56
2, 7988, Note_on_c, 0, 66, 0
2, 7988, Note_on_c, 0, 74, 0
2, 7988, Note_on_c, 0, 78, 0
2, 8040, Note_on_c, 0, 66, 56
2, 8040, Note_on_c, 0, 74, 56
2, 8040, Note_on_c, 0, 78, 63
2, 8108, Note_on_c, 0, 78, 0
2, 8108, Note_on_c, 0, 74, 0
2, 8108, Note_on_c, 0, 66, 0
2, 8160, Note_on_c, 0, 66, 56
2, 8160, Note_on_c, 0, 74, 56
2, 8160, Note_on_c, 0, 78, 63
2, 8340, Note_on_c, 0, 78, 0
2, 8340, Note_on_c, 0, 74, 0
2, 8340, Note_on_c, 0, 66, 0
2, 8400, Note_on_c, 0, 62, 0
2, 8400, Note_on_c, 0, 54, 55
2, 8520, Note_on_c, 0, 54, 0
2, 8640, Note_on_c, 0, 58, 55
2, 8730, Note_on_c, 0, 58, 0
2, 8880, Note_on_c, 0, 55, 33
2, 8880, Note_on_c, 0, 62, 33
2, 8880, Note_on_c, 0, 64, 37
2, 9000, Note_on_c, 0, 64, 0
2, 9000, Note_on_c, 0, 62, 0
2, 9000, Note_on_c, 0, 55, 0
2, 9120, Note_on_c, 0, 55, 50
2, 9210, Note_on_c, 0, 55, 0
2, 9360, Note_on_c, 0, 58, 30
2, 9360, Note_on_c, 0, 62, 30
2, 9360, Note_on_c, 0, 64, 34
2, 9480, Note_on_c, 0, 64, 0
2, 9480, Note_on_c, 0, 62, 0
2, 9480, Note_on_c, 0, 58, 0
2, 9600, Note_on_c, 0, 50, 61
2, 9840, Note_on_c, 0, 62, 39
2, 9840, Note_on_c, 0, 66, 39
2, 9840, Note_on_c, 0, 74, 44
2, 9908, Note_on_c, 0, 74, 0
2, 9908, Note_on_c, 0, 66, 0
2, 9908, Note_on_c, 0, 62, 0
2, 9960, Note_on_c, 0, 62, 39
2, 9960, Note_on_c, 0, 66, 39
2, 9960, Note_on_c, 0, 74, 44
2, 10028, Note_on_c, 0, 74, 0
2, 10028, Note_on_c, 0, 66, 0
2, 10028, Note_on_c, 0, 62, 0
2, 10080, Note_on_c, 0, 62, 39
2, 10080, Note_on_c, 0, 66, 39
2, 10080, Note_on_c, 0, 74, 44
2, 10260, Note_on_c, 0, 74, 0
2, 10260, Note_on_c, 0, 66, 0
2, 10260, Note_on_c, 0, 62, 0
2, 10320, Note_on_c, 0, 50, 0
2, 10800, Note_on_c, 0, 62, 29
2, 10800, Note_on_c, 0, 55, 29
2, 10800, Note_on_c, 0, 64, 33
2, 10920, Note_on_c, 0, 64, 0
2, 10920, Note_on_c, 0, 55, 0
2, 10920, Note_on_c, 0, 62, 0
2, 11040, Note_on_c, 0, 55, 45
2, 11130, Note_on_c, 0, 55, 0
2, 11280, Note_on_c, 0, 58, 30
2, 11280, Note_on_c, 0, 62, 30
2, 11280, Note_on_c, 0, 64, 34
2, 11400, Note_on_c, 0, 64, 0
2, 11400, Note_on_c, 0, 62, 0
2, 11400, Note_on_c, 0, 58, 0
2, 11520, Note_on_c, 0, 50, 45
2, 11760, Note_on_c, 0, 62, 29
2, 11760, Note_on_c, 0, 66, 33
2, 11760, Note_on_c, 0, 74, 33
2, 11828, Note_on_c, 0, 74, 0
2, 11828, Note_on_c, 0, 66, 0
2, 11828, Note_on_c, 0, 62, 0
2, 11880, Note_on_c, 0, 62, 29
2, 11880, Note_on_c, 0, 66, 33
2, 11880, Note_on_c, 0, 74, 33
2, 11948, Note_on_c, 0, 74, 0
2, 11948, Note_on_c, 0, 66, 0
2, 11948, Note_on_c, 0, 62, 0
2, 12000, Note_on_c, 0, 62, 29
2, 12000, Note_on_c, 0, 66, 33
2, 12000, Note_on_c, 0, 74, 33
2, 12180, Note_on_c, 0, 74, 0
2, 12180, Note_on_c, 0, 66, 0
2, 12180, Note_on_c, 0, 62, 0
2, 12240, Note_on_c, 0, 50, 0
2, 12240, Note_on_c, 0, 54, 33
2, 12240, Note_on_c, 0, 57, 37
2, 12360, Note_on_c, 0, 57, 0
2, 12360, Note_on_c, 0, 54, 0
2, 12360, Note_on_c, 0, 58, 40
2, 12480, Note_on_c, 0, 58, 0
2, 12480, Note_on_c, 0, 51, 40
2, 12480, Note_on_c, 0, 55, 40
2, 12480, Note_on_c, 0, 60, 45
2, 12600, Note_on_c, 0, 60, 0
2, 12600, Note_on_c, 0, 55, 0
2, 12600, Note_on_c, 0, 51, 0
2, 12720, Note_on_c, 0, 55, 46
2, 12720, Note_on_c, 0, 60, 46
2, 12720, Note_on_c, 0, 63, 46
2, 12810, Note_on_c, 0, 63, 0
2, 12810, Note_on_c, 0, 60, 0
2, 12810, Note_on_c, 0, 55, 0
2, 12960, Note_on_c, 0, 57, 45
2, 12960, Note_on_c, 0, 60, 45
2, 12960, Note_on_c, 0, 63, 45
2, 12960, Note_on_c, 0, 69, 50
2, 13050, Note_on_c, 0, 69, 0
2, 13050, Note_on_c, 0, 57, 0
2, 13050, Note_on_c, 0, 60, 0
2, 13050, Note_on_c, 0, 63, 0
2, 13200, Note_on_c, 0, 57, 41
2, 13200, Note_on_c, 0, 62, 46
2, 13200, Note_on_c, 0, 66, 46
2, 13290, Note_on_c, 0, 66, 0
2, 13290, Note_on_c, 0, 62, 0
2, 13290, Note_on_c, 0, 57, 0
2, 13440, Note_on_c, 0, 55, 37
2, 13440, Note_on_c, 0, 62, 37
2, 13440, Note_on_c, 0, 67, 42
2, 13530, Note_on_c, 0, 67, 0
2, 13530, Note_on_c, 0, 62, 0
2, 13530, Note_on_c, 0, 55, 0
2, 13680, Note_on_c, 0, 58, 36
2, 13680, Note_on_c, 0, 62, 36
2, 13680, Note_on_c, 0, 70, 40
2, 13770, Note_on_c, 0, 70, 0
2, 13770, Note_on_c, 0, 62, 0
2, 13770, Note_on_c, 0, 58, 0
2, 13920, Note_on_c, 0, 60, 41
2, 13920, Note_on_c, 0, 62, 41
2, 13920, Note_on_c, 0, 69, 46
2, 14040, Note_on_c, 0, 69, 0
2, 14040, Note_on_c, 0, 62, 0
2, 14040, Note_on_c, 0, 60, 0
2, 14040, Note_on_c, 0, 60, 38
2, 14040, Note_on_c, 0, 62, 38
2, 14040, Note_on_c, 0, 69, 43
2, 14160, Note_on_c, 0, 69, 0
2, 14160, Note_on_c, 0, 62, 0
2, 14160, Note_on_c, 0, 60, 0
2, 14160, Note_on_c, 0, 58, 38
2, 14160, Note_on_c, 0, 62, 38
2, 14160, Note_on_c, 0, 70, 43
2, 14280, Note_on_c, 0, 70, 0
2, 14280, Note_on_c, 0, 62, 0
2, 14280, Note_on_c, 0, 58, 0
2, 14400, Note_on_c, 0, 57, 36
2, 14400, Note_on_c, 0, 62, 36
2, 14400, Note_on_c, 0, 66, 40
2, 14490, Note_on_c, 0, 66, 0
2, 14490, Note_on_c, 0, 62, 0
2, 14490, Note_on_c, 0, 57, 0
2, 14640, Note_on_c, 0, 55, 36
2, 14640, Note_on_c, 0, 62, 36
2, 14640, Note_on_c, 0, 67, 40
2, 14730, Note_on_c, 0, 67, 0
2, 14730, Note_on_c, 0, 62, 0
2, 14730, Note_on_c, 0, 55, 0
2, 14880, Note_on_c, 0, 55, 38
2, 14880, Note_on_c, 0, 61, 38
2, 14880, Note_on_c, 0, 63, 43
2, 14970, Note_on_c, 0, 63, 0
2, 14970, Note_on_c, 0, 61, 0
2, 14970, Note_on_c, 0, 55, 0
2, 15000, Note_on_c, 0, 55, 32
2, 15000, Note_on_c, 0, 61, 32
2, 15000, Note_on_c, 0, 63, 36
2, 15090, Note_on_c, 0, 63, 0
2, 15090, Note_on_c, 0, 61, 0
2, 15090, Note_on_c, 0, 55, 0
2, 15120, Note_on_c, 0, 55, 33
2, 15120, Note_on_c, 0, 61, 33
2, 15120, Note_on_c, 0, 63, 37
2, 15210, Note_on_c, 0, 63, 0
2, 15210, Note_on_c, 0, 61, 0
2, 15210, Note_on_c, 0, 55, 0
2, 15360, Note_on_c, 0, 55, 29
2, 15360, Note_on_c, 0, 61, 29
2, 15360, Note_on_c, 0, 64, 33
2, 15450, Note_on_c, 0, 64, 0
2, 15450, Note_on_c, 0, 61, 0
2, 15450, Note_on_c, 0, 55, 0
2, 15600, Note_on_c, 0, 54, 29
2, 15600, Note_on_c, 0, 62, 29
2, 15600, Note_on_c, 0, 66, 33
2, 15690, Note_on_c, 0, 66, 0
2, 15690, Note_on_c, 0, 62, 0
2, 15690, Note_on_c, 0, 54, 0
2, 15840, Note_on_c, 0, 50, 38
2, 16080, Note_on_c, 0, 50, 0
2, 16320, Control_c, 0, 91, 127
2, 16320, Note_on_c, 0, 55, 56
2, 16440, Note_on_c, 0, 55, 0
2, 16560, Note_on_c, 0, 58, 40
2, 16560, Note_on_c, 0, 62, 45
2, 16628, Note_on_c, 0, 62, 0
2, 16628, Note_on_c, 0, 58, 0
2, 16680, Note_on_c, 0, 58, 40
2, 16680, Note_on_c, 0, 62, 45
2, 16748, Note_on_c, 0, 62, 0
2, 16748, Note_on_c, 0, 58, 0
2, 16800, Note_on_c, 0, 58, 40
2, 16800, Note_on_c, 0, 62, 45
2, 16860, Note_on_c, 0, 62, 0
2, 16860, Note_on_c, 0, 58, 0
2, 17520, Note_on_c, 0, 58, 38
2, 17520, Note_on_c, 0, 62, 43
2, 17640, Note_on_c, 0, 62, 0
2, 17640, Note_on_c, 0, 58, 0
2, 17760, Note_on_c, 0, 58, 57
2, 17850, Note_on_c, 0, 58, 0
2, 18000, Note_on_c, 0, 58, 39
2, 18000, Note_on_c, 0, 62, 44
2, 18120, Note_on_c, 0, 62, 0
2, 18120, Note_on_c, 0, 58, 0
2, 18240, Note_on_c, 0, 55, 62
2, 18360, Note_on_c, 0, 55, 0
2, 18480, Note_on_c, 0, 58, 38
2, 18480, Note_on_c, 0, 62, 43
2, 18548, Note_on_c, 0, 62, 0
2, 18548, Note_on_c, 0, 58, 0
2, 18600, Note_on_c, 0, 58, 38
2, 18600, Note_on_c, 0, 62, 43
2, 18668, Note_on_c, 0, 62, 0
2, 18668, Note_on_c, 0, 58, 0
2, 18720, Note_on_c, 0, 58, 38
2, 18720, Note_on_c, 0, 62, 43
2, 18780, Note_on_c, 0, 62, 0
2, 18780, Note_on_c, 0, 58, 0
2, 19440, Note_on_c, 0, 58, 38
2, 19440, Note_on_c, 0, 62, 43
2, 19560, Note_on_c, 0, 62, 0
2, 19560, Note_on_c, 0, 58, 0
2, 19680, Note_on_c, 0, 58, 57
2, 19770, Note_on_c, 0, 58, 0
2, 19920, Note_on_c, 0, 58, 38
2, 19920, Note_on_c, 0, 62, 43
2, 20040, Note_on_c, 0, 62, 0
2, 20040, Note_on_c, 0, 58, 0
2, 20160, Note_on_c, 0, 55, 57
2, 20280, Note_on_c, 0, 55, 0
2, 20400, Note_on_c, 0, 58, 39
2, 20400, Note_on_c, 0, 62, 44
2, 20468, Note_on_c, 0, 62, 0
2, 20468, Note_on_c, 0, 58, 0
2, 20520, Note_on_c, 0, 58, 39
2, 20520, Note_on_c, 0, 62, 44
2, 20588, Note_on_c, 0, 62, 0
2, 20588, Note_on_c, 0, 58, 0
2, 20640, Note_on_c, 0, 58, 39
2, 20640, Note_on_c, 0, 62, 44
2, 20700, Note_on_c, 0, 62, 0
2, 20700, Note_on_c, 0, 58, 0
2, 20880, Note_on_c, 0, 62, 56
2, 21000, Note_on_c, 0, 62, 0
2, 21000, Note_on_c, 0, 65, 60
2, 21120, Note_on_c, 0, 65, 0
2, 21120, Note_on_c, 0, 67, 63
2, 21360, Note_on_c, 0, 70, 46
2, 21360, Note_on_c, 0, 67, 41
2, 21428, Note_on_c, 0, 67, 0
2, 21428, Note_on_c, 0, 70, 0
2, 21480, Note_on_c, 0, 70, 46
2, 21480, Note_on_c, 0, 67, 41
2, 21548, Note_on_c, 0, 67, 0
2, 21548, Note_on_c, 0, 70, 0
2, 21600, Note_on_c, 0, 70, 46
2, 21600, Note_on_c, 0, 67, 41
2, 21780, Note_on_c, 0, 67, 0
2, 21780, Note_on_c, 0, 70, 0
2, 21840, Note_on_c, 0, 67, 0
2, 21840, Note_on_c, 0, 58, 60
2, 21960, Note_on_c, 0, 58, 0
2, 21960, Note_on_c, 0, 62, 60
2, 22080, Note_on_c, 0, 62, 0
2, 22080, Note_on_c, 0, 65, 63
2, 22320, Note_on_c, 0, 70, 45
2, 22320, Note_on_c, 0, 74, 51
2, 22388, Note_on_c, 0, 74, 0
2, 22388, Note_on_c, 0, 70, 0
2, 22440, Note_on_c, 0, 70, 45
2, 22440, Note_on_c, 0, 74, 51
2, 22508, Note_on_c, 0, 74, 0
2, 22508, Note_on_c, 0, 70, 0
2, 22560, Note_on_c, 0, 70, 45
2, 22560, Note_on_c, 0, 74, 51
2, 22740, Note_on_c, 0, 74, 0
2, 22740, Note_on_c, 0, 70, 0
2, 22800, Note_on_c, 0, 65, 0
2, 22800, Note_on_c, 0, 65, 66
2, 22920, Note_on_c, 0, 65, 0
2, 22920, Note_on_c, 0, 69, 70
2, 23040, Note_on_c, 0, 69, 0
2, 23040, Note_on_c, 0, 70, 74
2, 23280, Note_on_c, 0, 75, 51
2, 23280, Note_on_c, 0, 70, 45
2, 23280, Note_on_c, 0, 66, 45
2, 23348, Note_on_c, 0, 66, 0
2, 23348, Note_on_c, 0, 70, 0
2, 23348, Note_on_c, 0, 75, 0
2, 23400, Note_on_c, 0, 75, 51
2, 23400, Note_on_c, 0, 70, 45
2, 23400, Note_on_c, 0, 66, 45
2, 23468, Note_on_c, 0, 66, 0
2, 23468, Note_on_c, 0, 70, 0
2, 23468, Note_on_c, 0, 75, 0
2, 23520, Note_on_c, 0, 66, 45
2, 23520, Note_on_c, 0, 70, 45
2, 23520, Note_on_c, 0, 75, 51
2, 23700, Note_on_c, 0, 75, 0
2, 23700, Note_on_c, 0, 70, 0
2, 23700, Note_on_c, 0, 66, 0
2, 23760, Note_on_c, 0, 70, 0
2, 23760, Note_on_c, 0, 62, 68
2, 23880, Note_on_c, 0, 62, 0
2, 23880, Note_on_c, 0, 66, 68
2, 24000, Note_on_c, 0, 66, 0
2, 24000, Note_on_c, 0, 69, 75
2, 24240, Note_on_c, 0, 78, 60
2, 24240, Note_on_c, 0, 74, 54
2, 24240, Note_on_c, 0, 66, 54
2, 24308, Note_on_c, 0, 66, 0
2, 24308, Note_on_c, 0, 74, 0
2, 24308, Note_on_c, 0, 78, 0
2, 24360, Note_on_c, 0, 66, 54
2, 24360, Note_on_c, 0, 74, 54
2, 24360, Note_on_c, 0, 78, 60
2, 24428, Note_on_c, 0, 78, 0
2, 24428, Note_on_c, 0, 74, 0
2, 24428, Note_on_c, 0, 66, 0
2, 24480, Note_on_c, 0, 66, 54
2, 24480, Note_on_c, 0, 74, 54
2, 24480, Note_on_c, 0, 78, 60
2, 24660, Note_on_c, 0, 78, 0
2, 24660, Note_on_c, 0, 74, 0
2, 24660, Note_on_c, 0, 66, 0
2, 24720, Note_on_c, 0, 69, 0
2, 24720, Note_on_c, 0, 69, 72
2, 24840, Note_on_c, 0, 69, 0
2, 24840, Note_on_c, 0, 72, 72
2, 24960, Note_on_c, 0, 72, 0
2, 24960, Note_on_c, 0, 74, 77
2, 25200, Note_on_c, 0, 82, 65
2, 25200, Note_on_c, 0, 79, 58
2, 25200, Note_on_c, 0, 70, 58
2, 25268, Note_on_c, 0, 70, 0
2, 25268, Note_on_c, 0, 79, 0
2, 25268, Note_on_c, 0, 82, 0
2, 25320, Note_on_c, 0, 82, 65
2, 25320, Note_on_c, 0, 79, 58
2, 25320, Note_on_c, 0, 70, 58
2, 25388, Note_on_c, 0, 70, 0
2, 25388, Note_on_c, 0, 79, 0
2, 25388, Note_on_c, 0, 82, 0
2, 25440, Note_on_c, 0, 70, 58
2, 25440, Note_on_c, 0, 79, 58
2, 25440, Note_on_c, 0, 82, 65
2, 25620, Note_on_c, 0, 82, 0
2, 25620, Note_on_c, 0, 79, 0
2, 25620, Note_on_c, 0, 70, 0
2, 25680, Note_on_c, 0, 74, 0
2, 25680, Note_on_c, 0, 62, 72
2, 25800, Note_on_c, 0, 62, 0
2, 25920, Note_on_c, 0, 61, 72
2, 26040, Note_on_c, 0, 61, 0
2, 26160, Note_on_c, 0, 60, 69
2, 26280, Note_on_c, 0, 60, 0
2, 26400, Note_on_c, 0, 69, 62
2, 26400, Note_on_c, 0, 75, 62
2, 26400, Note_on_c, 0, 81, 69
2, 26520, Note_on_c, 0, 81, 0
2, 26520, Note_on_c, 0, 75, 0
2, 26520, Note_on_c, 0, 69, 0
2, 26640, Note_on_c, 0, 66, 64
2, 26640, Note_on_c, 0, 74, 64
2, 26640, Note_on_c, 0, 78, 72
2, 26760, Note_on_c, 0, 78, 0
2, 26760, Note_on_c, 0, 74, 0
2, 26760, Note_on_c, 0, 66, 0
2, 26880, Note_on_c, 0, 67, 71
2, 26880, Note_on_c, 0, 74, 71
2, 26880, Note_on_c, 0, 79, 79
2, 27120, Note_on_c, 0, 79, 0
2, 27120, Note_on_c, 0, 74, 0
2, 27120, Note_on_c, 0, 67, 0
2, 27120, Note_on_c, 0, 58, 69
2, 27240, Note_on_c, 0, 58, 0
2, 27360, Note_on_c, 0, 59, 69
2, 27480, Note_on_c, 0, 59, 0
2, 27600, Note_on_c, 0, 63, 64
2, 27600, Note_on_c, 0, 67, 64
2, 27600, Note_on_c, 0, 75, 72
2, 27720, Note_on_c, 0, 75, 0
2, 27720, Note_on_c, 0, 67, 0
2, 27720, Note_on_c, 0, 63, 0
2, 27840, Note_on_c, 0, 60, 72
2, 27960, Note_on_c, 0, 60, 0
2, 28080, Note_on_c, 0, 57, 64
2, 28080, Note_on_c, 0, 60, 64
2, 28080, Note_on_c, 0, 66, 72
2, 28200, Note_on_c, 0, 66, 0
2, 28200, Note_on_c, 0, 60, 0
2, 28200, Note_on_c, 0, 57, 0
2, 28320, Note_on_c, 0, 55, 70
2, 28320, Note_on_c, 0, 58, 70
2, 28320, Note_on_c, 0, 67, 78
2, 28560, Note_on_c, 0, 67, 0
2, 28560, Note_on_c, 0, 58, 0
2, 28560, Note_on_c, 0, 55, 0
2, 28800, Control_c, 0, 91, 127
2, 28800, Note_on_c, 0, 82, 90
2, 28800, Note_on_c, 0, 79, 90
2, 28800, Note_on_c, 0, 75, 81
2, 28800, Note_on_c, 0, 70, 81
2, 29040, Note_on_c, 0, 70, 0
2, 29040, Note_on_c, 0, 82, 0
2, 29040, Note_on_c, 0, 79, 0
2, 29040, Note_on_c, 0, 75, 0
2, 29040, Note_on_c, 0, 67, 72
2, 29040, Note_on_c, 0, 70, 72
2, 29040, Note_on_c, 0, 75, 81
2, 29040, Note_on_c, 0, 79, 81
2, 29108, Note_on_c, 0, 79, 0
2, 29108, Note_on_c, 0, 67, 0
2, 29108, Note_on_c, 0, 70, 0
2, 29108, Note_on_c, 0, 75, 0
2, 29160, Note_on_c, 0, 67, 72
2, 29160, Note_on_c, 0, 70, 72
2, 29160, Note_on_c, 0, 75, 81
2, 29160, Note_on_c, 0, 79, 81
2, 29228, Note_on_c, 0, 79, 0
2, 29228, Note_on_c, 0, 67, 0
2, 29228, Note_on_c, 0, 70, 0
2, 29228, Note_on_c, 0, 75, 0
2, 29280, Note_on_c, 0, 67, 72
2, 29280, Note_on_c, 0, 70, 72
2, 29280, Note_on_c, 0, 75, 81
2, 29280, Note_on_c, 0, 79, 81
2, 29348, Note_on_c, 0, 79, 0
2, 29348, Note_on_c, 0, 67, 0
2, 29348, Note_on_c, 0, 70, 0
2, 29348, Note_on_c, 0, 75, 0
2, 29520, Note_on_c, 0, 55, 60
2, 29520, Note_on_c, 0, 58, 60
2, 29520, Note_on_c, 0, 63, 67
2, 29520, Note_on_c, 0, 67, 67
2, 29588, Note_on_c, 0, 67, 0
2, 29588, Note_on_c, 0, 55, 0
2, 29588, Note_on_c, 0, 58, 0
2, 29588, Note_on_c, 0, 63, 0
2, 29640, Note_on_c, 0, 55, 60
2, 29640, Note_on_c, 0, 58, 60
2, 29640, Note_on_c, 0, 63, 67
2, 29640, Note_on_c, 0, 67, 67
2, 29708, Note_on_c, 0, 67, 0
2, 29708, Note_on_c, 0, 55, 0
2, 29708, Note_on_c, 0, 58, 0
2, 29708, Note_on_c, 0, 63, 0
2, 29760, Note_on_c, 0, 55, 60
2, 29760, Note_on_c, 0, 58, 60
2, 29760, Note_on_c, 0, 63, 67
2, 29760, Note_on_c, 0, 67, 67
2, 29828, Note_on_c, 0, 67, 0
2, 29828, Note_on_c, 0, 55, 0
2, 29828, Note_on_c, 0, 58, 0
2, 29828, Note_on_c, 0, 63, 0
2, 30000, Note_on_c, 0, 79, 86
2, 30000, Note_on_c, 0, 75, 86
2, 30000, Note_on_c, 0, 70, 77
2, 30000, Note_on_c, 0, 67, 77
2, 30090, Note_on_c, 0, 67, 0
2, 30090, Note_on_c, 0, 79, 0
2, 30090, Note_on_c, 0, 75, 0
2, 30090, Note_on_c, 0, 70, 0
2, 30240, Note_on_c, 0, 70, 77
2, 30240, Note_on_c, 0, 82, 86
2, 30240, Note_on_c, 0, 79, 86
2, 30360, Note_on_c, 0, 79, 0
2, 30360, Note_on_c, 0, 82, 0
2, 30360, Note_on_c, 0, 70, 0
2, 30360, Note_on_c, 0, 84, 86
2, 30360, Note_on_c, 0, 72, 86
2, 30480, Note_on_c, 0, 72, 0
2, 30480, Note_on_c, 0, 84, 0
2, 30480, Note_on_c, 0, 86, 86
2, 30480, Note_on_c, 0, 74, 86
2, 30600, Note_on_c, 0, 74, 0
2, 30600, Note_on_c, 0, 86, 0
2, 30600, Note_on_c, 0, 87, 86
2, 30600, Note_on_c, 0, 75, 86
2, 30720, Note_on_c, 0, 75, 0
2, 30720, Note_on_c, 0, 87, 0
2, 30720, Note_on_c, 0, 86, 90
2, 30720, Note_on_c, 0, 82, 90
2, 30720, Note_on_c, 0, 74, 90
2, 30960, Note_on_c, 0, 74, 0
2, 30960, Note_on_c, 0, 82, 0
2, 30960, Note_on_c, 0, 86, 0
2, 30960, Note_on_c, 0, 65, 72
2, 30960, Note_on_c, 0, 70, 72
2, 30960, Note_on_c, 0, 74, 81
2, 30960, Note_on_c, 0, 77, 81
2, 31028, Note_on_c, 0, 77, 0
2, 31028, Note_on_c, 0, 65, 0
2, 31028, Note_on_c, 0, 70, 0
2, 31028, Note_on_c, 0, 74, 0
2, 31080, Note_on_c, 0, 65, 72
2, 31080, Note_on_c, 0, 70, 72
2, 31080, Note_on_c, 0, 74, 81
2, 31080, Note_on_c, 0, 77, 81
2, 31148, Note_on_c, 0, 77, 0
2, 31148, Note_on_c, 0, 65, 0
2, 31148, Note_on_c, 0, 70, 0
2, 31148, Note_on_c, 0, 74, 0
2, 31200, Note_on_c, 0, 65, 72
2, 31200, Note_on_c, 0, 70, 72
2, 31200, Note_on_c, 0, 74, 81
2, 31200, Note_on_c, 0, 77, 81
2, 31268, Note_on_c, 0, 77, 0
2, 31268, Note_on_c, 0, 65, 0
2, 31268, Note_on_c, 0, 70, 0
2, 31268, Note_on_c, 0, 74, 0
2, 31440, Note_on_c, 0, 53, 59
2, 31440, Note_on_c, 0, 58, 59
2, 31440, Note_on_c, 0, 62, 66
2, 31440, Note_on_c, 0, 65, 66
2, 31508, Note_on_c, 0, 65, 0
2, 31508, Note_on_c, 0, 53, 0
2, 31508, Note_on_c, 0, 58, 0
2, 31508, Note_on_c, 0, 62, 0
2, 31560, Note_on_c, 0, 53, 59
2, 31560, Note_on_c, 0, 58, 59
2, 31560, Note_on_c, 0, 62, 66
2, 31560, Note_on_c, 0, 65, 66
2, 31628, Note_on_c, 0, 65, 0
2, 31628, Note_on_c, 0, 53, 0
2, 31628, Note_on_c, 0, 58, 0
2, 31628, Note_on_c, 0, 62, 0
2, 31680, Note_on_c, 0, 53, 59
2, 31680, Note_on_c, 0, 58, 59
2, 31680, Note_on_c, 0, 62, 66
2, 31680, Note_on_c, 0, 65, 66
2, 31748, Note_on_c, 0, 65, 0
2, 31748, Note_on_c, 0, 53, 0
2, 31748, Note_on_c, 0, 58, 0
2, 31748, Note_on_c, 0, 62, 0
2, 31920, Note_on_c, 0, 65, 76
2, 31920, Note_on_c, 0, 70, 76
2, 31920, Note_on_c, 0, 74, 85
2, 31920, Note_on_c, 0, 77, 85
2, 32010, Note_on_c, 0, 77, 0
2, 32010, Note_on_c, 0, 65, 0
2, 32010, Note_on_c, 0, 70, 0
2, 32010, Note_on_c, 0, 74, 0
2, 32160, Note_on_c, 0, 86, 86
2, 32160, Note_on_c, 0, 82, 86
2, 32160, Note_on_c, 0, 74, 77
2, 32280, Note_on_c, 0, 74, 0
2, 32280, Note_on_c, 0, 82, 0
2, 32280, Note_on_c, 0, 86, 0
2, 32280, Note_on_c, 0, 88, 86
2, 32400, Note_on_c, 0, 88, 0
2, 32400, Note_on_c, 0, 77, 86
2, 32400, Note_on_c, 0, 89, 86
2, 32520, Note_on_c, 0, 89, 0
2, 32520, Note_on_c, 0, 77, 0
2, 32520, Note_on_c, 0, 91, 86
2, 32640, Note_on_c, 0, 91, 0
2, 32640, Note_on_c, 0, 77, 81
2, 32640, Note_on_c, 0, 86, 90
2, 32640, Note_on_c, 0, 89, 90
2, 32880, Note_on_c, 0, 89, 0
2, 32880, Note_on_c, 0, 86, 0
2, 32880, Note_on_c, 0, 77, 0
2, 32880, Note_on_c, 0, 69, 72
2, 32880, Note_on_c, 0, 74, 72
2, 32880, Note_on_c, 0, 77, 81
2, 32880, Note_on_c, 0, 81, 81
2, 32948, Note_on_c, 0, 81, 0
2, 32948, Note_on_c, 0, 69, 0
2, 32948, Note_on_c, 0, 74, 0
2, 32948, Note_on_c, 0, 77, 0
2, 33000, Note_on_c, 0, 69, 72
2, 33000, Note_on_c, 0, 74, 72
2, 33000, Note_on_c, 0, 77, 81
2, 33000, Note_on_c, 0, 81, 81
2, 33068, Note_on_c, 0, 81, 0
2, 33068, Note_on_c, 0, 69, 0
2, 33068, Note_on_c, 0, 74, 0
2, 33068, Note_on_c, 0, 77, 0
2, 33120, Note_on_c, 0, 69, 72
2, 33120, Note_on_c, 0, 74, 72
2, 33120, Note_on_c, 0, 77, 81
2, 33120, Note_on_c, 0, 81, 81
2, 33188, Note_on_c, 0, 81, 0
2, 33188, Note_on_c, 0, 69, 0
2, 33188, Note_on_c, 0, 74, 0
2, 33188, Note_on_c, 0, 77, 0
2, 33360, Note_on_c, 0, 57, 59
2, 33360, Note_on_c, 0, 62, 59
2, 33360, Note_on_c, 0, 65, 66
2, 33360, Note_on_c, 0, 69, 66
2, 33428, Note_on_c, 0, 69, 0
2, 33428, Note_on_c, 0, 57, 0
2, 33428, Note_on_c, 0, 62, 0
2, 33428, Note_on_c, 0, 65, 0
2, 33480, Note_on_c, 0, 57, 59
2, 33480, Note_on_c, 0, 62, 59
2, 33480, Note_on_c, 0, 65, 66
2, 33480, Note_on_c, 0, 69, 66
2, 33548, Note_on_c, 0, 69, 0
2, 33548, Note_on_c, 0, 57, 0
2, 33548, Note_on_c, 0, 62, 0
2, 33548, Note_on_c, 0, 65, 0
2, 33600, Note_on_c, 0, 57, 59
2, 33600, Note_on_c, 0, 62, 59
2, 33600, Note_on_c, 0, 65, 66
2, 33600, Note_on_c, 0, 69, 66
2, 33668, Note_on_c, 0, 69, 0
2, 33668, Note_on_c, 0, 57, 0
2, 33668, Note_on_c, 0, 62, 0
2, 33668, Note_on_c, 0, 65, 0
2, 33840, Note_on_c, 0, 65, 76
2, 33840, Note_on_c, 0, 69, 76
2, 33840, Note_on_c, 0, 74, 85
2, 33840, Note_on_c, 0, 77, 85
2, 33930, Note_on_c, 0, 77, 0
2, 33930, Note_on_c, 0, 65, 0
2, 33930, Note_on_c, 0, 69, 0
2, 33930, Note_on_c, 0, 74, 0
2, 34080, Note_on_c, 0, 69, 76
2, 34080, Note_on_c, 0, 77, 85
2, 34080, Note_on_c, 0, 81, 85
2, 34200, Note_on_c, 0, 81, 0
2, 34200, Note_on_c, 0, 77, 0
2, 34200, Note_on_c, 0, 69, 0
2, 34200, Note_on_c, 0, 83, 85
2, 34320, Note_on_c, 0, 83, 0
2, 34320, Note_on_c, 0, 72, 85
2, 34320, Note_on_c, 0, 84, 85
2, 34440, Note_on_c, 0, 84, 0
2, 34440, Note_on_c, 0, 72, 0
2, 34440, Note_on_c, 0, 86, 85
2, 34560, Note_on_c, 0, 86, 0
2, 34560, Note_on_c, 0, 72, 81
2, 34560, Note_on_c, 0, 81, 90
2, 34560, Note_on_c, 0, 84, 90
2, 34800, Note_on_c, 0, 84, 0
2, 34800, Note_on_c, 0, 81, 0
2, 34800, Note_on_c, 0, 72, 0
2, 34800, Note_on_c, 0, 69, 75
2, 34800, Note_on_c, 0, 72, 75
2, 34800, Note_on_c, 0, 77, 84
2, 34800, Note_on_c, 0, 81, 84
2, 34868, Note_on_c, 0, 81, 0
2, 34868, Note_on_c, 0, 69, 0
2, 34868, Note_on_c, 0, 72, 0
2, 34868, Note_on_c, 0, 77, 0
2, 34920, Note_on_c, 0, 69, 75
2, 34920, Note_on_c, 0, 72, 75
2, 34920, Note_on_c, 0, 77, 84
2, 34920, Note_on_c, 0, 81, 84
2, 34988, Note_on_c, 0, 81, 0
2, 34988, Note_on_c, 0, 69, 0
2, 34988, Note_on_c, 0, 72, 0
2, 34988, Note_on_c, 0, 77, 0
2, 35040, Note_on_c, 0, 69, 75
2, 35040, Note_on_c, 0, 72, 75
2, 35040, Note_on_c, 0, 77, 84
2, 35040, Note_on_c, 0, 81, 84
2, 35108, Note_on_c, 0, 81, 0
2, 35108, Note_on_c, 0, 69, 0
2, 35108, Note_on_c, 0, 72, 0
2, 35108, Note_on_c, 0, 77, 0
2, 35280, Note_on_c, 0, 60, 64
2, 35280, Note_on_c, 0, 65, 64
2, 35280, Note_on_c, 0, 69, 72
2, 35280, Note_on_c, 0, 72, 72
2, 35348, Note_on_c, 0, 72, 0
2, 35348, Note_on_c, 0, 60, 0
2, 35348, Note_on_c, 0, 65, 0
2, 35348, Note_on_c, 0, 69, 0
2, 35400, Note_on_c, 0, 60, 64
2, 35400, Note_on_c, 0, 65, 64
2, 35400, Note_on_c, 0, 69, 72
2, 35400, Note_on_c, 0, 72, 72
2, 35468, Note_on_c, 0, 72, 0
2, 35468, Note_on_c, 0, 60, 0
2, 35468, Note_on_c, 0, 65, 0
2, 35468, Note_on_c, 0, 69, 0
2, 35520, Note_on_c, 0, 60, 64
2, 35520, Note_on_c, 0, 65, 64
2, 35520, Note_on_c, 0, 69, 72
2, 35520, Note_on_c, 0, 72, 72
2, 35588, Note_on_c, 0, 72, 0
2, 35588, Note_on_c, 0, 60, 0
2, 35588, Note_on_c, 0, 65, 0
2, 35588, Note_on_c, 0, 69, 0
2, 35760, Note_on_c, 0, 69, 83
2, 35760, Note_on_c, 0, 72, 83
2, 35760, Note_on_c, 0, 77, 83
2, 35760, Note_on_c, 0, 81, 83
2, 35850, Note_on_c, 0, 81, 0
2, 35850, Note_on_c, 0, 69, 0
2, 35850, Note_on_c, 0, 72, 0
2, 35850, Note_on_c, 0, 77, 0
2, 36000, Note_on_c, 0, 72, 83
2, 36000, Note_on_c, 0, 80, 83
2, 36000, Note_on_c, 0, 84, 83
2, 36120, Note_on_c, 0, 84, 0
2, 36120, Note_on_c, 0, 80, 0
2, 36120, Note_on_c, 0, 72, 0
2, 36120, Note_on_c, 0, 86, 83
2, 36240, Note_on_c, 0, 86, 0
2, 36240, Note_on_c, 0, 75, 83
2, 36240, Note_on_c, 0, 87, 83
2, 36360, Note_on_c, 0, 87, 0
2, 36360, Note_on_c, 0, 75, 0
2, 36360, Note_on_c, 0, 89, 83
2, 36480, Note_on_c, 0, 89, 0
2, 36480, Note_on_c, 0, 75, 80
2, 36480, Note_on_c, 0, 84, 89
2, 36480, Note_on_c, 0, 87, 89
2, 36720, Note_on_c, 0, 87, 0
2, 36720, Note_on_c, 0, 84, 0
2, 36720, Note_on_c, 0, 75, 0
2, 36720, Note_on_c, 0, 60, 81
2, 36720, Note_on_c, 0, 67, 81
2, 36788, Note_on_c, 0, 67, 0
2, 36788, Note_on_c, 0, 60, 0
2, 36840, Note_on_c, 0, 60, 81
2, 36840, Note_on_c, 0, 67, 81
2, 36908, Note_on_c, 0, 67, 0
2, 36908, Note_on_c, 0, 60, 0
2, 36960, Note_on_c, 0, 60, 81
2, 36960, Note_on_c, 0, 67, 81
2, 37028, Note_on_c, 0, 67, 0
2, 37028, Note_on_c, 0, 60, 0
2, 37200, Note_on_c, 0, 87, 86
2, 37200, Note_on_c, 0, 75, 86
2, 37320, Note_on_c, 0, 75, 0
2, 37320, Note_on_c, 0, 87, 0
2, 37320, Note_on_c, 0, 89, 86
2, 37320, Note_on_c, 0, 77, 86
2, 37440, Note_on_c, 0, 77, 0
2, 37440, Note_on_c, 0, 89, 0
2, 37440, Note_on_c, 0, 91, 90
2, 37440, Note_on_c, 0, 86, 90
2, 37440, Note_on_c, 0, 82, 81
2, 37440, Note_on_c, 0, 79, 81
2, 37680, Note_on_c, 0, 79, 0
2, 37680, Note_on_c, 0, 91, 0
2, 37680, Note_on_c, 0, 86, 0
2, 37680, Note_on_c, 0, 82, 0
2, 37680, Note_on_c, 0, 62, 81
2, 37680, Note_on_c, 0, 67, 81
2, 37748, Note_on_c, 0, 67, 0
2, 37748, Note_on_c, 0, 62, 0
2, 37800, Note_on_c, 0, 62, 81
2, 37800, Note_on_c, 0, 67, 81
2, 37868, Note_on_c, 0, 67, 0
2, 37868, Note_on_c, 0, 62, 0
2, 37920, Note_on_c, 0, 62, 81
2, 37920, Note_on_c, 0, 67, 81
2, 37988, Note_on_c, 0, 67, 0
2, 37988, Note_on_c, 0, 62, 0
2, 38160, Note_on_c, 0, 86, 90
2, 38280, Note_on_c, 0, 86, 0
2, 38280, Note_on_c, 0, 91, 90
2, 38400, Note_on_c, 0, 91, 0
2, 38400, Note_on_c, 0, 86, 95
2, 38400, Note_on_c, 0, 81, 85
2, 38400, Note_on_c, 0, 93, 95
2, 38640, Note_on_c, 0, 93, 0
2, 38640, Note_on_c, 0, 81, 0
2, 38640, Note_on_c, 0, 86, 0
2, 38640, Note_on_c, 0, 74, 83
2, 38640, Note_on_c, 0, 76, 83
2, 38640, Note_on_c, 0, 81, 83
2, 38708, Note_on_c, 0, 81, 0
2, 38708, Note_on_c, 0, 76, 0
2, 38708, Note_on_c, 0, 74, 0
2, 38760, Note_on_c, 0, 74, 82
2, 38760, Note_on_c, 0, 76, 82
2, 38760, Note_on_c, 0, 81, 82
2, 38828, Note_on_c, 0, 81, 0
2, 38828, Note_on_c, 0, 76, 0
2, 38828, Note_on_c, 0, 74, 0
2, 38880, Note_on_c, 0, 74, 82
2, 38880, Note_on_c, 0, 76, 82
2, 38880, Note_on_c, 0, 81, 82
2, 38948, Note_on_c, 0, 81, 0
2, 38948, Note_on_c, 0, 76, 0
2, 38948, Note_on_c, 0, 74, 0
2, 39120, Note_on_c, 0, 62, 69
2, 39120, Note_on_c, 0, 64, 77
2, 39120, Note_on_c, 0, 69, 77
2, 39188, Note_on_c, 0, 69, 0
2, 39188, Note_on_c, 0, 64, 0
2, 39188, Note_on_c, 0, 62, 0
2, 39240, Note_on_c, 0, 62, 69
2, 39240, Note_on_c, 0, 64, 77
2, 39240, Note_on_c, 0, 69, 77
2, 39308, Note_on_c, 0, 69, 0
2, 39308, Note_on_c, 0, 64, 0
2, 39308, Note_on_c, 0, 62, 0
2, 39360, Note_on_c, 0, 62, 69
2, 39360, Note_on_c, 0, 64, 77
2, 39360, Note_on_c, 0, 69, 77
2, 39428, Note_on_c, 0, 69, 0
2, 39428, Note_on_c, 0, 64, 0
2, 39428, Note_on_c, 0, 62, 0
2, 39600, Note_on_c, 0, 49, 62
2, 39600, Note_on_c, 0, 55, 69
2, 39600, Note_on_c, 0, 57, 69
2, 39668, Note_on_c, 0, 57, 0
2, 39668, Note_on_c, 0, 55, 0
2, 39668, Note_on_c, 0, 49, 0
2, 39720, Note_on_c, 0, 49, 62
2, 39720, Note_on_c, 0, 55, 69
2, 39720, Note_on_c, 0, 57, 69
2, 39788, Note_on_c, 0, 57, 0
2, 39788, Note_on_c, 0, 55, 0
2, 39788, Note_on_c, 0, 49, 0
2, 39840, Note_on_c, 0, 49, 62
2, 39840, Note_on_c, 0, 55, 69
2, 39840, Note_on_c, 0, 57, 69
2, 39908, Note_on_c, 0, 57, 0
2, 39908, Note_on_c, 0, 55, 0
2, 39908, Note_on_c, 0, 49, 0
2, 40080, Note_on_c, 0, 55, 90
2, 40200, Note_on_c, 0, 55, 0
2, 40200, Note_on_c, 0, 57, 90
2, 40320, Note_on_c, 0, 57, 0
2, 40320, Note_on_c, 0, 50, 103
2, 40320, Note_on_c, 0, 62, 103
2, 40560, Note_on_c, 0, 93, 42
2, 40560, Note_on_c, 0, 90, 42
2, 40560, Note_on_c, 0, 86, 37
2, 40560, Note_on_c, 0, 81, 37
2, 40650, Note_on_c, 0, 81, 0
2, 40650, Note_on_c, 0, 90, 0
2, 40650, Note_on_c, 0, 93, 0
2, 40650, Note_on_c, 0, 86, 0
2, 40680, Note_on_c, 0, 93, 45
2, 40680, Note_on_c, 0, 90, 45
2, 40680, Note_on_c, 0, 86, 40
2, 40680, Note_on_c, 0, 81, 40
2, 40770, Note_on_c, 0, 81, 0
2, 40770, Note_on_c, 0, 90, 0
2, 40770, Note_on_c, 0, 93, 0
2, 40770, Note_on_c, 0, 86, 0
2, 40800, Note_on_c, 0, 93, 47
2, 40800, Note_on_c, 0, 90, 47
2, 40800, Note_on_c, 0, 86, 42
2, 40800, Note_on_c, 0, 81, 42
2, 40890, Note_on_c, 0, 81, 0
2, 40890, Note_on_c, 0, 90, 0
2, 40890, Note_on_c, 0, 93, 0
2, 40890, Note_on_c, 0, 86, 0
2, 40920, Note_on_c, 0, 94, 50
2, 40920, Note_on_c, 0, 90, 50
2, 40920, Note_on_c, 0, 86, 45
2, 40920, Note_on_c, 0, 82, 45
2, 41010, Note_on_c, 0, 82, 0
2, 41010, Note_on_c, 0, 90, 0
2, 41010, Note_on_c, 0, 94, 0
2, 41010, Note_on_c, 0, 86, 0
2, 41040, Note_on_c, 0, 94, 53
2, 41040, Note_on_c, 0, 90, 53
2, 41040, Note_on_c, 0, 86, 47
2, 41040, Note_on_c, 0, 82, 47
2, 41130, Note_on_c, 0, 82, 0
2, 41130, Note_on_c, 0, 90, 0
2, 41130, Note_on_c, 0, 94, 0
2, 41130, Note_on_c, 0, 86, 0
2, 41160, Note_on_c, 0, 93, 56
2, 41160, Note_on_c, 0, 90, 56
2, 41160, Note_on_c, 0, 86, 50
2, 41160, Note_on_c, 0, 81, 50
2, 41250, Note_on_c, 0, 81, 0
2, 41250, Note_on_c, 0, 90, 0
2, 41250, Note_on_c, 0, 93, 0
2, 41250, Note_on_c, 0, 86, 0
2, 41280, Note_on_c, 0, 93, 59
2, 41280, Note_on_c, 0, 90, 59
2, 41280, Note_on_c, 0, 86, 53
2, 41280, Note_on_c, 0, 81, 53
2, 41370, Note_on_c, 0, 81, 0
2, 41370, Note_on_c, 0, 90, 0
2, 41370, Note_on_c, 0, 93, 0
2, 41370, Note_on_c, 0, 86, 0
2, 41400, Note_on_c, 0, 94, 62
2, 41400, Note_on_c, 0, 90, 62
2, 41400, Note_on_c, 0, 86, 55
2, 41400, Note_on_c, 0, 82, 55
2, 41490, Note_on_c, 0, 82, 0
2, 41490, Note_on_c, 0, 90, 0
2, 41490, Note_on_c, 0, 94, 0
2, 41490, Note_on_c, 0, 86, 0
2, 41520, Note_on_c, 0, 94, 64
2, 41520, Note_on_c, 0, 90, 64
2, 41520, Note_on_c, 0, 86, 57
2, 41520, Note_on_c, 0, 82, 57
2, 41610, Note_on_c, 0, 82, 0
2, 41610, Note_on_c, 0, 90, 0
2, 41610, Note_on_c, 0, 94, 0
2, 41610, Note_on_c, 0, 86, 0
2, 41640, Note_on_c, 0, 93, 68
2, 41640, Note_on_c, 0, 90, 68
2, 41640, Note_on_c, 0, 86, 61
2, 41640, Note_on_c, 0, 81, 61
2, 41730, Note_on_c, 0, 81, 0
2, 41730, Note_on_c, 0, 90, 0
2, 41730, Note_on_c, 0, 93, 0
2, 41730, Note_on_c, 0, 86, 0
2, 41760, Note_on_c, 0, 93, 71
2, 41760, Note_on_c, 0, 90, 71
2, 41760, Note_on_c, 0, 86, 63
2, 41760, Note_on_c, 0, 81, 63
2, 41850, Note_on_c, 0, 81, 0
2, 41850, Note_on_c, 0, 90, 0
2, 41850, Note_on_c, 0, 93, 0
2, 41850, Note_on_c, 0, 86, 0
2, 41880, Note_on_c, 0, 94, 73
2, 41880, Note_on_c, 0, 90, 73
2, 41880, Note_on_c, 0, 86, 65
2, 41880, Note_on_c, 0, 82, 65
2, 41970, Note_on_c, 0, 82, 0
2, 41970, Note_on_c, 0, 90, 0
2, 41970, Note_on_c, 0, 94, 0
2, 41970, Note_on_c, 0, 86, 0
2, 42000, Note_on_c, 0, 94, 76
2, 42000, Note_on_c, 0, 90, 76
2, 42000, Note_on_c, 0, 86, 68
2, 42000, Note_on_c, 0, 82, 68
2, 42090, Note_on_c, 0, 82, 0
2, 42090, Note_on_c, 0, 90, 0
2, 42090, Note_on_c, 0, 94, 0
2, 42090, Note_on_c, 0, 86, 0
2, 42120, Note_on_c, 0, 93, 80
2, 42120, Note_on_c, 0, 90, 80
2, 42120, Note_on_c, 0, 86, 72
2, 42120, Note_on_c, 0, 81, 72
2, 42210, Note_on_c, 0, 81, 0
2, 42210, Note_on_c, 0, 90, 0
2, 42210, Note_on_c, 0, 93, 0
2, 42210, Note_on_c, 0, 86, 0
2, 42240, Note_on_c, 0, 62, 0
2, 42240, Note_on_c, 0, 50, 0
2, 42240, Note_on_c, 0, 93, 82
2, 42240, Note_on_c, 0, 90, 82
2, 42240, Note_on_c, 0, 86, 73
2, 42240, Note_on_c, 0, 81, 73
2, 42330, Note_on_c, 0, 81, 0
2, 42330, Note_on_c, 0, 93, 0
2, 42330, Note_on_c, 0, 90, 0
2, 42330, Note_on_c, 0, 86, 0
2, 42480, Note_on_c, 0, 90, 82
2, 42480, Note_on_c, 0, 78, 82
2, 42570, Note_on_c, 0, 78, 0
2, 42570, Note_on_c, 0, 90, 0
2, 42600, Note_on_c, 0, 87, 82
2, 42600, Note_on_c, 0, 75, 82
2, 42690, Note_on_c, 0, 75, 0
2, 42690, Note_on_c, 0, 87, 0
2, 42720, Note_on_c, 0, 86, 82
2, 42720, Note_on_c, 0, 74, 82
2, 42810, Note_on_c, 0, 74, 0
2, 42810, Note_on_c, 0, 86, 0
2, 42840, Note_on_c, 0, 84, 82
2, 42840, Note_on_c, 0, 72, 82
2, 42930, Note_on_c, 0, 72, 0
2, 42930, Note_on_c, 0, 84, 0
2, 42960, Note_on_c, 0, 82, 82
2, 42960, Note_on_c, 0, 70, 82
2, 43050, Note_on_c, 0, 70, 0
2, 43050, Note_on_c, 0, 82, 0
2, 43080, Note_on_c, 0, 81, 82
2, 43080, Note_on_c, 0, 69, 82
2, 43170, Note_on_c, 0, 69, 0
2, 43170, Note_on_c, 0, 81, 0
2, 43200, Note_on_c, 0, 78, 82
2, 43200, Note_on_c, 0, 66, 82
2, 43290, Note_on_c, 0, 66, 0
2, 43290, Note_on_c, 0, 78, 0
2, 43320, Note_on_c, 0, 75, 82
2, 43320, Note_on_c, 0, 63, 82
2, 43410, Note_on_c, 0, 63, 0
2, 43410, Note_on_c, 0, 75, 0
2, 43440, Note_on_c, 0, 74, 82
2, 43440, Note_on_c, 0, 62, 82
2, 43530, Note_on_c, 0, 62, 0
2, 43530, Note_on_c, 0, 74, 0
2, 43560, Note_on_c, 0, 72, 82
2, 43560, Note_on_c, 0, 60, 82
2, 43650, Note_on_c, 0, 60, 0
2, 43650, Note_on_c, 0, 72, 0
2, 43680, Note_on_c, 0, 70, 82
2, 43680, Note_on_c, 0, 58, 82
2, 43770, Note_on_c, 0, 58, 0
2, 43770, Note_on_c, 0, 70, 0
2, 43800, Note_on_c, 0, 69, 82
2, 43800, Note_on_c, 0, 57, 82
2, 43890, Note_on_c, 0, 57, 0
2, 43890, Note_on_c, 0, 69, 0
2, 43920, Note_on_c, 0, 66, 86
2, 44040, Note_on_c, 0, 66, 0
2, 44040, Note_on_c, 0, 62, 83
2, 44160, Note_on_c, 0, 62, 0
2, 44160, Control_c, 0, 91, 127
2, 44160, Note_on_c, 0, 55, 107
2, 44400, Note_on_c, 0, 67, 67
2, 44400, Note_on_c, 0, 70, 67
2, 44400, Note_on_c, 0, 74, 75
2, 44468, Note_on_c, 0, 74, 0
2, 44468, Note_on_c, 0, 70, 0
2, 44468, Note_on_c, 0, 67, 0
2, 44520, Note_on_c, 0, 67, 67
2, 44520, Note_on_c, 0, 70, 67
2, 44520, Note_on_c, 0, 74, 75
2, 44588, Note_on_c, 0, 74, 0
2, 44588, Note_on_c, 0, 70, 0
2, 44588, Note_on_c, 0, 67, 0
2, 44640, Note_on_c, 0, 67, 67
2, 44640, Note_on_c, 0, 70, 67
2, 44640, Note_on_c, 0, 74, 75
2, 44820, Note_on_c, 0, 74, 0
2, 44820, Note_on_c, 0, 70, 0
2, 44820, Note_on_c, 0, 67, 0
2, 44880, Note_on_c, 0, 55, 0
2, 44880, Note_on_c, 0, 58, 97
2, 44970, Note_on_c, 0, 58, 0
2, 45120, Note_on_c, 0, 62, 97
2, 45210, Note_on_c, 0, 62, 0
2, 45360, Note_on_c, 0, 67, 63
2, 45360, Note_on_c, 0, 70, 71
2, 45360, Note_on_c, 0, 74, 71
2, 45480, Note_on_c, 0, 74, 0
2, 45480, Note_on_c, 0, 70, 0
2, 45480, Note_on_c, 0, 67, 0
2, 45600, Note_on_c, 0, 58, 94
2, 45690, Note_on_c, 0, 58, 0
2, 45840, Note_on_c, 0, 67, 64
2, 45840, Note_on_c, 0, 70, 72
2, 45840, Note_on_c, 0, 74, 72
2, 45960, Note_on_c, 0, 74, 0
2, 45960, Note_on_c, 0, 70, 0
2, 45960, Note_on_c, 0, 67, 0
2, 46080, Note_on_c, 0, 55, 92
2, 46080, Control_c, 0, 91, 127
2, 46320, Note_on_c, 0, 67, 67
2, 46320, Note_on_c, 0, 74, 75
2, 46320, Note_on_c, 0, 70, 67
2, 46388, Note_on_c, 0, 70, 0
2, 46388, Note_on_c, 0, 74, 0
2, 46388, Note_on_c, 0, 67, 0
2, 46440, Note_on_c, 0, 67, 67
2, 46440, Note_on_c, 0, 70, 67
2, 46440, Note_on_c, 0, 74, 75
2, 46508, Note_on_c, 0, 74, 0
2, 46508, Note_on_c, 0, 70, 0
2, 46508, Note_on_c, 0, 67, 0
2, 46560, Note_on_c, 0, 67, 67
2, 46560, Note_on_c, 0, 70, 67
2, 46560, Note_on_c, 0, 74, 75
2, 46740, Note_on_c, 0, 74, 0
2, 46740, Note_on_c, 0, 70, 0
2, 46740, Note_on_c, 0, 67, 0
2, 46800, Note_on_c, 0, 55, 0
2, 46800, Note_on_c, 0, 58, 97
2, 46890, Note_on_c, 0, 58, 0
2, 47040, Note_on_c, 0, 62, 97
2, 47130, Note_on_c, 0, 62, 0
2, 47280, Note_on_c, 0, 70, 71
2, 47280, Note_on_c, 0, 67, 63
2, 47280, Note_on_c, 0, 74, 71
2, 47400, Note_on_c, 0, 74, 0
2, 47400, Note_on_c, 0, 67, 0
2, 47400, Note_on_c, 0, 70, 0
2, 47520, Note_on_c, 0, 58, 94
2, 47610, Note_on_c, 0, 58, 0
2, 47760, Note_on_c, 0, 67, 64
2, 47760, Note_on_c, 0, 74, 72
2, 47760, Note_on_c, 0, 70, 72
2, 47880, Note_on_c, 0, 70, 0
2, 47880, Note_on_c, 0, 74, 0
2, 47880, Note_on_c, 0, 67, 0
2, 48000, Note_on_c, 0, 55, 99
2, 48240, Note_on_c, 0, 67, 57
2, 48240, Note_on_c, 0, 70, 64
2, 48240, Note_on_c, 0, 74, 72
2, 48308, Note_on_c, 0, 74, 0
2, 48308, Note_on_c, 0, 70, 0
2, 48308, Note_on_c, 0, 67, 0
2, 48360, Note_on_c, 0, 67, 64
2, 48360, Note_on_c, 0, 74, 72
2, 48360, Note_on_c, 0, 70, 64
2, 48428, Note_on_c, 0, 70, 0
2, 48428, Note_on_c, 0, 74, 0
2, 48428, Note_on_c, 0, 67, 0
2, 48480, Note_on_c, 0, 67, 57
2, 48480, Note_on_c, 0, 70, 64
2, 48480, Note_on_c, 0, 74, 72
2, 48660, Note_on_c, 0, 74, 0
2, 48660, Note_on_c, 0, 70, 0
2, 48660, Note_on_c, 0, 67, 0
2, 48720, Note_on_c, 0, 55, 0
2, 48720, Note_on_c, 0, 62, 82
2, 48840, Note_on_c, 0, 62, 0
2, 48840, Note_on_c, 0, 65, 89
2, 48960, Note_on_c, 0, 65, 0
2, 48960, Note_on_c, 0, 67, 94
2, 49200, Note_on_c, 0, 70, 76
2, 49200, Note_on_c, 0, 67, 76
2, 49290, Note_on_c, 0, 67, 0
2, 49290, Note_on_c, 0, 70, 0
2, 49320, Note_on_c, 0, 67, 76
2, 49320, Note_on_c, 0, 70, 76
2, 49410, Note_on_c, 0, 70, 0
2, 49410, Note_on_c, 0, 67, 0
2, 49440, Note_on_c, 0, 70, 76
2, 49440, Note_on_c, 0, 67, 76
2, 49620, Note_on_c, 0, 67, 0
2, 49620, Note_on_c, 0, 70, 0
2, 49680, Note_on_c, 0, 67, 0
2, 49680, Note_on_c, 0, 58, 85
2, 49800, Note_on_c, 0, 58, 0
2, 49800, Note_on_c, 0, 62, 89
2, 49920, Note_on_c, 0, 62, 0
2, 49920, Note_on_c, 0, 65, 103
2, 50160, Note_on_c, 0, 70, 84
2, 50160, Note_on_c, 0, 74, 84
2, 50228, Note_on_c, 0, 74, 0
2, 50228, Note_on_c, 0, 70, 0
2, 50280, Note_on_c, 0, 70, 84
2, 50280, Note_on_c, 0, 74, 84
2, 50348, Note_on_c, 0, 74, 0
2, 50348, Note_on_c, 0, 70, 0
2, 50400, Note_on_c, 0, 74, 84
2, 50400, Note_on_c, 0, 70, 84
2, 50580, Note_on_c, 0, 70, 0
2, 50580, Note_on_c, 0, 74, 0
2, 50640, Note_on_c, 0, 65, 0
2, 50640, Note_on_c, 0, 58, 86
2, 50760, Note_on_c, 0, 58, 0
2, 50760, Note_on_c, 0, 62, 89
2, 50880, Note_on_c, 0, 62, 0
2, 50880, Note_on_c, 0, 63, 94
2, 51120, Note_on_c, 0, 72, 81
2, 51120, Note_on_c, 0, 79, 81
2, 51120, Note_on_c, 0, 67, 72
2, 51188, Note_on_c, 0, 67, 0
2, 51188, Note_on_c, 0, 79, 0
2, 51188, Note_on_c, 0, 72, 0
2, 51240, Note_on_c, 0, 79, 81
2, 51240, Note_on_c, 0, 67, 72
2, 51240, Note_on_c, 0, 72, 81
2, 51308, Note_on_c, 0, 72, 0
2, 51308, Note_on_c, 0, 67, 0
2, 51308, Note_on_c, 0, 79, 0
2, 51360, Note_on_c, 0, 72, 81
2, 51360, Note_on_c, 0, 67, 72
2, 51360, Note_on_c, 0, 79, 81
2, 51540, Note_on_c, 0, 79, 0
2, 51540, Note_on_c, 0, 67, 0
2, 51540, Note_on_c, 0, 72, 0
2, 51600, Note_on_c, 0, 63, 0
2, 51600, Note_on_c, 0, 55, 90
2, 51720, Note_on_c, 0, 55, 0
2, 51720, Note_on_c, 0, 57, 91
2, 51840, Note_on_c, 0, 57, 0
2, 51840, Note_on_c, 0, 62, 97
2, 52080, Note_on_c, 0, 78, 83
2, 52080, Note_on_c, 0, 74, 83
2, 52080, Note_on_c, 0, 66, 74
2, 52148, Note_on_c, 0, 66, 0
2, 52148, Note_on_c, 0, 74, 0
2, 52148, Note_on_c, 0, 78, 0
2, 52200, Note_on_c, 0, 78, 83
2, 52200, Note_on_c, 0, 66, 74
2, 52200, Note_on_c, 0, 74, 83
2, 52268, Note_on_c, 0, 74, 0
2, 52268, Note_on_c, 0, 66, 0
2, 52268, Note_on_c, 0, 78, 0
2, 52320, Note_on_c, 0, 66, 74
2, 52320, Note_on_c, 0, 74, 83
2, 52320, Note_on_c, 0, 78, 83
2, 52500, Note_on_c, 0, 78, 0
2, 52500, Note_on_c, 0, 74, 0
2, 52500, Note_on_c, 0, 66, 0
2, 52560, Note_on_c, 0, 62, 0
2, 52560, Note_on_c, 0, 60, 67
2, 52680, Note_on_c, 0, 60, 0
2, 52800, Note_on_c, 0, 50, 81
2, 53040, Note_on_c, 0, 63, 65
2, 53040, Note_on_c, 0, 66, 65
2, 53040, Note_on_c, 0, 69, 73
2, 53040, Note_on_c, 0, 75, 76
2, 53520, Note_on_c, 0, 75, 0
2, 53520, Note_on_c, 0, 66, 0
2, 53520, Note_on_c, 0, 50, 0
2, 53520, Note_on_c, 0, 63, 0
2, 53520, Note_on_c, 0, 69, 0
2, 53520, Note_on_c, 0, 59, 63
2, 53640, Note_on_c, 0, 59, 0
2, 53760, Note_on_c, 0, 50, 72
2, 54000, Note_on_c, 0, 63, 55
2, 54000, Note_on_c, 0, 67, 55
2, 54000, Note_on_c, 0, 71, 62
2, 54000, Note_on_c, 0, 75, 65
2, 54480, Note_on_c, 0, 75, 0
2, 54480, Note_on_c, 0, 67, 0
2, 54480, Note_on_c, 0, 50, 0
2, 54480, Note_on_c, 0, 63, 0
2, 54480, Note_on_c, 0, 71, 0
2, 54480, Note_on_c, 0, 58, 59
2, 54600, Note_on_c, 0, 58, 0
2, 54720, Note_on_c, 0, 50, 68
2, 54960, Note_on_c, 0, 62, 48
2, 54960, Note_on_c, 0, 67, 54
2, 54960, Note_on_c, 0, 74, 57
2, 55440, Note_on_c, 0, 74, 0
2, 55440, Note_on_c, 0, 50, 0
2, 55440, Note_on_c, 0, 62, 0
2, 55440, Note_on_c, 0, 67, 0
2, 55440, Note_on_c, 0, 57, 61
2, 55560, Note_on_c, 0, 57, 0
2, 55680, Note_on_c, 0, 50, 69
2, 55920, Note_on_c, 0, 62, 43
2, 55920, Note_on_c, 0, 74, 48
2, 55920, Note_on_c, 0, 67, 48
2, 56010, Note_on_c, 0, 67, 0
2, 56010, Note_on_c, 0, 74, 0
2, 56010, Note_on_c, 0, 62, 0
2, 56040, Note_on_c, 0, 62, 43
2, 56040, Note_on_c, 0, 67, 48
2, 56040, Note_on_c, 0, 74, 48
2, 56130, Note_on_c, 0, 74, 0
2, 56130, Note_on_c, 0, 67, 0
2, 56130, Note_on_c, 0, 62, 0
2, 56160, Note_on_c, 0, 62, 43
2, 56160, Note_on_c, 0, 67, 48
2, 56160, Note_on_c, 0, 74, 48
2, 56400, Note_on_c, 0, 74, 0
2, 56400, Note_on_c, 0, 50, 0
2, 56400, Note_on_c, 0, 62, 0
2, 56400, Note_on_c, 0, 67, 0
2, 56400, Note_on_c, 0, 57, 60
2, 56490, Note_on_c, 0, 57, 0
2, 56640, Note_on_c, 0, 50, 63
2, 56730, Note_on_c, 0, 50, 0
2, 56880, Note_on_c, 0, 56, 58
2, 56970, Note_on_c, 0, 56, 0
2, 57120, Note_on_c, 0, 50, 62
2, 57210, Note_on_c, 0, 50, 0
2, 57360, Note_on_c, 0, 55, 53
2, 57450, Note_on_c, 0, 55, 0
2, 57600, Note_on_c, 0, 50, 61
2, 57840, Note_on_c, 0, 62, 44
2, 57840, Note_on_c, 0, 67, 49
2, 57840, Note_on_c, 0, 74, 49
2, 57908, Note_on_c, 0, 74, 0
2, 57908, Note_on_c, 0, 67, 0
2, 57908, Note_on_c, 0, 62, 0
2, 57960, Note_on_c, 0, 62, 44
2, 57960, Note_on_c, 0, 67, 49
2, 57960, Note_on_c, 0, 74, 49
2, 58028, Note_on_c, 0, 74, 0
2, 58028, Note_on_c, 0, 67, 0
2, 58028, Note_on_c, 0, 62, 0
2, 58080, Note_on_c, 0, 62, 44
2, 58080, Note_on_c, 0, 67, 49
2, 58080, Note_on_c, 0, 74, 49
2, 58260, Note_on_c, 0, 74, 0
2, 58260, Note_on_c, 0, 67, 0
2, 58260, Note_on_c, 0, 62, 0
2, 58320, Note_on_c, 0, 50, 0
2, 58320, Note_on_c, 0, 55, 46
2, 58440, Note_on_c, 0, 55, 0
2, 58560, Note_on_c, 0, 50, 54
2, 58800, Note_on_c, 0, 62, 46
2, 58800, Note_on_c, 0, 55, 46
2, 58868, Note_on_c, 0, 55, 0
2, 58868, Note_on_c, 0, 62, 0
2, 58920, Note_on_c, 0, 55, 46
2, 58920, Note_on_c, 0, 62, 46
2, 58988, Note_on_c, 0, 62, 0
2, 58988, Note_on_c, 0, 55, 0
2, 59040, Note_on_c, 0, 55, 46
2, 59040, Note_on_c, 0, 62, 46
2, 59220, Note_on_c, 0, 62, 0
2, 59220, Note_on_c, 0, 55, 0
2, 59280, Note_on_c, 0, 50, 0
2, 59280, Note_on_c, 0, 54, 42
2, 59400, Note_on_c, 0, 54, 0
2, 59520, Note_on_c, 0, 50, 51
2, 59760, Note_on_c, 0, 54, 36
2, 59760, Note_on_c, 0, 62, 36
2, 59828, Note_on_c, 0, 62, 0
2, 59828, Note_on_c, 0, 54, 0
2, 59880, Note_on_c, 0, 54, 36
2, 59880, Note_on_c, 0, 62, 36
2, 59948, Note_on_c, 0, 62, 0
2, 59948, Note_on_c, 0, 54, 0
2, 60000, Note_on_c, 0, 54, 36
2, 60000, Note_on_c, 0, 62, 36
2, 60180, Note_on_c, 0, 62, 0
2, 60180, Note_on_c, 0, 54, 0
2, 60240, Note_on_c, 0, 50, 0
2, 60720, Note_on_c, 0, 54, 32
2, 60720, Note_on_c, 0, 62, 32
2, 60788, Note_on_c, 0, 62, 0
2, 60788, Note_on_c, 0, 54, 0
2, 60840, Note_on_c, 0, 54, 32
2, 60840, Note_on_c, 0, 62, 32
2, 60908, Note_on_c, 0, 62, 0
2, 60908, Note_on_c, 0, 54, 0
2, 60960, Note_on_c, 0, 54, 32
2, 60960, Note_on_c, 0, 62, 32
2, 61140, Note_on_c, 0, 62, 0
2, 61140, Note_on_c, 0, 54, 0
2, 61680, Note_on_c, 0, 50, 33
2, 61748, Note_on_c, 0, 50, 0
2, 61800, Note_on_c, 0, 50, 33
2, 61868, Note_on_c, 0, 50, 0
2, 61920, Note_on_c, 0, 50, 33
2, 62100, Note_on_c, 0, 50, 0
2, 62640, Note_on_c, 0, 50, 33
2, 62708, Note_on_c, 0, 50, 0
2, 62760, Note_on_c, 0, 50, 33
2, 62828, Note_on_c, 0, 50, 0
2, 62880, Note_on_c, 0, 50, 33
2, 63060, Note_on_c, 0, 50, 0
2, 63360, Control_c, 0, 91, 127
2, 63600, Note_on_c, 0, 81, 46
2, 63600, Note_on_c, 0, 78, 32
2, 63600, Note_on_c, 0, 74, 32
2, 63600, Note_on_c, 0, 69, 32
2, 63840, Note_on_c, 0, 69, 0
2, 63840, Note_on_c, 0, 81, 0
2, 63840, Note_on_c, 0, 78, 0
2, 63840, Note_on_c, 0, 74, 0
2, 63840, Note_on_c, 0, 69, 33
2, 63840, Note_on_c, 0, 74, 33
2, 63840, Note_on_c, 0, 78, 33
2, 63840, Note_on_c, 0, 81, 48
2, 64080, Note_on_c, 0, 81, 0
2, 64080, Note_on_c, 0, 69, 0
2, 64080, Note_on_c, 0, 74, 0
2, 64080, Note_on_c, 0, 78, 0
2, 64080, Note_on_c, 0, 70, 36
2, 64080, Note_on_c, 0, 74, 36
2, 64080, Note_on_c, 0, 78, 36
2, 64080, Note_on_c, 0, 82, 54
2, 64320, Note_on_c, 0, 82, 0
2, 64320, Note_on_c, 0, 70, 0
2, 64320, Note_on_c, 0, 74, 0
2, 64320, Note_on_c, 0, 78, 0
2, 64320, Note_on_c, 0, 74, 40
2, 64320, Note_on_c, 0, 72, 40
2, 64320, Note_on_c, 0, 78, 40
2, 64320, Note_on_c, 0, 84, 58
2, 64800, Note_on_c, 0, 84, 0
2, 64800, Note_on_c, 0, 74, 0
2, 64800, Note_on_c, 0, 72, 0
2, 64800, Note_on_c, 0, 78, 0
2, 64800, Note_on_c, 0, 70, 36
2, 64800, Note_on_c, 0, 82, 52
2, 64800, Note_on_c, 0, 74, 32
2, 64800, Note_on_c, 0, 78, 32
2, 65040, Note_on_c, 0, 82, 0
2, 65040, Note_on_c, 0, 70, 0
2, 65040, Note_on_c, 0, 69, 36
2, 65040, Note_on_c, 0, 81, 52
2, 65280, Note_on_c, 0, 81, 0
2, 65280, Note_on_c, 0, 78, 0
2, 65280, Note_on_c, 0, 74, 0
2, 65280, Note_on_c, 0, 69, 0
2, 65280, Note_on_c, 0, 67, 36
2, 65280, Note_on_c, 0, 79, 52
2, 65280, Note_on_c, 0, 72, 32
2, 65280, Note_on_c, 0, 75, 32
2, 65520, Note_on_c, 0, 79, 0
2, 65520, Note_on_c, 0, 67, 0
2, 65520, Note_on_c, 0, 69, 36
2, 65520, Note_on_c, 0, 81, 52
2, 65760, Note_on_c, 0, 81, 0
2, 65760, Note_on_c, 0, 69, 0
2, 65760, Note_on_c, 0, 70, 39
2, 65760, Note_on_c, 0, 82, 57
2, 66240, Note_on_c, 0, 82, 0
2, 66240, Note_on_c, 0, 75, 0
2, 66240, Note_on_c, 0, 72, 0
2, 66240, Note_on_c, 0, 70, 0
2, 66240, Note_on_c, 0, 66, 34
2, 66240, Note_on_c, 0, 78, 49
2, 66240, Note_on_c, 0, 74, 30
2, 66240, Note_on_c, 0, 72, 30
2, 66718, Note_on_c, 0, 66, 0
2, 66720, Note_on_c, 0, 78, 0
2, 66720, Note_on_c, 0, 69, 34
2, 66720, Note_on_c, 0, 81, 49
2, 66960, Note_on_c, 0, 57, 34
2, 67080, Note_on_c, 0, 57, 0
2, 67080, Note_on_c, 0, 60, 34
2, 67200, Note_on_c, 0, 69, 0
2, 67200, Note_on_c, 0, 81, 0
2, 67200, Note_on_c, 0, 72, 0
2, 67200, Note_on_c, 0, 74, 0
2, 67200, Note_on_c, 0, 54, 45
2, 67200, Note_on_c, 0, 62, 45
2, 67200, Control_c, 0, 91, 127
2, 67440, Note_on_c, 0, 81, 50
2, 67440, Note_on_c, 0, 78, 32
2, 67440, Note_on_c, 0, 74, 32
2, 67440, Note_on_c, 0, 69, 32
2, 67680, Note_on_c, 0, 69, 0
2, 67680, Note_on_c, 0, 78, 0
2, 67680, Note_on_c, 0, 81, 0
2, 67680, Note_on_c, 0, 74, 0
2, 67680, Note_on_c, 0, 69, 33
2, 67680, Note_on_c, 0, 74, 33
2, 67680, Note_on_c, 0, 78, 33
2, 67680, Note_on_c, 0, 81, 52
2, 67920, Note_on_c, 0, 81, 0
2, 67920, Note_on_c, 0, 74, 0
2, 67920, Note_on_c, 0, 69, 0
2, 67920, Note_on_c, 0, 78, 0
2, 67920, Note_on_c, 0, 70, 36
2, 67920, Note_on_c, 0, 74, 36
2, 67920, Note_on_c, 0, 78, 36
2, 67920, Note_on_c, 0, 82, 58
2, 68160, Note_on_c, 0, 82, 0
2, 68160, Note_on_c, 0, 74, 0
2, 68160, Note_on_c, 0, 60, 0
2, 68160, Note_on_c, 0, 54, 0
2, 68160, Note_on_c, 0, 62, 0
2, 68160, Note_on_c, 0, 78, 0
2, 68160, Note_on_c, 0, 70, 0
2, 68160, Note_on_c, 0, 75, 36
2, 68160, Note_on_c, 0, 72, 40
2, 68160, Note_on_c, 0, 79, 36
2, 68160, Note_on_c, 0, 84, 63
2, 68640, Note_on_c, 0, 84, 0
2, 68640, Note_on_c, 0, 75, 0
2, 68640, Note_on_c, 0, 72, 0
2, 68640, Note_on_c, 0, 79, 0
2, 68640, Note_on_c, 0, 70, 36
2, 68640, Note_on_c, 0, 82, 57
2, 68640, Note_on_c, 0, 72, 29
2, 68640, Note_on_c, 0, 75, 32
2, 68880, Note_on_c, 0, 82, 0
2, 68880, Note_on_c, 0, 70, 0
2, 68880, Note_on_c, 0, 69, 36
2, 68880, Note_on_c, 0, 81, 57
2, 69120, Note_on_c, 0, 81, 0
2, 69120, Note_on_c, 0, 75, 0
2, 69120, Note_on_c, 0, 72, 0
2, 69120, Note_on_c, 0, 69, 0
2, 69120, Note_on_c, 0, 67, 36
2, 69120, Note_on_c, 0, 79, 57
2, 69120, Note_on_c, 0, 73, 29
2, 69120, Note_on_c, 0, 76, 33
2, 69360, Note_on_c, 0, 79, 0
2, 69360, Note_on_c, 0, 67, 0
2, 69360, Note_on_c, 0, 69, 36
2, 69360, Note_on_c, 0, 81, 57
2, 69600, Note_on_c, 0, 81, 0
2, 69600, Note_on_c, 0, 69, 0
2, 69600, Note_on_c, 0, 70, 39
2, 69600, Note_on_c, 0, 82, 62
2, 70080, Note_on_c, 0, 82, 0
2, 70080, Note_on_c, 0, 76, 0
2, 70080, Note_on_c, 0, 73, 0
2, 70080, Note_on_c, 0, 70, 0
2, 70080, Note_on_c, 0, 66, 33
2, 70080, Note_on_c, 0, 78, 52
2, 70080, Note_on_c, 0, 74, 27
2, 70080, Note_on_c, 0, 72, 27
2, 70560, Note_on_c, 0, 78, 0
2, 70560, Note_on_c, 0, 66, 0
2, 70560, Note_on_c, 0, 69, 33
2, 70560, Note_on_c, 0, 81, 52
2, 70800, Note_on_c, 0, 57, 34
2, 70920, Note_on_c, 0, 57, 0
2, 70920, Note_on_c, 0, 60, 34
2, 71040, Note_on_c, 0, 60, 0
2, 71040, Note_on_c, 0, 81, 0
2, 71040, Note_on_c, 0, 72, 0
2, 71040, Note_on_c, 0, 74, 0
2, 71040, Note_on_c, 0, 69, 0
2, 71040, Note_on_c, 0, 58, 56
2, 71040, Note_on_c, 0, 62, 56
2, 71280, Note_on_c, 0, 70, 45
2, 71280, Note_on_c, 0, 82, 67
2, 71518, Note_on_c, 0, 70, 0
2, 71520, Note_on_c, 0, 82, 0
2, 71520, Note_on_c, 0, 74, 45
2, 71520, Note_on_c, 0, 79, 51
2, 71520, Note_on_c, 0, 82, 67
2, 71760, Note_on_c, 0, 82, 0
2, 71760, Note_on_c, 0, 74, 0
2, 71760, Note_on_c, 0, 79, 0
2, 71760, Note_on_c, 0, 72, 44
2, 71760, Note_on_c, 0, 84, 63
2, 72000, Note_on_c, 0, 84, 0
2, 72000, Note_on_c, 0, 58, 0
2, 72000, Note_on_c, 0, 62, 0
2, 72000, Note_on_c, 0, 72, 0
2, 72000, Note_on_c, 0, 74, 48
2, 72000, Note_on_c, 0, 86, 70
2, 72000, Note_on_c, 0, 82, 36
2, 72000, Note_on_c, 0, 79, 36
2, 72480, Note_on_c, 0, 79, 0
2, 72480, Note_on_c, 0, 74, 0
2, 72480, Note_on_c, 0, 86, 0
2, 72480, Note_on_c, 0, 82, 0
2, 72480, Note_on_c, 0, 84, 68
2, 72480, Note_on_c, 0, 72, 46
2, 72480, Note_on_c, 0, 79, 36
2, 72720, Note_on_c, 0, 72, 0
2, 72720, Note_on_c, 0, 84, 0
2, 72720, Note_on_c, 0, 70, 46
2, 72720, Note_on_c, 0, 82, 68
2, 72960, Note_on_c, 0, 82, 0
2, 72960, Note_on_c, 0, 70, 0
2, 72960, Note_on_c, 0, 79, 0
2, 72960, Note_on_c, 0, 84, 76
2, 72960, Note_on_c, 0, 72, 54
2, 72960, Note_on_c, 0, 79, 40
2, 72960, Note_on_c, 0, 82, 54
2, 73200, Note_on_c, 0, 72, 0
2, 73200, Note_on_c, 0, 84, 0
2, 73200, Note_on_c, 0, 74, 51
2, 73200, Note_on_c, 0, 86, 70
2, 73440, Note_on_c, 0, 86, 0
2, 73440, Note_on_c, 0, 82, 0
2, 73440, Note_on_c, 0, 79, 0
2, 73440, Note_on_c, 0, 74, 0
2, 73440, Note_on_c, 0, 87, 77
2, 73440, Note_on_c, 0, 75, 56
2, 73440, Note_on_c, 0, 82, 45
2, 73440, Note_on_c, 0, 79, 45
2, 74160, Note_on_c, 0, 75, 0
2, 74160, Note_on_c, 0, 87, 0
2, 74160, Note_on_c, 0, 88, 75
2, 74160, Note_on_c, 0, 76, 57
2, 74400, Note_on_c, 0, 76, 0
2, 74400, Note_on_c, 0, 79, 0
2, 74400, Note_on_c, 0, 82, 0
2, 74400, Note_on_c, 0, 88, 0
2, 74400, Note_on_c, 0, 90, 78
2, 74400, Note_on_c, 0, 78, 60
2, 74400, Note_on_c, 0, 87, 48
2, 74400, Note_on_c, 0, 81, 48
2, 74640, Note_on_c, 0, 78, 0
2, 74640, Note_on_c, 0, 90, 0
2, 74640, Note_on_c, 0, 91, 72
2, 74640, Note_on_c, 0, 79, 55
2, 74880, Note_on_c, 0, 79, 0
2, 74880, Note_on_c, 0, 81, 0
2, 74880, Note_on_c, 0, 87, 0
2, 74880, Note_on_c, 0, 91, 0
2, 74880, Note_on_c, 0, 78, 56
2, 74880, Note_on_c, 0, 66, 38
2, 74880, Note_on_c, 0, 69, 32
2, 74880, Note_on_c, 0, 74, 32
2, 75120, Note_on_c, 0, 66, 0
2, 75120, Note_on_c, 0, 78, 0
2, 75120, Note_on_c, 0, 67, 38
2, 75120, Note_on_c, 0, 79, 56
2, 75360, Note_on_c, 0, 79, 0
2, 75360, Note_on_c, 0, 74, 0
2, 75360, Note_on_c, 0, 69, 0
2, 75360, Note_on_c, 0, 67, 0
2, 75360, Note_on_c, 0, 69, 41
2, 75360, Note_on_c, 0, 81, 60
2, 75360, Note_on_c, 0, 74, 41
2, 75840, Note_on_c, 0, 69, 0
2, 75840, Note_on_c, 0, 67, 44
2, 76320, Note_on_c, 0, 74, 0
2, 76320, Note_on_c, 0, 73, 44
2, 76800, Note_on_c, 0, 73, 0
2, 76800, Note_on_c, 0, 67, 0
2, 76800, Note_on_c, 0, 81, 0
2, 76800, Note_on_c, 0, 54, 51
2, 76800, Note_on_c, 0, 60, 49
2, 77040, Note_on_c, 0, 69, 40
2, 77040, Note_on_c, 0, 78, 40
2, 77040, Note_on_c, 0, 81, 58
2, 77160, Note_on_c, 0, 69, 0
2, 77160, Note_on_c, 0, 72, 40
2, 77278, Note_on_c, 0, 54, 0
2, 77280, Note_on_c, 0, 81, 0
2, 77280, Note_on_c, 0, 72, 0
2, 77280, Note_on_c, 0, 78, 0
2, 77280, Note_on_c, 0, 74, 36
2, 77280, Note_on_c, 0, 78, 36
2, 77280, Note_on_c, 0, 81, 52
2, 77520, Note_on_c, 0, 81, 0
2, 77520, Note_on_c, 0, 78, 0
2, 77520, Note_on_c, 0, 70, 39
2, 77520, Note_on_c, 0, 74, 39
2, 77520, Note_on_c, 0, 78, 39
2, 77520, Note_on_c, 0, 82, 57
2, 77760, Note_on_c, 0, 82, 0
2, 77760, Note_on_c, 0, 74, 0
2, 77760, Note_on_c, 0, 70, 0
2, 77760, Note_on_c, 0, 74, 0
2, 77760, Note_on_c, 0, 78, 0
2, 77760, Note_on_c, 0, 74, 45
2, 77760, Note_on_c, 0, 72, 45
2, 77760, Note_on_c, 0, 78, 45
2, 77760, Note_on_c, 0, 84, 66
2, 78000, Note_on_c, 0, 60, 0
2, 78240, Note_on_c, 0, 78, 0
2, 78240, Note_on_c, 0, 74, 0
2, 78240, Note_on_c, 0, 72, 0
2, 78240, Note_on_c, 0, 84, 0
2, 78240, Note_on_c, 0, 70, 40
2, 78240, Note_on_c, 0, 82, 58
2, 78240, Note_on_c, 0, 74, 32
2, 78240, Note_on_c, 0, 78, 36
2, 78480, Note_on_c, 0, 82, 0
2, 78480, Note_on_c, 0, 70, 0
2, 78480, Note_on_c, 0, 69, 40
2, 78480, Note_on_c, 0, 81, 58
2, 78720, Note_on_c, 0, 81, 0
2, 78720, Note_on_c, 0, 78, 0
2, 78720, Note_on_c, 0, 74, 0
2, 78720, Note_on_c, 0, 69, 0
2, 78720, Note_on_c, 0, 79, 54
2, 78720, Note_on_c, 0, 67, 36
2, 78720, Note_on_c, 0, 72, 30
2, 78720, Note_on_c, 0, 75, 30
2, 78960, Note_on_c, 0, 67, 0
2, 78960, Note_on_c, 0, 79, 0
2, 78960, Note_on_c, 0, 69, 36
2, 78960, Note_on_c, 0, 81, 54
2, 79200, Note_on_c, 0, 81, 0
2, 79200, Note_on_c, 0, 75, 0
2, 79200, Note_on_c, 0, 72, 0
2, 79200, Note_on_c, 0, 69, 0
2, 79200, Note_on_c, 0, 72, 32
2, 79200, Note_on_c, 0, 75, 32
2, 79200, Note_on_c, 0, 70, 39
2, 79200, Note_on_c, 0, 82, 57
2, 79440, Note_on_c, 0, 67, 52
2, 79680, Note_on_c, 0, 67, 0
2, 79680, Note_on_c, 0, 70, 0
2, 79680, Note_on_c, 0, 72, 0
2, 79680, Note_on_c, 0, 75, 0
2, 79680, Note_on_c, 0, 82, 0
2, 79680, Note_on_c, 0, 69, 53
2, 79680, Note_on_c, 0, 66, 40
2, 79680, Note_on_c, 0, 72, 40
2, 79680, Note_on_c, 0, 74, 40
2, 79680, Note_on_c, 0, 78, 58
2, 79920, Note_on_c, 0, 78, 0
2, 79920, Note_on_c, 0, 72, 0
2, 79920, Note_on_c, 0, 74, 0
2, 79920, Note_on_c, 0, 66, 0
2, 79920, Note_on_c, 0, 67, 36
2, 79920, Note_on_c, 0, 79, 52
2, 80160, Note_on_c, 0, 79, 0
2, 80160, Note_on_c, 0, 67, 0
2, 80160, Note_on_c, 0, 69, 32
2, 80160, Note_on_c, 0, 72, 32
2, 80160, Note_on_c, 0, 74, 32
2, 80160, Note_on_c, 0, 81, 46
2, 80640, Note_on_c, 0, 81, 0
2, 80640, Note_on_c, 0, 72, 0
2, 80640, Note_on_c, 0, 69, 0
2, 80640, Note_on_c, 0, 69, 0
2, 80640, Note_on_c, 0, 74, 0
2, 80640, Note_on_c, 0, 54, 52
2, 80640, Note_on_c, 0, 60, 58
2, 80880, Note_on_c, 0, 69, 36
2, 80880, Note_on_c, 0, 78, 41
2, 80880, Note_on_c, 0, 81, 60
2, 81000, Note_on_c, 0, 69, 0
2, 81000, Note_on_c, 0, 72, 40
2, 81118, Note_on_c, 0, 54, 0
2, 81120, Note_on_c, 0, 81, 0
2, 81120, Note_on_c, 0, 72, 0
2, 81120, Note_on_c, 0, 78, 0
2, 81120, Note_on_c, 0, 74, 36
2, 81120, Note_on_c, 0, 78, 36
2, 81120, Note_on_c, 0, 81, 52
2, 81360, Note_on_c, 0, 81, 0
2, 81360, Note_on_c, 0, 78, 0
2, 81360, Note_on_c, 0, 70, 39
2, 81360, Note_on_c, 0, 74, 39
2, 81360, Note_on_c, 0, 78, 39
2, 81360, Note_on_c, 0, 82, 57
2, 81600, Note_on_c, 0, 82, 0
2, 81600, Note_on_c, 0, 74, 0
2, 81600, Note_on_c, 0, 70, 0
2, 81600, Note_on_c, 0, 74, 0
2, 81600, Note_on_c, 0, 78, 0
2, 81600, Note_on_c, 0, 75, 45
2, 81600, Note_on_c, 0, 72, 45
2, 81600, Note_on_c, 0, 79, 45
2, 81600, Note_on_c, 0, 84, 66
2, 81840, Note_on_c, 0, 60, 0
2, 82080, Note_on_c, 0, 79, 0
2, 82080, Note_on_c, 0, 75, 0
2, 82080, Note_on_c, 0, 72, 0
2, 82080, Note_on_c, 0, 84, 0
2, 82080, Note_on_c, 0, 70, 40
2, 82080, Note_on_c, 0, 82, 58
2, 82080, Note_on_c, 0, 72, 32
2, 82080, Note_on_c, 0, 75, 32
2, 82320, Note_on_c, 0, 82, 0
2, 82320, Note_on_c, 0, 70, 0
2, 82320, Note_on_c, 0, 69, 40
2, 82320, Note_on_c, 0, 81, 58
2, 82560, Note_on_c, 0, 81, 0
2, 82560, Note_on_c, 0, 75, 0
2, 82560, Note_on_c, 0, 72, 0
2, 82560, Note_on_c, 0, 69, 0
2, 82560, Note_on_c, 0, 79, 54
2, 82560, Note_on_c, 0, 67, 36
2, 82560, Note_on_c, 0, 73, 30
2, 82560, Note_on_c, 0, 76, 30
2, 82800, Note_on_c, 0, 67, 0
2, 82800, Note_on_c, 0, 79, 0
2, 82800, Note_on_c, 0, 69, 36
2, 82800, Note_on_c, 0, 81, 54
2, 83040, Note_on_c, 0, 81, 0
2, 83040, Note_on_c, 0, 76, 0
2, 83040, Note_on_c, 0, 73, 0
2, 83040, Note_on_c, 0, 69, 0
2, 83040, Note_on_c, 0, 73, 32
2, 83040, Note_on_c, 0, 76, 32
2, 83040, Note_on_c, 0, 70, 39
2, 83040, Note_on_c, 0, 82, 57
2, 83280, Note_on_c, 0, 67, 52
2, 83520, Note_on_c, 0, 67, 0
2, 83520, Note_on_c, 0, 70, 0
2, 83520, Note_on_c, 0, 73, 0
2, 83520, Note_on_c, 0, 76, 0
2, 83520, Note_on_c, 0, 82, 0
2, 83520, Note_on_c, 0, 69, 53
2, 83520, Note_on_c, 0, 66, 40
2, 83520, Note_on_c, 0, 72, 40
2, 83520, Note_on_c, 0, 74, 40
2, 83520, Note_on_c, 0, 78, 58
2, 83760, Note_on_c, 0, 78, 0
2, 83760, Note_on_c, 0, 72, 0
2, 83760, Note_on_c, 0, 74, 0
2, 83760, Note_on_c, 0, 66, 0
2, 83760, Note_on_c, 0, 67, 36
2, 83760, Note_on_c, 0, 79, 52
2, 84000, Note_on_c, 0, 79, 0
2, 84000, Note_on_c, 0, 67, 0
2, 84000, Note_on_c, 0, 69, 32
2, 84000, Note_on_c, 0, 72, 32
2, 84000, Note_on_c, 0, 74, 32
2, 84000, Note_on_c, 0, 81, 46
2, 84240, Note_on_c, 0, 69, 0
2, 84320, Note_on_c, 0, 69, 39
2, 84400, Note_on_c, 0, 69, 0
2, 84400, Note_on_c, 0, 72, 39
2, 84480, Note_on_c, 0, 72, 0
2, 84480, Note_on_c, 0, 74, 0
2, 84480, Note_on_c, 0, 69, 0
2, 84480, Note_on_c, 0, 72, 0
2, 84480, Note_on_c, 0, 81, 0
2, 84480, Note_on_c, 0, 62, 45
2, 84480, Note_on_c, 0, 70, 45
2, 84480, Note_on_c, 0, 74, 45
2, 84720, Note_on_c, 0, 70, 41
2, 84720, Note_on_c, 0, 82, 60
2, 84958, Note_on_c, 0, 70, 0
2, 84960, Note_on_c, 0, 82, 0
2, 84960, Note_on_c, 0, 74, 43
2, 84960, Note_on_c, 0, 79, 43
2, 84960, Note_on_c, 0, 82, 62
2, 85200, Note_on_c, 0, 82, 0
2, 85200, Note_on_c, 0, 74, 0
2, 85200, Note_on_c, 0, 79, 0
2, 85200, Note_on_c, 0, 72, 46
2, 85200, Note_on_c, 0, 84, 68
2, 85440, Note_on_c, 0, 84, 0
2, 85440, Note_on_c, 0, 74, 0
2, 85440, Note_on_c, 0, 70, 0
2, 85440, Note_on_c, 0, 62, 0
2, 85440, Note_on_c, 0, 72, 0
2, 85440, Note_on_c, 0, 74, 49
2, 85440, Note_on_c, 0, 80, 49
2, 85440, Note_on_c, 0, 82, 49
2, 85440, Note_on_c, 0, 86, 70
2, 85680, Note_on_c, 0, 74, 59
2, 85920, Note_on_c, 0, 74, 0
2, 85920, Note_on_c, 0, 82, 0
2, 85920, Note_on_c, 0, 74, 0
2, 85920, Note_on_c, 0, 80, 0
2, 85920, Note_on_c, 0, 86, 0
2, 85920, Note_on_c, 0, 84, 54
2, 85920, Note_on_c, 0, 72, 40
2, 85920, Note_on_c, 0, 75, 60
2, 86160, Note_on_c, 0, 75, 0
2, 86160, Note_on_c, 0, 72, 0
2, 86160, Note_on_c, 0, 84, 0
2, 86160, Note_on_c, 0, 70, 40
2, 86160, Note_on_c, 0, 82, 54
2, 86160, Note_on_c, 0, 77, 62
2, 86400, Note_on_c, 0, 77, 0
2, 86400, Note_on_c, 0, 82, 0
2, 86400, Note_on_c, 0, 70, 0
2, 86400, Note_on_c, 0, 72, 40
2, 86400, Note_on_c, 0, 75, 40
2, 86400, Note_on_c, 0, 84, 58
2, 86400, Note_on_c, 0, 79, 64
2, 86640, Note_on_c, 0, 84, 0
2, 86640, Note_on_c, 0, 72, 0
2, 86640, Note_on_c, 0, 75, 0
2, 86640, Note_on_c, 0, 86, 66
2, 86640, Note_on_c, 0, 74, 45
2, 86880, Note_on_c, 0, 74, 0
2, 86880, Note_on_c, 0, 86, 0
2, 86880, Note_on_c, 0, 79, 0
2, 86880, Note_on_c, 0, 87, 70
2, 86880, Note_on_c, 0, 75, 48
2, 86880, Note_on_c, 0, 82, 48
2, 86880, Note_on_c, 0, 79, 48
2, 87120, Note_on_c, 0, 75, 0
2, 87120, Note_on_c, 0, 87, 0
2, 87120, Note_on_c, 0, 77, 54
2, 87120, Note_on_c, 0, 89, 75
2, 87360, Note_on_c, 0, 89, 0
2, 87360, Note_on_c, 0, 79, 0
2, 87360, Note_on_c, 0, 82, 0
2, 87360, Note_on_c, 0, 77, 0
2, 87360, Note_on_c, 0, 91, 81
2, 87360, Note_on_c, 0, 79, 59
2, 87360, Note_on_c, 0, 86, 59
2, 87360, Note_on_c, 0, 82, 59
2, 87600, Note_on_c, 0, 79, 0
2, 87600, Note_on_c, 0, 91, 0
2, 87600, Note_on_c, 0, 81, 63
2, 87600, Note_on_c, 0, 93, 81
2, 88080, Note_on_c, 0, 93, 0
2, 88080, Note_on_c, 0, 81, 0
2, 88080, Note_on_c, 0, 94, 78
2, 88080, Note_on_c, 0, 82, 57
2, 88320, Note_on_c, 0, 82, 0
2, 88320, Note_on_c, 0, 82, 0
2, 88320, Note_on_c, 0, 86, 0
2, 88320, Note_on_c, 0, 94, 0
2, 88320, Note_on_c, 0, 66, 72
2, 88320, Note_on_c, 0, 78, 67
2, 88320, Note_on_c, 0, 74, 40
2, 88560, Note_on_c, 0, 78, 0
2, 88560, Note_on_c, 0, 66, 0
2, 88560, Note_on_c, 0, 69, 47
2, 88560, Note_on_c, 0, 81, 63
2, 88800, Note_on_c, 0, 81, 0
2, 88800, Note_on_c, 0, 69, 0
2, 88800, Note_on_c, 0, 72, 47
2, 88800, Note_on_c, 0, 84, 63
2, 89280, Note_on_c, 0, 84, 0
2, 89280, Note_on_c, 0, 72, 0
2, 89280, Note_on_c, 0, 74, 0
2, 89280, Note_on_c, 0, 66, 55
2, 89280, Note_on_c, 0, 78, 66
2, 89280, Note_on_c, 0, 75, 40
2, 89520, Note_on_c, 0, 78, 0
2, 89520, Note_on_c, 0, 66, 0
2, 89520, Note_on_c, 0, 69, 54
2, 89520, Note_on_c, 0, 81, 68
2, 89760, Note_on_c, 0, 81, 0
2, 89760, Note_on_c, 0, 69, 0
2, 89760, Note_on_c, 0, 71, 57
2, 89760, Note_on_c, 0, 83, 72
2, 90240, Note_on_c, 0, 83, 0
2, 90240, Note_on_c, 0, 71, 0
2, 90240, Note_on_c, 0, 66, 55
2, 90240, Note_on_c, 0, 78, 64
2, 90480, Note_on_c, 0, 78, 0
2, 90480, Note_on_c, 0, 66, 0
2, 90480, Note_on_c, 0, 67, 47
2, 90480, Note_on_c, 0, 79, 63
2, 90720, Note_on_c, 0, 79, 0
2, 90720, Note_on_c, 0, 67, 0
2, 90720, Note_on_c, 0, 75, 0
2, 90720, Note_on_c, 0, 74, 35
2, 90720, Note_on_c, 0, 76, 35
2, 90720, Note_on_c, 0, 70, 55
2, 90720, Note_on_c, 0, 82, 46
2, 91200, Note_on_c, 0, 76, 0
2, 91200, Note_on_c, 0, 74, 0
2, 91200, Note_on_c, 0, 73, 45
2, 91200, Note_on_c, 0, 77, 43
2, 91680, Note_on_c, 0, 77, 0
2, 91680, Note_on_c, 0, 82, 0
2, 91680, Note_on_c, 0, 70, 0
2, 91680, Note_on_c, 0, 73, 0
2, 91680, Note_on_c, 0, 67, 38
2, 91680, Note_on_c, 0, 69, 30
2, 91680, Note_on_c, 0, 73, 34
2, 91680, Note_on_c, 0, 78, 30
2, 91680, Note_on_c, 0, 81, 40
2, 92160, Note_on_c, 0, 81, 0
2, 92160, Note_on_c, 0, 73, 0
2, 92160, Note_on_c, 0, 67, 0
2, 92160, Note_on_c, 0, 69, 0
2, 92160, Note_on_c, 0, 78, 0
2, 92160, Control_c, 0, 91, 127
2, 92160, Note_on_c, 0, 50, 32
2, 92400, Note_on_c, 0, 50, 0
2, 92400, Note_on_c, 0, 62, 21
2, 92400, Note_on_c, 0, 66, 21
2, 92400, Note_on_c, 0, 74, 24
2, 92468, Note_on_c, 0, 74, 0
2, 92468, Note_on_c, 0, 66, 0
2, 92468, Note_on_c, 0, 62, 0
2, 92520, Note_on_c, 0, 62, 21
2, 92520, Note_on_c, 0, 66, 21
2, 92520, Note_on_c, 0, 74, 24
2, 92588, Note_on_c, 0, 74, 0
2, 92588, Note_on_c, 0, 66, 0
2, 92588, Note_on_c, 0, 62, 0
2, 92640, Note_on_c, 0, 62, 21
2, 92640, Note_on_c, 0, 66, 21
2, 92640, Note_on_c, 0, 74, 24
2, 92694, Note_on_c, 0, 74, 0
2, 92694, Note_on_c, 0, 66, 0
2, 92694, Note_on_c, 0, 62, 0
2, 92880, Note_on_c, 0, 54, 28
2, 92970, Note_on_c, 0, 54, 0
2, 93120, Note_on_c, 0, 58, 27
2, 93210, Note_on_c, 0, 58, 0
2, 93360, Note_on_c, 0, 55, 18
2, 93360, Note_on_c, 0, 62, 18
2, 93360, Note_on_c, 0, 64, 20
2, 93480, Note_on_c, 0, 64, 0
2, 93480, Note_on_c, 0, 62, 0
2, 93480, Note_on_c, 0, 55, 0
2, 93600, Note_on_c, 0, 55, 27
2, 93690, Note_on_c, 0, 55, 0
2, 93840, Note_on_c, 0, 58, 18
2, 93840, Note_on_c, 0, 62, 18
2, 93840, Note_on_c, 0, 64, 20
2, 93960, Note_on_c, 0, 64, 0
2, 93960, Note_on_c, 0, 62, 0
2, 93960, Note_on_c, 0, 58, 0
2, 94080, Note_on_c, 0, 50, 32
2, 94320, Note_on_c, 0, 50, 0
2, 94320, Note_on_c, 0, 62, 22
2, 94320, Note_on_c, 0, 66, 22
2, 94320, Note_on_c, 0, 74, 25
2, 94388, Note_on_c, 0, 74, 0
2, 94388, Note_on_c, 0, 66, 0
2, 94388, Note_on_c, 0, 62, 0
2, 94440, Note_on_c, 0, 62, 22
2, 94440, Note_on_c, 0, 66, 22
2, 94440, Note_on_c, 0, 74, 25
2, 94508, Note_on_c, 0, 74, 0
2, 94508, Note_on_c, 0, 66, 0
2, 94508, Note_on_c, 0, 62, 0
2, 94560, Note_on_c, 0, 62, 22
2, 94560, Note_on_c, 0, 66, 22
2, 94560, Note_on_c, 0, 74, 25
2, 94614, Note_on_c, 0, 74, 0
2, 94614, Note_on_c, 0, 66, 0
2, 94614, Note_on_c, 0, 62, 0
2, 94800, Note_on_c, 0, 54, 28
2, 94890, Note_on_c, 0, 54, 0
2, 95040, Note_on_c, 0, 58, 28
2, 95130, Note_on_c, 0, 58, 0
2, 95280, Note_on_c, 0, 55, 18
2, 95280, Note_on_c, 0, 62, 18
2, 95280, Note_on_c, 0, 64, 21
2, 95400, Note_on_c, 0, 64, 0
2, 95400, Note_on_c, 0, 62, 0
2, 95400, Note_on_c, 0, 55, 0
2, 95520, Note_on_c, 0, 55, 27
2, 95610, Note_on_c, 0, 55, 0
2, 95760, Note_on_c, 0, 58, 18
2, 95760, Note_on_c, 0, 62, 18
2, 95760, Note_on_c, 0, 64, 21
2, 95880, Note_on_c, 0, 64, 0
2, 95880, Note_on_c, 0, 62, 0
2, 95880, Note_on_c, 0, 58, 0
2, 96000, Note_on_c, 0, 50, 32
2, 96240, Note_on_c, 0, 50, 0
2, 96240, Note_on_c, 0, 62, 23
2, 96240, Note_on_c, 0, 66, 23
2, 96240, Note_on_c, 0, 74, 26
2, 96308, Note_on_c, 0, 74, 0
2, 96308, Note_on_c, 0, 66, 0
2, 96308, Note_on_c, 0, 62, 0
2, 96360, Note_on_c, 0, 62, 24
2, 96360, Note_on_c, 0, 66, 24
2, 96360, Note_on_c, 0, 74, 27
2, 96428, Note_on_c, 0, 74, 0
2, 96428, Note_on_c, 0, 66, 0
2, 96428, Note_on_c, 0, 62, 0
2, 96480, Note_on_c, 0, 62, 24
2, 96480, Note_on_c, 0, 66, 24
2, 96480, Note_on_c, 0, 74, 27
2, 96534, Note_on_c, 0, 74, 0
2, 96534, Note_on_c, 0, 66, 0
2, 96534, Note_on_c, 0, 62, 0
2, 96720, Note_on_c, 0, 62, 31
2, 96810, Note_on_c, 0, 62, 0
2, 96960, Note_on_c, 0, 51, 36
2, 97200, Note_on_c, 0, 62, 25
2, 97200, Note_on_c, 0, 67, 28
2, 97268, Note_on_c, 0, 67, 0
2, 97268, Note_on_c, 0, 62, 0
2, 97320, Note_on_c, 0, 62, 26
2, 97320, Note_on_c, 0, 67, 29
2, 97388, Note_on_c, 0, 67, 0
2, 97388, Note_on_c, 0, 62, 0
2, 97440, Note_on_c, 0, 62, 27
2, 97440, Note_on_c, 0, 67, 30
2, 97494, Note_on_c, 0, 67, 0
2, 97494, Note_on_c, 0, 62, 0
2, 97680, Note_on_c, 0, 51, 0
2, 97680, Note_on_c, 0, 62, 35
2, 97770, Note_on_c, 0, 62, 0
2, 97920, Note_on_c, 0, 52, 41
2, 98160, Note_on_c, 0, 62, 30
2, 98160, Note_on_c, 0, 68, 34
2, 98228, Note_on_c, 0, 68, 0
2, 98228, Note_on_c, 0, 62, 0
2, 98280, Note_on_c, 0, 62, 30
2, 98280, Note_on_c, 0, 68, 34
2, 98348, Note_on_c, 0, 68, 0
2, 98348, Note_on_c, 0, 62, 0
2, 98400, Note_on_c, 0, 62, 31
2, 98400, Note_on_c, 0, 68, 35
2, 98454, Note_on_c, 0, 68, 0
2, 98454, Note_on_c, 0, 62, 0
2, 98640, Note_on_c, 0, 52, 0
2, 98640, Note_on_c, 0, 62, 39
2, 98730, Note_on_c, 0, 62, 0
2, 98880, Note_on_c, 0, 53, 40
2, 98970, Note_on_c, 0, 53, 0
2, 99120, Note_on_c, 0, 69, 35
2, 99120, Note_on_c, 0, 62, 35
2, 99210, Note_on_c, 0, 62, 0
2, 99210, Note_on_c, 0, 69, 0
2, 99360, Note_on_c, 0, 54, 42
2, 99450, Note_on_c, 0, 54, 0
2, 99600, Note_on_c, 0, 69, 37
2, 99600, Note_on_c, 0, 62, 37
2, 99690, Note_on_c, 0, 62, 0
2, 99690, Note_on_c, 0, 69, 0
2, 99840, Note_on_c, 0, 55, 51
2, 100080, Note_on_c, 0, 67, 36
2, 100080, Note_on_c, 0, 70, 40
2, 100148, Note_on_c, 0, 70, 0
2, 100148, Note_on_c, 0, 67, 0
2, 100200, Note_on_c, 0, 67, 36
2, 100200, Note_on_c, 0, 70, 40
2, 100268, Note_on_c, 0, 70, 0
2, 100268, Note_on_c, 0, 67, 0
2, 100320, Note_on_c, 0, 67, 36
2, 100320, Note_on_c, 0, 70, 41
2, 100500, Note_on_c, 0, 70, 0
2, 100500, Note_on_c, 0, 67, 0
2, 100560, Note_on_c, 0, 55, 0
2, 100560, Note_on_c, 0, 58, 49
2, 100650, Note_on_c, 0, 58, 0
2, 100800, Note_on_c, 0, 62, 50
2, 100890, Note_on_c, 0, 62, 0
2, 101040, Note_on_c, 0, 67, 45
2, 101040, Note_on_c, 0, 70, 45
2, 101160, Note_on_c, 0, 70, 0
2, 101160, Note_on_c, 0, 67, 0
2, 101280, Note_on_c, 0, 58, 52
2, 101370, Note_on_c, 0, 58, 0
2, 101520, Note_on_c, 0, 67, 47
2, 101520, Note_on_c, 0, 70, 47
2, 101640, Note_on_c, 0, 70, 0
2, 101640, Note_on_c, 0, 67, 0
2, 101760, Note_on_c, 0, 55, 61
2, 101880, Note_on_c, 0, 55, 0
2, 102000, Note_on_c, 0, 67, 44
2, 102000, Note_on_c, 0, 70, 49
2, 102068, Note_on_c, 0, 70, 0
2, 102068, Note_on_c, 0, 67, 0
2, 102120, Note_on_c, 0, 67, 45
2, 102120, Note_on_c, 0, 70, 50
2, 102188, Note_on_c, 0, 70, 0
2, 102188, Note_on_c, 0, 67, 0
2, 102240, Note_on_c, 0, 67, 45
2, 102240, Note_on_c, 0, 70, 50
2, 102420, Note_on_c, 0, 70, 0
2, 102420, Note_on_c, 0, 67, 0
2, 102480, Note_on_c, 0, 58, 56
2, 102600, Note_on_c, 0, 58, 0
2, 102720, Note_on_c, 0, 62, 57
2, 102810, Note_on_c, 0, 62, 0
2, 102960, Note_on_c, 0, 67, 53
2, 102960, Note_on_c, 0, 70, 53
2, 103080, Note_on_c, 0, 70, 0
2, 103080, Note_on_c, 0, 67, 0
2, 103200, Note_on_c, 0, 58, 59
2, 103290, Note_on_c, 0, 58, 0
2, 103440, Note_on_c, 0, 67, 53
2, 103440, Note_on_c, 0, 70, 53
2, 103560, Note_on_c, 0, 70, 0
2, 103560, Note_on_c, 0, 67, 0
2, 103680, Note_on_c, 0, 55, 70
2, 103800, Note_on_c, 0, 55, 0
2, 103920, Note_on_c, 0, 67, 51
2, 103920, Note_on_c, 0, 70, 57
2, 103988, Note_on_c, 0, 70, 0
2, 103988, Note_on_c, 0, 67, 0
2, 104040, Note_on_c, 0, 67, 51
2, 104040, Note_on_c, 0, 70, 57
2, 104108, Note_on_c, 0, 70, 0
2, 104108, Note_on_c, 0, 67, 0
2, 104160, Note_on_c, 0, 67, 51
2, 104160, Note_on_c, 0, 70, 57
2, 104340, Note_on_c, 0, 70, 0
2, 104340, Note_on_c, 0, 67, 0
2, 104400, Note_on_c, 0, 67, 66
2, 104490, Note_on_c, 0, 67, 0
2, 104640, Note_on_c, 0, 56, 75
2, 104880, Note_on_c, 0, 60, 54
2, 104880, Note_on_c, 0, 67, 54
2, 104880, Note_on_c, 0, 72, 61
2, 104948, Note_on_c, 0, 72, 0
2, 104948, Note_on_c, 0, 67, 0
2, 104948, Note_on_c, 0, 60, 0
2, 105000, Note_on_c, 0, 60, 54
2, 105000, Note_on_c, 0, 67, 54
2, 105000, Note_on_c, 0, 72, 61
2, 105068, Note_on_c, 0, 72, 0
2, 105068, Note_on_c, 0, 67, 0
2, 105068, Note_on_c, 0, 60, 0
2, 105120, Note_on_c, 0, 60, 55
2, 105120, Note_on_c, 0, 67, 55
2, 105120, Note_on_c, 0, 72, 62
2, 105300, Note_on_c, 0, 72, 0
2, 105300, Note_on_c, 0, 67, 0
2, 105300, Note_on_c, 0, 60, 0
2, 105360, Note_on_c, 0, 56, 0
2, 105360, Note_on_c, 0, 67, 69
2, 105450, Note_on_c, 0, 67, 0
2, 105600, Note_on_c, 0, 57, 80
2, 105840, Note_on_c, 0, 61, 57
2, 105840, Note_on_c, 0, 67, 57
2, 105840, Note_on_c, 0, 73, 64
2, 105908, Note_on_c, 0, 73, 0
2, 105908, Note_on_c, 0, 67, 0
2, 105908, Note_on_c, 0, 61, 0
2, 105960, Note_on_c, 0, 61, 57
2, 105960, Note_on_c, 0, 67, 57
2, 105960, Note_on_c, 0, 73, 64
2, 106028, Note_on_c, 0, 73, 0
2, 106028, Note_on_c, 0, 67, 0
2, 106028, Note_on_c, 0, 61, 0
2, 106080, Note_on_c, 0, 61, 58
2, 106080, Note_on_c, 0, 67, 58
2, 106080, Note_on_c, 0, 73, 65
2, 106260, Note_on_c, 0, 73, 0
2, 106260, Note_on_c, 0, 67, 0
2, 106260, Note_on_c, 0, 61, 0
2, 106320, Note_on_c, 0, 57, 0
2, 106320, Note_on_c, 0, 67, 74
2, 106410, Note_on_c, 0, 67, 0
2, 106560, Note_on_c, 0, 58, 75
2, 106650, Note_on_c, 0, 58, 0
2, 106800, Note_on_c, 0, 62, 63
2, 106800, Note_on_c, 0, 67, 63
2, 106800, Note_on_c, 0, 74, 71
2, 106890, Note_on_c, 0, 74, 0
2, 106890, Note_on_c, 0, 67, 0
2, 106890, Note_on_c, 0, 62, 0
2, 107040, Note_on_c, 0, 59, 78
2, 107130, Note_on_c, 0, 59, 0
2, 107280, Note_on_c, 0, 62, 64
2, 107280, Note_on_c, 0, 67, 64
2, 107280, Note_on_c, 0, 74, 72
2, 107370, Note_on_c, 0, 74, 0
2, 107370, Note_on_c, 0, 67, 0
2, 107370, Note_on_c, 0, 62, 0
2, 107520, Note_on_c, 0, 60, 81
2, 107640, Note_on_c, 0, 60, 0
2, 107760, Note_on_c, 0, 79, 73
2, 107760, Note_on_c, 0, 75, 65
2, 107760, Note_on_c, 0, 72, 58
2, 107760, Note_on_c, 0, 67, 58
2, 107828, Note_on_c, 0, 67, 0
2, 107828, Note_on_c, 0, 79, 0
2, 107828, Note_on_c, 0, 75, 0
2, 107828, Note_on_c, 0, 72, 0
2, 107880, Note_on_c, 0, 79, 73
2, 107880, Note_on_c, 0, 75, 65
2, 107880, Note_on_c, 0, 72, 58
2, 107880, Note_on_c, 0, 67, 58
2, 107948, Note_on_c, 0, 67, 0
2, 107948, Note_on_c, 0, 79, 0
2, 107948, Note_on_c, 0, 75, 0
2, 107948, Note_on_c, 0, 72, 0
2, 108000, Note_on_c, 0, 67, 66
2, 108000, Note_on_c, 0, 72, 66
2, 108000, Note_on_c, 0, 75, 66
2, 108000, Note_on_c, 0, 79, 74
2, 108180, Note_on_c, 0, 79, 0
2, 108180, Note_on_c, 0, 67, 0
2, 108180, Note_on_c, 0, 72, 0
2, 108180, Note_on_c, 0, 75, 0
2, 108240, Note_on_c, 0, 63, 76
2, 108330, Note_on_c, 0, 63, 0
2, 108480, Note_on_c, 0, 67, 77
2, 108570, Note_on_c, 0, 67, 0
2, 108720, Note_on_c, 0, 79, 72
2, 108720, Note_on_c, 0, 75, 64
2, 108720, Note_on_c, 0, 72, 57
2, 108720, Note_on_c, 0, 67, 57
2, 108840, Note_on_c, 0, 67, 0
2, 108840, Note_on_c, 0, 79, 0
2, 108840, Note_on_c, 0, 75, 0
2, 108840, Note_on_c, 0, 72, 0
2, 108960, Note_on_c, 0, 63, 78
2, 109050, Note_on_c, 0, 63, 0
2, 109200, Note_on_c, 0, 80, 74
2, 109200, Note_on_c, 0, 75, 66
2, 109200, Note_on_c, 0, 72, 59
2, 109200, Note_on_c, 0, 68, 59
2, 109320, Note_on_c, 0, 68, 0
2, 109320, Note_on_c, 0, 80, 0
2, 109320, Note_on_c, 0, 75, 0
2, 109320, Note_on_c, 0, 72, 0
2, 109440, Note_on_c, 0, 60, 85
2, 109560, Note_on_c, 0, 60, 0
2, 109680, Note_on_c, 0, 81, 76
2, 109680, Note_on_c, 0, 75, 68
2, 109680, Note_on_c, 0, 72, 61
2, 109680, Note_on_c, 0, 69, 61
2, 109748, Note_on_c, 0, 69, 0
2, 109748, Note_on_c, 0, 81, 0
2, 109748, Note_on_c, 0, 75, 0
2, 109748, Note_on_c, 0, 72, 0
2, 109800, Note_on_c, 0, 81, 76
2, 109800, Note_on_c, 0, 75, 68
2, 109800, Note_on_c, 0, 72, 61
2, 109800, Note_on_c, 0, 69, 61
2, 109868, Note_on_c, 0, 69, 0
2, 109868, Note_on_c, 0, 81, 0
2, 109868, Note_on_c, 0, 75, 0
2, 109868, Note_on_c, 0, 72, 0
2, 109920, Note_on_c, 0, 69, 62
2, 109920, Note_on_c, 0, 72, 62
2, 109920, Note_on_c, 0, 75, 69
2, 109920, Note_on_c, 0, 81, 77
2, 110100, Note_on_c, 0, 81, 0
2, 110100, Note_on_c, 0, 69, 0
2, 110100, Note_on_c, 0, 72, 0
2, 110100, Note_on_c, 0, 75, 0
2, 110160, Note_on_c, 0, 63, 81
2, 110250, Note_on_c, 0, 63, 0
2, 110400, Note_on_c, 0, 67, 82
2, 110490, Note_on_c, 0, 67, 0
2, 110640, Note_on_c, 0, 79, 77
2, 110640, Note_on_c, 0, 75, 69
2, 110640, Note_on_c, 0, 72, 62
2, 110640, Note_on_c, 0, 67, 62
2, 110760, Note_on_c, 0, 67, 0
2, 110760, Note_on_c, 0, 79, 0
2, 110760, Note_on_c, 0, 75, 0
2, 110760, Note_on_c, 0, 72, 0
2, 110880, Note_on_c, 0, 63, 83
2, 110970, Note_on_c, 0, 63, 0
2, 111120, Note_on_c, 0, 81, 78
2, 111120, Note_on_c, 0, 75, 70
2, 111120, Note_on_c, 0, 72, 63
2, 111120, Note_on_c, 0, 69, 63
2, 111240, Note_on_c, 0, 69, 0
2, 111240, Note_on_c, 0, 81, 0
2, 111240, Note_on_c, 0, 75, 0
2, 111240, Note_on_c, 0, 72, 0
2, 111360, Note_on_c, 0, 61, 90
2, 111600, Note_on_c, 0, 82, 81
2, 111600, Note_on_c, 0, 75, 72
2, 111600, Note_on_c, 0, 70, 64
2, 111668, Note_on_c, 0, 70, 0
2, 111668, Note_on_c, 0, 75, 0
2, 111668, Note_on_c, 0, 82, 0
2, 111720, Note_on_c, 0, 70, 64
2, 111720, Note_on_c, 0, 75, 72
2, 111720, Note_on_c, 0, 82, 81
2, 111788, Note_on_c, 0, 82, 0
2, 111788, Note_on_c, 0, 75, 0
2, 111788, Note_on_c, 0, 70, 0
2, 111840, Note_on_c, 0, 70, 64
2, 111840, Note_on_c, 0, 75, 72
2, 111840, Note_on_c, 0, 82, 81
2, 112020, Note_on_c, 0, 82, 0
2, 112020, Note_on_c, 0, 75, 0
2, 112020, Note_on_c, 0, 70, 0
2, 112080, Note_on_c, 0, 61, 0
2, 112080, Note_on_c, 0, 70, 86
2, 112170, Note_on_c, 0, 70, 0
2, 112320, Note_on_c, 0, 62, 91
2, 112560, Note_on_c, 0, 86, 81
2, 112560, Note_on_c, 0, 79, 72
2, 112560, Note_on_c, 0, 74, 64
2, 112628, Note_on_c, 0, 74, 0
2, 112628, Note_on_c, 0, 79, 0
2, 112628, Note_on_c, 0, 86, 0
2, 112680, Note_on_c, 0, 86, 81
2, 112680, Note_on_c, 0, 79, 72
2, 112680, Note_on_c, 0, 74, 64
2, 112748, Note_on_c, 0, 74, 0
2, 112748, Note_on_c, 0, 79, 0
2, 112748, Note_on_c, 0, 86, 0
2, 112800, Note_on_c, 0, 74, 64
2, 112800, Note_on_c, 0, 79, 72
2, 112800, Note_on_c, 0, 86, 81
2, 112980, Note_on_c, 0, 86, 0
2, 112980, Note_on_c, 0, 79, 0
2, 112980, Note_on_c, 0, 74, 0
2, 113040, Note_on_c, 0, 62, 0
2, 113040, Note_on_c, 0, 70, 88
2, 113130, Note_on_c, 0, 70, 0
2, 113280, Note_on_c, 0, 64, 97
2, 113520, Note_on_c, 0, 67, 84
2, 113520, Note_on_c, 0, 70, 94
2, 113520, Note_on_c, 0, 74, 94
2, 113760, Note_on_c, 0, 74, 0
2, 113760, Note_on_c, 0, 73, 81
2, 114000, Note_on_c, 0, 73, 0
2, 114000, Note_on_c, 0, 70, 0
2, 114000, Note_on_c, 0, 67, 0
2, 114000, Note_on_c, 0, 82, 94
2, 114000, Note_on_c, 0, 79, 94
2, 114000, Note_on_c, 0, 70, 94
2, 114000, Note_on_c, 0, 74, 94
2, 114240, Note_on_c, 0, 74, 0
2, 114240, Note_on_c, 0, 73, 84
2, 114480, Note_on_c, 0, 73, 0
2, 114480, Note_on_c, 0, 70, 0
2, 114480, Note_on_c, 0, 79, 0
2, 114480, Note_on_c, 0, 82, 0
2, 114480, Note_on_c, 0, 82, 94
2, 114480, Note_on_c, 0, 79, 94
2, 114480, Note_on_c, 0, 86, 94
2, 114480, Note_on_c, 0, 74, 94
2, 114720, Note_on_c, 0, 74, 0
2, 114720, Note_on_c, 0, 64, 0
2, 114720, Note_on_c, 0, 86, 0
2, 114720, Note_on_c, 0, 73, 84
2, 114720, Note_on_c, 0, 85, 84
2, 114960, Note_on_c, 0, 85, 0
2, 114960, Note_on_c, 0, 82, 0
2, 114960, Note_on_c, 0, 79, 0
2, 114960, Note_on_c, 0, 73, 0
2, 114960, Note_on_c, 0, 91, 100
2, 114960, Note_on_c, 0, 85, 100
2, 114960, Note_on_c, 0, 82, 90
2, 114960, Note_on_c, 0, 79, 90
2, 115200, Note_on_c, 0, 79, 0
2, 115200, Note_on_c, 0, 91, 0
2, 115200, Note_on_c, 0, 85, 0
2, 115200, Note_on_c, 0, 82, 0
2, 115440, Note_on_c, 0, 94, 87
2, 115440, Note_on_c, 0, 91, 87
2, 115440, Note_on_c, 0, 86, 78
2, 115440, Note_on_c, 0, 82, 78
2, 115500, Note_on_c, 0, 82, 0
2, 115500, Note_on_c, 0, 94, 0
2, 115500, Note_on_c, 0, 91, 0
2, 115500, Note_on_c, 0, 86, 0
2, 115560, Note_on_c, 0, 94, 86
2, 115560, Note_on_c, 0, 91, 86
2, 115560, Note_on_c, 0, 86, 77
2, 115560, Note_on_c, 0, 82, 77
2, 115620, Note_on_c, 0, 82, 0
2, 115620, Note_on_c, 0, 94, 0
2, 115620, Note_on_c, 0, 91, 0
2, 115620, Note_on_c, 0, 86, 0
2, 115680, Note_on_c, 0, 94, 86
2, 115680, Note_on_c, 0, 91, 86
2, 115680, Note_on_c, 0, 86, 77
2, 115680, Note_on_c, 0, 82, 77
2, 115740, Note_on_c, 0, 82, 0
2, 115740, Note_on_c, 0, 94, 0
2, 115740, Note_on_c, 0, 91, 0
2, 115740, Note_on_c, 0, 86, 0
2, 115800, Note_on_c, 0, 94, 86
2, 115800, Note_on_c, 0, 91, 86
2, 115800, Note_on_c, 0, 86, 77
2, 115800, Note_on_c, 0, 82, 77
2, 115860, Note_on_c, 0, 82, 0
2, 115860, Note_on_c, 0, 94, 0
2, 115860, Note_on_c, 0, 91, 0
2, 115860, Note_on_c, 0, 86, 0
2, 115920, Note_on_c, 0, 94, 86
2, 115920, Note_on_c, 0, 91, 86
2, 115920, Note_on_c, 0, 86, 77
2, 115920, Note_on_c, 0, 82, 77
2, 115980, Note_on_c, 0, 82, 0
2, 115980, Note_on_c, 0, 94, 0
2, 115980, Note_on_c, 0, 91, 0
2, 115980, Note_on_c, 0, 86, 0
2, 116040, Note_on_c, 0, 94, 86
2, 116040, Note_on_c, 0, 91, 86
2, 116040, Note_on_c, 0, 86, 77
2, 116040, Note_on_c, 0, 82, 77
2, 116100, Note_on_c, 0, 82, 0
2, 116100, Note_on_c, 0, 94, 0
2, 116100, Note_on_c, 0, 91, 0
2, 116100, Note_on_c, 0, 86, 0
2, 116160, Note_on_c, 0, 82, 77
2, 116160, Note_on_c, 0, 86, 77
2, 116160, Note_on_c, 0, 91, 86
2, 116160, Note_on_c, 0, 94, 86
2, 116388, Note_on_c, 0, 94, 0
2, 116388, Note_on_c, 0, 82, 0
2, 116388, Note_on_c, 0, 86, 0
2, 116388, Note_on_c, 0, 91, 0
2, 116400, Note_on_c, 0, 82, 95
2, 116400, Note_on_c, 0, 86, 95
2, 116400, Note_on_c, 0, 74, 85
2, 116640, Note_on_c, 0, 74, 0
2, 116640, Note_on_c, 0, 86, 0
2, 116640, Note_on_c, 0, 82, 0
2, 116640, Note_on_c, 0, 82, 95
2, 116640, Note_on_c, 0, 88, 95
2, 116640, Note_on_c, 0, 76, 85
2, 116880, Note_on_c, 0, 76, 0
2, 116880, Note_on_c, 0, 88, 0
2, 116880, Note_on_c, 0, 82, 0
2, 116880, Note_on_c, 0, 86, 95
2, 116880, Note_on_c, 0, 90, 95
2, 116880, Note_on_c, 0, 78, 85
2, 117120, Note_on_c, 0, 78, 0
2, 117120, Note_on_c, 0, 90, 0
2, 117120, Note_on_c, 0, 86, 0
2, 117120, Note_on_c, 0, 91, 96
2, 117120, Note_on_c, 0, 86, 96
2, 117120, Note_on_c, 0, 79, 86
2, 117360, Note_on_c, 0, 79, 0
2, 117360, Note_on_c, 0, 86, 0
2, 117360, Note_on_c, 0, 91, 0
2, 117360, Note_on_c, 0, 62, 86
2, 117360, Note_on_c, 0, 67, 96
2, 117360, Note_on_c, 0, 74, 96
2, 117600, Note_on_c, 0, 74, 0
2, 117600, Note_on_c, 0, 67, 0
2, 117600, Note_on_c, 0, 62, 0
2, 117600, Note_on_c, 0, 63, 86
2, 117600, Note_on_c, 0, 72, 96
2, 117600, Note_on_c, 0, 75, 96
2, 117840, Note_on_c, 0, 75, 0
2, 117840, Note_on_c, 0, 72, 0
2, 117840, Note_on_c, 0, 63, 0
2, 117840, Note_on_c, 0, 56, 101
2, 117930, Note_on_c, 0, 56, 0
2, 118080, Note_on_c, 0, 57, 101
2, 118170, Note_on_c, 0, 57, 0
2, 118320, Note_on_c, 0, 57, 88
2, 118320, Note_on_c, 0, 60, 88
2, 118320, Note_on_c, 0, 66, 98
2, 118560, Note_on_c, 0, 66, 0
2, 118560, Note_on_c, 0, 60, 0
2, 118560, Note_on_c, 0, 57, 0
2, 118560, Note_on_c, 0, 58, 88
2, 118560, Note_on_c, 0, 62, 88
2, 118560, Note_on_c, 0, 67, 98
2, 118800, Note_on_c, 0, 67, 0
2, 118800, Note_on_c, 0, 62, 0
2, 118800, Note_on_c, 0, 58, 0
2, 119040, Control_c, 0, 91, 127
2, 119040, Note_on_c, 0, 82, 99
2, 119040, Note_on_c, 0, 79, 99
2, 119040, Note_on_c, 0, 75, 89
2, 119040, Note_on_c, 0, 70, 89
2, 119280, Note_on_c, 0, 70, 0
2, 119280, Note_on_c, 0, 82, 0
2, 119280, Note_on_c, 0, 79, 0
2, 119280, Note_on_c, 0, 75, 0
2, 119280, Note_on_c, 0, 67, 81
2, 119280, Note_on_c, 0, 70, 81
2, 119280, Note_on_c, 0, 75, 90
2, 119280, Note_on_c, 0, 79, 90
2, 119348, Note_on_c, 0, 79, 0
2, 119348, Note_on_c, 0, 67, 0
2, 119348, Note_on_c, 0, 70, 0
2, 119348, Note_on_c, 0, 75, 0
2, 119400, Note_on_c, 0, 67, 81
2, 119400, Note_on_c, 0, 70, 81
2, 119400, Note_on_c, 0, 75, 90
2, 119400, Note_on_c, 0, 79, 90
2, 119468, Note_on_c, 0, 79, 0
2, 119468, Note_on_c, 0, 67, 0
2, 119468, Note_on_c, 0, 70, 0
2, 119468, Note_on_c, 0, 75, 0
2, 119520, Note_on_c, 0, 67, 81
2, 119520, Note_on_c, 0, 70, 81
2, 119520, Note_on_c, 0, 75, 90
2, 119520, Note_on_c, 0, 79, 90
2, 119588, Note_on_c, 0, 79, 0
2, 119588, Note_on_c, 0, 67, 0
2, 119588, Note_on_c, 0, 70, 0
2, 119588, Note_on_c, 0, 75, 0
2, 119760, Note_on_c, 0, 55, 65
2, 119760, Note_on_c, 0, 58, 65
2, 119760, Note_on_c, 0, 63, 73
2, 119760, Note_on_c, 0, 67, 73
2, 119828, Note_on_c, 0, 67, 0
2, 119828, Note_on_c, 0, 55, 0
2, 119828, Note_on_c, 0, 58, 0
2, 119828, Note_on_c, 0, 63, 0
2, 119880, Note_on_c, 0, 55, 65
2, 119880, Note_on_c, 0, 58, 65
2, 119880, Note_on_c, 0, 63, 73
2, 119880, Note_on_c, 0, 67, 73
2, 119948, Note_on_c, 0, 67, 0
2, 119948, Note_on_c, 0, 55, 0
2, 119948, Note_on_c, 0, 58, 0
2, 119948, Note_on_c, 0, 63, 0
2, 120000, Note_on_c, 0, 55, 65
2, 120000, Note_on_c, 0, 58, 65
2, 120000, Note_on_c, 0, 63, 73
2, 120000, Note_on_c, 0, 67, 73
2, 120068, Note_on_c, 0, 67, 0
2, 120068, Note_on_c, 0, 55, 0
2, 120068, Note_on_c, 0, 58, 0
2, 120068, Note_on_c, 0, 63, 0
2, 120240, Note_on_c, 0, 79, 94
2, 120240, Note_on_c, 0, 75, 94
2, 120240, Note_on_c, 0, 70, 84
2, 120240, Note_on_c, 0, 67, 84
2, 120330, Note_on_c, 0, 67, 0
2, 120330, Note_on_c, 0, 79, 0
2, 120330, Note_on_c, 0, 75, 0
2, 120330, Note_on_c, 0, 70, 0
2, 120480, Note_on_c, 0, 70, 94
2, 120480, Note_on_c, 0, 82, 94
2, 120480, Note_on_c, 0, 79, 94
2, 120600, Note_on_c, 0, 79, 0
2, 120600, Note_on_c, 0, 82, 0
2, 120600, Note_on_c, 0, 70, 0
2, 120600, Note_on_c, 0, 84, 94
2, 120600, Note_on_c, 0, 72, 94
2, 120720, Note_on_c, 0, 72, 0
2, 120720, Note_on_c, 0, 84, 0
2, 120720, Note_on_c, 0, 86, 94
2, 120720, Note_on_c, 0, 74, 94
2, 120840, Note_on_c, 0, 74, 0
2, 120840, Note_on_c, 0, 86, 0
2, 120840, Note_on_c, 0, 87, 94
2, 120840, Note_on_c, 0, 75, 94
2, 120960, Note_on_c, 0, 75, 0
2, 120960, Note_on_c, 0, 87, 0
2, 120960, Note_on_c, 0, 86, 99
2, 120960, Note_on_c, 0, 82, 99
2, 120960, Note_on_c, 0, 74, 89
2, 121200, Note_on_c, 0, 74, 0
2, 121200, Note_on_c, 0, 82, 0
2, 121200, Note_on_c, 0, 86, 0
2, 121200, Note_on_c, 0, 65, 81
2, 121200, Note_on_c, 0, 70, 81
2, 121200, Note_on_c, 0, 74, 90
2, 121200, Note_on_c, 0, 77, 90
2, 121268, Note_on_c, 0, 77, 0
2, 121268, Note_on_c, 0, 65, 0
2, 121268, Note_on_c, 0, 70, 0
2, 121268, Note_on_c, 0, 74, 0
2, 121320, Note_on_c, 0, 65, 81
2, 121320, Note_on_c, 0, 70, 81
2, 121320, Note_on_c, 0, 74, 90
2, 121320, Note_on_c, 0, 77, 90
2, 121388, Note_on_c, 0, 77, 0
2, 121388, Note_on_c, 0, 65, 0
2, 121388, Note_on_c, 0, 70, 0
2, 121388, Note_on_c, 0, 74, 0
2, 121440, Note_on_c, 0, 65, 81
2, 121440, Note_on_c, 0, 70, 81
2, 121440, Note_on_c, 0, 74, 90
2, 121440, Note_on_c, 0, 77, 90
2, 121508, Note_on_c, 0, 77, 0
2, 121508, Note_on_c, 0, 65, 0
2, 121508, Note_on_c, 0, 70, 0
2, 121508, Note_on_c, 0, 74, 0
2, 121680, Note_on_c, 0, 53, 64
2, 121680, Note_on_c, 0, 58, 64
2, 121680, Note_on_c, 0, 62, 72
2, 121680, Note_on_c, 0, 65, 72
2, 121748, Note_on_c, 0, 65, 0
2, 121748, Note_on_c, 0, 53, 0
2, 121748, Note_on_c, 0, 58, 0
2, 121748, Note_on_c, 0, 62, 0
2, 121800, Note_on_c, 0, 53, 64
2, 121800, Note_on_c, 0, 58, 64
2, 121800, Note_on_c, 0, 62, 72
2, 121800, Note_on_c, 0, 65, 72
2, 121868, Note_on_c, 0, 65, 0
2, 121868, Note_on_c, 0, 53, 0
2, 121868, Note_on_c, 0, 58, 0
2, 121868, Note_on_c, 0, 62, 0
2, 121920, Note_on_c, 0, 53, 64
2, 121920, Note_on_c, 0, 58, 64
2, 121920, Note_on_c, 0, 62, 72
2, 121920, Note_on_c, 0, 65, 72
2, 121988, Note_on_c, 0, 65, 0
2, 121988, Note_on_c, 0, 53, 0
2, 121988, Note_on_c, 0, 58, 0
2, 121988, Note_on_c, 0, 62, 0
2, 122160, Note_on_c, 0, 65, 83
2, 122160, Note_on_c, 0, 70, 83
2, 122160, Note_on_c, 0, 74, 93
2, 122160, Note_on_c, 0, 77, 93
2, 122250, Note_on_c, 0, 77, 0
2, 122250, Note_on_c, 0, 65, 0
2, 122250, Note_on_c, 0, 70, 0
2, 122250, Note_on_c, 0, 74, 0
2, 122400, Note_on_c, 0, 86, 94
2, 122400, Note_on_c, 0, 82, 94
2, 122400, Note_on_c, 0, 74, 84
2, 122520, Note_on_c, 0, 74, 0
2, 122520, Note_on_c, 0, 82, 0
2, 122520, Note_on_c, 0, 86, 0
2, 122520, Note_on_c, 0, 88, 94
2, 122640, Note_on_c, 0, 88, 0
2, 122640, Note_on_c, 0, 77, 94
2, 122640, Note_on_c, 0, 89, 94
2, 122760, Note_on_c, 0, 89, 0
2, 122760, Note_on_c, 0, 77, 0
2, 122760, Note_on_c, 0, 91, 94
2, 122880, Note_on_c, 0, 91, 0
2, 122880, Note_on_c, 0, 77, 99
2, 122880, Note_on_c, 0, 86, 99
2, 122880, Note_on_c, 0, 89, 99
2, 123120, Note_on_c, 0, 89, 0
2, 123120, Note_on_c, 0, 86, 0
2, 123120, Note_on_c, 0, 77, 0
2, 123120, Note_on_c, 0, 69, 81
2, 123120, Note_on_c, 0, 74, 81
2, 123120, Note_on_c, 0, 77, 90
2, 123120, Note_on_c, 0, 81, 90
2, 123188, Note_on_c, 0, 81, 0
2, 123188, Note_on_c, 0, 69, 0
2, 123188, Note_on_c, 0, 74, 0
2, 123188, Note_on_c, 0, 77, 0
2, 123240, Note_on_c, 0, 69, 81
2, 123240, Note_on_c, 0, 74, 81
2, 123240, Note_on_c, 0, 77, 90
2, 123240, Note_on_c, 0, 81, 90
2, 123308, Note_on_c, 0, 81, 0
2, 123308, Note_on_c, 0, 69, 0
2, 123308, Note_on_c, 0, 74, 0
2, 123308, Note_on_c, 0, 77, 0
2, 123360, Note_on_c, 0, 69, 81
2, 123360, Note_on_c, 0, 74, 81
2, 123360, Note_on_c, 0, 77, 90
2, 123360, Note_on_c, 0, 81, 90
2, 123428, Note_on_c, 0, 81, 0
2, 123428, Note_on_c, 0, 69, 0
2, 123428, Note_on_c, 0, 74, 0
2, 123428, Note_on_c, 0, 77, 0
2, 123600, Note_on_c, 0, 57, 64
2, 123600, Note_on_c, 0, 62, 64
2, 123600, Note_on_c, 0, 65, 72
2, 123600, Note_on_c, 0, 69, 72
2, 123668, Note_on_c, 0, 69, 0
2, 123668, Note_on_c, 0, 57, 0
2, 123668, Note_on_c, 0, 62, 0
2, 123668, Note_on_c, 0, 65, 0
2, 123720, Note_on_c, 0, 57, 64
2, 123720, Note_on_c, 0, 62, 64
2, 123720, Note_on_c, 0, 65, 72
2, 123720, Note_on_c, 0, 69, 72
2, 123788, Note_on_c, 0, 69, 0
2, 123788, Note_on_c, 0, 57, 0
2, 123788, Note_on_c, 0, 62, 0
2, 123788, Note_on_c, 0, 65, 0
2, 123840, Note_on_c, 0, 57, 64
2, 123840, Note_on_c, 0, 62, 64
2, 123840, Note_on_c, 0, 65, 72
2, 123840, Note_on_c, 0, 69, 72
2, 123908, Note_on_c, 0, 69, 0
2, 123908, Note_on_c, 0, 57, 0
2, 123908, Note_on_c, 0, 62, 0
2, 123908, Note_on_c, 0, 65, 0
2, 124080, Note_on_c, 0, 65, 83
2, 124080, Note_on_c, 0, 69, 83
2, 124080, Note_on_c, 0, 74, 93
2, 124080, Note_on_c, 0, 77, 93
2, 124170, Note_on_c, 0, 77, 0
2, 124170, Note_on_c, 0, 65, 0
2, 124170, Note_on_c, 0, 69, 0
2, 124170, Note_on_c, 0, 74, 0
2, 124320, Note_on_c, 0, 69, 83
2, 124320, Note_on_c, 0, 77, 93
2, 124320, Note_on_c, 0, 81, 93
2, 124440, Note_on_c, 0, 81, 0
2, 124440, Note_on_c, 0, 77, 0
2, 124440, Note_on_c, 0, 69, 0
2, 124440, Note_on_c, 0, 83, 93
2, 124560, Note_on_c, 0, 83, 0
2, 124560, Note_on_c, 0, 72, 93
2, 124560, Note_on_c, 0, 84, 93
2, 124680, Note_on_c, 0, 84, 0
2, 124680, Note_on_c, 0, 72, 0
2, 124680, Note_on_c, 0, 86, 93
2, 124800, Note_on_c, 0, 86, 0
2, 124800, Note_on_c, 0, 72, 89
2, 124800, Note_on_c, 0, 81, 99
2, 124800, Note_on_c, 0, 84, 99
2, 125040, Note_on_c, 0, 84, 0
2, 125040, Note_on_c, 0, 81, 0
2, 125040, Note_on_c, 0, 72, 0
2, 125040, Note_on_c, 0, 69, 82
2, 125040, Note_on_c, 0, 72, 82
2, 125040, Note_on_c, 0, 77, 92
2, 125040, Note_on_c, 0, 81, 92
2, 125108, Note_on_c, 0, 81, 0
2, 125108, Note_on_c, 0, 69, 0
2, 125108, Note_on_c, 0, 72, 0
2, 125108, Note_on_c, 0, 77, 0
2, 125160, Note_on_c, 0, 69, 82
2, 125160, Note_on_c, 0, 72, 82
2, 125160, Note_on_c, 0, 77, 92
2, 125160, Note_on_c, 0, 81, 92
2, 125228, Note_on_c, 0, 81, 0
2, 125228, Note_on_c, 0, 69, 0
2, 125228, Note_on_c, 0, 72, 0
2, 125228, Note_on_c, 0, 77, 0
2, 125280, Note_on_c, 0, 69, 82
2, 125280, Note_on_c, 0, 72, 82
2, 125280, Note_on_c, 0, 77, 92
2, 125280, Note_on_c, 0, 81, 92
2, 125348, Note_on_c, 0, 81, 0
2, 125348, Note_on_c, 0, 69, 0
2, 125348, Note_on_c, 0, 72, 0
2, 125348, Note_on_c, 0, 77, 0
2, 125520, Note_on_c, 0, 60, 72
2, 125520, Note_on_c, 0, 65, 72
2, 125520, Note_on_c, 0, 69, 80
2, 125520, Note_on_c, 0, 72, 80
2, 125588, Note_on_c, 0, 72, 0
2, 125588, Note_on_c, 0, 60, 0
2, 125588, Note_on_c, 0, 65, 0
2, 125588, Note_on_c, 0, 69, 0
2, 125640, Note_on_c, 0, 60, 72
2, 125640, Note_on_c, 0, 65, 72
2, 125640, Note_on_c, 0, 69, 80
2, 125640, Note_on_c, 0, 72, 80
2, 125708, Note_on_c, 0, 72, 0
2, 125708, Note_on_c, 0, 60, 0
2, 125708, Note_on_c, 0, 65, 0
2, 125708, Note_on_c, 0, 69, 0
2, 125760, Note_on_c, 0, 60, 72
2, 125760, Note_on_c, 0, 65, 72
2, 125760, Note_on_c, 0, 69, 80
2, 125760, Note_on_c, 0, 72, 80
2, 125828, Note_on_c, 0, 72, 0
2, 125828, Note_on_c, 0, 60, 0
2, 125828, Note_on_c, 0, 65, 0
2, 125828, Note_on_c, 0, 69, 0
2, 126000, Note_on_c, 0, 69, 81
2, 126000, Note_on_c, 0, 72, 81
2, 126000, Note_on_c, 0, 77, 91
2, 126000, Note_on_c, 0, 81, 91
2, 126090, Note_on_c, 0, 81, 0
2, 126090, Note_on_c, 0, 69, 0
2, 126090, Note_on_c, 0, 72, 0
2, 126090, Note_on_c, 0, 77, 0
2, 126240, Note_on_c, 0, 72, 81
2, 126240, Note_on_c, 0, 80, 91
2, 126240, Note_on_c, 0, 84, 91
2, 126360, Note_on_c, 0, 84, 0
2, 126360, Note_on_c, 0, 80, 0
2, 126360, Note_on_c, 0, 72, 0
2, 126360, Note_on_c, 0, 86, 91
2, 126480, Note_on_c, 0, 86, 0
2, 126480, Note_on_c, 0, 75, 91
2, 126480, Note_on_c, 0, 87, 91
2, 126600, Note_on_c, 0, 87, 0
2, 126600, Note_on_c, 0, 75, 0
2, 126600, Note_on_c, 0, 89, 91
2, 126720, Note_on_c, 0, 89, 0
2, 126720, Note_on_c, 0, 75, 87
2, 126720, Note_on_c, 0, 84, 97
2, 126720, Note_on_c, 0, 87, 97
2, 126960, Note_on_c, 0, 87, 0
2, 126960, Note_on_c, 0, 84, 0
2, 126960, Note_on_c, 0, 75, 0
2, 126960, Note_on_c, 0, 60, 89
2, 126960, Note_on_c, 0, 67, 89
2, 127028, Note_on_c, 0, 67, 0
2, 127028, Note_on_c, 0, 60, 0
2, 127080, Note_on_c, 0, 60, 89
2, 127080, Note_on_c, 0, 67, 89
2, 127148, Note_on_c, 0, 67, 0
2, 127148, Note_on_c, 0, 60, 0
2, 127200, Note_on_c, 0, 60, 89
2, 127200, Note_on_c, 0, 67, 89
2, 127268, Note_on_c, 0, 67, 0
2, 127268, Note_on_c, 0, 60, 0
2, 127440, Note_on_c, 0, 87, 94
2, 127440, Note_on_c, 0, 75, 94
2, 127560, Note_on_c, 0, 75, 0
2, 127560, Note_on_c, 0, 87, 0
2, 127560, Note_on_c, 0, 89, 94
2, 127560, Note_on_c, 0, 77, 94
2, 127680, Note_on_c, 0, 77, 0
2, 127680, Note_on_c, 0, 89, 0
2, 127680, Note_on_c, 0, 91, 99
2, 127680, Note_on_c, 0, 86, 99
2, 127680, Note_on_c, 0, 82, 89
2, 127680, Note_on_c, 0, 79, 89
2, 127920, Note_on_c, 0, 79, 0
2, 127920, Note_on_c, 0, 91, 0
2, 127920, Note_on_c, 0, 86, 0
2, 127920, Note_on_c, 0, 82, 0
2, 127920, Note_on_c, 0, 62, 89
2, 127920, Note_on_c, 0, 67, 89
2, 127988, Note_on_c, 0, 67, 0
2, 127988, Note_on_c, 0, 62, 0
2, 128040, Note_on_c, 0, 62, 89
2, 128040, Note_on_c, 0, 67, 89
2, 128108, Note_on_c, 0, 67, 0
2, 128108, Note_on_c, 0, 62, 0
2, 128160, Note_on_c, 0, 62, 89
2, 128160, Note_on_c, 0, 67, 89
2, 128228, Note_on_c, 0, 67, 0
2, 128228, Note_on_c, 0, 62, 0
2, 128400, Note_on_c, 0, 86, 99
2, 128520, Note_on_c, 0, 86, 0
2, 128520, Note_on_c, 0, 91, 99
2, 128640, Note_on_c, 0, 91, 0
2, 128640, Note_on_c, 0, 86, 104
2, 128640, Note_on_c, 0, 81, 104
2, 128640, Note_on_c, 0, 93, 104
2, 128880, Note_on_c, 0, 93, 0
2, 128880, Note_on_c, 0, 81, 0
2, 128880, Note_on_c, 0, 86, 0
2, 128880, Note_on_c, 0, 74, 81
2, 128880, Note_on_c, 0, 76, 91
2, 128880, Note_on_c, 0, 81, 91
2, 128948, Note_on_c, 0, 81, 0
2, 128948, Note_on_c, 0, 76, 0
2, 128948, Note_on_c, 0, 74, 0
2, 129000, Note_on_c, 0, 74, 81
2, 129000, Note_on_c, 0, 76, 90
2, 129000, Note_on_c, 0, 81, 90
2, 129068, Note_on_c, 0, 81, 0
2, 129068, Note_on_c, 0, 76, 0
2, 129068, Note_on_c, 0, 74, 0
2, 129120, Note_on_c, 0, 74, 81
2, 129120, Note_on_c, 0, 76, 90
2, 129120, Note_on_c, 0, 81, 90
2, 129188, Note_on_c, 0, 81, 0
2, 129188, Note_on_c, 0, 76, 0
2, 129188, Note_on_c, 0, 74, 0
2, 129360, Note_on_c, 0, 62, 75
2, 129360, Note_on_c, 0, 64, 84
2, 129360, Note_on_c, 0, 69, 84
2, 129428, Note_on_c, 0, 69, 0
2, 129428, Note_on_c, 0, 64, 0
2, 129428, Note_on_c, 0, 62, 0
2, 129480, Note_on_c, 0, 62, 75
2, 129480, Note_on_c, 0, 64, 84
2, 129480, Note_on_c, 0, 69, 84
2, 129548, Note_on_c, 0, 69, 0
2, 129548, Note_on_c, 0, 64, 0
2, 129548, Note_on_c, 0, 62, 0
2, 129600, Note_on_c, 0, 62, 75
2, 129600, Note_on_c, 0, 64, 84
2, 129600, Note_on_c, 0, 69, 84
2, 129668, Note_on_c, 0, 69, 0
2, 129668, Note_on_c, 0, 64, 0
2, 129668, Note_on_c, 0, 62, 0
2, 129840, Note_on_c, 0, 49, 67
2, 129840, Note_on_c, 0, 55, 75
2, 129840, Note_on_c, 0, 57, 75
2, 129908, Note_on_c, 0, 57, 0
2, 129908, Note_on_c, 0, 55, 0
2, 129908, Note_on_c, 0, 49, 0
2, 129960, Note_on_c, 0, 49, 67
2, 129960, Note_on_c, 0, 55, 75
2, 129960, Note_on_c, 0, 57, 75
2, 130028, Note_on_c, 0, 57, 0
2, 130028, Note_on_c, 0, 55, 0
2, 130028, Note_on_c, 0, 49, 0
2, 130080, Note_on_c, 0, 49, 67
2, 130080, Note_on_c, 0, 55, 75
2, 130080, Note_on_c, 0, 57, 75
2, 130148, Note_on_c, 0, 57, 0
2, 130148, Note_on_c, 0, 55, 0
2, 130148, Note_on_c, 0, 49, 0
2, 130320, Note_on_c, 0, 55, 99
2, 130440, Note_on_c, 0, 55, 0
2, 130440, Note_on_c, 0, 57, 99
2, 130560, Note_on_c, 0, 57, 0
2, 130560, Note_on_c, 0, 50, 113
2, 130560, Note_on_c, 0, 62, 113
2, 130800, Note_on_c, 0, 93, 45
2, 130800, Note_on_c, 0, 90, 45
2, 130800, Note_on_c, 0, 86, 40
2, 130800, Note_on_c, 0, 81, 40
2, 130890, Note_on_c, 0, 81, 0
2, 130890, Note_on_c, 0, 90, 0
2, 130890, Note_on_c, 0, 93, 0
2, 130890, Note_on_c, 0, 86, 0
2, 130920, Note_on_c, 0, 93, 49
2, 130920, Note_on_c, 0, 90, 49
2, 130920, Note_on_c, 0, 86, 44
2, 130920, Note_on_c, 0, 81, 44
2, 131010, Note_on_c, 0, 81, 0
2, 131010, Note_on_c, 0, 90, 0
2, 131010, Note_on_c, 0, 93, 0
2, 131010, Note_on_c, 0, 86, 0
2, 131040, Note_on_c, 0, 93, 52
2, 131040, Note_on_c, 0, 90, 52
2, 131040, Note_on_c, 0, 86, 46
2, 131040, Note_on_c, 0, 81, 46
2, 131130, Note_on_c, 0, 81, 0
2, 131130, Note_on_c, 0, 90, 0
2, 131130, Note_on_c, 0, 93, 0
2, 131130, Note_on_c, 0, 86, 0
2, 131160, Note_on_c, 0, 94, 54
2, 131160, Note_on_c, 0, 90, 54
2, 131160, Note_on_c, 0, 86, 48
2, 131160, Note_on_c, 0, 82, 48
2, 131250, Note_on_c, 0, 82, 0
2, 131250, Note_on_c, 0, 90, 0
2, 131250, Note_on_c, 0, 94, 0
2, 131250, Note_on_c, 0, 86, 0
2, 131280, Note_on_c, 0, 94, 57
2, 131280, Note_on_c, 0, 90, 57
2, 131280, Note_on_c, 0, 86, 51
2, 131280, Note_on_c, 0, 82, 51
2, 131370, Note_on_c, 0, 82, 0
2, 131370, Note_on_c, 0, 90, 0
2, 131370, Note_on_c, 0, 94, 0
2, 131370, Note_on_c, 0, 86, 0
2, 131400, Note_on_c, 0, 93, 62
2, 131400, Note_on_c, 0, 90, 62
2, 131400, Note_on_c, 0, 86, 55
2, 131400, Note_on_c, 0, 81, 55
2, 131490, Note_on_c, 0, 81, 0
2, 131490, Note_on_c, 0, 90, 0
2, 131490, Note_on_c, 0, 93, 0
2, 131490, Note_on_c, 0, 86, 0
2, 131520, Note_on_c, 0, 93, 64
2, 131520, Note_on_c, 0, 90, 64
2, 131520, Note_on_c, 0, 86, 57
2, 131520, Note_on_c, 0, 81, 57
2, 131610, Note_on_c, 0, 81, 0
2, 131610, Note_on_c, 0, 90, 0
2, 131610, Note_on_c, 0, 93, 0
2, 131610, Note_on_c, 0, 86, 0
2, 131640, Note_on_c, 0, 94, 67
2, 131640, Note_on_c, 0, 90, 67
2, 131640, Note_on_c, 0, 86, 60
2, 131640, Note_on_c, 0, 82, 60
2, 131730, Note_on_c, 0, 82, 0
2, 131730, Note_on_c, 0, 90, 0
2, 131730, Note_on_c, 0, 94, 0
2, 131730, Note_on_c, 0, 86, 0
2, 131760, Note_on_c, 0, 94, 71
2, 131760, Note_on_c, 0, 90, 71
2, 131760, Note_on_c, 0, 86, 63
2, 131760, Note_on_c, 0, 82, 63
2, 131850, Note_on_c, 0, 82, 0
2, 131850, Note_on_c, 0, 90, 0
2, 131850, Note_on_c, 0, 94, 0
2, 131850, Note_on_c, 0, 86, 0
2, 131880, Note_on_c, 0, 93, 74
2, 131880, Note_on_c, 0, 90, 74
2, 131880, Note_on_c, 0, 86, 66
2, 131880, Note_on_c, 0, 81, 66
2, 131970, Note_on_c, 0, 81, 0
2, 131970, Note_on_c, 0, 90, 0
2, 131970, Note_on_c, 0, 93, 0
2, 131970, Note_on_c, 0, 86, 0
2, 132000, Note_on_c, 0, 93, 77
2, 132000, Note_on_c, 0, 90, 77
2, 132000, Note_on_c, 0, 86, 69
2, 132000, Note_on_c, 0, 81, 69
2, 132090, Note_on_c, 0, 81, 0
2, 132090, Note_on_c, 0, 90, 0
2, 132090, Note_on_c, 0, 93, 0
2, 132090, Note_on_c, 0, 86, 0
2, 132120, Note_on_c, 0, 94, 81
2, 132120, Note_on_c, 0, 90, 81
2, 132120, Note_on_c, 0, 86, 72
2, 132120, Note_on_c, 0, 82, 72
2, 132210, Note_on_c, 0, 82, 0
2, 132210, Note_on_c, 0, 90, 0
2, 132210, Note_on_c, 0, 94, 0
2, 132210, Note_on_c, 0, 86, 0
2, 132240, Note_on_c, 0, 94, 83
2, 132240, Note_on_c, 0, 90, 83
2, 132240, Note_on_c, 0, 86, 74
2, 132240, Note_on_c, 0, 82, 74
2, 132330, Note_on_c, 0, 82, 0
2, 132330, Note_on_c, 0, 90, 0
2, 132330, Note_on_c, 0, 94, 0
2, 132330, Note_on_c, 0, 86, 0
2, 132360, Note_on_c, 0, 93, 87
2, 132360, Note_on_c, 0, 90, 87
2, 132360, Note_on_c, 0, 86, 78
2, 132360, Note_on_c, 0, 81, 78
2, 132450, Note_on_c, 0, 81, 0
2, 132450, Note_on_c, 0, 90, 0
2, 132450, Note_on_c, 0, 93, 0
2, 132450, Note_on_c, 0, 86, 0
2, 132480, Note_on_c, 0, 62, 0
2, 132480, Note_on_c, 0, 50, 0
2, 132480, Note_on_c, 0, 93, 90
2, 132480, Note_on_c, 0, 90, 90
2, 132480, Note_on_c, 0, 86, 81
2, 132480, Note_on_c, 0, 81, 81
2, 132570, Note_on_c, 0, 81, 0
2, 132570, Note_on_c, 0, 93, 0
2, 132570, Note_on_c, 0, 90, 0
2, 132570, Note_on_c, 0, 86, 0
2, 132720, Note_on_c, 0, 90, 90
2, 132720, Note_on_c, 0, 78, 90
2, 132810, Note_on_c, 0, 78, 0
2, 132810, Note_on_c, 0, 90, 0
2, 132840, Note_on_c, 0, 87, 90
2, 132840, Note_on_c, 0, 75, 90
2, 132930, Note_on_c, 0, 75, 0
2, 132930, Note_on_c, 0, 87, 0
2, 132960, Note_on_c, 0, 86, 90
2, 132960, Note_on_c, 0, 74, 90
2, 133050, Note_on_c, 0, 74, 0
2, 133050, Note_on_c, 0, 86, 0
2, 133080, Note_on_c, 0, 84, 90
2, 133080, Note_on_c, 0, 72, 90
2, 133170, Note_on_c, 0, 72, 0
2, 133170, Note_on_c, 0, 84, 0
2, 133200, Note_on_c, 0, 82, 90
2, 133200, Note_on_c, 0, 70, 90
2, 133290, Note_on_c, 0, 70, 0
2, 133290, Note_on_c, 0, 82, 0
2, 133320, Note_on_c, 0, 81, 90
2, 133320, Note_on_c, 0, 69, 90
2, 133410, Note_on_c, 0, 69, 0
2, 133410, Note_on_c, 0, 81, 0
2, 133440, Note_on_c, 0, 78, 90
2, 133440, Note_on_c, 0, 66, 90
2, 133530, Note_on_c, 0, 66, 0
2, 133530, Note_on_c, 0, 78, 0
2, 133560, Note_on_c, 0, 75, 90
2, 133560, Note_on_c, 0, 63, 90
2, 133650, Note_on_c, 0, 63, 0
2, 133650, Note_on_c, 0, 75, 0
2, 133680, Note_on_c, 0, 74, 90
2, 133680, Note_on_c, 0, 62, 90
2, 133770, Note_on_c, 0, 62, 0
2, 133770, Note_on_c, 0, 74, 0
2, 133800, Note_on_c, 0, 72, 90
2, 133800, Note_on_c, 0, 60, 90
2, 133890, Note_on_c, 0, 60, 0
2, 133890, Note_on_c, 0, 72, 0
2, 133920, Note_on_c, 0, 70, 90
2, 133920, Note_on_c, 0, 58, 90
2, 134010, Note_on_c, 0, 58, 0
2, 134010, Note_on_c, 0, 70, 0
2, 134040, Note_on_c, 0, 69, 90
2, 134040, Note_on_c, 0, 57, 90
2, 134130, Note_on_c, 0, 57, 0
2, 134130, Note_on_c, 0, 69, 0
2, 134160, Note_on_c, 0, 66, 94
2, 134280, Note_on_c, 0, 66, 0
2, 134280, Note_on_c, 0, 62, 91
2, 134400, Note_on_c, 0, 62, 0
2, 134400, Control_c, 0, 91, 127
2, 134400, Note_on_c, 0, 55, 108
2, 134638, Note_on_c, 0, 55, 0
2, 134640, Note_on_c, 0, 79, 82
2, 134640, Note_on_c, 0, 74, 82
2, 134640, Note_on_c, 0, 70, 73
2, 134640, Note_on_c, 0, 67, 73
2, 134708, Note_on_c, 0, 67, 0
2, 134708, Note_on_c, 0, 79, 0
2, 134708, Note_on_c, 0, 74, 0
2, 134708, Note_on_c, 0, 70, 0
2, 134760, Note_on_c, 0, 79, 82
2, 134760, Note_on_c, 0, 74, 82
2, 134760, Note_on_c, 0, 70, 73
2, 134760, Note_on_c, 0, 67, 73
2, 134828, Note_on_c, 0, 67, 0
2, 134828, Note_on_c, 0, 79, 0
2, 134828, Note_on_c, 0, 74, 0
2, 134828, Note_on_c, 0, 70, 0
2, 134880, Note_on_c, 0, 67, 73
2, 134880, Note_on_c, 0, 70, 73
2, 134880, Note_on_c, 0, 74, 82
2, 134880, Note_on_c, 0, 79, 82
2, 135060, Note_on_c, 0, 79, 0
2, 135060, Note_on_c, 0, 67, 0
2, 135060, Note_on_c, 0, 70, 0
2, 135060, Note_on_c, 0, 74, 0
2, 135120, Note_on_c, 0, 57, 88
2, 135240, Note_on_c, 0, 57, 0
2, 135240, Note_on_c, 0, 58, 93
2, 135360, Note_on_c, 0, 58, 0
2, 135360, Note_on_c, 0, 62, 100
2, 135598, Note_on_c, 0, 62, 0
2, 135600, Note_on_c, 0, 74, 60
2, 135600, Note_on_c, 0, 70, 60
2, 135600, Note_on_c, 0, 67, 54
2, 135668, Note_on_c, 0, 67, 0
2, 135668, Note_on_c, 0, 70, 0
2, 135668, Note_on_c, 0, 74, 0
2, 135720, Note_on_c, 0, 75, 67
2, 135720, Note_on_c, 0, 70, 67
2, 135720, Note_on_c, 0, 67, 60
2, 135788, Note_on_c, 0, 67, 0
2, 135788, Note_on_c, 0, 70, 0
2, 135788, Note_on_c, 0, 75, 0
2, 135840, Note_on_c, 0, 67, 65
2, 135840, Note_on_c, 0, 70, 73
2, 135840, Note_on_c, 0, 75, 73
2, 135908, Note_on_c, 0, 75, 0
2, 135908, Note_on_c, 0, 70, 0
2, 135908, Note_on_c, 0, 67, 0
2, 135960, Note_on_c, 0, 67, 72
2, 135960, Note_on_c, 0, 70, 80
2, 135960, Note_on_c, 0, 76, 80
2, 136028, Note_on_c, 0, 76, 0
2, 136028, Note_on_c, 0, 70, 0
2, 136028, Note_on_c, 0, 67, 0
2, 136080, Note_on_c, 0, 67, 77
2, 136080, Note_on_c, 0, 70, 86
2, 136080, Note_on_c, 0, 76, 86
2, 136260, Note_on_c, 0, 76, 0
2, 136260, Note_on_c, 0, 70, 0
2, 136260, Note_on_c, 0, 67, 0
2, 136320, Note_on_c, 0, 55, 108
2, 136560, Note_on_c, 0, 55, 0
2, 136560, Note_on_c, 0, 77, 81
2, 136560, Note_on_c, 0, 74, 81
2, 136560, Note_on_c, 0, 70, 81
2, 136560, Note_on_c, 0, 65, 72
2, 136628, Note_on_c, 0, 65, 0
2, 136628, Note_on_c, 0, 77, 0
2, 136628, Note_on_c, 0, 74, 0
2, 136628, Note_on_c, 0, 70, 0
2, 136680, Note_on_c, 0, 77, 81
2, 136680, Note_on_c, 0, 74, 81
2, 136680, Note_on_c, 0, 70, 81
2, 136680, Note_on_c, 0, 65, 72
2, 136748, Note_on_c, 0, 65, 0
2, 136748, Note_on_c, 0, 77, 0
2, 136748, Note_on_c, 0, 74, 0
2, 136748, Note_on_c, 0, 70, 0
2, 136800, Note_on_c, 0, 77, 81
2, 136800, Note_on_c, 0, 74, 81
2, 136800, Note_on_c, 0, 70, 81
2, 136800, Note_on_c, 0, 65, 72
2, 136980, Note_on_c, 0, 65, 0
2, 136980, Note_on_c, 0, 77, 0
2, 136980, Note_on_c, 0, 74, 0
2, 136980, Note_on_c, 0, 70, 0
2, 137040, Note_on_c, 0, 57, 85
2, 137160, Note_on_c, 0, 57, 0
2, 137160, Note_on_c, 0, 58, 91
2, 137280, Note_on_c, 0, 58, 0
2, 137280, Note_on_c, 0, 62, 100
2, 137518, Note_on_c, 0, 62, 0
2, 137520, Note_on_c, 0, 72, 62
2, 137520, Note_on_c, 0, 70, 62
2, 137520, Note_on_c, 0, 67, 55
2, 137588, Note_on_c, 0, 67, 0
2, 137588, Note_on_c, 0, 70, 0
2, 137588, Note_on_c, 0, 72, 0
2, 137640, Note_on_c, 0, 73, 66
2, 137640, Note_on_c, 0, 70, 66
2, 137640, Note_on_c, 0, 67, 59
2, 137708, Note_on_c, 0, 67, 0
2, 137708, Note_on_c, 0, 70, 0
2, 137708, Note_on_c, 0, 73, 0
2, 137760, Note_on_c, 0, 73, 71
2, 137760, Note_on_c, 0, 70, 71
2, 137760, Note_on_c, 0, 67, 63
2, 137828, Note_on_c, 0, 67, 0
2, 137828, Note_on_c, 0, 70, 0
2, 137828, Note_on_c, 0, 73, 0
2, 137880, Note_on_c, 0, 74, 75
2, 137880, Note_on_c, 0, 70, 75
2, 137880, Note_on_c, 0, 67, 67
2, 137948, Note_on_c, 0, 67, 0
2, 137948, Note_on_c, 0, 70, 0
2, 137948, Note_on_c, 0, 74, 0
2, 138000, Note_on_c, 0, 74, 80
2, 138000, Note_on_c, 0, 70, 80
2, 138000, Note_on_c, 0, 67, 72
2, 138180, Note_on_c, 0, 67, 0
2, 138180, Note_on_c, 0, 70, 0
2, 138180, Note_on_c, 0, 74, 0
2, 138240, Note_on_c, 0, 55, 108
2, 138478, Note_on_c, 0, 55, 0
2, 138480, Note_on_c, 0, 75, 84
2, 138480, Note_on_c, 0, 70, 84
2, 138480, Note_on_c, 0, 67, 75
2, 138548, Note_on_c, 0, 67, 0
2, 138548, Note_on_c, 0, 70, 0
2, 138548, Note_on_c, 0, 75, 0
2, 138600, Note_on_c, 0, 75, 84
2, 138600, Note_on_c, 0, 70, 84
2, 138600, Note_on_c, 0, 67, 75
2, 138668, Note_on_c, 0, 67, 0
2, 138668, Note_on_c, 0, 70, 0
2, 138668, Note_on_c, 0, 75, 0
2, 138720, Note_on_c, 0, 67, 75
2, 138720, Note_on_c, 0, 70, 84
2, 138720, Note_on_c, 0, 75, 84
2, 138810, Note_on_c, 0, 75, 0
2, 138810, Note_on_c, 0, 70, 0
2, 138810, Note_on_c, 0, 67, 0
2, 138960, Note_on_c, 0, 63, 99
2, 139050, Note_on_c, 0, 63, 0
2, 139200, Note_on_c, 0, 55, 108
2, 139438, Note_on_c, 0, 55, 0
2, 139440, Note_on_c, 0, 74, 83
2, 139440, Note_on_c, 0, 67, 83
2, 139440, Note_on_c, 0, 62, 74
2, 139508, Note_on_c, 0, 62, 0
2, 139508, Note_on_c, 0, 67, 0
2, 139508, Note_on_c, 0, 74, 0
2, 139560, Note_on_c, 0, 62, 74
2, 139560, Note_on_c, 0, 67, 83
2, 139560, Note_on_c, 0, 74, 83
2, 139628, Note_on_c, 0, 74, 0
2, 139628, Note_on_c, 0, 67, 0
2, 139628, Note_on_c, 0, 62, 0
2, 139680, Note_on_c, 0, 62, 74
2, 139680, Note_on_c, 0, 67, 83
2, 139680, Note_on_c, 0, 74, 83
2, 139770, Note_on_c, 0, 74, 0
2, 139770, Note_on_c, 0, 67, 0
2, 139770, Note_on_c, 0, 62, 0
2, 139920, Note_on_c, 0, 64, 99
2, 140010, Note_on_c, 0, 64, 0
2, 140160, Note_on_c, 0, 55, 108
2, 140398, Note_on_c, 0, 55, 0
2, 140400, Note_on_c, 0, 73, 81
2, 140400, Note_on_c, 0, 67, 81
2, 140400, Note_on_c, 0, 61, 72
2, 140468, Note_on_c, 0, 61, 0
2, 140468, Note_on_c, 0, 67, 0
2, 140468, Note_on_c, 0, 73, 0
2, 140520, Note_on_c, 0, 61, 72
2, 140520, Note_on_c, 0, 67, 81
2, 140520, Note_on_c, 0, 73, 81
2, 140588, Note_on_c, 0, 73, 0
2, 140588, Note_on_c, 0, 67, 0
2, 140588, Note_on_c, 0, 61, 0
2, 140640, Note_on_c, 0, 61, 72
2, 140640, Note_on_c, 0, 67, 81
2, 140640, Note_on_c, 0, 73, 81
2, 140730, Note_on_c, 0, 73, 0
2, 140730, Note_on_c, 0, 67, 0
2, 140730, Note_on_c, 0, 61, 0
2, 140880, Note_on_c, 0, 65, 99
2, 140970, Note_on_c, 0, 65, 0
2, 141120, Note_on_c, 0, 55, 99
2, 141210, Note_on_c, 0, 55, 0
2, 141360, Note_on_c, 0, 60, 77
2, 141360, Note_on_c, 0, 69, 86
2, 141360, Note_on_c, 0, 72, 86
2, 141360, Note_on_c, 0, 66, 86
2, 141450, Note_on_c, 0, 66, 0
2, 141450, Note_on_c, 0, 60, 0
2, 141450, Note_on_c, 0, 69, 0
2, 141450, Note_on_c, 0, 72, 0
2, 141600, Note_on_c, 0, 55, 99
2, 141690, Note_on_c, 0, 55, 0
2, 141840, Note_on_c, 0, 59, 75
2, 141840, Note_on_c, 0, 65, 75
2, 141840, Note_on_c, 0, 71, 84
2, 141840, Note_on_c, 0, 67, 84
2, 141930, Note_on_c, 0, 67, 0
2, 141930, Note_on_c, 0, 59, 0
2, 141930, Note_on_c, 0, 65, 0
2, 141930, Note_on_c, 0, 71, 0
2, 142080, Note_on_c, 0, 55, 108
2, 142320, Note_on_c, 0, 55, 0
2, 142320, Note_on_c, 0, 72, 83
2, 142320, Note_on_c, 0, 67, 83
2, 142320, Note_on_c, 0, 63, 74
2, 142320, Note_on_c, 0, 60, 74
2, 142388, Note_on_c, 0, 60, 0
2, 142388, Note_on_c, 0, 72, 0
2, 142388, Note_on_c, 0, 67, 0
2, 142388, Note_on_c, 0, 63, 0
2, 142440, Note_on_c, 0, 72, 83
2, 142440, Note_on_c, 0, 67, 83
2, 142440, Note_on_c, 0, 63, 74
2, 142440, Note_on_c, 0, 60, 74
2, 142508, Note_on_c, 0, 60, 0
2, 142508, Note_on_c, 0, 72, 0
2, 142508, Note_on_c, 0, 67, 0
2, 142508, Note_on_c, 0, 63, 0
2, 142560, Note_on_c, 0, 60, 74
2, 142560, Note_on_c, 0, 63, 74
2, 142560, Note_on_c, 0, 67, 83
2, 142560, Note_on_c, 0, 72, 83
2, 142740, Note_on_c, 0, 72, 0
2, 142740, Note_on_c, 0, 60, 0
2, 142740, Note_on_c, 0, 63, 0
2, 142740, Note_on_c, 0, 67, 0
2, 142800, Note_on_c, 0, 59, 86
2, 142920, Note_on_c, 0, 59, 0
2, 142920, Note_on_c, 0, 60, 92
2, 143040, Note_on_c, 0, 60, 0
2, 143040, Note_on_c, 0, 63, 101
2, 143280, Note_on_c, 0, 63, 0
2, 143280, Note_on_c, 0, 67, 73
2, 143280, Note_on_c, 0, 63, 73
2, 143280, Note_on_c, 0, 60, 65
2, 143348, Note_on_c, 0, 60, 0
2, 143348, Note_on_c, 0, 63, 0
2, 143348, Note_on_c, 0, 67, 0
2, 143400, Note_on_c, 0, 68, 78
2, 143400, Note_on_c, 0, 63, 78
2, 143400, Note_on_c, 0, 60, 70
2, 143468, Note_on_c, 0, 60, 0
2, 143468, Note_on_c, 0, 63, 0
2, 143468, Note_on_c, 0, 68, 0
2, 143520, Note_on_c, 0, 60, 73
2, 143520, Note_on_c, 0, 63, 82
2, 143520, Note_on_c, 0, 68, 82
2, 143588, Note_on_c, 0, 68, 0
2, 143588, Note_on_c, 0, 63, 0
2, 143588, Note_on_c, 0, 60, 0
2, 143640, Note_on_c, 0, 60, 78
2, 143640, Note_on_c, 0, 63, 87
2, 143640, Note_on_c, 0, 69, 87
2, 143708, Note_on_c, 0, 69, 0
2, 143708, Note_on_c, 0, 63, 0
2, 143708, Note_on_c, 0, 60, 0
2, 143760, Note_on_c, 0, 60, 81
2, 143760, Note_on_c, 0, 63, 90
2, 143760, Note_on_c, 0, 69, 90
2, 143850, Note_on_c, 0, 69, 0
2, 143850, Note_on_c, 0, 63, 0
2, 143850, Note_on_c, 0, 60, 0
2, 144000, Note_on_c, 0, 55, 108
2, 144240, Note_on_c, 0, 55, 0
2, 144240, Note_on_c, 0, 70, 81
2, 144240, Note_on_c, 0, 63, 81
2, 144308, Note_on_c, 0, 63, 0
2, 144308, Note_on_c, 0, 70, 0
2, 144360, Note_on_c, 0, 70, 81
2, 144360, Note_on_c, 0, 63, 81
2, 144428, Note_on_c, 0, 63, 0
2, 144428, Note_on_c, 0, 70, 0
2, 144480, Note_on_c, 0, 70, 81
2, 144480, Note_on_c, 0, 63, 81
2, 144660, Note_on_c, 0, 63, 0
2, 144660, Note_on_c, 0, 70, 0
2, 144720, Note_on_c, 0, 57, 87
2, 144840, Note_on_c, 0, 57, 0
2, 144840, Note_on_c, 0, 58, 93
2, 144960, Note_on_c, 0, 58, 0
2, 144960, Note_on_c, 0, 63, 101
2, 145200, Note_on_c, 0, 63, 0
2, 145200, Note_on_c, 0, 65, 76
2, 145200, Note_on_c, 0, 63, 76
2, 145200, Note_on_c, 0, 60, 68
2, 145268, Note_on_c, 0, 60, 0
2, 145268, Note_on_c, 0, 63, 0
2, 145268, Note_on_c, 0, 65, 0
2, 145320, Note_on_c, 0, 66, 79
2, 145320, Note_on_c, 0, 63, 79
2, 145320, Note_on_c, 0, 60, 71
2, 145388, Note_on_c, 0, 60, 0
2, 145388, Note_on_c, 0, 63, 0
2, 145388, Note_on_c, 0, 66, 0
2, 145440, Note_on_c, 0, 66, 85
2, 145440, Note_on_c, 0, 63, 85
2, 145440, Note_on_c, 0, 60, 76
2, 145508, Note_on_c, 0, 60, 0
2, 145508, Note_on_c, 0, 63, 0
2, 145508, Note_on_c, 0, 66, 0
2, 145560, Note_on_c, 0, 67, 89
2, 145560, Note_on_c, 0, 63, 89
2, 145560, Note_on_c, 0, 60, 79
2, 145628, Note_on_c, 0, 60, 0
2, 145628, Note_on_c, 0, 63, 0
2, 145628, Note_on_c, 0, 67, 0
2, 145680, Note_on_c, 0, 67, 94
2, 145680, Note_on_c, 0, 63, 94
2, 145680, Note_on_c, 0, 60, 84
2, 145770, Note_on_c, 0, 60, 0
2, 145770, Note_on_c, 0, 63, 0
2, 145770, Note_on_c, 0, 67, 0
2, 145920, Note_on_c, 0, 55, 102
2, 146160, Note_on_c, 0, 68, 81
2, 146160, Note_on_c, 0, 60, 72
2, 146160, Note_on_c, 0, 63, 81
2, 146250, Note_on_c, 0, 63, 0
2, 146250, Note_on_c, 0, 60, 0
2, 146250, Note_on_c, 0, 68, 0
2, 146280, Note_on_c, 0, 60, 72
2, 146280, Note_on_c, 0, 63, 81
2, 146280, Note_on_c, 0, 68, 81
2, 146370, Note_on_c, 0, 68, 0
2, 146370, Note_on_c, 0, 63, 0
2, 146370, Note_on_c, 0, 60, 0
2, 146400, Note_on_c, 0, 60, 81
2, 146400, Note_on_c, 0, 63, 81
2, 146400, Note_on_c, 0, 68, 81
2, 146640, Note_on_c, 0, 68, 0
2, 146640, Note_on_c, 0, 55, 0
2, 146640, Note_on_c, 0, 60, 0
2, 146640, Note_on_c, 0, 63, 0
2, 146640, Note_on_c, 0, 68, 90
2, 146708, Note_on_c, 0, 68, 0
2, 146880, Note_on_c, 0, 55, 101
2, 147120, Note_on_c, 0, 60, 72
2, 147120, Note_on_c, 0, 63, 81
2, 147120, Note_on_c, 0, 67, 81
2, 147188, Note_on_c, 0, 67, 0
2, 147188, Note_on_c, 0, 63, 0
2, 147188, Note_on_c, 0, 60, 0
2, 147240, Note_on_c, 0, 60, 72
2, 147240, Note_on_c, 0, 63, 81
2, 147240, Note_on_c, 0, 67, 81
2, 147308, Note_on_c, 0, 67, 0
2, 147308, Note_on_c, 0, 63, 0
2, 147308, Note_on_c, 0, 60, 0
2, 147360, Note_on_c, 0, 60, 72
2, 147360, Note_on_c, 0, 63, 81
2, 147360, Note_on_c, 0, 67, 81
2, 147540, Note_on_c, 0, 67, 0
2, 147540, Note_on_c, 0, 63, 0
2, 147540, Note_on_c, 0, 60, 0
2, 147600, Note_on_c, 0, 55, 0
2, 147600, Note_on_c, 0, 69, 90
2, 147668, Note_on_c, 0, 69, 0
2, 147840, Note_on_c, 0, 51, 102
2, 148080, Note_on_c, 0, 66, 81
2, 148080, Note_on_c, 0, 60, 81
2, 148080, Note_on_c, 0, 63, 81
2, 148148, Note_on_c, 0, 63, 0
2, 148148, Note_on_c, 0, 60, 0
2, 148148, Note_on_c, 0, 66, 0
2, 148200, Note_on_c, 0, 60, 81
2, 148200, Note_on_c, 0, 63, 81
2, 148200, Note_on_c, 0, 66, 81
2, 148268, Note_on_c, 0, 66, 0
2, 148268, Note_on_c, 0, 63, 0
2, 148268, Note_on_c, 0, 60, 0
2, 148320, Note_on_c, 0, 60, 81
2, 148320, Note_on_c, 0, 63, 81
2, 148320, Note_on_c, 0, 66, 81
2, 148500, Note_on_c, 0, 66, 0
2, 148500, Note_on_c, 0, 63, 0
2, 148500, Note_on_c, 0, 60, 0
2, 148560, Note_on_c, 0, 51, 0
2, 148560, Note_on_c, 0, 70, 90
2, 148628, Note_on_c, 0, 70, 0
2, 148800, Note_on_c, 0, 50, 101
2, 149040, Note_on_c, 0, 60, 79
2, 149040, Note_on_c, 0, 62, 79
2, 149040, Note_on_c, 0, 66, 79
2, 149108, Note_on_c, 0, 66, 0
2, 149108, Note_on_c, 0, 62, 0
2, 149108, Note_on_c, 0, 60, 0
2, 149160, Note_on_c, 0, 60, 79
2, 149160, Note_on_c, 0, 62, 79
2, 149160, Note_on_c, 0, 66, 79
2, 149228, Note_on_c, 0, 66, 0
2, 149228, Note_on_c, 0, 62, 0
2, 149228, Note_on_c, 0, 60, 0
2, 149280, Note_on_c, 0, 60, 79
2, 149280, Note_on_c, 0, 62, 79
2, 149280, Note_on_c, 0, 66, 79
2, 149460, Note_on_c, 0, 66, 0
2, 149460, Note_on_c, 0, 62, 0
2, 149460, Note_on_c, 0, 60, 0
2, 149520, Note_on_c, 0, 50, 0
2, 149520, Note_on_c, 0, 62, 90
2, 149520, Note_on_c, 0, 74, 90
2, 149588, Note_on_c, 0, 74, 0
2, 149588, Note_on_c, 0, 62, 0
2, 149760, Note_on_c, 0, 55, 90
2, 149880, Note_on_c, 0, 55, 0
2, 150000, Note_on_c, 0, 55, 65
2, 150000, Note_on_c, 0, 58, 73
2, 150000, Note_on_c, 0, 67, 73
2, 150068, Note_on_c, 0, 67, 0
2, 150068, Note_on_c, 0, 58, 0
2, 150068, Note_on_c, 0, 55, 0
2, 150120, Note_on_c, 0, 55, 65
2, 150120, Note_on_c, 0, 58, 73
2, 150120, Note_on_c, 0, 67, 73
2, 150188, Note_on_c, 0, 67, 0
2, 150188, Note_on_c, 0, 58, 0
2, 150188, Note_on_c, 0, 55, 0
2, 150240, Note_on_c, 0, 55, 65
2, 150240, Note_on_c, 0, 58, 73
2, 150240, Note_on_c, 0, 67, 73
2, 150420, Note_on_c, 0, 67, 0
2, 150420, Note_on_c, 0, 58, 0
2, 150420, Note_on_c, 0, 55, 0
2, 150480, Note_on_c, 0, 55, 62
2, 150480, Note_on_c, 0, 61, 69
2, 150480, Note_on_c, 0, 63, 69
2, 150548, Note_on_c, 0, 63, 0
2, 150548, Note_on_c, 0, 61, 0
2, 150548, Note_on_c, 0, 55, 0
2, 150600, Note_on_c, 0, 55, 62
2, 150600, Note_on_c, 0, 61, 69
2, 150600, Note_on_c, 0, 63, 69
2, 150668, Note_on_c, 0, 63, 0
2, 150668, Note_on_c, 0, 61, 0
2, 150668, Note_on_c, 0, 55, 0
2, 150720, Note_on_c, 0, 55, 62
2, 150720, Note_on_c, 0, 61, 69
2, 150720, Note_on_c, 0, 63, 69
2, 150900, Note_on_c, 0, 63, 0
2, 150900, Note_on_c, 0, 61, 0
2, 150900, Note_on_c, 0, 55, 0
2, 150960, Note_on_c, 0, 55, 60
2, 150960, Note_on_c, 0, 61, 67
2, 150960, Note_on_c, 0, 64, 67
2, 151028, Note_on_c, 0, 64, 0
2, 151028, Note_on_c, 0, 61, 0
2, 151028, Note_on_c, 0, 55, 0
2, 151440, Note_on_c, 0, 54, 57
2, 151440, Note_on_c, 0, 66, 64
2, 151440, Note_on_c, 0, 60, 57
2, 151440, Note_on_c, 0, 62, 64
2, 151530, Note_on_c, 0, 62, 0
2, 151530, Note_on_c, 0, 54, 0
2, 151530, Note_on_c, 0, 66, 0
2, 151530, Note_on_c, 0, 60, 0
2, 151920, Note_on_c, 0, 58, 62
2, 151920, Note_on_c, 0, 67, 62
2, 151988, Note_on_c, 0, 67, 0
2, 151988, Note_on_c, 0, 58, 0
2, 152040, Note_on_c, 0, 58, 62
2, 152040, Note_on_c, 0, 67, 62
2, 152108, Note_on_c, 0, 67, 0
2, 152108, Note_on_c, 0, 58, 0
2, 152160, Note_on_c, 0, 58, 62
2, 152160, Note_on_c, 0, 67, 62
2, 152340, Note_on_c, 0, 67, 0
2, 152340, Note_on_c, 0, 58, 0
2, 152400, Note_on_c, 0, 55, 57
2, 152400, Note_on_c, 0, 61, 57
2, 152400, Note_on_c, 0, 63, 57
2, 152468, Note_on_c, 0, 63, 0
2, 152468, Note_on_c, 0, 61, 0
2, 152468, Note_on_c, 0, 55, 0
2, 152520, Note_on_c, 0, 55, 57
2, 152520, Note_on_c, 0, 61, 57
2, 152520, Note_on_c, 0, 63, 57
2, 152588, Note_on_c, 0, 63, 0
2, 152588, Note_on_c, 0, 61, 0
2, 152588, Note_on_c, 0, 55, 0
2, 152640, Note_on_c, 0, 55, 57
2, 152640, Note_on_c, 0, 61, 57
2, 152640, Note_on_c, 0, 63, 57
2, 152820, Note_on_c, 0, 63, 0
2, 152820, Note_on_c, 0, 61, 0
2, 152820, Note_on_c, 0, 55, 0
2, 152880, Note_on_c, 0, 55, 54
2, 152880, Note_on_c, 0, 61, 54
2, 152880, Note_on_c, 0, 64, 54
2, 152948, Note_on_c, 0, 64, 0
2, 152948, Note_on_c, 0, 61, 0
2, 152948, Note_on_c, 0, 55, 0
2, 153360, Note_on_c, 0, 54, 51
2, 153360, Note_on_c, 0, 66, 51
2, 153360, Note_on_c, 0, 60, 51
2, 153360, Note_on_c, 0, 62, 51
2, 153450, Note_on_c, 0, 62, 0
2, 153450, Note_on_c, 0, 54, 0
2, 153450, Note_on_c, 0, 66, 0
2, 153450, Note_on_c, 0, 60, 0
2, 153840, Note_on_c, 0, 55, 37
2, 153840, Note_on_c, 0, 58, 37
2, 153840, Note_on_c, 0, 67, 42
2, 153908, Note_on_c, 0, 67, 0
2, 153908, Note_on_c, 0, 58, 0
2, 153908, Note_on_c, 0, 55, 0
2, 153960, Note_on_c, 0, 55, 37
2, 153960, Note_on_c, 0, 58, 37
2, 153960, Note_on_c, 0, 67, 42
2, 154028, Note_on_c, 0, 67, 0
2, 154028, Note_on_c, 0, 58, 0
2, 154028, Note_on_c, 0, 55, 0
2, 154080, Note_on_c, 0, 55, 37
2, 154080, Note_on_c, 0, 58, 37
2, 154080, Note_on_c, 0, 67, 42
2, 154260, Note_on_c, 0, 67, 0
2, 154260, Note_on_c, 0, 58, 0
2, 154260, Note_on_c, 0, 55, 0
2, 154320, Note_on_c, 0, 45, 45
2, 154440, Note_on_c, 0, 45, 0
2, 154440, Note_on_c, 0, 46, 49
2, 154560, Note_on_c, 0, 46, 0
2, 154560, Note_on_c, 0, 50, 54
2, 154800, Note_on_c, 0, 50, 0
2, 154800, Note_on_c, 0, 53, 38
2, 154800, Note_on_c, 0, 62, 43
2, 154800, Note_on_c, 0, 58, 38
2, 154890, Note_on_c, 0, 58, 0
2, 154890, Note_on_c, 0, 62, 0
2, 154890, Note_on_c, 0, 53, 0
2, 155040, Note_on_c, 0, 54, 38
2, 155040, Note_on_c, 0, 60, 38
2, 155040, Note_on_c, 0, 62, 43
2, 155130, Note_on_c, 0, 62, 0
2, 155130, Note_on_c, 0, 60, 0
2, 155130, Note_on_c, 0, 54, 0
2, 155760, Note_on_c, 0, 58, 36
2, 155760, Note_on_c, 0, 55, 32
2, 155850, Note_on_c, 0, 55, 0
2, 155850, Note_on_c, 0, 58, 0
2, 155880, Note_on_c, 0, 55, 32
2, 155880, Note_on_c, 0, 58, 36
2, 155970, Note_on_c, 0, 58, 0
2, 155970, Note_on_c, 0, 55, 0
2, 156000, Note_on_c, 0, 55, 32
2, 156000, Note_on_c, 0, 58, 36
2, 156240, Note_on_c, 0, 58, 0
2, 156240, Note_on_c, 0, 55, 0
2, 156720, Note_on_c, 0, 50, 36
2, 156720, Note_on_c, 0, 53, 36
2, 156810, Note_on_c, 0, 53, 0
2, 156810, Note_on_c, 0, 50, 0
2, 156960, Note_on_c, 0, 50, 36
2, 156960, Note_on_c, 0, 54, 36
2, 157050, Note_on_c, 0, 54, 0
2, 157050, Note_on_c, 0, 50, 0
2, 157680, Note_on_c, 0, 43, 28
2, 157800, Note_on_c, 0, 43, 0
2, 157800, Note_on_c, 0, 45, 29
2, 157920, Note_on_c, 0, 45, 0
2, 157920, Note_on_c, 0, 46, 30
2, 158040, Note_on_c, 0, 46, 0
2, 158040, Note_on_c, 0, 50, 31
2, 158160, Note_on_c, 0, 50, 0
2, 158160, Note_on_c, 0, 45, 32
2, 158280, Note_on_c, 0, 45, 0
2, 158280, Note_on_c, 0, 50, 33
2, 158400, Note_on_c, 0, 50, 0
2, 158400, Note_on_c, 0, 46, 31
2, 158400, Note_on_c, 0, 55, 31
2, 158520, Note_on_c, 0, 55, 0
2, 158520, Note_on_c, 0, 46, 0
2, 158520, Note_on_c, 0, 50, 31
2, 158640, Note_on_c, 0, 50, 0
2, 158640, Note_on_c, 0, 55, 32
2, 158730, Note_on_c, 0, 55, 0
2, 158760, Note_on_c, 0, 55, 32
2, 158880, Note_on_c, 0, 55, 0
2, 158880, Note_on_c, 0, 58, 33
2, 159000, Note_on_c, 0, 58, 0
2, 159000, Note_on_c, 0, 62, 33
2, 159120, Note_on_c, 0, 62, 0
2, 159120, Note_on_c, 0, 57, 34
2, 159240, Note_on_c, 0, 57, 0
2, 159240, Note_on_c, 0, 62, 34
2, 159360, Note_on_c, 0, 62, 0
2, 159360, Note_on_c, 0, 58, 31
2, 159360, Note_on_c, 0, 67, 31
2, 159480, Note_on_c, 0, 67, 0
2, 159480, Note_on_c, 0, 58, 0
2, 159480, Note_on_c, 0, 62, 32
2, 159600, Note_on_c, 0, 62, 0
2, 159600, Note_on_c, 0, 67, 33
2, 159690, Note_on_c, 0, 67, 0
2, 159720, Note_on_c, 0, 67, 35
2, 159840, Note_on_c, 0, 67, 0
2, 159840, Note_on_c, 0, 70, 36
2, 159960, Note_on_c, 0, 70, 0
2, 159960, Note_on_c, 0, 74, 37
2, 160080, Note_on_c, 0, 74, 0
2, 160080, Note_on_c, 0, 69, 38
2, 160200, Note_on_c, 0, 69, 0
2, 160200, Note_on_c, 0, 74, 39
2, 160320, Note_on_c, 0, 74, 0
2, 160320, Note_on_c, 0, 70, 31
2, 160320, Note_on_c, 0, 79, 31
2, 160440, Note_on_c, 0, 79, 0
2, 160440, Note_on_c, 0, 70, 0
2, 160440, Note_on_c, 0, 74, 33
2, 160560, Note_on_c, 0, 74, 0
2, 160560, Note_on_c, 0, 79, 35
2, 160650, Note_on_c, 0, 79, 0
2, 160680, Note_on_c, 0, 79, 36
2, 160800, Note_on_c, 0, 79, 0
2, 160800, Note_on_c, 0, 82, 38
2, 160920, Note_on_c, 0, 82, 0
2, 160920, Note_on_c, 0, 86, 40
2, 161040, Note_on_c, 0, 86, 0
2, 161040, Note_on_c, 0, 81, 42
2, 161160, Note_on_c, 0, 81, 0
2, 161160, Note_on_c, 0, 86, 44
2, 161280, Note_on_c, 0, 86, 0
2, 161280, Note_on_c, 0, 82, 45
2, 161280, Note_on_c, 0, 91, 45
2, 161400, Note_on_c, 0, 91, 0
2, 161400, Note_on_c, 0, 82, 0
2, 161760, Note_on_c, 0, 67, 36
2, 161880, Note_on_c, 0, 67, 0
2, 161880, End_track
3, 0, Start_track
3, 0, Title_t, "Piano left"
3, 0, Program_c, 0, 0
3, 0, Control_c, 0, 7, 100
3, 0, Control_c, 0, 10, 64
3, 0, Note_on_c, 0, 31, 50
3, 0, Note_on_c, 0, 43, 50
3, 0, Control_c, 0, 91, 127
3, 120, Note_on_c, 0, 43, 0
3, 120, Note_on_c, 0, 31, 0
3, 240, Note_on_c, 0, 50, 37
3, 240, Note_on_c, 0, 55, 37
3, 308, Note_on_c, 0, 55, 0
3, 308, Note_on_c, 0, 50, 0
3, 360, Note_on_c, 0, 50, 36
3, 360, Note_on_c, 0, 55, 36
3, 428, Note_on_c, 0, 55, 0
3, 428, Note_on_c, 0, 50, 0
3, 480, Note_on_c, 0, 50, 36
3, 480, Note_on_c, 0, 55, 36
3, 540, Note_on_c, 0, 55, 0
3, 540, Note_on_c, 0, 50, 0
3, 720, Note_on_c, 0, 34, 53
3, 720, Note_on_c, 0, 46, 53
3, 810, Note_on_c, 0, 46, 0
3, 810, Note_on_c, 0, 34, 0
3, 960, Note_on_c, 0, 38, 53
3, 960, Note_on_c, 0, 50, 53
3, 1050, Note_on_c, 0, 50, 0
3, 1050, Note_on_c, 0, 38, 0
3, 1200, Note_on_c, 0, 50, 35
3, 1200, Note_on_c, 0, 55, 35
3, 1320, Note_on_c, 0, 55, 0
3, 1320, Note_on_c, 0, 50, 0
3, 1440, Note_on_c, 0, 34, 52
3, 1440, Note_on_c, 0, 46, 52
3, 1530, Note_on_c, 0, 46, 0
3, 1530, Note_on_c, 0, 34, 0
3, 1680, Note_on_c, 0, 50, 36
3, 1680, Note_on_c, 0, 55, 36
3, 1800, Note_on_c, 0, 55, 0
3, 1800, Note_on_c, 0, 50, 0
3, 1920, Note_on_c, 0, 31, 56
3, 1920, Note_on_c, 0, 43, 56
3, 2040, Note_on_c, 0, 43, 0
3, 2040, Note_on_c, 0, 31, 0
3, 2160, Note_on_c, 0, 50, 36
3, 2160, Note_on_c, 0, 55, 36
3, 2228, Note_on_c, 0, 55, 0
3, 2228, Note_on_c, 0, 50, 0
3, 2280, Note_on_c, 0, 50, 36
3, 2280, Note_on_c, 0, 55, 36
3, 2348, Note_on_c, 0, 55, 0
3, 2348, Note_on_c, 0, 50, 0
3, 2400, Note_on_c, 0, 50, 36
3, 2400, Note_on_c, 0, 55, 36
3, 2460, Note_on_c, 0, 55, 0
3, 2460, Note_on_c, 0, 50, 0
3, 2640, Note_on_c, 0, 33, 52
3, 2640, Note_on_c, 0, 45, 52
3, 2760, Note_on_c, 0, 45, 0
3, 2760, Note_on_c, 0, 33, 0
3, 2760, Note_on_c, 0, 34, 56
3, 2760, Note_on_c, 0, 46, 56
3, 2880, Note_on_c, 0, 46, 0
3, 2880, Note_on_c, 0, 34, 0
3, 2880, Note_on_c, 0, 38, 54
3, 2880, Note_on_c, 0, 50, 56
3, 3120, Note_on_c, 0, 50, 0
3, 3120, Note_on_c, 0, 38, 0
3, 3120, Note_on_c, 0, 50, 34
3, 3120, Note_on_c, 0, 55, 34
3, 3240, Note_on_c, 0, 55, 0
3, 3240, Note_on_c, 0, 50, 0
3, 3360, Note_on_c, 0, 34, 53
3, 3360, Note_on_c, 0, 46, 53
3, 3450, Note_on_c, 0, 46, 0
3, 3450, Note_on_c, 0, 34, 0
3, 3600, Note_on_c, 0, 50, 34
3, 3600, Note_on_c, 0, 55, 34
3, 3720, Note_on_c, 0, 55, 0
3, 3720, Note_on_c, 0, 50, 0
3, 3840, Note_on_c, 0, 31, 51
3, 3840, Note_on_c, 0, 43, 51
3, 3960, Note_on_c, 0, 43, 0
3, 3960, Note_on_c, 0, 31, 0
3, 4080, Note_on_c, 0, 50, 34
3, 4080, Note_on_c, 0, 55, 34
3, 4148, Note_on_c, 0, 55, 0
3, 4148, Note_on_c, 0, 50, 0
3, 4200, Note_on_c, 0, 50, 34
3, 4200, Note_on_c, 0, 55, 34
3, 4268, Note_on_c, 0, 55, 0
3, 4268, Note_on_c, 0, 50, 0
3, 4320, Note_on_c, 0, 50, 34
3, 4320, Note_on_c, 0, 55, 34
3, 4380, Note_on_c, 0, 55, 0
3, 4380, Note_on_c, 0, 50, 0
3, 4560, Note_on_c, 0, 50, 50
3, 4680, Note_on_c, 0, 50, 0
3, 4680, Note_on_c, 0, 53, 53
3, 4800, Note_on_c, 0, 53, 0
3, 4800, Note_on_c, 0, 43, 56
3, 4800, Note_on_c, 0, 55, 56
3, 5040, Note_on_c, 0, 50, 36
3, 5040, Note_on_c, 0, 58, 36
3, 5040, Note_on_c, 0, 62, 36
3, 5108, Note_on_c, 0, 62, 0
3, 5108, Note_on_c, 0, 50, 0
3, 5108, Note_on_c, 0, 58, 0
3, 5160, Note_on_c, 0, 58, 36
3, 5160, Note_on_c, 0, 62, 36
3, 5160, Note_on_c, 0, 50, 36
3, 5228, Note_on_c, 0, 50, 0
3, 5228, Note_on_c, 0, 58, 0
3, 5228, Note_on_c, 0, 62, 0
3, 5280, Note_on_c, 0, 50, 36
3, 5280, Note_on_c, 0, 58, 36
3, 5280, Note_on_c, 0, 62, 36
3, 5459, Note_on_c, 0, 58, 0
3, 5460, Note_on_c, 0, 50, 0
3, 5460, Note_on_c, 0, 62, 0
3, 5520, Note_on_c, 0, 55, 0
3, 5520, Note_on_c, 0, 43, 0
3, 5520, Note_on_c, 0, 46, 54
3, 5640, Note_on_c, 0, 46, 0
3, 5640, Note_on_c, 0, 50, 54
3, 5760, Note_on_c, 0, 50, 0
3, 5760, Note_on_c, 0, 41, 58
3, 5760, Note_on_c, 0, 53, 58
3, 6000, Note_on_c, 0, 50, 40
3, 6000, Note_on_c, 0, 62, 40
3, 6000, Note_on_c, 0, 58, 40
3, 6068, Note_on_c, 0, 58, 0
3, 6068, Note_on_c, 0, 50, 0
3, 6068, Note_on_c, 0, 62, 0
3, 6120, Note_on_c, 0, 50, 40
3, 6120, Note_on_c, 0, 62, 40
3, 6120, Note_on_c, 0, 58, 40
3, 6188, Note_on_c, 0, 58, 0
3, 6188, Note_on_c, 0, 50, 0
3, 6188, Note_on_c, 0, 62, 0
3, 6240, Note_on_c, 0, 50, 40
3, 6240, Note_on_c, 0, 62, 40
3, 6240, Note_on_c, 0, 58, 40
3, 6419, Note_on_c, 0, 62, 0
3, 6420, Note_on_c, 0, 50, 0
3, 6420, Note_on_c, 0, 58, 0
3, 6480, Note_on_c, 0, 53, 0
3, 6480, Note_on_c, 0, 41, 0
3, 6480, Note_on_c, 0, 46, 56
3, 6600, Note_on_c, 0, 46, 0
3, 6600, Note_on_c, 0, 50, 61
3, 6720, Note_on_c, 0, 50, 0
3, 6720, Note_on_c, 0, 39, 63
3, 6720, Note_on_c, 0, 51, 63
3, 6960, Note_on_c, 0, 60, 40
3, 6960, Note_on_c, 0, 57, 40
3, 6960, Note_on_c, 0, 55, 40
3, 7028, Note_on_c, 0, 55, 0
3, 7028, Note_on_c, 0, 60, 0
3, 7028, Note_on_c, 0, 57, 0
3, 7080, Note_on_c, 0, 60, 40
3, 7080, Note_on_c, 0, 57, 40
3, 7080, Note_on_c, 0, 55, 40
3, 7148, Note_on_c, 0, 55, 0
3, 7148, Note_on_c, 0, 60, 0
3, 7148, Note_on_c, 0, 57, 0
3, 7200, Note_on_c, 0, 55, 40
3, 7200, Note_on_c, 0, 57, 40
3, 7200, Note_on_c, 0, 60, 40
3, 7379, Note_on_c, 0, 55, 0
3, 7380, Note_on_c, 0, 57, 0
3, 7380, Note_on_c, 0, 60, 0
3, 7440, Note_on_c, 0, 51, 0
3, 7440, Note_on_c, 0, 39, 0
3, 7440, Note_on_c, 0, 43, 63
3, 7560, Note_on_c, 0, 43, 0
3, 7560, Note_on_c, 0, 45, 63
3, 7680, Note_on_c, 0, 45, 0
3, 7680, Note_on_c, 0, 38, 70
3, 7680, Note_on_c, 0, 50, 70
3, 7920, Note_on_c, 0, 54, 50
3, 7920, Note_on_c, 0, 57, 50
3, 7920, Note_on_c, 0, 62, 50
3, 7988, Note_on_c, 0, 62, 0
3, 7988, Note_on_c, 0, 54, 0
3, 7988, Note_on_c, 0, 57, 0
3, 8040, Note_on_c, 0, 54, 50
3, 8040, Note_on_c, 0, 57, 50
3, 8040, Note_on_c, 0, 62, 50
3, 8108, Note_on_c, 0, 62, 0
3, 8108, Note_on_c, 0, 54, 0
3, 8108, Note_on_c, 0, 57, 0
3, 8160, Note_on_c, 0, 54, 50
3, 8160, Note_on_c, 0, 57, 50
3, 8160, Note_on_c, 0, 62, 50
3, 8339, Note_on_c, 0, 57, 0
3, 8339, Note_on_c, 0, 54, 0
3, 8340, Note_on_c, 0, 62, 0
3, 8400, Note_on_c, 0, 50, 0
3, 8400, Note_on_c, 0, 38, 0
3, 8400, Note_on_c, 0, 30, 48
3, 8400, Note_on_c, 0, 42, 48
3, 8520, Note_on_c, 0, 42, 0
3, 8520, Note_on_c, 0, 30, 0
3, 8640, Note_on_c, 0, 34, 48
3, 8640, Note_on_c, 0, 46, 48
3, 8730, Note_on_c, 0, 46, 0
3, 8730, Note_on_c, 0, 34, 0
3, 8880, Note_on_c, 0, 50, 29
3, 8880, Note_on_c, 0, 52, 29
3, 9000, Note_on_c, 0, 52, 0
3, 9000, Note_on_c, 0, 50, 0
3, 9120, Note_on_c, 0, 31, 46
3, 9120, Note_on_c, 0, 43, 46
3, 9210, Note_on_c, 0, 43, 0
3, 9210, Note_on_c, 0, 31, 0
3, 9360, Note_on_c, 0, 50, 27
3, 9360, Note_on_c, 0, 52, 27
3, 9480, Note_on_c, 0, 52, 0
3, 9480, Note_on_c, 0, 50, 0
3, 9600, Note_on_c, 0, 26, 54
3, 9600, Note_on_c, 0, 38, 54
3, 9840, Note_on_c, 0, 45, 32
3, 9840, Note_on_c, 0, 54, 32
3, 9840, Note_on_c, 0, 57, 32
3, 9908, Note_on_c, 0, 57, 0
3, 9908, Note_on_c, 0, 45, 0
3, 9908, Note_on_c, 0, 54, 0
3, 9960, Note_on_c, 0, 45, 32
3, 9960, Note_on_c, 0, 54, 32
3, 9960, Note_on_c, 0, 57, 32
3, 10028, Note_on_c, 0, 57, 0
3, 10028, Note_on_c, 0, 45, 0
3, 10028, Note_on_c, 0, 54, 0
3, 10080, Note_on_c, 0, 45, 32
3, 10080, Note_on_c, 0, 54, 32
3, 10080, Note_on_c, 0, 57, 32
3, 10260, Note_on_c, 0, 57, 0
3, 10260, Note_on_c, 0, 45, 0
3, 10260, Note_on_c, 0, 54, 0
3, 10320, Note_on_c, 0, 38, 0
3, 10320, Note_on_c, 0, 26, 0
3, 10320, Note_on_c, 0, 30, 43
3, 10320, Note_on_c, 0, 42, 43
3, 10440, Note_on_c, 0, 42, 0
3, 10440, Note_on_c, 0, 30, 0
3, 10440, Note_on_c, 0, 33, 46
3, 10440, Note_on_c, 0, 45, 46
3, 10560, Note_on_c, 0, 45, 0
3, 10560, Note_on_c, 0, 33, 0
3, 10560, Note_on_c, 0, 34, 45
3, 10560, Note_on_c, 0, 46, 45
3, 10800, Note_on_c, 0, 46, 0
3, 10800, Note_on_c, 0, 34, 0
3, 10800, Note_on_c, 0, 50, 27
3, 10800, Note_on_c, 0, 52, 27
3, 10920, Note_on_c, 0, 52, 0
3, 10920, Note_on_c, 0, 50, 0
3, 11040, Note_on_c, 0, 31, 42
3, 11040, Note_on_c, 0, 43, 42
3, 11130, Note_on_c, 0, 43, 0
3, 11130, Note_on_c, 0, 31, 0
3, 11280, Note_on_c, 0, 50, 26
3, 11280, Note_on_c, 0, 52, 26
3, 11400, Note_on_c, 0, 52, 0
3, 11400, Note_on_c, 0, 50, 0
3, 11520, Note_on_c, 0, 26, 40
3, 11520, Note_on_c, 0, 38, 40
3, 11760, Note_on_c, 0, 45, 27
3, 11760, Note_on_c, 0, 54, 27
3, 11760, Note_on_c, 0, 57, 27
3, 11828, Note_on_c, 0, 57, 0
3, 11828, Note_on_c, 0, 45, 0
3, 11828, Note_on_c, 0, 54, 0
3, 11880, Note_on_c, 0, 45, 27
3, 11880, Note_on_c, 0, 54, 27
3, 11880, Note_on_c, 0, 57, 27
3, 11948, Note_on_c, 0, 57, 0
3, 11948, Note_on_c, 0, 45, 0
3, 11948, Note_on_c, 0, 54, 0
3, 12000, Note_on_c, 0, 45, 27
3, 12000, Note_on_c, 0, 54, 27
3, 12000, Note_on_c, 0, 57, 27
3, 12179, Note_on_c, 0, 54, 0
3, 12180, Note_on_c, 0, 45, 0
3, 12180, Note_on_c, 0, 57, 0
3, 12240, Note_on_c, 0, 38, 0
3, 12240, Note_on_c, 0, 26, 0
3, 12240, Note_on_c, 0, 38, 28
3, 12240, Note_on_c, 0, 50, 28
3, 12360, Note_on_c, 0, 50, 0
3, 12360, Note_on_c, 0, 38, 0
3, 12480, Note_on_c, 0, 36, 32
3, 12480, Note_on_c, 0, 48, 32
3, 12600, Note_on_c, 0, 48, 0
3, 12600, Note_on_c, 0, 36, 0
3, 12720, Note_on_c, 0, 34, 39
3, 12720, Note_on_c, 0, 46, 39
3, 12840, Note_on_c, 0, 46, 0
3, 12840, Note_on_c, 0, 34, 0
3, 12840, Note_on_c, 0, 33, 45
3, 12840, Note_on_c, 0, 45, 45
3, 12960, Note_on_c, 0, 45, 0
3, 12960, Note_on_c, 0, 33, 0
3, 12960, Note_on_c, 0, 30, 45
3, 12960, Note_on_c, 0, 42, 45
3, 13200, Note_on_c, 0, 42, 0
3, 13200, Note_on_c, 0, 30, 0
3, 13200, Note_on_c, 0, 36, 36
3, 13200, Note_on_c, 0, 48, 36
3, 13290, Note_on_c, 0, 48, 0
3, 13290, Note_on_c, 0, 36, 0
3, 13440, Note_on_c, 0, 34, 34
3, 13440, Note_on_c, 0, 46, 34
3, 13530, Note_on_c, 0, 46, 0
3, 13530, Note_on_c, 0, 34, 0
3, 13680, Note_on_c, 0, 28, 32
3, 13680, Note_on_c, 0, 40, 32
3, 13770, Note_on_c, 0, 40, 0
3, 13770, Note_on_c, 0, 28, 0
3, 13920, Note_on_c, 0, 30, 38
3, 13920, Note_on_c, 0, 42, 38
3, 14010, Note_on_c, 0, 42, 0
3, 14010, Note_on_c, 0, 30, 0
3, 14160, Note_on_c, 0, 31, 35
3, 14160, Note_on_c, 0, 43, 35
3, 14250, Note_on_c, 0, 43, 0
3, 14250, Note_on_c, 0, 31, 0
3, 14400, Note_on_c, 0, 36, 31
3, 14400, Note_on_c, 0, 48, 31
3, 14490, Note_on_c, 0, 48, 0
3, 14490, Note_on_c, 0, 36, 0
3, 14640, Note_on_c, 0, 34, 31
3, 14640, Note_on_c, 0, 46, 31
3, 14730, Note_on_c, 0, 46, 0
3, 14730, Note_on_c, 0, 34, 0
3, 14880, Note_on_c, 0, 39, 33
3, 14880, Note_on_c, 0, 46, 33
3, 14970, Note_on_c, 0, 46, 0
3, 14970, Note_on_c, 0, 39, 0
3, 15000, Note_on_c, 0, 39, 28
3, 15000, Note_on_c, 0, 46, 28
3, 15090, Note_on_c, 0, 46, 0
3, 15090, Note_on_c, 0, 39, 0
3, 15120, Note_on_c, 0, 39, 28
3, 15120, Note_on_c, 0, 46, 28
3, 15210, Note_on_c, 0, 46, 0
3, 15210, Note_on_c, 0, 39, 0
3, 15360, Note_on_c, 0, 34, 25
3, 15360, Note_on_c, 0, 46, 25
3, 15450, Note_on_c, 0, 46, 0
3, 15450, Note_on_c, 0, 34, 0
3, 15600, Note_on_c, 0, 33, 25
3, 15600, Note_on_c, 0, 45, 25
3, 15690, Note_on_c, 0, 45, 0
3, 15690, Note_on_c, 0, 33, 0
3, 15840, Note_on_c, 0, 38, 31
3, 16080, Note_on_c, 0, 38, 0
3, 16080, Note_on_c, 0, 26, 34
3, 16080, Note_on_c, 0, 38, 34
3, 16200, Note_on_c, 0, 38, 0
3, 16200, Note_on_c, 0, 26, 0
3, 16320, Note_on_c, 0, 31, 50
3, 16320, Note_on_c, 0, 43, 50
3, 16320, Control_c, 0, 91, 127
3, 16440, Note_on_c, 0, 43, 0
3, 16440, Note_on_c, 0, 31, 0
3, 16560, Note_on_c, 0, 50, 37
3, 16560, Note_on_c, 0, 55, 37
3, 16628, Note_on_c, 0, 55, 0
3, 16628, Note_on_c, 0, 50, 0
3, 16680, Note_on_c, 0, 50, 36
3, 16680, Note_on_c, 0, 55, 36
3, 16748, Note_on_c, 0, 55, 0
3, 16748, Note_on_c, 0, 50, 0
3, 16800, Note_on_c, 0, 50, 36
3, 16800, Note_on_c, 0, 55, 36
3, 16860, Note_on_c, 0, 55, 0
3, 16860, Note_on_c, 0, 50, 0
3, 17040, Note_on_c, 0, 46, 53
3, 17040, Note_on_c, 0, 34, 53
3, 17160, Note_on_c, 0, 34, 0
3, 17160, Note_on_c, 0, 46, 0
3, 17280, Note_on_c, 0, 38, 53
3, 17280, Note_on_c, 0, 50, 53
3, 17370, Note_on_c, 0, 50, 0
3, 17370, Note_on_c, 0, 38, 0
3, 17520, Note_on_c, 0, 50, 35
3, 17520, Note_on_c, 0, 55, 35
3, 17640, Note_on_c, 0, 55, 0
3, 17640, Note_on_c, 0, 50, 0
3, 17760, Note_on_c, 0, 34, 52
3, 17760, Note_on_c, 0, 46, 52
3, 17850, Note_on_c, 0, 46, 0
3, 17850, Note_on_c, 0, 34, 0
3, 18000, Note_on_c, 0, 50, 36
3, 18000, Note_on_c, 0, 55, 36
3, 18120, Note_on_c, 0, 55, 0
3, 18120, Note_on_c, 0, 50, 0
3, 18240, Note_on_c, 0, 43, 56
3, 18240, Note_on_c, 0, 31, 56
3, 18360, Note_on_c, 0, 31, 0
3, 18360, Note_on_c, 0, 43, 0
3, 18480, Note_on_c, 0, 50, 36
3, 18480, Note_on_c, 0, 55, 36
3, 18548, Note_on_c, 0, 55, 0
3, 18548, Note_on_c, 0, 50, 0
3, 18600, Note_on_c, 0, 50, 36
3, 18600, Note_on_c, 0, 55, 36
3, 18668, Note_on_c, 0, 55, 0
3, 18668, Note_on_c, 0, 50, 0
3, 18720, Note_on_c, 0, 50, 36
3, 18720, Note_on_c, 0, 55, 36
3, 18780, Note_on_c, 0, 55, 0
3, 18780, Note_on_c, 0, 50, 0
3, 18960, Note_on_c, 0, 33, 52
3, 18960, Note_on_c, 0, 45, 52
3, 19080, Note_on_c, 0, 45, 0
3, 19080, Note_on_c, 0, 33, 0
3, 19080, Note_on_c, 0, 34, 56
3, 19080, Note_on_c, 0, 46, 56
3, 19200, Note_on_c, 0, 46, 0
3, 19200, Note_on_c, 0, 34, 0
3, 19200, Note_on_c, 0, 38, 54
3, 19200, Note_on_c, 0, 50, 54
3, 19440, Note_on_c, 0, 50, 0
3, 19440, Note_on_c, 0, 38, 0
3, 19440, Note_on_c, 0, 50, 34
3, 19440, Note_on_c, 0, 55, 34
3, 19560, Note_on_c, 0, 55, 0
3, 19560, Note_on_c, 0, 50, 0
3, 19680, Note_on_c, 0, 46, 53
3, 19680, Note_on_c, 0, 34, 53
3, 19770, Note_on_c, 0, 34, 0
3, 19770, Note_on_c, 0, 46, 0
3, 19920, Note_on_c, 0, 55, 34
3, 19920, Note_on_c, 0, 50, 34
3, 20040, Note_on_c, 0, 50, 0
3, 20040, Note_on_c, 0, 55, 0
3, 20160, Note_on_c, 0, 43, 51
3, 20160, Note_on_c, 0, 31, 51
3, 20280, Note_on_c, 0, 31, 0
3, 20280, Note_on_c, 0, 43, 0
3, 20400, Note_on_c, 0, 50, 34
3, 20400, Note_on_c, 0, 55, 34
3, 20468, Note_on_c, 0, 55, 0
3, 20468, Note_on_c, 0, 50, 0
3, 20520, Note_on_c, 0, 55, 34
3, 20520, Note_on_c, 0, 50, 34
3, 20588, Note_on_c, 0, 50, 0
3, 20588, Note_on_c, 0, 55, 0
3, 20640, Note_on_c, 0, 55, 34
3, 20640, Note_on_c, 0, 50, 34
3, 20700, Note_on_c, 0, 50, 0
3, 20700, Note_on_c, 0, 55, 0
3, 20880, Note_on_c, 0, 50, 50
3, 21000, Note_on_c, 0, 50, 0
3, 21000, Note_on_c, 0, 53, 53
3, 21120, Note_on_c, 0, 53, 0
3, 21120, Note_on_c, 0, 55, 56
3, 21120, Note_on_c, 0, 43, 56
3, 21360, Note_on_c, 0, 50, 36
3, 21360, Note_on_c, 0, 62, 36
3, 21360, Note_on_c, 0, 58, 36
3, 21428, Note_on_c, 0, 58, 0
3, 21428, Note_on_c, 0, 50, 0
3, 21428, Note_on_c, 0, 62, 0
3, 21480, Note_on_c, 0, 62, 36
3, 21480, Note_on_c, 0, 58, 36
3, 21480, Note_on_c, 0, 50, 36
3, 21548, Note_on_c, 0, 50, 0
3, 21548, Note_on_c, 0, 62, 0
3, 21548, Note_on_c, 0, 58, 0
3, 21600, Note_on_c, 0, 58, 36
3, 21600, Note_on_c, 0, 62, 36
3, 21600, Note_on_c, 0, 50, 36
3, 21779, Note_on_c, 0, 58, 0
3, 21780, Note_on_c, 0, 62, 0
3, 21780, Note_on_c, 0, 50, 0
3, 21840, Note_on_c, 0, 43, 0
3, 21840, Note_on_c, 0, 55, 0
3, 21840, Note_on_c, 0, 46, 54
3, 21960, Note_on_c, 0, 46, 0
3, 21960, Note_on_c, 0, 50, 54
3, 22080, Note_on_c, 0, 50, 0
3, 22080, Note_on_c, 0, 41, 58
3, 22080, Note_on_c, 0, 53, 58
3, 22320, Note_on_c, 0, 62, 40
3, 22320, Note_on_c, 0, 50, 40
3, 22320, Note_on_c, 0, 58, 40
3, 22388, Note_on_c, 0, 58, 0
3, 22388, Note_on_c, 0, 62, 0
3, 22388, Note_on_c, 0, 50, 0
3, 22440, Note_on_c, 0, 50, 40
3, 22440, Note_on_c, 0, 58, 40
3, 22440, Note_on_c, 0, 62, 40
3, 22508, Note_on_c, 0, 62, 0
3, 22508, Note_on_c, 0, 50, 0
3, 22508, Note_on_c, 0, 58, 0
3, 22560, Note_on_c, 0, 62, 40
3, 22560, Note_on_c, 0, 58, 40
3, 22560, Note_on_c, 0, 50, 40
3, 22740, Note_on_c, 0, 50, 0
3, 22740, Note_on_c, 0, 62, 0
3, 22740, Note_on_c, 0, 58, 0
3, 22800, Note_on_c, 0, 53, 0
3, 22800, Note_on_c, 0, 41, 0
3, 22800, Note_on_c, 0, 53, 56
3, 22920, Note_on_c, 0, 53, 0
3, 22920, Note_on_c, 0, 57, 61
3, 23040, Note_on_c, 0, 57, 0
3, 23040, Note_on_c, 0, 46, 63
3, 23040, Note_on_c, 0, 58, 63
3, 23280, Note_on_c, 0, 58, 40
3, 23280, Note_on_c, 0, 54, 40
3, 23280, Note_on_c, 0, 63, 40
3, 23348, Note_on_c, 0, 63, 0
3, 23348, Note_on_c, 0, 58, 0
3, 23348, Note_on_c, 0, 54, 0
3, 23400, Note_on_c, 0, 63, 40
3, 23400, Note_on_c, 0, 54, 40
3, 23400, Note_on_c, 0, 58, 40
3, 23468, Note_on_c, 0, 58, 0
3, 23468, Note_on_c, 0, 63, 0
3, 23468, Note_on_c, 0, 54, 0
3, 23520, Note_on_c, 0, 58, 40
3, 23520, Note_on_c, 0, 54, 40
3, 23520, Note_on_c, 0, 63, 40
3, 23700, Note_on_c, 0, 63, 0
3, 23700, Note_on_c, 0, 58, 0
3, 23700, Note_on_c, 0, 54, 0
3, 23760, Note_on_c, 0, 58, 0
3, 23760, Note_on_c, 0, 46, 0
3, 23760, Note_on_c, 0, 50, 63
3, 23880, Note_on_c, 0, 50, 0
3, 23880, Note_on_c, 0, 54, 63
3, 24000, Note_on_c, 0, 54, 0
3, 24000, Note_on_c, 0, 57, 70
3, 24000, Note_on_c, 0, 45, 70
3, 24240, Note_on_c, 0, 57, 46
3, 24240, Note_on_c, 0, 62, 46
3, 24240, Note_on_c, 0, 54, 52
3, 24308, Note_on_c, 0, 54, 0
3, 24308, Note_on_c, 0, 57, 0
3, 24308, Note_on_c, 0, 62, 0
3, 24360, Note_on_c, 0, 57, 46
3, 24360, Note_on_c, 0, 54, 52
3, 24360, Note_on_c, 0, 62, 46
3, 24428, Note_on_c, 0, 62, 0
3, 24428, Note_on_c, 0, 57, 0
3, 24428, Note_on_c, 0, 54, 0
3, 24480, Note_on_c, 0, 54, 52
3, 24480, Note_on_c, 0, 62, 46
3, 24480, Note_on_c, 0, 57, 46
3, 24660, Note_on_c, 0, 57, 0
3, 24660, Note_on_c, 0, 54, 0
3, 24660, Note_on_c, 0, 62, 0
3, 24720, Note_on_c, 0, 45, 0
3, 24720, Note_on_c, 0, 57, 0
3, 24720, Note_on_c, 0, 45, 64
3, 24720, Note_on_c, 0, 57, 64
3, 24840, Note_on_c, 0, 57, 0
3, 24840, Note_on_c, 0, 45, 0
3, 24840, Note_on_c, 0, 60, 64
3, 24840, Note_on_c, 0, 48, 64
3, 24960, Note_on_c, 0, 48, 0
3, 24960, Note_on_c, 0, 60, 0
3, 24960, Note_on_c, 0, 50, 69
3, 24960, Note_on_c, 0, 62, 69
3, 25200, Note_on_c, 0, 62, 52
3, 25200, Note_on_c, 0, 58, 52
3, 25200, Note_on_c, 0, 67, 52
3, 25268, Note_on_c, 0, 67, 0
3, 25268, Note_on_c, 0, 62, 0
3, 25268, Note_on_c, 0, 58, 0
3, 25320, Note_on_c, 0, 58, 52
3, 25320, Note_on_c, 0, 67, 52
3, 25320, Note_on_c, 0, 62, 52
3, 25388, Note_on_c, 0, 62, 0
3, 25388, Note_on_c, 0, 58, 0
3, 25388, Note_on_c, 0, 67, 0
3, 25440, Note_on_c, 0, 62, 52
3, 25440, Note_on_c, 0, 58, 52
3, 25440, Note_on_c, 0, 67, 52
3, 25619, Note_on_c, 0, 62, 0
3, 25620, Note_on_c, 0, 58, 0
3, 25620, Note_on_c, 0, 67, 0
3, 25678, Note_on_c, 0, 62, 0
3, 25680, Note_on_c, 0, 50, 0
3, 25680, Note_on_c, 0, 38, 64
3, 25680, Note_on_c, 0, 50, 64
3, 25800, Note_on_c, 0, 50, 0
3, 25800, Note_on_c, 0, 38, 0
3, 25920, Note_on_c, 0, 37, 64
3, 25920, Note_on_c, 0, 49, 64
3, 26040, Note_on_c, 0, 49, 0
3, 26040, Note_on_c, 0, 37, 0
3, 26160, Note_on_c, 0, 36, 63
3, 26160, Note_on_c, 0, 48, 63
3, 26280, Note_on_c, 0, 48, 0
3, 26280, Note_on_c, 0, 36, 0
3, 26400, Note_on_c, 0, 57, 56
3, 26400, Note_on_c, 0, 63, 56
3, 26400, Note_on_c, 0, 66, 56
3, 26520, Note_on_c, 0, 66, 0
3, 26520, Note_on_c, 0, 63, 0
3, 26520, Note_on_c, 0, 57, 0
3, 26640, Note_on_c, 0, 54, 57
3, 26640, Note_on_c, 0, 62, 57
3, 26640, Note_on_c, 0, 57, 57
3, 26760, Note_on_c, 0, 57, 0
3, 26760, Note_on_c, 0, 62, 0
3, 26760, Note_on_c, 0, 54, 0
3, 26880, Note_on_c, 0, 62, 63
3, 26880, Note_on_c, 0, 55, 63
3, 27120, Note_on_c, 0, 55, 0
3, 27120, Note_on_c, 0, 62, 0
3, 27120, Note_on_c, 0, 46, 61
3, 27120, Note_on_c, 0, 34, 61
3, 27240, Note_on_c, 0, 34, 0
3, 27240, Note_on_c, 0, 46, 0
3, 27360, Note_on_c, 0, 47, 61
3, 27360, Note_on_c, 0, 35, 61
3, 27480, Note_on_c, 0, 35, 0
3, 27480, Note_on_c, 0, 47, 0
3, 27600, Note_on_c, 0, 55, 57
3, 27600, Note_on_c, 0, 51, 57
3, 27720, Note_on_c, 0, 51, 0
3, 27720, Note_on_c, 0, 55, 0
3, 27840, Note_on_c, 0, 48, 64
3, 27840, Note_on_c, 0, 36, 64
3, 27960, Note_on_c, 0, 36, 0
3, 27960, Note_on_c, 0, 48, 0
3, 28080, Note_on_c, 0, 50, 57
3, 28080, Note_on_c, 0, 38, 57
3, 28200, Note_on_c, 0, 38, 0
3, 28200, Note_on_c, 0, 50, 0
3, 28320, Note_on_c, 0, 43, 63
3, 28320, Note_on_c, 0, 31, 63
3, 28560, Note_on_c, 0, 31, 0
3, 28560, Note_on_c, 0, 43, 0
3, 28800, Note_on_c, 0, 67, 81
3, 28800, Note_on_c, 0, 58, 72
3, 28800, Note_on_c, 0, 63, 81
3, 28800, Control_c, 0, 91, 127
3, 28800, Note_on_c, 0, 55, 72
3, 29040, Note_on_c, 0, 55, 0
3, 29040, Note_on_c, 0, 67, 0
3, 29040, Note_on_c, 0, 58, 0
3, 29040, Note_on_c, 0, 63, 0
3, 29040, Note_on_c, 0, 63, 72
3, 29040, Note_on_c, 0, 55, 64
3, 29040, Note_on_c, 0, 58, 64
3, 29108, Note_on_c, 0, 58, 0
3, 29108, Note_on_c, 0, 55, 0
3, 29108, Note_on_c, 0, 63, 0
3, 29160, Note_on_c, 0, 55, 64
3, 29160, Note_on_c, 0, 63, 72
3, 29160, Note_on_c, 0, 58, 64
3, 29228, Note_on_c, 0, 58, 0
3, 29228, Note_on_c, 0, 63, 0
3, 29228, Note_on_c, 0, 55, 0
3, 29280, Note_on_c, 0, 58, 64
3, 29280, Note_on_c, 0, 63, 72
3, 29280, Note_on_c, 0, 55, 64
3, 29348, Note_on_c, 0, 55, 0
3, 29348, Note_on_c, 0, 63, 0
3, 29348, Note_on_c, 0, 58, 0
3, 29520, Note_on_c, 0, 39, 61
3, 29520, Note_on_c, 0, 46, 61
3, 29588, Note_on_c, 0, 46, 0
3, 29588, Note_on_c, 0, 39, 0
3, 29640, Note_on_c, 0, 46, 61
3, 29640, Note_on_c, 0, 39, 61
3, 29708, Note_on_c, 0, 39, 0
3, 29708, Note_on_c, 0, 46, 0
3, 29760, Note_on_c, 0, 46, 61
3, 29760, Note_on_c, 0, 39, 61
3, 29828, Note_on_c, 0, 39, 0
3, 29828, Note_on_c, 0, 46, 0
3, 30000, Note_on_c, 0, 58, 77
3, 30000, Note_on_c, 0, 55, 69
3, 30000, Note_on_c, 0, 63, 77
3, 30090, Note_on_c, 0, 63, 0
3, 30090, Note_on_c, 0, 55, 0
3, 30090, Note_on_c, 0, 58, 0
3, 30240, Note_on_c, 0, 58, 77
3, 30240, Note_on_c, 0, 55, 77
3, 30360, Note_on_c, 0, 55, 0
3, 30360, Note_on_c, 0, 58, 0
3, 30360, Note_on_c, 0, 60, 77
3, 30480, Note_on_c, 0, 60, 0
3, 30480, Note_on_c, 0, 62, 77
3, 30600, Note_on_c, 0, 62, 0
3, 30600, Note_on_c, 0, 63, 77
3, 30720, Note_on_c, 0, 63, 0
3, 30720, Note_on_c, 0, 53, 72
3, 30720, Note_on_c, 0, 58, 81
3, 30720, Note_on_c, 0, 62, 81
3, 30960, Note_on_c, 0, 62, 0
3, 30960, Note_on_c, 0, 58, 0
3, 30960, Note_on_c, 0, 53, 0
3, 30960, Note_on_c, 0, 53, 64
3, 30960, Note_on_c, 0, 62, 72
3, 30960, Note_on_c, 0, 58, 72
3, 31028, Note_on_c, 0, 58, 0
3, 31028, Note_on_c, 0, 62, 0
3, 31028, Note_on_c, 0, 53, 0
3, 31080, Note_on_c, 0, 58, 72
3, 31080, Note_on_c, 0, 62, 72
3, 31080, Note_on_c, 0, 53, 64
3, 31148, Note_on_c, 0, 53, 0
3, 31148, Note_on_c, 0, 62, 0
3, 31148, Note_on_c, 0, 58, 0
3, 31200, Note_on_c, 0, 53, 64
3, 31200, Note_on_c, 0, 62, 72
3, 31200, Note_on_c, 0, 58, 72
3, 31268, Note_on_c, 0, 58, 0
3, 31268, Note_on_c, 0, 62, 0
3, 31268, Note_on_c, 0, 53, 0
3, 31440, Note_on_c, 0, 34, 59
3, 31440, Note_on_c, 0, 46, 59
3, 31508, Note_on_c, 0, 46, 0
3, 31508, Note_on_c, 0, 34, 0
3, 31560, Note_on_c, 0, 34, 59
3, 31560, Note_on_c, 0, 46, 59
3, 31628, Note_on_c, 0, 46, 0
3, 31628, Note_on_c, 0, 34, 0
3, 31680, Note_on_c, 0, 34, 59
3, 31680, Note_on_c, 0, 46, 59
3, 31748, Note_on_c, 0, 46, 0
3, 31748, Note_on_c, 0, 34, 0
3, 31920, Note_on_c, 0, 53, 67
3, 31920, Note_on_c, 0, 62, 75
3, 31920, Note_on_c, 0, 58, 75
3, 32010, Note_on_c, 0, 58, 0
3, 32010, Note_on_c, 0, 62, 0
3, 32010, Note_on_c, 0, 53, 0
3, 32160, Note_on_c, 0, 58, 77
3, 32160, Note_on_c, 0, 53, 69
3, 32160, Note_on_c, 0, 62, 77
3, 32280, Note_on_c, 0, 62, 0
3, 32280, Note_on_c, 0, 53, 0
3, 32280, Note_on_c, 0, 58, 0
3, 32280, Note_on_c, 0, 64, 77
3, 32400, Note_on_c, 0, 64, 0
3, 32400, Note_on_c, 0, 65, 77
3, 32520, Note_on_c, 0, 65, 0
3, 32520, Note_on_c, 0, 67, 77
3, 32640, Note_on_c, 0, 67, 0
3, 32640, Note_on_c, 0, 62, 81
3, 32640, Note_on_c, 0, 65, 81
3, 32640, Note_on_c, 0, 57, 72
3, 32880, Note_on_c, 0, 57, 0
3, 32880, Note_on_c, 0, 65, 0
3, 32880, Note_on_c, 0, 62, 0
3, 32880, Note_on_c, 0, 57, 64
3, 32880, Note_on_c, 0, 62, 72
3, 32880, Note_on_c, 0, 65, 72
3, 32880, Note_on_c, 0, 53, 64
3, 32948, Note_on_c, 0, 53, 0
3, 32948, Note_on_c, 0, 57, 0
3, 32948, Note_on_c, 0, 62, 0
3, 32948, Note_on_c, 0, 65, 0
3, 33000, Note_on_c, 0, 57, 64
3, 33000, Note_on_c, 0, 62, 72
3, 33000, Note_on_c, 0, 65, 72
3, 33000, Note_on_c, 0, 53, 64
3, 33068, Note_on_c, 0, 53, 0
3, 33068, Note_on_c, 0, 57, 0
3, 33068, Note_on_c, 0, 62, 0
3, 33068, Note_on_c, 0, 65, 0
3, 33120, Note_on_c, 0, 53, 64
3, 33120, Note_on_c, 0, 62, 72
3, 33120, Note_on_c, 0, 65, 72
3, 33120, Note_on_c, 0, 57, 64
3, 33188, Note_on_c, 0, 57, 0
3, 33188, Note_on_c, 0, 53, 0
3, 33188, Note_on_c, 0, 62, 0
3, 33188, Note_on_c, 0, 65, 0
3, 33360, Note_on_c, 0, 38, 59
3, 33360, Note_on_c, 0, 45, 59
3, 33428, Note_on_c, 0, 45, 0
3, 33428, Note_on_c, 0, 38, 0
3, 33480, Note_on_c, 0, 45, 59
3, 33480, Note_on_c, 0, 38, 59
3, 33548, Note_on_c, 0, 38, 0
3, 33548, Note_on_c, 0, 45, 0
3, 33600, Note_on_c, 0, 45, 59
3, 33600, Note_on_c, 0, 38, 59
3, 33668, Note_on_c, 0, 38, 0
3, 33668, Note_on_c, 0, 45, 0
3, 33840, Note_on_c, 0, 57, 76
3, 33840, Note_on_c, 0, 62, 76
3, 33840, Note_on_c, 0, 53, 68
3, 33930, Note_on_c, 0, 53, 0
3, 33930, Note_on_c, 0, 62, 0
3, 33930, Note_on_c, 0, 57, 0
3, 34080, Note_on_c, 0, 57, 76
3, 34080, Note_on_c, 0, 53, 76
3, 34200, Note_on_c, 0, 53, 0
3, 34200, Note_on_c, 0, 57, 0
3, 34200, Note_on_c, 0, 59, 76
3, 34320, Note_on_c, 0, 59, 0
3, 34320, Note_on_c, 0, 60, 76
3, 34440, Note_on_c, 0, 60, 0
3, 34440, Note_on_c, 0, 62, 76
3, 34560, Note_on_c, 0, 62, 0
3, 34560, Note_on_c, 0, 53, 72
3, 34560, Note_on_c, 0, 60, 81
3, 34560, Note_on_c, 0, 57, 81
3, 34800, Note_on_c, 0, 57, 0
3, 34800, Note_on_c, 0, 60, 0
3, 34800, Note_on_c, 0, 53, 0
3, 34800, Note_on_c, 0, 53, 65
3, 34800, Note_on_c, 0, 60, 73
3, 34800, Note_on_c, 0, 57, 65
3, 34800, Note_on_c, 0, 65, 73
3, 34868, Note_on_c, 0, 65, 0
3, 34868, Note_on_c, 0, 53, 0
3, 34868, Note_on_c, 0, 60, 0
3, 34868, Note_on_c, 0, 57, 0
3, 34920, Note_on_c, 0, 53, 65
3, 34920, Note_on_c, 0, 60, 73
3, 34920, Note_on_c, 0, 57, 65
3, 34920, Note_on_c, 0, 65, 73
3, 34988, Note_on_c, 0, 65, 0
3, 34988, Note_on_c, 0, 53, 0
3, 34988, Note_on_c, 0, 60, 0
3, 34988, Note_on_c, 0, 57, 0
3, 35040, Note_on_c, 0, 57, 65
3, 35040, Note_on_c, 0, 60, 73
3, 35040, Note_on_c, 0, 65, 73
3, 35040, Note_on_c, 0, 53, 65
3, 35108, Note_on_c, 0, 53, 0
3, 35108, Note_on_c, 0, 57, 0
3, 35108, Note_on_c, 0, 60, 0
3, 35108, Note_on_c, 0, 65, 0
3, 35280, Note_on_c, 0, 48, 64
3, 35280, Note_on_c, 0, 41, 64
3, 35348, Note_on_c, 0, 41, 0
3, 35348, Note_on_c, 0, 48, 0
3, 35400, Note_on_c, 0, 48, 64
3, 35400, Note_on_c, 0, 41, 64
3, 35468, Note_on_c, 0, 41, 0
3, 35468, Note_on_c, 0, 48, 0
3, 35520, Note_on_c, 0, 48, 64
3, 35520, Note_on_c, 0, 41, 64
3, 35588, Note_on_c, 0, 41, 0
3, 35588, Note_on_c, 0, 48, 0
3, 35760, Note_on_c, 0, 53, 75
3, 35760, Note_on_c, 0, 60, 75
3, 35760, Note_on_c, 0, 57, 75
3, 35850, Note_on_c, 0, 57, 0
3, 35850, Note_on_c, 0, 60, 0
3, 35850, Note_on_c, 0, 53, 0
3, 36000, Note_on_c, 0, 53, 75
3, 36000, Note_on_c, 0, 60, 75
3, 36000, Note_on_c, 0, 56, 75
3, 36120, Note_on_c, 0, 56, 0
3, 36120, Note_on_c, 0, 60, 0
3, 36120, Note_on_c, 0, 53, 0
3, 36120, Note_on_c, 0, 62, 75
3, 36240, Note_on_c, 0, 62, 0
3, 36240, Note_on_c, 0, 63, 75
3, 36360, Note_on_c, 0, 63, 0
3, 36360, Note_on_c, 0, 65, 75
3, 36480, Note_on_c, 0, 65, 0
3, 36480, Note_on_c, 0, 55, 72
3, 36480, Note_on_c, 0, 63, 81
3, 36480, Note_on_c, 0, 60, 81
3, 36720, Note_on_c, 0, 60, 0
3, 36720, Note_on_c, 0, 63, 0
3, 36720, Note_on_c, 0, 55, 0
3, 36720, Note_on_c, 0, 51, 70
3, 36720, Note_on_c, 0, 43, 70
3, 36788, Note_on_c, 0, 43, 0
3, 36788, Note_on_c, 0, 51, 0
3, 36840, Note_on_c, 0, 36, 70
3, 36908, Note_on_c, 0, 36, 0
3, 36960, Note_on_c, 0, 43, 70
3, 36960, Note_on_c, 0, 51, 70
3, 37140, Note_on_c, 0, 51, 0
3, 37140, Note_on_c, 0, 43, 0
3, 37200, Note_on_c, 0, 63, 77
3, 37320, Note_on_c, 0, 63, 0
3, 37320, Note_on_c, 0, 65, 77
3, 37440, Note_on_c, 0, 65, 0
3, 37440, Note_on_c, 0, 58, 72
3, 37440, Note_on_c, 0, 67, 81
3, 37440, Note_on_c, 0, 62, 81
3, 37680, Note_on_c, 0, 62, 0
3, 37680, Note_on_c, 0, 67, 0
3, 37680, Note_on_c, 0, 58, 0
3, 37680, Note_on_c, 0, 46, 69
3, 37680, Note_on_c, 0, 55, 69
3, 37748, Note_on_c, 0, 55, 0
3, 37748, Note_on_c, 0, 46, 0
3, 37800, Note_on_c, 0, 39, 69
3, 37868, Note_on_c, 0, 39, 0
3, 37920, Note_on_c, 0, 55, 69
3, 37920, Note_on_c, 0, 46, 69
3, 38100, Note_on_c, 0, 46, 0
3, 38100, Note_on_c, 0, 55, 0
3, 38160, Note_on_c, 0, 62, 81
3, 38280, Note_on_c, 0, 62, 0
3, 38280, Note_on_c, 0, 67, 81
3, 38400, Note_on_c, 0, 67, 0
3, 38400, Note_on_c, 0, 57, 75
3, 38400, Note_on_c, 0, 69, 84
3, 38400, Note_on_c, 0, 64, 84
3, 38640, Note_on_c, 0, 64, 0
3, 38640, Note_on_c, 0, 69, 0
3, 38640, Note_on_c, 0, 57, 0
3, 38640, Note_on_c, 0, 64, 74
3, 38640, Note_on_c, 0, 57, 66
3, 38640, Note_on_c, 0, 67, 74
3, 38708, Note_on_c, 0, 67, 0
3, 38708, Note_on_c, 0, 57, 0
3, 38708, Note_on_c, 0, 64, 0
3, 38760, Note_on_c, 0, 67, 74
3, 38760, Note_on_c, 0, 64, 74
3, 38760, Note_on_c, 0, 57, 66
3, 38828, Note_on_c, 0, 57, 0
3, 38828, Note_on_c, 0, 64, 0
3, 38828, Note_on_c, 0, 67, 0
3, 38880, Note_on_c, 0, 64, 74
3, 38880, Note_on_c, 0, 57, 66
3, 38880, Note_on_c, 0, 67, 74
3, 38948, Note_on_c, 0, 67, 0
3, 38948, Note_on_c, 0, 57, 0
3, 38948, Note_on_c, 0, 64, 0
3, 39120, Note_on_c, 0, 52, 71
3, 39120, Note_on_c, 0, 55, 71
3, 39120, Note_on_c, 0, 45, 63
3, 39188, Note_on_c, 0, 45, 0
3, 39188, Note_on_c, 0, 55, 0
3, 39188, Note_on_c, 0, 52, 0
3, 39240, Note_on_c, 0, 52, 71
3, 39240, Note_on_c, 0, 45, 63
3, 39240, Note_on_c, 0, 55, 71
3, 39308, Note_on_c, 0, 55, 0
3, 39308, Note_on_c, 0, 45, 0
3, 39308, Note_on_c, 0, 52, 0
3, 39360, Note_on_c, 0, 45, 63
3, 39360, Note_on_c, 0, 55, 71
3, 39360, Note_on_c, 0, 52, 71
3, 39428, Note_on_c, 0, 52, 0
3, 39428, Note_on_c, 0, 55, 0
3, 39428, Note_on_c, 0, 45, 0
3, 39600, Note_on_c, 0, 40, 61
3, 39600, Note_on_c, 0, 33, 61
3, 39668, Note_on_c, 0, 33, 0
3, 39668, Note_on_c, 0, 40, 0
3, 39720, Note_on_c, 0, 33, 61
3, 39720, Note_on_c, 0, 40, 61
3, 39788, Note_on_c, 0, 40, 0
3, 39788, Note_on_c, 0, 33, 0
3, 39840, Note_on_c, 0, 33, 81
3, 39840, Note_on_c, 0, 40, 81
3, 39908, Note_on_c, 0, 40, 0
3, 39908, Note_on_c, 0, 33, 0
3, 40080, Note_on_c, 0, 31, 81
3, 40200, Note_on_c, 0, 31, 0
3, 40200, Note_on_c, 0, 33, 81
3, 40320, Note_on_c, 0, 33, 0
3, 40320, Note_on_c, 0, 38, 92
3, 40320, Note_on_c, 0, 26, 92
3, 40560, Note_on_c, 0, 57, 32
3, 40560, Note_on_c, 0, 66, 36
3, 40560, Note_on_c, 0, 62, 32
3, 40560, Note_on_c, 0, 69, 36
3, 40650, Note_on_c, 0, 69, 0
3, 40650, Note_on_c, 0, 66, 0
3, 40650, Note_on_c, 0, 57, 0
3, 40650, Note_on_c, 0, 62, 0
3, 40680, Note_on_c, 0, 57, 35
3, 40680, Note_on_c, 0, 66, 39
3, 40680, Note_on_c, 0, 62, 35
3, 40680, Note_on_c, 0, 69, 39
3, 40770, Note_on_c, 0, 69, 0
3, 40770, Note_on_c, 0, 66, 0
3, 40770, Note_on_c, 0, 57, 0
3, 40770, Note_on_c, 0, 62, 0
3, 40800, Note_on_c, 0, 62, 37
3, 40800, Note_on_c, 0, 66, 42
3, 40800, Note_on_c, 0, 69, 42
3, 40800, Note_on_c, 0, 57, 37
3, 40890, Note_on_c, 0, 57, 0
3, 40890, Note_on_c, 0, 66, 0
3, 40890, Note_on_c, 0, 62, 0
3, 40890, Note_on_c, 0, 69, 0
3, 40920, Note_on_c, 0, 62, 40
3, 40920, Note_on_c, 0, 66, 45
3, 40920, Note_on_c, 0, 70, 45
3, 40920, Note_on_c, 0, 58, 40
3, 41010, Note_on_c, 0, 58, 0
3, 41010, Note_on_c, 0, 66, 0
3, 41010, Note_on_c, 0, 62, 0
3, 41010, Note_on_c, 0, 70, 0
3, 41040, Note_on_c, 0, 62, 42
3, 41040, Note_on_c, 0, 66, 47
3, 41040, Note_on_c, 0, 70, 47
3, 41040, Note_on_c, 0, 58, 42
3, 41130, Note_on_c, 0, 58, 0
3, 41130, Note_on_c, 0, 66, 0
3, 41130, Note_on_c, 0, 62, 0
3, 41130, Note_on_c, 0, 70, 0
3, 41160, Note_on_c, 0, 57, 44
3, 41160, Note_on_c, 0, 66, 49
3, 41160, Note_on_c, 0, 62, 44
3, 41160, Note_on_c, 0, 69, 49
3, 41250, Note_on_c, 0, 69, 0
3, 41250, Note_on_c, 0, 66, 0
3, 41250, Note_on_c, 0, 57, 0
3, 41250, Note_on_c, 0, 62, 0
3, 41280, Note_on_c, 0, 57, 46
3, 41280, Note_on_c, 0, 66, 52
3, 41280, Note_on_c, 0, 62, 46
3, 41280, Note_on_c, 0, 69, 52
3, 41370, Note_on_c, 0, 69, 0
3, 41370, Note_on_c, 0, 66, 0
3, 41370, Note_on_c, 0, 57, 0
3, 41370, Note_on_c, 0, 62, 0
3, 41400, Note_on_c, 0, 62, 48
3, 41400, Note_on_c, 0, 66, 54
3, 41400, Note_on_c, 0, 70, 54
3, 41400, Note_on_c, 0, 58, 48
3, 41490, Note_on_c, 0, 58, 0
3, 41490, Note_on_c, 0, 66, 0
3, 41490, Note_on_c, 0, 62, 0
3, 41490, Note_on_c, 0, 70, 0
3, 41520, Note_on_c, 0, 62, 50
3, 41520, Note_on_c, 0, 66, 56
3, 41520, Note_on_c, 0, 70, 56
3, 41520, Note_on_c, 0, 58, 50
3, 41610, Note_on_c, 0, 58, 0
3, 41610, Note_on_c, 0, 66, 0
3, 41610, Note_on_c, 0, 62, 0
3, 41610, Note_on_c, 0, 70, 0
3, 41640, Note_on_c, 0, 62, 54
3, 41640, Note_on_c, 0, 66, 60
3, 41640, Note_on_c, 0, 69, 60
3, 41640, Note_on_c, 0, 57, 54
3, 41730, Note_on_c, 0, 57, 0
3, 41730, Note_on_c, 0, 66, 0
3, 41730, Note_on_c, 0, 62, 0
3, 41730, Note_on_c, 0, 69, 0
3, 41760, Note_on_c, 0, 57, 56
3, 41760, Note_on_c, 0, 66, 63
3, 41760, Note_on_c, 0, 69, 63
3, 41760, Note_on_c, 0, 62, 56
3, 41850, Note_on_c, 0, 62, 0
3, 41850, Note_on_c, 0, 66, 0
3, 41850, Note_on_c, 0, 57, 0
3, 41850, Note_on_c, 0, 69, 0
3, 41880, Note_on_c, 0, 58, 57
3, 41880, Note_on_c, 0, 66, 64
3, 41880, Note_on_c, 0, 70, 64
3, 41880, Note_on_c, 0, 62, 57
3, 41970, Note_on_c, 0, 62, 0
3, 41970, Note_on_c, 0, 66, 0
3, 41970, Note_on_c, 0, 58, 0
3, 41970, Note_on_c, 0, 70, 0
3, 42000, Note_on_c, 0, 62, 60
3, 42000, Note_on_c, 0, 58, 60
3, 42000, Note_on_c, 0, 70, 67
3, 42000, Note_on_c, 0, 66, 67
3, 42090, Note_on_c, 0, 66, 0
3, 42090, Note_on_c, 0, 58, 0
3, 42090, Note_on_c, 0, 62, 0
3, 42090, Note_on_c, 0, 70, 0
3, 42120, Note_on_c, 0, 62, 63
3, 42120, Note_on_c, 0, 57, 63
3, 42120, Note_on_c, 0, 69, 70
3, 42120, Note_on_c, 0, 66, 70
3, 42210, Note_on_c, 0, 66, 0
3, 42210, Note_on_c, 0, 57, 0
3, 42210, Note_on_c, 0, 62, 0
3, 42210, Note_on_c, 0, 69, 0
3, 42240, Note_on_c, 0, 26, 0
3, 42240, Note_on_c, 0, 38, 0
3, 42240, Note_on_c, 0, 57, 64
3, 42240, Note_on_c, 0, 66, 72
3, 42240, Note_on_c, 0, 62, 64
3, 42240, Note_on_c, 0, 69, 72
3, 42330, Note_on_c, 0, 69, 0
3, 42330, Note_on_c, 0, 57, 0
3, 42330, Note_on_c, 0, 66, 0
3, 42330, Note_on_c, 0, 62, 0
3, 42480, Note_on_c, 0, 66, 70
3, 42570, Note_on_c, 0, 66, 0
3, 42600, Note_on_c, 0, 63, 70
3, 42690, Note_on_c, 0, 63, 0
3, 42720, Note_on_c, 0, 62, 70
3, 42810, Note_on_c, 0, 62, 0
3, 42840, Note_on_c, 0, 60, 70
3, 42930, Note_on_c, 0, 60, 0
3, 42960, Note_on_c, 0, 58, 70
3, 43050, Note_on_c, 0, 58, 0
3, 43080, Note_on_c, 0, 57, 70
3, 43170, Note_on_c, 0, 57, 0
3, 43200, Note_on_c, 0, 54, 70
3, 43290, Note_on_c, 0, 54, 0
3, 43320, Note_on_c, 0, 51, 70
3, 43410, Note_on_c, 0, 51, 0
3, 43440, Note_on_c, 0, 50, 70
3, 43530, Note_on_c, 0, 50, 0
3, 43560, Note_on_c, 0, 48, 70
3, 43650, Note_on_c, 0, 48, 0
3, 43680, Note_on_c, 0, 46, 70
3, 43770, Note_on_c, 0, 46, 0
3, 43800, Note_on_c, 0, 45, 70
3, 43890, Note_on_c, 0, 45, 0
3, 43920, Note_on_c, 0, 42, 74
3, 44040, Note_on_c, 0, 42, 0
3, 44040, Note_on_c, 0, 38, 70
3, 44160, Note_on_c, 0, 38, 0
3, 44160, Note_on_c, 0, 43, 97
3, 44160, Control_c, 0, 91, 127
3, 44160, Note_on_c, 0, 31, 97
3, 44400, Note_on_c, 0, 58, 63
3, 44400, Note_on_c, 0, 50, 56
3, 44400, Note_on_c, 0, 55, 56
3, 44400, Note_on_c, 0, 62, 63
3, 44468, Note_on_c, 0, 62, 0
3, 44468, Note_on_c, 0, 50, 0
3, 44468, Note_on_c, 0, 58, 0
3, 44468, Note_on_c, 0, 55, 0
3, 44520, Note_on_c, 0, 58, 63
3, 44520, Note_on_c, 0, 50, 54
3, 44520, Note_on_c, 0, 55, 54
3, 44520, Note_on_c, 0, 62, 63
3, 44588, Note_on_c, 0, 62, 0
3, 44588, Note_on_c, 0, 50, 0
3, 44588, Note_on_c, 0, 58, 0
3, 44588, Note_on_c, 0, 55, 0
3, 44640, Note_on_c, 0, 58, 63
3, 44640, Note_on_c, 0, 50, 54
3, 44640, Note_on_c, 0, 55, 54
3, 44640, Note_on_c, 0, 62, 63
3, 44819, Note_on_c, 0, 58, 0
3, 44820, Note_on_c, 0, 55, 0
3, 44820, Note_on_c, 0, 50, 0
3, 44820, Note_on_c, 0, 62, 0
3, 44880, Note_on_c, 0, 43, 0
3, 44880, Note_on_c, 0, 31, 0
3, 44880, Note_on_c, 0, 34, 87
3, 44880, Note_on_c, 0, 46, 87
3, 44970, Note_on_c, 0, 46, 0
3, 44970, Note_on_c, 0, 34, 0
3, 45120, Note_on_c, 0, 38, 87
3, 45120, Note_on_c, 0, 50, 87
3, 45210, Note_on_c, 0, 50, 0
3, 45210, Note_on_c, 0, 38, 0
3, 45360, Note_on_c, 0, 62, 64
3, 45360, Note_on_c, 0, 50, 57
3, 45360, Note_on_c, 0, 55, 57
3, 45360, Note_on_c, 0, 58, 64
3, 45479, Note_on_c, 0, 58, 0
3, 45480, Note_on_c, 0, 62, 0
3, 45480, Note_on_c, 0, 50, 0
3, 45480, Note_on_c, 0, 55, 0
3, 45600, Note_on_c, 0, 46, 86
3, 45600, Note_on_c, 0, 34, 86
3, 45690, Note_on_c, 0, 34, 0
3, 45690, Note_on_c, 0, 46, 0
3, 45840, Note_on_c, 0, 58, 65
3, 45840, Note_on_c, 0, 50, 58
3, 45840, Note_on_c, 0, 55, 58
3, 45840, Note_on_c, 0, 62, 65
3, 45960, Note_on_c, 0, 62, 0
3, 45960, Note_on_c, 0, 58, 0
3, 45960, Note_on_c, 0, 50, 0
3, 45960, Note_on_c, 0, 55, 0
3, 46080, Note_on_c, 0, 43, 82
3, 46080, Control_c, 0, 91, 127
3, 46080, Note_on_c, 0, 31, 82
3, 46320, Note_on_c, 0, 62, 63
3, 46320, Note_on_c, 0, 50, 56
3, 46320, Note_on_c, 0, 55, 56
3, 46320, Note_on_c, 0, 58, 63
3, 46388, Note_on_c, 0, 58, 0
3, 46388, Note_on_c, 0, 50, 0
3, 46388, Note_on_c, 0, 62, 0
3, 46388, Note_on_c, 0, 55, 0
3, 46440, Note_on_c, 0, 62, 63
3, 46440, Note_on_c, 0, 50, 54
3, 46440, Note_on_c, 0, 55, 54
3, 46440, Note_on_c, 0, 58, 63
3, 46508, Note_on_c, 0, 58, 0
3, 46508, Note_on_c, 0, 50, 0
3, 46508, Note_on_c, 0, 62, 0
3, 46508, Note_on_c, 0, 55, 0
3, 46560, Note_on_c, 0, 58, 63
3, 46560, Note_on_c, 0, 62, 63
3, 46560, Note_on_c, 0, 55, 54
3, 46560, Note_on_c, 0, 50, 54
3, 46739, Note_on_c, 0, 58, 0
3, 46740, Note_on_c, 0, 55, 0
3, 46740, Note_on_c, 0, 62, 0
3, 46740, Note_on_c, 0, 50, 0
3, 46800, Note_on_c, 0, 43, 0
3, 46800, Note_on_c, 0, 31, 0
3, 46800, Note_on_c, 0, 46, 87
3, 46800, Note_on_c, 0, 34, 87
3, 46890, Note_on_c, 0, 34, 0
3, 46890, Note_on_c, 0, 46, 0
3, 47040, Note_on_c, 0, 50, 87
3, 47040, Note_on_c, 0, 38, 87
3, 47130, Note_on_c, 0, 38, 0
3, 47130, Note_on_c, 0, 50, 0
3, 47280, Note_on_c, 0, 58, 64
3, 47280, Note_on_c, 0, 62, 64
3, 47280, Note_on_c, 0, 55, 57
3, 47280, Note_on_c, 0, 50, 57
3, 47400, Note_on_c, 0, 50, 0
3, 47400, Note_on_c, 0, 58, 0
3, 47400, Note_on_c, 0, 62, 0
3, 47400, Note_on_c, 0, 55, 0
3, 47520, Note_on_c, 0, 34, 86
3, 47520, Note_on_c, 0, 46, 86
3, 47610, Note_on_c, 0, 46, 0
3, 47610, Note_on_c, 0, 34, 0
3, 47760, Note_on_c, 0, 62, 65
3, 47760, Note_on_c, 0, 55, 58
3, 47760, Note_on_c, 0, 50, 58
3, 47760, Note_on_c, 0, 58, 65
3, 47880, Note_on_c, 0, 58, 0
3, 47880, Note_on_c, 0, 62, 0
3, 47880, Note_on_c, 0, 55, 0
3, 47880, Note_on_c, 0, 50, 0
3, 48000, Note_on_c, 0, 31, 88
3, 48000, Note_on_c, 0, 43, 88
3, 48240, Note_on_c, 0, 58, 56
3, 48240, Note_on_c, 0, 62, 56
3, 48240, Note_on_c, 0, 50, 50
3, 48240, Note_on_c, 0, 55, 50
3, 48308, Note_on_c, 0, 55, 0
3, 48308, Note_on_c, 0, 62, 0
3, 48308, Note_on_c, 0, 58, 0
3, 48308, Note_on_c, 0, 50, 0
3, 48360, Note_on_c, 0, 62, 56
3, 48360, Note_on_c, 0, 50, 50
3, 48360, Note_on_c, 0, 58, 56
3, 48360, Note_on_c, 0, 55, 50
3, 48428, Note_on_c, 0, 55, 0
3, 48428, Note_on_c, 0, 50, 0
3, 48428, Note_on_c, 0, 62, 0
3, 48428, Note_on_c, 0, 58, 0
3, 48480, Note_on_c, 0, 62, 56
3, 48480, Note_on_c, 0, 55, 50
3, 48480, Note_on_c, 0, 58, 56
3, 48480, Note_on_c, 0, 50, 50
3, 48659, Note_on_c, 0, 62, 0
3, 48660, Note_on_c, 0, 58, 0
3, 48660, Note_on_c, 0, 55, 0
3, 48660, Note_on_c, 0, 50, 0
3, 48720, Note_on_c, 0, 31, 0
3, 48720, Note_on_c, 0, 43, 0
3, 48720, Note_on_c, 0, 50, 73
3, 48840, Note_on_c, 0, 50, 0
3, 48840, Note_on_c, 0, 53, 78
3, 48960, Note_on_c, 0, 53, 0
3, 48960, Note_on_c, 0, 55, 82
3, 48960, Note_on_c, 0, 43, 82
3, 49200, Note_on_c, 0, 62, 68
3, 49200, Note_on_c, 0, 50, 61
3, 49200, Note_on_c, 0, 58, 68
3, 49290, Note_on_c, 0, 58, 0
3, 49290, Note_on_c, 0, 62, 0
3, 49290, Note_on_c, 0, 50, 0
3, 49320, Note_on_c, 0, 62, 68
3, 49320, Note_on_c, 0, 58, 68
3, 49320, Note_on_c, 0, 50, 61
3, 49410, Note_on_c, 0, 50, 0
3, 49410, Note_on_c, 0, 62, 0
3, 49410, Note_on_c, 0, 58, 0
3, 49440, Note_on_c, 0, 58, 68
3, 49440, Note_on_c, 0, 62, 68
3, 49440, Note_on_c, 0, 50, 61
3, 49619, Note_on_c, 0, 58, 0
3, 49620, Note_on_c, 0, 62, 0
3, 49620, Note_on_c, 0, 50, 0
3, 49680, Note_on_c, 0, 43, 0
3, 49680, Note_on_c, 0, 55, 0
3, 49680, Note_on_c, 0, 46, 76
3, 49800, Note_on_c, 0, 46, 0
3, 49800, Note_on_c, 0, 50, 81
3, 49920, Note_on_c, 0, 50, 0
3, 49920, Note_on_c, 0, 53, 90
3, 49920, Note_on_c, 0, 41, 90
3, 50160, Note_on_c, 0, 58, 73
3, 50160, Note_on_c, 0, 62, 73
3, 50160, Note_on_c, 0, 50, 65
3, 50228, Note_on_c, 0, 50, 0
3, 50228, Note_on_c, 0, 58, 0
3, 50228, Note_on_c, 0, 62, 0
3, 50280, Note_on_c, 0, 50, 65
3, 50280, Note_on_c, 0, 62, 73
3, 50280, Note_on_c, 0, 58, 73
3, 50348, Note_on_c, 0, 58, 0
3, 50348, Note_on_c, 0, 50, 0
3, 50348, Note_on_c, 0, 62, 0
3, 50400, Note_on_c, 0, 50, 65
3, 50400, Note_on_c, 0, 58, 73
3, 50400, Note_on_c, 0, 62, 73
3, 50579, Note_on_c, 0, 58, 0
3, 50580, Note_on_c, 0, 50, 0
3, 50580, Note_on_c, 0, 62, 0
3, 50640, Note_on_c, 0, 41, 0
3, 50640, Note_on_c, 0, 53, 0
3, 50640, Note_on_c, 0, 46, 77
3, 50760, Note_on_c, 0, 46, 0
3, 50760, Note_on_c, 0, 50, 81
3, 50880, Note_on_c, 0, 50, 0
3, 50880, Note_on_c, 0, 51, 85
3, 50880, Note_on_c, 0, 39, 85
3, 51120, Note_on_c, 0, 60, 70
3, 51120, Note_on_c, 0, 55, 63
3, 51120, Note_on_c, 0, 57, 70
3, 51188, Note_on_c, 0, 57, 0
3, 51188, Note_on_c, 0, 60, 0
3, 51188, Note_on_c, 0, 55, 0
3, 51240, Note_on_c, 0, 55, 63
3, 51240, Note_on_c, 0, 60, 70
3, 51240, Note_on_c, 0, 57, 70
3, 51308, Note_on_c, 0, 57, 0
3, 51308, Note_on_c, 0, 55, 0
3, 51308, Note_on_c, 0, 60, 0
3, 51360, Note_on_c, 0, 57, 70
3, 51360, Note_on_c, 0, 55, 63
3, 51360, Note_on_c, 0, 60, 70
3, 51539, Note_on_c, 0, 55, 0
3, 51540, Note_on_c, 0, 57, 0
3, 51540, Note_on_c, 0, 60, 0
3, 51600, Note_on_c, 0, 39, 0
3, 51600, Note_on_c, 0, 51, 0
3, 51600, Note_on_c, 0, 43, 81
3, 51720, Note_on_c, 0, 43, 0
3, 51720, Note_on_c, 0, 45, 82
3, 51840, Note_on_c, 0, 45, 0
3, 51840, Note_on_c, 0, 38, 91
3, 51840, Note_on_c, 0, 50, 91
3, 52080, Note_on_c, 0, 57, 73
3, 52080, Note_on_c, 0, 62, 73
3, 52080, Note_on_c, 0, 54, 65
3, 52148, Note_on_c, 0, 54, 0
3, 52148, Note_on_c, 0, 57, 0
3, 52148, Note_on_c, 0, 62, 0
3, 52200, Note_on_c, 0, 62, 73
3, 52200, Note_on_c, 0, 57, 73
3, 52200, Note_on_c, 0, 54, 65
3, 52268, Note_on_c, 0, 54, 0
3, 52268, Note_on_c, 0, 62, 0
3, 52268, Note_on_c, 0, 57, 0
3, 52320, Note_on_c, 0, 57, 73
3, 52320, Note_on_c, 0, 54, 65
3, 52320, Note_on_c, 0, 62, 73
3, 52500, Note_on_c, 0, 62, 0
3, 52500, Note_on_c, 0, 57, 0
3, 52500, Note_on_c, 0, 54, 0
3, 52560, Note_on_c, 0, 50, 0
3, 52560, Note_on_c, 0, 38, 0
3, 52560, Note_on_c, 0, 48, 59
3, 52680, Note_on_c, 0, 48, 0
3, 52800, Note_on_c, 0, 38, 72
3, 52800, Note_on_c, 0, 26, 72
3, 53040, Note_on_c, 0, 54, 57
3, 53040, Note_on_c, 0, 57, 64
3, 53040, Note_on_c, 0, 60, 64
3, 53040, Note_on_c, 0, 48, 57
3, 53520, Note_on_c, 0, 48, 0
3, 53520, Note_on_c, 0, 26, 0
3, 53520, Note_on_c, 0, 54, 0
3, 53520, Note_on_c, 0, 38, 0
3, 53520, Note_on_c, 0, 60, 0
3, 53520, Note_on_c, 0, 57, 0
3, 53520, Note_on_c, 0, 47, 56
3, 53640, Note_on_c, 0, 47, 0
3, 53760, Note_on_c, 0, 38, 64
3, 53760, Note_on_c, 0, 26, 64
3, 54000, Note_on_c, 0, 51, 49
3, 54000, Note_on_c, 0, 55, 55
3, 54000, Note_on_c, 0, 59, 55
3, 54000, Note_on_c, 0, 47, 49
3, 54480, Note_on_c, 0, 47, 0
3, 54480, Note_on_c, 0, 26, 0
3, 54480, Note_on_c, 0, 51, 0
3, 54480, Note_on_c, 0, 38, 0
3, 54480, Note_on_c, 0, 59, 0
3, 54480, Note_on_c, 0, 55, 0
3, 54480, Note_on_c, 0, 46, 54
3, 54600, Note_on_c, 0, 46, 0
3, 54720, Note_on_c, 0, 26, 62
3, 54720, Note_on_c, 0, 38, 62
3, 54960, Note_on_c, 0, 46, 43
3, 54960, Note_on_c, 0, 55, 48
3, 54960, Note_on_c, 0, 58, 48
3, 54960, Note_on_c, 0, 50, 43
3, 55440, Note_on_c, 0, 50, 0
3, 55440, Note_on_c, 0, 38, 0
3, 55440, Note_on_c, 0, 46, 0
3, 55440, Note_on_c, 0, 26, 0
3, 55440, Note_on_c, 0, 58, 0
3, 55440, Note_on_c, 0, 55, 0
3, 55440, Note_on_c, 0, 45, 53
3, 55560, Note_on_c, 0, 45, 0
3, 55680, Note_on_c, 0, 26, 63
3, 55680, Note_on_c, 0, 38, 63
3, 55920, Note_on_c, 0, 50, 39
3, 55920, Note_on_c, 0, 55, 44
3, 55920, Note_on_c, 0, 57, 44
3, 55920, Note_on_c, 0, 45, 39
3, 56010, Note_on_c, 0, 45, 0
3, 56010, Note_on_c, 0, 55, 0
3, 56010, Note_on_c, 0, 50, 0
3, 56010, Note_on_c, 0, 57, 0
3, 56040, Note_on_c, 0, 45, 39
3, 56040, Note_on_c, 0, 55, 44
3, 56040, Note_on_c, 0, 57, 44
3, 56040, Note_on_c, 0, 50, 39
3, 56130, Note_on_c, 0, 50, 0
3, 56130, Note_on_c, 0, 55, 0
3, 56130, Note_on_c, 0, 45, 0
3, 56130, Note_on_c, 0, 57, 0
3, 56160, Note_on_c, 0, 45, 39
3, 56160, Note_on_c, 0, 55, 44
3, 56160, Note_on_c, 0, 50, 39
3, 56400, Note_on_c, 0, 50, 0
3, 56400, Note_on_c, 0, 45, 0
3, 56400, Note_on_c, 0, 26, 0
3, 56400, Note_on_c, 0, 38, 0
3, 56400, Note_on_c, 0, 55, 0
3, 56400, Note_on_c, 0, 45, 54
3, 56490, Note_on_c, 0, 45, 0
3, 56640, Note_on_c, 0, 26, 55
3, 56640, Note_on_c, 0, 38, 55
3, 56730, Note_on_c, 0, 38, 0
3, 56730, Note_on_c, 0, 26, 0
3, 56880, Note_on_c, 0, 44, 53
3, 56970, Note_on_c, 0, 44, 0
3, 57120, Note_on_c, 0, 38, 56
3, 57120, Note_on_c, 0, 26, 56
3, 57210, Note_on_c, 0, 26, 0
3, 57210, Note_on_c, 0, 38, 0
3, 57360, Note_on_c, 0, 43, 46
3, 57450, Note_on_c, 0, 43, 0
3, 57600, Note_on_c, 0, 38, 51
3, 57600, Note_on_c, 0, 26, 51
3, 57840, Note_on_c, 0, 45, 40
3, 57840, Note_on_c, 0, 55, 45
3, 57840, Note_on_c, 0, 50, 45
3, 57908, Note_on_c, 0, 50, 0
3, 57908, Note_on_c, 0, 45, 0
3, 57908, Note_on_c, 0, 55, 0
3, 57960, Note_on_c, 0, 50, 45
3, 57960, Note_on_c, 0, 45, 40
3, 57960, Note_on_c, 0, 55, 45
3, 58028, Note_on_c, 0, 55, 0
3, 58028, Note_on_c, 0, 50, 0
3, 58028, Note_on_c, 0, 45, 0
3, 58080, Note_on_c, 0, 50, 45
3, 58080, Note_on_c, 0, 55, 45
3, 58080, Note_on_c, 0, 45, 40
3, 58259, Note_on_c, 0, 55, 0
3, 58260, Note_on_c, 0, 50, 0
3, 58260, Note_on_c, 0, 45, 0
3, 58320, Note_on_c, 0, 26, 0
3, 58320, Note_on_c, 0, 38, 0
3, 58320, Note_on_c, 0, 43, 43
3, 58440, Note_on_c, 0, 43, 0
3, 58560, Note_on_c, 0, 38, 48
3, 58560, Note_on_c, 0, 26, 48
3, 58800, Note_on_c, 0, 50, 40
3, 58800, Note_on_c, 0, 45, 40
3, 58868, Note_on_c, 0, 45, 0
3, 58868, Note_on_c, 0, 50, 0
3, 58920, Note_on_c, 0, 45, 40
3, 58920, Note_on_c, 0, 50, 40
3, 58988, Note_on_c, 0, 50, 0
3, 58988, Note_on_c, 0, 45, 0
3, 59040, Note_on_c, 0, 45, 40
3, 59040, Note_on_c, 0, 50, 40
3, 59220, Note_on_c, 0, 50, 0
3, 59220, Note_on_c, 0, 45, 0
3, 59280, Note_on_c, 0, 26, 0
3, 59280, Note_on_c, 0, 38, 0
3, 59280, Note_on_c, 0, 42, 36
3, 59400, Note_on_c, 0, 42, 0
3, 59520, Note_on_c, 0, 26, 46
3, 59520, Note_on_c, 0, 38, 46
3, 59760, Note_on_c, 0, 45, 31
3, 59760, Note_on_c, 0, 50, 31
3, 59828, Note_on_c, 0, 50, 0
3, 59828, Note_on_c, 0, 45, 0
3, 59880, Note_on_c, 0, 45, 31
3, 59880, Note_on_c, 0, 50, 31
3, 59948, Note_on_c, 0, 50, 0
3, 59948, Note_on_c, 0, 45, 0
3, 60000, Note_on_c, 0, 45, 31
3, 60000, Note_on_c, 0, 50, 31
3, 60180, Note_on_c, 0, 50, 0
3, 60180, Note_on_c, 0, 45, 0
3, 60240, Note_on_c, 0, 38, 0
3, 60240, Note_on_c, 0, 26, 0
3, 60240, Note_on_c, 0, 45, 39
3, 60360, Note_on_c, 0, 45, 0
3, 60480, Note_on_c, 0, 38, 45
3, 61200, Note_on_c, 0, 38, 0
3, 61200, Note_on_c, 0, 45, 37
3, 61320, Note_on_c, 0, 45, 0
3, 61440, Note_on_c, 0, 38, 44
3, 62160, Note_on_c, 0, 38, 0
3, 62160, Note_on_c, 0, 45, 36
3, 62280, Note_on_c, 0, 45, 0
3, 62400, Note_on_c, 0, 38, 43
3, 63120, Note_on_c, 0, 38, 0
3, 63120, Note_on_c, 0, 38, 31
3, 63120, Note_on_c, 0, 26, 31
3, 63210, Note_on_c, 0, 26, 0
3, 63210, Note_on_c, 0, 38, 0
3, 63240, Note_on_c, 0, 26, 31
3, 63240, Note_on_c, 0, 38, 31
3, 63330, Note_on_c, 0, 38, 0
3, 63330, Note_on_c, 0, 26, 0
3, 63360, Note_on_c, 0, 26, 30
3, 63360, Control_c, 0, 91, 127
3, 63360, Note_on_c, 0, 38, 30
3, 63440, Note_on_c, 0, 38, 0
3, 63440, Note_on_c, 0, 26, 0
3, 63440, Note_on_c, 0, 45, 32
3, 63520, Note_on_c, 0, 45, 0
3, 63520, Note_on_c, 0, 50, 35
3, 63600, Note_on_c, 0, 50, 0
3, 63600, Note_on_c, 0, 54, 36
3, 63680, Note_on_c, 0, 54, 0
3, 63680, Note_on_c, 0, 60, 39
3, 63760, Note_on_c, 0, 60, 0
3, 63760, Note_on_c, 0, 62, 41
3, 63840, Note_on_c, 0, 62, 0
3, 63840, Note_on_c, 0, 66, 44
3, 63920, Note_on_c, 0, 66, 0
3, 63920, Note_on_c, 0, 62, 43
3, 64000, Note_on_c, 0, 62, 0
3, 64000, Note_on_c, 0, 60, 41
3, 64080, Note_on_c, 0, 60, 0
3, 64080, Note_on_c, 0, 54, 39
3, 64160, Note_on_c, 0, 54, 0
3, 64160, Note_on_c, 0, 50, 38
3, 64240, Note_on_c, 0, 50, 0
3, 64240, Note_on_c, 0, 45, 36
3, 64320, Note_on_c, 0, 45, 0
3, 64320, Note_on_c, 0, 38, 35
3, 64400, Note_on_c, 0, 38, 0
3, 64400, Note_on_c, 0, 45, 36
3, 64480, Note_on_c, 0, 45, 0
3, 64480, Note_on_c, 0, 50, 36
3, 64560, Note_on_c, 0, 50, 0
3, 64560, Note_on_c, 0, 54, 38
3, 64640, Note_on_c, 0, 54, 0
3, 64640, Note_on_c, 0, 60, 39
3, 64720, Note_on_c, 0, 60, 0
3, 64720, Note_on_c, 0, 62, 40
3, 64800, Note_on_c, 0, 62, 0
3, 64800, Note_on_c, 0, 66, 43
3, 64880, Note_on_c, 0, 66, 0
3, 64880, Note_on_c, 0, 62, 41
3, 64960, Note_on_c, 0, 62, 0
3, 64960, Note_on_c, 0, 60, 40
3, 65040, Note_on_c, 0, 60, 0
3, 65040, Note_on_c, 0, 54, 38
3, 65120, Note_on_c, 0, 54, 0
3, 65120, Note_on_c, 0, 50, 37
3, 65200, Note_on_c, 0, 50, 0
3, 65200, Note_on_c, 0, 45, 36
3, 65280, Note_on_c, 0, 45, 0
3, 65280, Note_on_c, 0, 38, 33
3, 65360, Note_on_c, 0, 38, 0
3, 65360, Note_on_c, 0, 45, 35
3, 65440, Note_on_c, 0, 45, 0
3, 65440, Note_on_c, 0, 50, 36
3, 65520, Note_on_c, 0, 50, 0
3, 65520, Note_on_c, 0, 55, 37
3, 65600, Note_on_c, 0, 55, 0
3, 65600, Note_on_c, 0, 60, 39
3, 65680, Note_on_c, 0, 60, 0
3, 65680, Note_on_c, 0, 63, 40
3, 65760, Note_on_c, 0, 63, 0
3, 65760, Note_on_c, 0, 67, 39
3, 65840, Note_on_c, 0, 67, 0
3, 65840, Note_on_c, 0, 63, 38
3, 65920, Note_on_c, 0, 63, 0
3, 65920, Note_on_c, 0, 60, 37
3, 66000, Note_on_c, 0, 60, 0
3, 66000, Note_on_c, 0, 55, 36
3, 66080, Note_on_c, 0, 55, 0
3, 66080, Note_on_c, 0, 50, 35
3, 66160, Note_on_c, 0, 50, 0
3, 66160, Note_on_c, 0, 45, 34
3, 66240, Note_on_c, 0, 45, 0
3, 66240, Note_on_c, 0, 38, 35
3, 66320, Note_on_c, 0, 38, 0
3, 66320, Note_on_c, 0, 45, 35
3, 66400, Note_on_c, 0, 45, 0
3, 66400, Note_on_c, 0, 50, 35
3, 66480, Note_on_c, 0, 50, 0
3, 66480, Note_on_c, 0, 54, 35
3, 66560, Note_on_c, 0, 54, 0
3, 66560, Note_on_c, 0, 60, 35
3, 66640, Note_on_c, 0, 60, 0
3, 66640, Note_on_c, 0, 62, 35
3, 66720, Note_on_c, 0, 62, 0
3, 66720, Note_on_c, 0, 66, 34
3, 66800, Note_on_c, 0, 66, 0
3, 66800, Note_on_c, 0, 62, 34
3, 66880, Note_on_c, 0, 62, 0
3, 66880, Note_on_c, 0, 60, 33
3, 66960, Note_on_c, 0, 60, 0
3, 66960, Note_on_c, 0, 54, 32
3, 67040, Note_on_c, 0, 54, 0
3, 67040, Note_on_c, 0, 50, 31
3, 67120, Note_on_c, 0, 50, 0
3, 67120, Note_on_c, 0, 45, 31
3, 67200, Note_on_c, 0, 45, 0
3, 67200, Note_on_c, 0, 38, 35
3, 67200, Control_c, 0, 91, 127
3, 67200, Note_on_c, 0, 26, 35
3, 67280, Note_on_c, 0, 26, 0
3, 67280, Note_on_c, 0, 38, 0
3, 67280, Note_on_c, 0, 45, 36
3, 67360, Note_on_c, 0, 45, 0
3, 67360, Note_on_c, 0, 50, 37
3, 67440, Note_on_c, 0, 50, 0
3, 67440, Note_on_c, 0, 54, 39
3, 67520, Note_on_c, 0, 54, 0
3, 67520, Note_on_c, 0, 60, 41
3, 67600, Note_on_c, 0, 60, 0
3, 67600, Note_on_c, 0, 62, 43
3, 67680, Note_on_c, 0, 62, 0
3, 67680, Note_on_c, 0, 66, 44
3, 67760, Note_on_c, 0, 66, 0
3, 67760, Note_on_c, 0, 62, 43
3, 67840, Note_on_c, 0, 62, 0
3, 67840, Note_on_c, 0, 60, 41
3, 67920, Note_on_c, 0, 60, 0
3, 67920, Note_on_c, 0, 54, 39
3, 68000, Note_on_c, 0, 54, 0
3, 68000, Note_on_c, 0, 50, 38
3, 68080, Note_on_c, 0, 50, 0
3, 68080, Note_on_c, 0, 45, 36
3, 68160, Note_on_c, 0, 45, 0
3, 68160, Note_on_c, 0, 38, 35
3, 68240, Note_on_c, 0, 38, 0
3, 68240, Note_on_c, 0, 45, 36
3, 68320, Note_on_c, 0, 45, 0
3, 68320, Note_on_c, 0, 50, 36
3, 68400, Note_on_c, 0, 50, 0
3, 68400, Note_on_c, 0, 55, 38
3, 68480, Note_on_c, 0, 55, 0
3, 68480, Note_on_c, 0, 60, 39
3, 68560, Note_on_c, 0, 60, 0
3, 68560, Note_on_c, 0, 63, 40
3, 68640, Note_on_c, 0, 63, 0
3, 68640, Note_on_c, 0, 67, 43
3, 68720, Note_on_c, 0, 67, 0
3, 68720, Note_on_c, 0, 63, 41
3, 68800, Note_on_c, 0, 63, 0
3, 68800, Note_on_c, 0, 60, 40
3, 68880, Note_on_c, 0, 60, 0
3, 68880, Note_on_c, 0, 55, 38
3, 68960, Note_on_c, 0, 55, 0
3, 68960, Note_on_c, 0, 50, 37
3, 69040, Note_on_c, 0, 50, 0
3, 69040, Note_on_c, 0, 45, 36
3, 69120, Note_on_c, 0, 45, 0
3, 69120, Note_on_c, 0, 38, 33
3, 69200, Note_on_c, 0, 38, 0
3, 69200, Note_on_c, 0, 45, 35
3, 69280, Note_on_c, 0, 45, 0
3, 69280, Note_on_c, 0, 55, 36
3, 69360, Note_on_c, 0, 55, 0
3, 69360, Note_on_c, 0, 57, 37
3, 69440, Note_on_c, 0, 57, 0
3, 69440, Note_on_c, 0, 58, 39
3, 69520, Note_on_c, 0, 58, 0
3, 69520, Note_on_c, 0, 61, 40
3, 69600, Note_on_c, 0, 61, 0
3, 69600, Note_on_c, 0, 67, 40
3, 69680, Note_on_c, 0, 67, 0
3, 69680, Note_on_c, 0, 61, 39
3, 69760, Note_on_c, 0, 61, 0
3, 69760, Note_on_c, 0, 58, 38
3, 69840, Note_on_c, 0, 58, 0
3, 69840, Note_on_c, 0, 55, 37
3, 69920, Note_on_c, 0, 55, 0
3, 69920, Note_on_c, 0, 45, 36
3, 70000, Note_on_c, 0, 45, 0
3, 70000, Note_on_c, 0, 38, 35
3, 70160, Note_on_c, 0, 38, 0
3, 70160, Note_on_c, 0, 45, 35
3, 70240, Note_on_c, 0, 45, 0
3, 70240, Note_on_c, 0, 50, 35
3, 70320, Note_on_c, 0, 50, 0
3, 70320, Note_on_c, 0, 54, 35
3, 70400, Note_on_c, 0, 54, 0
3, 70400, Note_on_c, 0, 60, 35
3, 70480, Note_on_c, 0, 60, 0
3, 70480, Note_on_c, 0, 62, 35
3, 70560, Note_on_c, 0, 62, 0
3, 70560, Note_on_c, 0, 65, 34
3, 70640, Note_on_c, 0, 65, 0
3, 70640, Note_on_c, 0, 62, 34
3, 70720, Note_on_c, 0, 62, 0
3, 70720, Note_on_c, 0, 60, 33
3, 70800, Note_on_c, 0, 60, 0
3, 70800, Note_on_c, 0, 54, 32
3, 70880, Note_on_c, 0, 54, 0
3, 70880, Note_on_c, 0, 50, 32
3, 70960, Note_on_c, 0, 50, 0
3, 70960, Note_on_c, 0, 45, 31
3, 71040, Note_on_c, 0, 45, 0
3, 71040, Note_on_c, 0, 43, 30
3, 71120, Note_on_c, 0, 43, 0
3, 71120, Note_on_c, 0, 50, 33
3, 71200, Note_on_c, 0, 50, 0
3, 71200, Note_on_c, 0, 55, 36
3, 71280, Note_on_c, 0, 55, 0
3, 71280, Note_on_c, 0, 58, 38
3, 71360, Note_on_c, 0, 58, 0
3, 71360, Note_on_c, 0, 62, 41
3, 71440, Note_on_c, 0, 62, 0
3, 71440, Note_on_c, 0, 67, 44
3, 71520, Note_on_c, 0, 67, 0
3, 71520, Note_on_c, 0, 70, 45
3, 71600, Note_on_c, 0, 67, 45
3, 71680, Note_on_c, 0, 67, 0
3, 71680, Note_on_c, 0, 62, 43
3, 71760, Note_on_c, 0, 62, 0
3, 71760, Note_on_c, 0, 70, 0
3, 71760, Note_on_c, 0, 58, 43
3, 71840, Note_on_c, 0, 58, 0
3, 71840, Note_on_c, 0, 55, 41
3, 71920, Note_on_c, 0, 55, 0
3, 71920, Note_on_c, 0, 50, 40
3, 72000, Note_on_c, 0, 50, 0
3, 72000, Note_on_c, 0, 41, 39
3, 72080, Note_on_c, 0, 41, 0
3, 72080, Note_on_c, 0, 50, 40
3, 72160, Note_on_c, 0, 50, 0
3, 72160, Note_on_c, 0, 55, 42
3, 72240, Note_on_c, 0, 55, 0
3, 72240, Note_on_c, 0, 57, 43
3, 72320, Note_on_c, 0, 57, 0
3, 72320, Note_on_c, 0, 58, 45
3, 72400, Note_on_c, 0, 58, 0
3, 72400, Note_on_c, 0, 62, 45
3, 72480, Note_on_c, 0, 62, 0
3, 72480, Note_on_c, 0, 67, 47
3, 72560, Note_on_c, 0, 67, 0
3, 72560, Note_on_c, 0, 62, 46
3, 72640, Note_on_c, 0, 62, 0
3, 72640, Note_on_c, 0, 57, 45
3, 72720, Note_on_c, 0, 57, 0
3, 72720, Note_on_c, 0, 55, 44
3, 72800, Note_on_c, 0, 55, 0
3, 72800, Note_on_c, 0, 50, 43
3, 72880, Note_on_c, 0, 50, 0
3, 72880, Note_on_c, 0, 41, 42
3, 72960, Note_on_c, 0, 41, 0
3, 72960, Note_on_c, 0, 39, 43
3, 73040, Note_on_c, 0, 39, 0
3, 73040, Note_on_c, 0, 46, 45
3, 73120, Note_on_c, 0, 46, 0
3, 73120, Note_on_c, 0, 55, 45
3, 73200, Note_on_c, 0, 55, 0
3, 73200, Note_on_c, 0, 58, 47
3, 73280, Note_on_c, 0, 58, 0
3, 73280, Note_on_c, 0, 63, 48
3, 73360, Note_on_c, 0, 63, 0
3, 73360, Note_on_c, 0, 65, 50
3, 73440, Note_on_c, 0, 65, 0
3, 73440, Note_on_c, 0, 67, 51
3, 73520, Note_on_c, 0, 67, 0
3, 73520, Note_on_c, 0, 63, 51
3, 73600, Note_on_c, 0, 63, 0
3, 73600, Note_on_c, 0, 58, 50
3, 73680, Note_on_c, 0, 58, 0
3, 73680, Note_on_c, 0, 55, 49
3, 73760, Note_on_c, 0, 55, 0
3, 73760, Note_on_c, 0, 46, 48
3, 73840, Note_on_c, 0, 46, 0
3, 73840, Note_on_c, 0, 39, 47
3, 73920, Note_on_c, 0, 39, 0
3, 73920, Note_on_c, 0, 38, 44
3, 74000, Note_on_c, 0, 38, 0
3, 74000, Note_on_c, 0, 46, 45
3, 74080, Note_on_c, 0, 46, 0
3, 74080, Note_on_c, 0, 55, 46
3, 74160, Note_on_c, 0, 55, 0
3, 74160, Note_on_c, 0, 57, 47
3, 74240, Note_on_c, 0, 57, 0
3, 74240, Note_on_c, 0, 58, 49
3, 74320, Note_on_c, 0, 58, 0
3, 74320, Note_on_c, 0, 67, 50
3, 74400, Note_on_c, 0, 67, 0
3, 74400, Note_on_c, 0, 37, 49
3, 74480, Note_on_c, 0, 37, 0
3, 74480, Note_on_c, 0, 45, 46
3, 74560, Note_on_c, 0, 45, 0
3, 74560, Note_on_c, 0, 55, 44
3, 74640, Note_on_c, 0, 55, 0
3, 74640, Note_on_c, 0, 57, 41
3, 74720, Note_on_c, 0, 57, 0
3, 74720, Note_on_c, 0, 67, 38
3, 74800, Note_on_c, 0, 67, 0
3, 74800, Note_on_c, 0, 69, 36
3, 74880, Note_on_c, 0, 69, 0
3, 74880, Note_on_c, 0, 38, 32
3, 74960, Note_on_c, 0, 38, 0
3, 74960, Note_on_c, 0, 45, 33
3, 75040, Note_on_c, 0, 45, 0
3, 75040, Note_on_c, 0, 50, 35
3, 75120, Note_on_c, 0, 50, 0
3, 75120, Note_on_c, 0, 55, 36
3, 75200, Note_on_c, 0, 55, 0
3, 75200, Note_on_c, 0, 57, 37
3, 75280, Note_on_c, 0, 57, 0
3, 75280, Note_on_c, 0, 62, 38
3, 75360, Note_on_c, 0, 62, 0
3, 75360, Note_on_c, 0, 54, 40
3, 75440, Note_on_c, 0, 54, 0
3, 75440, Note_on_c, 0, 57, 36
3, 75520, Note_on_c, 0, 57, 0
3, 75520, Note_on_c, 0, 62, 36
3, 75600, Note_on_c, 0, 62, 0
3, 75600, Note_on_c, 0, 66, 36
3, 75680, Note_on_c, 0, 66, 0
3, 75680, Note_on_c, 0, 64, 36
3, 75760, Note_on_c, 0, 64, 0
3, 75760, Note_on_c, 0, 66, 36
3, 75840, Note_on_c, 0, 66, 0
3, 75840, Note_on_c, 0, 64, 36
3, 75920, Note_on_c, 0, 64, 0
3, 75920, Note_on_c, 0, 62, 36
3, 76000, Note_on_c, 0, 62, 0
3, 76000, Note_on_c, 0, 64, 36
3, 76080, Note_on_c, 0, 64, 0
3, 76080, Note_on_c, 0, 62, 36
3, 76160, Note_on_c, 0, 62, 0
3, 76160, Note_on_c, 0, 57, 36
3, 76240, Note_on_c, 0, 57, 0
3, 76240, Note_on_c, 0, 62, 36
3, 76320, Note_on_c, 0, 62, 0
3, 76320, Note_on_c, 0, 57, 49
3, 76400, Note_on_c, 0, 55, 35
3, 76480, Note_on_c, 0, 55, 0
3, 76480, Note_on_c, 0, 52, 35
3, 76560, Note_on_c, 0, 52, 0
3, 76560, Note_on_c, 0, 57, 0
3, 76560, Note_on_c, 0, 58, 49
3, 76640, Note_on_c, 0, 55, 35
3, 76720, Note_on_c, 0, 55, 0
3, 76720, Note_on_c, 0, 52, 35
3, 76800, Note_on_c, 0, 52, 0
3, 76800, Note_on_c, 0, 58, 0
3, 76800, Note_on_c, 0, 38, 35
3, 76880, Note_on_c, 0, 38, 0
3, 76880, Note_on_c, 0, 45, 36
3, 76960, Note_on_c, 0, 45, 0
3, 76960, Note_on_c, 0, 50, 36
3, 77040, Note_on_c, 0, 50, 0
3, 77040, Note_on_c, 0, 54, 37
3, 77120, Note_on_c, 0, 54, 0
3, 77120, Note_on_c, 0, 60, 39
3, 77200, Note_on_c, 0, 60, 0
3, 77200, Note_on_c, 0, 62, 40
3, 77280, Note_on_c, 0, 62, 0
3, 77280, Note_on_c, 0, 66, 42
3, 77360, Note_on_c, 0, 62, 40
3, 77440, Note_on_c, 0, 62, 0
3, 77440, Note_on_c, 0, 60, 39
3, 77520, Note_on_c, 0, 60, 0
3, 77520, Note_on_c, 0, 54, 38
3, 77600, Note_on_c, 0, 54, 0
3, 77600, Note_on_c, 0, 50, 36
3, 77680, Note_on_c, 0, 50, 0
3, 77680, Note_on_c, 0, 45, 36
3, 77760, Note_on_c, 0, 45, 0
3, 77760, Note_on_c, 0, 66, 0
3, 77760, Note_on_c, 0, 38, 35
3, 77840, Note_on_c, 0, 38, 0
3, 77840, Note_on_c, 0, 45, 37
3, 77920, Note_on_c, 0, 45, 0
3, 77920, Note_on_c, 0, 50, 41
3, 78000, Note_on_c, 0, 50, 0
3, 78000, Note_on_c, 0, 62, 51
3, 78080, Note_on_c, 0, 60, 37
3, 78160, Note_on_c, 0, 60, 0
3, 78160, Note_on_c, 0, 54, 37
3, 78240, Note_on_c, 0, 54, 0
3, 78240, Note_on_c, 0, 62, 0
3, 78240, Note_on_c, 0, 64, 53
3, 78320, Note_on_c, 0, 60, 36
3, 78400, Note_on_c, 0, 60, 0
3, 78400, Note_on_c, 0, 54, 36
3, 78480, Note_on_c, 0, 54, 0
3, 78480, Note_on_c, 0, 64, 0
3, 78480, Note_on_c, 0, 66, 55
3, 78560, Note_on_c, 0, 60, 36
3, 78640, Note_on_c, 0, 60, 0
3, 78640, Note_on_c, 0, 54, 36
3, 78720, Note_on_c, 0, 54, 0
3, 78720, Note_on_c, 0, 66, 0
3, 78720, Note_on_c, 0, 38, 57
3, 78720, Note_on_c, 0, 67, 57
3, 78800, Note_on_c, 0, 38, 0
3, 78800, Note_on_c, 0, 45, 36
3, 78880, Note_on_c, 0, 45, 0
3, 78880, Note_on_c, 0, 50, 36
3, 78960, Note_on_c, 0, 50, 0
3, 78960, Note_on_c, 0, 55, 36
3, 79040, Note_on_c, 0, 55, 0
3, 79040, Note_on_c, 0, 60, 36
3, 79120, Note_on_c, 0, 60, 0
3, 79120, Note_on_c, 0, 63, 36
3, 79200, Note_on_c, 0, 63, 0
3, 79200, Note_on_c, 0, 67, 0
3, 79200, Note_on_c, 0, 66, 52
3, 79280, Note_on_c, 0, 63, 36
3, 79360, Note_on_c, 0, 63, 0
3, 79360, Note_on_c, 0, 60, 36
3, 79440, Note_on_c, 0, 60, 0
3, 79440, Note_on_c, 0, 66, 0
3, 79440, Note_on_c, 0, 55, 36
3, 79520, Note_on_c, 0, 55, 0
3, 79520, Note_on_c, 0, 50, 36
3, 79600, Note_on_c, 0, 50, 0
3, 79600, Note_on_c, 0, 45, 36
3, 79680, Note_on_c, 0, 45, 0
3, 79680, Note_on_c, 0, 38, 36
3, 79760, Note_on_c, 0, 38, 0
3, 79760, Note_on_c, 0, 45, 36
3, 79840, Note_on_c, 0, 45, 0
3, 79840, Note_on_c, 0, 50, 36
3, 79900, Note_on_c, 0, 50, 0
3, 79920, Note_on_c, 0, 50, 36
3, 80000, Note_on_c, 0, 50, 0
3, 80000, Note_on_c, 0, 57, 36
3, 80080, Note_on_c, 0, 57, 0
3, 80080, Note_on_c, 0, 62, 36
3, 80160, Note_on_c, 0, 62, 0
3, 80160, Note_on_c, 0, 57, 50
3, 80240, Note_on_c, 0, 54, 36
3, 80320, Note_on_c, 0, 54, 0
3, 80320, Note_on_c, 0, 50, 36
3, 80400, Note_on_c, 0, 50, 0
3, 80400, Note_on_c, 0, 57, 0
3, 80400, Note_on_c, 0, 58, 54
3, 80480, Note_on_c, 0, 54, 36
3, 80560, Note_on_c, 0, 54, 0
3, 80560, Note_on_c, 0, 50, 36
3, 80640, Note_on_c, 0, 50, 0
3, 80640, Note_on_c, 0, 58, 0
3, 80640, Note_on_c, 0, 38, 35
3, 80720, Note_on_c, 0, 38, 0
3, 80720, Note_on_c, 0, 45, 36
3, 80800, Note_on_c, 0, 45, 0
3, 80800, Note_on_c, 0, 50, 36
3, 80880, Note_on_c, 0, 50, 0
3, 80880, Note_on_c, 0, 54, 37
3, 80960, Note_on_c, 0, 54, 0
3, 80960, Note_on_c, 0, 60, 39
3, 81040, Note_on_c, 0, 60, 0
3, 81040, Note_on_c, 0, 62, 40
3, 81120, Note_on_c, 0, 62, 0
3, 81120, Note_on_c, 0, 66, 42
3, 81200, Note_on_c, 0, 62, 40
3, 81280, Note_on_c, 0, 62, 0
3, 81280, Note_on_c, 0, 60, 39
3, 81360, Note_on_c, 0, 60, 0
3, 81360, Note_on_c, 0, 54, 38
3, 81440, Note_on_c, 0, 54, 0
3, 81440, Note_on_c, 0, 50, 36
3, 81520, Note_on_c, 0, 50, 0
3, 81520, Note_on_c, 0, 45, 36
3, 81600, Note_on_c, 0, 45, 0
3, 81600, Note_on_c, 0, 66, 0
3, 81600, Note_on_c, 0, 38, 35
3, 81680, Note_on_c, 0, 38, 0
3, 81680, Note_on_c, 0, 45, 37
3, 81760, Note_on_c, 0, 45, 0
3, 81760, Note_on_c, 0, 55, 41
3, 81840, Note_on_c, 0, 55, 0
3, 81840, Note_on_c, 0, 62, 52
3, 81920, Note_on_c, 0, 60, 37
3, 82000, Note_on_c, 0, 60, 0
3, 82000, Note_on_c, 0, 55, 37
3, 82080, Note_on_c, 0, 55, 0
3, 82080, Note_on_c, 0, 62, 0
3, 82080, Note_on_c, 0, 63, 53
3, 82160, Note_on_c, 0, 60, 36
3, 82240, Note_on_c, 0, 60, 0
3, 82240, Note_on_c, 0, 55, 36
3, 82320, Note_on_c, 0, 55, 0
3, 82320, Note_on_c, 0, 63, 0
3, 82320, Note_on_c, 0, 65, 53
3, 82400, Note_on_c, 0, 60, 36
3, 82480, Note_on_c, 0, 60, 0
3, 82480, Note_on_c, 0, 55, 36
3, 82560, Note_on_c, 0, 55, 0
3, 82560, Note_on_c, 0, 65, 0
3, 82560, Note_on_c, 0, 67, 56
3, 82560, Note_on_c, 0, 38, 51
3, 82640, Note_on_c, 0, 38, 0
3, 82640, Note_on_c, 0, 45, 36
3, 82720, Note_on_c, 0, 45, 0
3, 82720, Note_on_c, 0, 55, 36
3, 82800, Note_on_c, 0, 55, 0
3, 82800, Note_on_c, 0, 57, 36
3, 82880, Note_on_c, 0, 57, 0
3, 82880, Note_on_c, 0, 58, 36
3, 82960, Note_on_c, 0, 58, 0
3, 82960, Note_on_c, 0, 61, 36
3, 83040, Note_on_c, 0, 61, 0
3, 83040, Note_on_c, 0, 67, 0
3, 83040, Note_on_c, 0, 66, 51
3, 83120, Note_on_c, 0, 61, 36
3, 83200, Note_on_c, 0, 61, 0
3, 83200, Note_on_c, 0, 58, 36
3, 83280, Note_on_c, 0, 58, 0
3, 83280, Note_on_c, 0, 66, 0
3, 83280, Note_on_c, 0, 55, 36
3, 83360, Note_on_c, 0, 55, 0
3, 83360, Note_on_c, 0, 45, 36
3, 83440, Note_on_c, 0, 45, 0
3, 83440, Note_on_c, 0, 38, 36
3, 83600, Note_on_c, 0, 38, 0
3, 83600, Note_on_c, 0, 45, 36
3, 83680, Note_on_c, 0, 45, 0
3, 83680, Note_on_c, 0, 50, 36
3, 83760, Note_on_c, 0, 50, 0
3, 83760, Note_on_c, 0, 50, 37
3, 83840, Note_on_c, 0, 50, 0
3, 83840, Note_on_c, 0, 57, 38
3, 83920, Note_on_c, 0, 57, 0
3, 83920, Note_on_c, 0, 62, 39
3, 84000, Note_on_c, 0, 62, 0
3, 84000, Note_on_c, 0, 60, 40
3, 84080, Note_on_c, 0, 60, 0
3, 84080, Note_on_c, 0, 57, 39
3, 84160, Note_on_c, 0, 57, 0
3, 84160, Note_on_c, 0, 50, 38
3, 84220, Note_on_c, 0, 50, 0
3, 84240, Note_on_c, 0, 50, 37
3, 84320, Note_on_c, 0, 50, 0
3, 84320, Note_on_c, 0, 38, 36
3, 84400, Note_on_c, 0, 38, 0
3, 84400, Note_on_c, 0, 50, 36
3, 84480, Note_on_c, 0, 50, 0
3, 84480, Note_on_c, 0, 43, 35
3, 84560, Note_on_c, 0, 43, 0
3, 84560, Note_on_c, 0, 50, 36
3, 84640, Note_on_c, 0, 50, 0
3, 84640, Note_on_c, 0, 55, 36
3, 84720, Note_on_c, 0, 55, 0
3, 84720, Note_on_c, 0, 58, 37
3, 84800, Note_on_c, 0, 58, 0
3, 84800, Note_on_c, 0, 62, 38
3, 84880, Note_on_c, 0, 62, 0
3, 84880, Note_on_c, 0, 67, 39
3, 84960, Note_on_c, 0, 67, 0
3, 84960, Note_on_c, 0, 70, 41
3, 85040, Note_on_c, 0, 67, 40
3, 85120, Note_on_c, 0, 67, 0
3, 85120, Note_on_c, 0, 62, 38
3, 85200, Note_on_c, 0, 62, 0
3, 85200, Note_on_c, 0, 70, 0
3, 85200, Note_on_c, 0, 58, 37
3, 85280, Note_on_c, 0, 58, 0
3, 85280, Note_on_c, 0, 55, 36
3, 85360, Note_on_c, 0, 55, 0
3, 85360, Note_on_c, 0, 50, 35
3, 85440, Note_on_c, 0, 50, 0
3, 85440, Note_on_c, 0, 41, 35
3, 85520, Note_on_c, 0, 41, 0
3, 85520, Note_on_c, 0, 50, 36
3, 85600, Note_on_c, 0, 50, 0
3, 85600, Note_on_c, 0, 55, 37
3, 85680, Note_on_c, 0, 55, 0
3, 85680, Note_on_c, 0, 56, 39
3, 85760, Note_on_c, 0, 56, 0
3, 85760, Note_on_c, 0, 58, 40
3, 85840, Note_on_c, 0, 58, 0
3, 85840, Note_on_c, 0, 62, 42
3, 85920, Note_on_c, 0, 62, 0
3, 85920, Note_on_c, 0, 68, 42
3, 86000, Note_on_c, 0, 68, 0
3, 86000, Note_on_c, 0, 63, 41
3, 86080, Note_on_c, 0, 63, 0
3, 86080, Note_on_c, 0, 58, 39
3, 86160, Note_on_c, 0, 58, 0
3, 86160, Note_on_c, 0, 62, 38
3, 86240, Note_on_c, 0, 62, 0
3, 86240, Note_on_c, 0, 56, 36
3, 86320, Note_on_c, 0, 56, 0
3, 86320, Note_on_c, 0, 46, 36
3, 86400, Note_on_c, 0, 46, 0
3, 86400, Note_on_c, 0, 39, 36
3, 86480, Note_on_c, 0, 39, 0
3, 86480, Note_on_c, 0, 46, 37
3, 86560, Note_on_c, 0, 46, 0
3, 86560, Note_on_c, 0, 55, 39
3, 86640, Note_on_c, 0, 55, 0
3, 86640, Note_on_c, 0, 58, 40
3, 86720, Note_on_c, 0, 58, 0
3, 86720, Note_on_c, 0, 63, 42
3, 86800, Note_on_c, 0, 63, 0
3, 86800, Note_on_c, 0, 65, 43
3, 86880, Note_on_c, 0, 65, 0
3, 86880, Note_on_c, 0, 67, 59
3, 86960, Note_on_c, 0, 63, 44
3, 87040, Note_on_c, 0, 63, 0
3, 87040, Note_on_c, 0, 58, 42
3, 87120, Note_on_c, 0, 58, 0
3, 87120, Note_on_c, 0, 55, 40
3, 87200, Note_on_c, 0, 55, 0
3, 87200, Note_on_c, 0, 46, 38
3, 87280, Note_on_c, 0, 46, 0
3, 87280, Note_on_c, 0, 39, 36
3, 87360, Note_on_c, 0, 39, 0
3, 87360, Note_on_c, 0, 40, 36
3, 87440, Note_on_c, 0, 40, 0
3, 87440, Note_on_c, 0, 55, 37
3, 87520, Note_on_c, 0, 55, 0
3, 87520, Note_on_c, 0, 62, 40
3, 87520, Note_on_c, 0, 58, 40
3, 87600, Note_on_c, 0, 58, 0
3, 87600, Note_on_c, 0, 62, 0
3, 87600, Note_on_c, 0, 67, 0
3, 87600, Note_on_c, 0, 69, 61
3, 87680, Note_on_c, 0, 67, 43
3, 87760, Note_on_c, 0, 67, 0
3, 87760, Note_on_c, 0, 62, 41
3, 87840, Note_on_c, 0, 62, 0
3, 87840, Note_on_c, 0, 69, 0
3, 87840, Note_on_c, 0, 70, 68
3, 87920, Note_on_c, 0, 67, 44
3, 88000, Note_on_c, 0, 67, 0
3, 88000, Note_on_c, 0, 62, 43
3, 88080, Note_on_c, 0, 62, 0
3, 88080, Note_on_c, 0, 70, 0
3, 88080, Note_on_c, 0, 72, 59
3, 88160, Note_on_c, 0, 67, 41
3, 88240, Note_on_c, 0, 67, 0
3, 88240, Note_on_c, 0, 62, 36
3, 88320, Note_on_c, 0, 62, 0
3, 88320, Note_on_c, 0, 72, 0
3, 88320, Note_on_c, 0, 33, 31
3, 88400, Note_on_c, 0, 33, 0
3, 88400, Note_on_c, 0, 45, 32
3, 88480, Note_on_c, 0, 45, 0
3, 88480, Note_on_c, 0, 54, 35
3, 88560, Note_on_c, 0, 54, 0
3, 88560, Note_on_c, 0, 57, 37
3, 88640, Note_on_c, 0, 57, 0
3, 88640, Note_on_c, 0, 62, 39
3, 88720, Note_on_c, 0, 62, 0
3, 88720, Note_on_c, 0, 64, 41
3, 88800, Note_on_c, 0, 64, 0
3, 88800, Note_on_c, 0, 66, 42
3, 88880, Note_on_c, 0, 66, 0
3, 88880, Note_on_c, 0, 62, 41
3, 88960, Note_on_c, 0, 62, 0
3, 88960, Note_on_c, 0, 57, 40
3, 89040, Note_on_c, 0, 57, 0
3, 89040, Note_on_c, 0, 54, 39
3, 89120, Note_on_c, 0, 54, 0
3, 89120, Note_on_c, 0, 45, 37
3, 89200, Note_on_c, 0, 45, 0
3, 89200, Note_on_c, 0, 33, 36
3, 89360, Note_on_c, 0, 33, 0
3, 89360, Note_on_c, 0, 45, 34
3, 89440, Note_on_c, 0, 45, 0
3, 89440, Note_on_c, 0, 54, 36
3, 89520, Note_on_c, 0, 54, 0
3, 89520, Note_on_c, 0, 57, 37
3, 89600, Note_on_c, 0, 57, 0
3, 89600, Note_on_c, 0, 59, 38
3, 89680, Note_on_c, 0, 59, 0
3, 89680, Note_on_c, 0, 63, 40
3, 89760, Note_on_c, 0, 63, 0
3, 89760, Note_on_c, 0, 66, 41
3, 89840, Note_on_c, 0, 66, 0
3, 89840, Note_on_c, 0, 63, 40
3, 89920, Note_on_c, 0, 63, 0
3, 89920, Note_on_c, 0, 59, 40
3, 90000, Note_on_c, 0, 59, 0
3, 90000, Note_on_c, 0, 57, 39
3, 90080, Note_on_c, 0, 57, 0
3, 90080, Note_on_c, 0, 54, 38
3, 90160, Note_on_c, 0, 54, 0
3, 90160, Note_on_c, 0, 45, 37
3, 90240, Note_on_c, 0, 45, 0
3, 90240, Note_on_c, 0, 33, 32
3, 90320, Note_on_c, 0, 33, 0
3, 90320, Note_on_c, 0, 45, 32
3, 90400, Note_on_c, 0, 45, 0
3, 90400, Note_on_c, 0, 54, 33
3, 90480, Note_on_c, 0, 54, 0
3, 90480, Note_on_c, 0, 55, 34
3, 90560, Note_on_c, 0, 55, 0
3, 90560, Note_on_c, 0, 58, 35
3, 90640, Note_on_c, 0, 58, 0
3, 90640, Note_on_c, 0, 63, 36
3, 90720, Note_on_c, 0, 63, 0
3, 90720, Note_on_c, 0, 64, 49
3, 90720, Note_on_c, 0, 62, 45
3, 90800, Note_on_c, 0, 62, 0
3, 90800, Note_on_c, 0, 64, 0
3, 90800, Note_on_c, 0, 58, 36
3, 90880, Note_on_c, 0, 58, 0
3, 90880, Note_on_c, 0, 55, 36
3, 90960, Note_on_c, 0, 55, 0
3, 90960, Note_on_c, 0, 45, 34
3, 91040, Note_on_c, 0, 45, 0
3, 91040, Note_on_c, 0, 55, 31
3, 91100, Note_on_c, 0, 55, 0
3, 91120, Note_on_c, 0, 55, 32
3, 91200, Note_on_c, 0, 55, 0
3, 91200, Note_on_c, 0, 65, 44
3, 91200, Note_on_c, 0, 61, 40
3, 91280, Note_on_c, 0, 61, 0
3, 91280, Note_on_c, 0, 65, 0
3, 91280, Note_on_c, 0, 58, 28
3, 91360, Note_on_c, 0, 58, 0
3, 91360, Note_on_c, 0, 55, 27
3, 91440, Note_on_c, 0, 55, 0
3, 91440, Note_on_c, 0, 45, 27
3, 91520, Note_on_c, 0, 45, 0
3, 91520, Note_on_c, 0, 55, 26
3, 91580, Note_on_c, 0, 55, 0
3, 91600, Note_on_c, 0, 55, 27
3, 91680, Note_on_c, 0, 55, 0
3, 91680, Note_on_c, 0, 66, 38
3, 91680, Note_on_c, 0, 61, 35
3, 91760, Note_on_c, 0, 61, 0
3, 91760, Note_on_c, 0, 66, 0
3, 91760, Note_on_c, 0, 57, 24
3, 91820, Note_on_c, 0, 57, 0
3, 91840, Note_on_c, 0, 57, 24
3, 91920, Note_on_c, 0, 57, 0
3, 91920, Note_on_c, 0, 55, 23
3, 92000, Note_on_c, 0, 55, 0
3, 92000, Note_on_c, 0, 45, 22
3, 92060, Note_on_c, 0, 45, 0
3, 92080, Note_on_c, 0, 45, 21
3, 92160, Note_on_c, 0, 45, 0
3, 92160, Note_on_c, 0, 38, 28
3, 92160, Control_c, 0, 91, 127
3, 92160, Note_on_c, 0, 26, 28
3, 92400, Note_on_c, 0, 26, 0
3, 92400, Note_on_c, 0, 38, 0
3, 92400, Note_on_c, 0, 45, 19
3, 92400, Note_on_c, 0, 57, 19
3, 92400, Note_on_c, 0, 54, 19
3, 92468, Note_on_c, 0, 54, 0
3, 92468, Note_on_c, 0, 57, 0
3, 92468, Note_on_c, 0, 45, 0
3, 92520, Note_on_c, 0, 54, 19
3, 92520, Note_on_c, 0, 57, 19
3, 92520, Note_on_c, 0, 45, 19
3, 92588, Note_on_c, 0, 45, 0
3, 92588, Note_on_c, 0, 57, 0
3, 92588, Note_on_c, 0, 54, 0
3, 92640, Note_on_c, 0, 54, 19
3, 92640, Note_on_c, 0, 45, 19
3, 92640, Note_on_c, 0, 57, 19
3, 92694, Note_on_c, 0, 57, 0
3, 92694, Note_on_c, 0, 45, 0
3, 92694, Note_on_c, 0, 54, 0
3, 92880, Note_on_c, 0, 42, 25
3, 92880, Note_on_c, 0, 30, 25
3, 92970, Note_on_c, 0, 30, 0
3, 92970, Note_on_c, 0, 42, 0
3, 93120, Note_on_c, 0, 46, 25
3, 93120, Note_on_c, 0, 34, 25
3, 93210, Note_on_c, 0, 34, 0
3, 93210, Note_on_c, 0, 46, 0
3, 93360, Note_on_c, 0, 52, 16
3, 93360, Note_on_c, 0, 50, 16
3, 93480, Note_on_c, 0, 50, 0
3, 93480, Note_on_c, 0, 52, 0
3, 93600, Note_on_c, 0, 43, 26
3, 93600, Note_on_c, 0, 31, 26
3, 93690, Note_on_c, 0, 31, 0
3, 93690, Note_on_c, 0, 43, 0
3, 93840, Note_on_c, 0, 52, 16
3, 93840, Note_on_c, 0, 50, 16
3, 93960, Note_on_c, 0, 50, 0
3, 93960, Note_on_c, 0, 52, 0
3, 94080, Note_on_c, 0, 38, 28
3, 94080, Note_on_c, 0, 26, 28
3, 94320, Note_on_c, 0, 26, 0
3, 94320, Note_on_c, 0, 38, 0
3, 94320, Note_on_c, 0, 54, 19
3, 94320, Note_on_c, 0, 57, 19
3, 94320, Note_on_c, 0, 45, 19
3, 94388, Note_on_c, 0, 45, 0
3, 94388, Note_on_c, 0, 57, 0
3, 94388, Note_on_c, 0, 54, 0
3, 94440, Note_on_c, 0, 45, 19
3, 94440, Note_on_c, 0, 57, 19
3, 94440, Note_on_c, 0, 54, 19
3, 94508, Note_on_c, 0, 54, 0
3, 94508, Note_on_c, 0, 57, 0
3, 94508, Note_on_c, 0, 45, 0
3, 94560, Note_on_c, 0, 54, 19
3, 94560, Note_on_c, 0, 45, 19
3, 94560, Note_on_c, 0, 57, 19
3, 94614, Note_on_c, 0, 54, 0
3, 94614, Note_on_c, 0, 57, 0
3, 94614, Note_on_c, 0, 45, 0
3, 94800, Note_on_c, 0, 30, 26
3, 94800, Note_on_c, 0, 42, 26
3, 94890, Note_on_c, 0, 42, 0
3, 94890, Note_on_c, 0, 30, 0
3, 95040, Note_on_c, 0, 34, 26
3, 95040, Note_on_c, 0, 46, 26
3, 95130, Note_on_c, 0, 46, 0
3, 95130, Note_on_c, 0, 34, 0
3, 95280, Note_on_c, 0, 50, 17
3, 95280, Note_on_c, 0, 52, 17
3, 95400, Note_on_c, 0, 52, 0
3, 95400, Note_on_c, 0, 50, 0
3, 95520, Note_on_c, 0, 31, 25
3, 95520, Note_on_c, 0, 43, 25
3, 95610, Note_on_c, 0, 43, 0
3, 95610, Note_on_c, 0, 31, 0
3, 95760, Note_on_c, 0, 52, 17
3, 95760, Note_on_c, 0, 50, 17
3, 95880, Note_on_c, 0, 50, 0
3, 95880, Note_on_c, 0, 52, 0
3, 96000, Note_on_c, 0, 38, 28
3, 96000, Note_on_c, 0, 26, 28
3, 96240, Note_on_c, 0, 26, 0
3, 96240, Note_on_c, 0, 38, 0
3, 96240, Note_on_c, 0, 45, 19
3, 96240, Note_on_c, 0, 57, 19
3, 96240, Note_on_c, 0, 54, 19
3, 96308, Note_on_c, 0, 54, 0
3, 96308, Note_on_c, 0, 57, 0
3, 96308, Note_on_c, 0, 45, 0
3, 96360, Note_on_c, 0, 54, 20
3, 96360, Note_on_c, 0, 57, 20
3, 96360, Note_on_c, 0, 45, 20
3, 96428, Note_on_c, 0, 45, 0
3, 96428, Note_on_c, 0, 57, 0
3, 96428, Note_on_c, 0, 54, 0
3, 96480, Note_on_c, 0, 54, 20
3, 96480, Note_on_c, 0, 45, 20
3, 96480, Note_on_c, 0, 57, 20
3, 96534, Note_on_c, 0, 54, 0
3, 96534, Note_on_c, 0, 57, 0
3, 96534, Note_on_c, 0, 45, 0
3, 96720, Note_on_c, 0, 50, 27
3, 96810, Note_on_c, 0, 50, 0
3, 96960, Note_on_c, 0, 27, 32
3, 96960, Note_on_c, 0, 39, 32
3, 97200, Note_on_c, 0, 50, 21
3, 97200, Note_on_c, 0, 55, 21
3, 97268, Note_on_c, 0, 55, 0
3, 97268, Note_on_c, 0, 50, 0
3, 97320, Note_on_c, 0, 50, 22
3, 97320, Note_on_c, 0, 55, 22
3, 97388, Note_on_c, 0, 55, 0
3, 97388, Note_on_c, 0, 50, 0
3, 97440, Note_on_c, 0, 50, 23
3, 97440, Note_on_c, 0, 55, 23
3, 97494, Note_on_c, 0, 55, 0
3, 97494, Note_on_c, 0, 50, 0
3, 97680, Note_on_c, 0, 39, 0
3, 97680, Note_on_c, 0, 27, 0
3, 97680, Note_on_c, 0, 50, 29
3, 97770, Note_on_c, 0, 50, 0
3, 97920, Note_on_c, 0, 40, 36
3, 97920, Note_on_c, 0, 28, 36
3, 98160, Note_on_c, 0, 50, 27
3, 98160, Note_on_c, 0, 56, 27
3, 98228, Note_on_c, 0, 56, 0
3, 98228, Note_on_c, 0, 50, 0
3, 98280, Note_on_c, 0, 50, 27
3, 98280, Note_on_c, 0, 56, 27
3, 98348, Note_on_c, 0, 56, 0
3, 98348, Note_on_c, 0, 50, 0
3, 98400, Note_on_c, 0, 50, 28
3, 98400, Note_on_c, 0, 56, 28
3, 98454, Note_on_c, 0, 56, 0
3, 98454, Note_on_c, 0, 50, 0
3, 98640, Note_on_c, 0, 28, 0
3, 98640, Note_on_c, 0, 40, 0
3, 98640, Note_on_c, 0, 50, 36
3, 98730, Note_on_c, 0, 50, 0
3, 98880, Note_on_c, 0, 41, 36
3, 98880, Note_on_c, 0, 29, 36
3, 98970, Note_on_c, 0, 29, 0
3, 98970, Note_on_c, 0, 41, 0
3, 99120, Note_on_c, 0, 50, 32
3, 99210, Note_on_c, 0, 50, 0
3, 99360, Note_on_c, 0, 30, 38
3, 99360, Note_on_c, 0, 42, 38
3, 99450, Note_on_c, 0, 42, 0
3, 99450, Note_on_c, 0, 30, 0
3, 99600, Note_on_c, 0, 50, 35
3, 99690, Note_on_c, 0, 50, 0
3, 99840, Note_on_c, 0, 43, 45
3, 99840, Note_on_c, 0, 31, 45
3, 100080, Note_on_c, 0, 50, 30
3, 100080, Note_on_c, 0, 62, 30
3, 100080, Note_on_c, 0, 58, 30
3, 100148, Note_on_c, 0, 58, 0
3, 100148, Note_on_c, 0, 50, 0
3, 100148, Note_on_c, 0, 62, 0
3, 100200, Note_on_c, 0, 58, 32
3, 100200, Note_on_c, 0, 62, 32
3, 100200, Note_on_c, 0, 50, 32
3, 100268, Note_on_c, 0, 50, 0
3, 100268, Note_on_c, 0, 58, 0
3, 100268, Note_on_c, 0, 62, 0
3, 100320, Note_on_c, 0, 50, 32
3, 100320, Note_on_c, 0, 62, 32
3, 100320, Note_on_c, 0, 58, 32
3, 100499, Note_on_c, 0, 58, 0
3, 100500, Note_on_c, 0, 50, 0
3, 100500, Note_on_c, 0, 62, 0
3, 100560, Note_on_c, 0, 31, 0
3, 100560, Note_on_c, 0, 43, 0
3, 100560, Note_on_c, 0, 46, 42
3, 100560, Note_on_c, 0, 34, 42
3, 100650, Note_on_c, 0, 34, 0
3, 100650, Note_on_c, 0, 46, 0
3, 100800, Note_on_c, 0, 50, 43
3, 100800, Note_on_c, 0, 38, 43
3, 100890, Note_on_c, 0, 38, 0
3, 100890, Note_on_c, 0, 50, 0
3, 101040, Note_on_c, 0, 58, 38
3, 101040, Note_on_c, 0, 50, 38
3, 101040, Note_on_c, 0, 62, 38
3, 101159, Note_on_c, 0, 58, 0
3, 101160, Note_on_c, 0, 62, 0
3, 101160, Note_on_c, 0, 50, 0
3, 101280, Note_on_c, 0, 46, 45
3, 101280, Note_on_c, 0, 34, 45
3, 101370, Note_on_c, 0, 34, 0
3, 101370, Note_on_c, 0, 46, 0
3, 101520, Note_on_c, 0, 58, 39
3, 101520, Note_on_c, 0, 50, 39
3, 101520, Note_on_c, 0, 62, 39
3, 101640, Note_on_c, 0, 62, 0
3, 101640, Note_on_c, 0, 50, 0
3, 101640, Note_on_c, 0, 58, 0
3, 101760, Note_on_c, 0, 31, 54
3, 101760, Note_on_c, 0, 43, 54
3, 101880, Note_on_c, 0, 43, 0
3, 101880, Note_on_c, 0, 31, 0
3, 102000, Note_on_c, 0, 58, 36
3, 102000, Note_on_c, 0, 62, 36
3, 102000, Note_on_c, 0, 50, 36
3, 102068, Note_on_c, 0, 50, 0
3, 102068, Note_on_c, 0, 62, 0
3, 102068, Note_on_c, 0, 58, 0
3, 102120, Note_on_c, 0, 58, 36
3, 102120, Note_on_c, 0, 50, 36
3, 102120, Note_on_c, 0, 62, 36
3, 102188, Note_on_c, 0, 62, 0
3, 102188, Note_on_c, 0, 50, 0
3, 102188, Note_on_c, 0, 58, 0
3, 102240, Note_on_c, 0, 50, 36
3, 102240, Note_on_c, 0, 62, 36
3, 102240, Note_on_c, 0, 58, 36
3, 102419, Note_on_c, 0, 58, 0
3, 102420, Note_on_c, 0, 62, 0
3, 102420, Note_on_c, 0, 50, 0
3, 102480, Note_on_c, 0, 46, 51
3, 102480, Note_on_c, 0, 34, 51
3, 102600, Note_on_c, 0, 34, 0
3, 102600, Note_on_c, 0, 46, 0
3, 102720, Note_on_c, 0, 50, 52
3, 102720, Note_on_c, 0, 38, 52
3, 102810, Note_on_c, 0, 38, 0
3, 102810, Note_on_c, 0, 50, 0
3, 102960, Note_on_c, 0, 58, 47
3, 102960, Note_on_c, 0, 62, 47
3, 102960, Note_on_c, 0, 50, 47
3, 103079, Note_on_c, 0, 58, 0
3, 103080, Note_on_c, 0, 50, 0
3, 103080, Note_on_c, 0, 62, 0
3, 103200, Note_on_c, 0, 34, 54
3, 103200, Note_on_c, 0, 46, 54
3, 103290, Note_on_c, 0, 46, 0
3, 103320, Note_on_c, 0, 34, 0
3, 103440, Note_on_c, 0, 58, 48
3, 103440, Note_on_c, 0, 62, 48
3, 103440, Note_on_c, 0, 50, 48
3, 103560, Note_on_c, 0, 50, 0
3, 103560, Note_on_c, 0, 62, 0
3, 103560, Note_on_c, 0, 58, 0
3, 103680, Note_on_c, 0, 31, 63
3, 103680, Note_on_c, 0, 43, 63
3, 103800, Note_on_c, 0, 43, 0
3, 103800, Note_on_c, 0, 31, 0
3, 103920, Note_on_c, 0, 58, 45
3, 103920, Note_on_c, 0, 50, 45
3, 103920, Note_on_c, 0, 62, 45
3, 103988, Note_on_c, 0, 62, 0
3, 103988, Note_on_c, 0, 50, 0
3, 103988, Note_on_c, 0, 58, 0
3, 104040, Note_on_c, 0, 58, 45
3, 104040, Note_on_c, 0, 62, 45
3, 104040, Note_on_c, 0, 50, 45
3, 104108, Note_on_c, 0, 50, 0
3, 104108, Note_on_c, 0, 62, 0
3, 104108, Note_on_c, 0, 58, 0
3, 104160, Note_on_c, 0, 50, 45
3, 104160, Note_on_c, 0, 62, 45
3, 104160, Note_on_c, 0, 58, 45
3, 104340, Note_on_c, 0, 58, 0
3, 104340, Note_on_c, 0, 62, 0
3, 104340, Note_on_c, 0, 50, 0
3, 104400, Note_on_c, 0, 43, 59
3, 104400, Note_on_c, 0, 55, 59
3, 104490, Note_on_c, 0, 55, 0
3, 104490, Note_on_c, 0, 43, 0
3, 104640, Note_on_c, 0, 44, 67
3, 104640, Note_on_c, 0, 32, 67
3, 104880, Note_on_c, 0, 48, 50
3, 104880, Note_on_c, 0, 55, 50
3, 104948, Note_on_c, 0, 55, 0
3, 104948, Note_on_c, 0, 48, 0
3, 105000, Note_on_c, 0, 48, 50
3, 105000, Note_on_c, 0, 55, 50
3, 105068, Note_on_c, 0, 55, 0
3, 105068, Note_on_c, 0, 48, 0
3, 105120, Note_on_c, 0, 48, 50
3, 105120, Note_on_c, 0, 55, 50
3, 105300, Note_on_c, 0, 55, 0
3, 105300, Note_on_c, 0, 48, 0
3, 105360, Note_on_c, 0, 32, 0
3, 105360, Note_on_c, 0, 44, 0
3, 105360, Note_on_c, 0, 55, 63
3, 105360, Note_on_c, 0, 43, 63
3, 105450, Note_on_c, 0, 43, 0
3, 105450, Note_on_c, 0, 55, 0
3, 105600, Note_on_c, 0, 33, 72
3, 105600, Note_on_c, 0, 45, 72
3, 105840, Note_on_c, 0, 49, 50
3, 105840, Note_on_c, 0, 55, 50
3, 105908, Note_on_c, 0, 55, 0
3, 105908, Note_on_c, 0, 49, 0
3, 105960, Note_on_c, 0, 49, 50
3, 105960, Note_on_c, 0, 55, 50
3, 106028, Note_on_c, 0, 55, 0
3, 106028, Note_on_c, 0, 49, 0
3, 106080, Note_on_c, 0, 55, 50
3, 106080, Note_on_c, 0, 49, 50
3, 106260, Note_on_c, 0, 49, 0
3, 106260, Note_on_c, 0, 55, 0
3, 106320, Note_on_c, 0, 45, 0
3, 106320, Note_on_c, 0, 33, 0
3, 106320, Note_on_c, 0, 55, 69
3, 106410, Note_on_c, 0, 55, 0
3, 106560, Note_on_c, 0, 46, 70
3, 106560, Note_on_c, 0, 34, 70
3, 106650, Note_on_c, 0, 34, 0
3, 106650, Note_on_c, 0, 46, 0
3, 106800, Note_on_c, 0, 55, 53
3, 106890, Note_on_c, 0, 55, 0
3, 107040, Note_on_c, 0, 35, 70
3, 107040, Note_on_c, 0, 47, 70
3, 107130, Note_on_c, 0, 47, 0
3, 107130, Note_on_c, 0, 35, 0
3, 107280, Note_on_c, 0, 55, 56
3, 107370, Note_on_c, 0, 55, 0
3, 107520, Note_on_c, 0, 36, 72
3, 107520, Note_on_c, 0, 48, 72
3, 107640, Note_on_c, 0, 48, 0
3, 107640, Note_on_c, 0, 36, 0
3, 107760, Note_on_c, 0, 60, 57
3, 107760, Note_on_c, 0, 55, 51
3, 107760, Note_on_c, 0, 63, 57
3, 107828, Note_on_c, 0, 63, 0
3, 107828, Note_on_c, 0, 55, 0
3, 107828, Note_on_c, 0, 60, 0
3, 107880, Note_on_c, 0, 63, 57
3, 107880, Note_on_c, 0, 55, 51
3, 107880, Note_on_c, 0, 60, 57
3, 107948, Note_on_c, 0, 60, 0
3, 107948, Note_on_c, 0, 55, 0
3, 107948, Note_on_c, 0, 63, 0
3, 108000, Note_on_c, 0, 55, 51
3, 108000, Note_on_c, 0, 63, 57
3, 108000, Note_on_c, 0, 60, 57
3, 108179, Note_on_c, 0, 63, 0
3, 108180, Note_on_c, 0, 60, 0
3, 108180, Note_on_c, 0, 55, 0
3, 108240, Note_on_c, 0, 39, 69
3, 108240, Note_on_c, 0, 51, 69
3, 108330, Note_on_c, 0, 51, 0
3, 108330, Note_on_c, 0, 39, 0
3, 108480, Note_on_c, 0, 43, 70
3, 108480, Note_on_c, 0, 55, 70
3, 108570, Note_on_c, 0, 55, 0
3, 108570, Note_on_c, 0, 43, 0
3, 108720, Note_on_c, 0, 60, 57
3, 108720, Note_on_c, 0, 55, 51
3, 108720, Note_on_c, 0, 63, 57
3, 108840, Note_on_c, 0, 63, 0
3, 108840, Note_on_c, 0, 55, 0
3, 108840, Note_on_c, 0, 60, 0
3, 108960, Note_on_c, 0, 39, 71
3, 108960, Note_on_c, 0, 51, 71
3, 109050, Note_on_c, 0, 51, 0
3, 109050, Note_on_c, 0, 39, 0
3, 109200, Note_on_c, 0, 63, 57
3, 109200, Note_on_c, 0, 55, 51
3, 109200, Note_on_c, 0, 60, 57
3, 109320, Note_on_c, 0, 60, 0
3, 109320, Note_on_c, 0, 55, 0
3, 109320, Note_on_c, 0, 63, 0
3, 109440, Note_on_c, 0, 48, 76
3, 109440, Note_on_c, 0, 36, 76
3, 109560, Note_on_c, 0, 36, 0
3, 109560, Note_on_c, 0, 48, 0
3, 109680, Note_on_c, 0, 60, 62
3, 109680, Note_on_c, 0, 63, 62
3, 109680, Note_on_c, 0, 55, 55
3, 109748, Note_on_c, 0, 55, 0
3, 109748, Note_on_c, 0, 63, 0
3, 109748, Note_on_c, 0, 60, 0
3, 109800, Note_on_c, 0, 63, 62
3, 109800, Note_on_c, 0, 55, 55
3, 109800, Note_on_c, 0, 60, 62
3, 109868, Note_on_c, 0, 60, 0
3, 109868, Note_on_c, 0, 55, 0
3, 109868, Note_on_c, 0, 63, 0
3, 109920, Note_on_c, 0, 60, 63
3, 109920, Note_on_c, 0, 63, 63
3, 109920, Note_on_c, 0, 55, 56
3, 110099, Note_on_c, 0, 63, 0
3, 110100, Note_on_c, 0, 55, 0
3, 110100, Note_on_c, 0, 60, 0
3, 110160, Note_on_c, 0, 39, 73
3, 110160, Note_on_c, 0, 51, 73
3, 110250, Note_on_c, 0, 51, 0
3, 110250, Note_on_c, 0, 39, 0
3, 110400, Note_on_c, 0, 43, 74
3, 110400, Note_on_c, 0, 55, 74
3, 110490, Note_on_c, 0, 55, 0
3, 110490, Note_on_c, 0, 43, 0
3, 110640, Note_on_c, 0, 63, 63
3, 110640, Note_on_c, 0, 55, 56
3, 110640, Note_on_c, 0, 60, 63
3, 110759, Note_on_c, 0, 63, 0
3, 110760, Note_on_c, 0, 60, 0
3, 110760, Note_on_c, 0, 55, 0
3, 110880, Note_on_c, 0, 39, 75
3, 110880, Note_on_c, 0, 51, 75
3, 110970, Note_on_c, 0, 51, 0
3, 110970, Note_on_c, 0, 39, 0
3, 111120, Note_on_c, 0, 63, 64
3, 111120, Note_on_c, 0, 55, 57
3, 111120, Note_on_c, 0, 60, 64
3, 111240, Note_on_c, 0, 60, 0
3, 111240, Note_on_c, 0, 55, 0
3, 111240, Note_on_c, 0, 63, 0
3, 111360, Note_on_c, 0, 49, 81
3, 111360, Note_on_c, 0, 37, 81
3, 111600, Note_on_c, 0, 58, 64
3, 111600, Note_on_c, 0, 55, 57
3, 111600, Note_on_c, 0, 63, 64
3, 111668, Note_on_c, 0, 63, 0
3, 111668, Note_on_c, 0, 58, 0
3, 111668, Note_on_c, 0, 55, 0
3, 111720, Note_on_c, 0, 58, 64
3, 111720, Note_on_c, 0, 63, 64
3, 111720, Note_on_c, 0, 55, 57
3, 111788, Note_on_c, 0, 55, 0
3, 111788, Note_on_c, 0, 58, 0
3, 111788, Note_on_c, 0, 63, 0
3, 111840, Note_on_c, 0, 55, 57
3, 111840, Note_on_c, 0, 63, 64
3, 111840, Note_on_c, 0, 58, 64
3, 112020, Note_on_c, 0, 58, 0
3, 112020, Note_on_c, 0, 55, 0
3, 112020, Note_on_c, 0, 63, 0
3, 112080, Note_on_c, 0, 37, 0
3, 112080, Note_on_c, 0, 49, 0
3, 112080, Note_on_c, 0, 58, 76
3, 112080, Note_on_c, 0, 46, 76
3, 112170, Note_on_c, 0, 46, 0
3, 112170, Note_on_c, 0, 58, 0
3, 112320, Note_on_c, 0, 50, 81
3, 112320, Note_on_c, 0, 38, 81
3, 112560, Note_on_c, 0, 67, 66
3, 112560, Note_on_c, 0, 58, 59
3, 112560, Note_on_c, 0, 62, 66
3, 112628, Note_on_c, 0, 62, 0
3, 112628, Note_on_c, 0, 67, 0
3, 112628, Note_on_c, 0, 58, 0
3, 112680, Note_on_c, 0, 62, 66
3, 112680, Note_on_c, 0, 58, 59
3, 112680, Note_on_c, 0, 67, 66
3, 112748, Note_on_c, 0, 67, 0
3, 112748, Note_on_c, 0, 62, 0
3, 112748, Note_on_c, 0, 58, 0
3, 112800, Note_on_c, 0, 62, 66
3, 112800, Note_on_c, 0, 58, 59
3, 112800, Note_on_c, 0, 67, 66
3, 112980, Note_on_c, 0, 67, 0
3, 112980, Note_on_c, 0, 62, 0
3, 112980, Note_on_c, 0, 58, 0
3, 113040, Note_on_c, 0, 38, 0
3, 113040, Note_on_c, 0, 50, 0
3, 113040, Note_on_c, 0, 58, 83
3, 113040, Note_on_c, 0, 46, 83
3, 113130, Note_on_c, 0, 46, 0
3, 113130, Note_on_c, 0, 58, 0
3, 113280, Note_on_c, 0, 52, 85
3, 113280, Note_on_c, 0, 40, 85
3, 113520, Note_on_c, 0, 55, 75
3, 113520, Note_on_c, 0, 62, 84
3, 113520, Note_on_c, 0, 58, 84
3, 113760, Note_on_c, 0, 62, 0
3, 113760, Note_on_c, 0, 61, 72
3, 114000, Note_on_c, 0, 61, 0
3, 114000, Note_on_c, 0, 58, 0
3, 114000, Note_on_c, 0, 55, 0
3, 114000, Note_on_c, 0, 67, 85
3, 114000, Note_on_c, 0, 58, 85
3, 114000, Note_on_c, 0, 62, 85
3, 114240, Note_on_c, 0, 62, 0
3, 114240, Note_on_c, 0, 61, 74
3, 114480, Note_on_c, 0, 61, 0
3, 114480, Note_on_c, 0, 58, 0
3, 114480, Note_on_c, 0, 67, 0
3, 114480, Note_on_c, 0, 70, 83
3, 114480, Note_on_c, 0, 62, 83
3, 114480, Note_on_c, 0, 67, 83
3, 114720, Note_on_c, 0, 62, 0
3, 114720, Note_on_c, 0, 40, 0
3, 114720, Note_on_c, 0, 52, 0
3, 114720, Note_on_c, 0, 61, 76
3, 114960, Note_on_c, 0, 61, 0
3, 114960, Note_on_c, 0, 70, 0
3, 114960, Note_on_c, 0, 67, 0
3, 114960, Note_on_c, 0, 39, 90
3, 114960, Note_on_c, 0, 51, 90
3, 115200, Note_on_c, 0, 51, 0
3, 115200, Note_on_c, 0, 39, 0
3, 115200, Note_on_c, 0, 38, 102
3, 115200, Note_on_c, 0, 50, 102
3, 115440, Note_on_c, 0, 67, 77
3, 115440, Note_on_c, 0, 70, 77
3, 115440, Note_on_c, 0, 62, 69
3, 115440, Note_on_c, 0, 58, 69
3, 115500, Note_on_c, 0, 58, 0
3, 115500, Note_on_c, 0, 70, 0
3, 115500, Note_on_c, 0, 67, 0
3, 115500, Note_on_c, 0, 62, 0
3, 115560, Note_on_c, 0, 70, 77
3, 115560, Note_on_c, 0, 58, 69
3, 115560, Note_on_c, 0, 67, 77
3, 115560, Note_on_c, 0, 62, 69
3, 115620, Note_on_c, 0, 62, 0
3, 115620, Note_on_c, 0, 58, 0
3, 115620, Note_on_c, 0, 70, 0
3, 115620, Note_on_c, 0, 67, 0
3, 115680, Note_on_c, 0, 70, 77
3, 115680, Note_on_c, 0, 58, 69
3, 115680, Note_on_c, 0, 67, 77
3, 115680, Note_on_c, 0, 62, 69
3, 115740, Note_on_c, 0, 62, 0
3, 115740, Note_on_c, 0, 58, 0
3, 115740, Note_on_c, 0, 70, 0
3, 115740, Note_on_c, 0, 67, 0
3, 115800, Note_on_c, 0, 67, 77
3, 115800, Note_on_c, 0, 58, 69
3, 115800, Note_on_c, 0, 62, 69
3, 115800, Note_on_c, 0, 70, 77
3, 115860, Note_on_c, 0, 70, 0
3, 115860, Note_on_c, 0, 58, 0
3, 115860, Note_on_c, 0, 67, 0
3, 115860, Note_on_c, 0, 62, 0
3, 115920, Note_on_c, 0, 67, 77
3, 115920, Note_on_c, 0, 58, 69
3, 115920, Note_on_c, 0, 62, 69
3, 115920, Note_on_c, 0, 70, 77
3, 115980, Note_on_c, 0, 70, 0
3, 115980, Note_on_c, 0, 58, 0
3, 115980, Note_on_c, 0, 67, 0
3, 115980, Note_on_c, 0, 62, 0
3, 116040, Note_on_c, 0, 67, 77
3, 116040, Note_on_c, 0, 58, 69
3, 116040, Note_on_c, 0, 62, 69
3, 116040, Note_on_c, 0, 70, 77
3, 116100, Note_on_c, 0, 70, 0
3, 116100, Note_on_c, 0, 58, 0
3, 116100, Note_on_c, 0, 67, 0
3, 116100, Note_on_c, 0, 62, 0
3, 116160, Note_on_c, 0, 62, 69
3, 116160, Note_on_c, 0, 58, 69
3, 116160, Note_on_c, 0, 70, 77
3, 116160, Note_on_c, 0, 67, 77
3, 116388, Note_on_c, 0, 67, 0
3, 116388, Note_on_c, 0, 58, 0
3, 116388, Note_on_c, 0, 62, 0
3, 116388, Note_on_c, 0, 70, 0
3, 116400, Note_on_c, 0, 67, 83
3, 116400, Note_on_c, 0, 62, 74
3, 116400, Note_on_c, 0, 70, 83
3, 116640, Note_on_c, 0, 70, 0
3, 116640, Note_on_c, 0, 67, 0
3, 116640, Note_on_c, 0, 62, 0
3, 116640, Note_on_c, 0, 67, 83
3, 116640, Note_on_c, 0, 61, 74
3, 116640, Note_on_c, 0, 70, 83
3, 116880, Note_on_c, 0, 70, 0
3, 116880, Note_on_c, 0, 67, 0
3, 116880, Note_on_c, 0, 61, 0
3, 116880, Note_on_c, 0, 60, 74
3, 116880, Note_on_c, 0, 69, 83
3, 116880, Note_on_c, 0, 62, 83
3, 117120, Note_on_c, 0, 62, 0
3, 117120, Note_on_c, 0, 60, 0
3, 117120, Note_on_c, 0, 50, 0
3, 117120, Note_on_c, 0, 38, 0
3, 117120, Note_on_c, 0, 69, 0
3, 117120, Note_on_c, 0, 58, 75
3, 117120, Note_on_c, 0, 62, 84
3, 117120, Note_on_c, 0, 67, 84
3, 117360, Note_on_c, 0, 67, 0
3, 117360, Note_on_c, 0, 62, 0
3, 117360, Note_on_c, 0, 58, 0
3, 117360, Note_on_c, 0, 55, 84
3, 117360, Note_on_c, 0, 47, 84
3, 117600, Note_on_c, 0, 47, 0
3, 117600, Note_on_c, 0, 55, 0
3, 117600, Note_on_c, 0, 55, 84
3, 117600, Note_on_c, 0, 48, 84
3, 117840, Note_on_c, 0, 48, 0
3, 117840, Note_on_c, 0, 55, 0
3, 117840, Note_on_c, 0, 32, 90
3, 117840, Note_on_c, 0, 44, 90
3, 117930, Note_on_c, 0, 44, 0
3, 117930, Note_on_c, 0, 32, 0
3, 118080, Note_on_c, 0, 45, 90
3, 118080, Note_on_c, 0, 33, 90
3, 118170, Note_on_c, 0, 33, 0
3, 118170, Note_on_c, 0, 45, 0
3, 118320, Note_on_c, 0, 50, 89
3, 118320, Note_on_c, 0, 38, 89
3, 118560, Note_on_c, 0, 38, 0
3, 118560, Note_on_c, 0, 50, 0
3, 118560, Note_on_c, 0, 43, 89
3, 118560, Note_on_c, 0, 31, 89
3, 118800, Note_on_c, 0, 31, 0
3, 118800, Note_on_c, 0, 43, 0
3, 119040, Note_on_c, 0, 67, 89
3, 119040, Note_on_c, 0, 58, 89
3, 119040, Note_on_c, 0, 63, 89
3, 119040, Control_c, 0, 91, 127
3, 119040, Note_on_c, 0, 55, 80
3, 119280, Note_on_c, 0, 55, 0
3, 119280, Note_on_c, 0, 67, 0
3, 119280, Note_on_c, 0, 58, 0
3, 119280, Note_on_c, 0, 63, 0
3, 119280, Note_on_c, 0, 63, 80
3, 119280, Note_on_c, 0, 55, 72
3, 119280, Note_on_c, 0, 58, 80
3, 119348, Note_on_c, 0, 58, 0
3, 119348, Note_on_c, 0, 55, 0
3, 119348, Note_on_c, 0, 63, 0
3, 119400, Note_on_c, 0, 55, 72
3, 119400, Note_on_c, 0, 63, 80
3, 119400, Note_on_c, 0, 58, 80
3, 119468, Note_on_c, 0, 58, 0
3, 119468, Note_on_c, 0, 63, 0
3, 119468, Note_on_c, 0, 55, 0
3, 119520, Note_on_c, 0, 58, 80
3, 119520, Note_on_c, 0, 63, 80
3, 119520, Note_on_c, 0, 55, 72
3, 119588, Note_on_c, 0, 55, 0
3, 119588, Note_on_c, 0, 63, 0
3, 119588, Note_on_c, 0, 58, 0
3, 119760, Note_on_c, 0, 39, 66
3, 119760, Note_on_c, 0, 46, 66
3, 119828, Note_on_c, 0, 46, 0
3, 119828, Note_on_c, 0, 39, 0
3, 119880, Note_on_c, 0, 46, 66
3, 119880, Note_on_c, 0, 39, 66
3, 119948, Note_on_c, 0, 39, 0
3, 119948, Note_on_c, 0, 46, 0
3, 120000, Note_on_c, 0, 46, 66
3, 120000, Note_on_c, 0, 39, 66
3, 120068, Note_on_c, 0, 39, 0
3, 120068, Note_on_c, 0, 46, 0
3, 120240, Note_on_c, 0, 58, 84
3, 120240, Note_on_c, 0, 55, 75
3, 120240, Note_on_c, 0, 63, 84
3, 120330, Note_on_c, 0, 63, 0
3, 120330, Note_on_c, 0, 55, 0
3, 120330, Note_on_c, 0, 58, 0
3, 120480, Note_on_c, 0, 58, 84
3, 120480, Note_on_c, 0, 55, 84
3, 120600, Note_on_c, 0, 55, 0
3, 120600, Note_on_c, 0, 58, 0
3, 120600, Note_on_c, 0, 60, 84
3, 120720, Note_on_c, 0, 60, 0
3, 120720, Note_on_c, 0, 62, 84
3, 120840, Note_on_c, 0, 62, 0
3, 120840, Note_on_c, 0, 63, 84
3, 120960, Note_on_c, 0, 63, 0
3, 120960, Note_on_c, 0, 53, 80
3, 120960, Note_on_c, 0, 58, 89
3, 120960, Note_on_c, 0, 62, 89
3, 121200, Note_on_c, 0, 62, 0
3, 121200, Note_on_c, 0, 58, 0
3, 121200, Note_on_c, 0, 53, 0
3, 121200, Note_on_c, 0, 58, 81
3, 121200, Note_on_c, 0, 62, 81
3, 121200, Note_on_c, 0, 53, 72
3, 121268, Note_on_c, 0, 53, 0
3, 121268, Note_on_c, 0, 62, 0
3, 121268, Note_on_c, 0, 58, 0
3, 121320, Note_on_c, 0, 58, 81
3, 121320, Note_on_c, 0, 53, 72
3, 121320, Note_on_c, 0, 62, 81
3, 121388, Note_on_c, 0, 62, 0
3, 121388, Note_on_c, 0, 53, 0
3, 121388, Note_on_c, 0, 58, 0
3, 121440, Note_on_c, 0, 53, 72
3, 121440, Note_on_c, 0, 62, 81
3, 121440, Note_on_c, 0, 58, 81
3, 121508, Note_on_c, 0, 58, 0
3, 121508, Note_on_c, 0, 62, 0
3, 121508, Note_on_c, 0, 53, 0
3, 121680, Note_on_c, 0, 46, 64
3, 121680, Note_on_c, 0, 34, 64
3, 121748, Note_on_c, 0, 34, 0
3, 121748, Note_on_c, 0, 46, 0
3, 121800, Note_on_c, 0, 34, 64
3, 121800, Note_on_c, 0, 46, 64
3, 121868, Note_on_c, 0, 46, 0
3, 121868, Note_on_c, 0, 34, 0
3, 121920, Note_on_c, 0, 34, 64
3, 121920, Note_on_c, 0, 46, 64
3, 121988, Note_on_c, 0, 46, 0
3, 121988, Note_on_c, 0, 34, 0
3, 122160, Note_on_c, 0, 53, 73
3, 122160, Note_on_c, 0, 62, 82
3, 122160, Note_on_c, 0, 58, 82
3, 122250, Note_on_c, 0, 58, 0
3, 122250, Note_on_c, 0, 62, 0
3, 122250, Note_on_c, 0, 53, 0
3, 122400, Note_on_c, 0, 58, 84
3, 122400, Note_on_c, 0, 62, 84
3, 122400, Note_on_c, 0, 53, 75
3, 122520, Note_on_c, 0, 53, 0
3, 122520, Note_on_c, 0, 62, 0
3, 122520, Note_on_c, 0, 58, 0
3, 122520, Note_on_c, 0, 64, 84
3, 122640, Note_on_c, 0, 64, 0
3, 122640, Note_on_c, 0, 65, 84
3, 122760, Note_on_c, 0, 65, 0
3, 122760, Note_on_c, 0, 67, 84
3, 122880, Note_on_c, 0, 67, 0
3, 122880, Note_on_c, 0, 57, 80
3, 122880, Note_on_c, 0, 65, 89
3, 122880, Note_on_c, 0, 62, 89
3, 123120, Note_on_c, 0, 62, 0
3, 123120, Note_on_c, 0, 65, 0
3, 123120, Note_on_c, 0, 57, 0
3, 123120, Note_on_c, 0, 53, 72
3, 123120, Note_on_c, 0, 62, 80
3, 123120, Note_on_c, 0, 65, 80
3, 123120, Note_on_c, 0, 57, 72
3, 123188, Note_on_c, 0, 57, 0
3, 123188, Note_on_c, 0, 53, 0
3, 123188, Note_on_c, 0, 62, 0
3, 123188, Note_on_c, 0, 65, 0
3, 123240, Note_on_c, 0, 53, 72
3, 123240, Note_on_c, 0, 62, 80
3, 123240, Note_on_c, 0, 65, 80
3, 123240, Note_on_c, 0, 57, 72
3, 123308, Note_on_c, 0, 57, 0
3, 123308, Note_on_c, 0, 53, 0
3, 123308, Note_on_c, 0, 62, 0
3, 123308, Note_on_c, 0, 65, 0
3, 123360, Note_on_c, 0, 57, 72
3, 123360, Note_on_c, 0, 53, 72
3, 123360, Note_on_c, 0, 65, 80
3, 123360, Note_on_c, 0, 62, 80
3, 123428, Note_on_c, 0, 62, 0
3, 123428, Note_on_c, 0, 57, 0
3, 123428, Note_on_c, 0, 53, 0
3, 123428, Note_on_c, 0, 65, 0
3, 123600, Note_on_c, 0, 45, 64
3, 123600, Note_on_c, 0, 38, 64
3, 123668, Note_on_c, 0, 38, 0
3, 123668, Note_on_c, 0, 45, 0
3, 123720, Note_on_c, 0, 45, 64
3, 123720, Note_on_c, 0, 38, 64
3, 123788, Note_on_c, 0, 38, 0
3, 123788, Note_on_c, 0, 45, 0
3, 123840, Note_on_c, 0, 38, 64
3, 123840, Note_on_c, 0, 45, 64
3, 123908, Note_on_c, 0, 45, 0
3, 123908, Note_on_c, 0, 38, 0
3, 124080, Note_on_c, 0, 53, 74
3, 124080, Note_on_c, 0, 62, 83
3, 124080, Note_on_c, 0, 57, 83
3, 124170, Note_on_c, 0, 57, 0
3, 124170, Note_on_c, 0, 62, 0
3, 124170, Note_on_c, 0, 53, 0
3, 124320, Note_on_c, 0, 53, 83
3, 124320, Note_on_c, 0, 57, 83
3, 124440, Note_on_c, 0, 57, 0
3, 124440, Note_on_c, 0, 53, 0
3, 124440, Note_on_c, 0, 59, 83
3, 124560, Note_on_c, 0, 59, 0
3, 124560, Note_on_c, 0, 60, 83
3, 124680, Note_on_c, 0, 60, 0
3, 124680, Note_on_c, 0, 62, 83
3, 124800, Note_on_c, 0, 62, 0
3, 124800, Note_on_c, 0, 57, 89
3, 124800, Note_on_c, 0, 60, 89
3, 124800, Note_on_c, 0, 53, 80
3, 125040, Note_on_c, 0, 53, 0
3, 125040, Note_on_c, 0, 60, 0
3, 125040, Note_on_c, 0, 57, 0
3, 125040, Note_on_c, 0, 57, 72
3, 125040, Note_on_c, 0, 60, 81
3, 125040, Note_on_c, 0, 65, 81
3, 125040, Note_on_c, 0, 53, 72
3, 125108, Note_on_c, 0, 53, 0
3, 125108, Note_on_c, 0, 57, 0
3, 125108, Note_on_c, 0, 60, 0
3, 125108, Note_on_c, 0, 65, 0
3, 125160, Note_on_c, 0, 57, 72
3, 125160, Note_on_c, 0, 60, 81
3, 125160, Note_on_c, 0, 65, 81
3, 125160, Note_on_c, 0, 53, 72
3, 125228, Note_on_c, 0, 53, 0
3, 125228, Note_on_c, 0, 57, 0
3, 125228, Note_on_c, 0, 60, 0
3, 125228, Note_on_c, 0, 65, 0
3, 125280, Note_on_c, 0, 57, 72
3, 125280, Note_on_c, 0, 60, 81
3, 125280, Note_on_c, 0, 65, 81
3, 125280, Note_on_c, 0, 53, 72
3, 125348, Note_on_c, 0, 53, 0
3, 125348, Note_on_c, 0, 57, 0
3, 125348, Note_on_c, 0, 60, 0
3, 125348, Note_on_c, 0, 65, 0
3, 125520, Note_on_c, 0, 48, 72
3, 125520, Note_on_c, 0, 41, 72
3, 125588, Note_on_c, 0, 41, 0
3, 125588, Note_on_c, 0, 48, 0
3, 125640, Note_on_c, 0, 48, 72
3, 125640, Note_on_c, 0, 41, 72
3, 125708, Note_on_c, 0, 41, 0
3, 125708, Note_on_c, 0, 48, 0
3, 125760, Note_on_c, 0, 48, 72
3, 125760, Note_on_c, 0, 41, 72
3, 125828, Note_on_c, 0, 41, 0
3, 125828, Note_on_c, 0, 48, 0
3, 126000, Note_on_c, 0, 57, 82
3, 126000, Note_on_c, 0, 60, 82
3, 126000, Note_on_c, 0, 53, 82
3, 126090, Note_on_c, 0, 53, 0
3, 126090, Note_on_c, 0, 60, 0
3, 126090, Note_on_c, 0, 57, 0
3, 126240, Note_on_c, 0, 53, 73
3, 126240, Note_on_c, 0, 60, 82
3, 126240, Note_on_c, 0, 56, 82
3, 126360, Note_on_c, 0, 56, 0
3, 126360, Note_on_c, 0, 60, 0
3, 126360, Note_on_c, 0, 53, 0
3, 126360, Note_on_c, 0, 62, 82
3, 126480, Note_on_c, 0, 62, 0
3, 126480, Note_on_c, 0, 63, 82
3, 126600, Note_on_c, 0, 63, 0
3, 126600, Note_on_c, 0, 65, 82
3, 126720, Note_on_c, 0, 65, 0
3, 126720, Note_on_c, 0, 55, 80
3, 126720, Note_on_c, 0, 63, 89
3, 126720, Note_on_c, 0, 60, 89
3, 126960, Note_on_c, 0, 60, 0
3, 126960, Note_on_c, 0, 63, 0
3, 126960, Note_on_c, 0, 55, 0
3, 126960, Note_on_c, 0, 51, 76
3, 126960, Note_on_c, 0, 43, 76
3, 127028, Note_on_c, 0, 43, 0
3, 127028, Note_on_c, 0, 51, 0
3, 127080, Note_on_c, 0, 36, 76
3, 127148, Note_on_c, 0, 36, 0
3, 127200, Note_on_c, 0, 51, 76
3, 127200, Note_on_c, 0, 43, 76
3, 127380, Note_on_c, 0, 43, 0
3, 127380, Note_on_c, 0, 51, 0
3, 127440, Note_on_c, 0, 63, 84
3, 127560, Note_on_c, 0, 63, 0
3, 127560, Note_on_c, 0, 65, 84
3, 127680, Note_on_c, 0, 65, 0
3, 127680, Note_on_c, 0, 62, 89
3, 127680, Note_on_c, 0, 58, 80
3, 127680, Note_on_c, 0, 67, 89
3, 127920, Note_on_c, 0, 67, 0
3, 127920, Note_on_c, 0, 58, 0
3, 127920, Note_on_c, 0, 62, 0
3, 127920, Note_on_c, 0, 55, 75
3, 127920, Note_on_c, 0, 46, 75
3, 127988, Note_on_c, 0, 46, 0
3, 127988, Note_on_c, 0, 55, 0
3, 128040, Note_on_c, 0, 39, 75
3, 128108, Note_on_c, 0, 39, 0
3, 128160, Note_on_c, 0, 46, 75
3, 128160, Note_on_c, 0, 55, 75
3, 128340, Note_on_c, 0, 55, 0
3, 128340, Note_on_c, 0, 46, 0
3, 128400, Note_on_c, 0, 62, 89
3, 128520, Note_on_c, 0, 62, 0
3, 128520, Note_on_c, 0, 67, 89
3, 128640, Note_on_c, 0, 67, 0
3, 128640, Note_on_c, 0, 64, 92
3, 128640, Note_on_c, 0, 57, 82
3, 128640, Note_on_c, 0, 69, 92
3, 128880, Note_on_c, 0, 69, 0
3, 128880, Note_on_c, 0, 57, 0
3, 128880, Note_on_c, 0, 64, 0
3, 128880, Note_on_c, 0, 67, 81
3, 128880, Note_on_c, 0, 57, 72
3, 128880, Note_on_c, 0, 64, 81
3, 128948, Note_on_c, 0, 64, 0
3, 128948, Note_on_c, 0, 57, 0
3, 128948, Note_on_c, 0, 67, 0
3, 129000, Note_on_c, 0, 64, 81
3, 129000, Note_on_c, 0, 57, 72
3, 129000, Note_on_c, 0, 67, 81
3, 129068, Note_on_c, 0, 67, 0
3, 129068, Note_on_c, 0, 57, 0
3, 129068, Note_on_c, 0, 64, 0
3, 129120, Note_on_c, 0, 67, 81
3, 129120, Note_on_c, 0, 57, 72
3, 129120, Note_on_c, 0, 64, 81
3, 129188, Note_on_c, 0, 64, 0
3, 129188, Note_on_c, 0, 57, 0
3, 129188, Note_on_c, 0, 67, 0
3, 129360, Note_on_c, 0, 45, 69
3, 129360, Note_on_c, 0, 55, 77
3, 129360, Note_on_c, 0, 52, 77
3, 129428, Note_on_c, 0, 52, 0
3, 129428, Note_on_c, 0, 55, 0
3, 129428, Note_on_c, 0, 45, 0
3, 129480, Note_on_c, 0, 45, 69
3, 129480, Note_on_c, 0, 55, 77
3, 129480, Note_on_c, 0, 52, 77
3, 129548, Note_on_c, 0, 52, 0
3, 129548, Note_on_c, 0, 55, 0
3, 129548, Note_on_c, 0, 45, 0
3, 129600, Note_on_c, 0, 52, 77
3, 129600, Note_on_c, 0, 55, 77
3, 129600, Note_on_c, 0, 45, 69
3, 129668, Note_on_c, 0, 45, 0
3, 129668, Note_on_c, 0, 55, 0
3, 129668, Note_on_c, 0, 52, 0
3, 129840, Note_on_c, 0, 33, 66
3, 129840, Note_on_c, 0, 40, 66
3, 129908, Note_on_c, 0, 40, 0
3, 129908, Note_on_c, 0, 33, 0
3, 129960, Note_on_c, 0, 40, 66
3, 129960, Note_on_c, 0, 33, 66
3, 130028, Note_on_c, 0, 33, 0
3, 130028, Note_on_c, 0, 40, 0
3, 130080, Note_on_c, 0, 33, 89
3, 130080, Note_on_c, 0, 40, 89
3, 130148, Note_on_c, 0, 40, 0
3, 130148, Note_on_c, 0, 33, 0
3, 130320, Note_on_c, 0, 31, 89
3, 130440, Note_on_c, 0, 31, 0
3, 130440, Note_on_c, 0, 33, 89
3, 130560, Note_on_c, 0, 33, 0
3, 130560, Note_on_c, 0, 38, 101
3, 130560, Note_on_c, 0, 26, 101
3, 130800, Note_on_c, 0, 62, 36
3, 130800, Note_on_c, 0, 66, 40
3, 130800, Note_on_c, 0, 69, 40
3, 130800, Note_on_c, 0, 57, 36
3, 130890, Note_on_c, 0, 57, 0
3, 130890, Note_on_c, 0, 66, 0
3, 130890, Note_on_c, 0, 62, 0
3, 130890, Note_on_c, 0, 69, 0
3, 130920, Note_on_c, 0, 57, 37
3, 130920, Note_on_c, 0, 66, 42
3, 130920, Note_on_c, 0, 69, 42
3, 130920, Note_on_c, 0, 62, 37
3, 131010, Note_on_c, 0, 62, 0
3, 131010, Note_on_c, 0, 66, 0
3, 131010, Note_on_c, 0, 57, 0
3, 131010, Note_on_c, 0, 69, 0
3, 131040, Note_on_c, 0, 57, 41
3, 131040, Note_on_c, 0, 66, 46
3, 131040, Note_on_c, 0, 69, 46
3, 131040, Note_on_c, 0, 62, 41
3, 131130, Note_on_c, 0, 62, 0
3, 131130, Note_on_c, 0, 66, 0
3, 131130, Note_on_c, 0, 57, 0
3, 131130, Note_on_c, 0, 69, 0
3, 131160, Note_on_c, 0, 62, 43
3, 131160, Note_on_c, 0, 58, 43
3, 131160, Note_on_c, 0, 70, 48
3, 131160, Note_on_c, 0, 66, 48
3, 131250, Note_on_c, 0, 66, 0
3, 131250, Note_on_c, 0, 58, 0
3, 131250, Note_on_c, 0, 62, 0
3, 131250, Note_on_c, 0, 70, 0
3, 131280, Note_on_c, 0, 62, 45
3, 131280, Note_on_c, 0, 58, 45
3, 131280, Note_on_c, 0, 70, 51
3, 131280, Note_on_c, 0, 66, 51
3, 131370, Note_on_c, 0, 66, 0
3, 131370, Note_on_c, 0, 58, 0
3, 131370, Note_on_c, 0, 62, 0
3, 131370, Note_on_c, 0, 70, 0
3, 131400, Note_on_c, 0, 57, 48
3, 131400, Note_on_c, 0, 66, 54
3, 131400, Note_on_c, 0, 62, 48
3, 131400, Note_on_c, 0, 69, 54
3, 131490, Note_on_c, 0, 69, 0
3, 131490, Note_on_c, 0, 66, 0
3, 131490, Note_on_c, 0, 57, 0
3, 131490, Note_on_c, 0, 62, 0
3, 131520, Note_on_c, 0, 57, 50
3, 131520, Note_on_c, 0, 66, 56
3, 131520, Note_on_c, 0, 62, 50
3, 131520, Note_on_c, 0, 69, 56
3, 131610, Note_on_c, 0, 69, 0
3, 131610, Note_on_c, 0, 66, 0
3, 131610, Note_on_c, 0, 57, 0
3, 131610, Note_on_c, 0, 62, 0
3, 131640, Note_on_c, 0, 62, 53
3, 131640, Note_on_c, 0, 66, 59
3, 131640, Note_on_c, 0, 70, 59
3, 131640, Note_on_c, 0, 58, 53
3, 131730, Note_on_c, 0, 58, 0
3, 131730, Note_on_c, 0, 66, 0
3, 131730, Note_on_c, 0, 62, 0
3, 131730, Note_on_c, 0, 70, 0
3, 131760, Note_on_c, 0, 62, 56
3, 131760, Note_on_c, 0, 66, 63
3, 131760, Note_on_c, 0, 70, 63
3, 131760, Note_on_c, 0, 58, 56
3, 131850, Note_on_c, 0, 58, 0
3, 131850, Note_on_c, 0, 66, 0
3, 131850, Note_on_c, 0, 62, 0
3, 131850, Note_on_c, 0, 70, 0
3, 131880, Note_on_c, 0, 62, 58
3, 131880, Note_on_c, 0, 66, 65
3, 131880, Note_on_c, 0, 69, 65
3, 131880, Note_on_c, 0, 57, 58
3, 131970, Note_on_c, 0, 57, 0
3, 131970, Note_on_c, 0, 66, 0
3, 131970, Note_on_c, 0, 62, 0
3, 131970, Note_on_c, 0, 69, 0
3, 132000, Note_on_c, 0, 57, 61
3, 132000, Note_on_c, 0, 66, 68
3, 132000, Note_on_c, 0, 69, 68
3, 132000, Note_on_c, 0, 62, 61
3, 132090, Note_on_c, 0, 62, 0
3, 132090, Note_on_c, 0, 66, 0
3, 132090, Note_on_c, 0, 57, 0
3, 132090, Note_on_c, 0, 69, 0
3, 132120, Note_on_c, 0, 58, 64
3, 132120, Note_on_c, 0, 66, 72
3, 132120, Note_on_c, 0, 70, 72
3, 132120, Note_on_c, 0, 62, 64
3, 132210, Note_on_c, 0, 62, 0
3, 132210, Note_on_c, 0, 66, 0
3, 132210, Note_on_c, 0, 58, 0
3, 132210, Note_on_c, 0, 70, 0
3, 132240, Note_on_c, 0, 62, 65
3, 132240, Note_on_c, 0, 58, 65
3, 132240, Note_on_c, 0, 70, 73
3, 132240, Note_on_c, 0, 66, 73
3, 132330, Note_on_c, 0, 66, 0
3, 132330, Note_on_c, 0, 58, 0
3, 132330, Note_on_c, 0, 62, 0
3, 132330, Note_on_c, 0, 70, 0
3, 132360, Note_on_c, 0, 62, 68
3, 132360, Note_on_c, 0, 57, 68
3, 132360, Note_on_c, 0, 69, 76
3, 132360, Note_on_c, 0, 66, 76
3, 132450, Note_on_c, 0, 66, 0
3, 132450, Note_on_c, 0, 57, 0
3, 132450, Note_on_c, 0, 62, 0
3, 132450, Note_on_c, 0, 69, 0
3, 132480, Note_on_c, 0, 26, 0
3, 132480, Note_on_c, 0, 38, 0
3, 132480, Note_on_c, 0, 57, 72
3, 132480, Note_on_c, 0, 66, 80
3, 132480, Note_on_c, 0, 62, 72
3, 132480, Note_on_c, 0, 69, 80
3, 132570, Note_on_c, 0, 69, 0
3, 132570, Note_on_c, 0, 57, 0
3, 132570, Note_on_c, 0, 66, 0
3, 132570, Note_on_c, 0, 62, 0
3, 132720, Note_on_c, 0, 66, 76
3, 132810, Note_on_c, 0, 66, 0
3, 132840, Note_on_c, 0, 63, 76
3, 132930, Note_on_c, 0, 63, 0
3, 132960, Note_on_c, 0, 62, 76
3, 133050, Note_on_c, 0, 62, 0
3, 133080, Note_on_c, 0, 60, 76
3, 133170, Note_on_c, 0, 60, 0
3, 133200, Note_on_c, 0, 58, 76
3, 133290, Note_on_c, 0, 58, 0
3, 133320, Note_on_c, 0, 57, 76
3, 133410, Note_on_c, 0, 57, 0
3, 133440, Note_on_c, 0, 54, 76
3, 133530, Note_on_c, 0, 54, 0
3, 133560, Note_on_c, 0, 51, 76
3, 133650, Note_on_c, 0, 51, 0
3, 133680, Note_on_c, 0, 50, 76
3, 133770, Note_on_c, 0, 50, 0
3, 133800, Note_on_c, 0, 48, 76
3, 133890, Note_on_c, 0, 48, 0
3, 133920, Note_on_c, 0, 46, 76
3, 134010, Note_on_c, 0, 46, 0
3, 134040, Note_on_c, 0, 45, 76
3, 134130, Note_on_c, 0, 45, 0
3, 134160, Note_on_c, 0, 42, 81
3, 134280, Note_on_c, 0, 42, 0
3, 134280, Note_on_c, 0, 38, 76
3, 134400, Note_on_c, 0, 38, 0
3, 134400, Note_on_c, 0, 31, 97
3, 134400, Control_c, 0, 91, 127
3, 134400, Note_on_c, 0, 43, 97
3, 134640, Note_on_c, 0, 43, 0
3, 134640, Note_on_c, 0, 31, 0
3, 134640, Note_on_c, 0, 58, 72
3, 134640, Note_on_c, 0, 55, 64
3, 134640, Note_on_c, 0, 50, 64
3, 134640, Note_on_c, 0, 62, 72
3, 134708, Note_on_c, 0, 62, 0
3, 134708, Note_on_c, 0, 58, 0
3, 134708, Note_on_c, 0, 55, 0
3, 134708, Note_on_c, 0, 50, 0
3, 134760, Note_on_c, 0, 62, 72
3, 134760, Note_on_c, 0, 55, 64
3, 134760, Note_on_c, 0, 50, 64
3, 134760, Note_on_c, 0, 58, 72
3, 134828, Note_on_c, 0, 58, 0
3, 134828, Note_on_c, 0, 62, 0
3, 134828, Note_on_c, 0, 55, 0
3, 134828, Note_on_c, 0, 50, 0
3, 134880, Note_on_c, 0, 50, 64
3, 134880, Note_on_c, 0, 58, 72
3, 134880, Note_on_c, 0, 62, 72
3, 134880, Note_on_c, 0, 55, 64
3, 135060, Note_on_c, 0, 55, 0
3, 135060, Note_on_c, 0, 50, 0
3, 135060, Note_on_c, 0, 58, 0
3, 135060, Note_on_c, 0, 62, 0
3, 135120, Note_on_c, 0, 45, 78
3, 135240, Note_on_c, 0, 45, 0
3, 135240, Note_on_c, 0, 46, 82
3, 135360, Note_on_c, 0, 46, 0
3, 135360, Note_on_c, 0, 38, 90
3, 135360, Note_on_c, 0, 50, 90
3, 135600, Note_on_c, 0, 58, 55
3, 135600, Note_on_c, 0, 62, 55
3, 135600, Note_on_c, 0, 55, 49
3, 135668, Note_on_c, 0, 55, 0
3, 135668, Note_on_c, 0, 58, 0
3, 135668, Note_on_c, 0, 62, 0
3, 135720, Note_on_c, 0, 58, 58
3, 135720, Note_on_c, 0, 63, 58
3, 135720, Note_on_c, 0, 55, 52
3, 135788, Note_on_c, 0, 55, 0
3, 135788, Note_on_c, 0, 58, 0
3, 135788, Note_on_c, 0, 63, 0
3, 135840, Note_on_c, 0, 63, 64
3, 135840, Note_on_c, 0, 55, 57
3, 135840, Note_on_c, 0, 58, 64
3, 135908, Note_on_c, 0, 58, 0
3, 135908, Note_on_c, 0, 63, 0
3, 135908, Note_on_c, 0, 55, 0
3, 135960, Note_on_c, 0, 58, 71
3, 135960, Note_on_c, 0, 55, 63
3, 135960, Note_on_c, 0, 64, 71
3, 136028, Note_on_c, 0, 64, 0
3, 136028, Note_on_c, 0, 58, 0
3, 136028, Note_on_c, 0, 55, 0
3, 136080, Note_on_c, 0, 58, 76
3, 136080, Note_on_c, 0, 55, 68
3, 136080, Note_on_c, 0, 64, 76
3, 136260, Note_on_c, 0, 64, 0
3, 136260, Note_on_c, 0, 58, 0
3, 136260, Note_on_c, 0, 55, 0
3, 136320, Note_on_c, 0, 50, 0
3, 136320, Note_on_c, 0, 38, 0
3, 136320, Note_on_c, 0, 43, 97
3, 136320, Note_on_c, 0, 31, 97
3, 136560, Note_on_c, 0, 31, 0
3, 136560, Note_on_c, 0, 43, 0
3, 136560, Note_on_c, 0, 58, 72
3, 136560, Note_on_c, 0, 50, 64
3, 136560, Note_on_c, 0, 53, 64
3, 136560, Note_on_c, 0, 62, 72
3, 136628, Note_on_c, 0, 62, 0
3, 136628, Note_on_c, 0, 58, 0
3, 136628, Note_on_c, 0, 50, 0
3, 136628, Note_on_c, 0, 53, 0
3, 136680, Note_on_c, 0, 58, 72
3, 136680, Note_on_c, 0, 53, 64
3, 136680, Note_on_c, 0, 50, 64
3, 136680, Note_on_c, 0, 62, 72
3, 136748, Note_on_c, 0, 62, 0
3, 136748, Note_on_c, 0, 58, 0
3, 136748, Note_on_c, 0, 53, 0
3, 136748, Note_on_c, 0, 50, 0
3, 136800, Note_on_c, 0, 58, 72
3, 136800, Note_on_c, 0, 53, 64
3, 136800, Note_on_c, 0, 50, 64
3, 136800, Note_on_c, 0, 62, 72
3, 136980, Note_on_c, 0, 62, 0
3, 136980, Note_on_c, 0, 58, 0
3, 136980, Note_on_c, 0, 53, 0
3, 136980, Note_on_c, 0, 50, 0
3, 137040, Note_on_c, 0, 45, 77
3, 137160, Note_on_c, 0, 45, 0
3, 137160, Note_on_c, 0, 46, 81
3, 137280, Note_on_c, 0, 46, 0
3, 137280, Note_on_c, 0, 50, 89
3, 137280, Note_on_c, 0, 38, 89
3, 137520, Note_on_c, 0, 58, 55
3, 137520, Note_on_c, 0, 55, 49
3, 137520, Note_on_c, 0, 60, 55
3, 137588, Note_on_c, 0, 60, 0
3, 137588, Note_on_c, 0, 58, 0
3, 137588, Note_on_c, 0, 55, 0
3, 137640, Note_on_c, 0, 58, 59
3, 137640, Note_on_c, 0, 61, 59
3, 137640, Note_on_c, 0, 55, 53
3, 137708, Note_on_c, 0, 55, 0
3, 137708, Note_on_c, 0, 58, 0
3, 137708, Note_on_c, 0, 61, 0
3, 137760, Note_on_c, 0, 61, 63
3, 137760, Note_on_c, 0, 55, 56
3, 137760, Note_on_c, 0, 58, 63
3, 137828, Note_on_c, 0, 58, 0
3, 137828, Note_on_c, 0, 61, 0
3, 137828, Note_on_c, 0, 55, 0
3, 137880, Note_on_c, 0, 58, 66
3, 137880, Note_on_c, 0, 55, 59
3, 137880, Note_on_c, 0, 62, 66
3, 137948, Note_on_c, 0, 62, 0
3, 137948, Note_on_c, 0, 58, 0
3, 137948, Note_on_c, 0, 55, 0
3, 138000, Note_on_c, 0, 58, 70
3, 138000, Note_on_c, 0, 62, 70
3, 138000, Note_on_c, 0, 55, 63
3, 138180, Note_on_c, 0, 55, 0
3, 138180, Note_on_c, 0, 58, 0
3, 138180, Note_on_c, 0, 62, 0
3, 138240, Note_on_c, 0, 38, 0
3, 138240, Note_on_c, 0, 50, 0
3, 138240, Note_on_c, 0, 43, 97
3, 138240, Note_on_c, 0, 31, 97
3, 138480, Note_on_c, 0, 58, 73
3, 138480, Note_on_c, 0, 55, 65
3, 138480, Note_on_c, 0, 63, 73
3, 138548, Note_on_c, 0, 63, 0
3, 138548, Note_on_c, 0, 58, 0
3, 138548, Note_on_c, 0, 55, 0
3, 138600, Note_on_c, 0, 63, 73
3, 138600, Note_on_c, 0, 55, 65
3, 138600, Note_on_c, 0, 58, 73
3, 138668, Note_on_c, 0, 58, 0
3, 138668, Note_on_c, 0, 63, 0
3, 138668, Note_on_c, 0, 55, 0
3, 138720, Note_on_c, 0, 58, 73
3, 138720, Note_on_c, 0, 55, 65
3, 138720, Note_on_c, 0, 63, 73
3, 138810, Note_on_c, 0, 63, 0
3, 138810, Note_on_c, 0, 58, 0
3, 138810, Note_on_c, 0, 55, 0
3, 138960, Note_on_c, 0, 31, 0
3, 138960, Note_on_c, 0, 43, 0
3, 138960, Note_on_c, 0, 51, 89
3, 139050, Note_on_c, 0, 51, 0
3, 139200, Note_on_c, 0, 43, 96
3, 139200, Note_on_c, 0, 31, 96
3, 139440, Note_on_c, 0, 52, 64
3, 139440, Note_on_c, 0, 58, 72
3, 139440, Note_on_c, 0, 55, 72
3, 139508, Note_on_c, 0, 55, 0
3, 139508, Note_on_c, 0, 52, 0
3, 139508, Note_on_c, 0, 58, 0
3, 139560, Note_on_c, 0, 55, 72
3, 139560, Note_on_c, 0, 58, 72
3, 139560, Note_on_c, 0, 52, 64
3, 139628, Note_on_c, 0, 52, 0
3, 139628, Note_on_c, 0, 55, 0
3, 139628, Note_on_c, 0, 58, 0
3, 139680, Note_on_c, 0, 55, 72
3, 139680, Note_on_c, 0, 52, 64
3, 139680, Note_on_c, 0, 58, 72
3, 139770, Note_on_c, 0, 58, 0
3, 139770, Note_on_c, 0, 55, 0
3, 139770, Note_on_c, 0, 52, 0
3, 139920, Note_on_c, 0, 31, 0
3, 139920, Note_on_c, 0, 43, 0
3, 139920, Note_on_c, 0, 52, 89
3, 140010, Note_on_c, 0, 52, 0
3, 140160, Note_on_c, 0, 31, 97
3, 140160, Note_on_c, 0, 43, 97
3, 140400, Note_on_c, 0, 58, 72
3, 140400, Note_on_c, 0, 55, 72
3, 140400, Note_on_c, 0, 53, 64
3, 140468, Note_on_c, 0, 53, 0
3, 140468, Note_on_c, 0, 58, 0
3, 140468, Note_on_c, 0, 55, 0
3, 140520, Note_on_c, 0, 55, 72
3, 140520, Note_on_c, 0, 58, 72
3, 140520, Note_on_c, 0, 53, 64
3, 140588, Note_on_c, 0, 53, 0
3, 140588, Note_on_c, 0, 55, 0
3, 140588, Note_on_c, 0, 58, 0
3, 140640, Note_on_c, 0, 53, 64
3, 140640, Note_on_c, 0, 58, 72
3, 140640, Note_on_c, 0, 55, 72
3, 140730, Note_on_c, 0, 55, 0
3, 140730, Note_on_c, 0, 53, 0
3, 140730, Note_on_c, 0, 58, 0
3, 140880, Note_on_c, 0, 43, 0
3, 140880, Note_on_c, 0, 31, 0
3, 140880, Note_on_c, 0, 53, 89
3, 140970, Note_on_c, 0, 53, 0
3, 141120, Note_on_c, 0, 31, 89
3, 141120, Note_on_c, 0, 43, 89
3, 141210, Note_on_c, 0, 43, 0
3, 141210, Note_on_c, 0, 31, 0
3, 141360, Note_on_c, 0, 54, 76
3, 141450, Note_on_c, 0, 54, 0
3, 141600, Note_on_c, 0, 43, 89
3, 141600, Note_on_c, 0, 31, 89
3, 141690, Note_on_c, 0, 31, 0
3, 141690, Note_on_c, 0, 43, 0
3, 141840, Note_on_c, 0, 55, 76
3, 141930, Note_on_c, 0, 55, 0
3, 142080, Note_on_c, 0, 43, 97
3, 142080, Note_on_c, 0, 31, 97
3, 142320, Note_on_c, 0, 31, 0
3, 142320, Note_on_c, 0, 43, 0
3, 142320, Note_on_c, 0, 55, 72
3, 142320, Note_on_c, 0, 51, 72
3, 142388, Note_on_c, 0, 51, 0
3, 142388, Note_on_c, 0, 55, 0
3, 142440, Note_on_c, 0, 55, 72
3, 142440, Note_on_c, 0, 51, 72
3, 142508, Note_on_c, 0, 51, 0
3, 142508, Note_on_c, 0, 55, 0
3, 142560, Note_on_c, 0, 51, 72
3, 142560, Note_on_c, 0, 55, 72
3, 142740, Note_on_c, 0, 55, 0
3, 142740, Note_on_c, 0, 51, 0
3, 142800, Note_on_c, 0, 47, 78
3, 142920, Note_on_c, 0, 47, 0
3, 142920, Note_on_c, 0, 48, 82
3, 143040, Note_on_c, 0, 48, 0
3, 143040, Note_on_c, 0, 51, 90
3, 143040, Note_on_c, 0, 39, 90
3, 143280, Note_on_c, 0, 51, 0
3, 143280, Note_on_c, 0, 51, 64
3, 143280, Note_on_c, 0, 55, 64
3, 143348, Note_on_c, 0, 55, 0
3, 143348, Note_on_c, 0, 51, 0
3, 143400, Note_on_c, 0, 56, 69
3, 143400, Note_on_c, 0, 51, 69
3, 143468, Note_on_c, 0, 51, 0
3, 143468, Note_on_c, 0, 56, 0
3, 143520, Note_on_c, 0, 51, 72
3, 143520, Note_on_c, 0, 56, 72
3, 143588, Note_on_c, 0, 56, 0
3, 143588, Note_on_c, 0, 51, 0
3, 143640, Note_on_c, 0, 51, 77
3, 143640, Note_on_c, 0, 57, 77
3, 143708, Note_on_c, 0, 57, 0
3, 143708, Note_on_c, 0, 51, 0
3, 143760, Note_on_c, 0, 57, 81
3, 143760, Note_on_c, 0, 51, 81
3, 143850, Note_on_c, 0, 51, 0
3, 143850, Note_on_c, 0, 57, 0
3, 144000, Note_on_c, 0, 39, 0
3, 144000, Note_on_c, 0, 31, 97
3, 144000, Note_on_c, 0, 43, 97
3, 144240, Note_on_c, 0, 43, 0
3, 144240, Note_on_c, 0, 31, 0
3, 144240, Note_on_c, 0, 58, 72
3, 144240, Note_on_c, 0, 51, 72
3, 144308, Note_on_c, 0, 51, 0
3, 144308, Note_on_c, 0, 58, 0
3, 144360, Note_on_c, 0, 58, 72
3, 144360, Note_on_c, 0, 51, 72
3, 144428, Note_on_c, 0, 51, 0
3, 144428, Note_on_c, 0, 58, 0
3, 144480, Note_on_c, 0, 58, 72
3, 144480, Note_on_c, 0, 51, 72
3, 144660, Note_on_c, 0, 51, 0
3, 144660, Note_on_c, 0, 58, 0
3, 144720, Note_on_c, 0, 45, 78
3, 144840, Note_on_c, 0, 45, 0
3, 144840, Note_on_c, 0, 46, 82
3, 144960, Note_on_c, 0, 46, 0
3, 144960, Note_on_c, 0, 39, 90
3, 144960, Note_on_c, 0, 51, 90
3, 145200, Note_on_c, 0, 51, 0
3, 145200, Note_on_c, 0, 51, 68
3, 145200, Note_on_c, 0, 53, 68
3, 145268, Note_on_c, 0, 53, 0
3, 145268, Note_on_c, 0, 51, 0
3, 145320, Note_on_c, 0, 51, 72
3, 145320, Note_on_c, 0, 54, 72
3, 145388, Note_on_c, 0, 54, 0
3, 145388, Note_on_c, 0, 51, 0
3, 145440, Note_on_c, 0, 51, 76
3, 145440, Note_on_c, 0, 54, 76
3, 145508, Note_on_c, 0, 54, 0
3, 145508, Note_on_c, 0, 51, 0
3, 145560, Note_on_c, 0, 55, 79
3, 145560, Note_on_c, 0, 51, 79
3, 145628, Note_on_c, 0, 51, 0
3, 145628, Note_on_c, 0, 55, 0
3, 145680, Note_on_c, 0, 55, 84
3, 145680, Note_on_c, 0, 51, 84
3, 145770, Note_on_c, 0, 51, 0
3, 145770, Note_on_c, 0, 55, 0
3, 145920, Note_on_c, 0, 39, 0
3, 145920, Note_on_c, 0, 43, 88
3, 145920, Note_on_c, 0, 31, 88
3, 146160, Note_on_c, 0, 56, 72
3, 146160, Note_on_c, 0, 51, 72
3, 146250, Note_on_c, 0, 51, 0
3, 146250, Note_on_c, 0, 56, 0
3, 146280, Note_on_c, 0, 56, 72
3, 146280, Note_on_c, 0, 51, 72
3, 146370, Note_on_c, 0, 51, 0
3, 146370, Note_on_c, 0, 56, 0
3, 146400, Note_on_c, 0, 56, 72
3, 146400, Note_on_c, 0, 51, 72
3, 146640, Note_on_c, 0, 51, 0
3, 146640, Note_on_c, 0, 43, 0
3, 146640, Note_on_c, 0, 31, 0
3, 146640, Note_on_c, 0, 56, 0
3, 146640, Note_on_c, 0, 56, 81
3, 146640, Note_on_c, 0, 44, 81
3, 146708, Note_on_c, 0, 44, 0
3, 146708, Note_on_c, 0, 56, 0
3, 146880, Note_on_c, 0, 43, 88
3, 146880, Note_on_c, 0, 31, 88
3, 147120, Note_on_c, 0, 51, 72
3, 147120, Note_on_c, 0, 57, 72
3, 147188, Note_on_c, 0, 57, 0
3, 147188, Note_on_c, 0, 51, 0
3, 147240, Note_on_c, 0, 51, 72
3, 147240, Note_on_c, 0, 57, 72
3, 147308, Note_on_c, 0, 57, 0
3, 147308, Note_on_c, 0, 51, 0
3, 147360, Note_on_c, 0, 51, 72
3, 147360, Note_on_c, 0, 57, 72
3, 147540, Note_on_c, 0, 57, 0
3, 147540, Note_on_c, 0, 51, 0
3, 147600, Note_on_c, 0, 31, 0
3, 147600, Note_on_c, 0, 43, 0
3, 147600, Note_on_c, 0, 57, 81
3, 147600, Note_on_c, 0, 45, 81
3, 147668, Note_on_c, 0, 45, 0
3, 147668, Note_on_c, 0, 57, 0
3, 147840, Note_on_c, 0, 27, 88
3, 147840, Note_on_c, 0, 39, 88
3, 148080, Note_on_c, 0, 57, 72
3, 148080, Note_on_c, 0, 51, 72
3, 148148, Note_on_c, 0, 51, 0
3, 148148, Note_on_c, 0, 57, 0
3, 148200, Note_on_c, 0, 57, 72
3, 148200, Note_on_c, 0, 51, 72
3, 148268, Note_on_c, 0, 51, 0
3, 148268, Note_on_c, 0, 57, 0
3, 148320, Note_on_c, 0, 57, 72
3, 148320, Note_on_c, 0, 51, 72
3, 148500, Note_on_c, 0, 51, 0
3, 148500, Note_on_c, 0, 57, 0
3, 148560, Note_on_c, 0, 39, 0
3, 148560, Note_on_c, 0, 27, 0
3, 148560, Note_on_c, 0, 46, 81
3, 148560, Note_on_c, 0, 58, 81
3, 148628, Note_on_c, 0, 58, 0
3, 148628, Note_on_c, 0, 46, 0
3, 148800, Note_on_c, 0, 26, 88
3, 148800, Note_on_c, 0, 38, 88
3, 149040, Note_on_c, 0, 58, 72
3, 149040, Note_on_c, 0, 50, 72
3, 149108, Note_on_c, 0, 50, 0
3, 149108, Note_on_c, 0, 58, 0
3, 149160, Note_on_c, 0, 50, 72
3, 149160, Note_on_c, 0, 58, 72
3, 149228, Note_on_c, 0, 58, 0
3, 149228, Note_on_c, 0, 50, 0
3, 149280, Note_on_c, 0, 50, 72
3, 149280, Note_on_c, 0, 58, 72
3, 149460, Note_on_c, 0, 58, 0
3, 149460, Note_on_c, 0, 50, 0
3, 149520, Note_on_c, 0, 38, 0
3, 149520, Note_on_c, 0, 26, 0
3, 149520, Note_on_c, 0, 50, 81
3, 149588, Note_on_c, 0, 50, 0
3, 149760, Note_on_c, 0, 31, 81
3, 149760, Note_on_c, 0, 43, 81
3, 149880, Note_on_c, 0, 43, 0
3, 149880, Note_on_c, 0, 31, 0
3, 150000, Note_on_c, 0, 43, 64
3, 150000, Note_on_c, 0, 50, 64
3, 150068, Note_on_c, 0, 50, 0
3, 150068, Note_on_c, 0, 43, 0
3, 150120, Note_on_c, 0, 43, 64
3, 150120, Note_on_c, 0, 50, 64
3, 150188, Note_on_c, 0, 50, 0
3, 150188, Note_on_c, 0, 43, 0
3, 150240, Note_on_c, 0, 43, 64
3, 150240, Note_on_c, 0, 50, 64
3, 150420, Note_on_c, 0, 50, 0
3, 150420, Note_on_c, 0, 43, 0
3, 150480, Note_on_c, 0, 51, 62
3, 150480, Note_on_c, 0, 46, 62
3, 150548, Note_on_c, 0, 46, 0
3, 150548, Note_on_c, 0, 51, 0
3, 150600, Note_on_c, 0, 51, 62
3, 150600, Note_on_c, 0, 46, 62
3, 150668, Note_on_c, 0, 46, 0
3, 150668, Note_on_c, 0, 51, 0
3, 150720, Note_on_c, 0, 51, 62
3, 150720, Note_on_c, 0, 46, 62
3, 150900, Note_on_c, 0, 46, 0
3, 150900, Note_on_c, 0, 51, 0
3, 150960, Note_on_c, 0, 34, 60
3, 150960, Note_on_c, 0, 46, 60
3, 151028, Note_on_c, 0, 46, 0
3, 151028, Note_on_c, 0, 34, 0
3, 151200, Note_on_c, 0, 50, 64
3, 151200, Note_on_c, 0, 38, 64
3, 151290, Note_on_c, 0, 38, 0
3, 151290, Note_on_c, 0, 50, 0
3, 151440, Note_on_c, 0, 45, 57
3, 151440, Note_on_c, 0, 33, 57
3, 151530, Note_on_c, 0, 33, 0
3, 151530, Note_on_c, 0, 45, 0
3, 151680, Note_on_c, 0, 43, 64
3, 151680, Note_on_c, 0, 31, 64
3, 151800, Note_on_c, 0, 31, 0
3, 151800, Note_on_c, 0, 43, 0
3, 151920, Note_on_c, 0, 55, 54
3, 151920, Note_on_c, 0, 50, 54
3, 151988, Note_on_c, 0, 50, 0
3, 151988, Note_on_c, 0, 55, 0
3, 152040, Note_on_c, 0, 50, 54
3, 152040, Note_on_c, 0, 55, 54
3, 152108, Note_on_c, 0, 55, 0
3, 152108, Note_on_c, 0, 50, 0
3, 152160, Note_on_c, 0, 50, 54
3, 152160, Note_on_c, 0, 55, 54
3, 152339, Note_on_c, 0, 55, 0
3, 152340, Note_on_c, 0, 50, 0
3, 152400, Note_on_c, 0, 46, 51
3, 152400, Note_on_c, 0, 39, 51
3, 152468, Note_on_c, 0, 39, 0
3, 152468, Note_on_c, 0, 46, 0
3, 152520, Note_on_c, 0, 39, 50
3, 152520, Note_on_c, 0, 46, 50
3, 152588, Note_on_c, 0, 46, 0
3, 152588, Note_on_c, 0, 39, 0
3, 152640, Note_on_c, 0, 46, 50
3, 152640, Note_on_c, 0, 39, 50
3, 152820, Note_on_c, 0, 39, 0
3, 152820, Note_on_c, 0, 46, 0
3, 152880, Note_on_c, 0, 34, 46
3, 152948, Note_on_c, 0, 34, 0
3, 153120, Note_on_c, 0, 38, 51
3, 153210, Note_on_c, 0, 38, 0
3, 153360, Note_on_c, 0, 33, 44
3, 153450, Note_on_c, 0, 33, 0
3, 153600, Note_on_c, 0, 31, 48
3, 153720, Note_on_c, 0, 31, 0
3, 153840, Note_on_c, 0, 43, 33
3, 153840, Note_on_c, 0, 50, 33
3, 153908, Note_on_c, 0, 50, 0
3, 153908, Note_on_c, 0, 43, 0
3, 153960, Note_on_c, 0, 50, 33
3, 153960, Note_on_c, 0, 43, 33
3, 154028, Note_on_c, 0, 43, 0
3, 154028, Note_on_c, 0, 50, 0
3, 154080, Note_on_c, 0, 50, 33
3, 154080, Note_on_c, 0, 43, 33
3, 154260, Note_on_c, 0, 43, 0
3, 154260, Note_on_c, 0, 50, 0
3, 154320, Note_on_c, 0, 33, 41
3, 154440, Note_on_c, 0, 33, 0
3, 154440, Note_on_c, 0, 34, 45
3, 154560, Note_on_c, 0, 34, 0
3, 154560, Note_on_c, 0, 38, 48
3, 154800, Note_on_c, 0, 50, 32
3, 154800, Note_on_c, 0, 46, 32
3, 154890, Note_on_c, 0, 46, 0
3, 154890, Note_on_c, 0, 50, 0
3, 155040, Note_on_c, 0, 50, 33
3, 155040, Note_on_c, 0, 45, 33
3, 155130, Note_on_c, 0, 45, 0
3, 155130, Note_on_c, 0, 50, 0
3, 155520, Note_on_c, 0, 38, 0
3, 155520, Note_on_c, 0, 31, 44
3, 155760, Note_on_c, 0, 31, 0
3, 155760, Note_on_c, 0, 43, 28
3, 155760, Note_on_c, 0, 50, 28
3, 155850, Note_on_c, 0, 50, 0
3, 155850, Note_on_c, 0, 43, 0
3, 155880, Note_on_c, 0, 50, 28
3, 155880, Note_on_c, 0, 43, 28
3, 155970, Note_on_c, 0, 43, 0
3, 155970, Note_on_c, 0, 50, 0
3, 156000, Note_on_c, 0, 43, 28
3, 156000, Note_on_c, 0, 50, 28
3, 156240, Note_on_c, 0, 50, 0
3, 156240, Note_on_c, 0, 43, 0
3, 156240, Note_on_c, 0, 33, 39
3, 156360, Note_on_c, 0, 33, 0
3, 156360, Note_on_c, 0, 34, 42
3, 156480, Note_on_c, 0, 34, 0
3, 156480, Note_on_c, 0, 38, 45
3, 156720, Note_on_c, 0, 46, 31
3, 156810, Note_on_c, 0, 46, 0
3, 156960, Note_on_c, 0, 45, 31
3, 157050, Note_on_c, 0, 45, 0
3, 157440, Note_on_c, 0, 38, 0
3, 157440, Note_on_c, 0, 31, 33
3, 157680, Note_on_c, 0, 31, 0
3, 158160, Note_on_c, 0, 38, 29
3, 158400, Note_on_c, 0, 38, 0
3, 158400, Note_on_c, 0, 31, 29
3, 158400, Note_on_c, 0, 38, 29
3, 158640, Note_on_c, 0, 38, 0
3, 158640, Note_on_c, 0, 31, 0
3, 158880, Note_on_c, 0, 50, 27
3, 159000, Note_on_c, 0, 50, 0
3, 159000, Note_on_c, 0, 52, 28
3, 159120, Note_on_c, 0, 52, 0
3, 159120, Note_on_c, 0, 54, 30
3, 159360, Note_on_c, 0, 54, 0
3, 159360, Note_on_c, 0, 50, 33
3, 159360, Note_on_c, 0, 43, 33
3, 159360, Note_on_c, 0, 55, 33
3, 159600, Note_on_c, 0, 55, 0
3, 159600, Note_on_c, 0, 43, 0
3, 159600, Note_on_c, 0, 50, 0
3, 159840, Note_on_c, 0, 62, 27
3, 159960, Note_on_c, 0, 62, 0
3, 159960, Note_on_c, 0, 64, 28
3, 160080, Note_on_c, 0, 64, 0
3, 160080, Note_on_c, 0, 66, 30
3, 160320, Note_on_c, 0, 66, 0
3, 160320, Note_on_c, 0, 55, 33
3, 160320, Note_on_c, 0, 67, 33
3, 160320, Note_on_c, 0, 62, 33
3, 160560, Note_on_c, 0, 62, 0
3, 160560, Note_on_c, 0, 67, 0
3, 160560, Note_on_c, 0, 55, 0
3, 160800, Note_on_c, 0, 74, 27
3, 160920, Note_on_c, 0, 74, 0
3, 160920, Note_on_c, 0, 76, 28
3, 161040, Note_on_c, 0, 76, 0
3, 161040, Note_on_c, 0, 78, 30
3, 161280, Note_on_c, 0, 78, 0
3, 161280, Note_on_c, 0, 74, 36
3, 161280, Note_on_c, 0, 79, 36
3, 161280, Note_on_c, 0, 67, 36
3, 161400, Note_on_c, 0, 67, 0
3, 161400, Note_on_c, 0, 79, 0
3, 161400, Note_on_c, 0, 74, 0
3, 161760, Note_on_c, 0, 55, 32
3, 161880, Note_on_c, 0, 55, 0
3, 161880, End_track
4, 0, Start_track
4, 0, Title_t, "Pedale"
4, 46, Control_c, 0, 64, 127
4, 512, Control_c, 0, 64, 0
4, 1952, Control_c, 0, 64, 127
4, 2432, Control_c, 0, 64, 0
4, 3890, Control_c, 0, 64, 127
4, 4356, Control_c, 0, 64, 0
4, 4627, Control_c, 0, 64, 127
4, 4825, Control_c, 0, 64, 0
4, 4934, Control_c, 0, 64, 127
4, 5520, Control_c, 0, 64, 0
4, 5594, Control_c, 0, 64, 127
4, 5786, Control_c, 0, 64, 0
4, 5846, Control_c, 0, 64, 127
4, 6487, Control_c, 0, 64, 0
4, 6591, Control_c, 0, 64, 127
4, 6739, Control_c, 0, 64, 0
4, 6831, Control_c, 0, 64, 127
4, 7447, Control_c, 0, 64, 0
4, 7554, Control_c, 0, 64, 127
4, 7680, Control_c, 0, 64, 0
4, 7757, Control_c, 0, 64, 127
4, 8326, Control_c, 0, 64, 0
4, 9623, Control_c, 0, 64, 127
4, 10209, Control_c, 0, 64, 0
4, 11632, Control_c, 0, 64, 127
4, 12100, Control_c, 0, 64, 0
4, 13977, Control_c, 0, 64, 127
4, 14223, Control_c, 0, 64, 0
4, 14932, Control_c, 0, 64, 127
4, 15235, Control_c, 0, 64, 0
4, 15869, Control_c, 0, 64, 127
4, 16223, Control_c, 0, 64, 0
4, 16430, Control_c, 0, 64, 127
4, 16843, Control_c, 0, 64, 0
4, 18307, Control_c, 0, 64, 127
4, 18766, Control_c, 0, 64, 0
4, 20231, Control_c, 0, 64, 127
4, 20686, Control_c, 0, 64, 0
4, 20976, Control_c, 0, 64, 127
4, 21148, Control_c, 0, 64, 0
4, 21283, Control_c, 0, 64, 127
4, 21851, Control_c, 0, 64, 0
4, 21921, Control_c, 0, 64, 127
4, 22097, Control_c, 0, 64, 0
4, 22243, Control_c, 0, 64, 127
4, 22646, Control_c, 0, 64, 0
4, 22923, Control_c, 0, 64, 127
4, 23063, Control_c, 0, 64, 0
4, 23217, Control_c, 0, 64, 127
4, 23766, Control_c, 0, 64, 0
4, 23823, Control_c, 0, 64, 127
4, 24006, Control_c, 0, 64, 0
4, 24069, Control_c, 0, 64, 127
4, 24720, Control_c, 0, 64, 0
4, 24777, Control_c, 0, 64, 127
4, 24969, Control_c, 0, 64, 0
4, 25040, Control_c, 0, 64, 127
4, 25686, Control_c, 0, 64, 0
4, 26930, Control_c, 0, 64, 127
4, 27125, Control_c, 0, 64, 0
4, 28832, Control_c, 0, 64, 127
4, 30201, Control_c, 0, 64, 0
4, 30336, Control_c, 0, 64, 127
4, 30726, Control_c, 0, 64, 0
4, 30808, Control_c, 0, 64, 127
4, 32097, Control_c, 0, 64, 0
4, 32245, Control_c, 0, 64, 127
4, 32653, Control_c, 0, 64, 0
4, 32704, Control_c, 0, 64, 127
4, 34034, Control_c, 0, 64, 0
4, 34190, Control_c, 0, 64, 127
4, 34567, Control_c, 0, 64, 0
4, 34723, Control_c, 0, 64, 127
4, 35958, Control_c, 0, 64, 0
4, 36085, Control_c, 0, 64, 127
4, 36488, Control_c, 0, 64, 0
4, 36618, Control_c, 0, 64, 127
4, 37112, Control_c, 0, 64, 0
4, 37264, Control_c, 0, 64, 127
4, 37458, Control_c, 0, 64, 0
4, 37532, Control_c, 0, 64, 127
4, 38090, Control_c, 0, 64, 0
4, 38227, Control_c, 0, 64, 127
4, 38415, Control_c, 0, 64, 0
4, 38491, Control_c, 0, 64, 127
4, 40024, Control_c, 0, 64, 0
4, 42526, Control_c, 0, 64, 127
4, 44167, Control_c, 0, 64, 0
4, 44259, Control_c, 0, 64, 127
4, 44820, Control_c, 0, 64, 0
4, 46130, Control_c, 0, 64, 127
4, 46705, Control_c, 0, 64, 0
4, 48071, Control_c, 0, 64, 127
4, 48721, Control_c, 0, 64, 0
4, 48819, Control_c, 0, 64, 127
4, 48981, Control_c, 0, 64, 0
4, 49105, Control_c, 0, 64, 127
4, 49683, Control_c, 0, 64, 0
4, 49740, Control_c, 0, 64, 127
4, 49933, Control_c, 0, 64, 0
4, 50031, Control_c, 0, 64, 127
4, 50647, Control_c, 0, 64, 0
4, 50681, Control_c, 0, 64, 127
4, 50909, Control_c, 0, 64, 0
4, 51010, Control_c, 0, 64, 127
4, 51605, Control_c, 0, 64, 0
4, 51667, Control_c, 0, 64, 127
4, 51844, Control_c, 0, 64, 0
4, 51946, Control_c, 0, 64, 127
4, 52460, Control_c, 0, 64, 0
4, 53135, Control_c, 0, 64, 127
4, 53535, Control_c, 0, 64, 0
4, 54189, Control_c, 0, 64, 127
4, 54483, Control_c, 0, 64, 0
4, 55120, Control_c, 0, 64, 127
4, 55445, Control_c, 0, 64, 0
4, 55812, Control_c, 0, 64, 127
4, 56412, Control_c, 0, 64, 0
4, 57692, Control_c, 0, 64, 127
4, 58288, Control_c, 0, 64, 0
4, 58624, Control_c, 0, 64, 127
4, 59404, Control_c, 0, 64, 0
4, 59560, Control_c, 0, 64, 127
4, 60332, Control_c, 0, 64, 0
4, 60526, Control_c, 0, 64, 127
4, 61332, Control_c, 0, 64, 0
4, 61451, Control_c, 0, 64, 127
4, 62100, Control_c, 0, 64, 0
4, 62527, Control_c, 0, 64, 127
4, 63194, Control_c, 0, 64, 0
4, 63397, Control_c, 0, 64, 127
4, 63853, Control_c, 0, 64, 0
4, 63895, Control_c, 0, 64, 127
4, 64339, Control_c, 0, 64, 0
4, 64380, Control_c, 0, 64, 127
4, 64814, Control_c, 0, 64, 0
4, 64846, Control_c, 0, 64, 127
4, 65289, Control_c, 0, 64, 0
4, 65337, Control_c, 0, 64, 127
4, 66252, Control_c, 0, 64, 0
4, 66289, Control_c, 0, 64, 127
4, 67208, Control_c, 0, 64, 0
4, 67257, Control_c, 0, 64, 127
4, 67690, Control_c, 0, 64, 0
4, 67737, Control_c, 0, 64, 127
4, 68175, Control_c, 0, 64, 0
4, 68246, Control_c, 0, 64, 127
4, 68650, Control_c, 0, 64, 0
4, 68709, Control_c, 0, 64, 127
4, 69130, Control_c, 0, 64, 0
4, 69177, Control_c, 0, 64, 127
4, 69609, Control_c, 0, 64, 0
4, 69646, Control_c, 0, 64, 127
4, 70095, Control_c, 0, 64, 0
4, 70140, Control_c, 0, 64, 127
4, 71047, Control_c, 0, 64, 0
4, 71111, Control_c, 0, 64, 127
4, 71533, Control_c, 0, 64, 0
4, 71587, Control_c, 0, 64, 127
4, 72016, Control_c, 0, 64, 0
4, 72064, Control_c, 0, 64, 127
4, 72495, Control_c, 0, 64, 0
4, 72544, Control_c, 0, 64, 127
4, 72970, Control_c, 0, 64, 0
4, 72995, Control_c, 0, 64, 127
4, 73459, Control_c, 0, 64, 0
4, 73495, Control_c, 0, 64, 127
4, 73926, Control_c, 0, 64, 0
4, 73960, Control_c, 0, 64, 127
4, 74417, Control_c, 0, 64, 0
4, 74455, Control_c, 0, 64, 127
4, 74895, Control_c, 0, 64, 0
4, 74929, Control_c, 0, 64, 127
4, 75383, Control_c, 0, 64, 0
4, 75423, Control_c, 0, 64, 127
4, 75848, Control_c, 0, 64, 0
4, 75903, Control_c, 0, 64, 127
4, 76810, Control_c, 0, 64, 0
4, 76855, Control_c, 0, 64, 127
4, 77295, Control_c, 0, 64, 0
4, 77323, Control_c, 0, 64, 127
4, 77782, Control_c, 0, 64, 0
4, 77826, Control_c, 0, 64, 127
4, 78257, Control_c, 0, 64, 0
4, 78292, Control_c, 0, 64, 127
4, 78728, Control_c, 0, 64, 0
4, 78770, Control_c, 0, 64, 127
4, 79218, Control_c, 0, 64, 0
4, 79257, Control_c, 0, 64, 127
4, 79688, Control_c, 0, 64, 0
4, 79733, Control_c, 0, 64, 127
4, 80181, Control_c, 0, 64, 0
4, 80220, Control_c, 0, 64, 127
4, 80651, Control_c, 0, 64, 0
4, 80697, Control_c, 0, 64, 127
4, 81131, Control_c, 0, 64, 0
4, 81166, Control_c, 0, 64, 127
4, 81617, Control_c, 0, 64, 0
4, 81655, Control_c, 0, 64, 127
4, 82089, Control_c, 0, 64, 0
4, 82132, Control_c, 0, 64, 127
4, 82565, Control_c, 0, 64, 0
4, 82612, Control_c, 0, 64, 127
4, 83050, Control_c, 0, 64, 0
4, 83075, Control_c, 0, 64, 127
4, 83532, Control_c, 0, 64, 0
4, 83566, Control_c, 0, 64, 127
4, 84021, Control_c, 0, 64, 0
4, 84046, Control_c, 0, 64, 127
4, 84484, Control_c, 0, 64, 0
4, 84517, Control_c, 0, 64, 127
4, 84977, Control_c, 0, 64, 0
4, 85015, Control_c, 0, 64, 127
4, 85452, Control_c, 0, 64, 0
4, 85492, Control_c, 0, 64, 127
4, 85936, Control_c, 0, 64, 0
4, 85980, Control_c, 0, 64, 127
4, 86418, Control_c, 0, 64, 0
4, 86457, Control_c, 0, 64, 127
4, 86886, Control_c, 0, 64, 0
4, 86929, Control_c, 0, 64, 127
4, 87370, Control_c, 0, 64, 0
4, 87412, Control_c, 0, 64, 127
4, 87857, Control_c, 0, 64, 0
4, 87895, Control_c, 0, 64, 127
4, 88327, Control_c, 0, 64, 0
4, 88383, Control_c, 0, 64, 127
4, 88809, Control_c, 0, 64, 0
4, 88849, Control_c, 0, 64, 127
4, 89295, Control_c, 0, 64, 0
4, 89337, Control_c, 0, 64, 127
4, 89777, Control_c, 0, 64, 0
4, 89806, Control_c, 0, 64, 127
4, 90246, Control_c, 0, 64, 0
4, 90280, Control_c, 0, 64, 127
4, 90732, Control_c, 0, 64, 0
4, 90774, Control_c, 0, 64, 127
4, 91211, Control_c, 0, 64, 0
4, 91240, Control_c, 0, 64, 127
4, 91695, Control_c, 0, 64, 0
4, 91761, Control_c, 0, 64, 127
4, 92167, Control_c, 0, 64, 0
4, 92286, Control_c, 0, 64, 127
4, 92723, Control_c, 0, 64, 0
4, 94117, Control_c, 0, 64, 127
4, 94623, Control_c, 0, 64, 0
4, 96083, Control_c, 0, 64, 127
4, 96557, Control_c, 0, 64, 0
4, 97063, Control_c, 0, 64, 127
4, 97515, Control_c, 0, 64, 0
4, 97975, Control_c, 0, 64, 127
4, 98483, Control_c, 0, 64, 0
4, 99886, Control_c, 0, 64, 127
4, 100472, Control_c, 0, 64, 0
4, 101834, Control_c, 0, 64, 127
4, 102332, Control_c, 0, 64, 0
4, 103733, Control_c, 0, 64, 127
4, 104344, Control_c, 0, 64, 0
4, 104728, Control_c, 0, 64, 127
4, 105336, Control_c, 0, 64, 0
4, 105640, Control_c, 0, 64, 127
4, 106232, Control_c, 0, 64, 0
4, 107605, Control_c, 0, 64, 127
4, 108177, Control_c, 0, 64, 0
4, 109490, Control_c, 0, 64, 127
4, 110012, Control_c, 0, 64, 0
4, 111399, Control_c, 0, 64, 127
4, 112010, Control_c, 0, 64, 0
4, 112363, Control_c, 0, 64, 127
4, 112941, Control_c, 0, 64, 0
4, 113578, Control_c, 0, 64, 127
4, 114009, Control_c, 0, 64, 0
4, 114149, Control_c, 0, 64, 127
4, 114495, Control_c, 0, 64, 0
4, 114637, Control_c, 0, 64, 127
4, 114836, Control_c, 0, 64, 0
4, 115264, Control_c, 0, 64, 127
4, 116414, Control_c, 0, 64, 0
4, 116513, Control_c, 0, 64, 127
4, 117145, Control_c, 0, 64, 0
4, 117189, Control_c, 0, 64, 127
4, 117607, Control_c, 0, 64, 0
4, 117675, Control_c, 0, 64, 127
4, 117972, Control_c, 0, 64, 0
4, 119111, Control_c, 0, 64, 127
4, 120406, Control_c, 0, 64, 0
4, 120551, Control_c, 0, 64, 127
4, 120978, Control_c, 0, 64, 0
4, 121027, Control_c, 0, 64, 127
4, 122298, Control_c, 0, 64, 0
4, 122457, Control_c, 0, 64, 127
4, 122901, Control_c, 0, 64, 0
4, 122958, Control_c, 0, 64, 127
4, 124193, Control_c, 0, 64, 0
4, 124384, Control_c, 0, 64, 127
4, 124807, Control_c, 0, 64, 0
4, 124881, Control_c, 0, 64, 127
4, 126173, Control_c, 0, 64, 0
4, 126268, Control_c, 0, 64, 127
4, 126720, Control_c, 0, 64, 0
4, 126812, Control_c, 0, 64, 127
4, 127359, Control_c, 0, 64, 0
4, 127521, Control_c, 0, 64, 127
4, 127705, Control_c, 0, 64, 0
4, 127843, Control_c, 0, 64, 127
4, 128319, Control_c, 0, 64, 0
4, 128453, Control_c, 0, 64, 127
4, 128647, Control_c, 0, 64, 0
4, 128700, Control_c, 0, 64, 127
4, 130266, Control_c, 0, 64, 0
4, 132789, Control_c, 0, 64, 127
4, 134408, Control_c, 0, 64, 0
4, 134495, Control_c, 0, 64, 127
4, 135026, Control_c, 0, 64, 0
4, 135483, Control_c, 0, 64, 127
4, 136189, Control_c, 0, 64, 0
4, 136380, Control_c, 0, 64, 127
4, 136929, Control_c, 0, 64, 0
4, 137367, Control_c, 0, 64, 127
4, 138141, Control_c, 0, 64, 0
4, 138289, Control_c, 0, 64, 127
4, 139015, Control_c, 0, 64, 0
4, 139295, Control_c, 0, 64, 127
4, 140040, Control_c, 0, 64, 0
4, 140200, Control_c, 0, 64, 127
4, 140843, Control_c, 0, 64, 0
4, 142120, Control_c, 0, 64, 127
4, 142717, Control_c, 0, 64, 0
4, 143140, Control_c, 0, 64, 127
4, 143892, Control_c, 0, 64, 0
4, 144120, Control_c, 0, 64, 127
4, 144658, Control_c, 0, 64, 0
4, 145051, Control_c, 0, 64, 127
4, 145866, Control_c, 0, 64, 0
4, 146003, Control_c, 0, 64, 127
4, 146755, Control_c, 0, 64, 0
4, 146935, Control_c, 0, 64, 127
4, 147746, Control_c, 0, 64, 0
4, 147917, Control_c, 0, 64, 127
4, 148548, Control_c, 0, 64, 0
4, 148850, Control_c, 0, 64, 127
4, 149642, Control_c, 0, 64, 0
4, 149795, Control_c, 0, 64, 127
4, 150389, Control_c, 0, 64, 0
4, 150526, Control_c, 0, 64, 127
4, 150906, Control_c, 0, 64, 0
4, 151715, Control_c, 0, 64, 127
4, 152326, Control_c, 0, 64, 0
4, 152443, Control_c, 0, 64, 127
4, 152843, Control_c, 0, 64, 0
4, 153660, Control_c, 0, 64, 127
4, 154232, Control_c, 0, 64, 0
4, 154624, Control_c, 0, 64, 127
4, 154793, Control_c, 0, 64, 0
4, 155589, Control_c, 0, 64, 127
4, 156217, Control_c, 0, 64, 0
4, 156515, Control_c, 0, 64, 127
4, 156697, Control_c, 0, 64, 0
4, 157486, Control_c, 0, 64, 127
4, 157933, Control_c, 0, 64, 0
4, 158000, Control_c, 0, 64, 127
4, 158412, Control_c, 0, 64, 0
4, 158526, Control_c, 0, 64, 127
4, 158902, Control_c, 0, 64, 0
4, 158949, Control_c, 0, 64, 127
4, 159370, Control_c, 0, 64, 0
4, 159406, Control_c, 0, 64, 127
4, 159846, Control_c, 0, 64, 0
4, 159886, Control_c, 0, 64, 127
4, 160332, Control_c, 0, 64, 0
4, 160412, Control_c, 0, 64, 127
4, 160809, Control_c, 0, 64, 0
4, 160851, Control_c, 0, 64, 127
4, 161280, Control_c, 0, 64, 0
4, 161280, End_track
5, 0, Start_track
5, 0, Title_t, "Rachmaninow: Prelude No. 5 in Es-Dur, Op. 23"
5, 0, End_track
6, 0, Start_track
6, 0, Title_t, "Copyright © 2004 by Bernd Krüger"
6, 0, End_track
7, 0, Start_track
7, 0, Title_t, "http://www.piano-midi.de"
7, 0, End_track
8, 0, Start_track
8, 0, Title_t, "Edition: 2012-12-04"
8, 0, End_track
9, 0, Start_track
9, 0, Title_t, "Spur 8"
9, 0, End_track
0, 0, End_of_file
