0, 0, Header, 1, 7, 480
1, 0, Start_track
1, 0, Title_t, "Vier Impromptus Opus 90 D 899"
1, 0, Title_t, "Impromptu Nr. 2 Es-Dur"
1, 0, Copyright_t, "Copyright © 1996 von Bernd Krüger."
1, 0, Text_t, "Schubert"
1, 0, Text_t, "Allegro"
1, 0, Text_t, "Korrekturen am 5.9.98\012"
1, 0, Text_t, "Vorbereitende Korrekturen am 4.4.99\012"
1, 0, Text_t, "Update am 1.5.99\012"
1, 0, Text_t, "Normierung: 23.12.2002\012"
1, 0, Text_t, "Überarbeitet: 13.5.2007\012"
1, 0, Text_t, "Update am 18.3.2014\012"
1, 0, Text_t, "Dauer: 4:30 Minuten\012"
1, 0, Time_signature, 3, 2, 24, 8
1, 0, Key_signature, -3, "major"
1, 0, Tempo, 300000
1, 0, Marker_t, "Allegro"
1, 948, Tempo, 332410
1, 1920, Tempo, 300000
1, 2880, Tempo, 305344
1, 3360, Tempo, 300000
1, 4320, Tempo, 306905
1, 4800, Tempo, 300000
1, 5760, Tempo, 305344
1, 6240, Tempo, 300000
1, 7200, Tempo, 304569
1, 7680, Tempo, 300000
1, 8640, Tempo, 306905
1, 9120, Tempo, 300000
1, 10080, Tempo, 305344
1, 10560, Tempo, 300000
1, 11520, Tempo, 310078
1, 12000, Tempo, 300000
1, 12960, Tempo, 332410
1, 13440, Tempo, 300000
1, 14400, Tempo, 303797
1, 14880, Tempo, 300000
1, 15840, Tempo, 305344
1, 16320, Tempo, 300000
1, 17280, Tempo, 303797
1, 17760, Tempo, 300000
1, 18720, Tempo, 305344
1, 19200, Tempo, 300000
1, 20160, Tempo, 307692
1, 20640, Tempo, 300000
1, 21600, Tempo, 305344
1, 22080, Tempo, 300000
1, 23040, Tempo, 306905
1, 23520, Tempo, 300000
1, 24480, Tempo, 334262
1, 24960, Tempo, 300752
1, 25920, Tempo, 307692
1, 26400, Tempo, 300000
1, 27360, Tempo, 307692
1, 27840, Tempo, 300000
1, 28800, Tempo, 306905
1, 29280, Tempo, 300000
1, 30240, Tempo, 306905
1, 30720, Tempo, 300000
1, 31688, Tempo, 334262
1, 32168, Tempo, 300000
1, 33120, Tempo, 303797
1, 33600, Tempo, 300000
1, 34560, Tempo, 305344
1, 35040, Tempo, 300000
1, 36000, Tempo, 329670
1, 36480, Tempo, 305344
1, 37440, Tempo, 342857
1, 37920, Tempo, 324324
1, 38880, Tempo, 300000
1, 40320, Tempo, 333333
1, 40788, Tempo, 316623
1, 41748, Tempo, 300000
1, 41760, Tempo, 300000
1, 43200, Tempo, 342857
1, 43680, Tempo, 322581
1, 44640, Tempo, 300000
1, 46080, Tempo, 348837
1, 46560, Tempo, 327869
1, 47508, Tempo, 300000
1, 47520, Tempo, 333333
1, 47988, Tempo, 316623
1, 48968, Tempo, 352941
1, 50560, Tempo, 300752
1, 53280, Tempo, 333333
1, 53768, Tempo, 353982
1, 54248, Tempo, 316623
1, 54728, Tempo, 300000
1, 56160, Tempo, 333333
1, 56648, Tempo, 353982
1, 57120, Tempo, 315789
1, 57600, Tempo, 333333
1, 58068, Tempo, 315789
1, 59040, Tempo, 334262
1, 59528, Tempo, 315789
1, 60480, Tempo, 333333
1, 60960, Tempo, 300000
1, 61920, Tempo, 319149
1, 62400, Tempo, 300000
1, 63368, Tempo, 334262
1, 63840, Tempo, 300000
1, 64808, Tempo, 334262
1, 65268, Tempo, 300000
1, 66248, Tempo, 351906
1, 66720, Tempo, 300000
1, 69128, Tempo, 332410
1, 69588, Tempo, 300000
1, 70548, Tempo, 333333
1, 71040, Tempo, 300000
1, 72000, Tempo, 293399
1, 73440, Tempo, 315789
1, 73460, Tempo, 293399
1, 73480, Tempo, 294840
1, 73500, Tempo, 296296
1, 73520, Tempo, 297767
1, 73540, Tempo, 299252
1, 73560, Tempo, 300752
1, 73580, Tempo, 302267
1, 73600, Tempo, 303797
1, 73620, Tempo, 306122
1, 73640, Tempo, 307692
1, 73660, Tempo, 309278
1, 73680, Tempo, 310881
1, 73700, Tempo, 312500
1, 73720, Tempo, 314136
1, 73740, Tempo, 315789
1, 73760, Tempo, 317460
1, 73780, Tempo, 320000
1, 73800, Tempo, 321716
1, 73820, Tempo, 323450
1, 73840, Tempo, 325203
1, 73860, Tempo, 326975
1, 73880, Tempo, 328767
1, 73900, Tempo, 330579
1, 73920, Tempo, 333333
1, 73940, Tempo, 335196
1, 73960, Tempo, 337079
1, 73980, Tempo, 338983
1, 74000, Tempo, 340909
1, 74020, Tempo, 342857
1, 74040, Tempo, 344828
1, 74060, Tempo, 346821
1, 74080, Tempo, 349854
1, 74100, Tempo, 351906
1, 74120, Tempo, 353982
1, 74140, Tempo, 356083
1, 74160, Tempo, 358209
1, 74180, Tempo, 360360
1, 74200, Tempo, 362538
1, 74220, Tempo, 364742
1, 74240, Tempo, 368098
1, 74260, Tempo, 370370
1, 74280, Tempo, 372671
1, 74300, Tempo, 375000
1, 74320, Tempo, 377358
1, 74340, Tempo, 379747
1, 74360, Tempo, 382166
1, 74380, Tempo, 385852
1, 74400, Tempo, 388350
1, 74420, Tempo, 390879
1, 74440, Tempo, 393443
1, 74460, Tempo, 396040
1, 74480, Tempo, 398671
1, 74500, Tempo, 401338
1, 74520, Tempo, 404040
1, 74540, Tempo, 408163
1, 74560, Tempo, 410959
1, 74580, Tempo, 413793
1, 74600, Tempo, 416667
1, 74620, Tempo, 419580
1, 74640, Tempo, 422535
1, 74660, Tempo, 425532
1, 74680, Tempo, 428571
1, 74700, Tempo, 433213
1, 74720, Tempo, 436364
1, 74740, Tempo, 439560
1, 74760, Tempo, 442804
1, 74780, Tempo, 446097
1, 74800, Tempo, 449438
1, 74820, Tempo, 452830
1, 74840, Tempo, 458015
1, 74860, Tempo, 461538
1, 74880, Tempo, 353982
1, 74888, Tempo, 375000
1, 75360, Tempo, 300000
1, 76320, Tempo, 309278
1, 76800, Tempo, 300000
1, 77760, Tempo, 305344
1, 78240, Tempo, 300000
1, 79200, Tempo, 304569
1, 79680, Tempo, 300000
1, 80640, Tempo, 308483
1, 81120, Tempo, 300000
1, 82080, Tempo, 320856
1, 82560, Tempo, 300000
1, 83520, Tempo, 308483
1, 84000, Tempo, 300000
1, 84960, Tempo, 308483
1, 85440, Tempo, 300000
1, 86400, Tempo, 334262
1, 86880, Tempo, 300752
1, 87840, Tempo, 306905
1, 88320, Tempo, 300000
1, 89280, Tempo, 307692
1, 89760, Tempo, 300000
1, 90720, Tempo, 325203
1, 91200, Tempo, 300000
1, 92160, Tempo, 303030
1, 92640, Tempo, 300000
1, 93600, Tempo, 306122
1, 94080, Tempo, 300000
1, 95040, Tempo, 305344
1, 95520, Tempo, 300000
1, 96480, Tempo, 306905
1, 96960, Tempo, 300000
1, 97920, Tempo, 306122
1, 98400, Tempo, 300000
1, 99360, Tempo, 320856
1, 99840, Tempo, 300000
1, 100800, Tempo, 305344
1, 101280, Tempo, 300000
1, 102240, Tempo, 334262
1, 102728, Tempo, 300000
1, 103680, Tempo, 334262
1, 104168, Tempo, 300000
1, 105120, Tempo, 333333
1, 105600, Tempo, 300000
1, 106560, Tempo, 341880
1, 107040, Tempo, 300000
1, 108000, Tempo, 362538
1, 108480, Tempo, 300000
1, 109440, Tempo, 333333
1, 109920, Tempo, 300000
1, 111368, Tempo, 333333
1, 112328, Tempo, 300000
1, 112808, Tempo, 333333
1, 113760, Tempo, 300752
1, 114240, Tempo, 333333
1, 115200, Tempo, 300000
1, 119040, Tempo, 343840
1, 119520, Key_signature, 2, "major"
1, 119520, Tempo, 333333
1, 122400, Tempo, 316623
1, 123840, Tempo, 333333
1, 128160, Tempo, 322581
1, 129600, Tempo, 334262
1, 130560, Tempo, 362538
1, 131040, Tempo, 333333
1, 133920, Tempo, 321716
1, 135360, Tempo, 333333
1, 136800, Tempo, 333333
1, 139688, Tempo, 315789
1, 141120, Tempo, 334262
1, 141600, Tempo, 353982
1, 142568, Tempo, 332410
1, 145448, Tempo, 315789
1, 146880, Tempo, 333333
1, 148328, Tempo, 400000
1, 148808, Tempo, 334262
1, 151208, Tempo, 316623
1, 152640, Tempo, 333333
1, 154080, Tempo, 401338
1, 154568, Tempo, 333333
1, 156960, Tempo, 322581
1, 158408, Tempo, 333333
1, 159360, Tempo, 343840
1, 159840, Tempo, 333333
1, 162728, Tempo, 315789
1, 164160, Tempo, 333333
1, 165120, Tempo, 400000
1, 165600, Tempo, 333333
1, 168480, Tempo, 311688
1, 169920, Tempo, 334262
1, 170868, Tempo, 352941
1, 171360, Tempo, 320856
1, 172800, Tempo, 333333
1, 173768, Tempo, 351906
1, 174240, Tempo, 322581
1, 175680, Tempo, 333333
1, 176640, Tempo, 376176
1, 177128, Tempo, 333333
1, 179520, Tempo, 376176
1, 180000, Tempo, 333333
1, 181440, Tempo, 333333
1, 181448, Tempo, 333333
1, 181480, Tempo, 334262
1, 181508, Tempo, 335196
1, 181540, Tempo, 336134
1, 181568, Tempo, 337079
1, 181600, Tempo, 338028
1, 181620, Tempo, 338983
1, 181648, Tempo, 339943
1, 181680, Tempo, 340909
1, 181708, Tempo, 341880
1, 181740, Tempo, 342857
1, 181768, Tempo, 343840
1, 181788, Tempo, 344828
1, 181820, Tempo, 345821
1, 181848, Tempo, 346821
1, 181880, Tempo, 347826
1, 181908, Tempo, 348837
1, 181940, Tempo, 349854
1, 181960, Tempo, 350877
1, 181988, Tempo, 351906
1, 182020, Tempo, 352941
1, 182048, Tempo, 353982
1, 182080, Tempo, 355030
1, 182108, Tempo, 356083
1, 182128, Tempo, 357143
1, 182160, Tempo, 358209
1, 182188, Tempo, 359281
1, 182220, Tempo, 360360
1, 182248, Tempo, 361446
1, 182280, Tempo, 362538
1, 182300, Tempo, 363636
1, 182328, Tempo, 364742
1, 182360, Tempo, 365854
1, 182388, Tempo, 366972
1, 182420, Tempo, 368098
1, 182448, Tempo, 369231
1, 182468, Tempo, 370370
1, 182500, Tempo, 371517
1, 182528, Tempo, 372671
1, 182560, Tempo, 373832
1, 182640, Tempo, 430108
1, 182880, Tempo, 333333
1, 185768, Tempo, 315789
1, 187220, Tempo, 333333
1, 188148, Tempo, 376176
1, 188640, Tempo, 333333
1, 191520, Tempo, 316623
1, 192960, Tempo, 333333
1, 193920, Tempo, 400000
1, 194400, Tempo, 333333
1, 197280, Tempo, 322581
1, 198720, Tempo, 333333
1, 199680, Tempo, 398671
1, 200160, Tempo, 333333
1, 203040, Tempo, 321716
1, 204480, Tempo, 333333
1, 205440, Tempo, 344828
1, 205920, Tempo, 333333
1, 206880, Tempo, 382166
1, 207368, Tempo, 333333
1, 208808, Tempo, 316623
1, 210248, Tempo, 333333
1, 211200, Tempo, 394737
1, 211680, Tempo, 334262
1, 212640, Tempo, 375000
1, 213128, Tempo, 333333
1, 214560, Tempo, 321716
1, 216000, Tempo, 333333
1, 216960, Tempo, 390879
1, 217440, Tempo, 333333
1, 218408, Tempo, 373832
1, 218888, Tempo, 333333
1, 220320, Tempo, 324324
1, 221760, Tempo, 333333
1, 222728, Tempo, 375000
1, 223200, Tempo, 333333
1, 224160, Tempo, 375000
1, 224640, Tempo, 333333
1, 225608, Tempo, 375000
1, 226080, Tempo, 333333
1, 226088, Tempo, 315789
1, 228480, Tempo, 400000
1, 228960, Tempo, 333333
1, 229928, Tempo, 376176
1, 230408, Tempo, 333333
1, 231840, Tempo, 319149
1, 234228, Tempo, 375000
1, 234728, Tempo, 333333
1, 237600, Tempo, 323450
1, 240468, Tempo, 334262
1, 240480, Tempo, 323450
1, 240580, Tempo, 324324
1, 240660, Tempo, 325203
1, 240760, Tempo, 326087
1, 240840, Tempo, 326975
1, 240940, Tempo, 327869
1, 241020, Tempo, 328767
1, 241120, Tempo, 329670
1, 241200, Tempo, 330579
1, 241300, Tempo, 331492
1, 241380, Tempo, 332410
1, 241480, Tempo, 333333
1, 241560, Tempo, 334262
1, 241660, Tempo, 335196
1, 241740, Tempo, 336134
1, 241840, Tempo, 337079
1, 241920, Tempo, 338028
1, 241940, Tempo, 339943
1, 241960, Tempo, 341880
1, 241980, Tempo, 343840
1, 242000, Tempo, 345821
1, 242020, Tempo, 347826
1, 242040, Tempo, 350877
1, 242060, Tempo, 352941
1, 242080, Tempo, 355030
1, 242100, Tempo, 357143
1, 242120, Tempo, 359281
1, 242140, Tempo, 362538
1, 242160, Tempo, 364742
1, 242180, Tempo, 366972
1, 242200, Tempo, 369231
1, 242220, Tempo, 371517
1, 242240, Tempo, 373832
1, 242260, Tempo, 377358
1, 242280, Tempo, 379747
1, 242300, Tempo, 382166
1, 242320, Tempo, 384615
1, 242340, Tempo, 387097
1, 242360, Tempo, 390879
1, 242380, Tempo, 393443
1, 242400, Tempo, 396040
1, 242420, Tempo, 398671
1, 242440, Tempo, 401338
1, 242460, Tempo, 404040
1, 242480, Tempo, 408163
1, 242500, Tempo, 410959
1, 242520, Tempo, 413793
1, 242540, Tempo, 416667
1, 242560, Tempo, 419580
1, 242580, Tempo, 424028
1, 242600, Tempo, 427046
1, 242620, Tempo, 430108
1, 242640, Tempo, 433213
1, 242660, Tempo, 436364
1, 242680, Tempo, 441176
1, 242700, Tempo, 444444
1, 242720, Tempo, 447761
1, 242740, Tempo, 451128
1, 242760, Tempo, 454545
1, 242780, Tempo, 458015
1, 242800, Tempo, 463320
1, 242820, Tempo, 466926
1, 242840, Tempo, 470588
1, 242860, Tempo, 474308
1, 242880, Tempo, 478088
1, 242900, Tempo, 483871
1, 242920, Tempo, 487805
1, 242940, Tempo, 491803
1, 242960, Tempo, 495868
1, 242980, Tempo, 500000
1, 243000, Tempo, 504202
1, 243020, Tempo, 510638
1, 243040, Tempo, 515021
1, 243060, Tempo, 519481
1, 243080, Tempo, 524017
1, 243100, Tempo, 528634
1, 243120, Tempo, 535714
1, 243140, Tempo, 540541
1, 243160, Tempo, 545455
1, 243180, Tempo, 550459
1, 243200, Tempo, 555556
1, 243220, Tempo, 563380
1, 243360, Key_signature, -3, "major"
1, 243360, Tempo, 332410
1, 243840, Tempo, 300000
1, 244800, Tempo, 306122
1, 245280, Tempo, 300000
1, 246240, Tempo, 306905
1, 246720, Tempo, 300000
1, 247680, Tempo, 305344
1, 248160, Tempo, 300000
1, 249120, Tempo, 304569
1, 249600, Tempo, 300000
1, 250560, Tempo, 312500
1, 251040, Tempo, 300000
1, 252000, Tempo, 305344
1, 252480, Tempo, 300000
1, 253440, Tempo, 304569
1, 253920, Tempo, 300000
1, 254880, Tempo, 332410
1, 255360, Tempo, 300000
1, 256320, Tempo, 305344
1, 256800, Tempo, 300000
1, 257760, Tempo, 305344
1, 258240, Tempo, 300000
1, 259200, Tempo, 304569
1, 259680, Tempo, 300000
1, 260640, Tempo, 304569
1, 261120, Tempo, 300000
1, 262080, Tempo, 312500
1, 262560, Tempo, 300000
1, 263520, Tempo, 306905
1, 264000, Tempo, 300000
1, 264960, Tempo, 306122
1, 265440, Tempo, 300000
1, 266400, Tempo, 334262
1, 266880, Tempo, 300752
1, 267840, Tempo, 306122
1, 268300, Tempo, 300000
1, 269280, Tempo, 305344
1, 269760, Tempo, 300000
1, 270720, Tempo, 307692
1, 271200, Tempo, 300000
1, 272160, Tempo, 305344
1, 272640, Tempo, 300000
1, 273608, Tempo, 334262
1, 274088, Tempo, 300000
1, 275040, Tempo, 306122
1, 275520, Tempo, 300000
1, 276480, Tempo, 306122
1, 276960, Tempo, 300000
1, 277920, Tempo, 306905
1, 278400, Tempo, 300000
1, 279360, Tempo, 338983
1, 279840, Tempo, 320000
1, 280800, Tempo, 300000
1, 282240, Tempo, 333333
1, 282708, Tempo, 316623
1, 283668, Tempo, 300000
1, 283680, Tempo, 300000
1, 285120, Tempo, 343840
1, 285600, Tempo, 324324
1, 286560, Tempo, 300000
1, 288000, Tempo, 333333
1, 288468, Tempo, 316623
1, 289428, Tempo, 300000
1, 289440, Tempo, 333333
1, 289908, Tempo, 316623
1, 290888, Tempo, 352941
1, 292320, Tempo, 309278
1, 292800, Tempo, 300000
1, 295200, Tempo, 333333
1, 295688, Tempo, 353982
1, 296168, Tempo, 316623
1, 296648, Tempo, 300000
1, 298080, Tempo, 333333
1, 298568, Tempo, 353982
1, 299040, Tempo, 315789
1, 299520, Tempo, 333333
1, 299988, Tempo, 315789
1, 300960, Tempo, 334262
1, 301448, Tempo, 315789
1, 302400, Tempo, 333333
1, 302880, Tempo, 300000
1, 303840, Tempo, 321716
1, 304320, Tempo, 300000
1, 305288, Tempo, 334262
1, 305760, Tempo, 300000
1, 306728, Tempo, 334262
1, 307188, Tempo, 300000
1, 308168, Tempo, 351906
1, 308640, Tempo, 300000
1, 311048, Tempo, 332410
1, 311508, Tempo, 300000
1, 312468, Tempo, 333333
1, 312960, Tempo, 300000
1, 313920, Tempo, 291262
1, 315320, Tempo, 291262
1, 315340, Tempo, 291971
1, 315360, Tempo, 293399
1, 315380, Tempo, 294840
1, 315400, Tempo, 296296
1, 315420, Tempo, 297767
1, 315440, Tempo, 299252
1, 315460, Tempo, 300752
1, 315480, Tempo, 302267
1, 315500, Tempo, 303797
1, 315520, Tempo, 305344
1, 315540, Tempo, 306122
1, 315560, Tempo, 307692
1, 315580, Tempo, 309278
1, 315600, Tempo, 310881
1, 315620, Tempo, 312500
1, 315640, Tempo, 314136
1, 315660, Tempo, 315789
1, 315680, Tempo, 317460
1, 315700, Tempo, 319149
1, 315720, Tempo, 320856
1, 315740, Tempo, 321716
1, 315760, Tempo, 323450
1, 315780, Tempo, 325203
1, 315800, Tempo, 326975
1, 315820, Tempo, 328767
1, 315840, Tempo, 330579
1, 315860, Tempo, 332410
1, 315880, Tempo, 334262
1, 315900, Tempo, 336134
1, 315920, Tempo, 338028
1, 315940, Tempo, 338983
1, 315960, Tempo, 340909
1, 315980, Tempo, 342857
1, 316000, Tempo, 344828
1, 316020, Tempo, 346821
1, 316040, Tempo, 348837
1, 316060, Tempo, 350877
1, 316080, Tempo, 352941
1, 316100, Tempo, 355030
1, 316120, Tempo, 357143
1, 316140, Tempo, 359281
1, 316160, Tempo, 360360
1, 316180, Tempo, 362538
1, 316200, Tempo, 364742
1, 316220, Tempo, 366972
1, 316240, Tempo, 369231
1, 316260, Tempo, 371517
1, 316280, Tempo, 373832
1, 316300, Tempo, 376176
1, 316320, Tempo, 378549
1, 316340, Tempo, 380952
1, 316360, Tempo, 382166
1, 316380, Tempo, 384615
1, 316400, Tempo, 387097
1, 316420, Tempo, 389610
1, 316440, Tempo, 392157
1, 316460, Tempo, 394737
1, 316480, Tempo, 397351
1, 316500, Tempo, 400000
1, 316520, Tempo, 402685
1, 316540, Tempo, 405405
1, 316560, Tempo, 406780
1, 316580, Tempo, 409556
1, 316600, Tempo, 412371
1, 316620, Tempo, 415225
1, 316640, Tempo, 418118
1, 316660, Tempo, 421053
1, 316680, Tempo, 424028
1, 316700, Tempo, 427046
1, 316720, Tempo, 430108
1, 316740, Tempo, 433213
1, 316760, Tempo, 436364
1, 316800, Tempo, 353982
1, 316808, Tempo, 375000
1, 317280, Tempo, 300000
1, 318240, Tempo, 306122
1, 318720, Tempo, 300000
1, 319680, Tempo, 306905
1, 320160, Tempo, 300000
1, 321120, Tempo, 320000
1, 321600, Tempo, 300000
1, 322560, Tempo, 306122
1, 323040, Tempo, 300000
1, 324000, Tempo, 306122
1, 324480, Tempo, 300000
1, 325440, Tempo, 306905
1, 325920, Tempo, 300000
1, 326880, Tempo, 304569
1, 327340, Tempo, 300000
1, 328320, Tempo, 334262
1, 328800, Tempo, 300752
1, 329760, Tempo, 306122
1, 330240, Tempo, 300000
1, 331200, Tempo, 306905
1, 331680, Tempo, 300000
1, 332640, Tempo, 305344
1, 333120, Tempo, 300000
1, 334080, Tempo, 305344
1, 334560, Tempo, 300000
1, 335520, Tempo, 306122
1, 336000, Tempo, 300000
1, 336960, Tempo, 305344
1, 337440, Tempo, 300000
1, 338400, Tempo, 306905
1, 338880, Tempo, 300000
1, 339840, Tempo, 309278
1, 340320, Tempo, 300000
1, 341280, Tempo, 315789
1, 341760, Tempo, 300000
1, 342720, Tempo, 306122
1, 343200, Tempo, 300000
1, 344160, Tempo, 334262
1, 344648, Tempo, 300000
1, 345600, Tempo, 334262
1, 346088, Tempo, 300000
1, 347040, Tempo, 333333
1, 347520, Tempo, 300000
1, 348480, Tempo, 342857
1, 348960, Tempo, 300000
1, 349920, Tempo, 362538
1, 350400, Tempo, 300000
1, 351360, Tempo, 333333
1, 351840, Tempo, 300000
1, 353288, Tempo, 333333
1, 354248, Tempo, 300000
1, 354728, Tempo, 333333
1, 355680, Tempo, 300752
1, 356160, Tempo, 333333
1, 357120, Tempo, 300000
1, 360960, Tempo, 361446
1, 361440, Tempo, 333333
1, 361440, Marker_t, "Coda"
1, 364320, Tempo, 316623
1, 365760, Tempo, 333333
1, 366720, Tempo, 351906
1, 367200, Tempo, 333333
1, 368640, Tempo, 333333
1, 370088, Tempo, 315789
1, 371528, Tempo, 333333
1, 372480, Tempo, 388350
1, 372960, Tempo, 333333
1, 373920, Tempo, 344828
1, 374400, Tempo, 333333
1, 375840, Tempo, 313316
1, 377280, Tempo, 333333
1, 378240, Tempo, 376176
1, 378720, Tempo, 333333
1, 381600, Tempo, 320856
1, 383048, Tempo, 333333
1, 384000, Tempo, 390879
1, 384468, Tempo, 333333
1, 385920, Tempo, 326087
1, 387348, Tempo, 303797
1, 388800, Tempo, 316623
1, 389768, Tempo, 352941
1, 390240, Tempo, 316623
1, 390248, Tempo, 315789
1, 391680, Tempo, 310881
1, 393120, Tempo, 290557
1, 394560, Tempo, 300752
1, 397448, Tempo, 285036
1, 398868, Tempo, 282353
1, 400308, Tempo, 281030
1, 400320, Tempo, 280374
1, 401748, Tempo, 278422
1, 403200, Tempo, 278422
1, 403480, Tempo, 279070
1, 403740, Tempo, 279720
1, 404000, Tempo, 280374
1, 404260, Tempo, 281030
1, 404520, Tempo, 281690
1, 404660, Tempo, 281030
1, 404760, Tempo, 281690
1, 404860, Tempo, 282353
1, 404960, Tempo, 283019
1, 405040, Tempo, 283688
1, 405140, Tempo, 284360
1, 405240, Tempo, 285036
1, 405340, Tempo, 285714
1, 405420, Tempo, 286396
1, 405520, Tempo, 287081
1, 405620, Tempo, 287770
1, 405720, Tempo, 288462
1, 405800, Tempo, 289157
1, 405900, Tempo, 289855
1, 406000, Tempo, 290557
1, 406080, Tempo, 306905
1, 408000, Marker_t, "Fine"
1, 408000, End_track
2, 0, Start_track
2, 0, Title_t, "Piano right"
2, 0, Program_c, 0, 0
2, 0, Control_c, 0, 7, 100
2, 0, Control_c, 0, 10, 64
2, 0, Control_c, 0, 91, 127
2, 0, Text_t, "bdca426d104a26ac9dcb070447587523"
2, 960, Note_on_c, 0, 82, 48
2, 1440, Note_on_c, 0, 82, 0
2, 1440, Note_on_c, 0, 79, 48
2, 1600, Note_on_c, 0, 79, 0
2, 1600, Note_on_c, 0, 82, 44
2, 1760, Note_on_c, 0, 82, 0
2, 1760, Note_on_c, 0, 80, 40
2, 1920, Note_on_c, 0, 80, 0
2, 1920, Note_on_c, 0, 79, 48
2, 2080, Note_on_c, 0, 79, 0
2, 2080, Note_on_c, 0, 77, 45
2, 2240, Note_on_c, 0, 77, 0
2, 2240, Note_on_c, 0, 75, 40
2, 2400, Note_on_c, 0, 75, 0
2, 2400, Note_on_c, 0, 74, 48
2, 2560, Note_on_c, 0, 74, 0
2, 2560, Note_on_c, 0, 72, 45
2, 2720, Note_on_c, 0, 72, 0
2, 2720, Note_on_c, 0, 70, 42
2, 2880, Note_on_c, 0, 70, 0
2, 2880, Note_on_c, 0, 68, 48
2, 3040, Note_on_c, 0, 68, 0
2, 3040, Note_on_c, 0, 67, 45
2, 3200, Note_on_c, 0, 67, 0
2, 3200, Note_on_c, 0, 65, 45
2, 3360, Note_on_c, 0, 65, 0
2, 3360, Note_on_c, 0, 63, 48
2, 3520, Note_on_c, 0, 63, 0
2, 3520, Note_on_c, 0, 62, 43
2, 3680, Note_on_c, 0, 62, 0
2, 3680, Note_on_c, 0, 60, 43
2, 3840, Note_on_c, 0, 60, 0
2, 3840, Note_on_c, 0, 58, 48
2, 4000, Note_on_c, 0, 60, 44
2, 4160, Note_on_c, 0, 60, 0
2, 4160, Note_on_c, 0, 62, 41
2, 4320, Note_on_c, 0, 62, 0
2, 4320, Note_on_c, 0, 58, 0
2, 4320, Note_on_c, 0, 63, 48
2, 4480, Note_on_c, 0, 63, 0
2, 4480, Note_on_c, 0, 62, 44
2, 4640, Note_on_c, 0, 62, 0
2, 4640, Note_on_c, 0, 63, 44
2, 4800, Note_on_c, 0, 63, 0
2, 4800, Note_on_c, 0, 64, 53
2, 4960, Note_on_c, 0, 64, 0
2, 4960, Note_on_c, 0, 63, 50
2, 5120, Note_on_c, 0, 63, 0
2, 5120, Note_on_c, 0, 64, 49
2, 5280, Note_on_c, 0, 64, 0
2, 5280, Note_on_c, 0, 65, 55
2, 5440, Note_on_c, 0, 65, 0
2, 5440, Note_on_c, 0, 64, 49
2, 5600, Note_on_c, 0, 64, 0
2, 5600, Note_on_c, 0, 65, 50
2, 5760, Note_on_c, 0, 65, 0
2, 5760, Note_on_c, 0, 66, 60
2, 5920, Note_on_c, 0, 66, 0
2, 5920, Note_on_c, 0, 65, 53
2, 6080, Note_on_c, 0, 65, 0
2, 6080, Note_on_c, 0, 66, 53
2, 6240, Note_on_c, 0, 66, 0
2, 6240, Note_on_c, 0, 67, 54
2, 6400, Note_on_c, 0, 67, 0
2, 6400, Note_on_c, 0, 66, 51
2, 6560, Note_on_c, 0, 66, 0
2, 6560, Note_on_c, 0, 67, 50
2, 6720, Note_on_c, 0, 67, 0
2, 6720, Note_on_c, 0, 68, 48
2, 6880, Note_on_c, 0, 68, 0
2, 6880, Note_on_c, 0, 67, 45
2, 7040, Note_on_c, 0, 67, 0
2, 7040, Note_on_c, 0, 68, 48
2, 7200, Note_on_c, 0, 68, 0
2, 7200, Note_on_c, 0, 67, 48
2, 7360, Note_on_c, 0, 67, 0
2, 7360, Note_on_c, 0, 70, 51
2, 7520, Note_on_c, 0, 70, 0
2, 7520, Note_on_c, 0, 68, 51
2, 7680, Note_on_c, 0, 68, 0
2, 7680, Note_on_c, 0, 67, 50
2, 7840, Note_on_c, 0, 67, 0
2, 7840, Note_on_c, 0, 68, 47
2, 8000, Note_on_c, 0, 68, 0
2, 8000, Note_on_c, 0, 70, 47
2, 8160, Note_on_c, 0, 70, 0
2, 8160, Note_on_c, 0, 72, 49
2, 8320, Note_on_c, 0, 72, 0
2, 8320, Note_on_c, 0, 74, 46
2, 8480, Note_on_c, 0, 74, 0
2, 8480, Note_on_c, 0, 75, 46
2, 8640, Note_on_c, 0, 75, 0
2, 8640, Note_on_c, 0, 77, 48
2, 8800, Note_on_c, 0, 77, 0
2, 8800, Note_on_c, 0, 84, 49
2, 8960, Note_on_c, 0, 84, 0
2, 8960, Note_on_c, 0, 82, 49
2, 9120, Note_on_c, 0, 82, 0
2, 9120, Note_on_c, 0, 80, 48
2, 9280, Note_on_c, 0, 80, 0
2, 9280, Note_on_c, 0, 79, 45
2, 9440, Note_on_c, 0, 79, 0
2, 9440, Note_on_c, 0, 77, 43
2, 9600, Note_on_c, 0, 77, 0
2, 9600, Note_on_c, 0, 75, 48
2, 9760, Note_on_c, 0, 75, 0
2, 9760, Note_on_c, 0, 74, 45
2, 9920, Note_on_c, 0, 74, 0
2, 9920, Note_on_c, 0, 72, 43
2, 10080, Note_on_c, 0, 72, 0
2, 10080, Note_on_c, 0, 70, 47
2, 10240, Note_on_c, 0, 70, 0
2, 10240, Note_on_c, 0, 77, 48
2, 10400, Note_on_c, 0, 77, 0
2, 10400, Note_on_c, 0, 75, 45
2, 10560, Note_on_c, 0, 75, 0
2, 10560, Note_on_c, 0, 74, 48
2, 10720, Note_on_c, 0, 74, 0
2, 10720, Note_on_c, 0, 72, 45
2, 10880, Note_on_c, 0, 72, 0
2, 10880, Note_on_c, 0, 70, 43
2, 11040, Note_on_c, 0, 70, 0
2, 11040, Note_on_c, 0, 68, 48
2, 11200, Note_on_c, 0, 68, 0
2, 11200, Note_on_c, 0, 67, 43
2, 11360, Note_on_c, 0, 67, 0
2, 11360, Note_on_c, 0, 65, 45
2, 11520, Note_on_c, 0, 65, 0
2, 11520, Note_on_c, 0, 63, 48
2, 11680, Note_on_c, 0, 63, 0
2, 11680, Note_on_c, 0, 65, 45
2, 11840, Note_on_c, 0, 65, 0
2, 11840, Note_on_c, 0, 67, 43
2, 12000, Note_on_c, 0, 67, 0
2, 12000, Note_on_c, 0, 68, 52
2, 12160, Note_on_c, 0, 68, 0
2, 12160, Note_on_c, 0, 70, 51
2, 12320, Note_on_c, 0, 70, 0
2, 12320, Note_on_c, 0, 72, 55
2, 12480, Note_on_c, 0, 72, 0
2, 12480, Note_on_c, 0, 74, 59
2, 12640, Note_on_c, 0, 74, 0
2, 12640, Note_on_c, 0, 75, 55
2, 12800, Note_on_c, 0, 75, 0
2, 12800, Note_on_c, 0, 77, 58
2, 12960, Note_on_c, 0, 77, 0
2, 12960, Note_on_c, 0, 79, 65
2, 13120, Note_on_c, 0, 79, 0
2, 13120, Note_on_c, 0, 82, 61
2, 13280, Note_on_c, 0, 82, 0
2, 13280, Note_on_c, 0, 80, 58
2, 13440, Note_on_c, 0, 80, 0
2, 13440, Note_on_c, 0, 79, 63
2, 13600, Note_on_c, 0, 79, 0
2, 13600, Note_on_c, 0, 77, 57
2, 13760, Note_on_c, 0, 77, 0
2, 13760, Note_on_c, 0, 75, 54
2, 13920, Note_on_c, 0, 75, 0
2, 13920, Note_on_c, 0, 74, 64
2, 14080, Note_on_c, 0, 74, 0
2, 14080, Note_on_c, 0, 72, 59
2, 14240, Note_on_c, 0, 72, 0
2, 14240, Note_on_c, 0, 70, 58
2, 14400, Note_on_c, 0, 70, 0
2, 14400, Note_on_c, 0, 68, 63
2, 14560, Note_on_c, 0, 68, 0
2, 14560, Note_on_c, 0, 67, 59
2, 14720, Note_on_c, 0, 67, 0
2, 14720, Note_on_c, 0, 65, 54
2, 14880, Note_on_c, 0, 65, 0
2, 14880, Note_on_c, 0, 63, 63
2, 15040, Note_on_c, 0, 63, 0
2, 15040, Note_on_c, 0, 62, 53
2, 15200, Note_on_c, 0, 62, 0
2, 15200, Note_on_c, 0, 60, 51
2, 15360, Note_on_c, 0, 60, 0
2, 15360, Note_on_c, 0, 58, 63
2, 15520, Note_on_c, 0, 60, 54
2, 15680, Note_on_c, 0, 60, 0
2, 15680, Note_on_c, 0, 62, 51
2, 15840, Note_on_c, 0, 62, 0
2, 15840, Note_on_c, 0, 58, 0
2, 15840, Note_on_c, 0, 63, 63
2, 16000, Note_on_c, 0, 63, 0
2, 16000, Note_on_c, 0, 62, 55
2, 16160, Note_on_c, 0, 62, 0
2, 16160, Note_on_c, 0, 63, 51
2, 16320, Note_on_c, 0, 63, 0
2, 16320, Note_on_c, 0, 64, 63
2, 16480, Note_on_c, 0, 64, 0
2, 16480, Note_on_c, 0, 63, 56
2, 16640, Note_on_c, 0, 63, 0
2, 16640, Note_on_c, 0, 64, 54
2, 16800, Note_on_c, 0, 64, 0
2, 16800, Note_on_c, 0, 65, 63
2, 16960, Note_on_c, 0, 65, 0
2, 16960, Note_on_c, 0, 64, 59
2, 17120, Note_on_c, 0, 64, 0
2, 17120, Note_on_c, 0, 65, 55
2, 17280, Note_on_c, 0, 65, 0
2, 17280, Note_on_c, 0, 66, 68
2, 17440, Note_on_c, 0, 66, 0
2, 17440, Note_on_c, 0, 65, 61
2, 17600, Note_on_c, 0, 65, 0
2, 17600, Note_on_c, 0, 66, 59
2, 17760, Note_on_c, 0, 66, 0
2, 17760, Note_on_c, 0, 67, 64
2, 17920, Note_on_c, 0, 67, 0
2, 17920, Note_on_c, 0, 66, 61
2, 18080, Note_on_c, 0, 66, 0
2, 18080, Note_on_c, 0, 67, 59
2, 18240, Note_on_c, 0, 67, 0
2, 18240, Note_on_c, 0, 68, 63
2, 18400, Note_on_c, 0, 68, 0
2, 18400, Note_on_c, 0, 67, 60
2, 18560, Note_on_c, 0, 67, 0
2, 18560, Note_on_c, 0, 68, 57
2, 18720, Note_on_c, 0, 68, 0
2, 18720, Note_on_c, 0, 67, 63
2, 18880, Note_on_c, 0, 67, 0
2, 18880, Note_on_c, 0, 70, 60
2, 19040, Note_on_c, 0, 70, 0
2, 19040, Note_on_c, 0, 68, 58
2, 19200, Note_on_c, 0, 68, 0
2, 19200, Note_on_c, 0, 67, 63
2, 19360, Note_on_c, 0, 67, 0
2, 19360, Note_on_c, 0, 68, 60
2, 19520, Note_on_c, 0, 68, 0
2, 19520, Note_on_c, 0, 70, 60
2, 19680, Note_on_c, 0, 70, 0
2, 19680, Note_on_c, 0, 72, 63
2, 19840, Note_on_c, 0, 72, 0
2, 19840, Note_on_c, 0, 74, 58
2, 20000, Note_on_c, 0, 74, 0
2, 20000, Note_on_c, 0, 75, 58
2, 20160, Note_on_c, 0, 75, 0
2, 20160, Note_on_c, 0, 77, 63
2, 20320, Note_on_c, 0, 77, 0
2, 20320, Note_on_c, 0, 84, 64
2, 20480, Note_on_c, 0, 84, 0
2, 20480, Note_on_c, 0, 82, 58
2, 20640, Note_on_c, 0, 82, 0
2, 20640, Note_on_c, 0, 80, 64
2, 20800, Note_on_c, 0, 80, 0
2, 20800, Note_on_c, 0, 79, 61
2, 20960, Note_on_c, 0, 79, 0
2, 20960, Note_on_c, 0, 77, 57
2, 21120, Note_on_c, 0, 77, 0
2, 21120, Note_on_c, 0, 75, 63
2, 21280, Note_on_c, 0, 75, 0
2, 21280, Note_on_c, 0, 74, 60
2, 21440, Note_on_c, 0, 74, 0
2, 21440, Note_on_c, 0, 72, 57
2, 21600, Note_on_c, 0, 72, 0
2, 21600, Note_on_c, 0, 70, 62
2, 21760, Note_on_c, 0, 70, 0
2, 21760, Note_on_c, 0, 77, 63
2, 21920, Note_on_c, 0, 77, 0
2, 21920, Note_on_c, 0, 75, 58
2, 22080, Note_on_c, 0, 75, 0
2, 22080, Note_on_c, 0, 74, 63
2, 22240, Note_on_c, 0, 74, 0
2, 22240, Note_on_c, 0, 75, 59
2, 22400, Note_on_c, 0, 75, 0
2, 22400, Note_on_c, 0, 77, 59
2, 22560, Note_on_c, 0, 77, 0
2, 22560, Note_on_c, 0, 79, 63
2, 22720, Note_on_c, 0, 79, 0
2, 22720, Note_on_c, 0, 80, 59
2, 22880, Note_on_c, 0, 80, 0
2, 22880, Note_on_c, 0, 82, 59
2, 23040, Note_on_c, 0, 82, 0
2, 23040, Note_on_c, 0, 75, 63
2, 23200, Note_on_c, 0, 75, 0
2, 23200, Note_on_c, 0, 77, 59
2, 23360, Note_on_c, 0, 77, 0
2, 23360, Note_on_c, 0, 79, 59
2, 23520, Note_on_c, 0, 79, 0
2, 23520, Note_on_c, 0, 80, 63
2, 23680, Note_on_c, 0, 80, 0
2, 23680, Note_on_c, 0, 82, 58
2, 23840, Note_on_c, 0, 82, 0
2, 23840, Note_on_c, 0, 84, 58
2, 24000, Note_on_c, 0, 84, 0
2, 24000, Note_on_c, 0, 86, 63
2, 24160, Note_on_c, 0, 86, 0
2, 24160, Note_on_c, 0, 87, 58
2, 24320, Note_on_c, 0, 87, 0
2, 24320, Note_on_c, 0, 89, 58
2, 24480, Note_on_c, 0, 89, 0
2, 24480, Note_on_c, 0, 91, 67
2, 24640, Note_on_c, 0, 91, 0
2, 24640, Note_on_c, 0, 94, 63
2, 24800, Note_on_c, 0, 94, 0
2, 24800, Note_on_c, 0, 92, 61
2, 24960, Note_on_c, 0, 92, 0
2, 24960, Note_on_c, 0, 91, 67
2, 25120, Note_on_c, 0, 91, 0
2, 25120, Note_on_c, 0, 89, 63
2, 25280, Note_on_c, 0, 89, 0
2, 25280, Note_on_c, 0, 87, 59
2, 25440, Note_on_c, 0, 87, 0
2, 25440, Note_on_c, 0, 86, 64
2, 25600, Note_on_c, 0, 86, 0
2, 25600, Note_on_c, 0, 84, 59
2, 25760, Note_on_c, 0, 84, 0
2, 25760, Note_on_c, 0, 82, 56
2, 25920, Note_on_c, 0, 82, 0
2, 25920, Note_on_c, 0, 80, 63
2, 26080, Note_on_c, 0, 80, 0
2, 26080, Note_on_c, 0, 79, 59
2, 26240, Note_on_c, 0, 79, 0
2, 26240, Note_on_c, 0, 77, 57
2, 26400, Note_on_c, 0, 77, 0
2, 26400, Note_on_c, 0, 75, 63
2, 26560, Note_on_c, 0, 75, 0
2, 26560, Note_on_c, 0, 74, 59
2, 26720, Note_on_c, 0, 74, 0
2, 26720, Note_on_c, 0, 72, 56
2, 26880, Note_on_c, 0, 72, 0
2, 26880, Note_on_c, 0, 70, 63
2, 27040, Note_on_c, 0, 70, 0
2, 27040, Note_on_c, 0, 72, 59
2, 27200, Note_on_c, 0, 72, 0
2, 27200, Note_on_c, 0, 74, 59
2, 27360, Note_on_c, 0, 74, 0
2, 27360, Note_on_c, 0, 75, 66
2, 27520, Note_on_c, 0, 75, 0
2, 27520, Note_on_c, 0, 74, 61
2, 27680, Note_on_c, 0, 74, 0
2, 27680, Note_on_c, 0, 75, 61
2, 27840, Note_on_c, 0, 75, 0
2, 27840, Note_on_c, 0, 76, 66
2, 28000, Note_on_c, 0, 76, 0
2, 28000, Note_on_c, 0, 75, 63
2, 28160, Note_on_c, 0, 75, 0
2, 28160, Note_on_c, 0, 76, 61
2, 28320, Note_on_c, 0, 76, 0
2, 28320, Note_on_c, 0, 77, 70
2, 28480, Note_on_c, 0, 77, 0
2, 28480, Note_on_c, 0, 76, 66
2, 28640, Note_on_c, 0, 76, 0
2, 28640, Note_on_c, 0, 77, 63
2, 28800, Note_on_c, 0, 77, 0
2, 28800, Note_on_c, 0, 78, 72
2, 28960, Note_on_c, 0, 78, 0
2, 28960, Note_on_c, 0, 77, 67
2, 29120, Note_on_c, 0, 77, 0
2, 29120, Note_on_c, 0, 78, 65
2, 29280, Note_on_c, 0, 78, 0
2, 29280, Note_on_c, 0, 79, 70
2, 29440, Note_on_c, 0, 79, 0
2, 29440, Note_on_c, 0, 78, 65
2, 29600, Note_on_c, 0, 78, 0
2, 29600, Note_on_c, 0, 79, 63
2, 29760, Note_on_c, 0, 79, 0
2, 29760, Note_on_c, 0, 80, 64
2, 29920, Note_on_c, 0, 80, 0
2, 29920, Note_on_c, 0, 79, 61
2, 30080, Note_on_c, 0, 79, 0
2, 30080, Note_on_c, 0, 80, 61
2, 30240, Note_on_c, 0, 80, 0
2, 30240, Note_on_c, 0, 79, 63
2, 30400, Note_on_c, 0, 79, 0
2, 30400, Note_on_c, 0, 82, 59
2, 30560, Note_on_c, 0, 82, 0
2, 30560, Note_on_c, 0, 80, 59
2, 30720, Note_on_c, 0, 80, 0
2, 30720, Note_on_c, 0, 79, 63
2, 30880, Note_on_c, 0, 79, 0
2, 30880, Note_on_c, 0, 80, 59
2, 31040, Note_on_c, 0, 80, 0
2, 31040, Note_on_c, 0, 82, 59
2, 31200, Note_on_c, 0, 82, 0
2, 31200, Note_on_c, 0, 84, 63
2, 31360, Note_on_c, 0, 84, 0
2, 31360, Note_on_c, 0, 86, 60
2, 31520, Note_on_c, 0, 86, 0
2, 31520, Note_on_c, 0, 87, 60
2, 31680, Note_on_c, 0, 87, 0
2, 31680, Note_on_c, 0, 89, 64
2, 31840, Note_on_c, 0, 89, 0
2, 31840, Note_on_c, 0, 96, 62
2, 32000, Note_on_c, 0, 96, 0
2, 32000, Note_on_c, 0, 94, 59
2, 32160, Note_on_c, 0, 94, 0
2, 32160, Note_on_c, 0, 92, 62
2, 32320, Note_on_c, 0, 92, 0
2, 32320, Note_on_c, 0, 91, 56
2, 32480, Note_on_c, 0, 91, 0
2, 32480, Note_on_c, 0, 89, 56
2, 32640, Note_on_c, 0, 89, 0
2, 32640, Note_on_c, 0, 87, 59
2, 32800, Note_on_c, 0, 87, 0
2, 32800, Note_on_c, 0, 86, 58
2, 32960, Note_on_c, 0, 86, 0
2, 32960, Note_on_c, 0, 84, 53
2, 33120, Note_on_c, 0, 84, 0
2, 33120, Note_on_c, 0, 82, 53
2, 33280, Note_on_c, 0, 82, 0
2, 33280, Note_on_c, 0, 89, 55
2, 33440, Note_on_c, 0, 89, 0
2, 33440, Note_on_c, 0, 87, 51
2, 33600, Note_on_c, 0, 87, 0
2, 33600, Note_on_c, 0, 86, 54
2, 33760, Note_on_c, 0, 86, 0
2, 33760, Note_on_c, 0, 84, 53
2, 33920, Note_on_c, 0, 84, 0
2, 33920, Note_on_c, 0, 82, 48
2, 34080, Note_on_c, 0, 82, 0
2, 34080, Note_on_c, 0, 80, 51
2, 34240, Note_on_c, 0, 80, 0
2, 34240, Note_on_c, 0, 79, 50
2, 34400, Note_on_c, 0, 79, 0
2, 34400, Note_on_c, 0, 77, 49
2, 34560, Note_on_c, 0, 77, 0
2, 34560, Note_on_c, 0, 75, 48
2, 34720, Note_on_c, 0, 75, 0
2, 34720, Note_on_c, 0, 79, 47
2, 34880, Note_on_c, 0, 79, 0
2, 34880, Note_on_c, 0, 77, 46
2, 35040, Note_on_c, 0, 77, 0
2, 35040, Note_on_c, 0, 75, 45
2, 35200, Note_on_c, 0, 75, 0
2, 35200, Note_on_c, 0, 74, 45
2, 35360, Note_on_c, 0, 74, 0
2, 35360, Note_on_c, 0, 72, 44
2, 35520, Note_on_c, 0, 72, 0
2, 35520, Note_on_c, 0, 70, 43
2, 35680, Note_on_c, 0, 70, 0
2, 35680, Note_on_c, 0, 68, 42
2, 35840, Note_on_c, 0, 68, 0
2, 35840, Note_on_c, 0, 65, 41
2, 36000, Note_on_c, 0, 65, 0
2, 36000, Note_on_c, 0, 66, 40
2, 36160, Note_on_c, 0, 66, 0
2, 36160, Note_on_c, 0, 70, 38
2, 36320, Note_on_c, 0, 70, 0
2, 36320, Note_on_c, 0, 68, 39
2, 36480, Note_on_c, 0, 68, 0
2, 36480, Note_on_c, 0, 66, 41
2, 36640, Note_on_c, 0, 66, 0
2, 36640, Note_on_c, 0, 65, 37
2, 36800, Note_on_c, 0, 65, 0
2, 36800, Note_on_c, 0, 63, 32
2, 36960, Note_on_c, 0, 63, 0
2, 36960, Note_on_c, 0, 61, 41
2, 37120, Note_on_c, 0, 61, 0
2, 37120, Note_on_c, 0, 59, 37
2, 37280, Note_on_c, 0, 59, 0
2, 37280, Note_on_c, 0, 58, 32
2, 37440, Note_on_c, 0, 58, 0
2, 37440, Note_on_c, 0, 59, 41
2, 37600, Note_on_c, 0, 59, 0
2, 37600, Note_on_c, 0, 63, 39
2, 37760, Note_on_c, 0, 63, 0
2, 37760, Note_on_c, 0, 68, 39
2, 37920, Note_on_c, 0, 68, 0
2, 37920, Note_on_c, 0, 71, 44
2, 38080, Note_on_c, 0, 63, 37
2, 38240, Note_on_c, 0, 63, 0
2, 38240, Note_on_c, 0, 68, 30
2, 38400, Note_on_c, 0, 68, 0
2, 38400, Note_on_c, 0, 66, 37
2, 38560, Note_on_c, 0, 66, 0
2, 38560, Note_on_c, 0, 63, 35
2, 38720, Note_on_c, 0, 63, 0
2, 38720, Note_on_c, 0, 66, 32
2, 38880, Note_on_c, 0, 66, 0
2, 38880, Note_on_c, 0, 71, 0
2, 38880, Note_on_c, 0, 65, 41
2, 39040, Note_on_c, 0, 65, 0
2, 39040, Note_on_c, 0, 71, 37
2, 39200, Note_on_c, 0, 71, 0
2, 39200, Note_on_c, 0, 70, 32
2, 39360, Note_on_c, 0, 70, 0
2, 39360, Note_on_c, 0, 68, 41
2, 39520, Note_on_c, 0, 68, 0
2, 39520, Note_on_c, 0, 66, 37
2, 39680, Note_on_c, 0, 66, 0
2, 39680, Note_on_c, 0, 65, 31
2, 39840, Note_on_c, 0, 65, 0
2, 39840, Note_on_c, 0, 63, 36
2, 40000, Note_on_c, 0, 63, 0
2, 40000, Note_on_c, 0, 61, 36
2, 40160, Note_on_c, 0, 61, 0
2, 40160, Note_on_c, 0, 59, 31
2, 40320, Note_on_c, 0, 59, 0
2, 40320, Note_on_c, 0, 58, 41
2, 40480, Note_on_c, 0, 58, 0
2, 40480, Note_on_c, 0, 61, 38
2, 40640, Note_on_c, 0, 61, 0
2, 40640, Note_on_c, 0, 66, 30
2, 40800, Note_on_c, 0, 66, 0
2, 40800, Note_on_c, 0, 70, 44
2, 40960, Note_on_c, 0, 61, 38
2, 41120, Note_on_c, 0, 61, 0
2, 41120, Note_on_c, 0, 66, 32
2, 41280, Note_on_c, 0, 66, 0
2, 41280, Note_on_c, 0, 65, 36
2, 41440, Note_on_c, 0, 65, 0
2, 41440, Note_on_c, 0, 61, 34
2, 41600, Note_on_c, 0, 61, 0
2, 41600, Note_on_c, 0, 65, 31
2, 41760, Note_on_c, 0, 65, 0
2, 41760, Note_on_c, 0, 70, 0
2, 41760, Note_on_c, 0, 63, 40
2, 41920, Note_on_c, 0, 63, 0
2, 41920, Note_on_c, 0, 70, 41
2, 42080, Note_on_c, 0, 70, 0
2, 42080, Note_on_c, 0, 68, 37
2, 42240, Note_on_c, 0, 68, 0
2, 42240, Note_on_c, 0, 66, 41
2, 42400, Note_on_c, 0, 66, 0
2, 42400, Note_on_c, 0, 65, 37
2, 42560, Note_on_c, 0, 65, 0
2, 42560, Note_on_c, 0, 63, 31
2, 42720, Note_on_c, 0, 63, 0
2, 42720, Note_on_c, 0, 61, 37
2, 42880, Note_on_c, 0, 61, 0
2, 42880, Note_on_c, 0, 59, 34
2, 43040, Note_on_c, 0, 59, 0
2, 43040, Note_on_c, 0, 58, 31
2, 43200, Note_on_c, 0, 58, 0
2, 43200, Note_on_c, 0, 56, 41
2, 43360, Note_on_c, 0, 56, 0
2, 43360, Note_on_c, 0, 59, 37
2, 43520, Note_on_c, 0, 59, 0
2, 43520, Note_on_c, 0, 65, 37
2, 43680, Note_on_c, 0, 65, 0
2, 43680, Note_on_c, 0, 68, 44
2, 43840, Note_on_c, 0, 59, 39
2, 44000, Note_on_c, 0, 59, 0
2, 44000, Note_on_c, 0, 65, 33
2, 44160, Note_on_c, 0, 65, 0
2, 44160, Note_on_c, 0, 63, 37
2, 44320, Note_on_c, 0, 63, 0
2, 44320, Note_on_c, 0, 59, 33
2, 44480, Note_on_c, 0, 59, 0
2, 44480, Note_on_c, 0, 63, 34
2, 44640, Note_on_c, 0, 63, 0
2, 44640, Note_on_c, 0, 68, 0
2, 44640, Note_on_c, 0, 62, 41
2, 44800, Note_on_c, 0, 62, 0
2, 44800, Note_on_c, 0, 68, 37
2, 44960, Note_on_c, 0, 68, 0
2, 44960, Note_on_c, 0, 66, 37
2, 45120, Note_on_c, 0, 66, 0
2, 45120, Note_on_c, 0, 65, 41
2, 45280, Note_on_c, 0, 65, 0
2, 45280, Note_on_c, 0, 63, 38
2, 45440, Note_on_c, 0, 63, 0
2, 45440, Note_on_c, 0, 62, 33
2, 45600, Note_on_c, 0, 62, 0
2, 45600, Note_on_c, 0, 59, 37
2, 45760, Note_on_c, 0, 59, 0
2, 45760, Note_on_c, 0, 58, 35
2, 45920, Note_on_c, 0, 58, 0
2, 45920, Note_on_c, 0, 56, 35
2, 46080, Note_on_c, 0, 56, 0
2, 46080, Note_on_c, 0, 54, 41
2, 46240, Note_on_c, 0, 54, 0
2, 46240, Note_on_c, 0, 58, 37
2, 46400, Note_on_c, 0, 58, 0
2, 46400, Note_on_c, 0, 63, 39
2, 46560, Note_on_c, 0, 63, 0
2, 46560, Note_on_c, 0, 66, 44
2, 46720, Note_on_c, 0, 58, 35
2, 46880, Note_on_c, 0, 58, 0
2, 46880, Note_on_c, 0, 63, 35
2, 47040, Note_on_c, 0, 63, 0
2, 47040, Note_on_c, 0, 61, 40
2, 47200, Note_on_c, 0, 61, 0
2, 47200, Note_on_c, 0, 58, 35
2, 47360, Note_on_c, 0, 58, 0
2, 47360, Note_on_c, 0, 61, 35
2, 47520, Note_on_c, 0, 61, 0
2, 47520, Note_on_c, 0, 66, 0
2, 47520, Note_on_c, 0, 59, 41
2, 47680, Note_on_c, 0, 59, 0
2, 47680, Note_on_c, 0, 63, 38
2, 47840, Note_on_c, 0, 63, 0
2, 47840, Note_on_c, 0, 68, 38
2, 48000, Note_on_c, 0, 68, 0
2, 48000, Note_on_c, 0, 71, 44
2, 48160, Note_on_c, 0, 63, 37
2, 48320, Note_on_c, 0, 63, 0
2, 48320, Note_on_c, 0, 68, 37
2, 48480, Note_on_c, 0, 68, 0
2, 48480, Note_on_c, 0, 66, 39
2, 48640, Note_on_c, 0, 66, 0
2, 48640, Note_on_c, 0, 63, 36
2, 48800, Note_on_c, 0, 63, 0
2, 48800, Note_on_c, 0, 66, 36
2, 48960, Note_on_c, 0, 66, 0
2, 48960, Note_on_c, 0, 71, 0
2, 48960, Note_on_c, 0, 71, 48
2, 49120, Note_on_c, 0, 65, 41
2, 49280, Note_on_c, 0, 65, 0
2, 49280, Note_on_c, 0, 62, 41
2, 49440, Note_on_c, 0, 62, 0
2, 49440, Note_on_c, 0, 71, 0
2, 49440, Note_on_c, 0, 70, 47
2, 49600, Note_on_c, 0, 65, 41
2, 49760, Note_on_c, 0, 65, 0
2, 49760, Note_on_c, 0, 62, 41
2, 49920, Note_on_c, 0, 62, 0
2, 49920, Note_on_c, 0, 70, 0
2, 49920, Note_on_c, 0, 74, 47
2, 50080, Note_on_c, 0, 68, 41
2, 50240, Note_on_c, 0, 68, 0
2, 50240, Note_on_c, 0, 65, 41
2, 50400, Note_on_c, 0, 65, 0
2, 50400, Note_on_c, 0, 74, 0
2, 50400, Note_on_c, 0, 75, 47
2, 50560, Note_on_c, 0, 75, 0
2, 50560, Note_on_c, 0, 78, 39
2, 50720, Note_on_c, 0, 78, 0
2, 50720, Note_on_c, 0, 77, 39
2, 50880, Note_on_c, 0, 77, 0
2, 50880, Note_on_c, 0, 75, 42
2, 51040, Note_on_c, 0, 75, 0
2, 51040, Note_on_c, 0, 73, 36
2, 51200, Note_on_c, 0, 73, 0
2, 51200, Note_on_c, 0, 71, 36
2, 51360, Note_on_c, 0, 71, 0
2, 51360, Note_on_c, 0, 70, 43
2, 51520, Note_on_c, 0, 70, 0
2, 51520, Note_on_c, 0, 68, 37
2, 51680, Note_on_c, 0, 68, 0
2, 51680, Note_on_c, 0, 65, 36
2, 51840, Note_on_c, 0, 65, 0
2, 51840, Note_on_c, 0, 66, 39
2, 52000, Note_on_c, 0, 66, 0
2, 52000, Note_on_c, 0, 70, 39
2, 52160, Note_on_c, 0, 70, 0
2, 52160, Note_on_c, 0, 68, 36
2, 52320, Note_on_c, 0, 68, 0
2, 52320, Note_on_c, 0, 66, 39
2, 52480, Note_on_c, 0, 66, 0
2, 52480, Note_on_c, 0, 65, 36
2, 52640, Note_on_c, 0, 65, 0
2, 52640, Note_on_c, 0, 63, 36
2, 52800, Note_on_c, 0, 63, 0
2, 52800, Note_on_c, 0, 61, 39
2, 52960, Note_on_c, 0, 61, 0
2, 52960, Note_on_c, 0, 59, 36
2, 53120, Note_on_c, 0, 59, 0
2, 53120, Note_on_c, 0, 58, 36
2, 53280, Note_on_c, 0, 58, 0
2, 53280, Note_on_c, 0, 59, 40
2, 53440, Note_on_c, 0, 59, 0
2, 53440, Note_on_c, 0, 62, 40
2, 53600, Note_on_c, 0, 62, 0
2, 53600, Note_on_c, 0, 65, 37
2, 53760, Note_on_c, 0, 65, 0
2, 53760, Note_on_c, 0, 71, 44
2, 53920, Note_on_c, 0, 65, 40
2, 54080, Note_on_c, 0, 65, 0
2, 54080, Note_on_c, 0, 62, 37
2, 54240, Note_on_c, 0, 62, 0
2, 54240, Note_on_c, 0, 65, 40
2, 54400, Note_on_c, 0, 65, 0
2, 54400, Note_on_c, 0, 61, 37
2, 54560, Note_on_c, 0, 61, 0
2, 54560, Note_on_c, 0, 59, 37
2, 54720, Note_on_c, 0, 59, 0
2, 54720, Note_on_c, 0, 71, 0
2, 54720, Note_on_c, 0, 58, 40
2, 54880, Note_on_c, 0, 58, 0
2, 54880, Note_on_c, 0, 70, 40
2, 55040, Note_on_c, 0, 70, 0
2, 55040, Note_on_c, 0, 68, 36
2, 55200, Note_on_c, 0, 68, 0
2, 55200, Note_on_c, 0, 66, 40
2, 55360, Note_on_c, 0, 66, 0
2, 55360, Note_on_c, 0, 65, 40
2, 55520, Note_on_c, 0, 65, 0
2, 55520, Note_on_c, 0, 63, 38
2, 55680, Note_on_c, 0, 63, 0
2, 55680, Note_on_c, 0, 61, 40
2, 55840, Note_on_c, 0, 61, 0
2, 55840, Note_on_c, 0, 59, 37
2, 56000, Note_on_c, 0, 59, 0
2, 56000, Note_on_c, 0, 58, 35
2, 56160, Note_on_c, 0, 58, 0
2, 56160, Note_on_c, 0, 59, 39
2, 56320, Note_on_c, 0, 59, 0
2, 56320, Note_on_c, 0, 62, 35
2, 56480, Note_on_c, 0, 62, 0
2, 56480, Note_on_c, 0, 65, 36
2, 56640, Note_on_c, 0, 65, 0
2, 56640, Note_on_c, 0, 71, 45
2, 56800, Note_on_c, 0, 65, 37
2, 56960, Note_on_c, 0, 65, 0
2, 56960, Note_on_c, 0, 62, 37
2, 57120, Note_on_c, 0, 62, 0
2, 57120, Note_on_c, 0, 65, 40
2, 57280, Note_on_c, 0, 65, 0
2, 57280, Note_on_c, 0, 61, 40
2, 57440, Note_on_c, 0, 61, 0
2, 57440, Note_on_c, 0, 59, 36
2, 57600, Note_on_c, 0, 59, 0
2, 57600, Note_on_c, 0, 71, 0
2, 57600, Note_on_c, 0, 61, 40
2, 57760, Note_on_c, 0, 61, 0
2, 57760, Note_on_c, 0, 66, 37
2, 57920, Note_on_c, 0, 66, 0
2, 57920, Note_on_c, 0, 70, 37
2, 58080, Note_on_c, 0, 70, 0
2, 58080, Note_on_c, 0, 73, 45
2, 58240, Note_on_c, 0, 70, 40
2, 58400, Note_on_c, 0, 70, 0
2, 58400, Note_on_c, 0, 66, 36
2, 58560, Note_on_c, 0, 66, 0
2, 58560, Note_on_c, 0, 65, 39
2, 58720, Note_on_c, 0, 65, 0
2, 58720, Note_on_c, 0, 66, 37
2, 58880, Note_on_c, 0, 66, 0
2, 58880, Note_on_c, 0, 64, 38
2, 59040, Note_on_c, 0, 64, 0
2, 59040, Note_on_c, 0, 73, 0
2, 59040, Note_on_c, 0, 63, 39
2, 59200, Note_on_c, 0, 63, 0
2, 59200, Note_on_c, 0, 68, 39
2, 59360, Note_on_c, 0, 68, 0
2, 59360, Note_on_c, 0, 71, 39
2, 59520, Note_on_c, 0, 71, 0
2, 59520, Note_on_c, 0, 75, 46
2, 59680, Note_on_c, 0, 71, 38
2, 59840, Note_on_c, 0, 71, 0
2, 59840, Note_on_c, 0, 68, 38
2, 60000, Note_on_c, 0, 68, 0
2, 60000, Note_on_c, 0, 67, 40
2, 60160, Note_on_c, 0, 67, 0
2, 60160, Note_on_c, 0, 68, 39
2, 60320, Note_on_c, 0, 68, 0
2, 60320, Note_on_c, 0, 66, 39
2, 60480, Note_on_c, 0, 66, 0
2, 60480, Note_on_c, 0, 75, 0
2, 60480, Note_on_c, 0, 65, 40
2, 60640, Note_on_c, 0, 65, 0
2, 60640, Note_on_c, 0, 66, 40
2, 60800, Note_on_c, 0, 66, 0
2, 60800, Note_on_c, 0, 67, 38
2, 60960, Note_on_c, 0, 67, 0
2, 60960, Note_on_c, 0, 68, 40
2, 61120, Note_on_c, 0, 68, 0
2, 61120, Note_on_c, 0, 70, 40
2, 61280, Note_on_c, 0, 70, 0
2, 61280, Note_on_c, 0, 71, 39
2, 61440, Note_on_c, 0, 71, 0
2, 61440, Note_on_c, 0, 73, 40
2, 61600, Note_on_c, 0, 73, 0
2, 61600, Note_on_c, 0, 75, 40
2, 61760, Note_on_c, 0, 75, 0
2, 61760, Note_on_c, 0, 77, 39
2, 61920, Note_on_c, 0, 77, 0
2, 61920, Note_on_c, 0, 78, 39
2, 62080, Note_on_c, 0, 78, 0
2, 62080, Note_on_c, 0, 82, 45
2, 62240, Note_on_c, 0, 82, 0
2, 62240, Note_on_c, 0, 80, 42
2, 62400, Note_on_c, 0, 80, 0
2, 62400, Note_on_c, 0, 78, 41
2, 62560, Note_on_c, 0, 78, 0
2, 62560, Note_on_c, 0, 77, 41
2, 62720, Note_on_c, 0, 77, 0
2, 62720, Note_on_c, 0, 75, 40
2, 62880, Note_on_c, 0, 75, 0
2, 62880, Note_on_c, 0, 73, 40
2, 63040, Note_on_c, 0, 73, 0
2, 63040, Note_on_c, 0, 71, 40
2, 63200, Note_on_c, 0, 71, 0
2, 63200, Note_on_c, 0, 70, 39
2, 63360, Note_on_c, 0, 70, 0
2, 63360, Note_on_c, 0, 68, 40
2, 63520, Note_on_c, 0, 68, 0
2, 63520, Note_on_c, 0, 71, 38
2, 63680, Note_on_c, 0, 71, 0
2, 63680, Note_on_c, 0, 70, 38
2, 63840, Note_on_c, 0, 70, 0
2, 63840, Note_on_c, 0, 68, 38
2, 64000, Note_on_c, 0, 68, 0
2, 64000, Note_on_c, 0, 66, 37
2, 64160, Note_on_c, 0, 66, 0
2, 64160, Note_on_c, 0, 65, 35
2, 64320, Note_on_c, 0, 65, 0
2, 64320, Note_on_c, 0, 63, 40
2, 64480, Note_on_c, 0, 63, 0
2, 64480, Note_on_c, 0, 62, 33
2, 64640, Note_on_c, 0, 62, 0
2, 64640, Note_on_c, 0, 65, 33
2, 64800, Note_on_c, 0, 65, 0
2, 64800, Note_on_c, 0, 68, 33
2, 64960, Note_on_c, 0, 68, 0
2, 64960, Note_on_c, 0, 71, 33
2, 65120, Note_on_c, 0, 71, 0
2, 65120, Note_on_c, 0, 70, 33
2, 65280, Note_on_c, 0, 70, 0
2, 65280, Note_on_c, 0, 68, 33
2, 65440, Note_on_c, 0, 68, 0
2, 65440, Note_on_c, 0, 66, 33
2, 65600, Note_on_c, 0, 66, 0
2, 65600, Note_on_c, 0, 65, 33
2, 65760, Note_on_c, 0, 65, 0
2, 65760, Note_on_c, 0, 63, 40
2, 65920, Note_on_c, 0, 63, 0
2, 65920, Note_on_c, 0, 62, 33
2, 66080, Note_on_c, 0, 62, 0
2, 66080, Note_on_c, 0, 65, 33
2, 66240, Note_on_c, 0, 65, 0
2, 66240, Note_on_c, 0, 68, 32
2, 66400, Note_on_c, 0, 68, 0
2, 66400, Note_on_c, 0, 71, 32
2, 66560, Note_on_c, 0, 71, 0
2, 66560, Note_on_c, 0, 70, 32
2, 66720, Note_on_c, 0, 70, 0
2, 66720, Note_on_c, 0, 68, 32
2, 66880, Note_on_c, 0, 68, 0
2, 66880, Note_on_c, 0, 66, 32
2, 67040, Note_on_c, 0, 66, 0
2, 67040, Note_on_c, 0, 65, 32
2, 67200, Note_on_c, 0, 65, 0
2, 67200, Note_on_c, 0, 63, 39
2, 67360, Note_on_c, 0, 63, 0
2, 67360, Note_on_c, 0, 62, 32
2, 67520, Note_on_c, 0, 62, 0
2, 67520, Note_on_c, 0, 65, 32
2, 67680, Note_on_c, 0, 65, 0
2, 67680, Note_on_c, 0, 68, 32
2, 67840, Note_on_c, 0, 68, 0
2, 67840, Note_on_c, 0, 71, 34
2, 68000, Note_on_c, 0, 71, 0
2, 68000, Note_on_c, 0, 74, 36
2, 68160, Note_on_c, 0, 74, 0
2, 68160, Note_on_c, 0, 71, 39
2, 68320, Note_on_c, 0, 71, 0
2, 68320, Note_on_c, 0, 74, 40
2, 68480, Note_on_c, 0, 74, 0
2, 68480, Note_on_c, 0, 77, 41
2, 68640, Note_on_c, 0, 77, 0
2, 68640, Note_on_c, 0, 74, 43
2, 68800, Note_on_c, 0, 74, 0
2, 68800, Note_on_c, 0, 77, 45
2, 68960, Note_on_c, 0, 77, 0
2, 68960, Note_on_c, 0, 78, 46
2, 69120, Note_on_c, 0, 78, 0
2, 69120, Note_on_c, 0, 80, 50
2, 69280, Note_on_c, 0, 80, 0
2, 69280, Note_on_c, 0, 83, 48
2, 69440, Note_on_c, 0, 83, 0
2, 69440, Note_on_c, 0, 82, 48
2, 69600, Note_on_c, 0, 82, 0
2, 69600, Note_on_c, 0, 80, 50
2, 69760, Note_on_c, 0, 80, 0
2, 69760, Note_on_c, 0, 78, 48
2, 69920, Note_on_c, 0, 78, 0
2, 69920, Note_on_c, 0, 77, 48
2, 70080, Note_on_c, 0, 77, 0
2, 70080, Note_on_c, 0, 75, 53
2, 70240, Note_on_c, 0, 75, 0
2, 70240, Note_on_c, 0, 74, 47
2, 70400, Note_on_c, 0, 74, 0
2, 70400, Note_on_c, 0, 77, 47
2, 70560, Note_on_c, 0, 77, 0
2, 70560, Note_on_c, 0, 80, 47
2, 70720, Note_on_c, 0, 80, 0
2, 70720, Note_on_c, 0, 83, 47
2, 70880, Note_on_c, 0, 83, 0
2, 70880, Note_on_c, 0, 82, 46
2, 71040, Note_on_c, 0, 82, 0
2, 71040, Note_on_c, 0, 80, 47
2, 71200, Note_on_c, 0, 80, 0
2, 71200, Note_on_c, 0, 78, 45
2, 71360, Note_on_c, 0, 78, 0
2, 71360, Note_on_c, 0, 77, 45
2, 71520, Note_on_c, 0, 77, 0
2, 71520, Note_on_c, 0, 75, 52
2, 71680, Note_on_c, 0, 75, 0
2, 71680, Note_on_c, 0, 74, 48
2, 71840, Note_on_c, 0, 74, 0
2, 71840, Note_on_c, 0, 77, 48
2, 72000, Note_on_c, 0, 77, 0
2, 72000, Note_on_c, 0, 80, 48
2, 72160, Note_on_c, 0, 80, 0
2, 72160, Note_on_c, 0, 83, 48
2, 72320, Note_on_c, 0, 83, 0
2, 72320, Note_on_c, 0, 80, 51
2, 72480, Note_on_c, 0, 80, 0
2, 72480, Note_on_c, 0, 83, 53
2, 72640, Note_on_c, 0, 83, 0
2, 72640, Note_on_c, 0, 80, 54
2, 72800, Note_on_c, 0, 80, 0
2, 72800, Note_on_c, 0, 83, 56
2, 72960, Note_on_c, 0, 83, 0
2, 72960, Note_on_c, 0, 80, 57
2, 73120, Note_on_c, 0, 80, 0
2, 73120, Note_on_c, 0, 83, 60
2, 73280, Note_on_c, 0, 83, 0
2, 73280, Note_on_c, 0, 80, 61
2, 73440, Note_on_c, 0, 80, 0
2, 73440, Note_on_c, 0, 82, 61
2, 73600, Note_on_c, 0, 82, 0
2, 73600, Note_on_c, 0, 80, 56
2, 73760, Note_on_c, 0, 80, 0
2, 73760, Note_on_c, 0, 82, 53
2, 73920, Note_on_c, 0, 82, 0
2, 73920, Note_on_c, 0, 80, 48
2, 74080, Note_on_c, 0, 80, 0
2, 74080, Note_on_c, 0, 82, 44
2, 74240, Note_on_c, 0, 82, 0
2, 74240, Note_on_c, 0, 80, 40
2, 74400, Note_on_c, 0, 80, 0
2, 74400, Note_on_c, 0, 82, 36
2, 74560, Note_on_c, 0, 82, 0
2, 74560, Note_on_c, 0, 80, 32
2, 74720, Note_on_c, 0, 80, 0
2, 74720, Note_on_c, 0, 82, 27
2, 74880, Note_on_c, 0, 82, 0
2, 74880, Control_c, 0, 91, 126
2, 74880, Note_on_c, 0, 79, 48
2, 75040, Note_on_c, 0, 79, 0
2, 75040, Note_on_c, 0, 82, 45
2, 75200, Note_on_c, 0, 82, 0
2, 75200, Note_on_c, 0, 80, 43
2, 75360, Note_on_c, 0, 80, 0
2, 75360, Note_on_c, 0, 79, 48
2, 75520, Note_on_c, 0, 79, 0
2, 75520, Note_on_c, 0, 77, 45
2, 75680, Note_on_c, 0, 77, 0
2, 75680, Note_on_c, 0, 75, 43
2, 75840, Note_on_c, 0, 75, 0
2, 75840, Note_on_c, 0, 74, 48
2, 76000, Note_on_c, 0, 74, 0
2, 76000, Note_on_c, 0, 72, 46
2, 76160, Note_on_c, 0, 72, 0
2, 76160, Note_on_c, 0, 70, 45
2, 76320, Note_on_c, 0, 70, 0
2, 76320, Note_on_c, 0, 68, 48
2, 76480, Note_on_c, 0, 68, 0
2, 76480, Note_on_c, 0, 67, 46
2, 76640, Note_on_c, 0, 67, 0
2, 76640, Note_on_c, 0, 65, 44
2, 76800, Note_on_c, 0, 65, 0
2, 76800, Note_on_c, 0, 63, 48
2, 76960, Note_on_c, 0, 63, 0
2, 76960, Note_on_c, 0, 62, 45
2, 77120, Note_on_c, 0, 62, 0
2, 77120, Note_on_c, 0, 60, 45
2, 77280, Note_on_c, 0, 60, 0
2, 77280, Note_on_c, 0, 58, 48
2, 77440, Note_on_c, 0, 60, 46
2, 77600, Note_on_c, 0, 60, 0
2, 77600, Note_on_c, 0, 62, 45
2, 77760, Note_on_c, 0, 62, 0
2, 77760, Note_on_c, 0, 58, 0
2, 77760, Note_on_c, 0, 63, 48
2, 77920, Note_on_c, 0, 63, 0
2, 77920, Note_on_c, 0, 62, 46
2, 78080, Note_on_c, 0, 62, 0
2, 78080, Note_on_c, 0, 63, 44
2, 78240, Note_on_c, 0, 63, 0
2, 78240, Note_on_c, 0, 64, 50
2, 78400, Note_on_c, 0, 64, 0
2, 78400, Note_on_c, 0, 63, 49
2, 78560, Note_on_c, 0, 63, 0
2, 78560, Note_on_c, 0, 64, 45
2, 78720, Note_on_c, 0, 64, 0
2, 78720, Note_on_c, 0, 65, 54
2, 78880, Note_on_c, 0, 65, 0
2, 78880, Note_on_c, 0, 64, 51
2, 79040, Note_on_c, 0, 64, 0
2, 79040, Note_on_c, 0, 65, 46
2, 79200, Note_on_c, 0, 65, 0
2, 79200, Note_on_c, 0, 66, 57
2, 79360, Note_on_c, 0, 66, 0
2, 79360, Note_on_c, 0, 65, 52
2, 79520, Note_on_c, 0, 65, 0
2, 79520, Note_on_c, 0, 66, 48
2, 79680, Note_on_c, 0, 66, 0
2, 79680, Note_on_c, 0, 67, 56
2, 79840, Note_on_c, 0, 67, 0
2, 79840, Note_on_c, 0, 66, 52
2, 80000, Note_on_c, 0, 66, 0
2, 80000, Note_on_c, 0, 67, 48
2, 80160, Note_on_c, 0, 67, 0
2, 80160, Note_on_c, 0, 68, 48
2, 80320, Note_on_c, 0, 68, 0
2, 80320, Note_on_c, 0, 67, 45
2, 80480, Note_on_c, 0, 67, 0
2, 80480, Note_on_c, 0, 68, 45
2, 80640, Note_on_c, 0, 68, 0
2, 80640, Note_on_c, 0, 67, 48
2, 80800, Note_on_c, 0, 67, 0
2, 80800, Note_on_c, 0, 70, 48
2, 80960, Note_on_c, 0, 70, 0
2, 80960, Note_on_c, 0, 68, 45
2, 81120, Note_on_c, 0, 68, 0
2, 81120, Note_on_c, 0, 67, 48
2, 81280, Note_on_c, 0, 67, 0
2, 81280, Note_on_c, 0, 68, 45
2, 81440, Note_on_c, 0, 68, 0
2, 81440, Note_on_c, 0, 70, 43
2, 81600, Note_on_c, 0, 70, 0
2, 81600, Note_on_c, 0, 72, 48
2, 81760, Note_on_c, 0, 72, 0
2, 81760, Note_on_c, 0, 74, 45
2, 81920, Note_on_c, 0, 74, 0
2, 81920, Note_on_c, 0, 75, 44
2, 82080, Note_on_c, 0, 75, 0
2, 82080, Note_on_c, 0, 77, 50
2, 82240, Note_on_c, 0, 77, 0
2, 82240, Note_on_c, 0, 84, 50
2, 82400, Note_on_c, 0, 84, 0
2, 82400, Note_on_c, 0, 82, 46
2, 82560, Note_on_c, 0, 82, 0
2, 82560, Note_on_c, 0, 80, 51
2, 82720, Note_on_c, 0, 80, 0
2, 82720, Note_on_c, 0, 79, 48
2, 82880, Note_on_c, 0, 79, 0
2, 82880, Note_on_c, 0, 77, 45
2, 83040, Note_on_c, 0, 77, 0
2, 83040, Note_on_c, 0, 75, 48
2, 83200, Note_on_c, 0, 75, 0
2, 83200, Note_on_c, 0, 74, 45
2, 83360, Note_on_c, 0, 74, 0
2, 83360, Note_on_c, 0, 72, 45
2, 83520, Note_on_c, 0, 72, 0
2, 83520, Note_on_c, 0, 74, 46
2, 83680, Note_on_c, 0, 74, 0
2, 83680, Note_on_c, 0, 77, 46
2, 83840, Note_on_c, 0, 77, 0
2, 83840, Note_on_c, 0, 75, 46
2, 84000, Note_on_c, 0, 75, 0
2, 84000, Note_on_c, 0, 74, 49
2, 84160, Note_on_c, 0, 74, 0
2, 84160, Note_on_c, 0, 75, 50
2, 84320, Note_on_c, 0, 75, 0
2, 84320, Note_on_c, 0, 77, 48
2, 84480, Note_on_c, 0, 77, 0
2, 84480, Note_on_c, 0, 79, 53
2, 84640, Note_on_c, 0, 79, 0
2, 84640, Note_on_c, 0, 80, 51
2, 84800, Note_on_c, 0, 80, 0
2, 84800, Note_on_c, 0, 82, 51
2, 84960, Note_on_c, 0, 82, 0
2, 84960, Note_on_c, 0, 75, 55
2, 85120, Note_on_c, 0, 75, 0
2, 85120, Note_on_c, 0, 77, 56
2, 85280, Note_on_c, 0, 77, 0
2, 85280, Note_on_c, 0, 79, 56
2, 85440, Note_on_c, 0, 79, 0
2, 85440, Note_on_c, 0, 80, 58
2, 85600, Note_on_c, 0, 80, 0
2, 85600, Note_on_c, 0, 82, 59
2, 85760, Note_on_c, 0, 82, 0
2, 85760, Note_on_c, 0, 84, 57
2, 85920, Note_on_c, 0, 84, 0
2, 85920, Note_on_c, 0, 86, 61
2, 86080, Note_on_c, 0, 86, 0
2, 86080, Note_on_c, 0, 87, 62
2, 86240, Note_on_c, 0, 87, 0
2, 86240, Note_on_c, 0, 89, 59
2, 86400, Note_on_c, 0, 89, 0
2, 86400, Note_on_c, 0, 91, 64
2, 86560, Note_on_c, 0, 91, 0
2, 86560, Note_on_c, 0, 94, 62
2, 86720, Note_on_c, 0, 94, 0
2, 86720, Note_on_c, 0, 92, 58
2, 86880, Note_on_c, 0, 92, 0
2, 86880, Note_on_c, 0, 91, 64
2, 87040, Note_on_c, 0, 91, 0
2, 87040, Note_on_c, 0, 89, 61
2, 87200, Note_on_c, 0, 89, 0
2, 87200, Note_on_c, 0, 87, 60
2, 87360, Note_on_c, 0, 87, 0
2, 87360, Note_on_c, 0, 86, 64
2, 87520, Note_on_c, 0, 86, 0
2, 87520, Note_on_c, 0, 84, 58
2, 87680, Note_on_c, 0, 84, 0
2, 87680, Note_on_c, 0, 82, 55
2, 87840, Note_on_c, 0, 82, 0
2, 87840, Note_on_c, 0, 80, 64
2, 88000, Note_on_c, 0, 80, 0
2, 88000, Note_on_c, 0, 79, 62
2, 88160, Note_on_c, 0, 79, 0
2, 88160, Note_on_c, 0, 77, 61
2, 88320, Note_on_c, 0, 77, 0
2, 88320, Note_on_c, 0, 75, 59
2, 88480, Note_on_c, 0, 75, 0
2, 88480, Note_on_c, 0, 74, 57
2, 88640, Note_on_c, 0, 74, 0
2, 88640, Note_on_c, 0, 72, 55
2, 88800, Note_on_c, 0, 72, 0
2, 88800, Note_on_c, 0, 70, 54
2, 88960, Note_on_c, 0, 70, 0
2, 88960, Note_on_c, 0, 72, 52
2, 89120, Note_on_c, 0, 72, 0
2, 89120, Note_on_c, 0, 74, 50
2, 89280, Note_on_c, 0, 74, 0
2, 89280, Note_on_c, 0, 75, 48
2, 89440, Note_on_c, 0, 75, 0
2, 89440, Note_on_c, 0, 74, 48
2, 89600, Note_on_c, 0, 74, 0
2, 89600, Note_on_c, 0, 75, 48
2, 89760, Note_on_c, 0, 75, 0
2, 89760, Note_on_c, 0, 76, 52
2, 89920, Note_on_c, 0, 76, 0
2, 89920, Note_on_c, 0, 75, 49
2, 90080, Note_on_c, 0, 75, 0
2, 90080, Note_on_c, 0, 76, 49
2, 90240, Note_on_c, 0, 76, 0
2, 90240, Note_on_c, 0, 77, 54
2, 90400, Note_on_c, 0, 77, 0
2, 90400, Note_on_c, 0, 76, 50
2, 90560, Note_on_c, 0, 76, 0
2, 90560, Note_on_c, 0, 77, 49
2, 90720, Note_on_c, 0, 77, 0
2, 90720, Note_on_c, 0, 78, 56
2, 90880, Note_on_c, 0, 78, 0
2, 90880, Note_on_c, 0, 77, 52
2, 91040, Note_on_c, 0, 77, 0
2, 91040, Note_on_c, 0, 78, 52
2, 91200, Note_on_c, 0, 78, 0
2, 91200, Note_on_c, 0, 79, 56
2, 91360, Note_on_c, 0, 79, 0
2, 91360, Note_on_c, 0, 78, 51
2, 91520, Note_on_c, 0, 78, 0
2, 91520, Note_on_c, 0, 79, 51
2, 91680, Note_on_c, 0, 79, 0
2, 91680, Note_on_c, 0, 80, 51
2, 91840, Note_on_c, 0, 80, 0
2, 91840, Note_on_c, 0, 79, 48
2, 92000, Note_on_c, 0, 79, 0
2, 92000, Note_on_c, 0, 80, 48
2, 92160, Note_on_c, 0, 80, 0
2, 92160, Note_on_c, 0, 79, 48
2, 92320, Note_on_c, 0, 79, 0
2, 92320, Note_on_c, 0, 78, 48
2, 92480, Note_on_c, 0, 78, 0
2, 92480, Note_on_c, 0, 79, 48
2, 92640, Note_on_c, 0, 79, 0
2, 92640, Note_on_c, 0, 80, 50
2, 92800, Note_on_c, 0, 80, 0
2, 92800, Note_on_c, 0, 79, 51
2, 92960, Note_on_c, 0, 79, 0
2, 92960, Note_on_c, 0, 80, 48
2, 93120, Note_on_c, 0, 80, 0
2, 93120, Note_on_c, 0, 82, 53
2, 93280, Note_on_c, 0, 82, 0
2, 93280, Note_on_c, 0, 80, 54
2, 93440, Note_on_c, 0, 80, 0
2, 93440, Note_on_c, 0, 82, 52
2, 93600, Note_on_c, 0, 82, 0
2, 93600, Note_on_c, 0, 80, 56
2, 93760, Note_on_c, 0, 80, 0
2, 93760, Note_on_c, 0, 79, 56
2, 93920, Note_on_c, 0, 79, 0
2, 93920, Note_on_c, 0, 80, 53
2, 94080, Note_on_c, 0, 80, 0
2, 94080, Note_on_c, 0, 82, 58
2, 94240, Note_on_c, 0, 82, 0
2, 94240, Note_on_c, 0, 80, 59
2, 94400, Note_on_c, 0, 80, 0
2, 94400, Note_on_c, 0, 82, 54
2, 94560, Note_on_c, 0, 82, 0
2, 94560, Note_on_c, 0, 84, 61
2, 94720, Note_on_c, 0, 84, 0
2, 94720, Note_on_c, 0, 83, 60
2, 94880, Note_on_c, 0, 83, 0
2, 94880, Note_on_c, 0, 84, 60
2, 95040, Note_on_c, 0, 84, 0
2, 95040, Note_on_c, 0, 86, 64
2, 95200, Note_on_c, 0, 86, 0
2, 95200, Note_on_c, 0, 85, 63
2, 95360, Note_on_c, 0, 85, 0
2, 95360, Note_on_c, 0, 86, 63
2, 95520, Note_on_c, 0, 86, 0
2, 95520, Note_on_c, 0, 88, 66
2, 95680, Note_on_c, 0, 88, 0
2, 95680, Note_on_c, 0, 86, 65
2, 95840, Note_on_c, 0, 86, 0
2, 95840, Note_on_c, 0, 88, 62
2, 96000, Note_on_c, 0, 88, 0
2, 96000, Note_on_c, 0, 90, 69
2, 96160, Note_on_c, 0, 90, 0
2, 96160, Note_on_c, 0, 88, 68
2, 96320, Note_on_c, 0, 88, 0
2, 96320, Note_on_c, 0, 90, 65
2, 96480, Note_on_c, 0, 90, 0
2, 96480, Note_on_c, 0, 91, 72
2, 96640, Note_on_c, 0, 91, 0
2, 96640, Note_on_c, 0, 90, 72
2, 96800, Note_on_c, 0, 90, 0
2, 96800, Note_on_c, 0, 91, 68
2, 96960, Note_on_c, 0, 91, 0
2, 96960, Note_on_c, 0, 93, 74
2, 97120, Note_on_c, 0, 93, 0
2, 97120, Note_on_c, 0, 91, 73
2, 97280, Note_on_c, 0, 91, 0
2, 97280, Note_on_c, 0, 93, 70
2, 97440, Note_on_c, 0, 93, 0
2, 97440, Note_on_c, 0, 95, 77
2, 97600, Note_on_c, 0, 95, 0
2, 97600, Note_on_c, 0, 93, 76
2, 97760, Note_on_c, 0, 93, 0
2, 97760, Note_on_c, 0, 95, 72
2, 97920, Note_on_c, 0, 95, 0
2, 97920, Note_on_c, 0, 96, 81
2, 98080, Note_on_c, 0, 96, 0
2, 98080, Note_on_c, 0, 95, 77
2, 98240, Note_on_c, 0, 95, 0
2, 98240, Note_on_c, 0, 96, 73
2, 98400, Note_on_c, 0, 96, 0
2, 98400, Note_on_c, 0, 98, 81
2, 98560, Note_on_c, 0, 98, 0
2, 98560, Note_on_c, 0, 96, 77
2, 98720, Note_on_c, 0, 96, 0
2, 98720, Note_on_c, 0, 98, 73
2, 98880, Note_on_c, 0, 98, 0
2, 98880, Note_on_c, 0, 100, 81
2, 99040, Note_on_c, 0, 100, 0
2, 99040, Note_on_c, 0, 98, 78
2, 99200, Note_on_c, 0, 98, 0
2, 99200, Note_on_c, 0, 100, 73
2, 99360, Note_on_c, 0, 100, 0
2, 99360, Note_on_c, 0, 101, 81
2, 99520, Note_on_c, 0, 101, 0
2, 99520, Note_on_c, 0, 99, 73
2, 99680, Note_on_c, 0, 99, 0
2, 99680, Note_on_c, 0, 97, 70
2, 99840, Note_on_c, 0, 97, 0
2, 99840, Note_on_c, 0, 96, 81
2, 100000, Note_on_c, 0, 96, 0
2, 100000, Note_on_c, 0, 94, 74
2, 100160, Note_on_c, 0, 94, 0
2, 100160, Note_on_c, 0, 92, 72
2, 100320, Note_on_c, 0, 92, 0
2, 100320, Note_on_c, 0, 91, 81
2, 100480, Note_on_c, 0, 91, 0
2, 100480, Note_on_c, 0, 89, 74
2, 100640, Note_on_c, 0, 89, 0
2, 100640, Note_on_c, 0, 87, 71
2, 100800, Note_on_c, 0, 87, 0
2, 100800, Note_on_c, 0, 86, 81
2, 100960, Note_on_c, 0, 86, 0
2, 100960, Note_on_c, 0, 84, 74
2, 101120, Note_on_c, 0, 84, 0
2, 101120, Note_on_c, 0, 82, 67
2, 101280, Note_on_c, 0, 82, 0
2, 101280, Note_on_c, 0, 81, 81
2, 101440, Note_on_c, 0, 81, 0
2, 101440, Note_on_c, 0, 82, 74
2, 101600, Note_on_c, 0, 82, 0
2, 101600, Note_on_c, 0, 84, 70
2, 101760, Note_on_c, 0, 84, 0
2, 101760, Note_on_c, 0, 86, 81
2, 101920, Note_on_c, 0, 86, 0
2, 101920, Note_on_c, 0, 87, 75
2, 102080, Note_on_c, 0, 87, 0
2, 102080, Note_on_c, 0, 89, 70
2, 102240, Note_on_c, 0, 89, 0
2, 102240, Note_on_c, 0, 90, 87
2, 102400, Note_on_c, 0, 90, 0
2, 102400, Note_on_c, 0, 94, 79
2, 102560, Note_on_c, 0, 94, 0
2, 102560, Note_on_c, 0, 92, 77
2, 102720, Note_on_c, 0, 92, 0
2, 102720, Note_on_c, 0, 90, 81
2, 102880, Note_on_c, 0, 90, 0
2, 102880, Note_on_c, 0, 89, 72
2, 103040, Note_on_c, 0, 89, 0
2, 103040, Note_on_c, 0, 87, 69
2, 103200, Note_on_c, 0, 87, 0
2, 103200, Note_on_c, 0, 85, 79
2, 103360, Note_on_c, 0, 85, 0
2, 103360, Note_on_c, 0, 83, 72
2, 103520, Note_on_c, 0, 83, 0
2, 103520, Note_on_c, 0, 82, 69
2, 103680, Note_on_c, 0, 82, 0
2, 103680, Note_on_c, 0, 83, 87
2, 103840, Note_on_c, 0, 83, 0
2, 103840, Note_on_c, 0, 87, 78
2, 104000, Note_on_c, 0, 87, 0
2, 104000, Note_on_c, 0, 85, 72
2, 104160, Note_on_c, 0, 85, 0
2, 104160, Note_on_c, 0, 83, 81
2, 104320, Note_on_c, 0, 83, 0
2, 104320, Note_on_c, 0, 82, 75
2, 104480, Note_on_c, 0, 82, 0
2, 104480, Note_on_c, 0, 80, 75
2, 104640, Note_on_c, 0, 80, 0
2, 104640, Note_on_c, 0, 78, 81
2, 104800, Note_on_c, 0, 78, 0
2, 104800, Note_on_c, 0, 77, 72
2, 104960, Note_on_c, 0, 77, 0
2, 104960, Note_on_c, 0, 75, 68
2, 105120, Note_on_c, 0, 75, 0
2, 105120, Note_on_c, 0, 74, 87
2, 105280, Note_on_c, 0, 74, 0
2, 105280, Note_on_c, 0, 77, 77
2, 105440, Note_on_c, 0, 77, 0
2, 105440, Note_on_c, 0, 75, 74
2, 105600, Note_on_c, 0, 75, 0
2, 105600, Note_on_c, 0, 74, 81
2, 105760, Note_on_c, 0, 74, 0
2, 105760, Note_on_c, 0, 71, 72
2, 105920, Note_on_c, 0, 71, 0
2, 105920, Note_on_c, 0, 70, 69
2, 106080, Note_on_c, 0, 70, 0
2, 106080, Note_on_c, 0, 68, 79
2, 106240, Note_on_c, 0, 68, 0
2, 106240, Note_on_c, 0, 66, 68
2, 106400, Note_on_c, 0, 66, 0
2, 106400, Note_on_c, 0, 65, 63
2, 106560, Note_on_c, 0, 65, 0
2, 106560, Note_on_c, 0, 78, 89
2, 106720, Note_on_c, 0, 78, 0
2, 106720, Note_on_c, 0, 82, 75
2, 106880, Note_on_c, 0, 82, 0
2, 106880, Note_on_c, 0, 80, 70
2, 107040, Note_on_c, 0, 80, 0
2, 107040, Note_on_c, 0, 78, 80
2, 107200, Note_on_c, 0, 78, 0
2, 107200, Note_on_c, 0, 77, 73
2, 107360, Note_on_c, 0, 77, 0
2, 107360, Note_on_c, 0, 75, 70
2, 107520, Note_on_c, 0, 75, 0
2, 107520, Note_on_c, 0, 73, 79
2, 107680, Note_on_c, 0, 73, 0
2, 107680, Note_on_c, 0, 71, 70
2, 107840, Note_on_c, 0, 71, 0
2, 107840, Note_on_c, 0, 70, 64
2, 108000, Note_on_c, 0, 70, 0
2, 108000, Note_on_c, 0, 71, 85
2, 108160, Note_on_c, 0, 71, 0
2, 108160, Note_on_c, 0, 75, 77
2, 108320, Note_on_c, 0, 75, 0
2, 108320, Note_on_c, 0, 73, 74
2, 108480, Note_on_c, 0, 73, 0
2, 108480, Note_on_c, 0, 71, 80
2, 108640, Note_on_c, 0, 71, 0
2, 108640, Note_on_c, 0, 70, 74
2, 108800, Note_on_c, 0, 70, 0
2, 108800, Note_on_c, 0, 68, 71
2, 108960, Note_on_c, 0, 68, 0
2, 108960, Note_on_c, 0, 66, 78
2, 109120, Note_on_c, 0, 66, 0
2, 109120, Note_on_c, 0, 65, 70
2, 109280, Note_on_c, 0, 65, 0
2, 109280, Note_on_c, 0, 63, 67
2, 109440, Note_on_c, 0, 63, 0
2, 109440, Note_on_c, 0, 62, 89
2, 109600, Note_on_c, 0, 62, 0
2, 109600, Note_on_c, 0, 65, 77
2, 109760, Note_on_c, 0, 65, 0
2, 109760, Note_on_c, 0, 63, 77
2, 109920, Note_on_c, 0, 63, 0
2, 109920, Note_on_c, 0, 62, 81
2, 110080, Note_on_c, 0, 62, 0
2, 110080, Note_on_c, 0, 59, 77
2, 110240, Note_on_c, 0, 59, 0
2, 110240, Note_on_c, 0, 58, 73
2, 110400, Note_on_c, 0, 58, 0
2, 110400, Note_on_c, 0, 56, 81
2, 110560, Note_on_c, 0, 56, 0
2, 110560, Note_on_c, 0, 54, 76
2, 110720, Note_on_c, 0, 54, 0
2, 110720, Note_on_c, 0, 53, 72
2, 110880, Note_on_c, 0, 53, 0
2, 110880, Note_on_c, 0, 51, 81
2, 111040, Note_on_c, 0, 51, 0
2, 111040, Note_on_c, 0, 53, 79
2, 111200, Note_on_c, 0, 53, 0
2, 111200, Note_on_c, 0, 54, 79
2, 111360, Note_on_c, 0, 54, 0
2, 111360, Note_on_c, 0, 56, 89
2, 111520, Note_on_c, 0, 56, 0
2, 111520, Note_on_c, 0, 59, 81
2, 111680, Note_on_c, 0, 59, 0
2, 111680, Note_on_c, 0, 58, 81
2, 111840, Note_on_c, 0, 58, 0
2, 111840, Note_on_c, 0, 56, 81
2, 112000, Note_on_c, 0, 56, 0
2, 112000, Note_on_c, 0, 54, 77
2, 112160, Note_on_c, 0, 54, 0
2, 112160, Note_on_c, 0, 53, 77
2, 112320, Note_on_c, 0, 53, 0
2, 112320, Note_on_c, 0, 51, 81
2, 112480, Note_on_c, 0, 51, 0
2, 112480, Note_on_c, 0, 53, 76
2, 112640, Note_on_c, 0, 53, 0
2, 112640, Note_on_c, 0, 54, 76
2, 112800, Note_on_c, 0, 54, 0
2, 112800, Note_on_c, 0, 56, 89
2, 112960, Note_on_c, 0, 56, 0
2, 112960, Note_on_c, 0, 59, 77
2, 113120, Note_on_c, 0, 59, 0
2, 113120, Note_on_c, 0, 58, 78
2, 113280, Note_on_c, 0, 58, 0
2, 113280, Note_on_c, 0, 56, 81
2, 113440, Note_on_c, 0, 56, 0
2, 113440, Note_on_c, 0, 54, 77
2, 113600, Note_on_c, 0, 54, 0
2, 113600, Note_on_c, 0, 53, 77
2, 113760, Note_on_c, 0, 53, 0
2, 113760, Note_on_c, 0, 51, 81
2, 113920, Note_on_c, 0, 51, 0
2, 113920, Note_on_c, 0, 53, 78
2, 114080, Note_on_c, 0, 53, 0
2, 114080, Note_on_c, 0, 54, 78
2, 114240, Note_on_c, 0, 54, 0
2, 114240, Note_on_c, 0, 56, 89
2, 114400, Note_on_c, 0, 56, 0
2, 114400, Note_on_c, 0, 59, 78
2, 114560, Note_on_c, 0, 59, 0
2, 114560, Note_on_c, 0, 58, 78
2, 114720, Note_on_c, 0, 58, 0
2, 114720, Note_on_c, 0, 56, 81
2, 114880, Note_on_c, 0, 56, 0
2, 114880, Note_on_c, 0, 54, 78
2, 115040, Note_on_c, 0, 54, 0
2, 115040, Note_on_c, 0, 53, 78
2, 115200, Note_on_c, 0, 53, 0
2, 115200, Note_on_c, 0, 51, 81
2, 115360, Note_on_c, 0, 51, 0
2, 115360, Note_on_c, 0, 53, 81
2, 115520, Note_on_c, 0, 53, 0
2, 115520, Note_on_c, 0, 54, 78
2, 115680, Note_on_c, 0, 54, 0
2, 115680, Note_on_c, 0, 56, 85
2, 115840, Note_on_c, 0, 56, 0
2, 115840, Note_on_c, 0, 58, 87
2, 116000, Note_on_c, 0, 58, 0
2, 116000, Note_on_c, 0, 60, 85
2, 116160, Note_on_c, 0, 60, 0
2, 116160, Note_on_c, 0, 62, 90
2, 116320, Note_on_c, 0, 62, 0
2, 116320, Note_on_c, 0, 63, 92
2, 116480, Note_on_c, 0, 63, 0
2, 116480, Note_on_c, 0, 65, 89
2, 116640, Note_on_c, 0, 65, 0
2, 116640, Note_on_c, 0, 66, 96
2, 117600, Note_on_c, 0, 66, 0
2, 118080, Note_on_c, 0, 58, 81
2, 118080, Note_on_c, 0, 61, 81
2, 118080, Note_on_c, 0, 66, 81
2, 118080, Note_on_c, 0, 70, 97
2, 119040, Note_on_c, 0, 70, 0
2, 119040, Note_on_c, 0, 58, 0
2, 119040, Note_on_c, 0, 61, 0
2, 119040, Note_on_c, 0, 66, 0
2, 119520, Note_on_c, 0, 71, 92
2, 120000, Note_on_c, 0, 59, 72
2, 120160, Note_on_c, 0, 59, 0
2, 120160, Note_on_c, 0, 62, 67
2, 120320, Note_on_c, 0, 62, 0
2, 120320, Note_on_c, 0, 66, 67
2, 120480, Note_on_c, 0, 66, 0
2, 120480, Note_on_c, 0, 59, 72
2, 120960, Note_on_c, 0, 59, 0
2, 120960, Note_on_c, 0, 71, 0
2, 120960, Note_on_c, 0, 71, 91
2, 121440, Note_on_c, 0, 59, 72
2, 121600, Note_on_c, 0, 59, 0
2, 121600, Note_on_c, 0, 61, 68
2, 121760, Note_on_c, 0, 61, 0
2, 121760, Note_on_c, 0, 67, 68
2, 121920, Note_on_c, 0, 67, 0
2, 121920, Note_on_c, 0, 59, 72
2, 122400, Note_on_c, 0, 59, 0
2, 122400, Note_on_c, 0, 71, 0
2, 122400, Note_on_c, 0, 71, 85
2, 122640, Note_on_c, 0, 62, 64
2, 122640, Note_on_c, 0, 66, 72
2, 122880, Note_on_c, 0, 66, 0
2, 122880, Note_on_c, 0, 62, 0
2, 122880, Note_on_c, 0, 71, 0
2, 122880, Note_on_c, 0, 73, 92
2, 123120, Note_on_c, 0, 64, 71
2, 123120, Note_on_c, 0, 66, 79
2, 123360, Note_on_c, 0, 66, 0
2, 123360, Note_on_c, 0, 64, 0
2, 123360, Note_on_c, 0, 73, 0
2, 123360, Note_on_c, 0, 74, 85
2, 123600, Note_on_c, 0, 62, 64
2, 123600, Note_on_c, 0, 66, 72
2, 123840, Note_on_c, 0, 66, 0
2, 123840, Note_on_c, 0, 62, 0
2, 123840, Note_on_c, 0, 74, 0
2, 123840, Note_on_c, 0, 73, 88
2, 124320, Note_on_c, 0, 61, 72
2, 124480, Note_on_c, 0, 61, 0
2, 124480, Note_on_c, 0, 66, 68
2, 124640, Note_on_c, 0, 66, 0
2, 124640, Note_on_c, 0, 70, 68
2, 124800, Note_on_c, 0, 70, 0
2, 124800, Note_on_c, 0, 61, 72
2, 125280, Note_on_c, 0, 61, 0
2, 125280, Note_on_c, 0, 73, 0
2, 125280, Note_on_c, 0, 78, 95
2, 125760, Note_on_c, 0, 66, 81
2, 125920, Note_on_c, 0, 66, 0
2, 125920, Note_on_c, 0, 70, 75
2, 126080, Note_on_c, 0, 70, 0
2, 126080, Note_on_c, 0, 73, 75
2, 126240, Note_on_c, 0, 73, 0
2, 126240, Note_on_c, 0, 66, 81
2, 126720, Note_on_c, 0, 66, 0
2, 126720, Note_on_c, 0, 78, 0
2, 126720, Note_on_c, 0, 74, 91
2, 127200, Note_on_c, 0, 62, 72
2, 127360, Note_on_c, 0, 62, 0
2, 127360, Note_on_c, 0, 66, 68
2, 127520, Note_on_c, 0, 66, 0
2, 127520, Note_on_c, 0, 71, 68
2, 127680, Note_on_c, 0, 71, 0
2, 127680, Note_on_c, 0, 62, 72
2, 128160, Note_on_c, 0, 62, 0
2, 128160, Note_on_c, 0, 74, 0
2, 128160, Note_on_c, 0, 71, 72
2, 128160, Note_on_c, 0, 73, 85
2, 128400, Note_on_c, 0, 71, 0
2, 128400, Note_on_c, 0, 64, 72
2, 128640, Note_on_c, 0, 64, 0
2, 128640, Note_on_c, 0, 73, 0
2, 128640, Note_on_c, 0, 71, 74
2, 128640, Note_on_c, 0, 76, 88
2, 128880, Note_on_c, 0, 71, 0
2, 128880, Note_on_c, 0, 64, 72
2, 129120, Note_on_c, 0, 64, 0
2, 129120, Note_on_c, 0, 76, 0
2, 129120, Note_on_c, 0, 71, 68
2, 129120, Note_on_c, 0, 73, 89
2, 129360, Note_on_c, 0, 71, 0
2, 129360, Note_on_c, 0, 64, 72
2, 129600, Note_on_c, 0, 64, 0
2, 129600, Note_on_c, 0, 73, 0
2, 129600, Note_on_c, 0, 74, 93
2, 130080, Note_on_c, 0, 62, 72
2, 130240, Note_on_c, 0, 62, 0
2, 130240, Note_on_c, 0, 66, 67
2, 130400, Note_on_c, 0, 66, 0
2, 130400, Note_on_c, 0, 71, 67
2, 130560, Note_on_c, 0, 71, 0
2, 130560, Note_on_c, 0, 62, 72
2, 130800, Note_on_c, 0, 62, 0
2, 131040, Note_on_c, 0, 74, 0
2, 131040, Note_on_c, 0, 71, 54
2, 131520, Note_on_c, 0, 59, 32
2, 131680, Note_on_c, 0, 59, 0
2, 131680, Note_on_c, 0, 62, 33
2, 131840, Note_on_c, 0, 62, 0
2, 131840, Note_on_c, 0, 66, 33
2, 132000, Note_on_c, 0, 66, 0
2, 132000, Note_on_c, 0, 59, 33
2, 132480, Note_on_c, 0, 59, 0
2, 132480, Note_on_c, 0, 71, 0
2, 132480, Note_on_c, 0, 71, 54
2, 132960, Note_on_c, 0, 59, 34
2, 133120, Note_on_c, 0, 59, 0
2, 133120, Note_on_c, 0, 61, 33
2, 133280, Note_on_c, 0, 61, 0
2, 133280, Note_on_c, 0, 67, 32
2, 133440, Note_on_c, 0, 67, 0
2, 133440, Note_on_c, 0, 59, 32
2, 133920, Note_on_c, 0, 59, 0
2, 133920, Note_on_c, 0, 71, 0
2, 133920, Note_on_c, 0, 71, 48
2, 134160, Note_on_c, 0, 62, 33
2, 134160, Note_on_c, 0, 66, 37
2, 134400, Note_on_c, 0, 66, 0
2, 134400, Note_on_c, 0, 62, 0
2, 134400, Note_on_c, 0, 71, 0
2, 134400, Note_on_c, 0, 73, 53
2, 134640, Note_on_c, 0, 64, 37
2, 134640, Note_on_c, 0, 66, 42
2, 134880, Note_on_c, 0, 66, 0
2, 134880, Note_on_c, 0, 64, 0
2, 134880, Note_on_c, 0, 73, 0
2, 134880, Note_on_c, 0, 74, 48
2, 135120, Note_on_c, 0, 62, 32
2, 135120, Note_on_c, 0, 66, 36
2, 135360, Note_on_c, 0, 66, 0
2, 135360, Note_on_c, 0, 62, 0
2, 135360, Note_on_c, 0, 74, 0
2, 135360, Note_on_c, 0, 73, 48
2, 135840, Note_on_c, 0, 61, 33
2, 136000, Note_on_c, 0, 61, 0
2, 136000, Note_on_c, 0, 66, 34
2, 136160, Note_on_c, 0, 66, 0
2, 136160, Note_on_c, 0, 70, 35
2, 136320, Note_on_c, 0, 70, 0
2, 136320, Note_on_c, 0, 61, 35
2, 136800, Note_on_c, 0, 61, 0
2, 136800, Note_on_c, 0, 73, 0
2, 136800, Note_on_c, 0, 78, 81
2, 137280, Note_on_c, 0, 66, 64
2, 137440, Note_on_c, 0, 66, 0
2, 137440, Note_on_c, 0, 70, 58
2, 137600, Note_on_c, 0, 70, 0
2, 137600, Note_on_c, 0, 73, 58
2, 137760, Note_on_c, 0, 73, 0
2, 137760, Note_on_c, 0, 66, 64
2, 138240, Note_on_c, 0, 66, 0
2, 138240, Note_on_c, 0, 78, 0
2, 138240, Note_on_c, 0, 74, 81
2, 138720, Note_on_c, 0, 62, 64
2, 138880, Note_on_c, 0, 62, 0
2, 138880, Note_on_c, 0, 66, 59
2, 139040, Note_on_c, 0, 66, 0
2, 139040, Note_on_c, 0, 71, 64
2, 139200, Note_on_c, 0, 71, 0
2, 139200, Note_on_c, 0, 62, 64
2, 139680, Note_on_c, 0, 62, 0
2, 139680, Note_on_c, 0, 74, 0
2, 139680, Note_on_c, 0, 71, 80
2, 139920, Note_on_c, 0, 68, 64
2, 139920, Note_on_c, 0, 66, 57
2, 140160, Note_on_c, 0, 66, 0
2, 140160, Note_on_c, 0, 68, 0
2, 140160, Note_on_c, 0, 71, 0
2, 140160, Note_on_c, 0, 74, 89
2, 140400, Note_on_c, 0, 68, 64
2, 140400, Note_on_c, 0, 66, 57
2, 140640, Note_on_c, 0, 66, 0
2, 140640, Note_on_c, 0, 68, 0
2, 140640, Note_on_c, 0, 74, 0
2, 140640, Note_on_c, 0, 71, 81
2, 140880, Note_on_c, 0, 68, 64
2, 140880, Note_on_c, 0, 66, 57
2, 141120, Note_on_c, 0, 66, 0
2, 141120, Note_on_c, 0, 68, 0
2, 141120, Note_on_c, 0, 71, 0
2, 141120, Note_on_c, 0, 73, 81
2, 141600, Note_on_c, 0, 61, 48
2, 141760, Note_on_c, 0, 61, 0
2, 141760, Note_on_c, 0, 65, 48
2, 141920, Note_on_c, 0, 65, 0
2, 141920, Note_on_c, 0, 68, 48
2, 142080, Note_on_c, 0, 68, 0
2, 142080, Note_on_c, 0, 61, 49
2, 142560, Note_on_c, 0, 61, 0
2, 142560, Note_on_c, 0, 73, 0
2, 142560, Note_on_c, 0, 69, 48
2, 143040, Note_on_c, 0, 57, 32
2, 143200, Note_on_c, 0, 57, 0
2, 143200, Note_on_c, 0, 61, 32
2, 143360, Note_on_c, 0, 61, 0
2, 143360, Note_on_c, 0, 66, 33
2, 143520, Note_on_c, 0, 66, 0
2, 143520, Note_on_c, 0, 57, 33
2, 144000, Note_on_c, 0, 57, 0
2, 144000, Note_on_c, 0, 69, 0
2, 144000, Note_on_c, 0, 67, 48
2, 144480, Note_on_c, 0, 55, 32
2, 144640, Note_on_c, 0, 55, 0
2, 144640, Note_on_c, 0, 59, 32
2, 144800, Note_on_c, 0, 59, 0
2, 144800, Note_on_c, 0, 62, 32
2, 144960, Note_on_c, 0, 62, 0
2, 144960, Note_on_c, 0, 55, 33
2, 145440, Note_on_c, 0, 55, 0
2, 145440, Note_on_c, 0, 67, 0
2, 145440, Note_on_c, 0, 61, 40
2, 145440, Note_on_c, 0, 65, 49
2, 145680, Note_on_c, 0, 61, 0
2, 145680, Note_on_c, 0, 56, 40
2, 145920, Note_on_c, 0, 56, 0
2, 145920, Note_on_c, 0, 65, 0
2, 145920, Note_on_c, 0, 61, 40
2, 145920, Note_on_c, 0, 68, 49
2, 146160, Note_on_c, 0, 61, 0
2, 146160, Note_on_c, 0, 56, 40
2, 146400, Note_on_c, 0, 56, 0
2, 146400, Note_on_c, 0, 68, 0
2, 146400, Note_on_c, 0, 61, 40
2, 146400, Note_on_c, 0, 65, 48
2, 146640, Note_on_c, 0, 61, 0
2, 146640, Note_on_c, 0, 56, 40
2, 146880, Note_on_c, 0, 56, 0
2, 146880, Note_on_c, 0, 65, 0
2, 146880, Note_on_c, 0, 66, 48
2, 147360, Note_on_c, 0, 54, 32
2, 147520, Note_on_c, 0, 54, 0
2, 147520, Note_on_c, 0, 57, 32
2, 147680, Note_on_c, 0, 57, 0
2, 147680, Note_on_c, 0, 61, 32
2, 147840, Note_on_c, 0, 61, 0
2, 147840, Note_on_c, 0, 54, 32
2, 148320, Note_on_c, 0, 54, 0
2, 148320, Note_on_c, 0, 66, 0
2, 148320, Note_on_c, 0, 66, 85
2, 148800, Note_on_c, 0, 54, 72
2, 148960, Note_on_c, 0, 54, 0
2, 148960, Note_on_c, 0, 59, 64
2, 149120, Note_on_c, 0, 59, 0
2, 149120, Note_on_c, 0, 62, 64
2, 149280, Note_on_c, 0, 62, 0
2, 149280, Note_on_c, 0, 54, 72
2, 149760, Note_on_c, 0, 54, 0
2, 149760, Note_on_c, 0, 66, 0
2, 149760, Note_on_c, 0, 66, 48
2, 150240, Note_on_c, 0, 54, 32
2, 150400, Note_on_c, 0, 54, 0
2, 150400, Note_on_c, 0, 57, 32
2, 150560, Note_on_c, 0, 57, 0
2, 150560, Note_on_c, 0, 61, 32
2, 150720, Note_on_c, 0, 61, 0
2, 150720, Note_on_c, 0, 54, 32
2, 151200, Note_on_c, 0, 54, 0
2, 151200, Note_on_c, 0, 66, 0
2, 151200, Note_on_c, 0, 56, 48
2, 151200, Note_on_c, 0, 65, 64
2, 151360, Note_on_c, 0, 56, 0
2, 151360, Note_on_c, 0, 57, 50
2, 151520, Note_on_c, 0, 57, 0
2, 151520, Note_on_c, 0, 59, 53
2, 151680, Note_on_c, 0, 59, 0
2, 151680, Note_on_c, 0, 61, 55
2, 151840, Note_on_c, 0, 61, 0
2, 151840, Note_on_c, 0, 62, 57
2, 152000, Note_on_c, 0, 62, 0
2, 152000, Note_on_c, 0, 61, 55
2, 152160, Note_on_c, 0, 61, 0
2, 152160, Note_on_c, 0, 59, 53
2, 152320, Note_on_c, 0, 59, 0
2, 152320, Note_on_c, 0, 57, 50
2, 152480, Note_on_c, 0, 57, 0
2, 152480, Note_on_c, 0, 56, 48
2, 152640, Note_on_c, 0, 56, 0
2, 152640, Note_on_c, 0, 65, 0
2, 152640, Note_on_c, 0, 66, 48
2, 153120, Note_on_c, 0, 54, 32
2, 153280, Note_on_c, 0, 54, 0
2, 153280, Note_on_c, 0, 57, 32
2, 153440, Note_on_c, 0, 57, 0
2, 153440, Note_on_c, 0, 61, 32
2, 153600, Note_on_c, 0, 61, 0
2, 153600, Note_on_c, 0, 54, 32
2, 154080, Note_on_c, 0, 54, 0
2, 154080, Note_on_c, 0, 66, 0
2, 154080, Note_on_c, 0, 66, 84
2, 154560, Note_on_c, 0, 54, 72
2, 154720, Note_on_c, 0, 54, 0
2, 154720, Note_on_c, 0, 59, 66
2, 154880, Note_on_c, 0, 59, 0
2, 154880, Note_on_c, 0, 62, 66
2, 155040, Note_on_c, 0, 62, 0
2, 155040, Note_on_c, 0, 54, 72
2, 155520, Note_on_c, 0, 54, 0
2, 155520, Note_on_c, 0, 66, 0
2, 155520, Note_on_c, 0, 66, 48
2, 156000, Note_on_c, 0, 54, 32
2, 156160, Note_on_c, 0, 54, 0
2, 156160, Note_on_c, 0, 57, 32
2, 156320, Note_on_c, 0, 57, 0
2, 156320, Note_on_c, 0, 61, 32
2, 156480, Note_on_c, 0, 61, 0
2, 156480, Note_on_c, 0, 54, 32
2, 156960, Note_on_c, 0, 54, 0
2, 156960, Note_on_c, 0, 66, 0
2, 156960, Note_on_c, 0, 56, 48
2, 156960, Note_on_c, 0, 65, 64
2, 157120, Note_on_c, 0, 56, 0
2, 157120, Note_on_c, 0, 57, 50
2, 157280, Note_on_c, 0, 57, 0
2, 157280, Note_on_c, 0, 59, 53
2, 157440, Note_on_c, 0, 59, 0
2, 157440, Note_on_c, 0, 61, 55
2, 157600, Note_on_c, 0, 61, 0
2, 157600, Note_on_c, 0, 62, 57
2, 157760, Note_on_c, 0, 62, 0
2, 157760, Note_on_c, 0, 61, 55
2, 157920, Note_on_c, 0, 61, 0
2, 157920, Note_on_c, 0, 59, 53
2, 158080, Note_on_c, 0, 59, 0
2, 158080, Note_on_c, 0, 57, 50
2, 158240, Note_on_c, 0, 57, 0
2, 158240, Note_on_c, 0, 56, 48
2, 158400, Note_on_c, 0, 56, 0
2, 158400, Note_on_c, 0, 65, 0
2, 158400, Note_on_c, 0, 66, 48
2, 158880, Note_on_c, 0, 54, 32
2, 159040, Note_on_c, 0, 54, 0
2, 159040, Note_on_c, 0, 57, 32
2, 159200, Note_on_c, 0, 57, 0
2, 159200, Note_on_c, 0, 61, 32
2, 159360, Note_on_c, 0, 61, 0
2, 159360, Note_on_c, 0, 54, 32
2, 159840, Note_on_c, 0, 54, 0
2, 159840, Note_on_c, 0, 66, 0
2, 159840, Note_on_c, 0, 73, 81
2, 160320, Note_on_c, 0, 61, 64
2, 160480, Note_on_c, 0, 61, 0
2, 160480, Note_on_c, 0, 65, 61
2, 160640, Note_on_c, 0, 65, 0
2, 160640, Note_on_c, 0, 68, 61
2, 160800, Note_on_c, 0, 68, 0
2, 160800, Note_on_c, 0, 61, 64
2, 161280, Note_on_c, 0, 61, 0
2, 161280, Note_on_c, 0, 73, 0
2, 161280, Note_on_c, 0, 70, 89
2, 161760, Note_on_c, 0, 58, 76
2, 161920, Note_on_c, 0, 58, 0
2, 161920, Note_on_c, 0, 61, 71
2, 162080, Note_on_c, 0, 61, 0
2, 162080, Note_on_c, 0, 67, 71
2, 162240, Note_on_c, 0, 67, 0
2, 162240, Note_on_c, 0, 58, 76
2, 162720, Note_on_c, 0, 58, 0
2, 162720, Note_on_c, 0, 70, 0
2, 162720, Note_on_c, 0, 71, 81
2, 162960, Note_on_c, 0, 62, 57
2, 162960, Note_on_c, 0, 66, 64
2, 163200, Note_on_c, 0, 66, 0
2, 163200, Note_on_c, 0, 62, 0
2, 163200, Note_on_c, 0, 71, 0
2, 163200, Note_on_c, 0, 73, 81
2, 163440, Note_on_c, 0, 64, 57
2, 163440, Note_on_c, 0, 66, 64
2, 163680, Note_on_c, 0, 66, 0
2, 163680, Note_on_c, 0, 64, 0
2, 163680, Note_on_c, 0, 73, 0
2, 163680, Note_on_c, 0, 74, 81
2, 163920, Note_on_c, 0, 62, 57
2, 163920, Note_on_c, 0, 66, 64
2, 164160, Note_on_c, 0, 66, 0
2, 164160, Note_on_c, 0, 62, 0
2, 164160, Note_on_c, 0, 74, 0
2, 164160, Note_on_c, 0, 73, 81
2, 164640, Note_on_c, 0, 61, 64
2, 164800, Note_on_c, 0, 61, 0
2, 164800, Note_on_c, 0, 66, 64
2, 164960, Note_on_c, 0, 66, 0
2, 164960, Note_on_c, 0, 70, 64
2, 165120, Note_on_c, 0, 70, 0
2, 165120, Note_on_c, 0, 61, 64
2, 165600, Note_on_c, 0, 61, 0
2, 165600, Note_on_c, 0, 73, 0
2, 165600, Note_on_c, 0, 78, 81
2, 166080, Note_on_c, 0, 66, 64
2, 166240, Note_on_c, 0, 66, 0
2, 166240, Note_on_c, 0, 70, 59
2, 166400, Note_on_c, 0, 70, 0
2, 166400, Note_on_c, 0, 73, 59
2, 166560, Note_on_c, 0, 73, 0
2, 166560, Note_on_c, 0, 66, 64
2, 167040, Note_on_c, 0, 66, 0
2, 167040, Note_on_c, 0, 78, 0
2, 167040, Note_on_c, 0, 75, 90
2, 167520, Note_on_c, 0, 63, 76
2, 167680, Note_on_c, 0, 63, 0
2, 167680, Note_on_c, 0, 66, 65
2, 167840, Note_on_c, 0, 66, 0
2, 167840, Note_on_c, 0, 72, 61
2, 168000, Note_on_c, 0, 72, 0
2, 168000, Note_on_c, 0, 63, 76
2, 168480, Note_on_c, 0, 63, 0
2, 168480, Note_on_c, 0, 75, 0
2, 168480, Note_on_c, 0, 76, 86
2, 168720, Note_on_c, 0, 67, 64
2, 168720, Note_on_c, 0, 71, 72
2, 168960, Note_on_c, 0, 71, 0
2, 168960, Note_on_c, 0, 67, 0
2, 168960, Note_on_c, 0, 76, 0
2, 168960, Note_on_c, 0, 78, 86
2, 169200, Note_on_c, 0, 69, 64
2, 169200, Note_on_c, 0, 71, 72
2, 169440, Note_on_c, 0, 71, 0
2, 169440, Note_on_c, 0, 69, 0
2, 169440, Note_on_c, 0, 78, 0
2, 169440, Note_on_c, 0, 79, 86
2, 169680, Note_on_c, 0, 67, 64
2, 169680, Note_on_c, 0, 71, 72
2, 169920, Note_on_c, 0, 71, 0
2, 169920, Note_on_c, 0, 67, 0
2, 169920, Note_on_c, 0, 79, 0
2, 169920, Note_on_c, 0, 78, 84
2, 170400, Note_on_c, 0, 66, 68
2, 170560, Note_on_c, 0, 66, 0
2, 170560, Note_on_c, 0, 71, 68
2, 170720, Note_on_c, 0, 71, 0
2, 170720, Note_on_c, 0, 74, 68
2, 170880, Note_on_c, 0, 74, 0
2, 170880, Note_on_c, 0, 66, 68
2, 171360, Note_on_c, 0, 66, 0
2, 171360, Note_on_c, 0, 78, 0
2, 171360, Note_on_c, 0, 74, 81
2, 171600, Note_on_c, 0, 68, 64
2, 171600, Note_on_c, 0, 66, 57
2, 171840, Note_on_c, 0, 66, 0
2, 171840, Note_on_c, 0, 68, 0
2, 171840, Note_on_c, 0, 74, 0
2, 171840, Note_on_c, 0, 73, 81
2, 172080, Note_on_c, 0, 68, 64
2, 172080, Note_on_c, 0, 66, 57
2, 172320, Note_on_c, 0, 66, 0
2, 172320, Note_on_c, 0, 68, 0
2, 172320, Note_on_c, 0, 73, 0
2, 172320, Note_on_c, 0, 71, 81
2, 172560, Note_on_c, 0, 68, 64
2, 172560, Note_on_c, 0, 66, 57
2, 172800, Note_on_c, 0, 66, 0
2, 172800, Note_on_c, 0, 68, 0
2, 172800, Note_on_c, 0, 71, 0
2, 172800, Note_on_c, 0, 73, 86
2, 173280, Note_on_c, 0, 61, 61
2, 173440, Note_on_c, 0, 61, 0
2, 173440, Note_on_c, 0, 65, 61
2, 173600, Note_on_c, 0, 65, 0
2, 173600, Note_on_c, 0, 68, 61
2, 173760, Note_on_c, 0, 68, 0
2, 173760, Note_on_c, 0, 61, 61
2, 174240, Note_on_c, 0, 61, 0
2, 174240, Note_on_c, 0, 73, 0
2, 174240, Note_on_c, 0, 69, 81
2, 174480, Note_on_c, 0, 61, 57
2, 174480, Note_on_c, 0, 63, 64
2, 174720, Note_on_c, 0, 63, 0
2, 174720, Note_on_c, 0, 61, 0
2, 174720, Note_on_c, 0, 69, 0
2, 174720, Note_on_c, 0, 68, 81
2, 174960, Note_on_c, 0, 61, 57
2, 174960, Note_on_c, 0, 63, 64
2, 175200, Note_on_c, 0, 63, 0
2, 175200, Note_on_c, 0, 61, 0
2, 175200, Note_on_c, 0, 68, 0
2, 175200, Note_on_c, 0, 66, 81
2, 175440, Note_on_c, 0, 61, 57
2, 175440, Note_on_c, 0, 63, 64
2, 175680, Note_on_c, 0, 63, 0
2, 175680, Note_on_c, 0, 61, 0
2, 175680, Note_on_c, 0, 66, 0
2, 175680, Note_on_c, 0, 68, 86
2, 176160, Note_on_c, 0, 56, 64
2, 176320, Note_on_c, 0, 56, 0
2, 176320, Note_on_c, 0, 60, 64
2, 176480, Note_on_c, 0, 60, 0
2, 176480, Note_on_c, 0, 63, 64
2, 176640, Note_on_c, 0, 63, 0
2, 176640, Note_on_c, 0, 56, 64
2, 177120, Note_on_c, 0, 56, 0
2, 177120, Note_on_c, 0, 68, 0
2, 177120, Note_on_c, 0, 65, 64
2, 178560, Note_on_c, 0, 65, 0
2, 178560, Note_on_c, 0, 66, 65
2, 180000, Note_on_c, 0, 66, 0
2, 182880, Note_on_c, 0, 71, 48
2, 183360, Note_on_c, 0, 59, 48
2, 183520, Note_on_c, 0, 59, 0
2, 183520, Note_on_c, 0, 62, 32
2, 183680, Note_on_c, 0, 62, 0
2, 183680, Note_on_c, 0, 66, 32
2, 183840, Note_on_c, 0, 66, 0
2, 183840, Note_on_c, 0, 59, 32
2, 184320, Note_on_c, 0, 59, 0
2, 184320, Note_on_c, 0, 71, 0
2, 184320, Note_on_c, 0, 71, 48
2, 184800, Note_on_c, 0, 59, 32
2, 184960, Note_on_c, 0, 59, 0
2, 184960, Note_on_c, 0, 61, 32
2, 185120, Note_on_c, 0, 61, 0
2, 185120, Note_on_c, 0, 67, 32
2, 185280, Note_on_c, 0, 67, 0
2, 185280, Note_on_c, 0, 59, 32
2, 185760, Note_on_c, 0, 59, 0
2, 185760, Note_on_c, 0, 71, 0
2, 185760, Note_on_c, 0, 71, 48
2, 186000, Note_on_c, 0, 62, 28
2, 186000, Note_on_c, 0, 66, 32
2, 186240, Note_on_c, 0, 66, 0
2, 186240, Note_on_c, 0, 62, 0
2, 186240, Note_on_c, 0, 71, 0
2, 186240, Note_on_c, 0, 73, 48
2, 186480, Note_on_c, 0, 64, 28
2, 186480, Note_on_c, 0, 66, 32
2, 186720, Note_on_c, 0, 66, 0
2, 186720, Note_on_c, 0, 64, 0
2, 186720, Note_on_c, 0, 73, 0
2, 186720, Note_on_c, 0, 74, 48
2, 186960, Note_on_c, 0, 62, 28
2, 186960, Note_on_c, 0, 66, 32
2, 187200, Note_on_c, 0, 66, 0
2, 187200, Note_on_c, 0, 62, 0
2, 187200, Note_on_c, 0, 74, 0
2, 187200, Note_on_c, 0, 73, 48
2, 187680, Note_on_c, 0, 61, 32
2, 187840, Note_on_c, 0, 61, 0
2, 187840, Note_on_c, 0, 66, 32
2, 188000, Note_on_c, 0, 66, 0
2, 188000, Note_on_c, 0, 70, 32
2, 188160, Note_on_c, 0, 70, 0
2, 188160, Note_on_c, 0, 61, 32
2, 188640, Note_on_c, 0, 61, 0
2, 188640, Note_on_c, 0, 73, 0
2, 188640, Note_on_c, 0, 78, 55
2, 189120, Note_on_c, 0, 66, 32
2, 189280, Note_on_c, 0, 66, 0
2, 189280, Note_on_c, 0, 70, 32
2, 189440, Note_on_c, 0, 70, 0
2, 189440, Note_on_c, 0, 73, 32
2, 189600, Note_on_c, 0, 73, 0
2, 189600, Note_on_c, 0, 66, 32
2, 190080, Note_on_c, 0, 66, 0
2, 190080, Note_on_c, 0, 78, 0
2, 190080, Note_on_c, 0, 74, 51
2, 190560, Note_on_c, 0, 62, 32
2, 190720, Note_on_c, 0, 62, 0
2, 190720, Note_on_c, 0, 66, 32
2, 190880, Note_on_c, 0, 66, 0
2, 190880, Note_on_c, 0, 71, 32
2, 191040, Note_on_c, 0, 71, 0
2, 191040, Note_on_c, 0, 62, 32
2, 191520, Note_on_c, 0, 62, 0
2, 191520, Note_on_c, 0, 74, 0
2, 191520, Note_on_c, 0, 71, 32
2, 191520, Note_on_c, 0, 73, 48
2, 191760, Note_on_c, 0, 71, 0
2, 191760, Note_on_c, 0, 64, 32
2, 192000, Note_on_c, 0, 64, 0
2, 192000, Note_on_c, 0, 73, 0
2, 192000, Note_on_c, 0, 71, 32
2, 192000, Note_on_c, 0, 76, 48
2, 192240, Note_on_c, 0, 71, 0
2, 192240, Note_on_c, 0, 64, 32
2, 192480, Note_on_c, 0, 64, 0
2, 192480, Note_on_c, 0, 76, 0
2, 192480, Note_on_c, 0, 71, 32
2, 192480, Note_on_c, 0, 73, 48
2, 192720, Note_on_c, 0, 71, 0
2, 192720, Note_on_c, 0, 64, 32
2, 192960, Note_on_c, 0, 64, 0
2, 192960, Note_on_c, 0, 73, 0
2, 192960, Note_on_c, 0, 74, 48
2, 193440, Note_on_c, 0, 62, 32
2, 193600, Note_on_c, 0, 62, 0
2, 193600, Note_on_c, 0, 66, 32
2, 193760, Note_on_c, 0, 66, 0
2, 193760, Note_on_c, 0, 71, 32
2, 193920, Note_on_c, 0, 71, 0
2, 193920, Note_on_c, 0, 62, 32
2, 194400, Note_on_c, 0, 62, 0
2, 194400, Note_on_c, 0, 74, 0
2, 194400, Note_on_c, 0, 76, 79
2, 194880, Note_on_c, 0, 64, 64
2, 195040, Note_on_c, 0, 64, 0
2, 195040, Note_on_c, 0, 67, 58
2, 195200, Note_on_c, 0, 67, 0
2, 195200, Note_on_c, 0, 71, 58
2, 195360, Note_on_c, 0, 71, 0
2, 195360, Note_on_c, 0, 64, 64
2, 195840, Note_on_c, 0, 64, 0
2, 195840, Note_on_c, 0, 76, 0
2, 195840, Note_on_c, 0, 76, 78
2, 196320, Note_on_c, 0, 64, 64
2, 196480, Note_on_c, 0, 64, 0
2, 196480, Note_on_c, 0, 66, 59
2, 196640, Note_on_c, 0, 66, 0
2, 196640, Note_on_c, 0, 72, 59
2, 196800, Note_on_c, 0, 72, 0
2, 196800, Note_on_c, 0, 64, 64
2, 197280, Note_on_c, 0, 64, 0
2, 197280, Note_on_c, 0, 76, 0
2, 197280, Note_on_c, 0, 76, 72
2, 197520, Note_on_c, 0, 67, 57
2, 197520, Note_on_c, 0, 71, 64
2, 197760, Note_on_c, 0, 71, 0
2, 197760, Note_on_c, 0, 67, 0
2, 197760, Note_on_c, 0, 76, 0
2, 197760, Note_on_c, 0, 78, 72
2, 198000, Note_on_c, 0, 69, 57
2, 198000, Note_on_c, 0, 71, 64
2, 198240, Note_on_c, 0, 71, 0
2, 198240, Note_on_c, 0, 69, 0
2, 198240, Note_on_c, 0, 78, 0
2, 198240, Note_on_c, 0, 79, 72
2, 198480, Note_on_c, 0, 67, 57
2, 198480, Note_on_c, 0, 71, 64
2, 198720, Note_on_c, 0, 71, 0
2, 198720, Note_on_c, 0, 67, 0
2, 198720, Note_on_c, 0, 79, 0
2, 198720, Note_on_c, 0, 78, 72
2, 199200, Note_on_c, 0, 66, 56
2, 199360, Note_on_c, 0, 66, 0
2, 199360, Note_on_c, 0, 71, 56
2, 199520, Note_on_c, 0, 71, 0
2, 199520, Note_on_c, 0, 75, 56
2, 199680, Note_on_c, 0, 75, 0
2, 199680, Note_on_c, 0, 66, 56
2, 200160, Note_on_c, 0, 66, 0
2, 200160, Note_on_c, 0, 78, 0
2, 200160, Note_on_c, 0, 83, 78
2, 200640, Note_on_c, 0, 71, 64
2, 200800, Note_on_c, 0, 71, 0
2, 200800, Note_on_c, 0, 75, 60
2, 200960, Note_on_c, 0, 75, 0
2, 200960, Note_on_c, 0, 78, 60
2, 201120, Note_on_c, 0, 78, 0
2, 201120, Note_on_c, 0, 71, 64
2, 201600, Note_on_c, 0, 71, 0
2, 201600, Note_on_c, 0, 83, 0
2, 201600, Note_on_c, 0, 79, 78
2, 202080, Note_on_c, 0, 67, 64
2, 202240, Note_on_c, 0, 67, 0
2, 202240, Note_on_c, 0, 71, 58
2, 202400, Note_on_c, 0, 71, 0
2, 202400, Note_on_c, 0, 76, 58
2, 202560, Note_on_c, 0, 76, 0
2, 202560, Note_on_c, 0, 67, 64
2, 203040, Note_on_c, 0, 67, 0
2, 203040, Note_on_c, 0, 79, 0
2, 203040, Note_on_c, 0, 76, 64
2, 203280, Note_on_c, 0, 69, 45
2, 203280, Note_on_c, 0, 71, 50
2, 203520, Note_on_c, 0, 71, 0
2, 203520, Note_on_c, 0, 69, 0
2, 203520, Note_on_c, 0, 76, 0
2, 203520, Note_on_c, 0, 79, 72
2, 203760, Note_on_c, 0, 71, 54
2, 203760, Note_on_c, 0, 73, 61
2, 204000, Note_on_c, 0, 73, 0
2, 204000, Note_on_c, 0, 71, 0
2, 204000, Note_on_c, 0, 79, 0
2, 204000, Note_on_c, 0, 76, 64
2, 204240, Note_on_c, 0, 73, 50
2, 204240, Note_on_c, 0, 71, 51
2, 204480, Note_on_c, 0, 71, 0
2, 204480, Note_on_c, 0, 73, 0
2, 204480, Note_on_c, 0, 76, 0
2, 204480, Note_on_c, 0, 78, 72
2, 204960, Note_on_c, 0, 66, 64
2, 205120, Note_on_c, 0, 66, 0
2, 205120, Note_on_c, 0, 70, 60
2, 205280, Note_on_c, 0, 70, 0
2, 205280, Note_on_c, 0, 73, 60
2, 205440, Note_on_c, 0, 73, 0
2, 205440, Note_on_c, 0, 66, 64
2, 205920, Note_on_c, 0, 66, 0
2, 205920, Note_on_c, 0, 78, 0
2, 205920, Note_on_c, 0, 74, 52
2, 206400, Note_on_c, 0, 62, 32
2, 206560, Note_on_c, 0, 62, 0
2, 206560, Note_on_c, 0, 66, 32
2, 206720, Note_on_c, 0, 66, 0
2, 206720, Note_on_c, 0, 71, 32
2, 206880, Note_on_c, 0, 71, 0
2, 206880, Note_on_c, 0, 62, 32
2, 207360, Note_on_c, 0, 62, 0
2, 207360, Note_on_c, 0, 74, 0
2, 207360, Note_on_c, 0, 72, 48
2, 207840, Note_on_c, 0, 60, 32
2, 208000, Note_on_c, 0, 60, 0
2, 208000, Note_on_c, 0, 64, 32
2, 208160, Note_on_c, 0, 64, 0
2, 208160, Note_on_c, 0, 67, 32
2, 208320, Note_on_c, 0, 67, 0
2, 208320, Note_on_c, 0, 60, 32
2, 208800, Note_on_c, 0, 60, 0
2, 208800, Note_on_c, 0, 72, 0
2, 208800, Note_on_c, 0, 66, 47
2, 208800, Note_on_c, 0, 70, 47
2, 209040, Note_on_c, 0, 66, 0
2, 209040, Note_on_c, 0, 61, 40
2, 209280, Note_on_c, 0, 61, 0
2, 209280, Note_on_c, 0, 70, 0
2, 209280, Note_on_c, 0, 66, 47
2, 209280, Note_on_c, 0, 73, 47
2, 209520, Note_on_c, 0, 66, 0
2, 209520, Note_on_c, 0, 61, 39
2, 209760, Note_on_c, 0, 61, 0
2, 209760, Note_on_c, 0, 73, 0
2, 209760, Note_on_c, 0, 66, 47
2, 209760, Note_on_c, 0, 70, 47
2, 210000, Note_on_c, 0, 66, 0
2, 210000, Note_on_c, 0, 61, 38
2, 210240, Note_on_c, 0, 61, 0
2, 210240, Note_on_c, 0, 70, 0
2, 210240, Note_on_c, 0, 71, 47
2, 210720, Note_on_c, 0, 59, 32
2, 210880, Note_on_c, 0, 59, 0
2, 210880, Note_on_c, 0, 62, 32
2, 211040, Note_on_c, 0, 62, 0
2, 211040, Note_on_c, 0, 66, 32
2, 211200, Note_on_c, 0, 66, 0
2, 211200, Note_on_c, 0, 59, 32
2, 211680, Note_on_c, 0, 59, 0
2, 211680, Note_on_c, 0, 71, 0
2, 211680, Note_on_c, 0, 71, 85
2, 212160, Note_on_c, 0, 59, 67
2, 212320, Note_on_c, 0, 59, 0
2, 212320, Note_on_c, 0, 64, 61
2, 212480, Note_on_c, 0, 64, 0
2, 212480, Note_on_c, 0, 67, 61
2, 212640, Note_on_c, 0, 67, 0
2, 212640, Note_on_c, 0, 59, 67
2, 213120, Note_on_c, 0, 59, 0
2, 213120, Note_on_c, 0, 71, 0
2, 213120, Note_on_c, 0, 71, 48
2, 213600, Note_on_c, 0, 59, 32
2, 213760, Note_on_c, 0, 59, 0
2, 213760, Note_on_c, 0, 62, 32
2, 213920, Note_on_c, 0, 62, 0
2, 213920, Note_on_c, 0, 66, 32
2, 214080, Note_on_c, 0, 66, 0
2, 214080, Note_on_c, 0, 59, 32
2, 214560, Note_on_c, 0, 59, 0
2, 214560, Note_on_c, 0, 71, 0
2, 214560, Note_on_c, 0, 61, 32
2, 214560, Note_on_c, 0, 70, 48
2, 214720, Note_on_c, 0, 61, 0
2, 214720, Note_on_c, 0, 62, 34
2, 214880, Note_on_c, 0, 62, 0
2, 214880, Note_on_c, 0, 64, 36
2, 215040, Note_on_c, 0, 64, 0
2, 215040, Note_on_c, 0, 66, 39
2, 215200, Note_on_c, 0, 66, 0
2, 215200, Note_on_c, 0, 67, 41
2, 215360, Note_on_c, 0, 67, 0
2, 215360, Note_on_c, 0, 66, 39
2, 215520, Note_on_c, 0, 66, 0
2, 215520, Note_on_c, 0, 64, 36
2, 215680, Note_on_c, 0, 64, 0
2, 215680, Note_on_c, 0, 62, 34
2, 215840, Note_on_c, 0, 62, 0
2, 215840, Note_on_c, 0, 61, 32
2, 216000, Note_on_c, 0, 61, 0
2, 216000, Note_on_c, 0, 70, 0
2, 216000, Note_on_c, 0, 71, 48
2, 216480, Note_on_c, 0, 59, 32
2, 216640, Note_on_c, 0, 59, 0
2, 216640, Note_on_c, 0, 62, 32
2, 216800, Note_on_c, 0, 62, 0
2, 216800, Note_on_c, 0, 66, 32
2, 216960, Note_on_c, 0, 66, 0
2, 216960, Note_on_c, 0, 59, 32
2, 217440, Note_on_c, 0, 59, 0
2, 217440, Note_on_c, 0, 71, 0
2, 217440, Note_on_c, 0, 71, 79
2, 217920, Note_on_c, 0, 59, 64
2, 218080, Note_on_c, 0, 59, 0
2, 218080, Note_on_c, 0, 64, 58
2, 218240, Note_on_c, 0, 64, 0
2, 218240, Note_on_c, 0, 67, 60
2, 218400, Note_on_c, 0, 67, 0
2, 218400, Note_on_c, 0, 59, 64
2, 218880, Note_on_c, 0, 59, 0
2, 218880, Note_on_c, 0, 71, 0
2, 218880, Note_on_c, 0, 71, 48
2, 219360, Note_on_c, 0, 59, 32
2, 219520, Note_on_c, 0, 59, 0
2, 219520, Note_on_c, 0, 62, 32
2, 219680, Note_on_c, 0, 62, 0
2, 219680, Note_on_c, 0, 66, 32
2, 219840, Note_on_c, 0, 66, 0
2, 219840, Note_on_c, 0, 59, 32
2, 220320, Note_on_c, 0, 59, 0
2, 220320, Note_on_c, 0, 71, 0
2, 220320, Note_on_c, 0, 61, 32
2, 220320, Note_on_c, 0, 70, 48
2, 220480, Note_on_c, 0, 61, 0
2, 220480, Note_on_c, 0, 62, 34
2, 220640, Note_on_c, 0, 62, 0
2, 220640, Note_on_c, 0, 64, 36
2, 220800, Note_on_c, 0, 64, 0
2, 220800, Note_on_c, 0, 66, 39
2, 220960, Note_on_c, 0, 66, 0
2, 220960, Note_on_c, 0, 67, 41
2, 221120, Note_on_c, 0, 67, 0
2, 221120, Note_on_c, 0, 66, 39
2, 221280, Note_on_c, 0, 66, 0
2, 221280, Note_on_c, 0, 64, 36
2, 221440, Note_on_c, 0, 64, 0
2, 221440, Note_on_c, 0, 62, 34
2, 221600, Note_on_c, 0, 62, 0
2, 221600, Note_on_c, 0, 61, 32
2, 221760, Note_on_c, 0, 61, 0
2, 221760, Note_on_c, 0, 70, 0
2, 221760, Note_on_c, 0, 71, 48
2, 222240, Note_on_c, 0, 59, 32
2, 222400, Note_on_c, 0, 59, 0
2, 222400, Note_on_c, 0, 62, 32
2, 222560, Note_on_c, 0, 62, 0
2, 222560, Note_on_c, 0, 66, 32
2, 222720, Note_on_c, 0, 66, 0
2, 222720, Note_on_c, 0, 59, 32
2, 223200, Note_on_c, 0, 59, 0
2, 223200, Note_on_c, 0, 71, 0
2, 223200, Note_on_c, 0, 71, 81
2, 223680, Note_on_c, 0, 59, 60
2, 223840, Note_on_c, 0, 59, 0
2, 223840, Note_on_c, 0, 62, 54
2, 224000, Note_on_c, 0, 62, 0
2, 224000, Note_on_c, 0, 66, 54
2, 224160, Note_on_c, 0, 66, 0
2, 224160, Note_on_c, 0, 59, 60
2, 224640, Note_on_c, 0, 59, 0
2, 224640, Note_on_c, 0, 71, 0
2, 224640, Note_on_c, 0, 71, 81
2, 225120, Note_on_c, 0, 59, 60
2, 225280, Note_on_c, 0, 59, 0
2, 225280, Note_on_c, 0, 62, 54
2, 225440, Note_on_c, 0, 62, 0
2, 225440, Note_on_c, 0, 66, 54
2, 225600, Note_on_c, 0, 66, 0
2, 225600, Note_on_c, 0, 59, 60
2, 226080, Note_on_c, 0, 59, 0
2, 226080, Note_on_c, 0, 71, 0
2, 226080, Note_on_c, 0, 62, 81
2, 226240, Note_on_c, 0, 62, 0
2, 226240, Note_on_c, 0, 66, 64
2, 226400, Note_on_c, 0, 66, 0
2, 226400, Note_on_c, 0, 71, 64
2, 226560, Note_on_c, 0, 71, 0
2, 226560, Note_on_c, 0, 59, 74
2, 227040, Note_on_c, 0, 59, 0
2, 227040, Note_on_c, 0, 62, 81
2, 227200, Note_on_c, 0, 62, 0
2, 227200, Note_on_c, 0, 66, 64
2, 227360, Note_on_c, 0, 66, 0
2, 227360, Note_on_c, 0, 71, 64
2, 227520, Note_on_c, 0, 71, 0
2, 227520, Note_on_c, 0, 59, 71
2, 228000, Note_on_c, 0, 59, 0
2, 228000, Note_on_c, 0, 62, 81
2, 228160, Note_on_c, 0, 62, 0
2, 228160, Note_on_c, 0, 66, 64
2, 228320, Note_on_c, 0, 66, 0
2, 228320, Note_on_c, 0, 71, 64
2, 228480, Note_on_c, 0, 71, 0
2, 228480, Note_on_c, 0, 62, 72
2, 228960, Note_on_c, 0, 62, 0
2, 228960, Note_on_c, 0, 70, 81
2, 229440, Note_on_c, 0, 58, 60
2, 229600, Note_on_c, 0, 58, 0
2, 229600, Note_on_c, 0, 63, 55
2, 229760, Note_on_c, 0, 63, 0
2, 229760, Note_on_c, 0, 66, 55
2, 229920, Note_on_c, 0, 66, 0
2, 229920, Note_on_c, 0, 58, 60
2, 230400, Note_on_c, 0, 58, 0
2, 230400, Note_on_c, 0, 70, 0
2, 230400, Note_on_c, 0, 70, 81
2, 230880, Note_on_c, 0, 58, 60
2, 231040, Note_on_c, 0, 58, 0
2, 231040, Note_on_c, 0, 63, 55
2, 231200, Note_on_c, 0, 63, 0
2, 231200, Note_on_c, 0, 66, 55
2, 231360, Note_on_c, 0, 66, 0
2, 231360, Note_on_c, 0, 58, 60
2, 231840, Note_on_c, 0, 58, 0
2, 231840, Note_on_c, 0, 70, 0
2, 231840, Note_on_c, 0, 63, 83
2, 232000, Note_on_c, 0, 63, 0
2, 232000, Note_on_c, 0, 66, 62
2, 232160, Note_on_c, 0, 66, 0
2, 232160, Note_on_c, 0, 70, 62
2, 232320, Note_on_c, 0, 70, 0
2, 232320, Note_on_c, 0, 58, 74
2, 232800, Note_on_c, 0, 58, 0
2, 232800, Note_on_c, 0, 63, 89
2, 232960, Note_on_c, 0, 63, 0
2, 232960, Note_on_c, 0, 66, 66
2, 233120, Note_on_c, 0, 66, 0
2, 233120, Note_on_c, 0, 70, 66
2, 233280, Note_on_c, 0, 70, 0
2, 233280, Note_on_c, 0, 58, 77
2, 233760, Note_on_c, 0, 58, 0
2, 233760, Note_on_c, 0, 63, 90
2, 233920, Note_on_c, 0, 63, 0
2, 233920, Note_on_c, 0, 66, 71
2, 234080, Note_on_c, 0, 66, 0
2, 234080, Note_on_c, 0, 70, 71
2, 234240, Note_on_c, 0, 70, 0
2, 234240, Note_on_c, 0, 58, 78
2, 234720, Note_on_c, 0, 58, 0
2, 234720, Note_on_c, 0, 63, 82
2, 234720, Note_on_c, 0, 75, 97
2, 235680, Note_on_c, 0, 75, 0
2, 235680, Note_on_c, 0, 63, 0
2, 235680, Note_on_c, 0, 87, 105
2, 235680, Note_on_c, 0, 75, 96
2, 236640, Note_on_c, 0, 75, 0
2, 236640, Note_on_c, 0, 87, 0
2, 236640, Note_on_c, 0, 71, 77
2, 236640, Note_on_c, 0, 83, 91
2, 237600, Note_on_c, 0, 83, 0
2, 237600, Note_on_c, 0, 71, 0
2, 237600, Note_on_c, 0, 80, 81
2, 237760, Note_on_c, 0, 80, 0
2, 237760, Note_on_c, 0, 83, 75
2, 237920, Note_on_c, 0, 83, 0
2, 237920, Note_on_c, 0, 80, 80
2, 238080, Note_on_c, 0, 80, 0
2, 238080, Note_on_c, 0, 83, 74
2, 238240, Note_on_c, 0, 83, 0
2, 238240, Note_on_c, 0, 80, 78
2, 238400, Note_on_c, 0, 80, 0
2, 238400, Note_on_c, 0, 83, 72
2, 238560, Note_on_c, 0, 83, 0
2, 238560, Note_on_c, 0, 80, 77
2, 238720, Note_on_c, 0, 80, 0
2, 238720, Note_on_c, 0, 83, 69
2, 238880, Note_on_c, 0, 83, 0
2, 238880, Note_on_c, 0, 80, 75
2, 239040, Note_on_c, 0, 80, 0
2, 239040, Note_on_c, 0, 83, 69
2, 239200, Note_on_c, 0, 83, 0
2, 239200, Note_on_c, 0, 80, 74
2, 239360, Note_on_c, 0, 80, 0
2, 239360, Note_on_c, 0, 83, 67
2, 239520, Note_on_c, 0, 83, 0
2, 239520, Note_on_c, 0, 80, 72
2, 239680, Note_on_c, 0, 80, 0
2, 239680, Note_on_c, 0, 83, 67
2, 239840, Note_on_c, 0, 83, 0
2, 239840, Note_on_c, 0, 80, 72
2, 240000, Note_on_c, 0, 80, 0
2, 240000, Note_on_c, 0, 83, 65
2, 240160, Note_on_c, 0, 83, 0
2, 240160, Note_on_c, 0, 80, 70
2, 240320, Note_on_c, 0, 80, 0
2, 240320, Note_on_c, 0, 83, 64
2, 240480, Note_on_c, 0, 83, 0
2, 240480, Note_on_c, 0, 80, 70
2, 240640, Note_on_c, 0, 80, 0
2, 240640, Note_on_c, 0, 82, 62
2, 240800, Note_on_c, 0, 82, 0
2, 240800, Note_on_c, 0, 80, 64
2, 240960, Note_on_c, 0, 80, 0
2, 240960, Note_on_c, 0, 82, 56
2, 241120, Note_on_c, 0, 82, 0
2, 241120, Note_on_c, 0, 80, 58
2, 241280, Note_on_c, 0, 80, 0
2, 241280, Note_on_c, 0, 82, 51
2, 241440, Note_on_c, 0, 82, 0
2, 241440, Note_on_c, 0, 80, 53
2, 241600, Note_on_c, 0, 80, 0
2, 241600, Note_on_c, 0, 82, 45
2, 241760, Note_on_c, 0, 82, 0
2, 241760, Note_on_c, 0, 80, 47
2, 241920, Note_on_c, 0, 80, 0
2, 241920, Note_on_c, 0, 82, 40
2, 242080, Note_on_c, 0, 82, 0
2, 242080, Note_on_c, 0, 80, 41
2, 242240, Note_on_c, 0, 80, 0
2, 242240, Note_on_c, 0, 82, 35
2, 242400, Note_on_c, 0, 82, 0
2, 242400, Note_on_c, 0, 80, 36
2, 242560, Note_on_c, 0, 80, 0
2, 242560, Note_on_c, 0, 82, 28
2, 242720, Note_on_c, 0, 82, 0
2, 242720, Note_on_c, 0, 80, 30
2, 242880, Note_on_c, 0, 80, 0
2, 242880, Note_on_c, 0, 82, 23
2, 243040, Note_on_c, 0, 82, 0
2, 243040, Note_on_c, 0, 80, 24
2, 243200, Note_on_c, 0, 80, 0
2, 243200, Note_on_c, 0, 82, 21
2, 243360, Note_on_c, 0, 82, 0
2, 243360, Note_on_c, 0, 79, 24
2, 243520, Note_on_c, 0, 79, 0
2, 243520, Note_on_c, 0, 82, 44
2, 243680, Note_on_c, 0, 82, 0
2, 243680, Note_on_c, 0, 80, 43
2, 243840, Note_on_c, 0, 80, 0
2, 243840, Note_on_c, 0, 79, 43
2, 244000, Note_on_c, 0, 79, 0
2, 244000, Note_on_c, 0, 77, 42
2, 244160, Note_on_c, 0, 77, 0
2, 244160, Note_on_c, 0, 75, 41
2, 244320, Note_on_c, 0, 75, 0
2, 244320, Note_on_c, 0, 74, 40
2, 244480, Note_on_c, 0, 74, 0
2, 244480, Note_on_c, 0, 72, 40
2, 244640, Note_on_c, 0, 72, 0
2, 244640, Note_on_c, 0, 70, 40
2, 244800, Note_on_c, 0, 70, 0
2, 244800, Note_on_c, 0, 68, 39
2, 244960, Note_on_c, 0, 68, 0
2, 244960, Note_on_c, 0, 67, 39
2, 245120, Note_on_c, 0, 67, 0
2, 245120, Note_on_c, 0, 65, 38
2, 245280, Note_on_c, 0, 65, 0
2, 245280, Note_on_c, 0, 63, 37
2, 245440, Note_on_c, 0, 63, 0
2, 245440, Note_on_c, 0, 62, 39
2, 245600, Note_on_c, 0, 62, 0
2, 245600, Note_on_c, 0, 60, 38
2, 245760, Note_on_c, 0, 60, 0
2, 245760, Note_on_c, 0, 58, 40
2, 245920, Note_on_c, 0, 60, 41
2, 246080, Note_on_c, 0, 60, 0
2, 246080, Note_on_c, 0, 62, 40
2, 246240, Note_on_c, 0, 62, 0
2, 246240, Note_on_c, 0, 58, 0
2, 246240, Note_on_c, 0, 63, 44
2, 246400, Note_on_c, 0, 63, 0
2, 246400, Note_on_c, 0, 62, 45
2, 246560, Note_on_c, 0, 62, 0
2, 246560, Note_on_c, 0, 63, 45
2, 246720, Note_on_c, 0, 63, 0
2, 246720, Note_on_c, 0, 64, 48
2, 246880, Note_on_c, 0, 64, 0
2, 246880, Note_on_c, 0, 63, 47
2, 247040, Note_on_c, 0, 63, 0
2, 247040, Note_on_c, 0, 64, 45
2, 247200, Note_on_c, 0, 64, 0
2, 247200, Note_on_c, 0, 65, 53
2, 247360, Note_on_c, 0, 65, 0
2, 247360, Note_on_c, 0, 64, 51
2, 247520, Note_on_c, 0, 64, 0
2, 247520, Note_on_c, 0, 65, 48
2, 247680, Note_on_c, 0, 65, 0
2, 247680, Note_on_c, 0, 66, 56
2, 247840, Note_on_c, 0, 66, 0
2, 247840, Note_on_c, 0, 65, 52
2, 248000, Note_on_c, 0, 65, 0
2, 248000, Note_on_c, 0, 66, 48
2, 248160, Note_on_c, 0, 66, 0
2, 248160, Note_on_c, 0, 67, 56
2, 248320, Note_on_c, 0, 67, 0
2, 248320, Note_on_c, 0, 66, 54
2, 248480, Note_on_c, 0, 66, 0
2, 248480, Note_on_c, 0, 67, 49
2, 248640, Note_on_c, 0, 67, 0
2, 248640, Note_on_c, 0, 68, 48
2, 248800, Note_on_c, 0, 68, 0
2, 248800, Note_on_c, 0, 67, 45
2, 248960, Note_on_c, 0, 67, 0
2, 248960, Note_on_c, 0, 68, 42
2, 249120, Note_on_c, 0, 68, 0
2, 249120, Note_on_c, 0, 67, 48
2, 249280, Note_on_c, 0, 67, 0
2, 249280, Note_on_c, 0, 70, 45
2, 249440, Note_on_c, 0, 70, 0
2, 249440, Note_on_c, 0, 68, 44
2, 249600, Note_on_c, 0, 68, 0
2, 249600, Note_on_c, 0, 67, 48
2, 249760, Note_on_c, 0, 67, 0
2, 249760, Note_on_c, 0, 68, 45
2, 249920, Note_on_c, 0, 68, 0
2, 249920, Note_on_c, 0, 70, 45
2, 250080, Note_on_c, 0, 70, 0
2, 250080, Note_on_c, 0, 72, 48
2, 250240, Note_on_c, 0, 72, 0
2, 250240, Note_on_c, 0, 74, 44
2, 250400, Note_on_c, 0, 74, 0
2, 250400, Note_on_c, 0, 75, 44
2, 250560, Note_on_c, 0, 75, 0
2, 250560, Note_on_c, 0, 77, 48
2, 250720, Note_on_c, 0, 77, 0
2, 250720, Note_on_c, 0, 84, 52
2, 250880, Note_on_c, 0, 84, 0
2, 250880, Note_on_c, 0, 82, 46
2, 251040, Note_on_c, 0, 82, 0
2, 251040, Note_on_c, 0, 80, 51
2, 251200, Note_on_c, 0, 80, 0
2, 251200, Note_on_c, 0, 79, 47
2, 251360, Note_on_c, 0, 79, 0
2, 251360, Note_on_c, 0, 77, 45
2, 251520, Note_on_c, 0, 77, 0
2, 251520, Note_on_c, 0, 75, 48
2, 251680, Note_on_c, 0, 75, 0
2, 251680, Note_on_c, 0, 74, 45
2, 251840, Note_on_c, 0, 74, 0
2, 251840, Note_on_c, 0, 72, 45
2, 252000, Note_on_c, 0, 72, 0
2, 252000, Note_on_c, 0, 70, 47
2, 252160, Note_on_c, 0, 70, 0
2, 252160, Note_on_c, 0, 77, 45
2, 252320, Note_on_c, 0, 77, 0
2, 252320, Note_on_c, 0, 75, 45
2, 252480, Note_on_c, 0, 75, 0
2, 252480, Note_on_c, 0, 74, 48
2, 252640, Note_on_c, 0, 74, 0
2, 252640, Note_on_c, 0, 72, 45
2, 252800, Note_on_c, 0, 72, 0
2, 252800, Note_on_c, 0, 70, 45
2, 252960, Note_on_c, 0, 70, 0
2, 252960, Note_on_c, 0, 68, 48
2, 253120, Note_on_c, 0, 68, 0
2, 253120, Note_on_c, 0, 67, 44
2, 253280, Note_on_c, 0, 67, 0
2, 253280, Note_on_c, 0, 65, 44
2, 253440, Note_on_c, 0, 65, 0
2, 253440, Note_on_c, 0, 63, 48
2, 253600, Note_on_c, 0, 63, 0
2, 253600, Note_on_c, 0, 65, 48
2, 253760, Note_on_c, 0, 65, 0
2, 253760, Note_on_c, 0, 67, 48
2, 253920, Note_on_c, 0, 67, 0
2, 253920, Note_on_c, 0, 68, 48
2, 254080, Note_on_c, 0, 68, 0
2, 254080, Note_on_c, 0, 70, 51
2, 254240, Note_on_c, 0, 70, 0
2, 254240, Note_on_c, 0, 72, 55
2, 254400, Note_on_c, 0, 72, 0
2, 254400, Note_on_c, 0, 74, 56
2, 254560, Note_on_c, 0, 74, 0
2, 254560, Note_on_c, 0, 75, 60
2, 254720, Note_on_c, 0, 75, 0
2, 254720, Note_on_c, 0, 77, 63
2, 254880, Note_on_c, 0, 77, 0
2, 254880, Note_on_c, 0, 79, 63
2, 255040, Note_on_c, 0, 79, 0
2, 255040, Note_on_c, 0, 82, 58
2, 255200, Note_on_c, 0, 82, 0
2, 255200, Note_on_c, 0, 80, 53
2, 255360, Note_on_c, 0, 80, 0
2, 255360, Note_on_c, 0, 79, 62
2, 255520, Note_on_c, 0, 79, 0
2, 255520, Note_on_c, 0, 77, 56
2, 255680, Note_on_c, 0, 77, 0
2, 255680, Note_on_c, 0, 75, 54
2, 255840, Note_on_c, 0, 75, 0
2, 255840, Note_on_c, 0, 74, 63
2, 256000, Note_on_c, 0, 74, 0
2, 256000, Note_on_c, 0, 72, 58
2, 256160, Note_on_c, 0, 72, 0
2, 256160, Note_on_c, 0, 70, 54
2, 256320, Note_on_c, 0, 70, 0
2, 256320, Note_on_c, 0, 68, 63
2, 256480, Note_on_c, 0, 68, 0
2, 256480, Note_on_c, 0, 67, 59
2, 256640, Note_on_c, 0, 67, 0
2, 256640, Note_on_c, 0, 65, 60
2, 256800, Note_on_c, 0, 65, 0
2, 256800, Note_on_c, 0, 63, 63
2, 256960, Note_on_c, 0, 63, 0
2, 256960, Note_on_c, 0, 62, 59
2, 257120, Note_on_c, 0, 62, 0
2, 257120, Note_on_c, 0, 60, 59
2, 257280, Note_on_c, 0, 60, 0
2, 257280, Note_on_c, 0, 58, 63
2, 257440, Note_on_c, 0, 60, 58
2, 257600, Note_on_c, 0, 60, 0
2, 257600, Note_on_c, 0, 62, 58
2, 257760, Note_on_c, 0, 62, 0
2, 257760, Note_on_c, 0, 58, 0
2, 257760, Note_on_c, 0, 63, 63
2, 257920, Note_on_c, 0, 63, 0
2, 257920, Note_on_c, 0, 62, 60
2, 258080, Note_on_c, 0, 62, 0
2, 258080, Note_on_c, 0, 63, 60
2, 258240, Note_on_c, 0, 63, 0
2, 258240, Note_on_c, 0, 64, 67
2, 258400, Note_on_c, 0, 64, 0
2, 258400, Note_on_c, 0, 63, 63
2, 258560, Note_on_c, 0, 63, 0
2, 258560, Note_on_c, 0, 64, 63
2, 258720, Note_on_c, 0, 64, 0
2, 258720, Note_on_c, 0, 65, 71
2, 258880, Note_on_c, 0, 65, 0
2, 258880, Note_on_c, 0, 64, 68
2, 259040, Note_on_c, 0, 64, 0
2, 259040, Note_on_c, 0, 65, 64
2, 259200, Note_on_c, 0, 65, 0
2, 259200, Note_on_c, 0, 66, 73
2, 259360, Note_on_c, 0, 66, 0
2, 259360, Note_on_c, 0, 65, 70
2, 259520, Note_on_c, 0, 65, 0
2, 259520, Note_on_c, 0, 66, 67
2, 259680, Note_on_c, 0, 66, 0
2, 259680, Note_on_c, 0, 67, 72
2, 259840, Note_on_c, 0, 67, 0
2, 259840, Note_on_c, 0, 66, 70
2, 260000, Note_on_c, 0, 66, 0
2, 260000, Note_on_c, 0, 67, 64
2, 260160, Note_on_c, 0, 67, 0
2, 260160, Note_on_c, 0, 68, 63
2, 260320, Note_on_c, 0, 68, 0
2, 260320, Note_on_c, 0, 67, 58
2, 260480, Note_on_c, 0, 67, 0
2, 260480, Note_on_c, 0, 68, 58
2, 260640, Note_on_c, 0, 68, 0
2, 260640, Note_on_c, 0, 67, 63
2, 260800, Note_on_c, 0, 67, 0
2, 260800, Note_on_c, 0, 70, 60
2, 260960, Note_on_c, 0, 70, 0
2, 260960, Note_on_c, 0, 68, 60
2, 261120, Note_on_c, 0, 68, 0
2, 261120, Note_on_c, 0, 67, 63
2, 261280, Note_on_c, 0, 67, 0
2, 261280, Note_on_c, 0, 68, 58
2, 261440, Note_on_c, 0, 68, 0
2, 261440, Note_on_c, 0, 70, 58
2, 261600, Note_on_c, 0, 70, 0
2, 261600, Note_on_c, 0, 72, 63
2, 261760, Note_on_c, 0, 72, 0
2, 261760, Note_on_c, 0, 74, 58
2, 261920, Note_on_c, 0, 74, 0
2, 261920, Note_on_c, 0, 75, 58
2, 262080, Note_on_c, 0, 75, 0
2, 262080, Note_on_c, 0, 77, 63
2, 262240, Note_on_c, 0, 77, 0
2, 262240, Note_on_c, 0, 84, 66
2, 262400, Note_on_c, 0, 84, 0
2, 262400, Note_on_c, 0, 82, 65
2, 262560, Note_on_c, 0, 82, 0
2, 262560, Note_on_c, 0, 80, 64
2, 262720, Note_on_c, 0, 80, 0
2, 262720, Note_on_c, 0, 79, 60
2, 262880, Note_on_c, 0, 79, 0
2, 262880, Note_on_c, 0, 77, 60
2, 263040, Note_on_c, 0, 77, 0
2, 263040, Note_on_c, 0, 75, 63
2, 263200, Note_on_c, 0, 75, 0
2, 263200, Note_on_c, 0, 74, 58
2, 263360, Note_on_c, 0, 74, 0
2, 263360, Note_on_c, 0, 72, 61
2, 263520, Note_on_c, 0, 72, 0
2, 263520, Note_on_c, 0, 70, 59
2, 263680, Note_on_c, 0, 70, 0
2, 263680, Note_on_c, 0, 77, 62
2, 263840, Note_on_c, 0, 77, 0
2, 263840, Note_on_c, 0, 75, 58
2, 264000, Note_on_c, 0, 75, 0
2, 264000, Note_on_c, 0, 74, 63
2, 264160, Note_on_c, 0, 74, 0
2, 264160, Note_on_c, 0, 75, 59
2, 264320, Note_on_c, 0, 75, 0
2, 264320, Note_on_c, 0, 77, 59
2, 264480, Note_on_c, 0, 77, 0
2, 264480, Note_on_c, 0, 79, 63
2, 264640, Note_on_c, 0, 79, 0
2, 264640, Note_on_c, 0, 80, 57
2, 264800, Note_on_c, 0, 80, 0
2, 264800, Note_on_c, 0, 82, 57
2, 264960, Note_on_c, 0, 82, 0
2, 264960, Note_on_c, 0, 75, 63
2, 265120, Note_on_c, 0, 75, 0
2, 265120, Note_on_c, 0, 77, 58
2, 265280, Note_on_c, 0, 77, 0
2, 265280, Note_on_c, 0, 79, 58
2, 265440, Note_on_c, 0, 79, 0
2, 265440, Note_on_c, 0, 80, 63
2, 265600, Note_on_c, 0, 80, 0
2, 265600, Note_on_c, 0, 82, 58
2, 265760, Note_on_c, 0, 82, 0
2, 265760, Note_on_c, 0, 84, 58
2, 265920, Note_on_c, 0, 84, 0
2, 265920, Note_on_c, 0, 86, 63
2, 266080, Note_on_c, 0, 86, 0
2, 266080, Note_on_c, 0, 87, 58
2, 266240, Note_on_c, 0, 87, 0
2, 266240, Note_on_c, 0, 89, 58
2, 266400, Note_on_c, 0, 89, 0
2, 266400, Note_on_c, 0, 91, 63
2, 266560, Note_on_c, 0, 91, 0
2, 266560, Note_on_c, 0, 94, 63
2, 266720, Note_on_c, 0, 94, 0
2, 266720, Note_on_c, 0, 92, 58
2, 266880, Note_on_c, 0, 92, 0
2, 266880, Note_on_c, 0, 91, 64
2, 267040, Note_on_c, 0, 91, 0
2, 267040, Note_on_c, 0, 89, 62
2, 267200, Note_on_c, 0, 89, 0
2, 267200, Note_on_c, 0, 87, 62
2, 267360, Note_on_c, 0, 87, 0
2, 267360, Note_on_c, 0, 86, 63
2, 267520, Note_on_c, 0, 86, 0
2, 267520, Note_on_c, 0, 84, 57
2, 267680, Note_on_c, 0, 84, 0
2, 267680, Note_on_c, 0, 82, 58
2, 267840, Note_on_c, 0, 82, 0
2, 267840, Note_on_c, 0, 80, 60
2, 268000, Note_on_c, 0, 80, 0
2, 268000, Note_on_c, 0, 79, 58
2, 268160, Note_on_c, 0, 79, 0
2, 268160, Note_on_c, 0, 77, 58
2, 268320, Note_on_c, 0, 77, 0
2, 268320, Note_on_c, 0, 75, 63
2, 268480, Note_on_c, 0, 75, 0
2, 268480, Note_on_c, 0, 74, 58
2, 268640, Note_on_c, 0, 74, 0
2, 268640, Note_on_c, 0, 72, 58
2, 268800, Note_on_c, 0, 72, 0
2, 268800, Note_on_c, 0, 70, 63
2, 268960, Note_on_c, 0, 70, 0
2, 268960, Note_on_c, 0, 72, 58
2, 269120, Note_on_c, 0, 72, 0
2, 269120, Note_on_c, 0, 74, 58
2, 269280, Note_on_c, 0, 74, 0
2, 269280, Note_on_c, 0, 75, 63
2, 269440, Note_on_c, 0, 75, 0
2, 269440, Note_on_c, 0, 74, 59
2, 269600, Note_on_c, 0, 74, 0
2, 269600, Note_on_c, 0, 75, 59
2, 269760, Note_on_c, 0, 75, 0
2, 269760, Note_on_c, 0, 76, 64
2, 269920, Note_on_c, 0, 76, 0
2, 269920, Note_on_c, 0, 75, 61
2, 270080, Note_on_c, 0, 75, 0
2, 270080, Note_on_c, 0, 76, 62
2, 270240, Note_on_c, 0, 76, 0
2, 270240, Note_on_c, 0, 77, 66
2, 270400, Note_on_c, 0, 77, 0
2, 270400, Note_on_c, 0, 76, 63
2, 270560, Note_on_c, 0, 76, 0
2, 270560, Note_on_c, 0, 77, 63
2, 270720, Note_on_c, 0, 77, 0
2, 270720, Note_on_c, 0, 78, 70
2, 270880, Note_on_c, 0, 78, 0
2, 270880, Note_on_c, 0, 77, 65
2, 271040, Note_on_c, 0, 77, 0
2, 271040, Note_on_c, 0, 78, 65
2, 271200, Note_on_c, 0, 78, 0
2, 271200, Note_on_c, 0, 79, 73
2, 271360, Note_on_c, 0, 79, 0
2, 271360, Note_on_c, 0, 78, 68
2, 271520, Note_on_c, 0, 78, 0
2, 271520, Note_on_c, 0, 79, 63
2, 271680, Note_on_c, 0, 79, 0
2, 271680, Note_on_c, 0, 80, 64
2, 271840, Note_on_c, 0, 80, 0
2, 271840, Note_on_c, 0, 79, 61
2, 272000, Note_on_c, 0, 79, 0
2, 272000, Note_on_c, 0, 80, 61
2, 272160, Note_on_c, 0, 80, 0
2, 272160, Note_on_c, 0, 79, 63
2, 272320, Note_on_c, 0, 79, 0
2, 272320, Note_on_c, 0, 82, 59
2, 272480, Note_on_c, 0, 82, 0
2, 272480, Note_on_c, 0, 80, 60
2, 272640, Note_on_c, 0, 80, 0
2, 272640, Note_on_c, 0, 79, 63
2, 272800, Note_on_c, 0, 79, 0
2, 272800, Note_on_c, 0, 80, 60
2, 272960, Note_on_c, 0, 80, 0
2, 272960, Note_on_c, 0, 82, 60
2, 273120, Note_on_c, 0, 82, 0
2, 273120, Note_on_c, 0, 84, 63
2, 273280, Note_on_c, 0, 84, 0
2, 273280, Note_on_c, 0, 86, 59
2, 273440, Note_on_c, 0, 86, 0
2, 273440, Note_on_c, 0, 87, 59
2, 273600, Note_on_c, 0, 87, 0
2, 273600, Note_on_c, 0, 89, 64
2, 273760, Note_on_c, 0, 89, 0
2, 273760, Note_on_c, 0, 96, 59
2, 273920, Note_on_c, 0, 96, 0
2, 273920, Note_on_c, 0, 94, 59
2, 274080, Note_on_c, 0, 94, 0
2, 274080, Note_on_c, 0, 92, 62
2, 274240, Note_on_c, 0, 92, 0
2, 274240, Note_on_c, 0, 91, 61
2, 274400, Note_on_c, 0, 91, 0
2, 274400, Note_on_c, 0, 89, 60
2, 274560, Note_on_c, 0, 89, 0
2, 274560, Note_on_c, 0, 87, 59
2, 274720, Note_on_c, 0, 87, 0
2, 274720, Note_on_c, 0, 86, 58
2, 274880, Note_on_c, 0, 86, 0
2, 274880, Note_on_c, 0, 84, 57
2, 275040, Note_on_c, 0, 84, 0
2, 275040, Note_on_c, 0, 82, 56
2, 275200, Note_on_c, 0, 82, 0
2, 275200, Note_on_c, 0, 89, 55
2, 275360, Note_on_c, 0, 89, 0
2, 275360, Note_on_c, 0, 87, 54
2, 275520, Note_on_c, 0, 87, 0
2, 275520, Note_on_c, 0, 86, 54
2, 275680, Note_on_c, 0, 86, 0
2, 275680, Note_on_c, 0, 84, 53
2, 275840, Note_on_c, 0, 84, 0
2, 275840, Note_on_c, 0, 82, 52
2, 276000, Note_on_c, 0, 82, 0
2, 276000, Note_on_c, 0, 80, 51
2, 276160, Note_on_c, 0, 80, 0
2, 276160, Note_on_c, 0, 79, 50
2, 276320, Note_on_c, 0, 79, 0
2, 276320, Note_on_c, 0, 77, 49
2, 276480, Note_on_c, 0, 77, 0
2, 276480, Note_on_c, 0, 75, 48
2, 276640, Note_on_c, 0, 75, 0
2, 276640, Note_on_c, 0, 79, 47
2, 276800, Note_on_c, 0, 79, 0
2, 276800, Note_on_c, 0, 77, 46
2, 276960, Note_on_c, 0, 77, 0
2, 276960, Note_on_c, 0, 75, 45
2, 277120, Note_on_c, 0, 75, 0
2, 277120, Note_on_c, 0, 74, 45
2, 277280, Note_on_c, 0, 74, 0
2, 277280, Note_on_c, 0, 72, 44
2, 277440, Note_on_c, 0, 72, 0
2, 277440, Note_on_c, 0, 70, 43
2, 277600, Note_on_c, 0, 70, 0
2, 277600, Note_on_c, 0, 68, 42
2, 277760, Note_on_c, 0, 68, 0
2, 277760, Note_on_c, 0, 65, 41
2, 277920, Note_on_c, 0, 65, 0
2, 277920, Note_on_c, 0, 66, 40
2, 278080, Note_on_c, 0, 66, 0
2, 278080, Note_on_c, 0, 70, 41
2, 278240, Note_on_c, 0, 70, 0
2, 278240, Note_on_c, 0, 68, 41
2, 278400, Note_on_c, 0, 68, 0
2, 278400, Note_on_c, 0, 66, 41
2, 278560, Note_on_c, 0, 66, 0
2, 278560, Note_on_c, 0, 65, 41
2, 278720, Note_on_c, 0, 65, 0
2, 278720, Note_on_c, 0, 63, 41
2, 278880, Note_on_c, 0, 63, 0
2, 278880, Note_on_c, 0, 61, 41
2, 279040, Note_on_c, 0, 61, 0
2, 279040, Note_on_c, 0, 59, 41
2, 279200, Note_on_c, 0, 59, 0
2, 279200, Note_on_c, 0, 58, 41
2, 279360, Note_on_c, 0, 58, 0
2, 279360, Note_on_c, 0, 59, 41
2, 279520, Note_on_c, 0, 59, 0
2, 279520, Note_on_c, 0, 63, 41
2, 279680, Note_on_c, 0, 63, 0
2, 279680, Note_on_c, 0, 68, 41
2, 279840, Note_on_c, 0, 68, 0
2, 279840, Note_on_c, 0, 71, 44
2, 280000, Note_on_c, 0, 63, 41
2, 280160, Note_on_c, 0, 63, 0
2, 280160, Note_on_c, 0, 68, 41
2, 280320, Note_on_c, 0, 68, 0
2, 280320, Note_on_c, 0, 66, 41
2, 280480, Note_on_c, 0, 66, 0
2, 280480, Note_on_c, 0, 63, 41
2, 280640, Note_on_c, 0, 63, 0
2, 280640, Note_on_c, 0, 66, 41
2, 280800, Note_on_c, 0, 66, 0
2, 280800, Note_on_c, 0, 71, 0
2, 280800, Note_on_c, 0, 65, 41
2, 280960, Note_on_c, 0, 65, 0
2, 280960, Note_on_c, 0, 71, 41
2, 281120, Note_on_c, 0, 71, 0
2, 281120, Note_on_c, 0, 70, 41
2, 281280, Note_on_c, 0, 70, 0
2, 281280, Note_on_c, 0, 68, 41
2, 281440, Note_on_c, 0, 68, 0
2, 281440, Note_on_c, 0, 66, 41
2, 281600, Note_on_c, 0, 66, 0
2, 281600, Note_on_c, 0, 65, 41
2, 281760, Note_on_c, 0, 65, 0
2, 281760, Note_on_c, 0, 63, 41
2, 281920, Note_on_c, 0, 63, 0
2, 281920, Note_on_c, 0, 61, 41
2, 282080, Note_on_c, 0, 61, 0
2, 282080, Note_on_c, 0, 59, 41
2, 282240, Note_on_c, 0, 59, 0
2, 282240, Note_on_c, 0, 58, 41
2, 282400, Note_on_c, 0, 58, 0
2, 282400, Note_on_c, 0, 61, 41
2, 282560, Note_on_c, 0, 61, 0
2, 282560, Note_on_c, 0, 66, 41
2, 282720, Note_on_c, 0, 66, 0
2, 282720, Note_on_c, 0, 70, 44
2, 282880, Note_on_c, 0, 61, 41
2, 283040, Note_on_c, 0, 61, 0
2, 283040, Note_on_c, 0, 66, 41
2, 283200, Note_on_c, 0, 66, 0
2, 283200, Note_on_c, 0, 65, 41
2, 283360, Note_on_c, 0, 65, 0
2, 283360, Note_on_c, 0, 61, 41
2, 283520, Note_on_c, 0, 61, 0
2, 283520, Note_on_c, 0, 65, 41
2, 283680, Note_on_c, 0, 65, 0
2, 283680, Note_on_c, 0, 70, 0
2, 283680, Note_on_c, 0, 63, 40
2, 283840, Note_on_c, 0, 63, 0
2, 283840, Note_on_c, 0, 70, 41
2, 284000, Note_on_c, 0, 70, 0
2, 284000, Note_on_c, 0, 68, 41
2, 284160, Note_on_c, 0, 68, 0
2, 284160, Note_on_c, 0, 66, 41
2, 284320, Note_on_c, 0, 66, 0
2, 284320, Note_on_c, 0, 65, 41
2, 284480, Note_on_c, 0, 65, 0
2, 284480, Note_on_c, 0, 63, 41
2, 284640, Note_on_c, 0, 63, 0
2, 284640, Note_on_c, 0, 61, 41
2, 284800, Note_on_c, 0, 61, 0
2, 284800, Note_on_c, 0, 59, 41
2, 284960, Note_on_c, 0, 59, 0
2, 284960, Note_on_c, 0, 58, 41
2, 285120, Note_on_c, 0, 58, 0
2, 285120, Note_on_c, 0, 56, 41
2, 285280, Note_on_c, 0, 56, 0
2, 285280, Note_on_c, 0, 59, 41
2, 285440, Note_on_c, 0, 59, 0
2, 285440, Note_on_c, 0, 65, 41
2, 285600, Note_on_c, 0, 65, 0
2, 285600, Note_on_c, 0, 68, 44
2, 285760, Note_on_c, 0, 59, 38
2, 285920, Note_on_c, 0, 59, 0
2, 285920, Note_on_c, 0, 65, 38
2, 286080, Note_on_c, 0, 65, 0
2, 286080, Note_on_c, 0, 63, 41
2, 286240, Note_on_c, 0, 63, 0
2, 286240, Note_on_c, 0, 59, 38
2, 286400, Note_on_c, 0, 59, 0
2, 286400, Note_on_c, 0, 63, 38
2, 286560, Note_on_c, 0, 63, 0
2, 286560, Note_on_c, 0, 68, 0
2, 286560, Note_on_c, 0, 62, 41
2, 286720, Note_on_c, 0, 62, 0
2, 286720, Note_on_c, 0, 68, 41
2, 286880, Note_on_c, 0, 68, 0
2, 286880, Note_on_c, 0, 66, 41
2, 287040, Note_on_c, 0, 66, 0
2, 287040, Note_on_c, 0, 65, 41
2, 287200, Note_on_c, 0, 65, 0
2, 287200, Note_on_c, 0, 63, 37
2, 287360, Note_on_c, 0, 63, 0
2, 287360, Note_on_c, 0, 62, 37
2, 287520, Note_on_c, 0, 62, 0
2, 287520, Note_on_c, 0, 59, 41
2, 287680, Note_on_c, 0, 59, 0
2, 287680, Note_on_c, 0, 58, 37
2, 287840, Note_on_c, 0, 58, 0
2, 287840, Note_on_c, 0, 56, 37
2, 288000, Note_on_c, 0, 56, 0
2, 288000, Note_on_c, 0, 54, 41
2, 288160, Note_on_c, 0, 54, 0
2, 288160, Note_on_c, 0, 58, 41
2, 288320, Note_on_c, 0, 58, 0
2, 288320, Note_on_c, 0, 63, 41
2, 288480, Note_on_c, 0, 63, 0
2, 288480, Note_on_c, 0, 66, 44
2, 288640, Note_on_c, 0, 58, 41
2, 288800, Note_on_c, 0, 58, 0
2, 288800, Note_on_c, 0, 63, 41
2, 288960, Note_on_c, 0, 63, 0
2, 288960, Note_on_c, 0, 61, 44
2, 289120, Note_on_c, 0, 61, 0
2, 289120, Note_on_c, 0, 58, 41
2, 289280, Note_on_c, 0, 58, 0
2, 289280, Note_on_c, 0, 61, 41
2, 289440, Note_on_c, 0, 61, 0
2, 289440, Note_on_c, 0, 66, 0
2, 289440, Note_on_c, 0, 59, 41
2, 289600, Note_on_c, 0, 59, 0
2, 289600, Note_on_c, 0, 63, 41
2, 289760, Note_on_c, 0, 63, 0
2, 289760, Note_on_c, 0, 68, 41
2, 289920, Note_on_c, 0, 68, 0
2, 289920, Note_on_c, 0, 71, 44
2, 290080, Note_on_c, 0, 63, 41
2, 290240, Note_on_c, 0, 63, 0
2, 290240, Note_on_c, 0, 68, 41
2, 290400, Note_on_c, 0, 68, 0
2, 290400, Note_on_c, 0, 66, 44
2, 290560, Note_on_c, 0, 66, 0
2, 290560, Note_on_c, 0, 63, 41
2, 290720, Note_on_c, 0, 63, 0
2, 290720, Note_on_c, 0, 66, 41
2, 290880, Note_on_c, 0, 66, 0
2, 290880, Note_on_c, 0, 71, 0
2, 290880, Note_on_c, 0, 71, 48
2, 291040, Note_on_c, 0, 65, 41
2, 291200, Note_on_c, 0, 65, 0
2, 291200, Note_on_c, 0, 62, 41
2, 291360, Note_on_c, 0, 62, 0
2, 291360, Note_on_c, 0, 71, 0
2, 291360, Note_on_c, 0, 70, 47
2, 291520, Note_on_c, 0, 65, 41
2, 291680, Note_on_c, 0, 65, 0
2, 291680, Note_on_c, 0, 62, 41
2, 291840, Note_on_c, 0, 62, 0
2, 291840, Note_on_c, 0, 70, 0
2, 291840, Note_on_c, 0, 74, 47
2, 292000, Note_on_c, 0, 68, 41
2, 292160, Note_on_c, 0, 68, 0
2, 292160, Note_on_c, 0, 65, 41
2, 292320, Note_on_c, 0, 65, 0
2, 292320, Note_on_c, 0, 74, 0
2, 292320, Note_on_c, 0, 75, 47
2, 292480, Note_on_c, 0, 75, 0
2, 292480, Note_on_c, 0, 78, 39
2, 292640, Note_on_c, 0, 78, 0
2, 292640, Note_on_c, 0, 77, 39
2, 292800, Note_on_c, 0, 77, 0
2, 292800, Note_on_c, 0, 75, 39
2, 292960, Note_on_c, 0, 75, 0
2, 292960, Note_on_c, 0, 73, 39
2, 293120, Note_on_c, 0, 73, 0
2, 293120, Note_on_c, 0, 71, 39
2, 293280, Note_on_c, 0, 71, 0
2, 293280, Note_on_c, 0, 70, 39
2, 293440, Note_on_c, 0, 70, 0
2, 293440, Note_on_c, 0, 68, 39
2, 293600, Note_on_c, 0, 68, 0
2, 293600, Note_on_c, 0, 65, 39
2, 293760, Note_on_c, 0, 65, 0
2, 293760, Note_on_c, 0, 66, 39
2, 293920, Note_on_c, 0, 66, 0
2, 293920, Note_on_c, 0, 70, 39
2, 294080, Note_on_c, 0, 70, 0
2, 294080, Note_on_c, 0, 68, 39
2, 294240, Note_on_c, 0, 68, 0
2, 294240, Note_on_c, 0, 66, 39
2, 294400, Note_on_c, 0, 66, 0
2, 294400, Note_on_c, 0, 65, 39
2, 294560, Note_on_c, 0, 65, 0
2, 294560, Note_on_c, 0, 63, 39
2, 294720, Note_on_c, 0, 63, 0
2, 294720, Note_on_c, 0, 61, 39
2, 294880, Note_on_c, 0, 61, 0
2, 294880, Note_on_c, 0, 59, 39
2, 295040, Note_on_c, 0, 59, 0
2, 295040, Note_on_c, 0, 58, 40
2, 295200, Note_on_c, 0, 58, 0
2, 295200, Note_on_c, 0, 59, 40
2, 295360, Note_on_c, 0, 59, 0
2, 295360, Note_on_c, 0, 62, 40
2, 295520, Note_on_c, 0, 62, 0
2, 295520, Note_on_c, 0, 65, 40
2, 295680, Note_on_c, 0, 65, 0
2, 295680, Note_on_c, 0, 71, 44
2, 295840, Note_on_c, 0, 65, 38
2, 296000, Note_on_c, 0, 65, 0
2, 296000, Note_on_c, 0, 62, 38
2, 296160, Note_on_c, 0, 62, 0
2, 296160, Note_on_c, 0, 65, 40
2, 296320, Note_on_c, 0, 65, 0
2, 296320, Note_on_c, 0, 61, 38
2, 296480, Note_on_c, 0, 61, 0
2, 296480, Note_on_c, 0, 59, 38
2, 296640, Note_on_c, 0, 59, 0
2, 296640, Note_on_c, 0, 71, 0
2, 296640, Note_on_c, 0, 58, 40
2, 296800, Note_on_c, 0, 58, 0
2, 296800, Note_on_c, 0, 70, 40
2, 296960, Note_on_c, 0, 70, 0
2, 296960, Note_on_c, 0, 68, 40
2, 297120, Note_on_c, 0, 68, 0
2, 297120, Note_on_c, 0, 66, 40
2, 297280, Note_on_c, 0, 66, 0
2, 297280, Note_on_c, 0, 65, 36
2, 297440, Note_on_c, 0, 65, 0
2, 297440, Note_on_c, 0, 63, 36
2, 297600, Note_on_c, 0, 63, 0
2, 297600, Note_on_c, 0, 61, 40
2, 297760, Note_on_c, 0, 61, 0
2, 297760, Note_on_c, 0, 59, 37
2, 297920, Note_on_c, 0, 59, 0
2, 297920, Note_on_c, 0, 58, 37
2, 298080, Note_on_c, 0, 58, 0
2, 298080, Note_on_c, 0, 59, 39
2, 298240, Note_on_c, 0, 59, 0
2, 298240, Note_on_c, 0, 62, 39
2, 298400, Note_on_c, 0, 62, 0
2, 298400, Note_on_c, 0, 65, 39
2, 298560, Note_on_c, 0, 65, 0
2, 298560, Note_on_c, 0, 71, 45
2, 298720, Note_on_c, 0, 65, 36
2, 298880, Note_on_c, 0, 65, 0
2, 298880, Note_on_c, 0, 62, 36
2, 299040, Note_on_c, 0, 62, 0
2, 299040, Note_on_c, 0, 65, 40
2, 299200, Note_on_c, 0, 65, 0
2, 299200, Note_on_c, 0, 61, 38
2, 299360, Note_on_c, 0, 61, 0
2, 299360, Note_on_c, 0, 59, 38
2, 299520, Note_on_c, 0, 59, 0
2, 299520, Note_on_c, 0, 71, 0
2, 299520, Note_on_c, 0, 61, 40
2, 299680, Note_on_c, 0, 61, 0
2, 299680, Note_on_c, 0, 66, 40
2, 299840, Note_on_c, 0, 66, 0
2, 299840, Note_on_c, 0, 70, 40
2, 300000, Note_on_c, 0, 70, 0
2, 300000, Note_on_c, 0, 73, 45
2, 300160, Note_on_c, 0, 70, 37
2, 300320, Note_on_c, 0, 70, 0
2, 300320, Note_on_c, 0, 66, 37
2, 300480, Note_on_c, 0, 66, 0
2, 300480, Note_on_c, 0, 65, 40
2, 300640, Note_on_c, 0, 65, 0
2, 300640, Note_on_c, 0, 66, 38
2, 300800, Note_on_c, 0, 66, 0
2, 300800, Note_on_c, 0, 64, 38
2, 300960, Note_on_c, 0, 64, 0
2, 300960, Note_on_c, 0, 73, 0
2, 300960, Note_on_c, 0, 63, 39
2, 301120, Note_on_c, 0, 63, 0
2, 301120, Note_on_c, 0, 68, 39
2, 301280, Note_on_c, 0, 68, 0
2, 301280, Note_on_c, 0, 71, 39
2, 301440, Note_on_c, 0, 71, 0
2, 301440, Note_on_c, 0, 75, 46
2, 301600, Note_on_c, 0, 71, 37
2, 301760, Note_on_c, 0, 71, 0
2, 301760, Note_on_c, 0, 68, 37
2, 301920, Note_on_c, 0, 68, 0
2, 301920, Note_on_c, 0, 67, 40
2, 302080, Note_on_c, 0, 67, 0
2, 302080, Note_on_c, 0, 68, 37
2, 302240, Note_on_c, 0, 68, 0
2, 302240, Note_on_c, 0, 66, 37
2, 302400, Note_on_c, 0, 66, 0
2, 302400, Note_on_c, 0, 75, 0
2, 302400, Note_on_c, 0, 65, 40
2, 302560, Note_on_c, 0, 65, 0
2, 302560, Note_on_c, 0, 66, 40
2, 302720, Note_on_c, 0, 66, 0
2, 302720, Note_on_c, 0, 67, 40
2, 302880, Note_on_c, 0, 67, 0
2, 302880, Note_on_c, 0, 68, 40
2, 303040, Note_on_c, 0, 68, 0
2, 303040, Note_on_c, 0, 70, 40
2, 303200, Note_on_c, 0, 70, 0
2, 303200, Note_on_c, 0, 71, 40
2, 303360, Note_on_c, 0, 71, 0
2, 303360, Note_on_c, 0, 73, 40
2, 303520, Note_on_c, 0, 73, 0
2, 303520, Note_on_c, 0, 75, 40
2, 303680, Note_on_c, 0, 75, 0
2, 303680, Note_on_c, 0, 77, 40
2, 303840, Note_on_c, 0, 77, 0
2, 303840, Note_on_c, 0, 78, 39
2, 304000, Note_on_c, 0, 78, 0
2, 304000, Note_on_c, 0, 82, 39
2, 304160, Note_on_c, 0, 82, 0
2, 304160, Note_on_c, 0, 80, 40
2, 304320, Note_on_c, 0, 80, 0
2, 304320, Note_on_c, 0, 78, 40
2, 304480, Note_on_c, 0, 78, 0
2, 304480, Note_on_c, 0, 77, 40
2, 304640, Note_on_c, 0, 77, 0
2, 304640, Note_on_c, 0, 75, 40
2, 304800, Note_on_c, 0, 75, 0
2, 304800, Note_on_c, 0, 73, 40
2, 304960, Note_on_c, 0, 73, 0
2, 304960, Note_on_c, 0, 71, 40
2, 305120, Note_on_c, 0, 71, 0
2, 305120, Note_on_c, 0, 70, 40
2, 305280, Note_on_c, 0, 70, 0
2, 305280, Note_on_c, 0, 68, 40
2, 305440, Note_on_c, 0, 68, 0
2, 305440, Note_on_c, 0, 71, 40
2, 305600, Note_on_c, 0, 71, 0
2, 305600, Note_on_c, 0, 70, 40
2, 305760, Note_on_c, 0, 70, 0
2, 305760, Note_on_c, 0, 68, 38
2, 305920, Note_on_c, 0, 68, 0
2, 305920, Note_on_c, 0, 66, 37
2, 306080, Note_on_c, 0, 66, 0
2, 306080, Note_on_c, 0, 65, 35
2, 306240, Note_on_c, 0, 65, 0
2, 306240, Note_on_c, 0, 63, 40
2, 306400, Note_on_c, 0, 63, 0
2, 306400, Note_on_c, 0, 62, 33
2, 306560, Note_on_c, 0, 62, 0
2, 306560, Note_on_c, 0, 65, 33
2, 306720, Note_on_c, 0, 65, 0
2, 306720, Note_on_c, 0, 68, 33
2, 306880, Note_on_c, 0, 68, 0
2, 306880, Note_on_c, 0, 71, 33
2, 307040, Note_on_c, 0, 71, 0
2, 307040, Note_on_c, 0, 70, 33
2, 307200, Note_on_c, 0, 70, 0
2, 307200, Note_on_c, 0, 68, 33
2, 307360, Note_on_c, 0, 68, 0
2, 307360, Note_on_c, 0, 66, 33
2, 307520, Note_on_c, 0, 66, 0
2, 307520, Note_on_c, 0, 65, 33
2, 307680, Note_on_c, 0, 65, 0
2, 307680, Note_on_c, 0, 63, 40
2, 307840, Note_on_c, 0, 63, 0
2, 307840, Note_on_c, 0, 62, 33
2, 308000, Note_on_c, 0, 62, 0
2, 308000, Note_on_c, 0, 65, 33
2, 308160, Note_on_c, 0, 65, 0
2, 308160, Note_on_c, 0, 68, 32
2, 308320, Note_on_c, 0, 68, 0
2, 308320, Note_on_c, 0, 71, 32
2, 308480, Note_on_c, 0, 71, 0
2, 308480, Note_on_c, 0, 70, 32
2, 308640, Note_on_c, 0, 70, 0
2, 308640, Note_on_c, 0, 68, 32
2, 308800, Note_on_c, 0, 68, 0
2, 308800, Note_on_c, 0, 66, 32
2, 308960, Note_on_c, 0, 66, 0
2, 308960, Note_on_c, 0, 65, 32
2, 309120, Note_on_c, 0, 65, 0
2, 309120, Note_on_c, 0, 63, 39
2, 309280, Note_on_c, 0, 63, 0
2, 309280, Note_on_c, 0, 62, 32
2, 309440, Note_on_c, 0, 62, 0
2, 309440, Note_on_c, 0, 65, 32
2, 309600, Note_on_c, 0, 65, 0
2, 309600, Note_on_c, 0, 68, 32
2, 309760, Note_on_c, 0, 68, 0
2, 309760, Note_on_c, 0, 71, 34
2, 309920, Note_on_c, 0, 71, 0
2, 309920, Note_on_c, 0, 74, 36
2, 310080, Note_on_c, 0, 74, 0
2, 310080, Note_on_c, 0, 71, 39
2, 310240, Note_on_c, 0, 71, 0
2, 310240, Note_on_c, 0, 74, 40
2, 310400, Note_on_c, 0, 74, 0
2, 310400, Note_on_c, 0, 77, 41
2, 310560, Note_on_c, 0, 77, 0
2, 310560, Note_on_c, 0, 74, 43
2, 310720, Note_on_c, 0, 74, 0
2, 310720, Note_on_c, 0, 77, 45
2, 310880, Note_on_c, 0, 77, 0
2, 310880, Note_on_c, 0, 78, 46
2, 311040, Note_on_c, 0, 78, 0
2, 311040, Note_on_c, 0, 80, 46
2, 311200, Note_on_c, 0, 80, 0
2, 311200, Note_on_c, 0, 83, 48
2, 311360, Note_on_c, 0, 83, 0
2, 311360, Note_on_c, 0, 82, 45
2, 311520, Note_on_c, 0, 82, 0
2, 311520, Note_on_c, 0, 80, 48
2, 311680, Note_on_c, 0, 80, 0
2, 311680, Note_on_c, 0, 78, 46
2, 311840, Note_on_c, 0, 78, 0
2, 311840, Note_on_c, 0, 77, 46
2, 312000, Note_on_c, 0, 77, 0
2, 312000, Note_on_c, 0, 75, 53
2, 312160, Note_on_c, 0, 75, 0
2, 312160, Note_on_c, 0, 74, 47
2, 312320, Note_on_c, 0, 74, 0
2, 312320, Note_on_c, 0, 77, 47
2, 312480, Note_on_c, 0, 77, 0
2, 312480, Note_on_c, 0, 80, 47
2, 312640, Note_on_c, 0, 80, 0
2, 312640, Note_on_c, 0, 83, 44
2, 312800, Note_on_c, 0, 83, 0
2, 312800, Note_on_c, 0, 82, 44
2, 312960, Note_on_c, 0, 82, 0
2, 312960, Note_on_c, 0, 80, 47
2, 313120, Note_on_c, 0, 80, 0
2, 313120, Note_on_c, 0, 78, 44
2, 313280, Note_on_c, 0, 78, 0
2, 313280, Note_on_c, 0, 77, 44
2, 313440, Note_on_c, 0, 77, 0
2, 313440, Note_on_c, 0, 75, 52
2, 313600, Note_on_c, 0, 75, 0
2, 313600, Note_on_c, 0, 74, 48
2, 313760, Note_on_c, 0, 74, 0
2, 313760, Note_on_c, 0, 77, 48
2, 313920, Note_on_c, 0, 77, 0
2, 313920, Note_on_c, 0, 80, 48
2, 314080, Note_on_c, 0, 80, 0
2, 314080, Note_on_c, 0, 83, 48
2, 314240, Note_on_c, 0, 83, 0
2, 314240, Note_on_c, 0, 80, 51
2, 314400, Note_on_c, 0, 80, 0
2, 314400, Note_on_c, 0, 83, 53
2, 314560, Note_on_c, 0, 83, 0
2, 314560, Note_on_c, 0, 80, 54
2, 314720, Note_on_c, 0, 80, 0
2, 314720, Note_on_c, 0, 83, 56
2, 314880, Note_on_c, 0, 83, 0
2, 314880, Note_on_c, 0, 80, 57
2, 315040, Note_on_c, 0, 80, 0
2, 315040, Note_on_c, 0, 83, 60
2, 315200, Note_on_c, 0, 83, 0
2, 315200, Note_on_c, 0, 80, 61
2, 315360, Note_on_c, 0, 80, 0
2, 315360, Note_on_c, 0, 82, 62
2, 315520, Note_on_c, 0, 82, 0
2, 315520, Note_on_c, 0, 80, 58
2, 315680, Note_on_c, 0, 80, 0
2, 315680, Note_on_c, 0, 82, 54
2, 315840, Note_on_c, 0, 82, 0
2, 315840, Note_on_c, 0, 80, 50
2, 316000, Note_on_c, 0, 80, 0
2, 316000, Note_on_c, 0, 82, 46
2, 316160, Note_on_c, 0, 82, 0
2, 316160, Note_on_c, 0, 80, 42
2, 316320, Note_on_c, 0, 80, 0
2, 316320, Note_on_c, 0, 82, 38
2, 316480, Note_on_c, 0, 82, 0
2, 316480, Note_on_c, 0, 80, 34
2, 316640, Note_on_c, 0, 80, 0
2, 316640, Note_on_c, 0, 82, 30
2, 316800, Note_on_c, 0, 82, 0
2, 316800, Note_on_c, 0, 79, 48
2, 316960, Note_on_c, 0, 79, 0
2, 316960, Note_on_c, 0, 82, 44
2, 317120, Note_on_c, 0, 82, 0
2, 317120, Note_on_c, 0, 80, 40
2, 317280, Note_on_c, 0, 80, 0
2, 317280, Note_on_c, 0, 79, 48
2, 317440, Note_on_c, 0, 79, 0
2, 317440, Note_on_c, 0, 77, 45
2, 317600, Note_on_c, 0, 77, 0
2, 317600, Note_on_c, 0, 75, 41
2, 317760, Note_on_c, 0, 75, 0
2, 317760, Note_on_c, 0, 74, 48
2, 317920, Note_on_c, 0, 74, 0
2, 317920, Note_on_c, 0, 72, 45
2, 318080, Note_on_c, 0, 72, 0
2, 318080, Note_on_c, 0, 70, 41
2, 318240, Note_on_c, 0, 70, 0
2, 318240, Note_on_c, 0, 68, 48
2, 318400, Note_on_c, 0, 68, 0
2, 318400, Note_on_c, 0, 67, 44
2, 318560, Note_on_c, 0, 67, 0
2, 318560, Note_on_c, 0, 65, 41
2, 318720, Note_on_c, 0, 65, 0
2, 318720, Note_on_c, 0, 63, 48
2, 318880, Note_on_c, 0, 63, 0
2, 318880, Note_on_c, 0, 62, 45
2, 319040, Note_on_c, 0, 62, 0
2, 319040, Note_on_c, 0, 60, 42
2, 319200, Note_on_c, 0, 60, 0
2, 319200, Note_on_c, 0, 58, 48
2, 319360, Note_on_c, 0, 60, 44
2, 319520, Note_on_c, 0, 60, 0
2, 319520, Note_on_c, 0, 62, 42
2, 319680, Note_on_c, 0, 62, 0
2, 319680, Note_on_c, 0, 58, 0
2, 319680, Note_on_c, 0, 63, 48
2, 319840, Note_on_c, 0, 63, 0
2, 319840, Note_on_c, 0, 62, 44
2, 320000, Note_on_c, 0, 62, 0
2, 320000, Note_on_c, 0, 63, 44
2, 320160, Note_on_c, 0, 63, 0
2, 320160, Note_on_c, 0, 64, 51
2, 320320, Note_on_c, 0, 64, 0
2, 320320, Note_on_c, 0, 63, 48
2, 320480, Note_on_c, 0, 63, 0
2, 320480, Note_on_c, 0, 64, 48
2, 320640, Note_on_c, 0, 64, 0
2, 320640, Note_on_c, 0, 65, 55
2, 320800, Note_on_c, 0, 65, 0
2, 320800, Note_on_c, 0, 64, 52
2, 320960, Note_on_c, 0, 64, 0
2, 320960, Note_on_c, 0, 65, 52
2, 321120, Note_on_c, 0, 65, 0
2, 321120, Note_on_c, 0, 66, 58
2, 321280, Note_on_c, 0, 66, 0
2, 321280, Note_on_c, 0, 65, 52
2, 321440, Note_on_c, 0, 65, 0
2, 321440, Note_on_c, 0, 66, 48
2, 321600, Note_on_c, 0, 66, 0
2, 321600, Note_on_c, 0, 67, 56
2, 321760, Note_on_c, 0, 67, 0
2, 321760, Note_on_c, 0, 66, 53
2, 321920, Note_on_c, 0, 66, 0
2, 321920, Note_on_c, 0, 67, 48
2, 322080, Note_on_c, 0, 67, 0
2, 322080, Note_on_c, 0, 68, 48
2, 322240, Note_on_c, 0, 68, 0
2, 322240, Note_on_c, 0, 67, 46
2, 322400, Note_on_c, 0, 67, 0
2, 322400, Note_on_c, 0, 68, 46
2, 322560, Note_on_c, 0, 68, 0
2, 322560, Note_on_c, 0, 67, 48
2, 322720, Note_on_c, 0, 67, 0
2, 322720, Note_on_c, 0, 70, 45
2, 322880, Note_on_c, 0, 70, 0
2, 322880, Note_on_c, 0, 68, 45
2, 323040, Note_on_c, 0, 68, 0
2, 323040, Note_on_c, 0, 67, 48
2, 323200, Note_on_c, 0, 67, 0
2, 323200, Note_on_c, 0, 68, 45
2, 323360, Note_on_c, 0, 68, 0
2, 323360, Note_on_c, 0, 70, 45
2, 323520, Note_on_c, 0, 70, 0
2, 323520, Note_on_c, 0, 72, 48
2, 323680, Note_on_c, 0, 72, 0
2, 323680, Note_on_c, 0, 74, 45
2, 323840, Note_on_c, 0, 74, 0
2, 323840, Note_on_c, 0, 75, 45
2, 324000, Note_on_c, 0, 75, 0
2, 324000, Note_on_c, 0, 77, 48
2, 324160, Note_on_c, 0, 77, 0
2, 324160, Note_on_c, 0, 84, 50
2, 324320, Note_on_c, 0, 84, 0
2, 324320, Note_on_c, 0, 82, 45
2, 324480, Note_on_c, 0, 82, 0
2, 324480, Note_on_c, 0, 80, 49
2, 324640, Note_on_c, 0, 80, 0
2, 324640, Note_on_c, 0, 79, 46
2, 324800, Note_on_c, 0, 79, 0
2, 324800, Note_on_c, 0, 77, 46
2, 324960, Note_on_c, 0, 77, 0
2, 324960, Note_on_c, 0, 75, 48
2, 325120, Note_on_c, 0, 75, 0
2, 325120, Note_on_c, 0, 74, 45
2, 325280, Note_on_c, 0, 74, 0
2, 325280, Note_on_c, 0, 72, 45
2, 325440, Note_on_c, 0, 72, 0
2, 325440, Note_on_c, 0, 74, 48
2, 325600, Note_on_c, 0, 74, 0
2, 325600, Note_on_c, 0, 77, 45
2, 325760, Note_on_c, 0, 77, 0
2, 325760, Note_on_c, 0, 75, 45
2, 325920, Note_on_c, 0, 75, 0
2, 325920, Note_on_c, 0, 74, 49
2, 326080, Note_on_c, 0, 74, 0
2, 326080, Note_on_c, 0, 75, 47
2, 326240, Note_on_c, 0, 75, 0
2, 326240, Note_on_c, 0, 77, 47
2, 326400, Note_on_c, 0, 77, 0
2, 326400, Note_on_c, 0, 79, 53
2, 326560, Note_on_c, 0, 79, 0
2, 326560, Note_on_c, 0, 80, 50
2, 326720, Note_on_c, 0, 80, 0
2, 326720, Note_on_c, 0, 82, 50
2, 326880, Note_on_c, 0, 82, 0
2, 326880, Note_on_c, 0, 75, 55
2, 327040, Note_on_c, 0, 75, 0
2, 327040, Note_on_c, 0, 77, 52
2, 327200, Note_on_c, 0, 77, 0
2, 327200, Note_on_c, 0, 79, 52
2, 327360, Note_on_c, 0, 79, 0
2, 327360, Note_on_c, 0, 80, 58
2, 327520, Note_on_c, 0, 80, 0
2, 327520, Note_on_c, 0, 82, 54
2, 327680, Note_on_c, 0, 82, 0
2, 327680, Note_on_c, 0, 84, 54
2, 327840, Note_on_c, 0, 84, 0
2, 327840, Note_on_c, 0, 86, 61
2, 328000, Note_on_c, 0, 86, 0
2, 328000, Note_on_c, 0, 87, 59
2, 328160, Note_on_c, 0, 87, 0
2, 328160, Note_on_c, 0, 89, 59
2, 328320, Note_on_c, 0, 89, 0
2, 328320, Note_on_c, 0, 91, 64
2, 328480, Note_on_c, 0, 91, 0
2, 328480, Note_on_c, 0, 94, 62
2, 328640, Note_on_c, 0, 94, 0
2, 328640, Note_on_c, 0, 92, 58
2, 328800, Note_on_c, 0, 92, 0
2, 328800, Note_on_c, 0, 91, 64
2, 328960, Note_on_c, 0, 91, 0
2, 328960, Note_on_c, 0, 89, 62
2, 329120, Note_on_c, 0, 89, 0
2, 329120, Note_on_c, 0, 87, 58
2, 329280, Note_on_c, 0, 87, 0
2, 329280, Note_on_c, 0, 86, 62
2, 329440, Note_on_c, 0, 86, 0
2, 329440, Note_on_c, 0, 84, 56
2, 329600, Note_on_c, 0, 84, 0
2, 329600, Note_on_c, 0, 82, 56
2, 329760, Note_on_c, 0, 82, 0
2, 329760, Note_on_c, 0, 80, 64
2, 329920, Note_on_c, 0, 80, 0
2, 329920, Note_on_c, 0, 79, 63
2, 330080, Note_on_c, 0, 79, 0
2, 330080, Note_on_c, 0, 77, 61
2, 330240, Note_on_c, 0, 77, 0
2, 330240, Note_on_c, 0, 75, 59
2, 330400, Note_on_c, 0, 75, 0
2, 330400, Note_on_c, 0, 74, 57
2, 330560, Note_on_c, 0, 74, 0
2, 330560, Note_on_c, 0, 72, 55
2, 330720, Note_on_c, 0, 72, 0
2, 330720, Note_on_c, 0, 70, 54
2, 330880, Note_on_c, 0, 70, 0
2, 330880, Note_on_c, 0, 72, 52
2, 331040, Note_on_c, 0, 72, 0
2, 331040, Note_on_c, 0, 74, 50
2, 331200, Note_on_c, 0, 74, 0
2, 331200, Note_on_c, 0, 75, 48
2, 331360, Note_on_c, 0, 75, 0
2, 331360, Note_on_c, 0, 74, 48
2, 331520, Note_on_c, 0, 74, 0
2, 331520, Note_on_c, 0, 75, 48
2, 331680, Note_on_c, 0, 75, 0
2, 331680, Note_on_c, 0, 76, 48
2, 331840, Note_on_c, 0, 76, 0
2, 331840, Note_on_c, 0, 75, 49
2, 332000, Note_on_c, 0, 75, 0
2, 332000, Note_on_c, 0, 76, 51
2, 332160, Note_on_c, 0, 76, 0
2, 332160, Note_on_c, 0, 77, 53
2, 332320, Note_on_c, 0, 77, 0
2, 332320, Note_on_c, 0, 76, 56
2, 332480, Note_on_c, 0, 76, 0
2, 332480, Note_on_c, 0, 77, 58
2, 332640, Note_on_c, 0, 77, 0
2, 332640, Note_on_c, 0, 78, 62
2, 332800, Note_on_c, 0, 78, 0
2, 332800, Note_on_c, 0, 77, 61
2, 332960, Note_on_c, 0, 77, 0
2, 332960, Note_on_c, 0, 78, 58
2, 333120, Note_on_c, 0, 78, 0
2, 333120, Note_on_c, 0, 79, 56
2, 333280, Note_on_c, 0, 79, 0
2, 333280, Note_on_c, 0, 78, 54
2, 333440, Note_on_c, 0, 78, 0
2, 333440, Note_on_c, 0, 79, 51
2, 333600, Note_on_c, 0, 79, 0
2, 333600, Note_on_c, 0, 80, 48
2, 333760, Note_on_c, 0, 80, 0
2, 333760, Note_on_c, 0, 79, 48
2, 333920, Note_on_c, 0, 79, 0
2, 333920, Note_on_c, 0, 80, 48
2, 334080, Note_on_c, 0, 80, 0
2, 334080, Note_on_c, 0, 79, 48
2, 334240, Note_on_c, 0, 79, 0
2, 334240, Note_on_c, 0, 78, 48
2, 334400, Note_on_c, 0, 78, 0
2, 334400, Note_on_c, 0, 79, 49
2, 334560, Note_on_c, 0, 79, 0
2, 334560, Note_on_c, 0, 80, 50
2, 334720, Note_on_c, 0, 80, 0
2, 334720, Note_on_c, 0, 79, 49
2, 334880, Note_on_c, 0, 79, 0
2, 334880, Note_on_c, 0, 80, 49
2, 335040, Note_on_c, 0, 80, 0
2, 335040, Note_on_c, 0, 82, 53
2, 335200, Note_on_c, 0, 82, 0
2, 335200, Note_on_c, 0, 80, 51
2, 335360, Note_on_c, 0, 80, 0
2, 335360, Note_on_c, 0, 82, 51
2, 335520, Note_on_c, 0, 82, 0
2, 335520, Note_on_c, 0, 80, 56
2, 335680, Note_on_c, 0, 80, 0
2, 335680, Note_on_c, 0, 79, 52
2, 335840, Note_on_c, 0, 79, 0
2, 335840, Note_on_c, 0, 80, 52
2, 336000, Note_on_c, 0, 80, 0
2, 336000, Note_on_c, 0, 82, 58
2, 336160, Note_on_c, 0, 82, 0
2, 336160, Note_on_c, 0, 80, 54
2, 336320, Note_on_c, 0, 80, 0
2, 336320, Note_on_c, 0, 82, 51
2, 336480, Note_on_c, 0, 82, 0
2, 336480, Note_on_c, 0, 84, 61
2, 336640, Note_on_c, 0, 84, 0
2, 336640, Note_on_c, 0, 83, 57
2, 336800, Note_on_c, 0, 83, 0
2, 336800, Note_on_c, 0, 84, 53
2, 336960, Note_on_c, 0, 84, 0
2, 336960, Note_on_c, 0, 86, 64
2, 337120, Note_on_c, 0, 86, 0
2, 337120, Note_on_c, 0, 85, 60
2, 337280, Note_on_c, 0, 85, 0
2, 337280, Note_on_c, 0, 86, 57
2, 337440, Note_on_c, 0, 86, 0
2, 337440, Note_on_c, 0, 88, 66
2, 337600, Note_on_c, 0, 88, 0
2, 337600, Note_on_c, 0, 86, 63
2, 337760, Note_on_c, 0, 86, 0
2, 337760, Note_on_c, 0, 88, 60
2, 337920, Note_on_c, 0, 88, 0
2, 337920, Note_on_c, 0, 90, 69
2, 338080, Note_on_c, 0, 90, 0
2, 338080, Note_on_c, 0, 88, 65
2, 338240, Note_on_c, 0, 88, 0
2, 338240, Note_on_c, 0, 90, 63
2, 338400, Note_on_c, 0, 90, 0
2, 338400, Note_on_c, 0, 91, 72
2, 338560, Note_on_c, 0, 91, 0
2, 338560, Note_on_c, 0, 90, 69
2, 338720, Note_on_c, 0, 90, 0
2, 338720, Note_on_c, 0, 91, 63
2, 338880, Note_on_c, 0, 91, 0
2, 338880, Note_on_c, 0, 93, 74
2, 339040, Note_on_c, 0, 93, 0
2, 339040, Note_on_c, 0, 91, 71
2, 339200, Note_on_c, 0, 91, 0
2, 339200, Note_on_c, 0, 93, 66
2, 339360, Note_on_c, 0, 93, 0
2, 339360, Note_on_c, 0, 95, 77
2, 339520, Note_on_c, 0, 95, 0
2, 339520, Note_on_c, 0, 93, 71
2, 339680, Note_on_c, 0, 93, 0
2, 339680, Note_on_c, 0, 95, 65
2, 339840, Note_on_c, 0, 95, 0
2, 339840, Note_on_c, 0, 96, 81
2, 340000, Note_on_c, 0, 96, 0
2, 340000, Note_on_c, 0, 95, 75
2, 340160, Note_on_c, 0, 95, 0
2, 340160, Note_on_c, 0, 96, 69
2, 340320, Note_on_c, 0, 96, 0
2, 340320, Note_on_c, 0, 98, 81
2, 340480, Note_on_c, 0, 98, 0
2, 340480, Note_on_c, 0, 96, 76
2, 340640, Note_on_c, 0, 96, 0
2, 340640, Note_on_c, 0, 98, 71
2, 340800, Note_on_c, 0, 98, 0
2, 340800, Note_on_c, 0, 100, 81
2, 340960, Note_on_c, 0, 100, 0
2, 340960, Note_on_c, 0, 98, 76
2, 341120, Note_on_c, 0, 98, 0
2, 341120, Note_on_c, 0, 100, 70
2, 341280, Note_on_c, 0, 100, 0
2, 341280, Note_on_c, 0, 101, 81
2, 341440, Note_on_c, 0, 101, 0
2, 341440, Note_on_c, 0, 99, 75
2, 341600, Note_on_c, 0, 99, 0
2, 341600, Note_on_c, 0, 97, 70
2, 341760, Note_on_c, 0, 97, 0
2, 341760, Note_on_c, 0, 96, 81
2, 341920, Note_on_c, 0, 96, 0
2, 341920, Note_on_c, 0, 94, 76
2, 342080, Note_on_c, 0, 94, 0
2, 342080, Note_on_c, 0, 92, 70
2, 342240, Note_on_c, 0, 92, 0
2, 342240, Note_on_c, 0, 91, 81
2, 342400, Note_on_c, 0, 91, 0
2, 342400, Note_on_c, 0, 89, 76
2, 342560, Note_on_c, 0, 89, 0
2, 342560, Note_on_c, 0, 87, 72
2, 342720, Note_on_c, 0, 87, 0
2, 342720, Note_on_c, 0, 86, 81
2, 342880, Note_on_c, 0, 86, 0
2, 342880, Note_on_c, 0, 84, 76
2, 343040, Note_on_c, 0, 84, 0
2, 343040, Note_on_c, 0, 82, 70
2, 343200, Note_on_c, 0, 82, 0
2, 343200, Note_on_c, 0, 81, 81
2, 343360, Note_on_c, 0, 81, 0
2, 343360, Note_on_c, 0, 82, 76
2, 343520, Note_on_c, 0, 82, 0
2, 343520, Note_on_c, 0, 84, 72
2, 343680, Note_on_c, 0, 84, 0
2, 343680, Note_on_c, 0, 86, 81
2, 343840, Note_on_c, 0, 86, 0
2, 343840, Note_on_c, 0, 87, 76
2, 344000, Note_on_c, 0, 87, 0
2, 344000, Note_on_c, 0, 89, 72
2, 344160, Note_on_c, 0, 89, 0
2, 344160, Note_on_c, 0, 90, 89
2, 344320, Note_on_c, 0, 90, 0
2, 344320, Note_on_c, 0, 94, 77
2, 344480, Note_on_c, 0, 94, 0
2, 344480, Note_on_c, 0, 92, 72
2, 344640, Note_on_c, 0, 92, 0
2, 344640, Note_on_c, 0, 90, 81
2, 344800, Note_on_c, 0, 90, 0
2, 344800, Note_on_c, 0, 89, 78
2, 344960, Note_on_c, 0, 89, 0
2, 344960, Note_on_c, 0, 87, 73
2, 345120, Note_on_c, 0, 87, 0
2, 345120, Note_on_c, 0, 85, 81
2, 345280, Note_on_c, 0, 85, 0
2, 345280, Note_on_c, 0, 83, 77
2, 345440, Note_on_c, 0, 83, 0
2, 345440, Note_on_c, 0, 82, 73
2, 345600, Note_on_c, 0, 82, 0
2, 345600, Note_on_c, 0, 83, 89
2, 345760, Note_on_c, 0, 83, 0
2, 345760, Note_on_c, 0, 87, 77
2, 345920, Note_on_c, 0, 87, 0
2, 345920, Note_on_c, 0, 85, 75
2, 346080, Note_on_c, 0, 85, 0
2, 346080, Note_on_c, 0, 83, 81
2, 346240, Note_on_c, 0, 83, 0
2, 346240, Note_on_c, 0, 82, 77
2, 346400, Note_on_c, 0, 82, 0
2, 346400, Note_on_c, 0, 80, 74
2, 346560, Note_on_c, 0, 80, 0
2, 346560, Note_on_c, 0, 78, 81
2, 346720, Note_on_c, 0, 78, 0
2, 346720, Note_on_c, 0, 77, 77
2, 346880, Note_on_c, 0, 77, 0
2, 346880, Note_on_c, 0, 75, 73
2, 347040, Note_on_c, 0, 75, 0
2, 347040, Note_on_c, 0, 74, 89
2, 347200, Note_on_c, 0, 74, 0
2, 347200, Note_on_c, 0, 77, 76
2, 347360, Note_on_c, 0, 77, 0
2, 347360, Note_on_c, 0, 75, 72
2, 347520, Note_on_c, 0, 75, 0
2, 347520, Note_on_c, 0, 74, 81
2, 347680, Note_on_c, 0, 74, 0
2, 347680, Note_on_c, 0, 71, 77
2, 347840, Note_on_c, 0, 71, 0
2, 347840, Note_on_c, 0, 70, 74
2, 348000, Note_on_c, 0, 70, 0
2, 348000, Note_on_c, 0, 68, 81
2, 348160, Note_on_c, 0, 68, 0
2, 348160, Note_on_c, 0, 66, 76
2, 348320, Note_on_c, 0, 66, 0
2, 348320, Note_on_c, 0, 65, 73
2, 348480, Note_on_c, 0, 65, 0
2, 348480, Note_on_c, 0, 78, 89
2, 348640, Note_on_c, 0, 78, 0
2, 348640, Note_on_c, 0, 82, 76
2, 348800, Note_on_c, 0, 82, 0
2, 348800, Note_on_c, 0, 80, 73
2, 348960, Note_on_c, 0, 80, 0
2, 348960, Note_on_c, 0, 78, 81
2, 349120, Note_on_c, 0, 78, 0
2, 349120, Note_on_c, 0, 77, 75
2, 349280, Note_on_c, 0, 77, 0
2, 349280, Note_on_c, 0, 75, 73
2, 349440, Note_on_c, 0, 75, 0
2, 349440, Note_on_c, 0, 73, 81
2, 349600, Note_on_c, 0, 73, 0
2, 349600, Note_on_c, 0, 71, 77
2, 349760, Note_on_c, 0, 71, 0
2, 349760, Note_on_c, 0, 70, 72
2, 349920, Note_on_c, 0, 70, 0
2, 349920, Note_on_c, 0, 71, 89
2, 350080, Note_on_c, 0, 71, 0
2, 350080, Note_on_c, 0, 75, 77
2, 350240, Note_on_c, 0, 75, 0
2, 350240, Note_on_c, 0, 73, 73
2, 350400, Note_on_c, 0, 73, 0
2, 350400, Note_on_c, 0, 71, 81
2, 350560, Note_on_c, 0, 71, 0
2, 350560, Note_on_c, 0, 70, 77
2, 350720, Note_on_c, 0, 70, 0
2, 350720, Note_on_c, 0, 68, 73
2, 350880, Note_on_c, 0, 68, 0
2, 350880, Note_on_c, 0, 66, 81
2, 351040, Note_on_c, 0, 66, 0
2, 351040, Note_on_c, 0, 65, 77
2, 351200, Note_on_c, 0, 65, 0
2, 351200, Note_on_c, 0, 63, 73
2, 351360, Note_on_c, 0, 63, 0
2, 351360, Note_on_c, 0, 62, 89
2, 351520, Note_on_c, 0, 62, 0
2, 351520, Note_on_c, 0, 65, 77
2, 351680, Note_on_c, 0, 65, 0
2, 351680, Note_on_c, 0, 63, 72
2, 351840, Note_on_c, 0, 63, 0
2, 351840, Note_on_c, 0, 62, 81
2, 352000, Note_on_c, 0, 62, 0
2, 352000, Note_on_c, 0, 59, 77
2, 352160, Note_on_c, 0, 59, 0
2, 352160, Note_on_c, 0, 58, 72
2, 352320, Note_on_c, 0, 58, 0
2, 352320, Note_on_c, 0, 56, 81
2, 352480, Note_on_c, 0, 56, 0
2, 352480, Note_on_c, 0, 54, 77
2, 352640, Note_on_c, 0, 54, 0
2, 352640, Note_on_c, 0, 53, 73
2, 352800, Note_on_c, 0, 53, 0
2, 352800, Note_on_c, 0, 51, 81
2, 352960, Note_on_c, 0, 51, 0
2, 352960, Note_on_c, 0, 53, 77
2, 353120, Note_on_c, 0, 53, 0
2, 353120, Note_on_c, 0, 54, 72
2, 353280, Note_on_c, 0, 54, 0
2, 353280, Note_on_c, 0, 56, 89
2, 353440, Note_on_c, 0, 56, 0
2, 353440, Note_on_c, 0, 59, 78
2, 353600, Note_on_c, 0, 59, 0
2, 353600, Note_on_c, 0, 58, 74
2, 353760, Note_on_c, 0, 58, 0
2, 353760, Note_on_c, 0, 56, 81
2, 353920, Note_on_c, 0, 56, 0
2, 353920, Note_on_c, 0, 54, 76
2, 354080, Note_on_c, 0, 54, 0
2, 354080, Note_on_c, 0, 53, 72
2, 354240, Note_on_c, 0, 53, 0
2, 354240, Note_on_c, 0, 51, 81
2, 354400, Note_on_c, 0, 51, 0
2, 354400, Note_on_c, 0, 53, 76
2, 354560, Note_on_c, 0, 53, 0
2, 354560, Note_on_c, 0, 54, 72
2, 354720, Note_on_c, 0, 54, 0
2, 354720, Note_on_c, 0, 56, 89
2, 354880, Note_on_c, 0, 56, 0
2, 354880, Note_on_c, 0, 59, 77
2, 355040, Note_on_c, 0, 59, 0
2, 355040, Note_on_c, 0, 58, 72
2, 355200, Note_on_c, 0, 58, 0
2, 355200, Note_on_c, 0, 56, 81
2, 355360, Note_on_c, 0, 56, 0
2, 355360, Note_on_c, 0, 54, 77
2, 355520, Note_on_c, 0, 54, 0
2, 355520, Note_on_c, 0, 53, 72
2, 355680, Note_on_c, 0, 53, 0
2, 355680, Note_on_c, 0, 51, 81
2, 355840, Note_on_c, 0, 51, 0
2, 355840, Note_on_c, 0, 53, 77
2, 356000, Note_on_c, 0, 53, 0
2, 356000, Note_on_c, 0, 54, 72
2, 356160, Note_on_c, 0, 54, 0
2, 356160, Note_on_c, 0, 56, 89
2, 356320, Note_on_c, 0, 56, 0
2, 356320, Note_on_c, 0, 59, 77
2, 356480, Note_on_c, 0, 59, 0
2, 356480, Note_on_c, 0, 58, 71
2, 356640, Note_on_c, 0, 58, 0
2, 356640, Note_on_c, 0, 56, 81
2, 356800, Note_on_c, 0, 56, 0
2, 356800, Note_on_c, 0, 54, 77
2, 356960, Note_on_c, 0, 54, 0
2, 356960, Note_on_c, 0, 53, 77
2, 357120, Note_on_c, 0, 53, 0
2, 357120, Note_on_c, 0, 51, 78
2, 357280, Note_on_c, 0, 51, 0
2, 357280, Note_on_c, 0, 53, 80
2, 357440, Note_on_c, 0, 53, 0
2, 357440, Note_on_c, 0, 54, 82
2, 357600, Note_on_c, 0, 54, 0
2, 357600, Note_on_c, 0, 56, 84
2, 357760, Note_on_c, 0, 56, 0
2, 357760, Note_on_c, 0, 58, 87
2, 357920, Note_on_c, 0, 58, 0
2, 357920, Note_on_c, 0, 60, 89
2, 358080, Note_on_c, 0, 60, 0
2, 358080, Note_on_c, 0, 62, 90
2, 358240, Note_on_c, 0, 62, 0
2, 358240, Note_on_c, 0, 63, 92
2, 358400, Note_on_c, 0, 63, 0
2, 358400, Note_on_c, 0, 65, 94
2, 358560, Note_on_c, 0, 65, 0
2, 358560, Note_on_c, 0, 66, 96
2, 359520, Note_on_c, 0, 66, 0
2, 360000, Note_on_c, 0, 58, 87
2, 360000, Note_on_c, 0, 61, 87
2, 360000, Note_on_c, 0, 66, 87
2, 360000, Note_on_c, 0, 70, 97
2, 360960, Note_on_c, 0, 70, 0
2, 360960, Note_on_c, 0, 58, 0
2, 360960, Note_on_c, 0, 61, 0
2, 360960, Note_on_c, 0, 66, 0
2, 361440, Note_on_c, 0, 71, 97
2, 361920, Note_on_c, 0, 59, 81
2, 362080, Note_on_c, 0, 59, 0
2, 362080, Note_on_c, 0, 62, 76
2, 362240, Note_on_c, 0, 62, 0
2, 362240, Note_on_c, 0, 66, 76
2, 362400, Note_on_c, 0, 66, 0
2, 362400, Note_on_c, 0, 59, 81
2, 362880, Note_on_c, 0, 59, 0
2, 362880, Note_on_c, 0, 71, 0
2, 362880, Note_on_c, 0, 71, 96
2, 363360, Note_on_c, 0, 59, 81
2, 363520, Note_on_c, 0, 59, 0
2, 363520, Note_on_c, 0, 61, 77
2, 363680, Note_on_c, 0, 61, 0
2, 363680, Note_on_c, 0, 67, 77
2, 363840, Note_on_c, 0, 67, 0
2, 363840, Note_on_c, 0, 59, 81
2, 364320, Note_on_c, 0, 59, 0
2, 364320, Note_on_c, 0, 71, 0
2, 364320, Note_on_c, 0, 71, 88
2, 364560, Note_on_c, 0, 62, 72
2, 364560, Note_on_c, 0, 66, 81
2, 364800, Note_on_c, 0, 66, 0
2, 364800, Note_on_c, 0, 62, 0
2, 364800, Note_on_c, 0, 71, 0
2, 364800, Note_on_c, 0, 73, 95
2, 365040, Note_on_c, 0, 64, 79
2, 365040, Note_on_c, 0, 66, 88
2, 365280, Note_on_c, 0, 66, 0
2, 365280, Note_on_c, 0, 64, 0
2, 365280, Note_on_c, 0, 73, 0
2, 365280, Note_on_c, 0, 74, 89
2, 365520, Note_on_c, 0, 62, 72
2, 365520, Note_on_c, 0, 66, 81
2, 365760, Note_on_c, 0, 66, 0
2, 365760, Note_on_c, 0, 62, 0
2, 365760, Note_on_c, 0, 74, 0
2, 365760, Note_on_c, 0, 73, 88
2, 366240, Note_on_c, 0, 61, 81
2, 366400, Note_on_c, 0, 61, 0
2, 366400, Note_on_c, 0, 66, 76
2, 366560, Note_on_c, 0, 66, 0
2, 366560, Note_on_c, 0, 70, 76
2, 366720, Note_on_c, 0, 70, 0
2, 366720, Note_on_c, 0, 61, 81
2, 367200, Note_on_c, 0, 61, 0
2, 367200, Note_on_c, 0, 73, 0
2, 367200, Note_on_c, 0, 74, 88
2, 367680, Note_on_c, 0, 62, 81
2, 367840, Note_on_c, 0, 62, 0
2, 367840, Note_on_c, 0, 65, 76
2, 368000, Note_on_c, 0, 65, 0
2, 368000, Note_on_c, 0, 70, 76
2, 368160, Note_on_c, 0, 70, 0
2, 368160, Note_on_c, 0, 62, 81
2, 368640, Note_on_c, 0, 62, 0
2, 368640, Note_on_c, 0, 74, 0
2, 368640, Note_on_c, 0, 75, 88
2, 369120, Note_on_c, 0, 63, 81
2, 369280, Note_on_c, 0, 63, 0
2, 369280, Note_on_c, 0, 66, 76
2, 369440, Note_on_c, 0, 66, 0
2, 369440, Note_on_c, 0, 70, 76
2, 369600, Note_on_c, 0, 70, 0
2, 369600, Note_on_c, 0, 63, 81
2, 370080, Note_on_c, 0, 63, 0
2, 370080, Note_on_c, 0, 75, 0
2, 370080, Note_on_c, 0, 65, 81
2, 370320, Note_on_c, 0, 65, 0
2, 370320, Note_on_c, 0, 77, 77
2, 370560, Note_on_c, 0, 77, 0
2, 370560, Note_on_c, 0, 66, 81
2, 370800, Note_on_c, 0, 66, 0
2, 370800, Note_on_c, 0, 78, 77
2, 371040, Note_on_c, 0, 78, 0
2, 371040, Note_on_c, 0, 65, 81
2, 371280, Note_on_c, 0, 65, 0
2, 371280, Note_on_c, 0, 77, 77
2, 371520, Note_on_c, 0, 77, 0
2, 371520, Note_on_c, 0, 75, 81
2, 372000, Note_on_c, 0, 63, 64
2, 372160, Note_on_c, 0, 63, 0
2, 372160, Note_on_c, 0, 66, 61
2, 372320, Note_on_c, 0, 66, 0
2, 372320, Note_on_c, 0, 70, 62
2, 372480, Note_on_c, 0, 70, 0
2, 372480, Note_on_c, 0, 63, 64
2, 372960, Note_on_c, 0, 63, 0
2, 372960, Note_on_c, 0, 75, 0
2, 372960, Note_on_c, 0, 83, 96
2, 373440, Note_on_c, 0, 71, 80
2, 373600, Note_on_c, 0, 71, 0
2, 373600, Note_on_c, 0, 74, 75
2, 373760, Note_on_c, 0, 74, 0
2, 373760, Note_on_c, 0, 78, 75
2, 373920, Note_on_c, 0, 78, 0
2, 373920, Note_on_c, 0, 71, 80
2, 374400, Note_on_c, 0, 71, 0
2, 374400, Note_on_c, 0, 83, 0
2, 374400, Note_on_c, 0, 83, 93
2, 374880, Note_on_c, 0, 71, 81
2, 375040, Note_on_c, 0, 71, 0
2, 375040, Note_on_c, 0, 73, 76
2, 375200, Note_on_c, 0, 73, 0
2, 375200, Note_on_c, 0, 79, 76
2, 375360, Note_on_c, 0, 79, 0
2, 375360, Note_on_c, 0, 71, 81
2, 375840, Note_on_c, 0, 71, 0
2, 375840, Note_on_c, 0, 83, 0
2, 375840, Note_on_c, 0, 83, 89
2, 376080, Note_on_c, 0, 78, 72
2, 376080, Note_on_c, 0, 74, 64
2, 376320, Note_on_c, 0, 74, 0
2, 376320, Note_on_c, 0, 78, 0
2, 376320, Note_on_c, 0, 83, 0
2, 376320, Note_on_c, 0, 85, 89
2, 376560, Note_on_c, 0, 78, 72
2, 376560, Note_on_c, 0, 76, 64
2, 376800, Note_on_c, 0, 76, 0
2, 376800, Note_on_c, 0, 78, 0
2, 376800, Note_on_c, 0, 85, 0
2, 376800, Note_on_c, 0, 86, 89
2, 377040, Note_on_c, 0, 74, 64
2, 377040, Note_on_c, 0, 78, 72
2, 377280, Note_on_c, 0, 78, 0
2, 377280, Note_on_c, 0, 74, 0
2, 377280, Note_on_c, 0, 86, 0
2, 377280, Note_on_c, 0, 85, 89
2, 377760, Note_on_c, 0, 73, 81
2, 377920, Note_on_c, 0, 73, 0
2, 377920, Note_on_c, 0, 78, 76
2, 378080, Note_on_c, 0, 78, 0
2, 378080, Note_on_c, 0, 82, 76
2, 378240, Note_on_c, 0, 82, 0
2, 378240, Note_on_c, 0, 73, 81
2, 378720, Note_on_c, 0, 73, 0
2, 378720, Note_on_c, 0, 85, 0
2, 378720, Note_on_c, 0, 86, 97
2, 379200, Note_on_c, 0, 74, 81
2, 379360, Note_on_c, 0, 74, 0
2, 379360, Note_on_c, 0, 77, 77
2, 379520, Note_on_c, 0, 77, 0
2, 379520, Note_on_c, 0, 82, 77
2, 379680, Note_on_c, 0, 82, 0
2, 379680, Note_on_c, 0, 74, 81
2, 380160, Note_on_c, 0, 74, 0
2, 380160, Note_on_c, 0, 86, 0
2, 380160, Note_on_c, 0, 87, 97
2, 380640, Note_on_c, 0, 75, 81
2, 380800, Note_on_c, 0, 75, 0
2, 380800, Note_on_c, 0, 78, 77
2, 380960, Note_on_c, 0, 78, 0
2, 380960, Note_on_c, 0, 82, 77
2, 381120, Note_on_c, 0, 82, 0
2, 381120, Note_on_c, 0, 75, 81
2, 381600, Note_on_c, 0, 75, 0
2, 381600, Note_on_c, 0, 87, 0
2, 381600, Note_on_c, 0, 86, 81
2, 381600, Note_on_c, 0, 82, 72
2, 381600, Note_on_c, 0, 77, 72
2, 381840, Note_on_c, 0, 77, 0
2, 381840, Note_on_c, 0, 82, 0
2, 381840, Note_on_c, 0, 86, 0
2, 381840, Note_on_c, 0, 89, 72
2, 382080, Note_on_c, 0, 89, 0
2, 382080, Note_on_c, 0, 86, 89
2, 382080, Note_on_c, 0, 82, 80
2, 382080, Note_on_c, 0, 78, 80
2, 382320, Note_on_c, 0, 78, 0
2, 382320, Note_on_c, 0, 82, 0
2, 382320, Note_on_c, 0, 86, 0
2, 382320, Note_on_c, 0, 90, 79
2, 382560, Note_on_c, 0, 90, 0
2, 382560, Note_on_c, 0, 86, 81
2, 382560, Note_on_c, 0, 82, 72
2, 382560, Note_on_c, 0, 77, 72
2, 382800, Note_on_c, 0, 77, 0
2, 382800, Note_on_c, 0, 82, 0
2, 382800, Note_on_c, 0, 86, 0
2, 382800, Note_on_c, 0, 89, 72
2, 383040, Note_on_c, 0, 89, 0
2, 383040, Note_on_c, 0, 87, 90
2, 383520, Note_on_c, 0, 75, 72
2, 383680, Note_on_c, 0, 75, 0
2, 383680, Note_on_c, 0, 78, 68
2, 383840, Note_on_c, 0, 78, 0
2, 383840, Note_on_c, 0, 82, 68
2, 384000, Note_on_c, 0, 82, 0
2, 384000, Note_on_c, 0, 75, 72
2, 384480, Note_on_c, 0, 75, 0
2, 384480, Note_on_c, 0, 87, 0
2, 384480, Note_on_c, 0, 94, 97
2, 384960, Note_on_c, 0, 82, 75
2, 385120, Note_on_c, 0, 82, 0
2, 385120, Note_on_c, 0, 89, 71
2, 385280, Note_on_c, 0, 89, 0
2, 385280, Note_on_c, 0, 92, 71
2, 385440, Note_on_c, 0, 92, 0
2, 385440, Note_on_c, 0, 82, 75
2, 385920, Note_on_c, 0, 82, 0
2, 385920, Note_on_c, 0, 94, 0
2, 385920, Note_on_c, 0, 94, 97
2, 386400, Note_on_c, 0, 82, 74
2, 386560, Note_on_c, 0, 82, 0
2, 386560, Note_on_c, 0, 87, 70
2, 386720, Note_on_c, 0, 87, 0
2, 386720, Note_on_c, 0, 90, 70
2, 386880, Note_on_c, 0, 90, 0
2, 386880, Note_on_c, 0, 82, 74
2, 387360, Note_on_c, 0, 82, 0
2, 387360, Note_on_c, 0, 94, 0
2, 387360, Note_on_c, 0, 80, 72
2, 387360, Note_on_c, 0, 89, 81
2, 387600, Note_on_c, 0, 89, 0
2, 387600, Note_on_c, 0, 80, 0
2, 387600, Note_on_c, 0, 92, 76
2, 387840, Note_on_c, 0, 92, 0
2, 387840, Note_on_c, 0, 78, 72
2, 387840, Note_on_c, 0, 87, 81
2, 388080, Note_on_c, 0, 87, 0
2, 388080, Note_on_c, 0, 78, 0
2, 388080, Note_on_c, 0, 90, 77
2, 388320, Note_on_c, 0, 90, 0
2, 388320, Note_on_c, 0, 77, 72
2, 388320, Note_on_c, 0, 86, 81
2, 388560, Note_on_c, 0, 86, 0
2, 388560, Note_on_c, 0, 77, 0
2, 388560, Note_on_c, 0, 89, 78
2, 388800, Note_on_c, 0, 89, 0
2, 388800, Note_on_c, 0, 87, 90
2, 389280, Note_on_c, 0, 75, 81
2, 389440, Note_on_c, 0, 75, 0
2, 389440, Note_on_c, 0, 78, 65
2, 389600, Note_on_c, 0, 78, 0
2, 389600, Note_on_c, 0, 82, 66
2, 389760, Note_on_c, 0, 82, 0
2, 389760, Note_on_c, 0, 75, 66
2, 390240, Note_on_c, 0, 75, 0
2, 390240, Note_on_c, 0, 87, 0
2, 390240, Note_on_c, 0, 94, 97
2, 390720, Note_on_c, 0, 82, 72
2, 390880, Note_on_c, 0, 82, 0
2, 390880, Note_on_c, 0, 89, 68
2, 391040, Note_on_c, 0, 89, 0
2, 391040, Note_on_c, 0, 92, 68
2, 391200, Note_on_c, 0, 92, 0
2, 391200, Note_on_c, 0, 82, 72
2, 391680, Note_on_c, 0, 82, 0
2, 391680, Note_on_c, 0, 94, 0
2, 391680, Note_on_c, 0, 94, 97
2, 392160, Note_on_c, 0, 82, 72
2, 392320, Note_on_c, 0, 82, 0
2, 392320, Note_on_c, 0, 87, 68
2, 392480, Note_on_c, 0, 87, 0
2, 392480, Note_on_c, 0, 90, 68
2, 392640, Note_on_c, 0, 90, 0
2, 392640, Note_on_c, 0, 82, 72
2, 393120, Note_on_c, 0, 82, 0
2, 393120, Note_on_c, 0, 94, 0
2, 393120, Note_on_c, 0, 80, 72
2, 393120, Note_on_c, 0, 89, 81
2, 393360, Note_on_c, 0, 89, 0
2, 393360, Note_on_c, 0, 80, 0
2, 393360, Note_on_c, 0, 92, 81
2, 393600, Note_on_c, 0, 92, 0
2, 393600, Note_on_c, 0, 78, 72
2, 393600, Note_on_c, 0, 87, 81
2, 393840, Note_on_c, 0, 87, 0
2, 393840, Note_on_c, 0, 78, 0
2, 393840, Note_on_c, 0, 90, 81
2, 394080, Note_on_c, 0, 90, 0
2, 394080, Note_on_c, 0, 77, 72
2, 394080, Note_on_c, 0, 86, 81
2, 394320, Note_on_c, 0, 86, 0
2, 394320, Note_on_c, 0, 77, 0
2, 394320, Note_on_c, 0, 89, 80
2, 394560, Note_on_c, 0, 89, 0
2, 394560, Note_on_c, 0, 87, 90
2, 395040, Note_on_c, 0, 75, 64
2, 395200, Note_on_c, 0, 75, 0
2, 395200, Note_on_c, 0, 78, 61
2, 395360, Note_on_c, 0, 78, 0
2, 395360, Note_on_c, 0, 82, 61
2, 395520, Note_on_c, 0, 82, 0
2, 395520, Note_on_c, 0, 75, 63
2, 396000, Note_on_c, 0, 75, 0
2, 396000, Note_on_c, 0, 87, 0
2, 396000, Note_on_c, 0, 83, 72
2, 396000, Note_on_c, 0, 92, 81
2, 396240, Note_on_c, 0, 92, 0
2, 396240, Note_on_c, 0, 83, 0
2, 396240, Note_on_c, 0, 95, 75
2, 396480, Note_on_c, 0, 95, 0
2, 396480, Note_on_c, 0, 82, 72
2, 396480, Note_on_c, 0, 90, 81
2, 396720, Note_on_c, 0, 90, 0
2, 396720, Note_on_c, 0, 82, 0
2, 396720, Note_on_c, 0, 94, 76
2, 396960, Note_on_c, 0, 94, 0
2, 396960, Note_on_c, 0, 86, 72
2, 396960, Note_on_c, 0, 89, 81
2, 397200, Note_on_c, 0, 89, 0
2, 397200, Note_on_c, 0, 86, 0
2, 397200, Note_on_c, 0, 98, 76
2, 397440, Note_on_c, 0, 98, 0
2, 397440, Note_on_c, 0, 99, 81
2, 397600, Note_on_c, 0, 99, 0
2, 397600, Note_on_c, 0, 95, 76
2, 397760, Note_on_c, 0, 95, 0
2, 397760, Note_on_c, 0, 94, 78
2, 397920, Note_on_c, 0, 94, 0
2, 397920, Note_on_c, 0, 92, 81
2, 398080, Note_on_c, 0, 92, 0
2, 398080, Note_on_c, 0, 90, 76
2, 398240, Note_on_c, 0, 90, 0
2, 398240, Note_on_c, 0, 89, 76
2, 398400, Note_on_c, 0, 89, 0
2, 398400, Note_on_c, 0, 87, 93
2, 398640, Note_on_c, 0, 87, 0
2, 398880, Note_on_c, 0, 87, 81
2, 399040, Note_on_c, 0, 87, 0
2, 399040, Note_on_c, 0, 83, 75
2, 399200, Note_on_c, 0, 83, 0
2, 399200, Note_on_c, 0, 82, 75
2, 399360, Note_on_c, 0, 82, 0
2, 399360, Note_on_c, 0, 80, 81
2, 399520, Note_on_c, 0, 80, 0
2, 399520, Note_on_c, 0, 78, 77
2, 399680, Note_on_c, 0, 78, 0
2, 399680, Note_on_c, 0, 77, 77
2, 399840, Note_on_c, 0, 77, 0
2, 399840, Note_on_c, 0, 75, 92
2, 400080, Note_on_c, 0, 75, 0
2, 400320, Note_on_c, 0, 75, 81
2, 400480, Note_on_c, 0, 75, 0
2, 400480, Note_on_c, 0, 71, 76
2, 400640, Note_on_c, 0, 71, 0
2, 400640, Note_on_c, 0, 70, 76
2, 400800, Note_on_c, 0, 70, 0
2, 400800, Note_on_c, 0, 68, 81
2, 400960, Note_on_c, 0, 68, 0
2, 400960, Note_on_c, 0, 66, 76
2, 401120, Note_on_c, 0, 66, 0
2, 401120, Note_on_c, 0, 65, 76
2, 401280, Note_on_c, 0, 65, 0
2, 401280, Note_on_c, 0, 63, 91
2, 401520, Note_on_c, 0, 63, 0
2, 401760, Note_on_c, 0, 63, 81
2, 401920, Note_on_c, 0, 63, 0
2, 401920, Note_on_c, 0, 59, 76
2, 402080, Note_on_c, 0, 59, 0
2, 402080, Note_on_c, 0, 58, 76
2, 402240, Note_on_c, 0, 58, 0
2, 402240, Note_on_c, 0, 56, 81
2, 402400, Note_on_c, 0, 56, 0
2, 402400, Note_on_c, 0, 54, 76
2, 402560, Note_on_c, 0, 54, 0
2, 402560, Note_on_c, 0, 53, 78
2, 402720, Note_on_c, 0, 53, 0
2, 402720, Note_on_c, 0, 51, 91
2, 402840, Note_on_c, 0, 51, 0
2, 403200, Note_on_c, 0, 63, 89
2, 403440, Note_on_c, 0, 63, 0
2, 403680, Note_on_c, 0, 63, 89
2, 403920, Note_on_c, 0, 63, 0
2, 404160, Note_on_c, 0, 63, 89
2, 404400, Note_on_c, 0, 63, 0
2, 404640, Note_on_c, 0, 63, 89
2, 404880, Note_on_c, 0, 63, 0
2, 405120, Note_on_c, 0, 63, 89
2, 405360, Note_on_c, 0, 63, 0
2, 405600, Note_on_c, 0, 63, 89
2, 405840, Note_on_c, 0, 63, 0
2, 406080, Note_on_c, 0, 74, 97
2, 406080, Note_on_c, 0, 70, 87
2, 406080, Note_on_c, 0, 65, 87
2, 406080, Note_on_c, 0, 62, 87
2, 406560, Note_on_c, 0, 62, 0
2, 406560, Note_on_c, 0, 74, 0
2, 406560, Note_on_c, 0, 70, 0
2, 406560, Note_on_c, 0, 65, 0
2, 407520, Note_on_c, 0, 63, 87
2, 407520, Note_on_c, 0, 66, 87
2, 407520, Note_on_c, 0, 70, 87
2, 407520, Note_on_c, 0, 75, 97
2, 408000, Note_on_c, 0, 75, 0
2, 408000, Note_on_c, 0, 63, 0
2, 408000, Note_on_c, 0, 66, 0
2, 408000, Note_on_c, 0, 70, 0
2, 408000, End_track
3, 0, Start_track
3, 0, Title_t, "Piano left"
3, 0, Program_c, 0, 0
3, 0, Control_c, 0, 7, 100
3, 0, Control_c, 0, 10, 64
3, 0, Control_c, 0, 91, 127
3, 0, Control_c, 0, 64, 0
3, 900, Control_c, 0, 64, 0
3, 1440, Note_on_c, 0, 51, 39
3, 1920, Note_on_c, 0, 58, 32
3, 2880, Note_on_c, 0, 58, 0
3, 2880, Note_on_c, 0, 51, 0
3, 2880, Note_on_c, 0, 53, 36
3, 3360, Note_on_c, 0, 58, 31
3, 3835, Note_on_c, 0, 58, 0
3, 4320, Note_on_c, 0, 53, 0
3, 4320, Note_on_c, 0, 55, 39
3, 4800, Note_on_c, 0, 58, 31
3, 5760, Note_on_c, 0, 58, 0
3, 5760, Note_on_c, 0, 55, 0
3, 5760, Note_on_c, 0, 50, 39
3, 6240, Note_on_c, 0, 58, 30
3, 7200, Note_on_c, 0, 58, 0
3, 7200, Note_on_c, 0, 50, 0
3, 7200, Note_on_c, 0, 51, 40
3, 7680, Note_on_c, 0, 58, 31
3, 8640, Note_on_c, 0, 58, 0
3, 8640, Note_on_c, 0, 51, 0
3, 8640, Note_on_c, 0, 44, 40
3, 9120, Note_on_c, 0, 44, 0
3, 9120, Note_on_c, 0, 60, 32
3, 9120, Note_on_c, 0, 56, 28
3, 10080, Note_on_c, 0, 56, 0
3, 10080, Note_on_c, 0, 60, 0
3, 10080, Note_on_c, 0, 46, 48
3, 10560, Note_on_c, 0, 46, 0
3, 10560, Note_on_c, 0, 62, 37
3, 10560, Note_on_c, 0, 58, 33
3, 10560, Note_on_c, 0, 56, 33
3, 11520, Note_on_c, 0, 56, 0
3, 11520, Note_on_c, 0, 58, 0
3, 11520, Note_on_c, 0, 62, 0
3, 11520, Note_on_c, 0, 51, 48
3, 12000, Note_on_c, 0, 51, 0
3, 12000, Note_on_c, 0, 58, 27
3, 12000, Note_on_c, 0, 55, 27
3, 12000, Note_on_c, 0, 63, 37
3, 12960, Note_on_c, 0, 63, 0
3, 12960, Note_on_c, 0, 55, 0
3, 12960, Note_on_c, 0, 58, 0
3, 12960, Note_on_c, 0, 51, 55
3, 13440, Note_on_c, 0, 58, 46
3, 14400, Note_on_c, 0, 58, 0
3, 14400, Note_on_c, 0, 51, 0
3, 14400, Note_on_c, 0, 53, 56
3, 14880, Note_on_c, 0, 58, 45
3, 15357, Note_on_c, 0, 58, 0
3, 15840, Note_on_c, 0, 53, 0
3, 15840, Note_on_c, 0, 55, 56
3, 16320, Note_on_c, 0, 58, 45
3, 17280, Note_on_c, 0, 58, 0
3, 17280, Note_on_c, 0, 55, 0
3, 17280, Note_on_c, 0, 50, 57
3, 17760, Note_on_c, 0, 58, 46
3, 18720, Note_on_c, 0, 58, 0
3, 18720, Note_on_c, 0, 50, 0
3, 18720, Note_on_c, 0, 51, 56
3, 19200, Note_on_c, 0, 58, 45
3, 20160, Note_on_c, 0, 58, 0
3, 20160, Note_on_c, 0, 51, 0
3, 20160, Note_on_c, 0, 44, 54
3, 20640, Note_on_c, 0, 44, 0
3, 20640, Note_on_c, 0, 60, 45
3, 20640, Note_on_c, 0, 56, 34
3, 21600, Note_on_c, 0, 56, 0
3, 21600, Note_on_c, 0, 60, 0
3, 21600, Note_on_c, 0, 46, 55
3, 22080, Note_on_c, 0, 46, 0
3, 22080, Note_on_c, 0, 56, 31
3, 22080, Note_on_c, 0, 62, 42
3, 22080, Note_on_c, 0, 58, 31
3, 23040, Note_on_c, 0, 58, 0
3, 23040, Note_on_c, 0, 62, 0
3, 23040, Note_on_c, 0, 56, 0
3, 23040, Note_on_c, 0, 51, 58
3, 23520, Note_on_c, 0, 51, 0
3, 23520, Note_on_c, 0, 63, 47
3, 23520, Note_on_c, 0, 58, 35
3, 23520, Note_on_c, 0, 55, 35
3, 24480, Note_on_c, 0, 55, 0
3, 24480, Note_on_c, 0, 58, 0
3, 24480, Note_on_c, 0, 63, 0
3, 24480, Note_on_c, 0, 51, 56
3, 24960, Note_on_c, 0, 58, 45
3, 25920, Note_on_c, 0, 58, 0
3, 25920, Note_on_c, 0, 51, 0
3, 25920, Note_on_c, 0, 53, 56
3, 26400, Note_on_c, 0, 58, 44
3, 27360, Note_on_c, 0, 58, 0
3, 27360, Note_on_c, 0, 53, 0
3, 27360, Note_on_c, 0, 55, 56
3, 27840, Note_on_c, 0, 58, 45
3, 28800, Note_on_c, 0, 58, 0
3, 28800, Note_on_c, 0, 55, 0
3, 28800, Note_on_c, 0, 50, 65
3, 29280, Note_on_c, 0, 58, 46
3, 30240, Note_on_c, 0, 58, 0
3, 30240, Note_on_c, 0, 50, 0
3, 30240, Note_on_c, 0, 51, 58
3, 30720, Note_on_c, 0, 58, 49
3, 31680, Note_on_c, 0, 58, 0
3, 31680, Note_on_c, 0, 51, 0
3, 31680, Note_on_c, 0, 44, 47
3, 32160, Note_on_c, 0, 44, 0
3, 32160, Note_on_c, 0, 56, 30
3, 32160, Note_on_c, 0, 60, 41
3, 33120, Note_on_c, 0, 60, 0
3, 33120, Note_on_c, 0, 56, 0
3, 33120, Note_on_c, 0, 46, 47
3, 33600, Note_on_c, 0, 46, 0
3, 33600, Note_on_c, 0, 62, 40
3, 33600, Note_on_c, 0, 58, 30
3, 33600, Note_on_c, 0, 56, 30
3, 34560, Note_on_c, 0, 56, 0
3, 34560, Note_on_c, 0, 58, 0
3, 34560, Note_on_c, 0, 62, 0
3, 34560, Note_on_c, 0, 51, 40
3, 35040, Note_on_c, 0, 51, 0
3, 35040, Note_on_c, 0, 58, 26
3, 35040, Note_on_c, 0, 55, 26
3, 35040, Note_on_c, 0, 63, 35
3, 36000, Note_on_c, 0, 63, 0
3, 36000, Note_on_c, 0, 55, 0
3, 36000, Note_on_c, 0, 58, 0
3, 36000, Note_on_c, 0, 39, 44
3, 36480, Note_on_c, 0, 51, 32
3, 37440, Note_on_c, 0, 51, 0
3, 37440, Note_on_c, 0, 39, 0
3, 37440, Note_on_c, 0, 44, 42
3, 37509, Control_c, 0, 64, 127
3, 37920, Note_on_c, 0, 56, 32
3, 37936, Control_c, 0, 64, 0
3, 37998, Control_c, 0, 64, 127
3, 38880, Note_on_c, 0, 56, 0
3, 38880, Note_on_c, 0, 44, 0
3, 38880, Control_c, 0, 64, 0
3, 38880, Note_on_c, 0, 37, 44
3, 39360, Note_on_c, 0, 49, 32
3, 40320, Note_on_c, 0, 49, 0
3, 40320, Note_on_c, 0, 37, 0
3, 40320, Note_on_c, 0, 42, 43
3, 40395, Control_c, 0, 64, 127
3, 40800, Note_on_c, 0, 54, 32
3, 40822, Control_c, 0, 64, 0
3, 40915, Control_c, 0, 64, 127
3, 41760, Note_on_c, 0, 54, 0
3, 41760, Note_on_c, 0, 42, 0
3, 41760, Control_c, 0, 64, 0
3, 41760, Note_on_c, 0, 35, 44
3, 42240, Note_on_c, 0, 47, 32
3, 43200, Note_on_c, 0, 47, 0
3, 43200, Note_on_c, 0, 35, 0
3, 43200, Note_on_c, 0, 41, 42
3, 43275, Control_c, 0, 64, 127
3, 43680, Note_on_c, 0, 53, 32
3, 43699, Control_c, 0, 64, 0
3, 43812, Control_c, 0, 64, 127
3, 44640, Note_on_c, 0, 53, 0
3, 44640, Note_on_c, 0, 41, 0
3, 44640, Control_c, 0, 64, 0
3, 44640, Note_on_c, 0, 34, 44
3, 45120, Note_on_c, 0, 46, 32
3, 46080, Note_on_c, 0, 46, 0
3, 46080, Note_on_c, 0, 34, 0
3, 46080, Note_on_c, 0, 39, 43
3, 46189, Control_c, 0, 64, 127
3, 46560, Note_on_c, 0, 51, 32
3, 46577, Control_c, 0, 64, 0
3, 46720, Control_c, 0, 64, 127
3, 47520, Note_on_c, 0, 51, 0
3, 47520, Note_on_c, 0, 39, 0
3, 47520, Control_c, 0, 64, 0
3, 47520, Note_on_c, 0, 44, 43
3, 47617, Control_c, 0, 64, 127
3, 48000, Note_on_c, 0, 56, 32
3, 48010, Control_c, 0, 64, 0
3, 48126, Control_c, 0, 64, 127
3, 48960, Note_on_c, 0, 56, 0
3, 48960, Note_on_c, 0, 44, 0
3, 48960, Note_on_c, 0, 46, 41
3, 48963, Control_c, 0, 64, 0
3, 49045, Control_c, 0, 64, 127
3, 49440, Note_on_c, 0, 58, 41
3, 49446, Control_c, 0, 64, 0
3, 49567, Control_c, 0, 64, 127
3, 49932, Control_c, 0, 64, 0
3, 50076, Control_c, 0, 64, 127
3, 50400, Note_on_c, 0, 46, 0
3, 50400, Note_on_c, 0, 51, 40
3, 50403, Control_c, 0, 64, 0
3, 51840, Note_on_c, 0, 51, 0
3, 51840, Note_on_c, 0, 58, 0
3, 51840, Note_on_c, 0, 42, 41
3, 52320, Note_on_c, 0, 49, 33
3, 53280, Note_on_c, 0, 49, 0
3, 53280, Note_on_c, 0, 42, 0
3, 53280, Note_on_c, 0, 44, 39
3, 53328, Control_c, 0, 64, 127
3, 53760, Note_on_c, 0, 50, 53
3, 53781, Control_c, 0, 64, 0
3, 53880, Control_c, 0, 64, 127
3, 54240, Note_on_c, 0, 50, 0
3, 54240, Note_on_c, 0, 49, 33
3, 54720, Note_on_c, 0, 49, 0
3, 54720, Note_on_c, 0, 44, 0
3, 54720, Control_c, 0, 64, 0
3, 54720, Note_on_c, 0, 42, 39
3, 55200, Note_on_c, 0, 49, 33
3, 56160, Note_on_c, 0, 49, 0
3, 56160, Note_on_c, 0, 42, 0
3, 56160, Note_on_c, 0, 44, 40
3, 56223, Control_c, 0, 64, 127
3, 56640, Note_on_c, 0, 50, 55
3, 56657, Control_c, 0, 64, 0
3, 56794, Control_c, 0, 64, 127
3, 57120, Note_on_c, 0, 50, 0
3, 57120, Note_on_c, 0, 49, 33
3, 57600, Note_on_c, 0, 49, 0
3, 57600, Note_on_c, 0, 44, 0
3, 57600, Note_on_c, 0, 42, 39
3, 57605, Control_c, 0, 64, 0
3, 57686, Control_c, 0, 64, 127
3, 58080, Note_on_c, 0, 54, 43
3, 58096, Control_c, 0, 64, 0
3, 59040, Note_on_c, 0, 42, 0
3, 59040, Note_on_c, 0, 47, 40
3, 59109, Control_c, 0, 64, 127
3, 59520, Note_on_c, 0, 54, 0
3, 59520, Note_on_c, 0, 56, 43
3, 59533, Control_c, 0, 64, 0
3, 59692, Control_c, 0, 64, 127
3, 60480, Note_on_c, 0, 47, 0
3, 60480, Note_on_c, 0, 49, 43
3, 60482, Control_c, 0, 64, 0
3, 60960, Note_on_c, 0, 56, 0
3, 60960, Note_on_c, 0, 59, 37
3, 61920, Note_on_c, 0, 59, 0
3, 61920, Note_on_c, 0, 49, 0
3, 61920, Note_on_c, 0, 58, 43
3, 61920, Note_on_c, 0, 54, 32
3, 62880, Note_on_c, 0, 54, 0
3, 62880, Note_on_c, 0, 58, 0
3, 63360, Note_on_c, 0, 46, 43
3, 63840, Note_on_c, 0, 59, 33
3, 63840, Note_on_c, 0, 56, 25
3, 63840, Note_on_c, 0, 53, 25
3, 64800, Note_on_c, 0, 53, 0
3, 64800, Note_on_c, 0, 46, 0
3, 64800, Note_on_c, 0, 59, 0
3, 64800, Note_on_c, 0, 56, 0
3, 64800, Note_on_c, 0, 46, 43
3, 65280, Note_on_c, 0, 59, 32
3, 65280, Note_on_c, 0, 56, 24
3, 65280, Note_on_c, 0, 53, 24
3, 66240, Note_on_c, 0, 53, 0
3, 66240, Note_on_c, 0, 46, 0
3, 66240, Note_on_c, 0, 59, 0
3, 66240, Note_on_c, 0, 56, 0
3, 66240, Note_on_c, 0, 46, 43
3, 66720, Note_on_c, 0, 53, 24
3, 66720, Note_on_c, 0, 59, 32
3, 66720, Note_on_c, 0, 56, 24
3, 69120, Note_on_c, 0, 56, 0
3, 69120, Note_on_c, 0, 46, 0
3, 69120, Note_on_c, 0, 53, 0
3, 69120, Note_on_c, 0, 59, 0
3, 69120, Note_on_c, 0, 58, 43
3, 69600, Note_on_c, 0, 68, 24
3, 69600, Note_on_c, 0, 65, 24
3, 69600, Note_on_c, 0, 71, 32
3, 70560, Note_on_c, 0, 71, 0
3, 70560, Note_on_c, 0, 58, 0
3, 70560, Note_on_c, 0, 68, 0
3, 70560, Note_on_c, 0, 65, 0
3, 70560, Note_on_c, 0, 58, 43
3, 71040, Note_on_c, 0, 71, 32
3, 71040, Note_on_c, 0, 68, 24
3, 71040, Note_on_c, 0, 65, 24
3, 72069, Control_c, 0, 64, 127
3, 73440, Note_on_c, 0, 71, 0
3, 73440, Note_on_c, 0, 70, 40
3, 73460, Control_c, 0, 64, 0
3, 73610, Control_c, 0, 64, 127
3, 74880, Note_on_c, 0, 70, 0
3, 74880, Note_on_c, 0, 65, 0
3, 74880, Note_on_c, 0, 68, 0
3, 74880, Note_on_c, 0, 58, 0
3, 74880, Note_on_c, 0, 51, 40
3, 74888, Control_c, 0, 91, 126
3, 74894, Control_c, 0, 64, 0
3, 75360, Note_on_c, 0, 58, 32
3, 76320, Note_on_c, 0, 58, 0
3, 76320, Note_on_c, 0, 51, 0
3, 76320, Note_on_c, 0, 53, 41
3, 76800, Note_on_c, 0, 58, 31
3, 77275, Note_on_c, 0, 58, 0
3, 77760, Note_on_c, 0, 53, 0
3, 77760, Note_on_c, 0, 55, 40
3, 78240, Note_on_c, 0, 58, 30
3, 79200, Note_on_c, 0, 58, 0
3, 79200, Note_on_c, 0, 55, 0
3, 79200, Note_on_c, 0, 50, 43
3, 79680, Note_on_c, 0, 58, 32
3, 80640, Note_on_c, 0, 58, 0
3, 80640, Note_on_c, 0, 50, 0
3, 80640, Note_on_c, 0, 51, 40
3, 81120, Note_on_c, 0, 58, 36
3, 82080, Note_on_c, 0, 58, 0
3, 82080, Note_on_c, 0, 51, 0
3, 82080, Note_on_c, 0, 44, 41
3, 82560, Note_on_c, 0, 44, 0
3, 82560, Note_on_c, 0, 60, 32
3, 82560, Note_on_c, 0, 56, 24
3, 83520, Note_on_c, 0, 56, 0
3, 83520, Note_on_c, 0, 60, 0
3, 83520, Note_on_c, 0, 46, 40
3, 84000, Note_on_c, 0, 46, 0
3, 84000, Note_on_c, 0, 56, 23
3, 84000, Note_on_c, 0, 65, 31
3, 84000, Note_on_c, 0, 58, 23
3, 84960, Note_on_c, 0, 58, 0
3, 84960, Note_on_c, 0, 65, 0
3, 84960, Note_on_c, 0, 56, 0
3, 84960, Note_on_c, 0, 51, 47
3, 85440, Note_on_c, 0, 51, 0
3, 85440, Note_on_c, 0, 63, 40
3, 85440, Note_on_c, 0, 55, 30
3, 85440, Note_on_c, 0, 58, 30
3, 86400, Note_on_c, 0, 58, 0
3, 86400, Note_on_c, 0, 55, 0
3, 86400, Note_on_c, 0, 63, 0
3, 86400, Note_on_c, 0, 51, 46
3, 86880, Note_on_c, 0, 58, 40
3, 87840, Note_on_c, 0, 58, 0
3, 87840, Note_on_c, 0, 51, 0
3, 87840, Note_on_c, 0, 53, 43
3, 88320, Note_on_c, 0, 58, 32
3, 89280, Note_on_c, 0, 58, 0
3, 89280, Note_on_c, 0, 53, 0
3, 89280, Note_on_c, 0, 55, 43
3, 89760, Note_on_c, 0, 58, 32
3, 90720, Note_on_c, 0, 58, 0
3, 90720, Note_on_c, 0, 55, 0
3, 90720, Note_on_c, 0, 50, 45
3, 91200, Note_on_c, 0, 58, 35
3, 92160, Note_on_c, 0, 58, 0
3, 92160, Note_on_c, 0, 50, 0
3, 92160, Note_on_c, 0, 49, 45
3, 92640, Note_on_c, 0, 51, 28
3, 92640, Note_on_c, 0, 58, 38
3, 93600, Note_on_c, 0, 58, 0
3, 93600, Note_on_c, 0, 51, 0
3, 93600, Note_on_c, 0, 49, 0
3, 93600, Note_on_c, 0, 48, 62
3, 94080, Note_on_c, 0, 51, 30
3, 94080, Note_on_c, 0, 56, 41
3, 95040, Note_on_c, 0, 56, 0
3, 95040, Note_on_c, 0, 51, 0
3, 95040, Note_on_c, 0, 48, 0
3, 95040, Note_on_c, 0, 48, 71
3, 95520, Note_on_c, 0, 57, 44
3, 95520, Note_on_c, 0, 50, 33
3, 96480, Note_on_c, 0, 50, 0
3, 96480, Note_on_c, 0, 57, 0
3, 96480, Note_on_c, 0, 48, 0
3, 96480, Note_on_c, 0, 47, 72
3, 96960, Note_on_c, 0, 50, 31
3, 96960, Note_on_c, 0, 55, 42
3, 97920, Note_on_c, 0, 55, 0
3, 97920, Note_on_c, 0, 50, 0
3, 97920, Note_on_c, 0, 47, 0
3, 97920, Note_on_c, 0, 46, 72
3, 98400, Note_on_c, 0, 48, 34
3, 98400, Note_on_c, 0, 55, 45
3, 99360, Note_on_c, 0, 55, 0
3, 99360, Note_on_c, 0, 48, 0
3, 99360, Note_on_c, 0, 46, 0
3, 99360, Note_on_c, 0, 44, 72
3, 99840, Note_on_c, 0, 48, 34
3, 99840, Note_on_c, 0, 53, 45
3, 100800, Note_on_c, 0, 53, 0
3, 100800, Note_on_c, 0, 48, 0
3, 100800, Note_on_c, 0, 44, 0
3, 100800, Note_on_c, 0, 46, 71
3, 101280, Note_on_c, 0, 56, 47
3, 101280, Note_on_c, 0, 53, 35
3, 102240, Note_on_c, 0, 53, 0
3, 102240, Note_on_c, 0, 56, 0
3, 102240, Note_on_c, 0, 46, 0
3, 102240, Note_on_c, 0, 51, 72
3, 102720, Note_on_c, 0, 63, 57
3, 103680, Note_on_c, 0, 63, 0
3, 103680, Note_on_c, 0, 51, 0
3, 103680, Note_on_c, 0, 44, 73
3, 104160, Note_on_c, 0, 56, 57
3, 105120, Note_on_c, 0, 56, 0
3, 105120, Note_on_c, 0, 44, 0
3, 105120, Note_on_c, 0, 46, 72
3, 105600, Note_on_c, 0, 58, 56
3, 106560, Note_on_c, 0, 58, 0
3, 106560, Note_on_c, 0, 46, 0
3, 106560, Note_on_c, 0, 39, 73
3, 107040, Note_on_c, 0, 51, 54
3, 108000, Note_on_c, 0, 51, 0
3, 108000, Note_on_c, 0, 39, 0
3, 108000, Note_on_c, 0, 32, 75
3, 108480, Note_on_c, 0, 44, 64
3, 109440, Note_on_c, 0, 44, 0
3, 109440, Note_on_c, 0, 32, 0
3, 109440, Note_on_c, 0, 34, 76
3, 109920, Note_on_c, 0, 46, 57
3, 110880, Note_on_c, 0, 46, 0
3, 110880, Note_on_c, 0, 34, 0
3, 110880, Note_on_c, 0, 39, 58
3, 111360, Note_on_c, 0, 39, 0
3, 111360, Note_on_c, 0, 50, 72
3, 111360, Note_on_c, 0, 46, 54
3, 112320, Note_on_c, 0, 46, 0
3, 112320, Note_on_c, 0, 50, 0
3, 112320, Note_on_c, 0, 39, 56
3, 112560, Note_on_c, 0, 39, 0
3, 112800, Note_on_c, 0, 50, 81
3, 112800, Note_on_c, 0, 46, 61
3, 113760, Note_on_c, 0, 46, 0
3, 113760, Note_on_c, 0, 50, 0
3, 113760, Note_on_c, 0, 39, 64
3, 114000, Note_on_c, 0, 39, 0
3, 114240, Note_on_c, 0, 46, 61
3, 114240, Note_on_c, 0, 50, 81
3, 115200, Note_on_c, 0, 50, 0
3, 115200, Note_on_c, 0, 46, 0
3, 115200, Note_on_c, 0, 39, 72
3, 115360, Note_on_c, 0, 39, 0
3, 115360, Note_on_c, 0, 41, 72
3, 115520, Note_on_c, 0, 41, 0
3, 115520, Note_on_c, 0, 42, 72
3, 115680, Note_on_c, 0, 42, 0
3, 115680, Note_on_c, 0, 44, 76
3, 115840, Note_on_c, 0, 44, 0
3, 115840, Note_on_c, 0, 46, 78
3, 116000, Note_on_c, 0, 46, 0
3, 116000, Note_on_c, 0, 48, 74
3, 116160, Note_on_c, 0, 48, 0
3, 116160, Note_on_c, 0, 50, 81
3, 116320, Note_on_c, 0, 50, 0
3, 116320, Note_on_c, 0, 51, 82
3, 116480, Note_on_c, 0, 51, 0
3, 116480, Note_on_c, 0, 53, 79
3, 116640, Note_on_c, 0, 53, 0
3, 116640, Note_on_c, 0, 54, 86
3, 117600, Note_on_c, 0, 54, 0
3, 118080, Note_on_c, 0, 42, 68
3, 118080, Note_on_c, 0, 54, 68
3, 118240, Control_c, 0, 64, 127
3, 118934, Control_c, 0, 64, 0
3, 119040, Note_on_c, 0, 54, 0
3, 119040, Note_on_c, 0, 42, 0
3, 119520, Note_on_c, 0, 35, 65
3, 119633, Control_c, 0, 64, 127
3, 119760, Note_on_c, 0, 35, 0
3, 120000, Note_on_c, 0, 47, 53
3, 120000, Note_on_c, 0, 50, 53
3, 120000, Note_on_c, 0, 54, 59
3, 120960, Note_on_c, 0, 54, 0
3, 120960, Note_on_c, 0, 50, 0
3, 120960, Note_on_c, 0, 47, 0
3, 120960, Control_c, 0, 64, 0
3, 120960, Note_on_c, 0, 35, 67
3, 121123, Control_c, 0, 64, 127
3, 121200, Note_on_c, 0, 35, 0
3, 121440, Note_on_c, 0, 47, 51
3, 121440, Note_on_c, 0, 49, 51
3, 121440, Note_on_c, 0, 52, 51
3, 121440, Note_on_c, 0, 55, 57
3, 122400, Note_on_c, 0, 55, 0
3, 122400, Note_on_c, 0, 47, 0
3, 122400, Note_on_c, 0, 49, 0
3, 122400, Note_on_c, 0, 52, 0
3, 122400, Note_on_c, 0, 50, 72
3, 122403, Control_c, 0, 64, 0
3, 122492, Control_c, 0, 64, 127
3, 122640, Note_on_c, 0, 54, 52
3, 122640, Note_on_c, 0, 59, 58
3, 122880, Note_on_c, 0, 59, 0
3, 122880, Note_on_c, 0, 54, 0
3, 122880, Note_on_c, 0, 50, 0
3, 122880, Note_on_c, 0, 49, 80
3, 122886, Control_c, 0, 64, 0
3, 123029, Control_c, 0, 64, 127
3, 123120, Note_on_c, 0, 54, 55
3, 123120, Note_on_c, 0, 58, 62
3, 123360, Note_on_c, 0, 58, 0
3, 123360, Note_on_c, 0, 54, 0
3, 123360, Note_on_c, 0, 49, 0
3, 123360, Note_on_c, 0, 47, 72
3, 123367, Control_c, 0, 64, 0
3, 123452, Control_c, 0, 64, 127
3, 123600, Note_on_c, 0, 54, 51
3, 123600, Note_on_c, 0, 59, 57
3, 123840, Note_on_c, 0, 59, 0
3, 123840, Note_on_c, 0, 54, 0
3, 123840, Note_on_c, 0, 47, 0
3, 123840, Control_c, 0, 64, 0
3, 123840, Note_on_c, 0, 42, 80
3, 123937, Control_c, 0, 64, 126
3, 124320, Note_on_c, 0, 42, 0
3, 124320, Note_on_c, 0, 54, 51
3, 124320, Note_on_c, 0, 58, 57
3, 125280, Note_on_c, 0, 58, 0
3, 125280, Note_on_c, 0, 54, 0
3, 125280, Note_on_c, 0, 42, 81
3, 125290, Control_c, 0, 64, 0
3, 125457, Control_c, 0, 64, 127
3, 125760, Note_on_c, 0, 42, 0
3, 125760, Note_on_c, 0, 54, 57
3, 125760, Note_on_c, 0, 58, 57
3, 125760, Note_on_c, 0, 61, 64
3, 126720, Note_on_c, 0, 61, 0
3, 126720, Note_on_c, 0, 58, 0
3, 126720, Note_on_c, 0, 54, 0
3, 126720, Note_on_c, 0, 47, 80
3, 126727, Control_c, 0, 64, 0
3, 126861, Control_c, 0, 64, 127
3, 127200, Note_on_c, 0, 47, 0
3, 127200, Note_on_c, 0, 54, 50
3, 127200, Note_on_c, 0, 59, 56
3, 128160, Note_on_c, 0, 59, 0
3, 128160, Note_on_c, 0, 54, 0
3, 128160, Note_on_c, 0, 43, 72
3, 128163, Control_c, 0, 64, 0
3, 128301, Control_c, 0, 64, 127
3, 128400, Note_on_c, 0, 43, 0
3, 128400, Note_on_c, 0, 55, 56
3, 128640, Note_on_c, 0, 55, 0
3, 128640, Note_on_c, 0, 40, 79
3, 128653, Control_c, 0, 64, 0
3, 128796, Control_c, 0, 64, 127
3, 128880, Note_on_c, 0, 40, 0
3, 128880, Note_on_c, 0, 52, 59
3, 129120, Note_on_c, 0, 52, 0
3, 129120, Note_on_c, 0, 43, 72
3, 129132, Control_c, 0, 64, 0
3, 129276, Control_c, 0, 64, 127
3, 129360, Note_on_c, 0, 43, 0
3, 129360, Note_on_c, 0, 55, 57
3, 129600, Note_on_c, 0, 55, 0
3, 129600, Control_c, 0, 64, 0
3, 129600, Note_on_c, 0, 47, 79
3, 129727, Control_c, 0, 64, 125
3, 130080, Note_on_c, 0, 47, 0
3, 130080, Note_on_c, 0, 54, 57
3, 130080, Note_on_c, 0, 59, 64
3, 131040, Note_on_c, 0, 59, 0
3, 131040, Note_on_c, 0, 54, 0
3, 131040, Control_c, 0, 64, 0
3, 131040, Note_on_c, 0, 35, 45
3, 131160, Control_c, 0, 64, 127
3, 131280, Note_on_c, 0, 35, 0
3, 131520, Note_on_c, 0, 47, 28
3, 131520, Note_on_c, 0, 50, 28
3, 131520, Note_on_c, 0, 54, 32
3, 132480, Note_on_c, 0, 54, 0
3, 132480, Note_on_c, 0, 50, 0
3, 132480, Note_on_c, 0, 47, 0
3, 132480, Control_c, 0, 64, 0
3, 132480, Note_on_c, 0, 35, 43
3, 132664, Control_c, 0, 64, 127
3, 132720, Note_on_c, 0, 35, 0
3, 132960, Note_on_c, 0, 47, 28
3, 132960, Note_on_c, 0, 49, 28
3, 132960, Note_on_c, 0, 52, 28
3, 132960, Note_on_c, 0, 55, 32
3, 133920, Note_on_c, 0, 55, 0
3, 133920, Note_on_c, 0, 47, 0
3, 133920, Note_on_c, 0, 49, 0
3, 133920, Note_on_c, 0, 52, 0
3, 133920, Control_c, 0, 64, 0
3, 133920, Note_on_c, 0, 50, 45
3, 134012, Control_c, 0, 64, 127
3, 134160, Note_on_c, 0, 54, 36
3, 134160, Note_on_c, 0, 59, 40
3, 134400, Note_on_c, 0, 59, 0
3, 134400, Note_on_c, 0, 54, 0
3, 134400, Note_on_c, 0, 50, 0
3, 134400, Note_on_c, 0, 49, 48
3, 134404, Control_c, 0, 64, 0
3, 134503, Control_c, 0, 64, 127
3, 134640, Note_on_c, 0, 54, 37
3, 134640, Note_on_c, 0, 58, 42
3, 134880, Note_on_c, 0, 58, 0
3, 134880, Note_on_c, 0, 54, 0
3, 134880, Note_on_c, 0, 49, 0
3, 134880, Note_on_c, 0, 47, 45
3, 134888, Control_c, 0, 64, 0
3, 134995, Control_c, 0, 64, 127
3, 135120, Note_on_c, 0, 54, 36
3, 135120, Note_on_c, 0, 59, 40
3, 135360, Note_on_c, 0, 59, 0
3, 135360, Note_on_c, 0, 54, 0
3, 135360, Note_on_c, 0, 47, 0
3, 135360, Note_on_c, 0, 42, 44
3, 135364, Control_c, 0, 64, 0
3, 135549, Control_c, 0, 64, 126
3, 135840, Note_on_c, 0, 42, 0
3, 135840, Note_on_c, 0, 54, 31
3, 135840, Note_on_c, 0, 58, 35
3, 136800, Note_on_c, 0, 58, 0
3, 136800, Note_on_c, 0, 54, 0
3, 136800, Note_on_c, 0, 42, 74
3, 136803, Control_c, 0, 64, 0
3, 136897, Control_c, 0, 64, 127
3, 137280, Note_on_c, 0, 42, 0
3, 137280, Note_on_c, 0, 54, 57
3, 137280, Note_on_c, 0, 58, 57
3, 137280, Note_on_c, 0, 61, 64
3, 138240, Note_on_c, 0, 61, 0
3, 138240, Note_on_c, 0, 58, 0
3, 138240, Note_on_c, 0, 54, 0
3, 138240, Control_c, 0, 64, 0
3, 138240, Note_on_c, 0, 47, 73
3, 138374, Control_c, 0, 64, 127
3, 138720, Note_on_c, 0, 47, 0
3, 138720, Note_on_c, 0, 54, 56
3, 138720, Note_on_c, 0, 59, 63
3, 139680, Note_on_c, 0, 59, 0
3, 139680, Note_on_c, 0, 54, 0
3, 139680, Control_c, 0, 64, 0
3, 139680, Note_on_c, 0, 38, 64
3, 139755, Control_c, 0, 64, 127
3, 139920, Note_on_c, 0, 38, 0
3, 139920, Note_on_c, 0, 50, 57
3, 140160, Note_on_c, 0, 50, 0
3, 140160, Note_on_c, 0, 35, 72
3, 140165, Control_c, 0, 64, 0
3, 140251, Control_c, 0, 64, 127
3, 140400, Note_on_c, 0, 35, 0
3, 140400, Note_on_c, 0, 47, 60
3, 140640, Note_on_c, 0, 47, 0
3, 140640, Note_on_c, 0, 38, 64
3, 140652, Control_c, 0, 64, 0
3, 140781, Control_c, 0, 64, 127
3, 140880, Note_on_c, 0, 38, 0
3, 140880, Note_on_c, 0, 50, 57
3, 141120, Note_on_c, 0, 50, 0
3, 141120, Control_c, 0, 64, 0
3, 141120, Note_on_c, 0, 37, 81
3, 141275, Control_c, 0, 64, 127
3, 141600, Note_on_c, 0, 37, 0
3, 141600, Note_on_c, 0, 49, 43
3, 141600, Note_on_c, 0, 53, 43
3, 141600, Note_on_c, 0, 56, 48
3, 142560, Note_on_c, 0, 56, 0
3, 142560, Note_on_c, 0, 53, 0
3, 142560, Note_on_c, 0, 49, 0
3, 142560, Note_on_c, 0, 42, 48
3, 142563, Control_c, 0, 64, 0
3, 142765, Control_c, 0, 64, 126
3, 142800, Note_on_c, 0, 42, 0
3, 143040, Note_on_c, 0, 54, 40
3, 144000, Note_on_c, 0, 54, 0
3, 144000, Note_on_c, 0, 35, 48
3, 144003, Control_c, 0, 64, 0
3, 144212, Control_c, 0, 64, 126
3, 144240, Note_on_c, 0, 35, 0
3, 144480, Note_on_c, 0, 47, 36
3, 144480, Note_on_c, 0, 50, 40
3, 145440, Note_on_c, 0, 50, 0
3, 145440, Note_on_c, 0, 47, 0
3, 145440, Control_c, 0, 64, 0
3, 145440, Note_on_c, 0, 37, 48
3, 145612, Control_c, 0, 64, 125
3, 145920, Note_on_c, 0, 37, 0
3, 145920, Note_on_c, 0, 53, 40
3, 145920, Note_on_c, 0, 49, 36
3, 146400, Note_on_c, 0, 49, 0
3, 146400, Note_on_c, 0, 53, 0
3, 146400, Note_on_c, 0, 37, 40
3, 146880, Note_on_c, 0, 37, 0
3, 146880, Note_on_c, 0, 42, 40
3, 146893, Control_c, 0, 64, 0
3, 147078, Control_c, 0, 64, 127
3, 147360, Note_on_c, 0, 42, 0
3, 147360, Note_on_c, 0, 45, 28
3, 147360, Note_on_c, 0, 49, 32
3, 148320, Note_on_c, 0, 49, 0
3, 148320, Note_on_c, 0, 45, 0
3, 148320, Note_on_c, 0, 35, 77
3, 148329, Control_c, 0, 64, 0
3, 148483, Control_c, 0, 64, 127
3, 148800, Note_on_c, 0, 35, 0
3, 148800, Note_on_c, 0, 53, 64
3, 148800, Note_on_c, 0, 50, 57
3, 148800, Note_on_c, 0, 47, 57
3, 149760, Note_on_c, 0, 47, 0
3, 149760, Note_on_c, 0, 50, 0
3, 149760, Note_on_c, 0, 53, 0
3, 149760, Note_on_c, 0, 30, 64
3, 149774, Control_c, 0, 64, 0
3, 149979, Control_c, 0, 64, 127
3, 150240, Note_on_c, 0, 30, 0
3, 150240, Note_on_c, 0, 49, 42
3, 150240, Note_on_c, 0, 45, 37
3, 151200, Note_on_c, 0, 45, 0
3, 151200, Note_on_c, 0, 49, 0
3, 151200, Note_on_c, 0, 37, 63
3, 151203, Control_c, 0, 64, 0
3, 151680, Note_on_c, 0, 37, 0
3, 151680, Note_on_c, 0, 49, 63
3, 152640, Note_on_c, 0, 49, 0
3, 152640, Note_on_c, 0, 30, 64
3, 152683, Control_c, 0, 64, 0
3, 152796, Control_c, 0, 64, 127
3, 153120, Note_on_c, 0, 30, 0
3, 153120, Note_on_c, 0, 49, 48
3, 153120, Note_on_c, 0, 45, 43
3, 153120, Note_on_c, 0, 42, 43
3, 154080, Note_on_c, 0, 42, 0
3, 154080, Note_on_c, 0, 45, 0
3, 154080, Note_on_c, 0, 49, 0
3, 154080, Note_on_c, 0, 35, 84
3, 154083, Control_c, 0, 64, 0
3, 154278, Control_c, 0, 64, 127
3, 154560, Note_on_c, 0, 35, 0
3, 154560, Note_on_c, 0, 53, 72
3, 154560, Note_on_c, 0, 50, 64
3, 154560, Note_on_c, 0, 47, 64
3, 155520, Note_on_c, 0, 47, 0
3, 155520, Note_on_c, 0, 50, 0
3, 155520, Note_on_c, 0, 53, 0
3, 155520, Note_on_c, 0, 30, 64
3, 155556, Control_c, 0, 64, 0
3, 155697, Control_c, 0, 64, 127
3, 156000, Note_on_c, 0, 30, 0
3, 156000, Note_on_c, 0, 49, 44
3, 156000, Note_on_c, 0, 45, 39
3, 156960, Note_on_c, 0, 45, 0
3, 156960, Note_on_c, 0, 49, 0
3, 156960, Control_c, 0, 64, 0
3, 156960, Note_on_c, 0, 37, 64
3, 157440, Note_on_c, 0, 37, 0
3, 157440, Note_on_c, 0, 49, 64
3, 158400, Note_on_c, 0, 49, 0
3, 158400, Note_on_c, 0, 30, 64
3, 158414, Control_c, 0, 64, 0
3, 158570, Control_c, 0, 64, 127
3, 158880, Note_on_c, 0, 30, 0
3, 158880, Note_on_c, 0, 49, 40
3, 158880, Note_on_c, 0, 45, 36
3, 158880, Note_on_c, 0, 42, 36
3, 159840, Note_on_c, 0, 42, 0
3, 159840, Note_on_c, 0, 45, 0
3, 159840, Note_on_c, 0, 49, 0
3, 159840, Note_on_c, 0, 41, 81
3, 159846, Control_c, 0, 64, 0
3, 159960, Control_c, 0, 64, 127
3, 160320, Note_on_c, 0, 41, 0
3, 160320, Note_on_c, 0, 53, 57
3, 160320, Note_on_c, 0, 56, 64
3, 161280, Note_on_c, 0, 56, 0
3, 161280, Note_on_c, 0, 53, 0
3, 161280, Note_on_c, 0, 40, 81
3, 161282, Control_c, 0, 64, 0
3, 161355, Control_c, 0, 64, 127
3, 161760, Note_on_c, 0, 40, 0
3, 161760, Note_on_c, 0, 52, 54
3, 161760, Note_on_c, 0, 55, 61
3, 162720, Note_on_c, 0, 55, 0
3, 162720, Note_on_c, 0, 52, 0
3, 162720, Control_c, 0, 64, 0
3, 162720, Note_on_c, 0, 50, 72
3, 162835, Control_c, 0, 64, 127
3, 162960, Note_on_c, 0, 54, 51
3, 162960, Note_on_c, 0, 59, 57
3, 163200, Note_on_c, 0, 59, 0
3, 163200, Note_on_c, 0, 54, 0
3, 163200, Note_on_c, 0, 50, 0
3, 163200, Note_on_c, 0, 49, 72
3, 163212, Control_c, 0, 64, 0
3, 163383, Control_c, 0, 64, 127
3, 163440, Note_on_c, 0, 54, 51
3, 163440, Note_on_c, 0, 58, 57
3, 163680, Note_on_c, 0, 58, 0
3, 163680, Note_on_c, 0, 54, 0
3, 163680, Note_on_c, 0, 49, 0
3, 163680, Note_on_c, 0, 47, 72
3, 163692, Control_c, 0, 64, 0
3, 163829, Control_c, 0, 64, 127
3, 163920, Note_on_c, 0, 54, 51
3, 163920, Note_on_c, 0, 59, 57
3, 164160, Note_on_c, 0, 59, 0
3, 164160, Note_on_c, 0, 54, 0
3, 164160, Note_on_c, 0, 47, 0
3, 164160, Control_c, 0, 64, 0
3, 164160, Note_on_c, 0, 42, 72
3, 164263, Control_c, 0, 64, 127
3, 164640, Note_on_c, 0, 42, 0
3, 164640, Note_on_c, 0, 54, 57
3, 164640, Note_on_c, 0, 58, 64
3, 165600, Note_on_c, 0, 58, 0
3, 165600, Note_on_c, 0, 54, 0
3, 165600, Note_on_c, 0, 46, 72
3, 165604, Control_c, 0, 64, 0
3, 165720, Control_c, 0, 64, 127
3, 166080, Note_on_c, 0, 46, 0
3, 166080, Note_on_c, 0, 61, 64
3, 166080, Note_on_c, 0, 58, 57
3, 167040, Note_on_c, 0, 58, 0
3, 167040, Note_on_c, 0, 61, 0
3, 167040, Control_c, 0, 64, 0
3, 167040, Note_on_c, 0, 45, 80
3, 167200, Control_c, 0, 64, 127
3, 167520, Note_on_c, 0, 45, 0
3, 167520, Note_on_c, 0, 60, 62
3, 167520, Note_on_c, 0, 57, 54
3, 168480, Note_on_c, 0, 57, 0
3, 168480, Note_on_c, 0, 60, 0
3, 168480, Note_on_c, 0, 55, 81
3, 168483, Control_c, 0, 64, 0
3, 168583, Control_c, 0, 64, 127
3, 168720, Note_on_c, 0, 64, 72
3, 168720, Note_on_c, 0, 59, 64
3, 168960, Note_on_c, 0, 59, 0
3, 168960, Note_on_c, 0, 64, 0
3, 168960, Note_on_c, 0, 55, 0
3, 168960, Note_on_c, 0, 54, 81
3, 168968, Control_c, 0, 64, 0
3, 169097, Control_c, 0, 64, 127
3, 169200, Note_on_c, 0, 63, 72
3, 169200, Note_on_c, 0, 59, 64
3, 169440, Note_on_c, 0, 59, 0
3, 169440, Note_on_c, 0, 63, 0
3, 169440, Note_on_c, 0, 54, 0
3, 169440, Note_on_c, 0, 52, 81
3, 169447, Control_c, 0, 64, 0
3, 169555, Control_c, 0, 64, 126
3, 169680, Note_on_c, 0, 59, 64
3, 169680, Note_on_c, 0, 64, 72
3, 169920, Note_on_c, 0, 64, 0
3, 169920, Note_on_c, 0, 59, 0
3, 169920, Note_on_c, 0, 52, 0
3, 169920, Control_c, 0, 64, 0
3, 169920, Note_on_c, 0, 47, 81
3, 170061, Control_c, 0, 64, 126
3, 170400, Note_on_c, 0, 47, 0
3, 170400, Note_on_c, 0, 59, 61
3, 170400, Note_on_c, 0, 62, 68
3, 171360, Note_on_c, 0, 62, 0
3, 171360, Note_on_c, 0, 59, 0
3, 171360, Note_on_c, 0, 35, 72
3, 171362, Control_c, 0, 64, 0
3, 171460, Control_c, 0, 64, 126
3, 171600, Note_on_c, 0, 35, 0
3, 171600, Note_on_c, 0, 47, 58
3, 171840, Note_on_c, 0, 47, 0
3, 171840, Note_on_c, 0, 37, 72
3, 171853, Control_c, 0, 64, 0
3, 171989, Control_c, 0, 64, 126
3, 172080, Note_on_c, 0, 37, 0
3, 172080, Note_on_c, 0, 49, 57
3, 172320, Note_on_c, 0, 49, 0
3, 172320, Note_on_c, 0, 38, 72
3, 172332, Control_c, 0, 64, 0
3, 172436, Control_c, 0, 64, 126
3, 172560, Note_on_c, 0, 38, 0
3, 172560, Note_on_c, 0, 50, 57
3, 172800, Note_on_c, 0, 50, 0
3, 172800, Control_c, 0, 64, 0
3, 172800, Note_on_c, 0, 37, 72
3, 172892, Control_c, 0, 64, 126
3, 173280, Note_on_c, 0, 37, 0
3, 173280, Note_on_c, 0, 49, 53
3, 173280, Note_on_c, 0, 53, 53
3, 173280, Note_on_c, 0, 56, 60
3, 174240, Note_on_c, 0, 56, 0
3, 174240, Note_on_c, 0, 53, 0
3, 174240, Note_on_c, 0, 49, 0
3, 174240, Control_c, 0, 64, 0
3, 174240, Note_on_c, 0, 30, 72
3, 174356, Control_c, 0, 64, 126
3, 174480, Note_on_c, 0, 30, 0
3, 174480, Note_on_c, 0, 42, 57
3, 174720, Note_on_c, 0, 42, 0
3, 174720, Note_on_c, 0, 32, 72
3, 174732, Control_c, 0, 64, 0
3, 174844, Control_c, 0, 64, 126
3, 174960, Note_on_c, 0, 32, 0
3, 174960, Note_on_c, 0, 44, 56
3, 175200, Note_on_c, 0, 44, 0
3, 175200, Note_on_c, 0, 33, 72
3, 175214, Control_c, 0, 64, 0
3, 175324, Control_c, 0, 64, 126
3, 175440, Note_on_c, 0, 33, 0
3, 175440, Note_on_c, 0, 45, 56
3, 175680, Note_on_c, 0, 45, 0
3, 175680, Control_c, 0, 64, 0
3, 175680, Note_on_c, 0, 32, 72
3, 175783, Control_c, 0, 64, 126
3, 176160, Note_on_c, 0, 32, 0
3, 176160, Note_on_c, 0, 51, 65
3, 176160, Note_on_c, 0, 48, 58
3, 176160, Note_on_c, 0, 44, 58
3, 177120, Note_on_c, 0, 44, 0
3, 177120, Note_on_c, 0, 48, 0
3, 177120, Note_on_c, 0, 51, 0
3, 177120, Control_c, 0, 64, 0
3, 177120, Note_on_c, 0, 37, 48
3, 177326, Control_c, 0, 64, 127
3, 177600, Note_on_c, 0, 37, 0
3, 177600, Note_on_c, 0, 53, 50
3, 177600, Note_on_c, 0, 49, 45
3, 177760, Note_on_c, 0, 53, 0
3, 177760, Note_on_c, 0, 56, 32
3, 177920, Note_on_c, 0, 56, 0
3, 177920, Note_on_c, 0, 61, 32
3, 178080, Note_on_c, 0, 61, 0
3, 178080, Note_on_c, 0, 53, 32
3, 178560, Note_on_c, 0, 53, 0
3, 178560, Note_on_c, 0, 49, 0
3, 178560, Control_c, 0, 64, 0
3, 178560, Note_on_c, 0, 33, 48
3, 178701, Control_c, 0, 64, 127
3, 179040, Note_on_c, 0, 33, 0
3, 179040, Note_on_c, 0, 54, 46
3, 179040, Note_on_c, 0, 45, 37
3, 179200, Note_on_c, 0, 54, 0
3, 179200, Note_on_c, 0, 57, 32
3, 179360, Note_on_c, 0, 57, 0
3, 179360, Note_on_c, 0, 61, 32
3, 179520, Note_on_c, 0, 61, 0
3, 179520, Note_on_c, 0, 54, 32
3, 180000, Note_on_c, 0, 54, 0
3, 180000, Note_on_c, 0, 45, 0
3, 180000, Control_c, 0, 64, 0
3, 180000, Note_on_c, 0, 55, 68
3, 180000, Note_on_c, 0, 35, 76
3, 180000, Note_on_c, 0, 59, 76
3, 180240, Note_on_c, 0, 59, 0
3, 180240, Note_on_c, 0, 35, 0
3, 180240, Note_on_c, 0, 55, 0
3, 180240, Note_on_c, 0, 47, 60
3, 180240, Note_on_c, 0, 62, 60
3, 180480, Note_on_c, 0, 62, 0
3, 180480, Note_on_c, 0, 47, 0
3, 180480, Note_on_c, 0, 54, 68
3, 180480, Note_on_c, 0, 57, 76
3, 180480, Note_on_c, 0, 37, 76
3, 180720, Note_on_c, 0, 37, 0
3, 180720, Note_on_c, 0, 57, 0
3, 180720, Note_on_c, 0, 54, 0
3, 180720, Note_on_c, 0, 61, 60
3, 180720, Note_on_c, 0, 49, 60
3, 180960, Note_on_c, 0, 49, 0
3, 180960, Note_on_c, 0, 61, 0
3, 180960, Note_on_c, 0, 53, 68
3, 180960, Note_on_c, 0, 56, 76
3, 180960, Note_on_c, 0, 37, 76
3, 181200, Note_on_c, 0, 37, 0
3, 181200, Note_on_c, 0, 56, 0
3, 181200, Note_on_c, 0, 53, 0
3, 181200, Note_on_c, 0, 61, 60
3, 181200, Note_on_c, 0, 49, 60
3, 181440, Note_on_c, 0, 49, 0
3, 181440, Note_on_c, 0, 61, 0
3, 181440, Note_on_c, 0, 54, 75
3, 181440, Note_on_c, 0, 42, 67
3, 181600, Note_on_c, 0, 54, 0
3, 181600, Note_on_c, 0, 50, 69
3, 181760, Note_on_c, 0, 50, 0
3, 181760, Note_on_c, 0, 49, 74
3, 181920, Note_on_c, 0, 49, 0
3, 181920, Note_on_c, 0, 42, 0
3, 181920, Note_on_c, 0, 47, 75
3, 182080, Note_on_c, 0, 47, 0
3, 182080, Note_on_c, 0, 45, 69
3, 182240, Note_on_c, 0, 45, 0
3, 182240, Note_on_c, 0, 44, 69
3, 182400, Note_on_c, 0, 44, 0
3, 182400, Note_on_c, 0, 42, 79
3, 182640, Note_on_c, 0, 42, 0
3, 182880, Note_on_c, 0, 35, 48
3, 183028, Control_c, 0, 64, 126
3, 183360, Note_on_c, 0, 35, 0
3, 183360, Note_on_c, 0, 47, 28
3, 183360, Note_on_c, 0, 50, 28
3, 183360, Note_on_c, 0, 54, 32
3, 184320, Note_on_c, 0, 54, 0
3, 184320, Note_on_c, 0, 50, 0
3, 184320, Note_on_c, 0, 47, 0
3, 184320, Control_c, 0, 64, 0
3, 184320, Note_on_c, 0, 35, 48
3, 184454, Control_c, 0, 64, 127
3, 184800, Note_on_c, 0, 35, 0
3, 184800, Note_on_c, 0, 47, 28
3, 184800, Note_on_c, 0, 49, 28
3, 184800, Note_on_c, 0, 52, 28
3, 184800, Note_on_c, 0, 55, 32
3, 185760, Note_on_c, 0, 55, 0
3, 185760, Note_on_c, 0, 47, 0
3, 185760, Note_on_c, 0, 49, 0
3, 185760, Note_on_c, 0, 52, 0
3, 185760, Control_c, 0, 64, 0
3, 185760, Note_on_c, 0, 50, 48
3, 185875, Control_c, 0, 64, 126
3, 186000, Note_on_c, 0, 54, 28
3, 186000, Note_on_c, 0, 59, 32
3, 186240, Note_on_c, 0, 59, 0
3, 186240, Note_on_c, 0, 54, 0
3, 186240, Note_on_c, 0, 50, 0
3, 186240, Note_on_c, 0, 49, 48
3, 186249, Control_c, 0, 64, 0
3, 186355, Control_c, 0, 64, 126
3, 186480, Note_on_c, 0, 54, 28
3, 186480, Note_on_c, 0, 58, 32
3, 186720, Note_on_c, 0, 58, 0
3, 186720, Note_on_c, 0, 54, 0
3, 186720, Note_on_c, 0, 49, 0
3, 186720, Note_on_c, 0, 47, 48
3, 186726, Control_c, 0, 64, 0
3, 186857, Control_c, 0, 64, 126
3, 186960, Note_on_c, 0, 54, 28
3, 186960, Note_on_c, 0, 59, 32
3, 187200, Note_on_c, 0, 59, 0
3, 187200, Note_on_c, 0, 54, 0
3, 187200, Note_on_c, 0, 47, 0
3, 187200, Note_on_c, 0, 42, 48
3, 187201, Control_c, 0, 64, 0
3, 187360, Control_c, 0, 64, 125
3, 187680, Note_on_c, 0, 42, 0
3, 187680, Note_on_c, 0, 54, 28
3, 187680, Note_on_c, 0, 58, 32
3, 188640, Note_on_c, 0, 58, 0
3, 188640, Note_on_c, 0, 54, 0
3, 188640, Note_on_c, 0, 42, 48
3, 188686, Control_c, 0, 64, 0
3, 188823, Control_c, 0, 64, 126
3, 189120, Note_on_c, 0, 42, 0
3, 189120, Note_on_c, 0, 54, 36
3, 189120, Note_on_c, 0, 58, 36
3, 189120, Note_on_c, 0, 61, 40
3, 190080, Note_on_c, 0, 61, 0
3, 190080, Note_on_c, 0, 58, 0
3, 190080, Note_on_c, 0, 54, 0
3, 190080, Note_on_c, 0, 47, 48
3, 190083, Control_c, 0, 64, 0
3, 190271, Control_c, 0, 64, 127
3, 190560, Note_on_c, 0, 47, 0
3, 190560, Note_on_c, 0, 54, 28
3, 190560, Note_on_c, 0, 59, 32
3, 191520, Note_on_c, 0, 59, 0
3, 191520, Note_on_c, 0, 54, 0
3, 191520, Control_c, 0, 64, 0
3, 191520, Note_on_c, 0, 43, 48
3, 191647, Control_c, 0, 64, 126
3, 191760, Note_on_c, 0, 43, 0
3, 191760, Note_on_c, 0, 55, 32
3, 192000, Note_on_c, 0, 55, 0
3, 192000, Note_on_c, 0, 40, 48
3, 192012, Control_c, 0, 64, 0
3, 192141, Control_c, 0, 64, 126
3, 192240, Note_on_c, 0, 40, 0
3, 192240, Note_on_c, 0, 52, 32
3, 192480, Note_on_c, 0, 52, 0
3, 192480, Note_on_c, 0, 43, 48
3, 192487, Control_c, 0, 64, 0
3, 192607, Control_c, 0, 64, 126
3, 192720, Note_on_c, 0, 43, 0
3, 192720, Note_on_c, 0, 55, 32
3, 192960, Note_on_c, 0, 55, 0
3, 192960, Note_on_c, 0, 47, 48
3, 192968, Control_c, 0, 64, 0
3, 193087, Control_c, 0, 64, 127
3, 193440, Note_on_c, 0, 47, 0
3, 193440, Note_on_c, 0, 54, 28
3, 193440, Note_on_c, 0, 59, 32
3, 194400, Note_on_c, 0, 59, 0
3, 194400, Note_on_c, 0, 54, 0
3, 194400, Control_c, 0, 64, 0
3, 194400, Note_on_c, 0, 40, 81
3, 194548, Control_c, 0, 64, 125
3, 194640, Note_on_c, 0, 40, 0
3, 194880, Note_on_c, 0, 52, 57
3, 194880, Note_on_c, 0, 55, 57
3, 194880, Note_on_c, 0, 59, 64
3, 195840, Note_on_c, 0, 59, 0
3, 195840, Note_on_c, 0, 55, 0
3, 195840, Note_on_c, 0, 52, 0
3, 195840, Control_c, 0, 64, 0
3, 195840, Note_on_c, 0, 40, 81
3, 195966, Control_c, 0, 64, 126
3, 196320, Note_on_c, 0, 40, 0
3, 196320, Note_on_c, 0, 52, 57
3, 196320, Note_on_c, 0, 54, 57
3, 196320, Note_on_c, 0, 57, 57
3, 196320, Note_on_c, 0, 60, 64
3, 197280, Note_on_c, 0, 60, 0
3, 197280, Note_on_c, 0, 52, 0
3, 197280, Note_on_c, 0, 54, 0
3, 197280, Note_on_c, 0, 57, 0
3, 197280, Note_on_c, 0, 55, 64
3, 197285, Control_c, 0, 64, 0
3, 197395, Control_c, 0, 64, 126
3, 197520, Note_on_c, 0, 59, 51
3, 197520, Note_on_c, 0, 64, 57
3, 197760, Note_on_c, 0, 64, 0
3, 197760, Note_on_c, 0, 59, 0
3, 197760, Note_on_c, 0, 55, 0
3, 197760, Note_on_c, 0, 54, 64
3, 197771, Control_c, 0, 64, 0
3, 197897, Control_c, 0, 64, 126
3, 198000, Note_on_c, 0, 59, 51
3, 198000, Note_on_c, 0, 63, 57
3, 198240, Note_on_c, 0, 63, 0
3, 198240, Note_on_c, 0, 59, 0
3, 198240, Note_on_c, 0, 54, 0
3, 198240, Note_on_c, 0, 52, 64
3, 198254, Control_c, 0, 64, 0
3, 198377, Control_c, 0, 64, 125
3, 198480, Note_on_c, 0, 59, 51
3, 198480, Note_on_c, 0, 64, 57
3, 198720, Note_on_c, 0, 64, 0
3, 198720, Note_on_c, 0, 59, 0
3, 198720, Note_on_c, 0, 52, 0
3, 198720, Control_c, 0, 64, 0
3, 198720, Note_on_c, 0, 47, 64
3, 198835, Control_c, 0, 64, 125
3, 199200, Note_on_c, 0, 47, 0
3, 199200, Note_on_c, 0, 63, 56
3, 199200, Note_on_c, 0, 59, 50
3, 200160, Note_on_c, 0, 59, 0
3, 200160, Note_on_c, 0, 63, 0
3, 200160, Note_on_c, 0, 47, 81
3, 200162, Control_c, 0, 64, 0
3, 200315, Control_c, 0, 64, 127
3, 200640, Note_on_c, 0, 47, 0
3, 200640, Note_on_c, 0, 59, 57
3, 200640, Note_on_c, 0, 63, 57
3, 200640, Note_on_c, 0, 66, 64
3, 201600, Note_on_c, 0, 66, 0
3, 201600, Note_on_c, 0, 63, 0
3, 201600, Note_on_c, 0, 59, 0
3, 201600, Note_on_c, 0, 52, 81
3, 201606, Control_c, 0, 64, 0
3, 201819, Control_c, 0, 64, 127
3, 202080, Note_on_c, 0, 52, 0
3, 202080, Note_on_c, 0, 64, 64
3, 202080, Note_on_c, 0, 59, 57
3, 203040, Note_on_c, 0, 59, 0
3, 203040, Note_on_c, 0, 64, 0
3, 203040, Control_c, 0, 64, 0
3, 203040, Note_on_c, 0, 43, 57
3, 203204, Control_c, 0, 64, 125
3, 203280, Note_on_c, 0, 43, 0
3, 203280, Note_on_c, 0, 55, 45
3, 203520, Note_on_c, 0, 55, 0
3, 203520, Note_on_c, 0, 40, 64
3, 203532, Control_c, 0, 64, 0
3, 203659, Control_c, 0, 64, 125
3, 203760, Note_on_c, 0, 40, 0
3, 203760, Note_on_c, 0, 52, 54
3, 204000, Note_on_c, 0, 52, 0
3, 204000, Note_on_c, 0, 43, 57
3, 204012, Control_c, 0, 64, 0
3, 204139, Control_c, 0, 64, 125
3, 204240, Note_on_c, 0, 43, 0
3, 204240, Note_on_c, 0, 55, 45
3, 204480, Note_on_c, 0, 55, 0
3, 204480, Control_c, 0, 64, 0
3, 204480, Note_on_c, 0, 42, 64
3, 204600, Control_c, 0, 64, 125
3, 204960, Note_on_c, 0, 42, 0
3, 204960, Note_on_c, 0, 54, 50
3, 204960, Note_on_c, 0, 58, 50
3, 204960, Note_on_c, 0, 61, 56
3, 205920, Note_on_c, 0, 61, 0
3, 205920, Note_on_c, 0, 58, 0
3, 205920, Note_on_c, 0, 54, 0
3, 205920, Control_c, 0, 64, 0
3, 205920, Note_on_c, 0, 47, 48
3, 206061, Control_c, 0, 64, 126
3, 206400, Note_on_c, 0, 47, 0
3, 206400, Note_on_c, 0, 54, 28
3, 206400, Note_on_c, 0, 59, 32
3, 207360, Note_on_c, 0, 59, 0
3, 207360, Note_on_c, 0, 54, 0
3, 207360, Control_c, 0, 64, 0
3, 207360, Note_on_c, 0, 40, 48
3, 207566, Control_c, 0, 64, 126
3, 207840, Note_on_c, 0, 40, 0
3, 207840, Note_on_c, 0, 52, 28
3, 207840, Note_on_c, 0, 55, 32
3, 208800, Note_on_c, 0, 55, 0
3, 208800, Note_on_c, 0, 52, 0
3, 208800, Note_on_c, 0, 42, 48
3, 208805, Control_c, 0, 64, 1
3, 208984, Control_c, 0, 64, 127
3, 209280, Note_on_c, 0, 42, 0
3, 209280, Note_on_c, 0, 54, 28
3, 209280, Note_on_c, 0, 58, 32
3, 209760, Note_on_c, 0, 58, 0
3, 209760, Note_on_c, 0, 54, 0
3, 209760, Note_on_c, 0, 42, 48
3, 210240, Note_on_c, 0, 42, 0
3, 210240, Control_c, 0, 64, 0
3, 210240, Note_on_c, 0, 35, 48
3, 210403, Control_c, 0, 64, 126
3, 210720, Note_on_c, 0, 35, 0
3, 210720, Note_on_c, 0, 47, 28
3, 210720, Note_on_c, 0, 50, 28
3, 210720, Note_on_c, 0, 54, 32
3, 211680, Note_on_c, 0, 54, 0
3, 211680, Note_on_c, 0, 50, 0
3, 211680, Note_on_c, 0, 47, 0
3, 211680, Control_c, 0, 64, 0
3, 211680, Note_on_c, 0, 40, 73
3, 211899, Control_c, 0, 64, 125
3, 211920, Note_on_c, 0, 40, 0
3, 212160, Note_on_c, 0, 52, 60
3, 212160, Note_on_c, 0, 55, 60
3, 212160, Note_on_c, 0, 58, 67
3, 213120, Note_on_c, 0, 58, 0
3, 213120, Note_on_c, 0, 55, 0
3, 213120, Note_on_c, 0, 52, 0
3, 213120, Note_on_c, 0, 35, 48
3, 213127, Control_c, 0, 64, 0
3, 213360, Control_c, 0, 64, 127
3, 213600, Note_on_c, 0, 35, 0
3, 213600, Note_on_c, 0, 50, 28
3, 213600, Note_on_c, 0, 54, 32
3, 214560, Note_on_c, 0, 54, 0
3, 214560, Note_on_c, 0, 50, 0
3, 214560, Note_on_c, 0, 42, 48
3, 214567, Control_c, 0, 64, 0
3, 215040, Note_on_c, 0, 42, 0
3, 215040, Note_on_c, 0, 54, 48
3, 216000, Note_on_c, 0, 54, 0
3, 216000, Control_c, 0, 64, 0
3, 216000, Note_on_c, 0, 35, 48
3, 216191, Control_c, 0, 64, 125
3, 216480, Note_on_c, 0, 35, 0
3, 216480, Note_on_c, 0, 47, 28
3, 216480, Note_on_c, 0, 50, 28
3, 216480, Note_on_c, 0, 54, 32
3, 217440, Note_on_c, 0, 54, 0
3, 217440, Note_on_c, 0, 50, 0
3, 217440, Note_on_c, 0, 47, 0
3, 217440, Control_c, 0, 64, 0
3, 217440, Note_on_c, 0, 40, 71
3, 217610, Control_c, 0, 64, 127
3, 217680, Note_on_c, 0, 40, 0
3, 217920, Note_on_c, 0, 58, 64
3, 217920, Note_on_c, 0, 55, 57
3, 217920, Note_on_c, 0, 52, 57
3, 218880, Note_on_c, 0, 52, 0
3, 218880, Note_on_c, 0, 55, 0
3, 218880, Note_on_c, 0, 58, 0
3, 218880, Control_c, 0, 64, 0
3, 218880, Note_on_c, 0, 35, 48
3, 219057, Control_c, 0, 64, 126
3, 219360, Note_on_c, 0, 35, 0
3, 219360, Note_on_c, 0, 50, 28
3, 219360, Note_on_c, 0, 54, 32
3, 220320, Note_on_c, 0, 54, 0
3, 220320, Note_on_c, 0, 50, 0
3, 220320, Note_on_c, 0, 42, 48
3, 220326, Control_c, 0, 64, 0
3, 220800, Note_on_c, 0, 42, 0
3, 220800, Note_on_c, 0, 54, 47
3, 221760, Note_on_c, 0, 54, 0
3, 221760, Note_on_c, 0, 35, 48
3, 221765, Control_c, 0, 64, 0
3, 221951, Control_c, 0, 64, 127
3, 222240, Note_on_c, 0, 35, 0
3, 222240, Note_on_c, 0, 47, 28
3, 222240, Note_on_c, 0, 50, 28
3, 222240, Note_on_c, 0, 54, 32
3, 223200, Note_on_c, 0, 54, 0
3, 223200, Note_on_c, 0, 50, 0
3, 223200, Note_on_c, 0, 47, 0
3, 223200, Control_c, 0, 64, 0
3, 223200, Note_on_c, 0, 35, 81
3, 223377, Control_c, 0, 64, 126
3, 223680, Note_on_c, 0, 35, 0
3, 223680, Note_on_c, 0, 47, 54
3, 223680, Note_on_c, 0, 50, 54
3, 223680, Note_on_c, 0, 54, 60
3, 224640, Note_on_c, 0, 54, 0
3, 224640, Note_on_c, 0, 50, 0
3, 224640, Note_on_c, 0, 47, 0
3, 224640, Note_on_c, 0, 35, 81
3, 224645, Control_c, 0, 64, 0
3, 224810, Control_c, 0, 64, 125
3, 225120, Note_on_c, 0, 35, 0
3, 225120, Note_on_c, 0, 47, 54
3, 225120, Note_on_c, 0, 50, 54
3, 225120, Note_on_c, 0, 54, 60
3, 226080, Note_on_c, 0, 54, 0
3, 226080, Note_on_c, 0, 50, 0
3, 226080, Note_on_c, 0, 47, 0
3, 226080, Control_c, 0, 64, 0
3, 226080, Note_on_c, 0, 35, 73
3, 226214, Control_c, 0, 64, 125
3, 226560, Note_on_c, 0, 35, 0
3, 226560, Note_on_c, 0, 47, 54
3, 226560, Note_on_c, 0, 50, 54
3, 226560, Note_on_c, 0, 54, 60
3, 227040, Note_on_c, 0, 54, 0
3, 227040, Note_on_c, 0, 50, 0
3, 227040, Note_on_c, 0, 47, 0
3, 227040, Note_on_c, 0, 35, 73
3, 227052, Control_c, 0, 64, 0
3, 227160, Control_c, 0, 64, 126
3, 227520, Note_on_c, 0, 35, 0
3, 227520, Note_on_c, 0, 47, 54
3, 227520, Note_on_c, 0, 50, 54
3, 227520, Note_on_c, 0, 54, 60
3, 228000, Note_on_c, 0, 54, 0
3, 228000, Note_on_c, 0, 50, 0
3, 228000, Note_on_c, 0, 47, 0
3, 228000, Note_on_c, 0, 35, 74
3, 228008, Control_c, 0, 64, 0
3, 228106, Control_c, 0, 64, 123
3, 228480, Note_on_c, 0, 35, 0
3, 228480, Note_on_c, 0, 47, 54
3, 228480, Note_on_c, 0, 50, 54
3, 228480, Note_on_c, 0, 54, 60
3, 228960, Note_on_c, 0, 54, 0
3, 228960, Note_on_c, 0, 50, 0
3, 228960, Note_on_c, 0, 47, 0
3, 228960, Control_c, 0, 64, 0
3, 228960, Note_on_c, 0, 34, 72
3, 229132, Control_c, 0, 64, 125
3, 229440, Note_on_c, 0, 34, 0
3, 229440, Note_on_c, 0, 46, 54
3, 229440, Note_on_c, 0, 51, 54
3, 229440, Note_on_c, 0, 54, 60
3, 230400, Note_on_c, 0, 54, 0
3, 230400, Note_on_c, 0, 51, 0
3, 230400, Note_on_c, 0, 46, 0
3, 230400, Control_c, 0, 64, 0
3, 230400, Note_on_c, 0, 34, 81
3, 230537, Control_c, 0, 64, 126
3, 230880, Note_on_c, 0, 34, 0
3, 230880, Note_on_c, 0, 46, 54
3, 230880, Note_on_c, 0, 51, 54
3, 230880, Note_on_c, 0, 54, 60
3, 231840, Note_on_c, 0, 54, 0
3, 231840, Note_on_c, 0, 51, 0
3, 231840, Note_on_c, 0, 46, 0
3, 231840, Control_c, 0, 64, 0
3, 231840, Note_on_c, 0, 34, 83
3, 231960, Control_c, 0, 64, 127
3, 232320, Note_on_c, 0, 34, 0
3, 232320, Note_on_c, 0, 46, 58
3, 232320, Note_on_c, 0, 51, 58
3, 232320, Note_on_c, 0, 54, 65
3, 232800, Note_on_c, 0, 54, 0
3, 232800, Note_on_c, 0, 51, 0
3, 232800, Note_on_c, 0, 46, 0
3, 232800, Note_on_c, 0, 34, 86
3, 232819, Control_c, 0, 64, 0
3, 232937, Control_c, 0, 64, 126
3, 233280, Note_on_c, 0, 34, 0
3, 233280, Note_on_c, 0, 46, 60
3, 233280, Note_on_c, 0, 51, 60
3, 233280, Note_on_c, 0, 54, 67
3, 233760, Note_on_c, 0, 54, 0
3, 233760, Note_on_c, 0, 51, 0
3, 233760, Note_on_c, 0, 46, 0
3, 233760, Note_on_c, 0, 34, 87
3, 233765, Control_c, 0, 64, 0
3, 233840, Control_c, 0, 64, 126
3, 234240, Note_on_c, 0, 34, 0
3, 234240, Note_on_c, 0, 46, 61
3, 234240, Note_on_c, 0, 51, 61
3, 234240, Note_on_c, 0, 54, 68
3, 234720, Note_on_c, 0, 54, 0
3, 234720, Note_on_c, 0, 51, 0
3, 234720, Note_on_c, 0, 46, 0
3, 234720, Control_c, 0, 64, 0
3, 234720, Note_on_c, 0, 32, 75
3, 234720, Note_on_c, 0, 44, 89
3, 235200, Note_on_c, 0, 44, 0
3, 235200, Note_on_c, 0, 32, 0
3, 235200, Note_on_c, 0, 53, 80
3, 235200, Note_on_c, 0, 51, 72
3, 235200, Note_on_c, 0, 47, 72
3, 235200, Note_on_c, 0, 44, 72
3, 236160, Note_on_c, 0, 44, 0
3, 236160, Note_on_c, 0, 53, 0
3, 236160, Note_on_c, 0, 51, 0
3, 236160, Note_on_c, 0, 47, 0
3, 236160, Note_on_c, 0, 47, 63
3, 236160, Note_on_c, 0, 54, 71
3, 236160, Note_on_c, 0, 51, 63
3, 236160, Note_on_c, 0, 44, 63
3, 237120, Note_on_c, 0, 44, 0
3, 237120, Note_on_c, 0, 47, 0
3, 237120, Note_on_c, 0, 54, 0
3, 237120, Note_on_c, 0, 51, 0
3, 237120, Note_on_c, 0, 54, 76
3, 237120, Note_on_c, 0, 51, 68
3, 237120, Note_on_c, 0, 47, 68
3, 237120, Note_on_c, 0, 44, 68
3, 237600, Note_on_c, 0, 44, 0
3, 237600, Note_on_c, 0, 54, 0
3, 237600, Note_on_c, 0, 51, 0
3, 237600, Note_on_c, 0, 47, 0
3, 237600, Note_on_c, 0, 59, 76
3, 237600, Note_on_c, 0, 56, 68
3, 237600, Note_on_c, 0, 53, 68
3, 237600, Note_on_c, 0, 46, 68
3, 237709, Control_c, 0, 64, 126
3, 240480, Note_on_c, 0, 46, 0
3, 240480, Note_on_c, 0, 59, 0
3, 240480, Note_on_c, 0, 56, 0
3, 240480, Note_on_c, 0, 53, 0
3, 240480, Note_on_c, 0, 58, 50
3, 240480, Note_on_c, 0, 56, 45
3, 240480, Note_on_c, 0, 53, 45
3, 240480, Note_on_c, 0, 46, 45
3, 240495, Control_c, 0, 64, 0
3, 240629, Control_c, 0, 64, 126
3, 243360, Note_on_c, 0, 46, 0
3, 243360, Note_on_c, 0, 58, 0
3, 243360, Note_on_c, 0, 56, 0
3, 243360, Note_on_c, 0, 53, 0
3, 243360, Control_c, 0, 64, 0
3, 243360, Note_on_c, 0, 51, 32
3, 243840, Note_on_c, 0, 58, 23
3, 244800, Note_on_c, 0, 58, 0
3, 244800, Note_on_c, 0, 51, 0
3, 244800, Note_on_c, 0, 53, 36
3, 245280, Note_on_c, 0, 58, 27
3, 245755, Note_on_c, 0, 58, 0
3, 246240, Note_on_c, 0, 53, 0
3, 246240, Note_on_c, 0, 55, 41
3, 246720, Note_on_c, 0, 58, 29
3, 247680, Note_on_c, 0, 58, 0
3, 247680, Note_on_c, 0, 55, 0
3, 247680, Note_on_c, 0, 50, 45
3, 248160, Note_on_c, 0, 58, 31
3, 249120, Note_on_c, 0, 58, 0
3, 249120, Note_on_c, 0, 50, 0
3, 249120, Note_on_c, 0, 51, 42
3, 249600, Note_on_c, 0, 58, 31
3, 250560, Note_on_c, 0, 58, 0
3, 250560, Note_on_c, 0, 51, 0
3, 250560, Note_on_c, 0, 44, 41
3, 251040, Note_on_c, 0, 44, 0
3, 251040, Note_on_c, 0, 60, 29
3, 251040, Note_on_c, 0, 56, 26
3, 252000, Note_on_c, 0, 56, 0
3, 252000, Note_on_c, 0, 60, 0
3, 252000, Note_on_c, 0, 46, 40
3, 252480, Note_on_c, 0, 46, 0
3, 252480, Note_on_c, 0, 56, 27
3, 252480, Note_on_c, 0, 62, 30
3, 252480, Note_on_c, 0, 58, 27
3, 253440, Note_on_c, 0, 58, 0
3, 253440, Note_on_c, 0, 62, 0
3, 253440, Note_on_c, 0, 56, 0
3, 253440, Note_on_c, 0, 51, 45
3, 253920, Note_on_c, 0, 51, 0
3, 253920, Note_on_c, 0, 63, 30
3, 253920, Note_on_c, 0, 58, 27
3, 253920, Note_on_c, 0, 55, 27
3, 254880, Note_on_c, 0, 55, 0
3, 254880, Note_on_c, 0, 58, 0
3, 254880, Note_on_c, 0, 63, 0
3, 254880, Note_on_c, 0, 51, 48
3, 255360, Note_on_c, 0, 58, 41
3, 256320, Note_on_c, 0, 58, 0
3, 256320, Note_on_c, 0, 51, 0
3, 256320, Note_on_c, 0, 53, 52
3, 256800, Note_on_c, 0, 58, 40
3, 257275, Note_on_c, 0, 58, 0
3, 257760, Note_on_c, 0, 53, 0
3, 257760, Note_on_c, 0, 55, 56
3, 258240, Note_on_c, 0, 58, 45
3, 259200, Note_on_c, 0, 58, 0
3, 259200, Note_on_c, 0, 55, 0
3, 259200, Note_on_c, 0, 50, 56
3, 259680, Note_on_c, 0, 58, 42
3, 260640, Note_on_c, 0, 58, 0
3, 260640, Note_on_c, 0, 50, 0
3, 260640, Note_on_c, 0, 51, 51
3, 261120, Note_on_c, 0, 58, 40
3, 262080, Note_on_c, 0, 58, 0
3, 262080, Note_on_c, 0, 51, 0
3, 262080, Note_on_c, 0, 44, 60
3, 262560, Note_on_c, 0, 44, 0
3, 262560, Note_on_c, 0, 60, 47
3, 262560, Note_on_c, 0, 56, 42
3, 263520, Note_on_c, 0, 56, 0
3, 263520, Note_on_c, 0, 60, 0
3, 263520, Note_on_c, 0, 46, 59
3, 264000, Note_on_c, 0, 46, 0
3, 264000, Note_on_c, 0, 56, 40
3, 264000, Note_on_c, 0, 62, 45
3, 264000, Note_on_c, 0, 58, 40
3, 264960, Note_on_c, 0, 58, 0
3, 264960, Note_on_c, 0, 62, 0
3, 264960, Note_on_c, 0, 56, 0
3, 264960, Note_on_c, 0, 51, 60
3, 265440, Note_on_c, 0, 51, 0
3, 265440, Note_on_c, 0, 63, 46
3, 265440, Note_on_c, 0, 58, 41
3, 265440, Note_on_c, 0, 55, 41
3, 266400, Note_on_c, 0, 55, 0
3, 266400, Note_on_c, 0, 58, 0
3, 266400, Note_on_c, 0, 63, 0
3, 266400, Note_on_c, 0, 51, 58
3, 266880, Note_on_c, 0, 58, 46
3, 267840, Note_on_c, 0, 58, 0
3, 267840, Note_on_c, 0, 51, 0
3, 267840, Note_on_c, 0, 53, 56
3, 268320, Note_on_c, 0, 58, 45
3, 269280, Note_on_c, 0, 58, 0
3, 269280, Note_on_c, 0, 53, 0
3, 269280, Note_on_c, 0, 55, 56
3, 269760, Note_on_c, 0, 58, 45
3, 270720, Note_on_c, 0, 58, 0
3, 270720, Note_on_c, 0, 55, 0
3, 270720, Note_on_c, 0, 50, 70
3, 271200, Note_on_c, 0, 58, 54
3, 272160, Note_on_c, 0, 58, 0
3, 272160, Note_on_c, 0, 50, 0
3, 272160, Note_on_c, 0, 51, 54
3, 272640, Note_on_c, 0, 58, 46
3, 273600, Note_on_c, 0, 58, 0
3, 273600, Note_on_c, 0, 51, 0
3, 273600, Note_on_c, 0, 44, 47
3, 274080, Note_on_c, 0, 44, 0
3, 274080, Note_on_c, 0, 60, 41
3, 274080, Note_on_c, 0, 56, 36
3, 275040, Note_on_c, 0, 56, 0
3, 275040, Note_on_c, 0, 60, 0
3, 275040, Note_on_c, 0, 46, 47
3, 275520, Note_on_c, 0, 46, 0
3, 275520, Note_on_c, 0, 56, 36
3, 275520, Note_on_c, 0, 62, 40
3, 275520, Note_on_c, 0, 58, 36
3, 276480, Note_on_c, 0, 58, 0
3, 276480, Note_on_c, 0, 62, 0
3, 276480, Note_on_c, 0, 56, 0
3, 276480, Note_on_c, 0, 51, 40
3, 276960, Note_on_c, 0, 51, 0
3, 276960, Note_on_c, 0, 63, 35
3, 276960, Note_on_c, 0, 58, 31
3, 276960, Note_on_c, 0, 55, 31
3, 277920, Note_on_c, 0, 55, 0
3, 277920, Note_on_c, 0, 58, 0
3, 277920, Note_on_c, 0, 63, 0
3, 277920, Note_on_c, 0, 39, 44
3, 278400, Note_on_c, 0, 51, 32
3, 279360, Note_on_c, 0, 51, 0
3, 279360, Note_on_c, 0, 39, 0
3, 279360, Note_on_c, 0, 44, 42
3, 279480, Control_c, 0, 64, 127
3, 279840, Note_on_c, 0, 56, 32
3, 279859, Control_c, 0, 64, 0
3, 280057, Control_c, 0, 64, 127
3, 280800, Note_on_c, 0, 56, 0
3, 280800, Note_on_c, 0, 44, 0
3, 280800, Note_on_c, 0, 37, 44
3, 280817, Control_c, 0, 64, 0
3, 281280, Note_on_c, 0, 49, 32
3, 282240, Note_on_c, 0, 49, 0
3, 282240, Note_on_c, 0, 37, 0
3, 282240, Note_on_c, 0, 42, 43
3, 282303, Control_c, 0, 64, 127
3, 282720, Note_on_c, 0, 54, 32
3, 282740, Control_c, 0, 64, 0
3, 282833, Control_c, 0, 64, 127
3, 283680, Note_on_c, 0, 54, 0
3, 283680, Note_on_c, 0, 42, 0
3, 283680, Note_on_c, 0, 35, 44
3, 283700, Control_c, 0, 64, 0
3, 284160, Note_on_c, 0, 47, 32
3, 285120, Note_on_c, 0, 47, 0
3, 285120, Note_on_c, 0, 35, 0
3, 285120, Note_on_c, 0, 41, 42
3, 285200, Control_c, 0, 64, 127
3, 285600, Note_on_c, 0, 53, 32
3, 285620, Control_c, 0, 64, 0
3, 285760, Control_c, 0, 64, 127
3, 286560, Note_on_c, 0, 53, 0
3, 286560, Note_on_c, 0, 41, 0
3, 286560, Note_on_c, 0, 34, 44
3, 286578, Control_c, 0, 64, 0
3, 287040, Note_on_c, 0, 46, 32
3, 288000, Note_on_c, 0, 46, 0
3, 288000, Note_on_c, 0, 34, 0
3, 288000, Note_on_c, 0, 39, 43
3, 288097, Control_c, 0, 64, 127
3, 288480, Note_on_c, 0, 51, 32
3, 288492, Control_c, 0, 64, 0
3, 288566, Control_c, 0, 64, 127
3, 289440, Note_on_c, 0, 51, 0
3, 289440, Note_on_c, 0, 39, 0
3, 289440, Note_on_c, 0, 44, 43
3, 289463, Control_c, 0, 64, 0
3, 289612, Control_c, 0, 64, 127
3, 289920, Note_on_c, 0, 56, 32
3, 289932, Control_c, 0, 64, 0
3, 290075, Control_c, 0, 64, 127
3, 290880, Note_on_c, 0, 56, 0
3, 290880, Note_on_c, 0, 44, 0
3, 290880, Note_on_c, 0, 46, 41
3, 290884, Control_c, 0, 64, 0
3, 291014, Control_c, 0, 64, 127
3, 291360, Note_on_c, 0, 58, 41
3, 291372, Control_c, 0, 64, 0
3, 291501, Control_c, 0, 64, 127
3, 291852, Control_c, 0, 64, 0
3, 292024, Control_c, 0, 64, 127
3, 292320, Note_on_c, 0, 46, 0
3, 292320, Note_on_c, 0, 51, 40
3, 292336, Control_c, 0, 64, 0
3, 293760, Note_on_c, 0, 51, 0
3, 293760, Note_on_c, 0, 58, 0
3, 293760, Note_on_c, 0, 42, 41
3, 294240, Note_on_c, 0, 49, 33
3, 295200, Note_on_c, 0, 49, 0
3, 295200, Note_on_c, 0, 42, 0
3, 295200, Note_on_c, 0, 44, 39
3, 295263, Control_c, 0, 64, 127
3, 295680, Note_on_c, 0, 50, 53
3, 295689, Control_c, 0, 64, 0
3, 295804, Control_c, 0, 64, 127
3, 296160, Note_on_c, 0, 50, 0
3, 296160, Note_on_c, 0, 49, 33
3, 296640, Note_on_c, 0, 49, 0
3, 296640, Note_on_c, 0, 44, 0
3, 296640, Note_on_c, 0, 42, 39
3, 296657, Control_c, 0, 64, 0
3, 297120, Note_on_c, 0, 49, 33
3, 298080, Note_on_c, 0, 49, 0
3, 298080, Note_on_c, 0, 42, 0
3, 298080, Note_on_c, 0, 44, 40
3, 298152, Control_c, 0, 64, 127
3, 298560, Note_on_c, 0, 50, 55
3, 298574, Control_c, 0, 64, 0
3, 298698, Control_c, 0, 64, 127
3, 299040, Note_on_c, 0, 50, 0
3, 299040, Note_on_c, 0, 49, 33
3, 299520, Note_on_c, 0, 49, 0
3, 299520, Note_on_c, 0, 44, 0
3, 299520, Note_on_c, 0, 46, 39
3, 299525, Control_c, 0, 64, 0
3, 299640, Control_c, 0, 64, 127
3, 300000, Note_on_c, 0, 54, 43
3, 300012, Control_c, 0, 64, 0
3, 300132, Control_c, 0, 64, 127
3, 300960, Note_on_c, 0, 46, 0
3, 300960, Note_on_c, 0, 47, 40
3, 300964, Control_c, 0, 64, 0
3, 301057, Control_c, 0, 64, 127
3, 301440, Note_on_c, 0, 54, 0
3, 301440, Note_on_c, 0, 56, 43
3, 301457, Control_c, 0, 64, 0
3, 301560, Control_c, 0, 64, 127
3, 302400, Note_on_c, 0, 47, 0
3, 302400, Note_on_c, 0, 49, 43
3, 302420, Control_c, 0, 64, 0
3, 302880, Note_on_c, 0, 56, 0
3, 302880, Note_on_c, 0, 59, 37
3, 303840, Note_on_c, 0, 59, 0
3, 303840, Note_on_c, 0, 49, 0
3, 303840, Note_on_c, 0, 58, 43
3, 303840, Note_on_c, 0, 54, 38
3, 304800, Note_on_c, 0, 54, 0
3, 304800, Note_on_c, 0, 58, 0
3, 305280, Note_on_c, 0, 46, 43
3, 305760, Note_on_c, 0, 59, 33
3, 305760, Note_on_c, 0, 56, 29
3, 305760, Note_on_c, 0, 53, 29
3, 306720, Note_on_c, 0, 53, 0
3, 306720, Note_on_c, 0, 46, 0
3, 306720, Note_on_c, 0, 59, 0
3, 306720, Note_on_c, 0, 56, 0
3, 306720, Note_on_c, 0, 46, 43
3, 307200, Note_on_c, 0, 59, 32
3, 307200, Note_on_c, 0, 56, 28
3, 307200, Note_on_c, 0, 53, 28
3, 308160, Note_on_c, 0, 53, 0
3, 308160, Note_on_c, 0, 46, 0
3, 308160, Note_on_c, 0, 59, 0
3, 308160, Note_on_c, 0, 56, 0
3, 308160, Note_on_c, 0, 46, 43
3, 308640, Note_on_c, 0, 53, 28
3, 308640, Note_on_c, 0, 56, 28
3, 308640, Note_on_c, 0, 59, 32
3, 311040, Note_on_c, 0, 59, 0
3, 311040, Note_on_c, 0, 46, 0
3, 311040, Note_on_c, 0, 53, 0
3, 311040, Note_on_c, 0, 56, 0
3, 311040, Note_on_c, 0, 58, 43
3, 311520, Note_on_c, 0, 71, 32
3, 311520, Note_on_c, 0, 68, 28
3, 311520, Note_on_c, 0, 65, 28
3, 312480, Note_on_c, 0, 65, 0
3, 312480, Note_on_c, 0, 58, 0
3, 312480, Note_on_c, 0, 71, 0
3, 312480, Note_on_c, 0, 68, 0
3, 312480, Note_on_c, 0, 58, 43
3, 312960, Note_on_c, 0, 71, 32
3, 312960, Note_on_c, 0, 68, 28
3, 312960, Note_on_c, 0, 65, 28
3, 314000, Control_c, 0, 64, 127
3, 315360, Note_on_c, 0, 71, 0
3, 315360, Note_on_c, 0, 70, 43
3, 315380, Control_c, 0, 64, 0
3, 315494, Control_c, 0, 64, 127
3, 316800, Note_on_c, 0, 70, 0
3, 316800, Note_on_c, 0, 65, 0
3, 316800, Note_on_c, 0, 68, 0
3, 316800, Note_on_c, 0, 58, 0
3, 316800, Note_on_c, 0, 51, 41
3, 316816, Control_c, 0, 64, 0
3, 317280, Note_on_c, 0, 58, 30
3, 318240, Note_on_c, 0, 58, 0
3, 318240, Note_on_c, 0, 51, 0
3, 318240, Note_on_c, 0, 53, 41
3, 318720, Note_on_c, 0, 58, 32
3, 319195, Note_on_c, 0, 58, 0
3, 319680, Note_on_c, 0, 53, 0
3, 319680, Note_on_c, 0, 55, 41
3, 320160, Note_on_c, 0, 58, 32
3, 321120, Note_on_c, 0, 58, 0
3, 321120, Note_on_c, 0, 55, 0
3, 321120, Note_on_c, 0, 50, 41
3, 321600, Note_on_c, 0, 58, 32
3, 322560, Note_on_c, 0, 58, 0
3, 322560, Note_on_c, 0, 50, 0
3, 322560, Note_on_c, 0, 51, 40
3, 323040, Note_on_c, 0, 58, 31
3, 324000, Note_on_c, 0, 58, 0
3, 324000, Note_on_c, 0, 51, 0
3, 324000, Note_on_c, 0, 44, 41
3, 324480, Note_on_c, 0, 44, 0
3, 324480, Note_on_c, 0, 60, 32
3, 324480, Note_on_c, 0, 56, 28
3, 325440, Note_on_c, 0, 56, 0
3, 325440, Note_on_c, 0, 60, 0
3, 325440, Note_on_c, 0, 46, 41
3, 325920, Note_on_c, 0, 46, 0
3, 325920, Note_on_c, 0, 56, 28
3, 325920, Note_on_c, 0, 65, 32
3, 325920, Note_on_c, 0, 58, 28
3, 326880, Note_on_c, 0, 58, 0
3, 326880, Note_on_c, 0, 65, 0
3, 326880, Note_on_c, 0, 56, 0
3, 326880, Note_on_c, 0, 51, 45
3, 327360, Note_on_c, 0, 51, 0
3, 327360, Note_on_c, 0, 63, 36
3, 327360, Note_on_c, 0, 58, 32
3, 327360, Note_on_c, 0, 55, 32
3, 328320, Note_on_c, 0, 55, 0
3, 328320, Note_on_c, 0, 58, 0
3, 328320, Note_on_c, 0, 63, 0
3, 328320, Note_on_c, 0, 51, 44
3, 328800, Note_on_c, 0, 58, 35
3, 329760, Note_on_c, 0, 58, 0
3, 329760, Note_on_c, 0, 51, 0
3, 329760, Note_on_c, 0, 53, 42
3, 330240, Note_on_c, 0, 58, 34
3, 331200, Note_on_c, 0, 58, 0
3, 331200, Note_on_c, 0, 53, 0
3, 331200, Note_on_c, 0, 55, 40
3, 331680, Note_on_c, 0, 58, 32
3, 332640, Note_on_c, 0, 58, 0
3, 332640, Note_on_c, 0, 55, 0
3, 332640, Note_on_c, 0, 50, 48
3, 333120, Note_on_c, 0, 58, 40
3, 334080, Note_on_c, 0, 58, 0
3, 334080, Note_on_c, 0, 50, 0
3, 334080, Note_on_c, 0, 49, 47
3, 334560, Note_on_c, 0, 51, 34
3, 334560, Note_on_c, 0, 58, 38
3, 335520, Note_on_c, 0, 58, 0
3, 335520, Note_on_c, 0, 51, 0
3, 335520, Note_on_c, 0, 49, 0
3, 335520, Note_on_c, 0, 48, 56
3, 336000, Note_on_c, 0, 51, 32
3, 336000, Note_on_c, 0, 56, 36
3, 336960, Note_on_c, 0, 56, 0
3, 336960, Note_on_c, 0, 51, 0
3, 336960, Note_on_c, 0, 48, 0
3, 336960, Note_on_c, 0, 48, 60
3, 337440, Note_on_c, 0, 50, 33
3, 337440, Note_on_c, 0, 57, 37
3, 338400, Note_on_c, 0, 57, 0
3, 338400, Note_on_c, 0, 50, 0
3, 338400, Note_on_c, 0, 48, 0
3, 338400, Note_on_c, 0, 47, 63
3, 338880, Note_on_c, 0, 50, 36
3, 338880, Note_on_c, 0, 55, 41
3, 339840, Note_on_c, 0, 55, 0
3, 339840, Note_on_c, 0, 50, 0
3, 339840, Note_on_c, 0, 47, 0
3, 339840, Note_on_c, 0, 46, 64
3, 340320, Note_on_c, 0, 48, 38
3, 340320, Note_on_c, 0, 55, 43
3, 341280, Note_on_c, 0, 55, 0
3, 341280, Note_on_c, 0, 48, 0
3, 341280, Note_on_c, 0, 46, 0
3, 341280, Note_on_c, 0, 44, 68
3, 341760, Note_on_c, 0, 48, 37
3, 341760, Note_on_c, 0, 53, 42
3, 342720, Note_on_c, 0, 53, 0
3, 342720, Note_on_c, 0, 48, 0
3, 342720, Note_on_c, 0, 44, 0
3, 342720, Note_on_c, 0, 46, 68
3, 343200, Note_on_c, 0, 56, 40
3, 343200, Note_on_c, 0, 53, 36
3, 344160, Note_on_c, 0, 53, 0
3, 344160, Note_on_c, 0, 56, 0
3, 344160, Note_on_c, 0, 46, 0
3, 344160, Note_on_c, 0, 51, 72
3, 344640, Note_on_c, 0, 63, 56
3, 345600, Note_on_c, 0, 63, 0
3, 345600, Note_on_c, 0, 51, 0
3, 345600, Note_on_c, 0, 44, 72
3, 346080, Note_on_c, 0, 56, 56
3, 347040, Note_on_c, 0, 56, 0
3, 347040, Note_on_c, 0, 44, 0
3, 347040, Note_on_c, 0, 46, 72
3, 347520, Note_on_c, 0, 58, 56
3, 348480, Note_on_c, 0, 58, 0
3, 348480, Note_on_c, 0, 46, 0
3, 348480, Note_on_c, 0, 39, 72
3, 348960, Note_on_c, 0, 51, 53
3, 349920, Note_on_c, 0, 51, 0
3, 349920, Note_on_c, 0, 39, 0
3, 349920, Note_on_c, 0, 32, 79
3, 350400, Note_on_c, 0, 44, 57
3, 351360, Note_on_c, 0, 44, 0
3, 351360, Note_on_c, 0, 32, 0
3, 351360, Note_on_c, 0, 34, 76
3, 351840, Note_on_c, 0, 46, 57
3, 352800, Note_on_c, 0, 46, 0
3, 352800, Note_on_c, 0, 34, 0
3, 352800, Note_on_c, 0, 39, 64
3, 353280, Note_on_c, 0, 39, 0
3, 353280, Note_on_c, 0, 46, 72
3, 353280, Note_on_c, 0, 50, 81
3, 354240, Note_on_c, 0, 50, 0
3, 354240, Note_on_c, 0, 46, 0
3, 354240, Note_on_c, 0, 39, 64
3, 354480, Note_on_c, 0, 39, 0
3, 354720, Note_on_c, 0, 46, 72
3, 354720, Note_on_c, 0, 50, 81
3, 355680, Note_on_c, 0, 50, 0
3, 355680, Note_on_c, 0, 46, 0
3, 355680, Note_on_c, 0, 39, 64
3, 355920, Note_on_c, 0, 39, 0
3, 356160, Note_on_c, 0, 46, 72
3, 356160, Note_on_c, 0, 50, 81
3, 357120, Note_on_c, 0, 50, 0
3, 357120, Note_on_c, 0, 46, 0
3, 357120, Note_on_c, 0, 39, 72
3, 357280, Note_on_c, 0, 39, 0
3, 357280, Note_on_c, 0, 41, 72
3, 357440, Note_on_c, 0, 41, 0
3, 357440, Note_on_c, 0, 42, 74
3, 357600, Note_on_c, 0, 42, 0
3, 357600, Note_on_c, 0, 44, 76
3, 357760, Note_on_c, 0, 44, 0
3, 357760, Note_on_c, 0, 46, 78
3, 357920, Note_on_c, 0, 46, 0
3, 357920, Note_on_c, 0, 48, 80
3, 358080, Note_on_c, 0, 48, 0
3, 358080, Note_on_c, 0, 50, 81
3, 358240, Note_on_c, 0, 50, 0
3, 358240, Note_on_c, 0, 51, 82
3, 358400, Note_on_c, 0, 51, 0
3, 358400, Note_on_c, 0, 53, 84
3, 358560, Note_on_c, 0, 53, 0
3, 358560, Note_on_c, 0, 54, 86
3, 359520, Note_on_c, 0, 54, 0
3, 360000, Note_on_c, 0, 42, 73
3, 360000, Note_on_c, 0, 54, 82
3, 360960, Note_on_c, 0, 54, 0
3, 360960, Note_on_c, 0, 42, 0
3, 361440, Note_on_c, 0, 35, 65
3, 361497, Control_c, 0, 64, 127
3, 361680, Note_on_c, 0, 35, 0
3, 361920, Note_on_c, 0, 47, 59
3, 361920, Note_on_c, 0, 50, 59
3, 361920, Note_on_c, 0, 54, 66
3, 362880, Note_on_c, 0, 54, 0
3, 362880, Note_on_c, 0, 50, 0
3, 362880, Note_on_c, 0, 47, 0
3, 362880, Note_on_c, 0, 35, 67
3, 362887, Control_c, 0, 64, 0
3, 363017, Control_c, 0, 64, 127
3, 363120, Note_on_c, 0, 35, 0
3, 363360, Note_on_c, 0, 47, 57
3, 363360, Note_on_c, 0, 49, 57
3, 363360, Note_on_c, 0, 52, 57
3, 363360, Note_on_c, 0, 55, 64
3, 364320, Note_on_c, 0, 55, 0
3, 364320, Note_on_c, 0, 47, 0
3, 364320, Note_on_c, 0, 49, 0
3, 364320, Note_on_c, 0, 52, 0
3, 364320, Note_on_c, 0, 50, 72
3, 364325, Control_c, 0, 64, 0
3, 364437, Control_c, 0, 64, 125
3, 364560, Note_on_c, 0, 54, 58
3, 364560, Note_on_c, 0, 59, 65
3, 364800, Note_on_c, 0, 59, 0
3, 364800, Note_on_c, 0, 54, 0
3, 364800, Note_on_c, 0, 50, 0
3, 364800, Note_on_c, 0, 49, 80
3, 364806, Control_c, 0, 64, 0
3, 364936, Control_c, 0, 64, 125
3, 365040, Note_on_c, 0, 54, 62
3, 365040, Note_on_c, 0, 58, 69
3, 365280, Note_on_c, 0, 58, 0
3, 365280, Note_on_c, 0, 54, 0
3, 365280, Note_on_c, 0, 49, 0
3, 365280, Note_on_c, 0, 47, 72
3, 365288, Control_c, 0, 64, 0
3, 365365, Control_c, 0, 64, 125
3, 365520, Note_on_c, 0, 54, 57
3, 365520, Note_on_c, 0, 59, 64
3, 365760, Note_on_c, 0, 59, 0
3, 365760, Note_on_c, 0, 54, 0
3, 365760, Note_on_c, 0, 47, 0
3, 365760, Control_c, 0, 64, 0
3, 365760, Note_on_c, 0, 42, 72
3, 365875, Control_c, 0, 64, 126
3, 366240, Note_on_c, 0, 42, 0
3, 366240, Note_on_c, 0, 54, 57
3, 366240, Note_on_c, 0, 58, 64
3, 367200, Note_on_c, 0, 58, 0
3, 367200, Note_on_c, 0, 54, 0
3, 367200, Note_on_c, 0, 46, 80
3, 367206, Control_c, 0, 64, 0
3, 367356, Control_c, 0, 64, 126
3, 367680, Note_on_c, 0, 46, 0
3, 367680, Note_on_c, 0, 56, 57
3, 367680, Note_on_c, 0, 53, 57
3, 367680, Note_on_c, 0, 58, 64
3, 368640, Note_on_c, 0, 58, 0
3, 368640, Note_on_c, 0, 53, 0
3, 368640, Note_on_c, 0, 56, 0
3, 368640, Note_on_c, 0, 39, 80
3, 368646, Control_c, 0, 64, 0
3, 368817, Control_c, 0, 64, 125
3, 369120, Note_on_c, 0, 39, 0
3, 369120, Note_on_c, 0, 51, 57
3, 369120, Note_on_c, 0, 54, 57
3, 369120, Note_on_c, 0, 58, 64
3, 370080, Note_on_c, 0, 58, 0
3, 370080, Note_on_c, 0, 54, 0
3, 370080, Note_on_c, 0, 51, 0
3, 370080, Control_c, 0, 64, 0
3, 370080, Note_on_c, 0, 46, 64
3, 370263, Control_c, 0, 64, 126
3, 370560, Note_on_c, 0, 46, 0
3, 370560, Note_on_c, 0, 56, 57
3, 370560, Note_on_c, 0, 62, 64
3, 370560, Note_on_c, 0, 58, 57
3, 371040, Note_on_c, 0, 58, 0
3, 371040, Note_on_c, 0, 62, 0
3, 371040, Note_on_c, 0, 56, 0
3, 371040, Note_on_c, 0, 46, 64
3, 371520, Note_on_c, 0, 46, 0
3, 371520, Note_on_c, 0, 51, 81
3, 371539, Control_c, 0, 64, 0
3, 371652, Control_c, 0, 64, 127
3, 372000, Note_on_c, 0, 51, 0
3, 372000, Note_on_c, 0, 58, 64
3, 372000, Note_on_c, 0, 54, 57
3, 372960, Note_on_c, 0, 54, 0
3, 372960, Note_on_c, 0, 58, 0
3, 372960, Control_c, 0, 64, 0
3, 372960, Note_on_c, 0, 35, 82
3, 373086, Control_c, 0, 64, 127
3, 373440, Note_on_c, 0, 35, 0
3, 373440, Note_on_c, 0, 54, 79
3, 373440, Note_on_c, 0, 50, 71
3, 373440, Note_on_c, 0, 47, 71
3, 374400, Note_on_c, 0, 47, 0
3, 374400, Note_on_c, 0, 50, 0
3, 374400, Note_on_c, 0, 54, 0
3, 374400, Control_c, 0, 64, 0
3, 374400, Note_on_c, 0, 35, 85
3, 374526, Control_c, 0, 64, 126
3, 374880, Note_on_c, 0, 35, 0
3, 374880, Note_on_c, 0, 49, 69
3, 374880, Note_on_c, 0, 52, 69
3, 374880, Note_on_c, 0, 55, 77
3, 374880, Note_on_c, 0, 47, 69
3, 375840, Note_on_c, 0, 47, 0
3, 375840, Note_on_c, 0, 49, 0
3, 375840, Note_on_c, 0, 52, 0
3, 375840, Note_on_c, 0, 55, 0
3, 375840, Control_c, 0, 64, 0
3, 375840, Note_on_c, 0, 50, 64
3, 375944, Control_c, 0, 64, 125
3, 376080, Note_on_c, 0, 54, 64
3, 376080, Note_on_c, 0, 59, 72
3, 376320, Note_on_c, 0, 59, 0
3, 376320, Note_on_c, 0, 54, 0
3, 376320, Note_on_c, 0, 50, 0
3, 376320, Note_on_c, 0, 49, 64
3, 376327, Control_c, 0, 64, 0
3, 376424, Control_c, 0, 64, 125
3, 376560, Note_on_c, 0, 54, 64
3, 376560, Note_on_c, 0, 58, 72
3, 376800, Note_on_c, 0, 58, 0
3, 376800, Note_on_c, 0, 54, 0
3, 376800, Note_on_c, 0, 49, 0
3, 376800, Note_on_c, 0, 47, 64
3, 376806, Control_c, 0, 64, 0
3, 376911, Control_c, 0, 64, 125
3, 377040, Note_on_c, 0, 54, 64
3, 377040, Note_on_c, 0, 59, 72
3, 377280, Note_on_c, 0, 59, 0
3, 377280, Note_on_c, 0, 54, 0
3, 377280, Note_on_c, 0, 47, 0
3, 377280, Note_on_c, 0, 42, 97
3, 377286, Control_c, 0, 64, 0
3, 377412, Control_c, 0, 64, 127
3, 377760, Note_on_c, 0, 42, 0
3, 377760, Note_on_c, 0, 58, 81
3, 377760, Note_on_c, 0, 54, 72
3, 378720, Note_on_c, 0, 54, 0
3, 378720, Note_on_c, 0, 58, 0
3, 378720, Note_on_c, 0, 46, 97
3, 378724, Control_c, 0, 64, 0
3, 378876, Control_c, 0, 64, 127
3, 379200, Note_on_c, 0, 46, 0
3, 379200, Note_on_c, 0, 53, 72
3, 379200, Note_on_c, 0, 56, 72
3, 379200, Note_on_c, 0, 58, 81
3, 380160, Note_on_c, 0, 58, 0
3, 380160, Note_on_c, 0, 56, 0
3, 380160, Note_on_c, 0, 53, 0
3, 380160, Note_on_c, 0, 39, 97
3, 380165, Control_c, 0, 64, 0
3, 380320, Control_c, 0, 64, 127
3, 380640, Note_on_c, 0, 39, 0
3, 380640, Note_on_c, 0, 51, 72
3, 380640, Note_on_c, 0, 54, 72
3, 380640, Note_on_c, 0, 58, 81
3, 381600, Note_on_c, 0, 58, 0
3, 381600, Note_on_c, 0, 54, 0
3, 381600, Note_on_c, 0, 51, 0
3, 381600, Note_on_c, 0, 46, 72
3, 381606, Control_c, 0, 64, 0
3, 381795, Control_c, 0, 64, 127
3, 382080, Note_on_c, 0, 46, 0
3, 382080, Note_on_c, 0, 56, 72
3, 382080, Note_on_c, 0, 62, 81
3, 382080, Note_on_c, 0, 58, 72
3, 382560, Note_on_c, 0, 58, 0
3, 382560, Note_on_c, 0, 62, 0
3, 382560, Note_on_c, 0, 56, 0
3, 382560, Note_on_c, 0, 46, 72
3, 383040, Note_on_c, 0, 46, 0
3, 383040, Note_on_c, 0, 51, 85
3, 383045, Control_c, 0, 64, 0
3, 383200, Control_c, 0, 64, 127
3, 383520, Note_on_c, 0, 51, 0
3, 383520, Note_on_c, 0, 63, 74
3, 383520, Note_on_c, 0, 58, 66
3, 383520, Note_on_c, 0, 54, 66
3, 384480, Note_on_c, 0, 54, 0
3, 384480, Note_on_c, 0, 58, 0
3, 384480, Note_on_c, 0, 63, 0
3, 384480, Control_c, 0, 64, 0
3, 384480, Note_on_c, 0, 46, 90
3, 384657, Control_c, 0, 64, 126
3, 384960, Note_on_c, 0, 46, 0
3, 384960, Note_on_c, 0, 68, 74
3, 384960, Note_on_c, 0, 65, 66
3, 384960, Note_on_c, 0, 62, 66
3, 384960, Note_on_c, 0, 58, 66
3, 385920, Note_on_c, 0, 58, 0
3, 385920, Note_on_c, 0, 68, 0
3, 385920, Note_on_c, 0, 65, 0
3, 385920, Note_on_c, 0, 62, 0
3, 385920, Control_c, 0, 64, 0
3, 385920, Note_on_c, 0, 51, 88
3, 386063, Control_c, 0, 64, 126
3, 386400, Note_on_c, 0, 51, 0
3, 386400, Note_on_c, 0, 66, 74
3, 386400, Note_on_c, 0, 63, 66
3, 386400, Note_on_c, 0, 58, 66
3, 387360, Note_on_c, 0, 58, 0
3, 387360, Note_on_c, 0, 63, 0
3, 387360, Note_on_c, 0, 66, 0
3, 387360, Note_on_c, 0, 56, 64
3, 387360, Note_on_c, 0, 59, 64
3, 387360, Note_on_c, 0, 65, 72
3, 387367, Control_c, 0, 64, 0
3, 387509, Control_c, 0, 64, 125
3, 387840, Note_on_c, 0, 65, 0
3, 387840, Note_on_c, 0, 59, 0
3, 387840, Note_on_c, 0, 56, 0
3, 387840, Note_on_c, 0, 66, 73
3, 387840, Note_on_c, 0, 63, 65
3, 387840, Note_on_c, 0, 58, 65
3, 387845, Control_c, 0, 64, 0
3, 387955, Control_c, 0, 64, 125
3, 388320, Note_on_c, 0, 58, 0
3, 388320, Note_on_c, 0, 63, 0
3, 388320, Note_on_c, 0, 66, 0
3, 388320, Note_on_c, 0, 58, 65
3, 388320, Note_on_c, 0, 65, 65
3, 388320, Note_on_c, 0, 68, 73
3, 388325, Control_c, 0, 64, 0
3, 388457, Control_c, 0, 64, 125
3, 388800, Note_on_c, 0, 68, 0
3, 388800, Note_on_c, 0, 65, 0
3, 388800, Note_on_c, 0, 58, 0
3, 388800, Note_on_c, 0, 51, 85
3, 388812, Control_c, 0, 64, 0
3, 388932, Control_c, 0, 64, 125
3, 389280, Note_on_c, 0, 51, 0
3, 389280, Note_on_c, 0, 66, 74
3, 389280, Note_on_c, 0, 63, 66
3, 389280, Note_on_c, 0, 58, 66
3, 390240, Note_on_c, 0, 58, 0
3, 390240, Note_on_c, 0, 63, 0
3, 390240, Note_on_c, 0, 66, 0
3, 390240, Note_on_c, 0, 46, 88
3, 390245, Control_c, 0, 64, 0
3, 390403, Control_c, 0, 64, 124
3, 390720, Note_on_c, 0, 46, 0
3, 390720, Note_on_c, 0, 68, 74
3, 390720, Note_on_c, 0, 65, 66
3, 390720, Note_on_c, 0, 62, 66
3, 390720, Note_on_c, 0, 58, 66
3, 391680, Note_on_c, 0, 58, 0
3, 391680, Note_on_c, 0, 68, 0
3, 391680, Note_on_c, 0, 65, 0
3, 391680, Note_on_c, 0, 62, 0
3, 391680, Note_on_c, 0, 51, 88
3, 391686, Control_c, 0, 64, 0
3, 391812, Control_c, 0, 64, 126
3, 392160, Note_on_c, 0, 51, 0
3, 392160, Note_on_c, 0, 66, 74
3, 392160, Note_on_c, 0, 63, 66
3, 392160, Note_on_c, 0, 58, 66
3, 393120, Note_on_c, 0, 58, 0
3, 393120, Note_on_c, 0, 63, 0
3, 393120, Note_on_c, 0, 66, 0
3, 393120, Note_on_c, 0, 56, 65
3, 393120, Note_on_c, 0, 59, 65
3, 393120, Note_on_c, 0, 65, 73
3, 393125, Control_c, 0, 64, 0
3, 393269, Control_c, 0, 64, 125
3, 393600, Note_on_c, 0, 65, 0
3, 393600, Note_on_c, 0, 59, 0
3, 393600, Note_on_c, 0, 56, 0
3, 393600, Note_on_c, 0, 66, 73
3, 393600, Note_on_c, 0, 63, 65
3, 393600, Note_on_c, 0, 58, 65
3, 393604, Control_c, 0, 64, 0
3, 393726, Control_c, 0, 64, 125
3, 394080, Note_on_c, 0, 58, 0
3, 394080, Note_on_c, 0, 63, 0
3, 394080, Note_on_c, 0, 66, 0
3, 394080, Note_on_c, 0, 58, 65
3, 394080, Note_on_c, 0, 65, 65
3, 394080, Note_on_c, 0, 68, 73
3, 394091, Control_c, 0, 64, 0
3, 394229, Control_c, 0, 64, 125
3, 394560, Note_on_c, 0, 68, 0
3, 394560, Note_on_c, 0, 65, 0
3, 394560, Note_on_c, 0, 58, 0
3, 394560, Note_on_c, 0, 51, 85
3, 394571, Control_c, 0, 64, 0
3, 394726, Control_c, 0, 64, 127
3, 395040, Note_on_c, 0, 51, 0
3, 395040, Note_on_c, 0, 66, 74
3, 395040, Note_on_c, 0, 63, 66
3, 395040, Note_on_c, 0, 58, 66
3, 396000, Note_on_c, 0, 58, 0
3, 396000, Note_on_c, 0, 63, 0
3, 396000, Note_on_c, 0, 66, 0
3, 396000, Note_on_c, 0, 56, 64
3, 396000, Note_on_c, 0, 59, 64
3, 396000, Note_on_c, 0, 65, 72
3, 396007, Control_c, 0, 64, 0
3, 396137, Control_c, 0, 64, 125
3, 396480, Note_on_c, 0, 65, 0
3, 396480, Note_on_c, 0, 59, 0
3, 396480, Note_on_c, 0, 56, 0
3, 396480, Note_on_c, 0, 66, 73
3, 396480, Note_on_c, 0, 63, 65
3, 396480, Note_on_c, 0, 58, 65
3, 396486, Control_c, 0, 64, 0
3, 396606, Control_c, 0, 64, 125
3, 396960, Note_on_c, 0, 58, 0
3, 396960, Note_on_c, 0, 63, 0
3, 396960, Note_on_c, 0, 66, 0
3, 396960, Note_on_c, 0, 58, 65
3, 396960, Note_on_c, 0, 65, 65
3, 396960, Note_on_c, 0, 68, 73
3, 396965, Control_c, 0, 64, 0
3, 397097, Control_c, 0, 64, 125
3, 397440, Note_on_c, 0, 68, 0
3, 397440, Note_on_c, 0, 65, 0
3, 397440, Note_on_c, 0, 58, 0
3, 397440, Note_on_c, 0, 63, 81
3, 397440, Note_on_c, 0, 58, 72
3, 397440, Note_on_c, 0, 54, 72
3, 397440, Note_on_c, 0, 51, 72
3, 397451, Control_c, 0, 64, 0
3, 397555, Control_c, 0, 64, 125
3, 398400, Note_on_c, 0, 51, 0
3, 398400, Note_on_c, 0, 63, 0
3, 398400, Note_on_c, 0, 58, 0
3, 398400, Note_on_c, 0, 54, 0
3, 398400, Note_on_c, 0, 56, 57
3, 398400, Note_on_c, 0, 59, 57
3, 398400, Note_on_c, 0, 63, 63
3, 398400, Note_on_c, 0, 51, 57
3, 398406, Control_c, 0, 64, 0
3, 398640, Note_on_c, 0, 51, 0
3, 398640, Note_on_c, 0, 56, 0
3, 398640, Note_on_c, 0, 59, 0
3, 398640, Note_on_c, 0, 63, 0
3, 398880, Note_on_c, 0, 54, 73
3, 398880, Note_on_c, 0, 63, 82
3, 398880, Note_on_c, 0, 58, 73
3, 398880, Note_on_c, 0, 51, 73
3, 398966, Control_c, 0, 64, 125
3, 399840, Note_on_c, 0, 51, 0
3, 399840, Note_on_c, 0, 54, 0
3, 399840, Note_on_c, 0, 63, 0
3, 399840, Note_on_c, 0, 58, 0
3, 399840, Note_on_c, 0, 56, 57
3, 399840, Note_on_c, 0, 63, 64
3, 399840, Note_on_c, 0, 59, 57
3, 399840, Note_on_c, 0, 51, 57
3, 399847, Control_c, 0, 64, 0
3, 400080, Note_on_c, 0, 51, 0
3, 400080, Note_on_c, 0, 56, 0
3, 400080, Note_on_c, 0, 63, 0
3, 400080, Note_on_c, 0, 59, 0
3, 400320, Note_on_c, 0, 51, 86
3, 400320, Note_on_c, 0, 46, 77
3, 400320, Note_on_c, 0, 42, 77
3, 400320, Note_on_c, 0, 39, 77
3, 400406, Control_c, 0, 64, 125
3, 401280, Note_on_c, 0, 39, 0
3, 401280, Note_on_c, 0, 51, 0
3, 401280, Note_on_c, 0, 46, 0
3, 401280, Note_on_c, 0, 42, 0
3, 401280, Note_on_c, 0, 44, 61
3, 401280, Note_on_c, 0, 51, 68
3, 401280, Note_on_c, 0, 47, 61
3, 401280, Note_on_c, 0, 39, 61
3, 401289, Control_c, 0, 64, 0
3, 401520, Note_on_c, 0, 39, 0
3, 401520, Note_on_c, 0, 44, 0
3, 401520, Note_on_c, 0, 51, 0
3, 401520, Note_on_c, 0, 47, 0
3, 401760, Note_on_c, 0, 51, 81
3, 401760, Note_on_c, 0, 46, 72
3, 401760, Note_on_c, 0, 42, 72
3, 401760, Note_on_c, 0, 39, 72
3, 401835, Control_c, 0, 64, 125
3, 402720, Note_on_c, 0, 39, 0
3, 402720, Note_on_c, 0, 51, 0
3, 402720, Note_on_c, 0, 46, 0
3, 402720, Note_on_c, 0, 42, 0
3, 402720, Note_on_c, 0, 47, 64
3, 402720, Note_on_c, 0, 44, 57
3, 402720, Note_on_c, 0, 39, 57
3, 402732, Control_c, 0, 64, 0
3, 402960, Note_on_c, 0, 39, 0
3, 402960, Note_on_c, 0, 44, 0
3, 402960, Note_on_c, 0, 47, 0
3, 403200, Note_on_c, 0, 39, 72
3, 403200, Note_on_c, 0, 42, 72
3, 403200, Note_on_c, 0, 46, 72
3, 403200, Note_on_c, 0, 51, 72
3, 403200, Note_on_c, 0, 54, 72
3, 403200, Note_on_c, 0, 58, 80
3, 403440, Note_on_c, 0, 58, 0
3, 403440, Note_on_c, 0, 42, 0
3, 403440, Note_on_c, 0, 46, 0
3, 403440, Note_on_c, 0, 39, 0
3, 403440, Note_on_c, 0, 54, 0
3, 403440, Note_on_c, 0, 51, 0
3, 403680, Note_on_c, 0, 59, 80
3, 403680, Note_on_c, 0, 56, 72
3, 403680, Note_on_c, 0, 51, 72
3, 403680, Note_on_c, 0, 47, 72
3, 403680, Note_on_c, 0, 44, 72
3, 403680, Note_on_c, 0, 39, 72
3, 403920, Note_on_c, 0, 39, 0
3, 403920, Note_on_c, 0, 56, 0
3, 403920, Note_on_c, 0, 51, 0
3, 403920, Note_on_c, 0, 59, 0
3, 403920, Note_on_c, 0, 44, 0
3, 403920, Note_on_c, 0, 47, 0
3, 404160, Note_on_c, 0, 51, 72
3, 404160, Note_on_c, 0, 39, 72
3, 404160, Note_on_c, 0, 42, 72
3, 404160, Note_on_c, 0, 46, 72
3, 404160, Note_on_c, 0, 54, 72
3, 404160, Note_on_c, 0, 58, 80
3, 404400, Note_on_c, 0, 58, 0
3, 404400, Note_on_c, 0, 39, 0
3, 404400, Note_on_c, 0, 42, 0
3, 404400, Note_on_c, 0, 51, 0
3, 404400, Note_on_c, 0, 54, 0
3, 404400, Note_on_c, 0, 46, 0
3, 404640, Note_on_c, 0, 59, 80
3, 404640, Note_on_c, 0, 56, 72
3, 404640, Note_on_c, 0, 51, 72
3, 404640, Note_on_c, 0, 47, 72
3, 404640, Note_on_c, 0, 44, 72
3, 404640, Note_on_c, 0, 39, 72
3, 404880, Note_on_c, 0, 39, 0
3, 404880, Note_on_c, 0, 56, 0
3, 404880, Note_on_c, 0, 51, 0
3, 404880, Note_on_c, 0, 59, 0
3, 404880, Note_on_c, 0, 44, 0
3, 404880, Note_on_c, 0, 47, 0
3, 405120, Note_on_c, 0, 51, 72
3, 405120, Note_on_c, 0, 39, 72
3, 405120, Note_on_c, 0, 42, 72
3, 405120, Note_on_c, 0, 46, 72
3, 405120, Note_on_c, 0, 54, 72
3, 405120, Note_on_c, 0, 58, 80
3, 405360, Note_on_c, 0, 58, 0
3, 405360, Note_on_c, 0, 39, 0
3, 405360, Note_on_c, 0, 42, 0
3, 405360, Note_on_c, 0, 51, 0
3, 405360, Note_on_c, 0, 54, 0
3, 405360, Note_on_c, 0, 46, 0
3, 405600, Note_on_c, 0, 51, 72
3, 405600, Note_on_c, 0, 59, 80
3, 405600, Note_on_c, 0, 56, 72
3, 405600, Note_on_c, 0, 47, 72
3, 405600, Note_on_c, 0, 44, 72
3, 405600, Note_on_c, 0, 39, 72
3, 405840, Note_on_c, 0, 39, 0
3, 405840, Note_on_c, 0, 59, 0
3, 405840, Note_on_c, 0, 56, 0
3, 405840, Note_on_c, 0, 51, 0
3, 405840, Note_on_c, 0, 44, 0
3, 405840, Note_on_c, 0, 47, 0
3, 406080, Note_on_c, 0, 34, 78
3, 406080, Note_on_c, 0, 46, 87
3, 406133, Control_c, 0, 64, 125
3, 406480, Control_c, 0, 64, 0
3, 406560, Note_on_c, 0, 46, 0
3, 406560, Note_on_c, 0, 34, 0
3, 407520, Note_on_c, 0, 46, 78
3, 407520, Note_on_c, 0, 39, 78
3, 407520, Note_on_c, 0, 51, 87
3, 407543, Control_c, 0, 64, 125
3, 407909, Control_c, 0, 64, 0
3, 408000, Note_on_c, 0, 51, 0
3, 408000, Note_on_c, 0, 39, 0
3, 408000, Note_on_c, 0, 46, 0
3, 408000, End_track
4, 0, Start_track
4, 0, Title_t, "Schubert: Impromptus No.2 in Eb, Op. 90 - D 899"
4, 0, End_track
5, 0, Start_track
5, 0, Title_t, "Copyright © 1997 by Bernd Krueger"
5, 0, End_track
6, 0, Start_track
6, 0, Title_t, "http://www.piano-midi.de"
6, 0, End_track
7, 0, Start_track
7, 0, Title_t, "Edition: 2014-03-18"
7, 0, End_track
0, 0, End_of_file
