0, 0, Header, 1, 17, 480
1, 0, Start_track
1, 0, Title_t, "Kreisleriana No. 4"
1, 0, Copyright_t, "Copyright © 2007 by Bernd Krueger"
1, 0, Text_t, "Robert Schumann"
1, 0, Text_t, "Sehr langsam"
1, 0, Text_t, "Erstellt: 19.1.2007\012"
1, 0, Text_t, "Update am 27.3.2014\012"
1, 0, Text_t, "Dauer:  3: 15 Minuten\012"
1, 0, Time_signature, 4, 2, 24, 8
1, 0, Key_signature, -2, "major"
1, 0, Tempo, 2000000
1, 0, Marker_t, "Sehr langsam"
1, 720, Tempo, 1920000
1, 960, Tempo, 1935484
1, 1200, Tempo, 1983471
1, 1680, Tempo, 2016807
1, 2400, Tempo, 1983471
1, 2520, Tempo, 2105263
1, 2640, Tempo, 1983471
1, 2760, Tempo, 2086957
1, 2880, Tempo, 2068966
1, 3120, Tempo, 2000000
1, 3600, Tempo, 1935484
1, 3840, Tempo, 1951220
1, 4200, Tempo, 2016807
1, 4800, Tempo, 2051282
1, 5040, Tempo, 2068966
1, 5400, Tempo, 2330097
1, 5520, Tempo, 2201835
1, 5640, Tempo, 2330097
1, 5760, Tempo, 2201835
1, 6000, Tempo, 2000000
1, 6480, Tempo, 1920000
1, 6720, Tempo, 1935484
1, 6960, Tempo, 1983471
1, 7440, Tempo, 2016807
1, 8160, Tempo, 1983471
1, 8280, Tempo, 2105263
1, 8400, Tempo, 1983471
1, 8520, Tempo, 2086957
1, 8640, Tempo, 2068966
1, 8880, Tempo, 2000000
1, 9120, Tempo, 1935484
1, 9180, Tempo, 1726619
1, 9360, Tempo, 1751825
1, 9600, Tempo, 1777778
1, 9840, Tempo, 1951220
1, 11040, Tempo, 1764706
1, 11520, Tempo, 1777778
1, 11760, Tempo, 1846154
1, 12000, Tempo, 1920000
1, 13680, Tempo, 2000000
1, 14160, Tempo, 1920000
1, 14400, Tempo, 1935484
1, 14640, Tempo, 1983471
1, 15120, Tempo, 2016807
1, 15840, Tempo, 1983471
1, 15960, Tempo, 2105263
1, 16080, Tempo, 1983471
1, 16200, Tempo, 2086957
1, 16320, Tempo, 2068966
1, 16560, Tempo, 2000000
1, 17040, Tempo, 1935484
1, 17280, Tempo, 1951220
1, 17640, Tempo, 2016807
1, 18240, Tempo, 2051282
1, 18480, Tempo, 2135231
1, 18720, Tempo, 2234637
1, 18840, Tempo, 2414487
1, 18960, Tempo, 2321083
1, 19080, Tempo, 2330097
1, 19140, Tempo, 2696629
1, 19200, Tempo, 2131439
1, 20160, Tempo, 1509434
1, 20640, Marker_t, "Bewegter"
1, 20760, Tempo, 1458080
1, 21000, Tempo, 1552393
1, 21120, Tempo, 1503759
1, 21240, Tempo, 1440576
1, 21480, Tempo, 1542416
1, 21600, Tempo, 1503759
1, 21720, Tempo, 1458080
1, 21960, Tempo, 1542416
1, 22080, Tempo, 1494396
1, 22200, Tempo, 1449275
1, 22440, Tempo, 1552393
1, 22560, Tempo, 1494396
1, 22680, Tempo, 1458080
1, 22920, Tempo, 1552393
1, 23040, Tempo, 1494396
1, 23160, Tempo, 1449275
1, 23400, Tempo, 1542416
1, 23520, Tempo, 1494396
1, 23640, Tempo, 1423488
1, 23880, Tempo, 1552393
1, 24000, Tempo, 1494396
1, 24120, Tempo, 1449275
1, 24240, Tempo, 1459854
1, 24360, Tempo, 1615074
1, 24480, Tempo, 1494396
1, 24600, Tempo, 1458080
1, 24840, Tempo, 1562500
1, 24960, Tempo, 1485149
1, 25080, Tempo, 1458080
1, 25320, Tempo, 1503759
1, 25440, Tempo, 1485149
1, 25560, Tempo, 1458080
1, 25800, Tempo, 1542416
1, 25920, Tempo, 1485149
1, 26040, Tempo, 1433692
1, 26280, Tempo, 1513241
1, 26400, Tempo, 1485149
1, 26520, Tempo, 1425178
1, 26760, Tempo, 1552393
1, 26880, Tempo, 1494396
1, 27000, Tempo, 1425178
1, 27240, Tempo, 1542416
1, 27360, Tempo, 1494396
1, 27480, Tempo, 1425178
1, 27720, Tempo, 1583113
1, 27840, Tempo, 1494396
1, 27960, Tempo, 1449275
1, 28200, Tempo, 1562500
1, 28320, Tempo, 1494396
1, 28440, Tempo, 1425178
1, 28680, Tempo, 1562500
1, 28800, Tempo, 1485149
1, 28920, Tempo, 1392111
1, 29040, Tempo, 1408451
1, 29160, Tempo, 1503759
1, 29280, Tempo, 1485149
1, 29400, Tempo, 1392111
1, 29640, Tempo, 1542416
1, 29760, Tempo, 1485149
1, 29880, Tempo, 1416765
1, 30120, Tempo, 1513241
1, 30240, Tempo, 1485149
1, 30360, Tempo, 1408451
1, 30600, Tempo, 1552393
1, 30720, Tempo, 1494396
1, 30840, Tempo, 1416765
1, 31080, Tempo, 1542416
1, 31200, Tempo, 1494396
1, 31320, Tempo, 1425178
1, 31560, Tempo, 1583113
1, 31680, Tempo, 1494396
1, 31800, Tempo, 1449275
1, 32040, Tempo, 1562500
1, 32160, Tempo, 1509434
1, 32280, Tempo, 1458080
1, 32520, Tempo, 1552393
1, 32640, Tempo, 1503759
1, 32760, Tempo, 1440576
1, 33000, Tempo, 1542416
1, 33120, Tempo, 1503759
1, 33240, Tempo, 1458080
1, 33480, Tempo, 1542416
1, 33600, Tempo, 1494396
1, 33720, Tempo, 1425178
1, 33960, Tempo, 1552393
1, 34080, Tempo, 1494396
1, 34200, Tempo, 1416765
1, 34440, Tempo, 1552393
1, 34560, Tempo, 1494396
1, 34680, Tempo, 1408451
1, 34920, Tempo, 1542416
1, 35040, Tempo, 1494396
1, 35160, Tempo, 1392111
1, 35400, Tempo, 1552393
1, 35520, Tempo, 1494396
1, 35640, Tempo, 1425178
1, 35880, Tempo, 1615074
1, 36000, Tempo, 1494396
1, 36240, Tempo, 1449275
1, 36360, Tempo, 1522843
1, 36600, Tempo, 1485149
1, 36720, Tempo, 1458080
1, 36840, Tempo, 1532567
1, 36960, Tempo, 1494396
1, 37080, Tempo, 1552393
1, 37200, Tempo, 1494396
1, 37320, Tempo, 1572739
1, 37440, Tempo, 1494396
1, 37920, Tempo, 1494396
1, 38040, Tempo, 1458080
1, 38280, Tempo, 1542416
1, 38400, Tempo, 1494396
1, 38640, Tempo, 1466993
1, 38760, Tempo, 1552393
1, 38880, Tempo, 1494396
1, 39000, Tempo, 1562500
1, 39120, Tempo, 1494396
1, 39840, Tempo, 1509434
1, 39960, Tempo, 1458080
1, 40200, Tempo, 1552393
1, 40320, Tempo, 1503759
1, 40440, Tempo, 1440576
1, 40680, Tempo, 1542416
1, 40800, Tempo, 1503759
1, 40920, Tempo, 1408451
1, 41160, Tempo, 1542416
1, 41280, Tempo, 1494396
1, 41400, Tempo, 1425178
1, 41640, Tempo, 1552393
1, 41760, Tempo, 1494396
1, 41880, Tempo, 1458080
1, 42120, Tempo, 1552393
1, 42240, Tempo, 1615074
1, 42360, Tempo, 1513241
1, 42600, Tempo, 1615074
1, 42720, Tempo, 1604278
1, 42840, Tempo, 1513241
1, 43080, Tempo, 1694915
1, 43200, Tempo, 1593625
1, 43320, Tempo, 1542416
1, 43440, Tempo, 1694915
1, 43560, Tempo, 2076125
1, 43680, Tempo, 1177625
1, 44760, Tempo, 1626016
1, 44880, Tempo, 1920000
1, 45120, Tempo, 1935484
1, 45360, Tempo, 1983471
1, 45840, Tempo, 2016807
1, 46560, Tempo, 1983471
1, 46680, Tempo, 2105263
1, 46800, Tempo, 1983471
1, 46920, Tempo, 2086957
1, 47040, Tempo, 2068966
1, 47280, Tempo, 2000000
1, 47760, Tempo, 1935484
1, 48000, Tempo, 1951220
1, 48360, Tempo, 2016807
1, 48960, Tempo, 2051282
1, 49200, Tempo, 2068966
1, 49560, Tempo, 2649007
1, 49680, Tempo, 2385686
1, 49800, Tempo, 3351955
1, 49920, Tempo, 2836879
1, 50400, Tempo, 3833866
1, 50880, Tempo, 5911330
1, 50880, End_track
2, 0, Start_track
2, 0, Title_t, "Piano right"
2, 0, Program_c, 0, 0
2, 0, Text_t, "bdca426d104a26ac9dcb070447587523"
2, 0, Control_c, 0, 91, 127
2, 240, Note_on_c, 0, 63, 38
2, 240, Note_on_c, 0, 57, 38
2, 240, Note_on_c, 0, 69, 53
2, 720, Note_on_c, 0, 69, 0
2, 720, Note_on_c, 0, 57, 0
2, 720, Note_on_c, 0, 63, 0
2, 720, Note_on_c, 0, 63, 38
2, 720, Note_on_c, 0, 58, 38
2, 720, Note_on_c, 0, 70, 54
2, 960, Note_on_c, 0, 70, 0
2, 960, Note_on_c, 0, 58, 0
2, 960, Note_on_c, 0, 63, 0
2, 960, Note_on_c, 0, 74, 63
2, 1140, Note_on_c, 0, 74, 0
2, 1140, Note_on_c, 0, 72, 57
2, 1200, Note_on_c, 0, 72, 0
2, 1200, Note_on_c, 0, 72, 60
2, 1200, Note_on_c, 0, 63, 43
2, 1200, Note_on_c, 0, 60, 43
2, 1680, Note_on_c, 0, 60, 0
2, 1680, Note_on_c, 0, 63, 0
2, 1680, Note_on_c, 0, 72, 0
2, 1680, Note_on_c, 0, 58, 39
2, 1680, Note_on_c, 0, 63, 47
2, 1680, Note_on_c, 0, 70, 56
2, 1920, Note_on_c, 0, 70, 0
2, 1920, Note_on_c, 0, 63, 0
2, 1920, Note_on_c, 0, 58, 0
2, 1920, Note_on_c, 0, 63, 40
2, 1920, Note_on_c, 0, 69, 57
2, 1920, Note_on_c, 0, 57, 40
2, 2160, Note_on_c, 0, 57, 0
2, 2160, Note_on_c, 0, 69, 0
2, 2160, Note_on_c, 0, 63, 0
2, 2160, Note_on_c, 0, 58, 38
2, 2160, Note_on_c, 0, 63, 45
2, 2160, Note_on_c, 0, 67, 54
2, 2400, Note_on_c, 0, 67, 0
2, 2400, Note_on_c, 0, 58, 0
2, 2400, Note_on_c, 0, 60, 51
2, 2400, Note_on_c, 0, 65, 60
2, 2520, Note_on_c, 0, 65, 0
2, 2520, Note_on_c, 0, 67, 50
2, 2550, Note_on_c, 0, 67, 0
2, 2550, Note_on_c, 0, 65, 45
2, 2580, Note_on_c, 0, 65, 0
2, 2580, Note_on_c, 0, 64, 50
2, 2610, Note_on_c, 0, 64, 0
2, 2610, Note_on_c, 0, 65, 52
2, 2640, Note_on_c, 0, 65, 0
2, 2640, Note_on_c, 0, 63, 0
2, 2640, Note_on_c, 0, 67, 59
2, 2820, Note_on_c, 0, 67, 0
2, 2820, Note_on_c, 0, 63, 52
2, 2880, Note_on_c, 0, 63, 0
2, 2880, Note_on_c, 0, 63, 58
2, 3120, Note_on_c, 0, 63, 0
2, 3120, Note_on_c, 0, 60, 0
2, 3120, Note_on_c, 0, 56, 35
2, 3120, Note_on_c, 0, 50, 35
2, 3120, Note_on_c, 0, 62, 50
2, 3600, Note_on_c, 0, 62, 0
2, 3600, Note_on_c, 0, 50, 0
2, 3600, Note_on_c, 0, 56, 0
2, 3600, Note_on_c, 0, 56, 23
2, 3600, Note_on_c, 0, 51, 23
2, 3600, Note_on_c, 0, 60, 41
2, 3810, Note_on_c, 0, 51, 0
2, 3840, Note_on_c, 0, 55, 46
2, 4020, Note_on_c, 0, 55, 0
2, 4020, Note_on_c, 0, 53, 37
2, 4080, Note_on_c, 0, 53, 0
2, 4080, Note_on_c, 0, 60, 0
2, 4080, Note_on_c, 0, 56, 0
2, 4080, Note_on_c, 0, 53, 30
2, 4080, Note_on_c, 0, 56, 36
2, 4080, Note_on_c, 0, 58, 43
2, 4560, Note_on_c, 0, 58, 0
2, 4560, Note_on_c, 0, 56, 0
2, 4560, Note_on_c, 0, 53, 0
2, 4560, Note_on_c, 0, 56, 29
2, 4560, Note_on_c, 0, 58, 42
2, 4560, Note_on_c, 0, 51, 29
2, 4800, Note_on_c, 0, 51, 0
2, 4800, Note_on_c, 0, 50, 35
2, 5040, Note_on_c, 0, 50, 0
2, 5040, Note_on_c, 0, 58, 0
2, 5040, Note_on_c, 0, 56, 0
2, 5040, Note_on_c, 0, 48, 43
2, 5280, Note_on_c, 0, 48, 0
2, 5280, Note_on_c, 0, 46, 47
2, 5400, Note_on_c, 0, 46, 0
2, 5400, Note_on_c, 0, 48, 41
2, 5430, Note_on_c, 0, 46, 34
2, 5439, Note_on_c, 0, 48, 0
2, 5460, Note_on_c, 0, 45, 42
2, 5469, Note_on_c, 0, 46, 0
2, 5490, Note_on_c, 0, 46, 46
2, 5499, Note_on_c, 0, 45, 0
2, 5520, Note_on_c, 0, 48, 50
2, 5529, Note_on_c, 0, 46, 0
2, 5700, Note_on_c, 0, 48, 0
2, 5700, Note_on_c, 0, 44, 44
2, 5760, Note_on_c, 0, 44, 0
2, 5760, Note_on_c, 0, 44, 44
2, 5970, Note_on_c, 0, 44, 0
2, 6000, Note_on_c, 0, 71, 53
2, 6000, Note_on_c, 0, 67, 38
2, 6000, Note_on_c, 0, 62, 38
2, 6480, Note_on_c, 0, 62, 0
2, 6480, Note_on_c, 0, 67, 0
2, 6480, Note_on_c, 0, 71, 0
2, 6480, Note_on_c, 0, 66, 49
2, 6480, Note_on_c, 0, 60, 41
2, 6480, Note_on_c, 0, 72, 59
2, 6690, Note_on_c, 0, 72, 0
2, 6690, Note_on_c, 0, 60, 0
2, 6690, Note_on_c, 0, 66, 0
2, 6690, Note_on_c, 0, 63, 37
2, 6690, Note_on_c, 0, 66, 37
2, 6720, Note_on_c, 0, 66, 0
2, 6720, Note_on_c, 0, 75, 74
2, 6900, Note_on_c, 0, 75, 0
2, 6900, Note_on_c, 0, 74, 59
2, 6960, Note_on_c, 0, 74, 0
2, 6960, Note_on_c, 0, 63, 0
2, 6960, Note_on_c, 0, 65, 45
2, 6960, Note_on_c, 0, 74, 63
2, 7440, Note_on_c, 0, 74, 0
2, 7440, Note_on_c, 0, 65, 0
2, 7440, Note_on_c, 0, 63, 47
2, 7440, Note_on_c, 0, 72, 56
2, 7680, Note_on_c, 0, 72, 0
2, 7680, Note_on_c, 0, 63, 0
2, 7680, Note_on_c, 0, 62, 48
2, 7680, Note_on_c, 0, 71, 57
2, 7920, Note_on_c, 0, 71, 0
2, 7920, Note_on_c, 0, 62, 0
2, 7920, Note_on_c, 0, 60, 45
2, 7920, Note_on_c, 0, 68, 54
2, 8160, Note_on_c, 0, 68, 0
2, 8160, Note_on_c, 0, 60, 0
2, 8160, Note_on_c, 0, 67, 60
2, 8160, Note_on_c, 0, 59, 51
2, 8280, Note_on_c, 0, 67, 0
2, 8280, Note_on_c, 0, 68, 50
2, 8310, Note_on_c, 0, 68, 0
2, 8310, Note_on_c, 0, 67, 45
2, 8340, Note_on_c, 0, 67, 0
2, 8340, Note_on_c, 0, 65, 50
2, 8370, Note_on_c, 0, 65, 0
2, 8370, Note_on_c, 0, 67, 52
2, 8400, Note_on_c, 0, 67, 0
2, 8400, Note_on_c, 0, 59, 0
2, 8400, Note_on_c, 0, 68, 57
2, 8400, Note_on_c, 0, 62, 51
2, 8580, Note_on_c, 0, 68, 0
2, 8580, Note_on_c, 0, 65, 52
2, 8640, Note_on_c, 0, 65, 0
2, 8640, Note_on_c, 0, 65, 58
2, 8880, Note_on_c, 0, 65, 0
2, 8880, Note_on_c, 0, 62, 0
2, 8880, Note_on_c, 0, 58, 43
2, 8880, Note_on_c, 0, 55, 39
2, 8880, Note_on_c, 0, 64, 66
2, 9840, Note_on_c, 0, 64, 0
2, 9840, Note_on_c, 0, 55, 0
2, 9840, Note_on_c, 0, 58, 0
2, 9840, Note_on_c, 0, 58, 41
2, 9840, Note_on_c, 0, 67, 54
2, 10200, Note_on_c, 0, 67, 0
2, 10200, Note_on_c, 0, 58, 0
2, 10200, Note_on_c, 0, 61, 38
2, 10200, Note_on_c, 0, 70, 45
2, 10320, Note_on_c, 0, 70, 0
2, 10320, Note_on_c, 0, 61, 0
2, 10320, Note_on_c, 0, 60, 38
2, 10320, Note_on_c, 0, 68, 45
2, 10440, Note_on_c, 0, 68, 0
2, 10440, Note_on_c, 0, 60, 0
2, 10500, Note_on_c, 0, 58, 38
2, 10500, Note_on_c, 0, 67, 45
2, 10560, Note_on_c, 0, 67, 0
2, 10560, Note_on_c, 0, 58, 0
2, 10560, Note_on_c, 0, 61, 38
2, 10560, Note_on_c, 0, 70, 45
2, 10800, Note_on_c, 0, 70, 0
2, 10800, Note_on_c, 0, 61, 0
2, 10800, Note_on_c, 0, 60, 38
2, 10800, Note_on_c, 0, 69, 45
2, 11760, Note_on_c, 0, 69, 0
2, 11760, Note_on_c, 0, 60, 0
2, 11760, Note_on_c, 0, 63, 38
2, 11760, Note_on_c, 0, 72, 57
2, 12120, Note_on_c, 0, 72, 0
2, 12120, Note_on_c, 0, 63, 0
2, 12120, Note_on_c, 0, 66, 38
2, 12120, Note_on_c, 0, 75, 45
2, 12240, Note_on_c, 0, 75, 0
2, 12240, Note_on_c, 0, 66, 0
2, 12240, Note_on_c, 0, 65, 38
2, 12240, Note_on_c, 0, 73, 54
2, 12360, Note_on_c, 0, 73, 0
2, 12360, Note_on_c, 0, 65, 0
2, 12360, Note_on_c, 0, 63, 38
2, 12360, Note_on_c, 0, 72, 54
2, 12480, Note_on_c, 0, 72, 0
2, 12480, Note_on_c, 0, 63, 0
2, 12480, Note_on_c, 0, 66, 38
2, 12480, Note_on_c, 0, 75, 54
2, 12600, Note_on_c, 0, 75, 0
2, 12600, Note_on_c, 0, 66, 0
2, 12600, Note_on_c, 0, 73, 54
2, 12600, Note_on_c, 0, 65, 38
2, 12720, Note_on_c, 0, 65, 0
2, 12720, Note_on_c, 0, 73, 0
2, 12720, Note_on_c, 0, 70, 54
2, 12720, Note_on_c, 0, 61, 38
2, 12840, Note_on_c, 0, 61, 0
2, 12840, Note_on_c, 0, 70, 0
2, 12840, Note_on_c, 0, 66, 54
2, 12840, Note_on_c, 0, 58, 38
2, 12960, Note_on_c, 0, 58, 0
2, 12960, Note_on_c, 0, 66, 0
2, 12960, Note_on_c, 0, 73, 54
2, 12960, Note_on_c, 0, 65, 38
2, 13080, Note_on_c, 0, 65, 0
2, 13080, Note_on_c, 0, 73, 0
2, 13080, Note_on_c, 0, 72, 54
2, 13080, Note_on_c, 0, 64, 38
2, 13200, Note_on_c, 0, 64, 0
2, 13200, Note_on_c, 0, 72, 0
2, 13200, Note_on_c, 0, 68, 54
2, 13200, Note_on_c, 0, 60, 38
2, 13320, Note_on_c, 0, 60, 0
2, 13320, Note_on_c, 0, 68, 0
2, 13320, Note_on_c, 0, 64, 54
2, 13320, Note_on_c, 0, 55, 38
2, 13440, Note_on_c, 0, 55, 0
2, 13440, Note_on_c, 0, 64, 0
2, 13440, Note_on_c, 0, 57, 38
2, 13440, Note_on_c, 0, 65, 54
2, 13650, Note_on_c, 0, 65, 0
2, 13650, Note_on_c, 0, 57, 0
2, 13650, Note_on_c, 0, 69, 47
2, 13650, Note_on_c, 0, 63, 34
2, 13650, Note_on_c, 0, 57, 32
2, 13680, Note_on_c, 0, 77, 58
2, 14160, Note_on_c, 0, 57, 0
2, 14160, Note_on_c, 0, 69, 0
2, 14160, Note_on_c, 0, 63, 0
2, 14160, Note_on_c, 0, 63, 38
2, 14160, Note_on_c, 0, 70, 54
2, 14160, Note_on_c, 0, 58, 38
2, 14370, Note_on_c, 0, 58, 0
2, 14370, Note_on_c, 0, 77, 0
2, 14370, Note_on_c, 0, 63, 0
2, 14370, Note_on_c, 0, 70, 0
2, 14370, Note_on_c, 0, 62, 34
2, 14370, Note_on_c, 0, 63, 36
2, 14400, Note_on_c, 0, 63, 0
2, 14400, Note_on_c, 0, 74, 69
2, 14580, Note_on_c, 0, 74, 0
2, 14580, Note_on_c, 0, 72, 61
2, 14640, Note_on_c, 0, 72, 0
2, 14640, Note_on_c, 0, 62, 0
2, 14640, Note_on_c, 0, 72, 60
2, 14640, Note_on_c, 0, 60, 43
2, 14640, Note_on_c, 0, 63, 43
2, 15120, Note_on_c, 0, 63, 0
2, 15120, Note_on_c, 0, 60, 0
2, 15120, Note_on_c, 0, 72, 0
2, 15120, Note_on_c, 0, 58, 39
2, 15120, Note_on_c, 0, 63, 39
2, 15120, Note_on_c, 0, 70, 56
2, 15360, Note_on_c, 0, 70, 0
2, 15360, Note_on_c, 0, 58, 0
2, 15360, Note_on_c, 0, 69, 57
2, 15360, Note_on_c, 0, 57, 40
2, 15600, Note_on_c, 0, 57, 0
2, 15600, Note_on_c, 0, 69, 0
2, 15600, Note_on_c, 0, 63, 0
2, 15600, Note_on_c, 0, 63, 45
2, 15600, Note_on_c, 0, 58, 38
2, 15600, Note_on_c, 0, 67, 54
2, 15840, Note_on_c, 0, 67, 0
2, 15840, Note_on_c, 0, 58, 0
2, 15840, Note_on_c, 0, 65, 60
2, 15840, Note_on_c, 0, 60, 51
2, 15960, Note_on_c, 0, 65, 0
2, 15960, Note_on_c, 0, 67, 50
2, 15990, Note_on_c, 0, 67, 0
2, 15990, Note_on_c, 0, 65, 45
2, 16020, Note_on_c, 0, 65, 0
2, 16020, Note_on_c, 0, 64, 50
2, 16050, Note_on_c, 0, 64, 0
2, 16050, Note_on_c, 0, 65, 52
2, 16080, Note_on_c, 0, 65, 0
2, 16080, Note_on_c, 0, 63, 0
2, 16080, Note_on_c, 0, 67, 59
2, 16260, Note_on_c, 0, 67, 0
2, 16260, Note_on_c, 0, 63, 52
2, 16320, Note_on_c, 0, 63, 0
2, 16320, Note_on_c, 0, 63, 58
2, 16560, Note_on_c, 0, 63, 0
2, 16560, Note_on_c, 0, 60, 0
2, 16560, Note_on_c, 0, 62, 50
2, 16560, Note_on_c, 0, 60, 42
2, 16560, Note_on_c, 0, 57, 35
2, 17040, Note_on_c, 0, 57, 0
2, 17040, Note_on_c, 0, 55, 54
2, 17280, Note_on_c, 0, 55, 0
2, 17280, Note_on_c, 0, 54, 58
2, 17760, Note_on_c, 0, 54, 0
2, 17760, Note_on_c, 0, 60, 0
2, 17760, Note_on_c, 0, 62, 0
2, 20640, Note_on_c, 0, 74, 57
2, 20760, Note_on_c, 0, 62, 34
2, 20880, Note_on_c, 0, 62, 0
2, 20880, Note_on_c, 0, 60, 41
2, 21000, Note_on_c, 0, 60, 0
2, 21000, Note_on_c, 0, 58, 34
2, 21120, Note_on_c, 0, 58, 0
2, 21120, Note_on_c, 0, 74, 0
2, 21120, Note_on_c, 0, 57, 39
2, 21120, Note_on_c, 0, 75, 57
2, 21240, Note_on_c, 0, 57, 0
2, 21240, Note_on_c, 0, 63, 35
2, 21360, Note_on_c, 0, 63, 0
2, 21360, Note_on_c, 0, 60, 43
2, 21480, Note_on_c, 0, 60, 0
2, 21480, Note_on_c, 0, 57, 36
2, 21600, Note_on_c, 0, 57, 0
2, 21600, Note_on_c, 0, 75, 0
2, 21600, Note_on_c, 0, 54, 46
2, 21600, Note_on_c, 0, 66, 57
2, 21720, Note_on_c, 0, 54, 0
2, 21720, Note_on_c, 0, 60, 37
2, 21840, Note_on_c, 0, 60, 0
2, 21840, Note_on_c, 0, 58, 41
2, 21960, Note_on_c, 0, 58, 0
2, 21960, Note_on_c, 0, 57, 34
2, 22080, Note_on_c, 0, 57, 0
2, 22080, Note_on_c, 0, 66, 0
2, 22080, Note_on_c, 0, 67, 57
2, 22080, Note_on_c, 0, 55, 46
2, 22200, Note_on_c, 0, 55, 0
2, 22200, Note_on_c, 0, 58, 34
2, 22320, Note_on_c, 0, 58, 0
2, 22320, Note_on_c, 0, 55, 39
2, 22440, Note_on_c, 0, 55, 0
2, 22440, Note_on_c, 0, 51, 34
2, 22560, Note_on_c, 0, 51, 0
2, 22560, Note_on_c, 0, 67, 0
2, 22560, Note_on_c, 0, 69, 57
2, 22680, Note_on_c, 0, 63, 36
2, 22800, Note_on_c, 0, 63, 0
2, 22800, Note_on_c, 0, 62, 42
2, 22920, Note_on_c, 0, 62, 0
2, 22920, Note_on_c, 0, 60, 39
2, 23040, Note_on_c, 0, 60, 0
2, 23040, Note_on_c, 0, 69, 0
2, 23040, Note_on_c, 0, 70, 57
2, 23040, Note_on_c, 0, 58, 39
2, 23160, Note_on_c, 0, 58, 0
2, 23160, Note_on_c, 0, 62, 33
2, 23280, Note_on_c, 0, 62, 0
2, 23280, Note_on_c, 0, 58, 43
2, 23400, Note_on_c, 0, 58, 0
2, 23400, Note_on_c, 0, 55, 36
2, 23520, Note_on_c, 0, 55, 0
2, 23520, Note_on_c, 0, 70, 0
2, 23520, Note_on_c, 0, 61, 57
2, 23640, Note_on_c, 0, 58, 37
2, 23760, Note_on_c, 0, 58, 0
2, 23760, Note_on_c, 0, 57, 44
2, 23880, Note_on_c, 0, 57, 0
2, 23880, Note_on_c, 0, 55, 36
2, 24000, Note_on_c, 0, 55, 0
2, 24000, Note_on_c, 0, 61, 0
2, 24000, Note_on_c, 0, 54, 42
2, 24000, Note_on_c, 0, 62, 52
2, 24120, Note_on_c, 0, 54, 0
2, 24120, Note_on_c, 0, 57, 28
2, 24240, Note_on_c, 0, 57, 0
2, 24240, Note_on_c, 0, 54, 32
2, 24360, Note_on_c, 0, 54, 0
2, 24360, Note_on_c, 0, 50, 30
2, 24480, Note_on_c, 0, 50, 0
2, 24480, Note_on_c, 0, 62, 0
2, 24480, Note_on_c, 0, 62, 50
2, 24600, Note_on_c, 0, 50, 32
2, 24720, Note_on_c, 0, 50, 0
2, 24720, Note_on_c, 0, 48, 34
2, 24840, Note_on_c, 0, 48, 0
2, 24840, Note_on_c, 0, 46, 30
2, 24960, Note_on_c, 0, 46, 0
2, 24960, Note_on_c, 0, 62, 0
2, 24960, Note_on_c, 0, 63, 50
2, 25080, Note_on_c, 0, 51, 31
2, 25200, Note_on_c, 0, 51, 0
2, 25200, Note_on_c, 0, 57, 36
2, 25320, Note_on_c, 0, 57, 0
2, 25320, Note_on_c, 0, 60, 40
2, 25440, Note_on_c, 0, 60, 0
2, 25440, Note_on_c, 0, 63, 0
2, 25440, Note_on_c, 0, 65, 54
2, 25560, Note_on_c, 0, 53, 36
2, 25680, Note_on_c, 0, 53, 0
2, 25680, Note_on_c, 0, 51, 45
2, 25800, Note_on_c, 0, 51, 0
2, 25800, Note_on_c, 0, 50, 37
2, 25920, Note_on_c, 0, 50, 0
2, 25920, Note_on_c, 0, 65, 0
2, 25920, Note_on_c, 0, 67, 57
2, 26040, Note_on_c, 0, 55, 40
2, 26160, Note_on_c, 0, 55, 0
2, 26160, Note_on_c, 0, 60, 47
2, 26280, Note_on_c, 0, 60, 0
2, 26280, Note_on_c, 0, 63, 40
2, 26400, Note_on_c, 0, 63, 0
2, 26400, Note_on_c, 0, 67, 0
2, 26400, Note_on_c, 0, 69, 60
2, 26520, Note_on_c, 0, 60, 45
2, 26640, Note_on_c, 0, 60, 0
2, 26640, Note_on_c, 0, 58, 50
2, 26760, Note_on_c, 0, 58, 0
2, 26760, Note_on_c, 0, 57, 43
2, 26880, Note_on_c, 0, 69, 0
2, 26880, Note_on_c, 0, 70, 67
2, 27000, Note_on_c, 0, 58, 39
2, 27120, Note_on_c, 0, 58, 0
2, 27120, Note_on_c, 0, 57, 0
2, 27120, Note_on_c, 0, 63, 47
2, 27240, Note_on_c, 0, 63, 0
2, 27240, Note_on_c, 0, 70, 0
2, 27240, Note_on_c, 0, 67, 43
2, 27360, Note_on_c, 0, 67, 0
2, 27360, Note_on_c, 0, 65, 50
2, 27480, Note_on_c, 0, 53, 35
2, 27600, Note_on_c, 0, 53, 0
2, 27600, Note_on_c, 0, 60, 40
2, 27720, Note_on_c, 0, 60, 0
2, 27720, Note_on_c, 0, 65, 0
2, 27720, Note_on_c, 0, 63, 34
2, 27840, Note_on_c, 0, 63, 0
2, 27840, Note_on_c, 0, 62, 50
2, 27960, Note_on_c, 0, 53, 34
2, 28080, Note_on_c, 0, 53, 0
2, 28080, Note_on_c, 0, 58, 39
2, 28200, Note_on_c, 0, 58, 0
2, 28200, Note_on_c, 0, 62, 34
2, 28320, Note_on_c, 0, 62, 0
2, 28320, Note_on_c, 0, 62, 0
2, 28320, Note_on_c, 0, 74, 55
2, 28440, Note_on_c, 0, 62, 32
2, 28560, Note_on_c, 0, 62, 0
2, 28560, Note_on_c, 0, 60, 34
2, 28680, Note_on_c, 0, 60, 0
2, 28680, Note_on_c, 0, 58, 30
2, 28800, Note_on_c, 0, 58, 0
2, 28800, Note_on_c, 0, 74, 0
2, 28800, Note_on_c, 0, 75, 55
2, 28920, Note_on_c, 0, 63, 31
2, 29040, Note_on_c, 0, 63, 0
2, 29040, Note_on_c, 0, 69, 36
2, 29160, Note_on_c, 0, 69, 0
2, 29160, Note_on_c, 0, 72, 40
2, 29280, Note_on_c, 0, 72, 0
2, 29280, Note_on_c, 0, 75, 0
2, 29280, Note_on_c, 0, 77, 59
2, 29400, Note_on_c, 0, 65, 36
2, 29520, Note_on_c, 0, 65, 0
2, 29520, Note_on_c, 0, 63, 45
2, 29640, Note_on_c, 0, 63, 0
2, 29640, Note_on_c, 0, 62, 37
2, 29760, Note_on_c, 0, 62, 0
2, 29760, Note_on_c, 0, 77, 0
2, 29760, Note_on_c, 0, 79, 62
2, 29880, Note_on_c, 0, 67, 48
2, 30000, Note_on_c, 0, 67, 0
2, 30000, Note_on_c, 0, 72, 53
2, 30120, Note_on_c, 0, 72, 0
2, 30120, Note_on_c, 0, 75, 47
2, 30240, Note_on_c, 0, 75, 0
2, 30240, Note_on_c, 0, 79, 0
2, 30240, Note_on_c, 0, 81, 68
2, 30360, Note_on_c, 0, 72, 47
2, 30480, Note_on_c, 0, 72, 0
2, 30480, Note_on_c, 0, 70, 55
2, 30600, Note_on_c, 0, 70, 0
2, 30600, Note_on_c, 0, 69, 47
2, 30720, Note_on_c, 0, 81, 0
2, 30720, Note_on_c, 0, 82, 70
2, 30840, Note_on_c, 0, 70, 45
2, 30960, Note_on_c, 0, 70, 0
2, 30960, Note_on_c, 0, 69, 0
2, 30960, Note_on_c, 0, 75, 55
2, 31080, Note_on_c, 0, 75, 0
2, 31080, Note_on_c, 0, 82, 0
2, 31080, Note_on_c, 0, 79, 45
2, 31200, Note_on_c, 0, 79, 0
2, 31200, Note_on_c, 0, 77, 55
2, 31320, Note_on_c, 0, 65, 35
2, 31440, Note_on_c, 0, 65, 0
2, 31440, Note_on_c, 0, 72, 40
2, 31560, Note_on_c, 0, 72, 0
2, 31560, Note_on_c, 0, 77, 0
2, 31560, Note_on_c, 0, 75, 37
2, 31680, Note_on_c, 0, 75, 0
2, 31680, Note_on_c, 0, 74, 55
2, 31800, Note_on_c, 0, 66, 34
2, 31920, Note_on_c, 0, 66, 0
2, 31920, Note_on_c, 0, 72, 39
2, 32040, Note_on_c, 0, 72, 0
2, 32040, Note_on_c, 0, 74, 42
2, 32160, Note_on_c, 0, 74, 0
2, 32280, Note_on_c, 0, 62, 30
2, 32400, Note_on_c, 0, 62, 0
2, 32400, Note_on_c, 0, 60, 36
2, 32520, Note_on_c, 0, 60, 0
2, 32520, Note_on_c, 0, 58, 30
2, 32640, Note_on_c, 0, 58, 0
2, 32640, Note_on_c, 0, 74, 0
2, 32640, Note_on_c, 0, 75, 55
2, 32760, Note_on_c, 0, 63, 31
2, 32880, Note_on_c, 0, 63, 0
2, 32880, Note_on_c, 0, 60, 38
2, 33000, Note_on_c, 0, 60, 0
2, 33000, Note_on_c, 0, 57, 32
2, 33120, Note_on_c, 0, 57, 0
2, 33120, Note_on_c, 0, 75, 0
2, 33120, Note_on_c, 0, 66, 53
2, 33240, Note_on_c, 0, 60, 33
2, 33360, Note_on_c, 0, 60, 0
2, 33360, Note_on_c, 0, 58, 36
2, 33480, Note_on_c, 0, 58, 0
2, 33480, Note_on_c, 0, 57, 30
2, 33600, Note_on_c, 0, 57, 0
2, 33600, Note_on_c, 0, 66, 0
2, 33600, Note_on_c, 0, 55, 41
2, 33600, Note_on_c, 0, 67, 53
2, 33720, Note_on_c, 0, 55, 0
2, 33720, Note_on_c, 0, 58, 30
2, 33840, Note_on_c, 0, 58, 0
2, 33840, Note_on_c, 0, 55, 35
2, 33960, Note_on_c, 0, 55, 0
2, 33960, Note_on_c, 0, 51, 30
2, 34080, Note_on_c, 0, 51, 0
2, 34080, Note_on_c, 0, 67, 0
2, 34080, Note_on_c, 0, 69, 53
2, 34200, Note_on_c, 0, 63, 32
2, 34320, Note_on_c, 0, 63, 0
2, 34320, Note_on_c, 0, 62, 37
2, 34440, Note_on_c, 0, 62, 0
2, 34440, Note_on_c, 0, 60, 35
2, 34560, Note_on_c, 0, 60, 0
2, 34560, Note_on_c, 0, 69, 0
2, 34560, Note_on_c, 0, 58, 35
2, 34560, Note_on_c, 0, 70, 53
2, 34680, Note_on_c, 0, 58, 0
2, 34680, Note_on_c, 0, 62, 29
2, 34800, Note_on_c, 0, 62, 0
2, 34800, Note_on_c, 0, 58, 38
2, 34920, Note_on_c, 0, 58, 0
2, 34920, Note_on_c, 0, 55, 32
2, 35040, Note_on_c, 0, 55, 0
2, 35040, Note_on_c, 0, 70, 0
2, 35040, Note_on_c, 0, 61, 51
2, 35160, Note_on_c, 0, 58, 33
2, 35280, Note_on_c, 0, 58, 0
2, 35280, Note_on_c, 0, 57, 39
2, 35400, Note_on_c, 0, 57, 0
2, 35400, Note_on_c, 0, 55, 32
2, 35520, Note_on_c, 0, 55, 0
2, 35520, Note_on_c, 0, 61, 0
2, 35520, Note_on_c, 0, 54, 37
2, 35520, Note_on_c, 0, 62, 46
2, 35640, Note_on_c, 0, 54, 0
2, 35640, Note_on_c, 0, 57, 30
2, 35760, Note_on_c, 0, 57, 0
2, 35760, Note_on_c, 0, 54, 35
2, 35880, Note_on_c, 0, 54, 0
2, 35880, Note_on_c, 0, 50, 30
2, 36000, Note_on_c, 0, 50, 0
2, 36000, Note_on_c, 0, 62, 0
2, 36000, Note_on_c, 0, 65, 51
2, 36120, Note_on_c, 0, 56, 34
2, 36240, Note_on_c, 0, 56, 0
2, 36240, Note_on_c, 0, 65, 0
2, 36240, Note_on_c, 0, 55, 40
2, 36240, Note_on_c, 0, 63, 48
2, 36360, Note_on_c, 0, 63, 0
2, 36360, Note_on_c, 0, 55, 0
2, 36360, Note_on_c, 0, 53, 35
2, 36360, Note_on_c, 0, 62, 42
2, 36480, Note_on_c, 0, 62, 0
2, 36480, Note_on_c, 0, 60, 46
2, 36600, Note_on_c, 0, 55, 30
2, 36720, Note_on_c, 0, 55, 0
2, 36720, Note_on_c, 0, 60, 0
2, 36720, Note_on_c, 0, 53, 0
2, 36720, Note_on_c, 0, 51, 32
2, 36720, Note_on_c, 0, 62, 38
2, 36840, Note_on_c, 0, 62, 0
2, 36840, Note_on_c, 0, 51, 0
2, 36840, Note_on_c, 0, 48, 36
2, 36840, Note_on_c, 0, 63, 43
2, 36960, Note_on_c, 0, 63, 0
2, 36960, Note_on_c, 0, 48, 0
2, 36960, Note_on_c, 0, 65, 46
2, 37080, Note_on_c, 0, 56, 30
2, 37200, Note_on_c, 0, 56, 0
2, 37200, Note_on_c, 0, 65, 0
2, 37200, Note_on_c, 0, 50, 44
2, 37200, Note_on_c, 0, 66, 52
2, 37320, Note_on_c, 0, 50, 0
2, 37320, Note_on_c, 0, 46, 31
2, 37440, Note_on_c, 0, 46, 0
2, 37560, Note_on_c, 0, 55, 30
2, 37680, Note_on_c, 0, 55, 0
2, 37680, Note_on_c, 0, 66, 0
2, 37680, Note_on_c, 0, 51, 43
2, 37680, Note_on_c, 0, 67, 51
2, 37800, Note_on_c, 0, 51, 0
2, 37800, Note_on_c, 0, 46, 25
2, 37920, Note_on_c, 0, 46, 0
2, 37920, Note_on_c, 0, 67, 0
2, 37920, Note_on_c, 0, 68, 52
2, 38040, Note_on_c, 0, 59, 23
2, 38160, Note_on_c, 0, 59, 0
2, 38160, Note_on_c, 0, 68, 0
2, 38160, Note_on_c, 0, 58, 34
2, 38160, Note_on_c, 0, 67, 40
2, 38280, Note_on_c, 0, 67, 0
2, 38280, Note_on_c, 0, 58, 0
2, 38280, Note_on_c, 0, 56, 29
2, 38280, Note_on_c, 0, 65, 35
2, 38400, Note_on_c, 0, 65, 0
2, 38400, Note_on_c, 0, 63, 46
2, 38520, Note_on_c, 0, 58, 28
2, 38640, Note_on_c, 0, 58, 0
2, 38640, Note_on_c, 0, 63, 0
2, 38640, Note_on_c, 0, 56, 0
2, 38640, Note_on_c, 0, 55, 34
2, 38640, Note_on_c, 0, 65, 41
2, 38760, Note_on_c, 0, 65, 0
2, 38760, Note_on_c, 0, 55, 0
2, 38760, Note_on_c, 0, 51, 34
2, 38760, Note_on_c, 0, 67, 41
2, 38880, Note_on_c, 0, 67, 0
2, 38880, Note_on_c, 0, 51, 0
2, 38880, Note_on_c, 0, 69, 50
2, 39000, Note_on_c, 0, 60, 37
2, 39120, Note_on_c, 0, 60, 0
2, 39120, Note_on_c, 0, 69, 0
2, 39120, Note_on_c, 0, 54, 45
2, 39120, Note_on_c, 0, 70, 52
2, 39240, Note_on_c, 0, 54, 0
2, 39240, Note_on_c, 0, 50, 34
2, 39360, Note_on_c, 0, 50, 0
2, 39480, Note_on_c, 0, 59, 35
2, 39600, Note_on_c, 0, 59, 0
2, 39600, Note_on_c, 0, 70, 0
2, 39600, Note_on_c, 0, 55, 38
2, 39600, Note_on_c, 0, 71, 50
2, 39720, Note_on_c, 0, 55, 0
2, 39720, Note_on_c, 0, 50, 27
2, 39840, Note_on_c, 0, 71, 0
2, 39840, Note_on_c, 0, 74, 56
2, 39960, Note_on_c, 0, 65, 27
2, 40080, Note_on_c, 0, 65, 0
2, 40080, Note_on_c, 0, 59, 32
2, 40200, Note_on_c, 0, 59, 0
2, 40200, Note_on_c, 0, 55, 27
2, 40320, Note_on_c, 0, 55, 0
2, 40320, Note_on_c, 0, 74, 0
2, 40320, Note_on_c, 0, 50, 0
2, 40320, Note_on_c, 0, 75, 59
2, 40440, Note_on_c, 0, 63, 27
2, 40560, Note_on_c, 0, 63, 0
2, 40560, Note_on_c, 0, 60, 34
2, 40680, Note_on_c, 0, 60, 0
2, 40680, Note_on_c, 0, 55, 28
2, 40800, Note_on_c, 0, 55, 0
2, 40800, Note_on_c, 0, 75, 0
2, 40800, Note_on_c, 0, 66, 47
2, 40920, Note_on_c, 0, 60, 29
2, 41040, Note_on_c, 0, 60, 0
2, 41040, Note_on_c, 0, 58, 32
2, 41160, Note_on_c, 0, 58, 0
2, 41160, Note_on_c, 0, 57, 27
2, 41280, Note_on_c, 0, 57, 0
2, 41280, Note_on_c, 0, 66, 0
2, 41280, Note_on_c, 0, 67, 47
2, 41400, Note_on_c, 0, 58, 27
2, 41520, Note_on_c, 0, 58, 0
2, 41520, Note_on_c, 0, 55, 31
2, 41640, Note_on_c, 0, 55, 0
2, 41640, Note_on_c, 0, 51, 27
2, 41760, Note_on_c, 0, 51, 0
2, 41760, Note_on_c, 0, 67, 0
2, 41760, Note_on_c, 0, 50, 31
2, 41760, Note_on_c, 0, 69, 47
2, 41880, Note_on_c, 0, 50, 0
2, 41880, Note_on_c, 0, 60, 28
2, 42000, Note_on_c, 0, 60, 0
2, 42000, Note_on_c, 0, 57, 33
2, 42120, Note_on_c, 0, 57, 0
2, 42120, Note_on_c, 0, 50, 31
2, 42240, Note_on_c, 0, 50, 0
2, 42240, Note_on_c, 0, 69, 0
2, 42240, Note_on_c, 0, 70, 47
2, 42360, Note_on_c, 0, 58, 26
2, 42480, Note_on_c, 0, 58, 0
2, 42480, Note_on_c, 0, 57, 34
2, 42600, Note_on_c, 0, 57, 0
2, 42600, Note_on_c, 0, 55, 28
2, 42720, Note_on_c, 0, 55, 0
2, 42720, Note_on_c, 0, 70, 0
2, 42720, Note_on_c, 0, 53, 34
2, 42720, Note_on_c, 0, 61, 45
2, 42840, Note_on_c, 0, 53, 0
2, 42840, Note_on_c, 0, 52, 29
2, 42960, Note_on_c, 0, 52, 0
2, 42960, Note_on_c, 0, 57, 35
2, 43080, Note_on_c, 0, 57, 0
2, 43080, Note_on_c, 0, 55, 28
2, 43200, Note_on_c, 0, 61, 0
2, 43200, Note_on_c, 0, 62, 41
2, 43320, Note_on_c, 0, 57, 32
2, 43440, Note_on_c, 0, 55, 0
2, 43440, Note_on_c, 0, 54, 31
2, 43560, Note_on_c, 0, 54, 0
2, 43560, Note_on_c, 0, 50, 27
2, 43650, Note_on_c, 0, 50, 0
2, 43650, Note_on_c, 0, 62, 0
2, 43650, Note_on_c, 0, 63, 38
2, 43680, Note_on_c, 0, 69, 56
2, 44160, Control_c, 0, 91, 127
2, 44160, Text_t, "bdca426d104a26ac9dcb070447587523"
2, 44880, Note_on_c, 0, 69, 0
2, 44880, Note_on_c, 0, 63, 0
2, 44880, Note_on_c, 0, 57, 0
2, 44880, Note_on_c, 0, 63, 38
2, 44880, Note_on_c, 0, 58, 38
2, 44880, Note_on_c, 0, 70, 54
2, 45120, Note_on_c, 0, 70, 0
2, 45120, Note_on_c, 0, 58, 0
2, 45120, Note_on_c, 0, 63, 0
2, 45120, Note_on_c, 0, 70, 45
2, 45120, Note_on_c, 0, 74, 63
2, 45300, Note_on_c, 0, 74, 0
2, 45300, Note_on_c, 0, 72, 57
2, 45360, Note_on_c, 0, 72, 0
2, 45360, Note_on_c, 0, 70, 0
2, 45360, Note_on_c, 0, 72, 60
2, 45360, Note_on_c, 0, 63, 43
2, 45360, Note_on_c, 0, 60, 43
2, 45840, Note_on_c, 0, 60, 0
2, 45840, Note_on_c, 0, 63, 0
2, 45840, Note_on_c, 0, 72, 0
2, 45840, Note_on_c, 0, 58, 39
2, 45840, Note_on_c, 0, 63, 39
2, 45840, Note_on_c, 0, 70, 56
2, 46080, Note_on_c, 0, 70, 0
2, 46080, Note_on_c, 0, 63, 0
2, 46080, Note_on_c, 0, 58, 0
2, 46080, Note_on_c, 0, 63, 40
2, 46080, Note_on_c, 0, 69, 57
2, 46080, Note_on_c, 0, 57, 40
2, 46320, Note_on_c, 0, 57, 0
2, 46320, Note_on_c, 0, 69, 0
2, 46320, Note_on_c, 0, 63, 0
2, 46320, Note_on_c, 0, 58, 38
2, 46320, Note_on_c, 0, 63, 45
2, 46320, Note_on_c, 0, 67, 54
2, 46560, Note_on_c, 0, 67, 0
2, 46560, Note_on_c, 0, 58, 0
2, 46560, Note_on_c, 0, 60, 51
2, 46560, Note_on_c, 0, 65, 60
2, 46680, Note_on_c, 0, 65, 0
2, 46680, Note_on_c, 0, 67, 50
2, 46710, Note_on_c, 0, 67, 0
2, 46710, Note_on_c, 0, 65, 45
2, 46740, Note_on_c, 0, 65, 0
2, 46740, Note_on_c, 0, 64, 50
2, 46770, Note_on_c, 0, 64, 0
2, 46770, Note_on_c, 0, 65, 52
2, 46800, Note_on_c, 0, 65, 0
2, 46800, Note_on_c, 0, 63, 0
2, 46800, Note_on_c, 0, 67, 59
2, 46980, Note_on_c, 0, 67, 0
2, 46980, Note_on_c, 0, 63, 52
2, 47040, Note_on_c, 0, 63, 0
2, 47040, Note_on_c, 0, 63, 58
2, 47280, Note_on_c, 0, 63, 0
2, 47280, Note_on_c, 0, 60, 0
2, 47280, Note_on_c, 0, 56, 42
2, 47280, Note_on_c, 0, 50, 42
2, 47280, Note_on_c, 0, 62, 50
2, 47760, Note_on_c, 0, 62, 0
2, 47760, Note_on_c, 0, 50, 0
2, 47760, Note_on_c, 0, 56, 0
2, 47760, Note_on_c, 0, 56, 28
2, 47760, Note_on_c, 0, 51, 28
2, 47760, Note_on_c, 0, 60, 41
2, 47970, Note_on_c, 0, 51, 0
2, 48000, Note_on_c, 0, 55, 46
2, 48180, Note_on_c, 0, 55, 0
2, 48180, Note_on_c, 0, 53, 37
2, 48240, Note_on_c, 0, 53, 0
2, 48240, Note_on_c, 0, 60, 0
2, 48240, Note_on_c, 0, 56, 0
2, 48240, Note_on_c, 0, 53, 30
2, 48240, Note_on_c, 0, 56, 43
2, 48240, Note_on_c, 0, 58, 43
2, 48720, Note_on_c, 0, 56, 0
2, 48720, Note_on_c, 0, 53, 0
2, 48720, Note_on_c, 0, 56, 35
2, 48720, Note_on_c, 0, 51, 29
2, 48960, Note_on_c, 0, 51, 0
2, 48960, Note_on_c, 0, 56, 0
2, 48960, Note_on_c, 0, 55, 29
2, 48960, Note_on_c, 0, 50, 33
2, 49200, Note_on_c, 0, 50, 0
2, 49200, Note_on_c, 0, 55, 0
2, 49200, Note_on_c, 0, 58, 0
2, 49200, Note_on_c, 0, 58, 43
2, 49200, Note_on_c, 0, 53, 26
2, 49200, Note_on_c, 0, 48, 26
2, 49440, Note_on_c, 0, 48, 0
2, 49440, Note_on_c, 0, 53, 0
2, 49440, Note_on_c, 0, 51, 39
2, 49440, Note_on_c, 0, 46, 39
2, 49560, Note_on_c, 0, 46, 0
2, 49560, Note_on_c, 0, 51, 0
2, 49560, Note_on_c, 0, 53, 36
2, 49560, Note_on_c, 0, 48, 30
2, 49590, Note_on_c, 0, 46, 25
2, 49590, Note_on_c, 0, 51, 30
2, 49599, Note_on_c, 0, 48, 0
2, 49599, Note_on_c, 0, 53, 0
2, 49620, Note_on_c, 0, 44, 31
2, 49620, Note_on_c, 0, 50, 37
2, 49629, Note_on_c, 0, 51, 0
2, 49629, Note_on_c, 0, 46, 0
2, 49650, Note_on_c, 0, 51, 41
2, 49650, Note_on_c, 0, 46, 35
2, 49659, Note_on_c, 0, 50, 0
2, 49659, Note_on_c, 0, 44, 0
2, 49680, Note_on_c, 0, 58, 0
2, 49680, Note_on_c, 0, 55, 50
2, 49680, Note_on_c, 0, 58, 42
2, 49680, Note_on_c, 0, 50, 40
2, 49689, Note_on_c, 0, 46, 0
2, 49689, Note_on_c, 0, 51, 0
2, 49860, Note_on_c, 0, 50, 0
2, 49860, Note_on_c, 0, 55, 0
2, 49860, Note_on_c, 0, 50, 34
2, 49860, Note_on_c, 0, 44, 34
2, 49920, Note_on_c, 0, 44, 0
2, 49920, Note_on_c, 0, 50, 0
2, 49920, Note_on_c, 0, 58, 0
2, 49920, Note_on_c, 0, 46, 32
2, 49920, Note_on_c, 0, 51, 36
2, 49920, Note_on_c, 0, 58, 41
2, 50400, Note_on_c, 0, 58, 0
2, 50400, Note_on_c, 0, 51, 0
2, 50400, Note_on_c, 0, 46, 0
2, 50400, Note_on_c, 0, 49, 28
2, 50400, Note_on_c, 0, 52, 28
2, 50400, Note_on_c, 0, 57, 34
2, 50880, Note_on_c, 0, 57, 0
2, 50880, Note_on_c, 0, 52, 0
2, 50880, Note_on_c, 0, 49, 0
2, 50880, Note_on_c, 0, 50, 24
2, 50880, Note_on_c, 0, 54, 24
2, 50880, Note_on_c, 0, 57, 29
2, 51840, Note_on_c, 0, 57, 0
2, 51840, Note_on_c, 0, 54, 0
2, 51840, Note_on_c, 0, 50, 0
2, 51840, End_track
3, 0, Start_track
3, 0, Title_t, "Piano left"
3, 0, Program_c, 0, 0
3, 240, Note_on_c, 0, 53, 37
3, 240, Note_on_c, 0, 48, 31
3, 720, Note_on_c, 0, 48, 0
3, 720, Note_on_c, 0, 53, 0
3, 720, Note_on_c, 0, 46, 27
3, 720, Note_on_c, 0, 53, 32
3, 1200, Note_on_c, 0, 53, 0
3, 1200, Note_on_c, 0, 46, 0
3, 1200, Note_on_c, 0, 45, 32
3, 1200, Note_on_c, 0, 53, 38
3, 1680, Note_on_c, 0, 53, 0
3, 1680, Note_on_c, 0, 45, 0
3, 1680, Note_on_c, 0, 46, 28
3, 1680, Note_on_c, 0, 53, 33
3, 1920, Note_on_c, 0, 46, 0
3, 1920, Note_on_c, 0, 48, 38
3, 2160, Note_on_c, 0, 48, 0
3, 2160, Note_on_c, 0, 53, 0
3, 2160, Note_on_c, 0, 46, 32
3, 2160, Note_on_c, 0, 53, 27
3, 2400, Note_on_c, 0, 46, 0
3, 2400, Note_on_c, 0, 45, 34
3, 2640, Note_on_c, 0, 45, 0
3, 2640, Note_on_c, 0, 53, 0
3, 2640, Note_on_c, 0, 41, 38
3, 2640, Note_on_c, 0, 57, 45
3, 3120, Note_on_c, 0, 57, 0
3, 3120, Note_on_c, 0, 41, 0
3, 3120, Note_on_c, 0, 46, 32
3, 3120, Note_on_c, 0, 34, 27
3, 3600, Note_on_c, 0, 34, 0
3, 3600, Note_on_c, 0, 46, 0
3, 3600, Note_on_c, 0, 36, 18
3, 3600, Note_on_c, 0, 48, 22
3, 3810, Note_on_c, 0, 48, 0
3, 3810, Note_on_c, 0, 36, 0
3, 3810, Note_on_c, 0, 39, 34
3, 3840, Note_on_c, 0, 51, 40
3, 4020, Note_on_c, 0, 51, 0
3, 4020, Note_on_c, 0, 39, 0
3, 4020, Note_on_c, 0, 38, 28
3, 4080, Note_on_c, 0, 38, 0
3, 4080, Note_on_c, 0, 50, 32
3, 4080, Note_on_c, 0, 38, 27
3, 4560, Note_on_c, 0, 38, 0
3, 4560, Note_on_c, 0, 50, 0
3, 4560, Note_on_c, 0, 36, 23
3, 4560, Note_on_c, 0, 48, 28
3, 4800, Note_on_c, 0, 48, 0
3, 4800, Note_on_c, 0, 36, 0
3, 4800, Note_on_c, 0, 46, 28
3, 4800, Note_on_c, 0, 34, 23
3, 5040, Note_on_c, 0, 34, 0
3, 5040, Note_on_c, 0, 46, 0
3, 5040, Note_on_c, 0, 44, 29
3, 5040, Note_on_c, 0, 32, 24
3, 5280, Note_on_c, 0, 32, 0
3, 5280, Note_on_c, 0, 44, 0
3, 5280, Note_on_c, 0, 43, 34
3, 5280, Note_on_c, 0, 31, 28
3, 5400, Note_on_c, 0, 31, 0
3, 5400, Note_on_c, 0, 43, 0
3, 5400, Note_on_c, 0, 44, 26
3, 5400, Note_on_c, 0, 32, 26
3, 5430, Note_on_c, 0, 43, 23
3, 5430, Note_on_c, 0, 31, 23
3, 5439, Note_on_c, 0, 32, 0
3, 5439, Note_on_c, 0, 44, 0
3, 5460, Note_on_c, 0, 30, 28
3, 5460, Note_on_c, 0, 42, 28
3, 5469, Note_on_c, 0, 43, 0
3, 5469, Note_on_c, 0, 31, 0
3, 5490, Note_on_c, 0, 31, 29
3, 5490, Note_on_c, 0, 43, 29
3, 5499, Note_on_c, 0, 30, 0
3, 5499, Note_on_c, 0, 42, 0
3, 5520, Note_on_c, 0, 32, 28
3, 5520, Note_on_c, 0, 44, 34
3, 5529, Note_on_c, 0, 31, 0
3, 5529, Note_on_c, 0, 43, 0
3, 5700, Note_on_c, 0, 32, 0
3, 5700, Note_on_c, 0, 44, 0
3, 5700, Note_on_c, 0, 41, 30
3, 5700, Note_on_c, 0, 29, 25
3, 5760, Note_on_c, 0, 29, 0
3, 5760, Note_on_c, 0, 41, 0
3, 5760, Note_on_c, 0, 29, 30
3, 5760, Note_on_c, 0, 41, 36
3, 5970, Note_on_c, 0, 41, 0
3, 5970, Note_on_c, 0, 29, 0
3, 5970, Note_on_c, 0, 31, 37
3, 5970, Note_on_c, 0, 43, 37
3, 6000, Note_on_c, 0, 43, 0
3, 6000, Note_on_c, 0, 31, 0
3, 6000, Note_on_c, 0, 53, 31
3, 6000, Note_on_c, 0, 55, 37
3, 6480, Note_on_c, 0, 55, 0
3, 6480, Note_on_c, 0, 53, 0
3, 6480, Note_on_c, 0, 55, 34
3, 6480, Note_on_c, 0, 51, 29
3, 6720, Note_on_c, 0, 51, 0
3, 6720, Note_on_c, 0, 55, 0
3, 6720, Note_on_c, 0, 57, 37
3, 6720, Note_on_c, 0, 48, 27
3, 6960, Note_on_c, 0, 48, 0
3, 6960, Note_on_c, 0, 57, 0
3, 6960, Note_on_c, 0, 47, 33
3, 6960, Note_on_c, 0, 55, 39
3, 7440, Note_on_c, 0, 55, 0
3, 7440, Note_on_c, 0, 47, 0
3, 7440, Note_on_c, 0, 55, 39
3, 7440, Note_on_c, 0, 48, 33
3, 7680, Note_on_c, 0, 48, 0
3, 7680, Note_on_c, 0, 53, 45
3, 7920, Note_on_c, 0, 53, 0
3, 7920, Note_on_c, 0, 55, 0
3, 7920, Note_on_c, 0, 55, 26
3, 7920, Note_on_c, 0, 51, 38
3, 8160, Note_on_c, 0, 51, 0
3, 8160, Note_on_c, 0, 50, 41
3, 8400, Note_on_c, 0, 50, 0
3, 8400, Note_on_c, 0, 55, 0
3, 8400, Note_on_c, 0, 53, 45
3, 8400, Note_on_c, 0, 47, 38
3, 8880, Note_on_c, 0, 47, 0
3, 8880, Note_on_c, 0, 53, 0
3, 8880, Note_on_c, 0, 49, 32
3, 9240, Note_on_c, 0, 49, 0
3, 9240, Note_on_c, 0, 49, 38
3, 9300, Note_on_c, 0, 48, 38
3, 9306, Note_on_c, 0, 49, 0
3, 9360, Note_on_c, 0, 46, 38
3, 9366, Note_on_c, 0, 48, 0
3, 9420, Note_on_c, 0, 48, 38
3, 9426, Note_on_c, 0, 46, 0
3, 9480, Note_on_c, 0, 46, 38
3, 9486, Note_on_c, 0, 48, 0
3, 9540, Note_on_c, 0, 44, 38
3, 9546, Note_on_c, 0, 46, 0
3, 9600, Note_on_c, 0, 43, 38
3, 9606, Note_on_c, 0, 44, 0
3, 9660, Note_on_c, 0, 44, 38
3, 9666, Note_on_c, 0, 43, 0
3, 9720, Note_on_c, 0, 43, 38
3, 9726, Note_on_c, 0, 44, 0
3, 9780, Note_on_c, 0, 41, 38
3, 9786, Note_on_c, 0, 43, 0
3, 9840, Note_on_c, 0, 40, 38
3, 9846, Note_on_c, 0, 41, 0
3, 10560, Note_on_c, 0, 40, 0
3, 10800, Note_on_c, 0, 42, 38
3, 11160, Note_on_c, 0, 42, 0
3, 11160, Note_on_c, 0, 42, 38
3, 11220, Note_on_c, 0, 41, 38
3, 11226, Note_on_c, 0, 42, 0
3, 11280, Note_on_c, 0, 39, 38
3, 11286, Note_on_c, 0, 41, 0
3, 11340, Note_on_c, 0, 41, 38
3, 11346, Note_on_c, 0, 39, 0
3, 11400, Note_on_c, 0, 39, 38
3, 11406, Note_on_c, 0, 41, 0
3, 11460, Note_on_c, 0, 37, 38
3, 11466, Note_on_c, 0, 39, 0
3, 11520, Note_on_c, 0, 36, 38
3, 11526, Note_on_c, 0, 37, 0
3, 11580, Note_on_c, 0, 37, 38
3, 11586, Note_on_c, 0, 36, 0
3, 11640, Note_on_c, 0, 36, 38
3, 11646, Note_on_c, 0, 37, 0
3, 11700, Note_on_c, 0, 34, 38
3, 11706, Note_on_c, 0, 36, 0
3, 11760, Note_on_c, 0, 33, 38
3, 11766, Note_on_c, 0, 34, 0
3, 12480, Note_on_c, 0, 33, 0
3, 12480, Note_on_c, 0, 33, 38
3, 12720, Note_on_c, 0, 33, 0
3, 12720, Note_on_c, 0, 34, 38
3, 13200, Note_on_c, 0, 34, 0
3, 13200, Note_on_c, 0, 36, 38
3, 13440, Note_on_c, 0, 36, 0
3, 13440, Note_on_c, 0, 41, 38
3, 13650, Note_on_c, 0, 41, 0
3, 13650, Note_on_c, 0, 53, 28
3, 13650, Note_on_c, 0, 48, 23
3, 14160, Note_on_c, 0, 48, 0
3, 14160, Note_on_c, 0, 53, 0
3, 14160, Note_on_c, 0, 53, 32
3, 14160, Note_on_c, 0, 46, 27
3, 14640, Note_on_c, 0, 46, 0
3, 14640, Note_on_c, 0, 53, 0
3, 14640, Note_on_c, 0, 53, 38
3, 14640, Note_on_c, 0, 45, 32
3, 15120, Note_on_c, 0, 45, 0
3, 15120, Note_on_c, 0, 53, 0
3, 15120, Note_on_c, 0, 46, 28
3, 15120, Note_on_c, 0, 53, 33
3, 15360, Note_on_c, 0, 46, 0
3, 15360, Note_on_c, 0, 48, 38
3, 15600, Note_on_c, 0, 48, 0
3, 15600, Note_on_c, 0, 53, 0
3, 15600, Note_on_c, 0, 46, 32
3, 15600, Note_on_c, 0, 53, 27
3, 15840, Note_on_c, 0, 46, 0
3, 15840, Note_on_c, 0, 45, 41
3, 16080, Note_on_c, 0, 45, 0
3, 16080, Note_on_c, 0, 53, 0
3, 16080, Note_on_c, 0, 57, 45
3, 16080, Note_on_c, 0, 41, 38
3, 16560, Note_on_c, 0, 41, 0
3, 16560, Note_on_c, 0, 57, 0
3, 16560, Note_on_c, 0, 42, 27
3, 16560, Note_on_c, 0, 50, 32
3, 17040, Note_on_c, 0, 42, 0
3, 17040, Note_on_c, 0, 43, 37
3, 17280, Note_on_c, 0, 43, 0
3, 17280, Note_on_c, 0, 46, 54
3, 17460, Note_on_c, 0, 46, 0
3, 17460, Note_on_c, 0, 45, 42
3, 17520, Note_on_c, 0, 45, 0
3, 17520, Note_on_c, 0, 45, 49
3, 17760, Note_on_c, 0, 50, 0
3, 18000, Note_on_c, 0, 45, 0
3, 18000, Note_on_c, 0, 43, 45
3, 18240, Note_on_c, 0, 43, 0
3, 18240, Note_on_c, 0, 42, 51
3, 18480, Note_on_c, 0, 42, 0
3, 18480, Note_on_c, 0, 39, 44
3, 18720, Note_on_c, 0, 39, 0
3, 18720, Note_on_c, 0, 38, 44
3, 18768, Note_on_c, 0, 38, 0
3, 18768, Note_on_c, 0, 39, 38
3, 18816, Note_on_c, 0, 39, 0
3, 18816, Note_on_c, 0, 38, 42
3, 18864, Note_on_c, 0, 38, 0
3, 18864, Note_on_c, 0, 36, 38
3, 18912, Note_on_c, 0, 36, 0
3, 18912, Note_on_c, 0, 38, 38
3, 18960, Note_on_c, 0, 38, 0
3, 18960, Note_on_c, 0, 39, 42
3, 19140, Note_on_c, 0, 39, 0
3, 19140, Note_on_c, 0, 36, 34
3, 19200, Note_on_c, 0, 36, 0
3, 19200, Note_on_c, 0, 34, 33
3, 19680, Note_on_c, 0, 34, 0
3, 20640, Note_on_c, 0, 46, 46
3, 21120, Note_on_c, 0, 46, 0
3, 21120, Note_on_c, 0, 48, 46
3, 21600, Note_on_c, 0, 48, 0
3, 21600, Note_on_c, 0, 50, 42
3, 22080, Note_on_c, 0, 50, 0
3, 22080, Note_on_c, 0, 51, 46
3, 22560, Note_on_c, 0, 51, 0
3, 22560, Note_on_c, 0, 54, 40
3, 23040, Note_on_c, 0, 54, 0
3, 23040, Note_on_c, 0, 55, 46
3, 23520, Note_on_c, 0, 55, 0
3, 23520, Note_on_c, 0, 52, 42
3, 24000, Note_on_c, 0, 52, 0
3, 24000, Note_on_c, 0, 50, 39
3, 24480, Note_on_c, 0, 50, 0
3, 24480, Note_on_c, 0, 34, 35
3, 24960, Note_on_c, 0, 34, 0
3, 24960, Note_on_c, 0, 45, 40
3, 24960, Note_on_c, 0, 36, 40
3, 25440, Note_on_c, 0, 36, 0
3, 25440, Note_on_c, 0, 45, 0
3, 25440, Note_on_c, 0, 38, 44
3, 25920, Note_on_c, 0, 38, 0
3, 25920, Note_on_c, 0, 39, 49
3, 25920, Note_on_c, 0, 48, 49
3, 26400, Note_on_c, 0, 48, 0
3, 26400, Note_on_c, 0, 39, 0
3, 26400, Note_on_c, 0, 42, 41
3, 26880, Note_on_c, 0, 42, 0
3, 26880, Note_on_c, 0, 43, 40
3, 27120, Note_on_c, 0, 55, 35
3, 27360, Note_on_c, 0, 55, 0
3, 27360, Note_on_c, 0, 43, 0
3, 27360, Note_on_c, 0, 45, 39
3, 27840, Note_on_c, 0, 45, 0
3, 27840, Note_on_c, 0, 46, 40
3, 28320, Note_on_c, 0, 46, 0
3, 28320, Note_on_c, 0, 34, 35
3, 28800, Note_on_c, 0, 34, 0
3, 28800, Note_on_c, 0, 57, 40
3, 28800, Note_on_c, 0, 48, 40
3, 29280, Note_on_c, 0, 48, 0
3, 29280, Note_on_c, 0, 57, 0
3, 29280, Note_on_c, 0, 38, 44
3, 29760, Note_on_c, 0, 38, 0
3, 29760, Note_on_c, 0, 51, 49
3, 29760, Note_on_c, 0, 60, 49
3, 30240, Note_on_c, 0, 60, 0
3, 30240, Note_on_c, 0, 51, 0
3, 30240, Note_on_c, 0, 54, 41
3, 30720, Note_on_c, 0, 54, 0
3, 30720, Note_on_c, 0, 55, 40
3, 30960, Note_on_c, 0, 67, 38
3, 31200, Note_on_c, 0, 67, 0
3, 31200, Note_on_c, 0, 55, 0
3, 31200, Note_on_c, 0, 57, 39
3, 31320, Note_on_c, 0, 65, 35
3, 31560, Note_on_c, 0, 65, 0
3, 31560, Note_on_c, 0, 63, 35
3, 31680, Note_on_c, 0, 63, 0
3, 31680, Note_on_c, 0, 62, 40
3, 32160, Note_on_c, 0, 62, 0
3, 32160, Note_on_c, 0, 57, 0
3, 32160, Note_on_c, 0, 46, 41
3, 32640, Note_on_c, 0, 46, 0
3, 32640, Note_on_c, 0, 48, 41
3, 32640, Note_on_c, 0, 57, 41
3, 32998, Note_on_c, 0, 57, 0
3, 33120, Note_on_c, 0, 48, 0
3, 33120, Note_on_c, 0, 50, 37
3, 33600, Note_on_c, 0, 50, 0
3, 33600, Note_on_c, 0, 51, 41
3, 33958, Note_on_c, 0, 51, 0
3, 34080, Note_on_c, 0, 54, 36
3, 34560, Note_on_c, 0, 54, 0
3, 34560, Note_on_c, 0, 55, 41
3, 34918, Note_on_c, 0, 55, 0
3, 35040, Note_on_c, 0, 52, 37
3, 35520, Note_on_c, 0, 52, 0
3, 35520, Note_on_c, 0, 50, 35
3, 35878, Note_on_c, 0, 50, 0
3, 36000, Note_on_c, 0, 47, 35
3, 36480, Note_on_c, 0, 47, 0
3, 36480, Note_on_c, 0, 48, 35
3, 36960, Note_on_c, 0, 48, 0
3, 36960, Note_on_c, 0, 46, 45
3, 37440, Note_on_c, 0, 46, 0
3, 37440, Note_on_c, 0, 39, 49
3, 37920, Note_on_c, 0, 39, 0
3, 37920, Note_on_c, 0, 39, 35
3, 38400, Note_on_c, 0, 39, 0
3, 38400, Note_on_c, 0, 51, 35
3, 38880, Note_on_c, 0, 51, 0
3, 38880, Note_on_c, 0, 50, 40
3, 39360, Note_on_c, 0, 50, 0
3, 39360, Note_on_c, 0, 43, 48
3, 39840, Note_on_c, 0, 43, 0
3, 39840, Note_on_c, 0, 36, 36
3, 40800, Note_on_c, 0, 36, 0
3, 40800, Note_on_c, 0, 50, 33
3, 41280, Note_on_c, 0, 50, 0
3, 41280, Note_on_c, 0, 51, 36
3, 41760, Note_on_c, 0, 51, 0
3, 41760, Note_on_c, 0, 42, 32
3, 42240, Note_on_c, 0, 42, 0
3, 42240, Note_on_c, 0, 43, 36
3, 42720, Note_on_c, 0, 43, 0
3, 42720, Note_on_c, 0, 45, 33
3, 43200, Note_on_c, 0, 45, 0
3, 43200, Note_on_c, 0, 50, 31
3, 43680, Note_on_c, 0, 50, 0
3, 43680, Note_on_c, 0, 54, 37
3, 43680, Note_on_c, 0, 48, 31
3, 44130, Note_on_c, 0, 54, 0
3, 44130, Note_on_c, 0, 53, 44
3, 44850, Note_on_c, 0, 53, 0
3, 44880, Note_on_c, 0, 48, 0
3, 44880, Note_on_c, 0, 53, 32
3, 44880, Note_on_c, 0, 46, 27
3, 45360, Note_on_c, 0, 46, 0
3, 45360, Note_on_c, 0, 53, 0
3, 45360, Note_on_c, 0, 45, 32
3, 45360, Note_on_c, 0, 53, 38
3, 45840, Note_on_c, 0, 53, 0
3, 45840, Note_on_c, 0, 45, 0
3, 45840, Note_on_c, 0, 46, 28
3, 45840, Note_on_c, 0, 53, 33
3, 46080, Note_on_c, 0, 46, 0
3, 46080, Note_on_c, 0, 48, 38
3, 46320, Note_on_c, 0, 48, 0
3, 46320, Note_on_c, 0, 53, 0
3, 46320, Note_on_c, 0, 46, 32
3, 46320, Note_on_c, 0, 53, 27
3, 46560, Note_on_c, 0, 46, 0
3, 46560, Note_on_c, 0, 45, 41
3, 46800, Note_on_c, 0, 45, 0
3, 46800, Note_on_c, 0, 53, 0
3, 46800, Note_on_c, 0, 41, 38
3, 46800, Note_on_c, 0, 57, 45
3, 47280, Note_on_c, 0, 57, 0
3, 47280, Note_on_c, 0, 41, 0
3, 47280, Note_on_c, 0, 46, 38
3, 47280, Note_on_c, 0, 34, 32
3, 47760, Note_on_c, 0, 34, 0
3, 47760, Note_on_c, 0, 46, 0
3, 47760, Note_on_c, 0, 36, 22
3, 47760, Note_on_c, 0, 48, 26
3, 48000, Note_on_c, 0, 48, 0
3, 48000, Note_on_c, 0, 36, 0
3, 48000, Note_on_c, 0, 39, 34
3, 48000, Note_on_c, 0, 51, 40
3, 48180, Note_on_c, 0, 51, 0
3, 48180, Note_on_c, 0, 39, 0
3, 48180, Note_on_c, 0, 50, 28
3, 48180, Note_on_c, 0, 38, 20
3, 48240, Note_on_c, 0, 38, 0
3, 48240, Note_on_c, 0, 50, 0
3, 48240, Note_on_c, 0, 50, 32
3, 48240, Note_on_c, 0, 38, 27
3, 48720, Note_on_c, 0, 38, 0
3, 48720, Note_on_c, 0, 50, 0
3, 48720, Note_on_c, 0, 36, 23
3, 48720, Note_on_c, 0, 48, 28
3, 48960, Note_on_c, 0, 48, 0
3, 48960, Note_on_c, 0, 36, 0
3, 48960, Note_on_c, 0, 46, 28
3, 48960, Note_on_c, 0, 34, 23
3, 49200, Note_on_c, 0, 34, 0
3, 49200, Note_on_c, 0, 46, 0
3, 49200, Note_on_c, 0, 44, 24
3, 49200, Note_on_c, 0, 32, 20
3, 49440, Note_on_c, 0, 32, 0
3, 49440, Note_on_c, 0, 44, 0
3, 49440, Note_on_c, 0, 43, 28
3, 49440, Note_on_c, 0, 31, 23
3, 49560, Note_on_c, 0, 31, 0
3, 49560, Note_on_c, 0, 43, 0
3, 49560, Note_on_c, 0, 44, 23
3, 49560, Note_on_c, 0, 32, 19
3, 49590, Note_on_c, 0, 43, 22
3, 49590, Note_on_c, 0, 31, 22
3, 49599, Note_on_c, 0, 32, 0
3, 49599, Note_on_c, 0, 44, 0
3, 49620, Note_on_c, 0, 29, 21
3, 49620, Note_on_c, 0, 41, 25
3, 49629, Note_on_c, 0, 43, 0
3, 49629, Note_on_c, 0, 31, 0
3, 49650, Note_on_c, 0, 31, 22
3, 49650, Note_on_c, 0, 43, 26
3, 49659, Note_on_c, 0, 29, 0
3, 49659, Note_on_c, 0, 41, 0
3, 49680, Note_on_c, 0, 34, 25
3, 49680, Note_on_c, 0, 46, 30
3, 49689, Note_on_c, 0, 31, 0
3, 49689, Note_on_c, 0, 43, 0
3, 49860, Note_on_c, 0, 34, 0
3, 49860, Note_on_c, 0, 46, 0
3, 49860, Note_on_c, 0, 41, 24
3, 49860, Note_on_c, 0, 29, 21
3, 49920, Note_on_c, 0, 29, 0
3, 49920, Note_on_c, 0, 41, 0
3, 49920, Note_on_c, 0, 31, 23
3, 49920, Note_on_c, 0, 43, 31
3, 50400, Note_on_c, 0, 43, 0
3, 50400, Note_on_c, 0, 31, 0
3, 50400, Note_on_c, 0, 33, 21
3, 50400, Note_on_c, 0, 45, 25
3, 50880, Note_on_c, 0, 45, 0
3, 50880, Note_on_c, 0, 33, 0
3, 50880, Note_on_c, 0, 26, 17
3, 50880, Note_on_c, 0, 33, 17
3, 50880, Note_on_c, 0, 38, 20
3, 51840, Note_on_c, 0, 38, 0
3, 51840, Note_on_c, 0, 33, 0
3, 51840, Note_on_c, 0, 26, 0
3, 51840, End_track
4, 0, Start_track
4, 0, Title_t, "Pedale"
4, 0, Program_c, 0, 0
4, 258, Control_c, 0, 64, 127
4, 730, Control_c, 0, 64, 0
4, 791, Control_c, 0, 64, 127
4, 1210, Control_c, 0, 64, 0
4, 1303, Control_c, 0, 64, 127
4, 1691, Control_c, 0, 64, 0
4, 1744, Control_c, 0, 64, 127
4, 1931, Control_c, 0, 64, 0
4, 1951, Control_c, 0, 64, 127
4, 2169, Control_c, 0, 64, 0
4, 2186, Control_c, 0, 64, 127
4, 2410, Control_c, 0, 64, 0
4, 2468, Control_c, 0, 64, 127
4, 2649, Control_c, 0, 64, 0
4, 2687, Control_c, 0, 64, 127
4, 2885, Control_c, 0, 64, 0
4, 2916, Control_c, 0, 64, 127
4, 3128, Control_c, 0, 64, 0
4, 3153, Control_c, 0, 64, 127
4, 3611, Control_c, 0, 64, 0
4, 3639, Control_c, 0, 64, 127
4, 4089, Control_c, 0, 64, 0
4, 4163, Control_c, 0, 64, 127
4, 4572, Control_c, 0, 64, 0
4, 4601, Control_c, 0, 64, 127
4, 4806, Control_c, 0, 64, 0
4, 4851, Control_c, 0, 64, 127
4, 5049, Control_c, 0, 64, 0
4, 5071, Control_c, 0, 64, 127
4, 5291, Control_c, 0, 64, 0
4, 5318, Control_c, 0, 64, 127
4, 5405, Control_c, 0, 64, 0
4, 5554, Control_c, 0, 64, 127
4, 5774, Control_c, 0, 64, 0
4, 6080, Control_c, 0, 64, 127
4, 6490, Control_c, 0, 64, 0
4, 6551, Control_c, 0, 64, 127
4, 6970, Control_c, 0, 64, 0
4, 7063, Control_c, 0, 64, 127
4, 7451, Control_c, 0, 64, 0
4, 7504, Control_c, 0, 64, 127
4, 7691, Control_c, 0, 64, 0
4, 7711, Control_c, 0, 64, 127
4, 7929, Control_c, 0, 64, 0
4, 7980, Control_c, 0, 64, 127
4, 8170, Control_c, 0, 64, 0
4, 8228, Control_c, 0, 64, 127
4, 8409, Control_c, 0, 64, 0
4, 8447, Control_c, 0, 64, 127
4, 8645, Control_c, 0, 64, 0
4, 8676, Control_c, 0, 64, 127
4, 8888, Control_c, 0, 64, 0
4, 8913, Control_c, 0, 64, 127
4, 9242, Control_c, 0, 64, 0
4, 13765, Control_c, 0, 64, 127
4, 14170, Control_c, 0, 64, 0
4, 14231, Control_c, 0, 64, 127
4, 14650, Control_c, 0, 64, 0
4, 14743, Control_c, 0, 64, 127
4, 15131, Control_c, 0, 64, 0
4, 15184, Control_c, 0, 64, 127
4, 15371, Control_c, 0, 64, 0
4, 15391, Control_c, 0, 64, 127
4, 15609, Control_c, 0, 64, 0
4, 15659, Control_c, 0, 64, 127
4, 15850, Control_c, 0, 64, 0
4, 15908, Control_c, 0, 64, 127
4, 16089, Control_c, 0, 64, 0
4, 16127, Control_c, 0, 64, 127
4, 16325, Control_c, 0, 64, 0
4, 16356, Control_c, 0, 64, 127
4, 16568, Control_c, 0, 64, 0
4, 16593, Control_c, 0, 64, 127
4, 17051, Control_c, 0, 64, 0
4, 17079, Control_c, 0, 64, 127
4, 17280, Control_c, 0, 64, 0
4, 17340, Control_c, 0, 64, 127
4, 18019, Control_c, 0, 64, 0
4, 20668, Control_c, 0, 64, 0
4, 20767, Control_c, 0, 64, 127
4, 21127, Control_c, 0, 64, 0
4, 21200, Control_c, 0, 64, 127
4, 21606, Control_c, 0, 64, 0
4, 21675, Control_c, 0, 64, 127
4, 22087, Control_c, 0, 64, 0
4, 22172, Control_c, 0, 64, 127
4, 22574, Control_c, 0, 64, 0
4, 22657, Control_c, 0, 64, 127
4, 23047, Control_c, 0, 64, 0
4, 23115, Control_c, 0, 64, 127
4, 23531, Control_c, 0, 64, 0
4, 23612, Control_c, 0, 64, 127
4, 24009, Control_c, 0, 64, 0
4, 24097, Control_c, 0, 64, 127
4, 24490, Control_c, 0, 64, 0
4, 24572, Control_c, 0, 64, 127
4, 24974, Control_c, 0, 64, 0
4, 25038, Control_c, 0, 64, 127
4, 25451, Control_c, 0, 64, 0
4, 25553, Control_c, 0, 64, 127
4, 25932, Control_c, 0, 64, 0
4, 26033, Control_c, 0, 64, 127
4, 26411, Control_c, 0, 64, 0
4, 26520, Control_c, 0, 64, 127
4, 26891, Control_c, 0, 64, 0
4, 26979, Control_c, 0, 64, 127
4, 27372, Control_c, 0, 64, 0
4, 27445, Control_c, 0, 64, 127
4, 27854, Control_c, 0, 64, 0
4, 27932, Control_c, 0, 64, 127
4, 28330, Control_c, 0, 64, 0
4, 28412, Control_c, 0, 64, 127
4, 28814, Control_c, 0, 64, 0
4, 28878, Control_c, 0, 64, 127
4, 29291, Control_c, 0, 64, 0
4, 29393, Control_c, 0, 64, 127
4, 29772, Control_c, 0, 64, 0
4, 29873, Control_c, 0, 64, 127
4, 30251, Control_c, 0, 64, 0
4, 30360, Control_c, 0, 64, 127
4, 30731, Control_c, 0, 64, 0
4, 30819, Control_c, 0, 64, 127
4, 31212, Control_c, 0, 64, 0
4, 31285, Control_c, 0, 64, 127
4, 31694, Control_c, 0, 64, 0
4, 31772, Control_c, 0, 64, 127
4, 32188, Control_c, 0, 64, 0
4, 32287, Control_c, 0, 64, 127
4, 32647, Control_c, 0, 64, 0
4, 32720, Control_c, 0, 64, 127
4, 33126, Control_c, 0, 64, 0
4, 33195, Control_c, 0, 64, 127
4, 33607, Control_c, 0, 64, 0
4, 33692, Control_c, 0, 64, 127
4, 34094, Control_c, 0, 64, 0
4, 34177, Control_c, 0, 64, 127
4, 34567, Control_c, 0, 64, 0
4, 34635, Control_c, 0, 64, 127
4, 35051, Control_c, 0, 64, 0
4, 35132, Control_c, 0, 64, 127
4, 35529, Control_c, 0, 64, 0
4, 35617, Control_c, 0, 64, 127
4, 36010, Control_c, 0, 64, 0
4, 36103, Control_c, 0, 64, 127
4, 36487, Control_c, 0, 64, 0
4, 36572, Control_c, 0, 64, 127
4, 36973, Control_c, 0, 64, 0
4, 37040, Control_c, 0, 64, 127
4, 37203, Control_c, 0, 64, 0
4, 37286, Control_c, 0, 64, 127
4, 37446, Control_c, 0, 64, 0
4, 37520, Control_c, 0, 64, 127
4, 37932, Control_c, 0, 64, 0
4, 38063, Control_c, 0, 64, 127
4, 38400, Control_c, 0, 64, 0
4, 38475, Control_c, 0, 64, 127
4, 38890, Control_c, 0, 64, 0
4, 38972, Control_c, 0, 64, 127
4, 39130, Control_c, 0, 64, 0
4, 39235, Control_c, 0, 64, 127
4, 39389, Control_c, 0, 64, 0
4, 39475, Control_c, 0, 64, 127
4, 39868, Control_c, 0, 64, 0
4, 39967, Control_c, 0, 64, 127
4, 40327, Control_c, 0, 64, 0
4, 40400, Control_c, 0, 64, 127
4, 40806, Control_c, 0, 64, 0
4, 40875, Control_c, 0, 64, 127
4, 41287, Control_c, 0, 64, 0
4, 41372, Control_c, 0, 64, 127
4, 41774, Control_c, 0, 64, 0
4, 41857, Control_c, 0, 64, 127
4, 42247, Control_c, 0, 64, 0
4, 42315, Control_c, 0, 64, 127
4, 42731, Control_c, 0, 64, 0
4, 42812, Control_c, 0, 64, 127
4, 43209, Control_c, 0, 64, 0
4, 43297, Control_c, 0, 64, 127
4, 43697, Control_c, 0, 64, 0
4, 43846, Control_c, 0, 64, 127
4, 44890, Control_c, 0, 64, 0
4, 44951, Control_c, 0, 64, 127
4, 45370, Control_c, 0, 64, 0
4, 45463, Control_c, 0, 64, 127
4, 45851, Control_c, 0, 64, 0
4, 45904, Control_c, 0, 64, 127
4, 46091, Control_c, 0, 64, 0
4, 46111, Control_c, 0, 64, 127
4, 46329, Control_c, 0, 64, 0
4, 46346, Control_c, 0, 64, 127
4, 46570, Control_c, 0, 64, 0
4, 46628, Control_c, 0, 64, 127
4, 46809, Control_c, 0, 64, 0
4, 46847, Control_c, 0, 64, 127
4, 47045, Control_c, 0, 64, 0
4, 47076, Control_c, 0, 64, 127
4, 47288, Control_c, 0, 64, 0
4, 47313, Control_c, 0, 64, 127
4, 47771, Control_c, 0, 64, 0
4, 47799, Control_c, 0, 64, 127
4, 48249, Control_c, 0, 64, 0
4, 48273, Control_c, 0, 64, 127
4, 48732, Control_c, 0, 64, 0
4, 48761, Control_c, 0, 64, 127
4, 48966, Control_c, 0, 64, 0
4, 49011, Control_c, 0, 64, 127
4, 49209, Control_c, 0, 64, 0
4, 49231, Control_c, 0, 64, 127
4, 49451, Control_c, 0, 64, 0
4, 49478, Control_c, 0, 64, 127
4, 49565, Control_c, 0, 64, 0
4, 49714, Control_c, 0, 64, 127
4, 49930, Control_c, 0, 64, 0
4, 50103, Control_c, 0, 64, 127
4, 50412, Control_c, 0, 64, 0
4, 50606, Control_c, 0, 64, 127
4, 50891, Control_c, 0, 64, 0
4, 51063, Control_c, 0, 64, 127
4, 52454, Control_c, 0, 64, 0
4, 52454, End_track
5, 0, Start_track
5, 0, Title_t, "Schumann: Kreisleriana No. 4"
5, 0, End_track
6, 0, Start_track
6, 0, Title_t, "Copyright © 2007 by Bernd Krueger"
6, 0, End_track
7, 0, Start_track
7, 0, Title_t, "http://www.piano-midi.de/"
7, 0, End_track
8, 0, Start_track
8, 0, Title_t, "Edition: 27.3.2014"
8, 0, End_track
9, 0, Start_track
9, 0, Title_t, "Spur 8"
9, 0, End_track
10, 0, Start_track
10, 0, Title_t, "Spur 9"
10, 0, End_track
11, 0, Start_track
11, 0, Title_t, "Spur 10"
11, 0, End_track
12, 0, Start_track
12, 0, Title_t, "Spur 11"
12, 0, End_track
13, 0, Start_track
13, 0, Title_t, "Spur 12"
13, 0, End_track
14, 0, Start_track
14, 0, Title_t, "Spur 13"
14, 0, End_track
15, 0, Start_track
15, 0, Title_t, "Spur 14"
15, 0, End_track
16, 0, Start_track
16, 0, Title_t, "Spur 15"
16, 0, End_track
17, 0, Start_track
17, 0, Title_t, "Spur 16"
17, 0, End_track
0, 0, End_of_file
