0, 0, Header, 1, 17, 480
1, 0, Start_track
1, 0, Title_t, "Kreisleriana"
1, 0, Title_t, "Sehr langsam"
1, 0, Copyright_t, "Copyright © 2006 by Bernd Krueger"
1, 0, Text_t, "Robert Schumann"
1, 0, Text_t, "Fertiggestellt: 21.1.2007\012"
1, 0, Text_t, "Update am 27.3.2014\012"
1, 0, Text_t, "Dauer: 3:55 Minuten\012"
1, 0, Time_signature, 12, 3, 12, 8
1, 0, Key_signature, -2, "major"
1, 0, Tempo, 480154
1, 2640, Tempo, 1428571
1, 3600, Tempo, 1212121
1, 3840, Tempo, 1269841
1, 4080, Tempo, 1348315
1, 4320, Tempo, 1403509
1, 5040, Tempo, 1428571
1, 5520, Tempo, 1428571
1, 5760, Tempo, 1295896
1, 6000, Tempo, 1346801
1, 6120, Tempo, 1254181
1, 6240, Tempo, 1410106
1, 6480, Tempo, 1212121
1, 6720, Tempo, 1269841
1, 6960, Tempo, 1348315
1, 7200, Tempo, 1403509
1, 7920, Tempo, 1428571
1, 9360, Tempo, 1230769
1, 9600, Tempo, 1263158
1, 9840, Tempo, 1363636
1, 10080, Tempo, 1411765
1, 11520, Tempo, 1302932
1, 11760, Tempo, 1331853
1, 12000, Tempo, 1377727
1, 12240, Tempo, 1224490
1, 12480, Tempo, 1256545
1, 12720, Tempo, 1445783
1, 12960, Tempo, 1395349
1, 14880, Tempo, 1428571
1, 15120, Tempo, 1445783
1, 15360, Tempo, 1481481
1, 15600, Tempo, 1751825
1, 15840, Tempo, 1454545
1, 16560, Tempo, 1165049
1, 17520, Tempo, 1142857
1, 17760, Tempo, 1100917
1, 18240, Tempo, 1206030
1, 18480, Tempo, 1100917
1, 18960, Tempo, 1164144
1, 19200, Tempo, 1100110
1, 19440, Tempo, 1175549
1, 19920, Tempo, 1105176
1, 20160, Tempo, 1165049
1, 20400, Tempo, 1142857
1, 20640, Tempo, 1100917
1, 21120, Tempo, 1206030
1, 21360, Tempo, 1100917
1, 21840, Tempo, 1164144
1, 22080, Tempo, 1131008
1, 22320, Tempo, 1175549
1, 22778, Tempo, 1147228
1, 22797, Tempo, 1152738
1, 22816, Tempo, 1163919
1, 22836, Tempo, 1175318
1, 22855, Tempo, 1186944
1, 22874, Tempo, 1198801
1, 22893, Tempo, 1210898
1, 22912, Tempo, 1217039
1, 22932, Tempo, 1229508
1, 22951, Tempo, 1242236
1, 22970, Tempo, 1255230
1, 22989, Tempo, 1268499
1, 23008, Tempo, 1282051
1, 23040, Tempo, 1175549
1, 23488, Tempo, 1204819
1, 23508, Tempo, 1210898
1, 23527, Tempo, 1217039
1, 23546, Tempo, 1229508
1, 23565, Tempo, 1235839
1, 23584, Tempo, 1248699
1, 23604, Tempo, 1255230
1, 23623, Tempo, 1261830
1, 23642, Tempo, 1275239
1, 23661, Tempo, 1282051
1, 23680, Tempo, 1295896
1, 23700, Tempo, 1302932
1, 23719, Tempo, 1310044
1, 23738, Tempo, 1324503
1, 23757, Tempo, 1331853
1, 23776, Tempo, 1346801
1, 23796, Tempo, 1354402
1, 23815, Tempo, 1369863
1, 24162, Tempo, 1487726
1, 24182, Tempo, 1506402
1, 24201, Tempo, 1535312
1, 24220, Tempo, 1565354
1, 24239, Tempo, 1586043
1, 24258, Tempo, 1618123
1, 24278, Tempo, 1651528
1, 24297, Tempo, 1674574
1, 24316, Tempo, 1710376
1, 24335, Tempo, 1747742
1, 24354, Tempo, 1773574
1, 24374, Tempo, 1813785
1, 24393, Tempo, 1855861
1, 24412, Tempo, 1885014
1, 24431, Tempo, 1930502
1, 24450, Tempo, 1978239
1, 24468, Tempo, 1619433
1, 24480, Tempo, 1507917
1, 24960, Tempo, 1175549
1, 25200, Tempo, 1205061
1, 25440, Tempo, 1175549
1, 25920, Tempo, 1100917
1, 26160, Tempo, 1164144
1, 26400, Tempo, 1100110
1, 26640, Tempo, 1100917
1, 26880, Tempo, 1164144
1, 27083, Tempo, 1136579
1, 27102, Tempo, 1147447
1, 27121, Tempo, 1158525
1, 27140, Tempo, 1169819
1, 27159, Tempo, 1181335
1, 27179, Tempo, 1193080
1, 27198, Tempo, 1205061
1, 27217, Tempo, 1223491
1, 27236, Tempo, 1236094
1, 27255, Tempo, 1248959
1, 27275, Tempo, 1262095
1, 27294, Tempo, 1275510
1, 27313, Tempo, 1289214
1, 27332, Tempo, 1303215
1, 27351, Tempo, 1324796
1, 27360, Tempo, 1205061
1, 27376, Tempo, 1211143
1, 27395, Tempo, 1217285
1, 27600, Tempo, 1158525
1, 27840, Tempo, 1187178
1, 28080, Tempo, 1158525
1, 28800, Tempo, 1100917
1, 29040, Tempo, 1164144
1, 29280, Tempo, 1100110
1, 29520, Tempo, 1100917
1, 29760, Tempo, 1164144
1, 30000, Tempo, 1100110
1, 30240, Tempo, 1205061
1, 30256, Tempo, 1211143
1, 30275, Tempo, 1217285
1, 30480, Tempo, 1158525
1, 30720, Tempo, 1187178
1, 30960, Tempo, 1158525
1, 31680, Tempo, 1428571
1, 32400, Tempo, 1212121
1, 32640, Tempo, 1269841
1, 32880, Tempo, 1348315
1, 33120, Tempo, 1403509
1, 33840, Tempo, 1428571
1, 34320, Tempo, 1428571
1, 34560, Tempo, 1331853
1, 34800, Tempo, 1369863
1, 35040, Tempo, 1410106
1, 35280, Tempo, 1212121
1, 35520, Tempo, 1269841
1, 35760, Tempo, 1348315
1, 36000, Tempo, 1403509
1, 36720, Tempo, 1428571
1, 37200, Tempo, 1428571
1, 37440, Tempo, 1379310
1, 38160, Tempo, 1230769
1, 38400, Tempo, 1263158
1, 38640, Tempo, 1363636
1, 38880, Tempo, 1216052
1, 39120, Tempo, 1304348
1, 39360, Tempo, 1363636
1, 39600, Tempo, 1224490
1, 39840, Tempo, 1256545
1, 40080, Tempo, 1445783
1, 40320, Tempo, 1379310
1, 41040, Tempo, 1230769
1, 41280, Tempo, 1263158
1, 41520, Tempo, 1363636
1, 41760, Tempo, 1256545
1, 42000, Tempo, 1304348
1, 42240, Tempo, 1363636
1, 42480, Tempo, 1224490
1, 42720, Tempo, 1256545
1, 42960, Tempo, 1445783
1, 43200, Tempo, 1237113
1, 43440, Tempo, 1269841
1, 43680, Tempo, 1318681
1, 43920, Tempo, 1224490
1, 44160, Tempo, 1256545
1, 44400, Tempo, 1445783
1, 45360, Tempo, 1411765
1, 46080, Tempo, 1212121
1, 46320, Tempo, 1283422
1, 46560, Tempo, 1311475
1, 46800, Tempo, 1224490
1, 47040, Tempo, 1256545
1, 47280, Tempo, 1445783
1, 47520, Tempo, 1267427
1, 47760, Tempo, 1318681
1, 48000, Tempo, 1403509
1, 48240, Tempo, 1318681
1, 48480, Tempo, 1371429
1, 48720, Tempo, 1463415
1, 48900, Tempo, 1428571
1, 49680, Tempo, 1212121
1, 49920, Tempo, 1269841
1, 50160, Tempo, 1348315
1, 50400, Tempo, 1377727
1, 51120, Tempo, 1410106
1, 51600, Tempo, 1428571
1, 51840, Time_signature, 6, 3, 12, 8
1, 51840, Tempo, 1217039
1, 52080, Tempo, 1255230
1, 52320, Tempo, 1302932
1, 52560, Tempo, 1212121
1, 52800, Tempo, 1269841
1, 53040, Tempo, 1310044
1, 53280, Tempo, 1222245
1, 53520, Tempo, 1267427
1, 53760, Tempo, 1210898
1, 54000, Tempo, 1181102
1, 54240, Tempo, 1229508
1, 54480, Tempo, 1186944
1, 54720, Tempo, 1163919
1, 54960, Tempo, 1229508
1, 55200, Tempo, 1192843
1, 55440, Tempo, 1158301
1, 55680, Tempo, 1235839
1, 55920, Tempo, 1210898
1, 56160, Tempo, 1158301
1, 56400, Tempo, 1210898
1, 56640, Tempo, 1192843
1, 56880, Tempo, 1158301
1, 57120, Tempo, 1192843
1, 57360, Tempo, 1223242
1, 57600, Tempo, 1152738
1, 57840, Tempo, 1217039
1, 58080, Tempo, 1186944
1, 58320, Tempo, 1158301
1, 58560, Tempo, 1229508
1, 58800, Tempo, 1192843
1, 59040, Tempo, 1152738
1, 59280, Tempo, 1242236
1, 59520, Tempo, 1192843
1, 59760, Tempo, 1158301
1, 60000, Tempo, 1235839
1, 60240, Tempo, 1186944
1, 60480, Tempo, 1141770
1, 60720, Tempo, 1223242
1, 60960, Tempo, 1186944
1, 61200, Tempo, 1147228
1, 61440, Tempo, 1217039
1, 61680, Tempo, 1175318
1, 61920, Tempo, 1210898
1, 62160, Tempo, 1242236
1, 62400, Tempo, 1229508
1, 62520, Tempo, 1302932
1, 62640, Tempo, 1204819
1, 62880, Tempo, 1255230
1, 63120, Tempo, 1235839
1, 63240, Tempo, 1331853
1, 63360, Tempo, 1210898
1, 63600, Tempo, 1261830
1, 63840, Tempo, 1242236
1, 63960, Tempo, 1339286
1, 64080, Tempo, 1217039
1, 64320, Tempo, 1282051
1, 64560, Tempo, 1362089
1, 64800, Tempo, 1175318
1, 65040, Tempo, 1235839
1, 65280, Tempo, 1192843
1, 65520, Tempo, 1163919
1, 65760, Tempo, 1248699
1, 66000, Tempo, 1217039
1, 66240, Tempo, 1163919
1, 66480, Tempo, 1210898
1, 66720, Tempo, 1192843
1, 66960, Tempo, 1158301
1, 67200, Tempo, 1229508
1, 67440, Tempo, 1204819
1, 67680, Tempo, 1163919
1, 67920, Tempo, 1210898
1, 68160, Tempo, 1186944
1, 68400, Tempo, 1152738
1, 68640, Tempo, 1235839
1, 68880, Tempo, 1217039
1, 69120, Tempo, 1163919
1, 69360, Tempo, 1235839
1, 69600, Tempo, 1186944
1, 69840, Tempo, 1158301
1, 70080, Tempo, 1248699
1, 70320, Tempo, 1217039
1, 70560, Tempo, 1152738
1, 70800, Tempo, 1229508
1, 71040, Tempo, 1198801
1, 71280, Tempo, 1163919
1, 71520, Tempo, 1229508
1, 71760, Tempo, 1210898
1, 72000, Tempo, 1169591
1, 72240, Tempo, 1235839
1, 72480, Tempo, 1186944
1, 72720, Tempo, 1175318
1, 72960, Tempo, 1235839
1, 73200, Tempo, 1186944
1, 73440, Tempo, 1210898
1, 73680, Tempo, 1255230
1, 73920, Tempo, 1229508
1, 74040, Tempo, 1302932
1, 74160, Tempo, 1210898
1, 74400, Tempo, 1255230
1, 74640, Tempo, 1235839
1, 74760, Tempo, 1331853
1, 74880, Tempo, 1210898
1, 75120, Tempo, 1274427
1, 75360, Tempo, 1242236
1, 75480, Tempo, 1426873
1, 75600, Tempo, 1274427
1, 75840, Tempo, 1354402
1, 76080, Tempo, 1392758
1, 76260, Tempo, 1932367
1, 76320, Time_signature, 12, 3, 12, 8
1, 76320, Tempo, 1426873
1, 77040, Tempo, 1212121
1, 77280, Tempo, 1269841
1, 77520, Tempo, 1348315
1, 77760, Tempo, 1403509
1, 78480, Tempo, 1428571
1, 78960, Tempo, 1428571
1, 79200, Tempo, 1324503
1, 79440, Tempo, 1377727
1, 79680, Tempo, 1435407
1, 79920, Tempo, 1212121
1, 80160, Tempo, 1269841
1, 80400, Tempo, 1348315
1, 80640, Tempo, 1403509
1, 81360, Tempo, 1428571
1, 81840, Tempo, 1566580
1, 82080, Tempo, 1435407
1, 82800, Tempo, 1295896
1, 83040, Tempo, 1331853
1, 83280, Tempo, 1488834
1, 83520, Tempo, 1517067
1, 84720, Tempo, 1608579
1, 84960, Tempo, 1460565
1, 85200, Tempo, 1515917
1, 85440, Tempo, 1586043
1, 85680, Tempo, 1539251
1, 85920, Tempo, 1727613
1, 86160, Tempo, 2018163
1, 86400, Tempo, 2322880
1, 86520, Tempo, 2139037
1, 86520, End_track
2, 0, Start_track
2, 0, Title_t, "Piano right"
2, 0, Program_c, 0, 0
2, 0, Control_c, 0, 91, 127
2, 0, Text_t, "bdca426d104a26ac9dcb070447587523"
2, 2640, Note_on_c, 0, 62, 43
2, 2880, Note_on_c, 0, 62, 0
2, 2880, Note_on_c, 0, 65, 37
2, 2880, Note_on_c, 0, 60, 50
2, 3360, Note_on_c, 0, 60, 0
2, 3360, Note_on_c, 0, 62, 44
2, 3540, Note_on_c, 0, 62, 0
2, 3540, Note_on_c, 0, 60, 43
2, 3570, Note_on_c, 0, 60, 0
2, 3570, Note_on_c, 0, 62, 43
2, 3600, Note_on_c, 0, 62, 0
2, 3600, Note_on_c, 0, 63, 50
2, 3960, Note_on_c, 0, 63, 0
2, 3960, Note_on_c, 0, 62, 37
2, 4080, Note_on_c, 0, 62, 0
2, 4080, Note_on_c, 0, 60, 42
2, 4320, Note_on_c, 0, 60, 0
2, 4320, Note_on_c, 0, 58, 45
2, 5040, Note_on_c, 0, 58, 0
2, 5040, Note_on_c, 0, 53, 33
2, 5520, Note_on_c, 0, 53, 0
2, 5520, Note_on_c, 0, 62, 43
2, 5760, Note_on_c, 0, 62, 0
2, 5760, Note_on_c, 0, 65, 0
2, 5760, Note_on_c, 0, 65, 37
2, 5760, Note_on_c, 0, 60, 50
2, 6120, Note_on_c, 0, 60, 0
2, 6120, Note_on_c, 0, 62, 37
2, 6240, Note_on_c, 0, 62, 0
2, 6240, Note_on_c, 0, 60, 44
2, 6450, Note_on_c, 0, 60, 0
2, 6450, Note_on_c, 0, 62, 43
2, 6480, Note_on_c, 0, 62, 0
2, 6480, Note_on_c, 0, 63, 50
2, 6840, Note_on_c, 0, 63, 0
2, 6840, Note_on_c, 0, 62, 37
2, 6960, Note_on_c, 0, 62, 0
2, 6960, Note_on_c, 0, 60, 42
2, 7200, Note_on_c, 0, 60, 0
2, 7200, Note_on_c, 0, 58, 45
2, 8640, Note_on_c, 0, 65, 0
2, 8640, Note_on_c, 0, 70, 40
2, 9840, Note_on_c, 0, 70, 0
2, 9840, Note_on_c, 0, 58, 30
2, 10080, Note_on_c, 0, 58, 0
2, 10080, Note_on_c, 0, 70, 41
2, 10800, Note_on_c, 0, 58, 0
2, 11280, Note_on_c, 0, 58, 34
2, 11520, Note_on_c, 0, 58, 0
2, 11520, Note_on_c, 0, 70, 0
2, 11520, Note_on_c, 0, 63, 43
2, 11880, Note_on_c, 0, 63, 0
2, 11880, Note_on_c, 0, 63, 32
2, 12000, Note_on_c, 0, 63, 0
2, 12000, Note_on_c, 0, 63, 38
2, 12180, Note_on_c, 0, 63, 30
2, 12210, Note_on_c, 0, 63, 0
2, 12210, Note_on_c, 0, 65, 28
2, 12240, Note_on_c, 0, 65, 0
2, 12240, Note_on_c, 0, 63, 0
2, 12240, Note_on_c, 0, 67, 39
2, 12600, Note_on_c, 0, 67, 0
2, 12600, Note_on_c, 0, 65, 30
2, 12720, Note_on_c, 0, 65, 0
2, 12720, Note_on_c, 0, 63, 33
2, 12960, Note_on_c, 0, 63, 0
2, 12960, Note_on_c, 0, 62, 33
2, 14160, Note_on_c, 0, 62, 0
2, 16560, Note_on_c, 0, 55, 54
2, 16560, Note_on_c, 0, 53, 54
2, 16560, Note_on_c, 0, 62, 54
2, 16560, Note_on_c, 0, 59, 54
2, 17280, Note_on_c, 0, 59, 0
2, 17280, Note_on_c, 0, 55, 0
2, 17280, Note_on_c, 0, 53, 0
2, 17280, Note_on_c, 0, 62, 0
2, 17280, Note_on_c, 0, 51, 59
2, 17280, Note_on_c, 0, 55, 59
2, 17280, Note_on_c, 0, 60, 59
2, 17760, Note_on_c, 0, 60, 0
2, 17760, Note_on_c, 0, 55, 0
2, 17760, Note_on_c, 0, 51, 0
2, 18000, Note_on_c, 0, 53, 55
2, 18000, Note_on_c, 0, 59, 55
2, 18480, Note_on_c, 0, 59, 0
2, 18480, Note_on_c, 0, 53, 0
2, 18672, Note_on_c, 0, 55, 53
2, 18720, Note_on_c, 0, 55, 0
2, 18720, Note_on_c, 0, 51, 63
2, 18720, Note_on_c, 0, 60, 63
2, 19200, Note_on_c, 0, 51, 0
2, 19248, Note_on_c, 0, 60, 0
2, 19248, Note_on_c, 0, 62, 59
2, 19296, Note_on_c, 0, 62, 0
2, 19296, Note_on_c, 0, 63, 61
2, 19344, Note_on_c, 0, 63, 0
2, 19344, Note_on_c, 0, 65, 63
2, 19392, Note_on_c, 0, 65, 0
2, 19392, Note_on_c, 0, 67, 64
2, 19440, Note_on_c, 0, 67, 0
2, 19440, Note_on_c, 0, 62, 66
2, 19440, Note_on_c, 0, 68, 66
2, 19920, Note_on_c, 0, 62, 0
2, 19968, Note_on_c, 0, 68, 0
2, 19968, Note_on_c, 0, 67, 59
2, 20016, Note_on_c, 0, 67, 0
2, 20016, Note_on_c, 0, 65, 60
2, 20064, Note_on_c, 0, 65, 0
2, 20064, Note_on_c, 0, 63, 61
2, 20112, Note_on_c, 0, 63, 0
2, 20112, Note_on_c, 0, 62, 67
2, 20160, Note_on_c, 0, 62, 0
2, 20160, Note_on_c, 0, 58, 59
2, 20160, Note_on_c, 0, 67, 59
2, 20640, Note_on_c, 0, 67, 0
2, 20640, Note_on_c, 0, 58, 0
2, 20880, Note_on_c, 0, 60, 55
2, 20880, Note_on_c, 0, 62, 55
2, 20880, Note_on_c, 0, 66, 55
2, 21360, Note_on_c, 0, 66, 0
2, 21360, Note_on_c, 0, 62, 0
2, 21360, Note_on_c, 0, 60, 0
2, 21552, Note_on_c, 0, 62, 53
2, 21600, Note_on_c, 0, 62, 0
2, 21600, Note_on_c, 0, 58, 63
2, 21600, Note_on_c, 0, 67, 63
2, 22080, Note_on_c, 0, 58, 0
2, 22128, Note_on_c, 0, 67, 0
2, 22128, Note_on_c, 0, 69, 59
2, 22176, Note_on_c, 0, 69, 0
2, 22176, Note_on_c, 0, 70, 61
2, 22224, Note_on_c, 0, 70, 0
2, 22224, Note_on_c, 0, 72, 63
2, 22272, Note_on_c, 0, 72, 0
2, 22272, Note_on_c, 0, 74, 64
2, 22320, Note_on_c, 0, 74, 0
2, 22320, Note_on_c, 0, 70, 66
2, 22320, Note_on_c, 0, 75, 66
2, 22800, Note_on_c, 0, 70, 0
2, 22848, Note_on_c, 0, 75, 0
2, 22848, Note_on_c, 0, 74, 58
2, 22896, Note_on_c, 0, 74, 0
2, 22896, Note_on_c, 0, 75, 60
2, 22944, Note_on_c, 0, 75, 0
2, 22944, Note_on_c, 0, 77, 62
2, 22992, Note_on_c, 0, 77, 0
2, 22992, Note_on_c, 0, 78, 64
2, 23040, Note_on_c, 0, 78, 0
2, 23040, Note_on_c, 0, 69, 56
2, 23040, Note_on_c, 0, 78, 66
2, 23520, Note_on_c, 0, 69, 0
2, 23568, Note_on_c, 0, 78, 0
2, 23568, Note_on_c, 0, 69, 59
2, 23616, Note_on_c, 0, 69, 0
2, 23616, Note_on_c, 0, 70, 60
2, 23664, Note_on_c, 0, 70, 0
2, 23664, Note_on_c, 0, 72, 61
2, 23712, Note_on_c, 0, 72, 0
2, 23712, Note_on_c, 0, 74, 63
2, 23760, Note_on_c, 0, 74, 0
2, 23760, Note_on_c, 0, 72, 66
2, 23760, Note_on_c, 0, 75, 66
2, 24240, Note_on_c, 0, 75, 0
2, 24240, Note_on_c, 0, 72, 0
2, 24240, Note_on_c, 0, 70, 45
2, 24240, Note_on_c, 0, 74, 54
2, 24300, Note_on_c, 0, 74, 0
2, 24300, Note_on_c, 0, 75, 50
2, 24360, Note_on_c, 0, 75, 0
2, 24360, Note_on_c, 0, 77, 48
2, 24420, Note_on_c, 0, 77, 0
2, 24420, Note_on_c, 0, 78, 46
2, 24480, Note_on_c, 0, 78, 0
2, 24480, Note_on_c, 0, 70, 0
2, 24480, Note_on_c, 0, 70, 45
2, 24480, Note_on_c, 0, 78, 45
2, 24960, Note_on_c, 0, 78, 0
2, 24960, Note_on_c, 0, 75, 38
2, 25200, Note_on_c, 0, 75, 0
2, 25200, Note_on_c, 0, 70, 0
2, 25200, Note_on_c, 0, 70, 41
2, 25680, Note_on_c, 0, 66, 31
2, 25920, Note_on_c, 0, 66, 0
2, 25920, Note_on_c, 0, 70, 0
2, 25920, Note_on_c, 0, 56, 35
2, 25920, Note_on_c, 0, 64, 35
2, 26400, Note_on_c, 0, 56, 0
2, 26448, Note_on_c, 0, 64, 0
2, 26448, Note_on_c, 0, 55, 35
2, 26496, Note_on_c, 0, 55, 0
2, 26496, Note_on_c, 0, 56, 37
2, 26544, Note_on_c, 0, 56, 0
2, 26544, Note_on_c, 0, 58, 39
2, 26592, Note_on_c, 0, 58, 0
2, 26592, Note_on_c, 0, 59, 41
2, 26640, Note_on_c, 0, 59, 0
2, 26640, Note_on_c, 0, 58, 35
2, 26640, Note_on_c, 0, 64, 35
2, 27120, Note_on_c, 0, 58, 0
2, 27168, Note_on_c, 0, 64, 0
2, 27168, Note_on_c, 0, 63, 35
2, 27216, Note_on_c, 0, 63, 0
2, 27216, Note_on_c, 0, 64, 37
2, 27264, Note_on_c, 0, 64, 0
2, 27264, Note_on_c, 0, 66, 39
2, 27312, Note_on_c, 0, 66, 0
2, 27312, Note_on_c, 0, 68, 41
2, 27360, Note_on_c, 0, 68, 0
2, 27360, Note_on_c, 0, 70, 45
2, 27360, Note_on_c, 0, 66, 45
2, 27840, Note_on_c, 0, 66, 0
2, 27840, Note_on_c, 0, 63, 31
2, 28080, Note_on_c, 0, 63, 0
2, 28080, Note_on_c, 0, 58, 34
2, 28560, Note_on_c, 0, 58, 0
2, 28560, Note_on_c, 0, 54, 26
2, 28800, Note_on_c, 0, 54, 0
2, 28800, Note_on_c, 0, 70, 0
2, 28800, Note_on_c, 0, 56, 35
2, 28800, Note_on_c, 0, 63, 35
2, 29280, Note_on_c, 0, 56, 0
2, 29328, Note_on_c, 0, 63, 0
2, 29328, Note_on_c, 0, 55, 35
2, 29376, Note_on_c, 0, 55, 0
2, 29376, Note_on_c, 0, 56, 37
2, 29424, Note_on_c, 0, 56, 0
2, 29424, Note_on_c, 0, 58, 39
2, 29472, Note_on_c, 0, 58, 0
2, 29472, Note_on_c, 0, 59, 41
2, 29520, Note_on_c, 0, 59, 0
2, 29520, Note_on_c, 0, 58, 26
2, 29520, Note_on_c, 0, 62, 41
2, 30000, Note_on_c, 0, 58, 0
2, 30048, Note_on_c, 0, 62, 0
2, 30048, Note_on_c, 0, 61, 35
2, 30096, Note_on_c, 0, 61, 0
2, 30096, Note_on_c, 0, 62, 37
2, 30144, Note_on_c, 0, 62, 0
2, 30144, Note_on_c, 0, 63, 39
2, 30192, Note_on_c, 0, 63, 0
2, 30192, Note_on_c, 0, 65, 41
2, 30240, Note_on_c, 0, 65, 0
2, 30240, Note_on_c, 0, 66, 45
2, 30240, Note_on_c, 0, 63, 45
2, 31440, Note_on_c, 0, 63, 0
2, 31440, Note_on_c, 0, 58, 26
2, 31680, Note_on_c, 0, 58, 0
2, 31680, Note_on_c, 0, 66, 0
2, 31680, Note_on_c, 0, 57, 26
2, 31680, Note_on_c, 0, 63, 26
2, 31680, Note_on_c, 0, 65, 33
2, 33120, Note_on_c, 0, 53, 26
2, 33120, Note_on_c, 0, 58, 26
2, 33120, Note_on_c, 0, 65, 33
2, 34560, Note_on_c, 0, 65, 0
2, 34560, Note_on_c, 0, 63, 0
2, 34560, Note_on_c, 0, 65, 0
2, 34560, Note_on_c, 0, 57, 0
2, 34560, Note_on_c, 0, 58, 0
2, 34560, Note_on_c, 0, 53, 0
2, 34560, Note_on_c, 0, 57, 26
2, 34560, Note_on_c, 0, 63, 26
2, 34560, Note_on_c, 0, 65, 33
2, 36000, Note_on_c, 0, 65, 0
2, 36000, Note_on_c, 0, 63, 0
2, 36000, Note_on_c, 0, 57, 0
2, 36000, Note_on_c, 0, 58, 26
2, 36000, Note_on_c, 0, 53, 26
2, 36000, Note_on_c, 0, 65, 33
2, 37440, Note_on_c, 0, 65, 0
2, 37440, Note_on_c, 0, 53, 0
2, 37440, Note_on_c, 0, 70, 40
2, 38640, Note_on_c, 0, 70, 0
2, 38640, Note_on_c, 0, 58, 30
2, 38880, Note_on_c, 0, 58, 0
2, 38880, Note_on_c, 0, 70, 48
2, 39240, Note_on_c, 0, 70, 0
2, 39240, Note_on_c, 0, 70, 50
2, 39360, Note_on_c, 0, 70, 0
2, 39360, Note_on_c, 0, 70, 56
2, 39540, Note_on_c, 0, 70, 52
2, 39570, Note_on_c, 0, 70, 0
2, 39570, Note_on_c, 0, 72, 54
2, 39600, Note_on_c, 0, 72, 0
2, 39600, Note_on_c, 0, 70, 0
2, 39600, Note_on_c, 0, 58, 0
2, 39600, Note_on_c, 0, 62, 49
2, 39600, Note_on_c, 0, 74, 56
2, 39960, Note_on_c, 0, 74, 0
2, 39960, Note_on_c, 0, 62, 0
2, 39960, Note_on_c, 0, 60, 37
2, 39960, Note_on_c, 0, 72, 44
2, 40080, Note_on_c, 0, 72, 0
2, 40080, Note_on_c, 0, 60, 0
2, 40080, Note_on_c, 0, 58, 33
2, 40080, Note_on_c, 0, 70, 39
2, 40320, Note_on_c, 0, 70, 0
2, 40320, Note_on_c, 0, 58, 0
2, 40320, Note_on_c, 0, 70, 40
2, 41520, Note_on_c, 0, 70, 0
2, 41520, Note_on_c, 0, 58, 30
2, 41760, Note_on_c, 0, 70, 49
2, 42120, Note_on_c, 0, 70, 0
2, 42120, Note_on_c, 0, 70, 50
2, 42240, Note_on_c, 0, 70, 0
2, 42240, Note_on_c, 0, 70, 56
2, 42420, Note_on_c, 0, 70, 52
2, 42450, Note_on_c, 0, 70, 0
2, 42450, Note_on_c, 0, 72, 54
2, 42480, Note_on_c, 0, 72, 0
2, 42480, Note_on_c, 0, 70, 0
2, 42480, Note_on_c, 0, 58, 0
2, 42480, Note_on_c, 0, 62, 48
2, 42480, Note_on_c, 0, 74, 56
2, 42840, Note_on_c, 0, 74, 0
2, 42840, Note_on_c, 0, 62, 0
2, 42840, Note_on_c, 0, 60, 43
2, 42840, Note_on_c, 0, 72, 51
2, 42960, Note_on_c, 0, 72, 0
2, 42960, Note_on_c, 0, 60, 0
2, 42960, Note_on_c, 0, 58, 42
2, 42960, Note_on_c, 0, 70, 50
2, 43200, Note_on_c, 0, 70, 0
2, 43200, Note_on_c, 0, 58, 0
2, 43200, Note_on_c, 0, 75, 65
2, 43200, Note_on_c, 0, 63, 55
2, 43560, Note_on_c, 0, 63, 0
2, 43560, Note_on_c, 0, 75, 0
2, 43560, Note_on_c, 0, 77, 48
2, 43560, Note_on_c, 0, 65, 40
2, 43680, Note_on_c, 0, 65, 0
2, 43680, Note_on_c, 0, 77, 0
2, 43680, Note_on_c, 0, 75, 58
2, 43680, Note_on_c, 0, 63, 49
2, 43830, Note_on_c, 0, 63, 0
2, 43830, Note_on_c, 0, 75, 0
2, 43830, Note_on_c, 0, 65, 48
2, 43830, Note_on_c, 0, 77, 57
2, 43860, Note_on_c, 0, 77, 0
2, 43860, Note_on_c, 0, 65, 0
2, 43860, Note_on_c, 0, 75, 61
2, 43860, Note_on_c, 0, 63, 51
2, 43890, Note_on_c, 0, 63, 0
2, 43890, Note_on_c, 0, 77, 64
2, 43890, Note_on_c, 0, 65, 54
2, 43920, Note_on_c, 0, 65, 0
2, 43920, Note_on_c, 0, 77, 0
2, 43920, Note_on_c, 0, 75, 0
2, 43920, Note_on_c, 0, 79, 68
2, 43920, Note_on_c, 0, 67, 57
2, 44280, Note_on_c, 0, 67, 0
2, 44280, Note_on_c, 0, 79, 0
2, 44280, Note_on_c, 0, 77, 56
2, 44280, Note_on_c, 0, 65, 47
2, 44400, Note_on_c, 0, 65, 0
2, 44400, Note_on_c, 0, 77, 0
2, 44400, Note_on_c, 0, 75, 65
2, 44400, Note_on_c, 0, 63, 55
2, 44640, Note_on_c, 0, 63, 0
2, 44640, Note_on_c, 0, 75, 0
2, 44640, Note_on_c, 0, 60, 59
2, 44640, Note_on_c, 0, 62, 59
2, 44640, Note_on_c, 0, 74, 70
2, 45360, Note_on_c, 0, 74, 0
2, 45360, Note_on_c, 0, 62, 0
2, 45360, Note_on_c, 0, 60, 0
2, 45360, Note_on_c, 0, 65, 35
2, 45360, Note_on_c, 0, 74, 45
2, 45360, Note_on_c, 0, 67, 50
2, 45840, Note_on_c, 0, 67, 0
2, 45840, Note_on_c, 0, 67, 42
2, 46080, Note_on_c, 0, 67, 0
2, 46080, Note_on_c, 0, 74, 0
2, 46080, Note_on_c, 0, 65, 0
2, 46080, Note_on_c, 0, 63, 41
2, 46080, Note_on_c, 0, 72, 43
2, 46080, Note_on_c, 0, 68, 53
2, 46440, Note_on_c, 0, 68, 0
2, 46440, Note_on_c, 0, 68, 39
2, 46560, Note_on_c, 0, 68, 0
2, 46560, Note_on_c, 0, 68, 47
2, 46740, Note_on_c, 0, 68, 37
2, 46770, Note_on_c, 0, 68, 0
2, 46770, Note_on_c, 0, 70, 35
2, 46800, Note_on_c, 0, 70, 0
2, 46800, Note_on_c, 0, 68, 0
2, 46800, Note_on_c, 0, 72, 0
2, 46800, Note_on_c, 0, 72, 48
2, 47160, Note_on_c, 0, 72, 0
2, 47160, Note_on_c, 0, 70, 35
2, 47280, Note_on_c, 0, 70, 0
2, 47280, Note_on_c, 0, 68, 37
2, 47520, Note_on_c, 0, 68, 0
2, 47520, Note_on_c, 0, 63, 0
2, 47520, Note_on_c, 0, 67, 37
2, 47520, Note_on_c, 0, 65, 37
2, 48240, Note_on_c, 0, 65, 0
2, 48240, Note_on_c, 0, 67, 0
2, 48240, Note_on_c, 0, 58, 37
2, 48240, Note_on_c, 0, 67, 37
2, 48720, Note_on_c, 0, 62, 41
2, 48960, Note_on_c, 0, 62, 0
2, 48960, Note_on_c, 0, 67, 0
2, 48960, Note_on_c, 0, 58, 0
2, 48960, Note_on_c, 0, 65, 37
2, 48960, Note_on_c, 0, 60, 50
2, 49440, Note_on_c, 0, 60, 0
2, 49440, Note_on_c, 0, 62, 44
2, 49620, Note_on_c, 0, 62, 0
2, 49620, Note_on_c, 0, 60, 43
2, 49650, Note_on_c, 0, 60, 0
2, 49650, Note_on_c, 0, 62, 43
2, 49680, Note_on_c, 0, 62, 0
2, 49680, Note_on_c, 0, 65, 0
2, 49680, Note_on_c, 0, 63, 50
2, 50040, Note_on_c, 0, 63, 0
2, 50040, Note_on_c, 0, 62, 37
2, 50160, Note_on_c, 0, 62, 0
2, 50160, Note_on_c, 0, 65, 44
2, 50160, Note_on_c, 0, 60, 42
2, 50400, Note_on_c, 0, 60, 0
2, 50400, Note_on_c, 0, 58, 45
2, 51120, Note_on_c, 0, 58, 0
2, 51120, Note_on_c, 0, 53, 33
2, 51600, Note_on_c, 0, 53, 0
2, 51600, Note_on_c, 0, 62, 43
2, 51840, Note_on_c, 0, 62, 0
2, 51840, Note_on_c, 0, 65, 0
2, 51840, Note_on_c, 0, 65, 37
2, 51840, Note_on_c, 0, 60, 50
2, 52200, Note_on_c, 0, 60, 0
2, 52200, Note_on_c, 0, 62, 35
2, 52320, Note_on_c, 0, 62, 0
2, 52320, Note_on_c, 0, 60, 44
2, 52500, Note_on_c, 0, 60, 0
2, 52530, Note_on_c, 0, 62, 43
2, 52560, Note_on_c, 0, 62, 0
2, 52560, Note_on_c, 0, 63, 50
2, 52920, Note_on_c, 0, 63, 0
2, 52920, Note_on_c, 0, 62, 37
2, 53040, Note_on_c, 0, 62, 0
2, 53040, Note_on_c, 0, 65, 0
2, 53040, Note_on_c, 0, 65, 44
2, 53040, Note_on_c, 0, 60, 42
2, 53640, Note_on_c, 0, 60, 0
2, 53640, Note_on_c, 0, 58, 37
2, 53760, Note_on_c, 0, 58, 0
2, 53760, Note_on_c, 0, 65, 0
2, 53760, Note_on_c, 0, 65, 42
2, 53760, Note_on_c, 0, 62, 37
2, 54000, Note_on_c, 0, 62, 0
2, 54000, Note_on_c, 0, 65, 0
2, 54000, Note_on_c, 0, 65, 50
2, 54360, Note_on_c, 0, 65, 0
2, 54360, Note_on_c, 0, 60, 31
2, 54360, Note_on_c, 0, 67, 49
2, 54480, Note_on_c, 0, 67, 0
2, 54480, Note_on_c, 0, 60, 0
2, 54480, Note_on_c, 0, 63, 37
2, 54480, Note_on_c, 0, 69, 52
2, 54720, Note_on_c, 0, 69, 0
2, 54720, Note_on_c, 0, 63, 0
2, 54720, Note_on_c, 0, 70, 58
2, 55080, Note_on_c, 0, 58, 37
2, 55200, Note_on_c, 0, 58, 0
2, 55200, Note_on_c, 0, 70, 0
2, 55200, Note_on_c, 0, 62, 37
2, 55200, Note_on_c, 0, 65, 44
2, 55440, Note_on_c, 0, 65, 0
2, 55440, Note_on_c, 0, 62, 0
2, 55440, Note_on_c, 0, 56, 55
2, 55800, Note_on_c, 0, 56, 0
2, 55800, Note_on_c, 0, 55, 42
2, 55920, Note_on_c, 0, 67, 49
2, 55920, Note_on_c, 0, 62, 46
2, 56160, Note_on_c, 0, 62, 0
2, 56160, Note_on_c, 0, 55, 0
2, 56520, Note_on_c, 0, 60, 43
2, 56640, Note_on_c, 0, 60, 0
2, 56640, Note_on_c, 0, 67, 0
2, 56640, Note_on_c, 0, 67, 49
2, 56640, Note_on_c, 0, 63, 42
2, 56880, Note_on_c, 0, 63, 0
2, 56880, Note_on_c, 0, 67, 0
2, 56880, Note_on_c, 0, 67, 55
2, 57240, Note_on_c, 0, 67, 0
2, 57240, Note_on_c, 0, 62, 31
2, 57240, Note_on_c, 0, 69, 52
2, 57360, Note_on_c, 0, 69, 0
2, 57360, Note_on_c, 0, 62, 0
2, 57360, Note_on_c, 0, 65, 37
2, 57360, Note_on_c, 0, 71, 55
2, 57600, Note_on_c, 0, 71, 0
2, 57600, Note_on_c, 0, 65, 0
2, 57600, Note_on_c, 0, 72, 58
2, 57960, Note_on_c, 0, 60, 37
2, 58080, Note_on_c, 0, 60, 0
2, 58080, Note_on_c, 0, 72, 0
2, 58080, Note_on_c, 0, 63, 37
2, 58080, Note_on_c, 0, 67, 44
2, 58320, Note_on_c, 0, 67, 0
2, 58320, Note_on_c, 0, 63, 0
2, 58320, Note_on_c, 0, 58, 50
2, 58680, Note_on_c, 0, 58, 0
2, 58680, Note_on_c, 0, 57, 37
2, 58800, Note_on_c, 0, 69, 44
2, 58800, Note_on_c, 0, 64, 44
2, 59040, Note_on_c, 0, 64, 0
2, 59040, Note_on_c, 0, 69, 0
2, 59040, Note_on_c, 0, 57, 0
2, 59040, Note_on_c, 0, 69, 57
2, 59400, Note_on_c, 0, 62, 37
2, 59520, Note_on_c, 0, 62, 0
2, 59520, Note_on_c, 0, 69, 0
2, 59520, Note_on_c, 0, 65, 37
2, 59520, Note_on_c, 0, 69, 48
2, 59760, Note_on_c, 0, 69, 0
2, 59760, Note_on_c, 0, 65, 0
2, 59760, Note_on_c, 0, 69, 55
2, 60120, Note_on_c, 0, 69, 0
2, 60120, Note_on_c, 0, 71, 53
2, 60120, Note_on_c, 0, 61, 37
2, 60240, Note_on_c, 0, 61, 0
2, 60240, Note_on_c, 0, 71, 0
2, 60240, Note_on_c, 0, 73, 52
2, 60240, Note_on_c, 0, 64, 44
2, 60480, Note_on_c, 0, 64, 0
2, 60480, Note_on_c, 0, 73, 0
2, 60480, Note_on_c, 0, 74, 63
2, 60840, Note_on_c, 0, 62, 37
2, 60960, Note_on_c, 0, 62, 0
2, 60960, Note_on_c, 0, 65, 44
2, 61200, Note_on_c, 0, 65, 0
2, 61200, Note_on_c, 0, 63, 54
2, 61560, Note_on_c, 0, 63, 0
2, 61560, Note_on_c, 0, 74, 0
2, 61560, Note_on_c, 0, 72, 54
2, 61920, Note_on_c, 0, 62, 54
2, 62280, Note_on_c, 0, 62, 0
2, 62280, Note_on_c, 0, 72, 0
2, 62280, Note_on_c, 0, 70, 52
2, 62640, Note_on_c, 0, 60, 58
2, 63000, Note_on_c, 0, 60, 0
2, 63000, Note_on_c, 0, 70, 0
2, 63000, Note_on_c, 0, 69, 52
2, 63360, Note_on_c, 0, 69, 0
2, 63360, Note_on_c, 0, 67, 60
2, 63720, Note_on_c, 0, 67, 0
2, 63720, Note_on_c, 0, 69, 51
2, 63840, Note_on_c, 0, 69, 0
2, 63840, Note_on_c, 0, 70, 60
2, 64020, Note_on_c, 0, 70, 0
2, 64020, Note_on_c, 0, 70, 60
2, 64080, Note_on_c, 0, 70, 0
2, 64080, Note_on_c, 0, 74, 68
2, 64440, Note_on_c, 0, 74, 0
2, 64440, Note_on_c, 0, 72, 63
2, 64560, Note_on_c, 0, 72, 0
2, 64560, Note_on_c, 0, 65, 69
2, 64800, Note_on_c, 0, 77, 64
2, 65040, Note_on_c, 0, 77, 0
2, 65160, Note_on_c, 0, 65, 0
2, 65160, Note_on_c, 0, 57, 30
2, 65160, Note_on_c, 0, 63, 37
2, 65280, Note_on_c, 0, 63, 0
2, 65280, Note_on_c, 0, 57, 0
2, 65280, Note_on_c, 0, 65, 42
2, 65400, Note_on_c, 0, 65, 0
2, 65520, Note_on_c, 0, 65, 50
2, 65880, Note_on_c, 0, 65, 0
2, 65880, Note_on_c, 0, 60, 31
2, 65880, Note_on_c, 0, 67, 49
2, 65940, Note_on_c, 0, 67, 0
2, 65940, Note_on_c, 0, 60, 0
2, 66000, Note_on_c, 0, 69, 52
2, 66120, Note_on_c, 0, 69, 0
2, 66240, Note_on_c, 0, 69, 54
2, 66480, Note_on_c, 0, 69, 0
2, 66600, Note_on_c, 0, 58, 37
2, 66600, Note_on_c, 0, 65, 37
2, 66720, Note_on_c, 0, 65, 0
2, 66720, Note_on_c, 0, 58, 0
2, 66720, Note_on_c, 0, 70, 42
2, 67320, Note_on_c, 0, 70, 0
2, 67320, Note_on_c, 0, 56, 31
2, 67320, Note_on_c, 0, 65, 49
2, 67380, Note_on_c, 0, 65, 0
2, 67380, Note_on_c, 0, 56, 0
2, 67440, Note_on_c, 0, 68, 52
2, 67560, Note_on_c, 0, 68, 0
2, 67680, Note_on_c, 0, 67, 60
2, 67920, Note_on_c, 0, 67, 0
2, 68040, Note_on_c, 0, 55, 39
2, 68040, Note_on_c, 0, 65, 47
2, 68160, Note_on_c, 0, 65, 0
2, 68160, Note_on_c, 0, 55, 0
2, 68160, Note_on_c, 0, 67, 54
2, 68280, Note_on_c, 0, 67, 0
2, 68400, Note_on_c, 0, 67, 61
2, 68760, Note_on_c, 0, 67, 0
2, 68760, Note_on_c, 0, 59, 29
2, 68760, Note_on_c, 0, 69, 56
2, 68820, Note_on_c, 0, 69, 0
2, 68820, Note_on_c, 0, 59, 0
2, 68880, Note_on_c, 0, 71, 59
2, 69000, Note_on_c, 0, 71, 0
2, 69120, Note_on_c, 0, 71, 65
2, 69480, Note_on_c, 0, 71, 0
2, 69480, Note_on_c, 0, 60, 43
2, 69480, Note_on_c, 0, 67, 51
2, 69600, Note_on_c, 0, 67, 0
2, 69600, Note_on_c, 0, 60, 0
2, 69600, Note_on_c, 0, 72, 58
2, 70200, Note_on_c, 0, 72, 0
2, 70200, Note_on_c, 0, 58, 48
2, 70200, Note_on_c, 0, 67, 57
2, 70260, Note_on_c, 0, 67, 0
2, 70260, Note_on_c, 0, 58, 0
2, 70320, Note_on_c, 0, 70, 63
2, 70920, Note_on_c, 0, 70, 0
2, 70920, Note_on_c, 0, 57, 39
2, 70920, Note_on_c, 0, 67, 46
2, 71040, Note_on_c, 0, 67, 0
2, 71040, Note_on_c, 0, 57, 0
2, 71040, Note_on_c, 0, 69, 59
2, 71160, Note_on_c, 0, 69, 0
2, 71280, Note_on_c, 0, 69, 66
2, 71640, Note_on_c, 0, 69, 0
2, 71640, Note_on_c, 0, 61, 55
2, 71640, Note_on_c, 0, 71, 65
2, 71700, Note_on_c, 0, 71, 0
2, 71700, Note_on_c, 0, 61, 0
2, 71760, Note_on_c, 0, 73, 71
2, 71880, Note_on_c, 0, 73, 0
2, 72000, Note_on_c, 0, 74, 80
2, 72360, Note_on_c, 0, 62, 54
2, 72480, Note_on_c, 0, 62, 0
2, 72480, Note_on_c, 0, 69, 61
2, 72720, Note_on_c, 0, 69, 0
2, 72720, Note_on_c, 0, 63, 59
2, 73080, Note_on_c, 0, 63, 0
2, 73080, Note_on_c, 0, 74, 0
2, 73080, Note_on_c, 0, 72, 68
2, 73440, Note_on_c, 0, 62, 70
2, 73800, Note_on_c, 0, 62, 0
2, 73800, Note_on_c, 0, 72, 0
2, 73800, Note_on_c, 0, 70, 66
2, 74160, Note_on_c, 0, 60, 70
2, 74520, Note_on_c, 0, 60, 0
2, 74520, Note_on_c, 0, 70, 0
2, 74520, Note_on_c, 0, 69, 65
2, 74880, Note_on_c, 0, 69, 0
2, 74880, Note_on_c, 0, 58, 70
2, 74880, Note_on_c, 0, 67, 76
2, 75240, Note_on_c, 0, 67, 0
2, 75240, Note_on_c, 0, 58, 0
2, 75240, Note_on_c, 0, 69, 64
2, 75360, Note_on_c, 0, 69, 0
2, 75360, Note_on_c, 0, 70, 69
2, 75540, Note_on_c, 0, 70, 0
2, 75589, Note_on_c, 0, 65, 70
2, 75600, Note_on_c, 0, 74, 83
2, 75829, Note_on_c, 0, 65, 0
2, 75960, Note_on_c, 0, 74, 0
2, 75960, Note_on_c, 0, 72, 70
2, 76080, Note_on_c, 0, 72, 0
2, 76080, Note_on_c, 0, 65, 69
2, 76260, Note_on_c, 0, 60, 52
2, 76280, Note_on_c, 0, 60, 0
2, 76280, Note_on_c, 0, 63, 54
2, 76300, Note_on_c, 0, 63, 0
2, 76300, Note_on_c, 0, 65, 58
2, 76320, Note_on_c, 0, 65, 0
2, 76320, Note_on_c, 0, 77, 69
2, 76320, Note_on_c, 0, 60, 50
2, 76560, Note_on_c, 0, 77, 0
2, 76800, Note_on_c, 0, 60, 0
2, 76800, Note_on_c, 0, 62, 44
2, 76980, Note_on_c, 0, 62, 0
2, 76980, Note_on_c, 0, 60, 43
2, 77010, Note_on_c, 0, 60, 0
2, 77010, Note_on_c, 0, 62, 43
2, 77040, Note_on_c, 0, 62, 0
2, 77040, Note_on_c, 0, 63, 50
2, 77400, Note_on_c, 0, 63, 0
2, 77400, Note_on_c, 0, 62, 37
2, 77520, Note_on_c, 0, 62, 0
2, 77520, Note_on_c, 0, 60, 42
2, 77760, Note_on_c, 0, 60, 0
2, 77760, Note_on_c, 0, 58, 45
2, 78480, Note_on_c, 0, 58, 0
2, 78480, Note_on_c, 0, 53, 33
2, 78960, Note_on_c, 0, 53, 0
2, 78960, Note_on_c, 0, 62, 43
2, 79200, Note_on_c, 0, 62, 0
2, 79200, Note_on_c, 0, 65, 0
2, 79200, Note_on_c, 0, 65, 37
2, 79200, Note_on_c, 0, 60, 50
2, 79560, Note_on_c, 0, 60, 0
2, 79560, Note_on_c, 0, 62, 44
2, 79680, Note_on_c, 0, 62, 0
2, 79680, Note_on_c, 0, 60, 44
2, 79890, Note_on_c, 0, 60, 0
2, 79890, Note_on_c, 0, 62, 43
2, 79920, Note_on_c, 0, 62, 0
2, 79920, Note_on_c, 0, 63, 50
2, 80280, Note_on_c, 0, 63, 0
2, 80280, Note_on_c, 0, 62, 37
2, 80400, Note_on_c, 0, 62, 0
2, 80400, Note_on_c, 0, 60, 42
2, 80640, Note_on_c, 0, 60, 0
2, 80640, Note_on_c, 0, 58, 45
2, 82080, Note_on_c, 0, 65, 0
2, 82080, Note_on_c, 0, 70, 40
2, 83280, Note_on_c, 0, 70, 0
2, 83280, Note_on_c, 0, 58, 30
2, 83520, Note_on_c, 0, 58, 0
2, 83520, Note_on_c, 0, 70, 41
2, 84240, Note_on_c, 0, 58, 0
2, 84720, Note_on_c, 0, 58, 34
2, 84960, Note_on_c, 0, 70, 0
2, 84960, Note_on_c, 0, 63, 43
2, 85320, Note_on_c, 0, 63, 0
2, 85320, Note_on_c, 0, 63, 32
2, 85440, Note_on_c, 0, 63, 0
2, 85440, Note_on_c, 0, 63, 38
2, 85620, Note_on_c, 0, 63, 30
2, 85650, Note_on_c, 0, 63, 0
2, 85650, Note_on_c, 0, 65, 28
2, 85680, Note_on_c, 0, 65, 0
2, 85680, Note_on_c, 0, 63, 0
2, 85680, Note_on_c, 0, 58, 0
2, 85680, Note_on_c, 0, 57, 33
2, 85680, Note_on_c, 0, 66, 39
2, 86040, Note_on_c, 0, 66, 0
2, 86040, Note_on_c, 0, 65, 30
2, 86160, Note_on_c, 0, 65, 0
2, 86160, Note_on_c, 0, 63, 33
2, 86400, Note_on_c, 0, 63, 0
2, 86400, Note_on_c, 0, 57, 0
2, 86400, Note_on_c, 0, 62, 33
2, 86400, Note_on_c, 0, 58, 33
2, 86520, Note_on_c, 0, 65, 33
2, 87840, Note_on_c, 0, 65, 0
2, 89280, Note_on_c, 0, 58, 0
2, 89280, Note_on_c, 0, 62, 0
2, 89280, End_track
3, 0, Start_track
3, 0, Title_t, "Piano left"
3, 0, Program_c, 0, 0
3, 0, Control_c, 0, 91, 127
3, 2820, Note_on_c, 0, 41, 34
3, 2880, Note_on_c, 0, 51, 37
3, 2880, Note_on_c, 0, 57, 37
3, 4320, Note_on_c, 0, 57, 0
3, 4320, Note_on_c, 0, 51, 0
3, 4320, Note_on_c, 0, 50, 37
3, 5700, Note_on_c, 0, 41, 28
3, 5760, Note_on_c, 0, 50, 0
3, 5760, Note_on_c, 0, 41, 0
3, 5760, Note_on_c, 0, 51, 37
3, 5760, Note_on_c, 0, 57, 37
3, 7200, Note_on_c, 0, 57, 0
3, 7200, Note_on_c, 0, 51, 0
3, 7200, Note_on_c, 0, 50, 37
3, 8160, Note_on_c, 0, 50, 0
3, 8400, Note_on_c, 0, 46, 38
3, 8580, Note_on_c, 0, 39, 35
3, 8640, Note_on_c, 0, 39, 0
3, 8640, Note_on_c, 0, 41, 0
3, 8640, Note_on_c, 0, 55, 45
3, 9120, Note_on_c, 0, 55, 0
3, 9120, Note_on_c, 0, 55, 38
3, 9360, Note_on_c, 0, 55, 0
3, 9360, Note_on_c, 0, 58, 42
3, 9720, Note_on_c, 0, 58, 0
3, 9720, Note_on_c, 0, 57, 37
3, 9840, Note_on_c, 0, 57, 0
3, 9840, Note_on_c, 0, 55, 41
3, 10020, Note_on_c, 0, 38, 33
3, 10080, Note_on_c, 0, 38, 0
3, 10080, Note_on_c, 0, 55, 0
3, 10080, Note_on_c, 0, 53, 42
3, 10793, Note_on_c, 0, 46, 42
3, 10800, Note_on_c, 0, 53, 0
3, 10800, Note_on_c, 0, 46, 0
3, 11033, Note_on_c, 0, 46, 0
3, 11280, Note_on_c, 0, 46, 27
3, 11460, Note_on_c, 0, 36, 31
3, 11520, Note_on_c, 0, 46, 0
3, 11520, Note_on_c, 0, 51, 34
3, 11880, Note_on_c, 0, 51, 0
3, 11880, Note_on_c, 0, 51, 25
3, 12000, Note_on_c, 0, 51, 0
3, 12000, Note_on_c, 0, 51, 30
3, 12180, Note_on_c, 0, 51, 24
3, 12210, Note_on_c, 0, 51, 0
3, 12210, Note_on_c, 0, 53, 22
3, 12240, Note_on_c, 0, 53, 0
3, 12240, Note_on_c, 0, 51, 0
3, 12240, Note_on_c, 0, 36, 0
3, 12240, Note_on_c, 0, 55, 31
3, 12600, Note_on_c, 0, 55, 0
3, 12600, Note_on_c, 0, 53, 24
3, 12720, Note_on_c, 0, 53, 0
3, 12720, Note_on_c, 0, 51, 26
3, 12960, Note_on_c, 0, 51, 0
3, 12960, Note_on_c, 0, 38, 23
3, 12960, Note_on_c, 0, 50, 26
3, 14160, Note_on_c, 0, 50, 0
3, 14160, Note_on_c, 0, 38, 0
3, 14160, Note_on_c, 0, 33, 27
3, 14400, Note_on_c, 0, 33, 0
3, 14400, Note_on_c, 0, 52, 24
3, 14400, Note_on_c, 0, 57, 24
3, 14400, Note_on_c, 0, 62, 27
3, 14400, Note_on_c, 0, 33, 31
3, 14880, Note_on_c, 0, 33, 0
3, 14880, Note_on_c, 0, 33, 27
3, 15120, Note_on_c, 0, 33, 0
3, 15120, Note_on_c, 0, 62, 0
3, 15120, Note_on_c, 0, 61, 27
3, 15120, Note_on_c, 0, 33, 33
3, 15480, Note_on_c, 0, 33, 0
3, 15480, Note_on_c, 0, 33, 27
3, 15600, Note_on_c, 0, 33, 0
3, 15600, Note_on_c, 0, 33, 31
3, 15840, Note_on_c, 0, 33, 0
3, 15840, Note_on_c, 0, 61, 0
3, 15840, Note_on_c, 0, 52, 0
3, 15840, Note_on_c, 0, 54, 24
3, 15840, Note_on_c, 0, 62, 27
3, 15840, Note_on_c, 0, 26, 31
3, 16320, Note_on_c, 0, 62, 0
3, 16320, Note_on_c, 0, 57, 0
3, 16320, Note_on_c, 0, 54, 0
3, 16560, Note_on_c, 0, 26, 0
3, 16560, Note_on_c, 0, 31, 48
3, 16560, Note_on_c, 0, 43, 48
3, 17040, Note_on_c, 0, 43, 0
3, 17040, Note_on_c, 0, 31, 0
3, 17040, Note_on_c, 0, 43, 56
3, 17280, Note_on_c, 0, 43, 0
3, 17280, Note_on_c, 0, 36, 48
3, 17280, Note_on_c, 0, 48, 48
3, 17760, Note_on_c, 0, 36, 0
3, 17808, Note_on_c, 0, 48, 0
3, 17808, Note_on_c, 0, 50, 47
3, 17856, Note_on_c, 0, 50, 0
3, 17856, Note_on_c, 0, 51, 49
3, 17904, Note_on_c, 0, 51, 0
3, 17904, Note_on_c, 0, 53, 51
3, 17952, Note_on_c, 0, 53, 0
3, 17952, Note_on_c, 0, 55, 53
3, 18000, Note_on_c, 0, 55, 0
3, 18000, Note_on_c, 0, 56, 55
3, 18528, Note_on_c, 0, 56, 0
3, 18528, Note_on_c, 0, 55, 50
3, 18576, Note_on_c, 0, 55, 0
3, 18576, Note_on_c, 0, 53, 52
3, 18624, Note_on_c, 0, 53, 0
3, 18624, Note_on_c, 0, 51, 55
3, 18672, Note_on_c, 0, 51, 0
3, 18672, Note_on_c, 0, 50, 57
3, 18720, Note_on_c, 0, 50, 0
3, 18720, Note_on_c, 0, 36, 63
3, 18720, Note_on_c, 0, 48, 63
3, 19200, Note_on_c, 0, 48, 0
3, 19200, Note_on_c, 0, 36, 0
3, 19440, Note_on_c, 0, 34, 61
3, 19440, Note_on_c, 0, 46, 61
3, 19920, Note_on_c, 0, 46, 0
3, 19920, Note_on_c, 0, 34, 0
3, 20112, Note_on_c, 0, 46, 53
3, 20160, Note_on_c, 0, 46, 0
3, 20160, Note_on_c, 0, 39, 48
3, 20160, Note_on_c, 0, 51, 48
3, 20640, Note_on_c, 0, 39, 0
3, 20688, Note_on_c, 0, 51, 0
3, 20688, Note_on_c, 0, 54, 47
3, 20736, Note_on_c, 0, 54, 0
3, 20736, Note_on_c, 0, 55, 49
3, 20784, Note_on_c, 0, 55, 0
3, 20784, Note_on_c, 0, 57, 51
3, 20832, Note_on_c, 0, 57, 0
3, 20832, Note_on_c, 0, 58, 53
3, 20880, Note_on_c, 0, 58, 0
3, 20880, Note_on_c, 0, 50, 55
3, 20880, Note_on_c, 0, 60, 55
3, 21360, Note_on_c, 0, 50, 0
3, 21408, Note_on_c, 0, 60, 0
3, 21408, Note_on_c, 0, 58, 50
3, 21456, Note_on_c, 0, 58, 0
3, 21456, Note_on_c, 0, 57, 52
3, 21504, Note_on_c, 0, 57, 0
3, 21504, Note_on_c, 0, 55, 55
3, 21552, Note_on_c, 0, 55, 0
3, 21552, Note_on_c, 0, 54, 57
3, 21600, Note_on_c, 0, 54, 0
3, 21600, Note_on_c, 0, 43, 63
3, 21600, Note_on_c, 0, 55, 63
3, 22320, Note_on_c, 0, 55, 0
3, 22320, Note_on_c, 0, 43, 0
3, 22320, Note_on_c, 0, 42, 61
3, 22320, Note_on_c, 0, 54, 61
3, 23040, Note_on_c, 0, 54, 0
3, 23040, Note_on_c, 0, 42, 0
3, 23040, Note_on_c, 0, 41, 61
3, 23040, Note_on_c, 0, 53, 61
3, 23520, Note_on_c, 0, 53, 0
3, 23520, Note_on_c, 0, 41, 0
3, 23760, Note_on_c, 0, 42, 56
3, 23760, Note_on_c, 0, 54, 56
3, 24480, Note_on_c, 0, 42, 0
3, 24480, Note_on_c, 0, 39, 26
3, 25680, Note_on_c, 0, 54, 0
3, 25680, Note_on_c, 0, 54, 22
3, 25920, Note_on_c, 0, 54, 0
3, 25920, Note_on_c, 0, 39, 0
3, 25920, Note_on_c, 0, 37, 30
3, 26640, Note_on_c, 0, 37, 0
3, 26640, Note_on_c, 0, 42, 30
3, 27360, Note_on_c, 0, 30, 26
3, 28800, Note_on_c, 0, 30, 0
3, 28800, Note_on_c, 0, 42, 0
3, 28800, Note_on_c, 0, 29, 30
3, 28800, Note_on_c, 0, 41, 30
3, 29520, Note_on_c, 0, 41, 0
3, 29520, Note_on_c, 0, 29, 0
3, 29520, Note_on_c, 0, 34, 30
3, 29520, Note_on_c, 0, 46, 30
3, 30960, Note_on_c, 0, 46, 0
3, 30960, Note_on_c, 0, 34, 0
3, 30960, Note_on_c, 0, 35, 26
3, 30960, Note_on_c, 0, 47, 34
3, 31680, Note_on_c, 0, 47, 0
3, 31680, Note_on_c, 0, 35, 0
3, 31680, Note_on_c, 0, 41, 37
3, 31680, Note_on_c, 0, 36, 50
3, 31687, Note_on_c, 0, 48, 37
3, 32160, Note_on_c, 0, 36, 0
3, 32160, Note_on_c, 0, 38, 44
3, 32340, Note_on_c, 0, 38, 0
3, 32340, Note_on_c, 0, 36, 43
3, 32370, Note_on_c, 0, 36, 0
3, 32370, Note_on_c, 0, 38, 43
3, 32400, Note_on_c, 0, 38, 0
3, 32400, Note_on_c, 0, 39, 50
3, 32760, Note_on_c, 0, 39, 0
3, 32760, Note_on_c, 0, 38, 37
3, 32880, Note_on_c, 0, 38, 0
3, 32880, Note_on_c, 0, 36, 42
3, 33090, Note_on_c, 0, 36, 0
3, 33090, Note_on_c, 0, 34, 45
3, 33120, Note_on_c, 0, 41, 45
3, 33120, Note_on_c, 0, 50, 37
3, 33840, Note_on_c, 0, 50, 0
3, 33840, Note_on_c, 0, 34, 0
3, 33840, Note_on_c, 0, 29, 33
3, 34080, Note_on_c, 0, 29, 0
3, 34080, Note_on_c, 0, 41, 0
3, 34320, Note_on_c, 0, 38, 43
3, 34560, Note_on_c, 0, 38, 0
3, 34560, Note_on_c, 0, 41, 0
3, 34560, Note_on_c, 0, 48, 37
3, 34560, Note_on_c, 0, 41, 37
3, 34560, Note_on_c, 0, 36, 50
3, 34567, Note_on_c, 0, 48, 0
3, 34920, Note_on_c, 0, 36, 0
3, 34920, Note_on_c, 0, 38, 44
3, 35040, Note_on_c, 0, 38, 0
3, 35040, Note_on_c, 0, 36, 44
3, 35220, Note_on_c, 0, 36, 0
3, 35220, Note_on_c, 0, 36, 43
3, 35250, Note_on_c, 0, 36, 0
3, 35250, Note_on_c, 0, 38, 43
3, 35280, Note_on_c, 0, 38, 0
3, 35280, Note_on_c, 0, 39, 50
3, 35640, Note_on_c, 0, 39, 0
3, 35640, Note_on_c, 0, 38, 37
3, 35760, Note_on_c, 0, 38, 0
3, 35760, Note_on_c, 0, 36, 42
3, 35940, Note_on_c, 0, 36, 0
3, 35940, Note_on_c, 0, 34, 45
3, 36000, Note_on_c, 0, 34, 0
3, 36000, Note_on_c, 0, 50, 45
3, 36000, Note_on_c, 0, 41, 45
3, 37200, Note_on_c, 0, 41, 0
3, 37200, Note_on_c, 0, 50, 0
3, 37200, Note_on_c, 0, 46, 38
3, 37380, Note_on_c, 0, 39, 35
3, 37440, Note_on_c, 0, 39, 0
3, 37440, Note_on_c, 0, 48, 0
3, 37440, Note_on_c, 0, 41, 0
3, 37440, Note_on_c, 0, 55, 45
3, 37920, Note_on_c, 0, 55, 0
3, 37920, Note_on_c, 0, 55, 38
3, 38160, Note_on_c, 0, 55, 0
3, 38160, Note_on_c, 0, 58, 42
3, 38520, Note_on_c, 0, 58, 0
3, 38520, Note_on_c, 0, 57, 37
3, 38640, Note_on_c, 0, 57, 0
3, 38640, Note_on_c, 0, 55, 41
3, 38820, Note_on_c, 0, 38, 35
3, 38880, Note_on_c, 0, 38, 0
3, 38880, Note_on_c, 0, 55, 0
3, 38880, Note_on_c, 0, 53, 34
3, 39600, Note_on_c, 0, 46, 0
3, 39600, Note_on_c, 0, 46, 31
3, 39609, Note_on_c, 0, 53, 0
3, 39840, Note_on_c, 0, 46, 0
3, 40080, Note_on_c, 0, 38, 22
3, 40080, Note_on_c, 0, 46, 22
3, 40080, Note_on_c, 0, 54, 26
3, 40260, Note_on_c, 0, 54, 0
3, 40260, Note_on_c, 0, 46, 0
3, 40260, Note_on_c, 0, 38, 0
3, 40260, Note_on_c, 0, 39, 34
3, 40290, Note_on_c, 0, 39, 0
3, 40290, Note_on_c, 0, 46, 36
3, 40320, Note_on_c, 0, 55, 45
3, 40800, Note_on_c, 0, 55, 0
3, 40800, Note_on_c, 0, 55, 38
3, 40980, Note_on_c, 0, 55, 0
3, 40980, Note_on_c, 0, 40, 32
3, 41010, Note_on_c, 0, 49, 36
3, 41040, Note_on_c, 0, 46, 0
3, 41040, Note_on_c, 0, 58, 42
3, 41400, Note_on_c, 0, 58, 0
3, 41400, Note_on_c, 0, 57, 37
3, 41520, Note_on_c, 0, 57, 0
3, 41520, Note_on_c, 0, 55, 41
3, 41760, Note_on_c, 0, 55, 0
3, 41760, Note_on_c, 0, 49, 0
3, 41760, Note_on_c, 0, 40, 0
3, 41760, Note_on_c, 0, 41, 30
3, 41760, Note_on_c, 0, 50, 34
3, 41760, Note_on_c, 0, 53, 34
3, 42480, Note_on_c, 0, 41, 0
3, 42480, Note_on_c, 0, 44, 50
3, 42960, Note_on_c, 0, 53, 0
3, 42960, Note_on_c, 0, 50, 0
3, 42960, Note_on_c, 0, 46, 26
3, 43200, Note_on_c, 0, 46, 0
3, 43200, Note_on_c, 0, 44, 0
3, 43200, Note_on_c, 0, 43, 36
3, 43200, Note_on_c, 0, 46, 36
3, 43200, Note_on_c, 0, 51, 47
3, 43560, Note_on_c, 0, 51, 0
3, 43560, Note_on_c, 0, 53, 42
3, 43680, Note_on_c, 0, 53, 0
3, 43680, Note_on_c, 0, 51, 50
3, 43830, Note_on_c, 0, 51, 0
3, 43830, Note_on_c, 0, 53, 45
3, 43860, Note_on_c, 0, 53, 0
3, 43860, Note_on_c, 0, 51, 47
3, 43890, Note_on_c, 0, 51, 0
3, 43890, Note_on_c, 0, 53, 49
3, 43920, Note_on_c, 0, 53, 0
3, 43920, Note_on_c, 0, 55, 52
3, 44280, Note_on_c, 0, 55, 0
3, 44280, Note_on_c, 0, 53, 50
3, 44400, Note_on_c, 0, 53, 0
3, 44400, Note_on_c, 0, 51, 45
3, 44640, Note_on_c, 0, 51, 0
3, 44640, Note_on_c, 0, 46, 0
3, 44640, Note_on_c, 0, 43, 0
3, 44640, Note_on_c, 0, 45, 47
3, 44640, Note_on_c, 0, 50, 47
3, 44640, Note_on_c, 0, 54, 56
3, 45360, Note_on_c, 0, 54, 0
3, 45360, Note_on_c, 0, 50, 0
3, 45360, Note_on_c, 0, 45, 0
3, 45360, Note_on_c, 0, 46, 34
3, 45360, Note_on_c, 0, 55, 39
3, 45840, Note_on_c, 0, 55, 0
3, 45840, Note_on_c, 0, 55, 34
3, 46080, Note_on_c, 0, 55, 0
3, 46080, Note_on_c, 0, 46, 0
3, 46080, Note_on_c, 0, 60, 36
3, 46080, Note_on_c, 0, 48, 38
3, 46080, Note_on_c, 0, 56, 42
3, 46440, Note_on_c, 0, 56, 0
3, 46440, Note_on_c, 0, 56, 30
3, 46560, Note_on_c, 0, 56, 0
3, 46560, Note_on_c, 0, 56, 37
3, 46740, Note_on_c, 0, 56, 29
3, 46770, Note_on_c, 0, 56, 0
3, 46770, Note_on_c, 0, 58, 27
3, 46800, Note_on_c, 0, 58, 0
3, 46800, Note_on_c, 0, 56, 0
3, 46800, Note_on_c, 0, 60, 0
3, 46800, Note_on_c, 0, 60, 38
3, 47160, Note_on_c, 0, 60, 0
3, 47160, Note_on_c, 0, 58, 28
3, 47280, Note_on_c, 0, 58, 0
3, 47280, Note_on_c, 0, 56, 29
3, 47520, Note_on_c, 0, 56, 0
3, 47520, Note_on_c, 0, 48, 0
3, 47520, Note_on_c, 0, 50, 35
3, 47520, Note_on_c, 0, 55, 35
3, 47520, Note_on_c, 0, 59, 35
3, 47880, Note_on_c, 0, 50, 0
3, 47880, Note_on_c, 0, 51, 35
3, 48000, Note_on_c, 0, 51, 0
3, 48000, Note_on_c, 0, 53, 35
3, 48180, Note_on_c, 0, 53, 0
3, 48180, Note_on_c, 0, 48, 35
3, 48210, Note_on_c, 0, 53, 35
3, 48240, Note_on_c, 0, 59, 0
3, 48240, Note_on_c, 0, 55, 0
3, 48240, Note_on_c, 0, 60, 35
3, 48600, Note_on_c, 0, 53, 0
3, 48600, Note_on_c, 0, 52, 35
3, 48720, Note_on_c, 0, 52, 0
3, 48900, Note_on_c, 0, 41, 34
3, 48960, Note_on_c, 0, 60, 0
3, 48960, Note_on_c, 0, 48, 0
3, 48960, Note_on_c, 0, 51, 37
3, 48960, Note_on_c, 0, 57, 37
3, 50400, Note_on_c, 0, 57, 0
3, 50400, Note_on_c, 0, 51, 0
3, 50400, Note_on_c, 0, 50, 37
3, 51780, Note_on_c, 0, 41, 28
3, 51840, Note_on_c, 0, 50, 0
3, 51840, Note_on_c, 0, 41, 0
3, 51840, Note_on_c, 0, 51, 37
3, 51840, Note_on_c, 0, 57, 37
3, 53040, Note_on_c, 0, 57, 0
3, 53040, Note_on_c, 0, 51, 0
3, 53040, Note_on_c, 0, 51, 37
3, 53280, Note_on_c, 0, 41, 0
3, 53280, Note_on_c, 0, 41, 52
3, 53640, Note_on_c, 0, 51, 0
3, 53640, Note_on_c, 0, 50, 31
3, 53760, Note_on_c, 0, 50, 0
3, 53760, Note_on_c, 0, 53, 38
3, 54000, Note_on_c, 0, 53, 0
3, 54000, Note_on_c, 0, 41, 0
3, 54000, Note_on_c, 0, 41, 42
3, 54360, Note_on_c, 0, 51, 32
3, 54480, Note_on_c, 0, 51, 0
3, 54480, Note_on_c, 0, 53, 37
3, 54720, Note_on_c, 0, 53, 0
3, 54720, Note_on_c, 0, 41, 0
3, 54720, Note_on_c, 0, 41, 50
3, 55080, Note_on_c, 0, 50, 32
3, 55200, Note_on_c, 0, 50, 0
3, 55200, Note_on_c, 0, 53, 36
3, 55440, Note_on_c, 0, 53, 0
3, 55440, Note_on_c, 0, 41, 0
3, 55440, Note_on_c, 0, 41, 42
3, 55800, Note_on_c, 0, 53, 31
3, 55920, Note_on_c, 0, 53, 0
3, 55920, Note_on_c, 0, 41, 0
3, 55920, Note_on_c, 0, 59, 37
3, 56160, Note_on_c, 0, 59, 0
3, 56160, Note_on_c, 0, 41, 52
3, 56520, Note_on_c, 0, 51, 31
3, 56640, Note_on_c, 0, 51, 0
3, 56640, Note_on_c, 0, 55, 38
3, 56880, Note_on_c, 0, 55, 0
3, 56880, Note_on_c, 0, 41, 0
3, 56880, Note_on_c, 0, 41, 42
3, 57240, Note_on_c, 0, 53, 34
3, 57360, Note_on_c, 0, 53, 0
3, 57360, Note_on_c, 0, 55, 40
3, 57600, Note_on_c, 0, 55, 0
3, 57600, Note_on_c, 0, 41, 0
3, 57600, Note_on_c, 0, 41, 53
3, 57960, Note_on_c, 0, 51, 40
3, 58080, Note_on_c, 0, 51, 0
3, 58080, Note_on_c, 0, 55, 45
3, 58320, Note_on_c, 0, 55, 0
3, 58320, Note_on_c, 0, 41, 0
3, 58320, Note_on_c, 0, 41, 51
3, 58680, Note_on_c, 0, 52, 39
3, 58800, Note_on_c, 0, 52, 0
3, 58800, Note_on_c, 0, 41, 0
3, 58800, Note_on_c, 0, 61, 42
3, 59040, Note_on_c, 0, 61, 0
3, 59040, Note_on_c, 0, 41, 49
3, 59400, Note_on_c, 0, 53, 39
3, 59520, Note_on_c, 0, 53, 0
3, 59520, Note_on_c, 0, 57, 43
3, 59760, Note_on_c, 0, 57, 0
3, 59760, Note_on_c, 0, 41, 0
3, 59760, Note_on_c, 0, 41, 48
3, 60120, Note_on_c, 0, 55, 31
3, 60240, Note_on_c, 0, 55, 0
3, 60240, Note_on_c, 0, 41, 0
3, 60240, Note_on_c, 0, 57, 44
3, 60480, Note_on_c, 0, 57, 0
3, 60480, Note_on_c, 0, 41, 51
3, 60840, Note_on_c, 0, 53, 38
3, 60960, Note_on_c, 0, 53, 0
3, 60960, Note_on_c, 0, 57, 45
3, 61200, Note_on_c, 0, 57, 0
3, 61200, Note_on_c, 0, 41, 0
3, 61200, Note_on_c, 0, 41, 56
3, 61560, Note_on_c, 0, 57, 39
3, 61680, Note_on_c, 0, 57, 0
3, 61680, Note_on_c, 0, 41, 0
3, 61680, Note_on_c, 0, 53, 43
3, 61920, Note_on_c, 0, 53, 0
3, 61920, Note_on_c, 0, 46, 51
3, 62280, Note_on_c, 0, 58, 36
3, 62400, Note_on_c, 0, 58, 0
3, 62400, Note_on_c, 0, 46, 0
3, 62400, Note_on_c, 0, 53, 41
3, 62640, Note_on_c, 0, 53, 0
3, 62640, Note_on_c, 0, 38, 52
3, 63000, Note_on_c, 0, 54, 36
3, 63120, Note_on_c, 0, 54, 0
3, 63120, Note_on_c, 0, 38, 0
3, 63120, Note_on_c, 0, 50, 41
3, 63360, Note_on_c, 0, 50, 0
3, 63360, Note_on_c, 0, 39, 49
3, 63720, Note_on_c, 0, 55, 37
3, 63840, Note_on_c, 0, 55, 0
3, 63840, Note_on_c, 0, 39, 0
3, 63840, Note_on_c, 0, 46, 43
3, 64080, Note_on_c, 0, 46, 0
3, 64080, Note_on_c, 0, 41, 50
3, 64440, Note_on_c, 0, 57, 39
3, 64560, Note_on_c, 0, 57, 0
3, 64560, Note_on_c, 0, 41, 0
3, 64560, Note_on_c, 0, 53, 44
3, 64800, Note_on_c, 0, 41, 42
3, 65040, Note_on_c, 0, 41, 0
3, 65040, Note_on_c, 0, 53, 0
3, 65160, Note_on_c, 0, 60, 31
3, 65160, Note_on_c, 0, 53, 25
3, 65280, Note_on_c, 0, 48, 38
3, 65400, Note_on_c, 0, 48, 0
3, 65400, Note_on_c, 0, 53, 0
3, 65400, Note_on_c, 0, 60, 0
3, 65520, Note_on_c, 0, 41, 42
3, 65760, Note_on_c, 0, 41, 0
3, 65880, Note_on_c, 0, 63, 31
3, 65880, Note_on_c, 0, 53, 21
3, 66000, Note_on_c, 0, 48, 37
3, 66120, Note_on_c, 0, 48, 0
3, 66120, Note_on_c, 0, 53, 0
3, 66120, Note_on_c, 0, 63, 0
3, 66240, Note_on_c, 0, 41, 42
3, 66480, Note_on_c, 0, 41, 0
3, 66600, Note_on_c, 0, 62, 31
3, 66600, Note_on_c, 0, 53, 25
3, 66720, Note_on_c, 0, 50, 38
3, 66840, Note_on_c, 0, 50, 0
3, 66840, Note_on_c, 0, 53, 0
3, 66840, Note_on_c, 0, 62, 0
3, 66960, Note_on_c, 0, 41, 42
3, 67200, Note_on_c, 0, 41, 0
3, 67320, Note_on_c, 0, 60, 31
3, 67320, Note_on_c, 0, 53, 27
3, 67440, Note_on_c, 0, 48, 37
3, 67560, Note_on_c, 0, 48, 0
3, 67560, Note_on_c, 0, 53, 0
3, 67560, Note_on_c, 0, 60, 0
3, 67680, Note_on_c, 0, 41, 46
3, 67920, Note_on_c, 0, 41, 0
3, 68040, Note_on_c, 0, 59, 36
3, 68040, Note_on_c, 0, 50, 28
3, 68160, Note_on_c, 0, 47, 45
3, 68280, Note_on_c, 0, 47, 0
3, 68280, Note_on_c, 0, 50, 0
3, 68280, Note_on_c, 0, 59, 0
3, 68400, Note_on_c, 0, 41, 47
3, 68640, Note_on_c, 0, 41, 0
3, 68760, Note_on_c, 0, 62, 40
3, 68760, Note_on_c, 0, 53, 30
3, 68880, Note_on_c, 0, 50, 45
3, 69000, Note_on_c, 0, 50, 0
3, 69000, Note_on_c, 0, 53, 0
3, 69000, Note_on_c, 0, 62, 0
3, 69120, Note_on_c, 0, 41, 53
3, 69360, Note_on_c, 0, 41, 0
3, 69480, Note_on_c, 0, 63, 40
3, 69480, Note_on_c, 0, 55, 30
3, 69600, Note_on_c, 0, 51, 48
3, 69720, Note_on_c, 0, 51, 0
3, 69720, Note_on_c, 0, 55, 0
3, 69720, Note_on_c, 0, 63, 0
3, 69840, Note_on_c, 0, 41, 58
3, 70080, Note_on_c, 0, 41, 0
3, 70200, Note_on_c, 0, 62, 37
3, 70200, Note_on_c, 0, 53, 29
3, 70320, Note_on_c, 0, 50, 45
3, 70440, Note_on_c, 0, 50, 0
3, 70440, Note_on_c, 0, 53, 0
3, 70440, Note_on_c, 0, 62, 0
3, 70560, Note_on_c, 0, 41, 61
3, 70800, Note_on_c, 0, 41, 0
3, 70920, Note_on_c, 0, 61, 38
3, 70920, Note_on_c, 0, 52, 27
3, 71040, Note_on_c, 0, 49, 47
3, 71160, Note_on_c, 0, 49, 0
3, 71160, Note_on_c, 0, 52, 0
3, 71160, Note_on_c, 0, 61, 0
3, 71280, Note_on_c, 0, 41, 52
3, 71520, Note_on_c, 0, 41, 0
3, 71640, Note_on_c, 0, 64, 39
3, 71640, Note_on_c, 0, 55, 30
3, 71760, Note_on_c, 0, 52, 47
3, 71880, Note_on_c, 0, 52, 0
3, 71880, Note_on_c, 0, 55, 0
3, 71880, Note_on_c, 0, 64, 0
3, 72000, Note_on_c, 0, 41, 67
3, 72360, Note_on_c, 0, 65, 51
3, 72360, Note_on_c, 0, 57, 43
3, 72480, Note_on_c, 0, 53, 57
3, 72660, Note_on_c, 0, 53, 0
3, 72660, Note_on_c, 0, 57, 0
3, 72660, Note_on_c, 0, 65, 0
3, 72660, Note_on_c, 0, 41, 51
3, 72720, Note_on_c, 0, 41, 0
3, 72720, Note_on_c, 0, 41, 0
3, 72720, Note_on_c, 0, 51, 64
3, 73080, Note_on_c, 0, 60, 44
3, 73200, Note_on_c, 0, 60, 0
3, 73200, Note_on_c, 0, 57, 56
3, 73380, Note_on_c, 0, 57, 0
3, 73380, Note_on_c, 0, 46, 56
3, 73440, Note_on_c, 0, 46, 0
3, 73440, Note_on_c, 0, 51, 0
3, 73440, Note_on_c, 0, 50, 63
3, 73800, Note_on_c, 0, 58, 51
3, 73920, Note_on_c, 0, 58, 0
3, 73920, Note_on_c, 0, 53, 61
3, 74100, Note_on_c, 0, 53, 0
3, 74100, Note_on_c, 0, 38, 55
3, 74160, Note_on_c, 0, 38, 0
3, 74160, Note_on_c, 0, 50, 0
3, 74160, Note_on_c, 0, 48, 66
3, 74520, Note_on_c, 0, 57, 50
3, 74640, Note_on_c, 0, 57, 0
3, 74640, Note_on_c, 0, 54, 55
3, 74760, Note_on_c, 0, 54, 0
3, 74820, Note_on_c, 0, 39, 51
3, 74850, Note_on_c, 0, 46, 56
3, 74880, Note_on_c, 0, 48, 0
3, 74880, Note_on_c, 0, 55, 66
3, 75240, Note_on_c, 0, 55, 0
3, 75240, Note_on_c, 0, 57, 48
3, 75360, Note_on_c, 0, 57, 0
3, 75360, Note_on_c, 0, 58, 57
3, 75540, Note_on_c, 0, 58, 0
3, 75540, Note_on_c, 0, 41, 43
3, 75560, Note_on_c, 0, 41, 0
3, 75560, Note_on_c, 0, 51, 47
3, 75570, Note_on_c, 0, 46, 0
3, 75580, Note_on_c, 0, 51, 0
3, 75580, Note_on_c, 0, 57, 51
3, 75600, Note_on_c, 0, 57, 0
3, 75600, Note_on_c, 0, 39, 0
3, 75600, Note_on_c, 0, 62, 64
3, 75960, Note_on_c, 0, 62, 0
3, 75960, Note_on_c, 0, 60, 50
3, 76080, Note_on_c, 0, 60, 0
3, 76080, Note_on_c, 0, 62, 56
3, 76260, Note_on_c, 0, 41, 34
3, 76320, Note_on_c, 0, 62, 0
3, 76320, Note_on_c, 0, 51, 37
3, 76320, Note_on_c, 0, 57, 37
3, 77760, Note_on_c, 0, 57, 0
3, 77760, Note_on_c, 0, 51, 0
3, 77760, Note_on_c, 0, 50, 37
3, 79140, Note_on_c, 0, 41, 28
3, 79200, Note_on_c, 0, 50, 0
3, 79200, Note_on_c, 0, 41, 0
3, 79200, Note_on_c, 0, 51, 37
3, 79200, Note_on_c, 0, 57, 37
3, 80640, Note_on_c, 0, 57, 0
3, 80640, Note_on_c, 0, 51, 0
3, 80640, Note_on_c, 0, 50, 37
3, 81840, Note_on_c, 0, 50, 0
3, 81840, Note_on_c, 0, 46, 38
3, 82020, Note_on_c, 0, 39, 35
3, 82080, Note_on_c, 0, 39, 0
3, 82080, Note_on_c, 0, 41, 0
3, 82080, Note_on_c, 0, 55, 45
3, 82560, Note_on_c, 0, 55, 0
3, 82560, Note_on_c, 0, 55, 38
3, 82800, Note_on_c, 0, 55, 0
3, 82800, Note_on_c, 0, 58, 42
3, 83160, Note_on_c, 0, 58, 0
3, 83160, Note_on_c, 0, 57, 37
3, 83280, Note_on_c, 0, 57, 0
3, 83280, Note_on_c, 0, 55, 41
3, 83460, Note_on_c, 0, 38, 33
3, 83520, Note_on_c, 0, 38, 0
3, 83520, Note_on_c, 0, 55, 0
3, 83520, Note_on_c, 0, 53, 42
3, 84233, Note_on_c, 0, 46, 33
3, 84240, Note_on_c, 0, 53, 0
3, 84240, Note_on_c, 0, 46, 0
3, 84713, Note_on_c, 0, 46, 0
3, 84720, Note_on_c, 0, 46, 27
3, 84960, Note_on_c, 0, 46, 0
3, 84960, Note_on_c, 0, 35, 31
3, 84960, Note_on_c, 0, 51, 34
3, 85320, Note_on_c, 0, 51, 0
3, 85320, Note_on_c, 0, 51, 25
3, 85440, Note_on_c, 0, 51, 0
3, 85440, Note_on_c, 0, 51, 30
3, 85620, Note_on_c, 0, 51, 24
3, 85650, Note_on_c, 0, 51, 0
3, 85650, Note_on_c, 0, 53, 22
3, 85680, Note_on_c, 0, 53, 0
3, 85680, Note_on_c, 0, 51, 0
3, 85680, Note_on_c, 0, 35, 0
3, 85680, Note_on_c, 0, 54, 31
3, 86040, Note_on_c, 0, 54, 0
3, 86040, Note_on_c, 0, 53, 24
3, 86160, Note_on_c, 0, 53, 0
3, 86160, Note_on_c, 0, 51, 26
3, 86400, Note_on_c, 0, 51, 0
3, 86400, Note_on_c, 0, 34, 23
3, 86520, Note_on_c, 0, 34, 0
3, 86520, Note_on_c, 0, 50, 26
3, 89280, Note_on_c, 0, 50, 0
3, 89280, End_track
4, 0, Start_track
4, 0, Title_t, "Pedale"
4, 0, Program_c, 0, 0
4, 0, Control_c, 0, 64, 0
4, 2672, Control_c, 0, 64, 127
4, 3607, Control_c, 0, 64, 0
4, 3657, Control_c, 0, 64, 127
4, 4334, Control_c, 0, 64, 0
4, 4462, Control_c, 0, 64, 127
4, 5538, Control_c, 0, 64, 0
4, 5659, Control_c, 0, 64, 127
4, 6487, Control_c, 0, 64, 0
4, 6537, Control_c, 0, 64, 127
4, 7214, Control_c, 0, 64, 0
4, 7342, Control_c, 0, 64, 127
4, 8287, Control_c, 0, 64, 0
4, 8443, Control_c, 0, 64, 127
4, 9367, Control_c, 0, 64, 0
4, 9417, Control_c, 0, 64, 127
4, 10094, Control_c, 0, 64, 0
4, 10137, Control_c, 0, 64, 127
4, 11061, Control_c, 0, 64, 0
4, 11354, Control_c, 0, 64, 127
4, 12253, Control_c, 0, 64, 0
4, 12326, Control_c, 0, 64, 127
4, 12973, Control_c, 0, 64, 0
4, 13077, Control_c, 0, 64, 127
4, 13993, Control_c, 0, 64, 0
4, 14148, Control_c, 0, 64, 127
4, 15134, Control_c, 0, 64, 0
4, 15268, Control_c, 0, 64, 127
4, 15850, Control_c, 0, 64, 0
4, 15918, Control_c, 0, 64, 127
4, 16518, Control_c, 0, 64, 0
4, 16652, Control_c, 0, 64, 127
4, 17280, Control_c, 0, 64, 0
4, 17324, Control_c, 0, 64, 127
4, 17827, Control_c, 0, 64, 0
4, 17858, Control_c, 0, 64, 127
4, 18009, Control_c, 0, 64, 0
4, 18057, Control_c, 0, 64, 127
4, 18531, Control_c, 0, 64, 0
4, 18575, Control_c, 0, 64, 127
4, 18746, Control_c, 0, 64, 0
4, 18802, Control_c, 0, 64, 127
4, 19289, Control_c, 0, 64, 0
4, 19317, Control_c, 0, 64, 127
4, 19452, Control_c, 0, 64, 0
4, 19535, Control_c, 0, 64, 127
4, 19999, Control_c, 0, 64, 0
4, 20031, Control_c, 0, 64, 127
4, 20160, Control_c, 0, 64, 0
4, 20193, Control_c, 0, 64, 127
4, 20687, Control_c, 0, 64, 0
4, 20703, Control_c, 0, 64, 127
4, 20890, Control_c, 0, 64, 0
4, 20968, Control_c, 0, 64, 127
4, 21419, Control_c, 0, 64, 0
4, 21436, Control_c, 0, 64, 127
4, 21616, Control_c, 0, 64, 0
4, 21662, Control_c, 0, 64, 127
4, 22127, Control_c, 0, 64, 0
4, 22140, Control_c, 0, 64, 127
4, 22319, Control_c, 0, 64, 0
4, 22372, Control_c, 0, 64, 127
4, 22862, Control_c, 0, 64, 0
4, 22880, Control_c, 0, 64, 127
4, 23060, Control_c, 0, 64, 0
4, 23092, Control_c, 0, 64, 127
4, 23769, Control_c, 0, 64, 0
4, 23829, Control_c, 0, 64, 127
4, 24492, Control_c, 0, 64, 0
4, 24552, Control_c, 0, 64, 127
4, 25946, Control_c, 0, 64, 0
4, 26002, Control_c, 0, 64, 127
4, 26470, Control_c, 0, 64, 0
4, 26494, Control_c, 0, 64, 127
4, 26654, Control_c, 0, 64, 0
4, 26722, Control_c, 0, 64, 127
4, 27201, Control_c, 0, 64, 0
4, 27227, Control_c, 0, 64, 127
4, 27372, Control_c, 0, 64, 0
4, 27432, Control_c, 0, 64, 127
4, 28826, Control_c, 0, 64, 0
4, 28882, Control_c, 0, 64, 127
4, 29365, Control_c, 0, 64, 0
4, 29397, Control_c, 0, 64, 127
4, 29546, Control_c, 0, 64, 0
4, 29602, Control_c, 0, 64, 127
4, 30080, Control_c, 0, 64, 0
4, 30099, Control_c, 0, 64, 127
4, 30252, Control_c, 0, 64, 0
4, 30312, Control_c, 0, 64, 127
4, 31687, Control_c, 0, 64, 0
4, 33174, Control_c, 0, 64, 127
4, 34361, Control_c, 0, 64, 0
4, 36158, Control_c, 0, 64, 127
4, 37292, Control_c, 0, 64, 0
4, 37380, Control_c, 0, 64, 127
4, 38167, Control_c, 0, 64, 0
4, 38217, Control_c, 0, 64, 127
4, 38894, Control_c, 0, 64, 0
4, 38975, Control_c, 0, 64, 127
4, 39613, Control_c, 0, 64, 0
4, 39686, Control_c, 0, 64, 127
4, 40332, Control_c, 0, 64, 0
4, 41047, Control_c, 0, 64, 0
4, 41097, Control_c, 0, 64, 127
4, 41772, Control_c, 0, 64, 0
4, 41814, Control_c, 0, 64, 127
4, 42493, Control_c, 0, 64, 0
4, 42566, Control_c, 0, 64, 127
4, 43933, Control_c, 0, 64, 0
4, 44006, Control_c, 0, 64, 127
4, 44652, Control_c, 0, 64, 0
4, 44735, Control_c, 0, 64, 127
4, 45376, Control_c, 0, 64, 0
4, 45483, Control_c, 0, 64, 127
4, 46080, Control_c, 0, 64, 0
4, 46150, Control_c, 0, 64, 127
4, 46826, Control_c, 0, 64, 0
4, 46886, Control_c, 0, 64, 127
4, 47527, Control_c, 0, 64, 0
4, 53280, Control_c, 0, 64, 127
4, 53658, Control_c, 0, 64, 0
4, 53718, Control_c, 0, 64, 127
4, 54028, Control_c, 0, 64, 0
4, 54113, Control_c, 0, 64, 127
4, 54367, Control_c, 0, 64, 0
4, 54445, Control_c, 0, 64, 127
4, 54720, Control_c, 0, 64, 0
4, 54812, Control_c, 0, 64, 127
4, 55090, Control_c, 0, 64, 0
4, 55186, Control_c, 0, 64, 127
4, 55445, Control_c, 0, 64, 0
4, 55567, Control_c, 0, 64, 127
4, 55803, Control_c, 0, 64, 0
4, 55899, Control_c, 0, 64, 127
4, 56164, Control_c, 0, 64, 0
4, 56245, Control_c, 0, 64, 127
4, 56526, Control_c, 0, 64, 0
4, 56605, Control_c, 0, 64, 127
4, 56893, Control_c, 0, 64, 0
4, 57014, Control_c, 0, 64, 127
4, 57251, Control_c, 0, 64, 0
4, 57318, Control_c, 0, 64, 127
4, 57600, Control_c, 0, 64, 0
4, 57652, Control_c, 0, 64, 127
4, 57967, Control_c, 0, 64, 0
4, 58035, Control_c, 0, 64, 127
4, 58330, Control_c, 0, 64, 0
4, 58429, Control_c, 0, 64, 127
4, 58686, Control_c, 0, 64, 0
4, 58760, Control_c, 0, 64, 127
4, 59047, Control_c, 0, 64, 0
4, 59160, Control_c, 0, 64, 127
4, 59408, Control_c, 0, 64, 0
4, 59480, Control_c, 0, 64, 127
4, 59769, Control_c, 0, 64, 0
4, 59880, Control_c, 0, 64, 127
4, 60129, Control_c, 0, 64, 0
4, 60206, Control_c, 0, 64, 127
4, 60480, Control_c, 0, 64, 0
4, 60579, Control_c, 0, 64, 127
4, 60852, Control_c, 0, 64, 0
4, 60939, Control_c, 0, 64, 127
4, 61221, Control_c, 0, 64, 0
4, 61334, Control_c, 0, 64, 127
4, 61565, Control_c, 0, 64, 0
4, 61645, Control_c, 0, 64, 127
4, 61920, Control_c, 0, 64, 0
4, 62035, Control_c, 0, 64, 127
4, 62290, Control_c, 0, 64, 0
4, 62372, Control_c, 0, 64, 127
4, 62686, Control_c, 0, 64, 0
4, 62760, Control_c, 0, 64, 127
4, 63003, Control_c, 0, 64, 0
4, 63063, Control_c, 0, 64, 127
4, 63360, Control_c, 0, 64, 0
4, 63424, Control_c, 0, 64, 127
4, 63727, Control_c, 0, 64, 0
4, 63784, Control_c, 0, 64, 127
4, 64091, Control_c, 0, 64, 0
4, 64154, Control_c, 0, 64, 127
4, 64445, Control_c, 0, 64, 0
4, 64490, Control_c, 0, 64, 127
4, 64800, Control_c, 0, 64, 0
4, 64906, Control_c, 0, 64, 127
4, 65165, Control_c, 0, 64, 0
4, 65273, Control_c, 0, 64, 127
4, 65548, Control_c, 0, 64, 0
4, 65676, Control_c, 0, 64, 127
4, 65890, Control_c, 0, 64, 0
4, 65940, Control_c, 0, 64, 127
4, 66240, Control_c, 0, 64, 0
4, 66346, Control_c, 0, 64, 127
4, 66605, Control_c, 0, 64, 0
4, 66672, Control_c, 0, 64, 127
4, 66988, Control_c, 0, 64, 0
4, 67116, Control_c, 0, 64, 127
4, 67330, Control_c, 0, 64, 0
4, 67372, Control_c, 0, 64, 127
4, 67680, Control_c, 0, 64, 0
4, 67786, Control_c, 0, 64, 127
4, 68045, Control_c, 0, 64, 0
4, 68153, Control_c, 0, 64, 127
4, 68428, Control_c, 0, 64, 0
4, 68556, Control_c, 0, 64, 127
4, 68770, Control_c, 0, 64, 0
4, 68792, Control_c, 0, 64, 127
4, 69120, Control_c, 0, 64, 0
4, 69226, Control_c, 0, 64, 127
4, 69485, Control_c, 0, 64, 0
4, 69593, Control_c, 0, 64, 127
4, 69868, Control_c, 0, 64, 0
4, 69996, Control_c, 0, 64, 127
4, 70210, Control_c, 0, 64, 0
4, 70252, Control_c, 0, 64, 127
4, 70560, Control_c, 0, 64, 0
4, 70666, Control_c, 0, 64, 127
4, 70925, Control_c, 0, 64, 0
4, 71033, Control_c, 0, 64, 127
4, 71308, Control_c, 0, 64, 0
4, 71436, Control_c, 0, 64, 127
4, 71650, Control_c, 0, 64, 0
4, 71692, Control_c, 0, 64, 127
4, 72000, Control_c, 0, 64, 0
4, 72046, Control_c, 0, 64, 127
4, 72367, Control_c, 0, 64, 0
4, 72459, Control_c, 0, 64, 127
4, 72741, Control_c, 0, 64, 0
4, 72819, Control_c, 0, 64, 127
4, 73083, Control_c, 0, 64, 0
4, 73137, Control_c, 0, 64, 127
4, 73440, Control_c, 0, 64, 0
4, 73490, Control_c, 0, 64, 127
4, 73797, Control_c, 0, 64, 0
4, 73846, Control_c, 0, 64, 127
4, 74167, Control_c, 0, 64, 0
4, 74231, Control_c, 0, 64, 127
4, 74530, Control_c, 0, 64, 0
4, 74583, Control_c, 0, 64, 127
4, 74880, Control_c, 0, 64, 0
4, 74930, Control_c, 0, 64, 127
4, 75243, Control_c, 0, 64, 0
4, 75318, Control_c, 0, 64, 127
4, 75547, Control_c, 0, 64, 0
4, 75583, Control_c, 0, 64, 127
4, 75967, Control_c, 0, 64, 0
4, 76034, Control_c, 0, 64, 127
4, 77047, Control_c, 0, 64, 0
4, 77097, Control_c, 0, 64, 127
4, 77774, Control_c, 0, 64, 0
4, 77902, Control_c, 0, 64, 127
4, 78979, Control_c, 0, 64, 0
4, 79068, Control_c, 0, 64, 127
4, 79927, Control_c, 0, 64, 0
4, 79977, Control_c, 0, 64, 127
4, 80654, Control_c, 0, 64, 0
4, 80782, Control_c, 0, 64, 127
4, 81855, Control_c, 0, 64, 0
4, 81936, Control_c, 0, 64, 127
4, 82807, Control_c, 0, 64, 0
4, 82857, Control_c, 0, 64, 127
4, 83534, Control_c, 0, 64, 0
4, 83577, Control_c, 0, 64, 127
4, 84743, Control_c, 0, 64, 0
4, 84830, Control_c, 0, 64, 127
4, 85693, Control_c, 0, 64, 0
4, 85766, Control_c, 0, 64, 127
4, 86413, Control_c, 0, 64, 0
4, 86482, Control_c, 0, 64, 127
4, 89880, Control_c, 0, 64, 0
4, 89880, End_track
5, 0, Start_track
5, 0, Title_t, "Schumann: Kreisleriana  No. 6"
5, 0, End_track
6, 0, Start_track
6, 0, Title_t, "Copyright © 2006 by Bernd Krueger"
6, 0, End_track
7, 0, Start_track
7, 0, Title_t, "http://www.piano-midi.de/"
7, 0, End_track
8, 0, Start_track
8, 0, Title_t, "Edition: 2014-03-27"
8, 0, End_track
9, 0, Start_track
9, 0, Title_t, "Spur 8"
9, 0, End_track
10, 0, Start_track
10, 0, Title_t, "Spur 9"
10, 0, End_track
11, 0, Start_track
11, 0, Title_t, "Spur 10"
11, 0, End_track
12, 0, Start_track
12, 0, Title_t, "Spur 11"
12, 0, End_track
13, 0, Start_track
13, 0, Title_t, "Spur 12"
13, 0, End_track
14, 0, Start_track
14, 0, Title_t, "Spur 13"
14, 0, End_track
15, 0, Start_track
15, 0, Title_t, "Spur 14"
15, 0, End_track
16, 0, Start_track
16, 0, Title_t, "Spur 15"
16, 0, End_track
17, 0, Start_track
17, 0, Title_t, "Spur 16"
17, 0, End_track
0, 0, End_of_file
