0, 0, Header, 1, 17, 480
1, 0, Start_track
1, 0, Title_t, "Kreisleriana Nr. 1"
1, 0, Title_t, "Fantasien"
1, 0, Copyright_t, "Copyright © 2007 by Bernd Krueger"
1, 0, Text_t, "Robert Schumann"
1, 0, Text_t, "Äußerst bewegt"
1, 0, Text_t, "Erstellt:  15.1.07\012"
1, 0, Text_t, "Update: 27.3.2014\012"
1, 0, Text_t, "Dauer: 2:39 Minuten\012"
1, 0, Time_signature, 2, 2, 24, 8
1, 0, Key_signature, -1, "major"
1, 0, Tempo, 614754
1, 840, Tempo, 715990
1, 960, Tempo, 667186
1, 1040, Tempo, 641574
1, 1440, Tempo, 667186
1, 1520, Tempo, 631313
1, 1920, Tempo, 670916
1, 2000, Tempo, 611558
1, 2400, Tempo, 638162
1, 2480, Tempo, 593003
1, 2880, Tempo, 621311
1, 2960, Tempo, 581283
1, 3360, Tempo, 608396
1, 3440, Tempo, 581283
1, 3840, Tempo, 631313
1, 3920, Tempo, 627943
1, 3960, Tempo, 659631
1, 4080, Tempo, 611558
1, 4160, Tempo, 593003
1, 4320, Tempo, 575540
1, 4720, Tempo, 602168
1, 4800, Tempo, 638162
1, 4880, Tempo, 599042
1, 5280, Tempo, 631313
1, 5360, Tempo, 596066
1, 5520, Tempo, 578425
1, 5760, Tempo, 641574
1, 5840, Tempo, 593003
1, 6000, Tempo, 581283
1, 6240, Tempo, 645161
1, 6320, Tempo, 590087
1, 6480, Tempo, 584169
1, 6720, Tempo, 641574
1, 6800, Tempo, 599042
1, 7200, Tempo, 634652
1, 7280, Tempo, 611558
1, 7320, Tempo, 617983
1, 7680, Tempo, 641574
1, 7760, Tempo, 611558
1, 7920, Tempo, 645161
1, 8520, Tempo, 715990
1, 8640, Tempo, 667186
1, 8720, Tempo, 641574
1, 9120, Tempo, 667186
1, 9200, Tempo, 614754
1, 9600, Tempo, 670916
1, 9680, Tempo, 611558
1, 10080, Tempo, 638162
1, 10160, Tempo, 593003
1, 10560, Tempo, 621311
1, 10640, Tempo, 573449
1, 11040, Tempo, 608396
1, 11120, Tempo, 581283
1, 11520, Tempo, 631313
1, 11600, Tempo, 627943
1, 11640, Tempo, 659631
1, 11760, Tempo, 611558
1, 11840, Tempo, 593003
1, 12000, Tempo, 575540
1, 12400, Tempo, 602168
1, 12480, Tempo, 638162
1, 12560, Tempo, 583942
1, 12960, Tempo, 631313
1, 13040, Tempo, 596066
1, 13200, Tempo, 570885
1, 13440, Tempo, 641574
1, 13520, Tempo, 593003
1, 13680, Tempo, 573449
1, 13920, Tempo, 645161
1, 14000, Tempo, 590087
1, 14160, Tempo, 584169
1, 14400, Tempo, 641574
1, 14480, Tempo, 599042
1, 14880, Tempo, 634652
1, 14960, Tempo, 611558
1, 15000, Tempo, 617983
1, 15360, Tempo, 641574
1, 15440, Tempo, 611558
1, 15600, Tempo, 645161
1, 16160, Tempo, 599042
1, 16320, Tempo, 611558
1, 16480, Tempo, 733855
1, 16560, Tempo, 636065
1, 16800, Tempo, 617983
1, 17040, Tempo, 617602
1, 17280, Tempo, 611558
1, 17440, Tempo, 733855
1, 17520, Tempo, 636065
1, 17600, Tempo, 583942
1, 17640, Tempo, 617602
1, 17760, Tempo, 603197
1, 18000, Tempo, 611870
1, 18240, Tempo, 611558
1, 18400, Tempo, 733855
1, 18480, Tempo, 600240
1, 18720, Tempo, 623636
1, 19200, Tempo, 611558
1, 19360, Tempo, 733855
1, 19440, Tempo, 603076
1, 19680, Tempo, 626697
1, 20160, Tempo, 611558
1, 20320, Tempo, 733855
1, 20400, Tempo, 632911
1, 20640, Tempo, 617983
1, 21120, Tempo, 611558
1, 21280, Tempo, 733855
1, 21360, Tempo, 626697
1, 21600, Tempo, 617983
1, 22080, Tempo, 586338
1, 22320, Tempo, 621311
1, 22531, Tempo, 624545
1, 23033, Tempo, 581001
1, 23110, Tempo, 583658
1, 23187, Tempo, 586338
1, 23245, Tempo, 589044
1, 23321, Tempo, 591774
1, 23379, Tempo, 594471
1, 23456, Tempo, 597253
1, 23513, Tempo, 600060
1, 23530, Tempo, 641574
1, 23533, Tempo, 600060
1, 23629, Tempo, 602894
1, 23725, Tempo, 605755
1, 23801, Tempo, 608643
1, 23895, Tempo, 655953
1, 23971, Tempo, 659631
1, 24000, Tempo, 667186
1, 24080, Tempo, 641574
1, 24480, Tempo, 667186
1, 24560, Tempo, 631313
1, 24960, Tempo, 670916
1, 25040, Tempo, 583942
1, 25440, Tempo, 638162
1, 25520, Tempo, 583942
1, 25920, Tempo, 621311
1, 26000, Tempo, 581283
1, 26400, Tempo, 608396
1, 26480, Tempo, 570885
1, 26880, Tempo, 631313
1, 26960, Tempo, 627943
1, 27000, Tempo, 659631
1, 27120, Tempo, 611558
1, 27200, Tempo, 593003
1, 27360, Tempo, 575540
1, 27760, Tempo, 602168
1, 27840, Tempo, 638162
1, 27920, Tempo, 581283
1, 28320, Tempo, 631313
1, 28400, Tempo, 596066
1, 28560, Tempo, 578425
1, 28800, Tempo, 641574
1, 28880, Tempo, 593003
1, 29040, Tempo, 581283
1, 29280, Tempo, 645161
1, 29360, Tempo, 590087
1, 29520, Tempo, 584169
1, 29760, Tempo, 641574
1, 29840, Tempo, 599042
1, 30240, Tempo, 634652
1, 30320, Tempo, 611558
1, 30360, Tempo, 617983
1, 30720, Tempo, 641574
1, 30800, Tempo, 611558
1, 30960, Tempo, 645161
1, 31200, Tempo, 694766
1, 31440, Tempo, 645161
1, 31520, Tempo, 599042
1, 31680, Tempo, 611558
1, 31840, Tempo, 733855
1, 31920, Tempo, 611746
1, 32160, Tempo, 594766
1, 32400, Tempo, 614754
1, 32640, Tempo, 611558
1, 32800, Tempo, 733855
1, 32880, Tempo, 623636
1, 33120, Tempo, 617983
1, 33600, Tempo, 611558
1, 33760, Tempo, 733855
1, 33840, Tempo, 603076
1, 34080, Tempo, 629789
1, 34560, Tempo, 611558
1, 34720, Tempo, 733855
1, 34800, Tempo, 608828
1, 35040, Tempo, 626697
1, 35520, Tempo, 611558
1, 35680, Tempo, 733855
1, 35760, Tempo, 629789
1, 36000, Tempo, 617983
1, 36480, Tempo, 611558
1, 36640, Tempo, 733855
1, 36720, Tempo, 620604
1, 36960, Tempo, 592008
1, 37200, Tempo, 603197
1, 37440, Tempo, 586338
1, 37680, Tempo, 621311
1, 37891, Tempo, 624545
1, 38393, Tempo, 581001
1, 38470, Tempo, 583658
1, 38547, Tempo, 586338
1, 38605, Tempo, 589044
1, 38681, Tempo, 591774
1, 38739, Tempo, 594471
1, 38816, Tempo, 597253
1, 38873, Tempo, 600060
1, 38890, Tempo, 641574
1, 38893, Tempo, 600060
1, 38989, Tempo, 602894
1, 39085, Tempo, 605755
1, 39161, Tempo, 608643
1, 39255, Tempo, 655953
1, 39331, Tempo, 659631
1, 39360, Tempo, 667186
1, 39440, Tempo, 641574
1, 39840, Tempo, 667186
1, 39920, Tempo, 631313
1, 40320, Tempo, 670916
1, 40400, Tempo, 611558
1, 40800, Tempo, 638162
1, 40880, Tempo, 593003
1, 41280, Tempo, 621311
1, 41360, Tempo, 581283
1, 41760, Tempo, 608396
1, 41840, Tempo, 581283
1, 42240, Tempo, 631313
1, 42320, Tempo, 627943
1, 42360, Tempo, 659631
1, 42480, Tempo, 611558
1, 42560, Tempo, 593003
1, 42720, Tempo, 575540
1, 43120, Tempo, 602168
1, 43200, Tempo, 638162
1, 43280, Tempo, 583942
1, 43680, Tempo, 631313
1, 43760, Tempo, 596066
1, 43920, Tempo, 568343
1, 44160, Tempo, 641574
1, 44240, Tempo, 593003
1, 44400, Tempo, 573449
1, 44640, Tempo, 645161
1, 44720, Tempo, 590087
1, 44880, Tempo, 581283
1, 45120, Tempo, 641574
1, 45200, Tempo, 599042
1, 45600, Tempo, 634652
1, 45680, Tempo, 611558
1, 45720, Tempo, 617983
1, 46080, Tempo, 641574
1, 46160, Tempo, 611558
1, 46320, Tempo, 652387
1, 46560, Tempo, 710227
1, 46957, Tempo, 809171
1, 46960, Tempo, 728332
1, 47040, Key_signature, -2, "major"
1, 47040, Tempo, 721067
1, 47120, Tempo, 672872
1, 47360, Tempo, 758629
1, 47440, Tempo, 721067
1, 47520, Tempo, 669344
1, 47840, Tempo, 762583
1, 47920, Tempo, 714031
1, 48000, Tempo, 717532
1, 48080, Tempo, 658979
1, 48320, Tempo, 758629
1, 48400, Tempo, 714031
1, 48480, Tempo, 662398
1, 48800, Tempo, 762583
1, 48880, Tempo, 721067
1, 48960, Tempo, 665853
1, 49280, Tempo, 758629
1, 49360, Tempo, 717532
1, 49440, Tempo, 665853
1, 49760, Tempo, 827472
1, 49840, Tempo, 724638
1, 49920, Tempo, 676361
1, 50240, Tempo, 758629
1, 50320, Tempo, 714031
1, 50400, Tempo, 672872
1, 50720, Tempo, 791557
1, 50800, Tempo, 717532
1, 50880, Tempo, 676361
1, 51200, Tempo, 787298
1, 51280, Tempo, 717532
1, 51360, Tempo, 683605
1, 51680, Tempo, 804721
1, 51760, Tempo, 728332
1, 51840, Tempo, 698568
1, 52160, Tempo, 758629
1, 52240, Tempo, 724638
1, 52320, Tempo, 707130
1, 52640, Tempo, 910194
1, 52720, Tempo, 762583
1, 52800, Tempo, 710564
1, 53120, Tempo, 851668
1, 53200, Tempo, 747012
1, 53280, Tempo, 718133
1, 53600, Tempo, 795862
1, 53680, Tempo, 743218
1, 53760, Tempo, 758629
1, 54080, Tempo, 787298
1, 54160, Tempo, 774793
1, 54240, Tempo, 778311
1, 54560, Tempo, 1032702
1, 54640, Tempo, 693642
1, 54720, Tempo, 721067
1, 54800, Tempo, 679964
1, 55040, Tempo, 758629
1, 55120, Tempo, 721067
1, 55200, Tempo, 679964
1, 55520, Tempo, 762583
1, 55600, Tempo, 714031
1, 55680, Tempo, 717532
1, 55760, Tempo, 672872
1, 56000, Tempo, 758629
1, 56080, Tempo, 714031
1, 56160, Tempo, 672872
1, 56480, Tempo, 762583
1, 56560, Tempo, 721067
1, 56640, Tempo, 672872
1, 56960, Tempo, 758629
1, 57040, Tempo, 717532
1, 57120, Tempo, 669344
1, 57440, Tempo, 827472
1, 57520, Tempo, 724638
1, 57600, Tempo, 676361
1, 57920, Tempo, 758629
1, 58000, Tempo, 714031
1, 58080, Tempo, 672872
1, 58400, Tempo, 791557
1, 58480, Tempo, 717532
1, 58560, Tempo, 669344
1, 58880, Tempo, 787298
1, 58960, Tempo, 717532
1, 59040, Tempo, 676361
1, 59360, Tempo, 804721
1, 59440, Tempo, 728332
1, 59520, Tempo, 687285
1, 59840, Tempo, 758629
1, 59920, Tempo, 724638
1, 60000, Tempo, 698568
1, 60320, Tempo, 910194
1, 60400, Tempo, 762583
1, 60480, Tempo, 710564
1, 60800, Tempo, 851668
1, 60880, Tempo, 747012
1, 60960, Tempo, 722109
1, 61280, Tempo, 795862
1, 61360, Tempo, 743218
1, 61440, Tempo, 735384
1, 61680, Tempo, 809826
1, 61760, Tempo, 787298
1, 61840, Tempo, 774793
1, 61920, Tempo, 768344
1, 62240, Tempo, 1128668
1, 62320, Tempo, 693642
1, 62400, Tempo, 721067
1, 62480, Tempo, 687285
1, 62720, Tempo, 758629
1, 62800, Tempo, 721067
1, 62880, Tempo, 687285
1, 63200, Tempo, 762583
1, 63280, Tempo, 714031
1, 63360, Tempo, 717532
1, 63440, Tempo, 683605
1, 63680, Tempo, 758629
1, 63760, Tempo, 714031
1, 63840, Tempo, 700280
1, 64000, Tempo, 717532
1, 64160, Tempo, 832178
1, 64240, Tempo, 721067
1, 64320, Tempo, 669344
1, 64640, Tempo, 758629
1, 64720, Tempo, 717532
1, 64800, Tempo, 665853
1, 65120, Tempo, 827472
1, 65200, Tempo, 724638
1, 65280, Tempo, 672872
1, 65600, Tempo, 758629
1, 65680, Tempo, 714031
1, 65760, Tempo, 676361
1, 66080, Tempo, 904568
1, 66160, Tempo, 717532
1, 66240, Tempo, 676361
1, 66560, Tempo, 787298
1, 66640, Tempo, 717532
1, 66720, Tempo, 694766
1, 67040, Tempo, 804721
1, 67120, Tempo, 728332
1, 67200, Tempo, 707130
1, 67520, Tempo, 758629
1, 67600, Tempo, 724638
1, 67680, Tempo, 707130
1, 68000, Tempo, 910194
1, 68080, Tempo, 762583
1, 68160, Tempo, 730905
1, 68480, Tempo, 851668
1, 68560, Tempo, 747012
1, 68640, Tempo, 739919
1, 68800, Tempo, 718133
1, 68880, Tempo, 791557
1, 68960, Tempo, 882613
1, 69141, Tempo, 768344
1, 69199, Tempo, 773296
1, 69276, Tempo, 778311
1, 69333, Tempo, 783392
1, 69391, Tempo, 788540
1, 69440, Tempo, 787298
1, 69468, Tempo, 788540
1, 69506, Tempo, 793756
1, 69525, Tempo, 799041
1, 69544, Tempo, 804397
1, 69564, Tempo, 809826
1, 69583, Tempo, 815328
1, 69602, Tempo, 820906
1, 69920, Tempo, 1515917
1, 70000, Tempo, 693642
1, 70080, Tempo, 721067
1, 70160, Tempo, 683605
1, 70400, Tempo, 758629
1, 70480, Tempo, 721067
1, 70560, Tempo, 683605
1, 70880, Tempo, 762583
1, 70960, Tempo, 714031
1, 71040, Tempo, 717532
1, 71120, Tempo, 669344
1, 71360, Tempo, 758629
1, 71440, Tempo, 714031
1, 71520, Tempo, 672872
1, 71840, Tempo, 762583
1, 71920, Tempo, 721067
1, 72000, Tempo, 676361
1, 72320, Tempo, 758629
1, 72400, Tempo, 717532
1, 72480, Tempo, 672872
1, 72800, Tempo, 827472
1, 72880, Tempo, 724638
1, 72960, Tempo, 676361
1, 73280, Tempo, 758629
1, 73360, Tempo, 714031
1, 73440, Tempo, 679964
1, 73760, Tempo, 791557
1, 73840, Tempo, 717532
1, 73920, Tempo, 672872
1, 74240, Tempo, 787298
1, 74320, Tempo, 717532
1, 74400, Tempo, 679964
1, 74720, Tempo, 804721
1, 74800, Tempo, 728332
1, 74880, Tempo, 698568
1, 75200, Tempo, 758629
1, 75280, Tempo, 724638
1, 75360, Tempo, 710564
1, 75680, Tempo, 910194
1, 75760, Tempo, 762583
1, 75840, Tempo, 714031
1, 76160, Tempo, 851668
1, 76240, Tempo, 747012
1, 76320, Tempo, 726480
1, 76640, Tempo, 795862
1, 76720, Tempo, 743218
1, 76800, Tempo, 744509
1, 77040, Tempo, 799041
1, 77120, Tempo, 787298
1, 77200, Tempo, 774793
1, 77280, Tempo, 778311
1, 77600, Tempo, 1032702
1, 77680, Tempo, 693642
1, 77760, Tempo, 721067
1, 77840, Tempo, 683605
1, 78080, Tempo, 758629
1, 78160, Tempo, 721067
1, 78240, Tempo, 683605
1, 78560, Tempo, 762583
1, 78640, Tempo, 714031
1, 78720, Tempo, 717532
1, 78800, Tempo, 676361
1, 79040, Tempo, 758629
1, 79120, Tempo, 714031
1, 79200, Tempo, 683605
1, 79360, Tempo, 717532
1, 79520, Tempo, 832178
1, 79600, Tempo, 721067
1, 79680, Tempo, 669344
1, 80000, Tempo, 758629
1, 80080, Tempo, 717532
1, 80160, Tempo, 672872
1, 80480, Tempo, 827472
1, 80560, Tempo, 724638
1, 80640, Tempo, 679964
1, 80960, Tempo, 758629
1, 81040, Tempo, 714031
1, 81120, Tempo, 687285
1, 81440, Tempo, 904568
1, 81520, Tempo, 717532
1, 81600, Tempo, 687285
1, 81920, Tempo, 787298
1, 82000, Tempo, 717532
1, 82080, Tempo, 698568
1, 82400, Tempo, 804721
1, 82480, Tempo, 728332
1, 82560, Tempo, 694766
1, 82880, Tempo, 758629
1, 82960, Tempo, 724638
1, 83040, Tempo, 707130
1, 83360, Tempo, 910194
1, 83440, Tempo, 762583
1, 83520, Tempo, 710564
1, 83840, Tempo, 851668
1, 83920, Tempo, 747012
1, 84000, Tempo, 730905
1, 84120, Tempo, 730905
1, 84160, Tempo, 707130
1, 84240, Tempo, 791557
1, 84320, Tempo, 882613
1, 84480, Tempo, 793756
1, 84786, Tempo, 788540
1, 84824, Tempo, 793756
1, 84844, Tempo, 799041
1, 84882, Tempo, 804397
1, 84901, Tempo, 809826
1, 84920, Tempo, 809826
1, 85280, Tempo, 1515917
1, 85360, Tempo, 693642
1, 85440, Tempo, 721067
1, 85520, Tempo, 691005
1, 85760, Tempo, 758629
1, 85840, Tempo, 721067
1, 85920, Tempo, 683605
1, 86240, Tempo, 762583
1, 86320, Tempo, 714031
1, 86400, Tempo, 717532
1, 86480, Tempo, 672872
1, 86720, Tempo, 758629
1, 86800, Tempo, 714031
1, 86880, Tempo, 683605
1, 87200, Tempo, 762583
1, 87280, Tempo, 721067
1, 87360, Tempo, 683605
1, 87680, Tempo, 758629
1, 87760, Tempo, 717532
1, 87840, Tempo, 679964
1, 88160, Tempo, 827472
1, 88240, Tempo, 724638
1, 88320, Tempo, 676361
1, 88640, Tempo, 758629
1, 88720, Tempo, 714031
1, 88800, Tempo, 676361
1, 89120, Tempo, 791557
1, 89200, Tempo, 717532
1, 89280, Tempo, 676361
1, 89600, Tempo, 787298
1, 89680, Tempo, 717532
1, 89760, Tempo, 679964
1, 90080, Tempo, 804721
1, 90160, Tempo, 728332
1, 90240, Tempo, 691005
1, 90560, Tempo, 758629
1, 90640, Tempo, 724638
1, 90720, Tempo, 710564
1, 91040, Tempo, 910194
1, 91120, Tempo, 762583
1, 91200, Tempo, 714031
1, 91520, Tempo, 851668
1, 91600, Tempo, 747012
1, 91680, Tempo, 717532
1, 92000, Tempo, 795862
1, 92080, Tempo, 743218
1, 92160, Tempo, 721067
1, 92480, Tempo, 787298
1, 92560, Tempo, 774793
1, 92640, Tempo, 747012
1, 92960, Tempo, 1032702
1, 93040, Tempo, 693642
1, 93120, Key_signature, -1, "major"
1, 93120, Tempo, 760167
1, 93200, Tempo, 641574
1, 93600, Tempo, 667186
1, 93680, Tempo, 631313
1, 94080, Tempo, 670916
1, 94160, Tempo, 611558
1, 94560, Tempo, 638162
1, 94640, Tempo, 593003
1, 95040, Tempo, 621311
1, 95120, Tempo, 573449
1, 95520, Tempo, 608396
1, 95600, Tempo, 570885
1, 96000, Tempo, 631313
1, 96080, Tempo, 627943
1, 96120, Tempo, 659631
1, 96240, Tempo, 611558
1, 96320, Tempo, 593003
1, 96480, Tempo, 575540
1, 96880, Tempo, 602168
1, 96960, Tempo, 638162
1, 97040, Tempo, 576037
1, 97440, Tempo, 631313
1, 97520, Tempo, 596066
1, 97680, Tempo, 578425
1, 97920, Tempo, 641574
1, 98000, Tempo, 593003
1, 98160, Tempo, 581283
1, 98400, Tempo, 645161
1, 98480, Tempo, 590087
1, 98640, Tempo, 584169
1, 98880, Tempo, 641574
1, 98960, Tempo, 599042
1, 99360, Tempo, 634652
1, 99440, Tempo, 611558
1, 99480, Tempo, 617983
1, 99840, Tempo, 641574
1, 99920, Tempo, 611558
1, 100080, Tempo, 645161
1, 100640, Tempo, 599042
1, 100800, Tempo, 611558
1, 100960, Tempo, 733855
1, 101040, Tempo, 636065
1, 101280, Tempo, 617983
1, 101760, Tempo, 611558
1, 101920, Tempo, 733855
1, 102000, Tempo, 636065
1, 102240, Tempo, 617983
1, 102720, Tempo, 611558
1, 102880, Tempo, 733855
1, 102960, Tempo, 600240
1, 103200, Tempo, 623636
1, 103680, Tempo, 611558
1, 103840, Tempo, 733855
1, 103920, Tempo, 603076
1, 104160, Tempo, 626697
1, 104640, Tempo, 611558
1, 104800, Tempo, 733855
1, 104880, Tempo, 617602
1, 105120, Tempo, 583942
1, 105360, Tempo, 611870
1, 105600, Tempo, 611558
1, 105760, Tempo, 733855
1, 105840, Tempo, 617602
1, 105920, Tempo, 586625
1, 105960, Tempo, 608828
1, 106080, Tempo, 620732
1, 106240, Tempo, 608952
1, 106560, Tempo, 586338
1, 106800, Tempo, 621311
1, 107011, Tempo, 624545
1, 107513, Tempo, 581001
1, 107590, Tempo, 583658
1, 107667, Tempo, 586338
1, 107725, Tempo, 589044
1, 107801, Tempo, 591774
1, 107859, Tempo, 594471
1, 107936, Tempo, 597253
1, 107993, Tempo, 600060
1, 108010, Tempo, 641574
1, 108013, Tempo, 600060
1, 108109, Tempo, 602894
1, 108205, Tempo, 605755
1, 108281, Tempo, 608643
1, 108375, Tempo, 655953
1, 108451, Tempo, 659631
1, 108480, Tempo, 667186
1, 108560, Tempo, 641574
1, 108960, Tempo, 667186
1, 109040, Tempo, 631313
1, 109440, Tempo, 670916
1, 109520, Tempo, 603197
1, 109920, Tempo, 638162
1, 110000, Tempo, 578648
1, 110400, Tempo, 621311
1, 110480, Tempo, 568343
1, 110880, Tempo, 608396
1, 110960, Tempo, 570885
1, 111360, Tempo, 631313
1, 111440, Tempo, 627943
1, 111480, Tempo, 659631
1, 111600, Tempo, 611558
1, 111680, Tempo, 593003
1, 111840, Tempo, 568343
1, 112240, Tempo, 602168
1, 112320, Tempo, 638162
1, 112400, Tempo, 589275
1, 112800, Tempo, 631313
1, 112880, Tempo, 596066
1, 113040, Tempo, 570885
1, 113280, Tempo, 641574
1, 113360, Tempo, 593003
1, 113520, Tempo, 578648
1, 113760, Tempo, 645161
1, 113840, Tempo, 590087
1, 114000, Tempo, 584169
1, 114240, Tempo, 641574
1, 114320, Tempo, 599042
1, 114720, Tempo, 634652
1, 114800, Tempo, 611558
1, 114840, Tempo, 617983
1, 115200, Tempo, 641574
1, 115280, Tempo, 691165
1, 115440, Tempo, 743402
1, 115680, Tempo, 714116
1, 116772, Tempo, 714116
1, 116772, End_track
2, 0, Start_track
2, 0, Title_t, "Piano right"
2, 0, Program_c, 0, 0
2, 0, Control_c, 0, 91, 127
2, 0, Text_t, "bdca426d104a26ac9dcb070447587523"
2, 840, Note_on_c, 0, 57, 47
2, 960, Note_on_c, 0, 57, 0
2, 960, Note_on_c, 0, 58, 63
2, 1040, Note_on_c, 0, 58, 0
2, 1040, Note_on_c, 0, 52, 46
2, 1120, Note_on_c, 0, 52, 0
2, 1120, Note_on_c, 0, 61, 46
2, 1200, Note_on_c, 0, 61, 0
2, 1200, Note_on_c, 0, 64, 63
2, 1280, Note_on_c, 0, 64, 0
2, 1280, Note_on_c, 0, 55, 47
2, 1360, Note_on_c, 0, 55, 0
2, 1360, Note_on_c, 0, 57, 47
2, 1440, Note_on_c, 0, 57, 0
2, 1440, Note_on_c, 0, 58, 63
2, 1520, Note_on_c, 0, 58, 0
2, 1520, Note_on_c, 0, 53, 48
2, 1600, Note_on_c, 0, 53, 0
2, 1600, Note_on_c, 0, 62, 48
2, 1680, Note_on_c, 0, 62, 0
2, 1680, Note_on_c, 0, 65, 62
2, 1760, Note_on_c, 0, 65, 0
2, 1760, Note_on_c, 0, 57, 47
2, 1840, Note_on_c, 0, 57, 0
2, 1840, Note_on_c, 0, 60, 47
2, 1920, Note_on_c, 0, 60, 0
2, 1920, Note_on_c, 0, 61, 62
2, 2000, Note_on_c, 0, 61, 0
2, 2000, Note_on_c, 0, 55, 47
2, 2080, Note_on_c, 0, 55, 0
2, 2080, Note_on_c, 0, 64, 47
2, 2160, Note_on_c, 0, 64, 0
2, 2160, Note_on_c, 0, 67, 62
2, 2240, Note_on_c, 0, 67, 0
2, 2240, Note_on_c, 0, 58, 47
2, 2320, Note_on_c, 0, 58, 0
2, 2320, Note_on_c, 0, 62, 47
2, 2400, Note_on_c, 0, 62, 0
2, 2400, Note_on_c, 0, 63, 62
2, 2480, Note_on_c, 0, 63, 0
2, 2480, Note_on_c, 0, 57, 46
2, 2560, Note_on_c, 0, 57, 0
2, 2560, Note_on_c, 0, 69, 47
2, 2640, Note_on_c, 0, 69, 0
2, 2640, Note_on_c, 0, 72, 62
2, 2720, Note_on_c, 0, 72, 0
2, 2720, Note_on_c, 0, 60, 48
2, 2800, Note_on_c, 0, 60, 0
2, 2800, Note_on_c, 0, 62, 49
2, 2880, Note_on_c, 0, 62, 0
2, 2880, Note_on_c, 0, 63, 65
2, 2960, Note_on_c, 0, 63, 0
2, 2960, Note_on_c, 0, 58, 49
2, 3040, Note_on_c, 0, 58, 0
2, 3040, Note_on_c, 0, 67, 49
2, 3120, Note_on_c, 0, 67, 0
2, 3120, Note_on_c, 0, 70, 65
2, 3200, Note_on_c, 0, 70, 0
2, 3200, Note_on_c, 0, 62, 50
2, 3280, Note_on_c, 0, 62, 0
2, 3280, Note_on_c, 0, 64, 50
2, 3360, Note_on_c, 0, 64, 0
2, 3360, Note_on_c, 0, 65, 67
2, 3440, Note_on_c, 0, 65, 0
2, 3440, Note_on_c, 0, 59, 51
2, 3520, Note_on_c, 0, 59, 0
2, 3520, Note_on_c, 0, 71, 51
2, 3600, Note_on_c, 0, 71, 0
2, 3600, Note_on_c, 0, 74, 67
2, 3680, Note_on_c, 0, 74, 0
2, 3680, Note_on_c, 0, 65, 52
2, 3760, Note_on_c, 0, 65, 0
2, 3760, Note_on_c, 0, 67, 52
2, 3840, Note_on_c, 0, 67, 0
2, 3840, Note_on_c, 0, 68, 69
2, 3920, Note_on_c, 0, 68, 0
2, 3920, Note_on_c, 0, 62, 52
2, 4000, Note_on_c, 0, 62, 0
2, 4000, Note_on_c, 0, 74, 56
2, 4080, Note_on_c, 0, 74, 0
2, 4080, Note_on_c, 0, 77, 71
2, 4160, Note_on_c, 0, 77, 0
2, 4160, Note_on_c, 0, 65, 57
2, 4240, Note_on_c, 0, 65, 0
2, 4240, Note_on_c, 0, 68, 59
2, 4320, Note_on_c, 0, 68, 0
2, 4320, Note_on_c, 0, 69, 76
2, 4400, Note_on_c, 0, 69, 0
2, 4400, Note_on_c, 0, 64, 63
2, 4480, Note_on_c, 0, 64, 0
2, 4480, Note_on_c, 0, 73, 63
2, 4560, Note_on_c, 0, 73, 0
2, 4560, Note_on_c, 0, 76, 77
2, 4640, Note_on_c, 0, 76, 0
2, 4640, Note_on_c, 0, 67, 66
2, 4720, Note_on_c, 0, 67, 0
2, 4720, Note_on_c, 0, 69, 67
2, 4800, Note_on_c, 0, 69, 0
2, 4800, Note_on_c, 0, 70, 81
2, 4880, Note_on_c, 0, 70, 0
2, 4880, Note_on_c, 0, 64, 63
2, 4960, Note_on_c, 0, 64, 0
2, 4960, Note_on_c, 0, 73, 59
2, 5040, Note_on_c, 0, 73, 0
2, 5040, Note_on_c, 0, 76, 63
2, 5120, Note_on_c, 0, 76, 0
2, 5120, Note_on_c, 0, 67, 47
2, 5200, Note_on_c, 0, 67, 0
2, 5200, Note_on_c, 0, 69, 47
2, 5280, Note_on_c, 0, 69, 0
2, 5280, Note_on_c, 0, 70, 63
2, 5360, Note_on_c, 0, 70, 0
2, 5360, Note_on_c, 0, 65, 48
2, 5440, Note_on_c, 0, 65, 0
2, 5440, Note_on_c, 0, 74, 48
2, 5520, Note_on_c, 0, 74, 0
2, 5520, Note_on_c, 0, 77, 62
2, 5600, Note_on_c, 0, 77, 0
2, 5600, Note_on_c, 0, 69, 47
2, 5680, Note_on_c, 0, 69, 0
2, 5680, Note_on_c, 0, 72, 47
2, 5760, Note_on_c, 0, 72, 0
2, 5760, Note_on_c, 0, 73, 62
2, 5840, Note_on_c, 0, 73, 0
2, 5840, Note_on_c, 0, 67, 47
2, 5920, Note_on_c, 0, 67, 0
2, 5920, Note_on_c, 0, 76, 47
2, 6000, Note_on_c, 0, 76, 0
2, 6000, Note_on_c, 0, 79, 62
2, 6080, Note_on_c, 0, 79, 0
2, 6080, Note_on_c, 0, 70, 47
2, 6160, Note_on_c, 0, 70, 0
2, 6160, Note_on_c, 0, 74, 47
2, 6240, Note_on_c, 0, 74, 0
2, 6240, Note_on_c, 0, 75, 62
2, 6320, Note_on_c, 0, 75, 0
2, 6320, Note_on_c, 0, 69, 46
2, 6400, Note_on_c, 0, 69, 0
2, 6400, Note_on_c, 0, 81, 47
2, 6480, Note_on_c, 0, 81, 0
2, 6480, Note_on_c, 0, 84, 62
2, 6560, Note_on_c, 0, 84, 0
2, 6560, Note_on_c, 0, 72, 48
2, 6640, Note_on_c, 0, 72, 0
2, 6640, Note_on_c, 0, 74, 49
2, 6720, Note_on_c, 0, 74, 0
2, 6720, Note_on_c, 0, 75, 65
2, 6800, Note_on_c, 0, 75, 0
2, 6800, Note_on_c, 0, 70, 49
2, 6880, Note_on_c, 0, 70, 0
2, 6880, Note_on_c, 0, 79, 49
2, 6960, Note_on_c, 0, 79, 0
2, 6960, Note_on_c, 0, 82, 72
2, 7040, Note_on_c, 0, 82, 0
2, 7040, Note_on_c, 0, 74, 57
2, 7120, Note_on_c, 0, 74, 0
2, 7120, Note_on_c, 0, 76, 57
2, 7200, Note_on_c, 0, 76, 0
2, 7200, Note_on_c, 0, 77, 74
2, 7280, Note_on_c, 0, 77, 0
2, 7280, Note_on_c, 0, 71, 57
2, 7360, Note_on_c, 0, 71, 0
2, 7360, Note_on_c, 0, 86, 57
2, 7440, Note_on_c, 0, 86, 0
2, 7440, Note_on_c, 0, 89, 76
2, 7520, Note_on_c, 0, 89, 0
2, 7520, Note_on_c, 0, 77, 61
2, 7600, Note_on_c, 0, 77, 0
2, 7600, Note_on_c, 0, 83, 61
2, 7680, Note_on_c, 0, 83, 0
2, 7680, Note_on_c, 0, 85, 82
2, 7760, Note_on_c, 0, 85, 0
2, 7760, Note_on_c, 0, 76, 62
2, 7840, Note_on_c, 0, 76, 0
2, 7840, Note_on_c, 0, 88, 65
2, 7920, Note_on_c, 0, 88, 0
2, 7920, Note_on_c, 0, 93, 82
2, 8000, Note_on_c, 0, 93, 0
2, 8000, Note_on_c, 0, 81, 67
2, 8080, Note_on_c, 0, 81, 0
2, 8080, Note_on_c, 0, 86, 80
2, 8160, Note_on_c, 0, 86, 0
2, 8160, Note_on_c, 0, 98, 95
2, 8400, Note_on_c, 0, 98, 0
2, 8520, Note_on_c, 0, 57, 47
2, 8640, Note_on_c, 0, 57, 0
2, 8640, Note_on_c, 0, 58, 63
2, 8720, Note_on_c, 0, 58, 0
2, 8720, Note_on_c, 0, 52, 46
2, 8800, Note_on_c, 0, 52, 0
2, 8800, Note_on_c, 0, 61, 46
2, 8880, Note_on_c, 0, 61, 0
2, 8880, Note_on_c, 0, 64, 63
2, 8960, Note_on_c, 0, 64, 0
2, 8960, Note_on_c, 0, 55, 47
2, 9040, Note_on_c, 0, 55, 0
2, 9040, Note_on_c, 0, 57, 47
2, 9120, Note_on_c, 0, 57, 0
2, 9120, Note_on_c, 0, 58, 63
2, 9200, Note_on_c, 0, 58, 0
2, 9200, Note_on_c, 0, 53, 48
2, 9280, Note_on_c, 0, 53, 0
2, 9280, Note_on_c, 0, 62, 48
2, 9360, Note_on_c, 0, 62, 0
2, 9360, Note_on_c, 0, 65, 62
2, 9440, Note_on_c, 0, 65, 0
2, 9440, Note_on_c, 0, 57, 47
2, 9520, Note_on_c, 0, 57, 0
2, 9520, Note_on_c, 0, 60, 47
2, 9600, Note_on_c, 0, 60, 0
2, 9600, Note_on_c, 0, 61, 62
2, 9680, Note_on_c, 0, 61, 0
2, 9680, Note_on_c, 0, 55, 47
2, 9760, Note_on_c, 0, 55, 0
2, 9760, Note_on_c, 0, 64, 47
2, 9840, Note_on_c, 0, 64, 0
2, 9840, Note_on_c, 0, 67, 62
2, 9920, Note_on_c, 0, 67, 0
2, 9920, Note_on_c, 0, 58, 47
2, 10000, Note_on_c, 0, 58, 0
2, 10000, Note_on_c, 0, 62, 47
2, 10080, Note_on_c, 0, 62, 0
2, 10080, Note_on_c, 0, 63, 62
2, 10160, Note_on_c, 0, 63, 0
2, 10160, Note_on_c, 0, 57, 46
2, 10240, Note_on_c, 0, 57, 0
2, 10240, Note_on_c, 0, 69, 47
2, 10320, Note_on_c, 0, 69, 0
2, 10320, Note_on_c, 0, 72, 62
2, 10400, Note_on_c, 0, 72, 0
2, 10400, Note_on_c, 0, 60, 48
2, 10480, Note_on_c, 0, 60, 0
2, 10480, Note_on_c, 0, 62, 49
2, 10560, Note_on_c, 0, 62, 0
2, 10560, Note_on_c, 0, 63, 65
2, 10640, Note_on_c, 0, 63, 0
2, 10640, Note_on_c, 0, 58, 49
2, 10720, Note_on_c, 0, 58, 0
2, 10720, Note_on_c, 0, 67, 49
2, 10800, Note_on_c, 0, 67, 0
2, 10800, Note_on_c, 0, 70, 65
2, 10880, Note_on_c, 0, 70, 0
2, 10880, Note_on_c, 0, 62, 50
2, 10960, Note_on_c, 0, 62, 0
2, 10960, Note_on_c, 0, 64, 50
2, 11040, Note_on_c, 0, 64, 0
2, 11040, Note_on_c, 0, 65, 67
2, 11120, Note_on_c, 0, 65, 0
2, 11120, Note_on_c, 0, 59, 51
2, 11200, Note_on_c, 0, 59, 0
2, 11200, Note_on_c, 0, 71, 51
2, 11280, Note_on_c, 0, 71, 0
2, 11280, Note_on_c, 0, 74, 67
2, 11360, Note_on_c, 0, 74, 0
2, 11360, Note_on_c, 0, 65, 52
2, 11440, Note_on_c, 0, 65, 0
2, 11440, Note_on_c, 0, 67, 52
2, 11520, Note_on_c, 0, 67, 0
2, 11520, Note_on_c, 0, 68, 69
2, 11600, Note_on_c, 0, 68, 0
2, 11600, Note_on_c, 0, 62, 52
2, 11680, Note_on_c, 0, 62, 0
2, 11680, Note_on_c, 0, 74, 56
2, 11760, Note_on_c, 0, 74, 0
2, 11760, Note_on_c, 0, 77, 71
2, 11840, Note_on_c, 0, 77, 0
2, 11840, Note_on_c, 0, 65, 57
2, 11920, Note_on_c, 0, 65, 0
2, 11920, Note_on_c, 0, 68, 59
2, 12000, Note_on_c, 0, 68, 0
2, 12000, Note_on_c, 0, 69, 76
2, 12080, Note_on_c, 0, 69, 0
2, 12080, Note_on_c, 0, 64, 63
2, 12160, Note_on_c, 0, 64, 0
2, 12160, Note_on_c, 0, 73, 63
2, 12240, Note_on_c, 0, 73, 0
2, 12240, Note_on_c, 0, 76, 77
2, 12320, Note_on_c, 0, 76, 0
2, 12320, Note_on_c, 0, 67, 66
2, 12400, Note_on_c, 0, 67, 0
2, 12400, Note_on_c, 0, 69, 67
2, 12480, Note_on_c, 0, 69, 0
2, 12480, Note_on_c, 0, 70, 81
2, 12560, Note_on_c, 0, 70, 0
2, 12560, Note_on_c, 0, 64, 63
2, 12640, Note_on_c, 0, 64, 0
2, 12640, Note_on_c, 0, 73, 59
2, 12720, Note_on_c, 0, 73, 0
2, 12720, Note_on_c, 0, 76, 63
2, 12800, Note_on_c, 0, 76, 0
2, 12800, Note_on_c, 0, 67, 47
2, 12880, Note_on_c, 0, 67, 0
2, 12880, Note_on_c, 0, 69, 47
2, 12960, Note_on_c, 0, 69, 0
2, 12960, Note_on_c, 0, 70, 63
2, 13040, Note_on_c, 0, 70, 0
2, 13040, Note_on_c, 0, 65, 48
2, 13120, Note_on_c, 0, 65, 0
2, 13120, Note_on_c, 0, 74, 48
2, 13200, Note_on_c, 0, 74, 0
2, 13200, Note_on_c, 0, 77, 62
2, 13280, Note_on_c, 0, 77, 0
2, 13280, Note_on_c, 0, 69, 47
2, 13360, Note_on_c, 0, 69, 0
2, 13360, Note_on_c, 0, 72, 47
2, 13440, Note_on_c, 0, 72, 0
2, 13440, Note_on_c, 0, 73, 62
2, 13520, Note_on_c, 0, 73, 0
2, 13520, Note_on_c, 0, 67, 47
2, 13600, Note_on_c, 0, 67, 0
2, 13600, Note_on_c, 0, 76, 47
2, 13680, Note_on_c, 0, 76, 0
2, 13680, Note_on_c, 0, 79, 62
2, 13760, Note_on_c, 0, 79, 0
2, 13760, Note_on_c, 0, 70, 47
2, 13840, Note_on_c, 0, 70, 0
2, 13840, Note_on_c, 0, 74, 47
2, 13920, Note_on_c, 0, 74, 0
2, 13920, Note_on_c, 0, 75, 62
2, 14000, Note_on_c, 0, 75, 0
2, 14000, Note_on_c, 0, 69, 46
2, 14080, Note_on_c, 0, 69, 0
2, 14080, Note_on_c, 0, 81, 47
2, 14160, Note_on_c, 0, 81, 0
2, 14160, Note_on_c, 0, 84, 62
2, 14240, Note_on_c, 0, 84, 0
2, 14240, Note_on_c, 0, 72, 48
2, 14320, Note_on_c, 0, 72, 0
2, 14320, Note_on_c, 0, 74, 49
2, 14400, Note_on_c, 0, 74, 0
2, 14400, Note_on_c, 0, 75, 65
2, 14480, Note_on_c, 0, 75, 0
2, 14480, Note_on_c, 0, 70, 49
2, 14560, Note_on_c, 0, 70, 0
2, 14560, Note_on_c, 0, 79, 49
2, 14640, Note_on_c, 0, 79, 0
2, 14640, Note_on_c, 0, 82, 72
2, 14720, Note_on_c, 0, 82, 0
2, 14720, Note_on_c, 0, 74, 57
2, 14800, Note_on_c, 0, 74, 0
2, 14800, Note_on_c, 0, 76, 57
2, 14880, Note_on_c, 0, 76, 0
2, 14880, Note_on_c, 0, 77, 74
2, 14960, Note_on_c, 0, 77, 0
2, 14960, Note_on_c, 0, 71, 57
2, 15040, Note_on_c, 0, 71, 0
2, 15040, Note_on_c, 0, 86, 57
2, 15120, Note_on_c, 0, 86, 0
2, 15120, Note_on_c, 0, 89, 76
2, 15200, Note_on_c, 0, 89, 0
2, 15200, Note_on_c, 0, 77, 61
2, 15280, Note_on_c, 0, 77, 0
2, 15280, Note_on_c, 0, 83, 61
2, 15360, Note_on_c, 0, 83, 0
2, 15360, Note_on_c, 0, 85, 82
2, 15440, Note_on_c, 0, 85, 0
2, 15440, Note_on_c, 0, 76, 62
2, 15520, Note_on_c, 0, 76, 0
2, 15520, Note_on_c, 0, 88, 65
2, 15600, Note_on_c, 0, 88, 0
2, 15600, Note_on_c, 0, 93, 82
2, 15680, Note_on_c, 0, 93, 0
2, 15680, Note_on_c, 0, 81, 67
2, 15760, Note_on_c, 0, 81, 0
2, 15760, Note_on_c, 0, 86, 80
2, 15840, Note_on_c, 0, 86, 0
2, 15840, Note_on_c, 0, 98, 95
2, 16080, Note_on_c, 0, 98, 0
2, 16160, Note_on_c, 0, 77, 74
2, 16240, Note_on_c, 0, 77, 0
2, 16240, Note_on_c, 0, 81, 74
2, 16320, Note_on_c, 0, 81, 0
2, 16320, Note_on_c, 0, 82, 82
2, 16400, Note_on_c, 0, 82, 0
2, 16400, Note_on_c, 0, 77, 76
2, 16480, Note_on_c, 0, 77, 0
2, 16480, Note_on_c, 0, 86, 72
2, 16560, Note_on_c, 0, 86, 0
2, 16560, Note_on_c, 0, 89, 87
2, 16640, Note_on_c, 0, 89, 0
2, 16640, Note_on_c, 0, 77, 81
2, 16720, Note_on_c, 0, 77, 0
2, 16720, Note_on_c, 0, 81, 84
2, 16800, Note_on_c, 0, 81, 0
2, 16800, Note_on_c, 0, 82, 93
2, 16880, Note_on_c, 0, 82, 0
2, 16880, Note_on_c, 0, 76, 81
2, 16960, Note_on_c, 0, 76, 0
2, 16960, Note_on_c, 0, 80, 74
2, 17040, Note_on_c, 0, 80, 0
2, 17040, Note_on_c, 0, 81, 82
2, 17120, Note_on_c, 0, 81, 0
2, 17120, Note_on_c, 0, 77, 71
2, 17200, Note_on_c, 0, 77, 0
2, 17200, Note_on_c, 0, 81, 66
2, 17280, Note_on_c, 0, 81, 0
2, 17280, Note_on_c, 0, 82, 82
2, 17360, Note_on_c, 0, 82, 0
2, 17360, Note_on_c, 0, 77, 76
2, 17440, Note_on_c, 0, 77, 0
2, 17440, Note_on_c, 0, 86, 72
2, 17520, Note_on_c, 0, 86, 0
2, 17520, Note_on_c, 0, 89, 87
2, 17600, Note_on_c, 0, 89, 0
2, 17600, Note_on_c, 0, 77, 81
2, 17680, Note_on_c, 0, 77, 0
2, 17680, Note_on_c, 0, 81, 84
2, 17760, Note_on_c, 0, 81, 0
2, 17760, Note_on_c, 0, 82, 93
2, 17840, Note_on_c, 0, 82, 0
2, 17840, Note_on_c, 0, 76, 81
2, 17920, Note_on_c, 0, 76, 0
2, 17920, Note_on_c, 0, 80, 69
2, 18000, Note_on_c, 0, 80, 0
2, 18000, Note_on_c, 0, 81, 82
2, 18080, Note_on_c, 0, 81, 0
2, 18080, Note_on_c, 0, 76, 71
2, 18160, Note_on_c, 0, 76, 0
2, 18160, Note_on_c, 0, 81, 62
2, 18240, Note_on_c, 0, 81, 0
2, 18240, Note_on_c, 0, 86, 82
2, 18320, Note_on_c, 0, 86, 0
2, 18320, Note_on_c, 0, 74, 71
2, 18400, Note_on_c, 0, 74, 0
2, 18400, Note_on_c, 0, 79, 61
2, 18480, Note_on_c, 0, 79, 0
2, 18480, Note_on_c, 0, 81, 80
2, 18560, Note_on_c, 0, 81, 0
2, 18560, Note_on_c, 0, 74, 72
2, 18640, Note_on_c, 0, 74, 0
2, 18640, Note_on_c, 0, 79, 65
2, 18720, Note_on_c, 0, 79, 0
2, 18720, Note_on_c, 0, 84, 77
2, 18800, Note_on_c, 0, 84, 0
2, 18800, Note_on_c, 0, 72, 67
2, 18880, Note_on_c, 0, 72, 0
2, 18880, Note_on_c, 0, 77, 63
2, 18960, Note_on_c, 0, 77, 0
2, 18960, Note_on_c, 0, 79, 67
2, 19040, Note_on_c, 0, 79, 0
2, 19040, Note_on_c, 0, 72, 59
2, 19120, Note_on_c, 0, 72, 0
2, 19120, Note_on_c, 0, 77, 52
2, 19200, Note_on_c, 0, 77, 0
2, 19200, Note_on_c, 0, 82, 72
2, 19280, Note_on_c, 0, 82, 0
2, 19280, Note_on_c, 0, 70, 66
2, 19360, Note_on_c, 0, 70, 0
2, 19360, Note_on_c, 0, 76, 59
2, 19440, Note_on_c, 0, 76, 0
2, 19440, Note_on_c, 0, 77, 69
2, 19520, Note_on_c, 0, 77, 0
2, 19520, Note_on_c, 0, 70, 60
2, 19600, Note_on_c, 0, 70, 0
2, 19600, Note_on_c, 0, 76, 52
2, 19680, Note_on_c, 0, 76, 0
2, 19680, Note_on_c, 0, 81, 68
2, 19760, Note_on_c, 0, 81, 0
2, 19760, Note_on_c, 0, 69, 59
2, 19840, Note_on_c, 0, 69, 0
2, 19840, Note_on_c, 0, 74, 52
2, 19920, Note_on_c, 0, 74, 0
2, 19920, Note_on_c, 0, 76, 65
2, 20000, Note_on_c, 0, 76, 0
2, 20000, Note_on_c, 0, 69, 54
2, 20080, Note_on_c, 0, 69, 0
2, 20080, Note_on_c, 0, 74, 48
2, 20160, Note_on_c, 0, 74, 0
2, 20160, Note_on_c, 0, 75, 73
2, 20240, Note_on_c, 0, 75, 0
2, 20240, Note_on_c, 0, 70, 68
2, 20320, Note_on_c, 0, 70, 0
2, 20320, Note_on_c, 0, 79, 65
2, 20400, Note_on_c, 0, 79, 0
2, 20400, Note_on_c, 0, 82, 77
2, 20480, Note_on_c, 0, 82, 0
2, 20480, Note_on_c, 0, 70, 72
2, 20560, Note_on_c, 0, 70, 0
2, 20560, Note_on_c, 0, 74, 76
2, 20640, Note_on_c, 0, 74, 0
2, 20640, Note_on_c, 0, 79, 83
2, 20720, Note_on_c, 0, 79, 0
2, 20720, Note_on_c, 0, 70, 72
2, 20800, Note_on_c, 0, 70, 0
2, 20800, Note_on_c, 0, 74, 67
2, 20880, Note_on_c, 0, 74, 0
2, 20880, Note_on_c, 0, 75, 73
2, 20960, Note_on_c, 0, 75, 0
2, 20960, Note_on_c, 0, 70, 63
2, 21040, Note_on_c, 0, 70, 0
2, 21040, Note_on_c, 0, 74, 57
2, 21120, Note_on_c, 0, 74, 0
2, 21120, Note_on_c, 0, 75, 73
2, 21200, Note_on_c, 0, 75, 0
2, 21200, Note_on_c, 0, 70, 68
2, 21280, Note_on_c, 0, 70, 0
2, 21280, Note_on_c, 0, 79, 65
2, 21360, Note_on_c, 0, 79, 0
2, 21360, Note_on_c, 0, 82, 77
2, 21440, Note_on_c, 0, 82, 0
2, 21440, Note_on_c, 0, 70, 72
2, 21520, Note_on_c, 0, 70, 0
2, 21520, Note_on_c, 0, 74, 76
2, 21600, Note_on_c, 0, 74, 0
2, 21600, Note_on_c, 0, 79, 83
2, 21680, Note_on_c, 0, 79, 0
2, 21680, Note_on_c, 0, 70, 72
2, 21760, Note_on_c, 0, 70, 0
2, 21760, Note_on_c, 0, 74, 67
2, 21840, Note_on_c, 0, 74, 0
2, 21840, Note_on_c, 0, 75, 73
2, 21920, Note_on_c, 0, 75, 0
2, 21920, Note_on_c, 0, 71, 63
2, 22000, Note_on_c, 0, 71, 0
2, 22000, Note_on_c, 0, 75, 57
2, 22080, Note_on_c, 0, 75, 0
2, 22080, Note_on_c, 0, 78, 76
2, 22160, Note_on_c, 0, 78, 0
2, 22160, Note_on_c, 0, 66, 63
2, 22240, Note_on_c, 0, 66, 0
2, 22240, Note_on_c, 0, 71, 69
2, 22320, Note_on_c, 0, 71, 0
2, 22320, Note_on_c, 0, 75, 76
2, 22400, Note_on_c, 0, 75, 0
2, 22400, Note_on_c, 0, 63, 66
2, 22480, Note_on_c, 0, 63, 0
2, 22480, Note_on_c, 0, 66, 59
2, 22560, Note_on_c, 0, 66, 0
2, 22560, Note_on_c, 0, 71, 73
2, 22640, Note_on_c, 0, 71, 0
2, 22640, Note_on_c, 0, 61, 65
2, 22720, Note_on_c, 0, 61, 0
2, 22720, Note_on_c, 0, 67, 57
2, 22800, Note_on_c, 0, 67, 0
2, 22800, Note_on_c, 0, 70, 69
2, 22880, Note_on_c, 0, 70, 0
2, 22880, Note_on_c, 0, 60, 59
2, 22960, Note_on_c, 0, 60, 0
2, 22960, Note_on_c, 0, 63, 51
2, 23040, Note_on_c, 0, 63, 0
2, 23040, Note_on_c, 0, 69, 67
2, 23120, Note_on_c, 0, 69, 0
2, 23120, Note_on_c, 0, 58, 57
2, 23200, Note_on_c, 0, 58, 0
2, 23200, Note_on_c, 0, 62, 52
2, 23280, Note_on_c, 0, 62, 0
2, 23280, Note_on_c, 0, 67, 74
2, 23360, Note_on_c, 0, 67, 0
2, 23360, Note_on_c, 0, 59, 57
2, 23440, Note_on_c, 0, 59, 0
2, 23440, Note_on_c, 0, 62, 52
2, 23520, Note_on_c, 0, 62, 0
2, 23520, Note_on_c, 0, 65, 76
2, 23600, Note_on_c, 0, 65, 0
2, 23600, Note_on_c, 0, 57, 62
2, 23680, Note_on_c, 0, 57, 0
2, 23680, Note_on_c, 0, 61, 55
2, 23760, Note_on_c, 0, 61, 0
2, 23760, Note_on_c, 0, 64, 76
2, 23840, Note_on_c, 0, 64, 0
2, 23840, Note_on_c, 0, 55, 61
2, 23920, Note_on_c, 0, 55, 0
2, 23920, Note_on_c, 0, 57, 56
2, 24000, Note_on_c, 0, 57, 0
2, 24000, Note_on_c, 0, 58, 77
2, 24080, Note_on_c, 0, 58, 0
2, 24080, Note_on_c, 0, 52, 57
2, 24160, Note_on_c, 0, 52, 0
2, 24160, Note_on_c, 0, 61, 51
2, 24240, Note_on_c, 0, 61, 0
2, 24240, Note_on_c, 0, 64, 63
2, 24320, Note_on_c, 0, 64, 0
2, 24320, Note_on_c, 0, 55, 47
2, 24400, Note_on_c, 0, 55, 0
2, 24400, Note_on_c, 0, 57, 47
2, 24480, Note_on_c, 0, 57, 0
2, 24480, Note_on_c, 0, 58, 63
2, 24560, Note_on_c, 0, 58, 0
2, 24560, Note_on_c, 0, 53, 48
2, 24640, Note_on_c, 0, 53, 0
2, 24640, Note_on_c, 0, 62, 42
2, 24720, Note_on_c, 0, 62, 0
2, 24720, Note_on_c, 0, 65, 62
2, 24800, Note_on_c, 0, 65, 0
2, 24800, Note_on_c, 0, 57, 47
2, 24880, Note_on_c, 0, 57, 0
2, 24880, Note_on_c, 0, 60, 42
2, 24960, Note_on_c, 0, 60, 0
2, 24960, Note_on_c, 0, 61, 62
2, 25040, Note_on_c, 0, 61, 0
2, 25040, Note_on_c, 0, 55, 47
2, 25120, Note_on_c, 0, 55, 0
2, 25120, Note_on_c, 0, 64, 47
2, 25200, Note_on_c, 0, 64, 0
2, 25200, Note_on_c, 0, 67, 62
2, 25280, Note_on_c, 0, 67, 0
2, 25280, Note_on_c, 0, 58, 47
2, 25360, Note_on_c, 0, 58, 0
2, 25360, Note_on_c, 0, 62, 42
2, 25440, Note_on_c, 0, 62, 0
2, 25440, Note_on_c, 0, 63, 62
2, 25520, Note_on_c, 0, 63, 0
2, 25520, Note_on_c, 0, 57, 46
2, 25600, Note_on_c, 0, 57, 0
2, 25600, Note_on_c, 0, 69, 47
2, 25680, Note_on_c, 0, 69, 0
2, 25680, Note_on_c, 0, 72, 62
2, 25760, Note_on_c, 0, 72, 0
2, 25760, Note_on_c, 0, 60, 48
2, 25840, Note_on_c, 0, 60, 0
2, 25840, Note_on_c, 0, 62, 49
2, 25920, Note_on_c, 0, 62, 0
2, 25920, Note_on_c, 0, 63, 65
2, 26000, Note_on_c, 0, 63, 0
2, 26000, Note_on_c, 0, 58, 49
2, 26080, Note_on_c, 0, 58, 0
2, 26080, Note_on_c, 0, 67, 44
2, 26160, Note_on_c, 0, 67, 0
2, 26160, Note_on_c, 0, 70, 65
2, 26240, Note_on_c, 0, 70, 0
2, 26240, Note_on_c, 0, 62, 50
2, 26320, Note_on_c, 0, 62, 0
2, 26320, Note_on_c, 0, 64, 45
2, 26400, Note_on_c, 0, 64, 0
2, 26400, Note_on_c, 0, 65, 67
2, 26480, Note_on_c, 0, 65, 0
2, 26480, Note_on_c, 0, 59, 51
2, 26560, Note_on_c, 0, 59, 0
2, 26560, Note_on_c, 0, 71, 48
2, 26640, Note_on_c, 0, 71, 0
2, 26640, Note_on_c, 0, 74, 67
2, 26720, Note_on_c, 0, 74, 0
2, 26720, Note_on_c, 0, 65, 52
2, 26800, Note_on_c, 0, 65, 0
2, 26800, Note_on_c, 0, 67, 47
2, 26880, Note_on_c, 0, 67, 0
2, 26880, Note_on_c, 0, 68, 69
2, 26960, Note_on_c, 0, 68, 0
2, 26960, Note_on_c, 0, 62, 52
2, 27040, Note_on_c, 0, 62, 0
2, 27040, Note_on_c, 0, 74, 54
2, 27120, Note_on_c, 0, 74, 0
2, 27120, Note_on_c, 0, 77, 71
2, 27200, Note_on_c, 0, 77, 0
2, 27200, Note_on_c, 0, 65, 57
2, 27280, Note_on_c, 0, 65, 0
2, 27280, Note_on_c, 0, 68, 59
2, 27360, Note_on_c, 0, 68, 0
2, 27360, Note_on_c, 0, 69, 76
2, 27440, Note_on_c, 0, 69, 0
2, 27440, Note_on_c, 0, 64, 63
2, 27520, Note_on_c, 0, 64, 0
2, 27520, Note_on_c, 0, 73, 63
2, 27600, Note_on_c, 0, 73, 0
2, 27600, Note_on_c, 0, 76, 77
2, 27680, Note_on_c, 0, 76, 0
2, 27680, Note_on_c, 0, 67, 66
2, 27760, Note_on_c, 0, 67, 0
2, 27760, Note_on_c, 0, 69, 67
2, 27840, Note_on_c, 0, 69, 0
2, 27840, Note_on_c, 0, 70, 81
2, 27920, Note_on_c, 0, 70, 0
2, 27920, Note_on_c, 0, 64, 63
2, 28000, Note_on_c, 0, 64, 0
2, 28000, Note_on_c, 0, 73, 59
2, 28080, Note_on_c, 0, 73, 0
2, 28080, Note_on_c, 0, 76, 72
2, 28160, Note_on_c, 0, 76, 0
2, 28160, Note_on_c, 0, 67, 52
2, 28240, Note_on_c, 0, 67, 0
2, 28240, Note_on_c, 0, 69, 52
2, 28320, Note_on_c, 0, 69, 0
2, 28320, Note_on_c, 0, 70, 73
2, 28400, Note_on_c, 0, 70, 0
2, 28400, Note_on_c, 0, 65, 55
2, 28480, Note_on_c, 0, 65, 0
2, 28480, Note_on_c, 0, 74, 55
2, 28560, Note_on_c, 0, 74, 0
2, 28560, Note_on_c, 0, 77, 70
2, 28640, Note_on_c, 0, 77, 0
2, 28640, Note_on_c, 0, 69, 54
2, 28720, Note_on_c, 0, 69, 0
2, 28720, Note_on_c, 0, 72, 55
2, 28800, Note_on_c, 0, 72, 0
2, 28800, Note_on_c, 0, 73, 74
2, 28880, Note_on_c, 0, 73, 0
2, 28880, Note_on_c, 0, 67, 54
2, 28960, Note_on_c, 0, 67, 0
2, 28960, Note_on_c, 0, 76, 55
2, 29040, Note_on_c, 0, 76, 0
2, 29040, Note_on_c, 0, 79, 72
2, 29120, Note_on_c, 0, 79, 0
2, 29120, Note_on_c, 0, 70, 54
2, 29200, Note_on_c, 0, 70, 0
2, 29200, Note_on_c, 0, 74, 54
2, 29280, Note_on_c, 0, 74, 0
2, 29280, Note_on_c, 0, 75, 73
2, 29360, Note_on_c, 0, 75, 0
2, 29360, Note_on_c, 0, 69, 52
2, 29440, Note_on_c, 0, 69, 0
2, 29440, Note_on_c, 0, 81, 54
2, 29520, Note_on_c, 0, 81, 0
2, 29520, Note_on_c, 0, 84, 71
2, 29600, Note_on_c, 0, 84, 0
2, 29600, Note_on_c, 0, 72, 52
2, 29680, Note_on_c, 0, 72, 0
2, 29680, Note_on_c, 0, 74, 55
2, 29760, Note_on_c, 0, 74, 0
2, 29760, Note_on_c, 0, 75, 72
2, 29840, Note_on_c, 0, 75, 0
2, 29840, Note_on_c, 0, 70, 57
2, 29920, Note_on_c, 0, 70, 0
2, 29920, Note_on_c, 0, 79, 57
2, 30000, Note_on_c, 0, 79, 0
2, 30000, Note_on_c, 0, 82, 74
2, 30080, Note_on_c, 0, 82, 0
2, 30080, Note_on_c, 0, 74, 57
2, 30160, Note_on_c, 0, 74, 0
2, 30160, Note_on_c, 0, 76, 57
2, 30240, Note_on_c, 0, 76, 0
2, 30240, Note_on_c, 0, 77, 79
2, 30320, Note_on_c, 0, 77, 0
2, 30320, Note_on_c, 0, 71, 57
2, 30400, Note_on_c, 0, 71, 0
2, 30400, Note_on_c, 0, 86, 57
2, 30480, Note_on_c, 0, 86, 0
2, 30480, Note_on_c, 0, 89, 79
2, 30560, Note_on_c, 0, 89, 0
2, 30560, Note_on_c, 0, 77, 61
2, 30640, Note_on_c, 0, 77, 0
2, 30640, Note_on_c, 0, 83, 61
2, 30720, Note_on_c, 0, 83, 0
2, 30720, Note_on_c, 0, 85, 82
2, 30800, Note_on_c, 0, 85, 0
2, 30800, Note_on_c, 0, 76, 62
2, 30880, Note_on_c, 0, 76, 0
2, 30880, Note_on_c, 0, 88, 65
2, 30960, Note_on_c, 0, 88, 0
2, 30960, Note_on_c, 0, 93, 82
2, 31040, Note_on_c, 0, 93, 0
2, 31040, Note_on_c, 0, 81, 67
2, 31120, Note_on_c, 0, 81, 0
2, 31120, Note_on_c, 0, 86, 80
2, 31200, Note_on_c, 0, 86, 0
2, 31200, Note_on_c, 0, 98, 95
2, 31440, Note_on_c, 0, 98, 0
2, 31520, Note_on_c, 0, 77, 74
2, 31600, Note_on_c, 0, 77, 0
2, 31600, Note_on_c, 0, 81, 74
2, 31680, Note_on_c, 0, 81, 0
2, 31680, Note_on_c, 0, 82, 82
2, 31760, Note_on_c, 0, 82, 0
2, 31760, Note_on_c, 0, 77, 76
2, 31840, Note_on_c, 0, 77, 0
2, 31840, Note_on_c, 0, 86, 68
2, 31920, Note_on_c, 0, 86, 0
2, 31920, Note_on_c, 0, 89, 87
2, 32000, Note_on_c, 0, 89, 0
2, 32000, Note_on_c, 0, 77, 81
2, 32080, Note_on_c, 0, 77, 0
2, 32080, Note_on_c, 0, 81, 84
2, 32160, Note_on_c, 0, 81, 0
2, 32160, Note_on_c, 0, 82, 93
2, 32240, Note_on_c, 0, 82, 0
2, 32240, Note_on_c, 0, 76, 74
2, 32320, Note_on_c, 0, 76, 0
2, 32320, Note_on_c, 0, 80, 70
2, 32400, Note_on_c, 0, 80, 0
2, 32400, Note_on_c, 0, 81, 82
2, 32480, Note_on_c, 0, 81, 0
2, 32480, Note_on_c, 0, 77, 71
2, 32560, Note_on_c, 0, 77, 0
2, 32560, Note_on_c, 0, 81, 62
2, 32640, Note_on_c, 0, 81, 0
2, 32640, Note_on_c, 0, 82, 82
2, 32720, Note_on_c, 0, 82, 0
2, 32720, Note_on_c, 0, 77, 76
2, 32800, Note_on_c, 0, 77, 0
2, 32800, Note_on_c, 0, 86, 72
2, 32880, Note_on_c, 0, 86, 0
2, 32880, Note_on_c, 0, 89, 87
2, 32960, Note_on_c, 0, 89, 0
2, 32960, Note_on_c, 0, 77, 81
2, 33040, Note_on_c, 0, 77, 0
2, 33040, Note_on_c, 0, 81, 84
2, 33120, Note_on_c, 0, 81, 0
2, 33120, Note_on_c, 0, 82, 93
2, 33200, Note_on_c, 0, 82, 0
2, 33200, Note_on_c, 0, 76, 81
2, 33280, Note_on_c, 0, 76, 0
2, 33280, Note_on_c, 0, 80, 74
2, 33360, Note_on_c, 0, 80, 0
2, 33360, Note_on_c, 0, 81, 82
2, 33440, Note_on_c, 0, 81, 0
2, 33440, Note_on_c, 0, 76, 71
2, 33520, Note_on_c, 0, 76, 0
2, 33520, Note_on_c, 0, 81, 66
2, 33600, Note_on_c, 0, 81, 0
2, 33600, Note_on_c, 0, 86, 82
2, 33680, Note_on_c, 0, 86, 0
2, 33680, Note_on_c, 0, 74, 71
2, 33760, Note_on_c, 0, 74, 0
2, 33760, Note_on_c, 0, 79, 59
2, 33840, Note_on_c, 0, 79, 0
2, 33840, Note_on_c, 0, 81, 80
2, 33920, Note_on_c, 0, 81, 0
2, 33920, Note_on_c, 0, 74, 70
2, 34000, Note_on_c, 0, 74, 0
2, 34000, Note_on_c, 0, 79, 62
2, 34080, Note_on_c, 0, 79, 0
2, 34080, Note_on_c, 0, 84, 77
2, 34160, Note_on_c, 0, 84, 0
2, 34160, Note_on_c, 0, 72, 67
2, 34240, Note_on_c, 0, 72, 0
2, 34240, Note_on_c, 0, 77, 59
2, 34320, Note_on_c, 0, 77, 0
2, 34320, Note_on_c, 0, 79, 73
2, 34400, Note_on_c, 0, 79, 0
2, 34400, Note_on_c, 0, 72, 61
2, 34480, Note_on_c, 0, 72, 0
2, 34480, Note_on_c, 0, 77, 54
2, 34560, Note_on_c, 0, 77, 0
2, 34560, Note_on_c, 0, 82, 72
2, 34640, Note_on_c, 0, 82, 0
2, 34640, Note_on_c, 0, 70, 66
2, 34720, Note_on_c, 0, 70, 0
2, 34720, Note_on_c, 0, 76, 53
2, 34800, Note_on_c, 0, 76, 0
2, 34800, Note_on_c, 0, 77, 69
2, 34880, Note_on_c, 0, 77, 0
2, 34880, Note_on_c, 0, 70, 60
2, 34960, Note_on_c, 0, 70, 0
2, 34960, Note_on_c, 0, 76, 54
2, 35040, Note_on_c, 0, 76, 0
2, 35040, Note_on_c, 0, 81, 68
2, 35120, Note_on_c, 0, 81, 0
2, 35120, Note_on_c, 0, 69, 59
2, 35200, Note_on_c, 0, 69, 0
2, 35200, Note_on_c, 0, 74, 52
2, 35280, Note_on_c, 0, 74, 0
2, 35280, Note_on_c, 0, 76, 65
2, 35360, Note_on_c, 0, 76, 0
2, 35360, Note_on_c, 0, 69, 54
2, 35440, Note_on_c, 0, 69, 0
2, 35440, Note_on_c, 0, 74, 48
2, 35520, Note_on_c, 0, 74, 0
2, 35520, Note_on_c, 0, 75, 73
2, 35600, Note_on_c, 0, 75, 0
2, 35600, Note_on_c, 0, 70, 68
2, 35680, Note_on_c, 0, 70, 0
2, 35680, Note_on_c, 0, 79, 65
2, 35760, Note_on_c, 0, 79, 0
2, 35760, Note_on_c, 0, 82, 77
2, 35840, Note_on_c, 0, 82, 0
2, 35840, Note_on_c, 0, 70, 72
2, 35920, Note_on_c, 0, 70, 0
2, 35920, Note_on_c, 0, 74, 76
2, 36000, Note_on_c, 0, 74, 0
2, 36000, Note_on_c, 0, 79, 83
2, 36080, Note_on_c, 0, 79, 0
2, 36080, Note_on_c, 0, 70, 72
2, 36160, Note_on_c, 0, 70, 0
2, 36160, Note_on_c, 0, 74, 67
2, 36240, Note_on_c, 0, 74, 0
2, 36240, Note_on_c, 0, 75, 73
2, 36320, Note_on_c, 0, 75, 0
2, 36320, Note_on_c, 0, 70, 66
2, 36400, Note_on_c, 0, 70, 0
2, 36400, Note_on_c, 0, 74, 57
2, 36480, Note_on_c, 0, 74, 0
2, 36480, Note_on_c, 0, 75, 73
2, 36560, Note_on_c, 0, 75, 0
2, 36560, Note_on_c, 0, 70, 68
2, 36640, Note_on_c, 0, 70, 0
2, 36640, Note_on_c, 0, 79, 65
2, 36720, Note_on_c, 0, 79, 0
2, 36720, Note_on_c, 0, 82, 77
2, 36800, Note_on_c, 0, 82, 0
2, 36800, Note_on_c, 0, 70, 72
2, 36880, Note_on_c, 0, 70, 0
2, 36880, Note_on_c, 0, 74, 76
2, 36960, Note_on_c, 0, 74, 0
2, 36960, Note_on_c, 0, 79, 83
2, 37040, Note_on_c, 0, 79, 0
2, 37040, Note_on_c, 0, 70, 72
2, 37120, Note_on_c, 0, 70, 0
2, 37120, Note_on_c, 0, 74, 67
2, 37200, Note_on_c, 0, 74, 0
2, 37200, Note_on_c, 0, 75, 73
2, 37280, Note_on_c, 0, 75, 0
2, 37280, Note_on_c, 0, 71, 63
2, 37360, Note_on_c, 0, 71, 0
2, 37360, Note_on_c, 0, 75, 57
2, 37440, Note_on_c, 0, 75, 0
2, 37440, Note_on_c, 0, 78, 76
2, 37520, Note_on_c, 0, 78, 0
2, 37520, Note_on_c, 0, 66, 63
2, 37600, Note_on_c, 0, 66, 0
2, 37600, Note_on_c, 0, 71, 69
2, 37680, Note_on_c, 0, 71, 0
2, 37680, Note_on_c, 0, 75, 76
2, 37760, Note_on_c, 0, 75, 0
2, 37760, Note_on_c, 0, 63, 66
2, 37840, Note_on_c, 0, 63, 0
2, 37840, Note_on_c, 0, 66, 66
2, 37920, Note_on_c, 0, 66, 0
2, 37920, Note_on_c, 0, 71, 73
2, 38000, Note_on_c, 0, 71, 0
2, 38000, Note_on_c, 0, 61, 62
2, 38080, Note_on_c, 0, 61, 0
2, 38080, Note_on_c, 0, 67, 57
2, 38160, Note_on_c, 0, 67, 0
2, 38160, Note_on_c, 0, 70, 69
2, 38240, Note_on_c, 0, 70, 0
2, 38240, Note_on_c, 0, 60, 59
2, 38320, Note_on_c, 0, 60, 0
2, 38320, Note_on_c, 0, 63, 55
2, 38400, Note_on_c, 0, 63, 0
2, 38400, Note_on_c, 0, 69, 67
2, 38480, Note_on_c, 0, 69, 0
2, 38480, Note_on_c, 0, 58, 57
2, 38560, Note_on_c, 0, 58, 0
2, 38560, Note_on_c, 0, 62, 52
2, 38640, Note_on_c, 0, 62, 0
2, 38640, Note_on_c, 0, 67, 74
2, 38720, Note_on_c, 0, 67, 0
2, 38720, Note_on_c, 0, 59, 57
2, 38800, Note_on_c, 0, 59, 0
2, 38800, Note_on_c, 0, 62, 52
2, 38880, Note_on_c, 0, 62, 0
2, 38880, Note_on_c, 0, 65, 76
2, 38960, Note_on_c, 0, 65, 0
2, 38960, Note_on_c, 0, 57, 62
2, 39040, Note_on_c, 0, 57, 0
2, 39040, Note_on_c, 0, 61, 57
2, 39120, Note_on_c, 0, 61, 0
2, 39120, Note_on_c, 0, 64, 76
2, 39200, Note_on_c, 0, 64, 0
2, 39200, Note_on_c, 0, 55, 61
2, 39280, Note_on_c, 0, 55, 0
2, 39280, Note_on_c, 0, 57, 55
2, 39360, Note_on_c, 0, 57, 0
2, 39360, Note_on_c, 0, 58, 77
2, 39440, Note_on_c, 0, 58, 0
2, 39440, Note_on_c, 0, 52, 57
2, 39520, Note_on_c, 0, 52, 0
2, 39520, Note_on_c, 0, 61, 51
2, 39600, Note_on_c, 0, 61, 0
2, 39600, Note_on_c, 0, 64, 63
2, 39680, Note_on_c, 0, 64, 0
2, 39680, Note_on_c, 0, 55, 47
2, 39760, Note_on_c, 0, 55, 0
2, 39760, Note_on_c, 0, 57, 47
2, 39840, Note_on_c, 0, 57, 0
2, 39840, Note_on_c, 0, 58, 63
2, 39920, Note_on_c, 0, 58, 0
2, 39920, Note_on_c, 0, 53, 48
2, 40000, Note_on_c, 0, 53, 0
2, 40000, Note_on_c, 0, 62, 48
2, 40080, Note_on_c, 0, 62, 0
2, 40080, Note_on_c, 0, 65, 62
2, 40160, Note_on_c, 0, 65, 0
2, 40160, Note_on_c, 0, 57, 47
2, 40240, Note_on_c, 0, 57, 0
2, 40240, Note_on_c, 0, 60, 47
2, 40320, Note_on_c, 0, 60, 0
2, 40320, Note_on_c, 0, 61, 62
2, 40400, Note_on_c, 0, 61, 0
2, 40400, Note_on_c, 0, 55, 47
2, 40480, Note_on_c, 0, 55, 0
2, 40480, Note_on_c, 0, 64, 47
2, 40560, Note_on_c, 0, 64, 0
2, 40560, Note_on_c, 0, 67, 62
2, 40640, Note_on_c, 0, 67, 0
2, 40640, Note_on_c, 0, 58, 68
2, 40720, Note_on_c, 0, 58, 0
2, 40720, Note_on_c, 0, 62, 47
2, 40800, Note_on_c, 0, 62, 0
2, 40800, Note_on_c, 0, 63, 62
2, 40880, Note_on_c, 0, 63, 0
2, 40880, Note_on_c, 0, 57, 46
2, 40960, Note_on_c, 0, 57, 0
2, 40960, Note_on_c, 0, 69, 47
2, 41040, Note_on_c, 0, 69, 0
2, 41040, Note_on_c, 0, 72, 62
2, 41120, Note_on_c, 0, 72, 0
2, 41120, Note_on_c, 0, 60, 48
2, 41200, Note_on_c, 0, 60, 0
2, 41200, Note_on_c, 0, 62, 49
2, 41280, Note_on_c, 0, 62, 0
2, 41280, Note_on_c, 0, 63, 65
2, 41360, Note_on_c, 0, 63, 0
2, 41360, Note_on_c, 0, 58, 49
2, 41440, Note_on_c, 0, 58, 0
2, 41440, Note_on_c, 0, 67, 49
2, 41520, Note_on_c, 0, 67, 0
2, 41520, Note_on_c, 0, 70, 65
2, 41600, Note_on_c, 0, 70, 0
2, 41600, Note_on_c, 0, 62, 50
2, 41680, Note_on_c, 0, 62, 0
2, 41680, Note_on_c, 0, 64, 50
2, 41760, Note_on_c, 0, 64, 0
2, 41760, Note_on_c, 0, 65, 67
2, 41840, Note_on_c, 0, 65, 0
2, 41840, Note_on_c, 0, 59, 51
2, 41920, Note_on_c, 0, 59, 0
2, 41920, Note_on_c, 0, 71, 51
2, 42000, Note_on_c, 0, 71, 0
2, 42000, Note_on_c, 0, 74, 67
2, 42080, Note_on_c, 0, 74, 0
2, 42080, Note_on_c, 0, 65, 52
2, 42160, Note_on_c, 0, 65, 0
2, 42160, Note_on_c, 0, 67, 52
2, 42240, Note_on_c, 0, 67, 0
2, 42240, Note_on_c, 0, 68, 69
2, 42320, Note_on_c, 0, 68, 0
2, 42320, Note_on_c, 0, 62, 52
2, 42400, Note_on_c, 0, 62, 0
2, 42400, Note_on_c, 0, 74, 56
2, 42480, Note_on_c, 0, 74, 0
2, 42480, Note_on_c, 0, 77, 71
2, 42560, Note_on_c, 0, 77, 0
2, 42560, Note_on_c, 0, 65, 57
2, 42640, Note_on_c, 0, 65, 0
2, 42640, Note_on_c, 0, 68, 59
2, 42720, Note_on_c, 0, 68, 0
2, 42720, Note_on_c, 0, 69, 76
2, 42800, Note_on_c, 0, 69, 0
2, 42800, Note_on_c, 0, 64, 63
2, 42880, Note_on_c, 0, 64, 0
2, 42880, Note_on_c, 0, 73, 63
2, 42960, Note_on_c, 0, 73, 0
2, 42960, Note_on_c, 0, 76, 77
2, 43040, Note_on_c, 0, 76, 0
2, 43040, Note_on_c, 0, 67, 66
2, 43120, Note_on_c, 0, 67, 0
2, 43120, Note_on_c, 0, 69, 67
2, 43200, Note_on_c, 0, 69, 0
2, 43200, Note_on_c, 0, 70, 81
2, 43280, Note_on_c, 0, 70, 0
2, 43280, Note_on_c, 0, 64, 63
2, 43360, Note_on_c, 0, 64, 0
2, 43360, Note_on_c, 0, 73, 59
2, 43440, Note_on_c, 0, 73, 0
2, 43440, Note_on_c, 0, 76, 72
2, 43520, Note_on_c, 0, 76, 0
2, 43520, Note_on_c, 0, 67, 52
2, 43600, Note_on_c, 0, 67, 0
2, 43600, Note_on_c, 0, 69, 52
2, 43680, Note_on_c, 0, 69, 0
2, 43680, Note_on_c, 0, 70, 73
2, 43760, Note_on_c, 0, 70, 0
2, 43760, Note_on_c, 0, 65, 55
2, 43840, Note_on_c, 0, 65, 0
2, 43840, Note_on_c, 0, 74, 55
2, 43920, Note_on_c, 0, 74, 0
2, 43920, Note_on_c, 0, 77, 70
2, 44000, Note_on_c, 0, 77, 0
2, 44000, Note_on_c, 0, 69, 54
2, 44080, Note_on_c, 0, 69, 0
2, 44080, Note_on_c, 0, 72, 55
2, 44160, Note_on_c, 0, 72, 0
2, 44160, Note_on_c, 0, 73, 74
2, 44240, Note_on_c, 0, 73, 0
2, 44240, Note_on_c, 0, 67, 54
2, 44320, Note_on_c, 0, 67, 0
2, 44320, Note_on_c, 0, 76, 55
2, 44400, Note_on_c, 0, 76, 0
2, 44400, Note_on_c, 0, 79, 72
2, 44480, Note_on_c, 0, 79, 0
2, 44480, Note_on_c, 0, 70, 54
2, 44560, Note_on_c, 0, 70, 0
2, 44560, Note_on_c, 0, 74, 54
2, 44640, Note_on_c, 0, 74, 0
2, 44640, Note_on_c, 0, 75, 73
2, 44720, Note_on_c, 0, 75, 0
2, 44720, Note_on_c, 0, 69, 52
2, 44800, Note_on_c, 0, 69, 0
2, 44800, Note_on_c, 0, 81, 54
2, 44880, Note_on_c, 0, 81, 0
2, 44880, Note_on_c, 0, 84, 71
2, 44960, Note_on_c, 0, 84, 0
2, 44960, Note_on_c, 0, 72, 52
2, 45040, Note_on_c, 0, 72, 0
2, 45040, Note_on_c, 0, 74, 55
2, 45120, Note_on_c, 0, 74, 0
2, 45120, Note_on_c, 0, 75, 72
2, 45200, Note_on_c, 0, 75, 0
2, 45200, Note_on_c, 0, 70, 57
2, 45280, Note_on_c, 0, 70, 0
2, 45280, Note_on_c, 0, 79, 57
2, 45360, Note_on_c, 0, 79, 0
2, 45360, Note_on_c, 0, 82, 74
2, 45440, Note_on_c, 0, 82, 0
2, 45440, Note_on_c, 0, 74, 57
2, 45520, Note_on_c, 0, 74, 0
2, 45520, Note_on_c, 0, 76, 57
2, 45600, Note_on_c, 0, 76, 0
2, 45600, Note_on_c, 0, 77, 79
2, 45680, Note_on_c, 0, 77, 0
2, 45680, Note_on_c, 0, 71, 57
2, 45760, Note_on_c, 0, 71, 0
2, 45760, Note_on_c, 0, 86, 57
2, 45840, Note_on_c, 0, 86, 0
2, 45840, Note_on_c, 0, 89, 79
2, 45920, Note_on_c, 0, 89, 0
2, 45920, Note_on_c, 0, 77, 61
2, 46000, Note_on_c, 0, 77, 0
2, 46000, Note_on_c, 0, 83, 61
2, 46080, Note_on_c, 0, 83, 0
2, 46080, Note_on_c, 0, 85, 82
2, 46160, Note_on_c, 0, 85, 0
2, 46160, Note_on_c, 0, 76, 62
2, 46240, Note_on_c, 0, 76, 0
2, 46240, Note_on_c, 0, 88, 65
2, 46320, Note_on_c, 0, 88, 0
2, 46320, Note_on_c, 0, 93, 82
2, 46400, Note_on_c, 0, 93, 0
2, 46400, Note_on_c, 0, 81, 67
2, 46480, Note_on_c, 0, 81, 0
2, 46480, Note_on_c, 0, 86, 80
2, 46560, Note_on_c, 0, 86, 0
2, 46560, Note_on_c, 0, 98, 95
2, 46680, Note_on_c, 0, 98, 0
2, 46960, Note_on_c, 0, 79, 45
2, 47040, Note_on_c, 0, 79, 0
2, 47040, Note_on_c, 0, 77, 51
2, 47120, Note_on_c, 0, 77, 0
2, 47120, Note_on_c, 0, 70, 35
2, 47200, Note_on_c, 0, 70, 0
2, 47200, Note_on_c, 0, 74, 35
2, 47280, Note_on_c, 0, 74, 0
2, 47280, Note_on_c, 0, 65, 30
2, 47360, Note_on_c, 0, 65, 0
2, 47360, Note_on_c, 0, 58, 24
2, 47440, Note_on_c, 0, 58, 0
2, 47440, Note_on_c, 0, 75, 47
2, 47520, Note_on_c, 0, 75, 0
2, 47520, Note_on_c, 0, 74, 51
2, 47600, Note_on_c, 0, 74, 0
2, 47600, Note_on_c, 0, 65, 36
2, 47680, Note_on_c, 0, 65, 0
2, 47680, Note_on_c, 0, 70, 35
2, 47760, Note_on_c, 0, 70, 0
2, 47760, Note_on_c, 0, 62, 27
2, 47840, Note_on_c, 0, 62, 0
2, 47840, Note_on_c, 0, 58, 23
2, 47920, Note_on_c, 0, 58, 0
2, 47920, Note_on_c, 0, 74, 50
2, 48000, Note_on_c, 0, 74, 0
2, 48000, Note_on_c, 0, 72, 51
2, 48080, Note_on_c, 0, 72, 0
2, 48080, Note_on_c, 0, 65, 35
2, 48160, Note_on_c, 0, 65, 0
2, 48160, Note_on_c, 0, 66, 35
2, 48240, Note_on_c, 0, 66, 0
2, 48240, Note_on_c, 0, 63, 29
2, 48320, Note_on_c, 0, 63, 0
2, 48320, Note_on_c, 0, 58, 23
2, 48400, Note_on_c, 0, 58, 0
2, 48400, Note_on_c, 0, 74, 48
2, 48480, Note_on_c, 0, 74, 0
2, 48480, Note_on_c, 0, 75, 52
2, 48560, Note_on_c, 0, 75, 0
2, 48560, Note_on_c, 0, 65, 38
2, 48640, Note_on_c, 0, 65, 0
2, 48640, Note_on_c, 0, 66, 36
2, 48720, Note_on_c, 0, 66, 0
2, 48720, Note_on_c, 0, 63, 33
2, 48800, Note_on_c, 0, 63, 0
2, 48800, Note_on_c, 0, 58, 31
2, 48880, Note_on_c, 0, 58, 0
2, 48880, Note_on_c, 0, 74, 53
2, 48960, Note_on_c, 0, 74, 0
2, 48960, Note_on_c, 0, 72, 54
2, 49040, Note_on_c, 0, 72, 0
2, 49040, Note_on_c, 0, 65, 38
2, 49120, Note_on_c, 0, 65, 0
2, 49120, Note_on_c, 0, 66, 38
2, 49200, Note_on_c, 0, 66, 0
2, 49200, Note_on_c, 0, 63, 32
2, 49280, Note_on_c, 0, 63, 0
2, 49280, Note_on_c, 0, 58, 28
2, 49360, Note_on_c, 0, 58, 0
2, 49360, Note_on_c, 0, 74, 52
2, 49440, Note_on_c, 0, 74, 0
2, 49440, Note_on_c, 0, 75, 56
2, 49520, Note_on_c, 0, 75, 0
2, 49520, Note_on_c, 0, 65, 42
2, 49600, Note_on_c, 0, 65, 0
2, 49600, Note_on_c, 0, 63, 39
2, 49680, Note_on_c, 0, 63, 0
2, 49680, Note_on_c, 0, 60, 33
2, 49760, Note_on_c, 0, 60, 0
2, 49760, Note_on_c, 0, 58, 29
2, 49840, Note_on_c, 0, 58, 0
2, 49840, Note_on_c, 0, 69, 56
2, 49920, Note_on_c, 0, 69, 0
2, 49920, Note_on_c, 0, 70, 57
2, 50000, Note_on_c, 0, 70, 0
2, 50000, Note_on_c, 0, 65, 40
2, 50080, Note_on_c, 0, 65, 0
2, 50080, Note_on_c, 0, 62, 40
2, 50160, Note_on_c, 0, 62, 0
2, 50160, Note_on_c, 0, 58, 33
2, 50240, Note_on_c, 0, 58, 0
2, 50240, Note_on_c, 0, 57, 27
2, 50320, Note_on_c, 0, 57, 0
2, 50320, Note_on_c, 0, 72, 54
2, 50400, Note_on_c, 0, 72, 0
2, 50400, Note_on_c, 0, 74, 62
2, 50480, Note_on_c, 0, 74, 0
2, 50480, Note_on_c, 0, 65, 47
2, 50560, Note_on_c, 0, 65, 0
2, 50560, Note_on_c, 0, 62, 42
2, 50640, Note_on_c, 0, 62, 0
2, 50640, Note_on_c, 0, 58, 35
2, 50720, Note_on_c, 0, 58, 0
2, 50720, Note_on_c, 0, 55, 30
2, 50800, Note_on_c, 0, 55, 0
2, 50800, Note_on_c, 0, 72, 57
2, 50880, Note_on_c, 0, 72, 0
2, 50880, Note_on_c, 0, 70, 62
2, 50960, Note_on_c, 0, 70, 0
2, 50960, Note_on_c, 0, 65, 44
2, 51040, Note_on_c, 0, 65, 0
2, 51040, Note_on_c, 0, 62, 44
2, 51120, Note_on_c, 0, 62, 0
2, 51120, Note_on_c, 0, 58, 36
2, 51200, Note_on_c, 0, 58, 0
2, 51200, Note_on_c, 0, 53, 33
2, 51280, Note_on_c, 0, 53, 0
2, 51280, Note_on_c, 0, 72, 54
2, 51360, Note_on_c, 0, 72, 0
2, 51360, Note_on_c, 0, 74, 57
2, 51440, Note_on_c, 0, 74, 0
2, 51440, Note_on_c, 0, 67, 47
2, 51520, Note_on_c, 0, 67, 0
2, 51520, Note_on_c, 0, 60, 42
2, 51600, Note_on_c, 0, 60, 0
2, 51600, Note_on_c, 0, 58, 37
2, 51680, Note_on_c, 0, 58, 0
2, 51680, Note_on_c, 0, 52, 29
2, 51760, Note_on_c, 0, 52, 0
2, 51760, Note_on_c, 0, 70, 57
2, 51840, Note_on_c, 0, 70, 0
2, 51840, Note_on_c, 0, 69, 57
2, 51920, Note_on_c, 0, 69, 0
2, 51920, Note_on_c, 0, 65, 40
2, 52000, Note_on_c, 0, 65, 0
2, 52000, Note_on_c, 0, 60, 40
2, 52080, Note_on_c, 0, 60, 0
2, 52080, Note_on_c, 0, 57, 35
2, 52160, Note_on_c, 0, 57, 0
2, 52160, Note_on_c, 0, 53, 28
2, 52240, Note_on_c, 0, 53, 0
2, 52240, Note_on_c, 0, 70, 56
2, 52320, Note_on_c, 0, 70, 0
2, 52320, Note_on_c, 0, 72, 61
2, 52400, Note_on_c, 0, 72, 0
2, 52400, Note_on_c, 0, 65, 44
2, 52480, Note_on_c, 0, 65, 0
2, 52480, Note_on_c, 0, 60, 44
2, 52560, Note_on_c, 0, 60, 0
2, 52560, Note_on_c, 0, 56, 36
2, 52640, Note_on_c, 0, 56, 0
2, 52640, Note_on_c, 0, 50, 31
2, 52720, Note_on_c, 0, 50, 0
2, 52720, Note_on_c, 0, 71, 57
2, 52800, Note_on_c, 0, 71, 0
2, 52800, Note_on_c, 0, 72, 62
2, 52880, Note_on_c, 0, 72, 0
2, 52880, Note_on_c, 0, 65, 44
2, 52960, Note_on_c, 0, 65, 0
2, 52960, Note_on_c, 0, 60, 44
2, 53040, Note_on_c, 0, 60, 0
2, 53040, Note_on_c, 0, 57, 38
2, 53120, Note_on_c, 0, 57, 0
2, 53120, Note_on_c, 0, 48, 33
2, 53200, Note_on_c, 0, 48, 0
2, 53200, Note_on_c, 0, 73, 56
2, 53280, Note_on_c, 0, 73, 0
2, 53280, Note_on_c, 0, 74, 61
2, 53360, Note_on_c, 0, 74, 0
2, 53360, Note_on_c, 0, 64, 43
2, 53440, Note_on_c, 0, 64, 0
2, 53440, Note_on_c, 0, 58, 43
2, 53520, Note_on_c, 0, 58, 0
2, 53520, Note_on_c, 0, 55, 35
2, 53600, Note_on_c, 0, 55, 0
2, 53600, Note_on_c, 0, 48, 29
2, 53680, Note_on_c, 0, 48, 0
2, 53680, Note_on_c, 0, 69, 56
2, 53760, Note_on_c, 0, 69, 0
2, 53760, Note_on_c, 0, 70, 57
2, 53840, Note_on_c, 0, 70, 0
2, 53840, Note_on_c, 0, 60, 41
2, 53920, Note_on_c, 0, 60, 0
2, 53920, Note_on_c, 0, 58, 40
2, 54000, Note_on_c, 0, 58, 0
2, 54000, Note_on_c, 0, 52, 34
2, 54080, Note_on_c, 0, 52, 0
2, 54080, Note_on_c, 0, 48, 28
2, 54160, Note_on_c, 0, 48, 0
2, 54160, Note_on_c, 0, 64, 51
2, 54240, Note_on_c, 0, 64, 0
2, 54240, Note_on_c, 0, 65, 54
2, 54320, Note_on_c, 0, 65, 0
2, 54320, Note_on_c, 0, 60, 37
2, 54400, Note_on_c, 0, 60, 0
2, 54400, Note_on_c, 0, 57, 37
2, 54480, Note_on_c, 0, 57, 0
2, 54480, Note_on_c, 0, 48, 33
2, 54560, Note_on_c, 0, 48, 0
2, 54560, Note_on_c, 0, 41, 29
2, 54640, Note_on_c, 0, 41, 0
2, 54640, Note_on_c, 0, 79, 50
2, 54720, Note_on_c, 0, 79, 0
2, 54720, Note_on_c, 0, 77, 51
2, 54800, Note_on_c, 0, 77, 0
2, 54800, Note_on_c, 0, 70, 35
2, 54880, Note_on_c, 0, 70, 0
2, 54880, Note_on_c, 0, 74, 35
2, 54960, Note_on_c, 0, 74, 0
2, 54960, Note_on_c, 0, 65, 28
2, 55040, Note_on_c, 0, 65, 0
2, 55040, Note_on_c, 0, 58, 25
2, 55120, Note_on_c, 0, 58, 0
2, 55120, Note_on_c, 0, 75, 47
2, 55200, Note_on_c, 0, 75, 0
2, 55200, Note_on_c, 0, 74, 51
2, 55280, Note_on_c, 0, 74, 0
2, 55280, Note_on_c, 0, 65, 36
2, 55360, Note_on_c, 0, 65, 0
2, 55360, Note_on_c, 0, 70, 35
2, 55440, Note_on_c, 0, 70, 0
2, 55440, Note_on_c, 0, 62, 28
2, 55520, Note_on_c, 0, 62, 0
2, 55520, Note_on_c, 0, 58, 23
2, 55600, Note_on_c, 0, 58, 0
2, 55600, Note_on_c, 0, 74, 50
2, 55680, Note_on_c, 0, 74, 0
2, 55680, Note_on_c, 0, 72, 51
2, 55760, Note_on_c, 0, 72, 0
2, 55760, Note_on_c, 0, 65, 35
2, 55840, Note_on_c, 0, 65, 0
2, 55840, Note_on_c, 0, 66, 35
2, 55920, Note_on_c, 0, 66, 0
2, 55920, Note_on_c, 0, 63, 30
2, 56000, Note_on_c, 0, 63, 0
2, 56000, Note_on_c, 0, 58, 24
2, 56080, Note_on_c, 0, 58, 0
2, 56080, Note_on_c, 0, 74, 48
2, 56160, Note_on_c, 0, 74, 0
2, 56160, Note_on_c, 0, 75, 52
2, 56240, Note_on_c, 0, 75, 0
2, 56240, Note_on_c, 0, 65, 38
2, 56320, Note_on_c, 0, 65, 0
2, 56320, Note_on_c, 0, 66, 36
2, 56400, Note_on_c, 0, 66, 0
2, 56400, Note_on_c, 0, 63, 31
2, 56480, Note_on_c, 0, 63, 0
2, 56480, Note_on_c, 0, 58, 25
2, 56560, Note_on_c, 0, 58, 0
2, 56560, Note_on_c, 0, 74, 53
2, 56640, Note_on_c, 0, 74, 0
2, 56640, Note_on_c, 0, 72, 54
2, 56720, Note_on_c, 0, 72, 0
2, 56720, Note_on_c, 0, 65, 38
2, 56800, Note_on_c, 0, 65, 0
2, 56800, Note_on_c, 0, 66, 38
2, 56880, Note_on_c, 0, 66, 0
2, 56880, Note_on_c, 0, 63, 31
2, 56960, Note_on_c, 0, 63, 0
2, 56960, Note_on_c, 0, 58, 27
2, 57040, Note_on_c, 0, 58, 0
2, 57040, Note_on_c, 0, 74, 52
2, 57120, Note_on_c, 0, 74, 0
2, 57120, Note_on_c, 0, 75, 56
2, 57200, Note_on_c, 0, 75, 0
2, 57200, Note_on_c, 0, 65, 42
2, 57280, Note_on_c, 0, 65, 0
2, 57280, Note_on_c, 0, 63, 39
2, 57360, Note_on_c, 0, 63, 0
2, 57360, Note_on_c, 0, 60, 34
2, 57440, Note_on_c, 0, 60, 0
2, 57440, Note_on_c, 0, 58, 29
2, 57520, Note_on_c, 0, 58, 0
2, 57520, Note_on_c, 0, 69, 56
2, 57600, Note_on_c, 0, 69, 0
2, 57600, Note_on_c, 0, 70, 57
2, 57680, Note_on_c, 0, 70, 0
2, 57680, Note_on_c, 0, 65, 40
2, 57760, Note_on_c, 0, 65, 0
2, 57760, Note_on_c, 0, 62, 40
2, 57840, Note_on_c, 0, 62, 0
2, 57840, Note_on_c, 0, 58, 33
2, 57920, Note_on_c, 0, 58, 0
2, 57920, Note_on_c, 0, 57, 27
2, 58000, Note_on_c, 0, 57, 0
2, 58000, Note_on_c, 0, 72, 54
2, 58080, Note_on_c, 0, 72, 0
2, 58080, Note_on_c, 0, 74, 57
2, 58160, Note_on_c, 0, 74, 0
2, 58160, Note_on_c, 0, 65, 47
2, 58240, Note_on_c, 0, 65, 0
2, 58240, Note_on_c, 0, 62, 42
2, 58320, Note_on_c, 0, 62, 0
2, 58320, Note_on_c, 0, 58, 34
2, 58400, Note_on_c, 0, 58, 0
2, 58400, Note_on_c, 0, 55, 31
2, 58480, Note_on_c, 0, 55, 0
2, 58480, Note_on_c, 0, 72, 57
2, 58560, Note_on_c, 0, 72, 0
2, 58560, Note_on_c, 0, 70, 57
2, 58640, Note_on_c, 0, 70, 0
2, 58640, Note_on_c, 0, 65, 44
2, 58720, Note_on_c, 0, 65, 0
2, 58720, Note_on_c, 0, 62, 44
2, 58800, Note_on_c, 0, 62, 0
2, 58800, Note_on_c, 0, 58, 39
2, 58880, Note_on_c, 0, 58, 0
2, 58880, Note_on_c, 0, 53, 33
2, 58960, Note_on_c, 0, 53, 0
2, 58960, Note_on_c, 0, 72, 54
2, 59040, Note_on_c, 0, 72, 0
2, 59040, Note_on_c, 0, 74, 57
2, 59120, Note_on_c, 0, 74, 0
2, 59120, Note_on_c, 0, 67, 47
2, 59200, Note_on_c, 0, 67, 0
2, 59200, Note_on_c, 0, 60, 42
2, 59280, Note_on_c, 0, 60, 0
2, 59280, Note_on_c, 0, 58, 37
2, 59360, Note_on_c, 0, 58, 0
2, 59360, Note_on_c, 0, 52, 32
2, 59440, Note_on_c, 0, 52, 0
2, 59440, Note_on_c, 0, 70, 57
2, 59520, Note_on_c, 0, 70, 0
2, 59520, Note_on_c, 0, 69, 57
2, 59600, Note_on_c, 0, 69, 0
2, 59600, Note_on_c, 0, 65, 40
2, 59680, Note_on_c, 0, 65, 0
2, 59680, Note_on_c, 0, 60, 40
2, 59760, Note_on_c, 0, 60, 0
2, 59760, Note_on_c, 0, 57, 36
2, 59840, Note_on_c, 0, 57, 0
2, 59840, Note_on_c, 0, 53, 31
2, 59920, Note_on_c, 0, 53, 0
2, 59920, Note_on_c, 0, 70, 56
2, 60000, Note_on_c, 0, 70, 0
2, 60000, Note_on_c, 0, 72, 61
2, 60080, Note_on_c, 0, 72, 0
2, 60080, Note_on_c, 0, 65, 44
2, 60160, Note_on_c, 0, 65, 0
2, 60160, Note_on_c, 0, 60, 44
2, 60240, Note_on_c, 0, 60, 0
2, 60240, Note_on_c, 0, 56, 39
2, 60320, Note_on_c, 0, 56, 0
2, 60320, Note_on_c, 0, 50, 34
2, 60400, Note_on_c, 0, 50, 0
2, 60400, Note_on_c, 0, 71, 57
2, 60480, Note_on_c, 0, 71, 0
2, 60480, Note_on_c, 0, 72, 62
2, 60560, Note_on_c, 0, 72, 0
2, 60560, Note_on_c, 0, 65, 44
2, 60640, Note_on_c, 0, 65, 0
2, 60640, Note_on_c, 0, 60, 44
2, 60720, Note_on_c, 0, 60, 0
2, 60720, Note_on_c, 0, 57, 40
2, 60800, Note_on_c, 0, 57, 0
2, 60800, Note_on_c, 0, 48, 35
2, 60880, Note_on_c, 0, 48, 0
2, 60880, Note_on_c, 0, 73, 56
2, 60960, Note_on_c, 0, 73, 0
2, 60960, Note_on_c, 0, 74, 61
2, 61040, Note_on_c, 0, 74, 0
2, 61040, Note_on_c, 0, 64, 43
2, 61120, Note_on_c, 0, 64, 0
2, 61120, Note_on_c, 0, 58, 43
2, 61200, Note_on_c, 0, 58, 0
2, 61200, Note_on_c, 0, 55, 38
2, 61280, Note_on_c, 0, 55, 0
2, 61280, Note_on_c, 0, 48, 32
2, 61360, Note_on_c, 0, 48, 0
2, 61360, Note_on_c, 0, 69, 56
2, 61440, Note_on_c, 0, 69, 0
2, 61440, Note_on_c, 0, 70, 57
2, 61520, Note_on_c, 0, 70, 0
2, 61520, Note_on_c, 0, 60, 41
2, 61600, Note_on_c, 0, 60, 0
2, 61600, Note_on_c, 0, 58, 40
2, 61680, Note_on_c, 0, 58, 0
2, 61680, Note_on_c, 0, 52, 34
2, 61760, Note_on_c, 0, 52, 0
2, 61760, Note_on_c, 0, 48, 29
2, 61840, Note_on_c, 0, 48, 0
2, 61840, Note_on_c, 0, 64, 51
2, 61920, Note_on_c, 0, 64, 0
2, 61920, Note_on_c, 0, 65, 54
2, 62000, Note_on_c, 0, 65, 0
2, 62000, Note_on_c, 0, 60, 37
2, 62080, Note_on_c, 0, 60, 0
2, 62080, Note_on_c, 0, 57, 37
2, 62160, Note_on_c, 0, 57, 0
2, 62160, Note_on_c, 0, 48, 31
2, 62240, Note_on_c, 0, 48, 0
2, 62240, Note_on_c, 0, 41, 25
2, 62320, Note_on_c, 0, 41, 0
2, 62320, Note_on_c, 0, 79, 50
2, 62400, Note_on_c, 0, 79, 0
2, 62400, Note_on_c, 0, 77, 51
2, 62480, Note_on_c, 0, 77, 0
2, 62480, Note_on_c, 0, 68, 35
2, 62560, Note_on_c, 0, 68, 0
2, 62560, Note_on_c, 0, 72, 35
2, 62640, Note_on_c, 0, 72, 0
2, 62640, Note_on_c, 0, 65, 32
2, 62720, Note_on_c, 0, 65, 0
2, 62720, Note_on_c, 0, 62, 28
2, 62800, Note_on_c, 0, 62, 0
2, 62800, Note_on_c, 0, 75, 47
2, 62880, Note_on_c, 0, 75, 0
2, 62880, Note_on_c, 0, 74, 51
2, 62960, Note_on_c, 0, 74, 0
2, 62960, Note_on_c, 0, 67, 36
2, 63040, Note_on_c, 0, 67, 0
2, 63040, Note_on_c, 0, 62, 35
2, 63120, Note_on_c, 0, 62, 0
2, 63120, Note_on_c, 0, 59, 28
2, 63200, Note_on_c, 0, 59, 0
2, 63200, Note_on_c, 0, 53, 23
2, 63280, Note_on_c, 0, 53, 0
2, 63280, Note_on_c, 0, 71, 50
2, 63360, Note_on_c, 0, 71, 0
2, 63360, Note_on_c, 0, 72, 51
2, 63440, Note_on_c, 0, 72, 0
2, 63440, Note_on_c, 0, 67, 35
2, 63520, Note_on_c, 0, 67, 0
2, 63520, Note_on_c, 0, 68, 35
2, 63600, Note_on_c, 0, 68, 0
2, 63600, Note_on_c, 0, 63, 30
2, 63680, Note_on_c, 0, 63, 0
2, 63680, Note_on_c, 0, 60, 27
2, 63760, Note_on_c, 0, 60, 0
2, 63760, Note_on_c, 0, 74, 48
2, 63840, Note_on_c, 0, 74, 0
2, 63840, Note_on_c, 0, 75, 52
2, 63920, Note_on_c, 0, 75, 0
2, 63920, Note_on_c, 0, 67, 38
2, 64000, Note_on_c, 0, 67, 0
2, 64000, Note_on_c, 0, 60, 36
2, 64080, Note_on_c, 0, 60, 0
2, 64080, Note_on_c, 0, 55, 32
2, 64160, Note_on_c, 0, 55, 0
2, 64160, Note_on_c, 0, 51, 28
2, 64240, Note_on_c, 0, 51, 0
2, 64240, Note_on_c, 0, 72, 58
2, 64320, Note_on_c, 0, 72, 0
2, 64320, Note_on_c, 0, 80, 64
2, 64400, Note_on_c, 0, 80, 0
2, 64400, Note_on_c, 0, 68, 43
2, 64480, Note_on_c, 0, 68, 0
2, 64480, Note_on_c, 0, 60, 43
2, 64560, Note_on_c, 0, 60, 0
2, 64560, Note_on_c, 0, 53, 40
2, 64640, Note_on_c, 0, 53, 0
2, 64640, Note_on_c, 0, 50, 31
2, 64720, Note_on_c, 0, 50, 0
2, 64720, Note_on_c, 0, 80, 61
2, 64800, Note_on_c, 0, 80, 0
2, 64800, Note_on_c, 0, 79, 66
2, 64880, Note_on_c, 0, 79, 0
2, 64880, Note_on_c, 0, 67, 45
2, 64960, Note_on_c, 0, 67, 0
2, 64960, Note_on_c, 0, 59, 43
2, 65040, Note_on_c, 0, 59, 0
2, 65040, Note_on_c, 0, 50, 36
2, 65120, Note_on_c, 0, 50, 0
2, 65120, Note_on_c, 0, 43, 31
2, 65200, Note_on_c, 0, 43, 0
2, 65200, Note_on_c, 0, 79, 56
2, 65280, Note_on_c, 0, 79, 0
2, 65280, Note_on_c, 0, 75, 63
2, 65360, Note_on_c, 0, 75, 0
2, 65360, Note_on_c, 0, 67, 40
2, 65440, Note_on_c, 0, 67, 0
2, 65440, Note_on_c, 0, 60, 40
2, 65520, Note_on_c, 0, 60, 0
2, 65520, Note_on_c, 0, 51, 35
2, 65600, Note_on_c, 0, 51, 0
2, 65600, Note_on_c, 0, 48, 30
2, 65680, Note_on_c, 0, 48, 0
2, 65680, Note_on_c, 0, 75, 51
2, 65760, Note_on_c, 0, 75, 0
2, 65760, Note_on_c, 0, 72, 54
2, 65840, Note_on_c, 0, 72, 0
2, 65840, Note_on_c, 0, 67, 42
2, 65920, Note_on_c, 0, 67, 0
2, 65920, Note_on_c, 0, 60, 36
2, 66000, Note_on_c, 0, 60, 0
2, 66000, Note_on_c, 0, 55, 30
2, 66080, Note_on_c, 0, 55, 0
2, 66080, Note_on_c, 0, 51, 25
2, 66160, Note_on_c, 0, 51, 0
2, 66160, Note_on_c, 0, 77, 50
2, 66240, Note_on_c, 0, 77, 0
2, 66240, Note_on_c, 0, 75, 56
2, 66320, Note_on_c, 0, 75, 0
2, 66320, Note_on_c, 0, 66, 41
2, 66400, Note_on_c, 0, 66, 0
2, 66400, Note_on_c, 0, 70, 44
2, 66480, Note_on_c, 0, 70, 0
2, 66480, Note_on_c, 0, 63, 35
2, 66560, Note_on_c, 0, 63, 0
2, 66560, Note_on_c, 0, 60, 33
2, 66640, Note_on_c, 0, 60, 0
2, 66640, Note_on_c, 0, 73, 50
2, 66720, Note_on_c, 0, 73, 0
2, 66720, Note_on_c, 0, 72, 54
2, 66800, Note_on_c, 0, 72, 0
2, 66800, Note_on_c, 0, 65, 44
2, 66880, Note_on_c, 0, 65, 0
2, 66880, Note_on_c, 0, 60, 39
2, 66960, Note_on_c, 0, 60, 0
2, 66960, Note_on_c, 0, 57, 37
2, 67040, Note_on_c, 0, 57, 0
2, 67040, Note_on_c, 0, 51, 32
2, 67120, Note_on_c, 0, 51, 0
2, 67120, Note_on_c, 0, 69, 52
2, 67200, Note_on_c, 0, 69, 0
2, 67200, Note_on_c, 0, 70, 56
2, 67280, Note_on_c, 0, 70, 0
2, 67280, Note_on_c, 0, 65, 40
2, 67360, Note_on_c, 0, 65, 0
2, 67360, Note_on_c, 0, 66, 40
2, 67440, Note_on_c, 0, 66, 0
2, 67440, Note_on_c, 0, 61, 36
2, 67520, Note_on_c, 0, 61, 0
2, 67520, Note_on_c, 0, 58, 31
2, 67600, Note_on_c, 0, 58, 0
2, 67600, Note_on_c, 0, 72, 53
2, 67680, Note_on_c, 0, 72, 0
2, 67680, Note_on_c, 0, 73, 61
2, 67760, Note_on_c, 0, 73, 0
2, 67760, Note_on_c, 0, 65, 43
2, 67840, Note_on_c, 0, 65, 0
2, 67840, Note_on_c, 0, 58, 42
2, 67920, Note_on_c, 0, 58, 0
2, 67920, Note_on_c, 0, 53, 39
2, 68000, Note_on_c, 0, 53, 0
2, 68000, Note_on_c, 0, 49, 34
2, 68080, Note_on_c, 0, 49, 0
2, 68080, Note_on_c, 0, 70, 57
2, 68160, Note_on_c, 0, 70, 0
2, 68160, Note_on_c, 0, 78, 67
2, 68240, Note_on_c, 0, 78, 0
2, 68240, Note_on_c, 0, 66, 49
2, 68320, Note_on_c, 0, 66, 0
2, 68320, Note_on_c, 0, 63, 44
2, 68400, Note_on_c, 0, 63, 0
2, 68400, Note_on_c, 0, 58, 40
2, 68480, Note_on_c, 0, 58, 0
2, 68480, Note_on_c, 0, 51, 35
2, 68560, Note_on_c, 0, 51, 0
2, 68560, Note_on_c, 0, 78, 56
2, 68640, Note_on_c, 0, 78, 0
2, 68640, Note_on_c, 0, 81, 65
2, 68720, Note_on_c, 0, 81, 0
2, 68720, Note_on_c, 0, 69, 48
2, 68800, Note_on_c, 0, 69, 0
2, 68800, Note_on_c, 0, 66, 43
2, 68880, Note_on_c, 0, 66, 0
2, 68880, Note_on_c, 0, 63, 38
2, 68960, Note_on_c, 0, 63, 0
2, 68960, Note_on_c, 0, 54, 32
2, 69040, Note_on_c, 0, 54, 0
2, 69040, Note_on_c, 0, 81, 49
2, 69120, Note_on_c, 0, 81, 0
2, 69120, Note_on_c, 0, 82, 60
2, 69200, Note_on_c, 0, 82, 0
2, 69200, Note_on_c, 0, 70, 38
2, 69280, Note_on_c, 0, 70, 0
2, 69280, Note_on_c, 0, 67, 38
2, 69360, Note_on_c, 0, 67, 0
2, 69360, Note_on_c, 0, 63, 33
2, 69440, Note_on_c, 0, 63, 0
2, 69440, Note_on_c, 0, 55, 29
2, 69520, Note_on_c, 0, 55, 0
2, 69520, Note_on_c, 0, 79, 46
2, 69600, Note_on_c, 0, 79, 0
2, 69600, Note_on_c, 0, 77, 53
2, 69680, Note_on_c, 0, 77, 0
2, 69680, Note_on_c, 0, 72, 32
2, 69760, Note_on_c, 0, 72, 0
2, 69760, Note_on_c, 0, 65, 32
2, 69840, Note_on_c, 0, 65, 0
2, 69840, Note_on_c, 0, 63, 27
2, 69920, Note_on_c, 0, 63, 0
2, 69920, Note_on_c, 0, 57, 23
2, 70000, Note_on_c, 0, 57, 0
2, 70000, Note_on_c, 0, 79, 50
2, 70080, Note_on_c, 0, 79, 0
2, 70080, Note_on_c, 0, 77, 51
2, 70160, Note_on_c, 0, 77, 0
2, 70160, Note_on_c, 0, 70, 35
2, 70240, Note_on_c, 0, 70, 0
2, 70240, Note_on_c, 0, 74, 35
2, 70320, Note_on_c, 0, 74, 0
2, 70320, Note_on_c, 0, 65, 30
2, 70400, Note_on_c, 0, 65, 0
2, 70400, Note_on_c, 0, 58, 25
2, 70480, Note_on_c, 0, 58, 0
2, 70480, Note_on_c, 0, 75, 47
2, 70560, Note_on_c, 0, 75, 0
2, 70560, Note_on_c, 0, 74, 51
2, 70640, Note_on_c, 0, 74, 0
2, 70640, Note_on_c, 0, 65, 36
2, 70720, Note_on_c, 0, 65, 0
2, 70720, Note_on_c, 0, 70, 35
2, 70800, Note_on_c, 0, 70, 0
2, 70800, Note_on_c, 0, 62, 26
2, 70880, Note_on_c, 0, 62, 0
2, 70880, Note_on_c, 0, 58, 23
2, 70960, Note_on_c, 0, 58, 0
2, 70960, Note_on_c, 0, 74, 50
2, 71040, Note_on_c, 0, 74, 0
2, 71040, Note_on_c, 0, 72, 51
2, 71120, Note_on_c, 0, 72, 0
2, 71120, Note_on_c, 0, 65, 35
2, 71200, Note_on_c, 0, 65, 0
2, 71200, Note_on_c, 0, 66, 35
2, 71280, Note_on_c, 0, 66, 0
2, 71280, Note_on_c, 0, 63, 28
2, 71360, Note_on_c, 0, 63, 0
2, 71360, Note_on_c, 0, 58, 23
2, 71440, Note_on_c, 0, 58, 0
2, 71440, Note_on_c, 0, 74, 48
2, 71520, Note_on_c, 0, 74, 0
2, 71520, Note_on_c, 0, 75, 52
2, 71600, Note_on_c, 0, 75, 0
2, 71600, Note_on_c, 0, 65, 38
2, 71680, Note_on_c, 0, 65, 0
2, 71680, Note_on_c, 0, 66, 36
2, 71760, Note_on_c, 0, 66, 0
2, 71760, Note_on_c, 0, 63, 30
2, 71840, Note_on_c, 0, 63, 0
2, 71840, Note_on_c, 0, 58, 27
2, 71920, Note_on_c, 0, 58, 0
2, 71920, Note_on_c, 0, 74, 53
2, 72000, Note_on_c, 0, 74, 0
2, 72000, Note_on_c, 0, 72, 54
2, 72080, Note_on_c, 0, 72, 0
2, 72080, Note_on_c, 0, 65, 38
2, 72160, Note_on_c, 0, 65, 0
2, 72160, Note_on_c, 0, 66, 38
2, 72240, Note_on_c, 0, 66, 0
2, 72240, Note_on_c, 0, 63, 33
2, 72320, Note_on_c, 0, 63, 0
2, 72320, Note_on_c, 0, 58, 29
2, 72400, Note_on_c, 0, 58, 0
2, 72400, Note_on_c, 0, 74, 52
2, 72480, Note_on_c, 0, 74, 0
2, 72480, Note_on_c, 0, 75, 56
2, 72560, Note_on_c, 0, 75, 0
2, 72560, Note_on_c, 0, 65, 42
2, 72640, Note_on_c, 0, 65, 0
2, 72640, Note_on_c, 0, 63, 39
2, 72720, Note_on_c, 0, 63, 0
2, 72720, Note_on_c, 0, 60, 35
2, 72800, Note_on_c, 0, 60, 0
2, 72800, Note_on_c, 0, 58, 29
2, 72880, Note_on_c, 0, 58, 0
2, 72880, Note_on_c, 0, 69, 56
2, 72960, Note_on_c, 0, 69, 0
2, 72960, Note_on_c, 0, 70, 60
2, 73040, Note_on_c, 0, 70, 0
2, 73040, Note_on_c, 0, 65, 40
2, 73120, Note_on_c, 0, 65, 0
2, 73120, Note_on_c, 0, 62, 40
2, 73200, Note_on_c, 0, 62, 0
2, 73200, Note_on_c, 0, 58, 34
2, 73280, Note_on_c, 0, 58, 0
2, 73280, Note_on_c, 0, 57, 30
2, 73360, Note_on_c, 0, 57, 0
2, 73360, Note_on_c, 0, 72, 57
2, 73440, Note_on_c, 0, 72, 0
2, 73440, Note_on_c, 0, 74, 64
2, 73520, Note_on_c, 0, 74, 0
2, 73520, Note_on_c, 0, 65, 47
2, 73600, Note_on_c, 0, 65, 0
2, 73600, Note_on_c, 0, 62, 42
2, 73680, Note_on_c, 0, 62, 0
2, 73680, Note_on_c, 0, 58, 36
2, 73760, Note_on_c, 0, 58, 0
2, 73760, Note_on_c, 0, 56, 31
2, 73840, Note_on_c, 0, 56, 0
2, 73840, Note_on_c, 0, 70, 57
2, 73920, Note_on_c, 0, 70, 0
2, 73920, Note_on_c, 0, 75, 62
2, 74000, Note_on_c, 0, 75, 0
2, 74000, Note_on_c, 0, 63, 44
2, 74080, Note_on_c, 0, 63, 0
2, 74080, Note_on_c, 0, 67, 44
2, 74160, Note_on_c, 0, 67, 0
2, 74160, Note_on_c, 0, 58, 39
2, 74240, Note_on_c, 0, 58, 0
2, 74240, Note_on_c, 0, 55, 33
2, 74320, Note_on_c, 0, 55, 0
2, 74320, Note_on_c, 0, 75, 54
2, 74400, Note_on_c, 0, 75, 0
2, 74400, Note_on_c, 0, 71, 57
2, 74480, Note_on_c, 0, 71, 0
2, 74480, Note_on_c, 0, 68, 47
2, 74560, Note_on_c, 0, 68, 0
2, 74560, Note_on_c, 0, 62, 42
2, 74640, Note_on_c, 0, 62, 0
2, 74640, Note_on_c, 0, 56, 37
2, 74720, Note_on_c, 0, 56, 0
2, 74720, Note_on_c, 0, 53, 32
2, 74800, Note_on_c, 0, 53, 0
2, 74800, Note_on_c, 0, 71, 57
2, 74880, Note_on_c, 0, 71, 0
2, 74880, Note_on_c, 0, 72, 57
2, 74960, Note_on_c, 0, 72, 0
2, 74960, Note_on_c, 0, 60, 40
2, 75040, Note_on_c, 0, 60, 0
2, 75040, Note_on_c, 0, 63, 40
2, 75120, Note_on_c, 0, 63, 0
2, 75120, Note_on_c, 0, 55, 36
2, 75200, Note_on_c, 0, 55, 0
2, 75200, Note_on_c, 0, 51, 31
2, 75280, Note_on_c, 0, 51, 0
2, 75280, Note_on_c, 0, 72, 56
2, 75360, Note_on_c, 0, 72, 0
2, 75360, Note_on_c, 0, 66, 61
2, 75440, Note_on_c, 0, 66, 0
2, 75440, Note_on_c, 0, 62, 44
2, 75520, Note_on_c, 0, 62, 0
2, 75520, Note_on_c, 0, 57, 44
2, 75600, Note_on_c, 0, 57, 0
2, 75600, Note_on_c, 0, 50, 36
2, 75680, Note_on_c, 0, 50, 0
2, 75680, Note_on_c, 0, 48, 34
2, 75760, Note_on_c, 0, 48, 0
2, 75760, Note_on_c, 0, 66, 57
2, 75840, Note_on_c, 0, 66, 0
2, 75840, Note_on_c, 0, 67, 62
2, 75920, Note_on_c, 0, 67, 0
2, 75920, Note_on_c, 0, 55, 44
2, 76000, Note_on_c, 0, 55, 0
2, 76000, Note_on_c, 0, 58, 44
2, 76080, Note_on_c, 0, 58, 0
2, 76080, Note_on_c, 0, 50, 40
2, 76160, Note_on_c, 0, 50, 0
2, 76160, Note_on_c, 0, 46, 35
2, 76240, Note_on_c, 0, 46, 0
2, 76240, Note_on_c, 0, 67, 56
2, 76320, Note_on_c, 0, 67, 0
2, 76320, Note_on_c, 0, 66, 61
2, 76400, Note_on_c, 0, 66, 0
2, 76400, Note_on_c, 0, 58, 43
2, 76480, Note_on_c, 0, 58, 0
2, 76480, Note_on_c, 0, 54, 43
2, 76560, Note_on_c, 0, 54, 0
2, 76560, Note_on_c, 0, 46, 38
2, 76640, Note_on_c, 0, 46, 0
2, 76640, Note_on_c, 0, 39, 32
2, 76720, Note_on_c, 0, 39, 0
2, 76720, Note_on_c, 0, 66, 56
2, 76800, Note_on_c, 0, 66, 0
2, 76800, Note_on_c, 0, 65, 57
2, 76880, Note_on_c, 0, 65, 0
2, 76880, Note_on_c, 0, 57, 41
2, 76960, Note_on_c, 0, 57, 0
2, 76960, Note_on_c, 0, 53, 40
2, 77040, Note_on_c, 0, 53, 0
2, 77040, Note_on_c, 0, 45, 36
2, 77120, Note_on_c, 0, 45, 0
2, 77120, Note_on_c, 0, 41, 29
2, 77200, Note_on_c, 0, 41, 0
2, 77200, Note_on_c, 0, 65, 51
2, 77280, Note_on_c, 0, 65, 0
2, 77280, Note_on_c, 0, 62, 54
2, 77360, Note_on_c, 0, 62, 0
2, 77360, Note_on_c, 0, 58, 37
2, 77440, Note_on_c, 0, 58, 0
2, 77440, Note_on_c, 0, 50, 37
2, 77520, Note_on_c, 0, 50, 0
2, 77520, Note_on_c, 0, 41, 35
2, 77600, Note_on_c, 0, 41, 0
2, 77600, Note_on_c, 0, 34, 32
2, 77680, Note_on_c, 0, 34, 0
2, 77680, Note_on_c, 0, 79, 50
2, 77760, Note_on_c, 0, 79, 0
2, 77760, Note_on_c, 0, 77, 51
2, 77840, Note_on_c, 0, 77, 0
2, 77840, Note_on_c, 0, 68, 35
2, 77920, Note_on_c, 0, 68, 0
2, 77920, Note_on_c, 0, 72, 35
2, 78000, Note_on_c, 0, 72, 0
2, 78000, Note_on_c, 0, 65, 29
2, 78080, Note_on_c, 0, 65, 0
2, 78080, Note_on_c, 0, 62, 26
2, 78160, Note_on_c, 0, 62, 0
2, 78160, Note_on_c, 0, 75, 47
2, 78240, Note_on_c, 0, 75, 0
2, 78240, Note_on_c, 0, 74, 51
2, 78320, Note_on_c, 0, 74, 0
2, 78320, Note_on_c, 0, 67, 36
2, 78400, Note_on_c, 0, 67, 0
2, 78400, Note_on_c, 0, 62, 35
2, 78480, Note_on_c, 0, 62, 0
2, 78480, Note_on_c, 0, 59, 28
2, 78560, Note_on_c, 0, 59, 0
2, 78560, Note_on_c, 0, 53, 23
2, 78640, Note_on_c, 0, 53, 0
2, 78640, Note_on_c, 0, 71, 50
2, 78720, Note_on_c, 0, 71, 0
2, 78720, Note_on_c, 0, 72, 51
2, 78800, Note_on_c, 0, 72, 0
2, 78800, Note_on_c, 0, 67, 35
2, 78880, Note_on_c, 0, 67, 0
2, 78880, Note_on_c, 0, 68, 35
2, 78960, Note_on_c, 0, 68, 0
2, 78960, Note_on_c, 0, 63, 32
2, 79040, Note_on_c, 0, 63, 0
2, 79040, Note_on_c, 0, 60, 27
2, 79120, Note_on_c, 0, 60, 0
2, 79120, Note_on_c, 0, 74, 48
2, 79200, Note_on_c, 0, 74, 0
2, 79200, Note_on_c, 0, 75, 52
2, 79280, Note_on_c, 0, 75, 0
2, 79280, Note_on_c, 0, 67, 38
2, 79360, Note_on_c, 0, 67, 0
2, 79360, Note_on_c, 0, 60, 36
2, 79440, Note_on_c, 0, 60, 0
2, 79440, Note_on_c, 0, 55, 33
2, 79520, Note_on_c, 0, 55, 0
2, 79520, Note_on_c, 0, 51, 31
2, 79600, Note_on_c, 0, 51, 0
2, 79600, Note_on_c, 0, 72, 55
2, 79680, Note_on_c, 0, 72, 0
2, 79680, Note_on_c, 0, 80, 62
2, 79760, Note_on_c, 0, 80, 0
2, 79760, Note_on_c, 0, 68, 43
2, 79840, Note_on_c, 0, 68, 0
2, 79840, Note_on_c, 0, 60, 43
2, 79920, Note_on_c, 0, 60, 0
2, 79920, Note_on_c, 0, 53, 38
2, 80000, Note_on_c, 0, 53, 0
2, 80000, Note_on_c, 0, 50, 31
2, 80080, Note_on_c, 0, 50, 0
2, 80080, Note_on_c, 0, 80, 57
2, 80160, Note_on_c, 0, 80, 0
2, 80160, Note_on_c, 0, 79, 62
2, 80240, Note_on_c, 0, 79, 0
2, 80240, Note_on_c, 0, 67, 45
2, 80320, Note_on_c, 0, 67, 0
2, 80320, Note_on_c, 0, 59, 43
2, 80400, Note_on_c, 0, 59, 0
2, 80400, Note_on_c, 0, 50, 38
2, 80480, Note_on_c, 0, 50, 0
2, 80480, Note_on_c, 0, 43, 31
2, 80560, Note_on_c, 0, 43, 0
2, 80560, Note_on_c, 0, 79, 56
2, 80640, Note_on_c, 0, 79, 0
2, 80640, Note_on_c, 0, 75, 63
2, 80720, Note_on_c, 0, 75, 0
2, 80720, Note_on_c, 0, 67, 40
2, 80800, Note_on_c, 0, 67, 0
2, 80800, Note_on_c, 0, 60, 40
2, 80880, Note_on_c, 0, 60, 0
2, 80880, Note_on_c, 0, 51, 35
2, 80960, Note_on_c, 0, 51, 0
2, 80960, Note_on_c, 0, 48, 30
2, 81040, Note_on_c, 0, 48, 0
2, 81040, Note_on_c, 0, 75, 51
2, 81120, Note_on_c, 0, 75, 0
2, 81120, Note_on_c, 0, 72, 54
2, 81200, Note_on_c, 0, 72, 0
2, 81200, Note_on_c, 0, 67, 42
2, 81280, Note_on_c, 0, 67, 0
2, 81280, Note_on_c, 0, 60, 36
2, 81360, Note_on_c, 0, 60, 0
2, 81360, Note_on_c, 0, 55, 30
2, 81440, Note_on_c, 0, 55, 0
2, 81440, Note_on_c, 0, 51, 27
2, 81520, Note_on_c, 0, 51, 0
2, 81520, Note_on_c, 0, 77, 50
2, 81600, Note_on_c, 0, 77, 0
2, 81600, Note_on_c, 0, 75, 56
2, 81680, Note_on_c, 0, 75, 0
2, 81680, Note_on_c, 0, 66, 41
2, 81760, Note_on_c, 0, 66, 0
2, 81760, Note_on_c, 0, 70, 44
2, 81840, Note_on_c, 0, 70, 0
2, 81840, Note_on_c, 0, 63, 35
2, 81920, Note_on_c, 0, 63, 0
2, 81920, Note_on_c, 0, 60, 33
2, 82000, Note_on_c, 0, 60, 0
2, 82000, Note_on_c, 0, 73, 50
2, 82080, Note_on_c, 0, 73, 0
2, 82080, Note_on_c, 0, 72, 54
2, 82160, Note_on_c, 0, 72, 0
2, 82160, Note_on_c, 0, 65, 44
2, 82240, Note_on_c, 0, 65, 0
2, 82240, Note_on_c, 0, 60, 39
2, 82320, Note_on_c, 0, 60, 0
2, 82320, Note_on_c, 0, 57, 37
2, 82400, Note_on_c, 0, 57, 0
2, 82400, Note_on_c, 0, 51, 32
2, 82480, Note_on_c, 0, 51, 0
2, 82480, Note_on_c, 0, 69, 52
2, 82560, Note_on_c, 0, 69, 0
2, 82560, Note_on_c, 0, 70, 56
2, 82640, Note_on_c, 0, 70, 0
2, 82640, Note_on_c, 0, 65, 40
2, 82720, Note_on_c, 0, 65, 0
2, 82720, Note_on_c, 0, 66, 40
2, 82800, Note_on_c, 0, 66, 0
2, 82800, Note_on_c, 0, 61, 36
2, 82880, Note_on_c, 0, 61, 0
2, 82880, Note_on_c, 0, 58, 31
2, 82960, Note_on_c, 0, 58, 0
2, 82960, Note_on_c, 0, 72, 53
2, 83040, Note_on_c, 0, 72, 0
2, 83040, Note_on_c, 0, 73, 61
2, 83120, Note_on_c, 0, 73, 0
2, 83120, Note_on_c, 0, 65, 43
2, 83200, Note_on_c, 0, 65, 0
2, 83200, Note_on_c, 0, 58, 42
2, 83280, Note_on_c, 0, 58, 0
2, 83280, Note_on_c, 0, 53, 39
2, 83360, Note_on_c, 0, 53, 0
2, 83360, Note_on_c, 0, 49, 34
2, 83440, Note_on_c, 0, 49, 0
2, 83440, Note_on_c, 0, 70, 57
2, 83520, Note_on_c, 0, 70, 0
2, 83520, Note_on_c, 0, 78, 67
2, 83600, Note_on_c, 0, 78, 0
2, 83600, Note_on_c, 0, 66, 49
2, 83680, Note_on_c, 0, 66, 0
2, 83680, Note_on_c, 0, 63, 44
2, 83760, Note_on_c, 0, 63, 0
2, 83760, Note_on_c, 0, 58, 40
2, 83840, Note_on_c, 0, 58, 0
2, 83840, Note_on_c, 0, 51, 35
2, 83920, Note_on_c, 0, 51, 0
2, 83920, Note_on_c, 0, 78, 56
2, 84000, Note_on_c, 0, 78, 0
2, 84000, Note_on_c, 0, 81, 65
2, 84080, Note_on_c, 0, 81, 0
2, 84080, Note_on_c, 0, 69, 48
2, 84160, Note_on_c, 0, 69, 0
2, 84160, Note_on_c, 0, 66, 43
2, 84240, Note_on_c, 0, 66, 0
2, 84240, Note_on_c, 0, 63, 37
2, 84320, Note_on_c, 0, 63, 0
2, 84320, Note_on_c, 0, 54, 32
2, 84400, Note_on_c, 0, 54, 0
2, 84400, Note_on_c, 0, 81, 49
2, 84480, Note_on_c, 0, 81, 0
2, 84480, Note_on_c, 0, 82, 60
2, 84560, Note_on_c, 0, 82, 0
2, 84560, Note_on_c, 0, 70, 38
2, 84640, Note_on_c, 0, 70, 0
2, 84640, Note_on_c, 0, 67, 35
2, 84720, Note_on_c, 0, 67, 0
2, 84720, Note_on_c, 0, 63, 32
2, 84800, Note_on_c, 0, 63, 0
2, 84800, Note_on_c, 0, 55, 26
2, 84880, Note_on_c, 0, 55, 0
2, 84880, Note_on_c, 0, 79, 46
2, 84960, Note_on_c, 0, 79, 0
2, 84960, Note_on_c, 0, 77, 53
2, 85040, Note_on_c, 0, 77, 0
2, 85040, Note_on_c, 0, 72, 32
2, 85120, Note_on_c, 0, 72, 0
2, 85120, Note_on_c, 0, 65, 32
2, 85200, Note_on_c, 0, 65, 0
2, 85200, Note_on_c, 0, 63, 27
2, 85280, Note_on_c, 0, 63, 0
2, 85280, Note_on_c, 0, 57, 23
2, 85360, Note_on_c, 0, 57, 0
2, 85360, Note_on_c, 0, 79, 50
2, 85440, Note_on_c, 0, 79, 0
2, 85440, Note_on_c, 0, 77, 51
2, 85520, Note_on_c, 0, 77, 0
2, 85520, Note_on_c, 0, 70, 35
2, 85600, Note_on_c, 0, 70, 0
2, 85600, Note_on_c, 0, 74, 35
2, 85680, Note_on_c, 0, 74, 0
2, 85680, Note_on_c, 0, 65, 30
2, 85760, Note_on_c, 0, 65, 0
2, 85760, Note_on_c, 0, 58, 24
2, 85840, Note_on_c, 0, 58, 0
2, 85840, Note_on_c, 0, 75, 47
2, 85920, Note_on_c, 0, 75, 0
2, 85920, Note_on_c, 0, 74, 51
2, 86000, Note_on_c, 0, 74, 0
2, 86000, Note_on_c, 0, 65, 36
2, 86080, Note_on_c, 0, 65, 0
2, 86080, Note_on_c, 0, 70, 35
2, 86160, Note_on_c, 0, 70, 0
2, 86160, Note_on_c, 0, 62, 28
2, 86240, Note_on_c, 0, 62, 0
2, 86240, Note_on_c, 0, 58, 23
2, 86320, Note_on_c, 0, 58, 0
2, 86320, Note_on_c, 0, 74, 50
2, 86400, Note_on_c, 0, 74, 0
2, 86400, Note_on_c, 0, 72, 51
2, 86480, Note_on_c, 0, 72, 0
2, 86480, Note_on_c, 0, 65, 35
2, 86560, Note_on_c, 0, 65, 0
2, 86560, Note_on_c, 0, 66, 35
2, 86640, Note_on_c, 0, 66, 0
2, 86640, Note_on_c, 0, 63, 32
2, 86720, Note_on_c, 0, 63, 0
2, 86720, Note_on_c, 0, 58, 27
2, 86800, Note_on_c, 0, 58, 0
2, 86800, Note_on_c, 0, 74, 48
2, 86880, Note_on_c, 0, 74, 0
2, 86880, Note_on_c, 0, 75, 52
2, 86960, Note_on_c, 0, 75, 0
2, 86960, Note_on_c, 0, 65, 38
2, 87040, Note_on_c, 0, 65, 0
2, 87040, Note_on_c, 0, 66, 36
2, 87120, Note_on_c, 0, 66, 0
2, 87120, Note_on_c, 0, 63, 32
2, 87200, Note_on_c, 0, 63, 0
2, 87200, Note_on_c, 0, 58, 29
2, 87280, Note_on_c, 0, 58, 0
2, 87280, Note_on_c, 0, 74, 53
2, 87360, Note_on_c, 0, 74, 0
2, 87360, Note_on_c, 0, 72, 54
2, 87440, Note_on_c, 0, 72, 0
2, 87440, Note_on_c, 0, 65, 38
2, 87520, Note_on_c, 0, 65, 0
2, 87520, Note_on_c, 0, 66, 38
2, 87600, Note_on_c, 0, 66, 0
2, 87600, Note_on_c, 0, 63, 33
2, 87680, Note_on_c, 0, 63, 0
2, 87680, Note_on_c, 0, 58, 27
2, 87760, Note_on_c, 0, 58, 0
2, 87760, Note_on_c, 0, 74, 52
2, 87840, Note_on_c, 0, 74, 0
2, 87840, Note_on_c, 0, 75, 56
2, 87920, Note_on_c, 0, 75, 0
2, 87920, Note_on_c, 0, 65, 42
2, 88000, Note_on_c, 0, 65, 0
2, 88000, Note_on_c, 0, 63, 39
2, 88080, Note_on_c, 0, 63, 0
2, 88080, Note_on_c, 0, 60, 36
2, 88160, Note_on_c, 0, 60, 0
2, 88160, Note_on_c, 0, 58, 31
2, 88240, Note_on_c, 0, 58, 0
2, 88240, Note_on_c, 0, 69, 56
2, 88320, Note_on_c, 0, 69, 0
2, 88320, Note_on_c, 0, 70, 57
2, 88400, Note_on_c, 0, 70, 0
2, 88400, Note_on_c, 0, 65, 40
2, 88480, Note_on_c, 0, 65, 0
2, 88480, Note_on_c, 0, 62, 40
2, 88560, Note_on_c, 0, 62, 0
2, 88560, Note_on_c, 0, 58, 36
2, 88640, Note_on_c, 0, 58, 0
2, 88640, Note_on_c, 0, 57, 30
2, 88720, Note_on_c, 0, 57, 0
2, 88720, Note_on_c, 0, 72, 54
2, 88800, Note_on_c, 0, 72, 0
2, 88800, Note_on_c, 0, 74, 57
2, 88880, Note_on_c, 0, 74, 0
2, 88880, Note_on_c, 0, 65, 47
2, 88960, Note_on_c, 0, 65, 0
2, 88960, Note_on_c, 0, 62, 42
2, 89040, Note_on_c, 0, 62, 0
2, 89040, Note_on_c, 0, 58, 36
2, 89120, Note_on_c, 0, 58, 0
2, 89120, Note_on_c, 0, 56, 30
2, 89200, Note_on_c, 0, 56, 0
2, 89200, Note_on_c, 0, 70, 57
2, 89280, Note_on_c, 0, 70, 0
2, 89280, Note_on_c, 0, 75, 57
2, 89360, Note_on_c, 0, 75, 0
2, 89360, Note_on_c, 0, 63, 44
2, 89440, Note_on_c, 0, 63, 0
2, 89440, Note_on_c, 0, 67, 44
2, 89520, Note_on_c, 0, 67, 0
2, 89520, Note_on_c, 0, 58, 38
2, 89600, Note_on_c, 0, 58, 0
2, 89600, Note_on_c, 0, 55, 33
2, 89680, Note_on_c, 0, 55, 0
2, 89680, Note_on_c, 0, 75, 54
2, 89760, Note_on_c, 0, 75, 0
2, 89760, Note_on_c, 0, 71, 57
2, 89840, Note_on_c, 0, 71, 0
2, 89840, Note_on_c, 0, 68, 47
2, 89920, Note_on_c, 0, 68, 0
2, 89920, Note_on_c, 0, 62, 42
2, 90000, Note_on_c, 0, 62, 0
2, 90000, Note_on_c, 0, 56, 36
2, 90080, Note_on_c, 0, 56, 0
2, 90080, Note_on_c, 0, 53, 31
2, 90160, Note_on_c, 0, 53, 0
2, 90160, Note_on_c, 0, 71, 57
2, 90240, Note_on_c, 0, 71, 0
2, 90240, Note_on_c, 0, 72, 57
2, 90320, Note_on_c, 0, 72, 0
2, 90320, Note_on_c, 0, 60, 40
2, 90400, Note_on_c, 0, 60, 0
2, 90400, Note_on_c, 0, 63, 40
2, 90480, Note_on_c, 0, 63, 0
2, 90480, Note_on_c, 0, 55, 36
2, 90560, Note_on_c, 0, 55, 0
2, 90560, Note_on_c, 0, 51, 31
2, 90640, Note_on_c, 0, 51, 0
2, 90640, Note_on_c, 0, 72, 56
2, 90720, Note_on_c, 0, 72, 0
2, 90720, Note_on_c, 0, 66, 61
2, 90800, Note_on_c, 0, 66, 0
2, 90800, Note_on_c, 0, 62, 44
2, 90880, Note_on_c, 0, 62, 0
2, 90880, Note_on_c, 0, 57, 44
2, 90960, Note_on_c, 0, 57, 0
2, 90960, Note_on_c, 0, 50, 38
2, 91040, Note_on_c, 0, 50, 0
2, 91040, Note_on_c, 0, 48, 32
2, 91120, Note_on_c, 0, 48, 0
2, 91120, Note_on_c, 0, 66, 57
2, 91200, Note_on_c, 0, 66, 0
2, 91200, Note_on_c, 0, 67, 62
2, 91280, Note_on_c, 0, 67, 0
2, 91280, Note_on_c, 0, 55, 44
2, 91360, Note_on_c, 0, 55, 0
2, 91360, Note_on_c, 0, 58, 44
2, 91440, Note_on_c, 0, 58, 0
2, 91440, Note_on_c, 0, 50, 38
2, 91520, Note_on_c, 0, 50, 0
2, 91520, Note_on_c, 0, 46, 32
2, 91600, Note_on_c, 0, 46, 0
2, 91600, Note_on_c, 0, 67, 56
2, 91680, Note_on_c, 0, 67, 0
2, 91680, Note_on_c, 0, 66, 61
2, 91760, Note_on_c, 0, 66, 0
2, 91760, Note_on_c, 0, 58, 43
2, 91840, Note_on_c, 0, 58, 0
2, 91840, Note_on_c, 0, 54, 43
2, 91920, Note_on_c, 0, 54, 0
2, 91920, Note_on_c, 0, 46, 38
2, 92000, Note_on_c, 0, 46, 0
2, 92000, Note_on_c, 0, 39, 32
2, 92080, Note_on_c, 0, 39, 0
2, 92080, Note_on_c, 0, 66, 56
2, 92160, Note_on_c, 0, 66, 0
2, 92160, Note_on_c, 0, 65, 57
2, 92240, Note_on_c, 0, 65, 0
2, 92240, Note_on_c, 0, 57, 41
2, 92320, Note_on_c, 0, 57, 0
2, 92320, Note_on_c, 0, 53, 40
2, 92400, Note_on_c, 0, 53, 0
2, 92400, Note_on_c, 0, 45, 36
2, 92480, Note_on_c, 0, 45, 0
2, 92480, Note_on_c, 0, 41, 29
2, 92560, Note_on_c, 0, 41, 0
2, 92560, Note_on_c, 0, 65, 51
2, 92640, Note_on_c, 0, 65, 0
2, 92640, Note_on_c, 0, 62, 54
2, 92720, Note_on_c, 0, 62, 0
2, 92720, Note_on_c, 0, 58, 37
2, 92800, Note_on_c, 0, 58, 0
2, 92800, Note_on_c, 0, 50, 37
2, 92880, Note_on_c, 0, 50, 0
2, 92880, Note_on_c, 0, 41, 35
2, 92960, Note_on_c, 0, 41, 0
2, 92960, Note_on_c, 0, 34, 32
2, 93040, Note_on_c, 0, 34, 0
2, 93040, Note_on_c, 0, 57, 50
2, 93120, Note_on_c, 0, 57, 0
2, 93120, Note_on_c, 0, 58, 57
2, 93200, Note_on_c, 0, 58, 0
2, 93200, Note_on_c, 0, 52, 42
2, 93280, Note_on_c, 0, 52, 0
2, 93280, Note_on_c, 0, 61, 42
2, 93360, Note_on_c, 0, 61, 0
2, 93360, Note_on_c, 0, 64, 57
2, 93440, Note_on_c, 0, 64, 0
2, 93440, Note_on_c, 0, 55, 43
2, 93520, Note_on_c, 0, 55, 0
2, 93520, Note_on_c, 0, 57, 43
2, 93600, Note_on_c, 0, 57, 0
2, 93600, Note_on_c, 0, 58, 57
2, 93680, Note_on_c, 0, 58, 0
2, 93680, Note_on_c, 0, 53, 44
2, 93760, Note_on_c, 0, 53, 0
2, 93760, Note_on_c, 0, 62, 44
2, 93840, Note_on_c, 0, 62, 0
2, 93840, Note_on_c, 0, 65, 57
2, 93920, Note_on_c, 0, 65, 0
2, 93920, Note_on_c, 0, 57, 43
2, 94000, Note_on_c, 0, 57, 0
2, 94000, Note_on_c, 0, 60, 44
2, 94080, Note_on_c, 0, 60, 0
2, 94080, Note_on_c, 0, 61, 57
2, 94160, Note_on_c, 0, 61, 0
2, 94160, Note_on_c, 0, 55, 44
2, 94240, Note_on_c, 0, 55, 0
2, 94240, Note_on_c, 0, 64, 44
2, 94320, Note_on_c, 0, 64, 0
2, 94320, Note_on_c, 0, 67, 59
2, 94400, Note_on_c, 0, 67, 0
2, 94400, Note_on_c, 0, 58, 44
2, 94480, Note_on_c, 0, 58, 0
2, 94480, Note_on_c, 0, 62, 44
2, 94560, Note_on_c, 0, 62, 0
2, 94560, Note_on_c, 0, 63, 59
2, 94640, Note_on_c, 0, 63, 0
2, 94640, Note_on_c, 0, 57, 44
2, 94720, Note_on_c, 0, 57, 0
2, 94720, Note_on_c, 0, 69, 45
2, 94800, Note_on_c, 0, 69, 0
2, 94800, Note_on_c, 0, 72, 59
2, 94880, Note_on_c, 0, 72, 0
2, 94880, Note_on_c, 0, 60, 46
2, 94960, Note_on_c, 0, 60, 0
2, 94960, Note_on_c, 0, 62, 47
2, 95040, Note_on_c, 0, 62, 0
2, 95040, Note_on_c, 0, 63, 62
2, 95120, Note_on_c, 0, 63, 0
2, 95120, Note_on_c, 0, 58, 47
2, 95200, Note_on_c, 0, 58, 0
2, 95200, Note_on_c, 0, 67, 48
2, 95280, Note_on_c, 0, 67, 0
2, 95280, Note_on_c, 0, 70, 63
2, 95360, Note_on_c, 0, 70, 0
2, 95360, Note_on_c, 0, 62, 49
2, 95440, Note_on_c, 0, 62, 0
2, 95440, Note_on_c, 0, 64, 49
2, 95520, Note_on_c, 0, 64, 0
2, 95520, Note_on_c, 0, 65, 65
2, 95600, Note_on_c, 0, 65, 0
2, 95600, Note_on_c, 0, 59, 50
2, 95680, Note_on_c, 0, 59, 0
2, 95680, Note_on_c, 0, 71, 50
2, 95760, Note_on_c, 0, 71, 0
2, 95760, Note_on_c, 0, 74, 66
2, 95840, Note_on_c, 0, 74, 0
2, 95840, Note_on_c, 0, 65, 52
2, 95920, Note_on_c, 0, 65, 0
2, 95920, Note_on_c, 0, 67, 52
2, 96000, Note_on_c, 0, 67, 0
2, 96000, Note_on_c, 0, 68, 69
2, 96080, Note_on_c, 0, 68, 0
2, 96080, Note_on_c, 0, 62, 52
2, 96160, Note_on_c, 0, 62, 0
2, 96160, Note_on_c, 0, 74, 56
2, 96240, Note_on_c, 0, 74, 0
2, 96240, Note_on_c, 0, 77, 71
2, 96320, Note_on_c, 0, 77, 0
2, 96320, Note_on_c, 0, 65, 57
2, 96400, Note_on_c, 0, 65, 0
2, 96400, Note_on_c, 0, 68, 59
2, 96480, Note_on_c, 0, 68, 0
2, 96480, Note_on_c, 0, 69, 76
2, 96560, Note_on_c, 0, 69, 0
2, 96560, Note_on_c, 0, 64, 63
2, 96640, Note_on_c, 0, 64, 0
2, 96640, Note_on_c, 0, 73, 63
2, 96720, Note_on_c, 0, 73, 0
2, 96720, Note_on_c, 0, 76, 77
2, 96800, Note_on_c, 0, 76, 0
2, 96800, Note_on_c, 0, 67, 66
2, 96880, Note_on_c, 0, 67, 0
2, 96880, Note_on_c, 0, 69, 67
2, 96960, Note_on_c, 0, 69, 0
2, 96960, Note_on_c, 0, 70, 81
2, 97040, Note_on_c, 0, 70, 0
2, 97040, Note_on_c, 0, 64, 63
2, 97120, Note_on_c, 0, 64, 0
2, 97120, Note_on_c, 0, 73, 59
2, 97200, Note_on_c, 0, 73, 0
2, 97200, Note_on_c, 0, 76, 63
2, 97280, Note_on_c, 0, 76, 0
2, 97280, Note_on_c, 0, 67, 47
2, 97360, Note_on_c, 0, 67, 0
2, 97360, Note_on_c, 0, 69, 47
2, 97440, Note_on_c, 0, 69, 0
2, 97440, Note_on_c, 0, 70, 63
2, 97520, Note_on_c, 0, 70, 0
2, 97520, Note_on_c, 0, 65, 48
2, 97600, Note_on_c, 0, 65, 0
2, 97600, Note_on_c, 0, 74, 48
2, 97680, Note_on_c, 0, 74, 0
2, 97680, Note_on_c, 0, 77, 62
2, 97760, Note_on_c, 0, 77, 0
2, 97760, Note_on_c, 0, 69, 47
2, 97840, Note_on_c, 0, 69, 0
2, 97840, Note_on_c, 0, 72, 47
2, 97920, Note_on_c, 0, 72, 0
2, 97920, Note_on_c, 0, 73, 62
2, 98000, Note_on_c, 0, 73, 0
2, 98000, Note_on_c, 0, 67, 47
2, 98080, Note_on_c, 0, 67, 0
2, 98080, Note_on_c, 0, 76, 47
2, 98160, Note_on_c, 0, 76, 0
2, 98160, Note_on_c, 0, 79, 62
2, 98240, Note_on_c, 0, 79, 0
2, 98240, Note_on_c, 0, 70, 47
2, 98320, Note_on_c, 0, 70, 0
2, 98320, Note_on_c, 0, 74, 47
2, 98400, Note_on_c, 0, 74, 0
2, 98400, Note_on_c, 0, 75, 62
2, 98480, Note_on_c, 0, 75, 0
2, 98480, Note_on_c, 0, 69, 46
2, 98560, Note_on_c, 0, 69, 0
2, 98560, Note_on_c, 0, 81, 47
2, 98640, Note_on_c, 0, 81, 0
2, 98640, Note_on_c, 0, 84, 62
2, 98720, Note_on_c, 0, 84, 0
2, 98720, Note_on_c, 0, 72, 48
2, 98800, Note_on_c, 0, 72, 0
2, 98800, Note_on_c, 0, 74, 49
2, 98880, Note_on_c, 0, 74, 0
2, 98880, Note_on_c, 0, 75, 65
2, 98960, Note_on_c, 0, 75, 0
2, 98960, Note_on_c, 0, 70, 49
2, 99040, Note_on_c, 0, 70, 0
2, 99040, Note_on_c, 0, 79, 49
2, 99120, Note_on_c, 0, 79, 0
2, 99120, Note_on_c, 0, 82, 72
2, 99200, Note_on_c, 0, 82, 0
2, 99200, Note_on_c, 0, 74, 57
2, 99280, Note_on_c, 0, 74, 0
2, 99280, Note_on_c, 0, 76, 57
2, 99360, Note_on_c, 0, 76, 0
2, 99360, Note_on_c, 0, 77, 74
2, 99440, Note_on_c, 0, 77, 0
2, 99440, Note_on_c, 0, 71, 57
2, 99520, Note_on_c, 0, 71, 0
2, 99520, Note_on_c, 0, 86, 57
2, 99600, Note_on_c, 0, 86, 0
2, 99600, Note_on_c, 0, 89, 76
2, 99680, Note_on_c, 0, 89, 0
2, 99680, Note_on_c, 0, 77, 61
2, 99760, Note_on_c, 0, 77, 0
2, 99760, Note_on_c, 0, 83, 61
2, 99840, Note_on_c, 0, 83, 0
2, 99840, Note_on_c, 0, 85, 82
2, 99920, Note_on_c, 0, 85, 0
2, 99920, Note_on_c, 0, 76, 62
2, 100000, Note_on_c, 0, 76, 0
2, 100000, Note_on_c, 0, 88, 65
2, 100080, Note_on_c, 0, 88, 0
2, 100080, Note_on_c, 0, 93, 82
2, 100160, Note_on_c, 0, 93, 0
2, 100160, Note_on_c, 0, 81, 67
2, 100240, Note_on_c, 0, 81, 0
2, 100240, Note_on_c, 0, 86, 80
2, 100320, Note_on_c, 0, 86, 0
2, 100320, Note_on_c, 0, 98, 95
2, 100560, Note_on_c, 0, 98, 0
2, 100640, Note_on_c, 0, 77, 74
2, 100720, Note_on_c, 0, 77, 0
2, 100720, Note_on_c, 0, 81, 74
2, 100800, Note_on_c, 0, 81, 0
2, 100800, Note_on_c, 0, 82, 82
2, 100880, Note_on_c, 0, 82, 0
2, 100880, Note_on_c, 0, 77, 76
2, 100960, Note_on_c, 0, 77, 0
2, 100960, Note_on_c, 0, 86, 72
2, 101040, Note_on_c, 0, 86, 0
2, 101040, Note_on_c, 0, 89, 87
2, 101120, Note_on_c, 0, 89, 0
2, 101120, Note_on_c, 0, 77, 81
2, 101200, Note_on_c, 0, 77, 0
2, 101200, Note_on_c, 0, 81, 84
2, 101280, Note_on_c, 0, 81, 0
2, 101280, Note_on_c, 0, 82, 93
2, 101360, Note_on_c, 0, 82, 0
2, 101360, Note_on_c, 0, 76, 81
2, 101440, Note_on_c, 0, 76, 0
2, 101440, Note_on_c, 0, 80, 74
2, 101520, Note_on_c, 0, 80, 0
2, 101520, Note_on_c, 0, 81, 82
2, 101600, Note_on_c, 0, 81, 0
2, 101600, Note_on_c, 0, 77, 71
2, 101680, Note_on_c, 0, 77, 0
2, 101680, Note_on_c, 0, 81, 66
2, 101760, Note_on_c, 0, 81, 0
2, 101760, Note_on_c, 0, 82, 82
2, 101840, Note_on_c, 0, 82, 0
2, 101840, Note_on_c, 0, 77, 76
2, 101920, Note_on_c, 0, 77, 0
2, 101920, Note_on_c, 0, 86, 72
2, 102000, Note_on_c, 0, 86, 0
2, 102000, Note_on_c, 0, 89, 87
2, 102080, Note_on_c, 0, 89, 0
2, 102080, Note_on_c, 0, 77, 81
2, 102160, Note_on_c, 0, 77, 0
2, 102160, Note_on_c, 0, 81, 84
2, 102240, Note_on_c, 0, 81, 0
2, 102240, Note_on_c, 0, 82, 93
2, 102320, Note_on_c, 0, 82, 0
2, 102320, Note_on_c, 0, 76, 81
2, 102400, Note_on_c, 0, 76, 0
2, 102400, Note_on_c, 0, 80, 74
2, 102480, Note_on_c, 0, 80, 0
2, 102480, Note_on_c, 0, 81, 82
2, 102560, Note_on_c, 0, 81, 0
2, 102560, Note_on_c, 0, 76, 71
2, 102640, Note_on_c, 0, 76, 0
2, 102640, Note_on_c, 0, 81, 66
2, 102720, Note_on_c, 0, 81, 0
2, 102720, Note_on_c, 0, 86, 82
2, 102800, Note_on_c, 0, 86, 0
2, 102800, Note_on_c, 0, 74, 71
2, 102880, Note_on_c, 0, 74, 0
2, 102880, Note_on_c, 0, 79, 66
2, 102960, Note_on_c, 0, 79, 0
2, 102960, Note_on_c, 0, 81, 80
2, 103040, Note_on_c, 0, 81, 0
2, 103040, Note_on_c, 0, 74, 72
2, 103120, Note_on_c, 0, 74, 0
2, 103120, Note_on_c, 0, 79, 71
2, 103200, Note_on_c, 0, 79, 0
2, 103200, Note_on_c, 0, 84, 77
2, 103280, Note_on_c, 0, 84, 0
2, 103280, Note_on_c, 0, 72, 67
2, 103360, Note_on_c, 0, 72, 0
2, 103360, Note_on_c, 0, 77, 63
2, 103440, Note_on_c, 0, 77, 0
2, 103440, Note_on_c, 0, 79, 73
2, 103520, Note_on_c, 0, 79, 0
2, 103520, Note_on_c, 0, 72, 61
2, 103600, Note_on_c, 0, 72, 0
2, 103600, Note_on_c, 0, 77, 61
2, 103680, Note_on_c, 0, 77, 0
2, 103680, Note_on_c, 0, 82, 72
2, 103760, Note_on_c, 0, 82, 0
2, 103760, Note_on_c, 0, 70, 66
2, 103840, Note_on_c, 0, 70, 0
2, 103840, Note_on_c, 0, 76, 59
2, 103920, Note_on_c, 0, 76, 0
2, 103920, Note_on_c, 0, 77, 69
2, 104000, Note_on_c, 0, 77, 0
2, 104000, Note_on_c, 0, 70, 60
2, 104080, Note_on_c, 0, 70, 0
2, 104080, Note_on_c, 0, 76, 60
2, 104160, Note_on_c, 0, 76, 0
2, 104160, Note_on_c, 0, 81, 68
2, 104240, Note_on_c, 0, 81, 0
2, 104240, Note_on_c, 0, 69, 59
2, 104320, Note_on_c, 0, 69, 0
2, 104320, Note_on_c, 0, 74, 52
2, 104400, Note_on_c, 0, 74, 0
2, 104400, Note_on_c, 0, 76, 65
2, 104480, Note_on_c, 0, 76, 0
2, 104480, Note_on_c, 0, 69, 54
2, 104560, Note_on_c, 0, 69, 0
2, 104560, Note_on_c, 0, 74, 48
2, 104640, Note_on_c, 0, 74, 0
2, 104640, Note_on_c, 0, 75, 73
2, 104720, Note_on_c, 0, 75, 0
2, 104720, Note_on_c, 0, 70, 68
2, 104800, Note_on_c, 0, 70, 0
2, 104800, Note_on_c, 0, 79, 65
2, 104880, Note_on_c, 0, 79, 0
2, 104880, Note_on_c, 0, 82, 77
2, 104960, Note_on_c, 0, 82, 0
2, 104960, Note_on_c, 0, 70, 72
2, 105040, Note_on_c, 0, 70, 0
2, 105040, Note_on_c, 0, 74, 76
2, 105120, Note_on_c, 0, 74, 0
2, 105120, Note_on_c, 0, 79, 83
2, 105200, Note_on_c, 0, 79, 0
2, 105200, Note_on_c, 0, 70, 72
2, 105280, Note_on_c, 0, 70, 0
2, 105280, Note_on_c, 0, 74, 67
2, 105360, Note_on_c, 0, 74, 0
2, 105360, Note_on_c, 0, 75, 73
2, 105440, Note_on_c, 0, 75, 0
2, 105440, Note_on_c, 0, 70, 63
2, 105520, Note_on_c, 0, 70, 0
2, 105520, Note_on_c, 0, 74, 57
2, 105600, Note_on_c, 0, 74, 0
2, 105600, Note_on_c, 0, 75, 73
2, 105680, Note_on_c, 0, 75, 0
2, 105680, Note_on_c, 0, 70, 68
2, 105760, Note_on_c, 0, 70, 0
2, 105760, Note_on_c, 0, 79, 65
2, 105840, Note_on_c, 0, 79, 0
2, 105840, Note_on_c, 0, 82, 77
2, 105920, Note_on_c, 0, 82, 0
2, 105920, Note_on_c, 0, 70, 72
2, 106000, Note_on_c, 0, 70, 0
2, 106000, Note_on_c, 0, 74, 69
2, 106080, Note_on_c, 0, 74, 0
2, 106080, Note_on_c, 0, 79, 83
2, 106160, Note_on_c, 0, 79, 0
2, 106160, Note_on_c, 0, 70, 72
2, 106240, Note_on_c, 0, 70, 0
2, 106240, Note_on_c, 0, 74, 67
2, 106320, Note_on_c, 0, 74, 0
2, 106320, Note_on_c, 0, 75, 73
2, 106400, Note_on_c, 0, 75, 0
2, 106400, Note_on_c, 0, 71, 63
2, 106480, Note_on_c, 0, 71, 0
2, 106480, Note_on_c, 0, 75, 57
2, 106560, Note_on_c, 0, 75, 0
2, 106560, Note_on_c, 0, 78, 76
2, 106640, Note_on_c, 0, 78, 0
2, 106640, Note_on_c, 0, 66, 63
2, 106720, Note_on_c, 0, 66, 0
2, 106720, Note_on_c, 0, 71, 69
2, 106800, Note_on_c, 0, 71, 0
2, 106800, Note_on_c, 0, 75, 76
2, 106880, Note_on_c, 0, 75, 0
2, 106880, Note_on_c, 0, 63, 66
2, 106960, Note_on_c, 0, 63, 0
2, 106960, Note_on_c, 0, 66, 66
2, 107040, Note_on_c, 0, 66, 0
2, 107040, Note_on_c, 0, 71, 73
2, 107120, Note_on_c, 0, 71, 0
2, 107120, Note_on_c, 0, 61, 65
2, 107200, Note_on_c, 0, 61, 0
2, 107200, Note_on_c, 0, 67, 61
2, 107280, Note_on_c, 0, 67, 0
2, 107280, Note_on_c, 0, 70, 69
2, 107360, Note_on_c, 0, 70, 0
2, 107360, Note_on_c, 0, 60, 59
2, 107440, Note_on_c, 0, 60, 0
2, 107440, Note_on_c, 0, 63, 54
2, 107520, Note_on_c, 0, 63, 0
2, 107520, Note_on_c, 0, 69, 67
2, 107600, Note_on_c, 0, 69, 0
2, 107600, Note_on_c, 0, 58, 57
2, 107680, Note_on_c, 0, 58, 0
2, 107680, Note_on_c, 0, 62, 54
2, 107760, Note_on_c, 0, 62, 0
2, 107760, Note_on_c, 0, 67, 74
2, 107840, Note_on_c, 0, 67, 0
2, 107840, Note_on_c, 0, 59, 57
2, 107920, Note_on_c, 0, 59, 0
2, 107920, Note_on_c, 0, 62, 53
2, 108000, Note_on_c, 0, 62, 0
2, 108000, Note_on_c, 0, 65, 76
2, 108080, Note_on_c, 0, 65, 0
2, 108080, Note_on_c, 0, 57, 62
2, 108160, Note_on_c, 0, 57, 0
2, 108160, Note_on_c, 0, 61, 57
2, 108240, Note_on_c, 0, 61, 0
2, 108240, Note_on_c, 0, 64, 76
2, 108320, Note_on_c, 0, 64, 0
2, 108320, Note_on_c, 0, 55, 61
2, 108400, Note_on_c, 0, 55, 0
2, 108400, Note_on_c, 0, 57, 61
2, 108480, Note_on_c, 0, 57, 0
2, 108480, Note_on_c, 0, 58, 77
2, 108560, Note_on_c, 0, 58, 0
2, 108560, Note_on_c, 0, 52, 57
2, 108640, Note_on_c, 0, 52, 0
2, 108640, Note_on_c, 0, 61, 57
2, 108720, Note_on_c, 0, 61, 0
2, 108720, Note_on_c, 0, 64, 63
2, 108800, Note_on_c, 0, 64, 0
2, 108800, Note_on_c, 0, 55, 47
2, 108880, Note_on_c, 0, 55, 0
2, 108880, Note_on_c, 0, 57, 47
2, 108960, Note_on_c, 0, 57, 0
2, 108960, Note_on_c, 0, 58, 63
2, 109040, Note_on_c, 0, 58, 0
2, 109040, Note_on_c, 0, 53, 48
2, 109120, Note_on_c, 0, 53, 0
2, 109120, Note_on_c, 0, 62, 48
2, 109200, Note_on_c, 0, 62, 0
2, 109200, Note_on_c, 0, 65, 62
2, 109280, Note_on_c, 0, 65, 0
2, 109280, Note_on_c, 0, 57, 47
2, 109360, Note_on_c, 0, 57, 0
2, 109360, Note_on_c, 0, 60, 47
2, 109440, Note_on_c, 0, 60, 0
2, 109440, Note_on_c, 0, 61, 62
2, 109520, Note_on_c, 0, 61, 0
2, 109520, Note_on_c, 0, 55, 47
2, 109600, Note_on_c, 0, 55, 0
2, 109600, Note_on_c, 0, 64, 47
2, 109680, Note_on_c, 0, 64, 0
2, 109680, Note_on_c, 0, 67, 62
2, 109760, Note_on_c, 0, 67, 0
2, 109760, Note_on_c, 0, 58, 47
2, 109840, Note_on_c, 0, 58, 0
2, 109840, Note_on_c, 0, 62, 47
2, 109920, Note_on_c, 0, 62, 0
2, 109920, Note_on_c, 0, 63, 62
2, 110000, Note_on_c, 0, 63, 0
2, 110000, Note_on_c, 0, 57, 46
2, 110080, Note_on_c, 0, 57, 0
2, 110080, Note_on_c, 0, 69, 47
2, 110160, Note_on_c, 0, 69, 0
2, 110160, Note_on_c, 0, 72, 62
2, 110240, Note_on_c, 0, 72, 0
2, 110240, Note_on_c, 0, 60, 48
2, 110320, Note_on_c, 0, 60, 0
2, 110320, Note_on_c, 0, 62, 49
2, 110400, Note_on_c, 0, 62, 0
2, 110400, Note_on_c, 0, 63, 65
2, 110480, Note_on_c, 0, 63, 0
2, 110480, Note_on_c, 0, 58, 49
2, 110560, Note_on_c, 0, 58, 0
2, 110560, Note_on_c, 0, 67, 49
2, 110640, Note_on_c, 0, 67, 0
2, 110640, Note_on_c, 0, 70, 65
2, 110720, Note_on_c, 0, 70, 0
2, 110720, Note_on_c, 0, 62, 50
2, 110800, Note_on_c, 0, 62, 0
2, 110800, Note_on_c, 0, 64, 50
2, 110880, Note_on_c, 0, 64, 0
2, 110880, Note_on_c, 0, 65, 67
2, 110960, Note_on_c, 0, 65, 0
2, 110960, Note_on_c, 0, 59, 51
2, 111040, Note_on_c, 0, 59, 0
2, 111040, Note_on_c, 0, 71, 51
2, 111120, Note_on_c, 0, 71, 0
2, 111120, Note_on_c, 0, 74, 67
2, 111200, Note_on_c, 0, 74, 0
2, 111200, Note_on_c, 0, 65, 52
2, 111280, Note_on_c, 0, 65, 0
2, 111280, Note_on_c, 0, 67, 52
2, 111360, Note_on_c, 0, 67, 0
2, 111360, Note_on_c, 0, 68, 69
2, 111440, Note_on_c, 0, 68, 0
2, 111440, Note_on_c, 0, 62, 52
2, 111520, Note_on_c, 0, 62, 0
2, 111520, Note_on_c, 0, 74, 56
2, 111600, Note_on_c, 0, 74, 0
2, 111600, Note_on_c, 0, 77, 71
2, 111680, Note_on_c, 0, 77, 0
2, 111680, Note_on_c, 0, 65, 57
2, 111760, Note_on_c, 0, 65, 0
2, 111760, Note_on_c, 0, 68, 59
2, 111840, Note_on_c, 0, 68, 0
2, 111840, Note_on_c, 0, 69, 76
2, 111920, Note_on_c, 0, 69, 0
2, 111920, Note_on_c, 0, 64, 63
2, 112000, Note_on_c, 0, 64, 0
2, 112000, Note_on_c, 0, 73, 63
2, 112080, Note_on_c, 0, 73, 0
2, 112080, Note_on_c, 0, 76, 77
2, 112160, Note_on_c, 0, 76, 0
2, 112160, Note_on_c, 0, 67, 66
2, 112240, Note_on_c, 0, 67, 0
2, 112240, Note_on_c, 0, 69, 67
2, 112320, Note_on_c, 0, 69, 0
2, 112320, Note_on_c, 0, 70, 81
2, 112400, Note_on_c, 0, 70, 0
2, 112400, Note_on_c, 0, 64, 63
2, 112480, Note_on_c, 0, 64, 0
2, 112480, Note_on_c, 0, 73, 59
2, 112560, Note_on_c, 0, 73, 0
2, 112560, Note_on_c, 0, 76, 72
2, 112640, Note_on_c, 0, 76, 0
2, 112640, Note_on_c, 0, 67, 52
2, 112720, Note_on_c, 0, 67, 0
2, 112720, Note_on_c, 0, 69, 52
2, 112800, Note_on_c, 0, 69, 0
2, 112800, Note_on_c, 0, 70, 73
2, 112880, Note_on_c, 0, 70, 0
2, 112880, Note_on_c, 0, 65, 55
2, 112960, Note_on_c, 0, 65, 0
2, 112960, Note_on_c, 0, 74, 55
2, 113040, Note_on_c, 0, 74, 0
2, 113040, Note_on_c, 0, 77, 70
2, 113120, Note_on_c, 0, 77, 0
2, 113120, Note_on_c, 0, 69, 54
2, 113200, Note_on_c, 0, 69, 0
2, 113200, Note_on_c, 0, 72, 55
2, 113280, Note_on_c, 0, 72, 0
2, 113280, Note_on_c, 0, 73, 74
2, 113360, Note_on_c, 0, 73, 0
2, 113360, Note_on_c, 0, 67, 54
2, 113440, Note_on_c, 0, 67, 0
2, 113440, Note_on_c, 0, 76, 55
2, 113520, Note_on_c, 0, 76, 0
2, 113520, Note_on_c, 0, 79, 72
2, 113600, Note_on_c, 0, 79, 0
2, 113600, Note_on_c, 0, 70, 54
2, 113680, Note_on_c, 0, 70, 0
2, 113680, Note_on_c, 0, 74, 54
2, 113760, Note_on_c, 0, 74, 0
2, 113760, Note_on_c, 0, 75, 73
2, 113840, Note_on_c, 0, 75, 0
2, 113840, Note_on_c, 0, 69, 52
2, 113920, Note_on_c, 0, 69, 0
2, 113920, Note_on_c, 0, 81, 54
2, 114000, Note_on_c, 0, 81, 0
2, 114000, Note_on_c, 0, 84, 71
2, 114080, Note_on_c, 0, 84, 0
2, 114080, Note_on_c, 0, 72, 52
2, 114160, Note_on_c, 0, 72, 0
2, 114160, Note_on_c, 0, 74, 55
2, 114240, Note_on_c, 0, 74, 0
2, 114240, Note_on_c, 0, 75, 72
2, 114320, Note_on_c, 0, 75, 0
2, 114320, Note_on_c, 0, 70, 57
2, 114400, Note_on_c, 0, 70, 0
2, 114400, Note_on_c, 0, 79, 57
2, 114480, Note_on_c, 0, 79, 0
2, 114480, Note_on_c, 0, 82, 74
2, 114560, Note_on_c, 0, 82, 0
2, 114560, Note_on_c, 0, 74, 57
2, 114640, Note_on_c, 0, 74, 0
2, 114640, Note_on_c, 0, 76, 57
2, 114720, Note_on_c, 0, 76, 0
2, 114720, Note_on_c, 0, 77, 79
2, 114800, Note_on_c, 0, 77, 0
2, 114800, Note_on_c, 0, 71, 57
2, 114880, Note_on_c, 0, 71, 0
2, 114880, Note_on_c, 0, 86, 57
2, 114960, Note_on_c, 0, 86, 0
2, 114960, Note_on_c, 0, 89, 79
2, 115040, Note_on_c, 0, 89, 0
2, 115040, Note_on_c, 0, 77, 61
2, 115120, Note_on_c, 0, 77, 0
2, 115120, Note_on_c, 0, 83, 61
2, 115200, Note_on_c, 0, 83, 0
2, 115200, Note_on_c, 0, 85, 82
2, 115280, Note_on_c, 0, 85, 0
2, 115280, Note_on_c, 0, 76, 62
2, 115360, Note_on_c, 0, 76, 0
2, 115360, Note_on_c, 0, 88, 65
2, 115440, Note_on_c, 0, 88, 0
2, 115440, Note_on_c, 0, 93, 82
2, 115520, Note_on_c, 0, 93, 0
2, 115520, Note_on_c, 0, 81, 67
2, 115600, Note_on_c, 0, 81, 0
2, 115600, Note_on_c, 0, 86, 80
2, 115680, Note_on_c, 0, 86, 0
2, 115680, Note_on_c, 0, 98, 95
2, 115920, Note_on_c, 0, 98, 0
2, 115920, End_track
3, 0, Start_track
3, 0, Title_t, "Piano left"
3, 0, Program_c, 0, 0
3, 0, Control_c, 0, 91, 127
3, 1200, Note_on_c, 0, 33, 50
3, 1200, Note_on_c, 0, 45, 60
3, 1290, Note_on_c, 0, 45, 0
3, 1290, Note_on_c, 0, 33, 0
3, 1680, Note_on_c, 0, 38, 50
3, 1680, Note_on_c, 0, 50, 60
3, 1770, Note_on_c, 0, 50, 0
3, 1770, Note_on_c, 0, 38, 0
3, 2160, Note_on_c, 0, 52, 60
3, 2160, Note_on_c, 0, 40, 50
3, 2250, Note_on_c, 0, 40, 0
3, 2250, Note_on_c, 0, 52, 0
3, 2640, Note_on_c, 0, 42, 51
3, 2640, Note_on_c, 0, 54, 61
3, 2730, Note_on_c, 0, 54, 0
3, 2730, Note_on_c, 0, 42, 0
3, 3120, Note_on_c, 0, 43, 53
3, 3120, Note_on_c, 0, 55, 63
3, 3210, Note_on_c, 0, 55, 0
3, 3210, Note_on_c, 0, 43, 0
3, 3600, Note_on_c, 0, 56, 65
3, 3600, Note_on_c, 0, 44, 54
3, 3690, Note_on_c, 0, 44, 0
3, 3690, Note_on_c, 0, 56, 0
3, 4080, Note_on_c, 0, 45, 60
3, 4080, Note_on_c, 0, 57, 72
3, 4800, Note_on_c, 0, 57, 0
3, 4800, Note_on_c, 0, 45, 0
3, 5040, Note_on_c, 0, 45, 50
3, 5040, Note_on_c, 0, 57, 60
3, 5040, Note_on_c, 0, 49, 50
3, 5130, Note_on_c, 0, 49, 0
3, 5130, Note_on_c, 0, 57, 0
3, 5130, Note_on_c, 0, 45, 0
3, 5520, Note_on_c, 0, 50, 50
3, 5520, Note_on_c, 0, 53, 50
3, 5520, Note_on_c, 0, 62, 60
3, 5610, Note_on_c, 0, 62, 0
3, 5610, Note_on_c, 0, 53, 0
3, 5610, Note_on_c, 0, 50, 0
3, 6000, Note_on_c, 0, 61, 60
3, 6000, Note_on_c, 0, 52, 50
3, 6000, Note_on_c, 0, 55, 50
3, 6090, Note_on_c, 0, 55, 0
3, 6090, Note_on_c, 0, 52, 0
3, 6090, Note_on_c, 0, 61, 0
3, 6480, Note_on_c, 0, 60, 51
3, 6480, Note_on_c, 0, 57, 51
3, 6480, Note_on_c, 0, 62, 61
3, 6480, Note_on_c, 0, 54, 51
3, 6570, Note_on_c, 0, 54, 0
3, 6570, Note_on_c, 0, 60, 0
3, 6570, Note_on_c, 0, 57, 0
3, 6570, Note_on_c, 0, 62, 0
3, 6960, Note_on_c, 0, 67, 63
3, 6960, Note_on_c, 0, 63, 53
3, 6960, Note_on_c, 0, 58, 53
3, 6960, Note_on_c, 0, 55, 53
3, 7050, Note_on_c, 0, 55, 0
3, 7050, Note_on_c, 0, 67, 0
3, 7050, Note_on_c, 0, 63, 0
3, 7050, Note_on_c, 0, 58, 0
3, 7440, Note_on_c, 0, 56, 54
3, 7440, Note_on_c, 0, 62, 54
3, 7440, Note_on_c, 0, 65, 65
3, 7440, Note_on_c, 0, 59, 54
3, 7530, Note_on_c, 0, 59, 0
3, 7530, Note_on_c, 0, 56, 0
3, 7530, Note_on_c, 0, 62, 0
3, 7530, Note_on_c, 0, 65, 0
3, 7920, Note_on_c, 0, 61, 56
3, 7920, Note_on_c, 0, 57, 56
3, 7920, Note_on_c, 0, 69, 68
3, 8160, Note_on_c, 0, 69, 0
3, 8160, Note_on_c, 0, 57, 0
3, 8160, Note_on_c, 0, 61, 0
3, 8160, Note_on_c, 0, 65, 56
3, 8160, Note_on_c, 0, 62, 56
3, 8160, Note_on_c, 0, 74, 68
3, 8160, Note_on_c, 0, 69, 56
3, 8400, Note_on_c, 0, 69, 0
3, 8400, Note_on_c, 0, 65, 0
3, 8400, Note_on_c, 0, 62, 0
3, 8400, Note_on_c, 0, 74, 0
3, 8880, Note_on_c, 0, 45, 60
3, 8880, Note_on_c, 0, 33, 50
3, 8970, Note_on_c, 0, 33, 0
3, 8970, Note_on_c, 0, 45, 0
3, 9360, Note_on_c, 0, 38, 50
3, 9360, Note_on_c, 0, 50, 60
3, 9450, Note_on_c, 0, 50, 0
3, 9450, Note_on_c, 0, 38, 0
3, 9840, Note_on_c, 0, 52, 60
3, 9840, Note_on_c, 0, 40, 50
3, 9930, Note_on_c, 0, 40, 0
3, 9930, Note_on_c, 0, 52, 0
3, 10320, Note_on_c, 0, 42, 51
3, 10320, Note_on_c, 0, 54, 61
3, 10410, Note_on_c, 0, 54, 0
3, 10410, Note_on_c, 0, 42, 0
3, 10800, Note_on_c, 0, 43, 53
3, 10800, Note_on_c, 0, 55, 63
3, 10890, Note_on_c, 0, 55, 0
3, 10890, Note_on_c, 0, 43, 0
3, 11280, Note_on_c, 0, 56, 65
3, 11280, Note_on_c, 0, 44, 54
3, 11370, Note_on_c, 0, 44, 0
3, 11370, Note_on_c, 0, 56, 0
3, 11760, Note_on_c, 0, 57, 72
3, 11760, Note_on_c, 0, 45, 60
3, 12480, Note_on_c, 0, 45, 0
3, 12480, Note_on_c, 0, 57, 0
3, 12720, Note_on_c, 0, 57, 60
3, 12720, Note_on_c, 0, 49, 50
3, 12720, Note_on_c, 0, 45, 50
3, 12810, Note_on_c, 0, 45, 0
3, 12810, Note_on_c, 0, 49, 0
3, 12810, Note_on_c, 0, 57, 0
3, 13200, Note_on_c, 0, 62, 60
3, 13200, Note_on_c, 0, 53, 50
3, 13200, Note_on_c, 0, 50, 50
3, 13290, Note_on_c, 0, 50, 0
3, 13290, Note_on_c, 0, 53, 0
3, 13290, Note_on_c, 0, 62, 0
3, 13680, Note_on_c, 0, 55, 50
3, 13680, Note_on_c, 0, 52, 50
3, 13680, Note_on_c, 0, 61, 60
3, 13770, Note_on_c, 0, 61, 0
3, 13770, Note_on_c, 0, 52, 0
3, 13770, Note_on_c, 0, 55, 0
3, 14160, Note_on_c, 0, 60, 51
3, 14160, Note_on_c, 0, 57, 51
3, 14160, Note_on_c, 0, 54, 51
3, 14160, Note_on_c, 0, 62, 61
3, 14250, Note_on_c, 0, 62, 0
3, 14250, Note_on_c, 0, 60, 0
3, 14250, Note_on_c, 0, 57, 0
3, 14250, Note_on_c, 0, 54, 0
3, 14640, Note_on_c, 0, 67, 63
3, 14640, Note_on_c, 0, 58, 53
3, 14640, Note_on_c, 0, 55, 53
3, 14640, Note_on_c, 0, 63, 53
3, 14730, Note_on_c, 0, 63, 0
3, 14730, Note_on_c, 0, 67, 0
3, 14730, Note_on_c, 0, 58, 0
3, 14730, Note_on_c, 0, 55, 0
3, 15120, Note_on_c, 0, 59, 54
3, 15120, Note_on_c, 0, 62, 54
3, 15120, Note_on_c, 0, 56, 54
3, 15120, Note_on_c, 0, 65, 65
3, 15210, Note_on_c, 0, 65, 0
3, 15210, Note_on_c, 0, 59, 0
3, 15210, Note_on_c, 0, 62, 0
3, 15210, Note_on_c, 0, 56, 0
3, 15600, Note_on_c, 0, 61, 56
3, 15600, Note_on_c, 0, 57, 56
3, 15600, Note_on_c, 0, 69, 68
3, 15840, Note_on_c, 0, 69, 0
3, 15840, Note_on_c, 0, 57, 0
3, 15840, Note_on_c, 0, 61, 0
3, 15840, Note_on_c, 0, 74, 68
3, 15840, Note_on_c, 0, 62, 56
3, 15840, Note_on_c, 0, 65, 56
3, 15840, Note_on_c, 0, 69, 56
3, 16080, Note_on_c, 0, 69, 0
3, 16080, Note_on_c, 0, 74, 0
3, 16080, Note_on_c, 0, 62, 0
3, 16080, Note_on_c, 0, 65, 0
3, 16560, Note_on_c, 0, 62, 54
3, 16560, Note_on_c, 0, 69, 73
3, 16800, Note_on_c, 0, 69, 0
3, 16800, Note_on_c, 0, 70, 80
3, 17040, Note_on_c, 0, 70, 0
3, 17040, Note_on_c, 0, 62, 0
3, 17040, Note_on_c, 0, 60, 56
3, 17040, Note_on_c, 0, 69, 73
3, 17280, Note_on_c, 0, 69, 0
3, 17280, Note_on_c, 0, 60, 0
3, 17520, Note_on_c, 0, 62, 49
3, 17520, Note_on_c, 0, 69, 73
3, 17760, Note_on_c, 0, 69, 0
3, 17760, Note_on_c, 0, 70, 80
3, 18000, Note_on_c, 0, 70, 0
3, 18000, Note_on_c, 0, 62, 0
3, 18000, Note_on_c, 0, 60, 51
3, 18000, Note_on_c, 0, 69, 73
3, 18240, Note_on_c, 0, 60, 0
3, 18240, Note_on_c, 0, 58, 59
3, 18480, Note_on_c, 0, 69, 0
3, 18480, Note_on_c, 0, 67, 76
3, 18720, Note_on_c, 0, 58, 0
3, 18720, Note_on_c, 0, 57, 60
3, 18960, Note_on_c, 0, 67, 0
3, 18960, Note_on_c, 0, 65, 76
3, 19200, Note_on_c, 0, 57, 0
3, 19200, Note_on_c, 0, 55, 59
3, 19440, Note_on_c, 0, 65, 0
3, 19440, Note_on_c, 0, 64, 71
3, 19680, Note_on_c, 0, 55, 0
3, 19680, Note_on_c, 0, 53, 54
3, 19920, Note_on_c, 0, 64, 0
3, 19920, Note_on_c, 0, 62, 68
3, 20160, Note_on_c, 0, 62, 0
3, 20160, Note_on_c, 0, 53, 0
3, 20400, Note_on_c, 0, 55, 55
3, 20400, Note_on_c, 0, 58, 55
3, 20400, Note_on_c, 0, 63, 66
3, 20640, Note_on_c, 0, 63, 0
3, 20640, Note_on_c, 0, 58, 0
3, 20640, Note_on_c, 0, 55, 0
3, 20640, Note_on_c, 0, 56, 49
3, 20640, Note_on_c, 0, 67, 71
3, 20640, Note_on_c, 0, 58, 49
3, 20640, Note_on_c, 0, 62, 59
3, 20880, Note_on_c, 0, 62, 0
3, 20880, Note_on_c, 0, 56, 0
3, 20880, Note_on_c, 0, 67, 0
3, 20880, Note_on_c, 0, 58, 0
3, 20880, Note_on_c, 0, 63, 66
3, 20880, Note_on_c, 0, 55, 55
3, 20880, Note_on_c, 0, 58, 55
3, 21120, Note_on_c, 0, 58, 0
3, 21120, Note_on_c, 0, 55, 0
3, 21120, Note_on_c, 0, 63, 0
3, 21360, Note_on_c, 0, 58, 55
3, 21360, Note_on_c, 0, 63, 66
3, 21360, Note_on_c, 0, 55, 55
3, 21600, Note_on_c, 0, 55, 0
3, 21600, Note_on_c, 0, 63, 0
3, 21600, Note_on_c, 0, 58, 0
3, 21600, Note_on_c, 0, 58, 49
3, 21600, Note_on_c, 0, 56, 49
3, 21600, Note_on_c, 0, 67, 71
3, 21600, Note_on_c, 0, 62, 59
3, 21840, Note_on_c, 0, 62, 0
3, 21840, Note_on_c, 0, 58, 0
3, 21840, Note_on_c, 0, 56, 0
3, 21840, Note_on_c, 0, 67, 0
3, 21840, Note_on_c, 0, 58, 55
3, 21840, Note_on_c, 0, 55, 55
3, 21840, Note_on_c, 0, 63, 66
3, 22080, Note_on_c, 0, 63, 0
3, 22080, Note_on_c, 0, 55, 0
3, 22080, Note_on_c, 0, 58, 0
3, 22080, Note_on_c, 0, 54, 57
3, 22080, Note_on_c, 0, 66, 71
3, 22200, Note_on_c, 0, 66, 0
3, 22200, Note_on_c, 0, 54, 0
3, 22320, Note_on_c, 0, 51, 66
3, 22800, Note_on_c, 0, 51, 0
3, 22800, Note_on_c, 0, 52, 59
3, 23040, Note_on_c, 0, 52, 0
3, 23040, Note_on_c, 0, 54, 59
3, 23280, Note_on_c, 0, 54, 0
3, 23280, Note_on_c, 0, 55, 65
3, 23520, Note_on_c, 0, 55, 0
3, 23520, Note_on_c, 0, 56, 70
3, 23760, Note_on_c, 0, 56, 0
3, 23760, Note_on_c, 0, 57, 74
3, 23910, Note_on_c, 0, 57, 0
3, 24240, Note_on_c, 0, 33, 50
3, 24240, Note_on_c, 0, 45, 60
3, 24330, Note_on_c, 0, 45, 0
3, 24330, Note_on_c, 0, 33, 0
3, 24720, Note_on_c, 0, 38, 50
3, 24720, Note_on_c, 0, 50, 60
3, 24810, Note_on_c, 0, 50, 0
3, 24810, Note_on_c, 0, 38, 0
3, 25200, Note_on_c, 0, 40, 50
3, 25200, Note_on_c, 0, 52, 60
3, 25290, Note_on_c, 0, 52, 0
3, 25290, Note_on_c, 0, 40, 0
3, 25680, Note_on_c, 0, 42, 51
3, 25680, Note_on_c, 0, 54, 61
3, 25770, Note_on_c, 0, 54, 0
3, 25770, Note_on_c, 0, 42, 0
3, 26160, Note_on_c, 0, 55, 63
3, 26160, Note_on_c, 0, 43, 53
3, 26250, Note_on_c, 0, 43, 0
3, 26250, Note_on_c, 0, 55, 0
3, 26640, Note_on_c, 0, 56, 65
3, 26640, Note_on_c, 0, 44, 54
3, 26730, Note_on_c, 0, 44, 0
3, 26730, Note_on_c, 0, 56, 0
3, 27120, Note_on_c, 0, 57, 72
3, 27120, Note_on_c, 0, 45, 60
3, 27600, Note_on_c, 0, 61, 73
3, 27780, Note_on_c, 0, 45, 49
3, 27840, Note_on_c, 0, 61, 0
3, 27840, Note_on_c, 0, 57, 0
3, 27840, Note_on_c, 0, 45, 0
3, 27840, Note_on_c, 0, 57, 73
3, 27870, Note_on_c, 0, 45, 0
3, 28080, Note_on_c, 0, 61, 62
3, 28260, Note_on_c, 0, 50, 51
3, 28320, Note_on_c, 0, 61, 0
3, 28320, Note_on_c, 0, 57, 0
3, 28320, Note_on_c, 0, 62, 81
3, 28350, Note_on_c, 0, 50, 0
3, 28560, Note_on_c, 0, 65, 62
3, 28740, Note_on_c, 0, 52, 49
3, 28800, Note_on_c, 0, 65, 0
3, 28800, Note_on_c, 0, 62, 0
3, 28800, Note_on_c, 0, 64, 76
3, 28830, Note_on_c, 0, 52, 0
3, 29040, Note_on_c, 0, 67, 67
3, 29220, Note_on_c, 0, 54, 52
3, 29280, Note_on_c, 0, 67, 0
3, 29280, Note_on_c, 0, 64, 0
3, 29280, Note_on_c, 0, 66, 81
3, 29310, Note_on_c, 0, 54, 0
3, 29520, Note_on_c, 0, 69, 67
3, 29700, Note_on_c, 0, 55, 55
3, 29760, Note_on_c, 0, 69, 0
3, 29760, Note_on_c, 0, 66, 0
3, 29760, Note_on_c, 0, 67, 84
3, 29790, Note_on_c, 0, 55, 0
3, 30000, Note_on_c, 0, 70, 68
3, 30180, Note_on_c, 0, 56, 57
3, 30240, Note_on_c, 0, 70, 0
3, 30240, Note_on_c, 0, 67, 0
3, 30240, Note_on_c, 0, 68, 87
3, 30270, Note_on_c, 0, 56, 0
3, 30480, Note_on_c, 0, 71, 68
3, 30720, Note_on_c, 0, 71, 0
3, 30720, Note_on_c, 0, 68, 0
3, 30720, Note_on_c, 0, 57, 63
3, 30720, Note_on_c, 0, 69, 76
3, 30960, Note_on_c, 0, 69, 0
3, 30960, Note_on_c, 0, 57, 0
3, 30960, Note_on_c, 0, 64, 63
3, 30960, Note_on_c, 0, 73, 76
3, 30960, Note_on_c, 0, 69, 63
3, 30960, Note_on_c, 0, 67, 63
3, 31200, Note_on_c, 0, 67, 0
3, 31200, Note_on_c, 0, 64, 0
3, 31200, Note_on_c, 0, 73, 0
3, 31200, Note_on_c, 0, 69, 0
3, 31200, Note_on_c, 0, 69, 63
3, 31200, Note_on_c, 0, 65, 63
3, 31200, Note_on_c, 0, 74, 76
3, 31200, Note_on_c, 0, 62, 63
3, 31440, Note_on_c, 0, 62, 0
3, 31440, Note_on_c, 0, 69, 0
3, 31440, Note_on_c, 0, 65, 0
3, 31440, Note_on_c, 0, 74, 0
3, 31920, Note_on_c, 0, 62, 48
3, 31920, Note_on_c, 0, 69, 73
3, 32160, Note_on_c, 0, 69, 0
3, 32160, Note_on_c, 0, 70, 80
3, 32400, Note_on_c, 0, 70, 0
3, 32400, Note_on_c, 0, 62, 0
3, 32400, Note_on_c, 0, 69, 73
3, 32400, Note_on_c, 0, 60, 55
3, 32640, Note_on_c, 0, 60, 0
3, 32640, Note_on_c, 0, 69, 0
3, 32880, Note_on_c, 0, 69, 73
3, 32880, Note_on_c, 0, 62, 48
3, 33120, Note_on_c, 0, 69, 0
3, 33120, Note_on_c, 0, 70, 80
3, 33360, Note_on_c, 0, 70, 0
3, 33360, Note_on_c, 0, 62, 0
3, 33360, Note_on_c, 0, 60, 56
3, 33360, Note_on_c, 0, 69, 73
3, 33600, Note_on_c, 0, 60, 0
3, 33600, Note_on_c, 0, 58, 59
3, 33840, Note_on_c, 0, 69, 0
3, 33840, Note_on_c, 0, 67, 76
3, 34080, Note_on_c, 0, 58, 0
3, 34080, Note_on_c, 0, 57, 60
3, 34320, Note_on_c, 0, 67, 0
3, 34320, Note_on_c, 0, 65, 76
3, 34560, Note_on_c, 0, 57, 0
3, 34560, Note_on_c, 0, 55, 59
3, 34800, Note_on_c, 0, 65, 0
3, 34800, Note_on_c, 0, 64, 71
3, 35040, Note_on_c, 0, 55, 0
3, 35040, Note_on_c, 0, 53, 54
3, 35280, Note_on_c, 0, 64, 0
3, 35280, Note_on_c, 0, 62, 68
3, 35520, Note_on_c, 0, 62, 0
3, 35520, Note_on_c, 0, 53, 0
3, 35760, Note_on_c, 0, 55, 55
3, 35760, Note_on_c, 0, 58, 55
3, 35760, Note_on_c, 0, 63, 66
3, 36000, Note_on_c, 0, 63, 0
3, 36000, Note_on_c, 0, 58, 0
3, 36000, Note_on_c, 0, 55, 0
3, 36000, Note_on_c, 0, 62, 59
3, 36000, Note_on_c, 0, 67, 71
3, 36000, Note_on_c, 0, 58, 49
3, 36000, Note_on_c, 0, 56, 49
3, 36240, Note_on_c, 0, 56, 0
3, 36240, Note_on_c, 0, 62, 0
3, 36240, Note_on_c, 0, 67, 0
3, 36240, Note_on_c, 0, 58, 0
3, 36240, Note_on_c, 0, 63, 66
3, 36240, Note_on_c, 0, 55, 55
3, 36240, Note_on_c, 0, 58, 55
3, 36480, Note_on_c, 0, 58, 0
3, 36480, Note_on_c, 0, 55, 0
3, 36480, Note_on_c, 0, 63, 0
3, 36720, Note_on_c, 0, 55, 55
3, 36720, Note_on_c, 0, 58, 55
3, 36720, Note_on_c, 0, 63, 66
3, 36960, Note_on_c, 0, 63, 0
3, 36960, Note_on_c, 0, 58, 0
3, 36960, Note_on_c, 0, 55, 0
3, 36960, Note_on_c, 0, 56, 49
3, 36960, Note_on_c, 0, 58, 49
3, 36960, Note_on_c, 0, 62, 59
3, 36960, Note_on_c, 0, 67, 71
3, 37200, Note_on_c, 0, 67, 0
3, 37200, Note_on_c, 0, 56, 0
3, 37200, Note_on_c, 0, 58, 0
3, 37200, Note_on_c, 0, 62, 0
3, 37200, Note_on_c, 0, 55, 55
3, 37200, Note_on_c, 0, 58, 55
3, 37200, Note_on_c, 0, 63, 66
3, 37440, Note_on_c, 0, 63, 0
3, 37440, Note_on_c, 0, 58, 0
3, 37440, Note_on_c, 0, 55, 0
3, 37440, Note_on_c, 0, 54, 57
3, 37440, Note_on_c, 0, 66, 71
3, 37560, Note_on_c, 0, 66, 0
3, 37560, Note_on_c, 0, 54, 0
3, 37680, Note_on_c, 0, 51, 66
3, 38160, Note_on_c, 0, 51, 0
3, 38160, Note_on_c, 0, 52, 59
3, 38400, Note_on_c, 0, 52, 0
3, 38400, Note_on_c, 0, 54, 59
3, 38640, Note_on_c, 0, 54, 0
3, 38640, Note_on_c, 0, 55, 65
3, 38880, Note_on_c, 0, 55, 0
3, 38880, Note_on_c, 0, 56, 70
3, 39120, Note_on_c, 0, 56, 0
3, 39120, Note_on_c, 0, 57, 74
3, 39270, Note_on_c, 0, 57, 0
3, 39600, Note_on_c, 0, 33, 50
3, 39600, Note_on_c, 0, 45, 60
3, 39690, Note_on_c, 0, 45, 0
3, 39690, Note_on_c, 0, 33, 0
3, 40080, Note_on_c, 0, 38, 50
3, 40080, Note_on_c, 0, 50, 60
3, 40170, Note_on_c, 0, 50, 0
3, 40170, Note_on_c, 0, 38, 0
3, 40560, Note_on_c, 0, 40, 50
3, 40560, Note_on_c, 0, 52, 60
3, 40650, Note_on_c, 0, 52, 0
3, 40650, Note_on_c, 0, 40, 0
3, 41040, Note_on_c, 0, 42, 51
3, 41040, Note_on_c, 0, 54, 61
3, 41130, Note_on_c, 0, 54, 0
3, 41130, Note_on_c, 0, 42, 0
3, 41520, Note_on_c, 0, 43, 53
3, 41520, Note_on_c, 0, 55, 63
3, 41610, Note_on_c, 0, 55, 0
3, 41610, Note_on_c, 0, 43, 0
3, 42000, Note_on_c, 0, 44, 54
3, 42000, Note_on_c, 0, 56, 65
3, 42090, Note_on_c, 0, 56, 0
3, 42090, Note_on_c, 0, 44, 0
3, 42480, Note_on_c, 0, 45, 60
3, 42480, Note_on_c, 0, 57, 72
3, 42960, Note_on_c, 0, 61, 73
3, 43140, Note_on_c, 0, 45, 49
3, 43200, Note_on_c, 0, 61, 0
3, 43200, Note_on_c, 0, 45, 0
3, 43200, Note_on_c, 0, 57, 0
3, 43200, Note_on_c, 0, 57, 73
3, 43230, Note_on_c, 0, 45, 0
3, 43440, Note_on_c, 0, 61, 62
3, 43620, Note_on_c, 0, 50, 51
3, 43680, Note_on_c, 0, 61, 0
3, 43680, Note_on_c, 0, 57, 0
3, 43680, Note_on_c, 0, 62, 81
3, 43710, Note_on_c, 0, 50, 0
3, 43920, Note_on_c, 0, 65, 62
3, 44100, Note_on_c, 0, 52, 49
3, 44160, Note_on_c, 0, 65, 0
3, 44160, Note_on_c, 0, 62, 0
3, 44160, Note_on_c, 0, 64, 76
3, 44190, Note_on_c, 0, 52, 0
3, 44400, Note_on_c, 0, 67, 67
3, 44580, Note_on_c, 0, 54, 52
3, 44640, Note_on_c, 0, 67, 0
3, 44640, Note_on_c, 0, 64, 0
3, 44640, Note_on_c, 0, 66, 81
3, 44670, Note_on_c, 0, 54, 0
3, 44880, Note_on_c, 0, 69, 67
3, 45060, Note_on_c, 0, 55, 55
3, 45120, Note_on_c, 0, 69, 0
3, 45120, Note_on_c, 0, 66, 0
3, 45120, Note_on_c, 0, 67, 84
3, 45150, Note_on_c, 0, 55, 0
3, 45360, Note_on_c, 0, 70, 68
3, 45540, Note_on_c, 0, 56, 57
3, 45600, Note_on_c, 0, 70, 0
3, 45600, Note_on_c, 0, 67, 0
3, 45600, Note_on_c, 0, 68, 87
3, 45630, Note_on_c, 0, 56, 0
3, 45840, Note_on_c, 0, 71, 68
3, 46080, Note_on_c, 0, 71, 0
3, 46080, Note_on_c, 0, 68, 0
3, 46080, Note_on_c, 0, 57, 63
3, 46080, Note_on_c, 0, 69, 76
3, 46320, Note_on_c, 0, 69, 0
3, 46320, Note_on_c, 0, 57, 0
3, 46320, Note_on_c, 0, 64, 63
3, 46320, Note_on_c, 0, 67, 63
3, 46320, Note_on_c, 0, 73, 76
3, 46320, Note_on_c, 0, 69, 63
3, 46560, Note_on_c, 0, 69, 0
3, 46560, Note_on_c, 0, 64, 0
3, 46560, Note_on_c, 0, 67, 0
3, 46560, Note_on_c, 0, 73, 0
3, 46560, Note_on_c, 0, 65, 63
3, 46560, Note_on_c, 0, 62, 63
3, 46560, Note_on_c, 0, 74, 76
3, 46560, Note_on_c, 0, 69, 63
3, 46680, Note_on_c, 0, 69, 0
3, 46680, Note_on_c, 0, 65, 0
3, 46680, Note_on_c, 0, 62, 0
3, 46680, Note_on_c, 0, 74, 0
3, 93360, Note_on_c, 0, 45, 54
3, 93360, Note_on_c, 0, 33, 45
3, 93450, Note_on_c, 0, 33, 0
3, 93450, Note_on_c, 0, 45, 0
3, 93840, Note_on_c, 0, 38, 46
3, 93840, Note_on_c, 0, 50, 55
3, 93930, Note_on_c, 0, 50, 0
3, 93930, Note_on_c, 0, 38, 0
3, 94320, Note_on_c, 0, 52, 56
3, 94320, Note_on_c, 0, 40, 47
3, 94410, Note_on_c, 0, 40, 0
3, 94410, Note_on_c, 0, 52, 0
3, 94800, Note_on_c, 0, 42, 48
3, 94800, Note_on_c, 0, 54, 58
3, 94890, Note_on_c, 0, 54, 0
3, 94890, Note_on_c, 0, 42, 0
3, 95280, Note_on_c, 0, 43, 51
3, 95280, Note_on_c, 0, 55, 62
3, 95370, Note_on_c, 0, 55, 0
3, 95370, Note_on_c, 0, 43, 0
3, 95760, Note_on_c, 0, 56, 65
3, 95760, Note_on_c, 0, 44, 54
3, 95850, Note_on_c, 0, 44, 0
3, 95850, Note_on_c, 0, 56, 0
3, 96240, Note_on_c, 0, 57, 72
3, 96240, Note_on_c, 0, 45, 60
3, 96960, Note_on_c, 0, 45, 0
3, 96960, Note_on_c, 0, 57, 0
3, 97200, Note_on_c, 0, 57, 60
3, 97200, Note_on_c, 0, 49, 50
3, 97200, Note_on_c, 0, 45, 50
3, 97290, Note_on_c, 0, 45, 0
3, 97290, Note_on_c, 0, 49, 0
3, 97290, Note_on_c, 0, 57, 0
3, 97680, Note_on_c, 0, 62, 60
3, 97680, Note_on_c, 0, 53, 50
3, 97680, Note_on_c, 0, 50, 50
3, 97770, Note_on_c, 0, 50, 0
3, 97770, Note_on_c, 0, 53, 0
3, 97770, Note_on_c, 0, 62, 0
3, 98160, Note_on_c, 0, 55, 50
3, 98160, Note_on_c, 0, 52, 50
3, 98160, Note_on_c, 0, 61, 60
3, 98250, Note_on_c, 0, 61, 0
3, 98250, Note_on_c, 0, 52, 0
3, 98250, Note_on_c, 0, 55, 0
3, 98640, Note_on_c, 0, 60, 51
3, 98640, Note_on_c, 0, 57, 51
3, 98640, Note_on_c, 0, 54, 51
3, 98640, Note_on_c, 0, 62, 61
3, 98730, Note_on_c, 0, 62, 0
3, 98730, Note_on_c, 0, 60, 0
3, 98730, Note_on_c, 0, 57, 0
3, 98730, Note_on_c, 0, 54, 0
3, 99120, Note_on_c, 0, 67, 63
3, 99120, Note_on_c, 0, 58, 53
3, 99120, Note_on_c, 0, 55, 53
3, 99120, Note_on_c, 0, 63, 53
3, 99210, Note_on_c, 0, 63, 0
3, 99210, Note_on_c, 0, 67, 0
3, 99210, Note_on_c, 0, 58, 0
3, 99210, Note_on_c, 0, 55, 0
3, 99600, Note_on_c, 0, 59, 54
3, 99600, Note_on_c, 0, 62, 54
3, 99600, Note_on_c, 0, 56, 54
3, 99600, Note_on_c, 0, 65, 65
3, 99690, Note_on_c, 0, 65, 0
3, 99690, Note_on_c, 0, 59, 0
3, 99690, Note_on_c, 0, 62, 0
3, 99690, Note_on_c, 0, 56, 0
3, 100080, Note_on_c, 0, 61, 56
3, 100080, Note_on_c, 0, 57, 56
3, 100080, Note_on_c, 0, 69, 68
3, 100320, Note_on_c, 0, 69, 0
3, 100320, Note_on_c, 0, 57, 0
3, 100320, Note_on_c, 0, 61, 0
3, 100320, Note_on_c, 0, 74, 68
3, 100320, Note_on_c, 0, 62, 56
3, 100320, Note_on_c, 0, 65, 56
3, 100320, Note_on_c, 0, 69, 56
3, 100560, Note_on_c, 0, 69, 0
3, 100560, Note_on_c, 0, 74, 0
3, 100560, Note_on_c, 0, 62, 0
3, 100560, Note_on_c, 0, 65, 0
3, 101040, Note_on_c, 0, 62, 51
3, 101040, Note_on_c, 0, 69, 73
3, 101280, Note_on_c, 0, 69, 0
3, 101280, Note_on_c, 0, 70, 80
3, 101520, Note_on_c, 0, 70, 0
3, 101520, Note_on_c, 0, 62, 0
3, 101520, Note_on_c, 0, 60, 56
3, 101520, Note_on_c, 0, 69, 73
3, 101760, Note_on_c, 0, 69, 0
3, 101760, Note_on_c, 0, 60, 0
3, 102000, Note_on_c, 0, 62, 49
3, 102000, Note_on_c, 0, 69, 73
3, 102240, Note_on_c, 0, 69, 0
3, 102240, Note_on_c, 0, 70, 80
3, 102480, Note_on_c, 0, 70, 0
3, 102480, Note_on_c, 0, 62, 0
3, 102480, Note_on_c, 0, 60, 55
3, 102480, Note_on_c, 0, 69, 73
3, 102720, Note_on_c, 0, 60, 0
3, 102720, Note_on_c, 0, 58, 59
3, 102960, Note_on_c, 0, 69, 0
3, 102960, Note_on_c, 0, 67, 76
3, 103200, Note_on_c, 0, 58, 0
3, 103200, Note_on_c, 0, 57, 60
3, 103440, Note_on_c, 0, 67, 0
3, 103440, Note_on_c, 0, 65, 76
3, 103680, Note_on_c, 0, 57, 0
3, 103680, Note_on_c, 0, 55, 59
3, 103920, Note_on_c, 0, 65, 0
3, 103920, Note_on_c, 0, 64, 71
3, 104160, Note_on_c, 0, 55, 0
3, 104160, Note_on_c, 0, 53, 54
3, 104400, Note_on_c, 0, 64, 0
3, 104400, Note_on_c, 0, 62, 68
3, 104640, Note_on_c, 0, 62, 0
3, 104640, Note_on_c, 0, 53, 0
3, 104880, Note_on_c, 0, 55, 55
3, 104880, Note_on_c, 0, 58, 55
3, 104880, Note_on_c, 0, 63, 66
3, 105120, Note_on_c, 0, 63, 0
3, 105120, Note_on_c, 0, 58, 0
3, 105120, Note_on_c, 0, 55, 0
3, 105120, Note_on_c, 0, 56, 49
3, 105120, Note_on_c, 0, 67, 71
3, 105120, Note_on_c, 0, 58, 49
3, 105120, Note_on_c, 0, 62, 59
3, 105360, Note_on_c, 0, 62, 0
3, 105360, Note_on_c, 0, 56, 0
3, 105360, Note_on_c, 0, 67, 0
3, 105360, Note_on_c, 0, 58, 0
3, 105360, Note_on_c, 0, 63, 66
3, 105360, Note_on_c, 0, 55, 55
3, 105360, Note_on_c, 0, 58, 55
3, 105600, Note_on_c, 0, 58, 0
3, 105600, Note_on_c, 0, 55, 0
3, 105600, Note_on_c, 0, 63, 0
3, 105840, Note_on_c, 0, 58, 55
3, 105840, Note_on_c, 0, 63, 66
3, 105840, Note_on_c, 0, 55, 55
3, 106080, Note_on_c, 0, 55, 0
3, 106080, Note_on_c, 0, 63, 0
3, 106080, Note_on_c, 0, 58, 0
3, 106080, Note_on_c, 0, 58, 49
3, 106080, Note_on_c, 0, 56, 49
3, 106080, Note_on_c, 0, 67, 71
3, 106080, Note_on_c, 0, 62, 59
3, 106320, Note_on_c, 0, 62, 0
3, 106320, Note_on_c, 0, 58, 0
3, 106320, Note_on_c, 0, 56, 0
3, 106320, Note_on_c, 0, 67, 0
3, 106320, Note_on_c, 0, 58, 55
3, 106320, Note_on_c, 0, 55, 55
3, 106320, Note_on_c, 0, 63, 66
3, 106560, Note_on_c, 0, 63, 0
3, 106560, Note_on_c, 0, 55, 0
3, 106560, Note_on_c, 0, 58, 0
3, 106560, Note_on_c, 0, 54, 57
3, 106560, Note_on_c, 0, 66, 71
3, 106680, Note_on_c, 0, 66, 0
3, 106680, Note_on_c, 0, 54, 0
3, 106800, Note_on_c, 0, 51, 66
3, 107280, Note_on_c, 0, 51, 0
3, 107280, Note_on_c, 0, 52, 59
3, 107520, Note_on_c, 0, 52, 0
3, 107520, Note_on_c, 0, 54, 59
3, 107760, Note_on_c, 0, 54, 0
3, 107760, Note_on_c, 0, 55, 65
3, 108000, Note_on_c, 0, 55, 0
3, 108000, Note_on_c, 0, 56, 70
3, 108240, Note_on_c, 0, 56, 0
3, 108240, Note_on_c, 0, 57, 74
3, 108390, Note_on_c, 0, 57, 0
3, 108720, Note_on_c, 0, 33, 50
3, 108720, Note_on_c, 0, 45, 60
3, 108810, Note_on_c, 0, 45, 0
3, 108810, Note_on_c, 0, 33, 0
3, 109200, Note_on_c, 0, 38, 50
3, 109200, Note_on_c, 0, 50, 60
3, 109290, Note_on_c, 0, 50, 0
3, 109290, Note_on_c, 0, 38, 0
3, 109680, Note_on_c, 0, 40, 50
3, 109680, Note_on_c, 0, 52, 60
3, 109770, Note_on_c, 0, 52, 0
3, 109770, Note_on_c, 0, 40, 0
3, 110160, Note_on_c, 0, 42, 51
3, 110160, Note_on_c, 0, 54, 61
3, 110250, Note_on_c, 0, 54, 0
3, 110250, Note_on_c, 0, 42, 0
3, 110640, Note_on_c, 0, 55, 63
3, 110640, Note_on_c, 0, 43, 53
3, 110730, Note_on_c, 0, 43, 0
3, 110730, Note_on_c, 0, 55, 0
3, 111120, Note_on_c, 0, 56, 65
3, 111120, Note_on_c, 0, 44, 54
3, 111210, Note_on_c, 0, 44, 0
3, 111210, Note_on_c, 0, 56, 0
3, 111600, Note_on_c, 0, 57, 72
3, 111600, Note_on_c, 0, 45, 60
3, 112080, Note_on_c, 0, 61, 82
3, 112260, Note_on_c, 0, 45, 49
3, 112320, Note_on_c, 0, 61, 0
3, 112320, Note_on_c, 0, 57, 0
3, 112320, Note_on_c, 0, 45, 0
3, 112320, Note_on_c, 0, 57, 73
3, 112350, Note_on_c, 0, 45, 0
3, 112560, Note_on_c, 0, 61, 62
3, 112740, Note_on_c, 0, 50, 51
3, 112800, Note_on_c, 0, 61, 0
3, 112800, Note_on_c, 0, 57, 0
3, 112800, Note_on_c, 0, 62, 81
3, 112830, Note_on_c, 0, 50, 0
3, 113040, Note_on_c, 0, 65, 62
3, 113220, Note_on_c, 0, 52, 49
3, 113280, Note_on_c, 0, 65, 0
3, 113280, Note_on_c, 0, 62, 0
3, 113280, Note_on_c, 0, 64, 76
3, 113310, Note_on_c, 0, 52, 0
3, 113520, Note_on_c, 0, 67, 67
3, 113700, Note_on_c, 0, 54, 52
3, 113760, Note_on_c, 0, 67, 0
3, 113760, Note_on_c, 0, 64, 0
3, 113760, Note_on_c, 0, 66, 81
3, 113790, Note_on_c, 0, 54, 0
3, 114000, Note_on_c, 0, 69, 67
3, 114180, Note_on_c, 0, 55, 55
3, 114240, Note_on_c, 0, 69, 0
3, 114240, Note_on_c, 0, 66, 0
3, 114240, Note_on_c, 0, 67, 84
3, 114270, Note_on_c, 0, 55, 0
3, 114480, Note_on_c, 0, 70, 68
3, 114660, Note_on_c, 0, 56, 57
3, 114720, Note_on_c, 0, 70, 0
3, 114720, Note_on_c, 0, 67, 0
3, 114720, Note_on_c, 0, 68, 87
3, 114750, Note_on_c, 0, 56, 0
3, 114960, Note_on_c, 0, 71, 68
3, 115200, Note_on_c, 0, 71, 0
3, 115200, Note_on_c, 0, 68, 0
3, 115200, Note_on_c, 0, 57, 63
3, 115200, Note_on_c, 0, 69, 76
3, 115440, Note_on_c, 0, 69, 0
3, 115440, Note_on_c, 0, 57, 0
3, 115440, Note_on_c, 0, 67, 63
3, 115440, Note_on_c, 0, 73, 76
3, 115440, Note_on_c, 0, 69, 63
3, 115440, Note_on_c, 0, 64, 63
3, 115680, Note_on_c, 0, 64, 0
3, 115680, Note_on_c, 0, 67, 0
3, 115680, Note_on_c, 0, 73, 0
3, 115680, Note_on_c, 0, 69, 0
3, 115680, Note_on_c, 0, 69, 63
3, 115680, Note_on_c, 0, 65, 63
3, 115680, Note_on_c, 0, 74, 76
3, 115680, Note_on_c, 0, 62, 63
3, 115920, Note_on_c, 0, 62, 0
3, 115920, Note_on_c, 0, 69, 0
3, 115920, Note_on_c, 0, 65, 0
3, 115920, Note_on_c, 0, 74, 0
3, 115920, End_track
4, 0, Start_track
4, 0, Title_t, "Pedale"
4, 0, Program_c, 0, 0
4, 1017, Control_c, 0, 64, 127
4, 1208, Control_c, 0, 64, 0
4, 1343, Control_c, 0, 64, 127
4, 1454, Control_c, 0, 64, 0
4, 1503, Control_c, 0, 64, 127
4, 1694, Control_c, 0, 64, 0
4, 1826, Control_c, 0, 64, 127
4, 1927, Control_c, 0, 64, 0
4, 1977, Control_c, 0, 64, 127
4, 2171, Control_c, 0, 64, 0
4, 2312, Control_c, 0, 64, 127
4, 2415, Control_c, 0, 64, 0
4, 2460, Control_c, 0, 64, 127
4, 2645, Control_c, 0, 64, 0
4, 2770, Control_c, 0, 64, 127
4, 2889, Control_c, 0, 64, 0
4, 2929, Control_c, 0, 64, 127
4, 3140, Control_c, 0, 64, 0
4, 3254, Control_c, 0, 64, 127
4, 3373, Control_c, 0, 64, 0
4, 3417, Control_c, 0, 64, 127
4, 3611, Control_c, 0, 64, 0
4, 3732, Control_c, 0, 64, 127
4, 3855, Control_c, 0, 64, 0
4, 3880, Control_c, 0, 64, 127
4, 4085, Control_c, 0, 64, 0
4, 4137, Control_c, 0, 64, 127
4, 4803, Control_c, 0, 64, 0
4, 4857, Control_c, 0, 64, 127
4, 5048, Control_c, 0, 64, 0
4, 5183, Control_c, 0, 64, 127
4, 5294, Control_c, 0, 64, 0
4, 5343, Control_c, 0, 64, 127
4, 5534, Control_c, 0, 64, 0
4, 5666, Control_c, 0, 64, 127
4, 5767, Control_c, 0, 64, 0
4, 5817, Control_c, 0, 64, 127
4, 6011, Control_c, 0, 64, 0
4, 6152, Control_c, 0, 64, 127
4, 6255, Control_c, 0, 64, 0
4, 6300, Control_c, 0, 64, 127
4, 6485, Control_c, 0, 64, 0
4, 6610, Control_c, 0, 64, 127
4, 6729, Control_c, 0, 64, 0
4, 6769, Control_c, 0, 64, 127
4, 6980, Control_c, 0, 64, 0
4, 7094, Control_c, 0, 64, 127
4, 7213, Control_c, 0, 64, 0
4, 7257, Control_c, 0, 64, 127
4, 7451, Control_c, 0, 64, 0
4, 7572, Control_c, 0, 64, 127
4, 7695, Control_c, 0, 64, 0
4, 7720, Control_c, 0, 64, 127
4, 7925, Control_c, 0, 64, 0
4, 7977, Control_c, 0, 64, 127
4, 8165, Control_c, 0, 64, 0
4, 8223, Control_c, 0, 64, 127
4, 8418, Control_c, 0, 64, 0
4, 8697, Control_c, 0, 64, 127
4, 8888, Control_c, 0, 64, 0
4, 9023, Control_c, 0, 64, 127
4, 9134, Control_c, 0, 64, 0
4, 9183, Control_c, 0, 64, 127
4, 9374, Control_c, 0, 64, 0
4, 9506, Control_c, 0, 64, 127
4, 9607, Control_c, 0, 64, 0
4, 9657, Control_c, 0, 64, 127
4, 9851, Control_c, 0, 64, 0
4, 9992, Control_c, 0, 64, 127
4, 10095, Control_c, 0, 64, 0
4, 10140, Control_c, 0, 64, 127
4, 10325, Control_c, 0, 64, 0
4, 10450, Control_c, 0, 64, 127
4, 10569, Control_c, 0, 64, 0
4, 10609, Control_c, 0, 64, 127
4, 10820, Control_c, 0, 64, 0
4, 10934, Control_c, 0, 64, 127
4, 11053, Control_c, 0, 64, 0
4, 11097, Control_c, 0, 64, 127
4, 11291, Control_c, 0, 64, 0
4, 11412, Control_c, 0, 64, 127
4, 11535, Control_c, 0, 64, 0
4, 11560, Control_c, 0, 64, 127
4, 11765, Control_c, 0, 64, 0
4, 11817, Control_c, 0, 64, 127
4, 12483, Control_c, 0, 64, 0
4, 12537, Control_c, 0, 64, 127
4, 12728, Control_c, 0, 64, 0
4, 12863, Control_c, 0, 64, 127
4, 12974, Control_c, 0, 64, 0
4, 13023, Control_c, 0, 64, 127
4, 13214, Control_c, 0, 64, 0
4, 13346, Control_c, 0, 64, 127
4, 13447, Control_c, 0, 64, 0
4, 13497, Control_c, 0, 64, 127
4, 13691, Control_c, 0, 64, 0
4, 13832, Control_c, 0, 64, 127
4, 13935, Control_c, 0, 64, 0
4, 13980, Control_c, 0, 64, 127
4, 14165, Control_c, 0, 64, 0
4, 14290, Control_c, 0, 64, 127
4, 14409, Control_c, 0, 64, 0
4, 14449, Control_c, 0, 64, 127
4, 14660, Control_c, 0, 64, 0
4, 14774, Control_c, 0, 64, 127
4, 14893, Control_c, 0, 64, 0
4, 14937, Control_c, 0, 64, 127
4, 15131, Control_c, 0, 64, 0
4, 15252, Control_c, 0, 64, 127
4, 15375, Control_c, 0, 64, 0
4, 15400, Control_c, 0, 64, 127
4, 15605, Control_c, 0, 64, 0
4, 15657, Control_c, 0, 64, 127
4, 15845, Control_c, 0, 64, 0
4, 15903, Control_c, 0, 64, 127
4, 16120, Control_c, 0, 64, 0
4, 16175, Control_c, 0, 64, 127
4, 16575, Control_c, 0, 64, 0
4, 16600, Control_c, 0, 64, 127
4, 16816, Control_c, 0, 64, 0
4, 16869, Control_c, 0, 64, 127
4, 17051, Control_c, 0, 64, 0
4, 17100, Control_c, 0, 64, 127
4, 17280, Control_c, 0, 64, 0
4, 17320, Control_c, 0, 64, 127
4, 17535, Control_c, 0, 64, 0
4, 17560, Control_c, 0, 64, 127
4, 17776, Control_c, 0, 64, 0
4, 17829, Control_c, 0, 64, 127
4, 18011, Control_c, 0, 64, 0
4, 18060, Control_c, 0, 64, 127
4, 18244, Control_c, 0, 64, 0
4, 18286, Control_c, 0, 64, 127
4, 18736, Control_c, 0, 64, 0
4, 18789, Control_c, 0, 64, 127
4, 19204, Control_c, 0, 64, 0
4, 19246, Control_c, 0, 64, 127
4, 19696, Control_c, 0, 64, 0
4, 19749, Control_c, 0, 64, 127
4, 20160, Control_c, 0, 64, 0
4, 20200, Control_c, 0, 64, 127
4, 20415, Control_c, 0, 64, 0
4, 20440, Control_c, 0, 64, 127
4, 20656, Control_c, 0, 64, 0
4, 20709, Control_c, 0, 64, 127
4, 20891, Control_c, 0, 64, 0
4, 20940, Control_c, 0, 64, 127
4, 21120, Control_c, 0, 64, 0
4, 21160, Control_c, 0, 64, 127
4, 21375, Control_c, 0, 64, 0
4, 21400, Control_c, 0, 64, 127
4, 21616, Control_c, 0, 64, 0
4, 21669, Control_c, 0, 64, 127
4, 21851, Control_c, 0, 64, 0
4, 21900, Control_c, 0, 64, 127
4, 22080, Control_c, 0, 64, 0
4, 22115, Control_c, 0, 64, 127
4, 22546, Control_c, 0, 64, 0
4, 22583, Control_c, 0, 64, 127
4, 22809, Control_c, 0, 64, 0
4, 22837, Control_c, 0, 64, 127
4, 23047, Control_c, 0, 64, 0
4, 23075, Control_c, 0, 64, 127
4, 23285, Control_c, 0, 64, 0
4, 23315, Control_c, 0, 64, 127
4, 23532, Control_c, 0, 64, 0
4, 23577, Control_c, 0, 64, 127
4, 23774, Control_c, 0, 64, 0
4, 23826, Control_c, 0, 64, 127
4, 24003, Control_c, 0, 64, 0
4, 24057, Control_c, 0, 64, 127
4, 24248, Control_c, 0, 64, 0
4, 24383, Control_c, 0, 64, 127
4, 24494, Control_c, 0, 64, 0
4, 24543, Control_c, 0, 64, 127
4, 24734, Control_c, 0, 64, 0
4, 24866, Control_c, 0, 64, 127
4, 24967, Control_c, 0, 64, 0
4, 25017, Control_c, 0, 64, 127
4, 25211, Control_c, 0, 64, 0
4, 25352, Control_c, 0, 64, 127
4, 25455, Control_c, 0, 64, 0
4, 25500, Control_c, 0, 64, 127
4, 25685, Control_c, 0, 64, 0
4, 25810, Control_c, 0, 64, 127
4, 25929, Control_c, 0, 64, 0
4, 25969, Control_c, 0, 64, 127
4, 26180, Control_c, 0, 64, 0
4, 26294, Control_c, 0, 64, 127
4, 26413, Control_c, 0, 64, 0
4, 26457, Control_c, 0, 64, 127
4, 26651, Control_c, 0, 64, 0
4, 26772, Control_c, 0, 64, 127
4, 26895, Control_c, 0, 64, 0
4, 26920, Control_c, 0, 64, 127
4, 27125, Control_c, 0, 64, 0
4, 27177, Control_c, 0, 64, 127
4, 27843, Control_c, 0, 64, 0
4, 27897, Control_c, 0, 64, 127
4, 28334, Control_c, 0, 64, 0
4, 28383, Control_c, 0, 64, 127
4, 28807, Control_c, 0, 64, 0
4, 28857, Control_c, 0, 64, 127
4, 29295, Control_c, 0, 64, 0
4, 29340, Control_c, 0, 64, 127
4, 29769, Control_c, 0, 64, 0
4, 29809, Control_c, 0, 64, 127
4, 30253, Control_c, 0, 64, 0
4, 30297, Control_c, 0, 64, 127
4, 30735, Control_c, 0, 64, 0
4, 30760, Control_c, 0, 64, 127
4, 30965, Control_c, 0, 64, 0
4, 31017, Control_c, 0, 64, 127
4, 31205, Control_c, 0, 64, 0
4, 31263, Control_c, 0, 64, 127
4, 31480, Control_c, 0, 64, 0
4, 31535, Control_c, 0, 64, 127
4, 31935, Control_c, 0, 64, 0
4, 31960, Control_c, 0, 64, 127
4, 32176, Control_c, 0, 64, 0
4, 32229, Control_c, 0, 64, 127
4, 32411, Control_c, 0, 64, 0
4, 32460, Control_c, 0, 64, 127
4, 32640, Control_c, 0, 64, 0
4, 32680, Control_c, 0, 64, 127
4, 32895, Control_c, 0, 64, 0
4, 32920, Control_c, 0, 64, 127
4, 33136, Control_c, 0, 64, 0
4, 33189, Control_c, 0, 64, 127
4, 33371, Control_c, 0, 64, 0
4, 33420, Control_c, 0, 64, 127
4, 33604, Control_c, 0, 64, 0
4, 33646, Control_c, 0, 64, 127
4, 34096, Control_c, 0, 64, 0
4, 34149, Control_c, 0, 64, 127
4, 34564, Control_c, 0, 64, 0
4, 34606, Control_c, 0, 64, 127
4, 35056, Control_c, 0, 64, 0
4, 35109, Control_c, 0, 64, 127
4, 35520, Control_c, 0, 64, 0
4, 35560, Control_c, 0, 64, 127
4, 35775, Control_c, 0, 64, 0
4, 35800, Control_c, 0, 64, 127
4, 36016, Control_c, 0, 64, 0
4, 36069, Control_c, 0, 64, 127
4, 36251, Control_c, 0, 64, 0
4, 36300, Control_c, 0, 64, 127
4, 36480, Control_c, 0, 64, 0
4, 36520, Control_c, 0, 64, 127
4, 36735, Control_c, 0, 64, 0
4, 36760, Control_c, 0, 64, 127
4, 36976, Control_c, 0, 64, 0
4, 37029, Control_c, 0, 64, 127
4, 37211, Control_c, 0, 64, 0
4, 37260, Control_c, 0, 64, 127
4, 37440, Control_c, 0, 64, 0
4, 37475, Control_c, 0, 64, 127
4, 37906, Control_c, 0, 64, 0
4, 37943, Control_c, 0, 64, 127
4, 38169, Control_c, 0, 64, 0
4, 38197, Control_c, 0, 64, 127
4, 38407, Control_c, 0, 64, 0
4, 38435, Control_c, 0, 64, 127
4, 38645, Control_c, 0, 64, 0
4, 38675, Control_c, 0, 64, 127
4, 38892, Control_c, 0, 64, 0
4, 38937, Control_c, 0, 64, 127
4, 39134, Control_c, 0, 64, 0
4, 39186, Control_c, 0, 64, 127
4, 39363, Control_c, 0, 64, 0
4, 39417, Control_c, 0, 64, 127
4, 39608, Control_c, 0, 64, 0
4, 39743, Control_c, 0, 64, 127
4, 39854, Control_c, 0, 64, 0
4, 39903, Control_c, 0, 64, 127
4, 40094, Control_c, 0, 64, 0
4, 40226, Control_c, 0, 64, 127
4, 40327, Control_c, 0, 64, 0
4, 40377, Control_c, 0, 64, 127
4, 40571, Control_c, 0, 64, 0
4, 40712, Control_c, 0, 64, 127
4, 40815, Control_c, 0, 64, 0
4, 40860, Control_c, 0, 64, 127
4, 41045, Control_c, 0, 64, 0
4, 41170, Control_c, 0, 64, 127
4, 41289, Control_c, 0, 64, 0
4, 41329, Control_c, 0, 64, 127
4, 41540, Control_c, 0, 64, 0
4, 41654, Control_c, 0, 64, 127
4, 41773, Control_c, 0, 64, 0
4, 41817, Control_c, 0, 64, 127
4, 42011, Control_c, 0, 64, 0
4, 42132, Control_c, 0, 64, 127
4, 42255, Control_c, 0, 64, 0
4, 42280, Control_c, 0, 64, 127
4, 42485, Control_c, 0, 64, 0
4, 42537, Control_c, 0, 64, 127
4, 43203, Control_c, 0, 64, 0
4, 43257, Control_c, 0, 64, 127
4, 43694, Control_c, 0, 64, 0
4, 43743, Control_c, 0, 64, 127
4, 44167, Control_c, 0, 64, 0
4, 44217, Control_c, 0, 64, 127
4, 44655, Control_c, 0, 64, 0
4, 44700, Control_c, 0, 64, 127
4, 45129, Control_c, 0, 64, 0
4, 45169, Control_c, 0, 64, 127
4, 45613, Control_c, 0, 64, 0
4, 45657, Control_c, 0, 64, 127
4, 46095, Control_c, 0, 64, 0
4, 46120, Control_c, 0, 64, 127
4, 46325, Control_c, 0, 64, 0
4, 46377, Control_c, 0, 64, 127
4, 46565, Control_c, 0, 64, 0
4, 46623, Control_c, 0, 64, 127
4, 46735, Control_c, 0, 64, 0
4, 47076, Control_c, 0, 64, 127
4, 47532, Control_c, 0, 64, 0
4, 47598, Control_c, 0, 64, 127
4, 48000, Control_c, 0, 64, 0
4, 48036, Control_c, 0, 64, 127
4, 48492, Control_c, 0, 64, 0
4, 48558, Control_c, 0, 64, 127
4, 48960, Control_c, 0, 64, 0
4, 48996, Control_c, 0, 64, 127
4, 49452, Control_c, 0, 64, 0
4, 49518, Control_c, 0, 64, 127
4, 49920, Control_c, 0, 64, 0
4, 49956, Control_c, 0, 64, 127
4, 50412, Control_c, 0, 64, 0
4, 50478, Control_c, 0, 64, 127
4, 50880, Control_c, 0, 64, 0
4, 50916, Control_c, 0, 64, 127
4, 51372, Control_c, 0, 64, 0
4, 51438, Control_c, 0, 64, 127
4, 51840, Control_c, 0, 64, 0
4, 51876, Control_c, 0, 64, 127
4, 52332, Control_c, 0, 64, 0
4, 52398, Control_c, 0, 64, 127
4, 52800, Control_c, 0, 64, 0
4, 52836, Control_c, 0, 64, 127
4, 53292, Control_c, 0, 64, 0
4, 53358, Control_c, 0, 64, 127
4, 53760, Control_c, 0, 64, 0
4, 53796, Control_c, 0, 64, 127
4, 54252, Control_c, 0, 64, 0
4, 54318, Control_c, 0, 64, 127
4, 54720, Control_c, 0, 64, 0
4, 54808, Control_c, 0, 64, 127
4, 55212, Control_c, 0, 64, 0
4, 55278, Control_c, 0, 64, 127
4, 55680, Control_c, 0, 64, 0
4, 55716, Control_c, 0, 64, 127
4, 56172, Control_c, 0, 64, 0
4, 56238, Control_c, 0, 64, 127
4, 56640, Control_c, 0, 64, 0
4, 56676, Control_c, 0, 64, 127
4, 57132, Control_c, 0, 64, 0
4, 57198, Control_c, 0, 64, 127
4, 57600, Control_c, 0, 64, 0
4, 57636, Control_c, 0, 64, 127
4, 58092, Control_c, 0, 64, 0
4, 58158, Control_c, 0, 64, 127
4, 58560, Control_c, 0, 64, 0
4, 58596, Control_c, 0, 64, 127
4, 59052, Control_c, 0, 64, 0
4, 59118, Control_c, 0, 64, 127
4, 59520, Control_c, 0, 64, 0
4, 59556, Control_c, 0, 64, 127
4, 60012, Control_c, 0, 64, 0
4, 60078, Control_c, 0, 64, 127
4, 60480, Control_c, 0, 64, 0
4, 60516, Control_c, 0, 64, 127
4, 60972, Control_c, 0, 64, 0
4, 61038, Control_c, 0, 64, 127
4, 61440, Control_c, 0, 64, 0
4, 61476, Control_c, 0, 64, 127
4, 61932, Control_c, 0, 64, 0
4, 61998, Control_c, 0, 64, 127
4, 62436, Control_c, 0, 64, 127
4, 62892, Control_c, 0, 64, 0
4, 62958, Control_c, 0, 64, 127
4, 63360, Control_c, 0, 64, 0
4, 63396, Control_c, 0, 64, 127
4, 63852, Control_c, 0, 64, 0
4, 63918, Control_c, 0, 64, 127
4, 64320, Control_c, 0, 64, 0
4, 64356, Control_c, 0, 64, 127
4, 64812, Control_c, 0, 64, 0
4, 64878, Control_c, 0, 64, 127
4, 65280, Control_c, 0, 64, 0
4, 65316, Control_c, 0, 64, 127
4, 65772, Control_c, 0, 64, 0
4, 65838, Control_c, 0, 64, 127
4, 66240, Control_c, 0, 64, 0
4, 66276, Control_c, 0, 64, 127
4, 66732, Control_c, 0, 64, 0
4, 66798, Control_c, 0, 64, 127
4, 67200, Control_c, 0, 64, 0
4, 67236, Control_c, 0, 64, 127
4, 67692, Control_c, 0, 64, 0
4, 67758, Control_c, 0, 64, 127
4, 68160, Control_c, 0, 64, 0
4, 68196, Control_c, 0, 64, 127
4, 68652, Control_c, 0, 64, 0
4, 68718, Control_c, 0, 64, 127
4, 69120, Control_c, 0, 64, 0
4, 69156, Control_c, 0, 64, 127
4, 69612, Control_c, 0, 64, 0
4, 69678, Control_c, 0, 64, 127
4, 70080, Control_c, 0, 64, 0
4, 70116, Control_c, 0, 64, 127
4, 70572, Control_c, 0, 64, 0
4, 70638, Control_c, 0, 64, 127
4, 71040, Control_c, 0, 64, 0
4, 71076, Control_c, 0, 64, 127
4, 71532, Control_c, 0, 64, 0
4, 71598, Control_c, 0, 64, 127
4, 72000, Control_c, 0, 64, 0
4, 72036, Control_c, 0, 64, 127
4, 72492, Control_c, 0, 64, 0
4, 72558, Control_c, 0, 64, 127
4, 72960, Control_c, 0, 64, 0
4, 72996, Control_c, 0, 64, 127
4, 73452, Control_c, 0, 64, 0
4, 73518, Control_c, 0, 64, 127
4, 73920, Control_c, 0, 64, 0
4, 73956, Control_c, 0, 64, 127
4, 74412, Control_c, 0, 64, 0
4, 74478, Control_c, 0, 64, 127
4, 74880, Control_c, 0, 64, 0
4, 74916, Control_c, 0, 64, 127
4, 75372, Control_c, 0, 64, 0
4, 75438, Control_c, 0, 64, 127
4, 75840, Control_c, 0, 64, 0
4, 75876, Control_c, 0, 64, 127
4, 76332, Control_c, 0, 64, 0
4, 76398, Control_c, 0, 64, 127
4, 76800, Control_c, 0, 64, 0
4, 76836, Control_c, 0, 64, 127
4, 77292, Control_c, 0, 64, 0
4, 77358, Control_c, 0, 64, 127
4, 77760, Control_c, 0, 64, 0
4, 77796, Control_c, 0, 64, 127
4, 78252, Control_c, 0, 64, 0
4, 78318, Control_c, 0, 64, 127
4, 78720, Control_c, 0, 64, 0
4, 78756, Control_c, 0, 64, 127
4, 79212, Control_c, 0, 64, 0
4, 79278, Control_c, 0, 64, 127
4, 79680, Control_c, 0, 64, 0
4, 79716, Control_c, 0, 64, 127
4, 80172, Control_c, 0, 64, 0
4, 80238, Control_c, 0, 64, 127
4, 80640, Control_c, 0, 64, 0
4, 80676, Control_c, 0, 64, 127
4, 81132, Control_c, 0, 64, 0
4, 81198, Control_c, 0, 64, 127
4, 81600, Control_c, 0, 64, 0
4, 81636, Control_c, 0, 64, 127
4, 82092, Control_c, 0, 64, 0
4, 82158, Control_c, 0, 64, 127
4, 82560, Control_c, 0, 64, 0
4, 82596, Control_c, 0, 64, 127
4, 83052, Control_c, 0, 64, 0
4, 83118, Control_c, 0, 64, 127
4, 83520, Control_c, 0, 64, 0
4, 83556, Control_c, 0, 64, 127
4, 84012, Control_c, 0, 64, 0
4, 84078, Control_c, 0, 64, 127
4, 84480, Control_c, 0, 64, 0
4, 84516, Control_c, 0, 64, 127
4, 84972, Control_c, 0, 64, 0
4, 85038, Control_c, 0, 64, 127
4, 85440, Control_c, 0, 64, 0
4, 85476, Control_c, 0, 64, 127
4, 85932, Control_c, 0, 64, 0
4, 85998, Control_c, 0, 64, 127
4, 86400, Control_c, 0, 64, 0
4, 86436, Control_c, 0, 64, 127
4, 86892, Control_c, 0, 64, 0
4, 86958, Control_c, 0, 64, 127
4, 87360, Control_c, 0, 64, 0
4, 87396, Control_c, 0, 64, 127
4, 87852, Control_c, 0, 64, 0
4, 87918, Control_c, 0, 64, 127
4, 88320, Control_c, 0, 64, 0
4, 88356, Control_c, 0, 64, 127
4, 88812, Control_c, 0, 64, 0
4, 88878, Control_c, 0, 64, 127
4, 89280, Control_c, 0, 64, 0
4, 89316, Control_c, 0, 64, 127
4, 89772, Control_c, 0, 64, 0
4, 89838, Control_c, 0, 64, 127
4, 90240, Control_c, 0, 64, 0
4, 90276, Control_c, 0, 64, 127
4, 90732, Control_c, 0, 64, 0
4, 90798, Control_c, 0, 64, 127
4, 91200, Control_c, 0, 64, 0
4, 91236, Control_c, 0, 64, 127
4, 91692, Control_c, 0, 64, 0
4, 91758, Control_c, 0, 64, 127
4, 92160, Control_c, 0, 64, 0
4, 92196, Control_c, 0, 64, 127
4, 92652, Control_c, 0, 64, 0
4, 92718, Control_c, 0, 64, 127
4, 93120, Control_c, 0, 64, 0
4, 93177, Control_c, 0, 64, 127
4, 93368, Control_c, 0, 64, 0
4, 93503, Control_c, 0, 64, 127
4, 93600, Control_c, 0, 64, 0
4, 93663, Control_c, 0, 64, 127
4, 93854, Control_c, 0, 64, 0
4, 93986, Control_c, 0, 64, 127
4, 94087, Control_c, 0, 64, 0
4, 94137, Control_c, 0, 64, 127
4, 94331, Control_c, 0, 64, 0
4, 94472, Control_c, 0, 64, 127
4, 94575, Control_c, 0, 64, 0
4, 94620, Control_c, 0, 64, 127
4, 94805, Control_c, 0, 64, 0
4, 94930, Control_c, 0, 64, 127
4, 95049, Control_c, 0, 64, 0
4, 95089, Control_c, 0, 64, 127
4, 95300, Control_c, 0, 64, 0
4, 95414, Control_c, 0, 64, 127
4, 95533, Control_c, 0, 64, 0
4, 95577, Control_c, 0, 64, 127
4, 95771, Control_c, 0, 64, 0
4, 95892, Control_c, 0, 64, 127
4, 96015, Control_c, 0, 64, 0
4, 96040, Control_c, 0, 64, 127
4, 96245, Control_c, 0, 64, 0
4, 96297, Control_c, 0, 64, 127
4, 96963, Control_c, 0, 64, 0
4, 97017, Control_c, 0, 64, 127
4, 97208, Control_c, 0, 64, 0
4, 97343, Control_c, 0, 64, 127
4, 97454, Control_c, 0, 64, 0
4, 97503, Control_c, 0, 64, 127
4, 97694, Control_c, 0, 64, 0
4, 97826, Control_c, 0, 64, 127
4, 97927, Control_c, 0, 64, 0
4, 97977, Control_c, 0, 64, 127
4, 98171, Control_c, 0, 64, 0
4, 98312, Control_c, 0, 64, 127
4, 98415, Control_c, 0, 64, 0
4, 98460, Control_c, 0, 64, 127
4, 98645, Control_c, 0, 64, 0
4, 98770, Control_c, 0, 64, 127
4, 98889, Control_c, 0, 64, 0
4, 98929, Control_c, 0, 64, 127
4, 99140, Control_c, 0, 64, 0
4, 99254, Control_c, 0, 64, 127
4, 99373, Control_c, 0, 64, 0
4, 99417, Control_c, 0, 64, 127
4, 99611, Control_c, 0, 64, 0
4, 99732, Control_c, 0, 64, 127
4, 99855, Control_c, 0, 64, 0
4, 99880, Control_c, 0, 64, 127
4, 100085, Control_c, 0, 64, 0
4, 100137, Control_c, 0, 64, 127
4, 100325, Control_c, 0, 64, 0
4, 100383, Control_c, 0, 64, 127
4, 100600, Control_c, 0, 64, 0
4, 100655, Control_c, 0, 64, 127
4, 101055, Control_c, 0, 64, 0
4, 101080, Control_c, 0, 64, 127
4, 101296, Control_c, 0, 64, 0
4, 101349, Control_c, 0, 64, 127
4, 101531, Control_c, 0, 64, 0
4, 101580, Control_c, 0, 64, 127
4, 101760, Control_c, 0, 64, 0
4, 101800, Control_c, 0, 64, 127
4, 102015, Control_c, 0, 64, 0
4, 102040, Control_c, 0, 64, 127
4, 102256, Control_c, 0, 64, 0
4, 102309, Control_c, 0, 64, 127
4, 102491, Control_c, 0, 64, 0
4, 102540, Control_c, 0, 64, 127
4, 102724, Control_c, 0, 64, 0
4, 102766, Control_c, 0, 64, 127
4, 103216, Control_c, 0, 64, 0
4, 103269, Control_c, 0, 64, 127
4, 103684, Control_c, 0, 64, 0
4, 103726, Control_c, 0, 64, 127
4, 104176, Control_c, 0, 64, 0
4, 104229, Control_c, 0, 64, 127
4, 104640, Control_c, 0, 64, 0
4, 104680, Control_c, 0, 64, 127
4, 104895, Control_c, 0, 64, 0
4, 104920, Control_c, 0, 64, 127
4, 105136, Control_c, 0, 64, 0
4, 105189, Control_c, 0, 64, 127
4, 105371, Control_c, 0, 64, 0
4, 105420, Control_c, 0, 64, 127
4, 105600, Control_c, 0, 64, 0
4, 105640, Control_c, 0, 64, 127
4, 105855, Control_c, 0, 64, 0
4, 105880, Control_c, 0, 64, 127
4, 106096, Control_c, 0, 64, 0
4, 106149, Control_c, 0, 64, 127
4, 106331, Control_c, 0, 64, 0
4, 106380, Control_c, 0, 64, 127
4, 106560, Control_c, 0, 64, 0
4, 106595, Control_c, 0, 64, 127
4, 107026, Control_c, 0, 64, 0
4, 107063, Control_c, 0, 64, 127
4, 107289, Control_c, 0, 64, 0
4, 107317, Control_c, 0, 64, 127
4, 107527, Control_c, 0, 64, 0
4, 107555, Control_c, 0, 64, 127
4, 107765, Control_c, 0, 64, 0
4, 107795, Control_c, 0, 64, 127
4, 108012, Control_c, 0, 64, 0
4, 108057, Control_c, 0, 64, 127
4, 108254, Control_c, 0, 64, 0
4, 108306, Control_c, 0, 64, 127
4, 108483, Control_c, 0, 64, 0
4, 108537, Control_c, 0, 64, 127
4, 108728, Control_c, 0, 64, 0
4, 108863, Control_c, 0, 64, 127
4, 108974, Control_c, 0, 64, 0
4, 109023, Control_c, 0, 64, 127
4, 109214, Control_c, 0, 64, 0
4, 109346, Control_c, 0, 64, 127
4, 109447, Control_c, 0, 64, 0
4, 109497, Control_c, 0, 64, 127
4, 109691, Control_c, 0, 64, 0
4, 109832, Control_c, 0, 64, 127
4, 109935, Control_c, 0, 64, 0
4, 109980, Control_c, 0, 64, 127
4, 110165, Control_c, 0, 64, 0
4, 110290, Control_c, 0, 64, 127
4, 110409, Control_c, 0, 64, 0
4, 110449, Control_c, 0, 64, 127
4, 110660, Control_c, 0, 64, 0
4, 110774, Control_c, 0, 64, 127
4, 110893, Control_c, 0, 64, 0
4, 110937, Control_c, 0, 64, 127
4, 111131, Control_c, 0, 64, 0
4, 111252, Control_c, 0, 64, 127
4, 111375, Control_c, 0, 64, 0
4, 111400, Control_c, 0, 64, 127
4, 111605, Control_c, 0, 64, 0
4, 111657, Control_c, 0, 64, 127
4, 112323, Control_c, 0, 64, 0
4, 112377, Control_c, 0, 64, 127
4, 112814, Control_c, 0, 64, 0
4, 112863, Control_c, 0, 64, 127
4, 113287, Control_c, 0, 64, 0
4, 113337, Control_c, 0, 64, 127
4, 113775, Control_c, 0, 64, 0
4, 113820, Control_c, 0, 64, 127
4, 114249, Control_c, 0, 64, 0
4, 114289, Control_c, 0, 64, 127
4, 114733, Control_c, 0, 64, 0
4, 114777, Control_c, 0, 64, 127
4, 115215, Control_c, 0, 64, 0
4, 115240, Control_c, 0, 64, 127
4, 115445, Control_c, 0, 64, 0
4, 115497, Control_c, 0, 64, 127
4, 115685, Control_c, 0, 64, 0
4, 115743, Control_c, 0, 64, 127
4, 115883, Control_c, 0, 64, 0
4, 115883, End_track
5, 0, Start_track
5, 0, Title_t, "Schumann: Kreisleriana 1"
5, 0, End_track
6, 0, Start_track
6, 0, Title_t, "Copyright © 2007 by Bernd Krueger"
6, 0, End_track
7, 0, Start_track
7, 0, Title_t, "http://www.piano-midi.de/"
7, 0, End_track
8, 0, Start_track
8, 0, Title_t, "Edition: 2014-03-27"
8, 0, End_track
9, 0, Start_track
9, 0, Title_t, "Spur 8"
9, 0, End_track
10, 0, Start_track
10, 0, Title_t, "Spur 9"
10, 0, End_track
11, 0, Start_track
11, 0, Title_t, "Spur 10"
11, 0, End_track
12, 0, Start_track
12, 0, Title_t, "Spur 11"
12, 0, End_track
13, 0, Start_track
13, 0, Title_t, "Spur 12"
13, 0, End_track
14, 0, Start_track
14, 0, Title_t, "Spur 13"
14, 0, End_track
15, 0, Start_track
15, 0, Title_t, "Spur 14"
15, 0, End_track
16, 0, Start_track
16, 0, Title_t, "Spur 15"
16, 0, End_track
17, 0, Start_track
17, 0, Title_t, "Spur 16"
17, 0, End_track
0, 0, End_of_file
