0, 0, Header, 1, 17, 480
1, 0, Start_track
1, 0, Title_t, "Kreisleriana No. 7"
1, 0, Copyright_t, "Copyright © 2007 by Bernd Krueger"
1, 0, Text_t, "Robert Schumann"
1, 0, Text_t, "Sehr rasch"
1, 0, Text_t, "Erstellt: 22.1.2007\012"
1, 0, Text_t, "Update am 27.3.2014\012"
1, 0, Text_t, "Dauer: 2:04 Minuten\012"
1, 0, Time_signature, 2, 2, 24, 8
1, 0, Key_signature, -3, "major"
1, 0, Tempo, 399494
1, 960, Tempo, 407636
1, 1680, Tempo, 435761
1, 1920, Tempo, 406256
1, 2640, Tempo, 452182
1, 2880, Tempo, 406256
1, 3600, Tempo, 434185
1, 3840, Tempo, 406256
1, 4560, Tempo, 443820
1, 4800, Tempo, 406256
1, 5520, Tempo, 431065
1, 5760, Tempo, 406256
1, 6480, Tempo, 459102
1, 6720, Tempo, 409026
1, 7200, Tempo, 416118
1, 7440, Tempo, 445467
1, 7680, Tempo, 437350
1, 7718, Tempo, 438949
1, 7738, Tempo, 440561
1, 7757, Tempo, 442184
1, 7776, Tempo, 443820
1, 7795, Tempo, 445467
1, 7834, Tempo, 447127
1, 7853, Tempo, 448799
1, 7872, Tempo, 450484
1, 7891, Tempo, 452182
1, 7910, Tempo, 453892
1, 7930, Tempo, 455615
1, 7968, Tempo, 457352
1, 7987, Tempo, 459102
1, 8006, Tempo, 460865
1, 8026, Tempo, 462642
1, 8045, Tempo, 464432
1, 8083, Tempo, 466237
1, 8160, Tempo, 515021
1, 8520, Tempo, 399494
1, 8640, Tempo, 407636
1, 9360, Tempo, 435761
1, 9600, Tempo, 406256
1, 10320, Tempo, 452182
1, 10560, Tempo, 406256
1, 11280, Tempo, 434185
1, 11520, Tempo, 406256
1, 12240, Tempo, 443820
1, 12480, Tempo, 406256
1, 13200, Tempo, 431065
1, 13440, Tempo, 406256
1, 14160, Tempo, 459102
1, 14400, Tempo, 409026
1, 14880, Tempo, 416118
1, 15120, Tempo, 445467
1, 15360, Tempo, 437350
1, 15398, Tempo, 438949
1, 15418, Tempo, 440561
1, 15437, Tempo, 442184
1, 15456, Tempo, 443820
1, 15475, Tempo, 445467
1, 15514, Tempo, 447127
1, 15533, Tempo, 448799
1, 15552, Tempo, 450484
1, 15571, Tempo, 452182
1, 15590, Tempo, 453892
1, 15610, Tempo, 455615
1, 15648, Tempo, 457352
1, 15667, Tempo, 459102
1, 15686, Tempo, 460865
1, 15706, Tempo, 462642
1, 15725, Tempo, 464432
1, 15763, Tempo, 466237
1, 15840, Tempo, 497925
1, 16080, Tempo, 465116
1, 16200, Tempo, 427991
1, 16320, Tempo, 429523
1, 16560, Tempo, 399494
1, 17040, Tempo, 417566
1, 17280, Tempo, 426470
1, 17520, Tempo, 402172
1, 18000, Tempo, 427991
1, 18240, Tempo, 429523
1, 18480, Tempo, 399494
1, 18960, Tempo, 417566
1, 19200, Tempo, 426470
1, 19440, Tempo, 402172
1, 19920, Tempo, 427991
1, 20160, Tempo, 429523
1, 20400, Tempo, 399494
1, 20880, Tempo, 417566
1, 21120, Tempo, 429523
1, 21360, Tempo, 399494
1, 21840, Tempo, 417566
1, 22080, Tempo, 429523
1, 22320, Tempo, 390625
1, 22800, Tempo, 454201
1, 23040, Tempo, 429523
1, 23280, Tempo, 399494
1, 23760, Tempo, 417566
1, 24000, Tempo, 429523
1, 24240, Tempo, 399494
1, 24720, Tempo, 447427
1, 24960, Tempo, 429523
1, 25200, Tempo, 399494
1, 25680, Tempo, 417566
1, 25920, Tempo, 429523
1, 26160, Tempo, 399494
1, 26640, Tempo, 417566
1, 26880, Tempo, 429523
1, 27120, Tempo, 399494
1, 27360, Tempo, 442804
1, 27600, Tempo, 419024
1, 27720, Tempo, 419024
1, 27840, Tempo, 426470
1, 28080, Tempo, 399494
1, 28560, Tempo, 417566
1, 28800, Tempo, 426470
1, 29040, Tempo, 402172
1, 29520, Tempo, 427991
1, 29760, Tempo, 429523
1, 30000, Tempo, 399494
1, 30480, Tempo, 417566
1, 30720, Tempo, 426470
1, 30960, Tempo, 402172
1, 31440, Tempo, 427991
1, 31680, Tempo, 429523
1, 31920, Tempo, 390625
1, 32400, Tempo, 417566
1, 32640, Tempo, 429523
1, 32880, Tempo, 390625
1, 33360, Tempo, 444115
1, 33600, Tempo, 429523
1, 33840, Tempo, 389358
1, 34320, Tempo, 417566
1, 34560, Tempo, 429523
1, 34800, Tempo, 399494
1, 35280, Tempo, 417566
1, 35520, Tempo, 429523
1, 35760, Tempo, 399494
1, 36240, Tempo, 447427
1, 36480, Tempo, 429523
1, 36720, Tempo, 399494
1, 37200, Tempo, 417566
1, 37440, Tempo, 429523
1, 37680, Tempo, 399494
1, 38160, Tempo, 417566
1, 38400, Tempo, 429523
1, 38640, Tempo, 399494
1, 39120, Tempo, 420757
1, 39240, Tempo, 399494
1, 39360, Tempo, 407636
1, 40080, Tempo, 435761
1, 40320, Tempo, 406256
1, 41040, Tempo, 452182
1, 41280, Tempo, 406256
1, 42000, Tempo, 434185
1, 42240, Tempo, 406256
1, 42960, Tempo, 443820
1, 43200, Tempo, 406256
1, 43920, Tempo, 431065
1, 44160, Tempo, 406256
1, 44880, Tempo, 459102
1, 45120, Tempo, 409026
1, 45600, Tempo, 416118
1, 45840, Tempo, 445467
1, 46080, Tempo, 437350
1, 46118, Tempo, 438949
1, 46138, Tempo, 440561
1, 46157, Tempo, 442184
1, 46176, Tempo, 443820
1, 46195, Tempo, 445467
1, 46234, Tempo, 447127
1, 46253, Tempo, 448799
1, 46272, Tempo, 450484
1, 46291, Tempo, 452182
1, 46310, Tempo, 453892
1, 46330, Tempo, 455615
1, 46368, Tempo, 457352
1, 46387, Tempo, 459102
1, 46406, Tempo, 460865
1, 46426, Tempo, 462642
1, 46445, Tempo, 464432
1, 46483, Tempo, 466237
1, 46502, Tempo, 468055
1, 46522, Tempo, 469888
1, 46560, Tempo, 495868
1, 46800, Tempo, 431655
1, 47040, Tempo, 416667
1, 47520, Tempo, 410959
1, 47880, Tempo, 433213
1, 48000, Tempo, 409556
1, 48480, Tempo, 418118
1, 48720, Tempo, 412371
1, 48960, Tempo, 412371
1, 49440, Tempo, 409556
1, 49920, Tempo, 410959
1, 50280, Tempo, 428571
1, 50400, Tempo, 410959
1, 50640, Tempo, 418118
1, 50880, Tempo, 410959
1, 51360, Tempo, 409556
1, 51720, Tempo, 422535
1, 51840, Tempo, 410959
1, 52680, Tempo, 425532
1, 52800, Tempo, 410959
1, 53280, Tempo, 415225
1, 53640, Tempo, 425532
1, 53760, Tempo, 415225
1, 54480, Tempo, 422535
1, 54720, Tempo, 415225
1, 55200, Tempo, 426470
1, 55440, Tempo, 428571
1, 55560, Tempo, 452182
1, 55800, Tempo, 421971
1, 56400, Tempo, 455615
1, 56520, Tempo, 452182
1, 56640, Tempo, 450484
1, 57440, Tempo, 450484
1, 57460, Tempo, 452182
1, 57480, Tempo, 453892
1, 57500, Tempo, 455615
1, 57520, Tempo, 459102
1, 57540, Tempo, 460865
1, 57560, Tempo, 462642
1, 57580, Tempo, 464432
1, 57600, Tempo, 468055
1, 57620, Tempo, 469888
1, 57640, Tempo, 471735
1, 57660, Tempo, 475473
1, 57680, Tempo, 477365
1, 57700, Tempo, 479272
1, 57720, Tempo, 481193
1, 57740, Tempo, 485084
1, 57760, Tempo, 487053
1, 57780, Tempo, 489037
1, 57800, Tempo, 493056
1, 57820, Tempo, 495090
1, 57840, Tempo, 497141
1, 57860, Tempo, 499210
1, 57880, Tempo, 503398
1, 57900, Tempo, 505519
1, 57920, Tempo, 507657
1, 57940, Tempo, 511989
1, 57960, Tempo, 836937
1, 58080, Tempo, 575871
1, 58320, Tempo, 431655
1, 58560, Tempo, 416667
1, 59040, Tempo, 410959
1, 59400, Tempo, 433213
1, 59520, Tempo, 409556
1, 60000, Tempo, 418118
1, 60240, Tempo, 412371
1, 60480, Tempo, 412371
1, 60960, Tempo, 409556
1, 61440, Tempo, 410959
1, 61800, Tempo, 428571
1, 61920, Tempo, 410959
1, 62160, Tempo, 418118
1, 62400, Tempo, 410959
1, 62880, Tempo, 409556
1, 63240, Tempo, 422535
1, 63360, Tempo, 410959
1, 64200, Tempo, 425532
1, 64320, Tempo, 410959
1, 64800, Tempo, 415225
1, 65160, Tempo, 425532
1, 65280, Tempo, 415225
1, 66000, Tempo, 422535
1, 66240, Tempo, 415225
1, 66720, Tempo, 426470
1, 66960, Tempo, 428571
1, 67080, Tempo, 452182
1, 67320, Tempo, 421971
1, 67920, Tempo, 455615
1, 68040, Tempo, 452182
1, 68160, Tempo, 450484
1, 68960, Tempo, 450484
1, 68980, Tempo, 452182
1, 69000, Tempo, 453892
1, 69020, Tempo, 455615
1, 69040, Tempo, 459102
1, 69060, Tempo, 460865
1, 69080, Tempo, 462642
1, 69100, Tempo, 464432
1, 69120, Tempo, 468055
1, 69140, Tempo, 469888
1, 69160, Tempo, 471735
1, 69180, Tempo, 475473
1, 69200, Tempo, 477365
1, 69220, Tempo, 479272
1, 69240, Tempo, 481193
1, 69260, Tempo, 485084
1, 69280, Tempo, 487053
1, 69300, Tempo, 489037
1, 69320, Tempo, 493056
1, 69340, Tempo, 495090
1, 69360, Tempo, 497141
1, 69380, Tempo, 499210
1, 69400, Tempo, 503398
1, 69420, Tempo, 505519
1, 69440, Tempo, 507657
1, 69460, Tempo, 511989
1, 69480, Tempo, 836937
1, 69600, Tempo, 590029
1, 69840, Tempo, 418118
1, 70080, Tempo, 423460
1, 70560, Tempo, 409556
1, 70920, Tempo, 422535
1, 71040, Tempo, 410959
1, 71880, Tempo, 425532
1, 72000, Tempo, 442804
1, 72096, Tempo, 441176
1, 72192, Tempo, 439560
1, 72256, Tempo, 437956
1, 72352, Tempo, 436364
1, 72448, Tempo, 434783
1, 72480, Tempo, 431655
1, 72544, Tempo, 430108
1, 72608, Tempo, 428571
1, 72672, Tempo, 427046
1, 72704, Tempo, 425532
1, 72768, Tempo, 424028
1, 72832, Tempo, 422535
1, 72864, Tempo, 421053
1, 72960, Tempo, 410959
1, 73800, Tempo, 425532
1, 73920, Tempo, 442804
1, 73984, Tempo, 441176
1, 74048, Tempo, 439560
1, 74112, Tempo, 437956
1, 74144, Tempo, 436364
1, 74208, Tempo, 434783
1, 74272, Tempo, 433213
1, 74336, Tempo, 431655
1, 74368, Tempo, 430108
1, 74400, Tempo, 415225
1, 74760, Tempo, 425532
1, 74880, Tempo, 410959
1, 75720, Tempo, 425532
1, 75840, Tempo, 434185
1, 76320, Tempo, 440561
1, 76680, Tempo, 438949
1, 76789, Tempo, 450789
1, 76949, Tempo, 449102
1, 77077, Tempo, 447427
1, 77205, Tempo, 445765
1, 77301, Tempo, 445765
1, 77397, Tempo, 447427
1, 77493, Tempo, 449102
1, 77589, Tempo, 450789
1, 77685, Tempo, 452489
1, 77728, Tempo, 444444
1, 77760, Tempo, 437956
1, 78016, Tempo, 428571
1, 78480, Tempo, 446097
1, 78720, Tempo, 428571
1, 78752, Tempo, 449438
1, 78848, Tempo, 447761
1, 78912, Tempo, 446097
1, 78976, Tempo, 444444
1, 79072, Tempo, 442804
1, 79136, Tempo, 441176
1, 79200, Tempo, 439560
1, 79296, Tempo, 437956
1, 79360, Tempo, 436364
1, 79381, Tempo, 437637
1, 79413, Tempo, 439239
1, 79445, Tempo, 440852
1, 79477, Tempo, 442478
1, 79509, Tempo, 444115
1, 79541, Tempo, 445765
1, 79573, Tempo, 447427
1, 79605, Tempo, 449102
1, 79680, Tempo, 437956
1, 79936, Tempo, 428571
1, 80400, Tempo, 446097
1, 80640, Tempo, 428571
1, 80672, Tempo, 449438
1, 80768, Tempo, 447761
1, 80832, Tempo, 446097
1, 80896, Tempo, 444444
1, 80992, Tempo, 442804
1, 81056, Tempo, 441176
1, 81120, Tempo, 439560
1, 81216, Tempo, 437956
1, 81280, Tempo, 436364
1, 81344, Tempo, 434783
1, 81360, Tempo, 441176
1, 81590, Tempo, 466926
1, 81654, Tempo, 465116
1, 81718, Tempo, 463320
1, 81750, Tempo, 461538
1, 81814, Tempo, 459770
1, 81878, Tempo, 458015
1, 81910, Tempo, 456274
1, 81974, Tempo, 454545
1, 82038, Tempo, 452830
1, 82070, Tempo, 451128
1, 82166, Tempo, 446097
1, 82390, Tempo, 444444
1, 82582, Tempo, 442804
1, 82806, Tempo, 441176
1, 82998, Tempo, 439560
1, 83222, Tempo, 437956
1, 83414, Tempo, 436364
1, 83638, Tempo, 434783
1, 83830, Tempo, 433213
1, 84054, Tempo, 431655
1, 84246, Tempo, 430108
1, 84438, Tempo, 425532
1, 84598, Tempo, 427046
1, 84726, Tempo, 428571
1, 84886, Tempo, 430108
1, 85014, Tempo, 431655
1, 85174, Tempo, 433213
1, 85302, Tempo, 434783
1, 85430, Tempo, 436364
1, 85440, Tempo, 466563
1, 85680, Tempo, 402414
1, 86160, Tempo, 447427
1, 86400, Tempo, 432900
1, 86640, Tempo, 398406
1, 87120, Tempo, 417827
1, 87360, Tempo, 428571
1, 87600, Tempo, 394477
1, 88080, Tempo, 447427
1, 88320, Tempo, 431655
1, 88560, Tempo, 390879
1, 89040, Tempo, 410959
1, 89280, Tempo, 439560
1, 89520, Tempo, 388350
1, 90000, Tempo, 405405
1, 90240, Tempo, 442804
1, 90480, Tempo, 387097
1, 90960, Tempo, 457666
1, 91200, Tempo, 441176
1, 91440, Tempo, 388350
1, 91920, Tempo, 405405
1, 92160, Tempo, 430108
1, 92400, Tempo, 388350
1, 92880, Tempo, 405405
1, 93120, Tempo, 437956
1, 93360, Tempo, 389610
1, 93840, Tempo, 404040
1, 94080, Tempo, 436364
1, 94320, Tempo, 388350
1, 94800, Tempo, 459418
1, 95040, Tempo, 434783
1, 95280, Tempo, 387097
1, 95760, Tempo, 404040
1, 96000, Tempo, 430108
1, 96240, Tempo, 387097
1, 96720, Tempo, 521739
1, 96840, Tempo, 399494
1, 96960, Tempo, 396040
1, 97680, Tempo, 425532
1, 97920, Tempo, 393443
1, 98640, Tempo, 439560
1, 98880, Tempo, 394737
1, 99600, Tempo, 434185
1, 99840, Tempo, 398671
1, 100560, Tempo, 443820
1, 100800, Tempo, 401338
1, 101520, Tempo, 431065
1, 101760, Tempo, 402685
1, 102480, Tempo, 493827
1, 102720, Tempo, 470588
1, 103200, Tempo, 493827
1, 103440, Tempo, 538117
1, 103677, Tempo, 456274
1, 103709, Tempo, 472441
1, 103741, Tempo, 474308
1, 103773, Tempo, 476190
1, 103805, Tempo, 478088
1, 103837, Tempo, 480000
1, 103869, Tempo, 481928
1, 103901, Tempo, 483871
1, 103933, Tempo, 487805
1, 103965, Tempo, 489796
1, 103997, Tempo, 491803
1, 104029, Tempo, 493827
1, 104061, Tempo, 495868
1, 104093, Tempo, 497925
1, 104125, Tempo, 500000
1, 104157, Tempo, 504202
1, 104160, Tempo, 558140
1, 104400, Tempo, 484653
1, 104640, Tempo, 472069
1, 105120, Tempo, 495458
1, 105600, Tempo, 483481
1, 106320, Tempo, 486618
1, 106560, Tempo, 473934
1, 107040, Tempo, 483481
1, 108240, Tempo, 482703
1, 108960, Tempo, 498753
1, 109440, Tempo, 492611
1, 109920, Tempo, 486618
1, 110400, Tempo, 482703
1, 110880, Tempo, 500835
1, 111360, Tempo, 490597
1, 112080, Tempo, 496689
1, 112320, Tempo, 505051
1, 112800, Tempo, 527241
1, 113280, Tempo, 518135
1, 113760, Tempo, 539084
1, 114240, Tempo, 548948
1, 114720, Tempo, 575264
1, 115200, Tempo, 569801
1, 115920, Tempo, 505051
1, 116160, Tempo, 492611
1, 116640, Tempo, 511509
1, 117120, Tempo, 505051
1, 117600, Tempo, 498753
1, 118560, Tempo, 515907
1, 119520, Tempo, 509338
1, 120000, Tempo, 520382
1, 120480, Tempo, 529568
1, 121440, Tempo, 520382
1, 121680, Tempo, 592300
1, 121920, Tempo, 567108
1, 122400, Tempo, 586510
1, 122880, Tempo, 567108
1, 123600, Tempo, 534283
1, 123840, Tempo, 546448
1, 124320, Tempo, 564440
1, 125400, Tempo, 546448
1, 125520, Tempo, 534283
1, 125760, Tempo, 539084
1, 126240, Tempo, 567108
1, 127440, Tempo, 548948
1, 127680, Tempo, 588235
1, 128160, Tempo, 621762
1, 129360, Tempo, 736196
1, 129600, Tempo, 833333
1, 130080, Tempo, 1034483
1, 130080, End_track
2, 0, Start_track
2, 0, Title_t, "Piano right"
2, 0, Program_c, 0, 0
2, 840, Note_on_c, 0, 67, 50
2, 880, Note_on_c, 0, 72, 41
2, 920, Note_on_c, 0, 72, 0
2, 920, Note_on_c, 0, 74, 41
2, 960, Note_on_c, 0, 74, 0
2, 960, Note_on_c, 0, 67, 0
2, 960, Note_on_c, 0, 75, 72
2, 1080, Note_on_c, 0, 75, 0
2, 1080, Note_on_c, 0, 66, 47
2, 1200, Note_on_c, 0, 66, 0
2, 1200, Note_on_c, 0, 72, 50
2, 1320, Note_on_c, 0, 72, 0
2, 1320, Note_on_c, 0, 75, 50
2, 1440, Note_on_c, 0, 75, 0
2, 1440, Note_on_c, 0, 74, 71
2, 1560, Note_on_c, 0, 74, 0
2, 1560, Note_on_c, 0, 65, 45
2, 1680, Note_on_c, 0, 65, 0
2, 1680, Note_on_c, 0, 71, 50
2, 1800, Note_on_c, 0, 71, 0
2, 1800, Note_on_c, 0, 74, 50
2, 1920, Note_on_c, 0, 74, 0
2, 1920, Note_on_c, 0, 72, 71
2, 2040, Note_on_c, 0, 72, 0
2, 2040, Note_on_c, 0, 69, 46
2, 2160, Note_on_c, 0, 69, 0
2, 2160, Note_on_c, 0, 66, 50
2, 2280, Note_on_c, 0, 66, 0
2, 2280, Note_on_c, 0, 63, 50
2, 2400, Note_on_c, 0, 63, 0
2, 2760, Note_on_c, 0, 67, 50
2, 2800, Note_on_c, 0, 72, 41
2, 2840, Note_on_c, 0, 72, 0
2, 2840, Note_on_c, 0, 74, 41
2, 2880, Note_on_c, 0, 74, 0
2, 2880, Note_on_c, 0, 67, 0
2, 2880, Note_on_c, 0, 75, 72
2, 3000, Note_on_c, 0, 75, 0
2, 3000, Note_on_c, 0, 66, 47
2, 3120, Note_on_c, 0, 66, 0
2, 3120, Note_on_c, 0, 72, 50
2, 3240, Note_on_c, 0, 72, 0
2, 3240, Note_on_c, 0, 75, 50
2, 3360, Note_on_c, 0, 75, 0
2, 3360, Note_on_c, 0, 74, 71
2, 3480, Note_on_c, 0, 74, 0
2, 3480, Note_on_c, 0, 65, 45
2, 3600, Note_on_c, 0, 65, 0
2, 3600, Note_on_c, 0, 71, 50
2, 3720, Note_on_c, 0, 71, 0
2, 3720, Note_on_c, 0, 74, 50
2, 3840, Note_on_c, 0, 74, 0
2, 3840, Note_on_c, 0, 72, 71
2, 3960, Note_on_c, 0, 72, 0
2, 3960, Note_on_c, 0, 69, 46
2, 4080, Note_on_c, 0, 69, 0
2, 4080, Note_on_c, 0, 66, 50
2, 4200, Note_on_c, 0, 66, 0
2, 4200, Note_on_c, 0, 63, 50
2, 4320, Note_on_c, 0, 63, 0
2, 4680, Note_on_c, 0, 63, 50
2, 4720, Note_on_c, 0, 67, 41
2, 4760, Note_on_c, 0, 67, 0
2, 4760, Note_on_c, 0, 68, 41
2, 4800, Note_on_c, 0, 68, 0
2, 4800, Note_on_c, 0, 63, 0
2, 4800, Note_on_c, 0, 70, 71
2, 4920, Note_on_c, 0, 70, 0
2, 4920, Note_on_c, 0, 61, 42
2, 5040, Note_on_c, 0, 61, 0
2, 5040, Note_on_c, 0, 67, 47
2, 5160, Note_on_c, 0, 67, 0
2, 5160, Note_on_c, 0, 70, 40
2, 5280, Note_on_c, 0, 70, 0
2, 5280, Note_on_c, 0, 68, 66
2, 5400, Note_on_c, 0, 68, 0
2, 5400, Note_on_c, 0, 60, 40
2, 5520, Note_on_c, 0, 60, 0
2, 5520, Note_on_c, 0, 65, 46
2, 5640, Note_on_c, 0, 65, 0
2, 5640, Note_on_c, 0, 68, 42
2, 5760, Note_on_c, 0, 68, 0
2, 5760, Note_on_c, 0, 67, 66
2, 5880, Note_on_c, 0, 67, 0
2, 5880, Note_on_c, 0, 64, 40
2, 6000, Note_on_c, 0, 64, 0
2, 6000, Note_on_c, 0, 61, 45
2, 6120, Note_on_c, 0, 61, 0
2, 6120, Note_on_c, 0, 58, 40
2, 6240, Note_on_c, 0, 58, 0
2, 6600, Note_on_c, 0, 58, 50
2, 6640, Note_on_c, 0, 61, 41
2, 6680, Note_on_c, 0, 61, 0
2, 6680, Note_on_c, 0, 64, 41
2, 6720, Note_on_c, 0, 64, 0
2, 6720, Note_on_c, 0, 58, 0
2, 6720, Note_on_c, 0, 65, 67
2, 6840, Note_on_c, 0, 65, 0
2, 6840, Note_on_c, 0, 56, 42
2, 6960, Note_on_c, 0, 56, 0
2, 6960, Note_on_c, 0, 60, 47
2, 7080, Note_on_c, 0, 60, 0
2, 7080, Note_on_c, 0, 65, 40
2, 7200, Note_on_c, 0, 65, 0
2, 7200, Note_on_c, 0, 62, 66
2, 7320, Note_on_c, 0, 62, 0
2, 7320, Note_on_c, 0, 53, 40
2, 7440, Note_on_c, 0, 53, 0
2, 7440, Note_on_c, 0, 59, 46
2, 7560, Note_on_c, 0, 59, 0
2, 7560, Note_on_c, 0, 62, 42
2, 7680, Note_on_c, 0, 62, 0
2, 7680, Note_on_c, 0, 60, 66
2, 7776, Note_on_c, 0, 60, 0
2, 7776, Note_on_c, 0, 55, 40
2, 7872, Note_on_c, 0, 55, 0
2, 7872, Note_on_c, 0, 51, 45
2, 7968, Note_on_c, 0, 51, 0
2, 7968, Note_on_c, 0, 48, 40
2, 8064, Note_on_c, 0, 48, 0
2, 8064, Note_on_c, 0, 43, 40
2, 8160, Note_on_c, 0, 43, 0
2, 8520, Note_on_c, 0, 67, 50
2, 8560, Note_on_c, 0, 72, 41
2, 8600, Note_on_c, 0, 72, 0
2, 8600, Note_on_c, 0, 74, 41
2, 8640, Note_on_c, 0, 74, 0
2, 8640, Note_on_c, 0, 67, 0
2, 8640, Note_on_c, 0, 75, 72
2, 8760, Note_on_c, 0, 75, 0
2, 8760, Note_on_c, 0, 66, 47
2, 8880, Note_on_c, 0, 66, 0
2, 8880, Note_on_c, 0, 72, 50
2, 9000, Note_on_c, 0, 72, 0
2, 9000, Note_on_c, 0, 75, 50
2, 9120, Note_on_c, 0, 75, 0
2, 9120, Note_on_c, 0, 74, 71
2, 9240, Note_on_c, 0, 74, 0
2, 9240, Note_on_c, 0, 65, 45
2, 9360, Note_on_c, 0, 65, 0
2, 9360, Note_on_c, 0, 71, 50
2, 9480, Note_on_c, 0, 71, 0
2, 9480, Note_on_c, 0, 74, 50
2, 9600, Note_on_c, 0, 74, 0
2, 9600, Note_on_c, 0, 72, 71
2, 9720, Note_on_c, 0, 72, 0
2, 9720, Note_on_c, 0, 69, 46
2, 9840, Note_on_c, 0, 69, 0
2, 9840, Note_on_c, 0, 66, 50
2, 9960, Note_on_c, 0, 66, 0
2, 9960, Note_on_c, 0, 63, 50
2, 10080, Note_on_c, 0, 63, 0
2, 10440, Note_on_c, 0, 67, 50
2, 10480, Note_on_c, 0, 72, 41
2, 10520, Note_on_c, 0, 72, 0
2, 10520, Note_on_c, 0, 74, 41
2, 10560, Note_on_c, 0, 74, 0
2, 10560, Note_on_c, 0, 67, 0
2, 10560, Note_on_c, 0, 75, 72
2, 10680, Note_on_c, 0, 75, 0
2, 10680, Note_on_c, 0, 66, 47
2, 10800, Note_on_c, 0, 66, 0
2, 10800, Note_on_c, 0, 72, 50
2, 10920, Note_on_c, 0, 72, 0
2, 10920, Note_on_c, 0, 75, 50
2, 11040, Note_on_c, 0, 75, 0
2, 11040, Note_on_c, 0, 74, 71
2, 11160, Note_on_c, 0, 74, 0
2, 11160, Note_on_c, 0, 65, 45
2, 11280, Note_on_c, 0, 65, 0
2, 11280, Note_on_c, 0, 71, 50
2, 11400, Note_on_c, 0, 71, 0
2, 11400, Note_on_c, 0, 74, 50
2, 11520, Note_on_c, 0, 74, 0
2, 11520, Note_on_c, 0, 72, 71
2, 11640, Note_on_c, 0, 72, 0
2, 11640, Note_on_c, 0, 69, 46
2, 11760, Note_on_c, 0, 69, 0
2, 11760, Note_on_c, 0, 66, 50
2, 11880, Note_on_c, 0, 66, 0
2, 11880, Note_on_c, 0, 63, 50
2, 12000, Note_on_c, 0, 63, 0
2, 12360, Note_on_c, 0, 63, 50
2, 12400, Note_on_c, 0, 67, 41
2, 12440, Note_on_c, 0, 67, 0
2, 12440, Note_on_c, 0, 68, 41
2, 12480, Note_on_c, 0, 68, 0
2, 12480, Note_on_c, 0, 63, 0
2, 12480, Note_on_c, 0, 70, 71
2, 12600, Note_on_c, 0, 70, 0
2, 12600, Note_on_c, 0, 61, 42
2, 12720, Note_on_c, 0, 61, 0
2, 12720, Note_on_c, 0, 67, 47
2, 12840, Note_on_c, 0, 67, 0
2, 12840, Note_on_c, 0, 70, 40
2, 12960, Note_on_c, 0, 70, 0
2, 12960, Note_on_c, 0, 68, 66
2, 13080, Note_on_c, 0, 68, 0
2, 13080, Note_on_c, 0, 60, 40
2, 13200, Note_on_c, 0, 60, 0
2, 13200, Note_on_c, 0, 65, 46
2, 13320, Note_on_c, 0, 65, 0
2, 13320, Note_on_c, 0, 68, 42
2, 13440, Note_on_c, 0, 68, 0
2, 13440, Note_on_c, 0, 67, 66
2, 13560, Note_on_c, 0, 67, 0
2, 13560, Note_on_c, 0, 64, 40
2, 13680, Note_on_c, 0, 64, 0
2, 13680, Note_on_c, 0, 61, 45
2, 13800, Note_on_c, 0, 61, 0
2, 13800, Note_on_c, 0, 58, 40
2, 13920, Note_on_c, 0, 58, 0
2, 14280, Note_on_c, 0, 58, 50
2, 14320, Note_on_c, 0, 61, 41
2, 14360, Note_on_c, 0, 61, 0
2, 14360, Note_on_c, 0, 64, 41
2, 14400, Note_on_c, 0, 64, 0
2, 14400, Note_on_c, 0, 58, 0
2, 14400, Note_on_c, 0, 65, 67
2, 14520, Note_on_c, 0, 65, 0
2, 14520, Note_on_c, 0, 56, 42
2, 14640, Note_on_c, 0, 56, 0
2, 14640, Note_on_c, 0, 60, 47
2, 14760, Note_on_c, 0, 60, 0
2, 14760, Note_on_c, 0, 65, 40
2, 14880, Note_on_c, 0, 65, 0
2, 14880, Note_on_c, 0, 62, 66
2, 15000, Note_on_c, 0, 62, 0
2, 15000, Note_on_c, 0, 53, 40
2, 15120, Note_on_c, 0, 53, 0
2, 15120, Note_on_c, 0, 59, 46
2, 15240, Note_on_c, 0, 59, 0
2, 15240, Note_on_c, 0, 62, 42
2, 15360, Note_on_c, 0, 62, 0
2, 15360, Note_on_c, 0, 60, 66
2, 15456, Note_on_c, 0, 60, 0
2, 15456, Note_on_c, 0, 55, 40
2, 15552, Note_on_c, 0, 55, 0
2, 15552, Note_on_c, 0, 51, 45
2, 15648, Note_on_c, 0, 51, 0
2, 15648, Note_on_c, 0, 48, 40
2, 15744, Note_on_c, 0, 48, 0
2, 15744, Note_on_c, 0, 43, 40
2, 15840, Note_on_c, 0, 43, 0
2, 16080, Note_on_c, 0, 62, 59
2, 16200, Note_on_c, 0, 62, 0
2, 16200, Note_on_c, 0, 63, 43
2, 16320, Note_on_c, 0, 63, 0
2, 16320, Note_on_c, 0, 62, 67
2, 16440, Note_on_c, 0, 58, 41
2, 16560, Note_on_c, 0, 58, 0
2, 16560, Note_on_c, 0, 57, 46
2, 16680, Note_on_c, 0, 57, 0
2, 16680, Note_on_c, 0, 55, 39
2, 16800, Note_on_c, 0, 55, 0
2, 17040, Note_on_c, 0, 62, 0
2, 17040, Note_on_c, 0, 62, 57
2, 17040, Note_on_c, 0, 67, 57
2, 17160, Note_on_c, 0, 62, 0
2, 17160, Note_on_c, 0, 63, 46
2, 17220, Note_on_c, 0, 67, 0
2, 17280, Note_on_c, 0, 63, 0
2, 17280, Note_on_c, 0, 62, 70
2, 17280, Note_on_c, 0, 66, 70
2, 17400, Note_on_c, 0, 62, 0
2, 17400, Note_on_c, 0, 60, 44
2, 17520, Note_on_c, 0, 60, 0
2, 17520, Note_on_c, 0, 58, 45
2, 17640, Note_on_c, 0, 58, 0
2, 17640, Note_on_c, 0, 57, 45
2, 17760, Note_on_c, 0, 57, 0
2, 18000, Note_on_c, 0, 66, 0
2, 18000, Note_on_c, 0, 62, 62
2, 18120, Note_on_c, 0, 63, 45
2, 18180, Note_on_c, 0, 62, 0
2, 18240, Note_on_c, 0, 63, 0
2, 18240, Note_on_c, 0, 62, 72
2, 18360, Note_on_c, 0, 58, 41
2, 18480, Note_on_c, 0, 58, 0
2, 18480, Note_on_c, 0, 57, 46
2, 18600, Note_on_c, 0, 57, 0
2, 18600, Note_on_c, 0, 55, 39
2, 18720, Note_on_c, 0, 55, 0
2, 18960, Note_on_c, 0, 62, 0
2, 18960, Note_on_c, 0, 62, 53
2, 18960, Note_on_c, 0, 67, 53
2, 19080, Note_on_c, 0, 62, 0
2, 19080, Note_on_c, 0, 63, 46
2, 19140, Note_on_c, 0, 67, 0
2, 19200, Note_on_c, 0, 63, 0
2, 19200, Note_on_c, 0, 62, 69
2, 19200, Note_on_c, 0, 66, 69
2, 19320, Note_on_c, 0, 62, 0
2, 19320, Note_on_c, 0, 60, 44
2, 19440, Note_on_c, 0, 60, 0
2, 19440, Note_on_c, 0, 58, 45
2, 19560, Note_on_c, 0, 58, 0
2, 19560, Note_on_c, 0, 57, 45
2, 19680, Note_on_c, 0, 57, 0
2, 19920, Note_on_c, 0, 66, 0
2, 19920, Note_on_c, 0, 62, 57
2, 20040, Note_on_c, 0, 63, 45
2, 20160, Note_on_c, 0, 63, 0
2, 20160, Note_on_c, 0, 62, 0
2, 20160, Note_on_c, 0, 62, 68
2, 20280, Note_on_c, 0, 58, 41
2, 20400, Note_on_c, 0, 58, 0
2, 20400, Note_on_c, 0, 57, 46
2, 20520, Note_on_c, 0, 57, 0
2, 20520, Note_on_c, 0, 55, 39
2, 20640, Note_on_c, 0, 55, 0
2, 20640, Note_on_c, 0, 62, 0
2, 20640, Note_on_c, 0, 70, 69
2, 20880, Note_on_c, 0, 70, 0
2, 20880, Note_on_c, 0, 63, 53
2, 21000, Note_on_c, 0, 65, 46
2, 21120, Note_on_c, 0, 65, 0
2, 21120, Note_on_c, 0, 63, 0
2, 21120, Note_on_c, 0, 63, 70
2, 21240, Note_on_c, 0, 58, 41
2, 21360, Note_on_c, 0, 58, 0
2, 21360, Note_on_c, 0, 57, 46
2, 21480, Note_on_c, 0, 57, 0
2, 21480, Note_on_c, 0, 55, 39
2, 21600, Note_on_c, 0, 55, 0
2, 21600, Note_on_c, 0, 63, 0
2, 21600, Note_on_c, 0, 75, 76
2, 21840, Note_on_c, 0, 75, 0
2, 21840, Note_on_c, 0, 63, 53
2, 21960, Note_on_c, 0, 65, 46
2, 22080, Note_on_c, 0, 65, 0
2, 22080, Note_on_c, 0, 63, 0
2, 22080, Note_on_c, 0, 63, 70
2, 22200, Note_on_c, 0, 57, 41
2, 22320, Note_on_c, 0, 57, 0
2, 22320, Note_on_c, 0, 55, 46
2, 22440, Note_on_c, 0, 55, 0
2, 22440, Note_on_c, 0, 53, 39
2, 22560, Note_on_c, 0, 53, 0
2, 22560, Note_on_c, 0, 63, 0
2, 22560, Note_on_c, 0, 69, 73
2, 22800, Note_on_c, 0, 69, 0
2, 22800, Note_on_c, 0, 62, 53
2, 22920, Note_on_c, 0, 63, 46
2, 23040, Note_on_c, 0, 63, 0
2, 23040, Note_on_c, 0, 62, 0
2, 23040, Note_on_c, 0, 62, 70
2, 23160, Note_on_c, 0, 57, 41
2, 23280, Note_on_c, 0, 57, 0
2, 23280, Note_on_c, 0, 55, 46
2, 23400, Note_on_c, 0, 55, 0
2, 23400, Note_on_c, 0, 53, 39
2, 23520, Note_on_c, 0, 53, 0
2, 23520, Note_on_c, 0, 62, 0
2, 23520, Note_on_c, 0, 74, 76
2, 23760, Note_on_c, 0, 74, 0
2, 23760, Note_on_c, 0, 62, 53
2, 23880, Note_on_c, 0, 63, 46
2, 24000, Note_on_c, 0, 63, 0
2, 24000, Note_on_c, 0, 62, 0
2, 24000, Note_on_c, 0, 62, 70
2, 24120, Note_on_c, 0, 55, 41
2, 24240, Note_on_c, 0, 55, 0
2, 24240, Note_on_c, 0, 53, 46
2, 24360, Note_on_c, 0, 53, 0
2, 24360, Note_on_c, 0, 51, 39
2, 24480, Note_on_c, 0, 51, 0
2, 24480, Note_on_c, 0, 62, 0
2, 24480, Note_on_c, 0, 67, 73
2, 24720, Note_on_c, 0, 67, 0
2, 24720, Note_on_c, 0, 60, 53
2, 24840, Note_on_c, 0, 62, 46
2, 24960, Note_on_c, 0, 62, 0
2, 24960, Note_on_c, 0, 60, 0
2, 24960, Note_on_c, 0, 60, 70
2, 25080, Note_on_c, 0, 55, 41
2, 25200, Note_on_c, 0, 55, 0
2, 25200, Note_on_c, 0, 53, 46
2, 25320, Note_on_c, 0, 53, 0
2, 25320, Note_on_c, 0, 51, 39
2, 25440, Note_on_c, 0, 51, 0
2, 25440, Note_on_c, 0, 60, 0
2, 25440, Note_on_c, 0, 72, 76
2, 25680, Note_on_c, 0, 72, 0
2, 25680, Note_on_c, 0, 60, 53
2, 25800, Note_on_c, 0, 62, 46
2, 25920, Note_on_c, 0, 62, 0
2, 25920, Note_on_c, 0, 60, 0
2, 25920, Note_on_c, 0, 60, 70
2, 26040, Note_on_c, 0, 54, 41
2, 26160, Note_on_c, 0, 54, 0
2, 26160, Note_on_c, 0, 52, 46
2, 26280, Note_on_c, 0, 52, 0
2, 26280, Note_on_c, 0, 50, 39
2, 26400, Note_on_c, 0, 50, 0
2, 26400, Note_on_c, 0, 60, 0
2, 26400, Note_on_c, 0, 66, 73
2, 26640, Note_on_c, 0, 66, 0
2, 26640, Note_on_c, 0, 72, 53
2, 26760, Note_on_c, 0, 74, 46
2, 26880, Note_on_c, 0, 74, 0
2, 26880, Note_on_c, 0, 72, 0
2, 26880, Note_on_c, 0, 72, 70
2, 27000, Note_on_c, 0, 66, 41
2, 27120, Note_on_c, 0, 66, 0
2, 27120, Note_on_c, 0, 64, 46
2, 27240, Note_on_c, 0, 64, 0
2, 27240, Note_on_c, 0, 62, 39
2, 27360, Note_on_c, 0, 62, 0
2, 27360, Note_on_c, 0, 72, 0
2, 27360, Note_on_c, 0, 78, 73
2, 27600, Note_on_c, 0, 78, 0
2, 27600, Note_on_c, 0, 74, 64
2, 27720, Note_on_c, 0, 75, 47
2, 27780, Note_on_c, 0, 74, 0
2, 27840, Note_on_c, 0, 75, 0
2, 27840, Note_on_c, 0, 74, 73
2, 27960, Note_on_c, 0, 70, 45
2, 28080, Note_on_c, 0, 70, 0
2, 28080, Note_on_c, 0, 69, 50
2, 28200, Note_on_c, 0, 69, 0
2, 28200, Note_on_c, 0, 67, 42
2, 28320, Note_on_c, 0, 67, 0
2, 28560, Note_on_c, 0, 74, 0
2, 28560, Note_on_c, 0, 74, 62
2, 28560, Note_on_c, 0, 79, 62
2, 28680, Note_on_c, 0, 74, 0
2, 28680, Note_on_c, 0, 75, 50
2, 28740, Note_on_c, 0, 79, 0
2, 28800, Note_on_c, 0, 75, 0
2, 28800, Note_on_c, 0, 74, 77
2, 28800, Note_on_c, 0, 78, 77
2, 28920, Note_on_c, 0, 74, 0
2, 28920, Note_on_c, 0, 72, 48
2, 29040, Note_on_c, 0, 72, 0
2, 29040, Note_on_c, 0, 70, 49
2, 29160, Note_on_c, 0, 70, 0
2, 29160, Note_on_c, 0, 69, 49
2, 29280, Note_on_c, 0, 69, 0
2, 29520, Note_on_c, 0, 78, 0
2, 29520, Note_on_c, 0, 74, 68
2, 29640, Note_on_c, 0, 75, 49
2, 29700, Note_on_c, 0, 74, 0
2, 29760, Note_on_c, 0, 75, 0
2, 29760, Note_on_c, 0, 74, 79
2, 29880, Note_on_c, 0, 70, 45
2, 30000, Note_on_c, 0, 70, 0
2, 30000, Note_on_c, 0, 69, 50
2, 30120, Note_on_c, 0, 69, 0
2, 30120, Note_on_c, 0, 67, 42
2, 30240, Note_on_c, 0, 67, 0
2, 30480, Note_on_c, 0, 74, 0
2, 30480, Note_on_c, 0, 74, 58
2, 30480, Note_on_c, 0, 79, 58
2, 30600, Note_on_c, 0, 74, 0
2, 30600, Note_on_c, 0, 75, 50
2, 30660, Note_on_c, 0, 79, 0
2, 30720, Note_on_c, 0, 75, 0
2, 30720, Note_on_c, 0, 74, 75
2, 30720, Note_on_c, 0, 78, 75
2, 30840, Note_on_c, 0, 74, 0
2, 30840, Note_on_c, 0, 72, 48
2, 30960, Note_on_c, 0, 72, 0
2, 30960, Note_on_c, 0, 70, 49
2, 31080, Note_on_c, 0, 70, 0
2, 31080, Note_on_c, 0, 69, 49
2, 31200, Note_on_c, 0, 69, 0
2, 31440, Note_on_c, 0, 78, 0
2, 31440, Note_on_c, 0, 74, 62
2, 31560, Note_on_c, 0, 75, 49
2, 31680, Note_on_c, 0, 75, 0
2, 31680, Note_on_c, 0, 74, 0
2, 31680, Note_on_c, 0, 74, 74
2, 31800, Note_on_c, 0, 70, 45
2, 31920, Note_on_c, 0, 70, 0
2, 31920, Note_on_c, 0, 69, 50
2, 32040, Note_on_c, 0, 69, 0
2, 32040, Note_on_c, 0, 67, 42
2, 32160, Note_on_c, 0, 67, 0
2, 32160, Note_on_c, 0, 74, 0
2, 32160, Note_on_c, 0, 82, 75
2, 32400, Note_on_c, 0, 82, 0
2, 32400, Note_on_c, 0, 75, 58
2, 32520, Note_on_c, 0, 77, 50
2, 32640, Note_on_c, 0, 77, 0
2, 32640, Note_on_c, 0, 75, 0
2, 32640, Note_on_c, 0, 75, 77
2, 32760, Note_on_c, 0, 70, 45
2, 32880, Note_on_c, 0, 70, 0
2, 32880, Note_on_c, 0, 69, 50
2, 33000, Note_on_c, 0, 69, 0
2, 33000, Note_on_c, 0, 67, 42
2, 33120, Note_on_c, 0, 67, 0
2, 33120, Note_on_c, 0, 75, 0
2, 33120, Note_on_c, 0, 87, 83
2, 33360, Note_on_c, 0, 87, 0
2, 33360, Note_on_c, 0, 75, 58
2, 33480, Note_on_c, 0, 77, 50
2, 33600, Note_on_c, 0, 77, 0
2, 33600, Note_on_c, 0, 75, 0
2, 33600, Note_on_c, 0, 75, 77
2, 33720, Note_on_c, 0, 69, 45
2, 33840, Note_on_c, 0, 69, 0
2, 33840, Note_on_c, 0, 67, 50
2, 33960, Note_on_c, 0, 67, 0
2, 33960, Note_on_c, 0, 65, 42
2, 34080, Note_on_c, 0, 65, 0
2, 34080, Note_on_c, 0, 75, 0
2, 34080, Note_on_c, 0, 81, 65
2, 34320, Note_on_c, 0, 81, 0
2, 34320, Note_on_c, 0, 74, 58
2, 34440, Note_on_c, 0, 75, 50
2, 34560, Note_on_c, 0, 75, 0
2, 34560, Note_on_c, 0, 74, 0
2, 34560, Note_on_c, 0, 74, 77
2, 34680, Note_on_c, 0, 69, 45
2, 34800, Note_on_c, 0, 69, 0
2, 34800, Note_on_c, 0, 67, 50
2, 34920, Note_on_c, 0, 67, 0
2, 34920, Note_on_c, 0, 65, 42
2, 35040, Note_on_c, 0, 65, 0
2, 35040, Note_on_c, 0, 74, 0
2, 35040, Note_on_c, 0, 86, 80
2, 35280, Note_on_c, 0, 86, 0
2, 35280, Note_on_c, 0, 74, 58
2, 35400, Note_on_c, 0, 75, 50
2, 35520, Note_on_c, 0, 75, 0
2, 35520, Note_on_c, 0, 74, 0
2, 35520, Note_on_c, 0, 74, 77
2, 35640, Note_on_c, 0, 67, 45
2, 35760, Note_on_c, 0, 67, 0
2, 35760, Note_on_c, 0, 65, 50
2, 35880, Note_on_c, 0, 65, 0
2, 35880, Note_on_c, 0, 63, 42
2, 36000, Note_on_c, 0, 63, 0
2, 36000, Note_on_c, 0, 74, 0
2, 36000, Note_on_c, 0, 79, 69
2, 36240, Note_on_c, 0, 79, 0
2, 36240, Note_on_c, 0, 72, 58
2, 36360, Note_on_c, 0, 74, 50
2, 36480, Note_on_c, 0, 74, 0
2, 36480, Note_on_c, 0, 72, 0
2, 36480, Note_on_c, 0, 72, 77
2, 36600, Note_on_c, 0, 67, 45
2, 36720, Note_on_c, 0, 67, 0
2, 36720, Note_on_c, 0, 65, 50
2, 36840, Note_on_c, 0, 65, 0
2, 36840, Note_on_c, 0, 63, 42
2, 36960, Note_on_c, 0, 63, 0
2, 36960, Note_on_c, 0, 72, 0
2, 36960, Note_on_c, 0, 84, 83
2, 37200, Note_on_c, 0, 84, 0
2, 37200, Note_on_c, 0, 72, 53
2, 37320, Note_on_c, 0, 74, 46
2, 37440, Note_on_c, 0, 74, 0
2, 37440, Note_on_c, 0, 72, 0
2, 37440, Note_on_c, 0, 72, 70
2, 37560, Note_on_c, 0, 66, 41
2, 37680, Note_on_c, 0, 66, 0
2, 37680, Note_on_c, 0, 64, 46
2, 37800, Note_on_c, 0, 64, 0
2, 37800, Note_on_c, 0, 62, 39
2, 37920, Note_on_c, 0, 62, 0
2, 37920, Note_on_c, 0, 72, 0
2, 37920, Note_on_c, 0, 78, 68
2, 38160, Note_on_c, 0, 78, 0
2, 38160, Note_on_c, 0, 72, 53
2, 38280, Note_on_c, 0, 74, 46
2, 38400, Note_on_c, 0, 74, 0
2, 38400, Note_on_c, 0, 72, 0
2, 38400, Note_on_c, 0, 72, 70
2, 38520, Note_on_c, 0, 66, 41
2, 38640, Note_on_c, 0, 66, 0
2, 38640, Note_on_c, 0, 64, 46
2, 38760, Note_on_c, 0, 64, 0
2, 38760, Note_on_c, 0, 62, 39
2, 38880, Note_on_c, 0, 62, 0
2, 38880, Note_on_c, 0, 72, 0
2, 38880, Note_on_c, 0, 84, 73
2, 39120, Note_on_c, 0, 84, 0
2, 39240, Note_on_c, 0, 74, 62
2, 39280, Note_on_c, 0, 79, 53
2, 39320, Note_on_c, 0, 79, 0
2, 39320, Note_on_c, 0, 81, 56
2, 39360, Note_on_c, 0, 81, 0
2, 39360, Note_on_c, 0, 74, 0
2, 39360, Note_on_c, 0, 82, 79
2, 39480, Note_on_c, 0, 82, 0
2, 39480, Note_on_c, 0, 73, 51
2, 39600, Note_on_c, 0, 73, 0
2, 39600, Note_on_c, 0, 79, 55
2, 39720, Note_on_c, 0, 79, 0
2, 39720, Note_on_c, 0, 82, 55
2, 39840, Note_on_c, 0, 82, 0
2, 39840, Note_on_c, 0, 81, 78
2, 39960, Note_on_c, 0, 81, 0
2, 39960, Note_on_c, 0, 72, 49
2, 40080, Note_on_c, 0, 72, 0
2, 40080, Note_on_c, 0, 78, 55
2, 40200, Note_on_c, 0, 78, 0
2, 40200, Note_on_c, 0, 81, 55
2, 40320, Note_on_c, 0, 81, 0
2, 40320, Note_on_c, 0, 79, 78
2, 40440, Note_on_c, 0, 79, 0
2, 40440, Note_on_c, 0, 76, 61
2, 40560, Note_on_c, 0, 76, 0
2, 40560, Note_on_c, 0, 73, 65
2, 40680, Note_on_c, 0, 73, 0
2, 40680, Note_on_c, 0, 70, 69
2, 40800, Note_on_c, 0, 70, 0
2, 41160, Note_on_c, 0, 74, 64
2, 41200, Note_on_c, 0, 79, 56
2, 41240, Note_on_c, 0, 79, 0
2, 41240, Note_on_c, 0, 81, 58
2, 41280, Note_on_c, 0, 81, 0
2, 41280, Note_on_c, 0, 74, 0
2, 41280, Note_on_c, 0, 82, 79
2, 41400, Note_on_c, 0, 82, 0
2, 41400, Note_on_c, 0, 73, 51
2, 41520, Note_on_c, 0, 73, 0
2, 41520, Note_on_c, 0, 79, 55
2, 41640, Note_on_c, 0, 79, 0
2, 41640, Note_on_c, 0, 82, 55
2, 41760, Note_on_c, 0, 82, 0
2, 41760, Note_on_c, 0, 81, 78
2, 41880, Note_on_c, 0, 81, 0
2, 41880, Note_on_c, 0, 72, 49
2, 42000, Note_on_c, 0, 72, 0
2, 42000, Note_on_c, 0, 78, 55
2, 42120, Note_on_c, 0, 78, 0
2, 42120, Note_on_c, 0, 81, 55
2, 42240, Note_on_c, 0, 81, 0
2, 42240, Note_on_c, 0, 79, 78
2, 42360, Note_on_c, 0, 79, 0
2, 42360, Note_on_c, 0, 76, 58
2, 42480, Note_on_c, 0, 76, 0
2, 42480, Note_on_c, 0, 73, 62
2, 42600, Note_on_c, 0, 73, 0
2, 42600, Note_on_c, 0, 70, 65
2, 42720, Note_on_c, 0, 70, 0
2, 43080, Note_on_c, 0, 70, 63
2, 43120, Note_on_c, 0, 74, 51
2, 43160, Note_on_c, 0, 74, 0
2, 43160, Note_on_c, 0, 75, 57
2, 43200, Note_on_c, 0, 75, 0
2, 43200, Note_on_c, 0, 70, 0
2, 43200, Note_on_c, 0, 77, 78
2, 43320, Note_on_c, 0, 77, 0
2, 43320, Note_on_c, 0, 68, 46
2, 43440, Note_on_c, 0, 68, 0
2, 43440, Note_on_c, 0, 74, 51
2, 43560, Note_on_c, 0, 74, 0
2, 43560, Note_on_c, 0, 77, 44
2, 43680, Note_on_c, 0, 77, 0
2, 43680, Note_on_c, 0, 75, 72
2, 43800, Note_on_c, 0, 75, 0
2, 43800, Note_on_c, 0, 67, 44
2, 43920, Note_on_c, 0, 67, 0
2, 43920, Note_on_c, 0, 72, 50
2, 44040, Note_on_c, 0, 72, 0
2, 44040, Note_on_c, 0, 75, 46
2, 44160, Note_on_c, 0, 75, 0
2, 44160, Note_on_c, 0, 74, 72
2, 44280, Note_on_c, 0, 74, 0
2, 44280, Note_on_c, 0, 71, 44
2, 44400, Note_on_c, 0, 71, 0
2, 44400, Note_on_c, 0, 68, 49
2, 44520, Note_on_c, 0, 68, 0
2, 44520, Note_on_c, 0, 65, 44
2, 44640, Note_on_c, 0, 65, 0
2, 44928, Note_on_c, 0, 65, 63
2, 44992, Note_on_c, 0, 68, 45
2, 45056, Note_on_c, 0, 68, 0
2, 45056, Note_on_c, 0, 71, 56
2, 45120, Note_on_c, 0, 71, 0
2, 45120, Note_on_c, 0, 65, 0
2, 45120, Note_on_c, 0, 72, 73
2, 45240, Note_on_c, 0, 72, 0
2, 45240, Note_on_c, 0, 63, 46
2, 45360, Note_on_c, 0, 63, 0
2, 45360, Note_on_c, 0, 67, 51
2, 45480, Note_on_c, 0, 67, 0
2, 45480, Note_on_c, 0, 72, 44
2, 45600, Note_on_c, 0, 72, 0
2, 45600, Note_on_c, 0, 69, 72
2, 45720, Note_on_c, 0, 69, 0
2, 45720, Note_on_c, 0, 60, 44
2, 45840, Note_on_c, 0, 60, 0
2, 45840, Note_on_c, 0, 66, 50
2, 45960, Note_on_c, 0, 66, 0
2, 45960, Note_on_c, 0, 69, 46
2, 46080, Note_on_c, 0, 69, 0
2, 46080, Note_on_c, 0, 67, 72
2, 46176, Note_on_c, 0, 67, 0
2, 46176, Note_on_c, 0, 62, 52
2, 46272, Note_on_c, 0, 62, 0
2, 46272, Note_on_c, 0, 58, 55
2, 46368, Note_on_c, 0, 58, 0
2, 46368, Note_on_c, 0, 55, 58
2, 46464, Note_on_c, 0, 55, 0
2, 46464, Note_on_c, 0, 50, 61
2, 46560, Note_on_c, 0, 50, 0
2, 50640, Note_on_c, 0, 60, 54
2, 50760, Note_on_c, 0, 60, 0
2, 50760, Note_on_c, 0, 59, 41
2, 50880, Note_on_c, 0, 59, 0
2, 50880, Note_on_c, 0, 60, 61
2, 51000, Note_on_c, 0, 62, 45
2, 51024, Note_on_c, 0, 60, 0
2, 51120, Note_on_c, 0, 62, 0
2, 51120, Note_on_c, 0, 60, 52
2, 51240, Note_on_c, 0, 62, 44
2, 51264, Note_on_c, 0, 60, 0
2, 51360, Note_on_c, 0, 62, 0
2, 51360, Note_on_c, 0, 58, 54
2, 51480, Note_on_c, 0, 60, 45
2, 51504, Note_on_c, 0, 58, 0
2, 51600, Note_on_c, 0, 60, 0
2, 51600, Note_on_c, 0, 57, 50
2, 51720, Note_on_c, 0, 58, 43
2, 51744, Note_on_c, 0, 57, 0
2, 51840, Note_on_c, 0, 58, 0
2, 51840, Note_on_c, 0, 55, 54
2, 51960, Note_on_c, 0, 55, 0
2, 51960, Note_on_c, 0, 57, 45
2, 52080, Note_on_c, 0, 57, 0
2, 52080, Note_on_c, 0, 58, 45
2, 52200, Note_on_c, 0, 58, 0
2, 52200, Note_on_c, 0, 62, 51
2, 52320, Note_on_c, 0, 62, 0
2, 52320, Note_on_c, 0, 67, 50
2, 52440, Note_on_c, 0, 67, 0
2, 52440, Note_on_c, 0, 69, 54
2, 52560, Note_on_c, 0, 69, 0
2, 52560, Note_on_c, 0, 70, 58
2, 52680, Note_on_c, 0, 70, 0
2, 52680, Note_on_c, 0, 66, 50
2, 52800, Note_on_c, 0, 66, 0
2, 52800, Note_on_c, 0, 67, 60
2, 52920, Note_on_c, 0, 66, 45
2, 52944, Note_on_c, 0, 67, 0
2, 53040, Note_on_c, 0, 66, 0
2, 53040, Note_on_c, 0, 67, 53
2, 53160, Note_on_c, 0, 62, 45
2, 53184, Note_on_c, 0, 67, 0
2, 53280, Note_on_c, 0, 62, 0
2, 53280, Note_on_c, 0, 63, 54
2, 53400, Note_on_c, 0, 62, 43
2, 53424, Note_on_c, 0, 63, 0
2, 53520, Note_on_c, 0, 62, 0
2, 53520, Note_on_c, 0, 63, 48
2, 53640, Note_on_c, 0, 59, 42
2, 53664, Note_on_c, 0, 63, 0
2, 53760, Note_on_c, 0, 59, 0
2, 53760, Note_on_c, 0, 60, 52
2, 53880, Note_on_c, 0, 59, 45
2, 53904, Note_on_c, 0, 60, 0
2, 54000, Note_on_c, 0, 59, 0
2, 54000, Note_on_c, 0, 60, 48
2, 54120, Note_on_c, 0, 55, 43
2, 54144, Note_on_c, 0, 60, 0
2, 54240, Note_on_c, 0, 55, 0
2, 54240, Note_on_c, 0, 59, 51
2, 54360, Note_on_c, 0, 55, 50
2, 54384, Note_on_c, 0, 59, 0
2, 54480, Note_on_c, 0, 55, 0
2, 54480, Note_on_c, 0, 67, 66
2, 54600, Note_on_c, 0, 66, 50
2, 54624, Note_on_c, 0, 67, 0
2, 54720, Note_on_c, 0, 66, 0
2, 54720, Note_on_c, 0, 67, 74
2, 54840, Note_on_c, 0, 68, 55
2, 54864, Note_on_c, 0, 67, 0
2, 54960, Note_on_c, 0, 68, 0
2, 54960, Note_on_c, 0, 65, 63
2, 55080, Note_on_c, 0, 67, 53
2, 55104, Note_on_c, 0, 65, 0
2, 55200, Note_on_c, 0, 67, 0
2, 55200, Note_on_c, 0, 63, 66
2, 55320, Note_on_c, 0, 65, 55
2, 55344, Note_on_c, 0, 63, 0
2, 55440, Note_on_c, 0, 65, 0
2, 55440, Note_on_c, 0, 62, 61
2, 55560, Note_on_c, 0, 63, 52
2, 55584, Note_on_c, 0, 62, 0
2, 55680, Note_on_c, 0, 63, 0
2, 55680, Note_on_c, 0, 60, 66
2, 55800, Note_on_c, 0, 60, 0
2, 55800, Note_on_c, 0, 62, 56
2, 55920, Note_on_c, 0, 62, 0
2, 55920, Note_on_c, 0, 63, 56
2, 56040, Note_on_c, 0, 63, 0
2, 56040, Note_on_c, 0, 67, 62
2, 56160, Note_on_c, 0, 67, 0
2, 56160, Note_on_c, 0, 72, 61
2, 56280, Note_on_c, 0, 72, 0
2, 56280, Note_on_c, 0, 74, 66
2, 56400, Note_on_c, 0, 74, 0
2, 56400, Note_on_c, 0, 75, 71
2, 56520, Note_on_c, 0, 75, 0
2, 56520, Note_on_c, 0, 66, 61
2, 56640, Note_on_c, 0, 66, 0
2, 56640, Note_on_c, 0, 74, 73
2, 56760, Note_on_c, 0, 74, 0
2, 56760, Note_on_c, 0, 67, 56
2, 56880, Note_on_c, 0, 67, 0
2, 56880, Note_on_c, 0, 70, 64
2, 57000, Note_on_c, 0, 70, 0
2, 57000, Note_on_c, 0, 74, 56
2, 57120, Note_on_c, 0, 74, 0
2, 57120, Note_on_c, 0, 72, 66
2, 57240, Note_on_c, 0, 72, 0
2, 57240, Note_on_c, 0, 63, 52
2, 57360, Note_on_c, 0, 63, 0
2, 57360, Note_on_c, 0, 69, 59
2, 57480, Note_on_c, 0, 69, 0
2, 57480, Note_on_c, 0, 72, 51
2, 57600, Note_on_c, 0, 72, 0
2, 57600, Note_on_c, 0, 66, 63
2, 57720, Note_on_c, 0, 66, 0
2, 57720, Note_on_c, 0, 60, 55
2, 57840, Note_on_c, 0, 60, 0
2, 57840, Note_on_c, 0, 62, 59
2, 57960, Note_on_c, 0, 62, 0
2, 57960, Note_on_c, 0, 66, 52
2, 58080, Note_on_c, 0, 66, 0
2, 58080, Note_on_c, 0, 59, 59
2, 58080, Note_on_c, 0, 67, 70
2, 58320, Note_on_c, 0, 67, 0
2, 58320, Note_on_c, 0, 59, 0
2, 62160, Note_on_c, 0, 60, 54
2, 62280, Note_on_c, 0, 60, 0
2, 62280, Note_on_c, 0, 59, 41
2, 62400, Note_on_c, 0, 59, 0
2, 62400, Note_on_c, 0, 60, 61
2, 62520, Note_on_c, 0, 62, 45
2, 62544, Note_on_c, 0, 60, 0
2, 62640, Note_on_c, 0, 62, 0
2, 62640, Note_on_c, 0, 60, 52
2, 62760, Note_on_c, 0, 62, 44
2, 62784, Note_on_c, 0, 60, 0
2, 62880, Note_on_c, 0, 62, 0
2, 62880, Note_on_c, 0, 58, 54
2, 63000, Note_on_c, 0, 60, 45
2, 63024, Note_on_c, 0, 58, 0
2, 63120, Note_on_c, 0, 60, 0
2, 63120, Note_on_c, 0, 57, 50
2, 63240, Note_on_c, 0, 58, 43
2, 63264, Note_on_c, 0, 57, 0
2, 63360, Note_on_c, 0, 58, 0
2, 63360, Note_on_c, 0, 55, 54
2, 63480, Note_on_c, 0, 55, 0
2, 63480, Note_on_c, 0, 57, 45
2, 63600, Note_on_c, 0, 57, 0
2, 63600, Note_on_c, 0, 58, 45
2, 63720, Note_on_c, 0, 58, 0
2, 63720, Note_on_c, 0, 62, 51
2, 63840, Note_on_c, 0, 62, 0
2, 63840, Note_on_c, 0, 67, 50
2, 63960, Note_on_c, 0, 67, 0
2, 63960, Note_on_c, 0, 69, 54
2, 64080, Note_on_c, 0, 69, 0
2, 64080, Note_on_c, 0, 70, 58
2, 64200, Note_on_c, 0, 70, 0
2, 64200, Note_on_c, 0, 66, 50
2, 64320, Note_on_c, 0, 66, 0
2, 64320, Note_on_c, 0, 67, 60
2, 64440, Note_on_c, 0, 66, 45
2, 64464, Note_on_c, 0, 67, 0
2, 64560, Note_on_c, 0, 66, 0
2, 64560, Note_on_c, 0, 67, 53
2, 64680, Note_on_c, 0, 62, 45
2, 64704, Note_on_c, 0, 67, 0
2, 64800, Note_on_c, 0, 62, 0
2, 64800, Note_on_c, 0, 63, 54
2, 64920, Note_on_c, 0, 62, 43
2, 64944, Note_on_c, 0, 63, 0
2, 65040, Note_on_c, 0, 62, 0
2, 65040, Note_on_c, 0, 63, 48
2, 65160, Note_on_c, 0, 59, 42
2, 65184, Note_on_c, 0, 63, 0
2, 65280, Note_on_c, 0, 59, 0
2, 65280, Note_on_c, 0, 60, 52
2, 65400, Note_on_c, 0, 59, 45
2, 65424, Note_on_c, 0, 60, 0
2, 65520, Note_on_c, 0, 59, 0
2, 65520, Note_on_c, 0, 60, 48
2, 65640, Note_on_c, 0, 55, 43
2, 65664, Note_on_c, 0, 60, 0
2, 65760, Note_on_c, 0, 55, 0
2, 65760, Note_on_c, 0, 59, 51
2, 65880, Note_on_c, 0, 55, 50
2, 65904, Note_on_c, 0, 59, 0
2, 66000, Note_on_c, 0, 55, 0
2, 66000, Note_on_c, 0, 67, 66
2, 66120, Note_on_c, 0, 66, 50
2, 66144, Note_on_c, 0, 67, 0
2, 66240, Note_on_c, 0, 66, 0
2, 66240, Note_on_c, 0, 67, 74
2, 66360, Note_on_c, 0, 68, 55
2, 66384, Note_on_c, 0, 67, 0
2, 66480, Note_on_c, 0, 68, 0
2, 66480, Note_on_c, 0, 65, 63
2, 66600, Note_on_c, 0, 67, 53
2, 66624, Note_on_c, 0, 65, 0
2, 66720, Note_on_c, 0, 67, 0
2, 66720, Note_on_c, 0, 63, 66
2, 66840, Note_on_c, 0, 65, 55
2, 66864, Note_on_c, 0, 63, 0
2, 66960, Note_on_c, 0, 65, 0
2, 66960, Note_on_c, 0, 62, 61
2, 67080, Note_on_c, 0, 63, 52
2, 67104, Note_on_c, 0, 62, 0
2, 67200, Note_on_c, 0, 63, 0
2, 67200, Note_on_c, 0, 60, 66
2, 67320, Note_on_c, 0, 60, 0
2, 67320, Note_on_c, 0, 62, 56
2, 67440, Note_on_c, 0, 62, 0
2, 67440, Note_on_c, 0, 63, 56
2, 67560, Note_on_c, 0, 63, 0
2, 67560, Note_on_c, 0, 67, 62
2, 67680, Note_on_c, 0, 67, 0
2, 67680, Note_on_c, 0, 72, 61
2, 67800, Note_on_c, 0, 72, 0
2, 67800, Note_on_c, 0, 74, 66
2, 67920, Note_on_c, 0, 74, 0
2, 67920, Note_on_c, 0, 75, 71
2, 68040, Note_on_c, 0, 75, 0
2, 68040, Note_on_c, 0, 66, 61
2, 68160, Note_on_c, 0, 66, 0
2, 68160, Note_on_c, 0, 74, 73
2, 68280, Note_on_c, 0, 74, 0
2, 68280, Note_on_c, 0, 67, 56
2, 68400, Note_on_c, 0, 67, 0
2, 68400, Note_on_c, 0, 70, 64
2, 68520, Note_on_c, 0, 70, 0
2, 68520, Note_on_c, 0, 74, 56
2, 68640, Note_on_c, 0, 74, 0
2, 68640, Note_on_c, 0, 72, 66
2, 68760, Note_on_c, 0, 72, 0
2, 68760, Note_on_c, 0, 63, 52
2, 68880, Note_on_c, 0, 63, 0
2, 68880, Note_on_c, 0, 69, 59
2, 69000, Note_on_c, 0, 69, 0
2, 69000, Note_on_c, 0, 72, 51
2, 69120, Note_on_c, 0, 72, 0
2, 69120, Note_on_c, 0, 66, 63
2, 69240, Note_on_c, 0, 66, 0
2, 69240, Note_on_c, 0, 60, 55
2, 69360, Note_on_c, 0, 60, 0
2, 69360, Note_on_c, 0, 62, 59
2, 69480, Note_on_c, 0, 62, 0
2, 69480, Note_on_c, 0, 66, 52
2, 69600, Note_on_c, 0, 66, 0
2, 69600, Note_on_c, 0, 59, 59
2, 69600, Note_on_c, 0, 67, 70
2, 69840, Note_on_c, 0, 67, 0
2, 69840, Note_on_c, 0, 59, 0
2, 69840, Note_on_c, 0, 72, 54
2, 69960, Note_on_c, 0, 72, 0
2, 69960, Note_on_c, 0, 71, 41
2, 70080, Note_on_c, 0, 71, 0
2, 70080, Note_on_c, 0, 72, 61
2, 70200, Note_on_c, 0, 72, 0
2, 70200, Note_on_c, 0, 73, 45
2, 70320, Note_on_c, 0, 73, 0
2, 70320, Note_on_c, 0, 70, 52
2, 70440, Note_on_c, 0, 70, 0
2, 70440, Note_on_c, 0, 72, 44
2, 70560, Note_on_c, 0, 72, 0
2, 70560, Note_on_c, 0, 68, 54
2, 70680, Note_on_c, 0, 68, 0
2, 70680, Note_on_c, 0, 70, 45
2, 70800, Note_on_c, 0, 70, 0
2, 70800, Note_on_c, 0, 67, 50
2, 70920, Note_on_c, 0, 67, 0
2, 70920, Note_on_c, 0, 68, 43
2, 71040, Note_on_c, 0, 68, 0
2, 71040, Note_on_c, 0, 65, 54
2, 71160, Note_on_c, 0, 65, 0
2, 71160, Note_on_c, 0, 67, 45
2, 71280, Note_on_c, 0, 67, 0
2, 71280, Note_on_c, 0, 68, 45
2, 71400, Note_on_c, 0, 68, 0
2, 71400, Note_on_c, 0, 72, 51
2, 71520, Note_on_c, 0, 72, 0
2, 71520, Note_on_c, 0, 77, 50
2, 71640, Note_on_c, 0, 77, 0
2, 71640, Note_on_c, 0, 79, 54
2, 71760, Note_on_c, 0, 79, 0
2, 71760, Note_on_c, 0, 80, 58
2, 71880, Note_on_c, 0, 80, 0
2, 71880, Note_on_c, 0, 75, 50
2, 72000, Note_on_c, 0, 75, 0
2, 72000, Note_on_c, 0, 74, 60
2, 72120, Note_on_c, 0, 74, 0
2, 72120, Note_on_c, 0, 75, 45
2, 72240, Note_on_c, 0, 75, 0
2, 72240, Note_on_c, 0, 72, 53
2, 72360, Note_on_c, 0, 72, 0
2, 72360, Note_on_c, 0, 74, 45
2, 72480, Note_on_c, 0, 74, 0
2, 72480, Note_on_c, 0, 70, 54
2, 72600, Note_on_c, 0, 70, 0
2, 72600, Note_on_c, 0, 72, 43
2, 72720, Note_on_c, 0, 72, 0
2, 72720, Note_on_c, 0, 69, 48
2, 72840, Note_on_c, 0, 69, 0
2, 72840, Note_on_c, 0, 70, 42
2, 72960, Note_on_c, 0, 70, 0
2, 72960, Note_on_c, 0, 67, 54
2, 73080, Note_on_c, 0, 67, 0
2, 73080, Note_on_c, 0, 69, 48
2, 73200, Note_on_c, 0, 69, 0
2, 73200, Note_on_c, 0, 70, 48
2, 73320, Note_on_c, 0, 70, 0
2, 73320, Note_on_c, 0, 74, 51
2, 73440, Note_on_c, 0, 74, 0
2, 73440, Note_on_c, 0, 79, 50
2, 73560, Note_on_c, 0, 79, 0
2, 73560, Note_on_c, 0, 81, 54
2, 73680, Note_on_c, 0, 81, 0
2, 73680, Note_on_c, 0, 82, 58
2, 73800, Note_on_c, 0, 82, 0
2, 73800, Note_on_c, 0, 78, 50
2, 73920, Note_on_c, 0, 78, 0
2, 73920, Note_on_c, 0, 79, 60
2, 74040, Note_on_c, 0, 79, 0
2, 74040, Note_on_c, 0, 80, 53
2, 74160, Note_on_c, 0, 80, 0
2, 74160, Note_on_c, 0, 77, 60
2, 74280, Note_on_c, 0, 77, 0
2, 74280, Note_on_c, 0, 79, 51
2, 74400, Note_on_c, 0, 79, 0
2, 74400, Note_on_c, 0, 75, 61
2, 74520, Note_on_c, 0, 75, 0
2, 74520, Note_on_c, 0, 77, 50
2, 74640, Note_on_c, 0, 77, 0
2, 74640, Note_on_c, 0, 74, 55
2, 74760, Note_on_c, 0, 74, 0
2, 74760, Note_on_c, 0, 75, 52
2, 74880, Note_on_c, 0, 75, 0
2, 74880, Note_on_c, 0, 72, 61
2, 75000, Note_on_c, 0, 72, 0
2, 75000, Note_on_c, 0, 74, 50
2, 75120, Note_on_c, 0, 74, 0
2, 75120, Note_on_c, 0, 75, 50
2, 75240, Note_on_c, 0, 75, 0
2, 75240, Note_on_c, 0, 79, 55
2, 75360, Note_on_c, 0, 79, 0
2, 75360, Note_on_c, 0, 84, 56
2, 75480, Note_on_c, 0, 84, 0
2, 75480, Note_on_c, 0, 86, 60
2, 75600, Note_on_c, 0, 86, 0
2, 75600, Note_on_c, 0, 87, 65
2, 75720, Note_on_c, 0, 87, 0
2, 75720, Note_on_c, 0, 83, 56
2, 75840, Note_on_c, 0, 83, 0
2, 75840, Note_on_c, 0, 84, 71
2, 75960, Note_on_c, 0, 84, 0
2, 75960, Note_on_c, 0, 86, 54
2, 76080, Note_on_c, 0, 86, 0
2, 76080, Note_on_c, 0, 87, 63
2, 76200, Note_on_c, 0, 87, 0
2, 76200, Note_on_c, 0, 83, 53
2, 76320, Note_on_c, 0, 83, 0
2, 76320, Note_on_c, 0, 84, 68
2, 76440, Note_on_c, 0, 84, 0
2, 76440, Note_on_c, 0, 86, 53
2, 76560, Note_on_c, 0, 86, 0
2, 76560, Note_on_c, 0, 87, 59
2, 76680, Note_on_c, 0, 87, 0
2, 76680, Note_on_c, 0, 78, 51
2, 76800, Note_on_c, 0, 78, 0
2, 76800, Note_on_c, 0, 79, 60
2, 76920, Note_on_c, 0, 79, 0
2, 76920, Note_on_c, 0, 80, 55
2, 77040, Note_on_c, 0, 80, 0
2, 77040, Note_on_c, 0, 79, 63
2, 77160, Note_on_c, 0, 79, 0
2, 77160, Note_on_c, 0, 80, 60
2, 77280, Note_on_c, 0, 80, 0
2, 77280, Note_on_c, 0, 79, 66
2, 77400, Note_on_c, 0, 79, 0
2, 77400, Note_on_c, 0, 80, 61
2, 77520, Note_on_c, 0, 80, 0
2, 77520, Note_on_c, 0, 79, 64
2, 77640, Note_on_c, 0, 79, 0
2, 77640, Note_on_c, 0, 80, 55
2, 77760, Note_on_c, 0, 80, 0
2, 77760, Note_on_c, 0, 79, 66
2, 77880, Note_on_c, 0, 79, 0
2, 77880, Note_on_c, 0, 80, 60
2, 78000, Note_on_c, 0, 80, 0
2, 78000, Note_on_c, 0, 77, 65
2, 78120, Note_on_c, 0, 77, 0
2, 78120, Note_on_c, 0, 79, 57
2, 78240, Note_on_c, 0, 79, 0
2, 78240, Note_on_c, 0, 75, 63
2, 78360, Note_on_c, 0, 75, 0
2, 78360, Note_on_c, 0, 77, 54
2, 78480, Note_on_c, 0, 77, 0
2, 78480, Note_on_c, 0, 74, 63
2, 78600, Note_on_c, 0, 74, 0
2, 78600, Note_on_c, 0, 75, 54
2, 78720, Note_on_c, 0, 75, 0
2, 78720, Note_on_c, 0, 72, 61
2, 78840, Note_on_c, 0, 72, 0
2, 78840, Note_on_c, 0, 74, 56
2, 78960, Note_on_c, 0, 74, 0
2, 78960, Note_on_c, 0, 75, 60
2, 79080, Note_on_c, 0, 75, 0
2, 79080, Note_on_c, 0, 79, 63
2, 79200, Note_on_c, 0, 79, 0
2, 79200, Note_on_c, 0, 84, 65
2, 79320, Note_on_c, 0, 84, 0
2, 79320, Note_on_c, 0, 86, 63
2, 79440, Note_on_c, 0, 86, 0
2, 79440, Note_on_c, 0, 79, 58
2, 79440, Note_on_c, 0, 87, 68
2, 79560, Note_on_c, 0, 87, 0
2, 79560, Note_on_c, 0, 79, 0
2, 79560, Note_on_c, 0, 78, 61
2, 79680, Note_on_c, 0, 78, 0
2, 79680, Note_on_c, 0, 79, 66
2, 79800, Note_on_c, 0, 79, 0
2, 79800, Note_on_c, 0, 80, 60
2, 79920, Note_on_c, 0, 80, 0
2, 79920, Note_on_c, 0, 77, 65
2, 80040, Note_on_c, 0, 77, 0
2, 80040, Note_on_c, 0, 79, 57
2, 80160, Note_on_c, 0, 79, 0
2, 80160, Note_on_c, 0, 75, 63
2, 80280, Note_on_c, 0, 75, 0
2, 80280, Note_on_c, 0, 77, 54
2, 80400, Note_on_c, 0, 77, 0
2, 80400, Note_on_c, 0, 74, 63
2, 80520, Note_on_c, 0, 74, 0
2, 80520, Note_on_c, 0, 75, 54
2, 80640, Note_on_c, 0, 75, 0
2, 80640, Note_on_c, 0, 72, 61
2, 80760, Note_on_c, 0, 72, 0
2, 80760, Note_on_c, 0, 74, 56
2, 80880, Note_on_c, 0, 74, 0
2, 80880, Note_on_c, 0, 75, 60
2, 81000, Note_on_c, 0, 75, 0
2, 81000, Note_on_c, 0, 79, 63
2, 81120, Note_on_c, 0, 79, 0
2, 81120, Note_on_c, 0, 84, 65
2, 81240, Note_on_c, 0, 84, 0
2, 81240, Note_on_c, 0, 86, 52
2, 81360, Note_on_c, 0, 86, 0
2, 81360, Note_on_c, 0, 79, 62
2, 81360, Note_on_c, 0, 87, 62
2, 81480, Note_on_c, 0, 87, 0
2, 81480, Note_on_c, 0, 79, 0
2, 81480, Note_on_c, 0, 78, 55
2, 81600, Note_on_c, 0, 78, 0
2, 81600, Note_on_c, 0, 79, 67
2, 81720, Note_on_c, 0, 79, 0
2, 81720, Note_on_c, 0, 80, 52
2, 81840, Note_on_c, 0, 80, 0
2, 81840, Note_on_c, 0, 77, 57
2, 81960, Note_on_c, 0, 77, 0
2, 81960, Note_on_c, 0, 89, 52
2, 82080, Note_on_c, 0, 89, 0
2, 82080, Note_on_c, 0, 77, 68
2, 82200, Note_on_c, 0, 77, 0
2, 82200, Note_on_c, 0, 79, 52
2, 82320, Note_on_c, 0, 79, 0
2, 82320, Note_on_c, 0, 75, 57
2, 82440, Note_on_c, 0, 75, 0
2, 82440, Note_on_c, 0, 87, 54
2, 82560, Note_on_c, 0, 87, 0
2, 82560, Note_on_c, 0, 75, 68
2, 82680, Note_on_c, 0, 75, 0
2, 82680, Note_on_c, 0, 77, 54
2, 82800, Note_on_c, 0, 77, 0
2, 82800, Note_on_c, 0, 74, 58
2, 82920, Note_on_c, 0, 74, 0
2, 82920, Note_on_c, 0, 86, 54
2, 83040, Note_on_c, 0, 86, 0
2, 83040, Note_on_c, 0, 74, 69
2, 83160, Note_on_c, 0, 74, 0
2, 83160, Note_on_c, 0, 75, 55
2, 83280, Note_on_c, 0, 75, 0
2, 83280, Note_on_c, 0, 72, 58
2, 83400, Note_on_c, 0, 72, 0
2, 83400, Note_on_c, 0, 84, 55
2, 83520, Note_on_c, 0, 84, 0
2, 83520, Note_on_c, 0, 72, 70
2, 83640, Note_on_c, 0, 72, 0
2, 83640, Note_on_c, 0, 74, 55
2, 83760, Note_on_c, 0, 74, 0
2, 83760, Note_on_c, 0, 70, 55
2, 83880, Note_on_c, 0, 70, 0
2, 83880, Note_on_c, 0, 82, 55
2, 84000, Note_on_c, 0, 82, 0
2, 84000, Note_on_c, 0, 70, 73
2, 84120, Note_on_c, 0, 70, 0
2, 84120, Note_on_c, 0, 72, 55
2, 84240, Note_on_c, 0, 72, 0
2, 84240, Note_on_c, 0, 68, 55
2, 84360, Note_on_c, 0, 68, 0
2, 84360, Note_on_c, 0, 80, 55
2, 84480, Note_on_c, 0, 80, 0
2, 84480, Note_on_c, 0, 68, 76
2, 84600, Note_on_c, 0, 68, 0
2, 84600, Note_on_c, 0, 70, 56
2, 84720, Note_on_c, 0, 70, 0
2, 84720, Note_on_c, 0, 67, 57
2, 84840, Note_on_c, 0, 67, 0
2, 84840, Note_on_c, 0, 79, 57
2, 84960, Note_on_c, 0, 79, 0
2, 84960, Note_on_c, 0, 67, 71
2, 85080, Note_on_c, 0, 67, 0
2, 85080, Note_on_c, 0, 79, 55
2, 85200, Note_on_c, 0, 79, 0
2, 85200, Note_on_c, 0, 67, 76
2, 85320, Note_on_c, 0, 68, 55
2, 85380, Note_on_c, 0, 67, 0
2, 85440, Note_on_c, 0, 68, 0
2, 85440, Note_on_c, 0, 67, 77
2, 85560, Note_on_c, 0, 63, 47
2, 85680, Note_on_c, 0, 63, 0
2, 85680, Note_on_c, 0, 62, 52
2, 85800, Note_on_c, 0, 62, 0
2, 85800, Note_on_c, 0, 60, 44
2, 85920, Note_on_c, 0, 60, 0
2, 86160, Note_on_c, 0, 67, 0
2, 86160, Note_on_c, 0, 67, 65
2, 86160, Note_on_c, 0, 72, 65
2, 86280, Note_on_c, 0, 67, 0
2, 86280, Note_on_c, 0, 68, 52
2, 86340, Note_on_c, 0, 72, 0
2, 86400, Note_on_c, 0, 68, 0
2, 86400, Note_on_c, 0, 67, 80
2, 86400, Note_on_c, 0, 71, 80
2, 86520, Note_on_c, 0, 67, 0
2, 86520, Note_on_c, 0, 65, 50
2, 86640, Note_on_c, 0, 65, 0
2, 86640, Note_on_c, 0, 63, 51
2, 86760, Note_on_c, 0, 63, 0
2, 86760, Note_on_c, 0, 62, 51
2, 86880, Note_on_c, 0, 62, 0
2, 87120, Note_on_c, 0, 71, 0
2, 87120, Note_on_c, 0, 67, 71
2, 87240, Note_on_c, 0, 68, 51
2, 87300, Note_on_c, 0, 67, 0
2, 87360, Note_on_c, 0, 68, 0
2, 87360, Note_on_c, 0, 67, 82
2, 87480, Note_on_c, 0, 63, 47
2, 87600, Note_on_c, 0, 63, 0
2, 87600, Note_on_c, 0, 62, 52
2, 87720, Note_on_c, 0, 62, 0
2, 87720, Note_on_c, 0, 60, 44
2, 87840, Note_on_c, 0, 60, 0
2, 88080, Note_on_c, 0, 67, 0
2, 88080, Note_on_c, 0, 67, 60
2, 88080, Note_on_c, 0, 72, 60
2, 88200, Note_on_c, 0, 67, 0
2, 88200, Note_on_c, 0, 68, 52
2, 88260, Note_on_c, 0, 72, 0
2, 88320, Note_on_c, 0, 68, 0
2, 88320, Note_on_c, 0, 67, 79
2, 88320, Note_on_c, 0, 71, 79
2, 88440, Note_on_c, 0, 67, 0
2, 88440, Note_on_c, 0, 65, 50
2, 88560, Note_on_c, 0, 65, 0
2, 88560, Note_on_c, 0, 63, 51
2, 88680, Note_on_c, 0, 63, 0
2, 88680, Note_on_c, 0, 62, 51
2, 88800, Note_on_c, 0, 62, 0
2, 89040, Note_on_c, 0, 71, 0
2, 89040, Note_on_c, 0, 67, 65
2, 89160, Note_on_c, 0, 68, 51
2, 89220, Note_on_c, 0, 67, 0
2, 89280, Note_on_c, 0, 68, 0
2, 89280, Note_on_c, 0, 67, 78
2, 89400, Note_on_c, 0, 63, 47
2, 89520, Note_on_c, 0, 63, 0
2, 89520, Note_on_c, 0, 62, 52
2, 89640, Note_on_c, 0, 62, 0
2, 89640, Note_on_c, 0, 60, 44
2, 89760, Note_on_c, 0, 60, 0
2, 89760, Note_on_c, 0, 67, 0
2, 89760, Note_on_c, 0, 75, 79
2, 90000, Note_on_c, 0, 75, 0
2, 90000, Note_on_c, 0, 68, 60
2, 90120, Note_on_c, 0, 70, 52
2, 90240, Note_on_c, 0, 70, 0
2, 90240, Note_on_c, 0, 68, 0
2, 90240, Note_on_c, 0, 68, 80
2, 90360, Note_on_c, 0, 63, 47
2, 90480, Note_on_c, 0, 63, 0
2, 90480, Note_on_c, 0, 65, 52
2, 90600, Note_on_c, 0, 65, 0
2, 90600, Note_on_c, 0, 60, 44
2, 90720, Note_on_c, 0, 60, 0
2, 90720, Note_on_c, 0, 68, 0
2, 90720, Note_on_c, 0, 80, 87
2, 90960, Note_on_c, 0, 80, 0
2, 90960, Note_on_c, 0, 68, 60
2, 91080, Note_on_c, 0, 70, 52
2, 91200, Note_on_c, 0, 70, 0
2, 91200, Note_on_c, 0, 68, 0
2, 91200, Note_on_c, 0, 68, 80
2, 91320, Note_on_c, 0, 62, 47
2, 91440, Note_on_c, 0, 62, 0
2, 91440, Note_on_c, 0, 60, 52
2, 91560, Note_on_c, 0, 60, 0
2, 91560, Note_on_c, 0, 58, 44
2, 91680, Note_on_c, 0, 58, 0
2, 91680, Note_on_c, 0, 68, 0
2, 91680, Note_on_c, 0, 74, 83
2, 91920, Note_on_c, 0, 74, 0
2, 91920, Note_on_c, 0, 67, 59
2, 92040, Note_on_c, 0, 68, 51
2, 92160, Note_on_c, 0, 68, 0
2, 92160, Note_on_c, 0, 67, 0
2, 92160, Note_on_c, 0, 67, 79
2, 92280, Note_on_c, 0, 62, 46
2, 92400, Note_on_c, 0, 62, 0
2, 92400, Note_on_c, 0, 63, 50
2, 92520, Note_on_c, 0, 63, 0
2, 92520, Note_on_c, 0, 58, 43
2, 92640, Note_on_c, 0, 58, 0
2, 92640, Note_on_c, 0, 67, 0
2, 92640, Note_on_c, 0, 79, 85
2, 92880, Note_on_c, 0, 79, 0
2, 92880, Note_on_c, 0, 67, 58
2, 93000, Note_on_c, 0, 68, 50
2, 93120, Note_on_c, 0, 68, 0
2, 93120, Note_on_c, 0, 67, 0
2, 93120, Note_on_c, 0, 67, 77
2, 93240, Note_on_c, 0, 60, 45
2, 93360, Note_on_c, 0, 60, 0
2, 93360, Note_on_c, 0, 58, 50
2, 93480, Note_on_c, 0, 58, 0
2, 93480, Note_on_c, 0, 56, 42
2, 93600, Note_on_c, 0, 56, 0
2, 93600, Note_on_c, 0, 67, 0
2, 93600, Note_on_c, 0, 72, 79
2, 93840, Note_on_c, 0, 72, 0
2, 93840, Note_on_c, 0, 65, 57
2, 93960, Note_on_c, 0, 67, 49
2, 94080, Note_on_c, 0, 67, 0
2, 94080, Note_on_c, 0, 65, 0
2, 94080, Note_on_c, 0, 65, 76
2, 94200, Note_on_c, 0, 60, 44
2, 94320, Note_on_c, 0, 60, 0
2, 94320, Note_on_c, 0, 62, 49
2, 94440, Note_on_c, 0, 62, 0
2, 94440, Note_on_c, 0, 56, 41
2, 94560, Note_on_c, 0, 56, 0
2, 94560, Note_on_c, 0, 65, 0
2, 94560, Note_on_c, 0, 77, 81
2, 94800, Note_on_c, 0, 77, 0
2, 94800, Note_on_c, 0, 65, 56
2, 94920, Note_on_c, 0, 67, 48
2, 95040, Note_on_c, 0, 67, 0
2, 95040, Note_on_c, 0, 65, 0
2, 95040, Note_on_c, 0, 65, 75
2, 95160, Note_on_c, 0, 59, 43
2, 95280, Note_on_c, 0, 59, 0
2, 95280, Note_on_c, 0, 57, 48
2, 95400, Note_on_c, 0, 57, 0
2, 95400, Note_on_c, 0, 55, 40
2, 95520, Note_on_c, 0, 55, 0
2, 95520, Note_on_c, 0, 65, 0
2, 95520, Note_on_c, 0, 71, 77
2, 95760, Note_on_c, 0, 71, 0
2, 95760, Note_on_c, 0, 65, 55
2, 95880, Note_on_c, 0, 67, 47
2, 96000, Note_on_c, 0, 67, 0
2, 96000, Note_on_c, 0, 65, 0
2, 96000, Note_on_c, 0, 65, 73
2, 96120, Note_on_c, 0, 59, 43
2, 96240, Note_on_c, 0, 59, 0
2, 96240, Note_on_c, 0, 62, 47
2, 96360, Note_on_c, 0, 62, 0
2, 96360, Note_on_c, 0, 55, 40
2, 96480, Note_on_c, 0, 55, 0
2, 96480, Note_on_c, 0, 65, 0
2, 96480, Note_on_c, 0, 77, 75
2, 96720, Note_on_c, 0, 77, 0
2, 96840, Note_on_c, 0, 67, 52
2, 96880, Note_on_c, 0, 72, 43
2, 96920, Note_on_c, 0, 72, 0
2, 96920, Note_on_c, 0, 74, 43
2, 96960, Note_on_c, 0, 74, 0
2, 96960, Note_on_c, 0, 67, 0
2, 96960, Note_on_c, 0, 75, 75
2, 97080, Note_on_c, 0, 75, 0
2, 97080, Note_on_c, 0, 66, 49
2, 97200, Note_on_c, 0, 66, 0
2, 97200, Note_on_c, 0, 72, 52
2, 97320, Note_on_c, 0, 72, 0
2, 97320, Note_on_c, 0, 75, 52
2, 97440, Note_on_c, 0, 75, 0
2, 97440, Note_on_c, 0, 74, 74
2, 97560, Note_on_c, 0, 74, 0
2, 97560, Note_on_c, 0, 65, 47
2, 97680, Note_on_c, 0, 65, 0
2, 97680, Note_on_c, 0, 71, 52
2, 97800, Note_on_c, 0, 71, 0
2, 97800, Note_on_c, 0, 74, 52
2, 97920, Note_on_c, 0, 74, 0
2, 97920, Note_on_c, 0, 72, 74
2, 98040, Note_on_c, 0, 72, 0
2, 98040, Note_on_c, 0, 69, 48
2, 98160, Note_on_c, 0, 69, 0
2, 98160, Note_on_c, 0, 66, 52
2, 98280, Note_on_c, 0, 66, 0
2, 98280, Note_on_c, 0, 63, 52
2, 98400, Note_on_c, 0, 63, 0
2, 98760, Note_on_c, 0, 67, 52
2, 98800, Note_on_c, 0, 72, 43
2, 98840, Note_on_c, 0, 72, 0
2, 98840, Note_on_c, 0, 74, 43
2, 98880, Note_on_c, 0, 74, 0
2, 98880, Note_on_c, 0, 67, 0
2, 98880, Note_on_c, 0, 75, 75
2, 99000, Note_on_c, 0, 75, 0
2, 99000, Note_on_c, 0, 66, 49
2, 99120, Note_on_c, 0, 66, 0
2, 99120, Note_on_c, 0, 72, 52
2, 99240, Note_on_c, 0, 72, 0
2, 99240, Note_on_c, 0, 75, 52
2, 99360, Note_on_c, 0, 75, 0
2, 99360, Note_on_c, 0, 74, 74
2, 99480, Note_on_c, 0, 74, 0
2, 99480, Note_on_c, 0, 65, 47
2, 99600, Note_on_c, 0, 65, 0
2, 99600, Note_on_c, 0, 71, 52
2, 99720, Note_on_c, 0, 71, 0
2, 99720, Note_on_c, 0, 74, 52
2, 99840, Note_on_c, 0, 74, 0
2, 99840, Note_on_c, 0, 72, 74
2, 99960, Note_on_c, 0, 72, 0
2, 99960, Note_on_c, 0, 69, 48
2, 100080, Note_on_c, 0, 69, 0
2, 100080, Note_on_c, 0, 66, 52
2, 100200, Note_on_c, 0, 66, 0
2, 100200, Note_on_c, 0, 63, 52
2, 100320, Note_on_c, 0, 63, 0
2, 100680, Note_on_c, 0, 63, 52
2, 100720, Note_on_c, 0, 67, 43
2, 100760, Note_on_c, 0, 67, 0
2, 100760, Note_on_c, 0, 68, 43
2, 100800, Note_on_c, 0, 68, 0
2, 100800, Note_on_c, 0, 63, 0
2, 100800, Note_on_c, 0, 70, 74
2, 100920, Note_on_c, 0, 70, 0
2, 100920, Note_on_c, 0, 61, 44
2, 101040, Note_on_c, 0, 61, 0
2, 101040, Note_on_c, 0, 67, 49
2, 101160, Note_on_c, 0, 67, 0
2, 101160, Note_on_c, 0, 70, 42
2, 101280, Note_on_c, 0, 70, 0
2, 101280, Note_on_c, 0, 68, 69
2, 101400, Note_on_c, 0, 68, 0
2, 101400, Note_on_c, 0, 60, 42
2, 101520, Note_on_c, 0, 60, 0
2, 101520, Note_on_c, 0, 65, 48
2, 101640, Note_on_c, 0, 65, 0
2, 101640, Note_on_c, 0, 68, 44
2, 101760, Note_on_c, 0, 68, 0
2, 101760, Note_on_c, 0, 67, 69
2, 101880, Note_on_c, 0, 67, 0
2, 101880, Note_on_c, 0, 64, 42
2, 102000, Note_on_c, 0, 64, 0
2, 102000, Note_on_c, 0, 61, 47
2, 102120, Note_on_c, 0, 61, 0
2, 102120, Note_on_c, 0, 58, 42
2, 102240, Note_on_c, 0, 58, 0
2, 102528, Note_on_c, 0, 58, 52
2, 102592, Note_on_c, 0, 61, 43
2, 102656, Note_on_c, 0, 61, 0
2, 102656, Note_on_c, 0, 64, 43
2, 102720, Note_on_c, 0, 64, 0
2, 102720, Note_on_c, 0, 58, 0
2, 102720, Note_on_c, 0, 65, 70
2, 102840, Note_on_c, 0, 65, 0
2, 102840, Note_on_c, 0, 56, 44
2, 102960, Note_on_c, 0, 56, 0
2, 102960, Note_on_c, 0, 60, 49
2, 103080, Note_on_c, 0, 60, 0
2, 103080, Note_on_c, 0, 65, 42
2, 103200, Note_on_c, 0, 65, 0
2, 103200, Note_on_c, 0, 62, 69
2, 103320, Note_on_c, 0, 62, 0
2, 103320, Note_on_c, 0, 53, 42
2, 103440, Note_on_c, 0, 53, 0
2, 103440, Note_on_c, 0, 59, 48
2, 103560, Note_on_c, 0, 59, 0
2, 103560, Note_on_c, 0, 62, 44
2, 103680, Note_on_c, 0, 62, 0
2, 103680, Note_on_c, 0, 60, 69
2, 103776, Note_on_c, 0, 60, 0
2, 103776, Note_on_c, 0, 55, 42
2, 103872, Note_on_c, 0, 55, 0
2, 103872, Note_on_c, 0, 51, 47
2, 103968, Note_on_c, 0, 51, 0
2, 103968, Note_on_c, 0, 48, 42
2, 104064, Note_on_c, 0, 48, 0
2, 104064, Note_on_c, 0, 43, 42
2, 104160, Note_on_c, 0, 43, 0
2, 104400, Note_on_c, 0, 58, 37
2, 104400, Note_on_c, 0, 63, 37
2, 104400, Note_on_c, 0, 67, 44
2, 104616, Note_on_c, 0, 67, 0
2, 104616, Note_on_c, 0, 63, 0
2, 104616, Note_on_c, 0, 58, 0
2, 104640, Note_on_c, 0, 58, 42
2, 104640, Note_on_c, 0, 65, 42
2, 105096, Note_on_c, 0, 65, 0
2, 105096, Note_on_c, 0, 58, 0
2, 105120, Note_on_c, 0, 57, 39
2, 105120, Note_on_c, 0, 63, 39
2, 105120, Note_on_c, 0, 69, 47
2, 105576, Note_on_c, 0, 69, 0
2, 105576, Note_on_c, 0, 63, 0
2, 105576, Note_on_c, 0, 57, 0
2, 105600, Note_on_c, 0, 58, 42
2, 105600, Note_on_c, 0, 62, 42
2, 105600, Note_on_c, 0, 70, 50
2, 106056, Note_on_c, 0, 70, 0
2, 106056, Note_on_c, 0, 62, 0
2, 106056, Note_on_c, 0, 58, 0
2, 106320, Note_on_c, 0, 58, 37
2, 106320, Note_on_c, 0, 63, 37
2, 106320, Note_on_c, 0, 67, 44
2, 106560, Note_on_c, 0, 67, 0
2, 106560, Note_on_c, 0, 63, 0
2, 106560, Note_on_c, 0, 58, 0
2, 106560, Note_on_c, 0, 58, 42
2, 106560, Note_on_c, 0, 65, 42
2, 107016, Note_on_c, 0, 65, 0
2, 107016, Note_on_c, 0, 58, 0
2, 107040, Note_on_c, 0, 57, 39
2, 107040, Note_on_c, 0, 63, 39
2, 107040, Note_on_c, 0, 69, 47
2, 107496, Note_on_c, 0, 69, 0
2, 107496, Note_on_c, 0, 63, 0
2, 107496, Note_on_c, 0, 57, 0
2, 107520, Note_on_c, 0, 58, 42
2, 107520, Note_on_c, 0, 62, 42
2, 107520, Note_on_c, 0, 70, 50
2, 107976, Note_on_c, 0, 70, 0
2, 107976, Note_on_c, 0, 62, 0
2, 107976, Note_on_c, 0, 58, 0
2, 108240, Note_on_c, 0, 58, 45
2, 108240, Note_on_c, 0, 62, 45
2, 108240, Note_on_c, 0, 65, 53
2, 108480, Note_on_c, 0, 65, 0
2, 108480, Note_on_c, 0, 62, 0
2, 108480, Note_on_c, 0, 58, 0
2, 108480, Note_on_c, 0, 67, 57
2, 108480, Note_on_c, 0, 58, 48
2, 108480, Note_on_c, 0, 63, 48
2, 108960, Note_on_c, 0, 63, 0
2, 108960, Note_on_c, 0, 58, 0
2, 108960, Note_on_c, 0, 67, 0
2, 108960, Note_on_c, 0, 55, 42
2, 108960, Note_on_c, 0, 58, 42
2, 108960, Note_on_c, 0, 63, 51
2, 109440, Note_on_c, 0, 63, 0
2, 109440, Note_on_c, 0, 58, 0
2, 109440, Note_on_c, 0, 55, 0
2, 109440, Note_on_c, 0, 53, 49
2, 109440, Note_on_c, 0, 58, 49
2, 109440, Note_on_c, 0, 65, 58
2, 109920, Note_on_c, 0, 65, 0
2, 109920, Note_on_c, 0, 58, 0
2, 109920, Note_on_c, 0, 53, 0
2, 110160, Note_on_c, 0, 53, 45
2, 110160, Note_on_c, 0, 58, 45
2, 110160, Note_on_c, 0, 65, 54
2, 110400, Note_on_c, 0, 65, 0
2, 110400, Note_on_c, 0, 58, 0
2, 110400, Note_on_c, 0, 53, 0
2, 110400, Note_on_c, 0, 67, 59
2, 110400, Note_on_c, 0, 55, 50
2, 110880, Note_on_c, 0, 55, 0
2, 110880, Note_on_c, 0, 67, 0
2, 110880, Note_on_c, 0, 55, 42
2, 110880, Note_on_c, 0, 58, 42
2, 110880, Note_on_c, 0, 63, 51
2, 111360, Note_on_c, 0, 63, 0
2, 111360, Note_on_c, 0, 58, 0
2, 111360, Note_on_c, 0, 55, 0
2, 111360, Note_on_c, 0, 53, 51
2, 111360, Note_on_c, 0, 58, 51
2, 111360, Note_on_c, 0, 65, 60
2, 111840, Note_on_c, 0, 65, 0
2, 111840, Note_on_c, 0, 58, 0
2, 111840, Note_on_c, 0, 53, 0
2, 112080, Note_on_c, 0, 53, 35
2, 112080, Note_on_c, 0, 58, 35
2, 112080, Note_on_c, 0, 62, 42
2, 112320, Note_on_c, 0, 62, 0
2, 112320, Note_on_c, 0, 58, 0
2, 112320, Note_on_c, 0, 53, 0
2, 112320, Note_on_c, 0, 58, 40
2, 112320, Note_on_c, 0, 63, 48
2, 112320, Note_on_c, 0, 55, 40
2, 112800, Note_on_c, 0, 55, 0
2, 112800, Note_on_c, 0, 63, 0
2, 112800, Note_on_c, 0, 58, 0
2, 112800, Note_on_c, 0, 53, 34
2, 112800, Note_on_c, 0, 60, 34
2, 112800, Note_on_c, 0, 63, 41
2, 113280, Note_on_c, 0, 63, 0
2, 113280, Note_on_c, 0, 60, 0
2, 113280, Note_on_c, 0, 53, 0
2, 113280, Note_on_c, 0, 53, 40
2, 113280, Note_on_c, 0, 60, 40
2, 113280, Note_on_c, 0, 62, 48
2, 113760, Note_on_c, 0, 62, 0
2, 113760, Note_on_c, 0, 60, 0
2, 113760, Note_on_c, 0, 53, 0
2, 114000, Note_on_c, 0, 53, 29
2, 114000, Note_on_c, 0, 58, 29
2, 114000, Note_on_c, 0, 62, 35
2, 114240, Note_on_c, 0, 62, 0
2, 114240, Note_on_c, 0, 58, 0
2, 114240, Note_on_c, 0, 53, 0
2, 114240, Note_on_c, 0, 58, 36
2, 114240, Note_on_c, 0, 60, 43
2, 114240, Note_on_c, 0, 55, 36
2, 114720, Note_on_c, 0, 55, 0
2, 114720, Note_on_c, 0, 60, 0
2, 114720, Note_on_c, 0, 58, 0
2, 114720, Note_on_c, 0, 53, 31
2, 114720, Note_on_c, 0, 60, 37
2, 115200, Note_on_c, 0, 60, 0
2, 115200, Note_on_c, 0, 53, 0
2, 115200, Note_on_c, 0, 58, 43
2, 115680, Note_on_c, 0, 58, 0
2, 115920, Note_on_c, 0, 63, 38
2, 115920, Note_on_c, 0, 68, 38
2, 115920, Note_on_c, 0, 72, 45
2, 116160, Note_on_c, 0, 72, 0
2, 116160, Note_on_c, 0, 68, 0
2, 116160, Note_on_c, 0, 63, 0
2, 116160, Note_on_c, 0, 63, 41
2, 116160, Note_on_c, 0, 70, 49
2, 116616, Note_on_c, 0, 70, 0
2, 116616, Note_on_c, 0, 63, 0
2, 116640, Note_on_c, 0, 62, 36
2, 116640, Note_on_c, 0, 68, 36
2, 116640, Note_on_c, 0, 74, 43
2, 117096, Note_on_c, 0, 74, 0
2, 117096, Note_on_c, 0, 68, 0
2, 117096, Note_on_c, 0, 62, 0
2, 117120, Note_on_c, 0, 63, 38
2, 117120, Note_on_c, 0, 67, 38
2, 117120, Note_on_c, 0, 75, 46
2, 117576, Note_on_c, 0, 75, 0
2, 117576, Note_on_c, 0, 67, 0
2, 117576, Note_on_c, 0, 63, 0
2, 117840, Note_on_c, 0, 63, 36
2, 117840, Note_on_c, 0, 72, 43
2, 118080, Note_on_c, 0, 72, 0
2, 118080, Note_on_c, 0, 63, 0
2, 118080, Note_on_c, 0, 63, 42
2, 118080, Note_on_c, 0, 70, 50
2, 118536, Note_on_c, 0, 70, 0
2, 118536, Note_on_c, 0, 63, 0
2, 118560, Note_on_c, 0, 62, 37
2, 118560, Note_on_c, 0, 68, 37
2, 118560, Note_on_c, 0, 74, 44
2, 119016, Note_on_c, 0, 74, 0
2, 119016, Note_on_c, 0, 68, 0
2, 119016, Note_on_c, 0, 62, 0
2, 119040, Note_on_c, 0, 63, 38
2, 119040, Note_on_c, 0, 67, 38
2, 119040, Note_on_c, 0, 75, 45
2, 119496, Note_on_c, 0, 75, 0
2, 119496, Note_on_c, 0, 67, 0
2, 119496, Note_on_c, 0, 63, 0
2, 119760, Note_on_c, 0, 67, 39
2, 119760, Note_on_c, 0, 63, 39
2, 119760, Note_on_c, 0, 70, 39
2, 120000, Note_on_c, 0, 70, 0
2, 120000, Note_on_c, 0, 63, 0
2, 120000, Note_on_c, 0, 67, 0
2, 120000, Note_on_c, 0, 67, 45
2, 120000, Note_on_c, 0, 63, 45
2, 120000, Note_on_c, 0, 75, 53
2, 120480, Note_on_c, 0, 75, 0
2, 120480, Note_on_c, 0, 63, 0
2, 120480, Note_on_c, 0, 67, 0
2, 120480, Note_on_c, 0, 62, 45
2, 120480, Note_on_c, 0, 66, 45
2, 120480, Note_on_c, 0, 74, 53
2, 120960, Note_on_c, 0, 74, 0
2, 120960, Note_on_c, 0, 66, 0
2, 120960, Note_on_c, 0, 62, 0
2, 120960, Note_on_c, 0, 62, 48
2, 120960, Note_on_c, 0, 67, 48
2, 120960, Note_on_c, 0, 70, 57
2, 121440, Note_on_c, 0, 70, 0
2, 121440, Note_on_c, 0, 67, 0
2, 121440, Note_on_c, 0, 62, 0
2, 121680, Note_on_c, 0, 61, 34
2, 121680, Note_on_c, 0, 70, 41
2, 121920, Note_on_c, 0, 70, 0
2, 121920, Note_on_c, 0, 61, 0
2, 121920, Note_on_c, 0, 60, 39
2, 121920, Note_on_c, 0, 72, 47
2, 122400, Note_on_c, 0, 72, 0
2, 122400, Note_on_c, 0, 60, 0
2, 122400, Note_on_c, 0, 65, 34
2, 122400, Note_on_c, 0, 70, 41
2, 122880, Note_on_c, 0, 70, 0
2, 122880, Note_on_c, 0, 65, 0
2, 122880, Note_on_c, 0, 58, 40
2, 122880, Note_on_c, 0, 64, 40
2, 122880, Note_on_c, 0, 67, 48
2, 123360, Note_on_c, 0, 67, 0
2, 123360, Note_on_c, 0, 64, 0
2, 123360, Note_on_c, 0, 58, 0
2, 123600, Note_on_c, 0, 58, 34
2, 123600, Note_on_c, 0, 64, 34
2, 123600, Note_on_c, 0, 67, 41
2, 123840, Note_on_c, 0, 67, 0
2, 123840, Note_on_c, 0, 64, 0
2, 123840, Note_on_c, 0, 58, 0
2, 123840, Note_on_c, 0, 65, 39
2, 123840, Note_on_c, 0, 60, 39
2, 123840, Note_on_c, 0, 68, 47
2, 124320, Note_on_c, 0, 68, 0
2, 124320, Note_on_c, 0, 60, 0
2, 124320, Note_on_c, 0, 65, 0
2, 124320, Note_on_c, 0, 56, 34
2, 124320, Note_on_c, 0, 62, 34
2, 124320, Note_on_c, 0, 65, 41
2, 124680, Note_on_c, 0, 56, 0
2, 124680, Note_on_c, 0, 57, 34
2, 124800, Note_on_c, 0, 57, 0
2, 124800, Note_on_c, 0, 65, 0
2, 124800, Note_on_c, 0, 62, 0
2, 124800, Note_on_c, 0, 58, 40
2, 124800, Note_on_c, 0, 62, 40
2, 124800, Note_on_c, 0, 67, 48
2, 125280, Note_on_c, 0, 67, 0
2, 125280, Note_on_c, 0, 62, 0
2, 125280, Note_on_c, 0, 58, 0
2, 125520, Note_on_c, 0, 58, 34
2, 125520, Note_on_c, 0, 64, 34
2, 125520, Note_on_c, 0, 67, 41
2, 125760, Note_on_c, 0, 67, 0
2, 125760, Note_on_c, 0, 64, 0
2, 125760, Note_on_c, 0, 58, 0
2, 125760, Note_on_c, 0, 65, 39
2, 125760, Note_on_c, 0, 60, 39
2, 125760, Note_on_c, 0, 68, 47
2, 126240, Note_on_c, 0, 68, 0
2, 126240, Note_on_c, 0, 60, 0
2, 126240, Note_on_c, 0, 65, 0
2, 126240, Note_on_c, 0, 56, 34
2, 126240, Note_on_c, 0, 62, 34
2, 126240, Note_on_c, 0, 65, 41
2, 126720, Note_on_c, 0, 65, 0
2, 126720, Note_on_c, 0, 62, 0
2, 126720, Note_on_c, 0, 56, 0
2, 126720, Note_on_c, 0, 55, 40
2, 126720, Note_on_c, 0, 63, 48
2, 127200, Note_on_c, 0, 63, 0
2, 127200, Note_on_c, 0, 55, 0
2, 127440, Note_on_c, 0, 55, 34
2, 127440, Note_on_c, 0, 63, 41
2, 127680, Note_on_c, 0, 55, 0
2, 127680, Note_on_c, 0, 60, 39
2, 128160, Note_on_c, 0, 60, 0
2, 128160, Note_on_c, 0, 59, 34
2, 128640, Note_on_c, 0, 59, 0
2, 128640, Note_on_c, 0, 58, 40
2, 129120, Note_on_c, 0, 58, 0
2, 129120, Note_on_c, 0, 63, 0
2, 129120, End_track
3, 0, Start_track
3, 0, Title_t, "Piano left"
3, 0, Program_c, 0, 0
3, 900, Note_on_c, 0, 43, 48
3, 930, Note_on_c, 0, 48, 54
3, 960, Note_on_c, 0, 57, 60
3, 1200, Note_on_c, 0, 57, 0
3, 1200, Note_on_c, 0, 48, 0
3, 1200, Note_on_c, 0, 43, 0
3, 1380, Note_on_c, 0, 43, 55
3, 1410, Note_on_c, 0, 50, 59
3, 1440, Note_on_c, 0, 59, 63
3, 1680, Note_on_c, 0, 59, 0
3, 1680, Note_on_c, 0, 50, 0
3, 1680, Note_on_c, 0, 43, 0
3, 1860, Note_on_c, 0, 43, 51
3, 1890, Note_on_c, 0, 51, 54
3, 1920, Note_on_c, 0, 60, 58
3, 2160, Note_on_c, 0, 60, 0
3, 2160, Note_on_c, 0, 51, 0
3, 2160, Note_on_c, 0, 43, 0
3, 2400, Note_on_c, 0, 60, 52
3, 2520, Note_on_c, 0, 60, 0
3, 2520, Note_on_c, 0, 57, 51
3, 2640, Note_on_c, 0, 57, 0
3, 2640, Note_on_c, 0, 54, 50
3, 2760, Note_on_c, 0, 54, 0
3, 2760, Note_on_c, 0, 51, 50
3, 2880, Note_on_c, 0, 51, 0
3, 2880, Note_on_c, 0, 43, 48
3, 2880, Note_on_c, 0, 48, 52
3, 2880, Note_on_c, 0, 57, 60
3, 3120, Note_on_c, 0, 57, 0
3, 3120, Note_on_c, 0, 48, 0
3, 3120, Note_on_c, 0, 43, 0
3, 3360, Note_on_c, 0, 43, 51
3, 3360, Note_on_c, 0, 50, 55
3, 3360, Note_on_c, 0, 59, 60
3, 3600, Note_on_c, 0, 59, 0
3, 3600, Note_on_c, 0, 50, 0
3, 3600, Note_on_c, 0, 43, 0
3, 3840, Note_on_c, 0, 43, 46
3, 3840, Note_on_c, 0, 51, 51
3, 3840, Note_on_c, 0, 60, 57
3, 4080, Note_on_c, 0, 60, 0
3, 4080, Note_on_c, 0, 51, 0
3, 4080, Note_on_c, 0, 43, 0
3, 4320, Note_on_c, 0, 60, 52
3, 4440, Note_on_c, 0, 60, 0
3, 4440, Note_on_c, 0, 57, 51
3, 4560, Note_on_c, 0, 57, 0
3, 4560, Note_on_c, 0, 54, 50
3, 4680, Note_on_c, 0, 54, 0
3, 4680, Note_on_c, 0, 51, 50
3, 4740, Note_on_c, 0, 43, 40
3, 4800, Note_on_c, 0, 51, 0
3, 4800, Note_on_c, 0, 52, 58
3, 5220, Note_on_c, 0, 52, 0
3, 5220, Note_on_c, 0, 43, 0
3, 5220, Note_on_c, 0, 43, 43
3, 5280, Note_on_c, 0, 53, 63
3, 5700, Note_on_c, 0, 53, 0
3, 5700, Note_on_c, 0, 43, 0
3, 5700, Note_on_c, 0, 43, 39
3, 5760, Note_on_c, 0, 55, 48
3, 6240, Note_on_c, 0, 55, 0
3, 6240, Note_on_c, 0, 43, 0
3, 6240, Note_on_c, 0, 55, 52
3, 6336, Note_on_c, 0, 55, 0
3, 6336, Note_on_c, 0, 52, 51
3, 6432, Note_on_c, 0, 52, 0
3, 6432, Note_on_c, 0, 49, 50
3, 6528, Note_on_c, 0, 49, 0
3, 6528, Note_on_c, 0, 46, 50
3, 6624, Note_on_c, 0, 46, 0
3, 6624, Note_on_c, 0, 43, 50
3, 6720, Note_on_c, 0, 43, 0
3, 6720, Note_on_c, 0, 31, 56
3, 6720, Note_on_c, 0, 43, 70
3, 7200, Note_on_c, 0, 43, 0
3, 7200, Note_on_c, 0, 31, 0
3, 7200, Note_on_c, 0, 31, 60
3, 7200, Note_on_c, 0, 43, 70
3, 7680, Note_on_c, 0, 43, 0
3, 7680, Note_on_c, 0, 31, 0
3, 7680, Note_on_c, 0, 36, 54
3, 7680, Note_on_c, 0, 43, 67
3, 8040, Note_on_c, 0, 43, 0
3, 8160, Note_on_c, 0, 36, 0
3, 8160, Note_on_c, 0, 36, 78
3, 8580, Note_on_c, 0, 43, 57
3, 8610, Note_on_c, 0, 48, 60
3, 8640, Note_on_c, 0, 36, 0
3, 8640, Note_on_c, 0, 57, 64
3, 8880, Note_on_c, 0, 57, 0
3, 8880, Note_on_c, 0, 48, 0
3, 8880, Note_on_c, 0, 43, 0
3, 9060, Note_on_c, 0, 43, 55
3, 9090, Note_on_c, 0, 50, 58
3, 9120, Note_on_c, 0, 59, 60
3, 9360, Note_on_c, 0, 59, 0
3, 9360, Note_on_c, 0, 50, 0
3, 9360, Note_on_c, 0, 43, 0
3, 9540, Note_on_c, 0, 43, 55
3, 9570, Note_on_c, 0, 51, 59
3, 9600, Note_on_c, 0, 60, 63
3, 9840, Note_on_c, 0, 60, 0
3, 9840, Note_on_c, 0, 51, 0
3, 9840, Note_on_c, 0, 43, 0
3, 10080, Note_on_c, 0, 60, 52
3, 10200, Note_on_c, 0, 60, 0
3, 10200, Note_on_c, 0, 57, 51
3, 10320, Note_on_c, 0, 57, 0
3, 10320, Note_on_c, 0, 54, 50
3, 10440, Note_on_c, 0, 54, 0
3, 10440, Note_on_c, 0, 51, 50
3, 10560, Note_on_c, 0, 51, 0
3, 10560, Note_on_c, 0, 43, 48
3, 10560, Note_on_c, 0, 48, 52
3, 10560, Note_on_c, 0, 57, 60
3, 10800, Note_on_c, 0, 57, 0
3, 10800, Note_on_c, 0, 48, 0
3, 10800, Note_on_c, 0, 43, 0
3, 11040, Note_on_c, 0, 43, 51
3, 11040, Note_on_c, 0, 50, 55
3, 11040, Note_on_c, 0, 59, 60
3, 11280, Note_on_c, 0, 59, 0
3, 11280, Note_on_c, 0, 50, 0
3, 11280, Note_on_c, 0, 43, 0
3, 11520, Note_on_c, 0, 43, 46
3, 11520, Note_on_c, 0, 51, 51
3, 11520, Note_on_c, 0, 60, 57
3, 11760, Note_on_c, 0, 60, 0
3, 11760, Note_on_c, 0, 51, 0
3, 11760, Note_on_c, 0, 43, 0
3, 12000, Note_on_c, 0, 60, 52
3, 12120, Note_on_c, 0, 60, 0
3, 12120, Note_on_c, 0, 57, 51
3, 12240, Note_on_c, 0, 57, 0
3, 12240, Note_on_c, 0, 54, 50
3, 12360, Note_on_c, 0, 54, 0
3, 12360, Note_on_c, 0, 51, 50
3, 12420, Note_on_c, 0, 43, 40
3, 12480, Note_on_c, 0, 51, 0
3, 12480, Note_on_c, 0, 52, 50
3, 12900, Note_on_c, 0, 52, 0
3, 12900, Note_on_c, 0, 43, 0
3, 12900, Note_on_c, 0, 43, 43
3, 12960, Note_on_c, 0, 53, 50
3, 13380, Note_on_c, 0, 53, 0
3, 13380, Note_on_c, 0, 43, 0
3, 13380, Note_on_c, 0, 43, 39
3, 13440, Note_on_c, 0, 55, 48
3, 13920, Note_on_c, 0, 55, 0
3, 13920, Note_on_c, 0, 43, 0
3, 13920, Note_on_c, 0, 55, 52
3, 14016, Note_on_c, 0, 55, 0
3, 14016, Note_on_c, 0, 52, 51
3, 14112, Note_on_c, 0, 52, 0
3, 14112, Note_on_c, 0, 49, 50
3, 14208, Note_on_c, 0, 49, 0
3, 14208, Note_on_c, 0, 46, 50
3, 14304, Note_on_c, 0, 46, 0
3, 14304, Note_on_c, 0, 43, 50
3, 14400, Note_on_c, 0, 43, 0
3, 14400, Note_on_c, 0, 31, 56
3, 14400, Note_on_c, 0, 43, 70
3, 14880, Note_on_c, 0, 43, 0
3, 14880, Note_on_c, 0, 31, 0
3, 14880, Note_on_c, 0, 31, 60
3, 14880, Note_on_c, 0, 43, 70
3, 15360, Note_on_c, 0, 43, 0
3, 15360, Note_on_c, 0, 31, 0
3, 15360, Note_on_c, 0, 36, 54
3, 15360, Note_on_c, 0, 43, 67
3, 15720, Note_on_c, 0, 43, 0
3, 15840, Note_on_c, 0, 36, 0
3, 15840, Note_on_c, 0, 36, 80
3, 16320, Note_on_c, 0, 36, 0
3, 16320, Note_on_c, 0, 43, 52
3, 16800, Note_on_c, 0, 43, 0
3, 16800, Note_on_c, 0, 50, 42
3, 17280, Note_on_c, 0, 50, 0
3, 17280, Note_on_c, 0, 38, 51
3, 17760, Note_on_c, 0, 38, 0
3, 17760, Note_on_c, 0, 50, 43
3, 18240, Note_on_c, 0, 50, 0
3, 18240, Note_on_c, 0, 43, 52
3, 18720, Note_on_c, 0, 43, 0
3, 18720, Note_on_c, 0, 50, 42
3, 19200, Note_on_c, 0, 50, 0
3, 19200, Note_on_c, 0, 38, 51
3, 19680, Note_on_c, 0, 38, 0
3, 19680, Note_on_c, 0, 50, 43
3, 20160, Note_on_c, 0, 50, 0
3, 20160, Note_on_c, 0, 43, 69
3, 20640, Note_on_c, 0, 43, 0
3, 20640, Note_on_c, 0, 50, 42
3, 21120, Note_on_c, 0, 50, 0
3, 21120, Note_on_c, 0, 36, 72
3, 21600, Note_on_c, 0, 36, 0
3, 21600, Note_on_c, 0, 48, 42
3, 22080, Note_on_c, 0, 48, 0
3, 22080, Note_on_c, 0, 41, 75
3, 22560, Note_on_c, 0, 41, 0
3, 22560, Note_on_c, 0, 48, 42
3, 23040, Note_on_c, 0, 48, 0
3, 23040, Note_on_c, 0, 34, 80
3, 23520, Note_on_c, 0, 34, 0
3, 23520, Note_on_c, 0, 46, 42
3, 24000, Note_on_c, 0, 46, 0
3, 24000, Note_on_c, 0, 39, 72
3, 24480, Note_on_c, 0, 39, 0
3, 24480, Note_on_c, 0, 46, 42
3, 24960, Note_on_c, 0, 46, 0
3, 24960, Note_on_c, 0, 33, 71
3, 25440, Note_on_c, 0, 33, 0
3, 25440, Note_on_c, 0, 45, 42
3, 25920, Note_on_c, 0, 45, 0
3, 25920, Note_on_c, 0, 38, 67
3, 26400, Note_on_c, 0, 38, 0
3, 26400, Note_on_c, 0, 45, 42
3, 26880, Note_on_c, 0, 45, 0
3, 26880, Note_on_c, 0, 38, 68
3, 27360, Note_on_c, 0, 38, 0
3, 27360, Note_on_c, 0, 57, 42
3, 27840, Note_on_c, 0, 57, 0
3, 27840, Note_on_c, 0, 43, 52
3, 27840, Note_on_c, 0, 55, 52
3, 28320, Note_on_c, 0, 55, 0
3, 28320, Note_on_c, 0, 43, 0
3, 28320, Note_on_c, 0, 62, 42
3, 28800, Note_on_c, 0, 62, 0
3, 28800, Note_on_c, 0, 62, 51
3, 28800, Note_on_c, 0, 50, 51
3, 29280, Note_on_c, 0, 50, 0
3, 29280, Note_on_c, 0, 62, 0
3, 29280, Note_on_c, 0, 62, 43
3, 29760, Note_on_c, 0, 62, 0
3, 29760, Note_on_c, 0, 67, 52
3, 29760, Note_on_c, 0, 55, 52
3, 30240, Note_on_c, 0, 55, 0
3, 30240, Note_on_c, 0, 67, 0
3, 30240, Note_on_c, 0, 62, 42
3, 30720, Note_on_c, 0, 62, 0
3, 30720, Note_on_c, 0, 62, 51
3, 30720, Note_on_c, 0, 50, 51
3, 31200, Note_on_c, 0, 50, 0
3, 31200, Note_on_c, 0, 62, 0
3, 31200, Note_on_c, 0, 62, 43
3, 31680, Note_on_c, 0, 62, 0
3, 31680, Note_on_c, 0, 43, 62
3, 31680, Note_on_c, 0, 55, 62
3, 32160, Note_on_c, 0, 55, 0
3, 32160, Note_on_c, 0, 43, 0
3, 32160, Note_on_c, 0, 62, 42
3, 32640, Note_on_c, 0, 62, 0
3, 32640, Note_on_c, 0, 48, 62
3, 33120, Note_on_c, 0, 48, 0
3, 33120, Note_on_c, 0, 60, 42
3, 33600, Note_on_c, 0, 60, 0
3, 33600, Note_on_c, 0, 41, 62
3, 34080, Note_on_c, 0, 41, 0
3, 34080, Note_on_c, 0, 60, 42
3, 34560, Note_on_c, 0, 60, 0
3, 34560, Note_on_c, 0, 46, 62
3, 35040, Note_on_c, 0, 46, 0
3, 35040, Note_on_c, 0, 58, 42
3, 35520, Note_on_c, 0, 58, 0
3, 35520, Note_on_c, 0, 39, 62
3, 36000, Note_on_c, 0, 39, 0
3, 36000, Note_on_c, 0, 58, 42
3, 36480, Note_on_c, 0, 58, 0
3, 36480, Note_on_c, 0, 45, 65
3, 36960, Note_on_c, 0, 45, 0
3, 36960, Note_on_c, 0, 57, 42
3, 37440, Note_on_c, 0, 57, 0
3, 37440, Note_on_c, 0, 50, 67
3, 37920, Note_on_c, 0, 50, 0
3, 37920, Note_on_c, 0, 57, 42
3, 38400, Note_on_c, 0, 57, 0
3, 38400, Note_on_c, 0, 38, 68
3, 38400, Note_on_c, 0, 50, 68
3, 38880, Note_on_c, 0, 50, 0
3, 38880, Note_on_c, 0, 38, 0
3, 38880, Note_on_c, 0, 57, 42
3, 39360, Note_on_c, 0, 57, 0
3, 39360, Note_on_c, 0, 50, 44
3, 39360, Note_on_c, 0, 55, 48
3, 39360, Note_on_c, 0, 64, 55
3, 39600, Note_on_c, 0, 64, 0
3, 39600, Note_on_c, 0, 55, 0
3, 39600, Note_on_c, 0, 50, 0
3, 39840, Note_on_c, 0, 50, 47
3, 39840, Note_on_c, 0, 57, 50
3, 39840, Note_on_c, 0, 66, 55
3, 40080, Note_on_c, 0, 66, 0
3, 40080, Note_on_c, 0, 57, 0
3, 40080, Note_on_c, 0, 50, 0
3, 40320, Note_on_c, 0, 50, 42
3, 40320, Note_on_c, 0, 58, 47
3, 40320, Note_on_c, 0, 67, 52
3, 40560, Note_on_c, 0, 67, 0
3, 40560, Note_on_c, 0, 58, 0
3, 40560, Note_on_c, 0, 50, 0
3, 40800, Note_on_c, 0, 67, 61
3, 40920, Note_on_c, 0, 67, 0
3, 40920, Note_on_c, 0, 64, 66
3, 41040, Note_on_c, 0, 64, 0
3, 41040, Note_on_c, 0, 61, 55
3, 41160, Note_on_c, 0, 61, 0
3, 41160, Note_on_c, 0, 58, 55
3, 41280, Note_on_c, 0, 58, 0
3, 41280, Note_on_c, 0, 50, 44
3, 41280, Note_on_c, 0, 55, 48
3, 41280, Note_on_c, 0, 64, 55
3, 41520, Note_on_c, 0, 64, 0
3, 41520, Note_on_c, 0, 55, 0
3, 41520, Note_on_c, 0, 50, 0
3, 41760, Note_on_c, 0, 50, 47
3, 41760, Note_on_c, 0, 57, 50
3, 41760, Note_on_c, 0, 66, 55
3, 42000, Note_on_c, 0, 66, 0
3, 42000, Note_on_c, 0, 57, 0
3, 42000, Note_on_c, 0, 50, 0
3, 42240, Note_on_c, 0, 50, 42
3, 42240, Note_on_c, 0, 58, 47
3, 42240, Note_on_c, 0, 67, 52
3, 42480, Note_on_c, 0, 67, 0
3, 42480, Note_on_c, 0, 58, 0
3, 42480, Note_on_c, 0, 50, 0
3, 42720, Note_on_c, 0, 67, 61
3, 42840, Note_on_c, 0, 67, 0
3, 42840, Note_on_c, 0, 64, 66
3, 42960, Note_on_c, 0, 64, 0
3, 42960, Note_on_c, 0, 61, 55
3, 43080, Note_on_c, 0, 61, 0
3, 43080, Note_on_c, 0, 58, 55
3, 43140, Note_on_c, 0, 50, 44
3, 43200, Note_on_c, 0, 58, 0
3, 43200, Note_on_c, 0, 59, 62
3, 43620, Note_on_c, 0, 59, 0
3, 43620, Note_on_c, 0, 50, 0
3, 43620, Note_on_c, 0, 50, 47
3, 43680, Note_on_c, 0, 60, 58
3, 44100, Note_on_c, 0, 60, 0
3, 44100, Note_on_c, 0, 50, 0
3, 44100, Note_on_c, 0, 50, 42
3, 44160, Note_on_c, 0, 62, 52
3, 44640, Note_on_c, 0, 62, 0
3, 44640, Note_on_c, 0, 50, 0
3, 44640, Note_on_c, 0, 62, 57
3, 44736, Note_on_c, 0, 62, 0
3, 44736, Note_on_c, 0, 59, 56
3, 44832, Note_on_c, 0, 59, 0
3, 44832, Note_on_c, 0, 56, 55
3, 44928, Note_on_c, 0, 56, 0
3, 44928, Note_on_c, 0, 53, 55
3, 45024, Note_on_c, 0, 53, 0
3, 45024, Note_on_c, 0, 50, 55
3, 45120, Note_on_c, 0, 50, 0
3, 45120, Note_on_c, 0, 38, 44
3, 45120, Note_on_c, 0, 50, 55
3, 45600, Note_on_c, 0, 50, 0
3, 45600, Note_on_c, 0, 38, 0
3, 45600, Note_on_c, 0, 38, 47
3, 45600, Note_on_c, 0, 50, 55
3, 46080, Note_on_c, 0, 50, 0
3, 46080, Note_on_c, 0, 38, 0
3, 46080, Note_on_c, 0, 43, 42
3, 46080, Note_on_c, 0, 50, 52
3, 46440, Note_on_c, 0, 50, 0
3, 46560, Note_on_c, 0, 43, 0
3, 46560, Note_on_c, 0, 43, 82
3, 46800, Note_on_c, 0, 43, 0
3, 46800, Note_on_c, 0, 55, 60
3, 46920, Note_on_c, 0, 54, 46
3, 46944, Note_on_c, 0, 55, 0
3, 47040, Note_on_c, 0, 54, 0
3, 47040, Note_on_c, 0, 55, 68
3, 47160, Note_on_c, 0, 56, 50
3, 47184, Note_on_c, 0, 55, 0
3, 47280, Note_on_c, 0, 56, 0
3, 47280, Note_on_c, 0, 53, 58
3, 47400, Note_on_c, 0, 55, 49
3, 47424, Note_on_c, 0, 53, 0
3, 47520, Note_on_c, 0, 55, 0
3, 47520, Note_on_c, 0, 51, 60
3, 47640, Note_on_c, 0, 53, 50
3, 47664, Note_on_c, 0, 51, 0
3, 47760, Note_on_c, 0, 53, 0
3, 47760, Note_on_c, 0, 50, 56
3, 47880, Note_on_c, 0, 51, 48
3, 47904, Note_on_c, 0, 50, 0
3, 48000, Note_on_c, 0, 51, 0
3, 48000, Note_on_c, 0, 48, 60
3, 48120, Note_on_c, 0, 48, 0
3, 48120, Note_on_c, 0, 50, 51
3, 48240, Note_on_c, 0, 50, 0
3, 48240, Note_on_c, 0, 51, 51
3, 48360, Note_on_c, 0, 51, 0
3, 48360, Note_on_c, 0, 55, 57
3, 48480, Note_on_c, 0, 55, 0
3, 48480, Note_on_c, 0, 60, 56
3, 48600, Note_on_c, 0, 60, 0
3, 48600, Note_on_c, 0, 62, 60
3, 48720, Note_on_c, 0, 62, 0
3, 48720, Note_on_c, 0, 63, 65
3, 48840, Note_on_c, 0, 63, 0
3, 48840, Note_on_c, 0, 59, 56
3, 48960, Note_on_c, 0, 59, 0
3, 48960, Note_on_c, 0, 60, 67
3, 49080, Note_on_c, 0, 59, 51
3, 49104, Note_on_c, 0, 60, 0
3, 49200, Note_on_c, 0, 59, 0
3, 49200, Note_on_c, 0, 60, 59
3, 49320, Note_on_c, 0, 55, 51
3, 49344, Note_on_c, 0, 60, 0
3, 49440, Note_on_c, 0, 55, 0
3, 49440, Note_on_c, 0, 56, 60
3, 49560, Note_on_c, 0, 55, 48
3, 49584, Note_on_c, 0, 56, 0
3, 49680, Note_on_c, 0, 55, 0
3, 49680, Note_on_c, 0, 56, 54
3, 49800, Note_on_c, 0, 52, 47
3, 49824, Note_on_c, 0, 56, 0
3, 49920, Note_on_c, 0, 52, 0
3, 49920, Note_on_c, 0, 53, 58
3, 50040, Note_on_c, 0, 52, 50
3, 50064, Note_on_c, 0, 53, 0
3, 50160, Note_on_c, 0, 52, 0
3, 50160, Note_on_c, 0, 53, 54
3, 50280, Note_on_c, 0, 50, 48
3, 50304, Note_on_c, 0, 53, 0
3, 50400, Note_on_c, 0, 50, 0
3, 50400, Note_on_c, 0, 55, 57
3, 50520, Note_on_c, 0, 55, 0
3, 50520, Note_on_c, 0, 53, 56
3, 50640, Note_on_c, 0, 53, 0
3, 50640, Note_on_c, 0, 51, 55
3, 50760, Note_on_c, 0, 51, 0
3, 50760, Note_on_c, 0, 50, 54
3, 50880, Note_on_c, 0, 50, 0
3, 50880, Note_on_c, 0, 51, 55
3, 51120, Note_on_c, 0, 51, 0
3, 51120, Note_on_c, 0, 51, 53
3, 51240, Note_on_c, 0, 51, 0
3, 51360, Note_on_c, 0, 50, 59
3, 51480, Note_on_c, 0, 50, 0
3, 51600, Note_on_c, 0, 48, 53
3, 51720, Note_on_c, 0, 48, 0
3, 51840, Note_on_c, 0, 46, 59
3, 52560, Note_on_c, 0, 46, 0
3, 52560, Note_on_c, 0, 45, 53
3, 52800, Note_on_c, 0, 45, 0
3, 52800, Note_on_c, 0, 46, 61
3, 53040, Note_on_c, 0, 46, 0
3, 53040, Note_on_c, 0, 47, 55
3, 53160, Note_on_c, 0, 47, 0
3, 53280, Note_on_c, 0, 48, 61
3, 53400, Note_on_c, 0, 48, 0
3, 53520, Note_on_c, 0, 50, 55
3, 53640, Note_on_c, 0, 50, 0
3, 53760, Note_on_c, 0, 51, 65
3, 53880, Note_on_c, 0, 51, 0
3, 54000, Note_on_c, 0, 48, 55
3, 54120, Note_on_c, 0, 48, 0
3, 54240, Note_on_c, 0, 50, 55
3, 54360, Note_on_c, 0, 50, 0
3, 54480, Note_on_c, 0, 53, 58
3, 54600, Note_on_c, 0, 50, 52
3, 54624, Note_on_c, 0, 53, 0
3, 54720, Note_on_c, 0, 50, 0
3, 54720, Note_on_c, 0, 51, 64
3, 54960, Note_on_c, 0, 51, 0
3, 54960, Note_on_c, 0, 38, 55
3, 54960, Note_on_c, 0, 50, 55
3, 55080, Note_on_c, 0, 50, 0
3, 55080, Note_on_c, 0, 38, 0
3, 55200, Note_on_c, 0, 36, 61
3, 55200, Note_on_c, 0, 48, 61
3, 55320, Note_on_c, 0, 48, 0
3, 55320, Note_on_c, 0, 36, 0
3, 55440, Note_on_c, 0, 34, 55
3, 55440, Note_on_c, 0, 46, 55
3, 55560, Note_on_c, 0, 46, 0
3, 55560, Note_on_c, 0, 34, 0
3, 55680, Note_on_c, 0, 33, 66
3, 55680, Note_on_c, 0, 45, 66
3, 56400, Note_on_c, 0, 45, 0
3, 56400, Note_on_c, 0, 33, 0
3, 56400, Note_on_c, 0, 33, 56
3, 56400, Note_on_c, 0, 45, 56
3, 56640, Note_on_c, 0, 45, 0
3, 56640, Note_on_c, 0, 33, 0
3, 56640, Note_on_c, 0, 34, 61
3, 56640, Note_on_c, 0, 46, 61
3, 57120, Note_on_c, 0, 46, 0
3, 57120, Note_on_c, 0, 34, 0
3, 57120, Note_on_c, 0, 36, 60
3, 57120, Note_on_c, 0, 48, 60
3, 57600, Note_on_c, 0, 48, 0
3, 57600, Note_on_c, 0, 36, 0
3, 57600, Note_on_c, 0, 38, 63
3, 57600, Note_on_c, 0, 50, 63
3, 58080, Note_on_c, 0, 50, 0
3, 58080, Note_on_c, 0, 38, 0
3, 58080, Note_on_c, 0, 43, 54
3, 58080, Note_on_c, 0, 50, 64
3, 58320, Note_on_c, 0, 50, 0
3, 58320, Note_on_c, 0, 43, 0
3, 58320, Note_on_c, 0, 55, 60
3, 58440, Note_on_c, 0, 54, 46
3, 58464, Note_on_c, 0, 55, 0
3, 58560, Note_on_c, 0, 54, 0
3, 58560, Note_on_c, 0, 55, 68
3, 58680, Note_on_c, 0, 56, 50
3, 58704, Note_on_c, 0, 55, 0
3, 58800, Note_on_c, 0, 56, 0
3, 58800, Note_on_c, 0, 53, 58
3, 58920, Note_on_c, 0, 55, 49
3, 58944, Note_on_c, 0, 53, 0
3, 59040, Note_on_c, 0, 55, 0
3, 59040, Note_on_c, 0, 51, 60
3, 59160, Note_on_c, 0, 53, 50
3, 59184, Note_on_c, 0, 51, 0
3, 59280, Note_on_c, 0, 53, 0
3, 59280, Note_on_c, 0, 50, 56
3, 59400, Note_on_c, 0, 51, 48
3, 59424, Note_on_c, 0, 50, 0
3, 59520, Note_on_c, 0, 51, 0
3, 59520, Note_on_c, 0, 48, 60
3, 59640, Note_on_c, 0, 48, 0
3, 59640, Note_on_c, 0, 50, 51
3, 59760, Note_on_c, 0, 50, 0
3, 59760, Note_on_c, 0, 51, 51
3, 59880, Note_on_c, 0, 51, 0
3, 59880, Note_on_c, 0, 55, 57
3, 60000, Note_on_c, 0, 55, 0
3, 60000, Note_on_c, 0, 60, 56
3, 60120, Note_on_c, 0, 60, 0
3, 60120, Note_on_c, 0, 62, 60
3, 60240, Note_on_c, 0, 62, 0
3, 60240, Note_on_c, 0, 63, 65
3, 60360, Note_on_c, 0, 63, 0
3, 60360, Note_on_c, 0, 59, 56
3, 60480, Note_on_c, 0, 59, 0
3, 60480, Note_on_c, 0, 60, 67
3, 60600, Note_on_c, 0, 59, 51
3, 60624, Note_on_c, 0, 60, 0
3, 60720, Note_on_c, 0, 59, 0
3, 60720, Note_on_c, 0, 60, 59
3, 60840, Note_on_c, 0, 55, 51
3, 60864, Note_on_c, 0, 60, 0
3, 60960, Note_on_c, 0, 55, 0
3, 60960, Note_on_c, 0, 56, 60
3, 61080, Note_on_c, 0, 55, 48
3, 61104, Note_on_c, 0, 56, 0
3, 61200, Note_on_c, 0, 55, 0
3, 61200, Note_on_c, 0, 56, 54
3, 61320, Note_on_c, 0, 52, 47
3, 61344, Note_on_c, 0, 56, 0
3, 61440, Note_on_c, 0, 52, 0
3, 61440, Note_on_c, 0, 53, 58
3, 61560, Note_on_c, 0, 52, 50
3, 61584, Note_on_c, 0, 53, 0
3, 61680, Note_on_c, 0, 52, 0
3, 61680, Note_on_c, 0, 53, 54
3, 61800, Note_on_c, 0, 50, 48
3, 61824, Note_on_c, 0, 53, 0
3, 61920, Note_on_c, 0, 50, 0
3, 61920, Note_on_c, 0, 55, 57
3, 62040, Note_on_c, 0, 55, 0
3, 62040, Note_on_c, 0, 53, 56
3, 62160, Note_on_c, 0, 53, 0
3, 62160, Note_on_c, 0, 51, 55
3, 62280, Note_on_c, 0, 51, 0
3, 62280, Note_on_c, 0, 50, 54
3, 62400, Note_on_c, 0, 50, 0
3, 62400, Note_on_c, 0, 51, 55
3, 62640, Note_on_c, 0, 51, 0
3, 62640, Note_on_c, 0, 51, 53
3, 62760, Note_on_c, 0, 51, 0
3, 62880, Note_on_c, 0, 50, 59
3, 63000, Note_on_c, 0, 50, 0
3, 63120, Note_on_c, 0, 48, 53
3, 63240, Note_on_c, 0, 48, 0
3, 63360, Note_on_c, 0, 46, 59
3, 64080, Note_on_c, 0, 46, 0
3, 64080, Note_on_c, 0, 45, 53
3, 64320, Note_on_c, 0, 45, 0
3, 64320, Note_on_c, 0, 46, 61
3, 64560, Note_on_c, 0, 46, 0
3, 64560, Note_on_c, 0, 47, 55
3, 64680, Note_on_c, 0, 47, 0
3, 64800, Note_on_c, 0, 48, 61
3, 64920, Note_on_c, 0, 48, 0
3, 65040, Note_on_c, 0, 50, 55
3, 65160, Note_on_c, 0, 50, 0
3, 65280, Note_on_c, 0, 51, 65
3, 65400, Note_on_c, 0, 51, 0
3, 65520, Note_on_c, 0, 48, 55
3, 65640, Note_on_c, 0, 48, 0
3, 65760, Note_on_c, 0, 50, 55
3, 65880, Note_on_c, 0, 50, 0
3, 66000, Note_on_c, 0, 53, 58
3, 66120, Note_on_c, 0, 50, 52
3, 66144, Note_on_c, 0, 53, 0
3, 66240, Note_on_c, 0, 50, 0
3, 66240, Note_on_c, 0, 51, 64
3, 66480, Note_on_c, 0, 51, 0
3, 66480, Note_on_c, 0, 38, 55
3, 66480, Note_on_c, 0, 50, 55
3, 66600, Note_on_c, 0, 50, 0
3, 66600, Note_on_c, 0, 38, 0
3, 66720, Note_on_c, 0, 36, 61
3, 66720, Note_on_c, 0, 48, 61
3, 66840, Note_on_c, 0, 48, 0
3, 66840, Note_on_c, 0, 36, 0
3, 66960, Note_on_c, 0, 34, 55
3, 66960, Note_on_c, 0, 46, 55
3, 67080, Note_on_c, 0, 46, 0
3, 67080, Note_on_c, 0, 34, 0
3, 67200, Note_on_c, 0, 33, 66
3, 67200, Note_on_c, 0, 45, 66
3, 67920, Note_on_c, 0, 45, 0
3, 67920, Note_on_c, 0, 33, 0
3, 67920, Note_on_c, 0, 33, 56
3, 67920, Note_on_c, 0, 45, 56
3, 68160, Note_on_c, 0, 45, 0
3, 68160, Note_on_c, 0, 33, 0
3, 68160, Note_on_c, 0, 34, 61
3, 68160, Note_on_c, 0, 46, 61
3, 68640, Note_on_c, 0, 46, 0
3, 68640, Note_on_c, 0, 34, 0
3, 68640, Note_on_c, 0, 36, 60
3, 68640, Note_on_c, 0, 48, 60
3, 69120, Note_on_c, 0, 48, 0
3, 69120, Note_on_c, 0, 36, 0
3, 69120, Note_on_c, 0, 38, 63
3, 69120, Note_on_c, 0, 50, 63
3, 69600, Note_on_c, 0, 50, 0
3, 69600, Note_on_c, 0, 38, 0
3, 69600, Note_on_c, 0, 43, 54
3, 69600, Note_on_c, 0, 50, 64
3, 69840, Note_on_c, 0, 50, 0
3, 69840, Note_on_c, 0, 43, 0
3, 70080, Note_on_c, 0, 36, 66
3, 70320, Note_on_c, 0, 36, 0
3, 70320, Note_on_c, 0, 48, 63
3, 70800, Note_on_c, 0, 48, 0
3, 70800, Note_on_c, 0, 52, 65
3, 71040, Note_on_c, 0, 52, 0
3, 71040, Note_on_c, 0, 53, 70
3, 71280, Note_on_c, 0, 41, 63
3, 71760, Note_on_c, 0, 41, 0
3, 71760, Note_on_c, 0, 44, 63
3, 72000, Note_on_c, 0, 44, 0
3, 72000, Note_on_c, 0, 46, 71
3, 72240, Note_on_c, 0, 53, 0
3, 72240, Note_on_c, 0, 53, 63
3, 72480, Note_on_c, 0, 53, 0
3, 72480, Note_on_c, 0, 55, 68
3, 72720, Note_on_c, 0, 55, 0
3, 72720, Note_on_c, 0, 57, 69
3, 72960, Note_on_c, 0, 57, 0
3, 72960, Note_on_c, 0, 58, 70
3, 73200, Note_on_c, 0, 46, 0
3, 73200, Note_on_c, 0, 46, 63
3, 73680, Note_on_c, 0, 46, 0
3, 73680, Note_on_c, 0, 50, 63
3, 73920, Note_on_c, 0, 50, 0
3, 73920, Note_on_c, 0, 51, 71
3, 74160, Note_on_c, 0, 58, 0
3, 74160, Note_on_c, 0, 59, 63
3, 74400, Note_on_c, 0, 59, 0
3, 74400, Note_on_c, 0, 60, 68
3, 74640, Note_on_c, 0, 60, 0
3, 74640, Note_on_c, 0, 62, 69
3, 74880, Note_on_c, 0, 62, 0
3, 74880, Note_on_c, 0, 63, 70
3, 75120, Note_on_c, 0, 51, 0
3, 75120, Note_on_c, 0, 51, 63
3, 75600, Note_on_c, 0, 51, 0
3, 75600, Note_on_c, 0, 55, 63
3, 75840, Note_on_c, 0, 55, 0
3, 75840, Note_on_c, 0, 56, 75
3, 76080, Note_on_c, 0, 63, 0
3, 76080, Note_on_c, 0, 63, 72
3, 76080, Note_on_c, 0, 60, 61
3, 76320, Note_on_c, 0, 56, 0
3, 76320, Note_on_c, 0, 57, 73
3, 76560, Note_on_c, 0, 60, 0
3, 76560, Note_on_c, 0, 63, 0
3, 76560, Note_on_c, 0, 66, 66
3, 76560, Note_on_c, 0, 63, 55
3, 76560, Note_on_c, 0, 60, 46
3, 76800, Note_on_c, 0, 60, 0
3, 76800, Note_on_c, 0, 57, 0
3, 76800, Note_on_c, 0, 66, 0
3, 76800, Note_on_c, 0, 63, 0
3, 76800, Note_on_c, 0, 59, 45
3, 76800, Note_on_c, 0, 62, 47
3, 76800, Note_on_c, 0, 67, 63
3, 76800, Note_on_c, 0, 65, 54
3, 77040, Note_on_c, 0, 65, 0
3, 77040, Note_on_c, 0, 59, 0
3, 77040, Note_on_c, 0, 62, 0
3, 77040, Note_on_c, 0, 67, 0
3, 77040, Note_on_c, 0, 60, 48
3, 77040, Note_on_c, 0, 63, 48
3, 77040, Note_on_c, 0, 68, 57
3, 77280, Note_on_c, 0, 68, 0
3, 77280, Note_on_c, 0, 63, 0
3, 77280, Note_on_c, 0, 60, 0
3, 77280, Note_on_c, 0, 62, 45
3, 77280, Note_on_c, 0, 65, 50
3, 77280, Note_on_c, 0, 67, 50
3, 77280, Note_on_c, 0, 71, 60
3, 77520, Note_on_c, 0, 71, 0
3, 77520, Note_on_c, 0, 62, 0
3, 77520, Note_on_c, 0, 65, 0
3, 77520, Note_on_c, 0, 67, 0
3, 77520, Note_on_c, 0, 63, 51
3, 77520, Note_on_c, 0, 67, 51
3, 77520, Note_on_c, 0, 72, 61
3, 77760, Note_on_c, 0, 72, 0
3, 77760, Note_on_c, 0, 67, 0
3, 77760, Note_on_c, 0, 63, 0
3, 77760, Note_on_c, 0, 67, 61
3, 77760, Note_on_c, 0, 65, 61
3, 77760, Note_on_c, 0, 74, 72
3, 78000, Note_on_c, 0, 74, 0
3, 78000, Note_on_c, 0, 65, 0
3, 78000, Note_on_c, 0, 67, 0
3, 78000, Note_on_c, 0, 55, 58
3, 78000, Note_on_c, 0, 67, 71
3, 78480, Note_on_c, 0, 67, 0
3, 78480, Note_on_c, 0, 55, 0
3, 78480, Note_on_c, 0, 55, 56
3, 78480, Note_on_c, 0, 67, 69
3, 78720, Note_on_c, 0, 55, 0
3, 78720, Note_on_c, 0, 60, 54
3, 78960, Note_on_c, 0, 60, 0
3, 78960, Note_on_c, 0, 67, 0
3, 78960, Note_on_c, 0, 63, 68
3, 79200, Note_on_c, 0, 63, 0
3, 79200, Note_on_c, 0, 69, 69
3, 79440, Note_on_c, 0, 69, 0
3, 79440, Note_on_c, 0, 72, 71
3, 79680, Note_on_c, 0, 72, 0
3, 79680, Note_on_c, 0, 65, 60
3, 79680, Note_on_c, 0, 62, 50
3, 79680, Note_on_c, 0, 71, 74
3, 79920, Note_on_c, 0, 71, 0
3, 79920, Note_on_c, 0, 62, 0
3, 79920, Note_on_c, 0, 65, 0
3, 79920, Note_on_c, 0, 55, 62
3, 79920, Note_on_c, 0, 67, 73
3, 80400, Note_on_c, 0, 67, 0
3, 80400, Note_on_c, 0, 55, 0
3, 80400, Note_on_c, 0, 55, 56
3, 80400, Note_on_c, 0, 67, 69
3, 80640, Note_on_c, 0, 55, 0
3, 80640, Note_on_c, 0, 60, 54
3, 80880, Note_on_c, 0, 60, 0
3, 80880, Note_on_c, 0, 67, 0
3, 80880, Note_on_c, 0, 63, 68
3, 81120, Note_on_c, 0, 63, 0
3, 81120, Note_on_c, 0, 69, 72
3, 81360, Note_on_c, 0, 69, 0
3, 81360, Note_on_c, 0, 72, 71
3, 81600, Note_on_c, 0, 72, 0
3, 81600, Note_on_c, 0, 62, 42
3, 81600, Note_on_c, 0, 65, 53
3, 81600, Note_on_c, 0, 71, 70
3, 81840, Note_on_c, 0, 71, 0
3, 81840, Note_on_c, 0, 65, 0
3, 81840, Note_on_c, 0, 62, 0
3, 81840, Note_on_c, 0, 55, 69
3, 82080, Note_on_c, 0, 55, 0
3, 82080, Note_on_c, 0, 63, 42
3, 82080, Note_on_c, 0, 67, 53
3, 82080, Note_on_c, 0, 72, 70
3, 82320, Note_on_c, 0, 72, 0
3, 82320, Note_on_c, 0, 67, 0
3, 82320, Note_on_c, 0, 63, 0
3, 82320, Note_on_c, 0, 55, 69
3, 82560, Note_on_c, 0, 55, 0
3, 82560, Note_on_c, 0, 65, 57
3, 82560, Note_on_c, 0, 68, 72
3, 82800, Note_on_c, 0, 68, 0
3, 82800, Note_on_c, 0, 65, 0
3, 82800, Note_on_c, 0, 55, 67
3, 83040, Note_on_c, 0, 55, 0
3, 83040, Note_on_c, 0, 63, 54
3, 83040, Note_on_c, 0, 67, 71
3, 83280, Note_on_c, 0, 55, 70
3, 83520, Note_on_c, 0, 67, 0
3, 83520, Note_on_c, 0, 63, 0
3, 83520, Note_on_c, 0, 62, 56
3, 83520, Note_on_c, 0, 65, 73
3, 83760, Note_on_c, 0, 55, 0
3, 83760, Note_on_c, 0, 55, 71
3, 84000, Note_on_c, 0, 65, 0
3, 84000, Note_on_c, 0, 62, 0
3, 84000, Note_on_c, 0, 60, 54
3, 84000, Note_on_c, 0, 63, 74
3, 84240, Note_on_c, 0, 55, 0
3, 84240, Note_on_c, 0, 55, 74
3, 84480, Note_on_c, 0, 63, 0
3, 84480, Note_on_c, 0, 60, 0
3, 84480, Note_on_c, 0, 59, 52
3, 84480, Note_on_c, 0, 62, 66
3, 84720, Note_on_c, 0, 62, 0
3, 84720, Note_on_c, 0, 59, 0
3, 84720, Note_on_c, 0, 55, 0
3, 84720, Note_on_c, 0, 55, 87
3, 85200, Note_on_c, 0, 55, 0
3, 85200, Note_on_c, 0, 43, 64
3, 85200, Note_on_c, 0, 55, 80
3, 85440, Note_on_c, 0, 55, 0
3, 85440, Note_on_c, 0, 43, 0
3, 85440, Note_on_c, 0, 36, 76
3, 85440, Note_on_c, 0, 48, 90
3, 85920, Note_on_c, 0, 48, 0
3, 85920, Note_on_c, 0, 36, 0
3, 85920, Note_on_c, 0, 55, 73
3, 86400, Note_on_c, 0, 55, 0
3, 86400, Note_on_c, 0, 55, 89
3, 86400, Note_on_c, 0, 43, 75
3, 86880, Note_on_c, 0, 43, 0
3, 86880, Note_on_c, 0, 55, 0
3, 86880, Note_on_c, 0, 55, 75
3, 87360, Note_on_c, 0, 55, 0
3, 87360, Note_on_c, 0, 60, 88
3, 87360, Note_on_c, 0, 48, 74
3, 87710, Note_on_c, 0, 60, 0
3, 87840, Note_on_c, 0, 48, 0
3, 87840, Note_on_c, 0, 55, 75
3, 88320, Note_on_c, 0, 55, 0
3, 88320, Note_on_c, 0, 43, 75
3, 88327, Note_on_c, 0, 55, 89
3, 88800, Note_on_c, 0, 43, 0
3, 88800, Note_on_c, 0, 55, 76
3, 88807, Note_on_c, 0, 55, 0
3, 89280, Note_on_c, 0, 55, 0
3, 89280, Note_on_c, 0, 36, 67
3, 89280, Note_on_c, 0, 48, 79
3, 89760, Note_on_c, 0, 48, 0
3, 89760, Note_on_c, 0, 36, 0
3, 89760, Note_on_c, 0, 55, 57
3, 90240, Note_on_c, 0, 55, 0
3, 90240, Note_on_c, 0, 53, 82
3, 90240, Note_on_c, 0, 41, 69
3, 90720, Note_on_c, 0, 41, 0
3, 90720, Note_on_c, 0, 53, 0
3, 90720, Note_on_c, 0, 53, 62
3, 91200, Note_on_c, 0, 53, 0
3, 91200, Note_on_c, 0, 34, 73
3, 91200, Note_on_c, 0, 46, 86
3, 91680, Note_on_c, 0, 46, 0
3, 91680, Note_on_c, 0, 34, 0
3, 91680, Note_on_c, 0, 53, 61
3, 92160, Note_on_c, 0, 53, 0
3, 92160, Note_on_c, 0, 51, 91
3, 92160, Note_on_c, 0, 39, 77
3, 92640, Note_on_c, 0, 39, 0
3, 92640, Note_on_c, 0, 51, 0
3, 92640, Note_on_c, 0, 51, 60
3, 93120, Note_on_c, 0, 51, 0
3, 93120, Note_on_c, 0, 32, 66
3, 93120, Note_on_c, 0, 44, 79
3, 93600, Note_on_c, 0, 44, 0
3, 93600, Note_on_c, 0, 32, 0
3, 93600, Note_on_c, 0, 51, 57
3, 94080, Note_on_c, 0, 51, 0
3, 94080, Note_on_c, 0, 50, 76
3, 94080, Note_on_c, 0, 38, 64
3, 94560, Note_on_c, 0, 38, 0
3, 94560, Note_on_c, 0, 50, 0
3, 94560, Note_on_c, 0, 50, 56
3, 95040, Note_on_c, 0, 50, 0
3, 95040, Note_on_c, 0, 31, 61
3, 95040, Note_on_c, 0, 43, 72
3, 95520, Note_on_c, 0, 43, 0
3, 95520, Note_on_c, 0, 31, 0
3, 95520, Note_on_c, 0, 50, 56
3, 96000, Note_on_c, 0, 50, 0
3, 96000, Note_on_c, 0, 31, 60
3, 96000, Note_on_c, 0, 43, 71
3, 96480, Note_on_c, 0, 43, 0
3, 96480, Note_on_c, 0, 31, 0
3, 96480, Note_on_c, 0, 50, 57
3, 96900, Note_on_c, 0, 43, 50
3, 96930, Note_on_c, 0, 48, 56
3, 96960, Note_on_c, 0, 50, 0
3, 96960, Note_on_c, 0, 57, 63
3, 97200, Note_on_c, 0, 57, 0
3, 97200, Note_on_c, 0, 48, 0
3, 97200, Note_on_c, 0, 43, 0
3, 97380, Note_on_c, 0, 43, 57
3, 97410, Note_on_c, 0, 50, 61
3, 97440, Note_on_c, 0, 59, 66
3, 97680, Note_on_c, 0, 59, 0
3, 97680, Note_on_c, 0, 50, 0
3, 97680, Note_on_c, 0, 43, 0
3, 97860, Note_on_c, 0, 43, 53
3, 97890, Note_on_c, 0, 51, 56
3, 97920, Note_on_c, 0, 60, 60
3, 98160, Note_on_c, 0, 60, 0
3, 98160, Note_on_c, 0, 51, 0
3, 98160, Note_on_c, 0, 43, 0
3, 98400, Note_on_c, 0, 60, 54
3, 98520, Note_on_c, 0, 60, 0
3, 98520, Note_on_c, 0, 57, 53
3, 98640, Note_on_c, 0, 57, 0
3, 98640, Note_on_c, 0, 54, 52
3, 98760, Note_on_c, 0, 54, 0
3, 98760, Note_on_c, 0, 51, 52
3, 98880, Note_on_c, 0, 51, 0
3, 98880, Note_on_c, 0, 43, 50
3, 98880, Note_on_c, 0, 48, 54
3, 98880, Note_on_c, 0, 57, 63
3, 99120, Note_on_c, 0, 57, 0
3, 99120, Note_on_c, 0, 48, 0
3, 99120, Note_on_c, 0, 43, 0
3, 99360, Note_on_c, 0, 43, 53
3, 99360, Note_on_c, 0, 50, 57
3, 99360, Note_on_c, 0, 59, 63
3, 99600, Note_on_c, 0, 59, 0
3, 99600, Note_on_c, 0, 50, 0
3, 99600, Note_on_c, 0, 43, 0
3, 99840, Note_on_c, 0, 43, 48
3, 99840, Note_on_c, 0, 51, 53
3, 99840, Note_on_c, 0, 60, 59
3, 100080, Note_on_c, 0, 60, 0
3, 100080, Note_on_c, 0, 51, 0
3, 100080, Note_on_c, 0, 43, 0
3, 100320, Note_on_c, 0, 60, 54
3, 100440, Note_on_c, 0, 60, 0
3, 100440, Note_on_c, 0, 57, 53
3, 100560, Note_on_c, 0, 57, 0
3, 100560, Note_on_c, 0, 54, 52
3, 100680, Note_on_c, 0, 54, 0
3, 100680, Note_on_c, 0, 51, 52
3, 100740, Note_on_c, 0, 43, 42
3, 100800, Note_on_c, 0, 51, 0
3, 100800, Note_on_c, 0, 52, 60
3, 101220, Note_on_c, 0, 52, 0
3, 101220, Note_on_c, 0, 43, 0
3, 101220, Note_on_c, 0, 43, 45
3, 101280, Note_on_c, 0, 53, 66
3, 101700, Note_on_c, 0, 53, 0
3, 101700, Note_on_c, 0, 43, 0
3, 101700, Note_on_c, 0, 43, 40
3, 101760, Note_on_c, 0, 55, 50
3, 102240, Note_on_c, 0, 55, 0
3, 102240, Note_on_c, 0, 43, 0
3, 102240, Note_on_c, 0, 55, 54
3, 102336, Note_on_c, 0, 55, 0
3, 102336, Note_on_c, 0, 52, 53
3, 102432, Note_on_c, 0, 52, 0
3, 102432, Note_on_c, 0, 49, 52
3, 102528, Note_on_c, 0, 49, 0
3, 102528, Note_on_c, 0, 46, 52
3, 102624, Note_on_c, 0, 46, 0
3, 102624, Note_on_c, 0, 43, 52
3, 102720, Note_on_c, 0, 43, 0
3, 102720, Note_on_c, 0, 31, 58
3, 102720, Note_on_c, 0, 43, 73
3, 103200, Note_on_c, 0, 43, 0
3, 103200, Note_on_c, 0, 31, 0
3, 103200, Note_on_c, 0, 31, 63
3, 103200, Note_on_c, 0, 43, 73
3, 103680, Note_on_c, 0, 43, 0
3, 103680, Note_on_c, 0, 31, 0
3, 103680, Note_on_c, 0, 36, 56
3, 103680, Note_on_c, 0, 43, 70
3, 104040, Note_on_c, 0, 43, 0
3, 104160, Note_on_c, 0, 36, 0
3, 104160, Note_on_c, 0, 36, 81
3, 104400, Note_on_c, 0, 36, 0
3, 104400, Note_on_c, 0, 51, 32
3, 104400, Note_on_c, 0, 55, 26
3, 104616, Note_on_c, 0, 55, 0
3, 104616, Note_on_c, 0, 51, 0
3, 104640, Note_on_c, 0, 50, 38
3, 104640, Note_on_c, 0, 53, 32
3, 105096, Note_on_c, 0, 53, 0
3, 105096, Note_on_c, 0, 50, 0
3, 105120, Note_on_c, 0, 48, 35
3, 105120, Note_on_c, 0, 53, 29
3, 105576, Note_on_c, 0, 53, 0
3, 105576, Note_on_c, 0, 48, 0
3, 105600, Note_on_c, 0, 53, 34
3, 105600, Note_on_c, 0, 46, 40
3, 106056, Note_on_c, 0, 46, 0
3, 106056, Note_on_c, 0, 53, 0
3, 106320, Note_on_c, 0, 51, 33
3, 106320, Note_on_c, 0, 55, 27
3, 106560, Note_on_c, 0, 55, 0
3, 106560, Note_on_c, 0, 51, 0
3, 106560, Note_on_c, 0, 50, 38
3, 106560, Note_on_c, 0, 53, 32
3, 107016, Note_on_c, 0, 53, 0
3, 107016, Note_on_c, 0, 50, 0
3, 107040, Note_on_c, 0, 48, 35
3, 107040, Note_on_c, 0, 53, 29
3, 107496, Note_on_c, 0, 53, 0
3, 107496, Note_on_c, 0, 48, 0
3, 107520, Note_on_c, 0, 53, 34
3, 107520, Note_on_c, 0, 46, 40
3, 107976, Note_on_c, 0, 46, 0
3, 107976, Note_on_c, 0, 53, 0
3, 108240, Note_on_c, 0, 46, 33
3, 108240, Note_on_c, 0, 53, 39
3, 108480, Note_on_c, 0, 53, 0
3, 108480, Note_on_c, 0, 46, 0
3, 108480, Note_on_c, 0, 39, 36
3, 108480, Note_on_c, 0, 51, 43
3, 108960, Note_on_c, 0, 51, 0
3, 108960, Note_on_c, 0, 39, 0
3, 108960, Note_on_c, 0, 51, 38
3, 108960, Note_on_c, 0, 43, 32
3, 109440, Note_on_c, 0, 43, 0
3, 109440, Note_on_c, 0, 51, 0
3, 109440, Note_on_c, 0, 50, 46
3, 109440, Note_on_c, 0, 46, 39
3, 109920, Note_on_c, 0, 46, 0
3, 109920, Note_on_c, 0, 50, 0
3, 110160, Note_on_c, 0, 46, 34
3, 110160, Note_on_c, 0, 50, 41
3, 110400, Note_on_c, 0, 50, 0
3, 110400, Note_on_c, 0, 46, 0
3, 110400, Note_on_c, 0, 39, 39
3, 110400, Note_on_c, 0, 51, 46
3, 110880, Note_on_c, 0, 51, 0
3, 110880, Note_on_c, 0, 39, 0
3, 110880, Note_on_c, 0, 51, 40
3, 110880, Note_on_c, 0, 43, 34
3, 111360, Note_on_c, 0, 43, 0
3, 111360, Note_on_c, 0, 51, 0
3, 111360, Note_on_c, 0, 50, 48
3, 111360, Note_on_c, 0, 46, 40
3, 111840, Note_on_c, 0, 46, 0
3, 111840, Note_on_c, 0, 50, 0
3, 112080, Note_on_c, 0, 46, 24
3, 112080, Note_on_c, 0, 50, 29
3, 112320, Note_on_c, 0, 50, 0
3, 112320, Note_on_c, 0, 46, 0
3, 112320, Note_on_c, 0, 46, 29
3, 112320, Note_on_c, 0, 48, 35
3, 112800, Note_on_c, 0, 48, 0
3, 112800, Note_on_c, 0, 46, 0
3, 112800, Note_on_c, 0, 48, 31
3, 112800, Note_on_c, 0, 45, 26
3, 113280, Note_on_c, 0, 45, 0
3, 113280, Note_on_c, 0, 48, 0
3, 113280, Note_on_c, 0, 46, 35
3, 113280, Note_on_c, 0, 45, 29
3, 113760, Note_on_c, 0, 45, 0
3, 113760, Note_on_c, 0, 46, 0
3, 114000, Note_on_c, 0, 46, 27
3, 114240, Note_on_c, 0, 46, 0
3, 114240, Note_on_c, 0, 39, 29
3, 114240, Note_on_c, 0, 46, 35
3, 114720, Note_on_c, 0, 46, 0
3, 114720, Note_on_c, 0, 39, 0
3, 114720, Note_on_c, 0, 41, 25
3, 114720, Note_on_c, 0, 45, 30
3, 115200, Note_on_c, 0, 45, 0
3, 115200, Note_on_c, 0, 41, 0
3, 115200, Note_on_c, 0, 46, 36
3, 115200, Note_on_c, 0, 34, 30
3, 115920, Note_on_c, 0, 56, 34
3, 115920, Note_on_c, 0, 60, 28
3, 116160, Note_on_c, 0, 60, 0
3, 116160, Note_on_c, 0, 56, 0
3, 116160, Note_on_c, 0, 55, 38
3, 116160, Note_on_c, 0, 58, 32
3, 116616, Note_on_c, 0, 58, 0
3, 116616, Note_on_c, 0, 55, 0
3, 116640, Note_on_c, 0, 34, 0
3, 116640, Note_on_c, 0, 46, 0
3, 116640, Note_on_c, 0, 53, 35
3, 116640, Note_on_c, 0, 58, 29
3, 117096, Note_on_c, 0, 58, 0
3, 117096, Note_on_c, 0, 53, 0
3, 117120, Note_on_c, 0, 58, 32
3, 117120, Note_on_c, 0, 51, 38
3, 117576, Note_on_c, 0, 51, 0
3, 117576, Note_on_c, 0, 58, 0
3, 117840, Note_on_c, 0, 56, 32
3, 117840, Note_on_c, 0, 60, 27
3, 118080, Note_on_c, 0, 60, 0
3, 118080, Note_on_c, 0, 56, 0
3, 118080, Note_on_c, 0, 55, 38
3, 118080, Note_on_c, 0, 58, 32
3, 118536, Note_on_c, 0, 58, 0
3, 118536, Note_on_c, 0, 55, 0
3, 118560, Note_on_c, 0, 53, 33
3, 118560, Note_on_c, 0, 58, 28
3, 119016, Note_on_c, 0, 58, 0
3, 119016, Note_on_c, 0, 53, 0
3, 119040, Note_on_c, 0, 58, 33
3, 119040, Note_on_c, 0, 51, 39
3, 119496, Note_on_c, 0, 51, 0
3, 119496, Note_on_c, 0, 58, 0
3, 119760, Note_on_c, 0, 51, 34
3, 119760, Note_on_c, 0, 58, 34
3, 120000, Note_on_c, 0, 58, 0
3, 120000, Note_on_c, 0, 51, 0
3, 120000, Note_on_c, 0, 48, 36
3, 120000, Note_on_c, 0, 58, 43
3, 120480, Note_on_c, 0, 58, 0
3, 120480, Note_on_c, 0, 48, 0
3, 120480, Note_on_c, 0, 50, 35
3, 120480, Note_on_c, 0, 57, 42
3, 120960, Note_on_c, 0, 57, 0
3, 120960, Note_on_c, 0, 50, 0
3, 120960, Note_on_c, 0, 55, 45
3, 120960, Note_on_c, 0, 43, 38
3, 121440, Note_on_c, 0, 43, 0
3, 121440, Note_on_c, 0, 55, 0
3, 121680, Note_on_c, 0, 43, 24
3, 121680, Note_on_c, 0, 51, 29
3, 121920, Note_on_c, 0, 51, 0
3, 121920, Note_on_c, 0, 43, 0
3, 121920, Note_on_c, 0, 44, 29
3, 121920, Note_on_c, 0, 51, 35
3, 122400, Note_on_c, 0, 51, 0
3, 122400, Note_on_c, 0, 44, 0
3, 122400, Note_on_c, 0, 46, 27
3, 122400, Note_on_c, 0, 50, 32
3, 122880, Note_on_c, 0, 50, 0
3, 122880, Note_on_c, 0, 46, 0
3, 122880, Note_on_c, 0, 48, 34
3, 123360, Note_on_c, 0, 48, 0
3, 123600, Note_on_c, 0, 48, 29
3, 123840, Note_on_c, 0, 48, 0
3, 123840, Note_on_c, 0, 41, 35
3, 124320, Note_on_c, 0, 41, 0
3, 124320, Note_on_c, 0, 46, 32
3, 124800, Note_on_c, 0, 46, 0
3, 124800, Note_on_c, 0, 43, 34
3, 125280, Note_on_c, 0, 43, 0
3, 125520, Note_on_c, 0, 48, 29
3, 125760, Note_on_c, 0, 48, 0
3, 125760, Note_on_c, 0, 41, 35
3, 126240, Note_on_c, 0, 41, 0
3, 126240, Note_on_c, 0, 46, 32
3, 126720, Note_on_c, 0, 46, 0
3, 126720, Note_on_c, 0, 39, 34
3, 127200, Note_on_c, 0, 39, 0
3, 127440, Note_on_c, 0, 39, 29
3, 127680, Note_on_c, 0, 39, 0
3, 127680, Note_on_c, 0, 44, 35
3, 128640, Note_on_c, 0, 44, 0
3, 128640, Note_on_c, 0, 43, 34
3, 129120, Note_on_c, 0, 43, 0
3, 129360, Note_on_c, 0, 39, 26
3, 129360, Note_on_c, 0, 51, 26
3, 129360, Note_on_c, 0, 63, 26
3, 129600, Note_on_c, 0, 39, 0
3, 129600, Note_on_c, 0, 48, 34
3, 129600, Note_on_c, 0, 56, 31
3, 130080, Note_on_c, 0, 48, 0
3, 130080, Note_on_c, 0, 47, 32
3, 130560, Note_on_c, 0, 47, 0
3, 130560, Note_on_c, 0, 56, 0
3, 130560, Note_on_c, 0, 46, 30
3, 130560, Note_on_c, 0, 55, 23
3, 131040, Note_on_c, 0, 55, 0
3, 131040, Note_on_c, 0, 51, 0
3, 131040, Note_on_c, 0, 63, 0
3, 131040, Note_on_c, 0, 46, 0
3, 131040, End_track
4, 0, Start_track
4, 0, Title_t, "Pedale"
4, 0, Program_c, 0, 0
4, 1013, Control_c, 0, 64, 127
4, 1228, Control_c, 0, 64, 0
4, 1500, Control_c, 0, 64, 127
4, 1705, Control_c, 0, 64, 0
4, 1983, Control_c, 0, 64, 127
4, 2804, Control_c, 0, 64, 0
4, 2977, Control_c, 0, 64, 127
4, 3160, Control_c, 0, 64, 0
4, 3452, Control_c, 0, 64, 127
4, 3646, Control_c, 0, 64, 0
4, 3886, Control_c, 0, 64, 127
4, 4726, Control_c, 0, 64, 0
4, 4857, Control_c, 0, 64, 127
4, 5086, Control_c, 0, 64, 0
4, 5337, Control_c, 0, 64, 127
4, 5545, Control_c, 0, 64, 0
4, 5817, Control_c, 0, 64, 127
4, 6595, Control_c, 0, 64, 0
4, 6789, Control_c, 0, 64, 127
4, 7212, Control_c, 0, 64, 0
4, 7297, Control_c, 0, 64, 127
4, 7680, Control_c, 0, 64, 0
4, 7740, Control_c, 0, 64, 127
4, 8160, Control_c, 0, 64, 0
4, 8203, Control_c, 0, 64, 127
4, 8496, Control_c, 0, 64, 0
4, 8693, Control_c, 0, 64, 127
4, 8908, Control_c, 0, 64, 0
4, 9180, Control_c, 0, 64, 127
4, 9385, Control_c, 0, 64, 0
4, 9663, Control_c, 0, 64, 127
4, 10484, Control_c, 0, 64, 0
4, 10657, Control_c, 0, 64, 127
4, 10840, Control_c, 0, 64, 0
4, 11132, Control_c, 0, 64, 127
4, 11326, Control_c, 0, 64, 0
4, 11566, Control_c, 0, 64, 127
4, 12406, Control_c, 0, 64, 0
4, 12537, Control_c, 0, 64, 127
4, 12766, Control_c, 0, 64, 0
4, 13017, Control_c, 0, 64, 127
4, 13225, Control_c, 0, 64, 0
4, 13497, Control_c, 0, 64, 127
4, 14275, Control_c, 0, 64, 0
4, 14469, Control_c, 0, 64, 127
4, 14892, Control_c, 0, 64, 0
4, 14977, Control_c, 0, 64, 127
4, 15360, Control_c, 0, 64, 0
4, 15420, Control_c, 0, 64, 127
4, 15840, Control_c, 0, 64, 0
4, 15883, Control_c, 0, 64, 127
4, 16094, Control_c, 0, 64, 0
4, 16158, Control_c, 0, 64, 127
4, 16320, Control_c, 0, 64, 0
4, 16400, Control_c, 0, 64, 127
4, 17058, Control_c, 0, 64, 0
4, 17115, Control_c, 0, 64, 127
4, 17286, Control_c, 0, 64, 0
4, 17383, Control_c, 0, 64, 127
4, 18012, Control_c, 0, 64, 0
4, 18069, Control_c, 0, 64, 127
4, 18246, Control_c, 0, 64, 0
4, 18337, Control_c, 0, 64, 127
4, 18973, Control_c, 0, 64, 0
4, 19063, Control_c, 0, 64, 127
4, 19206, Control_c, 0, 64, 0
4, 19309, Control_c, 0, 64, 127
4, 19932, Control_c, 0, 64, 0
4, 20012, Control_c, 0, 64, 127
4, 20160, Control_c, 0, 64, 0
4, 20240, Control_c, 0, 64, 127
4, 21126, Control_c, 0, 64, 0
4, 21223, Control_c, 0, 64, 127
4, 22086, Control_c, 0, 64, 0
4, 22183, Control_c, 0, 64, 127
4, 23046, Control_c, 0, 64, 0
4, 23143, Control_c, 0, 64, 127
4, 24006, Control_c, 0, 64, 0
4, 24103, Control_c, 0, 64, 127
4, 24966, Control_c, 0, 64, 0
4, 25063, Control_c, 0, 64, 127
4, 25926, Control_c, 0, 64, 0
4, 26023, Control_c, 0, 64, 127
4, 26886, Control_c, 0, 64, 0
4, 26983, Control_c, 0, 64, 127
4, 27614, Control_c, 0, 64, 0
4, 27678, Control_c, 0, 64, 127
4, 27840, Control_c, 0, 64, 0
4, 27920, Control_c, 0, 64, 127
4, 28578, Control_c, 0, 64, 0
4, 28635, Control_c, 0, 64, 127
4, 28806, Control_c, 0, 64, 0
4, 28903, Control_c, 0, 64, 127
4, 29532, Control_c, 0, 64, 0
4, 29589, Control_c, 0, 64, 127
4, 29766, Control_c, 0, 64, 0
4, 29813, Control_c, 0, 64, 127
4, 30493, Control_c, 0, 64, 0
4, 30583, Control_c, 0, 64, 127
4, 30726, Control_c, 0, 64, 0
4, 30829, Control_c, 0, 64, 127
4, 31452, Control_c, 0, 64, 0
4, 31532, Control_c, 0, 64, 127
4, 31680, Control_c, 0, 64, 0
4, 31760, Control_c, 0, 64, 127
4, 32646, Control_c, 0, 64, 0
4, 32743, Control_c, 0, 64, 127
4, 33606, Control_c, 0, 64, 0
4, 33703, Control_c, 0, 64, 127
4, 34566, Control_c, 0, 64, 0
4, 34663, Control_c, 0, 64, 127
4, 35526, Control_c, 0, 64, 0
4, 35623, Control_c, 0, 64, 127
4, 36486, Control_c, 0, 64, 0
4, 36583, Control_c, 0, 64, 127
4, 37446, Control_c, 0, 64, 0
4, 37543, Control_c, 0, 64, 127
4, 38406, Control_c, 0, 64, 0
4, 38503, Control_c, 0, 64, 127
4, 39413, Control_c, 0, 64, 127
4, 39628, Control_c, 0, 64, 0
4, 39900, Control_c, 0, 64, 127
4, 40105, Control_c, 0, 64, 0
4, 40383, Control_c, 0, 64, 127
4, 41204, Control_c, 0, 64, 0
4, 41377, Control_c, 0, 64, 127
4, 41560, Control_c, 0, 64, 0
4, 41852, Control_c, 0, 64, 127
4, 42046, Control_c, 0, 64, 0
4, 42286, Control_c, 0, 64, 127
4, 43126, Control_c, 0, 64, 0
4, 43257, Control_c, 0, 64, 127
4, 43486, Control_c, 0, 64, 0
4, 43737, Control_c, 0, 64, 127
4, 43945, Control_c, 0, 64, 0
4, 44217, Control_c, 0, 64, 127
4, 44960, Control_c, 0, 64, 0
4, 45189, Control_c, 0, 64, 127
4, 45612, Control_c, 0, 64, 0
4, 45697, Control_c, 0, 64, 127
4, 46080, Control_c, 0, 64, 0
4, 46140, Control_c, 0, 64, 127
4, 46560, Control_c, 0, 64, 0
4, 46603, Control_c, 0, 64, 127
4, 46825, Control_c, 0, 64, 0
4, 48086, Control_c, 0, 64, 127
4, 48490, Control_c, 0, 64, 0
4, 48566, Control_c, 0, 64, 127
4, 48960, Control_c, 0, 64, 0
4, 50486, Control_c, 0, 64, 127
4, 50880, Control_c, 0, 64, 0
4, 51846, Control_c, 0, 64, 127
4, 52334, Control_c, 0, 64, 0
4, 52400, Control_c, 0, 64, 127
4, 52800, Control_c, 0, 64, 0
4, 55720, Control_c, 0, 64, 127
4, 56170, Control_c, 0, 64, 0
4, 56292, Control_c, 0, 64, 127
4, 56640, Control_c, 0, 64, 0
4, 56726, Control_c, 0, 64, 127
4, 57130, Control_c, 0, 64, 0
4, 57189, Control_c, 0, 64, 127
4, 57600, Control_c, 0, 64, 0
4, 57686, Control_c, 0, 64, 127
4, 58092, Control_c, 0, 64, 0
4, 58345, Control_c, 0, 64, 0
4, 59606, Control_c, 0, 64, 127
4, 60010, Control_c, 0, 64, 0
4, 60086, Control_c, 0, 64, 127
4, 60480, Control_c, 0, 64, 0
4, 62006, Control_c, 0, 64, 127
4, 62400, Control_c, 0, 64, 0
4, 63366, Control_c, 0, 64, 127
4, 63854, Control_c, 0, 64, 0
4, 63920, Control_c, 0, 64, 127
4, 64320, Control_c, 0, 64, 0
4, 67240, Control_c, 0, 64, 127
4, 67690, Control_c, 0, 64, 0
4, 67812, Control_c, 0, 64, 127
4, 68160, Control_c, 0, 64, 0
4, 68246, Control_c, 0, 64, 127
4, 68650, Control_c, 0, 64, 0
4, 68709, Control_c, 0, 64, 127
4, 69120, Control_c, 0, 64, 0
4, 69206, Control_c, 0, 64, 127
4, 69612, Control_c, 0, 64, 0
4, 70080, Control_c, 0, 64, 127
4, 70332, Control_c, 0, 64, 0
4, 70400, Control_c, 0, 64, 127
4, 71040, Control_c, 0, 64, 0
4, 71153, Control_c, 0, 64, 127
4, 71294, Control_c, 0, 64, 0
4, 71393, Control_c, 0, 64, 127
4, 72000, Control_c, 0, 64, 0
4, 72092, Control_c, 0, 64, 127
4, 72515, Control_c, 0, 64, 0
4, 72572, Control_c, 0, 64, 127
4, 72960, Control_c, 0, 64, 0
4, 73057, Control_c, 0, 64, 127
4, 73223, Control_c, 0, 64, 0
4, 73297, Control_c, 0, 64, 127
4, 73920, Control_c, 0, 64, 0
4, 74026, Control_c, 0, 64, 127
4, 74464, Control_c, 0, 64, 0
4, 74527, Control_c, 0, 64, 127
4, 74880, Control_c, 0, 64, 0
4, 74972, Control_c, 0, 64, 127
4, 75132, Control_c, 0, 64, 0
4, 75189, Control_c, 0, 64, 127
4, 75840, Control_c, 0, 64, 0
4, 75915, Control_c, 0, 64, 127
4, 76309, Control_c, 0, 64, 0
4, 76366, Control_c, 0, 64, 127
4, 76805, Control_c, 0, 64, 0
4, 76885, Control_c, 0, 64, 127
4, 77054, Control_c, 0, 64, 0
4, 77118, Control_c, 0, 64, 127
4, 77291, Control_c, 0, 64, 0
4, 77365, Control_c, 0, 64, 127
4, 77534, Control_c, 0, 64, 0
4, 77605, Control_c, 0, 64, 127
4, 77760, Control_c, 0, 64, 0
4, 77859, Control_c, 0, 64, 127
4, 78012, Control_c, 0, 64, 0
4, 78134, Control_c, 0, 64, 127
4, 78497, Control_c, 0, 64, 0
4, 78614, Control_c, 0, 64, 127
4, 78728, Control_c, 0, 64, 0
4, 78800, Control_c, 0, 64, 127
4, 79211, Control_c, 0, 64, 0
4, 79257, Control_c, 0, 64, 127
4, 79680, Control_c, 0, 64, 0
4, 79779, Control_c, 0, 64, 127
4, 79932, Control_c, 0, 64, 0
4, 80054, Control_c, 0, 64, 127
4, 80417, Control_c, 0, 64, 0
4, 80534, Control_c, 0, 64, 127
4, 80648, Control_c, 0, 64, 0
4, 80720, Control_c, 0, 64, 127
4, 81131, Control_c, 0, 64, 0
4, 81177, Control_c, 0, 64, 127
4, 81566, Control_c, 0, 64, 0
4, 81600, Control_c, 0, 64, 127
4, 82091, Control_c, 0, 64, 0
4, 82186, Control_c, 0, 64, 127
4, 82571, Control_c, 0, 64, 0
4, 82687, Control_c, 0, 64, 127
4, 83053, Control_c, 0, 64, 0
4, 83174, Control_c, 0, 64, 127
4, 83520, Control_c, 0, 64, 0
4, 83626, Control_c, 0, 64, 127
4, 84012, Control_c, 0, 64, 0
4, 84113, Control_c, 0, 64, 127
4, 84486, Control_c, 0, 64, 0
4, 84607, Control_c, 0, 64, 127
4, 84966, Control_c, 0, 64, 0
4, 85080, Control_c, 0, 64, 127
4, 85440, Control_c, 0, 64, 0
4, 85440, Control_c, 0, 64, 0
4, 85520, Control_c, 0, 64, 127
4, 86178, Control_c, 0, 64, 0
4, 86235, Control_c, 0, 64, 127
4, 86406, Control_c, 0, 64, 0
4, 86503, Control_c, 0, 64, 127
4, 87132, Control_c, 0, 64, 0
4, 87189, Control_c, 0, 64, 127
4, 87366, Control_c, 0, 64, 0
4, 87457, Control_c, 0, 64, 127
4, 88093, Control_c, 0, 64, 0
4, 88183, Control_c, 0, 64, 127
4, 88326, Control_c, 0, 64, 0
4, 88429, Control_c, 0, 64, 127
4, 89052, Control_c, 0, 64, 0
4, 89132, Control_c, 0, 64, 127
4, 89280, Control_c, 0, 64, 0
4, 89360, Control_c, 0, 64, 127
4, 90246, Control_c, 0, 64, 0
4, 90343, Control_c, 0, 64, 127
4, 91206, Control_c, 0, 64, 0
4, 91303, Control_c, 0, 64, 127
4, 92166, Control_c, 0, 64, 0
4, 92263, Control_c, 0, 64, 127
4, 93126, Control_c, 0, 64, 0
4, 93223, Control_c, 0, 64, 127
4, 94086, Control_c, 0, 64, 0
4, 94183, Control_c, 0, 64, 127
4, 95046, Control_c, 0, 64, 0
4, 95143, Control_c, 0, 64, 127
4, 96006, Control_c, 0, 64, 0
4, 96103, Control_c, 0, 64, 127
4, 97013, Control_c, 0, 64, 127
4, 97228, Control_c, 0, 64, 0
4, 97500, Control_c, 0, 64, 127
4, 97705, Control_c, 0, 64, 0
4, 97983, Control_c, 0, 64, 127
4, 98804, Control_c, 0, 64, 0
4, 98977, Control_c, 0, 64, 127
4, 99160, Control_c, 0, 64, 0
4, 99452, Control_c, 0, 64, 127
4, 99646, Control_c, 0, 64, 0
4, 99886, Control_c, 0, 64, 127
4, 100726, Control_c, 0, 64, 0
4, 100857, Control_c, 0, 64, 127
4, 101086, Control_c, 0, 64, 0
4, 101337, Control_c, 0, 64, 127
4, 101545, Control_c, 0, 64, 0
4, 101817, Control_c, 0, 64, 127
4, 102566, Control_c, 0, 64, 0
4, 102789, Control_c, 0, 64, 127
4, 103212, Control_c, 0, 64, 0
4, 103297, Control_c, 0, 64, 127
4, 103680, Control_c, 0, 64, 0
4, 103740, Control_c, 0, 64, 127
4, 104160, Control_c, 0, 64, 0
4, 104203, Control_c, 0, 64, 127
4, 104354, Control_c, 0, 64, 0
4, 104755, Control_c, 0, 64, 127
4, 105134, Control_c, 0, 64, 0
4, 105303, Control_c, 0, 64, 127
4, 105607, Control_c, 0, 64, 0
4, 105770, Control_c, 0, 64, 127
4, 106024, Control_c, 0, 64, 0
4, 106675, Control_c, 0, 64, 127
4, 107047, Control_c, 0, 64, 0
4, 107337, Control_c, 0, 64, 127
4, 107532, Control_c, 0, 64, 0
4, 107633, Control_c, 0, 64, 127
4, 107901, Control_c, 0, 64, 0
4, 108587, Control_c, 0, 64, 127
4, 108970, Control_c, 0, 64, 0
4, 109200, Control_c, 0, 64, 127
4, 109449, Control_c, 0, 64, 0
4, 109610, Control_c, 0, 64, 127
4, 109948, Control_c, 0, 64, 0
4, 110507, Control_c, 0, 64, 127
4, 110892, Control_c, 0, 64, 0
4, 111120, Control_c, 0, 64, 127
4, 111417, Control_c, 0, 64, 0
4, 111530, Control_c, 0, 64, 127
4, 111756, Control_c, 0, 64, 0
4, 112434, Control_c, 0, 64, 127
4, 112817, Control_c, 0, 64, 0
4, 113029, Control_c, 0, 64, 127
4, 113295, Control_c, 0, 64, 0
4, 113449, Control_c, 0, 64, 127
4, 113669, Control_c, 0, 64, 0
4, 114400, Control_c, 0, 64, 127
4, 114731, Control_c, 0, 64, 0
4, 114972, Control_c, 0, 64, 127
4, 115210, Control_c, 0, 64, 0
4, 115384, Control_c, 0, 64, 127
4, 115793, Control_c, 0, 64, 0
4, 116294, Control_c, 0, 64, 127
4, 116652, Control_c, 0, 64, 0
4, 116907, Control_c, 0, 64, 127
4, 117133, Control_c, 0, 64, 0
4, 117276, Control_c, 0, 64, 127
4, 117572, Control_c, 0, 64, 0
4, 118347, Control_c, 0, 64, 127
4, 118572, Control_c, 0, 64, 0
4, 118800, Control_c, 0, 64, 127
4, 119052, Control_c, 0, 64, 0
4, 119210, Control_c, 0, 64, 127
4, 119492, Control_c, 0, 64, 0
4, 120092, Control_c, 0, 64, 127
4, 120495, Control_c, 0, 64, 0
4, 120686, Control_c, 0, 64, 127
4, 120970, Control_c, 0, 64, 0
4, 121097, Control_c, 0, 64, 127
4, 121360, Control_c, 0, 64, 0
4, 122107, Control_c, 0, 64, 127
4, 122410, Control_c, 0, 64, 0
4, 122667, Control_c, 0, 64, 127
4, 122891, Control_c, 0, 64, 0
4, 122995, Control_c, 0, 64, 127
4, 123315, Control_c, 0, 64, 0
4, 123960, Control_c, 0, 64, 127
4, 124332, Control_c, 0, 64, 0
4, 124435, Control_c, 0, 64, 127
4, 124807, Control_c, 0, 64, 0
4, 124995, Control_c, 0, 64, 127
4, 125303, Control_c, 0, 64, 0
4, 125840, Control_c, 0, 64, 127
4, 126252, Control_c, 0, 64, 0
4, 126480, Control_c, 0, 64, 127
4, 126733, Control_c, 0, 64, 0
4, 126918, Control_c, 0, 64, 127
4, 127172, Control_c, 0, 64, 0
4, 127817, Control_c, 0, 64, 127
4, 128654, Control_c, 0, 64, 0
4, 128824, Control_c, 0, 64, 127
4, 129106, Control_c, 0, 64, 0
4, 129600, Control_c, 0, 64, 127
4, 130571, Control_c, 0, 64, 0
4, 130774, Control_c, 0, 64, 127
4, 132187, Control_c, 0, 64, 0
4, 132187, End_track
5, 0, Start_track
5, 0, Title_t, "Schumann: Kreisleriana No. 7"
5, 0, End_track
6, 0, Start_track
6, 0, Title_t, "Copyright © 2007 by Bernd Krueger"
6, 0, End_track
7, 0, Start_track
7, 0, Title_t, "http://www.piano-midi.de/"
7, 0, End_track
8, 0, Start_track
8, 0, Title_t, "Edition: 2014-03-27"
8, 0, End_track
9, 0, Start_track
9, 0, Title_t, "Spur 8"
9, 0, End_track
10, 0, Start_track
10, 0, Title_t, "Spur 9"
10, 0, End_track
11, 0, Start_track
11, 0, Title_t, "Spur 10"
11, 0, End_track
12, 0, Start_track
12, 0, Title_t, "Spur 11"
12, 0, End_track
13, 0, Start_track
13, 0, Title_t, "Spur 12"
13, 0, End_track
14, 0, Start_track
14, 0, Title_t, "Spur 13"
14, 0, End_track
15, 0, Start_track
15, 0, Title_t, "Spur 14"
15, 0, End_track
16, 0, Start_track
16, 0, Title_t, "Spur 15"
16, 0, End_track
17, 0, Start_track
17, 0, Title_t, "Spur 16"
17, 0, End_track
0, 0, End_of_file
