0, 0, Header, 1, 7, 480
1, 0, Start_track
1, 0, Title_t, "Die Jahreszeiten"
1, 0, Title_t, "Februar"
1, 0, Copyright_t, "Copyright © 2004 by Bernd Krueger"
1, 0, Text_t, "Peter Tschaikowsky"
1, 0, Text_t, "Allegro giusto"
1, 0, Text_t, "Fertiggestellt am 30.7.2000\012"
1, 0, Text_t, "Update am 6.8.2000\012"
1, 0, Text_t, "Normierung: 23.12.2002\012"
1, 0, Text_t, "Update am 8.8.2004\012"
1, 0, Text_t, "Update am 7.9.2008\012"
1, 0, Text_t, "Dauer: 2:45 Minuten\012"
1, 0, SMPTE_offset, 96, 0, 3, 0, 0
1, 0, Time_signature, 2, 2, 24, 8
1, 0, Key_signature, 2, "major"
1, 0, Tempo, 458015
1, 0, Marker_t, "Allegro giusto"
1, 960, Tempo, 442804
1, 1920, Tempo, 422535
1, 2280, Tempo, 424028
1, 2360, Tempo, 422535
1, 2400, Tempo, 427046
1, 2880, Tempo, 430108
1, 2920, Tempo, 428571
1, 3080, Tempo, 427046
1, 3240, Tempo, 425532
1, 3600, Tempo, 468750
1, 3840, Tempo, 454545
1, 4800, Tempo, 436364
1, 5760, Tempo, 428571
1, 6720, Tempo, 428571
1, 6840, Tempo, 427046
1, 6960, Tempo, 425532
1, 7080, Tempo, 424028
1, 7200, Tempo, 446097
1, 7680, Tempo, 415225
1, 7920, Tempo, 442804
1, 8160, Tempo, 434783
1, 8640, Tempo, 418118
1, 8880, Tempo, 442804
1, 9120, Tempo, 434783
1, 9600, Tempo, 436364
1, 9840, Tempo, 442804
1, 10080, Tempo, 433213
1, 10320, Tempo, 439560
1, 10560, Tempo, 433213
1, 10800, Tempo, 437956
1, 11040, Tempo, 434783
1, 11520, Tempo, 418118
1, 11760, Tempo, 442804
1, 12000, Tempo, 434783
1, 12480, Tempo, 418118
1, 12720, Tempo, 442804
1, 12960, Tempo, 434783
1, 13440, Tempo, 434783
1, 13680, Tempo, 442804
1, 13920, Tempo, 430108
1, 14160, Tempo, 434783
1, 14400, Tempo, 428571
1, 14640, Tempo, 437956
1, 14880, Tempo, 434783
1, 15360, Tempo, 428571
1, 15600, Tempo, 442804
1, 15840, Tempo, 425532
1, 16080, Tempo, 434783
1, 16320, Tempo, 428571
1, 16560, Tempo, 437956
1, 16800, Tempo, 434783
1, 17280, Tempo, 425532
1, 17520, Tempo, 437956
1, 17760, Tempo, 422535
1, 18000, Tempo, 431655
1, 18240, Tempo, 424028
1, 18480, Tempo, 437956
1, 18520, Tempo, 436364
1, 18720, Tempo, 430108
1, 19200, Tempo, 425532
1, 19440, Tempo, 433213
1, 19680, Tempo, 431655
1, 20160, Tempo, 424028
1, 20400, Tempo, 433213
1, 20640, Tempo, 430108
1, 20880, Tempo, 437956
1, 21120, Tempo, 418118
1, 22080, Tempo, 422535
1, 22280, Tempo, 424028
1, 22480, Tempo, 425532
1, 22640, Tempo, 427046
1, 22840, Tempo, 428571
1, 23000, Tempo, 430108
1, 23040, Tempo, 430108
1, 24000, Tempo, 433213
1, 24240, Tempo, 446097
1, 24960, Tempo, 422535
1, 25440, Tempo, 425532
1, 25680, Tempo, 434783
1, 25920, Tempo, 430108
1, 26160, Tempo, 436364
1, 26400, Tempo, 428571
1, 26640, Tempo, 441176
1, 26880, Tempo, 441176
1, 27120, Tempo, 447761
1, 27360, Tempo, 441176
1, 27600, Tempo, 447761
1, 27840, Tempo, 437956
1, 28080, Tempo, 444444
1, 28320, Tempo, 434783
1, 28560, Tempo, 442804
1, 28800, Tempo, 425532
1, 29280, Tempo, 425532
1, 29520, Tempo, 434783
1, 29760, Tempo, 434783
1, 30000, Tempo, 439560
1, 30240, Tempo, 433213
1, 30480, Tempo, 441176
1, 30720, Tempo, 434783
1, 30960, Tempo, 447761
1, 31200, Tempo, 434783
1, 31440, Tempo, 447761
1, 31680, Tempo, 436364
1, 31920, Tempo, 444444
1, 32160, Tempo, 434783
1, 32640, Tempo, 433213
1, 32720, Tempo, 431655
1, 32800, Tempo, 430108
1, 32880, Tempo, 428571
1, 32960, Tempo, 427046
1, 33040, Tempo, 425532
1, 33080, Tempo, 424028
1, 33120, Tempo, 436364
1, 33360, Tempo, 441176
1, 33600, Tempo, 436364
1, 33840, Tempo, 442804
1, 34080, Tempo, 436364
1, 34320, Tempo, 451128
1, 34560, Tempo, 433213
1, 34640, Tempo, 431655
1, 34720, Tempo, 430108
1, 34800, Tempo, 428571
1, 34880, Tempo, 427046
1, 34960, Tempo, 425532
1, 35000, Tempo, 424028
1, 35040, Tempo, 436364
1, 35280, Tempo, 441176
1, 35520, Tempo, 436364
1, 35760, Tempo, 442804
1, 36000, Tempo, 436364
1, 36240, Tempo, 441176
1, 36480, Tempo, 433213
1, 36560, Tempo, 431655
1, 36640, Tempo, 430108
1, 36720, Tempo, 428571
1, 36800, Tempo, 427046
1, 36880, Tempo, 425532
1, 36920, Tempo, 424028
1, 36960, Tempo, 436364
1, 37200, Tempo, 441176
1, 37440, Tempo, 436364
1, 37680, Tempo, 442804
1, 37920, Tempo, 436364
1, 38160, Tempo, 451128
1, 38400, Tempo, 433213
1, 38480, Tempo, 431655
1, 38560, Tempo, 430108
1, 38640, Tempo, 428571
1, 38720, Tempo, 427046
1, 38800, Tempo, 425532
1, 38840, Tempo, 424028
1, 38880, Tempo, 436364
1, 39120, Tempo, 441176
1, 39360, Tempo, 436364
1, 39600, Tempo, 442804
1, 39840, Tempo, 436364
1, 40080, Tempo, 441176
1, 40320, Tempo, 433213
1, 40400, Tempo, 431655
1, 40480, Tempo, 430108
1, 40560, Tempo, 428571
1, 40640, Tempo, 427046
1, 40720, Tempo, 425532
1, 40760, Tempo, 424028
1, 40800, Tempo, 442804
1, 41040, Tempo, 449438
1, 41280, Tempo, 436364
1, 41520, Tempo, 442804
1, 41760, Tempo, 436364
1, 42000, Tempo, 441176
1, 42240, Tempo, 433213
1, 42320, Tempo, 431655
1, 42400, Tempo, 430108
1, 42480, Tempo, 428571
1, 42560, Tempo, 427046
1, 42640, Tempo, 425532
1, 42680, Tempo, 424028
1, 42720, Tempo, 442804
1, 42960, Tempo, 449438
1, 43200, Tempo, 436364
1, 43440, Tempo, 442804
1, 43680, Tempo, 436364
1, 43920, Tempo, 441176
1, 44160, Tempo, 433213
1, 44240, Tempo, 431655
1, 44320, Tempo, 430108
1, 44400, Tempo, 428571
1, 44480, Tempo, 427046
1, 44560, Tempo, 425532
1, 44600, Tempo, 424028
1, 44640, Tempo, 442804
1, 44880, Tempo, 449438
1, 45120, Tempo, 436364
1, 45360, Tempo, 442804
1, 45600, Tempo, 436364
1, 45840, Tempo, 441176
1, 46080, Tempo, 433213
1, 46160, Tempo, 431655
1, 46240, Tempo, 430108
1, 46320, Tempo, 428571
1, 46400, Tempo, 427046
1, 46480, Tempo, 425532
1, 46520, Tempo, 424028
1, 46560, Tempo, 442804
1, 46800, Tempo, 449438
1, 47040, Tempo, 436364
1, 47280, Tempo, 442804
1, 47520, Tempo, 436364
1, 47760, Tempo, 441176
1, 48000, Tempo, 436364
1, 48240, Tempo, 442804
1, 48480, Tempo, 436364
1, 48720, Tempo, 441176
1, 48960, Tempo, 436364
1, 49200, Tempo, 442804
1, 49440, Tempo, 436364
1, 49680, Tempo, 441176
1, 49920, Tempo, 436364
1, 50160, Tempo, 442804
1, 50400, Tempo, 436364
1, 50640, Tempo, 441176
1, 50880, Tempo, 436364
1, 51120, Tempo, 442804
1, 51360, Tempo, 436364
1, 51600, Tempo, 441176
1, 51840, Tempo, 433213
1, 52680, Tempo, 449438
1, 52800, Tempo, 433213
1, 53640, Tempo, 449438
1, 53760, Tempo, 433213
1, 54600, Tempo, 446097
1, 54720, Tempo, 433213
1, 55200, Tempo, 433213
1, 55280, Tempo, 434783
1, 55320, Tempo, 436364
1, 55360, Tempo, 437956
1, 55400, Tempo, 439560
1, 55440, Tempo, 441176
1, 55480, Tempo, 442804
1, 55520, Tempo, 444444
1, 55560, Tempo, 3000000
1, 55680, Tempo, 458015
1, 56160, Tempo, 447761
1, 56640, Tempo, 442804
1, 57600, Tempo, 422535
1, 57960, Tempo, 424028
1, 58040, Tempo, 422535
1, 58080, Tempo, 427046
1, 58560, Tempo, 430108
1, 58600, Tempo, 428571
1, 58760, Tempo, 427046
1, 58920, Tempo, 425532
1, 59040, Tempo, 422535
1, 59080, Tempo, 422535
1, 59280, Tempo, 466926
1, 59520, Tempo, 451128
1, 60480, Tempo, 437956
1, 61440, Tempo, 428571
1, 62400, Tempo, 428571
1, 62520, Tempo, 427046
1, 62640, Tempo, 425532
1, 62760, Tempo, 424028
1, 62880, Tempo, 446097
1, 63360, Tempo, 415225
1, 63600, Tempo, 442804
1, 63840, Tempo, 434783
1, 64320, Tempo, 418118
1, 64560, Tempo, 442804
1, 64800, Tempo, 434783
1, 65280, Tempo, 439560
1, 65520, Tempo, 446097
1, 65760, Tempo, 437956
1, 66000, Tempo, 433213
1, 66240, Tempo, 434783
1, 66480, Tempo, 437956
1, 66720, Tempo, 434783
1, 67200, Tempo, 418118
1, 67440, Tempo, 442804
1, 67680, Tempo, 434783
1, 68160, Tempo, 418118
1, 68400, Tempo, 442804
1, 68640, Tempo, 434783
1, 69120, Tempo, 436364
1, 69160, Tempo, 430108
1, 69360, Tempo, 442804
1, 69600, Tempo, 431655
1, 69640, Tempo, 433213
1, 69840, Tempo, 439560
1, 70080, Tempo, 434783
1, 70320, Tempo, 437956
1, 70560, Tempo, 434783
1, 71040, Tempo, 431655
1, 71280, Tempo, 442804
1, 71520, Tempo, 427046
1, 71760, Tempo, 434783
1, 72000, Tempo, 430108
1, 72240, Tempo, 437956
1, 72480, Tempo, 434783
1, 72960, Tempo, 430108
1, 73200, Tempo, 437956
1, 73440, Tempo, 425532
1, 73680, Tempo, 431655
1, 73920, Tempo, 428571
1, 74160, Tempo, 437956
1, 74200, Tempo, 436364
1, 74400, Tempo, 430108
1, 74880, Tempo, 425532
1, 75120, Tempo, 433213
1, 75360, Tempo, 431655
1, 75840, Tempo, 424028
1, 76080, Tempo, 433213
1, 76320, Tempo, 430108
1, 76560, Tempo, 437956
1, 76800, Tempo, 422535
1, 77760, Tempo, 422535
1, 77960, Tempo, 424028
1, 78160, Tempo, 425532
1, 78320, Tempo, 427046
1, 78520, Tempo, 428571
1, 78680, Tempo, 430108
1, 78720, Tempo, 430108
1, 79680, Tempo, 433213
1, 79920, Tempo, 446097
1, 80160, Tempo, 500000
1, 80640, Tempo, 466926
1, 80640, Marker_t, "L'istesso tempo"
1, 81120, Tempo, 461538
1, 81600, Tempo, 465116
1, 82080, Tempo, 461538
1, 82560, Tempo, 452830
1, 83040, Tempo, 470588
1, 83520, Tempo, 468750
1, 84000, Tempo, 461538
1, 84720, Tempo, 454545
1, 84960, Tempo, 466926
1, 85440, Tempo, 463320
1, 85680, Tempo, 476190
1, 85920, Tempo, 470588
1, 86400, Tempo, 472441
1, 86640, Tempo, 458015
1, 86880, Tempo, 466926
1, 87360, Tempo, 466926
1, 87600, Tempo, 476190
1, 88080, Tempo, 456274
1, 88560, Tempo, 459770
1, 89040, Tempo, 452830
1, 89560, Tempo, 456274
1, 90000, Tempo, 449438
1, 90480, Tempo, 454545
1, 90960, Tempo, 449438
1, 91440, Tempo, 452830
1, 91920, Tempo, 481928
1, 92160, Tempo, 466926
1, 92640, Tempo, 461538
1, 93120, Tempo, 465116
1, 93600, Tempo, 461538
1, 94080, Tempo, 452830
1, 94560, Tempo, 474308
1, 95040, Tempo, 466926
1, 95520, Tempo, 461538
1, 96240, Tempo, 454545
1, 96480, Tempo, 466926
1, 96960, Tempo, 463320
1, 97200, Tempo, 476190
1, 97440, Tempo, 466926
1, 97920, Tempo, 472441
1, 98160, Tempo, 458015
1, 98400, Tempo, 466926
1, 98880, Tempo, 466926
1, 99120, Tempo, 476190
1, 99600, Tempo, 454545
1, 99840, Tempo, 449438
1, 99880, Tempo, 452830
1, 100080, Tempo, 459770
1, 100560, Tempo, 449438
1, 100800, Tempo, 452830
1, 101040, Tempo, 458015
1, 101520, Tempo, 447761
1, 102000, Tempo, 451128
1, 102480, Tempo, 444444
1, 102960, Tempo, 449438
1, 103200, Tempo, 456274
1, 103440, Tempo, 472441
1, 103680, Tempo, 466926
1, 104160, Tempo, 461538
1, 104640, Tempo, 466926
1, 105120, Tempo, 461538
1, 105600, Tempo, 452830
1, 106080, Tempo, 463320
1, 106560, Tempo, 456274
1, 107040, Tempo, 463320
1, 107280, Tempo, 474308
1, 107520, Tempo, 461538
1, 107760, Tempo, 454545
1, 108000, Tempo, 466926
1, 108480, Tempo, 463320
1, 108720, Tempo, 476190
1, 108960, Tempo, 459770
1, 109440, Tempo, 461538
1, 109680, Tempo, 454545
1, 109920, Tempo, 470588
1, 110400, Tempo, 466926
1, 110640, Tempo, 476190
1, 111120, Tempo, 500000
1, 111360, Tempo, 466926
1, 111840, Tempo, 461538
1, 112320, Tempo, 466926
1, 112800, Tempo, 461538
1, 113280, Tempo, 452830
1, 113760, Tempo, 463320
1, 114240, Tempo, 456274
1, 114720, Tempo, 463320
1, 114960, Tempo, 474308
1, 115200, Tempo, 461538
1, 115440, Tempo, 454545
1, 115680, Tempo, 466926
1, 116160, Tempo, 463320
1, 116400, Tempo, 476190
1, 116640, Tempo, 459770
1, 117120, Tempo, 461538
1, 117360, Tempo, 454545
1, 117600, Tempo, 470588
1, 118080, Tempo, 466926
1, 118320, Tempo, 476190
1, 119040, Tempo, 458015
1, 119280, Tempo, 441176
1, 119520, Tempo, 460052
1, 120000, Tempo, 456517
1, 120240, Tempo, 449539
1, 120480, Tempo, 460052
1, 120720, Tempo, 469227
1, 120960, Tempo, 458295
1, 121200, Tempo, 439560
1, 121440, Tempo, 460052
1, 121920, Tempo, 456517
1, 122160, Tempo, 451230
1, 122400, Tempo, 460052
1, 122880, Tempo, 466926
1, 123000, Tempo, 459770
1, 123240, Tempo, 470588
1, 123360, Tempo, 465116
1, 123480, Tempo, 459770
1, 123720, Tempo, 465116
1, 123840, Tempo, 460052
1, 123960, Tempo, 456274
1, 124200, Tempo, 461894
1, 124320, Tempo, 460052
1, 124440, Tempo, 456274
1, 124680, Tempo, 468750
1, 124800, Tempo, 460052
1, 124920, Tempo, 451230
1, 125160, Tempo, 461894
1, 125280, Tempo, 460052
1, 125400, Tempo, 453001
1, 125640, Tempo, 461894
1, 125760, Tempo, 460052
1, 125880, Tempo, 454545
1, 126120, Tempo, 461894
1, 126240, Tempo, 460052
1, 126360, Tempo, 453001
1, 126600, Tempo, 461894
1, 126720, Tempo, 460052
1, 127080, Tempo, 461894
1, 127200, Tempo, 453001
1, 127320, Tempo, 453001
1, 127440, Tempo, 461894
1, 128640, Tempo, 460052
1, 129000, Tempo, 461894
1, 129120, Tempo, 453001
1, 129240, Tempo, 453001
1, 129360, Tempo, 461894
1, 130560, Tempo, 456517
1, 132480, Tempo, 449438
1, 133320, Tempo, 474308
1, 133440, Tempo, 442804
1, 134280, Tempo, 459770
1, 134400, Tempo, 436364
1, 135240, Tempo, 452830
1, 135360, Tempo, 433213
1, 135840, Tempo, 433213
1, 135920, Tempo, 434783
1, 135960, Tempo, 436364
1, 136000, Tempo, 437956
1, 136040, Tempo, 439560
1, 136080, Tempo, 441176
1, 136120, Tempo, 442804
1, 136160, Tempo, 444444
1, 136200, Tempo, 3000000
1, 136320, Tempo, 458015
1, 137280, Tempo, 447761
1, 137760, Tempo, 442804
1, 138240, Tempo, 422535
1, 138600, Tempo, 424028
1, 138680, Tempo, 422535
1, 138720, Tempo, 427046
1, 139200, Tempo, 430108
1, 139240, Tempo, 428571
1, 139400, Tempo, 427046
1, 139560, Tempo, 425532
1, 139680, Tempo, 422535
1, 139720, Tempo, 422535
1, 139920, Tempo, 468750
1, 140160, Tempo, 458015
1, 141120, Tempo, 442804
1, 142080, Tempo, 428571
1, 143040, Tempo, 428571
1, 143160, Tempo, 427046
1, 143280, Tempo, 425532
1, 143400, Tempo, 424028
1, 143520, Tempo, 446097
1, 144000, Tempo, 416667
1, 144240, Tempo, 442804
1, 144480, Tempo, 434783
1, 144960, Tempo, 418118
1, 145200, Tempo, 442804
1, 145440, Tempo, 434783
1, 145920, Tempo, 437956
1, 146160, Tempo, 442804
1, 146400, Tempo, 434783
1, 146640, Tempo, 439560
1, 146880, Tempo, 433213
1, 147120, Tempo, 437956
1, 147360, Tempo, 434783
1, 147840, Tempo, 415225
1, 148080, Tempo, 442804
1, 148320, Tempo, 434783
1, 148800, Tempo, 416667
1, 149040, Tempo, 442804
1, 149280, Tempo, 434783
1, 149760, Tempo, 436364
1, 150000, Tempo, 442804
1, 150240, Tempo, 431655
1, 150480, Tempo, 437956
1, 150720, Tempo, 430108
1, 150960, Tempo, 437956
1, 151200, Tempo, 434783
1, 151680, Tempo, 428571
1, 151920, Tempo, 442804
1, 152160, Tempo, 425532
1, 152400, Tempo, 434783
1, 152640, Tempo, 428571
1, 152880, Tempo, 437956
1, 153120, Tempo, 434783
1, 153600, Tempo, 425532
1, 153840, Tempo, 437956
1, 154080, Tempo, 422535
1, 154320, Tempo, 431655
1, 154560, Tempo, 424028
1, 154800, Tempo, 437956
1, 154840, Tempo, 436364
1, 155040, Tempo, 430108
1, 155520, Tempo, 425532
1, 155760, Tempo, 433213
1, 156000, Tempo, 431655
1, 156480, Tempo, 424028
1, 156720, Tempo, 433213
1, 156960, Tempo, 430108
1, 157200, Tempo, 437956
1, 157440, Tempo, 415225
1, 158320, Tempo, 412371
1, 158440, Tempo, 413793
1, 158520, Tempo, 415225
1, 158600, Tempo, 416667
1, 158680, Tempo, 418118
1, 158800, Tempo, 419580
1, 158880, Tempo, 421053
1, 158960, Tempo, 422535
1, 159040, Tempo, 424028
1, 159120, Tempo, 425532
1, 159160, Tempo, 428571
1, 159320, Tempo, 430108
1, 159360, Tempo, 422535
1, 159560, Tempo, 424028
1, 159760, Tempo, 425532
1, 159920, Tempo, 427046
1, 160120, Tempo, 428571
1, 160280, Tempo, 430108
1, 160320, Tempo, 422535
1, 160520, Tempo, 424028
1, 160720, Tempo, 425532
1, 160880, Tempo, 427046
1, 161080, Tempo, 428571
1, 161240, Tempo, 430108
1, 161280, Tempo, 436364
1, 161760, Tempo, 418118
1, 162000, Tempo, 441176
1, 162240, Tempo, 433213
1, 162720, Tempo, 427046
1, 162960, Tempo, 454545
1, 163200, Tempo, 433213
1, 163680, Tempo, 441176
1, 164160, Tempo, 434783
1, 165120, Tempo, 436364
1, 165600, Tempo, 418118
1, 165840, Tempo, 441176
1, 166080, Tempo, 433213
1, 166560, Tempo, 427046
1, 166800, Tempo, 436364
1, 167040, Tempo, 433213
1, 167520, Tempo, 441176
1, 168000, Tempo, 434783
1, 168480, Tempo, 449438
1, 168960, Tempo, 433213
1, 169440, Tempo, 441176
1, 169920, Tempo, 434783
1, 170860, Tempo, 430108
1, 171840, Tempo, 434783
1, 172320, Tempo, 442804
1, 172680, Tempo, 449438
1, 172800, Tempo, 461538
1, 173020, Tempo, 446097
1, 173040, Tempo, 478088
1, 173260, Tempo, 500000
1, 174240, Tempo, 545455
1, 174240, Marker_t, "Fine"
1, 174240, End_track
2, 0, Start_track
2, 0, Title_t, "Piano right"
2, 0, Program_c, 0, 0
2, 0, Control_c, 0, 7, 100
2, 0, Control_c, 0, 10, 64
2, 0, Text_t, "bdca426d104a26ac9dcb070447587523"
2, 0, Control_c, 0, 91, 127
2, 1, Note_on_c, 0, 78, 79
2, 1, Note_on_c, 0, 74, 79
2, 1, Note_on_c, 0, 81, 88
2, 240, Note_on_c, 0, 74, 0
2, 240, Note_on_c, 0, 78, 0
2, 240, Note_on_c, 0, 69, 74
2, 480, Note_on_c, 0, 69, 0
2, 480, Note_on_c, 0, 81, 0
2, 480, Note_on_c, 0, 76, 84
2, 480, Note_on_c, 0, 70, 75
2, 480, Note_on_c, 0, 74, 75
2, 720, Note_on_c, 0, 74, 0
2, 720, Note_on_c, 0, 70, 0
2, 720, Note_on_c, 0, 64, 69
2, 960, Note_on_c, 0, 64, 0
2, 960, Note_on_c, 0, 76, 0
2, 960, Note_on_c, 0, 81, 88
2, 960, Note_on_c, 0, 74, 79
2, 960, Note_on_c, 0, 78, 79
2, 1200, Note_on_c, 0, 78, 0
2, 1200, Note_on_c, 0, 74, 0
2, 1200, Note_on_c, 0, 69, 75
2, 1440, Note_on_c, 0, 69, 0
2, 1440, Note_on_c, 0, 81, 0
2, 1440, Note_on_c, 0, 76, 84
2, 1440, Note_on_c, 0, 70, 75
2, 1440, Note_on_c, 0, 74, 75
2, 1680, Note_on_c, 0, 74, 0
2, 1680, Note_on_c, 0, 70, 0
2, 1680, Note_on_c, 0, 64, 70
2, 1920, Note_on_c, 0, 64, 0
2, 1920, Note_on_c, 0, 76, 0
2, 1920, Note_on_c, 0, 74, 72
2, 1980, Note_on_c, 0, 74, 0
2, 2040, Note_on_c, 0, 76, 67
2, 2100, Note_on_c, 0, 76, 0
2, 2160, Note_on_c, 0, 74, 71
2, 2220, Note_on_c, 0, 74, 0
2, 2280, Note_on_c, 0, 76, 67
2, 2340, Note_on_c, 0, 76, 0
2, 2400, Note_on_c, 0, 78, 72
2, 2520, Note_on_c, 0, 78, 0
2, 2640, Note_on_c, 0, 78, 68
2, 2760, Note_on_c, 0, 78, 0
2, 2880, Note_on_c, 0, 76, 73
2, 2880, Note_on_c, 0, 67, 66
2, 2880, Note_on_c, 0, 74, 66
2, 3120, Note_on_c, 0, 76, 0
2, 3120, Note_on_c, 0, 79, 69
2, 3360, Note_on_c, 0, 79, 0
2, 3360, Note_on_c, 0, 74, 0
2, 3360, Note_on_c, 0, 67, 0
2, 3360, Note_on_c, 0, 73, 64
2, 3360, Note_on_c, 0, 76, 72
2, 3600, Note_on_c, 0, 73, 0
2, 3600, Note_on_c, 0, 69, 68
2, 3840, Note_on_c, 0, 69, 0
2, 3840, Note_on_c, 0, 76, 0
2, 3840, Note_on_c, 0, 81, 88
2, 3840, Note_on_c, 0, 74, 79
2, 3840, Note_on_c, 0, 78, 79
2, 4080, Note_on_c, 0, 78, 0
2, 4080, Note_on_c, 0, 74, 0
2, 4080, Note_on_c, 0, 69, 75
2, 4320, Note_on_c, 0, 69, 0
2, 4320, Note_on_c, 0, 81, 0
2, 4320, Note_on_c, 0, 76, 84
2, 4320, Note_on_c, 0, 70, 75
2, 4320, Note_on_c, 0, 74, 75
2, 4560, Note_on_c, 0, 74, 0
2, 4560, Note_on_c, 0, 70, 0
2, 4560, Note_on_c, 0, 64, 73
2, 4800, Note_on_c, 0, 64, 0
2, 4800, Note_on_c, 0, 76, 0
2, 4800, Note_on_c, 0, 81, 88
2, 4800, Note_on_c, 0, 74, 79
2, 4800, Note_on_c, 0, 78, 79
2, 5040, Note_on_c, 0, 78, 0
2, 5040, Note_on_c, 0, 74, 0
2, 5040, Note_on_c, 0, 69, 75
2, 5280, Note_on_c, 0, 69, 0
2, 5280, Note_on_c, 0, 81, 0
2, 5280, Note_on_c, 0, 76, 84
2, 5280, Note_on_c, 0, 70, 75
2, 5280, Note_on_c, 0, 74, 75
2, 5520, Note_on_c, 0, 74, 0
2, 5520, Note_on_c, 0, 70, 0
2, 5520, Note_on_c, 0, 64, 72
2, 5760, Note_on_c, 0, 64, 0
2, 5760, Note_on_c, 0, 76, 0
2, 5760, Note_on_c, 0, 74, 77
2, 5820, Note_on_c, 0, 74, 0
2, 5880, Note_on_c, 0, 76, 73
2, 5940, Note_on_c, 0, 76, 0
2, 6000, Note_on_c, 0, 74, 78
2, 6060, Note_on_c, 0, 74, 0
2, 6120, Note_on_c, 0, 76, 73
2, 6180, Note_on_c, 0, 76, 0
2, 6240, Note_on_c, 0, 78, 80
2, 6360, Note_on_c, 0, 78, 0
2, 6480, Note_on_c, 0, 78, 72
2, 6600, Note_on_c, 0, 78, 0
2, 6720, Note_on_c, 0, 74, 80
2, 6720, Note_on_c, 0, 76, 80
2, 6780, Note_on_c, 0, 76, 0
2, 6780, Note_on_c, 0, 74, 0
2, 6840, Note_on_c, 0, 78, 81
2, 6900, Note_on_c, 0, 78, 0
2, 6960, Note_on_c, 0, 79, 83
2, 7020, Note_on_c, 0, 79, 0
2, 7080, Note_on_c, 0, 81, 85
2, 7140, Note_on_c, 0, 81, 0
2, 7200, Note_on_c, 0, 82, 86
2, 7440, Note_on_c, 0, 82, 0
2, 7800, Note_on_c, 0, 61, 42
2, 7800, Note_on_c, 0, 63, 42
2, 7920, Note_on_c, 0, 63, 0
2, 7920, Note_on_c, 0, 61, 0
2, 8040, Note_on_c, 0, 61, 42
2, 8040, Note_on_c, 0, 63, 42
2, 8160, Note_on_c, 0, 63, 0
2, 8160, Note_on_c, 0, 61, 0
2, 8160, Note_on_c, 0, 60, 47
2, 8400, Note_on_c, 0, 72, 42
2, 8400, Note_on_c, 0, 63, 42
2, 8640, Note_on_c, 0, 63, 0
2, 8640, Note_on_c, 0, 72, 0
2, 8640, Note_on_c, 0, 60, 0
2, 8760, Note_on_c, 0, 63, 46
2, 8760, Note_on_c, 0, 65, 46
2, 8880, Note_on_c, 0, 65, 0
2, 8880, Note_on_c, 0, 63, 0
2, 9000, Note_on_c, 0, 63, 46
2, 9000, Note_on_c, 0, 65, 46
2, 9120, Note_on_c, 0, 65, 0
2, 9120, Note_on_c, 0, 63, 0
2, 9120, Note_on_c, 0, 62, 52
2, 9360, Note_on_c, 0, 74, 47
2, 9360, Note_on_c, 0, 65, 41
2, 9600, Note_on_c, 0, 65, 0
2, 9600, Note_on_c, 0, 74, 0
2, 9600, Note_on_c, 0, 62, 0
2, 9600, Note_on_c, 0, 62, 49
2, 9840, Note_on_c, 0, 67, 38
2, 9840, Note_on_c, 0, 74, 41
2, 9840, Note_on_c, 0, 65, 38
2, 10080, Note_on_c, 0, 65, 0
2, 10080, Note_on_c, 0, 62, 0
2, 10080, Note_on_c, 0, 67, 0
2, 10080, Note_on_c, 0, 74, 0
2, 10080, Note_on_c, 0, 63, 50
2, 10320, Note_on_c, 0, 75, 43
2, 10320, Note_on_c, 0, 67, 38
2, 10560, Note_on_c, 0, 67, 0
2, 10560, Note_on_c, 0, 75, 0
2, 10560, Note_on_c, 0, 63, 0
2, 10560, Note_on_c, 0, 65, 54
2, 10800, Note_on_c, 0, 71, 38
2, 10800, Note_on_c, 0, 79, 43
2, 11040, Note_on_c, 0, 79, 0
2, 11040, Note_on_c, 0, 71, 0
2, 11040, Note_on_c, 0, 65, 0
2, 11040, Note_on_c, 0, 63, 53
2, 11280, Note_on_c, 0, 75, 45
2, 11280, Note_on_c, 0, 67, 40
2, 11520, Note_on_c, 0, 67, 0
2, 11520, Note_on_c, 0, 75, 0
2, 11520, Note_on_c, 0, 63, 0
2, 11640, Note_on_c, 0, 65, 47
2, 11640, Note_on_c, 0, 67, 47
2, 11760, Note_on_c, 0, 67, 0
2, 11760, Note_on_c, 0, 65, 0
2, 11880, Note_on_c, 0, 65, 48
2, 11880, Note_on_c, 0, 67, 48
2, 12000, Note_on_c, 0, 67, 0
2, 12000, Note_on_c, 0, 65, 0
2, 12000, Note_on_c, 0, 64, 53
2, 12240, Note_on_c, 0, 76, 48
2, 12240, Note_on_c, 0, 67, 43
2, 12480, Note_on_c, 0, 67, 0
2, 12480, Note_on_c, 0, 76, 0
2, 12480, Note_on_c, 0, 64, 0
2, 12600, Note_on_c, 0, 67, 53
2, 12600, Note_on_c, 0, 69, 53
2, 12720, Note_on_c, 0, 69, 0
2, 12720, Note_on_c, 0, 67, 0
2, 12840, Note_on_c, 0, 67, 53
2, 12840, Note_on_c, 0, 69, 53
2, 12960, Note_on_c, 0, 69, 0
2, 12960, Note_on_c, 0, 67, 0
2, 12960, Note_on_c, 0, 65, 58
2, 13200, Note_on_c, 0, 77, 53
2, 13200, Note_on_c, 0, 69, 47
2, 13440, Note_on_c, 0, 69, 0
2, 13440, Note_on_c, 0, 77, 0
2, 13440, Note_on_c, 0, 65, 0
2, 13440, Note_on_c, 0, 64, 58
2, 13680, Note_on_c, 0, 67, 44
2, 13680, Note_on_c, 0, 76, 49
2, 13680, Note_on_c, 0, 69, 44
2, 13920, Note_on_c, 0, 69, 0
2, 13920, Note_on_c, 0, 64, 0
2, 13920, Note_on_c, 0, 67, 0
2, 13920, Note_on_c, 0, 76, 0
2, 13920, Note_on_c, 0, 65, 59
2, 14160, Note_on_c, 0, 77, 52
2, 14160, Note_on_c, 0, 69, 46
2, 14400, Note_on_c, 0, 69, 0
2, 14400, Note_on_c, 0, 77, 0
2, 14400, Note_on_c, 0, 65, 0
2, 14400, Note_on_c, 0, 67, 65
2, 14640, Note_on_c, 0, 73, 46
2, 14640, Note_on_c, 0, 81, 53
2, 14880, Note_on_c, 0, 81, 0
2, 14880, Note_on_c, 0, 73, 0
2, 14880, Note_on_c, 0, 67, 0
2, 14880, Note_on_c, 0, 65, 62
2, 15120, Note_on_c, 0, 77, 55
2, 15120, Note_on_c, 0, 69, 48
2, 15360, Note_on_c, 0, 69, 0
2, 15360, Note_on_c, 0, 77, 0
2, 15360, Note_on_c, 0, 65, 0
2, 15360, Note_on_c, 0, 64, 66
2, 15600, Note_on_c, 0, 69, 50
2, 15600, Note_on_c, 0, 76, 57
2, 15600, Note_on_c, 0, 67, 50
2, 15840, Note_on_c, 0, 67, 0
2, 15840, Note_on_c, 0, 64, 0
2, 15840, Note_on_c, 0, 69, 0
2, 15840, Note_on_c, 0, 76, 0
2, 15840, Note_on_c, 0, 65, 66
2, 16080, Note_on_c, 0, 77, 57
2, 16080, Note_on_c, 0, 69, 50
2, 16320, Note_on_c, 0, 69, 0
2, 16320, Note_on_c, 0, 77, 0
2, 16320, Note_on_c, 0, 65, 0
2, 16320, Note_on_c, 0, 69, 70
2, 16560, Note_on_c, 0, 78, 50
2, 16560, Note_on_c, 0, 83, 57
2, 16800, Note_on_c, 0, 83, 0
2, 16800, Note_on_c, 0, 78, 0
2, 16800, Note_on_c, 0, 69, 0
2, 16800, Note_on_c, 0, 67, 67
2, 17040, Note_on_c, 0, 79, 59
2, 17040, Note_on_c, 0, 71, 53
2, 17280, Note_on_c, 0, 71, 0
2, 17280, Note_on_c, 0, 79, 0
2, 17280, Note_on_c, 0, 67, 0
2, 17280, Note_on_c, 0, 66, 71
2, 17520, Note_on_c, 0, 71, 57
2, 17520, Note_on_c, 0, 78, 64
2, 17520, Note_on_c, 0, 69, 57
2, 17760, Note_on_c, 0, 69, 0
2, 17760, Note_on_c, 0, 66, 0
2, 17760, Note_on_c, 0, 71, 0
2, 17760, Note_on_c, 0, 78, 0
2, 17760, Note_on_c, 0, 67, 74
2, 18000, Note_on_c, 0, 79, 64
2, 18000, Note_on_c, 0, 71, 58
2, 18240, Note_on_c, 0, 71, 0
2, 18240, Note_on_c, 0, 79, 0
2, 18240, Note_on_c, 0, 67, 0
2, 18240, Note_on_c, 0, 71, 76
2, 18480, Note_on_c, 0, 80, 58
2, 18480, Note_on_c, 0, 85, 65
2, 18720, Note_on_c, 0, 85, 0
2, 18720, Note_on_c, 0, 80, 0
2, 18720, Note_on_c, 0, 71, 0
2, 18720, Note_on_c, 0, 69, 75
2, 18960, Note_on_c, 0, 81, 67
2, 18960, Note_on_c, 0, 73, 60
2, 19200, Note_on_c, 0, 73, 0
2, 19200, Note_on_c, 0, 81, 0
2, 19200, Note_on_c, 0, 69, 0
2, 19200, Note_on_c, 0, 72, 82
2, 19440, Note_on_c, 0, 81, 60
2, 19440, Note_on_c, 0, 86, 69
2, 19680, Note_on_c, 0, 86, 0
2, 19680, Note_on_c, 0, 81, 0
2, 19680, Note_on_c, 0, 72, 0
2, 19680, Note_on_c, 0, 71, 78
2, 19920, Note_on_c, 0, 83, 72
2, 19920, Note_on_c, 0, 74, 65
2, 20160, Note_on_c, 0, 74, 0
2, 20160, Note_on_c, 0, 83, 0
2, 20160, Note_on_c, 0, 71, 0
2, 20160, Note_on_c, 0, 72, 83
2, 20400, Note_on_c, 0, 81, 61
2, 20400, Note_on_c, 0, 86, 70
2, 20640, Note_on_c, 0, 86, 0
2, 20640, Note_on_c, 0, 81, 0
2, 20640, Note_on_c, 0, 72, 0
2, 20640, Note_on_c, 0, 71, 79
2, 20880, Note_on_c, 0, 83, 70
2, 20880, Note_on_c, 0, 74, 61
2, 21120, Note_on_c, 0, 74, 0
2, 21120, Note_on_c, 0, 83, 0
2, 21120, Note_on_c, 0, 71, 0
2, 21120, Note_on_c, 0, 88, 86
2, 21180, Note_on_c, 0, 88, 0
2, 21240, Note_on_c, 0, 86, 74
2, 21300, Note_on_c, 0, 86, 0
2, 21360, Note_on_c, 0, 82, 80
2, 21420, Note_on_c, 0, 82, 0
2, 21480, Note_on_c, 0, 81, 72
2, 21540, Note_on_c, 0, 81, 0
2, 21600, Note_on_c, 0, 79, 77
2, 21720, Note_on_c, 0, 79, 0
2, 22080, Note_on_c, 0, 64, 74
2, 22140, Note_on_c, 0, 64, 0
2, 22200, Note_on_c, 0, 62, 63
2, 22260, Note_on_c, 0, 62, 0
2, 22320, Note_on_c, 0, 58, 70
2, 22380, Note_on_c, 0, 58, 0
2, 22440, Note_on_c, 0, 57, 64
2, 22500, Note_on_c, 0, 57, 0
2, 22560, Note_on_c, 0, 55, 75
2, 22680, Note_on_c, 0, 55, 0
2, 23520, Note_on_c, 0, 62, 72
2, 23520, Note_on_c, 0, 64, 72
2, 24240, Note_on_c, 0, 64, 0
2, 24240, Note_on_c, 0, 62, 0
2, 24240, Note_on_c, 0, 61, 80
2, 24240, Note_on_c, 0, 64, 80
2, 24240, Note_on_c, 0, 69, 80
2, 24420, Note_on_c, 0, 69, 0
2, 24420, Note_on_c, 0, 64, 0
2, 24420, Note_on_c, 0, 61, 0
2, 24480, Note_on_c, 0, 62, 86
2, 24480, Note_on_c, 0, 69, 86
2, 24480, Note_on_c, 0, 74, 86
2, 24720, Note_on_c, 0, 74, 0
2, 24720, Note_on_c, 0, 69, 0
2, 24720, Note_on_c, 0, 62, 0
2, 24960, Note_on_c, 0, 78, 78
2, 25020, Note_on_c, 0, 78, 0
2, 25080, Note_on_c, 0, 76, 71
2, 25140, Note_on_c, 0, 76, 0
2, 25200, Note_on_c, 0, 74, 73
2, 25260, Note_on_c, 0, 74, 0
2, 25320, Note_on_c, 0, 73, 68
2, 25380, Note_on_c, 0, 73, 0
2, 25440, Note_on_c, 0, 71, 75
2, 25680, Note_on_c, 0, 71, 0
2, 25680, Note_on_c, 0, 73, 66
2, 25920, Note_on_c, 0, 73, 0
2, 25920, Note_on_c, 0, 61, 77
2, 26160, Note_on_c, 0, 70, 69
2, 26160, Note_on_c, 0, 66, 69
2, 26400, Note_on_c, 0, 66, 0
2, 26400, Note_on_c, 0, 70, 0
2, 26400, Note_on_c, 0, 61, 0
2, 26400, Note_on_c, 0, 62, 77
2, 26640, Note_on_c, 0, 71, 69
2, 26640, Note_on_c, 0, 66, 69
2, 26880, Note_on_c, 0, 66, 0
2, 26880, Note_on_c, 0, 71, 0
2, 26880, Note_on_c, 0, 62, 0
2, 26880, Note_on_c, 0, 61, 71
2, 27000, Note_on_c, 0, 73, 52
2, 27120, Note_on_c, 0, 73, 0
2, 27120, Note_on_c, 0, 67, 59
2, 27240, Note_on_c, 0, 67, 0
2, 27240, Note_on_c, 0, 71, 55
2, 27360, Note_on_c, 0, 71, 0
2, 27360, Note_on_c, 0, 61, 0
2, 27360, Note_on_c, 0, 62, 66
2, 27480, Note_on_c, 0, 74, 59
2, 27600, Note_on_c, 0, 74, 0
2, 27600, Note_on_c, 0, 66, 62
2, 27720, Note_on_c, 0, 66, 0
2, 27720, Note_on_c, 0, 71, 59
2, 27840, Note_on_c, 0, 71, 0
2, 27840, Note_on_c, 0, 62, 0
2, 27840, Note_on_c, 0, 67, 73
2, 27960, Note_on_c, 0, 79, 60
2, 28080, Note_on_c, 0, 79, 0
2, 28080, Note_on_c, 0, 71, 66
2, 28200, Note_on_c, 0, 71, 0
2, 28200, Note_on_c, 0, 76, 59
2, 28320, Note_on_c, 0, 76, 0
2, 28320, Note_on_c, 0, 67, 0
2, 28320, Note_on_c, 0, 66, 70
2, 28440, Note_on_c, 0, 78, 53
2, 28560, Note_on_c, 0, 78, 0
2, 28560, Note_on_c, 0, 71, 58
2, 28680, Note_on_c, 0, 71, 0
2, 28680, Note_on_c, 0, 74, 52
2, 28800, Note_on_c, 0, 74, 0
2, 28800, Note_on_c, 0, 66, 0
2, 28800, Note_on_c, 0, 78, 73
2, 28860, Note_on_c, 0, 78, 0
2, 28920, Note_on_c, 0, 76, 67
2, 28980, Note_on_c, 0, 76, 0
2, 29040, Note_on_c, 0, 74, 70
2, 29100, Note_on_c, 0, 74, 0
2, 29160, Note_on_c, 0, 73, 63
2, 29220, Note_on_c, 0, 73, 0
2, 29280, Note_on_c, 0, 71, 75
2, 29520, Note_on_c, 0, 71, 0
2, 29520, Note_on_c, 0, 73, 66
2, 29760, Note_on_c, 0, 73, 0
2, 29760, Note_on_c, 0, 61, 77
2, 30000, Note_on_c, 0, 70, 69
2, 30000, Note_on_c, 0, 66, 69
2, 30240, Note_on_c, 0, 66, 0
2, 30240, Note_on_c, 0, 70, 0
2, 30240, Note_on_c, 0, 61, 0
2, 30240, Note_on_c, 0, 62, 77
2, 30480, Note_on_c, 0, 71, 69
2, 30480, Note_on_c, 0, 66, 69
2, 30720, Note_on_c, 0, 66, 0
2, 30720, Note_on_c, 0, 71, 0
2, 30720, Note_on_c, 0, 62, 0
2, 30720, Note_on_c, 0, 61, 71
2, 30840, Note_on_c, 0, 73, 52
2, 30960, Note_on_c, 0, 73, 0
2, 30960, Note_on_c, 0, 67, 59
2, 31080, Note_on_c, 0, 67, 0
2, 31080, Note_on_c, 0, 71, 55
2, 31200, Note_on_c, 0, 71, 0
2, 31200, Note_on_c, 0, 61, 0
2, 31200, Note_on_c, 0, 62, 66
2, 31320, Note_on_c, 0, 74, 59
2, 31440, Note_on_c, 0, 74, 0
2, 31440, Note_on_c, 0, 66, 62
2, 31560, Note_on_c, 0, 66, 0
2, 31560, Note_on_c, 0, 71, 59
2, 31680, Note_on_c, 0, 71, 0
2, 31680, Note_on_c, 0, 62, 0
2, 31680, Note_on_c, 0, 67, 73
2, 31800, Note_on_c, 0, 79, 60
2, 31920, Note_on_c, 0, 79, 0
2, 31920, Note_on_c, 0, 71, 66
2, 32040, Note_on_c, 0, 71, 0
2, 32040, Note_on_c, 0, 76, 59
2, 32160, Note_on_c, 0, 76, 0
2, 32160, Note_on_c, 0, 67, 0
2, 32160, Note_on_c, 0, 66, 70
2, 32280, Note_on_c, 0, 78, 53
2, 32400, Note_on_c, 0, 78, 0
2, 32400, Note_on_c, 0, 71, 58
2, 32520, Note_on_c, 0, 71, 0
2, 32520, Note_on_c, 0, 74, 52
2, 32640, Note_on_c, 0, 74, 0
2, 32640, Note_on_c, 0, 66, 0
2, 32880, Note_on_c, 0, 59, 48
2, 32880, Note_on_c, 0, 62, 48
2, 33360, Note_on_c, 0, 62, 0
2, 33360, Note_on_c, 0, 59, 0
2, 33360, Note_on_c, 0, 59, 52
2, 33360, Note_on_c, 0, 62, 52
2, 33840, Note_on_c, 0, 62, 0
2, 33840, Note_on_c, 0, 59, 0
2, 33840, Note_on_c, 0, 59, 51
2, 33840, Note_on_c, 0, 62, 51
2, 34320, Note_on_c, 0, 62, 0
2, 34320, Note_on_c, 0, 59, 0
2, 34320, Note_on_c, 0, 59, 44
2, 34320, Note_on_c, 0, 62, 44
2, 34380, Note_on_c, 0, 62, 0
2, 34380, Note_on_c, 0, 59, 0
2, 34560, Note_on_c, 0, 71, 64
2, 34620, Note_on_c, 0, 71, 0
2, 34680, Note_on_c, 0, 70, 58
2, 34740, Note_on_c, 0, 70, 0
2, 34800, Note_on_c, 0, 69, 60
2, 34860, Note_on_c, 0, 69, 0
2, 34920, Note_on_c, 0, 68, 55
2, 34980, Note_on_c, 0, 68, 0
2, 35040, Note_on_c, 0, 67, 62
2, 35100, Note_on_c, 0, 67, 0
2, 35280, Note_on_c, 0, 68, 63
2, 35520, Note_on_c, 0, 68, 0
2, 35520, Note_on_c, 0, 73, 72
2, 35760, Note_on_c, 0, 73, 0
2, 35760, Note_on_c, 0, 71, 60
2, 36000, Note_on_c, 0, 71, 0
2, 36000, Note_on_c, 0, 63, 62
2, 36240, Note_on_c, 0, 63, 0
2, 36240, Note_on_c, 0, 64, 56
2, 36300, Note_on_c, 0, 64, 0
2, 36720, Note_on_c, 0, 61, 48
2, 36720, Note_on_c, 0, 64, 48
2, 37200, Note_on_c, 0, 64, 0
2, 37200, Note_on_c, 0, 61, 0
2, 37200, Note_on_c, 0, 61, 52
2, 37200, Note_on_c, 0, 64, 52
2, 37680, Note_on_c, 0, 64, 0
2, 37680, Note_on_c, 0, 61, 0
2, 37680, Note_on_c, 0, 61, 51
2, 37680, Note_on_c, 0, 64, 51
2, 38160, Note_on_c, 0, 64, 0
2, 38160, Note_on_c, 0, 61, 0
2, 38160, Note_on_c, 0, 61, 44
2, 38160, Note_on_c, 0, 64, 44
2, 38280, Note_on_c, 0, 64, 0
2, 38280, Note_on_c, 0, 61, 0
2, 38400, Note_on_c, 0, 73, 64
2, 38460, Note_on_c, 0, 73, 0
2, 38520, Note_on_c, 0, 72, 58
2, 38580, Note_on_c, 0, 72, 0
2, 38640, Note_on_c, 0, 71, 60
2, 38700, Note_on_c, 0, 71, 0
2, 38760, Note_on_c, 0, 70, 55
2, 38820, Note_on_c, 0, 70, 0
2, 38880, Note_on_c, 0, 69, 62
2, 38940, Note_on_c, 0, 69, 0
2, 39120, Note_on_c, 0, 70, 63
2, 39360, Note_on_c, 0, 70, 0
2, 39360, Note_on_c, 0, 74, 72
2, 39600, Note_on_c, 0, 74, 0
2, 39600, Note_on_c, 0, 73, 60
2, 39840, Note_on_c, 0, 73, 0
2, 39840, Note_on_c, 0, 65, 62
2, 40080, Note_on_c, 0, 65, 0
2, 40080, Note_on_c, 0, 66, 56
2, 40140, Note_on_c, 0, 66, 0
2, 40320, Note_on_c, 0, 71, 83
2, 40380, Note_on_c, 0, 71, 0
2, 40440, Note_on_c, 0, 73, 74
2, 40500, Note_on_c, 0, 73, 0
2, 40560, Note_on_c, 0, 74, 80
2, 40620, Note_on_c, 0, 74, 0
2, 40680, Note_on_c, 0, 76, 73
2, 40740, Note_on_c, 0, 76, 0
2, 40800, Note_on_c, 0, 78, 85
2, 40860, Note_on_c, 0, 78, 0
2, 41040, Note_on_c, 0, 74, 70
2, 41040, Note_on_c, 0, 71, 70
2, 41040, Note_on_c, 0, 67, 70
2, 41040, Note_on_c, 0, 79, 80
2, 41220, Note_on_c, 0, 79, 0
2, 41220, Note_on_c, 0, 74, 0
2, 41220, Note_on_c, 0, 71, 0
2, 41220, Note_on_c, 0, 67, 0
2, 41280, Note_on_c, 0, 65, 84
2, 41520, Note_on_c, 0, 77, 78
2, 41760, Note_on_c, 0, 77, 0
2, 41760, Note_on_c, 0, 65, 0
2, 41760, Note_on_c, 0, 66, 85
2, 42000, Note_on_c, 0, 78, 77
2, 42240, Note_on_c, 0, 78, 0
2, 42240, Note_on_c, 0, 66, 0
2, 42240, Note_on_c, 0, 71, 83
2, 42300, Note_on_c, 0, 71, 0
2, 42360, Note_on_c, 0, 73, 77
2, 42420, Note_on_c, 0, 73, 0
2, 42480, Note_on_c, 0, 74, 80
2, 42540, Note_on_c, 0, 74, 0
2, 42600, Note_on_c, 0, 76, 75
2, 42660, Note_on_c, 0, 76, 0
2, 42720, Note_on_c, 0, 78, 85
2, 42780, Note_on_c, 0, 78, 0
2, 42960, Note_on_c, 0, 67, 70
2, 42960, Note_on_c, 0, 71, 70
2, 42960, Note_on_c, 0, 74, 70
2, 42960, Note_on_c, 0, 79, 80
2, 43140, Note_on_c, 0, 79, 0
2, 43140, Note_on_c, 0, 67, 0
2, 43140, Note_on_c, 0, 71, 0
2, 43140, Note_on_c, 0, 74, 0
2, 43200, Note_on_c, 0, 65, 84
2, 43440, Note_on_c, 0, 77, 78
2, 43680, Note_on_c, 0, 77, 0
2, 43680, Note_on_c, 0, 65, 0
2, 43680, Note_on_c, 0, 66, 85
2, 43920, Note_on_c, 0, 78, 77
2, 44160, Note_on_c, 0, 78, 0
2, 44160, Note_on_c, 0, 66, 0
2, 44160, Note_on_c, 0, 74, 83
2, 44220, Note_on_c, 0, 74, 0
2, 44280, Note_on_c, 0, 76, 74
2, 44340, Note_on_c, 0, 76, 0
2, 44400, Note_on_c, 0, 78, 80
2, 44460, Note_on_c, 0, 78, 0
2, 44520, Note_on_c, 0, 79, 75
2, 44580, Note_on_c, 0, 79, 0
2, 44640, Note_on_c, 0, 81, 85
2, 44700, Note_on_c, 0, 81, 0
2, 44880, Note_on_c, 0, 70, 71
2, 44880, Note_on_c, 0, 82, 81
2, 44880, Note_on_c, 0, 77, 71
2, 44880, Note_on_c, 0, 74, 71
2, 45060, Note_on_c, 0, 74, 0
2, 45060, Note_on_c, 0, 70, 0
2, 45060, Note_on_c, 0, 82, 0
2, 45060, Note_on_c, 0, 77, 0
2, 45120, Note_on_c, 0, 68, 84
2, 45360, Note_on_c, 0, 80, 78
2, 45600, Note_on_c, 0, 80, 0
2, 45600, Note_on_c, 0, 68, 0
2, 45600, Note_on_c, 0, 69, 85
2, 45840, Note_on_c, 0, 81, 77
2, 46080, Note_on_c, 0, 81, 0
2, 46080, Note_on_c, 0, 69, 0
2, 46080, Note_on_c, 0, 74, 83
2, 46140, Note_on_c, 0, 74, 0
2, 46200, Note_on_c, 0, 76, 75
2, 46260, Note_on_c, 0, 76, 0
2, 46320, Note_on_c, 0, 78, 80
2, 46380, Note_on_c, 0, 78, 0
2, 46440, Note_on_c, 0, 79, 75
2, 46500, Note_on_c, 0, 79, 0
2, 46560, Note_on_c, 0, 81, 85
2, 46620, Note_on_c, 0, 81, 0
2, 46800, Note_on_c, 0, 77, 71
2, 46800, Note_on_c, 0, 82, 81
2, 46800, Note_on_c, 0, 70, 71
2, 46800, Note_on_c, 0, 74, 71
2, 46980, Note_on_c, 0, 74, 0
2, 46980, Note_on_c, 0, 77, 0
2, 46980, Note_on_c, 0, 82, 0
2, 46980, Note_on_c, 0, 70, 0
2, 47040, Note_on_c, 0, 68, 84
2, 47280, Note_on_c, 0, 80, 78
2, 47520, Note_on_c, 0, 80, 0
2, 47520, Note_on_c, 0, 68, 0
2, 47520, Note_on_c, 0, 69, 85
2, 47760, Note_on_c, 0, 81, 77
2, 48000, Note_on_c, 0, 81, 0
2, 48000, Note_on_c, 0, 69, 0
2, 48000, Note_on_c, 0, 68, 84
2, 48240, Note_on_c, 0, 80, 78
2, 48480, Note_on_c, 0, 80, 0
2, 48480, Note_on_c, 0, 68, 0
2, 48480, Note_on_c, 0, 69, 85
2, 48720, Note_on_c, 0, 81, 77
2, 48960, Note_on_c, 0, 81, 0
2, 48960, Note_on_c, 0, 69, 0
2, 48960, Note_on_c, 0, 70, 84
2, 49200, Note_on_c, 0, 82, 78
2, 49440, Note_on_c, 0, 82, 0
2, 49440, Note_on_c, 0, 70, 0
2, 49440, Note_on_c, 0, 64, 85
2, 49680, Note_on_c, 0, 76, 77
2, 49920, Note_on_c, 0, 76, 0
2, 49920, Note_on_c, 0, 64, 0
2, 49920, Note_on_c, 0, 67, 84
2, 50160, Note_on_c, 0, 79, 78
2, 50400, Note_on_c, 0, 79, 0
2, 50400, Note_on_c, 0, 67, 0
2, 50400, Note_on_c, 0, 58, 85
2, 50640, Note_on_c, 0, 70, 77
2, 50880, Note_on_c, 0, 70, 0
2, 50880, Note_on_c, 0, 58, 0
2, 50880, Note_on_c, 0, 62, 84
2, 51120, Note_on_c, 0, 74, 78
2, 51360, Note_on_c, 0, 74, 0
2, 51360, Note_on_c, 0, 62, 0
2, 51360, Note_on_c, 0, 57, 85
2, 51600, Note_on_c, 0, 69, 77
2, 51840, Note_on_c, 0, 69, 0
2, 51840, Note_on_c, 0, 57, 0
2, 52320, Note_on_c, 0, 51, 69
2, 52440, Note_on_c, 0, 52, 61
2, 52460, Note_on_c, 0, 51, 0
2, 52560, Note_on_c, 0, 56, 66
2, 52580, Note_on_c, 0, 52, 0
2, 52680, Note_on_c, 0, 57, 60
2, 52700, Note_on_c, 0, 56, 0
2, 52800, Note_on_c, 0, 57, 0
2, 53280, Note_on_c, 0, 63, 72
2, 53400, Note_on_c, 0, 64, 64
2, 53420, Note_on_c, 0, 63, 0
2, 53520, Note_on_c, 0, 68, 70
2, 53540, Note_on_c, 0, 64, 0
2, 53640, Note_on_c, 0, 69, 64
2, 53660, Note_on_c, 0, 68, 0
2, 53760, Note_on_c, 0, 69, 0
2, 54240, Note_on_c, 0, 75, 74
2, 54360, Note_on_c, 0, 76, 64
2, 54380, Note_on_c, 0, 75, 0
2, 54480, Note_on_c, 0, 80, 74
2, 54500, Note_on_c, 0, 76, 0
2, 54600, Note_on_c, 0, 81, 69
2, 54620, Note_on_c, 0, 80, 0
2, 54720, Note_on_c, 0, 81, 0
2, 55200, Note_on_c, 0, 87, 77
2, 55320, Note_on_c, 0, 88, 67
2, 55340, Note_on_c, 0, 87, 0
2, 55440, Note_on_c, 0, 92, 75
2, 55460, Note_on_c, 0, 88, 0
2, 55560, Note_on_c, 0, 93, 67
2, 55580, Note_on_c, 0, 92, 0
2, 55680, Note_on_c, 0, 93, 0
2, 55680, Control_c, 0, 91, 127
2, 55681, Note_on_c, 0, 81, 88
2, 55681, Note_on_c, 0, 74, 79
2, 55681, Note_on_c, 0, 78, 79
2, 55920, Note_on_c, 0, 78, 0
2, 55920, Note_on_c, 0, 74, 0
2, 55920, Note_on_c, 0, 69, 72
2, 56160, Note_on_c, 0, 69, 0
2, 56160, Note_on_c, 0, 81, 0
2, 56160, Note_on_c, 0, 74, 75
2, 56160, Note_on_c, 0, 70, 75
2, 56160, Note_on_c, 0, 76, 84
2, 56400, Note_on_c, 0, 70, 0
2, 56400, Note_on_c, 0, 74, 0
2, 56400, Note_on_c, 0, 64, 70
2, 56640, Note_on_c, 0, 64, 0
2, 56640, Note_on_c, 0, 76, 0
2, 56640, Note_on_c, 0, 78, 79
2, 56640, Note_on_c, 0, 74, 79
2, 56640, Note_on_c, 0, 81, 88
2, 56880, Note_on_c, 0, 74, 0
2, 56880, Note_on_c, 0, 78, 0
2, 56880, Note_on_c, 0, 69, 74
2, 57120, Note_on_c, 0, 69, 0
2, 57120, Note_on_c, 0, 81, 0
2, 57120, Note_on_c, 0, 74, 75
2, 57120, Note_on_c, 0, 70, 75
2, 57120, Note_on_c, 0, 76, 84
2, 57360, Note_on_c, 0, 70, 0
2, 57360, Note_on_c, 0, 74, 0
2, 57360, Note_on_c, 0, 64, 70
2, 57600, Note_on_c, 0, 64, 0
2, 57600, Note_on_c, 0, 76, 0
2, 57600, Note_on_c, 0, 74, 72
2, 57660, Note_on_c, 0, 74, 0
2, 57720, Note_on_c, 0, 76, 67
2, 57780, Note_on_c, 0, 76, 0
2, 57840, Note_on_c, 0, 74, 70
2, 57900, Note_on_c, 0, 74, 0
2, 57960, Note_on_c, 0, 76, 66
2, 58020, Note_on_c, 0, 76, 0
2, 58080, Note_on_c, 0, 78, 72
2, 58200, Note_on_c, 0, 78, 0
2, 58320, Note_on_c, 0, 78, 68
2, 58440, Note_on_c, 0, 78, 0
2, 58560, Note_on_c, 0, 74, 66
2, 58560, Note_on_c, 0, 67, 66
2, 58560, Note_on_c, 0, 76, 73
2, 58800, Note_on_c, 0, 76, 0
2, 58800, Note_on_c, 0, 79, 69
2, 59040, Note_on_c, 0, 79, 0
2, 59040, Note_on_c, 0, 67, 0
2, 59040, Note_on_c, 0, 74, 0
2, 59040, Note_on_c, 0, 73, 64
2, 59040, Note_on_c, 0, 76, 72
2, 59280, Note_on_c, 0, 73, 0
2, 59280, Note_on_c, 0, 69, 68
2, 59520, Note_on_c, 0, 69, 0
2, 59520, Note_on_c, 0, 76, 0
2, 59520, Note_on_c, 0, 81, 88
2, 59520, Note_on_c, 0, 74, 79
2, 59520, Note_on_c, 0, 78, 79
2, 59760, Note_on_c, 0, 78, 0
2, 59760, Note_on_c, 0, 74, 0
2, 59760, Note_on_c, 0, 69, 73
2, 60000, Note_on_c, 0, 69, 0
2, 60000, Note_on_c, 0, 81, 0
2, 60000, Note_on_c, 0, 76, 84
2, 60000, Note_on_c, 0, 70, 75
2, 60000, Note_on_c, 0, 74, 75
2, 60240, Note_on_c, 0, 74, 0
2, 60240, Note_on_c, 0, 70, 0
2, 60240, Note_on_c, 0, 64, 70
2, 60480, Note_on_c, 0, 64, 0
2, 60480, Note_on_c, 0, 76, 0
2, 60480, Note_on_c, 0, 81, 88
2, 60480, Note_on_c, 0, 74, 79
2, 60480, Note_on_c, 0, 78, 79
2, 60720, Note_on_c, 0, 78, 0
2, 60720, Note_on_c, 0, 74, 0
2, 60720, Note_on_c, 0, 69, 73
2, 60960, Note_on_c, 0, 69, 0
2, 60960, Note_on_c, 0, 81, 0
2, 60960, Note_on_c, 0, 76, 84
2, 60960, Note_on_c, 0, 70, 75
2, 60960, Note_on_c, 0, 74, 75
2, 61200, Note_on_c, 0, 74, 0
2, 61200, Note_on_c, 0, 70, 0
2, 61200, Note_on_c, 0, 64, 69
2, 61440, Note_on_c, 0, 64, 0
2, 61440, Note_on_c, 0, 76, 0
2, 61440, Note_on_c, 0, 74, 77
2, 61500, Note_on_c, 0, 74, 0
2, 61560, Note_on_c, 0, 76, 71
2, 61620, Note_on_c, 0, 76, 0
2, 61680, Note_on_c, 0, 74, 77
2, 61740, Note_on_c, 0, 74, 0
2, 61800, Note_on_c, 0, 76, 70
2, 61860, Note_on_c, 0, 76, 0
2, 61920, Note_on_c, 0, 78, 80
2, 62040, Note_on_c, 0, 78, 0
2, 62160, Note_on_c, 0, 78, 72
2, 62280, Note_on_c, 0, 78, 0
2, 62400, Note_on_c, 0, 74, 80
2, 62400, Note_on_c, 0, 76, 80
2, 62460, Note_on_c, 0, 76, 0
2, 62460, Note_on_c, 0, 74, 0
2, 62520, Note_on_c, 0, 78, 81
2, 62580, Note_on_c, 0, 78, 0
2, 62640, Note_on_c, 0, 79, 83
2, 62700, Note_on_c, 0, 79, 0
2, 62760, Note_on_c, 0, 81, 85
2, 62820, Note_on_c, 0, 81, 0
2, 62880, Note_on_c, 0, 82, 86
2, 63120, Note_on_c, 0, 82, 0
2, 63480, Note_on_c, 0, 61, 42
2, 63480, Note_on_c, 0, 63, 42
2, 63600, Note_on_c, 0, 63, 0
2, 63600, Note_on_c, 0, 61, 0
2, 63720, Note_on_c, 0, 61, 42
2, 63720, Note_on_c, 0, 63, 42
2, 63840, Note_on_c, 0, 63, 0
2, 63840, Note_on_c, 0, 61, 0
2, 63840, Note_on_c, 0, 60, 47
2, 64080, Note_on_c, 0, 72, 42
2, 64080, Note_on_c, 0, 63, 42
2, 64320, Note_on_c, 0, 63, 0
2, 64320, Note_on_c, 0, 72, 0
2, 64320, Note_on_c, 0, 60, 0
2, 64440, Note_on_c, 0, 63, 46
2, 64440, Note_on_c, 0, 65, 46
2, 64560, Note_on_c, 0, 65, 0
2, 64560, Note_on_c, 0, 63, 0
2, 64680, Note_on_c, 0, 63, 46
2, 64680, Note_on_c, 0, 65, 46
2, 64800, Note_on_c, 0, 65, 0
2, 64800, Note_on_c, 0, 63, 0
2, 64800, Note_on_c, 0, 62, 52
2, 65040, Note_on_c, 0, 74, 47
2, 65040, Note_on_c, 0, 65, 41
2, 65280, Note_on_c, 0, 65, 0
2, 65280, Note_on_c, 0, 74, 0
2, 65280, Note_on_c, 0, 62, 0
2, 65280, Note_on_c, 0, 62, 49
2, 65520, Note_on_c, 0, 65, 38
2, 65520, Note_on_c, 0, 74, 41
2, 65520, Note_on_c, 0, 67, 38
2, 65760, Note_on_c, 0, 67, 0
2, 65760, Note_on_c, 0, 62, 0
2, 65760, Note_on_c, 0, 65, 0
2, 65760, Note_on_c, 0, 74, 0
2, 65760, Note_on_c, 0, 63, 50
2, 66000, Note_on_c, 0, 75, 43
2, 66000, Note_on_c, 0, 67, 38
2, 66240, Note_on_c, 0, 67, 0
2, 66240, Note_on_c, 0, 75, 0
2, 66240, Note_on_c, 0, 63, 0
2, 66240, Note_on_c, 0, 65, 54
2, 66480, Note_on_c, 0, 71, 38
2, 66480, Note_on_c, 0, 79, 43
2, 66720, Note_on_c, 0, 79, 0
2, 66720, Note_on_c, 0, 71, 0
2, 66720, Note_on_c, 0, 65, 0
2, 66720, Note_on_c, 0, 63, 53
2, 66960, Note_on_c, 0, 75, 45
2, 66960, Note_on_c, 0, 67, 40
2, 67200, Note_on_c, 0, 67, 0
2, 67200, Note_on_c, 0, 75, 0
2, 67200, Note_on_c, 0, 63, 0
2, 67320, Note_on_c, 0, 65, 47
2, 67320, Note_on_c, 0, 67, 47
2, 67440, Note_on_c, 0, 67, 0
2, 67440, Note_on_c, 0, 65, 0
2, 67560, Note_on_c, 0, 65, 48
2, 67560, Note_on_c, 0, 67, 48
2, 67680, Note_on_c, 0, 67, 0
2, 67680, Note_on_c, 0, 65, 0
2, 67680, Note_on_c, 0, 64, 53
2, 67920, Note_on_c, 0, 76, 48
2, 67920, Note_on_c, 0, 67, 43
2, 68160, Note_on_c, 0, 67, 0
2, 68160, Note_on_c, 0, 76, 0
2, 68160, Note_on_c, 0, 64, 0
2, 68280, Note_on_c, 0, 67, 53
2, 68280, Note_on_c, 0, 69, 53
2, 68400, Note_on_c, 0, 69, 0
2, 68400, Note_on_c, 0, 67, 0
2, 68520, Note_on_c, 0, 67, 53
2, 68520, Note_on_c, 0, 69, 53
2, 68640, Note_on_c, 0, 69, 0
2, 68640, Note_on_c, 0, 67, 0
2, 68640, Note_on_c, 0, 65, 58
2, 68880, Note_on_c, 0, 77, 53
2, 68880, Note_on_c, 0, 69, 47
2, 69120, Note_on_c, 0, 69, 0
2, 69120, Note_on_c, 0, 77, 0
2, 69120, Note_on_c, 0, 65, 0
2, 69120, Note_on_c, 0, 64, 58
2, 69360, Note_on_c, 0, 67, 44
2, 69360, Note_on_c, 0, 76, 49
2, 69360, Note_on_c, 0, 69, 44
2, 69600, Note_on_c, 0, 69, 0
2, 69600, Note_on_c, 0, 64, 0
2, 69600, Note_on_c, 0, 67, 0
2, 69600, Note_on_c, 0, 76, 0
2, 69600, Note_on_c, 0, 65, 59
2, 69840, Note_on_c, 0, 77, 52
2, 69840, Note_on_c, 0, 69, 46
2, 70080, Note_on_c, 0, 69, 0
2, 70080, Note_on_c, 0, 77, 0
2, 70080, Note_on_c, 0, 65, 0
2, 70080, Note_on_c, 0, 67, 65
2, 70320, Note_on_c, 0, 73, 46
2, 70320, Note_on_c, 0, 81, 53
2, 70560, Note_on_c, 0, 81, 0
2, 70560, Note_on_c, 0, 73, 0
2, 70560, Note_on_c, 0, 67, 0
2, 70560, Note_on_c, 0, 65, 62
2, 70800, Note_on_c, 0, 77, 55
2, 70800, Note_on_c, 0, 69, 48
2, 71040, Note_on_c, 0, 69, 0
2, 71040, Note_on_c, 0, 77, 0
2, 71040, Note_on_c, 0, 65, 0
2, 71040, Note_on_c, 0, 64, 66
2, 71280, Note_on_c, 0, 67, 50
2, 71280, Note_on_c, 0, 76, 57
2, 71280, Note_on_c, 0, 69, 50
2, 71520, Note_on_c, 0, 69, 0
2, 71520, Note_on_c, 0, 64, 0
2, 71520, Note_on_c, 0, 67, 0
2, 71520, Note_on_c, 0, 76, 0
2, 71520, Note_on_c, 0, 65, 66
2, 71760, Note_on_c, 0, 77, 57
2, 71760, Note_on_c, 0, 69, 50
2, 72000, Note_on_c, 0, 69, 0
2, 72000, Note_on_c, 0, 77, 0
2, 72000, Note_on_c, 0, 65, 0
2, 72000, Note_on_c, 0, 69, 70
2, 72240, Note_on_c, 0, 78, 50
2, 72240, Note_on_c, 0, 83, 57
2, 72480, Note_on_c, 0, 83, 0
2, 72480, Note_on_c, 0, 78, 0
2, 72480, Note_on_c, 0, 69, 0
2, 72480, Note_on_c, 0, 67, 67
2, 72720, Note_on_c, 0, 79, 59
2, 72720, Note_on_c, 0, 71, 53
2, 72960, Note_on_c, 0, 71, 0
2, 72960, Note_on_c, 0, 79, 0
2, 72960, Note_on_c, 0, 67, 0
2, 72960, Note_on_c, 0, 66, 71
2, 73200, Note_on_c, 0, 71, 57
2, 73200, Note_on_c, 0, 78, 64
2, 73200, Note_on_c, 0, 69, 57
2, 73440, Note_on_c, 0, 69, 0
2, 73440, Note_on_c, 0, 66, 0
2, 73440, Note_on_c, 0, 71, 0
2, 73440, Note_on_c, 0, 78, 0
2, 73440, Note_on_c, 0, 67, 74
2, 73680, Note_on_c, 0, 79, 64
2, 73680, Note_on_c, 0, 71, 58
2, 73920, Note_on_c, 0, 71, 0
2, 73920, Note_on_c, 0, 79, 0
2, 73920, Note_on_c, 0, 67, 0
2, 73920, Note_on_c, 0, 71, 76
2, 74160, Note_on_c, 0, 80, 58
2, 74160, Note_on_c, 0, 85, 65
2, 74400, Note_on_c, 0, 85, 0
2, 74400, Note_on_c, 0, 80, 0
2, 74400, Note_on_c, 0, 71, 0
2, 74400, Note_on_c, 0, 69, 75
2, 74640, Note_on_c, 0, 81, 67
2, 74640, Note_on_c, 0, 73, 60
2, 74880, Note_on_c, 0, 73, 0
2, 74880, Note_on_c, 0, 81, 0
2, 74880, Note_on_c, 0, 69, 0
2, 74880, Note_on_c, 0, 72, 82
2, 75120, Note_on_c, 0, 81, 60
2, 75120, Note_on_c, 0, 86, 69
2, 75360, Note_on_c, 0, 86, 0
2, 75360, Note_on_c, 0, 81, 0
2, 75360, Note_on_c, 0, 72, 0
2, 75360, Note_on_c, 0, 71, 78
2, 75600, Note_on_c, 0, 83, 72
2, 75600, Note_on_c, 0, 74, 65
2, 75840, Note_on_c, 0, 74, 0
2, 75840, Note_on_c, 0, 83, 0
2, 75840, Note_on_c, 0, 71, 0
2, 75840, Note_on_c, 0, 72, 83
2, 76080, Note_on_c, 0, 81, 61
2, 76080, Note_on_c, 0, 86, 70
2, 76320, Note_on_c, 0, 86, 0
2, 76320, Note_on_c, 0, 81, 0
2, 76320, Note_on_c, 0, 72, 0
2, 76320, Note_on_c, 0, 71, 79
2, 76560, Note_on_c, 0, 83, 70
2, 76560, Note_on_c, 0, 74, 61
2, 76800, Note_on_c, 0, 74, 0
2, 76800, Note_on_c, 0, 83, 0
2, 76800, Note_on_c, 0, 71, 0
2, 76800, Note_on_c, 0, 88, 86
2, 76860, Note_on_c, 0, 88, 0
2, 76920, Note_on_c, 0, 86, 74
2, 76980, Note_on_c, 0, 86, 0
2, 77040, Note_on_c, 0, 82, 78
2, 77100, Note_on_c, 0, 82, 0
2, 77160, Note_on_c, 0, 81, 75
2, 77220, Note_on_c, 0, 81, 0
2, 77280, Note_on_c, 0, 79, 77
2, 77400, Note_on_c, 0, 79, 0
2, 77760, Note_on_c, 0, 64, 74
2, 77820, Note_on_c, 0, 64, 0
2, 77880, Note_on_c, 0, 62, 64
2, 77940, Note_on_c, 0, 62, 0
2, 78000, Note_on_c, 0, 58, 71
2, 78060, Note_on_c, 0, 58, 0
2, 78120, Note_on_c, 0, 57, 64
2, 78180, Note_on_c, 0, 57, 0
2, 78240, Note_on_c, 0, 55, 75
2, 78360, Note_on_c, 0, 55, 0
2, 79200, Note_on_c, 0, 62, 72
2, 79200, Note_on_c, 0, 64, 72
2, 79920, Note_on_c, 0, 64, 0
2, 79920, Note_on_c, 0, 62, 0
2, 79920, Note_on_c, 0, 61, 80
2, 79920, Note_on_c, 0, 64, 80
2, 79920, Note_on_c, 0, 69, 80
2, 80100, Note_on_c, 0, 69, 0
2, 80100, Note_on_c, 0, 64, 0
2, 80100, Note_on_c, 0, 61, 0
2, 80160, Note_on_c, 0, 74, 86
2, 80160, Note_on_c, 0, 69, 86
2, 80160, Note_on_c, 0, 62, 86
2, 80400, Note_on_c, 0, 62, 0
2, 80400, Note_on_c, 0, 69, 0
2, 80400, Note_on_c, 0, 74, 0
2, 80640, Note_on_c, 0, 78, 91
2, 80640, Note_on_c, 0, 86, 91
2, 80640, Note_on_c, 0, 74, 81
2, 81120, Note_on_c, 0, 78, 0
2, 81120, Note_on_c, 0, 79, 79
2, 81600, Note_on_c, 0, 79, 0
2, 81600, Note_on_c, 0, 74, 0
2, 81600, Note_on_c, 0, 86, 0
2, 81600, Note_on_c, 0, 76, 89
2, 81600, Note_on_c, 0, 84, 89
2, 81600, Note_on_c, 0, 72, 79
2, 82080, Note_on_c, 0, 76, 0
2, 82080, Note_on_c, 0, 77, 81
2, 82560, Note_on_c, 0, 77, 0
2, 82560, Note_on_c, 0, 72, 0
2, 82560, Note_on_c, 0, 84, 0
2, 82560, Note_on_c, 0, 69, 79
2, 82560, Note_on_c, 0, 81, 89
2, 82560, Note_on_c, 0, 77, 89
2, 82920, Note_on_c, 0, 81, 0
2, 82920, Note_on_c, 0, 69, 0
2, 82920, Note_on_c, 0, 70, 64
2, 82920, Note_on_c, 0, 82, 72
2, 83040, Note_on_c, 0, 82, 0
2, 83040, Note_on_c, 0, 70, 0
2, 83040, Note_on_c, 0, 77, 0
2, 83040, Note_on_c, 0, 67, 70
2, 83040, Note_on_c, 0, 77, 79
2, 83040, Note_on_c, 0, 79, 79
2, 83280, Note_on_c, 0, 79, 0
2, 83280, Note_on_c, 0, 77, 0
2, 83280, Note_on_c, 0, 67, 0
2, 83520, Note_on_c, 0, 58, 67
2, 83520, Note_on_c, 0, 64, 75
2, 83520, Note_on_c, 0, 69, 75
2, 84000, Note_on_c, 0, 69, 0
2, 84000, Note_on_c, 0, 64, 0
2, 84000, Note_on_c, 0, 58, 0
2, 84000, Note_on_c, 0, 57, 53
2, 84000, Note_on_c, 0, 65, 60
2, 84240, Note_on_c, 0, 65, 0
2, 84240, Note_on_c, 0, 57, 0
2, 84720, Note_on_c, 0, 57, 39
2, 84720, Note_on_c, 0, 60, 44
2, 84960, Note_on_c, 0, 60, 0
2, 84960, Note_on_c, 0, 57, 0
2, 84960, Note_on_c, 0, 58, 44
2, 84960, Note_on_c, 0, 65, 49
2, 85200, Note_on_c, 0, 65, 0
2, 85200, Note_on_c, 0, 64, 40
2, 85440, Note_on_c, 0, 64, 0
2, 85440, Note_on_c, 0, 62, 41
2, 85680, Note_on_c, 0, 62, 0
2, 85680, Note_on_c, 0, 64, 38
2, 85920, Note_on_c, 0, 64, 0
2, 85920, Note_on_c, 0, 58, 0
2, 85920, Note_on_c, 0, 57, 33
2, 85920, Note_on_c, 0, 65, 37
2, 86400, Note_on_c, 0, 65, 0
2, 86400, Note_on_c, 0, 57, 0
2, 86400, Note_on_c, 0, 65, 38
2, 86400, Note_on_c, 0, 69, 38
2, 86400, Note_on_c, 0, 72, 42
2, 86640, Note_on_c, 0, 72, 0
2, 86640, Note_on_c, 0, 69, 0
2, 86640, Note_on_c, 0, 65, 0
2, 86880, Note_on_c, 0, 58, 40
2, 86880, Note_on_c, 0, 61, 45
2, 87840, Note_on_c, 0, 61, 0
2, 87840, Note_on_c, 0, 58, 0
2, 87840, Note_on_c, 0, 57, 28
2, 87840, Note_on_c, 0, 60, 31
2, 88320, Note_on_c, 0, 60, 0
2, 88320, Note_on_c, 0, 57, 0
2, 88560, Note_on_c, 0, 62, 49
2, 88800, Note_on_c, 0, 62, 0
2, 88800, Note_on_c, 0, 73, 52
2, 88800, Note_on_c, 0, 69, 52
2, 89040, Note_on_c, 0, 69, 0
2, 89040, Note_on_c, 0, 73, 0
2, 89040, Note_on_c, 0, 74, 49
2, 89280, Note_on_c, 0, 74, 0
2, 89520, Note_on_c, 0, 62, 58
2, 89760, Note_on_c, 0, 62, 0
2, 89760, Note_on_c, 0, 70, 61
2, 89760, Note_on_c, 0, 73, 61
2, 90000, Note_on_c, 0, 73, 0
2, 90000, Note_on_c, 0, 70, 0
2, 90000, Note_on_c, 0, 74, 58
2, 90240, Note_on_c, 0, 74, 0
2, 90480, Note_on_c, 0, 64, 66
2, 90720, Note_on_c, 0, 64, 0
2, 90720, Note_on_c, 0, 75, 74
2, 90720, Note_on_c, 0, 71, 74
2, 90960, Note_on_c, 0, 71, 0
2, 90960, Note_on_c, 0, 75, 0
2, 90960, Note_on_c, 0, 76, 68
2, 91200, Note_on_c, 0, 76, 0
2, 91440, Note_on_c, 0, 64, 80
2, 91680, Note_on_c, 0, 64, 0
2, 91680, Note_on_c, 0, 75, 84
2, 91680, Note_on_c, 0, 69, 84
2, 91680, Note_on_c, 0, 73, 84
2, 91920, Note_on_c, 0, 73, 0
2, 91920, Note_on_c, 0, 69, 0
2, 91920, Note_on_c, 0, 75, 0
2, 91920, Note_on_c, 0, 76, 80
2, 92160, Note_on_c, 0, 76, 0
2, 92160, Note_on_c, 0, 78, 91
2, 92160, Note_on_c, 0, 86, 91
2, 92160, Note_on_c, 0, 74, 81
2, 92640, Note_on_c, 0, 78, 0
2, 92640, Note_on_c, 0, 79, 83
2, 93120, Note_on_c, 0, 79, 0
2, 93120, Note_on_c, 0, 74, 0
2, 93120, Note_on_c, 0, 86, 0
2, 93120, Note_on_c, 0, 76, 89
2, 93120, Note_on_c, 0, 84, 89
2, 93120, Note_on_c, 0, 72, 79
2, 93600, Note_on_c, 0, 76, 0
2, 93600, Note_on_c, 0, 77, 79
2, 94080, Note_on_c, 0, 77, 0
2, 94080, Note_on_c, 0, 72, 0
2, 94080, Note_on_c, 0, 84, 0
2, 94080, Note_on_c, 0, 69, 79
2, 94080, Note_on_c, 0, 81, 89
2, 94080, Note_on_c, 0, 77, 89
2, 94440, Note_on_c, 0, 81, 0
2, 94440, Note_on_c, 0, 69, 0
2, 94440, Note_on_c, 0, 70, 64
2, 94440, Note_on_c, 0, 82, 72
2, 94560, Note_on_c, 0, 82, 0
2, 94560, Note_on_c, 0, 70, 0
2, 94560, Note_on_c, 0, 77, 0
2, 94560, Note_on_c, 0, 67, 70
2, 94560, Note_on_c, 0, 77, 79
2, 94560, Note_on_c, 0, 79, 79
2, 94800, Note_on_c, 0, 79, 0
2, 94800, Note_on_c, 0, 77, 0
2, 94800, Note_on_c, 0, 67, 0
2, 95040, Note_on_c, 0, 58, 67
2, 95040, Note_on_c, 0, 64, 75
2, 95040, Note_on_c, 0, 69, 75
2, 95520, Note_on_c, 0, 69, 0
2, 95520, Note_on_c, 0, 64, 0
2, 95520, Note_on_c, 0, 58, 0
2, 95520, Note_on_c, 0, 57, 53
2, 95520, Note_on_c, 0, 65, 60
2, 95760, Note_on_c, 0, 65, 0
2, 95760, Note_on_c, 0, 57, 0
2, 96240, Note_on_c, 0, 57, 39
2, 96240, Note_on_c, 0, 60, 44
2, 96480, Note_on_c, 0, 60, 0
2, 96480, Note_on_c, 0, 57, 0
2, 96480, Note_on_c, 0, 58, 44
2, 96480, Note_on_c, 0, 65, 49
2, 96720, Note_on_c, 0, 65, 0
2, 96720, Note_on_c, 0, 64, 40
2, 96960, Note_on_c, 0, 64, 0
2, 96960, Note_on_c, 0, 62, 41
2, 97200, Note_on_c, 0, 62, 0
2, 97200, Note_on_c, 0, 64, 38
2, 97440, Note_on_c, 0, 64, 0
2, 97440, Note_on_c, 0, 58, 0
2, 97440, Note_on_c, 0, 57, 33
2, 97440, Note_on_c, 0, 65, 37
2, 97920, Note_on_c, 0, 65, 0
2, 97920, Note_on_c, 0, 57, 0
2, 97920, Note_on_c, 0, 65, 38
2, 97920, Note_on_c, 0, 69, 38
2, 97920, Note_on_c, 0, 72, 42
2, 98160, Note_on_c, 0, 72, 0
2, 98160, Note_on_c, 0, 69, 0
2, 98160, Note_on_c, 0, 65, 0
2, 98400, Note_on_c, 0, 58, 40
2, 98400, Note_on_c, 0, 61, 45
2, 99360, Note_on_c, 0, 61, 0
2, 99360, Note_on_c, 0, 58, 0
2, 99360, Note_on_c, 0, 57, 28
2, 99360, Note_on_c, 0, 60, 31
2, 99840, Note_on_c, 0, 60, 0
2, 99840, Note_on_c, 0, 57, 0
2, 100080, Note_on_c, 0, 62, 48
2, 100320, Note_on_c, 0, 62, 0
2, 100320, Note_on_c, 0, 73, 50
2, 100320, Note_on_c, 0, 69, 50
2, 100560, Note_on_c, 0, 69, 0
2, 100560, Note_on_c, 0, 73, 0
2, 100560, Note_on_c, 0, 74, 48
2, 100800, Note_on_c, 0, 74, 0
2, 101040, Note_on_c, 0, 62, 56
2, 101280, Note_on_c, 0, 62, 0
2, 101280, Note_on_c, 0, 70, 59
2, 101280, Note_on_c, 0, 73, 59
2, 101520, Note_on_c, 0, 73, 0
2, 101520, Note_on_c, 0, 70, 0
2, 101520, Note_on_c, 0, 74, 57
2, 101760, Note_on_c, 0, 74, 0
2, 102000, Note_on_c, 0, 64, 64
2, 102240, Note_on_c, 0, 64, 0
2, 102240, Note_on_c, 0, 75, 69
2, 102240, Note_on_c, 0, 71, 69
2, 102480, Note_on_c, 0, 71, 0
2, 102480, Note_on_c, 0, 75, 0
2, 102480, Note_on_c, 0, 76, 66
2, 102720, Note_on_c, 0, 76, 0
2, 102960, Note_on_c, 0, 64, 71
2, 103200, Note_on_c, 0, 64, 0
2, 103200, Note_on_c, 0, 75, 78
2, 103200, Note_on_c, 0, 69, 78
2, 103200, Note_on_c, 0, 73, 78
2, 103440, Note_on_c, 0, 73, 0
2, 103440, Note_on_c, 0, 69, 0
2, 103440, Note_on_c, 0, 75, 0
2, 103440, Note_on_c, 0, 76, 72
2, 103680, Note_on_c, 0, 76, 0
2, 103680, Note_on_c, 0, 85, 89
2, 103680, Note_on_c, 0, 89, 79
2, 103680, Note_on_c, 0, 77, 75
2, 104160, Note_on_c, 0, 85, 0
2, 104160, Note_on_c, 0, 86, 89
2, 104640, Note_on_c, 0, 86, 0
2, 104640, Note_on_c, 0, 77, 0
2, 104640, Note_on_c, 0, 89, 0
2, 104640, Note_on_c, 0, 75, 89
2, 104640, Note_on_c, 0, 79, 89
2, 104640, Note_on_c, 0, 67, 79
2, 105120, Note_on_c, 0, 75, 0
2, 105120, Note_on_c, 0, 76, 85
2, 105600, Note_on_c, 0, 76, 0
2, 105600, Note_on_c, 0, 67, 0
2, 105600, Note_on_c, 0, 79, 0
2, 105600, Note_on_c, 0, 72, 79
2, 105600, Note_on_c, 0, 84, 89
2, 105600, Note_on_c, 0, 80, 81
2, 105960, Note_on_c, 0, 84, 0
2, 105960, Note_on_c, 0, 72, 0
2, 105960, Note_on_c, 0, 71, 64
2, 105960, Note_on_c, 0, 83, 72
2, 106080, Note_on_c, 0, 83, 0
2, 106080, Note_on_c, 0, 71, 0
2, 106080, Note_on_c, 0, 80, 0
2, 106080, Note_on_c, 0, 69, 70
2, 106080, Note_on_c, 0, 81, 79
2, 106320, Note_on_c, 0, 81, 0
2, 106320, Note_on_c, 0, 69, 0
2, 106560, Note_on_c, 0, 65, 79
2, 106560, Note_on_c, 0, 77, 89
2, 106560, Note_on_c, 0, 73, 81
2, 106920, Note_on_c, 0, 77, 0
2, 106920, Note_on_c, 0, 65, 0
2, 106920, Note_on_c, 0, 64, 64
2, 106920, Note_on_c, 0, 76, 72
2, 107040, Note_on_c, 0, 76, 0
2, 107040, Note_on_c, 0, 64, 0
2, 107040, Note_on_c, 0, 73, 0
2, 107040, Note_on_c, 0, 62, 70
2, 107040, Note_on_c, 0, 74, 79
2, 107280, Note_on_c, 0, 74, 0
2, 107280, Note_on_c, 0, 62, 0
2, 107760, Note_on_c, 0, 62, 44
2, 108000, Note_on_c, 0, 62, 0
2, 108000, Note_on_c, 0, 60, 44
2, 108000, Note_on_c, 0, 67, 49
2, 108240, Note_on_c, 0, 67, 0
2, 108240, Note_on_c, 0, 66, 40
2, 108480, Note_on_c, 0, 66, 0
2, 108480, Note_on_c, 0, 64, 41
2, 108720, Note_on_c, 0, 64, 0
2, 108720, Note_on_c, 0, 66, 38
2, 108960, Note_on_c, 0, 66, 0
2, 108960, Note_on_c, 0, 60, 0
2, 108960, Note_on_c, 0, 58, 33
2, 108960, Note_on_c, 0, 62, 33
2, 108960, Note_on_c, 0, 67, 37
2, 109200, Note_on_c, 0, 67, 0
2, 109200, Note_on_c, 0, 62, 0
2, 109200, Note_on_c, 0, 58, 0
2, 109680, Note_on_c, 0, 74, 44
2, 109920, Note_on_c, 0, 74, 0
2, 109920, Note_on_c, 0, 72, 44
2, 109920, Note_on_c, 0, 79, 49
2, 110160, Note_on_c, 0, 79, 0
2, 110160, Note_on_c, 0, 78, 40
2, 110400, Note_on_c, 0, 78, 0
2, 110400, Note_on_c, 0, 76, 41
2, 110640, Note_on_c, 0, 76, 0
2, 110640, Note_on_c, 0, 78, 38
2, 110880, Note_on_c, 0, 78, 0
2, 110880, Note_on_c, 0, 72, 0
2, 110880, Note_on_c, 0, 70, 33
2, 110880, Note_on_c, 0, 74, 33
2, 110880, Note_on_c, 0, 79, 37
2, 111120, Note_on_c, 0, 79, 0
2, 111120, Note_on_c, 0, 74, 0
2, 111120, Note_on_c, 0, 70, 0
2, 111360, Note_on_c, 0, 87, 91
2, 111360, Note_on_c, 0, 91, 85
2, 111360, Note_on_c, 0, 79, 81
2, 111840, Note_on_c, 0, 87, 0
2, 111840, Note_on_c, 0, 88, 86
2, 112320, Note_on_c, 0, 88, 0
2, 112320, Note_on_c, 0, 79, 0
2, 112320, Note_on_c, 0, 91, 0
2, 112320, Note_on_c, 0, 77, 89
2, 112320, Note_on_c, 0, 81, 89
2, 112320, Note_on_c, 0, 69, 79
2, 112800, Note_on_c, 0, 77, 0
2, 112800, Note_on_c, 0, 78, 85
2, 113280, Note_on_c, 0, 78, 0
2, 113280, Note_on_c, 0, 69, 0
2, 113280, Note_on_c, 0, 81, 0
2, 113280, Note_on_c, 0, 74, 79
2, 113280, Note_on_c, 0, 86, 89
2, 113280, Note_on_c, 0, 82, 81
2, 113640, Note_on_c, 0, 86, 0
2, 113640, Note_on_c, 0, 74, 0
2, 113640, Note_on_c, 0, 73, 64
2, 113640, Note_on_c, 0, 85, 72
2, 113760, Note_on_c, 0, 85, 0
2, 113760, Note_on_c, 0, 73, 0
2, 113760, Note_on_c, 0, 82, 0
2, 113760, Note_on_c, 0, 71, 70
2, 113760, Note_on_c, 0, 83, 79
2, 114000, Note_on_c, 0, 83, 0
2, 114000, Note_on_c, 0, 71, 0
2, 114240, Note_on_c, 0, 67, 79
2, 114240, Note_on_c, 0, 79, 89
2, 114240, Note_on_c, 0, 75, 81
2, 114600, Note_on_c, 0, 79, 0
2, 114600, Note_on_c, 0, 67, 0
2, 114600, Note_on_c, 0, 66, 64
2, 114600, Note_on_c, 0, 78, 72
2, 114720, Note_on_c, 0, 78, 0
2, 114720, Note_on_c, 0, 66, 0
2, 114720, Note_on_c, 0, 75, 0
2, 114720, Note_on_c, 0, 64, 70
2, 114720, Note_on_c, 0, 76, 79
2, 114960, Note_on_c, 0, 76, 0
2, 114960, Note_on_c, 0, 64, 0
2, 115440, Note_on_c, 0, 64, 44
2, 115680, Note_on_c, 0, 64, 0
2, 115680, Note_on_c, 0, 62, 44
2, 115680, Note_on_c, 0, 69, 49
2, 115920, Note_on_c, 0, 69, 0
2, 115920, Note_on_c, 0, 68, 40
2, 116160, Note_on_c, 0, 68, 0
2, 116160, Note_on_c, 0, 66, 41
2, 116400, Note_on_c, 0, 66, 0
2, 116400, Note_on_c, 0, 68, 38
2, 116640, Note_on_c, 0, 68, 0
2, 116640, Note_on_c, 0, 62, 0
2, 116640, Note_on_c, 0, 60, 33
2, 116640, Note_on_c, 0, 64, 33
2, 116640, Note_on_c, 0, 69, 37
2, 116880, Note_on_c, 0, 69, 0
2, 116880, Note_on_c, 0, 64, 0
2, 116880, Note_on_c, 0, 60, 0
2, 117360, Note_on_c, 0, 76, 44
2, 117600, Note_on_c, 0, 76, 0
2, 117600, Note_on_c, 0, 74, 44
2, 117600, Note_on_c, 0, 81, 49
2, 117840, Note_on_c, 0, 81, 0
2, 117840, Note_on_c, 0, 80, 40
2, 118080, Note_on_c, 0, 80, 0
2, 118080, Note_on_c, 0, 78, 41
2, 118320, Note_on_c, 0, 78, 0
2, 118320, Note_on_c, 0, 80, 38
2, 118560, Note_on_c, 0, 80, 0
2, 118560, Note_on_c, 0, 74, 0
2, 118560, Note_on_c, 0, 72, 33
2, 118560, Note_on_c, 0, 76, 33
2, 118560, Note_on_c, 0, 81, 37
2, 118800, Note_on_c, 0, 81, 0
2, 118800, Note_on_c, 0, 76, 0
2, 118800, Note_on_c, 0, 72, 0
2, 119160, Note_on_c, 0, 76, 49
2, 119280, Note_on_c, 0, 76, 0
2, 119280, Note_on_c, 0, 81, 53
2, 119400, Note_on_c, 0, 81, 0
2, 119400, Note_on_c, 0, 88, 49
2, 119520, Note_on_c, 0, 88, 0
2, 119520, Note_on_c, 0, 80, 50
2, 119520, Note_on_c, 0, 74, 50
2, 119520, Note_on_c, 0, 76, 50
2, 120000, Note_on_c, 0, 76, 0
2, 120000, Note_on_c, 0, 74, 0
2, 120000, Note_on_c, 0, 80, 0
2, 120120, Note_on_c, 0, 72, 49
2, 120240, Note_on_c, 0, 72, 0
2, 120240, Note_on_c, 0, 76, 53
2, 120360, Note_on_c, 0, 76, 0
2, 120360, Note_on_c, 0, 81, 49
2, 120480, Note_on_c, 0, 81, 0
2, 120480, Note_on_c, 0, 76, 50
2, 120480, Note_on_c, 0, 71, 50
2, 120480, Note_on_c, 0, 74, 50
2, 120960, Note_on_c, 0, 74, 0
2, 120960, Note_on_c, 0, 71, 0
2, 120960, Note_on_c, 0, 76, 0
2, 121080, Note_on_c, 0, 76, 49
2, 121200, Note_on_c, 0, 76, 0
2, 121200, Note_on_c, 0, 81, 53
2, 121320, Note_on_c, 0, 81, 0
2, 121320, Note_on_c, 0, 88, 49
2, 121440, Note_on_c, 0, 88, 0
2, 121440, Note_on_c, 0, 80, 50
2, 121440, Note_on_c, 0, 74, 50
2, 121440, Note_on_c, 0, 76, 50
2, 121920, Note_on_c, 0, 76, 0
2, 121920, Note_on_c, 0, 74, 0
2, 121920, Note_on_c, 0, 80, 0
2, 122040, Note_on_c, 0, 72, 49
2, 122160, Note_on_c, 0, 72, 0
2, 122160, Note_on_c, 0, 76, 53
2, 122280, Note_on_c, 0, 76, 0
2, 122280, Note_on_c, 0, 81, 49
2, 122400, Note_on_c, 0, 81, 0
2, 122400, Note_on_c, 0, 76, 50
2, 122400, Note_on_c, 0, 71, 50
2, 122400, Note_on_c, 0, 74, 50
2, 122880, Note_on_c, 0, 74, 0
2, 122880, Note_on_c, 0, 71, 0
2, 122880, Note_on_c, 0, 76, 0
2, 122880, Note_on_c, 0, 81, 56
2, 123000, Note_on_c, 0, 81, 0
2, 123000, Note_on_c, 0, 88, 46
2, 123120, Note_on_c, 0, 88, 0
2, 123120, Note_on_c, 0, 90, 52
2, 123240, Note_on_c, 0, 90, 0
2, 123240, Note_on_c, 0, 88, 48
2, 123360, Note_on_c, 0, 88, 0
2, 123360, Note_on_c, 0, 80, 56
2, 123480, Note_on_c, 0, 80, 0
2, 123480, Note_on_c, 0, 88, 46
2, 123600, Note_on_c, 0, 88, 0
2, 123600, Note_on_c, 0, 90, 53
2, 123720, Note_on_c, 0, 90, 0
2, 123720, Note_on_c, 0, 88, 48
2, 123840, Note_on_c, 0, 88, 0
2, 123840, Note_on_c, 0, 83, 56
2, 123960, Note_on_c, 0, 83, 0
2, 123960, Note_on_c, 0, 88, 46
2, 124080, Note_on_c, 0, 88, 0
2, 124080, Note_on_c, 0, 90, 52
2, 124200, Note_on_c, 0, 90, 0
2, 124200, Note_on_c, 0, 88, 48
2, 124320, Note_on_c, 0, 88, 0
2, 124320, Note_on_c, 0, 85, 56
2, 124440, Note_on_c, 0, 85, 0
2, 124440, Note_on_c, 0, 88, 46
2, 124560, Note_on_c, 0, 88, 0
2, 124560, Note_on_c, 0, 90, 53
2, 124680, Note_on_c, 0, 90, 0
2, 124680, Note_on_c, 0, 88, 48
2, 124800, Note_on_c, 0, 88, 0
2, 124800, Note_on_c, 0, 69, 56
2, 124920, Note_on_c, 0, 69, 0
2, 124920, Note_on_c, 0, 76, 46
2, 125040, Note_on_c, 0, 76, 0
2, 125040, Note_on_c, 0, 78, 52
2, 125160, Note_on_c, 0, 78, 0
2, 125160, Note_on_c, 0, 76, 48
2, 125280, Note_on_c, 0, 76, 0
2, 125280, Note_on_c, 0, 68, 56
2, 125400, Note_on_c, 0, 68, 0
2, 125400, Note_on_c, 0, 76, 46
2, 125520, Note_on_c, 0, 76, 0
2, 125520, Note_on_c, 0, 78, 53
2, 125640, Note_on_c, 0, 78, 0
2, 125640, Note_on_c, 0, 76, 48
2, 125760, Note_on_c, 0, 76, 0
2, 125760, Note_on_c, 0, 71, 56
2, 125880, Note_on_c, 0, 71, 0
2, 125880, Note_on_c, 0, 76, 46
2, 126000, Note_on_c, 0, 76, 0
2, 126000, Note_on_c, 0, 78, 52
2, 126120, Note_on_c, 0, 78, 0
2, 126120, Note_on_c, 0, 76, 48
2, 126240, Note_on_c, 0, 76, 0
2, 126240, Note_on_c, 0, 73, 56
2, 126360, Note_on_c, 0, 73, 0
2, 126360, Note_on_c, 0, 76, 46
2, 126480, Note_on_c, 0, 76, 0
2, 126480, Note_on_c, 0, 78, 53
2, 126600, Note_on_c, 0, 78, 0
2, 126600, Note_on_c, 0, 76, 48
2, 126720, Note_on_c, 0, 76, 0
2, 126720, Note_on_c, 0, 66, 70
2, 126720, Note_on_c, 0, 69, 58
2, 126840, Note_on_c, 0, 73, 48
2, 126860, Note_on_c, 0, 69, 0
2, 126960, Note_on_c, 0, 74, 55
2, 126980, Note_on_c, 0, 73, 0
2, 127080, Note_on_c, 0, 73, 50
2, 127100, Note_on_c, 0, 74, 0
2, 127200, Note_on_c, 0, 73, 0
2, 127200, Note_on_c, 0, 66, 0
2, 127200, Note_on_c, 0, 65, 64
2, 127320, Note_on_c, 0, 65, 0
2, 127320, Note_on_c, 0, 69, 48
2, 127440, Note_on_c, 0, 64, 62
2, 127440, Note_on_c, 0, 73, 56
2, 127460, Note_on_c, 0, 69, 0
2, 127560, Note_on_c, 0, 64, 0
2, 127560, Note_on_c, 0, 69, 50
2, 127580, Note_on_c, 0, 73, 0
2, 127680, Note_on_c, 0, 69, 0
2, 127680, Note_on_c, 0, 62, 64
2, 127800, Note_on_c, 0, 62, 0
2, 127800, Note_on_c, 0, 64, 48
2, 127920, Note_on_c, 0, 69, 48
2, 127920, Note_on_c, 0, 61, 61
2, 127940, Note_on_c, 0, 64, 0
2, 128040, Note_on_c, 0, 61, 0
2, 128040, Note_on_c, 0, 64, 50
2, 128060, Note_on_c, 0, 69, 0
2, 128160, Note_on_c, 0, 64, 0
2, 128160, Note_on_c, 0, 61, 58
2, 128280, Note_on_c, 0, 61, 0
2, 128280, Note_on_c, 0, 64, 48
2, 128400, Note_on_c, 0, 66, 55
2, 128420, Note_on_c, 0, 64, 0
2, 128520, Note_on_c, 0, 64, 50
2, 128540, Note_on_c, 0, 66, 0
2, 128640, Note_on_c, 0, 64, 0
2, 132960, Note_on_c, 0, 51, 69
2, 133080, Note_on_c, 0, 52, 61
2, 133100, Note_on_c, 0, 51, 0
2, 133200, Note_on_c, 0, 56, 66
2, 133220, Note_on_c, 0, 52, 0
2, 133320, Note_on_c, 0, 57, 59
2, 133340, Note_on_c, 0, 56, 0
2, 133440, Note_on_c, 0, 57, 0
2, 133920, Note_on_c, 0, 63, 72
2, 134040, Note_on_c, 0, 64, 63
2, 134060, Note_on_c, 0, 63, 0
2, 134160, Note_on_c, 0, 68, 69
2, 134180, Note_on_c, 0, 64, 0
2, 134280, Note_on_c, 0, 69, 64
2, 134300, Note_on_c, 0, 68, 0
2, 134400, Note_on_c, 0, 69, 0
2, 134880, Note_on_c, 0, 75, 75
2, 135000, Note_on_c, 0, 76, 64
2, 135020, Note_on_c, 0, 75, 0
2, 135120, Note_on_c, 0, 80, 72
2, 135140, Note_on_c, 0, 76, 0
2, 135240, Note_on_c, 0, 81, 64
2, 135260, Note_on_c, 0, 80, 0
2, 135360, Note_on_c, 0, 81, 0
2, 135840, Note_on_c, 0, 87, 79
2, 135960, Note_on_c, 0, 88, 71
2, 135980, Note_on_c, 0, 87, 0
2, 136080, Note_on_c, 0, 92, 77
2, 136100, Note_on_c, 0, 88, 0
2, 136200, Note_on_c, 0, 93, 72
2, 136220, Note_on_c, 0, 92, 0
2, 136320, Note_on_c, 0, 93, 0
2, 136320, Control_c, 0, 91, 127
2, 136321, Note_on_c, 0, 78, 79
2, 136321, Note_on_c, 0, 74, 79
2, 136321, Note_on_c, 0, 81, 88
2, 136560, Note_on_c, 0, 74, 0
2, 136560, Note_on_c, 0, 78, 0
2, 136560, Note_on_c, 0, 69, 74
2, 136800, Note_on_c, 0, 69, 0
2, 136800, Note_on_c, 0, 81, 0
2, 136800, Note_on_c, 0, 76, 84
2, 136800, Note_on_c, 0, 70, 75
2, 136800, Note_on_c, 0, 74, 75
2, 137040, Note_on_c, 0, 74, 0
2, 137040, Note_on_c, 0, 70, 0
2, 137040, Note_on_c, 0, 64, 69
2, 137280, Note_on_c, 0, 64, 0
2, 137280, Note_on_c, 0, 76, 0
2, 137280, Note_on_c, 0, 81, 88
2, 137280, Note_on_c, 0, 74, 79
2, 137280, Note_on_c, 0, 78, 79
2, 137520, Note_on_c, 0, 78, 0
2, 137520, Note_on_c, 0, 74, 0
2, 137520, Note_on_c, 0, 69, 74
2, 137760, Note_on_c, 0, 69, 0
2, 137760, Note_on_c, 0, 81, 0
2, 137760, Note_on_c, 0, 76, 84
2, 137760, Note_on_c, 0, 70, 75
2, 137760, Note_on_c, 0, 74, 75
2, 138000, Note_on_c, 0, 74, 0
2, 138000, Note_on_c, 0, 70, 0
2, 138000, Note_on_c, 0, 64, 74
2, 138240, Note_on_c, 0, 64, 0
2, 138240, Note_on_c, 0, 76, 0
2, 138240, Note_on_c, 0, 74, 72
2, 138300, Note_on_c, 0, 74, 0
2, 138360, Note_on_c, 0, 76, 62
2, 138420, Note_on_c, 0, 76, 0
2, 138480, Note_on_c, 0, 74, 69
2, 138540, Note_on_c, 0, 74, 0
2, 138600, Note_on_c, 0, 76, 63
2, 138660, Note_on_c, 0, 76, 0
2, 138720, Note_on_c, 0, 78, 72
2, 138840, Note_on_c, 0, 78, 0
2, 138960, Note_on_c, 0, 78, 68
2, 139080, Note_on_c, 0, 78, 0
2, 139200, Note_on_c, 0, 74, 66
2, 139200, Note_on_c, 0, 67, 66
2, 139200, Note_on_c, 0, 76, 73
2, 139440, Note_on_c, 0, 76, 0
2, 139440, Note_on_c, 0, 79, 69
2, 139680, Note_on_c, 0, 79, 0
2, 139680, Note_on_c, 0, 67, 0
2, 139680, Note_on_c, 0, 74, 0
2, 139680, Note_on_c, 0, 73, 64
2, 139680, Note_on_c, 0, 76, 72
2, 139920, Note_on_c, 0, 73, 0
2, 139920, Note_on_c, 0, 69, 68
2, 140160, Note_on_c, 0, 69, 0
2, 140160, Note_on_c, 0, 76, 0
2, 140160, Note_on_c, 0, 81, 88
2, 140160, Note_on_c, 0, 74, 79
2, 140160, Note_on_c, 0, 78, 79
2, 140400, Note_on_c, 0, 78, 0
2, 140400, Note_on_c, 0, 74, 0
2, 140400, Note_on_c, 0, 69, 74
2, 140640, Note_on_c, 0, 69, 0
2, 140640, Note_on_c, 0, 81, 0
2, 140640, Note_on_c, 0, 76, 84
2, 140640, Note_on_c, 0, 70, 75
2, 140640, Note_on_c, 0, 74, 75
2, 140880, Note_on_c, 0, 74, 0
2, 140880, Note_on_c, 0, 70, 0
2, 140880, Note_on_c, 0, 64, 70
2, 141120, Note_on_c, 0, 64, 0
2, 141120, Note_on_c, 0, 76, 0
2, 141120, Note_on_c, 0, 81, 88
2, 141120, Note_on_c, 0, 74, 79
2, 141120, Note_on_c, 0, 78, 79
2, 141360, Note_on_c, 0, 78, 0
2, 141360, Note_on_c, 0, 74, 0
2, 141360, Note_on_c, 0, 69, 74
2, 141600, Note_on_c, 0, 69, 0
2, 141600, Note_on_c, 0, 81, 0
2, 141600, Note_on_c, 0, 76, 84
2, 141600, Note_on_c, 0, 70, 75
2, 141600, Note_on_c, 0, 74, 75
2, 141840, Note_on_c, 0, 74, 0
2, 141840, Note_on_c, 0, 70, 0
2, 141840, Note_on_c, 0, 64, 71
2, 142080, Note_on_c, 0, 64, 0
2, 142080, Note_on_c, 0, 76, 0
2, 142080, Note_on_c, 0, 74, 77
2, 142140, Note_on_c, 0, 74, 0
2, 142200, Note_on_c, 0, 76, 72
2, 142260, Note_on_c, 0, 76, 0
2, 142320, Note_on_c, 0, 74, 77
2, 142380, Note_on_c, 0, 74, 0
2, 142440, Note_on_c, 0, 76, 71
2, 142500, Note_on_c, 0, 76, 0
2, 142560, Note_on_c, 0, 78, 80
2, 142680, Note_on_c, 0, 78, 0
2, 142800, Note_on_c, 0, 78, 72
2, 142920, Note_on_c, 0, 78, 0
2, 143040, Note_on_c, 0, 74, 80
2, 143040, Note_on_c, 0, 76, 80
2, 143100, Note_on_c, 0, 76, 0
2, 143100, Note_on_c, 0, 74, 0
2, 143160, Note_on_c, 0, 78, 81
2, 143220, Note_on_c, 0, 78, 0
2, 143280, Note_on_c, 0, 79, 83
2, 143340, Note_on_c, 0, 79, 0
2, 143400, Note_on_c, 0, 81, 85
2, 143460, Note_on_c, 0, 81, 0
2, 143520, Note_on_c, 0, 82, 86
2, 143760, Note_on_c, 0, 82, 0
2, 144120, Note_on_c, 0, 61, 42
2, 144120, Note_on_c, 0, 63, 42
2, 144240, Note_on_c, 0, 63, 0
2, 144240, Note_on_c, 0, 61, 0
2, 144360, Note_on_c, 0, 61, 42
2, 144360, Note_on_c, 0, 63, 42
2, 144480, Note_on_c, 0, 63, 0
2, 144480, Note_on_c, 0, 61, 0
2, 144480, Note_on_c, 0, 60, 47
2, 144720, Note_on_c, 0, 72, 42
2, 144720, Note_on_c, 0, 63, 42
2, 144960, Note_on_c, 0, 63, 0
2, 144960, Note_on_c, 0, 72, 0
2, 144960, Note_on_c, 0, 60, 0
2, 145080, Note_on_c, 0, 63, 46
2, 145080, Note_on_c, 0, 65, 46
2, 145200, Note_on_c, 0, 65, 0
2, 145200, Note_on_c, 0, 63, 0
2, 145320, Note_on_c, 0, 63, 46
2, 145320, Note_on_c, 0, 65, 46
2, 145440, Note_on_c, 0, 65, 0
2, 145440, Note_on_c, 0, 63, 0
2, 145440, Note_on_c, 0, 62, 52
2, 145680, Note_on_c, 0, 74, 47
2, 145680, Note_on_c, 0, 65, 41
2, 145920, Note_on_c, 0, 65, 0
2, 145920, Note_on_c, 0, 74, 0
2, 145920, Note_on_c, 0, 62, 0
2, 145920, Note_on_c, 0, 62, 49
2, 146160, Note_on_c, 0, 67, 38
2, 146160, Note_on_c, 0, 74, 41
2, 146160, Note_on_c, 0, 65, 38
2, 146400, Note_on_c, 0, 65, 0
2, 146400, Note_on_c, 0, 62, 0
2, 146400, Note_on_c, 0, 67, 0
2, 146400, Note_on_c, 0, 74, 0
2, 146400, Note_on_c, 0, 63, 50
2, 146640, Note_on_c, 0, 75, 43
2, 146640, Note_on_c, 0, 67, 38
2, 146880, Note_on_c, 0, 67, 0
2, 146880, Note_on_c, 0, 75, 0
2, 146880, Note_on_c, 0, 63, 0
2, 146880, Note_on_c, 0, 65, 54
2, 147120, Note_on_c, 0, 71, 38
2, 147120, Note_on_c, 0, 79, 43
2, 147360, Note_on_c, 0, 79, 0
2, 147360, Note_on_c, 0, 71, 0
2, 147360, Note_on_c, 0, 65, 0
2, 147360, Note_on_c, 0, 63, 53
2, 147600, Note_on_c, 0, 75, 45
2, 147600, Note_on_c, 0, 67, 40
2, 147840, Note_on_c, 0, 67, 0
2, 147840, Note_on_c, 0, 75, 0
2, 147840, Note_on_c, 0, 63, 0
2, 147960, Note_on_c, 0, 65, 47
2, 147960, Note_on_c, 0, 67, 47
2, 148080, Note_on_c, 0, 67, 0
2, 148080, Note_on_c, 0, 65, 0
2, 148200, Note_on_c, 0, 65, 48
2, 148200, Note_on_c, 0, 67, 48
2, 148320, Note_on_c, 0, 67, 0
2, 148320, Note_on_c, 0, 65, 0
2, 148320, Note_on_c, 0, 64, 53
2, 148560, Note_on_c, 0, 76, 48
2, 148560, Note_on_c, 0, 67, 43
2, 148800, Note_on_c, 0, 67, 0
2, 148800, Note_on_c, 0, 76, 0
2, 148800, Note_on_c, 0, 64, 0
2, 148920, Note_on_c, 0, 67, 53
2, 148920, Note_on_c, 0, 69, 53
2, 149040, Note_on_c, 0, 69, 0
2, 149040, Note_on_c, 0, 67, 0
2, 149160, Note_on_c, 0, 67, 53
2, 149160, Note_on_c, 0, 69, 53
2, 149280, Note_on_c, 0, 69, 0
2, 149280, Note_on_c, 0, 67, 0
2, 149280, Note_on_c, 0, 65, 58
2, 149520, Note_on_c, 0, 77, 53
2, 149520, Note_on_c, 0, 69, 47
2, 149760, Note_on_c, 0, 69, 0
2, 149760, Note_on_c, 0, 77, 0
2, 149760, Note_on_c, 0, 65, 0
2, 149760, Note_on_c, 0, 64, 58
2, 150000, Note_on_c, 0, 69, 44
2, 150000, Note_on_c, 0, 76, 49
2, 150000, Note_on_c, 0, 67, 44
2, 150240, Note_on_c, 0, 67, 0
2, 150240, Note_on_c, 0, 64, 0
2, 150240, Note_on_c, 0, 69, 0
2, 150240, Note_on_c, 0, 76, 0
2, 150240, Note_on_c, 0, 65, 59
2, 150480, Note_on_c, 0, 77, 52
2, 150480, Note_on_c, 0, 69, 46
2, 150720, Note_on_c, 0, 69, 0
2, 150720, Note_on_c, 0, 77, 0
2, 150720, Note_on_c, 0, 65, 0
2, 150720, Note_on_c, 0, 67, 65
2, 150960, Note_on_c, 0, 73, 46
2, 150960, Note_on_c, 0, 81, 53
2, 151200, Note_on_c, 0, 81, 0
2, 151200, Note_on_c, 0, 73, 0
2, 151200, Note_on_c, 0, 67, 0
2, 151200, Note_on_c, 0, 65, 62
2, 151440, Note_on_c, 0, 77, 55
2, 151440, Note_on_c, 0, 69, 48
2, 151680, Note_on_c, 0, 69, 0
2, 151680, Note_on_c, 0, 77, 0
2, 151680, Note_on_c, 0, 65, 0
2, 151680, Note_on_c, 0, 64, 66
2, 151920, Note_on_c, 0, 69, 50
2, 151920, Note_on_c, 0, 76, 57
2, 151920, Note_on_c, 0, 67, 50
2, 152160, Note_on_c, 0, 67, 0
2, 152160, Note_on_c, 0, 64, 0
2, 152160, Note_on_c, 0, 69, 0
2, 152160, Note_on_c, 0, 76, 0
2, 152160, Note_on_c, 0, 65, 66
2, 152400, Note_on_c, 0, 77, 57
2, 152400, Note_on_c, 0, 69, 50
2, 152640, Note_on_c, 0, 69, 0
2, 152640, Note_on_c, 0, 77, 0
2, 152640, Note_on_c, 0, 65, 0
2, 152640, Note_on_c, 0, 69, 70
2, 152880, Note_on_c, 0, 78, 50
2, 152880, Note_on_c, 0, 83, 57
2, 153120, Note_on_c, 0, 83, 0
2, 153120, Note_on_c, 0, 78, 0
2, 153120, Note_on_c, 0, 69, 0
2, 153120, Note_on_c, 0, 67, 67
2, 153360, Note_on_c, 0, 79, 59
2, 153360, Note_on_c, 0, 71, 53
2, 153600, Note_on_c, 0, 71, 0
2, 153600, Note_on_c, 0, 79, 0
2, 153600, Note_on_c, 0, 67, 0
2, 153600, Note_on_c, 0, 66, 71
2, 153840, Note_on_c, 0, 71, 57
2, 153840, Note_on_c, 0, 78, 64
2, 153840, Note_on_c, 0, 69, 57
2, 154080, Note_on_c, 0, 69, 0
2, 154080, Note_on_c, 0, 66, 0
2, 154080, Note_on_c, 0, 71, 0
2, 154080, Note_on_c, 0, 78, 0
2, 154080, Note_on_c, 0, 67, 74
2, 154320, Note_on_c, 0, 79, 64
2, 154320, Note_on_c, 0, 71, 58
2, 154560, Note_on_c, 0, 71, 0
2, 154560, Note_on_c, 0, 79, 0
2, 154560, Note_on_c, 0, 67, 0
2, 154560, Note_on_c, 0, 71, 76
2, 154800, Note_on_c, 0, 80, 58
2, 154800, Note_on_c, 0, 85, 65
2, 155040, Note_on_c, 0, 85, 0
2, 155040, Note_on_c, 0, 80, 0
2, 155040, Note_on_c, 0, 71, 0
2, 155040, Note_on_c, 0, 69, 75
2, 155280, Note_on_c, 0, 81, 67
2, 155280, Note_on_c, 0, 73, 60
2, 155520, Note_on_c, 0, 73, 0
2, 155520, Note_on_c, 0, 81, 0
2, 155520, Note_on_c, 0, 69, 0
2, 155520, Note_on_c, 0, 72, 82
2, 155760, Note_on_c, 0, 81, 60
2, 155760, Note_on_c, 0, 86, 69
2, 156000, Note_on_c, 0, 86, 0
2, 156000, Note_on_c, 0, 81, 0
2, 156000, Note_on_c, 0, 72, 0
2, 156000, Note_on_c, 0, 71, 78
2, 156240, Note_on_c, 0, 83, 72
2, 156240, Note_on_c, 0, 74, 65
2, 156480, Note_on_c, 0, 74, 0
2, 156480, Note_on_c, 0, 83, 0
2, 156480, Note_on_c, 0, 71, 0
2, 156480, Note_on_c, 0, 72, 83
2, 156720, Note_on_c, 0, 81, 61
2, 156720, Note_on_c, 0, 86, 70
2, 156960, Note_on_c, 0, 86, 0
2, 156960, Note_on_c, 0, 81, 0
2, 156960, Note_on_c, 0, 72, 0
2, 156960, Note_on_c, 0, 71, 79
2, 157200, Note_on_c, 0, 83, 70
2, 157200, Note_on_c, 0, 74, 61
2, 157440, Note_on_c, 0, 74, 0
2, 157440, Note_on_c, 0, 83, 0
2, 157440, Note_on_c, 0, 71, 0
2, 157440, Note_on_c, 0, 88, 86
2, 157500, Note_on_c, 0, 88, 0
2, 157560, Note_on_c, 0, 86, 73
2, 157620, Note_on_c, 0, 86, 0
2, 157680, Note_on_c, 0, 82, 80
2, 157740, Note_on_c, 0, 82, 0
2, 157800, Note_on_c, 0, 81, 71
2, 157860, Note_on_c, 0, 81, 0
2, 157920, Note_on_c, 0, 79, 77
2, 158040, Note_on_c, 0, 79, 0
2, 158400, Note_on_c, 0, 76, 74
2, 158460, Note_on_c, 0, 76, 0
2, 158520, Note_on_c, 0, 74, 67
2, 158580, Note_on_c, 0, 74, 0
2, 158640, Note_on_c, 0, 70, 72
2, 158700, Note_on_c, 0, 70, 0
2, 158760, Note_on_c, 0, 69, 64
2, 158820, Note_on_c, 0, 69, 0
2, 158880, Note_on_c, 0, 67, 75
2, 159000, Note_on_c, 0, 67, 0
2, 159360, Note_on_c, 0, 64, 74
2, 159420, Note_on_c, 0, 64, 0
2, 159480, Note_on_c, 0, 62, 63
2, 159540, Note_on_c, 0, 62, 0
2, 159600, Note_on_c, 0, 58, 70
2, 159660, Note_on_c, 0, 58, 0
2, 159720, Note_on_c, 0, 57, 60
2, 159780, Note_on_c, 0, 57, 0
2, 159840, Note_on_c, 0, 55, 75
2, 159960, Note_on_c, 0, 55, 0
2, 160320, Note_on_c, 0, 52, 74
2, 160380, Note_on_c, 0, 52, 0
2, 160440, Note_on_c, 0, 50, 64
2, 160500, Note_on_c, 0, 50, 0
2, 160560, Note_on_c, 0, 46, 70
2, 160620, Note_on_c, 0, 46, 0
2, 160680, Note_on_c, 0, 45, 64
2, 160740, Note_on_c, 0, 45, 0
2, 160800, Note_on_c, 0, 43, 75
2, 160920, Note_on_c, 0, 43, 0
2, 163200, Note_on_c, 0, 50, 56
2, 163200, Note_on_c, 0, 52, 56
2, 163200, Note_on_c, 0, 64, 62
2, 163200, Note_on_c, 0, 62, 62
2, 165120, Note_on_c, 0, 62, 0
2, 165120, Note_on_c, 0, 50, 0
2, 165120, Note_on_c, 0, 52, 0
2, 165120, Note_on_c, 0, 64, 0
2, 167040, Note_on_c, 0, 62, 49
2, 167040, Note_on_c, 0, 64, 49
2, 167040, Note_on_c, 0, 76, 56
2, 167040, Note_on_c, 0, 74, 56
2, 168960, Note_on_c, 0, 74, 0
2, 168960, Note_on_c, 0, 62, 0
2, 168960, Note_on_c, 0, 64, 0
2, 168960, Note_on_c, 0, 76, 0
2, 168960, Note_on_c, 0, 74, 41
2, 168960, Note_on_c, 0, 76, 41
2, 168960, Note_on_c, 0, 88, 45
2, 168960, Note_on_c, 0, 86, 45
2, 170880, Note_on_c, 0, 86, 0
2, 170880, Note_on_c, 0, 74, 0
2, 170880, Note_on_c, 0, 76, 0
2, 170880, Note_on_c, 0, 88, 0
2, 171840, Note_on_c, 0, 79, 97
2, 171960, Note_on_c, 0, 79, 0
2, 172080, Note_on_c, 0, 79, 88
2, 172200, Note_on_c, 0, 79, 0
2, 172320, Note_on_c, 0, 79, 96
2, 172440, Note_on_c, 0, 81, 83
2, 172460, Note_on_c, 0, 79, 0
2, 172560, Note_on_c, 0, 82, 88
2, 172580, Note_on_c, 0, 81, 0
2, 172680, Note_on_c, 0, 79, 79
2, 172700, Note_on_c, 0, 82, 0
2, 172800, Note_on_c, 0, 79, 0
2, 172800, Note_on_c, 0, 80, 101
2, 172920, Note_on_c, 0, 80, 0
2, 173040, Note_on_c, 0, 81, 93
2, 173160, Note_on_c, 0, 81, 0
2, 173280, Note_on_c, 0, 74, 99
2, 173280, Note_on_c, 0, 78, 99
2, 173280, Note_on_c, 0, 86, 111
2, 173520, Note_on_c, 0, 86, 0
2, 173520, Note_on_c, 0, 78, 0
2, 173520, Note_on_c, 0, 74, 0
2, 173520, End_track
3, 0, Start_track
3, 0, Title_t, "Piano left"
3, 0, Program_c, 0, 0
3, 0, Control_c, 0, 7, 100
3, 0, Control_c, 0, 10, 64
3, 0, Control_c, 0, 64, 127
3, 0, Control_c, 0, 91, 127
3, 1, Note_on_c, 0, 54, 64
3, 1, Note_on_c, 0, 57, 74
3, 1, Note_on_c, 0, 50, 64
3, 240, Note_on_c, 0, 57, 0
3, 240, Note_on_c, 0, 62, 60
3, 480, Note_on_c, 0, 62, 0
3, 480, Note_on_c, 0, 50, 0
3, 480, Note_on_c, 0, 54, 0
3, 480, Note_on_c, 0, 55, 62
3, 480, Note_on_c, 0, 58, 71
3, 480, Note_on_c, 0, 50, 62
3, 490, Control_c, 0, 64, 0
3, 571, Control_c, 0, 64, 127
3, 720, Note_on_c, 0, 58, 0
3, 720, Note_on_c, 0, 62, 55
3, 960, Note_on_c, 0, 62, 0
3, 960, Note_on_c, 0, 50, 0
3, 960, Note_on_c, 0, 55, 0
3, 960, Note_on_c, 0, 54, 64
3, 960, Note_on_c, 0, 50, 64
3, 960, Note_on_c, 0, 57, 74
3, 968, Control_c, 0, 64, 0
3, 1051, Control_c, 0, 64, 127
3, 1200, Note_on_c, 0, 57, 0
3, 1200, Note_on_c, 0, 62, 61
3, 1440, Note_on_c, 0, 62, 0
3, 1440, Note_on_c, 0, 50, 0
3, 1440, Note_on_c, 0, 54, 0
3, 1440, Note_on_c, 0, 58, 71
3, 1440, Note_on_c, 0, 50, 62
3, 1440, Note_on_c, 0, 55, 62
3, 1450, Control_c, 0, 64, 0
3, 1554, Control_c, 0, 64, 127
3, 1680, Note_on_c, 0, 58, 0
3, 1680, Note_on_c, 0, 62, 53
3, 1920, Note_on_c, 0, 62, 0
3, 1920, Note_on_c, 0, 55, 0
3, 1920, Note_on_c, 0, 50, 0
3, 1920, Control_c, 0, 64, 0
3, 1920, Note_on_c, 0, 62, 63
3, 1920, Note_on_c, 0, 69, 70
3, 1920, Note_on_c, 0, 66, 70
3, 1920, Note_on_c, 0, 60, 63
3, 2880, Note_on_c, 0, 60, 0
3, 2880, Note_on_c, 0, 62, 0
3, 2880, Note_on_c, 0, 69, 0
3, 2880, Note_on_c, 0, 66, 0
3, 2880, Note_on_c, 0, 58, 70
3, 2940, Note_on_c, 0, 58, 0
3, 3000, Note_on_c, 0, 57, 66
3, 3060, Note_on_c, 0, 57, 0
3, 3120, Note_on_c, 0, 55, 70
3, 3180, Note_on_c, 0, 55, 0
3, 3240, Note_on_c, 0, 54, 67
3, 3300, Note_on_c, 0, 54, 0
3, 3360, Note_on_c, 0, 52, 72
3, 3371, Control_c, 0, 64, 127
3, 3600, Note_on_c, 0, 52, 0
3, 3600, Note_on_c, 0, 57, 66
3, 3769, Control_c, 0, 64, 0
3, 3840, Note_on_c, 0, 57, 0
3, 3840, Note_on_c, 0, 57, 74
3, 3840, Note_on_c, 0, 54, 64
3, 3840, Note_on_c, 0, 50, 64
3, 3840, Control_c, 0, 64, 127
3, 4080, Note_on_c, 0, 57, 0
3, 4080, Note_on_c, 0, 62, 62
3, 4320, Note_on_c, 0, 62, 0
3, 4320, Note_on_c, 0, 50, 0
3, 4320, Note_on_c, 0, 54, 0
3, 4320, Note_on_c, 0, 55, 62
3, 4320, Note_on_c, 0, 50, 62
3, 4320, Note_on_c, 0, 58, 71
3, 4335, Control_c, 0, 64, 0
3, 4411, Control_c, 0, 64, 127
3, 4560, Note_on_c, 0, 58, 0
3, 4560, Note_on_c, 0, 62, 59
3, 4800, Note_on_c, 0, 62, 0
3, 4800, Note_on_c, 0, 50, 0
3, 4800, Note_on_c, 0, 55, 0
3, 4800, Note_on_c, 0, 57, 74
3, 4800, Note_on_c, 0, 54, 64
3, 4800, Note_on_c, 0, 50, 64
3, 4811, Control_c, 0, 64, 0
3, 4925, Control_c, 0, 64, 127
3, 5040, Note_on_c, 0, 57, 0
3, 5040, Note_on_c, 0, 62, 62
3, 5280, Note_on_c, 0, 62, 0
3, 5280, Note_on_c, 0, 50, 0
3, 5280, Note_on_c, 0, 54, 0
3, 5280, Note_on_c, 0, 55, 62
3, 5280, Note_on_c, 0, 50, 62
3, 5280, Note_on_c, 0, 58, 71
3, 5292, Control_c, 0, 64, 0
3, 5394, Control_c, 0, 64, 127
3, 5520, Note_on_c, 0, 58, 0
3, 5520, Note_on_c, 0, 62, 55
3, 5760, Note_on_c, 0, 62, 0
3, 5760, Note_on_c, 0, 50, 0
3, 5760, Note_on_c, 0, 55, 0
3, 5760, Control_c, 0, 64, 0
3, 5760, Note_on_c, 0, 62, 63
3, 5760, Note_on_c, 0, 60, 63
3, 5760, Note_on_c, 0, 66, 70
3, 5760, Note_on_c, 0, 69, 70
3, 6720, Note_on_c, 0, 69, 0
3, 6720, Note_on_c, 0, 62, 0
3, 6720, Note_on_c, 0, 60, 0
3, 6720, Note_on_c, 0, 66, 0
3, 6720, Note_on_c, 0, 58, 60
3, 6720, Note_on_c, 0, 62, 60
3, 6780, Note_on_c, 0, 62, 0
3, 6780, Note_on_c, 0, 58, 0
3, 6960, Note_on_c, 0, 58, 66
3, 7020, Note_on_c, 0, 58, 0
3, 7080, Note_on_c, 0, 57, 68
3, 7140, Note_on_c, 0, 57, 0
3, 7200, Note_on_c, 0, 55, 71
3, 7440, Note_on_c, 0, 55, 0
3, 7680, Note_on_c, 0, 51, 41
3, 7680, Note_on_c, 0, 43, 41
3, 7693, Control_c, 0, 64, 127
3, 7920, Note_on_c, 0, 58, 37
3, 8160, Note_on_c, 0, 58, 0
3, 8160, Note_on_c, 0, 43, 0
3, 8160, Note_on_c, 0, 51, 0
3, 8160, Note_on_c, 0, 56, 43
3, 8170, Control_c, 0, 64, 0
3, 8248, Control_c, 0, 64, 127
3, 8400, Note_on_c, 0, 51, 37
3, 8400, Note_on_c, 0, 44, 37
3, 8572, Control_c, 0, 64, 0
3, 8640, Note_on_c, 0, 44, 0
3, 8640, Note_on_c, 0, 51, 0
3, 8640, Note_on_c, 0, 56, 0
3, 8640, Note_on_c, 0, 53, 44
3, 8640, Note_on_c, 0, 45, 44
3, 8695, Control_c, 0, 64, 127
3, 8880, Note_on_c, 0, 60, 40
3, 9120, Note_on_c, 0, 60, 0
3, 9120, Note_on_c, 0, 45, 0
3, 9120, Note_on_c, 0, 53, 0
3, 9120, Note_on_c, 0, 58, 48
3, 9132, Control_c, 0, 64, 0
3, 9208, Control_c, 0, 64, 127
3, 9360, Note_on_c, 0, 46, 40
3, 9360, Note_on_c, 0, 53, 40
3, 9532, Control_c, 0, 64, 0
3, 9600, Note_on_c, 0, 53, 0
3, 9600, Note_on_c, 0, 46, 0
3, 9600, Note_on_c, 0, 58, 0
3, 9600, Note_on_c, 0, 47, 45
3, 9600, Note_on_c, 0, 55, 45
3, 9688, Control_c, 0, 64, 127
3, 9840, Note_on_c, 0, 47, 0
3, 9840, Note_on_c, 0, 59, 38
3, 10080, Note_on_c, 0, 59, 0
3, 10080, Note_on_c, 0, 55, 0
3, 10080, Note_on_c, 0, 55, 47
3, 10080, Note_on_c, 0, 48, 47
3, 10086, Control_c, 0, 64, 0
3, 10168, Control_c, 0, 64, 127
3, 10320, Note_on_c, 0, 48, 0
3, 10320, Note_on_c, 0, 60, 39
3, 10560, Note_on_c, 0, 60, 0
3, 10560, Note_on_c, 0, 55, 0
3, 10560, Note_on_c, 0, 55, 49
3, 10560, Note_on_c, 0, 50, 49
3, 10568, Control_c, 0, 64, 0
3, 10648, Control_c, 0, 64, 127
3, 10800, Note_on_c, 0, 50, 0
3, 10800, Note_on_c, 0, 62, 41
3, 11040, Note_on_c, 0, 62, 0
3, 11040, Note_on_c, 0, 55, 0
3, 11040, Note_on_c, 0, 55, 47
3, 11040, Note_on_c, 0, 48, 47
3, 11050, Control_c, 0, 64, 0
3, 11128, Control_c, 0, 64, 127
3, 11280, Note_on_c, 0, 48, 0
3, 11280, Note_on_c, 0, 60, 40
3, 11452, Control_c, 0, 64, 0
3, 11520, Note_on_c, 0, 60, 0
3, 11520, Note_on_c, 0, 55, 0
3, 11520, Note_on_c, 0, 47, 46
3, 11520, Note_on_c, 0, 55, 46
3, 11582, Control_c, 0, 64, 127
3, 11760, Note_on_c, 0, 62, 42
3, 12000, Note_on_c, 0, 62, 0
3, 12000, Note_on_c, 0, 55, 0
3, 12000, Note_on_c, 0, 47, 0
3, 12000, Note_on_c, 0, 60, 51
3, 12026, Control_c, 0, 64, 0
3, 12088, Control_c, 0, 64, 127
3, 12240, Note_on_c, 0, 55, 42
3, 12240, Note_on_c, 0, 48, 42
3, 12412, Control_c, 0, 64, 0
3, 12480, Note_on_c, 0, 48, 0
3, 12480, Note_on_c, 0, 55, 0
3, 12480, Note_on_c, 0, 60, 0
3, 12480, Note_on_c, 0, 49, 52
3, 12480, Note_on_c, 0, 57, 52
3, 12535, Control_c, 0, 64, 127
3, 12720, Note_on_c, 0, 64, 46
3, 12960, Note_on_c, 0, 64, 0
3, 12960, Note_on_c, 0, 57, 0
3, 12960, Note_on_c, 0, 49, 0
3, 12960, Note_on_c, 0, 62, 54
3, 12992, Control_c, 0, 64, 0
3, 13048, Control_c, 0, 64, 127
3, 13200, Note_on_c, 0, 50, 47
3, 13200, Note_on_c, 0, 57, 47
3, 13372, Control_c, 0, 64, 0
3, 13440, Note_on_c, 0, 57, 0
3, 13440, Note_on_c, 0, 50, 0
3, 13440, Note_on_c, 0, 62, 0
3, 13440, Note_on_c, 0, 57, 54
3, 13440, Note_on_c, 0, 49, 54
3, 13528, Control_c, 0, 64, 127
3, 13680, Note_on_c, 0, 49, 0
3, 13680, Note_on_c, 0, 61, 46
3, 13920, Note_on_c, 0, 61, 0
3, 13920, Note_on_c, 0, 57, 0
3, 13920, Note_on_c, 0, 57, 56
3, 13920, Note_on_c, 0, 50, 56
3, 13930, Control_c, 0, 64, 0
3, 14008, Control_c, 0, 64, 127
3, 14160, Note_on_c, 0, 50, 0
3, 14160, Note_on_c, 0, 62, 47
3, 14400, Note_on_c, 0, 62, 0
3, 14400, Note_on_c, 0, 57, 0
3, 14400, Note_on_c, 0, 57, 57
3, 14400, Note_on_c, 0, 52, 57
3, 14408, Control_c, 0, 64, 0
3, 14488, Control_c, 0, 64, 127
3, 14640, Note_on_c, 0, 52, 0
3, 14640, Note_on_c, 0, 64, 49
3, 14880, Note_on_c, 0, 64, 0
3, 14880, Note_on_c, 0, 57, 0
3, 14880, Note_on_c, 0, 50, 56
3, 14880, Note_on_c, 0, 57, 56
3, 14890, Control_c, 0, 64, 0
3, 14968, Control_c, 0, 64, 127
3, 15120, Note_on_c, 0, 50, 0
3, 15120, Note_on_c, 0, 62, 48
3, 15292, Control_c, 0, 64, 0
3, 15360, Note_on_c, 0, 62, 0
3, 15360, Note_on_c, 0, 57, 0
3, 15360, Note_on_c, 0, 49, 58
3, 15360, Note_on_c, 0, 57, 58
3, 15448, Control_c, 0, 64, 127
3, 15600, Note_on_c, 0, 49, 0
3, 15600, Note_on_c, 0, 61, 49
3, 15840, Note_on_c, 0, 61, 0
3, 15840, Note_on_c, 0, 57, 0
3, 15840, Note_on_c, 0, 57, 61
3, 15840, Note_on_c, 0, 50, 61
3, 15850, Control_c, 0, 64, 0
3, 15928, Control_c, 0, 64, 127
3, 16080, Note_on_c, 0, 50, 0
3, 16080, Note_on_c, 0, 62, 52
3, 16320, Note_on_c, 0, 62, 0
3, 16320, Note_on_c, 0, 57, 0
3, 16320, Note_on_c, 0, 59, 63
3, 16320, Note_on_c, 0, 51, 63
3, 16329, Control_c, 0, 64, 0
3, 16408, Control_c, 0, 64, 127
3, 16560, Note_on_c, 0, 51, 0
3, 16560, Note_on_c, 0, 63, 53
3, 16800, Note_on_c, 0, 63, 0
3, 16800, Note_on_c, 0, 59, 0
3, 16800, Note_on_c, 0, 59, 60
3, 16800, Note_on_c, 0, 52, 60
3, 16808, Control_c, 0, 64, 0
3, 16888, Control_c, 0, 64, 127
3, 17040, Note_on_c, 0, 52, 0
3, 17040, Note_on_c, 0, 64, 52
3, 17212, Control_c, 0, 64, 0
3, 17280, Note_on_c, 0, 64, 0
3, 17280, Note_on_c, 0, 59, 0
3, 17280, Note_on_c, 0, 59, 64
3, 17280, Note_on_c, 0, 51, 64
3, 17368, Control_c, 0, 64, 127
3, 17520, Note_on_c, 0, 51, 0
3, 17520, Note_on_c, 0, 63, 54
3, 17760, Note_on_c, 0, 63, 0
3, 17760, Note_on_c, 0, 59, 0
3, 17760, Note_on_c, 0, 59, 66
3, 17760, Note_on_c, 0, 52, 66
3, 17763, Control_c, 0, 64, 0
3, 17848, Control_c, 0, 64, 127
3, 18000, Note_on_c, 0, 52, 0
3, 18000, Note_on_c, 0, 64, 56
3, 18240, Note_on_c, 0, 64, 0
3, 18240, Note_on_c, 0, 59, 0
3, 18240, Note_on_c, 0, 61, 67
3, 18240, Note_on_c, 0, 53, 67
3, 18247, Control_c, 0, 64, 0
3, 18328, Control_c, 0, 64, 127
3, 18480, Note_on_c, 0, 53, 0
3, 18480, Note_on_c, 0, 65, 57
3, 18720, Note_on_c, 0, 65, 0
3, 18720, Note_on_c, 0, 61, 0
3, 18720, Note_on_c, 0, 61, 65
3, 18720, Note_on_c, 0, 54, 65
3, 18725, Control_c, 0, 64, 0
3, 18810, Control_c, 0, 64, 127
3, 18960, Note_on_c, 0, 54, 0
3, 18960, Note_on_c, 0, 66, 56
3, 19132, Control_c, 0, 64, 0
3, 19200, Note_on_c, 0, 66, 0
3, 19200, Note_on_c, 0, 61, 0
3, 19200, Note_on_c, 0, 62, 72
3, 19200, Note_on_c, 0, 54, 72
3, 19288, Control_c, 0, 64, 127
3, 19440, Note_on_c, 0, 54, 0
3, 19440, Note_on_c, 0, 66, 60
3, 19680, Note_on_c, 0, 66, 0
3, 19680, Note_on_c, 0, 62, 0
3, 19680, Note_on_c, 0, 62, 70
3, 19680, Note_on_c, 0, 55, 70
3, 19688, Control_c, 0, 64, 0
3, 19768, Control_c, 0, 64, 127
3, 19920, Note_on_c, 0, 55, 0
3, 19920, Note_on_c, 0, 67, 60
3, 20092, Control_c, 0, 64, 0
3, 20160, Note_on_c, 0, 67, 0
3, 20160, Note_on_c, 0, 62, 0
3, 20160, Note_on_c, 0, 54, 73
3, 20160, Note_on_c, 0, 62, 73
3, 20248, Control_c, 0, 64, 127
3, 20400, Note_on_c, 0, 54, 0
3, 20400, Note_on_c, 0, 66, 61
3, 20640, Note_on_c, 0, 66, 0
3, 20640, Note_on_c, 0, 62, 0
3, 20640, Note_on_c, 0, 55, 71
3, 20640, Note_on_c, 0, 62, 71
3, 20653, Control_c, 0, 64, 0
3, 20781, Control_c, 0, 64, 127
3, 20880, Note_on_c, 0, 55, 0
3, 20880, Note_on_c, 0, 67, 60
3, 21052, Control_c, 0, 64, 0
3, 21120, Note_on_c, 0, 67, 0
3, 21120, Note_on_c, 0, 62, 0
3, 21120, Note_on_c, 0, 70, 69
3, 21120, Note_on_c, 0, 74, 77
3, 21120, Note_on_c, 0, 67, 69
3, 21240, Note_on_c, 0, 67, 0
3, 21240, Note_on_c, 0, 74, 0
3, 21240, Note_on_c, 0, 70, 0
3, 21600, Note_on_c, 0, 76, 79
3, 21660, Note_on_c, 0, 76, 0
3, 21720, Note_on_c, 0, 74, 71
3, 21780, Note_on_c, 0, 74, 0
3, 21840, Note_on_c, 0, 70, 74
3, 21900, Note_on_c, 0, 70, 0
3, 21960, Note_on_c, 0, 69, 68
3, 22020, Note_on_c, 0, 69, 0
3, 22080, Note_on_c, 0, 67, 82
3, 22200, Note_on_c, 0, 67, 0
3, 22560, Note_on_c, 0, 52, 71
3, 22620, Note_on_c, 0, 52, 0
3, 22680, Note_on_c, 0, 50, 62
3, 22740, Note_on_c, 0, 50, 0
3, 22800, Note_on_c, 0, 46, 66
3, 22860, Note_on_c, 0, 46, 0
3, 22920, Note_on_c, 0, 45, 58
3, 22980, Note_on_c, 0, 45, 0
3, 23040, Note_on_c, 0, 43, 75
3, 23160, Note_on_c, 0, 43, 0
3, 23280, Note_on_c, 0, 43, 69
3, 23400, Note_on_c, 0, 43, 0
3, 23520, Note_on_c, 0, 44, 74
3, 23640, Note_on_c, 0, 44, 0
3, 23640, Note_on_c, 0, 45, 62
3, 23760, Note_on_c, 0, 45, 0
3, 23760, Note_on_c, 0, 46, 68
3, 23880, Note_on_c, 0, 46, 0
3, 23880, Note_on_c, 0, 44, 60
3, 24000, Note_on_c, 0, 44, 0
3, 24000, Note_on_c, 0, 45, 73
3, 24227, Control_c, 0, 64, 127
3, 24240, Note_on_c, 0, 45, 0
3, 24240, Note_on_c, 0, 45, 71
3, 24240, Note_on_c, 0, 55, 71
3, 24413, Control_c, 0, 64, 0
3, 24420, Note_on_c, 0, 55, 0
3, 24420, Note_on_c, 0, 45, 0
3, 24480, Note_on_c, 0, 54, 77
3, 24480, Note_on_c, 0, 50, 77
3, 24594, Control_c, 0, 64, 127
3, 24720, Note_on_c, 0, 50, 0
3, 24720, Note_on_c, 0, 54, 0
3, 24783, Control_c, 0, 64, 0
3, 25440, Note_on_c, 0, 66, 57
3, 25440, Note_on_c, 0, 59, 50
3, 25440, Note_on_c, 0, 62, 50
3, 25454, Control_c, 0, 64, 127
3, 25680, Note_on_c, 0, 62, 0
3, 25680, Note_on_c, 0, 59, 0
3, 25680, Note_on_c, 0, 66, 0
3, 25867, Control_c, 0, 64, 0
3, 25920, Note_on_c, 0, 54, 70
3, 25980, Note_on_c, 0, 54, 0
3, 26040, Note_on_c, 0, 52, 60
3, 26100, Note_on_c, 0, 52, 0
3, 26160, Note_on_c, 0, 50, 62
3, 26220, Note_on_c, 0, 50, 0
3, 26280, Note_on_c, 0, 49, 58
3, 26340, Note_on_c, 0, 49, 0
3, 26400, Note_on_c, 0, 47, 69
3, 26442, Control_c, 0, 64, 127
3, 26520, Note_on_c, 0, 47, 0
3, 26827, Control_c, 0, 64, 0
3, 26880, Note_on_c, 0, 59, 52
3, 26880, Note_on_c, 0, 55, 47
3, 26968, Control_c, 0, 64, 127
3, 27120, Note_on_c, 0, 55, 0
3, 27120, Note_on_c, 0, 47, 44
3, 27360, Note_on_c, 0, 47, 0
3, 27360, Note_on_c, 0, 59, 0
3, 27360, Note_on_c, 0, 59, 55
3, 27360, Note_on_c, 0, 54, 48
3, 27367, Control_c, 0, 64, 0
3, 27448, Control_c, 0, 64, 127
3, 27600, Note_on_c, 0, 54, 0
3, 27600, Note_on_c, 0, 45, 45
3, 27840, Note_on_c, 0, 45, 0
3, 27840, Note_on_c, 0, 59, 0
3, 27840, Note_on_c, 0, 55, 49
3, 27840, Note_on_c, 0, 52, 49
3, 27840, Note_on_c, 0, 59, 56
3, 27849, Control_c, 0, 64, 0
3, 27928, Control_c, 0, 64, 127
3, 28080, Note_on_c, 0, 52, 0
3, 28080, Note_on_c, 0, 55, 0
3, 28080, Note_on_c, 0, 47, 46
3, 28320, Note_on_c, 0, 47, 0
3, 28320, Note_on_c, 0, 59, 0
3, 28320, Note_on_c, 0, 50, 41
3, 28320, Note_on_c, 0, 59, 47
3, 28320, Note_on_c, 0, 54, 41
3, 28329, Control_c, 0, 64, 0
3, 28408, Control_c, 0, 64, 127
3, 28560, Note_on_c, 0, 54, 0
3, 28560, Note_on_c, 0, 50, 0
3, 28560, Note_on_c, 0, 47, 36
3, 28800, Note_on_c, 0, 47, 0
3, 28800, Note_on_c, 0, 59, 0
3, 28800, Control_c, 0, 64, 0
3, 29280, Note_on_c, 0, 66, 57
3, 29280, Note_on_c, 0, 59, 50
3, 29280, Note_on_c, 0, 62, 50
3, 29294, Control_c, 0, 64, 127
3, 29520, Note_on_c, 0, 62, 0
3, 29520, Note_on_c, 0, 59, 0
3, 29520, Note_on_c, 0, 66, 0
3, 29760, Control_c, 0, 64, 0
3, 29760, Note_on_c, 0, 54, 64
3, 29820, Note_on_c, 0, 54, 0
3, 29880, Note_on_c, 0, 52, 58
3, 29940, Note_on_c, 0, 52, 0
3, 30000, Note_on_c, 0, 50, 62
3, 30060, Note_on_c, 0, 50, 0
3, 30120, Note_on_c, 0, 49, 58
3, 30180, Note_on_c, 0, 49, 0
3, 30240, Note_on_c, 0, 47, 63
3, 30282, Control_c, 0, 64, 127
3, 30360, Note_on_c, 0, 47, 0
3, 30720, Control_c, 0, 64, 0
3, 30720, Note_on_c, 0, 55, 47
3, 30720, Note_on_c, 0, 59, 52
3, 30808, Control_c, 0, 64, 127
3, 30960, Note_on_c, 0, 55, 0
3, 30960, Note_on_c, 0, 47, 44
3, 31200, Note_on_c, 0, 47, 0
3, 31200, Note_on_c, 0, 59, 0
3, 31200, Note_on_c, 0, 54, 48
3, 31200, Note_on_c, 0, 59, 55
3, 31210, Control_c, 0, 64, 0
3, 31288, Control_c, 0, 64, 127
3, 31440, Note_on_c, 0, 54, 0
3, 31440, Note_on_c, 0, 45, 45
3, 31680, Note_on_c, 0, 45, 0
3, 31680, Note_on_c, 0, 59, 0
3, 31680, Note_on_c, 0, 55, 49
3, 31680, Note_on_c, 0, 52, 49
3, 31680, Note_on_c, 0, 59, 56
3, 31690, Control_c, 0, 64, 0
3, 31768, Control_c, 0, 64, 127
3, 31920, Note_on_c, 0, 52, 0
3, 31920, Note_on_c, 0, 55, 0
3, 31920, Note_on_c, 0, 47, 46
3, 32160, Note_on_c, 0, 47, 0
3, 32160, Note_on_c, 0, 59, 0
3, 32160, Note_on_c, 0, 50, 41
3, 32160, Note_on_c, 0, 59, 47
3, 32160, Note_on_c, 0, 54, 41
3, 32171, Control_c, 0, 64, 0
3, 32248, Control_c, 0, 64, 127
3, 32400, Note_on_c, 0, 54, 0
3, 32400, Note_on_c, 0, 50, 0
3, 32400, Note_on_c, 0, 47, 36
3, 32640, Note_on_c, 0, 47, 0
3, 32640, Note_on_c, 0, 59, 0
3, 32640, Control_c, 0, 64, 0
3, 32640, Note_on_c, 0, 47, 59
3, 32700, Note_on_c, 0, 47, 0
3, 32760, Note_on_c, 0, 49, 53
3, 32820, Note_on_c, 0, 49, 0
3, 32880, Note_on_c, 0, 50, 55
3, 32940, Note_on_c, 0, 50, 0
3, 33000, Note_on_c, 0, 52, 50
3, 33060, Note_on_c, 0, 52, 0
3, 33120, Note_on_c, 0, 53, 57
3, 33180, Note_on_c, 0, 53, 0
3, 33360, Note_on_c, 0, 54, 58
3, 33403, Control_c, 0, 64, 127
3, 33600, Note_on_c, 0, 54, 0
3, 33600, Note_on_c, 0, 57, 60
3, 33605, Control_c, 0, 64, 0
3, 33664, Control_c, 0, 64, 127
3, 33840, Note_on_c, 0, 57, 0
3, 33840, Note_on_c, 0, 56, 55
3, 34080, Note_on_c, 0, 56, 0
3, 34080, Note_on_c, 0, 55, 57
3, 34087, Control_c, 0, 64, 0
3, 34158, Control_c, 0, 64, 127
3, 34320, Note_on_c, 0, 55, 0
3, 34320, Note_on_c, 0, 54, 51
3, 34327, Control_c, 0, 64, 0
3, 34380, Note_on_c, 0, 54, 0
3, 34560, Note_on_c, 0, 53, 51
3, 34800, Note_on_c, 0, 62, 44
3, 34800, Note_on_c, 0, 59, 44
3, 35040, Note_on_c, 0, 53, 0
3, 35040, Note_on_c, 0, 52, 51
3, 35280, Note_on_c, 0, 59, 0
3, 35280, Note_on_c, 0, 62, 0
3, 35280, Note_on_c, 0, 59, 42
3, 35280, Note_on_c, 0, 62, 42
3, 35303, Control_c, 0, 64, 127
3, 35520, Note_on_c, 0, 52, 0
3, 35520, Note_on_c, 0, 50, 51
3, 35526, Control_c, 0, 64, 0
3, 35562, Control_c, 0, 64, 127
3, 35760, Note_on_c, 0, 62, 0
3, 35760, Note_on_c, 0, 59, 0
3, 35760, Note_on_c, 0, 59, 44
3, 35760, Note_on_c, 0, 64, 44
3, 35760, Note_on_c, 0, 56, 44
3, 36000, Note_on_c, 0, 56, 0
3, 36000, Note_on_c, 0, 50, 0
3, 36000, Note_on_c, 0, 59, 0
3, 36000, Note_on_c, 0, 64, 0
3, 36000, Note_on_c, 0, 49, 51
3, 36009, Control_c, 0, 64, 0
3, 36060, Control_c, 0, 64, 127
3, 36240, Note_on_c, 0, 57, 44
3, 36240, Note_on_c, 0, 52, 44
3, 36240, Note_on_c, 0, 61, 44
3, 36282, Control_c, 0, 64, 0
3, 36300, Note_on_c, 0, 61, 0
3, 36300, Note_on_c, 0, 52, 0
3, 36300, Note_on_c, 0, 57, 0
3, 36480, Note_on_c, 0, 49, 0
3, 36480, Note_on_c, 0, 49, 59
3, 36540, Note_on_c, 0, 49, 0
3, 36600, Note_on_c, 0, 50, 53
3, 36660, Note_on_c, 0, 50, 0
3, 36720, Note_on_c, 0, 52, 55
3, 36780, Note_on_c, 0, 52, 0
3, 36840, Note_on_c, 0, 54, 50
3, 36900, Note_on_c, 0, 54, 0
3, 36960, Note_on_c, 0, 55, 57
3, 37020, Note_on_c, 0, 55, 0
3, 37200, Note_on_c, 0, 56, 58
3, 37200, Control_c, 0, 64, 127
3, 37440, Note_on_c, 0, 56, 0
3, 37440, Note_on_c, 0, 59, 60
3, 37448, Control_c, 0, 64, 0
3, 37504, Control_c, 0, 64, 127
3, 37680, Note_on_c, 0, 59, 0
3, 37680, Note_on_c, 0, 58, 55
3, 37920, Note_on_c, 0, 58, 0
3, 37920, Note_on_c, 0, 57, 57
3, 37930, Control_c, 0, 64, 0
3, 37994, Control_c, 0, 64, 127
3, 38160, Note_on_c, 0, 57, 0
3, 38160, Note_on_c, 0, 56, 51
3, 38165, Control_c, 0, 64, 0
3, 38280, Note_on_c, 0, 56, 0
3, 38400, Note_on_c, 0, 55, 51
3, 38640, Note_on_c, 0, 61, 44
3, 38640, Note_on_c, 0, 64, 44
3, 38880, Note_on_c, 0, 55, 0
3, 38880, Note_on_c, 0, 54, 51
3, 39120, Note_on_c, 0, 64, 0
3, 39120, Note_on_c, 0, 61, 0
3, 39120, Note_on_c, 0, 64, 42
3, 39120, Note_on_c, 0, 61, 42
3, 39143, Control_c, 0, 64, 127
3, 39360, Note_on_c, 0, 54, 0
3, 39360, Note_on_c, 0, 52, 51
3, 39363, Control_c, 0, 64, 0
3, 39402, Control_c, 0, 64, 127
3, 39600, Note_on_c, 0, 61, 0
3, 39600, Note_on_c, 0, 64, 0
3, 39600, Note_on_c, 0, 61, 44
3, 39600, Note_on_c, 0, 66, 44
3, 39600, Note_on_c, 0, 58, 44
3, 39840, Note_on_c, 0, 58, 0
3, 39840, Note_on_c, 0, 52, 0
3, 39840, Note_on_c, 0, 61, 0
3, 39840, Note_on_c, 0, 66, 0
3, 39840, Note_on_c, 0, 50, 51
3, 39847, Control_c, 0, 64, 0
3, 39946, Control_c, 0, 64, 127
3, 40080, Note_on_c, 0, 59, 44
3, 40080, Note_on_c, 0, 54, 44
3, 40080, Note_on_c, 0, 62, 44
3, 40140, Note_on_c, 0, 62, 0
3, 40140, Note_on_c, 0, 54, 0
3, 40140, Note_on_c, 0, 59, 0
3, 40147, Control_c, 0, 64, 0
3, 40320, Note_on_c, 0, 50, 0
3, 40320, Note_on_c, 0, 47, 74
3, 40380, Note_on_c, 0, 47, 0
3, 40440, Note_on_c, 0, 49, 64
3, 40500, Note_on_c, 0, 49, 0
3, 40560, Note_on_c, 0, 50, 70
3, 40620, Note_on_c, 0, 50, 0
3, 40680, Note_on_c, 0, 52, 62
3, 40740, Note_on_c, 0, 52, 0
3, 40800, Note_on_c, 0, 54, 75
3, 40860, Note_on_c, 0, 54, 0
3, 41040, Note_on_c, 0, 47, 60
3, 41040, Note_on_c, 0, 50, 60
3, 41040, Note_on_c, 0, 55, 67
3, 41040, Note_on_c, 0, 43, 60
3, 41065, Control_c, 0, 64, 127
3, 41195, Control_c, 0, 64, 0
3, 41220, Note_on_c, 0, 43, 0
3, 41220, Note_on_c, 0, 47, 0
3, 41220, Note_on_c, 0, 50, 0
3, 41220, Note_on_c, 0, 55, 0
3, 41280, Note_on_c, 0, 41, 71
3, 41360, Control_c, 0, 64, 127
3, 41520, Note_on_c, 0, 53, 64
3, 41760, Note_on_c, 0, 53, 0
3, 41760, Note_on_c, 0, 41, 0
3, 41760, Note_on_c, 0, 42, 72
3, 41770, Control_c, 0, 64, 0
3, 41863, Control_c, 0, 64, 127
3, 42000, Note_on_c, 0, 54, 63
3, 42240, Note_on_c, 0, 54, 0
3, 42240, Note_on_c, 0, 42, 0
3, 42240, Control_c, 0, 64, 0
3, 42240, Note_on_c, 0, 47, 74
3, 42300, Note_on_c, 0, 47, 0
3, 42360, Note_on_c, 0, 49, 63
3, 42420, Note_on_c, 0, 49, 0
3, 42480, Note_on_c, 0, 50, 70
3, 42540, Note_on_c, 0, 50, 0
3, 42600, Note_on_c, 0, 52, 64
3, 42660, Note_on_c, 0, 52, 0
3, 42720, Note_on_c, 0, 54, 75
3, 42780, Note_on_c, 0, 54, 0
3, 42960, Note_on_c, 0, 47, 60
3, 42960, Note_on_c, 0, 43, 60
3, 42960, Note_on_c, 0, 55, 67
3, 42960, Note_on_c, 0, 50, 60
3, 42985, Control_c, 0, 64, 127
3, 43115, Control_c, 0, 64, 0
3, 43140, Note_on_c, 0, 50, 0
3, 43140, Note_on_c, 0, 47, 0
3, 43140, Note_on_c, 0, 43, 0
3, 43140, Note_on_c, 0, 55, 0
3, 43200, Note_on_c, 0, 41, 71
3, 43280, Control_c, 0, 64, 127
3, 43440, Note_on_c, 0, 53, 64
3, 43680, Note_on_c, 0, 53, 0
3, 43680, Note_on_c, 0, 41, 0
3, 43680, Note_on_c, 0, 42, 72
3, 43691, Control_c, 0, 64, 0
3, 43794, Control_c, 0, 64, 127
3, 43920, Note_on_c, 0, 54, 63
3, 44160, Note_on_c, 0, 54, 0
3, 44160, Note_on_c, 0, 42, 0
3, 44160, Control_c, 0, 64, 0
3, 44160, Note_on_c, 0, 50, 74
3, 44220, Note_on_c, 0, 50, 0
3, 44280, Note_on_c, 0, 52, 61
3, 44340, Note_on_c, 0, 52, 0
3, 44400, Note_on_c, 0, 54, 69
3, 44460, Note_on_c, 0, 54, 0
3, 44520, Note_on_c, 0, 55, 60
3, 44580, Note_on_c, 0, 55, 0
3, 44640, Note_on_c, 0, 57, 75
3, 44700, Note_on_c, 0, 57, 0
3, 44880, Note_on_c, 0, 46, 61
3, 44880, Note_on_c, 0, 53, 61
3, 44880, Note_on_c, 0, 50, 61
3, 44880, Note_on_c, 0, 58, 69
3, 44905, Control_c, 0, 64, 127
3, 45021, Control_c, 0, 64, 0
3, 45060, Note_on_c, 0, 58, 0
3, 45060, Note_on_c, 0, 46, 0
3, 45060, Note_on_c, 0, 53, 0
3, 45060, Note_on_c, 0, 50, 0
3, 45120, Note_on_c, 0, 44, 71
3, 45200, Control_c, 0, 64, 127
3, 45360, Note_on_c, 0, 56, 64
3, 45600, Note_on_c, 0, 56, 0
3, 45600, Note_on_c, 0, 44, 0
3, 45600, Note_on_c, 0, 45, 72
3, 45609, Control_c, 0, 64, 0
3, 45703, Control_c, 0, 64, 127
3, 45840, Note_on_c, 0, 57, 63
3, 46023, Control_c, 0, 64, 0
3, 46080, Note_on_c, 0, 57, 0
3, 46080, Note_on_c, 0, 45, 0
3, 46080, Note_on_c, 0, 50, 74
3, 46140, Note_on_c, 0, 50, 0
3, 46200, Note_on_c, 0, 52, 64
3, 46260, Note_on_c, 0, 52, 0
3, 46320, Note_on_c, 0, 54, 70
3, 46380, Note_on_c, 0, 54, 0
3, 46440, Note_on_c, 0, 55, 64
3, 46500, Note_on_c, 0, 55, 0
3, 46560, Note_on_c, 0, 57, 75
3, 46620, Note_on_c, 0, 57, 0
3, 46800, Note_on_c, 0, 50, 61
3, 46800, Note_on_c, 0, 53, 61
3, 46800, Note_on_c, 0, 58, 69
3, 46800, Note_on_c, 0, 46, 61
3, 46825, Control_c, 0, 64, 127
3, 46952, Control_c, 0, 64, 0
3, 46980, Note_on_c, 0, 46, 0
3, 46980, Note_on_c, 0, 50, 0
3, 46980, Note_on_c, 0, 53, 0
3, 46980, Note_on_c, 0, 58, 0
3, 47040, Note_on_c, 0, 44, 71
3, 47120, Control_c, 0, 64, 127
3, 47280, Note_on_c, 0, 56, 64
3, 47520, Note_on_c, 0, 56, 0
3, 47520, Note_on_c, 0, 44, 0
3, 47520, Note_on_c, 0, 45, 72
3, 47530, Control_c, 0, 64, 0
3, 47611, Control_c, 0, 64, 127
3, 47760, Note_on_c, 0, 57, 63
3, 48000, Note_on_c, 0, 57, 0
3, 48000, Note_on_c, 0, 45, 0
3, 48000, Control_c, 0, 64, 0
3, 48000, Note_on_c, 0, 44, 71
3, 48114, Control_c, 0, 64, 127
3, 48240, Note_on_c, 0, 56, 64
3, 48480, Note_on_c, 0, 56, 0
3, 48480, Note_on_c, 0, 44, 0
3, 48480, Note_on_c, 0, 45, 72
3, 48490, Control_c, 0, 64, 0
3, 48606, Control_c, 0, 64, 127
3, 48720, Note_on_c, 0, 57, 63
3, 48960, Note_on_c, 0, 57, 0
3, 48960, Note_on_c, 0, 45, 0
3, 48960, Control_c, 0, 64, 0
3, 48960, Note_on_c, 0, 46, 71
3, 49040, Control_c, 0, 64, 127
3, 49200, Note_on_c, 0, 58, 64
3, 49440, Note_on_c, 0, 58, 0
3, 49440, Note_on_c, 0, 46, 0
3, 49440, Note_on_c, 0, 40, 72
3, 49451, Control_c, 0, 64, 0
3, 49543, Control_c, 0, 64, 127
3, 49680, Note_on_c, 0, 52, 63
3, 49920, Note_on_c, 0, 52, 0
3, 49920, Note_on_c, 0, 40, 0
3, 49920, Note_on_c, 0, 43, 71
3, 49929, Control_c, 0, 64, 0
3, 50046, Control_c, 0, 64, 127
3, 50160, Note_on_c, 0, 55, 64
3, 50400, Note_on_c, 0, 55, 0
3, 50400, Note_on_c, 0, 43, 0
3, 50400, Note_on_c, 0, 34, 72
3, 50410, Control_c, 0, 64, 0
3, 50514, Control_c, 0, 64, 127
3, 50640, Note_on_c, 0, 46, 63
3, 50880, Note_on_c, 0, 46, 0
3, 50880, Note_on_c, 0, 34, 0
3, 50880, Note_on_c, 0, 38, 71
3, 50887, Control_c, 0, 64, 0
3, 51021, Control_c, 0, 64, 127
3, 51120, Note_on_c, 0, 50, 64
3, 51360, Note_on_c, 0, 50, 0
3, 51360, Note_on_c, 0, 38, 0
3, 51360, Note_on_c, 0, 33, 72
3, 51372, Control_c, 0, 64, 0
3, 51473, Control_c, 0, 64, 127
3, 51600, Note_on_c, 0, 45, 63
3, 51840, Note_on_c, 0, 45, 0
3, 51840, Note_on_c, 0, 33, 0
3, 51840, Control_c, 0, 64, 0
3, 51840, Note_on_c, 0, 44, 68
3, 51960, Note_on_c, 0, 45, 59
3, 51980, Note_on_c, 0, 44, 0
3, 52080, Note_on_c, 0, 48, 62
3, 52100, Note_on_c, 0, 45, 0
3, 52200, Note_on_c, 0, 49, 57
3, 52220, Note_on_c, 0, 48, 0
3, 52320, Note_on_c, 0, 49, 0
3, 52800, Note_on_c, 0, 56, 71
3, 52920, Note_on_c, 0, 57, 63
3, 52940, Note_on_c, 0, 56, 0
3, 53040, Note_on_c, 0, 60, 69
3, 53060, Note_on_c, 0, 57, 0
3, 53160, Note_on_c, 0, 61, 63
3, 53180, Note_on_c, 0, 60, 0
3, 53280, Note_on_c, 0, 61, 0
3, 53760, Note_on_c, 0, 68, 73
3, 53880, Note_on_c, 0, 69, 62
3, 53900, Note_on_c, 0, 68, 0
3, 54000, Note_on_c, 0, 72, 70
3, 54020, Note_on_c, 0, 69, 0
3, 54120, Note_on_c, 0, 73, 61
3, 54140, Note_on_c, 0, 72, 0
3, 54240, Note_on_c, 0, 73, 0
3, 54720, Note_on_c, 0, 80, 74
3, 54840, Note_on_c, 0, 81, 66
3, 54860, Note_on_c, 0, 80, 0
3, 54960, Note_on_c, 0, 84, 73
3, 54980, Note_on_c, 0, 81, 0
3, 55080, Note_on_c, 0, 85, 64
3, 55100, Note_on_c, 0, 84, 0
3, 55200, Note_on_c, 0, 85, 0
3, 55680, Control_c, 0, 91, 127
3, 55681, Note_on_c, 0, 54, 64
3, 55681, Note_on_c, 0, 57, 74
3, 55681, Note_on_c, 0, 50, 64
3, 55771, Control_c, 0, 64, 127
3, 55920, Note_on_c, 0, 57, 0
3, 55920, Note_on_c, 0, 62, 61
3, 56160, Note_on_c, 0, 62, 0
3, 56160, Note_on_c, 0, 50, 0
3, 56160, Note_on_c, 0, 54, 0
3, 56160, Note_on_c, 0, 58, 71
3, 56160, Note_on_c, 0, 50, 62
3, 56160, Note_on_c, 0, 55, 62
3, 56170, Control_c, 0, 64, 0
3, 56251, Control_c, 0, 64, 127
3, 56400, Note_on_c, 0, 58, 0
3, 56400, Note_on_c, 0, 62, 56
3, 56640, Note_on_c, 0, 62, 0
3, 56640, Note_on_c, 0, 55, 0
3, 56640, Note_on_c, 0, 50, 0
3, 56640, Note_on_c, 0, 57, 74
3, 56640, Note_on_c, 0, 50, 64
3, 56640, Note_on_c, 0, 54, 64
3, 56651, Control_c, 0, 64, 0
3, 56800, Control_c, 0, 64, 127
3, 56880, Note_on_c, 0, 57, 0
3, 56880, Note_on_c, 0, 62, 61
3, 57120, Note_on_c, 0, 62, 0
3, 57120, Note_on_c, 0, 54, 0
3, 57120, Note_on_c, 0, 50, 0
3, 57120, Note_on_c, 0, 58, 71
3, 57120, Note_on_c, 0, 50, 62
3, 57120, Note_on_c, 0, 55, 62
3, 57130, Control_c, 0, 64, 0
3, 57234, Control_c, 0, 64, 127
3, 57360, Note_on_c, 0, 58, 0
3, 57360, Note_on_c, 0, 62, 56
3, 57600, Note_on_c, 0, 62, 0
3, 57600, Note_on_c, 0, 55, 0
3, 57600, Note_on_c, 0, 50, 0
3, 57600, Control_c, 0, 64, 0
3, 57600, Note_on_c, 0, 62, 63
3, 57600, Note_on_c, 0, 69, 70
3, 57600, Note_on_c, 0, 66, 70
3, 57600, Note_on_c, 0, 60, 63
3, 58560, Note_on_c, 0, 60, 0
3, 58560, Note_on_c, 0, 62, 0
3, 58560, Note_on_c, 0, 69, 0
3, 58560, Note_on_c, 0, 66, 0
3, 58560, Note_on_c, 0, 58, 70
3, 58620, Note_on_c, 0, 58, 0
3, 58680, Note_on_c, 0, 57, 60
3, 58740, Note_on_c, 0, 57, 0
3, 58800, Note_on_c, 0, 55, 67
3, 58860, Note_on_c, 0, 55, 0
3, 58920, Note_on_c, 0, 54, 60
3, 58980, Note_on_c, 0, 54, 0
3, 59040, Note_on_c, 0, 52, 72
3, 59097, Control_c, 0, 64, 127
3, 59280, Note_on_c, 0, 52, 0
3, 59280, Note_on_c, 0, 57, 66
3, 59520, Note_on_c, 0, 57, 0
3, 59520, Control_c, 0, 64, 0
3, 59520, Note_on_c, 0, 57, 74
3, 59520, Note_on_c, 0, 54, 64
3, 59520, Note_on_c, 0, 50, 64
3, 59680, Control_c, 0, 64, 127
3, 59760, Note_on_c, 0, 57, 0
3, 59760, Note_on_c, 0, 62, 61
3, 60000, Note_on_c, 0, 62, 0
3, 60000, Note_on_c, 0, 50, 0
3, 60000, Note_on_c, 0, 54, 0
3, 60000, Note_on_c, 0, 55, 62
3, 60000, Note_on_c, 0, 50, 62
3, 60000, Note_on_c, 0, 58, 71
3, 60010, Control_c, 0, 64, 0
3, 60091, Control_c, 0, 64, 127
3, 60240, Note_on_c, 0, 58, 0
3, 60240, Note_on_c, 0, 62, 53
3, 60480, Note_on_c, 0, 62, 0
3, 60480, Note_on_c, 0, 50, 0
3, 60480, Note_on_c, 0, 55, 0
3, 60480, Note_on_c, 0, 57, 74
3, 60480, Note_on_c, 0, 54, 64
3, 60480, Note_on_c, 0, 50, 64
3, 60489, Control_c, 0, 64, 0
3, 60594, Control_c, 0, 64, 127
3, 60720, Note_on_c, 0, 57, 0
3, 60720, Note_on_c, 0, 62, 60
3, 60960, Note_on_c, 0, 62, 0
3, 60960, Note_on_c, 0, 50, 0
3, 60960, Note_on_c, 0, 54, 0
3, 60960, Note_on_c, 0, 55, 62
3, 60960, Note_on_c, 0, 50, 62
3, 60960, Note_on_c, 0, 58, 71
3, 60970, Control_c, 0, 64, 0
3, 61074, Control_c, 0, 64, 127
3, 61200, Note_on_c, 0, 58, 0
3, 61200, Note_on_c, 0, 62, 53
3, 61440, Note_on_c, 0, 62, 0
3, 61440, Note_on_c, 0, 50, 0
3, 61440, Note_on_c, 0, 55, 0
3, 61440, Control_c, 0, 64, 0
3, 61440, Note_on_c, 0, 62, 63
3, 61440, Note_on_c, 0, 60, 63
3, 61440, Note_on_c, 0, 66, 70
3, 61440, Note_on_c, 0, 69, 70
3, 62400, Note_on_c, 0, 69, 0
3, 62400, Note_on_c, 0, 62, 0
3, 62400, Note_on_c, 0, 60, 0
3, 62400, Note_on_c, 0, 66, 0
3, 62400, Note_on_c, 0, 58, 60
3, 62400, Note_on_c, 0, 62, 60
3, 62460, Note_on_c, 0, 62, 0
3, 62460, Note_on_c, 0, 58, 0
3, 62640, Note_on_c, 0, 58, 66
3, 62700, Note_on_c, 0, 58, 0
3, 62760, Note_on_c, 0, 57, 68
3, 62820, Note_on_c, 0, 57, 0
3, 62880, Note_on_c, 0, 55, 71
3, 63120, Note_on_c, 0, 55, 0
3, 63360, Note_on_c, 0, 43, 41
3, 63360, Note_on_c, 0, 51, 41
3, 63373, Control_c, 0, 64, 127
3, 63600, Note_on_c, 0, 58, 37
3, 63840, Note_on_c, 0, 58, 0
3, 63840, Note_on_c, 0, 51, 0
3, 63840, Note_on_c, 0, 43, 0
3, 63840, Note_on_c, 0, 56, 43
3, 63850, Control_c, 0, 64, 0
3, 63928, Control_c, 0, 64, 127
3, 64080, Note_on_c, 0, 51, 37
3, 64080, Note_on_c, 0, 44, 37
3, 64252, Control_c, 0, 64, 0
3, 64320, Note_on_c, 0, 44, 0
3, 64320, Note_on_c, 0, 51, 0
3, 64320, Note_on_c, 0, 56, 0
3, 64320, Note_on_c, 0, 45, 44
3, 64320, Note_on_c, 0, 53, 44
3, 64375, Control_c, 0, 64, 127
3, 64560, Note_on_c, 0, 60, 40
3, 64800, Note_on_c, 0, 60, 0
3, 64800, Note_on_c, 0, 53, 0
3, 64800, Note_on_c, 0, 45, 0
3, 64800, Note_on_c, 0, 58, 48
3, 64810, Control_c, 0, 64, 0
3, 64888, Control_c, 0, 64, 127
3, 65040, Note_on_c, 0, 46, 40
3, 65040, Note_on_c, 0, 53, 40
3, 65212, Control_c, 0, 64, 0
3, 65280, Note_on_c, 0, 53, 0
3, 65280, Note_on_c, 0, 46, 0
3, 65280, Note_on_c, 0, 58, 0
3, 65280, Note_on_c, 0, 55, 45
3, 65280, Note_on_c, 0, 47, 45
3, 65368, Control_c, 0, 64, 127
3, 65520, Note_on_c, 0, 59, 38
3, 65760, Note_on_c, 0, 59, 0
3, 65760, Note_on_c, 0, 47, 0
3, 65760, Note_on_c, 0, 55, 0
3, 65760, Note_on_c, 0, 55, 47
3, 65760, Note_on_c, 0, 48, 47
3, 65766, Control_c, 0, 64, 0
3, 65848, Control_c, 0, 64, 127
3, 66000, Note_on_c, 0, 60, 39
3, 66240, Note_on_c, 0, 60, 0
3, 66240, Note_on_c, 0, 48, 0
3, 66240, Note_on_c, 0, 55, 0
3, 66240, Note_on_c, 0, 55, 49
3, 66240, Note_on_c, 0, 50, 49
3, 66251, Control_c, 0, 64, 0
3, 66328, Control_c, 0, 64, 127
3, 66480, Note_on_c, 0, 62, 41
3, 66720, Note_on_c, 0, 62, 0
3, 66720, Note_on_c, 0, 50, 0
3, 66720, Note_on_c, 0, 55, 0
3, 66720, Note_on_c, 0, 48, 47
3, 66720, Note_on_c, 0, 55, 47
3, 66726, Control_c, 0, 64, 0
3, 66808, Control_c, 0, 64, 127
3, 66960, Note_on_c, 0, 60, 40
3, 67132, Control_c, 0, 64, 0
3, 67200, Note_on_c, 0, 60, 0
3, 67200, Note_on_c, 0, 55, 0
3, 67200, Note_on_c, 0, 48, 0
3, 67200, Note_on_c, 0, 47, 46
3, 67200, Note_on_c, 0, 55, 46
3, 67262, Control_c, 0, 64, 127
3, 67440, Note_on_c, 0, 62, 42
3, 67680, Note_on_c, 0, 62, 0
3, 67680, Note_on_c, 0, 55, 0
3, 67680, Note_on_c, 0, 47, 0
3, 67680, Note_on_c, 0, 60, 51
3, 67694, Control_c, 0, 64, 0
3, 67768, Control_c, 0, 64, 127
3, 67920, Note_on_c, 0, 55, 42
3, 67920, Note_on_c, 0, 48, 42
3, 68092, Control_c, 0, 64, 0
3, 68160, Note_on_c, 0, 48, 0
3, 68160, Note_on_c, 0, 55, 0
3, 68160, Note_on_c, 0, 60, 0
3, 68160, Note_on_c, 0, 57, 52
3, 68160, Note_on_c, 0, 49, 52
3, 68215, Control_c, 0, 64, 127
3, 68400, Note_on_c, 0, 64, 46
3, 68640, Note_on_c, 0, 64, 0
3, 68640, Note_on_c, 0, 49, 0
3, 68640, Note_on_c, 0, 57, 0
3, 68640, Note_on_c, 0, 62, 54
3, 68651, Control_c, 0, 64, 0
3, 68728, Control_c, 0, 64, 127
3, 68880, Note_on_c, 0, 57, 47
3, 68880, Note_on_c, 0, 50, 47
3, 69052, Control_c, 0, 64, 0
3, 69120, Note_on_c, 0, 50, 0
3, 69120, Note_on_c, 0, 57, 0
3, 69120, Note_on_c, 0, 62, 0
3, 69120, Note_on_c, 0, 57, 54
3, 69120, Note_on_c, 0, 49, 54
3, 69208, Control_c, 0, 64, 127
3, 69360, Note_on_c, 0, 49, 0
3, 69360, Note_on_c, 0, 61, 46
3, 69600, Note_on_c, 0, 61, 0
3, 69600, Note_on_c, 0, 57, 0
3, 69600, Note_on_c, 0, 57, 56
3, 69600, Note_on_c, 0, 50, 56
3, 69608, Control_c, 0, 64, 0
3, 69688, Control_c, 0, 64, 127
3, 69840, Note_on_c, 0, 50, 0
3, 69840, Note_on_c, 0, 62, 47
3, 70080, Note_on_c, 0, 62, 0
3, 70080, Note_on_c, 0, 57, 0
3, 70080, Note_on_c, 0, 57, 57
3, 70080, Note_on_c, 0, 52, 57
3, 70090, Control_c, 0, 64, 0
3, 70168, Control_c, 0, 64, 127
3, 70320, Note_on_c, 0, 52, 0
3, 70320, Note_on_c, 0, 64, 49
3, 70560, Note_on_c, 0, 64, 0
3, 70560, Note_on_c, 0, 57, 0
3, 70560, Note_on_c, 0, 57, 56
3, 70560, Note_on_c, 0, 50, 56
3, 70567, Control_c, 0, 64, 0
3, 70648, Control_c, 0, 64, 127
3, 70800, Note_on_c, 0, 50, 0
3, 70800, Note_on_c, 0, 62, 48
3, 71040, Note_on_c, 0, 62, 0
3, 71040, Note_on_c, 0, 57, 0
3, 71040, Control_c, 0, 64, 0
3, 71040, Note_on_c, 0, 57, 58
3, 71040, Note_on_c, 0, 49, 58
3, 71165, Control_c, 0, 64, 127
3, 71280, Note_on_c, 0, 49, 0
3, 71280, Note_on_c, 0, 61, 49
3, 71520, Note_on_c, 0, 61, 0
3, 71520, Note_on_c, 0, 57, 0
3, 71520, Note_on_c, 0, 57, 61
3, 71520, Note_on_c, 0, 50, 61
3, 71528, Control_c, 0, 64, 0
3, 71608, Control_c, 0, 64, 127
3, 71760, Note_on_c, 0, 50, 0
3, 71760, Note_on_c, 0, 62, 52
3, 72000, Note_on_c, 0, 62, 0
3, 72000, Note_on_c, 0, 57, 0
3, 72000, Note_on_c, 0, 51, 63
3, 72000, Note_on_c, 0, 59, 63
3, 72010, Control_c, 0, 64, 0
3, 72088, Control_c, 0, 64, 127
3, 72240, Note_on_c, 0, 51, 0
3, 72240, Note_on_c, 0, 63, 53
3, 72480, Note_on_c, 0, 63, 0
3, 72480, Note_on_c, 0, 59, 0
3, 72480, Note_on_c, 0, 52, 60
3, 72480, Note_on_c, 0, 59, 60
3, 72488, Control_c, 0, 64, 0
3, 72568, Control_c, 0, 64, 127
3, 72720, Note_on_c, 0, 52, 0
3, 72720, Note_on_c, 0, 64, 52
3, 72960, Note_on_c, 0, 64, 0
3, 72960, Note_on_c, 0, 59, 0
3, 72960, Control_c, 0, 64, 0
3, 72960, Note_on_c, 0, 59, 64
3, 72960, Note_on_c, 0, 51, 64
3, 73048, Control_c, 0, 64, 127
3, 73200, Note_on_c, 0, 51, 0
3, 73200, Note_on_c, 0, 63, 54
3, 73440, Note_on_c, 0, 63, 0
3, 73440, Note_on_c, 0, 59, 0
3, 73440, Note_on_c, 0, 59, 66
3, 73440, Note_on_c, 0, 52, 66
3, 73447, Control_c, 0, 64, 0
3, 73528, Control_c, 0, 64, 127
3, 73680, Note_on_c, 0, 52, 0
3, 73680, Note_on_c, 0, 64, 56
3, 73920, Note_on_c, 0, 64, 0
3, 73920, Note_on_c, 0, 59, 0
3, 73920, Note_on_c, 0, 61, 67
3, 73920, Note_on_c, 0, 53, 67
3, 73930, Control_c, 0, 64, 0
3, 74008, Control_c, 0, 64, 127
3, 74160, Note_on_c, 0, 53, 0
3, 74160, Note_on_c, 0, 65, 57
3, 74400, Note_on_c, 0, 65, 0
3, 74400, Note_on_c, 0, 61, 0
3, 74400, Note_on_c, 0, 54, 65
3, 74400, Note_on_c, 0, 61, 65
3, 74406, Control_c, 0, 64, 0
3, 74488, Control_c, 0, 64, 127
3, 74640, Note_on_c, 0, 54, 0
3, 74640, Note_on_c, 0, 66, 56
3, 74880, Note_on_c, 0, 66, 0
3, 74880, Note_on_c, 0, 61, 0
3, 74880, Control_c, 0, 64, 0
3, 74880, Note_on_c, 0, 54, 72
3, 74880, Note_on_c, 0, 62, 72
3, 75035, Control_c, 0, 64, 127
3, 75120, Note_on_c, 0, 54, 0
3, 75120, Note_on_c, 0, 66, 60
3, 75360, Note_on_c, 0, 66, 0
3, 75360, Note_on_c, 0, 62, 0
3, 75360, Note_on_c, 0, 55, 70
3, 75360, Note_on_c, 0, 62, 70
3, 75369, Control_c, 0, 64, 0
3, 75529, Control_c, 0, 64, 127
3, 75600, Note_on_c, 0, 55, 0
3, 75600, Note_on_c, 0, 67, 60
3, 75840, Note_on_c, 0, 67, 0
3, 75840, Note_on_c, 0, 62, 0
3, 75840, Note_on_c, 0, 54, 73
3, 75840, Note_on_c, 0, 62, 73
3, 75850, Control_c, 0, 64, 0
3, 75928, Control_c, 0, 64, 127
3, 76080, Note_on_c, 0, 54, 0
3, 76080, Note_on_c, 0, 66, 61
3, 76320, Note_on_c, 0, 66, 0
3, 76320, Note_on_c, 0, 62, 0
3, 76320, Note_on_c, 0, 62, 71
3, 76320, Note_on_c, 0, 55, 71
3, 76331, Control_c, 0, 64, 0
3, 76419, Control_c, 0, 64, 127
3, 76560, Note_on_c, 0, 55, 0
3, 76560, Note_on_c, 0, 67, 60
3, 76800, Note_on_c, 0, 67, 0
3, 76800, Note_on_c, 0, 62, 0
3, 76800, Control_c, 0, 64, 0
3, 76800, Note_on_c, 0, 70, 69
3, 76800, Note_on_c, 0, 67, 69
3, 76800, Note_on_c, 0, 74, 77
3, 76920, Note_on_c, 0, 74, 0
3, 76920, Note_on_c, 0, 67, 0
3, 76920, Note_on_c, 0, 70, 0
3, 77280, Note_on_c, 0, 76, 80
3, 77340, Note_on_c, 0, 76, 0
3, 77400, Note_on_c, 0, 74, 71
3, 77460, Note_on_c, 0, 74, 0
3, 77520, Note_on_c, 0, 70, 75
3, 77580, Note_on_c, 0, 70, 0
3, 77640, Note_on_c, 0, 69, 67
3, 77700, Note_on_c, 0, 69, 0
3, 77760, Note_on_c, 0, 67, 82
3, 77880, Note_on_c, 0, 67, 0
3, 78240, Note_on_c, 0, 52, 71
3, 78300, Note_on_c, 0, 52, 0
3, 78360, Note_on_c, 0, 50, 62
3, 78420, Note_on_c, 0, 50, 0
3, 78480, Note_on_c, 0, 46, 68
3, 78540, Note_on_c, 0, 46, 0
3, 78600, Note_on_c, 0, 45, 61
3, 78660, Note_on_c, 0, 45, 0
3, 78720, Note_on_c, 0, 43, 75
3, 78840, Note_on_c, 0, 43, 0
3, 78960, Note_on_c, 0, 43, 69
3, 79080, Note_on_c, 0, 43, 0
3, 79200, Note_on_c, 0, 44, 74
3, 79320, Note_on_c, 0, 44, 0
3, 79320, Note_on_c, 0, 45, 66
3, 79440, Note_on_c, 0, 45, 0
3, 79440, Note_on_c, 0, 46, 73
3, 79560, Note_on_c, 0, 46, 0
3, 79560, Note_on_c, 0, 44, 64
3, 79680, Note_on_c, 0, 44, 0
3, 79680, Note_on_c, 0, 45, 73
3, 79907, Control_c, 0, 64, 127
3, 79920, Note_on_c, 0, 45, 0
3, 79920, Note_on_c, 0, 55, 71
3, 79920, Note_on_c, 0, 45, 71
3, 80093, Control_c, 0, 64, 0
3, 80100, Note_on_c, 0, 45, 0
3, 80100, Note_on_c, 0, 55, 0
3, 80160, Note_on_c, 0, 54, 77
3, 80160, Note_on_c, 0, 50, 77
3, 80274, Control_c, 0, 64, 127
3, 80400, Note_on_c, 0, 50, 0
3, 80400, Note_on_c, 0, 54, 0
3, 80463, Control_c, 0, 64, 0
3, 80640, Note_on_c, 0, 54, 73
3, 80640, Note_on_c, 0, 46, 64
3, 80640, Note_on_c, 0, 58, 73
3, 80720, Control_c, 0, 64, 127
3, 81120, Note_on_c, 0, 54, 0
3, 81120, Note_on_c, 0, 55, 57
3, 81600, Note_on_c, 0, 55, 0
3, 81600, Note_on_c, 0, 58, 0
3, 81600, Note_on_c, 0, 46, 0
3, 81600, Note_on_c, 0, 56, 69
3, 81600, Note_on_c, 0, 60, 69
3, 81600, Note_on_c, 0, 48, 62
3, 81606, Control_c, 0, 64, 0
3, 81806, Control_c, 0, 64, 127
3, 82080, Note_on_c, 0, 56, 0
3, 82080, Note_on_c, 0, 57, 59
3, 82560, Note_on_c, 0, 57, 0
3, 82560, Note_on_c, 0, 48, 0
3, 82560, Note_on_c, 0, 60, 0
3, 82560, Control_c, 0, 64, 0
3, 82560, Note_on_c, 0, 49, 63
3, 82560, Note_on_c, 0, 61, 70
3, 82560, Note_on_c, 0, 57, 70
3, 82606, Control_c, 0, 64, 127
3, 83040, Note_on_c, 0, 57, 0
3, 83040, Note_on_c, 0, 61, 0
3, 83040, Note_on_c, 0, 49, 0
3, 83040, Note_on_c, 0, 50, 56
3, 83040, Note_on_c, 0, 58, 63
3, 83040, Note_on_c, 0, 62, 63
3, 83050, Control_c, 0, 64, 0
3, 83097, Control_c, 0, 64, 127
3, 83280, Note_on_c, 0, 62, 0
3, 83280, Note_on_c, 0, 58, 0
3, 83280, Note_on_c, 0, 50, 0
3, 83285, Control_c, 0, 64, 0
3, 83520, Note_on_c, 0, 48, 55
3, 83520, Note_on_c, 0, 55, 62
3, 83634, Control_c, 0, 64, 127
3, 84000, Note_on_c, 0, 55, 0
3, 84000, Note_on_c, 0, 48, 0
3, 84000, Note_on_c, 0, 41, 44
3, 84000, Note_on_c, 0, 48, 50
3, 84010, Control_c, 0, 64, 0
3, 84240, Note_on_c, 0, 48, 0
3, 84240, Note_on_c, 0, 41, 0
3, 84480, Note_on_c, 0, 29, 35
3, 84480, Note_on_c, 0, 41, 39
3, 84571, Control_c, 0, 64, 127
3, 84720, Note_on_c, 0, 41, 0
3, 84720, Note_on_c, 0, 29, 0
3, 84960, Note_on_c, 0, 41, 37
3, 84960, Note_on_c, 0, 48, 37
3, 84960, Note_on_c, 0, 55, 41
3, 84971, Control_c, 0, 64, 0
3, 85143, Control_c, 0, 64, 127
3, 85920, Note_on_c, 0, 55, 0
3, 85920, Note_on_c, 0, 48, 0
3, 85920, Note_on_c, 0, 41, 0
3, 85920, Note_on_c, 0, 41, 26
3, 85920, Note_on_c, 0, 48, 26
3, 85920, Note_on_c, 0, 53, 29
3, 85932, Control_c, 0, 64, 0
3, 86075, Control_c, 0, 64, 127
3, 86400, Note_on_c, 0, 53, 0
3, 86400, Note_on_c, 0, 48, 0
3, 86400, Note_on_c, 0, 41, 0
3, 86400, Control_c, 0, 64, 0
3, 86514, Control_c, 0, 64, 127
3, 86640, Note_on_c, 0, 48, 37
3, 86880, Note_on_c, 0, 48, 0
3, 86880, Note_on_c, 0, 53, 40
3, 86885, Control_c, 0, 64, 0
3, 87051, Control_c, 0, 64, 127
3, 87120, Note_on_c, 0, 53, 0
3, 87120, Note_on_c, 0, 52, 35
3, 87360, Note_on_c, 0, 52, 0
3, 87360, Note_on_c, 0, 50, 38
3, 87600, Note_on_c, 0, 50, 0
3, 87600, Note_on_c, 0, 52, 35
3, 87840, Note_on_c, 0, 52, 0
3, 87840, Note_on_c, 0, 53, 36
3, 87850, Control_c, 0, 64, 0
3, 88022, Control_c, 0, 64, 127
3, 88320, Note_on_c, 0, 53, 0
3, 88320, Control_c, 0, 64, 0
3, 88320, Note_on_c, 0, 57, 40
3, 88445, Control_c, 0, 64, 127
3, 88560, Note_on_c, 0, 57, 0
3, 88560, Note_on_c, 0, 50, 46
3, 88800, Note_on_c, 0, 50, 0
3, 88800, Note_on_c, 0, 41, 40
3, 88983, Control_c, 0, 64, 0
3, 89040, Note_on_c, 0, 41, 0
3, 89280, Note_on_c, 0, 58, 47
3, 89312, Control_c, 0, 64, 127
3, 89520, Note_on_c, 0, 58, 0
3, 89520, Note_on_c, 0, 50, 51
3, 89760, Note_on_c, 0, 50, 0
3, 89760, Note_on_c, 0, 43, 48
3, 89779, Control_c, 0, 64, 0
3, 90000, Note_on_c, 0, 43, 0
3, 90240, Note_on_c, 0, 59, 56
3, 90320, Control_c, 0, 64, 127
3, 90480, Note_on_c, 0, 59, 0
3, 90480, Note_on_c, 0, 52, 59
3, 90720, Note_on_c, 0, 52, 0
3, 90720, Note_on_c, 0, 44, 55
3, 90735, Control_c, 0, 64, 0
3, 90960, Note_on_c, 0, 44, 0
3, 91200, Note_on_c, 0, 61, 62
3, 91291, Control_c, 0, 64, 127
3, 91440, Note_on_c, 0, 61, 0
3, 91440, Note_on_c, 0, 52, 68
3, 91680, Note_on_c, 0, 52, 0
3, 91680, Note_on_c, 0, 45, 63
3, 91697, Control_c, 0, 64, 0
3, 91920, Note_on_c, 0, 45, 0
3, 92160, Note_on_c, 0, 54, 73
3, 92160, Note_on_c, 0, 46, 64
3, 92160, Note_on_c, 0, 58, 73
3, 92400, Control_c, 0, 64, 127
3, 92640, Note_on_c, 0, 54, 0
3, 92640, Note_on_c, 0, 55, 62
3, 93120, Note_on_c, 0, 55, 0
3, 93120, Note_on_c, 0, 58, 0
3, 93120, Note_on_c, 0, 46, 0
3, 93120, Note_on_c, 0, 56, 69
3, 93120, Note_on_c, 0, 60, 69
3, 93120, Note_on_c, 0, 48, 62
3, 93126, Control_c, 0, 64, 0
3, 93348, Control_c, 0, 64, 127
3, 93600, Note_on_c, 0, 56, 0
3, 93600, Note_on_c, 0, 57, 60
3, 94080, Note_on_c, 0, 57, 0
3, 94080, Note_on_c, 0, 48, 0
3, 94080, Note_on_c, 0, 60, 0
3, 94080, Control_c, 0, 64, 0
3, 94080, Note_on_c, 0, 49, 63
3, 94080, Note_on_c, 0, 61, 70
3, 94080, Note_on_c, 0, 57, 70
3, 94177, Control_c, 0, 64, 127
3, 94560, Note_on_c, 0, 57, 0
3, 94560, Note_on_c, 0, 61, 0
3, 94560, Note_on_c, 0, 49, 0
3, 94560, Note_on_c, 0, 50, 56
3, 94560, Note_on_c, 0, 58, 63
3, 94560, Note_on_c, 0, 62, 63
3, 94569, Control_c, 0, 64, 0
3, 94617, Control_c, 0, 64, 127
3, 94800, Note_on_c, 0, 62, 0
3, 94800, Note_on_c, 0, 58, 0
3, 94800, Note_on_c, 0, 50, 0
3, 94840, Control_c, 0, 64, 0
3, 95040, Note_on_c, 0, 48, 55
3, 95040, Note_on_c, 0, 55, 62
3, 95154, Control_c, 0, 64, 127
3, 95520, Note_on_c, 0, 55, 0
3, 95520, Note_on_c, 0, 48, 0
3, 95520, Note_on_c, 0, 41, 44
3, 95520, Note_on_c, 0, 48, 50
3, 95533, Control_c, 0, 64, 0
3, 95760, Note_on_c, 0, 48, 0
3, 95760, Note_on_c, 0, 41, 0
3, 96000, Note_on_c, 0, 29, 35
3, 96000, Note_on_c, 0, 41, 39
3, 96091, Control_c, 0, 64, 127
3, 96240, Note_on_c, 0, 41, 0
3, 96240, Note_on_c, 0, 29, 0
3, 96480, Note_on_c, 0, 41, 37
3, 96480, Note_on_c, 0, 48, 37
3, 96480, Note_on_c, 0, 55, 41
3, 96494, Control_c, 0, 64, 0
3, 96663, Control_c, 0, 64, 127
3, 97440, Note_on_c, 0, 55, 0
3, 97440, Note_on_c, 0, 48, 0
3, 97440, Note_on_c, 0, 41, 0
3, 97440, Note_on_c, 0, 41, 26
3, 97440, Note_on_c, 0, 48, 26
3, 97440, Note_on_c, 0, 53, 29
3, 97454, Control_c, 0, 64, 0
3, 97595, Control_c, 0, 64, 127
3, 97920, Note_on_c, 0, 53, 0
3, 97920, Note_on_c, 0, 48, 0
3, 97920, Note_on_c, 0, 41, 0
3, 97920, Control_c, 0, 64, 0
3, 98034, Control_c, 0, 64, 127
3, 98160, Note_on_c, 0, 48, 37
3, 98400, Note_on_c, 0, 48, 0
3, 98400, Note_on_c, 0, 53, 40
3, 98404, Control_c, 0, 64, 0
3, 98571, Control_c, 0, 64, 127
3, 98640, Note_on_c, 0, 53, 0
3, 98640, Note_on_c, 0, 52, 35
3, 98880, Note_on_c, 0, 52, 0
3, 98880, Note_on_c, 0, 50, 38
3, 99120, Note_on_c, 0, 50, 0
3, 99120, Note_on_c, 0, 52, 35
3, 99360, Note_on_c, 0, 52, 0
3, 99360, Note_on_c, 0, 53, 36
3, 99370, Control_c, 0, 64, 0
3, 99542, Control_c, 0, 64, 127
3, 99840, Note_on_c, 0, 53, 0
3, 99840, Control_c, 0, 64, 0
3, 99840, Note_on_c, 0, 57, 40
3, 99920, Control_c, 0, 64, 127
3, 100080, Note_on_c, 0, 57, 0
3, 100080, Note_on_c, 0, 50, 46
3, 100320, Note_on_c, 0, 50, 0
3, 100320, Note_on_c, 0, 41, 40
3, 100335, Control_c, 0, 64, 0
3, 100560, Note_on_c, 0, 41, 0
3, 100800, Note_on_c, 0, 58, 47
3, 100832, Control_c, 0, 64, 127
3, 101040, Note_on_c, 0, 58, 0
3, 101040, Note_on_c, 0, 50, 51
3, 101280, Note_on_c, 0, 50, 0
3, 101280, Note_on_c, 0, 43, 48
3, 101296, Control_c, 0, 64, 0
3, 101520, Note_on_c, 0, 43, 0
3, 101760, Note_on_c, 0, 59, 56
3, 101840, Control_c, 0, 64, 127
3, 102000, Note_on_c, 0, 59, 0
3, 102000, Note_on_c, 0, 52, 59
3, 102240, Note_on_c, 0, 52, 0
3, 102240, Note_on_c, 0, 44, 55
3, 102255, Control_c, 0, 64, 0
3, 102480, Note_on_c, 0, 44, 0
3, 102720, Note_on_c, 0, 61, 62
3, 102811, Control_c, 0, 64, 127
3, 102960, Note_on_c, 0, 61, 0
3, 102960, Note_on_c, 0, 52, 68
3, 103200, Note_on_c, 0, 52, 0
3, 103200, Note_on_c, 0, 45, 63
3, 103214, Control_c, 0, 64, 0
3, 103440, Note_on_c, 0, 45, 0
3, 103680, Note_on_c, 0, 53, 64
3, 103680, Note_on_c, 0, 45, 64
3, 103680, Note_on_c, 0, 57, 73
3, 103760, Control_c, 0, 64, 127
3, 104160, Note_on_c, 0, 57, 0
3, 104160, Note_on_c, 0, 45, 0
3, 104160, Note_on_c, 0, 46, 58
3, 104160, Note_on_c, 0, 58, 66
3, 104640, Note_on_c, 0, 58, 0
3, 104640, Note_on_c, 0, 46, 0
3, 104640, Note_on_c, 0, 53, 0
3, 104640, Note_on_c, 0, 55, 64
3, 104640, Note_on_c, 0, 47, 62
3, 104640, Note_on_c, 0, 59, 69
3, 104651, Control_c, 0, 64, 0
3, 104823, Control_c, 0, 64, 127
3, 105120, Note_on_c, 0, 59, 0
3, 105120, Note_on_c, 0, 47, 0
3, 105120, Note_on_c, 0, 48, 57
3, 105120, Note_on_c, 0, 60, 64
3, 105136, Control_c, 0, 64, 0
3, 105600, Note_on_c, 0, 60, 0
3, 105600, Note_on_c, 0, 48, 0
3, 105600, Note_on_c, 0, 55, 0
3, 105600, Note_on_c, 0, 60, 63
3, 105600, Note_on_c, 0, 52, 63
3, 105600, Note_on_c, 0, 64, 70
3, 105646, Control_c, 0, 64, 127
3, 106080, Note_on_c, 0, 64, 0
3, 106080, Note_on_c, 0, 52, 0
3, 106080, Note_on_c, 0, 53, 56
3, 106080, Note_on_c, 0, 65, 63
3, 106091, Control_c, 0, 64, 0
3, 106137, Control_c, 0, 64, 127
3, 106320, Note_on_c, 0, 65, 0
3, 106320, Note_on_c, 0, 53, 0
3, 106327, Control_c, 0, 64, 0
3, 106560, Note_on_c, 0, 60, 0
3, 106560, Note_on_c, 0, 57, 70
3, 106606, Control_c, 0, 64, 127
3, 107040, Note_on_c, 0, 57, 0
3, 107040, Note_on_c, 0, 58, 63
3, 107052, Control_c, 0, 64, 0
3, 107097, Control_c, 0, 64, 127
3, 107273, Control_c, 0, 64, 0
3, 107280, Note_on_c, 0, 58, 0
3, 107520, Note_on_c, 0, 58, 39
3, 107611, Control_c, 0, 64, 127
3, 108000, Note_on_c, 0, 58, 0
3, 108000, Note_on_c, 0, 57, 41
3, 108010, Control_c, 0, 64, 0
3, 108183, Control_c, 0, 64, 127
3, 108480, Note_on_c, 0, 50, 41
3, 108960, Note_on_c, 0, 57, 0
3, 108960, Note_on_c, 0, 43, 26
3, 108960, Note_on_c, 0, 55, 29
3, 108970, Control_c, 0, 64, 0
3, 109120, Control_c, 0, 64, 127
3, 109200, Note_on_c, 0, 55, 0
3, 109200, Note_on_c, 0, 43, 0
3, 109200, Note_on_c, 0, 50, 0
3, 109246, Control_c, 0, 64, 0
3, 109440, Note_on_c, 0, 70, 39
3, 109531, Control_c, 0, 64, 127
3, 109920, Note_on_c, 0, 70, 0
3, 109920, Note_on_c, 0, 69, 41
3, 109925, Control_c, 0, 64, 0
3, 110103, Control_c, 0, 64, 127
3, 110400, Note_on_c, 0, 62, 41
3, 110880, Note_on_c, 0, 69, 0
3, 110880, Note_on_c, 0, 55, 26
3, 110880, Note_on_c, 0, 67, 29
3, 110890, Control_c, 0, 64, 0
3, 111000, Control_c, 0, 64, 127
3, 111120, Note_on_c, 0, 67, 0
3, 111120, Note_on_c, 0, 55, 0
3, 111120, Note_on_c, 0, 62, 0
3, 111166, Control_c, 0, 64, 0
3, 111360, Note_on_c, 0, 55, 64
3, 111360, Note_on_c, 0, 47, 64
3, 111360, Note_on_c, 0, 59, 73
3, 111565, Control_c, 0, 64, 127
3, 111840, Note_on_c, 0, 59, 0
3, 111840, Note_on_c, 0, 47, 0
3, 111840, Note_on_c, 0, 48, 58
3, 111840, Note_on_c, 0, 60, 66
3, 112320, Note_on_c, 0, 60, 0
3, 112320, Note_on_c, 0, 48, 0
3, 112320, Note_on_c, 0, 55, 0
3, 112320, Control_c, 0, 64, 0
3, 112320, Note_on_c, 0, 57, 64
3, 112320, Note_on_c, 0, 49, 62
3, 112320, Note_on_c, 0, 61, 69
3, 112526, Control_c, 0, 64, 127
3, 112800, Note_on_c, 0, 61, 0
3, 112800, Note_on_c, 0, 49, 0
3, 112800, Note_on_c, 0, 50, 57
3, 112800, Note_on_c, 0, 62, 64
3, 112815, Control_c, 0, 64, 0
3, 113280, Note_on_c, 0, 62, 0
3, 113280, Note_on_c, 0, 50, 0
3, 113280, Note_on_c, 0, 57, 0
3, 113280, Note_on_c, 0, 62, 63
3, 113280, Note_on_c, 0, 54, 63
3, 113280, Note_on_c, 0, 66, 70
3, 113326, Control_c, 0, 64, 127
3, 113760, Note_on_c, 0, 66, 0
3, 113760, Note_on_c, 0, 54, 0
3, 113760, Note_on_c, 0, 55, 56
3, 113760, Note_on_c, 0, 67, 63
3, 113769, Control_c, 0, 64, 0
3, 113866, Control_c, 0, 64, 127
3, 113993, Control_c, 0, 64, 0
3, 114000, Note_on_c, 0, 67, 0
3, 114000, Note_on_c, 0, 55, 0
3, 114240, Note_on_c, 0, 62, 0
3, 114240, Note_on_c, 0, 59, 70
3, 114286, Control_c, 0, 64, 127
3, 114720, Note_on_c, 0, 59, 0
3, 114720, Note_on_c, 0, 60, 63
3, 114732, Control_c, 0, 64, 0
3, 114777, Control_c, 0, 64, 127
3, 114953, Control_c, 0, 64, 0
3, 114960, Note_on_c, 0, 60, 0
3, 115200, Note_on_c, 0, 60, 39
3, 115291, Control_c, 0, 64, 127
3, 115680, Note_on_c, 0, 60, 0
3, 115680, Note_on_c, 0, 59, 41
3, 115691, Control_c, 0, 64, 0
3, 115863, Control_c, 0, 64, 127
3, 116160, Note_on_c, 0, 52, 41
3, 116640, Note_on_c, 0, 59, 0
3, 116640, Note_on_c, 0, 45, 26
3, 116640, Note_on_c, 0, 57, 29
3, 116652, Control_c, 0, 64, 0
3, 116760, Control_c, 0, 64, 127
3, 116880, Note_on_c, 0, 57, 0
3, 116880, Note_on_c, 0, 45, 0
3, 116880, Note_on_c, 0, 52, 0
3, 116926, Control_c, 0, 64, 0
3, 117120, Note_on_c, 0, 72, 39
3, 117211, Control_c, 0, 64, 127
3, 117600, Note_on_c, 0, 72, 0
3, 117600, Note_on_c, 0, 71, 41
3, 117610, Control_c, 0, 64, 0
3, 117783, Control_c, 0, 64, 127
3, 118080, Note_on_c, 0, 64, 41
3, 118560, Note_on_c, 0, 71, 0
3, 118560, Note_on_c, 0, 57, 26
3, 118560, Note_on_c, 0, 69, 29
3, 118571, Control_c, 0, 64, 0
3, 118680, Control_c, 0, 64, 127
3, 118800, Note_on_c, 0, 69, 0
3, 118800, Note_on_c, 0, 57, 0
3, 118800, Note_on_c, 0, 64, 0
3, 118846, Control_c, 0, 64, 0
3, 119040, Note_on_c, 0, 72, 39
3, 119153, Control_c, 0, 64, 127
3, 119520, Note_on_c, 0, 72, 0
3, 119520, Note_on_c, 0, 71, 49
3, 119530, Control_c, 0, 64, 0
3, 119647, Control_c, 0, 64, 127
3, 119760, Note_on_c, 0, 57, 35
3, 119760, Note_on_c, 0, 64, 35
3, 120000, Note_on_c, 0, 64, 0
3, 120000, Note_on_c, 0, 57, 0
3, 120000, Note_on_c, 0, 71, 0
3, 120000, Control_c, 0, 64, 0
3, 120000, Note_on_c, 0, 69, 39
3, 120113, Control_c, 0, 64, 127
3, 120480, Note_on_c, 0, 69, 0
3, 120480, Note_on_c, 0, 68, 49
3, 120491, Control_c, 0, 64, 0
3, 120607, Control_c, 0, 64, 127
3, 120720, Note_on_c, 0, 57, 35
3, 120720, Note_on_c, 0, 64, 35
3, 120960, Note_on_c, 0, 64, 0
3, 120960, Note_on_c, 0, 57, 0
3, 120960, Note_on_c, 0, 68, 0
3, 120960, Control_c, 0, 64, 0
3, 120960, Note_on_c, 0, 72, 39
3, 121073, Control_c, 0, 64, 127
3, 121440, Note_on_c, 0, 72, 0
3, 121440, Note_on_c, 0, 71, 49
3, 121450, Control_c, 0, 64, 0
3, 121567, Control_c, 0, 64, 127
3, 121680, Note_on_c, 0, 57, 35
3, 121680, Note_on_c, 0, 64, 35
3, 121920, Note_on_c, 0, 64, 0
3, 121920, Note_on_c, 0, 57, 0
3, 121920, Note_on_c, 0, 71, 0
3, 121920, Control_c, 0, 64, 0
3, 121920, Note_on_c, 0, 69, 39
3, 122033, Control_c, 0, 64, 127
3, 122400, Note_on_c, 0, 69, 0
3, 122400, Note_on_c, 0, 68, 49
3, 122407, Control_c, 0, 64, 0
3, 122527, Control_c, 0, 64, 127
3, 122640, Note_on_c, 0, 57, 35
3, 122640, Note_on_c, 0, 64, 35
3, 122880, Note_on_c, 0, 64, 0
3, 122880, Note_on_c, 0, 57, 0
3, 122880, Note_on_c, 0, 68, 0
3, 122880, Control_c, 0, 64, 0
3, 122880, Note_on_c, 0, 57, 39
3, 122993, Control_c, 0, 64, 127
3, 123120, Note_on_c, 0, 57, 0
3, 123120, Note_on_c, 0, 73, 49
3, 123240, Note_on_c, 0, 73, 0
3, 123360, Note_on_c, 0, 74, 52
3, 123369, Control_c, 0, 64, 0
3, 123480, Note_on_c, 0, 74, 0
3, 123487, Control_c, 0, 64, 127
3, 123600, Note_on_c, 0, 64, 35
3, 123720, Note_on_c, 0, 64, 0
3, 123840, Note_on_c, 0, 57, 39
3, 123851, Control_c, 0, 64, 0
3, 123953, Control_c, 0, 64, 127
3, 123960, Note_on_c, 0, 57, 0
3, 124080, Note_on_c, 0, 68, 49
3, 124200, Note_on_c, 0, 68, 0
3, 124320, Note_on_c, 0, 69, 52
3, 124330, Control_c, 0, 64, 0
3, 124440, Note_on_c, 0, 69, 0
3, 124447, Control_c, 0, 64, 127
3, 124560, Note_on_c, 0, 64, 35
3, 124680, Note_on_c, 0, 64, 0
3, 124800, Note_on_c, 0, 57, 39
3, 124806, Control_c, 0, 64, 0
3, 124913, Control_c, 0, 64, 127
3, 124920, Note_on_c, 0, 57, 0
3, 125040, Note_on_c, 0, 61, 49
3, 125160, Note_on_c, 0, 61, 0
3, 125280, Note_on_c, 0, 62, 52
3, 125290, Control_c, 0, 64, 0
3, 125400, Note_on_c, 0, 62, 0
3, 125407, Control_c, 0, 64, 127
3, 125520, Note_on_c, 0, 52, 35
3, 125640, Note_on_c, 0, 52, 0
3, 125760, Note_on_c, 0, 45, 39
3, 125769, Control_c, 0, 64, 0
3, 125873, Control_c, 0, 64, 127
3, 125880, Note_on_c, 0, 45, 0
3, 126000, Note_on_c, 0, 56, 49
3, 126120, Note_on_c, 0, 56, 0
3, 126240, Note_on_c, 0, 57, 52
3, 126248, Control_c, 0, 64, 0
3, 126360, Note_on_c, 0, 57, 0
3, 126367, Control_c, 0, 64, 127
3, 126480, Note_on_c, 0, 61, 35
3, 126600, Note_on_c, 0, 61, 0
3, 126723, Control_c, 0, 64, 0
3, 126783, Control_c, 0, 64, 127
3, 127210, Control_c, 0, 64, 0
3, 128160, Note_on_c, 0, 45, 63
3, 128280, Note_on_c, 0, 45, 0
3, 128400, Note_on_c, 0, 49, 58
3, 128520, Note_on_c, 0, 49, 0
3, 128640, Note_on_c, 0, 54, 64
3, 128640, Note_on_c, 0, 57, 58
3, 128691, Control_c, 0, 64, 127
3, 128760, Note_on_c, 0, 57, 0
3, 128760, Note_on_c, 0, 61, 48
3, 128880, Note_on_c, 0, 62, 55
3, 128900, Note_on_c, 0, 61, 0
3, 129000, Note_on_c, 0, 61, 50
3, 129020, Note_on_c, 0, 62, 0
3, 129120, Note_on_c, 0, 61, 0
3, 129120, Note_on_c, 0, 54, 0
3, 129120, Note_on_c, 0, 53, 59
3, 129129, Control_c, 0, 64, 0
3, 129240, Note_on_c, 0, 53, 0
3, 129240, Note_on_c, 0, 57, 48
3, 129360, Note_on_c, 0, 52, 57
3, 129360, Note_on_c, 0, 61, 56
3, 129380, Note_on_c, 0, 57, 0
3, 129480, Note_on_c, 0, 52, 0
3, 129480, Note_on_c, 0, 57, 50
3, 129500, Note_on_c, 0, 61, 0
3, 129600, Note_on_c, 0, 57, 0
3, 129600, Note_on_c, 0, 50, 59
3, 129720, Note_on_c, 0, 50, 0
3, 129720, Note_on_c, 0, 52, 48
3, 129840, Note_on_c, 0, 57, 48
3, 129840, Note_on_c, 0, 49, 56
3, 129860, Note_on_c, 0, 52, 0
3, 129960, Note_on_c, 0, 49, 0
3, 129960, Note_on_c, 0, 52, 50
3, 129980, Note_on_c, 0, 57, 0
3, 130080, Note_on_c, 0, 52, 0
3, 130080, Note_on_c, 0, 47, 59
3, 130200, Note_on_c, 0, 47, 0
3, 130200, Note_on_c, 0, 49, 48
3, 130320, Note_on_c, 0, 45, 56
3, 130320, Note_on_c, 0, 52, 55
3, 130340, Note_on_c, 0, 49, 0
3, 130440, Note_on_c, 0, 45, 0
3, 130440, Note_on_c, 0, 49, 50
3, 130460, Note_on_c, 0, 52, 0
3, 130560, Note_on_c, 0, 49, 0
3, 130560, Note_on_c, 0, 44, 59
3, 130680, Note_on_c, 0, 44, 0
3, 130680, Note_on_c, 0, 49, 48
3, 130800, Note_on_c, 0, 52, 48
3, 130800, Note_on_c, 0, 45, 56
3, 130820, Note_on_c, 0, 49, 0
3, 130920, Note_on_c, 0, 45, 0
3, 130920, Note_on_c, 0, 49, 51
3, 130940, Note_on_c, 0, 52, 0
3, 131040, Note_on_c, 0, 49, 0
3, 131040, Note_on_c, 0, 47, 61
3, 131160, Note_on_c, 0, 47, 0
3, 131160, Note_on_c, 0, 49, 49
3, 131280, Note_on_c, 0, 45, 58
3, 131280, Note_on_c, 0, 52, 57
3, 131300, Note_on_c, 0, 49, 0
3, 131400, Note_on_c, 0, 45, 0
3, 131400, Note_on_c, 0, 49, 52
3, 131420, Note_on_c, 0, 52, 0
3, 131520, Note_on_c, 0, 49, 0
3, 131520, Note_on_c, 0, 44, 63
3, 131640, Note_on_c, 0, 44, 0
3, 131640, Note_on_c, 0, 49, 51
3, 131760, Note_on_c, 0, 52, 51
3, 131760, Note_on_c, 0, 45, 60
3, 131780, Note_on_c, 0, 49, 0
3, 131880, Note_on_c, 0, 45, 0
3, 131880, Note_on_c, 0, 49, 55
3, 131900, Note_on_c, 0, 52, 0
3, 132000, Note_on_c, 0, 49, 0
3, 132000, Note_on_c, 0, 47, 66
3, 132120, Note_on_c, 0, 47, 0
3, 132120, Note_on_c, 0, 49, 53
3, 132240, Note_on_c, 0, 45, 62
3, 132240, Note_on_c, 0, 52, 61
3, 132260, Note_on_c, 0, 49, 0
3, 132360, Note_on_c, 0, 45, 0
3, 132360, Note_on_c, 0, 49, 57
3, 132380, Note_on_c, 0, 52, 0
3, 132480, Note_on_c, 0, 49, 0
3, 132480, Note_on_c, 0, 44, 68
3, 132600, Note_on_c, 0, 45, 57
3, 132620, Note_on_c, 0, 44, 0
3, 132720, Note_on_c, 0, 48, 63
3, 132740, Note_on_c, 0, 45, 0
3, 132840, Note_on_c, 0, 49, 57
3, 132860, Note_on_c, 0, 48, 0
3, 132960, Note_on_c, 0, 49, 0
3, 133440, Note_on_c, 0, 56, 71
3, 133560, Note_on_c, 0, 57, 61
3, 133580, Note_on_c, 0, 56, 0
3, 133680, Note_on_c, 0, 60, 66
3, 133700, Note_on_c, 0, 57, 0
3, 133800, Note_on_c, 0, 61, 59
3, 133820, Note_on_c, 0, 60, 0
3, 133920, Note_on_c, 0, 61, 0
3, 134400, Note_on_c, 0, 68, 74
3, 134520, Note_on_c, 0, 69, 63
3, 134540, Note_on_c, 0, 68, 0
3, 134640, Note_on_c, 0, 72, 71
3, 134660, Note_on_c, 0, 69, 0
3, 134760, Note_on_c, 0, 73, 63
3, 134780, Note_on_c, 0, 72, 0
3, 134880, Note_on_c, 0, 73, 0
3, 135360, Note_on_c, 0, 80, 78
3, 135480, Note_on_c, 0, 81, 67
3, 135500, Note_on_c, 0, 80, 0
3, 135600, Note_on_c, 0, 84, 74
3, 135620, Note_on_c, 0, 81, 0
3, 135720, Note_on_c, 0, 85, 67
3, 135740, Note_on_c, 0, 84, 0
3, 135840, Note_on_c, 0, 85, 0
3, 136320, Control_c, 0, 64, 127
3, 136320, Control_c, 0, 91, 127
3, 136321, Note_on_c, 0, 50, 64
3, 136321, Note_on_c, 0, 54, 64
3, 136321, Note_on_c, 0, 57, 74
3, 136560, Note_on_c, 0, 57, 0
3, 136560, Note_on_c, 0, 62, 60
3, 136800, Note_on_c, 0, 62, 0
3, 136800, Note_on_c, 0, 54, 0
3, 136800, Note_on_c, 0, 50, 0
3, 136800, Note_on_c, 0, 58, 71
3, 136800, Note_on_c, 0, 55, 62
3, 136800, Note_on_c, 0, 50, 62
3, 136811, Control_c, 0, 64, 0
3, 136891, Control_c, 0, 64, 127
3, 137040, Note_on_c, 0, 58, 0
3, 137040, Note_on_c, 0, 62, 53
3, 137280, Note_on_c, 0, 62, 0
3, 137280, Note_on_c, 0, 50, 0
3, 137280, Note_on_c, 0, 55, 0
3, 137280, Note_on_c, 0, 57, 74
3, 137280, Note_on_c, 0, 54, 64
3, 137280, Note_on_c, 0, 50, 64
3, 137295, Control_c, 0, 64, 0
3, 137405, Control_c, 0, 64, 127
3, 137520, Note_on_c, 0, 57, 0
3, 137520, Note_on_c, 0, 62, 59
3, 137760, Note_on_c, 0, 62, 0
3, 137760, Note_on_c, 0, 50, 0
3, 137760, Note_on_c, 0, 54, 0
3, 137760, Note_on_c, 0, 58, 71
3, 137760, Note_on_c, 0, 55, 62
3, 137760, Note_on_c, 0, 50, 62
3, 137770, Control_c, 0, 64, 0
3, 137874, Control_c, 0, 64, 127
3, 138000, Note_on_c, 0, 58, 0
3, 138000, Note_on_c, 0, 62, 55
3, 138240, Note_on_c, 0, 62, 0
3, 138240, Note_on_c, 0, 50, 0
3, 138240, Note_on_c, 0, 55, 0
3, 138240, Control_c, 0, 64, 0
3, 138240, Note_on_c, 0, 60, 63
3, 138240, Note_on_c, 0, 62, 63
3, 138240, Note_on_c, 0, 69, 70
3, 138240, Note_on_c, 0, 66, 70
3, 139200, Note_on_c, 0, 66, 0
3, 139200, Note_on_c, 0, 60, 0
3, 139200, Note_on_c, 0, 62, 0
3, 139200, Note_on_c, 0, 69, 0
3, 139200, Note_on_c, 0, 58, 70
3, 139260, Note_on_c, 0, 58, 0
3, 139320, Note_on_c, 0, 57, 61
3, 139380, Note_on_c, 0, 57, 0
3, 139440, Note_on_c, 0, 55, 67
3, 139500, Note_on_c, 0, 55, 0
3, 139560, Note_on_c, 0, 54, 61
3, 139620, Note_on_c, 0, 54, 0
3, 139680, Note_on_c, 0, 52, 72
3, 139691, Control_c, 0, 64, 127
3, 139920, Note_on_c, 0, 52, 0
3, 139920, Note_on_c, 0, 57, 66
3, 140143, Control_c, 0, 64, 0
3, 140160, Note_on_c, 0, 57, 0
3, 140160, Note_on_c, 0, 57, 74
3, 140160, Note_on_c, 0, 54, 64
3, 140160, Note_on_c, 0, 50, 64
3, 140251, Control_c, 0, 64, 127
3, 140400, Note_on_c, 0, 57, 0
3, 140400, Note_on_c, 0, 62, 60
3, 140640, Note_on_c, 0, 62, 0
3, 140640, Note_on_c, 0, 50, 0
3, 140640, Note_on_c, 0, 54, 0
3, 140640, Note_on_c, 0, 58, 71
3, 140640, Note_on_c, 0, 55, 62
3, 140640, Note_on_c, 0, 50, 62
3, 140659, Control_c, 0, 64, 0
3, 140731, Control_c, 0, 64, 127
3, 140880, Note_on_c, 0, 58, 0
3, 140880, Note_on_c, 0, 62, 56
3, 141120, Note_on_c, 0, 62, 0
3, 141120, Note_on_c, 0, 50, 0
3, 141120, Note_on_c, 0, 55, 0
3, 141120, Note_on_c, 0, 57, 74
3, 141120, Note_on_c, 0, 54, 64
3, 141120, Note_on_c, 0, 50, 64
3, 141128, Control_c, 0, 64, 0
3, 141223, Control_c, 0, 64, 127
3, 141360, Note_on_c, 0, 57, 0
3, 141360, Note_on_c, 0, 62, 60
3, 141600, Note_on_c, 0, 62, 0
3, 141600, Note_on_c, 0, 50, 0
3, 141600, Note_on_c, 0, 54, 0
3, 141600, Note_on_c, 0, 58, 71
3, 141600, Note_on_c, 0, 55, 62
3, 141600, Note_on_c, 0, 50, 62
3, 141621, Control_c, 0, 64, 0
3, 141714, Control_c, 0, 64, 127
3, 141840, Note_on_c, 0, 58, 0
3, 141840, Note_on_c, 0, 62, 55
3, 142080, Note_on_c, 0, 62, 0
3, 142080, Note_on_c, 0, 50, 0
3, 142080, Note_on_c, 0, 55, 0
3, 142080, Control_c, 0, 64, 0
3, 142080, Note_on_c, 0, 60, 63
3, 142080, Note_on_c, 0, 62, 63
3, 142080, Note_on_c, 0, 69, 70
3, 142080, Note_on_c, 0, 66, 70
3, 143040, Note_on_c, 0, 66, 0
3, 143040, Note_on_c, 0, 60, 0
3, 143040, Note_on_c, 0, 62, 0
3, 143040, Note_on_c, 0, 69, 0
3, 143040, Note_on_c, 0, 62, 60
3, 143040, Note_on_c, 0, 58, 60
3, 143100, Note_on_c, 0, 58, 0
3, 143100, Note_on_c, 0, 62, 0
3, 143280, Note_on_c, 0, 58, 66
3, 143340, Note_on_c, 0, 58, 0
3, 143400, Note_on_c, 0, 57, 68
3, 143460, Note_on_c, 0, 57, 0
3, 143520, Note_on_c, 0, 55, 71
3, 143760, Note_on_c, 0, 55, 0
3, 144000, Note_on_c, 0, 43, 41
3, 144000, Note_on_c, 0, 51, 41
3, 144013, Control_c, 0, 64, 127
3, 144240, Note_on_c, 0, 58, 37
3, 144480, Note_on_c, 0, 58, 0
3, 144480, Note_on_c, 0, 51, 0
3, 144480, Note_on_c, 0, 43, 0
3, 144480, Note_on_c, 0, 56, 43
3, 144494, Control_c, 0, 64, 0
3, 144568, Control_c, 0, 64, 127
3, 144720, Note_on_c, 0, 44, 37
3, 144720, Note_on_c, 0, 51, 37
3, 144892, Control_c, 0, 64, 0
3, 144960, Note_on_c, 0, 51, 0
3, 144960, Note_on_c, 0, 44, 0
3, 144960, Note_on_c, 0, 56, 0
3, 144960, Note_on_c, 0, 45, 44
3, 144960, Note_on_c, 0, 53, 44
3, 145015, Control_c, 0, 64, 127
3, 145200, Note_on_c, 0, 60, 40
3, 145440, Note_on_c, 0, 60, 0
3, 145440, Note_on_c, 0, 53, 0
3, 145440, Note_on_c, 0, 45, 0
3, 145440, Note_on_c, 0, 58, 48
3, 145454, Control_c, 0, 64, 0
3, 145528, Control_c, 0, 64, 127
3, 145680, Note_on_c, 0, 46, 40
3, 145680, Note_on_c, 0, 53, 40
3, 145852, Control_c, 0, 64, 0
3, 145920, Note_on_c, 0, 53, 0
3, 145920, Note_on_c, 0, 46, 0
3, 145920, Note_on_c, 0, 58, 0
3, 145920, Note_on_c, 0, 47, 45
3, 145920, Note_on_c, 0, 55, 45
3, 146008, Control_c, 0, 64, 127
3, 146160, Note_on_c, 0, 47, 0
3, 146160, Note_on_c, 0, 59, 38
3, 146400, Note_on_c, 0, 59, 0
3, 146400, Note_on_c, 0, 55, 0
3, 146400, Note_on_c, 0, 48, 47
3, 146400, Note_on_c, 0, 55, 47
3, 146406, Control_c, 0, 64, 0
3, 146488, Control_c, 0, 64, 127
3, 146640, Note_on_c, 0, 48, 0
3, 146640, Note_on_c, 0, 60, 39
3, 146880, Note_on_c, 0, 60, 0
3, 146880, Note_on_c, 0, 55, 0
3, 146880, Note_on_c, 0, 50, 49
3, 146880, Note_on_c, 0, 55, 49
3, 146889, Control_c, 0, 64, 0
3, 147017, Control_c, 0, 64, 127
3, 147120, Note_on_c, 0, 50, 0
3, 147120, Note_on_c, 0, 62, 41
3, 147360, Note_on_c, 0, 62, 0
3, 147360, Note_on_c, 0, 55, 0
3, 147360, Note_on_c, 0, 48, 47
3, 147360, Note_on_c, 0, 55, 47
3, 147368, Control_c, 0, 64, 0
3, 147497, Control_c, 0, 64, 127
3, 147600, Note_on_c, 0, 48, 0
3, 147600, Note_on_c, 0, 60, 40
3, 147772, Control_c, 0, 64, 0
3, 147840, Note_on_c, 0, 60, 0
3, 147840, Note_on_c, 0, 55, 0
3, 147840, Note_on_c, 0, 47, 46
3, 147840, Note_on_c, 0, 55, 46
3, 147902, Control_c, 0, 64, 127
3, 148080, Note_on_c, 0, 62, 42
3, 148320, Note_on_c, 0, 62, 0
3, 148320, Note_on_c, 0, 55, 0
3, 148320, Note_on_c, 0, 47, 0
3, 148320, Note_on_c, 0, 60, 51
3, 148330, Control_c, 0, 64, 0
3, 148408, Control_c, 0, 64, 127
3, 148560, Note_on_c, 0, 48, 42
3, 148560, Note_on_c, 0, 55, 42
3, 148732, Control_c, 0, 64, 0
3, 148800, Note_on_c, 0, 55, 0
3, 148800, Note_on_c, 0, 48, 0
3, 148800, Note_on_c, 0, 60, 0
3, 148800, Note_on_c, 0, 49, 52
3, 148800, Note_on_c, 0, 57, 52
3, 148855, Control_c, 0, 64, 127
3, 149040, Note_on_c, 0, 64, 46
3, 149280, Note_on_c, 0, 64, 0
3, 149280, Note_on_c, 0, 57, 0
3, 149280, Note_on_c, 0, 49, 0
3, 149280, Note_on_c, 0, 62, 54
3, 149292, Control_c, 0, 64, 0
3, 149368, Control_c, 0, 64, 127
3, 149520, Note_on_c, 0, 50, 47
3, 149520, Note_on_c, 0, 57, 47
3, 149692, Control_c, 0, 64, 0
3, 149760, Note_on_c, 0, 57, 0
3, 149760, Note_on_c, 0, 50, 0
3, 149760, Note_on_c, 0, 62, 0
3, 149760, Note_on_c, 0, 49, 54
3, 149760, Note_on_c, 0, 57, 54
3, 149848, Control_c, 0, 64, 127
3, 150000, Note_on_c, 0, 49, 0
3, 150000, Note_on_c, 0, 61, 46
3, 150240, Note_on_c, 0, 61, 0
3, 150240, Note_on_c, 0, 57, 0
3, 150240, Note_on_c, 0, 50, 56
3, 150240, Note_on_c, 0, 57, 56
3, 150250, Control_c, 0, 64, 0
3, 150328, Control_c, 0, 64, 127
3, 150480, Note_on_c, 0, 50, 0
3, 150480, Note_on_c, 0, 62, 47
3, 150720, Note_on_c, 0, 62, 0
3, 150720, Note_on_c, 0, 57, 0
3, 150720, Note_on_c, 0, 52, 57
3, 150720, Note_on_c, 0, 57, 57
3, 150729, Control_c, 0, 64, 0
3, 150808, Control_c, 0, 64, 127
3, 150960, Note_on_c, 0, 52, 0
3, 150960, Note_on_c, 0, 64, 49
3, 151200, Note_on_c, 0, 64, 0
3, 151200, Note_on_c, 0, 57, 0
3, 151200, Note_on_c, 0, 50, 56
3, 151200, Note_on_c, 0, 57, 56
3, 151205, Control_c, 0, 64, 0
3, 151288, Control_c, 0, 64, 127
3, 151440, Note_on_c, 0, 50, 0
3, 151440, Note_on_c, 0, 62, 48
3, 151680, Note_on_c, 0, 62, 0
3, 151680, Note_on_c, 0, 57, 0
3, 151680, Control_c, 0, 64, 0
3, 151680, Note_on_c, 0, 49, 58
3, 151680, Note_on_c, 0, 57, 58
3, 151768, Control_c, 0, 64, 127
3, 151920, Note_on_c, 0, 49, 0
3, 151920, Note_on_c, 0, 61, 49
3, 152160, Note_on_c, 0, 61, 0
3, 152160, Note_on_c, 0, 57, 0
3, 152160, Note_on_c, 0, 50, 61
3, 152160, Note_on_c, 0, 57, 61
3, 152168, Control_c, 0, 64, 0
3, 152248, Control_c, 0, 64, 127
3, 152400, Note_on_c, 0, 50, 0
3, 152400, Note_on_c, 0, 62, 52
3, 152640, Note_on_c, 0, 62, 0
3, 152640, Note_on_c, 0, 57, 0
3, 152640, Note_on_c, 0, 51, 63
3, 152640, Note_on_c, 0, 59, 63
3, 152650, Control_c, 0, 64, 0
3, 152728, Control_c, 0, 64, 127
3, 152880, Note_on_c, 0, 51, 0
3, 152880, Note_on_c, 0, 63, 53
3, 153120, Note_on_c, 0, 63, 0
3, 153120, Note_on_c, 0, 59, 0
3, 153120, Note_on_c, 0, 52, 60
3, 153120, Note_on_c, 0, 59, 60
3, 153124, Control_c, 0, 64, 0
3, 153208, Control_c, 0, 64, 127
3, 153360, Note_on_c, 0, 52, 0
3, 153360, Note_on_c, 0, 64, 52
3, 153600, Note_on_c, 0, 64, 0
3, 153600, Note_on_c, 0, 59, 0
3, 153600, Control_c, 0, 64, 0
3, 153600, Note_on_c, 0, 51, 64
3, 153600, Note_on_c, 0, 59, 64
3, 153688, Control_c, 0, 64, 127
3, 153840, Note_on_c, 0, 51, 0
3, 153840, Note_on_c, 0, 63, 54
3, 154080, Note_on_c, 0, 63, 0
3, 154080, Note_on_c, 0, 59, 0
3, 154080, Note_on_c, 0, 52, 66
3, 154080, Note_on_c, 0, 59, 66
3, 154087, Control_c, 0, 64, 0
3, 154168, Control_c, 0, 64, 127
3, 154320, Note_on_c, 0, 52, 0
3, 154320, Note_on_c, 0, 64, 56
3, 154560, Note_on_c, 0, 64, 0
3, 154560, Note_on_c, 0, 59, 0
3, 154560, Note_on_c, 0, 53, 67
3, 154560, Note_on_c, 0, 61, 67
3, 154569, Control_c, 0, 64, 0
3, 154648, Control_c, 0, 64, 127
3, 154800, Note_on_c, 0, 53, 0
3, 154800, Note_on_c, 0, 65, 57
3, 155040, Note_on_c, 0, 65, 0
3, 155040, Note_on_c, 0, 61, 0
3, 155040, Note_on_c, 0, 54, 65
3, 155040, Note_on_c, 0, 61, 65
3, 155049, Control_c, 0, 64, 0
3, 155166, Control_c, 0, 64, 127
3, 155280, Note_on_c, 0, 54, 0
3, 155280, Note_on_c, 0, 66, 56
3, 155520, Note_on_c, 0, 66, 0
3, 155520, Note_on_c, 0, 61, 0
3, 155520, Control_c, 0, 64, 0
3, 155520, Note_on_c, 0, 54, 72
3, 155520, Note_on_c, 0, 62, 72
3, 155675, Control_c, 0, 64, 127
3, 155760, Note_on_c, 0, 54, 0
3, 155760, Note_on_c, 0, 66, 60
3, 156000, Note_on_c, 0, 66, 0
3, 156000, Note_on_c, 0, 62, 0
3, 156000, Note_on_c, 0, 55, 70
3, 156000, Note_on_c, 0, 62, 70
3, 156014, Control_c, 0, 64, 0
3, 156088, Control_c, 0, 64, 127
3, 156240, Note_on_c, 0, 55, 0
3, 156240, Note_on_c, 0, 67, 60
3, 156480, Note_on_c, 0, 67, 0
3, 156480, Note_on_c, 0, 62, 0
3, 156480, Note_on_c, 0, 54, 73
3, 156480, Note_on_c, 0, 62, 73
3, 156487, Control_c, 0, 64, 0
3, 156607, Control_c, 0, 64, 127
3, 156720, Note_on_c, 0, 54, 0
3, 156720, Note_on_c, 0, 66, 61
3, 156960, Note_on_c, 0, 66, 0
3, 156960, Note_on_c, 0, 62, 0
3, 156960, Note_on_c, 0, 55, 71
3, 156960, Note_on_c, 0, 62, 71
3, 156972, Control_c, 0, 64, 0
3, 157101, Control_c, 0, 64, 127
3, 157200, Note_on_c, 0, 55, 0
3, 157200, Note_on_c, 0, 67, 60
3, 157440, Note_on_c, 0, 67, 0
3, 157440, Note_on_c, 0, 62, 0
3, 157440, Control_c, 0, 64, 0
3, 157440, Note_on_c, 0, 67, 69
3, 157440, Note_on_c, 0, 70, 69
3, 157440, Note_on_c, 0, 74, 77
3, 157560, Note_on_c, 0, 74, 0
3, 157560, Note_on_c, 0, 70, 0
3, 157560, Note_on_c, 0, 67, 0
3, 157920, Note_on_c, 0, 76, 80
3, 157980, Note_on_c, 0, 76, 0
3, 158040, Note_on_c, 0, 74, 71
3, 158100, Note_on_c, 0, 74, 0
3, 158160, Note_on_c, 0, 70, 74
3, 158220, Note_on_c, 0, 70, 0
3, 158280, Note_on_c, 0, 69, 71
3, 158340, Note_on_c, 0, 69, 0
3, 158400, Note_on_c, 0, 67, 82
3, 158520, Note_on_c, 0, 67, 0
3, 158880, Note_on_c, 0, 64, 71
3, 158940, Note_on_c, 0, 64, 0
3, 159000, Note_on_c, 0, 62, 60
3, 159060, Note_on_c, 0, 62, 0
3, 159120, Note_on_c, 0, 58, 67
3, 159180, Note_on_c, 0, 58, 0
3, 159240, Note_on_c, 0, 57, 61
3, 159300, Note_on_c, 0, 57, 0
3, 159360, Note_on_c, 0, 55, 74
3, 159480, Note_on_c, 0, 55, 0
3, 159840, Note_on_c, 0, 52, 71
3, 159900, Note_on_c, 0, 52, 0
3, 159960, Note_on_c, 0, 50, 62
3, 160020, Note_on_c, 0, 50, 0
3, 160080, Note_on_c, 0, 46, 67
3, 160140, Note_on_c, 0, 46, 0
3, 160200, Note_on_c, 0, 45, 61
3, 160260, Note_on_c, 0, 45, 0
3, 160320, Note_on_c, 0, 43, 71
3, 160440, Note_on_c, 0, 43, 0
3, 160800, Note_on_c, 0, 40, 69
3, 160860, Note_on_c, 0, 40, 0
3, 160920, Note_on_c, 0, 38, 59
3, 160980, Note_on_c, 0, 38, 0
3, 161040, Note_on_c, 0, 34, 64
3, 161100, Note_on_c, 0, 34, 0
3, 161160, Note_on_c, 0, 33, 55
3, 161220, Note_on_c, 0, 33, 0
3, 161280, Note_on_c, 0, 31, 63
3, 161400, Note_on_c, 0, 31, 0
3, 161520, Note_on_c, 0, 31, 62
3, 161640, Note_on_c, 0, 31, 0
3, 161760, Note_on_c, 0, 31, 63
3, 161880, Note_on_c, 0, 31, 0
3, 161880, Note_on_c, 0, 33, 56
3, 162000, Note_on_c, 0, 33, 0
3, 162000, Note_on_c, 0, 34, 59
3, 162120, Note_on_c, 0, 34, 0
3, 162120, Note_on_c, 0, 31, 53
3, 162240, Note_on_c, 0, 31, 0
3, 162240, Note_on_c, 0, 33, 61
3, 162360, Note_on_c, 0, 33, 0
3, 162480, Note_on_c, 0, 33, 59
3, 162600, Note_on_c, 0, 33, 0
3, 162720, Note_on_c, 0, 34, 63
3, 162960, Note_on_c, 0, 34, 0
3, 162960, Note_on_c, 0, 31, 58
3, 163200, Note_on_c, 0, 31, 0
3, 163200, Control_c, 0, 64, 127
3, 163680, Note_on_c, 0, 31, 56
3, 163680, Note_on_c, 0, 43, 56
3, 164160, Note_on_c, 0, 43, 0
3, 164160, Note_on_c, 0, 31, 0
3, 164160, Note_on_c, 0, 33, 59
3, 164160, Note_on_c, 0, 45, 59
3, 164166, Control_c, 0, 64, 0
3, 164343, Control_c, 0, 64, 127
3, 164640, Note_on_c, 0, 45, 0
3, 164640, Note_on_c, 0, 33, 0
3, 164640, Note_on_c, 0, 34, 55
3, 164640, Note_on_c, 0, 46, 55
3, 164660, Control_c, 0, 64, 0
3, 164868, Control_c, 0, 64, 127
3, 165120, Note_on_c, 0, 46, 0
3, 165120, Note_on_c, 0, 34, 0
3, 165120, Control_c, 0, 64, 0
3, 165120, Note_on_c, 0, 43, 49
3, 165240, Note_on_c, 0, 43, 0
3, 165360, Note_on_c, 0, 43, 44
3, 165480, Note_on_c, 0, 43, 0
3, 165600, Note_on_c, 0, 43, 49
3, 165720, Note_on_c, 0, 43, 0
3, 165720, Note_on_c, 0, 45, 42
3, 165840, Note_on_c, 0, 45, 0
3, 165840, Note_on_c, 0, 46, 49
3, 165960, Note_on_c, 0, 46, 0
3, 165960, Note_on_c, 0, 43, 41
3, 166080, Note_on_c, 0, 43, 0
3, 166080, Note_on_c, 0, 45, 49
3, 166200, Note_on_c, 0, 45, 0
3, 166320, Note_on_c, 0, 45, 42
3, 166440, Note_on_c, 0, 45, 0
3, 166560, Note_on_c, 0, 46, 49
3, 166800, Note_on_c, 0, 46, 0
3, 166800, Note_on_c, 0, 43, 45
3, 167040, Note_on_c, 0, 43, 0
3, 167200, Control_c, 0, 64, 127
3, 167520, Note_on_c, 0, 43, 42
3, 167520, Note_on_c, 0, 55, 42
3, 168000, Note_on_c, 0, 55, 0
3, 168000, Note_on_c, 0, 43, 0
3, 168000, Note_on_c, 0, 45, 48
3, 168000, Note_on_c, 0, 57, 48
3, 168012, Control_c, 0, 64, 0
3, 168205, Control_c, 0, 64, 127
3, 168480, Note_on_c, 0, 57, 0
3, 168480, Note_on_c, 0, 45, 0
3, 168480, Note_on_c, 0, 46, 44
3, 168480, Note_on_c, 0, 58, 44
3, 168494, Control_c, 0, 64, 0
3, 168640, Control_c, 0, 64, 127
3, 168960, Note_on_c, 0, 58, 0
3, 168960, Note_on_c, 0, 46, 0
3, 168960, Control_c, 0, 64, 0
3, 169280, Control_c, 0, 64, 127
3, 169440, Note_on_c, 0, 55, 35
3, 169440, Note_on_c, 0, 67, 35
3, 169920, Note_on_c, 0, 67, 0
3, 169920, Note_on_c, 0, 55, 0
3, 169920, Note_on_c, 0, 57, 39
3, 169920, Note_on_c, 0, 69, 39
3, 169929, Control_c, 0, 64, 0
3, 170217, Control_c, 0, 64, 127
3, 170400, Note_on_c, 0, 69, 0
3, 170400, Note_on_c, 0, 57, 0
3, 170400, Note_on_c, 0, 58, 36
3, 170400, Note_on_c, 0, 70, 36
3, 170880, Note_on_c, 0, 70, 0
3, 170880, Note_on_c, 0, 58, 0
3, 170880, Control_c, 0, 64, 0
3, 171840, Note_on_c, 0, 43, 85
3, 171960, Note_on_c, 0, 43, 0
3, 172080, Note_on_c, 0, 43, 77
3, 172200, Note_on_c, 0, 43, 0
3, 172320, Note_on_c, 0, 43, 84
3, 172440, Note_on_c, 0, 45, 72
3, 172460, Note_on_c, 0, 43, 0
3, 172560, Note_on_c, 0, 46, 79
3, 172580, Note_on_c, 0, 45, 0
3, 172680, Note_on_c, 0, 43, 72
3, 172700, Note_on_c, 0, 46, 0
3, 172800, Note_on_c, 0, 43, 0
3, 172800, Note_on_c, 0, 44, 86
3, 172920, Note_on_c, 0, 44, 0
3, 173040, Note_on_c, 0, 45, 82
3, 173160, Note_on_c, 0, 45, 0
3, 173280, Note_on_c, 0, 50, 91
3, 173280, Note_on_c, 0, 45, 81
3, 173280, Note_on_c, 0, 38, 81
3, 173520, Note_on_c, 0, 38, 0
3, 173520, Note_on_c, 0, 45, 0
3, 173520, Note_on_c, 0, 50, 0
3, 173520, End_track
4, 0, Start_track
4, 0, Title_t, "Tschaikowsky: The Seasons: February"
4, 0, End_track
5, 0, Start_track
5, 0, Title_t, "Copyright © 2004 by Bernd Krüger"
5, 0, End_track
6, 0, Start_track
6, 0, Title_t, "http://www.piano-midi.de"
6, 0, End_track
7, 0, Start_track
7, 0, Title_t, "Edition: 2008-09-07"
7, 0, End_track
0, 0, End_of_file
