0, 0, Header, 1, 8, 480
1, 0, Start_track
1, 0, Title_t, "Die Jahreszeiten"
1, 0, Title_t, "Juli"
1, 0, Copyright_t, "Copyright © 2000 by Bernd Krueger"
1, 0, Text_t, "Peter Tschaikowsky"
1, 0, Text_t, "Allegro moderato con moto"
1, 0, Text_t, "Fertiggestellt am 22.10.2000\012"
1, 0, Text_t, "Normierung: 23.12.2002\012"
1, 0, Text_t, "Update: 30.8.2004\012"
1, 0, Text_t, "Update: 19.9.2008\012"
1, 0, Text_t, "Dauer: 1:54 Minuten\012"
1, 0, SMPTE_offset, 96, 0, 3, 0, 0
1, 0, Time_signature, 4, 2, 24, 8
1, 0, Key_signature, -3, "major"
1, 0, Tempo, 506971
1, 40, Tempo, 504371
1, 720, Tempo, 494153
1, 960, Tempo, 504371
1, 1440, Tempo, 494153
1, 1680, Tempo, 515066
1, 1920, Tempo, 506971
1, 2880, Tempo, 483871
1, 3120, Tempo, 491521
1, 3360, Tempo, 483871
1, 3600, Tempo, 499168
1, 3840, Tempo, 504371
1, 6480, Tempo, 496648
1, 6720, Tempo, 504371
1, 7200, Tempo, 491602
1, 7440, Tempo, 509641
1, 7680, Tempo, 504371
1, 8640, Tempo, 487805
1, 8880, Tempo, 499917
1, 9120, Tempo, 493583
1, 9360, Tempo, 515066
1, 9600, Tempo, 504371
1, 10560, Tempo, 495663
1, 10800, Tempo, 502050
1, 11040, Tempo, 497760
1, 11280, Tempo, 504202
1, 11520, Tempo, 504371
1, 12480, Tempo, 497760
1, 12720, Tempo, 504202
1, 12960, Tempo, 497760
1, 13200, Tempo, 522102
1, 13440, Tempo, 506971
1, 13480, Tempo, 504371
1, 14160, Tempo, 494153
1, 14400, Tempo, 504371
1, 14880, Tempo, 494153
1, 15120, Tempo, 515066
1, 15360, Tempo, 506971
1, 16320, Tempo, 483871
1, 16560, Tempo, 491521
1, 16800, Tempo, 483871
1, 17040, Tempo, 499168
1, 17280, Tempo, 504371
1, 19920, Tempo, 496648
1, 20160, Tempo, 504371
1, 20640, Tempo, 491602
1, 20880, Tempo, 509641
1, 21120, Tempo, 504371
1, 22080, Tempo, 493583
1, 22320, Tempo, 499917
1, 22560, Tempo, 493583
1, 22800, Tempo, 515066
1, 23040, Tempo, 504371
1, 24000, Tempo, 495663
1, 24240, Tempo, 502050
1, 24480, Tempo, 497760
1, 24720, Tempo, 504202
1, 24960, Tempo, 510769
1, 25920, Tempo, 487013
1, 26160, Tempo, 480769
1, 26400, Tempo, 470588
1, 27120, Tempo, 454545
1, 27360, Tempo, 458015
1, 27600, Tempo, 462000
1, 27840, Tempo, 454545
1, 28080, Tempo, 449438
1, 28320, Tempo, 452830
1, 28560, Tempo, 455858
1, 28800, Tempo, 460087
1, 29040, Tempo, 452830
1, 29280, Tempo, 447761
1, 29520, Tempo, 458120
1, 30240, Tempo, 452250
1, 30720, Tempo, 459524
1, 30960, Tempo, 446961
1, 31200, Tempo, 452455
1, 31440, Tempo, 462000
1, 31680, Tempo, 452455
1, 31920, Tempo, 452455
1, 32160, Tempo, 450586
1, 32400, Tempo, 455858
1, 32640, Tempo, 462000
1, 32880, Tempo, 448699
1, 33120, Tempo, 452455
1, 33360, Tempo, 457666
1, 33600, Tempo, 452455
1, 33840, Tempo, 452455
1, 34080, Tempo, 450586
1, 34320, Tempo, 458015
1, 34560, Tempo, 456274
1, 34800, Tempo, 447761
1, 35040, Tempo, 452455
1, 35280, Tempo, 458015
1, 35520, Tempo, 447761
1, 35760, Tempo, 447761
1, 36000, Tempo, 450586
1, 36240, Tempo, 456274
1, 36480, Tempo, 452830
1, 36720, Tempo, 449438
1, 36960, Tempo, 444444
1, 37200, Tempo, 442804
1, 37440, Tempo, 449438
1, 37680, Tempo, 447761
1, 37920, Tempo, 450586
1, 38160, Tempo, 458015
1, 38400, Tempo, 456274
1, 38640, Tempo, 446097
1, 38880, Tempo, 447761
1, 39120, Tempo, 445071
1, 39360, Tempo, 452455
1, 39600, Tempo, 452455
1, 39840, Tempo, 450586
1, 40080, Tempo, 462000
1, 40081, Tempo, 484535
1, 40320, Tempo, 472553
1, 40560, Tempo, 484535
1, 41280, Tempo, 489796
1, 41760, Tempo, 483871
1, 42240, Tempo, 474533
1, 42480, Tempo, 484535
1, 43200, Tempo, 489796
1, 43680, Tempo, 490838
1, 44457, Tempo, 501379
1, 44584, Tempo, 515021
1, 44640, Tempo, 450450
1, 45600, Tempo, 454064
1, 46320, Tempo, 467253
1, 46560, Tempo, 454064
1, 46880, Tempo, 455892
1, 47160, Tempo, 457771
1, 47480, Tempo, 459629
1, 47760, Tempo, 461538
1, 48000, Tempo, 472553
1, 48240, Tempo, 484535
1, 48960, Tempo, 489796
1, 49440, Tempo, 483871
1, 49920, Tempo, 474533
1, 50160, Tempo, 484535
1, 50880, Tempo, 489796
1, 51360, Tempo, 490838
1, 52137, Tempo, 501379
1, 52320, Tempo, 452386
1, 52680, Tempo, 450586
1, 53040, Tempo, 448799
1, 53400, Tempo, 447061
1, 53720, Tempo, 445302
1, 53760, Tempo, 447061
1, 54000, Tempo, 454201
1, 54240, Tempo, 450586
1, 55440, Tempo, 463535
1, 55680, Tempo, 472553
1, 55920, Tempo, 484535
1, 56640, Tempo, 489796
1, 56680, Tempo, 485830
1, 57120, Tempo, 483871
1, 57600, Tempo, 474533
1, 57840, Tempo, 484535
1, 58560, Tempo, 485830
1, 59040, Tempo, 490838
1, 59520, Tempo, 448766
1, 59760, Tempo, 454133
1, 60000, Tempo, 452318
1, 61200, Tempo, 465333
1, 61440, Tempo, 448766
1, 61680, Tempo, 454133
1, 61920, Tempo, 452318
1, 63120, Tempo, 465333
1, 63360, Tempo, 448766
1, 63600, Tempo, 454133
1, 63840, Tempo, 452318
1, 65040, Tempo, 465333
1, 65280, Tempo, 448766
1, 65520, Tempo, 454133
1, 65760, Tempo, 452318
1, 66960, Tempo, 465333
1, 67200, Tempo, 480000
1, 68160, Tempo, 478088
1, 68280, Tempo, 480000
1, 68400, Tempo, 481928
1, 68520, Tempo, 483871
1, 68600, Tempo, 485830
1, 68720, Tempo, 487805
1, 68840, Tempo, 489796
1, 68960, Tempo, 491803
1, 69040, Tempo, 493827
1, 69120, Tempo, 506971
1, 69160, Tempo, 504371
1, 69840, Tempo, 494153
1, 70080, Tempo, 504371
1, 70560, Tempo, 494153
1, 70800, Tempo, 515066
1, 71040, Tempo, 506971
1, 72000, Tempo, 483871
1, 72240, Tempo, 491521
1, 72480, Tempo, 483871
1, 72720, Tempo, 499168
1, 72960, Tempo, 504371
1, 73920, Tempo, 495868
1, 74080, Tempo, 493827
1, 74240, Tempo, 491803
1, 74400, Tempo, 489796
1, 74520, Tempo, 487805
1, 74640, Tempo, 504202
1, 74880, Tempo, 504202
1, 75600, Tempo, 496648
1, 75840, Tempo, 504371
1, 76320, Tempo, 491602
1, 76560, Tempo, 509641
1, 76800, Tempo, 504371
1, 77760, Tempo, 487805
1, 78000, Tempo, 499917
1, 78240, Tempo, 493583
1, 78480, Tempo, 515066
1, 78720, Tempo, 504371
1, 79680, Tempo, 495663
1, 79920, Tempo, 502050
1, 80160, Tempo, 497760
1, 80400, Tempo, 504202
1, 80640, Tempo, 510638
1, 81120, Tempo, 502092
1, 81600, Tempo, 495868
1, 81800, Tempo, 493827
1, 81960, Tempo, 491803
1, 82120, Tempo, 489796
1, 82280, Tempo, 487805
1, 82320, Tempo, 515021
1, 82560, Tempo, 506971
1, 82600, Tempo, 504371
1, 83280, Tempo, 494153
1, 83520, Tempo, 504371
1, 84000, Tempo, 494153
1, 84240, Tempo, 515066
1, 84480, Tempo, 506971
1, 85440, Tempo, 483871
1, 85680, Tempo, 491521
1, 85920, Tempo, 483871
1, 86160, Tempo, 499168
1, 86400, Tempo, 504371
1, 87360, Tempo, 495868
1, 87520, Tempo, 493827
1, 87680, Tempo, 491803
1, 87840, Tempo, 489796
1, 87960, Tempo, 487805
1, 88080, Tempo, 504202
1, 88320, Tempo, 495868
1, 88560, Tempo, 502092
1, 89040, Tempo, 496648
1, 89280, Tempo, 504371
1, 89760, Tempo, 491602
1, 90000, Tempo, 509641
1, 90240, Tempo, 495868
1, 90480, Tempo, 502092
1, 90520, Tempo, 502092
1, 91200, Tempo, 487805
1, 91440, Tempo, 499917
1, 91680, Tempo, 493583
1, 91920, Tempo, 515066
1, 92160, Tempo, 497925
1, 92400, Tempo, 502092
1, 93120, Tempo, 495663
1, 93360, Tempo, 502050
1, 93600, Tempo, 497760
1, 93840, Tempo, 504202
1, 94080, Tempo, 495868
1, 94320, Tempo, 502092
1, 95040, Tempo, 495663
1, 95280, Tempo, 502050
1, 95520, Tempo, 497760
1, 95760, Tempo, 504202
1, 96000, Tempo, 493827
1, 96480, Tempo, 500000
1, 96720, Tempo, 504202
1, 97920, Tempo, 495868
1, 98400, Tempo, 502092
1, 98640, Tempo, 504202
1, 99600, Tempo, 504202
1, 99840, Tempo, 495868
1, 100080, Tempo, 502092
1, 100320, Tempo, 495868
1, 100560, Tempo, 502092
1, 100800, Tempo, 495663
1, 101040, Tempo, 502050
1, 101280, Tempo, 497760
1, 101520, Tempo, 504202
1, 101760, Tempo, 495868
1, 102000, Tempo, 504202
1, 102240, Tempo, 495868
1, 102480, Tempo, 504202
1, 102720, Tempo, 495663
1, 102960, Tempo, 502050
1, 103200, Tempo, 497760
1, 103440, Tempo, 504202
1, 103680, Tempo, 504371
1, 103920, Tempo, 510638
1, 104160, Tempo, 502092
1, 104400, Tempo, 510638
1, 104640, Tempo, 510638
1, 104880, Tempo, 521739
1, 105120, Tempo, 510638
1, 105360, Tempo, 519481
1, 105600, Tempo, 1071429
1, 106080, Tempo, 1200000
1, 107520, Tempo, 500000
1, 107520, End_track
2, 0, Start_track
2, 0, Title_t, "Piano right"
2, 0, Program_c, 0, 0
2, 0, Control_c, 0, 7, 100
2, 0, Control_c, 0, 10, 64
2, 0, Note_on_c, 0, 63, 72
2, 0, Note_on_c, 0, 67, 72
2, 0, Note_on_c, 0, 75, 88
2, 0, Control_c, 0, 91, 127
2, 0, Text_t, "bdca426d104a26ac9dcb070447587523"
2, 720, Note_on_c, 0, 75, 0
2, 720, Note_on_c, 0, 67, 0
2, 720, Note_on_c, 0, 67, 73
2, 960, Note_on_c, 0, 67, 0
2, 960, Note_on_c, 0, 63, 0
2, 960, Note_on_c, 0, 70, 84
2, 960, Note_on_c, 0, 67, 70
2, 960, Note_on_c, 0, 63, 70
2, 1440, Note_on_c, 0, 63, 0
2, 1440, Note_on_c, 0, 67, 0
2, 1440, Note_on_c, 0, 70, 0
2, 1440, Note_on_c, 0, 72, 78
2, 1440, Note_on_c, 0, 67, 64
2, 1440, Note_on_c, 0, 63, 64
2, 1680, Note_on_c, 0, 67, 0
2, 1680, Note_on_c, 0, 72, 0
2, 1680, Note_on_c, 0, 67, 73
2, 1920, Note_on_c, 0, 67, 0
2, 1920, Note_on_c, 0, 63, 0
2, 1920, Note_on_c, 0, 70, 80
2, 1920, Note_on_c, 0, 63, 67
2, 1920, Note_on_c, 0, 67, 67
2, 2880, Note_on_c, 0, 67, 0
2, 2880, Note_on_c, 0, 63, 0
2, 2880, Note_on_c, 0, 70, 0
2, 2880, Note_on_c, 0, 63, 62
2, 2880, Note_on_c, 0, 67, 66
2, 2880, Note_on_c, 0, 70, 81
2, 3120, Note_on_c, 0, 70, 0
2, 3120, Note_on_c, 0, 72, 70
2, 3360, Note_on_c, 0, 72, 0
2, 3360, Note_on_c, 0, 67, 0
2, 3360, Note_on_c, 0, 63, 0
2, 3360, Note_on_c, 0, 63, 68
2, 3360, Note_on_c, 0, 67, 81
2, 3600, Note_on_c, 0, 67, 0
2, 3600, Note_on_c, 0, 72, 68
2, 3840, Note_on_c, 0, 72, 0
2, 3840, Note_on_c, 0, 63, 0
2, 3840, Note_on_c, 0, 70, 80
2, 3840, Note_on_c, 0, 67, 67
2, 3840, Note_on_c, 0, 63, 67
2, 4800, Note_on_c, 0, 63, 0
2, 4800, Note_on_c, 0, 67, 0
2, 4800, Note_on_c, 0, 70, 0
2, 4800, Note_on_c, 0, 63, 68
2, 4800, Note_on_c, 0, 67, 68
2, 4800, Note_on_c, 0, 70, 81
2, 5760, Note_on_c, 0, 70, 0
2, 5760, Note_on_c, 0, 67, 0
2, 5760, Note_on_c, 0, 63, 0
2, 5760, Note_on_c, 0, 77, 84
2, 5760, Note_on_c, 0, 65, 70
2, 5760, Note_on_c, 0, 70, 70
2, 6480, Note_on_c, 0, 65, 0
2, 6480, Note_on_c, 0, 77, 0
2, 6480, Note_on_c, 0, 79, 77
2, 6480, Note_on_c, 0, 67, 64
2, 6720, Note_on_c, 0, 67, 0
2, 6720, Note_on_c, 0, 79, 0
2, 6720, Note_on_c, 0, 65, 70
2, 6720, Note_on_c, 0, 77, 84
2, 7200, Note_on_c, 0, 77, 0
2, 7200, Note_on_c, 0, 65, 0
2, 7200, Note_on_c, 0, 70, 0
2, 7200, Note_on_c, 0, 68, 68
2, 7200, Note_on_c, 0, 60, 68
2, 7200, Note_on_c, 0, 72, 81
2, 7440, Note_on_c, 0, 72, 0
2, 7440, Note_on_c, 0, 60, 0
2, 7440, Note_on_c, 0, 62, 66
2, 7440, Note_on_c, 0, 74, 78
2, 7680, Note_on_c, 0, 74, 0
2, 7680, Note_on_c, 0, 62, 0
2, 7680, Note_on_c, 0, 68, 0
2, 7680, Note_on_c, 0, 75, 84
2, 7680, Note_on_c, 0, 63, 70
2, 7680, Note_on_c, 0, 67, 70
2, 8640, Note_on_c, 0, 67, 0
2, 8640, Note_on_c, 0, 63, 0
2, 8640, Note_on_c, 0, 75, 0
2, 8640, Note_on_c, 0, 63, 67
2, 8640, Note_on_c, 0, 67, 67
2, 8640, Note_on_c, 0, 75, 80
2, 8880, Note_on_c, 0, 75, 0
2, 8880, Note_on_c, 0, 63, 0
2, 8880, Note_on_c, 0, 62, 58
2, 8880, Note_on_c, 0, 74, 69
2, 9120, Note_on_c, 0, 74, 0
2, 9120, Note_on_c, 0, 62, 0
2, 9120, Note_on_c, 0, 67, 0
2, 9120, Note_on_c, 0, 72, 75
2, 9120, Note_on_c, 0, 60, 63
2, 9120, Note_on_c, 0, 68, 63
2, 9360, Note_on_c, 0, 60, 0
2, 9360, Note_on_c, 0, 72, 0
2, 9360, Note_on_c, 0, 74, 64
2, 9360, Note_on_c, 0, 62, 53
2, 9600, Note_on_c, 0, 62, 0
2, 9600, Note_on_c, 0, 74, 0
2, 9600, Note_on_c, 0, 68, 0
2, 9600, Note_on_c, 0, 67, 65
2, 9600, Note_on_c, 0, 63, 65
2, 9600, Note_on_c, 0, 58, 65
2, 9600, Note_on_c, 0, 70, 77
2, 10560, Note_on_c, 0, 58, 0
2, 10560, Note_on_c, 0, 58, 72
2, 11040, Note_on_c, 0, 67, 0
2, 11040, Note_on_c, 0, 70, 0
2, 11040, Note_on_c, 0, 63, 0
2, 11040, Note_on_c, 0, 70, 71
2, 11040, Note_on_c, 0, 68, 59
2, 11040, Note_on_c, 0, 65, 59
2, 11520, Note_on_c, 0, 65, 0
2, 11520, Note_on_c, 0, 58, 0
2, 11520, Note_on_c, 0, 70, 0
2, 11520, Note_on_c, 0, 68, 0
2, 11520, Note_on_c, 0, 67, 62
2, 11520, Note_on_c, 0, 70, 73
2, 11520, Note_on_c, 0, 58, 60
2, 11520, Note_on_c, 0, 63, 60
2, 12480, Note_on_c, 0, 58, 0
2, 12480, Note_on_c, 0, 58, 72
2, 12960, Note_on_c, 0, 67, 0
2, 12960, Note_on_c, 0, 63, 0
2, 12960, Note_on_c, 0, 70, 0
2, 12960, Note_on_c, 0, 65, 59
2, 12960, Note_on_c, 0, 68, 59
2, 12960, Note_on_c, 0, 70, 71
2, 13440, Note_on_c, 0, 70, 0
2, 13440, Note_on_c, 0, 58, 0
2, 13440, Note_on_c, 0, 65, 0
2, 13440, Note_on_c, 0, 68, 0
2, 13440, Note_on_c, 0, 63, 72
2, 13440, Note_on_c, 0, 67, 73
2, 13440, Note_on_c, 0, 75, 88
2, 14160, Note_on_c, 0, 75, 0
2, 14160, Note_on_c, 0, 67, 0
2, 14160, Note_on_c, 0, 67, 73
2, 14400, Note_on_c, 0, 67, 0
2, 14400, Note_on_c, 0, 63, 0
2, 14400, Note_on_c, 0, 70, 84
2, 14400, Note_on_c, 0, 67, 70
2, 14400, Note_on_c, 0, 63, 70
2, 14880, Note_on_c, 0, 63, 0
2, 14880, Note_on_c, 0, 67, 0
2, 14880, Note_on_c, 0, 70, 0
2, 14880, Note_on_c, 0, 72, 78
2, 14880, Note_on_c, 0, 67, 64
2, 14880, Note_on_c, 0, 63, 64
2, 15120, Note_on_c, 0, 67, 0
2, 15120, Note_on_c, 0, 72, 0
2, 15120, Note_on_c, 0, 67, 73
2, 15360, Note_on_c, 0, 67, 0
2, 15360, Note_on_c, 0, 63, 0
2, 15360, Note_on_c, 0, 70, 80
2, 15360, Note_on_c, 0, 67, 67
2, 15360, Note_on_c, 0, 63, 67
2, 16320, Note_on_c, 0, 63, 0
2, 16320, Note_on_c, 0, 67, 0
2, 16320, Note_on_c, 0, 70, 0
2, 16320, Note_on_c, 0, 67, 66
2, 16320, Note_on_c, 0, 63, 62
2, 16320, Note_on_c, 0, 70, 81
2, 16560, Note_on_c, 0, 70, 0
2, 16560, Note_on_c, 0, 72, 70
2, 16800, Note_on_c, 0, 72, 0
2, 16800, Note_on_c, 0, 63, 0
2, 16800, Note_on_c, 0, 67, 0
2, 16800, Note_on_c, 0, 63, 68
2, 16800, Note_on_c, 0, 67, 81
2, 17040, Note_on_c, 0, 67, 0
2, 17040, Note_on_c, 0, 72, 68
2, 17280, Note_on_c, 0, 72, 0
2, 17280, Note_on_c, 0, 63, 0
2, 17280, Note_on_c, 0, 63, 67
2, 17280, Note_on_c, 0, 70, 80
2, 17280, Note_on_c, 0, 67, 67
2, 18240, Note_on_c, 0, 67, 0
2, 18240, Note_on_c, 0, 70, 0
2, 18240, Note_on_c, 0, 63, 0
2, 18240, Note_on_c, 0, 70, 81
2, 18240, Note_on_c, 0, 67, 68
2, 18240, Note_on_c, 0, 63, 68
2, 19200, Note_on_c, 0, 63, 0
2, 19200, Note_on_c, 0, 67, 0
2, 19200, Note_on_c, 0, 70, 0
2, 19200, Note_on_c, 0, 77, 84
2, 19200, Note_on_c, 0, 65, 70
2, 19200, Note_on_c, 0, 70, 70
2, 19920, Note_on_c, 0, 65, 0
2, 19920, Note_on_c, 0, 77, 0
2, 19920, Note_on_c, 0, 67, 64
2, 19920, Note_on_c, 0, 79, 77
2, 20160, Note_on_c, 0, 79, 0
2, 20160, Note_on_c, 0, 67, 0
2, 20160, Note_on_c, 0, 65, 70
2, 20160, Note_on_c, 0, 77, 84
2, 20640, Note_on_c, 0, 77, 0
2, 20640, Note_on_c, 0, 65, 0
2, 20640, Note_on_c, 0, 70, 0
2, 20640, Note_on_c, 0, 72, 81
2, 20640, Note_on_c, 0, 60, 68
2, 20640, Note_on_c, 0, 68, 68
2, 20880, Note_on_c, 0, 60, 0
2, 20880, Note_on_c, 0, 72, 0
2, 20880, Note_on_c, 0, 62, 66
2, 20880, Note_on_c, 0, 74, 78
2, 21120, Note_on_c, 0, 74, 0
2, 21120, Note_on_c, 0, 62, 0
2, 21120, Note_on_c, 0, 68, 0
2, 21120, Note_on_c, 0, 67, 70
2, 21120, Note_on_c, 0, 63, 70
2, 21120, Note_on_c, 0, 75, 84
2, 22080, Note_on_c, 0, 75, 0
2, 22080, Note_on_c, 0, 63, 0
2, 22080, Note_on_c, 0, 67, 0
2, 22080, Note_on_c, 0, 63, 67
2, 22080, Note_on_c, 0, 67, 67
2, 22080, Note_on_c, 0, 75, 80
2, 22320, Note_on_c, 0, 75, 0
2, 22320, Note_on_c, 0, 63, 0
2, 22320, Note_on_c, 0, 62, 58
2, 22320, Note_on_c, 0, 74, 69
2, 22560, Note_on_c, 0, 74, 0
2, 22560, Note_on_c, 0, 62, 0
2, 22560, Note_on_c, 0, 67, 0
2, 22560, Note_on_c, 0, 72, 75
2, 22560, Note_on_c, 0, 60, 63
2, 22560, Note_on_c, 0, 68, 63
2, 22800, Note_on_c, 0, 60, 0
2, 22800, Note_on_c, 0, 72, 0
2, 22800, Note_on_c, 0, 74, 64
2, 22800, Note_on_c, 0, 62, 53
2, 23040, Note_on_c, 0, 62, 0
2, 23040, Note_on_c, 0, 74, 0
2, 23040, Note_on_c, 0, 68, 0
2, 23040, Note_on_c, 0, 70, 73
2, 23040, Note_on_c, 0, 67, 62
2, 23040, Note_on_c, 0, 63, 62
2, 24000, Note_on_c, 0, 63, 0
2, 24000, Note_on_c, 0, 63, 70
2, 24240, Note_on_c, 0, 63, 0
2, 24240, Note_on_c, 0, 62, 66
2, 24480, Note_on_c, 0, 62, 0
2, 24480, Note_on_c, 0, 67, 0
2, 24480, Note_on_c, 0, 70, 0
2, 24480, Note_on_c, 0, 66, 59
2, 24480, Note_on_c, 0, 72, 71
2, 24480, Note_on_c, 0, 60, 61
2, 24720, Note_on_c, 0, 60, 0
2, 24720, Note_on_c, 0, 62, 58
2, 24960, Note_on_c, 0, 62, 0
2, 24960, Note_on_c, 0, 72, 0
2, 24960, Note_on_c, 0, 66, 0
2, 24960, Note_on_c, 0, 67, 74
2, 24960, Note_on_c, 0, 60, 62
2, 24960, Note_on_c, 0, 62, 62
2, 25920, Note_on_c, 0, 60, 0
2, 25920, Note_on_c, 0, 59, 63
2, 26160, Note_on_c, 0, 59, 0
2, 26160, Note_on_c, 0, 62, 0
2, 26160, Note_on_c, 0, 67, 0
2, 26400, Note_on_c, 0, 55, 80
2, 26880, Note_on_c, 0, 55, 0
2, 26880, Note_on_c, 0, 60, 75
2, 27000, Note_on_c, 0, 60, 0
2, 27360, Note_on_c, 0, 63, 66
2, 27360, Note_on_c, 0, 67, 80
2, 27360, Note_on_c, 0, 60, 61
2, 27840, Note_on_c, 0, 60, 0
2, 27840, Note_on_c, 0, 67, 0
2, 27840, Note_on_c, 0, 63, 0
2, 27840, Note_on_c, 0, 62, 67
2, 28080, Note_on_c, 0, 62, 0
2, 28320, Note_on_c, 0, 65, 67
2, 28320, Note_on_c, 0, 67, 81
2, 28320, Note_on_c, 0, 62, 62
2, 28800, Note_on_c, 0, 62, 0
2, 28800, Note_on_c, 0, 67, 0
2, 28800, Note_on_c, 0, 65, 0
2, 28800, Note_on_c, 0, 63, 73
2, 29040, Note_on_c, 0, 63, 0
2, 29280, Note_on_c, 0, 62, 58
2, 29280, Note_on_c, 0, 65, 58
2, 29280, Note_on_c, 0, 67, 69
2, 29520, Note_on_c, 0, 62, 0
2, 29520, Note_on_c, 0, 60, 71
2, 29760, Note_on_c, 0, 60, 0
2, 29760, Note_on_c, 0, 67, 0
2, 29760, Note_on_c, 0, 65, 0
2, 29760, Note_on_c, 0, 59, 66
2, 30000, Note_on_c, 0, 59, 0
2, 30240, Note_on_c, 0, 67, 80
2, 30240, Note_on_c, 0, 55, 60
2, 30240, Note_on_c, 0, 65, 63
2, 30720, Note_on_c, 0, 65, 0
2, 30720, Note_on_c, 0, 55, 0
2, 30720, Note_on_c, 0, 67, 0
2, 30720, Note_on_c, 0, 60, 75
2, 30960, Note_on_c, 0, 60, 0
2, 31200, Note_on_c, 0, 60, 66
2, 31200, Note_on_c, 0, 67, 80
2, 31200, Note_on_c, 0, 63, 66
2, 31680, Note_on_c, 0, 63, 0
2, 31680, Note_on_c, 0, 67, 0
2, 31680, Note_on_c, 0, 60, 0
2, 31680, Note_on_c, 0, 57, 67
2, 31920, Note_on_c, 0, 57, 0
2, 32160, Note_on_c, 0, 57, 66
2, 32160, Note_on_c, 0, 65, 66
2, 32160, Note_on_c, 0, 67, 81
2, 32400, Note_on_c, 0, 57, 0
2, 32400, Note_on_c, 0, 59, 67
2, 32640, Note_on_c, 0, 59, 0
2, 32640, Note_on_c, 0, 67, 0
2, 32640, Note_on_c, 0, 65, 0
2, 32640, Note_on_c, 0, 60, 75
2, 32880, Note_on_c, 0, 60, 0
2, 33120, Note_on_c, 0, 63, 66
2, 33120, Note_on_c, 0, 67, 80
2, 33120, Note_on_c, 0, 60, 66
2, 33600, Note_on_c, 0, 60, 0
2, 33600, Note_on_c, 0, 67, 0
2, 33600, Note_on_c, 0, 63, 0
2, 33600, Note_on_c, 0, 75, 71
2, 33600, Note_on_c, 0, 79, 85
2, 33600, Note_on_c, 0, 67, 71
2, 33600, Note_on_c, 0, 72, 71
2, 33840, Note_on_c, 0, 72, 0
2, 33840, Note_on_c, 0, 75, 0
2, 33840, Note_on_c, 0, 79, 0
2, 33840, Note_on_c, 0, 67, 0
2, 34080, Note_on_c, 0, 67, 81
2, 34080, Note_on_c, 0, 55, 67
2, 34560, Note_on_c, 0, 55, 0
2, 34560, Note_on_c, 0, 67, 0
2, 34560, Note_on_c, 0, 72, 75
2, 34560, Note_on_c, 0, 67, 75
2, 34560, Note_on_c, 0, 63, 75
2, 34560, Note_on_c, 0, 60, 75
2, 34800, Note_on_c, 0, 60, 0
2, 34800, Note_on_c, 0, 72, 0
2, 34800, Note_on_c, 0, 67, 0
2, 34800, Note_on_c, 0, 63, 0
2, 35040, Note_on_c, 0, 60, 66
2, 35040, Note_on_c, 0, 72, 80
2, 35520, Note_on_c, 0, 72, 0
2, 35520, Note_on_c, 0, 60, 0
2, 35520, Note_on_c, 0, 62, 66
2, 35520, Note_on_c, 0, 74, 80
2, 35520, Note_on_c, 0, 71, 66
2, 35520, Note_on_c, 0, 67, 66
2, 35760, Note_on_c, 0, 67, 0
2, 35760, Note_on_c, 0, 62, 0
2, 35760, Note_on_c, 0, 74, 0
2, 35760, Note_on_c, 0, 71, 0
2, 36000, Note_on_c, 0, 62, 67
2, 36000, Note_on_c, 0, 74, 81
2, 36480, Note_on_c, 0, 74, 0
2, 36480, Note_on_c, 0, 62, 0
2, 36480, Note_on_c, 0, 67, 75
2, 36480, Note_on_c, 0, 63, 75
2, 36480, Note_on_c, 0, 75, 75
2, 36480, Note_on_c, 0, 72, 75
2, 36720, Note_on_c, 0, 72, 0
2, 36720, Note_on_c, 0, 67, 0
2, 36720, Note_on_c, 0, 63, 0
2, 36720, Note_on_c, 0, 75, 0
2, 36960, Note_on_c, 0, 62, 66
2, 36960, Note_on_c, 0, 74, 80
2, 37200, Note_on_c, 0, 74, 0
2, 37200, Note_on_c, 0, 62, 0
2, 37200, Note_on_c, 0, 72, 80
2, 37200, Note_on_c, 0, 60, 66
2, 37440, Note_on_c, 0, 60, 0
2, 37440, Note_on_c, 0, 72, 0
2, 37440, Note_on_c, 0, 62, 66
2, 37440, Note_on_c, 0, 67, 66
2, 37440, Note_on_c, 0, 71, 66
2, 37440, Note_on_c, 0, 74, 80
2, 37680, Note_on_c, 0, 74, 0
2, 37680, Note_on_c, 0, 62, 0
2, 37680, Note_on_c, 0, 67, 0
2, 37680, Note_on_c, 0, 71, 0
2, 37920, Note_on_c, 0, 55, 67
2, 37920, Note_on_c, 0, 67, 81
2, 38400, Note_on_c, 0, 67, 0
2, 38400, Note_on_c, 0, 55, 0
2, 38400, Note_on_c, 0, 60, 79
2, 38400, Note_on_c, 0, 72, 79
2, 38640, Note_on_c, 0, 72, 0
2, 38640, Note_on_c, 0, 60, 0
2, 38880, Note_on_c, 0, 75, 74
2, 38880, Note_on_c, 0, 79, 88
2, 38880, Note_on_c, 0, 67, 74
2, 38880, Note_on_c, 0, 72, 74
2, 39360, Note_on_c, 0, 72, 0
2, 39360, Note_on_c, 0, 75, 0
2, 39360, Note_on_c, 0, 79, 0
2, 39360, Note_on_c, 0, 67, 0
2, 39360, Note_on_c, 0, 63, 71
2, 39360, Note_on_c, 0, 75, 85
2, 39600, Note_on_c, 0, 75, 0
2, 39600, Note_on_c, 0, 63, 0
2, 39840, Note_on_c, 0, 62, 72
2, 39840, Note_on_c, 0, 67, 72
2, 39840, Note_on_c, 0, 71, 72
2, 39840, Note_on_c, 0, 74, 86
2, 40080, Note_on_c, 0, 74, 0
2, 40080, Note_on_c, 0, 62, 0
2, 40080, Note_on_c, 0, 67, 0
2, 40080, Note_on_c, 0, 71, 0
2, 40080, Note_on_c, 0, 75, 86
2, 40080, Note_on_c, 0, 63, 72
2, 40320, Note_on_c, 0, 63, 0
2, 40320, Note_on_c, 0, 75, 0
2, 40320, Note_on_c, 0, 60, 73
2, 40320, Note_on_c, 0, 72, 86
2, 40560, Note_on_c, 0, 72, 0
2, 40560, Note_on_c, 0, 60, 0
2, 40560, Note_on_c, 0, 75, 99
2, 40560, Note_on_c, 0, 79, 99
2, 40560, Note_on_c, 0, 67, 83
2, 40560, Note_on_c, 0, 72, 83
2, 40800, Note_on_c, 0, 72, 0
2, 40800, Note_on_c, 0, 75, 0
2, 40800, Note_on_c, 0, 79, 0
2, 40800, Note_on_c, 0, 67, 0
2, 40800, Note_on_c, 0, 77, 100
2, 40800, Note_on_c, 0, 80, 100
2, 40800, Note_on_c, 0, 68, 83
2, 40800, Note_on_c, 0, 72, 83
2, 41760, Note_on_c, 0, 72, 0
2, 41760, Note_on_c, 0, 77, 0
2, 41760, Note_on_c, 0, 80, 0
2, 41760, Note_on_c, 0, 68, 0
2, 41760, Note_on_c, 0, 70, 81
2, 41760, Note_on_c, 0, 74, 81
2, 41760, Note_on_c, 0, 77, 96
2, 41760, Note_on_c, 0, 82, 96
2, 42240, Note_on_c, 0, 82, 0
2, 42240, Note_on_c, 0, 70, 0
2, 42240, Note_on_c, 0, 74, 0
2, 42240, Note_on_c, 0, 77, 0
2, 42240, Note_on_c, 0, 67, 78
2, 42240, Note_on_c, 0, 70, 78
2, 42240, Note_on_c, 0, 79, 92
2, 42240, Note_on_c, 0, 75, 92
2, 42480, Note_on_c, 0, 75, 0
2, 42480, Note_on_c, 0, 67, 0
2, 42480, Note_on_c, 0, 70, 0
2, 42480, Note_on_c, 0, 79, 0
2, 42480, Note_on_c, 0, 75, 92
2, 42480, Note_on_c, 0, 72, 78
2, 42480, Note_on_c, 0, 67, 78
2, 42480, Note_on_c, 0, 79, 92
2, 42720, Note_on_c, 0, 79, 0
2, 42720, Note_on_c, 0, 75, 0
2, 42720, Note_on_c, 0, 72, 0
2, 42720, Note_on_c, 0, 67, 0
2, 42720, Note_on_c, 0, 77, 99
2, 42720, Note_on_c, 0, 72, 83
2, 42720, Note_on_c, 0, 68, 83
2, 42720, Note_on_c, 0, 80, 99
2, 43680, Note_on_c, 0, 80, 0
2, 43680, Note_on_c, 0, 77, 0
2, 43680, Note_on_c, 0, 72, 0
2, 43680, Note_on_c, 0, 68, 0
2, 43680, Note_on_c, 0, 77, 99
2, 43680, Note_on_c, 0, 82, 99
2, 43680, Note_on_c, 0, 74, 83
2, 43680, Note_on_c, 0, 70, 83
2, 44160, Note_on_c, 0, 70, 0
2, 44160, Note_on_c, 0, 77, 0
2, 44160, Note_on_c, 0, 82, 0
2, 44160, Note_on_c, 0, 74, 0
2, 44160, Note_on_c, 0, 67, 81
2, 44160, Note_on_c, 0, 70, 81
2, 44160, Note_on_c, 0, 75, 96
2, 44160, Note_on_c, 0, 79, 96
2, 44400, Note_on_c, 0, 79, 0
2, 44400, Note_on_c, 0, 67, 0
2, 44400, Note_on_c, 0, 70, 0
2, 44400, Note_on_c, 0, 75, 0
2, 44640, Note_on_c, 0, 87, 79
2, 44640, Note_on_c, 0, 79, 79
2, 44760, Note_on_c, 0, 79, 0
2, 44760, Note_on_c, 0, 87, 0
2, 44760, Note_on_c, 0, 75, 70
2, 44880, Note_on_c, 0, 75, 0
2, 45000, Note_on_c, 0, 75, 70
2, 45120, Note_on_c, 0, 75, 0
2, 45120, Note_on_c, 0, 86, 79
2, 45120, Note_on_c, 0, 79, 79
2, 45240, Note_on_c, 0, 79, 0
2, 45240, Note_on_c, 0, 86, 0
2, 45240, Note_on_c, 0, 74, 62
2, 45360, Note_on_c, 0, 74, 0
2, 45480, Note_on_c, 0, 74, 63
2, 45600, Note_on_c, 0, 74, 0
2, 45600, Note_on_c, 0, 84, 77
2, 45600, Note_on_c, 0, 78, 77
2, 45720, Note_on_c, 0, 78, 0
2, 45720, Note_on_c, 0, 84, 0
2, 45720, Note_on_c, 0, 72, 63
2, 45840, Note_on_c, 0, 72, 0
2, 45960, Note_on_c, 0, 72, 63
2, 46080, Note_on_c, 0, 72, 0
2, 46080, Note_on_c, 0, 74, 75
2, 46080, Note_on_c, 0, 79, 75
2, 46080, Note_on_c, 0, 83, 75
2, 46200, Note_on_c, 0, 83, 0
2, 46200, Note_on_c, 0, 79, 0
2, 46200, Note_on_c, 0, 74, 0
2, 46200, Note_on_c, 0, 71, 62
2, 46320, Note_on_c, 0, 71, 0
2, 46440, Note_on_c, 0, 71, 62
2, 46560, Note_on_c, 0, 71, 0
2, 46560, Note_on_c, 0, 80, 77
2, 46560, Note_on_c, 0, 74, 77
2, 46560, Note_on_c, 0, 71, 77
2, 46680, Note_on_c, 0, 71, 0
2, 46680, Note_on_c, 0, 74, 0
2, 46680, Note_on_c, 0, 80, 0
2, 46680, Note_on_c, 0, 68, 60
2, 46800, Note_on_c, 0, 68, 0
2, 46920, Note_on_c, 0, 68, 61
2, 47040, Note_on_c, 0, 68, 0
2, 47040, Note_on_c, 0, 72, 75
2, 47040, Note_on_c, 0, 79, 75
2, 47160, Note_on_c, 0, 79, 0
2, 47160, Note_on_c, 0, 72, 0
2, 47160, Note_on_c, 0, 67, 58
2, 47280, Note_on_c, 0, 67, 0
2, 47400, Note_on_c, 0, 67, 58
2, 47520, Note_on_c, 0, 67, 0
2, 47520, Note_on_c, 0, 67, 73
2, 47520, Note_on_c, 0, 71, 73
2, 47520, Note_on_c, 0, 77, 73
2, 47640, Note_on_c, 0, 77, 0
2, 47640, Note_on_c, 0, 71, 0
2, 47640, Note_on_c, 0, 67, 0
2, 47640, Note_on_c, 0, 65, 57
2, 47760, Note_on_c, 0, 65, 0
2, 47880, Note_on_c, 0, 65, 57
2, 48000, Note_on_c, 0, 65, 0
2, 48000, Note_on_c, 0, 63, 73
2, 48000, Note_on_c, 0, 75, 86
2, 48000, Note_on_c, 0, 67, 73
2, 48000, Note_on_c, 0, 72, 73
2, 48240, Note_on_c, 0, 72, 0
2, 48240, Note_on_c, 0, 63, 0
2, 48240, Note_on_c, 0, 75, 0
2, 48240, Note_on_c, 0, 67, 0
2, 48240, Note_on_c, 0, 67, 83
2, 48240, Note_on_c, 0, 72, 83
2, 48240, Note_on_c, 0, 75, 99
2, 48240, Note_on_c, 0, 79, 99
2, 48480, Note_on_c, 0, 79, 0
2, 48480, Note_on_c, 0, 67, 0
2, 48480, Note_on_c, 0, 72, 0
2, 48480, Note_on_c, 0, 75, 0
2, 48480, Note_on_c, 0, 68, 83
2, 48480, Note_on_c, 0, 72, 83
2, 48480, Note_on_c, 0, 80, 100
2, 48480, Note_on_c, 0, 77, 100
2, 49440, Note_on_c, 0, 77, 0
2, 49440, Note_on_c, 0, 68, 0
2, 49440, Note_on_c, 0, 72, 0
2, 49440, Note_on_c, 0, 80, 0
2, 49440, Note_on_c, 0, 77, 96
2, 49440, Note_on_c, 0, 74, 81
2, 49440, Note_on_c, 0, 70, 81
2, 49440, Note_on_c, 0, 82, 96
2, 49920, Note_on_c, 0, 82, 0
2, 49920, Note_on_c, 0, 77, 0
2, 49920, Note_on_c, 0, 74, 0
2, 49920, Note_on_c, 0, 70, 0
2, 49920, Note_on_c, 0, 75, 92
2, 49920, Note_on_c, 0, 70, 78
2, 49920, Note_on_c, 0, 67, 78
2, 49920, Note_on_c, 0, 79, 92
2, 50160, Note_on_c, 0, 79, 0
2, 50160, Note_on_c, 0, 75, 0
2, 50160, Note_on_c, 0, 70, 0
2, 50160, Note_on_c, 0, 67, 0
2, 50160, Note_on_c, 0, 75, 92
2, 50160, Note_on_c, 0, 79, 92
2, 50160, Note_on_c, 0, 67, 78
2, 50160, Note_on_c, 0, 72, 78
2, 50400, Note_on_c, 0, 72, 0
2, 50400, Note_on_c, 0, 75, 0
2, 50400, Note_on_c, 0, 79, 0
2, 50400, Note_on_c, 0, 67, 0
2, 50400, Note_on_c, 0, 68, 83
2, 50400, Note_on_c, 0, 80, 99
2, 50400, Note_on_c, 0, 77, 99
2, 50400, Note_on_c, 0, 72, 83
2, 51360, Note_on_c, 0, 72, 0
2, 51360, Note_on_c, 0, 68, 0
2, 51360, Note_on_c, 0, 80, 0
2, 51360, Note_on_c, 0, 77, 0
2, 51360, Note_on_c, 0, 70, 83
2, 51360, Note_on_c, 0, 82, 99
2, 51360, Note_on_c, 0, 74, 83
2, 51360, Note_on_c, 0, 77, 99
2, 51840, Note_on_c, 0, 77, 0
2, 51840, Note_on_c, 0, 70, 0
2, 51840, Note_on_c, 0, 82, 0
2, 51840, Note_on_c, 0, 74, 0
2, 51840, Note_on_c, 0, 67, 81
2, 51840, Note_on_c, 0, 70, 81
2, 51840, Note_on_c, 0, 75, 96
2, 51840, Note_on_c, 0, 79, 96
2, 52080, Note_on_c, 0, 79, 0
2, 52080, Note_on_c, 0, 67, 0
2, 52080, Note_on_c, 0, 70, 0
2, 52080, Note_on_c, 0, 75, 0
2, 52320, Note_on_c, 0, 79, 79
2, 52320, Note_on_c, 0, 75, 79
2, 52440, Note_on_c, 0, 75, 0
2, 52440, Note_on_c, 0, 79, 0
2, 52440, Note_on_c, 0, 67, 70
2, 52560, Note_on_c, 0, 67, 0
2, 52680, Note_on_c, 0, 67, 70
2, 52800, Note_on_c, 0, 67, 0
2, 52800, Note_on_c, 0, 80, 79
2, 52800, Note_on_c, 0, 75, 79
2, 52920, Note_on_c, 0, 75, 0
2, 52920, Note_on_c, 0, 80, 0
2, 52920, Note_on_c, 0, 68, 62
2, 53040, Note_on_c, 0, 68, 0
2, 53160, Note_on_c, 0, 68, 63
2, 53280, Note_on_c, 0, 68, 0
2, 53280, Note_on_c, 0, 82, 77
2, 53280, Note_on_c, 0, 75, 77
2, 53400, Note_on_c, 0, 75, 0
2, 53400, Note_on_c, 0, 82, 0
2, 53400, Note_on_c, 0, 70, 63
2, 53520, Note_on_c, 0, 70, 0
2, 53640, Note_on_c, 0, 70, 63
2, 53760, Note_on_c, 0, 70, 0
2, 53760, Note_on_c, 0, 84, 75
2, 53760, Note_on_c, 0, 75, 75
2, 53880, Note_on_c, 0, 75, 0
2, 53880, Note_on_c, 0, 84, 0
2, 53880, Note_on_c, 0, 72, 62
2, 54000, Note_on_c, 0, 72, 0
2, 54120, Note_on_c, 0, 72, 62
2, 54240, Note_on_c, 0, 72, 0
2, 54240, Note_on_c, 0, 79, 77
2, 54240, Note_on_c, 0, 83, 77
2, 54360, Note_on_c, 0, 83, 0
2, 54360, Note_on_c, 0, 79, 0
2, 54360, Note_on_c, 0, 71, 60
2, 54480, Note_on_c, 0, 71, 0
2, 54600, Note_on_c, 0, 71, 61
2, 54720, Note_on_c, 0, 71, 0
2, 54720, Note_on_c, 0, 84, 75
2, 54720, Note_on_c, 0, 79, 75
2, 54840, Note_on_c, 0, 79, 0
2, 54840, Note_on_c, 0, 84, 0
2, 54840, Note_on_c, 0, 72, 58
2, 54960, Note_on_c, 0, 72, 0
2, 55080, Note_on_c, 0, 72, 58
2, 55200, Note_on_c, 0, 72, 0
2, 55200, Note_on_c, 0, 86, 73
2, 55200, Note_on_c, 0, 79, 73
2, 55320, Note_on_c, 0, 79, 0
2, 55320, Note_on_c, 0, 86, 0
2, 55320, Note_on_c, 0, 74, 57
2, 55440, Note_on_c, 0, 74, 0
2, 55560, Note_on_c, 0, 74, 57
2, 55680, Note_on_c, 0, 74, 0
2, 55680, Note_on_c, 0, 79, 73
2, 55680, Note_on_c, 0, 75, 73
2, 55680, Note_on_c, 0, 87, 86
2, 55920, Note_on_c, 0, 87, 0
2, 55920, Note_on_c, 0, 75, 0
2, 55920, Note_on_c, 0, 79, 0
2, 55920, Note_on_c, 0, 75, 83
2, 55920, Note_on_c, 0, 79, 83
2, 55920, Note_on_c, 0, 87, 99
2, 55920, Note_on_c, 0, 84, 99
2, 56160, Note_on_c, 0, 84, 0
2, 56160, Note_on_c, 0, 75, 0
2, 56160, Note_on_c, 0, 79, 0
2, 56160, Note_on_c, 0, 87, 0
2, 56160, Note_on_c, 0, 89, 100
2, 56160, Note_on_c, 0, 84, 100
2, 56160, Note_on_c, 0, 77, 83
2, 57120, Note_on_c, 0, 77, 0
2, 57120, Note_on_c, 0, 84, 0
2, 57120, Note_on_c, 0, 89, 0
2, 57120, Note_on_c, 0, 85, 96
2, 57120, Note_on_c, 0, 77, 96
2, 57120, Note_on_c, 0, 73, 81
2, 57600, Note_on_c, 0, 73, 0
2, 57600, Note_on_c, 0, 77, 0
2, 57600, Note_on_c, 0, 85, 0
2, 57600, Note_on_c, 0, 74, 78
2, 57600, Note_on_c, 0, 86, 92
2, 57600, Note_on_c, 0, 77, 92
2, 57840, Note_on_c, 0, 77, 0
2, 57840, Note_on_c, 0, 86, 0
2, 57840, Note_on_c, 0, 74, 0
2, 57840, Note_on_c, 0, 84, 92
2, 57840, Note_on_c, 0, 87, 92
2, 57840, Note_on_c, 0, 75, 78
2, 57840, Note_on_c, 0, 79, 78
2, 58080, Note_on_c, 0, 79, 0
2, 58080, Note_on_c, 0, 84, 0
2, 58080, Note_on_c, 0, 87, 0
2, 58080, Note_on_c, 0, 75, 0
2, 58080, Note_on_c, 0, 77, 83
2, 58080, Note_on_c, 0, 84, 99
2, 58080, Note_on_c, 0, 89, 99
2, 59040, Note_on_c, 0, 89, 0
2, 59040, Note_on_c, 0, 84, 0
2, 59040, Note_on_c, 0, 77, 0
2, 59040, Note_on_c, 0, 73, 83
2, 59040, Note_on_c, 0, 77, 99
2, 59040, Note_on_c, 0, 85, 99
2, 59520, Note_on_c, 0, 85, 0
2, 59520, Note_on_c, 0, 77, 0
2, 59520, Note_on_c, 0, 73, 0
2, 59520, Note_on_c, 0, 86, 75
2, 59520, Note_on_c, 0, 82, 75
2, 59520, Note_on_c, 0, 77, 75
2, 59640, Note_on_c, 0, 77, 0
2, 59640, Note_on_c, 0, 82, 0
2, 59640, Note_on_c, 0, 86, 0
2, 59640, Note_on_c, 0, 74, 62
2, 59760, Note_on_c, 0, 74, 0
2, 59880, Note_on_c, 0, 74, 62
2, 60000, Note_on_c, 0, 74, 0
2, 60000, Note_on_c, 0, 78, 77
2, 60000, Note_on_c, 0, 81, 77
2, 60120, Note_on_c, 0, 81, 0
2, 60120, Note_on_c, 0, 78, 0
2, 60120, Note_on_c, 0, 69, 60
2, 60240, Note_on_c, 0, 69, 0
2, 60360, Note_on_c, 0, 69, 61
2, 60480, Note_on_c, 0, 69, 0
2, 60480, Note_on_c, 0, 82, 75
2, 60480, Note_on_c, 0, 77, 75
2, 60600, Note_on_c, 0, 77, 0
2, 60600, Note_on_c, 0, 82, 0
2, 60600, Note_on_c, 0, 70, 58
2, 60720, Note_on_c, 0, 70, 0
2, 60840, Note_on_c, 0, 70, 58
2, 60960, Note_on_c, 0, 70, 0
2, 60960, Note_on_c, 0, 78, 73
2, 60960, Note_on_c, 0, 69, 73
2, 61080, Note_on_c, 0, 69, 0
2, 61080, Note_on_c, 0, 78, 0
2, 61080, Note_on_c, 0, 66, 57
2, 61200, Note_on_c, 0, 66, 0
2, 61320, Note_on_c, 0, 66, 57
2, 61440, Note_on_c, 0, 66, 0
2, 61440, Note_on_c, 0, 77, 72
2, 61440, Note_on_c, 0, 70, 72
2, 61560, Note_on_c, 0, 70, 0
2, 61560, Note_on_c, 0, 77, 0
2, 61560, Note_on_c, 0, 65, 56
2, 61680, Note_on_c, 0, 65, 0
2, 61800, Note_on_c, 0, 65, 56
2, 61920, Note_on_c, 0, 65, 0
2, 61920, Note_on_c, 0, 66, 69
2, 61920, Note_on_c, 0, 69, 69
2, 62040, Note_on_c, 0, 69, 0
2, 62040, Note_on_c, 0, 66, 0
2, 62040, Note_on_c, 0, 63, 57
2, 62160, Note_on_c, 0, 63, 0
2, 62280, Note_on_c, 0, 63, 53
2, 62400, Note_on_c, 0, 63, 0
2, 62400, Note_on_c, 0, 70, 68
2, 62400, Note_on_c, 0, 65, 68
2, 62520, Note_on_c, 0, 65, 0
2, 62520, Note_on_c, 0, 70, 0
2, 62520, Note_on_c, 0, 62, 56
2, 62640, Note_on_c, 0, 62, 0
2, 62760, Note_on_c, 0, 62, 57
2, 62880, Note_on_c, 0, 62, 0
2, 62880, Note_on_c, 0, 63, 64
2, 62880, Note_on_c, 0, 57, 64
2, 63000, Note_on_c, 0, 57, 0
2, 63000, Note_on_c, 0, 63, 0
2, 63000, Note_on_c, 0, 54, 56
2, 63120, Note_on_c, 0, 54, 0
2, 63240, Note_on_c, 0, 54, 56
2, 63360, Note_on_c, 0, 54, 0
2, 63360, Note_on_c, 0, 65, 67
2, 63360, Note_on_c, 0, 58, 67
2, 63480, Note_on_c, 0, 58, 0
2, 63480, Note_on_c, 0, 65, 0
2, 63480, Note_on_c, 0, 53, 51
2, 63600, Note_on_c, 0, 53, 0
2, 63720, Note_on_c, 0, 53, 51
2, 63840, Note_on_c, 0, 53, 0
2, 63840, Note_on_c, 0, 54, 63
2, 63840, Note_on_c, 0, 57, 63
2, 63960, Note_on_c, 0, 57, 0
2, 63960, Note_on_c, 0, 54, 0
2, 63960, Note_on_c, 0, 51, 52
2, 64080, Note_on_c, 0, 51, 0
2, 64200, Note_on_c, 0, 51, 49
2, 64320, Note_on_c, 0, 51, 0
2, 64320, Note_on_c, 0, 58, 62
2, 64320, Note_on_c, 0, 53, 62
2, 64440, Note_on_c, 0, 53, 0
2, 64440, Note_on_c, 0, 58, 0
2, 64440, Note_on_c, 0, 50, 51
2, 64560, Note_on_c, 0, 50, 0
2, 64680, Note_on_c, 0, 50, 52
2, 64800, Note_on_c, 0, 50, 0
2, 64800, Note_on_c, 0, 57, 59
2, 64800, Note_on_c, 0, 51, 59
2, 64920, Note_on_c, 0, 51, 0
2, 64920, Note_on_c, 0, 57, 0
2, 64920, Note_on_c, 0, 48, 51
2, 65040, Note_on_c, 0, 48, 0
2, 65160, Note_on_c, 0, 48, 51
2, 65280, Note_on_c, 0, 48, 0
2, 65280, Note_on_c, 0, 50, 59
2, 65280, Note_on_c, 0, 58, 59
2, 65400, Note_on_c, 0, 58, 0
2, 65400, Note_on_c, 0, 50, 0
2, 65400, Note_on_c, 0, 46, 46
2, 65520, Note_on_c, 0, 46, 0
2, 65640, Note_on_c, 0, 46, 46
2, 65760, Note_on_c, 0, 46, 0
2, 65760, Note_on_c, 0, 51, 57
2, 65760, Note_on_c, 0, 57, 57
2, 65880, Note_on_c, 0, 57, 0
2, 65880, Note_on_c, 0, 51, 0
2, 65880, Note_on_c, 0, 48, 47
2, 66000, Note_on_c, 0, 48, 0
2, 66120, Note_on_c, 0, 48, 44
2, 66240, Note_on_c, 0, 48, 0
2, 66240, Note_on_c, 0, 50, 56
2, 66240, Note_on_c, 0, 58, 56
2, 66360, Note_on_c, 0, 58, 0
2, 66360, Note_on_c, 0, 50, 0
2, 66360, Note_on_c, 0, 46, 46
2, 66480, Note_on_c, 0, 46, 0
2, 66600, Note_on_c, 0, 46, 47
2, 66720, Note_on_c, 0, 46, 0
2, 66720, Note_on_c, 0, 57, 52
2, 66720, Note_on_c, 0, 51, 52
2, 66840, Note_on_c, 0, 51, 0
2, 66840, Note_on_c, 0, 57, 0
2, 66840, Note_on_c, 0, 48, 46
2, 66960, Note_on_c, 0, 48, 0
2, 67080, Note_on_c, 0, 48, 46
2, 67200, Note_on_c, 0, 48, 0
2, 67200, Note_on_c, 0, 50, 59
2, 67200, Note_on_c, 0, 58, 59
2, 67440, Note_on_c, 0, 58, 0
2, 67440, Note_on_c, 0, 50, 0
2, 67680, Note_on_c, 0, 50, 49
2, 67840, Note_on_c, 0, 50, 0
2, 67840, Note_on_c, 0, 53, 51
2, 68000, Note_on_c, 0, 53, 0
2, 68000, Note_on_c, 0, 58, 49
2, 68160, Note_on_c, 0, 58, 0
2, 68160, Note_on_c, 0, 62, 52
2, 68320, Note_on_c, 0, 62, 0
2, 68320, Note_on_c, 0, 58, 54
2, 68480, Note_on_c, 0, 58, 0
2, 68480, Note_on_c, 0, 62, 56
2, 68640, Note_on_c, 0, 62, 0
2, 68640, Note_on_c, 0, 65, 58
2, 68800, Note_on_c, 0, 65, 0
2, 68800, Note_on_c, 0, 70, 60
2, 68960, Note_on_c, 0, 70, 0
2, 68960, Note_on_c, 0, 74, 61
2, 69120, Note_on_c, 0, 74, 0
2, 69120, Note_on_c, 0, 63, 64
2, 69120, Note_on_c, 0, 75, 79
2, 69120, Note_on_c, 0, 67, 64
2, 69840, Note_on_c, 0, 67, 0
2, 69840, Note_on_c, 0, 75, 0
2, 69840, Note_on_c, 0, 67, 68
2, 70080, Note_on_c, 0, 67, 0
2, 70080, Note_on_c, 0, 63, 0
2, 70080, Note_on_c, 0, 63, 56
2, 70080, Note_on_c, 0, 67, 56
2, 70080, Note_on_c, 0, 70, 71
2, 70560, Note_on_c, 0, 70, 0
2, 70560, Note_on_c, 0, 67, 0
2, 70560, Note_on_c, 0, 63, 0
2, 70560, Note_on_c, 0, 72, 70
2, 70560, Note_on_c, 0, 67, 57
2, 70560, Note_on_c, 0, 63, 57
2, 70800, Note_on_c, 0, 67, 0
2, 70800, Note_on_c, 0, 72, 0
2, 70800, Note_on_c, 0, 67, 65
2, 71040, Note_on_c, 0, 67, 0
2, 71040, Note_on_c, 0, 63, 0
2, 71040, Note_on_c, 0, 70, 71
2, 71040, Note_on_c, 0, 67, 60
2, 71040, Note_on_c, 0, 63, 60
2, 72000, Note_on_c, 0, 63, 0
2, 72000, Note_on_c, 0, 67, 0
2, 72000, Note_on_c, 0, 70, 0
2, 72000, Note_on_c, 0, 63, 53
2, 72000, Note_on_c, 0, 67, 57
2, 72000, Note_on_c, 0, 70, 70
2, 72240, Note_on_c, 0, 72, 61
2, 72260, Note_on_c, 0, 70, 0
2, 72480, Note_on_c, 0, 63, 0
2, 72480, Note_on_c, 0, 67, 0
2, 72480, Note_on_c, 0, 72, 0
2, 72480, Note_on_c, 0, 63, 59
2, 72480, Note_on_c, 0, 67, 70
2, 72720, Note_on_c, 0, 72, 59
2, 72740, Note_on_c, 0, 67, 0
2, 72960, Note_on_c, 0, 72, 0
2, 72960, Note_on_c, 0, 63, 0
2, 72960, Note_on_c, 0, 67, 60
2, 72960, Note_on_c, 0, 63, 60
2, 72960, Note_on_c, 0, 70, 71
2, 74080, Note_on_c, 0, 70, 0
2, 74080, Note_on_c, 0, 63, 0
2, 74080, Note_on_c, 0, 67, 0
2, 74080, Note_on_c, 0, 62, 57
2, 74240, Note_on_c, 0, 62, 0
2, 74240, Note_on_c, 0, 63, 57
2, 74400, Note_on_c, 0, 63, 0
2, 74400, Note_on_c, 0, 67, 58
2, 74560, Note_on_c, 0, 67, 0
2, 74560, Note_on_c, 0, 70, 62
2, 74720, Note_on_c, 0, 70, 0
2, 74720, Note_on_c, 0, 75, 66
2, 74880, Note_on_c, 0, 75, 0
2, 74880, Note_on_c, 0, 77, 75
2, 74880, Note_on_c, 0, 65, 63
2, 74880, Note_on_c, 0, 70, 63
2, 75600, Note_on_c, 0, 79, 69
2, 75600, Note_on_c, 0, 67, 57
2, 75620, Note_on_c, 0, 65, 0
2, 75620, Note_on_c, 0, 77, 0
2, 75840, Note_on_c, 0, 65, 63
2, 75840, Note_on_c, 0, 77, 75
2, 75860, Note_on_c, 0, 79, 0
2, 75860, Note_on_c, 0, 67, 0
2, 76320, Note_on_c, 0, 65, 0
2, 76320, Note_on_c, 0, 70, 0
2, 76320, Note_on_c, 0, 77, 0
2, 76320, Note_on_c, 0, 72, 72
2, 76320, Note_on_c, 0, 60, 61
2, 76320, Note_on_c, 0, 68, 61
2, 76560, Note_on_c, 0, 72, 0
2, 76560, Note_on_c, 0, 62, 59
2, 76560, Note_on_c, 0, 74, 70
2, 76580, Note_on_c, 0, 60, 0
2, 76800, Note_on_c, 0, 74, 0
2, 76800, Note_on_c, 0, 62, 0
2, 76800, Note_on_c, 0, 63, 63
2, 76800, Note_on_c, 0, 67, 63
2, 76800, Note_on_c, 0, 75, 75
2, 76820, Note_on_c, 0, 68, 0
2, 78000, Note_on_c, 0, 63, 0
2, 78000, Note_on_c, 0, 75, 0
2, 78000, Note_on_c, 0, 62, 52
2, 78000, Note_on_c, 0, 74, 62
2, 78240, Note_on_c, 0, 67, 0
2, 78240, Note_on_c, 0, 72, 67
2, 78240, Note_on_c, 0, 60, 56
2, 78240, Note_on_c, 0, 68, 56
2, 78260, Note_on_c, 0, 74, 0
2, 78260, Note_on_c, 0, 62, 0
2, 78480, Note_on_c, 0, 62, 47
2, 78480, Note_on_c, 0, 74, 57
2, 78500, Note_on_c, 0, 60, 0
2, 78500, Note_on_c, 0, 72, 0
2, 78720, Note_on_c, 0, 68, 0
2, 78720, Note_on_c, 0, 62, 0
2, 78720, Note_on_c, 0, 74, 0
2, 78720, Note_on_c, 0, 63, 55
2, 78720, Note_on_c, 0, 67, 55
2, 78720, Note_on_c, 0, 70, 69
2, 79200, Note_on_c, 0, 70, 0
2, 79200, Note_on_c, 0, 67, 0
2, 79200, Note_on_c, 0, 63, 0
2, 79200, Note_on_c, 0, 63, 53
2, 79200, Note_on_c, 0, 67, 53
2, 79200, Note_on_c, 0, 70, 66
2, 79920, Note_on_c, 0, 63, 0
2, 79920, Note_on_c, 0, 62, 56
2, 80160, Note_on_c, 0, 62, 0
2, 80160, Note_on_c, 0, 70, 0
2, 80160, Note_on_c, 0, 67, 0
2, 80160, Note_on_c, 0, 68, 50
2, 80160, Note_on_c, 0, 70, 63
2, 80160, Note_on_c, 0, 60, 53
2, 80400, Note_on_c, 0, 60, 0
2, 80400, Note_on_c, 0, 62, 50
2, 80640, Note_on_c, 0, 62, 0
2, 80640, Note_on_c, 0, 70, 0
2, 80640, Note_on_c, 0, 68, 0
2, 80640, Note_on_c, 0, 63, 53
2, 80640, Note_on_c, 0, 67, 55
2, 80640, Note_on_c, 0, 70, 65
2, 81120, Note_on_c, 0, 70, 0
2, 81120, Note_on_c, 0, 67, 0
2, 81120, Note_on_c, 0, 63, 0
2, 81120, Note_on_c, 0, 70, 63
2, 81120, Note_on_c, 0, 63, 51
2, 81120, Note_on_c, 0, 67, 53
2, 81760, Note_on_c, 0, 70, 0
2, 81760, Note_on_c, 0, 72, 59
2, 81920, Note_on_c, 0, 72, 0
2, 81920, Note_on_c, 0, 69, 58
2, 82080, Note_on_c, 0, 69, 0
2, 82080, Note_on_c, 0, 67, 0
2, 82080, Note_on_c, 0, 63, 0
2, 82080, Note_on_c, 0, 68, 53
2, 82080, Note_on_c, 0, 70, 63
2, 82080, Note_on_c, 0, 62, 53
2, 82240, Note_on_c, 0, 70, 0
2, 82240, Note_on_c, 0, 72, 63
2, 82400, Note_on_c, 0, 72, 0
2, 82400, Note_on_c, 0, 74, 66
2, 82560, Note_on_c, 0, 74, 0
2, 82560, Note_on_c, 0, 62, 0
2, 82560, Note_on_c, 0, 68, 0
2, 82560, Note_on_c, 0, 75, 79
2, 82560, Note_on_c, 0, 67, 64
2, 83280, Note_on_c, 0, 67, 0
2, 83280, Note_on_c, 0, 75, 0
2, 83280, Note_on_c, 0, 67, 68
2, 83520, Note_on_c, 0, 67, 0
2, 83520, Note_on_c, 0, 63, 56
2, 83520, Note_on_c, 0, 67, 56
2, 83520, Note_on_c, 0, 70, 71
2, 84000, Note_on_c, 0, 70, 0
2, 84000, Note_on_c, 0, 67, 0
2, 84000, Note_on_c, 0, 63, 0
2, 84000, Note_on_c, 0, 72, 70
2, 84000, Note_on_c, 0, 67, 57
2, 84000, Note_on_c, 0, 63, 57
2, 84240, Note_on_c, 0, 67, 0
2, 84240, Note_on_c, 0, 67, 65
2, 84260, Note_on_c, 0, 72, 0
2, 84480, Note_on_c, 0, 67, 0
2, 84480, Note_on_c, 0, 63, 0
2, 84480, Note_on_c, 0, 70, 71
2, 84480, Note_on_c, 0, 67, 60
2, 84480, Note_on_c, 0, 63, 60
2, 85440, Note_on_c, 0, 63, 0
2, 85440, Note_on_c, 0, 67, 0
2, 85440, Note_on_c, 0, 70, 0
2, 85440, Note_on_c, 0, 63, 53
2, 85440, Note_on_c, 0, 67, 57
2, 85440, Note_on_c, 0, 70, 70
2, 85680, Note_on_c, 0, 72, 61
2, 85700, Note_on_c, 0, 70, 0
2, 85920, Note_on_c, 0, 63, 0
2, 85920, Note_on_c, 0, 67, 0
2, 85920, Note_on_c, 0, 72, 0
2, 85920, Note_on_c, 0, 63, 59
2, 85920, Note_on_c, 0, 67, 70
2, 86160, Note_on_c, 0, 72, 59
2, 86180, Note_on_c, 0, 67, 0
2, 86400, Note_on_c, 0, 72, 0
2, 86400, Note_on_c, 0, 63, 0
2, 86400, Note_on_c, 0, 67, 57
2, 86400, Note_on_c, 0, 63, 56
2, 86400, Note_on_c, 0, 70, 71
2, 87520, Note_on_c, 0, 70, 0
2, 87520, Note_on_c, 0, 63, 0
2, 87520, Note_on_c, 0, 67, 0
2, 87520, Note_on_c, 0, 62, 57
2, 87680, Note_on_c, 0, 62, 0
2, 87680, Note_on_c, 0, 63, 57
2, 87840, Note_on_c, 0, 63, 0
2, 87840, Note_on_c, 0, 67, 58
2, 88000, Note_on_c, 0, 67, 0
2, 88000, Note_on_c, 0, 70, 62
2, 88160, Note_on_c, 0, 70, 0
2, 88160, Note_on_c, 0, 75, 66
2, 88320, Note_on_c, 0, 75, 0
2, 88320, Note_on_c, 0, 77, 75
2, 88320, Note_on_c, 0, 65, 63
2, 88320, Note_on_c, 0, 70, 63
2, 89040, Note_on_c, 0, 79, 69
2, 89040, Note_on_c, 0, 67, 57
2, 89060, Note_on_c, 0, 65, 0
2, 89060, Note_on_c, 0, 77, 0
2, 89280, Note_on_c, 0, 65, 63
2, 89280, Note_on_c, 0, 77, 75
2, 89300, Note_on_c, 0, 79, 0
2, 89300, Note_on_c, 0, 67, 0
2, 89760, Note_on_c, 0, 65, 0
2, 89760, Note_on_c, 0, 70, 0
2, 89760, Note_on_c, 0, 77, 0
2, 89760, Note_on_c, 0, 72, 72
2, 89760, Note_on_c, 0, 60, 59
2, 89760, Note_on_c, 0, 68, 57
2, 90000, Note_on_c, 0, 62, 59
2, 90000, Note_on_c, 0, 74, 70
2, 90020, Note_on_c, 0, 60, 0
2, 90020, Note_on_c, 0, 72, 0
2, 90240, Note_on_c, 0, 62, 0
2, 90240, Note_on_c, 0, 68, 0
2, 90240, Note_on_c, 0, 74, 0
2, 90240, Note_on_c, 0, 63, 63
2, 90240, Note_on_c, 0, 67, 63
2, 90240, Note_on_c, 0, 75, 75
2, 91440, Note_on_c, 0, 75, 0
2, 91440, Note_on_c, 0, 63, 0
2, 91440, Note_on_c, 0, 62, 52
2, 91440, Note_on_c, 0, 74, 62
2, 91680, Note_on_c, 0, 67, 0
2, 91680, Note_on_c, 0, 72, 67
2, 91680, Note_on_c, 0, 60, 56
2, 91680, Note_on_c, 0, 68, 56
2, 91700, Note_on_c, 0, 74, 0
2, 91700, Note_on_c, 0, 62, 0
2, 91920, Note_on_c, 0, 62, 47
2, 91920, Note_on_c, 0, 74, 57
2, 91940, Note_on_c, 0, 60, 0
2, 91940, Note_on_c, 0, 72, 0
2, 92160, Note_on_c, 0, 68, 0
2, 92160, Note_on_c, 0, 62, 0
2, 92160, Note_on_c, 0, 74, 0
2, 92160, Note_on_c, 0, 63, 55
2, 92160, Note_on_c, 0, 67, 55
2, 92160, Note_on_c, 0, 70, 69
2, 92640, Note_on_c, 0, 70, 0
2, 92640, Note_on_c, 0, 67, 0
2, 92640, Note_on_c, 0, 63, 0
2, 92640, Note_on_c, 0, 63, 53
2, 92640, Note_on_c, 0, 67, 53
2, 92640, Note_on_c, 0, 70, 66
2, 93360, Note_on_c, 0, 63, 0
2, 93360, Note_on_c, 0, 62, 56
2, 93600, Note_on_c, 0, 62, 0
2, 93600, Note_on_c, 0, 70, 0
2, 93600, Note_on_c, 0, 67, 0
2, 93600, Note_on_c, 0, 68, 53
2, 93600, Note_on_c, 0, 70, 63
2, 93600, Note_on_c, 0, 60, 53
2, 93840, Note_on_c, 0, 60, 0
2, 93840, Note_on_c, 0, 62, 50
2, 94080, Note_on_c, 0, 62, 0
2, 94080, Note_on_c, 0, 70, 0
2, 94080, Note_on_c, 0, 68, 0
2, 94080, Note_on_c, 0, 70, 66
2, 94080, Note_on_c, 0, 67, 58
2, 94080, Note_on_c, 0, 63, 55
2, 94560, Note_on_c, 0, 63, 0
2, 94560, Note_on_c, 0, 67, 0
2, 94560, Note_on_c, 0, 70, 0
2, 94560, Note_on_c, 0, 70, 64
2, 94560, Note_on_c, 0, 67, 52
2, 94560, Note_on_c, 0, 63, 52
2, 95280, Note_on_c, 0, 63, 0
2, 95280, Note_on_c, 0, 62, 53
2, 95520, Note_on_c, 0, 62, 0
2, 95520, Note_on_c, 0, 67, 0
2, 95520, Note_on_c, 0, 70, 0
2, 95520, Note_on_c, 0, 68, 49
2, 95520, Note_on_c, 0, 70, 59
2, 95520, Note_on_c, 0, 60, 49
2, 95760, Note_on_c, 0, 60, 0
2, 95760, Note_on_c, 0, 62, 46
2, 96000, Note_on_c, 0, 62, 0
2, 96000, Note_on_c, 0, 70, 0
2, 96000, Note_on_c, 0, 68, 0
2, 96000, Note_on_c, 0, 70, 63
2, 96000, Note_on_c, 0, 67, 53
2, 96000, Note_on_c, 0, 63, 53
2, 96240, Note_on_c, 0, 63, 0
2, 96240, Note_on_c, 0, 67, 0
2, 96240, Note_on_c, 0, 70, 0
2, 96480, Note_on_c, 0, 70, 59
2, 96480, Note_on_c, 0, 63, 50
2, 96480, Note_on_c, 0, 67, 50
2, 98160, Note_on_c, 0, 67, 0
2, 98160, Note_on_c, 0, 63, 0
2, 98160, Note_on_c, 0, 70, 0
2, 98400, Note_on_c, 0, 63, 43
2, 98400, Note_on_c, 0, 67, 43
2, 98400, Note_on_c, 0, 70, 54
2, 100080, Note_on_c, 0, 70, 0
2, 100080, Note_on_c, 0, 67, 0
2, 100080, Note_on_c, 0, 63, 0
2, 100960, Note_on_c, 0, 62, 37
2, 101120, Note_on_c, 0, 62, 0
2, 101120, Note_on_c, 0, 63, 36
2, 101280, Note_on_c, 0, 63, 0
2, 101280, Note_on_c, 0, 65, 40
2, 101440, Note_on_c, 0, 65, 0
2, 101440, Note_on_c, 0, 62, 36
2, 101600, Note_on_c, 0, 62, 0
2, 101600, Note_on_c, 0, 65, 36
2, 101760, Note_on_c, 0, 65, 0
2, 101760, Note_on_c, 0, 63, 40
2, 102000, Note_on_c, 0, 63, 0
2, 102880, Note_on_c, 0, 69, 37
2, 103020, Note_on_c, 0, 70, 36
2, 103040, Note_on_c, 0, 69, 0
2, 103180, Note_on_c, 0, 70, 0
2, 103200, Note_on_c, 0, 72, 40
2, 103360, Note_on_c, 0, 72, 0
2, 103360, Note_on_c, 0, 69, 36
2, 103520, Note_on_c, 0, 69, 0
2, 103520, Note_on_c, 0, 72, 36
2, 103680, Note_on_c, 0, 72, 0
2, 103680, Note_on_c, 0, 70, 40
2, 103920, Note_on_c, 0, 70, 0
2, 104800, Note_on_c, 0, 78, 37
2, 104940, Note_on_c, 0, 79, 36
2, 104960, Note_on_c, 0, 78, 0
2, 105100, Note_on_c, 0, 79, 0
2, 105120, Note_on_c, 0, 81, 40
2, 105280, Note_on_c, 0, 81, 0
2, 105280, Note_on_c, 0, 82, 36
2, 105440, Note_on_c, 0, 82, 0
2, 105440, Note_on_c, 0, 86, 36
2, 105600, Note_on_c, 0, 86, 0
2, 105600, Note_on_c, 0, 87, 40
2, 106080, Note_on_c, 0, 75, 30
2, 106080, Note_on_c, 0, 79, 30
2, 106560, Note_on_c, 0, 79, 0
2, 106560, Note_on_c, 0, 75, 0
2, 106560, Note_on_c, 0, 75, 30
2, 106560, Note_on_c, 0, 79, 30
2, 107520, Note_on_c, 0, 79, 0
2, 107520, Note_on_c, 0, 75, 0
2, 107520, Note_on_c, 0, 87, 0
2, 107520, End_track
3, 0, Start_track
3, 0, Title_t, "Piano left"
3, 0, Program_c, 0, 0
3, 0, Control_c, 0, 7, 100
3, 0, Control_c, 0, 10, 64
3, 0, Control_c, 0, 64, 127
3, 0, Note_on_c, 0, 51, 58
3, 0, Note_on_c, 0, 58, 70
3, 1440, Note_on_c, 0, 58, 0
3, 1440, Note_on_c, 0, 51, 0
3, 1440, Note_on_c, 0, 51, 44
3, 1440, Note_on_c, 0, 58, 52
3, 1440, Note_on_c, 0, 46, 44
3, 1450, Control_c, 0, 64, 0
3, 1567, Control_c, 0, 64, 127
3, 1920, Note_on_c, 0, 46, 0
3, 1920, Note_on_c, 0, 58, 0
3, 1920, Note_on_c, 0, 51, 0
3, 1920, Note_on_c, 0, 58, 64
3, 1920, Note_on_c, 0, 51, 53
3, 1929, Control_c, 0, 64, 0
3, 2047, Control_c, 0, 64, 127
3, 2890, Control_c, 0, 64, 0
3, 3077, Control_c, 0, 64, 127
3, 3360, Note_on_c, 0, 51, 0
3, 3360, Note_on_c, 0, 58, 0
3, 3360, Note_on_c, 0, 51, 49
3, 3360, Note_on_c, 0, 58, 58
3, 3360, Note_on_c, 0, 46, 49
3, 3840, Note_on_c, 0, 46, 0
3, 3840, Note_on_c, 0, 58, 0
3, 3840, Note_on_c, 0, 51, 0
3, 3840, Note_on_c, 0, 51, 54
3, 3840, Note_on_c, 0, 58, 65
3, 3851, Control_c, 0, 64, 0
3, 4187, Control_c, 0, 64, 127
3, 5280, Note_on_c, 0, 58, 0
3, 5280, Note_on_c, 0, 51, 0
3, 5280, Note_on_c, 0, 46, 50
3, 5280, Note_on_c, 0, 58, 61
3, 5280, Note_on_c, 0, 51, 50
3, 5760, Note_on_c, 0, 51, 0
3, 5760, Note_on_c, 0, 58, 0
3, 5760, Note_on_c, 0, 46, 0
3, 5760, Control_c, 0, 64, 0
3, 5760, Note_on_c, 0, 62, 67
3, 5760, Note_on_c, 0, 58, 56
3, 5760, Note_on_c, 0, 51, 56
3, 6060, Control_c, 0, 64, 127
3, 7200, Note_on_c, 0, 51, 0
3, 7200, Note_on_c, 0, 58, 0
3, 7200, Note_on_c, 0, 62, 0
3, 7200, Note_on_c, 0, 53, 56
3, 7200, Note_on_c, 0, 46, 46
3, 7215, Control_c, 0, 64, 0
3, 7398, Control_c, 0, 64, 127
3, 7680, Note_on_c, 0, 46, 0
3, 7680, Note_on_c, 0, 53, 0
3, 7680, Note_on_c, 0, 51, 56
3, 7680, Note_on_c, 0, 58, 67
3, 7693, Control_c, 0, 64, 0
3, 7962, Control_c, 0, 64, 127
3, 8655, Control_c, 0, 64, 0
3, 8838, Control_c, 0, 64, 127
3, 9120, Note_on_c, 0, 58, 0
3, 9120, Note_on_c, 0, 51, 0
3, 9120, Note_on_c, 0, 46, 46
3, 9120, Note_on_c, 0, 53, 56
3, 9600, Note_on_c, 0, 53, 0
3, 9600, Note_on_c, 0, 46, 0
3, 9600, Note_on_c, 0, 51, 65
3, 9611, Control_c, 0, 64, 0
3, 9769, Control_c, 0, 64, 127
3, 10575, Control_c, 0, 64, 0
3, 10786, Control_c, 0, 64, 127
3, 10800, Note_on_c, 0, 51, 0
3, 10800, Note_on_c, 0, 50, 63
3, 11040, Note_on_c, 0, 50, 0
3, 11040, Note_on_c, 0, 48, 59
3, 11040, Note_on_c, 0, 46, 50
3, 11280, Note_on_c, 0, 48, 0
3, 11280, Note_on_c, 0, 50, 56
3, 11520, Note_on_c, 0, 50, 0
3, 11520, Note_on_c, 0, 46, 0
3, 11520, Note_on_c, 0, 51, 60
3, 11532, Control_c, 0, 64, 0
3, 11845, Control_c, 0, 64, 127
3, 12490, Control_c, 0, 64, 0
3, 12663, Control_c, 0, 64, 127
3, 12720, Note_on_c, 0, 51, 0
3, 12720, Note_on_c, 0, 50, 63
3, 12960, Note_on_c, 0, 50, 0
3, 12960, Note_on_c, 0, 46, 50
3, 12960, Note_on_c, 0, 48, 59
3, 13200, Note_on_c, 0, 48, 0
3, 13200, Note_on_c, 0, 50, 56
3, 13440, Note_on_c, 0, 50, 0
3, 13440, Note_on_c, 0, 46, 0
3, 13440, Control_c, 0, 64, 0
3, 13440, Note_on_c, 0, 58, 70
3, 13440, Note_on_c, 0, 51, 58
3, 13680, Control_c, 0, 64, 127
3, 14880, Note_on_c, 0, 51, 0
3, 14880, Note_on_c, 0, 58, 0
3, 14880, Note_on_c, 0, 46, 44
3, 14880, Note_on_c, 0, 58, 52
3, 14880, Note_on_c, 0, 51, 44
3, 14888, Control_c, 0, 64, 0
3, 15007, Control_c, 0, 64, 127
3, 15360, Note_on_c, 0, 51, 0
3, 15360, Note_on_c, 0, 58, 0
3, 15360, Note_on_c, 0, 46, 0
3, 15360, Note_on_c, 0, 51, 53
3, 15360, Note_on_c, 0, 58, 64
3, 15360, Control_c, 0, 64, 0
3, 15487, Control_c, 0, 64, 127
3, 16329, Control_c, 0, 64, 0
3, 16461, Control_c, 0, 64, 127
3, 16800, Note_on_c, 0, 58, 0
3, 16800, Note_on_c, 0, 51, 0
3, 16800, Note_on_c, 0, 51, 49
3, 16800, Note_on_c, 0, 46, 49
3, 16800, Note_on_c, 0, 58, 58
3, 17280, Note_on_c, 0, 58, 0
3, 17280, Note_on_c, 0, 46, 0
3, 17280, Note_on_c, 0, 51, 0
3, 17280, Note_on_c, 0, 58, 65
3, 17280, Note_on_c, 0, 51, 54
3, 17293, Control_c, 0, 64, 0
3, 17653, Control_c, 0, 64, 127
3, 18720, Note_on_c, 0, 51, 0
3, 18720, Note_on_c, 0, 58, 0
3, 18720, Note_on_c, 0, 51, 50
3, 18720, Note_on_c, 0, 46, 50
3, 18720, Note_on_c, 0, 58, 61
3, 19200, Note_on_c, 0, 58, 0
3, 19200, Note_on_c, 0, 46, 0
3, 19200, Note_on_c, 0, 51, 0
3, 19200, Note_on_c, 0, 51, 56
3, 19200, Note_on_c, 0, 58, 56
3, 19200, Note_on_c, 0, 62, 67
3, 19203, Control_c, 0, 64, 0
3, 19500, Control_c, 0, 64, 127
3, 20640, Note_on_c, 0, 62, 0
3, 20640, Note_on_c, 0, 58, 0
3, 20640, Note_on_c, 0, 51, 0
3, 20640, Note_on_c, 0, 53, 56
3, 20640, Note_on_c, 0, 46, 46
3, 20649, Control_c, 0, 64, 0
3, 20753, Control_c, 0, 64, 127
3, 21120, Note_on_c, 0, 46, 0
3, 21120, Note_on_c, 0, 53, 0
3, 21120, Control_c, 0, 64, 0
3, 21120, Note_on_c, 0, 58, 67
3, 21120, Note_on_c, 0, 51, 56
3, 21388, Control_c, 0, 64, 127
3, 22100, Control_c, 0, 64, 0
3, 22334, Control_c, 0, 64, 127
3, 22560, Note_on_c, 0, 51, 0
3, 22560, Note_on_c, 0, 58, 0
3, 22560, Note_on_c, 0, 53, 56
3, 22560, Note_on_c, 0, 46, 46
3, 23040, Note_on_c, 0, 46, 0
3, 23040, Note_on_c, 0, 53, 0
3, 23040, Note_on_c, 0, 51, 62
3, 23040, Note_on_c, 0, 58, 62
3, 23049, Control_c, 0, 64, 0
3, 23351, Control_c, 0, 64, 127
3, 24020, Control_c, 0, 64, 0
3, 24282, Control_c, 0, 64, 127
3, 24480, Note_on_c, 0, 58, 0
3, 24480, Note_on_c, 0, 51, 0
3, 24480, Note_on_c, 0, 44, 50
3, 24480, Note_on_c, 0, 50, 50
3, 24960, Note_on_c, 0, 50, 0
3, 24960, Note_on_c, 0, 44, 0
3, 24960, Note_on_c, 0, 43, 52
3, 24960, Note_on_c, 0, 50, 62
3, 24980, Control_c, 0, 64, 0
3, 25211, Control_c, 0, 64, 127
3, 26046, Control_c, 0, 64, 0
3, 26160, Note_on_c, 0, 50, 0
3, 26160, Note_on_c, 0, 43, 0
3, 26160, Note_on_c, 0, 41, 63
3, 26400, Note_on_c, 0, 41, 0
3, 26400, Note_on_c, 0, 39, 63
3, 26640, Note_on_c, 0, 39, 0
3, 26640, Note_on_c, 0, 38, 63
3, 26880, Note_on_c, 0, 38, 0
3, 26880, Note_on_c, 0, 36, 67
3, 27000, Note_on_c, 0, 36, 0
3, 27120, Note_on_c, 0, 43, 61
3, 27240, Note_on_c, 0, 43, 0
3, 27360, Note_on_c, 0, 48, 63
3, 27388, Control_c, 0, 64, 127
3, 27480, Note_on_c, 0, 48, 0
3, 27600, Note_on_c, 0, 43, 59
3, 27720, Note_on_c, 0, 43, 0
3, 27840, Note_on_c, 0, 36, 67
3, 27861, Control_c, 0, 64, 0
3, 27960, Note_on_c, 0, 36, 0
3, 28080, Note_on_c, 0, 43, 59
3, 28200, Note_on_c, 0, 43, 0
3, 28320, Note_on_c, 0, 48, 62
3, 28405, Control_c, 0, 64, 127
3, 28440, Note_on_c, 0, 48, 0
3, 28560, Note_on_c, 0, 43, 59
3, 28680, Note_on_c, 0, 43, 0
3, 28800, Note_on_c, 0, 36, 68
3, 28826, Control_c, 0, 64, 0
3, 28920, Note_on_c, 0, 36, 0
3, 29040, Note_on_c, 0, 43, 60
3, 29160, Note_on_c, 0, 43, 0
3, 29280, Note_on_c, 0, 48, 63
3, 29400, Note_on_c, 0, 48, 0
3, 29520, Note_on_c, 0, 43, 60
3, 29640, Note_on_c, 0, 43, 0
3, 29760, Note_on_c, 0, 36, 67
3, 29880, Note_on_c, 0, 36, 0
3, 30000, Note_on_c, 0, 43, 60
3, 30120, Note_on_c, 0, 43, 0
3, 30240, Note_on_c, 0, 48, 63
3, 30325, Control_c, 0, 64, 127
3, 30360, Note_on_c, 0, 48, 0
3, 30480, Note_on_c, 0, 43, 59
3, 30600, Note_on_c, 0, 43, 0
3, 30720, Control_c, 0, 64, 0
3, 30720, Note_on_c, 0, 36, 67
3, 30840, Note_on_c, 0, 36, 0
3, 30960, Note_on_c, 0, 43, 61
3, 31080, Note_on_c, 0, 43, 0
3, 31200, Note_on_c, 0, 48, 63
3, 31271, Control_c, 0, 64, 127
3, 31320, Note_on_c, 0, 48, 0
3, 31440, Note_on_c, 0, 43, 59
3, 31560, Note_on_c, 0, 43, 0
3, 31680, Note_on_c, 0, 36, 67
3, 31704, Control_c, 0, 64, 0
3, 31800, Note_on_c, 0, 36, 0
3, 31920, Note_on_c, 0, 43, 59
3, 32040, Note_on_c, 0, 43, 0
3, 32160, Note_on_c, 0, 48, 62
3, 32209, Control_c, 0, 64, 127
3, 32280, Note_on_c, 0, 48, 0
3, 32400, Note_on_c, 0, 43, 59
3, 32520, Note_on_c, 0, 43, 0
3, 32640, Control_c, 0, 64, 0
3, 32640, Note_on_c, 0, 36, 67
3, 32760, Note_on_c, 0, 36, 0
3, 32880, Note_on_c, 0, 43, 61
3, 33000, Note_on_c, 0, 43, 0
3, 33099, Control_c, 0, 64, 127
3, 33120, Note_on_c, 0, 48, 63
3, 33240, Note_on_c, 0, 48, 0
3, 33360, Note_on_c, 0, 43, 59
3, 33480, Note_on_c, 0, 43, 0
3, 33600, Note_on_c, 0, 36, 67
3, 33622, Control_c, 0, 64, 0
3, 33720, Note_on_c, 0, 36, 0
3, 33840, Note_on_c, 0, 43, 59
3, 33960, Note_on_c, 0, 43, 0
3, 34080, Note_on_c, 0, 48, 62
3, 34144, Control_c, 0, 64, 127
3, 34200, Note_on_c, 0, 48, 0
3, 34320, Note_on_c, 0, 43, 59
3, 34440, Note_on_c, 0, 43, 0
3, 34560, Control_c, 0, 64, 0
3, 34560, Note_on_c, 0, 36, 67
3, 34680, Note_on_c, 0, 36, 0
3, 34800, Note_on_c, 0, 43, 61
3, 34920, Note_on_c, 0, 43, 0
3, 35040, Note_on_c, 0, 48, 63
3, 35096, Control_c, 0, 64, 127
3, 35160, Note_on_c, 0, 48, 0
3, 35280, Note_on_c, 0, 55, 59
3, 35400, Note_on_c, 0, 55, 0
3, 35520, Note_on_c, 0, 55, 67
3, 35533, Control_c, 0, 64, 0
3, 35640, Note_on_c, 0, 55, 0
3, 35760, Note_on_c, 0, 48, 59
3, 35880, Note_on_c, 0, 48, 0
3, 36000, Note_on_c, 0, 43, 62
3, 36078, Control_c, 0, 64, 127
3, 36120, Note_on_c, 0, 43, 0
3, 36240, Note_on_c, 0, 36, 59
3, 36360, Note_on_c, 0, 36, 0
3, 36480, Note_on_c, 0, 36, 67
3, 36494, Control_c, 0, 64, 0
3, 36600, Note_on_c, 0, 36, 0
3, 36720, Note_on_c, 0, 43, 61
3, 36840, Note_on_c, 0, 43, 0
3, 36960, Note_on_c, 0, 48, 63
3, 37016, Control_c, 0, 64, 127
3, 37080, Note_on_c, 0, 48, 0
3, 37200, Note_on_c, 0, 55, 59
3, 37320, Note_on_c, 0, 55, 0
3, 37440, Note_on_c, 0, 55, 67
3, 37461, Control_c, 0, 64, 0
3, 37560, Note_on_c, 0, 55, 0
3, 37680, Note_on_c, 0, 48, 59
3, 37800, Note_on_c, 0, 48, 0
3, 37920, Note_on_c, 0, 43, 62
3, 37976, Control_c, 0, 64, 127
3, 38040, Note_on_c, 0, 43, 0
3, 38160, Note_on_c, 0, 36, 59
3, 38280, Note_on_c, 0, 36, 0
3, 38400, Note_on_c, 0, 36, 70
3, 38400, Control_c, 0, 64, 0
3, 38520, Note_on_c, 0, 36, 0
3, 38640, Note_on_c, 0, 43, 63
3, 38760, Note_on_c, 0, 43, 0
3, 38880, Note_on_c, 0, 48, 67
3, 38979, Control_c, 0, 64, 127
3, 39000, Note_on_c, 0, 48, 0
3, 39120, Note_on_c, 0, 55, 62
3, 39240, Note_on_c, 0, 55, 0
3, 39360, Note_on_c, 0, 55, 72
3, 39367, Control_c, 0, 64, 0
3, 39480, Note_on_c, 0, 55, 0
3, 39600, Note_on_c, 0, 48, 62
3, 39720, Note_on_c, 0, 48, 0
3, 39840, Note_on_c, 0, 43, 65
3, 39960, Note_on_c, 0, 43, 0
3, 40080, Note_on_c, 0, 36, 62
3, 40200, Note_on_c, 0, 36, 0
3, 40320, Note_on_c, 0, 36, 64
3, 40433, Control_c, 0, 64, 127
3, 40560, Note_on_c, 0, 36, 0
3, 40560, Note_on_c, 0, 51, 59
3, 40560, Note_on_c, 0, 55, 70
3, 40560, Note_on_c, 0, 60, 70
3, 40560, Note_on_c, 0, 48, 59
3, 40800, Note_on_c, 0, 48, 0
3, 40800, Note_on_c, 0, 51, 0
3, 40800, Note_on_c, 0, 55, 0
3, 40800, Note_on_c, 0, 60, 0
3, 40800, Note_on_c, 0, 56, 59
3, 40800, Note_on_c, 0, 65, 70
3, 40800, Note_on_c, 0, 60, 70
3, 40800, Note_on_c, 0, 53, 59
3, 40811, Control_c, 0, 64, 0
3, 41026, Control_c, 0, 64, 127
3, 41670, Note_on_c, 0, 53, 0
3, 41670, Note_on_c, 0, 56, 0
3, 41670, Note_on_c, 0, 65, 0
3, 41670, Note_on_c, 0, 60, 0
3, 41670, Note_on_c, 0, 46, 53
3, 41686, Control_c, 0, 64, 0
3, 41700, Note_on_c, 0, 53, 53
3, 41730, Note_on_c, 0, 58, 63
3, 41760, Note_on_c, 0, 62, 63
3, 41802, Control_c, 0, 64, 127
3, 42240, Note_on_c, 0, 62, 0
3, 42240, Note_on_c, 0, 46, 0
3, 42240, Note_on_c, 0, 53, 0
3, 42240, Note_on_c, 0, 58, 0
3, 42240, Control_c, 0, 64, 0
3, 42240, Note_on_c, 0, 63, 66
3, 42240, Note_on_c, 0, 55, 56
3, 42240, Note_on_c, 0, 58, 66
3, 42240, Note_on_c, 0, 51, 56
3, 42395, Control_c, 0, 64, 127
3, 42480, Note_on_c, 0, 51, 0
3, 42480, Note_on_c, 0, 63, 0
3, 42480, Note_on_c, 0, 55, 0
3, 42480, Note_on_c, 0, 58, 0
3, 42480, Note_on_c, 0, 63, 66
3, 42480, Note_on_c, 0, 60, 66
3, 42720, Note_on_c, 0, 60, 0
3, 42720, Note_on_c, 0, 63, 0
3, 42720, Note_on_c, 0, 56, 59
3, 42720, Note_on_c, 0, 53, 59
3, 42720, Note_on_c, 0, 65, 70
3, 42720, Note_on_c, 0, 60, 70
3, 42730, Control_c, 0, 64, 0
3, 43016, Control_c, 0, 64, 127
3, 43590, Note_on_c, 0, 60, 0
3, 43590, Note_on_c, 0, 56, 0
3, 43590, Note_on_c, 0, 53, 0
3, 43590, Note_on_c, 0, 65, 0
3, 43590, Note_on_c, 0, 46, 61
3, 43620, Note_on_c, 0, 53, 61
3, 43627, Control_c, 0, 64, 0
3, 43650, Note_on_c, 0, 58, 73
3, 43680, Note_on_c, 0, 62, 73
3, 43719, Control_c, 0, 64, 127
3, 44160, Note_on_c, 0, 62, 0
3, 44160, Note_on_c, 0, 46, 0
3, 44160, Note_on_c, 0, 53, 0
3, 44160, Note_on_c, 0, 58, 0
3, 44160, Note_on_c, 0, 58, 66
3, 44160, Note_on_c, 0, 55, 56
3, 44160, Note_on_c, 0, 51, 56
3, 44160, Note_on_c, 0, 63, 66
3, 44168, Control_c, 0, 64, 0
3, 44287, Control_c, 0, 64, 127
3, 44400, Note_on_c, 0, 63, 0
3, 44400, Note_on_c, 0, 58, 0
3, 44400, Note_on_c, 0, 55, 0
3, 44400, Note_on_c, 0, 51, 0
3, 44456, Control_c, 0, 64, 0
3, 44640, Note_on_c, 0, 67, 73
3, 44640, Note_on_c, 0, 60, 73
3, 44760, Note_on_c, 0, 60, 0
3, 44760, Note_on_c, 0, 67, 0
3, 44880, Note_on_c, 0, 72, 67
3, 45000, Note_on_c, 0, 72, 0
3, 45120, Note_on_c, 0, 62, 74
3, 45120, Note_on_c, 0, 59, 74
3, 45240, Note_on_c, 0, 59, 0
3, 45240, Note_on_c, 0, 62, 0
3, 45360, Note_on_c, 0, 71, 67
3, 45480, Note_on_c, 0, 71, 0
3, 45600, Note_on_c, 0, 62, 72
3, 45600, Note_on_c, 0, 56, 72
3, 45720, Note_on_c, 0, 56, 0
3, 45720, Note_on_c, 0, 62, 0
3, 45840, Note_on_c, 0, 68, 62
3, 45960, Note_on_c, 0, 68, 0
3, 46080, Note_on_c, 0, 55, 71
3, 46080, Note_on_c, 0, 62, 71
3, 46200, Note_on_c, 0, 62, 0
3, 46200, Note_on_c, 0, 55, 0
3, 46320, Note_on_c, 0, 67, 59
3, 46440, Note_on_c, 0, 67, 0
3, 46560, Note_on_c, 0, 53, 70
3, 46680, Note_on_c, 0, 53, 0
3, 46800, Note_on_c, 0, 65, 57
3, 46920, Note_on_c, 0, 65, 0
3, 47040, Note_on_c, 0, 51, 67
3, 47160, Note_on_c, 0, 51, 0
3, 47280, Note_on_c, 0, 63, 56
3, 47400, Note_on_c, 0, 63, 0
3, 47520, Note_on_c, 0, 50, 63
3, 47640, Note_on_c, 0, 50, 0
3, 47760, Note_on_c, 0, 62, 58
3, 47880, Note_on_c, 0, 62, 0
3, 48000, Note_on_c, 0, 48, 64
3, 48113, Control_c, 0, 64, 127
3, 48240, Note_on_c, 0, 48, 0
3, 48240, Note_on_c, 0, 63, 70
3, 48240, Note_on_c, 0, 60, 70
3, 48480, Note_on_c, 0, 60, 0
3, 48480, Note_on_c, 0, 63, 0
3, 48480, Note_on_c, 0, 56, 59
3, 48480, Note_on_c, 0, 65, 70
3, 48480, Note_on_c, 0, 60, 70
3, 48480, Note_on_c, 0, 53, 59
3, 48491, Control_c, 0, 64, 0
3, 48706, Control_c, 0, 64, 127
3, 49350, Note_on_c, 0, 53, 0
3, 49350, Note_on_c, 0, 56, 0
3, 49350, Note_on_c, 0, 65, 0
3, 49350, Note_on_c, 0, 60, 0
3, 49350, Note_on_c, 0, 46, 53
3, 49376, Control_c, 0, 64, 0
3, 49380, Note_on_c, 0, 53, 53
3, 49410, Note_on_c, 0, 58, 63
3, 49440, Note_on_c, 0, 62, 63
3, 49496, Control_c, 0, 64, 127
3, 49920, Note_on_c, 0, 62, 0
3, 49920, Note_on_c, 0, 46, 0
3, 49920, Note_on_c, 0, 53, 0
3, 49920, Note_on_c, 0, 58, 0
3, 49920, Control_c, 0, 64, 0
3, 49920, Note_on_c, 0, 63, 66
3, 49920, Note_on_c, 0, 55, 56
3, 49920, Note_on_c, 0, 58, 66
3, 49920, Note_on_c, 0, 51, 56
3, 50075, Control_c, 0, 64, 127
3, 50160, Note_on_c, 0, 51, 0
3, 50160, Note_on_c, 0, 63, 0
3, 50160, Note_on_c, 0, 55, 0
3, 50160, Note_on_c, 0, 58, 0
3, 50160, Note_on_c, 0, 60, 66
3, 50160, Note_on_c, 0, 63, 66
3, 50400, Note_on_c, 0, 63, 0
3, 50400, Note_on_c, 0, 60, 0
3, 50400, Note_on_c, 0, 56, 59
3, 50400, Note_on_c, 0, 60, 70
3, 50400, Note_on_c, 0, 65, 70
3, 50400, Note_on_c, 0, 53, 59
3, 50412, Control_c, 0, 64, 0
3, 50696, Control_c, 0, 64, 127
3, 51162, Control_c, 0, 64, 0
3, 51270, Note_on_c, 0, 53, 0
3, 51270, Note_on_c, 0, 56, 0
3, 51270, Note_on_c, 0, 60, 0
3, 51270, Note_on_c, 0, 65, 0
3, 51270, Note_on_c, 0, 46, 61
3, 51289, Control_c, 0, 64, 127
3, 51300, Note_on_c, 0, 53, 61
3, 51330, Note_on_c, 0, 58, 73
3, 51360, Note_on_c, 0, 62, 73
3, 51840, Note_on_c, 0, 62, 0
3, 51840, Note_on_c, 0, 46, 0
3, 51840, Note_on_c, 0, 53, 0
3, 51840, Note_on_c, 0, 58, 0
3, 51840, Note_on_c, 0, 63, 66
3, 51840, Note_on_c, 0, 58, 66
3, 51840, Note_on_c, 0, 55, 56
3, 51840, Note_on_c, 0, 51, 56
3, 51847, Control_c, 0, 64, 0
3, 51967, Control_c, 0, 64, 127
3, 52080, Note_on_c, 0, 51, 0
3, 52080, Note_on_c, 0, 63, 0
3, 52080, Note_on_c, 0, 58, 0
3, 52080, Note_on_c, 0, 55, 0
3, 52136, Control_c, 0, 64, 0
3, 52320, Note_on_c, 0, 51, 73
3, 52320, Note_on_c, 0, 58, 73
3, 52440, Note_on_c, 0, 58, 0
3, 52440, Note_on_c, 0, 51, 0
3, 52560, Note_on_c, 0, 63, 67
3, 52680, Note_on_c, 0, 63, 0
3, 52800, Note_on_c, 0, 58, 74
3, 52800, Note_on_c, 0, 53, 74
3, 52920, Note_on_c, 0, 53, 0
3, 52920, Note_on_c, 0, 58, 0
3, 53040, Note_on_c, 0, 65, 67
3, 53160, Note_on_c, 0, 65, 0
3, 53280, Note_on_c, 0, 58, 72
3, 53280, Note_on_c, 0, 55, 72
3, 53400, Note_on_c, 0, 55, 0
3, 53400, Note_on_c, 0, 58, 0
3, 53520, Note_on_c, 0, 67, 62
3, 53640, Note_on_c, 0, 67, 0
3, 53760, Note_on_c, 0, 56, 71
3, 53760, Note_on_c, 0, 63, 71
3, 53880, Note_on_c, 0, 63, 0
3, 53880, Note_on_c, 0, 56, 0
3, 54000, Note_on_c, 0, 68, 59
3, 54120, Note_on_c, 0, 68, 0
3, 54240, Note_on_c, 0, 55, 70
3, 54240, Note_on_c, 0, 62, 70
3, 54360, Note_on_c, 0, 62, 0
3, 54360, Note_on_c, 0, 55, 0
3, 54480, Note_on_c, 0, 67, 57
3, 54600, Note_on_c, 0, 67, 0
3, 54720, Note_on_c, 0, 62, 67
3, 54720, Note_on_c, 0, 57, 67
3, 54840, Note_on_c, 0, 57, 0
3, 54840, Note_on_c, 0, 62, 0
3, 54960, Note_on_c, 0, 69, 56
3, 55080, Note_on_c, 0, 69, 0
3, 55200, Note_on_c, 0, 62, 63
3, 55200, Note_on_c, 0, 59, 63
3, 55320, Note_on_c, 0, 59, 0
3, 55320, Note_on_c, 0, 62, 0
3, 55440, Note_on_c, 0, 71, 58
3, 55560, Note_on_c, 0, 71, 0
3, 55680, Note_on_c, 0, 60, 70
3, 55680, Control_c, 0, 64, 127
3, 55680, Note_on_c, 0, 72, 70
3, 55680, Note_on_c, 0, 67, 70
3, 55920, Note_on_c, 0, 67, 0
3, 55920, Note_on_c, 0, 72, 0
3, 55920, Note_on_c, 0, 60, 0
3, 55920, Note_on_c, 0, 60, 63
3, 55920, Note_on_c, 0, 70, 63
3, 55920, Note_on_c, 0, 58, 63
3, 56160, Note_on_c, 0, 58, 0
3, 56160, Note_on_c, 0, 70, 0
3, 56160, Note_on_c, 0, 60, 0
3, 56160, Note_on_c, 0, 57, 70
3, 56160, Note_on_c, 0, 69, 70
3, 56160, Note_on_c, 0, 60, 70
3, 56175, Control_c, 0, 64, 0
3, 56349, Control_c, 0, 64, 127
3, 56880, Note_on_c, 0, 60, 0
3, 56880, Note_on_c, 0, 69, 0
3, 56880, Note_on_c, 0, 57, 0
3, 56880, Note_on_c, 0, 53, 59
3, 56880, Note_on_c, 0, 65, 59
3, 57120, Note_on_c, 0, 65, 0
3, 57120, Note_on_c, 0, 53, 0
3, 57120, Note_on_c, 0, 67, 62
3, 57120, Note_on_c, 0, 55, 62
3, 57133, Control_c, 0, 64, 0
3, 57272, Control_c, 0, 64, 127
3, 57360, Note_on_c, 0, 55, 0
3, 57360, Note_on_c, 0, 67, 0
3, 57360, Note_on_c, 0, 69, 66
3, 57360, Note_on_c, 0, 57, 66
3, 57600, Note_on_c, 0, 57, 0
3, 57600, Note_on_c, 0, 69, 0
3, 57600, Control_c, 0, 64, 0
3, 57600, Note_on_c, 0, 70, 69
3, 57600, Note_on_c, 0, 58, 69
3, 57714, Control_c, 0, 64, 127
3, 57840, Note_on_c, 0, 58, 0
3, 57840, Note_on_c, 0, 70, 0
3, 57840, Note_on_c, 0, 60, 63
3, 57840, Note_on_c, 0, 70, 63
3, 57840, Note_on_c, 0, 58, 63
3, 58080, Note_on_c, 0, 58, 0
3, 58080, Note_on_c, 0, 70, 0
3, 58080, Note_on_c, 0, 60, 0
3, 58080, Note_on_c, 0, 60, 69
3, 58080, Note_on_c, 0, 69, 69
3, 58080, Note_on_c, 0, 57, 69
3, 58094, Control_c, 0, 64, 0
3, 58282, Control_c, 0, 64, 127
3, 58800, Note_on_c, 0, 57, 0
3, 58800, Note_on_c, 0, 69, 0
3, 58800, Note_on_c, 0, 60, 0
3, 58800, Note_on_c, 0, 65, 61
3, 58800, Note_on_c, 0, 53, 61
3, 59040, Note_on_c, 0, 53, 0
3, 59040, Note_on_c, 0, 65, 0
3, 59040, Note_on_c, 0, 67, 63
3, 59040, Note_on_c, 0, 55, 63
3, 59049, Control_c, 0, 64, 0
3, 59204, Control_c, 0, 64, 127
3, 59280, Note_on_c, 0, 55, 0
3, 59280, Note_on_c, 0, 67, 0
3, 59280, Note_on_c, 0, 57, 64
3, 59280, Note_on_c, 0, 69, 64
3, 59520, Note_on_c, 0, 69, 0
3, 59520, Note_on_c, 0, 57, 0
3, 59520, Control_c, 0, 64, 0
3, 59520, Note_on_c, 0, 58, 71
3, 59520, Note_on_c, 0, 65, 71
3, 59640, Note_on_c, 0, 65, 0
3, 59640, Note_on_c, 0, 58, 0
3, 59760, Note_on_c, 0, 70, 59
3, 59880, Note_on_c, 0, 70, 0
3, 60000, Note_on_c, 0, 63, 70
3, 60000, Note_on_c, 0, 58, 70
3, 60120, Note_on_c, 0, 58, 0
3, 60120, Note_on_c, 0, 63, 0
3, 60240, Note_on_c, 0, 66, 57
3, 60360, Note_on_c, 0, 66, 0
3, 60480, Note_on_c, 0, 62, 67
3, 60480, Note_on_c, 0, 58, 67
3, 60600, Note_on_c, 0, 58, 0
3, 60600, Note_on_c, 0, 62, 0
3, 60720, Note_on_c, 0, 65, 56
3, 60840, Note_on_c, 0, 65, 0
3, 60960, Note_on_c, 0, 46, 63
3, 61080, Note_on_c, 0, 46, 0
3, 61200, Note_on_c, 0, 63, 58
3, 61320, Note_on_c, 0, 63, 0
3, 61440, Note_on_c, 0, 46, 64
3, 61560, Note_on_c, 0, 46, 0
3, 61680, Note_on_c, 0, 62, 55
3, 61800, Note_on_c, 0, 62, 0
3, 61920, Note_on_c, 0, 46, 63
3, 62040, Note_on_c, 0, 46, 0
3, 62160, Note_on_c, 0, 60, 55
3, 62280, Note_on_c, 0, 60, 0
3, 62400, Note_on_c, 0, 46, 63
3, 62520, Note_on_c, 0, 46, 0
3, 62640, Note_on_c, 0, 58, 55
3, 62760, Note_on_c, 0, 58, 0
3, 62880, Note_on_c, 0, 34, 62
3, 63000, Note_on_c, 0, 34, 0
3, 63120, Note_on_c, 0, 51, 56
3, 63240, Note_on_c, 0, 51, 0
3, 63360, Note_on_c, 0, 34, 59
3, 63480, Note_on_c, 0, 34, 0
3, 63600, Note_on_c, 0, 50, 50
3, 63720, Note_on_c, 0, 50, 0
3, 63840, Note_on_c, 0, 34, 58
3, 63960, Note_on_c, 0, 34, 0
3, 64080, Note_on_c, 0, 48, 50
3, 64200, Note_on_c, 0, 48, 0
3, 64320, Note_on_c, 0, 34, 58
3, 64440, Note_on_c, 0, 34, 0
3, 64560, Note_on_c, 0, 46, 50
3, 64680, Note_on_c, 0, 46, 0
3, 64800, Note_on_c, 0, 34, 58
3, 64920, Note_on_c, 0, 34, 0
3, 65040, Note_on_c, 0, 42, 51
3, 65160, Note_on_c, 0, 42, 0
3, 65280, Note_on_c, 0, 34, 52
3, 65400, Note_on_c, 0, 34, 0
3, 65520, Note_on_c, 0, 41, 45
3, 65640, Note_on_c, 0, 41, 0
3, 65760, Note_on_c, 0, 34, 51
3, 65880, Note_on_c, 0, 34, 0
3, 66000, Note_on_c, 0, 42, 45
3, 66120, Note_on_c, 0, 42, 0
3, 66240, Note_on_c, 0, 34, 51
3, 66360, Note_on_c, 0, 34, 0
3, 66480, Note_on_c, 0, 41, 45
3, 66600, Note_on_c, 0, 41, 0
3, 66720, Note_on_c, 0, 34, 51
3, 66840, Note_on_c, 0, 34, 0
3, 66960, Note_on_c, 0, 42, 46
3, 67080, Note_on_c, 0, 42, 0
3, 67200, Note_on_c, 0, 34, 45
3, 67249, Control_c, 0, 64, 127
3, 67360, Note_on_c, 0, 34, 0
3, 67360, Note_on_c, 0, 41, 43
3, 67520, Note_on_c, 0, 41, 0
3, 67520, Note_on_c, 0, 46, 43
3, 67680, Note_on_c, 0, 46, 0
3, 69120, Note_on_c, 0, 51, 45
3, 69120, Note_on_c, 0, 58, 56
3, 69123, Control_c, 0, 64, 0
3, 69263, Control_c, 0, 64, 127
3, 69280, Note_on_c, 0, 58, 0
3, 69280, Note_on_c, 0, 57, 45
3, 69440, Note_on_c, 0, 57, 0
3, 69440, Note_on_c, 0, 58, 45
3, 69600, Note_on_c, 0, 58, 0
3, 69600, Note_on_c, 0, 60, 51
3, 69760, Note_on_c, 0, 60, 0
3, 69760, Note_on_c, 0, 57, 46
3, 69920, Note_on_c, 0, 57, 0
3, 69920, Note_on_c, 0, 60, 46
3, 70080, Note_on_c, 0, 60, 0
3, 70080, Note_on_c, 0, 58, 55
3, 70093, Control_c, 0, 64, 0
3, 70280, Control_c, 0, 64, 127
3, 70560, Note_on_c, 0, 51, 0
3, 70560, Note_on_c, 0, 46, 39
3, 71040, Note_on_c, 0, 46, 0
3, 71040, Note_on_c, 0, 58, 0
3, 71040, Note_on_c, 0, 58, 51
3, 71040, Note_on_c, 0, 51, 46
3, 71040, Control_c, 0, 64, 0
3, 71167, Control_c, 0, 64, 127
3, 71200, Note_on_c, 0, 58, 0
3, 71200, Note_on_c, 0, 57, 45
3, 71360, Note_on_c, 0, 57, 0
3, 71360, Note_on_c, 0, 58, 45
3, 71520, Note_on_c, 0, 58, 0
3, 71520, Note_on_c, 0, 60, 49
3, 71680, Note_on_c, 0, 60, 0
3, 71680, Note_on_c, 0, 57, 46
3, 71840, Note_on_c, 0, 57, 0
3, 71840, Note_on_c, 0, 60, 46
3, 72000, Note_on_c, 0, 60, 0
3, 72000, Note_on_c, 0, 58, 56
3, 72016, Control_c, 0, 64, 0
3, 72141, Control_c, 0, 64, 127
3, 72480, Note_on_c, 0, 51, 0
3, 72480, Note_on_c, 0, 46, 44
3, 72960, Note_on_c, 0, 46, 0
3, 72960, Note_on_c, 0, 58, 0
3, 72960, Note_on_c, 0, 51, 41
3, 72960, Note_on_c, 0, 58, 51
3, 72970, Control_c, 0, 64, 0
3, 73120, Note_on_c, 0, 58, 0
3, 73120, Note_on_c, 0, 57, 45
3, 73173, Control_c, 0, 64, 127
3, 73280, Note_on_c, 0, 57, 0
3, 73280, Note_on_c, 0, 58, 45
3, 73440, Note_on_c, 0, 58, 0
3, 73440, Note_on_c, 0, 60, 51
3, 73600, Note_on_c, 0, 60, 0
3, 73600, Note_on_c, 0, 57, 47
3, 73760, Note_on_c, 0, 57, 0
3, 73760, Note_on_c, 0, 60, 47
3, 73920, Note_on_c, 0, 60, 0
3, 73920, Note_on_c, 0, 58, 57
3, 73933, Control_c, 0, 64, 0
3, 74034, Control_c, 0, 64, 127
3, 74400, Note_on_c, 0, 51, 0
3, 74400, Note_on_c, 0, 46, 45
3, 74880, Note_on_c, 0, 46, 0
3, 74880, Note_on_c, 0, 58, 0
3, 74880, Note_on_c, 0, 62, 50
3, 74880, Note_on_c, 0, 58, 46
3, 74880, Note_on_c, 0, 51, 46
3, 74890, Control_c, 0, 64, 0
3, 74960, Control_c, 0, 64, 127
3, 75040, Note_on_c, 0, 62, 0
3, 75040, Note_on_c, 0, 61, 45
3, 75120, Note_on_c, 0, 51, 0
3, 75120, Note_on_c, 0, 58, 0
3, 75200, Note_on_c, 0, 61, 0
3, 75200, Note_on_c, 0, 62, 45
3, 75360, Note_on_c, 0, 62, 0
3, 75360, Note_on_c, 0, 63, 49
3, 75520, Note_on_c, 0, 63, 0
3, 75520, Note_on_c, 0, 61, 46
3, 75680, Note_on_c, 0, 61, 0
3, 75680, Note_on_c, 0, 63, 46
3, 75840, Note_on_c, 0, 63, 0
3, 75840, Note_on_c, 0, 62, 57
3, 75849, Control_c, 0, 64, 0
3, 75920, Control_c, 0, 64, 127
3, 76080, Note_on_c, 0, 62, 0
3, 76320, Note_on_c, 0, 46, 41
3, 76320, Note_on_c, 0, 58, 50
3, 76800, Note_on_c, 0, 58, 0
3, 76800, Note_on_c, 0, 46, 0
3, 76800, Control_c, 0, 64, 0
3, 76800, Note_on_c, 0, 51, 45
3, 76800, Note_on_c, 0, 58, 51
3, 76903, Control_c, 0, 64, 127
3, 76960, Note_on_c, 0, 58, 0
3, 76960, Note_on_c, 0, 57, 45
3, 77120, Note_on_c, 0, 57, 0
3, 77120, Note_on_c, 0, 58, 45
3, 77280, Note_on_c, 0, 58, 0
3, 77280, Note_on_c, 0, 60, 49
3, 77440, Note_on_c, 0, 60, 0
3, 77440, Note_on_c, 0, 57, 45
3, 77600, Note_on_c, 0, 57, 0
3, 77600, Note_on_c, 0, 60, 45
3, 77760, Note_on_c, 0, 60, 0
3, 77760, Note_on_c, 0, 58, 57
3, 77773, Control_c, 0, 64, 0
3, 77958, Control_c, 0, 64, 127
3, 78000, Note_on_c, 0, 58, 0
3, 78240, Note_on_c, 0, 51, 0
3, 78240, Note_on_c, 0, 58, 50
3, 78240, Note_on_c, 0, 46, 41
3, 78720, Note_on_c, 0, 46, 0
3, 78720, Note_on_c, 0, 58, 0
3, 78720, Note_on_c, 0, 58, 49
3, 78720, Note_on_c, 0, 51, 46
3, 78729, Control_c, 0, 64, 0
3, 78880, Note_on_c, 0, 58, 0
3, 78880, Note_on_c, 0, 57, 45
3, 78889, Control_c, 0, 64, 127
3, 79040, Note_on_c, 0, 57, 0
3, 79040, Note_on_c, 0, 58, 45
3, 79200, Note_on_c, 0, 58, 0
3, 79200, Note_on_c, 0, 60, 49
3, 79360, Note_on_c, 0, 60, 0
3, 79360, Note_on_c, 0, 57, 47
3, 79520, Note_on_c, 0, 57, 0
3, 79520, Note_on_c, 0, 60, 47
3, 79680, Note_on_c, 0, 60, 0
3, 79680, Note_on_c, 0, 58, 57
3, 79695, Control_c, 0, 64, 0
3, 79863, Control_c, 0, 64, 127
3, 80160, Note_on_c, 0, 51, 0
3, 80160, Note_on_c, 0, 46, 45
3, 80640, Note_on_c, 0, 46, 0
3, 80640, Note_on_c, 0, 58, 0
3, 80640, Note_on_c, 0, 58, 48
3, 80640, Note_on_c, 0, 51, 49
3, 80646, Control_c, 0, 64, 0
3, 80795, Control_c, 0, 64, 127
3, 80800, Note_on_c, 0, 58, 0
3, 80800, Note_on_c, 0, 57, 44
3, 80960, Note_on_c, 0, 57, 0
3, 80960, Note_on_c, 0, 58, 44
3, 81120, Note_on_c, 0, 58, 0
3, 81120, Note_on_c, 0, 60, 47
3, 81280, Note_on_c, 0, 60, 0
3, 81280, Note_on_c, 0, 57, 43
3, 81440, Note_on_c, 0, 57, 0
3, 81440, Note_on_c, 0, 60, 42
3, 81600, Note_on_c, 0, 60, 0
3, 81600, Note_on_c, 0, 58, 55
3, 81611, Control_c, 0, 64, 0
3, 81713, Control_c, 0, 64, 127
3, 81840, Note_on_c, 0, 51, 0
3, 82080, Note_on_c, 0, 58, 0
3, 82080, Note_on_c, 0, 58, 52
3, 82080, Note_on_c, 0, 46, 45
3, 82560, Note_on_c, 0, 46, 0
3, 82560, Note_on_c, 0, 58, 0
3, 82560, Note_on_c, 0, 58, 56
3, 82560, Note_on_c, 0, 51, 45
3, 82567, Control_c, 0, 64, 0
3, 82674, Control_c, 0, 64, 127
3, 82720, Note_on_c, 0, 58, 0
3, 82720, Note_on_c, 0, 57, 45
3, 82880, Note_on_c, 0, 57, 0
3, 82880, Note_on_c, 0, 58, 45
3, 83040, Note_on_c, 0, 58, 0
3, 83040, Note_on_c, 0, 60, 51
3, 83200, Note_on_c, 0, 60, 0
3, 83200, Note_on_c, 0, 57, 46
3, 83360, Note_on_c, 0, 57, 0
3, 83360, Note_on_c, 0, 60, 46
3, 83520, Note_on_c, 0, 60, 0
3, 83520, Note_on_c, 0, 58, 55
3, 83534, Control_c, 0, 64, 0
3, 83754, Control_c, 0, 64, 127
3, 84000, Note_on_c, 0, 51, 0
3, 84000, Note_on_c, 0, 46, 39
3, 84480, Note_on_c, 0, 46, 0
3, 84480, Note_on_c, 0, 58, 0
3, 84480, Note_on_c, 0, 58, 51
3, 84480, Note_on_c, 0, 51, 46
3, 84489, Control_c, 0, 64, 0
3, 84607, Control_c, 0, 64, 127
3, 84640, Note_on_c, 0, 58, 0
3, 84640, Note_on_c, 0, 57, 45
3, 84800, Note_on_c, 0, 57, 0
3, 84800, Note_on_c, 0, 58, 45
3, 84960, Note_on_c, 0, 58, 0
3, 84960, Note_on_c, 0, 60, 49
3, 85120, Note_on_c, 0, 60, 0
3, 85120, Note_on_c, 0, 57, 46
3, 85280, Note_on_c, 0, 57, 0
3, 85280, Note_on_c, 0, 60, 46
3, 85440, Note_on_c, 0, 60, 0
3, 85440, Note_on_c, 0, 58, 56
3, 85457, Control_c, 0, 64, 0
3, 85581, Control_c, 0, 64, 127
3, 85920, Note_on_c, 0, 51, 0
3, 85920, Note_on_c, 0, 46, 44
3, 86400, Note_on_c, 0, 46, 0
3, 86400, Note_on_c, 0, 58, 0
3, 86400, Note_on_c, 0, 58, 51
3, 86400, Note_on_c, 0, 51, 41
3, 86409, Control_c, 0, 64, 0
3, 86503, Control_c, 0, 64, 127
3, 86560, Note_on_c, 0, 58, 0
3, 86560, Note_on_c, 0, 57, 45
3, 86720, Note_on_c, 0, 57, 0
3, 86720, Note_on_c, 0, 58, 45
3, 86880, Note_on_c, 0, 58, 0
3, 86880, Note_on_c, 0, 60, 51
3, 87040, Note_on_c, 0, 60, 0
3, 87040, Note_on_c, 0, 57, 47
3, 87200, Note_on_c, 0, 57, 0
3, 87200, Note_on_c, 0, 60, 47
3, 87360, Note_on_c, 0, 60, 0
3, 87360, Note_on_c, 0, 58, 57
3, 87375, Control_c, 0, 64, 0
3, 87451, Control_c, 0, 64, 127
3, 87840, Note_on_c, 0, 51, 0
3, 87840, Note_on_c, 0, 46, 45
3, 88320, Note_on_c, 0, 46, 0
3, 88320, Note_on_c, 0, 58, 0
3, 88320, Note_on_c, 0, 51, 46
3, 88320, Note_on_c, 0, 62, 50
3, 88320, Note_on_c, 0, 58, 46
3, 88330, Control_c, 0, 64, 0
3, 88433, Control_c, 0, 64, 127
3, 88480, Note_on_c, 0, 62, 0
3, 88480, Note_on_c, 0, 61, 45
3, 88560, Note_on_c, 0, 58, 0
3, 88560, Note_on_c, 0, 51, 0
3, 88640, Note_on_c, 0, 61, 0
3, 88640, Note_on_c, 0, 62, 45
3, 88800, Note_on_c, 0, 62, 0
3, 88800, Note_on_c, 0, 63, 49
3, 88960, Note_on_c, 0, 63, 0
3, 88960, Note_on_c, 0, 61, 46
3, 89120, Note_on_c, 0, 61, 0
3, 89120, Note_on_c, 0, 63, 46
3, 89280, Note_on_c, 0, 63, 0
3, 89280, Note_on_c, 0, 62, 57
3, 89291, Control_c, 0, 64, 0
3, 89375, Control_c, 0, 64, 127
3, 89520, Note_on_c, 0, 62, 0
3, 89760, Note_on_c, 0, 46, 41
3, 89760, Note_on_c, 0, 58, 50
3, 90240, Note_on_c, 0, 58, 0
3, 90240, Note_on_c, 0, 46, 0
3, 90240, Note_on_c, 0, 51, 45
3, 90240, Note_on_c, 0, 58, 51
3, 90247, Control_c, 0, 64, 0
3, 90381, Control_c, 0, 64, 127
3, 90400, Note_on_c, 0, 58, 0
3, 90400, Note_on_c, 0, 57, 45
3, 90560, Note_on_c, 0, 57, 0
3, 90560, Note_on_c, 0, 58, 45
3, 90720, Note_on_c, 0, 58, 0
3, 90720, Note_on_c, 0, 60, 49
3, 90880, Note_on_c, 0, 60, 0
3, 90880, Note_on_c, 0, 57, 45
3, 91040, Note_on_c, 0, 57, 0
3, 91040, Note_on_c, 0, 60, 45
3, 91200, Note_on_c, 0, 60, 0
3, 91200, Note_on_c, 0, 58, 57
3, 91215, Control_c, 0, 64, 0
3, 91349, Control_c, 0, 64, 127
3, 91440, Note_on_c, 0, 58, 0
3, 91680, Note_on_c, 0, 51, 0
3, 91680, Note_on_c, 0, 58, 50
3, 91680, Note_on_c, 0, 46, 41
3, 92160, Note_on_c, 0, 46, 0
3, 92160, Note_on_c, 0, 58, 0
3, 92160, Note_on_c, 0, 51, 46
3, 92160, Note_on_c, 0, 58, 49
3, 92172, Control_c, 0, 64, 0
3, 92269, Control_c, 0, 64, 127
3, 92320, Note_on_c, 0, 58, 0
3, 92320, Note_on_c, 0, 57, 45
3, 92480, Note_on_c, 0, 57, 0
3, 92480, Note_on_c, 0, 58, 45
3, 92640, Note_on_c, 0, 58, 0
3, 92640, Note_on_c, 0, 60, 49
3, 92800, Note_on_c, 0, 60, 0
3, 92800, Note_on_c, 0, 57, 47
3, 92960, Note_on_c, 0, 57, 0
3, 92960, Note_on_c, 0, 60, 47
3, 93120, Note_on_c, 0, 60, 0
3, 93120, Note_on_c, 0, 58, 57
3, 93137, Control_c, 0, 64, 0
3, 93229, Control_c, 0, 64, 127
3, 93600, Note_on_c, 0, 51, 0
3, 93600, Note_on_c, 0, 46, 45
3, 94080, Note_on_c, 0, 46, 0
3, 94080, Note_on_c, 0, 58, 0
3, 94080, Note_on_c, 0, 51, 46
3, 94080, Note_on_c, 0, 58, 49
3, 94090, Control_c, 0, 64, 0
3, 94183, Control_c, 0, 64, 127
3, 94240, Note_on_c, 0, 58, 0
3, 94240, Note_on_c, 0, 57, 45
3, 94400, Note_on_c, 0, 57, 0
3, 94400, Note_on_c, 0, 58, 44
3, 94560, Note_on_c, 0, 58, 0
3, 94560, Note_on_c, 0, 60, 48
3, 94720, Note_on_c, 0, 60, 0
3, 94720, Note_on_c, 0, 57, 46
3, 94880, Note_on_c, 0, 57, 0
3, 94880, Note_on_c, 0, 60, 45
3, 95040, Note_on_c, 0, 60, 0
3, 95040, Note_on_c, 0, 58, 54
3, 95054, Control_c, 0, 64, 0
3, 95166, Control_c, 0, 64, 127
3, 95520, Note_on_c, 0, 51, 0
3, 95520, Note_on_c, 0, 46, 42
3, 96000, Note_on_c, 0, 46, 0
3, 96000, Note_on_c, 0, 51, 42
3, 96010, Control_c, 0, 64, 0
3, 96160, Note_on_c, 0, 58, 0
3, 96160, Note_on_c, 0, 57, 40
3, 96169, Control_c, 0, 64, 127
3, 96320, Note_on_c, 0, 57, 0
3, 96320, Note_on_c, 0, 58, 40
3, 96480, Note_on_c, 0, 58, 0
3, 96480, Note_on_c, 0, 60, 44
3, 96640, Note_on_c, 0, 60, 0
3, 96640, Note_on_c, 0, 57, 41
3, 96800, Note_on_c, 0, 57, 0
3, 96800, Note_on_c, 0, 60, 41
3, 96960, Note_on_c, 0, 60, 0
3, 96960, Note_on_c, 0, 58, 50
3, 96972, Control_c, 0, 64, 0
3, 97080, Control_c, 0, 64, 127
3, 97440, Note_on_c, 0, 51, 0
3, 97440, Note_on_c, 0, 46, 47
3, 97920, Note_on_c, 0, 46, 0
3, 97920, Note_on_c, 0, 51, 38
3, 97928, Control_c, 0, 64, 0
3, 98057, Control_c, 0, 64, 127
3, 98080, Note_on_c, 0, 58, 0
3, 98080, Note_on_c, 0, 57, 37
3, 98240, Note_on_c, 0, 57, 0
3, 98240, Note_on_c, 0, 58, 36
3, 98400, Note_on_c, 0, 58, 0
3, 98400, Note_on_c, 0, 60, 40
3, 98560, Note_on_c, 0, 60, 0
3, 98560, Note_on_c, 0, 57, 38
3, 98720, Note_on_c, 0, 57, 0
3, 98720, Note_on_c, 0, 60, 37
3, 98880, Note_on_c, 0, 60, 0
3, 98880, Note_on_c, 0, 58, 45
3, 98890, Control_c, 0, 64, 0
3, 99106, Control_c, 0, 64, 127
3, 99360, Note_on_c, 0, 51, 0
3, 99360, Note_on_c, 0, 46, 40
3, 99840, Note_on_c, 0, 46, 0
3, 99840, Note_on_c, 0, 51, 34
3, 99848, Control_c, 0, 64, 0
3, 99943, Control_c, 0, 64, 127
3, 100000, Note_on_c, 0, 58, 0
3, 100000, Note_on_c, 0, 57, 33
3, 100080, Note_on_c, 0, 51, 0
3, 100160, Note_on_c, 0, 57, 0
3, 100160, Note_on_c, 0, 58, 33
3, 100320, Note_on_c, 0, 58, 0
3, 100320, Note_on_c, 0, 60, 35
3, 100480, Note_on_c, 0, 60, 0
3, 100480, Note_on_c, 0, 57, 34
3, 100640, Note_on_c, 0, 57, 0
3, 100640, Note_on_c, 0, 60, 33
3, 100800, Note_on_c, 0, 60, 0
3, 100800, Note_on_c, 0, 58, 40
3, 100817, Control_c, 0, 64, 0
3, 100926, Control_c, 0, 64, 127
3, 101040, Note_on_c, 0, 58, 0
3, 101766, Control_c, 0, 64, 0
3, 101920, Note_on_c, 0, 66, 33
3, 101929, Control_c, 0, 64, 127
3, 102080, Note_on_c, 0, 66, 0
3, 102080, Note_on_c, 0, 67, 33
3, 102240, Note_on_c, 0, 67, 0
3, 102240, Note_on_c, 0, 68, 35
3, 102400, Note_on_c, 0, 68, 0
3, 102400, Note_on_c, 0, 66, 34
3, 102560, Note_on_c, 0, 66, 0
3, 102560, Note_on_c, 0, 68, 33
3, 102720, Note_on_c, 0, 68, 0
3, 102720, Note_on_c, 0, 67, 40
3, 102729, Control_c, 0, 64, 0
3, 102946, Control_c, 0, 64, 127
3, 102960, Note_on_c, 0, 67, 0
3, 103689, Control_c, 0, 64, 0
3, 103840, Note_on_c, 0, 74, 33
3, 103849, Control_c, 0, 64, 127
3, 104000, Note_on_c, 0, 74, 0
3, 104000, Note_on_c, 0, 75, 33
3, 104160, Note_on_c, 0, 75, 0
3, 104160, Note_on_c, 0, 77, 35
3, 104320, Note_on_c, 0, 77, 0
3, 104320, Note_on_c, 0, 74, 34
3, 104480, Note_on_c, 0, 74, 0
3, 104480, Note_on_c, 0, 77, 33
3, 104640, Note_on_c, 0, 77, 0
3, 104640, Note_on_c, 0, 75, 40
3, 104655, Control_c, 0, 64, 0
3, 104806, Control_c, 0, 64, 127
3, 104880, Note_on_c, 0, 75, 0
3, 105610, Control_c, 0, 64, 0
3, 105893, Control_c, 0, 64, 127
3, 106080, Note_on_c, 0, 70, 26
3, 106080, Note_on_c, 0, 63, 26
3, 106560, Note_on_c, 0, 63, 0
3, 106560, Note_on_c, 0, 70, 0
3, 106560, Note_on_c, 0, 63, 26
3, 106560, Note_on_c, 0, 70, 26
3, 107520, Note_on_c, 0, 70, 0
3, 107520, Note_on_c, 0, 63, 0
3, 108880, Control_c, 0, 64, 0
3, 108880, End_track
4, 0, Start_track
4, 0, Title_t, "Tschaikowsky: The Seasons: July"
4, 0, End_track
5, 0, Start_track
5, 0, Title_t, "Copyright © 2004 by Bernd Krüger"
5, 0, End_track
6, 0, Start_track
6, 0, Title_t, "http://www.piano-midi.de"
6, 0, End_track
7, 0, Start_track
7, 0, Title_t, "Edition: 2008-09-19"
7, 0, End_track
8, 0, Start_track
8, 0, End_track
0, 0, End_of_file
