0, 0, Header, 1, 8, 480
1, 0, Start_track
1, 0, Title_t, "Die Jahreszeiten"
1, 0, Title_t, "September"
1, 0, Copyright_t, "Copyright © 2004 by Bernd Krueger"
1, 0, Text_t, "Peter Tschaikowsky"
1, 0, Text_t, "Allegro non troppo"
1, 0, Text_t, "Fertiggestellt am 13.11.2000\012"
1, 0, Text_t, "Normierung: 23.12.2002\012"
1, 0, Text_t, "Update am 4.9.2004\012"
1, 0, Text_t, "Update am 22.9.2008\012"
1, 0, Text_t, "Dauer: 2:44 Minuten\012"
1, 0, SMPTE_offset, 96, 0, 3, 0, 0
1, 0, Time_signature, 4, 2, 24, 8
1, 0, Key_signature, 1, "major"
1, 0, Tempo, 477289
1, 3840, Tempo, 467581
1, 4320, Tempo, 416667
1, 4640, Tempo, 447494
1, 4800, Tempo, 444017
1, 5280, Tempo, 418118
1, 5760, Tempo, 447494
1, 6240, Tempo, 456378
1, 6480, Tempo, 469484
1, 7680, Tempo, 458225
1, 8160, Tempo, 419580
1, 8480, Tempo, 445732
1, 8640, Tempo, 444017
1, 9120, Tempo, 418118
1, 9360, Tempo, 449236
1, 9600, Tempo, 447494
1, 10080, Tempo, 456378
1, 10320, Tempo, 469484
1, 11520, Tempo, 467581
1, 12000, Tempo, 419580
1, 12320, Tempo, 447494
1, 12480, Tempo, 442282
1, 12960, Tempo, 419580
1, 13440, Tempo, 447494
1, 13920, Tempo, 452796
1, 14160, Tempo, 460052
1, 14400, Tempo, 452796
1, 14640, Tempo, 460052
1, 14880, Tempo, 452796
1, 15360, Tempo, 458225
1, 15840, Tempo, 419580
1, 16160, Tempo, 445732
1, 16320, Tempo, 437222
1, 16800, Tempo, 421053
1, 17040, Tempo, 449236
1, 17280, Tempo, 447494
1, 17760, Tempo, 456378
1, 18000, Tempo, 469484
1, 18240, Tempo, 463786
1, 18480, Tempo, 471439
1, 18720, Tempo, 465658
1, 18960, Tempo, 469484
1, 19200, Tempo, 448967
1, 19440, Tempo, 460017
1, 19680, Tempo, 452591
1, 19920, Tempo, 460017
1, 20160, Tempo, 456274
1, 20400, Tempo, 461965
1, 20640, Tempo, 456274
1, 20880, Tempo, 460017
1, 21120, Tempo, 444017
1, 21360, Tempo, 452796
1, 21600, Tempo, 447494
1, 21840, Tempo, 454580
1, 22080, Tempo, 445732
1, 22320, Tempo, 452796
1, 22560, Tempo, 450992
1, 22800, Tempo, 460017
1, 23040, Tempo, 445732
1, 23520, Tempo, 438917
1, 23760, Tempo, 435572
1, 24000, Tempo, 442282
1, 24480, Tempo, 437222
1, 24720, Tempo, 445732
1, 24960, Tempo, 435572
1, 25200, Tempo, 440593
1, 25680, Tempo, 447494
1, 25920, Tempo, 433934
1, 26160, Tempo, 440593
1, 26640, Tempo, 447494
1, 26880, Tempo, 432277
1, 27360, Tempo, 440593
1, 27600, Tempo, 449236
1, 27840, Tempo, 430663
1, 28320, Tempo, 435572
1, 28560, Tempo, 445732
1, 28800, Tempo, 429031
1, 29280, Tempo, 437222
1, 29520, Tempo, 430663
1, 29760, Tempo, 432277
1, 30000, Tempo, 437222
1, 30480, Tempo, 452796
1, 30720, Tempo, 467581
1, 31200, Tempo, 422535
1, 31520, Tempo, 447494
1, 31680, Tempo, 437222
1, 32160, Tempo, 425532
1, 32640, Tempo, 447494
1, 33120, Tempo, 427046
1, 33360, Tempo, 450992
1, 33600, Tempo, 442282
1, 33840, Tempo, 454580
1, 33880, Tempo, 449236
1, 34080, Tempo, 442282
1, 34320, Tempo, 454580
1, 34560, Tempo, 458225
1, 35040, Tempo, 422535
1, 35360, Tempo, 445732
1, 35520, Tempo, 437222
1, 36000, Tempo, 422535
1, 36240, Tempo, 449236
1, 36480, Tempo, 447494
1, 36960, Tempo, 456378
1, 37200, Tempo, 469484
1, 38400, Tempo, 467581
1, 38880, Tempo, 425532
1, 39200, Tempo, 447494
1, 39360, Tempo, 437222
1, 39840, Tempo, 424028
1, 40320, Tempo, 447494
1, 40800, Tempo, 433934
1, 41040, Tempo, 449236
1, 41280, Tempo, 437222
1, 41520, Tempo, 449236
1, 41760, Tempo, 438917
1, 42000, Tempo, 449236
1, 42240, Tempo, 447494
1, 42720, Tempo, 433934
1, 42960, Tempo, 444017
1, 43200, Tempo, 438917
1, 43440, Tempo, 447494
1, 43680, Tempo, 437222
1, 43920, Tempo, 447494
1, 44160, Tempo, 447494
1, 44640, Tempo, 437222
1, 44880, Tempo, 439754
1, 45120, Tempo, 431220
1, 45360, Tempo, 443230
1, 45600, Tempo, 431220
1, 45840, Tempo, 443230
1, 46080, Tempo, 436300
1, 46560, Tempo, 426318
1, 46800, Tempo, 439754
1, 47040, Tempo, 431220
1, 47280, Tempo, 443230
1, 47520, Tempo, 431220
1, 47760, Tempo, 443230
1, 48000, Tempo, 436300
1, 48480, Tempo, 426318
1, 48720, Tempo, 439754
1, 48960, Tempo, 431220
1, 49200, Tempo, 443230
1, 49440, Tempo, 431220
1, 49680, Tempo, 443230
1, 49920, Tempo, 467581
1, 50400, Tempo, 427046
1, 50720, Tempo, 447494
1, 50880, Tempo, 437222
1, 51360, Tempo, 422535
1, 51840, Tempo, 447494
1, 52320, Tempo, 433934
1, 52560, Tempo, 449236
1, 52800, Tempo, 433934
1, 53040, Tempo, 442282
1, 53280, Tempo, 433934
1, 53520, Tempo, 449236
1, 54240, Tempo, 430108
1, 54560, Tempo, 447494
1, 54720, Tempo, 437222
1, 55200, Tempo, 425532
1, 55680, Tempo, 447494
1, 56160, Tempo, 433934
1, 56400, Tempo, 449236
1, 56640, Tempo, 433934
1, 56880, Tempo, 444017
1, 57120, Tempo, 435572
1, 57360, Tempo, 449236
1, 58080, Tempo, 433934
1, 58240, Tempo, 432277
1, 58400, Tempo, 430663
1, 58520, Tempo, 429031
1, 58560, Tempo, 445732
1, 59040, Tempo, 433934
1, 59200, Tempo, 432277
1, 59360, Tempo, 430663
1, 59480, Tempo, 429031
1, 59520, Tempo, 437222
1, 60000, Tempo, 432277
1, 60080, Tempo, 433934
1, 60120, Tempo, 435572
1, 60200, Tempo, 437222
1, 60240, Tempo, 438917
1, 60320, Tempo, 440593
1, 60360, Tempo, 442282
1, 60440, Tempo, 444017
1, 60480, Tempo, 445732
1, 60960, Tempo, 440593
1, 61080, Tempo, 442282
1, 61160, Tempo, 444017
1, 61240, Tempo, 445732
1, 61320, Tempo, 447494
1, 61400, Tempo, 449236
1, 61440, Tempo, 427046
1, 61920, Tempo, 445732
1, 62880, Tempo, 438917
1, 62960, Tempo, 440593
1, 63040, Tempo, 442282
1, 63080, Tempo, 444017
1, 63160, Tempo, 445732
1, 63200, Tempo, 447494
1, 63280, Tempo, 449236
1, 63320, Tempo, 450992
1, 63360, Tempo, 428571
1, 63840, Tempo, 445732
1, 64080, Tempo, 458225
1, 64320, Tempo, 445732
1, 64800, Tempo, 440593
1, 64920, Tempo, 442282
1, 65000, Tempo, 444017
1, 65080, Tempo, 445732
1, 65160, Tempo, 447494
1, 65240, Tempo, 449236
1, 65280, Tempo, 428571
1, 65760, Tempo, 445732
1, 66720, Tempo, 438917
1, 66800, Tempo, 440593
1, 66880, Tempo, 442282
1, 66920, Tempo, 444017
1, 67000, Tempo, 445732
1, 67040, Tempo, 447494
1, 67120, Tempo, 449236
1, 67160, Tempo, 450992
1, 67200, Tempo, 430108
1, 67680, Tempo, 445732
1, 67920, Tempo, 458225
1, 68160, Tempo, 445732
1, 68640, Tempo, 440593
1, 68760, Tempo, 442282
1, 68840, Tempo, 444017
1, 68920, Tempo, 445732
1, 69000, Tempo, 447494
1, 69080, Tempo, 449236
1, 69120, Tempo, 438917
1, 69600, Tempo, 445732
1, 70560, Tempo, 438917
1, 70640, Tempo, 440593
1, 70720, Tempo, 442282
1, 70760, Tempo, 444017
1, 70840, Tempo, 445732
1, 70880, Tempo, 447494
1, 70960, Tempo, 449236
1, 71000, Tempo, 450992
1, 71040, Tempo, 428571
1, 71520, Tempo, 445732
1, 71760, Tempo, 458225
1, 72000, Tempo, 445732
1, 72480, Tempo, 440593
1, 72600, Tempo, 442282
1, 72680, Tempo, 444017
1, 72760, Tempo, 445732
1, 72840, Tempo, 447494
1, 72920, Tempo, 449236
1, 72960, Tempo, 440593
1, 73440, Tempo, 445732
1, 74400, Tempo, 438917
1, 74480, Tempo, 440593
1, 74560, Tempo, 442282
1, 74600, Tempo, 444017
1, 74680, Tempo, 445732
1, 74720, Tempo, 447494
1, 74800, Tempo, 449236
1, 74840, Tempo, 450992
1, 74880, Tempo, 440593
1, 75360, Tempo, 445732
1, 75600, Tempo, 458225
1, 75840, Tempo, 445732
1, 76320, Tempo, 440593
1, 76440, Tempo, 442282
1, 76520, Tempo, 444017
1, 76600, Tempo, 445732
1, 76680, Tempo, 447494
1, 76760, Tempo, 449236
1, 76800, Tempo, 430108
1, 77280, Tempo, 445732
1, 78240, Tempo, 444017
1, 78720, Tempo, 444017
1, 79200, Tempo, 445732
1, 79680, Tempo, 447494
1, 80160, Tempo, 440593
1, 80280, Tempo, 442282
1, 80360, Tempo, 444017
1, 80440, Tempo, 445732
1, 80520, Tempo, 447494
1, 80600, Tempo, 449236
1, 80640, Tempo, 430108
1, 81120, Tempo, 445732
1, 82080, Tempo, 438917
1, 82560, Tempo, 442282
1, 83040, Tempo, 444017
1, 83520, Tempo, 449236
1, 84000, Tempo, 444017
1, 85920, Tempo, 440593
1, 86400, Tempo, 444017
1, 86880, Tempo, 447494
1, 87360, Tempo, 449236
1, 87840, Tempo, 461965
1, 88320, Tempo, 458225
1, 88800, Tempo, 456378
1, 89280, Tempo, 465658
1, 89760, Tempo, 465658
1, 90240, Tempo, 458225
1, 90720, Tempo, 456378
1, 91200, Tempo, 465658
1, 91680, Tempo, 444017
1, 93600, Tempo, 440593
1, 94080, Tempo, 444017
1, 94560, Tempo, 447494
1, 95040, Tempo, 449236
1, 95520, Tempo, 461965
1, 96000, Tempo, 458225
1, 96480, Tempo, 456378
1, 96960, Tempo, 465658
1, 97440, Tempo, 465658
1, 97920, Tempo, 458225
1, 98400, Tempo, 456378
1, 98880, Tempo, 465658
1, 99360, Tempo, 460052
1, 99840, Tempo, 456378
1, 100760, Tempo, 449236
1, 100800, Tempo, 456378
1, 101080, Tempo, 454580
1, 101320, Tempo, 452796
1, 101600, Tempo, 450992
1, 101840, Tempo, 449236
1, 102720, Tempo, 445732
1, 103040, Tempo, 444017
1, 103360, Tempo, 442282
1, 103680, Tempo, 440593
1, 104640, Tempo, 447494
1, 105120, Tempo, 437222
1, 105600, Tempo, 444017
1, 106560, Tempo, 447494
1, 107040, Tempo, 449236
1, 107120, Tempo, 450992
1, 107160, Tempo, 452796
1, 107200, Tempo, 454580
1, 107240, Tempo, 456378
1, 107320, Tempo, 458225
1, 107360, Tempo, 460052
1, 107400, Tempo, 461965
1, 107440, Tempo, 463786
1, 107480, Tempo, 465658
1, 107520, Tempo, 449236
1, 107680, Tempo, 449236
1, 107720, Tempo, 442282
1, 107840, Tempo, 456378
1, 108000, Tempo, 449236
1, 108480, Tempo, 449236
1, 108640, Tempo, 442282
1, 108800, Tempo, 454580
1, 108960, Tempo, 449236
1, 109440, Tempo, 442282
1, 109600, Tempo, 442282
1, 109760, Tempo, 454580
1, 109960, Tempo, 449236
1, 110400, Tempo, 444017
1, 110720, Tempo, 452796
1, 110880, Tempo, 449236
1, 111360, Tempo, 449236
1, 111400, Tempo, 445732
1, 111680, Tempo, 454580
1, 111840, Tempo, 449236
1, 112320, Tempo, 445732
1, 112640, Tempo, 456378
1, 112800, Tempo, 449236
1, 113280, Tempo, 447494
1, 113600, Tempo, 454580
1, 113760, Tempo, 449236
1, 114240, Tempo, 449236
1, 114560, Tempo, 454580
1, 114720, Tempo, 449236
1, 115200, Tempo, 454580
1, 115680, Tempo, 437956
1, 116000, Tempo, 461965
1, 116160, Tempo, 454580
1, 116640, Tempo, 447494
1, 117120, Tempo, 450992
1, 117280, Tempo, 445732
1, 117600, Tempo, 456378
1, 117840, Tempo, 469484
1, 119040, Tempo, 452796
1, 119520, Tempo, 435572
1, 119840, Tempo, 445732
1, 120000, Tempo, 444017
1, 120480, Tempo, 433934
1, 120720, Tempo, 449236
1, 120960, Tempo, 447494
1, 121440, Tempo, 456378
1, 121680, Tempo, 469484
1, 122880, Tempo, 467581
1, 123360, Tempo, 416667
1, 123680, Tempo, 447494
1, 123840, Tempo, 442282
1, 124320, Tempo, 419580
1, 124800, Tempo, 447494
1, 125280, Tempo, 452796
1, 125520, Tempo, 460052
1, 125760, Tempo, 452796
1, 126000, Tempo, 460052
1, 126240, Tempo, 452796
1, 126720, Tempo, 458225
1, 127200, Tempo, 418118
1, 127520, Tempo, 445732
1, 127680, Tempo, 437222
1, 128160, Tempo, 421053
1, 128400, Tempo, 449236
1, 128640, Tempo, 447494
1, 129120, Tempo, 456378
1, 129360, Tempo, 469484
1, 129600, Tempo, 463786
1, 129840, Tempo, 471439
1, 130080, Tempo, 465658
1, 130320, Tempo, 469484
1, 130560, Tempo, 448967
1, 130800, Tempo, 460017
1, 131040, Tempo, 452591
1, 131280, Tempo, 460017
1, 131520, Tempo, 456274
1, 131760, Tempo, 461965
1, 132000, Tempo, 456274
1, 132240, Tempo, 460017
1, 132480, Tempo, 444017
1, 132720, Tempo, 452796
1, 132960, Tempo, 447494
1, 133200, Tempo, 454580
1, 133440, Tempo, 445732
1, 133680, Tempo, 452796
1, 133920, Tempo, 450992
1, 134160, Tempo, 460017
1, 134400, Tempo, 445732
1, 134880, Tempo, 438917
1, 135120, Tempo, 435572
1, 135360, Tempo, 442282
1, 135840, Tempo, 437222
1, 136080, Tempo, 445732
1, 136320, Tempo, 435572
1, 136560, Tempo, 440593
1, 137040, Tempo, 447494
1, 137280, Tempo, 433934
1, 137520, Tempo, 440593
1, 138000, Tempo, 447494
1, 138240, Tempo, 432277
1, 138720, Tempo, 440593
1, 138960, Tempo, 449236
1, 139200, Tempo, 430663
1, 139680, Tempo, 435572
1, 139920, Tempo, 445732
1, 140160, Tempo, 429031
1, 140640, Tempo, 437222
1, 140880, Tempo, 430663
1, 141120, Tempo, 432277
1, 141360, Tempo, 437222
1, 141840, Tempo, 452796
1, 142080, Tempo, 467581
1, 142560, Tempo, 421053
1, 142880, Tempo, 447494
1, 143040, Tempo, 437222
1, 143520, Tempo, 419580
1, 144000, Tempo, 447494
1, 144480, Tempo, 427046
1, 144720, Tempo, 450992
1, 144960, Tempo, 430108
1, 145200, Tempo, 454580
1, 145240, Tempo, 449236
1, 145440, Tempo, 442282
1, 145680, Tempo, 454580
1, 145920, Tempo, 458225
1, 146400, Tempo, 419580
1, 146720, Tempo, 445732
1, 146880, Tempo, 437222
1, 147360, Tempo, 421053
1, 147600, Tempo, 449236
1, 147840, Tempo, 447494
1, 148320, Tempo, 456378
1, 148560, Tempo, 469484
1, 149760, Tempo, 467581
1, 150240, Tempo, 425532
1, 150560, Tempo, 447494
1, 150720, Tempo, 437222
1, 151200, Tempo, 425532
1, 151680, Tempo, 447494
1, 152160, Tempo, 427046
1, 152400, Tempo, 449236
1, 152640, Tempo, 430108
1, 152880, Tempo, 449236
1, 153120, Tempo, 438917
1, 153360, Tempo, 449236
1, 153600, Tempo, 447494
1, 154080, Tempo, 433934
1, 154320, Tempo, 444017
1, 154560, Tempo, 438917
1, 154800, Tempo, 447494
1, 155040, Tempo, 437222
1, 155280, Tempo, 447494
1, 155520, Tempo, 447494
1, 156000, Tempo, 437222
1, 156240, Tempo, 439754
1, 156480, Tempo, 431220
1, 156720, Tempo, 443230
1, 156960, Tempo, 431220
1, 157200, Tempo, 443230
1, 157440, Tempo, 436300
1, 157920, Tempo, 426318
1, 158160, Tempo, 439754
1, 158400, Tempo, 431220
1, 158640, Tempo, 443230
1, 158880, Tempo, 431220
1, 159120, Tempo, 443230
1, 159360, Tempo, 436300
1, 159840, Tempo, 426318
1, 160080, Tempo, 439754
1, 160320, Tempo, 431220
1, 160560, Tempo, 443230
1, 160800, Tempo, 431220
1, 161040, Tempo, 443230
1, 161280, Tempo, 467581
1, 161760, Tempo, 427046
1, 162080, Tempo, 447494
1, 162240, Tempo, 437222
1, 162720, Tempo, 425532
1, 163200, Tempo, 447494
1, 163680, Tempo, 433934
1, 163920, Tempo, 449236
1, 164160, Tempo, 433934
1, 164400, Tempo, 442282
1, 164640, Tempo, 433934
1, 164880, Tempo, 449236
1, 165600, Tempo, 430108
1, 165920, Tempo, 447494
1, 166080, Tempo, 437222
1, 166560, Tempo, 424028
1, 167040, Tempo, 447494
1, 167520, Tempo, 433934
1, 167760, Tempo, 449236
1, 168000, Tempo, 433934
1, 168240, Tempo, 444017
1, 168480, Tempo, 435572
1, 168720, Tempo, 449236
1, 169440, Tempo, 433934
1, 169600, Tempo, 432277
1, 169760, Tempo, 430663
1, 169880, Tempo, 429031
1, 169920, Tempo, 445732
1, 170400, Tempo, 433934
1, 170560, Tempo, 432277
1, 170720, Tempo, 430663
1, 170840, Tempo, 429031
1, 170880, Tempo, 480000
1, 171360, Tempo, 563380
1, 171840, Tempo, 745342
1, 172802, Tempo, 666667
1, 172802, End_track
2, 0, Start_track
2, 0, Title_t, "Piano right"
2, 0, Program_c, 0, 0
2, 0, Control_c, 0, 7, 100
2, 0, Control_c, 0, 10, 64
2, 0, Note_on_c, 0, 62, 67
2, 0, Note_on_c, 0, 74, 75
2, 0, Control_c, 0, 91, 127
2, 0, Text_t, "bdca426d104a26ac9dcb070447587523"
2, 840, Note_on_c, 0, 74, 0
2, 840, Note_on_c, 0, 62, 0
2, 840, Note_on_c, 0, 74, 73
2, 840, Note_on_c, 0, 62, 65
2, 960, Note_on_c, 0, 62, 0
2, 960, Note_on_c, 0, 74, 0
2, 960, Note_on_c, 0, 62, 67
2, 960, Note_on_c, 0, 74, 75
2, 1800, Note_on_c, 0, 74, 0
2, 1800, Note_on_c, 0, 62, 0
2, 1800, Note_on_c, 0, 74, 71
2, 1800, Note_on_c, 0, 62, 63
2, 1920, Note_on_c, 0, 62, 0
2, 1920, Note_on_c, 0, 74, 0
2, 1920, Note_on_c, 0, 62, 70
2, 1920, Note_on_c, 0, 74, 78
2, 2760, Note_on_c, 0, 74, 0
2, 2760, Note_on_c, 0, 62, 0
2, 2760, Note_on_c, 0, 62, 66
2, 2760, Note_on_c, 0, 74, 74
2, 2880, Note_on_c, 0, 74, 0
2, 2880, Note_on_c, 0, 62, 0
2, 2880, Note_on_c, 0, 74, 78
2, 2880, Note_on_c, 0, 62, 70
2, 3720, Note_on_c, 0, 62, 0
2, 3720, Note_on_c, 0, 74, 0
2, 3720, Note_on_c, 0, 62, 67
2, 3720, Note_on_c, 0, 74, 75
2, 3840, Note_on_c, 0, 74, 0
2, 3840, Note_on_c, 0, 62, 0
2, 3840, Note_on_c, 0, 62, 70
2, 3840, Note_on_c, 0, 74, 78
2, 4320, Note_on_c, 0, 74, 0
2, 4320, Note_on_c, 0, 62, 0
2, 4320, Note_on_c, 0, 74, 78
2, 4320, Note_on_c, 0, 62, 70
2, 5280, Note_on_c, 0, 62, 0
2, 5280, Note_on_c, 0, 74, 0
2, 5280, Note_on_c, 0, 62, 70
2, 5280, Note_on_c, 0, 74, 78
2, 6240, Note_on_c, 0, 74, 0
2, 6240, Note_on_c, 0, 62, 0
2, 6240, Note_on_c, 0, 62, 70
2, 6240, Note_on_c, 0, 74, 78
2, 6960, Note_on_c, 0, 74, 0
2, 6960, Note_on_c, 0, 62, 0
2, 6960, Note_on_c, 0, 74, 75
2, 6960, Note_on_c, 0, 62, 67
2, 7440, Note_on_c, 0, 62, 0
2, 7440, Note_on_c, 0, 74, 0
2, 7440, Note_on_c, 0, 74, 76
2, 7440, Note_on_c, 0, 62, 68
2, 7560, Note_on_c, 0, 62, 0
2, 7560, Note_on_c, 0, 74, 0
2, 8160, Note_on_c, 0, 79, 83
2, 8160, Note_on_c, 0, 67, 83
2, 9120, Note_on_c, 0, 67, 0
2, 9120, Note_on_c, 0, 79, 0
2, 9120, Note_on_c, 0, 67, 70
2, 9120, Note_on_c, 0, 79, 78
2, 9840, Note_on_c, 0, 79, 0
2, 9840, Note_on_c, 0, 67, 0
2, 9840, Note_on_c, 0, 67, 70
2, 9840, Note_on_c, 0, 79, 78
2, 10320, Note_on_c, 0, 79, 0
2, 10320, Note_on_c, 0, 67, 0
2, 10320, Note_on_c, 0, 79, 76
2, 10320, Note_on_c, 0, 67, 68
2, 10440, Note_on_c, 0, 67, 0
2, 10440, Note_on_c, 0, 79, 0
2, 10560, Note_on_c, 0, 86, 97
2, 10560, Note_on_c, 0, 74, 87
2, 10560, Note_on_c, 0, 78, 87
2, 10680, Note_on_c, 0, 78, 0
2, 10680, Note_on_c, 0, 74, 0
2, 10680, Note_on_c, 0, 86, 0
2, 10800, Note_on_c, 0, 86, 88
2, 10800, Note_on_c, 0, 74, 79
2, 10800, Note_on_c, 0, 79, 79
2, 10920, Note_on_c, 0, 79, 0
2, 10920, Note_on_c, 0, 74, 0
2, 10920, Note_on_c, 0, 86, 0
2, 11040, Note_on_c, 0, 86, 94
2, 11040, Note_on_c, 0, 74, 84
2, 11040, Note_on_c, 0, 78, 84
2, 11280, Note_on_c, 0, 78, 0
2, 11280, Note_on_c, 0, 74, 0
2, 11280, Note_on_c, 0, 86, 0
2, 11520, Note_on_c, 0, 59, 72
2, 11520, Note_on_c, 0, 67, 80
2, 12160, Note_on_c, 0, 67, 0
2, 12160, Note_on_c, 0, 59, 0
2, 12160, Note_on_c, 0, 59, 67
2, 12160, Note_on_c, 0, 67, 75
2, 12280, Note_on_c, 0, 67, 0
2, 12280, Note_on_c, 0, 59, 0
2, 12320, Note_on_c, 0, 67, 75
2, 12320, Note_on_c, 0, 59, 67
2, 12440, Note_on_c, 0, 59, 0
2, 12440, Note_on_c, 0, 67, 0
2, 12480, Note_on_c, 0, 67, 81
2, 12480, Note_on_c, 0, 59, 72
2, 13120, Note_on_c, 0, 59, 0
2, 13120, Note_on_c, 0, 67, 0
2, 13120, Note_on_c, 0, 67, 75
2, 13120, Note_on_c, 0, 59, 67
2, 13240, Note_on_c, 0, 59, 0
2, 13240, Note_on_c, 0, 67, 0
2, 13280, Note_on_c, 0, 59, 66
2, 13280, Note_on_c, 0, 67, 74
2, 13400, Note_on_c, 0, 67, 0
2, 13400, Note_on_c, 0, 59, 0
2, 13440, Note_on_c, 0, 59, 72
2, 13440, Note_on_c, 0, 67, 80
2, 14160, Note_on_c, 0, 67, 0
2, 14160, Note_on_c, 0, 59, 0
2, 14160, Note_on_c, 0, 67, 66
2, 14160, Note_on_c, 0, 71, 74
2, 14280, Note_on_c, 0, 71, 0
2, 14280, Note_on_c, 0, 67, 0
2, 14400, Note_on_c, 0, 69, 72
2, 14400, Note_on_c, 0, 72, 80
2, 14520, Note_on_c, 0, 72, 0
2, 14520, Note_on_c, 0, 69, 0
2, 14640, Note_on_c, 0, 67, 66
2, 14640, Note_on_c, 0, 71, 74
2, 14760, Note_on_c, 0, 71, 0
2, 14760, Note_on_c, 0, 67, 0
2, 14880, Note_on_c, 0, 69, 72
2, 14880, Note_on_c, 0, 72, 80
2, 15000, Note_on_c, 0, 72, 0
2, 15000, Note_on_c, 0, 69, 0
2, 15120, Note_on_c, 0, 62, 71
2, 15120, Note_on_c, 0, 69, 79
2, 15240, Note_on_c, 0, 69, 0
2, 15240, Note_on_c, 0, 62, 0
2, 15360, Note_on_c, 0, 74, 80
2, 15360, Note_on_c, 0, 71, 72
2, 16000, Note_on_c, 0, 71, 0
2, 16000, Note_on_c, 0, 74, 0
2, 16000, Note_on_c, 0, 74, 75
2, 16000, Note_on_c, 0, 71, 67
2, 16120, Note_on_c, 0, 71, 0
2, 16120, Note_on_c, 0, 74, 0
2, 16160, Note_on_c, 0, 71, 67
2, 16160, Note_on_c, 0, 74, 75
2, 16280, Note_on_c, 0, 74, 0
2, 16280, Note_on_c, 0, 71, 0
2, 16320, Note_on_c, 0, 71, 72
2, 16320, Note_on_c, 0, 74, 81
2, 16960, Note_on_c, 0, 74, 0
2, 16960, Note_on_c, 0, 71, 0
2, 16960, Note_on_c, 0, 74, 75
2, 16960, Note_on_c, 0, 71, 67
2, 17080, Note_on_c, 0, 71, 0
2, 17080, Note_on_c, 0, 74, 0
2, 17120, Note_on_c, 0, 71, 66
2, 17120, Note_on_c, 0, 74, 74
2, 17240, Note_on_c, 0, 74, 0
2, 17240, Note_on_c, 0, 71, 0
2, 17280, Note_on_c, 0, 72, 72
2, 17280, Note_on_c, 0, 76, 80
2, 17400, Note_on_c, 0, 76, 0
2, 17400, Note_on_c, 0, 72, 0
2, 17520, Note_on_c, 0, 71, 69
2, 17520, Note_on_c, 0, 74, 77
2, 17640, Note_on_c, 0, 74, 0
2, 17640, Note_on_c, 0, 71, 0
2, 17760, Note_on_c, 0, 69, 69
2, 17760, Note_on_c, 0, 72, 77
2, 17880, Note_on_c, 0, 72, 0
2, 17880, Note_on_c, 0, 69, 0
2, 18000, Note_on_c, 0, 68, 75
2, 18000, Note_on_c, 0, 64, 67
2, 18000, Note_on_c, 0, 71, 75
2, 18120, Note_on_c, 0, 71, 0
2, 18120, Note_on_c, 0, 64, 0
2, 18120, Note_on_c, 0, 68, 0
2, 18240, Note_on_c, 0, 69, 82
2, 18240, Note_on_c, 0, 64, 73
2, 18360, Note_on_c, 0, 64, 0
2, 18360, Note_on_c, 0, 69, 0
2, 18480, Note_on_c, 0, 64, 69
2, 18480, Note_on_c, 0, 68, 69
2, 18480, Note_on_c, 0, 71, 77
2, 18600, Note_on_c, 0, 71, 0
2, 18600, Note_on_c, 0, 68, 0
2, 18600, Note_on_c, 0, 64, 0
2, 18720, Note_on_c, 0, 64, 67
2, 18720, Note_on_c, 0, 69, 73
2, 18720, Note_on_c, 0, 72, 82
2, 18840, Note_on_c, 0, 72, 0
2, 18840, Note_on_c, 0, 69, 0
2, 18840, Note_on_c, 0, 64, 0
2, 19200, Note_on_c, 0, 74, 64
2, 19200, Note_on_c, 0, 78, 72
2, 19320, Note_on_c, 0, 78, 0
2, 19320, Note_on_c, 0, 74, 0
2, 19440, Note_on_c, 0, 76, 66
2, 19440, Note_on_c, 0, 73, 59
2, 19560, Note_on_c, 0, 73, 0
2, 19560, Note_on_c, 0, 76, 0
2, 19680, Note_on_c, 0, 74, 71
2, 19680, Note_on_c, 0, 71, 63
2, 19800, Note_on_c, 0, 71, 0
2, 19800, Note_on_c, 0, 74, 0
2, 19920, Note_on_c, 0, 70, 67
2, 19920, Note_on_c, 0, 73, 67
2, 19920, Note_on_c, 0, 66, 60
2, 20040, Note_on_c, 0, 66, 0
2, 20040, Note_on_c, 0, 73, 0
2, 20040, Note_on_c, 0, 70, 0
2, 20160, Note_on_c, 0, 66, 62
2, 20160, Note_on_c, 0, 71, 69
2, 20280, Note_on_c, 0, 71, 0
2, 20280, Note_on_c, 0, 66, 0
2, 20400, Note_on_c, 0, 66, 57
2, 20400, Note_on_c, 0, 70, 64
2, 20400, Note_on_c, 0, 73, 64
2, 20520, Note_on_c, 0, 73, 0
2, 20520, Note_on_c, 0, 70, 0
2, 20520, Note_on_c, 0, 66, 0
2, 20640, Note_on_c, 0, 66, 60
2, 20640, Note_on_c, 0, 71, 67
2, 20640, Note_on_c, 0, 74, 67
2, 20760, Note_on_c, 0, 74, 0
2, 20760, Note_on_c, 0, 71, 0
2, 20760, Note_on_c, 0, 66, 0
2, 21120, Note_on_c, 0, 76, 64
2, 21120, Note_on_c, 0, 80, 72
2, 21240, Note_on_c, 0, 80, 0
2, 21240, Note_on_c, 0, 76, 0
2, 21360, Note_on_c, 0, 78, 66
2, 21360, Note_on_c, 0, 75, 59
2, 21480, Note_on_c, 0, 75, 0
2, 21480, Note_on_c, 0, 78, 0
2, 21600, Note_on_c, 0, 73, 63
2, 21600, Note_on_c, 0, 76, 71
2, 21720, Note_on_c, 0, 76, 0
2, 21720, Note_on_c, 0, 73, 0
2, 21840, Note_on_c, 0, 68, 60
2, 21840, Note_on_c, 0, 72, 67
2, 21840, Note_on_c, 0, 75, 67
2, 21960, Note_on_c, 0, 75, 0
2, 21960, Note_on_c, 0, 72, 0
2, 21960, Note_on_c, 0, 68, 0
2, 22080, Note_on_c, 0, 68, 62
2, 22080, Note_on_c, 0, 73, 69
2, 22200, Note_on_c, 0, 73, 0
2, 22200, Note_on_c, 0, 68, 0
2, 22320, Note_on_c, 0, 72, 64
2, 22320, Note_on_c, 0, 68, 57
2, 22320, Note_on_c, 0, 75, 64
2, 22440, Note_on_c, 0, 75, 0
2, 22440, Note_on_c, 0, 68, 0
2, 22440, Note_on_c, 0, 72, 0
2, 22560, Note_on_c, 0, 73, 67
2, 22560, Note_on_c, 0, 76, 67
2, 22560, Note_on_c, 0, 68, 60
2, 22680, Note_on_c, 0, 68, 0
2, 22680, Note_on_c, 0, 76, 0
2, 22680, Note_on_c, 0, 73, 0
2, 23040, Note_on_c, 0, 78, 54
2, 23040, Note_on_c, 0, 81, 61
2, 23280, Note_on_c, 0, 81, 0
2, 23280, Note_on_c, 0, 78, 0
2, 23280, Note_on_c, 0, 76, 49
2, 23280, Note_on_c, 0, 79, 55
2, 23520, Note_on_c, 0, 79, 0
2, 23520, Note_on_c, 0, 76, 0
2, 23520, Note_on_c, 0, 78, 60
2, 23520, Note_on_c, 0, 74, 54
2, 23760, Note_on_c, 0, 74, 0
2, 23760, Note_on_c, 0, 78, 0
2, 23760, Note_on_c, 0, 69, 50
2, 23760, Note_on_c, 0, 76, 56
2, 24000, Note_on_c, 0, 76, 0
2, 24000, Note_on_c, 0, 69, 0
2, 24000, Note_on_c, 0, 78, 54
2, 24000, Note_on_c, 0, 81, 61
2, 24240, Note_on_c, 0, 81, 0
2, 24240, Note_on_c, 0, 78, 0
2, 24240, Note_on_c, 0, 79, 55
2, 24240, Note_on_c, 0, 76, 49
2, 24480, Note_on_c, 0, 76, 0
2, 24480, Note_on_c, 0, 79, 0
2, 24480, Note_on_c, 0, 74, 54
2, 24480, Note_on_c, 0, 78, 60
2, 24720, Note_on_c, 0, 78, 0
2, 24720, Note_on_c, 0, 74, 0
2, 24720, Note_on_c, 0, 69, 52
2, 24720, Note_on_c, 0, 76, 58
2, 24960, Note_on_c, 0, 76, 0
2, 24960, Note_on_c, 0, 69, 0
2, 24960, Note_on_c, 0, 81, 62
2, 24960, Note_on_c, 0, 78, 55
2, 25200, Note_on_c, 0, 78, 0
2, 25200, Note_on_c, 0, 81, 0
2, 25200, Note_on_c, 0, 76, 51
2, 25200, Note_on_c, 0, 79, 57
2, 25440, Note_on_c, 0, 79, 0
2, 25440, Note_on_c, 0, 76, 0
2, 25440, Note_on_c, 0, 74, 56
2, 25440, Note_on_c, 0, 78, 63
2, 25680, Note_on_c, 0, 78, 0
2, 25680, Note_on_c, 0, 74, 0
2, 25680, Note_on_c, 0, 76, 59
2, 25680, Note_on_c, 0, 69, 53
2, 25920, Note_on_c, 0, 69, 0
2, 25920, Note_on_c, 0, 76, 0
2, 25920, Note_on_c, 0, 78, 56
2, 25920, Note_on_c, 0, 81, 63
2, 26160, Note_on_c, 0, 81, 0
2, 26160, Note_on_c, 0, 78, 0
2, 26160, Note_on_c, 0, 79, 59
2, 26160, Note_on_c, 0, 76, 53
2, 26400, Note_on_c, 0, 76, 0
2, 26400, Note_on_c, 0, 79, 0
2, 26400, Note_on_c, 0, 74, 56
2, 26400, Note_on_c, 0, 78, 63
2, 26640, Note_on_c, 0, 78, 0
2, 26640, Note_on_c, 0, 74, 0
2, 26640, Note_on_c, 0, 69, 54
2, 26640, Note_on_c, 0, 76, 61
2, 26880, Note_on_c, 0, 76, 0
2, 26880, Note_on_c, 0, 69, 0
2, 26880, Note_on_c, 0, 86, 69
2, 26880, Note_on_c, 0, 83, 62
2, 27120, Note_on_c, 0, 83, 0
2, 27120, Note_on_c, 0, 86, 0
2, 27120, Note_on_c, 0, 81, 56
2, 27120, Note_on_c, 0, 84, 63
2, 27360, Note_on_c, 0, 84, 0
2, 27360, Note_on_c, 0, 81, 0
2, 27360, Note_on_c, 0, 79, 61
2, 27360, Note_on_c, 0, 83, 68
2, 27600, Note_on_c, 0, 83, 0
2, 27600, Note_on_c, 0, 79, 0
2, 27600, Note_on_c, 0, 81, 63
2, 27600, Note_on_c, 0, 74, 56
2, 27840, Note_on_c, 0, 74, 0
2, 27840, Note_on_c, 0, 81, 0
2, 27840, Note_on_c, 0, 83, 63
2, 27840, Note_on_c, 0, 86, 71
2, 28080, Note_on_c, 0, 86, 0
2, 28080, Note_on_c, 0, 83, 0
2, 28080, Note_on_c, 0, 81, 57
2, 28080, Note_on_c, 0, 84, 64
2, 28320, Note_on_c, 0, 84, 0
2, 28320, Note_on_c, 0, 81, 0
2, 28320, Note_on_c, 0, 83, 69
2, 28320, Note_on_c, 0, 79, 62
2, 28560, Note_on_c, 0, 79, 0
2, 28560, Note_on_c, 0, 83, 0
2, 28560, Note_on_c, 0, 81, 66
2, 28560, Note_on_c, 0, 74, 59
2, 28800, Note_on_c, 0, 74, 0
2, 28800, Note_on_c, 0, 81, 0
2, 28800, Note_on_c, 0, 86, 72
2, 28800, Note_on_c, 0, 83, 64
2, 29040, Note_on_c, 0, 83, 0
2, 29040, Note_on_c, 0, 86, 0
2, 29040, Note_on_c, 0, 81, 58
2, 29040, Note_on_c, 0, 84, 65
2, 29280, Note_on_c, 0, 84, 0
2, 29280, Note_on_c, 0, 81, 0
2, 29280, Note_on_c, 0, 79, 63
2, 29280, Note_on_c, 0, 83, 71
2, 29520, Note_on_c, 0, 83, 0
2, 29520, Note_on_c, 0, 79, 0
2, 29520, Note_on_c, 0, 81, 68
2, 29520, Note_on_c, 0, 74, 61
2, 29760, Note_on_c, 0, 74, 0
2, 29760, Note_on_c, 0, 81, 0
2, 29760, Note_on_c, 0, 83, 65
2, 29760, Note_on_c, 0, 86, 73
2, 30000, Note_on_c, 0, 86, 0
2, 30000, Note_on_c, 0, 83, 0
2, 30000, Note_on_c, 0, 81, 61
2, 30000, Note_on_c, 0, 84, 68
2, 30240, Note_on_c, 0, 84, 0
2, 30240, Note_on_c, 0, 81, 0
2, 30240, Note_on_c, 0, 83, 72
2, 30240, Note_on_c, 0, 79, 64
2, 30480, Note_on_c, 0, 79, 0
2, 30480, Note_on_c, 0, 83, 0
2, 30480, Note_on_c, 0, 74, 70
2, 30480, Note_on_c, 0, 81, 70
2, 30720, Note_on_c, 0, 81, 0
2, 30720, Note_on_c, 0, 74, 0
2, 30720, Note_on_c, 0, 67, 82
2, 30720, Note_on_c, 0, 71, 82
2, 30720, Note_on_c, 0, 79, 92
2, 31360, Note_on_c, 0, 79, 0
2, 31360, Note_on_c, 0, 71, 0
2, 31360, Note_on_c, 0, 67, 0
2, 31360, Note_on_c, 0, 67, 77
2, 31360, Note_on_c, 0, 71, 77
2, 31360, Note_on_c, 0, 79, 86
2, 31480, Note_on_c, 0, 79, 0
2, 31480, Note_on_c, 0, 71, 0
2, 31480, Note_on_c, 0, 67, 0
2, 31520, Note_on_c, 0, 67, 77
2, 31520, Note_on_c, 0, 79, 86
2, 31520, Note_on_c, 0, 71, 77
2, 31640, Note_on_c, 0, 71, 0
2, 31640, Note_on_c, 0, 79, 0
2, 31640, Note_on_c, 0, 67, 0
2, 31680, Note_on_c, 0, 79, 93
2, 31680, Note_on_c, 0, 71, 83
2, 31680, Note_on_c, 0, 67, 83
2, 32320, Note_on_c, 0, 67, 0
2, 32320, Note_on_c, 0, 71, 0
2, 32320, Note_on_c, 0, 79, 0
2, 32320, Note_on_c, 0, 67, 77
2, 32320, Note_on_c, 0, 71, 77
2, 32320, Note_on_c, 0, 79, 86
2, 32440, Note_on_c, 0, 79, 0
2, 32440, Note_on_c, 0, 71, 0
2, 32440, Note_on_c, 0, 67, 0
2, 32480, Note_on_c, 0, 67, 76
2, 32480, Note_on_c, 0, 71, 76
2, 32480, Note_on_c, 0, 79, 85
2, 32600, Note_on_c, 0, 79, 0
2, 32600, Note_on_c, 0, 71, 0
2, 32600, Note_on_c, 0, 67, 0
2, 32640, Note_on_c, 0, 67, 82
2, 32640, Note_on_c, 0, 71, 82
2, 32640, Note_on_c, 0, 79, 92
2, 33360, Note_on_c, 0, 79, 0
2, 33360, Note_on_c, 0, 71, 0
2, 33360, Note_on_c, 0, 67, 0
2, 33360, Note_on_c, 0, 71, 73
2, 33360, Note_on_c, 0, 83, 82
2, 33360, Note_on_c, 0, 79, 82
2, 33480, Note_on_c, 0, 79, 0
2, 33480, Note_on_c, 0, 83, 0
2, 33480, Note_on_c, 0, 71, 0
2, 33600, Note_on_c, 0, 72, 78
2, 33600, Note_on_c, 0, 81, 87
2, 33600, Note_on_c, 0, 84, 87
2, 33720, Note_on_c, 0, 84, 0
2, 33720, Note_on_c, 0, 81, 0
2, 33720, Note_on_c, 0, 72, 0
2, 33840, Note_on_c, 0, 71, 76
2, 33840, Note_on_c, 0, 79, 85
2, 33840, Note_on_c, 0, 83, 85
2, 33960, Note_on_c, 0, 83, 0
2, 33960, Note_on_c, 0, 79, 0
2, 33960, Note_on_c, 0, 71, 0
2, 34080, Note_on_c, 0, 72, 78
2, 34080, Note_on_c, 0, 84, 87
2, 34080, Note_on_c, 0, 81, 87
2, 34200, Note_on_c, 0, 81, 0
2, 34200, Note_on_c, 0, 84, 0
2, 34200, Note_on_c, 0, 72, 0
2, 34320, Note_on_c, 0, 69, 72
2, 34320, Note_on_c, 0, 81, 81
2, 34320, Note_on_c, 0, 74, 81
2, 34440, Note_on_c, 0, 74, 0
2, 34440, Note_on_c, 0, 81, 0
2, 34440, Note_on_c, 0, 69, 0
2, 34560, Note_on_c, 0, 86, 101
2, 34560, Note_on_c, 0, 74, 90
2, 34560, Note_on_c, 0, 83, 101
2, 35200, Note_on_c, 0, 83, 0
2, 35200, Note_on_c, 0, 74, 0
2, 35200, Note_on_c, 0, 86, 0
2, 35200, Note_on_c, 0, 83, 94
2, 35200, Note_on_c, 0, 74, 84
2, 35200, Note_on_c, 0, 86, 94
2, 35320, Note_on_c, 0, 86, 0
2, 35320, Note_on_c, 0, 74, 0
2, 35320, Note_on_c, 0, 83, 0
2, 35360, Note_on_c, 0, 83, 94
2, 35360, Note_on_c, 0, 74, 84
2, 35360, Note_on_c, 0, 86, 94
2, 35480, Note_on_c, 0, 86, 0
2, 35480, Note_on_c, 0, 74, 0
2, 35480, Note_on_c, 0, 83, 0
2, 35520, Note_on_c, 0, 83, 102
2, 35520, Note_on_c, 0, 74, 91
2, 35520, Note_on_c, 0, 86, 102
2, 36160, Note_on_c, 0, 86, 0
2, 36160, Note_on_c, 0, 74, 0
2, 36160, Note_on_c, 0, 83, 0
2, 36160, Note_on_c, 0, 83, 94
2, 36160, Note_on_c, 0, 74, 84
2, 36160, Note_on_c, 0, 86, 94
2, 36280, Note_on_c, 0, 86, 0
2, 36280, Note_on_c, 0, 74, 0
2, 36280, Note_on_c, 0, 83, 0
2, 36320, Note_on_c, 0, 83, 93
2, 36320, Note_on_c, 0, 74, 83
2, 36320, Note_on_c, 0, 86, 93
2, 36440, Note_on_c, 0, 86, 0
2, 36440, Note_on_c, 0, 74, 0
2, 36440, Note_on_c, 0, 83, 0
2, 36480, Note_on_c, 0, 88, 93
2, 36480, Note_on_c, 0, 76, 83
2, 36480, Note_on_c, 0, 84, 93
2, 36600, Note_on_c, 0, 84, 0
2, 36600, Note_on_c, 0, 76, 0
2, 36600, Note_on_c, 0, 88, 0
2, 36720, Note_on_c, 0, 83, 86
2, 36720, Note_on_c, 0, 74, 77
2, 36720, Note_on_c, 0, 86, 86
2, 36840, Note_on_c, 0, 86, 0
2, 36840, Note_on_c, 0, 74, 0
2, 36840, Note_on_c, 0, 83, 0
2, 36960, Note_on_c, 0, 81, 91
2, 36960, Note_on_c, 0, 84, 91
2, 36960, Note_on_c, 0, 72, 81
2, 37080, Note_on_c, 0, 72, 0
2, 37080, Note_on_c, 0, 84, 0
2, 37080, Note_on_c, 0, 81, 0
2, 37200, Note_on_c, 0, 79, 85
2, 37200, Note_on_c, 0, 71, 76
2, 37200, Note_on_c, 0, 74, 85
2, 37200, Note_on_c, 0, 83, 85
2, 37320, Note_on_c, 0, 83, 0
2, 37320, Note_on_c, 0, 79, 0
2, 37320, Note_on_c, 0, 71, 0
2, 37320, Note_on_c, 0, 74, 0
2, 37440, Note_on_c, 0, 74, 84
2, 37440, Note_on_c, 0, 81, 94
2, 37440, Note_on_c, 0, 78, 94
2, 37440, Note_on_c, 0, 69, 84
2, 37560, Note_on_c, 0, 69, 0
2, 37560, Note_on_c, 0, 74, 0
2, 37560, Note_on_c, 0, 81, 0
2, 37560, Note_on_c, 0, 78, 0
2, 37680, Note_on_c, 0, 71, 80
2, 37680, Note_on_c, 0, 83, 89
2, 37680, Note_on_c, 0, 74, 80
2, 37680, Note_on_c, 0, 79, 89
2, 37800, Note_on_c, 0, 79, 0
2, 37800, Note_on_c, 0, 71, 0
2, 37800, Note_on_c, 0, 83, 0
2, 37800, Note_on_c, 0, 74, 0
2, 37920, Note_on_c, 0, 78, 94
2, 37920, Note_on_c, 0, 69, 77
2, 37920, Note_on_c, 0, 74, 77
2, 37920, Note_on_c, 0, 81, 94
2, 38040, Note_on_c, 0, 81, 0
2, 38040, Note_on_c, 0, 78, 0
2, 38040, Note_on_c, 0, 69, 0
2, 38040, Note_on_c, 0, 74, 0
2, 38400, Note_on_c, 0, 71, 82
2, 38400, Note_on_c, 0, 67, 82
2, 38400, Note_on_c, 0, 79, 92
2, 39040, Note_on_c, 0, 79, 0
2, 39040, Note_on_c, 0, 67, 0
2, 39040, Note_on_c, 0, 71, 0
2, 39040, Note_on_c, 0, 71, 77
2, 39040, Note_on_c, 0, 67, 77
2, 39040, Note_on_c, 0, 79, 86
2, 39200, Note_on_c, 0, 79, 0
2, 39200, Note_on_c, 0, 67, 0
2, 39200, Note_on_c, 0, 71, 0
2, 39200, Note_on_c, 0, 71, 77
2, 39200, Note_on_c, 0, 79, 86
2, 39200, Note_on_c, 0, 67, 77
2, 39360, Note_on_c, 0, 67, 0
2, 39360, Note_on_c, 0, 79, 0
2, 39360, Note_on_c, 0, 71, 0
2, 39360, Note_on_c, 0, 79, 93
2, 39360, Note_on_c, 0, 67, 83
2, 39360, Note_on_c, 0, 71, 83
2, 40000, Note_on_c, 0, 71, 0
2, 40000, Note_on_c, 0, 67, 0
2, 40000, Note_on_c, 0, 79, 0
2, 40000, Note_on_c, 0, 79, 86
2, 40000, Note_on_c, 0, 67, 77
2, 40000, Note_on_c, 0, 71, 77
2, 40160, Note_on_c, 0, 71, 0
2, 40160, Note_on_c, 0, 67, 0
2, 40160, Note_on_c, 0, 79, 0
2, 40160, Note_on_c, 0, 79, 85
2, 40160, Note_on_c, 0, 67, 76
2, 40160, Note_on_c, 0, 71, 76
2, 40320, Note_on_c, 0, 71, 0
2, 40320, Note_on_c, 0, 67, 0
2, 40320, Note_on_c, 0, 79, 0
2, 40320, Note_on_c, 0, 79, 92
2, 40320, Note_on_c, 0, 67, 82
2, 40320, Note_on_c, 0, 71, 82
2, 41040, Note_on_c, 0, 71, 0
2, 41040, Note_on_c, 0, 67, 0
2, 41040, Note_on_c, 0, 79, 0
2, 41040, Note_on_c, 0, 79, 82
2, 41040, Note_on_c, 0, 71, 73
2, 41040, Note_on_c, 0, 83, 82
2, 41280, Note_on_c, 0, 83, 0
2, 41280, Note_on_c, 0, 71, 0
2, 41280, Note_on_c, 0, 79, 0
2, 41280, Note_on_c, 0, 84, 87
2, 41280, Note_on_c, 0, 72, 78
2, 41280, Note_on_c, 0, 81, 87
2, 41520, Note_on_c, 0, 81, 0
2, 41520, Note_on_c, 0, 72, 0
2, 41520, Note_on_c, 0, 84, 0
2, 41520, Note_on_c, 0, 83, 85
2, 41520, Note_on_c, 0, 71, 76
2, 41520, Note_on_c, 0, 80, 85
2, 41760, Note_on_c, 0, 80, 0
2, 41760, Note_on_c, 0, 71, 0
2, 41760, Note_on_c, 0, 83, 0
2, 41760, Note_on_c, 0, 81, 87
2, 41760, Note_on_c, 0, 84, 87
2, 41760, Note_on_c, 0, 72, 78
2, 41880, Note_on_c, 0, 72, 0
2, 41880, Note_on_c, 0, 84, 0
2, 41880, Note_on_c, 0, 81, 0
2, 42000, Note_on_c, 0, 74, 81
2, 42000, Note_on_c, 0, 69, 72
2, 42000, Note_on_c, 0, 81, 81
2, 42120, Note_on_c, 0, 81, 0
2, 42120, Note_on_c, 0, 69, 0
2, 42120, Note_on_c, 0, 74, 0
2, 42240, Note_on_c, 0, 79, 87
2, 42240, Note_on_c, 0, 74, 82
2, 42240, Note_on_c, 0, 86, 96
2, 42960, Note_on_c, 0, 86, 0
2, 42960, Note_on_c, 0, 74, 0
2, 42960, Note_on_c, 0, 84, 82
2, 42960, Note_on_c, 0, 72, 73
2, 43200, Note_on_c, 0, 72, 0
2, 43200, Note_on_c, 0, 84, 0
2, 43200, Note_on_c, 0, 79, 0
2, 43200, Note_on_c, 0, 83, 87
2, 43200, Note_on_c, 0, 71, 78
2, 43200, Note_on_c, 0, 79, 87
2, 43440, Note_on_c, 0, 79, 0
2, 43440, Note_on_c, 0, 71, 0
2, 43440, Note_on_c, 0, 83, 0
2, 43440, Note_on_c, 0, 84, 85
2, 43440, Note_on_c, 0, 72, 76
2, 43440, Note_on_c, 0, 81, 85
2, 43680, Note_on_c, 0, 81, 0
2, 43680, Note_on_c, 0, 72, 0
2, 43680, Note_on_c, 0, 84, 0
2, 43680, Note_on_c, 0, 83, 87
2, 43680, Note_on_c, 0, 74, 78
2, 43680, Note_on_c, 0, 86, 87
2, 43800, Note_on_c, 0, 86, 0
2, 43800, Note_on_c, 0, 74, 0
2, 43800, Note_on_c, 0, 83, 0
2, 43920, Note_on_c, 0, 83, 81
2, 43920, Note_on_c, 0, 71, 72
2, 43920, Note_on_c, 0, 79, 81
2, 44040, Note_on_c, 0, 79, 0
2, 44040, Note_on_c, 0, 71, 0
2, 44040, Note_on_c, 0, 83, 0
2, 44160, Note_on_c, 0, 91, 96
2, 44160, Note_on_c, 0, 79, 82
2, 44160, Note_on_c, 0, 84, 87
2, 44880, Note_on_c, 0, 84, 0
2, 44880, Note_on_c, 0, 79, 0
2, 44880, Note_on_c, 0, 91, 0
2, 44880, Note_on_c, 0, 90, 77
2, 44880, Note_on_c, 0, 84, 69
2, 44880, Note_on_c, 0, 78, 69
2, 45000, Note_on_c, 0, 78, 0
2, 45000, Note_on_c, 0, 84, 0
2, 45000, Note_on_c, 0, 90, 0
2, 45120, Note_on_c, 0, 76, 74
2, 45120, Note_on_c, 0, 84, 82
2, 45120, Note_on_c, 0, 88, 82
2, 45240, Note_on_c, 0, 88, 0
2, 45240, Note_on_c, 0, 84, 0
2, 45240, Note_on_c, 0, 76, 0
2, 45360, Note_on_c, 0, 78, 72
2, 45360, Note_on_c, 0, 86, 80
2, 45360, Note_on_c, 0, 90, 80
2, 45480, Note_on_c, 0, 90, 0
2, 45480, Note_on_c, 0, 86, 0
2, 45480, Note_on_c, 0, 78, 0
2, 45600, Note_on_c, 0, 76, 74
2, 45600, Note_on_c, 0, 88, 82
2, 45600, Note_on_c, 0, 84, 82
2, 45720, Note_on_c, 0, 84, 0
2, 45720, Note_on_c, 0, 88, 0
2, 45720, Note_on_c, 0, 76, 0
2, 45840, Note_on_c, 0, 74, 68
2, 45840, Note_on_c, 0, 83, 76
2, 45840, Note_on_c, 0, 86, 76
2, 45960, Note_on_c, 0, 86, 0
2, 45960, Note_on_c, 0, 83, 0
2, 45960, Note_on_c, 0, 74, 0
2, 46080, Note_on_c, 0, 72, 73
2, 46080, Note_on_c, 0, 81, 81
2, 46080, Note_on_c, 0, 84, 81
2, 46200, Note_on_c, 0, 84, 0
2, 46200, Note_on_c, 0, 81, 0
2, 46200, Note_on_c, 0, 72, 0
2, 46320, Note_on_c, 0, 83, 74
2, 46320, Note_on_c, 0, 86, 74
2, 46320, Note_on_c, 0, 74, 66
2, 46440, Note_on_c, 0, 74, 0
2, 46440, Note_on_c, 0, 86, 0
2, 46440, Note_on_c, 0, 83, 0
2, 46560, Note_on_c, 0, 72, 71
2, 46560, Note_on_c, 0, 81, 79
2, 46560, Note_on_c, 0, 84, 79
2, 46680, Note_on_c, 0, 84, 0
2, 46680, Note_on_c, 0, 81, 0
2, 46680, Note_on_c, 0, 72, 0
2, 46800, Note_on_c, 0, 79, 72
2, 46800, Note_on_c, 0, 83, 72
2, 46800, Note_on_c, 0, 71, 64
2, 46920, Note_on_c, 0, 71, 0
2, 46920, Note_on_c, 0, 83, 0
2, 46920, Note_on_c, 0, 79, 0
2, 47040, Note_on_c, 0, 78, 77
2, 47040, Note_on_c, 0, 69, 69
2, 47040, Note_on_c, 0, 81, 77
2, 47160, Note_on_c, 0, 81, 0
2, 47160, Note_on_c, 0, 69, 0
2, 47160, Note_on_c, 0, 78, 0
2, 47280, Note_on_c, 0, 79, 74
2, 47280, Note_on_c, 0, 71, 66
2, 47280, Note_on_c, 0, 83, 74
2, 47400, Note_on_c, 0, 83, 0
2, 47400, Note_on_c, 0, 71, 0
2, 47400, Note_on_c, 0, 79, 0
2, 47520, Note_on_c, 0, 81, 77
2, 47520, Note_on_c, 0, 69, 69
2, 47520, Note_on_c, 0, 78, 77
2, 47640, Note_on_c, 0, 78, 0
2, 47640, Note_on_c, 0, 69, 0
2, 47640, Note_on_c, 0, 81, 0
2, 47760, Note_on_c, 0, 76, 73
2, 47760, Note_on_c, 0, 67, 65
2, 47760, Note_on_c, 0, 79, 73
2, 47880, Note_on_c, 0, 79, 0
2, 47880, Note_on_c, 0, 67, 0
2, 47880, Note_on_c, 0, 76, 0
2, 48000, Note_on_c, 0, 74, 81
2, 48000, Note_on_c, 0, 66, 73
2, 48000, Note_on_c, 0, 78, 81
2, 48120, Note_on_c, 0, 78, 0
2, 48120, Note_on_c, 0, 66, 0
2, 48120, Note_on_c, 0, 74, 0
2, 48240, Note_on_c, 0, 79, 74
2, 48240, Note_on_c, 0, 76, 74
2, 48240, Note_on_c, 0, 67, 66
2, 48360, Note_on_c, 0, 67, 0
2, 48360, Note_on_c, 0, 76, 0
2, 48360, Note_on_c, 0, 79, 0
2, 48480, Note_on_c, 0, 74, 79
2, 48480, Note_on_c, 0, 66, 71
2, 48480, Note_on_c, 0, 78, 79
2, 48600, Note_on_c, 0, 78, 0
2, 48600, Note_on_c, 0, 66, 0
2, 48600, Note_on_c, 0, 74, 0
2, 48720, Note_on_c, 0, 64, 64
2, 48720, Note_on_c, 0, 72, 72
2, 48720, Note_on_c, 0, 76, 72
2, 48840, Note_on_c, 0, 76, 0
2, 48840, Note_on_c, 0, 72, 0
2, 48840, Note_on_c, 0, 64, 0
2, 48960, Note_on_c, 0, 71, 73
2, 48960, Note_on_c, 0, 74, 73
2, 48960, Note_on_c, 0, 62, 65
2, 49080, Note_on_c, 0, 62, 0
2, 49080, Note_on_c, 0, 74, 0
2, 49080, Note_on_c, 0, 71, 0
2, 49200, Note_on_c, 0, 72, 70
2, 49200, Note_on_c, 0, 64, 62
2, 49200, Note_on_c, 0, 76, 70
2, 49320, Note_on_c, 0, 76, 0
2, 49320, Note_on_c, 0, 64, 0
2, 49320, Note_on_c, 0, 72, 0
2, 49440, Note_on_c, 0, 71, 73
2, 49440, Note_on_c, 0, 62, 65
2, 49440, Note_on_c, 0, 74, 73
2, 49560, Note_on_c, 0, 74, 0
2, 49560, Note_on_c, 0, 62, 0
2, 49560, Note_on_c, 0, 71, 0
2, 49680, Note_on_c, 0, 72, 69
2, 49680, Note_on_c, 0, 64, 61
2, 49680, Note_on_c, 0, 69, 69
2, 49800, Note_on_c, 0, 69, 0
2, 49800, Note_on_c, 0, 64, 0
2, 49800, Note_on_c, 0, 72, 0
2, 49920, Note_on_c, 0, 67, 65
2, 49920, Note_on_c, 0, 71, 73
2, 50560, Note_on_c, 0, 71, 0
2, 50560, Note_on_c, 0, 67, 0
2, 50560, Note_on_c, 0, 59, 61
2, 50560, Note_on_c, 0, 67, 61
2, 50560, Note_on_c, 0, 71, 68
2, 50720, Note_on_c, 0, 71, 0
2, 50720, Note_on_c, 0, 67, 0
2, 50720, Note_on_c, 0, 59, 0
2, 50720, Note_on_c, 0, 59, 61
2, 50720, Note_on_c, 0, 67, 61
2, 50720, Note_on_c, 0, 71, 68
2, 50880, Note_on_c, 0, 71, 0
2, 50880, Note_on_c, 0, 67, 0
2, 50880, Note_on_c, 0, 59, 0
2, 50880, Note_on_c, 0, 59, 62
2, 50880, Note_on_c, 0, 67, 62
2, 50880, Note_on_c, 0, 71, 70
2, 51520, Note_on_c, 0, 71, 0
2, 51520, Note_on_c, 0, 67, 0
2, 51520, Note_on_c, 0, 59, 0
2, 51520, Note_on_c, 0, 59, 61
2, 51520, Note_on_c, 0, 71, 68
2, 51520, Note_on_c, 0, 67, 61
2, 51680, Note_on_c, 0, 67, 0
2, 51680, Note_on_c, 0, 71, 0
2, 51680, Note_on_c, 0, 59, 0
2, 51680, Note_on_c, 0, 71, 68
2, 51680, Note_on_c, 0, 67, 60
2, 51680, Note_on_c, 0, 59, 60
2, 51840, Note_on_c, 0, 59, 0
2, 51840, Note_on_c, 0, 67, 0
2, 51840, Note_on_c, 0, 71, 0
2, 51840, Note_on_c, 0, 59, 61
2, 51840, Note_on_c, 0, 67, 61
2, 51840, Note_on_c, 0, 71, 69
2, 52320, Note_on_c, 0, 71, 0
2, 52320, Note_on_c, 0, 67, 0
2, 52320, Note_on_c, 0, 59, 0
2, 52560, Note_on_c, 0, 62, 58
2, 52560, Note_on_c, 0, 74, 65
2, 52560, Note_on_c, 0, 67, 65
2, 52680, Note_on_c, 0, 67, 0
2, 52680, Note_on_c, 0, 74, 0
2, 52680, Note_on_c, 0, 62, 0
2, 52800, Note_on_c, 0, 67, 62
2, 52800, Note_on_c, 0, 76, 69
2, 52800, Note_on_c, 0, 64, 62
2, 52800, Note_on_c, 0, 73, 69
2, 52920, Note_on_c, 0, 73, 0
2, 52920, Note_on_c, 0, 67, 0
2, 52920, Note_on_c, 0, 76, 0
2, 52920, Note_on_c, 0, 64, 0
2, 53040, Note_on_c, 0, 62, 60
2, 53040, Note_on_c, 0, 74, 68
2, 53160, Note_on_c, 0, 74, 0
2, 53160, Note_on_c, 0, 62, 0
2, 53280, Note_on_c, 0, 64, 62
2, 53280, Note_on_c, 0, 76, 69
2, 53280, Note_on_c, 0, 72, 69
2, 53400, Note_on_c, 0, 72, 0
2, 53400, Note_on_c, 0, 76, 0
2, 53400, Note_on_c, 0, 64, 0
2, 53520, Note_on_c, 0, 66, 57
2, 53520, Note_on_c, 0, 78, 64
2, 53640, Note_on_c, 0, 78, 0
2, 53640, Note_on_c, 0, 66, 0
2, 53760, Note_on_c, 0, 71, 62
2, 53760, Note_on_c, 0, 67, 62
2, 53760, Note_on_c, 0, 79, 69
2, 54000, Note_on_c, 0, 79, 0
2, 54000, Note_on_c, 0, 67, 0
2, 54000, Note_on_c, 0, 71, 0
2, 54400, Note_on_c, 0, 79, 67
2, 54400, Note_on_c, 0, 71, 67
2, 54400, Note_on_c, 0, 83, 74
2, 54560, Note_on_c, 0, 83, 0
2, 54560, Note_on_c, 0, 71, 0
2, 54560, Note_on_c, 0, 79, 0
2, 54560, Note_on_c, 0, 79, 67
2, 54560, Note_on_c, 0, 83, 74
2, 54560, Note_on_c, 0, 71, 67
2, 54720, Note_on_c, 0, 71, 0
2, 54720, Note_on_c, 0, 83, 0
2, 54720, Note_on_c, 0, 79, 0
2, 54720, Note_on_c, 0, 83, 77
2, 54720, Note_on_c, 0, 71, 68
2, 54720, Note_on_c, 0, 79, 68
2, 55360, Note_on_c, 0, 79, 0
2, 55360, Note_on_c, 0, 71, 0
2, 55360, Note_on_c, 0, 83, 0
2, 55360, Note_on_c, 0, 83, 74
2, 55360, Note_on_c, 0, 71, 67
2, 55360, Note_on_c, 0, 79, 67
2, 55520, Note_on_c, 0, 79, 0
2, 55520, Note_on_c, 0, 71, 0
2, 55520, Note_on_c, 0, 83, 0
2, 55520, Note_on_c, 0, 83, 74
2, 55520, Note_on_c, 0, 71, 66
2, 55520, Note_on_c, 0, 79, 66
2, 55680, Note_on_c, 0, 79, 0
2, 55680, Note_on_c, 0, 71, 0
2, 55680, Note_on_c, 0, 83, 0
2, 55680, Note_on_c, 0, 83, 75
2, 55680, Note_on_c, 0, 71, 67
2, 55680, Note_on_c, 0, 79, 67
2, 56160, Note_on_c, 0, 79, 0
2, 56160, Note_on_c, 0, 71, 0
2, 56160, Note_on_c, 0, 83, 0
2, 56400, Note_on_c, 0, 79, 74
2, 56400, Note_on_c, 0, 74, 66
2, 56400, Note_on_c, 0, 86, 74
2, 56520, Note_on_c, 0, 86, 0
2, 56520, Note_on_c, 0, 74, 0
2, 56520, Note_on_c, 0, 79, 0
2, 56640, Note_on_c, 0, 85, 78
2, 56640, Note_on_c, 0, 88, 78
2, 56640, Note_on_c, 0, 76, 71
2, 56640, Note_on_c, 0, 79, 71
2, 56760, Note_on_c, 0, 79, 0
2, 56760, Note_on_c, 0, 85, 0
2, 56760, Note_on_c, 0, 88, 0
2, 56760, Note_on_c, 0, 76, 0
2, 56880, Note_on_c, 0, 86, 77
2, 56880, Note_on_c, 0, 74, 69
2, 57000, Note_on_c, 0, 74, 0
2, 57000, Note_on_c, 0, 86, 0
2, 57120, Note_on_c, 0, 84, 78
2, 57120, Note_on_c, 0, 76, 71
2, 57120, Note_on_c, 0, 88, 78
2, 57360, Note_on_c, 0, 88, 0
2, 57360, Note_on_c, 0, 76, 0
2, 57360, Note_on_c, 0, 84, 0
2, 57360, Note_on_c, 0, 84, 65
2, 57360, Note_on_c, 0, 90, 73
2, 57360, Note_on_c, 0, 86, 73
2, 57360, Note_on_c, 0, 78, 65
2, 57600, Note_on_c, 0, 78, 0
2, 57600, Note_on_c, 0, 84, 0
2, 57600, Note_on_c, 0, 90, 0
2, 57600, Note_on_c, 0, 86, 0
2, 57600, Note_on_c, 0, 83, 71
2, 57600, Note_on_c, 0, 91, 78
2, 57600, Note_on_c, 0, 79, 71
2, 57600, Note_on_c, 0, 86, 71
2, 57840, Note_on_c, 0, 86, 0
2, 57840, Note_on_c, 0, 83, 0
2, 57840, Note_on_c, 0, 91, 0
2, 57840, Note_on_c, 0, 79, 0
2, 58080, Note_on_c, 0, 86, 76
2, 58080, Note_on_c, 0, 74, 68
2, 58200, Note_on_c, 0, 74, 0
2, 58200, Note_on_c, 0, 86, 0
2, 58240, Note_on_c, 0, 76, 68
2, 58240, Note_on_c, 0, 88, 76
2, 58360, Note_on_c, 0, 88, 0
2, 58360, Note_on_c, 0, 76, 0
2, 58400, Note_on_c, 0, 78, 69
2, 58400, Note_on_c, 0, 90, 77
2, 58520, Note_on_c, 0, 90, 0
2, 58520, Note_on_c, 0, 78, 0
2, 58560, Note_on_c, 0, 91, 78
2, 58560, Note_on_c, 0, 79, 70
2, 58680, Note_on_c, 0, 79, 0
2, 58680, Note_on_c, 0, 91, 0
2, 59040, Note_on_c, 0, 74, 68
2, 59040, Note_on_c, 0, 86, 76
2, 59160, Note_on_c, 0, 86, 0
2, 59160, Note_on_c, 0, 74, 0
2, 59200, Note_on_c, 0, 76, 68
2, 59200, Note_on_c, 0, 88, 76
2, 59320, Note_on_c, 0, 88, 0
2, 59320, Note_on_c, 0, 76, 0
2, 59360, Note_on_c, 0, 90, 77
2, 59360, Note_on_c, 0, 78, 69
2, 59480, Note_on_c, 0, 78, 0
2, 59480, Note_on_c, 0, 90, 0
2, 59520, Note_on_c, 0, 91, 78
2, 59520, Note_on_c, 0, 79, 70
2, 59640, Note_on_c, 0, 79, 0
2, 59640, Note_on_c, 0, 91, 0
2, 60000, Note_on_c, 0, 86, 76
2, 60000, Note_on_c, 0, 74, 68
2, 60120, Note_on_c, 0, 74, 0
2, 60120, Note_on_c, 0, 86, 0
2, 60160, Note_on_c, 0, 76, 68
2, 60160, Note_on_c, 0, 88, 76
2, 60280, Note_on_c, 0, 88, 0
2, 60280, Note_on_c, 0, 76, 0
2, 60320, Note_on_c, 0, 78, 69
2, 60320, Note_on_c, 0, 90, 77
2, 60440, Note_on_c, 0, 90, 0
2, 60440, Note_on_c, 0, 78, 0
2, 60480, Note_on_c, 0, 91, 78
2, 60480, Note_on_c, 0, 79, 70
2, 60720, Note_on_c, 0, 79, 0
2, 60720, Note_on_c, 0, 91, 0
2, 60960, Note_on_c, 0, 67, 55
2, 61040, Note_on_c, 0, 67, 0
2, 61120, Note_on_c, 0, 69, 55
2, 61200, Note_on_c, 0, 69, 0
2, 61280, Note_on_c, 0, 70, 51
2, 61360, Note_on_c, 0, 70, 0
2, 61440, Note_on_c, 0, 71, 55
2, 62400, Note_on_c, 0, 71, 0
2, 62400, Note_on_c, 0, 72, 55
2, 62880, Note_on_c, 0, 72, 0
2, 62880, Note_on_c, 0, 67, 55
2, 62960, Note_on_c, 0, 67, 0
2, 63040, Note_on_c, 0, 69, 55
2, 63120, Note_on_c, 0, 69, 0
2, 63200, Note_on_c, 0, 71, 51
2, 63280, Note_on_c, 0, 71, 0
2, 63360, Note_on_c, 0, 72, 55
2, 64200, Note_on_c, 0, 72, 0
2, 64200, Note_on_c, 0, 76, 55
2, 64320, Note_on_c, 0, 76, 0
2, 64320, Note_on_c, 0, 71, 55
2, 64800, Note_on_c, 0, 71, 0
2, 64800, Note_on_c, 0, 54, 55
2, 64880, Note_on_c, 0, 54, 0
2, 64960, Note_on_c, 0, 55, 55
2, 65040, Note_on_c, 0, 55, 0
2, 65120, Note_on_c, 0, 57, 51
2, 65200, Note_on_c, 0, 57, 0
2, 65280, Note_on_c, 0, 59, 55
2, 65760, Note_on_c, 0, 66, 39
2, 65760, Note_on_c, 0, 63, 35
2, 66000, Note_on_c, 0, 63, 0
2, 66000, Note_on_c, 0, 66, 0
2, 66240, Note_on_c, 0, 59, 0
2, 66240, Note_on_c, 0, 60, 55
2, 66720, Note_on_c, 0, 60, 0
2, 66720, Note_on_c, 0, 67, 39
2, 66720, Note_on_c, 0, 64, 39
2, 66720, Note_on_c, 0, 55, 55
2, 66800, Note_on_c, 0, 55, 0
2, 66880, Note_on_c, 0, 57, 55
2, 66960, Note_on_c, 0, 57, 0
2, 66960, Note_on_c, 0, 64, 0
2, 66960, Note_on_c, 0, 67, 0
2, 67040, Note_on_c, 0, 59, 51
2, 67120, Note_on_c, 0, 59, 0
2, 67200, Note_on_c, 0, 60, 55
2, 67680, Note_on_c, 0, 72, 39
2, 67680, Note_on_c, 0, 69, 39
2, 67920, Note_on_c, 0, 69, 0
2, 67920, Note_on_c, 0, 72, 0
2, 68040, Note_on_c, 0, 60, 0
2, 68040, Note_on_c, 0, 64, 55
2, 68160, Note_on_c, 0, 64, 0
2, 68160, Note_on_c, 0, 59, 55
2, 68640, Note_on_c, 0, 59, 0
2, 68640, Note_on_c, 0, 63, 39
2, 68640, Note_on_c, 0, 66, 55
2, 68720, Note_on_c, 0, 66, 0
2, 68800, Note_on_c, 0, 68, 55
2, 68880, Note_on_c, 0, 68, 0
2, 68880, Note_on_c, 0, 63, 0
2, 68960, Note_on_c, 0, 70, 51
2, 69040, Note_on_c, 0, 70, 0
2, 69120, Note_on_c, 0, 71, 55
2, 70080, Note_on_c, 0, 71, 0
2, 70080, Note_on_c, 0, 72, 55
2, 70560, Note_on_c, 0, 72, 0
2, 70560, Note_on_c, 0, 67, 55
2, 70640, Note_on_c, 0, 67, 0
2, 70720, Note_on_c, 0, 69, 55
2, 70800, Note_on_c, 0, 69, 0
2, 70880, Note_on_c, 0, 71, 51
2, 70960, Note_on_c, 0, 71, 0
2, 71040, Note_on_c, 0, 72, 55
2, 71880, Note_on_c, 0, 72, 0
2, 71880, Note_on_c, 0, 76, 55
2, 72000, Note_on_c, 0, 76, 0
2, 72000, Note_on_c, 0, 71, 55
2, 72480, Note_on_c, 0, 71, 0
2, 72480, Note_on_c, 0, 54, 55
2, 72560, Note_on_c, 0, 54, 0
2, 72640, Note_on_c, 0, 55, 55
2, 72720, Note_on_c, 0, 55, 0
2, 72800, Note_on_c, 0, 57, 51
2, 72880, Note_on_c, 0, 57, 0
2, 72960, Note_on_c, 0, 59, 55
2, 73440, Note_on_c, 0, 63, 39
2, 73440, Note_on_c, 0, 66, 39
2, 73680, Note_on_c, 0, 66, 0
2, 73680, Note_on_c, 0, 63, 0
2, 73920, Note_on_c, 0, 59, 0
2, 73920, Note_on_c, 0, 60, 55
2, 74400, Note_on_c, 0, 60, 0
2, 74400, Note_on_c, 0, 64, 39
2, 74400, Note_on_c, 0, 67, 39
2, 74400, Note_on_c, 0, 55, 55
2, 74480, Note_on_c, 0, 55, 0
2, 74560, Note_on_c, 0, 57, 55
2, 74640, Note_on_c, 0, 57, 0
2, 74640, Note_on_c, 0, 67, 0
2, 74640, Note_on_c, 0, 64, 0
2, 74720, Note_on_c, 0, 59, 51
2, 74800, Note_on_c, 0, 59, 0
2, 74880, Note_on_c, 0, 60, 55
2, 75360, Note_on_c, 0, 69, 39
2, 75360, Note_on_c, 0, 72, 39
2, 75600, Note_on_c, 0, 72, 0
2, 75600, Note_on_c, 0, 69, 0
2, 75720, Note_on_c, 0, 60, 0
2, 75720, Note_on_c, 0, 64, 55
2, 75840, Note_on_c, 0, 64, 0
2, 75840, Note_on_c, 0, 59, 55
2, 76320, Note_on_c, 0, 59, 0
2, 76320, Note_on_c, 0, 71, 42
2, 76320, Note_on_c, 0, 63, 59
2, 76400, Note_on_c, 0, 63, 0
2, 76480, Note_on_c, 0, 64, 59
2, 76560, Note_on_c, 0, 64, 0
2, 76560, Note_on_c, 0, 71, 0
2, 76640, Note_on_c, 0, 65, 57
2, 76720, Note_on_c, 0, 65, 0
2, 76800, Note_on_c, 0, 66, 62
2, 77280, Note_on_c, 0, 61, 46
2, 77760, Note_on_c, 0, 61, 0
2, 77760, Note_on_c, 0, 66, 0
2, 77760, Note_on_c, 0, 60, 64
2, 77760, Note_on_c, 0, 68, 67
2, 78000, Note_on_c, 0, 68, 0
2, 78000, Note_on_c, 0, 60, 0
2, 78240, Note_on_c, 0, 80, 68
2, 78240, Note_on_c, 0, 68, 61
2, 78720, Note_on_c, 0, 68, 0
2, 78720, Note_on_c, 0, 80, 0
2, 78720, Note_on_c, 0, 67, 60
2, 78720, Note_on_c, 0, 79, 67
2, 79200, Note_on_c, 0, 79, 0
2, 79200, Note_on_c, 0, 67, 0
2, 79200, Note_on_c, 0, 66, 60
2, 79200, Note_on_c, 0, 68, 60
2, 79200, Note_on_c, 0, 78, 67
2, 79680, Note_on_c, 0, 78, 0
2, 79680, Note_on_c, 0, 68, 0
2, 79680, Note_on_c, 0, 66, 0
2, 79680, Note_on_c, 0, 64, 54
2, 79680, Note_on_c, 0, 68, 54
2, 79680, Note_on_c, 0, 76, 67
2, 79920, Note_on_c, 0, 76, 0
2, 79920, Note_on_c, 0, 68, 0
2, 79920, Note_on_c, 0, 64, 0
2, 80160, Note_on_c, 0, 64, 61
2, 80320, Note_on_c, 0, 64, 0
2, 80320, Note_on_c, 0, 66, 61
2, 80480, Note_on_c, 0, 66, 0
2, 80480, Note_on_c, 0, 67, 59
2, 80640, Note_on_c, 0, 67, 0
2, 80640, Note_on_c, 0, 68, 65
2, 81120, Note_on_c, 0, 63, 48
2, 81600, Note_on_c, 0, 63, 0
2, 81600, Note_on_c, 0, 68, 0
2, 81600, Note_on_c, 0, 70, 69
2, 81600, Note_on_c, 0, 62, 67
2, 81840, Note_on_c, 0, 62, 0
2, 81840, Note_on_c, 0, 70, 0
2, 82080, Note_on_c, 0, 82, 70
2, 82080, Note_on_c, 0, 70, 63
2, 82560, Note_on_c, 0, 70, 0
2, 82560, Note_on_c, 0, 82, 0
2, 82560, Note_on_c, 0, 81, 70
2, 82560, Note_on_c, 0, 69, 63
2, 83040, Note_on_c, 0, 69, 0
2, 83040, Note_on_c, 0, 81, 0
2, 83040, Note_on_c, 0, 70, 59
2, 83040, Note_on_c, 0, 68, 59
2, 83040, Note_on_c, 0, 80, 66
2, 83520, Note_on_c, 0, 80, 0
2, 83520, Note_on_c, 0, 68, 0
2, 83520, Note_on_c, 0, 70, 0
2, 83520, Note_on_c, 0, 70, 56
2, 83520, Note_on_c, 0, 66, 56
2, 83520, Note_on_c, 0, 78, 70
2, 83760, Note_on_c, 0, 78, 0
2, 83760, Note_on_c, 0, 66, 0
2, 83760, Note_on_c, 0, 70, 0
2, 84000, Note_on_c, 0, 70, 59
2, 84080, Note_on_c, 0, 70, 0
2, 84160, Note_on_c, 0, 72, 57
2, 84240, Note_on_c, 0, 72, 0
2, 84320, Note_on_c, 0, 74, 57
2, 84400, Note_on_c, 0, 74, 0
2, 84480, Note_on_c, 0, 75, 60
2, 84560, Note_on_c, 0, 75, 0
2, 84640, Note_on_c, 0, 74, 57
2, 84720, Note_on_c, 0, 74, 0
2, 84800, Note_on_c, 0, 75, 57
2, 84880, Note_on_c, 0, 75, 0
2, 84960, Note_on_c, 0, 82, 60
2, 85040, Note_on_c, 0, 82, 0
2, 85120, Note_on_c, 0, 81, 56
2, 85200, Note_on_c, 0, 81, 0
2, 85280, Note_on_c, 0, 82, 56
2, 85360, Note_on_c, 0, 82, 0
2, 85440, Note_on_c, 0, 78, 60
2, 85520, Note_on_c, 0, 78, 0
2, 85600, Note_on_c, 0, 77, 57
2, 85680, Note_on_c, 0, 77, 0
2, 85760, Note_on_c, 0, 78, 57
2, 85840, Note_on_c, 0, 78, 0
2, 85920, Note_on_c, 0, 74, 61
2, 86000, Note_on_c, 0, 74, 0
2, 86080, Note_on_c, 0, 73, 59
2, 86160, Note_on_c, 0, 73, 0
2, 86240, Note_on_c, 0, 74, 59
2, 86320, Note_on_c, 0, 74, 0
2, 86400, Note_on_c, 0, 75, 60
2, 86480, Note_on_c, 0, 75, 0
2, 86560, Note_on_c, 0, 74, 58
2, 86640, Note_on_c, 0, 74, 0
2, 86720, Note_on_c, 0, 75, 58
2, 86800, Note_on_c, 0, 75, 0
2, 86880, Note_on_c, 0, 70, 59
2, 86960, Note_on_c, 0, 70, 0
2, 87040, Note_on_c, 0, 69, 57
2, 87120, Note_on_c, 0, 69, 0
2, 87200, Note_on_c, 0, 70, 57
2, 87280, Note_on_c, 0, 70, 0
2, 87360, Note_on_c, 0, 75, 60
2, 87440, Note_on_c, 0, 75, 0
2, 87520, Note_on_c, 0, 74, 57
2, 87600, Note_on_c, 0, 74, 0
2, 87680, Note_on_c, 0, 75, 58
2, 87760, Note_on_c, 0, 75, 0
2, 88480, Note_on_c, 0, 82, 71
2, 88640, Note_on_c, 0, 82, 0
2, 88640, Note_on_c, 0, 81, 66
2, 88800, Note_on_c, 0, 81, 0
2, 88800, Note_on_c, 0, 82, 71
2, 88960, Note_on_c, 0, 82, 0
2, 88960, Note_on_c, 0, 70, 65
2, 89120, Note_on_c, 0, 70, 0
2, 89120, Note_on_c, 0, 82, 67
2, 89280, Note_on_c, 0, 82, 0
2, 89280, Note_on_c, 0, 82, 71
2, 89440, Note_on_c, 0, 82, 0
2, 89440, Note_on_c, 0, 70, 67
2, 89600, Note_on_c, 0, 70, 0
2, 89600, Note_on_c, 0, 82, 67
2, 89760, Note_on_c, 0, 82, 0
2, 90400, Note_on_c, 0, 82, 71
2, 90560, Note_on_c, 0, 82, 0
2, 90560, Note_on_c, 0, 81, 66
2, 90720, Note_on_c, 0, 81, 0
2, 90720, Note_on_c, 0, 82, 71
2, 90880, Note_on_c, 0, 82, 0
2, 90880, Note_on_c, 0, 70, 65
2, 91040, Note_on_c, 0, 70, 0
2, 91040, Note_on_c, 0, 82, 67
2, 91200, Note_on_c, 0, 82, 0
2, 91200, Note_on_c, 0, 82, 71
2, 91360, Note_on_c, 0, 82, 0
2, 91360, Note_on_c, 0, 70, 67
2, 91520, Note_on_c, 0, 70, 0
2, 91520, Note_on_c, 0, 82, 67
2, 91680, Note_on_c, 0, 82, 0
2, 91680, Note_on_c, 0, 71, 59
2, 91760, Note_on_c, 0, 71, 0
2, 91840, Note_on_c, 0, 73, 57
2, 91920, Note_on_c, 0, 73, 0
2, 92000, Note_on_c, 0, 75, 57
2, 92080, Note_on_c, 0, 75, 0
2, 92160, Note_on_c, 0, 76, 60
2, 92240, Note_on_c, 0, 76, 0
2, 92320, Note_on_c, 0, 75, 57
2, 92400, Note_on_c, 0, 75, 0
2, 92480, Note_on_c, 0, 76, 57
2, 92560, Note_on_c, 0, 76, 0
2, 92640, Note_on_c, 0, 83, 60
2, 92720, Note_on_c, 0, 83, 0
2, 92800, Note_on_c, 0, 82, 56
2, 92880, Note_on_c, 0, 82, 0
2, 92960, Note_on_c, 0, 83, 56
2, 93040, Note_on_c, 0, 83, 0
2, 93120, Note_on_c, 0, 79, 60
2, 93200, Note_on_c, 0, 79, 0
2, 93280, Note_on_c, 0, 78, 57
2, 93360, Note_on_c, 0, 78, 0
2, 93440, Note_on_c, 0, 79, 57
2, 93520, Note_on_c, 0, 79, 0
2, 93600, Note_on_c, 0, 75, 61
2, 93680, Note_on_c, 0, 75, 0
2, 93760, Note_on_c, 0, 74, 59
2, 93840, Note_on_c, 0, 74, 0
2, 93920, Note_on_c, 0, 75, 59
2, 94000, Note_on_c, 0, 75, 0
2, 94080, Note_on_c, 0, 76, 60
2, 94160, Note_on_c, 0, 76, 0
2, 94240, Note_on_c, 0, 75, 58
2, 94320, Note_on_c, 0, 75, 0
2, 94400, Note_on_c, 0, 76, 58
2, 94480, Note_on_c, 0, 76, 0
2, 94560, Note_on_c, 0, 71, 59
2, 94640, Note_on_c, 0, 71, 0
2, 94720, Note_on_c, 0, 70, 57
2, 94800, Note_on_c, 0, 70, 0
2, 94880, Note_on_c, 0, 71, 57
2, 94960, Note_on_c, 0, 71, 0
2, 95040, Note_on_c, 0, 76, 60
2, 95120, Note_on_c, 0, 76, 0
2, 95200, Note_on_c, 0, 75, 57
2, 95280, Note_on_c, 0, 75, 0
2, 95360, Note_on_c, 0, 76, 58
2, 95440, Note_on_c, 0, 76, 0
2, 96160, Note_on_c, 0, 83, 71
2, 96320, Note_on_c, 0, 83, 0
2, 96320, Note_on_c, 0, 82, 66
2, 96480, Note_on_c, 0, 82, 0
2, 96480, Note_on_c, 0, 83, 71
2, 96640, Note_on_c, 0, 83, 0
2, 96640, Note_on_c, 0, 71, 65
2, 96800, Note_on_c, 0, 71, 0
2, 96800, Note_on_c, 0, 83, 67
2, 96960, Note_on_c, 0, 83, 0
2, 96960, Note_on_c, 0, 83, 71
2, 97120, Note_on_c, 0, 83, 0
2, 97120, Note_on_c, 0, 71, 67
2, 97280, Note_on_c, 0, 71, 0
2, 97280, Note_on_c, 0, 83, 67
2, 97440, Note_on_c, 0, 83, 0
2, 98080, Note_on_c, 0, 83, 71
2, 98240, Note_on_c, 0, 83, 0
2, 98240, Note_on_c, 0, 82, 66
2, 98400, Note_on_c, 0, 82, 0
2, 98400, Note_on_c, 0, 83, 71
2, 98560, Note_on_c, 0, 83, 0
2, 98560, Note_on_c, 0, 71, 65
2, 98720, Note_on_c, 0, 71, 0
2, 98720, Note_on_c, 0, 83, 67
2, 98880, Note_on_c, 0, 83, 0
2, 98880, Note_on_c, 0, 83, 71
2, 99040, Note_on_c, 0, 83, 0
2, 99040, Note_on_c, 0, 71, 67
2, 99200, Note_on_c, 0, 71, 0
2, 99200, Note_on_c, 0, 83, 67
2, 99360, Note_on_c, 0, 83, 0
2, 99360, Note_on_c, 0, 84, 60
2, 99520, Note_on_c, 0, 84, 0
2, 99520, Note_on_c, 0, 72, 56
2, 99680, Note_on_c, 0, 72, 0
2, 99680, Note_on_c, 0, 84, 56
2, 99840, Note_on_c, 0, 84, 0
2, 99840, Note_on_c, 0, 84, 62
2, 100000, Note_on_c, 0, 84, 0
2, 100000, Note_on_c, 0, 72, 59
2, 100160, Note_on_c, 0, 72, 0
2, 100160, Note_on_c, 0, 84, 58
2, 100320, Note_on_c, 0, 84, 0
2, 100320, Note_on_c, 0, 86, 64
2, 100480, Note_on_c, 0, 86, 0
2, 100480, Note_on_c, 0, 74, 59
2, 100640, Note_on_c, 0, 74, 0
2, 100640, Note_on_c, 0, 86, 62
2, 100800, Note_on_c, 0, 86, 0
2, 100800, Note_on_c, 0, 86, 67
2, 100960, Note_on_c, 0, 86, 0
2, 100960, Note_on_c, 0, 74, 62
2, 101120, Note_on_c, 0, 74, 0
2, 101120, Note_on_c, 0, 86, 63
2, 101280, Note_on_c, 0, 86, 0
2, 101280, Note_on_c, 0, 88, 69
2, 101440, Note_on_c, 0, 88, 0
2, 101440, Note_on_c, 0, 76, 65
2, 101600, Note_on_c, 0, 76, 0
2, 101600, Note_on_c, 0, 88, 67
2, 101760, Note_on_c, 0, 88, 0
2, 101760, Note_on_c, 0, 88, 71
2, 101920, Note_on_c, 0, 88, 0
2, 101920, Note_on_c, 0, 76, 67
2, 102080, Note_on_c, 0, 76, 0
2, 102080, Note_on_c, 0, 88, 66
2, 102240, Note_on_c, 0, 88, 0
2, 102240, Note_on_c, 0, 90, 72
2, 102400, Note_on_c, 0, 90, 0
2, 102400, Note_on_c, 0, 78, 68
2, 102560, Note_on_c, 0, 78, 0
2, 102560, Note_on_c, 0, 90, 68
2, 102720, Note_on_c, 0, 90, 0
2, 102720, Note_on_c, 0, 90, 76
2, 102880, Note_on_c, 0, 90, 0
2, 102880, Note_on_c, 0, 78, 69
2, 103040, Note_on_c, 0, 78, 0
2, 103040, Note_on_c, 0, 90, 72
2, 103200, Note_on_c, 0, 90, 0
2, 103200, Note_on_c, 0, 90, 78
2, 103360, Note_on_c, 0, 90, 0
2, 103360, Note_on_c, 0, 78, 71
2, 103520, Note_on_c, 0, 78, 0
2, 103520, Note_on_c, 0, 90, 73
2, 103680, Note_on_c, 0, 90, 0
2, 103680, Note_on_c, 0, 90, 80
2, 103840, Note_on_c, 0, 90, 0
2, 103840, Note_on_c, 0, 78, 73
2, 104000, Note_on_c, 0, 78, 0
2, 104000, Note_on_c, 0, 90, 76
2, 104160, Note_on_c, 0, 90, 0
2, 104160, Note_on_c, 0, 90, 80
2, 104320, Note_on_c, 0, 90, 0
2, 104320, Note_on_c, 0, 78, 73
2, 104480, Note_on_c, 0, 78, 0
2, 104480, Note_on_c, 0, 90, 76
2, 104640, Note_on_c, 0, 90, 0
2, 104640, Note_on_c, 0, 90, 80
2, 104800, Note_on_c, 0, 90, 0
2, 104800, Note_on_c, 0, 78, 73
2, 104960, Note_on_c, 0, 78, 0
2, 104960, Note_on_c, 0, 90, 76
2, 105120, Note_on_c, 0, 90, 0
2, 105120, Note_on_c, 0, 78, 78
2, 105280, Note_on_c, 0, 78, 0
2, 105280, Note_on_c, 0, 66, 71
2, 105440, Note_on_c, 0, 66, 0
2, 105440, Note_on_c, 0, 78, 73
2, 105600, Note_on_c, 0, 78, 0
2, 105600, Note_on_c, 0, 78, 80
2, 105760, Note_on_c, 0, 78, 0
2, 105760, Note_on_c, 0, 66, 73
2, 105920, Note_on_c, 0, 66, 0
2, 105920, Note_on_c, 0, 78, 78
2, 106080, Note_on_c, 0, 78, 0
2, 106080, Note_on_c, 0, 78, 84
2, 106240, Note_on_c, 0, 78, 0
2, 106240, Note_on_c, 0, 66, 77
2, 106400, Note_on_c, 0, 66, 0
2, 106400, Note_on_c, 0, 78, 82
2, 106560, Note_on_c, 0, 78, 0
2, 106560, Note_on_c, 0, 78, 88
2, 106720, Note_on_c, 0, 78, 0
2, 106720, Note_on_c, 0, 66, 81
2, 106880, Note_on_c, 0, 66, 0
2, 106880, Note_on_c, 0, 78, 85
2, 107040, Note_on_c, 0, 78, 0
2, 107040, Note_on_c, 0, 78, 92
2, 107200, Note_on_c, 0, 78, 0
2, 107200, Note_on_c, 0, 66, 84
2, 107360, Note_on_c, 0, 66, 0
2, 107360, Note_on_c, 0, 78, 89
2, 107520, Note_on_c, 0, 78, 0
2, 107520, Note_on_c, 0, 78, 79
2, 107520, Note_on_c, 0, 71, 79
2, 107520, Note_on_c, 0, 75, 79
2, 107520, Note_on_c, 0, 83, 94
2, 107640, Note_on_c, 0, 83, 0
2, 107640, Note_on_c, 0, 78, 0
2, 107640, Note_on_c, 0, 71, 0
2, 107640, Note_on_c, 0, 75, 0
2, 107680, Note_on_c, 0, 75, 71
2, 107680, Note_on_c, 0, 83, 84
2, 107680, Note_on_c, 0, 78, 71
2, 107680, Note_on_c, 0, 71, 71
2, 107800, Note_on_c, 0, 71, 0
2, 107800, Note_on_c, 0, 75, 0
2, 107800, Note_on_c, 0, 83, 0
2, 107800, Note_on_c, 0, 78, 0
2, 107840, Note_on_c, 0, 71, 71
2, 107840, Note_on_c, 0, 83, 84
2, 107840, Note_on_c, 0, 75, 71
2, 107840, Note_on_c, 0, 78, 71
2, 107960, Note_on_c, 0, 78, 0
2, 107960, Note_on_c, 0, 71, 0
2, 107960, Note_on_c, 0, 83, 0
2, 107960, Note_on_c, 0, 75, 0
2, 108000, Note_on_c, 0, 78, 79
2, 108000, Note_on_c, 0, 71, 79
2, 108000, Note_on_c, 0, 75, 79
2, 108000, Note_on_c, 0, 83, 94
2, 108240, Note_on_c, 0, 83, 0
2, 108240, Note_on_c, 0, 78, 0
2, 108240, Note_on_c, 0, 71, 0
2, 108240, Note_on_c, 0, 75, 0
2, 108480, Note_on_c, 0, 75, 79
2, 108480, Note_on_c, 0, 83, 94
2, 108480, Note_on_c, 0, 78, 79
2, 108480, Note_on_c, 0, 71, 79
2, 108600, Note_on_c, 0, 71, 0
2, 108600, Note_on_c, 0, 75, 0
2, 108600, Note_on_c, 0, 83, 0
2, 108600, Note_on_c, 0, 78, 0
2, 108640, Note_on_c, 0, 71, 71
2, 108640, Note_on_c, 0, 83, 84
2, 108640, Note_on_c, 0, 75, 71
2, 108640, Note_on_c, 0, 78, 71
2, 108760, Note_on_c, 0, 78, 0
2, 108760, Note_on_c, 0, 71, 0
2, 108760, Note_on_c, 0, 83, 0
2, 108760, Note_on_c, 0, 75, 0
2, 108800, Note_on_c, 0, 71, 71
2, 108800, Note_on_c, 0, 83, 84
2, 108800, Note_on_c, 0, 75, 71
2, 108800, Note_on_c, 0, 78, 71
2, 108920, Note_on_c, 0, 78, 0
2, 108920, Note_on_c, 0, 71, 0
2, 108920, Note_on_c, 0, 83, 0
2, 108920, Note_on_c, 0, 75, 0
2, 108960, Note_on_c, 0, 78, 79
2, 108960, Note_on_c, 0, 83, 94
2, 108960, Note_on_c, 0, 75, 79
2, 108960, Note_on_c, 0, 71, 79
2, 109200, Note_on_c, 0, 71, 0
2, 109200, Note_on_c, 0, 78, 0
2, 109200, Note_on_c, 0, 83, 0
2, 109200, Note_on_c, 0, 75, 0
2, 109440, Note_on_c, 0, 75, 79
2, 109440, Note_on_c, 0, 71, 79
2, 109440, Note_on_c, 0, 78, 79
2, 109440, Note_on_c, 0, 83, 94
2, 109560, Note_on_c, 0, 83, 0
2, 109560, Note_on_c, 0, 75, 0
2, 109560, Note_on_c, 0, 71, 0
2, 109560, Note_on_c, 0, 78, 0
2, 109600, Note_on_c, 0, 71, 71
2, 109600, Note_on_c, 0, 83, 84
2, 109600, Note_on_c, 0, 75, 71
2, 109600, Note_on_c, 0, 78, 71
2, 109720, Note_on_c, 0, 78, 0
2, 109720, Note_on_c, 0, 71, 0
2, 109720, Note_on_c, 0, 83, 0
2, 109720, Note_on_c, 0, 75, 0
2, 109760, Note_on_c, 0, 78, 71
2, 109760, Note_on_c, 0, 83, 84
2, 109760, Note_on_c, 0, 75, 71
2, 109760, Note_on_c, 0, 71, 71
2, 109880, Note_on_c, 0, 71, 0
2, 109880, Note_on_c, 0, 78, 0
2, 109880, Note_on_c, 0, 83, 0
2, 109880, Note_on_c, 0, 75, 0
2, 109920, Note_on_c, 0, 75, 79
2, 109920, Note_on_c, 0, 71, 79
2, 109920, Note_on_c, 0, 83, 94
2, 109920, Note_on_c, 0, 78, 79
2, 110160, Note_on_c, 0, 78, 0
2, 110160, Note_on_c, 0, 75, 0
2, 110160, Note_on_c, 0, 71, 0
2, 110160, Note_on_c, 0, 83, 0
2, 110400, Note_on_c, 0, 75, 79
2, 110400, Note_on_c, 0, 83, 94
2, 110400, Note_on_c, 0, 78, 79
2, 110400, Note_on_c, 0, 71, 79
2, 110520, Note_on_c, 0, 71, 0
2, 110520, Note_on_c, 0, 75, 0
2, 110520, Note_on_c, 0, 83, 0
2, 110520, Note_on_c, 0, 78, 0
2, 110560, Note_on_c, 0, 71, 71
2, 110560, Note_on_c, 0, 83, 84
2, 110560, Note_on_c, 0, 75, 71
2, 110560, Note_on_c, 0, 78, 71
2, 110680, Note_on_c, 0, 78, 0
2, 110680, Note_on_c, 0, 71, 0
2, 110680, Note_on_c, 0, 83, 0
2, 110680, Note_on_c, 0, 75, 0
2, 110720, Note_on_c, 0, 78, 71
2, 110720, Note_on_c, 0, 71, 71
2, 110720, Note_on_c, 0, 75, 71
2, 110720, Note_on_c, 0, 83, 84
2, 110840, Note_on_c, 0, 83, 0
2, 110840, Note_on_c, 0, 78, 0
2, 110840, Note_on_c, 0, 71, 0
2, 110840, Note_on_c, 0, 75, 0
2, 110880, Note_on_c, 0, 75, 79
2, 110880, Note_on_c, 0, 83, 94
2, 110880, Note_on_c, 0, 78, 79
2, 110880, Note_on_c, 0, 71, 79
2, 111120, Note_on_c, 0, 71, 0
2, 111120, Note_on_c, 0, 75, 0
2, 111120, Note_on_c, 0, 83, 0
2, 111120, Note_on_c, 0, 78, 0
2, 111360, Note_on_c, 0, 74, 79
2, 111360, Note_on_c, 0, 86, 94
2, 111520, Note_on_c, 0, 86, 0
2, 111520, Note_on_c, 0, 74, 0
2, 111520, Note_on_c, 0, 86, 84
2, 111520, Note_on_c, 0, 74, 71
2, 111680, Note_on_c, 0, 74, 0
2, 111680, Note_on_c, 0, 86, 0
2, 111680, Note_on_c, 0, 74, 71
2, 111680, Note_on_c, 0, 86, 84
2, 111840, Note_on_c, 0, 86, 0
2, 111840, Note_on_c, 0, 74, 0
2, 111840, Note_on_c, 0, 74, 79
2, 111840, Note_on_c, 0, 86, 94
2, 112080, Note_on_c, 0, 86, 0
2, 112080, Note_on_c, 0, 74, 0
2, 112320, Note_on_c, 0, 86, 94
2, 112320, Note_on_c, 0, 74, 79
2, 112480, Note_on_c, 0, 74, 0
2, 112480, Note_on_c, 0, 86, 0
2, 112480, Note_on_c, 0, 74, 71
2, 112480, Note_on_c, 0, 86, 84
2, 112640, Note_on_c, 0, 86, 0
2, 112640, Note_on_c, 0, 74, 0
2, 112640, Note_on_c, 0, 86, 84
2, 112640, Note_on_c, 0, 74, 71
2, 112800, Note_on_c, 0, 74, 0
2, 112800, Note_on_c, 0, 86, 0
2, 112800, Note_on_c, 0, 74, 79
2, 112800, Note_on_c, 0, 86, 94
2, 113040, Note_on_c, 0, 86, 0
2, 113040, Note_on_c, 0, 74, 0
2, 113280, Note_on_c, 0, 62, 71
2, 113280, Note_on_c, 0, 74, 84
2, 113440, Note_on_c, 0, 74, 0
2, 113440, Note_on_c, 0, 62, 0
2, 113440, Note_on_c, 0, 74, 75
2, 113440, Note_on_c, 0, 62, 63
2, 113600, Note_on_c, 0, 62, 0
2, 113600, Note_on_c, 0, 74, 0
2, 113600, Note_on_c, 0, 62, 63
2, 113600, Note_on_c, 0, 74, 75
2, 113760, Note_on_c, 0, 74, 0
2, 113760, Note_on_c, 0, 62, 0
2, 113760, Note_on_c, 0, 62, 71
2, 113760, Note_on_c, 0, 74, 84
2, 114000, Note_on_c, 0, 74, 0
2, 114000, Note_on_c, 0, 62, 0
2, 114240, Note_on_c, 0, 74, 84
2, 114240, Note_on_c, 0, 62, 71
2, 114400, Note_on_c, 0, 62, 0
2, 114400, Note_on_c, 0, 74, 0
2, 114400, Note_on_c, 0, 62, 63
2, 114400, Note_on_c, 0, 74, 75
2, 114560, Note_on_c, 0, 74, 0
2, 114560, Note_on_c, 0, 62, 0
2, 114560, Note_on_c, 0, 62, 63
2, 114560, Note_on_c, 0, 74, 75
2, 114720, Note_on_c, 0, 74, 0
2, 114720, Note_on_c, 0, 62, 0
2, 114720, Note_on_c, 0, 74, 84
2, 114720, Note_on_c, 0, 62, 71
2, 114960, Note_on_c, 0, 62, 0
2, 114960, Note_on_c, 0, 74, 0
2, 115200, Note_on_c, 0, 62, 70
2, 115200, Note_on_c, 0, 74, 78
2, 115360, Note_on_c, 0, 74, 0
2, 115360, Note_on_c, 0, 62, 0
2, 115360, Note_on_c, 0, 62, 65
2, 115360, Note_on_c, 0, 74, 73
2, 115520, Note_on_c, 0, 74, 0
2, 115520, Note_on_c, 0, 62, 0
2, 115520, Note_on_c, 0, 62, 65
2, 115520, Note_on_c, 0, 74, 73
2, 115680, Note_on_c, 0, 74, 0
2, 115680, Note_on_c, 0, 62, 0
2, 115680, Note_on_c, 0, 62, 70
2, 115680, Note_on_c, 0, 74, 78
2, 116320, Note_on_c, 0, 74, 0
2, 116320, Note_on_c, 0, 62, 0
2, 116320, Note_on_c, 0, 62, 64
2, 116320, Note_on_c, 0, 74, 72
2, 116440, Note_on_c, 0, 74, 0
2, 116440, Note_on_c, 0, 62, 0
2, 116480, Note_on_c, 0, 62, 64
2, 116480, Note_on_c, 0, 74, 72
2, 116600, Note_on_c, 0, 74, 0
2, 116600, Note_on_c, 0, 62, 0
2, 116640, Note_on_c, 0, 62, 70
2, 116640, Note_on_c, 0, 74, 78
2, 117280, Note_on_c, 0, 74, 0
2, 117280, Note_on_c, 0, 62, 0
2, 117280, Note_on_c, 0, 62, 64
2, 117280, Note_on_c, 0, 74, 72
2, 117400, Note_on_c, 0, 74, 0
2, 117400, Note_on_c, 0, 62, 0
2, 117440, Note_on_c, 0, 62, 64
2, 117440, Note_on_c, 0, 74, 72
2, 117560, Note_on_c, 0, 74, 0
2, 117560, Note_on_c, 0, 62, 0
2, 117600, Note_on_c, 0, 62, 70
2, 117600, Note_on_c, 0, 74, 78
2, 118320, Note_on_c, 0, 74, 0
2, 118320, Note_on_c, 0, 62, 0
2, 118320, Note_on_c, 0, 62, 67
2, 118320, Note_on_c, 0, 74, 75
2, 118800, Note_on_c, 0, 74, 0
2, 118800, Note_on_c, 0, 62, 0
2, 118800, Note_on_c, 0, 62, 68
2, 118800, Note_on_c, 0, 74, 76
2, 118920, Note_on_c, 0, 74, 0
2, 118920, Note_on_c, 0, 62, 0
2, 119200, Note_on_c, 0, 67, 67
2, 119200, Note_on_c, 0, 79, 75
2, 119320, Note_on_c, 0, 79, 0
2, 119320, Note_on_c, 0, 67, 0
2, 119360, Note_on_c, 0, 67, 67
2, 119360, Note_on_c, 0, 79, 75
2, 119480, Note_on_c, 0, 79, 0
2, 119480, Note_on_c, 0, 67, 0
2, 119520, Note_on_c, 0, 67, 74
2, 119520, Note_on_c, 0, 79, 83
2, 120160, Note_on_c, 0, 79, 0
2, 120160, Note_on_c, 0, 67, 0
2, 120160, Note_on_c, 0, 67, 67
2, 120160, Note_on_c, 0, 79, 75
2, 120280, Note_on_c, 0, 79, 0
2, 120280, Note_on_c, 0, 67, 0
2, 120320, Note_on_c, 0, 67, 67
2, 120320, Note_on_c, 0, 79, 75
2, 120440, Note_on_c, 0, 79, 0
2, 120440, Note_on_c, 0, 67, 0
2, 120480, Note_on_c, 0, 67, 70
2, 120480, Note_on_c, 0, 79, 78
2, 121200, Note_on_c, 0, 79, 0
2, 121200, Note_on_c, 0, 67, 0
2, 121200, Note_on_c, 0, 67, 70
2, 121200, Note_on_c, 0, 79, 78
2, 121680, Note_on_c, 0, 79, 0
2, 121680, Note_on_c, 0, 67, 0
2, 121680, Note_on_c, 0, 67, 68
2, 121680, Note_on_c, 0, 79, 76
2, 121800, Note_on_c, 0, 79, 0
2, 121800, Note_on_c, 0, 67, 0
2, 121920, Note_on_c, 0, 74, 87
2, 121920, Note_on_c, 0, 78, 87
2, 121920, Note_on_c, 0, 86, 97
2, 122040, Note_on_c, 0, 86, 0
2, 122040, Note_on_c, 0, 78, 0
2, 122040, Note_on_c, 0, 74, 0
2, 122160, Note_on_c, 0, 74, 79
2, 122160, Note_on_c, 0, 79, 79
2, 122160, Note_on_c, 0, 86, 88
2, 122280, Note_on_c, 0, 86, 0
2, 122280, Note_on_c, 0, 79, 0
2, 122280, Note_on_c, 0, 74, 0
2, 122400, Note_on_c, 0, 74, 84
2, 122400, Note_on_c, 0, 78, 84
2, 122400, Note_on_c, 0, 86, 94
2, 122640, Note_on_c, 0, 86, 0
2, 122640, Note_on_c, 0, 78, 0
2, 122640, Note_on_c, 0, 74, 0
2, 122880, Note_on_c, 0, 59, 72
2, 122880, Note_on_c, 0, 67, 80
2, 123520, Note_on_c, 0, 67, 0
2, 123520, Note_on_c, 0, 59, 0
2, 123520, Note_on_c, 0, 59, 67
2, 123520, Note_on_c, 0, 67, 75
2, 123640, Note_on_c, 0, 67, 0
2, 123640, Note_on_c, 0, 59, 0
2, 123680, Note_on_c, 0, 59, 67
2, 123680, Note_on_c, 0, 67, 75
2, 123800, Note_on_c, 0, 67, 0
2, 123800, Note_on_c, 0, 59, 0
2, 123840, Note_on_c, 0, 59, 72
2, 123840, Note_on_c, 0, 67, 81
2, 124480, Note_on_c, 0, 67, 0
2, 124480, Note_on_c, 0, 59, 0
2, 124480, Note_on_c, 0, 59, 67
2, 124480, Note_on_c, 0, 67, 75
2, 124600, Note_on_c, 0, 67, 0
2, 124600, Note_on_c, 0, 59, 0
2, 124640, Note_on_c, 0, 59, 66
2, 124640, Note_on_c, 0, 67, 74
2, 124760, Note_on_c, 0, 67, 0
2, 124760, Note_on_c, 0, 59, 0
2, 124800, Note_on_c, 0, 59, 72
2, 124800, Note_on_c, 0, 67, 80
2, 125520, Note_on_c, 0, 67, 0
2, 125520, Note_on_c, 0, 59, 0
2, 125520, Note_on_c, 0, 71, 74
2, 125520, Note_on_c, 0, 67, 66
2, 125640, Note_on_c, 0, 67, 0
2, 125640, Note_on_c, 0, 71, 0
2, 125760, Note_on_c, 0, 69, 72
2, 125760, Note_on_c, 0, 72, 80
2, 125880, Note_on_c, 0, 72, 0
2, 125880, Note_on_c, 0, 69, 0
2, 126000, Note_on_c, 0, 67, 66
2, 126000, Note_on_c, 0, 71, 74
2, 126120, Note_on_c, 0, 71, 0
2, 126120, Note_on_c, 0, 67, 0
2, 126240, Note_on_c, 0, 72, 80
2, 126240, Note_on_c, 0, 69, 72
2, 126360, Note_on_c, 0, 69, 0
2, 126360, Note_on_c, 0, 72, 0
2, 126480, Note_on_c, 0, 62, 71
2, 126480, Note_on_c, 0, 69, 79
2, 126600, Note_on_c, 0, 69, 0
2, 126600, Note_on_c, 0, 62, 0
2, 126720, Note_on_c, 0, 74, 80
2, 126720, Note_on_c, 0, 71, 72
2, 127360, Note_on_c, 0, 71, 0
2, 127360, Note_on_c, 0, 74, 0
2, 127360, Note_on_c, 0, 71, 67
2, 127360, Note_on_c, 0, 74, 75
2, 127480, Note_on_c, 0, 74, 0
2, 127480, Note_on_c, 0, 71, 0
2, 127520, Note_on_c, 0, 71, 67
2, 127520, Note_on_c, 0, 74, 75
2, 127640, Note_on_c, 0, 74, 0
2, 127640, Note_on_c, 0, 71, 0
2, 127680, Note_on_c, 0, 71, 72
2, 127680, Note_on_c, 0, 74, 81
2, 128320, Note_on_c, 0, 74, 0
2, 128320, Note_on_c, 0, 71, 0
2, 128320, Note_on_c, 0, 71, 67
2, 128320, Note_on_c, 0, 74, 75
2, 128440, Note_on_c, 0, 74, 0
2, 128440, Note_on_c, 0, 71, 0
2, 128480, Note_on_c, 0, 71, 66
2, 128480, Note_on_c, 0, 74, 74
2, 128600, Note_on_c, 0, 74, 0
2, 128600, Note_on_c, 0, 71, 0
2, 128640, Note_on_c, 0, 76, 80
2, 128640, Note_on_c, 0, 72, 72
2, 128760, Note_on_c, 0, 72, 0
2, 128760, Note_on_c, 0, 76, 0
2, 128880, Note_on_c, 0, 71, 69
2, 128880, Note_on_c, 0, 74, 77
2, 129000, Note_on_c, 0, 74, 0
2, 129000, Note_on_c, 0, 71, 0
2, 129120, Note_on_c, 0, 69, 69
2, 129120, Note_on_c, 0, 72, 77
2, 129240, Note_on_c, 0, 72, 0
2, 129240, Note_on_c, 0, 69, 0
2, 129360, Note_on_c, 0, 64, 67
2, 129360, Note_on_c, 0, 68, 75
2, 129360, Note_on_c, 0, 71, 75
2, 129480, Note_on_c, 0, 71, 0
2, 129480, Note_on_c, 0, 68, 0
2, 129480, Note_on_c, 0, 64, 0
2, 129600, Note_on_c, 0, 64, 73
2, 129600, Note_on_c, 0, 69, 82
2, 129720, Note_on_c, 0, 69, 0
2, 129720, Note_on_c, 0, 64, 0
2, 129840, Note_on_c, 0, 64, 69
2, 129840, Note_on_c, 0, 68, 69
2, 129840, Note_on_c, 0, 71, 77
2, 129960, Note_on_c, 0, 71, 0
2, 129960, Note_on_c, 0, 68, 0
2, 129960, Note_on_c, 0, 64, 0
2, 130080, Note_on_c, 0, 64, 67
2, 130080, Note_on_c, 0, 69, 73
2, 130080, Note_on_c, 0, 72, 82
2, 130200, Note_on_c, 0, 72, 0
2, 130200, Note_on_c, 0, 69, 0
2, 130200, Note_on_c, 0, 64, 0
2, 130560, Note_on_c, 0, 74, 64
2, 130560, Note_on_c, 0, 78, 72
2, 130680, Note_on_c, 0, 78, 0
2, 130680, Note_on_c, 0, 74, 0
2, 130800, Note_on_c, 0, 73, 59
2, 130800, Note_on_c, 0, 76, 66
2, 130920, Note_on_c, 0, 76, 0
2, 130920, Note_on_c, 0, 73, 0
2, 131040, Note_on_c, 0, 71, 63
2, 131040, Note_on_c, 0, 74, 71
2, 131160, Note_on_c, 0, 74, 0
2, 131160, Note_on_c, 0, 71, 0
2, 131280, Note_on_c, 0, 66, 60
2, 131280, Note_on_c, 0, 70, 67
2, 131280, Note_on_c, 0, 73, 67
2, 131400, Note_on_c, 0, 73, 0
2, 131400, Note_on_c, 0, 70, 0
2, 131400, Note_on_c, 0, 66, 0
2, 131520, Note_on_c, 0, 66, 62
2, 131520, Note_on_c, 0, 71, 69
2, 131640, Note_on_c, 0, 71, 0
2, 131640, Note_on_c, 0, 66, 0
2, 131760, Note_on_c, 0, 66, 57
2, 131760, Note_on_c, 0, 70, 64
2, 131760, Note_on_c, 0, 73, 64
2, 131880, Note_on_c, 0, 73, 0
2, 131880, Note_on_c, 0, 70, 0
2, 131880, Note_on_c, 0, 66, 0
2, 132000, Note_on_c, 0, 66, 60
2, 132000, Note_on_c, 0, 71, 67
2, 132000, Note_on_c, 0, 74, 67
2, 132120, Note_on_c, 0, 74, 0
2, 132120, Note_on_c, 0, 71, 0
2, 132120, Note_on_c, 0, 66, 0
2, 132480, Note_on_c, 0, 76, 64
2, 132480, Note_on_c, 0, 80, 72
2, 132600, Note_on_c, 0, 80, 0
2, 132600, Note_on_c, 0, 76, 0
2, 132720, Note_on_c, 0, 75, 59
2, 132720, Note_on_c, 0, 78, 66
2, 132840, Note_on_c, 0, 78, 0
2, 132840, Note_on_c, 0, 75, 0
2, 132960, Note_on_c, 0, 73, 63
2, 132960, Note_on_c, 0, 76, 71
2, 133080, Note_on_c, 0, 76, 0
2, 133080, Note_on_c, 0, 73, 0
2, 133200, Note_on_c, 0, 68, 60
2, 133200, Note_on_c, 0, 72, 67
2, 133200, Note_on_c, 0, 75, 67
2, 133320, Note_on_c, 0, 75, 0
2, 133320, Note_on_c, 0, 72, 0
2, 133320, Note_on_c, 0, 68, 0
2, 133440, Note_on_c, 0, 68, 62
2, 133440, Note_on_c, 0, 73, 69
2, 133560, Note_on_c, 0, 73, 0
2, 133560, Note_on_c, 0, 68, 0
2, 133680, Note_on_c, 0, 68, 57
2, 133680, Note_on_c, 0, 72, 64
2, 133680, Note_on_c, 0, 75, 64
2, 133800, Note_on_c, 0, 75, 0
2, 133800, Note_on_c, 0, 72, 0
2, 133800, Note_on_c, 0, 68, 0
2, 133920, Note_on_c, 0, 68, 60
2, 133920, Note_on_c, 0, 73, 67
2, 133920, Note_on_c, 0, 76, 67
2, 134040, Note_on_c, 0, 76, 0
2, 134040, Note_on_c, 0, 73, 0
2, 134040, Note_on_c, 0, 68, 0
2, 134400, Note_on_c, 0, 78, 54
2, 134400, Note_on_c, 0, 81, 61
2, 134640, Note_on_c, 0, 81, 0
2, 134640, Note_on_c, 0, 78, 0
2, 134640, Note_on_c, 0, 76, 49
2, 134640, Note_on_c, 0, 79, 55
2, 134880, Note_on_c, 0, 79, 0
2, 134880, Note_on_c, 0, 76, 0
2, 134880, Note_on_c, 0, 74, 54
2, 134880, Note_on_c, 0, 78, 60
2, 135120, Note_on_c, 0, 78, 0
2, 135120, Note_on_c, 0, 74, 0
2, 135120, Note_on_c, 0, 69, 50
2, 135120, Note_on_c, 0, 76, 56
2, 135360, Note_on_c, 0, 76, 0
2, 135360, Note_on_c, 0, 69, 0
2, 135360, Note_on_c, 0, 78, 54
2, 135360, Note_on_c, 0, 81, 61
2, 135600, Note_on_c, 0, 81, 0
2, 135600, Note_on_c, 0, 78, 0
2, 135600, Note_on_c, 0, 76, 49
2, 135600, Note_on_c, 0, 79, 55
2, 135840, Note_on_c, 0, 79, 0
2, 135840, Note_on_c, 0, 76, 0
2, 135840, Note_on_c, 0, 74, 54
2, 135840, Note_on_c, 0, 78, 60
2, 136080, Note_on_c, 0, 78, 0
2, 136080, Note_on_c, 0, 74, 0
2, 136080, Note_on_c, 0, 69, 52
2, 136080, Note_on_c, 0, 76, 58
2, 136320, Note_on_c, 0, 76, 0
2, 136320, Note_on_c, 0, 69, 0
2, 136320, Note_on_c, 0, 78, 55
2, 136320, Note_on_c, 0, 81, 62
2, 136560, Note_on_c, 0, 81, 0
2, 136560, Note_on_c, 0, 78, 0
2, 136560, Note_on_c, 0, 76, 51
2, 136560, Note_on_c, 0, 79, 57
2, 136800, Note_on_c, 0, 79, 0
2, 136800, Note_on_c, 0, 76, 0
2, 136800, Note_on_c, 0, 74, 56
2, 136800, Note_on_c, 0, 78, 63
2, 137040, Note_on_c, 0, 78, 0
2, 137040, Note_on_c, 0, 74, 0
2, 137040, Note_on_c, 0, 69, 53
2, 137040, Note_on_c, 0, 76, 59
2, 137280, Note_on_c, 0, 76, 0
2, 137280, Note_on_c, 0, 69, 0
2, 137280, Note_on_c, 0, 78, 56
2, 137280, Note_on_c, 0, 81, 63
2, 137520, Note_on_c, 0, 81, 0
2, 137520, Note_on_c, 0, 78, 0
2, 137520, Note_on_c, 0, 76, 53
2, 137520, Note_on_c, 0, 79, 59
2, 137760, Note_on_c, 0, 79, 0
2, 137760, Note_on_c, 0, 76, 0
2, 137760, Note_on_c, 0, 74, 56
2, 137760, Note_on_c, 0, 78, 63
2, 138000, Note_on_c, 0, 78, 0
2, 138000, Note_on_c, 0, 74, 0
2, 138000, Note_on_c, 0, 69, 54
2, 138000, Note_on_c, 0, 76, 61
2, 138240, Note_on_c, 0, 76, 0
2, 138240, Note_on_c, 0, 69, 0
2, 138240, Note_on_c, 0, 83, 62
2, 138240, Note_on_c, 0, 86, 69
2, 138480, Note_on_c, 0, 86, 0
2, 138480, Note_on_c, 0, 83, 0
2, 138480, Note_on_c, 0, 81, 56
2, 138480, Note_on_c, 0, 84, 63
2, 138720, Note_on_c, 0, 84, 0
2, 138720, Note_on_c, 0, 81, 0
2, 138720, Note_on_c, 0, 79, 61
2, 138720, Note_on_c, 0, 83, 68
2, 138960, Note_on_c, 0, 83, 0
2, 138960, Note_on_c, 0, 79, 0
2, 138960, Note_on_c, 0, 74, 56
2, 138960, Note_on_c, 0, 81, 63
2, 139200, Note_on_c, 0, 81, 0
2, 139200, Note_on_c, 0, 74, 0
2, 139200, Note_on_c, 0, 83, 63
2, 139200, Note_on_c, 0, 86, 71
2, 139440, Note_on_c, 0, 86, 0
2, 139440, Note_on_c, 0, 83, 0
2, 139440, Note_on_c, 0, 81, 57
2, 139440, Note_on_c, 0, 84, 64
2, 139680, Note_on_c, 0, 84, 0
2, 139680, Note_on_c, 0, 81, 0
2, 139680, Note_on_c, 0, 79, 62
2, 139680, Note_on_c, 0, 83, 69
2, 139920, Note_on_c, 0, 83, 0
2, 139920, Note_on_c, 0, 79, 0
2, 139920, Note_on_c, 0, 74, 59
2, 139920, Note_on_c, 0, 81, 66
2, 140160, Note_on_c, 0, 81, 0
2, 140160, Note_on_c, 0, 74, 0
2, 140160, Note_on_c, 0, 83, 64
2, 140160, Note_on_c, 0, 86, 72
2, 140400, Note_on_c, 0, 86, 0
2, 140400, Note_on_c, 0, 83, 0
2, 140400, Note_on_c, 0, 81, 58
2, 140400, Note_on_c, 0, 84, 65
2, 140640, Note_on_c, 0, 84, 0
2, 140640, Note_on_c, 0, 81, 0
2, 140640, Note_on_c, 0, 79, 63
2, 140640, Note_on_c, 0, 83, 71
2, 140880, Note_on_c, 0, 83, 0
2, 140880, Note_on_c, 0, 79, 0
2, 140880, Note_on_c, 0, 74, 61
2, 140880, Note_on_c, 0, 81, 68
2, 141120, Note_on_c, 0, 81, 0
2, 141120, Note_on_c, 0, 74, 0
2, 141120, Note_on_c, 0, 83, 65
2, 141120, Note_on_c, 0, 86, 73
2, 141360, Note_on_c, 0, 86, 0
2, 141360, Note_on_c, 0, 83, 0
2, 141360, Note_on_c, 0, 81, 61
2, 141360, Note_on_c, 0, 84, 68
2, 141600, Note_on_c, 0, 84, 0
2, 141600, Note_on_c, 0, 81, 0
2, 141600, Note_on_c, 0, 79, 64
2, 141600, Note_on_c, 0, 83, 72
2, 141840, Note_on_c, 0, 83, 0
2, 141840, Note_on_c, 0, 79, 0
2, 141840, Note_on_c, 0, 74, 70
2, 141840, Note_on_c, 0, 81, 70
2, 142080, Note_on_c, 0, 81, 0
2, 142080, Note_on_c, 0, 74, 0
2, 142080, Note_on_c, 0, 67, 82
2, 142080, Note_on_c, 0, 71, 82
2, 142080, Note_on_c, 0, 79, 92
2, 142720, Note_on_c, 0, 79, 0
2, 142720, Note_on_c, 0, 71, 0
2, 142720, Note_on_c, 0, 67, 0
2, 142720, Note_on_c, 0, 67, 77
2, 142720, Note_on_c, 0, 71, 77
2, 142720, Note_on_c, 0, 79, 86
2, 142840, Note_on_c, 0, 79, 0
2, 142840, Note_on_c, 0, 71, 0
2, 142840, Note_on_c, 0, 67, 0
2, 142880, Note_on_c, 0, 67, 77
2, 142880, Note_on_c, 0, 71, 77
2, 142880, Note_on_c, 0, 79, 86
2, 143000, Note_on_c, 0, 79, 0
2, 143000, Note_on_c, 0, 71, 0
2, 143000, Note_on_c, 0, 67, 0
2, 143040, Note_on_c, 0, 67, 83
2, 143040, Note_on_c, 0, 71, 83
2, 143040, Note_on_c, 0, 79, 93
2, 143680, Note_on_c, 0, 79, 0
2, 143680, Note_on_c, 0, 71, 0
2, 143680, Note_on_c, 0, 67, 0
2, 143680, Note_on_c, 0, 67, 77
2, 143680, Note_on_c, 0, 71, 77
2, 143680, Note_on_c, 0, 79, 86
2, 143800, Note_on_c, 0, 79, 0
2, 143800, Note_on_c, 0, 71, 0
2, 143800, Note_on_c, 0, 67, 0
2, 143840, Note_on_c, 0, 67, 76
2, 143840, Note_on_c, 0, 71, 76
2, 143840, Note_on_c, 0, 79, 85
2, 143960, Note_on_c, 0, 79, 0
2, 143960, Note_on_c, 0, 71, 0
2, 143960, Note_on_c, 0, 67, 0
2, 144000, Note_on_c, 0, 67, 82
2, 144000, Note_on_c, 0, 71, 82
2, 144000, Note_on_c, 0, 79, 92
2, 144720, Note_on_c, 0, 79, 0
2, 144720, Note_on_c, 0, 71, 0
2, 144720, Note_on_c, 0, 67, 0
2, 144720, Note_on_c, 0, 71, 73
2, 144720, Note_on_c, 0, 83, 82
2, 144720, Note_on_c, 0, 79, 82
2, 144960, Note_on_c, 0, 79, 0
2, 144960, Note_on_c, 0, 83, 0
2, 144960, Note_on_c, 0, 71, 0
2, 144960, Note_on_c, 0, 72, 78
2, 144960, Note_on_c, 0, 81, 87
2, 144960, Note_on_c, 0, 84, 87
2, 145200, Note_on_c, 0, 84, 0
2, 145200, Note_on_c, 0, 81, 0
2, 145200, Note_on_c, 0, 72, 0
2, 145200, Note_on_c, 0, 71, 76
2, 145200, Note_on_c, 0, 79, 85
2, 145200, Note_on_c, 0, 83, 85
2, 145440, Note_on_c, 0, 83, 0
2, 145440, Note_on_c, 0, 79, 0
2, 145440, Note_on_c, 0, 71, 0
2, 145440, Note_on_c, 0, 72, 78
2, 145440, Note_on_c, 0, 84, 87
2, 145440, Note_on_c, 0, 81, 87
2, 145680, Note_on_c, 0, 81, 0
2, 145680, Note_on_c, 0, 84, 0
2, 145680, Note_on_c, 0, 72, 0
2, 145680, Note_on_c, 0, 69, 72
2, 145680, Note_on_c, 0, 74, 81
2, 145680, Note_on_c, 0, 81, 81
2, 145920, Note_on_c, 0, 81, 0
2, 145920, Note_on_c, 0, 74, 0
2, 145920, Note_on_c, 0, 69, 0
2, 145920, Note_on_c, 0, 74, 90
2, 145920, Note_on_c, 0, 86, 101
2, 145920, Note_on_c, 0, 83, 101
2, 146560, Note_on_c, 0, 83, 0
2, 146560, Note_on_c, 0, 86, 0
2, 146560, Note_on_c, 0, 74, 0
2, 146560, Note_on_c, 0, 74, 84
2, 146560, Note_on_c, 0, 83, 94
2, 146560, Note_on_c, 0, 86, 94
2, 146680, Note_on_c, 0, 86, 0
2, 146680, Note_on_c, 0, 83, 0
2, 146680, Note_on_c, 0, 74, 0
2, 146720, Note_on_c, 0, 74, 84
2, 146720, Note_on_c, 0, 83, 94
2, 146720, Note_on_c, 0, 86, 94
2, 146840, Note_on_c, 0, 86, 0
2, 146840, Note_on_c, 0, 83, 0
2, 146840, Note_on_c, 0, 74, 0
2, 146880, Note_on_c, 0, 74, 91
2, 146880, Note_on_c, 0, 83, 102
2, 146880, Note_on_c, 0, 86, 102
2, 147520, Note_on_c, 0, 86, 0
2, 147520, Note_on_c, 0, 83, 0
2, 147520, Note_on_c, 0, 74, 0
2, 147520, Note_on_c, 0, 74, 84
2, 147520, Note_on_c, 0, 83, 94
2, 147520, Note_on_c, 0, 86, 94
2, 147640, Note_on_c, 0, 86, 0
2, 147640, Note_on_c, 0, 83, 0
2, 147640, Note_on_c, 0, 74, 0
2, 147680, Note_on_c, 0, 74, 83
2, 147680, Note_on_c, 0, 83, 93
2, 147680, Note_on_c, 0, 86, 93
2, 147800, Note_on_c, 0, 86, 0
2, 147800, Note_on_c, 0, 83, 0
2, 147800, Note_on_c, 0, 74, 0
2, 147840, Note_on_c, 0, 76, 83
2, 147840, Note_on_c, 0, 88, 93
2, 147840, Note_on_c, 0, 84, 93
2, 147960, Note_on_c, 0, 84, 0
2, 147960, Note_on_c, 0, 88, 0
2, 147960, Note_on_c, 0, 76, 0
2, 148080, Note_on_c, 0, 74, 77
2, 148080, Note_on_c, 0, 83, 86
2, 148080, Note_on_c, 0, 86, 86
2, 148200, Note_on_c, 0, 86, 0
2, 148200, Note_on_c, 0, 83, 0
2, 148200, Note_on_c, 0, 74, 0
2, 148320, Note_on_c, 0, 72, 81
2, 148320, Note_on_c, 0, 81, 91
2, 148320, Note_on_c, 0, 84, 91
2, 148440, Note_on_c, 0, 84, 0
2, 148440, Note_on_c, 0, 81, 0
2, 148440, Note_on_c, 0, 72, 0
2, 148560, Note_on_c, 0, 71, 76
2, 148560, Note_on_c, 0, 74, 85
2, 148560, Note_on_c, 0, 79, 85
2, 148560, Note_on_c, 0, 83, 85
2, 148680, Note_on_c, 0, 83, 0
2, 148680, Note_on_c, 0, 71, 0
2, 148680, Note_on_c, 0, 74, 0
2, 148680, Note_on_c, 0, 79, 0
2, 148800, Note_on_c, 0, 69, 84
2, 148800, Note_on_c, 0, 74, 84
2, 148800, Note_on_c, 0, 78, 94
2, 148800, Note_on_c, 0, 81, 94
2, 148920, Note_on_c, 0, 81, 0
2, 148920, Note_on_c, 0, 69, 0
2, 148920, Note_on_c, 0, 74, 0
2, 148920, Note_on_c, 0, 78, 0
2, 149040, Note_on_c, 0, 71, 80
2, 149040, Note_on_c, 0, 74, 80
2, 149040, Note_on_c, 0, 79, 89
2, 149040, Note_on_c, 0, 83, 89
2, 149160, Note_on_c, 0, 83, 0
2, 149160, Note_on_c, 0, 71, 0
2, 149160, Note_on_c, 0, 74, 0
2, 149160, Note_on_c, 0, 79, 0
2, 149280, Note_on_c, 0, 69, 77
2, 149280, Note_on_c, 0, 74, 77
2, 149280, Note_on_c, 0, 78, 94
2, 149280, Note_on_c, 0, 81, 94
2, 149400, Note_on_c, 0, 81, 0
2, 149400, Note_on_c, 0, 69, 0
2, 149400, Note_on_c, 0, 74, 0
2, 149400, Note_on_c, 0, 78, 0
2, 149760, Note_on_c, 0, 67, 82
2, 149760, Note_on_c, 0, 71, 82
2, 149760, Note_on_c, 0, 79, 92
2, 150400, Note_on_c, 0, 79, 0
2, 150400, Note_on_c, 0, 71, 0
2, 150400, Note_on_c, 0, 67, 0
2, 150400, Note_on_c, 0, 67, 77
2, 150400, Note_on_c, 0, 71, 77
2, 150400, Note_on_c, 0, 79, 86
2, 150520, Note_on_c, 0, 79, 0
2, 150520, Note_on_c, 0, 71, 0
2, 150520, Note_on_c, 0, 67, 0
2, 150560, Note_on_c, 0, 67, 77
2, 150560, Note_on_c, 0, 71, 77
2, 150560, Note_on_c, 0, 79, 86
2, 150680, Note_on_c, 0, 79, 0
2, 150680, Note_on_c, 0, 71, 0
2, 150680, Note_on_c, 0, 67, 0
2, 150720, Note_on_c, 0, 67, 83
2, 150720, Note_on_c, 0, 71, 83
2, 150720, Note_on_c, 0, 79, 93
2, 151360, Note_on_c, 0, 79, 0
2, 151360, Note_on_c, 0, 71, 0
2, 151360, Note_on_c, 0, 67, 0
2, 151360, Note_on_c, 0, 67, 77
2, 151360, Note_on_c, 0, 71, 77
2, 151360, Note_on_c, 0, 79, 86
2, 151480, Note_on_c, 0, 79, 0
2, 151480, Note_on_c, 0, 71, 0
2, 151480, Note_on_c, 0, 67, 0
2, 151520, Note_on_c, 0, 67, 76
2, 151520, Note_on_c, 0, 71, 76
2, 151520, Note_on_c, 0, 79, 85
2, 151640, Note_on_c, 0, 79, 0
2, 151640, Note_on_c, 0, 71, 0
2, 151640, Note_on_c, 0, 67, 0
2, 151680, Note_on_c, 0, 67, 82
2, 151680, Note_on_c, 0, 71, 82
2, 151680, Note_on_c, 0, 79, 92
2, 152400, Note_on_c, 0, 79, 0
2, 152400, Note_on_c, 0, 71, 0
2, 152400, Note_on_c, 0, 67, 0
2, 152400, Note_on_c, 0, 71, 73
2, 152400, Note_on_c, 0, 83, 82
2, 152400, Note_on_c, 0, 79, 82
2, 152640, Note_on_c, 0, 79, 0
2, 152640, Note_on_c, 0, 83, 0
2, 152640, Note_on_c, 0, 71, 0
2, 152640, Note_on_c, 0, 72, 78
2, 152640, Note_on_c, 0, 81, 87
2, 152640, Note_on_c, 0, 84, 87
2, 152880, Note_on_c, 0, 84, 0
2, 152880, Note_on_c, 0, 81, 0
2, 152880, Note_on_c, 0, 72, 0
2, 152880, Note_on_c, 0, 71, 76
2, 152880, Note_on_c, 0, 80, 85
2, 152880, Note_on_c, 0, 83, 85
2, 153120, Note_on_c, 0, 83, 0
2, 153120, Note_on_c, 0, 80, 0
2, 153120, Note_on_c, 0, 71, 0
2, 153120, Note_on_c, 0, 72, 78
2, 153120, Note_on_c, 0, 84, 87
2, 153120, Note_on_c, 0, 81, 87
2, 153240, Note_on_c, 0, 81, 0
2, 153240, Note_on_c, 0, 84, 0
2, 153240, Note_on_c, 0, 72, 0
2, 153360, Note_on_c, 0, 69, 72
2, 153360, Note_on_c, 0, 74, 81
2, 153360, Note_on_c, 0, 81, 81
2, 153480, Note_on_c, 0, 81, 0
2, 153480, Note_on_c, 0, 74, 0
2, 153480, Note_on_c, 0, 69, 0
2, 153600, Note_on_c, 0, 74, 82
2, 153600, Note_on_c, 0, 79, 87
2, 153600, Note_on_c, 0, 86, 96
2, 154320, Note_on_c, 0, 86, 0
2, 154320, Note_on_c, 0, 74, 0
2, 154320, Note_on_c, 0, 72, 73
2, 154320, Note_on_c, 0, 84, 82
2, 154560, Note_on_c, 0, 84, 0
2, 154560, Note_on_c, 0, 72, 0
2, 154560, Note_on_c, 0, 79, 0
2, 154560, Note_on_c, 0, 71, 78
2, 154560, Note_on_c, 0, 79, 87
2, 154560, Note_on_c, 0, 83, 87
2, 154800, Note_on_c, 0, 83, 0
2, 154800, Note_on_c, 0, 79, 0
2, 154800, Note_on_c, 0, 71, 0
2, 154800, Note_on_c, 0, 72, 76
2, 154800, Note_on_c, 0, 81, 85
2, 154800, Note_on_c, 0, 84, 85
2, 155040, Note_on_c, 0, 84, 0
2, 155040, Note_on_c, 0, 81, 0
2, 155040, Note_on_c, 0, 72, 0
2, 155040, Note_on_c, 0, 74, 78
2, 155040, Note_on_c, 0, 86, 87
2, 155040, Note_on_c, 0, 83, 87
2, 155160, Note_on_c, 0, 83, 0
2, 155160, Note_on_c, 0, 86, 0
2, 155160, Note_on_c, 0, 74, 0
2, 155280, Note_on_c, 0, 71, 72
2, 155280, Note_on_c, 0, 79, 81
2, 155280, Note_on_c, 0, 83, 81
2, 155400, Note_on_c, 0, 83, 0
2, 155400, Note_on_c, 0, 79, 0
2, 155400, Note_on_c, 0, 71, 0
2, 155520, Note_on_c, 0, 79, 82
2, 155520, Note_on_c, 0, 84, 87
2, 155520, Note_on_c, 0, 91, 96
2, 156240, Note_on_c, 0, 91, 0
2, 156240, Note_on_c, 0, 84, 0
2, 156240, Note_on_c, 0, 79, 0
2, 156240, Note_on_c, 0, 84, 69
2, 156240, Note_on_c, 0, 78, 69
2, 156240, Note_on_c, 0, 90, 77
2, 156360, Note_on_c, 0, 90, 0
2, 156360, Note_on_c, 0, 78, 0
2, 156360, Note_on_c, 0, 84, 0
2, 156480, Note_on_c, 0, 76, 74
2, 156480, Note_on_c, 0, 84, 82
2, 156480, Note_on_c, 0, 88, 82
2, 156600, Note_on_c, 0, 88, 0
2, 156600, Note_on_c, 0, 84, 0
2, 156600, Note_on_c, 0, 76, 0
2, 156720, Note_on_c, 0, 78, 72
2, 156720, Note_on_c, 0, 86, 80
2, 156720, Note_on_c, 0, 90, 80
2, 156840, Note_on_c, 0, 90, 0
2, 156840, Note_on_c, 0, 86, 0
2, 156840, Note_on_c, 0, 78, 0
2, 156960, Note_on_c, 0, 76, 74
2, 156960, Note_on_c, 0, 88, 82
2, 156960, Note_on_c, 0, 84, 82
2, 157080, Note_on_c, 0, 84, 0
2, 157080, Note_on_c, 0, 88, 0
2, 157080, Note_on_c, 0, 76, 0
2, 157200, Note_on_c, 0, 74, 68
2, 157200, Note_on_c, 0, 83, 76
2, 157200, Note_on_c, 0, 86, 76
2, 157320, Note_on_c, 0, 86, 0
2, 157320, Note_on_c, 0, 83, 0
2, 157320, Note_on_c, 0, 74, 0
2, 157440, Note_on_c, 0, 72, 73
2, 157440, Note_on_c, 0, 81, 81
2, 157440, Note_on_c, 0, 84, 81
2, 157560, Note_on_c, 0, 84, 0
2, 157560, Note_on_c, 0, 81, 0
2, 157560, Note_on_c, 0, 72, 0
2, 157680, Note_on_c, 0, 83, 74
2, 157680, Note_on_c, 0, 86, 74
2, 157680, Note_on_c, 0, 74, 66
2, 157800, Note_on_c, 0, 74, 0
2, 157800, Note_on_c, 0, 86, 0
2, 157800, Note_on_c, 0, 83, 0
2, 157920, Note_on_c, 0, 72, 71
2, 157920, Note_on_c, 0, 81, 79
2, 157920, Note_on_c, 0, 84, 79
2, 158040, Note_on_c, 0, 84, 0
2, 158040, Note_on_c, 0, 81, 0
2, 158040, Note_on_c, 0, 72, 0
2, 158160, Note_on_c, 0, 79, 72
2, 158160, Note_on_c, 0, 71, 64
2, 158160, Note_on_c, 0, 83, 72
2, 158280, Note_on_c, 0, 83, 0
2, 158280, Note_on_c, 0, 71, 0
2, 158280, Note_on_c, 0, 79, 0
2, 158400, Note_on_c, 0, 69, 69
2, 158400, Note_on_c, 0, 78, 77
2, 158400, Note_on_c, 0, 81, 77
2, 158520, Note_on_c, 0, 81, 0
2, 158520, Note_on_c, 0, 78, 0
2, 158520, Note_on_c, 0, 69, 0
2, 158640, Note_on_c, 0, 71, 66
2, 158640, Note_on_c, 0, 79, 74
2, 158640, Note_on_c, 0, 83, 74
2, 158760, Note_on_c, 0, 83, 0
2, 158760, Note_on_c, 0, 79, 0
2, 158760, Note_on_c, 0, 71, 0
2, 158880, Note_on_c, 0, 69, 69
2, 158880, Note_on_c, 0, 81, 77
2, 158880, Note_on_c, 0, 78, 77
2, 159000, Note_on_c, 0, 78, 0
2, 159000, Note_on_c, 0, 81, 0
2, 159000, Note_on_c, 0, 69, 0
2, 159120, Note_on_c, 0, 67, 65
2, 159120, Note_on_c, 0, 76, 73
2, 159120, Note_on_c, 0, 79, 73
2, 159240, Note_on_c, 0, 79, 0
2, 159240, Note_on_c, 0, 76, 0
2, 159240, Note_on_c, 0, 67, 0
2, 159360, Note_on_c, 0, 66, 73
2, 159360, Note_on_c, 0, 74, 81
2, 159360, Note_on_c, 0, 78, 81
2, 159480, Note_on_c, 0, 78, 0
2, 159480, Note_on_c, 0, 74, 0
2, 159480, Note_on_c, 0, 66, 0
2, 159600, Note_on_c, 0, 76, 74
2, 159600, Note_on_c, 0, 79, 74
2, 159600, Note_on_c, 0, 67, 66
2, 159720, Note_on_c, 0, 67, 0
2, 159720, Note_on_c, 0, 79, 0
2, 159720, Note_on_c, 0, 76, 0
2, 159840, Note_on_c, 0, 66, 71
2, 159840, Note_on_c, 0, 74, 79
2, 159840, Note_on_c, 0, 78, 79
2, 159960, Note_on_c, 0, 78, 0
2, 159960, Note_on_c, 0, 74, 0
2, 159960, Note_on_c, 0, 66, 0
2, 160080, Note_on_c, 0, 72, 72
2, 160080, Note_on_c, 0, 64, 64
2, 160080, Note_on_c, 0, 76, 72
2, 160200, Note_on_c, 0, 76, 0
2, 160200, Note_on_c, 0, 64, 0
2, 160200, Note_on_c, 0, 72, 0
2, 160320, Note_on_c, 0, 62, 65
2, 160320, Note_on_c, 0, 71, 73
2, 160320, Note_on_c, 0, 74, 73
2, 160440, Note_on_c, 0, 74, 0
2, 160440, Note_on_c, 0, 71, 0
2, 160440, Note_on_c, 0, 62, 0
2, 160560, Note_on_c, 0, 64, 62
2, 160560, Note_on_c, 0, 76, 70
2, 160560, Note_on_c, 0, 72, 70
2, 160680, Note_on_c, 0, 72, 0
2, 160680, Note_on_c, 0, 76, 0
2, 160680, Note_on_c, 0, 64, 0
2, 160800, Note_on_c, 0, 62, 65
2, 160800, Note_on_c, 0, 74, 73
2, 160800, Note_on_c, 0, 71, 73
2, 160920, Note_on_c, 0, 71, 0
2, 160920, Note_on_c, 0, 74, 0
2, 160920, Note_on_c, 0, 62, 0
2, 161040, Note_on_c, 0, 64, 61
2, 161040, Note_on_c, 0, 69, 69
2, 161040, Note_on_c, 0, 72, 69
2, 161160, Note_on_c, 0, 72, 0
2, 161160, Note_on_c, 0, 69, 0
2, 161160, Note_on_c, 0, 64, 0
2, 161280, Note_on_c, 0, 67, 65
2, 161280, Note_on_c, 0, 71, 73
2, 161920, Note_on_c, 0, 71, 0
2, 161920, Note_on_c, 0, 67, 0
2, 161920, Note_on_c, 0, 59, 61
2, 161920, Note_on_c, 0, 67, 61
2, 161920, Note_on_c, 0, 71, 68
2, 162040, Note_on_c, 0, 71, 0
2, 162040, Note_on_c, 0, 67, 0
2, 162040, Note_on_c, 0, 59, 0
2, 162080, Note_on_c, 0, 59, 61
2, 162080, Note_on_c, 0, 67, 61
2, 162080, Note_on_c, 0, 71, 68
2, 162200, Note_on_c, 0, 71, 0
2, 162200, Note_on_c, 0, 67, 0
2, 162200, Note_on_c, 0, 59, 0
2, 162240, Note_on_c, 0, 59, 62
2, 162240, Note_on_c, 0, 67, 62
2, 162240, Note_on_c, 0, 71, 70
2, 162880, Note_on_c, 0, 71, 0
2, 162880, Note_on_c, 0, 67, 0
2, 162880, Note_on_c, 0, 59, 0
2, 162880, Note_on_c, 0, 59, 61
2, 162880, Note_on_c, 0, 67, 61
2, 162880, Note_on_c, 0, 71, 68
2, 163000, Note_on_c, 0, 71, 0
2, 163000, Note_on_c, 0, 67, 0
2, 163000, Note_on_c, 0, 59, 0
2, 163040, Note_on_c, 0, 59, 60
2, 163040, Note_on_c, 0, 67, 60
2, 163040, Note_on_c, 0, 71, 68
2, 163160, Note_on_c, 0, 71, 0
2, 163160, Note_on_c, 0, 67, 0
2, 163160, Note_on_c, 0, 59, 0
2, 163200, Note_on_c, 0, 59, 61
2, 163200, Note_on_c, 0, 67, 61
2, 163200, Note_on_c, 0, 71, 69
2, 163680, Note_on_c, 0, 71, 0
2, 163680, Note_on_c, 0, 67, 0
2, 163680, Note_on_c, 0, 59, 0
2, 163920, Note_on_c, 0, 62, 58
2, 163920, Note_on_c, 0, 74, 65
2, 163920, Note_on_c, 0, 67, 65
2, 164160, Note_on_c, 0, 67, 0
2, 164160, Note_on_c, 0, 74, 0
2, 164160, Note_on_c, 0, 62, 0
2, 164160, Note_on_c, 0, 67, 62
2, 164160, Note_on_c, 0, 64, 62
2, 164160, Note_on_c, 0, 73, 69
2, 164160, Note_on_c, 0, 76, 69
2, 164400, Note_on_c, 0, 76, 0
2, 164400, Note_on_c, 0, 67, 0
2, 164400, Note_on_c, 0, 64, 0
2, 164400, Note_on_c, 0, 73, 0
2, 164400, Note_on_c, 0, 62, 60
2, 164400, Note_on_c, 0, 74, 68
2, 164640, Note_on_c, 0, 74, 0
2, 164640, Note_on_c, 0, 62, 0
2, 164640, Note_on_c, 0, 64, 62
2, 164640, Note_on_c, 0, 76, 69
2, 164640, Note_on_c, 0, 72, 69
2, 164880, Note_on_c, 0, 72, 0
2, 164880, Note_on_c, 0, 76, 0
2, 164880, Note_on_c, 0, 64, 0
2, 164880, Note_on_c, 0, 66, 57
2, 164880, Note_on_c, 0, 78, 64
2, 165120, Note_on_c, 0, 78, 0
2, 165120, Note_on_c, 0, 66, 0
2, 165120, Note_on_c, 0, 67, 62
2, 165120, Note_on_c, 0, 71, 62
2, 165120, Note_on_c, 0, 79, 69
2, 165360, Note_on_c, 0, 79, 0
2, 165360, Note_on_c, 0, 71, 0
2, 165360, Note_on_c, 0, 67, 0
2, 165760, Note_on_c, 0, 71, 67
2, 165760, Note_on_c, 0, 79, 67
2, 165760, Note_on_c, 0, 83, 74
2, 165880, Note_on_c, 0, 83, 0
2, 165880, Note_on_c, 0, 79, 0
2, 165880, Note_on_c, 0, 71, 0
2, 165920, Note_on_c, 0, 71, 67
2, 165920, Note_on_c, 0, 79, 67
2, 165920, Note_on_c, 0, 83, 74
2, 166040, Note_on_c, 0, 83, 0
2, 166040, Note_on_c, 0, 79, 0
2, 166040, Note_on_c, 0, 71, 0
2, 166080, Note_on_c, 0, 71, 68
2, 166080, Note_on_c, 0, 79, 68
2, 166080, Note_on_c, 0, 83, 77
2, 166720, Note_on_c, 0, 83, 0
2, 166720, Note_on_c, 0, 79, 0
2, 166720, Note_on_c, 0, 71, 0
2, 166720, Note_on_c, 0, 71, 67
2, 166720, Note_on_c, 0, 79, 67
2, 166720, Note_on_c, 0, 83, 74
2, 166840, Note_on_c, 0, 83, 0
2, 166840, Note_on_c, 0, 79, 0
2, 166840, Note_on_c, 0, 71, 0
2, 166880, Note_on_c, 0, 71, 66
2, 166880, Note_on_c, 0, 79, 66
2, 166880, Note_on_c, 0, 83, 74
2, 167000, Note_on_c, 0, 83, 0
2, 167000, Note_on_c, 0, 79, 0
2, 167000, Note_on_c, 0, 71, 0
2, 167040, Note_on_c, 0, 71, 67
2, 167040, Note_on_c, 0, 79, 67
2, 167040, Note_on_c, 0, 83, 75
2, 167520, Note_on_c, 0, 83, 0
2, 167520, Note_on_c, 0, 79, 0
2, 167520, Note_on_c, 0, 71, 0
2, 167760, Note_on_c, 0, 74, 72
2, 167760, Note_on_c, 0, 86, 81
2, 167760, Note_on_c, 0, 79, 81
2, 168000, Note_on_c, 0, 79, 0
2, 168000, Note_on_c, 0, 86, 0
2, 168000, Note_on_c, 0, 74, 0
2, 168000, Note_on_c, 0, 79, 78
2, 168000, Note_on_c, 0, 76, 78
2, 168000, Note_on_c, 0, 85, 85
2, 168000, Note_on_c, 0, 88, 85
2, 168240, Note_on_c, 0, 88, 0
2, 168240, Note_on_c, 0, 79, 0
2, 168240, Note_on_c, 0, 76, 0
2, 168240, Note_on_c, 0, 85, 0
2, 168240, Note_on_c, 0, 74, 75
2, 168240, Note_on_c, 0, 86, 84
2, 168480, Note_on_c, 0, 86, 0
2, 168480, Note_on_c, 0, 74, 0
2, 168480, Note_on_c, 0, 76, 78
2, 168480, Note_on_c, 0, 88, 85
2, 168480, Note_on_c, 0, 84, 85
2, 168720, Note_on_c, 0, 84, 0
2, 168720, Note_on_c, 0, 88, 0
2, 168720, Note_on_c, 0, 76, 0
2, 168720, Note_on_c, 0, 84, 71
2, 168720, Note_on_c, 0, 86, 80
2, 168720, Note_on_c, 0, 78, 71
2, 168720, Note_on_c, 0, 90, 80
2, 168960, Note_on_c, 0, 90, 0
2, 168960, Note_on_c, 0, 84, 0
2, 168960, Note_on_c, 0, 86, 0
2, 168960, Note_on_c, 0, 78, 0
2, 168960, Note_on_c, 0, 86, 78
2, 168960, Note_on_c, 0, 79, 78
2, 168960, Note_on_c, 0, 83, 78
2, 168960, Note_on_c, 0, 91, 85
2, 169200, Note_on_c, 0, 91, 0
2, 169200, Note_on_c, 0, 86, 0
2, 169200, Note_on_c, 0, 79, 0
2, 169200, Note_on_c, 0, 83, 0
2, 169440, Note_on_c, 0, 74, 74
2, 169440, Note_on_c, 0, 86, 83
2, 169560, Note_on_c, 0, 86, 0
2, 169560, Note_on_c, 0, 74, 0
2, 169600, Note_on_c, 0, 76, 74
2, 169600, Note_on_c, 0, 88, 83
2, 169720, Note_on_c, 0, 88, 0
2, 169720, Note_on_c, 0, 76, 0
2, 169760, Note_on_c, 0, 78, 75
2, 169760, Note_on_c, 0, 90, 84
2, 169880, Note_on_c, 0, 90, 0
2, 169880, Note_on_c, 0, 78, 0
2, 169920, Note_on_c, 0, 79, 77
2, 169920, Note_on_c, 0, 91, 85
2, 170160, Note_on_c, 0, 91, 0
2, 170160, Note_on_c, 0, 79, 0
2, 170400, Note_on_c, 0, 74, 74
2, 170400, Note_on_c, 0, 86, 83
2, 170520, Note_on_c, 0, 86, 0
2, 170520, Note_on_c, 0, 74, 0
2, 170560, Note_on_c, 0, 76, 74
2, 170560, Note_on_c, 0, 88, 83
2, 170680, Note_on_c, 0, 88, 0
2, 170680, Note_on_c, 0, 76, 0
2, 170720, Note_on_c, 0, 78, 75
2, 170720, Note_on_c, 0, 90, 84
2, 170840, Note_on_c, 0, 90, 0
2, 170840, Note_on_c, 0, 78, 0
2, 170880, Note_on_c, 0, 79, 77
2, 170880, Note_on_c, 0, 91, 85
2, 171120, Note_on_c, 0, 91, 0
2, 171120, Note_on_c, 0, 79, 0
2, 171360, Note_on_c, 0, 67, 71
2, 171360, Note_on_c, 0, 71, 71
2, 171360, Note_on_c, 0, 74, 71
2, 171360, Note_on_c, 0, 79, 79
2, 171600, Note_on_c, 0, 79, 0
2, 171600, Note_on_c, 0, 67, 0
2, 171600, Note_on_c, 0, 71, 0
2, 171600, Note_on_c, 0, 74, 0
2, 171840, Note_on_c, 0, 59, 79
2, 171840, Note_on_c, 0, 62, 79
2, 171840, Note_on_c, 0, 67, 88
2, 172800, Note_on_c, 0, 67, 0
2, 172800, Note_on_c, 0, 62, 0
2, 172800, Note_on_c, 0, 59, 0
2, 172800, End_track
3, 0, Start_track
3, 0, Title_t, "Piano left"
3, 0, Program_c, 0, 0
3, 0, Control_c, 0, 7, 100
3, 0, Control_c, 0, 10, 64
3, 14, Control_c, 0, 64, 127
3, 3840, Note_on_c, 0, 55, 68
3, 3840, Note_on_c, 0, 47, 61
3, 3861, Control_c, 0, 64, 0
3, 3953, Control_c, 0, 64, 127
3, 4480, Note_on_c, 0, 47, 0
3, 4480, Note_on_c, 0, 55, 0
3, 4480, Note_on_c, 0, 47, 56
3, 4480, Note_on_c, 0, 55, 63
3, 4600, Note_on_c, 0, 55, 0
3, 4600, Note_on_c, 0, 47, 0
3, 4640, Note_on_c, 0, 55, 63
3, 4640, Note_on_c, 0, 47, 56
3, 4760, Note_on_c, 0, 47, 0
3, 4760, Note_on_c, 0, 55, 0
3, 4800, Note_on_c, 0, 47, 62
3, 4800, Note_on_c, 0, 55, 69
3, 5440, Note_on_c, 0, 55, 0
3, 5440, Note_on_c, 0, 47, 0
3, 5440, Note_on_c, 0, 47, 56
3, 5440, Note_on_c, 0, 55, 63
3, 5560, Note_on_c, 0, 55, 0
3, 5560, Note_on_c, 0, 47, 0
3, 5600, Note_on_c, 0, 55, 62
3, 5600, Note_on_c, 0, 47, 55
3, 5720, Note_on_c, 0, 47, 0
3, 5720, Note_on_c, 0, 55, 0
3, 5760, Note_on_c, 0, 47, 61
3, 5760, Note_on_c, 0, 55, 68
3, 6480, Note_on_c, 0, 55, 0
3, 6480, Note_on_c, 0, 47, 0
3, 6480, Note_on_c, 0, 59, 62
3, 6480, Note_on_c, 0, 55, 55
3, 6492, Control_c, 0, 64, 0
3, 6600, Note_on_c, 0, 55, 0
3, 6600, Note_on_c, 0, 59, 0
3, 6720, Note_on_c, 0, 57, 61
3, 6720, Note_on_c, 0, 60, 68
3, 6840, Note_on_c, 0, 60, 0
3, 6840, Note_on_c, 0, 57, 0
3, 6960, Note_on_c, 0, 59, 62
3, 6960, Note_on_c, 0, 55, 55
3, 7080, Note_on_c, 0, 55, 0
3, 7080, Note_on_c, 0, 59, 0
3, 7200, Note_on_c, 0, 60, 68
3, 7200, Note_on_c, 0, 57, 61
3, 7320, Note_on_c, 0, 57, 0
3, 7320, Note_on_c, 0, 60, 0
3, 7440, Note_on_c, 0, 50, 60
3, 7440, Note_on_c, 0, 57, 67
3, 7560, Note_on_c, 0, 57, 0
3, 7560, Note_on_c, 0, 50, 0
3, 7680, Note_on_c, 0, 59, 61
3, 7680, Note_on_c, 0, 62, 68
3, 7690, Control_c, 0, 64, 0
3, 7835, Control_c, 0, 64, 127
3, 8320, Note_on_c, 0, 62, 0
3, 8320, Note_on_c, 0, 59, 0
3, 8320, Note_on_c, 0, 62, 63
3, 8320, Note_on_c, 0, 59, 56
3, 8440, Note_on_c, 0, 59, 0
3, 8440, Note_on_c, 0, 62, 0
3, 8480, Note_on_c, 0, 59, 56
3, 8480, Note_on_c, 0, 62, 63
3, 8600, Note_on_c, 0, 62, 0
3, 8600, Note_on_c, 0, 59, 0
3, 8640, Note_on_c, 0, 59, 62
3, 8640, Note_on_c, 0, 62, 69
3, 9280, Note_on_c, 0, 62, 0
3, 9280, Note_on_c, 0, 59, 0
3, 9280, Note_on_c, 0, 62, 63
3, 9280, Note_on_c, 0, 59, 56
3, 9400, Note_on_c, 0, 59, 0
3, 9400, Note_on_c, 0, 62, 0
3, 9440, Note_on_c, 0, 59, 55
3, 9440, Note_on_c, 0, 62, 62
3, 9560, Note_on_c, 0, 62, 0
3, 9560, Note_on_c, 0, 59, 0
3, 9600, Note_on_c, 0, 64, 68
3, 9600, Note_on_c, 0, 60, 61
3, 9612, Control_c, 0, 64, 0
3, 9720, Note_on_c, 0, 60, 0
3, 9720, Note_on_c, 0, 64, 0
3, 9840, Note_on_c, 0, 59, 54
3, 9840, Note_on_c, 0, 62, 61
3, 9960, Note_on_c, 0, 62, 0
3, 9960, Note_on_c, 0, 59, 0
3, 10080, Note_on_c, 0, 57, 58
3, 10080, Note_on_c, 0, 60, 65
3, 10200, Note_on_c, 0, 60, 0
3, 10200, Note_on_c, 0, 57, 0
3, 10320, Note_on_c, 0, 55, 53
3, 10320, Note_on_c, 0, 59, 59
3, 10440, Note_on_c, 0, 59, 0
3, 10440, Note_on_c, 0, 55, 0
3, 10560, Note_on_c, 0, 57, 79
3, 10560, Note_on_c, 0, 50, 71
3, 10680, Note_on_c, 0, 50, 0
3, 10680, Note_on_c, 0, 57, 0
3, 10800, Note_on_c, 0, 59, 74
3, 10800, Note_on_c, 0, 55, 66
3, 10920, Note_on_c, 0, 55, 0
3, 10920, Note_on_c, 0, 59, 0
3, 11040, Note_on_c, 0, 50, 71
3, 11040, Note_on_c, 0, 57, 79
3, 11280, Note_on_c, 0, 57, 0
3, 11280, Note_on_c, 0, 50, 0
3, 11576, Control_c, 0, 64, 127
3, 12000, Note_on_c, 0, 51, 64
3, 12000, Note_on_c, 0, 63, 72
3, 12960, Note_on_c, 0, 63, 0
3, 12960, Note_on_c, 0, 51, 0
3, 12960, Note_on_c, 0, 50, 63
3, 12960, Note_on_c, 0, 62, 70
3, 13440, Note_on_c, 0, 62, 0
3, 13440, Note_on_c, 0, 50, 0
3, 13920, Note_on_c, 0, 63, 72
3, 13920, Note_on_c, 0, 51, 64
3, 13934, Control_c, 0, 64, 0
3, 14880, Note_on_c, 0, 51, 0
3, 14880, Note_on_c, 0, 63, 0
3, 14880, Note_on_c, 0, 50, 62
3, 14880, Note_on_c, 0, 62, 69
3, 15360, Note_on_c, 0, 62, 0
3, 15360, Note_on_c, 0, 50, 0
3, 15558, Control_c, 0, 64, 127
3, 15840, Note_on_c, 0, 67, 68
3, 15840, Note_on_c, 0, 55, 61
3, 16320, Note_on_c, 0, 55, 0
3, 16320, Note_on_c, 0, 67, 0
3, 16320, Note_on_c, 0, 66, 72
3, 16320, Note_on_c, 0, 54, 64
3, 16327, Control_c, 0, 64, 0
3, 16419, Control_c, 0, 64, 127
3, 16800, Note_on_c, 0, 54, 0
3, 16800, Note_on_c, 0, 66, 0
3, 16800, Note_on_c, 0, 65, 69
3, 16800, Note_on_c, 0, 53, 62
3, 16810, Control_c, 0, 64, 0
3, 16934, Control_c, 0, 64, 127
3, 17280, Note_on_c, 0, 53, 0
3, 17280, Note_on_c, 0, 65, 0
3, 17280, Control_c, 0, 64, 0
3, 17280, Note_on_c, 0, 52, 64
3, 17280, Note_on_c, 0, 64, 72
3, 18000, Note_on_c, 0, 64, 0
3, 18000, Note_on_c, 0, 52, 0
3, 18000, Note_on_c, 0, 50, 54
3, 18000, Note_on_c, 0, 52, 54
3, 18000, Note_on_c, 0, 62, 60
3, 18120, Note_on_c, 0, 62, 0
3, 18120, Note_on_c, 0, 52, 0
3, 18120, Note_on_c, 0, 50, 0
3, 18240, Note_on_c, 0, 52, 59
3, 18240, Note_on_c, 0, 60, 66
3, 18240, Note_on_c, 0, 48, 59
3, 18360, Note_on_c, 0, 48, 0
3, 18360, Note_on_c, 0, 60, 0
3, 18360, Note_on_c, 0, 52, 0
3, 18480, Note_on_c, 0, 52, 51
3, 18480, Note_on_c, 0, 59, 57
3, 18480, Note_on_c, 0, 47, 51
3, 18600, Note_on_c, 0, 47, 0
3, 18600, Note_on_c, 0, 59, 0
3, 18600, Note_on_c, 0, 52, 0
3, 18720, Note_on_c, 0, 52, 54
3, 18720, Note_on_c, 0, 57, 60
3, 18720, Note_on_c, 0, 45, 54
3, 18840, Note_on_c, 0, 45, 0
3, 18840, Note_on_c, 0, 57, 0
3, 18840, Note_on_c, 0, 52, 0
3, 18960, Note_on_c, 0, 55, 55
3, 18960, Note_on_c, 0, 43, 49
3, 19080, Note_on_c, 0, 43, 0
3, 19080, Note_on_c, 0, 55, 0
3, 19200, Note_on_c, 0, 54, 60
3, 19200, Note_on_c, 0, 42, 54
3, 19320, Note_on_c, 0, 42, 0
3, 19320, Note_on_c, 0, 54, 0
3, 19920, Note_on_c, 0, 52, 51
3, 19920, Note_on_c, 0, 64, 57
3, 20040, Note_on_c, 0, 64, 0
3, 20040, Note_on_c, 0, 52, 0
3, 20160, Note_on_c, 0, 50, 54
3, 20160, Note_on_c, 0, 62, 60
3, 20280, Note_on_c, 0, 62, 0
3, 20280, Note_on_c, 0, 50, 0
3, 20400, Note_on_c, 0, 49, 50
3, 20400, Note_on_c, 0, 61, 56
3, 20520, Note_on_c, 0, 61, 0
3, 20520, Note_on_c, 0, 49, 0
3, 20640, Note_on_c, 0, 47, 53
3, 20640, Note_on_c, 0, 59, 59
3, 20760, Note_on_c, 0, 59, 0
3, 20760, Note_on_c, 0, 47, 0
3, 20880, Note_on_c, 0, 45, 50
3, 20880, Note_on_c, 0, 57, 56
3, 21000, Note_on_c, 0, 57, 0
3, 21000, Note_on_c, 0, 45, 0
3, 21120, Note_on_c, 0, 56, 60
3, 21120, Note_on_c, 0, 44, 54
3, 21240, Note_on_c, 0, 44, 0
3, 21240, Note_on_c, 0, 56, 0
3, 21840, Note_on_c, 0, 54, 51
3, 21840, Note_on_c, 0, 66, 57
3, 21960, Note_on_c, 0, 66, 0
3, 21960, Note_on_c, 0, 54, 0
3, 22080, Note_on_c, 0, 56, 54
3, 22080, Note_on_c, 0, 64, 60
3, 22080, Note_on_c, 0, 52, 54
3, 22200, Note_on_c, 0, 52, 0
3, 22200, Note_on_c, 0, 64, 0
3, 22200, Note_on_c, 0, 56, 0
3, 22320, Note_on_c, 0, 51, 50
3, 22320, Note_on_c, 0, 63, 56
3, 22320, Note_on_c, 0, 56, 51
3, 22440, Note_on_c, 0, 56, 0
3, 22440, Note_on_c, 0, 63, 0
3, 22440, Note_on_c, 0, 51, 0
3, 22560, Note_on_c, 0, 49, 53
3, 22560, Note_on_c, 0, 61, 59
3, 22560, Note_on_c, 0, 56, 53
3, 22680, Note_on_c, 0, 56, 0
3, 22680, Note_on_c, 0, 61, 0
3, 22680, Note_on_c, 0, 49, 0
3, 22800, Note_on_c, 0, 47, 50
3, 22800, Note_on_c, 0, 59, 56
3, 22920, Note_on_c, 0, 59, 0
3, 22920, Note_on_c, 0, 47, 0
3, 23040, Note_on_c, 0, 45, 54
3, 23040, Note_on_c, 0, 57, 60
3, 23131, Control_c, 0, 64, 127
3, 23520, Note_on_c, 0, 57, 0
3, 23520, Note_on_c, 0, 45, 0
3, 23520, Note_on_c, 0, 59, 56
3, 23520, Note_on_c, 0, 57, 56
3, 23520, Note_on_c, 0, 47, 50
3, 23530, Control_c, 0, 64, 0
3, 23703, Control_c, 0, 64, 127
3, 24000, Note_on_c, 0, 47, 0
3, 24000, Note_on_c, 0, 57, 0
3, 24000, Note_on_c, 0, 59, 0
3, 24000, Note_on_c, 0, 57, 60
3, 24000, Note_on_c, 0, 60, 60
3, 24000, Note_on_c, 0, 48, 54
3, 24008, Control_c, 0, 64, 0
3, 24137, Control_c, 0, 64, 127
3, 24494, Control_c, 0, 64, 0
3, 24606, Control_c, 0, 64, 127
3, 24720, Note_on_c, 0, 48, 0
3, 24720, Note_on_c, 0, 60, 0
3, 24720, Note_on_c, 0, 57, 0
3, 24720, Note_on_c, 0, 49, 51
3, 24720, Note_on_c, 0, 61, 57
3, 24720, Note_on_c, 0, 57, 57
3, 24960, Note_on_c, 0, 57, 0
3, 24960, Note_on_c, 0, 61, 0
3, 24960, Note_on_c, 0, 49, 0
3, 24960, Note_on_c, 0, 45, 55
3, 24960, Note_on_c, 0, 57, 62
3, 24971, Control_c, 0, 64, 0
3, 25097, Control_c, 0, 64, 127
3, 25440, Note_on_c, 0, 57, 0
3, 25440, Note_on_c, 0, 45, 0
3, 25440, Note_on_c, 0, 59, 58
3, 25440, Note_on_c, 0, 57, 58
3, 25440, Note_on_c, 0, 47, 52
3, 25450, Control_c, 0, 64, 0
3, 25577, Control_c, 0, 64, 127
3, 25920, Note_on_c, 0, 47, 0
3, 25920, Note_on_c, 0, 57, 0
3, 25920, Note_on_c, 0, 59, 0
3, 25920, Note_on_c, 0, 57, 62
3, 25920, Note_on_c, 0, 60, 62
3, 25920, Note_on_c, 0, 48, 55
3, 25928, Control_c, 0, 64, 0
3, 26011, Control_c, 0, 64, 127
3, 26406, Control_c, 0, 64, 0
3, 26503, Control_c, 0, 64, 127
3, 26640, Note_on_c, 0, 48, 0
3, 26640, Note_on_c, 0, 60, 0
3, 26640, Note_on_c, 0, 57, 0
3, 26640, Note_on_c, 0, 49, 54
3, 26640, Note_on_c, 0, 57, 60
3, 26640, Note_on_c, 0, 61, 60
3, 26880, Note_on_c, 0, 61, 0
3, 26880, Note_on_c, 0, 57, 0
3, 26880, Note_on_c, 0, 49, 0
3, 26880, Note_on_c, 0, 50, 62
3, 26880, Note_on_c, 0, 62, 69
3, 26890, Control_c, 0, 64, 0
3, 27035, Control_c, 0, 64, 127
3, 27360, Note_on_c, 0, 62, 0
3, 27360, Note_on_c, 0, 50, 0
3, 27360, Note_on_c, 0, 64, 63
3, 27360, Note_on_c, 0, 62, 63
3, 27360, Note_on_c, 0, 52, 56
3, 27366, Control_c, 0, 64, 0
3, 27501, Control_c, 0, 64, 127
3, 27840, Note_on_c, 0, 52, 0
3, 27840, Note_on_c, 0, 62, 0
3, 27840, Note_on_c, 0, 64, 0
3, 27840, Note_on_c, 0, 62, 69
3, 27840, Note_on_c, 0, 53, 62
3, 27840, Note_on_c, 0, 65, 69
3, 27844, Control_c, 0, 64, 0
3, 27981, Control_c, 0, 64, 127
3, 28330, Control_c, 0, 64, 0
3, 28504, Control_c, 0, 64, 127
3, 28560, Note_on_c, 0, 65, 0
3, 28560, Note_on_c, 0, 53, 0
3, 28560, Note_on_c, 0, 62, 0
3, 28560, Note_on_c, 0, 54, 58
3, 28560, Note_on_c, 0, 62, 65
3, 28560, Note_on_c, 0, 66, 65
3, 28800, Note_on_c, 0, 66, 0
3, 28800, Note_on_c, 0, 62, 0
3, 28800, Note_on_c, 0, 54, 0
3, 28800, Note_on_c, 0, 62, 71
3, 28800, Note_on_c, 0, 50, 63
3, 28810, Control_c, 0, 64, 0
3, 28955, Control_c, 0, 64, 127
3, 29280, Note_on_c, 0, 50, 0
3, 29280, Note_on_c, 0, 62, 0
3, 29280, Note_on_c, 0, 64, 66
3, 29280, Note_on_c, 0, 62, 66
3, 29280, Note_on_c, 0, 52, 59
3, 29291, Control_c, 0, 64, 0
3, 29407, Control_c, 0, 64, 127
3, 29760, Note_on_c, 0, 52, 0
3, 29760, Note_on_c, 0, 62, 0
3, 29760, Note_on_c, 0, 64, 0
3, 29760, Note_on_c, 0, 62, 73
3, 29760, Note_on_c, 0, 65, 73
3, 29760, Note_on_c, 0, 53, 65
3, 29764, Control_c, 0, 64, 0
3, 29944, Control_c, 0, 64, 127
3, 30248, Control_c, 0, 64, 0
3, 30353, Control_c, 0, 64, 127
3, 30480, Note_on_c, 0, 53, 0
3, 30480, Note_on_c, 0, 65, 0
3, 30480, Note_on_c, 0, 62, 0
3, 30480, Note_on_c, 0, 54, 61
3, 30480, Note_on_c, 0, 62, 68
3, 30480, Note_on_c, 0, 66, 68
3, 30720, Note_on_c, 0, 66, 0
3, 30720, Note_on_c, 0, 62, 0
3, 30720, Note_on_c, 0, 54, 0
3, 30720, Control_c, 0, 64, 0
3, 30720, Note_on_c, 0, 55, 79
3, 30882, Control_c, 0, 64, 127
3, 31200, Note_on_c, 0, 55, 0
3, 31200, Note_on_c, 0, 55, 71
3, 31200, Note_on_c, 0, 65, 79
3, 31200, Note_on_c, 0, 53, 71
3, 32160, Note_on_c, 0, 53, 0
3, 32160, Note_on_c, 0, 65, 0
3, 32160, Note_on_c, 0, 55, 0
3, 32160, Note_on_c, 0, 55, 69
3, 32160, Note_on_c, 0, 52, 69
3, 32160, Note_on_c, 0, 64, 77
3, 33120, Note_on_c, 0, 64, 0
3, 33120, Note_on_c, 0, 52, 0
3, 33120, Note_on_c, 0, 55, 0
3, 33120, Note_on_c, 0, 51, 71
3, 33120, Note_on_c, 0, 63, 79
3, 33120, Note_on_c, 0, 55, 71
3, 33135, Control_c, 0, 64, 0
3, 34080, Note_on_c, 0, 55, 0
3, 34080, Note_on_c, 0, 63, 0
3, 34080, Note_on_c, 0, 51, 0
3, 34080, Note_on_c, 0, 54, 67
3, 34080, Note_on_c, 0, 62, 75
3, 34080, Note_on_c, 0, 50, 67
3, 34560, Note_on_c, 0, 50, 0
3, 34560, Note_on_c, 0, 62, 0
3, 34560, Note_on_c, 0, 54, 0
3, 34560, Note_on_c, 0, 50, 74
3, 34560, Note_on_c, 0, 38, 66
3, 34758, Control_c, 0, 64, 127
3, 35040, Note_on_c, 0, 38, 0
3, 35040, Note_on_c, 0, 50, 0
3, 35040, Note_on_c, 0, 52, 74
3, 35040, Note_on_c, 0, 40, 66
3, 35040, Note_on_c, 0, 50, 74
3, 35520, Note_on_c, 0, 50, 0
3, 35520, Note_on_c, 0, 40, 0
3, 35520, Note_on_c, 0, 52, 0
3, 35520, Note_on_c, 0, 54, 79
3, 35520, Note_on_c, 0, 42, 71
3, 35520, Note_on_c, 0, 50, 79
3, 35524, Control_c, 0, 64, 0
3, 35573, Control_c, 0, 64, 127
3, 36000, Note_on_c, 0, 50, 0
3, 36000, Note_on_c, 0, 42, 0
3, 36000, Note_on_c, 0, 54, 0
3, 36000, Note_on_c, 0, 50, 75
3, 36000, Note_on_c, 0, 43, 67
3, 36000, Note_on_c, 0, 55, 75
3, 36007, Control_c, 0, 64, 0
3, 36127, Control_c, 0, 64, 127
3, 36480, Note_on_c, 0, 55, 0
3, 36480, Note_on_c, 0, 43, 0
3, 36480, Note_on_c, 0, 50, 0
3, 36480, Control_c, 0, 64, 0
3, 36720, Note_on_c, 0, 50, 64
3, 36720, Note_on_c, 0, 55, 72
3, 36720, Note_on_c, 0, 43, 64
3, 36840, Note_on_c, 0, 43, 0
3, 36840, Note_on_c, 0, 55, 0
3, 36840, Note_on_c, 0, 50, 0
3, 36960, Note_on_c, 0, 50, 66
3, 36960, Note_on_c, 0, 57, 74
3, 36960, Note_on_c, 0, 45, 66
3, 37080, Note_on_c, 0, 45, 0
3, 37080, Note_on_c, 0, 57, 0
3, 37080, Note_on_c, 0, 50, 0
3, 37200, Note_on_c, 0, 47, 59
3, 37200, Note_on_c, 0, 59, 66
3, 37200, Note_on_c, 0, 50, 59
3, 37320, Note_on_c, 0, 50, 0
3, 37320, Note_on_c, 0, 59, 0
3, 37320, Note_on_c, 0, 47, 0
3, 37440, Note_on_c, 0, 57, 78
3, 37440, Note_on_c, 0, 50, 70
3, 37440, Note_on_c, 0, 62, 78
3, 37440, Note_on_c, 0, 54, 70
3, 37560, Note_on_c, 0, 54, 0
3, 37560, Note_on_c, 0, 57, 0
3, 37560, Note_on_c, 0, 50, 0
3, 37560, Note_on_c, 0, 62, 0
3, 37680, Note_on_c, 0, 55, 65
3, 37680, Note_on_c, 0, 62, 73
3, 37680, Note_on_c, 0, 59, 73
3, 37800, Note_on_c, 0, 59, 0
3, 37800, Note_on_c, 0, 62, 0
3, 37800, Note_on_c, 0, 55, 0
3, 37920, Note_on_c, 0, 50, 68
3, 37920, Note_on_c, 0, 57, 76
3, 37920, Note_on_c, 0, 54, 68
3, 37920, Note_on_c, 0, 62, 76
3, 38040, Note_on_c, 0, 62, 0
3, 38040, Note_on_c, 0, 50, 0
3, 38040, Note_on_c, 0, 57, 0
3, 38040, Note_on_c, 0, 54, 0
3, 38400, Note_on_c, 0, 55, 79
3, 38400, Control_c, 0, 64, 0
3, 38562, Control_c, 0, 64, 127
3, 38880, Note_on_c, 0, 55, 0
3, 38880, Note_on_c, 0, 65, 79
3, 38880, Note_on_c, 0, 53, 71
3, 38880, Note_on_c, 0, 55, 71
3, 39840, Note_on_c, 0, 55, 0
3, 39840, Note_on_c, 0, 53, 0
3, 39840, Note_on_c, 0, 65, 0
3, 39840, Note_on_c, 0, 52, 69
3, 39840, Note_on_c, 0, 64, 77
3, 39840, Note_on_c, 0, 55, 69
3, 40800, Note_on_c, 0, 55, 0
3, 40800, Note_on_c, 0, 64, 0
3, 40800, Note_on_c, 0, 52, 0
3, 40800, Note_on_c, 0, 51, 71
3, 40800, Note_on_c, 0, 63, 79
3, 40800, Note_on_c, 0, 55, 71
3, 41280, Note_on_c, 0, 55, 0
3, 41280, Note_on_c, 0, 63, 0
3, 41280, Note_on_c, 0, 51, 0
3, 41280, Note_on_c, 0, 54, 67
3, 41280, Note_on_c, 0, 62, 75
3, 41280, Note_on_c, 0, 50, 67
3, 41289, Control_c, 0, 64, 0
3, 41429, Control_c, 0, 64, 127
3, 41908, Control_c, 0, 64, 0
3, 42000, Note_on_c, 0, 50, 0
3, 42000, Note_on_c, 0, 62, 0
3, 42000, Note_on_c, 0, 54, 0
3, 42000, Note_on_c, 0, 48, 61
3, 42000, Note_on_c, 0, 54, 61
3, 42000, Note_on_c, 0, 60, 68
3, 42120, Note_on_c, 0, 60, 0
3, 42120, Note_on_c, 0, 54, 0
3, 42120, Note_on_c, 0, 48, 0
3, 42240, Note_on_c, 0, 47, 64
3, 42240, Note_on_c, 0, 55, 72
3, 42240, Note_on_c, 0, 59, 72
3, 42240, Note_on_c, 0, 50, 64
3, 42480, Note_on_c, 0, 50, 0
3, 42480, Note_on_c, 0, 47, 0
3, 42480, Note_on_c, 0, 55, 0
3, 42480, Note_on_c, 0, 59, 0
3, 42480, Note_on_c, 0, 48, 60
3, 42480, Note_on_c, 0, 60, 67
3, 42720, Note_on_c, 0, 60, 0
3, 42720, Note_on_c, 0, 48, 0
3, 42720, Note_on_c, 0, 59, 72
3, 42720, Note_on_c, 0, 47, 64
3, 42960, Note_on_c, 0, 47, 0
3, 42960, Note_on_c, 0, 59, 0
3, 42960, Note_on_c, 0, 45, 60
3, 42960, Note_on_c, 0, 57, 67
3, 43200, Note_on_c, 0, 57, 0
3, 43200, Note_on_c, 0, 45, 0
3, 43200, Note_on_c, 0, 43, 63
3, 43200, Note_on_c, 0, 55, 71
3, 43200, Note_on_c, 0, 50, 71
3, 43223, Control_c, 0, 64, 127
3, 43863, Control_c, 0, 64, 0
3, 43920, Note_on_c, 0, 55, 0
3, 43920, Note_on_c, 0, 43, 0
3, 43920, Note_on_c, 0, 53, 67
3, 43920, Note_on_c, 0, 41, 60
3, 44040, Note_on_c, 0, 41, 0
3, 44040, Note_on_c, 0, 53, 0
3, 44160, Note_on_c, 0, 50, 0
3, 44160, Note_on_c, 0, 40, 64
3, 44160, Note_on_c, 0, 52, 72
3, 44280, Note_on_c, 0, 52, 0
3, 44280, Note_on_c, 0, 40, 0
3, 44400, Note_on_c, 0, 54, 67
3, 44400, Note_on_c, 0, 42, 60
3, 44520, Note_on_c, 0, 42, 0
3, 44520, Note_on_c, 0, 54, 0
3, 44640, Note_on_c, 0, 40, 64
3, 44640, Note_on_c, 0, 52, 72
3, 44760, Note_on_c, 0, 52, 0
3, 44760, Note_on_c, 0, 40, 0
3, 44880, Note_on_c, 0, 38, 63
3, 44880, Note_on_c, 0, 50, 70
3, 45000, Note_on_c, 0, 50, 0
3, 45000, Note_on_c, 0, 38, 0
3, 45120, Note_on_c, 0, 48, 74
3, 45120, Note_on_c, 0, 36, 66
3, 45840, Note_on_c, 0, 36, 0
3, 45840, Note_on_c, 0, 48, 0
3, 45840, Note_on_c, 0, 38, 65
3, 45840, Note_on_c, 0, 50, 65
3, 45960, Note_on_c, 0, 50, 0
3, 45960, Note_on_c, 0, 38, 0
3, 46080, Note_on_c, 0, 39, 70
3, 46080, Note_on_c, 0, 51, 70
3, 46800, Note_on_c, 0, 51, 0
3, 46800, Note_on_c, 0, 39, 0
3, 46800, Note_on_c, 0, 40, 64
3, 46800, Note_on_c, 0, 52, 64
3, 46920, Note_on_c, 0, 52, 0
3, 46920, Note_on_c, 0, 40, 0
3, 47040, Note_on_c, 0, 42, 71
3, 47040, Note_on_c, 0, 54, 71
3, 47760, Note_on_c, 0, 54, 0
3, 47760, Note_on_c, 0, 42, 0
3, 47760, Note_on_c, 0, 55, 65
3, 47760, Note_on_c, 0, 43, 65
3, 47880, Note_on_c, 0, 43, 0
3, 47880, Note_on_c, 0, 55, 0
3, 48000, Note_on_c, 0, 45, 70
3, 48000, Note_on_c, 0, 57, 70
3, 48720, Note_on_c, 0, 57, 0
3, 48720, Note_on_c, 0, 45, 0
3, 48720, Note_on_c, 0, 46, 64
3, 48720, Note_on_c, 0, 58, 64
3, 48840, Note_on_c, 0, 58, 0
3, 48840, Note_on_c, 0, 46, 0
3, 48960, Note_on_c, 0, 47, 67
3, 48960, Note_on_c, 0, 59, 67
3, 49680, Note_on_c, 0, 59, 0
3, 49680, Note_on_c, 0, 47, 0
3, 49680, Note_on_c, 0, 48, 60
3, 49680, Note_on_c, 0, 60, 60
3, 49800, Note_on_c, 0, 60, 0
3, 49800, Note_on_c, 0, 48, 0
3, 49920, Note_on_c, 0, 62, 63
3, 49920, Note_on_c, 0, 50, 63
3, 49926, Control_c, 0, 64, 0
3, 49984, Control_c, 0, 64, 127
3, 50400, Note_on_c, 0, 50, 0
3, 50400, Note_on_c, 0, 62, 0
3, 50400, Note_on_c, 0, 63, 63
3, 50400, Note_on_c, 0, 51, 56
3, 50407, Control_c, 0, 64, 0
3, 50506, Control_c, 0, 64, 127
3, 50880, Note_on_c, 0, 51, 0
3, 50880, Note_on_c, 0, 63, 0
3, 50880, Note_on_c, 0, 50, 63
3, 50880, Note_on_c, 0, 62, 63
3, 50892, Control_c, 0, 64, 0
3, 50972, Control_c, 0, 64, 127
3, 51360, Note_on_c, 0, 62, 0
3, 51360, Note_on_c, 0, 50, 0
3, 51360, Note_on_c, 0, 51, 55
3, 51360, Note_on_c, 0, 63, 61
3, 51372, Control_c, 0, 64, 0
3, 51515, Control_c, 0, 64, 127
3, 51840, Note_on_c, 0, 63, 0
3, 51840, Note_on_c, 0, 51, 0
3, 51840, Note_on_c, 0, 62, 63
3, 51840, Note_on_c, 0, 50, 63
3, 51847, Control_c, 0, 64, 0
3, 51960, Control_c, 0, 64, 127
3, 52320, Note_on_c, 0, 50, 0
3, 52320, Note_on_c, 0, 62, 0
3, 52320, Note_on_c, 0, 47, 56
3, 52320, Note_on_c, 0, 59, 63
3, 52623, Control_c, 0, 64, 0
3, 52800, Note_on_c, 0, 59, 0
3, 52800, Note_on_c, 0, 47, 0
3, 52800, Note_on_c, 0, 46, 53
3, 52800, Note_on_c, 0, 58, 60
3, 53280, Note_on_c, 0, 58, 0
3, 53280, Note_on_c, 0, 46, 0
3, 53280, Note_on_c, 0, 45, 48
3, 53280, Note_on_c, 0, 57, 54
3, 53760, Note_on_c, 0, 57, 0
3, 53760, Note_on_c, 0, 45, 0
3, 53760, Control_c, 0, 64, 0
3, 53760, Note_on_c, 0, 43, 54
3, 53760, Note_on_c, 0, 55, 60
3, 54000, Note_on_c, 0, 55, 0
3, 54000, Note_on_c, 0, 43, 0
3, 54240, Note_on_c, 0, 51, 58
3, 54240, Note_on_c, 0, 63, 66
3, 54240, Control_c, 0, 64, 127
3, 54720, Note_on_c, 0, 63, 0
3, 54720, Note_on_c, 0, 51, 0
3, 54720, Note_on_c, 0, 62, 66
3, 54720, Note_on_c, 0, 50, 66
3, 54728, Control_c, 0, 64, 0
3, 54847, Control_c, 0, 64, 127
3, 55200, Note_on_c, 0, 50, 0
3, 55200, Note_on_c, 0, 62, 0
3, 55200, Note_on_c, 0, 51, 57
3, 55200, Note_on_c, 0, 63, 64
3, 55211, Control_c, 0, 64, 0
3, 55320, Control_c, 0, 64, 127
3, 55680, Note_on_c, 0, 63, 0
3, 55680, Note_on_c, 0, 51, 0
3, 55680, Note_on_c, 0, 62, 66
3, 55680, Note_on_c, 0, 50, 66
3, 55690, Control_c, 0, 64, 0
3, 55765, Control_c, 0, 64, 127
3, 56160, Note_on_c, 0, 50, 0
3, 56160, Note_on_c, 0, 62, 0
3, 56160, Note_on_c, 0, 47, 58
3, 56160, Note_on_c, 0, 59, 66
3, 56360, Control_c, 0, 64, 0
3, 56640, Note_on_c, 0, 59, 0
3, 56640, Note_on_c, 0, 47, 0
3, 56640, Note_on_c, 0, 46, 55
3, 56640, Note_on_c, 0, 58, 63
3, 57120, Note_on_c, 0, 58, 0
3, 57120, Note_on_c, 0, 46, 0
3, 57120, Note_on_c, 0, 45, 50
3, 57120, Note_on_c, 0, 57, 56
3, 57600, Note_on_c, 0, 57, 0
3, 57600, Note_on_c, 0, 45, 0
3, 57600, Note_on_c, 0, 43, 56
3, 57600, Note_on_c, 0, 55, 63
3, 57840, Note_on_c, 0, 55, 0
3, 57840, Note_on_c, 0, 43, 0
3, 58080, Note_on_c, 0, 47, 53
3, 58080, Note_on_c, 0, 54, 53
3, 58080, Note_on_c, 0, 62, 59
3, 58080, Note_on_c, 0, 50, 53
3, 58560, Note_on_c, 0, 50, 0
3, 58560, Note_on_c, 0, 47, 0
3, 58560, Note_on_c, 0, 54, 0
3, 58560, Note_on_c, 0, 62, 0
3, 58560, Note_on_c, 0, 55, 56
3, 58560, Note_on_c, 0, 62, 63
3, 58560, Note_on_c, 0, 59, 56
3, 58680, Note_on_c, 0, 59, 0
3, 58680, Note_on_c, 0, 62, 0
3, 58680, Note_on_c, 0, 55, 0
3, 59040, Note_on_c, 0, 50, 53
3, 59040, Note_on_c, 0, 54, 53
3, 59040, Note_on_c, 0, 62, 59
3, 59040, Note_on_c, 0, 47, 53
3, 59520, Note_on_c, 0, 47, 0
3, 59520, Note_on_c, 0, 50, 0
3, 59520, Note_on_c, 0, 54, 0
3, 59520, Note_on_c, 0, 62, 0
3, 59520, Note_on_c, 0, 59, 56
3, 59520, Note_on_c, 0, 62, 63
3, 59520, Note_on_c, 0, 55, 56
3, 59640, Note_on_c, 0, 55, 0
3, 59640, Note_on_c, 0, 62, 0
3, 59640, Note_on_c, 0, 59, 0
3, 60000, Note_on_c, 0, 47, 53
3, 60000, Note_on_c, 0, 54, 53
3, 60000, Note_on_c, 0, 62, 59
3, 60000, Note_on_c, 0, 50, 53
3, 60480, Note_on_c, 0, 50, 0
3, 60480, Note_on_c, 0, 47, 0
3, 60480, Note_on_c, 0, 54, 0
3, 60480, Note_on_c, 0, 62, 0
3, 60480, Note_on_c, 0, 55, 56
3, 60480, Note_on_c, 0, 59, 56
3, 60480, Note_on_c, 0, 62, 63
3, 60720, Note_on_c, 0, 62, 0
3, 60720, Note_on_c, 0, 59, 0
3, 60720, Note_on_c, 0, 55, 0
3, 60960, Note_on_c, 0, 59, 35
3, 60960, Note_on_c, 0, 62, 39
3, 61200, Note_on_c, 0, 62, 0
3, 61200, Note_on_c, 0, 59, 0
3, 61458, Control_c, 0, 64, 127
3, 61920, Note_on_c, 0, 59, 31
3, 61920, Note_on_c, 0, 63, 35
3, 61920, Note_on_c, 0, 57, 31
3, 62160, Note_on_c, 0, 57, 0
3, 62160, Note_on_c, 0, 63, 0
3, 62160, Note_on_c, 0, 59, 0
3, 62414, Control_c, 0, 64, 0
3, 62880, Note_on_c, 0, 60, 31
3, 62880, Note_on_c, 0, 64, 35
3, 62880, Note_on_c, 0, 55, 31
3, 63120, Note_on_c, 0, 55, 0
3, 63120, Note_on_c, 0, 64, 0
3, 63120, Note_on_c, 0, 60, 0
3, 63388, Control_c, 0, 64, 127
3, 63840, Note_on_c, 0, 64, 34
3, 63840, Note_on_c, 0, 60, 30
3, 63840, Note_on_c, 0, 54, 30
3, 63840, Note_on_c, 0, 57, 30
3, 64080, Note_on_c, 0, 57, 0
3, 64080, Note_on_c, 0, 64, 0
3, 64080, Note_on_c, 0, 60, 0
3, 64080, Note_on_c, 0, 54, 0
3, 64207, Control_c, 0, 64, 0
3, 64800, Note_on_c, 0, 59, 35
3, 64800, Note_on_c, 0, 63, 39
3, 65040, Note_on_c, 0, 63, 0
3, 65040, Note_on_c, 0, 59, 0
3, 65298, Control_c, 0, 64, 127
3, 65760, Note_on_c, 0, 45, 28
3, 65760, Note_on_c, 0, 57, 32
3, 65760, Note_on_c, 0, 47, 28
3, 66000, Note_on_c, 0, 47, 0
3, 66000, Note_on_c, 0, 57, 0
3, 66000, Note_on_c, 0, 45, 0
3, 66191, Control_c, 0, 64, 0
3, 66720, Note_on_c, 0, 48, 27
3, 66720, Note_on_c, 0, 55, 31
3, 66720, Note_on_c, 0, 43, 27
3, 66960, Note_on_c, 0, 43, 0
3, 66960, Note_on_c, 0, 55, 0
3, 66960, Note_on_c, 0, 48, 0
3, 67228, Control_c, 0, 64, 127
3, 67680, Note_on_c, 0, 54, 33
3, 67680, Note_on_c, 0, 48, 29
3, 67680, Note_on_c, 0, 42, 29
3, 67920, Note_on_c, 0, 42, 0
3, 67920, Note_on_c, 0, 48, 0
3, 67920, Note_on_c, 0, 54, 0
3, 68047, Control_c, 0, 64, 0
3, 68640, Note_on_c, 0, 54, 31
3, 68640, Note_on_c, 0, 59, 35
3, 68640, Note_on_c, 0, 47, 31
3, 68880, Note_on_c, 0, 47, 0
3, 68880, Note_on_c, 0, 59, 0
3, 68880, Note_on_c, 0, 54, 0
3, 69138, Control_c, 0, 64, 127
3, 69600, Note_on_c, 0, 57, 31
3, 69600, Note_on_c, 0, 59, 31
3, 69600, Note_on_c, 0, 63, 35
3, 69840, Note_on_c, 0, 63, 0
3, 69840, Note_on_c, 0, 59, 0
3, 69840, Note_on_c, 0, 57, 0
3, 69995, Control_c, 0, 64, 0
3, 70560, Note_on_c, 0, 55, 31
3, 70560, Note_on_c, 0, 64, 35
3, 70560, Note_on_c, 0, 60, 31
3, 70800, Note_on_c, 0, 60, 0
3, 70800, Note_on_c, 0, 64, 0
3, 70800, Note_on_c, 0, 55, 0
3, 71068, Control_c, 0, 64, 127
3, 71520, Note_on_c, 0, 60, 30
3, 71520, Note_on_c, 0, 57, 30
3, 71520, Note_on_c, 0, 54, 30
3, 71520, Note_on_c, 0, 64, 34
3, 71760, Note_on_c, 0, 64, 0
3, 71760, Note_on_c, 0, 60, 0
3, 71760, Note_on_c, 0, 57, 0
3, 71760, Note_on_c, 0, 54, 0
3, 71887, Control_c, 0, 64, 0
3, 72480, Note_on_c, 0, 63, 39
3, 72480, Note_on_c, 0, 59, 35
3, 72720, Note_on_c, 0, 59, 0
3, 72720, Note_on_c, 0, 63, 0
3, 72978, Control_c, 0, 64, 127
3, 73440, Note_on_c, 0, 45, 28
3, 73440, Note_on_c, 0, 47, 28
3, 73440, Note_on_c, 0, 57, 32
3, 73680, Note_on_c, 0, 57, 0
3, 73680, Note_on_c, 0, 47, 0
3, 73680, Note_on_c, 0, 45, 0
3, 73878, Control_c, 0, 64, 0
3, 74400, Note_on_c, 0, 43, 27
3, 74400, Note_on_c, 0, 55, 31
3, 74400, Note_on_c, 0, 48, 27
3, 74640, Note_on_c, 0, 48, 0
3, 74640, Note_on_c, 0, 55, 0
3, 74640, Note_on_c, 0, 43, 0
3, 74908, Control_c, 0, 64, 127
3, 75360, Note_on_c, 0, 54, 33
3, 75360, Note_on_c, 0, 42, 29
3, 75360, Note_on_c, 0, 48, 29
3, 75600, Note_on_c, 0, 48, 0
3, 75600, Note_on_c, 0, 42, 0
3, 75600, Note_on_c, 0, 54, 0
3, 75727, Control_c, 0, 64, 0
3, 76320, Note_on_c, 0, 54, 33
3, 76320, Note_on_c, 0, 59, 37
3, 76320, Note_on_c, 0, 47, 33
3, 76560, Note_on_c, 0, 47, 0
3, 76560, Note_on_c, 0, 59, 0
3, 76560, Note_on_c, 0, 54, 0
3, 76818, Control_c, 0, 64, 127
3, 77280, Note_on_c, 0, 45, 36
3, 77280, Note_on_c, 0, 54, 41
3, 77280, Note_on_c, 0, 57, 41
3, 77594, Control_c, 0, 64, 0
3, 77760, Note_on_c, 0, 57, 0
3, 77760, Note_on_c, 0, 54, 0
3, 77760, Note_on_c, 0, 45, 0
3, 77760, Note_on_c, 0, 44, 44
3, 77760, Note_on_c, 0, 56, 49
3, 78000, Note_on_c, 0, 56, 0
3, 78000, Note_on_c, 0, 44, 0
3, 78240, Note_on_c, 0, 44, 57
3, 78320, Note_on_c, 0, 44, 0
3, 78400, Note_on_c, 0, 43, 52
3, 78480, Note_on_c, 0, 43, 0
3, 78560, Note_on_c, 0, 44, 52
3, 78640, Note_on_c, 0, 44, 0
3, 78720, Note_on_c, 0, 46, 59
3, 78800, Note_on_c, 0, 46, 0
3, 78880, Note_on_c, 0, 44, 53
3, 78960, Note_on_c, 0, 44, 0
3, 79040, Note_on_c, 0, 46, 53
3, 79120, Note_on_c, 0, 46, 0
3, 79200, Note_on_c, 0, 48, 59
3, 79280, Note_on_c, 0, 48, 0
3, 79360, Note_on_c, 0, 46, 55
3, 79440, Note_on_c, 0, 46, 0
3, 79520, Note_on_c, 0, 48, 55
3, 79600, Note_on_c, 0, 48, 0
3, 79680, Note_on_c, 0, 49, 60
3, 79920, Note_on_c, 0, 49, 0
3, 80160, Note_on_c, 0, 56, 39
3, 80160, Note_on_c, 0, 61, 44
3, 80160, Note_on_c, 0, 49, 39
3, 80400, Note_on_c, 0, 49, 0
3, 80400, Note_on_c, 0, 61, 0
3, 80400, Note_on_c, 0, 56, 0
3, 80771, Control_c, 0, 64, 127
3, 81120, Note_on_c, 0, 56, 48
3, 81120, Note_on_c, 0, 59, 48
3, 81120, Note_on_c, 0, 47, 43
3, 81600, Note_on_c, 0, 47, 0
3, 81600, Note_on_c, 0, 59, 0
3, 81600, Note_on_c, 0, 56, 0
3, 81600, Note_on_c, 0, 46, 45
3, 81600, Note_on_c, 0, 58, 51
3, 81602, Control_c, 0, 64, 0
3, 81840, Note_on_c, 0, 58, 0
3, 81840, Note_on_c, 0, 46, 0
3, 82080, Note_on_c, 0, 46, 61
3, 82160, Note_on_c, 0, 46, 0
3, 82240, Note_on_c, 0, 45, 56
3, 82320, Note_on_c, 0, 45, 0
3, 82400, Note_on_c, 0, 46, 56
3, 82480, Note_on_c, 0, 46, 0
3, 82560, Note_on_c, 0, 48, 64
3, 82640, Note_on_c, 0, 48, 0
3, 82720, Note_on_c, 0, 46, 57
3, 82800, Note_on_c, 0, 46, 0
3, 82880, Note_on_c, 0, 48, 57
3, 82960, Note_on_c, 0, 48, 0
3, 83040, Note_on_c, 0, 50, 64
3, 83120, Note_on_c, 0, 50, 0
3, 83200, Note_on_c, 0, 49, 59
3, 83280, Note_on_c, 0, 49, 0
3, 83360, Note_on_c, 0, 50, 59
3, 83440, Note_on_c, 0, 50, 0
3, 83520, Note_on_c, 0, 51, 66
3, 83760, Note_on_c, 0, 51, 0
3, 84000, Note_on_c, 0, 58, 37
3, 84000, Note_on_c, 0, 56, 37
3, 84000, Note_on_c, 0, 68, 41
3, 84240, Note_on_c, 0, 68, 0
3, 84240, Note_on_c, 0, 56, 0
3, 84240, Note_on_c, 0, 58, 0
3, 84480, Note_on_c, 0, 58, 39
3, 84480, Note_on_c, 0, 54, 39
3, 84480, Note_on_c, 0, 66, 44
3, 84720, Note_on_c, 0, 66, 0
3, 84720, Note_on_c, 0, 54, 0
3, 84720, Note_on_c, 0, 58, 0
3, 84960, Note_on_c, 0, 62, 40
3, 84960, Note_on_c, 0, 58, 40
3, 84960, Note_on_c, 0, 50, 36
3, 85200, Note_on_c, 0, 50, 0
3, 85200, Note_on_c, 0, 58, 0
3, 85200, Note_on_c, 0, 62, 0
3, 85440, Note_on_c, 0, 51, 39
3, 85440, Note_on_c, 0, 63, 44
3, 85440, Note_on_c, 0, 58, 39
3, 85680, Note_on_c, 0, 58, 0
3, 85680, Note_on_c, 0, 63, 0
3, 85680, Note_on_c, 0, 51, 0
3, 85920, Note_on_c, 0, 53, 36
3, 85920, Note_on_c, 0, 65, 40
3, 85920, Note_on_c, 0, 58, 36
3, 86160, Note_on_c, 0, 58, 0
3, 86160, Note_on_c, 0, 65, 0
3, 86160, Note_on_c, 0, 53, 0
3, 86400, Note_on_c, 0, 66, 44
3, 86400, Note_on_c, 0, 54, 39
3, 86400, Note_on_c, 0, 58, 39
3, 86640, Note_on_c, 0, 58, 0
3, 86640, Note_on_c, 0, 54, 0
3, 86640, Note_on_c, 0, 66, 0
3, 86880, Note_on_c, 0, 68, 39
3, 86880, Note_on_c, 0, 56, 35
3, 86880, Note_on_c, 0, 58, 35
3, 87120, Note_on_c, 0, 58, 0
3, 87120, Note_on_c, 0, 56, 0
3, 87120, Note_on_c, 0, 68, 0
3, 87360, Note_on_c, 0, 66, 44
3, 87360, Note_on_c, 0, 58, 39
3, 87360, Note_on_c, 0, 54, 39
3, 87600, Note_on_c, 0, 54, 0
3, 87600, Note_on_c, 0, 58, 0
3, 87600, Note_on_c, 0, 66, 0
3, 87840, Note_on_c, 0, 58, 70
3, 87851, Control_c, 0, 64, 127
3, 88000, Note_on_c, 0, 58, 0
3, 88000, Note_on_c, 0, 58, 67
3, 88160, Note_on_c, 0, 58, 0
3, 88160, Note_on_c, 0, 58, 66
3, 88320, Note_on_c, 0, 58, 0
3, 88320, Note_on_c, 0, 63, 72
3, 88320, Note_on_c, 0, 54, 72
3, 88800, Note_on_c, 0, 54, 0
3, 88800, Note_on_c, 0, 63, 0
3, 88800, Note_on_c, 0, 65, 68
3, 88800, Note_on_c, 0, 58, 68
3, 88806, Control_c, 0, 64, 0
3, 88869, Control_c, 0, 64, 127
3, 89280, Note_on_c, 0, 58, 0
3, 89280, Note_on_c, 0, 65, 0
3, 89280, Note_on_c, 0, 66, 71
3, 89280, Note_on_c, 0, 63, 71
3, 89300, Control_c, 0, 64, 0
3, 89366, Control_c, 0, 64, 127
3, 89760, Note_on_c, 0, 63, 0
3, 89760, Note_on_c, 0, 66, 0
3, 89760, Note_on_c, 0, 58, 73
3, 89772, Control_c, 0, 64, 0
3, 89817, Control_c, 0, 64, 127
3, 89920, Note_on_c, 0, 58, 0
3, 89920, Note_on_c, 0, 58, 70
3, 90080, Note_on_c, 0, 58, 0
3, 90080, Note_on_c, 0, 58, 70
3, 90240, Note_on_c, 0, 58, 0
3, 90240, Note_on_c, 0, 54, 72
3, 90240, Note_on_c, 0, 63, 72
3, 90720, Note_on_c, 0, 63, 0
3, 90720, Note_on_c, 0, 54, 0
3, 90720, Note_on_c, 0, 58, 68
3, 90720, Note_on_c, 0, 65, 68
3, 90727, Control_c, 0, 64, 0
3, 90789, Control_c, 0, 64, 127
3, 91200, Note_on_c, 0, 65, 0
3, 91200, Note_on_c, 0, 58, 0
3, 91200, Note_on_c, 0, 63, 71
3, 91200, Note_on_c, 0, 66, 71
3, 91214, Control_c, 0, 64, 0
3, 91286, Control_c, 0, 64, 127
3, 91680, Note_on_c, 0, 66, 0
3, 91680, Note_on_c, 0, 63, 0
3, 91680, Note_on_c, 0, 69, 41
3, 91680, Note_on_c, 0, 59, 37
3, 91680, Note_on_c, 0, 57, 37
3, 91681, Control_c, 0, 64, 0
3, 91920, Note_on_c, 0, 57, 0
3, 91920, Note_on_c, 0, 59, 0
3, 91920, Note_on_c, 0, 69, 0
3, 92160, Note_on_c, 0, 67, 44
3, 92160, Note_on_c, 0, 59, 39
3, 92160, Note_on_c, 0, 55, 39
3, 92400, Note_on_c, 0, 55, 0
3, 92400, Note_on_c, 0, 59, 0
3, 92400, Note_on_c, 0, 67, 0
3, 92640, Note_on_c, 0, 63, 40
3, 92640, Note_on_c, 0, 59, 40
3, 92640, Note_on_c, 0, 51, 36
3, 92880, Note_on_c, 0, 51, 0
3, 92880, Note_on_c, 0, 59, 0
3, 92880, Note_on_c, 0, 63, 0
3, 93120, Note_on_c, 0, 59, 39
3, 93120, Note_on_c, 0, 64, 44
3, 93120, Note_on_c, 0, 52, 39
3, 93360, Note_on_c, 0, 52, 0
3, 93360, Note_on_c, 0, 64, 0
3, 93360, Note_on_c, 0, 59, 0
3, 93600, Note_on_c, 0, 59, 36
3, 93600, Note_on_c, 0, 66, 40
3, 93600, Note_on_c, 0, 54, 36
3, 93840, Note_on_c, 0, 54, 0
3, 93840, Note_on_c, 0, 66, 0
3, 93840, Note_on_c, 0, 59, 0
3, 94080, Note_on_c, 0, 59, 39
3, 94080, Note_on_c, 0, 55, 39
3, 94080, Note_on_c, 0, 67, 44
3, 94320, Note_on_c, 0, 67, 0
3, 94320, Note_on_c, 0, 55, 0
3, 94320, Note_on_c, 0, 59, 0
3, 94560, Note_on_c, 0, 59, 35
3, 94560, Note_on_c, 0, 57, 35
3, 94560, Note_on_c, 0, 69, 39
3, 94800, Note_on_c, 0, 69, 0
3, 94800, Note_on_c, 0, 57, 0
3, 94800, Note_on_c, 0, 59, 0
3, 95040, Note_on_c, 0, 67, 44
3, 95040, Note_on_c, 0, 55, 39
3, 95040, Note_on_c, 0, 59, 39
3, 95280, Note_on_c, 0, 59, 0
3, 95280, Note_on_c, 0, 55, 0
3, 95280, Note_on_c, 0, 67, 0
3, 95520, Note_on_c, 0, 59, 70
3, 95531, Control_c, 0, 64, 127
3, 95680, Note_on_c, 0, 59, 0
3, 95680, Note_on_c, 0, 59, 67
3, 95840, Note_on_c, 0, 59, 0
3, 95840, Note_on_c, 0, 59, 66
3, 96000, Note_on_c, 0, 59, 0
3, 96000, Note_on_c, 0, 55, 72
3, 96000, Note_on_c, 0, 64, 72
3, 96480, Note_on_c, 0, 64, 0
3, 96480, Note_on_c, 0, 55, 0
3, 96480, Note_on_c, 0, 59, 68
3, 96480, Note_on_c, 0, 66, 68
3, 96490, Control_c, 0, 64, 0
3, 96549, Control_c, 0, 64, 127
3, 96960, Note_on_c, 0, 66, 0
3, 96960, Note_on_c, 0, 59, 0
3, 96960, Note_on_c, 0, 67, 71
3, 96960, Note_on_c, 0, 64, 71
3, 96973, Control_c, 0, 64, 0
3, 97046, Control_c, 0, 64, 127
3, 97440, Note_on_c, 0, 64, 0
3, 97440, Note_on_c, 0, 67, 0
3, 97440, Note_on_c, 0, 59, 73
3, 97448, Control_c, 0, 64, 0
3, 97504, Control_c, 0, 64, 127
3, 97600, Note_on_c, 0, 59, 0
3, 97600, Note_on_c, 0, 59, 70
3, 97760, Note_on_c, 0, 59, 0
3, 97760, Note_on_c, 0, 59, 70
3, 97920, Note_on_c, 0, 59, 0
3, 97920, Note_on_c, 0, 55, 72
3, 97920, Note_on_c, 0, 64, 72
3, 98400, Note_on_c, 0, 64, 0
3, 98400, Note_on_c, 0, 55, 0
3, 98400, Note_on_c, 0, 59, 68
3, 98400, Note_on_c, 0, 66, 68
3, 98406, Control_c, 0, 64, 0
3, 98469, Control_c, 0, 64, 127
3, 98880, Note_on_c, 0, 66, 0
3, 98880, Note_on_c, 0, 59, 0
3, 98880, Note_on_c, 0, 64, 71
3, 98880, Note_on_c, 0, 67, 71
3, 98895, Control_c, 0, 64, 0
3, 98966, Control_c, 0, 64, 127
3, 99360, Note_on_c, 0, 67, 0
3, 99360, Note_on_c, 0, 64, 0
3, 99360, Note_on_c, 0, 58, 44
3, 99360, Note_on_c, 0, 60, 44
3, 99360, Note_on_c, 0, 64, 49
3, 99369, Control_c, 0, 64, 0
3, 99418, Control_c, 0, 64, 127
3, 99600, Note_on_c, 0, 64, 0
3, 99600, Note_on_c, 0, 60, 0
3, 99600, Note_on_c, 0, 58, 0
3, 99840, Note_on_c, 0, 60, 45
3, 99840, Note_on_c, 0, 65, 51
3, 99840, Note_on_c, 0, 57, 45
3, 99847, Control_c, 0, 64, 0
3, 99889, Control_c, 0, 64, 127
3, 100080, Note_on_c, 0, 57, 0
3, 100080, Note_on_c, 0, 65, 0
3, 100080, Note_on_c, 0, 60, 0
3, 100320, Note_on_c, 0, 60, 46
3, 100320, Note_on_c, 0, 62, 46
3, 100320, Note_on_c, 0, 66, 52
3, 100327, Control_c, 0, 64, 0
3, 100412, Control_c, 0, 64, 127
3, 100560, Note_on_c, 0, 66, 0
3, 100560, Note_on_c, 0, 62, 0
3, 100560, Note_on_c, 0, 60, 0
3, 100800, Note_on_c, 0, 62, 48
3, 100800, Note_on_c, 0, 67, 54
3, 100800, Note_on_c, 0, 59, 48
3, 100807, Control_c, 0, 64, 0
3, 100871, Control_c, 0, 64, 127
3, 101040, Note_on_c, 0, 59, 0
3, 101040, Note_on_c, 0, 67, 0
3, 101040, Note_on_c, 0, 62, 0
3, 101280, Note_on_c, 0, 62, 50
3, 101280, Note_on_c, 0, 64, 50
3, 101280, Note_on_c, 0, 68, 56
3, 101287, Control_c, 0, 64, 0
3, 101351, Control_c, 0, 64, 127
3, 101520, Note_on_c, 0, 68, 0
3, 101520, Note_on_c, 0, 64, 0
3, 101520, Note_on_c, 0, 62, 0
3, 101760, Note_on_c, 0, 64, 52
3, 101760, Note_on_c, 0, 69, 58
3, 101760, Note_on_c, 0, 61, 52
3, 101766, Control_c, 0, 64, 0
3, 101824, Control_c, 0, 64, 127
3, 102000, Note_on_c, 0, 61, 0
3, 102000, Note_on_c, 0, 69, 0
3, 102000, Note_on_c, 0, 64, 0
3, 102240, Note_on_c, 0, 64, 53
3, 102240, Note_on_c, 0, 70, 59
3, 102240, Note_on_c, 0, 66, 53
3, 102246, Control_c, 0, 64, 0
3, 102325, Control_c, 0, 64, 127
3, 102480, Note_on_c, 0, 66, 0
3, 102480, Note_on_c, 0, 70, 0
3, 102480, Note_on_c, 0, 64, 0
3, 102720, Note_on_c, 0, 63, 54
3, 102720, Note_on_c, 0, 71, 61
3, 102720, Note_on_c, 0, 66, 61
3, 102731, Control_c, 0, 64, 0
3, 102861, Control_c, 0, 64, 127
3, 102960, Note_on_c, 0, 66, 0
3, 102960, Note_on_c, 0, 71, 0
3, 102960, Note_on_c, 0, 63, 0
3, 103200, Note_on_c, 0, 61, 56
3, 103200, Note_on_c, 0, 64, 56
3, 103200, Note_on_c, 0, 70, 63
3, 103200, Note_on_c, 0, 66, 63
3, 103207, Control_c, 0, 64, 0
3, 103278, Control_c, 0, 64, 127
3, 103440, Note_on_c, 0, 66, 0
3, 103440, Note_on_c, 0, 61, 0
3, 103440, Note_on_c, 0, 64, 0
3, 103440, Note_on_c, 0, 70, 0
3, 103680, Control_c, 0, 64, 0
3, 103680, Note_on_c, 0, 59, 58
3, 103680, Note_on_c, 0, 63, 58
3, 103680, Note_on_c, 0, 66, 65
3, 103680, Note_on_c, 0, 71, 65
3, 103758, Control_c, 0, 64, 127
3, 103920, Note_on_c, 0, 71, 0
3, 103920, Note_on_c, 0, 59, 0
3, 103920, Note_on_c, 0, 63, 0
3, 103920, Note_on_c, 0, 66, 0
3, 104160, Note_on_c, 0, 61, 58
3, 104160, Note_on_c, 0, 64, 58
3, 104160, Note_on_c, 0, 66, 65
3, 104160, Note_on_c, 0, 70, 65
3, 104169, Control_c, 0, 64, 0
3, 104280, Control_c, 0, 64, 127
3, 104400, Note_on_c, 0, 70, 0
3, 104400, Note_on_c, 0, 61, 0
3, 104400, Note_on_c, 0, 64, 0
3, 104400, Note_on_c, 0, 66, 0
3, 104640, Note_on_c, 0, 63, 58
3, 104640, Note_on_c, 0, 66, 65
3, 104640, Note_on_c, 0, 71, 65
3, 104640, Note_on_c, 0, 59, 58
3, 104647, Control_c, 0, 64, 0
3, 104746, Control_c, 0, 64, 127
3, 104880, Note_on_c, 0, 59, 0
3, 104880, Note_on_c, 0, 63, 0
3, 104880, Note_on_c, 0, 66, 0
3, 104880, Note_on_c, 0, 71, 0
3, 105120, Note_on_c, 0, 49, 50
3, 105120, Note_on_c, 0, 54, 50
3, 105120, Note_on_c, 0, 58, 56
3, 105120, Note_on_c, 0, 52, 50
3, 105130, Control_c, 0, 64, 0
3, 105198, Control_c, 0, 64, 127
3, 105360, Note_on_c, 0, 52, 0
3, 105360, Note_on_c, 0, 49, 0
3, 105360, Note_on_c, 0, 54, 0
3, 105360, Note_on_c, 0, 58, 0
3, 105600, Control_c, 0, 64, 0
3, 105600, Note_on_c, 0, 51, 52
3, 105600, Note_on_c, 0, 54, 52
3, 105600, Note_on_c, 0, 59, 58
3, 105600, Note_on_c, 0, 47, 52
3, 105649, Control_c, 0, 64, 127
3, 105840, Note_on_c, 0, 47, 0
3, 105840, Note_on_c, 0, 51, 0
3, 105840, Note_on_c, 0, 54, 0
3, 105840, Note_on_c, 0, 59, 0
3, 106080, Note_on_c, 0, 58, 60
3, 106080, Note_on_c, 0, 49, 54
3, 106080, Note_on_c, 0, 54, 54
3, 106080, Note_on_c, 0, 52, 54
3, 106093, Control_c, 0, 64, 0
3, 106200, Control_c, 0, 64, 127
3, 106320, Note_on_c, 0, 52, 0
3, 106320, Note_on_c, 0, 58, 0
3, 106320, Note_on_c, 0, 49, 0
3, 106320, Note_on_c, 0, 54, 0
3, 106560, Note_on_c, 0, 47, 57
3, 106560, Note_on_c, 0, 51, 57
3, 106560, Note_on_c, 0, 59, 63
3, 106560, Note_on_c, 0, 54, 57
3, 106571, Control_c, 0, 64, 0
3, 106673, Control_c, 0, 64, 127
3, 106800, Note_on_c, 0, 54, 0
3, 106800, Note_on_c, 0, 47, 0
3, 106800, Note_on_c, 0, 51, 0
3, 106800, Note_on_c, 0, 59, 0
3, 107040, Note_on_c, 0, 58, 66
3, 107040, Note_on_c, 0, 52, 59
3, 107040, Note_on_c, 0, 54, 59
3, 107040, Note_on_c, 0, 49, 59
3, 107048, Control_c, 0, 64, 0
3, 107132, Control_c, 0, 64, 127
3, 107280, Note_on_c, 0, 49, 0
3, 107280, Note_on_c, 0, 58, 0
3, 107280, Note_on_c, 0, 52, 0
3, 107280, Note_on_c, 0, 54, 0
3, 107520, Control_c, 0, 64, 0
3, 107520, Note_on_c, 0, 47, 55
3, 107520, Note_on_c, 0, 54, 55
3, 107520, Note_on_c, 0, 59, 65
3, 107520, Note_on_c, 0, 51, 55
3, 107601, Control_c, 0, 64, 127
3, 107640, Note_on_c, 0, 51, 0
3, 107640, Note_on_c, 0, 47, 0
3, 107640, Note_on_c, 0, 54, 0
3, 107640, Note_on_c, 0, 59, 0
3, 107680, Note_on_c, 0, 51, 49
3, 107680, Note_on_c, 0, 54, 49
3, 107680, Note_on_c, 0, 59, 58
3, 107680, Note_on_c, 0, 47, 49
3, 107800, Note_on_c, 0, 47, 0
3, 107800, Note_on_c, 0, 51, 0
3, 107800, Note_on_c, 0, 54, 0
3, 107800, Note_on_c, 0, 59, 0
3, 107840, Note_on_c, 0, 47, 49
3, 107840, Note_on_c, 0, 51, 49
3, 107840, Note_on_c, 0, 59, 58
3, 107840, Note_on_c, 0, 54, 49
3, 107960, Note_on_c, 0, 54, 0
3, 107960, Note_on_c, 0, 47, 0
3, 107960, Note_on_c, 0, 51, 0
3, 107960, Note_on_c, 0, 59, 0
3, 108000, Note_on_c, 0, 47, 55
3, 108000, Note_on_c, 0, 54, 55
3, 108000, Note_on_c, 0, 59, 65
3, 108000, Note_on_c, 0, 51, 55
3, 108240, Note_on_c, 0, 51, 0
3, 108240, Note_on_c, 0, 47, 0
3, 108240, Note_on_c, 0, 54, 0
3, 108240, Note_on_c, 0, 59, 0
3, 108244, Control_c, 0, 64, 0
3, 108480, Note_on_c, 0, 51, 55
3, 108480, Note_on_c, 0, 54, 55
3, 108480, Note_on_c, 0, 59, 65
3, 108480, Note_on_c, 0, 47, 55
3, 108543, Control_c, 0, 64, 127
3, 108600, Note_on_c, 0, 47, 0
3, 108600, Note_on_c, 0, 51, 0
3, 108600, Note_on_c, 0, 54, 0
3, 108600, Note_on_c, 0, 59, 0
3, 108640, Note_on_c, 0, 47, 49
3, 108640, Note_on_c, 0, 54, 49
3, 108640, Note_on_c, 0, 59, 58
3, 108640, Note_on_c, 0, 51, 49
3, 108760, Note_on_c, 0, 51, 0
3, 108760, Note_on_c, 0, 47, 0
3, 108760, Note_on_c, 0, 54, 0
3, 108760, Note_on_c, 0, 59, 0
3, 108800, Note_on_c, 0, 51, 49
3, 108800, Note_on_c, 0, 54, 49
3, 108800, Note_on_c, 0, 47, 49
3, 108800, Note_on_c, 0, 59, 58
3, 108920, Note_on_c, 0, 59, 0
3, 108920, Note_on_c, 0, 51, 0
3, 108920, Note_on_c, 0, 54, 0
3, 108920, Note_on_c, 0, 47, 0
3, 108960, Note_on_c, 0, 51, 55
3, 108960, Note_on_c, 0, 54, 55
3, 108960, Note_on_c, 0, 59, 65
3, 108960, Note_on_c, 0, 47, 55
3, 109200, Note_on_c, 0, 47, 0
3, 109200, Note_on_c, 0, 51, 0
3, 109200, Note_on_c, 0, 54, 0
3, 109200, Note_on_c, 0, 59, 0
3, 109200, Control_c, 0, 64, 0
3, 109440, Note_on_c, 0, 47, 55
3, 109440, Note_on_c, 0, 54, 55
3, 109440, Note_on_c, 0, 59, 65
3, 109440, Note_on_c, 0, 51, 55
3, 109521, Control_c, 0, 64, 127
3, 109560, Note_on_c, 0, 51, 0
3, 109560, Note_on_c, 0, 47, 0
3, 109560, Note_on_c, 0, 54, 0
3, 109560, Note_on_c, 0, 59, 0
3, 109600, Note_on_c, 0, 47, 49
3, 109600, Note_on_c, 0, 51, 49
3, 109600, Note_on_c, 0, 59, 58
3, 109600, Note_on_c, 0, 54, 49
3, 109720, Note_on_c, 0, 54, 0
3, 109720, Note_on_c, 0, 47, 0
3, 109720, Note_on_c, 0, 51, 0
3, 109720, Note_on_c, 0, 59, 0
3, 109760, Note_on_c, 0, 51, 49
3, 109760, Note_on_c, 0, 54, 49
3, 109760, Note_on_c, 0, 59, 58
3, 109760, Note_on_c, 0, 47, 49
3, 109880, Note_on_c, 0, 47, 0
3, 109880, Note_on_c, 0, 51, 0
3, 109880, Note_on_c, 0, 54, 0
3, 109880, Note_on_c, 0, 59, 0
3, 109920, Note_on_c, 0, 47, 55
3, 109920, Note_on_c, 0, 51, 55
3, 109920, Note_on_c, 0, 59, 65
3, 109920, Note_on_c, 0, 54, 55
3, 110160, Note_on_c, 0, 54, 0
3, 110160, Note_on_c, 0, 47, 0
3, 110160, Note_on_c, 0, 51, 0
3, 110160, Note_on_c, 0, 59, 0
3, 110164, Control_c, 0, 64, 0
3, 110400, Note_on_c, 0, 51, 55
3, 110400, Note_on_c, 0, 54, 55
3, 110400, Note_on_c, 0, 47, 55
3, 110400, Note_on_c, 0, 59, 65
3, 110463, Control_c, 0, 64, 127
3, 110520, Note_on_c, 0, 59, 0
3, 110520, Note_on_c, 0, 51, 0
3, 110520, Note_on_c, 0, 54, 0
3, 110520, Note_on_c, 0, 47, 0
3, 110560, Note_on_c, 0, 47, 49
3, 110560, Note_on_c, 0, 51, 49
3, 110560, Note_on_c, 0, 59, 58
3, 110560, Note_on_c, 0, 54, 49
3, 110680, Note_on_c, 0, 54, 0
3, 110680, Note_on_c, 0, 47, 0
3, 110680, Note_on_c, 0, 51, 0
3, 110680, Note_on_c, 0, 59, 0
3, 110720, Note_on_c, 0, 47, 49
3, 110720, Note_on_c, 0, 54, 49
3, 110720, Note_on_c, 0, 59, 58
3, 110720, Note_on_c, 0, 51, 49
3, 110840, Note_on_c, 0, 51, 0
3, 110840, Note_on_c, 0, 47, 0
3, 110840, Note_on_c, 0, 54, 0
3, 110840, Note_on_c, 0, 59, 0
3, 110880, Note_on_c, 0, 51, 55
3, 110880, Note_on_c, 0, 54, 55
3, 110880, Note_on_c, 0, 47, 55
3, 110880, Note_on_c, 0, 59, 65
3, 111097, Control_c, 0, 64, 0
3, 111120, Note_on_c, 0, 59, 0
3, 111120, Note_on_c, 0, 51, 0
3, 111120, Note_on_c, 0, 54, 0
3, 111120, Note_on_c, 0, 47, 0
3, 111360, Note_on_c, 0, 50, 55
3, 111360, Note_on_c, 0, 62, 65
3, 111441, Control_c, 0, 64, 127
3, 111520, Note_on_c, 0, 62, 0
3, 111520, Note_on_c, 0, 50, 0
3, 111520, Note_on_c, 0, 50, 49
3, 111520, Note_on_c, 0, 62, 58
3, 111680, Note_on_c, 0, 62, 0
3, 111680, Note_on_c, 0, 50, 0
3, 111680, Note_on_c, 0, 62, 58
3, 111680, Note_on_c, 0, 50, 49
3, 111840, Note_on_c, 0, 50, 0
3, 111840, Note_on_c, 0, 62, 0
3, 111840, Note_on_c, 0, 50, 55
3, 111840, Note_on_c, 0, 62, 65
3, 112080, Note_on_c, 0, 62, 0
3, 112080, Note_on_c, 0, 50, 0
3, 112320, Note_on_c, 0, 50, 55
3, 112320, Note_on_c, 0, 62, 65
3, 112329, Control_c, 0, 64, 0
3, 112433, Control_c, 0, 64, 127
3, 112480, Note_on_c, 0, 62, 0
3, 112480, Note_on_c, 0, 50, 0
3, 112480, Note_on_c, 0, 50, 49
3, 112480, Note_on_c, 0, 62, 58
3, 112640, Note_on_c, 0, 62, 0
3, 112640, Note_on_c, 0, 50, 0
3, 112640, Note_on_c, 0, 62, 58
3, 112640, Note_on_c, 0, 50, 49
3, 112800, Note_on_c, 0, 50, 0
3, 112800, Note_on_c, 0, 62, 0
3, 112800, Note_on_c, 0, 50, 55
3, 112800, Note_on_c, 0, 62, 65
3, 113040, Note_on_c, 0, 62, 0
3, 113040, Note_on_c, 0, 50, 0
3, 113290, Control_c, 0, 64, 0
3, 113386, Control_c, 0, 64, 127
3, 115200, Note_on_c, 0, 47, 61
3, 115200, Note_on_c, 0, 55, 68
3, 115208, Control_c, 0, 64, 0
3, 115327, Control_c, 0, 64, 127
3, 115840, Note_on_c, 0, 55, 0
3, 115840, Note_on_c, 0, 47, 0
3, 115840, Note_on_c, 0, 47, 56
3, 115840, Note_on_c, 0, 55, 63
3, 115960, Note_on_c, 0, 55, 0
3, 115960, Note_on_c, 0, 47, 0
3, 116000, Note_on_c, 0, 47, 56
3, 116000, Note_on_c, 0, 55, 63
3, 116120, Note_on_c, 0, 55, 0
3, 116120, Note_on_c, 0, 47, 0
3, 116160, Note_on_c, 0, 47, 62
3, 116160, Note_on_c, 0, 55, 69
3, 116800, Note_on_c, 0, 55, 0
3, 116800, Note_on_c, 0, 47, 0
3, 116800, Note_on_c, 0, 47, 56
3, 116800, Note_on_c, 0, 55, 63
3, 116920, Note_on_c, 0, 55, 0
3, 116920, Note_on_c, 0, 47, 0
3, 116960, Note_on_c, 0, 47, 55
3, 116960, Note_on_c, 0, 55, 62
3, 117080, Note_on_c, 0, 55, 0
3, 117080, Note_on_c, 0, 47, 0
3, 117120, Note_on_c, 0, 47, 61
3, 117120, Note_on_c, 0, 55, 68
3, 117840, Note_on_c, 0, 55, 0
3, 117840, Note_on_c, 0, 47, 0
3, 117840, Note_on_c, 0, 59, 62
3, 117840, Note_on_c, 0, 55, 55
3, 117960, Note_on_c, 0, 55, 0
3, 117960, Note_on_c, 0, 59, 0
3, 118024, Control_c, 0, 64, 0
3, 118080, Note_on_c, 0, 57, 61
3, 118080, Note_on_c, 0, 60, 68
3, 118200, Note_on_c, 0, 60, 0
3, 118200, Note_on_c, 0, 57, 0
3, 118320, Note_on_c, 0, 55, 55
3, 118320, Note_on_c, 0, 59, 62
3, 118440, Note_on_c, 0, 59, 0
3, 118440, Note_on_c, 0, 55, 0
3, 118560, Note_on_c, 0, 60, 68
3, 118560, Note_on_c, 0, 57, 61
3, 118680, Note_on_c, 0, 57, 0
3, 118680, Note_on_c, 0, 60, 0
3, 118800, Note_on_c, 0, 50, 60
3, 118800, Note_on_c, 0, 57, 67
3, 118920, Note_on_c, 0, 57, 0
3, 118920, Note_on_c, 0, 50, 0
3, 119040, Note_on_c, 0, 62, 68
3, 119040, Note_on_c, 0, 59, 61
3, 119195, Control_c, 0, 64, 127
3, 119680, Note_on_c, 0, 59, 0
3, 119680, Note_on_c, 0, 62, 0
3, 119680, Note_on_c, 0, 59, 56
3, 119680, Note_on_c, 0, 62, 63
3, 119800, Note_on_c, 0, 62, 0
3, 119800, Note_on_c, 0, 59, 0
3, 119840, Note_on_c, 0, 59, 56
3, 119840, Note_on_c, 0, 62, 63
3, 119960, Note_on_c, 0, 62, 0
3, 119960, Note_on_c, 0, 59, 0
3, 120000, Note_on_c, 0, 59, 62
3, 120000, Note_on_c, 0, 62, 69
3, 120640, Note_on_c, 0, 62, 0
3, 120640, Note_on_c, 0, 59, 0
3, 120640, Note_on_c, 0, 59, 56
3, 120640, Note_on_c, 0, 62, 63
3, 120760, Note_on_c, 0, 62, 0
3, 120760, Note_on_c, 0, 59, 0
3, 120800, Note_on_c, 0, 59, 55
3, 120800, Note_on_c, 0, 62, 62
3, 120920, Note_on_c, 0, 62, 0
3, 120920, Note_on_c, 0, 59, 0
3, 120960, Control_c, 0, 64, 0
3, 120960, Note_on_c, 0, 64, 68
3, 120960, Note_on_c, 0, 60, 61
3, 121080, Note_on_c, 0, 60, 0
3, 121080, Note_on_c, 0, 64, 0
3, 121200, Note_on_c, 0, 59, 54
3, 121200, Note_on_c, 0, 62, 61
3, 121320, Note_on_c, 0, 62, 0
3, 121320, Note_on_c, 0, 59, 0
3, 121440, Note_on_c, 0, 57, 58
3, 121440, Note_on_c, 0, 60, 65
3, 121560, Note_on_c, 0, 60, 0
3, 121560, Note_on_c, 0, 57, 0
3, 121680, Note_on_c, 0, 55, 53
3, 121680, Note_on_c, 0, 59, 59
3, 121800, Note_on_c, 0, 59, 0
3, 121800, Note_on_c, 0, 55, 0
3, 121920, Note_on_c, 0, 50, 71
3, 121920, Note_on_c, 0, 57, 79
3, 122040, Note_on_c, 0, 57, 0
3, 122040, Note_on_c, 0, 50, 0
3, 122160, Note_on_c, 0, 55, 66
3, 122160, Note_on_c, 0, 59, 74
3, 122280, Note_on_c, 0, 59, 0
3, 122280, Note_on_c, 0, 55, 0
3, 122400, Note_on_c, 0, 50, 71
3, 122400, Note_on_c, 0, 57, 79
3, 122640, Note_on_c, 0, 57, 0
3, 122640, Note_on_c, 0, 50, 0
3, 122936, Control_c, 0, 64, 127
3, 123360, Note_on_c, 0, 63, 72
3, 123360, Note_on_c, 0, 51, 64
3, 124320, Note_on_c, 0, 51, 0
3, 124320, Note_on_c, 0, 63, 0
3, 124320, Note_on_c, 0, 50, 63
3, 124320, Note_on_c, 0, 62, 70
3, 124800, Note_on_c, 0, 62, 0
3, 124800, Note_on_c, 0, 50, 0
3, 125280, Note_on_c, 0, 51, 64
3, 125280, Note_on_c, 0, 63, 72
3, 125292, Control_c, 0, 64, 0
3, 126240, Note_on_c, 0, 63, 0
3, 126240, Note_on_c, 0, 51, 0
3, 126240, Note_on_c, 0, 50, 62
3, 126240, Note_on_c, 0, 62, 69
3, 126720, Note_on_c, 0, 62, 0
3, 126720, Note_on_c, 0, 50, 0
3, 126918, Control_c, 0, 64, 127
3, 127200, Note_on_c, 0, 67, 68
3, 127200, Note_on_c, 0, 55, 61
3, 127680, Note_on_c, 0, 55, 0
3, 127680, Note_on_c, 0, 67, 0
3, 127680, Note_on_c, 0, 66, 72
3, 127680, Note_on_c, 0, 54, 64
3, 127689, Control_c, 0, 64, 0
3, 127807, Control_c, 0, 64, 127
3, 128160, Note_on_c, 0, 54, 0
3, 128160, Note_on_c, 0, 66, 0
3, 128160, Note_on_c, 0, 65, 69
3, 128160, Note_on_c, 0, 53, 62
3, 128168, Control_c, 0, 64, 0
3, 128238, Control_c, 0, 64, 127
3, 128640, Note_on_c, 0, 53, 0
3, 128640, Note_on_c, 0, 65, 0
3, 128640, Control_c, 0, 64, 0
3, 128640, Note_on_c, 0, 52, 64
3, 128640, Note_on_c, 0, 64, 72
3, 129360, Note_on_c, 0, 64, 0
3, 129360, Note_on_c, 0, 52, 0
3, 129360, Note_on_c, 0, 50, 54
3, 129360, Note_on_c, 0, 52, 54
3, 129360, Note_on_c, 0, 62, 60
3, 129480, Note_on_c, 0, 62, 0
3, 129480, Note_on_c, 0, 52, 0
3, 129480, Note_on_c, 0, 50, 0
3, 129600, Note_on_c, 0, 52, 59
3, 129600, Note_on_c, 0, 48, 59
3, 129600, Note_on_c, 0, 60, 66
3, 129720, Note_on_c, 0, 60, 0
3, 129720, Note_on_c, 0, 48, 0
3, 129720, Note_on_c, 0, 52, 0
3, 129840, Note_on_c, 0, 47, 51
3, 129840, Note_on_c, 0, 52, 51
3, 129840, Note_on_c, 0, 59, 57
3, 129960, Note_on_c, 0, 59, 0
3, 129960, Note_on_c, 0, 52, 0
3, 129960, Note_on_c, 0, 47, 0
3, 130080, Note_on_c, 0, 45, 54
3, 130080, Note_on_c, 0, 52, 54
3, 130080, Note_on_c, 0, 57, 60
3, 130200, Note_on_c, 0, 57, 0
3, 130200, Note_on_c, 0, 52, 0
3, 130200, Note_on_c, 0, 45, 0
3, 130320, Note_on_c, 0, 43, 49
3, 130320, Note_on_c, 0, 55, 55
3, 130440, Note_on_c, 0, 55, 0
3, 130440, Note_on_c, 0, 43, 0
3, 130560, Note_on_c, 0, 42, 54
3, 130560, Note_on_c, 0, 54, 60
3, 130680, Note_on_c, 0, 54, 0
3, 130680, Note_on_c, 0, 42, 0
3, 131280, Note_on_c, 0, 52, 51
3, 131280, Note_on_c, 0, 64, 57
3, 131400, Note_on_c, 0, 64, 0
3, 131400, Note_on_c, 0, 52, 0
3, 131520, Note_on_c, 0, 50, 54
3, 131520, Note_on_c, 0, 62, 60
3, 131640, Note_on_c, 0, 62, 0
3, 131640, Note_on_c, 0, 50, 0
3, 131760, Note_on_c, 0, 49, 50
3, 131760, Note_on_c, 0, 61, 56
3, 131880, Note_on_c, 0, 61, 0
3, 131880, Note_on_c, 0, 49, 0
3, 132000, Note_on_c, 0, 47, 53
3, 132000, Note_on_c, 0, 59, 59
3, 132120, Note_on_c, 0, 59, 0
3, 132120, Note_on_c, 0, 47, 0
3, 132240, Note_on_c, 0, 45, 50
3, 132240, Note_on_c, 0, 57, 56
3, 132360, Note_on_c, 0, 57, 0
3, 132360, Note_on_c, 0, 45, 0
3, 132480, Note_on_c, 0, 44, 54
3, 132480, Note_on_c, 0, 56, 60
3, 132600, Note_on_c, 0, 56, 0
3, 132600, Note_on_c, 0, 44, 0
3, 133200, Note_on_c, 0, 54, 51
3, 133200, Note_on_c, 0, 66, 57
3, 133320, Note_on_c, 0, 66, 0
3, 133320, Note_on_c, 0, 54, 0
3, 133440, Note_on_c, 0, 56, 54
3, 133440, Note_on_c, 0, 52, 54
3, 133440, Note_on_c, 0, 64, 60
3, 133560, Note_on_c, 0, 64, 0
3, 133560, Note_on_c, 0, 52, 0
3, 133560, Note_on_c, 0, 56, 0
3, 133680, Note_on_c, 0, 56, 51
3, 133680, Note_on_c, 0, 51, 50
3, 133680, Note_on_c, 0, 63, 56
3, 133800, Note_on_c, 0, 63, 0
3, 133800, Note_on_c, 0, 51, 0
3, 133800, Note_on_c, 0, 56, 0
3, 133920, Note_on_c, 0, 56, 53
3, 133920, Note_on_c, 0, 49, 53
3, 133920, Note_on_c, 0, 61, 59
3, 134040, Note_on_c, 0, 61, 0
3, 134040, Note_on_c, 0, 49, 0
3, 134040, Note_on_c, 0, 56, 0
3, 134160, Note_on_c, 0, 47, 50
3, 134160, Note_on_c, 0, 59, 56
3, 134280, Note_on_c, 0, 59, 0
3, 134280, Note_on_c, 0, 47, 0
3, 134400, Note_on_c, 0, 45, 54
3, 134400, Note_on_c, 0, 57, 60
3, 134491, Control_c, 0, 64, 127
3, 134880, Note_on_c, 0, 57, 0
3, 134880, Note_on_c, 0, 45, 0
3, 134880, Note_on_c, 0, 47, 50
3, 134880, Note_on_c, 0, 59, 56
3, 134880, Note_on_c, 0, 57, 56
3, 134887, Control_c, 0, 64, 0
3, 134994, Control_c, 0, 64, 127
3, 135360, Note_on_c, 0, 57, 0
3, 135360, Note_on_c, 0, 59, 0
3, 135360, Note_on_c, 0, 47, 0
3, 135360, Note_on_c, 0, 57, 60
3, 135360, Note_on_c, 0, 48, 54
3, 135360, Note_on_c, 0, 60, 60
3, 135371, Control_c, 0, 64, 0
3, 135486, Control_c, 0, 64, 127
3, 135855, Control_c, 0, 64, 0
3, 135989, Control_c, 0, 64, 127
3, 136080, Note_on_c, 0, 60, 0
3, 136080, Note_on_c, 0, 48, 0
3, 136080, Note_on_c, 0, 57, 0
3, 136080, Note_on_c, 0, 49, 51
3, 136080, Note_on_c, 0, 57, 57
3, 136080, Note_on_c, 0, 61, 57
3, 136320, Note_on_c, 0, 61, 0
3, 136320, Note_on_c, 0, 57, 0
3, 136320, Note_on_c, 0, 49, 0
3, 136320, Note_on_c, 0, 45, 55
3, 136320, Note_on_c, 0, 57, 62
3, 136328, Control_c, 0, 64, 0
3, 136469, Control_c, 0, 64, 127
3, 136800, Note_on_c, 0, 57, 0
3, 136800, Note_on_c, 0, 45, 0
3, 136800, Note_on_c, 0, 47, 52
3, 136800, Note_on_c, 0, 59, 58
3, 136800, Note_on_c, 0, 57, 58
3, 136807, Control_c, 0, 64, 0
3, 136903, Control_c, 0, 64, 127
3, 137280, Note_on_c, 0, 57, 0
3, 137280, Note_on_c, 0, 59, 0
3, 137280, Note_on_c, 0, 47, 0
3, 137280, Note_on_c, 0, 57, 62
3, 137280, Note_on_c, 0, 48, 55
3, 137280, Note_on_c, 0, 60, 62
3, 137293, Control_c, 0, 64, 0
3, 137371, Control_c, 0, 64, 127
3, 137776, Control_c, 0, 64, 0
3, 137886, Control_c, 0, 64, 127
3, 138000, Note_on_c, 0, 60, 0
3, 138000, Note_on_c, 0, 48, 0
3, 138000, Note_on_c, 0, 57, 0
3, 138000, Note_on_c, 0, 49, 54
3, 138000, Note_on_c, 0, 57, 60
3, 138000, Note_on_c, 0, 61, 60
3, 138240, Note_on_c, 0, 61, 0
3, 138240, Note_on_c, 0, 57, 0
3, 138240, Note_on_c, 0, 49, 0
3, 138240, Note_on_c, 0, 50, 62
3, 138240, Note_on_c, 0, 62, 69
3, 138250, Control_c, 0, 64, 0
3, 138331, Control_c, 0, 64, 127
3, 138720, Note_on_c, 0, 62, 0
3, 138720, Note_on_c, 0, 50, 0
3, 138720, Note_on_c, 0, 52, 56
3, 138720, Note_on_c, 0, 64, 63
3, 138720, Note_on_c, 0, 62, 63
3, 138729, Control_c, 0, 64, 0
3, 138833, Control_c, 0, 64, 127
3, 139200, Note_on_c, 0, 62, 0
3, 139200, Note_on_c, 0, 64, 0
3, 139200, Note_on_c, 0, 52, 0
3, 139200, Note_on_c, 0, 62, 69
3, 139200, Note_on_c, 0, 53, 62
3, 139200, Note_on_c, 0, 65, 69
3, 139209, Control_c, 0, 64, 0
3, 139355, Control_c, 0, 64, 127
3, 139687, Control_c, 0, 64, 0
3, 139793, Control_c, 0, 64, 127
3, 139920, Note_on_c, 0, 65, 0
3, 139920, Note_on_c, 0, 53, 0
3, 139920, Note_on_c, 0, 62, 0
3, 139920, Note_on_c, 0, 54, 58
3, 139920, Note_on_c, 0, 62, 65
3, 139920, Note_on_c, 0, 66, 65
3, 140160, Note_on_c, 0, 66, 0
3, 140160, Note_on_c, 0, 62, 0
3, 140160, Note_on_c, 0, 54, 0
3, 140160, Note_on_c, 0, 50, 63
3, 140160, Note_on_c, 0, 62, 71
3, 140169, Control_c, 0, 64, 0
3, 140301, Control_c, 0, 64, 127
3, 140640, Note_on_c, 0, 62, 0
3, 140640, Note_on_c, 0, 50, 0
3, 140640, Note_on_c, 0, 52, 59
3, 140640, Note_on_c, 0, 64, 66
3, 140640, Note_on_c, 0, 62, 66
3, 140650, Control_c, 0, 64, 0
3, 140781, Control_c, 0, 64, 127
3, 141120, Note_on_c, 0, 62, 0
3, 141120, Note_on_c, 0, 64, 0
3, 141120, Note_on_c, 0, 52, 0
3, 141120, Note_on_c, 0, 62, 73
3, 141120, Note_on_c, 0, 53, 65
3, 141120, Note_on_c, 0, 65, 73
3, 141127, Control_c, 0, 64, 0
3, 141275, Control_c, 0, 64, 127
3, 141608, Control_c, 0, 64, 0
3, 141699, Control_c, 0, 64, 127
3, 141840, Note_on_c, 0, 65, 0
3, 141840, Note_on_c, 0, 53, 0
3, 141840, Note_on_c, 0, 62, 0
3, 141840, Note_on_c, 0, 54, 61
3, 141840, Note_on_c, 0, 62, 68
3, 141840, Note_on_c, 0, 66, 68
3, 142080, Note_on_c, 0, 66, 0
3, 142080, Note_on_c, 0, 62, 0
3, 142080, Note_on_c, 0, 54, 0
3, 142080, Note_on_c, 0, 55, 79
3, 142086, Control_c, 0, 64, 0
3, 142242, Control_c, 0, 64, 127
3, 142560, Note_on_c, 0, 55, 0
3, 142560, Note_on_c, 0, 55, 71
3, 142560, Note_on_c, 0, 65, 79
3, 142560, Note_on_c, 0, 53, 71
3, 143520, Note_on_c, 0, 53, 0
3, 143520, Note_on_c, 0, 65, 0
3, 143520, Note_on_c, 0, 55, 0
3, 143520, Note_on_c, 0, 55, 69
3, 143520, Note_on_c, 0, 52, 69
3, 143520, Note_on_c, 0, 64, 77
3, 144480, Note_on_c, 0, 64, 0
3, 144480, Note_on_c, 0, 52, 0
3, 144480, Note_on_c, 0, 55, 0
3, 144480, Note_on_c, 0, 55, 71
3, 144480, Note_on_c, 0, 51, 71
3, 144480, Note_on_c, 0, 63, 79
3, 144494, Control_c, 0, 64, 0
3, 145440, Note_on_c, 0, 63, 0
3, 145440, Note_on_c, 0, 51, 0
3, 145440, Note_on_c, 0, 55, 0
3, 145440, Note_on_c, 0, 54, 67
3, 145440, Note_on_c, 0, 50, 67
3, 145440, Note_on_c, 0, 62, 75
3, 145920, Note_on_c, 0, 62, 0
3, 145920, Note_on_c, 0, 50, 0
3, 145920, Note_on_c, 0, 54, 0
3, 145920, Note_on_c, 0, 38, 66
3, 145920, Note_on_c, 0, 50, 74
3, 145924, Control_c, 0, 64, 0
3, 146118, Control_c, 0, 64, 127
3, 146400, Note_on_c, 0, 50, 0
3, 146400, Note_on_c, 0, 38, 0
3, 146400, Note_on_c, 0, 50, 74
3, 146400, Note_on_c, 0, 52, 74
3, 146400, Note_on_c, 0, 40, 66
3, 146880, Note_on_c, 0, 40, 0
3, 146880, Note_on_c, 0, 52, 0
3, 146880, Note_on_c, 0, 50, 0
3, 146880, Note_on_c, 0, 50, 79
3, 146880, Note_on_c, 0, 54, 79
3, 146880, Note_on_c, 0, 42, 71
3, 146898, Control_c, 0, 64, 0
3, 146986, Control_c, 0, 64, 127
3, 147360, Note_on_c, 0, 42, 0
3, 147360, Note_on_c, 0, 54, 0
3, 147360, Note_on_c, 0, 50, 0
3, 147360, Note_on_c, 0, 50, 75
3, 147360, Note_on_c, 0, 55, 75
3, 147360, Note_on_c, 0, 43, 67
3, 147368, Control_c, 0, 64, 0
3, 147445, Control_c, 0, 64, 127
3, 147840, Note_on_c, 0, 43, 0
3, 147840, Note_on_c, 0, 55, 0
3, 147840, Note_on_c, 0, 50, 0
3, 147854, Control_c, 0, 64, 0
3, 148080, Note_on_c, 0, 43, 64
3, 148080, Note_on_c, 0, 50, 64
3, 148080, Note_on_c, 0, 55, 72
3, 148200, Note_on_c, 0, 55, 0
3, 148200, Note_on_c, 0, 50, 0
3, 148200, Note_on_c, 0, 43, 0
3, 148320, Note_on_c, 0, 45, 66
3, 148320, Note_on_c, 0, 50, 66
3, 148320, Note_on_c, 0, 57, 74
3, 148440, Note_on_c, 0, 57, 0
3, 148440, Note_on_c, 0, 50, 0
3, 148440, Note_on_c, 0, 45, 0
3, 148560, Note_on_c, 0, 47, 59
3, 148560, Note_on_c, 0, 50, 59
3, 148560, Note_on_c, 0, 59, 66
3, 148680, Note_on_c, 0, 59, 0
3, 148680, Note_on_c, 0, 50, 0
3, 148680, Note_on_c, 0, 47, 0
3, 148800, Note_on_c, 0, 54, 70
3, 148800, Note_on_c, 0, 57, 78
3, 148800, Note_on_c, 0, 50, 70
3, 148800, Note_on_c, 0, 62, 78
3, 148920, Note_on_c, 0, 62, 0
3, 148920, Note_on_c, 0, 54, 0
3, 148920, Note_on_c, 0, 57, 0
3, 148920, Note_on_c, 0, 50, 0
3, 149040, Note_on_c, 0, 55, 65
3, 149040, Note_on_c, 0, 59, 73
3, 149040, Note_on_c, 0, 62, 73
3, 149160, Note_on_c, 0, 62, 0
3, 149160, Note_on_c, 0, 59, 0
3, 149160, Note_on_c, 0, 55, 0
3, 149280, Note_on_c, 0, 54, 68
3, 149280, Note_on_c, 0, 50, 68
3, 149280, Note_on_c, 0, 57, 76
3, 149280, Note_on_c, 0, 62, 76
3, 149400, Note_on_c, 0, 62, 0
3, 149400, Note_on_c, 0, 54, 0
3, 149400, Note_on_c, 0, 50, 0
3, 149400, Note_on_c, 0, 57, 0
3, 149760, Note_on_c, 0, 55, 79
3, 149922, Control_c, 0, 64, 127
3, 150240, Note_on_c, 0, 55, 0
3, 150240, Note_on_c, 0, 55, 71
3, 150240, Note_on_c, 0, 65, 79
3, 150240, Note_on_c, 0, 53, 71
3, 151200, Note_on_c, 0, 53, 0
3, 151200, Note_on_c, 0, 65, 0
3, 151200, Note_on_c, 0, 55, 0
3, 151200, Note_on_c, 0, 55, 69
3, 151200, Note_on_c, 0, 52, 69
3, 151200, Note_on_c, 0, 64, 77
3, 152160, Note_on_c, 0, 64, 0
3, 152160, Note_on_c, 0, 52, 0
3, 152160, Note_on_c, 0, 55, 0
3, 152160, Note_on_c, 0, 55, 71
3, 152160, Note_on_c, 0, 51, 71
3, 152160, Note_on_c, 0, 63, 79
3, 152181, Control_c, 0, 64, 0
3, 152640, Note_on_c, 0, 63, 0
3, 152640, Note_on_c, 0, 51, 0
3, 152640, Note_on_c, 0, 55, 0
3, 152640, Note_on_c, 0, 50, 67
3, 152640, Note_on_c, 0, 54, 67
3, 152640, Note_on_c, 0, 62, 75
3, 153360, Note_on_c, 0, 62, 0
3, 153360, Note_on_c, 0, 54, 0
3, 153360, Note_on_c, 0, 50, 0
3, 153360, Note_on_c, 0, 48, 61
3, 153360, Note_on_c, 0, 54, 61
3, 153360, Note_on_c, 0, 60, 68
3, 153480, Note_on_c, 0, 60, 0
3, 153480, Note_on_c, 0, 54, 0
3, 153480, Note_on_c, 0, 48, 0
3, 153600, Note_on_c, 0, 47, 64
3, 153600, Note_on_c, 0, 50, 64
3, 153600, Note_on_c, 0, 55, 72
3, 153600, Note_on_c, 0, 59, 72
3, 153840, Note_on_c, 0, 59, 0
3, 153840, Note_on_c, 0, 47, 0
3, 153840, Note_on_c, 0, 50, 0
3, 153840, Note_on_c, 0, 55, 0
3, 153840, Note_on_c, 0, 48, 60
3, 153840, Note_on_c, 0, 60, 67
3, 154080, Note_on_c, 0, 60, 0
3, 154080, Note_on_c, 0, 48, 0
3, 154080, Note_on_c, 0, 47, 64
3, 154080, Note_on_c, 0, 59, 72
3, 154320, Note_on_c, 0, 59, 0
3, 154320, Note_on_c, 0, 47, 0
3, 154320, Note_on_c, 0, 45, 60
3, 154320, Note_on_c, 0, 57, 67
3, 154560, Note_on_c, 0, 57, 0
3, 154560, Note_on_c, 0, 45, 0
3, 154560, Note_on_c, 0, 43, 63
3, 154560, Note_on_c, 0, 55, 71
3, 154560, Note_on_c, 0, 50, 71
3, 155280, Note_on_c, 0, 55, 0
3, 155280, Note_on_c, 0, 43, 0
3, 155280, Note_on_c, 0, 41, 60
3, 155280, Note_on_c, 0, 53, 67
3, 155400, Note_on_c, 0, 53, 0
3, 155400, Note_on_c, 0, 41, 0
3, 155520, Note_on_c, 0, 50, 0
3, 155520, Note_on_c, 0, 40, 64
3, 155520, Note_on_c, 0, 52, 72
3, 155640, Note_on_c, 0, 52, 0
3, 155640, Note_on_c, 0, 40, 0
3, 155760, Note_on_c, 0, 42, 60
3, 155760, Note_on_c, 0, 54, 67
3, 155880, Note_on_c, 0, 54, 0
3, 155880, Note_on_c, 0, 42, 0
3, 156000, Note_on_c, 0, 40, 64
3, 156000, Note_on_c, 0, 52, 72
3, 156120, Note_on_c, 0, 52, 0
3, 156120, Note_on_c, 0, 40, 0
3, 156240, Note_on_c, 0, 38, 63
3, 156240, Note_on_c, 0, 50, 70
3, 156360, Note_on_c, 0, 50, 0
3, 156360, Note_on_c, 0, 38, 0
3, 156480, Note_on_c, 0, 36, 66
3, 156480, Note_on_c, 0, 48, 74
3, 157200, Note_on_c, 0, 48, 0
3, 157200, Note_on_c, 0, 36, 0
3, 157200, Note_on_c, 0, 38, 65
3, 157200, Note_on_c, 0, 50, 65
3, 157320, Note_on_c, 0, 50, 0
3, 157320, Note_on_c, 0, 38, 0
3, 157440, Note_on_c, 0, 39, 70
3, 157440, Note_on_c, 0, 51, 70
3, 158160, Note_on_c, 0, 51, 0
3, 158160, Note_on_c, 0, 39, 0
3, 158160, Note_on_c, 0, 40, 64
3, 158160, Note_on_c, 0, 52, 64
3, 158280, Note_on_c, 0, 52, 0
3, 158280, Note_on_c, 0, 40, 0
3, 158400, Note_on_c, 0, 42, 71
3, 158400, Note_on_c, 0, 54, 71
3, 159120, Note_on_c, 0, 54, 0
3, 159120, Note_on_c, 0, 42, 0
3, 159120, Note_on_c, 0, 43, 65
3, 159120, Note_on_c, 0, 55, 65
3, 159240, Note_on_c, 0, 55, 0
3, 159240, Note_on_c, 0, 43, 0
3, 159360, Note_on_c, 0, 45, 70
3, 159360, Note_on_c, 0, 57, 70
3, 160080, Note_on_c, 0, 57, 0
3, 160080, Note_on_c, 0, 45, 0
3, 160080, Note_on_c, 0, 46, 64
3, 160080, Note_on_c, 0, 58, 64
3, 160200, Note_on_c, 0, 58, 0
3, 160200, Note_on_c, 0, 46, 0
3, 160320, Note_on_c, 0, 47, 67
3, 160320, Note_on_c, 0, 59, 67
3, 161040, Note_on_c, 0, 59, 0
3, 161040, Note_on_c, 0, 47, 0
3, 161040, Note_on_c, 0, 48, 60
3, 161040, Note_on_c, 0, 60, 60
3, 161160, Note_on_c, 0, 60, 0
3, 161160, Note_on_c, 0, 48, 0
3, 161280, Note_on_c, 0, 50, 63
3, 161280, Note_on_c, 0, 62, 63
3, 161442, Control_c, 0, 64, 127
3, 161760, Note_on_c, 0, 62, 0
3, 161760, Note_on_c, 0, 50, 0
3, 161760, Note_on_c, 0, 51, 56
3, 161760, Note_on_c, 0, 63, 63
3, 161773, Control_c, 0, 64, 0
3, 161873, Control_c, 0, 64, 127
3, 162240, Note_on_c, 0, 63, 0
3, 162240, Note_on_c, 0, 51, 0
3, 162240, Note_on_c, 0, 50, 63
3, 162240, Note_on_c, 0, 62, 63
3, 162258, Control_c, 0, 64, 0
3, 162325, Control_c, 0, 64, 127
3, 162720, Note_on_c, 0, 62, 0
3, 162720, Note_on_c, 0, 50, 0
3, 162720, Note_on_c, 0, 51, 55
3, 162720, Note_on_c, 0, 63, 61
3, 162729, Control_c, 0, 64, 0
3, 162778, Control_c, 0, 64, 127
3, 163200, Note_on_c, 0, 63, 0
3, 163200, Note_on_c, 0, 51, 0
3, 163200, Note_on_c, 0, 50, 63
3, 163200, Note_on_c, 0, 62, 63
3, 163209, Control_c, 0, 64, 0
3, 163337, Control_c, 0, 64, 127
3, 163680, Note_on_c, 0, 62, 0
3, 163680, Note_on_c, 0, 50, 0
3, 163680, Note_on_c, 0, 47, 56
3, 163680, Note_on_c, 0, 59, 63
3, 163864, Control_c, 0, 64, 0
3, 164160, Note_on_c, 0, 59, 0
3, 164160, Note_on_c, 0, 47, 0
3, 164160, Note_on_c, 0, 46, 53
3, 164160, Note_on_c, 0, 58, 60
3, 164640, Note_on_c, 0, 58, 0
3, 164640, Note_on_c, 0, 46, 0
3, 164640, Note_on_c, 0, 45, 48
3, 164640, Note_on_c, 0, 57, 54
3, 165120, Note_on_c, 0, 57, 0
3, 165120, Note_on_c, 0, 45, 0
3, 165120, Note_on_c, 0, 43, 54
3, 165120, Note_on_c, 0, 55, 60
3, 165360, Note_on_c, 0, 55, 0
3, 165360, Note_on_c, 0, 43, 0
3, 165600, Note_on_c, 0, 51, 58
3, 165600, Note_on_c, 0, 63, 66
3, 165642, Control_c, 0, 64, 127
3, 166080, Note_on_c, 0, 63, 0
3, 166080, Note_on_c, 0, 51, 0
3, 166080, Note_on_c, 0, 50, 66
3, 166080, Note_on_c, 0, 62, 66
3, 166094, Control_c, 0, 64, 0
3, 166228, Control_c, 0, 64, 127
3, 166560, Note_on_c, 0, 62, 0
3, 166560, Note_on_c, 0, 50, 0
3, 166560, Note_on_c, 0, 51, 57
3, 166560, Note_on_c, 0, 63, 64
3, 166573, Control_c, 0, 64, 0
3, 166652, Control_c, 0, 64, 127
3, 167040, Note_on_c, 0, 63, 0
3, 167040, Note_on_c, 0, 51, 0
3, 167040, Note_on_c, 0, 50, 66
3, 167040, Note_on_c, 0, 62, 66
3, 167051, Control_c, 0, 64, 0
3, 167154, Control_c, 0, 64, 127
3, 167520, Note_on_c, 0, 62, 0
3, 167520, Note_on_c, 0, 50, 0
3, 167520, Note_on_c, 0, 47, 58
3, 167520, Note_on_c, 0, 59, 66
3, 168000, Note_on_c, 0, 59, 0
3, 168000, Note_on_c, 0, 47, 0
3, 168000, Note_on_c, 0, 46, 60
3, 168000, Note_on_c, 0, 58, 69
3, 168011, Control_c, 0, 64, 0
3, 168149, Control_c, 0, 64, 127
3, 168480, Note_on_c, 0, 58, 0
3, 168480, Note_on_c, 0, 46, 0
3, 168480, Note_on_c, 0, 45, 55
3, 168480, Note_on_c, 0, 57, 61
3, 168488, Control_c, 0, 64, 0
3, 168606, Control_c, 0, 64, 127
3, 168960, Note_on_c, 0, 57, 0
3, 168960, Note_on_c, 0, 45, 0
3, 168960, Note_on_c, 0, 43, 61
3, 168960, Note_on_c, 0, 55, 69
3, 168963, Control_c, 0, 64, 0
3, 169006, Control_c, 0, 64, 127
3, 169200, Note_on_c, 0, 55, 0
3, 169200, Note_on_c, 0, 43, 0
3, 169200, Control_c, 0, 64, 0
3, 169440, Note_on_c, 0, 47, 58
3, 169440, Note_on_c, 0, 50, 58
3, 169440, Note_on_c, 0, 54, 58
3, 169440, Note_on_c, 0, 62, 64
3, 169920, Note_on_c, 0, 62, 0
3, 169920, Note_on_c, 0, 47, 0
3, 169920, Note_on_c, 0, 50, 0
3, 169920, Note_on_c, 0, 54, 0
3, 169920, Note_on_c, 0, 55, 61
3, 169920, Note_on_c, 0, 59, 61
3, 169920, Note_on_c, 0, 62, 69
3, 169984, Control_c, 0, 64, 127
3, 170160, Note_on_c, 0, 62, 0
3, 170160, Note_on_c, 0, 59, 0
3, 170160, Note_on_c, 0, 55, 0
3, 170231, Control_c, 0, 64, 0
3, 170400, Note_on_c, 0, 47, 58
3, 170400, Note_on_c, 0, 50, 58
3, 170400, Note_on_c, 0, 54, 58
3, 170400, Note_on_c, 0, 62, 64
3, 170880, Note_on_c, 0, 62, 0
3, 170880, Note_on_c, 0, 47, 0
3, 170880, Note_on_c, 0, 50, 0
3, 170880, Note_on_c, 0, 54, 0
3, 170880, Note_on_c, 0, 55, 61
3, 170880, Note_on_c, 0, 59, 61
3, 170880, Note_on_c, 0, 62, 69
3, 171021, Control_c, 0, 64, 127
3, 171120, Note_on_c, 0, 62, 0
3, 171120, Note_on_c, 0, 59, 0
3, 171120, Note_on_c, 0, 55, 0
3, 171134, Control_c, 0, 64, 0
3, 171360, Note_on_c, 0, 55, 61
3, 171360, Note_on_c, 0, 59, 61
3, 171360, Note_on_c, 0, 62, 68
3, 171445, Control_c, 0, 64, 127
3, 171600, Note_on_c, 0, 62, 0
3, 171600, Note_on_c, 0, 59, 0
3, 171600, Note_on_c, 0, 55, 0
3, 171628, Control_c, 0, 64, 0
3, 171840, Note_on_c, 0, 43, 65
3, 171840, Note_on_c, 0, 50, 65
3, 171840, Note_on_c, 0, 55, 73
3, 172024, Control_c, 0, 64, 127
3, 172800, Note_on_c, 0, 55, 0
3, 172800, Note_on_c, 0, 50, 0
3, 172800, Note_on_c, 0, 43, 0
3, 174400, Control_c, 0, 64, 0
3, 174400, End_track
4, 0, Start_track
4, 0, Title_t, "Tschaikowsky: The Seasons: September"
4, 0, End_track
5, 0, Start_track
5, 0, Title_t, "Copyright © 2004 by Bernd Krüger"
5, 0, End_track
6, 0, Start_track
6, 0, Title_t, "http://www.piano-midi.de"
6, 0, End_track
7, 0, Start_track
7, 0, Title_t, "Edition: 2008-09-22"
7, 0, End_track
8, 0, Start_track
8, 0, End_track
0, 0, End_of_file
